<?xml version="1.0" encoding="UTF-8"?>
<svg xmlns="http://www.w3.org/2000/svg" xmlns:xlink="http://www.w3.org/1999/xlink" version="1.2" >
<font id="Futura SC Book">
<font-face  font-family="Futura SC" units-per-em="1000" ascent="666" descent="-334" font-style="normal" font-weight="400" font-stretch="normal" cap-height="666" x-height="443" underline-position="-65" underline-thickness="69" />
<missing-glyph  horiz-adv-x="250" d="" />
<glyph glyph-name="NULL" d="" />
<glyph glyph-name="CR" unicode="&#xd;" horiz-adv-x="250" d="" />
<glyph glyph-name="space" unicode="&#x20;" horiz-adv-x="250" d="" />
<glyph glyph-name="exclam" unicode="&#x21;" horiz-adv-x="279" d="M140 89 C113 89 90 67 90 40 C90 12 112 -10 140 -10 C167 -10 189 12 189 40 C189 67 167 89 140 89 L140 89 Z M103 137 L176 137 L176 443 L103 443 L103 137 Z " />
<glyph glyph-name="quotedbl" unicode="&#x22;" horiz-adv-x="329" d="M120 399 L134 667 L53 667 L66 399 L120 399 Z M263 399 L276 667 L196 667 L209 399 L263 399 Z " />
<glyph glyph-name="numbersign" unicode="&#x23;" horiz-adv-x="600" d="M559 471 L455 471 L479 664 L417 672 L392 471 L251 471 L275 664 L212 672 L188 471 L74 471 L74 411 L180 411 L163 272 L49 272 L49 212 L155 212 L130 6 L192 -3 L219 212 L360 212 L335 6 L397 -3 L424 212 L534 212 L534 272 L431 272 L449 411 L559 411 L559 471 Z M384 411 L367 272 L227 272 L244 411 L384 411 Z " />
<glyph glyph-name="dollar" unicode="&#x24;" horiz-adv-x="567" d="M327 763 L268 763 L268 673 C172 658 111 592 111 504 C111 426 154 378 268 331 L268 62 C206 67 160 113 149 182 L77 162 C95 65 174 -5 268 -8 L268 -101 L327 -101 L327 -4 C427 19 491 96 491 195 C491 254 465 304 416 336 C391 353 370 364 327 383 L327 602 C361 594 384 575 409 533 L467 571 C438 626 385 665 327 672 L327 763 Z M327 304 C391 273 416 241 416 191 C416 134 383 89 327 67 L327 304 Z M268 409 C211 435 186 464 186 503 C186 552 217 590 268 603 L268 409 Z " />
<glyph glyph-name="percent" unicode="&#x25;" horiz-adv-x="715" d="M181 674 C101 674 33 609 33 531 C33 448 98 383 180 383 C264 383 330 447 330 528 C330 609 264 674 181 674 L181 674 Z M181 619 C231 619 271 579 271 529 C271 479 231 439 182 439 C132 439 92 479 92 530 C92 579 132 619 181 619 L181 619 Z M532 680 L144 10 L182 -13 L570 658 L532 680 Z M533 284 C452 284 385 219 385 141 C385 58 450 -7 532 -7 C616 -7 682 57 682 138 C682 219 616 284 533 284 L533 284 Z M533 229 C583 229 623 189 623 139 C623 89 583 49 534 49 C484 49 444 89 444 140 C444 189 485 229 533 229 L533 229 Z " />
<glyph glyph-name="ampersand" unicode="&#x26;" horiz-adv-x="461" d="M256 249 C310 291 325 314 325 354 C325 411 280 455 223 455 C164 455 119 410 119 351 C119 321 127 300 156 263 C130 247 116 237 102 227 C63 198 40 157 40 115 C40 44 102 -12 179 -12 C226 -12 260 3 320 53 L361 0 L451 0 L370 103 C390 122 405 141 424 167 L372 211 C356 189 343 173 327 157 L256 249 Z M277 107 C228 64 206 52 179 52 C142 52 110 82 110 117 C110 147 128 166 198 209 L277 107 Z M214 302 C192 331 188 339 188 354 C188 374 204 390 223 390 C242 390 256 376 256 355 C256 336 250 328 214 302 L214 302 Z " />
<glyph glyph-name="quotesingle" unicode="&#x27;" horiz-adv-x="187" d="M120 399 L134 667 L53 667 L66 399 L120 399 Z " />
<glyph glyph-name="parenleft" unicode="&#x28;" horiz-adv-x="294" d="M166 733 C115 623 83 448 83 277 C83 105 115 -70 166 -180 L230 -151 C179 -20 155 118 155 277 C155 436 179 574 230 704 L166 733 Z " />
<glyph glyph-name="parenright" unicode="&#x29;" horiz-adv-x="294" d="M126 -180 C178 -70 210 105 210 277 C210 448 178 623 126 733 L63 704 C114 573 138 436 138 277 C138 117 114 -20 63 -151 L126 -180 Z " />
<glyph glyph-name="asterisk" unicode="&#x2a;" horiz-adv-x="567" d="M255 605 L139 648 L118 585 L238 551 L161 454 L215 414 L283 518 L352 414 L406 454 L329 551 L449 585 L428 648 L312 605 L317 729 L250 729 L255 605 Z " />
<glyph glyph-name="plus" unicode="&#x2b;" horiz-adv-x="567" d="M48 310 L253 310 L253 108 L314 108 L314 310 L519 310 L519 371 L314 371 L314 572 L253 572 L253 371 L48 371 L48 310 Z " />
<glyph glyph-name="comma" unicode="&#x2c;" horiz-adv-x="227" d="M107 98 L24 -133 L72 -152 L172 74 L107 98 Z " />
<glyph glyph-name="hyphen" unicode="&#x2d;" horiz-adv-x="181" d="M0 245 L0 181 L181 181 L181 245 L0 245 Z " />
<glyph glyph-name="period" unicode="&#x2e;" horiz-adv-x="227" d="M113 89 C87 89 64 67 64 40 C64 12 86 -10 114 -10 C141 -10 163 12 163 40 C163 67 141 89 113 89 L113 89 Z " />
<glyph glyph-name="slash" unicode="&#x2f;" horiz-adv-x="485" d="M422 733 L-14 -153 L44 -180 L480 707 L422 733 Z " />
<glyph glyph-name="zero" unicode="0" horiz-adv-x="567" d="M284 518 C150 518 45 403 45 255 C45 103 147 -12 284 -12 C419 -12 522 103 522 254 C522 404 420 518 284 518 L284 518 Z M283 453 C377 453 449 366 449 253 C449 141 376 53 283 53 C188 53 118 138 118 254 C118 366 190 453 283 453 L283 453 Z " />
<glyph glyph-name="one" unicode="1" horiz-adv-x="367" d="M164 438 L164 0 L239 0 L239 507 L93 507 L54 438 L164 438 Z " />
<glyph glyph-name="two" unicode="2" horiz-adv-x="567" d="M232 65 L390 201 C441 245 467 292 467 343 C467 440 380 518 273 518 C201 518 136 484 100 427 C81 399 73 373 68 325 L142 325 C146 357 152 375 163 393 C184 430 228 453 274 453 C341 453 394 406 394 347 C394 305 370 270 306 216 L50 0 L480 0 L480 65 L232 65 Z " />
<glyph glyph-name="three" unicode="3" horiz-adv-x="567" d="M254 157 C292 156 309 153 330 144 C371 125 396 82 396 31 C396 -46 339 -106 265 -106 C225 -106 182 -85 160 -54 C147 -37 142 -21 137 13 L65 13 C68 -29 74 -51 89 -77 C121 -135 188 -171 262 -171 C381 -171 469 -86 469 29 C469 103 434 162 374 190 C429 221 459 273 459 338 C459 442 380 518 271 518 C203 518 146 489 117 440 C100 413 93 390 86 342 L159 342 C165 378 170 393 180 409 C198 436 232 453 271 453 C338 453 386 404 386 336 C386 294 366 257 333 238 C312 227 294 223 254 222 L254 157 Z " />
<glyph glyph-name="four" unicode="4" horiz-adv-x="547" d="M415 65 L415 544 L20 0 L344 0 L344 -160 L415 -160 L415 0 L497 0 L497 65 L415 65 Z M344 65 L150 65 L344 331 L344 65 Z " />
<glyph glyph-name="five" unicode="5" horiz-adv-x="567" d="M477 442 L477 507 L212 507 L115 191 C168 224 201 236 244 236 C337 236 409 162 409 66 C409 -31 336 -106 243 -106 C179 -106 132 -76 92 -10 L33 -52 C82 -131 150 -171 237 -171 C378 -171 482 -69 482 68 C482 201 387 299 257 299 C242 299 234 298 217 295 L264 442 L477 442 Z " />
<glyph glyph-name="six" unicode="6" horiz-adv-x="567" d="M335 684 L108 368 C72 319 53 266 53 214 C53 90 157 -12 283 -12 C409 -12 512 91 512 217 C512 340 417 438 299 438 C276 438 263 436 237 428 L391 642 L335 684 Z M282 377 C369 377 438 305 438 213 C438 126 368 53 283 53 C196 53 126 126 126 215 C126 304 196 377 282 377 L282 377 Z " />
<glyph glyph-name="seven" unicode="7" horiz-adv-x="533" d="M416 442 L63 -139 L118 -176 L531 507 L74 507 L74 442 L416 442 Z " />
<glyph glyph-name="eight" unicode="8" horiz-adv-x="567" d="M184 347 C118 313 85 259 85 184 C85 72 172 -12 289 -12 C404 -12 489 72 489 186 C489 258 454 317 392 347 C443 376 476 434 476 494 C476 599 396 679 289 679 C183 679 102 599 102 494 C102 432 132 378 184 347 L184 347 Z M288 614 C353 614 405 560 405 494 C405 429 353 377 289 377 C223 377 172 429 172 495 C172 560 225 614 288 614 L288 614 Z M287 314 C358 314 416 257 416 186 C416 113 358 53 287 53 C216 53 158 113 158 187 C158 257 216 314 287 314 L287 314 Z " />
<glyph glyph-name="nine" unicode="9" horiz-adv-x="567" d="M231 -176 L459 139 C496 190 514 241 514 293 C514 416 410 518 283 518 C157 518 54 415 54 290 C54 167 149 70 268 70 C290 70 304 72 329 79 L176 -135 L231 -176 Z M284 453 C371 453 441 381 441 292 C441 203 371 131 284 131 C197 131 127 203 127 294 C127 381 198 453 284 453 L284 453 Z " />
<glyph glyph-name="colon" unicode="&#x3a;" horiz-adv-x="227" d="M113 89 C87 89 64 67 64 40 C64 12 86 -10 114 -10 C141 -10 163 12 163 40 C163 67 141 89 113 89 L113 89 Z M113 424 C86 424 64 402 64 376 C64 348 86 326 113 326 C140 326 162 348 162 375 C162 402 140 424 113 424 L113 424 Z " />
<glyph glyph-name="semicolon" unicode="&#x3b;" horiz-adv-x="227" d="M107 98 L24 -133 L72 -152 L172 74 L107 98 Z M129 424 C102 424 80 402 80 376 C80 348 102 326 129 326 C156 326 178 348 178 375 C178 402 156 424 129 424 L129 424 Z " />
<glyph glyph-name="less" unicode="&#x3c;" horiz-adv-x="500" d="M466 573 L33 369 L33 304 L466 101 L466 175 L113 337 L466 498 L466 573 Z " />
<glyph glyph-name="equal" unicode="&#x3d;" horiz-adv-x="567" d="M48 373 L519 373 L519 431 L48 431 L48 373 Z M48 249 L519 249 L519 307 L48 307 L48 249 Z " />
<glyph glyph-name="greater" unicode="&#x3e;" horiz-adv-x="500" d="M34 101 L467 304 L467 369 L34 573 L34 498 L387 337 L34 175 L34 101 Z " />
<glyph glyph-name="question" unicode="&#x3f;" horiz-adv-x="334" d="M167 89 C140 89 117 67 117 40 C117 12 139 -10 167 -10 C194 -10 216 12 216 40 C216 67 194 89 167 89 L167 89 Z M199 202 C197 178 185 165 165 165 C146 165 132 180 132 200 C132 222 142 230 195 247 C257 267 280 294 280 345 C280 409 232 455 166 455 C103 455 53 410 53 352 C53 344 54 339 56 329 L125 329 C123 337 122 341 122 348 C122 375 140 393 166 393 C193 393 210 375 210 347 C210 324 201 312 176 303 C129 287 126 286 110 278 C81 263 63 234 63 202 C63 150 108 110 165 110 C224 110 263 145 269 202 L199 202 Z " />
<glyph glyph-name="at" unicode="&#x40;" horiz-adv-x="720" d="M542 508 L476 508 L471 460 C439 499 404 516 353 516 C246 516 166 432 166 320 C166 216 237 139 334 139 C384 139 416 155 457 199 C470 160 493 141 529 141 C616 141 690 252 690 381 C690 551 554 679 373 679 C177 679 25 529 25 334 C25 209 89 95 192 35 C246 4 312 -12 387 -12 C475 -12 541 4 626 46 L605 104 C592 98 591 98 584 95 C516 62 459 49 386 49 C324 49 271 62 228 86 C142 136 90 229 90 334 C90 494 213 619 372 619 C523 619 630 518 630 375 C630 288 585 204 539 204 C521 204 512 215 512 236 C512 254 513 265 515 281 L542 508 Z M359 451 C416 451 457 408 457 346 C457 270 401 204 338 204 C282 204 242 252 242 318 C242 394 292 451 359 451 L359 451 Z " />
<glyph glyph-name="A" unicode="A" horiz-adv-x="620" d="M453 189 L532 0 L614 0 L314 699 L7 0 L88 0 L168 189 L453 189 Z M424 258 L199 258 L313 525 L424 258 Z " />
<glyph glyph-name="B" unicode="B" horiz-adv-x="530" d="M87 0 L253 0 C329 0 373 12 414 45 C457 80 481 131 481 188 C481 271 434 334 355 357 C401 390 421 429 421 486 C421 541 398 594 359 625 C324 654 278 667 208 667 L87 667 L87 0 Z M162 373 L162 598 L220 598 C266 598 292 591 313 573 C335 553 348 521 348 485 C348 450 336 419 312 399 C290 379 267 373 218 373 L162 373 Z M162 69 L162 310 L237 310 C291 310 325 304 351 289 C385 271 407 231 407 190 C407 154 391 120 364 98 C336 76 308 69 247 69 L162 69 Z " />
<glyph glyph-name="C" unicode="C" horiz-adv-x="646" d="M596 612 C528 659 473 678 399 678 C207 678 50 522 50 331 C50 143 206 -12 395 -12 C468 -12 531 8 596 53 L596 145 C532 85 469 58 395 58 C247 58 125 181 125 330 C125 483 247 608 394 608 C470 608 531 581 596 520 L596 612 Z " />
<glyph glyph-name="D" unicode="D" horiz-adv-x="633" d="M87 0 L223 0 C331 0 401 22 467 77 C544 140 584 229 584 334 C584 438 544 528 469 590 C405 644 332 667 224 667 L87 667 L87 0 Z M162 69 L162 598 L227 598 C309 598 369 579 419 537 C476 489 509 415 509 333 C509 252 477 179 418 130 C368 88 309 69 227 69 L162 69 Z " />
<glyph glyph-name="E" unicode="E" horiz-adv-x="482" d="M432 598 L432 667 L87 667 L87 0 L432 0 L432 69 L162 69 L162 330 L425 330 L425 399 L162 399 L162 598 L432 598 Z " />
<glyph glyph-name="F" unicode="F" horiz-adv-x="433" d="M390 598 L390 667 L87 667 L87 0 L162 0 L162 330 L383 330 L383 399 L162 399 L162 598 L390 598 Z " />
<glyph glyph-name="G" unicode="G" horiz-adv-x="758" d="M430 335 L430 266 L628 266 C625 225 618 199 601 172 C560 104 476 58 393 58 C248 58 125 183 125 331 C125 484 247 608 399 608 C490 608 558 570 624 483 L679 533 C647 572 628 591 602 610 C545 654 473 678 398 678 C206 678 50 523 50 332 C50 144 205 -12 392 -12 C509 -12 619 51 673 149 C698 194 708 244 708 318 L708 335 L430 335 Z " />
<glyph glyph-name="H" unicode="H" horiz-adv-x="663" d="M162 395 L162 667 L87 667 L87 0 L162 0 L162 326 L502 326 L502 0 L577 0 L577 667 L502 667 L502 395 L162 395 Z " />
<glyph glyph-name="I" unicode="I" horiz-adv-x="248" d="M162 667 L87 667 L87 0 L162 0 L162 667 Z " />
<glyph glyph-name="J" unicode="J" horiz-adv-x="307" d="M220 667 L145 667 L145 128 C145 40 123 1 71 1 C44 1 27 9 -6 38 L-47 -20 C-6 -54 31 -69 73 -69 C111 -69 147 -54 173 -29 C208 5 220 46 220 128 L220 667 Z " />
<glyph glyph-name="K" unicode="K" horiz-adv-x="569" d="M162 381 L162 667 L87 667 L87 0 L162 0 L162 287 L181 306 L454 0 L556 0 L233 356 L546 667 L446 667 L162 381 Z " />
<glyph glyph-name="L" unicode="L" horiz-adv-x="358" d="M162 667 L87 667 L87 0 L345 0 L345 69 L162 69 L162 667 Z " />
<glyph glyph-name="M" unicode="M" horiz-adv-x="863" d="M63 0 L139 0 L205 464 L429 -28 L656 464 L718 0 L794 0 L691 705 L429 141 L173 704 L63 0 Z " />
<glyph glyph-name="N" unicode="N" horiz-adv-x="767" d="M87 0 L162 0 L162 514 L681 -30 L681 667 L606 667 L606 150 L87 695 L87 0 Z " />
<glyph glyph-name="O" unicode="O" horiz-adv-x="794" d="M398 678 C210 678 50 521 50 337 C50 247 80 168 136 105 C202 32 299 -12 394 -12 C587 -12 744 142 744 333 C744 522 588 678 398 678 L398 678 Z M397 608 C548 608 669 485 669 333 C669 180 547 58 395 58 C329 58 261 86 210 134 C154 187 125 255 125 337 C125 485 248 608 397 608 L397 608 Z " />
<glyph glyph-name="P" unicode="P" horiz-adv-x="457" d="M162 292 L227 292 C358 292 438 363 438 480 C438 535 415 587 376 620 C337 654 290 667 208 667 L87 667 L87 0 L162 0 L162 292 Z M162 360 L162 598 L217 598 C271 598 303 589 328 568 C352 548 365 516 365 480 C365 404 313 360 222 360 L162 360 Z " />
<glyph glyph-name="Q" unicode="Q" horiz-adv-x="794" d="M748 -7 L648 95 C717 172 744 239 744 329 C744 522 588 678 397 678 C206 678 50 522 50 331 C50 142 205 -12 395 -12 C468 -12 537 10 597 53 L653 -7 L748 -7 Z M481 268 L384 268 L545 106 C500 74 450 58 394 58 C328 58 260 86 208 134 C154 185 125 253 125 331 C125 486 244 608 397 608 C549 608 669 486 669 331 C669 258 648 206 596 148 L481 268 Z " />
<glyph glyph-name="R" unicode="R" horiz-adv-x="502" d="M261 298 C363 307 429 379 429 480 C429 543 401 600 355 631 C316 657 271 667 195 667 L87 667 L87 0 L162 0 L162 292 L181 292 L382 0 L473 0 L261 298 Z M162 358 L162 598 L206 598 C253 598 283 591 307 576 C338 557 356 521 356 480 C356 402 303 358 209 358 L162 358 Z " />
<glyph glyph-name="S" unicode="S" horiz-adv-x="517" d="M443 574 C403 643 346 678 271 678 C164 678 84 604 84 506 C84 433 123 385 219 342 C312 300 312 300 337 284 C374 261 392 230 392 189 C392 116 333 58 258 58 C214 58 173 78 149 112 C136 130 130 146 122 180 L50 160 C75 51 150 -12 255 -12 C375 -12 467 78 467 193 C467 277 424 330 316 377 C225 417 225 417 201 433 C173 452 159 476 159 505 C159 564 207 608 269 608 C321 608 350 590 384 536 L443 574 Z " />
<glyph glyph-name="T" unicode="T" horiz-adv-x="425" d="M249 598 L411 598 L411 667 L13 667 L13 598 L174 598 L174 0 L249 0 L249 598 Z " />
<glyph glyph-name="U" unicode="U" horiz-adv-x="649" d="M162 667 L87 667 L87 238 C87 165 99 121 131 80 C174 23 248 -12 325 -12 C401 -12 474 23 518 80 C550 121 562 166 562 238 L562 667 L487 667 L487 258 C487 189 482 159 465 130 C439 88 382 58 325 58 C267 58 210 88 184 130 C167 159 162 189 162 258 L162 667 Z " />
<glyph glyph-name="V" unicode="V" horiz-adv-x="554" d="M89 667 L7 667 L277 -39 L548 667 L467 667 L278 159 L89 667 Z " />
<glyph glyph-name="W" unicode="W" horiz-adv-x="955" d="M88 667 L7 667 L263 -34 L473 499 L670 -34 L949 667 L868 667 L672 167 L475 701 L266 167 L88 667 Z " />
<glyph glyph-name="X" unicode="X" horiz-adv-x="502" d="M210 345 L13 0 L97 0 L252 274 L405 0 L488 0 L295 345 L479 667 L394 667 L253 416 L115 667 L30 667 L210 345 Z " />
<glyph glyph-name="Y" unicode="Y" horiz-adv-x="528" d="M225 287 L225 0 L300 0 L300 287 L522 667 L435 667 L263 369 L93 667 L7 667 L225 287 Z " />
<glyph glyph-name="Z" unicode="Z" horiz-adv-x="534" d="M147 69 L510 667 L70 667 L70 598 L387 598 L23 0 L501 0 L501 69 L147 69 Z " />
<glyph glyph-name="bracketleft" unicode="&#x5b;" horiz-adv-x="291" d="M153 662 L248 662 L248 729 L80 729 L80 -176 L248 -176 L248 -109 L153 -109 L153 662 Z " />
<glyph glyph-name="backslash" unicode="&#x5c;" horiz-adv-x="485" d="M63 733 L5 707 L441 -180 L499 -153 L63 733 Z " />
<glyph glyph-name="bracketright" unicode="&#x5d;" horiz-adv-x="291" d="M138 -109 L43 -109 L43 -176 L211 -176 L211 729 L43 729 L43 662 L138 662 L138 -109 Z " />
<glyph glyph-name="asciicircum" unicode="&#x5e;" horiz-adv-x="500" d="M105 364 L249 609 L394 364 L475 364 L299 669 L200 669 L24 364 L105 364 Z " />
<glyph glyph-name="underscore" unicode="&#x5f;" horiz-adv-x="500" d="M0 -64 L0 -133 L500 -133 L500 -64 L0 -64 Z " />
<glyph glyph-name="grave" unicode="&#x60;" horiz-adv-x="500" d="M114 643 L249 507 L293 532 L188 676 L114 643 Z " />
<glyph glyph-name="a" unicode="a" horiz-adv-x="445" d="M309 118 L361 0 L439 0 L226 482 L7 0 L85 0 L137 118 L309 118 Z M285 183 L162 183 L224 327 L285 183 Z " />
<glyph glyph-name="b" unicode="b" horiz-adv-x="435" d="M87 0 L223 0 C276 0 307 9 336 31 C367 56 385 91 385 129 C385 184 348 228 291 240 C329 253 347 278 347 318 C347 355 330 392 302 414 C276 434 243 443 195 443 L87 443 L87 0 Z M158 258 L158 378 L202 378 C254 378 277 359 277 317 C277 276 254 258 201 258 L158 258 Z M158 65 L158 194 L213 194 C282 194 314 174 314 131 C314 112 305 93 290 81 C273 69 257 65 219 65 L158 65 Z " />
<glyph glyph-name="c" unicode="c" horiz-adv-x="474" d="M424 403 C375 440 333 455 282 455 C150 455 43 349 43 220 C43 93 150 -12 279 -12 C331 -12 375 3 424 39 L424 132 C369 75 329 53 279 53 C189 53 115 129 115 220 C115 313 189 390 278 390 C330 390 371 368 424 310 L424 403 Z " />
<glyph glyph-name="d" unicode="d" horiz-adv-x="480" d="M87 0 L191 0 C263 0 310 15 356 51 C408 94 436 153 436 222 C436 290 408 350 357 391 C313 428 263 443 191 443 L87 443 L87 0 Z M158 65 L158 378 L193 378 C297 378 364 317 364 221 C364 127 297 65 193 65 L158 65 Z " />
<glyph glyph-name="e" unicode="e" horiz-adv-x="391" d="M342 378 L342 443 L87 443 L87 0 L342 0 L342 65 L158 65 L158 209 L337 209 L337 274 L158 274 L158 378 L342 378 Z " />
<glyph glyph-name="f" unicode="f" horiz-adv-x="358" d="M315 378 L315 443 L87 443 L87 0 L158 0 L158 209 L311 209 L311 274 L158 274 L158 378 L315 378 Z " />
<glyph glyph-name="g" unicode="g" horiz-adv-x="541" d="M295 232 L295 167 L418 167 C409 131 402 115 386 99 C356 70 316 53 277 53 C189 53 115 130 115 221 C115 315 189 391 281 391 C341 391 379 367 428 298 L481 346 C459 373 446 386 431 400 C393 435 336 456 280 456 C149 456 43 351 43 221 C43 93 148 -12 277 -12 C357 -12 433 31 470 98 C487 129 494 162 494 215 L494 232 L295 232 Z " />
<glyph glyph-name="h" unicode="h" horiz-adv-x="519" d="M158 272 L158 443 L87 443 L87 0 L158 0 L158 207 L361 207 L361 0 L432 0 L432 443 L361 443 L361 272 L158 272 Z " />
<glyph glyph-name="i" unicode="i" horiz-adv-x="245" d="M158 443 L87 443 L87 0 L158 0 L158 443 Z " />
<glyph glyph-name="j" unicode="j" horiz-adv-x="243" d="M156 443 L85 443 L85 93 C85 39 74 18 48 18 C32 18 23 24 -6 54 L-47 -2 C-9 -36 16 -47 49 -47 C77 -47 103 -36 122 -17 C147 7 156 37 156 93 L156 443 Z " />
<glyph glyph-name="k" unicode="k" horiz-adv-x="448" d="M158 268 L158 443 L87 443 L87 0 L158 0 L158 184 L171 196 L337 0 L434 0 L226 240 L430 443 L332 443 L158 268 Z " />
<glyph glyph-name="l" unicode="l" horiz-adv-x="300" d="M158 443 L87 443 L87 0 L287 0 L287 65 L158 65 L158 443 Z " />
<glyph glyph-name="m" unicode="m" horiz-adv-x="618" d="M63 0 L134 0 L172 259 L306 -36 L442 259 L479 0 L549 0 L476 485 L307 120 L141 485 L63 0 Z " />
<glyph glyph-name="n" unicode="n" horiz-adv-x="584" d="M87 0 L158 0 L157 313 L498 -37 L498 443 L427 443 L428 129 L87 480 L87 0 Z " />
<glyph glyph-name="o" unicode="o" horiz-adv-x="560" d="M280 455 C152 455 43 349 43 224 C43 93 147 -12 278 -12 C410 -12 517 92 517 221 C517 349 410 455 280 455 L280 455 Z M280 390 C372 390 445 315 445 221 C445 128 371 53 279 53 C188 53 115 129 115 224 C115 315 190 390 280 390 L280 390 Z " />
<glyph glyph-name="p" unicode="p" horiz-adv-x="378" d="M158 183 L206 183 C299 183 358 233 358 313 C358 351 342 387 313 410 C285 434 252 443 195 443 L87 443 L87 0 L158 0 L158 183 Z M158 247 L158 378 L200 378 C259 378 287 357 287 313 C287 270 258 247 204 247 L158 247 Z " />
<glyph glyph-name="q" unicode="q" horiz-adv-x="560" d="M522 0 L457 67 C497 112 517 164 517 221 C517 349 410 455 281 455 C150 455 43 349 43 220 C43 92 149 -12 281 -12 C327 -12 368 0 409 27 L436 0 L522 0 Z M242 197 L362 75 C333 60 309 53 280 53 C189 53 115 128 115 221 C115 315 188 390 280 390 C372 390 445 315 445 221 C445 182 433 148 409 116 L329 197 L242 197 Z " />
<glyph glyph-name="r" unicode="r" horiz-adv-x="421" d="M256 191 C316 205 352 251 352 312 C352 357 332 396 298 418 C271 436 239 443 186 443 L87 443 L87 0 L158 0 L158 184 L178 184 L304 0 L391 0 L256 191 Z M158 246 L158 378 L194 378 C253 378 281 357 281 313 C281 269 251 246 195 246 L158 246 Z " />
<glyph glyph-name="s" unicode="s" horiz-adv-x="402" d="M341 369 C308 429 268 455 210 455 C133 455 74 401 74 331 C74 279 103 245 172 216 C233 190 233 190 249 180 C271 168 280 152 280 129 C280 86 246 53 203 53 C155 53 129 80 119 141 L50 122 C69 34 121 -12 200 -12 C285 -12 352 52 352 133 C352 191 320 228 243 260 C183 285 183 285 168 294 C153 304 146 315 146 330 C146 364 173 390 209 390 C242 390 256 380 281 337 L284 331 L341 369 Z " />
<glyph glyph-name="t" unicode="t" horiz-adv-x="315" d="M193 378 L301 378 L301 443 L13 443 L13 378 L121 378 L121 0 L193 0 L193 378 Z " />
<glyph glyph-name="u" unicode="u" horiz-adv-x="510" d="M158 443 L87 443 L87 162 C87 112 96 81 118 52 C149 12 201 -12 256 -12 C310 -12 362 12 393 52 C415 81 424 113 424 162 L424 443 L353 443 L353 174 C353 130 350 112 340 95 C325 71 290 53 256 53 C221 53 186 71 171 95 C161 112 158 130 158 174 L158 443 Z " />
<glyph glyph-name="v" unicode="v" horiz-adv-x="402" d="M85 443 L7 443 L201 -47 L396 443 L319 443 L202 143 L85 443 Z " />
<glyph glyph-name="w" unicode="w" horiz-adv-x="635" d="M81 443 L6 443 L182 -29 L313 305 L436 -29 L628 443 L552 443 L438 150 L315 485 L184 151 L81 443 Z " />
<glyph glyph-name="x" unicode="x" horiz-adv-x="381" d="M192 294 L105 443 L24 443 L151 229 L13 0 L94 0 L191 164 L287 0 L367 0 L232 229 L362 443 L280 443 L192 294 Z " />
<glyph glyph-name="y" unicode="y" horiz-adv-x="393" d="M160 189 L160 0 L232 0 L232 189 L387 443 L304 443 L196 265 L90 443 L7 443 L160 189 Z " />
<glyph glyph-name="z" unicode="z" horiz-adv-x="410" d="M143 65 L387 443 L62 443 L62 378 L267 378 L23 0 L371 0 L371 65 L143 65 Z " />
<glyph glyph-name="braceleft" unicode="&#x7b;" horiz-adv-x="291" d="M181 580 C181 651 194 667 251 667 L260 667 L260 729 C247 730 241 730 234 730 C145 730 108 690 108 592 L108 397 C108 345 92 319 51 308 L51 249 C93 238 108 213 108 156 L108 -28 C108 -135 143 -176 233 -176 C236 -176 245 -176 260 -175 L260 -113 C192 -113 181 -101 181 -23 L181 158 C181 221 165 251 120 276 C167 301 181 328 181 393 L181 580 Z " />
<glyph glyph-name="bar" unicode="&#x7c;" horiz-adv-x="500" d="M213 667 L213 -167 L288 -167 L288 667 L213 667 Z " />
<glyph glyph-name="braceright" unicode="&#x7d;" horiz-adv-x="291" d="M110 -26 C110 -97 97 -113 40 -113 L31 -113 L31 -176 L57 -176 C146 -176 183 -136 183 -39 L183 157 C183 209 199 235 240 245 L240 304 C198 316 183 341 183 398 L183 582 C183 656 165 699 126 717 C102 728 92 729 31 729 L31 666 C99 667 110 655 110 576 L110 395 C110 332 126 302 171 277 C124 253 110 226 110 161 L110 -26 Z " />
<glyph glyph-name="asciitilde" unicode="&#x7e;" horiz-adv-x="667" d="M136 582 C164 634 190 655 225 655 C241 655 264 649 290 637 C379 597 402 589 430 589 C491 589 535 623 574 702 L529 728 C499 677 477 660 439 660 C415 660 401 664 342 692 C288 717 257 726 230 726 C171 726 135 696 93 611 L136 582 Z " />
<glyph glyph-name="uni00A0" unicode="&#xa0;" horiz-adv-x="250" d="" />
<glyph glyph-name="exclamdown" unicode="&#xa1;" horiz-adv-x="279" d="M139 454 C112 454 90 432 90 404 C90 377 112 355 139 355 C167 355 189 377 189 404 C189 432 167 454 139 454 L139 454 Z M176 307 L103 307 L103 0 L176 0 L176 307 Z " />
<glyph glyph-name="cent" unicode="&#xa2;" horiz-adv-x="567" d="M342 650 L284 650 L284 556 C177 542 98 450 98 339 C98 229 177 138 284 124 L284 24 L342 24 L342 123 C372 124 414 140 451 165 L451 259 C416 217 381 194 342 188 L342 492 C382 486 413 466 448 425 L448 519 C416 541 381 554 342 557 L342 650 Z M284 189 C217 203 171 265 171 340 C171 414 218 477 284 490 L284 189 Z " />
<glyph glyph-name="sterling" unicode="&#xa3;" horiz-adv-x="567" d="M261 293 C259 298 257 303 256 305 C254 308 247 322 236 341 C194 418 182 450 182 485 C182 553 235 604 305 604 C357 604 399 576 414 530 C420 510 422 496 425 458 L498 478 C493 599 418 676 305 676 C194 676 107 594 107 490 C107 445 115 418 151 350 C157 338 167 318 180 293 L92 293 L92 236 L204 236 C209 217 211 208 211 195 C211 166 203 143 182 111 C132 110 86 79 53 26 L110 -13 C136 26 158 40 190 40 C211 40 227 36 284 15 C336 -4 367 -11 394 -11 C452 -11 495 21 531 92 L471 128 C443 78 422 61 391 61 C374 61 360 65 316 81 C301 86 287 91 258 101 C278 137 287 167 287 197 C287 210 286 219 281 236 L387 236 L387 293 L261 293 Z " />
<glyph glyph-name="currency" unicode="&#xa4;" horiz-adv-x="667" d="M55 123 L96 82 L191 176 C251 138 285 126 335 126 C387 126 424 139 478 177 L574 82 L614 123 L519 219 C558 278 569 308 569 360 C569 411 557 445 519 502 L613 596 L572 638 L477 544 C419 584 387 595 334 595 C281 595 250 584 190 543 L94 638 L53 596 L148 501 C111 447 98 412 98 360 C98 309 111 272 150 217 L55 123 Z M336 529 C427 529 502 452 502 360 C502 267 427 192 334 192 C242 192 166 268 166 360 C166 454 241 529 336 529 L336 529 Z " />
<glyph glyph-name="yen" unicode="&#xa5;" horiz-adv-x="567" d="M375 383 L517 383 L517 440 L408 440 L541 667 L454 667 L282 369 L112 667 L26 667 L156 440 L50 440 L50 383 L189 383 L238 296 L50 296 L50 239 L244 239 L244 0 L319 0 L319 239 L517 239 L517 296 L325 296 L375 383 Z " />
<glyph glyph-name="brokenbar" unicode="&#xa6;" horiz-adv-x="500" d="M213 667 L213 333 L288 333 L288 667 L213 667 Z M213 153 L213 -167 L288 -167 L288 153 L213 153 Z " />
<glyph glyph-name="section" unicode="&#xa7;" horiz-adv-x="567" d="M103 2 C105 -49 112 -82 127 -107 C154 -155 209 -184 274 -184 C379 -184 449 -117 449 -17 C449 25 435 65 412 88 C401 100 391 107 366 122 C437 164 466 209 466 279 C466 331 446 378 413 405 C391 424 360 439 311 457 C247 479 244 480 223 495 C200 512 189 535 189 565 C189 627 231 669 293 669 C329 669 361 652 376 625 C387 606 391 584 392 548 L463 548 C460 598 452 633 435 662 C409 708 353 737 292 737 C193 737 117 665 117 571 C117 509 142 469 201 435 C135 406 101 352 101 278 C101 229 119 187 150 158 C171 139 195 127 244 108 C313 81 313 81 333 68 C362 49 376 23 376 -15 C376 -77 338 -115 276 -115 C239 -115 211 -102 194 -75 C182 -58 178 -39 175 2 L103 2 Z M283 389 C343 389 391 340 391 280 C391 220 343 171 283 171 C223 171 175 220 175 281 C175 340 224 389 283 389 L283 389 Z " />
<glyph glyph-name="dieresis" unicode="&#xa8;" horiz-adv-x="500" d="M163 610 C136 610 113 587 113 561 C113 533 135 510 163 510 C191 510 213 533 213 560 C213 588 191 610 163 610 L163 610 Z M337 610 C310 610 287 588 287 561 C287 533 309 510 337 510 C365 510 387 533 387 560 C387 588 365 610 337 610 L337 610 Z " />
<glyph glyph-name="copyright" unicode="&#xa9;" horiz-adv-x="740" d="M523 478 C474 520 437 535 383 535 C270 535 176 441 176 329 C176 218 271 124 385 124 C435 124 474 139 523 178 L523 262 C491 225 489 223 480 216 C455 194 415 179 383 179 C303 179 234 248 234 327 C234 409 303 479 383 479 C417 479 455 464 480 441 C490 432 492 430 523 393 L523 478 Z M375 678 C181 678 25 526 25 336 C25 143 178 -11 370 -11 C560 -11 714 143 714 334 C714 521 560 678 375 678 L375 678 Z M374 622 C528 622 658 490 658 334 C658 174 529 45 370 45 C209 45 81 174 81 336 C81 405 108 474 155 526 C213 590 286 622 374 622 L374 622 Z " />
<glyph glyph-name="ordfeminine" unicode="&#xaa;" horiz-adv-x="358" d="M254 664 L254 632 C230 657 201 670 166 670 C94 670 41 615 41 539 C41 463 94 407 167 407 C203 407 230 419 254 445 L254 414 L301 414 L301 664 L254 664 Z M172 628 C222 628 257 592 257 539 C257 486 222 449 172 449 C124 449 89 487 89 541 C89 590 125 628 172 628 L172 628 Z " />
<glyph glyph-name="guillemotleft" unicode="&#xab;" horiz-adv-x="431" d="M262 213 L381 364 L335 400 L186 213 L335 29 L381 66 L262 213 Z M114 213 L233 364 L186 400 L37 213 L186 29 L233 66 L114 213 Z " />
<glyph glyph-name="logicalnot" unicode="&#xac;" horiz-adv-x="500" d="M391 0 L466 0 L466 267 L33 267 L33 197 L391 197 L391 0 Z " />
<glyph glyph-name="uni00AD" unicode="&#xad;" horiz-adv-x="181" d="M0 245 L0 181 L181 181 L181 245 L0 245 Z " />
<glyph glyph-name="registered" unicode="&#xae;" horiz-adv-x="740" d="M390 307 C448 317 482 356 482 416 C482 490 436 530 350 530 L282 530 L282 130 L339 130 L339 281 L442 130 L512 130 L390 307 Z M339 359 L339 475 L352 475 C402 475 424 457 424 417 C424 379 401 359 357 359 L339 359 Z M375 678 C181 678 25 526 25 336 C25 143 178 -11 370 -11 C560 -11 714 143 714 334 C714 521 560 678 375 678 L375 678 Z M374 622 C528 622 658 490 658 334 C658 174 529 45 370 45 C209 45 81 174 81 336 C81 405 108 474 155 526 C213 590 286 622 374 622 L374 622 Z " />
<glyph glyph-name="macron" unicode="&#xaf;" horiz-adv-x="500" d="M117 583 L117 523 L383 523 L383 583 L117 583 Z " />
<glyph glyph-name="degree" unicode="&#xb0;" horiz-adv-x="567" d="M285 677 C210 677 150 618 150 543 C150 470 210 410 284 410 C357 410 417 470 417 544 C417 617 357 677 285 677 L285 677 Z M285 624 C328 624 364 587 364 544 C364 499 328 463 284 463 C239 463 203 499 203 544 C203 588 239 624 285 624 L285 624 Z " />
<glyph glyph-name="plusminus" unicode="&#xb1;" horiz-adv-x="567" d="M48 310 L253 310 L253 115 L314 115 L314 310 L519 310 L519 371 L314 371 L314 572 L253 572 L253 371 L48 371 L48 310 Z M48 0 L519 0 L519 61 L48 61 L48 0 Z " />
<glyph glyph-name="twosuperior" unicode="&#xb2;" horiz-adv-x="387" d="M150 314 L229 400 C304 481 320 508 320 552 C320 620 262 673 188 673 C142 673 101 653 77 618 C64 599 59 583 55 545 L108 545 C111 570 114 581 122 593 C135 613 161 626 188 626 C233 626 268 594 268 553 C268 525 252 498 197 438 L41 267 L319 267 L319 314 L150 314 Z " />
<glyph glyph-name="threesuperior" unicode="&#xb3;" horiz-adv-x="387" d="M172 454 C197 453 208 452 221 446 C245 436 260 411 260 383 C260 340 226 307 182 307 C158 307 133 318 120 335 C112 345 109 354 105 375 L54 375 C57 347 60 333 70 317 C91 282 133 260 181 260 C256 260 312 311 312 381 C312 424 296 452 258 477 C293 503 306 527 306 564 C306 627 255 673 186 673 C143 673 107 656 87 626 C77 609 72 595 67 563 L119 563 C128 609 146 626 186 626 C226 626 254 600 254 563 C254 539 242 518 223 508 C210 501 198 499 172 499 L172 454 Z " />
<glyph glyph-name="acute" unicode="&#xb4;" horiz-adv-x="500" d="M386 643 L312 676 L207 532 L251 507 L386 643 Z " />
<glyph glyph-name="mu" unicode="&#xb5;" horiz-adv-x="465" d="M139 -234 L136 19 C166 -3 196 -12 235 -12 C284 -12 330 7 359 40 C387 70 397 104 397 165 L397 415 L326 415 L326 173 C326 134 322 113 313 95 C299 69 268 53 232 53 C171 53 139 90 139 162 L139 415 L68 415 L68 -234 L139 -234 Z " />
<glyph glyph-name="paragraph" unicode="&#xb6;" horiz-adv-x="567" d="M212 -99 L275 -99 L275 609 L381 609 L381 -99 L444 -99 L444 609 L488 609 L521 667 L234 667 C186 667 141 657 114 641 C68 613 41 558 41 495 C41 397 105 328 197 328 L212 328 L212 -99 Z " />
<glyph glyph-name="periodcentered" unicode="&#xb7;" horiz-adv-x="225" d="M112 263 C86 263 63 241 63 214 C63 186 85 164 113 164 C140 164 162 186 162 214 C162 241 140 263 112 263 L112 263 Z " />
<glyph glyph-name="cedilla" unicode="&#xb8;" horiz-adv-x="500" d="M332 -79 L266 -52 L182 -183 L231 -207 L332 -79 Z " />
<glyph glyph-name="onesuperior" unicode="&#xb9;" horiz-adv-x="387" d="M179 620 L179 267 L232 267 L232 667 L136 667 L108 620 L179 620 Z " />
<glyph glyph-name="ordmasculine" unicode="&#xba;" horiz-adv-x="358" d="M180 670 C104 670 42 612 42 540 C42 465 102 406 178 406 C257 406 317 463 317 538 C317 612 257 670 180 670 L180 670 Z M179 629 C232 629 269 591 269 538 C269 485 232 448 178 448 C127 448 90 486 90 540 C90 591 128 629 179 629 L179 629 Z " />
<glyph glyph-name="guillemotright" unicode="&#xbb;" horiz-adv-x="431" d="M169 213 L50 66 L97 29 L246 213 L97 400 L50 364 L169 213 Z M318 213 L199 66 L245 29 L394 213 L245 400 L199 364 L318 213 Z " />
<glyph glyph-name="onequarter" unicode="&#xbc;" horiz-adv-x="860" d="M165 620 L165 267 L218 267 L218 667 L122 667 L94 620 L165 620 Z M604 680 L216 10 L255 -13 L643 659 L604 680 Z M778 112 L778 429 L510 65 L725 65 L725 0 L778 0 L778 65 L828 65 L828 112 L778 112 Z M725 112 L604 112 L725 276 L725 112 Z " />
<glyph glyph-name="onehalf" unicode="&#xbd;" horiz-adv-x="860" d="M165 620 L165 267 L218 267 L218 667 L122 667 L94 620 L165 620 Z M604 680 L216 10 L255 -13 L643 659 L604 680 Z M636 47 L715 134 C789 214 806 242 806 287 C806 354 748 406 674 406 C628 406 587 386 563 352 C550 332 545 317 541 279 L594 279 C597 304 600 315 608 327 C621 347 647 360 674 360 C719 360 754 328 754 288 C754 259 737 231 683 171 L527 0 L805 0 L805 47 L636 47 Z " />
<glyph glyph-name="threequarters" unicode="&#xbe;" horiz-adv-x="860" d="M159 454 C184 453 195 452 208 446 C232 436 247 411 247 383 C247 340 213 307 169 307 C145 307 120 318 107 335 C99 345 96 354 92 375 L41 375 C44 347 47 333 57 317 C78 282 120 260 168 260 C243 260 299 311 299 381 C299 424 283 452 245 477 C280 503 293 527 293 564 C293 627 242 673 173 673 C130 673 94 656 74 626 C64 609 59 595 54 563 L106 563 C115 609 133 626 173 626 C213 626 241 600 241 563 C241 539 229 518 210 508 C197 501 185 499 159 499 L159 454 Z M605 680 L217 10 L255 -13 L643 659 L605 680 Z M778 112 L778 429 L510 65 L725 65 L725 0 L778 0 L778 65 L828 65 L828 112 L778 112 Z M725 112 L604 112 L725 276 L725 112 Z " />
<glyph glyph-name="questiondown" unicode="&#xbf;" horiz-adv-x="334" d="M167 454 C139 454 117 432 117 404 C117 377 139 355 166 355 C194 355 216 377 216 404 C216 432 194 454 167 454 L167 454 Z M134 242 C136 266 148 279 168 279 C187 279 201 264 201 244 C201 222 191 214 138 197 C76 177 53 150 53 99 C53 35 101 -12 167 -12 C230 -12 280 34 280 91 C280 99 279 105 277 115 L208 115 C210 107 211 103 211 95 C211 68 193 50 167 50 C140 50 123 68 123 97 C123 120 132 132 157 140 C204 156 207 157 223 165 C252 181 270 210 270 242 C270 294 225 334 168 334 C109 334 70 299 64 242 L134 242 Z " />
<glyph glyph-name="Agrave" unicode="&#xc0;" horiz-adv-x="620" d="M453 189 L532 0 L614 0 L314 699 L7 0 L88 0 L168 189 L453 189 Z M424 258 L199 258 L313 525 L424 258 Z M182 837 L326 720 L369 752 L249 882 L182 837 Z " />
<glyph glyph-name="Aacute" unicode="&#xc1;" horiz-adv-x="620" d="M453 189 L532 0 L614 0 L314 699 L7 0 L88 0 L168 189 L453 189 Z M424 258 L199 258 L313 525 L424 258 Z M445 837 L378 882 L259 752 L302 720 L445 837 Z " />
<glyph glyph-name="Acircumflex" unicode="&#xc2;" horiz-adv-x="620" d="M453 189 L532 0 L614 0 L314 699 L7 0 L88 0 L168 189 L453 189 Z M424 258 L199 258 L313 525 L424 258 Z M177 762 L229 721 L316 797 L404 721 L457 762 L316 881 L177 762 Z " />
<glyph glyph-name="Atilde" unicode="&#xc3;" horiz-adv-x="620" d="M453 189 L532 0 L614 0 L314 699 L7 0 L88 0 L168 189 L453 189 Z M424 258 L199 258 L313 525 L424 258 Z M212 746 C229 781 236 789 253 789 C265 789 277 785 309 769 C339 753 356 748 373 748 C412 748 441 771 465 820 L422 853 C407 821 394 810 376 810 C365 810 349 816 322 830 C289 847 276 851 258 851 C223 851 192 826 169 780 L212 746 Z " />
<glyph glyph-name="Adieresis" unicode="&#xc4;" horiz-adv-x="620" d="M453 189 L532 0 L614 0 L314 699 L7 0 L88 0 L168 189 L453 189 Z M424 258 L199 258 L313 525 L424 258 Z M220 849 C192 849 169 826 169 799 C169 770 192 747 220 747 C248 747 271 770 271 798 C271 826 248 849 220 849 L220 849 Z M410 849 C382 849 359 826 359 799 C359 770 382 747 410 747 C438 747 461 770 461 798 C461 826 438 849 410 849 L410 849 Z " />
<glyph glyph-name="Aring" unicode="&#xc5;" horiz-adv-x="620" d="M453 189 L532 0 L614 0 L314 699 L7 0 L88 0 L168 189 L453 189 Z M424 258 L199 258 L313 525 L424 258 Z M313 896 C264 896 223 855 223 807 C223 756 263 715 314 715 C363 715 404 756 404 806 C404 856 364 896 313 896 L313 896 Z M314 847 C337 847 355 829 355 806 C355 783 336 764 314 764 C290 764 272 783 272 806 C272 829 291 847 314 847 L314 847 Z " />
<glyph glyph-name="AE" unicode="&#xc6;" horiz-adv-x="898" d="M458 187 L536 0 L885 0 L855 69 L584 69 L476 329 L739 329 L709 398 L446 398 L363 598 L632 598 L603 667 L310 667 L13 0 L95 0 L174 187 L458 187 Z M429 256 L206 256 L318 519 L429 256 Z " />
<glyph glyph-name="Ccedilla" unicode="&#xc7;" horiz-adv-x="646" d="M596 612 C528 659 473 678 399 678 C207 678 50 522 50 331 C50 143 206 -12 395 -12 C468 -12 530 8 596 53 L596 145 C531 85 469 58 395 58 C247 58 125 181 125 330 C125 483 247 608 394 608 C470 608 531 581 596 520 L596 612 Z M433 -79 L362 -47 L272 -183 L323 -209 L433 -79 Z " />
<glyph glyph-name="Egrave" unicode="&#xc8;" horiz-adv-x="482" d="M432 598 L432 667 L87 667 L87 0 L432 0 L432 69 L162 69 L162 330 L425 330 L425 399 L162 399 L162 598 L432 598 Z M130 837 L273 720 L316 752 L197 882 L130 837 Z " />
<glyph glyph-name="Eacute" unicode="&#xc9;" horiz-adv-x="482" d="M432 598 L432 667 L87 667 L87 0 L432 0 L432 69 L162 69 L162 330 L425 330 L425 399 L162 399 L162 598 L432 598 Z M386 837 L319 882 L200 752 L243 720 L386 837 Z " />
<glyph glyph-name="Ecircumflex" unicode="&#xca;" horiz-adv-x="482" d="M432 598 L432 667 L87 667 L87 0 L432 0 L432 69 L162 69 L162 330 L425 330 L425 399 L162 399 L162 598 L432 598 Z M120 762 L171 721 L259 797 L347 721 L400 762 L259 881 L120 762 Z " />
<glyph glyph-name="Edieresis" unicode="&#xcb;" horiz-adv-x="482" d="M432 598 L432 667 L87 667 L87 0 L432 0 L432 69 L162 69 L162 330 L425 330 L425 399 L162 399 L162 598 L432 598 Z M165 849 C137 849 114 826 114 799 C114 770 137 747 165 747 C193 747 216 770 216 798 C216 826 193 849 165 849 L165 849 Z M355 849 C327 849 304 826 304 799 C304 770 327 747 355 747 C383 747 406 770 406 798 C406 826 383 849 355 849 L355 849 Z " />
<glyph glyph-name="Igrave" unicode="&#xcc;" horiz-adv-x="248" d="M162 667 L87 667 L87 0 L162 0 L162 667 Z M9 837 L129 720 L172 749 L76 882 L9 837 Z " />
<glyph glyph-name="Iacute" unicode="&#xcd;" horiz-adv-x="248" d="M162 667 L87 667 L87 0 L162 0 L162 667 Z M239 837 L172 882 L76 749 L119 720 L239 837 Z " />
<glyph glyph-name="Icircumflex" unicode="&#xce;" horiz-adv-x="248" d="M162 667 L87 667 L87 0 L162 0 L162 667 Z M1 762 L49 721 L124 797 L198 721 L247 762 L124 881 L1 762 Z " />
<glyph glyph-name="Idieresis" unicode="&#xcf;" horiz-adv-x="248" d="M161 667 L86 667 L86 0 L161 0 L161 667 Z M56 849 C28 849 5 826 5 799 C5 770 28 747 56 747 C84 747 107 770 107 798 C107 826 84 849 56 849 L56 849 Z M191 849 C163 849 140 826 140 799 C140 770 163 747 191 747 C219 747 242 770 242 798 C242 826 219 849 191 849 L191 849 Z " />
<glyph glyph-name="Eth" unicode="&#xd0;" horiz-adv-x="633" d="M88 0 L223 0 C331 0 400 22 466 77 C543 140 583 229 583 333 C583 438 543 528 468 590 C404 644 331 667 224 667 L88 667 L88 393 L21 393 L21 326 L88 326 L88 0 Z M163 69 L163 326 L322 326 L322 393 L163 393 L163 598 L227 598 C308 598 368 579 418 537 C475 489 508 415 508 333 C508 252 476 179 417 130 C367 88 308 69 227 69 L163 69 Z " />
<glyph glyph-name="Ntilde" unicode="&#xd1;" horiz-adv-x="767" d="M87 0 L162 0 L162 514 L681 -30 L681 667 L606 667 L606 150 L87 695 L87 0 Z M285 746 C302 781 310 789 326 789 C339 789 351 785 382 769 C412 753 430 748 447 748 C486 748 515 771 539 820 L496 853 C480 821 468 810 450 810 C439 810 423 816 395 830 C363 847 349 851 331 851 C297 851 266 826 243 780 L285 746 Z " />
<glyph glyph-name="Ograve" unicode="&#xd2;" horiz-adv-x="794" d="M398 678 C210 678 50 521 50 337 C50 247 80 168 136 105 C202 32 299 -12 394 -12 C587 -12 744 142 744 333 C744 522 588 678 398 678 L398 678 Z M397 608 C548 608 669 485 669 333 C669 180 547 58 395 58 C329 58 261 86 210 134 C154 187 125 255 125 337 C125 485 248 608 397 608 L397 608 Z M265 837 L409 720 L452 752 L332 882 L265 837 Z " />
<glyph glyph-name="Oacute" unicode="&#xd3;" horiz-adv-x="794" d="M398 678 C210 678 50 521 50 337 C50 247 80 168 136 105 C202 32 299 -12 394 -12 C587 -12 744 142 744 333 C744 522 588 678 398 678 L398 678 Z M397 608 C548 608 669 485 669 333 C669 180 547 58 395 58 C329 58 261 86 210 134 C154 187 125 255 125 337 C125 485 248 608 397 608 L397 608 Z M532 837 L465 882 L345 752 L388 720 L532 837 Z " />
<glyph glyph-name="Ocircumflex" unicode="&#xd4;" horiz-adv-x="794" d="M398 678 C210 678 50 521 50 337 C50 247 80 168 136 105 C202 32 299 -12 394 -12 C587 -12 744 142 744 333 C744 522 588 678 398 678 L398 678 Z M397 608 C548 608 669 485 669 333 C669 180 547 58 395 58 C329 58 261 86 210 134 C154 187 125 255 125 337 C125 485 248 608 397 608 L397 608 Z M257 762 L309 721 L396 797 L484 721 L537 762 L396 881 L257 762 Z " />
<glyph glyph-name="Otilde" unicode="&#xd5;" horiz-adv-x="794" d="M398 678 C210 678 50 521 50 337 C50 247 80 168 136 105 C202 32 299 -12 394 -12 C587 -12 744 142 744 333 C744 522 588 678 398 678 L398 678 Z M397 608 C548 608 669 485 669 333 C669 180 547 58 395 58 C329 58 261 86 210 134 C154 187 125 255 125 337 C125 485 248 608 397 608 L397 608 Z M302 746 C319 781 326 789 343 789 C355 789 367 785 399 769 C429 753 446 748 464 748 C502 748 531 771 555 820 L512 853 C497 821 484 810 466 810 C455 810 439 816 412 830 C379 847 366 851 348 851 C313 851 282 826 259 780 L302 746 Z " />
<glyph glyph-name="Odieresis" unicode="&#xd6;" horiz-adv-x="794" d="M398 678 C210 678 50 521 50 337 C50 247 80 168 136 105 C202 32 299 -12 394 -12 C587 -12 744 142 744 333 C744 522 588 678 398 678 L398 678 Z M397 608 C548 608 669 485 669 333 C669 180 547 58 395 58 C329 58 261 86 210 134 C154 187 125 255 125 337 C125 485 248 608 397 608 L397 608 Z M302 849 C274 849 251 826 251 799 C251 770 274 747 302 747 C330 747 353 770 353 798 C353 826 330 849 302 849 L302 849 Z M492 849 C464 849 441 826 441 799 C441 770 464 747 492 747 C520 747 543 770 543 798 C543 826 520 849 492 849 L492 849 Z " />
<glyph glyph-name="multiply" unicode="&#xd7;" horiz-adv-x="567" d="M87 495 L242 340 L87 185 L129 143 L284 298 L439 143 L481 185 L326 340 L481 495 L439 537 L284 382 L129 537 L87 495 Z " />
<glyph glyph-name="Oslash" unicode="&#xd8;" horiz-adv-x="794" d="M49 37 L94 -7 L171 70 C255 9 313 -12 397 -12 C587 -12 744 144 744 333 C744 418 722 477 661 558 L736 634 L693 678 L616 601 C600 612 595 616 587 621 C528 659 466 678 398 678 C207 678 50 522 50 332 C50 250 71 191 127 114 L49 37 Z M180 166 C139 227 125 270 125 332 C125 485 246 608 397 608 C461 608 513 590 563 551 L180 166 Z M609 507 C651 449 669 398 669 332 C669 182 547 58 399 58 C335 58 266 84 224 123 L609 507 Z " />
<glyph glyph-name="Ugrave" unicode="&#xd9;" horiz-adv-x="649" d="M162 667 L87 667 L87 238 C87 165 99 121 131 80 C174 23 248 -12 325 -12 C401 -12 474 23 518 80 C550 121 562 166 562 238 L562 667 L487 667 L487 258 C487 189 482 159 465 130 C439 88 382 58 325 58 C267 58 210 88 184 130 C167 159 162 189 162 258 L162 667 Z M196 837 L340 720 L383 752 L263 882 L196 837 Z " />
<glyph glyph-name="Uacute" unicode="&#xda;" horiz-adv-x="649" d="M162 667 L87 667 L87 238 C87 165 99 121 131 80 C174 23 248 -12 325 -12 C401 -12 474 23 518 80 C550 121 562 166 562 238 L562 667 L487 667 L487 258 C487 189 482 159 465 130 C439 88 382 58 325 58 C267 58 210 88 184 130 C167 159 162 189 162 258 L162 667 Z M456 837 L389 882 L270 752 L313 720 L456 837 Z " />
<glyph glyph-name="Ucircumflex" unicode="&#xdb;" horiz-adv-x="649" d="M162 667 L87 667 L87 238 C87 165 99 121 131 80 C174 23 248 -12 325 -12 C401 -12 474 23 518 80 C550 121 562 166 562 238 L562 667 L487 667 L487 258 C487 189 482 159 465 130 C439 88 382 58 325 58 C267 58 210 88 184 130 C167 159 162 189 162 258 L162 667 Z M185 762 L236 721 L324 797 L412 721 L465 762 L324 881 L185 762 Z " />
<glyph glyph-name="Udieresis" unicode="&#xdc;" horiz-adv-x="649" d="M162 667 L87 667 L87 238 C87 165 99 121 131 80 C174 23 248 -12 325 -12 C401 -12 474 23 518 80 C550 121 562 166 562 238 L562 667 L487 667 L487 258 C487 189 482 159 465 130 C439 88 382 58 325 58 C267 58 210 88 184 130 C167 159 162 189 162 258 L162 667 Z M230 849 C202 849 179 826 179 799 C179 770 202 747 230 747 C258 747 281 770 281 798 C281 826 258 849 230 849 L230 849 Z M420 849 C392 849 369 826 369 799 C369 770 392 747 420 747 C448 747 471 770 471 798 C471 826 448 849 420 849 L420 849 Z " />
<glyph glyph-name="Yacute" unicode="&#xdd;" horiz-adv-x="528" d="M225 287 L225 0 L300 0 L300 287 L522 667 L435 667 L263 369 L93 667 L7 667 L225 287 Z M396 837 L329 882 L209 752 L252 720 L396 837 Z " />
<glyph glyph-name="Thorn" unicode="&#xde;" horiz-adv-x="457" d="M162 199 L227 199 C357 199 438 270 438 386 C438 441 415 494 376 527 C338 560 290 573 208 573 L162 573 L162 667 L87 667 L87 0 L162 0 L162 199 Z M162 267 L162 504 L217 504 C271 504 303 495 328 474 C351 454 365 422 365 386 C365 310 313 267 222 267 L162 267 Z " />
<glyph glyph-name="germandbls" unicode="&#xdf;" horiz-adv-x="805" d="M341 369 C308 429 268 455 210 455 C133 455 74 401 74 331 C74 279 103 245 172 216 C233 190 233 190 249 180 C271 168 280 152 280 129 C280 86 246 53 203 53 C155 53 129 80 119 141 L50 122 C69 34 121 -12 200 -12 C285 -12 352 52 352 133 C352 191 320 228 243 260 C183 285 183 285 168 294 C153 304 146 315 146 330 C146 364 173 390 209 390 C242 390 256 380 281 337 L284 331 L341 369 Z M744 369 C710 429 670 455 612 455 C535 455 476 401 476 331 C476 279 505 245 574 216 C636 190 636 190 652 180 C674 168 683 152 683 129 C683 86 649 53 605 53 C558 53 532 80 522 141 L452 122 C472 34 524 -12 603 -12 C688 -12 755 52 755 133 C755 191 723 228 646 260 C585 285 585 285 570 294 C555 304 548 315 548 330 C548 364 575 390 611 390 C645 390 659 379 683 337 L686 331 L744 369 Z " />
<glyph glyph-name="agrave" unicode="&#xe0;" horiz-adv-x="445" d="M309 118 L361 0 L439 0 L226 482 L7 0 L85 0 L137 118 L309 118 Z M285 183 L162 183 L224 327 L285 183 Z M90 643 L225 507 L269 532 L164 676 L90 643 Z " />
<glyph glyph-name="aacute" unicode="&#xe1;" horiz-adv-x="445" d="M309 118 L361 0 L439 0 L226 482 L7 0 L85 0 L137 118 L309 118 Z M285 183 L162 183 L224 327 L285 183 Z M359 643 L285 676 L180 532 L225 507 L359 643 Z " />
<glyph glyph-name="acircumflex" unicode="&#xe2;" horiz-adv-x="445" d="M309 118 L361 0 L439 0 L226 482 L7 0 L85 0 L137 118 L309 118 Z M285 183 L162 183 L224 327 L285 183 Z M88 546 L138 507 L226 582 L313 507 L365 546 L226 664 L88 546 Z " />
<glyph glyph-name="atilde" unicode="&#xe3;" horiz-adv-x="445" d="M309 118 L361 0 L439 0 L226 482 L7 0 L85 0 L137 118 L309 118 Z M285 183 L162 183 L224 327 L285 183 Z M115 507 C129 538 140 548 158 548 C171 548 189 542 219 529 C257 512 269 508 287 508 C328 508 360 532 381 579 L339 613 C322 582 309 571 291 571 C278 571 270 574 233 591 C203 605 183 611 164 611 C126 611 105 595 72 541 L115 507 Z " />
<glyph glyph-name="adieresis" unicode="&#xe4;" horiz-adv-x="445" d="M309 118 L361 0 L439 0 L226 482 L7 0 L85 0 L137 118 L309 118 Z M285 183 L162 183 L224 327 L285 183 Z M139 610 C112 610 89 587 89 561 C89 533 111 510 139 510 C167 510 189 533 189 560 C189 588 167 610 139 610 L139 610 Z M313 610 C286 610 263 588 263 561 C263 533 285 510 313 510 C341 510 363 533 363 560 C363 588 341 610 313 610 L313 610 Z " />
<glyph glyph-name="aring" unicode="&#xe5;" horiz-adv-x="445" d="M309 118 L361 0 L439 0 L226 482 L7 0 L85 0 L137 118 L309 118 Z M285 183 L162 183 L224 327 L285 183 Z M226 679 C179 679 140 640 140 594 C140 546 178 507 226 507 C273 507 312 546 312 593 C312 641 274 679 226 679 L226 679 Z M226 635 C249 635 268 617 268 594 C268 571 249 552 226 552 C203 552 184 571 184 594 C184 616 203 635 226 635 L226 635 Z " />
<glyph glyph-name="ae" unicode="&#xe6;" horiz-adv-x="625" d="M312 117 L359 0 L611 0 L584 65 L409 65 L348 206 L520 206 L492 271 L320 271 L275 378 L451 378 L424 443 L210 443 L13 0 L91 0 L141 117 L312 117 Z M286 182 L167 182 L227 327 L286 182 Z " />
<glyph glyph-name="ccedilla" unicode="&#xe7;" horiz-adv-x="474" d="M424 403 C375 440 333 455 282 455 C150 455 43 349 43 220 C43 93 150 -12 279 -12 C331 -12 375 3 424 39 L424 132 C369 75 329 53 279 53 C189 53 115 129 115 220 C115 313 189 390 278 390 C330 390 371 368 424 310 L424 403 Z M345 -79 L279 -52 L195 -183 L245 -207 L345 -79 Z " />
<glyph glyph-name="egrave" unicode="&#xe8;" horiz-adv-x="391" d="M341 378 L341 443 L86 443 L86 0 L341 0 L341 65 L157 65 L157 209 L336 209 L336 274 L157 274 L157 378 L341 378 Z M79 643 L214 507 L258 532 L153 676 L79 643 Z " />
<glyph glyph-name="eacute" unicode="&#xe9;" horiz-adv-x="391" d="M342 378 L342 443 L87 443 L87 0 L342 0 L342 65 L158 65 L158 209 L337 209 L337 274 L158 274 L158 378 L342 378 Z M352 643 L278 676 L173 532 L218 507 L352 643 Z " />
<glyph glyph-name="ecircumflex" unicode="&#xea;" horiz-adv-x="391" d="M341 378 L341 443 L86 443 L86 0 L341 0 L341 65 L157 65 L157 209 L336 209 L336 274 L157 274 L157 378 L341 378 Z M77 546 L127 507 L215 582 L302 507 L354 546 L215 664 L77 546 Z " />
<glyph glyph-name="edieresis" unicode="&#xeb;" horiz-adv-x="391" d="M341 378 L341 443 L86 443 L86 0 L341 0 L341 65 L157 65 L157 209 L336 209 L336 274 L157 274 L157 378 L341 378 Z M128 610 C101 610 78 587 78 561 C78 533 100 510 128 510 C156 510 178 533 178 560 C178 588 156 610 128 610 L128 610 Z M302 610 C275 610 252 588 252 561 C252 533 274 510 302 510 C330 510 352 533 352 560 C352 588 330 610 302 610 L302 610 Z " />
<glyph glyph-name="igrave" unicode="&#xec;" horiz-adv-x="245" d="M158 443 L87 443 L87 0 L158 0 L158 443 Z M-14 643 L121 507 L165 532 L60 676 L-14 643 Z " />
<glyph glyph-name="iacute" unicode="&#xed;" horiz-adv-x="245" d="M157 443 L86 443 L86 0 L157 0 L157 443 Z M258 643 L184 676 L79 532 L123 507 L258 643 Z " />
<glyph glyph-name="icircumflex" unicode="&#xee;" horiz-adv-x="245" d="M158 443 L87 443 L87 0 L158 0 L158 443 Z M-16 546 L34 507 L122 582 L209 507 L261 546 L122 664 L-16 546 Z " />
<glyph glyph-name="idieresis" unicode="&#xef;" horiz-adv-x="245" d="M158 443 L87 443 L87 0 L158 0 L158 443 Z M52 610 C25 610 2 587 2 561 C2 533 24 510 52 510 C80 510 102 533 102 560 C102 588 80 610 52 610 L52 610 Z M193 610 C166 610 143 588 143 561 C143 533 165 510 193 510 C221 510 243 533 243 560 C243 588 221 610 193 610 L193 610 Z " />
<glyph glyph-name="eth" unicode="&#xf0;" horiz-adv-x="480" d="M87 190 L87 0 L191 0 C263 0 310 15 356 51 C408 94 436 153 436 222 C436 290 408 350 357 391 C313 428 263 443 191 443 L87 443 L87 250 L29 250 L29 190 L87 190 Z M158 190 L264 190 L264 250 L158 250 L158 378 L193 378 C297 378 364 317 364 221 C364 127 297 65 193 65 L158 65 L158 190 Z " />
<glyph glyph-name="ntilde" unicode="&#xf1;" horiz-adv-x="584" d="M87 0 L158 0 L157 313 L498 -37 L498 443 L427 443 L428 129 L87 480 L87 0 Z M181 507 C195 538 206 548 224 548 C237 548 255 542 285 529 C323 512 335 508 353 508 C394 508 426 532 447 579 L405 613 C388 582 375 571 357 571 C344 571 336 574 299 591 C269 605 249 611 230 611 C192 611 171 595 138 541 L181 507 Z " />
<glyph glyph-name="ograve" unicode="&#xf2;" horiz-adv-x="560" d="M280 455 C152 455 43 349 43 224 C43 93 147 -12 278 -12 C410 -12 517 92 517 221 C517 349 410 455 280 455 L280 455 Z M280 390 C372 390 445 315 445 221 C445 128 371 53 279 53 C188 53 115 129 115 224 C115 315 190 390 280 390 L280 390 Z M144 643 L278 507 L323 532 L218 676 L144 643 Z " />
<glyph glyph-name="oacute" unicode="&#xf3;" horiz-adv-x="560" d="M280 455 C152 455 43 349 43 224 C43 93 147 -12 278 -12 C410 -12 517 92 517 221 C517 349 410 455 280 455 L280 455 Z M280 390 C372 390 445 315 445 221 C445 128 371 53 279 53 C188 53 115 129 115 224 C115 315 190 390 280 390 L280 390 Z M416 643 L342 676 L237 532 L281 507 L416 643 Z " />
<glyph glyph-name="ocircumflex" unicode="&#xf4;" horiz-adv-x="560" d="M280 455 C152 455 43 349 43 224 C43 93 147 -12 278 -12 C410 -12 517 92 517 221 C517 349 410 455 280 455 L280 455 Z M280 390 C372 390 445 315 445 221 C445 128 371 53 279 53 C188 53 115 129 115 224 C115 315 190 390 280 390 L280 390 Z M142 546 L192 507 L279 582 L367 507 L418 546 L279 664 L142 546 Z " />
<glyph glyph-name="otilde" unicode="&#xf5;" horiz-adv-x="560" d="M280 455 C152 455 43 349 43 224 C43 93 147 -12 278 -12 C410 -12 517 92 517 221 C517 349 410 455 280 455 L280 455 Z M280 390 C372 390 445 315 445 221 C445 128 371 53 279 53 C188 53 115 129 115 224 C115 315 190 390 280 390 L280 390 Z M168 507 C183 538 194 548 212 548 C225 548 242 542 272 529 C311 512 322 508 341 508 C381 508 413 532 434 579 L393 613 C376 582 363 571 344 571 C332 571 324 574 287 591 C257 605 237 611 218 611 C180 611 159 595 126 541 L168 507 Z " />
<glyph glyph-name="odieresis" unicode="&#xf6;" horiz-adv-x="560" d="M280 455 C152 455 43 349 43 224 C43 93 147 -12 278 -12 C410 -12 517 92 517 221 C517 349 410 455 280 455 L280 455 Z M280 390 C372 390 445 315 445 221 C445 128 371 53 279 53 C188 53 115 129 115 224 C115 315 190 390 280 390 L280 390 Z M193 610 C166 610 143 587 143 561 C143 533 165 510 193 510 C221 510 243 533 243 560 C243 588 221 610 193 610 L193 610 Z M367 610 C340 610 317 588 317 561 C317 533 339 510 367 510 C395 510 417 533 417 560 C417 588 395 610 367 610 L367 610 Z " />
<glyph glyph-name="divide" unicode="&#xf7;" horiz-adv-x="567" d="M48 310 L519 310 L519 371 L48 371 L48 310 Z M284 256 C258 256 237 235 237 210 C237 183 258 162 284 162 C310 162 331 183 331 209 C331 235 310 256 284 256 L284 256 Z M284 518 C258 518 237 497 237 472 C237 445 258 424 284 424 C310 424 331 445 331 471 C331 497 310 518 284 518 L284 518 Z " />
<glyph glyph-name="oslash" unicode="&#xf8;" horiz-adv-x="560" d="M488 473 L422 408 C379 439 331 455 280 455 C150 455 43 349 43 221 C43 169 59 122 92 79 L28 16 L74 -30 L138 35 C182 4 229 -12 280 -12 C410 -12 517 93 517 221 C517 272 500 321 467 364 L532 429 L488 473 Z M142 129 C122 162 115 187 115 221 C115 315 188 390 280 390 C315 390 344 381 374 360 L142 129 Z M418 314 C438 281 445 256 445 221 C445 129 371 53 280 53 C247 53 218 62 187 83 L418 314 Z " />
<glyph glyph-name="ugrave" unicode="&#xf9;" horiz-adv-x="510" d="M158 443 L87 443 L87 162 C87 112 96 81 118 52 C149 12 201 -12 256 -12 C310 -12 362 12 393 52 C415 81 424 113 424 162 L424 443 L353 443 L353 174 C353 130 350 112 340 95 C325 71 290 53 256 53 C221 53 186 71 171 95 C161 112 158 130 158 174 L158 443 Z M119 643 L254 507 L298 532 L193 676 L119 643 Z " />
<glyph glyph-name="uacute" unicode="&#xfa;" horiz-adv-x="510" d="M158 443 L87 443 L87 162 C87 112 96 81 118 52 C149 12 201 -12 256 -12 C310 -12 362 12 393 52 C415 81 424 113 424 162 L424 443 L353 443 L353 174 C353 130 350 112 340 95 C325 71 290 53 256 53 C221 53 186 71 171 95 C161 112 158 130 158 174 L158 443 Z M392 643 L318 676 L212 532 L257 507 L392 643 Z " />
<glyph glyph-name="ucircumflex" unicode="&#xfb;" horiz-adv-x="510" d="M158 443 L87 443 L87 162 C87 112 96 81 118 52 C149 12 201 -12 256 -12 C310 -12 362 12 393 52 C415 81 424 113 424 162 L424 443 L353 443 L353 174 C353 130 350 112 340 95 C325 71 290 53 256 53 C221 53 186 71 171 95 C161 112 158 130 158 174 L158 443 Z M117 546 L167 507 L255 582 L342 507 L394 546 L255 664 L117 546 Z " />
<glyph glyph-name="udieresis" unicode="&#xfc;" horiz-adv-x="510" d="M158 443 L87 443 L87 162 C87 112 96 81 118 52 C149 12 201 -12 256 -12 C310 -12 362 12 393 52 C415 81 424 113 424 162 L424 443 L353 443 L353 174 C353 130 350 112 340 95 C325 71 290 53 256 53 C221 53 186 71 171 95 C161 112 158 130 158 174 L158 443 Z M168 610 C141 610 118 587 118 561 C118 533 140 510 168 510 C196 510 218 533 218 560 C218 588 196 610 168 610 L168 610 Z M342 610 C315 610 292 588 292 561 C292 533 314 510 342 510 C370 510 392 533 392 560 C392 588 370 610 342 610 L342 610 Z " />
<glyph glyph-name="yacute" unicode="&#xfd;" horiz-adv-x="393" d="M160 189 L160 0 L232 0 L232 189 L387 443 L304 443 L196 265 L90 443 L7 443 L160 189 Z M333 643 L259 676 L154 532 L198 507 L333 643 Z " />
<glyph glyph-name="thorn" unicode="&#xfe;" horiz-adv-x="378" d="M158 93 L206 93 C299 93 358 143 358 223 C358 261 342 297 313 320 C285 344 252 353 195 353 L158 353 L158 443 L87 443 L87 0 L158 0 L158 93 Z M158 157 L158 288 L200 288 C259 288 287 267 287 223 C287 180 258 157 204 157 L158 157 Z " />
<glyph glyph-name="ydieresis" unicode="&#xff;" horiz-adv-x="393" d="M160 189 L160 0 L232 0 L232 189 L387 443 L304 443 L196 265 L90 443 L7 443 L160 189 Z M109 610 C82 610 59 587 59 561 C59 533 81 510 109 510 C137 510 159 533 159 560 C159 588 137 610 109 610 L109 610 Z M283 610 C256 610 233 588 233 561 C233 533 255 510 283 510 C311 510 333 533 333 560 C333 588 311 610 283 610 L283 610 Z " />
<glyph glyph-name="Amacron" unicode="&#x100;" horiz-adv-x="620" d="M453 189 L532 0 L614 0 L314 699 L7 0 L88 0 L168 189 L453 189 Z M424 258 L199 258 L313 525 L424 258 Z M167 824 L167 762 L460 762 L460 824 L167 824 Z " />
<glyph glyph-name="amacron" unicode="&#x101;" horiz-adv-x="445" d="M309 118 L361 0 L439 0 L226 482 L7 0 L85 0 L137 118 L309 118 Z M285 183 L162 183 L224 327 L285 183 Z M90 583 L90 523 L356 523 L356 583 L90 583 Z " />
<glyph glyph-name="Abreve" unicode="&#x102;" horiz-adv-x="620" d="M453 189 L532 0 L614 0 L314 699 L7 0 L88 0 L168 189 L453 189 Z M424 258 L199 258 L313 525 L424 258 Z M175 861 C179 822 185 803 203 780 C228 749 268 731 313 731 C391 731 443 779 452 861 L388 861 C377 816 353 794 313 794 C273 794 251 814 239 861 L175 861 Z " />
<glyph glyph-name="abreve" unicode="&#x103;" horiz-adv-x="445" d="M309 118 L361 0 L439 0 L226 482 L7 0 L85 0 L137 118 L309 118 Z M285 183 L162 183 L224 327 L285 183 Z M82 627 C95 552 150 507 226 507 C303 507 357 552 371 627 L310 627 C292 583 269 567 226 567 C184 567 161 583 142 627 L82 627 Z " />
<glyph glyph-name="Aogonek" unicode="&#x104;" horiz-adv-x="620" d="M314 699 L7 0 L88 0 L168 189 L453 189 L532 0 L548 0 C493 -34 471 -62 471 -102 C471 -151 513 -189 567 -189 C593 -189 607 -185 625 -173 L633 -112 C612 -123 596 -128 578 -128 C555 -128 538 -111 538 -89 C538 -62 564 -32 614 0 L314 699 Z M424 258 L199 258 L313 525 L424 258 Z " />
<glyph glyph-name="aogonek" unicode="&#x105;" horiz-adv-x="445" d="M226 482 L7 0 L85 0 L137 118 L309 118 L361 0 L382 0 C330 -35 309 -64 309 -104 C309 -150 350 -186 405 -186 C425 -186 440 -182 461 -172 L470 -118 C449 -128 435 -131 415 -131 C387 -131 368 -115 368 -90 C368 -62 387 -38 439 0 L226 482 Z M285 183 L162 183 L224 327 L285 183 Z " />
<glyph glyph-name="Cacute" unicode="&#x106;" horiz-adv-x="646" d="M596 612 C528 659 473 678 399 678 C207 678 50 522 50 331 C50 143 206 -12 395 -12 C468 -12 531 8 596 53 L596 145 C532 85 469 58 395 58 C247 58 125 181 125 330 C125 483 247 608 394 608 C470 608 531 581 596 520 L596 612 Z M525 837 L458 882 L338 752 L381 720 L525 837 Z " />
<glyph glyph-name="cacute" unicode="&#x107;" horiz-adv-x="474" d="M424 403 C375 440 333 455 282 455 C150 455 43 349 43 220 C43 93 150 -12 279 -12 C331 -12 375 3 424 39 L424 132 C369 75 329 53 279 53 C189 53 115 129 115 220 C115 313 189 390 278 390 C330 390 371 368 424 310 L424 403 Z M420 643 L346 676 L241 532 L285 507 L420 643 Z " />
<glyph glyph-name="Ccircumflex" unicode="&#x108;" horiz-adv-x="646" d="M596 612 C528 659 473 678 399 678 C207 678 50 522 50 331 C50 143 206 -12 395 -12 C468 -12 531 8 596 53 L596 145 C532 85 469 58 395 58 C247 58 125 181 125 330 C125 483 247 608 394 608 C470 608 531 581 596 520 L596 612 Z M255 762 L306 721 L394 797 L482 721 L535 762 L394 881 L255 762 Z " />
<glyph glyph-name="Cdotaccent" unicode="&#x10a;" horiz-adv-x="646" d="M596 612 C528 659 473 678 399 678 C207 678 50 522 50 331 C50 143 206 -12 395 -12 C468 -12 531 8 596 53 L596 145 C532 85 469 58 395 58 C247 58 125 181 125 330 C125 483 247 608 394 608 C470 608 531 581 596 520 L596 612 Z M394 850 C365 850 341 826 341 797 C341 767 365 743 395 743 C424 743 448 767 448 797 C448 826 424 850 394 850 L394 850 Z " />
<glyph glyph-name="cdotaccent" unicode="&#x10b;" horiz-adv-x="474" d="M424 403 C375 440 333 455 282 455 C150 455 43 349 43 220 C43 93 150 -12 279 -12 C331 -12 375 3 424 39 L424 132 C369 75 329 53 279 53 C189 53 115 129 115 220 C115 313 189 390 278 390 C330 390 371 368 424 310 L424 403 Z M283 615 C255 615 231 591 231 563 C231 534 254 510 284 510 C312 510 336 534 336 563 C336 592 313 615 283 615 L283 615 Z " />
<glyph glyph-name="Ccaron" unicode="&#x10c;" horiz-adv-x="646" d="M596 612 C528 659 473 678 399 678 C207 678 50 522 50 331 C50 143 206 -12 395 -12 C468 -12 531 8 596 53 L596 145 C532 85 469 58 395 58 C247 58 125 181 125 330 C125 483 247 608 394 608 C470 608 531 581 596 520 L596 612 Z M535 840 L483 881 L395 806 L308 881 L255 840 L395 721 L535 840 Z " />
<glyph glyph-name="ccaron" unicode="&#x10d;" horiz-adv-x="474" d="M424 403 C375 440 333 455 282 455 C150 455 43 349 43 220 C43 93 150 -12 279 -12 C331 -12 375 3 424 39 L424 132 C369 75 329 53 279 53 C189 53 115 129 115 220 C115 313 189 390 278 390 C330 390 371 368 424 310 L424 403 Z M422 625 L372 664 L284 589 L196 664 L145 625 L284 507 L422 625 Z " />
<glyph glyph-name="Dcaron" unicode="&#x10e;" horiz-adv-x="633" d="M87 0 L223 0 C331 0 401 22 467 77 C544 140 584 229 584 334 C584 438 544 528 469 590 C405 644 332 667 224 667 L87 667 L87 0 Z M162 69 L162 598 L227 598 C309 598 369 579 419 537 C476 489 509 415 509 333 C509 252 477 179 418 130 C368 88 309 69 227 69 L162 69 Z M424 840 L372 881 L284 806 L197 881 L144 840 L284 721 L424 840 Z " />
<glyph glyph-name="dcaron" unicode="&#x10f;" horiz-adv-x="480" d="M87 0 L191 0 C263 0 310 15 356 51 C408 94 436 153 436 222 C436 290 408 350 357 391 C313 428 263 443 191 443 L87 443 L87 0 Z M158 65 L158 378 L193 378 C297 378 364 317 364 221 C364 127 297 65 193 65 L158 65 Z M365 625 L315 664 L228 589 L140 664 L89 625 L228 507 L365 625 Z " />
<glyph glyph-name="Dcroat" unicode="&#x110;" horiz-adv-x="633" d="M88 0 L223 0 C331 0 400 22 466 77 C543 140 583 229 583 333 C583 438 543 528 468 590 C404 644 331 667 224 667 L88 667 L88 393 L21 393 L21 326 L88 326 L88 0 Z M163 69 L163 326 L322 326 L322 393 L163 393 L163 598 L227 598 C308 598 368 579 418 537 C475 489 508 415 508 333 C508 252 476 179 417 130 C367 88 308 69 227 69 L163 69 Z " />
<glyph glyph-name="dcroat" unicode="&#x111;" horiz-adv-x="480" d="M87 190 L87 0 L191 0 C263 0 310 15 356 51 C408 94 436 153 436 222 C436 290 408 350 357 391 C313 428 263 443 191 443 L87 443 L87 250 L29 250 L29 190 L87 190 Z M158 190 L264 190 L264 250 L158 250 L158 378 L193 378 C297 378 364 317 364 221 C364 127 297 65 193 65 L158 65 L158 190 Z " />
<glyph glyph-name="Emacron" unicode="&#x112;" horiz-adv-x="482" d="M432 598 L432 667 L87 667 L87 0 L432 0 L432 69 L162 69 L162 330 L425 330 L425 399 L162 399 L162 598 L432 598 Z M113 824 L113 762 L406 762 L406 824 L113 824 Z " />
<glyph glyph-name="emacron" unicode="&#x113;" horiz-adv-x="391" d="M342 378 L342 443 L87 443 L87 0 L342 0 L342 65 L158 65 L158 209 L337 209 L337 274 L158 274 L158 378 L342 378 Z M81 583 L81 523 L347 523 L347 583 L81 583 Z " />
<glyph glyph-name="Ebreve" unicode="&#x114;" horiz-adv-x="482" d="M432 598 L432 667 L87 667 L87 0 L432 0 L432 69 L162 69 L162 330 L425 330 L425 399 L162 399 L162 598 L432 598 Z M121 861 C125 822 131 803 149 780 C175 749 214 731 259 731 C337 731 389 779 398 861 L334 861 C324 816 299 794 259 794 C219 794 197 814 185 861 L121 861 Z " />
<glyph glyph-name="ebreve" unicode="&#x115;" horiz-adv-x="391" d="M341 378 L341 443 L86 443 L86 0 L341 0 L341 65 L157 65 L157 209 L337 209 L337 274 L157 274 L157 378 L341 378 Z M69 627 C83 552 137 507 214 507 C290 507 344 552 359 627 L298 627 C279 583 256 567 214 567 C171 567 148 583 130 627 L69 627 Z " />
<glyph glyph-name="Edotaccent" unicode="&#x116;" horiz-adv-x="482" d="M432 598 L432 667 L87 667 L87 0 L432 0 L432 69 L162 69 L162 330 L425 330 L425 399 L162 399 L162 598 L432 598 Z M259 850 C230 850 206 826 206 797 C206 767 230 743 260 743 C289 743 313 767 313 797 C313 826 289 850 259 850 L259 850 Z " />
<glyph glyph-name="edotaccent" unicode="&#x117;" horiz-adv-x="391" d="M342 378 L342 443 L87 443 L87 0 L342 0 L342 65 L158 65 L158 209 L337 209 L337 274 L158 274 L158 378 L342 378 Z M216 615 C188 615 164 591 164 563 C164 534 187 510 217 510 C245 510 269 534 269 563 C269 592 246 615 216 615 L216 615 Z " />
<glyph glyph-name="Eogonek" unicode="&#x118;" horiz-adv-x="482" d="M432 69 L162 69 L162 330 L425 330 L425 399 L162 399 L162 598 L432 598 L432 667 L87 667 L87 0 L367 0 C312 -34 290 -62 290 -102 C290 -151 332 -189 386 -189 C411 -189 425 -185 444 -173 L451 -112 C430 -123 414 -128 397 -128 C374 -128 357 -111 357 -89 C357 -62 382 -32 432 0 L432 69 Z " />
<glyph glyph-name="eogonek" unicode="&#x119;" horiz-adv-x="391" d="M342 65 L158 65 L158 209 L337 209 L337 274 L158 274 L158 378 L342 378 L342 443 L87 443 L87 0 L285 0 C266 -13 262 -15 254 -22 C228 -45 212 -75 212 -104 C212 -150 253 -186 308 -186 C328 -186 343 -182 364 -172 L373 -118 C352 -128 338 -131 318 -131 C290 -131 271 -115 271 -90 C271 -62 295 -32 342 0 L342 65 Z " />
<glyph glyph-name="Ecaron" unicode="&#x11a;" horiz-adv-x="482" d="M432 598 L432 667 L87 667 L87 0 L432 0 L432 69 L162 69 L162 330 L425 330 L425 399 L162 399 L162 598 L432 598 Z M400 840 L348 881 L260 806 L173 881 L120 840 L260 721 L400 840 Z " />
<glyph glyph-name="ecaron" unicode="&#x11b;" horiz-adv-x="391" d="M341 378 L341 443 L86 443 L86 0 L341 0 L341 65 L157 65 L157 209 L336 209 L336 274 L157 274 L157 378 L341 378 Z M354 625 L304 664 L216 589 L128 664 L77 625 L216 507 L354 625 Z " />
<glyph glyph-name="Gcircumflex" unicode="&#x11c;" horiz-adv-x="758" d="M430 335 L430 266 L628 266 C625 225 618 199 601 172 C560 104 476 58 393 58 C248 58 125 183 125 331 C125 484 247 608 399 608 C490 608 558 570 624 483 L679 533 C647 572 628 591 602 610 C545 654 473 678 398 678 C206 678 50 523 50 332 C50 144 205 -12 392 -12 C509 -12 619 51 673 149 C698 194 708 244 708 318 L708 335 L430 335 Z M262 762 L314 721 L402 797 L489 721 L542 762 L402 881 L262 762 Z " />
<glyph glyph-name="gcircumflex" unicode="&#x11d;" horiz-adv-x="541" d="M295 232 L295 167 L418 167 C409 131 402 115 386 99 C356 70 316 53 277 53 C189 53 115 130 115 221 C115 315 189 391 281 391 C341 391 379 367 428 298 L481 346 C459 373 446 386 431 400 C393 435 336 456 280 456 C149 456 43 351 43 221 C43 93 148 -12 277 -12 C357 -12 433 31 470 98 C487 129 494 162 494 215 L494 232 L295 232 Z M145 546 L195 507 L283 582 L371 507 L422 546 L283 664 L145 546 Z " />
<glyph glyph-name="Gbreve" unicode="&#x11e;" horiz-adv-x="758" d="M430 335 L430 266 L628 266 C625 225 618 199 601 172 C560 104 476 58 393 58 C248 58 125 183 125 331 C125 484 247 608 399 608 C490 608 558 570 624 483 L679 533 C647 572 628 591 602 610 C545 654 473 678 398 678 C206 678 50 523 50 332 C50 144 205 -12 392 -12 C509 -12 619 51 673 149 C698 194 708 244 708 318 L708 335 L430 335 Z M264 861 C267 822 274 803 292 780 C317 749 357 731 402 731 C480 731 531 779 541 861 L477 861 C466 816 442 794 402 794 C361 794 339 814 328 861 L264 861 Z " />
<glyph glyph-name="gbreve" unicode="&#x11f;" horiz-adv-x="541" d="M295 232 L295 167 L418 167 C409 131 402 115 386 99 C356 70 316 53 277 53 C189 53 115 130 115 221 C115 315 189 391 281 391 C341 391 379 367 428 298 L481 346 C459 373 446 386 431 400 C393 435 336 456 280 456 C149 456 43 351 43 221 C43 93 148 -12 277 -12 C357 -12 433 31 470 98 C487 129 494 162 494 215 L494 232 L295 232 Z M139 627 C153 552 207 507 284 507 C360 507 414 552 428 627 L368 627 C349 583 326 567 284 567 C241 567 218 583 200 627 L139 627 Z " />
<glyph glyph-name="Gdotaccent" unicode="&#x120;" horiz-adv-x="758" d="M430 335 L430 266 L628 266 C625 225 618 199 601 172 C560 104 476 58 393 58 C248 58 125 183 125 331 C125 484 247 608 399 608 C490 608 558 570 624 483 L679 533 C647 572 628 591 602 610 C545 654 473 678 398 678 C206 678 50 523 50 332 C50 144 205 -12 392 -12 C509 -12 619 51 673 149 C698 194 708 244 708 318 L708 335 L430 335 Z M402 850 C373 850 349 826 349 797 C349 767 373 743 403 743 C432 743 456 767 456 797 C456 826 432 850 402 850 L402 850 Z " />
<glyph glyph-name="gdotaccent" unicode="&#x121;" horiz-adv-x="541" d="M295 232 L295 167 L418 167 C409 131 402 115 386 99 C356 70 316 53 277 53 C189 53 115 130 115 221 C115 315 189 391 281 391 C341 391 379 367 428 298 L481 346 C459 373 446 386 431 400 C393 435 336 456 280 456 C149 456 43 351 43 221 C43 93 148 -12 277 -12 C357 -12 433 31 470 98 C487 129 494 162 494 215 L494 232 L295 232 Z M283 615 C255 615 231 591 231 563 C231 534 254 510 284 510 C312 510 336 534 336 563 C336 592 313 615 283 615 L283 615 Z " />
<glyph glyph-name="Gcommaaccent" unicode="&#x122;" horiz-adv-x="758" d="M430 335 L430 266 L628 266 C625 225 618 199 601 172 C560 104 476 58 393 58 C248 58 125 183 125 331 C125 484 247 608 399 608 C490 608 558 570 624 483 L679 533 C647 572 628 591 602 610 C545 654 473 678 398 678 C206 678 50 523 50 332 C50 144 205 -12 392 -12 C509 -12 619 51 673 149 C698 194 708 244 708 318 L708 335 L430 335 Z M363 -53 L309 -213 L360 -229 L439 -77 L363 -53 Z " />
<glyph glyph-name="gcommaaccent" unicode="&#x123;" horiz-adv-x="541" d="M295 232 L295 167 L418 167 C409 131 402 115 386 99 C356 70 316 53 277 53 C189 53 115 130 115 221 C115 315 189 391 281 391 C341 391 379 367 428 298 L481 346 C459 373 446 386 431 400 C393 435 336 456 280 456 C149 456 43 351 43 221 C43 93 148 -12 277 -12 C357 -12 433 31 470 98 C487 129 494 162 494 215 L494 232 L295 232 Z M248 -51 L194 -201 L248 -221 L313 -76 L248 -51 Z " />
<glyph glyph-name="Hcircumflex" unicode="&#x124;" horiz-adv-x="663" d="M162 395 L162 667 L87 667 L87 0 L162 0 L162 326 L502 326 L502 0 L577 0 L577 667 L502 667 L502 395 L162 395 Z M192 762 L244 721 L331 797 L419 721 L472 762 L331 881 L192 762 Z " />
<glyph glyph-name="Hbar" unicode="&#x126;" horiz-adv-x="663" d="M502 667 L502 566 L162 566 L162 667 L87 667 L87 566 L20 566 L20 499 L87 499 L87 0 L162 0 L162 326 L502 326 L502 0 L577 0 L577 499 L643 499 L643 566 L577 566 L577 667 L502 667 Z M502 499 L502 395 L162 395 L162 499 L502 499 Z " />
<glyph glyph-name="hbar" unicode="&#x127;" horiz-adv-x="519" d="M361 383 L157 383 L157 443 L86 443 L86 383 L28 383 L28 323 L86 323 L86 0 L157 0 L157 200 L361 200 L361 0 L432 0 L432 323 L490 323 L490 383 L432 383 L432 443 L361 443 L361 383 Z M361 323 L361 265 L157 265 L157 323 L361 323 Z " />
<glyph glyph-name="Imacron" unicode="&#x12a;" horiz-adv-x="248" d="M161 667 L86 667 L86 0 L161 0 L161 667 Z M17 824 L17 762 L230 762 L230 824 L17 824 Z " />
<glyph glyph-name="imacron" unicode="&#x12b;" horiz-adv-x="245" d="M157 443 L86 443 L86 0 L157 0 L157 443 Z M-11 583 L-11 523 L255 523 L255 583 L-11 583 Z " />
<glyph glyph-name="ibreve" unicode="&#x12d;" horiz-adv-x="245" d="M158 443 L87 443 L87 0 L158 0 L158 443 Z M-22 627 C-8 552 46 507 123 507 C199 507 253 552 268 627 L207 627 C188 583 165 567 123 567 C80 567 57 583 39 627 L-22 627 Z " />
<glyph glyph-name="Iogonek" unicode="&#x12e;" horiz-adv-x="248" d="M162 667 L87 667 L87 0 L117 0 C67 -39 51 -63 51 -100 C51 -148 88 -185 137 -185 C154 -185 166 -182 187 -171 L193 -112 C176 -121 167 -124 153 -124 C130 -124 115 -110 115 -90 C115 -68 134 -32 162 0 L162 667 Z " />
<glyph glyph-name="iogonek" unicode="&#x12f;" horiz-adv-x="245" d="M158 443 L87 443 L87 0 L102 0 C49 -36 29 -64 29 -104 C29 -150 70 -186 124 -186 C144 -186 159 -182 180 -172 L189 -118 C168 -128 154 -131 135 -131 C106 -131 88 -115 88 -90 C88 -62 108 -37 158 0 L158 443 Z " />
<glyph glyph-name="Idotaccent" unicode="&#x130;" horiz-adv-x="248" d="M161 667 L86 667 L86 0 L161 0 L161 667 Z M123 850 C94 850 70 826 70 797 C70 767 94 743 124 743 C153 743 177 767 177 797 C177 826 153 850 123 850 L123 850 Z " />
<glyph glyph-name="dotlessi" unicode="&#x131;" horiz-adv-x="245" d="M158 443 L87 443 L87 0 L158 0 L158 443 Z " />
<glyph glyph-name="IJ" unicode="&#x132;" horiz-adv-x="548" d="M162 667 L87 667 L87 0 L162 0 L162 667 Z M462 667 L387 667 L387 128 C387 40 365 1 313 1 C286 1 269 9 236 38 L195 -20 C238 -54 273 -69 315 -69 C353 -69 389 -54 415 -29 C450 5 462 46 462 128 L462 667 Z " />
<glyph glyph-name="Kcommaaccent" unicode="&#x136;" horiz-adv-x="569" d="M162 381 L162 667 L87 667 L87 0 L162 0 L162 287 L181 306 L454 0 L556 0 L233 356 L546 667 L446 667 L162 381 Z M269 -53 L215 -213 L266 -229 L345 -77 L269 -53 Z " />
<glyph glyph-name="kcommaaccent" unicode="&#x137;" horiz-adv-x="448" d="M158 268 L158 443 L87 443 L87 0 L158 0 L158 184 L171 196 L337 0 L434 0 L226 240 L430 443 L332 443 L158 268 Z M202 -51 L148 -201 L202 -221 L267 -76 L202 -51 Z " />
<glyph glyph-name="Lacute" unicode="&#x139;" horiz-adv-x="358" d="M161 667 L86 667 L86 0 L344 0 L344 69 L161 69 L161 667 Z M263 837 L196 882 L77 752 L120 720 L263 837 Z " />
<glyph glyph-name="lacute" unicode="&#x13a;" horiz-adv-x="300" d="M158 443 L87 443 L87 0 L287 0 L287 65 L158 65 L158 443 Z M287 643 L213 676 L107 532 L152 507 L287 643 Z " />
<glyph glyph-name="Lcommaaccent" unicode="&#x13b;" horiz-adv-x="358" d="M162 667 L87 667 L87 0 L345 0 L345 69 L162 69 L162 667 Z M188 -53 L134 -213 L185 -229 L264 -77 L188 -53 Z " />
<glyph glyph-name="lcommaaccent" unicode="&#x13c;" horiz-adv-x="300" d="M158 443 L87 443 L87 0 L287 0 L287 65 L158 65 L158 443 Z M154 -51 L100 -201 L155 -221 L220 -76 L154 -51 Z " />
<glyph glyph-name="Lcaron" unicode="&#x13d;" horiz-adv-x="358" d="M162 667 L87 667 L87 0 L345 0 L345 69 L162 69 L162 667 Z M268 670 L215 511 L266 494 L344 646 L268 670 Z " />
<glyph glyph-name="lcaron" unicode="&#x13e;" horiz-adv-x="300" d="M158 443 L87 443 L87 0 L287 0 L287 65 L158 65 L158 443 Z M246 455 L192 305 L247 286 L312 431 L246 455 Z " />
<glyph glyph-name="Ldot" unicode="&#x13f;" horiz-adv-x="358" d="M162 667 L87 667 L87 0 L345 0 L345 69 L162 69 L162 667 Z M299 404 C264 404 235 375 235 341 C235 305 263 276 299 276 C334 276 363 305 363 340 C363 376 334 404 299 404 L299 404 Z " />
<glyph glyph-name="ldot" unicode="&#x140;" horiz-adv-x="300" d="M158 443 L87 443 L87 0 L287 0 L287 65 L158 65 L158 443 Z M253 283 C227 283 204 261 204 234 C204 206 226 184 254 184 C281 184 303 206 303 234 C303 261 281 283 253 283 L253 283 Z " />
<glyph glyph-name="Lslash" unicode="&#x141;" horiz-adv-x="358" d="M162 394 L162 667 L87 667 L87 361 L20 314 L20 239 L87 285 L87 0 L345 0 L345 69 L162 69 L162 318 L275 398 L275 474 L162 394 Z " />
<glyph glyph-name="lslash" unicode="&#x142;" horiz-adv-x="300" d="M158 272 L158 443 L87 443 L87 224 L36 191 L36 113 L87 147 L87 0 L287 0 L287 65 L158 65 L158 194 L236 246 L236 324 L158 272 Z " />
<glyph glyph-name="Nacute" unicode="&#x143;" horiz-adv-x="767" d="M87 0 L162 0 L162 514 L681 -30 L681 667 L606 667 L606 150 L87 695 L87 0 Z M512 837 L445 882 L326 752 L369 720 L512 837 Z " />
<glyph glyph-name="nacute" unicode="&#x144;" horiz-adv-x="584" d="M87 0 L158 0 L157 313 L498 -37 L498 443 L427 443 L428 129 L87 480 L87 0 Z M429 643 L355 676 L249 532 L294 507 L429 643 Z " />
<glyph glyph-name="Ncommaaccent" unicode="&#x145;" horiz-adv-x="767" d="M87 0 L162 0 L162 514 L681 -30 L681 667 L606 667 L606 150 L87 695 L87 0 Z M348 -53 L294 -213 L345 -229 L424 -77 L348 -53 Z " />
<glyph glyph-name="ncommaaccent" unicode="&#x146;" horiz-adv-x="584" d="M87 0 L158 0 L157 313 L498 -37 L498 443 L427 443 L428 129 L87 480 L87 0 Z M270 -51 L216 -201 L270 -221 L336 -76 L270 -51 Z " />
<glyph glyph-name="Ncaron" unicode="&#x147;" horiz-adv-x="767" d="M87 0 L162 0 L162 514 L681 -30 L681 667 L606 667 L606 150 L87 695 L87 0 Z M524 840 L472 881 L385 806 L297 881 L244 840 L385 721 L524 840 Z " />
<glyph glyph-name="ncaron" unicode="&#x148;" horiz-adv-x="584" d="M87 0 L158 0 L157 313 L498 -37 L498 443 L427 443 L428 129 L87 480 L87 0 Z M431 625 L381 664 L293 589 L205 664 L154 625 L293 507 L431 625 Z " />
<glyph glyph-name="napostrophe" unicode="&#x149;" horiz-adv-x="584" d="M87 0 L158 0 L157 313 L497 -37 L497 443 L426 443 L427 129 L87 480 L87 0 Z M-6 455 L-60 305 L-6 286 L60 431 L-6 455 Z " />
<glyph glyph-name="Eng" unicode="&#x14a;" horiz-adv-x="663" d="M87 667 L87 0 L162 0 L162 362 C162 441 171 489 192 529 C219 580 273 608 344 608 C403 608 453 587 477 553 C496 526 502 493 502 423 L502 155 C502 84 496 54 477 33 C459 13 422 1 380 1 C352 1 334 5 300 17 L300 -55 C336 -66 354 -69 383 -69 C449 -69 504 -44 539 2 C565 37 577 89 577 170 L577 409 C577 494 566 545 540 587 C504 643 431 678 352 678 C271 678 219 652 162 581 L162 667 L87 667 Z " />
<glyph glyph-name="Omacron" unicode="&#x14c;" horiz-adv-x="794" d="M398 678 C210 678 50 521 50 337 C50 247 80 168 136 105 C202 32 299 -12 394 -12 C587 -12 744 142 744 333 C744 522 588 678 398 678 L398 678 Z M397 608 C548 608 669 485 669 333 C669 180 547 58 395 58 C329 58 261 86 210 134 C154 187 125 255 125 337 C125 485 248 608 397 608 L397 608 Z M250 824 L250 762 L544 762 L544 824 L250 824 Z " />
<glyph glyph-name="omacron" unicode="&#x14d;" horiz-adv-x="560" d="M280 455 C152 455 43 349 43 224 C43 93 147 -12 278 -12 C410 -12 517 92 517 221 C517 349 410 455 280 455 L280 455 Z M280 390 C372 390 445 315 445 221 C445 128 371 53 279 53 C188 53 115 129 115 224 C115 315 190 390 280 390 L280 390 Z M147 583 L147 523 L413 523 L413 583 L147 583 Z " />
<glyph glyph-name="Ohungarumlaut" unicode="&#x150;" horiz-adv-x="794" d="M398 678 C210 678 50 521 50 337 C50 247 80 168 136 105 C202 32 299 -12 394 -12 C587 -12 744 142 744 333 C744 522 588 678 398 678 L398 678 Z M397 608 C548 608 669 485 669 333 C669 180 547 58 395 58 C329 58 261 86 210 134 C154 187 125 255 125 337 C125 485 248 608 397 608 L397 608 Z M472 846 L409 882 L290 752 L326 724 L472 846 Z M639 846 L575 882 L457 752 L493 724 L639 846 Z " />
<glyph glyph-name="ohungarumlaut" unicode="&#x151;" horiz-adv-x="560" d="M280 455 C152 455 43 349 43 224 C43 93 147 -12 278 -12 C410 -12 517 92 517 221 C517 349 410 455 280 455 L280 455 Z M280 390 C372 390 445 315 445 221 C445 128 371 53 279 53 C188 53 115 129 115 224 C115 315 190 390 280 390 L280 390 Z M351 644 L280 676 L175 532 L216 508 L351 644 Z M484 644 L414 676 L308 532 L349 508 L484 644 Z " />
<glyph glyph-name="OE" unicode="&#x152;" horiz-adv-x="1056" d="M1006 598 L1006 667 L665 667 L665 536 C593 633 508 678 396 678 C205 678 50 523 50 332 C50 143 208 -12 399 -12 C509 -12 598 35 665 128 L665 0 L1006 0 L1006 69 L740 69 L740 330 L999 330 L999 399 L740 399 L740 598 L1006 598 Z M395 608 C543 608 665 483 665 332 C665 181 543 58 392 58 C245 58 125 183 125 337 C125 483 250 608 395 608 L395 608 Z " />
<glyph glyph-name="oe" unicode="&#x153;" horiz-adv-x="732" d="M681 378 L681 443 L436 443 L436 383 C388 433 340 455 275 455 C148 455 43 349 43 220 C43 94 150 -12 277 -12 C340 -12 387 9 436 58 L436 0 L681 0 L681 65 L508 65 L508 209 L677 209 L677 274 L508 274 L508 378 L681 378 Z M276 390 C364 390 436 314 436 221 C436 128 363 53 274 53 C186 53 115 130 115 224 C115 313 189 390 276 390 L276 390 Z " />
<glyph glyph-name="Racute" unicode="&#x154;" horiz-adv-x="502" d="M261 298 C363 307 429 379 429 480 C429 543 401 600 355 631 C316 657 271 667 195 667 L87 667 L87 0 L162 0 L162 292 L181 292 L382 0 L473 0 L261 298 Z M162 358 L162 598 L206 598 C253 598 283 591 307 576 C338 557 356 521 356 480 C356 402 303 358 209 358 L162 358 Z M370 837 L303 882 L183 752 L226 720 L370 837 Z " />
<glyph glyph-name="racute" unicode="&#x155;" horiz-adv-x="421" d="M256 191 C316 205 352 251 352 312 C352 357 332 396 298 418 C271 436 239 443 186 443 L87 443 L87 0 L158 0 L158 184 L178 184 L304 0 L391 0 L256 191 Z M158 246 L158 378 L194 378 C253 378 281 357 281 313 C281 269 251 246 195 246 L158 246 Z M347 643 L274 676 L168 532 L213 507 L347 643 Z " />
<glyph glyph-name="Rcommaaccent" unicode="&#x156;" horiz-adv-x="502" d="M261 298 C363 307 429 379 429 480 C429 543 401 600 355 631 C316 657 271 667 195 667 L87 667 L87 0 L162 0 L162 292 L181 292 L382 0 L473 0 L261 298 Z M162 358 L162 598 L206 598 C253 598 283 591 307 576 C338 557 356 521 356 480 C356 402 303 358 209 358 L162 358 Z M229 -53 L176 -213 L227 -229 L305 -77 L229 -53 Z " />
<glyph glyph-name="rcommaaccent" unicode="&#x157;" horiz-adv-x="421" d="M256 191 C316 205 352 251 352 312 C352 357 332 396 298 418 C271 436 239 443 186 443 L87 443 L87 0 L158 0 L158 184 L178 184 L304 0 L391 0 L256 191 Z M158 246 L158 378 L194 378 C253 378 281 357 281 313 C281 269 251 246 195 246 L158 246 Z M188 -51 L135 -201 L189 -221 L254 -76 L188 -51 Z " />
<glyph glyph-name="Rcaron" unicode="&#x158;" horiz-adv-x="502" d="M261 298 C363 307 429 379 429 480 C429 543 401 600 355 631 C316 657 271 667 195 667 L87 667 L87 0 L162 0 L162 292 L181 292 L382 0 L473 0 L261 298 Z M162 358 L162 598 L206 598 C253 598 283 591 307 576 C338 557 356 521 356 480 C356 402 303 358 209 358 L162 358 Z M378 840 L326 881 L239 806 L151 881 L98 840 L239 721 L378 840 Z " />
<glyph glyph-name="rcaron" unicode="&#x159;" horiz-adv-x="422" d="M255 191 C315 205 351 251 351 312 C351 357 331 396 297 418 C270 436 238 443 185 443 L86 443 L86 0 L157 0 L157 184 L177 184 L303 0 L390 0 L255 191 Z M157 246 L157 378 L193 378 C252 378 280 357 280 313 C280 269 250 246 194 246 L157 246 Z M349 625 L299 664 L211 589 L123 664 L72 625 L211 507 L349 625 Z " />
<glyph glyph-name="Sacute" unicode="&#x15a;" horiz-adv-x="517" d="M443 574 C403 643 346 678 271 678 C164 678 84 604 84 506 C84 433 123 385 219 342 C312 300 312 300 337 284 C374 261 392 230 392 189 C392 116 333 58 258 58 C214 58 173 78 149 112 C136 130 130 146 122 180 L50 160 C75 51 150 -12 255 -12 C375 -12 467 78 467 193 C467 277 424 330 316 377 C225 417 225 417 201 433 C173 452 159 476 159 505 C159 564 207 608 269 608 C321 608 350 590 384 536 L443 574 Z M404 837 L337 882 L217 752 L260 720 L404 837 Z " />
<glyph glyph-name="sacute" unicode="&#x15b;" horiz-adv-x="402" d="M341 369 C308 429 268 455 210 455 C133 455 74 401 74 331 C74 279 103 245 172 216 C233 190 233 190 249 180 C271 168 280 152 280 129 C280 86 246 53 203 53 C155 53 129 80 119 141 L50 122 C69 34 121 -12 200 -12 C285 -12 352 52 352 133 C352 191 320 228 243 260 C183 285 183 285 168 294 C153 304 146 315 146 330 C146 364 173 390 209 390 C242 390 256 380 281 337 L284 331 L341 369 Z M351 643 L277 676 L172 532 L216 507 L351 643 Z " />
<glyph glyph-name="Scircumflex" unicode="&#x15c;" horiz-adv-x="517" d="M443 574 C403 643 346 678 271 678 C164 678 84 604 84 506 C84 433 123 385 219 342 C312 300 312 300 337 284 C374 261 392 230 392 189 C392 116 333 58 258 58 C214 58 173 78 149 112 C136 130 130 146 122 180 L50 160 C75 51 150 -12 255 -12 C375 -12 467 78 467 193 C467 277 424 330 316 377 C225 417 225 417 201 433 C173 452 159 476 159 505 C159 564 207 608 269 608 C321 608 350 590 384 536 L443 574 Z M132 762 L184 721 L271 797 L359 721 L412 762 L271 881 L132 762 Z " />
<glyph glyph-name="scircumflex" unicode="&#x15d;" horiz-adv-x="402" d="M341 369 C308 429 268 455 210 455 C133 455 74 401 74 331 C74 279 103 245 172 216 C233 190 233 190 249 180 C271 168 280 152 280 129 C280 86 246 53 203 53 C155 53 129 80 119 141 L50 122 C69 34 121 -12 200 -12 C285 -12 352 52 352 133 C352 191 320 228 243 260 C183 285 183 285 168 294 C153 304 146 315 146 330 C146 364 173 390 209 390 C242 390 256 380 281 337 L284 331 L341 369 Z M76 546 L126 507 L214 582 L302 507 L353 546 L214 664 L76 546 Z " />
<glyph glyph-name="Scedilla" unicode="&#x15e;" horiz-adv-x="517" d="M443 574 C403 643 346 678 271 678 C164 678 84 604 84 506 C84 433 123 385 219 342 C312 300 312 300 337 284 C374 261 392 230 392 189 C392 116 333 58 258 58 C214 58 173 78 149 112 C136 130 130 146 122 180 L50 160 C75 51 150 -12 255 -12 C375 -12 467 78 467 193 C467 277 424 330 316 377 C225 417 225 417 201 433 C173 452 159 476 159 505 C159 564 207 608 269 608 C321 608 350 590 384 536 L443 574 Z M313 -79 L241 -47 L152 -183 L202 -209 L313 -79 Z " />
<glyph glyph-name="scedilla" unicode="&#x15f;" horiz-adv-x="402" d="M341 369 C308 429 268 455 210 455 C133 455 74 401 74 331 C74 279 103 245 172 216 C233 190 233 190 249 180 C271 168 280 152 280 129 C280 86 246 53 203 53 C155 53 129 80 119 141 L50 122 C69 34 121 -12 200 -12 C285 -12 352 52 352 133 C352 191 320 228 243 260 C183 285 183 285 168 294 C153 304 146 315 146 330 C146 364 173 390 209 390 C242 390 256 380 281 337 L284 331 L341 369 Z M276 -79 L210 -52 L126 -183 L176 -207 L276 -79 Z " />
<glyph glyph-name="Scaron" unicode="&#x160;" horiz-adv-x="517" d="M443 574 C403 643 346 678 271 678 C164 678 84 604 84 506 C84 433 123 385 219 342 C312 300 312 300 337 284 C374 261 392 230 392 189 C392 116 333 58 258 58 C214 58 173 78 149 112 C136 130 130 146 122 180 L50 160 C75 51 150 -12 255 -12 C375 -12 467 78 467 193 C467 277 424 330 316 377 C225 417 225 417 201 433 C173 452 159 476 159 505 C159 564 207 608 269 608 C321 608 350 590 384 536 L443 574 Z M412 840 L360 881 L273 806 L185 881 L132 840 L273 721 L412 840 Z " />
<glyph glyph-name="scaron" unicode="&#x161;" horiz-adv-x="402" d="M341 369 C308 429 268 455 210 455 C133 455 74 401 74 331 C74 279 103 245 172 216 C233 190 233 190 249 180 C271 168 280 152 280 129 C280 86 246 53 203 53 C155 53 129 80 119 141 L50 122 C69 34 121 -12 200 -12 C285 -12 352 52 352 133 C352 191 320 228 243 260 C183 285 183 285 168 294 C153 304 146 315 146 330 C146 364 173 390 209 390 C242 390 256 380 281 337 L284 331 L341 369 Z M353 625 L303 664 L215 589 L128 664 L76 625 L215 507 L353 625 Z " />
<glyph glyph-name="Tcommaaccent" unicode="&#x162;" horiz-adv-x="425" d="M249 598 L411 598 L411 667 L13 667 L13 598 L174 598 L174 0 L249 0 L249 598 Z M179 -53 L126 -213 L177 -229 L255 -77 L179 -53 Z " />
<glyph glyph-name="tcommaaccent" unicode="&#x163;" horiz-adv-x="315" d="M193 378 L301 378 L301 443 L13 443 L13 378 L121 378 L121 0 L193 0 L193 378 Z M134 -51 L81 -201 L135 -221 L200 -76 L134 -51 Z " />
<glyph glyph-name="Tcaron" unicode="&#x164;" horiz-adv-x="425" d="M249 598 L411 598 L411 667 L13 667 L13 598 L174 598 L174 0 L249 0 L249 598 Z M352 840 L300 881 L213 806 L125 881 L72 840 L213 721 L352 840 Z " />
<glyph glyph-name="tcaron" unicode="&#x165;" horiz-adv-x="315" d="M193 378 L301 378 L301 443 L13 443 L13 378 L121 378 L121 0 L193 0 L193 378 Z M295 625 L245 664 L158 589 L70 664 L19 625 L158 507 L295 625 Z " />
<glyph glyph-name="Tbar" unicode="&#x166;" horiz-adv-x="425" d="M382 475 L249 475 L249 598 L411 598 L411 667 L13 667 L13 598 L174 598 L174 475 L41 475 L41 408 L174 408 L174 0 L249 0 L249 408 L382 408 L382 475 Z " />
<glyph glyph-name="tbar" unicode="&#x167;" horiz-adv-x="315" d="M193 250 L193 378 L301 378 L301 443 L13 443 L13 378 L121 378 L121 250 L24 250 L24 190 L121 190 L121 0 L193 0 L193 190 L290 190 L290 250 L193 250 Z " />
<glyph glyph-name="utilde" unicode="&#x169;" horiz-adv-x="510" d="M158 443 L87 443 L87 162 C87 112 96 81 118 52 C149 12 201 -12 256 -12 C310 -12 362 12 393 52 C415 81 424 113 424 162 L424 443 L353 443 L353 174 C353 130 350 112 340 95 C325 71 290 53 256 53 C221 53 186 71 171 95 C161 112 158 130 158 174 L158 443 Z M144 507 C158 538 169 548 187 548 C200 548 218 542 248 529 C286 512 298 508 316 508 C357 508 389 532 410 579 L368 613 C351 582 338 571 320 571 C307 571 299 574 262 591 C232 605 212 611 193 611 C155 611 134 595 101 541 L144 507 Z " />
<glyph glyph-name="Umacron" unicode="&#x16a;" horiz-adv-x="649" d="M162 667 L87 667 L87 238 C87 165 99 121 131 80 C174 23 248 -12 325 -12 C401 -12 474 23 518 80 C550 121 562 166 562 238 L562 667 L487 667 L487 258 C487 189 482 159 465 130 C439 88 382 58 325 58 C267 58 210 88 184 130 C167 159 162 189 162 258 L162 667 Z M178 824 L178 762 L471 762 L471 824 L178 824 Z " />
<glyph glyph-name="umacron" unicode="&#x16b;" horiz-adv-x="510" d="M158 443 L87 443 L87 162 C87 112 96 81 118 52 C149 12 201 -12 256 -12 C310 -12 362 12 393 52 C415 81 424 113 424 162 L424 443 L353 443 L353 174 C353 130 350 112 340 95 C325 71 290 53 256 53 C221 53 186 71 171 95 C161 112 158 130 158 174 L158 443 Z M122 583 L122 523 L388 523 L388 583 L122 583 Z " />
<glyph glyph-name="ubreve" unicode="&#x16d;" horiz-adv-x="510" d="M158 443 L87 443 L87 162 C87 112 96 81 118 52 C149 12 201 -12 256 -12 C310 -12 362 12 393 52 C415 81 424 113 424 162 L424 443 L353 443 L353 174 C353 130 350 112 340 95 C325 71 290 53 256 53 C221 53 186 71 171 95 C161 112 158 130 158 174 L158 443 Z M111 627 C124 552 179 507 255 507 C332 507 386 552 400 627 L339 627 C321 583 298 567 255 567 C213 567 190 583 171 627 L111 627 Z " />
<glyph glyph-name="Uring" unicode="&#x16e;" horiz-adv-x="649" d="M162 667 L87 667 L87 238 C87 165 99 121 131 80 C174 23 248 -12 325 -12 C401 -12 474 23 518 80 C550 121 562 166 562 238 L562 667 L487 667 L487 258 C487 189 482 159 465 130 C439 88 382 58 325 58 C267 58 210 88 184 130 C167 159 162 189 162 258 L162 667 Z M324 896 C275 896 234 855 234 807 C234 756 274 715 325 715 C374 715 415 756 415 806 C415 856 375 896 324 896 L324 896 Z M325 847 C348 847 366 829 366 806 C366 783 347 764 325 764 C301 764 283 783 283 806 C283 829 302 847 325 847 L325 847 Z " />
<glyph glyph-name="uring" unicode="&#x16f;" horiz-adv-x="510" d="M158 443 L87 443 L87 162 C87 112 96 81 118 52 C149 12 201 -12 256 -12 C310 -12 362 12 393 52 C415 81 424 113 424 162 L424 443 L353 443 L353 174 C353 130 350 112 340 95 C325 71 290 53 256 53 C221 53 186 71 171 95 C161 112 158 130 158 174 L158 443 Z M255 679 C208 679 169 640 169 594 C169 546 207 507 255 507 C302 507 341 546 341 593 C341 641 303 679 255 679 L255 679 Z M255 635 C278 635 297 617 297 594 C297 571 278 552 255 552 C232 552 213 571 213 594 C213 616 232 635 255 635 L255 635 Z " />
<glyph glyph-name="Uhungarumlaut" unicode="&#x170;" horiz-adv-x="649" d="M162 667 L87 667 L87 238 C87 165 99 121 131 80 C174 23 248 -12 325 -12 C401 -12 474 23 518 80 C550 121 562 166 562 238 L562 667 L487 667 L487 258 C487 189 482 159 465 130 C439 88 382 58 325 58 C267 58 210 88 184 130 C167 159 162 189 162 258 L162 667 Z M393 846 L330 882 L211 752 L247 724 L393 846 Z M560 846 L496 882 L378 752 L414 724 L560 846 Z " />
<glyph glyph-name="uhungarumlaut" unicode="&#x171;" horiz-adv-x="510" d="M158 443 L87 443 L87 162 C87 112 96 81 118 52 C149 12 201 -12 256 -12 C310 -12 362 12 393 52 C415 81 424 113 424 162 L424 443 L353 443 L353 174 C353 130 350 112 340 95 C325 71 290 53 256 53 C221 53 186 71 171 95 C161 112 158 130 158 174 L158 443 Z M326 644 L256 676 L150 532 L192 508 L326 644 Z M460 644 L389 676 L284 532 L325 508 L460 644 Z " />
<glyph glyph-name="Uogonek" unicode="&#x172;" horiz-adv-x="649" d="M498 -105 C478 -116 461 -121 443 -121 C419 -121 403 -104 403 -79 C403 -50 428 -11 478 37 C546 104 562 143 562 238 L562 667 L487 667 L487 258 C487 189 482 159 465 130 C439 88 382 58 325 58 C267 58 210 88 184 130 C167 159 162 189 162 258 L162 667 L87 667 L87 238 C87 165 99 122 131 80 C175 22 248 -12 328 -12 C354 -12 369 -10 401 0 C353 -37 337 -60 337 -95 C337 -144 379 -182 432 -182 C458 -182 472 -178 491 -166 L498 -105 Z " />
<glyph glyph-name="uogonek" unicode="&#x173;" horiz-adv-x="510" d="M353 443 L353 174 C353 130 350 112 340 95 C325 71 290 53 256 53 C221 53 186 71 171 95 C161 112 158 130 158 174 L158 443 L87 443 L87 162 C87 112 96 80 118 52 C149 13 201 -12 254 -12 C256 -12 263 -12 271 -11 C252 -36 244 -55 244 -78 C244 -123 286 -159 340 -159 C360 -159 375 -156 396 -146 L405 -91 C384 -101 370 -104 350 -104 C322 -104 303 -88 303 -62 C303 -36 320 -12 364 24 C409 62 424 95 424 162 L424 443 L353 443 Z " />
<glyph glyph-name="Wcircumflex" unicode="&#x174;" horiz-adv-x="955" d="M88 667 L7 667 L263 -34 L473 499 L670 -34 L949 667 L868 667 L672 167 L475 701 L266 167 L88 667 Z M338 762 L390 721 L477 797 L565 721 L618 762 L477 881 L338 762 Z " />
<glyph glyph-name="Ycircumflex" unicode="&#x176;" horiz-adv-x="528" d="M225 287 L225 0 L300 0 L300 287 L522 667 L435 667 L263 369 L93 667 L7 667 L225 287 Z M124 762 L176 721 L264 797 L351 721 L404 762 L264 881 L124 762 Z " />
<glyph glyph-name="ycircumflex" unicode="&#x177;" horiz-adv-x="393" d="M160 189 L160 0 L232 0 L232 189 L387 443 L304 443 L196 265 L90 443 L7 443 L160 189 Z M58 546 L108 507 L196 582 L284 507 L335 546 L196 664 L58 546 Z " />
<glyph glyph-name="Ydieresis" unicode="&#x178;" horiz-adv-x="528" d="M225 287 L225 0 L300 0 L300 287 L522 667 L435 667 L263 369 L93 667 L7 667 L225 287 Z M169 849 C141 849 118 826 118 799 C118 770 141 747 169 747 C197 747 220 770 220 798 C220 826 197 849 169 849 L169 849 Z M359 849 C331 849 308 826 308 799 C308 770 331 747 359 747 C387 747 410 770 410 798 C410 826 387 849 359 849 L359 849 Z " />
<glyph glyph-name="Zacute" unicode="&#x179;" horiz-adv-x="534" d="M147 69 L510 667 L70 667 L70 598 L387 598 L23 0 L501 0 L501 69 L147 69 Z M415 837 L348 882 L229 752 L272 720 L415 837 Z " />
<glyph glyph-name="zacute" unicode="&#x17a;" horiz-adv-x="410" d="M143 65 L387 443 L62 443 L62 378 L267 378 L23 0 L371 0 L371 65 L143 65 Z M341 643 L267 676 L162 532 L206 507 L341 643 Z " />
<glyph glyph-name="Zdotaccent" unicode="&#x17b;" horiz-adv-x="534" d="M147 69 L510 667 L70 667 L70 598 L387 598 L23 0 L501 0 L501 69 L147 69 Z M283 850 C254 850 230 826 230 797 C230 767 254 743 284 743 C313 743 337 767 337 797 C337 826 313 850 283 850 L283 850 Z " />
<glyph glyph-name="zdotaccent" unicode="&#x17c;" horiz-adv-x="410" d="M143 65 L387 443 L62 443 L62 378 L267 378 L23 0 L371 0 L371 65 L143 65 Z M204 615 C176 615 152 591 152 563 C152 534 175 510 205 510 C233 510 257 534 257 563 C257 592 234 615 204 615 L204 615 Z " />
<glyph glyph-name="Zcaron" unicode="&#x17d;" horiz-adv-x="534" d="M147 69 L510 667 L70 667 L70 598 L387 598 L23 0 L501 0 L501 69 L147 69 Z M423 840 L372 881 L284 806 L196 881 L144 840 L284 721 L423 840 Z " />
<glyph glyph-name="zcaron" unicode="&#x17e;" horiz-adv-x="410" d="M143 65 L387 443 L62 443 L62 378 L267 378 L23 0 L371 0 L371 65 L143 65 Z M343 625 L293 664 L205 589 L118 664 L66 625 L205 507 L343 625 Z " />
<glyph glyph-name="florin" unicode="&#x192;" horiz-adv-x="567" d="M331 403 L356 533 C370 612 386 633 431 633 C448 633 458 631 477 622 L491 689 C464 698 451 700 431 700 C348 700 303 655 285 553 L258 403 L184 403 L175 343 L247 343 L195 58 C186 6 171 -39 158 -55 C136 -83 106 -95 63 -95 C55 -95 45 -95 33 -94 L19 -161 C42 -163 52 -164 65 -164 C119 -164 165 -148 198 -119 C233 -88 249 -49 268 55 L320 343 L428 343 L438 403 L331 403 Z " />
<glyph glyph-name="uni01C4" unicode="&#x1c4;" horiz-adv-x="436" d="M147 379 C149 404 151 415 157 428 C168 451 192 465 219 465 C259 465 290 433 290 393 C290 356 269 333 223 320 C156 301 142 295 119 280 C81 254 57 204 57 151 C57 58 126 -10 219 -10 C310 -10 380 56 380 142 C380 156 379 166 375 189 L302 189 C307 168 308 159 308 146 C308 96 271 59 221 59 C168 59 130 98 130 151 C130 180 141 205 159 219 C176 232 180 233 242 253 C327 280 363 321 363 388 C363 470 301 532 220 532 C167 532 119 505 95 462 C81 438 76 418 75 379 L147 379 Z M219 675 C191 675 169 653 169 625 C169 598 191 576 218 576 C246 576 268 598 268 625 C268 653 246 675 219 675 L219 675 Z " />
<glyph glyph-name="uni01C5" unicode="&#x1c5;" horiz-adv-x="485" d="M422 733 L43 -40 L99 -67 L480 707 L422 733 Z " />
<glyph glyph-name="uni01C6" unicode="&#x1c6;" horiz-adv-x="290" d="M163 733 C114 637 83 484 83 333 C83 183 114 29 163 -67 L227 -37 C178 75 155 195 155 333 C155 471 178 592 227 704 L163 733 Z " />
<glyph glyph-name="uni01C7" unicode="&#x1c7;" horiz-adv-x="290" d="M126 -67 C176 29 207 183 207 333 C207 483 176 638 126 733 L63 704 C112 591 135 472 135 333 C135 195 112 75 63 -37 L126 -67 Z " />
<glyph glyph-name="uni01C8" unicode="&#x1c8;" horiz-adv-x="291" d="M153 662 L248 662 L248 729 L80 729 L80 -63 L248 -63 L248 4 L153 4 L153 662 Z " />
<glyph glyph-name="uni01C9" unicode="&#x1c9;" horiz-adv-x="291" d="M138 4 L43 4 L43 -63 L211 -63 L211 729 L43 729 L43 662 L138 662 L138 4 Z " />
<glyph glyph-name="uni01CA" unicode="&#x1ca;" horiz-adv-x="567" d="M114 93 C116 48 122 20 136 -3 C162 -45 213 -70 275 -70 C373 -70 439 -11 439 77 C439 114 426 147 405 169 C394 179 385 186 362 198 C428 235 455 275 455 336 C455 381 437 423 406 448 C385 465 359 478 312 493 C256 511 249 514 231 526 C210 540 199 561 199 586 C199 634 236 667 292 667 C350 667 379 636 382 571 L452 571 C450 615 441 646 426 671 C401 711 349 737 291 737 C198 737 127 674 127 591 C127 537 150 502 205 472 C143 446 112 399 112 334 C112 260 151 215 242 183 C307 160 307 160 326 149 C353 133 366 110 366 80 C366 30 333 1 277 1 C217 1 190 28 186 93 L114 93 Z M283 426 C337 426 381 386 381 336 C381 286 337 246 283 246 C228 246 185 286 185 337 C185 386 229 426 283 426 L283 426 Z " />
<glyph glyph-name="uni01CB" unicode="&#x1cb;" horiz-adv-x="567" d="M247 729 L247 565 L100 565 L100 496 L247 496 L247 -63 L319 -63 L319 496 L467 496 L467 565 L319 565 L319 729 L247 729 Z " />
<glyph glyph-name="uni01CC" unicode="&#x1cc;" horiz-adv-x="567" d="M247 729 L247 565 L100 565 L100 496 L247 496 L247 194 L100 194 L100 125 L247 125 L247 -63 L320 -63 L320 125 L467 125 L467 194 L320 194 L320 496 L467 496 L467 565 L320 565 L320 729 L247 729 Z " />
<glyph glyph-name="uni01CD" unicode="&#x1cd;" horiz-adv-x="620" d="M453 189 L532 0 L614 0 L314 699 L7 0 L88 0 L168 189 L453 189 Z M424 258 L199 258 L313 525 L424 258 Z M455 840 L403 881 L316 806 L228 881 L175 840 L316 721 L455 840 Z " />
<glyph glyph-name="uni01CE" unicode="&#x1ce;" horiz-adv-x="445" d="M309 118 L361 0 L439 0 L226 482 L7 0 L85 0 L137 118 L309 118 Z M285 183 L162 183 L224 327 L285 183 Z M365 625 L315 664 L227 589 L139 664 L88 625 L227 507 L365 625 Z " />
<glyph glyph-name="uni01D1" unicode="&#x1d1;" horiz-adv-x="277" d="M139 676 C112 676 90 654 90 627 C90 600 112 578 139 578 C166 578 188 600 188 626 C188 654 166 676 139 676 L139 676 Z M175 531 L103 531 L103 0 L175 0 L175 531 Z " />
<glyph glyph-name="uni01D3" unicode="&#x1d3;" horiz-adv-x="649" d="M162 667 L87 667 L87 238 C87 165 99 121 131 80 C174 23 248 -12 325 -12 C401 -12 474 23 518 80 C550 121 562 166 562 238 L562 667 L487 667 L487 258 C487 189 482 159 465 130 C439 88 382 58 325 58 C267 58 210 88 184 130 C167 159 162 189 162 258 L162 667 Z M465 840 L413 881 L325 806 L238 881 L185 840 L325 721 L465 840 Z " />
<glyph glyph-name="uni01D4" unicode="&#x1d4;" horiz-adv-x="510" d="M158 443 L87 443 L87 162 C87 112 96 81 118 52 C149 12 201 -12 256 -12 C310 -12 362 12 393 52 C415 81 424 113 424 162 L424 443 L353 443 L353 174 C353 130 350 112 340 95 C325 71 290 53 256 53 C221 53 186 71 171 95 C161 112 158 130 158 174 L158 443 Z M394 625 L344 664 L256 589 L168 664 L117 625 L256 507 L394 625 Z " />
<glyph glyph-name="Gcaron" unicode="&#x1e6;" horiz-adv-x="758" d="M430 335 L430 266 L628 266 C625 225 618 199 601 172 C560 104 476 58 393 58 C248 58 125 183 125 331 C125 484 247 608 399 608 C490 608 558 570 624 483 L679 533 C647 572 628 591 602 610 C545 654 473 678 398 678 C206 678 50 523 50 332 C50 144 205 -12 392 -12 C509 -12 619 51 673 149 C698 194 708 244 708 318 L708 335 L430 335 Z M542 840 L491 881 L403 806 L315 881 L262 840 L403 721 L542 840 Z " />
<glyph glyph-name="gcaron" unicode="&#x1e7;" horiz-adv-x="541" d="M295 232 L295 167 L418 167 C409 131 402 115 386 99 C356 70 316 53 277 53 C189 53 115 130 115 221 C115 315 189 391 281 391 C341 391 379 367 428 298 L481 346 C459 373 446 386 431 400 C393 435 336 456 280 456 C149 456 43 351 43 221 C43 93 148 -12 277 -12 C357 -12 433 31 470 98 C487 129 494 162 494 215 L494 232 L295 232 Z M422 625 L372 664 L284 589 L197 664 L145 625 L284 507 L422 625 Z " />
<glyph glyph-name="uni01F4" unicode="&#x1f4;" horiz-adv-x="758" d="M430 335 L430 266 L628 266 C625 225 618 199 601 172 C560 104 476 58 393 58 C248 58 125 183 125 331 C125 484 247 608 399 608 C490 608 558 570 624 483 L679 533 C647 572 628 591 602 610 C545 654 473 678 398 678 C206 678 50 523 50 332 C50 144 205 -12 392 -12 C509 -12 619 51 673 149 C698 194 708 244 708 318 L708 335 L430 335 Z M531 837 L463 882 L344 752 L387 720 L531 837 Z " />
<glyph glyph-name="uni0200" unicode="&#x200;" horiz-adv-x="451" d="M193 729 L200 617 L106 679 L73 622 L174 572 L73 522 L106 465 L200 527 L193 415 L259 415 L252 527 L345 465 L379 522 L278 572 L379 622 L345 679 L252 617 L259 729 L193 729 Z " />
<glyph glyph-name="uni0201" unicode="&#x201;" horiz-adv-x="291" d="M181 580 C181 651 194 667 251 667 L260 667 L260 729 C247 730 241 730 234 730 C145 730 108 690 108 592 L108 455 C108 403 92 377 51 367 L51 308 C93 296 108 271 108 214 L108 85 C108 11 126 -32 165 -50 C189 -61 199 -62 260 -62 L260 1 C192 0 181 12 181 91 L181 217 C181 280 165 310 120 335 C167 359 181 386 181 451 L181 580 Z " />
<glyph glyph-name="Scommaaccent" unicode="&#x218;" horiz-adv-x="517" d="M443 574 C403 643 346 678 271 678 C164 678 84 604 84 506 C84 433 123 385 219 342 C312 300 312 300 337 284 C374 261 392 230 392 189 C392 116 333 58 258 58 C214 58 173 78 149 112 C136 130 130 146 122 180 L50 160 C75 51 150 -12 255 -12 C375 -12 467 78 467 193 C467 277 424 330 316 377 C225 417 225 417 201 433 C173 452 159 476 159 505 C159 564 207 608 269 608 C321 608 350 590 384 536 L443 574 Z M229 -53 L176 -213 L227 -229 L305 -77 L229 -53 Z " />
<glyph glyph-name="scommaaccent" unicode="&#x219;" horiz-adv-x="402" d="M341 369 C308 429 268 455 210 455 C133 455 74 401 74 331 C74 279 103 245 172 216 C233 190 233 190 249 180 C271 168 280 152 280 129 C280 86 246 53 203 53 C155 53 129 80 119 141 L50 122 C69 34 121 -12 200 -12 C285 -12 352 52 352 133 C352 191 320 228 243 260 C183 285 183 285 168 294 C153 304 146 315 146 330 C146 364 173 390 209 390 C242 390 256 380 281 337 L284 331 L341 369 Z M179 -51 L125 -201 L179 -221 L244 -76 L179 -51 Z " />
<glyph glyph-name="uni021A" unicode="&#x21a;" horiz-adv-x="425" d="M249 598 L411 598 L411 667 L13 667 L13 598 L174 598 L174 0 L249 0 L249 598 Z M179 -53 L126 -213 L177 -229 L255 -77 L179 -53 Z " />
<glyph glyph-name="uni021B" unicode="&#x21b;" horiz-adv-x="315" d="M193 378 L301 378 L301 443 L13 443 L13 378 L121 378 L121 0 L193 0 L193 378 Z M134 -51 L81 -201 L135 -221 L200 -76 L134 -51 Z " />
<glyph glyph-name="uni0226" unicode="&#x226;" horiz-adv-x="620" d="M453 189 L532 0 L614 0 L314 699 L7 0 L88 0 L168 189 L453 189 Z M424 258 L199 258 L313 525 L424 258 Z M313 850 C284 850 260 826 260 797 C260 767 284 743 314 743 C343 743 367 767 367 797 C367 826 343 850 313 850 L313 850 Z " />
<glyph glyph-name="uni0227" unicode="&#x227;" horiz-adv-x="445" d="M309 118 L361 0 L439 0 L226 482 L7 0 L85 0 L137 118 L309 118 Z M285 183 L162 183 L224 327 L285 183 Z M226 615 C198 615 174 591 174 563 C174 534 197 510 227 510 C255 510 279 534 279 563 C279 592 256 615 226 615 L226 615 Z " />
<glyph glyph-name="circumflex" unicode="&#x2c6;" horiz-adv-x="500" d="M112 546 L162 507 L250 582 L337 507 L389 546 L250 664 L112 546 Z " />
<glyph glyph-name="caron" unicode="&#x2c7;" horiz-adv-x="500" d="M389 625 L339 664 L251 589 L163 664 L112 625 L251 507 L389 625 Z " />
<glyph glyph-name="uni02C9" unicode="&#x2c9;" horiz-adv-x="500" d="M117 583 L117 523 L383 523 L383 583 L117 583 Z " />
<glyph glyph-name="breve" unicode="&#x2d8;" horiz-adv-x="500" d="M105 627 C119 552 173 507 250 507 C326 507 380 552 395 627 L334 627 C315 583 292 567 250 567 C207 567 184 583 166 627 L105 627 Z " />
<glyph glyph-name="dotaccent" unicode="&#x2d9;" horiz-adv-x="500" d="M250 615 C222 615 198 591 198 563 C198 534 221 510 251 510 C279 510 303 534 303 563 C303 592 280 615 250 615 L250 615 Z " />
<glyph glyph-name="ring" unicode="&#x2da;" horiz-adv-x="500" d="M250 679 C203 679 164 640 164 594 C164 546 202 507 250 507 C297 507 336 546 336 593 C336 641 298 679 250 679 L250 679 Z M250 635 C273 635 292 617 292 594 C292 571 273 552 250 552 C227 552 208 571 208 594 C208 616 227 635 250 635 L250 635 Z " />
<glyph glyph-name="ogonek" unicode="&#x2db;" horiz-adv-x="500" d="M339 0 C287 -34 266 -65 266 -104 C266 -150 307 -186 361 -186 C381 -186 396 -182 417 -172 L426 -118 C405 -128 392 -131 372 -131 C343 -131 325 -115 325 -90 C325 -62 346 -36 395 0 L339 0 Z " />
<glyph glyph-name="tilde" unicode="&#x2dc;" horiz-adv-x="500" d="M139 507 C153 538 164 548 182 548 C195 548 213 542 243 529 C281 512 293 508 311 508 C352 508 384 532 405 579 L363 613 C346 582 333 571 315 571 C302 571 294 574 257 591 C227 605 207 611 188 611 C150 611 129 595 96 541 L139 507 Z " />
<glyph glyph-name="hungarumlaut" unicode="&#x2dd;" horiz-adv-x="500" d="M321 644 L250 676 L145 532 L186 508 L321 644 Z M454 644 L384 676 L278 532 L319 508 L454 644 Z " />
<glyph glyph-name="uni1E1E" unicode="&#x1e1e;" horiz-adv-x="433" d="M390 598 L390 667 L87 667 L87 0 L162 0 L162 330 L383 330 L383 399 L162 399 L162 598 L390 598 Z M238 850 C209 850 185 826 185 797 C185 767 209 743 239 743 C268 743 292 767 292 797 C292 826 268 850 238 850 L238 850 Z " />
<glyph glyph-name="Wacute" unicode="&#x1e82;" horiz-adv-x="261" d="M40 245 L40 181 L221 181 L221 245 L40 245 Z " />
<glyph glyph-name="Wdieresis" unicode="&#x1e84;" horiz-adv-x="955" d="M88 667 L7 667 L263 -34 L473 499 L670 -34 L949 667 L868 667 L672 167 L475 701 L266 167 L88 667 Z M383 849 C355 849 332 826 332 799 C332 770 355 747 383 747 C411 747 434 770 434 798 C434 826 411 849 383 849 L383 849 Z M573 849 C545 849 522 826 522 799 C522 770 545 747 573 747 C601 747 624 770 624 798 C624 826 601 849 573 849 L573 849 Z " />
<glyph glyph-name="uni2011" unicode="&#x2011;" horiz-adv-x="181" d="M0 245 L0 181 L181 181 L181 245 L0 245 Z " />
<glyph glyph-name="figuredash" unicode="&#x2012;" horiz-adv-x="567" d="M117 245 L117 181 L450 181 L450 245 L117 245 Z " />
<glyph glyph-name="endash" unicode="&#x2013;" horiz-adv-x="567" d="M117 245 L117 181 L450 181 L450 245 L117 245 Z " />
<glyph glyph-name="emdash" unicode="&#x2014;" horiz-adv-x="544" d="M0 245 L0 181 L544 181 L544 245 L0 245 Z " />
<glyph glyph-name="afii00208" unicode="&#x2015;" horiz-adv-x="544" d="M0 245 L0 181 L544 181 L544 245 L0 245 Z " />
<glyph glyph-name="underscoredbl" unicode="&#x2017;" horiz-adv-x="500" d="M0 -58 L0 -105 L500 -105 L500 -58 L0 -58 Z M0 -174 L0 -222 L500 -222 L500 -174 L0 -174 Z " />
<glyph glyph-name="quoteleft" unicode="&#x2018;" horiz-adv-x="261" d="M122 451 L205 681 L157 700 L57 475 L122 451 Z " />
<glyph glyph-name="quoteright" unicode="&#x2019;" horiz-adv-x="252" d="M129 700 L46 470 L94 451 L194 676 L129 700 Z " />
<glyph glyph-name="quotesinglbase" unicode="&#x201a;" horiz-adv-x="252" d="M129 100 L46 -130 L94 -149 L194 76 L129 100 Z " />
<glyph glyph-name="quotedblleft" unicode="&#x201c;" horiz-adv-x="408" d="M269 451 L352 681 L304 700 L203 475 L269 451 Z M122 451 L205 681 L157 700 L57 475 L122 451 Z " />
<glyph glyph-name="quotedblright" unicode="&#x201d;" horiz-adv-x="408" d="M140 700 L57 470 L105 451 L205 676 L140 700 Z M286 700 L203 470 L251 451 L352 676 L286 700 Z " />
<glyph glyph-name="quotedblbase" unicode="&#x201e;" horiz-adv-x="408" d="M140 98 L57 -133 L105 -152 L205 74 L140 98 Z M286 98 L203 -133 L251 -152 L352 74 L286 98 Z " />
<glyph glyph-name="dagger" unicode="&#x2020;" horiz-adv-x="567" d="M247 729 L247 565 L100 565 L100 496 L247 496 L247 -176 L319 -176 L319 496 L467 496 L467 565 L319 565 L319 729 L247 729 Z " />
<glyph glyph-name="daggerdbl" unicode="&#x2021;" horiz-adv-x="567" d="M247 729 L247 565 L100 565 L100 496 L247 496 L247 194 L100 194 L100 125 L247 125 L247 -176 L320 -176 L320 125 L467 125 L467 194 L320 194 L320 496 L467 496 L467 565 L320 565 L320 729 L247 729 Z " />
<glyph glyph-name="bullet" unicode="&#x2022;" horiz-adv-x="667" d="M337 477 C258 477 196 416 196 338 C196 262 259 200 335 200 C411 200 473 262 473 339 C473 414 411 477 337 477 L337 477 Z " />
<glyph glyph-name="ellipsis" unicode="&#x2026;" horiz-adv-x="746" d="M124 88 C97 88 75 66 75 40 C75 12 97 -10 124 -10 C151 -10 173 12 173 39 C173 66 151 88 124 88 L124 88 Z M373 88 C346 88 324 66 324 40 C324 12 346 -10 373 -10 C400 -10 422 12 422 39 C422 66 400 88 373 88 L373 88 Z M621 88 C594 88 572 66 572 40 C572 12 594 -10 621 -10 C648 -10 670 12 670 39 C670 66 648 88 621 88 L621 88 Z " />
<glyph glyph-name="perthousand" unicode="&#x2030;" horiz-adv-x="1078" d="M181 674 C101 674 33 609 33 531 C33 448 98 383 180 383 C264 383 330 447 330 528 C330 609 264 674 181 674 L181 674 Z M182 619 C231 619 271 579 271 529 C271 479 231 439 182 439 C132 439 92 479 92 530 C92 579 132 619 182 619 L182 619 Z M532 680 L144 10 L182 -13 L571 658 L532 680 Z M533 284 C452 284 385 219 385 141 C385 58 450 -7 532 -7 C616 -7 682 57 682 138 C682 219 616 284 533 284 L533 284 Z M533 229 C583 229 623 189 623 139 C623 89 583 49 534 49 C484 49 444 89 444 140 C444 189 485 229 533 229 L533 229 Z M895 284 C815 284 747 219 747 141 C747 58 812 -7 894 -7 C978 -7 1044 57 1044 138 C1044 219 978 284 895 284 L895 284 Z M895 229 C945 229 985 189 985 139 C985 89 945 49 896 49 C846 49 806 89 806 140 C806 189 847 229 895 229 L895 229 Z " />
<glyph glyph-name="guilsinglleft" unicode="&#x2039;" horiz-adv-x="282" d="M114 213 L233 364 L186 400 L37 213 L186 29 L233 66 L114 213 Z " />
<glyph glyph-name="guilsinglright" unicode="&#x203a;" horiz-adv-x="282" d="M169 213 L50 66 L96 29 L246 213 L97 400 L50 364 L169 213 Z " />
<glyph glyph-name="uni203E" unicode="&#x203e;" horiz-adv-x="500" d="M0 864 L0 796 L500 796 L500 864 L0 864 Z " />
<glyph glyph-name="fraction" unicode="&#x2044;" horiz-adv-x="140" d="M245 680 L-143 10 L-104 -13 L284 659 L245 680 Z " />
<glyph glyph-name="franc" unicode="&#x20a3;" horiz-adv-x="567" d="M405 598 L405 667 L102 667 L102 0 L177 0 L177 330 L398 330 L398 399 L177 399 L177 598 L405 598 Z M369 294 L369 0 L429 0 L429 150 C429 185 432 206 440 221 C449 236 468 247 487 247 C497 247 504 245 515 237 L546 289 C525 300 514 304 496 304 C467 304 455 296 429 259 L429 294 L369 294 Z " />
<glyph glyph-name="lira" unicode="&#x20a4;" horiz-adv-x="567" d="M92 173 L208 173 C204 151 198 137 182 111 C132 110 86 79 53 26 L110 -13 C136 26 158 40 190 40 C210 40 227 36 283 15 C337 -4 367 -11 394 -11 C452 -11 495 21 531 92 L471 128 C443 79 422 62 391 62 C374 62 360 66 316 81 C305 86 289 91 258 102 C272 127 279 146 284 173 L387 173 L387 230 L283 230 C277 257 271 275 256 303 L387 303 L387 360 L227 360 L220 372 C188 433 182 451 182 485 C182 553 235 604 305 604 C357 604 399 576 414 530 C420 510 422 496 425 459 L498 478 C493 599 418 676 305 676 C193 676 107 595 107 489 C107 445 113 424 146 360 L92 360 L92 303 L175 303 C197 260 200 251 206 230 L92 230 L92 173 Z " />
<glyph glyph-name="peseta" unicode="&#x20a7;" horiz-adv-x="837" d="M162 292 L227 292 C358 292 438 363 438 480 C438 535 415 587 376 620 C337 654 290 667 208 667 L87 667 L87 0 L162 0 L162 292 Z M162 360 L162 598 L217 598 C271 598 303 589 328 568 C352 548 365 516 365 480 C365 404 313 360 222 360 L162 360 Z M515 241 L573 241 L573 294 L515 294 L515 397 L455 397 L455 294 L418 294 L418 241 L455 241 L455 0 L515 0 L515 241 Z M809 248 C789 286 759 304 719 304 C665 304 625 268 625 219 C625 178 645 158 712 132 C750 118 761 108 761 87 C761 63 742 46 717 46 C689 46 675 58 657 92 L606 69 C627 18 664 -8 716 -8 C778 -8 825 35 825 91 C825 136 803 158 734 184 C697 199 686 207 686 223 C686 238 700 250 717 250 C734 250 747 241 757 222 L809 248 Z " />
<glyph glyph-name="Euro" unicode="&#x20ac;" horiz-adv-x="567" d="M173 417 C202 533 285 608 383 608 C423 608 451 600 507 574 L535 639 C469 669 436 678 389 678 C246 678 133 577 96 417 L46 417 L22 360 L88 360 C87 347 87 339 87 332 C87 315 88 303 90 285 L46 285 L22 227 L102 227 C140 85 254 -12 384 -12 C425 -12 455 -6 507 14 L507 92 C453 66 424 58 384 58 C294 58 211 127 179 227 L364 227 L390 285 L166 285 C163 301 162 314 162 332 C162 342 163 351 164 360 L414 360 L439 417 L173 417 Z " />
<glyph glyph-name="uni2101" unicode="&#x2101;" horiz-adv-x="911" d="M297 378 L345 267 L403 267 L213 690 L17 267 L75 267 L124 378 L297 378 Z M276 425 L146 425 L212 571 L276 425 Z M698 680 L310 10 L348 -13 L736 659 L698 680 Z M863 341 C837 385 802 406 753 406 C685 406 634 361 634 301 C634 257 659 227 720 202 C776 177 776 177 792 168 C814 155 825 137 825 115 C825 74 790 41 745 41 C700 41 674 64 663 114 L611 100 C628 31 675 -7 743 -7 C819 -7 878 47 878 117 C878 168 851 200 783 228 C726 252 726 252 711 261 C695 272 687 285 687 301 C687 333 715 358 752 358 C783 358 800 348 821 314 L863 341 Z " />
<glyph glyph-name="afii61248" unicode="&#x2105;" horiz-adv-x="567" d="M283 392 C255 392 231 369 231 341 C231 311 254 288 283 288 C312 288 335 311 335 340 C335 369 312 392 283 392 L283 392 Z " />
<glyph glyph-name="afii61289" unicode="&#x2113;" horiz-adv-x="500" d="M249 269 C306 329 340 370 364 411 C402 475 425 545 425 598 C425 647 400 679 362 679 C317 679 278 638 247 559 C215 481 189 383 165 258 C155 246 125 214 115 206 C100 193 95 186 95 179 C95 171 102 163 109 163 C115 163 127 172 158 201 C149 119 148 102 148 74 C148 19 173 -14 215 -14 C243 -14 266 1 291 34 C307 56 317 79 317 94 C317 104 312 109 304 109 C296 109 291 105 285 91 C268 54 251 36 234 36 C222 36 216 44 216 61 C216 96 220 120 249 269 L249 269 Z M260 334 C281 449 302 541 321 594 C330 620 347 638 362 638 C376 638 385 620 385 593 C385 516 339 420 260 334 L260 334 Z " />
<glyph glyph-name="uni2117" unicode="&#x2117;" horiz-adv-x="149" d="M104 521 L46 521 L46 267 L104 267 L104 521 Z M73 644 C53 644 36 627 36 607 C36 586 53 569 74 569 C94 569 111 586 111 607 C111 627 94 644 73 644 L73 644 Z " />
<glyph glyph-name="trademark" unicode="&#x2122;" horiz-adv-x="721" d="M142 622 L234 622 L234 667 L4 667 L4 622 L94 622 L94 287 L142 287 L142 622 Z M270 287 L316 287 L353 545 L478 268 L605 545 L639 287 L686 287 L625 692 L478 376 L335 692 L270 287 Z " />
<glyph glyph-name="uni2126" unicode="&#x2126;" horiz-adv-x="667" d="M28 0 L289 0 L289 60 C165 129 104 227 104 355 C104 504 203 617 334 617 C391 617 440 596 484 552 C537 498 562 435 562 355 C562 273 536 202 484 142 C456 110 430 90 377 60 L377 0 L638 0 L638 66 L460 66 C580 136 638 234 638 364 C638 545 505 684 333 684 C161 684 28 545 28 364 C28 233 85 137 206 66 L28 66 L28 0 Z " />
<glyph glyph-name="partialdiff" unicode="&#x2202;" horiz-adv-x="500" d="M84 604 C148 595 183 583 243 547 C310 505 347 459 378 378 L384 362 C340 415 301 434 239 434 C122 434 30 337 30 214 C30 91 130 -11 251 -11 C323 -11 389 25 429 86 C457 128 470 180 470 246 C470 372 424 488 342 564 C278 625 208 655 94 670 L84 604 Z M255 377 C335 377 394 309 394 217 C394 121 332 47 250 47 C171 47 106 121 106 211 C106 304 171 377 255 377 L255 377 Z " />
<glyph glyph-name="emptyset" unicode="&#x2205;" horiz-adv-x="618" d="M439 667 L392 578 C362 588 340 592 311 592 C175 592 67 485 67 349 C67 267 103 200 175 147 L114 25 L162 0 L225 123 C248 112 271 107 304 107 C443 107 552 214 552 350 C552 432 514 501 439 554 L487 642 L439 667 Z M416 502 C465 472 496 412 496 349 C496 247 412 164 309 164 C290 164 275 166 251 172 L416 502 Z M200 198 C149 239 123 290 123 350 C123 452 208 535 312 535 C332 535 345 533 366 527 L200 198 Z " />
<glyph glyph-name="Delta" unicode="&#x2206;" horiz-adv-x="667" d="M27 0 L640 0 L372 667 L292 667 L27 0 Z M135 70 L333 576 L531 70 L135 70 Z " />
<glyph glyph-name="product" unicode="&#x220f;" horiz-adv-x="700" d="M37 750 L37 680 L116 680 L116 -180 L37 -180 L37 -250 L273 -250 L273 -180 L191 -180 L191 680 L509 680 L509 -180 L427 -180 L427 -250 L664 -250 L664 -180 L584 -180 L584 680 L664 680 L664 750 L37 750 Z " />
<glyph glyph-name="summation" unicode="&#x2211;" horiz-adv-x="667" d="M599 750 L28 750 L28 672 L276 270 L28 -171 L28 -250 L609 -250 L609 -22 L537 -22 L533 -180 L112 -180 L364 270 L112 679 L524 679 L531 521 L599 521 L599 750 Z " />
<glyph glyph-name="minus" unicode="&#x2212;" horiz-adv-x="567" d="M48 310 L519 310 L519 371 L48 371 L48 310 Z " />
<glyph glyph-name="uni2218" unicode="&#x2218;" horiz-adv-x="500" d="M253 480 C175 480 113 418 113 340 C113 263 175 200 251 200 C327 200 388 263 388 340 C388 417 327 480 253 480 L253 480 Z M252 433 C301 433 341 391 341 340 C341 289 301 247 251 247 C201 247 160 289 160 340 C160 392 200 433 252 433 L252 433 Z " />
<glyph glyph-name="uni2219" unicode="&#x2219;" horiz-adv-x="225" d="M112 263 C86 263 63 241 63 214 C63 186 85 164 113 164 C140 164 162 186 162 214 C162 241 140 263 112 263 L112 263 Z " />
<glyph glyph-name="radical" unicode="&#x221a;" horiz-adv-x="667" d="M667 829 L407 829 L299 443 C285 393 271 343 258 294 C254 279 251 265 248 251 C238 208 228 165 219 122 C218 121 217 113 215 102 L209 102 C186 220 185 227 181 241 L145 368 L0 368 L0 298 L84 298 L165 0 L258 0 L471 759 L667 759 L667 829 Z " />
<glyph glyph-name="infinity" unicode="&#x221e;" horiz-adv-x="667" d="M335 290 C383 219 434 186 498 186 C585 186 648 250 648 339 C648 430 586 494 497 494 C432 494 380 462 332 391 C285 459 231 494 171 494 C82 494 18 430 18 341 C18 250 80 186 170 186 C232 186 284 219 335 290 L335 290 Z M371 340 C413 405 445 430 488 430 C537 430 574 392 574 340 C574 288 538 250 489 250 C445 250 412 275 371 340 L371 340 Z M295 340 C253 274 221 250 178 250 C129 250 92 288 92 340 C92 392 128 430 177 430 C221 430 256 403 295 340 L295 340 Z " />
<glyph glyph-name="integral" unicode="&#x222b;" horiz-adv-x="500" d="M94 -239 C114 -247 128 -249 153 -249 C206 -249 246 -232 267 -200 C285 -173 288 -150 288 -48 L288 528 C289 622 289 625 291 637 C296 667 314 682 345 682 C360 682 370 680 391 673 L407 740 C376 748 361 750 339 750 C280 750 235 722 222 675 C215 652 213 624 213 548 L213 -61 C213 -107 212 -124 210 -137 C205 -168 187 -183 156 -183 C141 -183 131 -181 110 -172 L94 -239 Z " />
<glyph glyph-name="similar" unicode="&#x223c;" horiz-adv-x="500" d="M54 263 C83 316 107 336 142 336 C158 336 181 330 206 318 C296 278 318 270 346 270 C408 270 452 304 491 383 L446 410 C415 358 393 342 356 342 C332 342 317 347 259 374 C205 399 175 408 147 408 C89 408 46 372 10 292 L54 263 Z " />
<glyph glyph-name="approxequal" unicode="&#x2248;" horiz-adv-x="500" d="M54 347 C82 399 107 420 142 420 C158 420 180 414 206 402 C297 361 318 354 346 354 C408 354 452 388 491 467 L446 494 C415 443 393 426 355 426 C332 426 318 431 259 458 C204 483 175 492 147 492 C89 492 48 457 10 376 L54 347 Z M54 179 C82 231 107 252 142 252 C158 252 181 246 206 234 C296 194 318 186 346 186 C408 186 452 220 491 299 L446 326 C416 275 393 258 356 258 C332 258 317 263 259 290 C205 315 175 324 148 324 C89 324 47 289 10 208 L54 179 Z " />
<glyph glyph-name="notequal" unicode="&#x2260;" horiz-adv-x="567" d="M298 431 L48 431 L48 373 L270 373 L238 307 L48 307 L48 249 L211 249 L155 132 L207 111 L272 249 L519 249 L519 307 L300 307 L332 373 L519 373 L519 431 L359 431 L411 540 L360 561 L298 431 Z " />
<glyph glyph-name="lessequal" unicode="&#x2264;" horiz-adv-x="500" d="M466 612 L33 415 L33 350 L466 156 L466 227 L113 384 L466 540 L466 612 Z M466 126 L33 126 L33 56 L466 56 L466 126 Z " />
<glyph glyph-name="greaterequal" unicode="&#x2265;" horiz-adv-x="500" d="M33 156 L466 350 L466 415 L33 612 L33 540 L386 384 L33 227 L33 156 Z M33 56 L466 56 L466 126 L33 126 L33 56 Z " />
<glyph glyph-name="fi" unicode="&#xfb01;" horiz-adv-x="603" d="M315 378 L315 443 L87 443 L87 0 L158 0 L158 209 L311 209 L311 274 L158 274 L158 378 L315 378 Z M517 443 L446 443 L446 0 L517 0 L517 443 Z " />
<glyph glyph-name="fl" unicode="&#xfb02;" horiz-adv-x="658" d="M315 378 L315 443 L87 443 L87 0 L158 0 L158 209 L311 209 L311 274 L158 274 L158 378 L315 378 Z M517 443 L446 443 L446 0 L645 0 L645 65 L517 65 L517 443 Z " />
</font>
</svg>
