<?xml version="1.0" standalone="no"?>
<!DOCTYPE svg PUBLIC "-//W3C//DTD SVG 1.1//EN" "http://www.w3.org/Graphics/SVG/1.1/DTD/svg11.dtd" >
<svg xmlns="http://www.w3.org/2000/svg">
<metadata></metadata>
<defs>
<font id="muriza_basichairline" horiz-adv-x="1040" >
<font-face units-per-em="2048" ascent="1589" descent="-459" />
<missing-glyph horiz-adv-x="528" />
<glyph horiz-adv-x="0" />
<glyph horiz-adv-x="682" />
<glyph unicode=" "  horiz-adv-x="528" />
<glyph unicode="&#x09;" horiz-adv-x="528" />
<glyph unicode="&#xa0;" horiz-adv-x="528" />
<glyph unicode="!" horiz-adv-x="544" d="M238 18q0 14 9.5 23.5t24.5 9.5t24 -9.5t9 -23.5q0 -32 -33 -32q-15 0 -24.5 8.5t-9.5 23.5zM260 1352h23l-2 -1096h-19z" />
<glyph unicode="&#x22;" horiz-adv-x="763" d="M213 1042v310h23v-310h-23zM530 1042v310h23v-310h-23z" />
<glyph unicode="#" horiz-adv-x="1095" d="M86 412v20h233l62 416h-266v20h270l55 373h23l-55 -373h356l55 373h23l-56 -373h224v-20h-228l-61 -416h262v-20h-266l-62 -412h-22l61 412h-356l-62 -412h-22l61 412h-229zM342 432h356l62 416h-357z" />
<glyph unicode="$" d="M190 98v287h23v-276q110 -58 272 -58q71 0 129 13t108 41.5t77.5 81.5t27.5 126q0 47 -12.5 84.5t-31 63t-51.5 49t-61.5 39t-73.5 37.5q-11 5 -17 8l-111 53q-67 32 -104 53.5t-77 56t-57.5 78t-17.5 101.5q0 125 81.5 193.5t215.5 74.5v277h22v-277h5q144 0 260 -69 v-287h-21v278q-107 58 -237 58q-136 0 -219.5 -64t-83.5 -182q0 -32 7.5 -60.5t17.5 -49.5t31 -42t37 -34.5t47.5 -31.5t50.5 -27.5t58 -28.5l107 -54q121 -58 163 -91q93 -79 95 -204q0 -72 -24.5 -126t-69.5 -86t-100.5 -49t-123.5 -21v-283h-22v281h-25q-173 0 -295 67z " />
<glyph unicode="%" horiz-adv-x="1646" d="M106 946q0 208 62.5 312t175.5 104q116 0 178 -103.5t62 -312.5t-62 -313.5t-178 -104.5q-113 0 -175.5 105t-62.5 313zM129 946q0 -201 56.5 -299t158.5 -98q103 0 160 98t57 299t-57 298t-160 97q-102 0 -158.5 -97t-56.5 -298zM565 0l492 1352h22l-491 -1352h-23z M1065 406q0 207 62.5 311t175.5 104q116 0 177.5 -103t61.5 -312t-61.5 -313.5t-177.5 -104.5q-113 0 -175.5 105t-62.5 313zM1087 406q0 -201 57 -299.5t159 -98.5q103 0 160 98.5t57 299.5t-57 298t-160 97q-102 0 -159 -97.5t-57 -297.5z" />
<glyph unicode="&#x26;" horiz-adv-x="1142" d="M100 309q0 64 17 118t58 107.5t84.5 96t119.5 108.5q-82 108 -123 189.5t-41 173.5q0 126 76.5 196t187.5 70q103 0 159 -63t56 -170q0 -53 -13.5 -95.5t-52.5 -92t-84.5 -92.5t-133.5 -120l18 -22l385 -492q102 180 66 453h213v-21h-189q33 -264 -76 -450l66 -84 q49 -62 79.5 -84.5t71.5 -22.5q22 0 60 6v-18q-32 -8 -62 -8q-50 0 -82.5 24t-85.5 90l-59 76q-64 -96 -160.5 -147t-212.5 -51q-153 0 -247.5 85t-94.5 240zM123 309q0 -147 88.5 -226t230.5 -79q111 0 204.5 50.5t154.5 146.5l-387 493q-1 2 -9 11.5t-12 15.5 q-62 -54 -94.5 -84t-72.5 -73.5t-58.5 -78t-31.5 -80t-13 -96.5zM238 1106q0 -86 41 -168.5t118 -183.5q78 65 118 101.5t82.5 86.5t59.5 97.5t17 103.5q0 92 -50 148.5t-143 56.5q-103 0 -173 -64.5t-70 -177.5z" />
<glyph unicode="'" horiz-adv-x="446" d="M213 1042v310h23v-310h-23z" />
<glyph unicode="(" horiz-adv-x="581" d="M174 567q0 313 79 547t200 387l14 -12q-118 -151 -194 -392.5t-76 -527.5q0 -287 76 -528.5t194 -392.5l-14 -13q-122 154 -200.5 387t-78.5 545z" />
<glyph unicode=")" horiz-adv-x="581" d="M115 -352q118 151 194 392.5t76 528.5q0 286 -76 527.5t-194 392.5l14 12q121 -153 200 -387t79 -547q0 -312 -78.5 -545t-200.5 -387z" />
<glyph unicode="*" horiz-adv-x="954" d="M137 1133v18h324l-160 281l14 8l162 -279l162 279l14 -8l-159 -281h323v-18h-323l159 -279l-14 -10l-162 280l-162 -280l-14 10l160 279h-324z" />
<glyph unicode="+" d="M121 567v21h389v395h20v-395h388v-21h-388v-397h-20v397h-389z" />
<glyph unicode="," horiz-adv-x="372" d="M117 -238q60 15 97.5 62.5t37.5 103.5q0 59 -35 90q0 -32 -33 -32q-32 0 -32 32q0 14 9 23.5t25 9.5q32 0 60 -34t28 -89q0 -65 -42 -118t-109 -68zM209 25l8 -7z" />
<glyph unicode="-" horiz-adv-x="507" d="M82 494v20h342v-20h-342z" />
<glyph unicode="." horiz-adv-x="372" d="M154 18q0 14 8.5 23.5t23.5 9.5t24 -9.5t9 -23.5q0 -32 -33 -32q-32 0 -32 32z" />
<glyph unicode="/" horiz-adv-x="827" d="M100 -74l605 1499h22l-604 -1499h-23z" />
<glyph unicode="0" horiz-adv-x="1028" d="M150 676q0 348 94 520t270 172t271.5 -172.5t95.5 -519.5q0 -346 -95.5 -519t-271.5 -173q-175 0 -269.5 172.5t-94.5 519.5zM172 676q0 -339 89 -505.5t253 -166.5t254 166.5t90 505.5q0 340 -89.5 506t-254.5 166q-164 0 -253 -166t-89 -506z" />
<glyph unicode="1" horiz-adv-x="851" d="M80 1225v18l342 109h22v-1332h320v-20h-676v20h334v1305z" />
<glyph unicode="2" horiz-adv-x="915" d="M119 0v18l430 588q94 129 137 224t43 198q0 158 -88.5 239t-232.5 81q-125 0 -242 -62v-252h-23v260q134 74 267 74q155 0 248.5 -88.5t93.5 -251.5q0 -109 -45.5 -207t-139.5 -227l-420 -574h609v224h20v-244h-657z" />
<glyph unicode="3" horiz-adv-x="860" d="M94 135l19 12q105 -143 280 -143q145 0 239.5 96t94.5 246q0 149 -93 247.5t-249 98.5h-90v21h31q171 0 261.5 92.5t90.5 243.5q0 143 -78.5 221t-214.5 78q-117 0 -242 -64v-250h-22v260q134 74 262 74q144 0 230.5 -84.5t86.5 -236.5q0 -133 -66 -222t-190 -118 q141 -19 223.5 -118t82.5 -243q0 -162 -103 -262t-258 -100q-187 0 -295 151z" />
<glyph unicode="4" horiz-adv-x="946" d="M53 291v18l578 1043h20h11v-1041h223v-20h-223v-271h182v-20h-422v20h217v271h-586zM82 311h557v1008v4q-1 -1 -2 -3t-2 -3z" />
<glyph unicode="5" horiz-adv-x="915" d="M145 135l17 12q112 -143 274 -143q154 0 249 108t95 283q0 167 -87 274t-226 107q-83 0 -150.5 -40.5t-105.5 -112.5h-18v729h548v-23h-528v-667q37 62 104.5 98.5t151.5 36.5q148 0 241 -112.5t93 -291.5q0 -188 -103 -298.5t-264 -110.5q-181 0 -291 151z" />
<glyph unicode="6" horiz-adv-x="968" d="M150 659q0 347 109 528t300 181q141 0 238 -104l-17 -13q-82 97 -219 97q-182 0 -285.5 -174t-103.5 -515q0 -119 12 -227q13 155 107.5 250.5t228.5 95.5q140 0 240 -107.5t100 -289.5q0 -178 -95 -287.5t-239 -109.5q-124 0 -208.5 80t-120.5 198q-47 146 -47 397z M203 391q0 -103 40.5 -191.5t115.5 -142t167 -53.5q130 0 221 101.5t91 275.5q0 173 -92 275t-224 102q-135 0 -227 -104.5t-92 -262.5z" />
<glyph unicode="7" horiz-adv-x="866" d="M98 1040v312h711v-19l-528 -1333h-25l530 1331h-665v-291h-23z" />
<glyph unicode="8" horiz-adv-x="921" d="M113 342q0 138 76 235.5t204 120.5q-116 22 -187 111t-71 225q0 107 48 184.5t120.5 113.5t157.5 36q134 0 229.5 -88t95.5 -246q0 -136 -70.5 -225t-185.5 -111q128 -23 204.5 -121t76.5 -235q0 -162 -104 -260t-246 -98t-245 98t-103 260zM135 342q0 -151 94.5 -244.5 t231.5 -93.5q136 0 231.5 93.5t95.5 244.5q0 149 -91.5 247.5t-235.5 98.5q-143 0 -234.5 -98.5t-91.5 -247.5zM156 1032q0 -146 88 -234.5t217 -88.5q130 0 216.5 88t86.5 235t-88 231.5t-215 84.5t-216 -84.5t-89 -231.5z" />
<glyph unicode="9" horiz-adv-x="968" d="M111 971q0 178 94.5 287.5t238.5 109.5q123 0 207.5 -81t122.5 -200q45 -145 45 -395q0 -348 -109 -528t-300 -180q-143 0 -236 104l14 12q81 -96 220 -96q182 0 285.5 173.5t103.5 514.5q0 135 -13 226q-13 -154 -107.5 -250.5t-227.5 -96.5q-139 0 -238.5 108 t-99.5 292zM133 971q0 -173 91.5 -276t221.5 -103q135 0 227.5 105.5t92.5 263.5q0 159 -92 273t-230 114q-130 0 -220.5 -101.5t-90.5 -275.5z" />
<glyph unicode=":" horiz-adv-x="372" d="M154 18q0 14 8.5 23.5t23.5 9.5t24 -9.5t9 -23.5q0 -32 -33 -32q-32 0 -32 32zM154 901q0 14 8.5 23.5t23.5 9.5t24 -9.5t9 -23.5q0 -15 -9 -25t-24 -10t-23.5 10t-8.5 25z" />
<glyph unicode=";" horiz-adv-x="372" d="M117 -238q60 15 97.5 62.5t37.5 103.5q0 59 -35 90q0 -32 -33 -32q-32 0 -32 32q0 14 9 23.5t25 9.5q32 0 60 -34t28 -89q0 -65 -42 -118t-109 -68zM154 901q0 14 8.5 23.5t23.5 9.5t24 -9.5t9 -23.5q0 -15 -9 -25t-24 -10t-23.5 10t-8.5 25zM209 25l8 -7z" />
<glyph unicode="&#x3c;" d="M115 569v19l778 325v-20l-748 -315l748 -316v-20z" />
<glyph unicode="=" d="M139 379v20h760v-20h-760zM139 754v20h760v-20h-760z" />
<glyph unicode="&#x3e;" d="M147 242v20l746 316l-746 315v20l777 -325v-19z" />
<glyph unicode="?" horiz-adv-x="815" d="M137 973v319q129 76 273 76q140 0 231.5 -82t91.5 -225q0 -48 -13 -92.5t-29.5 -77t-52 -75t-59 -66.5t-73.5 -72q-100 -95 -134 -165t-34 -191v-66h-23v66q0 125 33.5 196t138.5 174q99 94 130 132q94 114 94 239q0 133 -85.5 209t-215.5 76q-61 0 -129 -18t-121 -50 v-307h-23zM295 18q0 14 9 23.5t24 9.5t24.5 -9.5t9.5 -23.5q0 -15 -9.5 -23.5t-24.5 -8.5q-33 0 -33 32z" />
<glyph unicode="@" horiz-adv-x="1667" d="M135 465q0 163 56.5 305t155 242t235.5 157.5t292 57.5q203 0 359 -94t237.5 -252t81.5 -353q0 -215 -96.5 -340t-241.5 -125q-82 0 -124.5 42.5t-42.5 115.5v31q-14 -82 -75.5 -135.5t-162.5 -53.5q-94 0 -153.5 49.5t-59.5 143.5q0 104 74.5 153.5t197.5 49.5h179v151 q0 114 -54 173t-147 59q-128 0 -201 -113l-14 10q31 55 87.5 89t129.5 34q99 0 159 -64t60 -186v-389q0 -67 38 -103t112 -36q136 0 224.5 119t88.5 325q0 142 -46 266t-129 215.5t-206.5 144t-271.5 52.5q-204 0 -368 -94.5t-257.5 -263.5t-93.5 -381q0 -165 59 -305.5 t158 -234t229.5 -145.5t274.5 -52q70 0 168 16v-18q-81 -19 -166 -19q-150 0 -285.5 54t-238 150t-162.5 239.5t-60 312.5zM618 256q0 -84 51 -128t140 -44q117 0 177.5 78.5t60.5 216.5v59h-177q-116 0 -184 -44t-68 -138z" />
<glyph unicode="A" horiz-adv-x="1216" d="M23 0v20h153l420 1332h27l419 -1332h152v-20h-389v20h215l-141 449h-539l-141 -449h215v-20h-391zM346 489h526l-258 818l-6 20q0 -4 -6 -22z" />
<glyph unicode="B" horiz-adv-x="1112" d="M92 0v20h211v1311h-211v21h486q177 0 274.5 -87t97.5 -245q0 -134 -70 -216t-194 -106q148 -19 231.5 -108.5t83.5 -239.5q0 -166 -101.5 -256.5t-283.5 -93.5h-524zM326 20h276q181 0 279 86.5t98 243.5q0 161 -100.5 247.5t-276.5 86.5h-276v-664zM326 705h245 q167 0 262 81.5t95 233.5q0 148 -93.5 229.5t-263.5 81.5h-245v-626z" />
<glyph unicode="C" horiz-adv-x="993" d="M135 678q0 181 35 317t98 216t143.5 118.5t178.5 38.5q148 0 274 -76v-319h-22v309q-116 66 -252 66q-93 0 -168.5 -36.5t-136 -113t-94 -208.5t-33.5 -310q0 -333 113.5 -504.5t297.5 -171.5q188 0 314 176l18 -12q-65 -85 -143.5 -134.5t-188.5 -49.5 q-196 0 -315 175.5t-119 518.5z" />
<glyph unicode="D" horiz-adv-x="1167" d="M92 0v20h211v1311h-211v21h410q115 0 209 -39t166.5 -118.5t112.5 -211.5t40 -307q0 -174 -40 -306t-112.5 -211.5t-166.5 -119t-209 -39.5h-410zM326 20h170q236 0 374 163t138 493q0 331 -137.5 493t-374.5 162h-170v-1311z" />
<glyph unicode="E" horiz-adv-x="1087" d="M92 0v20h211v1311h-211v21h832v-318h-23v297h-575v-624h395v-21h-395v-666h600v316h22v-336h-856z" />
<glyph unicode="F" d="M92 0v20h211v1311h-211v21h823v-318h-22v297h-567v-637h393v-20h-393v-654h252v-20h-486z" />
<glyph unicode="G" horiz-adv-x="1124" d="M135 674q0 148 23.5 265.5t65 197t100.5 132t127 76t147 23.5q153 0 283 -76v-319h-21v307q-115 68 -262 68q-96 0 -173.5 -36.5t-138.5 -114t-94.5 -210t-33.5 -311.5q0 -145 22.5 -260t62 -191t94.5 -126.5t116.5 -72.5t132.5 -22q140 0 274 76v469h-262v20h444v-20 h-161v-479q-138 -86 -295 -86q-98 0 -177.5 38.5t-142 118.5t-97 216t-34.5 317z" />
<glyph unicode="H" horiz-adv-x="1355" d="M92 0v20h211v1311h-211v21h449v-21h-215v-624h704v624h-213v21h447v-21h-211v-1311h211v-20h-447v20h213v666h-704v-666h215v-20h-449z" />
<glyph unicode="I" horiz-adv-x="630" d="M92 0v20h211v1311h-211v21h447v-21h-213v-1311h213v-20h-447z" />
<glyph unicode="J" horiz-adv-x="624" d="M-68 -362q78 0 141.5 20.5t116 64.5t82 123t29.5 187v1298h-260v21h491v-21h-208v-1298q0 -111 -29.5 -192.5t-83.5 -129.5t-123.5 -71t-155.5 -23v21z" />
<glyph unicode="K" horiz-adv-x="1230" d="M92 0v20h211v1311h-211v21h447v-21h-213v-1311h213v-20h-447zM391 694l606 637h-258v21h449v-21h-164l-604 -635l612 -676h193v-20h-449v20h230z" />
<glyph unicode="L" horiz-adv-x="1003" d="M92 0v20h211v1311h-211v21h504v-21h-270v-1311h581v316h23v-336h-838z" />
<glyph unicode="M" horiz-adv-x="1572" d="M92 0v20h211v1311h-211v21h238h10l440 -1307l8 -22q2 4 5 11.5t4 10.5l436 1307h16h232v-21h-211v-1311h211v-20h-426v20h192v1311q-4 -12 -8 -20l-438 -1311h-27l-444 1311l-6 16v-1307h196v-20h-428z" />
<glyph unicode="N" horiz-adv-x="1353" d="M92 0v20h211v1311h-211v21h248l682 -1305q1 -4 8 -18v1302h-215v21h447v-21h-211v-1331h-29l-688 1311q-7 10 -10 20v-1311h215v-20h-447z" />
<glyph unicode="O" horiz-adv-x="1101" d="M135 676q0 180 31.5 315.5t88.5 216.5t131 120.5t165 39.5q73 0 134.5 -24t114 -77.5t88.5 -133.5t56.5 -196t20.5 -261q0 -351 -112.5 -521.5t-301.5 -170.5q-188 0 -302 171t-114 521zM158 676q0 -173 29.5 -304t83.5 -210t124 -118.5t156 -39.5q179 0 286 166.5 t107 505.5q0 340 -107 506t-286 166q-178 0 -285.5 -166t-107.5 -506z" />
<glyph unicode="P" horiz-adv-x="1069" d="M92 1331v21h488q193 0 300 -95.5t107 -267.5t-106 -266t-301 -94h-252v-604h262v-21h-496v21h211v1306h-213zM328 649h243q188 0 291 89.5t103 250.5q0 162 -103.5 252t-290.5 90h-243v-682z" />
<glyph unicode="Q" horiz-adv-x="1101" d="M135 676q0 180 31.5 315.5t88.5 216.5t131 120.5t165 39.5q73 0 134.5 -24t114 -77.5t88.5 -133.5t56.5 -196t20.5 -261q0 -310 -88 -479.5t-242 -204.5q139 -134 232.5 -193t189.5 -59q54 0 100 14v-18q-44 -17 -102 -17q-102 0 -203 65t-240 204q-40 -4 -61 -4 q-188 0 -302 171t-114 521zM158 676q0 -173 29.5 -304t83.5 -210t124 -118.5t156 -39.5q179 0 286 166.5t107 505.5q0 340 -107 506t-286 166q-178 0 -285.5 -166t-107.5 -506z" />
<glyph unicode="R" horiz-adv-x="1177" d="M92 1329v21h488q193 0 300 -93t107 -258q0 -157 -94.5 -247t-267.5 -101l305 -514q41 -67 77 -96t85 -29q24 0 67 6v-18q-36 -8 -69 -8q-56 0 -97 31.5t-86 107.5l-307 518h-20h-250v-624h241v-21h-477v21h213v1304h-215zM330 670h241q188 0 291 87t103 242t-103.5 242.5 t-290.5 87.5h-241v-659z" />
<glyph unicode="S" horiz-adv-x="954" d="M133 59v320h23v-309q120 -66 288 -66q77 0 142 18t118 54.5t83 99.5t30 146q0 68 -19 120.5t-59.5 92t-82 66t-107.5 58.5l-117 58q-65 33 -111 64.5t-85.5 74t-59.5 95.5t-20 118q0 148 96 224.5t254 76.5q154 0 280 -76v-319h-22v309q-122 66 -260 66 q-147 0 -236.5 -73t-89.5 -206q0 -62 20.5 -114.5t60 -92.5t84 -70t103.5 -59l119 -59q54 -27 90 -48t74 -52.5t60.5 -65t36.5 -81t14 -105.5q0 -89 -31.5 -156t-87.5 -106t-126 -58.5t-153 -19.5q-180 0 -309 75z" />
<glyph unicode="T" horiz-adv-x="1026" d="M72 1034v318h882v-318h-22v297h-406v-1311h265v-20h-553v20h266v1311h-410v-297h-22z" />
<glyph unicode="U" horiz-adv-x="1323" d="M76 1331v21h448v-21h-213v-948q0 -185 95.5 -282t257.5 -97t256 96.5t94 282.5v948h-215v21h448v-21h-213v-954q0 -187 -100 -290t-270 -103q-171 0 -273 103t-102 290v954h-213z" />
<glyph unicode="V" horiz-adv-x="1249" d="M23 1331v21h428v-21h-234l399 -1286l9 -27q1 3 4 13t4 16l397 1284h-233v21h430v-21h-174l-416 -1331h-27l-415 1331h-172z" />
<glyph unicode="W" horiz-adv-x="1851" d="M37 1331v21h430v-21h-236l338 -1280q0 -6 2 -14l4 14l336 1301h27l334 -1301q2 -6 2 -14l4 14l340 1280h-236v21h430v-21h-172l-354 -1331h-20l-340 1307l-2 8l-2 -8l-340 -1307h-21l-352 1331h-172z" />
<glyph unicode="X" horiz-adv-x="1288" d="M53 0v23h170l406 684l-371 624h-170v21h430v-21h-233l358 -604l365 604h-240v21h430v-21h-166l-377 -626l406 -682h172v-23h-428v23h229l-393 661l-393 -661h235v-23h-430z" />
<glyph unicode="Y" horiz-adv-x="1236" d="M18 1331v21h416v-21h-229l405 -721q2 -2 8 -14l9 14l405 721h-227v21h414v-21h-162l-426 -753v-558h264v-20h-551v20h264v553l-426 758h-164z" />
<glyph unicode="Z" horiz-adv-x="1050" d="M137 0v16l713 1315h-653v-297h-21v318h698v-19l-712 -1315h729v318h22v-336h-776z" />
<glyph unicode="[" horiz-adv-x="581" d="M219 -354v1845h299v-21h-276v-1804h276v-20h-299z" />
<glyph unicode="\" horiz-adv-x="827" d="M100 1425h23l604 -1499h-22z" />
<glyph unicode="]" horiz-adv-x="581" d="M63 -334h277v1804h-277v21h299v-1845h-299v20z" />
<glyph unicode="^" horiz-adv-x="935" d="M94 776l365 592h18l363 -592h-23l-350 567l-350 -567h-23z" />
<glyph unicode="_" horiz-adv-x="931" d="M82 -186h768v-21h-768v21z" />
<glyph unicode="`" horiz-adv-x="350" d="M55 1430q0 6 8 6h13l219 -357h-23l-202 326q-15 20 -15 25z" />
<glyph unicode="a" horiz-adv-x="851" d="M94 229q0 126 85 187t227 61h204v166q0 131 -62.5 200.5t-170.5 69.5q-147 0 -230 -133l-14 13q34 62 98.5 101.5t149.5 39.5q112 0 181 -72.5t69 -212.5v-483q0 -154 125 -154q27 0 57 6v-18q-28 -8 -65 -8q-66 0 -102 44t-36 130v35q-16 -95 -87.5 -156t-180.5 -61 t-178.5 64.5t-69.5 180.5zM115 229q0 -104 62 -164.5t167 -60.5q127 0 196.5 88.5t69.5 235.5v129h-202q-135 0 -214 -55.5t-79 -172.5z" />
<glyph unicode="b" horiz-adv-x="987" d="M72 0v20h184v1385h-184v20h207v-768q21 132 91.5 204.5t184.5 72.5q144 0 231.5 -117t87.5 -358t-87.5 -358t-231.5 -117q-114 0 -184 71.5t-92 202.5v-258h-207zM279 459q0 -455 278 -455q133 0 214 112t81 343t-81 342.5t-214 111.5q-58 0 -104.5 -21t-87.5 -70 t-63.5 -141t-22.5 -222z" />
<glyph unicode="c" horiz-adv-x="761" d="M115 459q0 241 91.5 358t242.5 117q115 0 200 -55v-230h-22v219q-74 45 -178 45q-66 0 -121 -25.5t-99 -78t-69 -142t-25 -208.5q0 -229 81.5 -342t211.5 -113q74 0 133.5 36.5t93.5 94.5l19 -14q-91 -137 -244 -137q-142 0 -228.5 119t-86.5 356z" />
<glyph unicode="d" horiz-adv-x="954" d="M115 459q0 242 86.5 358.5t230.5 116.5q115 0 186 -72t93 -205v748h-183v20h205v-1259q0 -154 123 -154q24 0 59 6v-18q-28 -8 -63 -8q-67 0 -104 44t-37 130v92q-22 -131 -93 -202.5t-186 -71.5q-144 0 -230.5 116.5t-86.5 358.5zM135 459q0 -231 81.5 -343t215.5 -112 q279 0 279 455q0 130 -23 222t-64 141t-88 70t-104 21q-135 0 -216 -111.5t-81 -342.5z" />
<glyph unicode="e" horiz-adv-x="808" d="M115 463q0 236 80 353.5t208 117.5q119 0 198 -97.5t79 -287.5q0 -38 -4 -78h-541v-8q0 -233 81 -346t212 -113q74 0 132.5 36t94.5 95l19 -14q-88 -137 -244 -137q-143 0 -229 118.5t-86 360.5zM135 492h520q2 20 2 59q0 183 -73 272.5t-181 89.5q-113 0 -187.5 -104 t-80.5 -317z" />
<glyph unicode="f" horiz-adv-x="581" d="M72 0v20h184v877h-184v21h184v231q0 154 61 223.5t191 69.5q66 0 113 -17v-20q-47 16 -113 16q-122 0 -175.5 -65.5t-53.5 -206.5v-231h276v-21h-276v-877h256v-20h-463z" />
<glyph unicode="g" horiz-adv-x="829" d="M78 -143q0 40 12 70.5t36.5 53t49 36.5t62.5 30q-66 35 -66 107q0 55 38.5 87.5t94.5 34.5q-79 31 -127.5 114t-48.5 210q0 165 77 248.5t197 83.5q50 0 91 -14h88q120 0 120 102q0 21 -8 53h25q6 -30 6 -53q0 -123 -143 -123h-47q139 -71 139 -297q0 -165 -78 -253.5 t-195 -88.5h-90q-48 0 -82 -26.5t-34 -75.5q0 -53 38 -81t105 -28h192q240 0 240 -182q0 -120 -97 -183t-251 -63q-158 0 -251 63t-93 175zM98 -143q0 -97 86 -157t240 -60q148 0 236 57t88 170q0 83 -52 121.5t-166 38.5h-192q-36 0 -74 10q-82 -31 -124 -72t-42 -108z M152 600q0 -156 69 -237.5t180 -81.5q110 0 181 81.5t71 237.5q0 155 -70.5 233t-181.5 78q-112 0 -180.5 -77.5t-68.5 -233.5z" />
<glyph unicode="h" horiz-adv-x="1024" d="M72 0v20h184v1385h-184v20h207v-710q11 90 80 154.5t182 64.5q118 0 189 -76.5t71 -226.5v-611h182v-20h-369v20h164v605q0 139 -63 213.5t-176 74.5q-125 0 -192.5 -89t-67.5 -234v-570h163v-20h-370z" />
<glyph unicode="i" horiz-adv-x="481" d="M72 0v20h184v877h-184v21h207v-898h163v-20h-370zM225 1251q0 12 10 21.5t23 9.5t22 -9.5t9 -21.5q0 -14 -9 -23t-22 -9q-14 0 -23.5 9.5t-9.5 22.5z" />
<glyph unicode="j" horiz-adv-x="452" d="M-16 -342q46 -8 82 -8q74 0 123 46t49 140v1061h-185v21h205v-1082q0 -102 -53.5 -154.5t-138.5 -52.5q-40 0 -82 11v18zM207 1251q0 12 10 21.5t23 9.5t21.5 -9.5t8.5 -21.5q0 -14 -8.5 -23t-21.5 -9q-14 0 -23.5 9.5t-9.5 22.5z" />
<glyph unicode="k" horiz-adv-x="937" d="M72 0v20h184v1385h-184v20h207v-1405h143v-20h-350zM334 485l389 412h-160v21h311v-21h-124l-388 -412l306 -366q52 -63 82.5 -85t72.5 -22q25 0 60 6v-18q-32 -8 -64 -8q-50 0 -82 23.5t-88 90.5z" />
<glyph unicode="l" horiz-adv-x="479" d="M33 1405v20h205v-1259q0 -81 33.5 -117.5t103.5 -36.5q32 0 69 6v-18q-31 -8 -71 -8q-79 0 -117.5 42t-38.5 132v1239h-184z" />
<glyph unicode="m" horiz-adv-x="1546" d="M72 0v20h184v877h-184v21h207v-220q5 43 24.5 83.5t50.5 75t80 56t107 21.5q102 0 172.5 -63.5t83.5 -186.5q16 106 86 178t184 72q116 0 188 -79t72 -228v-607h180v-20h-364v20h162v601q0 140 -64.5 216t-173.5 76q-126 0 -196 -96t-70 -248v-549h182v-20h-369v20h164 v601q0 140 -63 216t-172 76q-86 0 -147 -47.5t-89 -123t-28 -171.5v-551h163v-20h-370z" />
<glyph unicode="n" horiz-adv-x="1024" d="M72 0v20h184v877h-184v21h207v-222q13 97 82.5 167.5t183.5 70.5t185 -76.5t71 -226.5v-611h182v-20h-369v20h164v605q0 140 -62.5 214t-170.5 74q-129 0 -197.5 -98t-68.5 -246v-549h163v-20h-370z" />
<glyph unicode="o" horiz-adv-x="860" d="M115 459q0 240 86 357.5t229 117.5q142 0 228.5 -118t86.5 -357q0 -238 -86.5 -356.5t-228.5 -118.5q-143 0 -229 118.5t-86 356.5zM135 459q0 -231 81.5 -343t213.5 -112q129 0 211 112.5t82 342.5t-81.5 342t-211.5 112q-132 0 -213.5 -111.5t-81.5 -342.5z" />
<glyph unicode="p" horiz-adv-x="954" d="M39 -342h182v1239h-182v21h205v-259q24 132 93.5 203.5t184.5 71.5q144 0 231 -117t87 -358t-87 -358t-231 -117q-115 0 -185.5 71.5t-92.5 202.5v-600h200v-20h-405v20zM244 459q0 -130 23 -222.5t64 -141.5t88 -70t105 -21q133 0 213 112t80 343t-80 342.5t-213 111.5 q-58 0 -105 -21t-88 -70t-64 -141t-23 -222z" />
<glyph unicode="q" horiz-adv-x="954" d="M115 459q0 242 86.5 358.5t230.5 116.5q115 0 186 -72t93 -203v259h204v-21h-182v-1239h182v-20h-405v20h201v600q-22 -131 -93 -202.5t-186 -71.5q-144 0 -230.5 116.5t-86.5 358.5zM135 459q0 -231 81.5 -343t215.5 -112q45 0 83.5 12t75.5 44t63 82t41.5 131t15.5 186 q0 130 -23 222t-64 141t-88 70t-104 21q-135 0 -216 -111.5t-81 -342.5z" />
<glyph unicode="r" horiz-adv-x="681" d="M72 0v20h178v877h-178v21h200v-250q10 97 97.5 176.5t208.5 79.5q11 0 26.5 -1t20.5 -1v-21h-41q-138 0 -225 -99.5t-87 -256.5v-525h250v-20h-450z" />
<glyph unicode="s" horiz-adv-x="772" d="M129 39v211h23v-201q95 -45 213 -45q53 0 99 11.5t84.5 36t60.5 67t22 98.5q0 86 -49 137t-140 90l-88 41q-102 44 -154.5 96.5t-52.5 139.5q0 102 71.5 157.5t184.5 55.5t211 -55v-211h-22v200q-86 45 -189 45q-105 0 -169 -49t-64 -141q0 -79 48 -127.5t140 -89.5 l86 -39q107 -47 158 -100t51 -148q0 -61 -23 -107.5t-63.5 -73.5t-91 -40.5t-110.5 -13.5q-131 0 -236 55z" />
<glyph unicode="t" horiz-adv-x="634" d="M39 897v21h182l2 280h21v-280h325v-21h-325v-629q0 -134 51.5 -195t169.5 -61q58 0 125 13v-19q-55 -14 -127 -14q-126 0 -184 65t-58 211v629h-182z" />
<glyph unicode="u" horiz-adv-x="989" d="M39 897v21h205v-625q0 -139 64 -214t171 -75q86 0 147.5 47.5t90 123.5t28.5 171v551h-180v21h203v-752q0 -154 123 -154q25 0 59 6v-18q-28 -8 -65 -8q-66 0 -103 44t-37 130v53q-13 -95 -82.5 -165t-183.5 -70t-186 76.5t-72 226.5v610h-182z" />
<glyph unicode="v" horiz-adv-x="894" d="M20 897v21h318v-21h-180l286 -852q0 -3 5 -18l6 18l280 852h-178v21h317v-21h-114l-301 -897h-21l-303 897h-115z" />
<glyph unicode="w" horiz-adv-x="1433" d="M23 897v21h317v-21h-180l262 -858q2 -6 2 -12l4 12l264 879h21l270 -879q0 -6 2 -12l4 12l258 858h-133v21h297v-21h-141l-275 -897h-22l-266 872l-5 11q-2 -5 -2 -5.5t-2 -5.5l-264 -872h-22l-275 897h-114z" />
<glyph unicode="x" horiz-adv-x="1013" d="M53 0v20h133l308 459l-277 418h-137v21h344v-21h-180l264 -399l266 399h-184v21h342v-21h-137l-275 -416l307 -461h134v-20h-338v20h176l-293 445l-293 -445h178v-20h-338z" />
<glyph unicode="y" horiz-adv-x="894" d="M20 897v21h318v-21h-180l286 -866q0 -2 5 -17q0 5 4 17l282 866h-178v21h317v-21h-114l-361 -1098q-29 -88 -76 -129t-118 -41q-38 0 -80 11v18q46 -8 80 -8q62 0 104.5 38t71.5 119l57 175l-303 915h-115z" />
<glyph unicode="z" horiz-adv-x="774" d="M98 0v18l523 879h-474v-209h-22v230h522v-19l-522 -879h528v230h21v-250h-576z" />
<glyph unicode="{" horiz-adv-x="657" d="M27 578v16v4h12q48 0 81.5 3.5t69.5 17t57.5 36.5t35.5 64t14 98v377q0 87 22 147t63.5 92t90 45t111.5 13h10v-21q-61 0 -107 -12t-86 -41t-61 -85.5t-21 -137.5v-377q0 -112 -46.5 -164t-131.5 -65q84 -12 131 -64t47 -164v-417q0 -81 21 -137.5t61 -86t86 -41.5 t107 -12v-20h-10q-63 0 -111.5 13t-90 45t-63.5 92t-22 147v417q0 57 -14 97.5t-35.5 63.5t-57 36t-69.5 17t-82 4h-12z" />
<glyph unicode="|" horiz-adv-x="528" d="M254 -190v1691h20v-1691h-20z" />
<glyph unicode="}" horiz-adv-x="657" d="M63 -334q61 0 108 12t87 41.5t61 86t21 137.5v417q0 112 46.5 164t129.5 64q-83 13 -129.5 65t-46.5 164v377q0 66 -14.5 115t-39 79.5t-61 49t-75 25.5t-87.5 7v21h11q63 0 111.5 -13t90 -45t64 -92t22.5 -147v-377q0 -57 13.5 -98t35 -64t57 -36.5t69 -17t81.5 -3.5h13 v-16v-4h-13q-60 0 -100.5 -7t-79 -28.5t-57.5 -67t-19 -115.5v-417q0 -87 -22.5 -147t-64 -92t-90 -45t-111.5 -13h-11v20z" />
<glyph unicode="~" d="M125 522q15 71 64.5 114.5t119.5 43.5q34 0 71 -13t56 -24t56 -35l77 -49q34 -22 51.5 -31.5t49.5 -20.5t63 -11q63 0 106 39t58 104l18 -6q-15 -71 -64.5 -114.5t-119.5 -43.5q-35 0 -71.5 13t-55.5 24.5t-55 36.5l-78 47q-46 31 -82.5 47t-81.5 16q-64 0 -106 -39 t-58 -104z" />
<glyph unicode="&#xa1;" horiz-adv-x="544" d="M238 901q0 14 9.5 23.5t24.5 9.5t24 -9.5t9 -23.5q0 -15 -9 -25t-24 -10t-24.5 10t-9.5 25zM260 -362l2 1026h19l2 -1026h-23z" />
<glyph unicode="&#xa2;" d="M238 616q0 227 83 345t220 129v282h22v-280h10q115 0 201 -56v-229h-22v221q-76 43 -179 43q-138 0 -225.5 -111.5t-87.5 -343.5q0 -228 81.5 -341t211.5 -113q74 0 133.5 36.5t93.5 94.5l17 -12q-84 -137 -234 -140v-278h-22v278q-138 6 -220.5 125t-82.5 350z" />
<glyph unicode="&#xa3;" d="M147 494v20h281q-21 51 -74 139t-85.5 165t-32.5 155q0 131 87.5 207.5t225.5 76.5q140 0 213.5 -77.5t93.5 -196.5l-20 -2q-9 50 -28 92.5t-51 81t-85.5 60.5t-122.5 22q-128 0 -209.5 -70.5t-81.5 -193.5q0 -76 33.5 -152.5t86.5 -163.5t75 -143h276v-20h-268 q26 -73 26 -142q0 -113 -63.5 -199.5t-177.5 -129.5h626v231h23v-254h-692v20q129 52 195.5 136.5t66.5 193.5q0 72 -29 144h-289z" />
<glyph unicode="&#xa4;" d="M78 260l205 205q-84 90 -84 227q0 135 82 223l-203 203l16 15l201 -203q90 90 227 90q132 0 226 -88l200 201l15 -15l-201 -203q82 -88 82 -223q0 -133 -84 -227l203 -205l-15 -14l-203 203q-93 -87 -223 -87q-136 0 -225 89l-203 -205zM221 692q0 -136 87 -222.5 t214 -86.5t213 86.5t86 222.5t-86 221.5t-213 85.5t-214 -86t-87 -221z" />
<glyph unicode="&#xa5;" d="M39 1221v20h352v-20h-209l330 -607l8 -14q4 8 8 14l330 607h-207v20h350v-20h-116l-353 -641h371v-21h-373v-254h373v-20h-373v-265h267v-20h-551v20h262v265h-373v20h373v254h-373v21h373l-350 641h-119z" />
<glyph unicode="&#xa6;" horiz-adv-x="528" d="M254 -190v563h20v-563h-20zM254 938v563h20v-563h-20z" />
<glyph unicode="&#xa7;" horiz-adv-x="966" d="M115 684q0 57 17.5 104t52.5 82t62.5 55t71.5 46q-94 81 -94 194q0 115 81 176.5t206 61.5q150 0 264 -68v-286h-20v276q-103 57 -242 57q-121 0 -193.5 -57t-72.5 -158q0 -51 18.5 -93t54.5 -74.5t73.5 -56t90.5 -48.5l107 -53q127 -60 194.5 -135.5t67.5 -182.5 q0 -57 -18 -104t-53.5 -82t-63.5 -55t-72 -45q94 -81 94 -195q0 -115 -80.5 -177.5t-205.5 -62.5q-69 0 -140.5 18t-124.5 50v287h23v-277q108 -57 240 -57q120 0 193 58t73 159q0 51 -18.5 93t-54 74.5t-73 56t-90.5 48.5l-108 52q-128 62 -194 136t-66 183zM135 686 q0 -105 67 -176.5t189 -126.5l103 -51q94 -46 139 -82q35 21 55.5 34.5t51 40.5t48 52.5t30.5 63.5t13 81q0 104 -66 173.5t-190 129.5l-102 52q-91 44 -139 81q-44 -27 -70 -45.5t-60.5 -52.5t-51.5 -77.5t-17 -96.5z" />
<glyph unicode="&#xa8;" horiz-adv-x="466" d="M55 1257q0 12 10.5 21.5t22.5 9.5q11 0 20 -9.5t9 -21.5q0 -13 -9 -21.5t-20 -8.5q-13 0 -23 8.5t-10 21.5zM350 1257q0 13 9 22t24 9q12 0 20.5 -9.5t8.5 -21.5q0 -13 -8.5 -21.5t-20.5 -8.5q-15 0 -24 8t-9 22z" />
<glyph unicode="&#xa9;" horiz-adv-x="1660" d="M135 678q0 188 93 347t253.5 252t349.5 93q187 0 347 -93t253 -252.5t93 -346.5t-93 -347t-253 -253.5t-347 -93.5q-189 0 -349.5 93.5t-253.5 253t-93 347.5zM158 678q0 -184 90.5 -339.5t245 -245t337.5 -89.5q136 0 260 53t214 143t143 215t53 263q0 183 -90 338 t-244 244.5t-336 89.5q-137 0 -261.5 -53t-214.5 -142.5t-143.5 -214.5t-53.5 -262zM608 684q0 167 67 247.5t187 80.5q90 0 148 -39v-168h-21v162q-51 26 -127 26q-231 0 -231 -307q0 -156 57.5 -235.5t161.5 -79.5q100 0 166 84l12 -13q-67 -92 -178 -92 q-115 0 -178.5 85.5t-63.5 248.5z" />
<glyph unicode="&#xaa;" horiz-adv-x="559" d="M68 461v20h440v-20h-440zM96 834q0 76 51 112.5t138 36.5h118v100q0 77 -35.5 115.5t-99.5 38.5q-85 0 -135 -74l-16 11q53 83 155 83q70 0 112 -43.5t42 -128.5v-299q0 -81 70 -81q18 0 34 2v-19q-16 -4 -38 -4q-40 0 -63 24.5t-23 73.5v23q-9 -55 -51.5 -88t-104.5 -33 q-69 0 -111.5 40.5t-42.5 109.5zM119 836q0 -60 35 -95.5t96 -35.5q73 0 113 50.5t40 135.5v72h-116q-168 0 -168 -127z" />
<glyph unicode="&#xab;" horiz-adv-x="802" d="M109 506l241 315l17 -12l-228 -303l228 -305l-17 -13zM408 506l241 315l17 -12l-228 -303l228 -305l-17 -13z" />
<glyph unicode="&#xac;" d="M121 567v21h723v-422h-21v401h-702z" />
<glyph unicode="&#xad;" horiz-adv-x="507" d="M82 494v20h342v-20h-342z" />
<glyph unicode="&#xae;" horiz-adv-x="1107" d="M111 1001q0 183 129.5 313t312.5 130t313.5 -130t130.5 -313q0 -184 -130.5 -314t-313.5 -130t-312.5 130t-129.5 314zM133 1001q0 -174 123.5 -298.5t296.5 -124.5t297.5 125t124.5 298t-124.5 297.5t-297.5 124.5t-296.5 -124.5t-123.5 -297.5zM395 801v20h64v365h-64 v20h156q59 0 92 -27.5t33 -80.5q0 -91 -92 -107l84 -143q16 -31 49 -31h18v-18q-10 -2 -22 -2q-42 0 -66 43l-88 149h-8h-70v-168h66v-20h-152zM481 1010h70q52 0 77 24t25 64q0 88 -104 88h-68v-176z" />
<glyph unicode="&#xaf;" horiz-adv-x="442" d="M55 1229v20h330v-20h-330z" />
<glyph unicode="&#xb0;" horiz-adv-x="626" d="M94 1194q0 93 64.5 154t154.5 61t153.5 -61t63.5 -154q0 -94 -63.5 -155.5t-153.5 -61.5t-154.5 62t-64.5 155zM117 1194q0 -88 56.5 -142.5t139.5 -54.5t139 54.5t56 142.5q0 89 -55.5 142t-139.5 53t-140 -53t-56 -142z" />
<glyph unicode="&#xb1;" d="M139 0v20h760v-20h-760zM139 594v20h371v312h20v-312h369v-20h-369v-313h-20v313h-371z" />
<glyph unicode="&#xb2;" horiz-adv-x="614" d="M86 774v19l274 346q60 75 87.5 130.5t27.5 116.5q0 92 -56.5 140.5t-144.5 48.5q-86 0 -151 -35v-205h-23v213q82 47 179 47q98 0 158.5 -54.5t60.5 -154.5q0 -66 -29.5 -125.5t-89.5 -134.5l-260 -329h397v-23h-430z" />
<glyph unicode="&#xb3;" horiz-adv-x="583" d="M68 856l14 12q70 -84 184 -84q94 0 154.5 55t60.5 144q0 86 -59 143.5t-160 57.5h-63v20h22q113 0 171.5 53.5t58.5 141.5q0 81 -50 128.5t-139 47.5q-74 0 -153 -35v-168h-23v178q82 45 176 45q98 0 154.5 -53.5t56.5 -144.5q0 -75 -41 -127t-119 -72 q90 -13 140.5 -70.5t50.5 -142.5q0 -102 -67.5 -162.5t-170.5 -60.5q-125 0 -198 94z" />
<glyph unicode="&#xb4;" horiz-adv-x="350" d="M55 1079l219 357h13q8 0 8 -6t-14 -25l-203 -326h-23z" />
<glyph unicode="&#xb5;" horiz-adv-x="942" d="M195 0v918h22v-625q0 -140 61 -214.5t166 -74.5q124 0 191 97.5t67 244.5v572h23v-752q0 -154 119 -154q27 0 57 6v-18q-28 -8 -61 -8q-65 0 -101.5 44t-36.5 130v53q-13 -96 -81 -165.5t-179 -69.5q-171 0 -225 168v-514h-22v362z" />
<glyph unicode="&#xb6;" horiz-adv-x="1155" d="M82 989q0 172 104.5 267.5t292.5 95.5h586v-21h-205v-1372q0 -175 -77 -257.5t-205 -84.5h-5v21h5q115 0 188.5 77.5t73.5 243.5v1372h-244v-1331h-23v629h-94q-189 0 -293 94t-104 266z" />
<glyph unicode="&#xb7;" horiz-adv-x="372" d="M154 504q0 14 8.5 23.5t23.5 9.5t24 -9.5t9 -23.5q0 -15 -9 -24t-24 -9q-32 0 -32 33z" />
<glyph unicode="&#xb8;" horiz-adv-x="407" d="M55 -342q59 -18 107 -18q74 0 121 38t47 97q0 108 -166 108l2 119h18v-100q73 -2 120.5 -33t47.5 -94q0 -68 -52.5 -112t-141.5 -44q-57 0 -103 19v20z" />
<glyph unicode="&#xb9;" horiz-adv-x="555" d="M57 1503v19l224 63h18v-790h193v-21h-418v21h202v764z" />
<glyph unicode="&#xba;" horiz-adv-x="544" d="M80 973q0 143 52.5 213.5t139.5 70.5t140 -70.5t53 -213.5q0 -144 -53 -216.5t-140 -72.5q-86 0 -139 72.5t-53 216.5zM98 461v20h346v-20h-346zM102 973q0 -139 46.5 -203.5t123.5 -64.5q76 0 123 65t47 203q0 137 -47 201.5t-123 64.5q-77 0 -123.5 -64.5t-46.5 -201.5 z" />
<glyph unicode="&#xbb;" horiz-adv-x="802" d="M137 201l230 305l-230 303l19 12l241 -315l-241 -318zM436 201l230 305l-230 303l19 12l241 -315l-241 -318z" />
<glyph unicode="&#xbc;" horiz-adv-x="1452" d="M57 1270v18l224 64h18v-791h193v-20h-418v20h202v764zM487 0l492 1352h22l-491 -1352h-23zM860 156v18l369 637h22h11v-635h139v-20h-139v-156h-23v156h-379zM885 176h354v600v10l-4 -8z" />
<glyph unicode="&#xbd;" horiz-adv-x="1550" d="M57 1270v18l224 64h18v-791h193v-20h-418v20h202v764zM487 0l492 1352h22l-491 -1352h-23zM1022 0v18l274 347q60 75 87.5 130.5t27.5 116.5q0 92 -56.5 140.5t-144.5 48.5q-86 0 -151 -35v-205h-23v213q82 47 178 47q98 0 159 -54.5t61 -154.5q0 -66 -29.5 -125.5 t-89.5 -134.5l-260 -329h397v-23h-430z" />
<glyph unicode="&#xbe;" horiz-adv-x="1462" d="M68 623l14 12q70 -84 184 -84q94 0 154.5 55t60.5 144q0 86 -59 143t-160 57h-63v21h22q113 0 171.5 53t58.5 141q0 81 -50 128.5t-139 47.5q-76 0 -153 -34v-168h-23v178q82 45 176 45q98 0 154.5 -54t56.5 -145q0 -75 -41 -126.5t-119 -71.5q90 -13 140.5 -70.5 t50.5 -142.5q0 -102 -68 -163t-170 -61q-125 0 -198 95zM498 0l491 1352h23l-492 -1352h-22zM870 156v18l369 637h23h10v-635h139v-20h-139v-156h-23v156h-379zM895 176h354v600v10l-4 -8z" />
<glyph unicode="&#xbf;" horiz-adv-x="815" d="M82 -74q0 42 11 79t24 63t49 66.5t59 62.5t82 77q47 43 67.5 64t46 51.5t34.5 57t15.5 63.5t6.5 86v68h23v-68q0 -50 -6 -86.5t-15.5 -64.5t-33.5 -59t-48.5 -56.5t-72.5 -69.5q-11 -10 -36.5 -34t-35.5 -33t-31 -30t-29.5 -31.5t-24.5 -29.5t-22.5 -32t-16.5 -32.5 t-14 -36t-7 -37t-3 -42.5q0 -130 85 -206t214 -76q141 0 250 65v309h23v-317q-124 -78 -273 -78q-138 0 -229.5 82.5t-91.5 224.5zM455 901q0 14 8.5 23.5t23.5 9.5t25 -9.5t10 -23.5q0 -15 -10 -25t-25 -10t-23.5 10t-8.5 25z" />
<glyph unicode="&#xc0;" horiz-adv-x="1216" d="M23 0v20h153l420 1332h27l419 -1332h152v-20h-389v20h215l-141 449h-539l-141 -449h215v-20h-391zM346 489h526l-258 818l-6 20q0 -4 -6 -22zM434 1755q0 6 8 6h13l176 -254h-23l-151 213q-23 33 -23 35z" />
<glyph unicode="&#xc1;" horiz-adv-x="1216" d="M23 0v20h153l420 1332h27l419 -1332h152v-20h-389v20h215l-141 449h-539l-141 -449h215v-20h-391zM346 489h526l-258 818l-6 20q0 -4 -6 -22zM590 1507l176 254h12q8 0 8 -6q0 -3 -22 -35l-152 -213h-22z" />
<glyph unicode="&#xc2;" horiz-adv-x="1216" d="M23 0v20h153l420 1332h27l419 -1332h152v-20h-389v20h215l-141 449h-539l-141 -449h215v-20h-391zM340 1507l262 254h19l260 -254h-27l-244 236l-243 -236h-27zM346 489h526l-258 818l-6 20q0 -4 -6 -22z" />
<glyph unicode="&#xc3;" horiz-adv-x="1216" d="M23 0v20h153l420 1332h27l419 -1332h152v-20h-389v20h215l-141 449h-539l-141 -449h215v-20h-391zM346 489h526l-258 818l-6 20q0 -4 -6 -22zM346 1577q0 59 28.5 101t84.5 42q28 0 55.5 -12.5t43 -26.5t36.5 -36l45 -50q64 -67 117 -67q46 0 70 34t24 93v35h18 q2 -14 2 -39q0 -59 -27.5 -101.5t-84.5 -42.5q-38 0 -68 19.5t-67 58.5l-45 47q-64 68 -117 68q-45 0 -69.5 -34.5t-24.5 -92.5v-35h-19q-2 14 -2 39z" />
<glyph unicode="&#xc4;" horiz-adv-x="1216" d="M23 0v20h153l420 1332h27l419 -1332h152v-20h-389v20h215l-141 449h-539l-141 -449h215v-20h-391zM346 489h526l-258 818l-6 20q0 -4 -6 -22zM412 1577q0 12 10 20.5t22 8.5q11 0 20 -8.5t9 -20.5q0 -13 -9 -23t-20 -10q-12 0 -22 10t-10 23zM743 1577q0 12 9.5 20.5 t23.5 8.5q12 0 20.5 -8.5t8.5 -20.5q0 -14 -8.5 -23.5t-20.5 -9.5q-14 0 -23.5 10t-9.5 23z" />
<glyph unicode="&#xc5;" horiz-adv-x="1216" d="M23 0v20h153l420 1332h27l419 -1332h152v-20h-389v20h215l-141 449h-539l-141 -449h215v-20h-391zM346 489h526l-258 818l-6 20q0 -4 -6 -22zM438 1622q0 70 50.5 120t121.5 50t121.5 -50t50.5 -120q0 -71 -50.5 -120.5t-121.5 -49.5t-121.5 49.5t-50.5 120.5zM461 1622 q0 -63 44 -106t105 -43t105.5 43t44.5 106t-44.5 106.5t-105.5 43.5t-105 -43t-44 -107z" />
<glyph unicode="&#xc6;" horiz-adv-x="1679" d="M0 0v20h152l610 1311h-250v21h1004v-318h-23v297h-692l110 -624h394v-21h-390l117 -666h486v316h22v-336h-758v20h228l-80 449h-547l-207 -449h215v-20h-391zM393 489h533l-146 834q-1 -2 -4 -8.5t-4 -11.5z" />
<glyph unicode="&#xc7;" horiz-adv-x="993" d="M135 678q0 181 35 317t98 216t143.5 118.5t178.5 38.5q148 0 274 -76v-319h-22v309q-116 66 -252 66q-93 0 -168.5 -36.5t-136 -113t-94 -208.5t-33.5 -310q0 -333 113.5 -504.5t297.5 -171.5q188 0 314 176l18 -12q-65 -85 -143.5 -134.5t-188.5 -49.5h-6v-82 q73 -2 120.5 -33t47.5 -94q0 -68 -52.5 -112t-141.5 -44q-57 0 -103 19v20q59 -18 107 -18q74 0 121 38t47 97q0 108 -166 108l2 101q-187 11 -298.5 186.5t-111.5 507.5z" />
<glyph unicode="&#xc8;" horiz-adv-x="1087" d="M92 0v20h211v1311h-211v21h832v-318h-23v297h-575v-624h395v-21h-395v-666h600v316h22v-336h-856zM408 1755q0 6 8 6h12l176 -254h-22l-152 213q-22 32 -22 35z" />
<glyph unicode="&#xc9;" horiz-adv-x="1087" d="M92 0v20h211v1311h-211v21h832v-318h-23v297h-575v-624h395v-21h-395v-666h600v316h22v-336h-856zM563 1507l176 254h13q8 0 8 -6q0 -2 -23 -35l-151 -213h-23z" />
<glyph unicode="&#xca;" horiz-adv-x="1087" d="M92 0v20h211v1311h-211v21h832v-318h-23v297h-575v-624h395v-21h-395v-666h600v316h22v-336h-856zM313 1507l262 254h19l260 -254h-27l-243 236l-244 -236h-27z" />
<glyph unicode="&#xcb;" horiz-adv-x="1087" d="M92 0v20h211v1311h-211v21h832v-318h-23v297h-575v-624h395v-21h-395v-666h600v316h22v-336h-856zM385 1577q0 12 10.5 20.5t22.5 8.5q11 0 19.5 -8.5t8.5 -20.5q0 -13 -8.5 -23t-19.5 -10q-12 0 -22.5 10t-10.5 23zM717 1577q0 12 9.5 20.5t23.5 8.5q12 0 20 -8.5 t8 -20.5q0 -14 -8 -23.5t-20 -9.5q-14 0 -23.5 10t-9.5 23z" />
<glyph unicode="&#xcc;" horiz-adv-x="630" d="M92 0v20h211v1311h-211v21h447v-21h-213v-1311h213v-20h-447zM139 1755q0 6 8 6h13l176 -254h-23l-151 213q-23 33 -23 35z" />
<glyph unicode="&#xcd;" horiz-adv-x="630" d="M92 0v20h211v1311h-211v21h447v-21h-213v-1311h213v-20h-447zM295 1507l176 254h12q9 0 9 -6q0 -2 -23 -35l-152 -213h-22z" />
<glyph unicode="&#xce;" horiz-adv-x="630" d="M45 1507l262 254h19l260 -254h-27l-244 236l-243 -236h-27zM92 0v20h211v1311h-211v21h447v-21h-213v-1311h213v-20h-447z" />
<glyph unicode="&#xcf;" horiz-adv-x="630" d="M92 0v20h211v1311h-211v21h447v-21h-213v-1311h213v-20h-447zM117 1577q0 12 10.5 20.5t22.5 8.5q11 0 19.5 -8.5t8.5 -20.5q0 -13 -8.5 -23t-19.5 -10q-12 0 -22.5 10t-10.5 23zM449 1577q0 12 9.5 20.5t22.5 8.5q12 0 20.5 -8.5t8.5 -20.5q0 -14 -8.5 -23.5t-20.5 -9.5 q-13 0 -22.5 9.5t-9.5 23.5z" />
<glyph unicode="&#xd0;" horiz-adv-x="1167" d="M92 0v20h211v666h-211v21h211v624h-211v21h410q115 0 209 -39t166.5 -118.5t112.5 -211.5t40 -307q0 -174 -40 -306t-112.5 -211.5t-166.5 -119t-209 -39.5h-410zM326 20h170q236 0 374 163t138 493q0 331 -137.5 493t-374.5 162h-170v-624h336v-21h-336v-666z" />
<glyph unicode="&#xd1;" horiz-adv-x="1353" d="M92 0v20h211v1311h-211v21h248l682 -1305q1 -4 8 -18v1302h-215v21h447v-21h-211v-1331h-29l-688 1311q-7 10 -10 20v-1311h215v-20h-447zM406 1577q0 59 28 101t84 42q28 0 55.5 -12.5t43 -26.5t36.5 -36l45 -50q64 -67 117 -67q46 0 70 34t24 93v35h19q2 -14 2 -39 q0 -59 -28 -101.5t-85 -42.5q-38 0 -68 19.5t-67 58.5l-45 47q-64 68 -117 68q-45 0 -69.5 -34.5t-24.5 -92.5v-35h-18q-2 14 -2 39z" />
<glyph unicode="&#xd2;" horiz-adv-x="1101" d="M135 676q0 180 31.5 315.5t88.5 216.5t131 120.5t165 39.5q73 0 134.5 -24t114 -77.5t88.5 -133.5t56.5 -196t20.5 -261q0 -351 -112.5 -521.5t-301.5 -170.5q-188 0 -302 171t-114 521zM158 676q0 -173 29.5 -304t83.5 -210t124 -118.5t156 -39.5q179 0 286 166.5 t107 505.5q0 340 -107 506t-286 166q-178 0 -285.5 -166t-107.5 -506zM375 1755q0 6 8 6h12l176 -254h-22l-152 213q-22 32 -22 35z" />
<glyph unicode="&#xd3;" horiz-adv-x="1101" d="M135 676q0 180 31.5 315.5t88.5 216.5t131 120.5t165 39.5q73 0 134.5 -24t114 -77.5t88.5 -133.5t56.5 -196t20.5 -261q0 -351 -112.5 -521.5t-301.5 -170.5q-188 0 -302 171t-114 521zM158 676q0 -173 29.5 -304t83.5 -210t124 -118.5t156 -39.5q179 0 286 166.5 t107 505.5q0 340 -107 506t-286 166q-178 0 -285.5 -166t-107.5 -506zM530 1507l177 254h12q8 0 8 -6q0 -3 -22 -35l-152 -213h-23z" />
<glyph unicode="&#xd4;" horiz-adv-x="1101" d="M135 676q0 180 31.5 315.5t88.5 216.5t131 120.5t165 39.5q73 0 134.5 -24t114 -77.5t88.5 -133.5t56.5 -196t20.5 -261q0 -351 -112.5 -521.5t-301.5 -170.5q-188 0 -302 171t-114 521zM158 676q0 -173 29.5 -304t83.5 -210t124 -118.5t156 -39.5q179 0 286 166.5 t107 505.5q0 340 -107 506t-286 166q-178 0 -285.5 -166t-107.5 -506zM281 1507l262 254h18l260 -254h-26l-244 236l-244 -236h-26z" />
<glyph unicode="&#xd5;" horiz-adv-x="1101" d="M135 676q0 180 31.5 315.5t88.5 216.5t131 120.5t165 39.5q73 0 134.5 -24t114 -77.5t88.5 -133.5t56.5 -196t20.5 -261q0 -351 -112.5 -521.5t-301.5 -170.5q-188 0 -302 171t-114 521zM158 676q0 -173 29.5 -304t83.5 -210t124 -118.5t156 -39.5q179 0 286 166.5 t107 505.5q0 340 -107 506t-286 166q-178 0 -285.5 -166t-107.5 -506zM287 1577q0 59 28 101t84 42q41 0 72 -20.5t64 -54.5l45 -50q64 -67 116 -67q46 0 70.5 34t24.5 93v35h18q2 -14 2 -39q0 -59 -28 -101.5t-85 -42.5q-38 0 -68 19.5t-67 58.5l-45 47q-64 68 -117 68 q-45 0 -69.5 -34.5t-24.5 -92.5v-35h-18q-2 14 -2 39z" />
<glyph unicode="&#xd6;" horiz-adv-x="1101" d="M135 676q0 180 31.5 315.5t88.5 216.5t131 120.5t165 39.5q73 0 134.5 -24t114 -77.5t88.5 -133.5t56.5 -196t20.5 -261q0 -351 -112.5 -521.5t-301.5 -170.5q-188 0 -302 171t-114 521zM158 676q0 -173 29.5 -304t83.5 -210t124 -118.5t156 -39.5q179 0 286 166.5 t107 505.5q0 340 -107 506t-286 166q-178 0 -285.5 -166t-107.5 -506zM352 1577q0 12 10.5 20.5t22.5 8.5q11 0 20 -8.5t9 -20.5q0 -13 -9 -23t-20 -10q-12 0 -22.5 10t-10.5 23zM684 1577q0 12 9.5 20.5t23.5 8.5q12 0 20 -8.5t8 -20.5q0 -14 -8 -23.5t-20 -9.5 q-13 0 -23 10t-10 23z" />
<glyph unicode="&#xd7;" d="M190 889l15 14l317 -313l309 313l15 -14l-309 -314l317 -315l-14 -12l-318 313l-313 -313l-14 14l313 313z" />
<glyph unicode="&#xd8;" horiz-adv-x="1101" d="M61 -74l168 262q-94 177 -94 488q0 180 31.5 315.5t88.5 216.5t131 120.5t165 39.5q201 0 311 -184l160 254l18 -13l-168 -262q93 -178 93 -487q0 -351 -112.5 -521.5t-301.5 -170.5q-202 0 -309 184l-162 -254zM156 676q0 -295 88 -469l604 954q-104 187 -299 187 q-178 0 -285.5 -166t-107.5 -506zM254 186q105 -182 295 -182q179 0 286 166.5t107 505.5q0 292 -84 465z" />
<glyph unicode="&#xd9;" horiz-adv-x="1323" d="M76 1331v21h448v-21h-213v-948q0 -185 95.5 -282t257.5 -97t256 96.5t94 282.5v948h-215v21h448v-21h-213v-954q0 -187 -100 -290t-270 -103q-171 0 -273 103t-102 290v954h-213zM487 1755q0 6 9 6h12l176 -254h-22l-152 213q-23 33 -23 35z" />
<glyph unicode="&#xda;" horiz-adv-x="1323" d="M76 1331v21h448v-21h-213v-948q0 -185 95.5 -282t257.5 -97t256 96.5t94 282.5v948h-215v21h448v-21h-213v-954q0 -187 -100 -290t-270 -103q-171 0 -273 103t-102 290v954h-213zM643 1507l176 254h12q9 0 9 -6q0 -2 -23 -35l-151 -213h-23z" />
<glyph unicode="&#xdb;" horiz-adv-x="1323" d="M76 1331v21h448v-21h-213v-948q0 -185 95.5 -282t257.5 -97t256 96.5t94 282.5v948h-215v21h448v-21h-213v-954q0 -187 -100 -290t-270 -103q-171 0 -273 103t-102 290v954h-213zM393 1507l262 254h19l260 -254h-27l-243 236l-244 -236h-27z" />
<glyph unicode="&#xdc;" horiz-adv-x="1323" d="M76 1331v21h448v-21h-213v-948q0 -185 95.5 -282t257.5 -97t256 96.5t94 282.5v948h-215v21h448v-21h-213v-954q0 -187 -100 -290t-270 -103q-171 0 -273 103t-102 290v954h-213zM465 1577q0 12 10.5 20.5t22.5 8.5q11 0 19.5 -8.5t8.5 -20.5q0 -13 -8.5 -23t-19.5 -10 q-12 0 -22.5 10t-10.5 23zM797 1577q0 12 9.5 20.5t22.5 8.5q12 0 20.5 -8.5t8.5 -20.5q0 -14 -8.5 -23.5t-20.5 -9.5q-13 0 -22.5 9.5t-9.5 23.5z" />
<glyph unicode="&#xdd;" horiz-adv-x="1236" d="M18 1331v21h416v-21h-229l405 -721q2 -2 8 -14l9 14l405 721h-227v21h414v-21h-162l-426 -753v-558h264v-20h-551v20h264v553l-426 758h-164zM598 1507l176 254h12q9 0 9 -6q0 -2 -23 -35l-151 -213h-23z" />
<glyph unicode="&#xde;" horiz-adv-x="1067" d="M92 -4v20h211v1315h-211v21h496v-21h-262v-278h252q194 0 300.5 -94.5t106.5 -266.5t-106 -267t-301 -95h-252v-314h262v-20h-496zM326 350h243q188 0 291 90t103 252q0 160 -103.5 250t-290.5 90h-243v-682z" />
<glyph unicode="&#xdf;" horiz-adv-x="972" d="M72 0v20h184v877h-184v21h184v210q0 150 69.5 232t184.5 82q121 0 191.5 -84.5t70.5 -224.5q0 -128 -57.5 -211.5t-147.5 -108.5q129 -26 211 -136.5t82 -289.5q0 -181 -85.5 -288t-227.5 -107q-59 0 -123 18v21q71 -19 123 -19q133 0 212 101.5t79 273.5 q0 100 -28 180.5t-76 130.5t-108.5 76.5t-127.5 26.5h-4v20h4q103 0 177.5 83.5t74.5 228.5q0 131 -64 209.5t-176 78.5q-108 0 -169.5 -75.5t-61.5 -217.5v-1128h-207z" />
<glyph unicode="&#xe0;" horiz-adv-x="851" d="M94 229q0 126 85 187t227 61h204v166q0 131 -62.5 200.5t-170.5 69.5q-147 0 -230 -133l-14 13q34 62 98.5 101.5t149.5 39.5q112 0 181 -72.5t69 -212.5v-483q0 -154 125 -154q27 0 57 6v-18q-28 -8 -65 -8q-66 0 -102 44t-36 130v35q-16 -95 -87.5 -156t-180.5 -61 t-178.5 64.5t-69.5 180.5zM115 229q0 -104 62 -164.5t167 -60.5q127 0 196.5 88.5t69.5 235.5v129h-202q-135 0 -214 -55.5t-79 -172.5zM160 1430q0 6 8 6h12l219 -357h-22l-203 326q-14 19 -14 25z" />
<glyph unicode="&#xe1;" horiz-adv-x="851" d="M94 229q0 126 85 187t227 61h204v166q0 131 -62.5 200.5t-170.5 69.5q-147 0 -230 -133l-14 13q34 62 98.5 101.5t149.5 39.5q112 0 181 -72.5t69 -212.5v-483q0 -154 125 -154q27 0 57 6v-18q-28 -8 -65 -8q-66 0 -102 44t-36 130v35q-16 -95 -87.5 -156t-180.5 -61 t-178.5 64.5t-69.5 180.5zM115 229q0 -104 62 -164.5t167 -60.5q127 0 196.5 88.5t69.5 235.5v129h-202q-135 0 -214 -55.5t-79 -172.5zM356 1079l219 357h13q8 0 8 -6t-14 -25l-203 -326h-23z" />
<glyph unicode="&#xe2;" horiz-adv-x="851" d="M94 229q0 126 85 187t227 61h204v166q0 131 -62.5 200.5t-170.5 69.5q-147 0 -230 -133l-14 13q34 62 98.5 101.5t149.5 39.5q112 0 181 -72.5t69 -212.5v-483q0 -154 125 -154q27 0 57 6v-18q-28 -8 -65 -8q-66 0 -102 44t-36 130v35q-16 -95 -87.5 -156t-180.5 -61 t-178.5 64.5t-69.5 180.5zM115 229q0 -104 62 -164.5t167 -60.5q127 0 196.5 88.5t69.5 235.5v129h-202q-135 0 -214 -55.5t-79 -172.5zM125 1079l244 357h18l242 -357h-25l-227 334l-227 -334h-25z" />
<glyph unicode="&#xe3;" horiz-adv-x="851" d="M94 229q0 126 85 187t227 61h204v166q0 131 -62.5 200.5t-170.5 69.5q-147 0 -230 -133l-14 13q34 62 98.5 101.5t149.5 39.5q112 0 181 -72.5t69 -212.5v-483q0 -154 125 -154q27 0 57 6v-18q-28 -8 -65 -8q-66 0 -102 44t-36 130v35q-16 -95 -87.5 -156t-180.5 -61 t-178.5 64.5t-69.5 180.5zM115 229q0 -104 62 -164.5t167 -60.5q127 0 196.5 88.5t69.5 235.5v129h-202q-135 0 -214 -55.5t-79 -172.5zM131 1212q0 59 28.5 101.5t80.5 42.5q25 0 48.5 -12.5t35.5 -24.5t36 -39l46 -47q32 -37 53 -52.5t49 -15.5q41 0 65.5 34.5t24.5 92.5 v35h18q2 -14 2 -39q0 -59 -28 -101t-80 -42q-25 0 -48.5 12.5t-36.5 25t-36 38.5l-45 49q-32 36 -53 50.5t-49 14.5q-41 0 -65.5 -34t-24.5 -91v-36h-19q-2 16 -2 38z" />
<glyph unicode="&#xe4;" horiz-adv-x="851" d="M94 229q0 126 85 187t227 61h204v166q0 131 -62.5 200.5t-170.5 69.5q-147 0 -230 -133l-14 13q34 62 98.5 101.5t149.5 39.5q112 0 181 -72.5t69 -212.5v-483q0 -154 125 -154q27 0 57 6v-18q-28 -8 -65 -8q-66 0 -102 44t-36 130v35q-16 -95 -87.5 -156t-180.5 -61 t-178.5 64.5t-69.5 180.5zM115 229q0 -104 62 -164.5t167 -60.5q127 0 196.5 88.5t69.5 235.5v129h-202q-135 0 -214 -55.5t-79 -172.5zM197 1257q0 12 10 21.5t22 9.5q11 0 20 -9.5t9 -21.5q0 -13 -9 -21.5t-20 -8.5q-13 0 -22.5 8.5t-9.5 21.5zM492 1257q0 13 9 22t23 9 q12 0 20.5 -9.5t8.5 -21.5q0 -13 -8.5 -21.5t-20.5 -8.5q-32 0 -32 30z" />
<glyph unicode="&#xe5;" horiz-adv-x="851" d="M94 229q0 126 85 187t227 61h204v166q0 131 -62.5 200.5t-170.5 69.5q-147 0 -230 -133l-14 13q34 62 98.5 101.5t149.5 39.5q112 0 181 -72.5t69 -212.5v-483q0 -154 125 -154q27 0 57 6v-18q-28 -8 -65 -8q-66 0 -102 44t-36 130v35q-16 -95 -87.5 -156t-180.5 -61 t-178.5 64.5t-69.5 180.5zM115 229q0 -104 62 -164.5t167 -60.5q127 0 196.5 88.5t69.5 235.5v129h-202q-135 0 -214 -55.5t-79 -172.5zM205 1257q0 71 50.5 120.5t121.5 49.5t121.5 -49.5t50.5 -120.5q0 -70 -50.5 -120t-121.5 -50t-121.5 50t-50.5 120zM227 1257 q0 -63 44.5 -106t105.5 -43t105 43t44 106q0 64 -44 107t-105 43t-105.5 -43.5t-44.5 -106.5z" />
<glyph unicode="&#xe6;" horiz-adv-x="1304" d="M94 231q0 128 85.5 190t226.5 62h204v160q0 131 -62.5 200.5t-170.5 69.5q-147 0 -230 -133l-14 13q34 62 98.5 101.5t149.5 39.5q110 0 180 -73t70 -212v-12q27 149 98.5 223t171.5 74q118 0 196.5 -97.5t78.5 -287.5q0 -36 -5 -86h-540v-6q0 -227 81.5 -340t211.5 -113 q75 0 134 36t93 95l18 -14q-88 -137 -243 -137q-109 0 -189.5 70.5t-109.5 213.5q-11 -126 -83 -205t-200 -79q-111 0 -180.5 64.5t-69.5 182.5zM115 233q0 -107 62 -168t167 -61q127 0 196.5 88.5t69.5 235.5v135h-202q-136 0 -214.5 -56t-78.5 -174zM631 483h520 q0 9 1 33.5t1 38.5q0 178 -73.5 268t-178.5 90q-120 0 -193 -114t-77 -316z" />
<glyph unicode="&#xe7;" horiz-adv-x="761" d="M115 459q0 241 91.5 358t242.5 117q115 0 200 -55v-230h-22v219q-74 45 -178 45q-66 0 -121 -25.5t-99 -78t-69 -142t-25 -208.5q0 -229 81.5 -342t211.5 -113q74 0 133.5 36.5t93.5 94.5l19 -14q-91 -137 -242 -137v-82q73 -2 120.5 -33t47.5 -94q0 -68 -52.5 -112 t-141.5 -44q-57 0 -103 19v20q59 -18 107 -18q74 0 121 38t47 97q0 108 -166 108l2 101q-136 8 -217.5 127t-81.5 348z" />
<glyph unicode="&#xe8;" horiz-adv-x="808" d="M115 463q0 236 80 353.5t208 117.5q119 0 198 -97.5t79 -287.5q0 -38 -4 -78h-541v-8q0 -233 81 -346t212 -113q74 0 132.5 36t94.5 95l19 -14q-88 -137 -244 -137q-143 0 -229 118.5t-86 360.5zM135 492h520q2 20 2 59q0 183 -73 272.5t-181 89.5q-113 0 -187.5 -104 t-80.5 -317zM197 1430q0 6 8 6h12l219 -357h-22l-203 326q-14 19 -14 25z" />
<glyph unicode="&#xe9;" horiz-adv-x="808" d="M115 463q0 236 80 353.5t208 117.5q119 0 198 -97.5t79 -287.5q0 -38 -4 -78h-541v-8q0 -233 81 -346t212 -113q74 0 132.5 36t94.5 95l19 -14q-88 -137 -244 -137q-143 0 -229 118.5t-86 360.5zM135 492h520q2 20 2 59q0 183 -73 272.5t-181 89.5q-113 0 -187.5 -104 t-80.5 -317zM393 1079l219 357h13q8 0 8 -6q0 -5 -15 -25l-202 -326h-23z" />
<glyph unicode="&#xea;" horiz-adv-x="808" d="M115 463q0 236 80 353.5t208 117.5q119 0 198 -97.5t79 -287.5q0 -38 -4 -78h-541v-8q0 -233 81 -346t212 -113q74 0 132.5 36t94.5 95l19 -14q-88 -137 -244 -137q-143 0 -229 118.5t-86 360.5zM135 492h520q2 20 2 59q0 183 -73 272.5t-181 89.5q-113 0 -187.5 -104 t-80.5 -317zM162 1079l244 357h18l242 -357h-25l-227 334l-228 -334h-24z" />
<glyph unicode="&#xeb;" horiz-adv-x="808" d="M115 463q0 236 80 353.5t208 117.5q119 0 198 -97.5t79 -287.5q0 -38 -4 -78h-541v-8q0 -233 81 -346t212 -113q74 0 132.5 36t94.5 95l19 -14q-88 -137 -244 -137q-143 0 -229 118.5t-86 360.5zM135 492h520q2 20 2 59q0 183 -73 272.5t-181 89.5q-113 0 -187.5 -104 t-80.5 -317zM233 1257q0 12 10.5 21.5t22.5 9.5q11 0 20 -9.5t9 -21.5q0 -13 -9 -21.5t-20 -8.5q-13 0 -23 8.5t-10 21.5zM528 1257q0 13 9 22t24 9q12 0 20.5 -9.5t8.5 -21.5q0 -13 -8.5 -21.5t-20.5 -8.5q-15 0 -24 8t-9 22z" />
<glyph unicode="&#xec;" horiz-adv-x="481" d="M72 0v20h184v877h-184v21h207v-898h163v-20h-370zM72 1430q0 6 6 6h12l182 -357h-22l-162 316q-2 5 -6.5 13.5t-7 14t-2.5 7.5z" />
<glyph unicode="&#xed;" horiz-adv-x="481" d="M72 0v20h184v877h-184v21h207v-898h163v-20h-370zM246 1079l182 357h12q6 0 6 -6q0 -4 -18 -35l-160 -316h-22z" />
<glyph unicode="&#xee;" horiz-adv-x="481" d="M6 1079l244 357h18l242 -357h-25l-227 334l-227 -334h-25zM72 0v20h184v877h-184v21h207v-898h163v-20h-370z" />
<glyph unicode="&#xef;" horiz-adv-x="481" d="M72 0v20h184v877h-184v21h207v-898h163v-20h-370zM96 1257q0 12 10.5 21.5t22.5 9.5q11 0 20 -9.5t9 -21.5q0 -13 -9 -21.5t-20 -8.5q-13 0 -23 8.5t-10 21.5zM354 1257q0 12 9 21.5t22 9.5t22 -9.5t9 -21.5q0 -13 -8.5 -21.5t-22.5 -8.5t-22.5 8.5t-8.5 21.5z" />
<glyph unicode="&#xf0;" horiz-adv-x="858" d="M115 440q0 227 86.5 342t228.5 115q103 0 176.5 -62t108.5 -182q-53 396 -324 631l-211 -143l-10 16l207 141q-79 68 -193 127l13 17q109 -56 198 -131l193 131l10 -17l-188 -129q333 -290 333 -827q0 -271 -100 -389q-80 -96 -215 -96q-141 0 -227 115.5t-86 340.5z M135 440q0 -218 81.5 -327t211.5 -109t212.5 109.5t82.5 326.5q0 218 -82.5 327.5t-212.5 109.5q-129 0 -211 -110t-82 -327z" />
<glyph unicode="&#xf1;" horiz-adv-x="1024" d="M72 0v20h184v877h-184v21h207v-222q13 97 82.5 167.5t183.5 70.5t185 -76.5t71 -226.5v-611h182v-20h-369v20h164v605q0 140 -62.5 214t-170.5 74q-129 0 -197.5 -98t-68.5 -246v-549h163v-20h-370zM274 1212q0 59 28.5 101.5t80.5 42.5q25 0 48.5 -12.5t36.5 -25 t36 -38.5l45 -47q32 -37 53 -52.5t49 -15.5q41 0 65.5 34.5t24.5 92.5v35h19q2 -14 2 -39q0 -59 -28.5 -101t-80.5 -42q-25 0 -48.5 12.5t-36.5 25t-36 38.5l-45 49q-32 36 -53 50.5t-49 14.5q-41 0 -65.5 -34t-24.5 -91v-36h-19q-2 16 -2 38z" />
<glyph unicode="&#xf2;" horiz-adv-x="860" d="M115 459q0 240 86 357.5t229 117.5q142 0 228.5 -118t86.5 -357q0 -238 -86.5 -356.5t-228.5 -118.5q-143 0 -229 118.5t-86 356.5zM135 459q0 -231 81.5 -343t213.5 -112q129 0 211 112.5t82 342.5t-81.5 342t-211.5 112q-132 0 -213.5 -111.5t-81.5 -342.5zM213 1430 q0 6 8 6h12l220 -357h-23l-203 326q-14 19 -14 25z" />
<glyph unicode="&#xf3;" horiz-adv-x="860" d="M115 459q0 240 86 357.5t229 117.5q142 0 228.5 -118t86.5 -357q0 -238 -86.5 -356.5t-228.5 -118.5q-143 0 -229 118.5t-86 356.5zM135 459q0 -231 81.5 -343t213.5 -112q129 0 211 112.5t82 342.5t-81.5 342t-211.5 112q-132 0 -213.5 -111.5t-81.5 -342.5zM410 1079 l219 357h12q8 0 8 -6t-14 -25l-203 -326h-22z" />
<glyph unicode="&#xf4;" horiz-adv-x="860" d="M115 459q0 240 86 357.5t229 117.5q142 0 228.5 -118t86.5 -357q0 -238 -86.5 -356.5t-228.5 -118.5q-143 0 -229 118.5t-86 356.5zM135 459q0 -231 81.5 -343t213.5 -112q129 0 211 112.5t82 342.5t-81.5 342t-211.5 112q-132 0 -213.5 -111.5t-81.5 -342.5zM178 1079 l244 357h18l242 -357h-25l-227 334l-227 -334h-25z" />
<glyph unicode="&#xf5;" horiz-adv-x="860" d="M115 459q0 240 86 357.5t229 117.5q142 0 228.5 -118t86.5 -357q0 -238 -86.5 -356.5t-228.5 -118.5q-143 0 -229 118.5t-86 356.5zM135 459q0 -231 81.5 -343t213.5 -112q129 0 211 112.5t82 342.5t-81.5 342t-211.5 112q-132 0 -213.5 -111.5t-81.5 -342.5zM184 1212 q0 59 28.5 101.5t80.5 42.5q25 0 48.5 -12.5t36.5 -25t36 -38.5l45 -47q32 -37 53 -52.5t49 -15.5q41 0 65.5 34.5t24.5 92.5v35h19q2 -14 2 -39q0 -59 -28.5 -101t-80.5 -42q-25 0 -48.5 12.5t-36.5 25t-36 38.5l-45 49q-32 36 -53 50.5t-49 14.5q-41 0 -65.5 -34 t-24.5 -91v-36h-19q-2 16 -2 38z" />
<glyph unicode="&#xf6;" horiz-adv-x="860" d="M115 459q0 240 86 357.5t229 117.5q142 0 228.5 -118t86.5 -357q0 -238 -86.5 -356.5t-228.5 -118.5q-143 0 -229 118.5t-86 356.5zM135 459q0 -231 81.5 -343t213.5 -112q129 0 211 112.5t82 342.5t-81.5 342t-211.5 112q-132 0 -213.5 -111.5t-81.5 -342.5zM250 1257 q0 12 10.5 21.5t22.5 9.5q11 0 19.5 -9.5t8.5 -21.5q0 -13 -8.5 -21.5t-19.5 -8.5q-13 0 -23 8.5t-10 21.5zM545 1257q0 13 9.5 22t23.5 9q12 0 20 -9.5t8 -21.5q0 -13 -8 -21.5t-20 -8.5q-15 0 -24 8t-9 22z" />
<glyph unicode="&#xf7;" d="M129 567v21h797v-21h-797zM494 279q0 14 9.5 23t24.5 9t24 -9t9 -23q0 -15 -9 -25t-24 -10t-24.5 10t-9.5 25zM494 879q0 14 9.5 23t24.5 9t24 -9t9 -23q0 -15 -9 -25t-24 -10t-24.5 10t-9.5 25z" />
<glyph unicode="&#xf8;" horiz-adv-x="878" d="M51 -74l144 199q-72 125 -72 334q0 240 86.5 357.5t230.5 117.5q149 0 232 -123l139 193l16 -13l-143 -198q72 -122 72 -334q0 -237 -87.5 -356t-228.5 -119q-150 0 -233 122l-139 -192zM145 459q0 -193 64 -314l448 648q-76 120 -217 120q-132 0 -213.5 -111.5 t-81.5 -342.5zM219 127q79 -123 221 -123q129 0 211 112.5t82 342.5q0 195 -63 311z" />
<glyph unicode="&#xf9;" horiz-adv-x="989" d="M39 897v21h205v-625q0 -139 64 -214t171 -75q86 0 147.5 47.5t90 123.5t28.5 171v551h-180v21h203v-752q0 -154 123 -154q25 0 59 6v-18q-28 -8 -65 -8q-66 0 -103 44t-37 130v53q-13 -95 -82.5 -165t-183.5 -70t-186 76.5t-72 226.5v610h-182zM279 1430q0 6 8 6h12 l219 -357h-22l-203 326q-14 19 -14 25z" />
<glyph unicode="&#xfa;" horiz-adv-x="989" d="M39 897v21h205v-625q0 -139 64 -214t171 -75q86 0 147.5 47.5t90 123.5t28.5 171v551h-180v21h203v-752q0 -154 123 -154q25 0 59 6v-18q-28 -8 -65 -8q-66 0 -103 44t-37 130v53q-13 -95 -82.5 -165t-183.5 -70t-186 76.5t-72 226.5v610h-182zM449 1079l219 357h12 q8 0 8 -6t-14 -25l-203 -326h-22z" />
<glyph unicode="&#xfb;" horiz-adv-x="989" d="M39 897v21h205v-625q0 -139 64 -214t171 -75q86 0 147.5 47.5t90 123.5t28.5 171v551h-180v21h203v-752q0 -154 123 -154q25 0 59 6v-18q-28 -8 -65 -8q-66 0 -103 44t-37 130v53q-13 -95 -82.5 -165t-183.5 -70t-186 76.5t-72 226.5v610h-182zM244 1079l243 357h19 l242 -357h-25l-227 334l-228 -334h-24z" />
<glyph unicode="&#xfc;" horiz-adv-x="989" d="M39 897v21h205v-625q0 -139 64 -214t171 -75q86 0 147.5 47.5t90 123.5t28.5 171v551h-180v21h203v-752q0 -154 123 -154q25 0 59 6v-18q-28 -8 -65 -8q-66 0 -103 44t-37 130v53q-13 -95 -82.5 -165t-183.5 -70t-186 76.5t-72 226.5v610h-182zM315 1257q0 12 10.5 21.5 t22.5 9.5q11 0 20 -9.5t9 -21.5q0 -13 -9 -21.5t-20 -8.5q-13 0 -23 8.5t-10 21.5zM610 1257q0 13 9 22t24 9q12 0 20.5 -9.5t8.5 -21.5q0 -13 -8.5 -21.5t-20.5 -8.5q-15 0 -24 8t-9 22z" />
<glyph unicode="&#xfd;" horiz-adv-x="894" d="M20 897v21h318v-21h-180l286 -866q0 -2 5 -17q0 5 4 17l282 866h-178v21h317v-21h-114l-361 -1098q-29 -88 -76 -129t-118 -41q-38 0 -80 11v18q46 -8 80 -8q62 0 104.5 38t71.5 119l57 175l-303 915h-115zM426 1079l219 357h12q9 0 9 -6q0 -5 -15 -25l-202 -326h-23z " />
<glyph unicode="&#xfe;" horiz-adv-x="948" d="M33 -342h184v1747h-184v20h205v-766q24 132 94.5 203.5t183.5 71.5q144 0 232 -117t88 -358t-88 -358t-232 -117q-114 0 -185 71.5t-93 202.5v-600h200v-20h-405v20zM238 459q0 -130 23 -222.5t64 -141.5t88 -70t105 -21q133 0 214 112t81 343t-81 342.5t-214 111.5 q-58 0 -105 -21t-88 -70t-64 -141t-23 -222z" />
<glyph unicode="&#xff;" horiz-adv-x="894" d="M20 897v21h318v-21h-180l286 -866q0 -2 5 -17q0 5 4 17l282 866h-178v21h317v-21h-114l-361 -1098q-29 -88 -76 -129t-118 -41q-38 0 -80 11v18q46 -8 80 -8q62 0 104.5 38t71.5 119l57 175l-303 915h-115zM266 1257q0 12 10.5 21.5t22.5 9.5q11 0 20 -9.5t9 -21.5 q0 -13 -9 -21.5t-20 -8.5q-13 0 -23 8.5t-10 21.5zM561 1257q0 13 9.5 22t23.5 9q12 0 20.5 -9.5t8.5 -21.5q0 -13 -8.5 -21.5t-20.5 -8.5q-15 0 -24 8t-9 22z" />
<glyph unicode="&#x152;" horiz-adv-x="1603" d="M135 674q0 158 25.5 279t69 198.5t108 127t135.5 69.5t158 20q80 0 186 -16h623v-318h-23v297h-577v-624h395v-21h-395v-666h600v316h22v-336h-645q-106 -16 -186 -16q-87 0 -158 20t-135.5 69t-108 126t-69 197.5t-25.5 277.5zM158 674q0 -152 24 -268.5t65.5 -191.5 t102 -123t128 -67.5t149.5 -19.5q72 0 190 16v1313q-139 15 -190 15q-469 0 -469 -674z" />
<glyph unicode="&#x153;" horiz-adv-x="1419" d="M115 459q0 240 86 357.5t229 117.5q122 0 202 -85t101 -259q21 174 95 259t186 85q119 0 197.5 -97.5t78.5 -287.5q0 -38 -4 -78h-541v-8q0 -233 81 -346t210 -113q76 0 135 36t95 95l16 -14q-88 -137 -246 -137q-122 0 -201 85t-100 263q-23 -176 -102.5 -262 t-202.5 -86q-143 0 -229 118.5t-86 356.5zM135 459q0 -230 81 -342.5t212 -112.5t213 112.5t82 342.5t-82 342t-213 112q-130 0 -211.5 -112.5t-81.5 -341.5zM745 492h521q2 16 2 59q0 182 -72.5 272t-179.5 90q-114 0 -189.5 -104t-81.5 -317z" />
<glyph unicode="&#x178;" horiz-adv-x="1236" d="M18 1331v21h416v-21h-229l405 -721q2 -2 8 -14l9 14l405 721h-227v21h414v-21h-162l-426 -753v-558h264v-20h-551v20h264v553l-426 758h-164zM420 1577q0 12 10.5 20.5t22.5 8.5q11 0 19.5 -8.5t8.5 -20.5q0 -13 -8.5 -23t-19.5 -10q-12 0 -22.5 10t-10.5 23zM752 1577 q0 12 9.5 20.5t22.5 8.5q12 0 20.5 -8.5t8.5 -20.5q0 -14 -8.5 -23.5t-20.5 -9.5q-13 0 -22.5 9.5t-9.5 23.5z" />
<glyph unicode="&#x2c6;" horiz-adv-x="614" d="M55 1079l244 357h18l242 -357h-24l-228 334l-227 -334h-25z" />
<glyph unicode="&#x2dc;" horiz-adv-x="598" d="M55 1212q0 59 28.5 101.5t80.5 42.5q25 0 48.5 -12.5t36.5 -25t36 -38.5l45 -47q32 -37 53 -52.5t49 -15.5q41 0 65.5 34.5t24.5 92.5v35h19q2 -14 2 -39q0 -59 -28.5 -101t-80.5 -42q-25 0 -48.5 12.5t-36.5 25t-36 38.5l-45 49q-32 36 -53 50.5t-49 14.5 q-41 0 -65.5 -34t-24.5 -91v-36h-19q-2 16 -2 38z" />
<glyph unicode="&#x2000;" horiz-adv-x="896" />
<glyph unicode="&#x2001;" horiz-adv-x="1792" />
<glyph unicode="&#x2002;" horiz-adv-x="896" />
<glyph unicode="&#x2003;" horiz-adv-x="1792" />
<glyph unicode="&#x2004;" horiz-adv-x="597" />
<glyph unicode="&#x2005;" horiz-adv-x="448" />
<glyph unicode="&#x2006;" horiz-adv-x="298" />
<glyph unicode="&#x2007;" horiz-adv-x="298" />
<glyph unicode="&#x2008;" horiz-adv-x="224" />
<glyph unicode="&#x2009;" horiz-adv-x="358" />
<glyph unicode="&#x200a;" horiz-adv-x="99" />
<glyph unicode="&#x2010;" horiz-adv-x="507" d="M82 494v20h342v-20h-342z" />
<glyph unicode="&#x2011;" horiz-adv-x="507" d="M82 494v20h342v-20h-342z" />
<glyph unicode="&#x2012;" horiz-adv-x="507" d="M82 494v20h342v-20h-342z" />
<glyph unicode="&#x2013;" horiz-adv-x="931" d="M82 494v20h768v-20h-768z" />
<glyph unicode="&#x2014;" horiz-adv-x="1863" d="M82 494v20h1700v-20h-1700z" />
<glyph unicode="&#x2018;" horiz-adv-x="454" d="M145 1200q0 68 43 123t111 82l6 -16q-65 -30 -102 -79t-37 -110q0 -59 37 -96q2 14 11 22.5t24 8.5q32 0 32 -33q0 -15 -9 -25t-23 -10q-33 0 -63 36.5t-30 96.5z" />
<glyph unicode="&#x2019;" horiz-adv-x="454" d="M150 1067q139 65 139 186q0 65 -37 97q-1 -13 -11 -22t-24 -9q-15 0 -24 10t-9 25t9.5 23.5t23.5 8.5q33 0 62.5 -36.5t29.5 -96.5q0 -67 -42.5 -121t-110.5 -83z" />
<glyph unicode="&#x201a;" horiz-adv-x="454" d="M150 -268q139 65 139 188q0 59 -37 96q-3 -30 -35 -30q-33 0 -33 32q0 15 9.5 24t23.5 9q33 0 62.5 -35.5t29.5 -95.5q0 -69 -42.5 -123.5t-110.5 -81.5z" />
<glyph unicode="&#x201c;" horiz-adv-x="772" d="M145 1200q0 68 43 123t111 82l6 -16q-65 -30 -102 -79t-37 -110q0 -59 37 -96q2 14 11 22.5t24 8.5q32 0 32 -33q0 -15 -9 -25t-23 -10q-33 0 -63 36.5t-30 96.5zM463 1200q0 69 42.5 123.5t110.5 81.5l7 -16q-65 -30 -102.5 -79t-37.5 -110q0 -59 37 -96q2 14 11 22.5 t24 8.5t24 -9t9 -24t-9.5 -25t-23.5 -10q-33 0 -62.5 36.5t-29.5 96.5z" />
<glyph unicode="&#x201d;" horiz-adv-x="772" d="M150 1067q139 65 139 186q0 65 -37 97q-1 -13 -11 -22t-24 -9q-15 0 -24 10t-9 25t9.5 23.5t23.5 8.5q33 0 62.5 -36.5t29.5 -96.5q0 -67 -42.5 -121t-110.5 -83zM467 1067q139 65 139 186q0 65 -37 97q-2 -14 -11.5 -22.5t-22.5 -8.5q-15 0 -24 10t-9 25t9.5 23.5 t23.5 8.5q33 0 62.5 -36.5t29.5 -96.5q0 -67 -42.5 -121t-111.5 -83z" />
<glyph unicode="&#x201e;" horiz-adv-x="772" d="M150 -268q139 65 139 188q0 59 -37 96q-3 -30 -35 -30q-33 0 -33 32q0 15 9.5 24t23.5 9q33 0 62.5 -35.5t29.5 -95.5q0 -69 -42.5 -123.5t-110.5 -81.5zM467 -268q139 65 139 188q0 59 -37 96q-3 -30 -34 -30q-33 0 -33 32q0 15 9.5 24t23.5 9q33 0 62.5 -35.5 t29.5 -95.5q0 -68 -43 -123t-111 -82z" />
<glyph unicode="&#x2022;" horiz-adv-x="819" d="M158 502q0 104 74 178t178 74t178 -74t74 -178t-74 -178t-178 -74t-178 74t-74 178z" />
<glyph unicode="&#x2026;" horiz-adv-x="1005" d="M154 18q0 14 8.5 23.5t23.5 9.5t24 -9.5t9 -23.5q0 -32 -33 -32q-32 0 -32 32zM471 18q0 14 9 23.5t24 9.5t24 -9.5t9 -23.5q0 -32 -33 -32t-33 32zM786 18q0 14 9 23.5t24 9.5t24 -9.5t9 -23.5q0 -32 -33 -32t-33 32z" />
<glyph unicode="&#x202f;" horiz-adv-x="358" />
<glyph unicode="&#x2039;" horiz-adv-x="505" d="M109 506l241 315l17 -12l-228 -303l228 -305l-17 -13z" />
<glyph unicode="&#x203a;" horiz-adv-x="505" d="M137 201l230 305l-230 303l19 12l241 -315l-241 -318z" />
<glyph unicode="&#x205f;" horiz-adv-x="448" />
<glyph unicode="&#x20ac;" d="M35 471v21h172q-8 57 -8 139q0 40 4 114h-168v21h170q28 245 149 368t299 123q156 0 275 -75v-281h-23v273q-111 63 -252 63q-168 0 -282.5 -117t-141.5 -354h463v-21h-467q-4 -74 -4 -114q0 -82 8 -139h463v-21h-461q30 -224 138.5 -345.5t261.5 -121.5q189 0 315 176 l17 -12q-63 -84 -141.5 -134t-188.5 -50q-165 0 -279.5 127t-144.5 360h-174z" />
<glyph unicode="&#x2122;" horiz-adv-x="1101" d="M51 1233v119h369v-119h-21v100h-151v-473h94v-20h-211v20h94v473h-153v-100h-21zM477 840v20h76v471h-76v21h113l158 -455q8 -25 10 -37q4 20 10 35l156 457h112v-21h-73v-471h73v-20h-164v20h68v469q-1 -2 -2 -7t-2 -7l-166 -475h-27l-165 475q-1 2 -2.5 6t-2.5 6v-467 h70v-20h-166z" />
<glyph unicode="&#x25fc;" horiz-adv-x="921" d="M0 0v922h922v-922h-922z" />
</font>
</defs>
</svg>
