<?xml version="1.0" encoding="UTF-8"?>
<svg xmlns="http://www.w3.org/2000/svg" xmlns:xlink="http://www.w3.org/1999/xlink" version="1.2" >
<font id="Bison ThinOutline Itallic">
<font-face  font-family="Bison" units-per-em="1000" ascent="790" descent="-200" font-style="italic" font-weight="900" font-stretch="normal" slope="-10" cap-height="700" x-height="500" underline-position="-75" underline-thickness="50" />
<missing-glyph  horiz-adv-x="600" d="" />
<glyph glyph-name="space" unicode="&#x20;" horiz-adv-x="155" d="" />
<glyph glyph-name="A" unicode="A" horiz-adv-x="408" d="M302 -2 L301 143 L158 143 L104 -2 L13 -2 L285 702 L370 702 L393 -2 L302 -2 Z M306 2 L389 2 L366 698 L287 698 L19 2 L102 2 L156 147 L305 147 L306 2 Z M191 232 L300 232 L296 520 L191 232 Z M185 228 L300 542 L304 228 L185 228 Z " />
<glyph glyph-name="Aacute" unicode="&#xc1;" horiz-adv-x="408" d="M302 -2 L301 143 L158 143 L104 -2 L13 -2 L285 702 L370 702 L393 -2 L302 -2 Z M306 2 L389 2 L366 698 L287 698 L19 2 L102 2 L156 147 L305 147 L306 2 Z M191 232 L300 232 L296 520 L191 232 Z M185 228 L300 542 L304 228 L185 228 Z M395 840 L313 739 L358 739 L475 840 L395 840 Z M393 844 L485 844 L360 735 L305 735 L393 844 Z " />
<glyph glyph-name="Abreve" unicode="&#x102;" horiz-adv-x="408" d="M302 -2 L301 143 L158 143 L104 -2 L13 -2 L285 702 L370 702 L393 -2 L302 -2 Z M306 2 L389 2 L366 698 L287 698 L19 2 L102 2 L156 147 L305 147 L306 2 Z M191 232 L300 232 L296 520 L191 232 Z M185 228 L300 542 L304 228 L185 228 Z M455 840 Q448 797 412.5 766 Q377 735 334 735 Q296 735 271.5 759.5 Q247 784 247 821 Q247 826 249 840 L296 840 Q295 836 295 828 Q295 808 308.5 795 Q322 782 342 782 Q366 782 385 799 Q404 816 408 840 L455 840 Z M412 836 Q407 811 386.5 794.5 Q366 778 342 778 Q320 778 305.5 792 Q291 806 291 827 L292 836 L253 836 Q252 831 252 820 Q252 785 275 762 Q298 739 334 739 Q374 739 408.5 767.5 Q443 796 451 836 L412 836 Z " />
<glyph glyph-name="uni1EAE" unicode="&#x1eae;" horiz-adv-x="408" d="M302 -2 L301 143 L158 143 L104 -2 L13 -2 L285 702 L370 702 L393 -2 L302 -2 Z M306 2 L389 2 L366 698 L287 698 L19 2 L102 2 L156 147 L305 147 L306 2 Z M191 232 L300 232 L296 520 L191 232 Z M185 228 L300 542 L304 228 L185 228 Z M455 840 Q448 797 412.5 766 Q377 735 334 735 Q296 735 271.5 759.5 Q247 784 247 821 Q247 826 249 840 L296 840 Q295 836 295 828 Q295 808 308.5 795 Q322 782 342 782 Q366 782 385 799 Q404 816 408 840 L455 840 Z M412 836 Q407 811 386.5 794.5 Q366 778 342 778 Q320 778 305.5 792 Q291 806 291 827 L292 836 L253 836 Q252 831 252 820 Q252 785 275 762 Q298 739 334 739 Q374 739 408.5 767.5 Q443 796 451 836 L412 836 Z M417 969 L335 868 L380 868 L497 969 L417 969 Z M415 973 L507 973 L382 864 L327 864 L415 973 Z " />
<glyph glyph-name="uni1EB6" unicode="&#x1eb6;" horiz-adv-x="408" d="M302 -2 L301 143 L158 143 L104 -2 L13 -2 L285 702 L370 702 L393 -2 L302 -2 Z M306 2 L389 2 L366 698 L287 698 L19 2 L102 2 L156 147 L305 147 L306 2 Z M191 232 L300 232 L296 520 L191 232 Z M185 228 L300 542 L304 228 L185 228 Z M455 840 Q448 797 412.5 766 Q377 735 334 735 Q296 735 271.5 759.5 Q247 784 247 821 Q247 826 249 840 L296 840 Q295 836 295 828 Q295 808 308.5 795 Q322 782 342 782 Q366 782 385 799 Q404 816 408 840 L455 840 Z M412 836 Q407 811 386.5 794.5 Q366 778 342 778 Q320 778 305.5 792 Q291 806 291 827 L292 836 L253 836 Q252 831 252 820 Q252 785 275 762 Q298 739 334 739 Q374 739 408.5 767.5 Q443 796 451 836 L412 836 Z M197 -42 Q177 -42 161 -57 Q145 -72 145 -93 Q145 -108 155 -118 Q165 -128 181 -128 Q201 -128 217 -113 Q233 -98 233 -77 Q233 -62 223 -52 Q213 -42 197 -42 Z M197 -38 Q214 -38 225.5 -49.5 Q237 -61 237 -78 Q237 -99 219.5 -115.5 Q202 -132 181 -132 Q164 -132 152.5 -120.5 Q141 -109 141 -92 Q141 -71 158.5 -54.5 Q176 -38 197 -38 Z " />
<glyph glyph-name="uni1EB0" unicode="&#x1eb0;" horiz-adv-x="408" d="M104 -2 L13 -2 L284 702 L369 702 L393 -2 L302 -2 L300 143 L157 143 L104 -2 Z M102 2 L155 147 L304 147 L306 2 L389 2 L365 698 L286 698 L19 2 L102 2 Z M299 232 L295 520 L190 232 L299 232 Z M303 228 L184 228 L299 542 L303 228 Z M295 840 Q294 836 294 828 Q294 808 307.5 795 Q321 782 341 782 Q365 782 384 799 Q403 816 407 840 L454 840 Q447 797 411.5 766 Q376 735 333 735 Q295 735 270.5 759.5 Q246 784 246 821 Q246 826 248 840 L295 840 Z M252 836 Q251 831 251 820 Q251 785 274 762 Q297 739 333 739 Q373 739 407.5 767.5 Q442 796 450 836 L411 836 Q406 811 385.5 794.5 Q365 778 341 778 Q319 778 304.5 792 Q290 806 290 827 L291 836 L252 836 Z M332 969 L251 969 L333 868 L379 868 L332 969 Z M334 973 L385 864 L331 864 L243 973 L334 973 Z " />
<glyph glyph-name="uni1EB2" unicode="&#x1eb2;" horiz-adv-x="408" d="M104 -2 L13 -2 L284 702 L369 702 L393 -2 L302 -2 L300 143 L157 143 L104 -2 Z M102 2 L155 147 L304 147 L306 2 L389 2 L365 698 L286 698 L19 2 L102 2 Z M299 232 L295 520 L190 232 L299 232 Z M303 228 L184 228 L299 542 L303 228 Z M295 840 Q294 836 294 828 Q294 808 307.5 795 Q321 782 341 782 Q365 782 384 799 Q403 816 407 840 L454 840 Q447 797 411.5 766 Q376 735 333 735 Q295 735 270.5 759.5 Q246 784 246 821 Q246 826 248 840 L295 840 Z M252 836 Q251 831 251 820 Q251 785 274 762 Q297 739 333 739 Q373 739 407.5 767.5 Q442 796 450 836 L411 836 Q406 811 385.5 794.5 Q365 778 341 778 Q319 778 304.5 792 Q290 806 290 827 L291 836 L252 836 Z M295 969 Q332 969 357 944.5 Q382 920 382 883 Q382 878 380 864 L333 864 Q334 868 334 875 Q334 896 320.5 909.5 Q307 923 286 922 L253 961 Q270 969 295 969 Z M295 965 Q276 965 259 959 L288 926 Q312 926 326 909 Q340 892 337 868 L376 868 Q377 873 377 884 Q377 919 354 942 Q331 965 295 965 Z " />
<glyph glyph-name="uni1EB4" unicode="&#x1eb4;" horiz-adv-x="408" d="M104 -2 L13 -2 L284 702 L369 702 L393 -2 L302 -2 L300 143 L157 143 L104 -2 Z M102 2 L155 147 L304 147 L306 2 L389 2 L365 698 L286 698 L19 2 L102 2 Z M299 232 L295 520 L190 232 L299 232 Z M303 228 L184 228 L299 542 L303 228 Z M295 840 Q294 836 294 828 Q294 808 307.5 795 Q321 782 341 782 Q365 782 384 799 Q403 816 407 840 L454 840 Q447 797 411.5 766 Q376 735 333 735 Q295 735 270.5 759.5 Q246 784 246 821 Q246 826 248 840 L295 840 Z M252 836 Q251 831 251 820 Q251 785 274 762 Q297 739 333 739 Q373 739 407.5 767.5 Q442 796 450 836 L411 836 Q406 811 385.5 794.5 Q365 778 341 778 Q319 778 304.5 792 Q290 806 290 827 L291 836 L252 836 Z M260 868 Q290 898 313 898 Q331 898 351 885 Q376 867 403 867 Q443 867 489 913 L463 936 Q438 911 417 907 Q397 904 377 918 Q346 938 320 938 Q280 938 234 892 L260 868 Z M228 892 Q278 942 321 942 Q348 942 379 922 Q399 908 417 911 Q438 916 463 942 L495 913 Q448 863 402 863 Q375 863 349 881 Q329 894 313 894 Q303 894 289 886 Q275 878 260 862 L228 892 Z " />
<glyph glyph-name="uni01CD" unicode="&#x1cd;" horiz-adv-x="408" d="M302 -2 L301 143 L158 143 L104 -2 L13 -2 L285 702 L370 702 L393 -2 L302 -2 Z M306 2 L389 2 L366 698 L287 698 L19 2 L102 2 L156 147 L305 147 L306 2 Z M191 232 L300 232 L296 520 L191 232 Z M185 228 L300 542 L304 228 L185 228 Z M466 842 L377 735 L290 735 L238 842 L293 842 L342 786 L411 842 L466 842 Z M458 838 L413 838 L342 780 L291 838 L244 838 L292 739 L375 739 L458 838 Z " />
<glyph glyph-name="Acircumflex" unicode="&#xc2;" horiz-adv-x="408" d="M302 -2 L301 143 L158 143 L104 -2 L13 -2 L285 702 L370 702 L393 -2 L302 -2 Z M306 2 L389 2 L366 698 L287 698 L19 2 L102 2 L156 147 L305 147 L306 2 Z M191 232 L300 232 L296 520 L191 232 Z M185 228 L300 542 L304 228 L185 228 Z M447 735 L393 735 L344 791 L275 735 L219 735 L308 842 L395 842 L447 735 Z M441 739 L393 838 L310 838 L227 739 L273 739 L344 797 L395 739 L441 739 Z " />
<glyph glyph-name="uni1EA4" unicode="&#x1ea4;" horiz-adv-x="462" d="M302 -2 L301 143 L158 143 L104 -2 L13 -2 L285 702 L370 702 L393 -2 L302 -2 Z M306 2 L389 2 L366 698 L287 698 L19 2 L102 2 L156 147 L305 147 L306 2 Z M191 232 L300 232 L296 520 L191 232 Z M185 228 L300 542 L304 228 L185 228 Z M447 735 L393 735 L344 791 L275 735 L219 735 L308 842 L395 842 L447 735 Z M441 739 L393 838 L310 838 L227 739 L273 739 L344 797 L395 739 L441 739 Z M526 940 L444 839 L489 839 L606 940 L526 940 Z M524 944 L616 944 L491 835 L436 835 L524 944 Z " />
<glyph glyph-name="uni1EAC" unicode="&#x1eac;" horiz-adv-x="408" d="M302 -2 L301 143 L158 143 L104 -2 L13 -2 L285 702 L370 702 L393 -2 L302 -2 Z M306 2 L389 2 L366 698 L287 698 L19 2 L102 2 L156 147 L305 147 L306 2 Z M191 232 L300 232 L296 520 L191 232 Z M185 228 L300 542 L304 228 L185 228 Z M197 -42 Q177 -42 161 -57 Q145 -72 145 -93 Q145 -108 155 -118 Q165 -128 181 -128 Q201 -128 217 -113 Q233 -98 233 -77 Q233 -62 223 -52 Q213 -42 197 -42 Z M197 -38 Q214 -38 225.5 -49.5 Q237 -61 237 -78 Q237 -99 219.5 -115.5 Q202 -132 181 -132 Q164 -132 152.5 -120.5 Q141 -109 141 -92 Q141 -71 158.5 -54.5 Q176 -38 197 -38 Z M447 735 L393 735 L344 791 L275 735 L219 735 L308 842 L395 842 L447 735 Z M441 739 L393 838 L310 838 L227 739 L273 739 L344 797 L395 739 L441 739 Z " />
<glyph glyph-name="uni1EA6" unicode="&#x1ea6;" horiz-adv-x="408" d="M302 -2 L301 143 L158 143 L104 -2 L13 -2 L285 702 L370 702 L393 -2 L302 -2 Z M306 2 L389 2 L366 698 L287 698 L19 2 L102 2 L156 147 L305 147 L306 2 Z M191 232 L300 232 L296 520 L191 232 Z M185 228 L300 542 L304 228 L185 228 Z M447 735 L393 735 L344 791 L275 735 L219 735 L308 842 L395 842 L447 735 Z M441 739 L393 838 L310 838 L227 739 L273 739 L344 797 L395 739 L441 739 Z M440 940 L359 940 L441 839 L487 839 L440 940 Z M442 944 L493 835 L439 835 L351 944 L442 944 Z " />
<glyph glyph-name="uni1EA8" unicode="&#x1ea8;" horiz-adv-x="408" d="M302 -2 L301 143 L158 143 L104 -2 L13 -2 L285 702 L370 702 L393 -2 L302 -2 Z M306 2 L389 2 L366 698 L287 698 L19 2 L102 2 L156 147 L305 147 L306 2 Z M191 232 L300 232 L296 520 L191 232 Z M185 228 L300 542 L304 228 L185 228 Z M447 735 L393 735 L344 791 L275 735 L219 735 L308 842 L395 842 L447 735 Z M441 739 L393 838 L310 838 L227 739 L273 739 L344 797 L395 739 L441 739 Z M399 940 Q437 940 462 915 Q487 890 487 853 Q487 847 485 835 L438 835 Q439 839 439 846 Q439 867 425.5 880.5 Q412 894 391 893 L358 932 Q377 940 399 940 Z M399 936 Q382 936 364 930 L393 897 Q417 897 431 880 Q445 863 442 839 L481 839 Q482 844 482 854 Q482 889 458.5 912.5 Q435 936 399 936 Z " />
<glyph glyph-name="uni1EAA" unicode="&#x1eaa;" horiz-adv-x="408" d="M302 -2 L301 143 L158 143 L104 -2 L13 -2 L285 702 L370 702 L393 -2 L302 -2 Z M306 2 L389 2 L366 698 L287 698 L19 2 L102 2 L156 147 L305 147 L306 2 Z M191 232 L300 232 L296 520 L191 232 Z M185 228 L300 542 L304 228 L185 228 Z M257 868 Q287 898 310 898 Q328 898 348 885 Q374 867 400 867 Q440 867 486 913 L460 936 Q435 911 414 907 Q394 904 374 918 Q343 938 317 938 Q277 938 231 892 L257 868 Z M225 892 Q275 942 318 942 Q345 942 376 922 Q396 908 414 911 Q435 916 460 942 L492 913 Q445 863 399 863 Q372 863 346 881 Q326 894 310 894 Q300 894 286 886 Q272 878 257 862 L225 892 Z M447 735 L393 735 L344 791 L275 735 L219 735 L308 842 L395 842 L447 735 Z M441 739 L393 838 L310 838 L227 739 L273 739 L344 797 L395 739 L441 739 Z " />
<glyph glyph-name="Adieresis" unicode="&#xc4;" horiz-adv-x="408" d="M302 -2 L301 143 L158 143 L104 -2 L13 -2 L285 702 L370 702 L393 -2 L302 -2 Z M306 2 L389 2 L366 698 L287 698 L19 2 L102 2 L156 147 L305 147 L306 2 Z M191 232 L300 232 L296 520 L191 232 Z M185 228 L300 542 L304 228 L185 228 Z M313 782 Q316 800 306 812.5 Q296 825 278 825 Q260 825 245 812.5 Q230 800 227 782 Q226 779 226 773 Q226 759 236 749 Q246 739 262 739 Q280 739 294.5 751.5 Q309 764 313 782 Z M317 782 Q313 762 297 748.5 Q281 735 262 735 Q245 735 233.5 746 Q222 757 222 773 Q222 779 223 782 Q226 801 242 815 Q258 829 278 829 Q297 829 308.5 815.5 Q320 802 317 782 Z M457 782 Q460 800 450 812.5 Q440 825 422 825 Q404 825 389 812.5 Q374 800 371 782 Q370 779 370 773 Q370 759 380 749 Q390 739 406 739 Q424 739 438.5 751.5 Q453 764 457 782 Z M461 782 Q457 762 441 748.5 Q425 735 406 735 Q389 735 377.5 746 Q366 757 366 773 Q366 779 367 782 Q370 801 386 815 Q402 829 422 829 Q441 829 452.5 815.5 Q464 802 461 782 Z " />
<glyph glyph-name="uni01DE" unicode="&#x1de;" horiz-adv-x="408" d="M302 -2 L301 143 L158 143 L104 -2 L13 -2 L285 702 L370 702 L393 -2 L302 -2 Z M306 2 L389 2 L366 698 L287 698 L19 2 L102 2 L156 147 L305 147 L306 2 Z M191 232 L300 232 L296 520 L191 232 Z M185 228 L300 542 L304 228 L185 228 Z M313 782 Q316 800 306 812.5 Q296 825 278 825 Q260 825 245 812.5 Q230 800 227 782 Q226 779 226 773 Q226 759 236 749 Q246 739 262 739 Q280 739 294.5 751.5 Q309 764 313 782 Z M317 782 Q313 762 297 748.5 Q281 735 262 735 Q245 735 233.5 746 Q222 757 222 773 Q222 779 223 782 Q226 801 242 815 Q258 829 278 829 Q297 829 308.5 815.5 Q320 802 317 782 Z M457 782 Q460 800 450 812.5 Q440 825 422 825 Q404 825 389 812.5 Q374 800 371 782 Q370 779 370 773 Q370 759 380 749 Q390 739 406 739 Q424 739 438.5 751.5 Q453 764 457 782 Z M461 782 Q457 762 441 748.5 Q425 735 406 735 Q389 735 377.5 746 Q366 757 366 773 Q366 779 367 782 Q370 801 386 815 Q402 829 422 829 Q441 829 452.5 815.5 Q464 802 461 782 Z M507 867 L514 908 L214 908 L207 867 L507 867 Z M511 863 L203 863 L210 912 L518 912 L511 863 Z " />
<glyph glyph-name="uni1EA0" unicode="&#x1ea0;" horiz-adv-x="408" d="M302 -2 L301 143 L158 143 L104 -2 L13 -2 L285 702 L370 702 L393 -2 L302 -2 Z M306 2 L389 2 L366 698 L287 698 L19 2 L102 2 L156 147 L305 147 L306 2 Z M191 232 L300 232 L296 520 L191 232 Z M185 228 L300 542 L304 228 L185 228 Z M197 -42 Q177 -42 161 -57 Q145 -72 145 -93 Q145 -108 155 -118 Q165 -128 181 -128 Q201 -128 217 -113 Q233 -98 233 -77 Q233 -62 223 -52 Q213 -42 197 -42 Z M197 -38 Q214 -38 225.5 -49.5 Q237 -61 237 -78 Q237 -99 219.5 -115.5 Q202 -132 181 -132 Q164 -132 152.5 -120.5 Q141 -109 141 -92 Q141 -71 158.5 -54.5 Q176 -38 197 -38 Z " />
<glyph glyph-name="Agrave" unicode="&#xc0;" horiz-adv-x="408" d="M302 -2 L301 143 L158 143 L104 -2 L13 -2 L285 702 L370 702 L393 -2 L302 -2 Z M306 2 L389 2 L366 698 L287 698 L19 2 L102 2 L156 147 L305 147 L306 2 Z M191 232 L300 232 L296 520 L191 232 Z M185 228 L300 542 L304 228 L185 228 Z M309 840 L228 840 L310 739 L356 739 L309 840 Z M311 844 L362 735 L308 735 L220 844 L311 844 Z " />
<glyph glyph-name="uni1EA2" unicode="&#x1ea2;" horiz-adv-x="408" d="M302 -2 L301 143 L158 143 L104 -2 L13 -2 L285 702 L370 702 L393 -2 L302 -2 Z M306 2 L389 2 L366 698 L287 698 L19 2 L102 2 L156 147 L305 147 L306 2 Z M191 232 L300 232 L296 520 L191 232 Z M185 228 L300 542 L304 228 L185 228 Z M273 840 Q310 840 335 815.5 Q360 791 360 754 Q360 749 358 735 L311 735 Q312 739 312 747 Q312 767 298.5 780.5 Q285 794 264 793 L232 832 Q248 840 273 840 Z M273 836 Q253 836 238 830 L266 797 Q288 796 302 782.5 Q316 769 316 748 L315 739 L354 739 Q355 744 355 755 Q355 790 332 813 Q309 836 273 836 Z " />
<glyph glyph-name="Amacron" unicode="&#x100;" horiz-adv-x="408" d="M302 -2 L301 143 L158 143 L104 -2 L13 -2 L285 702 L370 702 L393 -2 L302 -2 Z M306 2 L389 2 L366 698 L287 698 L19 2 L102 2 L156 147 L305 147 L306 2 Z M191 232 L300 232 L296 520 L191 232 Z M185 228 L300 542 L304 228 L185 228 Z M483 739 L491 780 L192 780 L184 739 L483 739 Z M487 735 L180 735 L188 784 L495 784 L487 735 Z " />
<glyph glyph-name="Aogonek" unicode="&#x104;" horiz-adv-x="408" d="M327 -59 Q323 -79 361 -79 L372 -79 L364 -128 L343 -128 Q304 -128 283.5 -116 Q263 -104 263 -82 Q263 -38 345 2 L346 -2 L302 -2 L301 143 L158 143 L104 -2 L13 -2 L285 702 L370 702 L393 -1 Q368 -9 348.5 -26.5 Q329 -44 327 -59 Z M323 -59 Q325 -43 344.5 -25 Q364 -7 389 1 L366 698 L287 698 L19 2 L102 2 L156 147 L305 147 L306 2 L346 2 L347 -2 Q267 -41 267 -82 Q267 -103 287 -113.5 Q307 -124 343 -124 L360 -124 L368 -83 L361 -83 Q319 -83 323 -59 Z M191 232 L300 232 L296 520 L191 232 Z M185 228 L300 542 L304 228 L185 228 Z " />
<glyph glyph-name="Aring" unicode="&#xc5;" horiz-adv-x="408" d="M302 -2 L301 143 L158 143 L104 -2 L13 -2 L285 702 L370 702 L393 -2 L302 -2 Z M306 2 L389 2 L366 698 L287 698 L19 2 L102 2 L156 147 L305 147 L306 2 Z M191 232 L300 232 L296 520 L191 232 Z M185 228 L300 542 L304 228 L185 228 Z M334 742 Q363 742 385.5 764 Q408 786 408 814 Q408 836 393.5 850.5 Q379 865 357 865 Q329 865 306 842 Q283 819 283 791 Q283 770 297.5 756 Q312 742 334 742 Z M334 738 Q310 738 294.5 753 Q279 768 279 791 Q279 822 303 845.5 Q327 869 357 869 Q381 869 396.5 853 Q412 837 412 814 Q412 783 388.5 760.5 Q365 738 334 738 Z M349 826 Q357 826 362.5 820.5 Q368 815 368 807 Q368 796 360 788.5 Q352 781 342 781 Q334 781 328.5 786.5 Q323 792 323 800 Q323 810 331 818 Q339 826 349 826 Z M349 822 Q341 822 334.5 816.5 Q328 811 327 803 L327 800 Q327 793 331 789 Q335 785 342 785 Q350 785 356.5 790.5 Q363 796 364 803 L364 807 Q364 814 360 818 Q356 822 349 822 Z " />
<glyph glyph-name="Atilde" unicode="&#xc3;" horiz-adv-x="408" d="M302 -2 L301 143 L158 143 L104 -2 L13 -2 L285 702 L370 702 L393 -2 L302 -2 Z M306 2 L389 2 L366 698 L287 698 L19 2 L102 2 L156 147 L305 147 L306 2 Z M191 232 L300 232 L296 520 L191 232 Z M185 228 L300 542 L304 228 L185 228 Z M234 738 Q264 768 287 768 Q305 768 325 755 Q351 737 377 737 Q417 737 463 783 L437 806 Q412 781 391 777 Q373 774 351 788 Q320 808 295 808 Q254 808 208 762 L234 738 Z M202 762 Q252 812 295 812 Q322 812 353 792 Q374 778 391 781 Q412 786 437 812 L469 783 Q422 733 376 733 Q349 733 323 751 Q303 764 287 764 Q277 764 263 756 Q249 748 234 732 L202 762 Z " />
<glyph glyph-name="AE" unicode="&#xc6;" horiz-adv-x="568" d="M647 613 L457 613 L420 403 L552 403 L537 314 L405 314 L364 87 L554 87 L539 -2 L260 -2 L282 124 L159 124 L105 -2 L13 -2 L316 702 L662 702 L647 613 Z M643 617 L658 698 L318 698 L19 2 L103 2 L157 128 L286 128 L264 2 L535 2 L550 83 L360 83 L401 318 L533 318 L548 399 L416 399 L453 617 L643 617 Z M198 213 L297 213 L365 599 L198 213 Z M192 209 L375 631 L301 209 L192 209 Z " />
<glyph glyph-name="B" unicode="B" horiz-adv-x="386" d="M199 2 Q264 2 315 39 Q369 81 383 161 L395 227 Q399 255 399 265 Q399 325 355 357 Q382 378 398.5 405.5 Q415 433 422 471 L434 538 Q437 559 437 578 Q437 632 409 661 Q375 697 306 697 L165 697 L42 2 L199 2 Z M161 701 L306 701 Q377 701 411 663 Q442 632 442 578 Q442 566 438 538 L426 471 Q413 397 361 357 Q403 324 403 265 Q403 246 399 227 L387 161 Q373 78 317 35 Q267 -2 199 -2 L38 -2 L161 701 Z M253 309 Q317 309 317 253 Q317 241 314 227 L302 161 Q294 117 272 98 Q249 83 214 83 L138 83 L177 309 L253 309 Z M142 87 L214 87 Q251 87 270 102 Q291 119 298 161 L310 227 Q313 242 313 253 Q313 305 253 305 L181 305 L142 87 Z M231 616 L291 616 Q324 616 339.5 603 Q355 590 355 562 Q355 556 353 538 L341 471 Q334 428 312.5 409 Q291 390 252 390 L192 390 L231 616 Z M252 394 Q289 394 309 412 Q329 430 337 471 L349 538 Q351 547 351 563 Q351 589 337 600.5 Q323 612 291 612 L235 612 L196 394 L252 394 Z " />
<glyph glyph-name="uni1E04" unicode="&#x1e04;" horiz-adv-x="386" d="M199 2 Q264 2 315 39 Q369 81 383 161 L395 227 Q399 255 399 265 Q399 325 355 357 Q382 378 398.5 405.5 Q415 433 422 471 L434 538 Q437 559 437 578 Q437 632 409 661 Q375 697 306 697 L165 697 L42 2 L199 2 Z M161 701 L306 701 Q377 701 411 663 Q442 632 442 578 Q442 566 438 538 L426 471 Q413 397 361 357 Q403 324 403 265 Q403 246 399 227 L387 161 Q373 78 317 35 Q267 -2 199 -2 L38 -2 L161 701 Z M253 309 Q317 309 317 253 Q317 241 314 227 L302 161 Q294 117 272 98 Q249 83 214 83 L138 83 L177 309 L253 309 Z M142 87 L214 87 Q251 87 270 102 Q291 119 298 161 L310 227 Q313 242 313 253 Q313 305 253 305 L181 305 L142 87 Z M231 616 L291 616 Q324 616 339.5 603 Q355 590 355 562 Q355 556 353 538 L341 471 Q334 428 312.5 409 Q291 390 252 390 L192 390 L231 616 Z M252 394 Q289 394 309 412 Q329 430 337 471 L349 538 Q351 547 351 563 Q351 589 337 600.5 Q323 612 291 612 L235 612 L196 394 L252 394 Z M192 -42 Q172 -42 156 -57 Q140 -72 140 -93 Q140 -108 150 -118 Q160 -128 176 -128 Q196 -128 212 -113 Q228 -98 228 -77 Q228 -62 218 -52 Q208 -42 192 -42 Z M192 -38 Q209 -38 220.5 -49.5 Q232 -61 232 -78 Q232 -99 214.5 -115.5 Q197 -132 176 -132 Q159 -132 147.5 -120.5 Q136 -109 136 -92 Q136 -71 153.5 -54.5 Q171 -38 192 -38 Z " />
<glyph glyph-name="uni0181" unicode="&#x181;" horiz-adv-x="431" d="M406 357 Q448 324 448 265 Q448 246 444 227 L432 161 Q418 78 362 35 Q312 -2 244 -2 L83 -2 L199 654 L159 654 Q151 654 144.5 648 Q138 642 137 634 L90 634 Q94 662 116 681.5 Q138 701 166 701 L351 701 Q422 701 456 663 Q487 632 487 578 Q487 566 483 538 L471 471 Q458 397 406 357 Z M400 357 Q427 378 443.5 405.5 Q460 433 467 471 L479 538 Q482 559 482 578 Q482 632 454 661 Q420 697 351 697 L166 697 Q141 697 120 680 Q99 663 94 638 L133 638 Q135 646 143 652 Q151 658 159 658 L203 658 L87 2 L244 2 Q309 2 360 39 Q414 81 428 161 L440 227 Q444 255 444 265 Q444 325 400 357 Z M241 394 L297 394 Q334 394 354 412 Q374 430 382 471 L394 538 Q396 547 396 563 Q396 589 382 600.5 Q368 612 336 612 L280 612 L241 394 Z M336 616 Q369 616 384.5 603 Q400 590 400 562 Q400 556 398 538 L386 471 Q379 428 357.5 409 Q336 390 297 390 L237 390 L276 616 L336 616 Z M355 227 Q358 242 358 253 Q358 305 298 305 L226 305 L187 87 L259 87 Q296 87 315 102 Q336 119 343 161 L355 227 Z M347 161 Q339 117 317 98 Q295 83 259 83 L183 83 L222 309 L298 309 Q362 309 362 253 Q362 241 359 227 L347 161 Z " />
<glyph glyph-name="uni0243" unicode="&#x243;" horiz-adv-x="406" d="M381 357 Q422 324 422 263 Q422 247 419 227 L407 161 Q392 79 336 35 Q287 -2 218 -2 L103 -2 L58 -2 L85 152 L25 152 L40 241 L100 241 L181 702 L326 702 Q396 702 431 664 Q462 633 462 579 Q462 558 458 539 L446 471 Q433 397 381 357 Z M375 357 Q402 378 418.5 405.5 Q435 433 442 471 L454 539 Q458 558 458 579 Q458 630 429 662 Q393 698 326 698 L185 698 L104 237 L44 237 L29 156 L89 156 L62 2 L103 2 L218 2 Q285 2 334 39 Q388 79 403 161 L415 227 Q418 247 418 263 Q418 325 375 357 Z M216 394 L272 394 Q310 394 330 412.5 Q350 431 357 471 L369 539 Q372 554 372 565 Q372 590 357.5 601.5 Q343 613 311 613 L255 613 L216 394 Z M311 617 Q345 617 360.5 604.5 Q376 592 376 565 Q376 553 373 539 L361 471 Q354 429 332.5 409.5 Q311 390 272 390 L212 390 L251 617 L311 617 Z M330 227 Q332 245 332 252 Q332 280 317.5 292.5 Q303 305 273 305 L201 305 L189 241 L247 241 L232 152 L174 152 L162 87 L233 87 Q271 87 289 102 Q311 119 318 161 L330 227 Z M322 161 Q314 117 291 98 Q270 83 233 83 L158 83 L170 156 L228 156 L243 237 L185 237 L197 309 L273 309 Q305 309 320.5 295 Q336 281 336 251 Q336 245 334 227 L322 161 Z " />
<glyph glyph-name="C" unicode="C" horiz-adv-x="381" d="M190 -7 Q257 -7 307 32 Q362 75 377 156 L393 248 L312 248 L296 156 Q289 114 266.5 94 Q244 74 205 74 Q142 74 142 129 Q142 141 145 156 L213 545 Q220 588 242 607.5 Q264 627 302 627 Q367 627 367 571 Q367 559 364 545 L353 483 L434 483 L445 545 Q449 564 449 585 Q449 636 420 670 Q384 708 317 708 Q251 708 201 669 Q147 625 132 545 L64 156 Q60 136 60 114 Q60 62 88 31 Q124 -7 190 -7 Z M190 -11 Q122 -11 86 29 Q56 60 56 114 Q56 136 60 156 L128 545 Q143 627 199 673 Q248 712 317 712 Q386 712 422 672 Q453 638 453 585 Q453 564 449 545 L438 479 L349 479 L360 545 Q363 559 363 570 Q363 597 348 610 Q333 623 302 623 Q265 623 245 604 Q225 585 217 545 L149 156 Q146 141 146 130 Q146 78 205 78 Q242 78 263 97 Q284 116 292 156 L308 252 L397 252 L381 156 Q366 73 309 28 Q260 -11 190 -11 Z " />
<glyph glyph-name="Cacute" unicode="&#x106;" horiz-adv-x="381" d="M190 -7 Q257 -7 307 32 Q362 75 377 156 L393 248 L312 248 L296 156 Q289 114 266.5 94 Q244 74 205 74 Q142 74 142 129 Q142 141 145 156 L213 545 Q220 588 242 607.5 Q264 627 302 627 Q367 627 367 571 Q367 559 364 545 L353 483 L434 483 L445 545 Q449 564 449 585 Q449 636 420 670 Q384 708 317 708 Q251 708 201 669 Q147 625 132 545 L64 156 Q60 136 60 114 Q60 62 88 31 Q124 -7 190 -7 Z M190 -11 Q122 -11 86 29 Q56 60 56 114 Q56 136 60 156 L128 545 Q143 627 199 673 Q248 712 317 712 Q386 712 422 672 Q453 638 453 585 Q453 564 449 545 L438 479 L349 479 L360 545 Q363 559 363 570 Q363 597 348 610 Q333 623 302 623 Q265 623 245 604 Q225 585 217 545 L149 156 Q146 141 146 130 Q146 78 205 78 Q242 78 263 97 Q284 116 292 156 L308 252 L397 252 L381 156 Q366 73 309 28 Q260 -11 190 -11 Z M382 840 L300 739 L345 739 L462 840 L382 840 Z M380 844 L472 844 L347 735 L292 735 L380 844 Z " />
<glyph glyph-name="Ccaron" unicode="&#x10c;" horiz-adv-x="381" d="M190 -7 Q257 -7 307 32 Q362 75 377 156 L393 248 L312 248 L296 156 Q289 114 266.5 94 Q244 74 205 74 Q142 74 142 129 Q142 141 145 156 L213 545 Q220 588 242 607.5 Q264 627 302 627 Q367 627 367 571 Q367 559 364 545 L353 483 L434 483 L445 545 Q449 564 449 585 Q449 636 420 670 Q384 708 317 708 Q251 708 201 669 Q147 625 132 545 L64 156 Q60 136 60 114 Q60 62 88 31 Q124 -7 190 -7 Z M190 -11 Q122 -11 86 29 Q56 60 56 114 Q56 136 60 156 L128 545 Q143 627 199 673 Q248 712 317 712 Q386 712 422 672 Q453 638 453 585 Q453 564 449 545 L438 479 L349 479 L360 545 Q363 559 363 570 Q363 597 348 610 Q333 623 302 623 Q265 623 245 604 Q225 585 217 545 L149 156 Q146 141 146 130 Q146 78 205 78 Q242 78 263 97 Q284 116 292 156 L308 252 L397 252 L381 156 Q366 73 309 28 Q260 -11 190 -11 Z M454 842 L365 735 L278 735 L226 842 L281 842 L330 786 L399 842 L454 842 Z M446 838 L401 838 L330 780 L279 838 L232 838 L280 739 L363 739 L446 838 Z " />
<glyph glyph-name="Ccedilla" unicode="&#xc7;" horiz-adv-x="381" d="M349 478 L360 544 Q363 559 363 570 Q363 622 303 622 Q266 622 245.5 603.5 Q225 585 217 544 L149 157 Q146 144 146 132 Q146 105 161 92 Q176 79 207 79 Q244 79 264 98 Q284 117 292 157 L308 253 L397 253 L381 157 Q366 76 309 29 Q270 -1 216 -9 L219 -11 Q221 -11 221 -14 Q232 -24 238.5 -33.5 Q245 -43 245 -58 Q245 -89 221.5 -113 Q198 -137 168 -137 Q144 -137 128 -120.5 Q112 -104 112 -81 Q112 -73 113 -69 L160 -69 L160 -73 Q160 -80 164.5 -85 Q169 -90 176 -90 Q184 -90 190 -84 Q196 -78 197 -71 L198 -66 Q198 -62 195 -58.5 Q192 -55 187 -51 Q186 -51 185.5 -50 Q185 -49 185 -49 Q165 -32 168 -9 Q116 -3 85 30 Q56 62 56 115 Q56 137 60 157 L128 544 Q142 627 199 672 Q248 711 318 711 Q351 711 378.5 700.5 Q406 690 422 671 Q453 640 453 584 Q453 572 449 544 L438 478 L349 478 Z M445 544 Q448 565 448 583 Q448 637 419 669 Q403 687 377 697 Q351 707 318 707 Q251 707 201 668 Q145 625 132 544 L64 157 Q60 137 60 116 Q60 66 88 32 Q121 -1 172 -5 Q169 -31 187 -46 L189 -47 Q197 -54 199.5 -59 Q202 -64 201 -71 Q200 -81 192.5 -87.5 Q185 -94 176 -94 Q167 -94 161.5 -88 Q156 -82 156 -73 L117 -73 L116 -82 Q116 -104 131 -118.5 Q146 -133 168 -133 Q197 -133 219 -110.5 Q241 -88 241 -58 Q241 -42 235 -33.5 Q229 -25 217 -15 L218 -15 Q215 -14 213 -11 Q211 -8 212 -5 Q269 1 307 33 Q362 76 377 157 L393 249 L312 249 L296 157 Q289 114 267 94.5 Q245 75 207 75 Q142 75 142 131 Q142 144 145 157 L213 544 Q220 586 242 606 Q264 626 303 626 Q367 626 367 570 Q367 558 364 544 L353 482 L434 482 L445 544 Z " />
<glyph glyph-name="Cdotaccent" unicode="&#x10a;" horiz-adv-x="381" d="M190 -7 Q257 -7 307 32 Q362 75 377 156 L393 248 L312 248 L296 156 Q289 114 266.5 94 Q244 74 205 74 Q142 74 142 129 Q142 141 145 156 L213 545 Q220 588 242 607.5 Q264 627 302 627 Q367 627 367 571 Q367 559 364 545 L353 483 L434 483 L445 545 Q449 564 449 585 Q449 636 420 670 Q384 708 317 708 Q251 708 201 669 Q147 625 132 545 L64 156 Q60 136 60 114 Q60 62 88 31 Q124 -7 190 -7 Z M190 -11 Q122 -11 86 29 Q56 60 56 114 Q56 136 60 156 L128 545 Q143 627 199 673 Q248 712 317 712 Q386 712 422 672 Q453 638 453 585 Q453 564 449 545 L438 479 L349 479 L360 545 Q363 559 363 570 Q363 597 348 610 Q333 623 302 623 Q265 623 245 604 Q225 585 217 545 L149 156 Q146 141 146 130 Q146 78 205 78 Q242 78 263 97 Q284 116 292 156 L308 252 L397 252 L381 156 Q366 73 309 28 Q260 -11 190 -11 Z M373 782 Q376 800 366 812.5 Q356 825 338 825 Q320 825 305 812.5 Q290 800 287 782 Q286 779 286 773 Q286 759 296 749 Q306 739 322 739 Q340 739 354.5 751.5 Q369 764 373 782 Z M377 782 Q373 762 357 748.5 Q341 735 322 735 Q305 735 293.5 746 Q282 757 282 773 Q282 779 283 782 Q286 801 302 815 Q318 829 338 829 Q357 829 368.5 815.5 Q380 802 377 782 Z " />
<glyph glyph-name="uni0187" unicode="&#x187;" horiz-adv-x="381" d="M431 711 Q437 739 460 758 Q483 777 510 776 L503 729 L501 729 Q493 729 486 723.5 Q479 718 478 711 L438 479 L349 479 L360 545 Q363 559 363 570 Q363 597 348 610 Q333 623 302 623 Q265 623 245 604 Q225 585 217 545 L149 156 Q146 141 146 130 Q146 78 205 78 Q242 78 263 97 Q284 116 292 156 L308 252 L397 252 L381 156 Q366 73 309 28 Q260 -11 190 -11 Q122 -11 86 29 Q56 60 56 114 Q56 136 60 156 L128 545 Q143 627 199 673 Q248 712 317 712 Q386 712 422 672 Q427 667 427 667 L423 666 L431 711 Z M427 666 L423 665 Q421 669 420 670 Q384 708 317 708 Q251 708 201 669 Q147 625 132 545 L64 156 Q60 136 60 114 Q60 62 88 31 Q124 -7 190 -7 Q257 -7 307 32 Q362 75 377 156 L393 248 L312 248 L296 156 Q289 114 266.5 94 Q244 74 205 74 Q142 74 142 129 Q142 141 145 156 L213 545 Q220 588 242 607.5 Q264 627 302 627 Q367 627 367 571 Q367 559 364 545 L353 483 L434 483 L474 711 Q475 720 482.5 726 Q490 732 499 733 L506 772 Q481 771 460.5 753.5 Q440 736 435 711 L427 666 Z " />
<glyph glyph-name="D" unicode="D" horiz-adv-x="391" d="M199 2 Q268 2 314 38 Q370 82 383 161 L449 535 Q453 555 453 576 Q453 626 425 660 Q389 698 322 698 L165 698 L42 2 L199 2 Z M38 -2 L161 702 L322 702 Q391 702 428 662 Q457 630 457 577 Q457 555 453 535 L387 161 Q373 80 316 34 Q268 -2 199 -2 L38 -2 Z M231 617 L307 617 Q371 617 371 561 Q371 549 368 535 L302 161 Q294 117 271 98 Q250 83 214 83 L138 83 L231 617 Z M214 87 Q251 87 269 102 Q291 119 298 161 L364 535 Q367 550 367 561 Q367 613 307 613 L235 613 L142 87 L214 87 Z " />
<glyph glyph-name="uni0189" unicode="&#x189;" horiz-adv-x="395" d="M433 662 Q461 630 461 576 Q461 554 457 535 L391 161 Q377 80 320 34 Q272 -2 203 -2 L43 -2 L97 305 L57 305 L72 394 L112 394 L166 702 L326 702 Q394 702 433 662 Z M430 660 Q392 698 326 698 L170 698 L116 390 L76 390 L61 309 L101 309 L47 2 L203 2 Q272 2 318 38 Q374 82 387 161 L453 535 Q457 554 457 576 Q457 625 430 660 Z M368 535 Q371 550 371 561 Q371 613 311 613 L240 613 L201 394 L261 394 L246 305 L186 305 L147 87 L218 87 Q255 87 274 102 Q295 118 302 161 L368 535 Z M306 161 Q299 116 276 98 Q254 83 218 83 L143 83 L182 309 L242 309 L257 390 L197 390 L236 617 L311 617 Q375 617 375 561 Q375 550 372 535 L306 161 Z " />
<glyph glyph-name="Eth" unicode="&#xd0;" horiz-adv-x="395" d="M433 662 Q461 630 461 576 Q461 554 457 535 L391 161 Q377 80 320 34 Q272 -2 203 -2 L43 -2 L97 305 L57 305 L72 394 L112 394 L166 702 L326 702 Q394 702 433 662 Z M430 660 Q392 698 326 698 L170 698 L116 390 L76 390 L61 309 L101 309 L47 2 L203 2 Q272 2 318 38 Q374 82 387 161 L453 535 Q457 554 457 576 Q457 625 430 660 Z M368 535 Q371 550 371 561 Q371 613 311 613 L240 613 L201 394 L261 394 L246 305 L186 305 L147 87 L218 87 Q255 87 274 102 Q295 118 302 161 L368 535 Z M306 161 Q299 116 276 98 Q254 83 218 83 L143 83 L182 309 L242 309 L257 390 L197 390 L236 617 L311 617 Q375 617 375 561 Q375 550 372 535 L306 161 Z " />
<glyph glyph-name="Dcaron" unicode="&#x10e;" horiz-adv-x="391" d="M199 2 Q268 2 314 38 Q370 82 383 161 L449 535 Q453 555 453 576 Q453 626 425 660 Q389 698 322 698 L165 698 L42 2 L199 2 Z M38 -2 L161 702 L322 702 Q391 702 428 662 Q457 630 457 577 Q457 555 453 535 L387 161 Q373 80 316 34 Q268 -2 199 -2 L38 -2 Z M231 617 L307 617 Q371 617 371 561 Q371 549 368 535 L302 161 Q294 117 271 98 Q250 83 214 83 L138 83 L231 617 Z M214 87 Q251 87 269 102 Q291 119 298 161 L364 535 Q367 550 367 561 Q367 613 307 613 L235 613 L142 87 L214 87 Z M461 842 L372 735 L285 735 L233 842 L288 842 L337 786 L406 842 L461 842 Z M453 838 L408 838 L337 780 L286 838 L239 838 L287 739 L370 739 L453 838 Z " />
<glyph glyph-name="uni1E12" unicode="&#x1e12;" horiz-adv-x="391" d="M199 2 Q268 2 314 38 Q370 82 383 161 L449 535 Q453 555 453 576 Q453 626 425 660 Q389 698 322 698 L165 698 L42 2 L199 2 Z M38 -2 L161 702 L322 702 Q391 702 428 662 Q457 630 457 577 Q457 555 453 535 L387 161 Q373 80 316 34 Q268 -2 199 -2 L38 -2 Z M231 617 L307 617 Q371 617 371 561 Q371 549 368 535 L302 161 Q294 117 271 98 Q250 83 214 83 L138 83 L231 617 Z M214 87 Q251 87 269 102 Q291 119 298 161 L364 535 Q367 550 367 561 Q367 613 307 613 L235 613 L142 87 L214 87 Z M287 -145 L233 -145 L184 -89 L115 -145 L59 -145 L148 -38 L235 -38 L287 -145 Z M281 -141 L233 -42 L150 -42 L67 -141 L113 -141 L184 -83 L235 -141 L281 -141 Z " />
<glyph glyph-name="Dcroat" unicode="&#x110;" horiz-adv-x="395" d="M433 662 Q461 630 461 576 Q461 554 457 535 L391 161 Q377 80 320 34 Q272 -2 203 -2 L43 -2 L97 305 L57 305 L72 394 L112 394 L166 702 L326 702 Q394 702 433 662 Z M430 660 Q392 698 326 698 L170 698 L116 390 L76 390 L61 309 L101 309 L47 2 L203 2 Q272 2 318 38 Q374 82 387 161 L453 535 Q457 554 457 576 Q457 625 430 660 Z M368 535 Q371 550 371 561 Q371 613 311 613 L240 613 L201 394 L261 394 L246 305 L186 305 L147 87 L218 87 Q255 87 274 102 Q295 118 302 161 L368 535 Z M306 161 Q299 116 276 98 Q254 83 218 83 L143 83 L182 309 L242 309 L257 390 L197 390 L236 617 L311 617 Q375 617 375 561 Q375 550 372 535 L306 161 Z " />
<glyph glyph-name="uni1E0C" unicode="&#x1e0c;" horiz-adv-x="391" d="M199 2 Q268 2 314 38 Q370 82 383 161 L449 535 Q453 555 453 576 Q453 626 425 660 Q389 698 322 698 L165 698 L42 2 L199 2 Z M38 -2 L161 702 L322 702 Q391 702 428 662 Q457 630 457 577 Q457 555 453 535 L387 161 Q373 80 316 34 Q268 -2 199 -2 L38 -2 Z M231 617 L307 617 Q371 617 371 561 Q371 549 368 535 L302 161 Q294 117 271 98 Q250 83 214 83 L138 83 L231 617 Z M214 87 Q251 87 269 102 Q291 119 298 161 L364 535 Q367 550 367 561 Q367 613 307 613 L235 613 L142 87 L214 87 Z M192 -42 Q172 -42 156 -57 Q140 -72 140 -93 Q140 -108 150 -118 Q160 -128 176 -128 Q196 -128 212 -113 Q228 -98 228 -77 Q228 -62 218 -52 Q208 -42 192 -42 Z M192 -38 Q209 -38 220.5 -49.5 Q232 -61 232 -78 Q232 -99 214.5 -115.5 Q197 -132 176 -132 Q159 -132 147.5 -120.5 Q136 -109 136 -92 Q136 -71 153.5 -54.5 Q171 -38 192 -38 Z " />
<glyph glyph-name="uni018A" unicode="&#x18a;" horiz-adv-x="436" d="M473 662 Q502 630 502 577 Q502 555 498 535 L432 161 Q418 80 361 34 Q313 -2 244 -2 L83 -2 L199 655 L159 655 Q151 655 144.5 649 Q138 643 137 635 L90 635 Q94 663 116 682.5 Q138 702 166 702 L367 702 Q436 702 473 662 Z M470 660 Q434 698 367 698 L166 698 Q141 698 120 681 Q99 664 94 639 L133 639 Q135 647 143 653 Q151 659 159 659 L203 659 L87 2 L244 2 Q313 2 359 38 Q415 82 428 161 L494 535 Q498 555 498 576 Q498 626 470 660 Z M409 535 Q412 550 412 561 Q412 613 352 613 L280 613 L187 87 L259 87 Q296 87 314 102 Q336 119 343 161 L409 535 Z M347 161 Q339 117 316 98 Q295 83 259 83 L183 83 L276 617 L352 617 Q416 617 416 561 Q416 549 413 535 L347 161 Z " />
<glyph glyph-name="uni1E0E" unicode="&#x1e0e;" horiz-adv-x="391" d="M199 2 Q268 2 314 38 Q370 82 383 161 L449 535 Q453 555 453 576 Q453 626 425 660 Q389 698 322 698 L165 698 L42 2 L199 2 Z M38 -2 L161 702 L322 702 Q391 702 428 662 Q457 630 457 577 Q457 555 453 535 L387 161 Q373 80 316 34 Q268 -2 199 -2 L38 -2 Z M231 617 L307 617 Q371 617 371 561 Q371 549 368 535 L302 161 Q294 117 271 98 Q250 83 214 83 L138 83 L231 617 Z M214 87 Q251 87 269 102 Q291 119 298 161 L364 535 Q367 550 367 561 Q367 613 307 613 L235 613 L142 87 L214 87 Z M333 -83 L341 -42 L42 -42 L34 -83 L333 -83 Z M337 -87 L30 -87 L38 -38 L345 -38 L337 -87 Z " />
<glyph glyph-name="E" unicode="E" horiz-adv-x="347" d="M426 613 L235 613 L198 403 L331 403 L316 314 L183 314 L142 87 L333 87 L318 -2 L38 -2 L161 702 L441 702 L426 613 Z M422 617 L437 698 L165 698 L42 2 L314 2 L329 83 L138 83 L179 318 L312 318 L327 399 L194 399 L231 617 L422 617 Z " />
<glyph glyph-name="Eacute" unicode="&#xc9;" horiz-adv-x="347" d="M426 613 L235 613 L198 403 L331 403 L316 314 L183 314 L142 87 L333 87 L318 -2 L38 -2 L161 702 L441 702 L426 613 Z M422 617 L437 698 L165 698 L42 2 L314 2 L329 83 L138 83 L179 318 L312 318 L327 399 L194 399 L231 617 L422 617 Z M369 840 L287 739 L332 739 L449 840 L369 840 Z M367 844 L459 844 L334 735 L279 735 L367 844 Z " />
<glyph glyph-name="Ecaron" unicode="&#x11a;" horiz-adv-x="347" d="M426 613 L235 613 L198 403 L331 403 L316 314 L183 314 L142 87 L333 87 L318 -2 L38 -2 L161 702 L441 702 L426 613 Z M422 617 L437 698 L165 698 L42 2 L314 2 L329 83 L138 83 L179 318 L312 318 L327 399 L194 399 L231 617 L422 617 Z M440 842 L351 735 L264 735 L212 842 L267 842 L316 786 L385 842 L440 842 Z M432 838 L387 838 L316 780 L265 838 L218 838 L266 739 L349 739 L432 838 Z " />
<glyph glyph-name="uni0228" unicode="&#x228;" horiz-adv-x="347" d="M235 613 L198 403 L331 403 L316 314 L183 314 L142 87 L333 87 L318 -2 L203 -2 Q203 -2 205 -4 Q205 -4 208 -7 Q232 -26 232 -53 Q232 -84 208 -107 Q184 -130 154 -130 Q130 -130 114.5 -114.5 Q99 -99 99 -75 Q99 -66 100 -62 L148 -62 Q147 -64 147 -68 Q147 -74 151 -78.5 Q155 -83 162 -83 Q169 -83 175.5 -77.5 Q182 -72 184 -64 L184 -60 Q184 -52 174 -44 Q171 -41 171 -41 Q152 -25 154 -2 L38 -2 L161 702 L441 702 L426 613 L235 613 Z M437 698 L165 698 L42 2 L158 2 Q155 -22 173 -39 L175 -40 Q184 -47 186.5 -51.5 Q189 -56 188 -64 Q187 -74 179 -80.5 Q171 -87 162 -87 Q153 -87 147.5 -80.5 Q142 -74 143 -66 L104 -66 L103 -75 Q103 -97 117.5 -111.5 Q132 -126 154 -126 Q182 -126 205 -103.5 Q228 -81 228 -53 Q228 -37 221.5 -27.5 Q215 -18 204 -9 L204 -8 Q201 -6 198 -1 L200 2 L314 2 L329 83 L138 83 L179 318 L312 318 L327 399 L194 399 L231 617 L422 617 L437 698 Z " />
<glyph glyph-name="Ecircumflex" unicode="&#xca;" horiz-adv-x="347" d="M426 613 L235 613 L198 403 L331 403 L316 314 L183 314 L142 87 L333 87 L318 -2 L38 -2 L161 702 L441 702 L426 613 Z M422 617 L437 698 L165 698 L42 2 L314 2 L329 83 L138 83 L179 318 L312 318 L327 399 L194 399 L231 617 L422 617 Z M421 735 L367 735 L318 791 L249 735 L193 735 L282 842 L369 842 L421 735 Z M415 739 L367 838 L284 838 L201 739 L247 739 L318 797 L369 739 L415 739 Z " />
<glyph glyph-name="uni1EBE" unicode="&#x1ebe;" horiz-adv-x="347" d="M426 613 L235 613 L198 403 L331 403 L316 314 L183 314 L142 87 L333 87 L318 -2 L38 -2 L161 702 L441 702 L426 613 Z M422 617 L437 698 L165 698 L42 2 L314 2 L329 83 L138 83 L179 318 L312 318 L327 399 L194 399 L231 617 L422 617 Z M421 735 L367 735 L318 791 L249 735 L193 735 L282 842 L369 842 L421 735 Z M415 739 L367 838 L284 838 L201 739 L247 739 L318 797 L369 739 L415 739 Z M500 940 L418 839 L463 839 L580 940 L500 940 Z M498 944 L590 944 L465 835 L410 835 L498 944 Z " />
<glyph glyph-name="uni1EC6" unicode="&#x1ec6;" horiz-adv-x="347" d="M426 613 L235 613 L198 403 L331 403 L316 314 L183 314 L142 87 L333 87 L318 -2 L38 -2 L161 702 L441 702 L426 613 Z M422 617 L437 698 L165 698 L42 2 L314 2 L329 83 L138 83 L179 318 L312 318 L327 399 L194 399 L231 617 L422 617 Z M171 -42 Q151 -42 135 -57 Q119 -72 119 -93 Q119 -108 129 -118 Q139 -128 155 -128 Q175 -128 191 -113 Q207 -98 207 -77 Q207 -62 197 -52 Q187 -42 171 -42 Z M171 -38 Q188 -38 199.5 -49.5 Q211 -61 211 -78 Q211 -99 193.5 -115.5 Q176 -132 155 -132 Q138 -132 126.5 -120.5 Q115 -109 115 -92 Q115 -71 132.5 -54.5 Q150 -38 171 -38 Z M421 735 L367 735 L318 791 L249 735 L193 735 L282 842 L369 842 L421 735 Z M415 739 L367 838 L284 838 L201 739 L247 739 L318 797 L369 739 L415 739 Z " />
<glyph glyph-name="uni1EC0" unicode="&#x1ec0;" horiz-adv-x="347" d="M426 613 L235 613 L198 403 L331 403 L316 314 L183 314 L142 87 L333 87 L318 -2 L38 -2 L161 702 L441 702 L426 613 Z M422 617 L437 698 L165 698 L42 2 L314 2 L329 83 L138 83 L179 318 L312 318 L327 399 L194 399 L231 617 L422 617 Z M421 735 L367 735 L318 791 L249 735 L193 735 L282 842 L369 842 L421 735 Z M415 739 L367 838 L284 838 L201 739 L247 739 L318 797 L369 739 L415 739 Z M414 940 L333 940 L415 839 L461 839 L414 940 Z M416 944 L467 835 L413 835 L325 944 L416 944 Z " />
<glyph glyph-name="uni1EC2" unicode="&#x1ec2;" horiz-adv-x="347" d="M426 613 L235 613 L198 403 L331 403 L316 314 L183 314 L142 87 L333 87 L318 -2 L38 -2 L161 702 L441 702 L426 613 Z M422 617 L437 698 L165 698 L42 2 L314 2 L329 83 L138 83 L179 318 L312 318 L327 399 L194 399 L231 617 L422 617 Z M421 735 L367 735 L318 791 L249 735 L193 735 L282 842 L369 842 L421 735 Z M415 739 L367 838 L284 838 L201 739 L247 739 L318 797 L369 739 L415 739 Z M373 940 Q411 940 436 915 Q461 890 461 853 Q461 847 459 835 L412 835 Q413 839 413 846 Q413 867 399.5 880.5 Q386 894 365 893 L332 932 Q351 940 373 940 Z M373 936 Q356 936 338 930 L367 897 Q391 897 405 880 Q419 863 416 839 L455 839 Q456 844 456 854 Q456 889 432.5 912.5 Q409 936 373 936 Z " />
<glyph glyph-name="uni1EC4" unicode="&#x1ec4;" horiz-adv-x="347" d="M426 613 L235 613 L198 403 L331 403 L316 314 L183 314 L142 87 L333 87 L318 -2 L38 -2 L161 702 L441 702 L426 613 Z M422 617 L437 698 L165 698 L42 2 L314 2 L329 83 L138 83 L179 318 L312 318 L327 399 L194 399 L231 617 L422 617 Z M231 868 Q261 898 284 898 Q302 898 322 885 Q347 867 374 867 Q414 867 460 913 L434 936 Q409 911 388 907 Q368 904 348 918 Q317 938 291 938 Q251 938 205 892 L231 868 Z M199 892 Q249 942 292 942 Q319 942 350 922 Q370 908 388 911 Q409 916 434 942 L466 913 Q419 863 373 863 Q346 863 320 881 Q300 894 284 894 Q274 894 260 886 Q246 878 231 862 L199 892 Z M421 735 L367 735 L318 791 L249 735 L193 735 L282 842 L369 842 L421 735 Z M415 739 L367 838 L284 838 L201 739 L247 739 L318 797 L369 739 L415 739 Z " />
<glyph glyph-name="Edieresis" unicode="&#xcb;" horiz-adv-x="347" d="M426 613 L235 613 L198 403 L331 403 L316 314 L183 314 L142 87 L333 87 L318 -2 L38 -2 L161 702 L441 702 L426 613 Z M422 617 L437 698 L165 698 L42 2 L314 2 L329 83 L138 83 L179 318 L312 318 L327 399 L194 399 L231 617 L422 617 Z M287 782 Q290 800 280 812.5 Q270 825 252 825 Q234 825 219 812.5 Q204 800 201 782 Q200 779 200 773 Q200 759 210 749 Q220 739 236 739 Q254 739 268.5 751.5 Q283 764 287 782 Z M291 782 Q287 762 271 748.5 Q255 735 236 735 Q219 735 207.5 746 Q196 757 196 773 Q196 779 197 782 Q200 801 216 815 Q232 829 252 829 Q271 829 282.5 815.5 Q294 802 291 782 Z M431 782 Q434 800 424 812.5 Q414 825 396 825 Q378 825 363 812.5 Q348 800 345 782 Q344 779 344 773 Q344 759 354 749 Q364 739 380 739 Q398 739 412.5 751.5 Q427 764 431 782 Z M435 782 Q431 762 415 748.5 Q399 735 380 735 Q363 735 351.5 746 Q340 757 340 773 Q340 779 341 782 Q344 801 360 815 Q376 829 396 829 Q415 829 426.5 815.5 Q438 802 435 782 Z " />
<glyph glyph-name="Edotaccent" unicode="&#x116;" horiz-adv-x="347" d="M426 613 L235 613 L198 403 L331 403 L316 314 L183 314 L142 87 L333 87 L318 -2 L38 -2 L161 702 L441 702 L426 613 Z M422 617 L437 698 L165 698 L42 2 L314 2 L329 83 L138 83 L179 318 L312 318 L327 399 L194 399 L231 617 L422 617 Z M324 825 Q306 825 291 812.5 Q276 800 273 782 Q272 779 272 773 Q272 759 282 749 Q292 739 308 739 Q326 739 340.5 751.5 Q355 764 359 782 Q362 800 352 812.5 Q342 825 324 825 Z M324 829 Q343 829 354.5 815.5 Q366 802 363 782 Q359 762 343 748.5 Q327 735 308 735 Q291 735 279.5 746 Q268 757 268 773 Q268 779 269 782 Q272 801 288 815 Q304 829 324 829 Z " />
<glyph glyph-name="uni1EB8" unicode="&#x1eb8;" horiz-adv-x="347" d="M426 613 L235 613 L198 403 L331 403 L316 314 L183 314 L142 87 L333 87 L318 -2 L38 -2 L161 702 L441 702 L426 613 Z M422 617 L437 698 L165 698 L42 2 L314 2 L329 83 L138 83 L179 318 L312 318 L327 399 L194 399 L231 617 L422 617 Z M171 -42 Q151 -42 135 -57 Q119 -72 119 -93 Q119 -108 129 -118 Q139 -128 155 -128 Q175 -128 191 -113 Q207 -98 207 -77 Q207 -62 197 -52 Q187 -42 171 -42 Z M171 -38 Q188 -38 199.5 -49.5 Q211 -61 211 -78 Q211 -99 193.5 -115.5 Q176 -132 155 -132 Q138 -132 126.5 -120.5 Q115 -109 115 -92 Q115 -71 132.5 -54.5 Q150 -38 171 -38 Z " />
<glyph glyph-name="Egrave" unicode="&#xc8;" horiz-adv-x="347" d="M426 613 L235 613 L198 403 L331 403 L316 314 L183 314 L142 87 L333 87 L318 -2 L38 -2 L161 702 L441 702 L426 613 Z M422 617 L437 698 L165 698 L42 2 L314 2 L329 83 L138 83 L179 318 L312 318 L327 399 L194 399 L231 617 L422 617 Z M283 840 L202 840 L284 739 L330 739 L283 840 Z M285 844 L336 735 L282 735 L194 844 L285 844 Z " />
<glyph glyph-name="uni1EBA" unicode="&#x1eba;" horiz-adv-x="347" d="M426 613 L235 613 L198 403 L331 403 L316 314 L183 314 L142 87 L333 87 L318 -2 L38 -2 L161 702 L441 702 L426 613 Z M422 617 L437 698 L165 698 L42 2 L314 2 L329 83 L138 83 L179 318 L312 318 L327 399 L194 399 L231 617 L422 617 Z M253 840 Q290 840 315 815.5 Q340 791 340 754 Q340 749 338 735 L291 735 Q292 739 292 747 Q292 767 278.5 780.5 Q265 794 244 793 L212 832 Q228 840 253 840 Z M253 836 Q233 836 218 830 L246 797 Q268 796 282 782.5 Q296 769 296 748 L295 739 L334 739 Q335 744 335 755 Q335 790 312 813 Q289 836 253 836 Z " />
<glyph glyph-name="Emacron" unicode="&#x112;" horiz-adv-x="347" d="M426 613 L235 613 L198 403 L331 403 L316 314 L183 314 L142 87 L333 87 L318 -2 L38 -2 L161 702 L441 702 L426 613 Z M422 617 L437 698 L165 698 L42 2 L314 2 L329 83 L138 83 L179 318 L312 318 L327 399 L194 399 L231 617 L422 617 Z M458 739 L466 780 L166 780 L158 739 L458 739 Z M462 735 L154 735 L162 784 L470 784 L462 735 Z " />
<glyph glyph-name="Eogonek" unicode="&#x118;" horiz-adv-x="347" d="M235 613 L198 403 L331 403 L316 314 L183 314 L142 87 L333 87 L318 -2 Q294 -9 274 -26.5 Q254 -44 252 -59 Q248 -79 286 -79 L297 -79 L289 -128 L268 -128 Q229 -128 208.5 -116 Q188 -104 188 -82 Q188 -38 270 2 L271 -2 L38 -2 L161 702 L441 702 L426 613 L235 613 Z M437 698 L165 698 L42 2 L271 2 L272 -2 Q192 -41 192 -82 Q192 -103 212 -113.5 Q232 -124 268 -124 L285 -124 L293 -83 L286 -83 Q244 -83 248 -59 Q250 -43 269.5 -25 Q289 -7 314 2 L329 83 L138 83 L179 318 L312 318 L327 399 L194 399 L231 617 L422 617 L437 698 Z " />
<glyph glyph-name="uni018E" unicode="&#x18e;" horiz-adv-x="336" d="M136 613 L151 702 L431 702 L308 -2 L28 -2 L43 87 L234 87 L275 314 L142 314 L157 403 L290 403 L327 613 L136 613 Z M140 617 L331 617 L294 399 L161 399 L146 318 L279 318 L238 83 L47 83 L32 2 L304 2 L427 698 L155 698 L140 617 Z " />
<glyph glyph-name="uni1EBC" unicode="&#x1ebc;" horiz-adv-x="347" d="M426 613 L235 613 L198 403 L331 403 L316 314 L183 314 L142 87 L333 87 L318 -2 L38 -2 L161 702 L441 702 L426 613 Z M422 617 L437 698 L165 698 L42 2 L314 2 L329 83 L138 83 L179 318 L312 318 L327 399 L194 399 L231 617 L422 617 Z M212 740 Q242 770 266 770 Q283 770 303 757 Q328 739 355 739 Q395 739 441 785 L415 808 Q390 783 370 779 Q350 776 330 790 Q299 810 273 810 Q233 810 187 764 L212 740 Z M181 764 Q231 814 274 814 Q301 814 332 794 Q351 780 370 783 Q389 788 415 814 L447 785 Q400 735 355 735 Q328 735 301 753 Q278 769 259 766 Q239 763 212 734 L181 764 Z " />
<glyph glyph-name="F" unicode="F" horiz-adv-x="333" d="M426 612 L235 612 L198 404 L331 404 L316 315 L183 315 L127 -2 L38 -2 L161 701 L441 701 L426 612 Z M422 616 L437 697 L165 697 L42 2 L123 2 L179 319 L312 319 L327 400 L194 400 L231 616 L422 616 Z " />
<glyph glyph-name="uni0191" unicode="&#x191;" horiz-adv-x="333" d="M235 612 L198 404 L331 404 L316 315 L183 315 L127 0 Q120 -44 89.5 -76 Q59 -108 -1 -107 L7 -60 L9 -60 Q16 -60 23 -54.5 Q30 -49 31 -42 L161 701 L441 701 L426 612 L235 612 Z M437 697 L165 697 L35 -42 Q34 -51 26.5 -57 Q19 -63 11 -64 L3 -103 Q59 -102 87.5 -72 Q116 -42 123 0 L179 319 L312 319 L327 400 L194 400 L231 616 L422 616 L437 697 Z " />
<glyph glyph-name="G" unicode="G" horiz-adv-x="385" d="M191 -7 Q258 -7 308 32 Q362 75 377 156 L418 390 L264 390 L249 309 L322 309 L296 156 Q289 114 266.5 94 Q244 74 206 74 Q142 74 142 130 Q142 141 145 156 L213 544 Q220 586 242 606 Q264 626 303 626 Q367 626 367 570 Q367 558 364 544 L353 482 L434 482 L445 544 Q449 574 449 585 Q449 636 421 669 Q385 707 318 707 Q251 707 201 668 Q146 625 132 544 L64 156 Q60 136 60 114 Q60 62 88 31 Q124 -7 191 -7 Z M191 -11 Q123 -11 86 29 Q56 60 56 114 Q56 136 60 156 L128 544 Q142 625 199 672 Q250 711 318 711 Q387 711 424 671 Q453 637 453 584 Q453 572 449 544 L438 478 L349 478 L360 544 Q363 559 363 570 Q363 622 303 622 Q266 622 245.5 603.5 Q225 585 217 544 L149 156 Q146 141 146 130 Q146 78 206 78 Q243 78 263.5 97 Q284 116 292 156 L318 305 L245 305 L260 394 L422 394 L381 156 Q366 73 310 28 Q261 -11 191 -11 Z " />
<glyph glyph-name="Gbreve" unicode="&#x11e;" horiz-adv-x="385" d="M191 -7 Q258 -7 308 32 Q362 75 377 156 L418 390 L264 390 L249 309 L322 309 L296 156 Q289 114 266.5 94 Q244 74 206 74 Q142 74 142 130 Q142 141 145 156 L213 544 Q220 586 242 606 Q264 626 303 626 Q367 626 367 570 Q367 558 364 544 L353 482 L434 482 L445 544 Q449 574 449 585 Q449 636 421 669 Q385 707 318 707 Q251 707 201 668 Q146 625 132 544 L64 156 Q60 136 60 114 Q60 62 88 31 Q124 -7 191 -7 Z M191 -11 Q123 -11 86 29 Q56 60 56 114 Q56 136 60 156 L128 544 Q142 625 199 672 Q250 711 318 711 Q387 711 424 671 Q453 637 453 584 Q453 572 449 544 L438 478 L349 478 L360 544 Q363 559 363 570 Q363 622 303 622 Q266 622 245.5 603.5 Q225 585 217 544 L149 156 Q146 141 146 130 Q146 78 206 78 Q243 78 263.5 97 Q284 116 292 156 L318 305 L245 305 L260 394 L422 394 L381 156 Q366 73 310 28 Q261 -11 191 -11 Z M443 840 Q436 797 400.5 766 Q365 735 322 735 Q284 735 259.5 759.5 Q235 784 235 821 Q235 826 237 840 L284 840 Q283 836 283 828 Q283 808 296.5 795 Q310 782 330 782 Q354 782 373 799 Q392 816 396 840 L443 840 Z M400 836 Q395 811 374.5 794.5 Q354 778 330 778 Q308 778 293.5 792 Q279 806 279 827 L280 836 L241 836 Q240 831 240 820 Q240 785 263 762 Q286 739 322 739 Q362 739 396.5 767.5 Q431 796 439 836 L400 836 Z " />
<glyph glyph-name="Gcaron" unicode="&#x1e6;" horiz-adv-x="385" d="M191 -7 Q258 -7 308 32 Q362 75 377 156 L418 390 L264 390 L249 309 L322 309 L296 156 Q289 114 266.5 94 Q244 74 206 74 Q142 74 142 130 Q142 141 145 156 L213 544 Q220 586 242 606 Q264 626 303 626 Q367 626 367 570 Q367 558 364 544 L353 482 L434 482 L445 544 Q449 574 449 585 Q449 636 421 669 Q385 707 318 707 Q251 707 201 668 Q146 625 132 544 L64 156 Q60 136 60 114 Q60 62 88 31 Q124 -7 191 -7 Z M191 -11 Q123 -11 86 29 Q56 60 56 114 Q56 136 60 156 L128 544 Q142 625 199 672 Q250 711 318 711 Q387 711 424 671 Q453 637 453 584 Q453 572 449 544 L438 478 L349 478 L360 544 Q363 559 363 570 Q363 622 303 622 Q266 622 245.5 603.5 Q225 585 217 544 L149 156 Q146 141 146 130 Q146 78 206 78 Q243 78 263.5 97 Q284 116 292 156 L318 305 L245 305 L260 394 L422 394 L381 156 Q366 73 310 28 Q261 -11 191 -11 Z M454 842 L365 735 L278 735 L226 842 L281 842 L330 786 L399 842 L454 842 Z M446 838 L401 838 L330 780 L279 838 L232 838 L280 739 L363 739 L446 838 Z " />
<glyph glyph-name="Gcommaaccent" unicode="&#x122;" horiz-adv-x="385" d="M191 -7 Q258 -7 308 32 Q362 75 377 156 L418 390 L264 390 L249 309 L322 309 L296 156 Q289 114 266.5 94 Q244 74 206 74 Q142 74 142 130 Q142 141 145 156 L213 544 Q220 586 242 606 Q264 626 303 626 Q367 626 367 570 Q367 558 364 544 L353 482 L434 482 L445 544 Q449 574 449 585 Q449 636 421 669 Q385 707 318 707 Q251 707 201 668 Q146 625 132 544 L64 156 Q60 136 60 114 Q60 62 88 31 Q124 -7 191 -7 Z M191 -11 Q123 -11 86 29 Q56 60 56 114 Q56 136 60 156 L128 544 Q142 625 199 672 Q250 711 318 711 Q387 711 424 671 Q453 637 453 584 Q453 572 449 544 L438 478 L349 478 L360 544 Q363 559 363 570 Q363 622 303 622 Q266 622 245.5 603.5 Q225 585 217 544 L149 156 Q146 141 146 130 Q146 78 206 78 Q243 78 263.5 97 Q284 116 292 156 L318 305 L245 305 L260 394 L422 394 L381 156 Q366 73 310 28 Q261 -11 191 -11 Z M226 -78 Q226 -88 221 -99.5 Q216 -111 205 -128 Q181 -158 165 -177 L131 -177 L129 -174 Q133 -168 136.5 -161.5 Q140 -155 144 -149 Q149 -137 149 -133 Q149 -128 145 -125 Q130 -112 130 -93 Q130 -88 131 -85 Q134 -66 150 -52 Q166 -38 186 -38 Q203 -38 214.5 -49.5 Q226 -61 226 -78 Z M222 -77 Q222 -62 212 -52 Q202 -42 186 -42 Q168 -42 153 -54.5 Q138 -67 135 -85 Q134 -88 134 -93 Q134 -109 147 -122 Q152 -127 152 -135 Q152 -141 148 -151 Q144 -157 140.5 -163.5 Q137 -170 133 -176 L131 -173 L163 -173 Q193 -138 201 -126 Q222 -91 222 -77 Z " />
<glyph glyph-name="Gdotaccent" unicode="&#x120;" horiz-adv-x="385" d="M191 -7 Q258 -7 308 32 Q362 75 377 156 L418 390 L264 390 L249 309 L322 309 L296 156 Q289 114 266.5 94 Q244 74 206 74 Q142 74 142 130 Q142 141 145 156 L213 544 Q220 586 242 606 Q264 626 303 626 Q367 626 367 570 Q367 558 364 544 L353 482 L434 482 L445 544 Q449 574 449 585 Q449 636 421 669 Q385 707 318 707 Q251 707 201 668 Q146 625 132 544 L64 156 Q60 136 60 114 Q60 62 88 31 Q124 -7 191 -7 Z M191 -11 Q123 -11 86 29 Q56 60 56 114 Q56 136 60 156 L128 544 Q142 625 199 672 Q250 711 318 711 Q387 711 424 671 Q453 637 453 584 Q453 572 449 544 L438 478 L349 478 L360 544 Q363 559 363 570 Q363 622 303 622 Q266 622 245.5 603.5 Q225 585 217 544 L149 156 Q146 141 146 130 Q146 78 206 78 Q243 78 263.5 97 Q284 116 292 156 L318 305 L245 305 L260 394 L422 394 L381 156 Q366 73 310 28 Q261 -11 191 -11 Z M373 782 Q376 800 366 812.5 Q356 825 338 825 Q320 825 305 812.5 Q290 800 287 782 Q286 779 286 773 Q286 759 296 749 Q306 739 322 739 Q340 739 354.5 751.5 Q369 764 373 782 Z M377 782 Q373 762 357 748.5 Q341 735 322 735 Q305 735 293.5 746 Q282 757 282 773 Q282 779 283 782 Q286 801 302 815 Q318 829 338 829 Q357 829 368.5 815.5 Q380 802 377 782 Z " />
<glyph glyph-name="uni0193" unicode="&#x193;" horiz-adv-x="385" d="M431 710 Q435 738 458.5 757 Q482 776 509 775 L502 728 L500 728 Q493 728 486.5 722.5 Q480 717 478 710 L438 478 L349 478 L360 544 Q363 559 363 570 Q363 622 303 622 Q266 622 245.5 603.5 Q225 585 217 544 L149 156 Q146 141 146 130 Q146 78 206 78 Q243 78 263.5 97 Q284 116 292 156 L318 305 L245 305 L260 394 L422 394 L381 156 Q366 73 310 28 Q261 -11 191 -11 Q123 -11 86 29 Q56 60 56 114 Q56 136 60 156 L128 544 Q142 625 199 672 Q250 711 318 711 Q387 711 423 671 Q427 669 427 666 L423 666 L431 710 Z M427 666 L423 666 Q423 666 421 669 Q385 707 318 707 Q251 707 201 668 Q146 625 132 544 L64 156 Q60 136 60 114 Q60 62 88 31 Q124 -7 191 -7 Q258 -7 308 32 Q362 75 377 156 L418 390 L264 390 L249 309 L322 309 L296 156 Q289 114 266.5 94 Q244 74 206 74 Q142 74 142 130 Q142 141 145 156 L213 544 Q220 586 242 606 Q264 626 303 626 Q367 626 367 570 Q367 558 364 544 L353 482 L434 482 L474 710 Q475 719 482.5 725 Q490 731 498 732 L505 771 Q480 770 460 752 Q440 734 435 710 L427 666 Z " />
<glyph glyph-name="H" unicode="H" horiz-adv-x="396" d="M392 702 L481 702 L358 -2 L269 -2 L325 314 L183 314 L127 -2 L38 -2 L161 702 L250 702 L198 403 L340 403 L392 702 Z M396 698 L344 399 L194 399 L246 698 L165 698 L42 2 L123 2 L179 318 L329 318 L273 2 L354 2 L477 698 L396 698 Z " />
<glyph glyph-name="Hbar" unicode="&#x126;" horiz-adv-x="407" d="M487 702 L462 560 L502 560 L495 512 L455 512 L364 -2 L275 -2 L331 314 L188 314 L132 -2 L43 -2 L134 512 L94 512 L101 560 L141 560 L166 702 L255 702 L230 560 L373 560 L398 702 L487 702 Z M483 698 L402 698 L377 556 L226 556 L251 698 L170 698 L145 556 L105 556 L98 516 L138 516 L47 2 L128 2 L184 318 L335 318 L279 2 L360 2 L451 516 L491 516 L498 556 L458 556 L483 698 Z M346 403 L366 512 L223 512 L203 403 L346 403 Z M350 399 L199 399 L219 516 L370 516 L350 399 Z " />
<glyph glyph-name="uni1E24" unicode="&#x1e24;" horiz-adv-x="396" d="M392 702 L481 702 L358 -2 L269 -2 L325 314 L183 314 L127 -2 L38 -2 L161 702 L250 702 L198 403 L340 403 L392 702 Z M396 698 L344 399 L194 399 L246 698 L165 698 L42 2 L123 2 L179 318 L329 318 L273 2 L354 2 L477 698 L396 698 Z M231 -78 Q231 -88 226 -99.5 Q221 -111 210 -128 Q186 -158 170 -177 L136 -177 L134 -174 Q138 -168 141.5 -161.5 Q145 -155 149 -149 Q154 -137 154 -133 Q154 -128 150 -125 Q135 -112 135 -93 Q135 -88 136 -85 Q139 -66 155 -52 Q171 -38 191 -38 Q208 -38 219.5 -49.5 Q231 -61 231 -78 Z M227 -77 Q227 -62 217 -52 Q207 -42 191 -42 Q173 -42 158 -54.5 Q143 -67 140 -85 Q139 -88 139 -93 Q139 -109 152 -122 Q157 -127 157 -135 Q157 -141 153 -151 Q149 -157 145.5 -163.5 Q142 -170 138 -176 L136 -173 L168 -173 Q198 -138 206 -126 Q227 -91 227 -77 Z " />
<glyph glyph-name="uniA7AA" unicode="&#xa7aa;" horiz-adv-x="441" d="M526 702 L403 -2 L314 -2 L370 314 L228 314 L172 -2 L83 -2 L199 655 L159 655 Q151 655 144.5 649 Q138 643 137 635 L90 635 Q94 663 116 682.5 Q138 702 166 702 L295 702 L243 403 L385 403 L437 702 L526 702 Z M389 399 L239 399 L291 698 L166 698 Q141 698 120 681 Q99 664 94 639 L133 639 Q135 647 143 653 Q151 659 159 659 L203 659 L87 2 L168 2 L224 318 L374 318 L318 2 L399 2 L522 698 L441 698 L389 399 Z " />
<glyph glyph-name="I" unicode="I" horiz-adv-x="165" d="M123 2 L246 698 L165 698 L42 2 L123 2 Z M127 -2 L38 -2 L161 702 L250 702 L127 -2 Z " />
<glyph glyph-name="Iacute" unicode="&#xcd;" horiz-adv-x="165" d="M123 2 L246 698 L165 698 L42 2 L123 2 Z M127 -2 L38 -2 L161 702 L250 702 L127 -2 Z M274 839 L191 739 L237 739 L353 839 L274 839 Z M272 843 L363 843 L239 735 L183 735 L272 843 Z " />
<glyph glyph-name="uni01CF" unicode="&#x1cf;" horiz-adv-x="165" d="M123 2 L246 698 L165 698 L42 2 L123 2 Z M127 -2 L38 -2 L161 702 L250 702 L127 -2 Z M345 842 L256 735 L169 735 L117 842 L172 842 L221 786 L290 842 L345 842 Z M337 838 L292 838 L221 780 L170 838 L123 838 L171 739 L254 739 L337 838 Z " />
<glyph glyph-name="Icircumflex" unicode="&#xce;" horiz-adv-x="165" d="M123 2 L246 698 L165 698 L42 2 L123 2 Z M127 -2 L38 -2 L161 702 L250 702 L127 -2 Z M326 735 L272 735 L223 791 L154 735 L98 735 L187 842 L274 842 L326 735 Z M320 739 L272 838 L189 838 L106 739 L152 739 L223 797 L274 739 L320 739 Z " />
<glyph glyph-name="Idieresis" unicode="&#xcf;" horiz-adv-x="164" d="M123 2 L246 698 L165 698 L42 2 L123 2 Z M127 -2 L38 -2 L161 702 L250 702 L127 -2 Z M191 782 Q194 800 184 812.5 Q174 825 156 825 Q138 825 123 812.5 Q108 800 105 782 Q104 779 104 773 Q104 759 114 749 Q124 739 140 739 Q158 739 172.5 751.5 Q187 764 191 782 Z M195 782 Q191 762 175 748.5 Q159 735 140 735 Q123 735 111.5 746 Q100 757 100 773 Q100 779 101 782 Q104 801 120 815 Q136 829 156 829 Q175 829 186.5 815.5 Q198 802 195 782 Z M335 782 Q338 800 328 812.5 Q318 825 300 825 Q282 825 267 812.5 Q252 800 249 782 Q248 779 248 773 Q248 759 258 749 Q268 739 284 739 Q302 739 316.5 751.5 Q331 764 335 782 Z M339 782 Q335 762 319 748.5 Q303 735 284 735 Q267 735 255.5 746 Q244 757 244 773 Q244 779 245 782 Q248 801 264 815 Q280 829 300 829 Q319 829 330.5 815.5 Q342 802 339 782 Z " />
<glyph glyph-name="uni1E2E" unicode="&#x1e2e;" horiz-adv-x="165" d="M123 2 L246 698 L165 698 L42 2 L123 2 Z M127 -2 L38 -2 L161 702 L250 702 L127 -2 Z M191 782 Q194 800 184 812.5 Q174 825 156 825 Q138 825 123 812.5 Q108 800 105 782 Q104 779 104 773 Q104 759 114 749 Q124 739 140 739 Q158 739 172.5 751.5 Q187 764 191 782 Z M195 782 Q191 762 175 748.5 Q159 735 140 735 Q123 735 111.5 746 Q100 757 100 773 Q100 779 101 782 Q104 801 120 815 Q136 829 156 829 Q175 829 186.5 815.5 Q198 802 195 782 Z M335 782 Q338 800 328 812.5 Q318 825 300 825 Q282 825 267 812.5 Q252 800 249 782 Q248 779 248 773 Q248 759 258 749 Q268 739 284 739 Q302 739 316.5 751.5 Q331 764 335 782 Z M339 782 Q335 762 319 748.5 Q303 735 284 735 Q267 735 255.5 746 Q244 757 244 773 Q244 779 245 782 Q248 801 264 815 Q280 829 300 829 Q319 829 330.5 815.5 Q342 802 339 782 Z M297 967 L214 867 L260 867 L376 967 L297 967 Z M295 971 L386 971 L262 863 L206 863 L295 971 Z " />
<glyph glyph-name="Idot" unicode="&#x130;" horiz-adv-x="170" d="M126 2 L249 698 L168 698 L45 2 L126 2 Z M130 -2 L41 -2 L164 702 L253 702 L130 -2 Z M266 782 Q269 800 259 812.5 Q249 825 231 825 Q213 825 198 812.5 Q183 800 180 782 Q179 779 179 773 Q179 759 189 749 Q199 739 215 739 Q233 739 247.5 751.5 Q262 764 266 782 Z M270 782 Q266 762 250 748.5 Q234 735 215 735 Q198 735 186.5 746 Q175 757 175 773 Q175 779 176 782 Q179 801 195 815 Q211 829 231 829 Q250 829 261.5 815.5 Q273 802 270 782 Z " />
<glyph glyph-name="uni1ECA" unicode="&#x1eca;" horiz-adv-x="170" d="M78 -42 Q58 -42 42 -57 Q26 -72 26 -93 Q26 -108 36 -118 Q46 -128 62 -128 Q82 -128 98 -113 Q114 -98 114 -77 Q114 -62 104 -52 Q94 -42 78 -42 Z M78 -38 Q95 -38 106.5 -49.5 Q118 -61 118 -78 Q118 -99 100.5 -115.5 Q83 -132 62 -132 Q45 -132 33.5 -120.5 Q22 -109 22 -92 Q22 -71 39.5 -54.5 Q57 -38 78 -38 Z M125 2 L248 698 L167 698 L44 2 L125 2 Z M129 -2 L40 -2 L163 702 L252 702 L129 -2 Z " />
<glyph glyph-name="Igrave" unicode="&#xcc;" horiz-adv-x="165" d="M123 2 L246 698 L165 698 L42 2 L123 2 Z M127 -2 L38 -2 L161 702 L250 702 L127 -2 Z M187 739 L238 739 L238 735 L187 735 L187 739 Z M187 739 L238 739 L238 735 L187 735 L187 739 Z M187 839 L107 839 L188 739 L235 739 L187 839 Z M189 843 L241 735 L186 735 L99 843 L189 843 Z " />
<glyph glyph-name="uni1EC8" unicode="&#x1ec8;" horiz-adv-x="165" d="M151 840 Q188 840 213 815.5 Q238 791 238 754 Q238 749 236 735 L189 735 Q190 739 190 747 Q190 767 176.5 780.5 Q163 794 142 793 L110 832 Q126 840 151 840 Z M151 836 Q131 836 116 830 L144 797 Q166 796 180 782.5 Q194 769 194 748 L193 739 L232 739 Q233 744 233 755 Q233 790 210 813 Q187 836 151 836 Z M123 2 L246 698 L165 698 L42 2 L123 2 Z M127 -2 L38 -2 L161 702 L250 702 L127 -2 Z " />
<glyph glyph-name="Imacron" unicode="&#x12a;" horiz-adv-x="164" d="M123 2 L246 698 L165 698 L42 2 L123 2 Z M127 -2 L38 -2 L161 702 L250 702 L127 -2 Z M362 739 L370 780 L70 780 L62 739 L362 739 Z M366 735 L58 735 L66 784 L374 784 L366 735 Z " />
<glyph glyph-name="Iogonek" unicode="&#x12e;" horiz-adv-x="165" d="M250 702 L127 -2 Q103 -9 83 -26.5 Q63 -44 61 -59 Q57 -79 95 -79 L106 -79 L98 -128 L77 -128 Q38 -128 17.5 -116 Q-3 -104 -3 -82 Q-3 -38 79 2 L80 -2 L38 -2 L161 702 L250 702 Z M42 2 L80 2 L81 -2 Q1 -41 1 -82 Q1 -103 21 -113.5 Q41 -124 77 -124 L94 -124 L102 -83 L95 -83 Q53 -83 57 -59 Q59 -43 78.5 -25 Q98 -7 123 2 L246 698 L165 698 L42 2 Z " />
<glyph glyph-name="uni0197" unicode="&#x197;" horiz-adv-x="175" d="M239 384 L232 336 L192 336 L132 -2 L43 -2 L103 336 L63 336 L70 384 L110 384 L166 702 L255 702 L199 384 L239 384 Z M235 380 L195 380 L251 698 L170 698 L114 380 L74 380 L67 340 L107 340 L47 2 L128 2 L188 340 L228 340 L235 380 Z " />
<glyph glyph-name="Itilde" unicode="&#x128;" horiz-adv-x="157" d="M123 2 L246 698 L165 698 L42 2 L123 2 Z M127 -2 L38 -2 L161 702 L250 702 L127 -2 Z M113 738 Q143 768 166 768 Q184 768 204 755 Q229 737 256 737 Q296 737 342 783 L316 806 Q291 781 270 777 Q252 774 230 788 Q199 808 174 808 Q133 808 87 762 L113 738 Z M81 762 Q131 812 174 812 Q201 812 232 792 Q253 778 270 781 Q291 786 316 812 L348 783 Q301 733 255 733 Q228 733 202 751 Q182 764 166 764 Q156 764 142 756 Q128 748 113 732 L81 762 Z " />
<glyph glyph-name="J" unicode="J" horiz-adv-x="372" d="M174 -7 Q241 -7 291 32 Q345 75 360 156 L455 698 L374 698 L279 156 Q272 114 249.5 94 Q227 74 189 74 Q126 74 126 129 Q126 141 129 156 L144 244 L63 244 L48 156 Q44 135 44 112 Q44 61 71 31 Q107 -7 174 -7 Z M174 -11 Q106 -11 69 29 Q40 59 40 112 Q40 135 44 156 L59 248 L148 248 L133 156 Q130 141 130 129 Q130 102 144.5 90 Q159 78 189 78 Q226 78 246.5 97 Q267 116 275 156 L370 702 L459 702 L364 156 Q349 73 293 28 Q244 -11 174 -11 Z " />
<glyph glyph-name="K" unicode="K" horiz-adv-x="392" d="M156 163 L127 -2 L38 -2 L161 702 L250 702 L193 372 L404 702 L503 702 L288 368 L379 -2 L282 -2 L218 259 L156 162 L156 163 Z M152 164 L220 269 L286 2 L373 2 L284 368 L495 698 L406 698 L185 354 L246 698 L165 698 L42 2 L123 2 L152 163 L152 164 Z " />
<glyph glyph-name="Kcommaaccent" unicode="&#x136;" horiz-adv-x="392" d="M156 163 L127 -2 L38 -2 L161 702 L250 702 L193 372 L404 702 L503 702 L288 368 L379 -2 L282 -2 L218 259 L156 162 L156 163 Z M152 164 L220 269 L286 2 L373 2 L284 368 L495 698 L406 698 L185 354 L246 698 L165 698 L42 2 L123 2 L152 163 L152 164 Z M237 -78 Q237 -88 232 -99.5 Q227 -111 216 -128 Q192 -158 176 -177 L142 -177 L140 -174 Q144 -168 147.5 -161.5 Q151 -155 155 -149 Q160 -137 160 -133 Q160 -128 156 -125 Q141 -112 141 -93 Q141 -88 142 -85 Q145 -66 161 -52 Q177 -38 197 -38 Q214 -38 225.5 -49.5 Q237 -61 237 -78 Z M233 -77 Q233 -62 223 -52 Q213 -42 197 -42 Q179 -42 164 -54.5 Q149 -67 146 -85 Q145 -88 145 -93 Q145 -109 158 -122 Q163 -127 163 -135 Q163 -141 159 -151 Q155 -157 151.5 -163.5 Q148 -170 144 -176 L142 -173 L174 -173 Q204 -138 212 -126 Q233 -91 233 -77 Z " />
<glyph glyph-name="uni0198" unicode="&#x198;" horiz-adv-x="441" d="M521 702 Q546 702 561 687 Q576 672 576 648 Q576 639 575 635 L527 635 Q528 637 528 642 Q528 648 524.5 651.5 Q521 655 514 655 L473 655 L288 368 L379 -2 L282 -2 L218 259 L156 162 L156 163 L127 -2 L38 -2 L161 702 L250 702 L193 372 L404 702 L521 702 Z M406 698 L185 354 L246 698 L165 698 L42 2 L123 2 L152 163 L152 164 L220 269 L286 2 L373 2 L284 368 L471 659 L514 659 Q523 659 528 653 Q533 647 532 639 L571 639 L572 648 Q572 670 557.5 684 Q543 698 521 698 L406 698 Z " />
<glyph glyph-name="L" unicode="L" horiz-adv-x="332" d="M314 2 L329 83 L138 83 L246 698 L165 698 L42 2 L314 2 Z M318 -2 L38 -2 L161 702 L250 702 L142 87 L333 87 L318 -2 Z " />
<glyph glyph-name="Lacute" unicode="&#x139;" horiz-adv-x="332" d="M314 2 L329 83 L138 83 L246 697 L165 697 L42 2 L314 2 Z M318 -2 L38 -2 L161 701 L250 701 L142 87 L333 87 L318 -2 Z M274 839 L191 739 L237 739 L353 839 L274 839 Z M272 843 L363 843 L239 735 L183 735 L272 843 Z " />
<glyph glyph-name="Lcaron" unicode="&#x13d;" horiz-adv-x="332" d="M314 2 L329 83 L138 83 L246 697 L165 697 L42 2 L314 2 Z M318 -2 L38 -2 L161 701 L250 701 L142 87 L333 87 L318 -2 Z M413 663 Q413 643 392 611 Q368 581 352 562 L318 562 L316 565 Q321 573 331 590 Q336 600 336 606 Q336 611 333 614 Q315 631 318 654 Q322 674 338 687.5 Q354 701 373 701 Q390 701 401.5 690 Q413 679 413 663 Z M409 663 Q409 677 399 687 Q389 697 373 697 Q355 697 340.5 684.5 Q326 672 322 654 Q319 632 336 617 Q340 612 340 606 Q340 601 335 588 Q325 571 320 563 L318 566 L350 566 Q380 601 388 613 Q409 645 409 663 Z " />
<glyph glyph-name="uni1E3C" unicode="&#x1e3c;" horiz-adv-x="332" d="M314 2 L329 83 L138 83 L246 697 L165 697 L42 2 L314 2 Z M318 -2 L38 -2 L161 701 L250 701 L142 87 L333 87 L318 -2 Z M267 -145 L213 -145 L164 -89 L95 -145 L39 -145 L128 -38 L215 -38 L267 -145 Z M261 -141 L213 -42 L130 -42 L47 -141 L93 -141 L164 -83 L215 -141 L261 -141 Z " />
<glyph glyph-name="Lcommaaccent" unicode="&#x13b;" horiz-adv-x="332" d="M314 2 L329 83 L138 83 L246 697 L165 697 L42 2 L314 2 Z M318 -2 L38 -2 L161 701 L250 701 L142 87 L333 87 L318 -2 Z M211 -78 Q211 -88 206 -99.5 Q201 -111 190 -128 Q166 -158 150 -177 L116 -177 L114 -174 Q118 -168 121.5 -161.5 Q125 -155 129 -149 Q134 -137 134 -133 Q134 -128 130 -125 Q115 -112 115 -93 Q115 -88 116 -85 Q119 -66 135 -52 Q151 -38 171 -38 Q188 -38 199.5 -49.5 Q211 -61 211 -78 Z M207 -77 Q207 -62 197 -52 Q187 -42 171 -42 Q153 -42 138 -54.5 Q123 -67 120 -85 Q119 -88 119 -93 Q119 -109 132 -122 Q137 -127 137 -135 Q137 -141 133 -151 Q129 -157 125.5 -163.5 Q122 -170 118 -176 L116 -173 L148 -173 Q178 -138 186 -126 Q207 -91 207 -77 Z " />
<glyph glyph-name="uni1E36" unicode="&#x1e36;" horiz-adv-x="332" d="M314 2 L329 83 L138 83 L246 697 L165 697 L42 2 L314 2 Z M318 -2 L38 -2 L161 701 L250 701 L142 87 L333 87 L318 -2 Z M171 -42 Q151 -42 135 -57 Q119 -72 119 -93 Q119 -108 129 -118 Q139 -128 155 -128 Q175 -128 191 -113 Q207 -98 207 -77 Q207 -62 197 -52 Q187 -42 171 -42 Z M171 -38 Q188 -38 199.5 -49.5 Q211 -61 211 -78 Q211 -99 193.5 -115.5 Q176 -132 155 -132 Q138 -132 126.5 -120.5 Q115 -109 115 -92 Q115 -71 132.5 -54.5 Q150 -38 171 -38 Z " />
<glyph glyph-name="Lslash" unicode="&#x141;" horiz-adv-x="332" d="M142 87 L333 87 L318 -2 L38 -2 L70 183 L6 126 L18 195 L82 252 L161 701 L250 701 L188 347 L337 482 L325 413 L176 278 L142 87 Z M138 83 L172 280 L321 415 L331 472 L182 337 L246 697 L165 697 L86 250 L22 193 L12 136 L76 193 L42 2 L314 2 L329 83 L138 83 Z " />
<glyph glyph-name="M" unicode="M" horiz-adv-x="527" d="M307 243 L561 702 L612 702 L489 -2 L400 -2 L468 383 L303 84 L253 84 L195 384 L127 -2 L38 -2 L161 702 L213 702 L307 243 Z M305 231 L209 698 L165 698 L42 2 L123 2 L195 406 L257 88 L301 88 L476 407 L404 2 L485 2 L608 698 L563 698 L305 231 Z " />
<glyph glyph-name="uni1E3E" unicode="&#x1e3e;" horiz-adv-x="527" d="M307 243 L561 702 L612 702 L489 -2 L400 -2 L468 383 L303 84 L253 84 L195 384 L127 -2 L38 -2 L161 702 L213 702 L307 243 Z M305 231 L209 698 L165 698 L42 2 L123 2 L195 406 L257 88 L301 88 L476 407 L404 2 L485 2 L608 698 L563 698 L305 231 Z M455 839 L372 739 L418 739 L534 839 L455 839 Z M453 843 L544 843 L420 735 L364 735 L453 843 Z " />
<glyph glyph-name="N" unicode="N" horiz-adv-x="405" d="M198 413 L126 -2 L37 -2 L160 702 L211 702 L330 286 L402 702 L491 702 L368 -2 L317 -2 L198 413 Z M198 431 L321 2 L364 2 L487 698 L406 698 L330 268 L207 698 L164 698 L41 2 L122 2 L198 431 Z " />
<glyph glyph-name="Nacute" unicode="&#x143;" horiz-adv-x="405" d="M198 413 L126 -2 L37 -2 L160 702 L211 702 L330 286 L402 702 L491 702 L368 -2 L317 -2 L198 413 Z M198 431 L321 2 L364 2 L487 698 L406 698 L330 268 L207 698 L164 698 L41 2 L122 2 L198 431 Z M394 839 L311 739 L357 739 L473 839 L394 839 Z M392 843 L483 843 L359 735 L303 735 L392 843 Z " />
<glyph glyph-name="Ncaron" unicode="&#x147;" horiz-adv-x="405" d="M198 413 L126 -2 L37 -2 L160 702 L211 702 L330 286 L402 702 L491 702 L368 -2 L317 -2 L198 413 Z M198 431 L321 2 L364 2 L487 698 L406 698 L330 268 L207 698 L164 698 L41 2 L122 2 L198 431 Z M465 842 L376 735 L289 735 L237 842 L292 842 L341 786 L410 842 L465 842 Z M457 838 L412 838 L341 780 L290 838 L243 838 L291 739 L374 739 L457 838 Z " />
<glyph glyph-name="uni1E4A" unicode="&#x1e4a;" horiz-adv-x="405" d="M198 413 L126 -2 L37 -2 L160 702 L211 702 L330 286 L402 702 L491 702 L368 -2 L317 -2 L198 413 Z M198 431 L321 2 L364 2 L487 698 L406 698 L330 268 L207 698 L164 698 L41 2 L122 2 L198 431 Z M291 -145 L237 -145 L188 -89 L119 -145 L63 -145 L152 -38 L239 -38 L291 -145 Z M285 -141 L237 -42 L154 -42 L71 -141 L117 -141 L188 -83 L239 -141 L285 -141 Z " />
<glyph glyph-name="Ncommaaccent" unicode="&#x145;" horiz-adv-x="405" d="M236 -78 Q236 -88 231 -99.5 Q226 -111 215 -128 Q191 -158 175 -177 L141 -177 L139 -174 Q143 -168 146.5 -161.5 Q150 -155 154 -149 Q159 -137 159 -133 Q159 -128 155 -125 Q140 -112 140 -93 Q140 -88 141 -85 Q144 -66 160 -52 Q176 -38 196 -38 Q213 -38 224.5 -49.5 Q236 -61 236 -78 Z M232 -77 Q232 -62 222 -52 Q212 -42 196 -42 Q178 -42 163 -54.5 Q148 -67 145 -85 Q144 -88 144 -93 Q144 -109 157 -122 Q162 -127 162 -135 Q162 -141 158 -151 Q154 -157 150.5 -163.5 Q147 -170 143 -176 L141 -173 L173 -173 Q203 -138 211 -126 Q232 -91 232 -77 Z M198 413 L126 -2 L37 -2 L160 702 L211 702 L330 286 L402 702 L491 702 L368 -2 L317 -2 L198 413 Z M198 431 L321 2 L364 2 L487 698 L406 698 L330 268 L207 698 L164 698 L41 2 L122 2 L198 431 Z " />
<glyph glyph-name="uni1E44" unicode="&#x1e44;" horiz-adv-x="405" d="M198 413 L126 -2 L37 -2 L160 702 L211 702 L330 286 L402 702 L491 702 L368 -2 L317 -2 L198 413 Z M198 431 L321 2 L364 2 L487 698 L406 698 L330 268 L207 698 L164 698 L41 2 L122 2 L198 431 Z M349 825 Q331 825 316 812.5 Q301 800 298 782 Q297 779 297 773 Q297 759 307 749 Q317 739 333 739 Q351 739 365.5 751.5 Q380 764 384 782 Q387 800 377 812.5 Q367 825 349 825 Z M349 829 Q368 829 379.5 815.5 Q391 802 388 782 Q384 762 368 748.5 Q352 735 333 735 Q316 735 304.5 746 Q293 757 293 773 Q293 779 294 782 Q297 801 313 815 Q329 829 349 829 Z " />
<glyph glyph-name="uni1E46" unicode="&#x1e46;" horiz-adv-x="405" d="M198 413 L126 -2 L37 -2 L160 702 L211 702 L330 286 L402 702 L491 702 L368 -2 L317 -2 L198 413 Z M198 431 L321 2 L364 2 L487 698 L406 698 L330 268 L207 698 L164 698 L41 2 L122 2 L198 431 Z M196 -42 Q176 -42 160 -57 Q144 -72 144 -93 Q144 -108 154 -118 Q164 -128 180 -128 Q200 -128 216 -113 Q232 -98 232 -77 Q232 -62 222 -52 Q212 -42 196 -42 Z M196 -38 Q213 -38 224.5 -49.5 Q236 -61 236 -78 Q236 -99 218.5 -115.5 Q201 -132 180 -132 Q163 -132 151.5 -120.5 Q140 -109 140 -92 Q140 -71 157.5 -54.5 Q175 -38 196 -38 Z " />
<glyph glyph-name="Eng" unicode="&#x14a;" horiz-adv-x="405" d="M491 702 L361 -42 Q355 -70 332 -89 Q309 -108 282 -107 L290 -60 L292 -60 Q299 -60 306 -54.5 Q313 -49 314 -42 L321 0 L321 -1 L199 413 L126 -2 L37 -2 L160 702 L211 702 L330 286 L402 702 L491 702 Z M330 268 L207 698 L164 698 L41 2 L122 2 L198 431 L325 1 L325 0 L318 -42 Q317 -51 309.5 -57 Q302 -63 294 -64 L286 -103 Q311 -102 331.5 -84.5 Q352 -67 357 -42 L487 698 L406 698 L330 268 Z " />
<glyph glyph-name="uni019D" unicode="&#x19d;" horiz-adv-x="405" d="M491 702 L368 -2 L317 -2 L198 413 L126 0 Q119 -44 88.5 -76 Q58 -108 -2 -107 L6 -60 L8 -60 Q15 -60 22 -54.5 Q29 -49 30 -42 L160 702 L211 702 L330 286 L402 702 L491 702 Z M330 268 L207 698 L164 698 L34 -42 Q33 -51 25.5 -57 Q18 -63 10 -64 L2 -103 Q58 -102 86.5 -72 Q115 -42 122 0 L198 431 L321 2 L364 2 L487 698 L406 698 L330 268 Z " />
<glyph glyph-name="Ntilde" unicode="&#xd1;" horiz-adv-x="405" d="M198 413 L126 -2 L37 -2 L160 702 L211 702 L330 286 L402 702 L491 702 L368 -2 L317 -2 L198 413 Z M198 431 L321 2 L364 2 L487 698 L406 698 L330 268 L207 698 L164 698 L41 2 L122 2 L198 431 Z M237 738 Q267 768 290 768 Q308 768 328 755 Q353 737 380 737 Q420 737 466 783 L440 806 Q415 781 394 777 Q376 774 354 788 Q323 808 298 808 Q257 808 211 762 L237 738 Z M205 762 Q255 812 298 812 Q325 812 356 792 Q377 778 394 781 Q415 786 440 812 L472 783 Q425 733 379 733 Q352 733 326 751 Q306 764 290 764 Q280 764 266 756 Q252 748 237 732 L205 762 Z " />
<glyph glyph-name="O" unicode="O" horiz-adv-x="384" d="M190 -7 Q257 -7 307 32 Q361 75 376 156 L444 544 Q448 574 448 585 Q448 636 420 669 Q384 707 317 707 Q250 707 200 668 Q145 622 132 544 L64 156 Q60 136 60 113 Q60 61 87 31 Q123 -7 190 -7 Z M190 -11 Q122 -11 85 29 Q56 59 56 114 Q56 136 60 156 L128 544 Q142 625 198 672 Q249 711 317 711 Q386 711 423 671 Q452 637 452 584 Q452 572 448 544 L380 156 Q365 73 309 28 Q260 -11 190 -11 Z M302 626 Q366 626 366 570 Q366 559 363 544 L295 156 Q288 114 266 94 Q244 74 205 74 Q142 74 142 129 Q142 141 145 156 L213 544 Q220 587 242 606.5 Q264 626 302 626 Z M302 622 Q265 622 245 603.5 Q225 585 217 544 L149 156 Q146 141 146 129 Q146 102 160.5 90 Q175 78 205 78 Q242 78 262.5 96.5 Q283 115 291 156 L359 544 Q362 559 362 570 Q362 622 302 622 Z " />
<glyph glyph-name="Oacute" unicode="&#xd3;" horiz-adv-x="384" d="M190 -7 Q257 -7 307 32 Q361 75 376 156 L444 544 Q448 574 448 585 Q448 636 420 669 Q384 707 317 707 Q250 707 200 668 Q145 622 132 544 L64 156 Q60 136 60 113 Q60 61 87 31 Q123 -7 190 -7 Z M190 -11 Q122 -11 85 29 Q56 59 56 114 Q56 136 60 156 L128 544 Q142 625 198 672 Q249 711 317 711 Q386 711 423 671 Q452 637 452 584 Q452 572 448 544 L380 156 Q365 73 309 28 Q260 -11 190 -11 Z M302 626 Q366 626 366 570 Q366 559 363 544 L295 156 Q288 114 266 94 Q244 74 205 74 Q142 74 142 129 Q142 141 145 156 L213 544 Q220 587 242 606.5 Q264 626 302 626 Z M302 622 Q265 622 245 603.5 Q225 585 217 544 L149 156 Q146 141 146 129 Q146 102 160.5 90 Q175 78 205 78 Q242 78 262.5 96.5 Q283 115 291 156 L359 544 Q362 559 362 570 Q362 622 302 622 Z M383 839 L300 739 L346 739 L462 839 L383 839 Z M381 843 L472 843 L348 735 L292 735 L381 843 Z " />
<glyph glyph-name="uni01D1" unicode="&#x1d1;" horiz-adv-x="384" d="M190 -7 Q257 -7 307 32 Q361 75 376 156 L444 544 Q448 574 448 585 Q448 636 420 669 Q384 707 317 707 Q250 707 200 668 Q145 622 132 544 L64 156 Q60 136 60 113 Q60 61 87 31 Q123 -7 190 -7 Z M190 -11 Q122 -11 85 29 Q56 59 56 114 Q56 136 60 156 L128 544 Q142 625 198 672 Q249 711 317 711 Q386 711 423 671 Q452 637 452 584 Q452 572 448 544 L380 156 Q365 73 309 28 Q260 -11 190 -11 Z M302 626 Q366 626 366 570 Q366 559 363 544 L295 156 Q288 114 266 94 Q244 74 205 74 Q142 74 142 129 Q142 141 145 156 L213 544 Q220 587 242 606.5 Q264 626 302 626 Z M302 622 Q265 622 245 603.5 Q225 585 217 544 L149 156 Q146 141 146 129 Q146 102 160.5 90 Q175 78 205 78 Q242 78 262.5 96.5 Q283 115 291 156 L359 544 Q362 559 362 570 Q362 622 302 622 Z M454 842 L365 735 L278 735 L226 842 L281 842 L330 786 L399 842 L454 842 Z M446 838 L401 838 L330 780 L279 838 L232 838 L280 739 L363 739 L446 838 Z " />
<glyph glyph-name="Ocircumflex" unicode="&#xd4;" horiz-adv-x="384" d="M190 -7 Q257 -7 307 32 Q361 75 376 156 L444 544 Q448 574 448 585 Q448 636 420 669 Q384 707 317 707 Q250 707 200 668 Q145 622 132 544 L64 156 Q60 136 60 113 Q60 61 87 31 Q123 -7 190 -7 Z M190 -11 Q122 -11 85 29 Q56 59 56 114 Q56 136 60 156 L128 544 Q142 625 198 672 Q249 711 317 711 Q386 711 423 671 Q452 637 452 584 Q452 572 448 544 L380 156 Q365 73 309 28 Q260 -11 190 -11 Z M302 626 Q366 626 366 570 Q366 559 363 544 L295 156 Q288 114 266 94 Q244 74 205 74 Q142 74 142 129 Q142 141 145 156 L213 544 Q220 587 242 606.5 Q264 626 302 626 Z M302 622 Q265 622 245 603.5 Q225 585 217 544 L149 156 Q146 141 146 129 Q146 102 160.5 90 Q175 78 205 78 Q242 78 262.5 96.5 Q283 115 291 156 L359 544 Q362 559 362 570 Q362 622 302 622 Z M435 735 L381 735 L332 791 L263 735 L207 735 L296 842 L383 842 L435 735 Z M429 739 L381 838 L298 838 L215 739 L261 739 L332 797 L383 739 L429 739 Z " />
<glyph glyph-name="uni1ED0" unicode="&#x1ed0;" horiz-adv-x="384" d="M190 -7 Q257 -7 307 32 Q361 75 376 156 L444 544 Q448 574 448 585 Q448 636 420 669 Q384 707 317 707 Q250 707 200 668 Q145 622 132 544 L64 156 Q60 136 60 113 Q60 61 87 31 Q123 -7 190 -7 Z M190 -11 Q122 -11 85 29 Q56 59 56 114 Q56 136 60 156 L128 544 Q142 625 198 672 Q249 711 317 711 Q386 711 423 671 Q452 637 452 584 Q452 572 448 544 L380 156 Q365 73 309 28 Q260 -11 190 -11 Z M302 626 Q366 626 366 570 Q366 559 363 544 L295 156 Q288 114 266 94 Q244 74 205 74 Q142 74 142 129 Q142 141 145 156 L213 544 Q220 587 242 606.5 Q264 626 302 626 Z M302 622 Q265 622 245 603.5 Q225 585 217 544 L149 156 Q146 141 146 129 Q146 102 160.5 90 Q175 78 205 78 Q242 78 262.5 96.5 Q283 115 291 156 L359 544 Q362 559 362 570 Q362 622 302 622 Z M435 735 L381 735 L332 791 L263 735 L207 735 L296 842 L383 842 L435 735 Z M429 739 L381 838 L298 838 L215 739 L261 739 L332 797 L383 739 L429 739 Z M514 940 L432 839 L477 839 L594 940 L514 940 Z M512 944 L604 944 L479 835 L424 835 L512 944 Z " />
<glyph glyph-name="uni1ED8" unicode="&#x1ed8;" horiz-adv-x="384" d="M190 -7 Q257 -7 307 32 Q361 75 376 156 L444 544 Q448 574 448 585 Q448 636 420 669 Q384 707 317 707 Q250 707 200 668 Q145 622 132 544 L64 156 Q60 136 60 113 Q60 61 87 31 Q123 -7 190 -7 Z M190 -11 Q122 -11 85 29 Q56 59 56 114 Q56 136 60 156 L128 544 Q142 625 198 672 Q249 711 317 711 Q386 711 423 671 Q452 637 452 584 Q452 572 448 544 L380 156 Q365 73 309 28 Q260 -11 190 -11 Z M302 626 Q366 626 366 570 Q366 559 363 544 L295 156 Q288 114 266 94 Q244 74 205 74 Q142 74 142 129 Q142 141 145 156 L213 544 Q220 587 242 606.5 Q264 626 302 626 Z M302 622 Q265 622 245 603.5 Q225 585 217 544 L149 156 Q146 141 146 129 Q146 102 160.5 90 Q175 78 205 78 Q242 78 262.5 96.5 Q283 115 291 156 L359 544 Q362 559 362 570 Q362 622 302 622 Z M185 -42 Q165 -42 149 -57 Q133 -72 133 -93 Q133 -108 143 -118 Q153 -128 169 -128 Q189 -128 205 -113 Q221 -98 221 -77 Q221 -62 211 -52 Q201 -42 185 -42 Z M185 -38 Q202 -38 213.5 -49.5 Q225 -61 225 -78 Q225 -99 207.5 -115.5 Q190 -132 169 -132 Q152 -132 140.5 -120.5 Q129 -109 129 -92 Q129 -71 146.5 -54.5 Q164 -38 185 -38 Z M435 735 L381 735 L332 791 L263 735 L207 735 L296 842 L383 842 L435 735 Z M429 739 L381 838 L298 838 L215 739 L261 739 L332 797 L383 739 L429 739 Z " />
<glyph glyph-name="uni1ED2" unicode="&#x1ed2;" horiz-adv-x="384" d="M190 -7 Q257 -7 307 32 Q361 75 376 156 L444 544 Q448 574 448 585 Q448 636 420 669 Q384 707 317 707 Q250 707 200 668 Q145 622 132 544 L64 156 Q60 136 60 113 Q60 61 87 31 Q123 -7 190 -7 Z M190 -11 Q122 -11 85 29 Q56 59 56 114 Q56 136 60 156 L128 544 Q142 625 198 672 Q249 711 317 711 Q386 711 423 671 Q452 637 452 584 Q452 572 448 544 L380 156 Q365 73 309 28 Q260 -11 190 -11 Z M302 626 Q366 626 366 570 Q366 559 363 544 L295 156 Q288 114 266 94 Q244 74 205 74 Q142 74 142 129 Q142 141 145 156 L213 544 Q220 587 242 606.5 Q264 626 302 626 Z M302 622 Q265 622 245 603.5 Q225 585 217 544 L149 156 Q146 141 146 129 Q146 102 160.5 90 Q175 78 205 78 Q242 78 262.5 96.5 Q283 115 291 156 L359 544 Q362 559 362 570 Q362 622 302 622 Z M435 735 L381 735 L332 791 L263 735 L207 735 L296 842 L383 842 L435 735 Z M429 739 L381 838 L298 838 L215 739 L261 739 L332 797 L383 739 L429 739 Z M428 940 L347 940 L429 839 L475 839 L428 940 Z M430 944 L481 835 L427 835 L339 944 L430 944 Z " />
<glyph glyph-name="uni1ED4" unicode="&#x1ed4;" horiz-adv-x="384" d="M190 -7 Q257 -7 307 32 Q361 75 376 156 L444 544 Q448 574 448 585 Q448 636 420 669 Q384 707 317 707 Q250 707 200 668 Q145 622 132 544 L64 156 Q60 136 60 113 Q60 61 87 31 Q123 -7 190 -7 Z M190 -11 Q122 -11 85 29 Q56 59 56 114 Q56 136 60 156 L128 544 Q142 625 198 672 Q249 711 317 711 Q386 711 423 671 Q452 637 452 584 Q452 572 448 544 L380 156 Q365 73 309 28 Q260 -11 190 -11 Z M302 626 Q366 626 366 570 Q366 559 363 544 L295 156 Q288 114 266 94 Q244 74 205 74 Q142 74 142 129 Q142 141 145 156 L213 544 Q220 587 242 606.5 Q264 626 302 626 Z M302 622 Q265 622 245 603.5 Q225 585 217 544 L149 156 Q146 141 146 129 Q146 102 160.5 90 Q175 78 205 78 Q242 78 262.5 96.5 Q283 115 291 156 L359 544 Q362 559 362 570 Q362 622 302 622 Z M435 735 L381 735 L332 791 L263 735 L207 735 L296 842 L383 842 L435 735 Z M429 739 L381 838 L298 838 L215 739 L261 739 L332 797 L383 739 L429 739 Z M387 940 Q425 940 450 915 Q475 890 475 853 Q475 847 473 835 L426 835 Q427 839 427 846 Q427 867 413.5 880.5 Q400 894 379 893 L346 932 Q365 940 387 940 Z M387 936 Q370 936 352 930 L381 897 Q405 897 419 880 Q433 863 430 839 L469 839 Q470 844 470 854 Q470 889 446.5 912.5 Q423 936 387 936 Z " />
<glyph glyph-name="uni1ED6" unicode="&#x1ed6;" horiz-adv-x="384" d="M190 -7 Q257 -7 307 32 Q361 75 376 156 L444 544 Q448 574 448 585 Q448 636 420 669 Q384 707 317 707 Q250 707 200 668 Q145 622 132 544 L64 156 Q60 136 60 113 Q60 61 87 31 Q123 -7 190 -7 Z M190 -11 Q122 -11 85 29 Q56 59 56 114 Q56 136 60 156 L128 544 Q142 625 198 672 Q249 711 317 711 Q386 711 423 671 Q452 637 452 584 Q452 572 448 544 L380 156 Q365 73 309 28 Q260 -11 190 -11 Z M302 626 Q366 626 366 570 Q366 559 363 544 L295 156 Q288 114 266 94 Q244 74 205 74 Q142 74 142 129 Q142 141 145 156 L213 544 Q220 587 242 606.5 Q264 626 302 626 Z M302 622 Q265 622 245 603.5 Q225 585 217 544 L149 156 Q146 141 146 129 Q146 102 160.5 90 Q175 78 205 78 Q242 78 262.5 96.5 Q283 115 291 156 L359 544 Q362 559 362 570 Q362 622 302 622 Z M245 868 Q275 898 298 898 Q316 898 336 885 Q362 867 388 867 Q428 867 474 913 L448 936 Q423 911 402 907 Q382 904 362 918 Q331 938 305 938 Q265 938 219 892 L245 868 Z M213 892 Q263 942 306 942 Q333 942 364 922 Q384 908 402 911 Q423 916 448 942 L480 913 Q433 863 387 863 Q359 863 334 881 Q314 894 298 894 Q288 894 274 886 Q260 878 245 862 L213 892 Z M435 735 L381 735 L332 791 L263 735 L207 735 L296 842 L383 842 L435 735 Z M429 739 L381 838 L298 838 L215 739 L261 739 L332 797 L383 739 L429 739 Z " />
<glyph glyph-name="Odieresis" unicode="&#xd6;" horiz-adv-x="384" d="M190 -7 Q257 -7 307 32 Q361 75 376 156 L444 544 Q448 574 448 585 Q448 636 420 669 Q384 707 317 707 Q250 707 200 668 Q145 622 132 544 L64 156 Q60 136 60 113 Q60 61 87 31 Q123 -7 190 -7 Z M190 -11 Q122 -11 85 29 Q56 59 56 114 Q56 136 60 156 L128 544 Q142 625 198 672 Q249 711 317 711 Q386 711 423 671 Q452 637 452 584 Q452 572 448 544 L380 156 Q365 73 309 28 Q260 -11 190 -11 Z M302 626 Q366 626 366 570 Q366 559 363 544 L295 156 Q288 114 266 94 Q244 74 205 74 Q142 74 142 129 Q142 141 145 156 L213 544 Q220 587 242 606.5 Q264 626 302 626 Z M302 622 Q265 622 245 603.5 Q225 585 217 544 L149 156 Q146 141 146 129 Q146 102 160.5 90 Q175 78 205 78 Q242 78 262.5 96.5 Q283 115 291 156 L359 544 Q362 559 362 570 Q362 622 302 622 Z M301 782 Q304 800 294 812.5 Q284 825 266 825 Q248 825 233 812.5 Q218 800 215 782 Q214 779 214 773 Q214 759 224 749 Q234 739 250 739 Q268 739 282.5 751.5 Q297 764 301 782 Z M305 782 Q301 762 285 748.5 Q269 735 250 735 Q233 735 221.5 746 Q210 757 210 773 Q210 779 211 782 Q214 801 230 815 Q246 829 266 829 Q285 829 296.5 815.5 Q308 802 305 782 Z M445 782 Q448 800 438 812.5 Q428 825 410 825 Q392 825 377 812.5 Q362 800 359 782 Q358 779 358 773 Q358 759 368 749 Q378 739 394 739 Q412 739 426.5 751.5 Q441 764 445 782 Z M449 782 Q445 762 429 748.5 Q413 735 394 735 Q377 735 365.5 746 Q354 757 354 773 Q354 779 355 782 Q358 801 374 815 Q390 829 410 829 Q429 829 440.5 815.5 Q452 802 449 782 Z " />
<glyph glyph-name="uni022A" unicode="&#x22a;" horiz-adv-x="384" d="M190 -7 Q257 -7 307 32 Q361 75 376 156 L444 544 Q448 574 448 585 Q448 636 420 669 Q384 707 317 707 Q250 707 200 668 Q145 622 132 544 L64 156 Q60 136 60 113 Q60 61 87 31 Q123 -7 190 -7 Z M190 -11 Q122 -11 85 29 Q56 59 56 114 Q56 136 60 156 L128 544 Q142 625 198 672 Q249 711 317 711 Q386 711 423 671 Q452 637 452 584 Q452 572 448 544 L380 156 Q365 73 309 28 Q260 -11 190 -11 Z M302 626 Q366 626 366 570 Q366 559 363 544 L295 156 Q288 114 266 94 Q244 74 205 74 Q142 74 142 129 Q142 141 145 156 L213 544 Q220 587 242 606.5 Q264 626 302 626 Z M302 622 Q265 622 245 603.5 Q225 585 217 544 L149 156 Q146 141 146 129 Q146 102 160.5 90 Q175 78 205 78 Q242 78 262.5 96.5 Q283 115 291 156 L359 544 Q362 559 362 570 Q362 622 302 622 Z M301 782 Q304 800 294 812.5 Q284 825 266 825 Q248 825 233 812.5 Q218 800 215 782 Q214 779 214 773 Q214 759 224 749 Q234 739 250 739 Q268 739 282.5 751.5 Q297 764 301 782 Z M305 782 Q301 762 285 748.5 Q269 735 250 735 Q233 735 221.5 746 Q210 757 210 773 Q210 779 211 782 Q214 801 230 815 Q246 829 266 829 Q285 829 296.5 815.5 Q308 802 305 782 Z M445 782 Q448 800 438 812.5 Q428 825 410 825 Q392 825 377 812.5 Q362 800 359 782 Q358 779 358 773 Q358 759 368 749 Q378 739 394 739 Q412 739 426.5 751.5 Q441 764 445 782 Z M449 782 Q445 762 429 748.5 Q413 735 394 735 Q377 735 365.5 746 Q354 757 354 773 Q354 779 355 782 Q358 801 374 815 Q390 829 410 829 Q429 829 440.5 815.5 Q452 802 449 782 Z M495 867 L502 908 L202 908 L195 867 L495 867 Z M499 863 L191 863 L198 912 L506 912 L499 863 Z " />
<glyph glyph-name="uni1ECC" unicode="&#x1ecc;" horiz-adv-x="384" d="M190 -7 Q257 -7 307 32 Q361 75 376 156 L444 544 Q448 574 448 585 Q448 636 420 669 Q384 707 317 707 Q250 707 200 668 Q145 622 132 544 L64 156 Q60 136 60 113 Q60 61 87 31 Q123 -7 190 -7 Z M190 -11 Q122 -11 85 29 Q56 59 56 114 Q56 136 60 156 L128 544 Q142 625 198 672 Q249 711 317 711 Q386 711 423 671 Q452 637 452 584 Q452 572 448 544 L380 156 Q365 73 309 28 Q260 -11 190 -11 Z M302 626 Q366 626 366 570 Q366 559 363 544 L295 156 Q288 114 266 94 Q244 74 205 74 Q142 74 142 129 Q142 141 145 156 L213 544 Q220 587 242 606.5 Q264 626 302 626 Z M302 622 Q265 622 245 603.5 Q225 585 217 544 L149 156 Q146 141 146 129 Q146 102 160.5 90 Q175 78 205 78 Q242 78 262.5 96.5 Q283 115 291 156 L359 544 Q362 559 362 570 Q362 622 302 622 Z M185 -42 Q165 -42 149 -57 Q133 -72 133 -93 Q133 -108 143 -118 Q153 -128 169 -128 Q189 -128 205 -113 Q221 -98 221 -77 Q221 -62 211 -52 Q201 -42 185 -42 Z M185 -38 Q202 -38 213.5 -49.5 Q225 -61 225 -78 Q225 -99 207.5 -115.5 Q190 -132 169 -132 Q152 -132 140.5 -120.5 Q129 -109 129 -92 Q129 -71 146.5 -54.5 Q164 -38 185 -38 Z " />
<glyph glyph-name="Ograve" unicode="&#xd2;" horiz-adv-x="384" d="M190 -7 Q257 -7 307 32 Q361 75 376 156 L444 544 Q448 574 448 585 Q448 636 420 669 Q384 707 317 707 Q250 707 200 668 Q145 622 132 544 L64 156 Q60 136 60 113 Q60 61 87 31 Q123 -7 190 -7 Z M190 -11 Q122 -11 85 29 Q56 59 56 114 Q56 136 60 156 L128 544 Q142 625 198 672 Q249 711 317 711 Q386 711 423 671 Q452 637 452 584 Q452 572 448 544 L380 156 Q365 73 309 28 Q260 -11 190 -11 Z M302 626 Q366 626 366 570 Q366 559 363 544 L295 156 Q288 114 266 94 Q244 74 205 74 Q142 74 142 129 Q142 141 145 156 L213 544 Q220 587 242 606.5 Q264 626 302 626 Z M302 622 Q265 622 245 603.5 Q225 585 217 544 L149 156 Q146 141 146 129 Q146 102 160.5 90 Q175 78 205 78 Q242 78 262.5 96.5 Q283 115 291 156 L359 544 Q362 559 362 570 Q362 622 302 622 Z M296 839 L216 839 L297 739 L344 739 L296 839 Z M298 843 L350 735 L295 735 L208 843 L298 843 Z " />
<glyph glyph-name="uni1ECE" unicode="&#x1ece;" horiz-adv-x="384" d="M190 -7 Q257 -7 307 32 Q361 75 376 156 L444 544 Q448 574 448 585 Q448 636 420 669 Q384 707 317 707 Q250 707 200 668 Q145 622 132 544 L64 156 Q60 136 60 113 Q60 61 87 31 Q123 -7 190 -7 Z M190 -11 Q122 -11 85 29 Q56 59 56 114 Q56 136 60 156 L128 544 Q142 625 198 672 Q249 711 317 711 Q386 711 423 671 Q452 637 452 584 Q452 572 448 544 L380 156 Q365 73 309 28 Q260 -11 190 -11 Z M302 626 Q366 626 366 570 Q366 559 363 544 L295 156 Q288 114 266 94 Q244 74 205 74 Q142 74 142 129 Q142 141 145 156 L213 544 Q220 587 242 606.5 Q264 626 302 626 Z M302 622 Q265 622 245 603.5 Q225 585 217 544 L149 156 Q146 141 146 129 Q146 102 160.5 90 Q175 78 205 78 Q242 78 262.5 96.5 Q283 115 291 156 L359 544 Q362 559 362 570 Q362 622 302 622 Z M260 840 Q297 840 322 815.5 Q347 791 347 754 Q347 749 345 735 L298 735 Q299 739 299 747 Q299 767 285.5 780.5 Q272 794 251 793 L219 832 Q235 840 260 840 Z M260 836 Q240 836 225 830 L253 797 Q275 796 289 782.5 Q303 769 303 748 L302 739 L341 739 Q342 744 342 755 Q342 790 319 813 Q296 836 260 836 Z " />
<glyph glyph-name="Ohorn" unicode="&#x1a0;" horiz-adv-x="394" d="M545 731 Q541 703 518 683.5 Q495 664 467 664 L424 664 L426 667 Q452 633 452 584 Q452 563 448 544 L380 156 Q365 73 309 28 Q260 -11 190 -11 Q122 -11 85 29 Q56 59 56 114 Q56 136 60 156 L128 544 Q142 625 198 672 Q249 711 317 711 L475 711 Q483 711 490 717 Q497 723 498 731 L545 731 Z M502 727 Q500 719 492 713 Q484 707 475 707 L317 707 Q250 707 200 668 Q145 622 132 544 L64 156 Q60 136 60 113 Q60 61 87 31 Q123 -7 190 -7 Q257 -7 307 32 Q361 75 376 156 L444 544 Q448 572 448 583 Q448 631 422 665 L424 668 L467 668 Q492 668 513.5 685.5 Q535 703 541 727 L502 727 Z M359 544 Q362 559 362 570 Q362 622 302 622 Q265 622 245 603.5 Q225 585 217 544 L149 156 Q146 141 146 129 Q146 102 160.5 90 Q175 78 205 78 Q242 78 262.5 96.5 Q283 115 291 156 L359 544 Z M295 156 Q288 114 266 94 Q244 74 205 74 Q142 74 142 129 Q142 141 145 156 L213 544 Q220 587 242 606.5 Q264 626 302 626 Q366 626 366 570 Q366 559 363 544 L295 156 Z " />
<glyph glyph-name="uni1EDA" unicode="&#x1eda;" horiz-adv-x="394" d="M545 731 Q541 703 518 683.5 Q495 664 467 664 L424 664 L426 667 Q452 633 452 584 Q452 563 448 544 L380 156 Q365 73 309 28 Q260 -11 190 -11 Q122 -11 85 29 Q56 59 56 114 Q56 136 60 156 L128 544 Q142 625 198 672 Q249 711 317 711 L475 711 Q483 711 490 717 Q497 723 498 731 L545 731 Z M502 727 Q500 719 492 713 Q484 707 475 707 L317 707 Q250 707 200 668 Q145 622 132 544 L64 156 Q60 136 60 113 Q60 61 87 31 Q123 -7 190 -7 Q257 -7 307 32 Q361 75 376 156 L444 544 Q448 572 448 583 Q448 631 422 665 L424 668 L467 668 Q492 668 513.5 685.5 Q535 703 541 727 L502 727 Z M359 544 Q362 559 362 570 Q362 622 302 622 Q265 622 245 603.5 Q225 585 217 544 L149 156 Q146 141 146 129 Q146 102 160.5 90 Q175 78 205 78 Q242 78 262.5 96.5 Q283 115 291 156 L359 544 Z M295 156 Q288 114 266 94 Q244 74 205 74 Q142 74 142 129 Q142 141 145 156 L213 544 Q220 587 242 606.5 Q264 626 302 626 Q366 626 366 570 Q366 559 363 544 L295 156 Z M383 839 L300 739 L346 739 L462 839 L383 839 Z M381 843 L472 843 L348 735 L292 735 L381 843 Z " />
<glyph glyph-name="uni1EE2" unicode="&#x1ee2;" horiz-adv-x="394" d="M545 731 Q541 703 518 683.5 Q495 664 467 664 L424 664 L426 667 Q452 633 452 584 Q452 563 448 544 L380 156 Q365 73 309 28 Q260 -11 190 -11 Q122 -11 85 29 Q56 59 56 114 Q56 136 60 156 L128 544 Q142 625 198 672 Q249 711 317 711 L475 711 Q483 711 490 717 Q497 723 498 731 L545 731 Z M502 727 Q500 719 492 713 Q484 707 475 707 L317 707 Q250 707 200 668 Q145 622 132 544 L64 156 Q60 136 60 113 Q60 61 87 31 Q123 -7 190 -7 Q257 -7 307 32 Q361 75 376 156 L444 544 Q448 572 448 583 Q448 631 422 665 L424 668 L467 668 Q492 668 513.5 685.5 Q535 703 541 727 L502 727 Z M359 544 Q362 559 362 570 Q362 622 302 622 Q265 622 245 603.5 Q225 585 217 544 L149 156 Q146 141 146 129 Q146 102 160.5 90 Q175 78 205 78 Q242 78 262.5 96.5 Q283 115 291 156 L359 544 Z M295 156 Q288 114 266 94 Q244 74 205 74 Q142 74 142 129 Q142 141 145 156 L213 544 Q220 587 242 606.5 Q264 626 302 626 Q366 626 366 570 Q366 559 363 544 L295 156 Z M185 -42 Q165 -42 149 -57 Q133 -72 133 -93 Q133 -108 143 -118 Q153 -128 169 -128 Q189 -128 205 -113 Q221 -98 221 -77 Q221 -62 211 -52 Q201 -42 185 -42 Z M185 -38 Q202 -38 213.5 -49.5 Q225 -61 225 -78 Q225 -99 207.5 -115.5 Q190 -132 169 -132 Q152 -132 140.5 -120.5 Q129 -109 129 -92 Q129 -71 146.5 -54.5 Q164 -38 185 -38 Z " />
<glyph glyph-name="uni1EDC" unicode="&#x1edc;" horiz-adv-x="394" d="M545 731 Q541 703 518 683.5 Q495 664 467 664 L424 664 L426 667 Q452 633 452 584 Q452 563 448 544 L380 156 Q365 73 309 28 Q260 -11 190 -11 Q122 -11 85 29 Q56 59 56 114 Q56 136 60 156 L128 544 Q142 625 198 672 Q249 711 317 711 L475 711 Q483 711 490 717 Q497 723 498 731 L545 731 Z M502 727 Q500 719 492 713 Q484 707 475 707 L317 707 Q250 707 200 668 Q145 622 132 544 L64 156 Q60 136 60 113 Q60 61 87 31 Q123 -7 190 -7 Q257 -7 307 32 Q361 75 376 156 L444 544 Q448 572 448 583 Q448 631 422 665 L424 668 L467 668 Q492 668 513.5 685.5 Q535 703 541 727 L502 727 Z M359 544 Q362 559 362 570 Q362 622 302 622 Q265 622 245 603.5 Q225 585 217 544 L149 156 Q146 141 146 129 Q146 102 160.5 90 Q175 78 205 78 Q242 78 262.5 96.5 Q283 115 291 156 L359 544 Z M295 156 Q288 114 266 94 Q244 74 205 74 Q142 74 142 129 Q142 141 145 156 L213 544 Q220 587 242 606.5 Q264 626 302 626 Q366 626 366 570 Q366 559 363 544 L295 156 Z M296 839 L216 839 L297 739 L344 739 L296 839 Z M298 843 L350 735 L295 735 L208 843 L298 843 Z " />
<glyph glyph-name="uni1EDE" unicode="&#x1ede;" horiz-adv-x="394" d="M545 731 Q541 703 518 683.5 Q495 664 467 664 L424 664 L426 667 Q452 633 452 584 Q452 563 448 544 L380 156 Q365 73 309 28 Q260 -11 190 -11 Q122 -11 85 29 Q56 59 56 114 Q56 136 60 156 L128 544 Q142 625 198 672 Q249 711 317 711 L475 711 Q483 711 490 717 Q497 723 498 731 L545 731 Z M502 727 Q500 719 492 713 Q484 707 475 707 L317 707 Q250 707 200 668 Q145 622 132 544 L64 156 Q60 136 60 113 Q60 61 87 31 Q123 -7 190 -7 Q257 -7 307 32 Q361 75 376 156 L444 544 Q448 572 448 583 Q448 631 422 665 L424 668 L467 668 Q492 668 513.5 685.5 Q535 703 541 727 L502 727 Z M359 544 Q362 559 362 570 Q362 622 302 622 Q265 622 245 603.5 Q225 585 217 544 L149 156 Q146 141 146 129 Q146 102 160.5 90 Q175 78 205 78 Q242 78 262.5 96.5 Q283 115 291 156 L359 544 Z M295 156 Q288 114 266 94 Q244 74 205 74 Q142 74 142 129 Q142 141 145 156 L213 544 Q220 587 242 606.5 Q264 626 302 626 Q366 626 366 570 Q366 559 363 544 L295 156 Z M260 840 Q297 840 322 815.5 Q347 791 347 754 Q347 749 345 735 L298 735 Q299 739 299 747 Q299 767 285.5 780.5 Q272 794 251 793 L219 832 Q235 840 260 840 Z M260 836 Q240 836 225 830 L253 797 Q275 796 289 782.5 Q303 769 303 748 L302 739 L341 739 Q342 744 342 755 Q342 790 319 813 Q296 836 260 836 Z " />
<glyph glyph-name="uni1EE0" unicode="&#x1ee0;" horiz-adv-x="394" d="M545 731 Q541 703 518 683.5 Q495 664 467 664 L424 664 L426 667 Q452 633 452 584 Q452 563 448 544 L380 156 Q365 73 309 28 Q260 -11 190 -11 Q122 -11 85 29 Q56 59 56 114 Q56 136 60 156 L128 544 Q142 625 198 672 Q249 711 317 711 L475 711 Q483 711 490 717 Q497 723 498 731 L545 731 Z M502 727 Q500 719 492 713 Q484 707 475 707 L317 707 Q250 707 200 668 Q145 622 132 544 L64 156 Q60 136 60 113 Q60 61 87 31 Q123 -7 190 -7 Q257 -7 307 32 Q361 75 376 156 L444 544 Q448 572 448 583 Q448 631 422 665 L424 668 L467 668 Q492 668 513.5 685.5 Q535 703 541 727 L502 727 Z M359 544 Q362 559 362 570 Q362 622 302 622 Q265 622 245 603.5 Q225 585 217 544 L149 156 Q146 141 146 129 Q146 102 160.5 90 Q175 78 205 78 Q242 78 262.5 96.5 Q283 115 291 156 L359 544 Z M295 156 Q288 114 266 94 Q244 74 205 74 Q142 74 142 129 Q142 141 145 156 L213 544 Q220 587 242 606.5 Q264 626 302 626 Q366 626 366 570 Q366 559 363 544 L295 156 Z M227 738 Q257 768 280 768 Q298 768 318 755 Q344 737 370 737 Q410 737 456 783 L430 806 Q405 781 384 777 Q366 774 344 788 Q313 808 288 808 Q247 808 201 762 L227 738 Z M195 762 Q245 812 288 812 Q315 812 346 792 Q367 778 384 781 Q405 786 430 812 L462 783 Q415 733 369 733 Q341 733 316 751 Q296 764 280 764 Q270 764 256 756 Q242 748 227 732 L195 762 Z " />
<glyph glyph-name="Ohungarumlaut" unicode="&#x150;" horiz-adv-x="384" d="M190 -7 Q257 -7 307 32 Q361 75 376 156 L444 544 Q448 574 448 585 Q448 636 420 669 Q384 707 317 707 Q250 707 200 668 Q145 622 132 544 L64 156 Q60 136 60 113 Q60 61 87 31 Q123 -7 190 -7 Z M190 -11 Q122 -11 85 29 Q56 59 56 114 Q56 136 60 156 L128 544 Q142 625 198 672 Q249 711 317 711 Q386 711 423 671 Q452 637 452 584 Q452 572 448 544 L380 156 Q365 73 309 28 Q260 -11 190 -11 Z M302 626 Q366 626 366 570 Q366 559 363 544 L295 156 Q288 114 266 94 Q244 74 205 74 Q142 74 142 129 Q142 141 145 156 L213 544 Q220 587 242 606.5 Q264 626 302 626 Z M302 622 Q265 622 245 603.5 Q225 585 217 544 L149 156 Q146 141 146 129 Q146 102 160.5 90 Q175 78 205 78 Q242 78 262.5 96.5 Q283 115 291 156 L359 544 Q362 559 362 570 Q362 622 302 622 Z M315 840 L233 739 L278 739 L395 840 L315 840 Z M313 844 L405 844 L280 735 L225 735 L313 844 Z M450 840 L368 739 L413 739 L530 840 L450 840 Z M448 844 L540 844 L415 735 L360 735 L448 844 Z " />
<glyph glyph-name="Omacron" unicode="&#x14c;" horiz-adv-x="384" d="M190 -7 Q257 -7 307 32 Q361 75 376 156 L444 544 Q448 574 448 585 Q448 636 420 669 Q384 707 317 707 Q250 707 200 668 Q145 622 132 544 L64 156 Q60 136 60 113 Q60 61 87 31 Q123 -7 190 -7 Z M190 -11 Q122 -11 85 29 Q56 59 56 114 Q56 136 60 156 L128 544 Q142 625 198 672 Q249 711 317 711 Q386 711 423 671 Q452 637 452 584 Q452 572 448 544 L380 156 Q365 73 309 28 Q260 -11 190 -11 Z M302 626 Q366 626 366 570 Q366 559 363 544 L295 156 Q288 114 266 94 Q244 74 205 74 Q142 74 142 129 Q142 141 145 156 L213 544 Q220 587 242 606.5 Q264 626 302 626 Z M302 622 Q265 622 245 603.5 Q225 585 217 544 L149 156 Q146 141 146 129 Q146 102 160.5 90 Q175 78 205 78 Q242 78 262.5 96.5 Q283 115 291 156 L359 544 Q362 559 362 570 Q362 622 302 622 Z M472 739 L480 780 L180 780 L172 739 L472 739 Z M476 735 L168 735 L176 784 L484 784 L476 735 Z " />
<glyph glyph-name="uni1E52" unicode="&#x1e52;" horiz-adv-x="384" d="M190 -7 Q257 -7 307 32 Q361 75 376 156 L444 544 Q448 574 448 585 Q448 636 420 669 Q384 707 317 707 Q250 707 200 668 Q145 622 132 544 L64 156 Q60 136 60 113 Q60 61 87 31 Q123 -7 190 -7 Z M190 -11 Q122 -11 85 29 Q56 59 56 114 Q56 136 60 156 L128 544 Q142 625 198 672 Q249 711 317 711 Q386 711 423 671 Q452 637 452 584 Q452 572 448 544 L380 156 Q365 73 309 28 Q260 -11 190 -11 Z M302 626 Q366 626 366 570 Q366 559 363 544 L295 156 Q288 114 266 94 Q244 74 205 74 Q142 74 142 129 Q142 141 145 156 L213 544 Q220 587 242 606.5 Q264 626 302 626 Z M302 622 Q265 622 245 603.5 Q225 585 217 544 L149 156 Q146 141 146 129 Q146 102 160.5 90 Q175 78 205 78 Q242 78 262.5 96.5 Q283 115 291 156 L359 544 Q362 559 362 570 Q362 622 302 622 Z M311 922 L231 922 L312 822 L359 822 L311 922 Z M313 926 L365 818 L310 818 L223 926 L313 926 Z M472 739 L480 780 L180 780 L172 739 L472 739 Z M476 735 L168 735 L176 784 L484 784 L476 735 Z " />
<glyph glyph-name="uni1E50" unicode="&#x1e50;" horiz-adv-x="384" d="M190 -7 Q257 -7 307 32 Q361 75 376 156 L444 544 Q448 574 448 585 Q448 636 420 669 Q384 707 317 707 Q250 707 200 668 Q145 622 132 544 L64 156 Q60 136 60 113 Q60 61 87 31 Q123 -7 190 -7 Z M190 -11 Q122 -11 85 29 Q56 59 56 114 Q56 136 60 156 L128 544 Q142 625 198 672 Q249 711 317 711 Q386 711 423 671 Q452 637 452 584 Q452 572 448 544 L380 156 Q365 73 309 28 Q260 -11 190 -11 Z M302 626 Q366 626 366 570 Q366 559 363 544 L295 156 Q288 114 266 94 Q244 74 205 74 Q142 74 142 129 Q142 141 145 156 L213 544 Q220 587 242 606.5 Q264 626 302 626 Z M302 622 Q265 622 245 603.5 Q225 585 217 544 L149 156 Q146 141 146 129 Q146 102 160.5 90 Q175 78 205 78 Q242 78 262.5 96.5 Q283 115 291 156 L359 544 Q362 559 362 570 Q362 622 302 622 Z M399 922 L316 822 L362 822 L478 922 L399 922 Z M397 926 L488 926 L364 818 L308 818 L397 926 Z M472 739 L480 780 L180 780 L172 739 L472 739 Z M476 735 L168 735 L176 784 L484 784 L476 735 Z " />
<glyph glyph-name="uni0186" unicode="&#x186;" horiz-adv-x="381" d="M187 -7 Q255 -7 303 32 Q358 75 373 156 L441 545 Q445 564 445 585 Q445 637 415 670 Q382 708 314 708 Q247 708 197 669 Q143 625 128 545 L117 483 L198 483 L209 545 Q216 587 238 607 Q260 627 299 627 Q363 627 363 571 Q363 559 360 545 L292 156 Q285 114 262.5 94 Q240 74 202 74 Q138 74 138 130 Q138 141 141 156 L157 248 L76 248 L60 156 Q56 136 56 114 Q56 62 84 31 Q120 -7 187 -7 Z M187 -11 Q119 -11 82 29 Q52 61 52 114 Q52 136 56 156 L72 252 L161 252 L145 156 Q142 141 142 130 Q142 78 202 78 Q239 78 259.5 97 Q280 116 288 156 L356 545 Q359 560 359 571 Q359 623 299 623 Q262 623 241.5 604.5 Q221 586 213 545 L202 479 L113 479 L124 545 Q139 627 195 673 Q246 712 314 712 Q347 712 374.5 701.5 Q402 691 418 672 Q449 638 449 585 Q449 564 445 545 L377 156 Q362 73 305 28 Q281 9 250.5 -1 Q220 -11 187 -11 Z " />
<glyph glyph-name="Oslash" unicode="&#xd8;" horiz-adv-x="385" d="M447 621 Q453 603 453 582 Q453 571 449 543 L380 155 Q366 73 309 28 Q286 9 255.5 -1 Q225 -11 191 -11 Q120 -11 86 29 L86 28 Q84 29 82 33 L86 33 L52 -22 L11 -2 L61 77 Q55 95 55 116 Q55 127 59 155 L128 543 Q142 625 199 670 Q247 709 318 709 Q388 709 422 669 L422 670 Q424 669 426 665 L422 665 L456 720 L497 700 L447 621 Z M458 714 L426 663 L422 663 Q421 666 420 666 L420 667 Q385 705 318 705 Q248 705 201 666 Q146 623 132 543 L63 155 Q60 134 60 117 Q60 95 65 77 L17 0 L50 -16 L82 35 L86 35 Q87 32 88 32 L88 31 Q123 -7 191 -7 Q260 -7 307 32 Q362 75 376 155 L445 543 Q448 564 448 581 Q448 603 443 621 L491 698 L458 714 Z M165 247 L362 567 Q363 595 348.5 607.5 Q334 620 303 620 Q265 620 244.5 601.5 Q224 583 217 543 L165 247 Z M213 543 Q220 585 242 604.5 Q264 624 303 624 Q336 624 351.5 609.5 Q367 595 366 565 L157 227 L213 543 Z M343 451 L146 131 Q145 103 159.5 90.5 Q174 78 206 78 Q243 78 263.5 97 Q284 116 291 155 L343 451 Z M295 155 Q288 113 266.5 93.5 Q245 74 206 74 Q172 74 156.5 88.5 Q141 103 142 133 L351 471 L295 155 Z " />
<glyph glyph-name="Oslashacute" unicode="&#x1fe;" horiz-adv-x="385" d="M447 621 Q453 603 453 582 Q453 571 449 543 L380 155 Q366 73 309 28 Q286 9 255.5 -1 Q225 -11 191 -11 Q120 -11 86 29 L86 28 Q84 29 82 33 L86 33 L52 -22 L11 -2 L61 77 Q55 95 55 116 Q55 127 59 155 L128 543 Q142 625 199 670 Q247 709 318 709 Q388 709 422 669 L422 670 Q424 669 426 665 L422 665 L456 720 L497 700 L447 621 Z M458 714 L426 663 L422 663 Q421 666 420 666 L420 667 Q385 705 318 705 Q248 705 201 666 Q146 623 132 543 L63 155 Q60 134 60 117 Q60 95 65 77 L17 0 L50 -16 L82 35 L86 35 Q87 32 88 32 L88 31 Q123 -7 191 -7 Q260 -7 307 32 Q362 75 376 155 L445 543 Q448 564 448 581 Q448 603 443 621 L491 698 L458 714 Z M165 247 L362 567 Q363 595 348.5 607.5 Q334 620 303 620 Q265 620 244.5 601.5 Q224 583 217 543 L165 247 Z M213 543 Q220 585 242 604.5 Q264 624 303 624 Q336 624 351.5 609.5 Q367 595 366 565 L157 227 L213 543 Z M343 451 L146 131 Q145 103 159.5 90.5 Q174 78 206 78 Q243 78 263.5 97 Q284 116 291 155 L343 451 Z M295 155 Q288 113 266.5 93.5 Q245 74 206 74 Q172 74 156.5 88.5 Q141 103 142 133 L351 471 L295 155 Z " />
<glyph glyph-name="Otilde" unicode="&#xd5;" horiz-adv-x="384" d="M190 -7 Q257 -7 307 32 Q361 75 376 156 L444 544 Q448 574 448 585 Q448 636 420 669 Q384 707 317 707 Q250 707 200 668 Q145 622 132 544 L64 156 Q60 136 60 113 Q60 61 87 31 Q123 -7 190 -7 Z M190 -11 Q122 -11 85 29 Q56 59 56 114 Q56 136 60 156 L128 544 Q142 625 198 672 Q249 711 317 711 Q386 711 423 671 Q452 637 452 584 Q452 572 448 544 L380 156 Q365 73 309 28 Q260 -11 190 -11 Z M302 626 Q366 626 366 570 Q366 559 363 544 L295 156 Q288 114 266 94 Q244 74 205 74 Q142 74 142 129 Q142 141 145 156 L213 544 Q220 587 242 606.5 Q264 626 302 626 Z M302 622 Q265 622 245 603.5 Q225 585 217 544 L149 156 Q146 141 146 129 Q146 102 160.5 90 Q175 78 205 78 Q242 78 262.5 96.5 Q283 115 291 156 L359 544 Q362 559 362 570 Q362 622 302 622 Z M227 738 Q257 768 280 768 Q298 768 318 755 Q344 737 370 737 Q410 737 456 783 L430 806 Q405 781 384 777 Q366 774 344 788 Q313 808 288 808 Q247 808 201 762 L227 738 Z M195 762 Q245 812 288 812 Q315 812 346 792 Q367 778 384 781 Q405 786 430 812 L462 783 Q415 733 369 733 Q341 733 316 751 Q296 764 280 764 Q270 764 256 756 Q242 748 227 732 L195 762 Z " />
<glyph glyph-name="uni1E4C" unicode="&#x1e4c;" horiz-adv-x="384" d="M190 -7 Q257 -7 307 32 Q361 75 376 156 L444 544 Q448 574 448 585 Q448 636 420 669 Q384 707 317 707 Q250 707 200 668 Q145 622 132 544 L64 156 Q60 136 60 113 Q60 61 87 31 Q123 -7 190 -7 Z M190 -11 Q122 -11 85 29 Q56 59 56 114 Q56 136 60 156 L128 544 Q142 625 198 672 Q249 711 317 711 Q386 711 423 671 Q452 637 452 584 Q452 572 448 544 L380 156 Q365 73 309 28 Q260 -11 190 -11 Z M302 626 Q366 626 366 570 Q366 559 363 544 L295 156 Q288 114 266 94 Q244 74 205 74 Q142 74 142 129 Q142 141 145 156 L213 544 Q220 587 242 606.5 Q264 626 302 626 Z M302 622 Q265 622 245 603.5 Q225 585 217 544 L149 156 Q146 141 146 129 Q146 102 160.5 90 Q175 78 205 78 Q242 78 262.5 96.5 Q283 115 291 156 L359 544 Q362 559 362 570 Q362 622 302 622 Z M227 738 Q257 768 280 768 Q298 768 318 755 Q344 737 370 737 Q410 737 456 783 L430 806 Q405 781 384 777 Q366 774 344 788 Q313 808 288 808 Q247 808 201 762 L227 738 Z M195 762 Q245 812 288 812 Q315 812 346 792 Q367 778 384 781 Q405 786 430 812 L462 783 Q415 733 369 733 Q341 733 316 751 Q296 764 280 764 Q270 764 256 756 Q242 748 227 732 L195 762 Z M404 950 L321 850 L367 850 L483 950 L404 950 Z M402 954 L493 954 L369 846 L313 846 L402 954 Z " />
<glyph glyph-name="OE" unicode="&#x152;" horiz-adv-x="528" d="M416 613 L379 404 L512 404 L497 315 L364 315 L323 87 L514 87 L499 -2 L192 -2 Q123 -2 86 38 Q57 72 57 125 Q57 137 61 165 L126 535 Q141 619 197 663 Q247 702 315 702 L622 702 L607 613 L416 613 Z M618 698 L315 698 Q249 698 199 659 Q145 617 130 535 L65 165 Q61 135 61 124 Q61 73 89 40 Q125 2 192 2 L495 2 L510 83 L319 83 L360 319 L493 319 L508 400 L375 400 L412 617 L603 617 L618 698 Z M150 165 Q147 150 147 139 Q147 87 207 87 L234 87 L327 613 L300 613 Q263 613 243 594.5 Q223 576 215 535 L150 165 Z M211 535 Q218 578 240 597.5 Q262 617 300 617 L331 617 L238 83 L207 83 Q143 83 143 139 Q143 150 146 165 L211 535 Z " />
<glyph glyph-name="P" unicode="P" horiz-adv-x="379" d="M174 294 L249 294 Q318 294 366 333 Q420 375 434 456 L448 535 Q452 555 452 576 Q452 627 425 660 Q387 698 321 698 L165 698 L42 2 L123 2 L174 294 Z M38 -2 L161 702 L321 702 Q389 702 428 662 Q456 630 456 577 Q456 554 452 535 L438 456 Q424 375 368 329 Q320 290 249 290 L178 290 L127 -2 L38 -2 Z M231 617 L306 617 Q370 617 370 561 Q370 549 367 535 L353 456 Q346 414 324.5 394.5 Q303 375 264 375 L189 375 L231 617 Z M264 379 Q301 379 321.5 398 Q342 417 349 456 L363 535 Q366 550 366 561 Q366 613 306 613 L235 613 L193 379 L264 379 Z " />
<glyph glyph-name="uni01A4" unicode="&#x1a4;" horiz-adv-x="424" d="M473 662 Q501 630 501 577 Q501 554 497 535 L483 456 Q469 375 413 329 Q365 290 294 290 L223 290 L172 -2 L83 -2 L199 655 L159 655 Q151 655 144.5 649 Q138 643 137 635 L90 635 Q94 663 116 682.5 Q138 702 166 702 L366 702 Q434 702 473 662 Z M470 660 Q432 698 366 698 L166 698 Q141 698 120 681 Q99 664 94 639 L133 639 Q135 647 143 653 Q151 659 159 659 L203 659 L87 2 L168 2 L219 294 L294 294 Q363 294 411 333 Q465 375 479 456 L493 535 Q497 555 497 576 Q497 627 470 660 Z M408 535 Q411 550 411 561 Q411 613 351 613 L280 613 L238 379 L309 379 Q346 379 366.5 398 Q387 417 394 456 L408 535 Z M398 456 Q391 414 369.5 394.5 Q348 375 309 375 L234 375 L276 617 L351 617 Q415 617 415 561 Q415 549 412 535 L398 456 Z " />
<glyph glyph-name="Thorn" unicode="&#xde;" horiz-adv-x="379" d="M221 559 L296 559 Q360 559 360 503 Q360 491 357 477 L343 398 Q336 356 314 336.5 Q292 317 254 317 L179 317 L221 559 Z M254 321 Q291 321 311 339.5 Q331 358 339 398 L353 477 Q356 492 356 503 Q356 555 296 555 L225 555 L183 321 L254 321 Z M164 236 L239 236 Q308 236 356 275 Q410 317 424 398 L438 477 Q442 497 442 518 Q442 569 414 602 Q378 640 311 640 L236 640 L246 698 L165 698 L42 2 L123 2 L164 236 Z M38 -2 L161 702 L250 702 L240 644 L311 644 Q380 644 416 604 Q446 571 446 518 Q446 497 442 477 L428 398 Q414 317 358 271 Q310 232 239 232 L168 232 L127 -2 L38 -2 Z " />
<glyph glyph-name="Q" unicode="Q" horiz-adv-x="384" d="M367 -45 L352 -134 L337 -134 Q269 -134 233 -95 Q213 -72 209 -42 Q206 -27 206 -9 Q201 -10 192 -10 Q124 -10 85 30 Q56 62 56 115 Q56 137 60 157 L128 544 Q142 627 199 672 Q250 711 318 711 Q387 711 423 671 Q453 640 453 584 Q453 572 449 544 L381 157 Q366 75 310 29 L297 20 Q295 8 295 3 Q295 -18 305 -31 Q321 -45 352 -45 L367 -45 Z M352 -49 Q318 -49 302 -33 Q291 -19 291 3 Q291 8 293 22 L308 33 Q362 77 377 157 L445 544 Q448 565 448 584 Q448 638 421 669 Q385 707 318 707 Q251 707 201 668 Q145 625 132 544 L64 157 Q60 137 60 116 Q60 66 88 32 Q126 -6 192 -6 Q205 -6 210 -4 Q210 -26 213 -42 Q218 -70 236 -93 Q271 -130 337 -130 L348 -130 L363 -49 L352 -49 Z M149 157 Q146 144 146 132 Q146 105 161 92 Q176 79 207 79 Q244 79 264 98 Q284 117 292 157 L360 544 Q363 559 363 570 Q363 622 303 622 Q266 622 245.5 603.5 Q225 585 217 544 L149 157 Z M213 544 Q220 586 242 606 Q264 626 303 626 Q367 626 367 570 Q367 558 364 544 L296 157 Q289 114 267 94.5 Q245 75 207 75 Q142 75 142 131 Q142 144 145 157 L213 544 Z " />
<glyph glyph-name="R" unicode="R" horiz-adv-x="385" d="M359 -2 L267 -2 L238 290 L178 290 L127 -2 L38 -2 L161 702 L321 702 Q354 702 382 691.5 Q410 681 427 662 Q457 629 457 576 Q457 555 453 535 L439 456 Q425 373 368 330 Q354 316 329 306 L359 -2 Z M325 308 Q352 319 366 333 Q421 376 435 456 L449 535 Q453 555 453 576 Q453 627 425 660 Q389 698 321 698 L165 698 L42 2 L123 2 L174 294 L242 294 L271 2 L355 2 L325 308 Z M364 535 Q367 549 367 560 Q367 587 352 600 Q337 613 306 613 L235 613 L193 379 L264 379 Q302 379 322.5 397.5 Q343 416 350 456 L364 535 Z M354 456 Q347 414 325 394.5 Q303 375 264 375 L189 375 L231 617 L306 617 Q371 617 371 561 Q371 549 368 535 L354 456 Z " />
<glyph glyph-name="Racute" unicode="&#x154;" horiz-adv-x="385" d="M359 -2 L267 -2 L238 290 L178 290 L127 -2 L38 -2 L161 702 L321 702 Q354 702 382 691.5 Q410 681 427 662 Q457 629 457 576 Q457 555 453 535 L439 456 Q425 373 368 330 Q354 316 329 306 L359 -2 Z M325 308 Q352 319 366 333 Q421 376 435 456 L449 535 Q453 555 453 576 Q453 627 425 660 Q389 698 321 698 L165 698 L42 2 L123 2 L174 294 L242 294 L271 2 L355 2 L325 308 Z M364 535 Q367 549 367 560 Q367 587 352 600 Q337 613 306 613 L235 613 L193 379 L264 379 Q302 379 322.5 397.5 Q343 416 350 456 L364 535 Z M354 456 Q347 414 325 394.5 Q303 375 264 375 L189 375 L231 617 L306 617 Q371 617 371 561 Q371 549 368 535 L354 456 Z M391 839 L308 739 L354 739 L470 839 L391 839 Z M389 843 L480 843 L356 735 L300 735 L389 843 Z " />
<glyph glyph-name="Rcaron" unicode="&#x158;" horiz-adv-x="385" d="M359 -2 L267 -2 L238 290 L178 290 L127 -2 L38 -2 L161 702 L321 702 Q354 702 382 691.5 Q410 681 427 662 Q457 629 457 576 Q457 555 453 535 L439 456 Q425 373 368 330 Q354 316 329 306 L359 -2 Z M325 308 Q352 319 366 333 Q421 376 435 456 L449 535 Q453 555 453 576 Q453 627 425 660 Q389 698 321 698 L165 698 L42 2 L123 2 L174 294 L242 294 L271 2 L355 2 L325 308 Z M364 535 Q367 549 367 560 Q367 587 352 600 Q337 613 306 613 L235 613 L193 379 L264 379 Q302 379 322.5 397.5 Q343 416 350 456 L364 535 Z M354 456 Q347 414 325 394.5 Q303 375 264 375 L189 375 L231 617 L306 617 Q371 617 371 561 Q371 549 368 535 L354 456 Z M441 735 L387 735 L338 791 L269 735 L213 735 L302 842 L389 842 L441 735 Z M435 739 L387 838 L304 838 L221 739 L267 739 L338 797 L389 739 L435 739 Z " />
<glyph glyph-name="Rcommaaccent" unicode="&#x156;" horiz-adv-x="385" d="M359 -2 L267 -2 L238 290 L178 290 L127 -2 L38 -2 L161 702 L321 702 Q354 702 382 691.5 Q410 681 427 662 Q457 629 457 576 Q457 555 453 535 L439 456 Q425 373 368 330 Q354 316 329 306 L359 -2 Z M325 308 Q352 319 366 333 Q421 376 435 456 L449 535 Q453 555 453 576 Q453 627 425 660 Q389 698 321 698 L165 698 L42 2 L123 2 L174 294 L242 294 L271 2 L355 2 L325 308 Z M364 535 Q367 549 367 560 Q367 587 352 600 Q337 613 306 613 L235 613 L193 379 L264 379 Q302 379 322.5 397.5 Q343 416 350 456 L364 535 Z M354 456 Q347 414 325 394.5 Q303 375 264 375 L189 375 L231 617 L306 617 Q371 617 371 561 Q371 549 368 535 L354 456 Z M232 -78 Q232 -88 227 -99.5 Q222 -111 211 -128 Q187 -158 171 -177 L137 -177 L135 -174 Q139 -168 142.5 -161.5 Q146 -155 150 -149 Q155 -137 155 -133 Q155 -128 151 -125 Q136 -112 136 -93 Q136 -88 137 -85 Q140 -66 156 -52 Q172 -38 192 -38 Q209 -38 220.5 -49.5 Q232 -61 232 -78 Z M228 -77 Q228 -62 218 -52 Q208 -42 192 -42 Q174 -42 159 -54.5 Q144 -67 141 -85 Q140 -88 140 -93 Q140 -109 153 -122 Q158 -127 158 -135 Q158 -141 154 -151 Q150 -157 146.5 -163.5 Q143 -170 139 -176 L137 -173 L169 -173 Q199 -138 207 -126 Q228 -91 228 -77 Z " />
<glyph glyph-name="uni024C" unicode="&#x24c;" horiz-adv-x="390" d="M444 456 Q430 373 373 330 Q359 316 334 306 L364 -2 L272 -2 L243 290 L183 290 L132 -2 L43 -2 L94 290 L54 290 L69 379 L109 379 L166 702 L326 702 Q359 702 387 691.5 Q415 681 432 662 Q462 629 462 576 Q462 555 458 535 L444 456 Z M454 535 Q458 555 458 576 Q458 627 430 660 Q394 698 326 698 L170 698 L113 375 L73 375 L58 294 L98 294 L47 2 L128 2 L179 294 L247 294 L276 2 L360 2 L330 308 Q357 319 371 333 Q426 376 440 456 L454 535 Z M369 535 Q372 549 372 560 Q372 587 357 600 Q342 613 311 613 L240 613 L198 379 L269 379 Q307 379 327.5 397.5 Q348 416 355 456 L369 535 Z M359 456 Q352 414 330 394.5 Q308 375 269 375 L194 375 L236 617 L311 617 Q376 617 376 561 Q376 549 373 535 L359 456 Z " />
<glyph glyph-name="uni2C64" unicode="&#x2c64;" horiz-adv-x="385" d="M439 456 Q425 373 368 330 Q354 316 329 306 L359 -2 L267 -2 L238 290 L178 290 L120 -42 L120 -46 Q120 -53 124.5 -57 Q129 -61 136 -60 L128 -107 Q77 -108 56.5 -84.5 Q36 -61 36 -26 Q36 -16 38 0 L161 702 L321 702 Q354 702 382 691.5 Q410 681 427 662 Q457 629 457 576 Q457 555 453 535 L439 456 Z M449 535 Q453 555 453 576 Q453 627 425 660 Q389 698 321 698 L165 698 L42 0 Q40 -18 40 -26 Q40 -102 124 -103 L132 -64 Q124 -63 119 -56.5 Q114 -50 116 -42 L174 294 L242 294 L271 2 L355 2 L325 308 Q352 319 366 333 Q421 376 435 456 L449 535 Z M364 535 Q367 549 367 560 Q367 587 352 600 Q337 613 306 613 L235 613 L193 379 L264 379 Q302 379 322.5 397.5 Q343 416 350 456 L364 535 Z M354 456 Q347 414 325 394.5 Q303 375 264 375 L189 375 L231 617 L306 617 Q371 617 371 561 Q371 549 368 535 L354 456 Z " />
<glyph glyph-name="S" unicode="S" horiz-adv-x="371" d="M183 -7 Q252 -7 300 32 Q355 75 370 156 L378 202 Q382 232 382 244 Q382 297 353 335 Q340 355 322 369 Q304 383 275 400 Q249 417 236.5 426.5 Q224 436 214 449 Q200 471 200 497 Q200 510 203 525 L206 544 Q213 587 235 606.5 Q257 626 295 626 Q360 626 360 570 Q360 558 357 544 L346 482 L427 482 L438 544 Q441 565 441 583 Q441 635 412 669 Q396 687 369.5 697 Q343 707 310 707 Q244 707 194 668 Q139 625 125 544 L122 525 Q118 505 118 482 Q118 430 145 394 Q158 375 175 362 Q192 349 223 330 Q246 316 260.5 305 Q275 294 284 281 Q299 260 299 228 Q299 212 297 202 L289 156 Q282 114 259.5 94 Q237 74 198 74 Q135 74 135 129 Q135 141 138 156 L154 249 L73 249 L57 156 Q53 136 53 114 Q53 62 81 31 Q117 -7 183 -7 Z M183 -11 Q151 -11 124 -0.5 Q97 10 79 29 Q49 61 49 114 Q49 136 53 156 L69 253 L158 253 L142 156 Q139 141 139 130 Q139 78 198 78 Q235 78 256 97 Q277 116 285 156 L293 202 Q295 212 295 228 Q295 258 280 279 Q272 291 260 300 Q248 309 221 326 Q194 343 175 357.5 Q156 372 141 392 Q114 429 114 481 Q114 504 118 525 L121 544 Q135 625 192 672 Q243 711 310 711 Q344 711 371.5 700.5 Q399 690 415 671 Q446 639 446 584 Q446 572 442 544 L431 478 L342 478 L353 544 Q356 558 356 569 Q356 596 341 609 Q326 622 295 622 Q258 622 238 603 Q218 584 210 544 L207 525 Q204 510 204 498 Q204 471 218 451 Q227 439 239 430 Q251 421 277 404 Q333 371 357 337 Q386 297 386 243 Q386 230 382 202 L374 156 Q359 73 302 28 Q278 9 247 -1 Q216 -11 183 -11 Z " />
<glyph glyph-name="Sacute" unicode="&#x15a;" horiz-adv-x="371" d="M183 -7 Q252 -7 300 32 Q355 75 370 156 L378 202 Q382 232 382 244 Q382 297 353 335 Q340 355 322 369 Q304 383 275 400 Q249 417 236.5 426.5 Q224 436 214 449 Q200 471 200 497 Q200 510 203 525 L206 544 Q213 587 235 606.5 Q257 626 295 626 Q360 626 360 570 Q360 558 357 544 L346 482 L427 482 L438 544 Q441 565 441 583 Q441 635 412 669 Q396 687 369.5 697 Q343 707 310 707 Q244 707 194 668 Q139 625 125 544 L122 525 Q118 505 118 482 Q118 430 145 394 Q158 375 175 362 Q192 349 223 330 Q246 316 260.5 305 Q275 294 284 281 Q299 260 299 228 Q299 212 297 202 L289 156 Q282 114 259.5 94 Q237 74 198 74 Q135 74 135 129 Q135 141 138 156 L154 249 L73 249 L57 156 Q53 136 53 114 Q53 62 81 31 Q117 -7 183 -7 Z M183 -11 Q151 -11 124 -0.5 Q97 10 79 29 Q49 61 49 114 Q49 136 53 156 L69 253 L158 253 L142 156 Q139 141 139 130 Q139 78 198 78 Q235 78 256 97 Q277 116 285 156 L293 202 Q295 212 295 228 Q295 258 280 279 Q272 291 260 300 Q248 309 221 326 Q194 343 175 357.5 Q156 372 141 392 Q114 429 114 481 Q114 504 118 525 L121 544 Q135 625 192 672 Q243 711 310 711 Q344 711 371.5 700.5 Q399 690 415 671 Q446 639 446 584 Q446 572 442 544 L431 478 L342 478 L353 544 Q356 558 356 569 Q356 596 341 609 Q326 622 295 622 Q258 622 238 603 Q218 584 210 544 L207 525 Q204 510 204 498 Q204 471 218 451 Q227 439 239 430 Q251 421 277 404 Q333 371 357 337 Q386 297 386 243 Q386 230 382 202 L374 156 Q359 73 302 28 Q278 9 247 -1 Q216 -11 183 -11 Z M377 839 L294 739 L340 739 L456 839 L377 839 Z M375 843 L466 843 L342 735 L286 735 L375 843 Z " />
<glyph glyph-name="Scaron" unicode="&#x160;" horiz-adv-x="371" d="M183 -7 Q252 -7 300 32 Q355 75 370 156 L378 202 Q382 232 382 244 Q382 297 353 335 Q340 355 322 369 Q304 383 275 400 Q249 417 236.5 426.5 Q224 436 214 449 Q200 471 200 497 Q200 510 203 525 L206 544 Q213 587 235 606.5 Q257 626 295 626 Q360 626 360 570 Q360 558 357 544 L346 482 L427 482 L438 544 Q441 565 441 583 Q441 635 412 669 Q396 687 369.5 697 Q343 707 310 707 Q244 707 194 668 Q139 625 125 544 L122 525 Q118 505 118 482 Q118 430 145 394 Q158 375 175 362 Q192 349 223 330 Q246 316 260.5 305 Q275 294 284 281 Q299 260 299 228 Q299 212 297 202 L289 156 Q282 114 259.5 94 Q237 74 198 74 Q135 74 135 129 Q135 141 138 156 L154 249 L73 249 L57 156 Q53 136 53 114 Q53 62 81 31 Q117 -7 183 -7 Z M183 -11 Q151 -11 124 -0.5 Q97 10 79 29 Q49 61 49 114 Q49 136 53 156 L69 253 L158 253 L142 156 Q139 141 139 130 Q139 78 198 78 Q235 78 256 97 Q277 116 285 156 L293 202 Q295 212 295 228 Q295 258 280 279 Q272 291 260 300 Q248 309 221 326 Q194 343 175 357.5 Q156 372 141 392 Q114 429 114 481 Q114 504 118 525 L121 544 Q135 625 192 672 Q243 711 310 711 Q344 711 371.5 700.5 Q399 690 415 671 Q446 639 446 584 Q446 572 442 544 L431 478 L342 478 L353 544 Q356 558 356 569 Q356 596 341 609 Q326 622 295 622 Q258 622 238 603 Q218 584 210 544 L207 525 Q204 510 204 498 Q204 471 218 451 Q227 439 239 430 Q251 421 277 404 Q333 371 357 337 Q386 297 386 243 Q386 230 382 202 L374 156 Q359 73 302 28 Q278 9 247 -1 Q216 -11 183 -11 Z M448 842 L359 735 L272 735 L220 842 L275 842 L324 786 L393 842 L448 842 Z M440 838 L395 838 L324 780 L273 838 L226 838 L274 739 L357 739 L440 838 Z " />
<glyph glyph-name="Scedilla" unicode="&#x15e;" horiz-adv-x="371" d="M342 478 L353 544 Q356 558 356 569 Q356 596 341 609 Q326 622 295 622 Q258 622 238 603 Q218 584 210 544 L207 525 Q204 510 204 498 Q204 471 218 451 Q227 439 239 430 Q251 421 277 404 Q333 371 357 337 Q386 297 386 243 Q386 230 382 202 L374 156 Q359 73 302 28 Q266 -2 210 -10 L212 -11 Q214 -11 214 -14 Q225 -24 231.5 -33.5 Q238 -43 238 -58 Q238 -89 214.5 -113 Q191 -137 161 -137 Q137 -137 121 -120.5 Q105 -104 105 -81 Q105 -73 106 -69 L153 -69 L153 -73 Q153 -80 157.5 -85 Q162 -90 169 -90 Q177 -90 183 -84 Q189 -78 190 -71 L191 -66 Q191 -62 188 -58.5 Q185 -55 180 -51 Q179 -51 178.5 -50 Q178 -49 178 -49 Q158 -32 161 -10 Q109 -4 79 29 Q49 61 49 114 Q49 136 53 156 L69 253 L158 253 L142 156 Q139 141 139 130 Q139 78 198 78 Q235 78 256 97 Q277 116 285 156 L293 202 Q295 212 295 228 Q295 258 280 279 Q272 291 260 300 Q248 309 221 326 Q194 343 175 357.5 Q156 372 141 392 Q114 429 114 481 Q114 504 118 525 L121 544 Q135 625 192 672 Q243 711 310 711 Q344 711 371.5 700.5 Q399 690 415 671 Q446 639 446 584 Q446 572 442 544 L431 478 L342 478 Z M438 544 Q441 565 441 583 Q441 635 412 669 Q396 687 369.5 697 Q343 707 310 707 Q244 707 194 668 Q139 625 125 544 L122 525 Q118 505 118 482 Q118 430 145 394 Q158 375 175 362 Q192 349 223 330 Q246 316 260.5 305 Q275 294 284 281 Q299 260 299 228 Q299 212 297 202 L289 156 Q282 114 259.5 94 Q237 74 198 74 Q135 74 135 129 Q135 141 138 156 L154 249 L73 249 L57 156 Q53 136 53 114 Q53 62 81 31 Q114 -2 165 -6 Q162 -29 180 -46 L182 -47 Q190 -54 192.5 -59 Q195 -64 194 -71 Q193 -81 185.5 -87.5 Q178 -94 169 -94 Q160 -94 154.5 -88 Q149 -82 149 -73 L110 -73 L109 -82 Q109 -104 124 -118.5 Q139 -133 161 -133 Q190 -133 212 -110.5 Q234 -88 234 -58 Q234 -42 228 -33.5 Q222 -25 210 -15 L211 -15 Q207 -13 205.5 -10.5 Q204 -8 206 -6 Q262 0 300 32 Q355 75 370 156 L378 202 Q382 232 382 244 Q382 297 353 335 Q340 355 322 369 Q304 383 275 400 Q249 417 236.5 426.5 Q224 436 214 449 Q200 471 200 497 Q200 510 203 525 L206 544 Q213 587 235 606.5 Q257 626 295 626 Q360 626 360 570 Q360 558 357 544 L346 482 L427 482 L438 544 Z " />
<glyph glyph-name="Scommaaccent" unicode="&#x218;" horiz-adv-x="371" d="M183 -7 Q252 -7 300 32 Q355 75 370 156 L378 202 Q382 232 382 244 Q382 297 353 335 Q340 355 322 369 Q304 383 275 400 Q249 417 236.5 426.5 Q224 436 214 449 Q200 471 200 497 Q200 510 203 525 L206 544 Q213 587 235 606.5 Q257 626 295 626 Q360 626 360 570 Q360 558 357 544 L346 482 L427 482 L438 544 Q441 565 441 583 Q441 635 412 669 Q396 687 369.5 697 Q343 707 310 707 Q244 707 194 668 Q139 625 125 544 L122 525 Q118 505 118 482 Q118 430 145 394 Q158 375 175 362 Q192 349 223 330 Q246 316 260.5 305 Q275 294 284 281 Q299 260 299 228 Q299 212 297 202 L289 156 Q282 114 259.5 94 Q237 74 198 74 Q135 74 135 129 Q135 141 138 156 L154 249 L73 249 L57 156 Q53 136 53 114 Q53 62 81 31 Q117 -7 183 -7 Z M183 -11 Q151 -11 124 -0.5 Q97 10 79 29 Q49 61 49 114 Q49 136 53 156 L69 253 L158 253 L142 156 Q139 141 139 130 Q139 78 198 78 Q235 78 256 97 Q277 116 285 156 L293 202 Q295 212 295 228 Q295 258 280 279 Q272 291 260 300 Q248 309 221 326 Q194 343 175 357.5 Q156 372 141 392 Q114 429 114 481 Q114 504 118 525 L121 544 Q135 625 192 672 Q243 711 310 711 Q344 711 371.5 700.5 Q399 690 415 671 Q446 639 446 584 Q446 572 442 544 L431 478 L342 478 L353 544 Q356 558 356 569 Q356 596 341 609 Q326 622 295 622 Q258 622 238 603 Q218 584 210 544 L207 525 Q204 510 204 498 Q204 471 218 451 Q227 439 239 430 Q251 421 277 404 Q333 371 357 337 Q386 297 386 243 Q386 230 382 202 L374 156 Q359 73 302 28 Q278 9 247 -1 Q216 -11 183 -11 Z M219 -78 Q219 -88 214 -99.5 Q209 -111 198 -128 Q174 -158 158 -177 L124 -177 L122 -174 Q126 -168 129.5 -161.5 Q133 -155 137 -149 Q142 -137 142 -133 Q142 -128 138 -125 Q123 -112 123 -93 Q123 -88 124 -85 Q127 -66 143 -52 Q159 -38 179 -38 Q196 -38 207.5 -49.5 Q219 -61 219 -78 Z M215 -77 Q215 -62 205 -52 Q195 -42 179 -42 Q161 -42 146 -54.5 Q131 -67 128 -85 Q127 -88 127 -93 Q127 -109 140 -122 Q145 -127 145 -135 Q145 -141 141 -151 Q137 -157 133.5 -163.5 Q130 -170 126 -176 L124 -173 L156 -173 Q186 -138 194 -126 Q215 -91 215 -77 Z " />
<glyph glyph-name="uni1E62" unicode="&#x1e62;" horiz-adv-x="371" d="M183 -7 Q252 -7 300 32 Q355 75 370 156 L378 202 Q382 232 382 244 Q382 297 353 335 Q340 355 322 369 Q304 383 275 400 Q249 417 236.5 426.5 Q224 436 214 449 Q200 471 200 497 Q200 510 203 525 L206 544 Q213 587 235 606.5 Q257 626 295 626 Q360 626 360 570 Q360 558 357 544 L346 482 L427 482 L438 544 Q441 565 441 583 Q441 635 412 669 Q396 687 369.5 697 Q343 707 310 707 Q244 707 194 668 Q139 625 125 544 L122 525 Q118 505 118 482 Q118 430 145 394 Q158 375 175 362 Q192 349 223 330 Q246 316 260.5 305 Q275 294 284 281 Q299 260 299 228 Q299 212 297 202 L289 156 Q282 114 259.5 94 Q237 74 198 74 Q135 74 135 129 Q135 141 138 156 L154 249 L73 249 L57 156 Q53 136 53 114 Q53 62 81 31 Q117 -7 183 -7 Z M183 -11 Q151 -11 124 -0.5 Q97 10 79 29 Q49 61 49 114 Q49 136 53 156 L69 253 L158 253 L142 156 Q139 141 139 130 Q139 78 198 78 Q235 78 256 97 Q277 116 285 156 L293 202 Q295 212 295 228 Q295 258 280 279 Q272 291 260 300 Q248 309 221 326 Q194 343 175 357.5 Q156 372 141 392 Q114 429 114 481 Q114 504 118 525 L121 544 Q135 625 192 672 Q243 711 310 711 Q344 711 371.5 700.5 Q399 690 415 671 Q446 639 446 584 Q446 572 442 544 L431 478 L342 478 L353 544 Q356 558 356 569 Q356 596 341 609 Q326 622 295 622 Q258 622 238 603 Q218 584 210 544 L207 525 Q204 510 204 498 Q204 471 218 451 Q227 439 239 430 Q251 421 277 404 Q333 371 357 337 Q386 297 386 243 Q386 230 382 202 L374 156 Q359 73 302 28 Q278 9 247 -1 Q216 -11 183 -11 Z M178 -42 Q158 -42 142 -57 Q126 -72 126 -93 Q126 -108 136 -118 Q146 -128 162 -128 Q182 -128 198 -113 Q214 -98 214 -77 Q214 -62 204 -52 Q194 -42 178 -42 Z M178 -38 Q195 -38 206.5 -49.5 Q218 -61 218 -78 Q218 -99 200.5 -115.5 Q183 -132 162 -132 Q145 -132 133.5 -120.5 Q122 -109 122 -92 Q122 -71 139.5 -54.5 Q157 -38 178 -38 Z " />
<glyph glyph-name="T" unicode="T" horiz-adv-x="345" d="M458 701 L443 612 L325 612 L217 -2 L128 -2 L236 612 L119 612 L134 701 L458 701 Z M454 697 L138 697 L123 616 L240 616 L132 2 L213 2 L321 616 L439 616 L454 697 Z " />
<glyph glyph-name="Tbar" unicode="&#x166;" horiz-adv-x="345" d="M443 612 L325 612 L300 472 L360 472 L352 424 L292 424 L217 -2 L128 -2 L203 424 L143 424 L151 472 L211 472 L236 612 L119 612 L134 701 L458 701 L443 612 Z M439 616 L454 697 L138 697 L123 616 L240 616 L215 468 L155 468 L147 428 L207 428 L132 2 L213 2 L288 428 L348 428 L356 468 L296 468 L321 616 L439 616 Z " />
<glyph glyph-name="Tcaron" unicode="&#x164;" horiz-adv-x="345" d="M458 701 L443 612 L325 612 L217 -2 L128 -2 L236 612 L119 612 L134 701 L458 701 Z M454 697 L138 697 L123 616 L240 616 L132 2 L213 2 L321 616 L439 616 L454 697 Z M435 842 L346 735 L259 735 L207 842 L262 842 L311 786 L380 842 L435 842 Z M427 838 L382 838 L311 780 L260 838 L213 838 L261 739 L344 739 L427 838 Z " />
<glyph glyph-name="uni0162" unicode="&#x162;" horiz-adv-x="345" d="M197 -1 L196 -7 Q196 -10 199 -11 Q201 -11 201 -14 Q212 -24 218.5 -33.5 Q225 -43 225 -58 Q225 -89 201.5 -113 Q178 -137 148 -137 Q124 -137 108 -120.5 Q92 -104 92 -81 Q92 -73 93 -69 L140 -69 L140 -73 Q140 -80 144.5 -85 Q149 -90 156 -90 Q164 -90 170 -84 Q176 -78 177 -71 L178 -66 Q178 -62 175 -58.5 Q172 -55 167 -51 Q166 -51 165.5 -50 Q165 -49 165 -49 Q145 -32 148 -7 L149 -1 L128 -1 L236 613 L119 613 L134 702 L458 702 L443 613 L325 613 L217 -1 L197 -1 Z M321 617 L439 617 L454 698 L138 698 L123 617 L240 617 L132 3 L153 3 L152 -7 Q149 -30 167 -46 L169 -47 Q177 -54 179.5 -59 Q182 -64 181 -71 Q180 -81 172.5 -87.5 Q165 -94 156 -94 Q147 -94 141.5 -88 Q136 -82 136 -73 L97 -73 L96 -82 Q96 -104 111 -118.5 Q126 -133 148 -133 Q177 -133 199 -110.5 Q221 -88 221 -58 Q221 -42 215 -33.5 Q209 -25 197 -15 L198 -15 Q192 -13 192 -7 L193 3 L213 3 L321 617 Z " />
<glyph glyph-name="uni1E70" unicode="&#x1e70;" horiz-adv-x="345" d="M458 701 L443 612 L325 612 L217 -2 L128 -2 L236 612 L119 612 L134 701 L458 701 Z M454 697 L138 697 L123 616 L240 616 L132 2 L213 2 L321 616 L439 616 L454 697 Z M261 -145 L207 -145 L158 -89 L89 -145 L33 -145 L122 -38 L209 -38 L261 -145 Z M255 -141 L207 -42 L124 -42 L41 -141 L87 -141 L158 -83 L209 -141 L255 -141 Z " />
<glyph glyph-name="uni021A" unicode="&#x21a;" horiz-adv-x="345" d="M458 701 L443 612 L325 612 L217 -2 L128 -2 L236 612 L119 612 L134 701 L458 701 Z M454 697 L138 697 L123 616 L240 616 L132 2 L213 2 L321 616 L439 616 L454 697 Z M205 -78 Q205 -88 200 -99.5 Q195 -111 184 -128 Q160 -158 144 -177 L110 -177 L108 -174 Q112 -168 115.5 -161.5 Q119 -155 123 -149 Q128 -137 128 -133 Q128 -128 124 -125 Q109 -112 109 -93 Q109 -88 110 -85 Q113 -66 129 -52 Q145 -38 165 -38 Q182 -38 193.5 -49.5 Q205 -61 205 -78 Z M201 -77 Q201 -62 191 -52 Q181 -42 165 -42 Q147 -42 132 -54.5 Q117 -67 114 -85 Q113 -88 113 -93 Q113 -109 126 -122 Q131 -127 131 -135 Q131 -141 127 -151 Q123 -157 119.5 -163.5 Q116 -170 112 -176 L110 -173 L142 -173 Q172 -138 180 -126 Q201 -91 201 -77 Z " />
<glyph glyph-name="uni1E6C" unicode="&#x1e6c;" horiz-adv-x="345" d="M458 701 L443 612 L325 612 L217 -2 L128 -2 L236 612 L119 612 L134 701 L458 701 Z M454 697 L138 697 L123 616 L240 616 L132 2 L213 2 L321 616 L439 616 L454 697 Z M165 -42 Q145 -42 129 -57 Q113 -72 113 -93 Q113 -108 123 -118 Q133 -128 149 -128 Q169 -128 185 -113 Q201 -98 201 -77 Q201 -62 191 -52 Q181 -42 165 -42 Z M165 -38 Q182 -38 193.5 -49.5 Q205 -61 205 -78 Q205 -99 187.5 -115.5 Q170 -132 149 -132 Q132 -132 120.5 -120.5 Q109 -109 109 -92 Q109 -71 126.5 -54.5 Q144 -38 165 -38 Z " />
<glyph glyph-name="uni01AC" unicode="&#x1ac;" horiz-adv-x="400" d="M513 701 L498 612 L380 612 L272 -2 L183 -2 L291 612 L176 612 Q168 612 162 606 Q156 600 155 592 L108 592 Q117 652 153 676.5 Q189 701 233 701 L513 701 Z M233 697 Q191 697 157 674.5 Q123 652 112 596 L151 596 Q153 605 160.5 610.5 Q168 616 176 616 L295 616 L187 2 L268 2 L376 616 L494 616 L509 697 L233 697 Z " />
<glyph glyph-name="uni1E6E" unicode="&#x1e6e;" horiz-adv-x="346" d="M458 701 L443 612 L325 612 L217 -2 L128 -2 L236 612 L119 612 L134 701 L458 701 Z M454 697 L138 697 L123 616 L240 616 L132 2 L213 2 L321 616 L439 616 L454 697 Z M308 -83 L316 -42 L17 -42 L9 -83 L308 -83 Z M312 -87 L5 -87 L13 -38 L320 -38 L312 -87 Z " />
<glyph glyph-name="uni01AE" unicode="&#x1ae;" horiz-adv-x="345" d="M325 612 L210 -42 L210 -46 Q210 -53 214.5 -57 Q219 -61 226 -60 L218 -107 Q167 -108 146.5 -84.5 Q126 -61 126 -26 Q126 -16 128 0 L236 612 L119 612 L134 701 L458 701 L443 612 L325 612 Z M454 697 L138 697 L123 616 L240 616 L132 0 Q130 -18 130 -26 Q130 -102 214 -103 L222 -64 Q214 -63 209 -56.5 Q204 -50 206 -42 L321 616 L439 616 L454 697 Z " />
<glyph glyph-name="U" unicode="U" horiz-adv-x="393" d="M195 -7 Q228 -7 258.5 3 Q289 13 311 32 Q366 75 381 156 L476 698 L395 698 L300 156 Q293 114 270.5 94 Q248 74 210 74 Q146 74 146 130 Q146 141 149 156 L244 698 L163 698 L68 156 Q64 136 64 114 Q64 62 92 31 Q128 -7 195 -7 Z M195 -11 Q126 -11 90 29 Q60 61 60 114 Q60 136 64 156 L159 702 L248 702 L153 156 Q150 141 150 130 Q150 78 210 78 Q247 78 267.5 97 Q288 116 296 156 L391 702 L480 702 L385 156 Q370 73 313 28 Q289 9 258.5 -1 Q228 -11 195 -11 Z " />
<glyph glyph-name="Uacute" unicode="&#xda;" horiz-adv-x="393" d="M195 -7 Q228 -7 258.5 3 Q289 13 311 32 Q366 75 381 156 L476 698 L395 698 L300 156 Q293 114 270.5 94 Q248 74 210 74 Q146 74 146 130 Q146 141 149 156 L244 698 L163 698 L68 156 Q64 136 64 114 Q64 62 92 31 Q128 -7 195 -7 Z M195 -11 Q126 -11 90 29 Q60 61 60 114 Q60 136 64 156 L159 702 L248 702 L153 156 Q150 141 150 130 Q150 78 210 78 Q247 78 267.5 97 Q288 116 296 156 L391 702 L480 702 L385 156 Q370 73 313 28 Q289 9 258.5 -1 Q228 -11 195 -11 Z M388 839 L305 739 L351 739 L467 839 L388 839 Z M386 843 L477 843 L353 735 L297 735 L386 843 Z " />
<glyph glyph-name="uni0244" unicode="&#x244;" horiz-adv-x="403" d="M462 336 L422 336 L390 156 Q375 73 318 28 Q294 9 263.5 -1 Q233 -11 200 -11 Q131 -11 95 29 Q65 61 65 114 Q65 136 69 156 L101 336 L61 336 L68 384 L108 384 L164 702 L253 702 L197 384 L340 384 L396 702 L485 702 L429 384 L469 384 L462 336 Z M425 380 L481 698 L400 698 L344 380 L193 380 L249 698 L168 698 L112 380 L72 380 L65 340 L105 340 L73 156 Q69 136 69 114 Q69 62 97 31 Q133 -7 200 -7 Q233 -7 263.5 3 Q294 13 316 32 Q371 75 386 156 L418 340 L458 340 L465 380 L425 380 Z M333 336 L190 336 L158 156 Q155 141 155 130 Q155 78 215 78 Q252 78 272.5 97 Q293 116 301 156 L333 336 Z M305 156 Q298 114 275.5 94 Q253 74 215 74 Q151 74 151 130 Q151 141 154 156 L186 340 L337 340 L305 156 Z " />
<glyph glyph-name="uni01D3" unicode="&#x1d3;" horiz-adv-x="393" d="M195 -7 Q228 -7 258.5 3 Q289 13 311 32 Q366 75 381 156 L476 698 L395 698 L300 156 Q293 114 270.5 94 Q248 74 210 74 Q146 74 146 130 Q146 141 149 156 L244 698 L163 698 L68 156 Q64 136 64 114 Q64 62 92 31 Q128 -7 195 -7 Z M195 -11 Q126 -11 90 29 Q60 61 60 114 Q60 136 64 156 L159 702 L248 702 L153 156 Q150 141 150 130 Q150 78 210 78 Q247 78 267.5 97 Q288 116 296 156 L391 702 L480 702 L385 156 Q370 73 313 28 Q289 9 258.5 -1 Q228 -11 195 -11 Z M459 842 L370 735 L283 735 L231 842 L286 842 L335 786 L404 842 L459 842 Z M451 838 L406 838 L335 780 L284 838 L237 838 L285 739 L368 739 L451 838 Z " />
<glyph glyph-name="Ucircumflex" unicode="&#xdb;" horiz-adv-x="393" d="M195 -7 Q228 -7 258.5 3 Q289 13 311 32 Q366 75 381 156 L476 698 L395 698 L300 156 Q293 114 270.5 94 Q248 74 210 74 Q146 74 146 130 Q146 141 149 156 L244 698 L163 698 L68 156 Q64 136 64 114 Q64 62 92 31 Q128 -7 195 -7 Z M195 -11 Q126 -11 90 29 Q60 61 60 114 Q60 136 64 156 L159 702 L248 702 L153 156 Q150 141 150 130 Q150 78 210 78 Q247 78 267.5 97 Q288 116 296 156 L391 702 L480 702 L385 156 Q370 73 313 28 Q289 9 258.5 -1 Q228 -11 195 -11 Z M440 735 L386 735 L337 791 L268 735 L212 735 L301 842 L388 842 L440 735 Z M434 739 L386 838 L303 838 L220 739 L266 739 L337 797 L388 739 L434 739 Z " />
<glyph glyph-name="Udieresis" unicode="&#xdc;" horiz-adv-x="393" d="M195 -7 Q228 -7 258.5 3 Q289 13 311 32 Q366 75 381 156 L476 698 L395 698 L300 156 Q293 114 270.5 94 Q248 74 210 74 Q146 74 146 130 Q146 141 149 156 L244 698 L163 698 L68 156 Q64 136 64 114 Q64 62 92 31 Q128 -7 195 -7 Z M195 -11 Q126 -11 90 29 Q60 61 60 114 Q60 136 64 156 L159 702 L248 702 L153 156 Q150 141 150 130 Q150 78 210 78 Q247 78 267.5 97 Q288 116 296 156 L391 702 L480 702 L385 156 Q370 73 313 28 Q289 9 258.5 -1 Q228 -11 195 -11 Z M305 782 Q308 800 298 812.5 Q288 825 270 825 Q252 825 237 812.5 Q222 800 219 782 Q218 779 218 773 Q218 759 228 749 Q238 739 254 739 Q272 739 286.5 751.5 Q301 764 305 782 Z M309 782 Q305 762 289 748.5 Q273 735 254 735 Q237 735 225.5 746 Q214 757 214 773 Q214 779 215 782 Q218 801 234 815 Q250 829 270 829 Q289 829 300.5 815.5 Q312 802 309 782 Z M449 782 Q452 800 442 812.5 Q432 825 414 825 Q396 825 381 812.5 Q366 800 363 782 Q362 779 362 773 Q362 759 372 749 Q382 739 398 739 Q416 739 430.5 751.5 Q445 764 449 782 Z M453 782 Q449 762 433 748.5 Q417 735 398 735 Q381 735 369.5 746 Q358 757 358 773 Q358 779 359 782 Q362 801 378 815 Q394 829 414 829 Q433 829 444.5 815.5 Q456 802 453 782 Z " />
<glyph glyph-name="uni01D7" unicode="&#x1d7;" horiz-adv-x="393" d="M195 -7 Q228 -7 258.5 3 Q289 13 311 32 Q366 75 381 156 L476 698 L395 698 L300 156 Q293 114 270.5 94 Q248 74 210 74 Q146 74 146 130 Q146 141 149 156 L244 698 L163 698 L68 156 Q64 136 64 114 Q64 62 92 31 Q128 -7 195 -7 Z M195 -11 Q126 -11 90 29 Q60 61 60 114 Q60 136 64 156 L159 702 L248 702 L153 156 Q150 141 150 130 Q150 78 210 78 Q247 78 267.5 97 Q288 116 296 156 L391 702 L480 702 L385 156 Q370 73 313 28 Q289 9 258.5 -1 Q228 -11 195 -11 Z M305 782 Q308 800 298 812.5 Q288 825 270 825 Q252 825 237 812.5 Q222 800 219 782 Q218 779 218 773 Q218 759 228 749 Q238 739 254 739 Q272 739 286.5 751.5 Q301 764 305 782 Z M309 782 Q305 762 289 748.5 Q273 735 254 735 Q237 735 225.5 746 Q214 757 214 773 Q214 779 215 782 Q218 801 234 815 Q250 829 270 829 Q289 829 300.5 815.5 Q312 802 309 782 Z M449 782 Q452 800 442 812.5 Q432 825 414 825 Q396 825 381 812.5 Q366 800 363 782 Q362 779 362 773 Q362 759 372 749 Q382 739 398 739 Q416 739 430.5 751.5 Q445 764 449 782 Z M453 782 Q449 762 433 748.5 Q417 735 398 735 Q381 735 369.5 746 Q358 757 358 773 Q358 779 359 782 Q362 801 378 815 Q394 829 414 829 Q433 829 444.5 815.5 Q456 802 453 782 Z M411 967 L328 867 L374 867 L490 967 L411 967 Z M409 971 L500 971 L376 863 L320 863 L409 971 Z " />
<glyph glyph-name="uni01D9" unicode="&#x1d9;" horiz-adv-x="393" d="M195 -7 Q228 -7 258.5 3 Q289 13 311 32 Q366 75 381 156 L476 698 L395 698 L300 156 Q293 114 270.5 94 Q248 74 210 74 Q146 74 146 130 Q146 141 149 156 L244 698 L163 698 L68 156 Q64 136 64 114 Q64 62 92 31 Q128 -7 195 -7 Z M195 -11 Q126 -11 90 29 Q60 61 60 114 Q60 136 64 156 L159 702 L248 702 L153 156 Q150 141 150 130 Q150 78 210 78 Q247 78 267.5 97 Q288 116 296 156 L391 702 L480 702 L385 156 Q370 73 313 28 Q289 9 258.5 -1 Q228 -11 195 -11 Z M305 782 Q308 800 298 812.5 Q288 825 270 825 Q252 825 237 812.5 Q222 800 219 782 Q218 779 218 773 Q218 759 228 749 Q238 739 254 739 Q272 739 286.5 751.5 Q301 764 305 782 Z M309 782 Q305 762 289 748.5 Q273 735 254 735 Q237 735 225.5 746 Q214 757 214 773 Q214 779 215 782 Q218 801 234 815 Q250 829 270 829 Q289 829 300.5 815.5 Q312 802 309 782 Z M449 782 Q452 800 442 812.5 Q432 825 414 825 Q396 825 381 812.5 Q366 800 363 782 Q362 779 362 773 Q362 759 372 749 Q382 739 398 739 Q416 739 430.5 751.5 Q445 764 449 782 Z M453 782 Q449 762 433 748.5 Q417 735 398 735 Q381 735 369.5 746 Q358 757 358 773 Q358 779 359 782 Q362 801 378 815 Q394 829 414 829 Q433 829 444.5 815.5 Q456 802 453 782 Z M482 970 L393 863 L306 863 L254 970 L309 970 L358 914 L427 970 L482 970 Z M474 966 L429 966 L358 908 L307 966 L260 966 L308 867 L391 867 L474 966 Z " />
<glyph glyph-name="uni01DB" unicode="&#x1db;" horiz-adv-x="393" d="M194 -7 Q263 -7 311 32 Q366 75 381 156 L476 698 L395 698 L300 156 Q293 114 270.5 94 Q248 74 209 74 Q146 74 146 129 Q146 141 149 156 L244 698 L163 698 L68 156 Q64 136 64 114 Q64 62 92 31 Q128 -7 194 -7 Z M194 -11 Q162 -11 135 -0.5 Q108 10 90 29 Q60 61 60 114 Q60 136 64 156 L159 702 L248 702 L153 156 Q150 141 150 130 Q150 78 209 78 Q246 78 267 97 Q288 116 296 156 L391 702 L480 702 L385 156 Q370 73 313 28 Q289 9 258 -1 Q227 -11 194 -11 Z M364 782 Q363 779 363 773 Q363 759 373 749 Q383 739 399 739 Q417 739 431.5 751.5 Q446 764 450 782 Q453 800 443 812.5 Q433 825 415 825 Q397 825 382 812.5 Q367 800 364 782 Z M360 782 Q363 801 379 815 Q395 829 415 829 Q434 829 445.5 815.5 Q457 802 454 782 Q450 762 434 748.5 Q418 735 399 735 Q382 735 370.5 746 Q359 757 359 773 Q359 779 360 782 Z M220 782 Q219 779 219 773 Q219 759 229 749 Q239 739 255 739 Q273 739 287.5 751.5 Q302 764 306 782 Q309 800 299 812.5 Q289 825 271 825 Q253 825 238 812.5 Q223 800 220 782 Z M216 782 Q219 801 235 815 Q251 829 271 829 Q290 829 301.5 815.5 Q313 802 310 782 Q306 762 290 748.5 Q274 735 255 735 Q238 735 226.5 746 Q215 757 215 773 Q215 779 216 782 Z M324 967 L244 967 L325 867 L372 867 L324 967 Z M326 971 L378 863 L323 863 L236 971 L326 971 Z " />
<glyph glyph-name="uni01D5" unicode="&#x1d5;" horiz-adv-x="393" d="M194 -7 Q263 -7 311 32 Q366 75 381 156 L476 698 L395 698 L300 156 Q293 114 270.5 94 Q248 74 209 74 Q146 74 146 129 Q146 141 149 156 L244 698 L163 698 L68 156 Q64 136 64 114 Q64 62 92 31 Q128 -7 194 -7 Z M194 -11 Q162 -11 135 -0.5 Q108 10 90 29 Q60 61 60 114 Q60 136 64 156 L159 702 L248 702 L153 156 Q150 141 150 130 Q150 78 209 78 Q246 78 267 97 Q288 116 296 156 L391 702 L480 702 L385 156 Q370 73 313 28 Q289 9 258 -1 Q227 -11 194 -11 Z M364 782 Q363 779 363 773 Q363 759 373 749 Q383 739 399 739 Q417 739 431.5 751.5 Q446 764 450 782 Q453 800 443 812.5 Q433 825 415 825 Q397 825 382 812.5 Q367 800 364 782 Z M360 782 Q363 801 379 815 Q395 829 415 829 Q434 829 445.5 815.5 Q457 802 454 782 Q450 762 434 748.5 Q418 735 399 735 Q382 735 370.5 746 Q359 757 359 773 Q359 779 360 782 Z M220 782 Q219 779 219 773 Q219 759 229 749 Q239 739 255 739 Q273 739 287.5 751.5 Q302 764 306 782 Q309 800 299 812.5 Q289 825 271 825 Q253 825 238 812.5 Q223 800 220 782 Z M216 782 Q219 801 235 815 Q251 829 271 829 Q290 829 301.5 815.5 Q313 802 310 782 Q306 762 290 748.5 Q274 735 255 735 Q238 735 226.5 746 Q215 757 215 773 Q215 779 216 782 Z M500 867 L507 908 L207 908 L200 867 L500 867 Z M504 863 L196 863 L203 912 L511 912 L504 863 Z " />
<glyph glyph-name="uni1EE4" unicode="&#x1ee4;" horiz-adv-x="393" d="M195 -7 Q228 -7 258.5 3 Q289 13 311 32 Q366 75 381 156 L476 698 L395 698 L300 156 Q293 114 270.5 94 Q248 74 210 74 Q146 74 146 130 Q146 141 149 156 L244 698 L163 698 L68 156 Q64 136 64 114 Q64 62 92 31 Q128 -7 195 -7 Z M195 -11 Q126 -11 90 29 Q60 61 60 114 Q60 136 64 156 L159 702 L248 702 L153 156 Q150 141 150 130 Q150 78 210 78 Q247 78 267.5 97 Q288 116 296 156 L391 702 L480 702 L385 156 Q370 73 313 28 Q289 9 258.5 -1 Q228 -11 195 -11 Z M190 -42 Q170 -42 154 -57 Q138 -72 138 -93 Q138 -108 148 -118 Q158 -128 174 -128 Q194 -128 210 -113 Q226 -98 226 -77 Q226 -62 216 -52 Q206 -42 190 -42 Z M190 -38 Q207 -38 218.5 -49.5 Q230 -61 230 -78 Q230 -99 212.5 -115.5 Q195 -132 174 -132 Q157 -132 145.5 -120.5 Q134 -109 134 -92 Q134 -71 151.5 -54.5 Q169 -38 190 -38 Z " />
<glyph glyph-name="Ugrave" unicode="&#xd9;" horiz-adv-x="393" d="M195 -7 Q228 -7 258.5 3 Q289 13 311 32 Q366 75 381 156 L476 698 L395 698 L300 156 Q293 114 270.5 94 Q248 74 210 74 Q146 74 146 130 Q146 141 149 156 L244 698 L163 698 L68 156 Q64 136 64 114 Q64 62 92 31 Q128 -7 195 -7 Z M195 -11 Q126 -11 90 29 Q60 61 60 114 Q60 136 64 156 L159 702 L248 702 L153 156 Q150 141 150 130 Q150 78 210 78 Q247 78 267.5 97 Q288 116 296 156 L391 702 L480 702 L385 156 Q370 73 313 28 Q289 9 258.5 -1 Q228 -11 195 -11 Z M301 739 L352 739 L352 735 L301 735 L301 739 Z M301 739 L352 739 L352 735 L301 735 L301 739 Z M301 839 L221 839 L302 739 L349 739 L301 839 Z M303 843 L355 735 L300 735 L213 843 L303 843 Z " />
<glyph glyph-name="uni1EE6" unicode="&#x1ee6;" horiz-adv-x="393" d="M195 -7 Q228 -7 258.5 3 Q289 13 311 32 Q366 75 381 156 L476 698 L395 698 L300 156 Q293 114 270.5 94 Q248 74 210 74 Q146 74 146 130 Q146 141 149 156 L244 698 L163 698 L68 156 Q64 136 64 114 Q64 62 92 31 Q128 -7 195 -7 Z M195 -11 Q126 -11 90 29 Q60 61 60 114 Q60 136 64 156 L159 702 L248 702 L153 156 Q150 141 150 130 Q150 78 210 78 Q247 78 267.5 97 Q288 116 296 156 L391 702 L480 702 L385 156 Q370 73 313 28 Q289 9 258.5 -1 Q228 -11 195 -11 Z M301 739 L352 739 L352 735 L301 735 L301 739 Z M301 739 L352 739 L352 735 L301 735 L301 739 Z M265 840 Q302 840 327 815.5 Q352 791 352 754 Q352 749 350 735 L303 735 Q304 739 304 747 Q304 767 290.5 780.5 Q277 794 256 793 L224 832 Q240 840 265 840 Z M265 836 Q245 836 230 830 L258 797 Q280 796 294 782.5 Q308 769 308 748 L307 739 L346 739 Q347 744 347 755 Q347 790 324 813 Q301 836 265 836 Z " />
<glyph glyph-name="Uhorn" unicode="&#x1af;" horiz-adv-x="440" d="M589 722 Q585 694 563 674.5 Q541 655 513 655 L473 655 L385 156 Q370 73 313 28 Q289 9 258.5 -1 Q228 -11 195 -11 Q126 -11 90 29 Q60 61 60 114 Q60 136 64 156 L159 702 L248 702 L153 156 Q150 141 150 130 Q150 78 210 78 Q247 78 267.5 97 Q288 116 296 156 L391 702 L520 702 Q528 702 534.5 708 Q541 714 542 722 L589 722 Z M546 718 Q544 710 536 704 Q528 698 520 698 L395 698 L300 156 Q293 114 270.5 94 Q248 74 210 74 Q146 74 146 130 Q146 141 149 156 L244 698 L163 698 L68 156 Q64 136 64 114 Q64 62 92 31 Q128 -7 195 -7 Q228 -7 258.5 3 Q289 13 311 32 Q366 75 381 156 L469 659 L513 659 Q538 659 559 676 Q580 693 585 718 L546 718 Z " />
<glyph glyph-name="uni1EE8" unicode="&#x1ee8;" horiz-adv-x="440" d="M589 722 Q585 694 563 674.5 Q541 655 513 655 L473 655 L385 156 Q370 73 313 28 Q289 9 258.5 -1 Q228 -11 195 -11 Q126 -11 90 29 Q60 61 60 114 Q60 136 64 156 L159 702 L248 702 L153 156 Q150 141 150 130 Q150 78 210 78 Q247 78 267.5 97 Q288 116 296 156 L391 702 L520 702 Q528 702 534.5 708 Q541 714 542 722 L589 722 Z M546 718 Q544 710 536 704 Q528 698 520 698 L395 698 L300 156 Q293 114 270.5 94 Q248 74 210 74 Q146 74 146 130 Q146 141 149 156 L244 698 L163 698 L68 156 Q64 136 64 114 Q64 62 92 31 Q128 -7 195 -7 Q228 -7 258.5 3 Q289 13 311 32 Q366 75 381 156 L469 659 L513 659 Q538 659 559 676 Q580 693 585 718 L546 718 Z M388 839 L305 739 L351 739 L467 839 L388 839 Z M386 843 L477 843 L353 735 L297 735 L386 843 Z " />
<glyph glyph-name="uni1EF0" unicode="&#x1ef0;" horiz-adv-x="440" d="M589 722 Q585 694 563 674.5 Q541 655 513 655 L473 655 L385 156 Q370 73 313 28 Q289 9 258.5 -1 Q228 -11 195 -11 Q126 -11 90 29 Q60 61 60 114 Q60 136 64 156 L159 702 L248 702 L153 156 Q150 141 150 130 Q150 78 210 78 Q247 78 267.5 97 Q288 116 296 156 L391 702 L520 702 Q528 702 534.5 708 Q541 714 542 722 L589 722 Z M546 718 Q544 710 536 704 Q528 698 520 698 L395 698 L300 156 Q293 114 270.5 94 Q248 74 210 74 Q146 74 146 130 Q146 141 149 156 L244 698 L163 698 L68 156 Q64 136 64 114 Q64 62 92 31 Q128 -7 195 -7 Q228 -7 258.5 3 Q289 13 311 32 Q366 75 381 156 L469 659 L513 659 Q538 659 559 676 Q580 693 585 718 L546 718 Z M190 -42 Q170 -42 154 -57 Q138 -72 138 -93 Q138 -108 148 -118 Q158 -128 174 -128 Q194 -128 210 -113 Q226 -98 226 -77 Q226 -62 216 -52 Q206 -42 190 -42 Z M190 -38 Q207 -38 218.5 -49.5 Q230 -61 230 -78 Q230 -99 212.5 -115.5 Q195 -132 174 -132 Q157 -132 145.5 -120.5 Q134 -109 134 -92 Q134 -71 151.5 -54.5 Q169 -38 190 -38 Z " />
<glyph glyph-name="uni1EEA" unicode="&#x1eea;" horiz-adv-x="440" d="M589 722 Q585 694 563 674.5 Q541 655 513 655 L473 655 L385 156 Q370 73 313 28 Q289 9 258.5 -1 Q228 -11 195 -11 Q126 -11 90 29 Q60 61 60 114 Q60 136 64 156 L159 702 L248 702 L153 156 Q150 141 150 130 Q150 78 210 78 Q247 78 267.5 97 Q288 116 296 156 L391 702 L520 702 Q528 702 534.5 708 Q541 714 542 722 L589 722 Z M546 718 Q544 710 536 704 Q528 698 520 698 L395 698 L300 156 Q293 114 270.5 94 Q248 74 210 74 Q146 74 146 130 Q146 141 149 156 L244 698 L163 698 L68 156 Q64 136 64 114 Q64 62 92 31 Q128 -7 195 -7 Q228 -7 258.5 3 Q289 13 311 32 Q366 75 381 156 L469 659 L513 659 Q538 659 559 676 Q580 693 585 718 L546 718 Z M301 839 L221 839 L302 739 L349 739 L301 839 Z M303 843 L355 735 L300 735 L213 843 L303 843 Z " />
<glyph glyph-name="uni1EEC" unicode="&#x1eec;" horiz-adv-x="440" d="M589 722 Q585 694 563 674.5 Q541 655 513 655 L473 655 L385 156 Q370 73 313 28 Q289 9 258.5 -1 Q228 -11 195 -11 Q126 -11 90 29 Q60 61 60 114 Q60 136 64 156 L159 702 L248 702 L153 156 Q150 141 150 130 Q150 78 210 78 Q247 78 267.5 97 Q288 116 296 156 L391 702 L520 702 Q528 702 534.5 708 Q541 714 542 722 L589 722 Z M546 718 Q544 710 536 704 Q528 698 520 698 L395 698 L300 156 Q293 114 270.5 94 Q248 74 210 74 Q146 74 146 130 Q146 141 149 156 L244 698 L163 698 L68 156 Q64 136 64 114 Q64 62 92 31 Q128 -7 195 -7 Q228 -7 258.5 3 Q289 13 311 32 Q366 75 381 156 L469 659 L513 659 Q538 659 559 676 Q580 693 585 718 L546 718 Z M265 840 Q302 840 327 815.5 Q352 791 352 754 Q352 749 350 735 L303 735 Q304 739 304 747 Q304 767 290.5 780.5 Q277 794 256 793 L224 832 Q240 840 265 840 Z M265 836 Q245 836 230 830 L258 797 Q280 796 294 782.5 Q308 769 308 748 L307 739 L346 739 Q347 744 347 755 Q347 790 324 813 Q301 836 265 836 Z " />
<glyph glyph-name="uni1EEE" unicode="&#x1eee;" horiz-adv-x="440" d="M589 722 Q585 694 563 674.5 Q541 655 513 655 L473 655 L385 156 Q370 73 313 28 Q289 9 258.5 -1 Q228 -11 195 -11 Q126 -11 90 29 Q60 61 60 114 Q60 136 64 156 L159 702 L248 702 L153 156 Q150 141 150 130 Q150 78 210 78 Q247 78 267.5 97 Q288 116 296 156 L391 702 L520 702 Q528 702 534.5 708 Q541 714 542 722 L589 722 Z M546 718 Q544 710 536 704 Q528 698 520 698 L395 698 L300 156 Q293 114 270.5 94 Q248 74 210 74 Q146 74 146 130 Q146 141 149 156 L244 698 L163 698 L68 156 Q64 136 64 114 Q64 62 92 31 Q128 -7 195 -7 Q228 -7 258.5 3 Q289 13 311 32 Q366 75 381 156 L469 659 L513 659 Q538 659 559 676 Q580 693 585 718 L546 718 Z M232 738 Q262 768 285 768 Q303 768 323 755 Q349 737 375 737 Q415 737 461 783 L435 806 Q410 781 389 777 Q371 774 349 788 Q318 808 293 808 Q252 808 206 762 L232 738 Z M200 762 Q250 812 293 812 Q320 812 351 792 Q372 778 389 781 Q410 786 435 812 L467 783 Q420 733 374 733 Q347 733 321 751 Q301 764 285 764 Q275 764 261 756 Q247 748 232 732 L200 762 Z " />
<glyph glyph-name="Uhungarumlaut" unicode="&#x170;" horiz-adv-x="393" d="M195 -7 Q228 -7 258.5 3 Q289 13 311 32 Q366 75 381 156 L476 698 L395 698 L300 156 Q293 114 270.5 94 Q248 74 210 74 Q146 74 146 130 Q146 141 149 156 L244 698 L163 698 L68 156 Q64 136 64 114 Q64 62 92 31 Q128 -7 195 -7 Z M195 -11 Q126 -11 90 29 Q60 61 60 114 Q60 136 64 156 L159 702 L248 702 L153 156 Q150 141 150 130 Q150 78 210 78 Q247 78 267.5 97 Q288 116 296 156 L391 702 L480 702 L385 156 Q370 73 313 28 Q289 9 258.5 -1 Q228 -11 195 -11 Z M320 840 L238 739 L283 739 L400 840 L320 840 Z M318 844 L410 844 L285 735 L230 735 L318 844 Z M455 840 L373 739 L418 739 L535 840 L455 840 Z M453 844 L545 844 L420 735 L365 735 L453 844 Z " />
<glyph glyph-name="Umacron" unicode="&#x16a;" horiz-adv-x="393" d="M195 -7 Q228 -7 258.5 3 Q289 13 311 32 Q366 75 381 156 L476 698 L395 698 L300 156 Q293 114 270.5 94 Q248 74 210 74 Q146 74 146 130 Q146 141 149 156 L244 698 L163 698 L68 156 Q64 136 64 114 Q64 62 92 31 Q128 -7 195 -7 Z M195 -11 Q126 -11 90 29 Q60 61 60 114 Q60 136 64 156 L159 702 L248 702 L153 156 Q150 141 150 130 Q150 78 210 78 Q247 78 267.5 97 Q288 116 296 156 L391 702 L480 702 L385 156 Q370 73 313 28 Q289 9 258.5 -1 Q228 -11 195 -11 Z M477 739 L485 780 L185 780 L177 739 L477 739 Z M481 735 L173 735 L181 784 L489 784 L481 735 Z " />
<glyph glyph-name="Uogonek" unicode="&#x172;" horiz-adv-x="393" d="M480 702 L385 156 Q370 73 313 28 Q282 2 265 -16.5 Q248 -35 244 -55 Q241 -68 253 -73.5 Q265 -79 278 -79 L287 -79 L289 -81 L281 -128 L260 -128 Q221 -128 200.5 -116 Q180 -104 180 -82 Q180 -52 228 -5 L229 -8 Q213 -11 195 -11 Q126 -11 90 29 Q60 61 60 114 Q60 136 64 156 L159 702 L248 702 L153 156 Q150 141 150 130 Q150 78 210 78 Q247 78 267.5 97 Q288 116 296 156 L391 702 L480 702 Z M300 156 Q293 114 270.5 94 Q248 74 210 74 Q146 74 146 130 Q146 141 149 156 L244 698 L163 698 L68 156 Q64 136 64 114 Q64 62 92 31 Q128 -7 195 -7 Q214 -7 229 -4 L230 -7 Q209 -28 196.5 -48 Q184 -68 184 -82 Q184 -103 204 -113.5 Q224 -124 260 -124 L277 -124 L285 -83 L278 -83 Q264 -83 250.5 -77 Q237 -71 240 -55 Q244 -34 262 -14 Q280 6 311 32 Q366 75 381 156 L476 698 L395 698 L300 156 Z " />
<glyph glyph-name="Uring" unicode="&#x16e;" horiz-adv-x="393" d="M195 -7 Q228 -7 258.5 3 Q289 13 311 32 Q366 75 381 156 L476 698 L395 698 L300 156 Q293 114 270.5 94 Q248 74 210 74 Q146 74 146 130 Q146 141 149 156 L244 698 L163 698 L68 156 Q64 136 64 114 Q64 62 92 31 Q128 -7 195 -7 Z M195 -11 Q126 -11 90 29 Q60 61 60 114 Q60 136 64 156 L159 702 L248 702 L153 156 Q150 141 150 130 Q150 78 210 78 Q247 78 267.5 97 Q288 116 296 156 L391 702 L480 702 L385 156 Q370 73 313 28 Q289 9 258.5 -1 Q228 -11 195 -11 Z M327 742 Q356 742 378.5 764 Q401 786 401 814 Q401 836 386.5 850.5 Q372 865 350 865 Q322 865 299 842 Q276 819 276 791 Q276 770 290.5 756 Q305 742 327 742 Z M327 738 Q303 738 287.5 753 Q272 768 272 791 Q272 822 296 845.5 Q320 869 350 869 Q374 869 389.5 853 Q405 837 405 814 Q405 783 381.5 760.5 Q358 738 327 738 Z M342 826 Q350 826 355.5 820.5 Q361 815 361 807 Q361 796 353 788.5 Q345 781 335 781 Q327 781 321.5 786.5 Q316 792 316 800 Q316 810 324 818 Q332 826 342 826 Z M342 822 Q334 822 327.5 816.5 Q321 811 320 803 L320 800 Q320 793 324 789 Q328 785 335 785 Q343 785 349.5 790.5 Q356 796 357 803 L357 807 Q357 814 353 818 Q349 822 342 822 Z " />
<glyph glyph-name="Utilde" unicode="&#x168;" horiz-adv-x="393" d="M195 -7 Q228 -7 258.5 3 Q289 13 311 32 Q366 75 381 156 L476 698 L395 698 L300 156 Q293 114 270.5 94 Q248 74 210 74 Q146 74 146 130 Q146 141 149 156 L244 698 L163 698 L68 156 Q64 136 64 114 Q64 62 92 31 Q128 -7 195 -7 Z M195 -11 Q126 -11 90 29 Q60 61 60 114 Q60 136 64 156 L159 702 L248 702 L153 156 Q150 141 150 130 Q150 78 210 78 Q247 78 267.5 97 Q288 116 296 156 L391 702 L480 702 L385 156 Q370 73 313 28 Q289 9 258.5 -1 Q228 -11 195 -11 Z M231 738 Q261 768 284 768 Q302 768 322 755 Q347 737 374 737 Q414 737 460 783 L434 806 Q409 781 388 777 Q370 774 348 788 Q317 808 292 808 Q251 808 205 762 L231 738 Z M199 762 Q249 812 292 812 Q319 812 350 792 Q371 778 388 781 Q409 786 434 812 L466 783 Q419 733 373 733 Q345 733 320 751 Q300 764 284 764 Q274 764 260 756 Q246 748 231 732 L199 762 Z " />
<glyph glyph-name="V" unicode="V" horiz-adv-x="403" d="M424 702 L515 702 L244 -2 L158 -2 L135 702 L226 702 L234 180 L424 702 Z M426 698 L230 158 L222 698 L139 698 L162 2 L242 2 L509 698 L426 698 Z " />
<glyph glyph-name="uni0245" unicode="&#x245;" horiz-adv-x="403" d="M300 -2 L294 520 L102 -2 L11 -2 L282 702 L368 702 L391 -2 L300 -2 Z M304 2 L387 2 L364 698 L284 698 L17 2 L100 2 L298 542 L304 2 Z " />
<glyph glyph-name="W" unicode="W" horiz-adv-x="500" d="M316 374 L140 -2 L102 -2 L139 702 L229 702 L207 315 L335 592 L375 592 L406 315 L518 702 L608 702 L398 -2 L359 -2 L316 374 Z M318 388 L363 2 L396 2 L602 698 L522 698 L404 295 L371 588 L337 588 L201 295 L225 698 L143 698 L106 2 L138 2 L318 388 Z " />
<glyph glyph-name="Wacute" unicode="&#x1e82;" horiz-adv-x="500" d="M316 374 L140 -2 L102 -2 L139 702 L229 702 L207 315 L335 592 L375 592 L406 315 L518 702 L608 702 L398 -2 L359 -2 L316 374 Z M318 388 L363 2 L396 2 L602 698 L522 698 L404 295 L371 588 L337 588 L201 295 L225 698 L143 698 L106 2 L138 2 L318 388 Z M442 839 L359 739 L405 739 L521 839 L442 839 Z M440 843 L531 843 L407 735 L351 735 L440 843 Z " />
<glyph glyph-name="Wcircumflex" unicode="&#x174;" horiz-adv-x="500" d="M316 374 L140 -2 L102 -2 L139 702 L229 702 L207 315 L335 592 L375 592 L406 315 L518 702 L608 702 L398 -2 L359 -2 L316 374 Z M318 388 L363 2 L396 2 L602 698 L522 698 L404 295 L371 588 L337 588 L201 295 L225 698 L143 698 L106 2 L138 2 L318 388 Z M493 735 L439 735 L390 791 L321 735 L265 735 L354 842 L441 842 L493 735 Z M487 739 L439 838 L356 838 L273 739 L319 739 L390 797 L441 739 L487 739 Z " />
<glyph glyph-name="Wdieresis" unicode="&#x1e84;" horiz-adv-x="500" d="M316 374 L140 -2 L102 -2 L139 702 L229 702 L207 315 L335 592 L375 592 L406 315 L518 702 L608 702 L398 -2 L359 -2 L316 374 Z M318 388 L363 2 L396 2 L602 698 L522 698 L404 295 L371 588 L337 588 L201 295 L225 698 L143 698 L106 2 L138 2 L318 388 Z M359 782 Q362 800 352 812.5 Q342 825 324 825 Q306 825 291 812.5 Q276 800 273 782 Q272 779 272 773 Q272 759 282 749 Q292 739 308 739 Q326 739 340.5 751.5 Q355 764 359 782 Z M363 782 Q359 762 343 748.5 Q327 735 308 735 Q291 735 279.5 746 Q268 757 268 773 Q268 779 269 782 Q272 801 288 815 Q304 829 324 829 Q343 829 354.5 815.5 Q366 802 363 782 Z M503 782 Q506 800 496 812.5 Q486 825 468 825 Q450 825 435 812.5 Q420 800 417 782 Q416 779 416 773 Q416 759 426 749 Q436 739 452 739 Q470 739 484.5 751.5 Q499 764 503 782 Z M507 782 Q503 762 487 748.5 Q471 735 452 735 Q435 735 423.5 746 Q412 757 412 773 Q412 779 413 782 Q416 801 432 815 Q448 829 468 829 Q487 829 498.5 815.5 Q510 802 507 782 Z " />
<glyph glyph-name="Wgrave" unicode="&#x1e80;" horiz-adv-x="500" d="M316 374 L140 -2 L102 -2 L139 702 L229 702 L207 315 L335 592 L375 592 L406 315 L518 702 L608 702 L398 -2 L359 -2 L316 374 Z M318 388 L363 2 L396 2 L602 698 L522 698 L404 295 L371 588 L337 588 L201 295 L225 698 L143 698 L106 2 L138 2 L318 388 Z M355 839 L275 839 L356 739 L403 739 L355 839 Z M357 843 L409 735 L354 735 L267 843 L357 843 Z " />
<glyph glyph-name="uni2C72" unicode="&#x2c72;" horiz-adv-x="562" d="M642 702 Q667 702 682 687 Q697 672 697 648 Q697 639 696 635 L648 635 Q649 637 649 642 Q649 648 645.5 651.5 Q642 655 635 655 L594 655 L398 -2 L359 -2 L316 374 L140 -2 L102 -2 L139 702 L229 702 L207 315 L335 592 L375 592 L406 315 L518 702 L642 702 Z M522 698 L404 295 L371 588 L337 588 L201 295 L225 698 L143 698 L106 2 L138 2 L318 388 L363 2 L396 2 L592 659 L635 659 Q644 659 649 653 Q654 647 653 639 L692 639 L693 648 Q693 670 678.5 684 Q664 698 642 698 L522 698 Z " />
<glyph glyph-name="X" unicode="X" horiz-adv-x="408" d="M319 349 L392 -2 L297 -2 L246 238 L110 -2 L15 -2 L214 349 L140 702 L235 702 L285 460 L421 702 L516 702 L319 349 Z M315 349 L510 698 L423 698 L283 448 L231 698 L144 698 L218 349 L21 2 L108 2 L248 250 L301 2 L388 2 L315 349 Z " />
<glyph glyph-name="Y" unicode="Y" horiz-adv-x="380" d="M261 401 L407 702 L499 702 L278 242 L278 243 L235 -2 L146 -2 L189 243 L189 243 L129 702 L222 702 L261 401 Z M259 387 L218 698 L133 698 L193 243 L193 243 L150 2 L231 2 L274 243 L274 244 L493 698 L409 698 L259 387 Z " />
<glyph glyph-name="Yacute" unicode="&#xdd;" horiz-adv-x="380" d="M261 401 L407 702 L499 702 L278 242 L278 243 L235 -2 L146 -2 L189 243 L189 243 L129 702 L222 702 L261 401 Z M259 387 L218 698 L133 698 L193 243 L193 243 L150 2 L231 2 L274 243 L274 244 L493 698 L409 698 L259 387 Z M382 839 L299 739 L345 739 L461 839 L382 839 Z M380 843 L471 843 L347 735 L291 735 L380 843 Z " />
<glyph glyph-name="Ycircumflex" unicode="&#x176;" horiz-adv-x="380" d="M261 401 L407 702 L499 702 L278 242 L278 243 L235 -2 L146 -2 L189 243 L189 243 L129 702 L222 702 L261 401 Z M259 387 L218 698 L133 698 L193 243 L193 243 L150 2 L231 2 L274 243 L274 244 L493 698 L409 698 L259 387 Z M434 735 L380 735 L331 791 L262 735 L206 735 L295 842 L382 842 L434 735 Z M428 739 L380 838 L297 838 L214 739 L260 739 L331 797 L382 739 L428 739 Z " />
<glyph glyph-name="Ydieresis" unicode="&#x178;" horiz-adv-x="380" d="M300 782 Q303 800 293 812.5 Q283 825 265 825 Q247 825 232 812.5 Q217 800 214 782 Q213 779 213 773 Q213 759 223 749 Q233 739 249 739 Q267 739 281.5 751.5 Q296 764 300 782 Z M304 782 Q300 762 284 748.5 Q268 735 249 735 Q232 735 220.5 746 Q209 757 209 773 Q209 779 210 782 Q213 801 229 815 Q245 829 265 829 Q284 829 295.5 815.5 Q307 802 304 782 Z M444 782 Q447 800 437 812.5 Q427 825 409 825 Q391 825 376 812.5 Q361 800 358 782 Q357 779 357 773 Q357 759 367 749 Q377 739 393 739 Q411 739 425.5 751.5 Q440 764 444 782 Z M448 782 Q444 762 428 748.5 Q412 735 393 735 Q376 735 364.5 746 Q353 757 353 773 Q353 779 354 782 Q357 801 373 815 Q389 829 409 829 Q428 829 439.5 815.5 Q451 802 448 782 Z M261 401 L407 702 L499 702 L278 242 L278 243 L235 -2 L146 -2 L189 243 L189 243 L129 702 L222 702 L261 401 Z M259 387 L218 698 L133 698 L193 243 L193 243 L150 2 L231 2 L274 243 L274 244 L493 698 L409 698 L259 387 Z " />
<glyph glyph-name="uni1EF4" unicode="&#x1ef4;" horiz-adv-x="380" d="M183 -42 Q163 -42 147 -57 Q131 -72 131 -93 Q131 -108 141 -118 Q151 -128 167 -128 Q187 -128 203 -113 Q219 -98 219 -77 Q219 -62 209 -52 Q199 -42 183 -42 Z M183 -38 Q200 -38 211.5 -49.5 Q223 -61 223 -78 Q223 -99 205.5 -115.5 Q188 -132 167 -132 Q150 -132 138.5 -120.5 Q127 -109 127 -92 Q127 -71 144.5 -54.5 Q162 -38 183 -38 Z M260 401 L406 702 L499 702 L278 242 L278 243 L235 -2 L146 -2 L189 243 L189 243 L129 702 L221 702 L260 401 Z M258 387 L217 698 L133 698 L193 243 L193 243 L150 2 L231 2 L274 243 L274 244 L493 698 L408 698 L258 387 Z " />
<glyph glyph-name="Ygrave" unicode="&#x1ef2;" horiz-adv-x="380" d="M260 401 L406 702 L499 702 L278 242 L278 243 L235 -2 L146 -2 L189 243 L189 243 L129 702 L221 702 L260 401 Z M258 387 L217 698 L133 698 L193 243 L193 243 L150 2 L231 2 L274 243 L274 244 L493 698 L408 698 L258 387 Z M295 839 L215 839 L296 739 L343 739 L295 839 Z M297 843 L349 735 L294 735 L207 843 L297 843 Z " />
<glyph glyph-name="uni01B3" unicode="&#x1b3;" horiz-adv-x="445" d="M525 702 Q550 702 565 687 Q580 672 580 648 Q580 639 579 635 L531 635 Q532 637 532 642 Q532 648 528.5 651.5 Q525 655 518 655 L477 655 L278 242 L278 243 L235 -2 L146 -2 L189 243 L189 243 L129 702 L222 702 L261 401 L407 702 L525 702 Z M409 698 L259 387 L218 698 L133 698 L193 243 L193 243 L150 2 L231 2 L274 243 L274 244 L475 659 L518 659 Q527 659 532 653 Q537 647 536 639 L575 639 L576 648 Q576 670 561.5 684 Q547 698 525 698 L409 698 Z " />
<glyph glyph-name="uni1EF6" unicode="&#x1ef6;" horiz-adv-x="380" d="M260 401 L406 702 L499 702 L278 242 L278 243 L235 -2 L146 -2 L189 243 L189 243 L129 702 L221 702 L260 401 Z M258 387 L217 698 L133 698 L193 243 L193 243 L150 2 L231 2 L274 243 L274 244 L493 698 L408 698 L258 387 Z M259 840 Q296 840 321 815.5 Q346 791 346 754 Q346 749 344 735 L297 735 Q298 739 298 747 Q298 767 284.5 780.5 Q271 794 250 793 L218 832 Q234 840 259 840 Z M259 836 Q239 836 224 830 L252 797 Q274 796 288 782.5 Q302 769 302 748 L301 739 L340 739 Q341 744 341 755 Q341 790 318 813 Q295 836 259 836 Z " />
<glyph glyph-name="uni1EF8" unicode="&#x1ef8;" horiz-adv-x="380" d="M260 401 L406 702 L499 702 L278 242 L278 243 L235 -2 L146 -2 L189 243 L189 243 L129 702 L221 702 L260 401 Z M258 387 L217 698 L133 698 L193 243 L193 243 L150 2 L231 2 L274 243 L274 244 L493 698 L408 698 L258 387 Z M225 740 Q255 770 279 770 Q296 770 316 757 Q341 739 368 739 Q408 739 454 785 L428 808 Q403 783 383 779 Q363 776 343 790 Q312 810 286 810 Q246 810 200 764 L225 740 Z M194 764 Q244 814 287 814 Q314 814 345 794 Q364 780 383 783 Q402 788 428 814 L460 785 Q413 735 368 735 Q341 735 314 753 Q291 769 272 766 Q252 763 225 734 L194 764 Z " />
<glyph glyph-name="Z" unicode="Z" horiz-adv-x="375" d="M346 2 L361 83 L157 83 L467 698 L152 698 L137 617 L341 617 L31 2 L346 2 Z M350 -2 L25 -2 L335 613 L133 613 L148 702 L473 702 L163 87 L365 87 L350 -2 Z " />
<glyph glyph-name="Zacute" unicode="&#x179;" horiz-adv-x="375" d="M346 2 L361 83 L157 83 L467 698 L152 698 L137 617 L341 617 L31 2 L346 2 Z M350 -2 L25 -2 L335 613 L133 613 L148 702 L473 702 L163 87 L365 87 L350 -2 Z M378 839 L295 739 L341 739 L457 839 L378 839 Z M376 843 L467 843 L343 735 L287 735 L376 843 Z " />
<glyph glyph-name="Zcaron" unicode="&#x17d;" horiz-adv-x="375" d="M346 2 L361 83 L157 83 L467 698 L152 698 L137 617 L341 617 L31 2 L346 2 Z M350 -2 L25 -2 L335 613 L133 613 L148 702 L473 702 L163 87 L365 87 L350 -2 Z M449 842 L360 735 L273 735 L221 842 L276 842 L325 786 L394 842 L449 842 Z M441 838 L396 838 L325 780 L274 838 L227 838 L275 739 L358 739 L441 838 Z " />
<glyph glyph-name="Zdotaccent" unicode="&#x17b;" horiz-adv-x="375" d="M346 2 L361 83 L157 83 L467 698 L152 698 L137 617 L341 617 L31 2 L346 2 Z M350 -2 L25 -2 L335 613 L133 613 L148 702 L473 702 L163 87 L365 87 L350 -2 Z M368 782 Q371 800 361 812.5 Q351 825 333 825 Q315 825 300 812.5 Q285 800 282 782 Q281 779 281 773 Q281 759 291 749 Q301 739 317 739 Q335 739 349.5 751.5 Q364 764 368 782 Z M372 782 Q368 762 352 748.5 Q336 735 317 735 Q300 735 288.5 746 Q277 757 277 773 Q277 779 278 782 Q281 801 297 815 Q313 829 333 829 Q352 829 363.5 815.5 Q375 802 372 782 Z " />
<glyph glyph-name="uni1E92" unicode="&#x1e92;" horiz-adv-x="375" d="M346 2 L361 83 L157 83 L467 698 L152 698 L137 617 L341 617 L31 2 L346 2 Z M350 -2 L25 -2 L335 613 L133 613 L148 702 L473 702 L163 87 L365 87 L350 -2 Z M216 -77 Q216 -62 206 -52 Q196 -42 180 -42 Q160 -42 144 -57 Q128 -72 128 -93 Q128 -108 138 -118 Q148 -128 164 -128 Q184 -128 200 -113 Q216 -98 216 -77 Z M220 -78 Q220 -99 202.5 -115.5 Q185 -132 164 -132 Q147 -132 135.5 -120.5 Q124 -109 124 -92 Q124 -71 141.5 -54.5 Q159 -38 180 -38 Q197 -38 208.5 -49.5 Q220 -61 220 -78 Z " />
<glyph glyph-name="uni0299" unicode="&#x299;" horiz-adv-x="386" d="M199 2 Q264 2 315 39 Q369 81 383 161 L386 177 Q390 205 390 215 Q390 275 346 307 Q373 328 389.5 355.5 Q406 383 413 421 L416 438 Q420 457 420 478 Q420 530 390 561 Q359 597 289 597 L148 597 L42 2 L199 2 Z M144 601 L289 601 Q361 601 393 563 Q424 532 424 478 Q424 457 420 438 L417 421 Q404 347 352 307 Q394 274 394 215 Q394 196 390 177 L387 161 Q373 78 317 35 Q267 -2 199 -2 L38 -2 L144 601 Z M244 259 Q308 259 308 203 Q308 191 305 177 L302 161 Q294 117 272 98 Q249 83 214 83 L138 83 L168 259 L244 259 Z M142 87 L214 87 Q251 87 270 102 Q291 119 298 161 L301 177 Q304 192 304 203 Q304 255 244 255 L172 255 L142 87 Z M214 516 L274 516 Q307 516 322.5 504 Q338 492 338 465 Q338 453 335 438 L332 421 Q325 379 303.5 359.5 Q282 340 243 340 L183 340 L214 516 Z M243 344 Q281 344 301 362.5 Q321 381 328 421 L331 438 Q334 453 334 464 Q334 490 319.5 501 Q305 512 274 512 L218 512 L187 344 L243 344 Z " />
<glyph glyph-name="uni0262" unicode="&#x262;" horiz-adv-x="385" d="M191 -7 Q258 -7 308 32 Q362 75 377 156 L409 340 L255 340 L240 259 L313 259 L296 156 Q289 114 266.5 94 Q244 74 206 74 Q142 74 142 130 Q142 141 145 156 L195 444 Q202 486 224 506 Q246 526 285 526 Q349 526 349 470 Q349 458 346 444 L344 432 L425 432 L427 444 Q431 463 431 485 Q431 534 404 569 Q366 607 300 607 Q234 607 184 568 Q129 525 114 444 L64 156 Q60 136 60 114 Q60 62 88 31 Q124 -7 191 -7 Z M191 -11 Q123 -11 86 29 Q56 60 56 114 Q56 136 60 156 L110 444 Q125 525 182 572 Q232 611 300 611 Q368 611 407 571 Q435 539 435 485 Q435 463 431 444 L429 428 L340 428 L342 444 Q345 459 345 470 Q345 522 285 522 Q248 522 227.5 503.5 Q207 485 199 444 L149 156 Q146 141 146 130 Q146 78 206 78 Q243 78 263.5 97 Q284 116 292 156 L309 255 L236 255 L251 344 L413 344 L381 156 Q366 73 310 28 Q261 -11 191 -11 Z " />
<glyph glyph-name="uni029B" unicode="&#x29b;" horiz-adv-x="385" d="M414 610 Q418 638 441.5 657 Q465 676 492 675 L484 628 L482 628 Q475 628 468.5 622.5 Q462 617 461 610 L429 428 L340 428 L342 444 Q345 459 345 470 Q345 522 285 522 Q248 522 227.5 503.5 Q207 485 199 444 L149 156 Q146 141 146 130 Q146 78 206 78 Q243 78 263.5 97 Q284 116 292 156 L309 255 L236 255 L251 344 L413 344 L381 156 Q366 73 310 28 Q261 -11 191 -11 Q123 -11 86 29 Q56 60 56 114 Q56 136 60 156 L110 444 Q125 525 182 572 Q232 611 300 611 Q369 611 407 570 L409 567 L406 566 L414 610 Z M410 566 L407 565 Q407 565 403 569 Q365 607 300 607 Q234 607 184 568 Q129 525 114 444 L64 156 Q60 136 60 114 Q60 62 88 31 Q124 -7 191 -7 Q258 -7 308 32 Q362 75 377 156 L409 340 L255 340 L240 259 L313 259 L296 156 Q289 114 266.5 94 Q244 74 206 74 Q142 74 142 130 Q142 141 145 156 L195 444 Q202 486 224 506 Q246 526 285 526 Q349 526 349 470 Q349 458 346 444 L344 432 L425 432 L457 610 Q458 619 464.5 625 Q471 631 480 632 L488 671 Q463 670 443 652 Q423 634 418 610 L410 566 Z " />
<glyph glyph-name="uni029C" unicode="&#x29c;" horiz-adv-x="396" d="M375 602 L464 602 L358 -2 L269 -2 L316 264 L174 264 L127 -2 L38 -2 L144 602 L233 602 L189 353 L331 353 L375 602 Z M379 598 L335 349 L185 349 L229 598 L148 598 L42 2 L123 2 L170 268 L320 268 L273 2 L354 2 L460 598 L379 598 Z " />
<glyph glyph-name="uni026A" unicode="&#x26a;" horiz-adv-x="165" d="M123 2 L229 598 L148 598 L42 2 L123 2 Z M127 -2 L38 -2 L144 602 L233 602 L127 -2 Z " />
<glyph glyph-name="uni029F" unicode="&#x29f;" horiz-adv-x="332" d="M314 2 L329 83 L138 83 L229 597 L148 597 L42 2 L314 2 Z M318 -2 L38 -2 L144 601 L233 601 L142 87 L333 87 L318 -2 Z " />
<glyph glyph-name="uni0274" unicode="&#x274;" horiz-adv-x="405" d="M187 344 L126 -2 L37 -2 L143 602 L193 602 L324 255 L385 602 L474 602 L368 -2 L318 -2 L187 344 Z M185 360 L320 2 L364 2 L470 598 L389 598 L326 239 L191 598 L147 598 L41 2 L122 2 L185 360 Z " />
<glyph glyph-name="uni0276" unicode="&#x276;" horiz-adv-x="528" d="M399 513 L370 354 L503 354 L488 265 L355 265 L323 87 L514 87 L499 -2 L192 -2 Q123 -2 86 38 Q57 72 57 125 Q57 137 61 165 L109 435 Q123 518 179 563 Q228 602 298 602 L605 602 L590 513 L399 513 Z M601 598 L298 598 Q231 598 181 559 Q127 516 113 435 L65 165 Q61 135 61 124 Q61 73 89 40 Q125 2 192 2 L495 2 L510 83 L319 83 L351 269 L484 269 L499 350 L366 350 L395 517 L586 517 L601 598 Z M150 165 Q147 150 147 139 Q147 87 207 87 L234 87 L310 513 L283 513 Q246 513 225.5 494 Q205 475 198 435 L150 165 Z M194 435 Q201 478 222.5 497.5 Q244 517 283 517 L314 517 L238 83 L207 83 Q143 83 143 139 Q143 150 146 165 L194 435 Z " />
<glyph glyph-name="uni0280" unicode="&#x280;" horiz-adv-x="384" d="M358 -2 L265 -2 L213 240 L170 240 L127 -2 L38 -2 L144 602 L304 602 Q372 602 409 562 Q439 531 439 475 Q439 463 435 435 L430 406 Q415 323 360 279 Q334 259 304 250 L358 -2 Z M300 252 Q333 264 358 283 Q411 325 426 406 L431 435 Q434 456 434 475 Q434 529 407 560 Q371 598 304 598 L148 598 L42 2 L123 2 L166 244 L217 244 L269 2 L354 2 L300 252 Z M256 329 Q293 329 313 347 Q333 365 341 406 L346 435 Q348 444 348 460 Q348 488 334 500.5 Q320 513 289 513 L218 513 L185 329 L256 329 Z M181 325 L214 517 L289 517 Q322 517 337 503 Q352 489 352 460 Q352 453 350 435 L345 406 Q338 363 316.5 344 Q295 325 256 325 L181 325 Z " />
<glyph glyph-name="uni0281" unicode="&#x281;" horiz-adv-x="384" d="M323 350 Q351 339 366 320 Q396 287 396 235 Q396 214 392 194 L387 165 Q373 82 317 37 Q266 -2 198 -2 L38 -2 L144 602 L233 602 L190 360 L234 360 L372 602 L465 602 L323 350 Z M459 598 L374 598 L236 356 L186 356 L229 598 L148 598 L42 2 L198 2 Q264 2 315 41 Q369 84 383 165 L388 194 Q392 213 392 234 Q392 286 363 318 Q348 336 317 348 L459 598 Z M175 271 L142 87 L213 87 Q250 87 270 105.5 Q290 124 298 165 L303 194 Q306 209 306 220 Q306 271 246 271 L175 271 Z M246 275 Q279 275 294.5 261.5 Q310 248 310 220 Q310 209 307 194 L302 165 Q295 122 273 102.5 Q251 83 213 83 L138 83 L171 275 L246 275 Z " />
<glyph glyph-name="uni028F" unicode="&#x28f;" horiz-adv-x="380" d="M253 350 L390 602 L482 602 L269 192 L269 193 L235 -2 L146 -2 L180 193 L180 193 L112 602 L205 602 L253 350 Z M251 338 L201 598 L116 598 L184 193 L184 193 L150 2 L231 2 L265 193 L265 194 L476 598 L392 598 L251 338 Z " />
<glyph glyph-name="a" unicode="a" horiz-adv-x="408" d="M302 -2 L301 143 L158 143 L104 -2 L13 -2 L285 702 L370 702 L393 -2 L302 -2 Z M306 2 L389 2 L366 698 L287 698 L19 2 L102 2 L156 147 L305 147 L306 2 Z M191 232 L300 232 L296 520 L191 232 Z M185 228 L300 542 L304 228 L185 228 Z " />
<glyph glyph-name="aacute" unicode="&#xe1;" horiz-adv-x="408" d="M302 -2 L301 143 L158 143 L104 -2 L13 -2 L285 702 L370 702 L393 -2 L302 -2 Z M306 2 L389 2 L366 698 L287 698 L19 2 L102 2 L156 147 L305 147 L306 2 Z M191 232 L300 232 L296 520 L191 232 Z M185 228 L300 542 L304 228 L185 228 Z M395 840 L313 739 L358 739 L475 840 L395 840 Z M393 844 L485 844 L360 735 L305 735 L393 844 Z " />
<glyph glyph-name="abreve" unicode="&#x103;" horiz-adv-x="408" d="M302 -2 L301 143 L158 143 L104 -2 L13 -2 L285 702 L370 702 L393 -2 L302 -2 Z M306 2 L389 2 L366 698 L287 698 L19 2 L102 2 L156 147 L305 147 L306 2 Z M191 232 L300 232 L296 520 L191 232 Z M185 228 L300 542 L304 228 L185 228 Z M455 840 Q448 797 412.5 766 Q377 735 334 735 Q296 735 271.5 759.5 Q247 784 247 821 Q247 826 249 840 L296 840 Q295 836 295 828 Q295 808 308.5 795 Q322 782 342 782 Q366 782 385 799 Q404 816 408 840 L455 840 Z M412 836 Q407 811 386.5 794.5 Q366 778 342 778 Q320 778 305.5 792 Q291 806 291 827 L292 836 L253 836 Q252 831 252 820 Q252 785 275 762 Q298 739 334 739 Q374 739 408.5 767.5 Q443 796 451 836 L412 836 Z " />
<glyph glyph-name="uni1EAF" unicode="&#x1eaf;" horiz-adv-x="408" d="M302 -2 L301 143 L158 143 L104 -2 L13 -2 L285 702 L370 702 L393 -2 L302 -2 Z M306 2 L389 2 L366 698 L287 698 L19 2 L102 2 L156 147 L305 147 L306 2 Z M191 232 L300 232 L296 520 L191 232 Z M185 228 L300 542 L304 228 L185 228 Z M455 840 Q448 797 412.5 766 Q377 735 334 735 Q296 735 271.5 759.5 Q247 784 247 821 Q247 826 249 840 L296 840 Q295 836 295 828 Q295 808 308.5 795 Q322 782 342 782 Q366 782 385 799 Q404 816 408 840 L455 840 Z M412 836 Q407 811 386.5 794.5 Q366 778 342 778 Q320 778 305.5 792 Q291 806 291 827 L292 836 L253 836 Q252 831 252 820 Q252 785 275 762 Q298 739 334 739 Q374 739 408.5 767.5 Q443 796 451 836 L412 836 Z M417 969 L335 868 L380 868 L497 969 L417 969 Z M415 973 L507 973 L382 864 L327 864 L415 973 Z " />
<glyph glyph-name="uni1EB7" unicode="&#x1eb7;" horiz-adv-x="408" d="M302 -2 L301 143 L158 143 L104 -2 L13 -2 L285 702 L370 702 L393 -2 L302 -2 Z M306 2 L389 2 L366 698 L287 698 L19 2 L102 2 L156 147 L305 147 L306 2 Z M191 232 L300 232 L296 520 L191 232 Z M185 228 L300 542 L304 228 L185 228 Z M455 840 Q448 797 412.5 766 Q377 735 334 735 Q296 735 271.5 759.5 Q247 784 247 821 Q247 826 249 840 L296 840 Q295 836 295 828 Q295 808 308.5 795 Q322 782 342 782 Q366 782 385 799 Q404 816 408 840 L455 840 Z M412 836 Q407 811 386.5 794.5 Q366 778 342 778 Q320 778 305.5 792 Q291 806 291 827 L292 836 L253 836 Q252 831 252 820 Q252 785 275 762 Q298 739 334 739 Q374 739 408.5 767.5 Q443 796 451 836 L412 836 Z M197 -42 Q177 -42 161 -57 Q145 -72 145 -93 Q145 -108 155 -118 Q165 -128 181 -128 Q201 -128 217 -113 Q233 -98 233 -77 Q233 -62 223 -52 Q213 -42 197 -42 Z M197 -38 Q214 -38 225.5 -49.5 Q237 -61 237 -78 Q237 -99 219.5 -115.5 Q202 -132 181 -132 Q164 -132 152.5 -120.5 Q141 -109 141 -92 Q141 -71 158.5 -54.5 Q176 -38 197 -38 Z " />
<glyph glyph-name="uni1EB1" unicode="&#x1eb1;" horiz-adv-x="408" d="M104 -2 L13 -2 L284 702 L369 702 L393 -2 L302 -2 L300 143 L157 143 L104 -2 Z M102 2 L155 147 L304 147 L306 2 L389 2 L365 698 L286 698 L19 2 L102 2 Z M299 232 L295 520 L190 232 L299 232 Z M303 228 L184 228 L299 542 L303 228 Z M295 840 Q294 836 294 828 Q294 808 307.5 795 Q321 782 341 782 Q365 782 384 799 Q403 816 407 840 L454 840 Q447 797 411.5 766 Q376 735 333 735 Q295 735 270.5 759.5 Q246 784 246 821 Q246 826 248 840 L295 840 Z M252 836 Q251 831 251 820 Q251 785 274 762 Q297 739 333 739 Q373 739 407.5 767.5 Q442 796 450 836 L411 836 Q406 811 385.5 794.5 Q365 778 341 778 Q319 778 304.5 792 Q290 806 290 827 L291 836 L252 836 Z M332 969 L251 969 L333 868 L379 868 L332 969 Z M334 973 L385 864 L331 864 L243 973 L334 973 Z " />
<glyph glyph-name="uni1EB3" unicode="&#x1eb3;" horiz-adv-x="408" d="M104 -2 L13 -2 L284 702 L369 702 L393 -2 L302 -2 L300 143 L157 143 L104 -2 Z M102 2 L155 147 L304 147 L306 2 L389 2 L365 698 L286 698 L19 2 L102 2 Z M299 232 L295 520 L190 232 L299 232 Z M303 228 L184 228 L299 542 L303 228 Z M295 840 Q294 836 294 828 Q294 808 307.5 795 Q321 782 341 782 Q365 782 384 799 Q403 816 407 840 L454 840 Q447 797 411.5 766 Q376 735 333 735 Q295 735 270.5 759.5 Q246 784 246 821 Q246 826 248 840 L295 840 Z M252 836 Q251 831 251 820 Q251 785 274 762 Q297 739 333 739 Q373 739 407.5 767.5 Q442 796 450 836 L411 836 Q406 811 385.5 794.5 Q365 778 341 778 Q319 778 304.5 792 Q290 806 290 827 L291 836 L252 836 Z M295 969 Q332 969 357 944.5 Q382 920 382 883 Q382 878 380 864 L333 864 Q334 868 334 875 Q334 896 320.5 909.5 Q307 923 286 922 L253 961 Q270 969 295 969 Z M295 965 Q276 965 259 959 L288 926 Q312 926 326 909 Q340 892 337 868 L376 868 Q377 873 377 884 Q377 919 354 942 Q331 965 295 965 Z " />
<glyph glyph-name="uni1EB5" unicode="&#x1eb5;" horiz-adv-x="408" d="M104 -2 L13 -2 L284 702 L369 702 L393 -2 L302 -2 L300 143 L157 143 L104 -2 Z M102 2 L155 147 L304 147 L306 2 L389 2 L365 698 L286 698 L19 2 L102 2 Z M299 232 L295 520 L190 232 L299 232 Z M303 228 L184 228 L299 542 L303 228 Z M295 840 Q294 836 294 828 Q294 808 307.5 795 Q321 782 341 782 Q365 782 384 799 Q403 816 407 840 L454 840 Q447 797 411.5 766 Q376 735 333 735 Q295 735 270.5 759.5 Q246 784 246 821 Q246 826 248 840 L295 840 Z M252 836 Q251 831 251 820 Q251 785 274 762 Q297 739 333 739 Q373 739 407.5 767.5 Q442 796 450 836 L411 836 Q406 811 385.5 794.5 Q365 778 341 778 Q319 778 304.5 792 Q290 806 290 827 L291 836 L252 836 Z M260 868 Q290 898 313 898 Q331 898 351 885 Q376 867 403 867 Q443 867 489 913 L463 936 Q438 911 417 907 Q397 904 377 918 Q346 938 320 938 Q280 938 234 892 L260 868 Z M228 892 Q278 942 321 942 Q348 942 379 922 Q399 908 417 911 Q438 916 463 942 L495 913 Q448 863 402 863 Q375 863 349 881 Q329 894 313 894 Q303 894 289 886 Q275 878 260 862 L228 892 Z " />
<glyph glyph-name="uni01CE" unicode="&#x1ce;" horiz-adv-x="408" d="M302 -2 L301 143 L158 143 L104 -2 L13 -2 L285 702 L370 702 L393 -2 L302 -2 Z M306 2 L389 2 L366 698 L287 698 L19 2 L102 2 L156 147 L305 147 L306 2 Z M191 232 L300 232 L296 520 L191 232 Z M185 228 L300 542 L304 228 L185 228 Z M466 842 L377 735 L290 735 L238 842 L293 842 L342 786 L411 842 L466 842 Z M458 838 L413 838 L342 780 L291 838 L244 838 L292 739 L375 739 L458 838 Z " />
<glyph glyph-name="acircumflex" unicode="&#xe2;" horiz-adv-x="408" d="M302 -2 L301 143 L158 143 L104 -2 L13 -2 L285 702 L370 702 L393 -2 L302 -2 Z M306 2 L389 2 L366 698 L287 698 L19 2 L102 2 L156 147 L305 147 L306 2 Z M191 232 L300 232 L296 520 L191 232 Z M185 228 L300 542 L304 228 L185 228 Z M447 735 L393 735 L344 791 L275 735 L219 735 L308 842 L395 842 L447 735 Z M441 739 L393 838 L310 838 L227 739 L273 739 L344 797 L395 739 L441 739 Z " />
<glyph glyph-name="uni1EA5" unicode="&#x1ea5;" horiz-adv-x="462" d="M302 -2 L301 143 L158 143 L104 -2 L13 -2 L285 702 L370 702 L393 -2 L302 -2 Z M306 2 L389 2 L366 698 L287 698 L19 2 L102 2 L156 147 L305 147 L306 2 Z M191 232 L300 232 L296 520 L191 232 Z M185 228 L300 542 L304 228 L185 228 Z M447 735 L393 735 L344 791 L275 735 L219 735 L308 842 L395 842 L447 735 Z M441 739 L393 838 L310 838 L227 739 L273 739 L344 797 L395 739 L441 739 Z M526 940 L444 839 L489 839 L606 940 L526 940 Z M524 944 L616 944 L491 835 L436 835 L524 944 Z " />
<glyph glyph-name="uni1EAD" unicode="&#x1ead;" horiz-adv-x="408" d="M302 -2 L301 143 L158 143 L104 -2 L13 -2 L285 702 L370 702 L393 -2 L302 -2 Z M306 2 L389 2 L366 698 L287 698 L19 2 L102 2 L156 147 L305 147 L306 2 Z M191 232 L300 232 L296 520 L191 232 Z M185 228 L300 542 L304 228 L185 228 Z M197 -42 Q177 -42 161 -57 Q145 -72 145 -93 Q145 -108 155 -118 Q165 -128 181 -128 Q201 -128 217 -113 Q233 -98 233 -77 Q233 -62 223 -52 Q213 -42 197 -42 Z M197 -38 Q214 -38 225.5 -49.5 Q237 -61 237 -78 Q237 -99 219.5 -115.5 Q202 -132 181 -132 Q164 -132 152.5 -120.5 Q141 -109 141 -92 Q141 -71 158.5 -54.5 Q176 -38 197 -38 Z M447 735 L393 735 L344 791 L275 735 L219 735 L308 842 L395 842 L447 735 Z M441 739 L393 838 L310 838 L227 739 L273 739 L344 797 L395 739 L441 739 Z " />
<glyph glyph-name="uni1EA7" unicode="&#x1ea7;" horiz-adv-x="408" d="M302 -2 L301 143 L158 143 L104 -2 L13 -2 L285 702 L370 702 L393 -2 L302 -2 Z M306 2 L389 2 L366 698 L287 698 L19 2 L102 2 L156 147 L305 147 L306 2 Z M191 232 L300 232 L296 520 L191 232 Z M185 228 L300 542 L304 228 L185 228 Z M447 735 L393 735 L344 791 L275 735 L219 735 L308 842 L395 842 L447 735 Z M441 739 L393 838 L310 838 L227 739 L273 739 L344 797 L395 739 L441 739 Z M440 940 L359 940 L441 839 L487 839 L440 940 Z M442 944 L493 835 L439 835 L351 944 L442 944 Z " />
<glyph glyph-name="uni1EA9" unicode="&#x1ea9;" horiz-adv-x="408" d="M302 -2 L301 143 L158 143 L104 -2 L13 -2 L285 702 L370 702 L393 -2 L302 -2 Z M306 2 L389 2 L366 698 L287 698 L19 2 L102 2 L156 147 L305 147 L306 2 Z M191 232 L300 232 L296 520 L191 232 Z M185 228 L300 542 L304 228 L185 228 Z M447 735 L393 735 L344 791 L275 735 L219 735 L308 842 L395 842 L447 735 Z M441 739 L393 838 L310 838 L227 739 L273 739 L344 797 L395 739 L441 739 Z M399 940 Q437 940 462 915 Q487 890 487 853 Q487 847 485 835 L438 835 Q439 839 439 846 Q439 867 425.5 880.5 Q412 894 391 893 L358 932 Q377 940 399 940 Z M399 936 Q382 936 364 930 L393 897 Q417 897 431 880 Q445 863 442 839 L481 839 Q482 844 482 854 Q482 889 458.5 912.5 Q435 936 399 936 Z " />
<glyph glyph-name="uni1EAB" unicode="&#x1eab;" horiz-adv-x="408" d="M302 -2 L301 143 L158 143 L104 -2 L13 -2 L285 702 L370 702 L393 -2 L302 -2 Z M306 2 L389 2 L366 698 L287 698 L19 2 L102 2 L156 147 L305 147 L306 2 Z M191 232 L300 232 L296 520 L191 232 Z M185 228 L300 542 L304 228 L185 228 Z M257 868 Q287 898 310 898 Q328 898 348 885 Q374 867 400 867 Q440 867 486 913 L460 936 Q435 911 414 907 Q394 904 374 918 Q343 938 317 938 Q277 938 231 892 L257 868 Z M225 892 Q275 942 318 942 Q345 942 376 922 Q396 908 414 911 Q435 916 460 942 L492 913 Q445 863 399 863 Q372 863 346 881 Q326 894 310 894 Q300 894 286 886 Q272 878 257 862 L225 892 Z M447 735 L393 735 L344 791 L275 735 L219 735 L308 842 L395 842 L447 735 Z M441 739 L393 838 L310 838 L227 739 L273 739 L344 797 L395 739 L441 739 Z " />
<glyph glyph-name="adieresis" unicode="&#xe4;" horiz-adv-x="408" d="M302 -2 L301 143 L158 143 L104 -2 L13 -2 L285 702 L370 702 L393 -2 L302 -2 Z M306 2 L389 2 L366 698 L287 698 L19 2 L102 2 L156 147 L305 147 L306 2 Z M191 232 L300 232 L296 520 L191 232 Z M185 228 L300 542 L304 228 L185 228 Z M313 782 Q316 800 306 812.5 Q296 825 278 825 Q260 825 245 812.5 Q230 800 227 782 Q226 779 226 773 Q226 759 236 749 Q246 739 262 739 Q280 739 294.5 751.5 Q309 764 313 782 Z M317 782 Q313 762 297 748.5 Q281 735 262 735 Q245 735 233.5 746 Q222 757 222 773 Q222 779 223 782 Q226 801 242 815 Q258 829 278 829 Q297 829 308.5 815.5 Q320 802 317 782 Z M457 782 Q460 800 450 812.5 Q440 825 422 825 Q404 825 389 812.5 Q374 800 371 782 Q370 779 370 773 Q370 759 380 749 Q390 739 406 739 Q424 739 438.5 751.5 Q453 764 457 782 Z M461 782 Q457 762 441 748.5 Q425 735 406 735 Q389 735 377.5 746 Q366 757 366 773 Q366 779 367 782 Q370 801 386 815 Q402 829 422 829 Q441 829 452.5 815.5 Q464 802 461 782 Z " />
<glyph glyph-name="uni01DF" unicode="&#x1df;" horiz-adv-x="408" d="M302 -2 L301 143 L158 143 L104 -2 L13 -2 L285 702 L370 702 L393 -2 L302 -2 Z M306 2 L389 2 L366 698 L287 698 L19 2 L102 2 L156 147 L305 147 L306 2 Z M191 232 L300 232 L296 520 L191 232 Z M185 228 L300 542 L304 228 L185 228 Z M313 782 Q316 800 306 812.5 Q296 825 278 825 Q260 825 245 812.5 Q230 800 227 782 Q226 779 226 773 Q226 759 236 749 Q246 739 262 739 Q280 739 294.5 751.5 Q309 764 313 782 Z M317 782 Q313 762 297 748.5 Q281 735 262 735 Q245 735 233.5 746 Q222 757 222 773 Q222 779 223 782 Q226 801 242 815 Q258 829 278 829 Q297 829 308.5 815.5 Q320 802 317 782 Z M457 782 Q460 800 450 812.5 Q440 825 422 825 Q404 825 389 812.5 Q374 800 371 782 Q370 779 370 773 Q370 759 380 749 Q390 739 406 739 Q424 739 438.5 751.5 Q453 764 457 782 Z M461 782 Q457 762 441 748.5 Q425 735 406 735 Q389 735 377.5 746 Q366 757 366 773 Q366 779 367 782 Q370 801 386 815 Q402 829 422 829 Q441 829 452.5 815.5 Q464 802 461 782 Z M507 867 L514 908 L214 908 L207 867 L507 867 Z M511 863 L203 863 L210 912 L518 912 L511 863 Z " />
<glyph glyph-name="uni1EA1" unicode="&#x1ea1;" horiz-adv-x="408" d="M302 -2 L301 143 L158 143 L104 -2 L13 -2 L285 702 L370 702 L393 -2 L302 -2 Z M306 2 L389 2 L366 698 L287 698 L19 2 L102 2 L156 147 L305 147 L306 2 Z M191 232 L300 232 L296 520 L191 232 Z M185 228 L300 542 L304 228 L185 228 Z M197 -42 Q177 -42 161 -57 Q145 -72 145 -93 Q145 -108 155 -118 Q165 -128 181 -128 Q201 -128 217 -113 Q233 -98 233 -77 Q233 -62 223 -52 Q213 -42 197 -42 Z M197 -38 Q214 -38 225.5 -49.5 Q237 -61 237 -78 Q237 -99 219.5 -115.5 Q202 -132 181 -132 Q164 -132 152.5 -120.5 Q141 -109 141 -92 Q141 -71 158.5 -54.5 Q176 -38 197 -38 Z " />
<glyph glyph-name="agrave" unicode="&#xe0;" horiz-adv-x="408" d="M302 -2 L301 143 L158 143 L104 -2 L13 -2 L285 702 L370 702 L393 -2 L302 -2 Z M306 2 L389 2 L366 698 L287 698 L19 2 L102 2 L156 147 L305 147 L306 2 Z M191 232 L300 232 L296 520 L191 232 Z M185 228 L300 542 L304 228 L185 228 Z M309 840 L228 840 L310 739 L356 739 L309 840 Z M311 844 L362 735 L308 735 L220 844 L311 844 Z " />
<glyph glyph-name="uni1EA3" unicode="&#x1ea3;" horiz-adv-x="408" d="M302 -2 L301 143 L158 143 L104 -2 L13 -2 L285 702 L370 702 L393 -2 L302 -2 Z M306 2 L389 2 L366 698 L287 698 L19 2 L102 2 L156 147 L305 147 L306 2 Z M191 232 L300 232 L296 520 L191 232 Z M185 228 L300 542 L304 228 L185 228 Z M273 840 Q310 840 335 815.5 Q360 791 360 754 Q360 749 358 735 L311 735 Q312 739 312 747 Q312 767 298.5 780.5 Q285 794 264 793 L232 832 Q248 840 273 840 Z M273 836 Q253 836 238 830 L266 797 Q288 796 302 782.5 Q316 769 316 748 L315 739 L354 739 Q355 744 355 755 Q355 790 332 813 Q309 836 273 836 Z " />
<glyph glyph-name="amacron" unicode="&#x101;" horiz-adv-x="408" d="M302 -2 L301 143 L158 143 L104 -2 L13 -2 L285 702 L370 702 L393 -2 L302 -2 Z M306 2 L389 2 L366 698 L287 698 L19 2 L102 2 L156 147 L305 147 L306 2 Z M191 232 L300 232 L296 520 L191 232 Z M185 228 L300 542 L304 228 L185 228 Z M483 739 L491 780 L192 780 L184 739 L483 739 Z M487 735 L180 735 L188 784 L495 784 L487 735 Z " />
<glyph glyph-name="aogonek" unicode="&#x105;" horiz-adv-x="408" d="M327 -59 Q323 -79 361 -79 L372 -79 L364 -128 L343 -128 Q304 -128 283.5 -116 Q263 -104 263 -82 Q263 -38 345 2 L346 -2 L302 -2 L301 143 L158 143 L104 -2 L13 -2 L285 702 L370 702 L393 -1 Q368 -9 348.5 -26.5 Q329 -44 327 -59 Z M323 -59 Q325 -43 344.5 -25 Q364 -7 389 1 L366 698 L287 698 L19 2 L102 2 L156 147 L305 147 L306 2 L346 2 L347 -2 Q267 -41 267 -82 Q267 -103 287 -113.5 Q307 -124 343 -124 L360 -124 L368 -83 L361 -83 Q319 -83 323 -59 Z M191 232 L300 232 L296 520 L191 232 Z M185 228 L300 542 L304 228 L185 228 Z " />
<glyph glyph-name="aring" unicode="&#xe5;" horiz-adv-x="408" d="M302 -2 L301 143 L158 143 L104 -2 L13 -2 L285 702 L370 702 L393 -2 L302 -2 Z M306 2 L389 2 L366 698 L287 698 L19 2 L102 2 L156 147 L305 147 L306 2 Z M191 232 L300 232 L296 520 L191 232 Z M185 228 L300 542 L304 228 L185 228 Z M334 742 Q363 742 385.5 764 Q408 786 408 814 Q408 836 393.5 850.5 Q379 865 357 865 Q329 865 306 842 Q283 819 283 791 Q283 770 297.5 756 Q312 742 334 742 Z M334 738 Q310 738 294.5 753 Q279 768 279 791 Q279 822 303 845.5 Q327 869 357 869 Q381 869 396.5 853 Q412 837 412 814 Q412 783 388.5 760.5 Q365 738 334 738 Z M349 826 Q357 826 362.5 820.5 Q368 815 368 807 Q368 796 360 788.5 Q352 781 342 781 Q334 781 328.5 786.5 Q323 792 323 800 Q323 810 331 818 Q339 826 349 826 Z M349 822 Q341 822 334.5 816.5 Q328 811 327 803 L327 800 Q327 793 331 789 Q335 785 342 785 Q350 785 356.5 790.5 Q363 796 364 803 L364 807 Q364 814 360 818 Q356 822 349 822 Z " />
<glyph glyph-name="atilde" unicode="&#xe3;" horiz-adv-x="408" d="M302 -2 L301 143 L158 143 L104 -2 L13 -2 L285 702 L370 702 L393 -2 L302 -2 Z M306 2 L389 2 L366 698 L287 698 L19 2 L102 2 L156 147 L305 147 L306 2 Z M191 232 L300 232 L296 520 L191 232 Z M185 228 L300 542 L304 228 L185 228 Z M234 738 Q264 768 287 768 Q305 768 325 755 Q351 737 377 737 Q417 737 463 783 L437 806 Q412 781 391 777 Q373 774 351 788 Q320 808 295 808 Q254 808 208 762 L234 738 Z M202 762 Q252 812 295 812 Q322 812 353 792 Q374 778 391 781 Q412 786 437 812 L469 783 Q422 733 376 733 Q349 733 323 751 Q303 764 287 764 Q277 764 263 756 Q249 748 234 732 L202 762 Z " />
<glyph glyph-name="uni0250" unicode="&#x250;" horiz-adv-x="408" d="M426 702 L517 702 L246 -2 L161 -2 L137 702 L228 702 L231 557 L374 557 L426 702 Z M428 698 L376 553 L227 553 L224 698 L141 698 L165 2 L244 2 L511 698 L428 698 Z M232 468 L236 180 L341 468 L232 468 Z M228 472 L347 472 L232 158 L228 472 Z " />
<glyph glyph-name="ae" unicode="&#xe6;" horiz-adv-x="568" d="M647 613 L457 613 L420 403 L552 403 L537 314 L405 314 L364 87 L554 87 L539 -2 L260 -2 L282 124 L159 124 L105 -2 L13 -2 L316 702 L662 702 L647 613 Z M643 617 L658 698 L318 698 L19 2 L103 2 L157 128 L286 128 L264 2 L535 2 L550 83 L360 83 L401 318 L533 318 L548 399 L416 399 L453 617 L643 617 Z M198 213 L297 213 L365 599 L198 213 Z M192 209 L375 631 L301 209 L192 209 Z " />
<glyph glyph-name="b" unicode="b" horiz-adv-x="386" d="M199 2 Q264 2 315 39 Q369 81 383 161 L395 227 Q399 255 399 265 Q399 325 355 357 Q382 378 398.5 405.5 Q415 433 422 471 L434 538 Q437 559 437 578 Q437 632 409 661 Q375 697 306 697 L165 697 L42 2 L199 2 Z M161 701 L306 701 Q377 701 411 663 Q442 632 442 578 Q442 566 438 538 L426 471 Q413 397 361 357 Q403 324 403 265 Q403 246 399 227 L387 161 Q373 78 317 35 Q267 -2 199 -2 L38 -2 L161 701 Z M253 309 Q317 309 317 253 Q317 241 314 227 L302 161 Q294 117 272 98 Q249 83 214 83 L138 83 L177 309 L253 309 Z M142 87 L214 87 Q251 87 270 102 Q291 119 298 161 L310 227 Q313 242 313 253 Q313 305 253 305 L181 305 L142 87 Z M231 616 L291 616 Q324 616 339.5 603 Q355 590 355 562 Q355 556 353 538 L341 471 Q334 428 312.5 409 Q291 390 252 390 L192 390 L231 616 Z M252 394 Q289 394 309 412 Q329 430 337 471 L349 538 Q351 547 351 563 Q351 589 337 600.5 Q323 612 291 612 L235 612 L196 394 L252 394 Z " />
<glyph glyph-name="uni1E05" unicode="&#x1e05;" horiz-adv-x="386" d="M199 2 Q264 2 315 39 Q369 81 383 161 L395 227 Q399 255 399 265 Q399 325 355 357 Q382 378 398.5 405.5 Q415 433 422 471 L434 538 Q437 559 437 578 Q437 632 409 661 Q375 697 306 697 L165 697 L42 2 L199 2 Z M161 701 L306 701 Q377 701 411 663 Q442 632 442 578 Q442 566 438 538 L426 471 Q413 397 361 357 Q403 324 403 265 Q403 246 399 227 L387 161 Q373 78 317 35 Q267 -2 199 -2 L38 -2 L161 701 Z M253 309 Q317 309 317 253 Q317 241 314 227 L302 161 Q294 117 272 98 Q249 83 214 83 L138 83 L177 309 L253 309 Z M142 87 L214 87 Q251 87 270 102 Q291 119 298 161 L310 227 Q313 242 313 253 Q313 305 253 305 L181 305 L142 87 Z M231 616 L291 616 Q324 616 339.5 603 Q355 590 355 562 Q355 556 353 538 L341 471 Q334 428 312.5 409 Q291 390 252 390 L192 390 L231 616 Z M252 394 Q289 394 309 412 Q329 430 337 471 L349 538 Q351 547 351 563 Q351 589 337 600.5 Q323 612 291 612 L235 612 L196 394 L252 394 Z M192 -42 Q172 -42 156 -57 Q140 -72 140 -93 Q140 -108 150 -118 Q160 -128 176 -128 Q196 -128 212 -113 Q228 -98 228 -77 Q228 -62 218 -52 Q208 -42 192 -42 Z M192 -38 Q209 -38 220.5 -49.5 Q232 -61 232 -78 Q232 -99 214.5 -115.5 Q197 -132 176 -132 Q159 -132 147.5 -120.5 Q136 -109 136 -92 Q136 -71 153.5 -54.5 Q171 -38 192 -38 Z " />
<glyph glyph-name="uni0253" unicode="&#x253;" horiz-adv-x="431" d="M406 357 Q448 324 448 265 Q448 246 444 227 L432 161 Q418 78 362 35 Q312 -2 244 -2 L83 -2 L199 654 L159 654 Q151 654 144.5 648 Q138 642 137 634 L90 634 Q94 662 116 681.5 Q138 701 166 701 L351 701 Q422 701 456 663 Q487 632 487 578 Q487 566 483 538 L471 471 Q458 397 406 357 Z M400 357 Q427 378 443.5 405.5 Q460 433 467 471 L479 538 Q482 559 482 578 Q482 632 454 661 Q420 697 351 697 L166 697 Q141 697 120 680 Q99 663 94 638 L133 638 Q135 646 143 652 Q151 658 159 658 L203 658 L87 2 L244 2 Q309 2 360 39 Q414 81 428 161 L440 227 Q444 255 444 265 Q444 325 400 357 Z M241 394 L297 394 Q334 394 354 412 Q374 430 382 471 L394 538 Q396 547 396 563 Q396 589 382 600.5 Q368 612 336 612 L280 612 L241 394 Z M336 616 Q369 616 384.5 603 Q400 590 400 562 Q400 556 398 538 L386 471 Q379 428 357.5 409 Q336 390 297 390 L237 390 L276 616 L336 616 Z M355 227 Q358 242 358 253 Q358 305 298 305 L226 305 L187 87 L259 87 Q296 87 315 102 Q336 119 343 161 L355 227 Z M347 161 Q339 117 317 98 Q295 83 259 83 L183 83 L222 309 L298 309 Q362 309 362 253 Q362 241 359 227 L347 161 Z " />
<glyph glyph-name="uni0180" unicode="&#x180;" horiz-adv-x="406" d="M381 357 Q422 324 422 263 Q422 247 419 227 L407 161 Q392 79 336 35 Q287 -2 218 -2 L103 -2 L58 -2 L85 152 L25 152 L40 241 L100 241 L181 702 L326 702 Q396 702 431 664 Q462 633 462 579 Q462 558 458 539 L446 471 Q433 397 381 357 Z M375 357 Q402 378 418.5 405.5 Q435 433 442 471 L454 539 Q458 558 458 579 Q458 630 429 662 Q393 698 326 698 L185 698 L104 237 L44 237 L29 156 L89 156 L62 2 L103 2 L218 2 Q285 2 334 39 Q388 79 403 161 L415 227 Q418 247 418 263 Q418 325 375 357 Z M216 394 L272 394 Q310 394 330 412.5 Q350 431 357 471 L369 539 Q372 554 372 565 Q372 590 357.5 601.5 Q343 613 311 613 L255 613 L216 394 Z M311 617 Q345 617 360.5 604.5 Q376 592 376 565 Q376 553 373 539 L361 471 Q354 429 332.5 409.5 Q311 390 272 390 L212 390 L251 617 L311 617 Z M330 227 Q332 245 332 252 Q332 280 317.5 292.5 Q303 305 273 305 L201 305 L189 241 L247 241 L232 152 L174 152 L162 87 L233 87 Q271 87 289 102 Q311 119 318 161 L330 227 Z M322 161 Q314 117 291 98 Q270 83 233 83 L158 83 L170 156 L228 156 L243 237 L185 237 L197 309 L273 309 Q305 309 320.5 295 Q336 281 336 251 Q336 245 334 227 L322 161 Z " />
<glyph glyph-name="c" unicode="c" horiz-adv-x="381" d="M190 -7 Q257 -7 307 32 Q362 75 377 156 L393 248 L312 248 L296 156 Q289 114 266.5 94 Q244 74 205 74 Q142 74 142 129 Q142 141 145 156 L213 545 Q220 588 242 607.5 Q264 627 302 627 Q367 627 367 571 Q367 559 364 545 L353 483 L434 483 L445 545 Q449 564 449 585 Q449 636 420 670 Q384 708 317 708 Q251 708 201 669 Q147 625 132 545 L64 156 Q60 136 60 114 Q60 62 88 31 Q124 -7 190 -7 Z M190 -11 Q122 -11 86 29 Q56 60 56 114 Q56 136 60 156 L128 545 Q143 627 199 673 Q248 712 317 712 Q386 712 422 672 Q453 638 453 585 Q453 564 449 545 L438 479 L349 479 L360 545 Q363 559 363 570 Q363 597 348 610 Q333 623 302 623 Q265 623 245 604 Q225 585 217 545 L149 156 Q146 141 146 130 Q146 78 205 78 Q242 78 263 97 Q284 116 292 156 L308 252 L397 252 L381 156 Q366 73 309 28 Q260 -11 190 -11 Z " />
<glyph glyph-name="cacute" unicode="&#x107;" horiz-adv-x="381" d="M190 -7 Q257 -7 307 32 Q362 75 377 156 L393 248 L312 248 L296 156 Q289 114 266.5 94 Q244 74 205 74 Q142 74 142 129 Q142 141 145 156 L213 545 Q220 588 242 607.5 Q264 627 302 627 Q367 627 367 571 Q367 559 364 545 L353 483 L434 483 L445 545 Q449 564 449 585 Q449 636 420 670 Q384 708 317 708 Q251 708 201 669 Q147 625 132 545 L64 156 Q60 136 60 114 Q60 62 88 31 Q124 -7 190 -7 Z M190 -11 Q122 -11 86 29 Q56 60 56 114 Q56 136 60 156 L128 545 Q143 627 199 673 Q248 712 317 712 Q386 712 422 672 Q453 638 453 585 Q453 564 449 545 L438 479 L349 479 L360 545 Q363 559 363 570 Q363 597 348 610 Q333 623 302 623 Q265 623 245 604 Q225 585 217 545 L149 156 Q146 141 146 130 Q146 78 205 78 Q242 78 263 97 Q284 116 292 156 L308 252 L397 252 L381 156 Q366 73 309 28 Q260 -11 190 -11 Z M382 840 L300 739 L345 739 L462 840 L382 840 Z M380 844 L472 844 L347 735 L292 735 L380 844 Z " />
<glyph glyph-name="ccaron" unicode="&#x10d;" horiz-adv-x="381" d="M190 -7 Q257 -7 307 32 Q362 75 377 156 L393 248 L312 248 L296 156 Q289 114 266.5 94 Q244 74 205 74 Q142 74 142 129 Q142 141 145 156 L213 545 Q220 588 242 607.5 Q264 627 302 627 Q367 627 367 571 Q367 559 364 545 L353 483 L434 483 L445 545 Q449 564 449 585 Q449 636 420 670 Q384 708 317 708 Q251 708 201 669 Q147 625 132 545 L64 156 Q60 136 60 114 Q60 62 88 31 Q124 -7 190 -7 Z M190 -11 Q122 -11 86 29 Q56 60 56 114 Q56 136 60 156 L128 545 Q143 627 199 673 Q248 712 317 712 Q386 712 422 672 Q453 638 453 585 Q453 564 449 545 L438 479 L349 479 L360 545 Q363 559 363 570 Q363 597 348 610 Q333 623 302 623 Q265 623 245 604 Q225 585 217 545 L149 156 Q146 141 146 130 Q146 78 205 78 Q242 78 263 97 Q284 116 292 156 L308 252 L397 252 L381 156 Q366 73 309 28 Q260 -11 190 -11 Z M454 842 L365 735 L278 735 L226 842 L281 842 L330 786 L399 842 L454 842 Z M446 838 L401 838 L330 780 L279 838 L232 838 L280 739 L363 739 L446 838 Z " />
<glyph glyph-name="ccedilla" unicode="&#xe7;" horiz-adv-x="381" d="M349 478 L360 544 Q363 559 363 570 Q363 622 303 622 Q266 622 245.5 603.5 Q225 585 217 544 L149 157 Q146 144 146 132 Q146 105 161 92 Q176 79 207 79 Q244 79 264 98 Q284 117 292 157 L308 253 L397 253 L381 157 Q366 76 309 29 Q270 -1 216 -9 L219 -11 Q221 -11 221 -14 Q232 -24 238.5 -33.5 Q245 -43 245 -58 Q245 -89 221.5 -113 Q198 -137 168 -137 Q144 -137 128 -120.5 Q112 -104 112 -81 Q112 -73 113 -69 L160 -69 L160 -73 Q160 -80 164.5 -85 Q169 -90 176 -90 Q184 -90 190 -84 Q196 -78 197 -71 L198 -66 Q198 -62 195 -58.5 Q192 -55 187 -51 Q186 -51 185.5 -50 Q185 -49 185 -49 Q165 -32 168 -9 Q116 -3 85 30 Q56 62 56 115 Q56 137 60 157 L128 544 Q142 627 199 672 Q248 711 318 711 Q351 711 378.5 700.5 Q406 690 422 671 Q453 640 453 584 Q453 572 449 544 L438 478 L349 478 Z M445 544 Q448 565 448 583 Q448 637 419 669 Q403 687 377 697 Q351 707 318 707 Q251 707 201 668 Q145 625 132 544 L64 157 Q60 137 60 116 Q60 66 88 32 Q121 -1 172 -5 Q169 -31 187 -46 L189 -47 Q197 -54 199.5 -59 Q202 -64 201 -71 Q200 -81 192.5 -87.5 Q185 -94 176 -94 Q167 -94 161.5 -88 Q156 -82 156 -73 L117 -73 L116 -82 Q116 -104 131 -118.5 Q146 -133 168 -133 Q197 -133 219 -110.5 Q241 -88 241 -58 Q241 -42 235 -33.5 Q229 -25 217 -15 L218 -15 Q215 -14 213 -11 Q211 -8 212 -5 Q269 1 307 33 Q362 76 377 157 L393 249 L312 249 L296 157 Q289 114 267 94.5 Q245 75 207 75 Q142 75 142 131 Q142 144 145 157 L213 544 Q220 586 242 606 Q264 626 303 626 Q367 626 367 570 Q367 558 364 544 L353 482 L434 482 L445 544 Z " />
<glyph glyph-name="cdotaccent" unicode="&#x10b;" horiz-adv-x="381" d="M190 -7 Q257 -7 307 32 Q362 75 377 156 L393 248 L312 248 L296 156 Q289 114 266.5 94 Q244 74 205 74 Q142 74 142 129 Q142 141 145 156 L213 545 Q220 588 242 607.5 Q264 627 302 627 Q367 627 367 571 Q367 559 364 545 L353 483 L434 483 L445 545 Q449 564 449 585 Q449 636 420 670 Q384 708 317 708 Q251 708 201 669 Q147 625 132 545 L64 156 Q60 136 60 114 Q60 62 88 31 Q124 -7 190 -7 Z M190 -11 Q122 -11 86 29 Q56 60 56 114 Q56 136 60 156 L128 545 Q143 627 199 673 Q248 712 317 712 Q386 712 422 672 Q453 638 453 585 Q453 564 449 545 L438 479 L349 479 L360 545 Q363 559 363 570 Q363 597 348 610 Q333 623 302 623 Q265 623 245 604 Q225 585 217 545 L149 156 Q146 141 146 130 Q146 78 205 78 Q242 78 263 97 Q284 116 292 156 L308 252 L397 252 L381 156 Q366 73 309 28 Q260 -11 190 -11 Z M373 782 Q376 800 366 812.5 Q356 825 338 825 Q320 825 305 812.5 Q290 800 287 782 Q286 779 286 773 Q286 759 296 749 Q306 739 322 739 Q340 739 354.5 751.5 Q369 764 373 782 Z M377 782 Q373 762 357 748.5 Q341 735 322 735 Q305 735 293.5 746 Q282 757 282 773 Q282 779 283 782 Q286 801 302 815 Q318 829 338 829 Q357 829 368.5 815.5 Q380 802 377 782 Z " />
<glyph glyph-name="uni0188" unicode="&#x188;" horiz-adv-x="381" d="M431 711 Q437 739 460 758 Q483 777 510 776 L503 729 L501 729 Q493 729 486 723.5 Q479 718 478 711 L438 479 L349 479 L360 545 Q363 559 363 570 Q363 597 348 610 Q333 623 302 623 Q265 623 245 604 Q225 585 217 545 L149 156 Q146 141 146 130 Q146 78 205 78 Q242 78 263 97 Q284 116 292 156 L308 252 L397 252 L381 156 Q366 73 309 28 Q260 -11 190 -11 Q122 -11 86 29 Q56 60 56 114 Q56 136 60 156 L128 545 Q143 627 199 673 Q248 712 317 712 Q386 712 422 672 Q427 667 427 667 L423 666 L431 711 Z M427 666 L423 665 Q421 669 420 670 Q384 708 317 708 Q251 708 201 669 Q147 625 132 545 L64 156 Q60 136 60 114 Q60 62 88 31 Q124 -7 190 -7 Q257 -7 307 32 Q362 75 377 156 L393 248 L312 248 L296 156 Q289 114 266.5 94 Q244 74 205 74 Q142 74 142 129 Q142 141 145 156 L213 545 Q220 588 242 607.5 Q264 627 302 627 Q367 627 367 571 Q367 559 364 545 L353 483 L434 483 L474 711 Q475 720 482.5 726 Q490 732 499 733 L506 772 Q481 771 460.5 753.5 Q440 736 435 711 L427 666 Z " />
<glyph glyph-name="d" unicode="d" horiz-adv-x="391" d="M199 2 Q268 2 314 38 Q370 82 383 161 L449 535 Q453 555 453 576 Q453 626 425 660 Q389 698 322 698 L165 698 L42 2 L199 2 Z M38 -2 L161 702 L322 702 Q391 702 428 662 Q457 630 457 577 Q457 555 453 535 L387 161 Q373 80 316 34 Q268 -2 199 -2 L38 -2 Z M231 617 L307 617 Q371 617 371 561 Q371 549 368 535 L302 161 Q294 117 271 98 Q250 83 214 83 L138 83 L231 617 Z M214 87 Q251 87 269 102 Q291 119 298 161 L364 535 Q367 550 367 561 Q367 613 307 613 L235 613 L142 87 L214 87 Z " />
<glyph glyph-name="eth" unicode="&#xf0;" horiz-adv-x="395" d="M433 662 Q461 630 461 576 Q461 554 457 535 L391 161 Q377 80 320 34 Q272 -2 203 -2 L43 -2 L97 305 L57 305 L72 394 L112 394 L166 702 L326 702 Q394 702 433 662 Z M430 660 Q392 698 326 698 L170 698 L116 390 L76 390 L61 309 L101 309 L47 2 L203 2 Q272 2 318 38 Q374 82 387 161 L453 535 Q457 554 457 576 Q457 625 430 660 Z M368 535 Q371 550 371 561 Q371 613 311 613 L240 613 L201 394 L261 394 L246 305 L186 305 L147 87 L218 87 Q255 87 274 102 Q295 118 302 161 L368 535 Z M306 161 Q299 116 276 98 Q254 83 218 83 L143 83 L182 309 L242 309 L257 390 L197 390 L236 617 L311 617 Q375 617 375 561 Q375 550 372 535 L306 161 Z " />
<glyph glyph-name="dcaron" unicode="&#x10f;" horiz-adv-x="391" d="M199 2 Q268 2 314 38 Q370 82 383 161 L449 535 Q453 555 453 576 Q453 626 425 660 Q389 698 322 698 L165 698 L42 2 L199 2 Z M38 -2 L161 702 L322 702 Q391 702 428 662 Q457 630 457 577 Q457 555 453 535 L387 161 Q373 80 316 34 Q268 -2 199 -2 L38 -2 Z M231 617 L307 617 Q371 617 371 561 Q371 549 368 535 L302 161 Q294 117 271 98 Q250 83 214 83 L138 83 L231 617 Z M214 87 Q251 87 269 102 Q291 119 298 161 L364 535 Q367 550 367 561 Q367 613 307 613 L235 613 L142 87 L214 87 Z M461 842 L372 735 L285 735 L233 842 L288 842 L337 786 L406 842 L461 842 Z M453 838 L408 838 L337 780 L286 838 L239 838 L287 739 L370 739 L453 838 Z " />
<glyph glyph-name="uni1E13" unicode="&#x1e13;" horiz-adv-x="391" d="M199 2 Q268 2 314 38 Q370 82 383 161 L449 535 Q453 555 453 576 Q453 626 425 660 Q389 698 322 698 L165 698 L42 2 L199 2 Z M38 -2 L161 702 L322 702 Q391 702 428 662 Q457 630 457 577 Q457 555 453 535 L387 161 Q373 80 316 34 Q268 -2 199 -2 L38 -2 Z M231 617 L307 617 Q371 617 371 561 Q371 549 368 535 L302 161 Q294 117 271 98 Q250 83 214 83 L138 83 L231 617 Z M214 87 Q251 87 269 102 Q291 119 298 161 L364 535 Q367 550 367 561 Q367 613 307 613 L235 613 L142 87 L214 87 Z M287 -145 L233 -145 L184 -89 L115 -145 L59 -145 L148 -38 L235 -38 L287 -145 Z M281 -141 L233 -42 L150 -42 L67 -141 L113 -141 L184 -83 L235 -141 L281 -141 Z " />
<glyph glyph-name="dslash" unicode="&#x111;" horiz-adv-x="395" d="M433 662 Q461 630 461 576 Q461 554 457 535 L391 161 Q377 80 320 34 Q272 -2 203 -2 L43 -2 L97 305 L57 305 L72 394 L112 394 L166 702 L326 702 Q394 702 433 662 Z M430 660 Q392 698 326 698 L170 698 L116 390 L76 390 L61 309 L101 309 L47 2 L203 2 Q272 2 318 38 Q374 82 387 161 L453 535 Q457 554 457 576 Q457 625 430 660 Z M368 535 Q371 550 371 561 Q371 613 311 613 L240 613 L201 394 L261 394 L246 305 L186 305 L147 87 L218 87 Q255 87 274 102 Q295 118 302 161 L368 535 Z M306 161 Q299 116 276 98 Q254 83 218 83 L143 83 L182 309 L242 309 L257 390 L197 390 L236 617 L311 617 Q375 617 375 561 Q375 550 372 535 L306 161 Z " />
<glyph glyph-name="uni1E0D" unicode="&#x1e0d;" horiz-adv-x="391" d="M199 2 Q268 2 314 38 Q370 82 383 161 L449 535 Q453 555 453 576 Q453 626 425 660 Q389 698 322 698 L165 698 L42 2 L199 2 Z M38 -2 L161 702 L322 702 Q391 702 428 662 Q457 630 457 577 Q457 555 453 535 L387 161 Q373 80 316 34 Q268 -2 199 -2 L38 -2 Z M231 617 L307 617 Q371 617 371 561 Q371 549 368 535 L302 161 Q294 117 271 98 Q250 83 214 83 L138 83 L231 617 Z M214 87 Q251 87 269 102 Q291 119 298 161 L364 535 Q367 550 367 561 Q367 613 307 613 L235 613 L142 87 L214 87 Z M192 -42 Q172 -42 156 -57 Q140 -72 140 -93 Q140 -108 150 -118 Q160 -128 176 -128 Q196 -128 212 -113 Q228 -98 228 -77 Q228 -62 218 -52 Q208 -42 192 -42 Z M192 -38 Q209 -38 220.5 -49.5 Q232 -61 232 -78 Q232 -99 214.5 -115.5 Q197 -132 176 -132 Q159 -132 147.5 -120.5 Q136 -109 136 -92 Q136 -71 153.5 -54.5 Q171 -38 192 -38 Z " />
<glyph glyph-name="uni0257" unicode="&#x257;" horiz-adv-x="436" d="M473 662 Q502 630 502 577 Q502 555 498 535 L432 161 Q418 80 361 34 Q313 -2 244 -2 L83 -2 L199 655 L159 655 Q151 655 144.5 649 Q138 643 137 635 L90 635 Q94 663 116 682.5 Q138 702 166 702 L367 702 Q436 702 473 662 Z M470 660 Q434 698 367 698 L166 698 Q141 698 120 681 Q99 664 94 639 L133 639 Q135 647 143 653 Q151 659 159 659 L203 659 L87 2 L244 2 Q313 2 359 38 Q415 82 428 161 L494 535 Q498 555 498 576 Q498 626 470 660 Z M409 535 Q412 550 412 561 Q412 613 352 613 L280 613 L187 87 L259 87 Q296 87 314 102 Q336 119 343 161 L409 535 Z M347 161 Q339 117 316 98 Q295 83 259 83 L183 83 L276 617 L352 617 Q416 617 416 561 Q416 549 413 535 L347 161 Z " />
<glyph glyph-name="uni1E0F" unicode="&#x1e0f;" horiz-adv-x="391" d="M199 2 Q268 2 314 38 Q370 82 383 161 L449 535 Q453 555 453 576 Q453 626 425 660 Q389 698 322 698 L165 698 L42 2 L199 2 Z M38 -2 L161 702 L322 702 Q391 702 428 662 Q457 630 457 577 Q457 555 453 535 L387 161 Q373 80 316 34 Q268 -2 199 -2 L38 -2 Z M231 617 L307 617 Q371 617 371 561 Q371 549 368 535 L302 161 Q294 117 271 98 Q250 83 214 83 L138 83 L231 617 Z M214 87 Q251 87 269 102 Q291 119 298 161 L364 535 Q367 550 367 561 Q367 613 307 613 L235 613 L142 87 L214 87 Z M333 -83 L341 -42 L42 -42 L34 -83 L333 -83 Z M337 -87 L30 -87 L38 -38 L345 -38 L337 -87 Z " />
</font>
</svg>
