<?xml version="1.0" standalone="no"?>
<!DOCTYPE svg PUBLIC "-//W3C//DTD SVG 1.1//EN" "http://www.w3.org/Graphics/SVG/1.1/DTD/svg11.dtd" >
<svg xmlns="http://www.w3.org/2000/svg">
<metadata>
Created by FontPrep 20130207 at Fri May 26 16:01:32 2017
 By Lizzy Knight
Copyright 2016 by URW++ Design &#38; Development GmbH
</metadata>
<defs>
<font id="50cfec7636f7115db84fa7cf487fae19" horiz-adv-x='1024' >
  <font-face 
    font-family="URWDINCond-LightItalic"
    font-weight="300"
    font-style="italic"
    font-stretch="normal"
    units-per-em="2048"
    panose-1="0 0 4 0 0 0 0 0 0 0"
    ascent="1462"
    descent="-586"
    x-height="1018"
    cap-height="1462"
    bbox="-297 -496 1677 2064"
    underline-thickness="88"
    underline-position="-217"
    slope="-10"
    unicode-range="U+0020-FB04"
  />
<missing-glyph horiz-adv-x="327" 
 />
    <glyph glyph-name="ff" unicode="ff" horiz-adv-x="880" 
d="M651 924h-80l17 94h82l37 209q23 139 70 188q48 49 161 47h66l-17 -88h-31q-72 2 -98 -30t-47 -146l-31 -180h146l-17 -94h-145l-164 -924h-111zM227 924h-86l17 94h86l37 209q23 139 70 188q48 49 161 47h63l-16 -88h-29q-72 2 -98 -30t-47 -146l-31 -180h133l-18 -94
h-131l-164 -924h-111z" />
    <glyph glyph-name="fi" unicode="fi" horiz-adv-x="821" 
d="M487 0l181 1018h110l-180 -1018h-111zM713 1272l32 192h111l-33 -192h-110zM227 924h-86l17 94h86l37 209q23 139 70 188q48 49 161 47h66l-15 -88h-33q-72 2 -98 -30t-47 -146l-31 -180h148l-19 -94h-145l-164 -924h-111z" />
    <glyph glyph-name="fl" unicode="fl" horiz-adv-x="864" 
d="M713 0q-191 0 -191 133q0 65 17 164l204 1165h111l-209 -1186q-8 -61 -8 -101q-1 -40 21 -59t75 -20h25l-17 -96h-28zM227 924h-86l17 94h86l37 209q23 139 70 188q48 49 161 47h66l-15 -88h-33q-72 2 -98 -30t-47 -146l-31 -180h148l-19 -94h-145l-164 -924h-111z" />
    <glyph glyph-name="ffi" unicode="ffi" horiz-adv-x="1247" 
d="M651 924h-80l17 94h82l37 209q23 139 70 188q48 49 161 47h66l-17 -88h-31q-72 2 -98 -30t-47 -146l-31 -180h146l-17 -94h-145l-164 -924h-111zM913 0l181 1018h110l-178 -1018h-113zM1139 1272l35 192h110l-35 -192h-110zM227 924h-86l17 94h86l37 209q23 139 70 188
q48 49 161 47h63l-16 -88h-29q-72 2 -98 -30t-47 -146l-31 -180h133l-18 -94h-131l-164 -924h-111z" />
    <glyph glyph-name="ffl" unicode="ffl" horiz-adv-x="1290" 
d="M651 924h-80l17 94h82l37 209q23 139 70 188q48 49 161 47h66l-17 -88h-31q-72 2 -98 -30t-47 -146l-31 -180h146l-17 -94h-145l-164 -924h-111zM1139 0q-193 0 -193 129q0 61 17 168l206 1165h111l-209 -1186q-10 -66 -10 -104q0 -75 98 -76h23l-17 -96h-26zM227 924
h-86l17 94h86l37 209q23 139 70 188q48 49 161 47h63l-16 -88h-29q-72 2 -98 -30t-47 -146l-31 -180h133l-18 -94h-131l-164 -924h-111z" />
    <glyph glyph-name=".notdef" horiz-adv-x="327" 
 />
    <glyph glyph-name=".null" horiz-adv-x="0" 
 />
    <glyph glyph-name="nonmarkingreturn" horiz-adv-x="681" 
 />
    <glyph glyph-name="space" unicode=" " horiz-adv-x="327" 
 />
    <glyph glyph-name="exclam" unicode="!" horiz-adv-x="407" 
d="M59 0l31 172h111l-31 -172h-111zM135 377l174 1085h125l-207 -1085h-92z" />
    <glyph glyph-name="quotedbl" unicode="&#x22;" horiz-adv-x="516" 
d="M416 952l82 510h114l-98 -510h-98zM158 952l82 510h114l-98 -510h-98z" />
    <glyph glyph-name="numbersign" unicode="#" 
d="M346 582h176l70 258h-176zM252 582l70 258h-199l24 84h195l100 374h95l-101 -374h176l101 374h94l-98 -374h196l-24 -84h-195l-70 -258h197l-25 -84h-194l-102 -392h-95l103 392h-176l-103 -392h-94l102 392h-198l24 84h197z" />
    <glyph glyph-name="dollar" unicode="$" 
d="M201 285q0 -172 170 -172q135 0 198 145q47 104 47 232t-75 176q-18 12 -101 47q-199 88 -198 305q0 184 84 302t221 124l37 217h112l-39 -227q172 -57 172 -234q0 -39 -14 -108h-106q8 66 8 96q0 162 -150 162q-109 0 -164 -109q-47 -89 -47 -189t36 -151t119 -88
t116 -61q104 -74 104 -236q0 -219 -96 -362q-74 -115 -227 -134l-52 -288h-112l51 291q-207 41 -207 239q0 48 16 148h107q-10 -82 -10 -125z" />
    <glyph glyph-name="percent" unicode="%" horiz-adv-x="1175" 
d="M301 0l551 1462h102l-551 -1462h-102zM1030 578q0 94 -86 94q-57 0 -86 -40t-47 -140l-43 -240q-6 -55 -6 -86q0 -94 86 -94q53 0 83 40t46 140l43 240q10 59 10 86zM836 -10q-178 0 -179 174q1 42 11 108l43 234q23 133 76 190q54 57 159 58q188 0 189 -168
q0 -37 -11 -99l-43 -233q-25 -140 -82 -202t-163 -62zM410 1397q-53 0 -83 -40t-48 -140l-41 -240q-8 -49 -9 -86q0 -94 86 -94q53 0 84 41t47 139l41 240q8 41 9 86q0 94 -86 94zM602 1311q0 -27 -10 -99l-41 -233q-25 -139 -82 -201t-164 -63q-180 0 -180 174q0 38 12 108
l41 234q23 133 77 190t159 58q188 0 188 -168z" />
    <glyph glyph-name="ampersand" unicode="&#x26;" horiz-adv-x="1062" 
d="M197 208q0 -175 137 -175q98 0 201 92q18 18 92 106l-148 463q-129 -98 -186 -176q-96 -135 -96 -310zM762 1278q0 135 -109 135q-73 0 -119 -83q-46 -82 -46 -200t51 -278q223 180 223 426zM80 199q0 211 123 376q41 55 75 87t162 126q-66 236 -65 328q0 166 76 281
q78 111 193 111q230 -1 230 -238q0 -293 -299 -510l132 -418q82 154 135 311h108q-90 -250 -196 -426l77 -227h-124l-37 127q-102 -109 -180 -150t-184 -41t-166 68t-60 195z" />
    <glyph glyph-name="quotesingle" unicode="'" horiz-adv-x="258" 
d="M158 952l82 510h114l-98 -510h-98z" />
    <glyph glyph-name="parenleft" unicode="(" horiz-adv-x="577" 
d="M180 286q0 326 122 734t292 631l70 -52q-160 -247 -264 -635t-103 -743q0 -238 51 -420l-84 -41q-84 200 -84 526z" />
    <glyph glyph-name="parenright" unicode=")" horiz-adv-x="577" 
d="M465 1122q0 -324 -122 -731q-122 -408 -292 -631l-69 52q160 248 263 636t103 742q0 240 -51 420l86 41q82 -205 82 -529z" />
    <glyph glyph-name="asterisk" unicode="*" 
d="M547 1116l-197 -258l-90 72l223 250l-258 120l54 97l243 -146l45 318l115 -19l-68 -315l281 53l16 -108l-284 -25l123 -311l-107 -37z" />
    <glyph glyph-name="plus" unicode="+" 
d="M152 707l16 92h266l60 329h94l-58 -329h267l-17 -92h-266l-57 -330h-97l58 330h-266z" />
    <glyph glyph-name="comma" unicode="," horiz-adv-x="368" 
d="M-86 -385l160 555h123l-187 -555h-96z" />
    <glyph glyph-name="hyphen" unicode="-" horiz-adv-x="620" 
d="M160 702l16 99h371l-17 -99h-370z" />
    <glyph glyph-name="period" unicode="." horiz-adv-x="370" 
d="M39 0l31 172h114l-30 -172h-115z" />
    <glyph glyph-name="slash" unicode="/" horiz-adv-x="532" 
d="M-41 -45l586 1552h110l-585 -1552h-111z" />
    <glyph glyph-name="zero" unicode="0" 
d="M739 1208q0 78 -42 127q-41 49 -131 49t-149 -81q-58 -82 -93 -271l-107 -602q-16 -94 -16 -174t42 -129q41 -49 131 -49t149 82q58 82 91 270l107 602q18 98 18 176zM568 1481q144 0 214 -72t70 -205q0 -70 -18 -178l-113 -631q-35 -211 -113 -301q-94 -112 -238 -112
q-282 1 -282 278q0 80 18 176l111 631q39 215 115 301q92 113 236 113z" />
    <glyph glyph-name="one" unicode="1" 
d="M299 0l236 1335l-193 -106l-43 84l293 149h80l-258 -1462h-115z" />
    <glyph glyph-name="two" unicode="2" 
d="M692 1232q0 153 -139 152q-92 0 -146 -70t-83 -229h-107q31 176 74 246q94 150 266 150q121 0 187 -69t67 -191q0 -182 -84 -347q-57 -113 -242 -356l-325 -420h458l-18 -98h-596l14 80l400 518q146 186 210 334t64 300z" />
    <glyph glyph-name="three" unicode="3" 
d="M426 817q116 0 192 112q76 111 76 283t-151 172q-94 0 -148 -67q-53 -68 -84 -225h-104q25 166 72 241q94 147 268 148q127 0 195 -71q68 -70 69 -214q0 -144 -62 -260t-171 -168q135 -72 135 -280t-92 -355q-102 -152 -289 -151q-137 0 -210 70t-73 200q0 61 19 145h104
q-10 -82 -10 -137q0 -182 172 -182q138 0 200 129t62 291q0 102 -48 162t-132 61h-107l19 96h98z" />
    <glyph glyph-name="four" unicode="4" 
d="M453 0l49 279h-445l13 71l546 1112h119l-532 -1087h317l84 481h109l-86 -481h110l-16 -99h-111l-49 -276h-108z" />
    <glyph glyph-name="five" unicode="5" 
d="M500 893q240 0 239 -266q1 -103 -27 -241t-65 -214q-94 -190 -309 -190q-137 0 -209 66t-72 192q0 66 19 157h104q-10 -80 -10 -137q0 -182 170 -182q158 0 225 198q55 174 55 348t-149 175q-100 0 -195 -97l-79 17l172 743h495l-16 -98h-399l-123 -535q53 39 87 51
t87 13z" />
    <glyph glyph-name="six" unicode="6" 
d="M492 799q-131 0 -197 -146q-33 -75 -59 -201t-27 -206q0 -80 40 -124t111 -44q170 0 220 219q51 217 51 315q0 186 -139 187zM522 891q106 0 164 -66t59 -184q0 -184 -67 -399q-82 -260 -322 -260q-122 0 -192 68t-70 188q0 80 22 194t50 193q28 78 100 204l363 633h127
l-342 -602q59 31 108 31z" />
    <glyph glyph-name="seven" unicode="7" 
d="M123 0l604 1364h-451l17 98h571l-12 -69l-596 -1393h-133z" />
    <glyph glyph-name="eight" unicode="8" 
d="M471 723q-160 0 -213 -137q-26 -61 -48 -170q-22 -108 -22 -182t45 -115t127 -41q147 0 201 125q29 63 50 173q22 110 22 186t-42 119q-42 42 -120 42zM580 1391q-141 0 -189 -131q-17 -54 -35 -154t-18 -156q0 -139 145 -139t195 141q53 160 53 299q1 66 -39 103
t-112 37zM580 1481q124 -1 192 -61t68 -173q0 -160 -62 -325q-41 -106 -149 -150q117 -51 116 -215q-1 -106 -27 -228t-65 -192q-86 -156 -291 -155q-141 0 -215 64t-73 190q0 90 26 208t62 193q53 102 162 137q-53 35 -74 73q-44 83 1 299q22 105 52 171q76 164 277 164z
" />
    <glyph glyph-name="nine" unicode="9" 
d="M578 1384q-135 0 -191 -124q-27 -56 -51 -180t-23 -198q0 -74 38 -116q38 -41 108 -41q141 0 203 158q70 182 69 342q1 75 -39 117t-114 42zM420 633q-102 0 -162 64q-59 65 -59 169q1 104 27 240t62 210q36 73 113 119q79 46 191 46t183 -67t71 -207t-60 -314
q-27 -76 -100 -205l-401 -688h-127l387 670q-59 -37 -125 -37z" />
    <glyph glyph-name="colon" unicode=":" horiz-adv-x="370" 
d="M188 844l29 172h115l-29 -172h-115zM39 0l31 172h114l-30 -172h-115z" />
    <glyph glyph-name="semicolon" unicode=";" horiz-adv-x="368" 
d="M197 844l30 172h115l-31 -172h-114zM-86 -385l160 555h123l-187 -555h-96z" />
    <glyph glyph-name="less" unicode="&#x3c;" 
d="M266 750l408 -283l-19 -102l-510 364l9 51l639 367l-19 -113z" />
    <glyph glyph-name="equal" unicode="=" 
d="M190 829l17 91h592l-17 -91h-592zM147 586l17 92h592l-17 -92h-592z" />
    <glyph glyph-name="greater" unicode="&#x3e;" 
d="M680 760l-406 284l17 103l510 -367l-8 -51l-639 -364l20 110z" />
    <glyph glyph-name="question" unicode="?" horiz-adv-x="763" 
d="M229 0l29 172h113l-31 -172h-111zM678 1221q0 162 -146 161q-90 0 -142 -68t-81 -229h-106q27 162 67 238q88 156 267 156q125 0 193 -66t67 -184q0 -164 -70 -307q-41 -78 -138 -182t-131 -160q-34 -57 -50 -142l-13 -63h-92l14 78q17 109 55 179t133 178t134 198
t39 213z" />
    <glyph glyph-name="at" unicode="@" horiz-adv-x="1273" 
d="M764 1010q-94 0 -172 -176q-98 -217 -98 -383q0 -45 16 -72t45 -27q98 0 187 202q90 202 90 329t-68 127zM823 414q0 -60 56 -60q117 0 202 164q45 90 76 232t31 256q0 176 -87 286t-288 109q-317 0 -496 -346q-69 -131 -115 -332t-46 -333q0 -252 110 -353
q94 -84 291 -84q100 0 173 19t177 75l31 -76q-111 -59 -196 -82t-191 -22q-250 0 -374 119t-124 345t61 455q60 229 154 379q203 322 547 322q223 0 349 -126t126 -349q0 -162 -47 -327t-119 -261q-119 -156 -266 -156q-119 0 -119 119q0 18 2 35q-59 -92 -103 -125
t-109 -33t-101 47t-37 136q0 89 34 212t87 224q113 213 258 213q59 0 88 -35t35 -115l41 127h72l-158 -520q-25 -79 -25 -139z" />
    <glyph glyph-name="A" unicode="A" horiz-adv-x="802" 
d="M571 434l-28 850l-330 -850h358zM575 338h-399l-131 -338h-125l600 1462h101l90 -1462h-123z" />
    <glyph glyph-name="B" unicode="B" horiz-adv-x="899" 
d="M367 96q78 0 125 20t79 72q88 131 88 314q-1 112 -39 158t-128 47h-191l-108 -611h174zM502 803q113 0 174 86q84 117 84 282q0 107 -41 151t-144 44h-157l-101 -563h185zM565 1462q180 0 247 -66t67 -213q1 -146 -59 -263t-154 -160q61 -37 86 -94t24 -160
q0 -233 -114 -389q-48 -63 -110 -90t-165 -27h-326l258 1462h246z" />
    <glyph glyph-name="C" unicode="C" 
d="M362 -18q-128 0 -196 68t-68 196q0 76 21 184l112 643q37 211 111 299q94 106 234 106t212 -66q72 -67 72 -185q0 -53 -16 -142h-107q10 66 11 115q0 182 -160 182q-102 0 -159 -76q-56 -77 -87 -257l-113 -637q-16 -98 -16 -152q0 -182 154 -182q109 0 169 74t93 251
h108q-27 -162 -73 -245q-98 -176 -302 -176z" />
    <glyph glyph-name="D" unicode="D" horiz-adv-x="919" 
d="M784 1180q0 186 -194 186h-172l-225 -1270h174q125 -2 195 76t97 246l111 626q14 72 14 136zM590 1462q154 0 223 -57q88 -72 88 -215q0 -49 -16 -148l-117 -665q-59 -383 -397 -377h-310l258 1462h271z" />
    <glyph glyph-name="E" unicode="E" horiz-adv-x="784" 
d="M63 0l259 1462h548l-16 -98h-436l-101 -576h369l-16 -98h-371l-104 -592h436l-17 -98h-551z" />
    <glyph glyph-name="F" unicode="F" horiz-adv-x="735" 
d="M63 0l259 1462h542l-16 -98h-430l-103 -586h365l-18 -98h-365l-119 -680h-115z" />
    <glyph glyph-name="G" unicode="G" horiz-adv-x="890" 
d="M98 254q0 61 19 178l112 641q39 213 124 309t229 96t216 -64q73 -65 72 -183q0 -51 -14 -146h-106q8 80 8 117q0 180 -164 180q-106 0 -164 -75q-57 -76 -90 -258l-111 -635q-16 -88 -16 -148q0 -188 168 -188q217 0 276 334l41 241h-188l16 95h303l-59 -336
q-39 -215 -119 -310q-100 -121 -272 -120q-137 0 -209 70t-72 202z" />
    <glyph glyph-name="H" unicode="H" horiz-adv-x="925" 
d="M63 0l259 1462h114l-119 -674h392l118 674h115l-258 -1462h-115l123 690h-393l-121 -690h-115z" />
    <glyph glyph-name="I" unicode="I" horiz-adv-x="417" 
d="M63 0l259 1462h114l-258 -1462h-115z" />
    <glyph glyph-name="J" unicode="J" horiz-adv-x="598" 
d="M125 -16q-153 0 -229 114l84 70q33 -51 62 -70q30 -18 73 -18q104 0 157 121q25 49 56 221l182 1040h115l-187 -1056q-29 -158 -41 -203t-39 -90q-80 -129 -233 -129z" />
    <glyph glyph-name="K" unicode="K" horiz-adv-x="835" 
d="M63 0l259 1462h114l-139 -788l541 788h127l-433 -608l203 -854h-117l-172 754l-182 -269l-86 -485h-115z" />
    <glyph glyph-name="L" unicode="L" horiz-adv-x="743" 
d="M61 0l258 1462h115l-241 -1364h450l-18 -98h-564z" />
    <glyph glyph-name="M" unicode="M" horiz-adv-x="1103" 
d="M63 0l259 1462h112l115 -975l457 975h114l-256 -1462h-112l209 1182l-412 -891h-68l-98 891l-209 -1182h-111z" />
    <glyph glyph-name="N" unicode="N" horiz-adv-x="976" 
d="M63 0l259 1462h112l240 -1206l211 1206h110l-258 -1462h-108l-242 1210l-213 -1210h-111z" />
    <glyph glyph-name="O" unicode="O" horiz-adv-x="917" 
d="M786 1206q0 78 -48 128t-132 50q-123 0 -192 -102q-45 -72 -74 -233l-113 -635q-14 -90 -14 -162t47 -123t133 -51q125 0 191 102q46 70 75 234l111 635q16 79 16 157zM594 1481q156 0 231 -73q76 -73 76 -210q0 -59 -16 -158l-117 -661q-20 -115 -44 -175t-69 -112
q-93 -110 -249 -110q-308 1 -308 282q1 60 17 158l116 661q20 115 43 175t68 112q96 111 252 111z" />
    <glyph glyph-name="P" unicode="P" horiz-adv-x="831" 
d="M424 688q90 0 142 28t93 95q88 150 89 340q0 115 -52 170q-39 45 -149 45h-129l-121 -678h127zM545 1462q172 0 239 -67q80 -76 80 -236q0 -113 -30 -225q-65 -239 -211 -308q-74 -36 -193 -36h-147l-105 -590h-115l259 1462h223z" />
    <glyph glyph-name="Q" unicode="Q" horiz-adv-x="917" 
d="M786 1206q0 78 -48 128t-132 50q-123 0 -192 -102q-45 -72 -74 -233l-113 -635q-14 -90 -14 -162t47 -123q48 -51 140 -51t155 67l-154 191l78 59l131 -164q29 63 49 183l111 635q16 79 16 157zM98 264q0 59 17 158l116 661q20 115 43 175t68 112q96 111 252 111t231 -73
q76 -73 76 -210q0 -59 -16 -158l-117 -661q-29 -160 -80 -244l86 -106l-76 -60l-73 90q-91 -77 -233 -77t-218 72t-76 210z" />
    <glyph glyph-name="R" unicode="R" horiz-adv-x="880" 
d="M438 752q92 0 144 24t92 84q84 125 84 307q0 99 -44 149t-161 50h-135l-109 -614h129zM555 1462q178 0 250 -72t72 -197q0 -126 -33 -235q-33 -108 -89 -180t-165 -106l100 -672h-125l-88 657h-182l-117 -657h-115l259 1462h233z" />
    <glyph glyph-name="S" unicode="S" horiz-adv-x="800" 
d="M156 266q0 -188 174 -188q141 0 207 153q49 117 49 244t-79 177q-22 14 -117 60t-143 121t-48 193q0 178 86 315t252 138q125 0 195 -70t69 -190q0 -53 -17 -134h-108q12 63 12 115q0 182 -153 182q-109 0 -165 -111t-56 -214t36 -155q38 -52 146 -105t156 -115t48 -217
t-77 -305q-98 -178 -295 -178q-131 0 -207 70t-76 188q0 59 18 163h105q-12 -84 -12 -137z" />
    <glyph glyph-name="T" unicode="T" horiz-adv-x="677" 
d="M193 0l239 1364h-250l17 98h616l-16 -98h-252l-240 -1364h-114z" />
    <glyph glyph-name="U" unicode="U" horiz-adv-x="935" 
d="M399 80q133 0 197 110q35 53 57 191l193 1081h115l-195 -1104q-20 -112 -38 -162t-58 -96q-96 -117 -277 -116q-135 0 -208 64t-72 183q0 72 18 170l186 1061h115l-190 -1081q-14 -86 -15 -137q0 -164 172 -164z" />
    <glyph glyph-name="V" unicode="V" horiz-adv-x="798" 
d="M260 0l-53 1462h112l27 -1237l463 1237h119l-570 -1462h-98z" />
    <glyph glyph-name="W" unicode="W" horiz-adv-x="1212" 
d="M180 0l51 1462h113l-61 -1202l446 1202h82l25 -1202l362 1202h115l-465 -1462h-98l-25 1196l-446 -1196h-99z" />
    <glyph glyph-name="X" unicode="X" horiz-adv-x="776" 
d="M373 776l-137 686h116l111 -585l297 585h123l-387 -721l147 -741h-117l-120 639l-326 -639h-123z" />
    <glyph glyph-name="Y" unicode="Y" horiz-adv-x="747" 
d="M229 0l97 547l-142 915h117l107 -762l374 762h121l-463 -915l-96 -547h-115z" />
    <glyph glyph-name="Z" unicode="Z" horiz-adv-x="727" 
d="M-20 0l12 66l663 1298h-405l18 98h533l-10 -65l-666 -1299h455l-17 -98h-583z" />
    <glyph glyph-name="bracketleft" unicode="[" horiz-adv-x="577" 
d="M90 -201l320 1813h254l-17 -90h-141l-289 -1633h143l-16 -90h-254z" />
    <glyph glyph-name="backslash" unicode="\" horiz-adv-x="532" 
d="M379 -45h-111l-37 1552h111z" />
    <glyph glyph-name="bracketright" unicode="]" horiz-adv-x="577" 
d="M559 1612l-319 -1813h-254l16 90h141l289 1633h-143l16 90h254z" />
    <glyph glyph-name="asciicircum" unicode="^" 
d="M575 1325l-278 -537h-125l397 687h62l155 -687h-120z" />
    <glyph glyph-name="underscore" unicode="_" horiz-adv-x="616" 
d="M-182 -348l14 88h682l-16 -88h-680z" />
    <glyph glyph-name="grave" unicode="`" horiz-adv-x="1024" 
d="M705 1194h-80l-103 279h123z" />
    <glyph glyph-name="a" unicode="a" horiz-adv-x="735" 
d="M362 492q-121 0 -176 -76q-57 -86 -57 -219q0 -63 33 -93q32 -30 114 -28q82 0 123 47t64 176l33 193h-134zM418 942q-70 0 -113 -55t-65 -180h-105q25 152 74 219q78 111 225 110q219 0 219 -221q0 -72 -18 -166l-115 -649h-88l2 55q-35 -41 -76 -57t-110 -16
q-233 0 -234 196q0 184 79 294t263 112h156l16 94q34 180 -13 232q-27 32 -97 32z" />
    <glyph glyph-name="b" unicode="b" horiz-adv-x="782" 
d="M598 784q0 154 -115 154q-168 0 -231 -356l-25 -144q-18 -104 -18 -168q0 -193 121 -192q153 -1 202 280l52 293q14 78 14 133zM500 1036q211 0 211 -235q0 -59 -23 -187l-47 -268q-35 -190 -105 -277t-200 -87q-129 0 -184 114l-25 -96h-88l258 1462h111l-93 -522
q76 96 185 96z" />
    <glyph glyph-name="c" unicode="c" horiz-adv-x="712" 
d="M74 213q0 78 18 176l49 285q33 186 95 266q78 96 197 96t177 -58t58 -163q0 -33 -13 -113h-102q8 66 8 101q0 139 -115 139q-78 0 -124 -66t-72 -217l-51 -299q-14 -78 -15 -141q0 -141 113 -141q104 0 154 100q27 52 45 158h102q-27 -176 -72 -242q-78 -113 -233 -112
q-219 0 -219 231z" />
    <glyph glyph-name="d" unicode="d" horiz-adv-x="782" 
d="M305 80q162 0 225 358l25 144q18 94 18 168q0 190 -124 190q-148 0 -197 -270l-53 -303q-10 -61 -11 -125q0 -162 117 -162zM76 225q0 76 16 164l53 297q31 182 103 266t194 84q68 0 108 -22t68 -74l93 522h112l-258 -1462h-88l6 90q-78 -109 -194 -108q-213 0 -213 243z
" />
    <glyph glyph-name="e" unicode="e" horiz-adv-x="747" 
d="M580 801q0 141 -125 141q-84 0 -131 -61t-72 -205l-16 -88h317q27 156 27 213zM307 78q84 0 131 57t70 189h104q-25 -156 -69 -226q-76 -117 -242 -116q-113 0 -171 61t-58 176q0 63 18 170l49 281q37 197 97 270q84 96 221 96q229 0 229 -233q0 -51 -41 -307h-426
l-26 -148q-10 -57 -11 -129q0 -141 125 -141z" />
    <glyph glyph-name="f" unicode="f" horiz-adv-x="454" 
d="M227 924h-86l17 94h86l37 209q23 139 70 188q48 49 161 47h66l-15 -88h-33q-72 2 -98 -30t-47 -146l-31 -180h148l-19 -94h-145l-164 -924h-111z" />
    <glyph glyph-name="g" unicode="g" horiz-adv-x="782" 
d="M303 80q162 0 225 358l27 144q18 109 18 168q0 190 -124 190q-152 0 -197 -270l-55 -308q-10 -55 -11 -122q0 -160 117 -160zM285 -18q-211 0 -211 243q0 74 16 164l53 297q33 182 104 266t197 84t181 -100l30 82h88l-202 -1141q-35 -193 -106 -273t-191 -81
q-231 0 -234 178q0 47 13 119h102q-8 -55 -8 -84q0 -119 112 -119q84 -1 130 61t73 209l33 185q-76 -90 -180 -90z" />
    <glyph glyph-name="h" unicode="h" horiz-adv-x="784" 
d="M502 1036q204 0 207 -205q0 -72 -23 -186l-113 -645h-110l115 655q18 100 18 144q0 139 -111 139q-88 0 -141 -79t-86 -261l-106 -598h-111l258 1462h111l-91 -512q79 86 183 86z" />
    <glyph glyph-name="i" unicode="i" horiz-adv-x="376" 
d="M43 0l180 1018h111l-180 -1018h-111zM268 1272l33 192h111l-33 -192h-111z" />
    <glyph glyph-name="j" unicode="j" horiz-adv-x="382" 
d="M272 1272l35 192h111l-35 -192h-111zM227 1018h111l-191 -1081q-33 -229 -111 -322q-79 -92 -231 -86l17 96q86 -6 136 68t79 244z" />
    <glyph glyph-name="k" unicode="k" horiz-adv-x="743" 
d="M43 0l258 1462h111l-183 -1036l396 592h123l-306 -430l146 -588h-117l-109 494l-163 -244l-45 -250h-111z" />
    <glyph glyph-name="l" unicode="l" horiz-adv-x="419" 
d="M266 0q-190 0 -190 133q0 65 16 164l205 1165h111l-209 -1186q-9 -61 -9 -101t22 -59t75 -20h24l-16 -96h-29z" />
    <glyph glyph-name="m" unicode="m" horiz-adv-x="1159" 
d="M1081 850q0 -82 -22 -205l-113 -645h-110l114 655q18 104 19 152q0 133 -101 133q-82 0 -132 -79t-81 -253l-108 -608h-111l117 655q16 90 16 154q0 129 -98 129q-82 0 -132 -79t-83 -261l-106 -598h-111l180 1018h84l-6 -86q49 59 92 82t113 22q150 0 180 -118
q82 119 213 118q88 0 137 -52t49 -134z" />
    <glyph glyph-name="n" unicode="n" horiz-adv-x="784" 
d="M596 803q0 135 -111 135q-88 0 -141 -79t-86 -261l-106 -598h-111l180 1018h84l-6 -86q51 61 95 83q44 21 128 21t135 -53t51 -141t-22 -197l-113 -645h-110l115 655q18 106 18 148z" />
    <glyph glyph-name="o" unicode="o" horiz-adv-x="768" 
d="M461 942q-88 0 -136 -62t-75 -210l-57 -322q-12 -78 -13 -127q0 -143 127 -143q88 0 136 62t73 208l57 322q14 74 15 127q0 145 -127 145zM461 1036q238 0 237 -233q0 -57 -18 -166l-53 -299q-33 -184 -107 -270t-213 -86q-238 0 -237 233q0 68 18 166l51 299
q35 188 108 272t214 84z" />
    <glyph glyph-name="p" unicode="p" horiz-adv-x="782" 
d="M598 780q0 158 -117 158q-168 0 -229 -356l-25 -144q-18 -94 -18 -168q0 -193 121 -192q151 -1 200 280l56 312q12 68 12 110zM496 1036q213 0 213 -235q0 -63 -17 -158l-51 -297q-35 -188 -107 -276t-196 -88q-125 0 -174 96l-96 -539h-111l260 1479h88l2 -76
q43 54 85 74t104 20z" />
    <glyph glyph-name="q" unicode="q" horiz-adv-x="782" 
d="M303 80q162 0 225 358l25 144q18 98 18 168q0 190 -125 190q-147 0 -196 -270l-53 -310q-10 -51 -11 -120q0 -160 117 -160zM283 -18q-209 0 -209 245q0 59 16 162l53 297q33 182 103 266t200 84t179 -102l28 84h88l-260 -1479h-110l92 531q-68 -88 -180 -88z" />
    <glyph glyph-name="r" unicode="r" horiz-adv-x="532" 
d="M455 940q-72 0 -123 -104t-92 -336l-88 -500h-111l180 1018h86l-4 -92q72 111 176 110q70 0 129 -51l-69 -92q-39 47 -84 47z" />
    <glyph glyph-name="s" unicode="s" horiz-adv-x="688" 
d="M127 211q0 -133 141 -133q92 0 153 72q60 72 60 180q0 58 -24 82q-23 24 -39 31t-108 38t-135 82q-44 51 -44 142q0 151 78 241t196 90t177 -54t59 -155q0 -43 -14 -116h-103q10 61 11 102q0 129 -119 129q-78 0 -127 -64t-49 -149q0 -84 53 -125q25 -16 126 -51t136 -81
t35 -124q0 -166 -88 -266t-218 -100t-196 55t-65 156q0 53 16 143h102q-14 -86 -14 -125z" />
    <glyph glyph-name="t" unicode="t" horiz-adv-x="450" 
d="M205 176q0 -80 82 -80h30l-16 -96h-27q-100 0 -142 32t-42 96t25 202l104 594h-84l17 94h86l63 340h107l-60 -340h127l-16 -94h-129l-111 -633q-14 -86 -14 -115z" />
    <glyph glyph-name="u" unicode="u" horiz-adv-x="768" 
d="M293 80q84 0 135 80t84 262l104 596h111l-178 -1018h-86l8 94q-51 -66 -93 -90t-121 -22q-79 0 -129 52t-50 137t22 204l113 643h111l-115 -653q-18 -106 -19 -152q0 -133 103 -133z" />
    <glyph glyph-name="v" unicode="v" horiz-adv-x="673" 
d="M197 0l-60 1018h109l26 -852l328 852h113l-416 -1018h-100z" />
    <glyph glyph-name="w" unicode="w" horiz-adv-x="1044" 
d="M172 0l-20 1018h110l-4 -821l313 821h76l25 -821l284 821h113l-379 -1018h-88l-29 807l-311 -807h-90z" />
    <glyph glyph-name="x" unicode="x" horiz-adv-x="636" 
d="M258 526l-115 492h117l84 -387l213 387h123l-303 -510l119 -508h-117l-88 401l-221 -401h-125z" />
    <glyph glyph-name="y" unicode="y" horiz-adv-x="675" 
d="M195 -14l-60 1032h107l34 -881l324 881h113l-475 -1227q-62 -156 -126 -208t-192 -54l17 96q79 0 113 33t79 145z" />
    <glyph glyph-name="z" unicode="z" horiz-adv-x="636" 
d="M-23 0l11 61l493 861h-313l16 96h445l-11 -62l-495 -860h362l-16 -96h-492z" />
    <glyph glyph-name="braceleft" unicode="{" horiz-adv-x="577" 
d="M303 -201q-172 -1 -172 151q0 74 31 251l39 221q29 164 28 199q0 96 -84 96h-12l14 74h11q72 4 102 59t57 235l27 158q35 219 90 294t184 75h52l-15 -82h-26q-76 -2 -112 -72t-73 -284l-16 -99q-28 -170 -54 -228t-89 -93q59 -31 59 -119q0 -35 -31 -203l-45 -264
q-23 -121 -22 -178q0 -109 92 -109h27l-15 -82h-47z" />
    <glyph glyph-name="bar" unicode="|" 
d="M258 -201l320 1813h96l-320 -1813h-96z" />
    <glyph glyph-name="braceright" unicode="}" horiz-adv-x="577" 
d="M346 1612q172 0 172 -154q0 -76 -31 -248l-22 -125q-29 -164 -29 -196q0 -98 86 -98h10l-12 -74h-12q-70 -3 -100 -57t-60 -238l-45 -254q-35 -219 -89 -294t-183 -75h-51l14 82h26q76 2 111 71t74 286l33 194q28 174 54 232t89 90q-59 35 -59 120q0 27 30 201l29 168
q23 127 23 180t-22 80t-71 27h-26l14 82h47z" />
    <glyph glyph-name="asciitilde" unicode="~" 
d="M784 842q-86 -211 -191 -211q-50 0 -72 13q-23 14 -67 64t-62 63t-42 13q-64 0 -123 -147l-67 18q86 219 207 219q37 0 65 -16t68 -63q41 -47 59 -61t41 -13q61 0 119 143z" />
    <glyph glyph-name="uni00A0" unicode="&#xa0;" horiz-adv-x="327" 
 />
    <glyph glyph-name="exclamdown" unicode="&#xa1;" horiz-adv-x="407" 
d="M348 1016l-31 -172h-110l31 172h110zM272 637l-174 -1083h-125l207 1083h92z" />
    <glyph glyph-name="cent" unicode="&#xa2;" 
d="M205 553q0 61 18 168l49 285q51 348 283 360l39 211h113l-39 -219q160 -43 159 -213q0 -47 -12 -111h-102q6 72 6 94q0 145 -135 146q-82 0 -128 -65t-75 -218l-53 -299q-12 -90 -13 -133q0 -150 134 -149q88 0 136 59t70 199h103q-20 -174 -84 -255t-191 -96l-39 -223
h-112l41 230q-168 33 -168 229z" />
    <glyph glyph-name="sterling" unicode="&#xa3;" 
d="M287 567q0 37 -4 78h-154l16 98h123l-6 31q-31 166 -31 227q0 193 82 326q90 152 283 152q135 0 209 -69t74 -196q0 -45 -15 -129h-106q10 63 10 113q0 184 -168 184q-124 0 -188 -110t-64 -258q0 -63 35 -232l8 -39h260l-18 -98h-234v-57q0 -133 -54 -266t-146 -224h514
l-17 -98h-678l15 84q106 52 180 194t74 289z" />
    <glyph glyph-name="currency" unicode="&#xa4;" 
d="M462 993q-106 0 -172 -85t-67 -222q0 -137 67 -223t172 -86t172 86t66 221q0 135 -66 222t-172 87zM125 684q0 158 78 268l-135 170l59 56l131 -168q197 144 406 0l131 168l61 -56l-135 -170q78 -110 78 -268t-78 -266l135 -170l-61 -55l-131 167q-94 -72 -200 -72
t-206 72l-131 -167l-59 55l135 170q-78 108 -78 266z" />
    <glyph glyph-name="yen" unicode="&#xa5;" 
d="M283 0l57 322h-238l15 79h237l27 154h-238l15 80h209l-144 827h117l121 -766l391 766h123l-436 -827h209l-15 -80h-237l-27 -154h238l-15 -79h-237l-58 -322h-114z" />
    <glyph glyph-name="brokenbar" unicode="&#xa6;" horiz-adv-x="657" 
d="M184 0l88 496h109l-88 -496h-109zM352 950l90 512h109l-90 -512h-109z" />
    <glyph glyph-name="section" unicode="&#xa7;" 
d="M240 612q0 -63 26 -93t129 -79l92 -43q7 8 45 34t56 43q18 16 43 70t25 122t-28 99q-28 30 -128 77l-92 45l-13 -6q-72 -47 -96 -82q-59 -78 -59 -187zM729 1239q1 147 -153 147q-80 0 -140 -74q-59 -75 -59 -192q0 -66 33 -100q32 -34 152 -88q120 -52 163 -100t43 -136
q0 -162 -102 -260q-41 -41 -111 -80q57 -43 80 -84t22 -106q0 -162 -101 -261q-102 -99 -250 -99t-218 58t-70 165q1 39 15 123h100q-8 -63 -8 -97q0 -154 164 -153q115 0 185 70t69 186q0 70 -35 104t-160 85q-125 49 -173 103t-48 146q0 143 94 244q29 33 119 88
q-78 66 -78 176q0 158 81 268t247 109q118 -1 182 -57t64 -158q0 -47 -13 -105h-100q6 55 6 78z" />
    <glyph glyph-name="dieresis" unicode="&#xa8;" horiz-adv-x="1024" 
d="M717 1212l33 191h100l-33 -191h-100zM457 1212l32 191h103l-35 -191h-100z" />
    <glyph glyph-name="copyright" unicode="&#xa9;" horiz-adv-x="1470" 
d="M738 1401q-257 -1 -421 -187q-163 -186 -163 -482t164 -483t419 -187q256 0 419 186q163 188 163 478t-152 472q-172 203 -429 203zM738 1485q298 0 488 -213t189 -542q0 -329 -190 -541q-189 -212 -487 -212t-489 211t-191 544t190 543q192 210 490 210zM928 557
q0 -188 -185 -188q-106 -1 -152 69t-46 230v123q0 161 45 231t147 70q176 0 183 -189h-82q-8 113 -95 113q-59 0 -84 -50t-24 -169v-133q-1 -119 25 -169q26 -51 80 -51t77 26t29 87h82z" />
    <glyph glyph-name="ordfeminine" unicode="&#xaa;" horiz-adv-x="448" 
d="M342 1130q-80 0 -110 -44t-29 -125q0 -61 71 -62q98 0 119 119l21 112h-72zM438 1335q0 63 -69 64q-37 1 -57 -17t-36 -65h-83q37 156 180 156q162 0 162 -123q0 -39 -13 -115l-71 -399h-78l4 43q-45 -53 -121 -54q-147 0 -147 133q0 116 56 178t163 62h90l10 53
q10 59 10 84z" />
    <glyph glyph-name="guillemotleft" unicode="&#xab;" horiz-adv-x="569" 
d="M184 596l72 -258l-74 -35l-119 301l224 303l61 -53zM424 596l72 -258l-76 -35l-117 301l223 303l62 -53z" />
    <glyph glyph-name="logicalnot" unicode="&#xac;" 
d="M158 707l16 92h586l-78 -443h-109l62 351h-477z" />
    <glyph glyph-name="uni00AD" unicode="&#xad;" horiz-adv-x="620" 
d="M160 702l16 99h371l-17 -99h-370z" />
    <glyph glyph-name="registered" unicode="&#xae;" horiz-adv-x="1116" 
d="M556 1661q-194 0 -308 -135t-115 -338q0 -203 113 -340q114 -137 312 -137t310 137t113 340q0 203 -115 338q-116 135 -310 135zM41 1187q-1 243 145 399t371 155q225 0 371 -159q146 -158 145 -398q0 -240 -146 -397q-145 -157 -369 -157t-371 157q-146 157 -146 400z
M492 1202h86q72 0 72 98t-77 99h-81v-197zM494 1143v-236h-82v557h170q152 0 151 -157q0 -135 -84 -156l92 -244h-86l-84 236h-77z" />
    <glyph glyph-name="macron" unicode="&#xaf;" horiz-adv-x="1024" 
d="M477 1284l15 84h342l-15 -84h-342z" />
    <glyph glyph-name="degree" unicode="&#xb0;" horiz-adv-x="530" 
d="M396 1446q-76 0 -118 -49t-42 -139t42 -138q42 -49 118 -49t118 49q43 50 43 138t-43 138t-118 50zM397 993q-119 0 -191 72q-72 71 -71 193q-1 122 71 194t191 72t190 -73t71 -194t-72 -193q-70 -72 -189 -71z" />
    <glyph glyph-name="plusminus" unicode="&#xb1;" 
d="M49 129l17 92h628l-16 -92h-629zM152 707l16 92h266l58 329h96l-58 -329h267l-17 -92h-266l-59 -330h-95l58 330h-266z" />
    <glyph glyph-name="twosuperior" unicode="&#xb2;" horiz-adv-x="561" 
d="M535 1512q0 84 -82 85q-55 -1 -85 -39t-51 -135h-88q23 135 76 195t145 59q182 0 183 -166q0 -111 -42 -189t-165 -226l-186 -226h280l-14 -79h-402l11 63l250 305q94 115 132 192t38 161z" />
    <glyph glyph-name="threesuperior" unicode="&#xb3;" horiz-adv-x="561" 
d="M367 1290q77 0 123 56t46 153q0 98 -85 98q-57 0 -90 -37q-32 -38 -48 -128h-88q19 131 73 188t148 57q186 0 185 -174q0 -166 -127 -248q72 -51 72 -173t-60 -212q-59 -90 -188 -90q-94 0 -145 41q-50 41 -50 103t12 118h88q-10 -47 -10 -81q0 -100 103 -101
q72 0 114 62t41 165q0 127 -121 127h-65l12 76h60z" />
    <glyph glyph-name="acute" unicode="&#xb4;" horiz-adv-x="1024" 
d="M565 1194l148 279h133l-197 -279h-84z" />
    <glyph glyph-name="mu" unicode="&#xb5;" 
d="M242 211q0 -133 100 -133q84 0 135 82t86 268l103 588h108l-178 -1016h-80l10 113q-45 -72 -89 -102t-107 -29q-88 0 -127 67l-90 -510h-109l260 1477h109l-115 -645q-16 -92 -16 -160z" />
    <glyph glyph-name="paragraph" unicode="&#xb6;" horiz-adv-x="854" 
d="M313 713q-203 0 -202 252q0 125 44 251t99 176t97 60t165 10h358l-307 -1741h-106l291 1645h-181l-290 -1645h-107l174 992h-35z" />
    <glyph glyph-name="periodcentered" unicode="&#xb7;" horiz-adv-x="370" 
d="M156 668l30 170h115l-31 -170h-114z" />
    <glyph glyph-name="cedilla" unicode="&#xb8;" horiz-adv-x="1024" 
d="M258 -438l119 288h119l-162 -288h-76z" />
    <glyph glyph-name="onesuperior" unicode="&#xb9;" horiz-adv-x="561" 
d="M295 791l135 770l-119 -60l-35 72l199 94h70l-156 -876h-94z" />
    <glyph glyph-name="ordmasculine" unicode="&#xba;" horiz-adv-x="468" 
d="M463 1313q0 84 -78 84q-88 0 -113 -135l-34 -199q-8 -35 -9 -76q0 -84 80 -84q88 0 113 133l35 201q6 61 6 76zM557 1319q0 -37 -10 -105l-33 -186q-18 -102 -70 -151t-141 -50q-168 0 -168 154q0 26 10 102l35 187q18 106 66 154t139 49q172 0 172 -154z" />
    <glyph glyph-name="guillemotright" unicode="&#xbb;" horiz-adv-x="569" 
d="M420 612l-74 258l76 37l119 -303l-226 -301l-59 53zM180 612l-74 258l76 37l119 -303l-225 -301l-60 53z" />
    <glyph glyph-name="onequarter" unicode="&#xbc;" horiz-adv-x="1337" 
d="M326 0l551 1462h104l-553 -1462h-102zM967 0l28 164h-286l10 61l336 652h96l-326 -631h185l49 278h86l-49 -278h69l-14 -84h-70l-28 -162h-86zM256 586l135 770l-119 -60l-34 72l198 94h70l-156 -876h-94z" />
    <glyph glyph-name="onehalf" unicode="&#xbd;" horiz-adv-x="1337" 
d="M305 0l551 1462h105l-551 -1462h-105zM1044 807q-53 0 -85 -40t-48 -134h-88q19 135 73 194t148 59q182 1 181 -167q0 -102 -41 -185t-164 -229l-186 -225h278l-12 -80h-402l11 63l249 306q92 111 130 189t38 164q0 85 -82 85zM258 586l135 770l-119 -60l-34 72l198 94
h70l-156 -876h-94z" />
    <glyph glyph-name="threequarters" unicode="&#xbe;" horiz-adv-x="1337" 
d="M389 0l551 1462h102l-550 -1462h-103zM983 0l29 164h-289l10 61l338 652h96l-325 -631h184l49 278h86l-49 -278h70l-15 -84h-69l-29 -162h-86zM332 1085q78 -1 124 55t46 153t-86 98q-57 0 -89 -38t-48 -126h-89q20 131 74 187t146 56q186 0 186 -174q0 -168 -127 -245
q72 -51 72 -173q1 -122 -59 -212t-187 -91q-94 0 -145 41q-52 42 -52 102t13 120h88q-10 -49 -11 -82q0 -100 103 -101q71 -1 113 61t42 167q0 127 -120 127h-66l12 75h60z" />
    <glyph glyph-name="questiondown" unicode="&#xbf;" horiz-adv-x="765" 
d="M543 1016l-31 -172h-111l31 172h111zM94 -205q0 -164 146 -164q88 0 141 71t82 228h106q-27 -162 -69 -237q-84 -158 -267 -158q-123 0 -191 66t-67 184q0 164 70 307q37 72 141 189q94 98 129 155t50 139l10 64h92l-12 -78q-17 -109 -55 -179t-132 -176t-134 -198
t-40 -213z" />
    <glyph glyph-name="Agrave" unicode="&#xc0;" horiz-adv-x="802" 
d="M621 1628h-80l-103 279h123zM571 434l-28 850l-330 -850h358zM575 338h-399l-131 -338h-125l600 1462h101l90 -1462h-123z" />
    <glyph glyph-name="Aacute" unicode="&#xc1;" horiz-adv-x="802" 
d="M557 1628l148 279h133l-197 -279h-84zM571 434l-28 850l-330 -850h358zM575 338h-399l-131 -338h-125l600 1462h101l90 -1462h-123z" />
    <glyph glyph-name="Acircumflex" unicode="&#xc2;" horiz-adv-x="802" 
d="M618 1808l-116 -168h-119l211 254h72l122 -254h-110zM571 434l-28 850l-330 -850h358zM575 338h-399l-131 -338h-125l600 1462h101l90 -1462h-123z" />
    <glyph glyph-name="Atilde" unicode="&#xc3;" horiz-adv-x="802" 
d="M539 1868q53 0 96 -66q41 -68 63 -67q37 0 66 116h72q-27 -106 -62 -152t-92 -46t-98 67q-23 42 -34 54t-26 12q-34 0 -69 -117h-70q31 107 66 153t88 46zM571 434l-28 850l-330 -850h358zM575 338h-399l-131 -338h-125l600 1462h101l90 -1462h-123z" />
    <glyph glyph-name="Adieresis" unicode="&#xc4;" horiz-adv-x="802" 
d="M672 1647l33 190h100l-33 -190h-100zM410 1647l32 190h101l-33 -190h-100zM571 434l-28 850l-330 -850h358zM575 338h-399l-131 -338h-125l600 1462h101l90 -1462h-123z" />
    <glyph glyph-name="Aring" unicode="&#xc5;" horiz-adv-x="802" 
d="M635 1935q-49 0 -81 -47t-32 -128t78 -81q49 0 81 47t32 128t-78 81zM606 1612q-166 0 -166 175q0 87 56 151t136 65q79 0 121 -44t42 -123q-1 -80 -53 -152t-136 -72zM571 434l-28 850l-330 -850h358zM575 338h-399l-131 -338h-125l600 1462h101l90 -1462h-123z" />
    <glyph glyph-name="AE" unicode="&#xc6;" horiz-adv-x="1269" 
d="M629 444l162 920h-15l-518 -920h371zM610 348h-407l-197 -348h-133l852 1462h631l-17 -98h-436l-100 -576h368l-16 -98h-371l-104 -592h436l-16 -98h-551z" />
    <glyph glyph-name="Ccedilla" unicode="&#xc7;" 
d="M152 -438l118 288h119l-162 -288h-75zM362 -18q-128 0 -196 68t-68 196q0 76 21 184l112 643q37 211 111 299q94 106 234 106t212 -66q72 -67 72 -185q0 -53 -16 -142h-107q10 66 11 115q0 182 -160 182q-102 0 -159 -76q-56 -77 -87 -257l-113 -637q-16 -98 -16 -152
q0 -182 154 -182q109 0 169 74t93 251h108q-27 -162 -73 -245q-98 -176 -302 -176z" />
    <glyph glyph-name="Egrave" unicode="&#xc8;" horiz-adv-x="784" 
d="M688 1628h-80l-102 279h123zM63 0l259 1462h548l-16 -98h-436l-101 -576h369l-16 -98h-371l-104 -592h436l-17 -98h-551z" />
    <glyph glyph-name="Eacute" unicode="&#xc9;" horiz-adv-x="784" 
d="M549 1628l147 279h133l-196 -279h-84zM63 0l259 1462h548l-16 -98h-436l-101 -576h369l-16 -98h-371l-104 -592h436l-17 -98h-551z" />
    <glyph glyph-name="Ecircumflex" unicode="&#xca;" horiz-adv-x="784" 
d="M651 1808l-116 -168h-119l211 254h71l123 -254h-110zM63 0l259 1462h548l-16 -98h-436l-101 -576h369l-16 -98h-371l-104 -592h436l-17 -98h-551z" />
    <glyph glyph-name="Edieresis" unicode="&#xcb;" horiz-adv-x="784" 
d="M700 1647l33 190h101l-33 -190h-101zM438 1647l33 190h100l-32 -190h-101zM63 0l259 1462h548l-16 -98h-436l-101 -576h369l-16 -98h-371l-104 -592h436l-17 -98h-551z" />
    <glyph glyph-name="Igrave" unicode="&#xcc;" horiz-adv-x="417" 
d="M473 1628h-80l-102 279h123zM63 0l259 1462h114l-258 -1462h-115z" />
    <glyph glyph-name="Iacute" unicode="&#xcd;" horiz-adv-x="417" 
d="M342 1628l147 279h134l-197 -279h-84zM63 0l259 1462h114l-258 -1462h-115z" />
    <glyph glyph-name="Icircumflex" unicode="&#xce;" horiz-adv-x="417" 
d="M442 1808l-116 -168h-119l211 254h71l123 -254h-110zM63 0l259 1462h114l-258 -1462h-115z" />
    <glyph glyph-name="Idieresis" unicode="&#xcf;" horiz-adv-x="417" 
d="M489 1647l33 190h101l-33 -190h-101zM227 1647l33 190h102l-34 -190h-101zM61 0l258 1462h115l-258 -1462h-115z" />
    <glyph glyph-name="Eth" unicode="&#xd0;" horiz-adv-x="919" 
d="M784 1180q0 186 -194 186h-172l-103 -578h217l-16 -96h-217l-106 -596h174q125 -2 195 76t97 246l111 626q14 72 14 136zM590 1462q154 0 223 -57q88 -72 88 -215q0 -49 -16 -148l-117 -665q-59 -383 -397 -377h-310l123 692h-110l16 96h111l118 674h271z" />
    <glyph glyph-name="Ntilde" unicode="&#xd1;" horiz-adv-x="976" 
d="M629 1868q53 0 96 -66q41 -68 63 -67q37 0 66 116h72q-27 -106 -62 -152t-92 -46t-98 67q-23 42 -34 54t-26 12q-34 0 -69 -117h-70q31 107 66 153t88 46zM63 0l259 1462h112l240 -1206l211 1206h110l-258 -1462h-108l-242 1210l-213 -1210h-111z" />
    <glyph glyph-name="Ograve" unicode="&#xd2;" horiz-adv-x="917" 
d="M729 1628h-80l-102 279h123zM786 1206q0 78 -48 128t-132 50q-123 0 -192 -102q-45 -72 -74 -233l-113 -635q-14 -90 -14 -162t47 -123t133 -51q125 0 191 102q46 70 75 234l111 635q16 79 16 157zM594 1481q156 0 231 -73q76 -73 76 -210q0 -59 -16 -158l-117 -661
q-20 -115 -44 -175t-69 -112q-93 -110 -249 -110q-308 1 -308 282q1 60 17 158l116 661q20 115 43 175t68 112q96 111 252 111z" />
    <glyph glyph-name="Oacute" unicode="&#xd3;" horiz-adv-x="917" 
d="M590 1628l147 279h133l-196 -279h-84zM786 1206q0 78 -48 128t-132 50q-123 0 -192 -102q-45 -72 -74 -233l-113 -635q-14 -90 -14 -162t47 -123t133 -51q125 0 191 102q46 70 75 234l111 635q16 79 16 157zM594 1481q156 0 231 -73q76 -73 76 -210q0 -59 -16 -158
l-117 -661q-20 -115 -44 -175t-69 -112q-93 -110 -249 -110q-308 1 -308 282q1 60 17 158l116 661q20 115 43 175t68 112q96 111 252 111z" />
    <glyph glyph-name="Ocircumflex" unicode="&#xd4;" horiz-adv-x="917" 
d="M688 1808l-117 -168h-118l211 254h71l123 -254h-110zM786 1206q0 78 -48 128t-132 50q-123 0 -192 -102q-45 -72 -74 -233l-113 -635q-14 -90 -14 -162t47 -123t133 -51q125 0 191 102q46 70 75 234l111 635q16 79 16 157zM594 1481q156 0 231 -73q76 -73 76 -210
q0 -59 -16 -158l-117 -661q-20 -115 -44 -175t-69 -112q-93 -110 -249 -110q-308 1 -308 282q1 60 17 158l116 661q20 115 43 175t68 112q96 111 252 111z" />
    <glyph glyph-name="Otilde" unicode="&#xd5;" horiz-adv-x="917" 
d="M610 1868q53 0 97 -66q41 -68 63 -67q37 0 66 116h71q-27 -106 -61 -152t-92 -46t-90 54t-42 67q-11 12 -26 12q-35 0 -70 -117h-69q31 106 65 153q35 46 88 46zM786 1206q0 78 -48 128t-132 50q-123 0 -192 -102q-45 -72 -74 -233l-113 -635q-14 -90 -14 -162t47 -123
t133 -51q125 0 191 102q46 70 75 234l111 635q16 79 16 157zM594 1481q156 0 231 -73q76 -73 76 -210q0 -59 -16 -158l-117 -661q-20 -115 -44 -175t-69 -112q-93 -110 -249 -110q-308 1 -308 282q1 60 17 158l116 661q20 115 43 175t68 112q96 111 252 111z" />
    <glyph glyph-name="Odieresis" unicode="&#xd6;" horiz-adv-x="917" 
d="M741 1647l33 190h100l-32 -190h-101zM479 1647l33 190h100l-32 -190h-101zM786 1206q0 78 -48 128t-132 50q-123 0 -192 -102q-45 -72 -74 -233l-113 -635q-14 -90 -14 -162t47 -123t133 -51q125 0 191 102q46 70 75 234l111 635q16 79 16 157zM594 1481q156 0 231 -73
q76 -73 76 -210q0 -59 -16 -158l-117 -661q-20 -115 -44 -175t-69 -112q-93 -110 -249 -110q-308 1 -308 282q1 60 17 158l116 661q20 115 43 175t68 112q96 111 252 111z" />
    <glyph glyph-name="multiply" unicode="&#xd7;" 
d="M403 752l-217 266l76 63l217 -264l314 264l53 -63l-314 -266l220 -265l-76 -65l-219 266l-312 -266l-53 65z" />
    <glyph glyph-name="Oslash" unicode="&#xd8;" horiz-adv-x="917" 
d="M217 346l555 926q-37 112 -163 112t-195 -102q-45 -68 -74 -233l-113 -635q-2 -8 -5 -31t-5 -37zM778 1106l-553 -920q43 -108 166 -108t193 102q45 72 73 234l113 635q6 37 8 57zM899 1188q0 -62 -16 -148l-117 -661q-20 -115 -43 -174t-68 -113q-94 -110 -257 -110
t-240 90l-60 -99l-80 43l91 150q-21 120 6 256l116 661q20 115 43 174t68 113q96 111 258 111t242 -95l57 95l80 -41l-90 -150q10 -40 10 -102z" />
    <glyph glyph-name="Ugrave" unicode="&#xd9;" horiz-adv-x="935" 
d="M737 1628h-80l-102 279h123zM399 80q133 0 197 110q35 53 57 191l193 1081h115l-195 -1104q-20 -112 -38 -162t-58 -96q-96 -117 -277 -116q-135 0 -208 64t-72 183q0 72 18 170l186 1061h115l-190 -1081q-14 -86 -15 -137q0 -164 172 -164z" />
    <glyph glyph-name="Uacute" unicode="&#xda;" horiz-adv-x="935" 
d="M598 1628l147 279h134l-197 -279h-84zM399 80q133 0 197 110q35 53 57 191l193 1081h115l-195 -1104q-20 -112 -38 -162t-58 -96q-96 -117 -277 -116q-135 0 -208 64t-72 183q0 72 18 170l186 1061h115l-190 -1081q-14 -86 -15 -137q0 -164 172 -164z" />
    <glyph glyph-name="Ucircumflex" unicode="&#xdb;" horiz-adv-x="935" 
d="M700 1808l-116 -168h-119l211 254h72l122 -254h-110zM399 80q133 0 197 110q35 53 57 191l193 1081h115l-195 -1104q-20 -112 -38 -162t-58 -96q-96 -117 -277 -116q-135 0 -208 64t-72 183q0 72 18 170l186 1061h115l-190 -1081q-14 -86 -15 -137q0 -164 172 -164z" />
    <glyph glyph-name="Udieresis" unicode="&#xdc;" horiz-adv-x="935" 
d="M752 1647l32 190h101l-33 -190h-100zM489 1647l33 190h101l-33 -190h-101zM399 80q133 0 197 110q35 53 57 191l193 1081h115l-195 -1104q-20 -112 -38 -162t-58 -96q-96 -117 -277 -116q-135 0 -208 64t-72 183q0 72 18 170l186 1061h115l-190 -1081q-14 -86 -15 -137
q0 -164 172 -164z" />
    <glyph glyph-name="Yacute" unicode="&#xdd;" horiz-adv-x="747" 
d="M516 1628l148 279h133l-197 -279h-84zM229 0l97 547l-142 915h117l107 -762l374 762h121l-463 -915l-96 -547h-115z" />
    <glyph glyph-name="Thorn" unicode="&#xde;" horiz-adv-x="831" 
d="M381 449q90 -1 143 27t92 95q88 141 89 336q-1 119 -47 168t-154 49h-129l-119 -675h125zM504 1221q164 0 240 -71t77 -232q-1 -111 -31 -224q-30 -112 -83 -192t-127 -116t-191 -36h-149l-62 -350h-115l259 1462h114l-43 -241h111z" />
    <glyph glyph-name="germandbls" unicode="&#xdf;" horiz-adv-x="780" 
d="M526 1477q220 0 222 -230q0 -96 -34 -188t-87 -144q72 -55 71 -200q0 -63 -14 -142l-31 -172q-35 -217 -101 -309t-190 -92h-79l16 94h49q84 0 123 65t74 257l28 164q34 201 -6 248q-23 28 -80 28h-22l14 88h23q59 0 98 95t39 219t-111 124q-72 0 -114 -55t-62 -178
l-202 -1149h-111l207 1169q29 162 95 235q67 73 185 73z" />
    <glyph glyph-name="agrave" unicode="&#xe0;" horiz-adv-x="735" 
d="M559 1194h-80l-102 279h123zM362 492q-121 0 -176 -76q-57 -86 -57 -219q0 -63 33 -93q32 -30 114 -28q82 0 123 47t64 176l33 193h-134zM418 942q-70 0 -113 -55t-65 -180h-105q25 152 74 219q78 111 225 110q219 0 219 -221q0 -72 -18 -166l-115 -649h-88l2 55
q-35 -41 -76 -57t-110 -16q-233 0 -234 196q0 184 79 294t263 112h156l16 94q34 180 -13 232q-27 32 -97 32z" />
    <glyph glyph-name="aacute" unicode="&#xe1;" horiz-adv-x="735" 
d="M424 1194l147 279h134l-197 -279h-84zM362 492q-121 0 -176 -76q-57 -86 -57 -219q0 -63 33 -93q32 -30 114 -28q82 0 123 47t64 176l33 193h-134zM418 942q-70 0 -113 -55t-65 -180h-105q25 152 74 219q78 111 225 110q219 0 219 -221q0 -72 -18 -166l-115 -649h-88
l2 55q-35 -41 -76 -57t-110 -16q-233 0 -234 196q0 184 79 294t263 112h156l16 94q34 180 -13 232q-27 32 -97 32z" />
    <glyph glyph-name="acircumflex" unicode="&#xe2;" horiz-adv-x="735" 
d="M522 1376l-116 -170h-119l211 256h71l123 -256h-110zM362 492q-121 0 -176 -76q-57 -86 -57 -219q0 -63 33 -93q32 -30 114 -28q82 0 123 47t64 176l33 193h-134zM418 942q-70 0 -113 -55t-65 -180h-105q25 152 74 219q78 111 225 110q219 0 219 -221q0 -72 -18 -166
l-115 -649h-88l2 55q-35 -41 -76 -57t-110 -16q-233 0 -234 196q0 184 79 294t263 112h156l16 94q34 180 -13 232q-27 32 -97 32z" />
    <glyph glyph-name="atilde" unicode="&#xe3;" horiz-adv-x="735" 
d="M438 1434q53 0 97 -66q41 -68 63 -68q35 0 66 117h71q-29 -109 -63 -153t-90 -45q-58 0 -90 54t-42 66q-11 12 -26 13q-35 0 -70 -117h-69q31 106 65 153q35 46 88 46zM362 492q-121 0 -176 -76q-57 -86 -57 -219q0 -63 33 -93q32 -30 114 -28q82 0 123 47t64 176l33 193
h-134zM418 942q-70 0 -113 -55t-65 -180h-105q25 152 74 219q78 111 225 110q219 0 219 -221q0 -72 -18 -166l-115 -649h-88l2 55q-35 -41 -76 -57t-110 -16q-233 0 -234 196q0 184 79 294t263 112h156l16 94q34 180 -13 232q-27 32 -97 32z" />
    <glyph glyph-name="adieresis" unicode="&#xe4;" horiz-adv-x="735" 
d="M575 1212l33 191h101l-33 -191h-101zM315 1212l33 191h103l-35 -191h-101zM362 492q-121 0 -176 -76q-57 -86 -57 -219q0 -63 33 -93q32 -30 114 -28q82 0 123 47t64 176l33 193h-134zM418 942q-70 0 -113 -55t-65 -180h-105q25 152 74 219q78 111 225 110
q219 0 219 -221q0 -72 -18 -166l-115 -649h-88l2 55q-35 -41 -76 -57t-110 -16q-233 0 -234 196q0 184 79 294t263 112h156l16 94q34 180 -13 232q-27 32 -97 32z" />
    <glyph glyph-name="aring" unicode="&#xe5;" horiz-adv-x="735" 
d="M539 1501q-49 0 -81 -47t-32 -128t78 -81q49 0 81 47t32 128t-78 81zM536 1569q78 0 120 -44t42 -123t-52 -152q-52 -72 -135 -72t-125 44t-42 130t56 152q57 65 136 65zM362 492q-121 0 -176 -76q-57 -86 -57 -219q0 -63 33 -93q32 -30 114 -28q82 0 123 47t64 176
l33 193h-134zM418 942q-70 0 -113 -55t-65 -180h-105q25 152 74 219q78 111 225 110q219 0 219 -221q0 -72 -18 -166l-115 -649h-88l2 55q-35 -41 -76 -57t-110 -16q-233 0 -234 196q0 184 79 294t263 112h156l16 94q34 180 -13 232q-27 32 -97 32z" />
    <glyph glyph-name="ae" unicode="&#xe6;" horiz-adv-x="1140" 
d="M975 801q0 141 -125 141q-86 0 -133 -61t-72 -205l-16 -88h317q29 160 29 213zM365 496q-125 0 -181 -82t-55 -217q0 -63 33 -93q32 -30 114 -28q82 0 123 47t64 178l35 195h-133zM428 942q-78 0 -122 -55t-66 -180h-105q29 158 72 219q79 110 229 110t191 -112
q86 113 227 112q111 0 169 -60t58 -154t-43 -326h-430l-26 -148q-14 -84 -15 -121q0 -150 127 -149q88 0 136 57t71 189h105q-25 -156 -68 -224q-78 -118 -235 -118t-211 114q-86 -115 -244 -114q-233 0 -234 194q0 82 24 167t58 136q80 109 260 109h158l14 90q14 70 15 127
q0 137 -115 137z" />
    <glyph glyph-name="ccedilla" unicode="&#xe7;" horiz-adv-x="712" 
d="M90 -438l119 288h119l-162 -288h-76zM74 213q0 78 18 176l49 285q33 186 95 266q78 96 197 96t177 -58t58 -163q0 -33 -13 -113h-102q8 66 8 101q0 139 -115 139q-78 0 -124 -66t-72 -217l-51 -299q-14 -78 -15 -141q0 -141 113 -141q104 0 154 100q27 52 45 158h102
q-27 -176 -72 -242q-78 -113 -233 -112q-219 0 -219 231z" />
    <glyph glyph-name="egrave" unicode="&#xe8;" horiz-adv-x="747" 
d="M571 1194h-79l-103 279h123zM580 801q0 141 -125 141q-84 0 -131 -61t-72 -205l-16 -88h317q27 156 27 213zM307 78q84 0 131 57t70 189h104q-25 -156 -69 -226q-76 -117 -242 -116q-113 0 -171 61t-58 176q0 63 18 170l49 281q37 197 97 270q84 96 221 96
q229 0 229 -233q0 -51 -41 -307h-426l-26 -148q-10 -57 -11 -129q0 -141 125 -141z" />
    <glyph glyph-name="eacute" unicode="&#xe9;" horiz-adv-x="747" 
d="M432 1194l148 279h133l-197 -279h-84zM580 801q0 141 -125 141q-84 0 -131 -61t-72 -205l-16 -88h317q27 156 27 213zM307 78q84 0 131 57t70 189h104q-25 -156 -69 -226q-76 -117 -242 -116q-113 0 -171 61t-58 176q0 63 18 170l49 281q37 197 97 270q84 96 221 96
q229 0 229 -233q0 -51 -41 -307h-426l-26 -148q-10 -57 -11 -129q0 -141 125 -141z" />
    <glyph glyph-name="ecircumflex" unicode="&#xea;" horiz-adv-x="747" 
d="M535 1376l-117 -170h-119l211 256h72l123 -256h-111zM580 801q0 141 -125 141q-84 0 -131 -61t-72 -205l-16 -88h317q27 156 27 213zM307 78q84 0 131 57t70 189h104q-25 -156 -69 -226q-76 -117 -242 -116q-113 0 -171 61t-58 176q0 63 18 170l49 281q37 197 97 270
q84 96 221 96q229 0 229 -233q0 -51 -41 -307h-426l-26 -148q-10 -57 -11 -129q0 -141 125 -141z" />
    <glyph glyph-name="edieresis" unicode="&#xeb;" horiz-adv-x="747" 
d="M586 1212l32 191h101l-33 -191h-100zM326 1212l32 191h103l-35 -191h-100zM580 801q0 141 -125 141q-84 0 -131 -61t-72 -205l-16 -88h317q27 156 27 213zM307 78q84 0 131 57t70 189h104q-25 -156 -69 -226q-76 -117 -242 -116q-113 0 -171 61t-58 176q0 63 18 170
l49 281q37 197 97 270q84 96 221 96q229 0 229 -233q0 -51 -41 -307h-426l-26 -148q-10 -57 -11 -129q0 -141 125 -141z" />
    <glyph glyph-name="igrave" unicode="&#xec;" horiz-adv-x="376" 
d="M377 1194h-80l-102 279h122zM43 0l180 1018h111l-180 -1018h-111z" />
    <glyph glyph-name="iacute" unicode="&#xed;" horiz-adv-x="376" 
d="M246 1194l147 279h133l-196 -279h-84zM43 0l180 1018h111l-180 -1018h-111z" />
    <glyph glyph-name="icircumflex" unicode="&#xee;" horiz-adv-x="376" 
d="M344 1376l-117 -170h-118l210 256h72l123 -256h-111zM43 0l180 1018h111l-180 -1018h-111z" />
    <glyph glyph-name="idieresis" unicode="&#xef;" horiz-adv-x="376" 
d="M391 1212l35 191h100l-34 -191h-101zM133 1212l33 191h100l-33 -191h-100zM43 0l180 1018h111l-180 -1018h-111z" />
    <glyph glyph-name="eth" unicode="&#xf0;" horiz-adv-x="768" 
d="M315 78q86 0 132 61t73 211l55 309q12 68 13 129q0 145 -133 146q-84 0 -131 -62t-74 -213l-53 -309q-14 -74 -15 -129q0 -143 133 -143zM444 1028q96 0 150 -47q-8 184 -41 242l-150 -74l-28 61l139 70q-63 94 -143 115l28 84q70 -12 116 -44t97 -102l133 66l29 -64
l-123 -59q55 -116 55 -312t-30 -356l-47 -272q-33 -184 -94 -260q-82 -94 -218 -94q-246 0 -245 231q0 58 16 160l55 303q33 184 95 260q78 92 206 92z" />
    <glyph glyph-name="ntilde" unicode="&#xf1;" horiz-adv-x="784" 
d="M463 1434q53 0 96 -66q41 -68 64 -68q35 0 65 117h72q-29 -109 -63 -153t-91 -45q-57 0 -98 67q-23 41 -34 53t-25 13q-35 0 -70 -117h-70q31 107 66 153t88 46zM596 803q0 135 -111 135q-88 0 -141 -79t-86 -261l-106 -598h-111l180 1018h84l-6 -86q51 61 95 83
q44 21 128 21t135 -53t51 -141t-22 -197l-113 -645h-110l115 655q18 106 18 148z" />
    <glyph glyph-name="ograve" unicode="&#xf2;" horiz-adv-x="768" 
d="M575 1194h-79l-103 279h123zM461 942q-88 0 -136 -62t-75 -210l-57 -322q-12 -78 -13 -127q0 -143 127 -143q88 0 136 62t73 208l57 322q14 74 15 127q0 145 -127 145zM461 1036q238 0 237 -233q0 -57 -18 -166l-53 -299q-33 -184 -107 -270t-213 -86q-238 0 -237 233
q0 68 18 166l51 299q35 188 108 272t214 84z" />
    <glyph glyph-name="oacute" unicode="&#xf3;" horiz-adv-x="768" 
d="M436 1194l148 279h133l-197 -279h-84zM461 942q-88 0 -136 -62t-75 -210l-57 -322q-12 -78 -13 -127q0 -143 127 -143q88 0 136 62t73 208l57 322q14 74 15 127q0 145 -127 145zM461 1036q238 0 237 -233q0 -57 -18 -166l-53 -299q-33 -184 -107 -270t-213 -86
q-238 0 -237 233q0 68 18 166l51 299q35 188 108 272t214 84z" />
    <glyph glyph-name="ocircumflex" unicode="&#xf4;" horiz-adv-x="768" 
d="M539 1376l-117 -170h-119l211 256h72l123 -256h-111zM461 942q-88 0 -136 -62t-75 -210l-57 -322q-12 -78 -13 -127q0 -143 127 -143q88 0 136 62t73 208l57 322q14 74 15 127q0 145 -127 145zM461 1036q238 0 237 -233q0 -57 -18 -166l-53 -299q-33 -184 -107 -270
t-213 -86q-238 0 -237 233q0 68 18 166l51 299q35 188 108 272t214 84z" />
    <glyph glyph-name="otilde" unicode="&#xf5;" horiz-adv-x="768" 
d="M457 1434q53 0 96 -66q41 -68 63 -68q35 0 66 117h72q-29 -109 -63 -153t-91 -45q-57 0 -98 67q-23 41 -34 53t-26 13q-34 0 -69 -117h-70q31 107 66 153t88 46zM461 942q-88 0 -136 -62t-75 -210l-57 -322q-12 -78 -13 -127q0 -143 127 -143q88 0 136 62t73 208l57 322
q14 74 15 127q0 145 -127 145zM461 1036q238 0 237 -233q0 -57 -18 -166l-53 -299q-33 -184 -107 -270t-213 -86q-238 0 -237 233q0 68 18 166l51 299q35 188 108 272t214 84z" />
    <glyph glyph-name="odieresis" unicode="&#xf6;" horiz-adv-x="768" 
d="M588 1212l33 191h100l-33 -191h-100zM328 1212l32 191h103l-35 -191h-100zM461 942q-88 0 -136 -62t-75 -210l-57 -322q-12 -78 -13 -127q0 -143 127 -143q88 0 136 62t73 208l57 322q14 74 15 127q0 145 -127 145zM461 1036q238 0 237 -233q0 -57 -18 -166l-53 -299
q-33 -184 -107 -270t-213 -86q-238 0 -237 233q0 68 18 166l51 299q35 188 108 272t214 84z" />
    <glyph glyph-name="divide" unicode="&#xf7;" 
d="M459 958l28 162h105l-29 -162h-104zM358 385l29 162h102l-26 -162h-105zM152 707l16 92h629l-17 -92h-628z" />
    <glyph glyph-name="oslash" unicode="&#xf8;" horiz-adv-x="768" 
d="M182 264l391 613q-27 65 -113 65t-135 -62q-48 -62 -75 -210l-57 -322q-11 -66 -11 -84zM310 78q84 0 133 61q48 61 75 209l57 322l5 30q2 18 4 31t2 21l-391 -611q31 -63 115 -63zM698 804q0 -56 -18 -167l-53 -299q-33 -184 -97 -262q-86 -94 -212 -94t-187 59l-45 -72
l-66 41l66 103q-16 45 -16 99t18 169l53 299q33 188 99 262q80 94 210 94t189 -59l45 70l66 -41l-66 -101q14 -45 14 -101z" />
    <glyph glyph-name="ugrave" unicode="&#xf9;" horiz-adv-x="768" 
d="M575 1194h-79l-103 279h123zM293 80q84 0 135 80t84 262l104 596h111l-178 -1018h-86l8 94q-51 -66 -93 -90t-121 -22q-79 0 -129 52t-50 137t22 204l113 643h111l-115 -653q-18 -106 -19 -152q0 -133 103 -133z" />
    <glyph glyph-name="uacute" unicode="&#xfa;" horiz-adv-x="768" 
d="M436 1194l148 279h133l-197 -279h-84zM293 80q84 0 135 80t84 262l104 596h111l-178 -1018h-86l8 94q-51 -66 -93 -90t-121 -22q-79 0 -129 52t-50 137t22 204l113 643h111l-115 -653q-18 -106 -19 -152q0 -133 103 -133z" />
    <glyph glyph-name="ucircumflex" unicode="&#xfb;" horiz-adv-x="768" 
d="M541 1376l-117 -170h-119l211 256h72l123 -256h-111zM293 80q84 0 135 80t84 262l104 596h111l-178 -1018h-86l8 94q-51 -66 -93 -90t-121 -22q-79 0 -129 52t-50 137t22 204l113 643h111l-115 -653q-18 -106 -19 -152q0 -133 103 -133z" />
    <glyph glyph-name="udieresis" unicode="&#xfc;" horiz-adv-x="768" 
d="M588 1212l33 191h100l-33 -191h-100zM328 1212l32 191h103l-35 -191h-100zM293 80q84 0 135 80t84 262l104 596h111l-178 -1018h-86l8 94q-51 -66 -93 -90t-121 -22q-79 0 -129 52t-50 137t22 204l113 643h111l-115 -653q-18 -106 -19 -152q0 -133 103 -133z" />
    <glyph glyph-name="yacute" unicode="&#xfd;" horiz-adv-x="675" 
d="M399 1194l148 279h133l-197 -279h-84zM195 -14l-60 1032h107l34 -881l324 881h113l-475 -1227q-62 -156 -126 -208t-192 -54l17 96q79 0 113 33t79 145z" />
    <glyph glyph-name="thorn" unicode="&#xfe;" horiz-adv-x="776" 
d="M598 780q0 158 -117 158q-168 0 -229 -356l-25 -144q-18 -94 -18 -166q0 -195 121 -194q151 -1 200 280l56 312q12 68 12 110zM500 1036q209 0 209 -237q0 -57 -17 -156l-51 -297q-33 -186 -105 -275t-194 -89q-66 0 -104 20t-76 74l-94 -537h-111l340 1923h111l-93 -518
q72 92 185 92z" />
    <glyph glyph-name="ydieresis" unicode="&#xff;" horiz-adv-x="675" 
d="M541 1212l32 191h101l-33 -191h-100zM281 1212l32 191h103l-35 -191h-100zM195 -14l-60 1032h107l34 -881l324 881h113l-475 -1227q-62 -156 -126 -208t-192 -54l17 96q79 0 113 33t79 145z" />
    <glyph glyph-name="Amacron" unicode="&#x100;" horiz-adv-x="802" 
d="M434 1718l15 84h342l-15 -84h-342zM571 434l-28 850l-330 -850h358zM575 338h-399l-131 -338h-125l600 1462h101l90 -1462h-123z" />
    <glyph glyph-name="amacron" unicode="&#x101;" horiz-adv-x="735" 
d="M317 1284l15 84h342l-15 -84h-342zM362 492q-121 0 -176 -76q-57 -86 -57 -219q0 -63 33 -93q32 -30 114 -28q82 0 123 47t64 176l33 193h-134zM418 942q-70 0 -113 -55t-65 -180h-105q25 152 74 219q78 111 225 110q219 0 219 -221q0 -72 -18 -166l-115 -649h-88l2 55
q-35 -41 -76 -57t-110 -16q-233 0 -234 196q0 184 79 294t263 112h156l16 94q34 180 -13 232q-27 32 -97 32z" />
    <glyph glyph-name="Abreve" unicode="&#x102;" horiz-adv-x="802" 
d="M520 1804q0 -90 80 -90q55 0 85 37t50 131h82q-20 -111 -41 -156q-53 -100 -176 -100q-166 0 -166 137q0 41 12 119h80q-6 -63 -6 -78zM571 434l-28 850l-330 -850h358zM575 338h-399l-131 -338h-125l600 1462h101l90 -1462h-123z" />
    <glyph glyph-name="abreve" unicode="&#x103;" horiz-adv-x="735" 
d="M422 1368q0 -88 82 -88q53 0 83 37t50 131h82q-20 -111 -41 -156q-53 -100 -178 -100q-78 0 -121 36t-43 101q0 33 12 119h80q-6 -57 -6 -80zM362 492q-121 0 -176 -76q-57 -86 -57 -219q0 -63 33 -93q32 -30 114 -28q82 0 123 47t64 176l33 193h-134zM418 942
q-70 0 -113 -55t-65 -180h-105q25 152 74 219q78 111 225 110q219 0 219 -221q0 -72 -18 -166l-115 -649h-88l2 55q-35 -41 -76 -57t-110 -16q-233 0 -234 196q0 184 79 294t263 112h156l16 94q34 180 -13 232q-27 32 -97 32z" />
    <glyph glyph-name="Aogonek" unicode="&#x104;" horiz-adv-x="802" 
d="M571 434l-28 850l-330 -850h358zM528 -246q0 -51 70 -51q27 0 80 14l2 -71q-59 -23 -119 -23q-141 0 -141 111q0 72 53 144t141 122h-26l-13 338h-399l-131 -338h-125l600 1462h101l90 -1462q-12 -8 -25 -18q-158 -119 -158 -228z" />
    <glyph glyph-name="aogonek" unicode="&#x105;" horiz-adv-x="735" 
d="M362 492q-121 0 -176 -76q-57 -86 -57 -219q0 -63 33 -93q32 -30 114 -28q82 0 123 47t64 176l33 193h-134zM336 -244q0 -53 72 -53q27 0 81 14v-71q-55 -23 -118 -23q-141 0 -142 111q0 154 203 270l2 51q-35 -41 -76 -57t-110 -16q-233 0 -234 196q0 184 79 294
t263 112h156l16 94q34 180 -13 232q-27 32 -97 32t-113 -55t-65 -180h-105q25 152 74 219q78 111 225 110q219 0 219 -221q0 -72 -18 -166l-115 -649l-16 -12l-6 -6q-162 -119 -162 -226z" />
    <glyph glyph-name="Cacute" unicode="&#x106;" 
d="M580 1628l147 279h133l-196 -279h-84zM362 -18q-128 0 -196 68t-68 196q0 76 21 184l112 643q37 211 111 299q94 106 234 106t212 -66q72 -67 72 -185q0 -53 -16 -142h-107q10 66 11 115q0 182 -160 182q-102 0 -159 -76q-56 -77 -87 -257l-113 -637q-16 -98 -16 -152
q0 -182 154 -182q109 0 169 74t93 251h108q-27 -162 -73 -245q-98 -176 -302 -176z" />
    <glyph glyph-name="cacute" unicode="&#x107;" horiz-adv-x="712" 
d="M432 1194l148 279h133l-197 -279h-84zM74 213q0 78 18 176l49 285q33 186 95 266q78 96 197 96t177 -58t58 -163q0 -33 -13 -113h-102q8 66 8 101q0 139 -115 139q-78 0 -124 -66t-72 -217l-51 -299q-14 -78 -15 -141q0 -141 113 -141q104 0 154 100q27 52 45 158h102
q-27 -176 -72 -242q-78 -113 -233 -112q-219 0 -219 231z" />
    <glyph glyph-name="Ccircumflex" unicode="&#x108;" 
d="M657 1808l-116 -168h-119l211 254h72l122 -254h-110zM362 -18q-128 0 -196 68t-68 196q0 76 21 184l112 643q37 211 111 299q94 106 234 106t212 -66q72 -67 72 -185q0 -53 -16 -142h-107q10 66 11 115q0 182 -160 182q-102 0 -159 -76q-56 -77 -87 -257l-113 -637
q-16 -98 -16 -152q0 -182 154 -182q109 0 169 74t93 251h108q-27 -162 -73 -245q-98 -176 -302 -176z" />
    <glyph glyph-name="ccircumflex" unicode="&#x109;" horiz-adv-x="712" 
d="M516 1376l-117 -170h-118l211 256h71l123 -256h-111zM74 213q0 78 18 176l49 285q33 186 95 266q78 96 197 96t177 -58t58 -163q0 -33 -13 -113h-102q8 66 8 101q0 139 -115 139q-78 0 -124 -66t-72 -217l-51 -299q-14 -78 -15 -141q0 -141 113 -141q104 0 154 100
q27 52 45 158h102q-27 -176 -72 -242q-78 -113 -233 -112q-219 0 -219 231z" />
    <glyph glyph-name="Cdotaccent" unicode="&#x10a;" 
d="M575 1647l33 190h109l-33 -190h-109zM362 -18q-128 0 -196 68t-68 196q0 76 21 184l112 643q37 211 111 299q94 106 234 106t212 -66q72 -67 72 -185q0 -53 -16 -142h-107q10 66 11 115q0 182 -160 182q-102 0 -159 -76q-56 -77 -87 -257l-113 -637q-16 -98 -16 -152
q0 -182 154 -182q109 0 169 74t93 251h108q-27 -162 -73 -245q-98 -176 -302 -176z" />
    <glyph glyph-name="cdotaccent" unicode="&#x10b;" horiz-adv-x="712" 
d="M432 1212l33 191h108l-32 -191h-109zM74 213q0 78 18 176l49 285q33 186 95 266q78 96 197 96t177 -58t58 -163q0 -33 -13 -113h-102q8 66 8 101q0 139 -115 139q-78 0 -124 -66t-72 -217l-51 -299q-14 -78 -15 -141q0 -141 113 -141q104 0 154 100q27 52 45 158h102
q-27 -176 -72 -242q-78 -113 -233 -112q-219 0 -219 231z" />
    <glyph glyph-name="Ccaron" unicode="&#x10c;" 
d="M633 1724l117 168h118l-211 -254h-71l-123 254h110zM362 -18q-128 0 -196 68t-68 196q0 76 21 184l112 643q37 211 111 299q94 106 234 106t212 -66q72 -67 72 -185q0 -53 -16 -142h-107q10 66 11 115q0 182 -160 182q-102 0 -159 -76q-56 -77 -87 -257l-113 -637
q-16 -98 -16 -152q0 -182 154 -182q109 0 169 74t93 251h108q-27 -162 -73 -245q-98 -176 -302 -176z" />
    <glyph glyph-name="ccaron" unicode="&#x10d;" horiz-adv-x="712" 
d="M504 1290l117 168h118l-211 -254h-71l-123 254h110zM74 213q0 78 18 176l49 285q33 186 95 266q78 96 197 96t177 -58t58 -163q0 -33 -13 -113h-102q8 66 8 101q0 139 -115 139q-78 0 -124 -66t-72 -217l-51 -299q-14 -78 -15 -141q0 -141 113 -141q104 0 154 100
q27 52 45 158h102q-27 -176 -72 -242q-78 -113 -233 -112q-219 0 -219 231z" />
    <glyph glyph-name="Dcaron" unicode="&#x10e;" horiz-adv-x="919" 
d="M618 1724l117 168h119l-211 -254h-72l-122 254h110zM784 1180q0 186 -194 186h-172l-225 -1270h174q125 -2 195 76t97 246l111 626q14 72 14 136zM590 1462q154 0 223 -57q88 -72 88 -215q0 -49 -16 -148l-117 -665q-59 -383 -397 -377h-310l258 1462h271z" />
    <glyph glyph-name="dcaron" unicode="&#x10f;" horiz-adv-x="876" 
d="M862 1051l109 419h112l-143 -419h-78zM305 80q162 0 225 358l25 144q18 94 18 168q0 190 -124 190q-148 0 -197 -270l-53 -303q-10 -61 -11 -125q0 -162 117 -162zM76 225q0 76 16 164l53 297q31 182 103 266t194 84q68 0 108 -22t68 -74l93 522h112l-258 -1462h-88l6 90
q-78 -109 -194 -108q-213 0 -213 243z" />
    <glyph glyph-name="Dcroat" unicode="&#x110;" horiz-adv-x="919" 
d="M784 1180q0 186 -194 186h-172l-103 -578h217l-16 -96h-217l-106 -596h174q125 -2 195 76t97 246l111 626q14 72 14 136zM590 1462q154 0 223 -57q88 -72 88 -215q0 -49 -16 -148l-117 -665q-59 -383 -397 -377h-310l123 692h-110l16 96h111l118 674h271z" />
    <glyph glyph-name="dcroat" unicode="&#x111;" horiz-adv-x="782" 
d="M305 80q162 0 225 358l25 144q18 94 18 168q0 190 -124 190q-148 0 -197 -270l-53 -303q-10 -61 -11 -125q0 -162 117 -162zM76 225q0 76 16 164l53 297q31 182 103 266t194 84q68 0 108 -22t68 -74l44 240h-203l16 88h203l33 194h112l-35 -194h101l-17 -88h-100
l-207 -1180h-88l6 90q-78 -109 -194 -108q-213 0 -213 243z" />
    <glyph glyph-name="Emacron" unicode="&#x112;" horiz-adv-x="784" 
d="M465 1718l14 84h342l-14 -84h-342zM63 0l259 1462h548l-16 -98h-436l-101 -576h369l-16 -98h-371l-104 -592h436l-17 -98h-551z" />
    <glyph glyph-name="emacron" unicode="&#x113;" horiz-adv-x="747" 
d="M336 1284l14 84h342l-14 -84h-342zM580 801q0 141 -125 141q-84 0 -131 -61t-72 -205l-16 -88h317q27 156 27 213zM307 78q84 0 131 57t70 189h104q-25 -156 -69 -226q-76 -117 -242 -116q-113 0 -171 61t-58 176q0 63 18 170l49 281q37 197 97 270q84 96 221 96
q229 0 229 -233q0 -51 -41 -307h-426l-26 -148q-10 -57 -11 -129q0 -141 125 -141z" />
    <glyph glyph-name="Ebreve" unicode="&#x114;" horiz-adv-x="784" 
d="M547 1804q0 -90 80 -90q55 0 85 37t50 131h82q-20 -111 -41 -156q-53 -100 -176 -100q-166 0 -166 137q0 41 12 119h80q-6 -63 -6 -78zM63 0l259 1462h548l-16 -98h-436l-101 -576h369l-16 -98h-371l-104 -592h436l-17 -98h-551z" />
    <glyph glyph-name="ebreve" unicode="&#x115;" horiz-adv-x="747" 
d="M426 1368q0 -88 82 -88q53 0 83 37t50 131h82q-20 -111 -41 -156q-53 -100 -178 -100q-78 0 -121 36t-43 101q0 33 12 119h80q-6 -57 -6 -80zM580 801q0 141 -125 141q-84 0 -131 -61t-72 -205l-16 -88h317q27 156 27 213zM307 78q84 0 131 57t70 189h104
q-25 -156 -69 -226q-76 -117 -242 -116q-113 0 -171 61t-58 176q0 63 18 170l49 281q37 197 97 270q84 96 221 96q229 0 229 -233q0 -51 -41 -307h-426l-26 -148q-10 -57 -11 -129q0 -141 125 -141z" />
    <glyph glyph-name="Edotaccent" unicode="&#x116;" horiz-adv-x="784" 
d="M567 1647l33 190h109l-33 -190h-109zM63 0l259 1462h548l-16 -98h-436l-101 -576h369l-16 -98h-371l-104 -592h436l-17 -98h-551z" />
    <glyph glyph-name="edotaccent" unicode="&#x117;" horiz-adv-x="747" 
d="M446 1212l33 191h109l-33 -191h-109zM580 801q0 141 -125 141q-84 0 -131 -61t-72 -205l-16 -88h317q27 156 27 213zM307 78q84 0 131 57t70 189h104q-25 -156 -69 -226q-76 -117 -242 -116q-113 0 -171 61t-58 176q0 63 18 170l49 281q37 197 97 270q84 96 221 96
q229 0 229 -233q0 -51 -41 -307h-426l-26 -148q-10 -57 -11 -129q0 -141 125 -141z" />
    <glyph glyph-name="Eogonek" unicode="&#x118;" horiz-adv-x="784" 
d="M430 -246q0 -51 70 -51q29 0 82 14l2 -71q-59 -23 -119 -23q-141 0 -141 111q0 72 53 144t141 122h-455l259 1462h548l-16 -98h-436l-101 -576h369l-16 -98h-371l-104 -592h436l-17 -98q-2 -2 -6 -5t-6 -5l-4 -2l-8 -6q-160 -117 -160 -228z" />
    <glyph glyph-name="eogonek" unicode="&#x119;" horiz-adv-x="747" 
d="M580 801q0 141 -125 141q-84 0 -131 -61t-72 -205l-16 -88h317q27 156 27 213zM256 -244q0 -53 70 -53q29 0 82 14v-71q-55 -23 -119 -23q-141 0 -142 113q0 129 148 248q-223 6 -223 235q0 63 18 170l49 281q37 197 97 270q84 96 221 96q229 0 229 -233q0 -51 -41 -307
h-426l-26 -148q-10 -57 -11 -129q0 -141 125 -141q84 0 131 58t70 188h104q-18 -139 -60 -212t-124 -106q-80 -66 -106 -96q-66 -82 -66 -154z" />
    <glyph glyph-name="Ecaron" unicode="&#x11a;" horiz-adv-x="784" 
d="M633 1724l117 168h118l-211 -254h-71l-123 254h110zM63 0l259 1462h548l-16 -98h-436l-101 -576h369l-16 -98h-371l-104 -592h436l-17 -98h-551z" />
    <glyph glyph-name="ecaron" unicode="&#x11b;" horiz-adv-x="747" 
d="M512 1290l117 168h119l-211 -254h-72l-123 254h111zM580 801q0 141 -125 141q-84 0 -131 -61t-72 -205l-16 -88h317q27 156 27 213zM307 78q84 0 131 57t70 189h104q-25 -156 -69 -226q-76 -117 -242 -116q-113 0 -171 61t-58 176q0 63 18 170l49 281q37 197 97 270
q84 96 221 96q229 0 229 -233q0 -51 -41 -307h-426l-26 -148q-10 -57 -11 -129q0 -141 125 -141z" />
    <glyph glyph-name="Gcircumflex" unicode="&#x11c;" horiz-adv-x="890" 
d="M664 1808l-117 -168h-119l211 254h72l123 -254h-111zM98 254q0 61 19 178l112 641q39 213 124 309t229 96t216 -64q73 -65 72 -183q0 -51 -14 -146h-106q8 80 8 117q0 180 -164 180q-106 0 -164 -75q-57 -76 -90 -258l-111 -635q-16 -88 -16 -148q0 -188 168 -188
q217 0 276 334l41 241h-188l16 95h303l-59 -336q-39 -215 -119 -310q-100 -121 -272 -120q-137 0 -209 70t-72 202z" />
    <glyph glyph-name="gcircumflex" unicode="&#x11d;" horiz-adv-x="782" 
d="M549 1376l-117 -170h-119l211 256h72l123 -256h-111zM303 80q162 0 225 358l27 144q18 109 18 168q0 190 -124 190q-152 0 -197 -270l-55 -308q-10 -55 -11 -122q0 -160 117 -160zM285 -18q-211 0 -211 243q0 74 16 164l53 297q33 182 104 266t197 84t181 -100l30 82h88
l-202 -1141q-35 -193 -106 -273t-191 -81q-231 0 -234 178q0 47 13 119h102q-8 -55 -8 -84q0 -119 112 -119q84 -1 130 61t73 209l33 185q-76 -90 -180 -90z" />
    <glyph glyph-name="Gbreve" unicode="&#x11e;" horiz-adv-x="890" 
d="M551 1804q0 -90 80 -90q55 0 85 37t50 131h82q-20 -111 -41 -156q-53 -100 -176 -100q-166 0 -166 137q0 41 12 119h80q-6 -63 -6 -78zM98 254q0 61 19 178l112 641q39 213 124 309t229 96t216 -64q73 -65 72 -183q0 -51 -14 -146h-106q8 80 8 117q0 180 -164 180
q-106 0 -164 -75q-57 -76 -90 -258l-111 -635q-16 -88 -16 -148q0 -188 168 -188q217 0 276 334l41 241h-188l16 95h303l-59 -336q-39 -215 -119 -310q-100 -121 -272 -120q-137 0 -209 70t-72 202z" />
    <glyph glyph-name="gbreve" unicode="&#x11f;" horiz-adv-x="782" 
d="M461 1368q0 -88 82 -88q53 0 83 37t50 131h82q-20 -111 -41 -156q-53 -100 -178 -100q-78 0 -121 36t-43 101q0 33 12 119h80q-6 -57 -6 -80zM303 80q162 0 225 358l27 144q18 109 18 168q0 190 -124 190q-152 0 -197 -270l-55 -308q-10 -55 -11 -122q0 -160 117 -160z
M285 -18q-211 0 -211 243q0 74 16 164l53 297q33 182 104 266t197 84t181 -100l30 82h88l-202 -1141q-35 -193 -106 -273t-191 -81q-231 0 -234 178q0 47 13 119h102q-8 -55 -8 -84q0 -119 112 -119q84 -1 130 61t73 209l33 185q-76 -90 -180 -90z" />
    <glyph glyph-name="Gdotaccent" unicode="&#x120;" horiz-adv-x="890" 
d="M578 1647l32 190h109l-33 -190h-108zM98 254q0 61 19 178l112 641q39 213 124 309t229 96t216 -64q73 -65 72 -183q0 -51 -14 -146h-106q8 80 8 117q0 180 -164 180q-106 0 -164 -75q-57 -76 -90 -258l-111 -635q-16 -88 -16 -148q0 -188 168 -188q217 0 276 334l41 241
h-188l16 95h303l-59 -336q-39 -215 -119 -310q-100 -121 -272 -120q-137 0 -209 70t-72 202z" />
    <glyph glyph-name="gdotaccent" unicode="&#x121;" horiz-adv-x="782" 
d="M477 1212l33 191h108l-32 -191h-109zM303 80q162 0 225 358l27 144q18 109 18 168q0 190 -124 190q-152 0 -197 -270l-55 -308q-10 -55 -11 -122q0 -160 117 -160zM285 -18q-211 0 -211 243q0 74 16 164l53 297q33 182 104 266t197 84t181 -100l30 82h88l-202 -1141
q-35 -193 -106 -273t-191 -81q-231 0 -234 178q0 47 13 119h102q-8 -55 -8 -84q0 -119 112 -119q84 -1 130 61t73 209l33 185q-76 -90 -180 -90z" />
    <glyph glyph-name="Gcommaaccent" unicode="&#x122;" horiz-adv-x="890" 
d="M162 -438l119 288h118l-161 -288h-76zM98 254q0 61 19 178l112 641q39 213 124 309t229 96t216 -64q73 -65 72 -183q0 -51 -14 -146h-106q8 80 8 117q0 180 -164 180q-106 0 -164 -75q-57 -76 -90 -258l-111 -635q-16 -88 -16 -148q0 -188 168 -188q217 0 276 334l41 241
h-188l16 95h303l-59 -336q-39 -215 -119 -310q-100 -121 -272 -120q-137 0 -209 70t-72 202z" />
    <glyph glyph-name="gcommaaccent" unicode="&#x123;" horiz-adv-x="782" 
d="M459 1194l196 279h84l-149 -279h-131zM303 80q162 0 225 358l27 144q18 109 18 168q0 190 -124 190q-152 0 -197 -270l-55 -308q-10 -55 -11 -122q0 -160 117 -160zM285 -18q-211 0 -211 243q0 74 16 164l53 297q33 182 104 266t197 84t181 -100l30 82h88l-202 -1141
q-35 -193 -106 -273t-191 -81q-231 0 -234 178q0 47 13 119h102q-8 -55 -8 -84q0 -119 112 -119q84 -1 130 61t73 209l33 185q-76 -90 -180 -90z" />
    <glyph glyph-name="Hcircumflex" unicode="&#x124;" horiz-adv-x="925" 
d="M690 1808l-117 -168h-118l211 254h71l123 -254h-110zM63 0l259 1462h114l-119 -674h392l118 674h115l-258 -1462h-115l123 690h-393l-121 -690h-115z" />
    <glyph glyph-name="hcircumflex" unicode="&#x125;" horiz-adv-x="784" 
d="M453 1808l-117 -168h-119l211 254h72l123 -254h-111zM502 1036q204 0 207 -205q0 -72 -23 -186l-113 -645h-110l115 655q18 100 18 144q0 139 -111 139q-88 0 -141 -79t-86 -261l-106 -598h-111l258 1462h111l-91 -512q79 86 183 86z" />
    <glyph glyph-name="Hbar" unicode="&#x126;" horiz-adv-x="925" 
d="M315 788h392l41 228h-394zM61 0l179 1016h-86l16 90h86l63 356h115l-63 -356h393l61 356h115l-61 -356h86l-17 -90h-86l-180 -1016h-115l123 690h-393l-121 -690h-115z" />
    <glyph glyph-name="hbar" unicode="&#x127;" horiz-adv-x="784" 
d="M502 1036q204 0 207 -205q0 -72 -23 -186l-113 -645h-110l115 655q18 102 18 146q0 137 -111 137q-88 0 -141 -79t-86 -261l-106 -598h-111l209 1180h-107l17 88h104l35 194h111l-35 -194h198l-14 -88h-199l-41 -230q79 86 183 86z" />
    <glyph glyph-name="Itilde" unicode="&#x128;" horiz-adv-x="417" 
d="M360 1868q53 0 97 -66q41 -68 63 -67q37 0 66 116h71q-27 -106 -61 -152t-92 -46q-57 0 -98 67q-23 42 -34 54t-26 12q-35 0 -70 -117h-69q31 106 65 153q35 46 88 46zM63 0l259 1462h114l-258 -1462h-115z" />
    <glyph glyph-name="itilde" unicode="&#x129;" horiz-adv-x="376" 
d="M262 1434q53 0 96 -66q41 -68 64 -68q35 0 65 117h72q-29 -109 -63 -153t-90 -45q-58 0 -90 54t-43 66t-25 13q-35 0 -70 -117h-69q31 106 65 153q35 46 88 46zM43 0l180 1018h111l-180 -1018h-111z" />
    <glyph glyph-name="Imacron" unicode="&#x12a;" horiz-adv-x="417" 
d="M252 1718l14 84h342l-14 -84h-342zM63 0l259 1462h114l-258 -1462h-115z" />
    <glyph glyph-name="imacron" unicode="&#x12b;" horiz-adv-x="376" 
d="M154 1284l14 84h342l-14 -84h-342zM43 0l180 1018h111l-180 -1018h-111z" />
    <glyph glyph-name="Ibreve" unicode="&#x12c;" horiz-adv-x="417" 
d="M340 1804q0 -90 80 -90q55 0 85 37t50 131h82q-20 -111 -41 -156q-53 -100 -176 -100q-166 0 -166 137q0 41 12 119h80q-6 -63 -6 -78zM61 0l258 1462h115l-258 -1462h-115z" />
    <glyph glyph-name="ibreve" unicode="&#x12d;" horiz-adv-x="376" 
d="M242 1368q0 -88 82 -88q53 0 83 37t50 131h82q-20 -111 -41 -156q-53 -100 -179 -100q-79 0 -121 36t-42 85t12 135h80q-6 -59 -6 -80zM43 0l180 1018h111l-180 -1018h-111z" />
    <glyph glyph-name="Iogonek" unicode="&#x12e;" horiz-adv-x="417" 
d="M-6 -246q0 -51 69 -51q29 0 82 14v-71q-59 -23 -118 -23q-141 0 -142 111q-1 70 55 144t142 122h-21l258 1462h115l-258 -1462l-16 -12l-6 -6q-160 -117 -160 -228z" />
    <glyph glyph-name="iogonek" unicode="&#x12f;" horiz-adv-x="376" 
d="M266 1272l35 192h111l-33 -192h-113zM-29 -246q0 -51 70 -51q29 0 82 14v-71q-59 -23 -119 -23q-141 0 -141 111q0 72 52 144t142 122h-14l180 1018h111l-180 -1018l-17 -12l-6 -6q-160 -117 -160 -228z" />
    <glyph glyph-name="Idotaccent" unicode="&#x130;" horiz-adv-x="417" 
d="M354 1647l33 190h109l-33 -190h-109zM61 0l258 1462h115l-258 -1462h-115z" />
    <glyph glyph-name="dotlessi" unicode="&#x131;" horiz-adv-x="376" 
d="M43 0l180 1018h111l-180 -1018h-111z" />
    <glyph glyph-name="IJ" unicode="&#x132;" horiz-adv-x="835" 
d="M264 -496q-70 0 -141 31l61 88q33 -20 74 -20q106 0 160 118q25 53 53 222l268 1519h115l-270 -1534q-41 -223 -84 -295q-80 -129 -236 -129zM63 0l259 1462h114l-258 -1462h-115z" />
    <glyph glyph-name="ij" unicode="&#x133;" horiz-adv-x="739" 
d="M586 1018h110l-190 -1081q-35 -229 -113 -321t-229 -87l16 96q86 -6 136 68t79 244zM629 1272l35 192h110l-33 -192h-112zM43 0l180 1018h111l-180 -1018h-111zM268 1272l33 192h111l-33 -192h-111z" />
    <glyph glyph-name="Jcircumflex" unicode="&#x134;" horiz-adv-x="598" 
d="M604 1808l-117 -168h-118l211 254h71l123 -254h-110zM125 -16q-153 0 -229 114l84 70q33 -51 62 -70q30 -18 73 -18q104 0 157 121q25 49 56 221l182 1040h115l-187 -1056q-29 -158 -41 -203t-39 -90q-80 -129 -233 -129z" />
    <glyph glyph-name="jcircumflex" unicode="&#x135;" horiz-adv-x="382" 
d="M346 1376l-117 -170h-118l211 256h71l123 -256h-110zM227 1018h111l-191 -1081q-33 -229 -111 -322q-79 -92 -231 -86l17 96q86 -6 136 68t79 244z" />
    <glyph glyph-name="Kcommaaccent" unicode="&#x136;" horiz-adv-x="835" 
d="M205 -438l119 288h118l-161 -288h-76zM63 0l259 1462h114l-139 -788l541 788h127l-433 -608l203 -854h-117l-172 754l-182 -269l-86 -485h-115z" />
    <glyph glyph-name="kcommaaccent" unicode="&#x137;" horiz-adv-x="743" 
d="M119 -438l119 288h118l-161 -288h-76zM43 0l258 1462h111l-183 -1036l396 592h123l-306 -430l146 -588h-117l-109 494l-163 -244l-45 -250h-111z" />
    <glyph glyph-name="kgreenlandic" unicode="&#x138;" horiz-adv-x="743" 
d="M43 0l180 1018h111l-105 -592l396 592h123l-306 -430l146 -588h-117l-109 494l-163 -242l-45 -252h-111z" />
    <glyph glyph-name="Lacute" unicode="&#x139;" horiz-adv-x="743" 
d="M375 1628l147 279h133l-196 -279h-84zM61 0l258 1462h115l-241 -1364h450l-18 -98h-564z" />
    <glyph glyph-name="lacute" unicode="&#x13a;" horiz-adv-x="419" 
d="M338 1628l147 279h133l-196 -279h-84zM266 0q-190 0 -190 133q0 65 16 164l205 1165h111l-209 -1186q-9 -61 -9 -101t22 -59t75 -20h24l-16 -96h-29z" />
    <glyph glyph-name="Lcommaaccent" unicode="&#x13b;" horiz-adv-x="743" 
d="M156 -438l118 288h119l-162 -288h-75zM61 0l258 1462h115l-241 -1364h450l-18 -98h-564z" />
    <glyph glyph-name="lcommaaccent" unicode="&#x13c;" horiz-adv-x="419" 
d="M-43 -438l119 288h119l-162 -288h-76zM193 181q-1 -46 21 -65t75 -20h24l-18 -96h-27q-102 0 -146 34t-44 102t16 161l205 1165h111l-209 -1186q-8 -49 -8 -95z" />
    <glyph glyph-name="Lcaron" unicode="&#x13d;" horiz-adv-x="743" 
d="M502 1051l108 419h113l-143 -419h-78zM61 0l258 1462h115l-241 -1364h450l-18 -98h-564z" />
    <glyph glyph-name="lcaron" unicode="&#x13e;" horiz-adv-x="485" 
d="M467 1051l108 419h113l-143 -419h-78zM266 0q-190 0 -190 133q0 65 16 164l205 1165h111l-209 -1186q-9 -61 -9 -101t22 -59t75 -20h24l-16 -96h-29z" />
    <glyph glyph-name="Ldot" unicode="&#x13f;" horiz-adv-x="743" 
d="M535 668l30 170h103l-31 -170h-102zM61 0l258 1462h115l-241 -1364h450l-18 -98h-564z" />
    <glyph glyph-name="ldot" unicode="&#x140;" horiz-adv-x="458" 
d="M383 668l29 170h102l-31 -170h-100zM266 0q-190 0 -190 133q0 65 16 164l205 1165h111l-209 -1186q-9 -61 -9 -101t22 -59t75 -20h24l-16 -96h-29z" />
    <glyph glyph-name="Lslash" unicode="&#x141;" horiz-adv-x="743" 
d="M63 0l80 453l-116 -105l22 125l117 107l156 882h114l-137 -780l313 283l-22 -127l-314 -283l-79 -457h448l-18 -98h-564z" />
    <glyph glyph-name="lslash" unicode="&#x142;" horiz-adv-x="430" 
d="M274 0q-192 0 -192 134q0 66 14 145l60 331l-146 -127l23 129l145 127l127 723h111l-111 -624l180 157l-22 -129l-180 -157l-76 -433q-10 -66 -10 -104q0 -75 98 -76h22l-16 -96h-27z" />
    <glyph glyph-name="Nacute" unicode="&#x143;" horiz-adv-x="976" 
d="M627 1628l147 279h133l-196 -279h-84zM63 0l259 1462h112l240 -1206l211 1206h110l-258 -1462h-108l-242 1210l-213 -1210h-111z" />
    <glyph glyph-name="nacute" unicode="&#x144;" horiz-adv-x="784" 
d="M446 1194l148 279h133l-197 -279h-84zM596 803q0 135 -111 135q-88 0 -141 -79t-86 -261l-106 -598h-111l180 1018h84l-6 -86q51 61 95 83q44 21 128 21t135 -53t51 -141t-22 -197l-113 -645h-110l115 655q18 106 18 148z" />
    <glyph glyph-name="Ncommaaccent" unicode="&#x145;" horiz-adv-x="976" 
d="M221 -438l119 288h119l-162 -288h-76zM63 0l259 1462h112l240 -1206l211 1206h110l-258 -1462h-108l-242 1210l-213 -1210h-111z" />
    <glyph glyph-name="ncommaaccent" unicode="&#x146;" horiz-adv-x="784" 
d="M127 -438l119 288h119l-162 -288h-76zM596 803q0 135 -111 135q-88 0 -141 -79t-86 -261l-106 -598h-111l180 1018h84l-6 -86q51 61 95 83q44 21 128 21t135 -53t51 -141t-22 -197l-113 -645h-110l115 655q18 106 18 148z" />
    <glyph glyph-name="Ncaron" unicode="&#x147;" horiz-adv-x="976" 
d="M698 1724l117 168h119l-211 -254h-72l-123 254h111zM63 0l259 1462h112l240 -1206l211 1206h110l-258 -1462h-108l-242 1210l-213 -1210h-111z" />
    <glyph glyph-name="ncaron" unicode="&#x148;" horiz-adv-x="784" 
d="M522 1290l117 168h119l-211 -254h-72l-123 254h111zM596 803q0 135 -111 135q-88 0 -141 -79t-86 -261l-106 -598h-111l180 1018h84l-6 -86q51 61 95 83q44 21 128 21t135 -53t51 -141t-22 -197l-113 -645h-110l115 655q18 106 18 148z" />
    <glyph glyph-name="napostrophe" unicode="&#x149;" horiz-adv-x="845" 
d="M90 997l129 465h119l-156 -465h-92zM741 844q0 -86 -22 -199l-113 -645h-110l114 655q18 104 19 146q0 137 -111 137q-88 0 -141 -79t-86 -261l-107 -598h-110l180 1018h84l-6 -86q51 59 96 82q45 22 128 22t134 -53t51 -139z" />
    <glyph glyph-name="Eng" unicode="&#x14a;" horiz-adv-x="976" 
d="M63 0l259 1462h112l240 -1206l211 1206h110l-270 -1532q-35 -219 -112 -311t-226 -90l16 94q82 -8 134 66q51 74 79 237l13 74l-242 1210l-213 -1210h-111z" />
    <glyph glyph-name="eng" unicode="&#x14b;" horiz-adv-x="784" 
d="M596 803q0 135 -111 135q-88 0 -141 -79t-86 -261l-106 -598h-111l180 1018h84l-6 -86q51 61 95 83q44 21 128 21t135 -53t51 -133t-22 -205l-123 -706q-33 -221 -112 -317q-80 -95 -232 -93l19 96q84 -6 135 69t78 243l127 718q18 106 18 148z" />
    <glyph glyph-name="Omacron" unicode="&#x14c;" horiz-adv-x="917" 
d="M477 1718l15 84h342l-15 -84h-342zM786 1206q0 78 -48 128t-132 50q-123 0 -192 -102q-45 -72 -74 -233l-113 -635q-14 -90 -14 -162t47 -123t133 -51q125 0 191 102q46 70 75 234l111 635q16 79 16 157zM594 1481q156 0 231 -73q76 -73 76 -210q0 -59 -16 -158
l-117 -661q-20 -115 -44 -175t-69 -112q-93 -110 -249 -110q-308 1 -308 282q1 60 17 158l116 661q20 115 43 175t68 112q96 111 252 111z" />
    <glyph glyph-name="omacron" unicode="&#x14d;" horiz-adv-x="768" 
d="M348 1284l14 84h343l-15 -84h-342zM461 942q-88 0 -136 -62t-75 -210l-57 -322q-12 -78 -13 -127q0 -143 127 -143q88 0 136 62t73 208l57 322q14 74 15 127q0 145 -127 145zM461 1036q238 0 237 -233q0 -57 -18 -166l-53 -299q-33 -184 -107 -270t-213 -86
q-238 0 -237 233q0 68 18 166l51 299q35 188 108 272t214 84z" />
    <glyph glyph-name="Obreve" unicode="&#x14e;" horiz-adv-x="917" 
d="M592 1804q0 -90 80 -90q55 0 85 37t50 131h82q-20 -111 -41 -156q-53 -100 -176 -100q-166 0 -166 137q0 41 12 119h80q-6 -63 -6 -78zM786 1206q0 78 -48 128t-132 50q-123 0 -192 -102q-45 -72 -74 -233l-113 -635q-14 -90 -14 -162t47 -123t133 -51q125 0 191 102
q46 70 75 234l111 635q16 79 16 157zM594 1481q156 0 231 -73q76 -73 76 -210q0 -59 -16 -158l-117 -661q-20 -115 -44 -175t-69 -112q-93 -110 -249 -110q-308 1 -308 282q1 60 17 158l116 661q20 115 43 175t68 112q96 111 252 111z" />
    <glyph glyph-name="obreve" unicode="&#x14f;" horiz-adv-x="768" 
d="M438 1368q0 -88 82 -88q53 0 83 37t50 131h82q-20 -111 -41 -156q-53 -100 -178 -100q-78 0 -121 36t-43 85t13 135h79q-6 -57 -6 -80zM461 942q-88 0 -136 -62t-75 -210l-57 -322q-12 -78 -13 -127q0 -143 127 -143q88 0 136 62t73 208l57 322q14 74 15 127
q0 145 -127 145zM461 1036q238 0 237 -233q0 -57 -18 -166l-53 -299q-33 -184 -107 -270t-213 -86q-238 0 -237 233q0 68 18 166l51 299q35 188 108 272t214 84z" />
    <glyph glyph-name="Ohungarumlaut" unicode="&#x150;" horiz-adv-x="917" 
d="M698 1628l127 279h121l-170 -279h-78zM518 1628l129 279h119l-170 -279h-78zM786 1206q0 78 -48 128t-132 50q-123 0 -192 -102q-45 -72 -74 -233l-113 -635q-14 -90 -14 -162t47 -123t133 -51q125 0 191 102q46 70 75 234l111 635q16 79 16 157zM594 1481q156 0 231 -73
q76 -73 76 -210q0 -59 -16 -158l-117 -661q-20 -115 -44 -175t-69 -112q-93 -110 -249 -110q-308 1 -308 282q1 60 17 158l116 661q20 115 43 175t68 112q96 111 252 111z" />
    <glyph glyph-name="ohungarumlaut" unicode="&#x151;" horiz-adv-x="768" 
d="M547 1194l127 279h121l-170 -279h-78zM367 1194l129 279h118l-170 -279h-77zM461 942q-88 0 -136 -62t-75 -210l-57 -322q-12 -78 -13 -127q0 -143 127 -143q88 0 136 62t73 208l57 322q14 74 15 127q0 145 -127 145zM461 1036q238 0 237 -233q0 -57 -18 -166l-53 -299
q-33 -184 -107 -270t-213 -86q-238 0 -237 233q0 68 18 166l51 299q35 188 108 272t214 84z" />
    <glyph glyph-name="OE" unicode="&#x152;" horiz-adv-x="1306" 
d="M213 270q1 -190 189 -190q96 0 162 82t95 252l113 633q16 93 16 163t-47 121t-145 51q-197 0 -256 -335l-113 -633q-14 -96 -14 -144zM98 260q0 59 17 162l116 659q20 111 45 174t70 115q98 111 261 111t233 -111l16 92h539l-19 -98h-434l-102 -576h370l-16 -98h-371
l-104 -592h436l-18 -98h-537l16 92q-98 -110 -236 -110t-210 72t-72 206z" />
    <glyph glyph-name="oe" unicode="&#x153;" horiz-adv-x="1187" 
d="M1022 799q0 143 -125 143q-86 0 -133 -61t-72 -205l-16 -88h317q29 160 29 211zM307 78q88 0 136 62t75 208l57 322q12 68 13 123q0 150 -127 149q-88 0 -136 -62t-75 -210l-55 -322q-14 -72 -15 -127q0 -143 127 -143zM472 1036q150 0 200 -118q80 119 229 118
q111 0 169 -59t58 -151t-43 -330h-430l-26 -148q-14 -92 -15 -123q0 -147 127 -147q88 0 137 57q48 57 70 189h105q-25 -158 -70 -226q-76 -116 -236 -116t-210 124q-86 -125 -236 -124q-231 0 -231 229q0 56 16 160l53 299q35 195 99 270q84 96 234 96z" />
    <glyph glyph-name="Racute" unicode="&#x154;" horiz-adv-x="880" 
d="M547 1628l147 279h133l-196 -279h-84zM438 752q92 0 144 24t92 84q84 125 84 307q0 99 -44 149t-161 50h-135l-109 -614h129zM555 1462q178 0 250 -72t72 -197q0 -126 -33 -235q-33 -108 -89 -180t-165 -106l100 -672h-125l-88 657h-182l-117 -657h-115l259 1462h233z
" />
    <glyph glyph-name="racute" unicode="&#x155;" horiz-adv-x="532" 
d="M356 1194l148 279h133l-197 -279h-84zM455 940q-72 0 -123 -104t-92 -336l-88 -500h-111l180 1018h86l-4 -92q72 111 176 110q70 0 129 -51l-69 -92q-39 47 -84 47z" />
    <glyph glyph-name="Rcommaaccent" unicode="&#x156;" horiz-adv-x="880" 
d="M178 -438l119 288h119l-162 -288h-76zM438 752q92 0 144 24t92 84q84 125 84 307q0 99 -44 149t-161 50h-135l-109 -614h129zM555 1462q178 0 250 -72t72 -197q0 -126 -33 -235q-33 -108 -89 -180t-165 -106l100 -672h-125l-88 657h-182l-117 -657h-115l259 1462h233z
" />
    <glyph glyph-name="rcommaaccent" unicode="&#x157;" horiz-adv-x="532" 
d="M-100 -438l118 288h119l-162 -288h-75zM455 940q-72 0 -123 -104t-92 -336l-88 -500h-111l178 1018h88l-4 -92q39 59 79 85q40 25 104 25t120 -51l-67 -92q-39 47 -84 47z" />
    <glyph glyph-name="Rcaron" unicode="&#x158;" horiz-adv-x="880" 
d="M604 1724l117 168h119l-211 -254h-72l-123 254h111zM438 752q92 0 144 24t92 84q84 125 84 307q0 99 -44 149t-161 50h-135l-109 -614h129zM555 1462q178 0 250 -72t72 -197q0 -126 -33 -235q-33 -108 -89 -180t-165 -106l100 -672h-125l-88 657h-182l-117 -657h-115
l259 1462h233z" />
    <glyph glyph-name="rcaron" unicode="&#x159;" horiz-adv-x="532" 
d="M422 1290l117 168h118l-211 -254h-71l-123 254h110zM455 940q-72 0 -123 -104t-92 -336l-88 -500h-111l180 1018h86l-4 -92q72 111 176 110q70 0 129 -51l-69 -92q-39 47 -84 47z" />
    <glyph glyph-name="Sacute" unicode="&#x15a;" horiz-adv-x="800" 
d="M530 1628l148 279h133l-197 -279h-84zM156 266q0 -188 174 -188q141 0 207 153q49 117 49 244t-79 177q-22 14 -117 60t-143 121t-48 193q0 178 86 315t252 138q125 0 195 -70t69 -190q0 -53 -17 -134h-108q12 63 12 115q0 182 -153 182q-109 0 -165 -111t-56 -214
t36 -155q38 -52 146 -105t156 -115t48 -217t-77 -305q-98 -178 -295 -178q-131 0 -207 70t-76 188q0 59 18 163h105q-12 -84 -12 -137z" />
    <glyph glyph-name="sacute" unicode="&#x15b;" horiz-adv-x="688" 
d="M397 1194l148 279h133l-197 -279h-84zM127 211q0 -133 141 -133q92 0 153 72q60 72 60 180q0 58 -24 82q-23 24 -39 31t-108 38t-135 82q-44 51 -44 142q0 151 78 241t196 90t177 -54t59 -155q0 -43 -14 -116h-103q10 61 11 102q0 129 -119 129q-78 0 -127 -64t-49 -149
q0 -84 53 -125q25 -16 126 -51t136 -81t35 -124q0 -166 -88 -266t-218 -100t-196 55t-65 156q0 53 16 143h102q-14 -86 -14 -125z" />
    <glyph glyph-name="Scircumflex" unicode="&#x15c;" horiz-adv-x="800" 
d="M610 1808l-116 -168h-119l211 254h71l123 -254h-110zM156 266q0 -188 174 -188q141 0 207 153q49 117 49 244t-79 177q-22 14 -117 60t-143 121t-48 193q0 178 86 315t252 138q125 0 195 -70t69 -190q0 -53 -17 -134h-108q12 63 12 115q0 182 -153 182q-109 0 -165 -111
t-56 -214t36 -155q38 -52 146 -105t156 -115t48 -217t-77 -305q-98 -178 -295 -178q-131 0 -207 70t-76 188q0 59 18 163h105q-12 -84 -12 -137z" />
    <glyph glyph-name="scircumflex" unicode="&#x15d;" horiz-adv-x="688" 
d="M498 1376l-117 -170h-119l211 256h72l123 -256h-111zM127 211q0 -133 141 -133q92 0 153 72q60 72 60 180q0 58 -24 82q-23 24 -39 31t-108 38t-135 82q-44 51 -44 142q0 151 78 241t196 90t177 -54t59 -155q0 -43 -14 -116h-103q10 61 11 102q0 129 -119 129
q-78 0 -127 -64t-49 -149q0 -84 53 -125q25 -16 126 -51t136 -81t35 -124q0 -166 -88 -266t-218 -100t-196 55t-65 156q0 53 16 143h102q-14 -86 -14 -125z" />
    <glyph glyph-name="Scedilla" unicode="&#x15e;" horiz-adv-x="800" 
d="M117 -438l119 288h118l-161 -288h-76zM156 266q0 -188 174 -188q141 0 207 153q49 117 49 244t-79 177q-22 14 -117 60t-143 121t-48 193q0 178 86 315t252 138q125 0 195 -70t69 -190q0 -53 -17 -134h-108q12 63 12 115q0 182 -153 182q-109 0 -165 -111t-56 -214
t36 -155q38 -52 146 -105t156 -115t48 -217t-77 -305q-98 -178 -295 -178q-131 0 -207 70t-76 188q0 59 18 163h105q-12 -84 -12 -137z" />
    <glyph glyph-name="scedilla" unicode="&#x15f;" horiz-adv-x="688" 
d="M78 -438l119 288h118l-161 -288h-76zM127 211q0 -133 141 -133q92 0 153 72q60 72 60 180q0 58 -24 82q-23 24 -39 31t-108 38t-135 82q-44 51 -44 142q0 151 78 241t196 90t177 -54t59 -155q0 -43 -14 -116h-103q10 61 11 102q0 129 -119 129q-78 0 -127 -64t-49 -149
q0 -84 53 -125q25 -16 126 -51t136 -81t35 -124q0 -166 -88 -266t-218 -100t-196 55t-65 156q0 53 16 143h102q-14 -86 -14 -125z" />
    <glyph glyph-name="Scaron" unicode="&#x160;" horiz-adv-x="800" 
d="M604 1724l117 168h119l-211 -254h-72l-123 254h111zM156 266q0 -188 174 -188q141 0 207 153q49 117 49 244t-79 177q-22 14 -117 60t-143 121t-48 193q0 178 86 315t252 138q125 0 195 -70t69 -190q0 -53 -17 -134h-108q12 63 12 115q0 182 -153 182q-109 0 -165 -111
t-56 -214t36 -155q38 -52 146 -105t156 -115t48 -217t-77 -305q-98 -178 -295 -178q-131 0 -207 70t-76 188q0 59 18 163h105q-12 -84 -12 -137z" />
    <glyph glyph-name="scaron" unicode="&#x161;" horiz-adv-x="688" 
d="M477 1290l117 168h119l-211 -254h-72l-123 254h111zM127 211q0 -133 141 -133q92 0 153 72q60 72 60 180q0 58 -24 82q-23 24 -39 31t-108 38t-135 82q-44 51 -44 142q0 151 78 241t196 90t177 -54t59 -155q0 -43 -14 -116h-103q10 61 11 102q0 129 -119 129
q-78 0 -127 -64t-49 -149q0 -84 53 -125q25 -16 126 -51t136 -81t35 -124q0 -166 -88 -266t-218 -100t-196 55t-65 156q0 53 16 143h102q-14 -86 -14 -125z" />
    <glyph glyph-name="Tcommaaccent" unicode="&#x162;" horiz-adv-x="677" 
d="M51 -438l119 288h119l-162 -288h-76zM193 0l239 1364h-250l17 98h616l-18 -98h-250l-240 -1364h-114z" />
    <glyph glyph-name="tcommaaccent" unicode="&#x163;" horiz-adv-x="450" 
d="M-27 -438l119 288h119l-162 -288h-76zM207 176q0 -80 82 -80h30l-18 -96h-27q-98 0 -140 32t-42 98t25 200l104 594h-84l17 94h84l63 340h107l-60 -340h127l-16 -94h-127l-111 -633q-14 -72 -14 -115z" />
    <glyph glyph-name="Tcaron" unicode="&#x164;" horiz-adv-x="677" 
d="M551 1724l117 168h118l-211 -254h-71l-123 254h111zM193 0l239 1364h-250l17 98h616l-16 -98h-252l-240 -1364h-114z" />
    <glyph glyph-name="tcaron" unicode="&#x165;" horiz-adv-x="532" 
d="M526 1108l99 389h112l-135 -389h-76zM205 176q0 -80 82 -80h30l-16 -96h-27q-100 0 -142 32t-42 96t25 202l104 594h-84l17 94h86l63 340h107l-60 -340h127l-16 -94h-129l-111 -633q-14 -86 -14 -115z" />
    <glyph glyph-name="Tbar" unicode="&#x166;" horiz-adv-x="677" 
d="M193 0l120 692h-180l17 96h182l100 576h-250l17 98h616l-18 -98h-250l-101 -576h181l-17 -96h-182l-121 -692h-114z" />
    <glyph glyph-name="tbar" unicode="&#x167;" horiz-adv-x="450" 
d="M203 170q0 -37 19 -55t65 -19h28l-16 -96h-27q-100 0 -142 31t-42 96t23 190l55 312h-84l16 88h82l37 207h-84l19 94h84l63 340h107l-60 -340h127l-16 -94h-127l-37 -207h127l-17 -88h-127l-59 -338q-14 -84 -14 -121z" />
    <glyph glyph-name="Utilde" unicode="&#x168;" horiz-adv-x="935" 
d="M618 1868q53 0 97 -66q41 -68 63 -67q37 0 66 116h71q-27 -106 -61 -152t-92 -46q-57 0 -98 67q-23 42 -34 54t-26 12q-34 0 -69 -117h-70q31 106 65 153q35 46 88 46zM399 80q133 0 197 110q35 53 57 191l193 1081h115l-195 -1104q-20 -112 -38 -162t-58 -96
q-96 -117 -277 -116q-135 0 -208 64t-72 183q0 72 18 170l186 1061h115l-190 -1081q-14 -86 -15 -137q0 -164 172 -164z" />
    <glyph glyph-name="utilde" unicode="&#x169;" horiz-adv-x="768" 
d="M457 1434q53 0 96 -66q41 -68 63 -68q35 0 66 117h72q-29 -109 -63 -153t-91 -45q-57 0 -98 67q-23 41 -34 53t-26 13q-34 0 -69 -117h-70q31 107 66 153t88 46zM293 80q84 0 135 80t84 262l104 596h111l-178 -1018h-86l8 94q-51 -66 -93 -90t-121 -22q-79 0 -129 52
t-50 137t22 204l113 643h111l-115 -653q-18 -106 -19 -152q0 -133 103 -133z" />
    <glyph glyph-name="Umacron" unicode="&#x16a;" horiz-adv-x="935" 
d="M504 1718l14 84h342l-14 -84h-342zM399 80q133 0 197 110q35 53 57 191l193 1081h115l-195 -1104q-20 -112 -38 -162t-58 -96q-96 -117 -277 -116q-135 0 -208 64t-72 183q0 72 18 170l186 1061h115l-190 -1081q-14 -86 -15 -137q0 -164 172 -164z" />
    <glyph glyph-name="umacron" unicode="&#x16b;" horiz-adv-x="768" 
d="M348 1284l14 84h343l-15 -84h-342zM293 80q84 0 135 80t84 262l104 596h111l-178 -1018h-86l8 94q-51 -66 -93 -90t-121 -22q-79 0 -129 52t-50 137t22 204l113 643h111l-115 -653q-18 -106 -19 -152q0 -133 103 -133z" />
    <glyph glyph-name="Ubreve" unicode="&#x16c;" horiz-adv-x="935" 
d="M600 1804q0 -90 80 -90q55 0 85 37t50 131h82q-20 -111 -41 -156q-53 -100 -176 -100q-166 0 -166 137q0 41 12 119h80q-6 -63 -6 -78zM399 80q133 0 197 110q35 53 57 191l193 1081h115l-195 -1104q-20 -112 -38 -162t-58 -96q-96 -117 -277 -116q-135 0 -208 64
t-72 183q0 72 18 170l186 1061h115l-190 -1081q-14 -86 -15 -137q0 -164 172 -164z" />
    <glyph glyph-name="ubreve" unicode="&#x16d;" horiz-adv-x="768" 
d="M438 1368q0 -88 82 -88q53 0 83 37t50 131h82q-20 -111 -41 -156q-53 -100 -178 -100q-78 0 -121 36t-43 85t13 135h79q-6 -57 -6 -80zM293 80q84 0 135 80t84 262l104 596h111l-178 -1018h-86l8 94q-51 -66 -93 -90t-121 -22q-79 0 -129 52t-50 137t22 204l113 643h111
l-115 -653q-18 -106 -19 -152q0 -133 103 -133z" />
    <glyph glyph-name="Uring" unicode="&#x16e;" horiz-adv-x="935" 
d="M715 1935q-49 0 -81 -47t-32 -128t78 -81q49 0 81 47t32 128t-78 81zM686 1612q-166 0 -166 175q0 87 56 151t136 65q79 0 121 -44q41 -44 41 -123q0 -80 -52 -152t-136 -72zM399 80q133 0 197 110q35 53 57 191l193 1081h115l-195 -1104q-20 -112 -38 -162t-58 -96
q-96 -117 -277 -116q-135 0 -208 64t-72 183q0 72 18 170l186 1061h115l-190 -1081q-14 -86 -15 -137q0 -164 172 -164z" />
    <glyph glyph-name="uring" unicode="&#x16f;" horiz-adv-x="768" 
d="M555 1501q-49 0 -81 -47t-32 -128t78 -81q49 0 81 47t32 128t-78 81zM360 1352q0 86 56 152q56 65 136 65q79 0 121 -44t42 -123t-52 -152q-51 -72 -135 -72t-126 44t-42 130zM293 80q84 0 135 80t84 262l104 596h111l-178 -1018h-86l8 94q-51 -66 -93 -90t-121 -22
q-79 0 -129 52t-50 137t22 204l113 643h111l-115 -653q-18 -106 -19 -152q0 -133 103 -133z" />
    <glyph glyph-name="Uhungarumlaut" unicode="&#x170;" horiz-adv-x="935" 
d="M709 1628l127 279h120l-170 -279h-77zM528 1628l129 279h119l-170 -279h-78zM399 80q133 0 197 110q35 53 57 191l193 1081h115l-195 -1104q-20 -112 -38 -162t-58 -96q-96 -117 -277 -116q-135 0 -208 64t-72 183q0 72 18 170l186 1061h115l-190 -1081q-14 -86 -15 -137
q0 -164 172 -164z" />
    <glyph glyph-name="uhungarumlaut" unicode="&#x171;" horiz-adv-x="768" 
d="M547 1194l127 279h121l-170 -279h-78zM367 1194l129 279h118l-170 -279h-77zM293 80q84 0 135 80t84 262l104 596h111l-178 -1018h-86l8 94q-51 -66 -93 -90t-121 -22q-79 0 -129 52t-50 137t22 204l113 643h111l-115 -653q-18 -106 -19 -152q0 -133 103 -133z" />
    <glyph glyph-name="Uogonek" unicode="&#x172;" horiz-adv-x="935" 
d="M350 -244q0 -53 70 -53q27 0 82 14v-71q-55 -23 -119 -23q-141 0 -141 111q0 133 159 250q-289 0 -288 247q0 72 18 170l186 1061h115l-190 -1081q-14 -86 -15 -137q0 -164 172 -164q133 0 197 110q35 53 57 191l193 1081h115l-195 -1104q-23 -152 -79 -236t-159 -120
q-8 -6 -16 -14q-162 -123 -162 -232z" />
    <glyph glyph-name="uogonek" unicode="&#x173;" horiz-adv-x="768" 
d="M434 -297q29 0 82 14l2 -71q-59 -23 -121 -23q-141 0 -141 111q0 145 207 276l8 84q-51 -66 -93 -90t-121 -22q-79 0 -129 52t-50 137t22 204l113 643h111l-115 -653q-18 -106 -19 -152q0 -133 103 -133q84 0 135 80t84 262l104 596h111l-178 -1018q-8 -4 -19 -14l-8 -4
q-158 -117 -157 -228q0 -51 69 -51z" />
    <glyph glyph-name="Wcircumflex" unicode="&#x174;" horiz-adv-x="1212" 
d="M836 1808l-117 -168h-119l211 254h72l123 -254h-111zM180 0l51 1462h113l-61 -1202l446 1202h82l25 -1202l362 1202h115l-465 -1462h-98l-25 1196l-446 -1196h-99z" />
    <glyph glyph-name="wcircumflex" unicode="&#x175;" horiz-adv-x="1044" 
d="M674 1376l-117 -170h-119l211 256h72l123 -256h-111zM172 0l-20 1018h110l-4 -821l313 821h76l25 -821l284 821h113l-379 -1018h-88l-29 807l-311 -807h-90z" />
    <glyph glyph-name="Ycircumflex" unicode="&#x176;" horiz-adv-x="747" 
d="M606 1808l-117 -168h-118l211 254h71l123 -254h-110zM229 0l97 547l-142 915h117l107 -762l374 762h121l-463 -915l-96 -547h-115z" />
    <glyph glyph-name="ycircumflex" unicode="&#x177;" horiz-adv-x="675" 
d="M492 1376l-117 -170h-119l211 256h72l123 -256h-111zM195 -14l-60 1032h107l34 -881l324 881h113l-475 -1227q-62 -156 -126 -208t-192 -54l17 96q79 0 113 33t79 145z" />
    <glyph glyph-name="Ydieresis" unicode="&#x178;" horiz-adv-x="747" 
d="M655 1647l33 190h100l-32 -190h-101zM393 1647l33 190h100l-32 -190h-101zM229 0l97 547l-142 915h117l107 -762l374 762h121l-463 -915l-96 -547h-115z" />
    <glyph glyph-name="Zacute" unicode="&#x179;" horiz-adv-x="727" 
d="M500 1628l147 279h133l-196 -279h-84zM-20 0l12 66l663 1298h-405l18 98h533l-10 -65l-666 -1299h455l-17 -98h-583z" />
    <glyph glyph-name="zacute" unicode="&#x17a;" horiz-adv-x="636" 
d="M399 1194l148 279h133l-197 -279h-84zM-23 0l11 61l493 861h-313l16 96h445l-11 -62l-495 -860h362l-16 -96h-492z" />
    <glyph glyph-name="Zdotaccent" unicode="&#x17b;" horiz-adv-x="727" 
d="M514 1647l33 190h108l-32 -190h-109zM-20 0l12 66l663 1298h-405l18 98h533l-10 -65l-666 -1299h455l-17 -98h-583z" />
    <glyph glyph-name="zdotaccent" unicode="&#x17c;" horiz-adv-x="636" 
d="M393 1212l33 191h109l-33 -191h-109zM-23 0l11 61l493 861h-313l16 96h445l-11 -62l-495 -860h362l-16 -96h-492z" />
    <glyph glyph-name="Zcaron" unicode="&#x17d;" horiz-adv-x="727" 
d="M580 1724l116 168h119l-211 -254h-72l-122 254h110zM-20 0l12 66l663 1298h-405l18 98h533l-10 -65l-666 -1299h455l-17 -98h-583z" />
    <glyph glyph-name="zcaron" unicode="&#x17e;" horiz-adv-x="636" 
d="M459 1290l116 168h119l-211 -254h-71l-123 254h110zM-23 0l11 61l493 861h-313l16 96h445l-11 -62l-495 -860h362l-16 -96h-492z" />
    <glyph glyph-name="Ohorn" unicode="&#x1a0;" horiz-adv-x="970" 
d="M786 1206q0 78 -48 128t-146 50t-159 -76q-60 -76 -93 -259l-113 -635q-14 -90 -14 -163t47 -123t135 -50q123 0 189 102q46 70 75 234l111 635q16 79 16 157zM1130 1446q0 -96 -53 -178q-27 -37 -61 -66t-121 -82q-8 -68 -10 -80l-117 -661q-20 -115 -44 -175t-69 -112
q-93 -110 -249 -110q-308 1 -308 282q0 59 17 158l116 661q20 115 43 175t68 112q96 111 264 111q285 0 295 -277q135 102 135 228q0 14 -6 49h98q2 -14 2 -35z" />
    <glyph glyph-name="ohorn" unicode="&#x1a1;" horiz-adv-x="813" 
d="M461 940q-88 0 -136 -61t-75 -209l-57 -322q-12 -82 -13 -127q0 -143 127 -143q88 0 136 62t73 208l57 322q14 74 15 125q0 145 -127 145zM909 1034v-37q0 -193 -223 -321q-2 -6 -2 -10l-57 -328q-33 -184 -107 -270t-213 -86q-238 0 -237 235q0 57 18 164l51 299
q37 193 99 262q84 94 221 94q240 0 239 -233q0 -23 -2 -41q119 106 119 225q0 16 -6 47h100z" />
    <glyph glyph-name="Uhorn" unicode="&#x1af;" horiz-adv-x="1015" 
d="M399 80q133 0 197 110q35 53 57 191l193 1081h115l-54 -299q103 63 149 127t46 144q0 16 -6 47h98q2 -16 2 -37q0 -123 -84 -213q-41 -45 -69 -65t-152 -91l-125 -717q-20 -112 -38 -162t-58 -96q-96 -117 -277 -116q-135 0 -208 64t-72 183q0 72 18 170l186 1061h115
l-190 -1081q-14 -84 -15 -137q0 -164 172 -164z" />
    <glyph glyph-name="uhorn" unicode="&#x1b0;" horiz-adv-x="845" 
d="M293 80q84 0 135 80t84 262l104 596h111l-53 -301q195 115 194 272q0 14 -6 45h101v-37q0 -115 -66 -195t-238 -175l-110 -627h-86l8 94q-53 -66 -94 -90t-120 -22q-79 0 -129 52t-50 135t20 206l115 643h111l-115 -653q-18 -106 -19 -150q0 -135 103 -135z" />
    <glyph glyph-name="uni01C4" unicode="&#x1c4;" horiz-adv-x="1591" 
d="M842 0l12 66l666 1298h-408l18 98h535l-12 -65l-666 -1299h455l-17 -98h-583zM1442 1724l117 168h118l-211 -254h-71l-123 254h110zM784 1180q0 186 -194 186h-172l-225 -1270h174q125 -2 195 76t97 246l111 626q14 72 14 136zM590 1462q154 0 223 -57q88 -72 88 -215
q0 -49 -16 -148l-117 -665q-59 -383 -397 -377h-310l258 1462h271z" />
    <glyph glyph-name="uni01C5" unicode="&#x1c5;" horiz-adv-x="1556" 
d="M897 0l10 61l494 861h-314l17 96h444l-10 -62l-496 -860h363l-16 -96h-492zM1376 1290l119 168h119l-211 -254h-74l-121 254h111zM784 1180q0 186 -194 186h-172l-225 -1270h174q125 -2 195 76t97 246l111 626q14 72 14 136zM590 1462q154 0 223 -57q88 -72 88 -215
q0 -49 -16 -148l-117 -665q-59 -383 -397 -377h-310l258 1462h271z" />
    <glyph glyph-name="uni01C6" unicode="&#x1c6;" horiz-adv-x="1419" 
d="M760 0l10 61l494 861h-314l17 96h444l-12 -62l-494 -860h363l-19 -96h-489zM1239 1290l119 168h119l-213 -254h-72l-121 254h111zM305 80q162 0 225 358l25 144q18 94 18 168q0 190 -124 190q-148 0 -197 -270l-53 -303q-10 -61 -11 -125q0 -162 117 -162zM76 225
q0 76 16 164l53 297q31 182 103 266t194 84q68 0 108 -22t68 -74l93 522h112l-258 -1462h-88l6 90q-78 -109 -194 -108q-213 0 -213 243z" />
    <glyph glyph-name="uni01C7" unicode="&#x1c7;" horiz-adv-x="1161" 
d="M586 -496q-70 0 -142 31l62 88q35 -20 74 -20q106 0 159 118q20 43 56 222l266 1519h115l-271 -1534q-39 -223 -82 -295q-80 -129 -237 -129zM61 0l258 1462h115l-241 -1364h450l-18 -98h-564z" />
    <glyph glyph-name="uni01C8" unicode="&#x1c8;" horiz-adv-x="1124" 
d="M969 1018h112l-190 -1081q-35 -229 -113 -321t-231 -87l18 96q84 -6 135 68t78 244zM1014 1272l35 192h110l-33 -192h-112zM61 0l258 1462h115l-241 -1364h450l-18 -98h-564z" />
    <glyph glyph-name="uni01C9" unicode="&#x1c9;" horiz-adv-x="800" 
d="M647 1018h111l-191 -1081q-35 -229 -112 -322q-78 -92 -230 -86l17 96q84 -6 135 68t78 244zM690 1272l35 192h111l-33 -192h-113zM266 0q-190 0 -190 133q0 65 16 164l205 1165h111l-209 -1186q-9 -61 -9 -101t22 -59t75 -20h24l-16 -96h-29z" />
    <glyph glyph-name="uni01CA" unicode="&#x1ca;" horiz-adv-x="1396" 
d="M823 -496q-70 0 -141 31l61 88q35 -20 74 -20q106 0 160 118q25 53 53 222l268 1519h115l-270 -1534q-39 -223 -82 -295q-80 -129 -238 -129zM63 0l259 1462h112l240 -1206l211 1206h110l-258 -1462h-108l-242 1210l-213 -1210h-111z" />
    <glyph glyph-name="uni01CB" unicode="&#x1cb;" horiz-adv-x="1359" 
d="M1206 1018h113l-193 -1081q-35 -229 -111 -322q-77 -92 -231 -86l19 96q84 -6 135 68t78 244zM1251 1272l35 192h111l-35 -192h-111zM63 0l259 1462h112l240 -1206l211 1206h110l-258 -1462h-108l-242 1210l-213 -1210h-111z" />
    <glyph glyph-name="uni01CC" unicode="&#x1cc;" horiz-adv-x="1167" 
d="M1014 1018h110l-190 -1081q-33 -229 -112 -321t-230 -87l16 96q86 -6 136 68t79 244zM1059 1272l33 192h112l-35 -192h-110zM596 803q0 135 -111 135q-88 0 -141 -79t-86 -261l-106 -598h-111l180 1018h84l-6 -86q51 61 95 83q44 21 128 21t135 -53t51 -141t-22 -197
l-113 -645h-110l115 655q18 106 18 148z" />
    <glyph glyph-name="uni01CD" unicode="&#x1cd;" horiz-adv-x="802" 
d="M598 1724l117 168h119l-211 -254h-72l-123 254h111zM571 434l-28 850l-330 -850h358zM575 338h-399l-131 -338h-125l600 1462h101l90 -1462h-123z" />
    <glyph glyph-name="uni01CE" unicode="&#x1ce;" horiz-adv-x="735" 
d="M502 1290l116 168h119l-211 -254h-71l-123 254h110zM362 492q-121 0 -176 -76q-57 -86 -57 -219q0 -63 33 -93q32 -30 114 -28q82 0 123 47t64 176l33 193h-134zM418 942q-70 0 -113 -55t-65 -180h-105q25 152 74 219q78 111 225 110q219 0 219 -221q0 -72 -18 -166
l-115 -649h-88l2 55q-35 -41 -76 -57t-110 -16q-233 0 -234 196q0 184 79 294t263 112h156l16 94q34 180 -13 232q-27 32 -97 32z" />
    <glyph glyph-name="uni01CF" unicode="&#x1cf;" horiz-adv-x="417" 
d="M420 1724l119 168h118l-213 -254h-71l-121 254h110zM63 0l259 1462h114l-258 -1462h-115z" />
    <glyph glyph-name="uni01D0" unicode="&#x1d0;" horiz-adv-x="376" 
d="M322 1290l118 168h119l-213 -254h-72l-120 254h110zM43 0l180 1018h111l-180 -1018h-111z" />
    <glyph glyph-name="uni01D1" unicode="&#x1d1;" horiz-adv-x="917" 
d="M670 1724l118 168h119l-213 -254h-71l-121 254h110zM786 1206q0 78 -48 128t-132 50q-123 0 -192 -102q-45 -72 -74 -233l-113 -635q-14 -90 -14 -162t47 -123t133 -51q125 0 191 102q46 70 75 234l111 635q16 79 16 157zM594 1481q156 0 231 -73q76 -73 76 -210
q0 -59 -16 -158l-117 -661q-20 -115 -44 -175t-69 -112q-93 -110 -249 -110q-308 1 -308 282q1 60 17 158l116 661q20 115 43 175t68 112q96 111 252 111z" />
    <glyph glyph-name="uni01D2" unicode="&#x1d2;" horiz-adv-x="768" 
d="M518 1290l117 168h119l-211 -254h-72l-123 254h111zM461 942q-88 0 -136 -62t-75 -210l-57 -322q-12 -78 -13 -127q0 -143 127 -143q88 0 136 62t73 208l57 322q14 74 15 127q0 145 -127 145zM461 1036q238 0 237 -233q0 -57 -18 -166l-53 -299q-33 -184 -107 -270
t-213 -86q-238 0 -237 233q0 68 18 166l51 299q35 188 108 272t214 84z" />
    <glyph glyph-name="uni01D3" unicode="&#x1d3;" horiz-adv-x="935" 
d="M670 1724l116 168h119l-211 -254h-71l-123 254h110zM399 80q133 0 197 110q35 53 57 191l193 1081h115l-195 -1104q-20 -112 -38 -162t-58 -96q-96 -117 -277 -116q-135 0 -208 64t-72 183q0 72 18 170l186 1061h115l-190 -1081q-14 -86 -15 -137q0 -164 172 -164z" />
    <glyph glyph-name="uni01D4" unicode="&#x1d4;" horiz-adv-x="768" 
d="M518 1290l117 168h119l-211 -254h-72l-123 254h111zM293 80q84 0 135 80t84 262l104 596h111l-178 -1018h-86l8 94q-51 -66 -93 -90t-121 -22q-79 0 -129 52t-50 137t22 204l113 643h111l-115 -653q-18 -106 -19 -152q0 -133 103 -133z" />
    <glyph glyph-name="Gcaron" unicode="&#x1e6;" horiz-adv-x="890" 
d="M643 1724l117 168h119l-211 -254h-72l-123 254h111zM98 254q0 61 19 178l112 641q39 213 124 309t229 96t216 -64q73 -65 72 -183q0 -51 -14 -146h-106q8 80 8 117q0 180 -164 180q-106 0 -164 -75q-57 -76 -90 -258l-111 -635q-16 -88 -16 -148q0 -188 168 -188
q217 0 276 334l41 241h-188l16 95h303l-59 -336q-39 -215 -119 -310q-100 -121 -272 -120q-137 0 -209 70t-72 202z" />
    <glyph glyph-name="gcaron" unicode="&#x1e7;" horiz-adv-x="782" 
d="M524 1290l117 168h119l-211 -254h-72l-123 254h111zM303 80q162 0 225 358l27 144q18 109 18 168q0 190 -124 190q-152 0 -197 -270l-55 -308q-10 -55 -11 -122q0 -160 117 -160zM285 -18q-211 0 -211 243q0 74 16 164l53 297q33 182 104 266t197 84t181 -100l30 82h88
l-202 -1141q-35 -193 -106 -273t-191 -81q-231 0 -234 178q0 47 13 119h102q-8 -55 -8 -84q0 -119 112 -119q84 -1 130 61t73 209l33 185q-76 -90 -180 -90z" />
    <glyph glyph-name="uni01EA" unicode="&#x1ea;" horiz-adv-x="917" 
d="M786 1206q0 78 -48 128t-132 50q-123 0 -192 -102q-45 -72 -74 -233l-113 -635q-14 -94 -14 -142q0 -92 47 -142t133 -50q125 0 191 102q44 66 75 232l111 635q16 79 16 157zM342 -246q0 -51 70 -51q27 0 80 14l2 -71q-59 -23 -119 -23q-141 0 -142 111q0 131 158 248
q-141 0 -217 72t-76 210q0 59 17 158l116 661q20 115 43 175t68 112q96 111 252 111t231 -73q76 -73 76 -210q0 -60 -16 -158l-117 -661q-45 -313 -250 -379q-176 -135 -176 -246z" />
    <glyph glyph-name="uni01EB" unicode="&#x1eb;" horiz-adv-x="768" 
d="M461 942q-88 0 -136 -62t-75 -210l-57 -322q-12 -78 -13 -127q0 -143 127 -143q88 0 136 62t73 208l57 322q14 74 15 127q0 145 -127 145zM266 -246q0 -51 70 -51q27 0 80 14l2 -71q-59 -23 -119 -23q-141 0 -141 111q0 131 149 248q-238 0 -237 233q0 68 18 166l51 299
q35 188 108 272t214 84q238 0 237 -233q0 -57 -18 -166l-53 -299q-23 -137 -64 -212t-117 -114l-8 -8l-10 -8q-162 -125 -162 -242z" />
    <glyph glyph-name="uni01F1" unicode="&#x1f1;" horiz-adv-x="1591" 
d="M842 0l12 66l666 1298h-408l18 98h535l-12 -65l-666 -1299h455l-17 -98h-583zM784 1180q0 186 -194 186h-172l-225 -1270h174q125 -2 195 76t97 246l111 626q14 72 14 136zM590 1462q154 0 223 -57q88 -72 88 -215q0 -49 -16 -148l-117 -665q-59 -383 -397 -377h-310
l258 1462h271z" />
    <glyph glyph-name="uni01F2" unicode="&#x1f2;" horiz-adv-x="1556" 
d="M897 0l10 61l494 861h-314l17 96h444l-10 -62l-496 -860h363l-16 -96h-492zM784 1180q0 186 -194 186h-172l-225 -1270h174q125 -2 195 76t97 246l111 626q14 72 14 136zM590 1462q154 0 223 -57q88 -72 88 -215q0 -49 -16 -148l-117 -665q-59 -383 -397 -377h-310
l258 1462h271z" />
    <glyph glyph-name="uni01F3" unicode="&#x1f3;" horiz-adv-x="1419" 
d="M760 0l10 61l494 861h-314l17 96h444l-12 -62l-494 -860h363l-19 -96h-489zM305 80q162 0 225 358l25 144q18 94 18 168q0 190 -124 190q-148 0 -197 -270l-53 -303q-10 -61 -11 -125q0 -162 117 -162zM76 225q0 76 16 164l53 297q31 182 103 266t194 84q68 0 108 -22
t68 -74l93 522h112l-258 -1462h-88l6 90q-78 -109 -194 -108q-213 0 -213 243z" />
    <glyph glyph-name="uni01F4" unicode="&#x1f4;" horiz-adv-x="890" 
d="M575 1628l148 279h133l-197 -279h-84zM98 254q0 61 19 178l112 641q39 213 124 309t229 96t216 -64q73 -65 72 -183q0 -51 -14 -146h-106q8 80 8 117q0 180 -164 180q-106 0 -164 -75q-57 -76 -90 -258l-111 -635q-16 -88 -16 -148q0 -188 168 -188q217 0 276 334l41 241
h-188l16 95h303l-59 -336q-39 -215 -119 -310q-100 -121 -272 -120q-137 0 -209 70t-72 202z" />
    <glyph glyph-name="uni01F5" unicode="&#x1f5;" horiz-adv-x="782" 
d="M457 1194l147 279h133l-196 -279h-84zM303 80q162 0 225 358l27 144q18 109 18 168q0 190 -124 190q-152 0 -197 -270l-55 -308q-10 -55 -11 -122q0 -160 117 -160zM285 -18q-211 0 -211 243q0 74 16 164l53 297q33 182 104 266t197 84t181 -100l30 82h88l-202 -1141
q-35 -193 -106 -273t-191 -81q-231 0 -234 178q0 47 13 119h102q-8 -55 -8 -84q0 -119 112 -119q84 -1 130 61t73 209l33 185q-76 -90 -180 -90z" />
    <glyph glyph-name="Aringacute" unicode="&#x1fa;" horiz-adv-x="802" 
d="M573 1831l138 233h155l-217 -233h-76zM612 1722q-49 0 -81 -47q-31 -47 -31 -128t78 -81q48 0 80 48t32 128t-78 80zM571 434l-28 850l-330 -850h358zM418 1556q0 106 55 170t135 64t122 -43t42 -121t-42 -141t-105 -80l86 -1405h-123l-13 338h-399l-131 -338h-125
l582 1415q-84 35 -84 141z" />
    <glyph glyph-name="aringacute" unicode="&#x1fb;" horiz-adv-x="735" 
d="M500 1610l135 233h156l-216 -233h-75zM524 1460q-42 0 -74 -47t-32 -128t78 -81q51 0 83 47t31 123q0 86 -86 86zM336 1312q0 88 56 152t137 64q79 0 121 -44t42 -123t-52 -152t-136 -73t-126 45q-42 44 -42 131zM362 492q-121 0 -176 -76q-57 -86 -57 -219q0 -63 33 -93
q32 -30 114 -28q82 0 123 47t64 176l33 193h-134zM418 942q-70 0 -113 -55t-65 -180h-105q25 152 74 219q78 111 225 110q219 0 219 -221q0 -72 -18 -166l-115 -649h-88l2 55q-35 -41 -76 -57t-110 -16q-233 0 -234 196q0 184 79 294t263 112h156l16 94q34 180 -13 232
q-27 32 -97 32z" />
    <glyph glyph-name="AEacute" unicode="&#x1fc;" horiz-adv-x="1269" 
d="M1004 1628l147 279h133l-197 -279h-83zM629 444l162 920h-15l-518 -920h371zM610 348h-407l-197 -348h-133l852 1462h631l-17 -98h-436l-100 -576h368l-16 -98h-371l-104 -592h436l-16 -98h-551z" />
    <glyph glyph-name="aeacute" unicode="&#x1fd;" horiz-adv-x="1140" 
d="M625 1194l147 279h133l-196 -279h-84zM975 801q0 141 -125 141q-86 0 -133 -61t-72 -205l-16 -88h317q29 160 29 213zM365 496q-125 0 -181 -82t-55 -217q0 -63 33 -93q32 -30 114 -28q82 0 123 47t64 178l35 195h-133zM428 942q-78 0 -122 -55t-66 -180h-105
q29 158 72 219q79 110 229 110t191 -112q86 113 227 112q111 0 169 -60t58 -154t-43 -326h-430l-26 -148q-14 -84 -15 -121q0 -150 127 -149q88 0 136 57t71 189h105q-25 -156 -68 -224q-78 -118 -235 -118t-211 114q-86 -115 -244 -114q-233 0 -234 194q0 82 24 167t58 136
q80 109 260 109h158l14 90q14 70 15 127q0 137 -115 137z" />
    <glyph glyph-name="Oslashacute" unicode="&#x1fe;" horiz-adv-x="917" 
d="M588 1628l147 279h133l-196 -279h-84zM217 346l555 926q-37 112 -163 112t-195 -102q-45 -68 -74 -233l-113 -635q-2 -8 -5 -31t-5 -37zM778 1106l-553 -920q43 -108 166 -108t193 102q45 72 73 234l113 635q6 37 8 57zM899 1188q0 -62 -16 -148l-117 -661
q-20 -115 -43 -174t-68 -113q-94 -110 -257 -110t-240 90l-60 -99l-80 43l91 150q-21 120 6 256l116 661q20 115 43 174t68 113q96 111 258 111t242 -95l57 95l80 -41l-90 -150q10 -40 10 -102z" />
    <glyph glyph-name="oslashacute" unicode="&#x1ff;" horiz-adv-x="768" 
d="M438 1194l148 279h133l-197 -279h-84zM182 264l391 613q-27 65 -113 65t-135 -62q-48 -62 -75 -210l-57 -322q-11 -66 -11 -84zM310 78q84 0 133 61q48 61 75 209l57 322l5 30q2 18 4 31t2 21l-391 -611q31 -63 115 -63zM698 804q0 -56 -18 -167l-53 -299
q-33 -184 -97 -262q-86 -94 -212 -94t-187 59l-45 -72l-66 41l66 103q-16 45 -16 99t18 169l53 299q33 188 99 262q80 94 210 94t189 -59l45 70l66 -41l-66 -101q14 -45 14 -101z" />
    <glyph glyph-name="uni0200" unicode="&#x200;" horiz-adv-x="802" 
d="M559 1628h-78l-71 279h120zM739 1628h-77l-72 279h119zM571 434l-28 850l-330 -850h358zM575 338h-399l-131 -338h-125l600 1462h101l90 -1462h-123z" />
    <glyph glyph-name="uni0201" unicode="&#x201;" horiz-adv-x="735" 
d="M446 1194h-77l-72 279h121zM627 1194h-78l-72 279h119zM362 492q-121 0 -176 -76q-57 -86 -57 -219q0 -63 33 -93q32 -30 114 -28q82 0 123 47t64 176l33 193h-134zM418 942q-70 0 -113 -55t-65 -180h-105q25 152 74 219q78 111 225 110q219 0 219 -221q0 -72 -18 -166
l-115 -649h-88l2 55q-35 -41 -76 -57t-110 -16q-233 0 -234 196q0 184 79 294t263 112h156l16 94q34 180 -13 232q-27 32 -97 32z" />
    <glyph glyph-name="uni0202" unicode="&#x202;" horiz-adv-x="802" 
d="M715 1722q0 90 -80 90q-55 0 -85 -36t-50 -131h-82q20 111 41 155q53 100 178 101q164 0 164 -138q-1 -32 -13 -118h-79q6 55 6 77zM571 434l-28 850l-330 -850h358zM575 338h-399l-131 -338h-125l600 1462h101l90 -1462h-123z" />
    <glyph glyph-name="uni0203" unicode="&#x203;" horiz-adv-x="735" 
d="M602 1288q0 90 -82 90q-53 0 -84 -38t-49 -130h-82q20 113 41 156q53 100 176 100q166 0 166 -137q0 -33 -12 -119h-80q6 55 6 78zM362 492q-121 0 -176 -76q-57 -86 -57 -219q0 -63 33 -93q32 -30 114 -28q82 0 123 47t64 176l33 193h-134zM418 942q-70 0 -113 -55
t-65 -180h-105q25 152 74 219q78 111 225 110q219 0 219 -221q0 -72 -18 -166l-115 -649h-88l2 55q-35 -41 -76 -57t-110 -16q-233 0 -234 196q0 184 79 294t263 112h156l16 94q34 180 -13 232q-27 32 -97 32z" />
    <glyph glyph-name="uni0204" unicode="&#x204;" horiz-adv-x="784" 
d="M584 1628h-78l-72 279h121zM764 1628h-78l-72 279h119zM63 0l259 1462h548l-16 -98h-436l-101 -576h369l-16 -98h-371l-104 -592h436l-17 -98h-551z" />
    <glyph glyph-name="uni0205" unicode="&#x205;" horiz-adv-x="747" 
d="M459 1194h-78l-72 279h121zM639 1194h-78l-72 279h119zM580 801q0 141 -125 141q-84 0 -131 -61t-72 -205l-16 -88h317q27 156 27 213zM307 78q84 0 131 57t70 189h104q-25 -156 -69 -226q-76 -117 -242 -116q-113 0 -171 61t-58 176q0 63 18 170l49 281q37 197 97 270
q84 96 221 96q229 0 229 -233q0 -51 -41 -307h-426l-26 -148q-10 -57 -11 -129q0 -141 125 -141z" />
    <glyph glyph-name="uni0206" unicode="&#x206;" horiz-adv-x="784" 
d="M735 1722q0 90 -80 90q-55 0 -85 -36t-50 -131h-82q20 111 41 155q53 100 178 101q164 0 164 -138q0 -32 -12 -118h-80q6 55 6 77zM63 0l259 1462h548l-16 -98h-436l-101 -576h369l-16 -98h-371l-104 -592h436l-17 -98h-551z" />
    <glyph glyph-name="uni0207" unicode="&#x207;" horiz-adv-x="747" 
d="M610 1288q0 90 -82 90q-53 0 -84 -38t-49 -130h-82q20 113 41 156q53 100 176 100q166 0 166 -137q0 -33 -12 -119h-80q6 55 6 78zM580 801q0 141 -125 141q-84 0 -131 -61t-72 -205l-16 -88h317q27 156 27 213zM307 78q84 0 131 57t70 189h104q-25 -156 -69 -226
q-76 -117 -242 -116q-113 0 -171 61t-58 176q0 63 18 170l49 281q37 197 97 270q84 96 221 96q229 0 229 -233q0 -51 -41 -307h-426l-26 -148q-10 -57 -11 -129q0 -141 125 -141z" />
    <glyph glyph-name="uni0208" unicode="&#x208;" horiz-adv-x="417" 
d="M367 1628h-78l-72 279h121zM547 1628h-78l-72 279h119zM63 0l259 1462h114l-258 -1462h-115z" />
    <glyph glyph-name="uni0209" unicode="&#x209;" horiz-adv-x="376" 
d="M268 1194h-78l-71 279h121zM449 1194h-78l-72 279h119zM43 0l180 1018h111l-180 -1018h-111z" />
    <glyph glyph-name="uni020A" unicode="&#x20a;" horiz-adv-x="417" 
d="M520 1722q0 90 -80 90q-55 0 -85 -36t-50 -131h-82q20 111 41 155q53 100 178 101q164 0 164 -138q0 -32 -12 -118h-80q6 55 6 77zM61 0l258 1462h115l-258 -1462h-115z" />
    <glyph glyph-name="uni020B" unicode="&#x20b;" horiz-adv-x="376" 
d="M424 1288q0 90 -82 90q-53 0 -84 -38t-49 -130h-82q20 113 41 156q53 100 176 100q166 0 166 -137q0 -33 -12 -119h-80q6 55 6 78zM43 0l180 1018h111l-180 -1018h-111z" />
    <glyph glyph-name="uni020C" unicode="&#x20c;" horiz-adv-x="917" 
d="M616 1628h-77l-72 279h121zM797 1628h-78l-72 279h119zM786 1206q0 78 -48 128t-132 50q-123 0 -192 -102q-45 -72 -74 -233l-113 -635q-14 -90 -14 -162t47 -123t133 -51q125 0 191 102q46 70 75 234l111 635q16 79 16 157zM594 1481q156 0 231 -73q76 -73 76 -210
q0 -59 -16 -158l-117 -661q-20 -115 -44 -175t-69 -112q-93 -110 -249 -110q-308 1 -308 282q1 60 17 158l116 661q20 115 43 175t68 112q96 111 252 111z" />
    <glyph glyph-name="uni020D" unicode="&#x20d;" horiz-adv-x="768" 
d="M463 1194h-78l-72 279h121zM643 1194h-78l-71 279h118zM461 942q-88 0 -136 -62t-75 -210l-57 -322q-12 -78 -13 -127q0 -143 127 -143q88 0 136 62t73 208l57 322q14 74 15 127q0 145 -127 145zM461 1036q238 0 237 -233q0 -57 -18 -166l-53 -299q-33 -184 -107 -270
t-213 -86q-238 0 -237 233q0 68 18 166l51 299q35 188 108 272t214 84z" />
    <glyph glyph-name="uni020E" unicode="&#x20e;" horiz-adv-x="917" 
d="M772 1722q0 90 -80 90q-55 0 -85 -36t-50 -131h-82q20 111 41 155q53 100 178 101q164 0 164 -138q0 -32 -12 -118h-80q6 55 6 77zM786 1206q0 78 -48 128t-132 50q-123 0 -192 -102q-45 -72 -74 -233l-113 -635q-14 -90 -14 -162t47 -123t133 -51q125 0 191 102
q46 70 75 234l111 635q16 79 16 157zM594 1481q156 0 231 -73q76 -73 76 -210q0 -59 -16 -158l-117 -661q-20 -115 -44 -175t-69 -112q-93 -110 -249 -110q-308 1 -308 282q1 60 17 158l116 661q20 115 43 175t68 112q96 111 252 111z" />
    <glyph glyph-name="uni020F" unicode="&#x20f;" horiz-adv-x="768" 
d="M618 1288q0 90 -81 90q-53 0 -84 -38t-50 -130h-81q20 113 40 156q53 100 177 100q166 0 166 -137q-1 -33 -13 -119h-80q6 55 6 78zM461 942q-88 0 -136 -62t-75 -210l-57 -322q-12 -78 -13 -127q0 -143 127 -143q88 0 136 62t73 208l57 322q14 74 15 127q0 145 -127 145
zM461 1036q238 0 237 -233q0 -57 -18 -166l-53 -299q-33 -184 -107 -270t-213 -86q-238 0 -237 233q0 68 18 166l51 299q35 188 108 272t214 84z" />
    <glyph glyph-name="uni0210" unicode="&#x210;" horiz-adv-x="880" 
d="M543 1628h-78l-72 279h121zM723 1628h-78l-72 279h119zM430 752q92 0 143 24t93 84q84 125 84 307q0 99 -44 149t-161 50h-135l-109 -614h129zM547 1462q178 0 250 -72q71 -72 71 -197q0 -126 -32 -235q-32 -108 -89 -180q-56 -72 -165 -106l100 -672h-125l-88 657h-182
l-117 -657h-115l258 1462h234z" />
    <glyph glyph-name="uni0211" unicode="&#x211;" horiz-adv-x="532" 
d="M377 1194h-78l-72 279h121zM557 1194h-78l-71 279h118zM455 940q-72 0 -123 -104t-92 -336l-88 -500h-111l180 1018h86l-4 -92q72 111 176 110q70 0 129 -51l-69 -92q-39 47 -84 47z" />
    <glyph glyph-name="uni0212" unicode="&#x212;" horiz-adv-x="880" 
d="M721 1722q0 90 -80 90q-55 0 -85 -36t-50 -131h-82q20 111 41 155q53 100 178 101q164 0 164 -138q0 -32 -12 -118h-80q6 55 6 77zM438 752q92 0 144 24t92 84q84 125 84 307q0 99 -44 149t-161 50h-135l-109 -614h129zM555 1462q178 0 250 -72t72 -197q0 -126 -33 -235
q-33 -108 -89 -180t-165 -106l100 -672h-125l-88 657h-182l-117 -657h-115l259 1462h233z" />
    <glyph glyph-name="uni0213" unicode="&#x213;" horiz-adv-x="532" 
d="M457 1378q-53 0 -84 -38t-49 -130h-82q20 113 41 156q53 100 176 100q166 0 166 -137q-1 -33 -13 -119h-80q6 55 7 78q0 90 -82 90zM455 940q-72 0 -123 -104t-92 -336l-88 -500h-111l180 1018h86l-4 -92q72 111 176 110q70 0 129 -51l-69 -92q-39 47 -84 47z" />
    <glyph glyph-name="uni0214" unicode="&#x214;" horiz-adv-x="935" 
d="M625 1628h-78l-72 279h121zM805 1628h-78l-72 279h119zM399 80q133 0 197 110q35 53 57 191l193 1081h115l-195 -1104q-20 -112 -38 -162t-58 -96q-96 -117 -277 -116q-135 0 -208 64t-72 183q0 72 18 170l186 1061h115l-190 -1081q-14 -86 -15 -137q0 -164 172 -164z
" />
    <glyph glyph-name="uni0215" unicode="&#x215;" horiz-adv-x="768" 
d="M463 1194h-78l-72 279h121zM643 1194h-78l-71 279h118zM293 80q84 0 135 80t84 262l104 596h111l-178 -1018h-86l8 94q-51 -66 -93 -90t-121 -22q-79 0 -129 52t-50 137t22 204l113 643h111l-115 -653q-18 -106 -19 -152q0 -133 103 -133z" />
    <glyph glyph-name="uni0216" unicode="&#x216;" horiz-adv-x="935" 
d="M780 1722q0 90 -80 90q-55 0 -85 -36t-50 -131h-82q20 111 41 155q53 100 178 101q164 0 164 -138q0 -32 -12 -118h-80q6 55 6 77zM399 80q133 0 197 110q35 53 57 191l193 1081h115l-195 -1104q-20 -112 -38 -162t-58 -96q-96 -117 -277 -116q-135 0 -208 64t-72 183
q0 72 18 170l186 1061h115l-190 -1081q-14 -86 -15 -137q0 -164 172 -164z" />
    <glyph glyph-name="uni0217" unicode="&#x217;" horiz-adv-x="768" 
d="M618 1288q0 90 -81 90q-53 0 -84 -38t-50 -130h-81q20 113 40 156q53 100 177 100q166 0 166 -137q-1 -33 -13 -119h-80q6 55 6 78zM293 80q84 0 135 80t84 262l104 596h111l-178 -1018h-86l8 94q-51 -66 -93 -90t-121 -22q-79 0 -129 52t-50 137t22 204l113 643h111
l-115 -653q-18 -106 -19 -152q0 -133 103 -133z" />
    <glyph glyph-name="Scommaaccent" unicode="&#x218;" horiz-adv-x="800" 
d="M106 -438l119 288h119l-162 -288h-76zM156 266q0 -188 174 -188q141 0 207 153q49 117 49 244t-79 177q-22 14 -117 60t-143 121t-48 193q0 178 86 315t252 138q125 0 195 -70t69 -190q0 -53 -17 -134h-108q12 63 12 115q0 182 -153 182q-109 0 -165 -111t-56 -214
t36 -155q38 -52 146 -105t156 -115t48 -217t-77 -305q-98 -178 -295 -178q-131 0 -207 70t-76 188q0 59 18 163h105q-12 -84 -12 -137z" />
    <glyph glyph-name="scommaaccent" unicode="&#x219;" horiz-adv-x="688" 
d="M57 -438l119 288h119l-162 -288h-76zM127 211q0 -133 141 -133q92 0 153 72q60 72 60 180q0 58 -24 82q-23 24 -39 31t-108 38t-135 82q-44 51 -44 142q0 151 78 241t196 90t177 -54t59 -155q0 -43 -14 -116h-103q10 61 11 102q0 129 -119 129q-78 0 -127 -64t-49 -149
q0 -84 53 -125q25 -16 126 -51t136 -81t35 -124q0 -166 -88 -266t-218 -100t-196 55t-65 156q0 53 16 143h102q-14 -86 -14 -125z" />
    <glyph glyph-name="uni021A" unicode="&#x21a;" horiz-adv-x="677" 
d="M51 -438l119 288h119l-162 -288h-76zM193 0l239 1364h-250l17 98h616l-18 -98h-250l-240 -1364h-114z" />
    <glyph glyph-name="uni021B" unicode="&#x21b;" horiz-adv-x="450" 
d="M-27 -438l119 288h119l-162 -288h-76zM207 176q0 -80 82 -80h30l-18 -96h-27q-98 0 -140 32t-42 98t25 200l104 594h-84l17 94h84l63 340h107l-60 -340h127l-16 -94h-127l-111 -633q-14 -72 -14 -115z" />
    <glyph glyph-name="uni0226" unicode="&#x226;" horiz-adv-x="802" 
d="M543 1647l32 190h109l-33 -190h-108zM571 434l-28 850l-330 -850h358zM575 338h-399l-131 -338h-125l600 1462h101l90 -1462h-123z" />
    <glyph glyph-name="uni0227" unicode="&#x227;" horiz-adv-x="735" 
d="M436 1212l33 191h109l-33 -191h-109zM362 492q-121 0 -176 -76q-57 -86 -57 -219q0 -63 33 -93q32 -30 114 -28q82 0 123 47t64 176l33 193h-134zM418 942q-70 0 -113 -55t-65 -180h-105q25 152 74 219q78 111 225 110q219 0 219 -221q0 -72 -18 -166l-115 -649h-88l2 55
q-35 -41 -76 -57t-110 -16q-233 0 -234 196q0 184 79 294t263 112h156l16 94q34 180 -13 232q-27 32 -97 32z" />
    <glyph glyph-name="uni0237" unicode="&#x237;" horiz-adv-x="382" 
d="M227 1018h111l-191 -1081q-33 -229 -111 -322q-79 -92 -231 -86l17 96q86 -6 136 68t79 244z" />
    <glyph glyph-name="afii57929" unicode="&#x2bc;" horiz-adv-x="245" 
d="M129 997l129 465h117l-154 -465h-92z" />
    <glyph glyph-name="uni02C0" unicode="&#x2c0;" horiz-adv-x="1024" 
d="M778 1827q0 43 -49 43t-104 -25l-13 76q70 27 127 27q143 0 144 -117q0 -59 -74 -131q-29 -31 -37 -46t-16 -52h-90q10 51 19 71t51 72t42 82z" />
    <glyph glyph-name="circumflex" unicode="&#x2c6;" horiz-adv-x="1024" 
d="M668 1376l-117 -170h-119l211 256h72l123 -256h-111z" />
    <glyph glyph-name="caron" unicode="&#x2c7;" horiz-adv-x="1024" 
d="M647 1290l117 168h119l-211 -254h-72l-123 254h111z" />
    <glyph glyph-name="uni02C9" unicode="&#x2c9;" horiz-adv-x="1024" 
d="M477 1284l15 84h342l-15 -84h-342z" />
    <glyph glyph-name="breve" unicode="&#x2d8;" horiz-adv-x="1024" 
d="M567 1368q0 -88 82 -88q53 0 83 37t50 131h82q-20 -111 -41 -156q-53 -100 -178 -100q-78 0 -121 36q-42 36 -42 85t12 135h79q-6 -57 -6 -80z" />
    <glyph glyph-name="dotaccent" unicode="&#x2d9;" horiz-adv-x="1024" 
d="M582 1212l32 191h109l-33 -191h-108z" />
    <glyph glyph-name="ring" unicode="&#x2da;" horiz-adv-x="1024" 
d="M682 1501q-49 0 -81 -47t-32 -128t78 -81q49 0 81 47t32 128t-78 81zM487 1352q1 86 57 152q56 65 135 65t121 -44t42 -123t-52 -152q-52 -72 -136 -72t-125 44q-42 44 -42 130z" />
    <glyph glyph-name="ogonek" unicode="&#x2db;" horiz-adv-x="1024" 
d="M463 -297q29 0 82 14v-71q-59 -23 -119 -23q-141 0 -141 111q0 72 52 142t142 124h96q-86 -63 -118 -102q-63 -74 -64 -144q0 -51 70 -51z" />
    <glyph glyph-name="tilde" unicode="&#x2dc;" horiz-adv-x="1024" 
d="M586 1434q53 0 96 -66q41 -68 63 -68q35 0 66 117h72q-29 -109 -63 -153t-91 -45q-57 0 -98 67q-23 41 -34 53t-26 13q-34 0 -69 -117h-70q31 107 66 153t88 46z" />
    <glyph glyph-name="hungarumlaut" unicode="&#x2dd;" horiz-adv-x="1024" 
d="M674 1194l127 279h121l-170 -279h-78zM494 1194l129 279h118l-170 -279h-77z" />
    <glyph glyph-name="uni0309" unicode="&#x309;" horiz-adv-x="1024" 
d="M702 1403q0 43 -59 43q-37 0 -94 -23l-12 74q70 27 127 27q143 0 143 -117q0 -57 -74 -131q-45 -47 -53 -98h-90q8 51 18 71t52 72t42 82z" />
    <glyph glyph-name="uni0312" unicode="&#x312;" horiz-adv-x="1024" 
d="M535 1194l196 279h84l-149 -279h-131z" />
    <glyph glyph-name="uni0313" unicode="&#x313;" horiz-adv-x="94" 
d="M78 1051l108 419h113l-143 -419h-78z" />
    <glyph glyph-name="uni031B" unicode="&#x31b;" horiz-adv-x="94" 
d="M78 1051l108 419h113l-143 -419h-78z" />
    <glyph glyph-name="uni0323" unicode="&#x323;" horiz-adv-x="1024" 
d="M299 -383l33 190h108l-32 -190h-109z" />
    <glyph glyph-name="uni037E" unicode="&#x37e;" horiz-adv-x="368" 
d="M197 844l30 172h115l-31 -172h-114zM-86 -385l160 555h123l-187 -555h-96z" />
    <glyph glyph-name="uni0387" unicode="&#x387;" horiz-adv-x="370" 
d="M156 668l30 170h115l-31 -170h-114z" />
    <glyph glyph-name="uni04D4" unicode="&#x4d4;" horiz-adv-x="1269" 
d="M629 444l162 920h-15l-518 -920h371zM610 348h-407l-197 -348h-133l852 1462h631l-17 -98h-436l-100 -576h368l-16 -98h-371l-104 -592h436l-16 -98h-551z" />
    <glyph glyph-name="uni04D5" unicode="&#x4d5;" horiz-adv-x="1140" 
d="M975 801q0 141 -125 141q-86 0 -133 -61t-72 -205l-16 -88h317q29 160 29 213zM365 496q-125 0 -181 -82t-55 -217q0 -63 33 -93q32 -30 114 -28q82 0 123 47t64 178l35 195h-133zM428 942q-78 0 -122 -55t-66 -180h-105q29 158 72 219q79 110 229 110t191 -112
q86 113 227 112q111 0 169 -60t58 -154t-43 -326h-430l-26 -148q-14 -84 -15 -121q0 -150 127 -149q88 0 136 57t71 189h105q-25 -156 -68 -224q-78 -118 -235 -118t-211 114q-86 -115 -244 -114q-233 0 -234 194q0 82 24 167t58 136q80 109 260 109h158l14 90q14 70 15 127
q0 137 -115 137z" />
    <glyph glyph-name="uni1E02" unicode="&#x1e02;" horiz-adv-x="899" 
d="M563 1647l33 190h109l-33 -190h-109zM367 96q78 0 125 20t79 72q88 131 88 314q-1 112 -39 158t-128 47h-191l-108 -611h174zM502 803q113 0 174 86q84 117 84 282q0 107 -41 151t-144 44h-157l-101 -563h185zM565 1462q180 0 247 -66t67 -213q1 -146 -59 -263t-154 -160
q61 -37 86 -94t24 -160q0 -233 -114 -389q-48 -63 -110 -90t-165 -27h-326l258 1462h246z" />
    <glyph glyph-name="uni1E03" unicode="&#x1e03;" horiz-adv-x="782" 
d="M547 1212l33 191h108l-33 -191h-108zM598 784q0 154 -115 154q-168 0 -231 -356l-25 -144q-18 -104 -18 -168q0 -193 121 -192q153 -1 202 280l52 293q14 78 14 133zM500 1036q211 0 211 -235q0 -59 -23 -187l-47 -268q-35 -190 -105 -277t-200 -87q-129 0 -184 114
l-25 -96h-88l258 1462h111l-93 -522q76 96 185 96z" />
    <glyph glyph-name="uni1E0C" unicode="&#x1e0c;" horiz-adv-x="919" 
d="M217 -383l33 190h108l-32 -190h-109zM784 1180q0 186 -194 186h-172l-225 -1270h174q125 -2 195 76t97 246l111 626q14 72 14 136zM590 1462q154 0 223 -57q88 -72 88 -215q0 -49 -16 -148l-117 -665q-59 -383 -397 -377h-310l258 1462h271z" />
    <glyph glyph-name="uni1E0D" unicode="&#x1e0d;" horiz-adv-x="782" 
d="M193 -383l32 190h109l-33 -190h-108zM305 80q162 0 225 358l25 144q18 94 18 168q0 190 -124 190q-148 0 -197 -270l-53 -303q-10 -61 -11 -125q0 -162 117 -162zM76 225q0 76 16 164l53 297q31 182 103 266t194 84q68 0 108 -22t68 -74l93 522h112l-258 -1462h-88l6 90
q-78 -109 -194 -108q-213 0 -213 243z" />
    <glyph glyph-name="uni1E1E" unicode="&#x1e1e;" horiz-adv-x="735" 
d="M561 1647l33 190h108l-32 -190h-109zM63 0l259 1462h542l-16 -98h-430l-103 -586h365l-18 -98h-365l-119 -680h-115z" />
    <glyph glyph-name="uni1E1F" unicode="&#x1e1f;" horiz-adv-x="454" 
d="M430 1647l33 190h108l-32 -190h-109zM227 924h-86l17 94h86l37 209q23 139 70 188q48 49 161 47h66l-15 -88h-33q-72 2 -98 -30t-47 -146l-31 -180h148l-19 -94h-145l-164 -924h-111z" />
    <glyph glyph-name="uni1E24" unicode="&#x1e24;" horiz-adv-x="925" 
d="M252 -383l33 190h108l-33 -190h-108zM63 0l259 1462h114l-119 -674h392l118 674h115l-258 -1462h-115l123 690h-393l-121 -690h-115z" />
    <glyph glyph-name="uni1E25" unicode="&#x1e25;" horiz-adv-x="784" 
d="M180 -383l33 190h109l-33 -190h-109zM502 1036q204 0 207 -205q0 -72 -23 -186l-113 -645h-110l115 655q18 100 18 144q0 139 -111 139q-88 0 -141 -79t-86 -261l-106 -598h-111l258 1462h111l-91 -512q79 86 183 86z" />
    <glyph glyph-name="uni1E44" unicode="&#x1e44;" horiz-adv-x="976" 
d="M649 1647l33 190h109l-33 -190h-109zM63 0l259 1462h112l240 -1206l211 1206h110l-258 -1462h-108l-242 1210l-213 -1210h-111z" />
    <glyph glyph-name="uni1E45" unicode="&#x1e45;" horiz-adv-x="784" 
d="M463 1212l33 191h108l-33 -191h-108zM596 803q0 135 -111 135q-88 0 -141 -79t-86 -261l-106 -598h-111l180 1018h84l-6 -86q51 61 95 83q44 21 128 21t135 -53t51 -141t-22 -197l-113 -645h-110l115 655q18 106 18 148z" />
    <glyph glyph-name="uni1E5A" unicode="&#x1e5a;" horiz-adv-x="880" 
d="M227 -383l33 190h109l-33 -190h-109zM438 752q92 0 144 24t92 84q84 125 84 307q0 99 -44 149t-161 50h-135l-109 -614h129zM555 1462q178 0 250 -72t72 -197q0 -126 -33 -235q-33 -108 -89 -180t-165 -106l100 -672h-125l-88 657h-182l-117 -657h-115l259 1462h233z" />
    <glyph glyph-name="uni1E5B" unicode="&#x1e5b;" horiz-adv-x="532" 
d="M-25 -383l33 190h109l-33 -190h-109zM455 940q-72 0 -123 -104t-92 -336l-88 -500h-111l180 1018h86l-2 -92q39 59 78 85q39 25 103 25t122 -51l-67 -92q-41 47 -86 47z" />
    <glyph glyph-name="uni1E62" unicode="&#x1e62;" horiz-adv-x="800" 
d="M176 -383l33 190h108l-32 -190h-109zM156 266q0 -188 174 -188q141 0 207 153q49 117 49 244t-79 177q-22 14 -117 60t-143 121t-48 193q0 178 86 315t252 138q125 0 195 -70t69 -190q0 -53 -17 -134h-108q12 63 12 115q0 182 -153 182q-109 0 -165 -111t-56 -214
t36 -155q38 -52 146 -105t156 -115t48 -217t-77 -305q-98 -178 -295 -178q-131 0 -207 70t-76 188q0 59 18 163h105q-12 -84 -12 -137z" />
    <glyph glyph-name="uni1E63" unicode="&#x1e63;" horiz-adv-x="688" 
d="M125 -383l33 190h108l-33 -190h-108zM127 211q0 -133 141 -133q92 0 153 72q60 72 60 180q0 58 -24 82q-23 24 -39 31t-108 38t-135 82q-44 51 -44 142q0 151 78 241t196 90t177 -54t59 -155q0 -43 -14 -116h-103q10 61 11 102q0 129 -119 129q-78 0 -127 -64t-49 -149
q0 -84 53 -125q25 -16 126 -51t136 -81t35 -124q0 -166 -88 -266t-218 -100t-196 55t-65 156q0 53 16 143h102q-14 -86 -14 -125z" />
    <glyph glyph-name="uni1E6C" unicode="&#x1e6c;" horiz-adv-x="677" 
d="M127 -383l33 190h108l-32 -190h-109zM193 0l241 1364h-252l19 98h614l-16 -98h-250l-242 -1364h-114z" />
    <glyph glyph-name="uni1E6D" unicode="&#x1e6d;" horiz-adv-x="450" 
d="M12 -383l33 190h109l-33 -190h-109zM203 171q0 -38 19 -56t65 -19h28l-16 -96h-27q-100 0 -142 32t-42 94t25 204l106 594h-84l17 94h84l63 340h107l-60 -340h127l-16 -94h-127l-113 -633q-14 -82 -14 -120z" />
    <glyph glyph-name="Wgrave" unicode="&#x1e80;" horiz-adv-x="1212" 
d="M874 1628h-79l-103 279h123zM180 0l51 1462h113l-61 -1202l446 1202h82l25 -1202l362 1202h115l-465 -1462h-98l-25 1196l-446 -1196h-99z" />
    <glyph glyph-name="wgrave" unicode="&#x1e81;" horiz-adv-x="1044" 
d="M715 1194h-80l-103 279h123zM172 0l-20 1018h110l-4 -821l313 821h76l25 -821l284 821h113l-379 -1018h-88l-29 807l-311 -807h-90z" />
    <glyph glyph-name="Wacute" unicode="&#x1e82;" horiz-adv-x="1212" 
d="M735 1628l148 279h133l-197 -279h-84zM180 0l51 1462h113l-61 -1202l446 1202h82l25 -1202l362 1202h115l-465 -1462h-98l-25 1196l-446 -1196h-99z" />
    <glyph glyph-name="wacute" unicode="&#x1e83;" horiz-adv-x="1044" 
d="M575 1194l148 279h133l-197 -279h-84zM172 0l-20 1018h110l-4 -821l313 821h76l25 -821l284 821h113l-379 -1018h-88l-29 807l-311 -807h-90z" />
    <glyph glyph-name="Wdieresis" unicode="&#x1e84;" horiz-adv-x="1212" 
d="M885 1647l33 190h100l-33 -190h-100zM623 1647l32 190h101l-33 -190h-100zM180 0l51 1462h113l-61 -1202l446 1202h82l25 -1202l362 1202h115l-465 -1462h-98l-25 1196l-446 -1196h-99z" />
    <glyph glyph-name="wdieresis" unicode="&#x1e85;" horiz-adv-x="1044" 
d="M725 1212l33 191h100l-33 -191h-100zM465 1212l33 191h102l-35 -191h-100zM172 0l-20 1018h110l-4 -821l313 821h76l25 -821l284 821h113l-379 -1018h-88l-29 807l-311 -807h-90z" />
    <glyph glyph-name="uni1E92" unicode="&#x1e92;" horiz-adv-x="727" 
d="M176 -383l33 190h108l-32 -190h-109zM-20 0l12 66l663 1298h-405l18 98h533l-10 -65l-666 -1299h455l-17 -98h-583z" />
    <glyph glyph-name="uni1E93" unicode="&#x1e93;" horiz-adv-x="636" 
d="M115 -383l32 190h109l-33 -190h-108zM-23 0l11 61l493 861h-313l16 96h445l-11 -62l-495 -860h362l-16 -96h-492z" />
    <glyph glyph-name="uni1EA0" unicode="&#x1ea0;" horiz-adv-x="802" 
d="M221 -383l35 190h109l-35 -190h-109zM571 434l-28 850l-330 -850h358zM575 338h-399l-131 -338h-125l600 1462h101l90 -1462h-123z" />
    <glyph glyph-name="uni1EA1" unicode="&#x1ea1;" horiz-adv-x="735" 
d="M156 -383l32 190h109l-33 -190h-108zM362 492q-121 0 -176 -76q-57 -86 -57 -219q0 -63 33 -93q32 -30 114 -28q82 0 123 47t64 176l33 193h-134zM418 942q-70 0 -113 -55t-65 -180h-105q25 152 74 219q78 111 225 110q219 0 219 -221q0 -72 -18 -166l-115 -649h-88l2 55
q-35 -41 -76 -57t-110 -16q-233 0 -234 196q0 184 79 294t263 112h156l16 94q34 180 -13 232q-27 32 -97 32z" />
    <glyph glyph-name="uni1EA2" unicode="&#x1ea2;" horiz-adv-x="802" 
d="M655 1827q0 43 -49 43t-104 -25l-13 76q70 27 127 27q143 0 144 -117q0 -57 -74 -131q-29 -31 -37 -46t-16 -52h-90q8 49 17 68t52 73t43 84zM571 434l-28 850l-330 -850h358zM575 338h-399l-131 -338h-125l600 1462h101l90 -1462h-123z" />
    <glyph glyph-name="uni1EA3" unicode="&#x1ea3;" horiz-adv-x="735" 
d="M559 1403q0 43 -59 43q-37 0 -97 -23l-10 74q66 27 125 27q145 0 146 -117q0 -35 -14 -61t-53 -63q-38 -38 -46 -53t-14 -52h-91q10 51 19 70q8 19 51 73t43 82zM362 492q-121 0 -176 -76q-57 -86 -57 -219q0 -63 33 -93q32 -30 114 -28q82 0 123 47t64 176l33 193h-134z
M418 942q-70 0 -113 -55t-65 -180h-105q25 152 74 219q78 111 225 110q219 0 219 -221q0 -72 -18 -166l-115 -649h-88l2 55q-35 -41 -76 -57t-110 -16q-233 0 -234 196q0 184 79 294t263 112h156l16 94q34 180 -13 232q-27 32 -97 32z" />
    <glyph glyph-name="uni1EA4" unicode="&#x1ea4;" horiz-adv-x="802" 
d="M614 1679l-127 -118h-118l223 202h65l152 -202h-111zM580 1821l127 229h108l-168 -229h-67zM571 434l-28 850l-330 -850h358zM575 338h-399l-131 -338h-125l600 1462h101l90 -1462h-123z" />
    <glyph glyph-name="uni1EA5" unicode="&#x1ea5;" horiz-adv-x="735" 
d="M504 1247l-127 -119h-119l223 203h66l151 -203h-110zM469 1386l125 230h108l-167 -230h-66zM362 492q-121 0 -176 -76q-57 -86 -57 -219q0 -63 33 -93q32 -30 114 -28q82 0 123 47t64 176l33 193h-134zM418 942q-70 0 -113 -55t-65 -180h-105q25 152 74 219
q78 111 225 110q219 0 219 -221q0 -72 -18 -166l-115 -649h-88l2 55q-35 -41 -76 -57t-110 -16q-233 0 -234 196q0 184 79 294t263 112h156l16 94q34 180 -13 232q-27 32 -97 32z" />
    <glyph glyph-name="uni1EA6" unicode="&#x1ea6;" horiz-adv-x="802" 
d="M614 1679l-127 -118h-118l223 202h65l152 -202h-111zM684 1821h-63l-93 229h99zM571 434l-28 850l-330 -850h358zM575 338h-399l-131 -338h-125l600 1462h101l90 -1462h-123z" />
    <glyph glyph-name="uni1EA7" unicode="&#x1ea7;" horiz-adv-x="735" 
d="M504 1247l-127 -119h-121l225 203h66l151 -203h-110zM571 1386h-61l-92 230h98zM362 492q-121 0 -176 -76q-57 -86 -57 -219q0 -63 33 -93q32 -30 114 -28q82 0 123 47t64 176l33 193h-134zM418 942q-70 0 -113 -55t-65 -180h-105q25 152 74 219q78 111 225 110
q219 0 219 -221q0 -72 -18 -166l-115 -649h-88l2 55q-35 -41 -76 -57t-110 -16q-233 0 -234 196q0 184 79 294t263 112h156l16 94q34 180 -13 232q-27 32 -97 32z" />
    <glyph glyph-name="uni1EA8" unicode="&#x1ea8;" horiz-adv-x="802" 
d="M610 1679l-127 -118h-118l221 198h65l154 -198h-111zM670 1954q0 35 -39 35q-25 0 -66 -17l-8 62q49 20 96 20q100 0 101 -88q0 -43 -41 -89t-47 -85h-74q6 51 42 94t36 68zM571 434l-28 850l-330 -850h358zM575 338h-399l-131 -338h-125l600 1462h101l90 -1462h-123z
" />
    <glyph glyph-name="uni1EA9" unicode="&#x1ea9;" horiz-adv-x="735" 
d="M498 1247l-125 -119h-121l223 199h66l153 -199h-110zM557 1522q0 35 -37 34q-31 0 -65 -16l-9 62q47 20 95 20q100 0 100 -88q0 -39 -41 -87t-47 -87h-74q8 51 43 94t35 68zM362 492q-121 0 -176 -76q-57 -86 -57 -219q0 -63 33 -93q32 -30 114 -28q82 0 123 47t64 176
l33 193h-134zM418 942q-70 0 -113 -55t-65 -180h-105q25 152 74 219q78 111 225 110q219 0 219 -221q0 -72 -18 -166l-115 -649h-88l2 55q-35 -41 -76 -57t-110 -16q-233 0 -234 196q0 184 79 294t263 112h156l16 94q34 180 -13 232q-27 32 -97 32z" />
    <glyph glyph-name="uni1EAA" unicode="&#x1eaa;" horiz-adv-x="802" 
d="M621 1679l-127 -118h-119l223 202h66l151 -202h-108zM595 2042q50 0 85 -62q33 -63 51 -63q35 0 70 108h65q-34 -106 -64 -146t-79 -40t-84 64q-23 39 -32 50t-21 11q-39 0 -80 -109h-66q35 103 70 145t85 42zM571 434l-28 850l-330 -850h358zM575 338h-399l-131 -338
h-125l600 1462h101l90 -1462h-123z" />
    <glyph glyph-name="uni1EAB" unicode="&#x1eab;" horiz-adv-x="735" 
d="M510 1247l-127 -119h-119l223 203h66l152 -203h-111zM483 1608q49 0 83 -62t55 -61q37 0 67 106h66q-31 -102 -62 -143t-81 -41t-85 63q-20 36 -29 48t-24 12q-35 0 -78 -109h-65q35 102 69 145q35 42 84 42zM362 492q-121 0 -176 -76q-57 -86 -57 -219q0 -63 33 -93
q32 -30 114 -28q82 0 123 47t64 176l33 193h-134zM418 942q-70 0 -113 -55t-65 -180h-105q25 152 74 219q78 111 225 110q219 0 219 -221q0 -72 -18 -166l-115 -649h-88l2 55q-35 -41 -76 -57t-110 -16q-233 0 -234 196q0 184 79 294t263 112h156l16 94q34 180 -13 232
q-27 32 -97 32z" />
    <glyph glyph-name="uni1EAC" unicode="&#x1eac;" horiz-adv-x="802" 
d="M190 -383l33 190h109l-33 -190h-109zM618 1808l-116 -168h-119l211 254h72l122 -254h-110zM571 434l-28 850l-330 -850h358zM575 338h-399l-131 -338h-125l600 1462h101l90 -1462h-123z" />
    <glyph glyph-name="uni1EAD" unicode="&#x1ead;" horiz-adv-x="735" 
d="M156 -383l32 190h109l-33 -190h-108zM522 1376l-119 -170h-116l211 256h71l123 -256h-110zM362 492q-121 0 -176 -76q-57 -86 -57 -219q0 -63 33 -93q32 -30 114 -28q82 0 123 47t64 176l33 193h-134zM418 942q-70 0 -113 -55t-65 -180h-105q25 152 74 219
q78 111 225 110q219 0 219 -221q0 -72 -18 -166l-115 -649h-88l2 55q-35 -41 -76 -57t-110 -16q-233 0 -234 196q0 184 79 294t263 112h156l16 94q34 180 -13 232q-27 32 -97 32z" />
    <glyph glyph-name="uni1EAE" unicode="&#x1eae;" horiz-adv-x="802" 
d="M502 1790v-16q-2 -16 -2 -29q0 -102 104 -103q78 0 117 56q16 25 35 92h80q-25 -129 -78 -181q-52 -53 -152 -53t-142 36t-42 118q0 25 6 80h74zM580 1821l127 229h108l-168 -229h-67zM571 434l-28 850l-330 -850h358zM575 338h-399l-131 -338h-125l600 1462h101
l90 -1462h-123z" />
    <glyph glyph-name="uni1EAF" unicode="&#x1eaf;" horiz-adv-x="735" 
d="M387 1311q0 -98 105 -99q63 0 97 33t56 113h80q-27 -129 -79 -181q-52 -53 -152 -53t-143 36q-42 36 -42 118q0 31 8 80h74q-4 -35 -4 -47zM469 1386l125 230h108l-167 -230h-66zM362 492q-121 0 -176 -76q-57 -86 -57 -219q0 -63 33 -93q32 -30 114 -28q82 0 123 47
t64 176l33 193h-134zM418 942q-70 0 -113 -55t-65 -180h-105q25 152 74 219q78 111 225 110q219 0 219 -221q0 -72 -18 -166l-115 -649h-88l2 55q-35 -41 -76 -57t-110 -16q-233 0 -234 196q0 184 79 294t263 112h156l16 94q34 180 -13 232q-27 32 -97 32z" />
    <glyph glyph-name="uni1EB0" unicode="&#x1eb0;" horiz-adv-x="802" 
d="M502 1790v-16q-2 -16 -2 -29q0 -102 104 -103q78 0 117 56q16 25 35 92h80q-25 -129 -78 -181q-52 -53 -152 -53t-142 36t-42 118q0 25 6 80h74zM686 1821h-63l-93 229h101zM571 434l-28 850l-330 -850h358zM575 338h-399l-131 -338h-125l600 1462h101l90 -1462h-123z
" />
    <glyph glyph-name="uni1EB1" unicode="&#x1eb1;" horiz-adv-x="735" 
d="M387 1311q0 -98 105 -99q63 0 97 33t56 113h80q-27 -129 -79 -181q-52 -53 -152 -53t-143 36q-42 36 -42 118q0 31 8 80h74q-4 -35 -4 -47zM575 1386h-63l-92 230h98zM362 492q-121 0 -176 -76q-57 -86 -57 -219q0 -63 33 -93q32 -30 114 -28q82 0 123 47t64 176l33 193
h-134zM418 942q-70 0 -113 -55t-65 -180h-105q25 152 74 219q78 111 225 110q219 0 219 -221q0 -72 -18 -166l-115 -649h-88l2 55q-35 -41 -76 -57t-110 -16q-233 0 -234 196q0 184 79 294t263 112h156l16 94q34 180 -13 232q-27 32 -97 32z" />
    <glyph glyph-name="uni1EB2" unicode="&#x1eb2;" horiz-adv-x="802" 
d="M502 1790v-16q-2 -16 -2 -29q0 -102 104 -103q78 0 117 56q16 25 35 92h80q-25 -129 -78 -181q-52 -53 -152 -53t-142 36t-42 118q0 25 6 80h74zM670 1956q0 33 -39 33q-25 0 -66 -17l-8 62q53 20 96 20q100 0 101 -90q0 -29 -8 -46t-44 -56q-36 -47 -40 -90h-74
q8 53 41 100q41 51 41 84zM571 434l-28 850l-330 -850h358zM575 338h-399l-131 -338h-125l600 1462h101l90 -1462h-123z" />
    <glyph glyph-name="uni1EB3" unicode="&#x1eb3;" horiz-adv-x="735" 
d="M387 1311q0 -98 105 -99q63 0 97 33t56 113h80q-27 -129 -79 -181q-52 -53 -152 -53t-143 36q-42 36 -42 118q0 31 8 80h74q-4 -35 -4 -47zM559 1523q0 34 -37 33q-29 0 -67 -16l-9 62q47 20 97 20q100 0 100 -90q0 -31 -8 -48q-8 -16 -43 -58t-43 -89h-74q10 57 47 105
t37 81zM362 492q-121 0 -176 -76q-57 -86 -57 -219q0 -63 33 -93q32 -30 114 -28q82 0 123 47t64 176l33 193h-134zM418 942q-70 0 -113 -55t-65 -180h-105q25 152 74 219q78 111 225 110q219 0 219 -221q0 -72 -18 -166l-115 -649h-88l2 55q-35 -41 -76 -57t-110 -16
q-233 0 -234 196q0 184 79 294t263 112h156l16 94q34 180 -13 232q-27 32 -97 32z" />
    <glyph glyph-name="uni1EB4" unicode="&#x1eb4;" horiz-adv-x="802" 
d="M416 1708q0 33 8 76h70q-4 -29 -5 -45q0 -98 107 -99q61 0 96 32t56 112h73q-20 -98 -47 -139q-58 -89 -166 -89t-150 37t-42 115zM590 2044q51 0 85 -62t52 -61q33 0 70 109h65q-33 -106 -63 -147q-31 -40 -80 -40q-49 -1 -83 61t-54 62q-39 0 -80 -106h-66
q63 184 154 184zM571 434l-28 850l-330 -850h358zM575 338h-399l-131 -338h-125l600 1462h101l90 -1462h-123z" />
    <glyph glyph-name="uni1EB5" unicode="&#x1eb5;" horiz-adv-x="735" 
d="M381 1307q0 -100 104 -101q61 0 96 32q34 32 56 112h74q-20 -100 -49 -140q-59 -88 -181 -88q-176 0 -176 152q0 25 6 76h72q-2 -23 -2 -43zM616 1487q31 0 70 108h66q-35 -104 -66 -145t-80 -41t-84 64q-20 39 -29 50t-22 11q-41 0 -80 -109h-65q61 186 151 187
q53 0 86 -62q23 -41 32 -52t21 -11zM362 492q-121 0 -176 -76q-57 -86 -57 -219q0 -63 33 -93q32 -30 114 -28q82 0 123 47t64 176l33 193h-134zM418 942q-70 0 -113 -55t-65 -180h-105q25 152 74 219q78 111 225 110q219 0 219 -221q0 -72 -18 -166l-115 -649h-88l2 55
q-35 -41 -76 -57t-110 -16q-233 0 -234 196q0 184 79 294t263 112h156l16 94q34 180 -13 232q-27 32 -97 32z" />
    <glyph glyph-name="uni1EB6" unicode="&#x1eb6;" horiz-adv-x="802" 
d="M217 -383l33 190h108l-32 -190h-109zM518 1804q0 -90 82 -90q55 0 85 37t50 131h80q-16 -111 -41 -156q-49 -100 -176 -100q-164 0 -164 139q0 27 10 117h80q-6 -59 -6 -78zM571 434l-28 850l-330 -850h358zM575 338h-399l-131 -338h-125l600 1462h101l90 -1462h-123z
" />
    <glyph glyph-name="uni1EB7" unicode="&#x1eb7;" horiz-adv-x="735" 
d="M156 -383l32 190h109l-33 -190h-108zM422 1370q0 -90 82 -90q55 0 84 37t51 131h80q-20 -117 -41 -156q-51 -100 -176 -100q-166 0 -166 139q0 33 12 117h80q-6 -61 -6 -78zM362 492q-121 0 -176 -76q-57 -86 -57 -219q0 -63 33 -93q32 -30 114 -28q82 0 123 47t64 176
l33 193h-134zM418 942q-70 0 -113 -55t-65 -180h-105q25 152 74 219q78 111 225 110q219 0 219 -221q0 -72 -18 -166l-115 -649h-88l2 55q-35 -41 -76 -57t-110 -16q-233 0 -234 196q0 184 79 294t263 112h156l16 94q34 180 -13 232q-27 32 -97 32z" />
    <glyph glyph-name="uni1EB8" unicode="&#x1eb8;" horiz-adv-x="784" 
d="M254 -383l35 190h108l-35 -190h-108zM63 0l259 1462h548l-16 -98h-436l-101 -576h369l-16 -98h-371l-104 -592h436l-17 -98h-551z" />
    <glyph glyph-name="uni1EB9" unicode="&#x1eb9;" horiz-adv-x="747" 
d="M162 -383l35 190h108l-35 -190h-108zM580 801q0 141 -125 141q-84 0 -131 -61t-72 -205l-16 -88h317q27 156 27 213zM307 78q84 0 131 57t70 189h104q-25 -156 -69 -226q-76 -117 -242 -116q-113 0 -171 61t-58 176q0 63 18 170l49 281q37 197 97 270q84 96 221 96
q229 0 229 -233q0 -51 -41 -307h-426l-26 -148q-10 -57 -11 -129q0 -141 125 -141z" />
    <glyph glyph-name="uni1EBA" unicode="&#x1eba;" horiz-adv-x="784" 
d="M612 1870q-39 0 -96 -25l-10 76q66 27 129 27q141 0 141 -117q0 -35 -14 -61t-52 -64t-47 -53q-8 -14 -14 -51h-90q8 51 19 71q10 20 52 72t42 82q0 43 -60 43zM63 0l259 1462h548l-16 -98h-436l-101 -576h369l-16 -98h-371l-104 -592h436l-17 -98h-551z" />
    <glyph glyph-name="uni1EBB" unicode="&#x1ebb;" horiz-adv-x="747" 
d="M563 1403q0 43 -59 43q-37 0 -96 -23l-11 74q68 27 127 27q143 0 144 -117q0 -35 -14 -61t-53 -63q-38 -38 -46 -53t-14 -52h-90q10 51 18 70t51 72t43 83zM580 801q0 141 -125 141q-84 0 -131 -61t-72 -205l-16 -88h317q27 156 27 213zM307 78q84 0 131 57t70 189h104
q-25 -156 -69 -226q-76 -117 -242 -116q-113 0 -171 61t-58 176q0 63 18 170l49 281q37 197 97 270q84 96 221 96q229 0 229 -233q0 -51 -41 -307h-426l-26 -148q-10 -57 -11 -129q0 -141 125 -141z" />
    <glyph glyph-name="uni1EBC" unicode="&#x1ebc;" horiz-adv-x="784" 
d="M551 1868q53 0 96 -66q41 -68 64 -67q37 0 65 116h72q-27 -106 -62 -152t-92 -46t-98 67q-23 42 -34 54t-25 12q-35 0 -70 -117h-70q31 107 66 153t88 46zM63 0l259 1462h548l-16 -98h-436l-101 -576h369l-16 -98h-371l-104 -592h436l-17 -98h-551z" />
    <glyph glyph-name="uni1EBD" unicode="&#x1ebd;" horiz-adv-x="747" 
d="M448 1434q53 0 97 -66q41 -68 63 -68q35 0 66 117h71q-29 -109 -63 -153t-90 -45q-57 0 -98 67q-23 41 -34 53t-26 13q-34 0 -69 -117h-70q31 106 65 153q35 46 88 46zM580 801q0 141 -125 141q-84 0 -131 -61t-72 -205l-16 -88h317q27 156 27 213zM307 78q84 0 131 57
t70 189h104q-25 -156 -69 -226q-76 -117 -242 -116q-113 0 -171 61t-58 176q0 63 18 170l49 281q37 197 97 270q84 96 221 96q229 0 229 -233q0 -51 -41 -307h-426l-26 -148q-10 -57 -11 -129q0 -141 125 -141z" />
    <glyph glyph-name="uni1EBE" unicode="&#x1ebe;" horiz-adv-x="784" 
d="M629 1679l-127 -118h-119l223 202h66l151 -202h-108zM594 1821l127 229h108l-167 -229h-68zM63 0l259 1462h548l-16 -98h-436l-101 -576h369l-16 -98h-371l-104 -592h436l-17 -98h-551z" />
    <glyph glyph-name="uni1EBF" unicode="&#x1ebf;" horiz-adv-x="747" 
d="M510 1247l-127 -119h-119l223 203h66l152 -203h-111zM475 1386l125 230h111l-168 -230h-68zM580 801q0 141 -125 141q-84 0 -131 -61t-72 -205l-16 -88h317q27 156 27 213zM307 78q84 0 131 57t70 189h104q-25 -156 -69 -226q-76 -117 -242 -116q-113 0 -171 61t-58 176
q0 63 18 170l49 281q37 197 97 270q84 96 221 96q229 0 229 -233q0 -51 -41 -307h-426l-26 -148q-10 -57 -11 -129q0 -141 125 -141z" />
    <glyph glyph-name="uni1EC0" unicode="&#x1ec0;" horiz-adv-x="784" 
d="M629 1679l-127 -118h-119l223 202h66l151 -202h-108zM698 1821h-63l-92 229h100zM63 0l259 1462h548l-16 -98h-436l-101 -576h369l-16 -98h-371l-104 -592h436l-17 -98h-551z" />
    <glyph glyph-name="uni1EC1" unicode="&#x1ec1;" horiz-adv-x="747" 
d="M510 1247l-127 -119h-119l223 203h66l152 -203h-111zM578 1386h-62l-92 230h98zM580 801q0 141 -125 141q-84 0 -131 -61t-72 -205l-16 -88h317q27 156 27 213zM307 78q84 0 131 57t70 189h104q-25 -156 -69 -226q-76 -117 -242 -116q-113 0 -171 61t-58 176q0 63 18 170
l49 281q37 197 97 270q84 96 221 96q229 0 229 -233q0 -51 -41 -307h-426l-26 -148q-10 -57 -11 -129q0 -141 125 -141z" />
    <glyph glyph-name="uni1EC2" unicode="&#x1ec2;" horiz-adv-x="784" 
d="M625 1679l-127 -118h-119l223 198h66l151 -198h-110zM684 1954q0 35 -39 35q-25 0 -65 -17l-9 62q53 20 97 20q100 0 100 -88q0 -43 -41 -89t-47 -85h-74q8 51 43 94t35 68zM63 0l259 1462h548l-16 -98h-436l-101 -576h369l-16 -98h-371l-104 -592h436l-17 -98h-551z" />
    <glyph glyph-name="uni1EC3" unicode="&#x1ec3;" horiz-adv-x="747" 
d="M506 1247l-127 -119h-119l221 199h66l153 -199h-110zM565 1522q0 35 -37 34q-29 0 -67 -16l-8 62q47 20 96 20q100 0 100 -88q0 -41 -42 -90t-46 -84h-74q6 51 42 94t36 68zM580 801q0 141 -125 141q-84 0 -131 -61t-72 -205l-16 -88h317q27 156 27 213zM307 78
q84 0 131 57t70 189h104q-25 -156 -69 -226q-76 -117 -242 -116q-113 0 -171 61t-58 176q0 63 18 170l49 281q37 197 97 270q84 96 221 96q229 0 229 -233q0 -51 -41 -307h-426l-26 -148q-10 -57 -11 -129q0 -141 125 -141z" />
    <glyph glyph-name="uni1EC4" unicode="&#x1ec4;" horiz-adv-x="784" 
d="M635 1679l-125 -118h-121l225 202h66l151 -202h-110zM609 2042q50 0 85 -62q33 -63 51 -63q35 0 70 108h66q-33 -104 -64 -145t-80 -41t-84 64q-20 37 -30 49t-23 12q-39 0 -80 -109h-65q35 100 69 144q35 43 85 43zM63 0l259 1462h548l-16 -98h-436l-101 -576h369
l-16 -98h-371l-104 -592h436l-17 -98h-551z" />
    <glyph glyph-name="uni1EC5" unicode="&#x1ec5;" horiz-adv-x="747" 
d="M516 1247l-127 -119h-119l224 203h65l152 -203h-111zM490 1608q50 0 83 -62q23 -39 32 -50t22 -11q35 0 69 106h66q-33 -102 -64 -143q-32 -41 -82 -41t-81 63q-23 36 -32 48t-22 12q-37 0 -80 -109h-65q35 103 70 145q34 42 84 42zM580 801q0 141 -125 141
q-84 0 -131 -61t-72 -205l-16 -88h317q27 156 27 213zM307 78q84 0 131 57t70 189h104q-25 -156 -69 -226q-76 -117 -242 -116q-113 0 -171 61t-58 176q0 63 18 170l49 281q37 197 97 270q84 96 221 96q229 0 229 -233q0 -51 -41 -307h-426l-26 -148q-10 -57 -11 -129
q0 -141 125 -141z" />
    <glyph glyph-name="uni1EC6" unicode="&#x1ec6;" horiz-adv-x="784" 
d="M260 -383l33 190h108l-32 -190h-109zM647 1808l-119 -168h-116l211 254h71l123 -254h-110zM63 0l259 1462h548l-16 -98h-436l-101 -576h369l-16 -98h-371l-104 -592h436l-17 -98h-551z" />
    <glyph glyph-name="uni1EC7" unicode="&#x1ec7;" horiz-adv-x="747" 
d="M168 -383l33 190h108l-33 -190h-108zM537 1376l-119 -170h-119l213 256h72l121 -256h-109zM580 801q0 141 -125 141q-84 0 -131 -61t-72 -205l-16 -88h317q27 156 27 213zM307 78q84 0 131 57t70 189h104q-25 -156 -69 -226q-76 -117 -242 -116q-113 0 -171 61t-58 176
q0 63 18 170l49 281q37 197 97 270q84 96 221 96q229 0 229 -233q0 -51 -41 -307h-426l-26 -148q-10 -57 -11 -129q0 -141 125 -141z" />
    <glyph glyph-name="uni1EC8" unicode="&#x1ec8;" horiz-adv-x="417" 
d="M467 1827q0 43 -49 43t-105 -25l-12 76q70 27 127 27q143 0 143 -117q0 -57 -73 -131q-30 -31 -38 -46t-16 -52h-90q8 51 19 71q10 20 52 72t42 82zM63 0l259 1462h114l-258 -1462h-115z" />
    <glyph glyph-name="uni1EC9" unicode="&#x1ec9;" horiz-adv-x="376" 
d="M379 1403q0 43 -60 43q-37 0 -94 -23l-12 74q70 27 127 27q143 0 143 -117q0 -35 -14 -61q-13 -26 -59 -71q-46 -46 -54 -97h-90q8 51 19 71q10 20 52 72t42 82zM43 0l180 1018h111l-180 -1018h-111z" />
    <glyph glyph-name="uni1ECA" unicode="&#x1eca;" horiz-adv-x="417" 
d="M-4 -383l33 190h108l-33 -190h-108zM61 0l258 1462h115l-258 -1462h-115z" />
    <glyph glyph-name="uni1ECB" unicode="&#x1ecb;" horiz-adv-x="376" 
d="M-25 -383l33 190h109l-33 -190h-109zM43 0l180 1018h111l-180 -1018h-111zM266 1272l35 192h111l-33 -192h-113z" />
    <glyph glyph-name="uni1ECC" unicode="&#x1ecc;" horiz-adv-x="917" 
d="M248 -383l33 190h108l-33 -190h-108zM786 1206q0 78 -48 128t-132 50q-123 0 -192 -102q-45 -72 -74 -233l-113 -635q-14 -90 -14 -162t47 -123t133 -51q125 0 191 102q46 70 75 234l111 635q16 79 16 157zM594 1481q156 0 231 -73q76 -73 76 -210q0 -59 -16 -158
l-117 -661q-20 -115 -44 -175t-69 -112q-93 -110 -249 -110q-308 1 -308 282q1 60 17 158l116 661q20 115 43 175t68 112q96 111 252 111z" />
    <glyph glyph-name="uni1ECD" unicode="&#x1ecd;" horiz-adv-x="768" 
d="M172 -383l33 190h108l-32 -190h-109zM461 942q-88 0 -136 -62t-75 -210l-57 -322q-12 -78 -13 -127q0 -143 127 -143q88 0 136 62t73 208l57 322q14 74 15 127q0 145 -127 145zM461 1036q238 0 237 -233q0 -57 -18 -166l-53 -299q-33 -184 -107 -270t-213 -86
q-238 0 -237 233q0 68 18 166l51 299q35 188 108 272t214 84z" />
    <glyph glyph-name="uni1ECE" unicode="&#x1ece;" horiz-adv-x="917" 
d="M723 1827q0 43 -49 43t-105 -25l-12 76q70 27 127 27q143 0 143 -117q0 -35 -14 -61t-59 -70q-30 -33 -38 -47t-16 -51h-90q10 53 20 72q9 19 51 71t42 82zM786 1206q0 78 -48 128t-132 50q-123 0 -192 -102q-45 -72 -74 -233l-113 -635q-14 -90 -14 -162t47 -123
t133 -51q125 0 191 102q46 70 75 234l111 635q16 79 16 157zM594 1481q156 0 231 -73q76 -73 76 -210q0 -59 -16 -158l-117 -661q-20 -115 -44 -175t-69 -112q-93 -110 -249 -110q-308 1 -308 282q1 60 17 158l116 661q20 115 43 175t68 112q96 111 252 111z" />
    <glyph glyph-name="uni1ECF" unicode="&#x1ecf;" horiz-adv-x="768" 
d="M569 1403q0 43 -49 43t-104 -23l-13 74q70 27 127 27q143 0 144 -117q0 -57 -74 -131q-29 -29 -37 -44t-16 -54h-90q8 49 17 68t52 73t43 84zM461 942q-88 0 -136 -62t-75 -210l-57 -322q-12 -78 -13 -127q0 -143 127 -143q88 0 136 62t73 208l57 322q14 74 15 127
q0 145 -127 145zM461 1036q238 0 237 -233q0 -57 -18 -166l-53 -299q-33 -184 -107 -270t-213 -86q-238 0 -237 233q0 68 18 166l51 299q35 188 108 272t214 84z" />
    <glyph glyph-name="uni1ED0" unicode="&#x1ed0;" horiz-adv-x="917" 
d="M672 1679l-127 -118h-119l223 202h66l151 -202h-110zM637 1821l125 229h110l-167 -229h-68zM786 1206q0 78 -48 128t-132 50q-123 0 -192 -102q-45 -72 -74 -233l-113 -635q-14 -90 -14 -162t47 -123t133 -51q125 0 191 102q46 70 75 234l111 635q16 79 16 157zM594 1481
q156 0 231 -73q76 -73 76 -210q0 -59 -16 -158l-117 -661q-20 -115 -44 -175t-69 -112q-93 -110 -249 -110q-308 1 -308 282q1 60 17 158l116 661q20 115 43 175t68 112q96 111 252 111z" />
    <glyph glyph-name="uni1ED1" unicode="&#x1ed1;" horiz-adv-x="768" 
d="M518 1247l-125 -119h-121l226 203h63l154 -203h-111zM483 1386l127 230h109l-168 -230h-68zM461 942q-88 0 -136 -62t-75 -210l-57 -322q-12 -78 -13 -127q0 -143 127 -143q88 0 136 62t73 208l57 322q14 74 15 127q0 145 -127 145zM461 1036q238 0 237 -233
q0 -57 -18 -166l-53 -299q-33 -184 -107 -270t-213 -86q-238 0 -237 233q0 68 18 166l51 299q35 188 108 272t214 84z" />
    <glyph glyph-name="uni1ED2" unicode="&#x1ed2;" horiz-adv-x="917" 
d="M672 1679l-127 -118h-119l223 202h66l151 -202h-110zM739 1821h-61l-92 229h98zM786 1206q0 78 -48 128t-132 50q-123 0 -192 -102q-45 -72 -74 -233l-113 -635q-14 -90 -14 -162t47 -123t133 -51q125 0 191 102q46 70 75 234l111 635q16 79 16 157zM594 1481
q156 0 231 -73q76 -73 76 -210q0 -59 -16 -158l-117 -661q-20 -115 -44 -175t-69 -112q-93 -110 -249 -110q-308 1 -308 282q1 60 17 158l116 661q20 115 43 175t68 112q96 111 252 111z" />
    <glyph glyph-name="uni1ED3" unicode="&#x1ed3;" horiz-adv-x="768" 
d="M518 1247l-125 -119h-121l226 203h65l152 -203h-111zM588 1386h-64l-90 230h98zM461 942q-88 0 -136 -62t-75 -210l-57 -322q-12 -78 -13 -127q0 -143 127 -143q88 0 136 62t73 208l57 322q14 74 15 127q0 145 -127 145zM461 1036q238 0 237 -233q0 -57 -18 -166
l-53 -299q-33 -184 -107 -270t-213 -86q-238 0 -237 233q0 68 18 166l51 299q35 188 108 272t214 84z" />
    <glyph glyph-name="uni1ED4" unicode="&#x1ed4;" horiz-adv-x="917" 
d="M668 1679l-127 -118h-119l221 198h66l153 -198h-110zM727 1954q0 35 -39 35q-25 0 -65 -17l-9 62q49 20 97 20q100 0 100 -88q0 -43 -49 -96q-37 -45 -39 -78h-74q8 53 43 94t35 68zM786 1206q0 78 -48 128t-132 50q-123 0 -192 -102q-45 -72 -74 -233l-113 -635
q-14 -90 -14 -162t47 -123t133 -51q125 0 191 102q46 70 75 234l111 635q16 79 16 157zM594 1481q156 0 231 -73q76 -73 76 -210q0 -59 -16 -158l-117 -661q-20 -115 -44 -175t-69 -112q-93 -110 -249 -110q-308 1 -308 282q1 60 17 158l116 661q20 115 43 175t68 112
q96 111 252 111z" />
    <glyph glyph-name="uni1ED5" unicode="&#x1ed5;" horiz-adv-x="768" 
d="M514 1247l-127 -119h-119l224 199h65l152 -199h-109zM557 1622q100 0 100 -88q0 -41 -41 -88t-47 -86h-73q8 51 43 94t34 68q0 35 -36 34q-31 0 -66 -16l-8 62q47 20 94 20zM461 942q-88 0 -136 -62t-75 -210l-57 -322q-12 -78 -13 -127q0 -143 127 -143q88 0 136 62
t73 208l57 322q14 74 15 127q0 145 -127 145zM461 1036q238 0 237 -233q0 -57 -18 -166l-53 -299q-33 -184 -107 -270t-213 -86q-238 0 -237 233q0 68 18 166l51 299q35 188 108 272t214 84z" />
    <glyph glyph-name="uni1ED6" unicode="&#x1ed6;" horiz-adv-x="917" 
d="M678 1679l-127 -118h-119l223 202h66l151 -202h-108zM652 2042q50 0 84 -62t52 -63q33 0 70 108h66q-35 -106 -65 -146t-79 -40t-84 64q-23 39 -31 50q-9 11 -22 11q-39 0 -80 -109h-65q33 100 68 144q36 43 86 43zM786 1206q0 78 -48 128t-132 50q-123 0 -192 -102
q-45 -72 -74 -233l-113 -635q-14 -90 -14 -162t47 -123t133 -51q125 0 191 102q46 70 75 234l111 635q16 79 16 157zM594 1481q156 0 231 -73q76 -73 76 -210q0 -59 -16 -158l-117 -661q-20 -115 -44 -175t-69 -112q-93 -110 -249 -110q-308 1 -308 282q1 60 17 158l116 661
q20 115 43 175t68 112q96 111 252 111z" />
    <glyph glyph-name="uni1ED7" unicode="&#x1ed7;" horiz-adv-x="768" 
d="M526 1247l-127 -119h-118l223 203h65l152 -203h-111zM499 1608q50 0 84 -62t54 -61q33 0 68 106h65q-34 -102 -64 -143t-79 -41t-84 63q-19 36 -29 48t-25 12q-38 0 -77 -109h-66q35 103 69 145t84 42zM461 942q-88 0 -136 -62t-75 -210l-57 -322q-12 -78 -13 -127
q0 -143 127 -143q88 0 136 62t73 208l57 322q14 74 15 127q0 145 -127 145zM461 1036q238 0 237 -233q0 -57 -18 -166l-53 -299q-33 -184 -107 -270t-213 -86q-238 0 -237 233q0 68 18 166l51 299q35 188 108 272t214 84z" />
    <glyph glyph-name="uni1ED8" unicode="&#x1ed8;" horiz-adv-x="917" 
d="M248 -383l33 190h108l-33 -190h-108zM688 1808l-117 -168h-118l211 254h71l123 -254h-110zM786 1206q0 78 -48 128t-132 50q-123 0 -192 -102q-45 -72 -74 -233l-113 -635q-14 -90 -14 -162t47 -123t133 -51q125 0 191 102q46 70 75 234l111 635q16 79 16 157zM594 1481
q156 0 231 -73q76 -73 76 -210q0 -59 -16 -158l-117 -661q-20 -115 -44 -175t-69 -112q-93 -110 -249 -110q-308 1 -308 282q1 60 17 158l116 661q20 115 43 175t68 112q96 111 252 111z" />
    <glyph glyph-name="uni1ED9" unicode="&#x1ed9;" horiz-adv-x="768" 
d="M172 -383l33 190h108l-32 -190h-109zM541 1376l-119 -170h-119l213 256h72l121 -256h-111zM461 942q-88 0 -136 -62t-75 -210l-57 -322q-12 -78 -13 -127q0 -143 127 -143q88 0 136 62t73 208l57 322q14 74 15 127q0 145 -127 145zM461 1036q238 0 237 -233
q0 -57 -18 -166l-53 -299q-33 -184 -107 -270t-213 -86q-238 0 -237 233q0 68 18 166l51 299q35 188 108 272t214 84z" />
    <glyph glyph-name="uni1EDA" unicode="&#x1eda;" horiz-adv-x="970" 
d="M625 1628l147 279h131l-196 -279h-82zM786 1206q0 78 -48 128t-146 50t-159 -76q-60 -76 -93 -259l-113 -635q-14 -90 -14 -163t47 -123t135 -50q123 0 189 102q46 70 75 234l111 635q16 79 16 157zM1130 1446q0 -96 -53 -178q-27 -37 -61 -66t-121 -82q-8 -68 -10 -80
l-117 -661q-20 -115 -44 -175t-69 -112q-93 -110 -249 -110q-308 1 -308 282q0 59 17 158l116 661q20 115 43 175t68 112q96 111 264 111q285 0 295 -277q135 102 135 228q0 14 -6 49h98q2 -14 2 -35z" />
    <glyph glyph-name="uni1EDB" unicode="&#x1edb;" horiz-adv-x="813" 
d="M467 1194l147 279h134l-199 -279h-82zM461 940q-88 0 -136 -61t-75 -209l-57 -322q-12 -82 -13 -127q0 -143 127 -143q88 0 136 62t73 208l57 322q14 74 15 125q0 145 -127 145zM909 1034v-37q0 -193 -223 -321q-2 -6 -2 -10l-57 -328q-33 -184 -107 -270t-213 -86
q-238 0 -237 235q0 57 18 164l51 299q37 193 99 262q84 94 221 94q240 0 239 -233q0 -23 -2 -41q119 106 119 225q0 16 -6 47h100z" />
    <glyph glyph-name="uni1EDC" unicode="&#x1edc;" horiz-adv-x="970" 
d="M733 1628h-80l-102 279h123zM786 1206q0 78 -48 128t-146 50t-159 -76q-60 -76 -93 -259l-113 -635q-14 -90 -14 -163t47 -123t135 -50q123 0 189 102q46 70 75 234l111 635q16 79 16 157zM1130 1446q0 -96 -53 -178q-27 -37 -61 -66t-121 -82q-8 -68 -10 -80l-117 -661
q-20 -115 -44 -175t-69 -112q-93 -110 -249 -110q-308 1 -308 282q0 59 17 158l116 661q20 115 43 175t68 112q96 111 264 111q285 0 295 -277q135 102 135 228q0 14 -6 49h98q2 -14 2 -35z" />
    <glyph glyph-name="uni1EDD" unicode="&#x1edd;" horiz-adv-x="813" 
d="M561 1194h-80l-102 279h123zM461 940q-88 0 -136 -61t-75 -209l-57 -322q-12 -82 -13 -127q0 -143 127 -143q88 0 136 62t73 208l57 322q14 74 15 125q0 145 -127 145zM909 1034v-37q0 -193 -223 -321q-2 -6 -2 -10l-57 -328q-33 -184 -107 -270t-213 -86
q-238 0 -237 235q0 57 18 164l51 299q37 193 99 262q84 94 221 94q240 0 239 -233q0 -23 -2 -41q119 106 119 225q0 16 -6 47h100z" />
    <glyph glyph-name="uni1EDE" unicode="&#x1ede;" horiz-adv-x="970" 
d="M666 1870q-50 0 -107 -25l-10 76q68 27 129 27q141 0 141 -117q0 -35 -14 -61q-15 -26 -53 -64t-46 -53q-8 -14 -14 -51h-90q8 51 19 71q9 20 51 72q42 53 42 89q2 36 -48 36zM786 1206q0 78 -48 128t-146 50t-159 -76q-60 -76 -93 -259l-113 -635q-14 -90 -14 -163
t47 -123t135 -50q123 0 189 102q46 70 75 234l111 635q16 79 16 157zM1130 1446q0 -96 -53 -178q-27 -37 -61 -66t-121 -82q-8 -68 -10 -80l-117 -661q-20 -115 -44 -175t-69 -112q-93 -110 -249 -110q-308 1 -308 282q0 59 17 158l116 661q20 115 43 175t68 112
q96 111 264 111q285 0 295 -277q135 102 135 228q0 14 -6 49h98q2 -14 2 -35z" />
    <glyph glyph-name="uni1EDF" unicode="&#x1edf;" horiz-adv-x="813" 
d="M569 1403q0 43 -59 43q-37 0 -96 -23l-11 74q66 27 127 27q143 0 144 -117q0 -35 -14 -61t-53 -63q-38 -38 -46 -53t-14 -52h-90q8 51 17 70t52 73t43 82zM461 940q-88 0 -136 -61t-75 -209l-57 -322q-12 -82 -13 -127q0 -143 127 -143q88 0 136 62t73 208l57 322
q14 74 15 125q0 145 -127 145zM909 1034v-37q0 -193 -223 -321q-2 -6 -2 -10l-57 -328q-33 -184 -107 -270t-213 -86q-238 0 -237 235q0 57 18 164l51 299q37 193 99 262q84 94 221 94q240 0 239 -233q0 -23 -2 -41q119 106 119 225q0 16 -6 47h100z" />
    <glyph glyph-name="uni1EE0" unicode="&#x1ee0;" horiz-adv-x="970" 
d="M598 1868q57 0 96 -66q43 -68 66 -67q35 0 65 116h72q-27 -106 -61 -152t-93 -46q-59 1 -97 67t-60 66q-37 0 -70 -117h-70q55 199 152 199zM786 1206q0 78 -48 128t-146 50t-159 -76q-60 -76 -93 -259l-113 -635q-14 -90 -14 -163t47 -123t135 -50q123 0 189 102
q46 70 75 234l111 635q16 79 16 157zM1130 1446q0 -96 -53 -178q-27 -37 -61 -66t-121 -82q-8 -68 -10 -80l-117 -661q-20 -115 -44 -175t-69 -112q-93 -110 -249 -110q-308 1 -308 282q0 59 17 158l116 661q20 115 43 175t68 112q96 111 264 111q285 0 295 -277
q135 102 135 228q0 14 -6 49h98q2 -14 2 -35z" />
    <glyph glyph-name="uni1EE1" unicode="&#x1ee1;" horiz-adv-x="813" 
d="M440 1434q55 0 99 -66q43 -68 63 -68q37 0 68 117h69q-27 -109 -61 -153t-90 -45q-56 0 -90 55t-43 66q-10 11 -25 12q-37 0 -70 -117h-69q55 199 149 199zM461 940q-88 0 -136 -61t-75 -209l-57 -322q-12 -82 -13 -127q0 -143 127 -143q88 0 136 62t73 208l57 322
q14 74 15 125q0 145 -127 145zM909 1034v-37q0 -193 -223 -321q-2 -6 -2 -10l-57 -328q-33 -184 -107 -270t-213 -86q-238 0 -237 235q0 57 18 164l51 299q37 193 99 262q84 94 221 94q240 0 239 -233q0 -23 -2 -41q119 106 119 225q0 16 -6 47h100z" />
    <glyph glyph-name="uni1EE2" unicode="&#x1ee2;" horiz-adv-x="970" 
d="M274 -383l33 190h109l-35 -190h-107zM786 1206q0 78 -48 128t-146 50t-159 -76q-60 -76 -93 -259l-113 -635q-14 -90 -14 -163t47 -123t135 -50q123 0 189 102q46 70 75 234l111 635q16 79 16 157zM1130 1446q0 -96 -53 -178q-27 -37 -61 -66t-121 -82q-8 -68 -10 -80
l-117 -661q-20 -115 -44 -175t-69 -112q-93 -110 -249 -110q-308 1 -308 282q0 59 17 158l116 661q20 115 43 175t68 112q96 111 264 111q285 0 295 -277q135 102 135 228q0 14 -6 49h98q2 -14 2 -35z" />
    <glyph glyph-name="uni1EE3" unicode="&#x1ee3;" horiz-adv-x="813" 
d="M182 -383l35 190h109l-35 -190h-109zM461 940q-88 0 -136 -61t-75 -209l-57 -322q-12 -82 -13 -127q0 -143 127 -143q88 0 136 62t73 208l57 322q14 74 15 125q0 145 -127 145zM909 1034v-37q0 -193 -223 -321q-2 -6 -2 -10l-57 -328q-33 -184 -107 -270t-213 -86
q-238 0 -237 235q0 57 18 164l51 299q37 193 99 262q84 94 221 94q240 0 239 -233q0 -23 -2 -41q119 106 119 225q0 16 -6 47h100z" />
    <glyph glyph-name="uni1EE4" unicode="&#x1ee4;" horiz-adv-x="935" 
d="M256 -383l35 190h108l-34 -190h-109zM399 80q133 0 197 110q35 53 57 191l193 1081h115l-195 -1104q-20 -112 -38 -162t-58 -96q-96 -117 -277 -116q-135 0 -208 64t-72 183q0 72 18 170l186 1061h115l-190 -1081q-14 -86 -15 -137q0 -164 172 -164z" />
    <glyph glyph-name="uni1EE5" unicode="&#x1ee5;" horiz-adv-x="768" 
d="M172 -383l33 190h108l-32 -190h-109zM293 80q84 0 135 80t84 262l104 596h111l-178 -1018h-86l8 94q-51 -66 -93 -90t-121 -22q-79 0 -129 52t-50 137t22 204l113 643h111l-115 -653q-18 -106 -19 -152q0 -133 103 -133z" />
    <glyph glyph-name="uni1EE6" unicode="&#x1ee6;" horiz-adv-x="935" 
d="M727 1827q0 43 -49 43t-105 -25l-12 76q70 27 129 27q141 0 141 -117q0 -35 -14 -61t-59 -70q-29 -33 -37 -47t-16 -51h-91q10 51 20 71q9 20 51 72t42 82zM399 80q133 0 197 110q35 53 57 191l193 1081h115l-195 -1104q-20 -112 -38 -162t-58 -96q-96 -117 -277 -116
q-135 0 -208 64t-72 183q0 72 18 170l186 1061h115l-190 -1081q-14 -86 -15 -137q0 -164 172 -164z" />
    <glyph glyph-name="uni1EE7" unicode="&#x1ee7;" horiz-adv-x="768" 
d="M569 1403q0 43 -49 43t-104 -23l-13 74q66 27 127 27q143 0 144 -117q0 -35 -14 -61t-53 -63q-38 -38 -46 -53t-14 -52h-90q10 53 19 72t51 71t42 82zM293 80q84 0 135 80t84 262l104 596h111l-178 -1018h-86l8 94q-51 -66 -93 -90t-121 -22q-79 0 -129 52t-50 137
t22 204l113 643h111l-115 -653q-18 -106 -19 -152q0 -133 103 -133z" />
    <glyph glyph-name="uni1EE8" unicode="&#x1ee8;" horiz-adv-x="1015" 
d="M641 1628l147 279h134l-199 -279h-82zM399 80q133 0 197 110q35 53 57 191l193 1081h115l-54 -299q103 63 149 127t46 144q0 16 -6 47h98q2 -16 2 -37q0 -123 -84 -213q-41 -45 -69 -65t-152 -91l-125 -717q-20 -112 -38 -162t-58 -96q-96 -117 -277 -116q-135 0 -208 64
t-72 183q0 72 18 170l186 1061h115l-190 -1081q-14 -84 -15 -137q0 -164 172 -164z" />
    <glyph glyph-name="uni1EE9" unicode="&#x1ee9;" horiz-adv-x="845" 
d="M473 1194l150 279h131l-197 -279h-84zM293 80q84 0 135 80t84 262l104 596h111l-53 -301q195 115 194 272q0 14 -6 45h101v-37q0 -115 -66 -195t-238 -175l-110 -627h-86l8 94q-53 -66 -94 -90t-120 -22q-79 0 -129 52t-50 135t20 206l115 643h111l-115 -653
q-18 -106 -19 -150q0 -135 103 -135z" />
    <glyph glyph-name="uni1EEA" unicode="&#x1eea;" horiz-adv-x="1015" 
d="M729 1628h-80l-102 279h123zM399 80q133 0 197 110q35 53 57 191l193 1081h115l-54 -299q103 63 149 127t46 144q0 16 -6 47h98q2 -16 2 -37q0 -123 -84 -213q-41 -45 -69 -65t-152 -91l-125 -717q-20 -112 -38 -162t-58 -96q-96 -117 -277 -116q-135 0 -208 64t-72 183
q0 72 18 170l186 1061h115l-190 -1081q-14 -84 -15 -137q0 -164 172 -164z" />
    <glyph glyph-name="uni1EEB" unicode="&#x1eeb;" horiz-adv-x="845" 
d="M557 1194h-80l-102 279h121zM293 80q84 0 135 80t84 262l104 596h111l-53 -301q195 115 194 272q0 14 -6 45h101v-37q0 -115 -66 -195t-238 -175l-110 -627h-86l8 94q-53 -66 -94 -90t-120 -22q-79 0 -129 52t-50 135t20 206l115 643h111l-115 -653q-18 -106 -19 -150
q0 -135 103 -135z" />
    <glyph glyph-name="uni1EEC" unicode="&#x1eec;" horiz-adv-x="1015" 
d="M723 1827q0 43 -49 43t-105 -25l-12 76q66 27 127 27q143 0 143 -117q0 -59 -73 -131q-30 -31 -38 -46t-16 -52h-90q10 51 20 71q9 20 51 72t42 82zM399 80q133 0 197 110q35 53 57 191l193 1081h115l-54 -299q103 63 149 127t46 144q0 16 -6 47h98q2 -16 2 -37
q0 -123 -84 -213q-41 -45 -69 -65t-152 -91l-125 -717q-20 -112 -38 -162t-58 -96q-96 -117 -277 -116q-135 0 -208 64t-72 183q0 72 18 170l186 1061h115l-190 -1081q-14 -84 -15 -137q0 -164 172 -164z" />
    <glyph glyph-name="uni1EED" unicode="&#x1eed;" horiz-adv-x="845" 
d="M563 1403q0 43 -59 43q-37 0 -96 -23l-11 74q68 27 127 27q143 0 144 -117q0 -35 -14 -61t-53 -63q-38 -38 -46 -53t-14 -52h-90q8 51 18 71t52 72t42 82zM293 80q84 0 135 80t84 262l104 596h111l-53 -301q195 115 194 272q0 14 -6 45h101v-37q0 -115 -66 -195
t-238 -175l-110 -627h-86l8 94q-53 -66 -94 -90t-120 -22q-79 0 -129 52t-50 135t20 206l115 643h111l-115 -653q-18 -106 -19 -150q0 -135 103 -135z" />
    <glyph glyph-name="uni1EEE" unicode="&#x1eee;" horiz-adv-x="1015" 
d="M619 1868q52 0 96 -66q41 -68 63 -67q37 0 68 116h69q-29 -109 -63 -153t-89 -45q-56 0 -97 67q-25 42 -36 54t-26 12q-34 0 -67 -117h-72q31 104 66 152q36 47 88 47zM399 80q133 0 197 110q35 53 57 191l193 1081h115l-54 -299q103 63 149 127t46 144q0 16 -6 47h98
q2 -16 2 -37q0 -123 -84 -213q-41 -45 -69 -65t-152 -91l-125 -717q-20 -112 -38 -162t-58 -96q-96 -117 -277 -116q-135 0 -208 64t-72 183q0 72 18 170l186 1061h115l-190 -1081q-14 -84 -15 -137q0 -164 172 -164z" />
    <glyph glyph-name="uni1EEF" unicode="&#x1eef;" horiz-adv-x="845" 
d="M455 1434q53 0 96 -67t63 -67q35 0 68 117h70q-29 -109 -63 -153t-91 -45q-57 0 -96 67q-25 41 -36 53t-26 13q-34 0 -67 -117h-72q31 107 66 153t88 46zM293 80q84 0 135 80t84 262l104 596h111l-53 -301q195 115 194 272q0 14 -6 45h101v-37q0 -115 -66 -195t-238 -175
l-110 -627h-86l8 94q-53 -66 -94 -90t-120 -22q-79 0 -129 52t-50 135t20 206l115 643h111l-115 -653q-18 -106 -19 -150q0 -135 103 -135z" />
    <glyph glyph-name="uni1EF0" unicode="&#x1ef0;" horiz-adv-x="1015" 
d="M279 -383l32 190h109l-33 -190h-108zM399 80q133 0 197 110q35 53 57 191l193 1081h115l-54 -299q103 63 149 127t46 144q0 16 -6 47h98q2 -16 2 -37q0 -123 -84 -213q-41 -45 -69 -65t-152 -91l-125 -717q-20 -112 -38 -162t-58 -96q-96 -117 -277 -116q-135 0 -208 64
t-72 183q0 72 18 170l186 1061h115l-190 -1081q-14 -84 -15 -137q0 -164 172 -164z" />
    <glyph glyph-name="uni1EF1" unicode="&#x1ef1;" horiz-adv-x="845" 
d="M184 -383l35 190h109l-35 -190h-109zM293 80q84 0 135 80t84 262l104 596h111l-53 -301q195 115 194 272q0 14 -6 45h101v-37q0 -115 -66 -195t-238 -175l-110 -627h-86l8 94q-53 -66 -94 -90t-120 -22q-79 0 -129 52t-50 135t20 206l115 643h111l-115 -653
q-18 -106 -19 -150q0 -135 103 -135z" />
    <glyph glyph-name="Ygrave" unicode="&#x1ef2;" horiz-adv-x="747" 
d="M643 1628h-80l-102 279h123zM229 0l97 547l-142 915h117l107 -762l374 762h121l-463 -915l-96 -547h-115z" />
    <glyph glyph-name="ygrave" unicode="&#x1ef3;" horiz-adv-x="675" 
d="M522 1194h-80l-102 279h123zM195 -14l-60 1032h107l34 -881l324 881h113l-475 -1227q-62 -156 -126 -208t-192 -54l17 96q79 0 113 33t79 145z" />
    <glyph glyph-name="uni1EF4" unicode="&#x1ef4;" horiz-adv-x="747" 
d="M162 -383l33 190h108l-33 -190h-108zM227 0l99 547l-142 915h117l107 -762l372 762h123l-463 -915l-98 -547h-115z" />
    <glyph glyph-name="uni1EF5" unicode="&#x1ef5;" horiz-adv-x="675" 
d="M334 -383l33 190h108l-33 -190h-108zM195 -14l-60 1032h107l34 -881l324 881h113l-475 -1227q-62 -156 -126 -208t-192 -54l17 96q79 0 113 33t79 145z" />
    <glyph glyph-name="uni1EF6" unicode="&#x1ef6;" horiz-adv-x="747" 
d="M614 1827q0 43 -49 43t-104 -25l-12 76q70 27 129 27q141 0 141 -117q0 -35 -14 -61q-15 -26 -53 -64t-45 -52q-7 -15 -15 -52h-90q10 53 19 72t51 71t42 82zM229 0l97 547l-142 915h117l107 -762l374 762h121l-463 -915l-96 -547h-115z" />
    <glyph glyph-name="uni1EF7" unicode="&#x1ef7;" horiz-adv-x="675" 
d="M510 1403q0 43 -59 43q-37 0 -95 -23l-12 74q70 27 127 27q143 0 143 -117q0 -35 -14 -61t-59 -70q-29 -33 -37 -47t-17 -51h-90q8 51 19 71q10 20 52 72t42 82zM195 -14l-60 1032h107l34 -881l324 881h113l-475 -1227q-62 -156 -126 -208t-192 -54l17 96q79 0 113 33
t79 145z" />
    <glyph glyph-name="uni1EF8" unicode="&#x1ef8;" horiz-adv-x="747" 
d="M510 1868q55 0 98 -67t66 -66q35 0 65 116h70q-27 -106 -61 -152t-91 -46q-59 1 -97 67t-60 66q-37 0 -70 -117h-70q55 199 150 199zM229 0l97 547l-142 915h117l107 -762l374 762h121l-463 -915l-96 -547h-115z" />
    <glyph glyph-name="uni1EF9" unicode="&#x1ef9;" horiz-adv-x="675" 
d="M406 1434q52 0 96 -66q43 -68 63 -68q37 0 68 117h69q-28 -109 -62 -153t-90 -45q-56 0 -89 55t-44 66t-26 12q-34 0 -67 -117h-70q31 106 65 153q35 46 87 46zM195 -14l-60 1032h107l34 -881l324 881h113l-475 -1227q-62 -156 -126 -208t-192 -54l17 96q79 0 113 33
t79 145z" />
    <glyph glyph-name="uni2002" unicode="&#x2002;" horiz-adv-x="1024" 
 />
    <glyph glyph-name="uni2003" unicode="&#x2003;" horiz-adv-x="2048" 
 />
    <glyph glyph-name="uni2004" unicode="&#x2004;" horiz-adv-x="681" 
 />
    <glyph glyph-name="uni2005" unicode="&#x2005;" horiz-adv-x="512" 
 />
    <glyph glyph-name="uni2006" unicode="&#x2006;" horiz-adv-x="342" 
 />
    <glyph glyph-name="uni2007" unicode="&#x2007;" 
 />
    <glyph glyph-name="uni2008" unicode="&#x2008;" horiz-adv-x="0" 
 />
    <glyph glyph-name="uni2009" unicode="&#x2009;" horiz-adv-x="409" 
 />
    <glyph glyph-name="uni200A" unicode="&#x200a;" horiz-adv-x="256" 
 />
    <glyph glyph-name="uni2011" unicode="&#x2011;" horiz-adv-x="620" 
d="M160 702l16 99h371l-17 -99h-370z" />
    <glyph glyph-name="figuredash" unicode="&#x2012;" 
d="M178 702l17 99h573l-18 -99h-572z" />
    <glyph glyph-name="endash" unicode="&#x2013;" 
d="M178 702l17 99h573l-18 -99h-572z" />
    <glyph glyph-name="emdash" unicode="&#x2014;" 
d="M117 702l16 99h698l-18 -99h-696z" />
    <glyph glyph-name="afii00208" unicode="&#x2015;" 
d="M117 702l16 99h698l-18 -99h-696z" />
    <glyph glyph-name="underscoredbl" unicode="&#x2017;" horiz-adv-x="616" 
d="M-168 -260l14 76h682l-14 -76h-682zM-195 -416l15 76h680l-15 -76h-680z" />
    <glyph glyph-name="quoteleft" unicode="&#x2018;" horiz-adv-x="245" 
d="M375 1462l-129 -465h-117l154 465h92z" />
    <glyph glyph-name="quoteright" unicode="&#x2019;" horiz-adv-x="245" 
d="M129 997l129 465h117l-154 -465h-92z" />
    <glyph glyph-name="quotesinglbase" unicode="&#x201a;" horiz-adv-x="245" 
d="M-100 -295l129 465h116l-153 -465h-92z" />
    <glyph glyph-name="quotedblleft" unicode="&#x201c;" horiz-adv-x="487" 
d="M375 1462l-129 -465h-117l154 465h92zM614 1462l-129 -465h-114l153 465h90z" />
    <glyph glyph-name="quotedblright" unicode="&#x201d;" horiz-adv-x="487" 
d="M371 997l129 465h114l-153 -465h-90zM129 997l129 465h117l-154 -465h-92z" />
    <glyph glyph-name="quotedblbase" unicode="&#x201e;" horiz-adv-x="487" 
d="M141 -295l129 465h115l-154 -465h-90zM-100 -295l129 465h116l-153 -465h-92z" />
    <glyph glyph-name="dagger" unicode="&#x2020;" 
d="M440 893h-260l17 98h262l82 471h112l-82 -471h260l-16 -98h-262l-215 -1221h-113z" />
    <glyph glyph-name="daggerdbl" unicode="&#x2021;" 
d="M442 893h-260l17 98h260l84 471h112l-84 -471h263l-19 -98h-260l-63 -361h241l-16 -98h-242l-135 -762h-113l133 762h-243l16 98h246z" />
    <glyph glyph-name="bullet" unicode="&#x2022;" 
d="M432 1067q140 0 234 -91t94 -226q0 -134 -94 -226t-236 -92t-234 91q-94 91 -94 227t96 227q96 90 234 90z" />
    <glyph glyph-name="ellipsis" unicode="&#x2026;" horiz-adv-x="1112" 
d="M780 0l31 172h115l-31 -172h-115zM410 0l28 172h115l-29 -172h-114zM39 0l31 172h114l-30 -172h-115z" />
    <glyph glyph-name="perthousand" unicode="&#x2030;" horiz-adv-x="1689" 
d="M301 0l551 1462h102l-551 -1462h-102zM1542 578q0 94 -86 94q-55 0 -84 -40t-47 -140l-43 -240q-6 -68 -6 -86q0 -94 86 -94q53 0 83 40t48 140l41 240q8 53 8 86zM1350 -10q-178 0 -179 174q1 49 13 108l41 234q23 133 77 190t158 58q188 0 189 -168q0 -39 -11 -99
l-43 -233q-25 -140 -82 -202t-163 -62zM1030 578q0 94 -86 94q-57 0 -86 -40t-47 -140l-43 -240q-6 -55 -6 -86q0 -94 86 -94q53 0 83 40t46 140l43 240q10 59 10 86zM836 -10q-178 0 -179 174q1 42 11 108l43 234q23 133 76 190q54 57 159 58q188 0 189 -168q0 -37 -11 -99
l-43 -233q-25 -140 -82 -202t-163 -62zM410 1397q-53 0 -83 -40t-48 -140l-41 -240q-8 -49 -9 -86q0 -94 86 -94q53 0 84 41t47 139l41 240q8 41 9 86q0 94 -86 94zM602 1311q0 -27 -10 -99l-41 -233q-25 -139 -82 -201t-164 -63q-180 0 -180 174q0 38 12 108l41 234
q23 133 77 190t159 58q188 0 188 -168z" />
    <glyph glyph-name="guilsinglleft" unicode="&#x2039;" horiz-adv-x="327" 
d="M184 596l72 -258l-74 -35l-119 301l224 303l61 -53z" />
    <glyph glyph-name="guilsinglright" unicode="&#x203a;" horiz-adv-x="327" 
d="M180 612l-74 258l76 37l119 -303l-225 -301l-60 53z" />
    <glyph glyph-name="uni203E" unicode="&#x203e;" horiz-adv-x="616" 
d="M172 1665l16 88h680l-16 -88h-680z" />
    <glyph glyph-name="fraction" unicode="&#x2044;" horiz-adv-x="215" 
d="M-170 0l551 1462h104l-551 -1462h-104z" />
    <glyph glyph-name="zerosuperior" unicode="&#x2070;" horiz-adv-x="561" 
d="M569 1491q0 106 -92 106q-119 0 -153 -192l-62 -352q-12 -68 -12 -86q0 -106 92 -107q64 0 100 46t54 147l61 352q12 66 12 86zM475 1677q186 0 187 -176q0 -39 -11 -110l-63 -361q-25 -133 -81 -191t-163 -59q-186 0 -186 178q0 46 12 109l63 360q23 133 79 191t163 59z
" />
    <glyph glyph-name="foursuperior" unicode="&#x2074;" horiz-adv-x="561" 
d="M397 791l29 163h-289l10 62l338 651h97l-326 -631h182l51 279h84l-49 -279h72l-14 -84h-72l-29 -161h-84z" />
    <glyph glyph-name="fivesuperior" unicode="&#x2075;" horiz-adv-x="561" 
d="M594 1169q0 -145 -49 -256q-59 -133 -213 -133q-193 0 -193 160q0 39 13 102h88q-8 -63 -9 -81q-1 -101 103 -101t141 127q25 92 25 181t-84 89q-59 0 -125 -59l-70 14l107 455h338l-13 -80h-256l-65 -278q55 25 102 24q160 0 160 -164z" />
    <glyph glyph-name="sixsuperior" unicode="&#x2076;" horiz-adv-x="561" 
d="M416 1255q-74 0 -115 -77q-17 -39 -33 -108t-16 -114q0 -96 90 -96q76 0 111 74q16 38 31 110q16 72 16 116t-22 70t-62 25zM444 1331q72 0 112 -42t40 -114q0 -71 -19 -159t-45 -135q-55 -100 -190 -101q-184 0 -184 170q0 102 30 183t78 161l232 373h110l-213 -342
q31 6 49 6z" />
    <glyph glyph-name="sevensuperior" unicode="&#x2077;" horiz-adv-x="561" 
d="M168 791l373 796h-289l14 80h389l-10 -59l-366 -817h-111z" />
    <glyph glyph-name="eightsuperior" unicode="&#x2078;" horiz-adv-x="561" 
d="M408 1210q-80 0 -119 -57q-15 -29 -31 -93t-16 -112q0 -88 100 -88q82 0 115 55q18 31 33 96t16 111q0 88 -98 88zM475 1602q-86 0 -115 -72q-31 -84 -30 -166q0 -78 86 -78t110 64q35 78 35 165t-86 87zM242 1364q0 131 48 222t185 91q176 0 176 -147q0 -47 -14 -114
q-15 -66 -33 -102t-65 -61q61 -41 61 -120t-18 -155t-45 -114q-59 -84 -193 -84q-94 0 -145 41t-51 109t17 145t44 117t78 63q-45 37 -45 109z" />
    <glyph glyph-name="ninesuperior" unicode="&#x2079;" horiz-adv-x="561" 
d="M475 1597q-80 0 -115 -65q-14 -32 -28 -100t-15 -109q0 -88 89 -88q76 0 114 70q16 31 30 99t15 105q0 88 -90 88zM379 1159q-74 0 -115 41q-41 42 -41 110t20 152q19 84 44 125q51 90 186 90q186 0 186 -164q0 -113 -43 -215q-14 -33 -59 -106l-250 -401h-110l235 378
q-29 -10 -53 -10z" />
    <glyph glyph-name="zeroinferior" unicode="&#x2080;" horiz-adv-x="561" 
d="M393 498q0 104 -92 104q-61 0 -98 -46t-56 -146l-61 -353q-12 -68 -12 -86q0 -106 92 -106q63 0 99 45t54 147l62 353q12 66 12 88zM299 682q186 0 186 -176q0 -43 -10 -111l-63 -360q-25 -133 -81 -191t-163 -59q-186 0 -186 176q0 37 12 111l63 360q23 130 80 190
t162 60z" />
    <glyph glyph-name="oneinferior" unicode="&#x2081;" horiz-adv-x="561" 
d="M121 -205l135 770l-119 -59l-35 72l199 94h70l-156 -877h-94z" />
    <glyph glyph-name="twoinferior" unicode="&#x2082;" horiz-adv-x="561" 
d="M276 602q-55 0 -85 -38t-50 -136h-88q21 134 75 194t146 60q182 0 183 -166q0 -109 -44 -193t-163 -223l-187 -225h281l-14 -80h-402l11 64l251 305q92 112 130 190t38 163t-82 85z" />
    <glyph glyph-name="threeinferior" unicode="&#x2083;" horiz-adv-x="561" 
d="M190 295q78 0 124 55q46 56 46 154t-86 98q-57 0 -89 -38t-48 -128h-88q19 130 73 188t148 58q186 0 185 -174q0 -166 -127 -248q72 -53 72 -174t-60 -211q-59 -90 -186 -90q-94 0 -146 41q-51 42 -51 102t12 119h88q-10 -49 -10 -82q0 -100 103 -100q72 0 114 61t41 166
q0 127 -121 127h-65l12 76h59z" />
    <glyph glyph-name="fourinferior" unicode="&#x2084;" horiz-adv-x="561" 
d="M221 -205l29 164h-289l10 61l338 652h97l-326 -631h182l51 278h84l-49 -278h72l-14 -84h-72l-29 -162h-84z" />
    <glyph glyph-name="fiveinferior" unicode="&#x2085;" horiz-adv-x="561" 
d="M258 338q160 0 160 -164q0 -145 -49 -256q-59 -133 -213 -133q-193 0 -193 158q0 37 12 104h88q-8 -51 -8 -82q-1 -100 103 -100t141 127q25 92 25 181t-84 89q-63 0 -125 -59l-70 14l107 455h337l-12 -80h-256l-65 -279q51 25 102 25z" />
    <glyph glyph-name="sixinferior" unicode="&#x2086;" horiz-adv-x="561" 
d="M242 260q-74 0 -115 -78q-17 -38 -33 -108t-16 -115q0 -94 90 -94q76 0 111 74q16 37 31 109t16 116q0 44 -22 70t-62 26zM270 336q72 0 112 -42t40 -114t-20 -160t-44 -135q-55 -100 -190 -100q-184 0 -184 170q0 102 30 183t78 161l232 373h110l-213 -342q31 6 49 6z
" />
    <glyph glyph-name="seveninferior" unicode="&#x2087;" horiz-adv-x="561" 
d="M-8 -205l373 797h-289l14 80h389l-10 -60l-367 -817h-110z" />
    <glyph glyph-name="eightinferior" unicode="&#x2088;" horiz-adv-x="561" 
d="M233 215q-84 0 -118 -57q-15 -30 -31 -94t-16 -111q0 -88 100 -88q80 0 115 55q18 28 33 94q16 66 16 110t-26 68t-73 23zM301 606q-86 0 -115 -71q-31 -84 -30 -168q0 -76 86 -76t110 63q35 78 35 165t-86 87zM68 367q0 133 48 224t185 91q176 0 176 -147
q0 -47 -14 -114t-34 -103t-64 -60q61 -39 61 -119q0 -81 -19 -157t-47 -113q-59 -84 -190 -84q-197 0 -197 160q0 57 18 134q17 77 44 117t78 64q-45 37 -45 107z" />
    <glyph glyph-name="nineinferior" unicode="&#x2089;" horiz-adv-x="561" 
d="M299 602q-80 0 -115 -65q-16 -35 -29 -101t-14 -108q0 -88 88 -88q78 0 115 69q16 31 31 98q14 67 14 107q0 88 -90 88zM203 164q-74 0 -115 41t-41 109q-1 68 19 152t45 126q51 90 186 90q186 0 186 -162q0 -115 -43 -217q-14 -33 -59 -106l-250 -402h-111l236 379
q-29 -10 -53 -10z" />
    <glyph glyph-name="franc" unicode="&#x20a3;" horiz-adv-x="1077" 
d="M1025 891q60 0 116 -49l-68 -90q-35 45 -78 45q-72 1 -124 -105t-93 -338l-61 -354h-109l154 872h84l-6 -110q43 72 84 100t101 29zM47 0l258 1462h522l-18 -98h-408l-104 -586h344l-16 -98h-344l-121 -680h-113z" />
    <glyph glyph-name="lira" unicode="&#x20a4;" 
d="M598 1479q133 0 207 -70t74 -195q0 -45 -15 -129h-106q10 66 10 119q0 178 -168 178q-124 0 -188 -112t-64 -260q0 -78 23 -160h301l-15 -80h-270q14 -63 14 -156h230l-15 -79h-221q-8 -119 -61 -238t-135 -199h514l-17 -98h-678l15 84q102 55 175 184t77 267h-179l15 79
h166q-6 78 -23 156h-117l15 80h86l-2 14l-8 39q-6 37 -7 96q0 195 82 328q94 152 285 152z" />
    <glyph glyph-name="peseta" unicode="&#x20a7;" 
d="M383 985l-53 -305h92q116 -8 190 66t113 239h-342zM743 1151q0 115 -43 164q-41 53 -151 53h-98l-54 -303h340q6 55 6 86zM547 1462q173 0 241 -76t68 -235q0 -16 -4 -86h115l-15 -80h-112q-46 -213 -146 -309t-268 -92h-113l-102 -584h-113l174 985h-139l14 80h140
l69 397h191z" />
    <glyph glyph-name="uni20AB" unicode="&#x20ab;" 
d="M203 242q0 -162 116 -162q164 0 226 358l26 144q18 100 19 168q0 190 -125 190q-152 0 -197 -270l-53 -303q-12 -61 -12 -125zM90 225q0 68 16 164l54 297q33 182 103 266q71 84 194 84q67 0 107 -22t71 -74l41 240h-203l16 88h203l35 194h111l-35 -194h100l-14 -88h-101
l-208 -1180h-88l8 90q-45 -59 -89 -84t-108 -24q-213 0 -213 243zM-20 -348l14 88h602l-16 -88h-600z" />
    <glyph glyph-name="Euro" unicode="&#x20ac;" 
d="M881 1219q0 -49 -15 -134h-106q10 70 10 121q0 178 -162 178q-102 0 -157 -76t-89 -259l-36 -199h438l-41 -80h-410l-30 -172h360l-43 -80h-332q-31 -188 -30 -268q0 -170 161 -170q102 0 160 66q57 67 84 219h109q-25 -143 -66 -213q-98 -170 -301 -170q-127 0 -196 66
t-69 175q0 110 34 295h-131l43 80h102l31 172h-131l41 80h102l41 223q39 215 110 301q94 106 234 106t213 -68q72 -69 72 -193z" />
    <glyph glyph-name="uni20B4" unicode="&#x20b4;" 
d="M713 1210q0 172 -144 172q-82 0 -128 -51t-66 -162h-105q47 309 308 310q122 0 186 -69t63 -200q0 -229 -137 -370l148 -58l-33 -75l-187 69q-43 -30 -133 -66t-102 -44l354 -136l-35 -75l-399 151q-47 -53 -77 -147t-29 -195q0 -186 168 -186q100 0 152 54t73 179h106
q-25 -154 -78 -217q-90 -113 -260 -112q-132 0 -204 70t-72 204q0 240 117 387l-113 43l35 76l143 -53q39 31 118 63t114 51l-303 113l34 78l355 -135q131 121 131 331z" />
    <glyph glyph-name="uni2101" unicode="&#x2101;" horiz-adv-x="1153" 
d="M821 72q63 0 107 58q43 58 43 124t-23 98q-16 20 -86 54q-127 61 -127 192t66 210t168 79q137 0 172 -109l-82 -49q-25 76 -93 76t-102 -72q-29 -51 -28 -115q0 -88 89 -130t117 -85t29 -140t-61 -185t-183 -88q-169 0 -202 131l84 45q27 -94 112 -94zM426 854l-27 461
l-186 -461h213zM537 608l321 854h94l-553 -1462h-92l221 586h-88l-10 192h-250l-78 -192h-100l383 876h80z" />
    <glyph glyph-name="afii61248" unicode="&#x2105;" horiz-adv-x="1200" 
d="M305 0l551 1462h94l-551 -1462h-94zM1069 621q0 119 -104 118q-135 0 -168 -194l-49 -277q-8 -41 -9 -78q0 -117 107 -116q135 -1 168 194l47 264q8 45 8 89zM965 823q203 0 202 -194q0 -51 -10 -101l-49 -282q-45 -256 -262 -256q-205 0 -205 192q0 44 12 101l49 282
q45 258 263 258zM299 639q-182 0 -182 205q0 43 12 123l39 217q27 150 88 220t166 71q141 0 188 -123l-82 -45q-33 84 -106 84q-121 0 -162 -238l-35 -195q-12 -72 -12 -112q0 -123 94 -123q43 1 74 21t68 71l67 -47q-86 -129 -217 -129z" />
    <glyph glyph-name="afii61289" unicode="&#x2113;" horiz-adv-x="706" 
d="M549 1294q0 115 -55 115q-64 1 -104 -145t-87 -547q246 317 246 577zM-14 379q0 19 58 73t136 146q39 360 79 550t92 271q52 80 126 80t114 -55t40 -146q0 -215 -135 -438q-70 -119 -203 -268q-41 -334 -41 -431t63 -98q39 0 63 25q24 26 52 88t56 62t28 -33
q0 -68 -65 -154q-68 -80 -149 -80q-81 1 -115 51q-57 85 -13 461q-131 -150 -158 -149q-10 0 -19 13t-9 32z" />
    <glyph glyph-name="afii61352" unicode="&#x2116;" horiz-adv-x="1511" 
d="M862 0l17 92h477l-17 -92h-477zM1382 924q0 131 -104 131q-66 1 -104 -57t-60 -187l-33 -178q-10 -61 -10 -111q0 -133 105 -133q66 -1 104 57t61 187l33 178q8 49 8 113zM1280 1149q213 0 213 -221q0 -57 -12 -131l-33 -187q-28 -164 -94 -240t-178 -75q-215 0 -215 219
q0 49 14 133l33 187q28 164 94 240t178 75zM43 0l258 1462h113l239 -1206l211 1206h111l-258 -1462h-109l-241 1210l-213 -1210h-111z" />
    <glyph glyph-name="trademark" unicode="&#x2122;" horiz-adv-x="1142" 
d="M535 586l155 876h86l76 -567l276 567h91l-156 -876h-86l113 643l-228 -473h-65l-60 473l-114 -643h-88zM201 586l139 792h-170l14 84h430l-14 -84h-166l-141 -792h-92z" />
    <glyph glyph-name="uni2126" unicode="&#x2126;" horiz-adv-x="882" 
d="M881 1198q0 -63 -17 -158l-82 -467q-57 -340 -250 -423l-12 -64h193l-15 -86h-284l37 215q168 55 223 389l78 445q14 81 14 157t-47 127t-145 51t-159 -78q-62 -78 -96 -257l-77 -445q-18 -100 -19 -184q0 -164 105 -205l-37 -215h-285l14 86h193l12 68q-117 68 -116 258
q0 90 20 204l82 467q71 398 367 398q154 0 228 -73q75 -73 75 -210z" />
    <glyph glyph-name="estimated" unicode="&#x212e;" horiz-adv-x="786" 
d="M598 745v271q-53 287 -201 287q-71 1 -115 -63t-79 -222v-273h395zM203 672v-305q27 -164 73 -234t125 -70q147 0 211 269h78q-23 -125 -63 -197q-90 -153 -238 -153q-149 0 -233 180t-84 513t94 529q41 84 102 132t129 48q100 0 174 -87t109 -233t37 -392h-514z" />
    <glyph glyph-name="onethird" unicode="&#x2153;" horiz-adv-x="1337" 
d="M295 0l553 1462h102l-551 -1462h-104zM942 500q78 0 125 56t47 154t-88 97q-57 0 -90 -39t-47 -127h-88q18 129 72 187q55 58 149 58q186 1 186 -173q0 -166 -127 -248q72 -53 72 -174t-59 -211t-189 -90q-94 0 -145 41t-51 116q0 33 12 105h88q-8 -49 -8 -82
q0 -100 102 -100q72 0 114 61t42 166q0 127 -121 127h-68l13 76h59zM252 586l135 770l-119 -60l-35 72l199 94h70l-156 -876h-94z" />
    <glyph glyph-name="twothirds" unicode="&#x2154;" horiz-adv-x="1337" 
d="M358 0l553 1462h103l-551 -1462h-105zM997 500q78 0 125 56t47 154t-88 97q-57 0 -90 -39t-47 -127h-88q18 129 72 187t149 58q187 1 187 -173q0 -166 -129 -248q71 -51 71 -173t-59 -212t-186 -90q-94 0 -146 41q-51 41 -51 116q0 33 12 105h88q-10 -49 -10 -82
q0 -100 102 -100q72 0 114 61t42 166q0 127 -119 127h-67l12 76h59zM500 1306q0 84 -82 85q-55 0 -85 -38t-50 -134h-88q23 135 75 193q54 58 146 58q182 0 182 -165q0 -105 -45 -191t-162 -223l-186 -225h280l-14 -80h-401l10 63l252 305q94 113 131 191q37 77 37 161z" />
    <glyph glyph-name="uni2155" unicode="&#x2155;" horiz-adv-x="1337" 
d="M307 0l551 1462h105l-551 -1462h-105zM1016 543q158 0 158 -164q0 -143 -50 -256q-59 -133 -211 -133q-193 0 -192 157q0 49 10 105h88q-6 -51 -6 -82q0 -100 102 -100t140 127q25 102 24 172q0 100 -82 100q-63 0 -127 -61l-67 14l106 455h338l-14 -80h-254l-68 -279
q55 25 105 25zM260 586l135 770l-119 -60l-34 72l198 94h70l-156 -876h-94z" />
    <glyph glyph-name="uni2156" unicode="&#x2156;" horiz-adv-x="1337" 
d="M358 0l553 1462h103l-551 -1462h-105zM1053 543q158 0 157 -164q0 -145 -49 -256q-59 -133 -211 -133q-193 0 -192 160q0 47 10 102h88q-6 -51 -6 -82q0 -100 102 -100t140 127q25 102 24 174q0 98 -82 98q-63 0 -127 -61l-67 14l106 455h338l-14 -80h-256l-66 -279
q55 25 105 25zM500 1306q0 84 -82 85q-55 0 -85 -38t-50 -134h-88q23 135 75 193q54 58 146 58q182 0 182 -165q0 -105 -45 -191t-162 -223l-186 -225h280l-14 -80h-401l10 63l252 305q94 113 131 191q37 77 37 161z" />
    <glyph glyph-name="uni2157" unicode="&#x2157;" horiz-adv-x="1337" 
d="M365 0l550 1462h105l-551 -1462h-104zM1049 543q158 0 157 -164q0 -150 -49 -256q-59 -133 -211 -133q-193 0 -192 157q0 49 10 105h88q-6 -51 -6 -82q0 -100 102 -100t139 127q25 102 25 172q0 100 -82 100q-66 0 -127 -61l-67 14l106 455h338l-14 -80h-254l-68 -279
q55 25 105 25zM330 1085q78 -1 124 55t46 153t-86 98q-57 0 -89 -38t-49 -126h-88q20 131 74 187t146 56q186 0 186 -174q0 -168 -127 -245q72 -51 72 -173q1 -122 -59 -212t-187 -91q-94 0 -146 41q-51 42 -51 102t13 120h88q-10 -49 -11 -82q0 -100 103 -101q71 -1 113 61
t42 167q0 127 -120 127h-66l12 75h60z" />
    <glyph glyph-name="uni2158" unicode="&#x2158;" horiz-adv-x="1337" 
d="M381 0l551 1462h104l-551 -1462h-104zM1065 543q158 0 158 -164q0 -143 -49 -256q-59 -133 -211 -133q-193 0 -193 157q0 49 10 105h88q-6 -70 -6 -82q0 -100 102 -100t140 127q25 102 24 174q0 98 -81 98q-63 0 -127 -61l-68 14l106 455h338l-12 -80h-256l-65 -279
q55 25 102 25zM358 586l31 164h-289l11 61l338 651h96l-326 -631h182l52 279h84l-50 -279h72l-14 -83h-72l-29 -162h-86z" />
    <glyph glyph-name="uni2159" unicode="&#x2159;" horiz-adv-x="1337" 
d="M322 0l550 1462h105l-551 -1462h-104zM979 465q-76 0 -117 -78q-18 -39 -34 -109t-15 -114q0 -94 88 -94q80 0 115 73q16 37 32 110q15 73 15 117q-1 44 -23 70t-61 25zM1006 541q72 0 112 -42t41 -114q0 -72 -19 -161t-44 -134q-57 -100 -193 -100q-184 0 -184 170
q-1 104 29 184t79 160l232 373h110l-213 -342q31 6 50 6zM262 586l135 770l-118 -60l-35 72l198 94h70l-156 -876h-94z" />
    <glyph glyph-name="uni215A" unicode="&#x215a;" horiz-adv-x="1337" 
d="M391 0l551 1462h105l-551 -1462h-105zM1026 465q-74 0 -115 -78q-18 -39 -33 -107t-16 -114q0 -96 88 -96q78 0 113 73q16 37 32 109q15 72 15 117t-22 71t-62 25zM1055 541q71 0 111 -42t40 -114t-19 -161t-44 -134q-55 -100 -191 -100q-184 0 -184 170q0 102 28 182
t81 162l231 373h111l-213 -342q31 6 49 6zM563 963q0 -143 -49 -254q-59 -133 -213 -134q-193 0 -192 160q0 39 12 103h88q-8 -51 -8 -82q0 -100 103 -100t140 126q25 92 25 170q0 100 -84 101q-59 0 -125 -60l-70 13l107 456h338l-12 -80h-256l-66 -278q55 25 102 24
q160 0 160 -165z" />
    <glyph glyph-name="oneeighth" unicode="&#x215b;" horiz-adv-x="1337" 
d="M289 0l551 1462h104l-551 -1462h-104zM973 420q-82 0 -117 -58q-18 -30 -34 -94t-15 -110q0 -88 100 -88q80 0 115 55q18 29 34 95t15 109q0 91 -98 91zM1040 811q-86 0 -114 -72q-31 -84 -31 -164q0 -79 86 -79t111 63q35 82 34 172q0 80 -86 80zM807 573q0 131 48 223
t183 91q86 0 132 -38q46 -37 46 -97t-14 -126t-32 -103q-18 -36 -66 -60q61 -39 61 -119t-19 -157t-46 -113q-59 -84 -191 -84q-94 0 -145 41t-51 109t18 145q18 75 43 115t78 65q-45 37 -45 108zM242 586l135 770l-119 -60l-35 72l199 94h70l-156 -876h-94z" />
    <glyph glyph-name="threeeighths" unicode="&#x215c;" horiz-adv-x="1337" 
d="M358 0l551 1462h105l-551 -1462h-105zM1008 420q-80 0 -119 -58q-15 -30 -31 -94t-16 -110q0 -88 100 -88q80 0 115 55q17 29 33 95t16 109q0 91 -98 91zM1075 811q-86 0 -114 -72q-31 -84 -31 -164q0 -79 86 -79t110 63q35 74 35 172q0 80 -86 80zM842 571q0 133 48 225
t183 91q86 0 132 -38q46 -37 46 -97t-14 -126t-34 -104q-20 -37 -64 -59q61 -41 61 -120t-19 -156t-46 -113q-59 -84 -191 -84q-94 0 -145 41t-51 108t18 145t42 116t79 65q-45 39 -45 106zM330 1085q78 -1 124 55t46 153t-86 98q-57 0 -89 -38t-49 -126h-88q20 131 74 187
t146 56q186 0 186 -174q0 -168 -127 -245q72 -51 72 -173q1 -122 -59 -212t-187 -91q-94 0 -146 41q-51 42 -51 102t13 120h88q-10 -49 -11 -82q0 -100 103 -101q71 -1 113 61t42 167q0 127 -120 127h-66l12 75h60z" />
    <glyph glyph-name="fiveeighths" unicode="&#x215d;" horiz-adv-x="1337" 
d="M358 0l551 1462h105l-551 -1462h-105zM1008 420q-80 0 -119 -58q-15 -30 -31 -94t-16 -110q0 -88 100 -88q80 0 115 55q17 29 33 95t16 109q0 91 -98 91zM1075 811q-86 0 -114 -72q-31 -84 -31 -164q0 -79 86 -79t110 63q35 82 35 172q0 80 -86 80zM842 571q0 133 48 225
t185 91q84 0 130 -38q46 -37 46 -97t-14 -126q-15 -66 -33 -103q-18 -36 -65 -60q61 -39 61 -119t-19 -157t-46 -113q-59 -84 -191 -84q-197 0 -196 160q0 59 18 136q18 78 43 116t78 63q-45 37 -45 106zM557 963q0 -143 -49 -254q-59 -133 -213 -134q-193 0 -193 160
q0 39 13 103h88q-8 -51 -8 -82q0 -100 103 -100t140 126q25 92 25 170q0 100 -84 101q-59 0 -125 -60l-70 13l107 456h338l-13 -80h-256l-65 -278q55 25 102 24q160 0 160 -165z" />
    <glyph glyph-name="seveneighths" unicode="&#x215e;" horiz-adv-x="1337" 
d="M305 0l551 1462h102l-550 -1462h-103zM985 420q-80 0 -119 -58q-16 -30 -31 -94t-16 -110q0 -88 101 -88q82 0 114 55q18 29 34 95t15 109q0 91 -98 91zM1139 724q0 87 -85 87t-116 -72q-31 -84 -31 -164q0 -79 86 -79t111 63q35 78 35 165zM819 571q0 133 48 225t186 91
q176 0 176 -148q-1 -47 -15 -113t-32 -103q-18 -36 -66 -60q62 -39 62 -119t-20 -157t-46 -113q-59 -84 -190 -84q-197 0 -197 160q0 59 18 136q18 78 43 116t78 63q-45 37 -45 106zM145 586l373 796h-289l15 80h389l-10 -59l-367 -817h-111z" />
    <glyph glyph-name="arrowleft" unicode="&#x2190;" horiz-adv-x="1638" 
d="M1495 702h-1225l400 -401l-70 -70l-494 498v45l492 498l72 -70l-402 -401h1227v-99z" />
    <glyph glyph-name="arrowup" unicode="&#x2191;" horiz-adv-x="1638" 
d="M723 0v1315l-399 -400l-70 72l498 492h45l497 -492l-69 -72l-400 400v-1315h-102z" />
    <glyph glyph-name="arrowright" unicode="&#x2192;" horiz-adv-x="1638" 
d="M145 702v99h1225l-399 401l69 70l494 -498v-45l-494 -498l-69 70l399 401h-1225z" />
    <glyph glyph-name="arrowdown" unicode="&#x2193;" horiz-adv-x="1638" 
d="M723 1462h102v-1315l400 400l69 -72l-497 -491h-45l-498 491l70 72l399 -400v1315z" />
    <glyph glyph-name="arrowboth" unicode="&#x2194;" horiz-adv-x="1638" 
d="M1386 702h-1132l379 -380l-70 -70l-473 477v45l473 477l70 -69l-381 -381h1134l-378 381l69 69l473 -477v-45l-473 -477l-69 70z" />
    <glyph glyph-name="arrowupdn" unicode="&#x2195;" horiz-adv-x="1638" 
d="M725 133v1196l-379 -381l-72 70l480 473h43l479 -473l-72 -70l-379 381l-2 -1196l381 381l72 -70l-479 -473h-43l-480 473l70 70z" />
    <glyph glyph-name="uni2196" unicode="&#x2196;" horiz-adv-x="1638" 
d="M410 539h-101v698l37 37h701v-98h-568l879 -881l-70 -70l-878 881v-567z" />
    <glyph glyph-name="uni2197" unicode="&#x2197;" horiz-adv-x="1638" 
d="M594 1176v98h700l37 -37v-698h-100v567l-879 -881l-69 70l878 881h-567z" />
    <glyph glyph-name="uni2198" unicode="&#x2198;" horiz-adv-x="1638" 
d="M1231 969h100v-699l-37 -37h-700v99h567l-878 878l69 72l879 -881v568z" />
    <glyph glyph-name="uni2199" unicode="&#x2199;" horiz-adv-x="1638" 
d="M1047 332v-99h-701l-37 37v699h101v-568l878 881l70 -72l-879 -878h568z" />
    <glyph glyph-name="partialdiff" unicode="&#x2202;" 
d="M356 74q84 0 132 64t75 210l55 311q12 63 13 129q0 143 -125 144q-86 0 -134 -64t-75 -209l-55 -311q-12 -78 -13 -129q0 -145 127 -145zM478 1024q110 0 159 -55q-7 189 -61 291t-162 133l28 80q80 -15 129 -49t95 -101q84 -133 84 -371q0 -174 -29 -327l-47 -273
q-35 -195 -99 -270q-82 -100 -223 -100q-233 0 -233 225q0 63 16 153l53 306q62 358 290 358z" />
    <glyph glyph-name="emptyset" unicode="&#x2205;" 
d="M430 406q114 0 184 97t70 269t-109 283l-217 -639q33 -10 72 -10zM426 1110q-116 0 -186 -96t-70 -256q0 -201 121 -307l221 645q-45 14 -86 14zM776 758q0 -197 -96 -317t-256 -119q-45 0 -94 14l-135 -395l-70 26l135 398q-182 115 -182 393q0 196 96 316t254 120
q56 0 111 -18l120 352l72 -25l-125 -360q82 -55 126 -157t44 -228z" />
    <glyph glyph-name="Delta" unicode="&#x2206;" 
d="M606 96l-37 1188l-454 -1188h491zM739 0h-792l600 1462h102z" />
    <glyph glyph-name="product" unicode="&#x220f;" horiz-adv-x="907" 
d="M-27 -424l332 1886h635l-334 -1886h-110l315 1786h-412l-315 -1786h-111z" />
    <glyph glyph-name="summation" unicode="&#x2211;" horiz-adv-x="882" 
d="M-10 -424l10 64l444 944l-120 809l12 69h592l-17 -98h-471l119 -780l-420 -910h490l-17 -98h-622z" />
    <glyph glyph-name="minus" unicode="&#x2212;" 
d="M152 707l16 92h629l-17 -92h-628z" />
    <glyph glyph-name="uni2215" unicode="&#x2215;" horiz-adv-x="215" 
d="M-170 0l551 1462h104l-551 -1462h-104z" />
    <glyph glyph-name="uni2218" unicode="&#x2218;" 
d="M430 506q108 0 180 70t72 174q0 106 -72 176t-178 69q-108 1 -181 -69t-73 -174t72 -175t180 -71zM432 1071q140 0 236 -92t96 -229q0 -138 -95 -230t-237 -92t-238 93t-96 229t96 229q96 92 238 92z" />
    <glyph glyph-name="uni2219" unicode="&#x2219;" horiz-adv-x="370" 
d="M156 668l30 170h115l-31 -170h-114z" />
    <glyph glyph-name="radical" unicode="&#x221a;" 
d="M252 0l-27 631h-98l14 96h183l2 -584l548 1610h338l-14 -88h-248l-583 -1665h-115z" />
    <glyph glyph-name="infinity" unicode="&#x221e;" horiz-adv-x="1171" 
d="M842 547q72 0 116 57q44 58 43 150q0 92 -44 149t-115 58q-113 0 -199 -187l-10 -20l10 -21q92 -186 199 -186zM172 754q0 -92 44 -150t114 -57q109 0 198 186l11 21l-9 20q-86 186 -198 187q-72 1 -116 -57t-44 -150zM312 461q-102 0 -168 80t-64 213q0 133 65 213
t179 80t192 -95q8 -8 70 -121q6 10 32 64t83 103q57 48 159 48t166 -79q66 -80 66 -213t-66 -213t-180 -80t-191 94q-10 12 -69 121l-11 -21q-37 -69 -52 -91t-44 -46q-65 -57 -167 -57z" />
    <glyph glyph-name="integral" unicode="&#x222b;" horiz-adv-x="993" 
d="M475 125v1147q0 172 25 246q31 102 145 102q43 0 92 -14l-18 -93q-35 12 -51 13q-48 0 -66 -49t-18 -185v-1153q0 -172 -25 -245q-31 -102 -145 -103q-49 0 -92 14l18 93q27 -12 51 -13q49 0 67 49q17 49 17 191z" />
    <glyph glyph-name="similar" unicode="&#x223c;" 
d="M784 842q-86 -211 -191 -211q-50 0 -72 13q-23 14 -67 64t-62 63t-42 13q-64 0 -123 -147l-67 18q86 219 207 219q37 0 65 -16t68 -63q41 -47 59 -61t41 -13q61 0 119 143z" />
    <glyph glyph-name="uni2243" unicode="&#x2243;" 
d="M807 979q-85 -213 -191 -213q-50 0 -74 14q-22 14 -67 66t-62 63q-17 12 -40 13q-66 0 -125 -150l-66 21q82 219 205 219q39 0 66 -16t69 -65q42 -47 60 -61t41 -14q59 0 118 143zM145 586l17 92h592l-17 -92h-592z" />
    <glyph glyph-name="approxequal" unicode="&#x2248;" 
d="M811 979q-85 -213 -193 -213q-50 0 -72 14t-67 66t-62 63q-17 12 -42 13q-62 0 -123 -150l-68 21q88 219 207 219q37 0 65 -16t68 -65q40 -47 60 -61q18 -14 43 -14q57 0 118 143zM762 707q-82 -213 -190 -213q-52 0 -74 14t-68 65q-45 51 -62 63t-40 13q-62 1 -123 -149
l-68 20q84 219 207 219q37 0 64 -16q26 -17 68 -65t60 -61t42 -13q63 0 118 143z" />
    <glyph glyph-name="notequal" unicode="&#x2260;" 
d="M147 586l17 92h223l74 151h-271l17 91h301l127 268l84 -31l-115 -237h195l-17 -91h-223l-74 -151h271l-17 -92h-301l-129 -269l-82 29l113 240h-193z" />
    <glyph glyph-name="lessequal" unicode="&#x2264;" 
d="M70 129l16 92h545l-17 -92h-544zM266 750l408 -283l-19 -102l-510 364l9 51l639 367l-19 -113z" />
    <glyph glyph-name="greaterequal" unicode="&#x2265;" 
d="M115 129l16 92h545l-17 -92h-544zM682 760l-406 284l19 103l510 -367l-10 -51l-639 -364l20 110z" />
    <glyph glyph-name="dotmath" unicode="&#x22c5;" horiz-adv-x="370" 
d="M156 668l30 170h115l-31 -170h-114z" />
    <glyph glyph-name="filledrect" unicode="&#x25ac;" 
d="M129 449v602h602v-602h-602z" />
    <glyph glyph-name="uni25B4" unicode="&#x25b4;" 
d="M70 438l360 719l358 -719h-718z" />
    <glyph glyph-name="uni25B8" unicode="&#x25b8;" 
d="M137 389v719l719 -358z" />
    <glyph glyph-name="uni25BE" unicode="&#x25be;" 
d="M70 1061h718l-358 -719z" />
    <glyph glyph-name="uni25C2" unicode="&#x25c2;" 
d="M723 389l-719 361l719 358v-719z" />
    <glyph glyph-name="lozenge" unicode="&#x25ca;" 
d="M168 709l262 -564l264 564l-264 563zM53 709l377 761l379 -761l-379 -764z" />
    <glyph glyph-name="openbullet" unicode="&#x25e6;" 
d="M430 506q108 0 180 70t72 174q0 106 -72 176t-178 69q-108 1 -181 -69t-73 -174t72 -175t180 -71zM432 1071q140 0 236 -92t96 -229q0 -138 -95 -230t-237 -92t-238 93t-96 229t96 229q96 92 238 92z" />
    <glyph glyph-name="commaaccent" unicode="&#xf6c3;" horiz-adv-x="1024" 
d="M258 -438l119 288h119l-162 -288h-76z" />
    <glyph glyph-name="Acute" unicode="&#xf6c9;" horiz-adv-x="1024" 
d="M641 1628l147 279h134l-197 -279h-84z" />
    <glyph glyph-name="Caron" unicode="&#xf6ca;" horiz-adv-x="1024" 
d="M723 1724l117 168h118l-210 -254h-72l-123 254h111z" />
    <glyph glyph-name="Dieresis" unicode="&#xf6cb;" horiz-adv-x="1024" 
d="M795 1647l32 190h101l-33 -190h-100zM532 1647l33 190h101l-33 -190h-101z" />
    <glyph glyph-name="Grave" unicode="&#xf6ce;" horiz-adv-x="1024" 
d="M780 1628h-80l-102 279h123z" />
    <glyph glyph-name="Hungarumlaut" unicode="&#xf6cf;" horiz-adv-x="1024" 
d="M752 1628l127 279h120l-170 -279h-77zM571 1628l129 279h119l-170 -279h-78z" />
    <glyph glyph-name="Macron" unicode="&#xf6d0;" horiz-adv-x="1024" 
d="M555 1718l14 84h342l-14 -84h-342z" />
    <glyph glyph-name="zerooldstyle" unicode="&#xf730;" horiz-adv-x="858" 
d="M510 1004q-100 0 -154 -68t-82 -229l-57 -324q-16 -94 -16 -143q0 -162 159 -162q100 0 154 68q53 69 82 233l57 326q16 96 17 135q0 164 -160 164zM504 1100q134 0 207 -68q72 -68 71 -188q0 -43 -18 -154l-64 -358q-60 -350 -334 -350q-136 0 -206 68q-72 68 -72 188
q0 53 18 157l62 353q18 100 42 157t66 101q94 94 228 94z" />
    <glyph glyph-name="oneoldstyle" unicode="&#xf731;" horiz-adv-x="524" 
d="M133 0l168 956l-197 -108l-38 86l292 149h80l-190 -1083h-115z" />
    <glyph glyph-name="twooldstyle" unicode="&#xf732;" horiz-adv-x="714" 
d="M563 848q0 154 -145 153q-94 0 -146 -56t-73 -187h-105q27 147 70 213q86 129 258 129q124 0 190 -62t66 -185q0 -122 -57 -219t-228 -263l-282 -275h432l-17 -96h-579l14 80l369 364q133 134 183 220t50 184z" />
    <glyph glyph-name="threeoldstyle" unicode="&#xf733;" horiz-adv-x="743" 
d="M315 481q117 -1 193 97t76 247q0 176 -140 176q-147 0 -192 -198h-105q49 297 308 297q119 0 182 -71t63 -205t-60 -238t-169 -152q143 -66 143 -262t-86 -336q-100 -162 -299 -162q-127 0 -195 56t-67 155q0 23 8 113h107q-4 -37 -4 -76q0 -150 153 -149q133 0 209 141
q58 111 58 232t-52 180t-145 59h-100l16 96h98z" />
    <glyph glyph-name="fouroldstyle" unicode="&#xf734;" horiz-adv-x="745" 
d="M346 -311l55 311h-464l12 74l530 1009h119l-516 -987h336l86 484h106l-84 -484h121l-18 -96h-121l-53 -311h-109z" />
    <glyph glyph-name="fiveoldstyle" unicode="&#xf735;" horiz-adv-x="819" 
d="M641 282q0 -122 -27 -240t-67 -189q-100 -180 -305 -181q-123 0 -194 56t-71 157q0 23 9 113h106q-4 -37 -4 -76q0 -152 152 -151q143 0 221 168q63 145 63 328t-147 184q-94 0 -197 -97l-80 19l172 710h486l-17 -98h-389l-121 -498q82 57 185 57t164 -70q61 -71 61 -192
z" />
    <glyph glyph-name="sixoldstyle" unicode="&#xf736;" horiz-adv-x="825" 
d="M479 799q-133 0 -194 -148q-39 -85 -64 -201t-24 -202q0 -170 145 -170t205 162q27 70 49 196t22 201q0 74 -36 118q-37 44 -103 44zM512 891q104 0 162 -65t59 -168t-25 -244q-26 -140 -62 -232t-117 -146t-197 -54t-182 68q-68 68 -68 194q0 186 74 385q27 70 98 190
l356 604h127l-336 -563q53 31 111 31z" />
    <glyph glyph-name="sevenoldstyle" unicode="&#xf737;" horiz-adv-x="552" 
d="M-96 -311l561 1296h-422l16 98h541l-12 -69l-553 -1325h-131z" />
    <glyph glyph-name="eightoldstyle" unicode="&#xf738;" horiz-adv-x="841" 
d="M459 705q-139 0 -201 -109q-28 -53 -54 -169t-26 -192q0 -77 45 -117t127 -40q137 0 195 108q29 55 53 169q25 114 25 191t-43 118t-121 41zM565 1350q-129 0 -174 -109q-23 -49 -42 -149t-19 -164q0 -135 137 -135t186 118q21 53 39 151t18 156q0 60 -37 96
q-38 36 -108 36zM221 920q0 108 28 225t62 174q76 123 273 123q102 0 169 -58t67 -162q0 -102 -30 -222t-69 -170t-105 -80q119 -61 119 -201q1 -107 -29 -235t-71 -193q-86 -139 -283 -139q-141 0 -215 62t-74 183q1 162 57 324t191 209q-90 52 -90 160z" />
    <glyph glyph-name="nineoldstyle" unicode="&#xf739;" horiz-adv-x="823" 
d="M487 1004q-145 0 -204 -162q-27 -70 -50 -196t-23 -200t38 -118q37 -43 106 -43q127 0 191 147q39 86 63 201q25 115 25 201q-1 170 -146 170zM748 838q0 -184 -74 -383q-27 -74 -99 -191l-352 -579h-127l332 536q-49 -29 -113 -28q-102 1 -160 65q-59 64 -59 167t26 243
t62 231q36 90 117 145q81 56 195 56t183 -69t69 -193z" />
    <glyph glyph-name="Dbreve" horiz-adv-x="919" 
d="M518 1804q0 -90 80 -90q55 0 85 37t50 131h82q-20 -111 -41 -156q-53 -100 -176 -100q-166 0 -166 137q0 41 12 119h80q-6 -63 -6 -78zM784 1180q0 186 -194 186h-172l-225 -1270h174q125 -2 195 76t97 246l111 626q14 72 14 136zM590 1462q154 0 223 -57q88 -72 88 -215
q0 -49 -16 -148l-117 -665q-59 -383 -397 -377h-310l258 1462h271z" />
    <glyph glyph-name="ahungarumlaut" horiz-adv-x="737" 
d="M535 1194l127 279h120l-170 -279h-77zM354 1194l129 279h119l-170 -279h-78zM362 492q-121 0 -176 -76q-57 -86 -57 -219q0 -63 33 -93q32 -30 114 -28q82 0 123 47t64 176l33 193h-134zM418 942q-70 0 -113 -55t-65 -180h-105q25 152 74 219q78 111 225 110
q219 0 219 -221q0 -72 -18 -166l-115 -649h-88l2 55q-35 -41 -76 -57t-110 -16q-233 0 -234 196q0 184 79 294t263 112h156l16 94q34 180 -13 232q-27 32 -97 32z" />
    <glyph glyph-name="uni0204.sc" horiz-adv-x="661" 
d="M446 1245h-77l-72 279h121zM627 1245h-78l-72 279h119zM39 0l190 1085h453l-16 -96h-340l-70 -395h289l-17 -96h-288l-72 -402h342l-16 -96h-455z" />
    <glyph glyph-name="uni0206.sc" horiz-adv-x="661" 
d="M612 1339q0 88 -82 88q-53 -1 -83 -37t-50 -128h-82q20 113 41 153q49 100 179 101q79 0 121 -35t42 -101q0 -32 -12 -118h-80q6 53 6 77zM49 0l191 1085h452l-16 -96h-340l-70 -395h289l-16 -96h-289l-72 -402h342l-16 -96h-455z" />
    <glyph glyph-name="uni0208.sc" horiz-adv-x="391" 
d="M283 1245h-78l-72 279h121zM463 1245h-78l-72 279h119zM49 0l191 1083h112l-190 -1083h-113z" />
    <glyph glyph-name="uni020A.sc" horiz-adv-x="391" 
d="M438 1339q0 88 -82 88q-53 -1 -83 -37t-50 -128h-82q20 113 41 153q51 100 178 101q78 0 121 -35t43 -101q0 -32 -12 -118h-80q6 53 6 77zM49 0l191 1083h112l-190 -1083h-113z" />
    <glyph glyph-name="uni020C.sc" horiz-adv-x="778" 
d="M469 1245h-78l-72 279h121zM649 1245h-78l-71 279h118zM598 878q0 56 -35 91t-109 35t-120 -56q-45 -56 -68 -186l-78 -443q-12 -72 -12 -120q0 -47 35 -83t109 -36t120 55q45 55 68 184l78 443q12 60 12 116zM455 1100q254 0 256 -226q0 -51 -15 -120l-82 -467
q-28 -160 -100 -232q-72 -71 -198 -71q-251 1 -253 225q1 41 15 121l82 465q27 152 88 221q78 84 207 84z" />
    <glyph glyph-name="uni020E.sc" horiz-adv-x="776" 
d="M631 1339q0 88 -82 88q-53 -1 -83 -37t-50 -128h-82q20 113 41 153q51 100 178 101q78 0 121 -35t43 -101q0 -32 -12 -118h-80q6 53 6 77zM606 878q0 56 -35 91t-109 35t-120 -56q-45 -56 -68 -186l-77 -443q-13 -72 -13 -120q0 -47 35 -83t109 -36t121 55q44 55 67 184
l78 443q12 60 12 116zM463 1100q254 0 256 -226q0 -51 -14 -120l-82 -467q-29 -160 -101 -232q-72 -71 -198 -71t-189 58t-63 167q0 41 14 121l82 465q27 152 88 221q78 84 207 84z" />
    <glyph glyph-name="uni0210.sc" horiz-adv-x="757" 
d="M440 1245h-78l-71 279h121zM621 1245h-78l-72 279h119zM360 565q68 1 106 17t69 57q59 82 59 213q0 72 -36 104t-118 33h-102l-76 -424h98zM434 1085q276 0 277 -223q0 -193 -107 -303q-49 -49 -117 -70l95 -489h-121l-76 471h-137l-84 -471h-113l191 1085h192z" />
    <glyph glyph-name="uni0212.sc" horiz-adv-x="757" 
d="M592 1339q0 88 -82 88q-53 -1 -83 -37t-50 -128h-82q20 113 41 153q49 100 178 101q78 0 121 -35t43 -101q0 -32 -12 -118h-80q6 53 6 77zM360 565q68 1 106 17t69 57q59 82 59 213q0 72 -36 104t-118 33h-102l-76 -424h98zM434 1085q276 0 277 -223q0 -193 -107 -303
q-49 -49 -117 -70l95 -489h-121l-76 471h-137l-84 -471h-113l191 1085h192z" />
    <glyph glyph-name="uni0214.sc" horiz-adv-x="800" 
d="M479 1245h-78l-71 279h121zM659 1245h-77l-72 279h119zM319 80q82 0 124 47t63 160l139 796h113l-144 -817q-16 -88 -29 -125t-46 -71q-79 -86 -209 -86q-254 0 -254 192q0 41 18 146l135 761h113l-137 -774q-14 -92 -15 -114q0 -115 129 -115z" />
    </font>
</defs>
</svg>
