<?xml version="1.0" encoding="UTF-8"?>
<svg xmlns="http://www.w3.org/2000/svg" xmlns:xlink="http://www.w3.org/1999/xlink" version="1.2" >
<font id="Cinematografica-Regular">
<font-face  font-family="Cinematografica" units-per-em="1920" ascent="1133" descent="-72" font-style="normal" font-weight="400" font-stretch="normal" cap-height="1344" x-height="1133" underline-position="-48" underline-thickness="96" />
<missing-glyph  horiz-adv-x="229" d="" />
<glyph glyph-name="NULL" d="" />
<glyph glyph-name="CR" unicode="&#xd;" horiz-adv-x="480" d="" />
<glyph glyph-name="space" unicode="&#x20;" horiz-adv-x="229" d="" />
<glyph glyph-name="exclam" unicode="&#x21;" horiz-adv-x="226" d="M52 250 C52 237 59 227 74 227 L105 227 C142 227 168 249 171 284 L197 1288 C200 1323 173 1346 133 1346 L74 1346 C59 1346 52 1335 52 1322 L52 250 Z M109 120 C57 120 30 94 30 53 C30 12 57 -14 109 -14 C162 -14 189 10 189 53 C189 96 162 120 109 120 L109 120 Z " />
<glyph glyph-name="quotedbl" unicode="&#x22;" horiz-adv-x="358" d="M50 1035 C50 1022 56 1015 68 1015 L100 1015 C132 1015 154 1035 154 1063 L154 1301 C154 1329 132 1348 100 1348 L68 1348 C56 1348 50 1342 50 1329 L50 1035 Z M204 1035 C204 1022 210 1015 222 1015 L254 1015 C286 1015 308 1035 308 1063 L308 1301 C308 1329 286 1348 254 1348 L222 1348 C210 1348 204 1342 204 1329 L204 1035 Z " />
<glyph glyph-name="numbersign" unicode="&#x23;" horiz-adv-x="681" d="M337 23 C336 21 336 18 336 14 C336 5 342 0 357 0 L413 0 C441 0 465 20 468 48 L506 423 L570 423 C583 423 591 427 592 444 L596 490 C599 517 582 534 557 534 L517 534 L542 770 L606 770 C621 770 628 773 629 790 L633 837 C636 862 618 881 594 881 L552 881 L597 1319 L597 1325 C597 1338 591 1344 578 1344 L526 1344 C505 1344 491 1338 482 1326 C474 1316 469 1305 468 1293 L425 881 L307 881 L352 1319 L352 1325 C352 1338 346 1344 333 1344 L281 1344 C260 1344 246 1338 237 1326 C229 1316 224 1305 223 1293 L180 881 L110 881 C95 881 91 878 90 861 L85 815 C84 790 101 770 125 770 L169 770 L144 534 L74 534 C58 534 54 531 53 515 L49 468 C46 444 63 423 88 423 L133 423 L92 23 C91 21 91 18 91 14 C91 3 97 0 112 0 L168 0 C196 0 220 20 223 48 L261 423 L378 423 L337 23 Z M414 770 L389 534 L272 534 L297 770 L414 770 Z " />
<glyph glyph-name="dollar" unicode="&#x24;" horiz-adv-x="469" d="M234 1250 C271 1250 292 1228 292 1199 L292 911 C292 886 316 872 340 872 L398 872 C413 872 421 879 421 892 L421 1138 C421 1196 412 1243 394 1279 C371 1324 332 1350 279 1359 L279 1470 C279 1502 275 1523 256 1523 L240 1523 C221 1523 208 1515 199 1498 C192 1484 188 1467 188 1446 L188 1360 C120 1347 74 1306 59 1249 C53 1219 50 1184 50 1145 C50 1082 58 1014 74 943 C96 846 131 741 178 626 C200 573 219 523 234 476 C273 361 292 251 292 145 C292 116 273 95 234 95 C197 95 177 116 177 145 L177 425 C177 438 171 448 160 455 C152 460 142 463 129 463 L70 463 C55 463 48 456 48 443 L48 206 C48 147 57 100 74 65 C96 20 134 -6 188 -14 L188 -159 C188 -174 193 -183 212 -183 L229 -183 C248 -183 261 -175 270 -158 C276 -145 279 -128 279 -107 L279 -15 C350 -3 394 36 409 96 C416 131 419 172 418 217 C415 291 407 356 395 412 C371 523 338 621 291 737 C275 775 256 824 235 885 C198 996 176 1092 176 1199 C176 1227 197 1250 234 1250 L234 1250 Z " />
<glyph glyph-name="percent" unicode="&#x25;" horiz-adv-x="916" d="M211 605 C266 605 308 620 338 650 C364 676 377 708 377 746 L377 1214 C377 1255 364 1288 339 1313 C309 1342 267 1356 214 1356 C160 1356 118 1342 88 1313 C61 1288 49 1251 49 1214 L49 746 C49 711 61 678 85 651 C112 620 154 605 211 605 L211 605 Z M261 23 C260 21 260 18 260 14 C260 3 266 0 282 0 L324 0 C351 0 373 20 380 48 L656 1319 C657 1321 657 1324 657 1327 C657 1338 651 1344 638 1344 L597 1344 C578 1344 564 1338 555 1326 C550 1320 544 1309 539 1293 L261 23 Z M214 703 C177 703 159 722 159 749 L159 1211 C159 1240 176 1258 213 1258 C249 1258 267 1238 267 1211 L267 749 C267 724 250 703 214 703 L214 703 Z M699 -10 C754 -10 796 5 826 35 C852 61 865 93 865 131 L865 599 C865 640 852 673 827 698 C797 727 755 741 702 741 C648 741 606 727 576 698 C549 673 537 636 537 599 L537 131 C537 96 549 63 573 36 C600 5 642 -10 699 -10 L699 -10 Z M702 88 C665 88 647 107 647 134 L647 596 C647 625 664 643 701 643 C737 643 755 623 755 596 L755 134 C755 109 738 88 702 88 L702 88 Z " />
<glyph glyph-name="ampersand" unicode="&#x26;" horiz-adv-x="1215" d="M67 1045 C46 1042 35 1026 35 997 L35 976 C35 963 41 959 53 960 L1138 1043 C1160 1046 1171 1062 1171 1092 L1171 1112 C1171 1131 1171 1129 1155 1128 L67 1045 Z M976 220 C1031 224 1071 250 1094 297 C1111 334 1120 386 1120 451 L1120 805 C1120 848 1113 884 1098 911 C1074 953 1033 972 975 968 L845 958 C830 957 828 954 828 938 L828 226 C828 213 830 209 845 210 L976 220 Z M723 931 C723 946 721 948 706 948 L666 944 C642 943 623 925 626 902 L642 463 L537 865 C529 909 512 932 492 931 L450 928 C435 927 433 924 433 908 L433 191 C433 179 439 173 451 174 L490 177 C514 180 533 197 530 220 L514 663 L620 252 C625 231 630 216 635 209 C642 196 653 190 667 191 L705 194 C720 195 723 201 723 214 L723 931 Z M277 892 C275 907 267 914 253 913 L184 907 C151 903 146 903 143 882 L61 168 L61 163 C61 154 65 150 77 151 L117 155 C141 156 159 172 160 195 L167 279 L251 285 L259 202 C262 179 280 166 303 169 L342 172 C357 173 361 177 358 192 L277 892 Z M925 879 L973 882 C1006 885 1023 869 1023 844 L1023 352 C1023 328 1007 308 978 305 L925 301 L925 879 Z M211 769 L247 354 L172 349 L208 769 L211 769 Z M67 89 C46 86 35 70 35 41 L35 20 C35 7 40 4 53 4 L1139 85 C1161 88 1172 104 1172 135 L1172 156 C1172 172 1172 172 1156 171 L67 89 Z " />
<glyph glyph-name="quotesingle" unicode="&#x27;" horiz-adv-x="204" d="M50 1035 C50 1022 56 1015 68 1015 L100 1015 C132 1015 154 1035 154 1063 L154 1301 C154 1329 132 1348 100 1348 L68 1348 C56 1348 50 1342 50 1329 L50 1035 Z " />
<glyph glyph-name="parenleft" unicode="&#x28;" horiz-adv-x="308" d="M179 739 C179 926 190 1076 211 1190 C226 1269 246 1328 272 1365 C279 1377 288 1388 297 1397 C306 1405 311 1413 311 1420 C311 1425 309 1430 305 1436 L294 1453 C291 1457 285 1459 277 1459 C270 1459 263 1458 258 1456 C226 1439 198 1414 173 1381 C138 1334 110 1266 89 1177 C63 1070 50 931 50 762 L50 581 C50 412 63 273 89 166 C109 79 137 12 173 -37 C198 -70 226 -95 258 -112 C265 -115 271 -117 278 -117 C286 -117 291 -114 294 -109 L305 -93 C309 -87 311 -81 311 -76 C311 -69 306 -61 297 -53 C288 -46 280 -35 272 -22 C246 15 226 74 211 153 C190 267 179 417 179 604 L179 739 Z " />
<glyph glyph-name="parenright" unicode="&#x29;" horiz-adv-x="310" d="M131 604 C131 498 128 408 122 335 C111 196 93 98 70 41 C51 -7 32 -38 13 -53 C4 -61 -1 -69 -1 -76 C-1 -81 1 -86 5 -93 L16 -109 C19 -114 25 -117 33 -117 C40 -117 47 -115 52 -112 C84 -95 112 -70 137 -37 C172 11 201 79 222 166 C247 275 260 414 260 581 L260 762 C260 929 247 1068 222 1177 C200 1267 172 1335 137 1381 C113 1412 85 1437 52 1456 C47 1458 40 1459 33 1459 C25 1459 19 1457 16 1453 L5 1436 C1 1430 -1 1424 -1 1419 C-1 1412 4 1404 13 1397 C22 1388 31 1377 39 1365 C65 1325 85 1267 100 1190 C121 1080 131 930 131 739 L131 604 Z " />
<glyph glyph-name="asterisk" unicode="&#x2a;" horiz-adv-x="490" d="M94 721 C89 724 84 726 79 726 C72 726 66 722 61 714 C54 704 50 690 50 673 L50 640 C50 621 56 618 73 618 L183 620 L104 551 C95 546 91 540 91 533 C91 530 92 526 95 519 C100 508 110 499 125 490 L154 473 C160 469 165 467 169 467 C175 467 180 472 184 481 L235 574 L256 477 C256 461 264 453 279 453 C292 452 305 455 319 464 L348 480 C357 485 362 492 362 497 C362 500 360 504 357 511 L301 602 L396 571 C401 568 406 566 411 566 C418 566 424 570 430 578 C437 589 440 602 440 619 L440 653 C440 672 434 675 417 675 L312 673 L385 739 C395 744 400 750 400 759 C400 763 399 767 397 771 C391 783 381 793 367 801 L338 818 C331 821 326 823 323 823 C316 823 313 820 306 809 L254 714 L234 814 C234 830 227 839 212 840 C197 840 184 836 171 829 L142 812 C133 807 128 801 128 795 C128 793 130 788 134 780 L189 689 L94 721 Z " />
<glyph glyph-name="plus" unicode="&#x2b;" horiz-adv-x="467" d="M325 590 C384 590 425 609 425 649 L425 677 C425 700 418 702 391 702 L290 702 L290 738 C290 767 286 790 279 807 C270 828 256 838 236 838 L204 838 C180 838 177 826 177 802 L177 702 L142 702 C112 702 89 699 73 692 C52 683 42 669 42 649 L42 616 C42 592 53 590 77 590 L177 590 L177 555 C177 526 182 502 191 484 C202 464 214 454 237 454 L267 454 C286 454 290 459 290 476 L290 590 L325 590 Z " />
<glyph glyph-name="comma" unicode="&#x2c;" horiz-adv-x="218" d="M108 -85 C108 -93 112 -97 120 -97 C139 -97 155 -84 169 -59 C183 -33 190 -1 190 38 C190 85 162 120 109 120 C58 120 30 96 30 53 C30 12 57 -13 108 -14 L108 -85 Z " />
<glyph glyph-name="hyphen" unicode="&#x2d;" horiz-adv-x="402" d="M94 593 C66 593 46 571 46 542 L46 500 C46 481 55 476 70 476 L307 476 C338 476 357 501 357 534 L357 571 C357 590 351 593 334 593 L94 593 Z " />
<glyph glyph-name="period" unicode="&#x2e;" horiz-adv-x="219" d="M109 120 C57 120 30 94 30 53 C30 12 57 -14 109 -14 C162 -14 189 10 189 53 C189 96 162 120 109 120 L109 120 Z " />
<glyph glyph-name="slash" unicode="&#x2f;" horiz-adv-x="340" d="M16 23 C15 21 15 18 15 14 C15 3 21 0 37 0 L92 0 C120 0 144 20 147 48 L309 1319 L309 1325 C309 1338 303 1344 291 1344 L238 1344 C217 1344 203 1338 194 1326 C186 1316 181 1305 180 1293 L16 23 Z " />
<glyph glyph-name="zero" unicode="0" horiz-adv-x="469" d="M232 -19 C292 -19 340 -2 376 32 C406 61 421 97 421 140 L421 1203 C421 1246 406 1286 377 1315 C344 1348 297 1364 236 1364 C175 1364 127 1348 93 1315 C62 1286 48 1246 48 1203 L48 140 C48 98 62 62 90 32 C122 -2 169 -19 232 -19 L232 -19 Z M177 1198 C177 1229 195 1250 234 1250 C273 1250 292 1228 292 1199 L292 760 L177 651 L177 1198 Z M236 95 C197 95 177 116 177 145 L177 567 L292 675 L292 145 C292 118 273 95 236 95 L236 95 Z " />
<glyph glyph-name="one" unicode="1" horiz-adv-x="369" d="M35 1299 C23 1295 19 1291 19 1282 C19 1279 20 1275 21 1268 L27 1249 C36 1217 52 1201 75 1201 C81 1201 87 1202 93 1204 L120 1211 L120 107 L85 107 C42 107 21 90 21 45 L21 25 C21 6 26 0 45 0 L326 0 C341 0 348 9 348 26 L348 45 C348 92 330 107 285 107 L249 107 L249 1309 C249 1332 237 1344 214 1344 L194 1344 C184 1344 176 1343 169 1341 C166 1340 158 1337 146 1334 L35 1299 Z " />
<glyph glyph-name="two" unicode="2" horiz-adv-x="469" d="M399 0 C414 0 422 9 422 26 L422 45 C422 89 400 111 363 111 L171 111 C196 166 229 253 268 372 C309 495 343 615 372 730 C405 861 421 957 421 1019 L421 1203 C421 1246 406 1286 377 1315 C344 1348 297 1364 236 1364 C175 1364 127 1348 93 1315 C62 1286 48 1246 48 1203 L48 922 C48 906 52 900 71 900 L126 900 C154 900 177 921 177 949 L177 1198 C177 1229 195 1250 234 1250 C273 1250 292 1228 292 1199 L292 1022 C292 989 288 948 281 901 C265 810 241 710 208 601 C179 501 146 400 110 297 C79 208 55 136 38 80 C30 55 26 39 26 32 C26 13 38 0 59 0 L399 0 Z " />
<glyph glyph-name="three" unicode="3" horiz-adv-x="469" d="M234 623 C273 623 292 602 292 573 L292 145 C292 118 273 95 236 95 C197 95 177 116 177 145 L177 415 C177 444 154 465 127 465 L71 465 C52 465 48 461 48 442 L48 140 C48 98 62 62 90 32 C122 -2 169 -19 232 -19 C292 -19 340 -2 376 32 C406 61 421 97 421 140 L421 578 C421 629 401 663 356 683 C399 702 421 736 421 786 L421 1203 C421 1246 406 1286 377 1315 C344 1348 297 1364 236 1364 C175 1364 127 1348 93 1315 C62 1286 48 1246 48 1203 L48 922 C48 906 52 900 71 900 L126 900 C154 900 177 921 177 949 L177 1198 C177 1229 195 1250 234 1250 C273 1250 292 1228 292 1199 L292 788 C292 761 273 739 236 739 L172 739 C152 739 149 737 149 718 L149 669 C149 644 170 623 198 623 L234 623 Z " />
<glyph glyph-name="four" unicode="4" horiz-adv-x="468" d="M421 819 C421 835 417 841 398 841 L342 841 C314 841 291 820 291 792 L291 394 L166 394 L305 1320 L305 1326 C305 1339 299 1345 286 1345 L234 1345 C215 1345 200 1339 191 1327 C183 1318 177 1304 176 1293 L24 306 C21 287 28 282 49 282 L291 282 L291 49 C291 21 313 0 341 0 L396 0 C416 0 421 7 421 27 L421 819 Z " />
<glyph glyph-name="five" unicode="5" horiz-adv-x="470" d="M48 663 C48 644 50 640 69 640 L131 640 C155 640 172 662 180 691 C185 716 211 736 243 736 C271 736 292 714 292 687 L292 145 C292 118 273 95 236 95 C197 95 177 116 177 145 L177 415 C177 444 154 465 127 465 L71 465 C52 465 48 461 48 442 L48 140 C48 98 62 62 90 32 C122 -2 169 -19 232 -19 C292 -19 340 -2 376 32 C406 61 421 97 421 140 L421 691 C421 792 369 847 293 847 C226 847 181 817 177 785 L177 1233 L334 1233 C375 1233 395 1255 395 1299 L395 1318 C395 1335 387 1344 372 1344 L71 1344 C52 1344 48 1339 48 1320 L48 663 Z " />
<glyph glyph-name="six" unicode="6" horiz-adv-x="469" d="M234 1250 C271 1250 292 1228 292 1199 L292 938 C292 914 316 900 340 900 L398 900 C413 900 421 906 421 919 L421 1204 C421 1244 406 1285 375 1314 C340 1347 292 1364 232 1364 C172 1364 126 1347 93 1313 C64 1282 48 1243 48 1203 L48 140 C48 93 63 55 94 27 C127 -4 173 -19 232 -19 C285 -19 334 -4 367 23 C403 52 421 91 421 140 L421 635 C421 681 409 719 384 749 C357 780 322 795 279 795 C219 795 185 771 177 732 L177 1199 C177 1228 197 1250 234 1250 L234 1250 Z M236 95 C197 95 177 116 177 145 L177 620 C177 652 199 684 234 684 C274 684 292 662 292 633 L292 145 C292 118 273 95 236 95 L236 95 Z " />
<glyph glyph-name="seven" unicode="7" horiz-adv-x="420" d="M53 1344 C38 1344 30 1335 30 1318 L30 1299 C30 1255 50 1233 90 1233 L255 1233 L65 23 C64 21 64 18 64 14 C64 3 70 0 86 0 L141 0 C169 0 194 20 197 48 L395 1319 L395 1324 C395 1337 388 1344 375 1344 L53 1344 Z " />
<glyph glyph-name="eight" unicode="8" horiz-adv-x="469" d="M232 -19 C292 -19 340 -2 376 32 C406 61 421 97 421 140 L421 579 C421 631 401 665 356 684 C399 703 421 738 421 787 L421 1203 C421 1246 406 1286 377 1315 C344 1348 297 1364 236 1364 C175 1364 127 1348 93 1315 C62 1286 48 1246 48 1203 L48 787 C48 736 69 701 111 684 C69 665 48 630 48 579 L48 140 C48 98 62 62 90 32 C122 -2 169 -19 232 -19 L232 -19 Z M236 740 C197 740 177 761 177 790 L177 1198 C177 1229 195 1250 234 1250 C273 1250 292 1228 292 1199 L292 790 C292 763 273 740 236 740 L236 740 Z M236 95 C197 95 177 116 177 145 L177 575 C177 606 195 626 234 626 C273 626 292 605 292 576 L292 145 C292 118 273 98 236 95 L236 95 Z " />
<glyph glyph-name="nine" unicode="9" horiz-adv-x="469" d="M236 1364 C175 1364 128 1347 93 1314 C64 1285 48 1245 48 1204 L48 725 C48 680 60 642 84 613 C111 581 146 565 190 565 C251 565 284 593 292 634 L292 145 C292 116 273 95 234 95 L227 95 C194 98 177 118 177 145 L177 425 C177 449 153 462 129 462 L71 462 C56 462 49 456 49 443 L49 141 C49 96 67 55 100 27 C134 -4 179 -19 236 -19 C293 -19 338 -4 372 27 C404 55 421 96 421 141 L421 1204 C421 1243 407 1284 379 1313 C346 1347 299 1364 236 1364 L236 1364 Z M233 1250 C272 1250 292 1228 292 1199 L292 739 C292 707 270 676 234 676 C196 676 177 693 177 727 L177 1199 C177 1227 196 1250 233 1250 L233 1250 Z " />
<glyph glyph-name="colon" unicode="&#x3a;" horiz-adv-x="219" d="M109 1039 C57 1039 30 1013 30 972 C30 931 57 905 109 905 C162 905 189 929 189 972 C189 1015 162 1039 109 1039 L109 1039 Z M109 118 C57 118 30 92 30 51 C30 10 57 -16 109 -16 C162 -16 189 8 189 51 C189 94 162 118 109 118 L109 118 Z " />
<glyph glyph-name="semicolon" unicode="&#x3b;" horiz-adv-x="219" d="M109 1039 C57 1039 30 1013 30 972 C30 931 57 905 109 905 C162 905 189 929 189 972 C189 1015 162 1039 109 1039 L109 1039 Z M108 -85 C108 -93 112 -97 120 -97 C139 -97 155 -84 169 -59 C183 -33 190 -1 190 38 C190 85 162 120 109 120 C58 120 30 96 30 53 C30 12 57 -13 108 -14 L108 -85 Z " />
<glyph glyph-name="less" unicode="&#x3c;" horiz-adv-x="319" d="M275 962 C276 963 276 965 276 967 C276 972 269 977 260 977 L205 977 C180 977 161 964 148 937 L28 671 L148 406 C161 379 180 366 205 366 L260 366 C271 366 279 373 275 381 L135 671 L275 962 Z " />
<glyph glyph-name="equal" unicode="&#x3d;" horiz-adv-x="457" d="M103 803 C66 803 46 781 46 750 L46 715 C46 696 55 691 70 691 L355 691 C392 691 413 719 413 750 L413 781 C413 800 407 803 390 803 L103 803 Z M103 598 C66 598 46 576 46 545 L46 510 C46 491 55 486 70 486 L355 486 C392 486 413 514 413 545 L413 576 C413 595 407 598 390 598 L103 598 Z " />
<glyph glyph-name="greater" unicode="&#x3e;" horiz-adv-x="319" d="M40 380 C39 379 39 377 39 375 C39 370 46 365 55 365 L110 365 C135 365 154 378 167 405 L287 671 L167 936 C154 963 135 976 110 976 L55 976 C44 976 36 969 40 961 L180 671 L40 380 Z " />
<glyph glyph-name="question" unicode="&#x3f;" horiz-adv-x="479" d="M224 227 C247 227 265 249 278 292 C287 320 292 361 293 414 C294 463 298 506 305 543 C317 608 333 662 360 734 C371 765 381 796 390 829 C411 906 424 997 427 1102 C428 1159 424 1210 414 1255 C394 1322 333 1364 244 1364 C174 1364 124 1338 93 1286 C68 1245 56 1190 56 1121 L56 926 C56 913 64 906 79 906 L137 906 C161 906 185 920 185 944 L185 1199 C185 1228 206 1250 243 1250 C280 1250 301 1227 301 1199 C301 1132 298 1076 291 1030 C280 953 261 869 234 778 C220 729 210 688 203 653 C180 547 168 430 169 302 L169 251 C169 235 177 227 192 227 L224 227 Z M226 120 C174 120 147 94 147 53 C147 12 174 -14 226 -14 C279 -14 306 10 306 53 C306 96 279 120 226 120 L226 120 Z " />
<glyph glyph-name="at" unicode="&#x40;" horiz-adv-x="870" d="M256 155 C256 112 271 76 302 46 C336 12 383 -5 443 -5 C494 -5 533 13 559 48 C587 20 625 6 674 6 C715 6 749 19 776 44 C805 70 820 106 820 152 L820 977 C820 1085 784 1175 719 1236 C654 1297 559 1332 444 1332 C329 1332 234 1298 167 1237 C100 1176 64 1085 64 977 L64 156 C64 45 101 -44 169 -105 C236 -165 329 -197 444 -197 L522 -197 C533 -197 538 -192 538 -181 L538 -152 C538 -133 524 -119 504 -119 L444 -119 C243 -119 143 -17 143 170 L143 969 C143 1059 170 1129 224 1179 C276 1228 346 1252 435 1252 C630 1252 742 1148 742 969 L742 153 C742 118 717 92 688 92 C659 92 629 121 629 154 L629 979 C629 1022 614 1063 583 1091 C547 1124 500 1140 442 1140 C384 1140 338 1124 304 1091 C272 1062 256 1020 256 979 L256 155 Z M385 976 C385 1005 405 1027 442 1027 C481 1027 500 1005 500 976 L500 159 C500 130 481 108 444 108 C405 108 385 130 385 159 L385 976 Z " />
<glyph glyph-name="A" unicode="A" horiz-adv-x="432" d="M304 1316 C301 1339 291 1344 266 1344 L165 1344 C140 1344 129 1339 126 1316 L16 23 L16 17 C16 5 21 0 37 0 L98 0 C126 0 146 20 147 48 L159 230 L271 230 L283 48 C284 20 305 0 333 0 L394 0 C413 0 415 4 414 23 L304 1316 Z M266 337 L164 337 L215 1155 L266 337 Z " />
<glyph glyph-name="B" unicode="B" horiz-adv-x="469" d="M232 0 C296 0 345 18 379 54 C407 83 421 122 421 161 L421 550 C421 611 410 657 374 685 C411 713 421 762 421 831 L421 1183 C421 1220 407 1262 379 1291 C346 1326 298 1344 236 1344 L71 1344 C52 1344 48 1339 48 1320 L48 24 C48 5 52 0 71 0 L232 0 Z M234 1233 C271 1233 292 1211 292 1182 L292 820 C292 795 290 777 285 766 C276 747 260 738 239 738 L177 738 L177 1233 L234 1233 Z M239 631 C260 631 276 622 285 603 C290 592 292 574 292 549 L292 162 C292 133 271 111 234 111 L177 111 L177 631 L239 631 Z " />
<glyph glyph-name="C" unicode="C" horiz-adv-x="473" d="M238 1364 C182 1364 134 1347 101 1318 C68 1289 50 1249 50 1204 L50 141 C50 96 68 55 100 27 C134 -4 179 -19 235 -19 C291 -19 340 -2 373 27 C405 55 423 96 423 141 L423 566 C423 579 415 585 400 585 L342 585 C329 585 319 582 311 577 C300 570 294 560 294 547 L294 145 C294 118 277 95 237 95 C198 95 179 116 179 145 L179 1199 C179 1228 199 1250 236 1250 C273 1250 295 1228 295 1199 L295 796 C295 772 319 758 343 758 L401 758 C416 758 423 765 423 778 L423 1204 C423 1248 405 1288 373 1317 C338 1348 293 1364 238 1364 L238 1364 Z " />
<glyph glyph-name="D" unicode="D" horiz-adv-x="469" d="M234 0 C351 0 423 59 423 162 L423 1183 C423 1226 407 1267 378 1295 C343 1328 297 1344 238 1344 L73 1344 C54 1344 50 1339 50 1320 L50 24 C50 4 55 0 78 0 L234 0 Z M179 1233 L236 1233 C273 1233 294 1211 294 1182 L294 162 C294 134 274 111 241 111 L179 111 L179 1233 Z " />
<glyph glyph-name="E" unicode="E" horiz-adv-x="385" d="M73 1344 C54 1344 50 1339 50 1320 L50 24 C50 4 55 0 79 0 L326 0 C341 0 349 9 349 26 L349 45 C349 89 327 111 290 111 L179 111 L179 610 L271 610 C308 610 330 633 330 676 L330 696 C330 713 322 721 307 721 L179 721 L179 1233 L290 1233 C327 1233 349 1256 349 1299 L349 1318 C349 1335 341 1344 326 1344 L73 1344 Z " />
<glyph glyph-name="F" unicode="F" horiz-adv-x="359" d="M71 1344 C52 1344 48 1339 48 1320 L48 26 C48 6 52 0 71 0 L126 0 C154 0 177 21 177 49 L177 610 L269 610 C308 610 328 632 328 676 L328 695 C328 712 320 721 305 721 L177 721 L177 1233 L288 1233 C327 1233 347 1255 347 1299 L347 1318 C347 1335 339 1344 324 1344 L71 1344 Z " />
<glyph glyph-name="G" unicode="G" horiz-adv-x="467" d="M236 1364 C180 1364 134 1349 98 1318 C65 1289 47 1249 47 1204 L47 141 C47 96 65 55 97 27 C131 -4 176 -19 232 -19 C288 -19 337 -2 370 27 C403 55 421 96 421 141 L421 606 C421 620 414 627 399 627 L253 627 C238 627 230 619 230 602 L230 571 C230 527 243 507 279 507 L292 507 L292 145 C292 118 274 95 234 95 C195 95 176 116 176 145 L176 1199 C176 1228 197 1250 234 1250 C271 1250 292 1228 292 1199 L292 796 C292 784 298 774 309 767 C318 761 329 758 340 758 L398 758 C413 758 421 765 421 778 L421 1204 C421 1248 403 1288 371 1317 C338 1346 291 1364 236 1364 L236 1364 Z " />
<glyph glyph-name="H" unicode="H" horiz-adv-x="465" d="M417 1321 C417 1338 413 1344 394 1344 L338 1344 C310 1344 288 1325 288 1294 L288 738 L177 738 L177 1294 C177 1325 155 1344 127 1344 L71 1344 C52 1344 48 1338 48 1321 L48 24 C48 7 53 0 72 0 L125 0 C154 0 177 20 177 51 L177 630 L288 630 L288 51 C288 20 311 0 340 0 L393 0 C412 0 417 7 417 24 L417 1321 Z " />
<glyph glyph-name="I" unicode="I" horiz-adv-x="229" d="M179 1321 C179 1338 175 1344 156 1344 L101 1344 C73 1344 50 1323 50 1294 L50 29 C50 10 59 0 78 0 L150 0 C169 0 179 10 179 29 L179 1321 Z " />
<glyph glyph-name="J" unicode="J" horiz-adv-x="468" d="M421 1320 C421 1339 417 1344 398 1344 L343 1344 C315 1344 292 1323 292 1295 L292 146 C292 121 274 95 231 95 C195 96 177 117 177 145 L177 589 C177 602 171 612 160 619 C152 624 142 627 129 627 L70 627 C55 627 48 620 48 607 L48 141 C48 104 64 65 93 34 C127 -1 175 -19 236 -19 C293 -19 339 -2 374 31 C405 60 421 101 421 142 L421 1320 Z " />
<glyph glyph-name="K" unicode="K" horiz-adv-x="469" d="M310 48 C313 20 341 0 369 0 L429 0 C444 0 448 3 448 12 C448 17 448 20 447 23 L343 681 L447 1321 C448 1324 448 1327 448 1332 C448 1341 444 1344 429 1344 L369 1344 C341 1344 314 1324 310 1296 L221 737 L177 737 L177 1295 C177 1323 154 1344 126 1344 L71 1344 C52 1344 48 1339 48 1320 L48 24 C48 5 52 0 71 0 L126 0 C154 0 177 21 177 49 L177 630 L220 630 L310 48 Z " />
<glyph glyph-name="L" unicode="L" horiz-adv-x="369" d="M48 24 C48 7 52 0 71 0 L324 0 C339 0 347 9 347 26 L347 45 C347 89 327 111 288 111 L177 111 L177 1295 C177 1323 154 1344 126 1344 L71 1344 C52 1344 48 1339 48 1320 L48 24 Z " />
<glyph glyph-name="M" unicode="M" horiz-adv-x="640" d="M249 28 C251 9 261 0 280 0 L360 0 C380 0 390 9 391 28 L481 1003 L484 932 L464 51 C464 20 487 0 516 0 L569 0 C588 0 592 7 592 24 L592 1321 C592 1338 589 1344 570 1344 L462 1344 C434 1344 409 1324 406 1296 L320 247 L234 1296 C231 1324 207 1344 179 1344 L76 1344 C52 1344 48 1340 48 1321 L48 24 C48 7 53 0 72 0 L125 0 C154 0 177 20 177 51 L157 932 L160 1002 L249 28 Z " />
<glyph glyph-name="N" unicode="N" horiz-adv-x="465" d="M417 1321 C417 1338 413 1344 394 1344 L338 1344 C310 1344 287 1323 288 1294 L306 514 L176 1301 C171 1328 152 1344 127 1344 L71 1344 C52 1344 48 1338 48 1321 L48 24 C48 7 53 0 72 0 L125 0 C154 0 178 20 177 51 L159 831 L288 44 C293 17 313 0 340 0 L393 0 C412 0 417 7 417 24 L417 1321 Z " />
<glyph glyph-name="O" unicode="O" horiz-adv-x="469" d="M48 143 C48 103 63 62 94 33 C128 -1 175 -18 235 -18 C294 -18 341 -1 377 34 C407 64 422 100 422 143 L422 1203 C422 1244 406 1286 375 1314 C343 1345 294 1363 235 1363 C176 1363 128 1345 96 1314 C65 1286 48 1246 48 1203 L48 143 Z M177 1199 C177 1228 196 1250 235 1250 C272 1250 293 1228 293 1199 L293 146 C293 117 273 95 236 95 C197 95 177 117 177 146 L177 1199 Z " />
<glyph glyph-name="P" unicode="P" horiz-adv-x="449" d="M232 504 C288 504 337 521 370 550 C403 578 421 619 421 664 L421 1183 C421 1228 403 1269 371 1298 C337 1329 292 1344 236 1344 L71 1344 C52 1344 48 1339 48 1320 L48 24 C48 5 52 0 71 0 L126 0 C154 0 177 21 177 49 L177 504 L232 504 Z M177 1233 L234 1233 C271 1233 292 1211 292 1182 L292 666 C292 638 272 615 239 615 L177 615 L177 1233 Z " />
<glyph glyph-name="Q" unicode="Q" horiz-adv-x="469" d="M48 143 C48 109 58 79 77 53 C98 24 127 3 165 -8 L165 -37 C165 -73 184 -95 223 -95 L279 -95 C291 -95 299 -86 299 -75 L299 -9 C379 12 422 75 422 143 L422 1203 C422 1244 406 1286 375 1314 C343 1345 294 1363 235 1363 C176 1363 128 1345 96 1314 C65 1286 48 1246 48 1203 L48 143 Z M177 1199 C177 1228 196 1250 235 1250 C272 1250 293 1228 293 1199 L293 146 C293 137 291 129 287 122 C276 136 257 143 230 143 C208 143 191 137 180 126 C178 132 177 139 177 146 L177 1199 Z " />
<glyph glyph-name="R" unicode="R" horiz-adv-x="468" d="M421 507 C421 556 400 589 358 608 C400 635 421 679 421 738 L421 1183 C421 1226 407 1266 376 1295 C342 1328 295 1344 236 1344 L71 1344 C52 1344 48 1339 48 1320 L48 24 C48 5 52 0 71 0 L126 0 C154 0 177 21 177 49 L177 557 L234 557 C271 557 292 535 292 506 L292 49 C292 21 314 0 342 0 L397 0 C416 0 421 5 421 24 L421 507 Z M234 1233 C271 1233 292 1211 292 1182 L292 740 C292 721 288 705 281 692 C272 676 258 668 239 668 L177 668 L177 1233 L234 1233 Z " />
<glyph glyph-name="S" unicode="S" horiz-adv-x="469" d="M234 -19 C290 -19 339 -2 371 27 C403 55 421 96 421 141 C421 218 415 289 403 354 C382 465 348 582 299 705 C276 764 256 817 240 864 C199 981 176 1084 176 1199 C176 1227 197 1250 234 1250 C271 1250 292 1228 292 1199 L292 911 C292 886 316 872 340 872 L398 872 C413 872 421 879 421 892 L421 1204 C421 1249 403 1289 370 1318 C337 1347 288 1364 232 1364 C177 1364 130 1347 97 1318 C65 1289 47 1249 47 1204 C47 1131 53 1063 65 1001 C85 898 120 783 170 658 C186 617 206 564 229 498 C269 378 292 268 292 145 C292 116 273 95 234 95 C197 95 177 116 177 145 L177 425 C177 438 171 448 160 455 C152 460 142 463 129 463 L70 463 C55 463 48 456 48 443 L48 141 C48 96 65 55 97 27 C131 -4 177 -19 234 -19 L234 -19 Z " />
<glyph glyph-name="T" unicode="T" horiz-adv-x="396" d="M37 1344 C22 1344 14 1335 14 1318 L14 1299 C14 1255 34 1233 73 1233 L137 1233 L137 28 C137 8 144 0 164 0 L238 0 C257 0 266 9 266 28 L266 1233 L325 1233 C362 1233 384 1255 384 1299 L384 1318 C384 1335 376 1344 361 1344 L37 1344 Z " />
<glyph glyph-name="U" unicode="U" horiz-adv-x="469" d="M177 1295 C177 1323 154 1344 126 1344 L71 1344 C52 1344 48 1339 48 1320 L48 141 C48 98 64 61 97 30 C132 -3 178 -19 236 -19 C293 -19 340 -2 375 32 C406 61 421 101 421 141 L421 1320 C421 1339 416 1344 397 1344 L342 1344 C314 1344 292 1323 292 1295 L292 145 C292 116 273 95 234 95 C194 95 177 118 177 145 L177 1295 Z " />
<glyph glyph-name="V" unicode="V" horiz-adv-x="423" d="M410 1327 C410 1339 405 1344 389 1344 L334 1344 C306 1344 282 1324 279 1296 L211 191 L143 1296 C140 1324 115 1344 87 1344 L33 1344 C17 1344 11 1341 11 1330 C11 1326 11 1323 12 1321 L122 28 C125 8 132 0 152 0 L269 0 C288 0 298 9 299 28 L410 1321 L410 1327 Z " />
<glyph glyph-name="W" unicode="W" horiz-adv-x="716" d="M415 28 C415 9 425 0 445 0 L553 0 L553 1 L554 0 C579 0 590 5 593 28 L703 1321 L703 1327 C703 1339 698 1344 682 1344 L627 1344 C599 1344 575 1324 572 1296 L504 181 L433 1296 C432 1323 408 1343 383 1343 L331 1343 C307 1343 285 1323 282 1296 L212 186 L144 1296 C141 1324 117 1344 89 1344 L34 1344 C18 1344 12 1341 12 1330 C12 1326 12 1323 13 1321 L123 28 C124 9 134 0 153 0 L269 0 C290 0 300 9 301 28 L357 1019 L415 28 Z " />
<glyph glyph-name="X" unicode="X" horiz-adv-x="412" d="M399 1317 C402 1335 395 1344 376 1344 L326 1344 C298 1344 269 1324 266 1296 L206 749 L146 1296 C143 1324 114 1344 86 1344 L36 1344 C17 1344 10 1335 13 1317 L114 672 L13 27 C10 9 17 0 36 0 L86 0 C114 0 143 20 146 48 L206 596 L266 48 C269 20 298 0 326 0 L376 0 C395 0 402 9 399 27 L298 672 L399 1317 Z " />
<glyph glyph-name="Y" unicode="Y" horiz-adv-x="413" d="M399 1317 C402 1335 395 1344 376 1344 L326 1344 C298 1344 269 1324 266 1296 L206 657 L146 1296 C143 1324 114 1344 86 1344 L36 1344 C21 1344 13 1338 13 1325 C13 1322 13 1319 14 1317 L142 439 L142 29 C142 10 151 0 170 0 L242 0 C261 0 271 10 271 29 L271 440 L399 1317 Z " />
<glyph glyph-name="Z" unicode="Z" horiz-adv-x="360" d="M55 1344 C41 1344 34 1335 34 1318 L34 1299 C34 1255 52 1233 88 1233 L181 1233 L27 48 C26 45 26 42 26 38 C26 14 45 0 72 0 L314 0 C328 0 335 9 335 26 L335 45 C335 90 317 112 280 112 L158 112 L325 1316 C326 1319 326 1322 326 1326 C326 1341 319 1344 299 1344 L55 1344 Z " />
<glyph glyph-name="bracketleft" unicode="&#x5b;" horiz-adv-x="312" d="M69 1444 C56 1444 50 1438 50 1426 L50 -81 C50 -93 56 -99 69 -99 L271 -99 C282 -99 290 -92 290 -81 L290 -70 C290 -38 271 -16 243 -16 L179 -16 L179 1360 L243 1360 C271 1360 290 1382 290 1414 L290 1426 C290 1437 282 1444 271 1444 L69 1444 Z " />
<glyph glyph-name="backslash" unicode="&#x5c;" horiz-adv-x="340" d="M145 1293 C144 1305 139 1316 132 1326 C122 1338 107 1344 87 1344 L35 1344 C20 1344 14 1336 16 1319 L178 48 C181 20 205 0 233 0 L289 0 C304 0 310 5 310 14 C310 18 310 21 309 23 L145 1293 Z " />
<glyph glyph-name="bracketright" unicode="&#x5d;" horiz-adv-x="305" d="M236 -99 C249 -99 255 -93 255 -81 L255 1426 C255 1438 249 1444 236 1444 L34 1444 C21 1444 15 1438 15 1426 L15 1414 C15 1382 34 1360 62 1360 L126 1360 L126 -16 L62 -16 C34 -16 15 -38 15 -70 L15 -81 C15 -93 21 -99 34 -99 L236 -99 Z " />
<glyph glyph-name="asciicircum" unicode="&#x5e;" horiz-adv-x="467" d="M322 859 C317 879 311 886 292 886 L175 886 C155 886 149 879 144 859 L52 460 L50 452 C50 442 58 437 73 437 L128 437 C155 437 178 456 183 484 L233 759 L283 484 C288 456 312 437 339 437 L394 437 C409 437 416 442 416 451 C416 453 415 456 414 460 L322 859 Z " />
<glyph glyph-name="underscore" unicode="&#x5f;" horiz-adv-x="456" d="M94 -21 C66 -21 46 -39 46 -67 L46 -81 C46 -100 55 -105 70 -105 L363 -105 C392 -105 413 -82 413 -54 L413 -44 C413 -25 407 -21 390 -21 L94 -21 Z " />
<glyph glyph-name="grave" unicode="&#x60;" horiz-adv-x="253" d="M162 1441 C159 1454 147 1464 131 1464 L96 1464 C66 1464 51 1454 51 1434 C51 1428 53 1421 56 1412 L113 1246 C126 1211 138 1196 167 1196 L184 1196 C199 1196 206 1205 203 1220 L162 1441 Z " />
<glyph glyph-name="a" unicode="a" horiz-adv-x="401" d="M289 1105 C287 1124 277 1133 258 1133 L141 1133 C121 1133 114 1125 111 1105 L12 23 L12 18 C12 5 17 0 33 0 L88 0 C116 0 140 20 143 48 L152 200 L246 200 L256 48 C257 20 283 0 311 0 L366 0 C381 0 387 5 387 14 C387 18 387 21 386 23 L289 1105 Z M200 953 L240 299 L158 299 L199 949 L200 953 Z " />
<glyph glyph-name="b" unicode="b" horiz-adv-x="473" d="M234 0 C298 0 347 18 381 54 C409 83 423 122 423 161 L423 444 C423 511 406 556 372 579 C411 604 423 647 423 711 L423 976 C423 1013 409 1055 381 1084 C348 1119 300 1137 238 1137 L73 1137 C54 1137 50 1132 50 1113 L50 24 C50 5 54 0 73 0 L234 0 Z M236 1026 C273 1026 294 1004 294 975 L294 713 C294 692 291 674 285 660 C276 641 261 631 241 631 L179 631 L179 1026 L236 1026 Z M241 525 C261 525 276 516 285 497 C291 483 294 465 294 443 L294 162 C294 133 273 111 236 111 L179 111 L179 525 L241 525 Z " />
<glyph glyph-name="c" unicode="c" horiz-adv-x="473" d="M238 1153 C182 1153 134 1136 101 1107 C68 1078 50 1038 50 993 L50 141 C50 96 68 55 100 27 C134 -4 179 -19 235 -19 C291 -19 340 -2 373 27 C405 55 423 96 423 141 L423 477 C423 490 415 496 400 496 L342 496 C329 496 319 493 311 488 C300 481 294 471 294 458 L294 145 C294 118 277 95 237 95 C198 95 179 116 179 145 L179 988 C179 1017 199 1039 236 1039 C273 1039 295 1017 295 988 L295 665 C295 641 319 627 343 627 L401 627 C416 627 423 634 423 647 L423 993 C423 1037 405 1077 373 1106 C338 1137 293 1153 238 1153 L238 1153 Z " />
<glyph glyph-name="d" unicode="d" horiz-adv-x="468" d="M236 0 C292 0 337 15 370 44 C404 74 421 114 421 163 L421 971 C421 1010 406 1049 378 1080 C347 1112 299 1133 236 1133 L71 1133 C52 1133 48 1128 48 1109 L48 24 C48 5 52 0 71 0 L236 0 Z M177 1022 L234 1022 C271 1022 292 1000 292 971 L292 162 C292 134 272 111 239 111 L177 111 L177 1022 Z " />
<glyph glyph-name="e" unicode="e" horiz-adv-x="366" d="M324 0 C339 0 347 9 347 26 L347 45 C347 89 327 111 288 111 L177 111 L177 503 L249 503 C297 503 328 520 328 568 L328 588 C328 605 320 614 305 614 L177 614 L177 1022 L288 1022 C325 1022 347 1044 347 1088 L347 1107 C347 1124 339 1133 324 1133 L94 1133 C52 1133 48 1134 48 1109 L48 24 C48 4 52 0 76 0 L324 0 Z " />
<glyph glyph-name="f" unicode="f" horiz-adv-x="357" d="M126 0 C155 0 177 23 177 50 L177 503 L269 503 C306 503 328 525 328 568 L328 588 C328 605 320 614 305 614 L177 614 L177 1022 L288 1022 C325 1022 347 1044 347 1088 L347 1109 C347 1125 339 1133 324 1133 L76 1133 C53 1133 48 1128 48 1109 L48 24 C48 5 52 0 71 0 L126 0 Z " />
<glyph glyph-name="g" unicode="g" horiz-adv-x="473" d="M236 1153 C180 1153 134 1138 98 1107 C65 1078 47 1037 47 992 L47 141 C47 96 65 55 97 27 C131 -4 176 -19 232 -19 C288 -19 337 -2 370 27 C403 55 421 96 421 141 L421 548 C421 562 414 569 399 569 L335 569 L253 569 C238 569 230 561 230 544 L230 514 C230 470 243 449 279 449 L292 449 L292 145 C292 118 274 95 234 95 C195 95 176 116 176 145 L176 988 C176 1017 197 1039 234 1039 C271 1039 292 1017 292 988 L292 710 C292 698 298 688 309 681 C318 675 329 672 340 672 L398 672 C413 672 421 679 421 692 L421 992 C421 1037 403 1077 371 1106 C338 1135 291 1152 236 1153 L236 1153 Z " />
<glyph glyph-name="h" unicode="h" horiz-adv-x="465" d="M417 1109 C417 1128 413 1133 394 1133 L339 1133 C311 1133 288 1112 288 1084 L288 621 L177 621 L177 1081 C177 1112 157 1133 126 1133 L71 1133 C52 1133 48 1128 48 1109 L48 24 C48 5 52 0 71 0 L126 0 C154 0 177 21 177 49 L177 514 L288 514 L288 48 C288 20 311 0 339 0 L394 0 C413 0 417 5 417 24 L417 1109 Z " />
<glyph glyph-name="i" unicode="i" horiz-adv-x="225" d="M177 1110 C177 1129 174 1133 154 1133 L99 1133 C71 1133 48 1111 48 1083 L48 29 C48 10 57 0 76 0 L148 0 C167 0 177 10 177 29 L177 1110 Z " />
<glyph glyph-name="j" unicode="j" horiz-adv-x="468" d="M421 1109 C421 1128 417 1133 398 1133 L343 1133 C315 1133 292 1112 292 1084 L292 146 C292 121 274 95 231 95 C195 96 177 117 177 145 L177 589 C177 602 171 612 160 619 C152 624 142 627 129 627 L70 627 C55 627 48 620 48 607 L48 141 C48 104 64 65 93 34 C127 -1 175 -19 236 -19 C293 -19 339 -2 374 31 C405 60 421 101 421 142 L421 1109 Z " />
<glyph glyph-name="k" unicode="k" horiz-adv-x="473" d="M126 0 C154 0 177 21 177 49 L177 519 L222 519 L310 40 C314 17 341 0 369 0 L429 0 C444 0 448 3 448 10 C448 14 448 17 447 20 L343 574 L447 1113 C448 1116 448 1119 448 1123 C448 1130 444 1133 429 1133 L369 1133 C341 1133 314 1116 310 1093 L222 626 L177 626 L177 1087 C177 1112 157 1133 126 1133 L71 1133 C52 1133 48 1128 48 1109 L48 24 C48 5 52 0 71 0 L126 0 Z " />
<glyph glyph-name="l" unicode="l" horiz-adv-x="351" d="M321 0 C336 0 343 9 343 26 L343 45 C343 89 324 111 285 111 L177 111 L177 1081 C177 1112 157 1133 126 1133 L71 1133 C52 1133 48 1128 48 1109 L48 25 C48 5 52 0 71 0 L321 0 Z " />
<glyph glyph-name="m" unicode="m" horiz-adv-x="641" d="M249 28 C251 9 261 0 280 0 L356 0 C376 0 386 9 387 28 L474 824 L480 691 L460 51 C460 20 483 0 512 0 L565 0 C580 0 588 8 588 24 L588 1110 C588 1129 585 1133 566 1133 L507 1133 C475 1133 452 1131 439 1127 C417 1120 405 1106 402 1085 L318 226 L234 1085 C231 1113 207 1133 179 1133 L71 1133 C51 1133 48 1129 48 1110 L48 24 C48 7 53 0 72 0 L125 0 C154 0 177 20 177 51 L157 691 L162 824 L249 28 Z " />
<glyph glyph-name="n" unicode="n" horiz-adv-x="465" d="M417 1110 C417 1127 413 1133 394 1133 L338 1133 C310 1133 285 1111 288 1083 L311 405 L184 1052 C173 1106 154 1133 127 1133 L71 1133 C52 1133 48 1127 48 1110 L48 24 C48 7 53 0 72 0 L125 0 C156 0 180 22 177 51 L154 731 L283 76 C288 52 294 35 301 24 C311 8 324 0 340 0 L393 0 C412 0 417 7 417 24 L417 1110 Z " />
<glyph glyph-name="o" unicode="o" horiz-adv-x="473" d="M50 143 C50 103 65 62 96 33 C130 -1 177 -18 237 -18 C296 -18 343 -1 378 34 C408 64 423 100 423 143 L423 992 C423 1035 408 1075 377 1104 C342 1137 295 1153 236 1153 C178 1153 132 1137 98 1104 C66 1075 50 1033 50 992 L50 143 Z M179 988 C179 1017 199 1039 236 1039 C275 1039 294 1017 294 988 L294 146 C294 117 275 95 238 95 C199 95 179 117 179 146 L179 988 Z " />
<glyph glyph-name="p" unicode="p" horiz-adv-x="444" d="M126 0 C154 0 177 21 177 49 L177 391 L232 391 C288 391 337 408 370 437 C403 465 421 506 421 551 L421 972 C421 1017 403 1058 371 1087 C336 1118 291 1133 236 1133 L71 1133 C52 1133 48 1128 48 1109 L48 24 C48 5 52 0 71 0 L126 0 Z M234 1022 C271 1022 292 1000 292 971 L292 552 C292 525 272 502 239 502 L177 502 L177 1022 L234 1022 Z " />
<glyph glyph-name="q" unicode="q" horiz-adv-x="469" d="M50 143 C50 110 59 81 78 54 C99 25 128 4 165 -7 L165 -37 C165 -73 184 -95 223 -95 L279 -95 C291 -95 299 -86 299 -75 L299 -10 C340 1 372 21 393 51 C413 79 423 110 423 143 L423 992 C423 1035 408 1075 377 1104 C342 1137 295 1153 236 1153 C178 1153 132 1137 98 1104 C66 1075 50 1033 50 992 L50 143 Z M179 988 C179 1017 199 1039 236 1039 C275 1039 294 1017 294 988 L294 146 C294 137 292 128 288 121 C275 136 256 143 230 143 C209 143 193 138 182 127 C180 133 179 139 179 146 L179 988 Z " />
<glyph glyph-name="r" unicode="r" horiz-adv-x="468" d="M421 417 C421 466 400 500 358 519 C400 544 421 587 421 648 L421 973 C421 1016 407 1056 376 1085 C342 1118 295 1134 236 1134 L71 1134 C52 1134 48 1129 48 1110 L48 24 C48 5 52 0 71 0 L126 0 C154 0 177 21 177 49 L177 467 L234 467 C273 467 292 446 292 417 L292 49 C292 21 314 0 342 0 L397 0 C416 0 421 5 421 24 L421 417 Z M234 1023 C271 1023 292 1001 292 972 L292 650 C292 631 288 615 281 602 C272 586 258 578 239 578 L177 578 L177 1023 L234 1023 Z " />
<glyph glyph-name="s" unicode="s" horiz-adv-x="469" d="M234 -19 C290 -19 339 -2 371 27 C403 55 421 96 421 141 C421 217 415 283 403 338 C383 430 348 517 299 599 C276 637 257 673 240 707 C199 790 176 873 176 988 C176 1016 197 1039 234 1039 C271 1039 292 1017 292 988 L292 760 C292 736 316 722 340 722 L398 722 C413 722 421 728 421 741 L421 992 C421 1037 403 1078 370 1107 C337 1135 288 1152 232 1152 C177 1152 129 1135 97 1107 C65 1078 47 1037 47 992 C47 919 53 856 65 803 C88 706 122 626 170 546 C186 519 206 483 229 436 C269 349 292 264 292 145 C292 116 273 95 234 95 C197 95 177 116 177 145 L177 365 C177 377 171 387 160 394 C152 399 142 402 129 402 L70 402 C55 402 48 396 48 383 L48 141 C48 96 65 55 97 27 C131 -4 177 -19 234 -19 L234 -19 Z " />
<glyph glyph-name="t" unicode="t" horiz-adv-x="397" d="M266 1022 L325 1022 C362 1022 384 1044 384 1088 L384 1107 C384 1124 376 1133 361 1133 L37 1133 C22 1133 14 1124 14 1107 L14 1088 C14 1044 34 1022 73 1022 L137 1022 L137 28 C137 8 144 0 164 0 L238 0 C257 0 266 9 266 28 L266 1022 Z " />
<glyph glyph-name="u" unicode="u" horiz-adv-x="469" d="M177 1085 C177 1113 154 1134 126 1134 L71 1134 C52 1134 48 1129 48 1110 L48 141 C48 98 64 61 97 30 C132 -3 178 -19 236 -19 C293 -19 340 -2 375 32 C406 61 421 101 421 141 L421 1110 C421 1129 416 1134 397 1134 L342 1134 C314 1134 292 1113 292 1085 L292 145 C292 116 273 95 234 95 C194 95 177 118 177 145 L177 1085 Z " />
<glyph glyph-name="v" unicode="v" horiz-adv-x="400" d="M386 1110 C387 1112 387 1115 387 1119 C387 1130 381 1133 366 1133 L311 1133 C283 1133 258 1113 255 1085 L199 196 L144 1085 C141 1113 116 1133 88 1133 L33 1133 C14 1133 11 1127 12 1110 L111 28 C112 9 122 0 141 0 L258 0 C277 0 287 9 289 28 L386 1110 Z " />
<glyph glyph-name="w" unicode="w" horiz-adv-x="680" d="M667 1110 C668 1112 668 1115 668 1119 C668 1130 662 1133 646 1133 L592 1133 C564 1133 537 1113 536 1085 L480 196 L422 1085 C419 1113 394 1133 366 1133 L314 1133 C286 1133 261 1113 260 1085 L201 196 L145 1085 C144 1113 118 1133 90 1133 L35 1133 C19 1133 13 1130 13 1119 C13 1115 13 1112 14 1110 L112 28 C115 8 123 0 143 0 L260 0 C279 0 289 9 290 28 L340 859 L391 28 C391 20 393 14 397 10 C404 3 415 0 432 0 L455 0 L538 0 C558 0 566 8 569 28 L667 1110 Z " />
<glyph glyph-name="x" unicode="x" horiz-adv-x="417" d="M398 1109 C400 1125 392 1133 375 1133 L325 1133 C297 1133 268 1116 265 1093 L209 632 L153 1093 C150 1116 121 1133 93 1133 L43 1133 C24 1133 17 1125 20 1109 L116 567 L20 24 L19 17 C19 6 27 0 43 0 L93 0 C121 0 150 17 153 40 L209 502 L265 40 C268 17 297 0 325 0 L375 0 C392 0 400 8 398 24 L301 567 L398 1109 Z " />
<glyph glyph-name="y" unicode="y" horiz-adv-x="392" d="M380 1110 L381 1117 C381 1128 373 1133 357 1133 L307 1133 C278 1133 249 1116 248 1093 L197 580 L146 1093 C143 1116 114 1133 86 1133 L36 1133 C16 1133 11 1126 14 1110 L132 374 L132 24 C132 8 142 0 161 0 L232 0 C251 0 261 8 261 24 L261 374 L380 1110 Z " />
<glyph glyph-name="z" unicode="z" horiz-adv-x="359" d="M55 1133 C41 1133 34 1124 34 1107 L34 1088 C34 1044 52 1022 88 1022 L179 1022 L27 48 C26 45 26 42 26 38 C26 14 45 0 72 0 L314 0 C328 0 335 9 335 26 L335 45 C335 90 317 112 280 112 L161 112 L325 1105 C326 1108 326 1111 326 1115 C326 1128 319 1133 300 1133 L55 1133 Z " />
<glyph glyph-name="braceleft" unicode="&#x7b;" horiz-adv-x="373" d="M107 1068 C107 1051 110 1007 117 938 L119 911 C124 858 126 819 126 792 C126 751 101 728 65 728 C46 728 37 721 37 707 L37 637 C37 623 46 616 65 616 C101 616 126 593 126 552 C126 537 125 516 123 489 C121 462 120 442 119 431 L117 407 C110 336 107 293 107 276 C107 151 117 61 137 5 C154 -46 181 -78 218 -92 C247 -104 274 -104 335 -104 C356 -104 367 -98 367 -87 L367 -68 C367 -56 363 -50 356 -49 C345 -46 335 -44 327 -44 C304 -45 288 -41 275 -22 C267 -12 261 4 256 27 C243 74 237 157 236 275 C236 299 239 343 245 408 L248 448 C252 500 254 533 254 546 C254 614 222 656 158 672 C222 687 254 729 254 798 C254 812 252 846 248 899 L245 937 C239 1002 236 1046 236 1069 C237 1188 243 1271 256 1318 C261 1339 267 1356 275 1367 C288 1384 304 1389 327 1389 L332 1389 C337 1389 345 1390 356 1393 C363 1394 367 1400 367 1412 L367 1431 C367 1442 356 1448 335 1448 C274 1448 247 1448 218 1436 C181 1422 154 1390 137 1340 C117 1283 107 1193 107 1068 L107 1068 Z " />
<glyph glyph-name="bar" unicode="&#x7c;" horiz-adv-x="279" d="M178 1426 C178 1443 174 1449 155 1449 L100 1449 C72 1449 49 1427 49 1399 L49 -79 C49 -95 54 -103 73 -103 L128 -103 C157 -103 178 -83 178 -55 L178 1426 Z " />
<glyph glyph-name="braceright" unicode="&#x7d;" horiz-adv-x="373" d="M265 1068 C265 1191 255 1282 236 1340 C217 1393 191 1423 155 1436 C126 1448 100 1448 37 1448 C16 1448 5 1442 5 1431 L5 1412 C5 1400 9 1394 16 1393 C27 1390 37 1388 46 1389 C67 1389 84 1384 97 1367 C105 1356 112 1340 117 1318 C129 1269 135 1186 136 1069 C136 1056 135 1037 133 1013 L127 937 L121 859 C119 834 118 814 118 798 C118 729 150 687 213 672 C150 656 118 614 118 546 C118 531 119 511 121 486 L127 408 L133 331 C135 307 136 288 136 275 C135 159 129 76 117 27 C111 4 104 -13 97 -22 C84 -41 67 -45 46 -44 C37 -44 27 -46 16 -49 C9 -50 5 -56 5 -68 L5 -87 C5 -98 16 -104 37 -104 C100 -104 126 -104 155 -92 C191 -79 217 -50 236 5 C255 62 265 152 265 276 C265 287 263 316 259 364 L256 407 C249 476 246 525 246 552 C246 593 270 616 306 616 C325 616 334 623 334 637 L334 707 C334 721 325 728 306 728 C270 728 246 751 246 792 C246 819 249 867 256 938 L259 979 C263 1027 265 1057 265 1068 L265 1068 Z " />
<glyph glyph-name="asciitilde" unicode="&#x7e;" horiz-adv-x="456" d="M411 637 C411 650 407 656 400 656 C397 656 391 654 382 650 C350 637 334 629 309 629 C288 629 276 636 241 659 C210 678 186 689 154 689 C124 689 99 681 78 666 C55 650 44 630 44 605 L44 575 C44 561 48 554 55 554 C64 554 84 562 107 573 C121 578 135 581 150 581 C171 581 185 574 222 551 C251 532 278 521 311 521 C338 521 361 529 380 544 C401 560 411 582 411 609 L411 637 Z " />
<glyph glyph-name="exclamdown" unicode="&#xa1;" horiz-adv-x="231" d="M109 1016 C162 1016 189 1040 189 1083 C189 1126 162 1150 109 1150 C57 1150 30 1124 30 1083 C30 1042 57 1016 109 1016 L109 1016 Z M52 -186 C52 -199 59 -210 74 -210 L133 -210 C173 -210 200 -187 197 -152 L171 852 C168 887 142 909 105 909 L74 909 C59 909 52 899 52 886 L52 -186 Z " />
<glyph glyph-name="cent" unicode="&#xa2;" horiz-adv-x="473" d="M232 -183 C260 -183 281 -163 281 -135 L281 -15 C369 1 423 61 423 141 L423 477 C423 490 415 496 400 496 L342 496 C329 496 319 493 311 488 C300 481 294 471 294 458 L294 145 C294 118 277 95 237 95 C198 95 179 116 179 145 L179 988 C179 1017 199 1039 236 1039 C273 1039 295 1017 295 988 L295 665 C295 641 319 627 343 627 L401 627 C416 627 423 634 423 647 L423 993 C423 1070 368 1133 281 1149 L281 1295 C281 1312 278 1318 259 1318 L242 1318 C214 1318 191 1296 191 1268 L191 1149 C104 1132 50 1070 50 993 L50 141 C50 61 104 0 191 -15 L191 -159 C191 -174 196 -183 215 -183 L232 -183 Z " />
<glyph glyph-name="sterling" unicode="&#xa3;" horiz-adv-x="566" d="M495 0 C508 0 514 6 514 18 L514 60 C514 92 495 114 467 114 L184 114 C204 152 220 198 233 253 C252 332 261 426 261 533 L261 626 L351 626 C379 626 399 648 399 680 L399 699 C399 710 390 717 379 717 L261 717 L261 1198 C261 1223 279 1249 322 1249 C358 1248 376 1227 376 1199 L376 946 C376 934 382 924 393 917 C402 911 413 908 424 908 L483 908 C498 908 505 915 505 928 L505 1203 C505 1240 489 1281 460 1310 C427 1343 379 1363 316 1363 C259 1363 213 1347 179 1314 C148 1285 132 1245 132 1202 L132 717 L73 717 C60 717 54 711 54 699 L54 680 C54 648 73 626 101 626 L132 626 L132 531 C132 409 123 308 105 227 C95 181 80 137 60 96 C53 87 50 75 50 60 L50 18 C50 6 56 0 69 0 L495 0 Z " />
<glyph glyph-name="currency" unicode="&#xa4;" horiz-adv-x="482" d="M241 142 C265 142 285 146 302 153 L328 48 C335 20 357 0 384 0 L410 0 C427 0 434 8 430 23 L382 211 C399 232 407 256 407 282 L407 1045 C407 1074 398 1099 380 1122 L430 1319 C431 1321 431 1324 431 1328 C431 1339 425 1344 412 1344 L388 1344 C369 1344 355 1338 346 1326 C341 1319 335 1308 330 1293 L301 1176 C285 1183 266 1187 244 1187 C217 1187 196 1183 181 1175 L152 1293 C147 1308 142 1319 137 1326 C127 1338 113 1344 94 1344 L70 1344 C57 1344 51 1339 51 1328 C51 1324 51 1321 52 1319 L103 1117 C86 1096 78 1072 78 1045 L78 282 C78 256 85 233 100 214 L52 23 C51 21 51 18 51 15 C51 5 58 0 72 0 L98 0 C125 0 147 20 154 48 L179 153 C196 146 216 142 241 142 L241 142 Z M243 239 C206 239 189 257 189 286 L189 1041 C189 1070 205 1089 242 1089 C278 1089 296 1069 296 1042 L296 286 C296 259 279 239 243 239 L243 239 Z " />
<glyph glyph-name="yen" unicode="&#xa5;" horiz-adv-x="488" d="M92 378 C79 378 72 372 72 361 L72 341 C72 309 92 287 119 287 L180 287 L180 29 C180 10 189 0 208 0 L280 0 C299 0 309 10 309 29 L309 287 L370 287 C398 287 417 309 417 341 L417 361 C417 372 411 378 398 378 L309 378 L309 445 L370 445 C398 445 417 467 417 499 L417 518 C417 530 411 536 398 536 L323 536 L437 1317 C440 1335 433 1344 414 1344 L364 1344 C336 1344 307 1324 304 1296 L244 657 L184 1296 C181 1324 152 1344 124 1344 L74 1344 C55 1344 48 1335 51 1317 L165 536 L92 536 C79 536 72 530 72 518 L72 499 C72 467 92 445 119 445 L179 445 L180 439 L180 378 L92 378 Z " />
<glyph glyph-name="brokenbar" unicode="&#xa6;" horiz-adv-x="230" d="M51 733 C51 712 55 706 75 706 L130 706 C157 706 180 727 180 754 L180 1401 C180 1429 157 1450 129 1450 L73 1450 C54 1450 51 1445 51 1428 L51 733 Z M179 619 C179 636 176 641 157 641 L101 641 C73 641 50 620 50 592 L50 -55 C50 -82 73 -103 100 -103 L155 -103 C175 -103 179 -97 179 -76 L179 619 Z " />
<glyph glyph-name="section" unicode="&#xa7;" horiz-adv-x="473" d="M237 -19 C294 -19 339 -4 373 27 C405 55 423 96 423 141 C423 211 415 272 399 323 C384 366 365 404 340 439 C393 466 423 515 423 575 C423 662 410 736 385 795 C364 844 338 879 301 923 C278 950 260 971 249 985 C238 999 227 1015 217 1034 C192 1080 179 1135 179 1199 C179 1227 200 1250 237 1250 C274 1250 294 1228 294 1199 L294 1085 C294 1074 300 1064 311 1055 C319 1049 329 1046 342 1046 L400 1046 C415 1046 423 1053 423 1066 L423 1203 C423 1248 405 1288 373 1317 C337 1348 291 1363 236 1363 L235 1363 C179 1363 134 1348 100 1318 C68 1289 50 1248 50 1203 C50 1136 59 1076 78 1025 C91 987 112 949 141 910 C82 883 50 833 50 769 C50 709 56 659 68 620 C89 551 123 490 172 437 C193 414 213 389 231 363 C271 304 294 240 294 145 C294 116 274 95 237 95 C200 95 179 117 179 145 L179 263 C179 287 155 301 131 301 L73 301 C58 301 51 294 51 281 L51 141 C51 96 68 55 100 27 C134 -4 180 -19 237 -19 L237 -19 Z M179 765 C179 786 193 807 218 814 C243 781 261 749 272 718 C287 678 294 632 294 579 C294 559 283 541 262 533 C235 566 215 598 203 627 C187 666 179 712 179 765 L179 765 Z " />
<glyph glyph-name="dieresis" unicode="&#xa8;" horiz-adv-x="332" d="M87 1328 C50 1328 30 1303 30 1263 C30 1223 50 1198 87 1198 C126 1198 147 1223 147 1263 C147 1303 126 1328 87 1328 L87 1328 Z M246 1328 C207 1328 188 1303 188 1263 C188 1223 207 1198 246 1198 C285 1198 305 1223 305 1263 C305 1303 285 1328 246 1328 L246 1328 Z " />
<glyph glyph-name="copyright" unicode="&#xa9;" horiz-adv-x="884" d="M444 -197 C556 -197 649 -165 716 -105 C783 -44 820 45 820 156 L820 977 C820 1085 784 1175 719 1236 C654 1297 559 1332 444 1332 C329 1332 234 1298 167 1237 C100 1176 64 1085 64 977 L64 156 C64 45 101 -44 169 -105 C236 -165 329 -197 444 -197 L444 -197 Z M143 969 C143 1059 170 1129 224 1179 C276 1228 346 1252 435 1252 C630 1252 742 1148 742 969 L742 170 C742 -17 643 -119 444 -119 C243 -119 143 -17 143 170 L143 969 Z M440 -6 C496 -6 545 11 578 40 C611 68 629 108 629 153 L629 478 C629 491 622 497 607 497 L548 497 C535 497 525 494 517 489 C506 482 500 472 500 459 L500 157 C500 133 483 112 454 107 L443 107 C404 107 384 129 384 157 L384 976 C384 1005 405 1027 442 1027 C479 1027 500 1005 500 976 L500 664 C500 639 525 626 549 626 L607 626 C622 626 629 632 629 645 L629 979 C629 1024 611 1065 579 1094 C546 1123 497 1140 441 1140 C385 1140 338 1123 305 1094 C273 1065 255 1024 255 979 L255 153 C255 108 273 68 305 40 C337 11 385 -6 440 -6 L440 -6 Z " />
<glyph glyph-name="ordfeminine" unicode="&#xaa;" horiz-adv-x="425" d="M289 1328 C287 1344 278 1352 262 1352 L163 1352 C146 1352 137 1344 136 1328 L52 642 C51 640 51 637 51 634 C51 625 55 622 70 622 L112 622 C136 622 158 640 161 664 L170 768 L254 768 L264 664 C265 640 289 622 314 622 L355 622 C372 622 376 627 373 642 L289 1328 Z M214 1201 L247 843 L177 843 L211 1198 L214 1201 Z M71 581 C58 581 51 576 51 567 L51 548 C51 520 67 506 98 506 L326 506 C357 506 373 520 373 548 L373 567 C373 576 367 581 354 581 L71 581 Z " />
<glyph glyph-name="guillemotleft" unicode="&#xab;" horiz-adv-x="509" d="M292 787 C292 792 285 795 277 795 L228 795 C207 795 185 780 176 764 L61 555 L176 347 C185 331 207 315 228 315 L277 315 C286 315 294 321 291 326 L158 555 L291 784 L292 787 Z M470 787 C470 792 463 795 455 795 L406 795 C385 795 363 780 354 764 L239 555 L354 347 C363 331 385 315 406 315 L455 315 C464 315 472 321 469 326 L336 555 L469 784 L470 787 Z " />
<glyph glyph-name="logicalnot" unicode="&#xac;" horiz-adv-x="550" d="M390 591 C390 557 393 530 400 511 C409 486 423 473 443 473 L476 473 C495 473 500 483 500 500 L500 675 C500 698 495 702 475 702 L148 702 C117 702 95 699 80 692 C60 683 50 669 50 649 L50 615 C50 596 60 591 77 591 L390 591 Z " />
<glyph glyph-name="uni00AD" unicode="&#xad;" horiz-adv-x="632" d="M94 593 C66 593 46 571 46 542 L46 500 C46 481 55 476 70 476 L537 476 C568 476 587 501 587 534 L587 571 C587 590 581 593 564 593 L94 593 Z " />
<glyph glyph-name="registered" unicode="&#xae;" horiz-adv-x="868" d="M444 -197 C556 -197 649 -165 716 -105 C783 -44 820 45 820 156 L820 977 C820 1085 784 1175 719 1236 C654 1297 559 1332 444 1332 C327 1332 230 1298 165 1237 C100 1176 64 1085 64 977 L64 156 C64 45 101 -44 169 -105 C236 -165 329 -197 444 -197 L444 -197 Z M143 969 C143 1150 250 1252 435 1252 C630 1252 742 1148 742 969 L742 170 C742 -17 643 -119 444 -119 C243 -119 143 -17 143 170 L143 969 Z M335 24 C367 24 385 32 385 57 L385 467 L442 467 C479 467 500 445 500 416 L500 57 C500 32 519 24 551 24 L606 24 C625 24 629 29 629 48 L629 414 C629 463 608 498 567 518 C611 545 629 599 629 659 L629 973 C629 1014 614 1053 585 1084 C552 1118 505 1135 444 1135 C373 1135 322 1126 291 1109 C268 1096 256 1077 256 1054 L256 48 C256 29 260 24 279 24 L335 24 Z M442 1024 C479 1024 500 1002 500 973 L500 660 C500 637 497 619 490 606 C481 587 466 578 447 578 L385 578 L385 1016 L408 1020 C419 1023 430 1024 442 1024 L442 1024 Z " />
<glyph glyph-name="overscore" unicode="&#xaf;" horiz-adv-x="417" d="M87 1284 C74 1284 68 1278 68 1266 L68 1247 C68 1215 87 1193 115 1193 L290 1193 C318 1193 337 1215 337 1247 L337 1266 C337 1277 329 1284 318 1284 L87 1284 Z " />
<glyph glyph-name="degree" unicode="&#xb0;" horiz-adv-x="296" d="M268 1222 C268 1306 222 1355 146 1355 C73 1355 27 1305 27 1222 C27 1139 74 1088 146 1088 C222 1088 268 1138 268 1222 L268 1222 Z M104 1223 C107 1259 121 1277 146 1277 C171 1277 188 1260 189 1223 C189 1186 171 1168 146 1168 C121 1168 104 1186 104 1223 L104 1223 Z " />
<glyph glyph-name="plusminus" unicode="&#xb1;" horiz-adv-x="467" d="M325 674 C384 674 425 693 425 733 L425 761 C425 784 418 786 391 786 L290 786 L290 822 C290 851 286 874 279 891 C270 912 256 922 236 922 L204 922 C180 922 177 910 177 886 L177 786 L142 786 C112 786 89 783 73 776 C52 767 42 753 42 733 L42 700 C42 676 53 674 77 674 L177 674 L177 639 C177 610 182 586 191 568 C202 548 214 538 237 538 L267 538 C286 538 290 543 290 560 L290 674 L325 674 Z M107 487 C70 487 50 465 50 434 L50 399 C50 380 59 375 74 375 L359 375 C396 375 417 403 417 434 L417 465 C417 484 411 487 394 487 L107 487 Z " />
<glyph glyph-name="uni00B2" unicode="&#xb2;" horiz-adv-x="420" d="M361 638 C374 638 381 645 381 660 L381 676 C381 713 364 732 329 732 L194 732 C245 815 282 882 307 933 C350 1020 372 1081 372 1118 L372 1223 C372 1264 360 1296 335 1321 C306 1350 265 1364 211 1364 C157 1364 115 1350 85 1321 C58 1296 46 1260 46 1223 L46 1081 C46 1066 50 1062 66 1062 L112 1062 C136 1062 155 1080 155 1104 L155 1219 C155 1248 172 1267 209 1267 C245 1267 263 1247 263 1220 L263 1124 C263 1107 258 1086 247 1061 C226 1010 194 949 153 879 C116 816 85 760 60 712 C49 691 43 676 43 667 C43 651 53 638 72 638 L361 638 Z " />
<glyph glyph-name="uni00B3" unicode="&#xb3;" horiz-adv-x="420" d="M210 946 C247 946 264 928 264 901 L264 759 C264 734 247 713 211 713 C175 713 157 732 157 759 L157 814 C157 839 137 857 113 857 L67 857 C51 857 48 853 48 837 L48 756 C48 719 60 687 83 662 C111 632 153 617 208 617 C263 617 306 634 334 662 C359 687 372 721 372 756 L372 895 C372 939 355 969 315 988 C356 1007 372 1036 372 1079 L372 1223 C372 1264 360 1296 335 1321 C306 1350 265 1364 212 1364 C157 1364 116 1350 87 1321 C62 1296 48 1260 48 1223 L48 1125 C48 1112 51 1107 67 1107 L113 1107 C137 1107 157 1125 157 1148 L157 1220 C157 1251 175 1267 210 1267 C247 1267 264 1248 264 1220 L264 1078 C264 1053 247 1032 211 1032 L164 1032 C148 1032 145 1030 145 1014 L145 987 C145 964 163 946 187 946 L210 946 Z " />
<glyph glyph-name="acute" unicode="&#xb4;" horiz-adv-x="253" d="M47 1214 C47 1202 54 1196 67 1196 L84 1196 C113 1196 125 1211 138 1246 L194 1412 C197 1421 199 1428 199 1434 C199 1454 184 1464 155 1464 L121 1464 C105 1464 92 1454 89 1441 L48 1220 L47 1214 Z " />
<glyph glyph-name="paragraph" unicode="&#xb6;" horiz-adv-x="662" d="M421 1320 C421 1328 420 1333 418 1336 C415 1342 406 1345 391 1345 C386 1344 378 1344 365 1344 L232 1344 C163 1344 113 1317 82 1264 C59 1224 48 1168 48 1095 L48 708 C48 645 62 597 90 564 C123 524 171 504 236 504 L292 504 L292 -54 C292 -82 315 -104 342 -104 L397 -104 C416 -104 421 -97 421 -80 L421 1320 Z M612 1295 C612 1323 588 1344 560 1344 L505 1344 C486 1344 482 1339 482 1320 L482 -80 C482 -97 486 -104 505 -104 L560 -104 C588 -104 612 -82 612 -54 L612 1295 Z " />
<glyph glyph-name="middot" unicode="&#xb7;" horiz-adv-x="219" d="M109 676 C57 676 30 650 30 609 C30 568 57 542 109 542 C162 542 189 566 189 609 C189 652 162 676 109 676 L109 676 Z " />
<glyph glyph-name="cedilla" unicode="&#xb8;" horiz-adv-x="322" d="M93 -246 C93 -255 107 -260 134 -260 C174 -260 204 -254 225 -241 C250 -226 262 -201 262 -166 C262 -130 253 -106 234 -77 C226 -66 200 -28 204 2 C204 9 199 12 190 12 L144 12 C129 12 123 10 123 -2 C123 -23 126 -43 131 -61 C138 -80 149 -106 166 -138 C171 -147 173 -156 173 -165 C173 -171 171 -175 167 -178 C160 -183 150 -186 137 -186 L124 -186 C107 -186 92 -193 92 -209 L93 -246 Z " />
<glyph glyph-name="uni00B9" unicode="&#xb9;" horiz-adv-x="369" d="M32 1305 C23 1302 18 1298 18 1291 L20 1279 L25 1262 C33 1235 47 1221 66 1221 C71 1221 77 1222 82 1224 C87 1225 91 1227 95 1228 L109 1231 L109 728 L74 728 C38 728 20 714 20 675 L20 659 C20 642 25 637 40 637 L287 637 C300 637 306 644 306 659 L306 675 C306 715 291 728 252 728 L217 728 L217 1315 C217 1334 207 1344 188 1344 L171 1344 C161 1344 148 1341 131 1335 L32 1305 Z " />
<glyph glyph-name="ordmasculine" unicode="&#xba;" horiz-adv-x="426" d="M210 613 C265 613 307 628 337 658 C364 685 376 718 376 753 L376 1222 C376 1262 363 1295 338 1320 C309 1349 267 1364 213 1364 C159 1364 117 1350 87 1321 C60 1296 48 1259 48 1222 L48 753 C48 718 60 685 84 658 C112 628 154 613 210 613 L210 613 Z M213 710 C176 710 158 729 158 757 L158 1218 C158 1247 175 1266 212 1266 C248 1266 266 1246 266 1219 L266 757 C266 730 249 710 213 710 L213 710 Z M88 562 C75 562 68 559 68 548 L68 529 C68 501 84 487 116 487 L307 487 C338 487 354 501 354 529 L354 548 C354 559 347 562 335 562 L88 562 Z " />
<glyph glyph-name="guillemotright" unicode="&#xbb;" horiz-adv-x="509" d="M60 323 C60 318 67 315 75 315 L124 315 C145 315 167 330 176 346 L291 555 L176 763 C167 779 145 795 124 795 L75 795 C66 795 58 789 61 784 L194 555 L61 326 L60 323 Z M238 323 C238 318 245 315 253 315 L302 315 C323 315 345 330 354 346 L469 555 L354 763 C345 779 323 795 302 795 L253 795 C244 795 236 789 239 784 L372 555 L239 326 L238 323 Z " />
<glyph glyph-name="onequarter" unicode="&#xbc;" horiz-adv-x="860" d="M62 1305 C53 1302 48 1298 48 1291 L50 1279 L55 1262 C63 1235 77 1221 96 1221 C101 1221 107 1222 112 1224 C117 1225 121 1227 125 1228 L139 1231 L139 728 L104 728 C68 728 50 714 50 675 L50 659 C50 642 55 637 70 637 L317 637 C330 637 336 644 336 659 L336 675 C336 715 321 728 282 728 L247 728 L247 1315 C247 1334 237 1344 218 1344 L201 1344 C191 1344 178 1341 161 1335 L62 1305 Z M233 23 C232 21 232 18 232 14 C232 3 238 0 254 0 L296 0 C323 0 345 20 352 48 L628 1319 C629 1321 629 1324 629 1327 C629 1338 623 1344 610 1344 L569 1344 C550 1344 536 1338 527 1326 C522 1320 516 1309 511 1293 L233 23 Z M808 438 C808 453 805 457 789 457 L757 457 C718 457 699 435 699 391 L699 231 L585 231 L679 698 L679 701 C679 713 674 719 663 719 L619 719 C602 719 588 711 579 695 C571 680 567 658 566 653 L462 156 L461 151 C461 142 468 137 481 137 L699 137 L699 67 C699 50 702 35 708 22 C715 7 726 0 743 0 L787 0 C804 0 808 5 808 24 L808 438 Z " />
<glyph glyph-name="onehalf" unicode="&#xbd;" horiz-adv-x="898" d="M62 1305 C53 1302 48 1298 48 1291 L50 1279 L55 1262 C63 1235 77 1221 96 1221 C101 1221 107 1222 112 1224 C117 1225 121 1227 125 1228 L139 1231 L139 728 L104 728 C68 728 50 714 50 675 L50 659 C50 642 55 637 70 637 L317 637 C330 637 336 644 336 659 L336 675 C336 715 321 728 282 728 L247 728 L247 1315 C247 1334 237 1344 218 1344 L201 1344 C191 1344 178 1341 161 1335 L62 1305 Z M233 23 C232 21 232 18 232 14 C232 3 238 0 254 0 L296 0 C323 0 345 20 352 48 L628 1319 C629 1321 629 1324 629 1327 C629 1338 623 1344 610 1344 L569 1344 C550 1344 536 1338 527 1326 C522 1320 516 1309 511 1293 L233 23 Z M832 1 C845 1 852 8 852 23 L852 39 C852 76 835 95 800 95 L665 95 C716 178 753 245 778 296 C821 383 843 444 843 481 L843 586 C843 627 831 659 806 684 C777 713 736 727 682 727 C628 727 586 713 556 684 C529 659 517 623 517 586 L517 444 C517 429 521 425 537 425 L583 425 C607 425 626 443 626 467 L626 582 C626 611 643 630 680 630 C716 630 734 610 734 583 L734 487 C734 470 729 449 718 424 C697 373 665 312 624 242 C587 179 556 123 531 75 C520 54 514 39 514 30 C514 14 524 1 543 1 L832 1 Z " />
<glyph glyph-name="threequarters" unicode="&#xbe;" horiz-adv-x="1113" d="M210 946 C247 946 264 928 264 901 L264 759 C264 734 247 713 211 713 C175 713 157 732 157 759 L157 814 C157 839 137 857 113 857 L67 857 C51 857 48 853 48 837 L48 756 C48 719 60 687 83 662 C111 632 153 617 208 617 C263 617 306 634 334 662 C359 687 372 721 372 756 L372 895 C372 939 355 969 315 988 C356 1007 372 1036 372 1079 L372 1223 C372 1264 360 1296 335 1321 C306 1350 265 1364 212 1364 C157 1364 116 1350 87 1321 C62 1296 48 1260 48 1223 L48 1125 C48 1112 51 1107 67 1107 L113 1107 C137 1107 157 1125 157 1148 L157 1220 C157 1251 175 1267 210 1267 C247 1267 264 1248 264 1220 L264 1078 C264 1053 247 1032 211 1032 L164 1032 C148 1032 145 1030 145 1014 L145 987 C145 964 163 946 187 946 L210 946 Z M262 23 C261 21 261 18 261 14 C261 3 267 0 283 0 L325 0 C352 0 374 20 381 48 L657 1319 C658 1321 658 1324 658 1327 C658 1338 652 1344 639 1344 L598 1344 C579 1344 565 1338 556 1326 C551 1320 545 1309 540 1293 L262 23 Z M837 438 C837 453 834 457 818 457 L786 457 C747 457 728 435 728 391 L728 231 L614 231 L708 698 L708 701 C708 713 703 719 692 719 L648 719 C631 719 617 711 608 695 C600 680 596 658 595 653 L491 156 L490 151 C490 142 497 137 510 137 L728 137 L728 67 C728 50 731 35 737 22 C744 7 755 0 772 0 L816 0 C833 0 837 5 837 24 L837 438 Z " />
<glyph glyph-name="questiondown" unicode="&#xbf;" horiz-adv-x="473" d="M253 1016 C305 1016 332 1042 332 1083 C332 1124 305 1150 253 1150 C200 1150 173 1126 173 1083 C173 1040 200 1016 253 1016 L253 1016 Z M255 909 C232 909 214 888 201 845 C192 816 187 775 186 722 C185 673 181 630 174 594 C162 529 146 476 119 403 C108 374 98 342 89 307 C68 230 55 139 52 34 C51 -23 55 -74 65 -119 C85 -186 146 -228 235 -228 C305 -228 355 -202 386 -150 C411 -109 423 -54 423 15 L423 210 C423 223 415 230 400 230 L342 230 C318 230 294 216 294 192 L294 -63 C294 -92 273 -114 236 -114 C199 -114 178 -91 178 -63 C178 4 181 60 188 106 C198 182 217 266 245 359 C257 401 268 443 277 484 C300 592 311 709 310 834 L310 885 C310 901 302 909 287 909 L255 909 Z " />
<glyph glyph-name="Agrave" unicode="&#xc0;" horiz-adv-x="432" d="M193 1648 C190 1661 178 1671 162 1671 L127 1671 C97 1671 82 1661 82 1641 C82 1635 84 1628 87 1619 L144 1453 C157 1418 169 1403 198 1403 L215 1403 C230 1403 237 1412 234 1427 L193 1648 Z M304 1316 C301 1339 291 1344 266 1344 L165 1344 C140 1344 129 1339 126 1316 L16 23 L16 17 C16 5 21 0 37 0 L98 0 C126 0 146 20 147 48 L159 230 L271 230 L283 48 C284 20 305 0 333 0 L394 0 C413 0 415 4 414 23 L304 1316 Z M266 337 L164 337 L215 1155 L266 337 Z " />
<glyph glyph-name="Aacute" unicode="&#xc1;" horiz-adv-x="432" d="M172 1421 C172 1409 179 1403 192 1403 L209 1403 C238 1403 250 1418 263 1453 L319 1619 C322 1628 324 1635 324 1641 C324 1661 309 1671 280 1671 L246 1671 C230 1671 217 1661 214 1648 L173 1427 L172 1421 Z M304 1316 C301 1339 291 1344 266 1344 L165 1344 C140 1344 129 1339 126 1316 L16 23 L16 17 C16 5 21 0 37 0 L98 0 C126 0 146 20 147 48 L159 230 L271 230 L283 48 C284 20 305 0 333 0 L394 0 C413 0 415 4 414 23 L304 1316 Z M266 337 L164 337 L215 1155 L266 337 Z " />
<glyph glyph-name="Acircumflex" unicode="&#xc2;" horiz-adv-x="432" d="M262 1659 C261 1666 253 1672 246 1672 L164 1672 C156 1672 151 1668 148 1659 L80 1415 L79 1412 C79 1407 86 1402 93 1402 L140 1402 C161 1402 174 1413 177 1435 L205 1611 L233 1435 C236 1415 250 1402 270 1402 L318 1402 C326 1402 332 1407 331 1415 L262 1659 Z M304 1316 C301 1339 291 1344 266 1344 L165 1344 C140 1344 129 1339 126 1316 L16 23 L16 17 C16 5 21 0 37 0 L98 0 C126 0 146 20 147 48 L159 230 L271 230 L283 48 C284 20 305 0 333 0 L394 0 C413 0 415 4 414 23 L304 1316 Z M266 337 L164 337 L215 1155 L266 337 Z " />
<glyph glyph-name="Atilde" unicode="&#xc3;" horiz-adv-x="432" d="M268 1430 C282 1430 295 1427 307 1421 C308 1420 319 1411 336 1411 C351 1411 360 1417 360 1432 L360 1451 C360 1476 350 1495 329 1508 C312 1518 289 1523 260 1523 C236 1523 221 1518 200 1507 C179 1496 166 1491 147 1491 C130 1491 122 1495 110 1500 C107 1501 97 1509 80 1509 C65 1509 58 1502 58 1488 L58 1468 C58 1443 68 1425 88 1414 C106 1403 129 1397 157 1397 C175 1397 194 1403 214 1414 C234 1425 249 1430 268 1430 L268 1430 Z M304 1316 C301 1339 291 1344 266 1344 L165 1344 C140 1344 129 1339 126 1316 L16 23 L16 17 C16 5 21 0 37 0 L98 0 C126 0 146 20 147 48 L159 230 L271 230 L283 48 C284 20 305 0 333 0 L394 0 C413 0 415 4 414 23 L304 1316 Z M266 337 L164 337 L215 1155 L266 337 Z " />
<glyph glyph-name="Adieresis" unicode="&#xc4;" horiz-adv-x="432" d="M126 1535 C89 1535 69 1510 69 1470 C69 1430 89 1405 126 1405 C165 1405 186 1430 186 1470 C186 1510 165 1535 126 1535 L126 1535 Z M285 1535 C246 1535 227 1510 227 1470 C227 1430 246 1405 285 1405 C324 1405 344 1430 344 1470 C344 1510 324 1535 285 1535 L285 1535 Z M304 1316 C301 1339 291 1344 266 1344 L165 1344 C140 1344 129 1339 126 1316 L16 23 L16 17 C16 5 21 0 37 0 L98 0 C126 0 146 20 147 48 L159 230 L271 230 L283 48 C284 20 305 0 333 0 L394 0 C413 0 415 4 414 23 L304 1316 Z M266 337 L164 337 L215 1155 L266 337 Z " />
<glyph glyph-name="Aring" unicode="&#xc5;" horiz-adv-x="432" d="M204 1615 C125 1615 80 1577 80 1508 C80 1439 125 1399 204 1399 C284 1399 330 1439 330 1508 C330 1577 284 1615 204 1615 L204 1615 Z M204 1468 C176 1468 162 1481 162 1508 C162 1535 176 1549 204 1549 C232 1549 247 1533 247 1508 C247 1481 233 1468 204 1468 L204 1468 Z M304 1316 C301 1339 291 1344 266 1344 L165 1344 C140 1344 129 1339 126 1316 L16 23 L16 17 C16 5 21 0 37 0 L98 0 C126 0 146 20 147 48 L159 230 L271 230 L283 48 C284 20 305 0 333 0 L394 0 C413 0 415 4 414 23 L304 1316 Z M266 337 L164 337 L215 1155 L266 337 Z " />
<glyph glyph-name="AE" unicode="&#xc6;" horiz-adv-x="612" d="M17 23 C16 3 19 0 42 0 L102 0 C130 0 150 23 153 54 L177 230 L288 230 L288 24 C288 5 294 0 318 0 L565 0 C580 0 588 9 588 26 L588 45 C588 89 561 111 507 111 L417 111 L417 610 L509 610 C548 610 569 633 569 676 L569 696 C569 713 561 721 545 721 L417 721 L417 1233 L528 1233 C567 1233 588 1256 588 1299 L588 1318 C588 1335 580 1344 565 1344 L303 1344 L280 1344 C274 1344 268 1343 261 1342 C248 1338 242 1331 241 1316 L17 23 Z M288 1088 L288 337 L196 337 L288 1088 Z " />
<glyph glyph-name="Ccedilla" unicode="&#xc7;" horiz-adv-x="473" d="M405 758 C420 758 427 765 427 778 L427 1204 C427 1248 409 1288 377 1317 C342 1348 297 1364 242 1364 C186 1364 138 1347 105 1318 C72 1289 54 1249 54 1204 L54 141 C54 96 72 55 104 27 C128 6 157 -8 190 -14 C191 -30 193 -46 198 -61 C205 -80 216 -106 233 -138 C238 -147 240 -156 240 -165 C240 -171 238 -175 234 -178 C227 -183 217 -186 204 -186 L191 -186 C174 -186 159 -193 159 -209 L160 -246 C160 -255 174 -260 201 -260 C241 -260 271 -254 292 -241 C317 -226 329 -201 329 -166 C329 -130 320 -106 301 -77 C294 -63 277 -42 273 -17 C315 -12 350 2 377 27 C409 55 427 96 427 141 L427 566 C427 579 419 585 404 585 L346 585 C333 585 323 582 315 577 C304 570 298 560 298 547 L298 145 C298 118 281 95 241 95 C202 95 183 116 183 145 L183 1199 C183 1228 203 1250 240 1250 C277 1250 299 1228 299 1199 L299 796 C299 772 323 758 347 758 L405 758 Z " />
<glyph glyph-name="Egrave" unicode="&#xc8;" horiz-adv-x="385" d="M187 1648 C184 1661 172 1671 156 1671 L121 1671 C91 1671 76 1661 76 1641 C76 1635 78 1628 81 1619 L138 1453 C151 1418 163 1403 192 1403 L209 1403 C224 1403 231 1412 228 1427 L187 1648 Z M73 1344 C54 1344 50 1339 50 1320 L50 24 C50 4 55 0 79 0 L326 0 C341 0 349 9 349 26 L349 45 C349 89 327 111 290 111 L179 111 L179 610 L271 610 C308 610 330 633 330 676 L330 696 C330 713 322 721 307 721 L179 721 L179 1233 L290 1233 C327 1233 349 1256 349 1299 L349 1318 C349 1335 341 1344 326 1344 L73 1344 Z " />
<glyph glyph-name="Eacute" unicode="&#xc9;" horiz-adv-x="385" d="M150 1421 C150 1409 157 1403 170 1403 L187 1403 C216 1403 228 1418 241 1453 L297 1619 C300 1628 302 1635 302 1641 C302 1661 287 1671 258 1671 L224 1671 C208 1671 195 1661 192 1648 L151 1427 L150 1421 Z M73 1344 C54 1344 50 1339 50 1320 L50 24 C50 4 55 0 79 0 L326 0 C341 0 349 9 349 26 L349 45 C349 89 327 111 290 111 L179 111 L179 610 L271 610 C308 610 330 633 330 676 L330 696 C330 713 322 721 307 721 L179 721 L179 1233 L290 1233 C327 1233 349 1256 349 1299 L349 1318 C349 1335 341 1344 326 1344 L73 1344 Z " />
<glyph glyph-name="Ecircumflex" unicode="&#xca;" horiz-adv-x="385" d="M249 1659 C248 1666 240 1672 233 1672 L151 1672 C143 1672 138 1668 135 1659 L67 1415 L66 1412 C66 1407 73 1402 80 1402 L127 1402 C148 1402 161 1413 164 1435 L192 1611 L220 1435 C223 1415 237 1402 257 1402 L305 1402 C313 1402 319 1407 318 1415 L249 1659 Z M73 1344 C54 1344 50 1339 50 1320 L50 24 C50 4 55 0 79 0 L326 0 C341 0 349 9 349 26 L349 45 C349 89 327 111 290 111 L179 111 L179 610 L271 610 C308 610 330 633 330 676 L330 696 C330 713 322 721 307 721 L179 721 L179 1233 L290 1233 C327 1233 349 1256 349 1299 L349 1318 C349 1335 341 1344 326 1344 L73 1344 Z " />
<glyph glyph-name="Edieresis" unicode="&#xcb;" horiz-adv-x="385" d="M112 1535 C75 1535 55 1510 55 1470 C55 1430 75 1405 112 1405 C151 1405 172 1430 172 1470 C172 1510 151 1535 112 1535 L112 1535 Z M271 1535 C232 1535 213 1510 213 1470 C213 1430 232 1405 271 1405 C310 1405 330 1430 330 1470 C330 1510 310 1535 271 1535 L271 1535 Z M73 1344 C54 1344 50 1339 50 1320 L50 24 C50 4 55 0 79 0 L326 0 C341 0 349 9 349 26 L349 45 C349 89 327 111 290 111 L179 111 L179 610 L271 610 C308 610 330 633 330 676 L330 696 C330 713 322 721 307 721 L179 721 L179 1233 L290 1233 C327 1233 349 1256 349 1299 L349 1318 C349 1335 341 1344 326 1344 L73 1344 Z " />
<glyph glyph-name="Igrave" unicode="&#xcc;" horiz-adv-x="229" d="M108 1648 C105 1661 93 1671 77 1671 L42 1671 C12 1671 -3 1661 -3 1641 C-3 1635 -1 1628 2 1619 L59 1453 C72 1418 84 1403 113 1403 L130 1403 C145 1403 152 1412 149 1427 L108 1648 Z M179 1321 C179 1338 175 1344 156 1344 L101 1344 C73 1344 50 1323 50 1294 L50 29 C50 10 59 0 78 0 L150 0 C169 0 179 10 179 29 L179 1321 Z " />
<glyph glyph-name="Iacute" unicode="&#xcd;" horiz-adv-x="229" d="M86 1421 C86 1409 93 1403 106 1403 L123 1403 C152 1403 164 1418 177 1453 L233 1619 C236 1628 238 1635 238 1641 C238 1661 223 1671 194 1671 L160 1671 C144 1671 131 1661 128 1648 L87 1427 L86 1421 Z M179 1321 C179 1338 175 1344 156 1344 L101 1344 C73 1344 50 1323 50 1294 L50 29 C50 10 59 0 78 0 L150 0 C169 0 179 10 179 29 L179 1321 Z " />
<glyph glyph-name="Icircumflex" unicode="&#xce;" horiz-adv-x="229" d="M171 1659 C170 1666 162 1672 155 1672 L73 1672 C65 1672 60 1668 57 1659 L-11 1415 L-12 1412 C-12 1407 -5 1402 2 1402 L49 1402 C70 1402 83 1413 86 1435 L114 1611 L142 1435 C145 1415 159 1402 179 1402 L227 1402 C235 1402 241 1407 240 1415 L171 1659 Z M179 1321 C179 1338 175 1344 156 1344 L101 1344 C73 1344 50 1323 50 1294 L50 29 C50 10 59 0 78 0 L150 0 C169 0 179 10 179 29 L179 1321 Z " />
<glyph glyph-name="Idieresis" unicode="&#xcf;" horiz-adv-x="229" d="M34 1535 C-3 1535 -23 1510 -23 1470 C-23 1430 -3 1405 34 1405 C73 1405 94 1430 94 1470 C94 1510 73 1535 34 1535 L34 1535 Z M193 1535 C156 1535 135 1510 135 1470 C135 1430 156 1405 193 1405 C232 1405 252 1430 252 1470 C252 1510 232 1535 193 1535 L193 1535 Z M179 1321 C179 1338 175 1344 156 1344 L101 1344 C73 1344 50 1323 50 1294 L50 29 C50 10 59 0 78 0 L150 0 C169 0 179 10 179 29 L179 1321 Z " />
<glyph glyph-name="Eth" unicode="&#xd0;" horiz-adv-x="473" d="M234 0 C351 0 423 59 423 162 L423 1183 C423 1226 407 1267 378 1295 C343 1328 297 1344 238 1344 L73 1344 C54 1344 50 1339 50 1320 L50 700 L-4 700 C-17 700 -23 694 -23 682 L-23 650 C-23 618 -4 596 24 596 L50 596 L50 24 C50 4 55 0 78 0 L234 0 Z M179 596 L237 596 C252 596 262 610 262 626 L262 682 C262 694 256 700 243 700 L179 700 L179 1233 L236 1233 C273 1233 294 1211 294 1182 L294 162 C294 134 274 111 241 111 L179 111 L179 596 Z " />
<glyph glyph-name="Ntilde" unicode="&#xd1;" horiz-adv-x="465" d="M294 1430 C308 1430 321 1427 333 1421 C334 1420 345 1411 362 1411 C377 1411 386 1417 386 1432 L386 1451 C386 1476 376 1495 355 1508 C338 1518 315 1523 286 1523 C262 1523 247 1518 226 1507 C205 1496 192 1491 173 1491 C156 1491 148 1495 136 1500 C133 1501 123 1509 106 1509 C91 1509 84 1502 84 1488 L84 1468 C84 1443 94 1425 114 1414 C132 1403 155 1397 183 1397 C201 1397 220 1403 240 1414 C260 1425 275 1430 294 1430 L294 1430 Z M417 1321 C417 1338 413 1344 394 1344 L338 1344 C310 1344 287 1323 288 1294 L306 514 L176 1301 C171 1328 152 1344 127 1344 L71 1344 C52 1344 48 1338 48 1321 L48 24 C48 7 53 0 72 0 L125 0 C154 0 178 20 177 51 L159 831 L288 44 C293 17 313 0 340 0 L393 0 C412 0 417 7 417 24 L417 1321 Z " />
<glyph glyph-name="Ograve" unicode="&#xd2;" horiz-adv-x="469" d="M222 1648 C219 1661 207 1671 191 1671 L156 1671 C126 1671 111 1661 111 1641 C111 1635 113 1628 116 1619 L173 1453 C186 1418 198 1403 227 1403 L244 1403 C259 1403 266 1412 263 1427 L222 1648 Z M48 143 C48 103 63 62 94 33 C128 -1 175 -18 235 -18 C294 -18 341 -1 377 34 C407 64 422 100 422 143 L422 1203 C422 1244 406 1286 375 1314 C343 1345 294 1363 235 1363 C176 1363 128 1345 96 1314 C65 1286 48 1246 48 1203 L48 143 Z M177 1199 C177 1228 196 1250 235 1250 C272 1250 293 1228 293 1199 L293 146 C293 117 273 95 236 95 C197 95 177 117 177 146 L177 1199 Z " />
<glyph glyph-name="Oacute" unicode="&#xd3;" horiz-adv-x="469" d="M202 1421 C202 1409 209 1403 222 1403 L239 1403 C268 1403 280 1418 293 1453 L349 1619 C352 1628 354 1635 354 1641 C354 1661 339 1671 310 1671 L276 1671 C260 1671 247 1661 244 1648 L203 1427 L202 1421 Z M48 143 C48 103 63 62 94 33 C128 -1 175 -18 235 -18 C294 -18 341 -1 377 34 C407 64 422 100 422 143 L422 1203 C422 1244 406 1286 375 1314 C343 1345 294 1363 235 1363 C176 1363 128 1345 96 1314 C65 1286 48 1246 48 1203 L48 143 Z M177 1199 C177 1228 196 1250 235 1250 C272 1250 293 1228 293 1199 L293 146 C293 117 273 95 236 95 C197 95 177 117 177 146 L177 1199 Z " />
<glyph glyph-name="Ocircumflex" unicode="&#xd4;" horiz-adv-x="469" d="M290 1659 C289 1666 281 1672 274 1672 L192 1672 C184 1672 179 1668 176 1659 L108 1415 L107 1412 C107 1407 114 1402 121 1402 L168 1402 C189 1402 202 1413 205 1435 L233 1611 L261 1435 C264 1415 278 1402 298 1402 L346 1402 C354 1402 360 1407 359 1415 L290 1659 Z M48 143 C48 103 63 62 94 33 C128 -1 175 -18 235 -18 C294 -18 341 -1 377 34 C407 64 422 100 422 143 L422 1203 C422 1244 406 1286 375 1314 C343 1345 294 1363 235 1363 C176 1363 128 1345 96 1314 C65 1286 48 1246 48 1203 L48 143 Z M177 1199 C177 1228 196 1250 235 1250 C272 1250 293 1228 293 1199 L293 146 C293 117 273 95 236 95 C197 95 177 117 177 146 L177 1199 Z " />
<glyph glyph-name="Otilde" unicode="&#xd5;" horiz-adv-x="469" d="M296 1440 C310 1440 323 1437 335 1431 C336 1430 347 1421 364 1421 C379 1421 388 1427 388 1442 L388 1461 C388 1486 378 1505 357 1518 C340 1528 317 1533 288 1533 C264 1533 249 1528 228 1517 C207 1506 194 1501 175 1501 C158 1501 150 1505 138 1510 C135 1511 125 1519 108 1519 C93 1519 86 1512 86 1498 L86 1478 C86 1453 96 1435 116 1424 C134 1413 157 1407 185 1407 C203 1407 222 1413 242 1424 C262 1435 277 1440 296 1440 L296 1440 Z M48 143 C48 103 63 62 94 33 C128 -1 175 -18 235 -18 C294 -18 341 -1 377 34 C407 64 422 100 422 143 L422 1203 C422 1244 406 1286 375 1314 C343 1345 294 1363 235 1363 C176 1363 128 1345 96 1314 C65 1286 48 1246 48 1203 L48 143 Z M177 1199 C177 1228 196 1250 235 1250 C272 1250 293 1228 293 1199 L293 146 C293 117 273 95 236 95 C197 95 177 117 177 146 L177 1199 Z " />
<glyph glyph-name="Odieresis" unicode="&#xd6;" horiz-adv-x="469" d="M154 1535 C117 1535 97 1510 97 1470 C97 1430 117 1405 154 1405 C193 1405 214 1430 214 1470 C214 1510 193 1535 154 1535 L154 1535 Z M313 1535 C276 1535 255 1510 255 1470 C255 1430 276 1405 313 1405 C352 1405 372 1430 372 1470 C372 1510 352 1535 313 1535 L313 1535 Z M48 143 C48 103 63 62 94 33 C128 -1 175 -18 235 -18 C294 -18 341 -1 377 34 C407 64 422 100 422 143 L422 1203 C422 1244 406 1286 375 1314 C343 1345 294 1363 235 1363 C176 1363 128 1345 96 1314 C65 1286 48 1246 48 1203 L48 143 Z M177 1199 C177 1228 196 1250 235 1250 C272 1250 293 1228 293 1199 L293 146 C293 117 273 95 236 95 C197 95 177 117 177 146 L177 1199 Z " />
<glyph glyph-name="multiply" unicode="&#xd7;" horiz-adv-x="443" d="M247 535 C264 514 284 500 305 493 C314 490 321 488 327 488 C338 488 349 493 360 502 L383 523 C388 528 391 533 391 538 C391 543 386 552 376 563 L301 642 L333 672 C354 691 369 709 376 727 C379 736 381 743 381 749 C381 760 377 771 368 780 L345 806 C340 812 334 815 328 815 C321 815 312 810 302 800 L225 725 L195 757 C175 779 157 794 140 801 C131 804 123 806 116 806 C105 806 95 802 86 793 L60 770 C52 763 50 755 53 747 C55 742 60 735 67 728 L141 650 L110 620 C89 600 75 580 68 561 C65 552 63 545 63 539 C63 528 68 517 77 506 L98 483 C104 476 109 473 113 473 C118 473 123 476 129 482 L217 566 L247 535 Z " />
<glyph glyph-name="Oslash" unicode="&#xd8;" horiz-adv-x="469" d="M48 143 C48 105 60 72 83 44 L47 -117 C46 -119 46 -122 46 -125 C46 -135 53 -140 67 -140 L89 -140 C116 -140 137 -120 144 -92 L162 -7 C185 -14 210 -18 235 -18 C294 -18 341 -1 377 34 C407 64 422 100 422 143 L422 1203 C422 1236 413 1265 394 1292 L431 1459 C432 1461 432 1464 432 1467 C432 1478 426 1484 413 1484 L393 1484 C374 1484 360 1478 351 1466 C346 1460 340 1449 335 1433 L316 1349 C291 1358 264 1363 235 1363 C176 1363 128 1345 96 1314 C65 1286 48 1246 48 1203 L48 143 Z M177 1199 C177 1228 196 1250 235 1250 C272 1250 293 1228 293 1199 L293 146 C293 117 273 95 236 95 C197 95 177 117 177 146 L177 1199 Z " />
<glyph glyph-name="Ugrave" unicode="&#xd9;" horiz-adv-x="469" d="M220 1648 C217 1661 205 1671 189 1671 L154 1671 C124 1671 109 1661 109 1641 C109 1635 111 1628 114 1619 L171 1453 C184 1418 196 1403 225 1403 L242 1403 C257 1403 264 1412 261 1427 L220 1648 Z M177 1295 C177 1323 154 1344 126 1344 L71 1344 C52 1344 48 1339 48 1320 L48 141 C48 98 64 61 97 30 C132 -3 178 -19 236 -19 C293 -19 340 -2 375 32 C406 61 421 101 421 141 L421 1320 C421 1339 416 1344 397 1344 L342 1344 C314 1344 292 1323 292 1295 L292 145 C292 116 273 95 234 95 C194 95 177 118 177 145 L177 1295 Z " />
<glyph glyph-name="Uacute" unicode="&#xda;" horiz-adv-x="469" d="M200 1421 C200 1409 207 1403 220 1403 L237 1403 C266 1403 278 1418 291 1453 L347 1619 C350 1628 352 1635 352 1641 C352 1661 337 1671 308 1671 L274 1671 C258 1671 245 1661 242 1648 L201 1427 L200 1421 Z M177 1295 C177 1323 154 1344 126 1344 L71 1344 C52 1344 48 1339 48 1320 L48 141 C48 98 64 61 97 30 C132 -3 178 -19 236 -19 C293 -19 340 -2 375 32 C406 61 421 101 421 141 L421 1320 C421 1339 416 1344 397 1344 L342 1344 C314 1344 292 1323 292 1295 L292 145 C292 116 273 95 234 95 C194 95 177 118 177 145 L177 1295 Z " />
<glyph glyph-name="Ucircumflex" unicode="&#xdb;" horiz-adv-x="469" d="M290 1659 C289 1666 281 1672 274 1672 L192 1672 C184 1672 179 1668 176 1659 L108 1415 L107 1412 C107 1407 114 1402 121 1402 L168 1402 C189 1402 202 1413 205 1435 L233 1611 L261 1435 C264 1415 278 1402 298 1402 L346 1402 C354 1402 360 1407 359 1415 L290 1659 Z M177 1295 C177 1323 154 1344 126 1344 L71 1344 C52 1344 48 1339 48 1320 L48 141 C48 98 64 61 97 30 C132 -3 178 -19 236 -19 C293 -19 340 -2 375 32 C406 61 421 101 421 141 L421 1320 C421 1339 416 1344 397 1344 L342 1344 C314 1344 292 1323 292 1295 L292 145 C292 116 273 95 234 95 C194 95 177 118 177 145 L177 1295 Z " />
<glyph glyph-name="Udieresis" unicode="&#xdc;" horiz-adv-x="469" d="M154 1535 C117 1535 97 1510 97 1470 C97 1430 117 1405 154 1405 C193 1405 214 1430 214 1470 C214 1510 193 1535 154 1535 L154 1535 Z M313 1535 C276 1535 255 1510 255 1470 C255 1430 276 1405 313 1405 C352 1405 372 1430 372 1470 C372 1510 352 1535 313 1535 L313 1535 Z M177 1295 C177 1323 154 1344 126 1344 L71 1344 C52 1344 48 1339 48 1320 L48 141 C48 98 64 61 97 30 C132 -3 178 -19 236 -19 C293 -19 340 -2 375 32 C406 61 421 101 421 141 L421 1320 C421 1339 416 1344 397 1344 L342 1344 C314 1344 292 1323 292 1295 L292 145 C292 116 273 95 234 95 C194 95 177 118 177 145 L177 1295 Z " />
<glyph glyph-name="Yacute" unicode="&#xdd;" horiz-adv-x="413" d="M173 1421 C173 1409 180 1403 193 1403 L210 1403 C239 1403 251 1418 264 1453 L320 1619 C323 1628 325 1635 325 1641 C325 1661 310 1671 281 1671 L247 1671 C231 1671 218 1661 215 1648 L174 1427 L173 1421 Z M399 1317 C402 1335 395 1344 376 1344 L326 1344 C298 1344 269 1324 266 1296 L206 657 L146 1296 C143 1324 114 1344 86 1344 L36 1344 C21 1344 13 1338 13 1325 C13 1322 13 1319 14 1317 L142 439 L142 29 C142 10 151 0 170 0 L242 0 C261 0 271 10 271 29 L271 440 L399 1317 Z " />
<glyph glyph-name="Thorn" unicode="&#xde;" horiz-adv-x="449" d="M232 253 C288 253 337 270 370 299 C403 327 421 368 421 413 L421 933 C421 978 403 1019 371 1048 C337 1078 292 1093 236 1093 L177 1093 L177 1284 C177 1321 157 1344 126 1344 L71 1344 C52 1344 48 1339 48 1320 L48 24 C48 5 52 0 71 0 L126 0 C154 0 177 21 177 49 L177 253 L232 253 Z M234 982 C271 982 292 960 292 931 L292 415 C292 387 272 364 239 364 L177 364 L177 982 L234 982 Z " />
<glyph glyph-name="germandbls" unicode="&#xdf;" horiz-adv-x="469" d="M213 1 C213 -15 221 -19 236 -19 C299 -19 347 0 378 32 C406 61 421 100 421 140 L421 572 C421 623 401 658 356 678 C399 695 421 729 421 780 L421 1079 C421 1122 406 1162 377 1191 C344 1224 297 1240 236 1240 C175 1240 128 1224 93 1191 C64 1163 48 1122 48 1079 L48 22 C48 6 52 0 71 0 L126 0 C154 0 177 21 177 49 L177 1075 C177 1106 197 1126 234 1126 C273 1126 292 1104 292 1075 L292 783 C292 750 277 733 248 733 L231 733 C214 733 213 731 213 712 L213 664 C213 633 220 617 245 617 L247 617 C282 617 292 598 292 567 L292 145 C292 117 277 95 240 95 C221 95 213 85 213 52 L213 1 Z " />
<glyph glyph-name="agrave" unicode="&#xe0;" horiz-adv-x="401" d="M188 1447 C185 1460 173 1470 157 1470 L122 1470 C92 1470 77 1460 77 1440 C77 1434 79 1427 82 1418 L139 1252 C152 1217 164 1202 193 1202 L210 1202 C225 1202 232 1211 229 1226 L188 1447 Z M289 1105 C287 1124 277 1133 258 1133 L141 1133 C121 1133 114 1125 111 1105 L12 23 L12 18 C12 5 17 0 33 0 L88 0 C116 0 140 20 143 48 L152 200 L246 200 L256 48 C257 20 283 0 311 0 L366 0 C381 0 387 5 387 14 C387 18 387 21 386 23 L289 1105 Z M200 953 L240 299 L158 299 L199 949 L200 953 Z " />
<glyph glyph-name="aacute" unicode="&#xe1;" horiz-adv-x="401" d="M162 1214 C162 1202 169 1196 182 1196 L199 1196 C228 1196 240 1211 253 1246 L309 1412 C312 1421 314 1428 314 1434 C314 1454 299 1464 270 1464 L236 1464 C220 1464 207 1454 204 1441 L163 1220 L162 1214 Z M289 1105 C287 1124 277 1133 258 1133 L141 1133 C121 1133 114 1125 111 1105 L12 23 L12 18 C12 5 17 0 33 0 L88 0 C116 0 140 20 143 48 L152 200 L246 200 L256 48 C257 20 283 0 311 0 L366 0 C381 0 387 5 387 14 C387 18 387 21 386 23 L289 1105 Z M200 953 L240 299 L158 299 L199 949 L200 953 Z " />
<glyph glyph-name="acircumflex" unicode="&#xe2;" horiz-adv-x="401" d="M256 1452 C255 1459 247 1465 240 1465 L158 1465 C150 1465 145 1461 142 1452 L74 1208 L73 1205 C73 1200 80 1195 87 1195 L134 1195 C155 1195 168 1206 171 1228 L199 1404 L227 1228 C230 1208 244 1195 264 1195 L312 1195 C320 1195 326 1200 325 1208 L256 1452 Z M289 1105 C287 1124 277 1133 258 1133 L141 1133 C121 1133 114 1125 111 1105 L12 23 L12 18 C12 5 17 0 33 0 L88 0 C116 0 140 20 143 48 L152 200 L246 200 L256 48 C257 20 283 0 311 0 L366 0 C381 0 387 5 387 14 C387 18 387 21 386 23 L289 1105 Z M200 953 L240 299 L158 299 L199 949 L200 953 Z " />
<glyph glyph-name="atilde" unicode="&#xe3;" horiz-adv-x="401" d="M262 1223 C276 1223 289 1220 301 1214 C302 1213 313 1204 330 1204 C345 1204 354 1210 354 1225 L354 1244 C354 1269 344 1288 323 1301 C306 1311 283 1316 254 1316 C230 1316 215 1311 194 1300 C173 1289 160 1284 141 1284 C124 1284 116 1288 104 1293 C101 1294 91 1302 74 1302 C59 1302 52 1295 52 1281 L52 1261 C52 1236 62 1218 82 1207 C100 1196 123 1190 151 1190 C169 1190 188 1196 208 1207 C228 1218 243 1223 262 1223 L262 1223 Z M289 1105 C287 1124 277 1133 258 1133 L141 1133 C121 1133 114 1125 111 1105 L12 23 L12 18 C12 5 17 0 33 0 L88 0 C116 0 140 20 143 48 L152 200 L246 200 L256 48 C257 20 283 0 311 0 L366 0 C381 0 387 5 387 14 C387 18 387 21 386 23 L289 1105 Z M200 953 L240 299 L158 299 L199 949 L200 953 Z " />
<glyph glyph-name="adieresis" unicode="&#xe4;" horiz-adv-x="401" d="M120 1328 C83 1328 63 1303 63 1263 C63 1223 83 1198 120 1198 C159 1198 180 1223 180 1263 C180 1303 159 1328 120 1328 L120 1328 Z M279 1328 C240 1328 221 1303 221 1263 C221 1223 240 1198 279 1198 C318 1198 338 1223 338 1263 C338 1303 318 1328 279 1328 L279 1328 Z M289 1105 C287 1124 277 1133 258 1133 L141 1133 C121 1133 114 1125 111 1105 L12 23 L12 18 C12 5 17 0 33 0 L88 0 C116 0 140 20 143 48 L152 200 L246 200 L256 48 C257 20 283 0 311 0 L366 0 C381 0 387 5 387 14 C387 18 387 21 386 23 L289 1105 Z M200 953 L240 299 L158 299 L199 949 L200 953 Z " />
<glyph glyph-name="aring" unicode="&#xe5;" horiz-adv-x="401" d="M199 1408 C120 1408 75 1370 75 1301 C75 1232 120 1192 199 1192 C279 1192 325 1232 325 1301 C325 1370 279 1408 199 1408 L199 1408 Z M199 1261 C171 1261 157 1274 157 1301 C157 1328 171 1342 199 1342 C227 1342 242 1326 242 1301 C242 1274 228 1261 199 1261 L199 1261 Z M289 1105 C287 1124 277 1133 258 1133 L141 1133 C121 1133 114 1125 111 1105 L12 23 L12 18 C12 5 17 0 33 0 L88 0 C116 0 140 20 143 48 L152 200 L246 200 L256 48 C257 20 283 0 311 0 L366 0 C381 0 387 5 387 14 C387 18 387 21 386 23 L289 1105 Z M200 953 L240 299 L158 299 L199 949 L200 953 Z " />
<glyph glyph-name="ae" unicode="&#xe6;" horiz-adv-x="565" d="M516 0 C532 0 540 9 540 26 L540 45 C540 89 520 111 480 111 L369 111 L369 503 L451 503 C498 503 521 525 521 570 L521 580 C521 604 517 614 498 614 L369 614 L369 1022 L480 1022 C520 1022 540 1044 540 1088 L540 1107 C540 1124 532 1133 516 1133 L206 1133 C169 1133 159 1130 156 1105 L13 24 C12 21 12 18 12 14 C12 3 17 0 32 0 L76 0 C116 0 134 13 139 41 L160 200 L241 200 L241 23 C241 6 245 0 264 0 L516 0 Z M241 953 L241 307 L169 307 L234 953 L241 953 Z " />
<glyph glyph-name="ccedilla" unicode="&#xe7;" horiz-adv-x="473" d="M401 627 C416 627 423 634 423 647 L423 993 C423 1037 405 1077 373 1106 C338 1137 293 1153 238 1153 C182 1153 134 1136 101 1107 C68 1078 50 1038 50 993 L50 141 C50 96 68 55 100 27 C123 6 152 -8 189 -15 C190 -30 192 -46 197 -61 C204 -80 215 -106 232 -138 C237 -147 239 -156 239 -165 C239 -171 237 -175 233 -178 C226 -183 216 -186 203 -186 L190 -186 C173 -186 158 -193 158 -209 L159 -246 C159 -255 173 -260 200 -260 C240 -260 270 -254 291 -241 C316 -226 328 -201 328 -166 C328 -130 319 -106 300 -77 C293 -63 276 -42 272 -17 C313 -11 346 4 373 27 C405 55 423 96 423 141 L423 477 C423 490 415 496 400 496 L342 496 C329 496 319 493 311 488 C300 481 294 471 294 458 L294 145 C294 118 277 95 237 95 C198 95 179 116 179 145 L179 988 C179 1017 199 1039 236 1039 C273 1039 295 1017 295 988 L295 665 C295 641 319 627 343 627 L401 627 Z " />
<glyph glyph-name="egrave" unicode="&#xe8;" horiz-adv-x="366" d="M183 1441 C180 1454 168 1464 152 1464 L117 1464 C87 1464 72 1454 72 1434 C72 1428 74 1421 77 1412 L134 1246 C147 1211 159 1196 188 1196 L205 1196 C220 1196 227 1205 224 1220 L183 1441 Z M324 0 C339 0 347 9 347 26 L347 45 C347 89 327 111 288 111 L177 111 L177 503 L249 503 C297 503 328 520 328 568 L328 588 C328 605 320 614 305 614 L177 614 L177 1022 L288 1022 C325 1022 347 1044 347 1088 L347 1107 C347 1124 339 1133 324 1133 L94 1133 C52 1133 48 1134 48 1109 L48 24 C48 4 52 0 76 0 L324 0 Z " />
<glyph glyph-name="eacute" unicode="&#xe9;" horiz-adv-x="366" d="M154 1214 C154 1202 161 1196 174 1196 L191 1196 C220 1196 232 1211 245 1246 L301 1412 C304 1421 306 1428 306 1434 C306 1454 291 1464 262 1464 L228 1464 C212 1464 199 1454 196 1441 L155 1220 L154 1214 Z M324 0 C339 0 347 9 347 26 L347 45 C347 89 327 111 288 111 L177 111 L177 503 L249 503 C297 503 328 520 328 568 L328 588 C328 605 320 614 305 614 L177 614 L177 1022 L288 1022 C325 1022 347 1044 347 1088 L347 1107 C347 1124 339 1133 324 1133 L94 1133 C52 1133 48 1134 48 1109 L48 24 C48 4 52 0 76 0 L324 0 Z " />
<glyph glyph-name="ecircumflex" unicode="&#xea;" horiz-adv-x="366" d="M244 1452 C243 1459 235 1465 228 1465 L146 1465 C138 1465 133 1461 130 1452 L62 1208 L61 1205 C61 1200 68 1195 75 1195 L122 1195 C143 1195 156 1206 159 1228 L187 1404 L215 1228 C218 1208 232 1195 252 1195 L300 1195 C308 1195 314 1200 313 1208 L244 1452 Z M324 0 C339 0 347 9 347 26 L347 45 C347 89 327 111 288 111 L177 111 L177 503 L249 503 C297 503 328 520 328 568 L328 588 C328 605 320 614 305 614 L177 614 L177 1022 L288 1022 C325 1022 347 1044 347 1088 L347 1107 C347 1124 339 1133 324 1133 L94 1133 C52 1133 48 1134 48 1109 L48 24 C48 4 52 0 76 0 L324 0 Z " />
<glyph glyph-name="edieresis" unicode="&#xeb;" horiz-adv-x="366" d="M107 1328 C70 1328 50 1303 50 1263 C50 1223 70 1198 107 1198 C146 1198 167 1223 167 1263 C167 1303 146 1328 107 1328 L107 1328 Z M266 1328 C229 1328 208 1303 208 1263 C208 1223 229 1198 266 1198 C305 1198 325 1223 325 1263 C325 1303 305 1328 266 1328 L266 1328 Z M324 0 C339 0 347 9 347 26 L347 45 C347 89 327 111 288 111 L177 111 L177 503 L249 503 C297 503 328 520 328 568 L328 588 C328 605 320 614 305 614 L177 614 L177 1022 L288 1022 C325 1022 347 1044 347 1088 L347 1107 C347 1124 339 1133 324 1133 L94 1133 C52 1133 48 1134 48 1109 L48 24 C48 4 52 0 76 0 L324 0 Z " />
<glyph glyph-name="igrave" unicode="&#xec;" horiz-adv-x="225" d="M105 1441 C102 1454 90 1464 74 1464 L39 1464 C9 1464 -6 1454 -6 1434 C-6 1428 -4 1421 -1 1412 L56 1246 C69 1211 81 1196 110 1196 L127 1196 C142 1196 149 1205 146 1220 L105 1441 Z M177 1110 C177 1129 174 1133 154 1133 L99 1133 C71 1133 48 1111 48 1083 L48 29 C48 10 57 0 76 0 L148 0 C167 0 177 10 177 29 L177 1110 Z " />
<glyph glyph-name="iacute" unicode="&#xed;" horiz-adv-x="225" d="M81 1214 C81 1202 88 1196 101 1196 L118 1196 C147 1196 159 1211 172 1246 L228 1412 C231 1421 233 1428 233 1434 C233 1454 218 1464 189 1464 L155 1464 C139 1464 126 1454 123 1441 L82 1220 L81 1214 Z M177 1110 C177 1129 174 1133 154 1133 L99 1133 C71 1133 48 1111 48 1083 L48 29 C48 10 57 0 76 0 L148 0 C167 0 177 10 177 29 L177 1110 Z " />
<glyph glyph-name="icircumflex" unicode="&#xee;" horiz-adv-x="225" d="M169 1452 C168 1459 160 1465 153 1465 L71 1465 C63 1465 58 1461 55 1452 L-13 1208 L-14 1205 C-14 1200 -7 1195 0 1195 L47 1195 C68 1195 81 1206 84 1228 L112 1404 L140 1228 C143 1208 157 1195 177 1195 L225 1195 C233 1195 239 1200 238 1208 L169 1452 Z M177 1110 C177 1129 174 1133 154 1133 L99 1133 C71 1133 48 1111 48 1083 L48 29 C48 10 57 0 76 0 L148 0 C167 0 177 10 177 29 L177 1110 Z " />
<glyph glyph-name="idieresis" unicode="&#xef;" horiz-adv-x="225" d="M32 1328 C-5 1328 -25 1303 -25 1263 C-25 1223 -5 1198 32 1198 C71 1198 92 1223 92 1263 C92 1303 71 1328 32 1328 L32 1328 Z M191 1328 C152 1328 133 1303 133 1263 C133 1223 152 1198 191 1198 C230 1198 250 1223 250 1263 C250 1303 230 1328 191 1328 L191 1328 Z M177 1110 C177 1129 174 1133 154 1133 L99 1133 C71 1133 48 1111 48 1083 L48 29 C48 10 57 0 76 0 L148 0 C167 0 177 10 177 29 L177 1110 Z " />
<glyph glyph-name="eth" unicode="&#xf0;" horiz-adv-x="468" d="M236 0 C292 0 337 15 370 44 C404 74 421 114 421 163 L421 971 C421 1010 406 1049 378 1080 C347 1112 299 1133 236 1133 L71 1133 C52 1133 48 1128 48 1109 L48 620 L-4 620 C-17 620 -23 614 -23 602 L-23 570 C-23 538 -4 516 24 516 L48 516 L48 24 C48 5 52 0 71 0 L236 0 Z M177 516 L237 516 C252 516 262 529 262 545 L262 602 C262 614 256 620 243 620 L177 620 L177 1022 L234 1022 C271 1022 292 1000 292 971 L292 162 C292 134 272 111 239 111 L177 111 L177 516 Z " />
<glyph glyph-name="ntilde" unicode="&#xf1;" horiz-adv-x="465" d="M294 1223 C308 1223 321 1220 333 1214 C334 1213 345 1204 362 1204 C377 1204 386 1210 386 1225 L386 1244 C386 1269 376 1288 355 1301 C338 1311 315 1316 286 1316 C262 1316 247 1311 226 1300 C205 1289 192 1284 173 1284 C156 1284 148 1288 136 1293 C133 1294 123 1302 106 1302 C91 1302 84 1295 84 1281 L84 1261 C84 1236 94 1218 114 1207 C132 1196 155 1190 183 1190 C201 1190 220 1196 240 1207 C260 1218 275 1223 294 1223 L294 1223 Z M417 1110 C417 1127 413 1133 394 1133 L338 1133 C310 1133 285 1111 288 1083 L311 405 L184 1052 C173 1106 154 1133 127 1133 L71 1133 C52 1133 48 1127 48 1110 L48 24 C48 7 53 0 72 0 L125 0 C156 0 180 22 177 51 L154 731 L283 76 C288 52 294 35 301 24 C311 8 324 0 340 0 L393 0 C412 0 417 7 417 24 L417 1110 Z " />
<glyph glyph-name="ograve" unicode="&#xf2;" horiz-adv-x="473" d="M228 1440 C225 1453 213 1463 197 1463 L162 1463 C132 1463 117 1453 117 1433 C117 1427 119 1420 122 1411 L179 1245 C192 1210 204 1195 233 1195 L250 1195 C265 1195 272 1204 269 1219 L228 1440 Z M50 143 C50 103 65 62 96 33 C130 -1 177 -18 237 -18 C296 -18 343 -1 378 34 C408 64 423 100 423 143 L423 992 C423 1035 408 1075 377 1104 C342 1137 295 1153 236 1153 C178 1153 132 1137 98 1104 C66 1075 50 1033 50 992 L50 143 Z M179 988 C179 1017 199 1039 236 1039 C275 1039 294 1017 294 988 L294 146 C294 117 275 95 238 95 C199 95 179 117 179 146 L179 988 Z " />
<glyph glyph-name="oacute" unicode="&#xf3;" horiz-adv-x="473" d="M198 1214 C198 1202 205 1196 218 1196 L235 1196 C264 1196 276 1211 289 1246 L345 1412 C348 1421 350 1428 350 1434 C350 1454 335 1464 306 1464 L272 1464 C256 1464 243 1454 240 1441 L199 1220 L198 1214 Z M50 143 C50 103 65 62 96 33 C130 -1 177 -18 237 -18 C296 -18 343 -1 378 34 C408 64 423 100 423 143 L423 992 C423 1035 408 1075 377 1104 C342 1137 295 1153 236 1153 C178 1153 132 1137 98 1104 C66 1075 50 1033 50 992 L50 143 Z M179 988 C179 1017 199 1039 236 1039 C275 1039 294 1017 294 988 L294 146 C294 117 275 95 238 95 C199 95 179 117 179 146 L179 988 Z " />
<glyph glyph-name="ocircumflex" unicode="&#xf4;" horiz-adv-x="473" d="M293 1452 C292 1459 284 1465 277 1465 L195 1465 C187 1465 182 1461 179 1452 L111 1208 L110 1205 C110 1200 117 1195 124 1195 L171 1195 C192 1195 205 1206 208 1228 L236 1404 L264 1228 C267 1208 281 1195 301 1195 L349 1195 C357 1195 363 1200 362 1208 L293 1452 Z M50 143 C50 103 65 62 96 33 C130 -1 177 -18 237 -18 C296 -18 343 -1 378 34 C408 64 423 100 423 143 L423 992 C423 1035 408 1075 377 1104 C342 1137 295 1153 236 1153 C178 1153 132 1137 98 1104 C66 1075 50 1033 50 992 L50 143 Z M179 988 C179 1017 199 1039 236 1039 C275 1039 294 1017 294 988 L294 146 C294 117 275 95 238 95 C199 95 179 117 179 146 L179 988 Z " />
<glyph glyph-name="otilde" unicode="&#xf5;" horiz-adv-x="473" d="M297 1231 C311 1231 324 1228 336 1222 C337 1221 348 1212 365 1212 C380 1212 389 1218 389 1233 L389 1252 C389 1277 379 1296 358 1309 C341 1319 318 1324 289 1324 C265 1324 250 1319 229 1308 C208 1297 195 1292 176 1292 C159 1292 151 1296 139 1301 C136 1302 126 1310 109 1310 C94 1310 87 1303 87 1289 L87 1269 C87 1244 97 1226 117 1215 C135 1204 158 1198 186 1198 C204 1198 223 1204 243 1215 C263 1226 278 1231 297 1231 L297 1231 Z M50 143 C50 103 65 62 96 33 C130 -1 177 -18 237 -18 C296 -18 343 -1 378 34 C408 64 423 100 423 143 L423 992 C423 1035 408 1075 377 1104 C342 1137 295 1153 236 1153 C178 1153 132 1137 98 1104 C66 1075 50 1033 50 992 L50 143 Z M179 988 C179 1017 199 1039 236 1039 C275 1039 294 1017 294 988 L294 146 C294 117 275 95 238 95 C199 95 179 117 179 146 L179 988 Z " />
<glyph glyph-name="odieresis" unicode="&#xf6;" horiz-adv-x="473" d="M156 1328 C119 1328 99 1303 99 1263 C99 1223 119 1198 156 1198 C195 1198 216 1223 216 1263 C216 1303 195 1328 156 1328 L156 1328 Z M315 1328 C278 1328 257 1303 257 1263 C257 1223 276 1198 315 1198 C354 1198 374 1223 374 1263 C374 1303 354 1328 315 1328 L315 1328 Z M50 143 C50 103 65 62 96 33 C130 -1 177 -18 237 -18 C296 -18 343 -1 378 34 C408 64 423 100 423 143 L423 992 C423 1035 408 1075 377 1104 C342 1137 295 1153 236 1153 C178 1153 132 1137 98 1104 C66 1075 50 1033 50 992 L50 143 Z M179 988 C179 1017 199 1039 236 1039 C275 1039 294 1017 294 988 L294 146 C294 117 275 95 238 95 C199 95 179 117 179 146 L179 988 Z " />
<glyph glyph-name="divide" unicode="&#xf7;" horiz-adv-x="490" d="M246 897 C194 897 167 871 167 830 C167 789 194 763 246 763 C299 763 326 787 326 830 C326 873 299 897 246 897 L246 897 Z M110 702 C70 702 50 680 50 649 L50 615 C50 599 58 591 75 591 L376 591 C416 591 438 620 438 649 L438 680 C438 699 433 702 413 702 L110 702 Z M243 528 C191 528 164 502 164 461 C164 420 191 394 243 394 C296 394 323 418 323 461 C323 504 296 528 243 528 L243 528 Z " />
<glyph glyph-name="oslash" unicode="&#xf8;" horiz-adv-x="473" d="M48 143 C48 105 60 72 83 44 L47 -117 C46 -119 46 -122 46 -125 C46 -135 53 -140 67 -140 L89 -140 C116 -140 137 -120 144 -92 L162 -7 C185 -14 210 -18 235 -18 C294 -18 341 -1 377 34 C407 64 422 100 422 143 L422 993 C422 1026 413 1055 394 1082 L431 1249 C432 1251 432 1254 432 1257 C432 1268 426 1274 413 1274 L393 1274 C374 1274 360 1268 351 1256 C346 1250 340 1239 335 1223 L316 1139 C291 1148 264 1153 235 1153 C176 1153 128 1135 96 1104 C65 1076 48 1036 48 993 L48 143 Z M177 989 C177 1018 196 1040 235 1040 C272 1040 293 1018 293 989 L293 146 C293 117 273 95 236 95 C197 95 177 117 177 146 L177 989 Z " />
<glyph glyph-name="ugrave" unicode="&#xf9;" horiz-adv-x="468" d="M221 1441 C218 1454 206 1464 190 1464 L155 1464 C125 1464 110 1454 110 1434 C110 1428 112 1421 115 1412 L172 1246 C185 1211 197 1196 226 1196 L243 1196 C258 1196 265 1205 262 1220 L221 1441 Z M177 1085 C177 1113 154 1134 126 1134 L71 1134 C52 1134 48 1129 48 1110 L48 141 C48 98 64 61 97 30 C132 -3 178 -19 236 -19 C293 -19 340 -2 375 32 C406 61 421 101 421 141 L421 1110 C421 1129 416 1134 397 1134 L342 1134 C314 1134 292 1113 292 1085 L292 145 C292 116 273 95 234 95 C194 95 177 118 177 145 L177 1085 Z " />
<glyph glyph-name="uacute" unicode="&#xfa;" horiz-adv-x="468" d="M194 1214 C194 1202 201 1196 214 1196 L231 1196 C260 1196 272 1211 285 1246 L341 1412 C344 1421 346 1428 346 1434 C346 1454 331 1464 302 1464 L268 1464 C252 1464 239 1454 236 1441 L195 1220 L194 1214 Z M177 1085 C177 1113 154 1134 126 1134 L71 1134 C52 1134 48 1129 48 1110 L48 141 C48 98 64 61 97 30 C132 -3 178 -19 236 -19 C293 -19 340 -2 375 32 C406 61 421 101 421 141 L421 1110 C421 1129 416 1134 397 1134 L342 1134 C314 1134 292 1113 292 1085 L292 145 C292 116 273 95 234 95 C194 95 177 118 177 145 L177 1085 Z " />
<glyph glyph-name="ucircumflex" unicode="&#xfb;" horiz-adv-x="468" d="M290 1452 C289 1459 281 1465 274 1465 L192 1465 C184 1465 179 1461 176 1452 L108 1208 L107 1205 C107 1200 114 1195 121 1195 L168 1195 C189 1195 202 1206 205 1228 L233 1404 L261 1228 C264 1208 278 1195 298 1195 L346 1195 C354 1195 360 1200 359 1208 L290 1452 Z M177 1085 C177 1113 154 1134 126 1134 L71 1134 C52 1134 48 1129 48 1110 L48 141 C48 98 64 61 97 30 C132 -3 178 -19 236 -19 C293 -19 340 -2 375 32 C406 61 421 101 421 141 L421 1110 C421 1129 416 1134 397 1134 L342 1134 C314 1134 292 1113 292 1085 L292 145 C292 116 273 95 234 95 C194 95 177 118 177 145 L177 1085 Z " />
<glyph glyph-name="udieresis" unicode="&#xfc;" horiz-adv-x="468" d="M154 1328 C117 1328 97 1303 97 1263 C97 1223 117 1198 154 1198 C193 1198 214 1223 214 1263 C214 1303 193 1328 154 1328 L154 1328 Z M313 1328 C276 1328 255 1303 255 1263 C255 1223 276 1198 313 1198 C352 1198 372 1223 372 1263 C372 1303 352 1328 313 1328 L313 1328 Z M177 1085 C177 1113 154 1134 126 1134 L71 1134 C52 1134 48 1129 48 1110 L48 141 C48 98 64 61 97 30 C132 -3 178 -19 236 -19 C293 -19 340 -2 375 32 C406 61 421 101 421 141 L421 1110 C421 1129 416 1134 397 1134 L342 1134 C314 1134 292 1113 292 1085 L292 145 C292 116 273 95 234 95 C194 95 177 118 177 145 L177 1085 Z " />
<glyph glyph-name="yacute" unicode="&#xfd;" horiz-adv-x="392" d="M164 1214 C164 1202 171 1196 184 1196 L201 1196 C230 1196 242 1211 255 1246 L311 1412 C314 1421 316 1428 316 1434 C316 1454 301 1464 272 1464 L238 1464 C222 1464 209 1454 206 1441 L165 1220 L164 1214 Z M380 1110 L381 1117 C381 1128 373 1133 357 1133 L307 1133 C278 1133 249 1116 248 1093 L197 580 L146 1093 C143 1116 114 1133 86 1133 L36 1133 C16 1133 11 1126 14 1110 L132 374 L132 24 C132 8 142 0 161 0 L232 0 C251 0 261 8 261 24 L261 374 L380 1110 Z " />
<glyph glyph-name="thorn" unicode="&#xfe;" horiz-adv-x="444" d="M126 0 C154 0 177 21 177 49 L177 194 L232 194 C288 194 337 212 370 241 C403 269 421 310 421 355 L421 776 C421 821 403 862 371 891 C336 922 291 937 236 937 L177 937 L177 1081 C177 1112 157 1133 126 1133 L71 1133 C52 1133 48 1128 48 1109 L48 24 C48 5 52 0 71 0 L126 0 Z M234 826 C271 826 292 804 292 775 L292 356 C292 329 272 306 239 306 L177 306 L177 826 L234 826 Z " />
<glyph glyph-name="ydieresis" unicode="&#xff;" horiz-adv-x="392" d="M116 1328 C79 1328 59 1303 59 1263 C59 1223 79 1198 116 1198 C155 1198 176 1223 176 1263 C176 1303 155 1328 116 1328 L116 1328 Z M275 1328 C236 1328 217 1303 217 1263 C217 1223 236 1198 275 1198 C314 1198 334 1223 334 1263 C334 1303 314 1328 275 1328 L275 1328 Z M380 1110 L381 1117 C381 1128 373 1133 357 1133 L307 1133 C278 1133 249 1116 248 1093 L197 580 L146 1093 C143 1116 114 1133 86 1133 L36 1133 C16 1133 11 1126 14 1110 L132 374 L132 24 C132 8 142 0 161 0 L232 0 C251 0 261 8 261 24 L261 374 L380 1110 Z " />
<glyph glyph-name="Amacron" unicode="&#x100;" horiz-adv-x="432" d="M91 1491 C78 1491 72 1485 72 1473 L72 1454 C72 1422 91 1400 119 1400 L294 1400 C322 1400 341 1422 341 1454 L341 1473 C341 1484 333 1491 322 1491 L91 1491 Z M304 1316 C301 1339 291 1344 266 1344 L165 1344 C140 1344 129 1339 126 1316 L16 23 L16 17 C16 5 21 0 37 0 L98 0 C126 0 146 20 147 48 L159 230 L271 230 L283 48 C284 20 305 0 333 0 L394 0 C413 0 415 4 414 23 L304 1316 Z M266 337 L164 337 L215 1155 L266 337 Z " />
<glyph glyph-name="amacron" unicode="&#x101;" horiz-adv-x="401" d="M85 1284 C72 1284 66 1278 66 1266 L66 1247 C66 1215 85 1193 113 1193 L288 1193 C316 1193 335 1215 335 1247 L335 1266 C335 1277 327 1284 316 1284 L85 1284 Z M289 1105 C287 1124 277 1133 258 1133 L141 1133 C121 1133 114 1125 111 1105 L12 23 L12 18 C12 5 17 0 33 0 L88 0 C116 0 140 20 143 48 L152 200 L246 200 L256 48 C257 20 283 0 311 0 L366 0 C381 0 387 5 387 14 C387 18 387 21 386 23 L289 1105 Z M200 953 L240 299 L158 299 L199 949 L200 953 Z " />
<glyph glyph-name="Abreve" unicode="&#x102;" horiz-adv-x="432" d="M345 1646 C345 1656 340 1661 331 1661 L293 1661 C280 1661 266 1654 263 1638 L254 1572 C249 1531 242 1502 232 1485 C227 1476 222 1472 215 1472 C200 1472 191 1488 183 1520 C178 1544 172 1584 166 1639 C163 1654 150 1661 137 1661 L99 1661 C91 1661 86 1654 86 1646 C86 1559 95 1497 113 1461 C132 1421 164 1402 215 1402 C308 1402 345 1474 345 1646 L345 1646 Z M304 1316 C301 1339 291 1344 266 1344 L165 1344 C140 1344 129 1339 126 1316 L16 23 L16 17 C16 5 21 0 37 0 L98 0 C126 0 146 20 147 48 L159 230 L271 230 L283 48 C284 20 305 0 333 0 L394 0 C413 0 415 4 414 23 L304 1316 Z M266 337 L164 337 L215 1155 L266 337 Z " />
<glyph glyph-name="abreve" unicode="&#x103;" horiz-adv-x="401" d="M329 1439 C329 1449 324 1454 315 1454 L277 1454 C264 1454 250 1447 247 1431 L238 1365 C233 1324 226 1295 216 1278 C211 1269 206 1265 199 1265 C184 1265 175 1281 167 1313 C162 1337 156 1377 150 1432 C147 1447 134 1454 121 1454 L83 1454 C75 1454 70 1447 70 1439 C70 1352 79 1290 97 1254 C116 1214 148 1195 199 1195 C292 1195 329 1267 329 1439 L329 1439 Z M289 1105 C287 1124 277 1133 258 1133 L141 1133 C121 1133 114 1125 111 1105 L12 23 L12 18 C12 5 17 0 33 0 L88 0 C116 0 140 20 143 48 L152 200 L246 200 L256 48 C257 20 283 0 311 0 L366 0 C381 0 387 5 387 14 C387 18 387 21 386 23 L289 1105 Z M200 953 L240 299 L158 299 L199 949 L200 953 Z " />
<glyph glyph-name="Aogonek" unicode="&#x104;" horiz-adv-x="432" d="M394 0 C410 0 414 4 414 17 L414 23 L304 1316 C301 1339 291 1344 266 1344 L165 1344 C140 1344 129 1339 126 1316 L16 23 C15 4 18 0 37 0 L98 0 C126 0 146 20 147 48 L159 230 L271 230 L283 48 C283 42 284 36 286 31 C261 26 241 19 226 8 C195 -13 180 -45 180 -88 L180 -113 C180 -225 241 -278 345 -278 C376 -278 402 -261 405 -224 L405 -203 C406 -188 399 -180 382 -180 C319 -180 287 -153 287 -109 L287 -82 C287 -30 309 0 366 0 L394 0 Z M164 337 L215 1155 L266 337 L164 337 Z " />
<glyph glyph-name="aogonek" unicode="&#x105;" horiz-adv-x="401" d="M371 -180 C308 -180 276 -153 276 -109 L276 -82 C276 -30 298 0 355 0 L366 0 C381 0 387 5 387 14 C387 18 387 21 386 23 L289 1105 C287 1124 277 1133 258 1133 L141 1133 C121 1133 114 1125 111 1105 L12 23 C11 6 14 0 33 0 L88 0 C116 0 140 20 143 48 L152 200 L246 200 L256 48 C256 41 258 35 261 28 C244 24 228 17 215 8 C184 -13 169 -45 169 -88 L169 -113 C169 -225 230 -278 334 -278 C365 -278 391 -261 394 -224 L394 -203 C395 -188 388 -180 371 -180 L371 -180 Z M158 299 L199 949 L200 953 L240 299 L158 299 Z " />
<glyph glyph-name="Cacute" unicode="&#x106;" horiz-adv-x="473" d="M203 1421 C203 1409 210 1403 223 1403 L240 1403 C269 1403 281 1418 294 1453 L350 1619 C353 1628 355 1635 355 1641 C355 1661 340 1671 311 1671 L277 1671 C261 1671 248 1661 245 1648 L204 1427 L203 1421 Z M242 1364 C186 1364 138 1347 105 1318 C72 1289 54 1249 54 1204 L54 141 C54 96 72 55 104 27 C138 -4 183 -19 239 -19 C295 -19 344 -2 377 27 C409 55 427 96 427 141 L427 566 C427 579 419 585 404 585 L346 585 C333 585 323 582 315 577 C304 570 298 560 298 547 L298 145 C298 118 281 95 241 95 C202 95 183 116 183 145 L183 1199 C183 1228 203 1250 240 1250 C277 1250 299 1228 299 1199 L299 796 C299 772 323 758 347 758 L405 758 C420 758 427 765 427 778 L427 1204 C427 1248 409 1288 377 1317 C342 1348 297 1364 242 1364 L242 1364 Z " />
<glyph glyph-name="cacute" unicode="&#x107;" horiz-adv-x="473" d="M193 1214 C193 1202 200 1196 213 1196 L230 1196 C259 1196 271 1211 284 1246 L340 1412 C343 1421 345 1428 345 1434 C345 1454 330 1464 301 1464 L267 1464 C251 1464 238 1454 235 1441 L194 1220 L193 1214 Z M238 1153 C182 1153 134 1136 101 1107 C68 1078 50 1038 50 993 L50 141 C50 96 68 55 100 27 C134 -4 179 -19 235 -19 C291 -19 340 -2 373 27 C405 55 423 96 423 141 L423 477 C423 490 415 496 400 496 L342 496 C329 496 319 493 311 488 C300 481 294 471 294 458 L294 145 C294 118 277 95 237 95 C198 95 179 116 179 145 L179 988 C179 1017 199 1039 236 1039 C273 1039 295 1017 295 988 L295 665 C295 641 319 627 343 627 L401 627 C416 627 423 634 423 647 L423 993 C423 1037 405 1077 373 1106 C338 1137 293 1153 238 1153 L238 1153 Z " />
<glyph glyph-name="Ccircumflex" unicode="&#x108;" horiz-adv-x="473" d="M293 1659 C292 1666 284 1672 277 1672 L195 1672 C187 1672 182 1668 179 1659 L111 1415 L110 1412 C110 1407 117 1402 124 1402 L171 1402 C192 1402 205 1413 208 1435 L236 1611 L264 1435 C267 1415 281 1402 301 1402 L349 1402 C357 1402 363 1407 362 1415 L293 1659 Z M242 1364 C186 1364 138 1347 105 1318 C72 1289 54 1249 54 1204 L54 141 C54 96 72 55 104 27 C138 -4 183 -19 239 -19 C295 -19 344 -2 377 27 C409 55 427 96 427 141 L427 566 C427 579 419 585 404 585 L346 585 C333 585 323 582 315 577 C304 570 298 560 298 547 L298 145 C298 118 281 95 241 95 C202 95 183 116 183 145 L183 1199 C183 1228 203 1250 240 1250 C277 1250 299 1228 299 1199 L299 796 C299 772 323 758 347 758 L405 758 C420 758 427 765 427 778 L427 1204 C427 1248 409 1288 377 1317 C342 1348 297 1364 242 1364 L242 1364 Z " />
<glyph glyph-name="ccircumflex" unicode="&#x109;" horiz-adv-x="473" d="M293 1452 C292 1459 284 1465 277 1465 L195 1465 C187 1465 182 1461 179 1452 L111 1208 L110 1205 C110 1200 117 1195 124 1195 L171 1195 C192 1195 205 1206 208 1228 L236 1404 L264 1228 C267 1208 281 1195 301 1195 L349 1195 C357 1195 363 1200 362 1208 L293 1452 Z M238 1153 C182 1153 134 1136 101 1107 C68 1078 50 1038 50 993 L50 141 C50 96 68 55 100 27 C134 -4 179 -19 235 -19 C291 -19 340 -2 373 27 C405 55 423 96 423 141 L423 477 C423 490 415 496 400 496 L342 496 C329 496 319 493 311 488 C300 481 294 471 294 458 L294 145 C294 118 277 95 237 95 C198 95 179 116 179 145 L179 988 C179 1017 199 1039 236 1039 C273 1039 295 1017 295 988 L295 665 C295 641 319 627 343 627 L401 627 C416 627 423 634 423 647 L423 993 C423 1037 405 1077 373 1106 C338 1137 293 1153 238 1153 L238 1153 Z " />
<glyph glyph-name="Cdotaccent" unicode="&#x10a;" horiz-adv-x="473" d="M236 1541 C184 1541 157 1515 157 1474 C157 1433 184 1407 236 1407 C289 1407 316 1433 316 1474 C316 1517 289 1541 236 1541 L236 1541 Z M242 1364 C186 1364 138 1347 105 1318 C72 1289 54 1249 54 1204 L54 141 C54 96 72 55 104 27 C138 -4 183 -19 239 -19 C295 -19 344 -2 377 27 C409 55 427 96 427 141 L427 566 C427 579 419 585 404 585 L346 585 C333 585 323 582 315 577 C304 570 298 560 298 547 L298 145 C298 118 281 95 241 95 C202 95 183 116 183 145 L183 1199 C183 1228 203 1250 240 1250 C277 1250 299 1228 299 1199 L299 796 C299 772 323 758 347 758 L405 758 C420 758 427 765 427 778 L427 1204 C427 1248 409 1288 377 1317 C342 1348 297 1364 242 1364 L242 1364 Z " />
<glyph glyph-name="cdotaccent" unicode="&#x10b;" horiz-adv-x="473" d="M236 1334 C184 1334 157 1308 157 1267 C157 1226 184 1200 236 1200 C289 1200 316 1226 316 1267 C316 1310 289 1334 236 1334 L236 1334 Z M238 1153 C182 1153 134 1136 101 1107 C68 1078 50 1038 50 993 L50 141 C50 96 68 55 100 27 C134 -4 179 -19 235 -19 C291 -19 340 -2 373 27 C405 55 423 96 423 141 L423 477 C423 490 415 496 400 496 L342 496 C329 496 319 493 311 488 C300 481 294 471 294 458 L294 145 C294 118 277 95 237 95 C198 95 179 116 179 145 L179 988 C179 1017 199 1039 236 1039 C273 1039 295 1017 295 988 L295 665 C295 641 319 627 343 627 L401 627 C416 627 423 634 423 647 L423 993 C423 1037 405 1077 373 1106 C338 1137 293 1153 238 1153 L238 1153 Z " />
<glyph glyph-name="Ccaron" unicode="&#x10c;" horiz-adv-x="473" d="M362 1660 C362 1667 356 1672 349 1672 L301 1672 C281 1672 267 1659 264 1639 L236 1462 L208 1639 C205 1661 192 1672 171 1672 L124 1672 C116 1672 108 1666 111 1659 L179 1415 C181 1406 186 1402 195 1402 L277 1402 C285 1402 292 1407 293 1415 L362 1659 L362 1660 Z M242 1364 C186 1364 138 1347 105 1318 C72 1289 54 1249 54 1204 L54 141 C54 96 72 55 104 27 C138 -4 183 -19 239 -19 C295 -19 344 -2 377 27 C409 55 427 96 427 141 L427 566 C427 579 419 585 404 585 L346 585 C333 585 323 582 315 577 C304 570 298 560 298 547 L298 145 C298 118 281 95 241 95 C202 95 183 116 183 145 L183 1199 C183 1228 203 1250 240 1250 C277 1250 299 1228 299 1199 L299 796 C299 772 323 758 347 758 L405 758 C420 758 427 765 427 778 L427 1204 C427 1248 409 1288 377 1317 C342 1348 297 1364 242 1364 L242 1364 Z " />
<glyph glyph-name="ccaron" unicode="&#x10d;" horiz-adv-x="473" d="M362 1453 C362 1460 356 1465 349 1465 L301 1465 C281 1465 267 1452 264 1432 L236 1255 L208 1432 C205 1454 192 1465 171 1465 L124 1465 C116 1465 108 1459 111 1452 L179 1208 C181 1199 186 1195 195 1195 L277 1195 C285 1195 292 1200 293 1208 L362 1452 L362 1453 Z M238 1153 C182 1153 134 1136 101 1107 C68 1078 50 1038 50 993 L50 141 C50 96 68 55 100 27 C134 -4 179 -19 235 -19 C291 -19 340 -2 373 27 C405 55 423 96 423 141 L423 477 C423 490 415 496 400 496 L342 496 C329 496 319 493 311 488 C300 481 294 471 294 458 L294 145 C294 118 277 95 237 95 C198 95 179 116 179 145 L179 988 C179 1017 199 1039 236 1039 C273 1039 295 1017 295 988 L295 665 C295 641 319 627 343 627 L401 627 C416 627 423 634 423 647 L423 993 C423 1037 405 1077 373 1106 C338 1137 293 1153 238 1153 L238 1153 Z " />
<glyph glyph-name="Dcaron" unicode="&#x10e;" horiz-adv-x="473" d="M356 1660 C356 1667 350 1672 343 1672 L295 1672 C275 1672 261 1659 258 1639 L230 1462 L202 1639 C199 1661 186 1672 165 1672 L118 1672 C110 1672 102 1666 105 1659 L173 1415 C175 1406 180 1402 189 1402 L271 1402 C279 1402 286 1407 287 1415 L356 1659 L356 1660 Z M234 0 C351 0 423 59 423 162 L423 1183 C423 1226 407 1267 378 1295 C343 1328 297 1344 238 1344 L73 1344 C54 1344 50 1339 50 1320 L50 24 C50 4 55 0 78 0 L234 0 Z M179 1233 L236 1233 C273 1233 294 1211 294 1182 L294 162 C294 134 274 111 241 111 L179 111 L179 1233 Z " />
<glyph glyph-name="dcaron" unicode="&#x10f;" horiz-adv-x="523" d="M418 1074 C418 1061 424 1054 437 1054 L467 1054 C496 1054 505 1066 513 1099 L533 1294 C534 1303 535 1310 535 1313 C535 1335 520 1346 491 1346 L441 1346 C426 1346 418 1338 418 1323 L418 1074 Z M236 0 C292 0 337 15 370 44 C404 74 421 114 421 163 L421 971 C421 1010 406 1049 378 1080 C347 1112 299 1133 236 1133 L71 1133 C52 1133 48 1128 48 1109 L48 24 C48 5 52 0 71 0 L236 0 Z M177 1022 L234 1022 C271 1022 292 1000 292 971 L292 162 C292 134 272 111 239 111 L177 111 L177 1022 Z " />
<glyph glyph-name="Dcroat" unicode="&#x110;" horiz-adv-x="473" d="M234 0 C351 0 423 59 423 162 L423 1183 C423 1226 407 1267 378 1295 C343 1328 297 1344 238 1344 L73 1344 C54 1344 50 1339 50 1320 L50 700 L-4 700 C-17 700 -23 694 -23 682 L-23 650 C-23 618 -4 596 24 596 L50 596 L50 24 C50 4 55 0 78 0 L234 0 Z M179 596 L237 596 C252 596 262 610 262 626 L262 682 C262 694 256 700 243 700 L179 700 L179 1233 L236 1233 C273 1233 294 1211 294 1182 L294 162 C294 134 274 111 241 111 L179 111 L179 596 Z " />
<glyph glyph-name="dslash" unicode="&#x111;" horiz-adv-x="468" d="M236 0 C292 0 337 15 370 44 C404 74 421 114 421 163 L421 971 C421 1010 406 1049 378 1080 C347 1112 299 1133 236 1133 L71 1133 C52 1133 48 1128 48 1109 L48 620 L-4 620 C-17 620 -23 614 -23 602 L-23 570 C-23 538 -4 516 24 516 L48 516 L48 24 C48 5 52 0 71 0 L236 0 Z M177 516 L237 516 C252 516 262 529 262 545 L262 602 C262 614 256 620 243 620 L177 620 L177 1022 L234 1022 C271 1022 292 1000 292 971 L292 162 C292 134 272 111 239 111 L177 111 L177 516 Z " />
<glyph glyph-name="Emacron" unicode="&#x112;" horiz-adv-x="385" d="M77 1491 C64 1491 58 1485 58 1473 L58 1454 C58 1422 77 1400 105 1400 L280 1400 C308 1400 327 1422 327 1454 L327 1473 C327 1484 319 1491 308 1491 L77 1491 Z M73 1344 C54 1344 50 1339 50 1320 L50 24 C50 4 55 0 79 0 L326 0 C341 0 349 9 349 26 L349 45 C349 89 327 111 290 111 L179 111 L179 610 L271 610 C308 610 330 633 330 676 L330 696 C330 713 322 721 307 721 L179 721 L179 1233 L290 1233 C327 1233 349 1256 349 1299 L349 1318 C349 1335 341 1344 326 1344 L73 1344 Z " />
<glyph glyph-name="emacron" unicode="&#x113;" horiz-adv-x="366" d="M74 1284 C61 1284 55 1278 55 1266 L55 1247 C55 1215 74 1193 102 1193 L277 1193 C305 1193 324 1215 324 1247 L324 1266 C324 1277 316 1284 305 1284 L74 1284 Z M324 0 C339 0 347 9 347 26 L347 45 C347 89 327 111 288 111 L177 111 L177 503 L249 503 C297 503 328 520 328 568 L328 588 C328 605 320 614 305 614 L177 614 L177 1022 L288 1022 C325 1022 347 1044 347 1088 L347 1107 C347 1124 339 1133 324 1133 L94 1133 C52 1133 48 1134 48 1109 L48 24 C48 4 52 0 76 0 L324 0 Z " />
<glyph glyph-name="Ebreve" unicode="&#x114;" horiz-adv-x="385" d="M327 1646 C327 1656 322 1661 313 1661 L275 1661 C262 1661 248 1654 245 1638 L236 1572 C231 1531 224 1502 214 1485 C209 1476 204 1472 197 1472 C182 1472 173 1488 165 1520 C160 1544 154 1584 148 1639 C145 1654 132 1661 119 1661 L81 1661 C73 1661 68 1654 68 1646 C68 1559 77 1497 95 1461 C114 1421 146 1402 197 1402 C290 1402 327 1474 327 1646 L327 1646 Z M73 1344 C54 1344 50 1339 50 1320 L50 24 C50 4 55 0 79 0 L326 0 C341 0 349 9 349 26 L349 45 C349 89 327 111 290 111 L179 111 L179 610 L271 610 C308 610 330 633 330 676 L330 696 C330 713 322 721 307 721 L179 721 L179 1233 L290 1233 C327 1233 349 1256 349 1299 L349 1318 C349 1335 341 1344 326 1344 L73 1344 Z " />
<glyph glyph-name="ebreve" unicode="&#x115;" horiz-adv-x="366" d="M320 1439 C320 1449 315 1454 306 1454 L268 1454 C255 1454 241 1447 238 1431 L229 1365 C224 1324 217 1295 207 1278 C202 1269 197 1265 190 1265 C175 1265 166 1281 158 1313 C153 1337 147 1377 141 1432 C138 1447 125 1454 112 1454 L74 1454 C66 1454 61 1447 61 1439 C61 1352 70 1290 88 1254 C107 1214 139 1195 190 1195 C283 1195 320 1267 320 1439 L320 1439 Z M324 0 C339 0 347 9 347 26 L347 45 C347 89 327 111 288 111 L177 111 L177 503 L249 503 C297 503 328 520 328 568 L328 588 C328 605 320 614 305 614 L177 614 L177 1022 L288 1022 C325 1022 347 1044 347 1088 L347 1107 C347 1124 339 1133 324 1133 L94 1133 C52 1133 48 1134 48 1109 L48 24 C48 4 52 0 76 0 L324 0 Z " />
<glyph glyph-name="Edotaccent" unicode="&#x116;" horiz-adv-x="385" d="M192 1541 C140 1541 113 1515 113 1474 C113 1433 140 1407 192 1407 C245 1407 272 1433 272 1474 C272 1517 245 1541 192 1541 L192 1541 Z M73 1344 C54 1344 50 1339 50 1320 L50 24 C50 4 55 0 79 0 L326 0 C341 0 349 9 349 26 L349 45 C349 89 327 111 290 111 L179 111 L179 610 L271 610 C308 610 330 633 330 676 L330 696 C330 713 322 721 307 721 L179 721 L179 1233 L290 1233 C327 1233 349 1256 349 1299 L349 1318 C349 1335 341 1344 326 1344 L73 1344 Z " />
<glyph glyph-name="edotaccent" unicode="&#x117;" horiz-adv-x="366" d="M183 1334 C131 1334 104 1308 104 1267 C104 1226 131 1200 183 1200 C236 1200 263 1226 263 1267 C263 1310 236 1334 183 1334 L183 1334 Z M324 0 C339 0 347 9 347 26 L347 45 C347 89 327 111 288 111 L177 111 L177 503 L249 503 C297 503 328 520 328 568 L328 588 C328 605 320 614 305 614 L177 614 L177 1022 L288 1022 C325 1022 347 1044 347 1088 L347 1107 C347 1124 339 1133 324 1133 L94 1133 C52 1133 48 1134 48 1109 L48 24 C48 4 52 0 76 0 L324 0 Z " />
<glyph glyph-name="Eogonek" unicode="&#x118;" horiz-adv-x="385" d="M290 1233 C327 1233 349 1256 349 1299 L349 1318 C349 1335 341 1344 326 1344 L73 1344 C54 1344 50 1339 50 1320 L50 24 C50 4 55 0 79 0 L159 0 C135 -21 123 -50 123 -88 L123 -113 C123 -225 184 -278 288 -278 C319 -278 345 -261 348 -224 L348 -203 C349 -188 342 -180 325 -180 C262 -180 230 -153 230 -109 L230 -82 C230 -30 252 0 309 0 L326 0 C341 0 349 9 349 26 L349 45 C349 89 327 111 290 111 L179 111 L179 610 L271 610 C308 610 330 633 330 676 L330 696 C330 713 322 721 307 721 L179 721 L179 1233 L290 1233 Z " />
<glyph glyph-name="eogonek" unicode="&#x119;" horiz-adv-x="366" d="M329 -180 C266 -180 234 -153 234 -109 L234 -82 C234 -30 256 0 313 0 L324 0 C339 0 347 9 347 26 L347 45 C347 89 327 111 288 111 L177 111 L177 503 L249 503 C297 503 328 520 328 568 L328 588 C328 605 320 614 305 614 L177 614 L177 1022 L288 1022 C325 1022 347 1044 347 1088 L347 1107 C347 1124 339 1133 324 1133 L94 1133 C52 1133 48 1134 48 1109 L48 24 C48 4 52 0 76 0 L163 0 C139 -21 127 -50 127 -88 L127 -113 C127 -225 188 -278 292 -278 C323 -278 349 -261 352 -224 L352 -203 C353 -188 346 -180 329 -180 L329 -180 Z " />
<glyph glyph-name="Ecaron" unicode="&#x11a;" horiz-adv-x="385" d="M318 1660 C318 1667 312 1672 305 1672 L257 1672 C237 1672 223 1659 220 1639 L192 1462 L164 1639 C161 1661 148 1672 127 1672 L80 1672 C72 1672 64 1666 67 1659 L135 1415 C137 1406 142 1402 151 1402 L233 1402 C241 1402 248 1407 249 1415 L318 1659 L318 1660 Z M73 1344 C54 1344 50 1339 50 1320 L50 24 C50 4 55 0 79 0 L326 0 C341 0 349 9 349 26 L349 45 C349 89 327 111 290 111 L179 111 L179 610 L271 610 C308 610 330 633 330 676 L330 696 C330 713 322 721 307 721 L179 721 L179 1233 L290 1233 C327 1233 349 1256 349 1299 L349 1318 C349 1335 341 1344 326 1344 L73 1344 Z " />
<glyph glyph-name="ecaron" unicode="&#x11b;" horiz-adv-x="366" d="M314 1453 C314 1460 308 1465 301 1465 L253 1465 C233 1465 219 1452 216 1432 L188 1255 L160 1432 C157 1454 144 1465 123 1465 L76 1465 C68 1465 60 1459 63 1452 L131 1208 C133 1199 138 1195 147 1195 L229 1195 C237 1195 244 1200 245 1208 L314 1452 L314 1453 Z M324 0 C339 0 347 9 347 26 L347 45 C347 89 327 111 288 111 L177 111 L177 503 L249 503 C297 503 328 520 328 568 L328 588 C328 605 320 614 305 614 L177 614 L177 1022 L288 1022 C325 1022 347 1044 347 1088 L347 1107 C347 1124 339 1133 324 1133 L94 1133 C52 1133 48 1134 48 1109 L48 24 C48 4 52 0 76 0 L324 0 Z " />
<glyph glyph-name="Gcircumflex" unicode="&#x11c;" horiz-adv-x="467" d="M290 1659 C289 1666 281 1672 274 1672 L192 1672 C184 1672 179 1668 176 1659 L108 1415 L107 1412 C107 1407 114 1402 121 1402 L168 1402 C189 1402 202 1413 205 1435 L233 1611 L261 1435 C264 1415 278 1402 298 1402 L346 1402 C354 1402 360 1407 359 1415 L290 1659 Z M236 1364 C180 1364 134 1349 98 1318 C65 1289 47 1249 47 1204 L47 141 C47 96 65 55 97 27 C131 -4 176 -19 232 -19 C288 -19 337 -2 370 27 C403 55 421 96 421 141 L421 606 C421 620 414 627 399 627 L253 627 C238 627 230 619 230 602 L230 571 C230 527 243 507 279 507 L292 507 L292 145 C292 118 274 95 234 95 C195 95 176 116 176 145 L176 1199 C176 1228 197 1250 234 1250 C271 1250 292 1228 292 1199 L292 796 C292 784 298 774 309 767 C318 761 329 758 340 758 L398 758 C413 758 421 765 421 778 L421 1204 C421 1248 403 1288 371 1317 C338 1346 291 1364 236 1364 L236 1364 Z " />
<glyph glyph-name="gcircumflex" unicode="&#x11d;" horiz-adv-x="473" d="M293 1452 C292 1459 284 1465 277 1465 L195 1465 C187 1465 182 1461 179 1452 L111 1208 L110 1205 C110 1200 117 1195 124 1195 L171 1195 C192 1195 205 1206 208 1228 L236 1404 L264 1228 C267 1208 281 1195 301 1195 L349 1195 C357 1195 363 1200 362 1208 L293 1452 Z M236 1153 C180 1153 134 1138 98 1107 C65 1078 47 1037 47 992 L47 141 C47 96 65 55 97 27 C131 -4 176 -19 232 -19 C288 -19 337 -2 370 27 C403 55 421 96 421 141 L421 548 C421 562 414 569 399 569 L335 569 L253 569 C238 569 230 561 230 544 L230 514 C230 470 243 449 279 449 L292 449 L292 145 C292 118 274 95 234 95 C195 95 176 116 176 145 L176 988 C176 1017 197 1039 234 1039 C271 1039 292 1017 292 988 L292 710 C292 698 298 688 309 681 C318 675 329 672 340 672 L398 672 C413 672 421 679 421 692 L421 992 C421 1037 403 1077 371 1106 C338 1135 291 1152 236 1153 L236 1153 Z " />
<glyph glyph-name="Gbreve" unicode="&#x11e;" horiz-adv-x="467" d="M363 1646 C363 1656 358 1661 349 1661 L311 1661 C298 1661 284 1654 281 1638 L272 1572 C267 1531 260 1502 250 1485 C245 1476 240 1472 233 1472 C218 1472 209 1488 201 1520 C196 1544 190 1584 184 1639 C181 1654 168 1661 155 1661 L117 1661 C109 1661 104 1654 104 1646 C104 1559 113 1497 131 1461 C150 1421 182 1402 233 1402 C326 1402 363 1474 363 1646 L363 1646 Z M236 1364 C180 1364 134 1349 98 1318 C65 1289 47 1249 47 1204 L47 141 C47 96 65 55 97 27 C131 -4 176 -19 232 -19 C288 -19 337 -2 370 27 C403 55 421 96 421 141 L421 606 C421 620 414 627 399 627 L253 627 C238 627 230 619 230 602 L230 571 C230 527 243 507 279 507 L292 507 L292 145 C292 118 274 95 234 95 C195 95 176 116 176 145 L176 1199 C176 1228 197 1250 234 1250 C271 1250 292 1228 292 1199 L292 796 C292 784 298 774 309 767 C318 761 329 758 340 758 L398 758 C413 758 421 765 421 778 L421 1204 C421 1248 403 1288 371 1317 C338 1346 291 1364 236 1364 L236 1364 Z " />
<glyph glyph-name="gbreve" unicode="&#x11f;" horiz-adv-x="473" d="M366 1439 C366 1449 361 1454 352 1454 L314 1454 C301 1454 287 1447 284 1431 L275 1365 C270 1324 263 1295 253 1278 C248 1269 243 1265 236 1265 C221 1265 212 1281 204 1313 C199 1337 193 1377 187 1432 C184 1447 171 1454 158 1454 L120 1454 C112 1454 107 1447 107 1439 C107 1352 116 1290 134 1254 C153 1214 185 1195 236 1195 C329 1195 366 1267 366 1439 L366 1439 Z M236 1153 C180 1153 134 1138 98 1107 C65 1078 47 1037 47 992 L47 141 C47 96 65 55 97 27 C131 -4 176 -19 232 -19 C288 -19 337 -2 370 27 C403 55 421 96 421 141 L421 548 C421 562 414 569 399 569 L335 569 L253 569 C238 569 230 561 230 544 L230 514 C230 470 243 449 279 449 L292 449 L292 145 C292 118 274 95 234 95 C195 95 176 116 176 145 L176 988 C176 1017 197 1039 234 1039 C271 1039 292 1017 292 988 L292 710 C292 698 298 688 309 681 C318 675 329 672 340 672 L398 672 C413 672 421 679 421 692 L421 992 C421 1037 403 1077 371 1106 C338 1135 291 1152 236 1153 L236 1153 Z " />
<glyph glyph-name="Gdotaccent" unicode="&#x120;" horiz-adv-x="467" d="M233 1541 C181 1541 154 1515 154 1474 C154 1433 181 1407 233 1407 C286 1407 313 1433 313 1474 C313 1517 286 1541 233 1541 L233 1541 Z M236 1364 C180 1364 134 1349 98 1318 C65 1289 47 1249 47 1204 L47 141 C47 96 65 55 97 27 C131 -4 176 -19 232 -19 C288 -19 337 -2 370 27 C403 55 421 96 421 141 L421 606 C421 620 414 627 399 627 L253 627 C238 627 230 619 230 602 L230 571 C230 527 243 507 279 507 L292 507 L292 145 C292 118 274 95 234 95 C195 95 176 116 176 145 L176 1199 C176 1228 197 1250 234 1250 C271 1250 292 1228 292 1199 L292 796 C292 784 298 774 309 767 C318 761 329 758 340 758 L398 758 C413 758 421 765 421 778 L421 1204 C421 1248 403 1288 371 1317 C338 1346 291 1364 236 1364 L236 1364 Z " />
<glyph glyph-name="gdotaccent" unicode="&#x121;" horiz-adv-x="473" d="M236 1334 C184 1334 157 1308 157 1267 C157 1226 184 1200 236 1200 C289 1200 316 1226 316 1267 C316 1310 289 1334 236 1334 L236 1334 Z M236 1153 C180 1153 134 1138 98 1107 C65 1078 47 1037 47 992 L47 141 C47 96 65 55 97 27 C131 -4 176 -19 232 -19 C288 -19 337 -2 370 27 C403 55 421 96 421 141 L421 548 C421 562 414 569 399 569 L335 569 L253 569 C238 569 230 561 230 544 L230 514 C230 470 243 449 279 449 L292 449 L292 145 C292 118 274 95 234 95 C195 95 176 116 176 145 L176 988 C176 1017 197 1039 234 1039 C271 1039 292 1017 292 988 L292 710 C292 698 298 688 309 681 C318 675 329 672 340 672 L398 672 C413 672 421 679 421 692 L421 992 C421 1037 403 1077 371 1106 C338 1135 291 1152 236 1153 L236 1153 Z " />
<glyph glyph-name="Gcommaaccent" unicode="&#x122;" horiz-adv-x="467" d="M232 1414 C232 1407 236 1403 243 1403 C259 1403 273 1415 286 1438 C298 1462 304 1491 304 1525 C304 1566 277 1597 232 1597 C188 1597 162 1576 162 1537 C162 1501 188 1479 232 1478 L232 1414 Z M236 1364 C180 1364 134 1349 98 1318 C65 1289 47 1249 47 1204 L47 141 C47 96 65 55 97 27 C131 -4 176 -19 232 -19 C288 -19 337 -2 370 27 C403 55 421 96 421 141 L421 606 C421 620 414 627 399 627 L253 627 C238 627 230 619 230 602 L230 571 C230 527 243 507 279 507 L292 507 L292 145 C292 118 274 95 234 95 C195 95 176 116 176 145 L176 1199 C176 1228 197 1250 234 1250 C271 1250 292 1228 292 1199 L292 796 C292 784 298 774 309 767 C318 761 329 758 340 758 L398 758 C413 758 421 765 421 778 L421 1204 C421 1248 403 1288 371 1317 C338 1346 291 1364 236 1364 L236 1364 Z " />
<glyph glyph-name="gcommaaccent" unicode="&#x123;" horiz-adv-x="473" d="M226 1210 C226 1203 230 1199 237 1199 C253 1199 267 1211 280 1234 C292 1258 298 1287 298 1321 C298 1362 271 1393 226 1393 C182 1393 156 1372 156 1333 C156 1297 182 1275 226 1274 L226 1210 Z M236 1153 C180 1153 134 1138 98 1107 C65 1078 47 1037 47 992 L47 141 C47 96 65 55 97 27 C131 -4 176 -19 232 -19 C288 -19 337 -2 370 27 C403 55 421 96 421 141 L421 548 C421 562 414 569 399 569 L335 569 L253 569 C238 569 230 561 230 544 L230 514 C230 470 243 449 279 449 L292 449 L292 145 C292 118 274 95 234 95 C195 95 176 116 176 145 L176 988 C176 1017 197 1039 234 1039 C271 1039 292 1017 292 988 L292 710 C292 698 298 688 309 681 C318 675 329 672 340 672 L398 672 C413 672 421 679 421 692 L421 992 C421 1037 403 1077 371 1106 C338 1135 291 1152 236 1153 L236 1153 Z " />
<glyph glyph-name="Hcircumflex" unicode="&#x124;" horiz-adv-x="465" d="M289 1659 C288 1666 280 1672 273 1672 L191 1672 C183 1672 178 1668 175 1659 L107 1415 L106 1412 C106 1407 113 1402 120 1402 L167 1402 C188 1402 201 1413 204 1435 L232 1611 L260 1435 C263 1415 277 1402 297 1402 L345 1402 C353 1402 359 1407 358 1415 L289 1659 Z M417 1321 C417 1338 413 1344 394 1344 L338 1344 C310 1344 288 1325 288 1294 L288 738 L177 738 L177 1294 C177 1325 155 1344 127 1344 L71 1344 C52 1344 48 1338 48 1321 L48 24 C48 7 53 0 72 0 L125 0 C154 0 177 20 177 51 L177 630 L288 630 L288 51 C288 20 311 0 340 0 L393 0 C412 0 417 7 417 24 L417 1321 Z " />
<glyph glyph-name="hcircumflex" unicode="&#x125;" horiz-adv-x="465" d="M289 1452 C288 1459 280 1465 273 1465 L191 1465 C183 1465 178 1461 175 1452 L107 1208 L106 1205 C106 1200 113 1195 120 1195 L167 1195 C188 1195 201 1206 204 1228 L232 1404 L260 1228 C263 1208 277 1195 297 1195 L345 1195 C353 1195 359 1200 358 1208 L289 1452 Z M417 1109 C417 1128 413 1133 394 1133 L339 1133 C311 1133 288 1112 288 1084 L288 621 L177 621 L177 1081 C177 1112 157 1133 126 1133 L71 1133 C52 1133 48 1128 48 1109 L48 24 C48 5 52 0 71 0 L126 0 C154 0 177 21 177 49 L177 514 L288 514 L288 48 C288 20 311 0 339 0 L394 0 C413 0 417 5 417 24 L417 1109 Z " />
<glyph glyph-name="Hbar" unicode="&#x126;" horiz-adv-x="465" d="M417 1321 C417 1338 413 1344 394 1344 L338 1344 C310 1344 288 1325 288 1294 L288 1003 L177 1003 L177 1294 C177 1325 155 1344 127 1344 L71 1344 C52 1344 48 1338 48 1321 L48 24 C48 7 53 0 72 0 L125 0 C154 0 177 20 177 51 L177 630 L288 630 L288 51 C288 20 311 0 340 0 L393 0 C412 0 417 7 417 24 L417 1321 Z M177 911 L288 911 L288 738 L177 738 L177 911 Z " />
<glyph glyph-name="hbar" unicode="&#x127;" horiz-adv-x="465" d="M417 1109 C417 1128 413 1133 394 1133 L339 1133 C311 1133 288 1112 288 1084 L288 836 L177 836 L177 1081 C177 1112 157 1133 126 1133 L71 1133 C52 1133 48 1128 48 1109 L48 24 C48 5 52 0 71 0 L126 0 C154 0 177 21 177 49 L177 514 L288 514 L288 48 C288 20 311 0 339 0 L394 0 C413 0 417 5 417 24 L417 1109 Z M177 745 L288 745 L288 621 L177 621 L177 745 Z " />
<glyph glyph-name="Itilde" unicode="&#x128;" horiz-adv-x="229" d="M177 1430 C191 1430 204 1427 216 1421 C217 1420 228 1411 245 1411 C260 1411 269 1417 269 1432 L269 1451 C269 1476 259 1495 238 1508 C221 1518 198 1523 169 1523 C145 1523 130 1518 109 1507 C88 1496 75 1491 56 1491 C39 1491 31 1495 19 1500 C16 1501 6 1509 -11 1509 C-26 1509 -33 1502 -33 1488 L-33 1468 C-33 1443 -23 1425 -3 1414 C15 1403 38 1397 66 1397 C84 1397 103 1403 123 1414 C143 1425 158 1430 177 1430 L177 1430 Z M179 1321 C179 1338 175 1344 156 1344 L101 1344 C73 1344 50 1323 50 1294 L50 29 C50 10 59 0 78 0 L150 0 C169 0 179 10 179 29 L179 1321 Z " />
<glyph glyph-name="itilde" unicode="&#x129;" horiz-adv-x="225" d="M175 1223 C189 1223 202 1220 214 1214 C215 1213 226 1204 243 1204 C258 1204 267 1210 267 1225 L267 1244 C267 1269 257 1288 236 1301 C219 1311 196 1316 167 1316 C143 1316 128 1311 107 1300 C86 1289 73 1284 54 1284 C37 1284 29 1288 17 1293 C14 1294 4 1302 -13 1302 C-28 1302 -35 1295 -35 1281 L-35 1261 C-35 1236 -25 1218 -5 1207 C13 1196 36 1190 64 1190 C82 1190 101 1196 121 1207 C141 1218 156 1223 175 1223 L175 1223 Z M177 1110 C177 1129 174 1133 154 1133 L99 1133 C71 1133 48 1111 48 1083 L48 29 C48 10 57 0 76 0 L148 0 C167 0 177 10 177 29 L177 1110 Z " />
<glyph glyph-name="Imacron" unicode="&#x12a;" horiz-adv-x="229" d="M-1 1491 C-14 1491 -20 1485 -20 1473 L-20 1454 C-20 1422 -1 1400 27 1400 L202 1400 C230 1400 249 1422 249 1454 L249 1473 C249 1484 241 1491 230 1491 L-1 1491 Z M179 1321 C179 1338 175 1344 156 1344 L101 1344 C73 1344 50 1323 50 1294 L50 29 C50 10 59 0 78 0 L150 0 C169 0 179 10 179 29 L179 1321 Z " />
<glyph glyph-name="imacron" unicode="&#x12b;" horiz-adv-x="225" d="M-3 1284 C-16 1284 -22 1278 -22 1266 L-22 1247 C-22 1215 -3 1193 25 1193 L200 1193 C228 1193 247 1215 247 1247 L247 1266 C247 1277 239 1284 228 1284 L-3 1284 Z M177 1110 C177 1129 174 1133 154 1133 L99 1133 C71 1133 48 1111 48 1083 L48 29 C48 10 57 0 76 0 L148 0 C167 0 177 10 177 29 L177 1110 Z " />
<glyph glyph-name="Ibreve" unicode="&#x12c;" horiz-adv-x="229" d="M244 1646 C244 1656 239 1661 230 1661 L192 1661 C179 1661 165 1654 162 1638 L153 1572 C148 1531 141 1502 131 1485 C126 1476 121 1472 114 1472 C99 1472 90 1488 82 1520 C77 1544 71 1584 65 1639 C62 1654 49 1661 36 1661 L-2 1661 C-10 1661 -15 1654 -15 1646 C-15 1559 -6 1497 12 1461 C31 1421 63 1402 114 1402 C207 1402 244 1474 244 1646 L244 1646 Z M179 1321 C179 1338 175 1344 156 1344 L101 1344 C73 1344 50 1323 50 1294 L50 29 C50 10 59 0 78 0 L150 0 C169 0 179 10 179 29 L179 1321 Z " />
<glyph glyph-name="ibreve" unicode="&#x12d;" horiz-adv-x="225" d="M242 1439 C242 1449 237 1454 228 1454 L190 1454 C177 1454 163 1447 160 1431 L151 1365 C146 1324 139 1295 129 1278 C124 1269 119 1265 112 1265 C97 1265 88 1281 80 1313 C75 1337 69 1377 63 1432 C60 1447 47 1454 34 1454 L-4 1454 C-12 1454 -17 1447 -17 1439 C-17 1352 -8 1290 10 1254 C29 1214 61 1195 112 1195 C205 1195 242 1267 242 1439 L242 1439 Z M177 1110 C177 1129 174 1133 154 1133 L99 1133 C71 1133 48 1111 48 1083 L48 29 C48 10 57 0 76 0 L148 0 C167 0 177 10 177 29 L177 1110 Z " />
<glyph glyph-name="Iogonek" unicode="&#x12e;" horiz-adv-x="229" d="M158 -180 C95 -180 63 -153 63 -109 L63 -82 C63 -30 85 0 142 0 L150 0 C169 0 179 10 179 29 L179 1321 C179 1338 175 1344 156 1344 L101 1344 C73 1344 50 1323 50 1294 L50 29 C29 23 13 16 2 8 C-29 -13 -44 -45 -44 -88 L-44 -113 C-44 -225 17 -278 121 -278 C152 -278 178 -261 181 -224 L181 -203 C182 -188 175 -180 158 -180 L158 -180 Z " />
<glyph glyph-name="iogonek" unicode="&#x12f;" horiz-adv-x="225" d="M168 -180 C105 -180 73 -153 73 -109 L73 -82 C73 -30 95 0 152 0 C169 2 177 12 177 29 L177 1110 C177 1129 174 1133 154 1133 L99 1133 C71 1133 48 1111 48 1083 L48 29 L48 25 C34 21 22 15 12 8 C-19 -13 -34 -45 -34 -88 L-34 -113 C-34 -225 27 -278 131 -278 C162 -278 188 -261 191 -224 L191 -203 C192 -188 185 -180 168 -180 L168 -180 Z " />
<glyph glyph-name="Idot" unicode="&#x130;" horiz-adv-x="229" d="M114 1541 C62 1541 35 1515 35 1474 C35 1433 62 1407 114 1407 C167 1407 194 1433 194 1474 C194 1517 167 1541 114 1541 L114 1541 Z M179 1321 C179 1338 175 1344 156 1344 L101 1344 C73 1344 50 1323 50 1294 L50 29 C50 10 59 0 78 0 L150 0 C169 0 179 10 179 29 L179 1321 Z " />
<glyph glyph-name="dotlessi" unicode="&#x131;" horiz-adv-x="225" d="M177 1110 C177 1129 174 1133 154 1133 L99 1133 C71 1133 48 1111 48 1083 L48 29 C48 10 57 0 76 0 L148 0 C167 0 177 10 177 29 L177 1110 Z " />
<glyph glyph-name="IJ" unicode="&#x132;" horiz-adv-x="697" d="M179 1321 C179 1338 175 1344 156 1344 L101 1344 C73 1344 50 1323 50 1294 L50 29 C50 10 59 0 78 0 L150 0 C169 0 179 10 179 29 L179 1321 Z M650 1320 C650 1339 646 1344 627 1344 L572 1344 C544 1344 521 1323 521 1295 L521 146 C521 121 503 95 460 95 C424 96 406 117 406 145 L406 589 C406 602 400 612 389 619 C381 624 371 627 358 627 L299 627 C284 627 277 620 277 607 L277 141 C277 104 293 65 322 34 C356 -1 404 -19 465 -19 C522 -19 568 -2 603 31 C634 60 650 101 650 142 L650 1320 Z " />
<glyph glyph-name="ij" unicode="&#x133;" horiz-adv-x="692" d="M177 1110 C177 1129 174 1133 154 1133 L99 1133 C71 1133 48 1111 48 1083 L48 29 C48 10 57 0 76 0 L148 0 C167 0 177 10 177 29 L177 1110 Z M646 1109 C646 1128 642 1133 623 1133 L568 1133 C540 1133 517 1112 517 1084 L517 146 C517 121 499 95 456 95 C420 96 402 117 402 145 L402 589 C402 602 396 612 385 619 C377 624 367 627 354 627 L295 627 C280 627 273 620 273 607 L273 141 C273 104 289 65 318 34 C352 -1 400 -19 461 -19 C518 -19 564 -2 599 31 C630 60 646 101 646 142 L646 1109 Z " />
<glyph glyph-name="Jcircumflex" unicode="&#x134;" horiz-adv-x="468" d="M414 1659 C413 1666 405 1672 398 1672 L316 1672 C308 1672 303 1668 300 1659 L232 1415 L231 1412 C231 1407 238 1402 245 1402 L292 1402 C313 1402 326 1413 329 1435 L357 1611 L385 1435 C388 1415 402 1402 422 1402 L470 1402 C478 1402 484 1407 483 1415 L414 1659 Z M421 1320 C421 1339 417 1344 398 1344 L343 1344 C315 1344 292 1323 292 1295 L292 146 C292 121 274 95 231 95 C195 96 177 117 177 145 L177 589 C177 602 171 612 160 619 C152 624 142 627 129 627 L70 627 C55 627 48 620 48 607 L48 141 C48 104 64 65 93 34 C127 -1 175 -19 236 -19 C293 -19 339 -2 374 31 C405 60 421 101 421 142 L421 1320 Z " />
<glyph glyph-name="jcircumflex" unicode="&#x135;" horiz-adv-x="468" d="M364 1452 C363 1459 355 1465 348 1465 L266 1465 C258 1465 253 1461 250 1452 L182 1208 L181 1205 C181 1200 188 1195 195 1195 L242 1195 C263 1195 276 1206 279 1228 L307 1404 L335 1228 C338 1208 352 1195 372 1195 L420 1195 C428 1195 434 1200 433 1208 L364 1452 Z M421 1109 C421 1128 417 1133 398 1133 L343 1133 C315 1133 292 1112 292 1084 L292 146 C292 121 274 95 231 95 C195 96 177 117 177 145 L177 589 C177 602 171 612 160 619 C152 624 142 627 129 627 L70 627 C55 627 48 620 48 607 L48 141 C48 104 64 65 93 34 C127 -1 175 -19 236 -19 C293 -19 339 -2 374 31 C405 60 421 101 421 142 L421 1109 Z " />
<glyph glyph-name="Kcommaaccent" unicode="&#x136;" horiz-adv-x="469" d="M233 1414 C233 1407 237 1403 244 1403 C260 1403 274 1415 287 1438 C299 1462 305 1491 305 1525 C305 1566 278 1597 233 1597 C189 1597 163 1576 163 1537 C163 1501 189 1479 233 1478 L233 1414 Z M310 48 C313 20 341 0 369 0 L429 0 C444 0 448 3 448 12 C448 17 448 20 447 23 L343 681 L447 1321 C448 1324 448 1327 448 1332 C448 1341 444 1344 429 1344 L369 1344 C341 1344 314 1324 310 1296 L221 737 L177 737 L177 1295 C177 1323 154 1344 126 1344 L71 1344 C52 1344 48 1339 48 1320 L48 24 C48 5 52 0 71 0 L126 0 C154 0 177 21 177 49 L177 630 L220 630 L310 48 Z " />
<glyph glyph-name="kcommaaccent" unicode="&#x137;" horiz-adv-x="473" d="M235 1207 C235 1200 239 1196 246 1196 C262 1196 276 1208 289 1231 C301 1255 307 1284 307 1318 C307 1359 280 1390 235 1390 C191 1390 165 1369 165 1330 C165 1294 191 1272 235 1271 L235 1207 Z M126 0 C154 0 177 21 177 49 L177 519 L222 519 L310 40 C314 17 341 0 369 0 L429 0 C444 0 448 3 448 10 C448 14 448 17 447 20 L343 574 L447 1113 C448 1116 448 1119 448 1123 C448 1130 444 1133 429 1133 L369 1133 C341 1133 314 1116 310 1093 L222 626 L177 626 L177 1087 C177 1112 157 1133 126 1133 L71 1133 C52 1133 48 1128 48 1109 L48 24 C48 5 52 0 71 0 L126 0 Z " />
<glyph glyph-name="kgreenlandic" unicode="&#x138;" horiz-adv-x="473" d="M126 0 C154 0 177 21 177 49 L177 519 L222 519 L310 40 C314 17 341 0 369 0 L429 0 C444 0 448 3 448 10 C448 14 448 17 447 20 L343 574 L447 1113 C448 1116 448 1119 448 1123 C448 1130 444 1133 429 1133 L369 1133 C341 1133 314 1116 310 1093 L222 626 L177 626 L177 1087 C177 1112 157 1133 126 1133 L71 1133 C52 1133 48 1128 48 1109 L48 24 C48 5 52 0 71 0 L126 0 Z " />
<glyph glyph-name="Lacute" unicode="&#x139;" horiz-adv-x="369" d="M86 1421 C86 1409 93 1403 106 1403 L123 1403 C152 1403 164 1418 177 1453 L233 1619 C236 1628 238 1635 238 1641 C238 1661 223 1671 194 1671 L160 1671 C144 1671 131 1661 128 1648 L87 1427 L86 1421 Z M48 24 C48 7 52 0 71 0 L324 0 C339 0 347 9 347 26 L347 45 C347 89 327 111 288 111 L177 111 L177 1295 C177 1323 154 1344 126 1344 L71 1344 C52 1344 48 1339 48 1320 L48 24 Z " />
<glyph glyph-name="lacute" unicode="&#x13a;" horiz-adv-x="351" d="M86 1214 C86 1202 93 1196 106 1196 L123 1196 C152 1196 164 1211 177 1246 L233 1412 C236 1421 238 1428 238 1434 C238 1454 223 1464 194 1464 L160 1464 C144 1464 131 1454 128 1441 L87 1220 L86 1214 Z M321 0 C336 0 343 9 343 26 L343 45 C343 89 324 111 285 111 L177 111 L177 1081 C177 1112 157 1133 126 1133 L71 1133 C52 1133 48 1128 48 1109 L48 25 C48 5 52 0 71 0 L321 0 Z " />
<glyph glyph-name="Lcommaaccent" unicode="&#x13b;" horiz-adv-x="369" d="M48 24 C48 7 52 0 71 0 L324 0 C339 0 347 9 347 26 L347 45 C347 89 327 111 288 111 L177 111 L177 1295 C177 1323 154 1344 126 1344 L71 1344 C52 1344 48 1339 48 1320 L48 24 Z M183 -282 C183 -289 187 -293 194 -293 C210 -293 224 -281 237 -258 C249 -234 255 -205 255 -171 C255 -130 228 -99 183 -99 C139 -99 113 -120 113 -159 C113 -195 139 -217 183 -218 L183 -282 Z " />
<glyph glyph-name="lcommaaccent" unicode="&#x13c;" horiz-adv-x="351" d="M321 0 C336 0 343 9 343 26 L343 45 C343 89 324 111 285 111 L177 111 L177 1081 C177 1112 157 1133 126 1133 L71 1133 C52 1133 48 1128 48 1109 L48 25 C48 5 52 0 71 0 L321 0 Z M150 -270 C150 -277 154 -281 161 -281 C177 -281 191 -269 204 -246 C216 -222 222 -193 222 -159 C222 -118 195 -87 150 -87 C106 -87 80 -108 80 -147 C80 -183 106 -205 150 -206 L150 -270 Z " />
<glyph glyph-name="Lcaron" unicode="&#x13d;" horiz-adv-x="369" d="M318 1660 C318 1667 312 1672 305 1672 L257 1672 C237 1672 223 1659 220 1639 L192 1462 L164 1639 C161 1661 148 1672 127 1672 L80 1672 C72 1672 64 1666 67 1659 L135 1415 C137 1406 142 1402 151 1402 L233 1402 C241 1402 248 1407 249 1415 L318 1659 L318 1660 Z M48 24 C48 7 52 0 71 0 L324 0 C339 0 347 9 347 26 L347 45 C347 89 327 111 288 111 L177 111 L177 1295 C177 1323 154 1344 126 1344 L71 1344 C52 1344 48 1339 48 1320 L48 24 Z " />
<glyph glyph-name="lcaron" unicode="&#x13e;" horiz-adv-x="354" d="M318 1451 C318 1458 312 1463 305 1463 L257 1463 C237 1463 223 1450 220 1430 L192 1253 L164 1430 C161 1452 148 1463 127 1463 L80 1463 C72 1463 64 1457 67 1450 L135 1206 C137 1197 142 1193 151 1193 L233 1193 C241 1193 248 1198 249 1206 L318 1450 L318 1451 Z M321 0 C336 0 343 9 343 26 L343 45 C343 89 324 111 285 111 L177 111 L177 1081 C177 1112 157 1133 126 1133 L71 1133 C52 1133 48 1128 48 1109 L48 25 C48 5 52 0 71 0 L321 0 Z " />
<glyph glyph-name="Ldot" unicode="&#x13f;" horiz-adv-x="369" d="M48 24 C48 7 52 0 71 0 L324 0 C339 0 347 9 347 26 L347 45 C347 89 327 111 288 111 L177 111 L177 1295 C177 1323 154 1344 126 1344 L71 1344 C52 1344 48 1339 48 1320 L48 24 Z M305 711 C257 711 231 686 231 645 C231 604 257 578 305 578 C356 578 380 602 380 645 C380 689 355 711 305 711 L305 711 Z " />
<glyph glyph-name="ldot" unicode="&#x140;" horiz-adv-x="359" d="M321 0 C336 0 343 9 343 26 L343 45 C343 89 324 111 285 111 L177 111 L177 1081 C177 1112 157 1133 126 1133 L71 1133 C52 1133 48 1128 48 1109 L48 25 C48 5 52 0 71 0 L321 0 Z M290 636 C241 636 216 613 216 570 C216 529 241 504 290 504 C339 504 364 529 364 570 C364 613 339 636 290 636 L290 636 Z " />
<glyph glyph-name="Lslash" unicode="&#x141;" horiz-adv-x="369" d="M48 682 L18 673 C-10 664 -30 635 -30 607 L-30 568 C-30 556 -26 550 -17 550 C-15 550 -11 551 -6 552 L48 568 L48 24 C48 7 52 0 71 0 L324 0 C339 0 347 9 347 26 L347 45 C347 89 327 111 288 111 L177 111 L177 608 L241 628 C270 637 290 668 290 701 L290 735 C290 747 287 753 280 753 C277 753 273 752 268 750 L177 722 L177 1295 C177 1323 154 1344 126 1344 L71 1344 C52 1344 48 1339 48 1320 L48 682 Z " />
<glyph glyph-name="lslash" unicode="&#x142;" horiz-adv-x="369" d="M321 0 C336 0 343 9 343 26 L343 45 C343 89 324 111 285 111 L177 111 L177 537 L241 557 C270 566 290 597 290 630 L290 664 C290 676 287 682 280 682 C277 682 273 681 268 679 L177 651 L177 1081 C177 1112 157 1133 126 1133 L71 1133 C52 1133 48 1128 48 1109 L48 611 L18 602 C-10 593 -30 564 -30 536 L-30 497 C-30 485 -26 479 -17 479 C-15 479 -11 480 -6 481 L48 497 L48 25 C48 5 52 0 71 0 L321 0 Z " />
<glyph glyph-name="Nacute" unicode="&#x143;" horiz-adv-x="465" d="M189 1421 C189 1409 196 1403 209 1403 L226 1403 C255 1403 267 1418 280 1453 L336 1619 C339 1628 341 1635 341 1641 C341 1661 326 1671 297 1671 L263 1671 C247 1671 234 1661 231 1648 L190 1427 L189 1421 Z M417 1321 C417 1338 413 1344 394 1344 L338 1344 C310 1344 287 1323 288 1294 L306 514 L176 1301 C171 1328 152 1344 127 1344 L71 1344 C52 1344 48 1338 48 1321 L48 24 C48 7 53 0 72 0 L125 0 C154 0 178 20 177 51 L159 831 L288 44 C293 17 313 0 340 0 L393 0 C412 0 417 7 417 24 L417 1321 Z " />
<glyph glyph-name="nacute" unicode="&#x144;" horiz-adv-x="465" d="M192 1214 C192 1202 199 1196 212 1196 L229 1196 C258 1196 270 1211 283 1246 L339 1412 C342 1421 344 1428 344 1434 C344 1454 329 1464 300 1464 L266 1464 C250 1464 237 1454 234 1441 L193 1220 L192 1214 Z M417 1110 C417 1127 413 1133 394 1133 L338 1133 C310 1133 285 1111 288 1083 L311 405 L184 1052 C173 1106 154 1133 127 1133 L71 1133 C52 1133 48 1127 48 1110 L48 24 C48 7 53 0 72 0 L125 0 C156 0 180 22 177 51 L154 731 L283 76 C288 52 294 35 301 24 C311 8 324 0 340 0 L393 0 C412 0 417 7 417 24 L417 1110 Z " />
<glyph glyph-name="Ncommaaccent" unicode="&#x145;" horiz-adv-x="465" d="M417 1321 C417 1338 413 1344 394 1344 L338 1344 C310 1344 287 1323 288 1294 L306 514 L176 1301 C171 1328 152 1344 127 1344 L71 1344 C52 1344 48 1338 48 1321 L48 24 C48 7 53 0 72 0 L125 0 C154 0 178 20 177 51 L159 831 L288 44 C293 17 313 0 340 0 L393 0 C412 0 417 7 417 24 L417 1321 Z M231 -275 C231 -282 235 -286 242 -286 C258 -286 272 -274 285 -251 C297 -227 303 -198 303 -164 C303 -123 276 -92 231 -92 C187 -92 161 -113 161 -152 C161 -188 187 -210 231 -211 L231 -275 Z " />
<glyph glyph-name="ncommaaccent" unicode="&#x146;" horiz-adv-x="465" d="M417 1110 C417 1127 413 1133 394 1133 L338 1133 C310 1133 285 1111 288 1083 L311 405 L184 1052 C173 1106 154 1133 127 1133 L71 1133 C52 1133 48 1127 48 1110 L48 24 C48 7 53 0 72 0 L125 0 C156 0 180 22 177 51 L154 731 L283 76 C288 52 294 35 301 24 C311 8 324 0 340 0 L393 0 C412 0 417 7 417 24 L417 1110 Z M231 -267 C231 -274 235 -278 242 -278 C258 -278 272 -266 285 -243 C297 -219 303 -190 303 -156 C303 -115 276 -84 231 -84 C187 -84 161 -105 161 -144 C161 -180 187 -202 231 -203 L231 -267 Z " />
<glyph glyph-name="Ncaron" unicode="&#x147;" horiz-adv-x="465" d="M358 1660 C358 1667 352 1672 345 1672 L297 1672 C277 1672 263 1659 260 1639 L232 1462 L204 1639 C201 1661 188 1672 167 1672 L120 1672 C112 1672 104 1666 107 1659 L175 1415 C177 1406 182 1402 191 1402 L273 1402 C281 1402 288 1407 289 1415 L358 1659 L358 1660 Z M417 1321 C417 1338 413 1344 394 1344 L338 1344 C310 1344 287 1323 288 1294 L306 514 L176 1301 C171 1328 152 1344 127 1344 L71 1344 C52 1344 48 1338 48 1321 L48 24 C48 7 53 0 72 0 L125 0 C154 0 178 20 177 51 L159 831 L288 44 C293 17 313 0 340 0 L393 0 C412 0 417 7 417 24 L417 1321 Z " />
<glyph glyph-name="ncaron" unicode="&#x148;" horiz-adv-x="465" d="M358 1453 C358 1460 352 1465 345 1465 L297 1465 C277 1465 263 1452 260 1432 L232 1255 L204 1432 C201 1454 188 1465 167 1465 L120 1465 C112 1465 104 1459 107 1452 L175 1208 C177 1199 182 1195 191 1195 L273 1195 C281 1195 288 1200 289 1208 L358 1452 L358 1453 Z M417 1110 C417 1127 413 1133 394 1133 L338 1133 C310 1133 285 1111 288 1083 L311 405 L184 1052 C173 1106 154 1133 127 1133 L71 1133 C52 1133 48 1127 48 1110 L48 24 C48 7 53 0 72 0 L125 0 C156 0 180 22 177 51 L154 731 L283 76 C288 52 294 35 301 24 C311 8 324 0 340 0 L393 0 C412 0 417 7 417 24 L417 1110 Z " />
<glyph glyph-name="napostrophe" unicode="&#x149;" horiz-adv-x="465" d="M450 1105 C450 1098 454 1094 461 1094 C477 1094 491 1106 504 1129 C516 1153 522 1182 522 1216 C522 1257 495 1288 450 1288 C406 1288 380 1267 380 1228 C380 1192 406 1170 450 1169 L450 1105 Z M417 1110 C417 1127 413 1133 394 1133 L338 1133 C310 1133 285 1111 288 1083 L311 405 L184 1052 C173 1106 154 1133 127 1133 L71 1133 C52 1133 48 1127 48 1110 L48 24 C48 7 53 0 72 0 L125 0 C156 0 180 22 177 51 L154 731 L283 76 C288 52 294 35 301 24 C311 8 324 0 340 0 L393 0 C412 0 417 7 417 24 L417 1110 Z " />
<glyph glyph-name="Eng" unicode="&#x14a;" horiz-adv-x="465" d="M417 1321 C417 1338 413 1344 394 1344 L338 1344 C310 1344 287 1323 288 1294 L306 514 L183 1256 C172 1319 163 1344 127 1344 L71 1344 C52 1344 48 1338 48 1321 L48 26 C48 9 56 0 72 0 L125 0 C154 0 178 20 177 51 L159 831 C177 729 198 604 223 456 L268 175 C281 83 288 25 288 0 L288 -160 C288 -173 284 -184 277 -193 C268 -205 252 -211 230 -211 C193 -208 176 -187 176 -160 L176 -94 C176 -81 170 -71 159 -64 C151 -59 141 -56 128 -56 L70 -56 C55 -56 47 -63 47 -76 L47 -128 C47 -167 57 -213 82 -249 C115 -299 166 -324 236 -324 C348 -324 417 -265 417 -165 L417 1321 Z " />
<glyph glyph-name="eng" unicode="&#x14b;" horiz-adv-x="465" d="M417 1114 C417 1131 413 1137 394 1137 L338 1137 C310 1137 285 1115 288 1088 L311 405 L194 1016 C193 1022 190 1034 186 1053 C182 1072 177 1087 172 1099 C161 1124 146 1137 127 1137 L71 1137 C52 1137 48 1131 48 1114 L48 70 C48 52 50 37 53 25 C56 8 63 0 72 0 L125 0 C156 0 180 22 177 51 L154 731 C171 654 193 545 221 405 C244 286 259 205 267 160 C281 75 288 22 288 3 L288 -160 C288 -173 284 -184 277 -193 C268 -205 252 -211 230 -211 C193 -208 176 -187 176 -160 L176 -94 C176 -81 170 -71 159 -64 C151 -59 141 -56 128 -56 L70 -56 C55 -56 47 -63 47 -76 L47 -164 C47 -201 63 -242 92 -271 C126 -306 174 -324 236 -324 C295 -324 341 -305 372 -274 C401 -245 417 -205 417 -164 L417 1114 Z " />
<glyph glyph-name="Omacron" unicode="&#x14c;" horiz-adv-x="469" d="M119 1491 C106 1491 100 1485 100 1473 L100 1454 C100 1422 119 1400 147 1400 L322 1400 C350 1400 369 1422 369 1454 L369 1473 C369 1484 361 1491 350 1491 L119 1491 Z M48 143 C48 103 63 62 94 33 C128 -1 175 -18 235 -18 C294 -18 341 -1 377 34 C407 64 422 100 422 143 L422 1203 C422 1244 406 1286 375 1314 C343 1345 294 1363 235 1363 C176 1363 128 1345 96 1314 C65 1286 48 1246 48 1203 L48 143 Z M177 1199 C177 1228 196 1250 235 1250 C272 1250 293 1228 293 1199 L293 146 C293 117 273 95 236 95 C197 95 177 117 177 146 L177 1199 Z " />
<glyph glyph-name="omacron" unicode="&#x14d;" horiz-adv-x="473" d="M121 1284 C108 1284 102 1278 102 1266 L102 1247 C102 1215 121 1193 149 1193 L324 1193 C352 1193 371 1215 371 1247 L371 1266 C371 1277 363 1284 352 1284 L121 1284 Z M50 143 C50 103 65 62 96 33 C130 -1 177 -18 237 -18 C296 -18 343 -1 378 34 C408 64 423 100 423 143 L423 992 C423 1035 408 1075 377 1104 C342 1137 295 1153 236 1153 C178 1153 132 1137 98 1104 C66 1075 50 1033 50 992 L50 143 Z M179 988 C179 1017 199 1039 236 1039 C275 1039 294 1017 294 988 L294 146 C294 117 275 95 238 95 C199 95 179 117 179 146 L179 988 Z " />
<glyph glyph-name="Obreve" unicode="&#x14e;" horiz-adv-x="469" d="M363 1646 C363 1656 358 1661 349 1661 L311 1661 C298 1661 284 1654 281 1638 L272 1572 C267 1531 260 1502 250 1485 C245 1476 240 1472 233 1472 C218 1472 209 1488 201 1520 C196 1544 190 1584 184 1639 C181 1654 168 1661 155 1661 L117 1661 C109 1661 104 1654 104 1646 C104 1559 113 1497 131 1461 C150 1421 182 1402 233 1402 C326 1402 363 1474 363 1646 L363 1646 Z M48 143 C48 103 63 62 94 33 C128 -1 175 -18 235 -18 C294 -18 341 -1 377 34 C407 64 422 100 422 143 L422 1203 C422 1244 406 1286 375 1314 C343 1345 294 1363 235 1363 C176 1363 128 1345 96 1314 C65 1286 48 1246 48 1203 L48 143 Z M177 1199 C177 1228 196 1250 235 1250 C272 1250 293 1228 293 1199 L293 146 C293 117 273 95 236 95 C197 95 177 117 177 146 L177 1199 Z " />
<glyph glyph-name="obreve" unicode="&#x14f;" horiz-adv-x="473" d="M366 1439 C366 1449 361 1454 352 1454 L314 1454 C301 1454 287 1447 284 1431 L275 1365 C270 1324 263 1295 253 1278 C248 1269 243 1265 236 1265 C221 1265 212 1281 204 1313 C199 1337 193 1377 187 1432 C184 1447 171 1454 158 1454 L120 1454 C112 1454 107 1447 107 1439 C107 1352 116 1290 134 1254 C153 1214 185 1195 236 1195 C329 1195 366 1267 366 1439 L366 1439 Z M50 143 C50 103 65 62 96 33 C130 -1 177 -18 237 -18 C296 -18 343 -1 378 34 C408 64 423 100 423 143 L423 992 C423 1035 408 1075 377 1104 C342 1137 295 1153 236 1153 C178 1153 132 1137 98 1104 C66 1075 50 1033 50 992 L50 143 Z M179 988 C179 1017 199 1039 236 1039 C275 1039 294 1017 294 988 L294 146 C294 117 275 95 238 95 C199 95 179 117 179 146 L179 988 Z " />
<glyph glyph-name="Ohungarumlaut" unicode="&#x150;" horiz-adv-x="469" d="M125 1423 C125 1410 131 1403 144 1403 L161 1403 C190 1403 207 1420 215 1453 L264 1619 C267 1632 268 1641 268 1645 C268 1662 259 1671 232 1671 L198 1671 C181 1671 168 1661 167 1648 L125 1427 L125 1423 Z M276 1424 C276 1410 283 1403 296 1403 L312 1403 C343 1403 359 1420 367 1453 L415 1619 C418 1631 420 1640 420 1646 C420 1663 411 1671 384 1671 L349 1671 C333 1671 320 1661 317 1648 L276 1427 L276 1424 Z M48 143 C48 103 63 62 94 33 C128 -1 175 -18 235 -18 C294 -18 341 -1 377 34 C407 64 422 100 422 143 L422 1203 C422 1244 406 1286 375 1314 C343 1345 294 1363 235 1363 C176 1363 128 1345 96 1314 C65 1286 48 1246 48 1203 L48 143 Z M177 1199 C177 1228 196 1250 235 1250 C272 1250 293 1228 293 1199 L293 146 C293 117 273 95 236 95 C197 95 177 117 177 146 L177 1199 Z " />
<glyph glyph-name="ohungarumlaut" unicode="&#x151;" horiz-adv-x="473" d="M127 1216 C127 1203 133 1196 146 1196 L163 1196 C192 1196 209 1213 217 1246 L266 1412 C269 1425 270 1434 270 1438 C270 1455 261 1464 234 1464 L200 1464 C183 1464 170 1454 169 1441 L127 1220 L127 1216 Z M278 1217 C278 1203 285 1196 298 1196 L314 1196 C345 1196 361 1213 369 1246 L417 1412 C420 1424 422 1433 422 1439 C422 1456 413 1464 386 1464 L351 1464 C335 1464 322 1454 319 1441 L278 1220 L278 1217 Z M50 143 C50 103 65 62 96 33 C130 -1 177 -18 237 -18 C296 -18 343 -1 378 34 C408 64 423 100 423 143 L423 992 C423 1035 408 1075 377 1104 C342 1137 295 1153 236 1153 C178 1153 132 1137 98 1104 C66 1075 50 1033 50 992 L50 143 Z M179 988 C179 1017 199 1039 236 1039 C275 1039 294 1017 294 988 L294 146 C294 117 275 95 238 95 C199 95 179 117 179 146 L179 988 Z " />
<glyph glyph-name="OE" unicode="&#x152;" horiz-adv-x="628" d="M54 143 C54 109 64 78 83 51 C106 20 139 0 183 -7 C204 -13 226 -16 247 -16 C277 -16 305 -10 332 1 C335 0 340 0 347 0 L365 0 L570 0 C585 0 593 9 593 26 L593 45 C593 89 573 111 534 111 L427 111 L427 610 L515 610 C555 610 575 633 575 678 L575 688 C575 711 570 721 551 721 L427 721 L427 1233 L534 1233 C573 1233 593 1255 593 1299 L593 1318 C593 1335 585 1344 570 1344 L339 1344 L337 1344 C337 1343 337 1343 336 1343 C308 1356 276 1363 240 1363 C183 1363 138 1347 103 1316 C71 1287 54 1247 54 1203 L54 143 Z M183 1199 C183 1228 203 1250 240 1250 C277 1250 298 1228 298 1199 L298 146 C298 117 280 95 241 95 C204 95 183 117 183 146 L183 1199 Z " />
<glyph glyph-name="oe" unicode="&#x153;" horiz-adv-x="612" d="M50 143 C50 109 60 78 79 51 C101 20 134 0 178 -7 C199 -13 221 -16 243 -16 C273 -16 301 -10 328 1 C331 0 336 0 343 0 L361 0 L570 0 C585 0 593 9 593 26 L593 45 C593 89 573 111 534 111 L422 111 L423 502 L515 502 C555 502 575 525 575 570 L575 580 C575 603 570 613 551 613 L423 613 L423 795 L423 909 L423 971 C422 980 422 989 422 1000 L422 1011 L422 1023 L534 1023 C573 1023 593 1045 593 1089 L593 1108 C593 1125 585 1134 570 1134 L335 1134 L333 1133 L332 1133 C304 1146 272 1153 236 1153 C180 1153 134 1137 98 1106 C66 1077 50 1040 50 993 L50 143 Z M178 989 C178 1018 197 1040 236 1040 C273 1040 294 1018 294 989 L294 146 C294 117 274 95 237 95 C198 95 178 117 178 146 L178 989 Z " />
<glyph glyph-name="Racute" unicode="&#x154;" horiz-adv-x="468" d="M181 1421 C181 1409 188 1403 201 1403 L218 1403 C247 1403 259 1418 272 1453 L328 1619 C331 1628 333 1635 333 1641 C333 1661 318 1671 289 1671 L255 1671 C239 1671 226 1661 223 1648 L182 1427 L181 1421 Z M421 507 C421 556 400 589 358 608 C400 635 421 679 421 738 L421 1183 C421 1226 407 1266 376 1295 C342 1328 295 1344 236 1344 L71 1344 C52 1344 48 1339 48 1320 L48 24 C48 5 52 0 71 0 L126 0 C154 0 177 21 177 49 L177 557 L234 557 C271 557 292 535 292 506 L292 49 C292 21 314 0 342 0 L397 0 C416 0 421 5 421 24 L421 507 Z M234 1233 C271 1233 292 1211 292 1182 L292 740 C292 721 288 705 281 692 C272 676 258 668 239 668 L177 668 L177 1233 L234 1233 Z " />
<glyph glyph-name="racute" unicode="&#x155;" horiz-adv-x="468" d="M185 1214 C185 1202 192 1196 205 1196 L222 1196 C251 1196 263 1211 276 1246 L332 1412 C335 1421 337 1428 337 1434 C337 1454 322 1464 293 1464 L259 1464 C243 1464 230 1454 227 1441 L186 1220 L185 1214 Z M421 417 C421 466 400 500 358 519 C400 544 421 587 421 648 L421 973 C421 1016 407 1056 376 1085 C342 1118 295 1134 236 1134 L71 1134 C52 1134 48 1129 48 1110 L48 24 C48 5 52 0 71 0 L126 0 C154 0 177 21 177 49 L177 467 L234 467 C273 467 292 446 292 417 L292 49 C292 21 314 0 342 0 L397 0 C416 0 421 5 421 24 L421 417 Z M234 1023 C271 1023 292 1001 292 972 L292 650 C292 631 288 615 281 602 C272 586 258 578 239 578 L177 578 L177 1023 L234 1023 Z " />
<glyph glyph-name="Rcommaaccent" unicode="&#x156;" horiz-adv-x="468" d="M421 507 C421 556 400 589 358 608 C400 635 421 679 421 738 L421 1183 C421 1226 407 1266 376 1295 C342 1328 295 1344 236 1344 L71 1344 C52 1344 48 1339 48 1320 L48 24 C48 5 52 0 71 0 L126 0 C154 0 177 21 177 49 L177 557 L234 557 C271 557 292 535 292 506 L292 49 C292 21 314 0 342 0 L397 0 C416 0 421 5 421 24 L421 507 Z M234 1233 C271 1233 292 1211 292 1182 L292 740 C292 721 288 705 281 692 C272 676 258 668 239 668 L177 668 L177 1233 L234 1233 Z M227 -269 C227 -276 231 -280 238 -280 C254 -280 268 -268 281 -245 C293 -221 299 -192 299 -158 C299 -117 272 -86 227 -86 C183 -86 157 -107 157 -146 C157 -182 183 -204 227 -205 L227 -269 Z " />
<glyph glyph-name="rcommaaccent" unicode="&#x157;" horiz-adv-x="468" d="M421 417 C421 466 400 500 358 519 C400 544 421 587 421 648 L421 973 C421 1016 407 1056 376 1085 C342 1118 295 1134 236 1134 L71 1134 C52 1134 48 1129 48 1110 L48 24 C48 5 52 0 71 0 L126 0 C154 0 177 21 177 49 L177 467 L234 467 C273 467 292 446 292 417 L292 49 C292 21 314 0 342 0 L397 0 C416 0 421 5 421 24 L421 417 Z M234 1023 C271 1023 292 1001 292 972 L292 650 C292 631 288 615 281 602 C272 586 258 578 239 578 L177 578 L177 1023 L234 1023 Z M229 -269 C229 -276 233 -280 240 -280 C256 -280 270 -268 283 -245 C295 -221 301 -192 301 -158 C301 -117 274 -86 229 -86 C185 -86 159 -107 159 -146 C159 -182 185 -204 229 -205 L229 -269 Z " />
<glyph glyph-name="Rcaron" unicode="&#x158;" horiz-adv-x="468" d="M355 1660 C355 1667 349 1672 342 1672 L294 1672 C274 1672 260 1659 257 1639 L229 1462 L201 1639 C198 1661 185 1672 164 1672 L117 1672 C109 1672 101 1666 104 1659 L172 1415 C174 1406 179 1402 188 1402 L270 1402 C278 1402 285 1407 286 1415 L355 1659 L355 1660 Z M421 507 C421 556 400 589 358 608 C400 635 421 679 421 738 L421 1183 C421 1226 407 1266 376 1295 C342 1328 295 1344 236 1344 L71 1344 C52 1344 48 1339 48 1320 L48 24 C48 5 52 0 71 0 L126 0 C154 0 177 21 177 49 L177 557 L234 557 C271 557 292 535 292 506 L292 49 C292 21 314 0 342 0 L397 0 C416 0 421 5 421 24 L421 507 Z M234 1233 C271 1233 292 1211 292 1182 L292 740 C292 721 288 705 281 692 C272 676 258 668 239 668 L177 668 L177 1233 L234 1233 Z " />
<glyph glyph-name="rcaron" unicode="&#x159;" horiz-adv-x="468" d="M355 1453 C355 1460 349 1465 342 1465 L294 1465 C274 1465 260 1452 257 1432 L229 1255 L201 1432 C198 1454 185 1465 164 1465 L117 1465 C109 1465 101 1459 104 1452 L172 1208 C174 1199 179 1195 188 1195 L270 1195 C278 1195 285 1200 286 1208 L355 1452 L355 1453 Z M421 417 C421 466 400 500 358 519 C400 544 421 587 421 648 L421 973 C421 1016 407 1056 376 1085 C342 1118 295 1134 236 1134 L71 1134 C52 1134 48 1129 48 1110 L48 24 C48 5 52 0 71 0 L126 0 C154 0 177 21 177 49 L177 467 L234 467 C273 467 292 446 292 417 L292 49 C292 21 314 0 342 0 L397 0 C416 0 421 5 421 24 L421 417 Z M234 1023 C271 1023 292 1001 292 972 L292 650 C292 631 288 615 281 602 C272 586 258 578 239 578 L177 578 L177 1023 L234 1023 Z " />
<glyph glyph-name="Sacute" unicode="&#x15a;" horiz-adv-x="469" d="M203 1421 C203 1409 210 1403 223 1403 L240 1403 C269 1403 281 1418 294 1453 L350 1619 C353 1628 355 1635 355 1641 C355 1661 340 1671 311 1671 L277 1671 C261 1671 248 1661 245 1648 L204 1427 L203 1421 Z M234 -19 C290 -19 339 -2 371 27 C403 55 421 96 421 141 C421 218 415 289 403 354 C382 465 348 582 299 705 C276 764 256 817 240 864 C199 981 176 1084 176 1199 C176 1227 197 1250 234 1250 C271 1250 292 1228 292 1199 L292 911 C292 886 316 872 340 872 L398 872 C413 872 421 879 421 892 L421 1204 C421 1249 403 1289 370 1318 C337 1347 288 1364 232 1364 C177 1364 130 1347 97 1318 C65 1289 47 1249 47 1204 C47 1131 53 1063 65 1001 C85 898 120 783 170 658 C186 617 206 564 229 498 C269 378 292 268 292 145 C292 116 273 95 234 95 C197 95 177 116 177 145 L177 425 C177 438 171 448 160 455 C152 460 142 463 129 463 L70 463 C55 463 48 456 48 443 L48 141 C48 96 65 55 97 27 C131 -4 177 -19 234 -19 L234 -19 Z " />
<glyph glyph-name="sacute" unicode="&#x15b;" horiz-adv-x="469" d="M195 1214 C195 1202 202 1196 215 1196 L232 1196 C261 1196 273 1211 286 1246 L342 1412 C345 1421 347 1428 347 1434 C347 1454 332 1464 303 1464 L269 1464 C253 1464 240 1454 237 1441 L196 1220 L195 1214 Z M234 -19 C290 -19 339 -2 371 27 C403 55 421 96 421 141 C421 217 415 283 403 338 C383 430 348 517 299 599 C276 637 257 673 240 707 C199 790 176 873 176 988 C176 1016 197 1039 234 1039 C271 1039 292 1017 292 988 L292 760 C292 736 316 722 340 722 L398 722 C413 722 421 728 421 741 L421 992 C421 1037 403 1078 370 1107 C337 1135 288 1152 232 1152 C177 1152 129 1135 97 1107 C65 1078 47 1037 47 992 C47 919 53 856 65 803 C88 706 122 626 170 546 C186 519 206 483 229 436 C269 349 292 264 292 145 C292 116 273 95 234 95 C197 95 177 116 177 145 L177 365 C177 377 171 387 160 394 C152 399 142 402 129 402 L70 402 C55 402 48 396 48 383 L48 141 C48 96 65 55 97 27 C131 -4 177 -19 234 -19 L234 -19 Z " />
<glyph glyph-name="Scircumflex" unicode="&#x15c;" horiz-adv-x="469" d="M291 1659 C290 1666 282 1672 275 1672 L193 1672 C185 1672 180 1668 177 1659 L109 1415 L108 1412 C108 1407 115 1402 122 1402 L169 1402 C190 1402 203 1413 206 1435 L234 1611 L262 1435 C265 1415 279 1402 299 1402 L347 1402 C355 1402 361 1407 360 1415 L291 1659 Z M234 -19 C290 -19 339 -2 371 27 C403 55 421 96 421 141 C421 218 415 289 403 354 C382 465 348 582 299 705 C276 764 256 817 240 864 C199 981 176 1084 176 1199 C176 1227 197 1250 234 1250 C271 1250 292 1228 292 1199 L292 911 C292 886 316 872 340 872 L398 872 C413 872 421 879 421 892 L421 1204 C421 1249 403 1289 370 1318 C337 1347 288 1364 232 1364 C177 1364 130 1347 97 1318 C65 1289 47 1249 47 1204 C47 1131 53 1063 65 1001 C85 898 120 783 170 658 C186 617 206 564 229 498 C269 378 292 268 292 145 C292 116 273 95 234 95 C197 95 177 116 177 145 L177 425 C177 438 171 448 160 455 C152 460 142 463 129 463 L70 463 C55 463 48 456 48 443 L48 141 C48 96 65 55 97 27 C131 -4 177 -19 234 -19 L234 -19 Z " />
<glyph glyph-name="scircumflex" unicode="&#x15d;" horiz-adv-x="469" d="M291 1452 C290 1459 282 1465 275 1465 L193 1465 C185 1465 180 1461 177 1452 L109 1208 L108 1205 C108 1200 115 1195 122 1195 L169 1195 C190 1195 203 1206 206 1228 L234 1404 L262 1228 C265 1208 279 1195 299 1195 L347 1195 C355 1195 361 1200 360 1208 L291 1452 Z M234 -19 C290 -19 339 -2 371 27 C403 55 421 96 421 141 C421 217 415 283 403 338 C383 430 348 517 299 599 C276 637 257 673 240 707 C199 790 176 873 176 988 C176 1016 197 1039 234 1039 C271 1039 292 1017 292 988 L292 760 C292 736 316 722 340 722 L398 722 C413 722 421 728 421 741 L421 992 C421 1037 403 1078 370 1107 C337 1135 288 1152 232 1152 C177 1152 129 1135 97 1107 C65 1078 47 1037 47 992 C47 919 53 856 65 803 C88 706 122 626 170 546 C186 519 206 483 229 436 C269 349 292 264 292 145 C292 116 273 95 234 95 C197 95 177 116 177 145 L177 365 C177 377 171 387 160 394 C152 399 142 402 129 402 L70 402 C55 402 48 396 48 383 L48 141 C48 96 65 55 97 27 C131 -4 177 -19 234 -19 L234 -19 Z " />
<glyph glyph-name="Scedilla" unicode="&#x15e;" horiz-adv-x="469" d="M398 872 C413 872 421 879 421 892 L421 1204 C421 1249 403 1289 370 1318 C337 1347 288 1364 232 1364 C177 1364 130 1347 97 1318 C65 1289 47 1249 47 1204 C47 1131 53 1063 65 1001 C85 898 120 783 170 658 C186 617 206 564 229 498 C269 378 292 268 292 145 C292 116 273 95 234 95 C197 95 177 116 177 145 L177 425 C177 438 171 448 160 455 C152 460 142 463 129 463 L70 463 C55 463 48 456 48 443 L48 141 C48 96 65 55 97 27 C122 4 154 -10 193 -16 C194 -31 196 -46 201 -61 C208 -80 219 -106 236 -138 C241 -147 243 -156 243 -165 C243 -171 241 -175 237 -178 C230 -183 220 -186 207 -186 L194 -186 C177 -186 162 -193 162 -209 L163 -246 C163 -255 177 -260 204 -260 C244 -260 274 -254 295 -241 C320 -226 332 -201 332 -166 C332 -130 323 -106 304 -77 C285 -49 279 -37 275 -16 C314 -10 346 4 371 27 C403 55 421 96 421 141 C421 218 415 289 403 354 C382 465 348 582 299 705 C276 764 256 817 240 864 C199 981 176 1084 176 1199 C176 1227 197 1250 234 1250 C271 1250 292 1228 292 1199 L292 911 C292 886 316 872 340 872 L398 872 Z " />
<glyph glyph-name="scedilla" unicode="&#x15f;" horiz-adv-x="469" d="M398 722 C413 722 421 728 421 741 L421 992 C421 1037 403 1078 370 1107 C337 1135 288 1152 232 1152 C177 1152 129 1135 97 1107 C65 1078 47 1037 47 992 C47 919 53 856 65 803 C88 706 122 626 170 546 C186 519 206 483 229 436 C269 349 292 264 292 145 C292 116 273 95 234 95 C197 95 177 116 177 145 L177 365 C177 377 171 387 160 394 C152 399 142 402 129 402 L70 402 C55 402 48 396 48 383 L48 141 C48 96 65 55 97 27 C120 6 147 -7 180 -14 C181 -30 183 -46 188 -61 C195 -80 206 -106 223 -138 C228 -147 230 -156 230 -165 C230 -171 228 -175 224 -178 C217 -183 207 -186 194 -186 L181 -186 C164 -186 149 -193 149 -209 L150 -246 C150 -255 164 -260 191 -260 C231 -260 261 -254 282 -241 C307 -226 319 -201 319 -166 C319 -130 310 -106 291 -77 C285 -69 267 -42 263 -18 C308 -13 344 2 371 27 C403 55 421 96 421 141 C421 217 415 283 403 338 C383 430 348 517 299 599 C276 637 257 673 240 707 C199 790 176 873 176 988 C176 1016 197 1039 234 1039 C271 1039 292 1017 292 988 L292 760 C292 736 316 722 340 722 L398 722 Z " />
<glyph glyph-name="Scaron" unicode="&#x160;" horiz-adv-x="469" d="M360 1660 C360 1667 354 1672 347 1672 L299 1672 C279 1672 265 1659 262 1639 L234 1462 L206 1639 C203 1661 190 1672 169 1672 L122 1672 C114 1672 106 1666 109 1659 L177 1415 C179 1406 184 1402 193 1402 L275 1402 C283 1402 290 1407 291 1415 L360 1659 L360 1660 Z M234 -19 C290 -19 339 -2 371 27 C403 55 421 96 421 141 C421 218 415 289 403 354 C382 465 348 582 299 705 C276 764 256 817 240 864 C199 981 176 1084 176 1199 C176 1227 197 1250 234 1250 C271 1250 292 1228 292 1199 L292 911 C292 886 316 872 340 872 L398 872 C413 872 421 879 421 892 L421 1204 C421 1249 403 1289 370 1318 C337 1347 288 1364 232 1364 C177 1364 130 1347 97 1318 C65 1289 47 1249 47 1204 C47 1131 53 1063 65 1001 C85 898 120 783 170 658 C186 617 206 564 229 498 C269 378 292 268 292 145 C292 116 273 95 234 95 C197 95 177 116 177 145 L177 425 C177 438 171 448 160 455 C152 460 142 463 129 463 L70 463 C55 463 48 456 48 443 L48 141 C48 96 65 55 97 27 C131 -4 177 -19 234 -19 L234 -19 Z " />
<glyph glyph-name="scaron" unicode="&#x161;" horiz-adv-x="469" d="M360 1453 C360 1460 354 1465 347 1465 L299 1465 C279 1465 265 1452 262 1432 L234 1255 L206 1432 C203 1454 190 1465 169 1465 L122 1465 C114 1465 106 1459 109 1452 L177 1208 C179 1199 184 1195 193 1195 L275 1195 C283 1195 290 1200 291 1208 L360 1452 L360 1453 Z M234 -19 C290 -19 339 -2 371 27 C403 55 421 96 421 141 C421 217 415 283 403 338 C383 430 348 517 299 599 C276 637 257 673 240 707 C199 790 176 873 176 988 C176 1016 197 1039 234 1039 C271 1039 292 1017 292 988 L292 760 C292 736 316 722 340 722 L398 722 C413 722 421 728 421 741 L421 992 C421 1037 403 1078 370 1107 C337 1135 288 1152 232 1152 C177 1152 129 1135 97 1107 C65 1078 47 1037 47 992 C47 919 53 856 65 803 C88 706 122 626 170 546 C186 519 206 483 229 436 C269 349 292 264 292 145 C292 116 273 95 234 95 C197 95 177 116 177 145 L177 365 C177 377 171 387 160 394 C152 399 142 402 129 402 L70 402 C55 402 48 396 48 383 L48 141 C48 96 65 55 97 27 C131 -4 177 -19 234 -19 L234 -19 Z " />
<glyph glyph-name="uni0162" unicode="&#x162;" horiz-adv-x="396" d="M197 1414 C197 1407 201 1403 208 1403 C224 1403 238 1415 251 1438 C263 1462 269 1491 269 1525 C269 1566 242 1597 197 1597 C153 1597 127 1576 127 1537 C127 1501 153 1479 197 1478 L197 1414 Z M37 1344 C22 1344 14 1335 14 1318 L14 1299 C14 1255 34 1233 73 1233 L137 1233 L137 28 C137 8 144 0 164 0 L238 0 C257 0 266 9 266 28 L266 1233 L325 1233 C362 1233 384 1255 384 1299 L384 1318 C384 1335 376 1344 361 1344 L37 1344 Z " />
<glyph glyph-name="uni0163" unicode="&#x163;" horiz-adv-x="397" d="M197 1207 C197 1200 201 1196 208 1196 C224 1196 238 1208 251 1231 C263 1255 269 1284 269 1318 C269 1359 242 1390 197 1390 C153 1390 127 1369 127 1330 C127 1294 153 1272 197 1271 L197 1207 Z M266 1022 L325 1022 C362 1022 384 1044 384 1088 L384 1107 C384 1124 376 1133 361 1133 L37 1133 C22 1133 14 1124 14 1107 L14 1088 C14 1044 34 1022 73 1022 L137 1022 L137 28 C137 8 144 0 164 0 L238 0 C257 0 266 9 266 28 L266 1022 Z " />
<glyph glyph-name="Tcaron" unicode="&#x164;" horiz-adv-x="396" d="M324 1664 C324 1671 318 1676 311 1676 L263 1676 C243 1676 229 1663 226 1643 L198 1466 L170 1643 C167 1665 154 1676 133 1676 L86 1676 C78 1676 70 1670 73 1663 L141 1419 C143 1410 148 1406 157 1406 L239 1406 C247 1406 254 1411 255 1419 L324 1663 L324 1664 Z M37 1344 C22 1344 14 1335 14 1318 L14 1299 C14 1255 34 1233 73 1233 L137 1233 L137 28 C137 8 144 0 164 0 L238 0 C257 0 266 9 266 28 L266 1233 L325 1233 C362 1233 384 1255 384 1299 L384 1318 C384 1335 376 1344 361 1344 L37 1344 Z " />
<glyph glyph-name="tcaron" unicode="&#x165;" horiz-adv-x="398" d="M324 1415 C324 1422 318 1427 311 1427 L263 1427 C243 1427 229 1414 226 1394 L198 1217 L170 1394 C167 1416 154 1427 133 1427 L86 1427 C78 1427 70 1421 73 1414 L141 1170 C143 1161 148 1157 157 1157 L239 1157 C247 1157 254 1162 255 1170 L324 1414 L324 1415 Z M266 1022 L325 1022 C362 1022 384 1044 384 1088 L384 1107 C384 1124 376 1133 361 1133 L37 1133 C22 1133 14 1124 14 1107 L14 1088 C14 1044 34 1022 73 1022 L137 1022 L137 28 C137 8 144 0 164 0 L238 0 C257 0 266 9 266 28 L266 1022 Z " />
<glyph glyph-name="Tbar" unicode="&#x166;" horiz-adv-x="396" d="M76 740 C62 740 55 734 55 723 L55 703 C55 672 76 650 107 650 L137 650 L137 28 C137 8 144 0 164 0 L238 0 C257 0 266 9 266 28 L266 650 L293 650 C324 650 345 672 345 703 L345 723 C345 734 336 740 324 740 L266 740 L266 1233 L325 1233 C362 1233 384 1255 384 1299 L384 1318 C384 1335 376 1344 361 1344 L37 1344 C22 1344 14 1335 14 1318 L14 1299 C14 1255 34 1233 73 1233 L137 1233 L137 740 L76 740 Z " />
<glyph glyph-name="tbar" unicode="&#x167;" horiz-adv-x="397" d="M73 615 C58 615 51 609 51 596 L51 576 C51 543 73 521 104 521 L137 521 L137 28 C137 8 144 0 164 0 L238 0 C257 0 266 9 266 28 L266 521 L292 521 C324 521 345 543 345 576 L345 596 C345 607 336 615 324 615 L266 615 L266 1022 L325 1022 C362 1022 384 1044 384 1088 L384 1107 C384 1124 376 1133 361 1133 L37 1133 C22 1133 14 1124 14 1107 L14 1088 C14 1044 34 1022 73 1022 L137 1022 L137 615 L73 615 Z " />
<glyph glyph-name="Utilde" unicode="&#x168;" horiz-adv-x="469" d="M296 1430 C310 1430 323 1427 335 1421 C336 1420 347 1411 364 1411 C379 1411 388 1417 388 1432 L388 1451 C388 1476 378 1495 357 1508 C340 1518 317 1523 288 1523 C264 1523 249 1518 228 1507 C207 1496 194 1491 175 1491 C158 1491 150 1495 138 1500 C135 1501 125 1509 108 1509 C93 1509 86 1502 86 1488 L86 1468 C86 1443 96 1425 116 1414 C134 1403 157 1397 185 1397 C203 1397 222 1403 242 1414 C262 1425 277 1430 296 1430 L296 1430 Z M177 1295 C177 1323 154 1344 126 1344 L71 1344 C52 1344 48 1339 48 1320 L48 141 C48 98 64 61 97 30 C132 -3 178 -19 236 -19 C293 -19 340 -2 375 32 C406 61 421 101 421 141 L421 1320 C421 1339 416 1344 397 1344 L342 1344 C314 1344 292 1323 292 1295 L292 145 C292 116 273 95 234 95 C194 95 177 118 177 145 L177 1295 Z " />
<glyph glyph-name="utilde" unicode="&#x169;" horiz-adv-x="468" d="M296 1223 C310 1223 323 1220 335 1214 C336 1213 347 1204 364 1204 C379 1204 388 1210 388 1225 L388 1244 C388 1269 378 1288 357 1301 C340 1311 317 1316 288 1316 C264 1316 249 1311 228 1300 C207 1289 194 1284 175 1284 C158 1284 150 1288 138 1293 C135 1294 125 1302 108 1302 C93 1302 86 1295 86 1281 L86 1261 C86 1236 96 1218 116 1207 C134 1196 157 1190 185 1190 C203 1190 222 1196 242 1207 C262 1218 277 1223 296 1223 L296 1223 Z M177 1085 C177 1113 154 1134 126 1134 L71 1134 C52 1134 48 1129 48 1110 L48 141 C48 98 64 61 97 30 C132 -3 178 -19 236 -19 C293 -19 340 -2 375 32 C406 61 421 101 421 141 L421 1110 C421 1129 416 1134 397 1134 L342 1134 C314 1134 292 1113 292 1085 L292 145 C292 116 273 95 234 95 C194 95 177 118 177 145 L177 1085 Z " />
<glyph glyph-name="Umacron" unicode="&#x16a;" horiz-adv-x="469" d="M119 1495 C106 1495 100 1489 100 1477 L100 1458 C100 1426 119 1404 147 1404 L322 1404 C350 1404 369 1426 369 1458 L369 1477 C369 1488 361 1495 350 1495 L119 1495 Z M177 1295 C177 1323 154 1344 126 1344 L71 1344 C52 1344 48 1339 48 1320 L48 141 C48 98 64 61 97 30 C132 -3 178 -19 236 -19 C293 -19 340 -2 375 32 C406 61 421 101 421 141 L421 1320 C421 1339 416 1344 397 1344 L342 1344 C314 1344 292 1323 292 1295 L292 145 C292 116 273 95 234 95 C194 95 177 118 177 145 L177 1295 Z " />
<glyph glyph-name="umacron" unicode="&#x16b;" horiz-adv-x="468" d="M119 1284 C106 1284 100 1278 100 1266 L100 1247 C100 1215 119 1193 147 1193 L322 1193 C350 1193 369 1215 369 1247 L369 1266 C369 1277 361 1284 350 1284 L119 1284 Z M177 1085 C177 1113 154 1134 126 1134 L71 1134 C52 1134 48 1129 48 1110 L48 141 C48 98 64 61 97 30 C132 -3 178 -19 236 -19 C293 -19 340 -2 375 32 C406 61 421 101 421 141 L421 1110 C421 1129 416 1134 397 1134 L342 1134 C314 1134 292 1113 292 1085 L292 145 C292 116 273 95 234 95 C194 95 177 118 177 145 L177 1085 Z " />
<glyph glyph-name="Ubreve" unicode="&#x16c;" horiz-adv-x="469" d="M363 1646 C363 1656 358 1661 349 1661 L311 1661 C298 1661 284 1654 281 1638 L272 1572 C267 1531 260 1502 250 1485 C245 1476 240 1472 233 1472 C218 1472 209 1488 201 1520 C196 1544 190 1584 184 1639 C181 1654 168 1661 155 1661 L117 1661 C109 1661 104 1654 104 1646 C104 1559 113 1497 131 1461 C150 1421 182 1402 233 1402 C326 1402 363 1474 363 1646 L363 1646 Z M177 1295 C177 1323 154 1344 126 1344 L71 1344 C52 1344 48 1339 48 1320 L48 141 C48 98 64 61 97 30 C132 -3 178 -19 236 -19 C293 -19 340 -2 375 32 C406 61 421 101 421 141 L421 1320 C421 1339 416 1344 397 1344 L342 1344 C314 1344 292 1323 292 1295 L292 145 C292 116 273 95 234 95 C194 95 177 118 177 145 L177 1295 Z " />
<glyph glyph-name="ubreve" unicode="&#x16d;" horiz-adv-x="468" d="M363 1439 C363 1449 358 1454 349 1454 L311 1454 C298 1454 284 1447 281 1431 L272 1365 C267 1324 260 1295 250 1278 C245 1269 240 1265 233 1265 C218 1265 209 1281 201 1313 C196 1337 190 1377 184 1432 C181 1447 168 1454 155 1454 L117 1454 C109 1454 104 1447 104 1439 C104 1352 113 1290 131 1254 C150 1214 182 1195 233 1195 C326 1195 363 1267 363 1439 L363 1439 Z M177 1085 C177 1113 154 1134 126 1134 L71 1134 C52 1134 48 1129 48 1110 L48 141 C48 98 64 61 97 30 C132 -3 178 -19 236 -19 C293 -19 340 -2 375 32 C406 61 421 101 421 141 L421 1110 C421 1129 416 1134 397 1134 L342 1134 C314 1134 292 1113 292 1085 L292 145 C292 116 273 95 234 95 C194 95 177 118 177 145 L177 1085 Z " />
<glyph glyph-name="Uring" unicode="&#x16e;" horiz-adv-x="469" d="M233 1615 C154 1615 109 1577 109 1508 C109 1439 154 1399 233 1399 C313 1399 359 1439 359 1508 C359 1577 313 1615 233 1615 L233 1615 Z M233 1468 C205 1468 191 1481 191 1508 C191 1535 205 1549 233 1549 C261 1549 276 1533 276 1508 C276 1481 262 1468 233 1468 L233 1468 Z M177 1295 C177 1323 154 1344 126 1344 L71 1344 C52 1344 48 1339 48 1320 L48 141 C48 98 64 61 97 30 C132 -3 178 -19 236 -19 C293 -19 340 -2 375 32 C406 61 421 101 421 141 L421 1320 C421 1339 416 1344 397 1344 L342 1344 C314 1344 292 1323 292 1295 L292 145 C292 116 273 95 234 95 C194 95 177 118 177 145 L177 1295 Z " />
<glyph glyph-name="uring" unicode="&#x16f;" horiz-adv-x="468" d="M233 1408 C154 1408 109 1370 109 1301 C109 1232 154 1192 233 1192 C313 1192 359 1232 359 1301 C359 1370 313 1408 233 1408 L233 1408 Z M233 1261 C205 1261 191 1274 191 1301 C191 1328 205 1342 233 1342 C261 1342 276 1326 276 1301 C276 1274 262 1261 233 1261 L233 1261 Z M177 1085 C177 1113 154 1134 126 1134 L71 1134 C52 1134 48 1129 48 1110 L48 141 C48 98 64 61 97 30 C132 -3 178 -19 236 -19 C293 -19 340 -2 375 32 C406 61 421 101 421 141 L421 1110 C421 1129 416 1134 397 1134 L342 1134 C314 1134 292 1113 292 1085 L292 145 C292 116 273 95 234 95 C194 95 177 118 177 145 L177 1085 Z " />
<glyph glyph-name="Uhungarumlaut" unicode="&#x170;" horiz-adv-x="469" d="M102 1433 C102 1420 108 1413 121 1413 L138 1413 C167 1413 184 1430 192 1463 L241 1629 C244 1642 245 1651 245 1655 C245 1672 236 1681 209 1681 L175 1681 C158 1681 145 1671 144 1658 L102 1437 L102 1433 Z M253 1434 C253 1420 260 1413 273 1413 L289 1413 C320 1413 336 1430 344 1463 L392 1629 C395 1641 397 1650 397 1656 C397 1673 388 1681 361 1681 L326 1681 C310 1681 297 1671 294 1658 L253 1437 L253 1434 Z M177 1295 C177 1323 154 1344 126 1344 L71 1344 C52 1344 48 1339 48 1320 L48 141 C48 98 64 61 97 30 C132 -3 178 -19 236 -19 C293 -19 340 -2 375 32 C406 61 421 101 421 141 L421 1320 C421 1339 416 1344 397 1344 L342 1344 C314 1344 292 1323 292 1295 L292 145 C292 116 273 95 234 95 C194 95 177 118 177 145 L177 1295 Z " />
<glyph glyph-name="uhungarumlaut" unicode="&#x171;" horiz-adv-x="468" d="M127 1216 C127 1203 133 1196 146 1196 L163 1196 C192 1196 209 1213 217 1246 L266 1412 C269 1425 270 1434 270 1438 C270 1455 261 1464 234 1464 L200 1464 C183 1464 170 1454 169 1441 L127 1220 L127 1216 Z M278 1217 C278 1203 285 1196 298 1196 L314 1196 C345 1196 361 1213 369 1246 L417 1412 C420 1424 422 1433 422 1439 C422 1456 413 1464 386 1464 L351 1464 C335 1464 322 1454 319 1441 L278 1220 L278 1217 Z M177 1085 C177 1113 154 1134 126 1134 L71 1134 C52 1134 48 1129 48 1110 L48 141 C48 98 64 61 97 30 C132 -3 178 -19 236 -19 C293 -19 340 -2 375 32 C406 61 421 101 421 141 L421 1110 C421 1129 416 1134 397 1134 L342 1134 C314 1134 292 1113 292 1085 L292 145 C292 116 273 95 234 95 C194 95 177 118 177 145 L177 1085 Z " />
<glyph glyph-name="Uogonek" unicode="&#x172;" horiz-adv-x="469" d="M342 1344 C314 1344 292 1323 292 1295 L292 145 C292 116 273 95 234 95 C194 95 177 118 177 145 L177 1295 C177 1323 154 1344 126 1344 L71 1344 C52 1344 48 1339 48 1320 L48 141 C48 98 64 61 97 30 C113 15 133 3 157 -6 C130 -27 116 -58 116 -98 L116 -123 C116 -235 177 -288 281 -288 C312 -288 338 -271 341 -234 L341 -213 C342 -198 335 -190 318 -190 C255 -190 223 -163 223 -119 L223 -92 C223 -54 235 -29 260 -18 C307 -13 345 3 375 32 C406 61 421 101 421 141 L421 1320 C421 1339 416 1344 397 1344 L342 1344 Z " />
<glyph glyph-name="uogonek" unicode="&#x173;" horiz-adv-x="468" d="M342 1134 C314 1134 292 1113 292 1085 L292 145 C292 116 273 95 234 95 C194 95 177 118 177 145 L177 1085 C177 1113 154 1134 126 1134 L71 1134 C52 1134 48 1129 48 1110 L48 141 C48 98 64 61 97 30 C116 11 139 -2 166 -9 C147 -29 138 -56 138 -89 L138 -114 C138 -226 199 -279 303 -279 C334 -279 360 -262 363 -225 L363 -204 C364 -189 357 -181 340 -181 C277 -181 245 -154 245 -110 L245 -83 C245 -52 253 -30 269 -17 C312 -12 347 5 375 32 C406 61 421 101 421 141 L421 1110 C421 1129 416 1134 397 1134 L342 1134 Z " />
<glyph glyph-name="Wcircumflex" unicode="&#x174;" horiz-adv-x="716" d="M414 1659 C413 1666 405 1672 398 1672 L316 1672 C308 1672 303 1668 300 1659 L232 1415 L231 1412 C231 1407 238 1402 245 1402 L292 1402 C313 1402 326 1413 329 1435 L357 1611 L385 1435 C388 1415 402 1402 422 1402 L470 1402 C478 1402 484 1407 483 1415 L414 1659 Z M415 28 C415 9 425 0 445 0 L553 0 L553 1 L554 0 C579 0 590 5 593 28 L703 1321 L703 1327 C703 1339 698 1344 682 1344 L627 1344 C599 1344 575 1324 572 1296 L504 181 L433 1296 C432 1323 408 1343 383 1343 L331 1343 C307 1343 285 1323 282 1296 L212 186 L144 1296 C141 1324 117 1344 89 1344 L34 1344 C18 1344 12 1341 12 1330 C12 1326 12 1323 13 1321 L123 28 C124 9 134 0 153 0 L269 0 C290 0 300 9 301 28 L357 1019 L415 28 Z " />
<glyph glyph-name="wcircumflex" unicode="&#x175;" horiz-adv-x="680" d="M398 1452 C397 1459 389 1465 382 1465 L300 1465 C292 1465 287 1461 284 1452 L216 1208 L215 1205 C215 1200 222 1195 229 1195 L276 1195 C297 1195 310 1206 313 1228 L341 1404 L369 1228 C372 1208 386 1195 406 1195 L454 1195 C462 1195 468 1200 467 1208 L398 1452 Z M667 1110 C668 1112 668 1115 668 1119 C668 1130 662 1133 646 1133 L592 1133 C564 1133 537 1113 536 1085 L480 196 L422 1085 C419 1113 394 1133 366 1133 L314 1133 C286 1133 261 1113 260 1085 L201 196 L145 1085 C144 1113 118 1133 90 1133 L35 1133 C19 1133 13 1130 13 1119 C13 1115 13 1112 14 1110 L112 28 C115 8 123 0 143 0 L260 0 C279 0 289 9 290 28 L340 859 L391 28 C391 20 393 14 397 10 C404 3 415 0 432 0 L455 0 L538 0 C558 0 566 8 569 28 L667 1110 Z " />
<glyph glyph-name="Ycircumflex" unicode="&#x176;" horiz-adv-x="413" d="M262 1659 C261 1666 253 1672 246 1672 L164 1672 C156 1672 151 1668 148 1659 L80 1415 L79 1412 C79 1407 86 1402 93 1402 L140 1402 C161 1402 174 1413 177 1435 L205 1611 L233 1435 C236 1415 250 1402 270 1402 L318 1402 C326 1402 332 1407 331 1415 L262 1659 Z M399 1317 C402 1335 395 1344 376 1344 L326 1344 C298 1344 269 1324 266 1296 L206 657 L146 1296 C143 1324 114 1344 86 1344 L36 1344 C21 1344 13 1338 13 1325 C13 1322 13 1319 14 1317 L142 439 L142 29 C142 10 151 0 170 0 L242 0 C261 0 271 10 271 29 L271 440 L399 1317 Z " />
<glyph glyph-name="ycircumflex" unicode="&#x177;" horiz-adv-x="392" d="M254 1452 C253 1459 245 1465 238 1465 L156 1465 C148 1465 143 1461 140 1452 L72 1208 L71 1205 C71 1200 78 1195 85 1195 L132 1195 C153 1195 166 1206 169 1228 L197 1404 L225 1228 C228 1208 242 1195 262 1195 L310 1195 C318 1195 324 1200 323 1208 L254 1452 Z M380 1110 L381 1117 C381 1128 373 1133 357 1133 L307 1133 C278 1133 249 1116 248 1093 L197 580 L146 1093 C143 1116 114 1133 86 1133 L36 1133 C16 1133 11 1126 14 1110 L132 374 L132 24 C132 8 142 0 161 0 L232 0 C251 0 261 8 261 24 L261 374 L380 1110 Z " />
<glyph glyph-name="Ydieresis" unicode="&#x178;" horiz-adv-x="413" d="M126 1535 C89 1535 69 1510 69 1470 C69 1430 89 1405 126 1405 C165 1405 186 1430 186 1470 C186 1510 165 1535 126 1535 L126 1535 Z M285 1535 C246 1535 227 1510 227 1470 C227 1430 246 1405 285 1405 C324 1405 344 1430 344 1470 C344 1510 324 1535 285 1535 L285 1535 Z M399 1317 C402 1335 395 1344 376 1344 L326 1344 C298 1344 269 1324 266 1296 L206 657 L146 1296 C143 1324 114 1344 86 1344 L36 1344 C21 1344 13 1338 13 1325 C13 1322 13 1319 14 1317 L142 439 L142 29 C142 10 151 0 170 0 L242 0 C261 0 271 10 271 29 L271 440 L399 1317 Z " />
<glyph glyph-name="Zacute" unicode="&#x179;" horiz-adv-x="360" d="M132 1425 C132 1413 139 1407 152 1407 L169 1407 C198 1407 210 1422 223 1457 L279 1623 C282 1632 284 1639 284 1645 C284 1665 269 1675 240 1675 L206 1675 C190 1675 177 1665 174 1652 L133 1431 L132 1425 Z M55 1344 C41 1344 34 1335 34 1318 L34 1299 C34 1255 52 1233 88 1233 L181 1233 L27 48 C26 45 26 42 26 38 C26 14 45 0 72 0 L314 0 C328 0 335 9 335 26 L335 45 C335 90 317 112 280 112 L158 112 L325 1316 C326 1319 326 1322 326 1326 C326 1341 319 1344 299 1344 L55 1344 Z " />
<glyph glyph-name="zacute" unicode="&#x17a;" horiz-adv-x="359" d="M152 1214 C152 1202 159 1196 172 1196 L189 1196 C218 1196 230 1211 243 1246 L299 1412 C302 1421 304 1428 304 1434 C304 1454 289 1464 260 1464 L226 1464 C210 1464 197 1454 194 1441 L153 1220 L152 1214 Z M55 1133 C41 1133 34 1124 34 1107 L34 1088 C34 1044 52 1022 88 1022 L179 1022 L27 48 C26 45 26 42 26 38 C26 14 45 0 72 0 L314 0 C328 0 335 9 335 26 L335 45 C335 90 317 112 280 112 L161 112 L325 1105 C326 1108 326 1111 326 1115 C326 1128 319 1133 300 1133 L55 1133 Z " />
<glyph glyph-name="Zdotaccent" unicode="&#x17b;" horiz-adv-x="360" d="M180 1545 C128 1545 101 1519 101 1478 C101 1437 128 1411 180 1411 C233 1411 260 1437 260 1478 C260 1521 233 1545 180 1545 L180 1545 Z M55 1344 C41 1344 34 1335 34 1318 L34 1299 C34 1255 52 1233 88 1233 L181 1233 L27 48 C26 45 26 42 26 38 C26 14 45 0 72 0 L314 0 C328 0 335 9 335 26 L335 45 C335 90 317 112 280 112 L158 112 L325 1316 C326 1319 326 1322 326 1326 C326 1341 319 1344 299 1344 L55 1344 Z " />
<glyph glyph-name="zdotaccent" unicode="&#x17c;" horiz-adv-x="359" d="M181 1334 C129 1334 102 1308 102 1267 C102 1226 129 1200 181 1200 C234 1200 261 1226 261 1267 C261 1310 234 1334 181 1334 L181 1334 Z M55 1133 C41 1133 34 1124 34 1107 L34 1088 C34 1044 52 1022 88 1022 L179 1022 L27 48 C26 45 26 42 26 38 C26 14 45 0 72 0 L314 0 C328 0 335 9 335 26 L335 45 C335 90 317 112 280 112 L161 112 L325 1105 C326 1108 326 1111 326 1115 C326 1128 319 1133 300 1133 L55 1133 Z " />
<glyph glyph-name="Zcaron" unicode="&#x17d;" horiz-adv-x="360" d="M305 1664 C305 1671 299 1676 292 1676 L244 1676 C224 1676 210 1663 207 1643 L179 1466 L151 1643 C148 1665 135 1676 114 1676 L67 1676 C59 1676 51 1670 54 1663 L122 1419 C124 1410 129 1406 138 1406 L220 1406 C228 1406 235 1411 236 1419 L305 1663 L305 1664 Z M55 1344 C41 1344 34 1335 34 1318 L34 1299 C34 1255 52 1233 88 1233 L181 1233 L27 48 C26 45 26 42 26 38 C26 14 45 0 72 0 L314 0 C328 0 335 9 335 26 L335 45 C335 90 317 112 280 112 L158 112 L325 1316 C326 1319 326 1322 326 1326 C326 1341 319 1344 299 1344 L55 1344 Z " />
<glyph glyph-name="zcaron" unicode="&#x17e;" horiz-adv-x="359" d="M307 1453 C307 1460 301 1465 294 1465 L246 1465 C226 1465 212 1452 209 1432 L181 1255 L153 1432 C150 1454 137 1465 116 1465 L69 1465 C61 1465 53 1459 56 1452 L124 1208 C126 1199 131 1195 140 1195 L222 1195 C230 1195 237 1200 238 1208 L307 1452 L307 1453 Z M55 1133 C41 1133 34 1124 34 1107 L34 1088 C34 1044 52 1022 88 1022 L179 1022 L27 48 C26 45 26 42 26 38 C26 14 45 0 72 0 L314 0 C328 0 335 9 335 26 L335 45 C335 90 317 112 280 112 L161 112 L325 1105 C326 1108 326 1111 326 1115 C326 1128 319 1133 300 1133 L55 1133 Z " />
<glyph glyph-name="longs" unicode="&#x17f;" horiz-adv-x="359" d="M71 1134 C52 1134 48 1129 48 1110 L48 -185 C48 -205 52 -210 71 -210 L126 -210 C154 -210 177 -189 177 -161 L177 496 L269 496 C308 496 328 518 328 561 L328 581 C328 598 320 607 305 607 L177 607 L177 1023 L288 1023 C327 1023 347 1045 347 1089 L347 1108 C347 1125 339 1134 324 1134 L71 1134 Z " />
<glyph glyph-name="florin" unicode="&#x192;" horiz-adv-x="373" d="M74 1134 C55 1134 51 1129 51 1110 L51 -20 L30 -20 C-9 -20 -29 -42 -29 -86 L-29 -105 C-29 -122 -21 -131 -6 -131 L129 -131 C157 -131 180 -110 180 -82 L180 496 L272 496 C311 496 331 518 331 561 L331 581 C331 598 323 607 308 607 L180 607 L180 1023 L291 1023 C330 1023 350 1045 350 1089 L350 1108 C350 1125 342 1134 327 1134 L74 1134 Z " />
<glyph glyph-name="AEacute" unicode="&#x1fc;" horiz-adv-x="612" d="M320 1421 C320 1409 327 1403 340 1403 L357 1403 C386 1403 398 1418 411 1453 L467 1619 C470 1628 472 1635 472 1641 C472 1661 457 1671 428 1671 L394 1671 C378 1671 365 1661 362 1648 L321 1427 L320 1421 Z M17 23 C16 3 19 0 42 0 L102 0 C130 0 150 23 153 54 L177 230 L288 230 L288 24 C288 5 294 0 318 0 L565 0 C580 0 588 9 588 26 L588 45 C588 89 561 111 507 111 L417 111 L417 610 L509 610 C548 610 569 633 569 676 L569 696 C569 713 561 721 545 721 L417 721 L417 1233 L528 1233 C567 1233 588 1256 588 1299 L588 1318 C588 1335 580 1344 565 1344 L303 1344 L280 1344 C274 1344 268 1343 261 1342 C248 1338 242 1331 241 1316 L17 23 Z M288 1088 L288 337 L196 337 L288 1088 Z " />
<glyph glyph-name="aeacute" unicode="&#x1fd;" horiz-adv-x="554" d="M234 1214 C234 1202 241 1196 254 1196 L271 1196 C300 1196 312 1211 325 1246 L381 1412 C384 1421 386 1428 386 1434 C386 1454 371 1464 342 1464 L308 1464 C292 1464 279 1454 276 1441 L235 1220 L234 1214 Z M514 0 C530 0 538 9 538 26 L538 45 C538 89 518 111 478 111 L367 111 L367 503 L449 503 C496 503 519 525 519 570 L519 580 C519 604 515 614 496 614 L367 614 L367 1022 L478 1022 C518 1022 538 1044 538 1088 L538 1107 C538 1124 530 1133 514 1133 L204 1133 C167 1133 157 1130 154 1105 L11 24 C10 21 10 18 10 14 C10 3 15 0 30 0 L74 0 C114 0 132 13 137 41 L158 200 L239 200 L239 23 C239 6 243 0 262 0 L514 0 Z M239 953 L239 307 L167 307 L232 953 L239 953 Z " />
<glyph glyph-name="Oslashacute" unicode="&#x1fe;" horiz-adv-x="469" d="M196 1421 C196 1409 203 1403 216 1403 L233 1403 C262 1403 274 1418 287 1453 L343 1619 C346 1628 348 1635 348 1641 C348 1661 333 1671 304 1671 L270 1671 C254 1671 241 1661 238 1648 L197 1427 L196 1421 Z M48 143 C48 105 60 72 83 44 L47 -117 C46 -119 46 -122 46 -125 C46 -135 53 -140 67 -140 L89 -140 C116 -140 137 -120 144 -92 L162 -7 C185 -14 210 -18 235 -18 C294 -18 341 -1 377 34 C407 64 422 100 422 143 L422 1203 C422 1236 413 1265 394 1292 L431 1459 C432 1461 432 1464 432 1467 C432 1478 426 1484 413 1484 L393 1484 C374 1484 360 1478 351 1466 C346 1460 340 1449 335 1433 L316 1349 C291 1358 264 1363 235 1363 C176 1363 128 1345 96 1314 C65 1286 48 1246 48 1203 L48 143 Z M177 1199 C177 1228 196 1250 235 1250 C272 1250 293 1228 293 1199 L293 146 C293 117 273 95 236 95 C197 95 177 117 177 146 L177 1199 Z " />
<glyph glyph-name="oslashacute" unicode="&#x1ff;" horiz-adv-x="473" d="M188 1214 C188 1202 195 1196 208 1196 L225 1196 C254 1196 266 1211 279 1246 L335 1412 C338 1421 340 1428 340 1434 C340 1454 325 1464 296 1464 L262 1464 C246 1464 233 1454 230 1441 L189 1220 L188 1214 Z M48 143 C48 105 60 72 83 44 L47 -117 C46 -119 46 -122 46 -125 C46 -135 53 -140 67 -140 L89 -140 C116 -140 137 -120 144 -92 L162 -7 C185 -14 210 -18 235 -18 C294 -18 341 -1 377 34 C407 64 422 100 422 143 L422 993 C422 1026 413 1055 394 1082 L431 1249 C432 1251 432 1254 432 1257 C432 1268 426 1274 413 1274 L393 1274 C374 1274 360 1268 351 1256 C346 1250 340 1239 335 1223 L316 1139 C291 1148 264 1153 235 1153 C176 1153 128 1135 96 1104 C65 1076 48 1036 48 993 L48 143 Z M177 989 C177 1018 196 1040 235 1040 C272 1040 293 1018 293 989 L293 146 C293 117 273 95 236 95 C197 95 177 117 177 146 L177 989 Z " />
<glyph glyph-name="Scommaaccent" unicode="&#x218;" horiz-adv-x="469" d="M234 -19 C290 -19 339 -2 371 27 C403 55 421 96 421 141 C421 218 415 289 403 354 C382 465 348 582 299 705 C276 764 256 817 240 864 C199 981 176 1084 176 1199 C176 1227 197 1250 234 1250 C271 1250 292 1228 292 1199 L292 911 C292 886 316 872 340 872 L398 872 C413 872 421 879 421 892 L421 1204 C421 1249 403 1289 370 1318 C337 1347 288 1364 232 1364 C177 1364 130 1347 97 1318 C65 1289 47 1249 47 1204 C47 1131 53 1063 65 1001 C85 898 120 783 170 658 C186 617 206 564 229 498 C269 378 292 268 292 145 C292 116 273 95 234 95 C197 95 177 116 177 145 L177 425 C177 438 171 448 160 455 C152 460 142 463 129 463 L70 463 C55 463 48 456 48 443 L48 141 C48 96 65 55 97 27 C131 -4 177 -19 234 -19 L234 -19 Z " />
<glyph glyph-name="scommaaccent" unicode="&#x219;" horiz-adv-x="469" d="M234 -19 C290 -19 339 -2 371 27 C403 55 421 96 421 141 C421 217 415 283 403 338 C383 430 348 517 299 599 C276 637 257 673 240 707 C199 790 176 873 176 988 C176 1016 197 1039 234 1039 C271 1039 292 1017 292 988 L292 760 C292 736 316 722 340 722 L398 722 C413 722 421 728 421 741 L421 992 C421 1037 403 1078 370 1107 C337 1135 288 1152 232 1152 C177 1152 129 1135 97 1107 C65 1078 47 1037 47 992 C47 919 53 856 65 803 C88 706 122 626 170 546 C186 519 206 483 229 436 C269 349 292 264 292 145 C292 116 273 95 234 95 C197 95 177 116 177 145 L177 365 C177 377 171 387 160 394 C152 399 142 402 129 402 L70 402 C55 402 48 396 48 383 L48 141 C48 96 65 55 97 27 C131 -4 177 -19 234 -19 L234 -19 Z M233 -265 C233 -272 237 -276 244 -276 C260 -276 274 -264 287 -241 C299 -217 305 -188 305 -154 C305 -113 278 -82 233 -82 C189 -82 163 -103 163 -142 C163 -178 189 -200 233 -201 L233 -265 Z " />
<glyph glyph-name="uni021A" unicode="&#x21a;" horiz-adv-x="396" d="M37 1344 C22 1344 14 1335 14 1318 L14 1299 C14 1255 34 1233 73 1233 L137 1233 L137 28 C137 8 144 0 164 0 L238 0 C257 0 266 9 266 28 L266 1233 L325 1233 C362 1233 384 1255 384 1299 L384 1318 C384 1335 376 1344 361 1344 L37 1344 Z M199 -249 C199 -256 203 -260 210 -260 C226 -260 240 -248 253 -225 C265 -201 271 -172 271 -138 C271 -97 244 -66 199 -66 C155 -66 129 -87 129 -126 C129 -162 155 -184 199 -185 L199 -249 Z " />
<glyph glyph-name="uni021B" unicode="&#x21b;" horiz-adv-x="397" d="M266 1022 L325 1022 C362 1022 384 1044 384 1088 L384 1107 C384 1124 376 1133 361 1133 L37 1133 C22 1133 14 1124 14 1107 L14 1088 C14 1044 34 1022 73 1022 L137 1022 L137 28 C137 8 144 0 164 0 L238 0 C257 0 266 9 266 28 L266 1022 Z M199 -249 C199 -256 203 -260 210 -260 C226 -260 240 -248 253 -225 C265 -201 271 -172 271 -138 C271 -97 244 -66 199 -66 C155 -66 129 -87 129 -126 C129 -162 155 -184 199 -185 L199 -249 Z " />
<glyph glyph-name="circumflex" unicode="&#x2c6;" horiz-adv-x="344" d="M186 1452 C185 1459 177 1465 170 1465 L88 1465 C80 1465 75 1461 72 1452 L4 1208 L3 1205 C3 1200 10 1195 17 1195 L64 1195 C85 1195 98 1206 101 1228 L129 1404 L157 1228 C160 1208 174 1195 194 1195 L242 1195 C250 1195 256 1200 255 1208 L186 1452 Z " />
<glyph glyph-name="caron" unicode="&#x2c7;" horiz-adv-x="256" d="M255 1453 C255 1460 249 1465 242 1465 L194 1465 C174 1465 160 1452 157 1432 L129 1255 L101 1432 C98 1454 85 1465 64 1465 L17 1465 C9 1465 1 1459 4 1452 L72 1208 C74 1199 79 1195 88 1195 L170 1195 C178 1195 185 1200 186 1208 L255 1452 L255 1453 Z " />
<glyph glyph-name="breve" unicode="&#x2d8;" horiz-adv-x="347" d="M259 1439 C259 1449 254 1454 245 1454 L207 1454 C194 1454 180 1447 177 1431 L168 1365 C163 1324 156 1295 146 1278 C141 1269 136 1265 129 1265 C114 1265 105 1281 97 1313 C92 1337 86 1377 80 1432 C77 1447 64 1454 51 1454 L13 1454 C5 1454 0 1447 0 1439 C0 1352 9 1290 27 1254 C46 1214 78 1195 129 1195 C222 1195 259 1267 259 1439 L259 1439 Z " />
<glyph glyph-name="dotaccent" unicode="&#x2d9;" horiz-adv-x="219" d="M109 1334 C57 1334 30 1308 30 1267 C30 1226 57 1200 109 1200 C162 1200 189 1226 189 1267 C189 1310 162 1334 109 1334 L109 1334 Z " />
<glyph glyph-name="ring" unicode="&#x2da;" horiz-adv-x="465" d="M225 1408 C146 1408 101 1370 101 1301 C101 1232 146 1192 225 1192 C305 1192 351 1232 351 1301 C351 1370 305 1408 225 1408 L225 1408 Z M225 1261 C197 1261 183 1274 183 1301 C183 1328 197 1342 225 1342 C253 1342 268 1326 268 1301 C268 1274 254 1261 225 1261 L225 1261 Z " />
<glyph glyph-name="ogonek" unicode="&#x2db;" horiz-adv-x="1109" d="M236 13 C236 22 233 28 228 31 C223 34 216 35 207 35 C157 35 119 26 94 8 C63 -13 48 -45 48 -88 L48 -113 C48 -225 109 -278 213 -278 C244 -278 270 -261 273 -224 L273 -203 C274 -188 267 -180 250 -180 C187 -180 155 -153 155 -109 L155 -82 C155 -30 177 0 234 0 L236 13 Z " />
<glyph glyph-name="tilde" unicode="&#x2dc;" horiz-adv-x="417" d="M261 1223 C275 1223 288 1220 300 1214 C301 1213 312 1204 329 1204 C344 1204 353 1210 353 1225 L353 1244 C353 1269 343 1288 322 1301 C305 1311 282 1316 253 1316 C229 1316 214 1311 193 1300 C172 1289 159 1284 140 1284 C123 1284 115 1288 103 1293 C100 1294 90 1302 73 1302 C58 1302 51 1295 51 1281 L51 1261 C51 1236 61 1218 81 1207 C99 1196 122 1190 150 1190 C168 1190 187 1196 207 1207 C227 1218 242 1223 261 1223 L261 1223 Z " />
<glyph glyph-name="hungarumlaut" unicode="&#x2dd;" horiz-adv-x="278" d="M17 1216 C17 1203 23 1196 36 1196 L53 1196 C82 1196 99 1213 107 1246 L156 1412 C159 1425 160 1434 160 1438 C160 1455 151 1464 124 1464 L90 1464 C73 1464 60 1454 59 1441 L17 1220 L17 1216 Z M168 1217 C168 1203 175 1196 188 1196 L204 1196 C235 1196 251 1213 259 1246 L307 1412 C310 1424 312 1433 312 1439 C312 1456 303 1464 276 1464 L241 1464 C225 1464 212 1454 209 1441 L168 1220 L168 1217 Z " />
<glyph glyph-name="tonos" unicode="&#x384;" horiz-adv-x="204" d="M51 1212 C51 1201 57 1196 68 1196 L91 1196 C116 1196 125 1207 133 1236 L151 1417 C152 1426 153 1432 153 1435 C153 1455 140 1465 113 1465 L71 1465 C57 1465 50 1458 50 1443 L51 1214 L51 1212 Z " />
<glyph glyph-name="Alphatonos" unicode="&#x386;" horiz-adv-x="432" d="M183 1417 C183 1407 188 1402 199 1402 L219 1402 C243 1402 252 1413 257 1442 L274 1623 C275 1631 276 1637 276 1640 C276 1661 266 1671 239 1671 L201 1671 C188 1671 182 1664 182 1649 L183 1420 L183 1417 Z M314 1316 C311 1339 301 1344 276 1344 L175 1344 C150 1344 139 1339 136 1316 L26 23 L26 17 C26 5 31 0 47 0 L108 0 C136 0 156 20 157 48 L169 230 L281 230 L293 48 C294 20 315 0 343 0 L404 0 C423 0 425 4 424 23 L314 1316 Z M276 337 L174 337 L225 1155 L276 337 Z " />
<glyph glyph-name="Epsilontonos" unicode="&#x388;" horiz-adv-x="385" d="M169 1417 C169 1407 174 1402 185 1402 L205 1402 C229 1402 238 1413 243 1442 L260 1623 C261 1631 262 1637 262 1640 C262 1661 252 1671 225 1671 L187 1671 C174 1671 168 1664 168 1649 L169 1420 L169 1417 Z M73 1344 C54 1344 50 1339 50 1320 L50 24 C50 4 55 0 79 0 L326 0 C341 0 349 9 349 26 L349 45 C349 89 327 111 290 111 L179 111 L179 610 L271 610 C308 610 330 633 330 676 L330 696 C330 713 322 721 307 721 L179 721 L179 1233 L290 1233 C327 1233 349 1256 349 1299 L349 1318 C349 1335 341 1344 326 1344 L73 1344 Z " />
<glyph glyph-name="Etatonos" unicode="&#x389;" horiz-adv-x="465" d="M197 1417 C197 1407 202 1402 213 1402 L233 1402 C257 1402 266 1413 271 1442 L288 1623 C289 1631 290 1637 290 1640 C290 1661 280 1671 253 1671 L215 1671 C202 1671 196 1664 196 1649 L197 1420 L197 1417 Z M417 1321 C417 1338 413 1344 394 1344 L338 1344 C310 1344 288 1325 288 1294 L288 738 L177 738 L177 1294 C177 1325 155 1344 127 1344 L71 1344 C52 1344 48 1338 48 1321 L48 24 C48 7 53 0 72 0 L125 0 C154 0 177 20 177 51 L177 630 L288 630 L288 51 C288 20 311 0 340 0 L393 0 C412 0 417 7 417 24 L417 1321 Z " />
<glyph glyph-name="Iotatonos" unicode="&#x38a;" horiz-adv-x="229" d="M86 1417 C86 1407 91 1402 102 1402 L122 1402 C146 1402 155 1413 160 1442 L177 1623 C178 1631 179 1637 179 1640 C179 1661 169 1671 142 1671 L104 1671 C91 1671 85 1664 85 1649 L86 1420 L86 1417 Z M179 1321 C179 1338 175 1344 156 1344 L101 1344 C73 1344 50 1323 50 1294 L50 29 C50 10 59 0 78 0 L150 0 C169 0 179 10 179 29 L179 1321 Z " />
<glyph glyph-name="Omicrontonos" unicode="&#x38c;" horiz-adv-x="469" d="M202 1417 C202 1407 207 1402 218 1402 L238 1402 C262 1402 271 1413 276 1442 L293 1623 C294 1631 295 1637 295 1640 C295 1661 285 1671 258 1671 L220 1671 C207 1671 201 1664 201 1649 L202 1420 L202 1417 Z M48 143 C48 103 63 62 94 33 C128 -1 175 -18 235 -18 C294 -18 341 -1 377 34 C407 64 422 100 422 143 L422 1203 C422 1244 406 1286 375 1314 C343 1345 294 1363 235 1363 C176 1363 128 1345 96 1314 C65 1286 48 1246 48 1203 L48 143 Z M177 1199 C177 1228 196 1250 235 1250 C272 1250 293 1228 293 1199 L293 146 C293 117 273 95 236 95 C197 95 177 117 177 146 L177 1199 Z " />
<glyph glyph-name="Upsilontonos" unicode="&#x38e;" horiz-adv-x="413" d="M169 1422 C169 1411 175 1406 186 1406 L209 1406 C234 1406 243 1417 251 1446 L269 1627 C270 1636 271 1642 271 1645 C271 1665 258 1675 231 1675 L189 1675 C175 1675 168 1668 168 1653 L169 1424 L169 1422 Z M399 1317 C402 1335 395 1344 376 1344 L326 1344 C298 1344 269 1324 266 1296 L206 657 L146 1296 C143 1324 114 1344 86 1344 L36 1344 C21 1344 13 1338 13 1325 C13 1322 13 1319 14 1317 L142 439 L142 29 C142 10 151 0 170 0 L242 0 C261 0 271 10 271 29 L271 440 L399 1317 Z " />
<glyph glyph-name="Omegatonos" unicode="&#x38f;" horiz-adv-x="469" d="M202 1417 C202 1407 207 1402 218 1402 L238 1402 C262 1402 271 1413 276 1442 L293 1623 C294 1631 295 1637 295 1640 C295 1661 285 1671 258 1671 L220 1671 C207 1671 201 1664 201 1649 L202 1420 L202 1417 Z M177 1199 C177 1228 196 1250 235 1250 C272 1250 293 1228 293 1199 L293 541 C293 496 285 464 272 420 C257 375 251 347 251 307 L251 24 C251 7 255 0 274 0 L408 0 C423 0 427 9 427 26 L427 54 C427 98 414 115 385 115 L363 115 L363 289 C363 329 372 357 392 402 C411 446 421 478 421 523 L422 1203 C422 1242 408 1282 379 1311 C346 1346 298 1363 235 1363 C173 1363 125 1346 92 1311 C63 1280 48 1240 48 1203 L48 523 C48 478 59 446 79 402 C100 357 110 329 110 289 L110 115 L89 115 C58 115 46 97 46 54 L46 26 C46 9 50 0 65 0 L199 0 C218 0 222 7 222 24 L222 307 C222 347 216 370 200 421 C185 465 177 497 177 541 L177 1199 Z " />
<glyph glyph-name="Alpha" unicode="&#x391;" horiz-adv-x="432" d="M304 1316 C301 1339 291 1344 266 1344 L165 1344 C140 1344 129 1339 126 1316 L16 23 L16 17 C16 5 21 0 37 0 L98 0 C126 0 146 20 147 48 L159 230 L271 230 L283 48 C284 20 305 0 333 0 L394 0 C413 0 415 4 414 23 L304 1316 Z M266 337 L164 337 L215 1155 L266 337 Z " />
<glyph glyph-name="Beta" unicode="&#x392;" horiz-adv-x="469" d="M232 0 C296 0 345 18 379 54 C407 83 421 122 421 161 L421 550 C421 611 410 657 374 685 C411 713 421 762 421 831 L421 1183 C421 1220 407 1262 379 1291 C346 1326 298 1344 236 1344 L71 1344 C52 1344 48 1339 48 1320 L48 24 C48 5 52 0 71 0 L232 0 Z M234 1233 C271 1233 292 1211 292 1182 L292 820 C292 795 290 777 285 766 C276 747 260 738 239 738 L177 738 L177 1233 L234 1233 Z M239 631 C260 631 276 622 285 603 C290 592 292 574 292 549 L292 162 C292 133 271 111 234 111 L177 111 L177 631 L239 631 Z " />
<glyph glyph-name="Gamma" unicode="&#x393;" horiz-adv-x="358" d="M48 24 C48 5 52 0 71 0 L126 0 C154 0 177 21 177 49 L177 1233 L288 1233 C327 1233 347 1255 347 1299 L347 1318 C347 1335 339 1344 324 1344 L71 1344 C52 1344 48 1337 48 1320 L48 24 Z " />
<glyph glyph-name="uni0394" unicode="&#x394;" horiz-adv-x="432" d="M394 0 C413 0 415 4 414 23 L304 1316 C301 1339 295 1344 274 1344 L157 1344 C134 1344 129 1337 126 1316 L16 23 L16 17 C16 5 21 0 37 0 L394 0 Z M279 107 L150 107 L215 1155 L279 107 Z " />
<glyph glyph-name="Epsilon" unicode="&#x395;" horiz-adv-x="385" d="M73 1344 C54 1344 50 1339 50 1320 L50 24 C50 4 55 0 79 0 L326 0 C341 0 349 9 349 26 L349 45 C349 89 327 111 290 111 L179 111 L179 610 L271 610 C308 610 330 633 330 676 L330 696 C330 713 322 721 307 721 L179 721 L179 1233 L290 1233 C327 1233 349 1256 349 1299 L349 1318 C349 1335 341 1344 326 1344 L73 1344 Z " />
<glyph glyph-name="Zeta" unicode="&#x396;" horiz-adv-x="360" d="M55 1344 C41 1344 34 1335 34 1318 L34 1299 C34 1255 52 1233 88 1233 L181 1233 L27 48 C26 45 26 42 26 38 C26 14 45 0 72 0 L314 0 C328 0 335 9 335 26 L335 45 C335 90 317 112 280 112 L158 112 L325 1316 C326 1319 326 1322 326 1326 C326 1341 319 1344 299 1344 L55 1344 Z " />
<glyph glyph-name="Eta" unicode="&#x397;" horiz-adv-x="465" d="M417 1321 C417 1338 413 1344 394 1344 L338 1344 C310 1344 288 1325 288 1294 L288 738 L177 738 L177 1294 C177 1325 155 1344 127 1344 L71 1344 C52 1344 48 1338 48 1321 L48 24 C48 7 53 0 72 0 L125 0 C154 0 177 20 177 51 L177 630 L288 630 L288 51 C288 20 311 0 340 0 L393 0 C412 0 417 7 417 24 L417 1321 Z " />
<glyph glyph-name="Theta" unicode="&#x398;" horiz-adv-x="469" d="M48 143 C48 103 63 62 94 33 C128 -1 175 -18 235 -18 C294 -18 341 -1 377 34 C407 64 422 100 422 143 L422 1203 C422 1244 406 1286 375 1314 C343 1345 294 1363 235 1363 C176 1363 128 1345 96 1314 C65 1286 48 1246 48 1203 L48 143 Z M177 1199 C177 1228 196 1250 235 1250 C272 1250 293 1228 293 1199 L293 717 L177 717 L177 1199 Z M236 95 C197 95 177 117 177 146 L177 614 L293 614 L293 146 C293 117 273 95 236 95 L236 95 Z " />
<glyph glyph-name="Iota" unicode="&#x399;" horiz-adv-x="229" d="M179 1321 C179 1338 175 1344 156 1344 L101 1344 C73 1344 50 1323 50 1294 L50 29 C50 10 59 0 78 0 L150 0 C169 0 179 10 179 29 L179 1321 Z " />
<glyph glyph-name="Kappa" unicode="&#x39a;" horiz-adv-x="469" d="M310 48 C313 20 341 0 369 0 L429 0 C444 0 448 3 448 12 C448 17 448 20 447 23 L343 681 L447 1321 C448 1324 448 1327 448 1332 C448 1341 444 1344 429 1344 L369 1344 C341 1344 314 1324 310 1296 L221 737 L177 737 L177 1295 C177 1323 154 1344 126 1344 L71 1344 C52 1344 48 1339 48 1320 L48 24 C48 5 52 0 71 0 L126 0 C154 0 177 21 177 49 L177 630 L220 630 L310 48 Z " />
<glyph glyph-name="Lambda" unicode="&#x39b;" horiz-adv-x="423" d="M304 1316 C301 1336 294 1344 274 1344 L157 1344 C138 1344 128 1335 126 1316 L16 23 C15 21 15 18 15 14 C15 3 21 0 37 0 L92 0 C120 0 144 20 147 48 L215 1159 L283 48 C286 20 311 0 339 0 L394 0 C409 0 415 5 415 14 C415 18 415 21 414 23 L304 1316 Z " />
</font>
</svg>
