<?xml version="1.0" encoding="UTF-8"?>
<svg xmlns="http://www.w3.org/2000/svg" xmlns:xlink="http://www.w3.org/1999/xlink" version="1.2" >
<font id="Baskerville URW Wide Bold">
<font-face  font-family="Baskerville URW Wide" units-per-em="1000" ascent="678" descent="-322" font-style="normal" font-weight="700" font-stretch="normal" cap-height="666" x-height="403" underline-position="-92" underline-thickness="73" />
<missing-glyph  horiz-adv-x="250" d="" />
<glyph glyph-name="NULL" d="" />
<glyph glyph-name="CR" unicode="&#xd;" horiz-adv-x="250" d="" />
<glyph glyph-name="space" unicode="&#x20;" horiz-adv-x="250" d="" />
<glyph glyph-name="exclam" unicode="&#x21;" horiz-adv-x="311" d="M174 210 L216 551 C219 575 221 595 221 609 C221 649 195 673 153 673 C108 673 82 649 82 608 C82 592 83 572 86 549 L128 210 L174 210 Z M151 136 C106 136 70 102 70 59 C70 18 106 -17 149 -17 C195 -17 231 17 231 60 C231 102 195 136 151 136 L151 136 Z " />
<glyph glyph-name="quotedbl" unicode="&#x22;" horiz-adv-x="460" d="M149 399 L192 667 L43 667 L85 399 L149 399 Z M374 399 L417 667 L268 667 L311 399 L374 399 Z " />
<glyph glyph-name="numbersign" unicode="&#x23;" horiz-adv-x="609" d="M406 227 L521 227 L531 283 L422 283 L450 397 L565 397 L575 453 L466 453 L523 667 L458 667 L401 453 L278 453 L335 667 L271 667 L214 453 L91 453 L81 397 L198 397 L170 283 L46 283 L36 227 L154 227 L94 0 L158 0 L218 227 L341 227 L281 0 L346 0 L406 227 Z M385 397 L357 283 L234 283 L262 397 L385 397 Z " />
<glyph glyph-name="dollar" unicode="&#x24;" horiz-adv-x="558" d="M292 -123 L292 -13 C422 -1 506 77 506 185 C506 231 487 277 457 305 C418 340 386 358 302 393 L292 397 L292 609 C342 601 367 582 378 542 C393 497 410 478 437 478 C463 478 485 500 485 526 C485 591 397 648 292 652 L292 680 L247 680 L247 650 C197 644 164 633 132 611 C90 583 62 529 62 476 C62 423 86 377 132 341 C156 322 172 313 228 289 L236 286 L247 281 L247 31 C201 37 175 58 159 100 C145 132 130 144 105 144 C77 144 55 123 55 97 C55 38 134 -8 247 -15 L247 -123 L292 -123 Z M292 259 C297 257 300 255 302 254 C305 253 315 248 330 241 C389 215 412 185 412 139 C412 80 366 38 292 30 L292 259 Z M245 416 C177 445 153 471 153 518 C153 561 187 599 231 605 L239 606 C240 606 242 607 245 608 L245 416 Z " />
<glyph glyph-name="percent" unicode="&#x25;" horiz-adv-x="784" d="M188 680 C146 680 109 667 84 643 C50 610 29 558 29 505 C29 400 88 334 184 334 C228 334 265 347 291 371 C323 401 343 454 343 507 C343 555 327 602 300 633 C273 665 237 680 188 680 L188 680 Z M187 645 C228 645 247 604 247 516 C247 412 228 366 186 366 C141 366 125 404 125 509 C125 606 143 645 187 645 L187 645 Z M242 0 L601 660 L541 660 L181 0 L242 0 Z M598 333 C555 333 519 320 494 296 C460 263 439 211 439 159 C439 53 498 -12 595 -12 C691 -12 753 56 753 161 C753 209 737 255 711 286 C684 318 647 333 598 333 L598 333 Z M597 300 C638 300 657 258 657 168 C657 112 645 51 632 37 C623 27 611 22 597 22 C551 22 535 59 535 164 C535 261 553 300 597 300 L597 300 Z " />
<glyph glyph-name="ampersand" unicode="&#x26;" horiz-adv-x="789" d="M723 121 C715 80 696 61 662 61 C625 61 592 85 549 143 C544 149 543 150 538 157 C554 177 574 208 593 243 C644 330 665 351 718 363 L718 406 L509 406 L509 363 C545 360 566 345 566 322 L566 319 L566 318 L565 317 C563 286 543 243 507 196 C452 267 401 331 353 391 C435 432 478 481 478 537 C478 606 414 654 322 654 C222 654 156 596 156 508 C156 466 171 428 211 368 C91 299 44 242 44 165 C44 66 137 -15 250 -15 C317 -15 380 11 451 67 C501 13 557 -14 618 -14 C670 -14 720 9 745 44 C759 65 766 86 769 121 L723 121 Z M412 108 L415 103 C386 77 351 62 317 62 C239 62 160 143 160 223 C160 260 190 299 240 327 C283 275 291 264 368 165 L412 108 Z M318 431 C278 485 262 518 262 549 C262 584 287 609 322 609 C362 609 391 577 391 535 C391 495 370 465 318 431 L318 431 Z " />
<glyph glyph-name="quotesingle" unicode="&#x27;" horiz-adv-x="256" d="M162 399 L205 667 L51 667 L94 399 L162 399 Z " />
<glyph glyph-name="parenleft" unicode="&#x28;" horiz-adv-x="326" d="M311 -243 C209 -130 148 43 148 218 C148 394 198 537 309 677 L244 677 C142 558 84 391 84 218 C84 46 148 -136 246 -243 L311 -243 Z " />
<glyph glyph-name="parenright" unicode="&#x29;" horiz-adv-x="326" d="M80 -243 C177 -138 242 46 242 219 C242 392 185 555 82 677 L17 677 C130 533 178 395 178 218 C178 45 116 -131 15 -243 L80 -243 Z " />
<glyph glyph-name="asterisk" unicode="&#x2a;" horiz-adv-x="521" d="M228 428 C216 413 188 396 144 378 C91 357 70 337 70 309 C70 279 101 252 136 252 C168 252 188 272 204 320 C220 369 239 397 260 406 C272 402 294 372 305 347 C334 272 350 252 383 252 C417 252 448 279 448 309 C448 338 425 358 369 381 C327 397 307 410 290 428 C311 438 347 446 369 446 C376 446 384 446 396 444 C405 443 413 443 420 443 C461 443 493 469 493 503 C493 536 467 564 435 564 C415 564 394 553 367 528 C325 489 308 476 278 464 C277 469 277 472 277 474 C277 494 285 524 297 555 C314 595 317 606 317 623 C317 653 291 676 257 676 C224 676 198 653 198 624 C198 608 207 579 221 547 C233 522 240 494 240 476 C240 472 240 469 239 464 C219 469 192 488 162 516 C126 550 107 561 84 561 C53 561 27 533 27 502 C27 466 59 442 106 442 C112 442 116 442 121 443 C146 445 146 445 151 445 C169 445 213 435 228 428 L228 428 Z " />
<glyph glyph-name="plus" unicode="&#x2b;" horiz-adv-x="525" d="M10 396 L10 323 L224 323 L224 123 L300 123 L300 323 L516 323 L516 396 L300 396 L300 596 L224 596 L224 396 L10 396 Z " />
<glyph glyph-name="comma" unicode="&#x2c;" horiz-adv-x="323" d="M62 -197 C175 -187 252 -107 252 -2 C252 79 209 133 145 133 C97 133 63 101 63 56 C63 15 94 -15 136 -15 C142 -15 148 -15 152 -13 C168 -10 168 -10 172 -10 C185 -10 194 -21 194 -36 C194 -90 139 -138 62 -150 L62 -197 Z " />
<glyph glyph-name="hyphen" unicode="&#x2d;" horiz-adv-x="352" d="M34 247 L34 182 L321 182 L321 247 L34 247 Z " />
<glyph glyph-name="period" unicode="&#x2e;" horiz-adv-x="323" d="M161 136 C116 136 80 102 80 59 C80 18 116 -17 159 -17 C205 -17 241 17 241 60 C241 102 205 136 161 136 L161 136 Z " />
<glyph glyph-name="slash" unicode="&#x2f;" horiz-adv-x="334" d="M299 681 L211 681 L-15 -253 L72 -253 L299 681 Z " />
<glyph glyph-name="zero" unicode="0" horiz-adv-x="558" d="M278 672 C201 672 131 630 92 561 C57 500 41 424 41 325 C41 229 57 158 91 98 C131 28 201 -15 276 -15 C343 -15 392 9 437 62 C493 129 515 206 515 333 C515 429 500 498 466 557 C425 630 356 672 278 672 L278 672 Z M379 246 C379 184 374 128 366 101 C352 55 322 31 280 31 C241 31 215 51 199 93 C186 129 178 215 178 331 C178 428 185 519 195 553 C210 603 237 627 280 627 C351 627 381 565 379 423 L379 404 L378 352 L378 332 L378 306 L379 288 L379 258 L379 251 L379 246 Z " />
<glyph glyph-name="one" unicode="1" horiz-adv-x="558" d="M124 579 L138 579 C205 579 221 561 222 488 L222 122 C219 59 206 44 156 44 L132 44 L132 0 L440 0 L440 44 L415 44 C361 45 350 61 351 131 L351 672 L309 672 C262 642 197 625 124 622 L124 579 Z " />
<glyph glyph-name="two" unicode="2" horiz-adv-x="558" d="M60 0 L389 0 C419 0 429 -5 429 -20 L428 -33 L426 -42 L425 -44 L470 -44 L497 86 L191 86 C226 118 257 148 315 208 C465 360 496 409 496 487 C496 534 482 574 453 604 C415 646 347 672 277 672 C157 672 60 601 60 512 C60 470 83 416 102 416 C105 416 109 417 113 419 L114 419 C119 421 124 423 129 424 C129 425 130 425 140 430 C142 430 146 433 151 436 C156 438 160 440 162 441 C175 447 181 452 181 456 C181 460 178 465 170 472 C152 488 142 511 142 534 C142 584 187 624 245 624 C315 624 359 573 359 492 C359 405 323 323 239 217 C189 155 131 98 60 41 L60 0 Z " />
<glyph glyph-name="three" unicode="3" horiz-adv-x="558" d="M332 381 L327 380 C324 380 323 380 323 382 C323 386 333 392 358 404 C427 436 476 497 476 548 C476 621 399 672 290 672 C168 672 70 605 70 521 C70 485 89 451 108 451 C114 451 121 453 128 456 C143 463 144 463 162 469 C178 474 189 481 189 486 C189 488 187 491 184 494 C161 514 155 526 155 547 C155 589 200 625 254 625 C311 625 347 588 347 529 C347 503 342 483 330 464 C305 425 267 390 224 367 C190 350 174 334 174 321 C174 306 186 294 200 294 C210 294 217 299 234 314 C252 331 267 338 287 338 C336 338 359 296 359 207 C359 150 352 111 337 86 C317 51 278 29 236 29 C198 29 176 44 162 82 C146 125 131 138 101 138 C70 138 44 114 44 86 C44 29 120 -15 219 -15 C378 -15 496 82 496 212 C496 315 432 381 333 381 L332 381 Z " />
<glyph glyph-name="four" unicode="4" horiz-adv-x="558" d="M281 226 L281 129 C282 62 268 45 212 44 L188 44 L188 0 L499 0 L499 44 L477 44 C423 45 410 63 411 132 L411 226 L519 226 L533 314 L502 314 L498 304 C486 282 484 281 460 281 L451 281 L445 281 L443 281 L429 281 L411 281 L411 669 L344 669 L35 285 L35 226 L281 226 Z M281 281 L89 281 L281 518 L281 281 Z " />
<glyph glyph-name="five" unicode="5" horiz-adv-x="558" d="M151 337 C175 377 204 395 245 395 C319 395 354 343 354 235 C354 172 343 111 326 80 C309 50 273 30 235 30 C197 30 171 46 155 79 C131 126 118 137 90 137 C60 137 35 114 35 88 C35 31 117 -15 218 -15 C379 -15 492 85 492 228 C492 287 474 336 439 374 C398 419 337 445 275 445 C225 445 183 429 148 397 L154 570 L342 570 L355 570 C390 568 400 579 434 660 L112 660 L99 337 L151 337 Z " />
<glyph glyph-name="six" unicode="6" horiz-adv-x="558" d="M201 379 C201 530 249 624 327 624 C357 624 376 614 393 587 C412 558 429 546 451 546 C479 546 501 567 501 593 C501 636 438 672 360 672 C179 672 54 514 54 285 C54 102 148 -15 294 -15 C424 -15 520 81 520 210 C520 285 489 346 433 381 C397 404 350 418 308 418 C268 418 232 405 201 379 L201 379 Z M284 373 C349 373 378 318 378 195 C378 80 352 30 291 30 C228 30 195 102 195 243 C195 327 227 373 284 373 L284 373 Z " />
<glyph glyph-name="seven" unicode="7" horiz-adv-x="558" d="M504 660 L198 660 C172 660 162 664 162 676 C162 678 162 679 163 683 L120 683 L59 504 L104 504 L105 506 L106 509 C121 550 130 556 174 556 L177 556 L184 556 L418 556 L205 131 L202 125 L195 112 C178 78 167 48 167 31 C167 6 194 -15 224 -15 C262 -15 287 13 311 87 L504 660 Z " />
<glyph glyph-name="eight" unicode="8" horiz-adv-x="558" d="M349 349 C447 373 497 427 497 506 C497 605 408 674 282 674 C150 674 63 607 63 506 C63 427 118 369 214 349 C101 330 43 270 43 174 C43 128 58 88 86 57 C126 13 203 -15 282 -15 C352 -15 423 9 463 45 C498 78 517 124 517 177 C517 272 458 332 349 349 L349 349 Z M281 631 C339 631 367 590 367 504 C367 409 341 368 280 368 C217 368 192 408 192 508 C192 589 222 631 281 631 L281 631 Z M282 324 C354 324 382 281 382 173 C382 70 353 29 281 29 C210 29 178 73 178 171 C178 227 189 275 206 296 C221 314 248 324 282 324 L282 324 Z " />
<glyph glyph-name="nine" unicode="9" horiz-adv-x="558" d="M356 278 C356 127 308 33 231 33 C200 33 182 43 165 69 C146 98 129 110 107 110 C79 110 57 89 57 63 C57 20 120 -15 197 -15 C378 -15 503 143 503 372 C503 555 409 672 263 672 C133 672 37 576 37 447 C37 372 68 311 124 276 C160 253 207 239 249 239 C289 239 325 252 356 278 L356 278 Z M266 627 C329 627 362 555 362 414 C362 330 330 284 273 284 C208 284 179 339 179 462 C179 577 205 627 266 627 L266 627 Z " />
<glyph glyph-name="colon" unicode="&#x3a;" horiz-adv-x="323" d="M163 136 C118 136 82 102 82 59 C82 18 118 -17 161 -17 C207 -17 243 17 243 60 C243 102 207 136 163 136 L163 136 Z M163 423 C119 423 82 388 82 347 C82 303 118 269 163 269 C207 269 243 304 243 346 C243 389 207 423 163 423 L163 423 Z " />
<glyph glyph-name="semicolon" unicode="&#x3b;" horiz-adv-x="323" d="M62 -197 C175 -187 252 -107 252 -2 C252 79 209 133 145 133 C97 133 63 101 63 56 C63 15 94 -15 136 -15 C142 -15 148 -15 152 -13 C168 -10 168 -10 172 -10 C185 -10 194 -21 194 -36 C194 -90 139 -138 62 -150 L62 -197 Z M157 423 C112 423 76 388 76 346 C76 304 112 269 155 269 C201 269 237 303 237 346 C237 389 201 423 157 423 L157 423 Z " />
<glyph glyph-name="less" unicode="&#x3c;" horiz-adv-x="525" d="M484 633 L41 369 L41 361 L484 73 L484 239 L218 411 L484 571 L484 633 Z " />
<glyph glyph-name="equal" unicode="&#x3d;" horiz-adv-x="525" d="M17 471 L17 400 L509 400 L509 471 L17 471 Z M10 320 L10 249 L516 249 L516 320 L10 320 Z " />
<glyph glyph-name="greater" unicode="&#x3e;" horiz-adv-x="525" d="M41 73 L484 337 L484 346 L41 633 L41 468 L307 296 L41 136 L41 73 Z " />
<glyph glyph-name="question" unicode="&#x3f;" horiz-adv-x="477" d="M168 136 C123 136 87 102 87 59 C87 18 123 -17 167 -17 C213 -17 249 17 249 60 C249 102 213 136 168 136 L168 136 Z M144 209 L192 209 L192 326 C216 314 237 309 263 309 C359 309 430 381 430 478 C430 594 343 673 215 673 C122 673 45 629 45 575 C45 554 67 536 93 536 C118 536 134 549 145 578 C158 616 175 629 209 629 C266 629 300 574 300 482 C300 406 274 363 228 363 C209 363 194 371 182 387 L144 387 L144 209 Z " />
<glyph glyph-name="at" unicode="&#x40;" horiz-adv-x="822" d="M526 477 C500 510 469 525 429 525 C384 525 347 508 308 471 C252 418 217 340 217 265 C217 194 269 137 333 137 C367 137 411 159 437 188 C444 196 450 201 453 201 C454 201 456 200 456 199 L457 199 L458 199 L458 198 C458 191 461 184 471 171 C487 150 506 140 532 140 C648 140 759 267 759 401 C759 560 621 679 438 679 C229 679 63 523 63 326 C63 139 219 -12 413 -12 C494 -12 578 17 636 65 C662 86 684 109 714 146 L662 150 C631 121 617 108 599 95 C549 57 483 35 417 35 C249 35 113 165 113 324 C113 396 144 476 192 530 C251 595 343 634 438 634 C594 634 713 531 713 397 C713 342 691 284 652 241 C620 204 583 182 554 182 C539 182 527 195 527 211 C527 220 531 240 536 254 L540 266 L617 515 C589 512 571 512 536 511 L526 477 Z M473 329 C472 327 471 325 470 320 C466 310 464 303 463 301 C453 270 443 248 432 233 C407 196 377 175 348 175 C316 175 294 199 294 233 C294 305 330 398 380 454 C399 475 425 488 451 488 C480 488 503 463 503 432 C503 425 498 400 494 389 L473 329 Z " />
<glyph glyph-name="A" unicode="A" horiz-adv-x="690" d="M704 0 L704 44 L698 44 C647 50 633 65 592 157 L368 678 L321 678 L117 197 L105 170 C71 86 40 51 -7 44 L-14 44 L-14 0 L209 0 L209 44 L201 44 C162 44 135 63 135 91 C135 107 139 121 160 170 L173 202 L406 202 L434 136 C448 105 456 82 456 73 C456 53 434 44 388 44 L381 44 L381 0 L704 0 Z M388 247 L191 247 L288 475 L388 247 Z " />
<glyph glyph-name="B" unicode="B" horiz-adv-x="700" d="M33 665 L33 621 L43 621 C114 622 132 601 134 518 L134 149 C135 69 112 43 45 44 L30 44 L30 0 L363 0 C452 0 508 8 551 26 C618 55 657 110 657 177 C657 237 627 286 568 319 C536 338 499 348 440 356 C488 367 517 377 542 390 C595 419 623 461 623 512 C623 561 596 607 552 632 C503 660 436 672 327 672 C292 672 292 672 172 668 L33 665 Z M282 331 L302 331 C379 331 420 324 444 306 C479 280 494 241 494 175 C494 142 489 119 479 101 C459 67 416 47 361 47 C297 47 282 70 282 166 L282 331 Z M282 378 L282 625 C291 626 297 626 308 626 C423 626 463 594 463 501 C463 409 423 378 307 378 L288 378 L282 378 Z " />
<glyph glyph-name="C" unicode="C" horiz-adv-x="773" d="M661 254 C648 188 613 122 576 92 C533 59 479 40 426 40 C351 40 285 76 250 136 C225 179 213 243 213 328 C213 528 283 628 422 628 C488 628 556 598 593 552 C622 516 641 473 656 412 L701 412 L694 661 L649 661 C643 634 636 614 625 593 C567 650 490 679 398 679 C195 679 45 529 45 326 C45 130 193 -13 396 -13 C491 -13 573 18 631 76 C646 58 654 40 661 10 L707 10 L707 254 L661 254 Z " />
<glyph glyph-name="D" unicode="D" horiz-adv-x="827" d="M31 622 L43 622 C115 623 134 601 135 519 L135 149 C135 69 113 43 45 44 L30 44 L30 0 L300 0 C449 0 507 5 558 21 C697 65 781 181 781 328 C781 447 725 549 629 604 C547 651 434 672 258 672 C232 672 211 672 174 671 C146 671 142 671 99 669 C70 667 54 666 31 665 L31 622 Z M283 626 C301 627 311 627 326 627 C401 627 447 617 490 592 C573 544 613 457 613 325 C613 188 564 92 482 66 C446 54 403 47 366 47 C299 47 283 71 283 171 L283 626 Z " />
<glyph glyph-name="E" unicode="E" horiz-adv-x="689" d="M611 215 C577 90 525 45 417 47 L387 47 C301 44 278 70 281 164 L281 327 L353 327 C422 324 438 309 440 243 L440 235 L488 235 L488 462 L440 462 L440 455 C435 387 424 377 351 374 L281 374 L281 621 L403 621 C500 624 535 597 565 496 L611 496 L599 667 L35 667 L35 624 L47 624 C111 625 133 600 133 521 L133 149 C134 69 111 43 44 44 L30 44 L30 0 L650 0 L658 215 L611 215 Z " />
<glyph glyph-name="F" unicode="F" horiz-adv-x="615" d="M600 667 L29 667 L29 624 L42 624 C114 625 131 605 133 521 L133 149 C133 68 113 44 43 44 L29 44 L29 0 L389 0 L389 44 L371 44 C304 42 281 70 281 149 L281 326 L341 326 C407 325 421 311 427 237 L427 230 L474 230 L474 461 L427 461 L427 454 C421 387 407 375 342 373 L281 373 L281 621 L406 621 C496 625 532 595 558 494 L605 494 L600 667 Z " />
<glyph glyph-name="G" unicode="G" horiz-adv-x="821" d="M481 300 L481 256 L492 256 C552 252 568 238 570 186 L570 161 L574 139 C574 132 566 109 558 96 C538 60 486 37 424 37 C345 37 284 68 252 124 C228 168 216 231 216 319 C216 415 229 483 256 533 C286 590 353 625 429 625 C542 625 622 557 653 436 L697 436 L693 667 L650 667 C647 640 641 618 630 595 C566 653 493 680 405 680 C310 680 225 648 162 590 C88 522 45 423 45 324 C45 132 197 -13 398 -13 C452 -13 490 -7 568 13 C620 27 667 34 703 34 C707 34 713 34 724 32 L724 149 C723 233 733 250 791 255 L800 256 L800 300 L481 300 Z " />
<glyph glyph-name="H" unicode="H" horiz-adv-x="877" d="M600 325 L600 149 C601 70 577 42 510 44 L499 27 L499 0 L848 0 L848 44 L837 44 C770 43 748 69 748 149 L748 521 C749 604 767 624 839 623 L848 623 L848 667 L499 667 L499 623 L508 623 C579 624 599 603 600 521 L600 377 L279 377 L279 521 C280 603 298 624 370 623 L378 623 L378 667 L30 667 L30 623 L40 623 C110 625 130 603 131 521 L131 149 C132 70 108 42 42 44 L30 44 L30 0 L378 0 L378 44 L368 44 C302 42 278 70 279 149 L279 325 L600 325 Z " />
<glyph glyph-name="I" unicode="I" horiz-adv-x="413" d="M30 623 L41 623 C113 624 131 604 132 521 L132 149 C132 68 112 44 43 44 L30 44 L30 0 L383 0 L383 44 L369 44 C300 44 280 68 280 149 L280 521 C281 604 298 624 370 623 L383 623 L383 667 L30 667 L30 623 Z " />
<glyph glyph-name="J" unicode="J" horiz-adv-x="413" d="M32 667 L32 623 L50 623 C123 624 140 604 141 521 L141 27 C141 -76 136 -112 116 -146 C98 -178 68 -194 26 -194 C-5 -194 -24 -184 -24 -169 C-24 -165 -22 -161 -18 -154 C-10 -143 -8 -137 -8 -130 C-8 -97 -37 -74 -77 -74 C-122 -74 -156 -103 -156 -141 C-156 -199 -85 -238 21 -238 C103 -238 173 -216 219 -175 C273 -127 289 -75 289 57 L289 521 C290 604 307 624 380 623 L392 623 L392 667 L32 667 Z " />
<glyph glyph-name="K" unicode="K" horiz-adv-x="820" d="M281 339 L281 521 C282 604 300 624 372 623 L384 623 L384 667 L32 667 L32 623 L42 623 C115 624 132 604 133 521 L133 149 C133 68 113 44 44 44 L29 44 L29 0 L377 0 L377 44 L370 44 C302 43 281 68 281 149 L281 274 L348 330 L504 144 C504 143 506 140 509 136 C510 134 517 127 523 119 C540 101 550 85 550 74 C550 53 526 44 473 44 L464 44 L464 0 L853 0 L853 44 L847 44 C784 44 746 70 676 160 L460 426 L546 501 C652 595 694 619 761 623 L768 623 L768 667 L474 667 L474 623 L481 623 C519 623 540 611 540 589 C540 569 522 545 483 511 L281 339 Z " />
<glyph glyph-name="L" unicode="L" horiz-adv-x="671" d="M657 213 L612 213 C578 90 528 48 416 47 L388 47 C295 49 279 64 281 151 L281 521 C282 604 299 624 372 623 L392 623 L392 667 L30 667 L30 623 L42 623 C115 624 132 604 133 521 L133 148 C133 68 113 44 44 44 L30 44 L30 0 L653 0 L657 213 Z " />
<glyph glyph-name="M" unicode="M" horiz-adv-x="1032" d="M277 667 L25 667 L25 623 L35 623 C105 624 122 603 122 519 L122 189 C126 87 103 52 30 44 L25 44 L25 0 L270 0 L270 44 L265 44 C189 51 165 86 169 186 L169 546 L436 0 L472 0 L744 552 L744 149 C744 68 723 44 654 44 L636 44 L636 0 L1003 0 L1003 44 L981 44 C913 44 892 68 892 149 L892 521 C894 605 911 624 983 623 L1002 623 L1002 667 L746 667 L509 190 L277 667 Z " />
<glyph glyph-name="N" unicode="N" horiz-adv-x="817" d="M700 -12 L700 513 C697 583 719 611 786 623 L794 623 L794 667 L548 667 L548 623 L557 623 C625 618 651 588 650 517 L650 221 L252 667 L25 667 L25 623 L30 623 C103 623 124 598 129 507 L129 162 C129 111 127 99 121 88 C107 63 69 45 30 44 L25 44 L25 0 L288 0 L288 44 L280 44 L276 44 C250 44 223 53 205 69 C182 91 179 99 179 163 L179 522 L651 -12 L700 -12 Z " />
<glyph glyph-name="O" unicode="O" horiz-adv-x="867" d="M433 679 C326 679 220 643 156 584 C84 518 45 430 45 332 C45 249 75 168 129 107 C196 31 306 -13 432 -13 C543 -13 648 23 714 83 C781 145 821 237 821 327 C821 536 663 679 433 679 L433 679 Z M432 628 C486 628 536 611 571 580 C619 536 647 446 647 330 C647 244 633 175 606 127 C575 71 511 38 435 38 C374 38 325 57 285 98 C241 143 219 225 219 348 C219 440 245 529 283 569 C321 608 372 628 432 628 L432 628 Z " />
<glyph glyph-name="P" unicode="P" horiz-adv-x="670" d="M30 667 L30 623 L46 623 C119 624 136 604 137 521 L137 148 C137 68 117 44 48 44 L33 44 L33 0 L393 0 L393 44 L374 44 C305 44 285 68 285 148 L285 301 L347 301 L369 301 C437 301 481 306 525 320 C601 345 649 408 649 487 C649 549 618 605 565 633 C508 664 460 673 349 673 L342 673 L277 673 L163 670 L135 670 L47 667 L30 667 Z M285 349 L285 625 L307 626 L311 626 C346 626 377 623 393 619 C456 604 489 557 489 484 C489 446 477 410 458 388 C437 363 389 349 326 349 L285 349 Z " />
<glyph glyph-name="Q" unicode="Q" horiz-adv-x="865" d="M555 1 C719 43 821 170 821 331 C821 415 791 495 736 558 C668 636 559 679 429 679 C206 679 45 533 45 332 C45 212 107 100 205 44 C265 9 349 -13 419 -13 C426 -13 433 -13 442 -12 L397 -36 C267 -108 254 -117 254 -140 C254 -157 266 -169 282 -169 C295 -169 308 -162 325 -145 C362 -110 385 -99 421 -99 C465 -99 517 -120 566 -158 C628 -206 628 -206 644 -216 C687 -241 731 -253 785 -253 C908 -253 987 -190 1005 -78 L960 -78 C938 -117 894 -139 837 -139 C804 -139 744 -130 721 -121 C644 -93 644 -93 625 -87 C552 -66 499 -56 462 -56 L450 -57 L555 1 Z M435 628 C482 628 532 610 568 580 C619 537 647 449 647 336 C647 259 633 186 607 132 C601 119 590 105 574 90 C539 56 490 38 433 38 C360 38 294 72 267 123 C239 175 219 270 219 350 C219 420 235 489 260 535 C293 594 358 628 435 628 L435 628 Z " />
<glyph glyph-name="R" unicode="R" horiz-adv-x="761" d="M795 0 L795 44 L789 44 C735 47 700 76 626 179 C552 282 532 305 494 329 C603 358 656 411 656 494 C656 550 627 599 575 629 C521 660 442 672 293 672 C258 672 238 672 183 669 L32 667 L32 623 L46 623 C118 624 135 604 136 521 L136 149 C136 68 116 44 48 44 L30 44 L30 0 L393 0 L393 44 L373 44 C304 44 284 68 284 149 L284 303 L290 303 L304 303 C365 305 386 287 457 176 C510 92 556 29 586 0 L795 0 Z M284 351 L284 621 C299 622 308 622 320 622 C382 622 421 614 447 595 C484 570 499 537 499 485 C499 433 480 392 446 373 C418 357 380 351 308 351 L301 351 L284 351 Z " />
<glyph glyph-name="S" unicode="S" horiz-adv-x="587" d="M59 10 L109 10 C114 35 119 51 129 67 C176 16 244 -13 320 -13 C450 -13 547 73 547 188 C547 239 527 288 492 322 C459 355 402 386 313 420 C212 459 171 496 171 547 C171 597 212 632 272 632 C352 632 417 573 442 478 L488 478 L488 667 L441 667 C440 665 440 665 440 660 C436 643 430 629 421 617 C377 659 326 679 266 679 C150 679 61 598 61 492 C61 445 80 399 111 367 C145 334 192 307 296 262 C388 223 427 185 427 136 C427 79 376 37 307 37 C245 37 189 68 152 124 C134 151 121 183 109 233 L59 233 L59 10 Z " />
<glyph glyph-name="T" unicode="T" horiz-adv-x="728" d="M63 487 C68 528 80 562 98 587 C113 610 142 619 212 620 L289 620 L289 149 C289 68 268 43 200 44 L176 44 L176 0 L550 0 L550 44 L526 44 C458 43 436 68 437 149 L437 620 L517 620 C580 619 608 610 624 588 C643 562 657 530 666 487 L712 487 L710 667 L17 667 L16 487 L63 487 Z " />
<glyph glyph-name="U" unicode="U" horiz-adv-x="814" d="M550 667 L550 623 L556 623 C626 620 654 588 653 511 L653 286 C653 193 648 164 628 135 C586 74 529 44 453 44 C383 44 325 73 297 121 C278 153 272 191 272 275 L272 521 C273 605 289 623 361 623 L374 623 L374 667 L19 667 L19 623 L30 623 C101 623 117 605 118 521 L118 285 L118 254 C117 186 125 150 148 110 C192 33 290 -13 411 -13 C494 -13 579 14 628 56 C676 97 703 171 703 260 L703 284 L703 501 L703 519 C701 585 724 613 788 623 L795 623 L795 667 L550 667 Z " />
<glyph glyph-name="V" unicode="V" horiz-adv-x="745" d="M411 -14 L622 458 C688 606 696 617 746 623 L753 623 L759 623 L759 667 L530 667 L530 623 L536 623 C579 623 608 604 608 576 C608 558 600 529 585 495 L441 170 L275 520 C260 551 252 576 252 591 C252 612 280 623 329 623 L336 623 L336 667 L-14 667 L-14 623 L-7 623 C54 622 70 608 109 520 C112 513 115 506 116 503 L357 -14 L411 -14 Z " />
<glyph glyph-name="W" unicode="W" horiz-adv-x="988" d="M743 -14 L888 472 C924 593 942 619 990 623 L994 623 L999 623 L999 667 L786 667 L786 623 L791 623 C828 623 856 601 856 570 C856 553 851 529 843 500 L755 201 L568 667 L506 667 L346 201 L239 529 C231 555 226 577 226 589 C226 610 246 622 283 623 L289 623 L289 667 L-11 667 L-11 623 L-5 623 L-2 623 C47 621 57 608 88 511 L258 -14 L322 -14 L489 468 L682 -14 L743 -14 Z " />
<glyph glyph-name="X" unicode="X" horiz-adv-x="833" d="M792 667 L518 667 L518 623 L526 623 C571 623 593 613 593 592 C593 579 582 559 561 536 L452 415 L344 544 C324 567 315 584 315 597 C315 616 331 623 370 623 L378 623 L378 667 L16 667 L16 623 L21 623 C82 622 100 609 171 522 L182 509 L348 310 L206 159 C132 74 87 46 23 44 L17 44 L17 0 L312 0 L312 44 L305 44 L299 44 C257 43 231 60 231 87 C231 104 242 122 271 153 L380 272 L490 140 C513 112 524 93 524 79 C524 54 500 44 443 44 L437 44 L437 0 L837 0 L837 44 L836 44 C768 45 745 62 653 172 L484 378 L600 505 C684 596 718 617 789 623 L792 630 L792 667 Z " />
<glyph glyph-name="Y" unicode="Y" horiz-adv-x="695" d="M-13 667 L-13 623 L-7 623 C42 619 51 612 103 531 L107 526 L274 267 L274 149 C274 68 254 44 185 44 L173 44 L173 0 L522 0 L522 44 L512 44 C443 44 423 67 423 149 L423 277 L567 497 L577 512 C628 593 657 618 704 623 L709 623 L709 667 L472 667 L472 623 L477 623 C520 623 545 606 545 576 C545 560 537 540 521 515 L404 332 L275 541 C259 567 253 581 253 592 C253 613 272 623 310 623 L315 623 L315 667 L-13 667 Z " />
<glyph glyph-name="Z" unicode="Z" horiz-adv-x="698" d="M35 0 L643 0 L659 190 L612 190 C567 69 533 46 403 47 L225 47 L638 630 L638 667 L72 667 L57 497 L102 497 C136 601 173 625 299 621 L448 621 L35 35 L35 0 Z " />
<glyph glyph-name="bracketleft" unicode="&#x5b;" horiz-adv-x="422" d="M414 -235 L414 -192 L313 -192 C265 -192 249 -176 250 -124 L250 -118 L250 550 L250 556 C253 613 262 623 313 624 L414 624 L414 667 L134 667 L134 -235 L414 -235 Z " />
<glyph glyph-name="backslash" unicode="&#x5c;" horiz-adv-x="525" d="M447 -116 L145 687 L78 687 L381 -116 L447 -116 Z " />
<glyph glyph-name="bracketright" unicode="&#x5d;" horiz-adv-x="422" d="M8 -235 L288 -235 L288 667 L8 667 L8 624 L109 624 C157 624 173 608 172 556 L172 550 L172 -118 L172 -124 C169 -180 159 -191 109 -192 L8 -192 L8 -235 Z " />
<glyph glyph-name="asciicircum" unicode="&#x5e;" horiz-adv-x="525" d="M556 279 L279 700 L270 700 L-32 279 L142 279 L322 532 L491 279 L556 279 Z " />
<glyph glyph-name="underscore" unicode="&#x5f;" horiz-adv-x="501" d="M10 -92 L10 -165 L492 -165 L492 -92 L10 -92 Z " />
<glyph glyph-name="grave" unicode="&#x60;" horiz-adv-x="513" d="M311 488 L231 649 L78 649 L78 642 L277 488 L311 488 Z " />
<glyph glyph-name="a" unicode="a" horiz-adv-x="560" d="M519 84 C515 62 503 49 486 49 C464 49 456 65 456 108 L456 287 C456 335 451 351 431 373 C403 404 350 419 275 419 C151 419 55 374 55 316 C55 290 77 272 108 272 C143 272 162 288 169 323 C173 341 178 354 184 359 C196 368 221 375 245 375 C269 375 295 368 308 357 C319 348 325 328 325 298 L325 267 L283 251 C263 244 248 238 238 234 C160 206 101 176 67 145 C51 131 39 103 39 79 C39 27 87 -10 157 -10 C214 -10 273 10 331 49 C349 10 386 -10 439 -10 C509 -10 552 25 555 84 L519 84 Z M325 223 L325 93 C291 65 258 50 228 50 C194 50 167 75 167 107 C167 145 208 181 278 205 C301 213 316 218 321 221 L325 223 Z " />
<glyph glyph-name="b" unicode="b" horiz-adv-x="617" d="M14 649 L14 606 L19 606 C72 605 86 588 88 526 L88 -12 L122 -12 C133 1 143 11 158 24 C163 29 168 33 186 50 C190 54 191 55 197 60 C241 11 295 -13 362 -13 C488 -13 579 78 579 204 C579 329 490 419 365 419 C311 419 266 403 217 365 L217 678 L210 678 C193 673 143 665 109 662 C98 662 87 660 25 650 L14 649 Z M217 311 C256 348 291 365 331 365 C402 365 440 308 440 200 C440 95 398 37 320 37 C282 37 247 55 233 81 C226 95 217 122 217 131 L217 311 Z " />
<glyph glyph-name="c" unicode="c" horiz-adv-x="497" d="M430 116 C409 63 366 36 305 36 C217 36 176 94 176 220 C176 324 213 376 287 376 C319 376 334 366 340 340 C352 292 369 274 405 274 C436 274 460 297 460 328 C460 381 393 419 299 419 C148 419 37 324 37 194 C37 71 135 -16 275 -16 C374 -16 445 26 473 101 L430 116 Z " />
<glyph glyph-name="d" unicode="d" horiz-adv-x="614" d="M602 50 L594 50 C542 51 529 67 527 133 L527 678 L520 678 L504 675 L457 666 C426 660 389 655 343 649 C335 648 334 648 328 647 L328 605 L334 605 C386 603 395 591 398 522 L398 364 C362 399 305 419 247 419 C126 419 39 327 39 199 C39 75 120 -12 236 -12 C297 -12 352 11 399 56 L399 50 C399 27 402 10 409 -12 C456 -3 524 4 602 6 L602 50 Z M398 111 C370 70 328 47 284 47 C259 47 236 55 218 71 C193 93 178 143 178 207 C178 260 191 309 210 329 C229 350 258 361 289 361 C326 361 358 347 398 315 L398 111 Z " />
<glyph glyph-name="e" unicode="e" horiz-adv-x="514" d="M429 100 C400 58 357 34 309 34 C279 34 252 44 229 62 C200 86 184 136 184 200 C184 210 184 216 185 227 L478 227 L478 234 C478 343 392 419 270 419 C136 419 39 328 39 202 C39 76 138 -16 273 -16 C358 -16 434 22 469 81 L429 100 Z M187 266 C191 312 196 329 209 348 C220 364 244 376 268 376 C315 376 343 338 343 271 C343 269 343 268 342 266 L187 266 Z " />
<glyph glyph-name="f" unicode="f" horiz-adv-x="353" d="M329 403 L236 403 L236 430 L236 482 C236 554 240 582 253 606 C263 623 280 634 297 634 C319 634 333 622 345 592 C363 548 382 532 414 532 C448 532 476 558 476 590 C476 642 413 678 323 678 C235 678 164 644 131 586 C109 548 102 509 102 424 L102 403 L18 403 L18 360 L102 360 L102 125 C102 60 88 42 35 42 L21 42 L21 0 L328 0 L328 42 L302 42 C250 43 239 57 236 125 L236 360 L329 360 L329 403 Z " />
<glyph glyph-name="g" unicode="g" horiz-adv-x="541" d="M265 56 L263 56 L251 56 L236 56 C165 56 138 64 138 84 C138 109 174 124 239 124 C375 125 458 182 458 275 C458 301 451 325 436 348 C446 360 455 365 466 365 C474 365 479 362 489 351 C500 339 508 335 519 335 C539 335 552 350 552 372 C552 400 532 418 500 418 C473 418 449 406 411 373 C372 404 323 419 258 419 C131 419 48 362 48 276 C48 213 92 160 160 139 C91 123 58 93 58 44 C58 -25 121 -53 275 -53 C397 -53 440 -69 440 -117 C440 -174 373 -208 259 -208 C166 -208 107 -178 107 -130 C107 -115 113 -101 127 -83 C110 -77 100 -75 89 -75 C58 -75 32 -103 32 -135 C32 -167 52 -198 85 -217 C122 -238 181 -249 257 -249 C421 -249 516 -188 516 -83 C516 -25 486 16 429 38 C399 49 343 56 283 56 L265 56 Z M253 376 C304 376 333 339 333 277 C333 205 307 169 255 169 C202 169 174 206 174 274 C174 340 202 376 253 376 L253 376 Z " />
<glyph glyph-name="h" unicode="h" horiz-adv-x="612" d="M216 678 C197 672 145 663 114 661 C107 660 100 659 91 658 C84 657 63 653 29 647 L22 645 L22 603 L27 603 C82 600 93 589 94 528 L94 125 C91 57 81 43 27 42 L21 42 L21 0 L284 0 L284 42 L280 42 C233 45 225 57 223 125 L223 282 C256 330 292 354 331 354 C377 354 397 328 397 268 L397 125 C395 58 387 46 342 43 L335 42 L335 0 L599 0 L599 42 L593 42 C542 43 531 57 528 125 L528 253 C528 306 523 333 510 357 C489 394 437 419 380 419 C319 419 266 394 223 344 L223 678 L216 678 Z " />
<glyph glyph-name="i" unicode="i" horiz-adv-x="316" d="M162 678 C121 678 87 644 87 602 C87 559 120 525 163 525 C204 525 238 559 238 601 C238 644 205 678 162 678 L162 678 Z M229 419 L222 419 C190 411 60 390 17 386 L17 343 L30 343 C83 343 97 326 97 263 L97 125 C94 56 84 44 31 42 L17 42 L17 0 L303 0 L303 42 L296 42 C244 43 232 58 229 125 L229 419 Z " />
<glyph glyph-name="j" unicode="j" horiz-adv-x="302" d="M242 419 L235 419 C192 410 148 402 33 385 L33 343 L48 343 C99 343 113 327 113 263 L113 -58 C113 -132 111 -151 98 -174 C87 -192 70 -203 51 -203 C34 -203 19 -193 13 -178 C-2 -141 -16 -129 -45 -129 C-76 -129 -99 -150 -99 -179 C-99 -220 -50 -248 21 -248 C108 -248 186 -210 218 -154 C237 -120 242 -87 242 7 L242 419 Z M169 678 C128 678 94 644 94 603 C94 559 127 525 170 525 C211 525 245 559 245 602 C245 644 211 678 169 678 L169 678 Z " />
<glyph glyph-name="k" unicode="k" horiz-adv-x="580" d="M331 403 L331 361 L337 361 C361 361 372 355 372 343 C372 338 370 333 367 330 C367 329 367 329 366 328 L366 327 C366 326 365 326 364 325 L357 319 C352 314 343 307 301 278 L265 253 L221 224 L221 678 L214 678 C196 672 144 663 113 661 C106 660 99 659 91 658 C83 657 62 653 28 647 L21 645 L21 603 L27 603 C81 600 91 589 92 529 L92 125 C90 57 79 44 25 42 L16 42 L16 0 L282 0 L282 42 L278 42 C233 45 223 58 221 125 L221 173 L260 198 L347 97 C363 79 370 69 370 62 C370 49 358 43 335 42 L331 42 L331 0 L579 0 L579 42 L574 43 C548 45 535 56 481 119 L358 265 C366 270 373 275 374 276 C379 280 383 283 387 286 L393 290 C472 348 499 361 534 361 L538 361 L538 403 L331 403 Z " />
<glyph glyph-name="l" unicode="l" horiz-adv-x="314" d="M222 678 L215 678 C187 670 107 657 21 645 L21 603 L27 603 C82 601 92 589 93 527 L93 125 C90 57 79 43 25 42 L18 42 L18 0 L298 0 L298 42 L290 42 C238 42 223 61 222 125 L222 678 Z " />
<glyph glyph-name="m" unicode="m" horiz-adv-x="902" d="M23 338 L27 338 C77 338 92 321 95 259 L95 125 C92 57 82 44 27 42 L24 42 L24 0 L281 0 L281 42 L277 42 C233 45 226 57 224 125 L224 284 C226 287 226 287 247 309 C272 336 302 351 329 351 C371 351 388 325 388 264 L388 125 C387 55 382 48 341 43 L336 42 L336 0 L572 0 L572 42 L569 42 C528 46 522 57 520 125 L521 280 C563 331 594 351 628 351 C669 351 687 328 687 274 L687 125 C685 56 680 47 635 43 L631 42 L631 0 L889 0 L889 42 L883 42 C832 43 821 57 818 125 L818 258 C818 318 815 334 801 359 C780 395 730 419 676 419 C616 419 564 393 513 335 C493 389 445 419 381 419 C323 419 269 393 226 345 L226 349 L226 351 C226 375 222 393 215 412 L210 412 C187 405 162 401 122 396 C103 394 84 391 23 381 L23 338 Z " />
<glyph glyph-name="n" unicode="n" horiz-adv-x="613" d="M208 412 C176 404 153 400 123 396 C98 393 75 389 23 380 L23 338 L28 338 C78 338 93 321 96 259 L96 125 C93 57 82 43 28 42 L24 42 L24 0 L287 0 L287 42 L282 42 C236 45 227 57 225 125 L225 283 C264 332 298 353 336 353 C375 353 399 328 399 288 L399 272 L399 125 C397 58 389 46 344 43 L337 42 L337 0 L600 0 L600 42 L595 42 C543 43 533 57 530 125 L530 260 C530 313 526 334 513 358 C491 395 442 419 387 419 C327 419 271 393 227 346 C226 375 222 396 216 412 L208 412 Z " />
<glyph glyph-name="o" unicode="o" horiz-adv-x="571" d="M39 200 C39 72 141 -16 288 -16 C430 -16 533 76 533 203 C533 329 429 419 284 419 C143 419 39 328 39 203 L39 200 Z M286 375 C320 375 353 360 368 338 C386 313 394 272 394 206 C395 81 362 27 288 27 C211 27 178 80 178 204 C178 264 185 305 199 330 C216 359 247 375 286 375 L286 375 Z " />
<glyph glyph-name="p" unicode="p" horiz-adv-x="614" d="M193 419 C162 412 133 406 99 402 C80 399 76 398 16 389 L8 387 L8 345 L16 345 C69 344 81 329 84 263 L84 -116 C82 -183 69 -198 16 -199 L8 -199 L8 -241 L296 -241 L296 -199 L282 -199 C228 -198 216 -183 213 -116 L213 42 C263 1 307 -16 361 -16 C486 -16 576 78 576 206 C576 329 490 419 373 419 C314 419 257 395 211 350 C210 385 208 396 202 419 L193 419 Z M213 295 C246 340 283 361 327 361 C398 361 437 306 437 205 C437 147 425 100 403 78 C382 55 352 42 321 42 C284 42 246 59 213 92 L213 295 Z " />
<glyph glyph-name="q" unicode="q" horiz-adv-x="594" d="M497 419 C463 389 441 371 419 355 C367 398 314 419 256 419 C130 419 39 326 39 197 C39 69 124 -16 250 -16 C305 -16 350 0 401 36 L401 -116 C398 -183 386 -198 333 -199 L317 -199 L317 -241 L606 -241 L606 -199 L599 -199 C545 -198 533 -183 530 -116 L530 419 L497 419 Z M401 87 C364 56 324 40 283 40 C214 40 178 96 178 203 C178 312 214 365 288 365 C330 365 366 347 401 309 L401 87 Z " />
<glyph glyph-name="r" unicode="r" horiz-adv-x="459" d="M23 339 L30 339 C82 338 94 323 97 256 L97 125 C94 57 84 43 31 42 L24 42 L24 0 L307 0 L307 42 L295 42 C241 43 229 58 226 125 L226 178 C226 239 231 266 249 297 C266 326 285 340 307 340 C320 340 330 334 343 319 C366 291 375 285 397 285 C429 285 454 310 454 342 C454 386 418 419 371 419 C311 419 254 381 221 317 C219 360 214 393 205 419 C114 398 64 388 23 381 L23 339 Z " />
<glyph glyph-name="s" unicode="s" horiz-adv-x="438" d="M44 -12 L82 -12 C87 2 94 12 103 20 C108 19 108 18 115 15 C150 -5 192 -16 235 -16 C334 -16 401 39 401 121 C401 159 384 195 355 218 C331 238 307 248 251 263 C158 287 129 304 129 333 C129 361 161 381 203 381 C264 381 316 345 334 290 L371 290 L371 414 L336 414 C328 399 322 391 316 386 C275 406 227 419 196 419 C110 419 43 363 43 291 C43 234 91 188 176 163 C267 137 269 136 292 118 C302 109 309 95 309 81 C309 48 273 25 223 25 C157 25 106 60 85 122 L44 122 L44 -12 Z " />
<glyph glyph-name="t" unicode="t" horiz-adv-x="354" d="M341 359 L341 403 L213 403 L213 534 L171 534 C159 457 98 402 27 402 C26 402 22 402 17 403 L17 359 L79 359 L79 127 C79 33 124 -16 211 -16 C279 -16 334 16 357 68 L318 82 C301 53 285 41 261 41 C243 41 231 48 223 61 C215 76 213 88 213 139 L213 359 L341 359 Z " />
<glyph glyph-name="u" unicode="u" horiz-adv-x="600" d="M513 403 L315 403 L315 361 L321 361 C372 359 382 347 384 279 L384 145 C382 138 381 137 381 136 C364 86 320 51 273 51 C259 51 245 56 233 65 C219 76 213 96 213 134 L213 403 L15 403 L15 361 L19 361 C70 360 81 346 84 279 L84 130 C84 87 88 67 100 45 C122 8 171 -16 225 -16 C286 -16 341 11 384 63 L384 56 L384 55 L384 52 C384 44 384 39 385 34 L386 11 C387 -2 388 -5 388 -7 C388 -9 389 -12 390 -16 L395 -16 C427 -7 522 1 584 0 L584 42 L580 42 C529 43 516 59 513 125 L513 403 Z " />
<glyph glyph-name="v" unicode="v" horiz-adv-x="521" d="M300 -10 L439 263 L448 280 C477 340 493 357 521 361 L526 361 L526 403 L375 403 L375 361 L380 361 C403 360 419 350 419 338 C419 328 414 313 405 296 L310 106 L210 303 C201 320 196 334 196 341 C196 353 212 361 239 361 L245 361 L245 403 L-4 403 L-4 361 L1 361 C32 359 41 351 76 284 L225 -10 L300 -10 Z " />
<glyph glyph-name="w" unicode="w" horiz-adv-x="789" d="M594 -11 L713 271 C742 347 752 358 790 361 L793 361 L793 403 L630 403 L630 361 L636 361 C667 360 686 351 686 336 C686 330 686 328 676 304 L603 124 L476 403 L409 403 L282 124 L209 297 C196 330 195 332 195 341 C195 354 212 361 244 361 L249 361 L249 403 L-5 403 L-5 361 L1 361 C34 360 44 351 67 299 L70 291 L202 -11 L271 -11 L396 268 L525 -11 L594 -11 Z " />
<glyph glyph-name="x" unicode="x" horiz-adv-x="545" d="M510 361 L510 403 L335 403 L335 361 L339 361 C364 360 378 354 378 344 C378 338 371 329 352 310 L303 263 L251 320 C237 336 234 340 234 346 C234 356 244 361 266 361 L272 361 L272 403 L10 403 L10 361 L16 361 C42 358 66 340 114 287 L209 181 L129 105 C88 67 52 47 19 43 L12 42 L12 0 L195 0 L195 42 L193 42 L186 42 L181 42 C161 42 149 49 149 60 C149 66 154 73 169 87 L173 91 L240 152 L300 84 C313 69 316 65 316 59 C316 48 299 41 273 42 L266 42 L266 0 L537 0 L537 42 L531 43 C508 48 491 60 453 100 L328 233 L398 298 L414 310 C459 348 478 358 507 361 L510 361 Z " />
<glyph glyph-name="y" unicode="y" horiz-adv-x="528" d="M-6 403 L-6 361 L2 360 C32 358 43 347 72 293 L248 -15 L227 -65 C207 -106 190 -117 126 -135 C81 -147 61 -166 61 -196 C61 -227 87 -250 123 -250 C145 -250 169 -241 184 -227 C208 -205 215 -195 249 -128 L257 -112 L431 251 L439 268 C469 334 489 358 518 360 L525 361 L525 403 L367 403 L367 361 L373 361 L376 361 L379 361 L380 361 C395 361 415 347 415 337 C415 331 410 318 402 299 L396 286 L317 118 L216 301 C208 315 204 328 204 338 C204 353 213 359 236 361 L243 361 L243 403 L-6 403 Z " />
<glyph glyph-name="z" unicode="z" horiz-adv-x="492" d="M30 0 L447 0 L461 134 L417 134 C383 58 365 44 304 43 L203 43 L453 366 L453 403 L53 403 L44 283 L88 283 C119 353 127 361 165 360 L282 360 L30 33 L30 0 Z " />
<glyph glyph-name="braceleft" unicode="&#x7b;" horiz-adv-x="411" d="M64 202 C139 196 154 177 155 87 L155 -80 C162 -205 203 -235 363 -232 L394 -232 L394 -204 C306 -203 273 -167 271 -70 L271 94 C272 162 239 198 162 214 L162 216 L162 221 C239 237 272 273 271 340 L271 505 C273 602 305 637 394 638 L394 667 L363 667 C200 669 163 642 155 515 L155 348 C154 258 139 239 64 233 L64 202 Z " />
<glyph glyph-name="bar" unicode="&#x7c;" horiz-adv-x="521" d="M212 667 L212 -167 L311 -167 L311 667 L212 667 Z " />
<glyph glyph-name="braceright" unicode="&#x7d;" horiz-adv-x="417" d="M353 233 C278 239 263 258 262 348 L262 515 C254 642 216 669 54 667 L23 667 L23 638 C112 637 144 602 146 505 L146 340 C145 272 177 237 255 221 L255 219 L255 214 C177 198 145 162 146 94 L146 -70 C144 -167 111 -202 23 -204 L23 -232 L54 -232 C145 -230 169 -228 196 -216 C240 -194 260 -151 262 -80 L262 87 C263 177 278 196 353 202 L353 233 Z " />
<glyph glyph-name="asciitilde" unicode="&#x7e;" horiz-adv-x="680" d="M515 734 C491 705 464 689 440 689 C417 689 389 695 357 708 C323 721 294 728 273 728 C229 728 185 691 143 617 L165 604 C198 642 212 650 243 650 C266 650 287 645 335 626 C367 614 385 610 404 610 C454 610 501 649 537 720 L515 734 Z " />
<glyph glyph-name="uni00A0" unicode="&#xa0;" horiz-adv-x="250" d="" />
<glyph glyph-name="exclamdown" unicode="&#xa1;" horiz-adv-x="323" d="M139 221 L97 -118 C94 -143 92 -165 92 -177 C92 -218 118 -242 163 -242 C206 -242 232 -217 232 -177 C232 -166 230 -144 227 -120 L185 221 L139 221 Z M162 448 C117 448 81 414 81 371 C81 330 117 295 160 295 C206 295 242 329 242 372 C242 414 206 448 162 448 L162 448 Z " />
<glyph glyph-name="cent" unicode="&#xa2;" horiz-adv-x="558" d="M469 115 C447 65 398 34 341 34 C320 34 299 41 285 53 L368 360 C375 359 382 351 383 342 C387 315 388 310 396 299 C407 283 424 274 444 274 C475 274 500 298 500 328 C500 370 453 405 381 415 L433 613 L389 613 L337 418 C333 419 331 419 325 419 C294 419 238 407 211 395 C126 357 75 282 75 194 C75 96 130 26 228 -1 L177 -190 L222 -190 L270 -9 C291 -15 302 -17 315 -17 C355 -17 412 -2 441 16 C476 37 498 63 512 101 L469 115 Z M248 86 C227 115 214 166 214 222 C214 316 255 374 321 375 L327 375 L248 86 Z " />
<glyph glyph-name="sterling" unicode="&#xa3;" horiz-adv-x="755" d="M30 198 L189 198 C170 127 158 86 140 44 C65 0 26 -42 26 -77 C26 -101 51 -121 81 -121 C94 -121 107 -116 117 -107 C134 -92 134 -92 166 -35 L178 -14 L186 1 L188 5 C200 11 208 13 218 13 C242 13 263 0 311 -42 C376 -102 416 -121 475 -121 C586 -121 692 -28 692 69 C692 109 666 138 631 138 C604 138 583 119 583 94 C583 82 587 68 593 55 C611 22 612 18 612 5 C612 -25 579 -52 543 -52 C510 -52 479 -35 424 15 C370 63 327 83 281 83 C262 83 246 80 222 71 C258 124 283 167 297 198 L483 198 L498 257 L323 257 C345 301 370 382 394 487 C420 602 430 635 449 669 C473 712 503 733 543 733 C575 733 596 721 616 691 C643 654 653 646 678 646 C707 646 730 668 730 695 C730 743 661 781 575 781 C425 781 320 678 255 469 C240 421 240 421 207 275 L206 269 L204 260 L203 257 L46 257 L30 198 Z " />
<glyph glyph-name="currency" unicode="&#xa4;" horiz-adv-x="700" d="M36 93 L88 43 L191 141 C251 107 292 95 348 95 C404 95 452 109 508 142 L612 44 L664 93 L558 194 C593 249 606 288 606 342 C606 395 594 433 558 491 L666 593 L614 642 L508 542 C444 577 403 589 349 589 C292 589 236 573 190 543 L87 641 L35 592 L137 494 C102 436 88 393 88 341 C88 290 103 245 138 190 L36 93 Z M351 483 C435 483 503 419 503 340 C503 264 433 201 350 201 C264 201 195 264 195 342 C195 421 264 483 351 483 L351 483 Z " />
<glyph glyph-name="yen" unicode="&#xa5;" horiz-adv-x="539" d="M384 461 L238 461 L192 541 C178 564 172 581 172 593 C172 613 190 623 224 623 L229 623 L229 667 L-67 667 L-67 623 L-64 623 C-19 620 -9 611 40 526 L77 461 L-41 461 L-41 415 L103 415 L186 274 L-36 274 L-36 228 L191 228 L191 148 C188 61 176 45 111 44 L100 44 L100 0 L415 0 L415 44 L406 44 C340 45 328 61 325 148 L325 228 L552 228 L552 274 L330 274 L330 281 L409 415 L557 415 L557 461 L435 461 C501 584 535 622 579 623 L582 623 L582 667 L370 667 L370 623 L375 623 C414 623 441 606 441 582 C441 570 434 550 422 529 L384 461 Z M356 415 L310 332 L264 415 L356 415 Z " />
<glyph glyph-name="brokenbar" unicode="&#xa6;" horiz-adv-x="521" d="M212 667 L212 314 L311 314 L311 667 L212 667 Z M212 153 L212 -167 L311 -167 L311 153 L212 153 Z " />
<glyph glyph-name="section" unicode="&#xa7;" horiz-adv-x="499" d="M165 367 C130 361 111 355 92 343 C53 319 30 276 30 228 C30 179 51 135 94 92 C125 63 156 39 224 -6 C315 -68 340 -96 340 -138 C340 -174 305 -202 257 -202 C221 -202 193 -183 185 -152 C174 -114 173 -112 166 -102 C155 -88 139 -80 123 -80 C92 -80 68 -104 68 -135 C68 -196 142 -245 236 -245 C349 -245 427 -184 427 -96 C427 -40 394 15 334 58 C382 72 389 75 407 88 C443 114 462 154 462 204 C462 248 447 287 416 325 C391 355 367 373 275 434 C177 500 150 528 150 567 C150 603 187 631 234 631 C263 631 286 621 299 602 C306 593 308 588 317 556 C327 525 342 511 370 511 C403 511 428 534 428 566 C428 625 350 674 258 674 C146 674 65 611 65 525 C65 467 94 421 165 367 L165 367 Z M178 333 C211 333 263 305 317 260 C363 221 385 187 385 156 C385 123 354 96 315 96 C280 96 247 113 187 162 C135 205 107 244 107 275 C107 306 139 333 178 333 L178 333 Z " />
<glyph glyph-name="dieresis" unicode="&#xa8;" horiz-adv-x="519" d="M152 633 C119 633 92 606 92 573 C92 540 119 513 151 513 C185 513 212 539 212 573 C212 606 185 633 152 633 L152 633 Z M375 633 C342 633 315 606 315 573 C315 540 342 513 374 513 C408 513 435 539 435 573 C435 606 408 633 375 633 L375 633 Z " />
<glyph glyph-name="copyright" unicode="&#xa9;" horiz-adv-x="844" d="M421 680 C221 680 58 525 58 334 C58 142 221 -13 422 -13 C621 -13 786 142 786 329 C786 526 626 680 421 680 L421 680 Z M421 638 C602 638 744 502 744 329 C744 166 598 29 422 29 C244 29 100 165 100 334 C100 502 244 638 421 638 L421 638 Z M559 293 C552 258 531 217 513 202 C491 184 463 174 437 174 C410 174 386 183 366 200 C339 223 326 269 326 337 C326 440 364 495 434 495 C496 495 541 451 556 377 L582 377 L578 516 L552 516 C549 500 547 493 541 480 C505 512 471 526 423 526 C315 526 236 444 236 331 C236 222 314 142 421 142 C470 142 512 159 544 191 C552 179 555 170 559 155 L585 155 L585 293 L559 293 Z " />
<glyph glyph-name="ordfeminine" unicode="&#xaa;" horiz-adv-x="349" d="M317 325 C313 311 308 304 298 304 C286 304 281 314 281 337 L281 450 C281 511 249 536 170 536 C95 536 38 507 38 468 C38 451 53 438 72 438 C95 438 107 450 111 473 C115 497 126 505 154 505 C187 505 198 493 198 457 L198 440 L175 430 C167 427 158 423 148 420 C103 402 68 383 47 364 C37 354 29 335 29 319 C29 284 59 260 102 260 C135 260 168 272 203 296 C216 272 237 261 269 261 C314 261 342 285 343 325 L317 325 Z M198 407 L198 327 L193 323 C178 310 159 301 143 301 C124 301 108 317 108 336 C108 361 128 378 184 401 L198 407 Z " />
<glyph glyph-name="guillemotleft" unicode="&#xab;" horiz-adv-x="561" d="M17 216 L218 8 L266 8 L171 216 L266 423 L217 423 L17 216 Z M276 216 L477 8 L525 8 L430 216 L525 423 L476 423 L276 216 Z " />
<glyph glyph-name="logicalnot" unicode="&#xac;" horiz-adv-x="525" d="M493 0 L493 267 L31 267 L31 199 L334 199 L334 0 L493 0 Z " />
<glyph glyph-name="uni00AD" unicode="&#xad;" horiz-adv-x="352" d="M34 247 L34 182 L321 182 L321 247 L34 247 Z " />
<glyph glyph-name="registered" unicode="&#xae;" horiz-adv-x="844" d="M421 680 C221 680 58 525 58 334 C58 142 221 -13 422 -13 C621 -13 786 142 786 329 C786 526 626 680 421 680 L421 680 Z M421 638 C602 638 744 502 744 329 C744 166 598 29 422 29 C244 29 100 165 100 334 C100 502 244 638 421 638 L421 638 Z M239 150 L431 150 L431 177 L419 177 C383 178 376 186 374 233 L374 317 L378 317 L383 317 C413 317 427 305 462 248 C484 209 518 162 531 150 L642 150 L642 177 L637 177 C614 176 587 199 552 251 C521 297 509 312 486 332 C538 345 568 378 568 423 C568 455 552 484 524 500 C496 516 456 523 385 523 C365 523 349 523 320 521 L240 520 L240 493 L249 493 C287 492 293 486 295 438 L295 233 C293 186 287 178 250 177 L239 177 L239 150 Z M374 346 L374 491 C383 492 396 492 398 492 C459 492 484 471 484 419 C484 366 458 346 389 346 L385 346 L374 346 Z " />
<glyph glyph-name="macron" unicode="&#xaf;" horiz-adv-x="387" d="M33 541 L353 541 L353 590 L33 590 L33 541 Z " />
<glyph glyph-name="degree" unicode="&#xb0;" horiz-adv-x="400" d="M203 686 C117 686 50 619 50 534 C50 448 116 381 200 381 C284 381 350 448 350 533 C350 619 286 686 203 686 L203 686 Z M202 629 C252 629 293 586 293 534 C293 480 252 438 200 438 C148 438 106 481 106 533 C106 587 148 629 202 629 L202 629 Z " />
<glyph glyph-name="plusminus" unicode="&#xb1;" horiz-adv-x="525" d="M10 396 L10 323 L224 323 L224 123 L300 123 L300 323 L516 323 L516 396 L300 396 L300 596 L224 596 L224 396 L10 396 Z M10 75 L10 2 L516 2 L516 75 L10 75 Z " />
<glyph glyph-name="twosuperior" unicode="&#xb2;" horiz-adv-x="365" d="M40 266 L252 266 C273 266 273 266 273 255 C273 253 273 251 272 250 C271 247 270 245 270 245 L270 241 L307 241 L326 324 L137 324 C195 377 226 407 232 413 C308 489 324 515 324 561 C324 624 264 670 181 670 C102 670 40 627 40 571 C40 541 56 512 72 512 C85 512 87 513 112 527 C125 535 126 535 126 539 C126 541 125 543 122 545 C108 557 101 571 101 585 C101 613 128 635 161 635 C202 635 229 605 229 559 C229 481 163 388 40 295 L40 266 Z " />
<glyph glyph-name="threesuperior" unicode="&#xb3;" horiz-adv-x="365" d="M225 499 C289 535 312 560 312 595 C312 639 260 670 188 670 C110 670 46 629 46 578 C46 556 60 533 73 533 C89 533 131 550 131 557 C131 559 129 562 125 565 C113 575 109 583 109 593 C109 616 136 635 167 635 C200 635 221 615 221 582 C221 545 198 517 144 488 C123 477 112 467 112 460 C112 449 122 440 134 440 C142 440 147 443 158 453 C170 463 177 466 188 466 C216 466 229 442 229 391 C229 325 204 291 156 291 C134 291 123 298 114 320 C103 346 92 355 71 355 C48 355 30 340 30 321 C30 285 80 258 145 258 C249 258 324 317 324 397 C324 456 290 490 225 499 L225 499 Z " />
<glyph glyph-name="acute" unicode="&#xb4;" horiz-adv-x="513" d="M197 488 L231 488 L429 642 L429 649 L277 649 L197 488 Z " />
<glyph glyph-name="mu" unicode="&#xb5;" horiz-adv-x="576" d="M442 500 L353 500 L354 131 C318 80 284 58 242 58 C184 58 150 99 150 169 L150 500 L62 500 L62 20 C62 -1 58 -26 51 -56 C34 -118 33 -123 33 -147 C33 -190 54 -219 83 -219 C112 -219 132 -189 132 -145 C132 -124 129 -110 113 -53 C102 -17 101 -8 101 21 L101 33 C143 -3 165 -13 200 -13 C250 -13 301 18 354 80 C362 48 367 36 377 21 C392 0 419 -13 449 -13 C510 -13 553 31 567 108 L540 109 C536 71 515 41 492 41 C462 41 442 77 442 131 L442 500 Z " />
<glyph glyph-name="paragraph" unicode="&#xb6;" horiz-adv-x="657" d="M594 667 L309 667 C202 667 200 667 173 660 C99 642 51 582 51 507 C51 449 80 399 131 370 C163 352 202 344 258 344 L280 344 L291 344 L291 2 L291 -19 L291 -24 C291 -48 281 -52 226 -52 L203 -52 L203 -84 L364 -84 L364 633 L444 633 L444 -84 L583 -84 L583 -52 L568 -52 C537 -52 533 -52 526 -48 C519 -45 518 -37 517 -2 L517 563 C517 600 520 620 526 626 C531 632 548 635 578 635 L594 635 L594 667 Z M291 635 L291 380 L259 380 C202 380 165 430 165 505 C165 546 177 590 195 612 C208 628 230 635 266 635 L291 635 Z " />
<glyph glyph-name="periodcentered" unicode="&#xb7;" horiz-adv-x="301" d="M146 410 C101 410 65 375 65 333 C65 291 101 256 144 256 C190 256 226 290 226 332 C226 376 190 410 146 410 L146 410 Z " />
<glyph glyph-name="cedilla" unicode="&#xb8;" horiz-adv-x="525" d="M236 0 C231 -45 226 -72 219 -100 C250 -102 269 -118 269 -142 C269 -165 252 -179 224 -179 C204 -179 189 -176 164 -169 C162 -187 161 -189 158 -205 C180 -213 199 -217 222 -217 C293 -217 340 -182 340 -129 C340 -84 312 -55 263 -49 C267 -26 267 -22 270 0 L236 0 Z " />
<glyph glyph-name="onesuperior" unicode="&#xb9;" horiz-adv-x="365" d="M196 670 C169 652 129 641 80 640 L80 609 L81 609 L92 608 L95 608 L103 609 L109 609 L111 609 L112 609 C136 607 138 604 139 558 L139 343 C137 306 132 300 102 300 L81 300 L81 267 L286 267 L286 300 L265 300 C235 300 230 306 229 344 L229 670 L196 670 Z " />
<glyph glyph-name="ordmasculine" unicode="&#xba;" horiz-adv-x="355" d="M179 536 C91 536 29 478 29 396 C29 314 90 257 177 257 C264 257 326 315 326 397 C326 477 264 536 179 536 L179 536 Z M177 503 C220 503 239 472 239 399 C239 321 222 290 178 290 C132 290 116 322 116 410 C116 473 135 503 177 503 L177 503 Z " />
<glyph glyph-name="guillemotright" unicode="&#xbb;" horiz-adv-x="561" d="M534 216 L334 423 L285 423 L380 216 L285 8 L333 8 L534 216 Z M275 216 L75 423 L26 423 L121 216 L26 8 L74 8 L275 216 Z " />
<glyph glyph-name="onequarter" unicode="&#xbc;" horiz-adv-x="909" d="M196 670 C169 651 129 641 80 640 L80 609 L81 609 L92 608 L95 608 L103 609 L109 609 L111 609 L113 609 C136 607 138 604 139 558 L139 343 C137 306 132 300 102 300 L82 300 L82 267 L285 267 L285 300 L265 300 C234 300 230 306 229 344 L229 670 L196 670 Z M328 0 L689 660 L628 660 L268 0 L328 0 Z M717 133 L717 80 C715 40 710 33 678 33 L658 33 L658 0 L863 0 L863 33 L845 33 C814 33 809 39 808 81 L808 133 L876 133 L885 195 L858 195 L855 188 C848 174 844 173 823 172 L808 172 L808 402 L758 402 L562 172 L562 133 L717 133 Z M717 172 L609 172 L717 297 L717 172 Z " />
<glyph glyph-name="onehalf" unicode="&#xbd;" horiz-adv-x="909" d="M196 670 C169 651 129 641 80 640 L80 609 L81 609 L92 608 L95 608 L103 609 L109 609 L111 609 L113 609 C136 607 138 604 139 558 L139 343 C137 306 132 300 102 300 L82 300 L82 267 L285 267 L285 300 L265 300 C234 300 230 306 229 344 L229 670 L196 670 Z M307 0 L668 660 L607 660 L247 0 L307 0 Z M578 0 L791 0 C810 0 811 0 811 -10 C811 -11 811 -11 810 -16 L808 -25 L808 -26 L846 -26 L865 58 L675 58 C733 111 765 141 771 146 C847 223 863 248 863 294 C863 357 803 403 719 403 C641 403 579 360 579 305 C579 277 595 245 609 245 C616 245 625 248 635 253 L650 261 C659 264 665 269 665 271 C665 273 663 276 660 278 C647 291 640 304 640 318 C640 346 666 368 700 368 C741 368 768 339 768 292 C768 242 746 197 694 137 C662 99 625 65 578 29 L578 0 Z " />
<glyph glyph-name="threequarters" unicode="&#xbe;" horiz-adv-x="909" d="M225 499 C289 535 312 560 312 595 C312 639 260 670 188 670 C110 670 46 629 46 578 C46 556 60 533 73 533 C89 533 131 550 131 557 C131 559 129 562 125 565 C113 575 109 583 109 593 C109 616 136 635 167 635 C200 635 221 615 221 582 C221 545 198 517 144 488 C123 477 112 467 112 460 C112 449 122 440 134 440 C142 440 147 443 158 453 C170 463 177 466 188 466 C216 466 229 442 229 391 C229 325 204 291 156 291 C134 291 123 298 114 320 C103 346 92 355 71 355 C48 355 30 340 30 321 C30 285 80 258 145 258 C249 258 324 317 324 397 C324 456 290 490 225 499 L225 499 Z M329 0 L689 660 L629 660 L269 0 L329 0 Z M720 133 L720 80 C719 40 713 33 682 33 L661 33 L661 0 L867 0 L867 33 L848 33 C817 33 812 39 811 81 L811 133 L879 133 L888 195 L861 195 L858 188 C851 174 848 173 826 172 L811 172 L811 402 L762 402 L564 172 L564 133 L720 133 Z M720 172 L611 172 L720 297 L720 172 Z " />
<glyph glyph-name="questiondown" unicode="&#xbf;" horiz-adv-x="477" d="M280 445 C235 445 199 411 199 368 C199 327 236 292 279 292 C325 292 361 326 361 369 C361 411 325 445 280 445 L280 445 Z M305 219 L257 219 L257 102 C234 114 213 119 187 119 C90 119 19 47 19 -50 C19 -166 106 -245 234 -245 C327 -245 404 -201 404 -147 C404 -126 382 -108 356 -108 C331 -108 315 -121 304 -150 C291 -188 274 -201 240 -201 C183 -201 149 -146 149 -53 C149 23 175 65 221 65 C240 65 254 57 267 41 L305 41 L305 219 Z " />
<glyph glyph-name="Agrave" unicode="&#xc0;" horiz-adv-x="690" d="M704 0 L704 44 L698 44 C647 50 633 65 592 157 L368 678 L321 678 L117 197 L105 170 C71 86 40 51 -7 44 L-14 44 L-14 0 L209 0 L209 44 L201 44 C162 44 135 63 135 91 C135 107 139 121 160 170 L173 202 L406 202 L434 136 C448 105 456 82 456 73 C456 53 434 44 388 44 L381 44 L381 0 L704 0 Z M388 247 L191 247 L288 475 L388 247 Z M389 729 L422 729 L322 877 L143 877 L143 869 L389 729 Z " />
<glyph glyph-name="Aacute" unicode="&#xc1;" horiz-adv-x="690" d="M704 0 L704 44 L698 44 C647 50 633 65 592 157 L368 678 L321 678 L117 197 L105 170 C71 86 40 51 -7 44 L-14 44 L-14 0 L209 0 L209 44 L201 44 C162 44 135 63 135 91 C135 107 139 121 160 170 L173 202 L406 202 L434 136 C448 105 456 82 456 73 C456 53 434 44 388 44 L381 44 L381 0 L704 0 Z M388 247 L191 247 L288 475 L388 247 Z M302 729 L335 729 L581 869 L581 877 L402 877 L302 729 Z " />
<glyph glyph-name="Acircumflex" unicode="&#xc2;" horiz-adv-x="690" d="M704 0 L704 44 L698 44 C647 50 633 65 592 157 L368 678 L321 678 L117 197 L105 170 C71 86 40 51 -7 44 L-14 44 L-14 0 L209 0 L209 44 L201 44 C162 44 135 63 135 91 C135 107 139 121 160 170 L173 202 L406 202 L434 136 C448 105 456 82 456 73 C456 53 434 44 388 44 L381 44 L381 0 L704 0 Z M388 247 L191 247 L288 475 L388 247 Z M265 879 L157 729 L189 729 L335 817 L500 729 L531 729 L421 879 L265 879 Z " />
<glyph glyph-name="Atilde" unicode="&#xc3;" horiz-adv-x="690" d="M704 0 L704 44 L698 44 C647 50 633 65 592 157 L368 678 L321 678 L117 197 L105 170 C71 86 40 51 -7 44 L-14 44 L-14 0 L209 0 L209 44 L201 44 C162 44 135 63 135 91 C135 107 139 121 160 170 L173 202 L406 202 L434 136 C448 105 456 82 456 73 C456 53 434 44 388 44 L381 44 L381 0 L704 0 Z M388 247 L191 247 L288 475 L388 247 Z M196 726 L196 729 C196 757 216 779 242 779 C256 779 274 773 306 758 C354 735 391 724 423 724 C480 724 522 775 522 845 C522 847 522 855 521 861 L490 861 C484 826 468 805 447 805 C430 805 404 813 375 828 C333 849 294 861 266 861 C205 861 164 812 164 740 L164 726 L196 726 Z " />
<glyph glyph-name="Adieresis" unicode="&#xc4;" horiz-adv-x="690" d="M704 0 L704 44 L698 44 C647 50 633 65 592 157 L368 678 L321 678 L117 197 L105 170 C71 86 40 51 -7 44 L-14 44 L-14 0 L209 0 L209 44 L201 44 C162 44 135 63 135 91 C135 107 139 121 160 170 L173 202 L406 202 L434 136 C448 105 456 82 456 73 C456 53 434 44 388 44 L381 44 L381 0 L704 0 Z M388 247 L191 247 L288 475 L388 247 Z M205 862 C167 862 137 832 137 794 C137 757 168 726 204 726 C242 726 273 756 273 794 C273 832 243 862 205 862 L205 862 Z M485 862 C448 862 417 831 417 795 C417 756 447 726 485 726 C522 726 553 757 553 794 C553 832 523 862 485 862 L485 862 Z " />
<glyph glyph-name="Aring" unicode="&#xc5;" horiz-adv-x="690" d="M117 197 L105 170 C71 86 40 51 -7 44 L-14 44 L-14 0 L209 0 L209 44 L201 44 C162 44 135 63 135 91 C135 107 139 121 160 170 L173 202 L406 202 L434 136 C448 105 456 82 456 73 C456 53 434 44 388 44 L381 44 L381 0 L704 0 L704 44 L698 44 C647 50 633 65 592 157 L370 673 C419 686 451 727 451 776 C451 835 403 883 344 883 C285 883 237 835 237 776 C237 728 271 685 319 673 L117 197 Z M388 247 L191 247 L288 475 L388 247 Z M344 844 C382 844 412 814 412 777 C412 739 381 709 343 709 C306 709 276 739 276 777 C276 814 307 844 344 844 L344 844 Z " />
<glyph glyph-name="AE" unicode="&#xc6;" horiz-adv-x="973" d="M423 322 L423 148 C423 68 402 44 334 44 L319 44 L319 0 L939 0 L945 213 L899 213 C864 88 816 46 709 47 L684 47 C592 46 570 67 571 158 L571 322 L649 322 C709 320 719 310 725 248 L726 239 L726 234 L727 231 L775 231 L775 457 L727 457 L726 451 C720 381 706 367 641 368 L571 368 L571 621 L713 621 C790 625 822 596 854 496 L901 496 L888 667 L245 667 L245 625 L269 625 C316 625 336 618 336 602 C336 591 327 569 313 542 L309 534 L112 175 C60 81 28 49 -21 44 L-21 0 L193 0 L193 44 L188 44 C153 44 128 61 128 84 C128 97 137 120 151 146 L249 322 L423 322 Z M423 368 L276 368 L423 633 L423 368 Z " />
<glyph glyph-name="Ccedilla" unicode="&#xc7;" horiz-adv-x="773" d="M707 10 L707 254 L661 254 C648 188 613 122 576 92 C533 59 479 40 426 40 C351 40 285 76 250 136 C225 179 213 243 213 328 C213 528 283 628 422 628 C488 628 556 598 593 552 C622 516 641 473 656 412 L701 412 L694 661 L649 661 C643 634 636 614 625 593 C567 650 490 679 398 679 C195 679 45 529 45 326 C45 141 175 4 364 -12 C356 -62 350 -90 343 -111 C385 -113 410 -131 410 -158 C410 -183 387 -199 350 -199 C323 -199 302 -196 270 -188 C267 -208 266 -210 262 -228 C291 -238 316 -242 348 -242 C442 -242 504 -203 504 -144 C504 -94 466 -60 402 -54 C407 -26 408 -20 409 -13 C501 -9 579 22 631 76 C646 58 654 40 661 10 L707 10 Z " />
<glyph glyph-name="Egrave" unicode="&#xc8;" horiz-adv-x="689" d="M611 215 C577 90 525 45 417 47 L387 47 C301 44 278 70 281 164 L281 327 L353 327 C422 324 438 309 440 243 L440 235 L488 235 L488 462 L440 462 L440 455 C435 387 424 377 351 374 L281 374 L281 621 L403 621 C500 624 535 597 565 496 L611 496 L599 667 L35 667 L35 624 L47 624 C111 625 133 600 133 521 L133 149 C134 69 111 43 44 44 L30 44 L30 0 L650 0 L658 215 L611 215 Z M423 729 L456 729 L356 877 L177 877 L177 869 L423 729 Z " />
<glyph glyph-name="Eacute" unicode="&#xc9;" horiz-adv-x="689" d="M611 215 C577 90 525 45 417 47 L387 47 C301 44 278 70 281 164 L281 327 L353 327 C422 324 438 309 440 243 L440 235 L488 235 L488 462 L440 462 L440 455 C435 387 424 377 351 374 L281 374 L281 621 L403 621 C500 624 535 597 565 496 L611 496 L599 667 L35 667 L35 624 L47 624 C111 625 133 600 133 521 L133 149 C134 69 111 43 44 44 L30 44 L30 0 L650 0 L658 215 L611 215 Z M286 729 L319 729 L565 869 L565 877 L386 877 L286 729 Z " />
<glyph glyph-name="Ecircumflex" unicode="&#xca;" horiz-adv-x="689" d="M611 215 C577 90 525 45 417 47 L387 47 C301 44 278 70 281 164 L281 327 L353 327 C422 324 438 309 440 243 L440 235 L488 235 L488 462 L440 462 L440 455 C435 387 424 377 351 374 L281 374 L281 621 L403 621 C500 624 535 597 565 496 L611 496 L599 667 L35 667 L35 624 L47 624 C111 625 133 600 133 521 L133 149 C134 69 111 43 44 44 L30 44 L30 0 L650 0 L658 215 L611 215 Z M283 879 L175 729 L207 729 L353 817 L517 729 L549 729 L439 879 L283 879 Z " />
<glyph glyph-name="Edieresis" unicode="&#xcb;" horiz-adv-x="689" d="M611 215 C577 90 525 45 417 47 L387 47 C301 44 278 70 281 164 L281 327 L353 327 C422 324 438 309 440 243 L440 235 L488 235 L488 462 L440 462 L440 455 C435 387 424 377 351 374 L281 374 L281 621 L403 621 C500 624 535 597 565 496 L611 496 L599 667 L35 667 L35 624 L47 624 C111 625 133 600 133 521 L133 149 C134 69 111 43 44 44 L30 44 L30 0 L650 0 L658 215 L611 215 Z M215 862 C177 862 147 832 147 794 C147 757 178 726 214 726 C252 726 283 756 283 794 C283 832 253 862 215 862 L215 862 Z M494 862 C457 862 426 831 426 795 C426 756 456 726 494 726 C531 726 562 757 562 794 C562 832 532 862 494 862 L494 862 Z " />
<glyph glyph-name="Igrave" unicode="&#xcc;" horiz-adv-x="413" d="M30 623 L41 623 C113 624 131 604 132 521 L132 149 C132 68 112 44 43 44 L30 44 L30 0 L383 0 L383 44 L369 44 C300 44 280 68 280 149 L280 521 C281 604 298 624 370 623 L383 623 L383 667 L30 667 L30 623 Z M271 729 L304 729 L204 877 L25 877 L25 869 L271 729 Z " />
<glyph glyph-name="Iacute" unicode="&#xcd;" horiz-adv-x="413" d="M30 623 L41 623 C113 624 131 604 132 521 L132 149 C132 68 112 44 43 44 L30 44 L30 0 L383 0 L383 44 L369 44 C300 44 280 68 280 149 L280 521 C281 604 298 624 370 623 L383 623 L383 667 L30 667 L30 623 Z M156 729 L189 729 L435 869 L435 877 L255 877 L156 729 Z " />
<glyph glyph-name="Icircumflex" unicode="&#xce;" horiz-adv-x="413" d="M30 623 L41 623 C113 624 131 604 132 521 L132 149 C132 68 112 44 43 44 L30 44 L30 0 L383 0 L383 44 L369 44 C300 44 280 68 280 149 L280 521 C281 604 298 624 370 623 L383 623 L383 667 L30 667 L30 623 Z M133 879 L25 729 L57 729 L203 817 L368 729 L399 729 L289 879 L133 879 Z " />
<glyph glyph-name="Idieresis" unicode="&#xcf;" horiz-adv-x="413" d="M29 623 L40 623 C112 624 130 604 131 521 L131 149 C131 68 111 44 42 44 L29 44 L29 0 L383 0 L383 44 L368 44 C299 44 279 68 279 149 L279 521 C280 604 298 624 370 623 L383 623 L383 667 L29 667 L29 623 Z M87 862 C49 862 19 832 19 794 C19 757 50 726 86 726 C125 726 155 756 155 794 C155 832 125 862 87 862 L87 862 Z M323 862 C286 862 255 832 255 795 C255 756 285 726 323 726 C361 726 391 756 391 794 C391 832 361 862 323 862 L323 862 Z " />
<glyph glyph-name="Eth" unicode="&#xd0;" horiz-adv-x="830" d="M138 306 L138 149 C138 69 116 43 48 44 L33 44 L33 0 L303 0 C452 0 510 5 561 21 C700 65 784 181 784 328 C784 447 728 549 632 604 C550 651 437 672 261 672 C235 672 214 672 177 671 C149 671 145 671 102 669 C73 667 57 666 34 665 L34 622 L46 622 C118 623 137 601 138 519 L138 358 L27 358 L27 306 L138 306 Z M286 306 L441 306 L441 358 L286 358 L286 626 C304 627 314 627 329 627 C404 627 450 617 493 592 C576 544 616 457 616 325 C616 188 567 92 485 65 C449 54 405 47 369 47 C302 47 286 71 286 171 L286 306 Z " />
<glyph glyph-name="Ntilde" unicode="&#xd1;" horiz-adv-x="817" d="M700 -12 L700 513 C697 583 719 611 786 623 L794 623 L794 667 L548 667 L548 623 L557 623 C625 618 651 588 650 517 L650 221 L252 667 L25 667 L25 623 L30 623 C103 623 124 598 129 507 L129 162 C129 111 127 99 121 88 C107 63 69 45 30 44 L25 44 L25 0 L288 0 L288 44 L280 44 L276 44 C250 44 223 53 205 69 C182 91 179 99 179 163 L179 522 L651 -12 L700 -12 Z M271 726 L271 729 C271 757 291 779 317 779 C331 779 349 773 381 758 C429 735 466 724 498 724 C555 724 597 775 597 845 C597 847 597 855 596 861 L565 861 C559 826 543 805 522 805 C505 805 479 813 450 828 C408 849 369 861 341 861 C280 861 239 812 239 740 L239 726 L271 726 Z " />
<glyph glyph-name="Ograve" unicode="&#xd2;" horiz-adv-x="867" d="M433 679 C326 679 220 643 156 584 C84 518 45 430 45 332 C45 249 75 168 129 107 C196 31 306 -13 432 -13 C543 -13 648 23 714 83 C781 145 821 237 821 327 C821 536 663 679 433 679 L433 679 Z M432 628 C486 628 536 611 571 580 C619 536 647 446 647 330 C647 244 633 175 606 127 C575 71 511 38 435 38 C374 38 325 57 285 98 C241 143 219 225 219 348 C219 440 245 529 283 569 C321 608 372 628 432 628 L432 628 Z M485 729 L518 729 L418 877 L239 877 L239 869 L485 729 Z " />
<glyph glyph-name="Oacute" unicode="&#xd3;" horiz-adv-x="867" d="M433 679 C326 679 220 643 156 584 C84 518 45 430 45 332 C45 249 75 168 129 107 C196 31 306 -13 432 -13 C543 -13 648 23 714 83 C781 145 821 237 821 327 C821 536 663 679 433 679 L433 679 Z M432 628 C486 628 536 611 571 580 C619 536 647 446 647 330 C647 244 633 175 606 127 C575 71 511 38 435 38 C374 38 325 57 285 98 C241 143 219 225 219 348 C219 440 245 529 283 569 C321 608 372 628 432 628 L432 628 Z M382 729 L415 729 L661 869 L661 877 L482 877 L382 729 Z " />
<glyph glyph-name="Ocircumflex" unicode="&#xd4;" horiz-adv-x="867" d="M433 679 C326 679 220 643 156 584 C84 518 45 430 45 332 C45 249 75 168 129 107 C196 31 306 -13 432 -13 C543 -13 648 23 714 83 C781 145 821 237 821 327 C821 536 663 679 433 679 L433 679 Z M432 628 C486 628 536 611 571 580 C619 536 647 446 647 330 C647 244 633 175 606 127 C575 71 511 38 435 38 C374 38 325 57 285 98 C241 143 219 225 219 348 C219 440 245 529 283 569 C321 608 372 628 432 628 L432 628 Z M360 879 L252 729 L283 729 L429 817 L594 729 L626 729 L516 879 L360 879 Z " />
<glyph glyph-name="Otilde" unicode="&#xd5;" horiz-adv-x="867" d="M433 679 C326 679 220 643 156 584 C84 518 45 430 45 332 C45 249 75 168 129 107 C196 31 306 -13 432 -13 C543 -13 648 23 714 83 C781 145 821 237 821 327 C821 536 663 679 433 679 L433 679 Z M432 628 C486 628 536 611 571 580 C619 536 647 446 647 330 C647 244 633 175 606 127 C575 71 511 38 435 38 C374 38 325 57 285 98 C241 143 219 225 219 348 C219 440 245 529 283 569 C321 608 372 628 432 628 L432 628 Z M287 726 C286 728 286 729 286 729 C284 754 307 779 332 779 C346 779 364 773 396 758 C445 735 481 724 513 724 C570 724 612 775 612 845 C612 848 612 855 611 861 L580 861 C574 826 559 805 537 805 C520 805 494 813 465 828 C423 849 384 861 356 861 C295 861 254 812 254 740 C254 738 254 731 255 726 L287 726 Z " />
<glyph glyph-name="Odieresis" unicode="&#xd6;" horiz-adv-x="867" d="M433 679 C326 679 220 643 156 584 C84 518 45 430 45 332 C45 249 75 168 129 107 C196 31 306 -13 432 -13 C543 -13 648 23 714 83 C781 145 821 237 821 327 C821 536 663 679 433 679 L433 679 Z M432 628 C486 628 536 611 571 580 C619 536 647 446 647 330 C647 244 633 175 606 127 C575 71 511 38 435 38 C374 38 325 57 285 98 C241 143 219 225 219 348 C219 440 245 529 283 569 C321 608 372 628 432 628 L432 628 Z M294 862 C256 862 226 832 226 794 C226 757 257 726 293 726 C331 726 362 756 362 794 C362 832 332 862 294 862 L294 862 Z M573 862 C536 862 505 831 505 795 C505 756 535 726 573 726 C610 726 641 757 641 794 C641 832 611 862 573 862 L573 862 Z " />
<glyph glyph-name="multiply" unicode="&#xd7;" horiz-adv-x="525" d="M107 560 L52 508 L208 361 L50 211 L107 157 L264 308 L420 159 L474 210 L317 359 L475 508 L419 562 L262 412 L107 560 Z " />
<glyph glyph-name="Oslash" unicode="&#xd8;" horiz-adv-x="870" d="M205 45 C275 6 349 -13 436 -13 C663 -13 823 130 823 332 C823 434 781 526 705 592 L758 650 L724 679 L668 618 C601 658 519 679 433 679 C208 679 47 534 47 333 C47 230 90 137 168 71 L116 15 L151 -13 L205 45 Z M623 502 C640 450 649 392 649 326 C649 134 579 38 437 38 C366 38 311 64 271 117 L623 502 Z M248 160 C230 208 221 268 221 340 C221 438 247 528 286 569 C323 607 376 628 435 628 C509 628 565 600 601 545 L248 160 Z " />
<glyph glyph-name="Ugrave" unicode="&#xd9;" horiz-adv-x="814" d="M550 667 L550 623 L556 623 C626 620 654 588 653 511 L653 286 C653 193 648 164 628 135 C586 74 529 44 453 44 C383 44 325 73 297 121 C278 153 272 191 272 275 L272 521 C273 605 289 623 361 623 L374 623 L374 667 L19 667 L19 623 L30 623 C101 623 117 605 118 521 L118 285 L118 254 C117 186 125 150 148 110 C192 33 290 -13 411 -13 C494 -13 579 14 628 56 C676 97 703 171 703 260 L703 284 L703 501 L703 519 C701 585 724 613 788 623 L795 623 L795 667 L550 667 Z M476 729 L509 729 L409 877 L230 877 L230 869 L476 729 Z " />
<glyph glyph-name="Uacute" unicode="&#xda;" horiz-adv-x="814" d="M550 667 L550 623 L556 623 C626 620 654 588 653 511 L653 286 C653 193 648 164 628 135 C586 74 529 44 453 44 C383 44 325 73 297 121 C278 153 272 191 272 275 L272 521 C273 605 289 623 361 623 L374 623 L374 667 L19 667 L19 623 L30 623 C101 623 117 605 118 521 L118 285 L118 254 C117 186 125 150 148 110 C192 33 290 -13 411 -13 C494 -13 579 14 628 56 C676 97 703 171 703 260 L703 284 L703 501 L703 519 C701 585 724 613 788 623 L795 623 L795 667 L550 667 Z M381 729 L414 729 L660 869 L660 877 L481 877 L381 729 Z " />
<glyph glyph-name="Ucircumflex" unicode="&#xdb;" horiz-adv-x="814" d="M550 667 L550 623 L556 623 C626 620 654 588 653 511 L653 286 C653 193 648 164 628 135 C586 74 529 44 453 44 C383 44 325 73 297 121 C278 153 272 191 272 275 L272 521 C273 605 289 623 361 623 L374 623 L374 667 L19 667 L19 623 L30 623 C101 623 117 605 118 521 L118 285 L118 254 C117 186 125 150 148 110 C192 33 290 -13 411 -13 C494 -13 579 14 628 56 C676 97 703 171 703 260 L703 284 L703 501 L703 519 C701 585 724 613 788 623 L795 623 L795 667 L550 667 Z M354 879 L246 729 L278 729 L424 817 L589 729 L621 729 L511 879 L354 879 Z " />
<glyph glyph-name="Udieresis" unicode="&#xdc;" horiz-adv-x="814" d="M550 667 L550 623 L556 623 C626 620 654 588 653 511 L653 286 C653 193 648 164 628 135 C586 74 529 44 453 44 C383 44 325 73 297 121 C278 153 272 191 272 275 L272 521 C273 605 289 623 361 623 L374 623 L374 667 L19 667 L19 623 L30 623 C101 623 117 605 118 521 L118 285 L118 254 C117 186 125 150 148 110 C192 33 290 -13 411 -13 C494 -13 579 14 628 56 C676 97 703 171 703 260 L703 284 L703 501 L703 519 C701 585 724 613 788 623 L795 623 L795 667 L550 667 Z M290 862 C252 862 222 832 222 794 C222 757 253 726 289 726 C327 726 358 756 358 794 C358 832 328 862 290 862 L290 862 Z M570 862 C533 862 502 831 502 795 C502 756 532 726 570 726 C607 726 638 757 638 794 C638 832 608 862 570 862 L570 862 Z " />
<glyph glyph-name="Yacute" unicode="&#xdd;" horiz-adv-x="695" d="M-13 667 L-13 623 L-7 623 C42 619 51 612 103 531 L107 526 L274 267 L274 149 C274 68 254 44 185 44 L173 44 L173 0 L522 0 L522 44 L512 44 C443 44 423 67 423 149 L423 277 L567 497 L577 512 C628 593 657 618 704 623 L709 623 L709 667 L472 667 L472 623 L477 623 C520 623 545 606 545 576 C545 560 537 540 521 515 L404 332 L275 541 C259 567 253 581 253 592 C253 613 272 623 310 623 L315 623 L315 667 L-13 667 Z M330 729 L363 729 L609 869 L609 877 L430 877 L330 729 Z " />
<glyph glyph-name="Thorn" unicode="&#xde;" horiz-adv-x="677" d="M393 667 L30 667 L30 623 L46 623 C119 624 136 604 137 521 L137 149 C137 68 117 44 48 44 L33 44 L33 0 L393 0 L393 44 L374 44 C300 46 284 63 285 138 L285 148 L347 148 L369 148 C436 148 481 153 525 167 C601 191 649 255 649 333 C649 396 617 450 564 478 C506 510 448 520 329 520 L311 520 L285 519 C286 604 299 621 374 623 L393 623 L393 667 Z M285 196 L285 472 C293 473 297 473 310 473 C372 473 403 468 430 452 C467 431 489 387 489 332 C489 294 477 258 458 236 C436 210 390 196 326 196 L285 196 Z " />
<glyph glyph-name="germandbls" unicode="&#xdf;" horiz-adv-x="619" d="M89 125 C89 59 77 43 23 42 L17 42 L17 0 L273 0 L273 42 L268 42 C226 45 220 54 218 118 L218 479 C218 546 222 573 234 598 C245 620 280 635 318 635 C385 635 420 593 420 511 C420 442 397 408 342 395 C327 391 314 390 302 390 L302 348 C303 348 303 348 311 349 C335 352 379 337 397 320 C432 289 443 239 443 122 L443 119 C443 61 429 32 399 32 C383 32 370 41 362 59 C354 80 349 84 335 84 C320 84 308 72 308 57 C308 19 349 -8 405 -8 C508 -8 580 68 580 175 C580 277 518 346 404 371 C496 394 549 448 549 519 C549 616 460 678 322 678 C237 678 179 657 138 613 C103 574 89 521 89 427 L89 125 Z " />
<glyph glyph-name="agrave" unicode="&#xe0;" horiz-adv-x="560" d="M519 84 C515 62 503 49 486 49 C464 49 456 65 456 108 L456 287 C456 335 451 351 431 373 C403 404 350 419 275 419 C151 419 55 374 55 316 C55 290 77 272 108 272 C143 272 162 288 169 323 C173 341 178 354 184 359 C196 368 221 375 245 375 C269 375 295 368 308 357 C319 348 325 328 325 298 L325 267 L283 251 C263 244 248 238 238 234 C160 206 101 176 67 145 C51 131 39 103 39 79 C39 27 87 -10 157 -10 C214 -10 273 10 331 49 C349 10 386 -10 439 -10 C509 -10 552 25 555 84 L519 84 Z M325 223 L325 93 C291 65 258 50 228 50 C194 50 167 75 167 107 C167 145 208 181 278 205 C301 213 316 218 321 221 L325 223 Z M360 488 L280 649 L127 649 L127 642 L327 488 L360 488 Z " />
<glyph glyph-name="aacute" unicode="&#xe1;" horiz-adv-x="560" d="M519 84 C515 62 503 49 486 49 C464 49 456 65 456 108 L456 287 C456 335 451 351 431 373 C403 404 350 419 275 419 C151 419 55 374 55 316 C55 290 77 272 108 272 C143 272 162 288 169 323 C173 341 178 354 184 359 C196 368 221 375 245 375 C269 375 295 368 308 357 C319 348 325 328 325 298 L325 267 L283 251 C263 244 248 238 238 234 C160 206 101 176 67 145 C51 131 39 103 39 79 C39 27 87 -10 157 -10 C214 -10 273 10 331 49 C349 10 386 -10 439 -10 C509 -10 552 25 555 84 L519 84 Z M325 223 L325 93 C291 65 258 50 228 50 C194 50 167 75 167 107 C167 145 208 181 278 205 C301 213 316 218 321 221 L325 223 Z M246 488 L280 488 L478 642 L478 649 L326 649 L246 488 Z " />
<glyph glyph-name="acircumflex" unicode="&#xe2;" horiz-adv-x="560" d="M519 84 C515 62 503 49 486 49 C464 49 456 65 456 108 L456 287 C456 335 451 351 431 373 C403 404 350 419 275 419 C151 419 55 374 55 316 C55 290 77 272 108 272 C143 272 162 288 169 323 C173 341 178 354 184 359 C196 368 221 375 245 375 C269 375 295 368 308 357 C319 348 325 328 325 298 L325 267 L283 251 C263 244 248 238 238 234 C160 206 101 176 67 145 C51 131 39 103 39 79 C39 27 87 -10 157 -10 C214 -10 273 10 331 49 C349 10 386 -10 439 -10 C509 -10 552 25 555 84 L519 84 Z M325 223 L325 93 C291 65 258 50 228 50 C194 50 167 75 167 107 C167 145 208 181 278 205 C301 213 316 218 321 221 L325 223 Z M386 489 L421 489 L334 652 L230 652 L141 489 L174 489 L278 578 L386 489 Z " />
<glyph glyph-name="atilde" unicode="&#xe3;" horiz-adv-x="560" d="M519 84 C515 62 503 49 486 49 C464 49 456 65 456 108 L456 287 C456 335 451 351 431 373 C403 404 350 419 275 419 C151 419 55 374 55 316 C55 290 77 272 108 272 C143 272 162 288 169 323 C173 341 178 354 184 359 C196 368 221 375 245 375 C269 375 295 368 308 357 C319 348 325 328 325 298 L325 267 L283 251 C263 244 248 238 238 234 C160 206 101 176 67 145 C51 131 39 103 39 79 C39 27 87 -10 157 -10 C214 -10 273 10 331 49 C349 10 386 -10 439 -10 C509 -10 552 25 555 84 L519 84 Z M325 223 L325 93 C291 65 258 50 228 50 C194 50 167 75 167 107 C167 145 208 181 278 205 C301 213 316 218 321 221 L325 223 Z M158 503 C164 535 178 550 202 550 C218 550 234 544 269 526 C302 509 321 503 342 503 C402 503 436 551 437 635 L407 635 C404 600 389 582 361 582 C348 582 336 586 313 598 C269 622 247 629 222 629 C193 629 161 611 147 588 C134 566 129 541 129 503 L158 503 Z " />
<glyph glyph-name="adieresis" unicode="&#xe4;" horiz-adv-x="560" d="M519 84 C515 62 503 49 486 49 C464 49 456 65 456 108 L456 287 C456 335 451 351 431 373 C403 404 350 419 275 419 C151 419 55 374 55 316 C55 290 77 272 108 272 C143 272 162 288 169 323 C173 341 178 354 184 359 C196 368 221 375 245 375 C269 375 295 368 308 357 C319 348 325 328 325 298 L325 267 L283 251 C263 244 248 238 238 234 C160 206 101 176 67 145 C51 131 39 103 39 79 C39 27 87 -10 157 -10 C214 -10 273 10 331 49 C349 10 386 -10 439 -10 C509 -10 552 25 555 84 L519 84 Z M325 223 L325 93 C291 65 258 50 228 50 C194 50 167 75 167 107 C167 145 208 181 278 205 C301 213 316 218 321 221 L325 223 Z M167 633 C134 633 107 606 107 573 C107 540 134 513 166 513 C200 513 227 539 227 573 C227 606 200 633 167 633 L167 633 Z M390 633 C357 633 330 606 330 573 C330 540 357 513 389 513 C423 513 450 539 450 573 C450 606 423 633 390 633 L390 633 Z " />
<glyph glyph-name="aring" unicode="&#xe5;" horiz-adv-x="560" d="M519 84 C515 62 503 49 486 49 C464 49 456 65 456 108 L456 287 C456 335 451 351 431 373 C403 404 350 419 275 419 C151 419 55 374 55 316 C55 290 77 272 108 272 C143 272 162 288 169 323 C173 341 178 354 184 359 C196 368 221 375 245 375 C269 375 295 368 308 357 C319 348 325 328 325 298 L325 267 L283 251 C263 244 248 238 238 234 C160 206 101 176 67 145 C51 131 39 103 39 79 C39 27 87 -10 157 -10 C214 -10 273 10 331 49 C349 10 386 -10 439 -10 C509 -10 552 25 555 84 L519 84 Z M325 223 L325 93 C291 65 258 50 228 50 C194 50 167 75 167 107 C167 145 208 181 278 205 C301 213 316 218 321 221 L325 223 Z M287 682 C228 682 180 634 180 575 C180 518 228 469 285 469 C346 469 394 516 394 576 C394 634 346 682 287 682 L287 682 Z M287 643 C324 643 355 613 355 576 C355 538 324 508 286 508 C249 508 219 538 219 576 C219 613 250 643 287 643 L287 643 Z " />
<glyph glyph-name="ae" unicode="&#xe6;" horiz-adv-x="754" d="M665 99 C637 61 595 39 551 39 C477 39 437 100 437 210 L437 226 L717 226 C707 345 629 419 513 419 C469 419 432 408 400 386 C398 387 390 390 376 396 C335 413 304 419 249 419 C136 419 47 374 47 317 C47 293 69 275 100 275 C132 275 154 294 160 326 C165 348 165 348 169 355 C179 368 201 376 226 376 C257 376 280 366 290 347 C298 333 300 323 300 291 L300 266 C109 202 39 153 39 82 C39 31 91 -11 155 -11 C212 -11 274 16 330 67 C374 16 437 -11 514 -11 C599 -11 669 22 703 79 L665 99 Z M437 266 C439 336 466 376 511 376 C558 376 582 341 585 266 L437 266 Z M300 96 C276 69 247 53 220 53 C188 53 163 79 163 112 C163 155 202 187 300 222 L300 96 Z " />
<glyph glyph-name="ccedilla" unicode="&#xe7;" horiz-adv-x="497" d="M288 -16 C384 -9 448 31 473 101 L430 116 C409 63 366 36 305 36 C217 36 176 94 176 220 C176 324 213 376 287 376 C319 376 334 366 340 340 C352 292 369 274 405 274 C436 274 460 297 460 328 C460 381 393 419 299 419 C148 419 37 324 37 194 C37 78 123 -5 254 -15 C247 -63 244 -79 239 -100 C270 -102 289 -118 289 -142 C289 -165 272 -179 244 -179 C224 -179 208 -176 184 -169 C181 -186 181 -189 178 -205 C199 -213 218 -217 242 -217 C313 -217 360 -182 360 -129 C360 -84 332 -55 283 -49 C285 -33 286 -28 287 -19 L288 -16 Z " />
<glyph glyph-name="egrave" unicode="&#xe8;" horiz-adv-x="514" d="M429 100 C400 58 357 34 309 34 C279 34 252 44 229 62 C200 86 184 136 184 200 C184 210 184 216 185 227 L478 227 L478 234 C478 343 392 419 270 419 C136 419 39 328 39 202 C39 76 138 -16 273 -16 C358 -16 434 22 469 81 L429 100 Z M187 266 C191 312 196 329 209 348 C220 364 244 376 268 376 C315 376 343 338 343 271 C343 269 343 268 342 266 L187 266 Z M359 488 L279 649 L126 649 L126 642 L325 488 L359 488 Z " />
<glyph glyph-name="eacute" unicode="&#xe9;" horiz-adv-x="514" d="M429 100 C400 58 357 34 309 34 C279 34 252 44 229 62 C200 86 184 136 184 200 C184 210 184 216 185 227 L478 227 L478 234 C478 343 392 419 270 419 C136 419 39 328 39 202 C39 76 138 -16 273 -16 C358 -16 434 22 469 81 L429 100 Z M187 266 C191 312 196 329 209 348 C220 364 244 376 268 376 C315 376 343 338 343 271 C343 269 343 268 342 266 L187 266 Z M241 488 L274 488 L473 642 L473 649 L321 649 L241 488 Z " />
<glyph glyph-name="ecircumflex" unicode="&#xea;" horiz-adv-x="514" d="M429 100 C400 58 357 34 309 34 C279 34 252 44 229 62 C200 86 184 136 184 200 C184 210 184 216 185 227 L478 227 L478 234 C478 343 392 419 270 419 C136 419 39 328 39 202 C39 76 138 -16 273 -16 C358 -16 434 22 469 81 L429 100 Z M187 266 C191 312 196 329 209 348 C220 364 244 376 268 376 C315 376 343 338 343 271 C343 269 343 268 342 266 L187 266 Z M384 489 L420 489 L333 652 L229 652 L140 489 L173 489 L277 578 L384 489 Z " />
<glyph glyph-name="edieresis" unicode="&#xeb;" horiz-adv-x="514" d="M429 100 C400 58 357 34 309 34 C279 34 252 44 229 62 C200 86 184 136 184 200 C184 210 184 216 185 227 L478 227 L478 234 C478 343 392 419 270 419 C136 419 39 328 39 202 C39 76 138 -16 273 -16 C358 -16 434 22 469 81 L429 100 Z M187 266 C191 312 196 329 209 348 C220 364 244 376 268 376 C315 376 343 338 343 271 C343 269 343 268 342 266 L187 266 Z M159 633 C126 633 99 606 99 573 C99 540 126 513 158 513 C192 513 219 539 219 573 C219 606 192 633 159 633 L159 633 Z M382 633 C349 633 322 606 322 573 C322 540 349 513 381 513 C415 513 442 539 442 573 C442 606 415 633 382 633 L382 633 Z " />
<glyph glyph-name="igrave" unicode="&#xec;" horiz-adv-x="316" d="M229 419 L222 419 C190 411 60 390 17 386 L17 343 L30 343 C83 343 97 326 97 263 L97 125 C94 56 84 44 31 42 L17 42 L17 0 L303 0 L303 42 L296 42 C244 43 232 58 229 125 L229 419 Z M242 488 L162 649 L9 649 L9 642 L208 488 L242 488 Z " />
<glyph glyph-name="iacute" unicode="&#xed;" horiz-adv-x="316" d="M229 419 L222 419 C190 411 60 390 17 386 L17 343 L30 343 C83 343 97 326 97 263 L97 125 C94 56 84 44 31 42 L17 42 L17 0 L303 0 L303 42 L296 42 C244 43 232 58 229 125 L229 419 Z M111 488 L144 488 L343 642 L343 649 L191 649 L111 488 Z " />
<glyph glyph-name="icircumflex" unicode="&#xee;" horiz-adv-x="316" d="M229 419 L222 419 C190 411 60 390 17 386 L17 343 L30 343 C83 343 97 326 97 263 L97 125 C94 56 84 44 31 42 L17 42 L17 0 L303 0 L303 42 L296 42 C244 43 232 58 229 125 L229 419 Z M265 489 L300 489 L214 652 L109 652 L20 489 L53 489 L157 578 L265 489 Z " />
<glyph glyph-name="idieresis" unicode="&#xef;" horiz-adv-x="316" d="M229 419 L222 419 C190 411 60 390 17 386 L17 343 L30 343 C83 343 97 326 97 263 L97 125 C94 56 84 44 31 42 L17 42 L17 0 L303 0 L303 42 L296 42 C244 43 232 58 229 125 L229 419 Z M69 633 C36 633 9 606 9 573 C9 540 36 513 68 513 C102 513 129 539 129 573 C129 606 102 633 69 633 L69 633 Z M250 633 C217 633 190 606 190 573 C190 540 217 513 249 513 C283 513 310 539 310 573 C310 606 283 633 250 633 L250 633 Z " />
<glyph glyph-name="eth" unicode="&#xf0;" horiz-adv-x="571" d="M157 616 C199 592 205 588 242 560 L129 504 L149 466 L277 529 C314 493 351 437 365 396 C339 414 319 419 278 419 C141 419 39 327 39 202 C39 75 140 -14 284 -14 C439 -14 533 79 533 234 C533 363 481 473 370 576 L459 620 L438 657 L334 606 C295 634 261 655 211 678 L157 616 Z M288 374 C358 374 393 319 393 210 C393 146 386 110 369 80 C349 45 324 30 285 30 C210 30 178 84 178 211 C178 320 215 374 288 374 L288 374 Z " />
<glyph glyph-name="ntilde" unicode="&#xf1;" horiz-adv-x="613" d="M208 412 C176 404 153 400 123 396 C98 393 75 389 23 380 L23 338 L28 338 C78 338 93 321 96 259 L96 125 C93 57 82 43 28 42 L24 42 L24 0 L287 0 L287 42 L282 42 C236 45 227 57 225 125 L225 283 C264 332 298 353 336 353 C375 353 399 328 399 288 L399 272 L399 125 C397 58 389 46 344 43 L337 42 L337 0 L600 0 L600 42 L595 42 C543 43 533 57 530 125 L530 260 C530 313 526 334 513 358 C491 395 442 419 387 419 C327 419 271 393 227 346 C226 375 222 396 216 412 L208 412 Z M191 503 C197 535 211 550 235 550 C251 550 267 544 302 526 C335 509 354 503 375 503 C435 503 470 552 470 635 L440 635 C437 600 421 582 394 582 C381 582 369 586 346 598 C302 622 280 629 254 629 C225 629 194 611 180 588 C167 566 162 541 162 503 L191 503 Z " />
<glyph glyph-name="ograve" unicode="&#xf2;" horiz-adv-x="571" d="M39 200 C39 72 141 -16 288 -16 C430 -16 533 76 533 203 C533 329 429 419 284 419 C143 419 39 328 39 203 L39 200 Z M286 375 C320 375 353 360 368 338 C386 313 394 272 394 206 C395 81 362 27 288 27 C211 27 178 80 178 204 C178 264 185 305 199 330 C216 359 247 375 286 375 L286 375 Z M360 488 L279 649 L126 649 L126 642 L326 488 L360 488 Z " />
<glyph glyph-name="oacute" unicode="&#xf3;" horiz-adv-x="571" d="M39 200 C39 72 141 -16 288 -16 C430 -16 533 76 533 203 C533 329 429 419 284 419 C143 419 39 328 39 203 L39 200 Z M286 375 C320 375 353 360 368 338 C386 313 394 272 394 206 C395 81 362 27 288 27 C211 27 178 80 178 204 C178 264 185 305 199 330 C216 359 247 375 286 375 L286 375 Z M260 488 L294 488 L492 642 L492 649 L340 649 L260 488 Z " />
<glyph glyph-name="ocircumflex" unicode="&#xf4;" horiz-adv-x="571" d="M39 200 C39 72 141 -16 288 -16 C430 -16 533 76 533 203 C533 329 429 419 284 419 C143 419 39 328 39 203 L39 200 Z M286 375 C320 375 353 360 368 338 C386 313 394 272 394 206 C395 81 362 27 288 27 C211 27 178 80 178 204 C178 264 185 305 199 330 C216 359 247 375 286 375 L286 375 Z M395 489 L430 489 L344 652 L240 652 L150 489 L184 489 L288 578 L395 489 Z " />
<glyph glyph-name="otilde" unicode="&#xf5;" horiz-adv-x="571" d="M39 200 C39 72 141 -16 288 -16 C430 -16 533 76 533 203 C533 329 429 419 284 419 C143 419 39 328 39 203 L39 200 Z M286 375 C320 375 353 360 368 338 C386 313 394 272 394 206 C395 81 362 27 288 27 C211 27 178 80 178 204 C178 264 185 305 199 330 C216 359 247 375 286 375 L286 375 Z M165 503 C171 535 185 550 210 550 C226 550 242 544 276 526 C309 509 329 503 350 503 C408 503 449 556 445 629 L445 635 L414 635 C412 600 396 582 368 582 C355 582 343 586 321 598 C277 622 255 629 229 629 C200 629 168 611 155 588 C142 566 136 541 136 503 L165 503 Z " />
<glyph glyph-name="odieresis" unicode="&#xf6;" horiz-adv-x="571" d="M39 200 C39 72 141 -16 288 -16 C430 -16 533 76 533 203 C533 329 429 419 284 419 C143 419 39 328 39 203 L39 200 Z M286 375 C320 375 353 360 368 338 C386 313 394 272 394 206 C395 81 362 27 288 27 C211 27 178 80 178 204 C178 264 185 305 199 330 C216 359 247 375 286 375 L286 375 Z M179 633 C146 633 119 606 119 573 C119 540 146 513 178 513 C212 513 239 539 239 573 C239 606 212 633 179 633 L179 633 Z M401 633 C368 633 341 606 341 573 C341 540 368 513 400 513 C434 513 461 539 461 573 C461 606 434 633 401 633 L401 633 Z " />
<glyph glyph-name="divide" unicode="&#xf7;" horiz-adv-x="525" d="M10 396 L10 323 L516 323 L516 396 L10 396 Z M265 248 C220 248 184 213 184 171 C184 129 220 94 263 94 C309 94 345 128 345 171 C345 214 309 248 265 248 L265 248 Z M265 622 C221 622 184 588 184 547 C184 503 220 469 265 469 C309 469 345 503 345 546 C345 588 309 622 265 622 L265 622 Z " />
<glyph glyph-name="oslash" unicode="&#xf8;" horiz-adv-x="571" d="M422 386 C378 409 335 419 285 419 C142 419 39 328 39 200 C39 134 61 86 110 43 L64 -7 L97 -35 L146 18 C191 -5 235 -16 286 -16 C430 -16 533 75 533 203 C533 269 510 320 459 362 L504 411 L471 439 L422 386 Z M190 131 C186 158 185 177 185 207 C185 326 214 375 286 375 C325 375 356 357 368 327 L190 131 Z M382 278 C386 254 387 234 387 205 C387 79 358 27 288 27 C249 27 222 44 203 81 L382 278 Z " />
<glyph glyph-name="ugrave" unicode="&#xf9;" horiz-adv-x="600" d="M513 403 L315 403 L315 361 L321 361 C372 359 382 347 384 279 L384 145 C382 138 381 137 381 136 C364 86 320 51 273 51 C259 51 245 56 233 65 C219 76 213 96 213 134 L213 403 L15 403 L15 361 L19 361 C70 360 81 346 84 279 L84 130 C84 87 88 67 100 45 C122 8 171 -16 225 -16 C286 -16 341 11 384 63 L384 56 L384 55 L384 52 C384 44 384 39 385 34 L386 11 C387 -2 388 -5 388 -7 C388 -9 389 -12 390 -16 L395 -16 C427 -7 522 1 584 0 L584 42 L580 42 C529 43 516 59 513 125 L513 403 Z M394 488 L314 649 L161 649 L161 642 L360 488 L394 488 Z " />
<glyph glyph-name="uacute" unicode="&#xfa;" horiz-adv-x="600" d="M513 403 L315 403 L315 361 L321 361 C372 359 382 347 384 279 L384 145 C382 138 381 137 381 136 C364 86 320 51 273 51 C259 51 245 56 233 65 C219 76 213 96 213 134 L213 403 L15 403 L15 361 L19 361 C70 360 81 346 84 279 L84 130 C84 87 88 67 100 45 C122 8 171 -16 225 -16 C286 -16 341 11 384 63 L384 56 L384 55 L384 52 C384 44 384 39 385 34 L386 11 C387 -2 388 -5 388 -7 C388 -9 389 -12 390 -16 L395 -16 C427 -7 522 1 584 0 L584 42 L580 42 C529 43 516 59 513 125 L513 403 Z M263 488 L297 488 L495 642 L495 649 L343 649 L263 488 Z " />
<glyph glyph-name="ucircumflex" unicode="&#xfb;" horiz-adv-x="600" d="M513 403 L315 403 L315 361 L321 361 C372 359 382 347 384 279 L384 145 C382 138 381 137 381 136 C364 86 320 51 273 51 C259 51 245 56 233 65 C219 76 213 96 213 134 L213 403 L15 403 L15 361 L19 361 C70 360 81 346 84 279 L84 130 C84 87 88 67 100 45 C122 8 171 -16 225 -16 C286 -16 341 11 384 63 L384 56 L384 55 L384 52 C384 44 384 39 385 34 L386 11 C387 -2 388 -5 388 -7 C388 -9 389 -12 390 -16 L395 -16 C427 -7 522 1 584 0 L584 42 L580 42 C529 43 516 59 513 125 L513 403 Z M417 489 L452 489 L366 652 L261 652 L172 489 L205 489 L309 578 L417 489 Z " />
<glyph glyph-name="udieresis" unicode="&#xfc;" horiz-adv-x="600" d="M513 403 L315 403 L315 361 L321 361 C372 359 382 347 384 279 L384 145 C382 138 381 137 381 136 C364 86 320 51 273 51 C259 51 245 56 233 65 C219 76 213 96 213 134 L213 403 L15 403 L15 361 L19 361 C70 360 81 346 84 279 L84 130 C84 87 88 67 100 45 C122 8 171 -16 225 -16 C286 -16 341 11 384 63 L384 56 L384 55 L384 52 C384 44 384 39 385 34 L386 11 C387 -2 388 -5 388 -7 C388 -9 389 -12 390 -16 L395 -16 C427 -7 522 1 584 0 L584 42 L580 42 C529 43 516 59 513 125 L513 403 Z M201 633 C168 633 141 606 141 573 C141 540 168 513 200 513 C234 513 261 539 261 573 C261 606 234 633 201 633 L201 633 Z M423 633 C390 633 363 606 363 573 C363 540 390 513 422 513 C456 513 483 539 483 573 C483 606 456 633 423 633 L423 633 Z " />
<glyph glyph-name="yacute" unicode="&#xfd;" horiz-adv-x="528" d="M-6 403 L-6 361 L2 360 C32 358 43 347 72 293 L248 -15 L227 -65 C207 -106 190 -117 126 -135 C81 -147 61 -166 61 -196 C61 -227 87 -250 123 -250 C145 -250 169 -241 184 -227 C208 -205 215 -195 249 -128 L257 -112 L431 251 L439 268 C469 334 489 358 518 360 L525 361 L525 403 L367 403 L367 361 L373 361 L376 361 L379 361 L380 361 C395 361 415 347 415 337 C415 331 410 318 402 299 L396 286 L317 118 L216 301 C208 315 204 328 204 338 C204 353 213 359 236 361 L243 361 L243 403 L-6 403 Z M252 488 L286 488 L484 642 L484 649 L332 649 L252 488 Z " />
<glyph glyph-name="thorn" unicode="&#xfe;" horiz-adv-x="614" d="M8 602 L16 602 C69 601 81 586 84 520 L84 -116 C82 -183 69 -198 16 -199 L8 -199 L8 -241 L296 -241 L296 -199 L282 -199 C228 -198 216 -183 213 -116 L213 42 C264 1 307 -16 361 -16 C485 -16 576 78 576 206 C576 329 490 419 373 419 C314 419 259 396 211 350 L211 678 L203 678 C181 672 79 654 53 651 C30 648 19 647 8 644 L8 602 Z M213 295 C247 340 283 361 326 361 C399 361 437 307 437 202 C437 153 431 121 418 97 C398 63 361 42 321 42 C284 42 246 59 213 92 L213 295 Z " />
<glyph glyph-name="ydieresis" unicode="&#xff;" horiz-adv-x="528" d="M-6 403 L-6 361 L2 360 C32 358 43 347 72 293 L248 -15 L227 -65 C207 -106 190 -117 126 -135 C81 -147 61 -166 61 -196 C61 -227 87 -250 123 -250 C145 -250 169 -241 184 -227 C208 -205 215 -195 249 -128 L257 -112 L431 251 L439 268 C469 334 489 358 518 360 L525 361 L525 403 L367 403 L367 361 L373 361 L376 361 L379 361 L380 361 C395 361 415 347 415 337 C415 331 410 318 402 299 L396 286 L317 118 L216 301 C208 315 204 328 204 338 C204 353 213 359 236 361 L243 361 L243 403 L-6 403 Z M177 633 C144 633 117 606 117 573 C117 540 144 513 176 513 C210 513 237 539 237 573 C237 606 210 633 177 633 L177 633 Z M400 633 C367 633 340 606 340 573 C340 540 367 513 399 513 C433 513 460 539 460 573 C460 606 433 633 400 633 L400 633 Z " />
<glyph glyph-name="Amacron" unicode="&#x100;" horiz-adv-x="690" d="M704 0 L704 44 L698 44 C647 50 633 65 592 157 L368 678 L321 678 L117 197 L105 170 C71 86 40 51 -7 44 L-14 44 L-14 0 L209 0 L209 44 L201 44 C162 44 135 63 135 91 C135 107 139 121 160 170 L173 202 L406 202 L434 136 C448 105 456 82 456 73 C456 53 434 44 388 44 L381 44 L381 0 L704 0 Z M388 247 L191 247 L288 475 L388 247 Z M168 810 L168 758 L522 758 L522 810 L168 810 Z " />
<glyph glyph-name="amacron" unicode="&#x101;" horiz-adv-x="560" d="M519 84 C515 62 503 49 486 49 C464 49 456 65 456 108 L456 287 C456 335 451 351 431 373 C403 404 350 419 275 419 C151 419 55 374 55 316 C55 290 77 272 108 272 C143 272 162 288 169 323 C173 341 178 354 184 359 C196 368 221 375 245 375 C269 375 295 368 308 357 C319 348 325 328 325 298 L325 267 L283 251 C263 244 248 238 238 234 C160 206 101 176 67 145 C51 131 39 103 39 79 C39 27 87 -10 157 -10 C214 -10 273 10 331 49 C349 10 386 -10 439 -10 C509 -10 552 25 555 84 L519 84 Z M325 223 L325 93 C291 65 258 50 228 50 C194 50 167 75 167 107 C167 145 208 181 278 205 C301 213 316 218 321 221 L325 223 Z M110 541 L430 541 L430 590 L110 590 L110 541 Z " />
<glyph glyph-name="Abreve" unicode="&#x102;" horiz-adv-x="690" d="M704 0 L704 44 L698 44 C647 50 633 65 592 157 L368 678 L321 678 L117 197 L105 170 C71 86 40 51 -7 44 L-14 44 L-14 0 L209 0 L209 44 L201 44 C162 44 135 63 135 91 C135 107 139 121 160 170 L173 202 L406 202 L434 136 C448 105 456 82 456 73 C456 53 434 44 388 44 L381 44 L381 0 L704 0 Z M388 247 L191 247 L288 475 L388 247 Z M161 880 C188 782 261 720 350 720 C438 720 511 783 536 880 L491 880 C465 835 414 810 348 810 C281 810 237 832 206 880 L161 880 Z " />
<glyph glyph-name="abreve" unicode="&#x103;" horiz-adv-x="560" d="M519 84 C515 62 503 49 486 49 C464 49 456 65 456 108 L456 287 C456 335 451 351 431 373 C403 404 350 419 275 419 C151 419 55 374 55 316 C55 290 77 272 108 272 C143 272 162 288 169 323 C173 341 178 354 184 359 C196 368 221 375 245 375 C269 375 295 368 308 357 C319 348 325 328 325 298 L325 267 L283 251 C263 244 248 238 238 234 C160 206 101 176 67 145 C51 131 39 103 39 79 C39 27 87 -10 157 -10 C214 -10 273 10 331 49 C349 10 386 -10 439 -10 C509 -10 552 25 555 84 L519 84 Z M325 223 L325 93 C291 65 258 50 228 50 C194 50 167 75 167 107 C167 145 208 181 278 205 C301 213 316 218 321 221 L325 223 Z M143 648 L143 645 C143 608 159 567 186 536 C213 504 245 489 286 489 C364 489 424 556 428 648 L401 648 C383 596 346 571 288 571 C227 571 187 598 171 648 L143 648 Z " />
<glyph glyph-name="Aogonek" unicode="&#x104;" horiz-adv-x="690" d="M704 0 L704 44 L698 44 C647 50 633 65 592 157 L368 678 L321 678 L117 197 L105 170 C71 86 40 51 -7 44 L-14 44 L-14 0 L209 0 L209 44 L201 44 C162 44 135 63 135 91 C135 107 139 121 160 170 L173 202 L406 202 L434 136 C448 105 456 82 456 73 C456 53 434 44 388 44 L381 44 L381 0 L565 0 C503 -27 465 -71 465 -117 C465 -169 519 -209 591 -209 C632 -209 664 -199 708 -171 L693 -150 C668 -159 655 -162 637 -162 C592 -162 559 -132 559 -92 C559 -58 575 -30 610 0 L704 0 Z M388 247 L191 247 L288 475 L388 247 Z " />
<glyph glyph-name="aogonek" unicode="&#x105;" horiz-adv-x="560" d="M519 84 C515 62 503 49 486 49 C464 49 456 65 456 108 L456 287 C456 335 451 351 431 373 C403 404 350 419 275 419 C151 419 55 374 55 316 C55 290 77 272 108 272 C143 272 162 288 169 323 C173 341 178 354 184 359 C196 368 221 375 245 375 C269 375 295 368 308 357 C319 348 325 328 325 298 L325 267 L283 251 C263 244 248 238 238 234 C160 206 101 176 67 145 C51 131 39 103 39 79 C39 27 87 -10 157 -10 C214 -10 273 10 331 49 C344 18 369 0 410 -7 C368 -30 341 -70 341 -107 C341 -156 386 -192 447 -192 C482 -192 508 -183 545 -158 L533 -137 C516 -145 506 -148 492 -148 C453 -148 422 -120 422 -83 C422 -57 433 -31 454 -9 C517 -3 553 30 555 84 L519 84 Z M325 223 L325 93 C291 65 258 50 228 50 C194 50 167 75 167 107 C167 145 208 181 278 205 C301 213 316 218 321 221 L325 223 Z " />
<glyph glyph-name="Cacute" unicode="&#x106;" horiz-adv-x="773" d="M661 254 C648 188 613 122 576 92 C533 59 479 40 426 40 C351 40 285 76 250 136 C225 179 213 243 213 328 C213 528 283 628 422 628 C488 628 556 598 593 552 C622 516 641 473 656 412 L701 412 L694 661 L649 661 C643 634 636 614 625 593 C567 650 490 679 398 679 C195 679 45 529 45 326 C45 130 193 -13 396 -13 C491 -13 573 18 631 76 C646 58 654 40 661 10 L707 10 L707 254 L661 254 Z M352 729 L385 729 L631 869 L631 877 L452 877 L352 729 Z " />
<glyph glyph-name="cacute" unicode="&#x107;" horiz-adv-x="497" d="M430 116 C409 63 366 36 305 36 C217 36 176 94 176 220 C176 324 213 376 287 376 C319 376 334 366 340 340 C352 292 369 274 405 274 C436 274 460 297 460 328 C460 381 393 419 299 419 C148 419 37 324 37 194 C37 71 135 -16 275 -16 C374 -16 445 26 473 101 L430 116 Z M227 488 L260 488 L459 642 L459 649 L307 649 L227 488 Z " />
<glyph glyph-name="Ccircumflex" unicode="&#x108;" horiz-adv-x="773" d="M661 254 C648 188 613 122 576 92 C533 59 479 40 426 40 C351 40 285 76 250 136 C225 179 213 243 213 328 C213 528 283 628 422 628 C488 628 556 598 593 552 C622 516 641 473 656 412 L701 412 L694 661 L649 661 C643 634 636 614 625 593 C567 650 490 679 398 679 C195 679 45 529 45 326 C45 130 193 -13 396 -13 C491 -13 573 18 631 76 C646 58 654 40 661 10 L707 10 L707 254 L661 254 Z M326 879 L217 729 L249 729 L395 817 L560 729 L592 729 L482 879 L326 879 Z " />
<glyph glyph-name="Cdotaccent" unicode="&#x10a;" horiz-adv-x="773" d="M661 254 C648 188 613 122 576 92 C533 59 479 40 426 40 C351 40 285 76 250 136 C225 179 213 243 213 328 C213 528 283 628 422 628 C488 628 556 598 593 552 C622 516 641 473 656 412 L701 412 L694 661 L649 661 C643 634 636 614 625 593 C567 650 490 679 398 679 C195 679 45 529 45 326 C45 130 193 -13 396 -13 C491 -13 573 18 631 76 C646 58 654 40 661 10 L707 10 L707 254 L661 254 Z M401 862 C363 862 333 832 333 794 C333 757 364 726 400 726 C438 726 469 756 469 794 C469 832 439 862 401 862 L401 862 Z " />
<glyph glyph-name="cdotaccent" unicode="&#x10b;" horiz-adv-x="497" d="M430 116 C409 63 366 36 305 36 C217 36 176 94 176 220 C176 324 213 376 287 376 C319 376 334 366 340 340 C352 292 369 274 405 274 C436 274 460 297 460 328 C460 381 393 419 299 419 C148 419 37 324 37 194 C37 71 135 -16 275 -16 C374 -16 445 26 473 101 L430 116 Z M289 633 C256 633 229 606 229 573 C229 540 256 513 288 513 C322 513 349 539 349 573 C349 606 322 633 289 633 L289 633 Z " />
<glyph glyph-name="Ccaron" unicode="&#x10c;" horiz-adv-x="773" d="M661 254 C648 188 613 122 576 92 C533 59 479 40 426 40 C351 40 285 76 250 136 C225 179 213 243 213 328 C213 528 283 628 422 628 C488 628 556 598 593 552 C622 516 641 473 656 412 L701 412 L694 661 L649 661 C643 634 636 614 625 593 C567 650 490 679 398 679 C195 679 45 529 45 326 C45 130 193 -13 396 -13 C491 -13 573 18 631 76 C646 58 654 40 661 10 L707 10 L707 254 L661 254 Z M487 729 L598 879 L566 879 L419 791 L255 879 L223 879 L331 729 L487 729 Z " />
<glyph glyph-name="ccaron" unicode="&#x10d;" horiz-adv-x="497" d="M430 116 C409 63 366 36 305 36 C217 36 176 94 176 220 C176 324 213 376 287 376 C319 376 334 366 340 340 C352 292 369 274 405 274 C436 274 460 297 460 328 C460 381 393 419 299 419 C148 419 37 324 37 194 C37 71 135 -16 275 -16 C374 -16 445 26 473 101 L430 116 Z M182 655 L148 655 L239 491 L344 491 L428 655 L393 655 L294 566 L182 655 Z " />
<glyph glyph-name="Dcaron" unicode="&#x10e;" horiz-adv-x="827" d="M31 622 L43 622 C115 623 134 601 135 519 L135 149 C135 69 113 43 45 44 L30 44 L30 0 L300 0 C449 0 507 5 558 21 C697 65 781 181 781 328 C781 447 725 549 629 604 C547 651 434 672 258 672 C232 672 211 672 174 671 C146 671 142 671 99 669 C70 667 54 666 31 665 L31 622 Z M283 626 C301 627 311 627 326 627 C401 627 447 617 490 592 C573 544 613 457 613 325 C613 188 564 92 482 66 C446 54 403 47 366 47 C299 47 283 71 283 171 L283 626 Z M452 729 L562 879 L531 879 L384 791 L220 879 L188 879 L296 729 L452 729 Z " />
<glyph glyph-name="dcaron" unicode="&#x10f;" horiz-adv-x="721" d="M602 50 L594 50 C542 51 529 67 527 133 L527 678 L520 678 L504 675 L457 666 C426 660 389 655 343 649 C335 648 334 648 328 647 L328 605 L334 605 C386 603 395 591 398 522 L398 364 C362 399 305 419 247 419 C126 419 39 327 39 199 C39 75 120 -12 236 -12 C297 -12 352 11 399 56 L399 50 C399 27 402 10 409 -12 C456 -3 524 4 602 6 L602 50 Z M398 111 C370 70 328 47 284 47 C259 47 236 55 218 71 C193 93 178 143 178 207 C178 260 191 309 210 329 C229 350 258 361 289 361 C326 361 358 347 398 315 L398 111 Z M572 436 C658 445 716 504 716 583 C716 641 684 678 634 678 C594 678 565 653 565 619 C565 590 589 566 620 566 C624 566 630 567 635 568 C648 571 648 571 651 571 C659 571 666 562 666 550 C666 514 626 482 572 476 L572 436 Z " />
<glyph glyph-name="Dcroat" unicode="&#x110;" horiz-adv-x="830" d="M138 306 L138 149 C138 69 116 43 48 44 L33 44 L33 0 L303 0 C452 0 510 5 561 21 C700 65 784 181 784 328 C784 447 728 549 632 604 C550 651 437 672 261 672 C235 672 214 672 177 671 C149 671 145 671 102 669 C73 667 57 666 34 665 L34 622 L46 622 C118 623 137 601 138 519 L138 358 L27 358 L27 306 L138 306 Z M286 306 L441 306 L441 358 L286 358 L286 626 C304 627 314 627 329 627 C404 627 450 617 493 592 C576 544 616 457 616 325 C616 188 567 92 485 65 C449 54 405 47 369 47 C302 47 286 71 286 171 L286 306 Z " />
<glyph glyph-name="dcroat" unicode="&#x111;" horiz-adv-x="614" d="M398 490 L398 364 C361 399 306 419 247 419 C126 419 39 327 39 199 C39 75 120 -12 236 -12 C297 -12 352 11 399 56 L399 50 C399 27 402 10 409 -12 C456 -3 524 4 602 6 L602 50 L594 50 C542 51 529 67 527 133 L527 490 L602 490 L602 535 L527 535 L527 678 L520 678 L504 675 L457 666 C425 660 388 655 343 649 C335 648 334 648 328 647 L328 604 L334 604 C384 603 392 593 398 535 L221 535 L221 490 L398 490 Z M398 111 C370 70 328 47 284 47 C259 47 236 55 218 71 C193 93 178 143 178 208 C178 261 191 309 210 330 C229 350 258 362 289 362 C326 362 358 348 398 315 L398 111 Z " />
<glyph glyph-name="Emacron" unicode="&#x112;" horiz-adv-x="689" d="M611 215 C577 90 525 45 417 47 L387 47 C301 44 278 70 281 164 L281 327 L353 327 C422 324 438 309 440 243 L440 235 L488 235 L488 462 L440 462 L440 455 C435 387 424 377 351 374 L281 374 L281 621 L403 621 C500 624 535 597 565 496 L611 496 L599 667 L35 667 L35 624 L47 624 C111 625 133 600 133 521 L133 149 C134 69 111 43 44 44 L30 44 L30 0 L650 0 L658 215 L611 215 Z M173 810 L173 758 L527 758 L527 810 L173 810 Z " />
<glyph glyph-name="emacron" unicode="&#x113;" horiz-adv-x="514" d="M429 100 C400 58 357 34 309 34 C279 34 252 44 229 62 C200 86 184 136 184 200 C184 210 184 216 185 227 L478 227 L478 234 C478 343 392 419 270 419 C136 419 39 328 39 202 C39 76 138 -16 273 -16 C358 -16 434 22 469 81 L429 100 Z M187 266 C191 312 196 329 209 348 C220 364 244 376 268 376 C315 376 343 338 343 271 C343 269 343 268 342 266 L187 266 Z M107 541 L427 541 L427 590 L107 590 L107 541 Z " />
<glyph glyph-name="Ebreve" unicode="&#x114;" horiz-adv-x="689" d="M611 215 C577 90 525 45 417 47 L387 47 C301 44 278 70 281 164 L281 327 L353 327 C422 324 438 309 440 243 L440 235 L488 235 L488 462 L440 462 L440 455 C435 387 424 377 351 374 L281 374 L281 621 L403 621 C500 624 535 597 565 496 L611 496 L599 667 L35 667 L35 624 L47 624 C111 625 133 600 133 521 L133 149 C134 69 111 43 44 44 L30 44 L30 0 L650 0 L658 215 L611 215 Z M168 880 C195 782 268 720 357 720 C445 720 518 783 543 880 L498 880 C472 835 421 810 355 810 C289 810 245 832 214 880 L168 880 Z " />
<glyph glyph-name="ebreve" unicode="&#x115;" horiz-adv-x="514" d="M429 100 C400 58 357 34 309 34 C279 34 252 44 229 62 C200 86 184 136 184 200 C184 210 184 216 185 227 L478 227 L478 234 C478 343 392 419 270 419 C136 419 39 328 39 202 C39 76 138 -16 273 -16 C358 -16 434 22 469 81 L429 100 Z M187 266 C191 312 196 329 209 348 C220 364 244 376 268 376 C315 376 343 338 343 271 C343 269 343 268 342 266 L187 266 Z M133 648 L133 645 C133 607 148 568 176 536 C204 504 235 489 276 489 C355 489 414 555 418 648 L391 648 C373 596 336 571 278 571 C217 571 177 598 161 648 L133 648 Z " />
<glyph glyph-name="Edotaccent" unicode="&#x116;" horiz-adv-x="689" d="M611 215 C577 90 525 45 417 47 L387 47 C301 44 278 70 281 164 L281 327 L353 327 C422 324 438 309 440 243 L440 235 L488 235 L488 462 L440 462 L440 455 C435 387 424 377 351 374 L281 374 L281 621 L403 621 C500 624 535 597 565 496 L611 496 L599 667 L35 667 L35 624 L47 624 C111 625 133 600 133 521 L133 149 C134 69 111 43 44 44 L30 44 L30 0 L650 0 L658 215 L611 215 Z M357 862 C319 862 289 832 289 794 C289 757 320 726 356 726 C394 726 425 756 425 794 C425 832 395 862 357 862 L357 862 Z " />
<glyph glyph-name="edotaccent" unicode="&#x117;" horiz-adv-x="514" d="M429 100 C400 58 357 34 309 34 C279 34 252 44 229 62 C200 86 184 136 184 200 C184 210 184 216 185 227 L478 227 L478 234 C478 343 392 419 270 419 C136 419 39 328 39 202 C39 76 138 -16 273 -16 C358 -16 434 22 469 81 L429 100 Z M187 266 C191 312 196 329 209 348 C220 364 244 376 268 376 C315 376 343 338 343 271 C343 269 343 268 342 266 L187 266 Z M278 633 C245 633 218 606 218 573 C218 540 245 513 277 513 C311 513 338 539 338 573 C338 606 311 633 278 633 L278 633 Z " />
<glyph glyph-name="Eogonek" unicode="&#x118;" horiz-adv-x="689" d="M650 0 L658 215 L611 215 C577 90 525 45 417 47 L387 47 C301 44 278 70 281 164 L281 327 L353 327 C422 324 438 309 440 243 L440 235 L488 235 L488 462 L440 462 L440 455 C435 387 424 377 351 374 L281 374 L281 621 L403 621 C500 624 535 597 565 496 L611 496 L599 667 L35 667 L35 624 L47 624 C111 625 133 600 133 521 L133 149 C134 69 111 43 44 44 L30 44 L30 0 L507 0 C445 -27 407 -71 407 -117 C407 -169 461 -209 533 -209 C574 -209 606 -199 650 -171 L635 -150 C610 -159 597 -162 579 -162 C534 -162 501 -132 501 -92 C501 -58 517 -30 552 0 L650 0 Z " />
<glyph glyph-name="eogonek" unicode="&#x119;" horiz-adv-x="514" d="M429 100 C400 58 357 34 309 34 C279 34 252 44 229 62 C200 86 184 136 184 200 C184 210 184 216 185 227 L478 227 L478 234 C478 343 392 419 270 419 C136 419 39 328 39 202 C39 76 138 -16 275 -16 C285 -16 290 -16 298 -15 C262 -41 242 -74 242 -107 C242 -156 287 -192 347 -192 C382 -192 407 -183 445 -158 L433 -137 C416 -145 406 -148 393 -148 C353 -148 323 -120 323 -83 C323 -53 335 -28 363 -1 C411 16 449 45 469 81 L429 100 Z M187 266 C191 312 196 329 209 348 C220 364 244 376 268 376 C315 376 343 338 343 271 C343 269 343 268 342 266 L187 266 Z " />
<glyph glyph-name="Ecaron" unicode="&#x11a;" horiz-adv-x="689" d="M611 215 C577 90 525 45 417 47 L387 47 C301 44 278 70 281 164 L281 327 L353 327 C422 324 438 309 440 243 L440 235 L488 235 L488 462 L440 462 L440 455 C435 387 424 377 351 374 L281 374 L281 621 L403 621 C500 624 535 597 565 496 L611 496 L599 667 L35 667 L35 624 L47 624 C111 625 133 600 133 521 L133 149 C134 69 111 43 44 44 L30 44 L30 0 L650 0 L658 215 L611 215 Z M430 729 L540 879 L509 879 L362 791 L198 879 L166 879 L274 729 L430 729 Z " />
<glyph glyph-name="ecaron" unicode="&#x11b;" horiz-adv-x="514" d="M429 100 C400 58 357 34 309 34 C279 34 252 44 229 62 C200 86 184 136 184 200 C184 210 184 216 185 227 L478 227 L478 234 C478 343 392 419 270 419 C136 419 39 328 39 202 C39 76 138 -16 273 -16 C358 -16 434 22 469 81 L429 100 Z M187 266 C191 312 196 329 209 348 C220 364 244 376 268 376 C315 376 343 338 343 271 C343 269 343 268 342 266 L187 266 Z M168 655 L135 655 L226 491 L330 491 L415 655 L380 655 L281 566 L168 655 Z " />
<glyph glyph-name="Gcircumflex" unicode="&#x11c;" horiz-adv-x="821" d="M481 300 L481 256 L492 256 C552 252 568 238 570 186 L570 161 L574 139 C574 132 566 109 558 96 C538 60 486 37 424 37 C345 37 284 68 252 124 C228 168 216 231 216 319 C216 415 229 483 256 533 C286 590 353 625 429 625 C542 625 622 557 653 436 L697 436 L693 667 L650 667 C647 640 641 618 630 595 C566 653 493 680 405 680 C310 680 225 648 162 590 C88 522 45 423 45 324 C45 132 197 -13 398 -13 C452 -13 490 -7 568 13 C620 27 667 34 703 34 C707 34 713 34 724 32 L724 149 C723 233 733 250 791 255 L800 256 L800 300 L481 300 Z M341 879 L233 729 L264 729 L410 817 L575 729 L607 729 L497 879 L341 879 Z " />
<glyph glyph-name="gcircumflex" unicode="&#x11d;" horiz-adv-x="541" d="M265 56 L263 56 L251 56 L236 56 C165 56 138 64 138 84 C138 109 174 124 239 124 C375 125 458 182 458 275 C458 301 451 325 436 348 C446 360 455 365 466 365 C474 365 479 362 489 351 C500 339 508 335 519 335 C539 335 552 350 552 372 C552 400 532 418 500 418 C473 418 449 406 411 373 C372 404 323 419 258 419 C131 419 48 362 48 276 C48 213 92 160 160 139 C91 123 58 93 58 44 C58 -25 121 -53 275 -53 C397 -53 440 -69 440 -117 C440 -174 373 -208 259 -208 C166 -208 107 -178 107 -130 C107 -115 113 -101 127 -83 C110 -77 100 -75 89 -75 C58 -75 32 -103 32 -135 C32 -167 52 -198 85 -217 C122 -238 181 -249 257 -249 C421 -249 516 -188 516 -83 C516 -25 486 16 429 38 C399 49 343 56 283 56 L265 56 Z M253 376 C304 376 333 339 333 277 C333 205 307 169 255 169 C202 169 174 206 174 274 C174 340 202 376 253 376 L253 376 Z M372 489 L407 489 L321 652 L216 652 L127 489 L160 489 L264 578 L372 489 Z " />
<glyph glyph-name="Gbreve" unicode="&#x11e;" horiz-adv-x="821" d="M481 300 L481 256 L492 256 C552 252 568 238 570 186 L570 161 L574 139 C574 132 566 109 558 96 C538 60 486 37 424 37 C345 37 284 68 252 124 C228 168 216 231 216 319 C216 415 229 483 256 533 C286 590 353 625 429 625 C542 625 622 557 653 436 L697 436 L693 667 L650 667 C647 640 641 618 630 595 C566 653 493 680 405 680 C310 680 225 648 162 590 C88 522 45 423 45 324 C45 132 197 -13 398 -13 C452 -13 490 -7 568 13 C620 27 667 34 703 34 C707 34 713 34 724 32 L724 149 C723 233 733 250 791 255 L800 256 L800 300 L481 300 Z M226 880 C253 782 326 720 415 720 C503 720 576 783 601 880 L556 880 C530 835 479 810 413 810 C347 810 303 832 272 880 L226 880 Z " />
<glyph glyph-name="gbreve" unicode="&#x11f;" horiz-adv-x="541" d="M265 56 L263 56 L251 56 L236 56 C165 56 138 64 138 84 C138 109 174 124 239 124 C375 125 458 182 458 275 C458 301 451 325 436 348 C446 360 455 365 466 365 C474 365 479 362 489 351 C500 339 508 335 519 335 C539 335 552 350 552 372 C552 400 532 418 500 418 C473 418 449 406 411 373 C372 404 323 419 258 419 C131 419 48 362 48 276 C48 213 92 160 160 139 C91 123 58 93 58 44 C58 -25 121 -53 275 -53 C397 -53 440 -69 440 -117 C440 -174 373 -208 259 -208 C166 -208 107 -178 107 -130 C107 -115 113 -101 127 -83 C110 -77 100 -75 89 -75 C58 -75 32 -103 32 -135 C32 -167 52 -198 85 -217 C122 -238 181 -249 257 -249 C421 -249 516 -188 516 -83 C516 -25 486 16 429 38 C399 49 343 56 283 56 L265 56 Z M253 376 C304 376 333 339 333 277 C333 205 307 169 255 169 C202 169 174 206 174 274 C174 340 202 376 253 376 L253 376 Z M119 648 C126 553 183 489 261 489 C340 489 400 556 404 648 L376 648 C358 596 322 571 264 571 C203 571 162 598 147 648 L119 648 Z " />
<glyph glyph-name="Gdotaccent" unicode="&#x120;" horiz-adv-x="821" d="M481 300 L481 256 L492 256 C552 252 568 238 570 186 L570 161 L574 139 C574 132 566 109 558 96 C538 60 486 37 424 37 C345 37 284 68 252 124 C228 168 216 231 216 319 C216 415 229 483 256 533 C286 590 353 625 429 625 C542 625 622 557 653 436 L697 436 L693 667 L650 667 C647 640 641 618 630 595 C566 653 493 680 405 680 C310 680 225 648 162 590 C88 522 45 423 45 324 C45 132 197 -13 398 -13 C452 -13 490 -7 568 13 C620 27 667 34 703 34 C707 34 713 34 724 32 L724 149 C723 233 733 250 791 255 L800 256 L800 300 L481 300 Z M414 862 C376 862 346 832 346 794 C346 757 377 726 413 726 C451 726 482 756 482 794 C482 832 452 862 414 862 L414 862 Z " />
<glyph glyph-name="gdotaccent" unicode="&#x121;" horiz-adv-x="541" d="M265 56 L263 56 L251 56 L236 56 C165 56 138 64 138 84 C138 109 174 124 239 124 C375 125 458 182 458 275 C458 301 451 325 436 348 C446 360 455 365 466 365 C474 365 479 362 489 351 C500 339 508 335 519 335 C539 335 552 350 552 372 C552 400 532 418 500 418 C473 418 449 406 411 373 C372 404 323 419 258 419 C131 419 48 362 48 276 C48 213 92 160 160 139 C91 123 58 93 58 44 C58 -25 121 -53 275 -53 C397 -53 440 -69 440 -117 C440 -174 373 -208 259 -208 C166 -208 107 -178 107 -130 C107 -115 113 -101 127 -83 C110 -77 100 -75 89 -75 C58 -75 32 -103 32 -135 C32 -167 52 -198 85 -217 C122 -238 181 -249 257 -249 C421 -249 516 -188 516 -83 C516 -25 486 16 429 38 C399 49 343 56 283 56 L265 56 Z M253 376 C304 376 333 339 333 277 C333 205 307 169 255 169 C202 169 174 206 174 274 C174 340 202 376 253 376 L253 376 Z M261 633 C228 633 201 606 201 573 C201 540 228 513 260 513 C294 513 321 539 321 573 C321 606 294 633 261 633 L261 633 Z " />
<glyph glyph-name="Gcommaaccent" unicode="&#x122;" horiz-adv-x="821" d="M481 300 L481 256 L492 256 C552 252 568 238 570 186 L570 161 L574 139 C574 132 566 109 558 96 C538 60 486 37 424 37 C345 37 284 68 252 124 C228 168 216 231 216 319 C216 415 229 483 256 533 C286 590 353 625 429 625 C542 625 622 557 653 436 L697 436 L693 667 L650 667 C647 640 641 618 630 595 C566 653 493 680 405 680 C310 680 225 648 162 590 C88 522 45 423 45 324 C45 132 197 -13 398 -13 C452 -13 490 -7 568 13 C620 27 667 34 703 34 C707 34 713 34 724 32 L724 149 C723 233 733 250 791 255 L800 256 L800 300 L481 300 Z M325 -327 C422 -318 485 -257 485 -171 C485 -104 449 -59 394 -59 C350 -59 319 -89 319 -130 C319 -166 346 -194 379 -194 C384 -194 390 -193 396 -192 C411 -188 411 -188 413 -188 C423 -188 430 -198 430 -210 C430 -247 386 -277 325 -284 L325 -327 Z " />
<glyph glyph-name="gcommaaccent" unicode="&#x123;" horiz-adv-x="541" d="M265 56 L263 56 L251 56 L236 56 C165 56 138 64 138 84 C138 109 174 124 239 124 C375 125 458 182 458 275 C458 301 451 325 436 348 C446 360 455 365 466 365 C474 365 479 362 489 351 C500 339 508 335 519 335 C539 335 552 350 552 372 C552 400 532 418 500 418 C473 418 449 406 411 373 C372 404 323 419 258 419 C131 419 48 362 48 276 C48 213 92 160 160 139 C91 123 58 93 58 44 C58 -25 121 -53 275 -53 C397 -53 440 -69 440 -117 C440 -174 373 -208 259 -208 C166 -208 107 -178 107 -130 C107 -115 113 -101 127 -83 C110 -77 100 -75 89 -75 C58 -75 32 -103 32 -135 C32 -167 52 -198 85 -217 C122 -238 181 -249 257 -249 C421 -249 516 -188 516 -83 C516 -25 486 16 429 38 C399 49 343 56 283 56 L265 56 Z M253 376 C304 376 333 339 333 277 C333 205 307 169 255 169 C202 169 174 206 174 274 C174 340 202 376 253 376 L253 376 Z M331 705 C245 696 187 638 187 558 C187 500 219 463 269 463 C309 463 338 488 338 522 C338 551 314 575 283 575 C279 575 273 574 268 573 C255 570 255 570 252 570 C244 570 237 579 237 591 C237 628 277 660 331 666 L331 705 Z " />
<glyph glyph-name="Hcircumflex" unicode="&#x124;" horiz-adv-x="877" d="M600 325 L600 149 C601 70 577 42 510 44 L499 27 L499 0 L848 0 L848 44 L837 44 C770 43 748 69 748 149 L748 521 C749 604 767 624 839 623 L848 623 L848 667 L499 667 L499 623 L508 623 C579 624 599 603 600 521 L600 377 L279 377 L279 521 C280 603 298 624 370 623 L378 623 L378 667 L30 667 L30 623 L40 623 C110 625 130 603 131 521 L131 149 C132 70 108 42 42 44 L30 44 L30 0 L378 0 L378 44 L368 44 C302 42 278 70 279 149 L279 325 L600 325 Z M359 879 L251 729 L283 729 L429 817 L594 729 L625 729 L515 879 L359 879 Z " />
<glyph glyph-name="Hbar" unicode="&#x126;" horiz-adv-x="877" d="M131 426 L131 149 C132 70 108 42 42 44 L30 44 L30 0 L378 0 L378 44 L368 44 C302 42 278 70 279 149 L279 325 L600 325 L600 149 C601 70 577 42 510 44 L499 27 L499 0 L848 0 L848 44 L836 44 C770 43 748 69 748 149 L748 426 L830 426 L830 478 L748 478 L748 521 C749 604 767 624 838 623 L848 623 L848 667 L499 667 L499 623 L508 623 C580 624 599 603 600 521 L600 478 L279 478 L279 521 C280 604 298 624 370 623 L378 623 L378 667 L30 667 L30 623 L40 623 C111 625 130 603 131 521 L131 478 L48 478 L48 426 L131 426 Z M279 426 L600 426 L600 377 L279 377 L279 426 Z " />
<glyph glyph-name="hbar" unicode="&#x127;" horiz-adv-x="612" d="M223 535 L223 678 L216 678 C197 672 144 663 114 661 C102 660 97 659 67 653 C57 652 42 649 22 645 L22 603 L27 603 C81 600 92 589 94 535 L24 535 L24 490 L94 490 L94 125 C91 57 81 43 27 42 L21 42 L21 0 L284 0 L284 42 L280 42 C233 45 225 57 223 125 L223 282 C256 330 292 354 331 354 C378 354 397 329 397 268 L397 125 C395 57 388 46 342 43 L335 42 L335 0 L599 0 L599 42 L593 42 C542 43 531 57 528 125 L528 253 C528 306 523 333 510 357 C489 394 437 419 381 419 C318 419 266 394 223 344 L223 490 L395 490 L395 535 L223 535 Z " />
<glyph glyph-name="Imacron" unicode="&#x12a;" horiz-adv-x="413" d="M29 623 L40 623 C112 624 130 604 131 521 L131 149 C131 68 111 44 42 44 L29 44 L29 0 L383 0 L383 44 L368 44 C299 44 279 68 279 149 L279 521 C280 604 298 624 370 623 L383 623 L383 667 L29 667 L29 623 Z M29 810 L29 758 L383 758 L383 810 L29 810 Z " />
<glyph glyph-name="imacron" unicode="&#x12b;" horiz-adv-x="316" d="M229 419 L222 419 C190 411 60 390 17 386 L17 343 L30 343 C83 343 97 326 97 263 L97 125 C94 56 84 44 31 42 L17 42 L17 0 L303 0 L303 42 L296 42 C244 43 232 58 229 125 L229 419 Z M0 541 L295 541 L295 590 L0 590 L0 541 Z " />
<glyph glyph-name="ibreve" unicode="&#x12d;" horiz-adv-x="316" d="M229 419 L222 419 C190 411 60 390 17 386 L17 343 L30 343 C83 343 97 326 97 263 L97 125 C94 56 84 44 31 42 L17 42 L17 0 L303 0 L303 42 L296 42 C244 43 232 58 229 125 L229 419 Z M14 648 L14 645 C14 608 30 567 57 536 C84 504 116 489 157 489 C235 489 295 556 299 648 L272 648 C254 596 217 571 159 571 C98 571 58 598 42 648 L14 648 Z " />
<glyph glyph-name="Iogonek" unicode="&#x12e;" horiz-adv-x="413" d="M383 0 L383 44 L369 44 C300 44 280 68 280 149 L280 521 C281 604 298 624 370 623 L383 623 L383 667 L30 667 L30 623 L41 623 C113 624 131 604 132 521 L132 149 C132 68 112 44 43 44 L30 44 L30 0 L252 0 L249 -1 C190 -27 152 -72 152 -117 C152 -170 206 -209 278 -209 C319 -209 351 -199 394 -171 L380 -150 C355 -159 342 -162 324 -162 C279 -162 246 -132 246 -92 C246 -58 262 -30 297 0 L383 0 Z " />
<glyph glyph-name="iogonek" unicode="&#x12f;" horiz-adv-x="316" d="M303 0 L303 42 L296 42 C244 43 232 58 229 125 L229 419 L222 419 C190 411 60 390 17 386 L17 343 L30 343 C83 343 97 326 97 263 L97 125 C94 56 84 44 31 42 L17 42 L17 0 L192 0 C142 -24 110 -66 110 -107 C110 -156 155 -192 216 -192 C250 -192 275 -183 313 -158 L301 -137 C284 -145 274 -148 261 -148 C222 -148 191 -120 191 -84 C191 -54 206 -24 232 0 L303 0 Z M162 678 C121 678 87 644 87 602 C87 559 120 525 163 525 C204 525 238 559 238 601 C238 644 205 678 162 678 L162 678 Z " />
<glyph glyph-name="Idotaccent" unicode="&#x130;" horiz-adv-x="413" d="M30 623 L41 623 C113 624 131 604 132 521 L132 149 C132 68 112 44 43 44 L30 44 L30 0 L383 0 L383 44 L369 44 C300 44 280 68 280 149 L280 521 C281 604 298 624 370 623 L383 623 L383 667 L30 667 L30 623 Z M207 862 C169 862 139 832 139 794 C139 757 170 726 206 726 C244 726 275 756 275 794 C275 832 245 862 207 862 L207 862 Z " />
<glyph glyph-name="dotlessi" unicode="&#x131;" horiz-adv-x="316" d="M229 419 L222 419 C190 411 60 390 17 386 L17 343 L30 343 C83 343 97 326 97 263 L97 125 C94 56 84 44 31 42 L17 42 L17 0 L303 0 L303 42 L296 42 C244 43 232 58 229 125 L229 419 Z " />
<glyph glyph-name="Kcommaaccent" unicode="&#x136;" horiz-adv-x="820" d="M281 339 L281 521 C282 604 300 624 372 623 L384 623 L384 667 L32 667 L32 623 L42 623 C115 624 132 604 133 521 L133 149 C133 68 113 44 44 44 L29 44 L29 0 L377 0 L377 44 L370 44 C302 43 281 68 281 149 L281 274 L348 330 L504 144 C504 143 506 140 509 136 C510 134 517 127 523 119 C540 101 550 85 550 74 C550 53 526 44 473 44 L464 44 L464 0 L853 0 L853 44 L847 44 C784 44 746 70 676 160 L460 426 L546 501 C652 595 694 619 761 623 L768 623 L768 667 L474 667 L474 623 L481 623 C519 623 540 611 540 589 C540 569 522 545 483 511 L281 339 Z M309 -327 C406 -318 469 -257 469 -171 C469 -104 433 -59 378 -59 C334 -59 303 -89 303 -130 C303 -166 330 -194 363 -194 C368 -194 374 -193 380 -192 C395 -188 395 -188 397 -188 C407 -188 414 -198 414 -210 C414 -247 370 -277 309 -284 L309 -327 Z " />
<glyph glyph-name="kcommaaccent" unicode="&#x137;" horiz-adv-x="580" d="M331 403 L331 361 L337 361 C361 361 372 355 372 343 C372 338 370 333 367 330 C367 329 367 329 366 328 L366 327 C366 326 365 326 364 325 L357 319 C352 314 343 307 301 278 L265 253 L221 224 L221 678 L214 678 C196 672 144 663 113 661 C106 660 99 659 91 658 C83 657 62 653 28 647 L21 645 L21 603 L27 603 C81 600 91 589 92 529 L92 125 C90 57 79 44 25 42 L16 42 L16 0 L282 0 L282 42 L278 42 C233 45 223 58 221 125 L221 173 L260 198 L347 97 C363 79 370 69 370 62 C370 49 358 43 335 42 L331 42 L331 0 L579 0 L579 42 L574 43 C548 45 535 56 481 119 L358 265 C366 270 373 275 374 276 C379 280 383 283 387 286 L393 290 C472 348 499 361 534 361 L538 361 L538 403 L331 403 Z M235 -301 C321 -292 379 -234 379 -154 C379 -96 347 -59 297 -59 C257 -59 228 -84 228 -118 C228 -147 252 -171 283 -171 C287 -171 293 -170 298 -169 C311 -166 311 -166 314 -166 C322 -166 329 -175 329 -187 C329 -223 289 -256 235 -262 L235 -301 Z " />
<glyph glyph-name="Lacute" unicode="&#x139;" horiz-adv-x="671" d="M657 213 L612 213 C578 90 528 48 416 47 L388 47 C295 49 279 64 281 151 L281 521 C282 604 299 624 372 623 L392 623 L392 667 L30 667 L30 623 L42 623 C115 624 132 604 133 521 L133 148 C133 68 113 44 44 44 L30 44 L30 0 L653 0 L657 213 Z M204 729 L237 729 L483 869 L483 877 L304 877 L204 729 Z " />
<glyph glyph-name="lacute" unicode="&#x13a;" horiz-adv-x="314" d="M222 678 L215 678 C187 670 107 657 21 645 L21 603 L27 603 C82 601 92 589 93 527 L93 125 C90 57 79 43 25 42 L18 42 L18 0 L298 0 L298 42 L290 42 C238 42 223 61 222 125 L222 678 Z M96 729 L129 729 L376 869 L376 877 L196 877 L96 729 Z " />
<glyph glyph-name="Lcommaaccent" unicode="&#x13b;" horiz-adv-x="671" d="M657 213 L612 213 C578 90 528 48 416 47 L388 47 C295 49 279 64 281 151 L281 521 C282 604 299 624 372 623 L392 623 L392 667 L30 667 L30 623 L42 623 C115 624 132 604 133 521 L133 148 C133 68 113 44 44 44 L30 44 L30 0 L653 0 L657 213 Z M275 -327 C372 -318 435 -257 435 -171 C435 -104 399 -59 344 -59 C300 -59 269 -89 269 -130 C269 -166 296 -194 329 -194 C334 -194 340 -193 346 -192 C361 -188 361 -188 363 -188 C373 -188 380 -198 380 -210 C380 -247 336 -277 275 -284 L275 -327 Z " />
<glyph glyph-name="lcommaaccent" unicode="&#x13c;" horiz-adv-x="314" d="M222 678 L215 678 C187 670 107 657 21 645 L21 603 L27 603 C82 601 92 589 93 527 L93 125 C90 57 79 43 25 42 L18 42 L18 0 L298 0 L298 42 L290 42 C238 42 223 61 222 125 L222 678 Z M94 -301 C180 -292 238 -234 238 -154 C238 -96 206 -59 156 -59 C116 -59 87 -84 87 -118 C87 -147 111 -171 142 -171 C146 -171 152 -170 157 -169 C170 -166 170 -166 173 -166 C181 -166 188 -175 188 -187 C188 -223 148 -256 94 -262 L94 -301 Z " />
<glyph glyph-name="Lcaron" unicode="&#x13d;" horiz-adv-x="671" d="M657 213 L612 213 C578 90 528 48 416 47 L388 47 C295 49 279 64 281 151 L281 521 C282 604 299 624 372 623 L392 623 L392 667 L30 667 L30 623 L42 623 C115 624 132 604 133 521 L133 148 C133 68 113 44 44 44 L30 44 L30 0 L653 0 L657 213 Z M428 399 C525 408 588 469 588 555 C588 622 552 667 497 667 C453 667 422 638 422 596 C422 561 449 533 482 533 C487 533 493 534 499 535 C514 538 514 538 516 538 C526 538 533 528 533 516 C533 480 489 449 428 442 L428 399 Z " />
<glyph glyph-name="lcaron" unicode="&#x13e;" horiz-adv-x="416" d="M222 678 L215 678 C187 670 107 657 21 645 L21 603 L27 603 C82 601 92 589 93 527 L93 125 C90 57 79 43 25 42 L18 42 L18 0 L298 0 L298 42 L290 42 C238 42 223 61 222 125 L222 678 Z M266 436 C352 445 410 504 410 583 C410 641 378 678 328 678 C288 678 259 653 259 619 C259 590 283 566 314 566 C318 566 324 567 329 568 C342 571 342 571 345 571 C353 571 360 562 360 550 C360 514 320 482 266 476 L266 436 Z " />
<glyph glyph-name="Ldot" unicode="&#x13f;" horiz-adv-x="671" d="M657 213 L612 213 C578 90 528 48 416 47 L388 47 C295 49 279 64 281 151 L281 521 C282 604 299 624 372 623 L392 623 L392 667 L30 667 L30 623 L42 623 C115 624 132 604 133 521 L133 148 C133 68 113 44 44 44 L30 44 L30 0 L653 0 L657 213 Z M430 383 C397 383 370 356 370 323 C370 290 397 263 429 263 C463 263 490 289 490 323 C490 356 463 383 430 383 L430 383 Z " />
<glyph glyph-name="ldot" unicode="&#x140;" horiz-adv-x="366" d="M222 678 L215 678 C187 670 107 657 21 645 L21 603 L27 603 C82 601 92 589 93 527 L93 125 C90 57 79 43 25 42 L18 42 L18 0 L298 0 L298 42 L290 42 C238 42 223 61 222 125 L222 678 Z M320 391 C287 391 260 364 260 331 C260 298 287 271 319 271 C353 271 380 297 380 331 C380 364 353 391 320 391 L320 391 Z " />
<glyph glyph-name="Lslash" unicode="&#x141;" horiz-adv-x="671" d="M30 44 L30 0 L654 0 L658 213 L612 213 C581 93 526 46 416 47 L388 47 C295 49 279 64 281 151 L281 339 L417 427 L417 482 L281 395 L281 521 C282 604 299 624 372 623 L392 623 L392 667 L30 667 L30 623 L43 623 C115 623 132 605 133 521 L133 297 L37 235 L37 179 L133 241 L133 148 C133 68 113 44 44 44 L30 44 Z " />
<glyph glyph-name="lslash" unicode="&#x142;" horiz-adv-x="323" d="M223 370 L223 678 L216 678 C188 670 108 657 22 645 L22 603 L28 603 C83 601 93 589 94 527 L94 282 L20 232 L20 179 L94 230 L94 125 C91 57 80 43 26 42 L19 42 L19 0 L299 0 L299 42 L291 42 C239 42 224 61 223 125 L223 318 L305 372 L305 426 L223 370 Z " />
<glyph glyph-name="Nacute" unicode="&#x143;" horiz-adv-x="817" d="M700 -12 L700 513 C697 583 719 611 786 623 L794 623 L794 667 L548 667 L548 623 L557 623 C625 618 651 588 650 517 L650 221 L252 667 L25 667 L25 623 L30 623 C103 623 124 598 129 507 L129 162 C129 111 127 99 121 88 C107 63 69 45 30 44 L25 44 L25 0 L288 0 L288 44 L280 44 L276 44 C250 44 223 53 205 69 C182 91 179 99 179 163 L179 522 L651 -12 L700 -12 Z M360 729 L393 729 L639 869 L639 877 L460 877 L360 729 Z " />
<glyph glyph-name="nacute" unicode="&#x144;" horiz-adv-x="613" d="M208 412 C176 404 153 400 123 396 C98 393 75 389 23 380 L23 338 L28 338 C78 338 93 321 96 259 L96 125 C93 57 82 43 28 42 L24 42 L24 0 L287 0 L287 42 L282 42 C236 45 227 57 225 125 L225 283 C264 332 298 353 336 353 C375 353 399 328 399 288 L399 272 L399 125 C397 58 389 46 344 43 L337 42 L337 0 L600 0 L600 42 L595 42 C543 43 533 57 530 125 L530 260 C530 313 526 334 513 358 C491 395 442 419 387 419 C327 419 271 393 227 346 C226 375 222 396 216 412 L208 412 Z M266 488 L300 488 L498 642 L498 649 L347 649 L266 488 Z " />
<glyph glyph-name="Ncommaaccent" unicode="&#x145;" horiz-adv-x="817" d="M700 -12 L700 513 C697 583 719 611 786 623 L794 623 L794 667 L548 667 L548 623 L557 623 C625 618 651 588 650 517 L650 221 L252 667 L25 667 L25 623 L30 623 C103 623 124 598 129 507 L129 162 C129 111 127 99 121 88 C107 63 69 45 30 44 L25 44 L25 0 L288 0 L288 44 L280 44 L276 44 C250 44 223 53 205 69 C182 91 179 99 179 163 L179 522 L651 -12 L700 -12 Z M332 -327 C429 -318 492 -257 492 -171 C492 -104 456 -59 401 -59 C357 -59 326 -89 326 -130 C326 -166 353 -194 386 -194 C391 -194 397 -193 403 -192 C418 -188 418 -188 420 -188 C430 -188 437 -198 437 -210 C437 -247 393 -277 332 -284 L332 -327 Z " />
<glyph glyph-name="ncommaaccent" unicode="&#x146;" horiz-adv-x="613" d="M208 412 C176 404 153 400 123 396 C98 393 75 389 23 380 L23 338 L28 338 C78 338 93 321 96 259 L96 125 C93 57 82 43 28 42 L24 42 L24 0 L287 0 L287 42 L282 42 C236 45 227 57 225 125 L225 283 C264 332 298 353 336 353 C375 353 399 328 399 288 L399 272 L399 125 C397 58 389 46 344 43 L337 42 L337 0 L600 0 L600 42 L595 42 C543 43 533 57 530 125 L530 260 C530 313 526 334 513 358 C491 395 442 419 387 419 C327 419 271 393 227 346 C226 375 222 396 216 412 L208 412 Z M249 -301 C335 -292 393 -234 393 -154 C393 -96 361 -59 311 -59 C271 -59 242 -84 242 -118 C242 -147 266 -171 297 -171 C301 -171 307 -170 312 -169 C325 -166 325 -166 328 -166 C336 -166 343 -175 343 -187 C343 -223 303 -256 249 -262 L249 -301 Z " />
<glyph glyph-name="Ncaron" unicode="&#x147;" horiz-adv-x="817" d="M700 -12 L700 513 C697 583 719 611 786 623 L794 623 L794 667 L548 667 L548 623 L557 623 C625 618 651 588 650 517 L650 221 L252 667 L25 667 L25 623 L30 623 C103 623 124 598 129 507 L129 162 C129 111 127 99 121 88 C107 63 69 45 30 44 L25 44 L25 0 L288 0 L288 44 L280 44 L276 44 C250 44 223 53 205 69 C182 91 179 99 179 163 L179 522 L651 -12 L700 -12 Z M498 729 L608 879 L577 879 L430 791 L266 879 L234 879 L341 729 L498 729 Z " />
<glyph glyph-name="ncaron" unicode="&#x148;" horiz-adv-x="613" d="M208 412 C176 404 153 400 123 396 C98 393 75 389 23 380 L23 338 L28 338 C78 338 93 321 96 259 L96 125 C93 57 82 43 28 42 L24 42 L24 0 L287 0 L287 42 L282 42 C236 45 227 57 225 125 L225 283 C264 332 298 353 336 353 C375 353 399 328 399 288 L399 272 L399 125 C397 58 389 46 344 43 L337 42 L337 0 L600 0 L600 42 L595 42 C543 43 533 57 530 125 L530 260 C530 313 526 334 513 358 C491 395 442 419 387 419 C327 419 271 393 227 346 C226 375 222 396 216 412 L208 412 Z M213 655 L180 655 L270 491 L375 491 L460 655 L425 655 L326 566 L213 655 Z " />
<glyph glyph-name="Omacron" unicode="&#x14c;" horiz-adv-x="867" d="M433 679 C326 679 220 643 156 584 C84 518 45 430 45 332 C45 249 75 168 129 107 C196 31 306 -13 432 -13 C543 -13 648 23 714 83 C781 145 821 237 821 327 C821 536 663 679 433 679 L433 679 Z M432 628 C486 628 536 611 571 580 C619 536 647 446 647 330 C647 244 633 175 606 127 C575 71 511 38 435 38 C374 38 325 57 285 98 C241 143 219 225 219 348 C219 440 245 529 283 569 C321 608 372 628 432 628 L432 628 Z M256 810 L256 758 L610 758 L610 810 L256 810 Z " />
<glyph glyph-name="omacron" unicode="&#x14d;" horiz-adv-x="571" d="M39 200 C39 72 141 -16 288 -16 C430 -16 533 76 533 203 C533 329 429 419 284 419 C143 419 39 328 39 203 L39 200 Z M286 375 C320 375 353 360 368 338 C386 313 394 272 394 206 C395 81 362 27 288 27 C211 27 178 80 178 204 C178 264 185 305 199 330 C216 359 247 375 286 375 L286 375 Z M134 541 L455 541 L455 590 L134 590 L134 541 Z " />
<glyph glyph-name="Ohungarumlaut" unicode="&#x150;" horiz-adv-x="867" d="M433 679 C326 679 220 643 156 584 C84 518 45 430 45 332 C45 249 75 168 129 107 C196 31 306 -13 432 -13 C543 -13 648 23 714 83 C781 145 821 237 821 327 C821 536 663 679 433 679 L433 679 Z M432 628 C486 628 536 611 571 580 C619 536 647 446 647 330 C647 244 633 175 606 127 C575 71 511 38 435 38 C374 38 325 57 285 98 C241 143 219 225 219 348 C219 440 245 529 283 569 C321 608 372 628 432 628 L432 628 Z M291 729 L324 729 L545 869 L545 877 L391 877 L291 729 Z M505 729 L538 729 L759 869 L759 877 L605 877 L505 729 Z " />
<glyph glyph-name="ohungarumlaut" unicode="&#x151;" horiz-adv-x="571" d="M39 200 C39 72 141 -16 288 -16 C430 -16 533 76 533 203 C533 329 429 419 284 419 C143 419 39 328 39 203 L39 200 Z M286 375 C320 375 353 360 368 338 C386 313 394 272 394 206 C395 81 362 27 288 27 C211 27 178 80 178 204 C178 264 185 305 199 330 C216 359 247 375 286 375 L286 375 Z M174 488 L207 488 L381 642 L381 649 L254 649 L174 488 Z M357 488 L390 488 L564 642 L564 649 L437 649 L357 488 Z " />
<glyph glyph-name="OE" unicode="&#x152;" horiz-adv-x="1027" d="M999 216 L953 216 C936 154 911 106 880 80 C858 61 814 47 774 47 L769 47 L768 47 L753 47 L742 48 L731 48 C658 50 650 60 646 157 L646 326 L714 326 C773 325 784 313 790 245 L790 236 L838 236 L838 465 L790 465 L790 456 C784 388 772 375 715 373 L646 373 L646 621 L758 621 C842 625 871 600 904 497 L951 497 L939 667 L552 667 L528 667 C510 667 479 667 467 668 C440 669 438 669 426 669 C339 669 263 652 209 621 C111 564 47 449 47 329 C47 248 76 170 128 110 C189 38 291 -1 416 -1 L453 -1 C473 0 488 0 496 0 L533 0 L570 0 L549 0 L991 0 L999 216 Z M498 133 C498 101 492 77 481 68 C467 56 441 48 415 48 C370 48 329 63 295 92 C245 135 215 226 215 332 C215 513 291 621 419 621 C445 621 469 614 481 604 C492 594 498 570 498 532 L498 133 Z " />
<glyph glyph-name="oe" unicode="&#x153;" horiz-adv-x="841" d="M755 100 C727 58 683 33 636 33 C558 33 512 93 512 197 C512 207 513 216 514 227 L804 227 C803 266 795 296 780 323 C746 382 676 419 599 419 C541 419 492 400 449 360 C404 398 344 419 281 419 C143 419 39 324 39 199 C39 75 142 -16 281 -16 C348 -16 404 5 449 47 C488 7 543 -16 605 -16 C682 -16 758 22 793 78 L755 100 Z M516 267 C520 335 550 376 596 376 C644 376 669 339 672 267 L516 267 Z M283 375 C319 375 352 358 367 332 C381 306 387 270 387 203 C387 154 382 112 373 88 C358 49 325 26 282 26 C223 26 188 67 181 143 C173 221 181 295 200 333 C212 358 246 375 283 375 L283 375 Z " />
<glyph glyph-name="Racute" unicode="&#x154;" horiz-adv-x="761" d="M795 0 L795 44 L789 44 C735 47 700 76 626 179 C552 282 532 305 494 329 C603 358 656 411 656 494 C656 550 627 599 575 629 C521 660 442 672 293 672 C258 672 238 672 183 669 L32 667 L32 623 L46 623 C118 624 135 604 136 521 L136 149 C136 68 116 44 48 44 L30 44 L30 0 L393 0 L393 44 L373 44 C304 44 284 68 284 149 L284 303 L290 303 L304 303 C365 305 386 287 457 176 C510 92 556 29 586 0 L795 0 Z M284 351 L284 621 C299 622 308 622 320 622 C382 622 421 614 447 595 C484 570 499 537 499 485 C499 433 480 392 446 373 C418 357 380 351 308 351 L301 351 L284 351 Z M296 729 L329 729 L575 869 L575 877 L396 877 L296 729 Z " />
<glyph glyph-name="racute" unicode="&#x155;" horiz-adv-x="459" d="M23 339 L30 339 C82 338 94 323 97 256 L97 125 C94 57 84 43 31 42 L24 42 L24 0 L307 0 L307 42 L295 42 C241 43 229 58 226 125 L226 178 C226 239 231 266 249 297 C266 326 285 340 307 340 C320 340 330 334 343 319 C366 291 375 285 397 285 C429 285 454 310 454 342 C454 386 418 419 371 419 C311 419 254 381 221 317 C219 360 214 393 205 419 C114 398 64 388 23 381 L23 339 Z M219 488 L252 488 L451 642 L451 649 L299 649 L219 488 Z " />
<glyph glyph-name="Rcommaaccent" unicode="&#x156;" horiz-adv-x="761" d="M795 0 L795 44 L789 44 C735 47 700 76 626 179 C552 282 532 305 494 329 C603 358 656 411 656 494 C656 550 627 599 575 629 C521 660 442 672 293 672 C258 672 238 672 183 669 L32 667 L32 623 L46 623 C118 624 135 604 136 521 L136 149 C136 68 116 44 48 44 L30 44 L30 0 L393 0 L393 44 L373 44 C304 44 284 68 284 149 L284 303 L290 303 L304 303 C365 305 386 287 457 176 C510 92 556 29 586 0 L795 0 Z M284 351 L284 621 C299 622 308 622 320 622 C382 622 421 614 447 595 C484 570 499 537 499 485 C499 433 480 392 446 373 C418 357 380 351 308 351 L301 351 L284 351 Z M293 -327 C390 -318 453 -257 453 -171 C453 -104 417 -59 362 -59 C318 -59 287 -89 287 -130 C287 -166 314 -194 347 -194 C352 -194 358 -193 364 -192 C379 -188 379 -188 381 -188 C391 -188 398 -198 398 -210 C398 -247 354 -277 293 -284 L293 -327 Z " />
<glyph glyph-name="rcommaaccent" unicode="&#x157;" horiz-adv-x="459" d="M23 339 L30 339 C82 338 94 323 97 256 L97 125 C94 57 84 43 31 42 L24 42 L24 0 L307 0 L307 42 L295 42 C241 43 229 58 226 125 L226 178 C226 239 231 266 249 297 C266 326 285 340 307 340 C320 340 330 334 343 319 C366 291 375 285 397 285 C429 285 454 310 454 342 C454 386 418 419 371 419 C311 419 254 381 221 317 C219 360 214 393 205 419 C114 398 64 388 23 381 L23 339 Z M111 -301 C197 -292 255 -234 255 -154 C255 -96 223 -59 173 -59 C133 -59 104 -84 104 -118 C104 -147 128 -171 159 -171 C163 -171 169 -170 174 -169 C187 -166 187 -166 190 -166 C198 -166 205 -175 205 -187 C205 -223 165 -256 111 -262 L111 -301 Z " />
<glyph glyph-name="Rcaron" unicode="&#x158;" horiz-adv-x="761" d="M795 0 L795 44 L789 44 C735 47 700 76 626 179 C552 282 532 305 494 329 C603 358 656 411 656 494 C656 550 627 599 575 629 C521 660 442 672 293 672 C258 672 238 672 183 669 L32 667 L32 623 L46 623 C118 624 135 604 136 521 L136 149 C136 68 116 44 48 44 L30 44 L30 0 L393 0 L393 44 L373 44 C304 44 284 68 284 149 L284 303 L290 303 L304 303 C365 305 386 287 457 176 C510 92 556 29 586 0 L795 0 Z M284 351 L284 621 C299 622 308 622 320 622 C382 622 421 614 447 595 C484 570 499 537 499 485 C499 433 480 392 446 373 C418 357 380 351 308 351 L301 351 L284 351 Z M429 729 L540 879 L508 879 L361 791 L197 879 L165 879 L273 729 L429 729 Z " />
<glyph glyph-name="rcaron" unicode="&#x159;" horiz-adv-x="459" d="M23 339 L30 339 C82 338 94 323 97 256 L97 125 C94 57 84 43 31 42 L24 42 L24 0 L307 0 L307 42 L295 42 C241 43 229 58 226 125 L226 178 C226 239 231 266 249 297 C266 326 285 340 307 340 C320 340 330 334 343 319 C366 291 375 285 397 285 C429 285 454 310 454 342 C454 386 418 419 371 419 C311 419 254 381 221 317 C219 360 214 393 205 419 C114 398 64 388 23 381 L23 339 Z M121 655 L88 655 L179 491 L283 491 L368 655 L333 655 L234 566 L121 655 Z " />
<glyph glyph-name="Sacute" unicode="&#x15a;" horiz-adv-x="587" d="M59 10 L109 10 C114 35 119 51 129 67 C176 16 244 -13 320 -13 C450 -13 547 73 547 188 C547 239 527 288 492 322 C459 355 402 386 313 420 C212 459 171 496 171 547 C171 597 212 632 272 632 C352 632 417 573 442 478 L488 478 L488 667 L441 667 C440 665 440 665 440 660 C436 643 430 629 421 617 C377 659 326 679 266 679 C150 679 61 598 61 492 C61 445 80 399 111 367 C145 334 192 307 296 262 C388 223 427 185 427 136 C427 79 376 37 307 37 C245 37 189 68 152 124 C134 151 121 183 109 233 L59 233 L59 10 Z M239 729 L272 729 L518 869 L518 877 L339 877 L239 729 Z " />
<glyph glyph-name="sacute" unicode="&#x15b;" horiz-adv-x="438" d="M44 -12 L82 -12 C87 2 94 12 103 20 C108 19 108 18 115 15 C150 -5 192 -16 235 -16 C334 -16 401 39 401 121 C401 159 384 195 355 218 C331 238 307 248 251 263 C158 287 129 304 129 333 C129 361 161 381 203 381 C264 381 316 345 334 290 L371 290 L371 414 L336 414 C328 399 322 391 316 386 C275 406 227 419 196 419 C110 419 43 363 43 291 C43 234 91 188 176 163 C267 137 269 136 292 118 C302 109 309 95 309 81 C309 48 273 25 223 25 C157 25 106 60 85 122 L44 122 L44 -12 Z M173 488 L206 488 L405 642 L405 649 L253 649 L173 488 Z " />
<glyph glyph-name="Scircumflex" unicode="&#x15c;" horiz-adv-x="587" d="M59 10 L109 10 C114 35 119 51 129 67 C176 16 244 -13 320 -13 C450 -13 547 73 547 188 C547 239 527 288 492 322 C459 355 402 386 313 420 C212 459 171 496 171 547 C171 597 212 632 272 632 C352 632 417 573 442 478 L488 478 L488 667 L441 667 C440 665 440 665 440 660 C436 643 430 629 421 617 C377 659 326 679 266 679 C150 679 61 598 61 492 C61 445 80 399 111 367 C145 334 192 307 296 262 C388 223 427 185 427 136 C427 79 376 37 307 37 C245 37 189 68 152 124 C134 151 121 183 109 233 L59 233 L59 10 Z M223 879 L115 729 L147 729 L293 817 L458 729 L490 729 L380 879 L223 879 Z " />
<glyph glyph-name="scircumflex" unicode="&#x15d;" horiz-adv-x="438" d="M44 -12 L82 -12 C87 2 94 12 103 20 C108 19 108 18 115 15 C150 -5 192 -16 235 -16 C334 -16 401 39 401 121 C401 159 384 195 355 218 C331 238 307 248 251 263 C158 287 129 304 129 333 C129 361 161 381 203 381 C264 381 316 345 334 290 L371 290 L371 414 L336 414 C328 399 322 391 316 386 C275 406 227 419 196 419 C110 419 43 363 43 291 C43 234 91 188 176 163 C267 137 269 136 292 118 C302 109 309 95 309 81 C309 48 273 25 223 25 C157 25 106 60 85 122 L44 122 L44 -12 Z M333 489 L368 489 L282 652 L178 652 L88 489 L121 489 L225 578 L333 489 Z " />
<glyph glyph-name="Scedilla" unicode="&#x15e;" horiz-adv-x="587" d="M488 478 L488 667 L441 667 C440 665 440 665 440 660 C436 643 430 629 421 617 C377 659 326 679 266 679 C150 679 61 598 61 492 C61 445 80 399 111 367 C145 334 192 307 296 262 C388 223 427 185 427 136 C427 79 376 37 307 37 C245 37 189 68 152 124 C134 151 121 183 109 233 L59 233 L59 10 L109 10 C114 35 119 51 129 67 C165 26 216 0 281 -10 C274 -57 269 -83 260 -112 C301 -114 327 -131 327 -158 C327 -183 304 -199 266 -199 C240 -199 219 -196 187 -188 C183 -208 183 -210 178 -228 C208 -238 233 -242 265 -242 C359 -242 421 -203 421 -144 C421 -94 383 -61 319 -55 C323 -31 325 -22 326 -13 C453 -11 547 75 547 188 C547 239 527 287 492 322 C458 355 402 386 313 420 C212 459 171 496 171 547 C171 597 212 632 272 632 C352 632 417 573 442 478 L488 478 Z " />
<glyph glyph-name="scedilla" unicode="&#x15f;" horiz-adv-x="438" d="M240 -16 C336 -14 401 41 401 121 C401 159 384 195 355 218 C331 238 306 248 251 263 C158 287 129 304 129 333 C129 361 161 381 203 381 C264 381 316 345 334 290 L371 290 L371 414 L336 414 C328 399 322 391 316 386 C275 406 227 419 196 419 C110 419 43 363 43 291 C43 234 91 188 176 163 C267 137 269 136 292 118 C302 109 309 95 309 81 C309 48 273 25 223 25 C157 25 106 60 85 122 L44 122 L44 -12 L82 -12 C87 2 94 12 103 20 C108 19 108 18 115 15 C143 -1 173 -11 206 -14 C202 -49 198 -73 191 -100 C222 -102 240 -118 240 -142 C240 -165 223 -179 195 -179 C175 -179 160 -176 136 -169 C133 -187 133 -189 130 -205 C151 -214 170 -217 193 -217 C264 -217 311 -182 311 -129 C311 -84 283 -55 235 -49 C237 -33 238 -28 239 -19 L240 -16 Z " />
<glyph glyph-name="Scaron" unicode="&#x160;" horiz-adv-x="587" d="M59 10 L109 10 C114 35 119 51 129 67 C176 16 244 -13 320 -13 C450 -13 547 73 547 188 C547 239 527 288 492 322 C459 355 402 386 313 420 C212 459 171 496 171 547 C171 597 212 632 272 632 C352 632 417 573 442 478 L488 478 L488 667 L441 667 C440 665 440 665 440 660 C436 643 430 629 421 617 C377 659 326 679 266 679 C150 679 61 598 61 492 C61 445 80 399 111 367 C145 334 192 307 296 262 C388 223 427 185 427 136 C427 79 376 37 307 37 C245 37 189 68 152 124 C134 151 121 183 109 233 L59 233 L59 10 Z M368 729 L479 879 L447 879 L300 791 L136 879 L104 879 L212 729 L368 729 Z " />
<glyph glyph-name="scaron" unicode="&#x161;" horiz-adv-x="438" d="M44 -12 L82 -12 C87 2 94 12 103 20 C108 19 108 18 115 15 C150 -5 192 -16 235 -16 C334 -16 401 39 401 121 C401 159 384 195 355 218 C331 238 307 248 251 263 C158 287 129 304 129 333 C129 361 161 381 203 381 C264 381 316 345 334 290 L371 290 L371 414 L336 414 C328 399 322 391 316 386 C275 406 227 419 196 419 C110 419 43 363 43 291 C43 234 91 188 176 163 C267 137 269 136 292 118 C302 109 309 95 309 81 C309 48 273 25 223 25 C157 25 106 60 85 122 L44 122 L44 -12 Z M121 655 L88 655 L179 491 L283 491 L368 655 L333 655 L234 566 L121 655 Z " />
<glyph glyph-name="Tcommaaccent" unicode="&#x162;" horiz-adv-x="728" d="M63 487 C68 528 80 562 98 587 C113 610 142 619 212 620 L289 620 L289 149 C289 68 268 43 200 44 L176 44 L176 0 L550 0 L550 44 L526 44 C458 43 436 68 437 149 L437 620 L517 620 C580 619 608 610 624 588 C643 562 657 530 666 487 L712 487 L710 667 L17 667 L16 487 L63 487 Z M291 -327 C388 -318 451 -257 451 -171 C451 -104 415 -59 360 -59 C316 -59 285 -89 285 -130 C285 -166 312 -194 345 -194 C350 -194 356 -193 362 -192 C376 -188 376 -188 379 -188 C388 -188 396 -198 396 -210 C396 -247 352 -277 291 -284 L291 -327 Z " />
<glyph glyph-name="tcommaaccent" unicode="&#x163;" horiz-adv-x="354" d="M341 359 L341 403 L213 403 L213 534 L171 534 C159 457 98 402 27 402 C26 402 22 402 17 403 L17 359 L79 359 L79 127 C79 33 124 -16 211 -16 C279 -16 334 16 357 68 L318 82 C301 53 285 41 261 41 C243 41 231 48 223 61 C215 76 213 88 213 139 L213 359 L341 359 Z M129 -301 C215 -292 273 -234 273 -154 C273 -96 241 -59 191 -59 C151 -59 122 -84 122 -118 C122 -147 146 -171 177 -171 C181 -171 187 -170 192 -169 C205 -166 205 -166 208 -166 C216 -166 223 -175 223 -187 C223 -223 183 -256 129 -262 L129 -301 Z " />
<glyph glyph-name="Tcaron" unicode="&#x164;" horiz-adv-x="728" d="M63 487 C68 528 80 562 98 587 C113 610 142 619 212 620 L289 620 L289 149 C289 68 268 43 200 44 L176 44 L176 0 L550 0 L550 44 L526 44 C458 43 436 68 437 149 L437 620 L517 620 C580 619 608 610 624 588 C643 562 657 530 666 487 L712 487 L710 667 L17 667 L16 487 L63 487 Z M442 729 L552 879 L520 879 L374 791 L209 879 L177 879 L285 729 L442 729 Z " />
<glyph glyph-name="tcaron" unicode="&#x165;" horiz-adv-x="412" d="M341 359 L341 403 L213 403 L213 534 L171 534 C159 457 98 402 27 402 C26 402 22 402 17 403 L17 359 L79 359 L79 127 C79 33 124 -16 211 -16 C279 -16 334 16 357 68 L318 82 C301 53 285 41 261 41 C243 41 231 48 223 61 C215 76 213 88 213 139 L213 359 L341 359 Z M262 461 C348 470 406 529 406 608 C406 666 374 703 324 703 C284 703 255 678 255 644 C255 615 279 591 310 591 C314 591 320 592 325 593 C338 596 338 596 341 596 C349 596 356 587 356 575 C356 539 316 506 262 500 L262 461 Z " />
<glyph glyph-name="utilde" unicode="&#x169;" horiz-adv-x="600" d="M513 403 L315 403 L315 361 L321 361 C372 359 382 347 384 279 L384 145 C382 138 381 137 381 136 C364 86 320 51 273 51 C259 51 245 56 233 65 C219 76 213 96 213 134 L213 403 L15 403 L15 361 L19 361 C70 360 81 346 84 279 L84 130 C84 87 88 67 100 45 C122 8 171 -16 225 -16 C286 -16 341 11 384 63 L384 56 L384 55 L384 52 C384 44 384 39 385 34 L386 11 C387 -2 388 -5 388 -7 C388 -9 389 -12 390 -16 L395 -16 C427 -7 522 1 584 0 L584 42 L580 42 C529 43 516 59 513 125 L513 403 Z M189 503 C195 535 209 550 234 550 C250 550 266 544 300 526 C333 509 353 503 374 503 C432 503 473 556 469 629 L469 635 L438 635 C436 600 420 582 392 582 C379 582 367 586 345 598 C301 622 279 629 253 629 C224 629 192 611 179 588 C166 566 160 541 160 503 L189 503 Z " />
<glyph glyph-name="Umacron" unicode="&#x16a;" horiz-adv-x="814" d="M550 667 L550 623 L556 623 C626 620 654 588 653 511 L653 286 C653 193 648 164 628 135 C586 74 529 44 453 44 C383 44 325 73 297 121 C278 153 272 191 272 275 L272 521 C273 605 289 623 361 623 L374 623 L374 667 L19 667 L19 623 L30 623 C101 623 117 605 118 521 L118 285 L118 254 C117 186 125 150 148 110 C192 33 290 -13 411 -13 C494 -13 579 14 628 56 C676 97 703 171 703 260 L703 284 L703 501 L703 519 C701 585 724 613 788 623 L795 623 L795 667 L550 667 Z M242 810 L242 758 L596 758 L596 810 L242 810 Z " />
<glyph glyph-name="umacron" unicode="&#x16b;" horiz-adv-x="600" d="M513 403 L315 403 L315 361 L321 361 C372 359 382 347 384 279 L384 145 C382 138 381 137 381 136 C364 86 320 51 273 51 C259 51 245 56 233 65 C219 76 213 96 213 134 L213 403 L15 403 L15 361 L19 361 C70 360 81 346 84 279 L84 130 C84 87 88 67 100 45 C122 8 171 -16 225 -16 C286 -16 341 11 384 63 L384 56 L384 55 L384 52 C384 44 384 39 385 34 L386 11 C387 -2 388 -5 388 -7 C388 -9 389 -12 390 -16 L395 -16 C427 -7 522 1 584 0 L584 42 L580 42 C529 43 516 59 513 125 L513 403 Z M146 541 L466 541 L466 590 L146 590 L146 541 Z " />
<glyph glyph-name="ubreve" unicode="&#x16d;" horiz-adv-x="600" d="M513 403 L315 403 L315 361 L321 361 C372 359 382 347 384 279 L384 145 C382 138 381 137 381 136 C364 86 320 51 273 51 C259 51 245 56 233 65 C219 76 213 96 213 134 L213 403 L15 403 L15 361 L19 361 C70 360 81 346 84 279 L84 130 C84 87 88 67 100 45 C122 8 171 -16 225 -16 C286 -16 341 11 384 63 L384 56 L384 55 L384 52 C384 44 384 39 385 34 L386 11 C387 -2 388 -5 388 -7 C388 -9 389 -12 390 -16 L395 -16 C427 -7 522 1 584 0 L584 42 L580 42 C529 43 516 59 513 125 L513 403 Z M160 648 C161 560 225 489 302 489 C381 489 441 556 445 648 L418 648 C400 596 363 571 305 571 C244 571 203 598 188 648 L160 648 Z " />
<glyph glyph-name="Uring" unicode="&#x16e;" horiz-adv-x="814" d="M550 667 L550 623 L556 623 C626 620 654 588 653 511 L653 286 C653 193 648 164 628 135 C586 74 529 44 453 44 C383 44 325 73 297 121 C278 153 272 191 272 275 L272 521 C273 605 289 623 361 623 L374 623 L374 667 L19 667 L19 623 L30 623 C101 623 117 605 118 521 L118 285 L118 254 C117 186 125 150 148 110 C192 33 290 -13 411 -13 C494 -13 579 14 628 56 C676 97 703 171 703 260 L703 284 L703 501 L703 519 C701 585 724 613 788 623 L795 623 L795 667 L550 667 Z M436 911 C377 911 329 863 329 804 C329 746 377 697 434 697 C494 697 542 744 542 804 C542 863 494 911 436 911 L436 911 Z M435 872 C473 872 503 842 503 804 C503 767 472 736 435 736 C398 736 368 767 368 805 C368 841 399 872 435 872 L435 872 Z " />
<glyph glyph-name="uring" unicode="&#x16f;" horiz-adv-x="600" d="M513 403 L315 403 L315 361 L321 361 C372 359 382 347 384 279 L384 145 C382 138 381 137 381 136 C364 86 320 51 273 51 C259 51 245 56 233 65 C219 76 213 96 213 134 L213 403 L15 403 L15 361 L19 361 C70 360 81 346 84 279 L84 130 C84 87 88 67 100 45 C122 8 171 -16 225 -16 C286 -16 341 11 384 63 L384 56 L384 55 L384 52 C384 44 384 39 385 34 L386 11 C387 -2 388 -5 388 -7 C388 -9 389 -12 390 -16 L395 -16 C427 -7 522 1 584 0 L584 42 L580 42 C529 43 516 59 513 125 L513 403 Z M314 682 C255 682 207 634 207 575 C207 518 255 469 312 469 C373 469 421 516 421 576 C421 634 373 682 314 682 L314 682 Z M314 643 C351 643 382 613 382 576 C382 538 351 508 313 508 C276 508 246 538 246 576 C246 613 277 643 314 643 L314 643 Z " />
<glyph glyph-name="Uhungarumlaut" unicode="&#x170;" horiz-adv-x="814" d="M550 667 L550 623 L556 623 C626 620 654 588 653 511 L653 286 C653 193 648 164 628 135 C586 74 529 44 453 44 C383 44 325 73 297 121 C278 153 272 191 272 275 L272 521 C273 605 289 623 361 623 L374 623 L374 667 L19 667 L19 623 L30 623 C101 623 117 605 118 521 L118 285 L118 254 C117 186 125 150 148 110 C192 33 290 -13 411 -13 C494 -13 579 14 628 56 C676 97 703 171 703 260 L703 284 L703 501 L703 519 C701 585 724 613 788 623 L795 623 L795 667 L550 667 Z M281 729 L314 729 L536 869 L536 877 L381 877 L281 729 Z M495 729 L528 729 L750 869 L750 877 L595 877 L495 729 Z " />
<glyph glyph-name="uhungarumlaut" unicode="&#x171;" horiz-adv-x="600" d="M513 403 L315 403 L315 361 L321 361 C372 359 382 347 384 279 L384 145 C382 138 381 137 381 136 C364 86 320 51 273 51 C259 51 245 56 233 65 C219 76 213 96 213 134 L213 403 L15 403 L15 361 L19 361 C70 360 81 346 84 279 L84 130 C84 87 88 67 100 45 C122 8 171 -16 225 -16 C286 -16 341 11 384 63 L384 56 L384 55 L384 52 C384 44 384 39 385 34 L386 11 C387 -2 388 -5 388 -7 C388 -9 389 -12 390 -16 L395 -16 C427 -7 522 1 584 0 L584 42 L580 42 C529 43 516 59 513 125 L513 403 Z M177 488 L210 488 L384 642 L384 649 L257 649 L177 488 Z M360 488 L393 488 L567 642 L567 649 L440 649 L360 488 Z " />
<glyph glyph-name="Uogonek" unicode="&#x172;" horiz-adv-x="814" d="M641 -150 C616 -159 603 -162 584 -162 C541 -162 506 -132 506 -93 C506 -62 524 -30 558 2 C570 13 583 23 611 44 C674 89 705 160 703 260 L703 501 L703 519 C701 585 724 613 788 623 L795 623 L795 667 L550 667 L550 623 L556 623 C626 620 654 588 653 511 L653 286 C653 193 648 164 628 135 C586 74 529 44 453 44 C383 44 325 73 297 121 C278 153 272 191 272 275 L272 521 C273 605 289 623 361 623 L374 623 L374 667 L19 667 L19 623 L30 623 C101 623 117 605 118 521 L118 285 L118 254 C117 186 125 150 148 110 C192 34 289 -13 405 -13 C442 -13 473 -9 510 -1 C452 -26 413 -72 413 -117 C413 -169 466 -209 538 -209 C580 -209 612 -199 656 -171 L641 -150 Z " />
<glyph glyph-name="uogonek" unicode="&#x173;" horiz-adv-x="600" d="M584 42 L580 42 C529 43 516 59 513 125 L513 403 L315 403 L315 361 L321 361 C372 359 382 347 384 279 L384 145 C382 138 381 137 381 136 C364 86 320 51 273 51 C259 51 245 56 233 65 C219 76 213 96 213 134 L213 403 L15 403 L15 361 L19 361 C70 360 81 346 84 279 L84 130 C84 87 88 67 100 45 C122 8 171 -16 225 -16 C286 -16 341 11 384 63 L384 56 L384 55 L384 52 C384 44 384 39 385 34 L386 11 C387 -2 388 -5 388 -7 C388 -9 389 -12 390 -16 L395 -16 C413 -12 426 -9 451 -7 C409 -30 382 -70 382 -107 C382 -156 427 -192 488 -192 C522 -192 547 -183 585 -158 L573 -137 C556 -145 546 -148 533 -148 C494 -148 463 -120 463 -84 C463 -54 475 -28 501 -3 C534 0 555 0 584 0 L584 42 Z " />
<glyph glyph-name="Wcircumflex" unicode="&#x174;" horiz-adv-x="988" d="M743 -14 L888 472 C924 593 942 619 990 623 L994 623 L999 623 L999 667 L786 667 L786 623 L791 623 C828 623 856 601 856 570 C856 553 851 529 843 500 L755 201 L568 667 L506 667 L346 201 L239 529 C231 555 226 577 226 589 C226 610 246 622 283 623 L289 623 L289 667 L-11 667 L-11 623 L-5 623 L-2 623 C47 621 57 608 88 511 L258 -14 L322 -14 L489 468 L682 -14 L743 -14 Z M452 879 L344 729 L376 729 L522 817 L686 729 L718 729 L608 879 L452 879 Z " />
<glyph glyph-name="Ycircumflex" unicode="&#x176;" horiz-adv-x="695" d="M-13 667 L-13 623 L-7 623 C42 619 51 612 103 531 L107 526 L274 267 L274 149 C274 68 254 44 185 44 L173 44 L173 0 L522 0 L522 44 L512 44 C443 44 423 67 423 149 L423 277 L567 497 L577 512 C628 593 657 618 704 623 L709 623 L709 667 L472 667 L472 623 L477 623 C520 623 545 606 545 576 C545 560 537 540 521 515 L404 332 L275 541 C259 567 253 581 253 592 C253 613 272 623 310 623 L315 623 L315 667 L-13 667 Z M285 879 L177 729 L209 729 L355 817 L519 729 L551 729 L441 879 L285 879 Z " />
<glyph glyph-name="ycircumflex" unicode="&#x177;" horiz-adv-x="528" d="M-6 403 L-6 361 L2 360 C32 358 43 347 72 293 L248 -15 L227 -65 C207 -106 190 -117 126 -135 C81 -147 61 -166 61 -196 C61 -227 87 -250 123 -250 C145 -250 169 -241 184 -227 C208 -205 215 -195 249 -128 L257 -112 L431 251 L439 268 C469 334 489 358 518 360 L525 361 L525 403 L367 403 L367 361 L373 361 L376 361 L379 361 L380 361 C395 361 415 347 415 337 C415 331 410 318 402 299 L396 286 L317 118 L216 301 C208 315 204 328 204 338 C204 353 213 359 236 361 L243 361 L243 403 L-6 403 Z M387 489 L423 489 L336 652 L232 652 L143 489 L176 489 L280 578 L387 489 Z " />
<glyph glyph-name="Ydieresis" unicode="&#x178;" horiz-adv-x="695" d="M-13 667 L-13 623 L-7 623 C42 619 51 612 103 531 L107 526 L274 267 L274 149 C274 68 254 44 185 44 L173 44 L173 0 L522 0 L522 44 L512 44 C443 44 423 67 423 149 L423 277 L567 497 L577 512 C628 593 657 618 704 623 L709 623 L709 667 L472 667 L472 623 L477 623 C520 623 545 606 545 576 C545 560 537 540 521 515 L404 332 L275 541 C259 567 253 581 253 592 C253 613 272 623 310 623 L315 623 L315 667 L-13 667 Z M221 862 C183 862 153 832 153 794 C153 757 184 726 220 726 C258 726 289 756 289 794 C289 832 259 862 221 862 L221 862 Z M500 862 C463 862 432 831 432 795 C432 756 462 726 500 726 C537 726 568 757 568 794 C568 832 538 862 500 862 L500 862 Z " />
<glyph glyph-name="Zacute" unicode="&#x179;" horiz-adv-x="698" d="M35 0 L643 0 L659 190 L612 190 C567 69 533 46 403 47 L225 47 L638 630 L638 667 L72 667 L57 497 L102 497 C136 601 173 625 299 621 L448 621 L35 35 L35 0 Z M300 729 L333 729 L579 869 L579 877 L400 877 L300 729 Z " />
<glyph glyph-name="zacute" unicode="&#x17a;" horiz-adv-x="492" d="M30 0 L447 0 L461 134 L417 134 C383 58 365 44 304 43 L203 43 L453 366 L453 403 L53 403 L44 283 L88 283 C119 353 127 361 165 360 L282 360 L30 33 L30 0 Z M223 488 L257 488 L455 642 L455 649 L303 649 L223 488 Z " />
<glyph glyph-name="Zdotaccent" unicode="&#x17b;" horiz-adv-x="698" d="M35 0 L643 0 L659 190 L612 190 C567 69 533 46 403 47 L225 47 L638 630 L638 667 L72 667 L57 497 L102 497 C136 601 173 625 299 621 L448 621 L35 35 L35 0 Z M362 862 C324 862 294 832 294 794 C294 757 325 726 361 726 C399 726 430 756 430 794 C430 832 400 862 362 862 L362 862 Z " />
<glyph glyph-name="zdotaccent" unicode="&#x17c;" horiz-adv-x="492" d="M30 0 L447 0 L461 134 L417 134 C383 58 365 44 304 43 L203 43 L453 366 L453 403 L53 403 L44 283 L88 283 C119 353 127 361 165 360 L282 360 L30 33 L30 0 Z M267 633 C234 633 207 606 207 573 C207 540 234 513 266 513 C300 513 327 539 327 573 C327 606 300 633 267 633 L267 633 Z " />
<glyph glyph-name="Zcaron" unicode="&#x17d;" horiz-adv-x="698" d="M35 0 L643 0 L659 190 L612 190 C567 69 533 46 403 47 L225 47 L638 630 L638 667 L72 667 L57 497 L102 497 C136 601 173 625 299 621 L448 621 L35 35 L35 0 Z M446 729 L556 879 L525 879 L378 791 L214 879 L182 879 L289 729 L446 729 Z " />
<glyph glyph-name="zcaron" unicode="&#x17e;" horiz-adv-x="492" d="M30 0 L447 0 L461 134 L417 134 C383 58 365 44 304 43 L203 43 L453 366 L453 403 L53 403 L44 283 L88 283 C119 353 127 361 165 360 L282 360 L30 33 L30 0 Z M155 655 L122 655 L213 491 L317 491 L402 655 L367 655 L268 566 L155 655 Z " />
<glyph glyph-name="florin" unicode="&#x192;" horiz-adv-x="556" d="M387 444 C394 483 397 512 397 550 C396 599 404 635 417 648 C428 659 441 665 453 665 C463 665 470 660 470 654 C470 652 470 651 462 639 C461 636 460 634 460 632 L458 626 C454 611 454 611 454 609 C454 592 472 577 493 577 C521 577 542 598 542 627 C542 664 510 688 460 688 C390 688 346 647 309 548 C270 456 263 449 187 444 L181 444 L170 393 L250 393 L248 384 C235 322 222 267 205 190 C179 80 175 54 169 -40 C165 -121 165 -121 159 -136 C149 -165 127 -187 108 -187 C101 -187 93 -182 93 -177 C93 -176 94 -174 96 -172 C103 -163 106 -156 106 -149 C106 -129 87 -114 63 -114 C35 -114 13 -135 13 -161 C13 -193 45 -217 86 -217 C132 -217 176 -191 213 -143 C262 -78 301 30 337 206 C338 213 340 220 340 222 L342 230 L377 393 L460 393 L471 444 L387 444 Z " />
<glyph glyph-name="uni01CD" unicode="&#x1cd;" horiz-adv-x="690" d="M704 0 L704 44 L698 44 C647 50 633 65 592 157 L368 678 L321 678 L117 197 L105 170 C71 86 40 51 -7 44 L-14 44 L-14 0 L209 0 L209 44 L201 44 C162 44 135 63 135 91 C135 107 139 121 160 170 L173 202 L406 202 L434 136 C448 105 456 82 456 73 C456 53 434 44 388 44 L381 44 L381 0 L704 0 Z M388 247 L191 247 L288 475 L388 247 Z M423 729 L533 879 L501 879 L355 791 L191 879 L159 879 L266 729 L423 729 Z " />
<glyph glyph-name="uni01CE" unicode="&#x1ce;" horiz-adv-x="560" d="M519 84 C515 62 503 49 486 49 C464 49 456 65 456 108 L456 287 C456 335 451 351 431 373 C403 404 350 419 275 419 C151 419 55 374 55 316 C55 290 77 272 108 272 C143 272 162 288 169 323 C173 341 178 354 184 359 C196 368 221 375 245 375 C269 375 295 368 308 357 C319 348 325 328 325 298 L325 267 L283 251 C263 244 248 238 238 234 C160 206 101 176 67 145 C51 131 39 103 39 79 C39 27 87 -10 157 -10 C214 -10 273 10 331 49 C349 10 386 -10 439 -10 C509 -10 552 25 555 84 L519 84 Z M325 223 L325 93 C291 65 258 50 228 50 C194 50 167 75 167 107 C167 145 208 181 278 205 C301 213 316 218 321 221 L325 223 Z M180 655 L147 655 L238 491 L342 491 L427 655 L392 655 L293 566 L180 655 Z " />
<glyph glyph-name="uni01D3" unicode="&#x1d3;" horiz-adv-x="814" d="M550 667 L550 623 L556 623 C626 620 654 588 653 511 L653 286 C653 193 648 164 628 135 C586 74 529 44 453 44 C383 44 325 73 297 121 C278 153 272 191 272 275 L272 521 C273 605 289 623 361 623 L374 623 L374 667 L19 667 L19 623 L30 623 C101 623 117 605 118 521 L118 285 L118 254 C117 186 125 150 148 110 C192 33 290 -13 411 -13 C494 -13 579 14 628 56 C676 97 703 171 703 260 L703 284 L703 501 L703 519 C701 585 724 613 788 623 L795 623 L795 667 L550 667 Z M506 729 L616 879 L584 879 L438 791 L274 879 L242 879 L349 729 L506 729 Z " />
<glyph glyph-name="uni01D4" unicode="&#x1d4;" horiz-adv-x="600" d="M513 403 L315 403 L315 361 L321 361 C372 359 382 347 384 279 L384 145 C382 138 381 137 381 136 C364 86 320 51 273 51 C259 51 245 56 233 65 C219 76 213 96 213 134 L213 403 L15 403 L15 361 L19 361 C70 360 81 346 84 279 L84 130 C84 87 88 67 100 45 C122 8 171 -16 225 -16 C286 -16 341 11 384 63 L384 56 L384 55 L384 52 C384 44 384 39 385 34 L386 11 C387 -2 388 -5 388 -7 C388 -9 389 -12 390 -16 L395 -16 C427 -7 522 1 584 0 L584 42 L580 42 C529 43 516 59 513 125 L513 403 Z M205 655 L172 655 L263 491 L367 491 L452 655 L417 655 L318 566 L205 655 Z " />
<glyph glyph-name="Gcaron" unicode="&#x1e6;" horiz-adv-x="821" d="M481 300 L481 256 L492 256 C552 252 568 238 570 186 L570 161 L574 139 C574 132 566 109 558 96 C538 60 486 37 424 37 C345 37 284 68 252 124 C228 168 216 231 216 319 C216 415 229 483 256 533 C286 590 353 625 429 625 C542 625 622 557 653 436 L697 436 L693 667 L650 667 C647 640 641 618 630 595 C566 653 493 680 405 680 C310 680 225 648 162 590 C88 522 45 423 45 324 C45 132 197 -13 398 -13 C452 -13 490 -7 568 13 C620 27 667 34 703 34 C707 34 713 34 724 32 L724 149 C723 233 733 250 791 255 L800 256 L800 300 L481 300 Z M488 729 L598 879 L567 879 L420 791 L256 879 L224 879 L332 729 L488 729 Z " />
<glyph glyph-name="gcaron" unicode="&#x1e7;" horiz-adv-x="541" d="M265 56 L263 56 L251 56 L236 56 C165 56 138 64 138 84 C138 109 174 124 239 124 C375 125 458 182 458 275 C458 301 451 325 436 348 C446 360 455 365 466 365 C474 365 479 362 489 351 C500 339 508 335 519 335 C539 335 552 350 552 372 C552 400 532 418 500 418 C473 418 449 406 411 373 C372 404 323 419 258 419 C131 419 48 362 48 276 C48 213 92 160 160 139 C91 123 58 93 58 44 C58 -25 121 -53 275 -53 C397 -53 440 -69 440 -117 C440 -174 373 -208 259 -208 C166 -208 107 -178 107 -130 C107 -115 113 -101 127 -83 C110 -77 100 -75 89 -75 C58 -75 32 -103 32 -135 C32 -167 52 -198 85 -217 C122 -238 181 -249 257 -249 C421 -249 516 -188 516 -83 C516 -25 486 16 429 38 C399 49 343 56 283 56 L265 56 Z M253 376 C304 376 333 339 333 277 C333 205 307 169 255 169 C202 169 174 206 174 274 C174 340 202 376 253 376 L253 376 Z M154 655 L121 655 L211 491 L316 491 L401 655 L365 655 L266 566 L154 655 Z " />
<glyph glyph-name="Scommaaccent" unicode="&#x218;" horiz-adv-x="587" d="M59 10 L109 10 C114 35 119 51 129 67 C176 16 244 -13 320 -13 C450 -13 547 73 547 188 C547 239 527 288 492 322 C459 355 402 386 313 420 C212 459 171 496 171 547 C171 597 212 632 272 632 C352 632 417 573 442 478 L488 478 L488 667 L441 667 C440 665 440 665 440 660 C436 643 430 629 421 617 C377 659 326 679 266 679 C150 679 61 598 61 492 C61 445 80 399 111 367 C145 334 192 307 296 262 C388 223 427 185 427 136 C427 79 376 37 307 37 C245 37 189 68 152 124 C134 151 121 183 109 233 L59 233 L59 10 Z M226 -327 C323 -318 386 -257 386 -171 C386 -104 350 -59 295 -59 C251 -59 220 -89 220 -130 C220 -166 247 -194 280 -194 C285 -194 291 -193 297 -192 C312 -188 312 -188 314 -188 C324 -188 331 -198 331 -210 C331 -247 287 -277 226 -284 L226 -327 Z " />
<glyph glyph-name="scommaaccent" unicode="&#x219;" horiz-adv-x="438" d="M44 -12 L82 -12 C87 2 94 12 103 20 C108 19 108 18 115 15 C150 -5 192 -16 235 -16 C334 -16 401 39 401 121 C401 159 384 195 355 218 C331 238 307 248 251 263 C158 287 129 304 129 333 C129 361 161 381 203 381 C264 381 316 345 334 290 L371 290 L371 414 L336 414 C328 399 322 391 316 386 C275 406 227 419 196 419 C110 419 43 363 43 291 C43 234 91 188 176 163 C267 137 269 136 292 118 C302 109 309 95 309 81 C309 48 273 25 223 25 C157 25 106 60 85 122 L44 122 L44 -12 Z M155 -301 C241 -292 299 -234 299 -154 C299 -96 267 -59 217 -59 C177 -59 148 -84 148 -118 C148 -147 172 -171 203 -171 C207 -171 213 -170 218 -169 C231 -166 231 -166 234 -166 C242 -166 249 -175 249 -187 C249 -223 209 -256 155 -262 L155 -301 Z " />
<glyph glyph-name="uni021A" unicode="&#x21a;" horiz-adv-x="728" d="M63 487 C68 528 80 562 98 587 C113 610 142 619 212 620 L289 620 L289 149 C289 68 268 43 200 44 L176 44 L176 0 L550 0 L550 44 L526 44 C458 43 436 68 437 149 L437 620 L517 620 C580 619 608 610 624 588 C643 562 657 530 666 487 L712 487 L710 667 L17 667 L16 487 L63 487 Z M291 -327 C388 -318 451 -257 451 -171 C451 -104 415 -59 360 -59 C316 -59 285 -89 285 -130 C285 -166 312 -194 345 -194 C350 -194 356 -193 362 -192 C376 -188 376 -188 379 -188 C388 -188 396 -198 396 -210 C396 -247 352 -277 291 -284 L291 -327 Z " />
<glyph glyph-name="uni021B" unicode="&#x21b;" horiz-adv-x="354" d="M341 359 L341 403 L213 403 L213 534 L171 534 C159 457 98 402 27 402 C26 402 22 402 17 403 L17 359 L79 359 L79 127 C79 33 124 -16 211 -16 C279 -16 334 16 357 68 L318 82 C301 53 285 41 261 41 C243 41 231 48 223 61 C215 76 213 88 213 139 L213 359 L341 359 Z M129 -301 C215 -292 273 -234 273 -154 C273 -96 241 -59 191 -59 C151 -59 122 -84 122 -118 C122 -147 146 -171 177 -171 C181 -171 187 -170 192 -169 C205 -166 205 -166 208 -166 C216 -166 223 -175 223 -187 C223 -223 183 -256 129 -262 L129 -301 Z " />
<glyph glyph-name="afii57929" unicode="&#x2bc;" horiz-adv-x="320" d="M75 355 C183 363 254 437 254 541 C254 622 212 675 148 675 C101 675 67 643 67 599 C67 558 98 527 139 527 C146 527 153 528 160 530 C167 532 173 533 177 533 C187 533 196 521 196 506 C196 454 146 411 75 403 L75 355 Z " />
<glyph glyph-name="circumflex" unicode="&#x2c6;" horiz-adv-x="511" d="M361 489 L396 489 L310 652 L205 652 L116 489 L149 489 L253 578 L361 489 Z " />
<glyph glyph-name="caron" unicode="&#x2c7;" horiz-adv-x="511" d="M148 655 L115 655 L206 491 L310 491 L395 655 L360 655 L261 566 L148 655 Z " />
<glyph glyph-name="uni02C9" unicode="&#x2c9;" horiz-adv-x="387" d="M33 541 L353 541 L353 590 L33 590 L33 541 Z " />
<glyph glyph-name="breve" unicode="&#x2d8;" horiz-adv-x="511" d="M109 648 L109 645 C109 608 125 567 152 536 C179 504 211 489 252 489 C330 489 390 556 394 648 L367 648 C349 596 312 571 254 571 C193 571 153 598 137 648 L109 648 Z " />
<glyph glyph-name="dotaccent" unicode="&#x2d9;" horiz-adv-x="519" d="M260 633 C227 633 200 606 200 573 C200 540 227 513 259 513 C293 513 320 539 320 573 C320 606 293 633 260 633 L260 633 Z " />
<glyph glyph-name="ring" unicode="&#x2da;" horiz-adv-x="500" d="M248 682 C189 682 141 634 141 575 C141 518 189 469 246 469 C306 469 354 516 354 576 C354 634 306 682 248 682 L248 682 Z M247 643 C285 643 315 613 315 576 C315 538 284 508 247 508 C210 508 180 538 180 576 C180 613 211 643 247 643 L247 643 Z " />
<glyph glyph-name="ogonek" unicode="&#x2db;" horiz-adv-x="500" d="M339 8 C272 -20 238 -59 238 -107 C238 -156 283 -192 343 -192 C378 -192 404 -183 441 -158 L429 -137 C412 -145 402 -148 389 -148 C350 -148 319 -120 319 -84 C319 -50 333 -24 368 8 L339 8 Z " />
<glyph glyph-name="tilde" unicode="&#x2dc;" horiz-adv-x="510" d="M128 503 C134 535 148 550 172 550 C188 550 204 544 239 526 C272 509 291 503 312 503 C372 503 402 544 407 635 L377 635 C375 600 359 582 331 582 C318 582 306 586 284 598 C240 622 218 629 192 629 C163 629 131 611 118 588 C105 566 99 541 99 503 L128 503 Z " />
<glyph glyph-name="hungarumlaut" unicode="&#x2dd;" horiz-adv-x="515" d="M122 488 L156 488 L329 642 L329 649 L202 649 L122 488 Z M305 488 L339 488 L512 642 L512 649 L385 649 L305 488 Z " />
<glyph glyph-name="Wdieresis" unicode="&#x1e84;" horiz-adv-x="988" d="M743 -14 L888 472 C924 593 942 619 990 623 L994 623 L999 623 L999 667 L786 667 L786 623 L791 623 C828 623 856 601 856 570 C856 553 851 529 843 500 L755 201 L568 667 L506 667 L346 201 L239 529 C231 555 226 577 226 589 C226 610 246 622 283 623 L289 623 L289 667 L-11 667 L-11 623 L-5 623 L-2 623 C47 621 57 608 88 511 L258 -14 L322 -14 L489 468 L682 -14 L743 -14 Z M396 862 C358 862 328 832 328 794 C328 757 359 726 395 726 C433 726 464 756 464 794 C464 832 434 862 396 862 L396 862 Z M676 862 C639 862 608 831 608 795 C608 756 638 726 676 726 C713 726 744 757 744 794 C744 832 714 862 676 862 L676 862 Z " />
<glyph glyph-name="uni2011" unicode="&#x2011;" horiz-adv-x="352" d="M34 247 L34 182 L321 182 L321 247 L34 247 Z " />
<glyph glyph-name="figuredash" unicode="&#x2012;" horiz-adv-x="583" d="M21 243 L21 193 L562 193 L562 243 L21 243 Z " />
<glyph glyph-name="endash" unicode="&#x2013;" horiz-adv-x="583" d="M21 243 L21 193 L562 193 L562 243 L21 243 Z " />
<glyph glyph-name="emdash" unicode="&#x2014;" horiz-adv-x="920" d="M21 243 L21 193 L899 193 L899 243 L21 243 Z " />
<glyph glyph-name="afii00208" unicode="&#x2015;" horiz-adv-x="920" d="M21 243 L21 193 L899 193 L899 243 L21 243 Z " />
<glyph glyph-name="quoteleft" unicode="&#x2018;" horiz-adv-x="320" d="M248 675 C140 667 69 594 69 490 C69 408 111 355 175 355 C222 355 256 387 256 431 C256 472 225 503 184 503 C177 503 170 502 163 500 C156 498 150 497 146 497 C136 497 127 509 127 524 C127 576 177 619 248 627 L248 675 Z " />
<glyph glyph-name="quoteright" unicode="&#x2019;" horiz-adv-x="287" d="M59 355 C167 363 238 437 238 541 C238 622 196 675 132 675 C85 675 51 643 51 599 C51 558 82 527 123 527 C130 527 137 528 144 530 C151 532 157 533 161 533 C171 533 180 521 180 506 C180 454 130 411 59 403 L59 355 Z " />
<glyph glyph-name="quotesinglbase" unicode="&#x201a;" horiz-adv-x="323" d="M75 -186 C185 -179 257 -105 257 -3 C257 80 215 133 150 133 C102 133 67 101 67 56 C67 16 99 -15 140 -15 C147 -15 155 -14 162 -12 C170 -10 175 -9 179 -9 C190 -9 199 -21 199 -36 C199 -89 149 -130 75 -139 L75 -186 Z " />
<glyph glyph-name="quotedblleft" unicode="&#x201c;" horiz-adv-x="576" d="M245 675 C137 667 66 594 66 490 C66 408 108 355 172 355 C219 355 253 387 253 431 C253 472 222 503 181 503 C174 503 167 502 160 500 C153 498 147 497 143 497 C133 497 124 509 124 524 C124 576 174 619 245 627 L245 675 Z M512 675 C404 667 333 594 333 491 C333 409 375 355 438 355 C486 355 520 387 520 432 C520 472 489 503 448 503 C441 503 434 502 427 500 C420 498 414 497 410 497 C400 497 391 509 391 524 C391 577 441 619 512 627 L512 675 Z " />
<glyph glyph-name="quotedblright" unicode="&#x201d;" horiz-adv-x="576" d="M65 355 C173 363 244 437 244 541 C244 622 202 675 138 675 C91 675 57 643 57 599 C57 558 88 527 129 527 C136 527 143 528 150 530 C157 532 163 533 167 533 C177 533 186 521 186 506 C186 454 136 411 65 403 L65 355 Z M333 355 C441 363 512 437 512 541 C512 622 470 675 407 675 C360 675 326 643 326 599 C326 558 357 527 397 527 C404 527 411 528 418 530 C425 532 431 533 435 533 C445 533 454 521 454 506 C454 454 404 411 333 403 L333 355 Z " />
<glyph glyph-name="quotedblbase" unicode="&#x201e;" horiz-adv-x="579" d="M62 -186 C172 -178 244 -105 244 -3 C244 80 202 133 137 133 C89 133 54 101 54 56 C54 18 86 -15 124 -15 C131 -15 140 -14 149 -12 C154 -10 159 -10 159 -10 C163 -9 163 -9 169 -8 C177 -6 186 -21 186 -34 C186 -89 136 -131 62 -139 L62 -186 Z M330 -186 C440 -179 512 -105 512 -2 C512 80 470 133 405 133 C357 133 322 101 322 56 C322 18 354 -15 392 -15 C399 -15 408 -14 417 -12 C422 -10 427 -9 427 -10 C430 -9 431 -9 432 -9 C435 -8 437 -8 438 -8 C446 -8 454 -21 454 -34 C454 -89 404 -131 330 -139 L330 -186 Z " />
<glyph glyph-name="dagger" unicode="&#x2020;" horiz-adv-x="525" d="M288 -243 L288 -118 C288 -77 296 91 300 119 C310 225 310 226 310 254 C310 297 304 345 295 365 C292 373 291 375 291 388 C309 385 325 381 340 375 C396 353 411 349 438 349 C474 349 499 375 499 411 C499 448 474 473 438 473 C417 473 388 466 360 455 C322 440 312 437 288 433 C289 437 292 446 297 461 C302 478 305 485 306 490 C308 495 309 499 313 511 C327 553 333 579 333 600 C333 646 306 675 264 675 C222 675 196 646 196 599 C196 574 200 556 215 512 C219 501 220 497 223 490 L230 469 L231 463 L237 447 L238 441 L241 433 C218 435 207 438 164 456 C137 466 110 473 91 473 C58 473 33 447 33 411 C33 375 58 350 94 350 C116 350 149 358 182 371 C207 381 221 385 241 388 C241 375 241 374 236 363 C226 342 220 298 220 256 C220 240 221 225 222 209 C227 147 227 146 227 123 L227 104 C227 95 229 74 232 44 C238 -19 241 -97 241 -190 L241 -243 L288 -243 Z " />
<glyph glyph-name="daggerdbl" unicode="&#x2021;" horiz-adv-x="540" d="M300 255 C300 266 302 273 303 279 C310 305 314 330 314 349 C314 374 308 397 294 427 C318 421 338 415 349 411 C402 391 416 388 440 388 C476 388 501 414 501 450 C501 488 475 512 434 512 C415 512 393 507 360 494 C324 480 313 477 294 473 C297 489 303 510 313 534 C333 585 335 594 335 619 C335 653 309 677 271 677 C231 677 205 653 205 615 C205 595 211 574 224 541 C238 509 245 486 247 473 C232 475 216 480 197 487 C137 509 126 512 99 512 C64 512 38 485 38 450 C38 415 64 388 97 388 C116 388 142 394 169 403 C205 417 224 422 247 427 C233 392 227 370 227 348 C227 337 229 324 233 307 C240 279 241 276 242 255 L300 255 Z M242 178 C241 157 238 139 234 117 C229 95 227 80 227 73 C227 54 233 34 247 5 C233 7 214 12 190 21 C133 41 123 44 98 44 C64 44 38 17 38 -18 C38 -54 64 -79 102 -79 C122 -79 144 -73 192 -56 C215 -47 234 -42 247 -40 C245 -54 238 -76 223 -111 C210 -141 205 -162 205 -181 C205 -221 231 -245 272 -245 C310 -245 335 -221 335 -186 C335 -167 330 -144 322 -122 C303 -73 301 -66 295 -40 C309 -42 332 -50 366 -62 C393 -73 420 -79 438 -79 C474 -79 501 -52 501 -16 C501 19 475 45 440 45 C423 45 399 40 375 31 C344 19 334 16 295 5 C308 31 314 51 314 73 C314 83 312 97 308 114 C303 139 301 154 299 178 L242 178 Z " />
<glyph glyph-name="bullet" unicode="&#x2022;" horiz-adv-x="700" d="M351 480 C272 480 206 417 206 342 C206 263 270 200 351 200 C430 200 495 263 495 340 C495 418 431 480 351 480 L351 480 Z " />
<glyph glyph-name="ellipsis" unicode="&#x2026;" horiz-adv-x="1057" d="M176 136 C132 136 95 102 95 60 C95 17 130 -17 176 -17 C220 -17 256 17 256 60 C256 102 220 136 176 136 L176 136 Z M527 136 C481 136 445 102 445 59 C445 17 481 -17 526 -17 C571 -17 607 17 607 60 C607 101 571 136 527 136 L527 136 Z M878 136 C832 136 796 102 796 59 C796 17 832 -17 877 -17 C921 -17 957 17 957 60 C957 101 921 136 878 136 L878 136 Z " />
<glyph glyph-name="perthousand" unicode="&#x2030;" horiz-adv-x="1157" d="M192 679 C149 679 113 666 88 642 C54 609 33 558 33 505 C33 399 92 334 188 334 C232 334 270 347 295 371 C327 402 347 454 347 508 C347 555 331 602 304 633 C277 664 241 679 192 679 L192 679 Z M191 646 C232 646 251 604 251 513 C251 458 239 397 226 383 C217 373 205 368 190 368 C145 368 129 405 129 509 C129 607 147 646 191 646 L191 646 Z M246 0 L605 660 L545 660 L185 0 L246 0 Z M602 333 C559 333 523 320 498 296 C464 264 443 211 443 159 C443 53 502 -12 598 -12 C642 -12 680 1 705 25 C737 56 757 108 757 161 C757 209 741 256 714 287 C687 318 651 333 602 333 L602 333 Z M601 300 C642 300 661 258 661 167 C661 111 649 51 636 37 C627 27 615 22 601 22 C555 22 539 59 539 164 C539 261 557 300 601 300 L601 300 Z M968 333 C925 333 889 320 864 296 C830 264 809 211 809 159 C809 53 869 -12 964 -12 C1008 -12 1046 1 1071 25 C1103 56 1123 108 1123 162 C1123 209 1107 256 1080 287 C1053 318 1017 333 968 333 L968 333 Z M967 300 C1008 300 1027 258 1027 167 C1027 112 1015 52 1002 37 C993 27 981 22 966 22 C921 22 905 59 905 164 C905 261 923 300 967 300 L967 300 Z " />
<glyph glyph-name="guilsinglleft" unicode="&#x2039;" horiz-adv-x="308" d="M29 216 L230 8 L278 8 L183 216 L278 423 L229 423 L29 216 Z " />
<glyph glyph-name="guilsinglright" unicode="&#x203a;" horiz-adv-x="308" d="M276 216 L76 423 L27 423 L122 216 L27 8 L75 8 L276 216 Z " />
<glyph glyph-name="uni203E" unicode="&#x203e;" horiz-adv-x="500" d="M0 847 L0 807 L500 807 L500 847 L0 847 Z " />
<glyph glyph-name="fraction" unicode="&#x2044;" horiz-adv-x="171" d="M-64 0 L296 660 L236 660 L-124 0 L-64 0 Z " />
<glyph glyph-name="franc" unicode="&#x20a3;" horiz-adv-x="885" d="M600 667 L29 667 L29 624 L42 624 C114 625 131 605 133 521 L133 149 C133 68 113 44 43 44 L29 44 L29 0 L389 0 L389 44 L371 44 C304 42 281 70 281 149 L281 326 L341 326 C407 325 421 311 427 237 L427 230 L474 230 L474 461 L427 461 L427 454 C421 387 407 375 342 373 L281 373 L281 621 L406 621 C496 625 532 595 558 494 L605 494 L600 667 Z M509 288 L515 288 C564 287 575 274 578 211 L578 116 C576 53 566 40 516 39 L510 39 L510 0 L774 0 L774 39 L763 39 C713 40 702 54 699 116 L699 138 C699 195 704 220 721 249 C736 276 754 289 774 289 C787 289 796 284 808 269 C829 244 838 238 858 238 C888 238 911 261 911 292 C911 332 878 363 834 363 C777 363 725 328 694 268 C693 308 688 339 679 363 C578 340 540 332 509 327 L509 288 Z " />
<glyph glyph-name="Euro" unicode="&#x20ac;" horiz-adv-x="812" d="M277 381 C281 429 288 468 298 496 C329 581 394 628 484 628 C550 628 618 598 655 552 C684 516 703 473 718 412 L763 412 L756 661 L711 661 C705 634 698 614 687 593 C629 650 552 679 460 679 C278 679 136 558 111 381 L62 381 L41 335 L107 335 L107 332 L107 324 C107 317 107 313 108 307 L62 307 L41 261 L113 261 C142 97 281 -13 458 -13 C553 -13 635 18 693 76 C708 58 716 40 723 10 L769 10 L769 254 L723 254 C710 188 675 122 638 92 C595 59 541 40 488 40 C403 40 330 87 300 162 C289 188 283 219 279 261 L528 261 L549 307 L276 307 C275 313 275 318 275 335 L562 335 L582 381 L277 381 Z " />
<glyph glyph-name="trademark" unicode="&#x2122;" horiz-adv-x="983" d="M383 565 L383 667 L15 667 L15 565 L35 565 C39 624 59 642 118 643 L150 643 L150 348 C149 312 144 307 107 305 L88 305 L88 287 L311 287 L311 305 L292 305 C254 307 250 312 249 348 L249 643 L280 643 C340 642 360 624 363 565 L383 565 Z M399 667 L399 649 C447 648 453 644 453 620 L453 347 C453 318 440 308 401 305 L401 287 L536 287 L536 305 C496 308 482 319 483 347 L483 613 L631 287 L647 287 L798 603 L798 347 C798 313 791 307 756 305 L740 305 L740 287 L950 287 L950 305 L934 305 C901 307 895 313 895 347 L895 607 C895 641 901 647 934 649 L952 649 L952 667 L796 667 L677 420 L567 667 L399 667 Z " />
<glyph glyph-name="uni2126" unicode="&#x2126;" horiz-adv-x="768" d="M326 0 L308 155 C230 199 180 288 180 382 C180 434 195 493 221 540 C257 605 317 642 385 642 C453 642 513 605 549 540 C575 493 590 434 590 382 C590 288 540 199 462 155 L444 0 L736 0 L736 153 L712 153 C704 108 684 90 643 90 L497 90 L500 128 C535 141 557 151 580 166 C657 215 702 296 702 382 C702 449 673 522 625 578 C564 648 480 686 385 686 C290 686 206 648 145 578 C97 522 68 449 68 382 C68 296 113 215 190 166 C213 151 235 141 270 128 L273 90 L127 90 C86 90 66 108 58 153 L34 153 L34 0 L326 0 Z " />
<glyph glyph-name="partialdiff" unicode="&#x2202;" horiz-adv-x="494" d="M107 674 C152 697 184 706 219 706 C321 706 379 611 379 448 C379 418 377 395 372 346 C308 396 272 412 221 412 C172 412 131 394 95 355 C51 309 26 246 26 184 C26 76 109 -10 213 -10 C282 -10 341 22 383 84 C429 152 462 286 462 403 C462 519 428 611 360 681 C312 730 259 753 195 753 C156 753 122 746 66 725 L107 674 Z M366 312 C350 201 339 158 314 107 C288 54 245 21 201 21 C146 21 113 73 113 159 C113 273 180 367 261 367 C299 367 324 354 366 312 L366 312 Z " />
<glyph glyph-name="Delta" unicode="&#x2206;" horiz-adv-x="612" d="M6 0 L608 0 L327 688 L6 0 Z M77 51 L290 509 L479 51 L77 51 Z " />
<glyph glyph-name="product" unicode="&#x220f;" horiz-adv-x="823" d="M25 -124 L315 -124 L315 -98 L312 -98 C242 -94 221 -67 224 18 L224 594 C224 656 228 677 242 690 C260 707 272 708 413 708 C556 708 568 707 586 690 C600 677 604 656 604 594 L604 18 C607 -67 586 -94 516 -98 L513 -98 L513 -124 L803 -124 L803 -98 L800 -98 C730 -94 709 -67 712 18 L712 609 C709 694 730 721 800 725 L803 725 L803 751 L25 751 L25 725 L28 725 C98 721 119 694 116 609 L116 18 C119 -67 98 -94 28 -98 L25 -98 L25 -124 Z " />
<glyph glyph-name="summation" unicode="&#x2211;" horiz-adv-x="713" d="M176 711 L444 711 C560 710 590 688 606 587 L632 587 L622 752 L23 752 L256 285 L14 -123 L641 -123 L695 87 L669 87 C639 7 605 -12 491 -11 L163 -11 L364 341 L176 711 Z " />
<glyph glyph-name="minus" unicode="&#x2212;" horiz-adv-x="525" d="M10 396 L10 323 L516 323 L516 396 L10 396 Z " />
<glyph glyph-name="uni2215" unicode="&#x2215;" horiz-adv-x="171" d="M-64 0 L296 660 L236 660 L-124 0 L-64 0 Z " />
<glyph glyph-name="uni2219" unicode="&#x2219;" horiz-adv-x="301" d="M146 410 C101 410 65 375 65 333 C65 291 101 256 144 256 C190 256 226 290 226 332 C226 376 190 410 146 410 L146 410 Z " />
<glyph glyph-name="radical" unicode="&#x221a;" horiz-adv-x="549" d="M363 -35 L515 908 L480 913 L353 123 L156 520 L10 449 L26 414 L121 461 L363 -35 Z " />
<glyph glyph-name="infinity" unicode="&#x221e;" horiz-adv-x="713" d="M357 303 C300 375 234 414 171 414 C86 414 26 351 26 263 C26 176 84 115 167 115 C224 115 282 143 327 192 C335 201 340 207 357 228 C415 156 485 115 548 115 C631 115 688 176 688 266 C688 354 629 414 543 414 C476 414 412 376 357 303 L357 303 Z M391 265 C434 325 493 362 546 362 C600 362 638 321 638 264 C638 205 603 167 549 167 C495 167 461 188 391 265 L391 265 Z M324 266 C275 203 216 167 163 167 C111 167 76 207 76 266 C76 323 113 362 167 362 C218 362 259 337 324 266 L324 266 Z " />
<glyph glyph-name="integral" unicode="&#x222b;" horiz-adv-x="274" d="M180 576 C180 653 179 691 176 746 C174 774 173 800 173 815 C173 855 184 878 202 878 C208 878 213 876 215 872 C232 845 239 839 256 839 C276 839 291 853 291 871 C291 898 267 916 231 916 C186 916 152 887 138 838 C123 784 113 682 113 577 L113 232 C113 160 114 124 117 63 C119 34 120 4 120 -12 C120 -47 108 -70 89 -70 C81 -70 74 -65 68 -52 C59 -35 51 -30 37 -30 C17 -30 2 -44 2 -63 C2 -89 26 -107 62 -107 C107 -107 141 -78 155 -29 C170 25 180 126 180 232 L180 576 Z " />
<glyph glyph-name="approxequal" unicode="&#x2248;" horiz-adv-x="549" d="M489 251 C444 199 423 187 384 187 C365 187 354 190 285 211 C212 234 188 239 160 239 C101 239 54 211 14 155 L57 121 C103 174 120 184 159 184 C180 184 180 184 271 157 C350 133 354 132 385 132 C449 132 496 160 527 217 L489 251 Z M489 408 C443 356 424 344 384 344 C365 344 354 347 285 369 C212 392 188 397 160 397 C101 397 54 369 14 312 L57 279 C104 332 119 342 159 342 C181 342 181 342 271 315 C351 290 354 289 385 289 C449 289 496 318 527 375 L489 408 Z " />
<glyph glyph-name="notequal" unicode="&#x2260;" horiz-adv-x="549" d="M187 142 L115 -1 L161 -25 L246 142 L540 142 L540 197 L273 197 L344 336 L540 336 L540 391 L371 391 L439 525 L392 549 L312 391 L15 391 L15 336 L285 336 L215 197 L15 197 L15 142 L187 142 Z " />
<glyph glyph-name="lessequal" unicode="&#x2264;" horiz-adv-x="549" d="M526 55 L29 55 L29 0 L526 0 L526 55 Z M526 639 L29 405 L29 350 L526 117 L526 179 L108 378 L526 577 L526 639 Z " />
<glyph glyph-name="greaterequal" unicode="&#x2265;" horiz-adv-x="549" d="M526 55 L29 55 L29 0 L526 0 L526 55 Z M29 639 L29 577 L447 378 L29 179 L29 117 L526 350 L526 405 L29 639 Z " />
<glyph glyph-name="lozenge" unicode="&#x25ca;" horiz-adv-x="494" d="M209 0 L269 -1 L466 374 L277 740 L214 740 L18 377 L209 0 Z M240 58 L81 376 L245 683 L402 373 L240 58 Z " />
<glyph glyph-name="fi" unicode="&#xfb01;" horiz-adv-x="642" d="M14 360 L95 360 L95 124 C93 57 82 43 29 42 L18 42 L18 0 L299 0 L299 42 L294 42 C243 43 232 57 229 124 L229 360 L343 360 C410 359 420 350 423 288 L423 124 C420 55 411 43 359 42 L352 42 L352 0 L631 0 L631 42 L620 42 C567 43 555 58 552 124 L552 416 L544 416 C510 408 447 403 367 403 L229 403 L229 467 C229 538 233 570 245 591 C261 618 293 634 332 634 C370 634 390 620 409 583 C428 543 445 530 474 530 C509 530 538 557 538 588 C538 611 521 633 492 650 C459 669 413 678 349 678 C266 678 207 660 161 620 C114 580 95 527 95 438 L95 403 L14 403 L14 360 Z " />
<glyph glyph-name="fl" unicode="&#xfb02;" horiz-adv-x="642" d="M97 403 L15 403 L15 360 L97 360 L97 124 C95 57 84 43 30 42 L19 42 L19 0 L300 0 L300 42 L296 42 C244 43 234 57 231 124 L231 360 L422 360 L422 124 C420 56 410 43 358 42 L352 42 L352 0 L631 0 L631 42 L620 42 C567 43 555 58 552 124 L552 678 L546 678 L540 677 L541 677 C493 667 485 666 460 664 C430 673 393 678 353 678 C278 678 214 660 172 629 C120 589 97 527 97 429 L97 403 Z M231 403 L231 474 C231 533 236 568 248 589 C264 616 296 633 332 633 C373 633 394 621 415 585 C417 580 420 577 422 575 L422 403 L231 403 Z " />
</font>
</svg>
