<?xml version="1.0" encoding="UTF-8"?>
<svg xmlns="http://www.w3.org/2000/svg" xmlns:xlink="http://www.w3.org/1999/xlink" version="1.2" >
<font id="Futura DC D Book">
<font-face  font-family="Futura DC D" units-per-em="1000" ascent="533" descent="-467" font-style="normal" font-weight="400" font-stretch="normal" cap-height="533" x-height="533" underline-position="-72" underline-thickness="50" />
<missing-glyph  horiz-adv-x="300" d="" />
<glyph glyph-name="NULL" d="" />
<glyph glyph-name="CR" unicode="&#xd;" horiz-adv-x="250" d="" />
<glyph glyph-name="space" unicode="&#x20;" horiz-adv-x="300" d="" />
<glyph glyph-name="exclam" unicode="&#x21;" horiz-adv-x="285" d="M143 116 C110 116 83 89 83 57 C83 24 109 -3 142 -3 C176 -3 202 24 202 57 C202 90 176 116 143 116 L143 116 Z M98 187 L185 187 L185 667 L98 667 L98 187 Z " />
<glyph glyph-name="quotedbl" unicode="&#x22;" horiz-adv-x="350" d="M130 399 L144 667 L63 667 L76 399 L130 399 Z M273 399 L286 667 L206 667 L219 399 L273 399 Z " />
<glyph glyph-name="numbersign" unicode="&#x23;" horiz-adv-x="507" d="M473 412 L391 412 L411 570 L350 578 L330 412 L209 412 L228 570 L168 578 L148 412 L56 412 L56 354 L140 354 L126 233 L33 233 L33 175 L118 175 L97 5 L157 -2 L180 175 L301 175 L280 5 L340 -2 L362 175 L451 175 L451 233 L370 233 L385 354 L473 354 L473 412 Z M322 354 L308 233 L187 233 L202 354 L322 354 Z " />
<glyph glyph-name="dollar" unicode="&#x24;" horiz-adv-x="460" d="M273 655 L210 655 L210 578 C131 565 78 506 78 431 C78 363 116 320 210 280 L210 66 C160 76 132 109 121 168 L49 148 C62 63 128 0 210 -6 L210 -85 L273 -85 L273 -2 C356 18 411 87 411 170 C411 245 374 289 273 333 L273 504 C298 495 311 482 333 446 L393 485 C367 536 324 568 273 578 L273 655 Z M273 252 C316 229 335 203 335 168 C335 125 314 94 273 73 L273 252 Z M210 361 C171 382 154 402 154 430 C154 464 176 494 210 505 L210 361 Z " />
<glyph glyph-name="percent" unicode="&#x25;" horiz-adv-x="771" d="M182 580 C95 580 27 503 27 406 C27 304 93 228 182 228 C269 228 336 305 336 405 C336 504 270 580 182 580 L182 580 Z M181 526 C235 526 277 473 277 404 C277 335 235 281 182 281 C127 281 86 334 86 404 C86 473 128 526 181 526 L181 526 Z M530 598 L195 0 L240 -27 L575 573 L530 598 Z M589 346 C502 346 434 269 434 172 C434 70 500 -6 589 -6 C676 -6 743 71 743 171 C743 270 677 346 589 346 L589 346 Z M588 292 C642 292 684 239 684 170 C684 101 642 47 589 47 C534 47 493 100 493 170 C493 239 535 292 588 292 L588 292 Z " />
<glyph glyph-name="ampersand" unicode="&#x26;" horiz-adv-x="598" d="M319 370 C354 397 365 406 378 419 C412 453 429 489 429 529 C429 606 367 664 286 664 C202 664 140 603 140 522 C140 482 154 450 201 386 C161 360 144 348 127 335 C67 287 39 235 39 172 C39 70 124 -12 231 -12 C298 -12 356 16 436 86 L503 0 L608 0 L495 145 C531 183 553 209 577 242 L516 293 C495 265 466 232 444 209 L319 370 Z M385 150 C324 94 273 66 230 66 C172 66 122 117 122 176 C122 218 150 256 208 295 C233 312 238 315 251 324 L385 150 Z M270 432 C266 438 263 442 262 444 C226 492 221 502 221 526 C221 562 249 590 285 590 C321 590 348 565 348 530 C348 506 338 486 315 467 C305 458 303 457 270 432 L270 432 Z " />
<glyph glyph-name="quotesingle" unicode="&#x27;" horiz-adv-x="207" d="M130 399 L144 667 L63 667 L76 399 L130 399 Z " />
<glyph glyph-name="parenleft" unicode="&#x28;" horiz-adv-x="287" d="M159 769 C97 648 59 455 59 267 C59 78 97 -115 159 -235 L235 -200 C174 -57 145 93 145 267 C145 440 174 590 235 733 L159 769 Z " />
<glyph glyph-name="parenright" unicode="&#x29;" horiz-adv-x="287" d="M51 733 C112 590 141 440 141 267 C141 93 112 -57 51 -200 L127 -235 C189 -115 227 78 227 267 C227 455 189 648 127 769 L51 733 Z " />
<glyph glyph-name="asterisk" unicode="&#x2a;" horiz-adv-x="451" d="M192 518 L52 570 L27 494 L171 453 L78 336 L143 289 L226 414 L309 289 L373 336 L281 453 L424 494 L400 570 L260 518 L266 667 L186 667 L192 518 Z " />
<glyph glyph-name="plus" unicode="&#x2b;" horiz-adv-x="520" d="M25 256 L230 256 L230 55 L291 55 L291 256 L496 256 L496 317 L291 317 L291 519 L230 519 L230 317 L25 317 L25 256 Z " />
<glyph glyph-name="comma" unicode="&#x2c;" horiz-adv-x="240" d="M104 126 L5 -151 L62 -174 L183 97 L104 126 Z " />
<glyph glyph-name="hyphen" unicode="&#x2d;" horiz-adv-x="218" d="M0 295 L0 218 L218 218 L218 295 L0 295 Z " />
<glyph glyph-name="period" unicode="&#x2e;" horiz-adv-x="240" d="M120 116 C88 116 61 89 61 57 C61 24 87 -3 121 -3 C154 -3 180 24 180 57 C180 90 153 116 120 116 L120 116 Z " />
<glyph glyph-name="slash" unicode="&#x2f;" horiz-adv-x="467" d="M404 699 L-7 -134 L62 -166 L473 667 L404 699 Z " />
<glyph glyph-name="zero" unicode="0" horiz-adv-x="474" d="M238 582 C121 582 30 454 30 289 C30 119 119 -9 237 -9 C355 -9 444 119 444 288 C444 455 355 582 238 582 L238 582 Z M236 512 C311 512 369 414 369 287 C369 162 310 62 237 62 C160 62 104 158 104 288 C104 414 162 512 236 512 L236 512 Z " />
<glyph glyph-name="one" unicode="1" horiz-adv-x="277" d="M123 501 L123 0 L199 0 L199 573 L66 573 L26 501 L123 501 Z " />
<glyph glyph-name="two" unicode="2" horiz-adv-x="439" d="M174 72 L279 191 C380 306 402 345 402 409 C402 505 322 581 221 581 C144 581 76 536 52 468 C45 449 43 434 39 396 L115 396 C118 426 119 429 122 440 C135 483 174 511 221 511 C281 511 327 467 327 410 C327 370 305 332 231 247 L18 0 L401 0 L401 72 L174 72 Z " />
<glyph glyph-name="three" unicode="3" horiz-adv-x="438" d="M190 266 C219 265 222 265 233 263 C280 254 309 218 309 167 C309 108 264 62 206 62 C168 62 130 84 115 114 C109 125 109 128 104 158 L31 158 C32 59 102 -9 204 -9 C308 -9 384 65 384 165 C384 224 358 273 312 301 C355 332 376 372 376 425 C376 516 307 582 211 582 C141 582 87 549 64 490 C56 472 54 464 48 422 L123 422 C127 447 128 452 131 461 C143 493 172 511 212 511 C264 511 301 474 301 423 C301 384 279 351 244 340 C230 336 223 335 190 334 L190 266 Z " />
<glyph glyph-name="four" unicode="4" horiz-adv-x="458" d="M365 162 L365 619 L-3 92 L290 92 L290 0 L365 0 L365 92 L434 92 L434 162 L365 162 Z M290 162 L132 162 L290 387 L290 162 Z " />
<glyph glyph-name="five" unicode="5" horiz-adv-x="419" d="M378 501 L378 573 L144 573 L56 283 L71 292 C115 320 141 329 176 329 C250 329 307 272 307 197 C307 121 249 62 174 62 C120 62 86 84 50 142 L-10 99 C30 28 92 -9 170 -9 C291 -9 382 79 382 197 C382 313 299 398 186 398 C179 398 175 398 165 397 L197 501 L378 501 Z " />
<glyph glyph-name="six" unicode="6" horiz-adv-x="463" d="M273 590 L78 320 C47 277 31 231 31 187 C31 79 121 -9 231 -9 C341 -9 430 80 430 189 C430 296 347 381 243 381 C231 381 224 380 209 377 L331 547 L273 590 Z M231 312 C300 312 355 256 355 186 C355 118 298 62 231 62 C162 62 106 118 106 187 C106 256 162 312 231 312 L231 312 Z " />
<glyph glyph-name="seven" unicode="7" horiz-adv-x="466" d="M346 501 L32 24 L92 -16 L477 573 L46 573 L46 501 L346 501 Z " />
<glyph glyph-name="eight" unicode="8" horiz-adv-x="439" d="M119 298 C67 266 43 223 43 161 C43 64 119 -9 221 -9 C321 -9 396 64 396 163 C396 222 371 268 321 299 C362 330 384 373 384 421 C384 513 314 582 221 582 C129 582 58 512 58 421 C58 371 79 329 119 298 L119 298 Z M221 512 C271 512 311 472 311 421 C311 371 271 330 221 330 C171 330 131 371 131 422 C131 471 172 512 221 512 L221 512 Z M219 263 C276 263 321 218 321 163 C321 107 276 62 220 62 C163 62 118 107 118 164 C118 218 164 263 219 263 L219 263 Z " />
<glyph glyph-name="nine" unicode="9" horiz-adv-x="463" d="M190 -16 L385 254 C417 298 433 342 433 387 C433 494 342 582 232 582 C122 582 33 493 33 384 C33 278 116 193 220 193 C232 193 240 194 255 197 L133 27 L190 -16 Z M233 512 C302 512 358 456 358 387 C358 318 302 262 233 262 C163 262 108 318 108 388 C108 456 165 512 233 512 L233 512 Z " />
<glyph glyph-name="colon" unicode="&#x3a;" horiz-adv-x="240" d="M120 116 C88 116 61 89 61 57 C61 24 87 -3 121 -3 C154 -3 180 24 180 57 C180 90 153 116 120 116 L120 116 Z M120 510 C88 510 61 483 61 452 C61 419 87 392 120 392 C153 392 179 418 179 451 C179 484 153 510 120 510 L120 510 Z " />
<glyph glyph-name="semicolon" unicode="&#x3b;" horiz-adv-x="240" d="M102 126 L3 -151 L60 -174 L181 97 L102 126 Z M126 510 C94 510 67 483 67 452 C67 419 93 392 126 392 C159 392 185 418 185 451 C185 484 159 510 126 510 L126 510 Z " />
<glyph glyph-name="less" unicode="&#x3c;" horiz-adv-x="500" d="M466 524 L33 320 L33 255 L466 50 L466 126 L114 287 L466 448 L466 524 Z " />
<glyph glyph-name="equal" unicode="&#x3d;" horiz-adv-x="520" d="M25 320 L496 320 L496 378 L25 378 L25 320 Z M25 195 L496 195 L496 253 L25 253 L25 195 Z " />
<glyph glyph-name="greater" unicode="&#x3e;" horiz-adv-x="500" d="M34 524 L34 448 L386 287 L34 126 L34 50 L467 255 L467 320 L34 524 Z " />
<glyph glyph-name="question" unicode="&#x3f;" horiz-adv-x="436" d="M219 116 C186 116 159 89 159 57 C159 24 185 -3 218 -3 C252 -3 278 24 278 57 C278 90 252 116 219 116 L219 116 Z M279 315 C274 272 253 249 217 249 C185 249 162 274 162 309 C162 345 179 359 252 383 C341 413 375 453 375 527 C375 616 309 681 218 681 C130 681 61 615 61 533 C61 521 62 513 65 498 L152 498 C148 510 147 516 147 527 C147 573 176 605 219 605 C261 605 288 576 288 530 C288 507 281 487 268 476 C256 466 249 463 199 447 C114 419 75 378 75 315 C75 241 137 183 216 183 C297 183 351 233 359 315 L279 315 Z " />
<glyph glyph-name="at" unicode="&#x40;" horiz-adv-x="732" d="M553 508 L484 508 L479 460 C447 499 412 516 361 516 C254 516 174 432 174 320 C174 216 245 139 342 139 C392 139 424 155 465 199 C478 160 501 141 537 141 C624 141 698 252 698 381 C698 551 562 679 381 679 C184 679 33 529 33 334 C33 209 97 95 200 35 C254 4 320 -12 395 -12 C483 -12 549 4 634 46 L613 108 C523 65 476 53 394 53 C333 53 279 66 237 90 C152 139 101 231 101 334 C101 493 223 616 380 616 C530 616 635 516 635 375 C635 289 592 207 546 207 C531 207 523 216 523 236 C523 250 524 265 526 281 L553 508 Z M367 451 C424 451 465 408 465 346 C465 270 409 204 346 204 C290 204 250 252 250 318 C250 394 300 451 367 451 L367 451 Z " />
<glyph glyph-name="A" unicode="A" horiz-adv-x="729" d="M536 92 L630 -134 L729 -134 L369 704 L0 -134 L97 -134 L194 92 L536 92 Z M501 175 L230 175 L367 496 L501 175 Z " />
<glyph glyph-name="B" unicode="B" horiz-adv-x="586" d="M73 -134 L273 -134 C364 -134 417 -119 465 -80 C517 -37 546 24 546 91 C546 192 490 267 395 294 C450 334 474 381 474 450 C474 516 446 579 400 617 C357 652 302 667 218 667 L73 667 L73 -134 Z M163 314 L163 584 L232 584 C287 584 319 575 344 554 C371 531 387 492 387 449 C387 406 372 369 344 345 C318 322 290 314 230 314 L163 314 Z M163 -51 L163 238 L253 238 C318 238 358 231 390 213 C430 191 457 143 457 94 C457 51 438 10 405 -16 C372 -43 339 -51 265 -51 L163 -51 Z " />
<glyph glyph-name="C" unicode="C" horiz-adv-x="729" d="M693 601 C612 658 545 681 456 681 C226 681 37 493 37 264 C37 39 225 -148 452 -148 C539 -148 614 -124 693 -70 L693 41 C661 11 645 -1 622 -15 C570 -46 508 -64 452 -64 C377 -64 299 -34 238 19 C167 81 128 167 128 263 C128 446 274 597 451 597 C500 597 551 584 598 561 C633 544 653 529 693 491 L693 601 Z " />
<glyph glyph-name="D" unicode="D" horiz-adv-x="707" d="M73 -134 L236 -134 C366 -134 449 -108 529 -42 C622 34 670 141 670 267 C670 391 621 500 532 574 C454 639 367 667 237 667 L73 667 L73 -134 Z M163 -51 L163 584 L241 584 C340 584 412 561 471 511 C540 453 580 364 580 266 C580 169 541 81 471 23 C410 -29 340 -51 241 -51 L163 -51 Z " />
<glyph glyph-name="E" unicode="E" horiz-adv-x="539" d="M488 584 L488 667 L73 667 L73 -134 L488 -134 L488 -51 L163 -51 L163 263 L479 263 L479 346 L163 346 L163 584 L488 584 Z " />
<glyph glyph-name="F" unicode="F" horiz-adv-x="479" d="M437 584 L437 667 L73 667 L73 -134 L163 -134 L163 263 L429 263 L429 346 L163 346 L163 584 L437 584 Z " />
<glyph glyph-name="G" unicode="G" horiz-adv-x="864" d="M493 268 L493 185 L730 185 C727 136 718 105 699 72 C650 -9 548 -64 448 -64 C371 -64 291 -31 229 26 C162 88 126 172 126 264 C126 448 273 597 455 597 C526 597 595 573 651 528 C677 507 695 487 727 446 L792 506 C753 553 731 576 700 599 C631 652 544 681 455 681 C223 681 36 495 36 265 C36 38 222 -148 447 -148 C588 -148 720 -73 785 45 C815 100 827 158 827 247 L827 268 L493 268 Z " />
<glyph glyph-name="H" unicode="H" horiz-adv-x="735" d="M163 341 L163 667 L73 667 L73 -134 L163 -134 L163 258 L572 258 L572 -134 L662 -134 L662 667 L572 667 L572 341 L163 341 Z " />
<glyph glyph-name="I" unicode="I" horiz-adv-x="236" d="M163 667 L73 667 L73 -134 L163 -134 L163 667 Z " />
<glyph glyph-name="J" unicode="J" horiz-adv-x="342" d="M269 667 L179 667 L179 20 C179 -32 172 -73 161 -92 C146 -118 121 -133 91 -133 C57 -133 36 -123 -3 -88 L-52 -157 C-1 -199 42 -217 92 -217 C138 -217 181 -200 213 -168 C254 -128 269 -79 269 20 L269 667 Z " />
<glyph glyph-name="K" unicode="K" horiz-adv-x="630" d="M163 323 L163 667 L73 667 L73 -134 L163 -134 L163 211 L186 233 L514 -134 L636 -134 L249 294 L624 667 L504 667 L163 323 Z " />
<glyph glyph-name="L" unicode="L" horiz-adv-x="410" d="M163 667 L73 667 L73 -134 L383 -134 L383 -51 L163 -51 L163 667 Z " />
<glyph glyph-name="M" unicode="M" horiz-adv-x="985" d="M53 -134 L144 -134 L223 423 L492 -167 L765 423 L840 -134 L931 -134 L808 712 L493 35 L186 712 L53 -134 Z " />
<glyph glyph-name="N" unicode="N" horiz-adv-x="860" d="M73 -134 L163 -134 L163 483 L787 -170 L787 667 L697 667 L697 47 L73 700 L73 -134 Z " />
<glyph glyph-name="O" unicode="O" horiz-adv-x="907" d="M455 681 C229 681 37 493 37 271 C37 163 72 68 141 -8 C220 -95 336 -148 450 -148 C683 -148 871 37 871 266 C871 494 683 681 455 681 L455 681 Z M454 597 C636 597 781 450 781 266 C781 83 634 -64 451 -64 C372 -64 290 -30 229 27 C161 91 127 173 127 271 C127 450 275 597 454 597 L454 597 Z " />
<glyph glyph-name="P" unicode="P" horiz-adv-x="521" d="M163 217 L241 217 C322 217 386 238 429 279 C470 318 495 379 495 442 C495 509 468 571 421 611 C374 651 317 667 219 667 L73 667 L73 -134 L163 -134 L163 217 Z M163 299 L163 584 L229 584 C293 584 332 574 363 548 C391 525 407 486 407 443 C407 351 345 299 235 299 L163 299 Z " />
<glyph glyph-name="Q" unicode="Q" horiz-adv-x="918" d="M878 -142 L758 -20 C841 73 874 153 874 261 C874 493 687 681 457 681 C227 681 40 494 40 264 C40 37 226 -148 455 -148 C544 -148 625 -122 697 -70 L764 -142 L878 -142 Z M558 188 L441 188 L634 -7 C581 -45 520 -64 453 -64 C373 -64 292 -31 230 27 C165 88 130 170 130 264 C130 451 273 597 456 597 C639 597 783 450 783 264 C783 176 758 114 696 44 L558 188 Z " />
<glyph glyph-name="R" unicode="R" horiz-adv-x="560" d="M282 224 C403 234 483 321 483 442 C483 518 450 586 395 623 C348 655 294 667 203 667 L73 667 L73 -134 L163 -134 L163 217 L186 217 L428 -134 L537 -134 L282 224 Z M163 296 L163 584 L216 584 C271 584 308 576 337 558 C373 535 395 491 395 443 C395 396 375 353 343 329 C314 306 275 296 219 296 L163 296 Z " />
<glyph glyph-name="S" unicode="S" horiz-adv-x="555" d="M495 555 C447 639 378 681 288 681 C160 681 64 593 64 474 C64 386 111 329 226 277 C337 227 337 227 368 208 C412 180 434 142 434 94 C434 6 363 -64 273 -64 C221 -64 171 -40 142 0 C126 22 119 41 110 83 L23 59 C35 8 47 -19 71 -51 C118 -114 189 -148 270 -148 C413 -148 524 -40 524 99 C524 199 471 263 343 319 C233 368 233 368 204 387 C171 410 154 438 154 474 C154 544 211 597 287 597 C349 597 383 575 424 509 L495 555 Z " />
<glyph glyph-name="T" unicode="T" horiz-adv-x="498" d="M294 584 L488 584 L488 667 L10 667 L10 584 L204 584 L204 -134 L294 -134 L294 584 Z " />
<glyph glyph-name="U" unicode="U" horiz-adv-x="704" d="M157 667 L67 667 L67 152 C67 65 82 12 119 -37 C172 -106 261 -148 353 -148 C444 -148 533 -106 585 -37 C623 12 638 65 638 152 L638 667 L548 667 L548 176 C548 92 542 57 521 23 C490 -29 421 -64 353 -64 C284 -64 215 -28 184 23 C163 57 157 93 157 176 L157 667 Z " />
<glyph glyph-name="V" unicode="V" horiz-adv-x="650" d="M98 667 L0 667 L324 -181 L650 667 L553 667 L325 56 L98 667 Z " />
<glyph glyph-name="W" unicode="W" horiz-adv-x="1132" d="M98 667 L0 667 L308 -176 L560 465 L796 -176 L1132 667 L1034 667 L799 66 L562 708 L311 67 L98 667 Z " />
<glyph glyph-name="X" unicode="X" horiz-adv-x="611" d="M257 280 L20 -134 L121 -134 L307 195 L491 -134 L591 -134 L359 280 L580 667 L478 667 L308 366 L142 667 L41 667 L257 280 Z " />
<glyph glyph-name="Y" unicode="Y" horiz-adv-x="618" d="M262 210 L262 -134 L352 -134 L352 210 L618 667 L515 667 L307 309 L103 667 L0 667 L262 210 Z " />
<glyph glyph-name="Z" unicode="Z" horiz-adv-x="614" d="M152 -51 L589 667 L60 667 L60 584 L441 584 L4 -134 L578 -134 L578 -51 L152 -51 Z " />
<glyph glyph-name="bracketleft" unicode="&#x5b;" horiz-adv-x="287" d="M155 667 L269 667 L269 747 L67 747 L67 -213 L269 -213 L269 -133 L155 -133 L155 667 Z " />
<glyph glyph-name="backslash" unicode="&#x5c;" horiz-adv-x="467" d="M-7 667 L404 -166 L473 -134 L62 699 L-7 667 Z " />
<glyph glyph-name="bracketright" unicode="&#x5d;" horiz-adv-x="287" d="M132 667 L132 -133 L18 -133 L18 -213 L220 -213 L220 747 L18 747 L18 667 L132 667 Z " />
<glyph glyph-name="asciicircum" unicode="&#x5e;" horiz-adv-x="500" d="M103 375 L249 617 L396 375 L468 375 L293 668 L207 668 L32 375 L103 375 Z " />
<glyph glyph-name="underscore" unicode="&#x5f;" horiz-adv-x="500" d="M0 -72 L0 -122 L500 -122 L500 -72 L0 -72 Z " />
<glyph glyph-name="grave" unicode="&#x60;" horiz-adv-x="500" d="M86 772 L248 609 L301 638 L175 812 L86 772 Z " />
<glyph glyph-name="a" unicode="a" horiz-adv-x="517" d="M362 142 L424 0 L518 0 L262 579 L-1 0 L92 0 L156 142 L362 142 Z M333 220 L186 220 L260 393 L333 220 Z " />
<glyph glyph-name="b" unicode="b" horiz-adv-x="452" d="M61 0 L225 0 C289 0 326 10 361 38 C399 67 420 110 420 155 C420 222 376 274 307 289 C353 305 374 335 374 383 C374 427 353 472 320 498 C289 522 250 533 191 533 L61 533 L61 0 Z M147 311 L147 455 L200 455 C262 455 290 432 290 381 C290 358 282 339 266 327 C251 315 235 311 198 311 L147 311 Z M147 78 L147 234 L213 234 C253 234 278 230 297 220 C319 209 334 184 334 158 C334 135 323 112 305 98 C285 83 266 78 220 78 L147 78 Z " />
<glyph glyph-name="c" unicode="c" horiz-adv-x="518" d="M487 484 C428 529 378 547 316 547 C158 547 30 420 30 265 C30 112 158 -14 313 -14 C375 -14 428 5 487 47 L487 159 C421 90 373 64 313 64 C205 64 116 155 116 264 C116 376 205 469 312 469 C374 469 423 442 487 373 L487 484 Z " />
<glyph glyph-name="d" unicode="d" horiz-adv-x="512" d="M61 0 L186 0 C273 0 330 18 385 62 C448 113 481 183 481 267 C481 349 448 421 387 471 C333 514 274 533 187 533 L61 533 L61 0 Z M147 78 L147 455 L189 455 C250 455 294 442 330 412 C371 377 395 324 395 266 C395 208 372 157 329 122 C293 91 250 78 189 78 L147 78 Z " />
<glyph glyph-name="e" unicode="e" horiz-adv-x="410" d="M367 455 L367 533 L61 533 L61 0 L367 0 L367 78 L147 78 L147 251 L361 251 L361 329 L147 329 L147 455 L367 455 Z " />
<glyph glyph-name="f" unicode="f" horiz-adv-x="369" d="M335 455 L335 533 L61 533 L61 0 L147 0 L147 251 L330 251 L330 329 L147 329 L147 455 L335 455 Z " />
<glyph glyph-name="g" unicode="g" horiz-adv-x="602" d="M333 278 L333 200 L481 200 C470 157 461 138 442 119 C406 84 358 64 311 64 C205 64 116 156 116 265 C116 378 205 469 315 469 C371 469 423 444 459 401 C469 389 477 379 492 358 L556 416 C530 447 515 463 497 480 C451 522 383 547 315 547 C158 547 30 421 30 265 C30 112 156 -14 311 -14 C432 -14 541 67 565 174 C571 205 572 214 572 278 L333 278 Z " />
<glyph glyph-name="h" unicode="h" horiz-adv-x="537" d="M147 326 L147 533 L61 533 L61 0 L147 0 L147 248 L390 248 L390 0 L476 0 L476 533 L390 533 L390 326 L147 326 Z " />
<glyph glyph-name="i" unicode="i" horiz-adv-x="208" d="M147 533 L61 533 L61 0 L147 0 L147 533 Z " />
<glyph glyph-name="j" unicode="j" horiz-adv-x="260" d="M199 533 L113 533 L113 112 C113 48 100 22 69 22 C50 22 39 29 7 62 L3 66 L-46 -2 C1 -42 30 -56 69 -56 C103 -56 135 -43 158 -20 C188 9 199 45 199 112 L199 533 Z " />
<glyph glyph-name="k" unicode="k" horiz-adv-x="472" d="M147 322 L147 533 L61 533 L61 0 L147 0 L147 222 L162 236 L362 0 L479 0 L228 289 L474 533 L356 533 L147 322 Z " />
<glyph glyph-name="l" unicode="l" horiz-adv-x="323" d="M147 533 L61 533 L61 0 L301 0 L301 78 L147 78 L147 533 Z " />
<glyph glyph-name="m" unicode="m" horiz-adv-x="673" d="M44 0 L129 0 L175 311 L336 -43 L499 311 L543 0 L628 0 L540 583 L337 144 L138 583 L44 0 Z " />
<glyph glyph-name="n" unicode="n" horiz-adv-x="616" d="M61 0 L147 0 L145 376 L554 -44 L554 533 L468 533 L470 155 L61 577 L61 0 Z " />
<glyph glyph-name="o" unicode="o" horiz-adv-x="629" d="M315 547 C161 547 30 420 30 270 C30 112 156 -14 312 -14 C471 -14 599 111 599 266 C599 420 471 547 315 547 L315 547 Z M315 469 C425 469 513 379 513 266 C513 154 424 64 313 64 C204 64 117 155 117 269 C117 379 206 469 315 469 L315 469 Z " />
<glyph glyph-name="p" unicode="p" horiz-adv-x="409" d="M147 220 L205 220 C317 220 387 281 387 376 C387 422 367 466 333 494 C300 522 259 533 191 533 L61 533 L61 0 L147 0 L147 220 Z M147 297 L147 455 L198 455 C269 455 302 430 302 377 C302 325 267 297 202 297 L147 297 Z " />
<glyph glyph-name="q" unicode="q" horiz-adv-x="642" d="M609 0 L530 80 C578 135 602 198 602 266 C602 420 473 547 318 547 C161 547 33 420 33 265 C33 111 161 -14 318 -14 C374 -14 423 1 473 32 L505 0 L609 0 Z M272 237 L416 91 C381 72 353 64 318 64 C208 64 119 154 119 265 C119 379 207 469 318 469 C428 469 516 379 516 266 C516 218 502 178 472 139 L377 237 L272 237 Z " />
<glyph glyph-name="r" unicode="r" horiz-adv-x="446" d="M265 228 C336 245 380 301 380 375 C380 429 356 476 316 503 C282 525 245 533 181 533 L61 533 L61 0 L147 0 L147 220 L171 220 L323 0 L427 0 L265 228 Z M147 295 L147 455 L190 455 C261 455 295 430 295 376 C295 323 259 295 191 295 L147 295 Z " />
<glyph glyph-name="s" unicode="s" horiz-adv-x="407" d="M366 443 C326 516 278 547 208 547 C115 547 44 482 44 398 C44 335 79 295 162 260 C236 229 236 229 256 217 C282 202 293 183 293 156 C293 104 252 64 200 64 C165 64 133 81 118 108 C109 125 104 139 99 170 L16 146 C39 41 101 -14 196 -14 C299 -14 379 62 379 160 C379 230 341 275 248 313 C176 343 176 343 157 354 C139 366 131 379 131 397 C131 438 164 469 207 469 C247 469 265 456 293 405 L297 398 L366 443 Z " />
<glyph glyph-name="t" unicode="t" horiz-adv-x="361" d="M224 455 L354 455 L354 533 L8 533 L8 455 L138 455 L138 0 L224 0 L224 455 Z " />
<glyph glyph-name="u" unicode="u" horiz-adv-x="516" d="M142 533 L56 533 L56 194 C56 135 67 98 93 63 C131 15 193 -14 258 -14 C323 -14 385 15 422 63 C449 98 460 136 460 194 L460 533 L374 533 L374 210 C374 157 370 135 358 115 C340 85 299 64 258 64 C218 64 176 85 158 115 C146 135 142 157 142 210 L142 533 Z " />
<glyph glyph-name="v" unicode="v" horiz-adv-x="465" d="M92 533 L-1 533 L232 -56 L466 533 L373 533 L233 173 L92 533 Z " />
<glyph glyph-name="w" unicode="w" horiz-adv-x="745" d="M89 533 L-1 533 L210 -34 L368 367 L516 -34 L746 533 L655 533 L518 181 L370 583 L213 182 L89 533 Z " />
<glyph glyph-name="x" unicode="x" horiz-adv-x="457" d="M231 353 L127 533 L29 533 L182 276 L16 0 L113 0 L230 198 L345 0 L441 0 L279 275 L435 533 L336 533 L231 353 Z " />
<glyph glyph-name="y" unicode="y" horiz-adv-x="453" d="M182 227 L182 0 L268 0 L268 227 L454 533 L355 533 L225 319 L98 533 L-1 533 L182 227 Z " />
<glyph glyph-name="z" unicode="z" horiz-adv-x="458" d="M146 78 L439 533 L49 533 L49 455 L295 455 L2 0 L420 0 L420 78 L146 78 Z " />
<glyph glyph-name="braceleft" unicode="&#x7b;" horiz-adv-x="287" d="M172 567 C172 653 187 672 257 672 L267 672 L267 747 L217 747 C174 747 135 729 113 699 C94 674 85 636 85 583 L85 411 C85 348 65 317 16 305 L16 234 C66 221 85 190 85 122 L85 -37 C85 -90 92 -129 107 -155 C128 -192 168 -213 215 -213 L267 -213 L267 -138 L256 -138 C186 -138 172 -120 172 -30 L172 124 C172 200 153 236 99 266 C155 296 172 328 172 406 L172 567 Z " />
<glyph glyph-name="bar" unicode="&#x7c;" horiz-adv-x="500" d="M212 667 L212 -167 L288 -167 L288 667 L212 667 Z " />
<glyph glyph-name="braceright" unicode="&#x7d;" horiz-adv-x="287" d="M114 -30 C114 -119 100 -138 32 -138 L19 -138 L19 -213 L71 -213 C114 -213 152 -194 174 -163 C192 -136 201 -96 201 -37 L201 122 C201 190 220 221 270 234 L270 305 C221 317 201 348 201 411 L201 583 C201 631 193 668 178 692 C157 726 115 747 69 747 L19 747 L19 672 L27 672 C99 672 114 654 114 567 L114 406 C114 328 131 296 187 266 C133 236 114 200 114 124 L114 -30 Z " />
<glyph glyph-name="asciitilde" unicode="&#x7e;" horiz-adv-x="667" d="M135 582 C166 637 191 657 226 657 C251 657 268 651 323 624 C387 592 411 583 438 583 C494 583 534 617 573 695 L532 727 C502 674 475 652 440 652 C416 652 399 658 343 686 C286 715 257 725 228 725 C173 725 132 691 94 614 L135 582 Z " />
<glyph glyph-name="uni00A0" unicode="&#xa0;" horiz-adv-x="300" d="" />
<glyph glyph-name="exclamdown" unicode="&#xa1;" horiz-adv-x="285" d="M143 545 C109 545 83 518 83 485 C83 452 109 426 142 426 C175 426 202 453 202 485 C202 518 176 545 143 545 L143 545 Z M186 355 L99 355 L99 -125 L186 -125 L186 355 Z " />
<glyph glyph-name="cent" unicode="&#xa2;" horiz-adv-x="460" d="M293 559 L231 559 L231 479 C143 466 75 385 75 291 C75 198 143 118 231 105 L231 20 L293 20 L293 104 C310 105 346 117 364 129 C368 131 372 133 376 136 C376 136 381 139 385 141 L385 242 C378 234 374 230 373 228 C344 195 323 180 293 172 L293 412 C327 403 343 391 382 346 L382 446 C354 465 325 477 293 480 L293 559 Z M231 174 C182 188 149 236 149 292 C149 347 183 396 231 410 L231 174 Z " />
<glyph glyph-name="sterling" unicode="&#xa3;" horiz-adv-x="460" d="M208 260 L201 275 C150 371 145 382 145 414 C145 467 186 507 241 507 C288 507 319 482 329 436 C332 423 333 414 335 383 L409 403 C408 439 406 452 397 475 C372 541 313 581 241 581 C145 581 69 509 69 418 C69 380 77 355 106 298 C114 282 120 271 125 260 L56 260 L56 199 L151 199 C154 187 155 180 155 171 C155 149 149 130 134 107 C89 104 52 78 20 26 L80 -13 C105 24 118 34 145 34 C161 34 175 30 221 14 C267 -3 291 -9 315 -9 C353 -9 388 10 414 43 C423 55 425 58 439 87 L377 124 C350 76 338 65 313 65 C300 65 289 68 252 81 C242 85 237 87 211 96 C225 123 232 149 232 174 C232 182 231 187 229 199 L316 199 L316 260 L208 260 Z " />
<glyph glyph-name="currency" unicode="&#xa4;" horiz-adv-x="635" d="M39 50 L80 9 L175 103 C234 65 269 53 319 53 C371 53 408 66 462 104 L558 9 L598 50 L503 146 C542 204 553 235 553 287 C553 338 541 372 503 429 L597 524 L556 565 L461 471 C402 511 371 522 318 522 C265 522 235 511 174 470 L78 565 L37 524 L132 428 C94 374 82 339 82 287 C82 236 95 199 134 144 L39 50 Z M320 456 C411 456 486 379 486 287 C486 194 411 119 318 119 C226 119 150 195 150 287 C150 381 225 456 320 456 L320 456 Z " />
<glyph glyph-name="yen" unicode="&#xa5;" horiz-adv-x="482" d="M322 322 L444 322 L444 383 L357 383 L469 573 L381 573 L239 330 L101 573 L13 573 L123 383 L38 383 L38 322 L157 322 L192 262 L38 262 L38 201 L201 201 L201 0 L277 0 L277 201 L444 201 L444 262 L287 262 L322 322 Z " />
<glyph glyph-name="brokenbar" unicode="&#xa6;" horiz-adv-x="500" d="M212 667 L212 333 L288 333 L288 667 L212 667 Z M212 153 L212 -167 L288 -167 L288 153 L212 153 Z " />
<glyph glyph-name="section" unicode="&#xa7;" horiz-adv-x="520" d="M82 -18 C83 -65 86 -82 96 -110 C116 -169 177 -207 251 -207 C354 -207 424 -140 424 -42 C424 -1 410 38 387 62 C378 72 370 78 350 90 C410 126 439 174 439 239 C439 289 420 336 387 363 C365 382 336 396 288 413 C229 433 224 435 206 449 C186 463 176 484 176 510 C176 565 213 602 268 602 C309 602 339 581 349 546 C355 528 356 517 357 488 L437 488 C435 529 430 555 419 585 C397 643 337 680 268 680 C170 680 95 609 95 516 C95 459 118 419 168 388 C110 357 80 307 80 238 C80 190 97 148 129 119 C150 101 173 88 220 70 C285 45 285 45 304 33 C330 17 342 -7 342 -39 C342 -96 309 -129 253 -129 C212 -129 181 -109 171 -76 C166 -60 165 -53 163 -18 L82 -18 Z M259 337 C312 337 355 294 355 240 C355 185 312 142 259 142 C205 142 163 186 163 241 C163 293 207 337 259 337 L259 337 Z " />
<glyph glyph-name="dieresis" unicode="&#xa8;" horiz-adv-x="500" d="M145 734 C113 734 85 707 85 674 C85 640 112 613 146 613 C179 613 206 640 206 674 C206 707 179 734 145 734 L145 734 Z M355 734 C322 734 294 707 294 674 C294 640 321 613 355 613 C388 613 415 640 415 674 C415 707 388 734 355 734 L355 734 Z " />
<glyph glyph-name="copyright" unicode="&#xa9;" horiz-adv-x="740" d="M523 479 C473 521 437 536 383 536 C270 536 176 442 176 330 C176 218 271 124 385 124 C435 124 473 139 523 179 L523 262 C491 226 489 223 480 216 C455 194 415 179 383 179 C303 179 234 248 234 328 C234 410 303 480 383 480 C417 480 456 465 480 442 C490 433 492 431 523 394 L523 479 Z M375 678 C181 678 25 526 25 336 C25 143 178 -11 370 -11 C560 -11 714 143 714 334 C714 521 560 678 375 678 L375 678 Z M374 622 C528 622 658 490 658 334 C658 174 529 45 370 45 C209 45 81 174 81 336 C81 405 108 474 155 526 C213 590 286 622 374 622 L374 622 Z " />
<glyph glyph-name="ordfeminine" unicode="&#xaa;" horiz-adv-x="415" d="M301 573 L301 537 C267 568 235 581 191 581 C96 581 26 506 26 402 C26 296 97 218 193 218 C236 218 266 230 301 263 L301 228 L371 228 L371 573 L301 573 Z M200 517 C262 517 305 470 305 401 C305 331 262 283 200 283 C140 283 97 333 97 403 C97 468 142 517 200 517 L200 517 Z " />
<glyph glyph-name="guillemotleft" unicode="&#xab;" horiz-adv-x="498" d="M304 256 L447 437 L391 481 L212 256 L391 36 L447 80 L304 256 Z M125 256 L268 437 L212 481 L33 256 L212 36 L268 80 L125 256 Z " />
<glyph glyph-name="logicalnot" unicode="&#xac;" horiz-adv-x="500" d="M392 0 L466 0 L466 277 L33 277 L33 210 L392 210 L392 0 Z " />
<glyph glyph-name="uni00AD" unicode="&#xad;" horiz-adv-x="218" d="M0 295 L0 218 L218 218 L218 295 L0 295 Z " />
<glyph glyph-name="registered" unicode="&#xae;" horiz-adv-x="740" d="M390 307 C448 317 482 356 482 416 C482 490 436 530 350 530 L282 530 L282 130 L339 130 L339 281 L442 130 L512 130 L390 307 Z M339 359 L339 475 L352 475 C402 475 424 457 424 417 C424 379 401 359 357 359 L339 359 Z M375 678 C181 678 25 526 25 336 C25 143 178 -11 370 -11 C560 -11 714 143 714 334 C714 521 560 678 375 678 L375 678 Z M374 622 C528 622 658 490 658 334 C658 174 529 45 370 45 C209 45 81 174 81 336 C81 405 108 474 155 526 C213 590 286 622 374 622 L374 622 Z " />
<glyph glyph-name="macron" unicode="&#xaf;" horiz-adv-x="500" d="M90 701 L90 629 L410 629 L410 701 L90 701 Z " />
<glyph glyph-name="degree" unicode="&#xb0;" horiz-adv-x="347" d="M175 674 C100 674 40 615 40 540 C40 467 100 407 174 407 C247 407 307 467 307 541 C307 614 247 674 175 674 L175 674 Z M175 617 C216 617 250 582 250 541 C250 498 216 464 174 464 C131 464 97 498 97 541 C97 583 131 617 175 617 L175 617 Z " />
<glyph glyph-name="plusminus" unicode="&#xb1;" horiz-adv-x="520" d="M25 310 L230 310 L230 115 L291 115 L291 310 L496 310 L496 371 L291 371 L291 573 L230 573 L230 371 L25 371 L25 310 Z M25 0 L496 0 L496 61 L25 61 L25 0 Z " />
<glyph glyph-name="twosuperior" unicode="&#xb2;" horiz-adv-x="360" d="M144 221 L219 302 C293 382 310 411 310 456 C310 526 251 580 175 580 C116 580 66 548 48 499 C43 485 42 477 38 445 L98 445 C100 463 101 469 103 478 C112 508 141 527 175 527 C218 527 251 496 251 457 C251 429 234 402 181 343 L20 167 L309 167 L309 221 L144 221 Z " />
<glyph glyph-name="threesuperior" unicode="&#xb3;" horiz-adv-x="360" d="M156 354 C176 354 181 353 189 352 C223 345 244 321 244 286 C244 245 212 214 170 214 C142 214 114 229 104 250 C100 258 99 263 96 282 L38 282 C40 255 42 246 48 232 C66 189 113 161 168 161 C246 161 303 214 303 285 C303 326 286 358 251 381 C285 407 297 430 297 468 C297 532 245 580 174 580 C121 580 81 556 63 514 C57 500 56 495 51 463 L109 463 C113 483 114 485 116 492 C124 513 145 526 174 526 C211 526 238 501 238 466 C238 439 222 418 197 410 C186 406 181 406 156 405 L156 354 Z " />
<glyph glyph-name="acute" unicode="&#xb4;" horiz-adv-x="500" d="M413 772 L325 812 L198 638 L251 609 L413 772 Z " />
<glyph glyph-name="mu" unicode="&#xb5;" horiz-adv-x="513" d="M145 -134 L141 23 C178 -3 213 -14 260 -14 C318 -14 373 9 409 48 C442 85 454 125 454 199 L454 499 L368 499 L368 208 C368 161 364 136 353 115 C336 84 299 64 256 64 C206 64 166 91 152 133 C148 146 145 174 145 195 L145 499 L59 499 L59 -134 L145 -134 Z " />
<glyph glyph-name="paragraph" unicode="&#xb6;" horiz-adv-x="683" d="M261 -134 L337 -134 L337 597 L463 597 L463 -134 L539 -134 L539 597 L592 597 L632 667 L288 667 C229 667 176 655 143 635 C88 601 55 536 55 460 C55 370 99 301 172 273 C201 262 216 260 261 260 L261 -134 Z " />
<glyph glyph-name="periodcentered" unicode="&#xb7;" horiz-adv-x="240" d="M120 326 C88 326 61 299 61 267 C61 234 87 207 121 207 C154 207 180 234 180 267 C180 300 153 326 120 326 L120 326 Z " />
<glyph glyph-name="cedilla" unicode="&#xb8;" horiz-adv-x="500" d="M348 -94 L269 -62 L168 -219 L227 -249 L348 -94 Z " />
<glyph glyph-name="onesuperior" unicode="&#xb9;" horiz-adv-x="360" d="M163 519 L163 167 L222 167 L222 573 L122 573 L90 519 L163 519 Z " />
<glyph glyph-name="ordmasculine" unicode="&#xba;" horiz-adv-x="416" d="M208 581 C108 581 26 501 26 403 C26 299 105 219 207 219 C310 219 390 298 390 400 C390 502 310 581 208 581 L208 581 Z M207 516 C273 516 319 468 319 400 C319 332 273 284 207 284 C143 284 97 333 97 402 C97 467 144 516 207 516 L207 516 Z " />
<glyph glyph-name="guillemotright" unicode="&#xbb;" horiz-adv-x="498" d="M194 256 L51 80 L107 36 L286 256 L107 481 L51 437 L194 256 Z M373 256 L230 80 L285 36 L465 256 L286 481 L230 437 L373 256 Z " />
<glyph glyph-name="onequarter" unicode="&#xbc;" horiz-adv-x="820" d="M162 519 L162 167 L221 167 L221 573 L121 573 L89 519 L162 519 Z M555 598 L221 0 L266 -27 L600 573 L555 598 Z M742 118 L742 442 L464 65 L682 65 L682 0 L742 0 L742 65 L792 65 L792 118 L742 118 Z M682 118 L571 118 L682 269 L682 118 Z " />
<glyph glyph-name="onehalf" unicode="&#xbd;" horiz-adv-x="820" d="M162 519 L162 167 L221 167 L221 573 L121 573 L89 519 L162 519 Z M555 598 L221 0 L266 -27 L600 573 L555 598 Z M604 54 L679 135 C753 216 770 245 770 290 C770 359 711 413 635 413 C577 413 526 381 508 332 C503 318 502 311 498 279 L558 279 C560 298 561 303 563 312 C572 341 601 360 635 360 C678 360 711 330 711 291 C711 263 694 236 641 177 L480 0 L769 0 L769 54 L604 54 Z " />
<glyph glyph-name="threequarters" unicode="&#xbe;" horiz-adv-x="820" d="M156 354 C176 354 181 353 189 352 C223 345 244 321 244 286 C244 245 212 214 170 214 C142 214 114 229 104 250 C100 258 99 263 96 282 L38 282 C40 255 42 246 48 232 C66 189 113 161 168 161 C246 161 303 214 303 285 C303 326 286 358 251 381 C285 407 297 430 297 468 C297 532 245 580 174 580 C121 580 81 556 63 514 C57 500 56 495 51 463 L109 463 C113 483 114 485 116 492 C124 513 145 526 174 526 C211 526 238 501 238 466 C238 439 222 418 197 410 C186 406 181 406 156 405 L156 354 Z M555 598 L221 0 L266 -27 L600 573 L555 598 Z M742 118 L742 442 L464 65 L682 65 L682 0 L742 0 L742 65 L792 65 L792 118 L742 118 Z M682 118 L571 118 L682 269 L682 118 Z " />
<glyph glyph-name="questiondown" unicode="&#xbf;" horiz-adv-x="436" d="M219 545 C186 545 159 518 159 485 C159 452 185 426 218 426 C251 426 278 453 278 485 C278 518 252 545 219 545 L219 545 Z M157 226 C161 269 183 292 218 292 C250 292 273 267 273 232 C273 196 256 182 183 158 C95 128 61 88 61 14 C61 -75 127 -139 218 -139 C306 -139 375 -74 375 9 C375 20 374 28 371 43 L284 43 C288 31 289 25 289 14 C289 -32 260 -63 217 -63 C175 -63 148 -34 148 11 C148 34 155 54 168 65 C180 76 186 78 236 95 C322 122 360 163 360 226 C360 300 298 358 219 358 C139 358 85 308 77 226 L157 226 Z " />
<glyph glyph-name="Agrave" unicode="&#xc0;" horiz-adv-x="729" d="M536 92 L630 -134 L729 -134 L369 704 L0 -134 L97 -134 L194 92 L536 92 Z M501 175 L230 175 L367 496 L501 175 Z M210 872 L383 731 L434 770 L291 925 L210 872 Z " />
<glyph glyph-name="Aacute" unicode="&#xc1;" horiz-adv-x="729" d="M536 92 L630 -134 L729 -134 L369 704 L0 -134 L97 -134 L194 92 L536 92 Z M501 175 L230 175 L367 496 L501 175 Z M526 872 L446 925 L302 770 L354 731 L526 872 Z " />
<glyph glyph-name="Acircumflex" unicode="&#xc2;" horiz-adv-x="729" d="M536 92 L630 -134 L729 -134 L369 704 L0 -134 L97 -134 L194 92 L536 92 Z M501 175 L230 175 L367 496 L501 175 Z M204 781 L266 732 L372 823 L477 732 L540 781 L371 924 L204 781 Z " />
<glyph glyph-name="Atilde" unicode="&#xc3;" horiz-adv-x="729" d="M536 92 L630 -134 L729 -134 L369 704 L0 -134 L97 -134 L194 92 L536 92 Z M501 175 L230 175 L367 496 L501 175 Z M246 762 C266 804 275 814 295 814 C310 814 324 809 362 790 C399 771 419 765 441 765 C486 765 522 793 550 851 L499 890 C480 853 465 840 444 840 C430 840 411 847 378 863 C339 883 323 888 301 888 C259 888 222 858 194 802 L246 762 Z " />
<glyph glyph-name="Adieresis" unicode="&#xc4;" horiz-adv-x="729" d="M536 92 L630 -134 L729 -134 L369 704 L0 -134 L97 -134 L194 92 L536 92 Z M501 175 L230 175 L367 496 L501 175 Z M257 886 C223 886 195 858 195 825 C195 791 222 763 257 763 C290 763 318 791 318 825 C318 859 291 886 257 886 L257 886 Z M485 886 C451 886 423 858 423 825 C423 791 450 763 485 763 C518 763 546 791 546 825 C546 859 519 886 485 886 L485 886 Z " />
<glyph glyph-name="Aring" unicode="&#xc5;" horiz-adv-x="729" d="M536 92 L630 -134 L729 -134 L369 704 L0 -134 L97 -134 L194 92 L536 92 Z M501 175 L230 175 L367 496 L501 175 Z M368 942 C309 942 259 893 259 834 C259 773 307 724 368 724 C428 724 477 773 477 833 C477 894 428 942 368 942 L368 942 Z M368 884 C396 884 419 861 419 833 C419 805 396 782 368 782 C340 782 317 805 317 834 C317 861 340 884 368 884 L368 884 Z " />
<glyph glyph-name="AE" unicode="&#xc6;" horiz-adv-x="1047" d="M534 90 L629 -134 L1047 -134 L1012 -51 L686 -51 L556 261 L872 261 L836 344 L520 344 L420 584 L744 584 L708 667 L357 667 L0 -134 L98 -134 L193 90 L534 90 Z M499 173 L231 173 L367 489 L499 173 Z " />
<glyph glyph-name="Ccedilla" unicode="&#xc7;" horiz-adv-x="729" d="M693 601 C612 658 545 681 456 681 C226 681 37 493 37 264 C37 39 225 -148 452 -148 C539 -148 613 -124 693 -70 L693 41 C661 11 645 -1 622 -15 C570 -46 508 -64 452 -64 C377 -64 299 -34 238 19 C167 81 128 167 128 263 C128 446 274 597 451 597 C500 597 551 584 598 561 C633 544 653 529 693 491 L693 601 Z M497 -229 L412 -190 L304 -353 L365 -385 L497 -229 Z " />
<glyph glyph-name="Egrave" unicode="&#xc8;" horiz-adv-x="539" d="M488 584 L488 667 L73 667 L73 -134 L488 -134 L488 -51 L163 -51 L163 263 L479 263 L479 346 L163 346 L163 584 L488 584 Z M124 872 L297 731 L348 770 L205 925 L124 872 Z " />
<glyph glyph-name="Eacute" unicode="&#xc9;" horiz-adv-x="539" d="M488 584 L488 667 L73 667 L73 -134 L488 -134 L488 -51 L163 -51 L163 263 L479 263 L479 346 L163 346 L163 584 L488 584 Z M432 872 L352 925 L208 770 L260 731 L432 872 Z " />
<glyph glyph-name="Ecircumflex" unicode="&#xca;" horiz-adv-x="539" d="M488 584 L488 667 L73 667 L73 -134 L488 -134 L488 -51 L163 -51 L163 263 L479 263 L479 346 L163 346 L163 584 L488 584 Z M112 781 L174 732 L280 823 L385 732 L448 781 L280 924 L112 781 Z " />
<glyph glyph-name="Edieresis" unicode="&#xcb;" horiz-adv-x="539" d="M488 584 L488 667 L73 667 L73 -134 L488 -134 L488 -51 L163 -51 L163 263 L479 263 L479 346 L163 346 L163 584 L488 584 Z M167 886 C133 886 105 858 105 825 C105 791 132 763 167 763 C201 763 228 791 228 825 C228 859 201 886 167 886 L167 886 Z M395 886 C361 886 333 858 333 825 C333 791 360 763 395 763 C428 763 456 791 456 825 C456 859 429 886 395 886 L395 886 Z " />
<glyph glyph-name="Igrave" unicode="&#xcc;" horiz-adv-x="236" d="M163 667 L73 667 L73 -134 L163 -134 L163 667 Z M-20 872 L124 731 L176 766 L61 925 L-20 872 Z " />
<glyph glyph-name="Iacute" unicode="&#xcd;" horiz-adv-x="236" d="M163 667 L73 667 L73 -134 L163 -134 L163 667 Z M256 872 L175 925 L60 766 L112 731 L256 872 Z " />
<glyph glyph-name="Icircumflex" unicode="&#xce;" horiz-adv-x="236" d="M163 667 L73 667 L73 -134 L163 -134 L163 667 Z M-30 781 L28 732 L117 823 L207 732 L266 781 L117 924 L-30 781 Z " />
<glyph glyph-name="Idieresis" unicode="&#xcf;" horiz-adv-x="236" d="M164 667 L74 667 L74 -134 L164 -134 L164 667 Z M37 886 C4 886 -24 858 -24 825 C-24 791 3 763 38 763 C71 763 99 791 99 825 C99 859 72 886 37 886 L37 886 Z M201 886 C167 886 139 858 139 825 C139 791 166 763 201 763 C235 763 262 791 262 825 C262 859 235 886 201 886 L201 886 Z " />
<glyph glyph-name="Eth" unicode="&#xd0;" horiz-adv-x="720" d="M87 -134 L250 -134 C379 -134 463 -108 542 -42 C635 34 683 141 683 267 C683 392 635 500 545 574 C467 639 380 667 251 667 L87 667 L87 338 L7 338 L7 258 L87 258 L87 -134 Z M177 -51 L177 258 L369 258 L369 338 L177 338 L177 584 L255 584 C353 584 425 561 484 511 C553 453 593 364 593 267 C593 169 554 82 484 23 C423 -28 353 -51 255 -51 L177 -51 Z " />
<glyph glyph-name="Ntilde" unicode="&#xd1;" horiz-adv-x="860" d="M73 -134 L163 -134 L163 483 L787 -170 L787 667 L697 667 L697 47 L73 700 L73 -134 Z M311 762 C331 804 341 814 361 814 C376 814 389 809 428 790 C464 771 485 765 507 765 C552 765 588 793 616 851 L564 890 C545 853 531 840 509 840 C496 840 476 847 443 863 C404 883 388 888 367 888 C325 888 287 858 260 802 L311 762 Z " />
<glyph glyph-name="Ograve" unicode="&#xd2;" horiz-adv-x="907" d="M455 681 C229 681 37 493 37 271 C37 163 72 68 141 -8 C220 -95 336 -148 450 -148 C683 -148 871 37 871 266 C871 494 683 681 455 681 L455 681 Z M454 597 C636 597 781 450 781 266 C781 83 634 -64 451 -64 C372 -64 290 -30 229 27 C161 91 127 173 127 271 C127 450 275 597 454 597 L454 597 Z M296 872 L468 731 L520 770 L376 925 L296 872 Z " />
<glyph glyph-name="Oacute" unicode="&#xd3;" horiz-adv-x="907" d="M455 681 C229 681 37 493 37 271 C37 163 72 68 141 -8 C220 -95 336 -148 450 -148 C683 -148 871 37 871 266 C871 494 683 681 455 681 L455 681 Z M454 597 C636 597 781 450 781 266 C781 83 634 -64 451 -64 C372 -64 290 -30 229 27 C161 91 127 173 127 271 C127 450 275 597 454 597 L454 597 Z M616 872 L535 925 L392 770 L444 731 L616 872 Z " />
<glyph glyph-name="Ocircumflex" unicode="&#xd4;" horiz-adv-x="907" d="M455 681 C229 681 37 493 37 271 C37 163 72 68 141 -8 C220 -95 336 -148 450 -148 C683 -148 871 37 871 266 C871 494 683 681 455 681 L455 681 Z M454 597 C636 597 781 450 781 266 C781 83 634 -64 451 -64 C372 -64 290 -30 229 27 C161 91 127 173 127 271 C127 450 275 597 454 597 L454 597 Z M286 781 L348 732 L453 823 L558 732 L622 781 L453 924 L286 781 Z " />
<glyph glyph-name="Otilde" unicode="&#xd5;" horiz-adv-x="907" d="M455 681 C229 681 37 493 37 271 C37 163 72 68 141 -8 C220 -95 336 -148 450 -148 C683 -148 871 37 871 266 C871 494 683 681 455 681 L455 681 Z M454 597 C636 597 781 450 781 266 C781 83 634 -64 451 -64 C372 -64 290 -30 229 27 C161 91 127 173 127 271 C127 450 275 597 454 597 L454 597 Z M339 762 C360 804 369 814 389 814 C404 814 417 809 456 790 C492 771 513 765 535 765 C580 765 616 793 644 851 L592 890 C573 853 559 840 537 840 C524 840 504 847 471 863 C432 883 416 888 395 888 C353 888 316 858 288 802 L339 762 Z " />
<glyph glyph-name="Odieresis" unicode="&#xd6;" horiz-adv-x="907" d="M455 681 C229 681 37 493 37 271 C37 163 72 68 141 -8 C220 -95 336 -148 450 -148 C683 -148 871 37 871 266 C871 494 683 681 455 681 L455 681 Z M454 597 C636 597 781 450 781 266 C781 83 634 -64 451 -64 C372 -64 290 -30 229 27 C161 91 127 173 127 271 C127 450 275 597 454 597 L454 597 Z M340 886 C306 886 278 858 278 825 C278 791 305 763 340 763 C374 763 401 791 401 825 C401 859 374 886 340 886 L340 886 Z M569 886 C535 886 507 858 507 825 C507 791 534 763 569 763 C602 763 630 791 630 825 C630 859 603 886 569 886 L569 886 Z " />
<glyph glyph-name="multiply" unicode="&#xd7;" horiz-adv-x="520" d="M63 441 L218 287 L63 132 L105 90 L260 245 L415 90 L457 132 L302 287 L457 441 L415 483 L260 329 L105 483 L63 441 Z " />
<glyph glyph-name="Oslash" unicode="&#xd8;" horiz-adv-x="909" d="M37 -90 L91 -142 L184 -50 C203 -64 211 -70 222 -77 C294 -124 372 -148 455 -148 C684 -148 872 39 872 266 C872 346 849 423 805 490 C796 503 789 513 772 536 L862 628 L811 680 L718 588 C700 601 693 606 683 612 C613 658 538 681 457 681 C227 681 39 493 39 265 C39 187 60 113 100 49 C108 35 115 25 131 3 L37 -90 Z M194 66 C146 139 130 190 130 265 C130 449 275 597 456 597 C532 597 594 575 654 527 L194 66 Z M709 475 C760 406 781 344 781 265 C781 85 635 -64 458 -64 C381 -64 297 -33 247 14 L709 475 Z " />
<glyph glyph-name="Ugrave" unicode="&#xd9;" horiz-adv-x="704" d="M157 667 L67 667 L67 152 C67 65 82 12 119 -37 C172 -106 261 -148 353 -148 C444 -148 533 -106 585 -37 C623 12 638 65 638 152 L638 667 L548 667 L548 176 C548 92 542 57 521 23 C490 -29 421 -64 353 -64 C284 -64 215 -28 184 23 C163 57 157 93 157 176 L157 667 Z M198 872 L371 731 L422 770 L279 925 L198 872 Z " />
<glyph glyph-name="Uacute" unicode="&#xda;" horiz-adv-x="704" d="M157 667 L67 667 L67 152 C67 65 82 12 119 -37 C172 -106 261 -148 353 -148 C444 -148 533 -106 585 -37 C623 12 638 65 638 152 L638 667 L548 667 L548 176 C548 92 542 57 521 23 C490 -29 421 -64 353 -64 C284 -64 215 -28 184 23 C163 57 157 93 157 176 L157 667 Z M511 872 L430 925 L287 770 L338 731 L511 872 Z " />
<glyph glyph-name="Ucircumflex" unicode="&#xdb;" horiz-adv-x="704" d="M157 667 L67 667 L67 152 C67 65 82 12 119 -37 C172 -106 261 -148 353 -148 C444 -148 533 -106 585 -37 C623 12 638 65 638 152 L638 667 L548 667 L548 176 C548 92 542 57 521 23 C490 -29 421 -64 353 -64 C284 -64 215 -28 184 23 C163 57 157 93 157 176 L157 667 Z M184 781 L246 732 L352 823 L457 732 L520 781 L352 924 L184 781 Z " />
<glyph glyph-name="Udieresis" unicode="&#xdc;" horiz-adv-x="704" d="M157 667 L67 667 L67 152 C67 65 82 12 119 -37 C172 -106 261 -148 353 -148 C444 -148 533 -106 585 -37 C623 12 638 65 638 152 L638 667 L548 667 L548 176 C548 92 542 57 521 23 C490 -29 421 -64 353 -64 C284 -64 215 -28 184 23 C163 57 157 93 157 176 L157 667 Z M239 886 C205 886 177 858 177 825 C177 791 204 763 239 763 C273 763 300 791 300 825 C300 859 273 886 239 886 L239 886 Z M467 886 C433 886 405 858 405 825 C405 791 432 763 467 763 C500 763 528 791 528 825 C528 859 501 886 467 886 L467 886 Z " />
<glyph glyph-name="Yacute" unicode="&#xdd;" horiz-adv-x="618" d="M262 210 L262 -134 L352 -134 L352 210 L618 667 L515 667 L307 309 L103 667 L0 667 L262 210 Z M467 872 L387 925 L243 770 L295 731 L467 872 Z " />
<glyph glyph-name="Thorn" unicode="&#xde;" horiz-adv-x="521" d="M163 105 L241 105 C322 105 386 126 429 167 C470 206 495 267 495 330 C495 397 467 460 421 500 C374 540 318 555 219 555 L163 555 L163 667 L73 667 L73 -134 L163 -134 L163 105 Z M163 187 L163 473 L229 473 C293 473 332 462 363 437 C391 413 407 374 407 331 C407 239 345 187 235 187 L163 187 Z " />
<glyph glyph-name="germandbls" unicode="&#xdf;" horiz-adv-x="813" d="M366 443 C326 516 278 547 208 547 C115 547 44 482 44 398 C44 335 79 295 162 260 C236 229 236 229 256 217 C282 202 293 183 293 156 C293 104 252 64 200 64 C165 64 133 81 118 108 C109 125 104 139 99 170 L16 146 C39 41 101 -14 196 -14 C299 -14 379 62 379 160 C379 230 341 275 248 313 C176 343 176 343 157 354 C139 366 131 379 131 397 C131 438 164 469 207 469 C247 469 265 456 293 405 L297 398 L366 443 Z M772 443 C732 516 684 547 614 547 C522 547 451 482 451 398 C451 335 486 295 569 260 C643 229 643 229 663 217 C689 202 700 183 700 156 C700 104 659 64 607 64 C572 64 540 81 525 108 C515 125 511 140 506 170 L423 146 C446 41 508 -14 603 -14 C706 -14 786 62 786 160 C786 230 748 275 655 313 C583 343 583 343 564 354 C546 366 538 379 538 397 C538 438 571 469 613 469 C654 469 671 456 700 405 L704 398 L772 443 Z " />
<glyph glyph-name="agrave" unicode="&#xe0;" horiz-adv-x="517" d="M362 142 L424 0 L518 0 L262 579 L-1 0 L92 0 L156 142 L362 142 Z M333 220 L186 220 L260 393 L333 220 Z M99 772 L261 609 L314 638 L188 812 L99 772 Z " />
<glyph glyph-name="aacute" unicode="&#xe1;" horiz-adv-x="517" d="M362 142 L424 0 L518 0 L262 579 L-1 0 L92 0 L156 142 L362 142 Z M333 220 L186 220 L260 393 L333 220 Z M422 772 L333 812 L207 638 L260 609 L422 772 Z " />
<glyph glyph-name="acircumflex" unicode="&#xe2;" horiz-adv-x="517" d="M362 142 L424 0 L518 0 L262 579 L-1 0 L92 0 L156 142 L362 142 Z M333 220 L186 220 L260 393 L333 220 Z M96 656 L157 609 L262 699 L367 609 L429 656 L262 798 L96 656 Z " />
<glyph glyph-name="atilde" unicode="&#xe3;" horiz-adv-x="517" d="M362 142 L424 0 L518 0 L262 579 L-1 0 L92 0 L156 142 L362 142 Z M333 220 L186 220 L260 393 L333 220 Z M128 609 C145 645 159 658 181 658 C196 658 217 651 253 635 C299 614 313 610 335 610 C385 610 423 639 448 696 L398 736 C378 699 362 686 340 686 C325 686 314 690 271 710 C234 727 211 734 188 734 C160 734 131 721 112 701 C101 688 95 680 77 651 L128 609 Z " />
<glyph glyph-name="adieresis" unicode="&#xe4;" horiz-adv-x="517" d="M362 142 L424 0 L518 0 L262 579 L-1 0 L92 0 L156 142 L362 142 Z M333 220 L186 220 L260 393 L333 220 Z M158 734 C125 734 97 707 97 674 C97 640 124 613 158 613 C191 613 218 640 218 674 C218 707 191 734 158 734 L158 734 Z M368 734 C335 734 307 707 307 674 C307 640 334 613 368 613 C401 613 428 640 428 674 C428 707 401 734 368 734 L368 734 Z " />
<glyph glyph-name="aring" unicode="&#xe5;" horiz-adv-x="517" d="M362 142 L424 0 L518 0 L262 579 L-1 0 L92 0 L156 142 L362 142 Z M333 220 L186 220 L260 393 L333 220 Z M262 816 C206 816 159 769 159 714 C159 656 205 609 263 609 C320 609 366 656 366 713 C366 770 320 816 262 816 L262 816 Z M262 763 C291 763 313 741 313 713 C313 685 290 663 263 663 C234 663 212 685 212 714 C212 741 235 763 262 763 L262 763 Z " />
<glyph glyph-name="ae" unicode="&#xe6;" horiz-adv-x="754" d="M358 141 L415 0 L718 0 L685 78 L475 78 L401 248 L608 248 L574 326 L368 326 L314 455 L526 455 L492 533 L236 533 L-1 0 L93 0 L153 141 L358 141 Z M327 219 L184 219 L256 394 L327 219 Z " />
<glyph glyph-name="ccedilla" unicode="&#xe7;" horiz-adv-x="518" d="M487 484 C428 529 378 547 316 547 C158 547 30 420 30 265 C30 112 158 -14 313 -14 C375 -14 428 5 487 47 L487 159 C421 90 373 64 313 64 C205 64 116 155 116 264 C116 376 205 469 312 469 C374 469 423 442 487 373 L487 484 Z M393 -94 L314 -62 L213 -219 L272 -249 L393 -94 Z " />
<glyph glyph-name="egrave" unicode="&#xe8;" horiz-adv-x="410" d="M368 455 L368 533 L62 533 L62 0 L368 0 L368 78 L148 78 L148 251 L362 251 L362 329 L148 329 L148 455 L368 455 Z M53 772 L215 609 L268 638 L142 812 L53 772 Z " />
<glyph glyph-name="eacute" unicode="&#xe9;" horiz-adv-x="410" d="M367 455 L367 533 L61 533 L61 0 L367 0 L367 78 L147 78 L147 251 L361 251 L361 329 L147 329 L147 455 L367 455 Z M380 772 L291 812 L164 638 L218 609 L380 772 Z " />
<glyph glyph-name="ecircumflex" unicode="&#xea;" horiz-adv-x="410" d="M367 455 L367 533 L61 533 L61 0 L367 0 L367 78 L147 78 L147 251 L362 251 L362 329 L147 329 L147 455 L367 455 Z M50 656 L110 609 L216 699 L321 609 L382 656 L215 798 L50 656 Z " />
<glyph glyph-name="edieresis" unicode="&#xeb;" horiz-adv-x="410" d="M367 455 L367 533 L61 533 L61 0 L367 0 L367 78 L147 78 L147 251 L361 251 L361 329 L147 329 L147 455 L367 455 Z M111 734 C79 734 51 707 51 674 C51 640 78 613 112 613 C145 613 172 640 172 674 C172 707 145 734 111 734 L111 734 Z M321 734 C288 734 260 707 260 674 C260 640 287 613 321 613 C354 613 381 640 381 674 C381 707 354 734 321 734 L321 734 Z " />
<glyph glyph-name="igrave" unicode="&#xec;" horiz-adv-x="208" d="M147 533 L61 533 L61 0 L147 0 L147 533 Z M-60 772 L102 609 L155 638 L29 812 L-60 772 Z " />
<glyph glyph-name="iacute" unicode="&#xed;" horiz-adv-x="208" d="M148 533 L62 533 L62 0 L148 0 L148 533 Z M268 772 L180 812 L53 638 L106 609 L268 772 Z " />
<glyph glyph-name="icircumflex" unicode="&#xee;" horiz-adv-x="208" d="M147 533 L61 533 L61 0 L147 0 L147 533 Z M-62 656 L-2 609 L104 699 L209 609 L270 656 L103 798 L-62 656 Z " />
<glyph glyph-name="idieresis" unicode="&#xef;" horiz-adv-x="208" d="M147 533 L61 533 L61 0 L147 0 L147 533 Z M19 734 C-13 734 -41 707 -41 674 C-41 640 -14 613 20 613 C53 613 80 640 80 674 C80 707 53 734 19 734 L19 734 Z M189 734 C156 734 128 707 128 674 C128 640 155 613 189 613 C222 613 249 640 249 674 C249 707 222 734 189 734 L189 734 Z " />
<glyph glyph-name="eth" unicode="&#xf0;" horiz-adv-x="523" d="M72 228 L72 0 L197 0 C285 0 342 18 396 62 C460 113 493 183 493 266 C493 349 460 421 398 471 C345 515 285 533 198 533 L72 533 L72 300 L3 300 L3 228 L72 228 Z M158 228 L286 228 L286 300 L158 300 L158 455 L200 455 C261 455 305 442 341 412 C382 377 406 324 406 266 C406 208 383 156 340 122 C304 91 261 78 200 78 L158 78 L158 228 Z " />
<glyph glyph-name="ntilde" unicode="&#xf1;" horiz-adv-x="616" d="M61 0 L147 0 L145 376 L554 -44 L554 533 L468 533 L470 155 L61 577 L61 0 Z M173 609 C191 646 204 658 226 658 C241 658 263 651 299 635 C344 614 359 610 381 610 C430 610 468 639 493 696 L443 736 C423 699 408 686 385 686 C370 686 360 690 316 710 C279 727 256 734 233 734 C205 734 176 721 157 701 C146 688 140 679 122 651 L173 609 Z " />
<glyph glyph-name="ograve" unicode="&#xf2;" horiz-adv-x="629" d="M315 547 C161 547 30 420 30 270 C30 112 156 -14 312 -14 C471 -14 599 111 599 266 C599 420 471 547 315 547 L315 547 Z M315 469 C425 469 513 379 513 266 C513 154 424 64 313 64 C204 64 117 155 117 269 C117 379 206 469 315 469 L315 469 Z M151 772 L313 609 L366 638 L240 812 L151 772 Z " />
<glyph glyph-name="oacute" unicode="&#xf3;" horiz-adv-x="629" d="M315 547 C161 547 30 420 30 270 C30 112 156 -14 312 -14 C471 -14 599 111 599 266 C599 420 471 547 315 547 L315 547 Z M315 469 C425 469 513 379 513 266 C513 154 424 64 313 64 C204 64 117 155 117 269 C117 379 206 469 315 469 L315 469 Z M478 772 L390 812 L263 638 L316 609 L478 772 Z " />
<glyph glyph-name="ocircumflex" unicode="&#xf4;" horiz-adv-x="629" d="M315 547 C161 547 30 420 30 270 C30 112 156 -14 312 -14 C471 -14 599 111 599 266 C599 420 471 547 315 547 L315 547 Z M315 469 C425 469 513 379 513 266 C513 154 424 64 313 64 C204 64 117 155 117 269 C117 379 206 469 315 469 L315 469 Z M148 656 L209 609 L314 699 L419 609 L481 656 L314 798 L148 656 Z " />
<glyph glyph-name="otilde" unicode="&#xf5;" horiz-adv-x="629" d="M315 547 C161 547 30 420 30 270 C30 112 156 -14 312 -14 C471 -14 599 111 599 266 C599 420 471 547 315 547 L315 547 Z M315 469 C425 469 513 379 513 266 C513 154 424 64 313 64 C204 64 117 155 117 269 C117 379 206 469 315 469 L315 469 Z M180 609 C198 645 211 658 233 658 C248 658 270 651 306 635 C351 614 366 610 387 610 C437 610 475 639 500 696 L450 736 C430 699 414 686 392 686 C377 686 367 690 323 710 C286 727 263 734 240 734 C212 734 183 721 164 701 C153 688 147 679 129 651 L180 609 Z " />
<glyph glyph-name="odieresis" unicode="&#xf6;" horiz-adv-x="629" d="M315 547 C161 547 30 420 30 270 C30 112 156 -14 312 -14 C471 -14 599 111 599 266 C599 420 471 547 315 547 L315 547 Z M315 469 C425 469 513 379 513 266 C513 154 424 64 313 64 C204 64 117 155 117 269 C117 379 206 469 315 469 L315 469 Z M211 734 C178 734 150 707 150 674 C150 640 177 613 211 613 C244 613 271 640 271 674 C271 707 244 734 211 734 L211 734 Z M420 734 C387 734 359 707 359 674 C359 640 386 613 420 613 C453 613 480 640 480 674 C480 707 453 734 420 734 L420 734 Z " />
<glyph glyph-name="divide" unicode="&#xf7;" horiz-adv-x="520" d="M25 256 L496 256 L496 317 L25 317 L25 256 Z M261 203 C235 203 214 182 214 157 C214 130 235 109 261 109 C287 109 308 130 308 156 C308 182 287 203 261 203 L261 203 Z M261 465 C235 465 214 444 214 419 C214 392 235 371 261 371 C287 371 308 392 308 418 C308 444 287 465 261 465 L261 465 Z " />
<glyph glyph-name="oslash" unicode="&#xf8;" horiz-adv-x="666" d="M582 569 L503 490 C452 528 394 547 333 547 C177 547 48 420 48 265 C48 203 68 146 107 95 L30 19 L85 -36 L163 42 C215 4 271 -14 333 -14 C489 -14 617 112 617 266 C617 328 598 384 558 437 L636 515 L582 569 Z M167 155 C143 194 134 224 134 265 C134 379 222 469 333 469 C375 469 409 458 446 433 L167 155 Z M499 378 C522 339 531 308 531 266 C531 155 442 64 333 64 C292 64 259 75 221 100 L499 378 Z " />
<glyph glyph-name="ugrave" unicode="&#xf9;" horiz-adv-x="516" d="M142 533 L56 533 L56 194 C56 135 67 98 93 63 C131 15 193 -14 258 -14 C323 -14 385 15 422 63 C449 98 460 136 460 194 L460 533 L374 533 L374 210 C374 157 370 135 358 115 C340 85 299 64 258 64 C218 64 176 85 158 115 C146 135 142 157 142 210 L142 533 Z M95 772 L256 609 L310 638 L183 812 L95 772 Z " />
<glyph glyph-name="uacute" unicode="&#xfa;" horiz-adv-x="516" d="M142 533 L56 533 L56 194 C56 135 67 98 93 63 C131 15 193 -14 258 -14 C323 -14 385 15 422 63 C449 98 460 136 460 194 L460 533 L374 533 L374 210 C374 157 370 135 358 115 C340 85 299 64 258 64 C218 64 176 85 158 115 C146 135 142 157 142 210 L142 533 Z M422 772 L333 812 L207 638 L260 609 L422 772 Z " />
<glyph glyph-name="ucircumflex" unicode="&#xfb;" horiz-adv-x="516" d="M142 533 L56 533 L56 194 C56 135 67 98 93 63 C131 15 193 -14 258 -14 C323 -14 385 15 422 63 C449 98 460 136 460 194 L460 533 L374 533 L374 210 C374 157 370 135 358 115 C340 85 299 64 258 64 C218 64 176 85 158 115 C146 135 142 157 142 210 L142 533 Z M92 656 L152 609 L258 699 L363 609 L424 656 L257 798 L92 656 Z " />
<glyph glyph-name="udieresis" unicode="&#xfc;" horiz-adv-x="516" d="M142 533 L56 533 L56 194 C56 135 67 98 93 63 C131 15 193 -14 258 -14 C323 -14 385 15 422 63 C449 98 460 136 460 194 L460 533 L374 533 L374 210 C374 157 370 135 358 115 C340 85 299 64 258 64 C218 64 176 85 158 115 C146 135 142 157 142 210 L142 533 Z M154 734 C121 734 93 707 93 674 C93 640 120 613 154 613 C187 613 214 640 214 674 C214 707 187 734 154 734 L154 734 Z M363 734 C330 734 302 707 302 674 C302 640 329 613 363 613 C396 613 423 640 423 674 C423 707 396 734 363 734 L363 734 Z " />
<glyph glyph-name="yacute" unicode="&#xfd;" horiz-adv-x="453" d="M182 227 L182 0 L268 0 L268 227 L454 533 L355 533 L225 319 L98 533 L-1 533 L182 227 Z M391 772 L302 812 L175 638 L229 609 L391 772 Z " />
<glyph glyph-name="thorn" unicode="&#xfe;" horiz-adv-x="416" d="M147 112 L205 112 C316 112 387 173 387 268 C387 314 367 357 333 385 C300 413 259 424 191 424 L147 424 L147 533 L61 533 L61 0 L147 0 L147 112 Z M147 189 L147 346 L198 346 C269 346 302 321 302 268 C302 217 267 189 202 189 L147 189 Z " />
<glyph glyph-name="ydieresis" unicode="&#xff;" horiz-adv-x="453" d="M182 227 L182 0 L268 0 L268 227 L454 533 L355 533 L225 319 L98 533 L-1 533 L182 227 Z M122 734 C90 734 62 707 62 674 C62 640 89 613 123 613 C156 613 183 640 183 674 C183 707 156 734 122 734 L122 734 Z M332 734 C299 734 271 707 271 674 C271 640 298 613 332 613 C365 613 392 640 392 674 C392 707 365 734 332 734 L332 734 Z " />
<glyph glyph-name="Amacron" unicode="&#x100;" horiz-adv-x="729" d="M536 92 L630 -134 L729 -134 L369 704 L0 -134 L97 -134 L194 92 L536 92 Z M501 175 L230 175 L367 496 L501 175 Z M192 855 L192 781 L544 781 L544 855 L192 855 Z " />
<glyph glyph-name="amacron" unicode="&#x101;" horiz-adv-x="517" d="M362 142 L424 0 L518 0 L262 579 L-1 0 L92 0 L156 142 L362 142 Z M333 220 L186 220 L260 393 L333 220 Z M99 701 L99 629 L418 629 L418 701 L99 701 Z " />
<glyph glyph-name="Abreve" unicode="&#x102;" horiz-adv-x="729" d="M536 92 L630 -134 L729 -134 L369 704 L0 -134 L97 -134 L194 92 L536 92 Z M501 175 L230 175 L367 496 L501 175 Z M202 901 C206 854 214 831 236 804 C266 766 314 745 368 745 C422 745 466 765 498 804 C520 832 529 856 535 901 L458 901 C445 847 415 821 367 821 C319 821 293 845 279 901 L202 901 Z " />
<glyph glyph-name="abreve" unicode="&#x103;" horiz-adv-x="517" d="M362 142 L424 0 L518 0 L262 579 L-1 0 L92 0 L156 142 L362 142 Z M333 220 L186 220 L260 393 L333 220 Z M89 753 C96 713 105 692 127 668 C160 630 209 609 263 609 C316 609 365 630 398 668 C420 692 429 713 436 753 L364 753 C341 700 314 681 263 681 C211 681 184 701 162 753 L89 753 Z " />
<glyph glyph-name="Aogonek" unicode="&#x104;" horiz-adv-x="729" d="M369 704 L0 -134 L97 -134 L194 92 L536 92 L630 -134 L650 -134 C584 -174 558 -209 558 -256 C558 -315 608 -361 672 -361 C703 -361 721 -356 743 -342 L751 -268 C727 -282 707 -288 686 -288 C659 -288 638 -268 638 -241 C638 -208 669 -171 729 -134 L369 704 Z M501 175 L230 175 L367 496 L501 175 Z " />
<glyph glyph-name="aogonek" unicode="&#x105;" horiz-adv-x="517" d="M262 579 L-1 0 L92 0 L156 142 L362 142 L424 0 L450 0 C428 -15 422 -19 413 -26 C381 -54 362 -90 362 -124 C362 -180 412 -223 477 -223 C501 -223 519 -219 544 -207 L555 -142 C530 -153 513 -157 489 -157 C454 -157 432 -138 432 -108 C432 -74 455 -46 518 0 L262 579 Z M333 220 L186 220 L260 393 L333 220 Z " />
<glyph glyph-name="Cacute" unicode="&#x106;" horiz-adv-x="729" d="M693 601 C612 658 545 681 456 681 C226 681 37 493 37 264 C37 39 225 -148 452 -148 C539 -148 614 -124 693 -70 L693 41 C661 11 645 -1 622 -15 C570 -46 508 -64 452 -64 C377 -64 299 -34 238 19 C167 81 128 167 128 263 C128 446 274 597 451 597 C500 597 551 584 598 561 C633 544 653 529 693 491 L693 601 Z M607 872 L527 925 L383 770 L435 731 L607 872 Z " />
<glyph glyph-name="cacute" unicode="&#x107;" horiz-adv-x="518" d="M487 484 C428 529 378 547 316 547 C158 547 30 420 30 265 C30 112 158 -14 313 -14 C375 -14 428 5 487 47 L487 159 C421 90 373 64 313 64 C205 64 116 155 116 264 C116 376 205 469 312 469 C374 469 423 442 487 373 L487 484 Z M483 772 L394 812 L267 638 L321 609 L483 772 Z " />
<glyph glyph-name="cdotaccent" unicode="&#x10b;" horiz-adv-x="518" d="M487 484 C428 529 378 547 316 547 C158 547 30 420 30 265 C30 112 158 -14 313 -14 C375 -14 428 5 487 47 L487 159 C421 90 373 64 313 64 C205 64 116 155 116 264 C116 376 205 469 312 469 C374 469 423 442 487 373 L487 484 Z M319 739 C285 739 256 711 256 677 C256 641 284 613 319 613 C354 613 382 641 382 676 C382 711 354 739 319 739 L319 739 Z " />
<glyph glyph-name="Ccaron" unicode="&#x10c;" horiz-adv-x="729" d="M693 601 C612 658 545 681 456 681 C226 681 37 493 37 264 C37 39 225 -148 452 -148 C539 -148 614 -124 693 -70 L693 41 C661 11 645 -1 622 -15 C570 -46 508 -64 452 -64 C377 -64 299 -34 238 19 C167 81 128 167 128 263 C128 446 274 597 451 597 C500 597 551 584 598 561 C633 544 653 529 693 491 L693 601 Z M619 875 L557 924 L452 834 L347 924 L283 875 L452 732 L619 875 Z " />
<glyph glyph-name="ccaron" unicode="&#x10d;" horiz-adv-x="518" d="M487 484 C428 529 378 547 316 547 C158 547 30 420 30 265 C30 112 158 -14 313 -14 C375 -14 428 5 487 47 L487 159 C421 90 373 64 313 64 C205 64 116 155 116 264 C116 376 205 469 312 469 C374 469 423 442 487 373 L487 484 Z M485 750 L425 798 L320 707 L214 798 L153 750 L320 609 L485 750 Z " />
<glyph glyph-name="Dcaron" unicode="&#x10e;" horiz-adv-x="707" d="M73 -134 L236 -134 C366 -134 449 -108 529 -42 C622 34 670 141 670 267 C670 391 621 500 532 574 C454 639 367 667 237 667 L73 667 L73 -134 Z M163 -51 L163 584 L241 584 C340 584 412 561 471 511 C540 453 580 364 580 266 C580 169 541 81 471 23 C410 -29 340 -51 241 -51 L163 -51 Z M477 875 L415 924 L310 834 L205 924 L141 875 L310 732 L477 875 Z " />
<glyph glyph-name="dcaron" unicode="&#x10f;" horiz-adv-x="531" d="M61 0 L186 0 C273 0 330 18 385 62 C448 113 481 183 481 267 C481 349 448 421 387 471 C333 514 274 533 187 533 L61 533 L61 0 Z M147 78 L147 455 L189 455 C250 455 294 442 330 412 C371 377 395 324 395 266 C395 208 372 157 329 122 C293 91 250 78 189 78 L147 78 Z M395 750 L335 798 L230 707 L125 798 L63 750 L230 609 L395 750 Z " />
<glyph glyph-name="Dcroat" unicode="&#x110;" horiz-adv-x="720" d="M87 -134 L250 -134 C379 -134 463 -108 542 -42 C635 34 683 141 683 267 C683 392 635 500 545 574 C467 639 380 667 251 667 L87 667 L87 338 L7 338 L7 258 L87 258 L87 -134 Z M177 -51 L177 258 L369 258 L369 338 L177 338 L177 584 L255 584 C353 584 425 561 484 511 C553 453 593 364 593 267 C593 169 554 82 484 23 C423 -28 353 -51 255 -51 L177 -51 Z " />
<glyph glyph-name="dcroat" unicode="&#x111;" horiz-adv-x="523" d="M72 228 L72 0 L197 0 C285 0 342 18 396 62 C460 113 493 183 493 266 C493 349 460 421 398 471 C345 515 285 533 198 533 L72 533 L72 300 L3 300 L3 228 L72 228 Z M158 228 L286 228 L286 300 L158 300 L158 455 L200 455 C261 455 305 442 341 412 C382 377 406 324 406 266 C406 208 383 156 340 122 C304 91 261 78 200 78 L158 78 L158 228 Z " />
<glyph glyph-name="Emacron" unicode="&#x112;" horiz-adv-x="539" d="M488 584 L488 667 L73 667 L73 -134 L488 -134 L488 -51 L163 -51 L163 263 L479 263 L479 346 L163 346 L163 584 L488 584 Z M104 855 L104 781 L457 781 L457 855 L104 855 Z " />
<glyph glyph-name="emacron" unicode="&#x113;" horiz-adv-x="410" d="M367 455 L367 533 L61 533 L61 0 L367 0 L367 78 L147 78 L147 251 L362 251 L362 329 L147 329 L147 455 L367 455 Z M54 701 L54 629 L374 629 L374 701 L54 701 Z " />
<glyph glyph-name="Ebreve" unicode="&#x114;" horiz-adv-x="539" d="M488 584 L488 667 L73 667 L73 -134 L488 -134 L488 -51 L163 -51 L163 263 L479 263 L479 346 L163 346 L163 584 L488 584 Z M114 901 C118 854 126 831 148 804 C178 766 226 745 280 745 C334 745 378 765 410 804 C433 832 442 856 447 901 L370 901 C357 847 328 821 280 821 C231 821 205 845 191 901 L114 901 Z " />
<glyph glyph-name="ebreve" unicode="&#x115;" horiz-adv-x="403" d="M367 455 L367 533 L61 533 L61 0 L367 0 L367 78 L147 78 L147 251 L361 251 L361 329 L147 329 L147 455 L367 455 Z M40 753 C47 713 57 692 78 668 C111 630 160 609 214 609 C267 609 317 630 350 668 C371 692 380 713 388 753 L315 753 C292 700 265 681 214 681 C163 681 135 701 113 753 L40 753 Z " />
<glyph glyph-name="Edotaccent" unicode="&#x116;" horiz-adv-x="539" d="M488 584 L488 667 L73 667 L73 -134 L488 -134 L488 -51 L163 -51 L163 263 L479 263 L479 346 L163 346 L163 584 L488 584 Z M280 888 C245 888 216 859 216 824 C216 788 245 759 281 759 C316 759 345 788 345 824 C345 859 316 888 280 888 L280 888 Z " />
<glyph glyph-name="edotaccent" unicode="&#x117;" horiz-adv-x="410" d="M367 455 L367 533 L61 533 L61 0 L367 0 L367 78 L147 78 L147 251 L361 251 L361 329 L147 329 L147 455 L367 455 Z M216 739 C182 739 153 711 153 677 C153 641 181 613 216 613 C251 613 279 642 279 676 C279 711 251 739 216 739 L216 739 Z " />
<glyph glyph-name="Eogonek" unicode="&#x118;" horiz-adv-x="539" d="M488 -51 L163 -51 L163 263 L479 263 L479 346 L163 346 L163 584 L488 584 L488 667 L73 667 L73 -134 L410 -134 C343 -174 317 -209 317 -256 C317 -315 367 -361 432 -361 C463 -361 480 -356 502 -342 L511 -268 C487 -282 466 -288 445 -288 C418 -288 397 -268 397 -241 C397 -208 429 -171 488 -134 L488 -51 Z " />
<glyph glyph-name="eogonek" unicode="&#x119;" horiz-adv-x="410" d="M367 78 L147 78 L147 251 L361 251 L361 329 L147 329 L147 455 L367 455 L367 533 L61 533 L61 0 L299 0 C275 -16 272 -19 262 -26 C231 -54 212 -90 212 -124 C212 -180 261 -223 326 -223 C350 -223 368 -219 393 -207 L404 -142 C379 -153 362 -157 338 -157 C304 -157 282 -138 282 -108 C282 -75 310 -40 367 0 L367 78 Z " />
<glyph glyph-name="Ecaron" unicode="&#x11a;" horiz-adv-x="539" d="M488 584 L488 667 L73 667 L73 -134 L488 -134 L488 -51 L163 -51 L163 263 L479 263 L479 346 L163 346 L163 584 L488 584 Z M448 875 L387 924 L281 834 L176 924 L112 875 L281 732 L448 875 Z " />
<glyph glyph-name="ecaron" unicode="&#x11b;" horiz-adv-x="410" d="M367 455 L367 533 L61 533 L61 0 L367 0 L367 78 L147 78 L147 251 L362 251 L362 329 L147 329 L147 455 L367 455 Z M382 750 L322 798 L217 707 L112 798 L50 750 L217 609 L382 750 Z " />
<glyph glyph-name="Gbreve" unicode="&#x11e;" horiz-adv-x="864" d="M493 268 L493 185 L730 185 C727 136 718 105 699 72 C650 -9 548 -64 448 -64 C371 -64 291 -31 229 26 C162 88 126 172 126 264 C126 448 273 597 455 597 C526 597 595 573 651 528 C677 507 695 487 727 446 L792 506 C753 553 731 576 700 599 C631 652 544 681 455 681 C223 681 36 495 36 265 C36 38 222 -148 447 -148 C588 -148 720 -73 785 45 C815 100 827 158 827 247 L827 268 L493 268 Z M294 901 C298 854 306 831 328 804 C358 766 405 745 460 745 C514 745 558 765 589 804 C612 832 621 856 627 901 L550 901 C537 847 507 821 459 821 C411 821 384 845 370 901 L294 901 Z " />
<glyph glyph-name="gbreve" unicode="&#x11f;" horiz-adv-x="602" d="M333 278 L333 200 L481 200 C470 157 461 138 442 119 C406 84 358 64 311 64 C205 64 116 156 116 265 C116 378 205 469 315 469 C371 469 423 444 459 401 C469 389 477 379 492 358 L556 416 C530 447 515 463 497 480 C451 522 383 547 315 547 C158 547 30 421 30 265 C30 112 156 -14 311 -14 C432 -14 541 67 565 174 C571 205 572 214 572 278 L333 278 Z M145 753 C153 713 162 693 183 668 C216 630 266 609 319 609 C373 609 422 630 455 668 C476 692 485 713 493 753 L420 753 C397 700 370 681 319 681 C268 681 240 701 218 753 L145 753 Z " />
<glyph glyph-name="Gcommaaccent" unicode="&#x122;" horiz-adv-x="864" d="M493 268 L493 185 L730 185 C727 136 718 105 699 72 C650 -9 548 -64 448 -64 C371 -64 291 -31 229 26 C162 88 126 172 126 264 C126 448 273 597 455 597 C526 597 595 573 651 528 C677 507 695 487 727 446 L792 506 C753 553 731 576 700 599 C631 652 544 681 455 681 C223 681 36 495 36 265 C36 38 222 -148 447 -148 C588 -148 720 -73 785 45 C815 100 827 158 827 247 L827 268 L493 268 Z M413 -198 L348 -390 L410 -410 L504 -227 L413 -198 Z " />
<glyph glyph-name="gcommaaccent" unicode="&#x123;" horiz-adv-x="602" d="M333 278 L333 200 L481 200 C470 157 461 138 442 119 C406 84 358 64 311 64 C205 64 116 156 116 265 C116 378 205 469 315 469 C371 469 423 444 459 401 C469 389 477 379 492 358 L556 416 C530 447 515 463 497 480 C451 522 383 547 315 547 C158 547 30 421 30 265 C30 112 156 -14 311 -14 C432 -14 541 67 565 174 C571 205 572 214 572 278 L333 278 Z M276 -62 L211 -242 L276 -265 L355 -91 L276 -62 Z " />
<glyph glyph-name="Imacron" unicode="&#x12a;" horiz-adv-x="236" d="M163 667 L73 667 L73 -134 L163 -134 L163 667 Z M-10 855 L-10 781 L246 781 L246 855 L-10 855 Z " />
<glyph glyph-name="imacron" unicode="&#x12b;" horiz-adv-x="208" d="M148 533 L62 533 L62 0 L148 0 L148 533 Z M-2 701 L-2 629 L211 629 L211 701 L-2 701 Z " />
<glyph glyph-name="Iogonek" unicode="&#x12e;" horiz-adv-x="236" d="M164 667 L74 667 L74 -134 L110 -134 C50 -181 31 -210 31 -254 C31 -312 75 -356 134 -356 C155 -356 169 -352 194 -340 L201 -268 C181 -280 170 -283 153 -283 C126 -283 108 -267 108 -242 C108 -215 131 -171 164 -134 L164 667 Z " />
<glyph glyph-name="iogonek" unicode="&#x12f;" horiz-adv-x="208" d="M148 533 L62 533 L62 0 L80 0 C56 -16 52 -19 43 -26 C11 -54 -8 -90 -8 -124 C-8 -180 42 -223 107 -223 C131 -223 149 -219 174 -207 L185 -142 C160 -153 143 -157 119 -157 C84 -157 62 -138 62 -108 C62 -74 86 -45 148 0 L148 533 Z " />
<glyph glyph-name="Idotaccent" unicode="&#x130;" horiz-adv-x="236" d="M163 667 L73 667 L73 -134 L163 -134 L163 667 Z M118 888 C83 888 54 859 54 824 C54 788 83 759 119 759 C154 759 183 788 183 824 C183 859 154 888 118 888 L118 888 Z " />
<glyph glyph-name="dotlessi" unicode="&#x131;" horiz-adv-x="208" d="M147 533 L61 533 L61 0 L147 0 L147 533 Z " />
<glyph glyph-name="Kcommaaccent" unicode="&#x136;" horiz-adv-x="630" d="M163 323 L163 667 L73 667 L73 -134 L163 -134 L163 211 L186 233 L514 -134 L636 -134 L249 294 L624 667 L504 667 L163 323 Z M291 -198 L227 -390 L288 -410 L382 -227 L291 -198 Z " />
<glyph glyph-name="kcommaaccent" unicode="&#x137;" horiz-adv-x="472" d="M147 322 L147 533 L61 533 L61 0 L147 0 L147 222 L162 236 L362 0 L479 0 L228 289 L474 533 L356 533 L147 322 Z M199 -62 L134 -242 L199 -265 L278 -91 L199 -62 Z " />
<glyph glyph-name="Lacute" unicode="&#x139;" horiz-adv-x="410" d="M163 667 L73 667 L73 -134 L383 -134 L383 -51 L163 -51 L163 667 Z M286 872 L205 925 L62 770 L114 731 L286 872 Z " />
<glyph glyph-name="lacute" unicode="&#x13a;" horiz-adv-x="323" d="M147 533 L61 533 L61 0 L301 0 L301 78 L147 78 L147 533 Z M301 772 L212 812 L85 638 L139 609 L301 772 Z " />
<glyph glyph-name="Lcommaaccent" unicode="&#x13b;" horiz-adv-x="410" d="M163 667 L73 667 L73 -134 L383 -134 L383 -51 L163 -51 L163 667 Z M194 -198 L130 -390 L191 -410 L285 -227 L194 -198 Z " />
<glyph glyph-name="lcommaaccent" unicode="&#x13c;" horiz-adv-x="323" d="M147 533 L61 533 L61 0 L301 0 L301 78 L147 78 L147 533 Z M142 -62 L77 -242 L142 -265 L221 -91 L142 -62 Z " />
<glyph glyph-name="Lcaron" unicode="&#x13d;" horiz-adv-x="410" d="M163 667 L73 667 L73 -134 L383 -134 L383 -51 L163 -51 L163 667 Z M291 671 L226 479 L287 460 L382 642 L291 671 Z " />
<glyph glyph-name="lcaron" unicode="&#x13e;" horiz-adv-x="353" d="M147 533 L61 533 L61 0 L301 0 L301 78 L147 78 L147 533 Z M252 547 L188 367 L253 344 L331 518 L252 547 Z " />
<glyph glyph-name="Lslash" unicode="&#x141;" horiz-adv-x="423" d="M177 339 L177 667 L87 667 L87 300 L7 244 L7 153 L87 209 L87 -134 L397 -134 L397 -51 L177 -51 L177 248 L314 344 L314 435 L177 339 Z " />
<glyph glyph-name="lslash" unicode="&#x142;" horiz-adv-x="334" d="M159 327 L159 533 L73 533 L73 270 L12 229 L12 135 L73 176 L73 0 L313 0 L313 78 L159 78 L159 234 L252 296 L252 390 L159 327 Z " />
<glyph glyph-name="Nacute" unicode="&#x143;" horiz-adv-x="860" d="M73 -134 L163 -134 L163 483 L787 -170 L787 667 L697 667 L697 47 L73 700 L73 -134 Z M584 872 L503 925 L360 770 L411 731 L584 872 Z " />
<glyph glyph-name="nacute" unicode="&#x144;" horiz-adv-x="616" d="M61 0 L147 0 L145 376 L554 -44 L554 533 L468 533 L470 155 L61 577 L61 0 Z M471 772 L383 812 L256 638 L309 609 L471 772 Z " />
<glyph glyph-name="Ncommaaccent" unicode="&#x145;" horiz-adv-x="860" d="M73 -134 L163 -134 L163 483 L787 -170 L787 667 L697 667 L697 47 L73 700 L73 -134 Z M387 -198 L322 -390 L383 -410 L478 -227 L387 -198 Z " />
<glyph glyph-name="ncommaaccent" unicode="&#x146;" horiz-adv-x="616" d="M61 0 L147 0 L145 376 L554 -44 L554 533 L468 533 L470 155 L61 577 L61 0 Z M280 -62 L216 -242 L281 -265 L360 -91 L280 -62 Z " />
<glyph glyph-name="Ncaron" unicode="&#x147;" horiz-adv-x="860" d="M73 -134 L163 -134 L163 483 L787 -170 L787 667 L697 667 L697 47 L73 700 L73 -134 Z M598 875 L536 924 L431 834 L325 924 L262 875 L431 732 L598 875 Z " />
<glyph glyph-name="ncaron" unicode="&#x148;" horiz-adv-x="616" d="M61 0 L147 0 L145 376 L554 -44 L554 533 L468 533 L470 155 L61 577 L61 0 Z M474 750 L414 798 L308 707 L203 798 L141 750 L308 609 L474 750 Z " />
<glyph glyph-name="Omacron" unicode="&#x14c;" horiz-adv-x="907" d="M455 681 C229 681 37 493 37 271 C37 163 72 68 141 -8 C220 -95 336 -148 450 -148 C683 -148 871 37 871 266 C871 494 683 681 455 681 L455 681 Z M454 597 C636 597 781 450 781 266 C781 83 634 -64 451 -64 C372 -64 290 -30 229 27 C161 91 127 173 127 271 C127 450 275 597 454 597 L454 597 Z M278 855 L278 781 L630 781 L630 855 L278 855 Z " />
<glyph glyph-name="omacron" unicode="&#x14d;" horiz-adv-x="629" d="M315 547 C161 547 30 420 30 270 C30 112 156 -14 312 -14 C471 -14 599 111 599 266 C599 420 471 547 315 547 L315 547 Z M315 469 C425 469 513 379 513 266 C513 154 424 64 313 64 C204 64 117 155 117 269 C117 379 206 469 315 469 L315 469 Z M155 701 L155 629 L474 629 L474 701 L155 701 Z " />
<glyph glyph-name="Ohungarumlaut" unicode="&#x150;" horiz-adv-x="907" d="M455 681 C229 681 37 493 37 271 C37 163 72 68 141 -8 C220 -95 336 -148 450 -148 C683 -148 871 37 871 266 C871 494 683 681 455 681 L455 681 Z M454 597 C636 597 781 450 781 266 C781 83 634 -64 451 -64 C372 -64 290 -30 229 27 C161 91 127 173 127 271 C127 450 275 597 454 597 L454 597 Z M544 882 L468 925 L326 770 L368 736 L544 882 Z M744 882 L668 925 L526 770 L569 736 L744 882 Z " />
<glyph glyph-name="ohungarumlaut" unicode="&#x151;" horiz-adv-x="629" d="M315 547 C161 547 30 420 30 270 C30 112 156 -14 312 -14 C471 -14 599 111 599 266 C599 420 471 547 315 547 L315 547 Z M315 469 C425 469 513 379 513 266 C513 154 424 64 313 64 C204 64 117 155 117 269 C117 379 206 469 315 469 L315 469 Z M400 773 L315 812 L189 638 L238 610 L400 773 Z M560 773 L475 812 L349 638 L398 610 L560 773 Z " />
<glyph glyph-name="OE" unicode="&#x152;" horiz-adv-x="1228" d="M1185 584 L1185 667 L776 667 L776 510 C746 550 726 572 698 595 C631 651 544 681 453 681 C223 681 37 495 37 265 C37 39 227 -148 456 -148 C588 -148 696 -92 776 20 L776 -134 L1185 -134 L1185 -51 L866 -51 L866 262 L1177 262 L1177 345 L866 345 L866 584 L1185 584 Z M453 597 C630 597 776 447 776 265 C776 83 630 -64 449 -64 C272 -64 128 86 128 271 C128 447 278 597 453 597 L453 597 Z " />
<glyph glyph-name="oe" unicode="&#x153;" horiz-adv-x="833" d="M797 455 L797 533 L502 533 L502 461 C445 521 386 547 309 547 C156 547 30 420 30 265 C30 113 158 -14 311 -14 C387 -14 443 11 502 70 L502 0 L797 0 L797 78 L588 78 L588 251 L791 251 L791 329 L588 329 L588 455 L797 455 Z M310 469 C415 469 502 377 502 265 C502 154 415 64 307 64 C202 64 117 156 117 269 C117 377 206 469 310 469 L310 469 Z " />
<glyph glyph-name="Racute" unicode="&#x154;" horiz-adv-x="560" d="M282 224 C403 234 483 321 483 442 C483 518 450 586 395 623 C348 655 294 667 203 667 L73 667 L73 -134 L163 -134 L163 217 L186 217 L428 -134 L537 -134 L282 224 Z M163 296 L163 584 L216 584 C271 584 308 576 337 558 C373 535 395 491 395 443 C395 396 375 353 343 329 C314 306 275 296 219 296 L163 296 Z M413 872 L332 925 L189 770 L240 731 L413 872 Z " />
<glyph glyph-name="racute" unicode="&#x155;" horiz-adv-x="446" d="M265 228 C336 245 380 301 380 375 C380 429 356 476 316 503 C282 525 245 533 181 533 L61 533 L61 0 L147 0 L147 220 L171 220 L323 0 L427 0 L265 228 Z M147 295 L147 455 L190 455 C261 455 295 430 295 376 C295 323 259 295 191 295 L147 295 Z M374 772 L285 812 L159 638 L212 609 L374 772 Z " />
<glyph glyph-name="Rcommaaccent" unicode="&#x156;" horiz-adv-x="560" d="M282 224 C403 234 483 321 483 442 C483 518 450 586 395 623 C348 655 294 667 203 667 L73 667 L73 -134 L163 -134 L163 217 L186 217 L428 -134 L537 -134 L282 224 Z M163 296 L163 584 L216 584 C271 584 308 576 337 558 C373 535 395 491 395 443 C395 396 375 353 343 329 C314 306 275 296 219 296 L163 296 Z M244 -198 L180 -390 L241 -410 L335 -227 L244 -198 Z " />
<glyph glyph-name="rcommaaccent" unicode="&#x157;" horiz-adv-x="446" d="M265 228 C336 245 380 301 380 375 C380 429 356 476 316 503 C282 525 245 533 181 533 L61 533 L61 0 L147 0 L147 220 L171 220 L323 0 L427 0 L265 228 Z M147 295 L147 455 L190 455 C261 455 295 430 295 376 C295 323 259 295 191 295 L147 295 Z M183 -62 L118 -242 L184 -265 L262 -91 L183 -62 Z " />
<glyph glyph-name="Rcaron" unicode="&#x158;" horiz-adv-x="560" d="M282 224 C403 234 483 321 483 442 C483 518 450 586 395 623 C348 655 294 667 203 667 L73 667 L73 -134 L163 -134 L163 217 L186 217 L428 -134 L537 -134 L282 224 Z M163 296 L163 584 L216 584 C271 584 308 576 337 558 C373 535 395 491 395 443 C395 396 375 353 343 329 C314 306 275 296 219 296 L163 296 Z M423 875 L361 924 L255 834 L150 924 L87 875 L255 732 L423 875 Z " />
<glyph glyph-name="rcaron" unicode="&#x159;" horiz-adv-x="446" d="M265 228 C337 245 380 301 380 375 C380 429 356 476 316 503 C282 525 245 533 181 533 L61 533 L61 0 L147 0 L147 220 L171 220 L323 0 L427 0 L265 228 Z M147 295 L147 455 L190 455 C261 455 295 430 295 376 C295 323 259 295 191 295 L147 295 Z M376 750 L316 798 L211 707 L106 798 L44 750 L211 609 L376 750 Z " />
<glyph glyph-name="Sacute" unicode="&#x15a;" horiz-adv-x="555" d="M495 555 C447 639 378 681 288 681 C160 681 64 593 64 474 C64 386 111 329 226 277 C337 227 337 227 368 208 C412 180 434 142 434 94 C434 6 363 -64 273 -64 C221 -64 171 -40 142 0 C126 22 119 41 110 83 L23 59 C35 8 47 -19 71 -51 C118 -114 189 -148 270 -148 C413 -148 524 -40 524 99 C524 199 471 263 343 319 C233 368 233 368 204 387 C171 410 154 438 154 474 C154 544 211 597 287 597 C349 597 383 575 424 509 L495 555 Z M448 872 L367 925 L224 770 L275 731 L448 872 Z " />
<glyph glyph-name="sacute" unicode="&#x15b;" horiz-adv-x="407" d="M366 443 C326 516 278 547 208 547 C115 547 44 482 44 398 C44 335 79 295 162 260 C236 229 236 229 256 217 C282 202 293 183 293 156 C293 104 252 64 200 64 C165 64 133 81 118 108 C109 125 104 139 99 170 L16 146 C39 41 101 -14 196 -14 C299 -14 379 62 379 160 C379 230 341 275 248 313 C176 343 176 343 157 354 C139 366 131 379 131 397 C131 438 164 469 207 469 C247 469 265 456 293 405 L297 398 L366 443 Z M377 772 L289 812 L162 638 L216 609 L377 772 Z " />
<glyph glyph-name="scircumflex" unicode="&#x15d;" horiz-adv-x="407" d="M366 443 C326 516 278 547 208 547 C115 547 44 482 44 398 C44 335 79 295 162 260 C236 229 236 229 256 217 C282 202 293 183 293 156 C293 104 252 64 200 64 C165 64 133 81 118 108 C109 125 104 139 99 170 L16 146 C39 41 101 -14 196 -14 C299 -14 379 62 379 160 C379 230 341 275 248 313 C176 343 176 343 157 354 C139 366 131 379 131 397 C131 438 164 469 207 469 C247 469 265 456 293 405 L297 398 L366 443 Z M48 656 L108 609 L213 699 L318 609 L380 656 L213 798 L48 656 Z " />
<glyph glyph-name="Scedilla" unicode="&#x15e;" horiz-adv-x="555" d="M495 555 C447 639 378 681 288 681 C160 681 64 593 64 474 C64 386 111 329 226 277 C337 227 337 227 368 208 C412 180 434 142 434 94 C434 6 363 -64 273 -64 C221 -64 171 -40 142 0 C126 22 119 41 110 83 L23 59 C35 8 47 -19 71 -51 C118 -114 189 -148 270 -148 C413 -148 524 -40 524 99 C524 199 471 263 343 319 C233 368 233 368 204 387 C171 410 154 438 154 474 C154 544 211 597 287 597 C349 597 383 575 424 509 L495 555 Z M338 -229 L253 -190 L145 -353 L206 -385 L338 -229 Z " />
<glyph glyph-name="scedilla" unicode="&#x15f;" horiz-adv-x="407" d="M366 443 C326 516 278 547 208 547 C115 547 44 482 44 398 C44 335 79 295 162 260 C236 229 236 229 256 217 C282 202 293 183 293 156 C293 104 252 64 200 64 C165 64 133 81 118 108 C109 125 104 139 99 170 L16 146 C39 41 101 -14 196 -14 C299 -14 379 62 379 160 C379 230 341 275 248 313 C176 343 176 343 157 354 C139 366 131 379 131 397 C131 438 164 469 207 469 C247 469 265 456 293 405 L297 398 L366 443 Z M288 -94 L209 -62 L108 -219 L167 -249 L288 -94 Z " />
<glyph glyph-name="Scaron" unicode="&#x160;" horiz-adv-x="555" d="M495 555 C447 639 378 681 288 681 C160 681 64 593 64 474 C64 386 111 329 226 277 C337 227 337 227 368 208 C412 180 434 142 434 94 C434 6 363 -64 273 -64 C221 -64 171 -40 142 0 C126 22 119 41 110 83 L23 59 C35 8 47 -19 71 -51 C118 -114 189 -148 270 -148 C413 -148 524 -40 524 99 C524 199 471 263 343 319 C233 368 233 368 204 387 C171 410 154 438 154 474 C154 544 211 597 287 597 C349 597 383 575 424 509 L495 555 Z M458 875 L396 924 L290 834 L185 924 L122 875 L291 732 L458 875 Z " />
<glyph glyph-name="scaron" unicode="&#x161;" horiz-adv-x="407" d="M366 443 C326 516 278 547 208 547 C115 547 44 482 44 398 C44 335 79 295 162 260 C236 229 236 229 256 217 C282 202 293 183 293 156 C293 104 252 64 200 64 C165 64 133 81 118 108 C109 125 104 139 99 170 L16 146 C39 41 101 -14 196 -14 C299 -14 379 62 379 160 C379 230 341 275 248 313 C176 343 176 343 157 354 C139 366 131 379 131 397 C131 438 164 469 207 469 C247 469 265 456 293 405 L297 398 L366 443 Z M380 750 L320 798 L214 707 L109 798 L48 750 L215 609 L380 750 Z " />
<glyph glyph-name="Tcommaaccent" unicode="&#x162;" horiz-adv-x="498" d="M294 584 L488 584 L488 667 L10 667 L10 584 L204 584 L204 -134 L294 -134 L294 584 Z M210 -198 L145 -390 L206 -410 L301 -227 L210 -198 Z " />
<glyph glyph-name="tcommaaccent" unicode="&#x163;" horiz-adv-x="361" d="M224 455 L354 455 L354 533 L8 533 L8 455 L138 455 L138 0 L224 0 L224 455 Z M154 -62 L89 -242 L154 -265 L233 -91 L154 -62 Z " />
<glyph glyph-name="Tcaron" unicode="&#x164;" horiz-adv-x="498" d="M294 584 L488 584 L488 667 L10 667 L10 584 L204 584 L204 -134 L294 -134 L294 584 Z M417 875 L355 924 L250 834 L145 924 L81 875 L250 732 L417 875 Z " />
<glyph glyph-name="tcaron" unicode="&#x165;" horiz-adv-x="361" d="M224 455 L354 455 L354 533 L8 533 L8 455 L138 455 L138 0 L224 0 L224 455 Z M347 750 L287 798 L182 707 L76 798 L15 750 L182 609 L347 750 Z " />
<glyph glyph-name="Umacron" unicode="&#x16a;" horiz-adv-x="704" d="M157 667 L67 667 L67 152 C67 65 82 12 119 -37 C172 -106 261 -148 353 -148 C444 -148 533 -106 585 -37 C623 12 638 65 638 152 L638 667 L548 667 L548 176 C548 92 542 57 521 23 C490 -29 421 -64 353 -64 C284 -64 215 -28 184 23 C163 57 157 93 157 176 L157 667 Z M176 855 L176 781 L529 781 L529 855 L176 855 Z " />
<glyph glyph-name="umacron" unicode="&#x16b;" horiz-adv-x="516" d="M142 533 L56 533 L56 194 C56 135 67 98 93 63 C131 15 193 -14 258 -14 C323 -14 385 15 422 63 C449 98 460 136 460 194 L460 533 L374 533 L374 210 C374 157 370 135 358 115 C340 85 299 64 258 64 C218 64 176 85 158 115 C146 135 142 157 142 210 L142 533 Z M98 701 L98 629 L418 629 L418 701 L98 701 Z " />
<glyph glyph-name="Uring" unicode="&#x16e;" horiz-adv-x="704" d="M157 667 L67 667 L67 152 C67 65 82 12 119 -37 C172 -106 261 -148 353 -148 C444 -148 533 -106 585 -37 C623 12 638 65 638 152 L638 667 L548 667 L548 176 C548 92 542 57 521 23 C490 -29 421 -64 353 -64 C284 -64 215 -28 184 23 C163 57 157 93 157 176 L157 667 Z M352 942 C293 942 244 893 244 834 C244 773 292 724 353 724 C412 724 461 773 461 833 C461 893 413 942 352 942 L352 942 Z M352 884 C381 884 403 861 403 833 C403 805 380 782 353 782 C324 782 302 805 302 834 C302 861 325 884 352 884 L352 884 Z " />
<glyph glyph-name="uring" unicode="&#x16f;" horiz-adv-x="516" d="M142 533 L56 533 L56 194 C56 135 67 98 93 63 C131 15 193 -14 258 -14 C323 -14 385 15 422 63 C449 98 460 136 460 194 L460 533 L374 533 L374 210 C374 157 370 135 358 115 C340 85 299 64 258 64 C218 64 176 85 158 115 C146 135 142 157 142 210 L142 533 Z M258 816 C202 816 155 769 155 714 C155 656 201 609 259 609 C316 609 362 656 362 713 C362 770 316 816 258 816 L258 816 Z M258 763 C287 763 309 741 309 713 C309 685 286 663 259 663 C230 663 208 685 208 714 C208 741 231 763 258 763 L258 763 Z " />
<glyph glyph-name="Uhungarumlaut" unicode="&#x170;" horiz-adv-x="704" d="M157 667 L67 667 L67 152 C67 65 82 12 119 -37 C172 -106 261 -148 353 -148 C444 -148 533 -106 585 -37 C623 12 638 65 638 152 L638 667 L548 667 L548 176 C548 92 542 57 521 23 C490 -29 421 -64 353 -64 C284 -64 215 -28 184 23 C163 57 157 93 157 176 L157 667 Z M435 882 L358 925 L216 770 L259 736 L435 882 Z M635 882 L559 925 L417 770 L459 736 L635 882 Z " />
<glyph glyph-name="uhungarumlaut" unicode="&#x171;" horiz-adv-x="516" d="M142 533 L56 533 L56 194 C56 135 67 98 93 63 C131 15 193 -14 258 -14 C323 -14 385 15 422 63 C449 98 460 136 460 194 L460 533 L374 533 L374 210 C374 157 370 135 358 115 C340 85 299 64 258 64 C218 64 176 85 158 115 C146 135 142 157 142 210 L142 533 Z M343 773 L259 812 L132 638 L182 610 L343 773 Z M504 773 L419 812 L292 638 L342 610 L504 773 Z " />
<glyph glyph-name="Uogonek" unicode="&#x172;" horiz-adv-x="704" d="M561 -260 C537 -274 517 -280 496 -280 C467 -280 448 -259 448 -229 C448 -195 478 -147 537 -89 C618 -10 638 37 638 152 L638 667 L548 667 L548 176 C548 92 542 57 521 23 C490 -29 421 -64 353 -64 C284 -64 215 -28 184 23 C163 57 157 93 157 176 L157 667 L67 667 L67 152 C67 65 82 12 119 -37 C173 -107 261 -148 357 -148 C388 -148 406 -145 445 -134 C387 -178 368 -206 368 -248 C368 -307 418 -353 482 -353 C513 -353 531 -348 553 -334 L561 -260 Z " />
<glyph glyph-name="uogonek" unicode="&#x173;" horiz-adv-x="516" d="M374 533 L374 210 C374 157 370 135 358 115 C340 85 299 64 258 64 C218 64 176 85 158 115 C146 135 142 157 142 210 L142 533 L56 533 L56 194 C56 135 67 97 93 63 C130 16 193 -14 256 -14 C260 -14 268 -14 277 -13 C254 -43 245 -66 245 -94 C245 -148 295 -191 359 -191 C383 -191 401 -187 426 -175 L437 -110 C412 -121 395 -125 371 -125 C337 -125 315 -106 315 -75 C315 -43 336 -13 387 29 C442 74 460 115 460 194 L460 533 L374 533 Z " />
<glyph glyph-name="Ydieresis" unicode="&#x178;" horiz-adv-x="618" d="M262 210 L262 -134 L352 -134 L352 210 L618 667 L515 667 L307 309 L103 667 L0 667 L262 210 Z M196 886 C162 886 134 858 134 825 C134 791 161 763 196 763 C229 763 257 791 257 825 C257 859 230 886 196 886 L196 886 Z M424 886 C390 886 362 858 362 825 C362 791 389 763 424 763 C457 763 485 791 485 825 C485 859 458 886 424 886 L424 886 Z " />
<glyph glyph-name="Zacute" unicode="&#x179;" horiz-adv-x="614" d="M152 -51 L589 667 L60 667 L60 584 L441 584 L4 -134 L578 -134 L578 -51 L152 -51 Z M475 872 L394 925 L251 770 L303 731 L475 872 Z " />
<glyph glyph-name="zacute" unicode="&#x17a;" horiz-adv-x="458" d="M146 78 L439 533 L49 533 L49 455 L295 455 L2 0 L420 0 L420 78 L146 78 Z M384 772 L295 812 L169 638 L222 609 L384 772 Z " />
<glyph glyph-name="Zdotaccent" unicode="&#x17b;" horiz-adv-x="614" d="M152 -51 L589 667 L60 667 L60 584 L441 584 L4 -134 L578 -134 L578 -51 L152 -51 Z M316 888 C281 888 252 859 252 824 C252 788 281 759 317 759 C352 759 381 788 381 824 C381 859 352 888 316 888 L316 888 Z " />
<glyph glyph-name="zdotaccent" unicode="&#x17c;" horiz-adv-x="458" d="M146 78 L439 533 L49 533 L49 455 L295 455 L2 0 L420 0 L420 78 L146 78 Z M220 739 C186 739 157 711 157 677 C157 641 185 613 220 613 C255 613 283 642 283 676 C283 711 255 739 220 739 L220 739 Z " />
<glyph glyph-name="Zcaron" unicode="&#x17d;" horiz-adv-x="614" d="M152 -51 L589 667 L60 667 L60 584 L441 584 L4 -134 L578 -134 L578 -51 L152 -51 Z M485 875 L423 924 L318 834 L212 924 L149 875 L318 732 L485 875 Z " />
<glyph glyph-name="zcaron" unicode="&#x17e;" horiz-adv-x="458" d="M146 78 L439 533 L49 533 L49 455 L295 455 L2 0 L420 0 L420 78 L146 78 Z M387 750 L326 798 L221 707 L116 798 L54 750 L221 609 L387 750 Z " />
<glyph glyph-name="florin" unicode="&#x192;" horiz-adv-x="361" d="M213 352 L232 454 C244 515 256 531 289 531 C304 531 310 530 333 520 L347 590 C316 600 308 601 289 601 C217 601 176 560 160 473 L139 352 L76 352 L66 288 L127 288 L85 57 C77 15 65 -23 54 -36 C37 -57 14 -67 -20 -67 C-26 -67 -30 -67 -50 -66 L-65 -134 C-35 -138 -31 -138 -18 -138 C28 -138 69 -124 98 -99 C128 -72 142 -37 158 52 L202 288 L292 288 L302 352 L213 352 Z " />
<glyph glyph-name="uni01D3" unicode="&#x1d3;" horiz-adv-x="704" d="M157 667 L67 667 L67 152 C67 65 82 12 119 -37 C172 -106 261 -148 353 -148 C444 -148 533 -106 585 -37 C623 12 638 65 638 152 L638 667 L548 667 L548 176 C548 92 542 57 521 23 C490 -29 421 -64 353 -64 C284 -64 215 -28 184 23 C163 57 157 93 157 176 L157 667 Z M521 875 L459 924 L353 834 L248 924 L184 875 L353 732 L521 875 Z " />
<glyph glyph-name="uni01D4" unicode="&#x1d4;" horiz-adv-x="516" d="M142 533 L56 533 L56 194 C56 135 67 98 93 63 C131 15 193 -14 258 -14 C323 -14 385 15 422 63 C449 98 460 136 460 194 L460 533 L374 533 L374 210 C374 157 370 135 358 115 C340 85 299 64 258 64 C218 64 176 85 158 115 C146 135 142 157 142 210 L142 533 Z M424 750 L364 798 L259 707 L154 798 L92 750 L259 609 L424 750 Z " />
<glyph glyph-name="Scommaaccent" unicode="&#x218;" horiz-adv-x="555" d="M495 555 C447 639 378 681 288 681 C160 681 64 593 64 474 C64 386 111 329 226 277 C337 227 337 227 368 208 C412 180 434 142 434 94 C434 6 363 -64 273 -64 C221 -64 171 -40 142 0 C126 22 119 41 110 83 L23 59 C35 8 47 -19 71 -51 C118 -114 189 -148 270 -148 C413 -148 524 -40 524 99 C524 199 471 263 343 319 C233 368 233 368 204 387 C171 410 154 438 154 474 C154 544 211 597 287 597 C349 597 383 575 424 509 L495 555 Z M247 -198 L182 -390 L243 -410 L338 -227 L247 -198 Z " />
<glyph glyph-name="scommaaccent" unicode="&#x219;" horiz-adv-x="407" d="M366 443 C326 516 278 547 208 547 C115 547 44 482 44 398 C44 335 79 295 162 260 C236 229 236 229 256 217 C282 202 293 183 293 156 C293 104 252 64 200 64 C165 64 133 81 118 108 C109 125 104 139 99 170 L16 146 C39 41 101 -14 196 -14 C299 -14 379 62 379 160 C379 230 341 275 248 313 C176 343 176 343 157 354 C139 366 131 379 131 397 C131 438 164 469 207 469 C247 469 265 456 293 405 L297 398 L366 443 Z M170 -62 L106 -242 L171 -265 L250 -91 L170 -62 Z " />
<glyph glyph-name="uni021A" unicode="&#x21a;" horiz-adv-x="498" d="M294 584 L488 584 L488 667 L10 667 L10 584 L204 584 L204 -134 L294 -134 L294 584 Z M210 -198 L145 -390 L206 -410 L301 -227 L210 -198 Z " />
<glyph glyph-name="uni021B" unicode="&#x21b;" horiz-adv-x="361" d="M224 455 L354 455 L354 533 L8 533 L8 455 L138 455 L138 0 L224 0 L224 455 Z M154 -62 L89 -242 L154 -265 L233 -91 L154 -62 Z " />
<glyph glyph-name="circumflex" unicode="&#x2c6;" horiz-adv-x="500" d="M84 656 L144 609 L250 699 L355 609 L416 656 L249 798 L84 656 Z " />
<glyph glyph-name="caron" unicode="&#x2c7;" horiz-adv-x="500" d="M416 750 L356 798 L251 707 L146 798 L84 750 L251 609 L416 750 Z " />
<glyph glyph-name="uni02C9" unicode="&#x2c9;" horiz-adv-x="500" d="M90 701 L90 629 L410 629 L410 701 L90 701 Z " />
<glyph glyph-name="breve" unicode="&#x2d8;" horiz-adv-x="500" d="M76 753 C83 713 93 692 114 668 C147 630 196 609 250 609 C303 609 353 630 386 668 C407 692 416 713 424 753 L351 753 C328 700 301 681 250 681 C199 681 171 701 149 753 L76 753 Z " />
<glyph glyph-name="dotaccent" unicode="&#x2d9;" horiz-adv-x="500" d="M250 739 C216 739 187 711 187 677 C187 641 215 613 250 613 C285 613 313 642 313 676 C313 711 285 739 250 739 L250 739 Z " />
<glyph glyph-name="ring" unicode="&#x2da;" horiz-adv-x="500" d="M250 816 C194 816 147 770 147 714 C147 655 193 609 251 609 C308 609 354 656 354 713 C354 770 308 816 250 816 L250 816 Z M250 763 C279 763 301 741 301 713 C301 685 278 663 251 663 C222 663 200 685 200 714 C200 741 223 763 250 763 L250 763 Z " />
<glyph glyph-name="ogonek" unicode="&#x2db;" horiz-adv-x="500" d="M356 0 C295 -41 269 -78 269 -124 C269 -180 319 -223 384 -223 C408 -223 425 -219 451 -207 L462 -142 C436 -153 419 -157 396 -157 C361 -157 339 -138 339 -108 C339 -75 365 -42 424 0 L356 0 Z " />
<glyph glyph-name="tilde" unicode="&#x2dc;" horiz-adv-x="500" d="M116 609 C134 646 147 658 169 658 C184 658 205 651 241 635 C287 614 301 610 323 610 C372 610 410 639 436 696 L386 736 C365 699 350 686 328 686 C313 686 303 690 259 710 C222 727 199 734 176 734 C147 734 119 721 100 701 C89 688 82 679 65 651 L116 609 Z " />
<glyph glyph-name="hungarumlaut" unicode="&#x2dd;" horiz-adv-x="500" d="M335 773 L251 812 L124 638 L173 610 L335 773 Z M495 773 L411 812 L284 638 L334 610 L495 773 Z " />
<glyph glyph-name="uni2011" unicode="&#x2011;" horiz-adv-x="218" d="M0 295 L0 218 L218 218 L218 295 L0 295 Z " />
<glyph glyph-name="figuredash" unicode="&#x2012;" horiz-adv-x="522" d="M61 295 L61 218 L461 218 L461 295 L61 295 Z " />
<glyph glyph-name="endash" unicode="&#x2013;" horiz-adv-x="522" d="M61 295 L61 218 L461 218 L461 295 L61 295 Z " />
<glyph glyph-name="emdash" unicode="&#x2014;" horiz-adv-x="653" d="M0 295 L0 218 L653 218 L653 295 L0 295 Z " />
<glyph glyph-name="afii00208" unicode="&#x2015;" horiz-adv-x="653" d="M0 295 L0 218 L653 218 L653 295 L0 295 Z " />
<glyph glyph-name="quoteleft" unicode="&#x2018;" horiz-adv-x="240" d="M109 390 L209 667 L152 690 L31 419 L109 390 Z " />
<glyph glyph-name="quoteright" unicode="&#x2019;" horiz-adv-x="240" d="M130 695 L31 419 L88 396 L209 667 L130 695 Z " />
<glyph glyph-name="quotesinglbase" unicode="&#x201a;" horiz-adv-x="240" d="M117 129 L18 -148 L75 -171 L196 100 L117 129 Z " />
<glyph glyph-name="quotedblleft" unicode="&#x201c;" horiz-adv-x="416" d="M285 390 L385 667 L328 690 L207 419 L285 390 Z M109 390 L209 667 L152 690 L31 419 L109 390 Z " />
<glyph glyph-name="quotedblright" unicode="&#x201d;" horiz-adv-x="416" d="M130 695 L31 419 L88 396 L209 667 L130 695 Z M306 695 L207 419 L264 396 L385 667 L306 695 Z " />
<glyph glyph-name="quotedblbase" unicode="&#x201e;" horiz-adv-x="416" d="M117 126 L18 -151 L75 -174 L196 97 L117 126 Z M293 126 L194 -151 L251 -174 L372 97 L293 126 Z " />
<glyph glyph-name="dagger" unicode="&#x2020;" horiz-adv-x="520" d="M217 667 L217 470 L40 470 L40 387 L217 387 L217 -134 L303 -134 L303 387 L480 387 L480 470 L303 470 L303 667 L217 667 Z " />
<glyph glyph-name="daggerdbl" unicode="&#x2021;" horiz-adv-x="520" d="M217 667 L217 470 L40 470 L40 387 L217 387 L217 146 L40 146 L40 63 L217 63 L217 -134 L303 -134 L303 63 L480 63 L480 146 L303 146 L303 387 L480 387 L480 470 L303 470 L303 667 L217 667 Z " />
<glyph glyph-name="bullet" unicode="&#x2022;" horiz-adv-x="667" d="M336 404 C258 404 196 343 196 265 C196 189 258 127 335 127 C411 127 473 189 473 266 C473 341 411 404 336 404 L336 404 Z " />
<glyph glyph-name="ellipsis" unicode="&#x2026;" horiz-adv-x="720" d="M120 116 C88 116 61 89 61 57 C61 24 87 -3 121 -3 C154 -3 180 24 180 57 C180 90 153 116 120 116 L120 116 Z M360 116 C328 116 301 89 301 57 C301 24 327 -3 361 -3 C394 -3 420 24 420 57 C420 90 393 116 360 116 L360 116 Z M600 116 C568 116 541 89 541 57 C541 24 567 -3 601 -3 C634 -3 660 24 660 57 C660 90 633 116 600 116 L600 116 Z " />
<glyph glyph-name="perthousand" unicode="&#x2030;" horiz-adv-x="1124" d="M182 580 C95 580 27 503 27 406 C27 304 93 228 182 228 C269 228 336 305 336 405 C336 504 270 580 182 580 L182 580 Z M181 526 C235 526 277 473 277 404 C277 335 235 281 182 281 C127 281 86 334 86 404 C86 473 128 526 181 526 L181 526 Z M530 598 L195 0 L240 -27 L575 573 L530 598 Z M589 346 C502 346 434 269 434 172 C434 70 500 -6 589 -6 C676 -6 743 71 743 171 C743 270 677 346 589 346 L589 346 Z M588 292 C642 292 684 239 684 170 C684 101 642 47 589 47 C534 47 493 100 493 170 C493 239 535 292 588 292 L588 292 Z M942 346 C855 346 787 269 787 172 C787 70 853 -6 942 -6 C1029 -6 1096 71 1096 171 C1096 270 1030 346 942 346 L942 346 Z M941 292 C995 292 1037 239 1037 170 C1037 101 995 47 942 47 C887 47 846 100 846 170 C846 239 888 292 941 292 L941 292 Z " />
<glyph glyph-name="guilsinglleft" unicode="&#x2039;" horiz-adv-x="319" d="M125 256 L268 437 L212 481 L33 256 L212 36 L268 80 L125 256 Z " />
<glyph glyph-name="guilsinglright" unicode="&#x203a;" horiz-adv-x="319" d="M194 256 L51 80 L107 36 L286 256 L107 481 L51 437 L194 256 Z " />
<glyph glyph-name="uni203E" unicode="&#x203e;" horiz-adv-x="500" d="M0 861 L0 798 L500 798 L500 861 L0 861 Z " />
<glyph glyph-name="fraction" unicode="&#x2044;" horiz-adv-x="100" d="M195 598 L-140 0 L-95 -27 L240 573 L195 598 Z " />
<glyph glyph-name="franc" unicode="&#x20a3;" horiz-adv-x="532" d="M331 501 L331 573 L63 573 L63 0 L139 0 L139 277 L325 277 L325 349 L139 349 L139 501 L331 501 Z M353 260 L353 0 L417 0 L417 132 C417 186 429 207 459 207 C466 207 470 206 479 200 C480 199 483 197 485 196 L518 251 C492 266 485 268 466 268 C445 268 433 262 417 244 L417 260 L353 260 Z " />
<glyph glyph-name="peseta" unicode="&#x20a7;" horiz-adv-x="723" d="M139 246 L187 246 C300 246 371 308 371 409 C371 457 351 502 317 532 C282 561 241 573 171 573 L63 573 L63 0 L139 0 L139 246 Z M139 316 L139 501 L179 501 C257 501 296 471 296 410 C296 350 255 316 183 316 L139 316 Z M436 202 L485 202 L485 260 L436 260 L436 347 L372 347 L372 260 L341 260 L341 202 L372 202 L372 0 L436 0 L436 202 Z M686 212 C664 253 639 269 600 269 C552 269 515 235 515 191 C515 153 534 134 592 112 C621 101 629 94 629 79 C629 63 616 52 598 52 C577 52 568 60 552 93 L497 68 C506 46 506 46 511 38 C530 10 562 -7 598 -7 C654 -7 696 32 696 83 C696 124 677 144 615 168 C587 178 579 184 579 194 C579 203 588 210 598 210 C612 210 619 204 630 184 L686 212 Z " />
<glyph glyph-name="Euro" unicode="&#x20ac;" horiz-adv-x="560" d="M27 419 L5 362 L79 362 C78 348 78 337 78 328 L78 304 L27 304 L4 247 L84 247 C114 76 204 -13 348 -13 C405 -13 466 2 510 27 L510 125 C430 82 396 71 350 71 C263 71 205 132 183 247 L393 247 L417 304 L174 304 L174 325 C174 338 174 348 176 362 L442 362 L465 419 L185 419 C206 529 264 591 346 591 C399 591 438 575 510 526 L544 608 C480 654 422 674 353 674 C212 674 119 586 86 419 L27 419 Z " />
<glyph glyph-name="afii61248" unicode="&#x2105;" horiz-adv-x="260" d="M130 339 C102 339 78 316 78 288 C78 258 101 235 130 235 C159 235 182 258 182 287 C182 316 159 339 130 339 L130 339 Z " />
<glyph glyph-name="trademark" unicode="&#x2122;" horiz-adv-x="727" d="M155 615 L243 615 L243 667 L13 667 L13 615 L100 615 L100 287 L155 287 L155 615 Z M279 287 L332 287 L368 518 L487 268 L607 518 L642 287 L695 287 L634 692 L487 389 L344 692 L279 287 Z " />
<glyph glyph-name="uni2126" unicode="&#x2126;" horiz-adv-x="667" d="M28 0 L288 0 L288 59 C162 129 100 226 100 352 C100 503 202 619 334 619 C465 619 567 502 567 352 C567 228 503 128 379 59 L379 0 L639 0 L639 63 L453 63 C576 133 640 236 640 362 C640 544 507 683 333 683 C161 683 27 543 27 362 C27 236 91 133 214 63 L28 63 L28 0 Z " />
<glyph glyph-name="partialdiff" unicode="&#x2202;" horiz-adv-x="500" d="M87 612 C156 602 203 584 258 548 C326 499 356 457 387 368 L391 357 C367 385 358 394 348 403 C324 423 284 435 243 435 C124 435 32 340 32 216 C32 89 127 -12 248 -12 C316 -12 379 19 419 72 C451 115 467 170 467 241 C467 372 421 489 339 566 C276 624 206 655 96 670 L87 612 Z M257 380 C340 380 400 312 400 218 C400 120 337 47 252 47 C167 47 99 121 99 213 C99 308 167 380 257 380 L257 380 Z " />
<glyph glyph-name="emptyset" unicode="&#x2205;" horiz-adv-x="618" d="M496 655 L448 680 L395 574 C364 586 340 590 310 590 C175 590 67 482 67 347 C67 265 107 191 176 144 L123 38 L172 13 L225 119 C255 108 279 104 309 104 C444 104 552 212 552 347 C552 429 513 502 443 550 L496 655 Z M417 500 C468 462 496 408 496 347 C496 243 413 160 309 160 C288 160 273 163 251 169 L417 500 Z M202 194 C150 233 123 286 123 347 C123 451 206 534 310 534 C331 534 347 531 369 524 L202 194 Z " />
<glyph glyph-name="Delta" unicode="&#x2206;" horiz-adv-x="620" d="M6 0 L614 0 L347 667 L273 667 L6 0 Z M100 63 L310 589 L519 63 L100 63 Z " />
<glyph glyph-name="product" unicode="&#x220f;" horiz-adv-x="667" d="M27 750 L27 691 L101 691 L101 -191 L27 -191 L27 -250 L242 -250 L242 -191 L166 -191 L166 691 L499 691 L499 -191 L423 -191 L423 -250 L639 -250 L639 -191 L565 -191 L565 691 L639 691 L639 750 L27 750 Z " />
<glyph glyph-name="summation" unicode="&#x2211;" horiz-adv-x="667" d="M596 750 L34 750 L34 675 L279 269 L34 -173 L34 -250 L605 -250 L605 -22 L536 -22 L533 -184 L115 -184 L364 270 L114 683 L523 683 L530 522 L596 522 L596 750 Z " />
<glyph glyph-name="minus" unicode="&#x2212;" horiz-adv-x="520" d="M25 256 L496 256 L496 317 L25 317 L25 256 Z " />
<glyph glyph-name="uni2219" unicode="&#x2219;" horiz-adv-x="240" d="M120 326 C88 326 61 299 61 267 C61 234 87 207 121 207 C154 207 180 234 180 267 C180 300 153 326 120 326 L120 326 Z " />
<glyph glyph-name="radical" unicode="&#x221a;" horiz-adv-x="667" d="M667 827 L420 827 L201 93 L123 357 L0 357 L0 296 L79 296 L166 0 L244 0 L473 766 L667 766 L667 827 Z " />
<glyph glyph-name="infinity" unicode="&#x221e;" horiz-adv-x="667" d="M334 250 C389 169 437 136 502 136 C588 136 648 198 648 285 C648 375 588 437 502 437 C436 437 389 406 332 324 C279 403 229 437 165 437 C80 437 19 375 19 289 C19 199 79 136 165 136 C231 136 275 165 334 250 L334 250 Z M360 287 C410 362 446 389 496 389 C552 389 593 346 593 287 C593 227 553 184 497 184 C446 184 408 212 360 287 L360 287 Z M306 286 C255 209 222 184 171 184 C115 184 74 226 74 286 C74 347 113 389 169 389 C221 389 259 360 306 286 L306 286 Z " />
<glyph glyph-name="integral" unicode="&#x222b;" horiz-adv-x="500" d="M100 -239 L105 -241 C125 -248 133 -250 147 -250 C195 -250 240 -232 263 -202 C283 -176 287 -155 287 -64 L287 579 C287 627 289 641 295 656 C302 672 321 682 343 682 C356 682 366 679 383 672 L398 740 C364 749 356 750 335 750 C278 750 232 721 219 675 C213 652 211 625 211 547 L211 -59 C211 -123 210 -139 204 -153 C197 -171 178 -182 154 -182 C141 -182 132 -180 115 -172 L100 -239 Z " />
<glyph glyph-name="approxequal" unicode="&#x2248;" horiz-adv-x="500" d="M52 303 C83 355 108 374 142 374 C168 374 187 368 241 340 C304 308 328 300 356 300 C411 300 451 333 490 412 L449 440 C418 388 393 368 357 368 C333 368 316 374 259 403 C201 433 174 442 146 442 C90 442 49 408 11 331 L52 303 Z M52 134 C83 186 108 205 142 205 C168 205 187 199 241 171 C304 139 328 131 356 131 C411 131 451 165 490 243 L449 271 C418 219 393 200 357 200 C333 200 316 206 259 235 C201 264 174 273 146 273 C90 273 49 239 11 162 L52 134 Z " />
<glyph glyph-name="notequal" unicode="&#x2260;" horiz-adv-x="520" d="M275 382 L25 382 L25 324 L247 324 L215 257 L25 257 L25 199 L188 199 L132 82 L184 61 L249 199 L496 199 L496 257 L277 257 L309 324 L496 324 L496 382 L336 382 L388 491 L337 512 L275 382 Z " />
<glyph glyph-name="lessequal" unicode="&#x2264;" horiz-adv-x="500" d="M466 544 L33 368 L33 302 L466 126 L466 197 L116 335 L466 473 L466 544 Z M466 97 L33 97 L33 30 L466 30 L466 97 Z " />
<glyph glyph-name="greaterequal" unicode="&#x2265;" horiz-adv-x="500" d="M33 544 L33 473 L383 335 L33 197 L33 126 L466 302 L466 368 L33 544 Z M33 97 L33 30 L466 30 L466 97 L33 97 Z " />
<glyph glyph-name="fi" unicode="&#xfb01;" horiz-adv-x="578" d="M335 455 L335 533 L61 533 L61 0 L147 0 L147 251 L330 251 L330 329 L147 329 L147 455 L335 455 Z M516 533 L430 533 L430 0 L516 0 L516 533 Z " />
<glyph glyph-name="fl" unicode="&#xfb02;" horiz-adv-x="692" d="M335 455 L335 533 L61 533 L61 0 L147 0 L147 251 L330 251 L330 329 L147 329 L147 455 L335 455 Z M516 533 L430 533 L430 0 L670 0 L670 78 L516 78 L516 533 Z " />
</font>
</svg>
