<?xml version="1.0" encoding="UTF-8"?>
<svg xmlns="http://www.w3.org/2000/svg" xmlns:xlink="http://www.w3.org/1999/xlink" version="1.2" >
<font id="Bodoni URW Narrow Extra Bold Oblique">
<font-face  font-family="Bodoni URW Narrow" units-per-em="1000" ascent="680" descent="-320" font-style="italic" font-weight="800" font-stretch="semi-condensed" cap-height="667" x-height="407" underline-position="-94" underline-thickness="98" />
<missing-glyph  horiz-adv-x="238" d="" />
<glyph glyph-name="NULL" d="" />
<glyph glyph-name="CR" unicode="&#xd;" horiz-adv-x="250" d="" />
<glyph glyph-name="space" unicode="&#x20;" horiz-adv-x="238" d="" />
<glyph glyph-name="exclam" unicode="&#x21;" horiz-adv-x="298" d="M111 162 C42 162 -19 115 -19 61 C-19 21 21 -10 74 -10 C146 -10 206 35 206 90 C206 132 167 162 111 162 L111 162 Z M134 196 L268 515 C287 560 297 593 297 609 C297 649 267 674 219 674 C158 674 114 639 102 581 C98 565 98 556 98 515 L100 196 L134 196 Z " />
<glyph glyph-name="quotedbl" unicode="&#x22;" horiz-adv-x="495" d="M174 399 L284 667 L101 667 L97 399 L174 399 Z M426 399 L536 667 L353 667 L348 399 L426 399 Z " />
<glyph glyph-name="numbersign" unicode="&#x23;" horiz-adv-x="633" d="M384 250 L511 250 L520 291 L398 291 L434 394 L562 394 L571 436 L448 436 L528 670 L490 670 L408 436 L306 436 L386 670 L345 670 L264 436 L129 436 L120 394 L249 394 L214 291 L76 291 L67 250 L200 250 L114 0 L155 0 L241 250 L344 250 L258 0 L297 0 L384 250 Z M394 394 L358 291 L255 291 L291 394 L394 394 Z " />
<glyph glyph-name="dollar" unicode="&#x24;" horiz-adv-x="633" d="M248 22 C228 17 215 16 192 16 C160 16 136 20 100 29 C157 48 186 85 186 135 C186 179 156 209 114 209 C54 209 -1 152 -1 91 C-1 28 82 -10 219 -10 L241 -10 L226 -81 L245 -81 L260 -9 C323 -7 375 7 422 32 C509 81 564 166 564 253 C564 326 533 371 446 426 C417 445 382 466 363 478 L399 645 C423 650 440 652 463 652 C497 652 516 649 548 637 C514 634 497 628 480 613 C457 592 443 560 443 528 C443 486 472 458 517 458 C576 458 628 512 628 574 C628 595 622 614 609 628 C584 658 519 677 448 677 C434 677 421 677 405 676 L420 744 L401 744 L386 673 C307 662 233 632 185 590 C130 543 96 470 96 402 C96 357 113 318 147 281 C168 258 168 258 271 196 L277 192 L283 189 L248 22 Z M300 178 C338 153 351 137 351 114 C351 78 323 49 268 28 L300 178 Z M347 488 C313 510 298 530 298 554 C298 590 327 621 379 640 L347 488 Z " />
<glyph glyph-name="percent" unicode="&#x25;" horiz-adv-x="779" d="M266 678 C146 678 34 540 34 391 C34 292 85 230 166 230 C293 230 399 361 399 518 C399 614 346 678 266 678 L266 678 Z M226 618 C232 645 241 655 260 655 C274 655 282 649 281 637 C281 632 280 625 278 618 L208 289 C203 262 194 252 175 252 C160 252 154 257 154 269 C154 278 154 283 156 289 L226 618 Z M204 0 L608 667 L583 667 L179 0 L204 0 Z M613 437 C494 437 382 298 382 150 C382 51 433 -11 514 -11 C641 -11 747 120 747 277 C747 373 693 437 613 437 L613 437 Z M574 377 C579 404 589 414 608 414 C622 414 630 408 629 397 C629 391 628 385 626 377 L556 48 C550 21 542 11 523 11 C508 11 502 16 502 28 C502 37 502 42 504 48 L574 377 Z " />
<glyph glyph-name="ampersand" unicode="&#x26;" horiz-adv-x="852" d="M775 167 C761 103 749 83 724 83 C711 83 703 91 695 112 L647 240 C698 277 724 316 737 378 L820 378 L825 401 L641 401 L636 378 L708 378 C698 324 679 292 639 263 L563 469 C633 499 671 544 671 595 C671 649 625 680 547 680 C455 680 362 640 316 582 C291 550 275 505 275 465 C275 456 276 449 278 435 C92 374 -11 270 -11 142 C-11 48 51 -13 146 -13 C233 -13 316 10 412 61 C445 8 490 -13 572 -13 C668 -13 741 21 772 80 C782 101 786 113 797 167 L775 167 Z M404 81 C383 69 369 65 351 65 C317 65 301 82 281 138 L222 306 C218 317 216 328 216 338 C216 374 234 394 284 413 L404 81 Z M555 496 C542 529 535 553 535 570 C535 605 563 635 595 635 C623 635 641 616 641 588 C641 549 609 515 555 496 L555 496 Z " />
<glyph glyph-name="quotesingle" unicode="&#x27;" horiz-adv-x="271" d="M191 399 L301 667 L112 667 L108 399 L191 399 Z " />
<glyph glyph-name="parenleft" unicode="&#x28;" horiz-adv-x="345" d="M201 -253 C182 -237 168 -224 159 -215 L345 661 C358 672 367 678 376 683 L397 696 L404 700 L397 715 C317 667 272 634 224 586 C85 448 3 272 3 115 C3 0 45 -120 112 -198 C131 -221 152 -240 188 -269 L201 -253 Z " />
<glyph glyph-name="parenright" unicode="&#x29;" horiz-adv-x="345" d="M-99 -269 C-20 -221 25 -187 74 -139 C212 -1 295 175 295 332 C295 447 253 566 186 645 C166 668 145 687 110 715 L97 700 C116 683 131 671 139 661 L-47 -215 C-61 -225 -69 -231 -78 -236 C-85 -241 -92 -245 -99 -249 L-106 -253 L-99 -269 Z " />
<glyph glyph-name="asterisk" unicode="&#x2a;" horiz-adv-x="476" d="M103 378 C94 376 89 371 89 366 C89 360 95 354 112 346 L122 341 C106 309 99 291 99 280 C99 272 102 268 109 268 C121 268 139 277 171 300 C181 280 190 272 199 272 C203 272 207 276 208 282 L210 292 C219 346 232 383 264 445 C267 415 268 400 268 379 C268 349 264 318 258 296 L256 289 L255 280 C255 275 257 272 260 272 C268 272 281 282 300 303 C322 282 336 272 348 272 C361 272 368 286 368 312 C368 323 368 330 366 347 C393 357 408 367 408 374 C408 378 404 381 399 383 L394 384 C354 395 302 427 278 455 L300 455 C343 455 384 448 415 435 L423 432 C427 430 430 429 432 429 C437 429 441 434 441 441 C441 453 438 463 431 478 C468 501 487 520 487 531 C487 540 470 548 448 548 C447 548 447 548 423 547 C425 561 426 569 426 576 C426 586 423 592 417 592 C414 592 410 589 406 585 L401 579 C365 535 326 501 276 470 C301 523 327 562 369 609 L376 616 C378 618 380 623 380 627 C380 630 377 632 370 632 C360 632 353 631 334 626 C329 671 323 686 311 686 C299 686 286 669 263 624 C248 628 240 630 234 630 C224 630 216 625 216 618 C216 617 217 615 220 610 L223 604 C245 564 257 522 260 469 C217 505 205 521 179 573 L174 581 C172 587 169 589 166 589 C157 589 150 575 142 542 C91 541 71 535 71 518 C71 507 80 495 107 472 C89 451 82 438 82 428 C82 425 84 424 86 424 C89 424 93 425 97 427 L104 429 C144 445 174 450 253 454 C214 423 156 393 112 380 L103 378 Z " />
<glyph glyph-name="plus" unicode="&#x2b;" horiz-adv-x="633" d="M543 356 L341 356 L389 581 L349 581 L301 356 L99 356 L90 313 L292 313 L244 88 L284 88 L332 313 L534 313 L543 356 Z " />
<glyph glyph-name="comma" unicode="&#x2c;" horiz-adv-x="307" d="M-18 -87 C53 -86 90 -80 119 -64 C173 -35 216 35 216 92 C216 142 177 175 118 175 C48 175 -14 128 -14 74 C-14 33 26 0 76 0 C111 0 142 11 169 32 C140 -39 97 -61 -13 -63 L-18 -87 Z " />
<glyph glyph-name="hyphen" unicode="&#x2d;" horiz-adv-x="272" d="M233 151 L270 324 L-2 324 L-39 151 L233 151 Z " />
<glyph glyph-name="period" unicode="&#x2e;" horiz-adv-x="299" d="M114 167 C45 167 -18 117 -18 64 C-18 19 22 -13 77 -13 C149 -13 207 32 207 89 C207 136 170 167 114 167 L114 167 Z " />
<glyph glyph-name="slash" unicode="&#x2f;" horiz-adv-x="190" d="M-150 -227 L317 680 L291 680 L-175 -227 L-150 -227 Z " />
<glyph glyph-name="zero" unicode="0" horiz-adv-x="633" d="M392 683 C200 683 19 468 19 240 C19 84 104 -16 238 -16 C341 -16 434 31 503 117 C574 204 614 318 614 429 C614 580 524 683 392 683 L392 683 Z M328 594 C338 639 355 657 386 657 C410 657 421 647 421 625 C421 615 420 604 418 594 L307 72 C297 28 280 9 249 9 C225 9 214 19 214 41 C214 51 215 62 217 72 L328 594 Z " />
<glyph glyph-name="one" unicode="1" horiz-adv-x="633" d="M433 0 L438 23 L362 23 L503 687 C420 646 364 634 259 633 L195 633 L190 610 L266 610 L142 23 L65 23 L60 0 L433 0 Z " />
<glyph glyph-name="two" unicode="2" horiz-adv-x="633" d="M-30 -19 C6 8 35 19 72 19 C113 19 149 14 225 -3 C250 -8 270 -11 285 -11 C338 -11 396 14 436 53 C483 100 527 157 574 231 L555 245 C522 200 501 190 444 190 L434 190 C388 191 357 193 294 199 C273 202 253 203 239 203 C216 203 200 199 176 187 C200 206 224 216 288 231 C501 277 604 366 604 503 C604 619 514 683 349 683 C258 683 189 660 133 610 C91 573 67 529 67 490 C67 442 102 406 149 406 C215 406 272 466 272 536 C272 580 245 606 198 606 C184 606 175 604 158 599 C195 634 233 651 278 651 C335 651 375 616 375 565 C375 523 362 459 343 403 C318 332 266 272 185 221 C53 141 0 89 -47 -6 L-30 -19 Z " />
<glyph glyph-name="three" unicode="3" horiz-adv-x="633" d="M351 437 C341 397 330 387 297 387 L237 387 L231 359 L281 359 C315 359 326 352 326 331 C326 323 325 313 323 305 L279 97 C265 34 241 13 182 13 C136 13 87 27 67 46 C59 54 55 60 50 74 C70 58 82 53 102 53 C158 53 206 105 206 167 C206 210 177 240 135 240 C69 240 10 178 10 110 C10 79 23 51 49 28 C81 -2 136 -16 215 -16 C292 -16 362 -2 420 24 C449 37 478 61 504 94 C535 132 552 178 552 222 C552 268 533 309 501 334 C468 359 440 368 387 373 C466 378 506 391 540 420 C576 451 598 501 598 550 C598 635 521 683 386 683 C292 683 216 663 175 628 C142 600 123 562 123 526 C123 483 151 456 194 456 C256 456 308 509 308 571 C308 615 283 638 234 638 C261 651 292 657 329 657 C369 657 385 645 385 614 C385 602 384 591 381 580 L351 437 Z " />
<glyph glyph-name="four" unicode="4" horiz-adv-x="633" d="M528 0 L533 23 L466 23 L495 163 L563 163 L568 186 L500 186 L603 667 L417 667 L-19 163 L273 163 L244 23 L155 23 L150 0 L528 0 Z M278 186 L32 186 L359 565 L278 186 Z " />
<glyph glyph-name="five" unicode="5" horiz-adv-x="633" d="M160 377 C207 404 243 417 275 417 C304 417 320 403 320 378 C320 371 319 360 317 351 L262 94 C257 70 252 58 244 48 C227 25 194 13 153 13 C118 13 97 19 76 34 C146 37 188 79 188 148 C188 192 162 219 120 219 C55 219 1 162 1 92 C1 23 65 -16 180 -16 C308 -16 421 28 478 101 C515 148 538 216 538 280 C538 381 457 448 334 448 C284 448 247 441 198 421 L222 501 L335 501 C495 496 584 550 646 687 C577 672 519 667 429 667 C359 667 311 671 255 680 L160 377 Z " />
<glyph glyph-name="six" unicode="6" horiz-adv-x="633" d="M323 555 C332 595 335 604 347 619 C365 644 400 658 439 658 C455 658 464 656 481 649 C432 630 404 591 404 541 C404 493 432 466 480 466 C544 466 591 516 591 584 C591 607 585 626 573 640 C549 667 501 684 447 684 C356 684 263 652 192 594 C86 510 18 368 18 231 C18 81 109 -16 250 -16 C330 -16 416 11 473 54 C542 105 584 185 584 262 C584 354 519 420 431 420 C383 420 338 409 287 383 L323 555 Z M282 360 C309 372 327 378 338 378 C354 378 365 366 365 348 C365 339 364 328 362 317 L306 58 C300 30 280 13 252 13 C229 13 218 24 218 45 C218 53 218 55 219 60 L282 360 Z " />
<glyph glyph-name="seven" unicode="7" horiz-adv-x="633" d="M663 678 C637 664 606 657 568 657 C554 657 524 660 491 666 C432 675 358 684 337 684 C277 684 207 667 164 641 C167 655 168 660 169 664 L172 678 L173 684 L152 684 C142 604 109 513 59 429 L82 429 C118 484 139 498 191 498 L227 497 C255 495 275 494 284 494 C346 494 430 508 471 526 C513 544 537 559 568 586 C530 541 502 516 436 463 C297 353 230 288 186 221 C153 171 133 116 133 76 C133 21 172 -16 232 -16 C279 -16 326 7 353 41 C386 82 395 108 417 206 C451 386 555 573 670 660 L663 678 Z " />
<glyph glyph-name="eight" unicode="8" horiz-adv-x="633" d="M418 386 C488 395 525 410 562 442 C595 471 614 513 614 559 C614 643 539 683 381 683 C287 683 216 665 168 628 C123 594 96 544 96 496 C96 435 133 402 226 381 C150 371 109 355 66 316 C18 273 -10 211 -10 146 C-10 94 10 54 47 30 C92 1 161 -16 237 -16 C434 -16 586 99 586 249 C586 289 572 323 547 344 C517 369 487 378 418 386 L418 386 Z M333 608 C340 643 354 657 384 657 C407 657 418 649 418 631 C418 622 417 616 416 608 L382 448 C374 413 360 399 330 399 C307 399 296 407 296 425 C296 431 297 440 299 448 L333 608 Z M273 329 C281 364 295 378 325 378 C348 378 359 370 359 352 C359 345 358 337 356 329 L298 56 C291 21 277 7 247 7 C224 7 213 15 213 33 C213 41 214 48 215 56 L273 329 Z " />
<glyph glyph-name="nine" unicode="9" horiz-adv-x="633" d="M315 113 C308 81 297 58 282 45 C258 26 218 13 179 13 C149 13 129 17 103 30 C149 46 177 86 177 135 C177 180 151 208 107 208 C46 208 -8 153 -8 92 C-8 60 8 29 34 14 C64 -5 113 -16 166 -16 C291 -16 428 47 506 142 C573 224 611 330 611 434 C611 513 588 578 543 624 C504 665 454 683 379 683 C267 683 173 641 112 564 C75 517 54 462 54 409 C54 312 124 251 237 251 C280 251 299 256 350 278 L315 113 Z M355 306 C333 291 313 283 297 283 C281 283 273 293 273 312 C273 322 275 337 278 351 L327 583 C338 636 355 657 387 657 C410 657 420 645 420 619 C420 611 419 599 417 589 L355 306 Z " />
<glyph glyph-name="colon" unicode="&#x3a;" horiz-adv-x="299" d="M114 167 C45 167 -18 117 -18 64 C-18 19 22 -13 77 -13 C149 -13 207 32 207 89 C207 136 170 167 114 167 L114 167 Z M168 420 C99 420 36 370 36 317 C36 272 76 240 131 240 C203 240 261 286 261 342 C261 389 224 420 168 420 L168 420 Z " />
<glyph glyph-name="semicolon" unicode="&#x3b;" horiz-adv-x="307" d="M-18 -87 C53 -86 89 -80 118 -64 C172 -34 215 35 215 92 C215 142 177 175 118 175 C48 175 -14 127 -14 74 C-14 33 27 0 76 0 C111 0 142 11 169 32 C139 -39 97 -61 -13 -63 L-18 -87 Z M168 420 C99 420 36 371 36 317 C36 272 76 240 131 240 C203 240 261 285 261 342 C261 389 224 420 168 420 L168 420 Z " />
<glyph glyph-name="less" unicode="&#x3c;" horiz-adv-x="475" d="M508 649 L46 387 L44 377 L387 81 L433 298 L267 441 L490 568 L508 649 Z " />
<glyph glyph-name="equal" unicode="&#x3d;" horiz-adv-x="633" d="M557 416 L113 416 L104 373 L548 373 L557 416 Z M531 295 L87 295 L78 252 L522 252 L531 295 Z " />
<glyph glyph-name="greater" unicode="&#x3e;" horiz-adv-x="475" d="M-19 81 L443 343 L445 353 L102 649 L56 433 L222 289 L-2 163 L-19 81 Z " />
<glyph glyph-name="question" unicode="&#x3f;" horiz-adv-x="451" d="M131 139 C69 139 14 99 14 54 C14 17 50 -10 99 -10 C164 -10 218 28 218 75 C218 112 181 139 131 139 L131 139 Z M123 154 L155 188 C238 194 295 215 345 257 C410 312 450 394 450 473 C450 586 365 674 257 674 C157 674 57 585 57 496 C57 453 83 427 127 427 C184 427 231 474 231 532 C231 574 205 600 164 600 C150 600 139 597 123 590 C161 630 193 647 232 647 C289 647 332 593 332 522 C332 422 256 354 141 349 L123 154 Z " />
<glyph glyph-name="at" unicode="&#x40;" horiz-adv-x="704" d="M468 519 L456 496 C447 521 432 533 409 533 C363 533 304 505 257 461 C182 390 125 284 125 212 C125 165 152 133 190 133 C230 133 270 154 319 201 C320 154 337 133 376 133 C434 133 521 178 587 243 C661 315 704 406 704 490 C704 600 611 684 488 684 C396 684 302 650 218 585 C93 489 10 339 10 209 C10 73 104 -17 246 -17 C391 -17 542 62 627 180 L594 180 C530 86 379 10 254 10 C132 10 48 91 48 209 C48 427 268 656 476 656 C589 656 675 581 675 481 C675 425 647 355 601 297 C559 243 492 193 462 193 C456 193 451 198 451 204 C451 208 455 219 464 235 L612 519 L468 519 Z M351 296 C330 254 328 250 321 227 C291 199 268 183 257 183 C252 183 248 188 248 195 C248 205 256 226 267 248 L365 436 C386 476 403 495 419 495 C428 495 433 487 440 466 L351 296 Z " />
<glyph glyph-name="A" unicode="A" horiz-adv-x="743" d="M668 0 L673 23 L638 23 L562 667 L345 667 L73 174 C15 80 -30 30 -63 23 L-68 0 L179 0 L183 23 C118 24 90 50 90 109 C90 139 97 166 116 205 L336 205 L357 23 L285 23 L280 0 L668 0 Z M334 228 L128 228 L296 539 L334 228 Z " />
<glyph glyph-name="B" unicode="B" horiz-adv-x="792" d="M-49 0 L478 0 C562 0 607 12 653 45 C706 84 737 150 737 221 C737 258 725 288 698 312 C671 338 648 346 597 347 C659 351 688 361 720 390 C760 427 785 485 785 543 C785 591 768 628 738 647 C714 662 688 667 625 667 L93 667 L88 644 L168 644 L36 23 L-44 23 L-49 0 Z M307 23 L371 326 L409 326 C451 326 463 319 463 296 C463 284 462 273 459 261 L422 85 C409 30 402 25 350 23 L307 23 Z M376 348 L439 644 L479 644 C516 644 528 636 528 609 C528 594 526 573 522 555 L492 417 C479 361 467 350 418 348 L376 348 Z " />
<glyph glyph-name="C" unicode="C" horiz-adv-x="665" d="M556 133 C478 50 403 10 328 10 C292 10 269 30 269 63 L269 69 C270 90 271 93 276 117 L369 557 C385 632 406 657 454 657 C538 657 618 568 618 474 C618 454 616 434 612 412 L634 412 L692 687 L584 631 C539 672 500 687 435 687 C312 687 202 633 123 534 C57 452 20 349 20 247 C20 84 125 -20 289 -20 C397 -20 477 19 575 117 L556 133 Z " />
<glyph glyph-name="D" unicode="D" horiz-adv-x="820" d="M-49 0 L449 0 C543 0 623 44 695 137 C763 223 801 326 801 421 C801 479 786 535 760 579 C723 641 666 667 569 667 L93 667 L88 644 L162 644 L30 23 L-44 23 L-49 0 Z M302 23 L434 644 L482 644 C529 644 540 636 540 605 C540 591 538 573 533 549 L441 118 C427 45 404 23 341 23 L302 23 Z " />
<glyph glyph-name="E" unicode="E" horiz-adv-x="709" d="M581 0 L633 246 L613 246 C568 116 442 25 302 23 L368 331 L387 331 C437 331 473 290 473 232 C473 216 471 203 466 179 L486 179 L557 511 L537 511 C520 418 464 356 393 355 L373 355 L434 644 C485 644 505 642 527 636 C594 617 638 558 638 486 C638 477 638 471 636 457 L657 457 L702 667 L93 667 L88 644 L162 644 L30 23 L-44 23 L-49 0 L581 0 Z " />
<glyph glyph-name="F" unicode="F" horiz-adv-x="687" d="M381 0 L386 23 L302 23 L365 318 C443 318 470 295 470 226 C470 207 469 193 464 169 L486 169 L557 501 L535 501 C515 395 458 340 370 341 L434 644 L478 644 C532 644 559 637 585 619 C627 588 648 544 648 485 C648 483 648 475 647 460 L669 460 L713 667 L93 667 L88 644 L162 644 L30 23 L-44 23 L-49 0 L381 0 Z " />
<glyph glyph-name="G" unicode="G" horiz-adv-x="746" d="M711 277 L716 300 L381 300 L376 277 L424 277 L385 93 C374 39 348 10 313 10 C287 10 275 22 275 49 C275 58 277 71 279 83 L381 562 C396 634 419 657 477 657 C534 657 581 632 617 581 C641 548 654 510 654 474 C654 460 653 448 649 427 L669 427 L725 687 L619 631 C565 673 524 687 453 687 C315 687 208 637 125 534 C56 450 18 346 18 245 C18 83 129 -20 302 -20 C399 -20 474 0 545 46 L600 -32 L666 277 L711 277 Z " />
<glyph glyph-name="H" unicode="H" horiz-adv-x="848" d="M755 0 L760 23 L686 23 L817 644 L891 644 L896 667 L503 667 L498 644 L545 644 L485 359 L374 359 L434 644 L482 644 L487 667 L93 667 L88 644 L162 644 L30 23 L-44 23 L-49 0 L345 0 L350 23 L302 23 L369 336 L480 336 L413 23 L366 23 L361 0 L755 0 Z " />
<glyph glyph-name="I" unicode="I" horiz-adv-x="469" d="M375 0 L380 23 L306 23 L438 644 L512 644 L517 667 L93 667 L88 644 L162 644 L30 23 L-44 23 L-49 0 L375 0 Z " />
<glyph glyph-name="J" unicode="J" horiz-adv-x="621" d="M668 644 L673 667 L236 667 L231 644 L321 644 L214 141 C206 100 196 75 182 56 C160 29 126 11 95 11 C63 11 31 27 16 52 C30 49 36 48 45 48 C114 48 171 105 171 174 C171 218 144 246 101 246 C32 246 -29 181 -29 108 C-29 30 32 -20 126 -20 C233 -20 344 3 396 35 C455 73 481 113 499 197 L594 644 L668 644 Z " />
<glyph glyph-name="K" unicode="K" horiz-adv-x="856" d="M778 0 L783 23 L752 23 L613 510 L655 542 C788 629 823 645 884 644 L889 667 L553 667 L548 644 C612 644 636 630 636 593 C636 564 621 544 572 510 L378 377 L434 644 L512 644 L517 667 L93 667 L88 644 L162 644 L30 23 L-44 23 L-49 0 L370 0 L375 23 L302 23 L371 345 L463 23 L398 23 L393 0 L778 0 Z " />
<glyph glyph-name="L" unicode="L" horiz-adv-x="681" d="M625 250 L603 250 C576 139 442 37 302 23 L434 644 L516 644 L521 667 L93 667 L88 644 L162 644 L30 23 L-44 23 L-49 0 L572 0 L625 250 Z " />
<glyph glyph-name="M" unicode="M" horiz-adv-x="994" d="M901 0 L906 23 L832 23 L964 644 L1038 644 L1043 667 L708 667 L515 335 L457 667 L100 667 L95 644 L157 644 L169 604 L84 203 C63 97 4 20 -53 23 L-58 0 L186 0 L191 24 L180 24 C127 24 103 55 103 122 C103 152 107 185 114 219 L189 573 L282 0 L344 0 L677 573 L560 23 L482 23 L477 0 L901 0 Z " />
<glyph glyph-name="N" unicode="N" horiz-adv-x="780" d="M597 0 L694 457 C717 570 773 645 834 644 L839 667 L585 667 L580 644 L601 644 C654 644 677 614 677 544 C677 512 674 480 667 449 L634 295 L450 667 L84 667 L79 644 L138 644 L166 582 L83 192 C61 89 6 22 -53 23 L-58 0 L187 0 L192 23 C135 24 106 59 106 126 C106 159 110 193 117 228 L184 545 L443 0 L597 0 Z " />
<glyph glyph-name="O" unicode="O" horiz-adv-x="764" d="M457 687 C204 687 19 497 19 238 C19 161 39 110 89 58 C137 7 218 -20 320 -20 C463 -20 578 43 666 169 C718 245 747 336 747 429 C747 594 643 687 457 687 L457 687 Z M389 601 C398 644 419 666 453 666 C481 666 493 654 493 625 C493 617 492 609 491 601 L377 68 C367 22 347 1 313 1 C285 1 272 13 272 38 C272 47 273 58 275 68 L389 601 Z " />
<glyph glyph-name="P" unicode="P" horiz-adv-x="771" d="M384 0 L388 23 L302 23 L355 268 L466 268 C572 268 635 283 682 319 C743 367 781 448 781 530 C781 575 769 611 745 635 C723 658 684 667 610 667 L93 667 L88 644 L162 644 L30 23 L-44 23 L-49 0 L384 0 Z M360 292 L434 644 L469 644 C510 644 520 637 520 605 C520 588 517 563 513 541 L475 366 C465 316 438 291 395 291 L391 291 L367 292 L360 292 Z " />
<glyph glyph-name="Q" unicode="Q" horiz-adv-x="765" d="M541 -197 C524 -199 517 -199 503 -199 C426 -199 397 -165 397 -74 C397 -49 398 -34 403 -11 C596 23 746 215 746 427 C746 595 641 687 450 687 C202 687 18 496 18 239 C18 104 105 6 241 -15 C236 -44 234 -60 234 -80 C234 -113 243 -144 261 -170 C292 -215 361 -238 459 -238 C484 -238 504 -237 533 -234 L541 -197 Z M390 601 C399 647 418 666 453 666 C481 666 493 655 493 631 C493 622 492 611 490 601 L375 63 C366 21 347 1 313 1 C285 1 273 12 273 38 C273 48 274 55 275 63 L390 601 Z " />
<glyph glyph-name="R" unicode="R" horiz-adv-x="821" d="M724 118 C712 87 706 78 695 78 C688 78 683 83 683 92 C683 100 687 119 696 155 C712 219 715 234 715 257 C715 301 695 325 635 351 C731 388 783 459 783 553 C783 636 737 667 613 667 L93 667 L88 644 L162 644 L30 23 L-44 23 L-49 0 L361 0 L366 23 L302 23 L370 339 C382 340 388 340 398 340 C445 340 459 332 459 305 C459 290 458 281 447 232 C436 177 428 125 428 106 C428 79 435 54 448 34 C470 2 514 -14 581 -14 C665 -14 707 18 745 112 L724 118 Z M374 363 L434 644 L466 644 C512 644 524 636 524 606 C524 598 522 585 520 575 L490 434 C475 377 457 364 391 363 L374 363 Z " />
<glyph glyph-name="S" unicode="S" horiz-adv-x="602" d="M578 456 L627 687 L528 631 C476 672 434 687 373 687 C215 687 74 555 74 406 C74 335 117 273 207 217 C296 161 299 159 318 133 C323 125 326 114 326 104 C326 50 273 9 203 9 C152 9 111 29 75 72 C43 109 30 142 30 186 C30 208 32 226 39 254 L15 254 L-43 -17 L54 43 C105 -3 147 -21 205 -21 C283 -21 376 8 434 51 C503 102 546 186 546 272 C546 305 538 336 524 355 C499 389 432 445 374 479 C305 521 282 543 282 570 C282 619 326 660 380 660 C479 660 560 589 560 503 C560 488 559 476 554 456 L578 456 Z " />
<glyph glyph-name="T" unicode="T" horiz-adv-x="702" d="M503 0 L508 23 L423 23 L555 644 C632 615 686 536 686 452 C686 449 686 442 685 435 L707 435 L756 667 L88 667 L39 435 L61 435 C103 534 176 604 282 644 L150 23 L66 23 L61 0 L503 0 Z " />
<glyph glyph-name="U" unicode="U" horiz-adv-x="731" d="M789 667 L548 667 L543 644 C604 642 628 614 628 543 C628 515 623 476 615 437 L560 180 C550 132 530 96 500 71 C461 38 410 18 364 18 C329 18 311 32 311 58 L311 61 L318 110 L431 644 L498 644 L503 667 L89 667 L84 644 L159 644 L59 176 C54 154 52 135 52 120 C52 80 76 48 126 21 C170 -3 249 -20 317 -20 C454 -20 559 55 584 170 L647 467 C670 575 724 644 784 644 L789 667 Z " />
<glyph glyph-name="V" unicode="V" horiz-adv-x="726" d="M797 667 L581 667 L576 644 C622 643 643 623 643 580 C643 552 628 511 602 469 L456 230 L403 644 L464 644 L469 667 L71 667 L66 644 L116 644 L194 0 L338 0 L635 475 C689 563 749 628 792 644 L797 667 Z " />
<glyph glyph-name="W" unicode="W" horiz-adv-x="1113" d="M1184 667 L968 667 L963 644 C1014 640 1029 627 1029 583 C1029 551 1016 511 992 472 L843 230 L800 644 L852 644 L857 667 L472 667 L467 644 L513 644 L544 348 L456 214 L402 644 L448 644 L453 667 L71 667 L66 644 L115 644 L194 0 L344 0 L549 312 L581 0 L727 0 L1018 469 C1081 568 1128 619 1179 644 L1184 667 Z " />
<glyph glyph-name="X" unicode="X" horiz-adv-x="773" d="M696 0 L701 23 L649 23 L540 397 L702 552 C770 620 802 642 833 644 L838 667 L607 667 L602 644 C653 643 666 634 666 602 C666 568 645 529 607 493 L534 423 L470 644 L536 644 L541 667 L111 667 L106 644 L163 644 L263 292 L119 145 C49 72 -14 29 -59 23 L-64 0 L178 0 L183 23 C148 26 127 45 127 75 C127 105 144 135 183 176 L270 266 L341 23 L265 23 L260 0 L696 0 Z " />
<glyph glyph-name="Y" unicode="Y" horiz-adv-x="726" d="M797 667 L581 667 L576 644 C604 642 615 640 625 633 C635 626 644 607 644 590 C644 564 628 528 599 489 L502 358 L416 644 L484 644 L489 667 L71 667 L66 644 L106 644 L222 260 L172 23 L94 23 L89 0 L524 0 L529 23 L444 23 L509 328 L637 500 C698 582 745 625 792 644 L797 667 Z " />
<glyph glyph-name="Z" unicode="Z" horiz-adv-x="696" d="M637 285 L614 285 C596 216 546 148 467 85 C409 39 365 23 299 23 L287 23 L729 667 L143 667 L89 415 L111 415 C131 495 171 550 244 601 C289 632 326 642 406 644 L-33 0 L577 0 L637 285 Z " />
<glyph glyph-name="bracketleft" unicode="&#x5b;" horiz-adv-x="349" d="M231 -253 L235 -233 L158 -233 L352 680 L429 680 L433 700 L123 700 L-80 -253 L231 -253 Z " />
<glyph glyph-name="backslash" unicode="&#x5c;" horiz-adv-x="190" d="M102 -227 L127 -227 L46 680 L21 680 L102 -227 Z " />
<glyph glyph-name="bracketright" unicode="&#x5d;" horiz-adv-x="349" d="M-131 -253 L180 -253 L383 700 L72 700 L67 680 L144 680 L-50 -233 L-127 -233 L-131 -253 Z " />
<glyph glyph-name="asciicircum" unicode="&#x5e;" horiz-adv-x="475" d="M495 273 L337 700 L327 700 L-45 273 L161 273 L341 480 L418 273 L495 273 Z " />
<glyph glyph-name="underscore" unicode="&#x5f;" horiz-adv-x="475" d="M-92 -93 L-113 -191 L365 -191 L386 -93 L-92 -93 Z " />
<glyph glyph-name="grave" unicode="&#x60;" horiz-adv-x="475" d="M302 483 L298 623 L140 623 L134 596 L271 483 L302 483 Z " />
<glyph glyph-name="a" unicode="a" horiz-adv-x="586" d="M508 88 C478 54 478 53 471 53 C468 53 467 56 467 60 C467 66 468 72 470 78 L510 267 C515 292 517 306 517 315 C517 382 433 420 288 420 C217 420 174 412 138 393 C99 373 75 338 75 301 C75 263 99 240 140 240 C194 240 236 283 236 339 C236 366 225 381 198 390 C214 395 223 397 237 397 C285 397 312 380 312 350 C312 343 310 328 307 313 L285 213 C252 226 220 231 178 231 C118 231 72 219 36 192 C-2 164 -25 124 -25 85 C-25 27 30 -13 110 -13 C158 -13 195 -2 252 31 C278 -2 303 -13 349 -13 C421 -13 482 19 523 78 L508 88 Z M250 48 C220 32 206 27 194 27 C179 27 171 36 171 51 C171 57 172 63 173 68 L193 161 C199 191 212 204 234 204 C249 204 261 201 281 192 L250 48 Z " />
<glyph glyph-name="b" unicode="b" horiz-adv-x="611" d="M222 34 C250 1 282 -13 328 -13 C455 -13 571 117 571 260 C571 360 519 420 433 420 C396 420 367 414 298 390 L359 680 C325 672 276 667 219 667 L78 667 L73 647 L137 647 L4 20 L-60 20 L-64 0 L134 0 C166 0 187 -4 212 -13 L222 34 Z M292 365 C308 375 322 380 335 380 C352 380 362 370 362 352 C362 338 361 327 358 315 L306 70 C301 45 291 34 275 34 C257 34 242 43 228 62 L292 365 Z " />
<glyph glyph-name="c" unicode="c" horiz-adv-x="475" d="M381 95 C334 43 281 15 233 15 C204 15 191 26 191 50 C191 61 193 80 197 95 L248 338 C258 386 273 399 317 399 C349 399 371 391 387 374 C375 377 370 378 363 378 C320 378 279 331 279 281 C279 247 305 224 342 224 C396 224 438 269 438 327 C438 385 386 420 299 420 C127 420 -15 299 -15 153 C-15 96 10 48 54 19 C87 -2 132 -13 189 -13 C277 -13 338 16 396 85 L381 95 Z " />
<glyph glyph-name="d" unicode="d" horiz-adv-x="612" d="M254 -13 C290 -4 320 0 352 0 L535 0 L539 20 L476 20 L616 680 C563 671 521 667 491 667 L335 667 L331 647 L394 647 L339 388 C292 411 256 420 213 420 C91 420 -14 293 -14 145 C-14 53 48 -14 135 -14 C175 -14 215 1 264 34 L254 -13 Z M270 62 C245 43 223 33 208 33 C197 33 192 40 192 54 C192 59 193 70 195 78 L248 326 C255 360 272 380 293 380 C302 380 317 375 334 365 L270 62 Z " />
<glyph glyph-name="e" unicode="e" horiz-adv-x="516" d="M432 131 C375 68 290 20 236 20 C211 20 193 38 193 62 C193 76 196 96 201 121 L220 209 L471 209 C472 221 472 228 472 233 C472 266 463 305 447 335 C419 389 364 420 295 420 C128 420 -14 298 -14 154 C-14 57 73 -13 195 -13 C282 -13 368 31 443 114 L432 131 Z M313 230 L224 230 L249 348 C257 384 275 401 305 401 C330 401 340 392 340 370 C340 361 339 354 338 347 L313 230 Z " />
<glyph glyph-name="f" unicode="f" horiz-adv-x="364" d="M368 393 L372 413 L318 413 C281 413 267 416 251 426 C223 445 205 481 205 521 C205 590 262 665 315 665 C319 665 322 664 327 661 C275 643 240 596 240 547 C240 509 267 484 310 484 C369 484 417 534 417 595 C417 649 378 684 320 684 C258 684 195 650 152 595 C126 562 112 528 101 478 L87 413 L24 413 L20 393 L83 393 L4 20 L-60 20 L-64 0 L284 0 L289 20 L219 20 L298 393 L368 393 Z " />
<glyph glyph-name="g" unicode="g" horiz-adv-x="547" d="M240 85 L149 84 C105 84 86 91 86 108 C86 119 97 131 116 141 C156 128 187 123 231 123 C339 123 424 152 467 205 C486 228 498 259 498 289 C498 347 455 386 361 410 C376 442 393 462 419 476 C413 464 411 455 411 444 C411 421 427 407 453 407 C489 407 521 439 521 476 C521 502 503 518 476 518 C428 518 373 474 343 413 C318 418 301 420 276 420 C175 420 94 390 50 336 C28 309 15 274 15 242 C15 200 34 177 96 147 C13 105 -32 50 -32 -9 C-32 -26 -28 -38 -18 -56 C-46 -87 -57 -108 -57 -133 C-57 -194 16 -232 133 -232 C312 -232 438 -144 438 -20 C438 50 388 85 286 85 L240 85 Z M281 189 C273 154 258 138 231 138 C210 138 201 147 201 168 C201 178 201 181 203 187 L238 354 C245 385 262 401 288 401 C309 401 318 392 318 372 C318 367 317 361 316 355 L281 189 Z M126 -95 C169 -92 207 -91 224 -91 C275 -91 299 -104 299 -131 C299 -179 240 -210 148 -210 C46 -210 -25 -172 -25 -117 C-25 -101 -20 -87 -8 -68 C13 -88 37 -96 76 -96 L126 -95 Z " />
<glyph glyph-name="h" unicode="h" horiz-adv-x="650" d="M574 0 L578 20 L515 20 L569 275 C574 297 576 319 576 342 C576 363 572 376 563 387 C547 407 511 420 474 420 C415 420 355 403 293 368 L359 680 C322 671 286 667 242 667 L78 667 L73 644 L136 644 L4 20 L-60 20 L-64 0 L246 0 L250 20 L219 20 L288 344 C309 359 327 367 341 367 C355 367 365 357 365 343 C365 335 364 322 362 314 L299 20 L269 20 L265 0 L574 0 Z " />
<glyph glyph-name="i" unicode="i" horiz-adv-x="355" d="M278 0 L282 20 L219 20 L305 426 C265 417 227 413 183 413 L24 413 L20 393 L83 393 L4 20 L-60 20 L-64 0 L278 0 Z M250 674 C178 674 121 631 121 576 C121 534 155 509 211 509 C288 509 343 550 343 607 C343 647 305 674 250 674 L250 674 Z " />
<glyph glyph-name="j" unicode="j" horiz-adv-x="358" d="M308 426 C293 420 227 413 183 413 L27 413 L23 393 L86 393 L2 0 C44 -1 54 -2 68 -7 C104 -19 124 -47 124 -86 C124 -151 81 -200 23 -202 C65 -181 90 -144 90 -101 C90 -60 65 -35 23 -35 C-36 -35 -88 -89 -88 -150 C-88 -197 -53 -227 2 -227 C61 -227 121 -199 157 -154 C182 -123 203 -72 218 0 L308 426 Z M253 674 C181 674 124 631 124 576 C124 534 158 509 214 509 C291 509 346 550 346 607 C346 647 308 674 253 674 L253 674 Z " />
<glyph glyph-name="k" unicode="k" horiz-adv-x="672" d="M599 0 L603 20 L585 20 L466 363 C502 387 519 393 556 393 L593 393 L597 413 L429 413 L425 393 L437 393 C453 393 459 391 459 384 C459 377 451 369 428 354 L268 252 L359 680 C323 671 289 667 247 667 L78 667 L73 647 L137 647 L4 20 L-60 20 L-64 0 L278 0 L282 20 L219 20 L265 235 L339 20 L302 20 L297 0 L599 0 Z " />
<glyph glyph-name="l" unicode="l" horiz-adv-x="355" d="M278 0 L282 20 L219 20 L359 680 C332 672 298 667 259 667 L78 667 L73 647 L137 647 L4 20 L-60 20 L-64 0 L278 0 Z " />
<glyph glyph-name="m" unicode="m" horiz-adv-x="941" d="M864 0 L869 20 L805 20 L861 283 C864 297 866 312 866 325 C866 349 861 365 850 379 C830 404 787 420 743 420 C689 420 640 401 577 355 C549 401 515 420 462 420 C406 420 355 401 290 356 L305 426 C270 418 226 413 176 413 L24 413 L20 393 L83 393 L4 20 L-60 20 L-64 0 L248 0 L252 20 L219 20 L285 331 C308 352 326 361 341 361 C353 361 360 354 360 342 C360 333 359 324 357 315 L294 20 L265 20 L260 0 L538 0 L543 20 L510 20 L576 331 C597 352 616 362 636 362 C649 362 657 354 657 341 C657 336 655 327 652 309 L590 20 L558 20 L553 0 L864 0 Z " />
<glyph glyph-name="n" unicode="n" horiz-adv-x="652" d="M575 0 L579 20 L516 20 L573 287 C576 303 578 319 578 333 C578 385 533 420 465 420 C408 420 353 400 291 359 L305 426 C263 417 229 413 207 413 L24 413 L20 393 L83 393 L4 20 L-60 20 L-64 0 L247 0 L252 20 L219 20 L286 334 C312 355 329 363 343 363 C357 363 365 354 365 336 C365 326 364 319 363 311 L301 20 L268 20 L264 0 L575 0 Z " />
<glyph glyph-name="o" unicode="o" horiz-adv-x="581" d="M308 420 C125 420 -15 303 -15 150 C-15 52 77 -13 217 -13 C408 -13 539 92 539 246 C539 290 526 328 501 353 C460 396 390 420 308 420 L308 420 Z M279 70 C270 26 253 8 220 8 C197 8 186 19 186 39 C186 45 188 57 190 70 L247 335 C257 384 273 402 306 402 C329 402 341 392 341 371 C341 364 339 353 336 338 L279 70 Z " />
<glyph glyph-name="p" unicode="p" horiz-adv-x="612" d="M223 44 C242 29 253 20 257 18 C280 1 312 -9 342 -9 C462 -9 572 122 572 265 C572 358 518 420 437 420 C397 420 365 410 294 376 L305 426 C260 417 219 413 184 413 L23 413 L19 393 L82 393 L-45 -207 L-109 -207 L-113 -227 L229 -227 L233 -207 L170 -207 L223 44 Z M289 352 C310 368 331 377 347 377 C361 377 370 367 370 351 C370 342 369 333 367 324 L320 101 C311 59 299 43 275 43 C258 43 246 50 229 69 L289 352 Z " />
<glyph glyph-name="q" unicode="q" horiz-adv-x="611" d="M211 -207 L148 -207 L144 -227 L486 -227 L490 -207 L426 -207 L554 393 L617 393 L622 413 L463 413 C419 413 383 417 346 426 L334 373 C296 404 253 420 210 420 C92 420 -15 287 -15 140 C-15 47 40 -14 123 -14 C166 -14 208 2 264 41 L211 -207 Z M269 66 C249 50 230 41 212 41 C197 41 188 51 188 66 C188 75 189 87 192 98 L237 311 C246 352 262 373 284 373 C298 373 313 365 329 349 L269 66 Z " />
<glyph glyph-name="r" unicode="r" horiz-adv-x="495" d="M278 0 L282 20 L219 20 L270 258 C281 288 305 320 327 335 C320 320 317 309 317 294 C317 259 343 234 380 234 C439 234 491 290 491 353 C491 393 469 416 430 416 C384 416 342 387 281 313 L305 426 C273 418 230 413 184 413 L24 413 L20 393 L83 393 L4 20 L-60 20 L-64 0 L278 0 Z " />
<glyph glyph-name="s" unicode="s" horiz-adv-x="481" d="M410 247 L447 423 L365 378 C317 409 282 420 235 420 C162 420 97 390 56 338 C32 308 18 272 18 242 C18 182 77 130 192 88 C216 80 225 71 225 58 C225 31 205 14 173 14 C80 14 14 66 14 138 C14 146 15 153 17 167 L-4 167 L-43 -17 L30 33 C68 3 127 -14 189 -14 C316 -14 409 60 409 161 C409 216 389 236 269 304 C204 345 203 346 203 359 C203 380 220 394 247 394 C330 394 391 341 391 268 C391 263 391 258 390 247 L410 247 Z " />
<glyph glyph-name="t" unicode="t" horiz-adv-x="377" d="M307 152 C276 92 257 70 235 70 C224 70 218 75 218 84 C218 90 218 90 225 122 L283 393 L345 393 L350 413 L287 413 L330 616 L308 616 C262 520 120 418 23 413 L19 393 L67 393 L6 104 C3 90 1 76 1 67 C1 21 44 -7 114 -7 C178 -7 226 12 265 55 C284 75 299 98 325 146 L307 152 Z " />
<glyph glyph-name="u" unicode="u" horiz-adv-x="635" d="M279 0 L558 0 L562 20 L499 20 L585 426 C549 417 515 413 477 413 L313 413 L308 393 L363 393 L296 80 C276 63 253 52 239 52 C228 52 220 60 220 72 C220 80 222 95 225 108 L292 426 C252 417 217 413 182 413 L24 413 L19 393 L70 393 L8 102 C5 89 4 77 4 65 C4 16 43 -13 110 -13 C170 -13 224 7 290 53 L279 0 Z " />
<glyph glyph-name="v" unicode="v" horiz-adv-x="496" d="M516 413 L350 413 L345 393 C383 391 398 378 398 348 C398 331 390 308 375 282 L311 169 L267 393 L318 393 L323 413 L14 413 L10 393 L40 393 L117 0 L235 0 L407 295 C448 361 472 383 512 393 L516 413 Z " />
<glyph glyph-name="w" unicode="w" horiz-adv-x="800" d="M821 413 L656 413 L651 393 C685 390 701 374 701 344 C701 328 695 308 682 287 L614 170 L570 393 L622 393 L626 413 L320 413 L316 393 L344 393 L366 270 L308 170 L265 393 L298 393 L302 413 L14 413 L10 393 L39 393 L114 0 L232 0 L373 238 L418 0 L538 0 L708 283 C754 359 774 379 816 393 L821 413 Z " />
<glyph glyph-name="x" unicode="x" horiz-adv-x="526" d="M452 0 L456 20 L430 20 L347 270 L438 352 C475 384 493 391 535 393 L540 413 L367 413 L362 393 C393 393 405 387 405 372 C405 357 397 345 371 320 L341 293 L307 393 L339 393 L343 413 L20 413 L16 393 L63 393 L134 166 L46 89 C9 57 -44 24 -64 20 L-68 0 L89 0 L94 20 C66 22 57 28 57 43 C57 60 69 81 92 101 L141 144 L183 20 L146 20 L141 0 L452 0 Z " />
<glyph glyph-name="y" unicode="y" horiz-adv-x="490" d="M510 413 L348 413 L343 393 C380 389 394 378 394 353 C394 337 384 314 367 290 L335 244 L286 393 L327 393 L331 413 L17 413 L13 393 L38 393 L167 4 L83 -115 L83 -108 L83 -105 C83 -65 51 -34 9 -34 C-50 -34 -105 -92 -105 -155 C-105 -200 -76 -228 -31 -228 C13 -228 51 -200 95 -137 L404 308 C444 366 468 386 506 393 L510 413 Z " />
<glyph glyph-name="z" unicode="z" horiz-adv-x="499" d="M409 0 L447 178 L425 178 C406 92 311 22 209 20 L497 413 L54 413 L15 233 L38 233 C70 331 148 392 240 392 L-52 0 L409 0 Z " />
<glyph glyph-name="braceleft" unicode="&#x7b;" horiz-adv-x="374" d="M-12 213 L3 213 C31 213 48 198 48 174 C48 164 46 148 42 130 C36 100 33 70 33 40 C33 -57 68 -142 132 -202 C168 -236 199 -259 222 -269 L234 -254 C208 -241 195 -231 176 -209 L215 -23 C231 50 235 77 235 99 C235 165 183 205 75 221 L76 226 C140 234 180 247 220 272 C282 314 292 333 320 470 L359 655 C389 678 406 688 437 701 L431 715 C410 709 368 685 312 649 C193 567 113 453 82 317 C70 257 50 235 8 233 L-8 233 L-12 213 Z " />
<glyph glyph-name="bar" unicode="&#x7c;" horiz-adv-x="475" d="M246 667 L69 -167 L194 -167 L372 667 L246 667 Z " />
<glyph glyph-name="braceright" unicode="&#x7d;" horiz-adv-x="374" d="M339 233 L323 233 C296 233 279 248 279 272 C279 282 281 298 285 317 C291 347 294 377 294 407 C294 504 259 589 195 649 C159 683 128 706 104 715 L93 701 C118 688 131 678 151 655 L112 470 C94 388 91 369 91 348 C91 281 143 242 252 226 L251 221 C187 212 147 200 107 175 C44 132 35 114 7 -23 L-33 -209 C-62 -231 -79 -241 -110 -254 L-105 -269 C-84 -262 -41 -239 14 -202 C134 -120 213 -6 245 130 C257 190 276 212 319 213 L334 213 L339 233 Z " />
<glyph glyph-name="asciitilde" unicode="&#x7e;" horiz-adv-x="475" d="M424 370 L411 381 C392 366 378 360 365 360 C353 360 324 367 299 377 C258 392 240 396 215 396 C170 396 145 382 52 302 L66 287 C86 303 96 308 106 308 C113 308 135 301 158 290 C188 277 217 270 242 270 C275 270 309 280 342 300 C364 313 377 324 413 359 L424 370 Z " />
<glyph glyph-name="uni00A0" unicode="&#xa0;" horiz-adv-x="238" d="" />
<glyph glyph-name="exclamdown" unicode="&#xa1;" horiz-adv-x="298" d="M169 420 C97 420 37 375 37 320 C37 278 77 248 132 248 C201 248 262 295 262 349 C262 389 222 420 169 420 L169 420 Z M109 214 L-25 -105 C-53 -175 -55 -181 -55 -198 C-55 -238 -25 -263 24 -263 C72 -263 108 -242 130 -202 C141 -181 145 -154 145 -105 L143 214 L109 214 Z " />
<glyph glyph-name="cent" unicode="&#xa2;" horiz-adv-x="633" d="M297 154 C386 153 454 184 511 251 L495 261 C447 207 397 181 344 181 C318 181 306 193 306 220 C306 229 308 241 312 261 L363 500 C374 554 384 564 429 564 C463 564 483 558 502 541 C492 543 487 544 482 544 C433 544 394 500 394 446 C394 411 418 389 457 389 C510 389 554 437 554 494 C554 552 500 587 412 587 C406 587 400 587 389 586 L407 667 L388 667 L370 584 C303 574 277 565 234 538 C151 486 100 402 100 318 C100 255 133 200 189 172 C212 160 229 157 279 154 L261 72 L280 72 L297 154 Z " />
<glyph glyph-name="sterling" unicode="&#xa3;" horiz-adv-x="633" d="M559 144 C530 59 453 10 351 10 C307 10 279 18 240 43 C298 88 331 153 373 305 L486 305 L490 325 L377 325 C388 373 388 373 397 427 C405 473 407 483 414 511 C440 618 473 656 537 656 C558 656 572 653 592 643 C556 637 538 629 518 610 C494 587 479 553 479 522 C479 478 507 449 550 449 C615 449 667 508 667 579 C667 646 611 683 510 683 C388 683 296 645 238 571 C200 524 180 474 160 381 L149 325 L65 325 L60 305 L144 305 L139 280 C118 180 107 139 90 108 C68 120 52 125 34 125 C-8 125 -46 84 -46 41 C-46 4 -16 -16 41 -16 C106 -16 164 -1 216 29 C293 -53 338 -80 396 -80 C482 -80 551 2 584 144 L559 144 Z M78 80 C60 46 41 30 16 30 C-1 30 -14 39 -14 52 C-14 76 7 97 30 97 C46 97 59 92 78 80 L78 80 Z " />
<glyph glyph-name="currency" unicode="&#xa4;" horiz-adv-x="633" d="M18 118 L40 87 L147 178 C185 142 225 126 273 126 C323 126 372 144 422 180 L490 87 L526 118 L458 211 C515 271 543 333 543 402 C543 437 536 464 519 497 L625 588 L602 619 L496 528 C458 566 420 582 370 582 C318 582 274 566 219 528 L151 619 L115 588 L183 496 C126 436 98 373 98 306 C98 271 106 242 124 209 L18 118 Z M294 496 C303 539 327 561 364 561 C397 561 411 548 411 517 C411 511 410 503 409 496 L349 214 C339 168 317 147 278 147 C246 147 231 159 231 186 C231 194 232 205 234 214 L294 496 Z " />
<glyph glyph-name="yen" unicode="&#xa5;" horiz-adv-x="633" d="M373 23 L433 307 L620 307 L625 330 L439 330 L504 427 L645 427 L650 450 L519 450 L553 500 C609 577 662 626 707 644 L712 667 L497 667 L492 644 C519 642 530 640 540 633 C551 626 559 607 559 589 C559 561 550 541 515 489 L430 358 L356 644 L412 644 L417 667 L64 667 L59 644 L99 644 L151 450 L33 450 L29 427 L157 427 L183 330 L8 330 L3 307 L190 307 L202 260 L152 23 L76 23 L71 0 L452 0 L457 23 L373 23 Z " />
<glyph glyph-name="brokenbar" unicode="&#xa6;" horiz-adv-x="475" d="M246 667 L168 299 L293 299 L372 667 L246 667 Z M137 153 L69 -167 L194 -167 L262 153 L137 153 Z " />
<glyph glyph-name="section" unicode="&#xa7;" horiz-adv-x="540" d="M472 589 C459 610 445 617 417 617 C360 617 316 575 316 522 C316 487 344 462 385 462 C447 462 499 520 499 589 C499 649 450 687 371 687 C292 687 222 651 170 586 C133 539 113 487 113 437 C113 406 118 388 133 362 C51 304 3 231 3 161 C3 128 15 93 34 71 C58 45 106 15 167 -9 C236 -37 293 -72 303 -91 C307 -99 309 -106 309 -113 C309 -171 232 -223 146 -223 C106 -223 65 -211 44 -193 C32 -183 28 -176 24 -157 C38 -171 53 -177 73 -177 C124 -177 167 -132 167 -80 C167 -45 142 -22 104 -22 C43 -22 -6 -76 -6 -145 C-6 -209 48 -247 137 -247 C225 -247 299 -212 351 -146 C386 -102 405 -49 405 1 C405 42 394 67 366 93 C455 164 491 221 491 293 C491 327 481 355 460 376 C444 393 389 424 319 456 C248 488 236 495 219 516 C210 526 205 539 205 551 C205 607 290 666 370 666 C430 666 472 638 472 598 L472 589 Z M349 105 C319 124 307 130 267 149 C107 223 82 239 82 265 C82 295 97 314 144 346 C180 320 200 309 268 276 C400 213 410 206 410 182 C410 158 389 131 349 105 L349 105 Z " />
<glyph glyph-name="dieresis" unicode="&#xa8;" horiz-adv-x="475" d="M412 646 C351 646 300 602 300 548 C300 510 333 484 379 484 C440 484 487 527 487 582 C487 621 458 646 412 646 L412 646 Z M197 647 C139 647 87 601 87 551 C87 512 119 485 164 485 C227 485 274 528 274 585 C274 622 243 647 197 647 L197 647 Z " />
<glyph glyph-name="copyright" unicode="&#xa9;" horiz-adv-x="716" d="M435 680 C220 680 20 476 20 258 C20 101 130 -13 281 -13 C495 -13 695 191 695 409 C695 567 586 680 435 680 L435 680 Z M429 654 C495 654 563 624 604 577 C644 532 665 473 665 405 C665 202 482 13 287 13 C149 13 50 118 50 262 C50 346 81 431 139 503 C216 599 321 654 429 654 L429 654 Z M483 220 C434 170 389 146 344 146 C320 146 310 155 310 178 C310 189 311 197 313 206 L368 465 C376 506 388 520 415 520 C469 520 515 469 515 408 C515 399 514 391 511 376 L532 376 L568 548 L498 513 C470 536 445 545 404 545 C262 545 145 426 145 283 C145 184 213 121 318 121 C386 121 437 145 500 207 L483 220 Z " />
<glyph glyph-name="ordfeminine" unicode="&#xaa;" horiz-adv-x="376" d="M361 343 L19 343 L11 308 L353 308 L361 343 Z M380 480 C368 465 362 459 360 459 C358 459 356 464 357 468 L381 580 C383 590 384 600 384 611 C384 651 329 674 232 674 C153 674 104 646 104 602 C104 580 118 567 143 567 C178 567 205 592 205 624 C205 636 201 643 188 650 L214 654 L215 654 C239 654 254 644 254 628 C254 622 253 614 252 607 L239 546 C222 552 199 555 175 555 C96 555 43 522 43 472 C43 437 79 410 125 410 C158 410 189 418 222 435 C237 417 252 410 279 410 C326 410 365 431 392 470 L380 480 Z M219 452 C201 444 190 441 180 441 C173 441 168 446 168 454 C168 456 168 459 169 462 L179 510 C183 526 189 532 203 532 C214 532 223 530 234 526 L219 452 Z " />
<glyph glyph-name="guillemotleft" unicode="&#xab;" horiz-adv-x="518" d="M427 55 L327 208 L492 361 L349 361 L183 208 L281 55 L427 55 Z M238 55 L137 208 L303 361 L158 361 L-8 208 L93 55 L238 55 Z " />
<glyph glyph-name="logicalnot" unicode="&#xac;" horiz-adv-x="475" d="M181 0 L380 0 L436 267 L10 267 L-9 178 L218 178 L181 0 Z " />
<glyph glyph-name="uni00AD" unicode="&#xad;" horiz-adv-x="272" d="M233 151 L270 324 L-2 324 L-39 151 L233 151 Z " />
<glyph glyph-name="registered" unicode="&#xae;" horiz-adv-x="716" d="M435 680 C220 680 20 476 20 258 C20 101 130 -13 281 -13 C495 -13 695 191 695 409 C695 567 586 680 435 680 L435 680 Z M429 654 C495 654 563 624 604 577 C644 532 665 473 665 405 C665 202 482 13 287 13 C149 13 50 118 50 262 C50 346 81 431 139 503 C216 599 321 654 429 654 L429 654 Z M533 210 C527 193 522 186 517 186 C515 186 513 189 513 193 C513 199 516 211 519 224 C532 263 533 270 533 289 C533 315 522 330 492 343 C543 365 573 409 573 464 C573 514 547 533 477 533 L205 533 L201 513 L237 513 L160 153 L124 153 L120 133 L329 133 L333 153 L296 153 L334 333 L338 333 C383 333 388 331 388 313 C388 304 387 297 382 270 C374 230 370 206 370 193 C370 147 395 125 445 125 C500 125 526 144 551 206 L533 210 Z M338 354 L372 513 L389 513 C421 513 428 509 428 489 C428 483 427 478 426 472 L410 396 C401 361 390 354 345 354 L338 354 Z " />
<glyph glyph-name="macron" unicode="&#xaf;" horiz-adv-x="368" d="M392 602 L90 602 L75 530 L377 530 L392 602 Z " />
<glyph glyph-name="degree" unicode="&#xb0;" horiz-adv-x="400" d="M204 686 C118 686 50 619 50 534 C50 449 116 381 200 381 C284 381 350 448 350 534 C350 619 286 686 204 686 L204 686 Z M202 629 C252 629 293 586 293 534 C293 480 252 438 200 438 C148 438 106 481 106 533 C106 587 148 629 202 629 L202 629 Z " />
<glyph glyph-name="plusminus" unicode="&#xb1;" horiz-adv-x="633" d="M544 356 L341 356 L389 581 L349 581 L301 356 L100 356 L90 313 L292 313 L244 88 L284 88 L332 313 L534 313 L544 356 Z M477 43 L33 43 L24 1 L468 1 L477 43 Z " />
<glyph glyph-name="twosuperior" unicode="&#xb2;" horiz-adv-x="412" d="M21 255 C44 272 61 278 82 278 C98 278 139 273 178 266 C195 263 209 261 218 261 C279 261 330 302 399 408 L382 420 C359 387 350 382 305 382 C288 382 269 383 251 385 C228 387 214 388 209 388 C195 390 188 390 167 390 C182 395 185 396 211 401 C349 430 414 484 414 567 C414 636 355 676 251 676 C196 676 152 662 118 632 C93 610 78 584 78 561 C78 532 100 510 130 510 C171 510 206 545 206 587 C206 613 189 631 164 631 C159 631 153 631 146 630 C168 645 185 651 207 651 C243 651 266 631 266 599 C266 577 260 547 250 518 C233 467 206 436 153 404 C68 355 35 324 6 265 L21 255 Z " />
<glyph glyph-name="threesuperior" unicode="&#xb3;" horiz-adv-x="412" d="M254 532 C248 507 242 502 222 502 L187 502 L182 479 L211 479 C232 479 238 475 238 464 C238 459 237 452 236 446 L211 327 C203 291 189 280 154 280 C121 280 94 289 79 304 C89 301 94 300 101 300 C137 300 167 331 167 368 C167 394 148 412 121 412 C80 412 44 376 44 335 C44 285 90 257 173 257 C260 257 318 279 356 326 C374 348 384 374 384 399 C384 445 361 472 305 490 C346 498 364 506 381 523 C400 542 411 568 411 594 C411 646 361 676 273 676 C177 676 112 638 112 582 C112 556 129 540 157 540 C195 540 227 571 227 607 C227 629 218 641 194 648 C212 652 223 654 237 654 C264 654 273 648 273 631 C273 624 272 618 271 612 L254 532 Z " />
<glyph glyph-name="acute" unicode="&#xb4;" horiz-adv-x="475" d="M237 483 L269 483 L453 596 L459 623 L301 623 L237 483 Z " />
<glyph glyph-name="mu" unicode="&#xb5;" horiz-adv-x="576" d="M442 500 L353 500 L354 131 C318 80 284 58 242 58 C184 58 150 99 150 169 L150 500 L62 500 L62 20 C62 -1 58 -26 51 -56 C34 -118 33 -123 33 -147 C33 -190 54 -219 83 -219 C112 -219 132 -189 132 -146 C132 -124 129 -111 113 -53 C103 -17 101 -8 101 21 L101 33 C143 -2 166 -13 200 -13 C250 -13 301 18 354 80 C362 48 367 36 377 21 C392 0 419 -13 449 -13 C510 -13 553 31 567 108 L540 109 C536 71 515 41 492 41 C462 41 442 77 442 131 L442 500 Z " />
<glyph glyph-name="paragraph" unicode="&#xb6;" horiz-adv-x="781" d="M841 700 L312 700 C240 700 209 691 166 657 C95 602 45 492 45 388 C45 348 54 313 72 285 C100 240 132 227 219 227 L262 227 L164 -233 L88 -233 L84 -253 L329 -253 L528 680 L591 680 L392 -253 L638 -253 L642 -233 L566 -233 L761 680 L836 680 L841 700 Z M267 251 L241 251 C224 251 214 268 214 296 C214 309 217 330 222 355 L269 576 C282 643 304 679 333 680 L358 680 L267 251 Z " />
<glyph glyph-name="periodcentered" unicode="&#xb7;" horiz-adv-x="299" d="M142 296 C73 296 10 246 10 193 C10 148 50 116 105 116 C177 116 235 161 235 218 C235 265 198 296 142 296 L142 296 Z " />
<glyph glyph-name="cedilla" unicode="&#xb8;" horiz-adv-x="475" d="M162 0 L91 -83 L100 -94 C109 -88 115 -86 123 -86 C141 -86 151 -96 151 -114 C151 -148 122 -172 82 -172 C59 -172 42 -168 17 -158 L6 -175 C42 -193 71 -199 123 -199 C175 -199 204 -192 229 -174 C252 -157 265 -134 265 -110 C265 -76 237 -55 190 -55 C170 -55 155 -57 131 -65 L186 0 L162 0 Z " />
<glyph glyph-name="onesuperior" unicode="&#xb9;" horiz-adv-x="412" d="M311 266 L315 287 L268 287 L352 682 C298 655 264 647 197 647 L153 647 L149 627 L196 627 L124 287 L76 287 L72 266 L311 266 Z " />
<glyph glyph-name="ordmasculine" unicode="&#xba;" horiz-adv-x="376" d="M361 343 L19 343 L11 308 L353 308 L361 343 Z M261 674 C144 674 56 604 56 511 C56 450 115 410 205 410 C325 410 407 474 407 567 C407 633 351 674 261 674 L261 674 Z M241 463 C236 438 227 429 206 429 C192 429 187 434 187 446 C187 450 188 457 189 463 L222 620 C228 647 237 657 256 657 C270 657 277 652 277 641 C277 635 276 629 275 622 L241 463 Z " />
<glyph glyph-name="guillemotright" unicode="&#xbb;" horiz-adv-x="518" d="M37 361 L137 208 L-28 55 L115 55 L281 208 L183 361 L37 361 Z M226 361 L327 208 L161 55 L306 55 L472 208 L371 361 L226 361 Z " />
<glyph glyph-name="onequarter" unicode="&#xbc;" horiz-adv-x="898" d="M311 266 L315 287 L268 287 L352 682 C298 655 264 647 197 647 L153 647 L149 627 L196 627 L124 287 L76 287 L72 266 L311 266 Z M199 -13 L728 680 L700 680 L171 -13 L199 -13 Z M800 0 L804 21 L763 21 L779 96 L820 96 L825 117 L783 117 L843 400 L722 400 L450 96 L634 96 L618 21 L563 21 L558 0 L800 0 Z M638 117 L493 117 L683 328 L638 117 Z " />
<glyph glyph-name="onehalf" unicode="&#xbd;" horiz-adv-x="898" d="M311 266 L315 287 L268 287 L352 682 C298 655 264 647 197 647 L153 647 L149 627 L196 627 L124 287 L76 287 L72 266 L311 266 Z M199 -13 L728 680 L700 680 L171 -13 L199 -13 Z M451 -12 C475 6 490 11 516 11 C536 11 557 9 576 5 C630 -7 631 -7 646 -7 C709 -7 759 33 829 141 L812 152 C788 119 780 115 735 115 C718 115 698 116 681 118 C629 122 629 122 597 123 C612 128 615 128 641 134 C779 164 844 216 844 299 C844 369 786 409 682 409 C626 409 582 394 548 365 C523 343 508 317 508 293 C508 264 530 242 560 242 C601 242 636 278 636 320 C636 346 619 364 594 364 C589 364 583 363 576 362 C599 378 615 384 638 384 C674 384 697 364 697 333 C697 310 691 281 681 251 C664 200 637 169 584 137 C499 88 464 55 436 -2 L451 -12 Z " />
<glyph glyph-name="threequarters" unicode="&#xbe;" horiz-adv-x="898" d="M254 532 C248 507 242 502 222 502 L187 502 L182 479 L211 479 C232 479 238 475 238 464 C238 459 237 452 236 446 L211 327 C203 291 189 280 154 280 C121 280 94 289 79 304 C89 301 94 300 101 300 C137 300 167 331 167 368 C167 394 148 412 121 412 C80 412 44 376 44 335 C44 285 90 257 173 257 C260 257 318 279 356 326 C374 348 384 374 384 399 C384 445 361 472 305 490 C346 498 364 506 381 523 C400 542 411 568 411 594 C411 646 361 676 273 676 C177 676 112 638 112 582 C112 556 129 540 157 540 C195 540 227 571 227 607 C227 629 218 641 194 648 C212 652 223 654 237 654 C264 654 273 648 273 631 C273 624 272 618 271 612 L254 532 Z M199 -13 L728 680 L700 680 L171 -13 L199 -13 Z M800 0 L804 21 L763 21 L779 96 L820 96 L825 117 L783 117 L843 400 L722 400 L449 96 L634 96 L618 21 L563 21 L558 0 L800 0 Z M638 117 L493 117 L683 328 L638 117 Z " />
<glyph glyph-name="questiondown" unicode="&#xbf;" horiz-adv-x="451" d="M291 420 C226 420 172 382 172 335 C172 298 209 270 259 270 C321 270 376 310 376 355 C376 393 340 420 291 420 L291 420 Z M267 256 L236 221 C153 215 95 195 45 153 C-20 98 -60 16 -60 -63 C-60 -176 25 -264 134 -264 C233 -264 334 -175 334 -86 C334 -43 308 -17 264 -17 C206 -17 159 -64 159 -123 C159 -164 185 -190 226 -190 C241 -190 251 -188 267 -180 C230 -220 197 -237 158 -237 C101 -237 58 -183 58 -112 C58 -13 134 56 249 60 L267 256 Z " />
<glyph glyph-name="Agrave" unicode="&#xc0;" horiz-adv-x="743" d="M538 716 L532 856 L366 856 L360 829 L513 716 L538 716 Z M668 0 L673 23 L638 23 L562 667 L345 667 L73 174 C15 80 -30 30 -63 23 L-68 0 L179 0 L183 23 C118 24 90 50 90 109 C90 139 97 166 116 205 L336 205 L357 23 L285 23 L280 0 L668 0 Z M334 228 L128 228 L296 539 L334 228 Z " />
<glyph glyph-name="Aacute" unicode="&#xc1;" horiz-adv-x="743" d="M400 716 L425 716 L626 829 L632 856 L466 856 L400 716 Z M668 0 L673 23 L638 23 L562 667 L345 667 L73 174 C15 80 -30 30 -63 23 L-68 0 L179 0 L183 23 C118 24 90 50 90 109 C90 139 97 166 116 205 L336 205 L357 23 L285 23 L280 0 L668 0 Z M334 228 L128 228 L296 539 L334 228 Z " />
<glyph glyph-name="Acircumflex" unicode="&#xc2;" horiz-adv-x="743" d="M656 758 C599 782 561 823 552 869 L443 869 C415 823 359 782 291 758 L294 728 C356 733 410 748 479 780 C532 749 583 733 641 728 L656 758 Z M668 0 L673 23 L638 23 L562 667 L345 667 L73 174 C15 80 -30 30 -63 23 L-68 0 L179 0 L183 23 C118 24 90 50 90 109 C90 139 97 166 116 205 L336 205 L357 23 L285 23 L280 0 L668 0 Z M334 228 L128 228 L296 539 L334 228 Z " />
<glyph glyph-name="Atilde" unicode="&#xc3;" horiz-adv-x="743" d="M665 850 C646 835 633 829 619 829 C608 829 579 836 553 846 C512 861 494 865 470 865 C425 865 399 850 306 771 L321 756 C339 771 350 777 361 777 C367 777 389 770 412 759 C442 746 471 739 497 739 C529 739 563 749 597 769 C618 782 629 791 667 828 C671 832 675 835 678 839 L665 850 Z M668 0 L673 23 L638 23 L562 667 L345 667 L73 174 C15 80 -30 30 -63 23 L-68 0 L179 0 L183 23 C118 24 90 50 90 109 C90 139 97 166 116 205 L336 205 L357 23 L285 23 L280 0 L668 0 Z M334 228 L128 228 L296 539 L334 228 Z " />
<glyph glyph-name="Adieresis" unicode="&#xc4;" horiz-adv-x="743" d="M618 886 C557 886 506 842 506 787 C506 750 539 724 586 724 C647 724 694 767 694 823 C694 862 665 886 618 886 L618 886 Z M360 887 C301 887 249 842 249 791 C249 752 280 725 326 725 C389 725 436 768 436 825 C436 862 406 887 360 887 L360 887 Z M668 0 L673 23 L638 23 L562 667 L345 667 L73 174 C15 80 -30 30 -63 23 L-68 0 L179 0 L183 23 C118 24 90 50 90 109 C90 139 97 166 116 205 L336 205 L357 23 L285 23 L280 0 L668 0 Z M334 228 L128 228 L296 539 L334 228 Z " />
<glyph glyph-name="Aring" unicode="&#xc5;" horiz-adv-x="743" d="M506 906 C422 906 354 856 354 795 C354 747 395 718 463 718 C552 718 617 765 617 827 C617 874 572 906 506 906 L506 906 Z M499 877 C551 877 588 854 588 822 C588 779 539 748 470 748 C415 748 383 768 383 802 C383 843 435 877 499 877 L499 877 Z M668 0 L673 23 L638 23 L562 667 L345 667 L73 174 C15 80 -30 30 -63 23 L-68 0 L179 0 L183 23 C118 24 90 50 90 109 C90 139 97 166 116 205 L336 205 L357 23 L285 23 L280 0 L668 0 Z M334 228 L128 228 L296 539 L334 228 Z " />
<glyph glyph-name="AE" unicode="&#xc6;" horiz-adv-x="1033" d="M906 0 L959 249 L938 249 C901 164 880 134 823 91 C757 44 726 33 628 23 L693 333 C737 332 759 324 776 303 C790 285 798 262 798 236 C798 219 796 205 791 180 L813 180 L884 511 L862 511 C834 401 789 358 698 355 L759 643 C828 642 859 636 888 620 C935 594 962 543 962 482 C962 477 962 470 961 457 L983 457 L1027 667 L434 667 L429 644 L505 644 L96 170 C42 103 -36 35 -72 23 L-77 0 L132 0 L137 23 C99 28 76 49 76 79 C76 104 90 128 128 173 L155 205 L408 205 L369 23 L294 23 L289 0 L906 0 Z M413 230 L176 230 L490 594 L413 230 Z " />
<glyph glyph-name="Ccedilla" unicode="&#xc7;" horiz-adv-x="665" d="M256 -19 C271 -20 279 -20 287 -20 C397 -20 477 18 575 117 L556 133 C478 50 403 10 328 10 C291 10 269 30 269 64 C269 77 272 98 276 117 L369 557 C385 632 406 657 454 657 C538 657 618 568 618 474 C618 454 616 434 612 412 L634 412 L693 687 L585 631 C539 672 501 687 435 687 C312 687 202 633 123 534 C57 452 20 348 20 246 C20 104 100 6 233 -16 L174 -83 L183 -94 C193 -88 199 -86 208 -86 C226 -86 237 -96 237 -115 C237 -148 207 -172 165 -172 C141 -172 123 -168 97 -158 L86 -175 C124 -193 154 -199 209 -199 C264 -199 296 -192 322 -172 C344 -156 357 -134 357 -110 C357 -76 327 -55 277 -55 C256 -55 241 -57 215 -65 L256 -19 Z " />
<glyph glyph-name="Egrave" unicode="&#xc8;" horiz-adv-x="709" d="M506 716 L500 856 L334 856 L328 829 L481 716 L506 716 Z M581 0 L633 246 L613 246 C568 116 442 25 302 23 L368 331 L387 331 C437 331 473 290 473 232 C473 216 471 203 466 179 L486 179 L557 511 L537 511 C520 418 464 356 393 355 L373 355 L434 644 C485 644 505 642 527 636 C594 617 638 558 638 486 C638 477 638 471 636 457 L657 457 L702 667 L93 667 L88 644 L162 644 L30 23 L-44 23 L-49 0 L581 0 Z " />
<glyph glyph-name="Eacute" unicode="&#xc9;" horiz-adv-x="709" d="M391 716 L416 716 L617 829 L623 856 L457 856 L391 716 Z M581 0 L633 246 L613 246 C568 116 442 25 302 23 L368 331 L387 331 C437 331 473 290 473 232 C473 216 471 203 466 179 L486 179 L557 511 L537 511 C520 418 464 356 393 355 L373 355 L434 644 C485 644 505 642 527 636 C594 617 638 558 638 486 C638 477 638 471 636 457 L657 457 L702 667 L93 667 L88 644 L162 644 L30 23 L-44 23 L-49 0 L581 0 Z " />
<glyph glyph-name="Ecircumflex" unicode="&#xca;" horiz-adv-x="709" d="M629 758 C572 782 533 823 525 869 L415 869 C387 822 332 782 264 758 L267 728 C329 733 383 748 451 780 C505 749 555 733 614 728 L629 758 Z M581 0 L633 246 L613 246 C568 116 442 25 302 23 L368 331 L387 331 C437 331 473 290 473 232 C473 216 471 203 466 179 L486 179 L557 511 L537 511 C520 418 464 356 393 355 L373 355 L434 644 C485 644 505 642 527 636 C594 617 638 558 638 486 C638 477 638 471 636 457 L657 457 L702 667 L93 667 L88 644 L162 644 L30 23 L-44 23 L-49 0 L581 0 Z " />
<glyph glyph-name="Edieresis" unicode="&#xcb;" horiz-adv-x="709" d="M601 886 C540 886 489 842 489 787 C489 750 522 724 569 724 C630 724 677 767 677 822 C677 862 648 886 601 886 L601 886 Z M342 887 C284 887 232 841 232 791 C232 752 264 725 309 725 C372 725 419 768 419 825 C419 862 388 887 342 887 L342 887 Z M581 0 L633 246 L613 246 C568 116 442 25 302 23 L368 331 L387 331 C437 331 473 290 473 232 C473 216 471 203 466 179 L486 179 L557 511 L537 511 C520 418 464 356 393 355 L373 355 L434 644 C485 644 505 642 527 636 C594 617 638 558 638 486 C638 477 638 471 636 457 L657 457 L702 667 L93 667 L88 644 L162 644 L30 23 L-44 23 L-49 0 L581 0 Z " />
<glyph glyph-name="Igrave" unicode="&#xcc;" horiz-adv-x="469" d="M375 0 L380 23 L306 23 L438 644 L512 644 L517 667 L93 667 L88 644 L162 644 L30 23 L-44 23 L-49 0 L375 0 Z M389 716 L383 856 L216 856 L211 829 L363 716 L389 716 Z " />
<glyph glyph-name="Iacute" unicode="&#xcd;" horiz-adv-x="469" d="M375 0 L380 23 L306 23 L438 644 L512 644 L517 667 L93 667 L88 644 L162 644 L30 23 L-44 23 L-49 0 L375 0 Z M263 716 L288 716 L489 829 L495 856 L329 856 L263 716 Z " />
<glyph glyph-name="Icircumflex" unicode="&#xce;" horiz-adv-x="469" d="M375 0 L380 23 L306 23 L438 644 L512 644 L517 667 L93 667 L88 644 L162 644 L30 23 L-44 23 L-49 0 L375 0 Z M511 758 C454 782 415 823 407 869 L298 869 C269 823 213 782 146 758 L149 728 C210 733 266 749 333 780 C387 749 438 733 496 728 L511 758 Z " />
<glyph glyph-name="Idieresis" unicode="&#xcf;" horiz-adv-x="469" d="M375 0 L380 23 L306 23 L438 644 L512 644 L517 667 L93 667 L88 644 L162 644 L30 23 L-44 23 L-49 0 L375 0 Z M456 886 C398 886 350 841 350 787 C350 750 380 724 423 724 C480 724 525 768 525 824 C525 862 498 886 456 886 L456 886 Z M248 887 C193 887 143 841 143 789 C143 751 172 725 215 725 C273 725 319 769 319 826 C319 863 291 887 248 887 L248 887 Z " />
<glyph glyph-name="Eth" unicode="&#xd0;" horiz-adv-x="820" d="M23 340 L97 340 L30 23 L-44 23 L-49 0 L449 0 C543 0 623 44 695 137 C763 223 801 326 801 420 C801 478 786 534 760 579 C723 641 666 667 569 667 L93 667 L88 644 L162 644 L102 363 L28 363 L23 340 Z M375 363 L434 644 L482 644 C529 644 540 636 540 605 C540 591 538 573 533 549 L441 118 C427 45 404 23 341 23 L302 23 L370 340 L428 340 L433 363 L375 363 Z " />
<glyph glyph-name="Ntilde" unicode="&#xd1;" horiz-adv-x="780" d="M685 839 L672 850 C653 835 639 829 626 829 C615 829 585 836 560 846 C519 861 501 865 476 865 C431 865 406 851 313 771 L327 756 C346 771 357 777 367 777 C374 777 396 770 419 759 C449 746 478 739 503 739 C536 739 570 749 603 769 C625 782 637 792 674 828 L685 839 Z M597 0 L694 457 C717 570 773 645 834 644 L839 667 L585 667 L580 644 L601 644 C654 644 677 614 677 544 C677 512 674 480 667 449 L634 295 L450 667 L84 667 L79 644 L138 644 L166 582 L83 192 C61 89 6 22 -53 23 L-58 0 L187 0 L192 23 C135 24 106 59 106 126 C106 159 110 193 117 228 L184 545 L443 0 L597 0 Z " />
<glyph glyph-name="Ograve" unicode="&#xd2;" horiz-adv-x="764" d="M508 716 L502 856 L336 856 L330 829 L483 716 L508 716 Z M457 687 C204 687 19 497 19 238 C19 161 39 110 89 58 C137 7 218 -20 320 -20 C463 -20 578 43 666 169 C718 245 747 336 747 429 C747 594 643 687 457 687 L457 687 Z M389 601 C398 644 419 666 453 666 C481 666 493 654 493 625 C493 617 492 609 491 601 L377 68 C367 22 347 1 313 1 C285 1 272 13 272 38 C272 47 273 58 275 68 L389 601 Z " />
<glyph glyph-name="Oacute" unicode="&#xd3;" horiz-adv-x="764" d="M439 716 L464 716 L665 829 L671 856 L505 856 L439 716 Z M457 687 C204 687 19 497 19 238 C19 161 39 110 89 58 C137 7 218 -20 320 -20 C463 -20 578 43 666 169 C718 245 747 336 747 429 C747 594 643 687 457 687 L457 687 Z M389 601 C398 644 419 666 453 666 C481 666 493 654 493 625 C493 617 492 609 491 601 L377 68 C367 22 347 1 313 1 C285 1 272 13 272 38 C272 47 273 58 275 68 L389 601 Z " />
<glyph glyph-name="Ocircumflex" unicode="&#xd4;" horiz-adv-x="764" d="M655 758 C598 782 560 823 551 869 L442 869 C414 822 358 782 291 758 L293 728 C355 733 409 748 478 780 C532 749 582 733 640 728 L655 758 Z M457 687 C204 687 19 497 19 238 C19 161 39 110 89 58 C137 7 218 -20 320 -20 C463 -20 578 43 666 169 C718 245 747 336 747 429 C747 594 643 687 457 687 L457 687 Z M389 601 C398 644 419 666 453 666 C481 666 493 654 493 625 C493 617 492 609 491 601 L377 68 C367 22 347 1 313 1 C285 1 272 13 272 38 C272 47 273 58 275 68 L389 601 Z " />
<glyph glyph-name="Otilde" unicode="&#xd5;" horiz-adv-x="764" d="M669 839 L656 850 C636 835 623 829 610 829 C598 829 570 836 544 846 C503 861 484 865 460 865 C415 865 388 849 297 771 L311 756 C330 771 341 777 351 777 C358 777 380 770 403 759 C433 746 462 739 487 739 C520 739 554 749 587 769 C609 782 621 792 658 828 L669 839 Z M457 687 C204 687 19 497 19 238 C19 161 39 110 89 58 C137 7 218 -20 320 -20 C463 -20 578 43 666 169 C718 245 747 336 747 429 C747 594 643 687 457 687 L457 687 Z M389 601 C398 644 419 666 453 666 C481 666 493 654 493 625 C493 617 492 609 491 601 L377 68 C367 22 347 1 313 1 C285 1 272 13 272 38 C272 47 273 58 275 68 L389 601 Z " />
<glyph glyph-name="Odieresis" unicode="&#xd6;" horiz-adv-x="764" d="M630 886 C568 886 518 842 518 787 C518 750 551 724 597 724 C658 724 705 767 705 822 C705 861 676 886 630 886 L630 886 Z M372 887 C313 887 261 842 261 791 C261 752 293 725 338 725 C401 725 448 768 448 825 C448 862 417 887 372 887 L372 887 Z M457 687 C204 687 19 497 19 238 C19 161 39 110 89 58 C137 7 218 -20 320 -20 C463 -20 578 43 666 169 C718 245 747 336 747 429 C747 594 643 687 457 687 L457 687 Z M389 601 C398 644 419 666 453 666 C481 666 493 654 493 625 C493 617 492 609 491 601 L377 68 C367 22 347 1 313 1 C285 1 272 13 272 38 C272 47 273 58 275 68 L389 601 Z " />
<glyph glyph-name="multiply" unicode="&#xd7;" horiz-adv-x="633" d="M509 524 L323 364 L199 533 L164 503 L289 334 L103 175 L125 145 L311 304 L435 136 L470 165 L345 334 L532 494 L509 524 Z " />
<glyph glyph-name="Oslash" unicode="&#xd8;" horiz-adv-x="764" d="M-11 58 L54 101 C106 19 189 -20 308 -20 C462 -20 576 40 665 169 C718 245 746 336 746 429 C746 476 739 511 724 548 L783 587 L773 608 L714 568 C667 647 579 687 452 687 C205 687 18 493 18 237 C18 192 25 159 43 121 L-21 79 L-11 58 Z M446 396 L325 303 L388 601 C397 644 419 666 452 666 C480 666 492 654 492 625 C492 614 491 608 490 601 L446 396 Z M318 271 L440 364 L377 68 C367 22 347 1 312 1 C284 1 271 13 271 38 C271 45 273 58 275 68 L318 271 Z " />
<glyph glyph-name="Ugrave" unicode="&#xd9;" horiz-adv-x="731" d="M543 716 L537 856 L371 856 L365 829 L518 716 L543 716 Z M789 667 L548 667 L543 644 C604 642 628 614 628 543 C628 515 623 476 615 437 L560 180 C550 132 530 96 500 71 C461 38 410 18 364 18 C329 18 311 32 311 58 L311 61 L318 110 L431 644 L498 644 L503 667 L89 667 L84 644 L159 644 L59 176 C54 154 52 135 52 120 C52 80 76 48 126 21 C170 -3 249 -20 317 -20 C454 -20 559 55 584 170 L647 467 C670 575 724 644 784 644 L789 667 Z " />
<glyph glyph-name="Uacute" unicode="&#xda;" horiz-adv-x="731" d="M443 716 L468 716 L669 829 L675 856 L508 856 L443 716 Z M789 667 L548 667 L543 644 C604 642 628 614 628 543 C628 515 623 476 615 437 L560 180 C550 132 530 96 500 71 C461 38 410 18 364 18 C329 18 311 32 311 58 L311 61 L318 110 L431 644 L498 644 L503 667 L89 667 L84 644 L159 644 L59 176 C54 154 52 135 52 120 C52 80 76 48 126 21 C170 -3 249 -20 317 -20 C454 -20 559 55 584 170 L647 467 C670 575 724 644 784 644 L789 667 Z " />
<glyph glyph-name="Ucircumflex" unicode="&#xdb;" horiz-adv-x="731" d="M668 758 C610 782 572 822 563 869 L454 869 C425 822 370 782 303 758 L305 728 C367 733 421 748 490 780 C544 749 594 733 652 728 L668 758 Z M789 667 L548 667 L543 644 C604 642 628 614 628 543 C628 515 623 476 615 437 L560 180 C550 132 530 96 500 71 C461 38 410 18 364 18 C329 18 311 32 311 58 L311 61 L318 110 L431 644 L498 644 L503 667 L89 667 L84 644 L159 644 L59 176 C54 154 52 135 52 120 C52 80 76 48 126 21 C170 -3 249 -20 317 -20 C454 -20 559 55 584 170 L647 467 C670 575 724 644 784 644 L789 667 Z " />
<glyph glyph-name="Udieresis" unicode="&#xdc;" horiz-adv-x="731" d="M643 886 C581 886 530 842 530 787 C530 750 563 724 610 724 C671 724 718 767 718 823 C718 861 689 886 643 886 L643 886 Z M384 887 C325 887 273 842 273 791 C273 752 305 725 350 725 C413 725 460 768 460 825 C460 862 430 887 384 887 L384 887 Z M789 667 L548 667 L543 644 C604 642 628 614 628 543 C628 515 623 476 615 437 L560 180 C550 132 530 96 500 71 C461 38 410 18 364 18 C329 18 311 32 311 58 L311 61 L318 110 L431 644 L498 644 L503 667 L89 667 L84 644 L159 644 L59 176 C54 154 52 135 52 120 C52 80 76 48 126 21 C170 -3 249 -20 317 -20 C454 -20 559 55 584 170 L647 467 C670 575 724 644 784 644 L789 667 Z " />
<glyph glyph-name="Yacute" unicode="&#xdd;" horiz-adv-x="726" d="M464 716 L489 716 L690 829 L695 856 L529 856 L464 716 Z M797 667 L581 667 L576 644 C604 642 615 640 625 633 C635 626 644 607 644 590 C644 564 628 528 599 489 L502 358 L416 644 L484 644 L489 667 L71 667 L66 644 L106 644 L222 260 L172 23 L94 23 L89 0 L524 0 L529 23 L444 23 L509 328 L637 500 C698 582 745 625 792 644 L797 667 Z " />
<glyph glyph-name="Thorn" unicode="&#xde;" horiz-adv-x="771" d="M373 0 L378 23 L302 23 L336 182 L448 182 C554 182 617 197 664 233 C725 280 763 362 763 444 C763 495 745 538 717 557 C691 573 667 578 592 580 L421 580 L434 644 L510 644 L515 667 L93 667 L88 644 L162 644 L30 23 L-44 23 L-49 0 L373 0 Z M341 206 L416 557 L450 557 C492 557 502 550 502 518 C502 500 499 476 495 455 L457 280 C447 230 420 205 377 205 L373 205 L349 206 L341 206 Z " />
<glyph glyph-name="germandbls" unicode="&#xdf;" horiz-adv-x="651" d="M246 0 C284 -7 309 -10 341 -10 C486 -10 609 107 609 245 C609 288 595 323 569 345 C539 371 506 381 431 385 C507 394 542 406 574 437 C609 469 629 515 629 561 C629 640 560 684 432 684 C304 684 207 648 154 580 C119 535 106 502 84 397 L4 20 L-60 20 L-64 0 L215 0 L342 598 C352 645 371 666 405 666 C428 666 439 656 439 636 C439 625 438 617 436 608 L407 471 C391 404 380 393 329 391 L325 371 C363 371 375 364 375 340 C375 328 373 311 371 300 L326 88 C313 40 300 27 249 17 L246 0 Z " />
<glyph glyph-name="agrave" unicode="&#xe0;" horiz-adv-x="586" d="M426 483 L421 623 L263 623 L257 596 L394 483 L426 483 Z M508 88 C478 54 478 53 471 53 C468 53 467 56 467 60 C467 66 468 72 470 78 L510 267 C515 292 517 306 517 315 C517 382 433 420 288 420 C217 420 174 412 138 393 C99 373 75 338 75 301 C75 263 99 240 140 240 C194 240 236 283 236 339 C236 366 225 381 198 390 C214 395 223 397 237 397 C285 397 312 380 312 350 C312 343 310 328 307 313 L285 213 C252 226 220 231 178 231 C118 231 72 219 36 192 C-2 164 -25 124 -25 85 C-25 27 30 -13 110 -13 C158 -13 195 -2 252 31 C278 -2 303 -13 349 -13 C421 -13 482 19 523 78 L508 88 Z M250 48 C220 32 206 27 194 27 C179 27 171 36 171 51 C171 57 172 63 173 68 L193 161 C199 191 212 204 234 204 C249 204 261 201 281 192 L250 48 Z " />
<glyph glyph-name="aacute" unicode="&#xe1;" horiz-adv-x="586" d="M303 483 L335 483 L520 596 L525 623 L367 623 L303 483 Z M508 88 C478 54 478 53 471 53 C468 53 467 56 467 60 C467 66 468 72 470 78 L510 267 C515 292 517 306 517 315 C517 382 433 420 288 420 C217 420 174 412 138 393 C99 373 75 338 75 301 C75 263 99 240 140 240 C194 240 236 283 236 339 C236 366 225 381 198 390 C214 395 223 397 237 397 C285 397 312 380 312 350 C312 343 310 328 307 313 L285 213 C252 226 220 231 178 231 C118 231 72 219 36 192 C-2 164 -25 124 -25 85 C-25 27 30 -13 110 -13 C158 -13 195 -2 252 31 C278 -2 303 -13 349 -13 C421 -13 482 19 523 78 L508 88 Z M250 48 C220 32 206 27 194 27 C179 27 171 36 171 51 C171 57 172 63 173 68 L193 161 C199 191 212 204 234 204 C249 204 261 201 281 192 L250 48 Z " />
<glyph glyph-name="acircumflex" unicode="&#xe2;" horiz-adv-x="586" d="M519 525 C464 549 428 590 421 636 L317 636 C289 589 236 549 171 525 L173 495 C232 500 284 515 350 547 C400 516 448 500 504 495 L519 525 Z M508 88 C478 54 478 53 471 53 C468 53 467 56 467 60 C467 66 468 72 470 78 L510 267 C515 292 517 306 517 315 C517 382 433 420 288 420 C217 420 174 412 138 393 C99 373 75 338 75 301 C75 263 99 240 140 240 C194 240 236 283 236 339 C236 366 225 381 198 390 C214 395 223 397 237 397 C285 397 312 380 312 350 C312 343 310 328 307 313 L285 213 C252 226 220 231 178 231 C118 231 72 219 36 192 C-2 164 -25 124 -25 85 C-25 27 30 -13 110 -13 C158 -13 195 -2 252 31 C278 -2 303 -13 349 -13 C421 -13 482 19 523 78 L508 88 Z M250 48 C220 32 206 27 194 27 C179 27 171 36 171 51 C171 57 172 63 173 68 L193 161 C199 191 212 204 234 204 C249 204 261 201 281 192 L250 48 Z " />
<glyph glyph-name="atilde" unicode="&#xe3;" horiz-adv-x="586" d="M526 617 C508 602 495 595 482 595 C471 595 444 603 419 612 C381 628 363 632 340 632 C297 632 271 616 184 538 L197 523 C215 537 226 543 236 543 C242 543 263 536 284 525 C312 512 341 505 365 505 C408 505 456 526 493 560 C505 571 511 577 539 606 L526 617 Z M508 88 C478 54 478 53 471 53 C468 53 467 56 467 60 C467 66 468 72 470 78 L510 267 C515 292 517 306 517 315 C517 382 433 420 288 420 C217 420 174 412 138 393 C99 373 75 338 75 301 C75 263 99 240 140 240 C194 240 236 283 236 339 C236 366 225 381 198 390 C214 395 223 397 237 397 C285 397 312 380 312 350 C312 343 310 328 307 313 L285 213 C252 226 220 231 178 231 C118 231 72 219 36 192 C-2 164 -25 124 -25 85 C-25 27 30 -13 110 -13 C158 -13 195 -2 252 31 C278 -2 303 -13 349 -13 C421 -13 482 19 523 78 L508 88 Z M250 48 C220 32 206 27 194 27 C179 27 171 36 171 51 C171 57 172 63 173 68 L193 161 C199 191 212 204 234 204 C249 204 261 201 281 192 L250 48 Z " />
<glyph glyph-name="adieresis" unicode="&#xe4;" horiz-adv-x="586" d="M482 646 C420 646 369 602 369 547 C369 510 402 484 449 484 C510 484 557 527 557 583 C557 621 528 646 482 646 L482 646 Z M253 647 C195 647 143 602 143 551 C143 513 175 486 220 486 C283 486 330 529 330 585 C330 622 299 647 253 647 L253 647 Z M508 88 C478 54 478 53 471 53 C468 53 467 56 467 60 C467 66 468 72 470 78 L510 267 C515 292 517 306 517 315 C517 382 433 420 288 420 C217 420 174 412 138 393 C99 373 75 338 75 301 C75 263 99 240 140 240 C194 240 236 283 236 339 C236 366 225 381 198 390 C214 395 223 397 237 397 C285 397 312 380 312 350 C312 343 310 328 307 313 L285 213 C252 226 220 231 178 231 C118 231 72 219 36 192 C-2 164 -25 124 -25 85 C-25 27 30 -13 110 -13 C158 -13 195 -2 252 31 C278 -2 303 -13 349 -13 C421 -13 482 19 523 78 L508 88 Z M250 48 C220 32 206 27 194 27 C179 27 171 36 171 51 C171 57 172 63 173 68 L193 161 C199 191 212 204 234 204 C249 204 261 201 281 192 L250 48 Z " />
<glyph glyph-name="aring" unicode="&#xe5;" horiz-adv-x="586" d="M382 672 C311 672 248 622 248 565 C248 522 288 490 342 490 C411 490 475 541 475 597 C475 639 435 672 382 672 L382 672 Z M376 645 C415 645 445 622 445 591 C445 552 398 517 347 517 C307 517 277 540 277 571 C277 610 323 645 376 645 L376 645 Z M508 88 C478 54 478 53 471 53 C468 53 467 56 467 60 C467 66 468 72 470 78 L510 267 C515 292 517 306 517 315 C517 382 433 420 288 420 C217 420 174 412 138 393 C99 373 75 338 75 301 C75 263 99 240 140 240 C194 240 236 283 236 339 C236 366 225 381 198 390 C214 395 223 397 237 397 C285 397 312 380 312 350 C312 343 310 328 307 313 L285 213 C252 226 220 231 178 231 C118 231 72 219 36 192 C-2 164 -25 124 -25 85 C-25 27 30 -13 110 -13 C158 -13 195 -2 252 31 C278 -2 303 -13 349 -13 C421 -13 482 19 523 78 L508 88 Z M250 48 C220 32 206 27 194 27 C179 27 171 36 171 51 C171 57 172 63 173 68 L193 161 C199 191 212 204 234 204 C249 204 261 201 281 192 L250 48 Z " />
<glyph glyph-name="ae" unicode="&#xe6;" horiz-adv-x="789" d="M704 130 C645 66 561 18 506 18 C481 18 463 37 463 64 C463 71 464 80 469 101 L492 207 L743 207 L743 224 C743 343 673 420 564 420 C525 420 495 414 446 398 C391 413 337 420 276 420 C149 420 73 375 73 301 C73 263 96 240 134 240 C186 240 229 285 229 340 C229 366 221 378 196 391 C212 396 221 398 237 398 C287 398 308 383 308 349 C308 337 306 322 301 298 L283 214 C241 225 211 229 175 229 C57 229 -26 168 -26 82 C-26 27 30 -13 107 -13 C147 -13 190 -1 221 18 C237 28 248 36 279 61 C317 10 373 -13 458 -13 C536 -13 586 5 653 56 C681 77 694 89 715 112 L704 130 Z M585 227 L496 227 L519 337 C528 381 546 399 577 399 C602 399 612 389 612 367 C612 359 611 348 609 339 L585 227 Z M189 157 C197 191 208 204 230 204 C245 204 258 201 278 191 L267 142 C265 129 263 115 263 104 C263 95 265 89 270 78 C230 40 210 27 190 27 C176 27 170 34 170 50 C170 60 171 69 173 78 L189 157 Z " />
<glyph glyph-name="ccedilla" unicode="&#xe7;" horiz-adv-x="475" d="M176 -13 L189 -13 L192 -13 C275 -14 340 17 397 85 L382 95 C335 43 282 15 234 15 C205 15 192 26 192 50 C192 61 194 80 198 95 L249 338 C259 386 274 399 318 399 C350 399 372 391 388 374 C376 377 371 378 364 378 C321 378 280 331 280 281 C280 247 306 224 343 224 C397 224 439 269 439 327 C439 385 387 420 300 420 C128 420 -14 299 -14 153 C-14 59 46 -1 153 -12 L92 -83 L100 -94 C110 -88 115 -86 124 -86 C141 -86 151 -96 151 -114 C151 -148 122 -172 82 -172 C59 -172 42 -168 18 -158 L7 -175 C43 -193 71 -199 123 -199 C175 -199 205 -192 230 -174 C252 -157 265 -134 265 -110 C265 -76 237 -55 190 -55 C170 -55 156 -57 131 -65 L176 -13 Z " />
<glyph glyph-name="egrave" unicode="&#xe8;" horiz-adv-x="516" d="M359 483 L354 623 L196 623 L191 596 L327 483 L359 483 Z M432 131 C375 68 290 20 236 20 C211 20 193 38 193 62 C193 76 196 96 201 121 L220 209 L471 209 C472 221 472 228 472 233 C472 266 463 305 447 335 C419 389 364 420 295 420 C128 420 -14 298 -14 154 C-14 57 73 -13 195 -13 C282 -13 368 31 443 114 L432 131 Z M313 230 L224 230 L249 348 C257 384 275 401 305 401 C330 401 340 392 340 370 C340 361 339 354 338 347 L313 230 Z " />
<glyph glyph-name="eacute" unicode="&#xe9;" horiz-adv-x="516" d="M272 483 L304 483 L489 596 L494 623 L336 623 L272 483 Z M432 131 C375 68 290 20 236 20 C211 20 193 38 193 62 C193 76 196 96 201 121 L220 209 L471 209 C472 221 472 228 472 233 C472 266 463 305 447 335 C419 389 364 420 295 420 C128 420 -14 298 -14 154 C-14 57 73 -13 195 -13 C282 -13 368 31 443 114 L432 131 Z M313 230 L224 230 L249 348 C257 384 275 401 305 401 C330 401 340 392 340 370 C340 361 339 354 338 347 L313 230 Z " />
<glyph glyph-name="ecircumflex" unicode="&#xea;" horiz-adv-x="516" d="M479 525 C424 549 389 590 381 636 L277 636 C249 589 196 549 132 525 L134 495 C193 500 244 515 310 547 C361 516 409 500 464 495 L479 525 Z M432 131 C375 68 290 20 236 20 C211 20 193 38 193 62 C193 76 196 96 201 121 L220 209 L471 209 C472 221 472 228 472 233 C472 266 463 305 447 335 C419 389 364 420 295 420 C128 420 -14 298 -14 154 C-14 57 73 -13 195 -13 C282 -13 368 31 443 114 L432 131 Z M313 230 L224 230 L249 348 C257 384 275 401 305 401 C330 401 340 392 340 370 C340 361 339 354 338 347 L313 230 Z " />
<glyph glyph-name="edieresis" unicode="&#xeb;" horiz-adv-x="516" d="M452 646 C390 646 340 602 340 548 C340 510 373 484 420 484 C481 484 528 527 528 583 C528 622 499 646 452 646 L452 646 Z M225 647 C166 647 114 602 114 551 C114 512 145 485 191 485 C254 485 301 528 301 585 C301 622 271 647 225 647 L225 647 Z M432 131 C375 68 290 20 236 20 C211 20 193 38 193 62 C193 76 196 96 201 121 L220 209 L471 209 C472 221 472 228 472 233 C472 266 463 305 447 335 C419 389 364 420 295 420 C128 420 -14 298 -14 154 C-14 57 73 -13 195 -13 C282 -13 368 31 443 114 L432 131 Z M313 230 L224 230 L249 348 C257 384 275 401 305 401 C330 401 340 392 340 370 C340 361 339 354 338 347 L313 230 Z " />
<glyph glyph-name="igrave" unicode="&#xec;" horiz-adv-x="355" d="M278 0 L282 20 L219 20 L305 426 C265 417 227 413 183 413 L24 413 L20 393 L83 393 L4 20 L-60 20 L-64 0 L278 0 Z M291 483 L286 623 L128 623 L123 596 L259 483 L291 483 Z " />
<glyph glyph-name="iacute" unicode="&#xed;" horiz-adv-x="355" d="M278 0 L282 20 L219 20 L305 426 C265 417 227 413 183 413 L24 413 L20 393 L83 393 L4 20 L-60 20 L-64 0 L278 0 Z M196 483 L227 483 L412 596 L418 623 L260 623 L196 483 Z " />
<glyph glyph-name="icircumflex" unicode="&#xee;" horiz-adv-x="355" d="M278 0 L282 20 L219 20 L305 426 C265 417 227 413 183 413 L24 413 L20 393 L83 393 L4 20 L-60 20 L-64 0 L278 0 Z M392 525 C338 549 302 590 294 636 L190 636 C162 589 109 549 45 525 L47 495 C106 500 158 515 223 547 C274 516 322 500 377 495 L392 525 Z " />
<glyph glyph-name="idieresis" unicode="&#xef;" horiz-adv-x="355" d="M278 0 L282 20 L219 20 L305 426 C265 417 227 413 183 413 L24 413 L20 393 L83 393 L4 20 L-60 20 L-64 0 L278 0 Z M339 646 C285 646 239 600 239 545 C239 509 266 484 306 484 C360 484 402 529 402 585 C402 622 378 646 339 646 L339 646 Z M152 647 C100 647 53 600 53 548 C53 510 79 485 118 485 C173 485 216 530 216 588 C216 623 190 647 152 647 L152 647 Z " />
<glyph glyph-name="eth" unicode="&#xf0;" horiz-adv-x="582" d="M206 504 L213 490 L311 551 L313 543 L322 510 C327 491 331 476 333 466 C335 449 337 436 337 418 C327 420 324 420 313 420 C124 420 -15 305 -15 150 C-15 51 77 -13 220 -13 C411 -13 540 94 540 252 C540 367 493 464 374 593 L471 655 L465 670 L362 606 C348 622 335 635 331 638 C318 649 306 659 293 669 L287 675 L268 663 C276 648 281 635 291 610 C300 582 301 580 306 569 L206 504 Z M279 70 C269 26 252 8 219 8 C196 8 185 18 185 39 C185 45 186 52 190 70 L246 335 C257 384 272 402 305 402 C328 402 340 391 340 371 C340 364 338 351 336 338 L279 70 Z " />
<glyph glyph-name="ntilde" unicode="&#xf1;" horiz-adv-x="652" d="M548 617 C530 601 517 595 504 595 C494 595 466 603 442 612 C403 628 386 632 363 632 C320 632 293 616 206 538 L219 523 C237 537 248 543 258 543 C264 543 285 536 306 525 C334 512 364 505 387 505 C418 505 449 515 482 535 C502 548 515 559 550 595 C554 598 558 602 561 606 L548 617 Z M575 0 L579 20 L516 20 L573 287 C576 303 578 319 578 333 C578 385 533 420 465 420 C408 420 353 400 291 359 L305 426 C263 417 229 413 207 413 L24 413 L20 393 L83 393 L4 20 L-60 20 L-64 0 L247 0 L252 20 L219 20 L286 334 C312 355 329 363 343 363 C357 363 365 354 365 336 C365 326 364 319 363 311 L301 20 L268 20 L264 0 L575 0 Z " />
<glyph glyph-name="ograve" unicode="&#xf2;" horiz-adv-x="581" d="M385 483 L380 623 L222 623 L217 596 L353 483 L385 483 Z M308 420 C125 420 -15 303 -15 150 C-15 52 77 -13 217 -13 C408 -13 539 92 539 246 C539 290 526 328 501 353 C460 396 390 420 308 420 L308 420 Z M279 70 C270 26 253 8 220 8 C197 8 186 19 186 39 C186 45 188 57 190 70 L247 335 C257 384 273 402 306 402 C329 402 341 392 341 371 C341 364 339 353 336 338 L279 70 Z " />
<glyph glyph-name="oacute" unicode="&#xf3;" horiz-adv-x="581" d="M302 483 L334 483 L519 596 L524 623 L366 623 L302 483 Z M308 420 C125 420 -15 303 -15 150 C-15 52 77 -13 217 -13 C408 -13 539 92 539 246 C539 290 526 328 501 353 C460 396 390 420 308 420 L308 420 Z M279 70 C270 26 253 8 220 8 C197 8 186 19 186 39 C186 45 188 57 190 70 L247 335 C257 384 273 402 306 402 C329 402 341 392 341 371 C341 364 339 353 336 338 L279 70 Z " />
<glyph glyph-name="ocircumflex" unicode="&#xf4;" horiz-adv-x="581" d="M510 525 C455 549 419 589 411 636 L307 636 C280 590 227 549 162 525 L164 495 C223 500 275 515 340 547 C392 516 440 500 495 495 L510 525 Z M308 420 C125 420 -15 303 -15 150 C-15 52 77 -13 217 -13 C408 -13 539 92 539 246 C539 290 526 328 501 353 C460 396 390 420 308 420 L308 420 Z M279 70 C270 26 253 8 220 8 C197 8 186 19 186 39 C186 45 188 57 190 70 L247 335 C257 384 273 402 306 402 C329 402 341 392 341 371 C341 364 339 353 336 338 L279 70 Z " />
<glyph glyph-name="otilde" unicode="&#xf5;" horiz-adv-x="581" d="M523 606 L511 617 C493 601 480 595 467 595 C456 595 428 603 404 612 C365 628 348 632 325 632 C282 632 254 615 168 538 L182 523 C199 537 210 543 220 543 C227 543 247 536 269 525 C298 512 325 505 349 505 C380 505 412 515 444 535 C465 548 477 559 513 595 L523 606 Z M308 420 C125 420 -15 303 -15 150 C-15 52 77 -13 217 -13 C408 -13 539 92 539 246 C539 290 526 328 501 353 C460 396 390 420 308 420 L308 420 Z M279 70 C270 26 253 8 220 8 C197 8 186 19 186 39 C186 45 188 57 190 70 L247 335 C257 384 273 402 306 402 C329 402 341 392 341 371 C341 364 339 353 336 338 L279 70 Z " />
<glyph glyph-name="odieresis" unicode="&#xf6;" horiz-adv-x="581" d="M481 646 C419 646 369 602 369 547 C369 510 402 484 448 484 C509 484 556 527 556 582 C556 622 528 646 481 646 L481 646 Z M253 647 C194 647 142 602 142 551 C142 512 174 485 219 485 C282 485 329 528 329 585 C329 622 299 647 253 647 L253 647 Z M308 420 C125 420 -15 303 -15 150 C-15 52 77 -13 217 -13 C408 -13 539 92 539 246 C539 290 526 328 501 353 C460 396 390 420 308 420 L308 420 Z M279 70 C270 26 253 8 220 8 C197 8 186 19 186 39 C186 45 188 57 190 70 L247 335 C257 384 273 402 306 402 C329 402 341 392 341 371 C341 364 339 353 336 338 L279 70 Z " />
<glyph glyph-name="divide" unicode="&#xf7;" horiz-adv-x="633" d="M543 356 L99 356 L90 313 L534 313 L543 356 Z M291 214 C236 214 184 173 184 130 C184 94 217 67 261 67 C320 67 367 104 367 151 C367 189 337 214 291 214 L291 214 Z M375 609 C320 609 268 569 268 525 C268 489 301 463 345 463 C404 463 451 500 451 546 C451 584 420 609 375 609 L375 609 Z " />
<glyph glyph-name="oslash" unicode="&#xf8;" horiz-adv-x="581" d="M-30 14 L-22 -1 L39 39 C81 5 144 -13 220 -13 C408 -13 539 93 539 245 C539 287 528 320 505 348 L564 387 L556 403 L493 361 C453 398 384 420 308 420 C126 420 -14 303 -14 151 C-14 109 -1 77 26 51 L-30 14 Z M213 176 L247 335 C258 384 273 402 306 402 C329 402 341 392 341 371 C341 364 339 351 337 338 L317 244 L213 176 Z M311 219 L280 70 C270 26 253 8 220 8 C198 8 186 19 186 39 C186 45 187 53 191 70 L208 151 L311 219 Z " />
<glyph glyph-name="ugrave" unicode="&#xf9;" horiz-adv-x="635" d="M439 483 L435 623 L276 623 L271 596 L407 483 L439 483 Z M279 0 L558 0 L562 20 L499 20 L585 426 C549 417 515 413 477 413 L313 413 L308 393 L363 393 L296 80 C276 63 253 52 239 52 C228 52 220 60 220 72 C220 80 222 95 225 108 L292 426 C252 417 217 413 182 413 L24 413 L19 393 L70 393 L8 102 C5 89 4 77 4 65 C4 16 43 -13 110 -13 C170 -13 224 7 290 53 L279 0 Z " />
<glyph glyph-name="uacute" unicode="&#xfa;" horiz-adv-x="635" d="M333 483 L365 483 L550 596 L555 623 L397 623 L333 483 Z M279 0 L558 0 L562 20 L499 20 L585 426 C549 417 515 413 477 413 L313 413 L308 393 L363 393 L296 80 C276 63 253 52 239 52 C228 52 220 60 220 72 C220 80 222 95 225 108 L292 426 C252 417 217 413 182 413 L24 413 L19 393 L70 393 L8 102 C5 89 4 77 4 65 C4 16 43 -13 110 -13 C170 -13 224 7 290 53 L279 0 Z " />
<glyph glyph-name="ucircumflex" unicode="&#xfb;" horiz-adv-x="635" d="M536 525 C482 549 446 590 438 636 L334 636 C306 589 253 549 189 525 L191 495 C250 500 301 515 367 547 C418 516 466 500 521 495 L536 525 Z M279 0 L558 0 L562 20 L499 20 L585 426 C549 417 515 413 477 413 L313 413 L308 393 L363 393 L296 80 C276 63 253 52 239 52 C228 52 220 60 220 72 C220 80 222 95 225 108 L292 426 C252 417 217 413 182 413 L24 413 L19 393 L70 393 L8 102 C5 89 4 77 4 65 C4 16 43 -13 110 -13 C170 -13 224 7 290 53 L279 0 Z " />
<glyph glyph-name="udieresis" unicode="&#xfc;" horiz-adv-x="635" d="M505 646 C443 646 393 602 393 548 C393 510 426 484 472 484 C533 484 580 527 580 582 C580 622 551 646 505 646 L505 646 Z M277 647 C219 647 167 602 167 551 C167 513 198 486 244 486 C307 486 354 529 354 585 C354 622 324 647 277 647 L277 647 Z M279 0 L558 0 L562 20 L499 20 L585 426 C549 417 515 413 477 413 L313 413 L308 393 L363 393 L296 80 C276 63 253 52 239 52 C228 52 220 60 220 72 C220 80 222 95 225 108 L292 426 C252 417 217 413 182 413 L24 413 L19 393 L70 393 L8 102 C5 89 4 77 4 65 C4 16 43 -13 110 -13 C170 -13 224 7 290 53 L279 0 Z " />
<glyph glyph-name="yacute" unicode="&#xfd;" horiz-adv-x="490" d="M272 483 L303 483 L488 596 L494 623 L335 623 L272 483 Z M510 413 L348 413 L343 393 C380 389 394 378 394 353 C394 337 384 314 367 290 L335 244 L286 393 L327 393 L331 413 L17 413 L13 393 L38 393 L167 4 L83 -115 L83 -108 L83 -105 C83 -65 51 -34 9 -34 C-50 -34 -105 -92 -105 -155 C-105 -200 -76 -228 -31 -228 C13 -228 51 -200 95 -137 L404 308 C444 366 468 386 506 393 L510 413 Z " />
<glyph glyph-name="thorn" unicode="&#xfe;" horiz-adv-x="612" d="M223 44 C242 29 253 20 257 18 C280 1 312 -9 342 -9 C462 -9 572 122 572 265 C572 358 518 420 437 420 C397 420 365 410 294 376 L358 680 C313 671 273 667 238 667 L77 667 L73 647 L136 647 L-45 -207 L-109 -207 L-113 -227 L229 -227 L233 -207 L170 -207 L223 44 Z M289 352 C310 368 331 377 347 377 C361 377 370 367 370 351 C370 342 369 333 367 324 L320 101 C311 59 299 43 275 43 C258 43 246 50 229 69 L289 352 Z " />
<glyph glyph-name="ydieresis" unicode="&#xff;" horiz-adv-x="490" d="M450 646 C388 646 338 602 338 547 C338 510 371 484 417 484 C478 484 525 527 525 583 C525 622 497 646 450 646 L450 646 Z M222 647 C164 647 111 602 111 551 C111 513 143 486 189 486 C251 486 299 529 299 585 C299 622 268 647 222 647 L222 647 Z M510 413 L348 413 L343 393 C380 389 394 378 394 353 C394 337 384 314 367 290 L335 244 L286 393 L327 393 L331 413 L17 413 L13 393 L38 393 L167 4 L83 -115 L83 -108 L83 -105 C83 -65 51 -34 9 -34 C-50 -34 -105 -92 -105 -155 C-105 -200 -76 -228 -31 -228 C13 -228 51 -200 95 -137 L404 308 C444 366 468 386 506 393 L510 413 Z " />
<glyph glyph-name="Amacron" unicode="&#x100;" horiz-adv-x="743" d="M668 0 L673 23 L638 23 L562 667 L345 667 L73 174 C15 80 -30 30 -63 23 L-68 0 L179 0 L183 23 C118 24 90 50 90 109 C90 139 97 166 116 205 L336 205 L357 23 L285 23 L280 0 L668 0 Z M334 228 L128 228 L296 539 L334 228 Z M651 828 L314 828 L299 756 L635 756 L651 828 Z " />
<glyph glyph-name="amacron" unicode="&#x101;" horiz-adv-x="586" d="M508 88 C478 54 478 53 471 53 C468 53 467 56 467 60 C467 66 468 72 470 78 L510 267 C515 292 517 306 517 315 C517 382 433 420 288 420 C217 420 174 412 138 393 C99 373 75 338 75 301 C75 263 99 240 140 240 C194 240 236 283 236 339 C236 366 225 381 198 390 C214 395 223 397 237 397 C285 397 312 380 312 350 C312 343 310 328 307 313 L285 213 C252 226 220 231 178 231 C118 231 72 219 36 192 C-2 164 -25 124 -25 85 C-25 27 30 -13 110 -13 C158 -13 195 -2 252 31 C278 -2 303 -13 349 -13 C421 -13 482 19 523 78 L508 88 Z M250 48 C220 32 206 27 194 27 C179 27 171 36 171 51 C171 57 172 63 173 68 L193 161 C199 191 212 204 234 204 C249 204 261 201 281 192 L250 48 Z M509 602 L208 602 L192 530 L494 530 L509 602 Z " />
<glyph glyph-name="Abreve" unicode="&#x102;" horiz-adv-x="743" d="M668 0 L673 23 L638 23 L562 667 L345 667 L73 174 C15 80 -30 30 -63 23 L-68 0 L179 0 L183 23 C118 24 90 50 90 109 C90 139 97 166 116 205 L336 205 L357 23 L285 23 L280 0 L668 0 Z M334 228 L128 228 L296 539 L334 228 Z M631 878 C614 841 578 830 476 830 C423 830 383 840 373 857 C369 862 368 867 368 878 L347 878 C344 858 343 849 343 837 C343 772 380 742 460 742 C577 742 622 774 652 878 L631 878 Z " />
<glyph glyph-name="abreve" unicode="&#x103;" horiz-adv-x="586" d="M508 88 C478 54 478 53 471 53 C468 53 467 56 467 60 C467 66 468 72 470 78 L510 267 C515 292 517 306 517 315 C517 382 433 420 288 420 C217 420 174 412 138 393 C99 373 75 338 75 301 C75 263 99 240 140 240 C194 240 236 283 236 339 C236 366 225 381 198 390 C214 395 223 397 237 397 C285 397 312 380 312 350 C312 343 310 328 307 313 L285 213 C252 226 220 231 178 231 C118 231 72 219 36 192 C-2 164 -25 124 -25 85 C-25 27 30 -13 110 -13 C158 -13 195 -2 252 31 C278 -2 303 -13 349 -13 C421 -13 482 19 523 78 L508 88 Z M250 48 C220 32 206 27 194 27 C179 27 171 36 171 51 C171 57 172 63 173 68 L193 161 C199 191 212 204 234 204 C249 204 261 201 281 192 L250 48 Z M504 638 C498 624 493 617 483 611 C465 598 417 590 359 590 C308 590 268 600 258 616 C255 621 254 627 254 638 L233 638 C231 618 230 608 230 595 C230 531 265 502 341 502 C452 502 495 534 525 638 L504 638 Z " />
<glyph glyph-name="Aogonek" unicode="&#x104;" horiz-adv-x="743" d="M668 0 L673 23 L638 23 L562 667 L345 667 L73 174 C15 80 -30 30 -63 23 L-68 0 L179 0 L183 23 C118 24 90 50 90 109 C90 139 97 166 116 205 L336 205 L357 23 L285 23 L280 0 L600 0 C488 -26 427 -67 427 -118 C427 -155 466 -180 522 -180 C550 -180 567 -177 610 -163 L614 -146 C556 -145 529 -131 529 -101 C529 -82 540 -61 559 -45 C578 -28 590 -21 637 0 L668 0 Z M334 228 L128 228 L296 539 L334 228 Z " />
<glyph glyph-name="aogonek" unicode="&#x105;" horiz-adv-x="586" d="M451 12 C479 28 505 51 523 78 L508 88 C478 54 478 53 471 53 C468 53 467 56 467 60 C467 66 468 72 470 78 L510 267 C515 292 517 306 517 315 C517 382 433 420 288 420 C217 420 174 412 138 393 C99 373 75 338 75 301 C75 263 99 240 140 240 C194 240 236 283 236 339 C236 366 225 381 198 390 C214 395 223 397 237 397 C285 397 312 380 312 350 C312 343 310 328 307 313 L285 213 C252 226 220 231 178 231 C118 231 72 219 36 192 C-2 164 -25 124 -25 85 C-25 27 30 -13 110 -13 C158 -13 195 -2 252 31 C278 -2 303 -13 349 -13 L364 -13 C294 -34 254 -73 254 -122 C254 -135 257 -146 264 -153 C278 -170 312 -180 351 -180 C375 -180 393 -178 431 -171 L435 -150 C378 -145 357 -133 357 -102 C357 -70 377 -42 425 -7 L438 3 L451 12 Z M250 48 C220 32 206 27 194 27 C179 27 171 36 171 51 C171 57 172 63 173 68 L193 161 C199 191 212 204 234 204 C249 204 261 201 281 192 L250 48 Z " />
<glyph glyph-name="Cacute" unicode="&#x106;" horiz-adv-x="665" d="M556 133 C478 50 403 10 328 10 C292 10 269 30 269 63 L269 69 C270 90 271 93 276 117 L369 557 C385 632 406 657 454 657 C538 657 618 568 618 474 C618 454 616 434 612 412 L634 412 L692 687 L584 631 C539 672 500 687 435 687 C312 687 202 633 123 534 C57 452 20 349 20 247 C20 84 125 -20 289 -20 C397 -20 477 19 575 117 L556 133 Z M381 716 L407 716 L607 829 L613 856 L447 856 L381 716 Z " />
<glyph glyph-name="cacute" unicode="&#x107;" horiz-adv-x="475" d="M381 95 C334 43 281 15 233 15 C204 15 191 26 191 50 C191 61 193 80 197 95 L248 338 C258 386 273 399 317 399 C349 399 371 391 387 374 C375 377 370 378 363 378 C320 378 279 331 279 281 C279 247 305 224 342 224 C396 224 438 269 438 327 C438 385 386 420 299 420 C127 420 -15 299 -15 153 C-15 96 10 48 54 19 C87 -2 132 -13 189 -13 C277 -13 338 16 396 85 L381 95 Z M245 483 L277 483 L462 596 L468 623 L309 623 L245 483 Z " />
<glyph glyph-name="Ccircumflex" unicode="&#x108;" horiz-adv-x="665" d="M556 133 C478 50 403 10 328 10 C292 10 269 30 269 63 L269 69 C270 90 271 93 276 117 L369 557 C385 632 406 657 454 657 C538 657 618 568 618 474 C618 454 616 434 612 412 L634 412 L692 687 L584 631 C539 672 500 687 435 687 C312 687 202 633 123 534 C57 452 20 349 20 247 C20 84 125 -20 289 -20 C397 -20 477 19 575 117 L556 133 Z M648 758 C591 782 553 823 544 869 L435 869 C407 823 351 782 283 758 L286 728 C347 733 403 749 471 780 C525 749 575 733 633 728 L648 758 Z " />
<glyph glyph-name="Cdotaccent" unicode="&#x10a;" horiz-adv-x="665" d="M556 133 C478 50 403 10 328 10 C292 10 269 30 269 63 L269 69 C270 90 271 93 276 117 L369 557 C385 632 406 657 454 657 C538 657 618 568 618 474 C618 454 616 434 612 412 L634 412 L692 687 L584 631 C539 672 500 687 435 687 C312 687 202 633 123 534 C57 452 20 349 20 247 C20 84 125 -20 289 -20 C397 -20 477 19 575 117 L556 133 Z M470 887 C412 887 359 841 359 790 C359 752 391 725 437 725 C499 725 547 768 547 825 C547 862 516 887 470 887 L470 887 Z " />
<glyph glyph-name="cdotaccent" unicode="&#x10b;" horiz-adv-x="475" d="M381 95 C334 43 281 15 233 15 C204 15 191 26 191 50 C191 61 193 80 197 95 L248 338 C258 386 273 399 317 399 C349 399 371 391 387 374 C375 377 370 378 363 378 C320 378 279 331 279 281 C279 247 305 224 342 224 C396 224 438 269 438 327 C438 385 386 420 299 420 C127 420 -15 299 -15 153 C-15 96 10 48 54 19 C87 -2 132 -13 189 -13 C277 -13 338 16 396 85 L381 95 Z M323 647 C264 647 212 602 212 551 C212 512 244 485 289 485 C352 485 399 528 399 585 C399 622 369 647 323 647 L323 647 Z " />
<glyph glyph-name="Ccaron" unicode="&#x10c;" horiz-adv-x="665" d="M556 133 C478 50 403 10 328 10 C292 10 269 30 269 63 L269 69 C270 90 271 93 276 117 L369 557 C385 632 406 657 454 657 C538 657 618 568 618 474 C618 454 616 434 612 412 L634 412 L692 687 L584 631 C539 672 500 687 435 687 C312 687 202 633 123 534 C57 452 20 349 20 247 C20 84 125 -20 289 -20 C397 -20 477 19 575 117 L556 133 Z M275 849 C333 825 371 784 380 738 L489 738 C517 784 573 825 640 849 L638 879 C576 874 522 859 453 827 C400 858 350 874 291 879 L275 849 Z " />
<glyph glyph-name="ccaron" unicode="&#x10d;" horiz-adv-x="475" d="M381 95 C334 43 281 15 233 15 C204 15 191 26 191 50 C191 61 193 80 197 95 L248 338 C258 386 273 399 317 399 C349 399 371 391 387 374 C375 377 370 378 363 378 C320 378 279 331 279 281 C279 247 305 224 342 224 C396 224 438 269 438 327 C438 385 386 420 299 420 C127 420 -15 299 -15 153 C-15 96 10 48 54 19 C87 -2 132 -13 189 -13 C277 -13 338 16 396 85 L381 95 Z M137 606 C191 582 227 541 235 495 L339 495 C367 541 420 582 485 606 L482 636 C423 631 372 616 306 584 C255 615 208 631 152 636 L137 606 Z " />
<glyph glyph-name="Dcaron" unicode="&#x10e;" horiz-adv-x="820" d="M-49 0 L449 0 C543 0 623 44 695 137 C763 223 801 326 801 421 C801 479 786 535 760 579 C723 641 666 667 569 667 L93 667 L88 644 L162 644 L30 23 L-44 23 L-49 0 Z M302 23 L434 644 L482 644 C529 644 540 636 540 605 C540 591 538 573 533 549 L441 118 C427 45 404 23 341 23 L302 23 Z M298 849 C355 825 394 784 402 738 L512 738 C540 784 596 825 663 849 L661 879 C599 874 545 859 476 827 C422 858 372 874 314 879 L298 849 Z " />
<glyph glyph-name="dcaron" unicode="&#x10f;" horiz-adv-x="783" d="M254 -13 C290 -4 320 0 352 0 L535 0 L539 20 L476 20 L616 680 C563 671 521 667 491 667 L335 667 L331 647 L394 647 L339 388 C292 411 256 420 213 420 C91 420 -14 293 -14 145 C-14 53 48 -14 135 -14 C175 -14 215 1 264 34 L254 -13 Z M270 62 C245 43 223 33 208 33 C197 33 192 40 192 54 C192 59 193 70 195 78 L248 326 C255 360 272 380 293 380 C302 380 317 375 334 365 L270 62 Z M632 454 C694 456 725 461 750 474 C796 500 833 560 833 609 C833 652 800 680 749 680 C689 680 635 639 635 594 C635 559 670 530 713 530 C743 530 770 539 793 557 C768 497 731 479 637 478 L632 454 Z " />
<glyph glyph-name="Dcroat" unicode="&#x110;" horiz-adv-x="820" d="M23 340 L97 340 L30 23 L-44 23 L-49 0 L449 0 C543 0 623 44 695 137 C763 223 801 326 801 420 C801 478 786 534 760 579 C723 641 666 667 569 667 L93 667 L88 644 L162 644 L102 363 L28 363 L23 340 Z M375 363 L434 644 L482 644 C529 644 540 636 540 605 C540 591 538 573 533 549 L441 118 C427 45 404 23 341 23 L302 23 L370 340 L428 340 L433 363 L375 363 Z " />
<glyph glyph-name="dcroat" unicode="&#x111;" horiz-adv-x="612" d="M370 534 L339 388 C292 411 256 420 213 420 C91 420 -14 293 -14 145 C-14 53 48 -14 135 -14 C175 -14 215 1 264 34 L254 -13 C290 -4 320 0 352 0 L535 0 L539 20 L476 20 L585 534 L649 534 L654 557 L590 557 L616 680 C563 671 521 667 491 667 L335 667 L331 647 L394 647 L375 557 L211 557 L206 534 L370 534 Z M270 62 C245 43 223 33 208 33 C197 33 192 40 192 54 C192 59 193 70 195 78 L248 326 C255 360 272 380 293 380 C302 380 317 375 334 365 L270 62 Z " />
<glyph glyph-name="Emacron" unicode="&#x112;" horiz-adv-x="709" d="M581 0 L633 246 L613 246 C568 116 442 25 302 23 L368 331 L387 331 C437 331 473 290 473 232 C473 216 471 203 466 179 L486 179 L557 511 L537 511 C520 418 464 356 393 355 L373 355 L434 644 C485 644 505 642 527 636 C594 617 638 558 638 486 C638 477 638 471 636 457 L657 457 L702 667 L93 667 L88 644 L162 644 L30 23 L-44 23 L-49 0 L581 0 Z M625 828 L288 828 L273 756 L609 756 L625 828 Z " />
<glyph glyph-name="emacron" unicode="&#x113;" horiz-adv-x="516" d="M432 131 C375 68 290 20 236 20 C211 20 193 38 193 62 C193 76 196 96 201 121 L220 209 L471 209 C472 221 472 228 472 233 C472 266 463 305 447 335 C419 389 364 420 295 420 C128 420 -14 298 -14 154 C-14 57 73 -13 195 -13 C282 -13 368 31 443 114 L432 131 Z M313 230 L224 230 L249 348 C257 384 275 401 305 401 C330 401 340 392 340 370 C340 361 339 354 338 347 L313 230 Z M475 602 L173 602 L158 530 L460 530 L475 602 Z " />
<glyph glyph-name="Ebreve" unicode="&#x114;" horiz-adv-x="709" d="M581 0 L633 246 L613 246 C568 116 442 25 302 23 L368 331 L387 331 C437 331 473 290 473 232 C473 216 471 203 466 179 L486 179 L557 511 L537 511 C520 418 464 356 393 355 L373 355 L434 644 C485 644 505 642 527 636 C594 617 638 558 638 486 C638 477 638 471 636 457 L657 457 L702 667 L93 667 L88 644 L162 644 L30 23 L-44 23 L-49 0 L581 0 Z M612 878 C595 841 559 830 456 830 C404 830 363 840 353 857 C350 862 348 867 348 878 L327 878 C324 859 323 849 323 837 C323 772 360 742 441 742 C557 742 602 774 633 878 L612 878 Z " />
<glyph glyph-name="ebreve" unicode="&#x115;" horiz-adv-x="516" d="M432 131 C375 68 290 20 236 20 C211 20 193 38 193 62 C193 76 196 96 201 121 L220 209 L471 209 C472 221 472 228 472 233 C472 266 463 305 447 335 C419 389 364 420 295 420 C128 420 -14 298 -14 154 C-14 57 73 -13 195 -13 C282 -13 368 31 443 114 L432 131 Z M313 230 L224 230 L249 348 C257 384 275 401 305 401 C330 401 340 392 340 370 C340 361 339 354 338 347 L313 230 Z M465 638 C459 624 455 617 445 611 C427 598 378 590 321 590 C269 590 229 600 219 616 C216 621 215 627 215 638 L195 638 C192 618 191 608 191 595 C191 531 226 502 302 502 C413 502 456 534 486 638 L465 638 Z " />
<glyph glyph-name="Edotaccent" unicode="&#x116;" horiz-adv-x="709" d="M581 0 L633 246 L613 246 C568 116 442 25 302 23 L368 331 L387 331 C437 331 473 290 473 232 C473 216 471 203 466 179 L486 179 L557 511 L537 511 C520 418 464 356 393 355 L373 355 L434 644 C485 644 505 642 527 636 C594 617 638 558 638 486 C638 477 638 471 636 457 L657 457 L702 667 L93 667 L88 644 L162 644 L30 23 L-44 23 L-49 0 L581 0 Z M467 887 C408 887 356 841 356 791 C356 752 388 725 434 725 C496 725 544 768 544 825 C544 862 513 887 467 887 L467 887 Z " />
<glyph glyph-name="edotaccent" unicode="&#x117;" horiz-adv-x="516" d="M432 131 C375 68 290 20 236 20 C211 20 193 38 193 62 C193 76 196 96 201 121 L220 209 L471 209 C472 221 472 228 472 233 C472 266 463 305 447 335 C419 389 364 420 295 420 C128 420 -14 298 -14 154 C-14 57 73 -13 195 -13 C282 -13 368 31 443 114 L432 131 Z M313 230 L224 230 L249 348 C257 384 275 401 305 401 C330 401 340 392 340 370 C340 361 339 354 338 347 L313 230 Z M338 647 C280 647 228 602 228 551 C228 512 259 486 305 486 C368 486 415 529 415 585 C415 622 384 647 338 647 L338 647 Z " />
<glyph glyph-name="Eogonek" unicode="&#x118;" horiz-adv-x="709" d="M581 0 L633 246 L613 246 C568 116 442 25 302 23 L368 331 L387 331 C437 331 473 290 473 232 C473 216 471 203 466 179 L486 179 L557 511 L537 511 C520 418 464 356 393 355 L373 355 L434 644 C485 644 505 642 527 636 C594 617 638 558 638 486 C638 477 638 471 636 457 L657 457 L702 667 L93 667 L88 644 L162 644 L30 23 L-44 23 L-49 0 L536 0 C424 -26 363 -67 363 -118 C363 -155 402 -180 458 -180 C486 -180 502 -177 546 -163 L550 -146 C492 -145 465 -131 465 -101 C465 -82 476 -61 495 -45 C514 -28 527 -20 573 0 L581 0 Z " />
<glyph glyph-name="eogonek" unicode="&#x119;" horiz-adv-x="516" d="M432 131 C375 68 290 20 236 20 C211 20 193 38 193 62 C193 76 196 96 201 121 L220 209 L471 209 C472 221 472 228 472 233 C472 266 463 305 447 335 C419 389 364 420 295 420 C128 420 -14 298 -14 154 C-14 57 73 -13 195 -13 C208 -13 216 -13 230 -11 C156 -32 114 -72 114 -122 C114 -135 117 -146 124 -153 C138 -170 172 -180 211 -180 C235 -180 253 -178 291 -171 L296 -150 C238 -145 217 -133 217 -102 C217 -63 237 -39 317 15 C358 35 412 78 443 114 L432 131 Z M313 230 L224 230 L249 348 C257 384 275 401 305 401 C330 401 340 392 340 370 C340 361 339 354 338 347 L313 230 Z " />
<glyph glyph-name="Ecaron" unicode="&#x11a;" horiz-adv-x="709" d="M581 0 L633 246 L613 246 C568 116 442 25 302 23 L368 331 L387 331 C437 331 473 290 473 232 C473 216 471 203 466 179 L486 179 L557 511 L537 511 C520 418 464 356 393 355 L373 355 L434 644 C485 644 505 642 527 636 C594 617 638 558 638 486 C638 477 638 471 636 457 L657 457 L702 667 L93 667 L88 644 L162 644 L30 23 L-44 23 L-49 0 L581 0 Z M281 849 C338 825 376 784 385 738 L494 738 C522 784 578 825 646 849 L643 879 C581 874 528 859 458 827 C405 858 355 874 296 879 L281 849 Z " />
<glyph glyph-name="ecaron" unicode="&#x11b;" horiz-adv-x="516" d="M432 131 C375 68 290 20 236 20 C211 20 193 38 193 62 C193 76 196 96 201 121 L220 209 L471 209 C472 221 472 228 472 233 C472 266 463 305 447 335 C419 389 364 420 295 420 C128 420 -14 298 -14 154 C-14 57 73 -13 195 -13 C282 -13 368 31 443 114 L432 131 Z M313 230 L224 230 L249 348 C257 384 275 401 305 401 C330 401 340 392 340 370 C340 361 339 354 338 347 L313 230 Z M153 606 C208 582 244 541 251 495 L355 495 C383 541 436 582 501 606 L499 636 C439 631 388 616 322 584 C271 615 224 631 168 636 L153 606 Z " />
<glyph glyph-name="Gcircumflex" unicode="&#x11c;" horiz-adv-x="746" d="M711 277 L716 300 L381 300 L376 277 L424 277 L385 93 C374 39 348 10 313 10 C287 10 275 22 275 49 C275 58 277 71 279 83 L381 562 C396 634 419 657 477 657 C534 657 581 632 617 581 C641 548 654 510 654 474 C654 460 653 448 649 427 L669 427 L725 687 L619 631 C565 673 524 687 453 687 C315 687 208 637 125 534 C56 450 18 346 18 245 C18 83 129 -20 302 -20 C399 -20 474 0 545 46 L600 -32 L666 277 L711 277 Z M657 758 C599 782 561 823 552 869 L443 869 C415 823 359 782 292 758 L294 728 C355 733 412 749 479 780 C533 749 583 733 641 728 L657 758 Z " />
<glyph glyph-name="gcircumflex" unicode="&#x11d;" horiz-adv-x="547" d="M240 85 L149 84 C105 84 86 91 86 108 C86 119 97 131 116 141 C156 128 187 123 231 123 C339 123 424 152 467 205 C486 228 498 259 498 289 C498 347 455 386 361 410 C376 442 393 462 419 476 C413 464 411 456 411 444 C411 421 427 407 453 407 C489 407 521 439 521 476 C521 500 506 515 481 518 L485 525 C430 549 394 589 386 636 L282 636 C255 589 201 548 137 525 L139 494 C198 500 250 515 316 547 C353 524 385 511 422 502 C389 482 360 449 343 413 C318 418 301 420 276 420 C175 420 94 390 50 336 C28 309 15 274 15 242 C15 200 34 177 96 147 C13 105 -32 50 -32 -9 C-32 -26 -28 -38 -18 -56 C-46 -87 -57 -108 -57 -133 C-57 -194 16 -232 133 -232 C312 -232 438 -144 438 -20 C438 50 388 85 286 85 L240 85 Z M281 189 C273 154 258 138 231 138 C210 138 201 147 201 168 C201 178 201 181 203 187 L238 354 C245 385 262 401 288 401 C309 401 318 392 318 372 C318 367 317 361 316 355 L281 189 Z M126 -95 C169 -92 207 -91 224 -91 C275 -91 299 -104 299 -131 C299 -179 240 -210 148 -210 C46 -210 -25 -172 -25 -117 C-25 -101 -20 -87 -8 -68 C13 -88 37 -96 76 -96 L126 -95 Z " />
<glyph glyph-name="Gbreve" unicode="&#x11e;" horiz-adv-x="746" d="M711 277 L716 300 L381 300 L376 277 L424 277 L385 93 C374 39 348 10 313 10 C287 10 275 22 275 49 C275 58 277 71 279 83 L381 562 C396 634 419 657 477 657 C534 657 581 632 617 581 C641 548 654 510 654 474 C654 460 653 448 649 427 L669 427 L725 687 L619 631 C565 673 524 687 453 687 C315 687 208 637 125 534 C56 450 18 346 18 245 C18 83 129 -20 302 -20 C399 -20 474 0 545 46 L600 -32 L666 277 L711 277 Z M623 878 C606 841 570 830 468 830 C415 830 375 840 364 857 C361 862 360 867 360 878 L338 878 C336 858 335 849 335 837 C335 772 372 742 452 742 C569 742 614 774 644 878 L623 878 Z " />
<glyph glyph-name="gbreve" unicode="&#x11f;" horiz-adv-x="547" d="M240 85 L149 84 C105 84 86 91 86 108 C86 119 97 131 116 141 C156 128 187 123 231 123 C339 123 424 152 467 205 C486 228 498 259 498 289 C498 347 455 386 361 410 C376 442 393 462 419 476 C413 464 411 455 411 444 C411 421 427 407 453 407 C489 407 521 439 521 476 C521 502 503 518 476 518 C428 518 373 474 343 413 C318 418 301 420 276 420 C175 420 94 390 50 336 C28 309 15 274 15 242 C15 200 34 177 96 147 C13 105 -32 50 -32 -9 C-32 -26 -28 -38 -18 -56 C-46 -87 -57 -108 -57 -133 C-57 -194 16 -232 133 -232 C312 -232 438 -144 438 -20 C438 50 388 85 286 85 L240 85 Z M281 189 C273 154 258 138 231 138 C210 138 201 147 201 168 C201 178 201 181 203 187 L238 354 C245 385 262 401 288 401 C309 401 318 392 318 372 C318 367 317 361 316 355 L281 189 Z M126 -95 C169 -92 207 -91 224 -91 C275 -91 299 -104 299 -131 C299 -179 240 -210 148 -210 C46 -210 -25 -172 -25 -117 C-25 -101 -20 -87 -8 -68 C13 -88 37 -96 76 -96 L126 -95 Z M464 638 C458 623 453 617 444 610 C426 598 377 590 319 590 C268 590 229 600 218 616 C215 621 214 627 214 638 L194 638 C191 618 190 608 190 595 C190 531 225 502 301 502 C412 502 455 534 485 638 L464 638 Z " />
<glyph glyph-name="Gdotaccent" unicode="&#x120;" horiz-adv-x="746" d="M711 277 L716 300 L381 300 L376 277 L424 277 L385 93 C374 39 348 10 313 10 C287 10 275 22 275 49 C275 58 277 71 279 83 L381 562 C396 634 419 657 477 657 C534 657 581 632 617 581 C641 548 654 510 654 474 C654 460 653 448 649 427 L669 427 L725 687 L619 631 C565 673 524 687 453 687 C315 687 208 637 125 534 C56 450 18 346 18 245 C18 83 129 -20 302 -20 C399 -20 474 0 545 46 L600 -32 L666 277 L711 277 Z M493 887 C434 887 382 842 382 791 C382 752 414 725 460 725 C522 725 570 768 570 825 C570 862 540 887 493 887 L493 887 Z " />
<glyph glyph-name="gdotaccent" unicode="&#x121;" horiz-adv-x="547" d="M240 85 L149 84 C105 84 86 91 86 108 C86 119 97 131 116 141 C156 128 187 123 231 123 C339 123 424 152 467 205 C486 228 498 259 498 289 C498 347 455 386 361 410 C376 442 393 462 419 476 C413 464 411 455 411 444 C411 421 427 407 453 407 C489 407 521 439 521 476 C521 502 503 518 476 518 C428 518 373 474 343 413 C318 418 301 420 276 420 C175 420 94 390 50 336 C28 309 15 274 15 242 C15 200 34 177 96 147 C13 105 -32 50 -32 -9 C-32 -26 -28 -38 -18 -56 C-46 -87 -57 -108 -57 -133 C-57 -194 16 -232 133 -232 C312 -232 438 -144 438 -20 C438 50 388 85 286 85 L240 85 Z M281 189 C273 154 258 138 231 138 C210 138 201 147 201 168 C201 178 201 181 203 187 L238 354 C245 385 262 401 288 401 C309 401 318 392 318 372 C318 367 317 361 316 355 L281 189 Z M126 -95 C169 -92 207 -91 224 -91 C275 -91 299 -104 299 -131 C299 -179 240 -210 148 -210 C46 -210 -25 -172 -25 -117 C-25 -101 -20 -87 -8 -68 C13 -88 37 -96 76 -96 L126 -95 Z M341 647 C283 647 231 601 231 551 C231 512 263 485 308 485 C371 485 418 528 418 585 C418 622 387 647 341 647 L341 647 Z " />
<glyph glyph-name="Gcommaaccent" unicode="&#x122;" horiz-adv-x="746" d="M711 277 L716 300 L381 300 L376 277 L424 277 L385 93 C374 39 348 10 313 10 C287 10 275 22 275 49 C275 58 277 71 279 83 L381 562 C396 634 419 657 477 657 C534 657 581 632 617 581 C641 548 654 510 654 474 C654 460 653 448 649 427 L669 427 L725 687 L619 631 C565 673 524 687 453 687 C315 687 208 637 125 534 C56 450 18 346 18 245 C18 83 129 -20 302 -20 C399 -20 474 0 545 46 L600 -32 L666 277 L711 277 Z M165 -289 C231 -287 263 -282 290 -267 C340 -240 379 -177 379 -124 C379 -78 344 -48 289 -48 C225 -48 168 -92 168 -141 C168 -178 205 -209 250 -209 C283 -209 312 -199 336 -179 C309 -245 270 -265 169 -266 L165 -289 Z " />
<glyph glyph-name="gcommaaccent" unicode="&#x123;" horiz-adv-x="547" d="M240 85 L149 84 C105 84 86 91 86 108 C86 119 97 131 116 141 C156 128 187 123 231 123 C339 123 424 152 467 205 C486 228 498 259 498 289 C498 347 455 386 361 410 C376 442 393 462 419 476 C413 464 411 455 411 444 C411 421 427 407 453 407 C489 407 521 439 521 476 C521 502 503 518 476 518 C428 518 373 474 343 413 C318 418 301 420 276 420 C175 420 94 390 50 336 C28 309 15 274 15 242 C15 200 34 177 96 147 C13 105 -32 50 -32 -9 C-32 -26 -28 -38 -18 -56 C-46 -87 -57 -108 -57 -133 C-57 -194 16 -232 133 -232 C312 -232 438 -144 438 -20 C438 50 388 85 286 85 L240 85 Z M281 189 C273 154 258 138 231 138 C210 138 201 147 201 168 C201 178 201 181 203 187 L238 354 C245 385 262 401 288 401 C309 401 318 392 318 372 C318 367 317 361 316 355 L281 189 Z M126 -95 C169 -92 207 -91 224 -91 C275 -91 299 -104 299 -131 C299 -179 240 -210 148 -210 C46 -210 -25 -172 -25 -117 C-25 -101 -20 -87 -8 -68 C13 -88 37 -96 76 -96 L126 -95 Z M421 697 C359 696 328 690 303 677 C256 652 219 591 219 542 C219 499 252 471 303 471 C364 471 417 512 417 558 C417 593 382 622 340 622 C309 622 283 613 260 594 C285 654 322 673 416 674 L421 697 Z " />
<glyph glyph-name="Hcircumflex" unicode="&#x124;" horiz-adv-x="848" d="M755 0 L760 23 L686 23 L817 644 L891 644 L896 667 L503 667 L498 644 L545 644 L485 359 L374 359 L434 644 L482 644 L487 667 L93 667 L88 644 L162 644 L30 23 L-44 23 L-49 0 L345 0 L350 23 L302 23 L369 336 L480 336 L413 23 L366 23 L361 0 L755 0 Z M697 758 C639 782 601 823 592 869 L483 869 C455 823 399 782 332 758 L334 728 C395 733 451 749 519 780 C573 749 623 733 681 728 L697 758 Z " />
<glyph glyph-name="Hbar" unicode="&#x126;" horiz-adv-x="848" d="M127 481 L30 23 L-44 23 L-49 0 L345 0 L350 23 L302 23 L369 336 L480 336 L413 23 L366 23 L361 0 L755 0 L760 23 L686 23 L783 481 L851 481 L856 504 L788 504 L817 644 L891 644 L896 667 L503 667 L498 644 L545 644 L515 504 L405 504 L434 644 L482 644 L487 667 L93 667 L88 644 L162 644 L132 504 L64 504 L59 481 L127 481 Z M400 481 L510 481 L485 359 L374 359 L400 481 Z " />
<glyph glyph-name="hbar" unicode="&#x127;" horiz-adv-x="650" d="M113 534 L4 20 L-60 20 L-64 0 L246 0 L250 20 L219 20 L288 344 C309 359 327 367 341 367 C355 367 365 357 365 343 C365 335 364 322 362 314 L299 20 L269 20 L265 0 L574 0 L578 20 L515 20 L569 275 C574 297 576 319 576 342 C576 363 572 376 563 387 C547 407 511 420 474 420 C415 420 355 403 293 368 L328 534 L471 534 L476 557 L333 557 L359 680 C322 671 286 667 242 667 L78 667 L73 644 L136 644 L118 557 L54 557 L49 534 L113 534 Z " />
<glyph glyph-name="Imacron" unicode="&#x12a;" horiz-adv-x="469" d="M375 0 L380 23 L306 23 L438 644 L512 644 L517 667 L93 667 L88 644 L162 644 L30 23 L-44 23 L-49 0 L375 0 Z M507 828 L171 828 L156 756 L492 756 L507 828 Z " />
<glyph glyph-name="imacron" unicode="&#x12b;" horiz-adv-x="355" d="M278 0 L282 20 L219 20 L305 426 C265 417 227 413 183 413 L24 413 L20 393 L83 393 L4 20 L-60 20 L-64 0 L278 0 Z M386 602 L84 602 L69 530 L371 530 L386 602 Z " />
<glyph glyph-name="ibreve" unicode="&#x12d;" horiz-adv-x="355" d="M278 0 L282 20 L219 20 L305 426 C265 417 227 413 183 413 L24 413 L20 393 L83 393 L4 20 L-60 20 L-64 0 L278 0 Z M368 638 C362 623 357 617 347 610 C329 598 280 590 223 590 C171 590 132 600 122 616 C119 621 117 627 117 638 L97 638 C94 618 93 608 93 595 C93 531 128 502 204 502 C315 502 358 534 388 638 L368 638 Z " />
<glyph glyph-name="Iogonek" unicode="&#x12e;" horiz-adv-x="469" d="M375 0 L380 23 L306 23 L438 644 L512 644 L517 667 L93 667 L88 644 L162 644 L30 23 L-44 23 L-49 0 L264 0 C152 -26 91 -67 91 -118 C91 -155 130 -180 186 -180 C214 -180 230 -177 274 -163 L278 -146 C220 -145 193 -131 193 -101 C193 -63 224 -34 301 0 L375 0 Z " />
<glyph glyph-name="iogonek" unicode="&#x12f;" horiz-adv-x="355" d="M278 0 L282 20 L219 20 L305 426 C265 417 227 413 183 413 L24 413 L20 393 L83 393 L4 20 L-60 20 L-64 0 L191 0 C80 -24 30 -62 30 -122 C30 -160 63 -180 127 -180 C151 -180 168 -178 206 -171 L211 -150 C154 -145 133 -133 133 -102 C133 -66 163 -28 212 0 L278 0 Z M250 674 C178 674 121 631 121 576 C121 534 155 509 211 509 C288 509 343 550 343 607 C343 647 305 674 250 674 L250 674 Z " />
<glyph glyph-name="Idotaccent" unicode="&#x130;" horiz-adv-x="469" d="M375 0 L380 23 L306 23 L438 644 L512 644 L517 667 L93 667 L88 644 L162 644 L30 23 L-44 23 L-49 0 L375 0 Z M353 887 C295 887 243 841 243 791 C243 752 275 725 320 725 C383 725 430 768 430 825 C430 862 399 887 353 887 L353 887 Z " />
<glyph glyph-name="dotlessi" unicode="&#x131;" horiz-adv-x="355" d="M278 0 L282 20 L219 20 L305 426 C265 417 227 413 183 413 L24 413 L20 393 L83 393 L4 20 L-60 20 L-64 0 L278 0 Z " />
<glyph glyph-name="Kcommaaccent" unicode="&#x136;" horiz-adv-x="856" d="M778 0 L783 23 L752 23 L613 510 L655 542 C788 629 823 645 884 644 L889 667 L553 667 L548 644 C612 644 636 630 636 593 C636 564 621 544 572 510 L378 377 L434 644 L512 644 L517 667 L93 667 L88 644 L162 644 L30 23 L-44 23 L-49 0 L370 0 L375 23 L302 23 L371 345 L463 23 L398 23 L393 0 L778 0 Z M220 -289 C286 -287 320 -282 346 -267 C395 -240 435 -176 435 -124 C435 -78 400 -48 345 -48 C281 -48 224 -92 224 -141 C224 -178 261 -209 307 -209 C339 -209 367 -199 392 -179 C364 -245 326 -265 225 -266 L220 -289 Z " />
<glyph glyph-name="kcommaaccent" unicode="&#x137;" horiz-adv-x="672" d="M599 0 L603 20 L585 20 L466 363 C502 387 519 393 556 393 L593 393 L597 413 L429 413 L425 393 L437 393 C453 393 459 391 459 384 C459 377 451 369 428 354 L268 252 L359 680 C323 671 289 667 247 667 L78 667 L73 647 L137 647 L4 20 L-60 20 L-64 0 L278 0 L282 20 L219 20 L265 235 L339 20 L302 20 L297 0 L599 0 Z M147 -274 C210 -273 241 -268 265 -254 C312 -229 349 -169 349 -119 C349 -76 316 -48 265 -48 C204 -48 151 -89 151 -135 C151 -170 186 -199 228 -199 C259 -199 286 -190 308 -171 C284 -231 247 -250 152 -251 L147 -274 Z " />
<glyph glyph-name="Lacute" unicode="&#x139;" horiz-adv-x="681" d="M625 250 L603 250 C576 139 442 37 302 23 L434 644 L516 644 L521 667 L93 667 L88 644 L162 644 L30 23 L-44 23 L-49 0 L572 0 L625 250 Z M286 716 L311 716 L512 829 L518 856 L351 856 L286 716 Z " />
<glyph glyph-name="lacute" unicode="&#x13a;" horiz-adv-x="355" d="M278 0 L282 20 L219 20 L359 680 C332 672 298 667 259 667 L78 667 L73 647 L137 647 L4 20 L-60 20 L-64 0 L278 0 Z M234 716 L260 716 L460 829 L466 856 L300 856 L234 716 Z " />
<glyph glyph-name="Lcommaaccent" unicode="&#x13b;" horiz-adv-x="681" d="M625 250 L603 250 C576 139 442 37 302 23 L434 644 L516 644 L521 667 L93 667 L88 644 L162 644 L30 23 L-44 23 L-49 0 L572 0 L625 250 Z M134 -289 C200 -287 233 -282 260 -267 C309 -240 349 -177 349 -124 C349 -78 314 -48 259 -48 C195 -48 138 -92 138 -141 C138 -178 175 -209 220 -209 C253 -209 281 -199 306 -179 C278 -245 240 -265 139 -266 L134 -289 Z " />
<glyph glyph-name="lcommaaccent" unicode="&#x13c;" horiz-adv-x="355" d="M278 0 L282 20 L219 20 L359 680 C332 672 298 667 259 667 L78 667 L73 647 L137 647 L4 20 L-60 20 L-64 0 L278 0 Z M-17 -274 C45 -273 76 -268 101 -254 C148 -229 185 -169 185 -119 C185 -76 151 -48 100 -48 C40 -48 -14 -89 -14 -135 C-14 -170 21 -199 64 -199 C95 -199 121 -190 144 -171 C119 -231 82 -250 -12 -251 L-17 -274 Z " />
<glyph glyph-name="Lcaron" unicode="&#x13d;" horiz-adv-x="681" d="M625 250 L603 250 C576 139 442 37 302 23 L434 644 L516 644 L521 667 L93 667 L88 644 L162 644 L30 23 L-44 23 L-49 0 L572 0 L625 250 Z M511 426 C576 427 611 433 636 448 C686 475 725 538 725 591 C725 637 690 667 636 667 C572 667 515 623 515 574 C515 537 552 506 597 506 C630 506 658 516 682 536 C655 470 617 450 516 449 L511 426 Z " />
<glyph glyph-name="lcaron" unicode="&#x13e;" horiz-adv-x="525" d="M278 0 L282 20 L219 20 L359 680 C332 672 298 667 259 667 L78 667 L73 647 L137 647 L4 20 L-60 20 L-64 0 L278 0 Z M373 454 C435 456 467 461 491 474 C538 500 575 560 575 609 C575 652 541 680 490 680 C430 680 376 639 376 594 C376 559 411 530 454 530 C484 530 511 539 534 557 C509 497 472 479 378 478 L373 454 Z " />
<glyph glyph-name="Ldot" unicode="&#x13f;" horiz-adv-x="681" d="M625 250 L603 250 C576 139 442 37 302 23 L434 644 L516 644 L521 667 L93 667 L88 644 L162 644 L30 23 L-44 23 L-49 0 L572 0 L625 250 Z M529 422 C470 422 418 376 418 326 C418 287 450 260 496 260 C558 260 606 303 606 360 C606 397 575 422 529 422 L529 422 Z " />
<glyph glyph-name="ldot" unicode="&#x140;" horiz-adv-x="496" d="M278 0 L282 20 L219 20 L359 680 C332 672 298 667 259 667 L78 667 L73 647 L137 647 L4 20 L-60 20 L-64 0 L278 0 Z M437 422 C379 422 327 376 327 326 C327 287 359 260 404 260 C467 260 514 303 514 360 C514 397 483 422 437 422 L437 422 Z " />
<glyph glyph-name="Lslash" unicode="&#x141;" horiz-adv-x="681" d="M-5 209 L79 251 L30 23 L-44 23 L-49 0 L572 0 L625 250 L603 250 C576 139 442 37 302 23 L384 409 L516 477 L521 502 L390 435 L434 644 L516 644 L521 667 L93 667 L88 644 L162 644 L84 277 L1 235 L-5 209 Z " />
<glyph glyph-name="lslash" unicode="&#x142;" horiz-adv-x="355" d="M-15 229 L61 292 L4 20 L-60 20 L-64 0 L278 0 L282 20 L219 20 L314 468 L391 531 L396 557 L320 495 L359 680 C332 672 298 667 259 667 L78 667 L73 647 L137 647 L67 318 L-10 255 L-15 229 Z " />
<glyph glyph-name="Nacute" unicode="&#x143;" horiz-adv-x="780" d="M597 0 L694 457 C717 570 773 645 834 644 L839 667 L585 667 L580 644 L601 644 C654 644 677 614 677 544 C677 512 674 480 667 449 L634 295 L450 667 L84 667 L79 644 L138 644 L166 582 L83 192 C61 89 6 22 -53 23 L-58 0 L187 0 L192 23 C135 24 106 59 106 126 C106 159 110 193 117 228 L184 545 L443 0 L597 0 Z M453 716 L478 716 L679 829 L685 856 L519 856 L453 716 Z " />
<glyph glyph-name="nacute" unicode="&#x144;" horiz-adv-x="652" d="M575 0 L579 20 L516 20 L573 287 C576 303 578 319 578 333 C578 385 533 420 465 420 C408 420 353 400 291 359 L305 426 C263 417 229 413 207 413 L24 413 L20 393 L83 393 L4 20 L-60 20 L-64 0 L247 0 L252 20 L219 20 L286 334 C312 355 329 363 343 363 C357 363 365 354 365 336 C365 326 364 319 363 311 L301 20 L268 20 L264 0 L575 0 Z M336 483 L368 483 L552 596 L558 623 L400 623 L336 483 Z " />
<glyph glyph-name="Ncommaaccent" unicode="&#x145;" horiz-adv-x="780" d="M597 0 L694 457 C717 570 773 645 834 644 L839 667 L585 667 L580 644 L601 644 C654 644 677 614 677 544 C677 512 674 480 667 449 L634 295 L450 667 L84 667 L79 644 L138 644 L166 582 L83 192 C61 89 6 22 -53 23 L-58 0 L187 0 L192 23 C135 24 106 59 106 126 C106 159 110 193 117 228 L184 545 L443 0 L597 0 Z M184 -289 C250 -287 283 -282 309 -267 C359 -240 398 -177 398 -124 C398 -78 363 -48 308 -48 C244 -48 187 -92 187 -141 C187 -178 224 -209 270 -209 C302 -209 330 -199 355 -179 C328 -245 289 -265 188 -266 L184 -289 Z " />
<glyph glyph-name="ncommaaccent" unicode="&#x146;" horiz-adv-x="652" d="M575 0 L579 20 L516 20 L573 287 C576 303 578 319 578 333 C578 385 533 420 465 420 C408 420 353 400 291 359 L305 426 C263 417 229 413 207 413 L24 413 L20 393 L83 393 L4 20 L-60 20 L-64 0 L247 0 L252 20 L219 20 L286 334 C312 355 329 363 343 363 C357 363 365 354 365 336 C365 326 364 319 363 311 L301 20 L268 20 L264 0 L575 0 Z M127 -274 C189 -273 220 -268 245 -254 C292 -229 329 -169 329 -119 C329 -76 296 -48 245 -48 C184 -48 131 -89 131 -135 C131 -170 166 -199 208 -199 C239 -199 266 -190 288 -171 C263 -231 227 -250 132 -251 L127 -274 Z " />
<glyph glyph-name="Ncaron" unicode="&#x147;" horiz-adv-x="780" d="M597 0 L694 457 C717 570 773 645 834 644 L839 667 L585 667 L580 644 L601 644 C654 644 677 614 677 544 C677 512 674 480 667 449 L634 295 L450 667 L84 667 L79 644 L138 644 L166 582 L83 192 C61 89 6 22 -53 23 L-58 0 L187 0 L192 23 C135 24 106 59 106 126 C106 159 110 193 117 228 L184 545 L443 0 L597 0 Z M330 849 C387 825 426 784 434 738 L544 738 C572 784 628 825 695 849 L693 879 C631 874 577 859 508 827 C454 858 404 874 346 879 L330 849 Z " />
<glyph glyph-name="ncaron" unicode="&#x148;" horiz-adv-x="652" d="M575 0 L579 20 L516 20 L573 287 C576 303 578 319 578 333 C578 385 533 420 465 420 C408 420 353 400 291 359 L305 426 C263 417 229 413 207 413 L24 413 L20 393 L83 393 L4 20 L-60 20 L-64 0 L247 0 L252 20 L219 20 L286 334 C312 355 329 363 343 363 C357 363 365 354 365 336 C365 326 364 319 363 311 L301 20 L268 20 L264 0 L575 0 Z M217 606 C272 582 307 542 315 495 L419 495 C446 541 500 582 565 606 L562 636 C503 631 452 616 386 584 C335 615 288 631 232 636 L217 606 Z " />
<glyph glyph-name="Omacron" unicode="&#x14c;" horiz-adv-x="764" d="M457 687 C204 687 19 497 19 238 C19 161 39 110 89 58 C137 7 218 -20 320 -20 C463 -20 578 43 666 169 C718 245 747 336 747 429 C747 594 643 687 457 687 L457 687 Z M389 601 C398 644 419 666 453 666 C481 666 493 654 493 625 C493 617 492 609 491 601 L377 68 C367 22 347 1 313 1 C285 1 272 13 272 38 C272 47 273 58 275 68 L389 601 Z M656 828 L319 828 L304 756 L640 756 L656 828 Z " />
<glyph glyph-name="omacron" unicode="&#x14d;" horiz-adv-x="581" d="M308 420 C125 420 -15 303 -15 150 C-15 52 77 -13 217 -13 C408 -13 539 92 539 246 C539 290 526 328 501 353 C460 396 390 420 308 420 L308 420 Z M279 70 C270 26 253 8 220 8 C197 8 186 19 186 39 C186 45 188 57 190 70 L247 335 C257 384 273 402 306 402 C329 402 341 392 341 371 C341 364 339 353 336 338 L279 70 Z M499 602 L197 602 L182 530 L484 530 L499 602 Z " />
<glyph glyph-name="Ohungarumlaut" unicode="&#x150;" horiz-adv-x="764" d="M457 687 C204 687 19 497 19 238 C19 161 39 110 89 58 C137 7 218 -20 320 -20 C463 -20 578 43 666 169 C718 245 747 336 747 429 C747 594 643 687 457 687 L457 687 Z M389 601 C398 644 419 666 453 666 C481 666 493 654 493 625 C493 617 492 609 491 601 L377 68 C367 22 347 1 313 1 C285 1 272 13 272 38 C272 47 273 58 275 68 L389 601 Z M350 717 L373 718 L561 836 L566 859 L408 859 L350 717 Z M528 717 L550 718 L738 836 L743 859 L585 859 L528 717 Z " />
<glyph glyph-name="ohungarumlaut" unicode="&#x151;" horiz-adv-x="581" d="M308 420 C125 420 -15 303 -15 150 C-15 52 77 -13 217 -13 C408 -13 539 92 539 246 C539 290 526 328 501 353 C460 396 390 420 308 420 L308 420 Z M279 70 C270 26 253 8 220 8 C197 8 186 19 186 39 C186 45 188 57 190 70 L247 335 C257 384 273 402 306 402 C329 402 341 392 341 371 C341 364 339 353 336 338 L279 70 Z M220 483 L241 484 L421 602 L426 625 L276 625 L220 483 Z M393 483 L415 484 L603 602 L608 625 L450 625 L393 483 Z " />
<glyph glyph-name="OE" unicode="&#x152;" horiz-adv-x="1027" d="M900 0 L952 245 L931 245 C883 111 774 32 624 24 L689 331 C756 331 792 297 792 235 C792 217 790 204 785 179 L807 179 L878 509 L855 509 C838 410 777 351 694 354 L755 642 C808 642 834 639 858 630 C919 607 957 552 957 488 C957 479 957 471 955 455 L975 455 L1021 667 L576 667 C534 682 500 687 453 687 C317 687 200 632 118 528 C55 449 21 353 21 255 C21 84 126 -20 300 -20 C348 -20 388 -14 442 0 L900 0 Z M383 590 C394 644 414 666 450 666 C476 666 489 654 489 629 C489 619 487 603 484 590 L375 77 C364 23 344 1 309 1 C282 1 269 13 269 38 C269 47 271 63 274 77 L383 590 Z " />
<glyph glyph-name="oe" unicode="&#x153;" horiz-adv-x="818" d="M733 129 C675 66 587 18 531 18 C508 18 492 37 492 66 C492 75 493 84 499 112 L520 207 L772 207 C772 265 764 302 745 339 C719 389 661 420 594 420 C547 420 508 411 452 388 C403 411 363 420 309 420 C131 420 -13 304 -13 161 C-13 62 86 -13 217 -13 C265 -13 318 -2 373 19 C411 -5 442 -14 488 -14 C577 -14 673 33 744 112 L733 129 Z M613 228 L524 228 L548 339 C556 376 576 397 604 397 C628 397 639 386 639 362 C639 351 639 346 637 339 L613 228 Z M280 67 C270 23 253 4 223 4 C200 4 188 15 188 37 C188 46 189 56 191 66 L249 339 C258 380 278 401 308 401 C330 401 340 391 340 368 C340 356 339 348 337 338 L280 67 Z " />
<glyph glyph-name="Racute" unicode="&#x154;" horiz-adv-x="821" d="M724 118 C712 87 706 78 695 78 C688 78 683 83 683 92 C683 100 687 119 696 155 C712 219 715 234 715 257 C715 301 695 325 635 351 C731 388 783 459 783 553 C783 636 737 667 613 667 L93 667 L88 644 L162 644 L30 23 L-44 23 L-49 0 L361 0 L366 23 L302 23 L370 339 C382 340 388 340 398 340 C445 340 459 332 459 305 C459 290 458 281 447 232 C436 177 428 125 428 106 C428 79 435 54 448 34 C470 2 514 -14 581 -14 C665 -14 707 18 745 112 L724 118 Z M374 363 L434 644 L466 644 C512 644 524 636 524 606 C524 598 522 585 520 575 L490 434 C475 377 457 364 391 363 L374 363 Z M423 716 L449 716 L649 829 L655 856 L489 856 L423 716 Z " />
<glyph glyph-name="racute" unicode="&#x155;" horiz-adv-x="495" d="M278 0 L282 20 L219 20 L270 258 C281 288 305 320 327 335 C320 320 317 309 317 294 C317 259 343 234 380 234 C439 234 491 290 491 353 C491 393 469 416 430 416 C384 416 342 387 281 313 L305 426 C273 418 230 413 184 413 L24 413 L20 393 L83 393 L4 20 L-60 20 L-64 0 L278 0 Z M255 483 L287 483 L472 596 L477 623 L319 623 L255 483 Z " />
<glyph glyph-name="Rcommaaccent" unicode="&#x156;" horiz-adv-x="821" d="M724 118 C712 87 706 78 695 78 C688 78 683 83 683 92 C683 100 687 119 696 155 C712 219 715 234 715 257 C715 301 695 325 635 351 C731 388 783 459 783 553 C783 636 737 667 613 667 L93 667 L88 644 L162 644 L30 23 L-44 23 L-49 0 L361 0 L366 23 L302 23 L370 339 C382 340 388 340 398 340 C445 340 459 332 459 305 C459 290 458 281 447 232 C436 177 428 125 428 106 C428 79 435 54 448 34 C470 2 514 -14 581 -14 C665 -14 707 18 745 112 L724 118 Z M374 363 L434 644 L466 644 C512 644 524 636 524 606 C524 598 522 585 520 575 L490 434 C475 377 457 364 391 363 L374 363 Z M213 -289 C279 -287 312 -282 338 -267 C387 -240 427 -176 427 -124 C427 -78 392 -48 337 -48 C273 -48 216 -92 216 -141 C216 -178 253 -209 299 -209 C331 -209 360 -199 384 -179 C357 -245 319 -265 218 -266 L213 -289 Z " />
<glyph glyph-name="rcommaaccent" unicode="&#x157;" horiz-adv-x="495" d="M278 0 L282 20 L219 20 L270 258 C281 288 305 320 327 335 C320 320 317 309 317 294 C317 259 343 234 380 234 C439 234 491 290 491 353 C491 393 469 416 430 416 C384 416 342 387 281 313 L305 426 C273 418 230 413 184 413 L24 413 L20 393 L83 393 L4 20 L-60 20 L-64 0 L278 0 Z M-14 -274 C48 -273 79 -268 103 -254 C150 -229 187 -169 187 -119 C187 -76 154 -48 103 -48 C42 -48 -11 -89 -11 -135 C-11 -170 24 -199 67 -199 C97 -199 124 -190 147 -171 C122 -231 85 -250 -9 -251 L-14 -274 Z " />
<glyph glyph-name="Rcaron" unicode="&#x158;" horiz-adv-x="821" d="M724 118 C712 87 706 78 695 78 C688 78 683 83 683 92 C683 100 687 119 696 155 C712 219 715 234 715 257 C715 301 695 325 635 351 C731 388 783 459 783 553 C783 636 737 667 613 667 L93 667 L88 644 L162 644 L30 23 L-44 23 L-49 0 L361 0 L366 23 L302 23 L370 339 C382 340 388 340 398 340 C445 340 459 332 459 305 C459 290 458 281 447 232 C436 177 428 125 428 106 C428 79 435 54 448 34 C470 2 514 -14 581 -14 C665 -14 707 18 745 112 L724 118 Z M374 363 L434 644 L466 644 C512 644 524 636 524 606 C524 598 522 585 520 575 L490 434 C475 377 457 364 391 363 L374 363 Z M324 849 C381 825 419 784 428 738 L537 738 C565 784 621 825 688 849 L686 879 C624 874 570 859 501 827 C448 858 398 874 339 879 L324 849 Z " />
<glyph glyph-name="rcaron" unicode="&#x159;" horiz-adv-x="495" d="M278 0 L282 20 L219 20 L270 258 C281 288 305 320 327 335 C320 320 317 309 317 294 C317 259 343 234 380 234 C439 234 491 290 491 353 C491 393 469 416 430 416 C384 416 342 387 281 313 L305 426 C273 418 230 413 184 413 L24 413 L20 393 L83 393 L4 20 L-60 20 L-64 0 L278 0 Z M145 606 C200 582 235 542 243 495 L347 495 C374 541 428 582 492 606 L490 636 C431 631 379 616 314 584 C263 615 215 631 160 636 L145 606 Z " />
<glyph glyph-name="Sacute" unicode="&#x15a;" horiz-adv-x="602" d="M578 456 L627 687 L528 631 C476 672 434 687 373 687 C215 687 74 555 74 406 C74 335 117 273 207 217 C296 161 299 159 318 133 C323 125 326 114 326 104 C326 50 273 9 203 9 C152 9 111 29 75 72 C43 109 30 142 30 186 C30 208 32 226 39 254 L15 254 L-43 -17 L54 43 C105 -3 147 -21 205 -21 C283 -21 376 8 434 51 C503 102 546 186 546 272 C546 305 538 336 524 355 C499 389 432 445 374 479 C305 521 282 543 282 570 C282 619 326 660 380 660 C479 660 560 589 560 503 C560 488 559 476 554 456 L578 456 Z M344 716 L369 716 L570 829 L575 856 L409 856 L344 716 Z " />
<glyph glyph-name="sacute" unicode="&#x15b;" horiz-adv-x="481" d="M410 247 L447 423 L365 378 C317 409 282 420 235 420 C162 420 97 390 56 338 C32 308 18 272 18 242 C18 182 77 130 192 88 C216 80 225 71 225 58 C225 31 205 14 173 14 C80 14 14 66 14 138 C14 146 15 153 17 167 L-4 167 L-43 -17 L30 33 C68 3 127 -14 189 -14 C316 -14 409 60 409 161 C409 216 389 236 269 304 C204 345 203 346 203 359 C203 380 220 394 247 394 C330 394 391 341 391 268 C391 263 391 258 390 247 L410 247 Z M243 483 L275 483 L460 596 L465 623 L307 623 L243 483 Z " />
<glyph glyph-name="Scircumflex" unicode="&#x15c;" horiz-adv-x="602" d="M578 456 L627 687 L528 631 C476 672 434 687 373 687 C215 687 74 555 74 406 C74 335 117 273 207 217 C296 161 299 159 318 133 C323 125 326 114 326 104 C326 50 273 9 203 9 C152 9 111 29 75 72 C43 109 30 142 30 186 C30 208 32 226 39 254 L15 254 L-43 -17 L54 43 C105 -3 147 -21 205 -21 C283 -21 376 8 434 51 C503 102 546 186 546 272 C546 305 538 336 524 355 C499 389 432 445 374 479 C305 521 282 543 282 570 C282 619 326 660 380 660 C479 660 560 589 560 503 C560 488 559 476 554 456 L578 456 Z M585 758 C528 782 490 823 481 869 L372 869 C344 823 288 782 220 758 L223 728 C284 733 340 749 408 780 C462 749 512 733 570 728 L585 758 Z " />
<glyph glyph-name="scircumflex" unicode="&#x15d;" horiz-adv-x="481" d="M410 247 L447 423 L365 378 C317 409 282 420 235 420 C162 420 97 390 56 338 C32 308 18 272 18 242 C18 182 77 130 192 88 C216 80 225 71 225 58 C225 31 205 14 173 14 C80 14 14 66 14 138 C14 146 15 153 17 167 L-4 167 L-43 -17 L30 33 C68 3 127 -14 189 -14 C316 -14 409 60 409 161 C409 216 389 236 269 304 C204 345 203 346 203 359 C203 380 220 394 247 394 C330 394 391 341 391 268 C391 263 391 258 390 247 L410 247 Z M465 525 C411 549 375 590 367 636 L263 636 C236 590 182 549 118 525 L120 495 C179 500 231 515 296 547 C347 516 395 500 450 495 L465 525 Z " />
<glyph glyph-name="Scedilla" unicode="&#x15e;" horiz-adv-x="602" d="M210 -21 C269 -20 337 -2 393 26 C486 73 546 169 546 272 C546 305 538 336 524 355 C499 389 431 445 374 479 C305 521 282 543 282 570 C282 619 326 660 380 660 C479 660 560 589 560 503 C560 488 559 476 554 456 L578 456 L627 687 L528 631 C476 672 434 687 373 687 C215 687 74 555 74 407 C74 336 118 274 207 218 C296 162 299 160 318 133 C323 126 326 115 326 105 C326 51 273 10 203 10 C152 10 111 30 75 73 C43 110 30 142 30 186 C30 208 32 226 39 254 L15 254 L-43 -17 L54 43 C98 3 135 -15 185 -20 L129 -83 L138 -94 C148 -88 154 -86 163 -86 C182 -86 192 -96 192 -115 C192 -149 162 -172 120 -172 C96 -172 78 -168 53 -158 L41 -175 C80 -193 109 -199 164 -199 C220 -199 251 -192 277 -172 C299 -156 312 -134 312 -110 C312 -76 282 -55 232 -55 C211 -55 196 -57 170 -65 L210 -21 Z " />
<glyph glyph-name="scedilla" unicode="&#x15f;" horiz-adv-x="481" d="M178 -13 C183 -14 188 -14 191 -14 C316 -14 409 60 409 161 C409 216 389 236 269 304 C204 344 203 346 203 359 C203 380 220 394 247 394 C330 394 391 341 391 268 C391 263 391 258 390 247 L410 247 L447 423 L365 378 C317 409 282 420 235 420 C120 420 18 336 18 241 C18 181 76 130 192 87 C216 79 225 70 225 57 C225 30 205 13 173 13 C80 13 14 65 14 138 C14 146 15 153 17 167 L-4 167 L-43 -17 L30 33 C58 10 99 -5 155 -12 L94 -83 L103 -94 C112 -88 118 -86 126 -86 C144 -86 154 -96 154 -115 C154 -148 125 -172 85 -172 C62 -172 45 -168 20 -158 L9 -175 C45 -193 74 -199 126 -199 C178 -199 207 -192 232 -174 C255 -157 268 -134 268 -110 C268 -76 239 -55 193 -55 C172 -55 158 -57 134 -65 L178 -13 Z " />
<glyph glyph-name="Scaron" unicode="&#x160;" horiz-adv-x="602" d="M228 849 C285 825 324 784 332 738 L442 738 C471 785 526 825 593 849 L591 879 C529 874 475 859 406 827 C352 858 302 874 243 879 L228 849 Z M578 456 L627 687 L528 631 C476 672 434 687 373 687 C215 687 74 555 74 406 C74 335 117 273 207 217 C296 161 299 159 318 133 C323 125 326 114 326 104 C326 50 273 9 203 9 C152 9 111 29 75 72 C43 109 30 142 30 186 C30 208 32 226 39 254 L15 254 L-43 -17 L54 43 C105 -3 147 -21 205 -21 C283 -21 376 8 434 51 C503 102 546 186 546 272 C546 305 538 336 524 355 C499 389 432 445 374 479 C305 521 282 543 282 570 C282 619 326 660 380 660 C479 660 560 589 560 503 C560 488 559 476 554 456 L578 456 Z " />
<glyph glyph-name="scaron" unicode="&#x161;" horiz-adv-x="481" d="M128 606 C183 582 219 541 227 495 L331 495 C359 542 411 582 476 606 L474 636 C415 631 363 616 297 584 C246 615 199 631 143 636 L128 606 Z M410 247 L447 423 L365 378 C317 409 282 420 235 420 C162 420 97 390 56 338 C32 308 18 272 18 242 C18 182 77 130 192 88 C216 80 225 71 225 58 C225 31 205 14 173 14 C80 14 14 66 14 138 C14 146 15 153 17 167 L-4 167 L-43 -17 L30 33 C68 3 127 -14 189 -14 C316 -14 409 60 409 161 C409 216 389 236 269 304 C204 345 203 346 203 359 C203 380 220 394 247 394 C330 394 391 341 391 268 C391 263 391 258 390 247 L410 247 Z " />
<glyph glyph-name="Tcommaaccent" unicode="&#x162;" horiz-adv-x="702" d="M503 0 L508 23 L423 23 L555 644 C632 615 686 536 686 452 C686 449 686 442 685 435 L707 435 L756 667 L88 667 L39 435 L61 435 C103 534 176 604 282 644 L150 23 L66 23 L61 0 L503 0 Z M147 -289 C213 -287 246 -282 272 -267 C322 -240 361 -176 361 -124 C361 -78 326 -48 271 -48 C207 -48 150 -92 150 -141 C150 -178 187 -209 233 -209 C265 -209 294 -199 318 -179 C291 -245 253 -265 152 -266 L147 -289 Z " />
<glyph glyph-name="tcommaaccent" unicode="&#x163;" horiz-adv-x="377" d="M306 152 C275 92 256 70 235 70 C224 70 218 75 218 84 C218 90 220 99 224 122 L282 393 L345 393 L349 413 L286 413 L330 616 L307 616 C261 519 120 419 23 413 L19 393 L67 393 L5 104 C3 92 1 77 1 67 C1 21 44 -7 114 -7 C178 -7 226 12 265 55 C283 75 298 97 324 146 L306 152 Z M-31 -274 C31 -273 62 -268 87 -254 C134 -229 171 -169 171 -119 C171 -76 138 -48 86 -48 C26 -48 -28 -89 -28 -135 C-28 -170 7 -199 50 -199 C81 -199 107 -190 130 -171 C105 -231 68 -250 -26 -251 L-31 -274 Z " />
<glyph glyph-name="Tcaron" unicode="&#x164;" horiz-adv-x="702" d="M503 0 L508 23 L423 23 L555 644 C632 615 686 536 686 452 C686 449 686 442 685 435 L707 435 L756 667 L88 667 L39 435 L61 435 C103 534 176 604 282 644 L150 23 L66 23 L61 0 L503 0 Z M287 849 C344 825 383 784 391 738 L501 738 C529 784 585 825 652 849 L650 879 C588 874 534 859 465 827 C411 858 361 874 303 879 L287 849 Z " />
<glyph glyph-name="tcaron" unicode="&#x165;" horiz-adv-x="501" d="M307 152 C276 92 257 70 235 70 C224 70 218 75 218 84 C218 90 218 90 225 122 L283 393 L345 393 L350 413 L287 413 L330 616 L308 616 C262 520 120 418 23 413 L19 393 L67 393 L6 104 C3 90 1 76 1 67 C1 21 44 -7 114 -7 C178 -7 226 12 265 55 C284 75 299 98 325 146 L307 152 Z M355 481 C417 483 448 488 473 501 C519 527 556 586 556 636 C556 679 523 707 472 707 C412 707 358 666 358 620 C358 586 393 557 436 557 C466 557 493 566 516 584 C491 524 454 506 360 505 L355 481 Z " />
<glyph glyph-name="utilde" unicode="&#x169;" horiz-adv-x="635" d="M279 0 L558 0 L562 20 L499 20 L585 426 C549 417 515 413 477 413 L313 413 L308 393 L363 393 L296 80 C276 63 253 52 239 52 C228 52 220 60 220 72 C220 80 222 95 225 108 L292 426 C252 417 217 413 182 413 L24 413 L19 393 L70 393 L8 102 C5 89 4 77 4 65 C4 16 43 -13 110 -13 C170 -13 224 7 290 53 L279 0 Z M542 617 C524 602 511 595 498 595 C487 595 459 603 435 612 C396 628 379 632 356 632 C313 632 286 616 199 538 L213 523 C231 537 241 543 251 543 C257 543 278 536 300 525 C328 512 357 505 380 505 C412 505 443 515 475 535 C496 548 508 559 544 595 C547 599 550 602 554 606 L542 617 Z " />
<glyph glyph-name="Umacron" unicode="&#x16a;" horiz-adv-x="731" d="M789 667 L548 667 L543 644 C604 642 628 614 628 543 C628 515 623 476 615 437 L560 180 C550 132 530 96 500 71 C461 38 410 18 364 18 C329 18 311 32 311 58 L311 61 L318 110 L431 644 L498 644 L503 667 L89 667 L84 644 L159 644 L59 176 C54 154 52 135 52 120 C52 80 76 48 126 21 C170 -3 249 -20 317 -20 C454 -20 559 55 584 170 L647 467 C670 575 724 644 784 644 L789 667 Z M654 828 L318 828 L303 756 L639 756 L654 828 Z " />
<glyph glyph-name="umacron" unicode="&#x16b;" horiz-adv-x="635" d="M279 0 L558 0 L562 20 L499 20 L585 426 C549 417 515 413 477 413 L313 413 L308 393 L363 393 L296 80 C276 63 253 52 239 52 C228 52 220 60 220 72 C220 80 222 95 225 108 L292 426 C252 417 217 413 182 413 L24 413 L19 393 L70 393 L8 102 C5 89 4 77 4 65 C4 16 43 -13 110 -13 C170 -13 224 7 290 53 L279 0 Z M525 602 L224 602 L208 530 L510 530 L525 602 Z " />
<glyph glyph-name="ubreve" unicode="&#x16d;" horiz-adv-x="635" d="M279 0 L558 0 L562 20 L499 20 L585 426 C549 417 515 413 477 413 L313 413 L308 393 L363 393 L296 80 C276 63 253 52 239 52 C228 52 220 60 220 72 C220 80 222 95 225 108 L292 426 C252 417 217 413 182 413 L24 413 L19 393 L70 393 L8 102 C5 89 4 77 4 65 C4 16 43 -13 110 -13 C170 -13 224 7 290 53 L279 0 Z M508 638 C501 624 497 617 487 611 C469 598 420 590 363 590 C311 590 272 600 262 616 C258 621 257 627 257 638 L237 638 C234 618 233 608 233 595 C233 531 268 502 344 502 C455 502 499 534 528 638 L508 638 Z " />
<glyph glyph-name="Uring" unicode="&#x16e;" horiz-adv-x="731" d="M789 667 L548 667 L543 644 C604 642 628 614 628 543 C628 515 623 476 615 437 L560 180 C550 132 530 96 500 71 C461 38 410 18 364 18 C329 18 311 32 311 58 L311 61 L318 110 L431 644 L498 644 L503 667 L89 667 L84 644 L159 644 L59 176 C54 154 52 135 52 120 C52 80 76 48 126 21 C170 -3 249 -20 317 -20 C454 -20 559 55 584 170 L647 467 C670 575 724 644 784 644 L789 667 Z M516 906 C432 906 364 856 364 795 C364 747 405 718 473 718 C562 718 627 765 627 828 C627 874 582 906 516 906 L516 906 Z M509 877 C561 877 598 854 598 822 C598 779 549 748 480 748 C425 748 393 768 393 802 C393 843 445 877 509 877 L509 877 Z " />
<glyph glyph-name="uring" unicode="&#x16f;" horiz-adv-x="635" d="M279 0 L558 0 L562 20 L499 20 L585 426 C549 417 515 413 477 413 L313 413 L308 393 L363 393 L296 80 C276 63 253 52 239 52 C228 52 220 60 220 72 C220 80 222 95 225 108 L292 426 C252 417 217 413 182 413 L24 413 L19 393 L70 393 L8 102 C5 89 4 77 4 65 C4 16 43 -13 110 -13 C170 -13 224 7 290 53 L279 0 Z M399 672 C328 672 265 622 265 565 C265 522 305 490 359 490 C429 490 492 541 492 597 C492 640 452 672 399 672 L399 672 Z M392 645 C432 645 462 622 462 591 C462 552 415 517 364 517 C323 517 293 540 293 571 C293 610 340 645 392 645 L392 645 Z " />
<glyph glyph-name="Uhungarumlaut" unicode="&#x170;" horiz-adv-x="731" d="M789 667 L548 667 L543 644 C604 642 628 614 628 543 C628 515 623 476 615 437 L560 180 C550 132 530 96 500 71 C461 38 410 18 364 18 C329 18 311 32 311 58 L311 61 L318 110 L431 644 L498 644 L503 667 L89 667 L84 644 L159 644 L59 176 C54 154 52 135 52 120 C52 80 76 48 126 21 C170 -3 249 -20 317 -20 C454 -20 559 55 584 170 L647 467 C670 575 724 644 784 644 L789 667 Z M360 717 L382 718 L570 836 L575 859 L417 859 L360 717 Z M537 717 L559 718 L747 836 L752 859 L594 859 L537 717 Z " />
<glyph glyph-name="uhungarumlaut" unicode="&#x171;" horiz-adv-x="635" d="M279 0 L558 0 L562 20 L499 20 L585 426 C549 417 515 413 477 413 L313 413 L308 393 L363 393 L296 80 C276 63 253 52 239 52 C228 52 220 60 220 72 C220 80 222 95 225 108 L292 426 C252 417 217 413 182 413 L24 413 L19 393 L70 393 L8 102 C5 89 4 77 4 65 C4 16 43 -13 110 -13 C170 -13 224 7 290 53 L279 0 Z M222 483 L243 484 L423 602 L428 625 L277 625 L222 483 Z M394 483 L416 484 L605 602 L610 625 L451 625 L394 483 Z " />
<glyph glyph-name="Uogonek" unicode="&#x172;" horiz-adv-x="731" d="M444 -146 C386 -145 359 -130 359 -101 C359 -67 377 -48 468 14 C533 55 568 102 584 170 L647 467 C670 575 724 644 784 644 L789 667 L548 667 L543 644 C604 642 628 614 628 543 C628 515 623 476 615 437 L560 180 C550 132 530 96 500 71 C461 38 410 18 364 18 C329 18 311 32 311 58 L311 61 L318 110 L431 644 L498 644 L503 667 L89 667 L84 644 L159 644 L59 176 C54 154 52 135 52 120 C52 80 76 48 126 21 C170 -3 249 -20 317 -20 C336 -20 351 -19 368 -17 C300 -39 257 -79 257 -118 C257 -155 295 -180 351 -180 C380 -180 396 -177 440 -163 L444 -146 Z " />
<glyph glyph-name="uogonek" unicode="&#x173;" horiz-adv-x="635" d="M558 0 L562 20 L499 20 L585 426 C549 417 515 413 477 413 L313 413 L308 393 L363 393 L296 80 C276 63 253 52 239 52 C228 52 220 60 220 72 C220 80 222 95 225 108 L292 426 C252 417 217 413 182 413 L24 413 L19 393 L70 393 L8 102 C5 89 4 77 4 65 C4 16 43 -13 110 -13 C170 -13 224 7 290 53 L279 0 L474 0 C362 -24 312 -62 312 -122 C312 -135 315 -146 322 -153 C335 -169 370 -180 409 -180 C433 -180 451 -178 489 -171 L493 -150 C436 -145 415 -133 415 -102 C415 -66 444 -30 495 0 L558 0 Z " />
<glyph glyph-name="Wcircumflex" unicode="&#x174;" horiz-adv-x="1113" d="M1184 667 L968 667 L963 644 C1014 640 1029 627 1029 583 C1029 551 1016 511 992 472 L843 230 L800 644 L852 644 L857 667 L472 667 L467 644 L513 644 L544 348 L456 214 L402 644 L448 644 L453 667 L71 667 L66 644 L115 644 L194 0 L344 0 L549 312 L581 0 L727 0 L1018 469 C1081 568 1128 619 1179 644 L1184 667 Z M857 758 C799 782 761 823 753 869 L643 869 C615 823 559 782 492 758 L494 728 C555 733 612 749 679 780 C733 749 783 733 841 728 L857 758 Z " />
<glyph glyph-name="Ycircumflex" unicode="&#x176;" horiz-adv-x="726" d="M797 667 L581 667 L576 644 C604 642 615 640 625 633 C635 626 644 607 644 590 C644 564 628 528 599 489 L502 358 L416 644 L484 644 L489 667 L71 667 L66 644 L106 644 L222 260 L172 23 L94 23 L89 0 L524 0 L529 23 L444 23 L509 328 L637 500 C698 582 745 625 792 644 L797 667 Z M655 758 C597 782 559 823 551 869 L441 869 C413 823 357 782 290 758 L292 728 C353 733 410 749 477 780 C531 749 581 733 639 728 L655 758 Z " />
<glyph glyph-name="ycircumflex" unicode="&#x177;" horiz-adv-x="490" d="M510 413 L348 413 L343 393 C380 389 394 378 394 353 C394 337 384 314 367 290 L335 244 L286 393 L327 393 L331 413 L17 413 L13 393 L38 393 L167 4 L83 -115 L83 -108 L83 -105 C83 -65 51 -34 9 -34 C-50 -34 -105 -92 -105 -155 C-105 -200 -76 -228 -31 -228 C13 -228 51 -200 95 -137 L404 308 C444 366 468 386 506 393 L510 413 Z M470 525 C415 549 380 590 372 636 L268 636 C240 589 187 549 122 525 L125 495 C184 500 235 515 301 547 C352 516 399 500 455 495 L470 525 Z " />
<glyph glyph-name="Ydieresis" unicode="&#x178;" horiz-adv-x="726" d="M648 886 C586 886 536 842 536 787 C536 750 569 724 616 724 C677 724 724 767 724 822 C724 862 695 886 648 886 L648 886 Z M390 887 C331 887 279 842 279 790 C279 752 311 725 356 725 C419 725 466 768 466 825 C466 862 436 887 390 887 L390 887 Z M797 667 L581 667 L576 644 C604 642 615 640 625 633 C635 626 644 607 644 590 C644 564 628 528 599 489 L502 358 L416 644 L484 644 L489 667 L71 667 L66 644 L106 644 L222 260 L172 23 L94 23 L89 0 L524 0 L529 23 L444 23 L509 328 L637 500 C698 582 745 625 792 644 L797 667 Z " />
<glyph glyph-name="Zacute" unicode="&#x179;" horiz-adv-x="696" d="M637 285 L614 285 C596 216 546 148 467 85 C409 39 365 23 299 23 L287 23 L729 667 L143 667 L89 415 L111 415 C131 495 171 550 244 601 C289 632 326 642 406 644 L-33 0 L577 0 L637 285 Z M430 716 L455 716 L656 829 L661 856 L495 856 L430 716 Z " />
<glyph glyph-name="zacute" unicode="&#x17a;" horiz-adv-x="499" d="M409 0 L447 178 L425 178 C406 92 311 22 209 20 L497 413 L54 413 L15 233 L38 233 C70 331 148 392 240 392 L-52 0 L409 0 Z M272 483 L303 483 L488 596 L494 623 L335 623 L272 483 Z " />
<glyph glyph-name="Zdotaccent" unicode="&#x17b;" horiz-adv-x="696" d="M637 285 L614 285 C596 216 546 148 467 85 C409 39 365 23 299 23 L287 23 L729 667 L143 667 L89 415 L111 415 C131 495 171 550 244 601 C289 632 326 642 406 644 L-33 0 L577 0 L637 285 Z M499 887 C441 887 389 841 389 791 C389 752 421 725 466 725 C529 725 576 768 576 825 C576 862 545 887 499 887 L499 887 Z " />
<glyph glyph-name="zdotaccent" unicode="&#x17c;" horiz-adv-x="499" d="M409 0 L447 178 L425 178 C406 92 311 22 209 20 L497 413 L54 413 L15 233 L38 233 C70 331 148 392 240 392 L-52 0 L409 0 Z M336 647 C277 647 225 601 225 551 C225 512 257 485 303 485 C365 485 413 528 413 585 C413 622 382 647 336 647 L336 647 Z " />
<glyph glyph-name="Zcaron" unicode="&#x17d;" horiz-adv-x="696" d="M307 849 C364 825 402 784 411 738 L520 738 C549 784 604 825 672 849 L669 879 C608 874 554 859 485 827 C431 858 381 874 322 879 L307 849 Z M637 285 L614 285 C596 216 546 148 467 85 C409 39 365 23 299 23 L287 23 L729 667 L143 667 L89 415 L111 415 C131 495 171 550 244 601 C289 632 326 642 406 644 L-33 0 L577 0 L637 285 Z " />
<glyph glyph-name="zcaron" unicode="&#x17e;" horiz-adv-x="499" d="M161 606 C216 582 251 541 259 495 L363 495 C391 542 444 582 509 606 L506 636 C448 631 396 616 330 584 C279 615 232 631 176 636 L161 606 Z M409 0 L447 178 L425 178 C406 92 311 22 209 20 L497 413 L54 413 L15 233 L38 233 C70 331 148 392 240 392 L-52 0 L409 0 Z " />
<glyph glyph-name="florin" unicode="&#x192;" horiz-adv-x="633" d="M193 -227 L429 393 L501 393 L509 413 L472 413 C403 413 360 455 360 524 C360 593 404 653 453 653 C454 653 458 653 461 652 C421 634 400 604 400 565 C400 520 435 484 478 484 C529 484 574 530 574 582 C574 634 529 671 465 671 C367 671 282 604 240 493 L209 413 L153 413 L145 393 L202 393 L-34 -227 L193 -227 Z " />
<glyph glyph-name="uni01CD" unicode="&#x1cd;" horiz-adv-x="743" d="M668 0 L673 23 L638 23 L562 667 L345 667 L73 174 C15 80 -30 30 -63 23 L-68 0 L179 0 L183 23 C118 24 90 50 90 109 C90 139 97 166 116 205 L336 205 L357 23 L285 23 L280 0 L668 0 Z M334 228 L128 228 L296 539 L334 228 Z M311 849 C368 825 407 784 415 738 L524 738 C552 784 608 825 676 849 L673 879 C612 874 558 859 488 827 C435 858 385 874 326 879 L311 849 Z " />
<glyph glyph-name="uni01CE" unicode="&#x1ce;" horiz-adv-x="586" d="M508 88 C478 54 478 53 471 53 C468 53 467 56 467 60 C467 66 468 72 470 78 L510 267 C515 292 517 306 517 315 C517 382 433 420 288 420 C217 420 174 412 138 393 C99 373 75 338 75 301 C75 263 99 240 140 240 C194 240 236 283 236 339 C236 366 225 381 198 390 C214 395 223 397 237 397 C285 397 312 380 312 350 C312 343 310 328 307 313 L285 213 C252 226 220 231 178 231 C118 231 72 219 36 192 C-2 164 -25 124 -25 85 C-25 27 30 -13 110 -13 C158 -13 195 -2 252 31 C278 -2 303 -13 349 -13 C421 -13 482 19 523 78 L508 88 Z M250 48 C220 32 206 27 194 27 C179 27 171 36 171 51 C171 57 172 63 173 68 L193 161 C199 191 212 204 234 204 C249 204 261 201 281 192 L250 48 Z M194 606 C249 582 285 541 292 495 L396 495 C424 542 477 582 542 606 L540 636 C481 631 429 616 363 584 C312 615 265 631 209 636 L194 606 Z " />
<glyph glyph-name="uni01D3" unicode="&#x1d3;" horiz-adv-x="731" d="M789 667 L548 667 L543 644 C604 642 628 614 628 543 C628 515 623 476 615 437 L560 180 C550 132 530 96 500 71 C461 38 410 18 364 18 C329 18 311 32 311 58 L311 61 L318 110 L431 644 L498 644 L503 667 L89 667 L84 644 L159 644 L59 176 C54 154 52 135 52 120 C52 80 76 48 126 21 C170 -3 249 -20 317 -20 C454 -20 559 55 584 170 L647 467 C670 575 724 644 784 644 L789 667 Z M321 849 C378 825 417 784 425 738 L534 738 C562 784 618 825 686 849 L683 879 C621 874 567 859 499 827 C445 858 395 874 336 879 L321 849 Z " />
<glyph glyph-name="uni01D4" unicode="&#x1d4;" horiz-adv-x="635" d="M279 0 L558 0 L562 20 L499 20 L585 426 C549 417 515 413 477 413 L313 413 L308 393 L363 393 L296 80 C276 63 253 52 239 52 C228 52 220 60 220 72 C220 80 222 95 225 108 L292 426 C252 417 217 413 182 413 L24 413 L19 393 L70 393 L8 102 C5 89 4 77 4 65 C4 16 43 -13 110 -13 C170 -13 224 7 290 53 L279 0 Z M210 606 C265 582 301 541 308 495 L412 495 C440 541 493 582 558 606 L556 636 C497 631 445 616 379 584 C328 615 281 631 225 636 L210 606 Z " />
<glyph glyph-name="Gcaron" unicode="&#x1e6;" horiz-adv-x="746" d="M711 277 L716 300 L381 300 L376 277 L424 277 L385 93 C374 39 348 10 313 10 C287 10 275 22 275 49 C275 58 277 71 279 83 L381 562 C396 634 419 657 477 657 C534 657 581 632 617 581 C641 548 654 510 654 474 C654 460 653 448 649 427 L669 427 L725 687 L619 631 C565 673 524 687 453 687 C315 687 208 637 125 534 C56 450 18 346 18 245 C18 83 129 -20 302 -20 C399 -20 474 0 545 46 L600 -32 L666 277 L711 277 Z M303 849 C360 825 399 784 407 738 L516 738 C545 785 600 825 668 849 L665 879 C603 874 549 859 480 827 C427 858 377 874 318 879 L303 849 Z " />
<glyph glyph-name="gcaron" unicode="&#x1e7;" horiz-adv-x="547" d="M240 85 L149 84 C105 84 86 91 86 108 C86 119 97 131 116 141 C156 128 187 123 231 123 C339 123 424 152 467 205 C486 228 498 259 498 289 C498 347 455 386 361 410 C376 442 393 462 419 476 C413 464 411 455 411 444 C411 421 427 407 453 407 C489 407 521 439 521 476 C521 502 503 518 476 518 C428 518 373 474 343 413 C318 418 301 420 276 420 C175 420 94 390 50 336 C28 309 15 274 15 242 C15 200 34 177 96 147 C13 105 -32 50 -32 -9 C-32 -26 -28 -38 -18 -56 C-46 -87 -57 -108 -57 -133 C-57 -194 16 -232 133 -232 C312 -232 438 -144 438 -20 C438 50 388 85 286 85 L240 85 Z M281 189 C273 154 258 138 231 138 C210 138 201 147 201 168 C201 178 201 181 203 187 L238 354 C245 385 262 401 288 401 C309 401 318 392 318 372 C318 367 317 361 316 355 L281 189 Z M126 -95 C169 -92 207 -91 224 -91 C275 -91 299 -104 299 -131 C299 -179 240 -210 148 -210 C46 -210 -25 -172 -25 -117 C-25 -101 -20 -87 -8 -68 C13 -88 37 -96 76 -96 L126 -95 Z M154 606 C209 582 245 541 252 495 L356 495 C384 542 437 582 502 606 L500 636 C441 631 389 616 323 584 C273 615 225 631 169 636 L154 606 Z " />
<glyph glyph-name="Scommaaccent" unicode="&#x218;" horiz-adv-x="602" d="M578 456 L627 687 L528 631 C476 672 434 687 373 687 C215 687 74 555 74 406 C74 335 117 273 207 217 C296 161 299 159 318 133 C323 125 326 114 326 104 C326 50 273 9 203 9 C152 9 111 29 75 72 C43 109 30 142 30 186 C30 208 32 226 39 254 L15 254 L-43 -17 L54 43 C105 -3 147 -21 205 -21 C283 -21 376 8 434 51 C503 102 546 186 546 272 C546 305 538 336 524 355 C499 389 432 445 374 479 C305 521 282 543 282 570 C282 619 326 660 380 660 C479 660 560 589 560 503 C560 488 559 476 554 456 L578 456 Z M91 -289 C157 -287 190 -282 217 -267 C266 -240 306 -176 306 -124 C306 -78 270 -48 216 -48 C152 -48 95 -92 95 -141 C95 -178 132 -209 177 -209 C210 -209 238 -199 262 -179 C235 -245 197 -265 96 -266 L91 -289 Z " />
<glyph glyph-name="scommaaccent" unicode="&#x219;" horiz-adv-x="481" d="M410 247 L447 423 L365 378 C317 409 282 420 235 420 C162 420 97 390 56 338 C32 308 18 272 18 242 C18 182 77 130 192 88 C216 80 225 71 225 58 C225 31 205 14 173 14 C80 14 14 66 14 138 C14 146 15 153 17 167 L-4 167 L-43 -17 L30 33 C68 3 127 -14 189 -14 C316 -14 409 60 409 161 C409 216 389 236 269 304 C204 345 203 346 203 359 C203 380 220 394 247 394 C330 394 391 341 391 268 C391 263 391 258 390 247 L410 247 Z M45 -274 C108 -273 138 -268 163 -254 C210 -229 247 -169 247 -119 C247 -76 214 -48 163 -48 C102 -48 49 -89 49 -135 C49 -170 84 -199 126 -199 C157 -199 183 -190 206 -171 C181 -231 145 -250 50 -251 L45 -274 Z " />
<glyph glyph-name="uni021A" unicode="&#x21a;" horiz-adv-x="702" d="M503 0 L508 23 L423 23 L555 644 C632 615 686 536 686 452 C686 449 686 442 685 435 L707 435 L756 667 L88 667 L39 435 L61 435 C103 534 176 604 282 644 L150 23 L66 23 L61 0 L503 0 Z M147 -289 C213 -287 246 -282 272 -267 C322 -240 361 -176 361 -124 C361 -78 326 -48 271 -48 C207 -48 150 -92 150 -141 C150 -178 187 -209 233 -209 C265 -209 294 -199 318 -179 C291 -245 253 -265 152 -266 L147 -289 Z " />
<glyph glyph-name="uni021B" unicode="&#x21b;" horiz-adv-x="377" d="M306 152 C275 92 256 70 235 70 C224 70 218 75 218 84 C218 90 220 99 224 122 L282 393 L345 393 L349 413 L286 413 L330 616 L307 616 C261 519 120 419 23 413 L19 393 L67 393 L5 104 C3 92 1 77 1 67 C1 21 44 -7 114 -7 C178 -7 226 12 265 55 C283 75 298 97 324 146 L306 152 Z M-31 -274 C31 -273 62 -268 87 -254 C134 -229 171 -169 171 -119 C171 -76 138 -48 86 -48 C26 -48 -28 -89 -28 -135 C-28 -170 7 -199 50 -199 C81 -199 107 -190 130 -171 C105 -231 68 -250 -26 -251 L-31 -274 Z " />
<glyph glyph-name="circumflex" unicode="&#x2c6;" horiz-adv-x="475" d="M452 525 C397 549 361 590 353 636 L249 636 C222 589 169 549 104 525 L106 495 C165 500 217 515 283 547 C333 516 381 500 437 495 L452 525 Z " />
<glyph glyph-name="caron" unicode="&#x2c7;" horiz-adv-x="475" d="M122 606 C177 582 212 541 220 495 L324 495 C352 541 405 582 470 606 L467 636 C408 631 357 616 291 584 C240 615 193 631 137 636 L122 606 Z " />
<glyph glyph-name="uni02C9" unicode="&#x2c9;" horiz-adv-x="368" d="M392 602 L90 602 L75 530 L377 530 L392 602 Z " />
<glyph glyph-name="breve" unicode="&#x2d8;" horiz-adv-x="475" d="M428 638 C421 624 417 617 407 611 C389 598 340 590 283 590 C231 590 192 600 182 616 C178 621 177 627 177 638 L157 638 C154 618 153 608 153 595 C153 531 188 502 264 502 C375 502 418 534 448 638 L428 638 Z " />
<glyph glyph-name="dotaccent" unicode="&#x2d9;" horiz-adv-x="475" d="M304 647 C246 647 194 601 194 551 C194 512 226 485 271 485 C334 485 381 528 381 585 C381 622 350 647 304 647 L304 647 Z " />
<glyph glyph-name="ring" unicode="&#x2da;" horiz-adv-x="475" d="M311 672 C240 672 177 622 177 565 C177 522 217 490 271 490 C341 490 404 541 404 597 C404 640 364 672 311 672 L311 672 Z M304 645 C344 645 374 622 374 591 C374 552 327 517 276 517 C235 517 205 540 205 571 C205 610 252 645 304 645 L304 645 Z " />
<glyph glyph-name="ogonek" unicode="&#x2db;" horiz-adv-x="475" d="M243 0 C131 -24 81 -62 81 -122 C81 -135 84 -146 91 -153 C105 -170 139 -180 178 -180 C202 -180 220 -178 257 -171 L262 -150 C205 -145 184 -133 184 -102 C184 -66 213 -29 265 1 L243 0 Z " />
<glyph glyph-name="tilde" unicode="&#x2dc;" horiz-adv-x="475" d="M453 617 C436 602 422 595 409 595 C399 595 371 603 347 612 C308 628 290 632 268 632 C225 632 200 617 111 538 L124 523 C143 537 153 543 163 543 C169 543 190 536 212 525 C240 512 269 505 292 505 C335 505 383 526 421 560 C432 571 439 578 466 606 L453 617 Z " />
<glyph glyph-name="hungarumlaut" unicode="&#x2dd;" horiz-adv-x="475" d="M175 483 L196 484 L376 602 L381 625 L231 625 L175 483 Z M348 483 L370 484 L558 602 L563 625 L405 625 L348 483 Z " />
<glyph glyph-name="Wdieresis" unicode="&#x1e84;" horiz-adv-x="1113" d="M1184 667 L968 667 L963 644 C1014 640 1029 627 1029 583 C1029 551 1016 511 992 472 L843 230 L800 644 L852 644 L857 667 L472 667 L467 644 L513 644 L544 348 L456 214 L402 644 L448 644 L453 667 L71 667 L66 644 L115 644 L194 0 L344 0 L549 312 L581 0 L727 0 L1018 469 C1081 568 1128 619 1179 644 L1184 667 Z M823 886 C761 886 711 842 711 787 C711 750 744 724 790 724 C851 724 898 767 898 822 C898 862 869 886 823 886 L823 886 Z M564 887 C506 887 454 841 454 791 C454 752 486 725 531 725 C594 725 641 768 641 825 C641 862 610 887 564 887 L564 887 Z " />
<glyph glyph-name="uni2011" unicode="&#x2011;" horiz-adv-x="272" d="M233 151 L270 324 L-2 324 L-39 151 L233 151 Z " />
<glyph glyph-name="figuredash" unicode="&#x2012;" horiz-adv-x="633" d="M539 171 L567 304 L54 304 L26 171 L539 171 Z " />
<glyph glyph-name="endash" unicode="&#x2013;" horiz-adv-x="633" d="M539 171 L567 304 L54 304 L26 171 L539 171 Z " />
<glyph glyph-name="emdash" unicode="&#x2014;" horiz-adv-x="798" d="M-35 171 L763 171 L791 304 L-7 304 L-35 171 Z " />
<glyph glyph-name="afii00208" unicode="&#x2015;" horiz-adv-x="798" d="M-35 171 L763 171 L791 304 L-7 304 L-35 171 Z " />
<glyph glyph-name="quoteleft" unicode="&#x2018;" horiz-adv-x="304" d="M305 662 L311 687 C230 686 188 676 150 646 C106 612 78 557 78 506 C78 456 115 426 176 426 C246 426 306 473 306 528 C306 568 269 600 221 600 C186 600 153 589 123 568 C140 628 199 662 286 662 L305 662 Z " />
<glyph glyph-name="quoteright" unicode="&#x2019;" horiz-adv-x="304" d="M88 425 C169 426 210 437 249 466 C292 499 321 555 321 606 C321 656 284 686 223 686 C153 686 93 639 93 584 C93 544 130 513 178 513 C213 513 246 523 275 544 C259 486 200 450 121 450 C116 450 108 450 94 451 L88 425 Z " />
<glyph glyph-name="quotesinglbase" unicode="&#x201a;" horiz-adv-x="304" d="M-21 -87 C60 -86 101 -75 140 -46 C183 -13 212 43 212 94 C212 144 175 174 114 174 C44 174 -16 127 -16 72 C-16 32 21 1 69 1 C104 1 137 11 166 32 C146 -33 86 -63 -15 -61 L-21 -87 Z " />
<glyph glyph-name="quotedblleft" unicode="&#x201c;" horiz-adv-x="547" d="M305 662 L311 687 C230 686 188 676 150 646 C106 612 78 557 78 506 C78 456 115 426 176 426 C246 426 306 473 306 528 C306 568 269 600 221 600 C186 600 153 589 123 568 C140 628 199 662 286 662 L305 662 Z M547 662 L554 687 C473 686 431 675 393 646 C349 612 321 557 321 506 C321 456 358 426 419 426 C489 426 549 473 549 528 C549 568 512 600 465 600 C429 600 396 589 366 568 C383 628 442 662 529 662 L547 662 Z " />
<glyph glyph-name="quotedblright" unicode="&#x201d;" horiz-adv-x="547" d="M88 425 C169 426 210 437 249 466 C292 499 321 555 321 606 C321 656 284 686 223 686 C153 686 93 639 93 584 C93 544 130 513 178 513 C213 513 246 523 275 544 C259 486 200 450 121 450 C116 450 108 450 94 451 L88 425 Z M331 425 C412 426 453 437 492 466 C535 499 564 555 564 606 C564 656 527 686 466 686 C396 686 336 639 336 585 C336 544 374 513 424 513 C456 513 490 524 518 544 C502 486 443 450 364 450 C359 450 351 450 337 451 L331 425 Z " />
<glyph glyph-name="quotedblbase" unicode="&#x201e;" horiz-adv-x="547" d="M-21 -87 C60 -86 101 -75 140 -46 C183 -13 212 43 212 94 C212 144 175 174 114 174 C44 174 -16 127 -16 72 C-16 32 21 1 69 1 C104 1 137 11 166 32 C146 -33 86 -63 -15 -61 L-21 -87 Z M222 -87 C303 -86 344 -75 383 -46 C426 -12 455 43 455 94 C455 144 418 174 357 174 C287 174 227 128 227 73 C227 31 265 1 317 1 C347 1 381 12 409 32 C389 -33 330 -63 228 -61 L222 -87 Z " />
<glyph glyph-name="dagger" unicode="&#x2020;" horiz-adv-x="644" d="M483 573 C492 584 496 591 496 595 C496 601 490 608 484 608 C476 608 459 604 441 598 C439 598 435 596 431 595 C420 670 414 687 396 687 C379 687 359 661 324 595 C297 606 292 608 282 608 C271 608 261 598 261 588 C261 585 262 579 265 573 L271 559 C296 499 316 403 315 350 C273 361 194 413 163 450 L155 460 C149 466 143 470 137 470 C123 470 116 452 117 418 L117 395 C43 368 20 354 20 335 C20 320 38 307 94 284 C72 236 71 233 71 223 C71 214 75 209 82 209 C88 209 94 213 106 222 L120 233 C174 274 269 322 311 329 C256 154 195 17 114 -117 L104 -133 C97 -146 92 -157 92 -160 C92 -167 98 -173 104 -173 C114 -173 133 -168 156 -157 C158 -157 162 -155 166 -154 C178 -233 183 -247 200 -247 C213 -247 232 -222 272 -154 C313 -173 313 -173 324 -173 C334 -173 343 -164 343 -154 C343 -150 342 -141 340 -133 L337 -117 C325 -54 318 30 318 113 C318 184 322 247 332 329 C379 317 449 273 485 233 L494 222 C499 216 506 212 511 212 C524 212 530 225 530 249 L530 276 L530 284 C597 308 627 326 627 342 C627 357 614 367 554 395 C573 438 577 448 577 456 C577 464 573 469 566 469 C559 469 550 466 543 460 L526 445 C489 414 377 357 338 350 C357 401 413 489 471 559 L483 573 Z " />
<glyph glyph-name="daggerdbl" unicode="&#x2021;" horiz-adv-x="644" d="M483 573 C492 584 495 589 495 595 C495 602 490 608 483 608 C475 608 459 604 440 598 C439 597 435 596 431 595 C419 670 413 687 397 687 C383 687 362 662 332 608 C332 608 329 602 325 595 C299 604 284 608 278 608 C268 608 259 598 259 588 C259 585 261 578 263 573 L269 559 C294 499 315 405 315 349 C260 359 184 390 162 413 L148 425 C138 433 134 435 130 435 C118 435 110 424 110 409 C110 402 111 392 112 374 C38 355 22 348 22 336 C22 327 48 316 97 303 C83 274 78 262 78 257 C78 250 83 244 89 244 C92 244 92 244 110 254 L125 262 C160 287 236 314 310 328 L275 219 L264 112 C193 127 132 153 107 178 L96 186 C82 196 82 196 79 196 C67 196 60 185 60 169 C60 159 61 151 62 137 C-2 122 -28 111 -28 100 C-28 90 -13 83 47 66 C33 39 26 23 26 18 C26 10 31 5 38 5 C43 5 46 7 60 15 L80 27 C113 51 200 81 260 91 C238 38 179 -54 125 -119 L113 -133 C106 -141 101 -150 101 -156 C101 -161 108 -168 113 -168 C123 -168 137 -164 155 -158 C157 -157 161 -156 165 -155 C177 -230 183 -247 199 -247 C213 -247 234 -222 264 -168 C265 -166 268 -160 271 -155 C296 -164 312 -168 318 -168 C327 -168 337 -158 337 -148 C337 -145 335 -138 333 -133 L327 -119 C301 -57 281 35 281 91 C335 82 413 49 434 27 L448 15 C458 7 461 5 466 5 C478 5 486 16 486 32 C486 38 486 44 484 66 C558 85 574 92 574 104 C574 113 547 125 499 137 C512 164 518 178 518 183 C518 190 513 196 507 196 C504 196 504 196 486 186 L471 178 C436 153 359 126 286 112 L320 219 L331 328 C402 313 464 287 489 262 L500 254 C514 244 514 244 517 244 C529 244 536 254 536 271 C536 281 535 289 534 303 C599 318 624 329 624 340 C624 350 609 357 549 374 C562 402 569 418 569 422 C569 430 564 435 557 435 C553 435 550 434 535 425 L516 413 C483 390 395 359 336 349 C358 402 416 492 471 559 L483 573 Z " />
<glyph glyph-name="bullet" unicode="&#x2022;" horiz-adv-x="633" d="M349 480 C264 480 184 398 184 309 C184 246 227 200 287 200 C372 200 452 283 452 371 C452 434 409 480 349 480 L349 480 Z " />
<glyph glyph-name="ellipsis" unicode="&#x2026;" horiz-adv-x="897" d="M114 167 C45 167 -18 117 -18 64 C-18 19 22 -13 77 -13 C149 -13 207 32 207 89 C207 136 170 167 114 167 L114 167 Z M413 167 C344 167 281 117 281 64 C281 19 321 -13 376 -13 C448 -13 506 33 506 89 C506 135 468 167 413 167 L413 167 Z M712 167 C643 167 580 117 580 64 C580 19 620 -13 675 -13 C747 -13 805 32 805 89 C805 136 768 167 712 167 L712 167 Z " />
<glyph glyph-name="perthousand" unicode="&#x2030;" horiz-adv-x="1163" d="M266 678 C146 678 34 540 34 391 C34 292 85 230 166 230 C293 230 399 361 399 518 C399 614 346 678 266 678 L266 678 Z M226 618 C232 645 241 655 260 655 C274 655 282 649 281 637 C281 632 280 625 278 618 L208 289 C203 262 194 252 175 252 C160 252 154 257 154 269 C154 278 154 283 156 289 L226 618 Z M204 0 L608 667 L583 667 L179 0 L204 0 Z M613 437 C494 437 382 298 382 150 C382 51 433 -11 514 -11 C641 -11 747 120 747 277 C747 373 693 437 613 437 L613 437 Z M574 377 C579 404 589 414 608 414 C622 414 630 408 629 397 C629 391 628 385 626 377 L556 48 C550 21 542 11 523 11 C508 11 502 16 502 28 C502 37 502 42 504 48 L574 377 Z M998 437 C878 437 766 299 766 150 C766 50 817 -11 899 -11 C1027 -11 1133 120 1133 277 C1133 373 1079 437 998 437 L998 437 Z M958 377 C964 404 973 414 992 414 C1007 414 1015 408 1014 397 C1014 391 1013 384 1011 377 L941 48 C936 21 927 11 907 11 C892 11 886 16 886 29 C886 35 887 42 888 48 L958 377 Z " />
<glyph glyph-name="guilsinglleft" unicode="&#x2039;" horiz-adv-x="329" d="M238 55 L137 208 L303 361 L158 361 L-8 208 L93 55 L238 55 Z " />
<glyph glyph-name="guilsinglright" unicode="&#x203a;" horiz-adv-x="329" d="M37 361 L138 208 L-28 55 L117 55 L283 208 L182 361 L37 361 Z " />
<glyph glyph-name="uni203E" unicode="&#x203e;" horiz-adv-x="500" d="M110 847 L101 807 L601 807 L610 847 L110 847 Z " />
<glyph glyph-name="fraction" unicode="&#x2044;" horiz-adv-x="75" d="M-212 -13 L317 680 L289 680 L-240 -13 L-212 -13 Z " />
<glyph glyph-name="franc" unicode="&#x20a3;" horiz-adv-x="1022" d="M381 0 L386 23 L302 23 L365 318 C443 318 470 295 470 226 C470 207 469 193 464 169 L486 169 L557 501 L535 501 C515 395 458 340 370 341 L434 644 L478 644 C532 644 559 637 585 619 C627 588 648 544 648 485 C648 483 648 475 647 460 L669 460 L713 667 L93 667 L88 644 L162 644 L30 23 L-44 23 L-49 0 L381 0 Z M831 0 L835 20 L772 20 L814 216 C826 246 850 278 871 293 C864 278 862 267 862 252 C862 217 888 192 925 192 C983 192 1035 248 1035 311 C1035 351 1013 374 974 374 C928 374 886 345 825 271 L850 384 C817 376 774 371 728 371 L568 371 L564 351 L627 351 L557 20 L493 20 L489 0 L831 0 Z " />
<glyph glyph-name="Euro" unicode="&#x20ac;" horiz-adv-x="768" d="M85 343 C83 333 82 330 81 323 L40 323 L28 303 L78 303 C75 285 74 270 74 249 C74 83 177 -20 343 -20 C451 -20 532 19 629 117 L610 133 C532 50 457 10 382 10 C342 10 323 29 323 69 C323 80 325 97 330 117 L369 303 L510 303 L522 323 L373 323 L377 343 L534 343 L547 363 L382 363 L423 557 C439 632 460 657 507 657 C595 657 672 568 672 466 C672 450 671 437 666 411 L688 411 L746 687 L638 631 C593 672 555 687 489 687 C303 687 142 557 90 363 L49 363 L37 343 L85 343 Z " />
<glyph glyph-name="trademark" unicode="&#x2122;" horiz-adv-x="1008" d="M330 287 L335 307 L287 307 L359 646 C408 620 430 588 430 540 L430 531 L450 531 L479 667 L77 667 L48 531 L68 531 C94 588 127 620 190 645 L118 307 L69 307 L65 287 L330 287 Z M988 287 L993 307 L947 307 L1020 647 L1065 647 L1069 667 L864 667 L756 488 L721 667 L504 667 L500 647 L538 647 L544 627 L497 404 C485 346 451 302 420 307 L418 307 L414 287 L565 287 L569 307 L563 307 C529 307 516 322 516 361 C516 378 518 395 521 412 L559 591 L615 287 L657 287 L840 590 L779 307 L733 307 L729 287 L988 287 Z " />
<glyph glyph-name="uni2126" unicode="&#x2126;" horiz-adv-x="768" d="M326 0 L308 155 C230 199 180 288 180 383 C180 434 196 493 221 540 C257 605 316 642 385 642 C454 642 513 605 549 540 C575 493 590 435 590 381 C590 288 540 199 462 155 L444 0 L736 0 L736 153 L712 153 C704 108 684 90 643 90 L497 90 L500 128 C535 141 557 151 580 166 C657 215 702 296 702 382 C702 449 673 522 625 578 C564 648 480 686 385 686 C290 686 206 648 145 578 C97 522 68 448 68 382 C68 296 114 215 190 166 C213 151 234 141 270 128 L273 90 L127 90 C86 90 66 108 58 153 L34 153 L34 0 L326 0 Z " />
<glyph glyph-name="partialdiff" unicode="&#x2202;" horiz-adv-x="494" d="M107 673 C152 696 185 705 219 705 C321 705 379 610 379 447 C379 417 377 394 372 346 C308 396 272 412 221 412 C172 412 131 394 95 355 C51 309 26 246 26 184 C26 76 109 -10 213 -10 C282 -10 341 23 383 84 C429 151 462 286 462 402 C462 518 428 610 360 680 C312 729 259 752 194 752 C155 752 122 745 66 724 L107 673 Z M366 312 C350 200 340 158 314 106 C288 54 245 21 201 21 C147 21 113 74 113 159 C113 273 180 367 261 367 C299 367 324 354 366 312 L366 312 Z " />
<glyph glyph-name="Delta" unicode="&#x2206;" horiz-adv-x="612" d="M6 0 L608 0 L327 688 L6 0 Z M77 51 L290 509 L479 51 L77 51 Z " />
<glyph glyph-name="product" unicode="&#x220f;" horiz-adv-x="823" d="M25 -124 L315 -124 L315 -98 L312 -98 C242 -94 221 -67 224 18 L224 594 C224 656 228 677 242 690 C260 707 271 708 413 708 C557 708 567 707 586 690 C600 677 604 656 604 594 L604 18 C607 -67 586 -94 516 -98 L513 -98 L513 -124 L803 -124 L803 -98 L800 -98 C730 -94 709 -67 712 18 L712 609 C709 694 730 721 800 725 L803 725 L803 751 L25 751 L25 725 L28 725 C98 721 119 694 116 609 L116 18 C119 -67 98 -94 28 -98 L25 -98 L25 -124 Z " />
<glyph glyph-name="summation" unicode="&#x2211;" horiz-adv-x="713" d="M176 711 L444 711 C560 710 590 688 606 587 L632 587 L622 752 L23 752 L256 285 L14 -123 L641 -123 L695 87 L669 87 C639 7 605 -12 491 -11 L163 -11 L364 341 L176 711 Z " />
<glyph glyph-name="minus" unicode="&#x2212;" horiz-adv-x="633" d="M543 356 L99 356 L90 313 L534 313 L543 356 Z " />
<glyph glyph-name="uni2215" unicode="&#x2215;" horiz-adv-x="75" d="M-212 -13 L317 680 L289 680 L-240 -13 L-212 -13 Z " />
<glyph glyph-name="uni2219" unicode="&#x2219;" horiz-adv-x="299" d="M142 296 C73 296 10 246 10 193 C10 148 50 116 105 116 C177 116 235 161 235 218 C235 265 198 296 142 296 L142 296 Z " />
<glyph glyph-name="radical" unicode="&#x221a;" horiz-adv-x="549" d="M363 -35 L515 908 L480 913 L353 123 L156 520 L10 449 L26 414 L121 461 L363 -35 Z " />
<glyph glyph-name="infinity" unicode="&#x221e;" horiz-adv-x="713" d="M357 302 C300 375 234 414 171 414 C87 414 26 351 26 263 C26 176 84 115 167 115 C225 115 281 142 327 192 C334 200 340 206 357 227 C415 155 485 114 549 114 C631 114 688 176 688 265 C688 354 629 414 543 414 C476 414 413 376 357 302 L357 302 Z M391 264 C434 325 493 362 546 362 C600 362 638 321 638 264 C638 204 603 166 549 166 C496 166 460 188 391 264 L391 264 Z M324 266 C276 204 215 167 163 167 C111 167 76 208 76 266 C76 323 113 362 167 362 C218 362 257 338 324 266 L324 266 Z " />
<glyph glyph-name="integral" unicode="&#x222b;" horiz-adv-x="274" d="M180 576 C180 653 179 691 176 746 C174 774 173 800 173 815 C173 855 184 878 202 878 C208 878 213 876 215 872 C232 845 239 839 256 839 C276 839 291 853 291 871 C291 898 267 916 231 916 C186 916 152 887 138 838 C123 784 113 682 113 577 L113 232 C113 160 114 124 117 63 C119 34 120 4 120 -12 C120 -47 108 -70 89 -70 C81 -70 75 -65 68 -52 C59 -35 51 -30 37 -30 C17 -30 2 -44 2 -63 C2 -89 26 -107 62 -107 C107 -107 141 -79 155 -29 C170 25 180 126 180 232 L180 576 Z " />
<glyph glyph-name="approxequal" unicode="&#x2248;" horiz-adv-x="549" d="M489 251 C444 199 423 187 384 187 C365 187 354 190 285 211 C212 234 188 239 160 239 C101 239 54 212 14 155 L57 121 C103 174 120 184 159 184 C180 184 180 184 271 157 C350 133 354 132 385 132 C449 132 496 160 527 217 L489 251 Z M489 408 C443 356 423 344 384 344 C365 344 354 347 285 368 C212 391 188 396 160 396 C101 396 54 368 14 312 L57 278 C103 331 119 341 159 341 C180 341 180 341 271 314 C350 290 354 289 385 289 C449 289 496 317 527 374 L489 408 Z " />
<glyph glyph-name="notequal" unicode="&#x2260;" horiz-adv-x="549" d="M187 142 L115 -1 L161 -25 L246 142 L540 142 L540 197 L273 197 L344 336 L540 336 L540 391 L371 391 L439 525 L392 549 L312 391 L15 391 L15 336 L285 336 L215 197 L15 197 L15 142 L187 142 Z " />
<glyph glyph-name="lessequal" unicode="&#x2264;" horiz-adv-x="549" d="M467 55 L-30 55 L-42 0 L455 0 L467 55 Z M591 639 L44 405 L32 350 L480 117 L493 179 L117 378 L578 577 L591 639 Z " />
<glyph glyph-name="greaterequal" unicode="&#x2265;" horiz-adv-x="549" d="M467 55 L-30 55 L-42 0 L455 0 L467 55 Z M94 639 L81 577 L457 378 L-4 179 L-17 117 L529 350 L541 405 L94 639 Z " />
<glyph glyph-name="lozenge" unicode="&#x25ca;" horiz-adv-x="494" d="M209 0 L269 -1 L466 374 L277 740 L214 740 L18 377 L209 0 Z M240 58 L81 376 L245 683 L402 373 L240 58 Z " />
<glyph glyph-name="fi" unicode="&#xfb01;" horiz-adv-x="698" d="M626 20 L562 20 L649 426 C610 417 572 413 527 413 L318 413 C281 413 267 416 251 426 C223 445 205 480 205 520 C205 589 262 664 315 664 C319 664 322 663 326 660 C275 642 240 596 240 547 C240 508 267 484 310 484 C369 484 417 533 417 595 C417 648 378 683 320 683 C258 683 195 649 152 594 C126 561 111 527 101 477 L87 413 L24 413 L20 393 L83 393 L4 20 L-60 20 L-64 0 L275 0 L279 20 L219 20 L298 393 L426 393 L347 20 L295 20 L291 0 L621 0 L626 20 Z M593 674 C522 674 465 631 465 576 C465 534 499 509 555 509 C631 509 686 550 686 607 C686 647 648 674 593 674 L593 674 Z " />
<glyph glyph-name="fl" unicode="&#xfb02;" horiz-adv-x="698" d="M368 393 L372 413 L318 413 C281 413 267 416 251 426 C223 445 205 480 205 520 C205 589 262 664 315 664 C319 664 322 663 326 660 C275 642 240 596 240 547 C240 508 267 484 310 484 C369 484 417 533 417 595 C417 648 378 683 320 683 C258 683 195 649 152 594 C126 561 111 527 101 477 L87 413 L24 413 L20 393 L83 393 L4 20 L-60 20 L-64 0 L275 0 L279 20 L219 20 L298 393 L368 393 Z M621 0 L626 20 L562 20 L702 680 C675 671 641 667 603 667 L434 667 L430 647 L480 647 L347 20 L295 20 L291 0 L621 0 Z " />
</font>
</svg>
