<?xml version="1.0" encoding="UTF-8"?>
<svg xmlns="http://www.w3.org/2000/svg" xmlns:xlink="http://www.w3.org/1999/xlink" version="1.2" >
<font id="Futura Cond Book">
<font-face  font-family="Futura Cond" units-per-em="1000" ascent="731" descent="-269" font-style="normal" font-weight="400" font-stretch="normal" cap-height="667" x-height="450" underline-position="-65" underline-thickness="68" />
<missing-glyph  horiz-adv-x="186" d="" />
<glyph glyph-name="NULL" d="" />
<glyph glyph-name="CR" unicode="&#xd;" horiz-adv-x="250" d="" />
<glyph glyph-name="space" unicode="&#x20;" horiz-adv-x="186" d="" />
<glyph glyph-name="exclam" unicode="&#x21;" horiz-adv-x="242" d="M158 163 L158 667 L84 667 L84 163 L158 163 Z M121 91 C94 91 72 69 72 42 C72 15 94 -7 120 -7 C148 -7 170 15 170 42 C170 69 148 91 121 91 L121 91 Z " />
<glyph glyph-name="quotedbl" unicode="&#x22;" horiz-adv-x="324" d="M118 404 L134 667 L47 667 L63 404 L118 404 Z M262 404 L278 667 L190 667 L206 404 L262 404 Z " />
<glyph glyph-name="numbersign" unicode="&#x23;" horiz-adv-x="373" d="M339 282 L272 282 L286 398 L367 398 L366 463 L295 463 L321 667 L258 667 L232 463 L169 463 L195 667 L133 667 L108 463 L30 463 L30 398 L99 398 L84 282 L6 282 L6 217 L76 217 L48 0 L110 0 L138 217 L200 217 L173 0 L235 0 L263 217 L339 217 L339 282 Z M224 398 L209 282 L146 282 L161 398 L224 398 Z " />
<glyph glyph-name="dollar" unicode="&#x24;" horiz-adv-x="372" d="M205 732 L161 732 L161 664 C80 651 33 590 33 499 C33 410 67 360 169 301 C248 254 268 227 268 164 C268 102 233 61 181 61 C144 61 122 74 95 112 L40 74 C71 21 100 1 161 -7 L161 -78 L205 -78 L205 -6 C239 0 258 8 278 23 C317 54 340 110 340 175 C340 262 311 306 217 361 C129 413 104 444 104 503 C104 562 138 601 191 601 C224 601 250 586 272 555 L322 595 C297 637 258 660 205 664 L205 732 Z " />
<glyph glyph-name="percent" unicode="&#x25;" horiz-adv-x="508" d="M126 670 C66 670 36 614 36 500 C36 394 65 341 124 341 C143 341 160 347 174 360 C198 380 213 435 213 500 C213 620 188 670 126 670 L126 670 Z M127 626 C153 626 165 590 165 513 C165 458 157 405 146 394 C139 387 133 384 125 384 C99 384 85 424 85 501 C85 584 99 626 127 626 L127 626 Z M431 667 L386 667 L76 0 L122 0 L431 667 Z M388 321 C325 321 296 266 296 149 C296 47 326 -7 383 -7 C443 -7 472 48 472 163 C472 269 445 321 388 321 L388 321 Z M386 277 C412 277 424 241 424 165 C424 111 415 57 405 46 C399 39 392 36 385 36 C357 36 345 74 345 160 C345 236 359 277 386 277 L386 277 Z " />
<glyph glyph-name="ampersand" unicode="&#x26;" horiz-adv-x="449" d="M229 338 C312 416 338 460 338 520 C338 591 287 641 215 641 C141 641 84 586 84 513 C84 468 103 414 142 350 C72 283 46 231 46 165 C46 70 115 -7 202 -7 C244 -7 280 9 313 44 L339 0 L421 0 L365 96 C393 131 408 150 430 180 L381 224 C353 185 344 174 331 158 L229 338 Z M197 395 C162 461 153 485 153 511 C153 550 180 580 216 580 C249 580 272 555 272 520 C272 480 249 443 197 395 L197 395 Z M281 102 C255 73 233 61 204 61 C156 61 117 108 117 167 C117 207 135 244 176 288 L281 102 Z " />
<glyph glyph-name="quotesingle" unicode="&#x27;" horiz-adv-x="180" d="M118 404 L134 667 L47 667 L63 404 L118 404 Z " />
<glyph glyph-name="parenleft" unicode="&#x28;" horiz-adv-x="260" d="M151 741 C87 599 51 434 51 283 C51 144 93 -55 151 -187 L219 -164 C166 -24 126 164 126 272 C126 410 156 555 219 718 L151 741 Z " />
<glyph glyph-name="parenright" unicode="&#x29;" horiz-adv-x="260" d="M108 -187 C172 -45 208 119 208 270 C208 410 166 607 108 741 L40 718 C93 576 133 390 133 281 C133 145 103 -1 40 -165 L108 -187 Z " />
<glyph glyph-name="asterisk" unicode="&#x2a;" horiz-adv-x="373" d="M170 611 L56 649 L45 614 L160 579 L88 482 L118 461 L187 559 L256 461 L286 482 L214 579 L329 614 L318 649 L204 611 L205 731 L169 731 L170 611 Z " />
<glyph glyph-name="plus" unicode="&#x2b;" horiz-adv-x="373" d="M34 308 L154 308 L154 189 L220 189 L220 308 L340 308 L340 373 L220 373 L220 492 L154 492 L154 373 L34 373 L34 308 Z " />
<glyph glyph-name="comma" unicode="&#x2c;" horiz-adv-x="182" d="M141 63 L74 88 L10 -136 L54 -152 L141 63 Z " />
<glyph glyph-name="hyphen" unicode="&#x2d;" horiz-adv-x="148" d="M0 199 L148 199 L148 268 L0 268 L0 199 Z " />
<glyph glyph-name="period" unicode="&#x2e;" horiz-adv-x="182" d="M91 91 C64 91 42 69 42 43 C42 15 64 -7 91 -7 C118 -7 140 15 140 42 C140 69 118 91 91 91 L91 91 Z " />
<glyph glyph-name="slash" unicode="&#x2f;" horiz-adv-x="403" d="M430 731 L367 731 L-28 -178 L37 -178 L430 731 Z " />
<glyph glyph-name="zero" unicode="0" horiz-adv-x="372" d="M191 676 C86 676 36 562 36 324 C36 194 50 113 81 55 C102 16 144 -9 186 -9 C228 -9 273 18 291 55 C320 114 337 209 337 313 C337 486 324 566 288 623 C268 655 230 676 191 676 L191 676 Z M191 608 C241 608 261 531 261 343 C261 234 251 135 235 98 C224 72 208 59 187 59 C136 59 111 143 111 317 C111 444 127 554 150 585 C161 600 175 608 191 608 L191 608 Z " />
<glyph glyph-name="one" unicode="1" horiz-adv-x="373" d="M231 667 L88 667 L81 600 L157 600 L157 0 L231 0 L231 667 Z " />
<glyph glyph-name="two" unicode="2" horiz-adv-x="372" d="M321 68 L147 68 C186 146 186 146 245 259 C300 366 328 453 328 520 C328 620 277 676 186 676 C90 676 47 618 47 488 L47 467 L122 467 C121 481 121 492 121 500 C121 572 143 609 187 609 C226 609 251 576 251 523 C251 460 224 383 153 240 C113 160 81 93 38 0 L321 0 L321 68 Z " />
<glyph glyph-name="three" unicode="3" horiz-adv-x="372" d="M123 499 L123 514 C123 575 144 607 183 607 C225 607 246 572 246 505 C246 419 221 389 148 389 L129 389 L129 323 C142 324 147 324 155 324 C221 324 251 283 251 193 C251 104 228 61 180 61 C134 61 115 94 115 175 L42 175 L42 150 C42 103 57 54 78 29 C99 5 136 -9 181 -9 C279 -9 327 54 327 182 C327 284 303 334 244 356 C299 381 318 421 318 511 C318 558 312 591 297 617 C276 654 234 676 183 676 C125 676 89 653 70 603 C58 571 51 535 52 499 L123 499 Z " />
<glyph glyph-name="four" unicode="4" horiz-adv-x="372" d="M285 667 L213 667 L34 251 L34 181 L213 181 L213 0 L285 0 L285 181 L332 181 L332 244 L285 244 L285 667 Z M213 244 L98 244 L197 493 C208 519 211 528 217 550 C214 523 213 505 213 489 L213 244 Z " />
<glyph glyph-name="five" unicode="5" horiz-adv-x="373" d="M312 667 L107 667 L67 332 C92 343 121 350 145 350 C207 350 247 296 247 211 C247 120 210 63 150 63 C124 63 102 72 66 95 L46 24 C83 1 117 -9 156 -9 C260 -9 326 78 326 216 C326 338 266 415 169 415 C160 415 156 415 145 413 L168 599 L312 599 L312 667 Z " />
<glyph glyph-name="six" unicode="6" horiz-adv-x="372" d="M190 667 L140 546 C140 544 139 543 137 538 C131 526 128 519 127 518 C117 494 100 452 88 422 C58 343 46 280 46 202 C46 62 94 -9 189 -9 C239 -9 280 13 302 51 C319 82 327 126 327 189 C327 259 319 302 299 337 C278 374 246 394 208 394 C184 394 168 388 140 368 C180 466 184 476 258 638 L270 667 L190 667 Z M187 326 C234 326 254 284 254 188 C254 100 233 57 189 57 C143 57 120 105 120 198 C120 283 142 326 187 326 L187 326 Z " />
<glyph glyph-name="seven" unicode="7" horiz-adv-x="372" d="M52 667 L52 600 L241 600 L54 0 L134 0 L338 667 L52 667 Z " />
<glyph glyph-name="eight" unicode="8" horiz-adv-x="372" d="M251 365 C299 389 322 435 322 509 C322 620 278 676 190 676 C100 676 54 620 54 510 C54 435 76 390 126 365 C68 344 44 292 44 185 C44 58 93 -9 185 -9 C280 -9 328 58 328 191 C328 293 306 343 251 365 L251 365 Z M188 609 C227 609 248 572 248 501 C248 438 225 399 189 399 C150 399 128 438 128 508 C128 573 149 609 188 609 L188 609 Z M187 327 C233 327 254 282 254 186 C254 103 230 59 186 59 C140 59 118 103 118 191 C118 280 141 327 187 327 L187 327 Z " />
<glyph glyph-name="nine" unicode="9" horiz-adv-x="372" d="M180 0 L230 121 C231 123 232 125 234 128 C257 180 261 189 275 224 C313 323 326 382 326 464 C326 606 280 676 184 676 C135 676 94 654 72 616 C55 584 46 536 46 469 C46 340 87 271 165 271 C189 271 206 277 231 296 C195 210 192 203 114 31 L100 0 L180 0 Z M183 608 C227 608 252 560 252 474 C252 382 230 338 185 338 C138 338 118 381 118 481 C118 563 141 608 183 608 L183 608 Z " />
<glyph glyph-name="colon" unicode="&#x3a;" horiz-adv-x="182" d="M91 456 C64 456 42 434 42 408 C42 380 64 358 91 358 C118 358 140 380 140 407 C140 434 118 456 91 456 L91 456 Z M91 91 C64 91 42 69 42 43 C42 15 64 -7 91 -7 C118 -7 140 15 140 42 C140 69 118 91 91 91 L91 91 Z " />
<glyph glyph-name="semicolon" unicode="&#x3b;" horiz-adv-x="182" d="M93 456 C67 456 44 434 44 408 C44 380 66 358 93 358 C121 358 143 380 143 407 C143 434 121 456 93 456 L93 456 Z M141 63 L74 88 L10 -136 L54 -152 L141 63 Z " />
<glyph glyph-name="less" unicode="&#x3c;" horiz-adv-x="500" d="M466 572 L33 369 L33 305 L466 102 L466 175 L112 337 L466 498 L466 572 Z " />
<glyph glyph-name="equal" unicode="&#x3d;" horiz-adv-x="373" d="M34 360 L340 360 L340 425 L34 425 L34 360 Z M34 255 L340 255 L340 320 L34 320 L34 255 Z " />
<glyph glyph-name="greater" unicode="&#x3e;" horiz-adv-x="500" d="M34 102 L467 305 L467 368 L34 571 L34 499 L388 337 L34 175 L34 102 Z " />
<glyph glyph-name="question" unicode="&#x3f;" horiz-adv-x="330" d="M112 161 L181 161 L181 312 C259 316 285 361 285 496 C285 563 279 598 263 627 C246 658 211 675 166 675 C85 675 47 627 47 523 L47 499 L117 499 L117 520 C117 584 130 611 163 611 C199 611 213 579 213 491 C213 390 200 368 139 368 L112 368 L112 161 Z M147 91 C120 91 98 69 98 42 C98 16 120 -7 146 -7 C173 -7 196 15 196 42 C196 69 174 91 147 91 L147 91 Z " />
<glyph glyph-name="at" unicode="&#x40;" horiz-adv-x="658" d="M476 506 L415 506 L408 459 C381 501 364 514 331 514 C250 514 188 429 188 318 C188 217 239 141 307 141 C342 141 366 158 395 203 L397 196 C402 168 434 143 464 143 C550 143 622 252 622 382 C622 549 500 676 339 676 C164 676 29 527 29 334 C29 135 164 -9 351 -9 C422 -9 492 10 559 48 L532 108 C467 69 418 54 357 54 C288 54 232 74 188 114 C133 165 100 248 100 334 C100 492 204 613 340 613 C470 613 563 514 563 374 C563 285 520 202 473 202 C455 202 446 214 446 236 C446 247 447 265 449 281 L476 506 Z M335 452 C370 452 395 408 395 347 C395 270 355 202 311 202 C279 202 256 249 256 314 C256 393 290 452 335 452 L335 452 Z " />
<glyph glyph-name="A" unicode="A" horiz-adv-x="343" d="M139 667 L1 0 L77 0 L102 134 L239 134 L264 0 L341 0 L203 667 L139 667 Z M227 195 L113 195 L142 356 C157 440 165 495 170 560 C175 495 182 440 195 366 L227 195 Z " />
<glyph glyph-name="B" unicode="B" horiz-adv-x="358" d="M53 667 L53 0 L157 0 C272 0 321 55 321 184 C321 242 308 283 284 307 C269 322 256 329 225 341 C249 350 259 357 271 369 C295 396 308 438 308 494 C308 549 293 603 271 629 C250 654 212 667 162 667 L53 667 Z M126 604 L147 604 C211 604 233 575 233 489 C233 432 220 396 196 384 C179 375 166 373 126 373 L126 604 Z M126 309 L144 309 C212 309 243 270 243 185 C243 97 217 65 143 65 L126 65 L126 309 Z " />
<glyph glyph-name="C" unicode="C" horiz-adv-x="329" d="M308 656 C283 671 262 676 232 676 C102 676 38 558 38 321 C38 211 52 136 84 77 C112 24 168 -9 228 -9 C259 -9 281 -3 308 14 L308 87 C281 71 262 65 238 65 C158 65 117 154 117 330 C117 432 130 510 153 551 C172 583 205 604 237 604 C260 604 279 598 308 581 L308 656 Z " />
<glyph glyph-name="D" unicode="D" horiz-adv-x="391" d="M53 667 L53 0 L131 0 C300 0 353 78 353 325 C353 585 303 667 147 667 L53 667 Z M129 601 L148 601 C246 601 274 536 274 312 C274 170 257 109 210 82 C189 70 175 67 129 68 L129 601 Z " />
<glyph glyph-name="E" unicode="E" horiz-adv-x="311" d="M277 667 L53 667 L53 0 L277 0 L277 66 L129 66 L129 311 L266 311 L266 377 L129 377 L129 601 L277 601 L277 667 Z " />
<glyph glyph-name="F" unicode="F" horiz-adv-x="302" d="M279 667 L53 667 L53 0 L129 0 L129 311 L268 311 L268 377 L129 377 L129 601 L279 601 L279 667 Z " />
<glyph glyph-name="G" unicode="G" horiz-adv-x="393" d="M197 351 L197 285 L281 285 L281 238 C281 105 263 63 204 63 C178 63 155 76 146 95 C126 140 116 221 116 353 C116 534 141 606 205 606 C246 606 266 582 280 515 L352 545 C327 637 283 676 205 676 C149 676 104 650 78 605 C52 557 38 464 38 338 C38 202 52 111 81 59 C105 15 149 -9 204 -9 C270 -9 312 22 336 88 C349 127 355 184 355 284 L355 351 L197 351 Z " />
<glyph glyph-name="H" unicode="H" horiz-adv-x="400" d="M347 667 L271 667 L271 403 L129 403 L129 667 L53 667 L53 0 L129 0 L129 337 L271 337 L271 0 L347 0 L347 667 Z " />
<glyph glyph-name="I" unicode="I" horiz-adv-x="182" d="M129 667 L53 667 L53 0 L129 0 L129 667 Z " />
<glyph glyph-name="J" unicode="J" horiz-adv-x="241" d="M189 667 L113 667 L113 145 C113 81 100 60 60 60 C41 60 28 66 0 86 L0 8 C26 -4 46 -9 73 -9 C119 -9 156 8 173 38 C185 60 189 82 189 135 L189 667 Z " />
<glyph glyph-name="K" unicode="K" horiz-adv-x="351" d="M338 667 L258 667 L129 354 L129 667 L53 667 L53 0 L129 0 L129 340 L258 0 L344 0 L201 347 L338 667 Z " />
<glyph glyph-name="L" unicode="L" horiz-adv-x="278" d="M129 667 L53 667 L53 0 L275 0 L275 66 L129 66 L129 667 Z " />
<glyph glyph-name="M" unicode="M" horiz-adv-x="502" d="M409 667 L343 667 L278 304 L271 269 L263 214 L256 164 C256 162 255 155 254 145 C252 166 252 167 240 246 C238 259 234 278 230 302 L164 667 L99 667 L25 0 L98 0 L138 447 C140 465 140 466 141 507 C144 466 150 424 164 343 L226 0 L281 0 L346 362 C360 437 365 470 366 486 L367 500 L368 507 C369 499 369 497 369 478 C369 458 369 457 371 411 C374 344 374 344 375 330 L407 0 L480 0 L409 667 Z " />
<glyph glyph-name="N" unicode="N" horiz-adv-x="400" d="M347 667 L275 667 L275 325 C275 268 279 216 288 147 C273 208 260 256 242 307 L122 667 L53 667 L53 0 L124 0 L122 353 C120 420 116 494 112 524 L116 507 L122 485 L132 443 C134 432 143 402 154 370 L278 0 L347 0 L347 667 Z " />
<glyph glyph-name="O" unicode="O" horiz-adv-x="413" d="M206 676 C90 676 38 571 38 337 C38 97 90 -9 209 -9 C323 -9 375 94 375 321 C375 573 326 676 206 676 L206 676 Z M207 605 C273 605 296 533 296 328 C296 131 273 63 207 63 C141 63 117 139 117 342 C117 531 142 605 207 605 L207 605 Z " />
<glyph glyph-name="P" unicode="P" horiz-adv-x="340" d="M129 0 L129 308 L142 308 C194 308 228 314 253 328 C296 353 318 406 318 486 C318 568 296 623 252 647 C226 662 199 667 152 667 L53 667 L53 0 L129 0 Z M129 601 L144 601 C215 601 240 570 240 482 C240 431 227 396 203 384 C189 377 172 374 145 374 C143 374 136 374 129 375 L129 601 Z " />
<glyph glyph-name="Q" unicode="Q" horiz-adv-x="413" d="M332 63 C360 108 376 205 376 323 C376 572 326 676 206 676 C90 676 38 573 38 342 C38 97 90 -9 210 -9 C242 -9 264 -2 290 14 L332 -50 L385 -14 L332 63 Z M239 200 L188 163 L246 76 C233 66 224 63 208 63 C143 63 117 140 117 335 C117 534 141 605 207 605 C275 605 297 532 297 312 C297 241 293 196 281 138 L239 200 Z " />
<glyph glyph-name="R" unicode="R" horiz-adv-x="374" d="M134 327 L273 0 L354 0 L215 322 C244 327 258 332 274 345 C309 374 327 424 327 494 C327 569 303 623 259 647 C232 662 208 667 156 667 L55 667 L55 0 L134 0 L134 327 Z M134 602 L158 602 C187 602 208 596 221 585 C238 569 249 530 249 487 C249 450 239 412 226 396 C213 381 189 373 155 373 L134 373 L134 602 Z " />
<glyph glyph-name="S" unicode="S" horiz-adv-x="338" d="M282 647 C247 668 220 676 186 676 C93 676 31 607 31 503 C31 426 57 383 148 309 C222 250 239 223 239 169 C239 107 202 64 148 64 C115 64 88 77 51 109 L51 24 C80 2 114 -9 151 -9 C245 -9 314 69 314 175 C314 216 303 253 282 284 C268 306 249 324 196 368 C129 423 106 458 106 507 C106 565 143 606 195 606 C226 606 250 594 281 564 L282 647 Z " />
<glyph glyph-name="T" unicode="T" horiz-adv-x="277" d="M277 667 L0 667 L0 599 L102 599 L102 0 L177 0 L177 599 L277 599 L277 667 Z " />
<glyph glyph-name="U" unicode="U" horiz-adv-x="400" d="M347 667 L272 667 L272 194 C272 134 270 115 259 94 C250 76 227 64 201 64 C174 64 150 77 141 95 C131 116 128 137 128 200 L128 667 L53 667 L53 198 C53 120 59 82 74 54 C97 13 142 -9 201 -9 C261 -9 309 18 331 64 C343 90 347 122 347 192 L347 667 Z " />
<glyph glyph-name="V" unicode="V" horiz-adv-x="327" d="M327 667 L254 667 L192 322 C189 309 187 298 186 287 C182 261 179 235 175 208 C172 191 170 173 167 155 C167 152 166 143 165 128 C159 182 156 206 152 229 C146 271 145 278 142 301 C140 311 139 322 138 323 L76 667 L0 667 L132 0 L194 0 L327 667 Z " />
<glyph glyph-name="W" unicode="W" horiz-adv-x="515" d="M513 667 L439 667 L387 327 C374 242 369 201 365 146 C364 150 363 154 363 156 C363 158 362 169 360 185 C357 217 353 245 343 316 L289 667 L228 667 L168 315 C161 276 154 219 146 143 C140 211 134 264 129 302 L76 667 L1 667 L112 0 L176 0 L238 359 C245 404 251 460 257 526 C262 467 267 417 276 361 L332 0 L396 0 L513 667 Z " />
<glyph glyph-name="X" unicode="X" horiz-adv-x="325" d="M326 667 L248 667 L196 514 C179 463 173 442 166 405 C162 433 151 470 134 520 L81 667 L4 667 L128 339 L0 0 L81 0 L132 154 C156 228 160 242 163 266 C167 238 175 212 193 158 L248 0 L326 0 L201 339 L326 667 Z " />
<glyph glyph-name="Y" unicode="Y" horiz-adv-x="329" d="M329 667 L249 667 L202 496 C186 436 178 402 171 356 C163 401 156 426 139 482 L134 497 L81 667 L0 667 L134 290 L134 0 L210 0 L210 290 L329 667 Z " />
<glyph glyph-name="Z" unicode="Z" horiz-adv-x="306" d="M300 667 L31 667 L31 601 L204 601 L10 0 L286 0 L286 68 L107 68 L300 667 Z " />
<glyph glyph-name="bracketleft" unicode="&#x5b;" horiz-adv-x="290" d="M70 -178 L256 -178 L256 -116 L145 -116 L145 669 L256 669 L256 731 L70 731 L70 -178 Z " />
<glyph glyph-name="backslash" unicode="&#x5c;" horiz-adv-x="403" d="M-25 731 L369 -178 L433 -178 L38 731 L-25 731 Z " />
<glyph glyph-name="bracketright" unicode="&#x5d;" horiz-adv-x="290" d="M219 731 L33 731 L33 669 L144 669 L144 -116 L33 -116 L33 -178 L219 -178 L219 731 Z " />
<glyph glyph-name="asciicircum" unicode="&#x5e;" horiz-adv-x="500" d="M475 365 L298 669 L202 669 L25 365 L104 365 L249 611 L395 365 L475 365 Z " />
<glyph glyph-name="underscore" unicode="&#x5f;" horiz-adv-x="500" d="M0 -65 L0 -133 L500 -133 L500 -65 L0 -65 Z " />
<glyph glyph-name="grave" unicode="&#x60;" horiz-adv-x="500" d="M141 622 L237 510 L277 536 L196 662 L141 622 Z " />
<glyph glyph-name="a" unicode="a" horiz-adv-x="340" d="M291 450 L221 450 L221 409 C199 444 178 457 144 457 C110 457 78 439 63 410 C43 372 34 316 34 221 C34 126 51 47 76 21 C94 3 117 -7 142 -7 C177 -7 199 8 221 47 L221 0 L291 0 L291 450 Z M166 397 C209 397 225 351 225 229 C225 100 209 54 166 54 C121 54 106 99 106 232 C106 350 123 397 166 397 L166 397 Z " />
<glyph glyph-name="b" unicode="b" horiz-adv-x="337" d="M48 731 L48 0 L118 0 L118 46 C140 8 162 -7 197 -7 C219 -7 239 0 256 15 C287 41 305 115 305 218 C305 390 274 457 195 457 C161 457 141 444 118 409 L118 731 L48 731 Z M173 396 C216 396 233 349 233 231 C233 98 218 54 173 54 C131 54 114 99 114 212 C114 352 128 396 173 396 L173 396 Z " />
<glyph glyph-name="c" unicode="c" horiz-adv-x="250" d="M229 440 C207 452 189 457 167 457 C78 457 32 376 32 220 C32 75 80 -7 164 -7 C188 -7 206 -1 229 13 L229 87 C209 66 197 59 180 59 C133 59 107 119 107 228 C107 333 133 391 180 391 C199 391 213 384 229 365 L229 440 Z " />
<glyph glyph-name="d" unicode="d" horiz-adv-x="337" d="M289 731 L219 731 L219 409 C196 444 176 457 143 457 C108 457 77 439 61 410 C41 372 32 316 32 221 C32 126 49 47 74 21 C92 3 115 -7 140 -7 C175 -7 197 8 219 46 L219 0 L289 0 L289 731 Z M164 396 C207 396 223 350 223 228 C223 100 207 54 164 54 C119 54 104 99 104 232 C104 349 121 396 164 396 L164 396 Z " />
<glyph glyph-name="e" unicode="e" horiz-adv-x="321" d="M292 211 L292 235 C292 377 246 457 164 457 C137 457 111 448 90 429 C54 398 32 323 32 230 C32 71 76 -7 167 -7 C242 -7 283 47 288 152 L221 152 C218 86 201 55 166 55 C123 55 103 102 102 211 L292 211 Z M221 265 L102 265 C108 357 126 395 163 395 C198 395 216 359 220 281 L221 265 Z " />
<glyph glyph-name="f" unicode="f" horiz-adv-x="211" d="M205 450 L131 450 L131 593 C131 630 132 641 138 652 C143 661 156 668 169 668 C181 668 190 665 207 654 L207 728 C186 736 172 739 154 739 C89 739 61 701 61 612 L61 450 L15 450 L15 391 L61 391 L61 0 L131 0 L131 391 L205 391 L205 450 Z " />
<glyph glyph-name="g" unicode="g" horiz-adv-x="342" d="M293 450 L223 450 L223 408 C200 444 180 457 145 457 C69 457 34 385 34 228 C34 139 44 82 65 43 C80 15 113 -4 147 -4 C181 -4 204 10 223 43 L223 -18 C222 -75 221 -83 213 -100 C207 -114 189 -123 168 -123 C128 -123 111 -99 111 -42 L43 -42 C42 -49 42 -56 42 -59 C42 -138 88 -184 166 -184 C216 -184 258 -164 275 -132 C290 -104 293 -85 293 -21 L293 450 Z M164 397 C207 397 226 346 226 228 C226 99 212 57 169 57 C125 57 106 106 106 224 C106 347 123 397 164 397 L164 397 Z " />
<glyph glyph-name="h" unicode="h" horiz-adv-x="346" d="M118 731 L48 731 L48 0 L118 0 L118 297 C118 367 136 398 178 398 C195 398 210 390 218 376 C225 362 227 350 227 312 L227 0 L297 0 L297 326 C297 373 293 400 283 418 C269 442 240 457 208 457 C170 457 143 441 118 406 L118 731 Z " />
<glyph glyph-name="i" unicode="i" horiz-adv-x="167" d="M118 450 L48 450 L48 0 L118 0 L118 450 Z M82 633 C54 633 32 612 32 584 C32 557 54 535 81 535 C109 535 131 557 131 584 C131 611 109 633 82 633 L82 633 Z " />
<glyph glyph-name="j" unicode="j" horiz-adv-x="168" d="M120 450 L50 450 L50 -178 L120 -178 L120 450 Z M84 633 C56 633 34 611 34 584 C34 557 56 535 83 535 C111 535 133 557 133 584 C133 611 111 633 84 633 L84 633 Z " />
<glyph glyph-name="k" unicode="k" horiz-adv-x="330" d="M118 731 L48 731 L48 0 L118 0 L118 227 L247 0 L331 0 L184 249 L305 450 L227 450 L118 259 L118 731 Z " />
<glyph glyph-name="l" unicode="l" horiz-adv-x="167" d="M118 731 L48 731 L48 0 L118 0 L118 731 Z " />
<glyph glyph-name="m" unicode="m" horiz-adv-x="527" d="M478 0 L478 347 C478 385 470 415 456 429 C440 447 413 457 384 457 C342 457 315 440 290 399 C274 439 248 457 207 457 C170 457 144 441 118 404 L118 450 L48 450 L48 0 L118 0 L118 287 C118 330 121 353 129 367 C139 385 159 397 180 397 C215 397 228 374 228 314 L228 0 L299 0 L299 292 C299 337 301 353 310 370 C318 386 338 397 359 397 C394 397 408 374 408 315 L408 0 L478 0 Z " />
<glyph glyph-name="n" unicode="n" horiz-adv-x="346" d="M118 450 L48 450 L48 0 L118 0 L118 297 C118 367 136 398 178 398 C195 398 210 390 218 376 C225 362 227 350 227 312 L227 0 L297 0 L297 326 C297 371 293 399 282 417 C268 442 241 457 208 457 C170 457 143 442 118 406 L118 450 Z " />
<glyph glyph-name="o" unicode="o" horiz-adv-x="334" d="M168 457 C78 457 32 379 32 225 C32 70 77 -7 168 -7 C258 -7 302 68 302 220 C302 382 260 457 168 457 L168 457 Z M169 393 C212 393 230 341 230 222 C230 159 217 88 203 74 C193 63 182 58 169 58 C124 58 106 109 106 232 C106 342 126 393 169 393 L169 393 Z " />
<glyph glyph-name="p" unicode="p" horiz-adv-x="337" d="M48 450 L48 -178 L118 -178 L118 43 C141 6 162 -7 196 -7 C219 -7 240 1 257 16 C288 42 305 114 305 215 C305 387 273 457 196 457 C161 457 140 443 118 406 L118 450 L48 450 Z M173 397 C216 397 233 350 233 231 C233 99 218 54 173 54 C127 54 113 102 113 253 C113 351 132 397 173 397 L173 397 Z " />
<glyph glyph-name="q" unicode="q" horiz-adv-x="340" d="M291 450 L221 450 L221 406 C199 443 178 457 143 457 C65 457 34 387 34 214 C34 123 50 48 75 22 C93 3 117 -7 143 -7 C177 -7 198 6 221 43 L221 -178 L291 -178 L291 450 Z M166 397 C209 397 225 351 225 229 C225 100 209 54 166 54 C121 54 106 99 106 232 C106 350 123 397 166 397 L166 397 Z " />
<glyph glyph-name="r" unicode="r" horiz-adv-x="217" d="M48 450 L48 0 L118 0 L118 273 C118 314 121 333 131 349 C142 370 166 383 191 383 C194 383 200 383 205 382 L205 458 C168 457 141 437 118 392 L118 450 L48 450 Z " />
<glyph glyph-name="s" unicode="s" horiz-adv-x="255" d="M220 434 C194 451 172 458 143 458 C74 458 26 410 26 340 C26 291 46 260 111 206 C158 168 169 151 169 120 C169 82 144 57 108 57 C83 57 64 66 34 92 L34 19 C63 0 85 -7 114 -7 C185 -7 237 47 237 123 C237 176 220 204 156 255 C109 292 95 312 95 340 C95 371 118 394 149 394 C174 394 197 383 220 360 L220 434 Z " />
<glyph glyph-name="t" unicode="t" horiz-adv-x="199" d="M192 450 L132 450 L132 575 L62 575 L62 450 L15 450 L15 391 L62 391 L62 0 L132 0 L132 391 L192 391 L192 450 Z " />
<glyph glyph-name="u" unicode="u" horiz-adv-x="348" d="M48 450 L48 131 C48 39 90 -7 173 -7 C261 -7 299 39 299 145 L299 450 L229 450 L229 151 C229 83 215 59 174 59 C153 59 135 68 129 82 C120 101 119 110 118 169 L118 450 L48 450 Z " />
<glyph glyph-name="v" unicode="v" horiz-adv-x="290" d="M285 450 L215 450 L172 243 C164 200 156 151 147 97 C141 155 134 203 125 244 L79 450 L5 450 L117 0 L176 0 L285 450 Z " />
<glyph glyph-name="w" unicode="w" horiz-adv-x="447" d="M438 450 L368 450 L325 231 C319 201 313 161 307 105 C301 159 296 198 295 199 L289 231 L253 450 L194 450 L155 229 C146 181 144 163 137 105 C133 154 127 195 119 241 L81 450 L8 450 L108 0 L166 0 L208 242 C215 283 219 313 222 352 L223 340 L225 324 L228 297 C229 287 230 275 233 261 L237 238 L278 0 L336 0 L438 450 Z " />
<glyph glyph-name="x" unicode="x" horiz-adv-x="308" d="M292 450 L217 450 L179 357 C166 325 161 308 154 277 C149 302 143 321 131 352 L91 450 L10 450 L113 234 L5 0 L80 0 L125 111 C140 146 144 160 149 188 C151 172 158 153 176 107 L221 0 L303 0 L191 234 L292 450 Z " />
<glyph glyph-name="y" unicode="y" horiz-adv-x="310" d="M305 450 L233 450 L164 165 L161 155 C159 143 158 137 156 131 C154 122 154 121 153 112 C151 127 149 139 142 169 L81 450 L5 450 L119 25 L62 -173 L136 -173 L305 450 Z " />
<glyph glyph-name="z" unicode="z" horiz-adv-x="286" d="M259 64 L111 64 L278 450 L27 450 L27 387 L176 387 L9 0 L259 0 L259 64 Z " />
<glyph glyph-name="braceleft" unicode="&#x7b;" horiz-adv-x="271" d="M249 666 L249 731 C247 732 245 732 244 732 C243 733 241 733 238 733 L223 733 C136 730 101 689 99 590 L99 397 C99 349 85 326 48 317 C44 317 44 317 42 314 L42 243 C86 232 98 214 99 157 L99 -24 C99 -132 137 -179 224 -179 L249 -179 L249 -114 C239 -113 235 -113 229 -113 C181 -114 171 -98 171 -20 L171 160 C169 223 159 247 119 276 C157 300 169 326 171 391 L171 575 C171 651 182 667 233 666 L244 666 L249 666 Z " />
<glyph glyph-name="bar" unicode="&#x7c;" horiz-adv-x="500" d="M213 667 L213 -167 L286 -167 L286 667 L213 667 Z " />
<glyph glyph-name="braceright" unicode="&#x7d;" horiz-adv-x="271" d="M22 -112 L22 -177 C24 -178 26 -179 27 -179 L33 -179 L48 -179 C135 -176 170 -135 172 -36 L172 157 C172 205 186 227 223 236 C227 237 227 237 229 240 L229 311 C184 322 173 339 172 396 L172 578 C172 686 134 733 46 733 C40 733 28 733 22 732 L22 667 L27 667 L33 667 L42 667 C90 668 100 652 100 574 L100 394 C102 331 113 306 152 278 C114 254 102 228 100 163 L100 -22 C100 -99 91 -112 37 -112 L22 -112 Z " />
<glyph glyph-name="asciitilde" unicode="&#x7e;" horiz-adv-x="667" d="M138 581 C164 630 191 653 222 653 C240 653 264 647 289 636 C389 591 399 588 433 588 C461 588 497 603 520 623 C542 643 554 662 574 702 L528 729 C499 679 476 662 439 662 C417 662 389 671 342 693 C294 716 258 727 230 727 C171 727 135 696 93 610 L138 581 Z " />
<glyph glyph-name="uni00A0" unicode="&#xa0;" horiz-adv-x="186" d="" />
<glyph glyph-name="exclamdown" unicode="&#xa1;" horiz-adv-x="242" d="M158 325 L84 325 L84 -178 L158 -178 L158 325 Z M122 495 C94 495 72 473 72 446 C72 419 94 397 121 397 C148 397 170 419 170 446 C170 473 148 495 122 495 L122 495 Z " />
<glyph glyph-name="cent" unicode="&#xa2;" horiz-adv-x="372" d="M196 567 C161 556 146 545 128 518 C103 479 90 416 90 333 C90 260 101 204 122 167 C141 134 159 120 199 108 L199 35 L244 35 L244 108 C261 111 270 115 283 124 L283 196 C264 177 252 171 237 171 C190 171 164 231 164 341 C164 447 190 503 239 503 C255 503 266 498 283 482 L283 554 C269 561 261 564 242 567 L242 638 L196 638 L196 567 Z " />
<glyph glyph-name="sterling" unicode="&#xa3;" horiz-adv-x="373" d="M185 301 C184 304 182 307 182 308 C181 309 179 313 176 318 C141 383 117 457 117 503 C117 561 151 600 201 600 C250 600 277 566 278 504 L342 527 C337 613 284 666 201 666 C107 666 45 598 45 494 C45 442 61 389 97 322 C103 310 104 308 107 301 L42 301 L42 249 L129 249 C143 223 149 202 149 178 C149 152 142 129 127 103 C116 104 114 104 111 104 C76 104 43 75 28 31 L88 2 C95 25 108 37 123 37 C134 37 149 31 165 22 C211 -5 234 -14 260 -14 C304 -14 337 18 349 72 L287 92 C281 65 271 53 253 53 C240 53 221 61 196 78 C189 83 188 84 184 86 C202 114 215 159 215 191 C215 210 212 224 202 249 L283 249 L283 301 L185 301 Z " />
<glyph glyph-name="currency" unicode="&#xa4;" horiz-adv-x="667" d="M53 124 L95 81 L190 176 C241 141 284 126 335 126 C386 126 432 142 477 177 L573 81 L615 124 L520 220 C555 269 569 309 569 361 C569 412 554 453 519 503 L614 597 L571 640 L476 546 C428 581 386 596 333 596 C281 596 240 581 189 545 L94 640 L51 597 L147 502 C112 455 97 412 97 361 C97 309 114 262 148 218 L53 124 Z M336 528 C425 528 499 452 499 361 C499 269 425 194 333 194 C241 194 167 269 167 362 C167 454 242 528 336 528 L336 528 Z " />
<glyph glyph-name="yen" unicode="&#xa5;" horiz-adv-x="373" d="M267 421 L345 667 L266 667 L219 496 C218 493 218 493 200 418 C197 406 193 386 189 356 C181 398 175 423 156 482 L152 497 L98 667 L19 667 L106 421 L14 421 L14 373 L121 373 L138 314 L14 314 L14 266 L153 266 L153 0 L226 0 L226 266 L355 266 L355 314 L234 314 L252 373 L355 373 L355 421 L267 421 Z " />
<glyph glyph-name="brokenbar" unicode="&#xa6;" horiz-adv-x="500" d="M213 667 L213 334 L286 334 L286 667 L213 667 Z M213 153 L213 -167 L286 -167 L286 153 L213 153 Z " />
<glyph glyph-name="section" unicode="&#xa7;" horiz-adv-x="373" d="M319 598 C316 631 315 639 311 652 C293 706 245 741 189 741 C113 741 60 683 60 600 C60 540 81 501 137 456 C111 445 99 437 85 422 C58 393 41 340 41 281 C41 221 58 168 87 134 C101 117 116 107 162 83 C227 48 251 17 251 -34 C251 -87 225 -122 186 -122 C146 -122 126 -93 122 -28 L56 -28 C59 -67 66 -97 77 -115 C100 -157 140 -181 187 -181 C263 -181 316 -122 316 -37 C316 22 294 66 246 99 L243 101 L246 102 C302 124 332 185 332 278 C332 341 318 390 292 420 C276 437 257 451 207 482 C146 520 125 551 125 599 C125 647 152 682 189 682 C225 682 246 654 252 598 L319 598 Z M186 415 C240 415 267 366 267 267 C267 184 240 142 187 142 C135 142 106 190 106 276 C106 364 135 415 186 415 L186 415 Z " />
<glyph glyph-name="dieresis" unicode="&#xa8;" horiz-adv-x="500" d="M182 611 C156 611 135 590 135 564 C135 538 156 517 181 517 C208 517 229 538 229 564 C229 590 208 611 182 611 L182 611 Z M320 611 C294 611 273 590 273 564 C273 538 294 517 319 517 C346 517 367 538 367 564 C367 590 346 611 320 611 L320 611 Z " />
<glyph glyph-name="copyright" unicode="&#xa9;" horiz-adv-x="756" d="M384 679 C187 679 33 527 33 333 C33 143 188 -12 378 -12 C569 -12 723 143 723 334 C723 522 569 679 384 679 L384 679 Z M383 637 C543 637 677 499 677 334 C677 166 543 30 378 30 C214 30 79 166 79 333 C79 503 212 637 383 637 L383 637 Z M442 524 C424 534 406 539 386 539 C303 539 260 467 260 326 C260 195 303 128 386 128 C406 128 421 132 442 144 L442 202 C440 201 438 200 437 199 L429 195 C417 188 403 184 391 184 C346 184 323 237 323 338 C323 394 335 449 351 465 C363 478 377 484 393 484 C407 484 412 482 442 466 L442 524 Z " />
<glyph glyph-name="ordfeminine" unicode="&#xaa;" horiz-adv-x="254" d="M30 281 L223 281 L223 323 L30 323 L30 281 Z M203 667 L152 667 L152 653 L150 654 C149 655 149 655 147 656 C142 660 142 660 138 662 C128 668 117 671 110 671 C99 671 74 661 64 652 C44 634 34 588 34 509 C34 446 44 400 62 383 C77 370 91 363 105 363 C117 363 135 369 144 377 C147 379 149 381 150 381 L152 382 L152 367 L203 367 L203 667 Z M121 627 C147 627 155 597 155 504 C155 433 146 407 121 407 C96 407 87 440 87 530 C87 595 98 627 121 627 L121 627 Z " />
<glyph glyph-name="guillemotleft" unicode="&#xab;" horiz-adv-x="326" d="M292 405 L253 427 L142 235 L249 39 L287 61 L194 235 L292 405 Z M182 405 L143 427 L33 235 L139 39 L179 61 L84 235 L182 405 Z " />
<glyph glyph-name="logicalnot" unicode="&#xac;" horiz-adv-x="500" d="M393 0 L466 0 L466 266 L33 266 L33 198 L393 198 L393 0 Z " />
<glyph glyph-name="uni00AD" unicode="&#xad;" horiz-adv-x="148" d="M0 199 L148 199 L148 268 L0 268 L0 199 Z " />
<glyph glyph-name="registered" unicode="&#xae;" horiz-adv-x="756" d="M384 679 C187 679 33 527 33 333 C33 143 188 -12 378 -12 C569 -12 723 143 723 334 C723 522 569 679 384 679 L384 679 Z M383 637 C543 637 677 499 677 334 C677 166 543 30 378 30 C214 30 79 166 79 333 C79 503 212 637 383 637 L383 637 Z M344 297 L416 133 L479 133 L396 321 C437 330 459 367 459 425 C459 470 444 504 418 520 C400 530 384 533 351 533 L283 533 L283 133 L344 133 L344 297 Z M344 482 L350 482 C387 482 399 467 399 421 C399 379 386 363 353 363 L344 363 L344 482 Z " />
<glyph glyph-name="macron" unicode="&#xaf;" horiz-adv-x="500" d="M143 533 L356 533 L356 591 L143 591 L143 533 Z " />
<glyph glyph-name="degree" unicode="&#xb0;" horiz-adv-x="373" d="M189 677 C103 677 35 612 35 528 C35 446 103 380 187 380 C271 380 339 446 339 529 C339 610 271 677 189 677 L189 677 Z M189 621 C237 621 278 579 278 529 C278 478 237 437 187 437 C136 437 96 478 96 530 C96 581 137 621 189 621 L189 621 Z " />
<glyph glyph-name="plusminus" unicode="&#xb1;" horiz-adv-x="373" d="M34 308 L154 308 L154 189 L220 189 L220 308 L340 308 L340 373 L220 373 L220 492 L154 492 L154 373 L34 373 L34 308 Z M34 91 L340 91 L340 156 L34 156 L34 91 Z " />
<glyph glyph-name="twosuperior" unicode="&#xb2;" horiz-adv-x="253" d="M214 313 L107 313 C130 357 130 357 166 421 C201 484 219 537 219 577 C219 637 185 672 127 672 C65 672 36 636 36 558 L36 543 L89 543 L89 564 C89 606 101 626 127 626 C150 626 165 608 165 579 C165 542 148 498 103 413 C94 396 68 345 28 267 L214 267 L214 313 Z " />
<glyph glyph-name="threesuperior" unicode="&#xb3;" horiz-adv-x="253" d="M91 562 C91 609 100 625 125 625 C149 625 161 606 161 569 C161 537 153 516 139 509 C127 504 121 503 88 503 L88 457 C97 458 101 458 107 458 C147 458 164 435 164 383 C164 332 151 308 123 308 C98 308 85 327 85 363 C85 364 85 371 86 376 L34 376 C33 370 33 362 33 359 C33 295 64 261 123 261 C187 261 218 299 218 379 C218 436 206 463 172 480 C202 497 213 521 213 574 C213 640 183 673 124 673 C68 673 39 635 40 562 L91 562 Z " />
<glyph glyph-name="acute" unicode="&#xb4;" horiz-adv-x="500" d="M223 536 L263 510 L359 622 L304 662 L223 536 Z " />
<glyph glyph-name="mu" unicode="&#xb5;" horiz-adv-x="348" d="M118 -175 L111 13 C135 -2 151 -7 180 -7 C211 -7 241 3 261 21 C286 42 299 85 299 145 L299 450 L229 450 L229 169 L229 151 C229 83 215 59 174 59 C134 59 119 83 118 143 L118 159 L118 166 L118 450 L48 450 L48 -175 L118 -175 Z " />
<glyph glyph-name="paragraph" unicode="&#xb6;" horiz-adv-x="373" d="M118 -99 L186 -99 L186 600 L246 600 L246 -99 L314 -99 L314 600 L353 600 L360 667 L141 667 C103 667 70 656 49 637 C21 610 2 554 2 496 C2 401 43 338 105 338 L118 338 L118 -99 Z " />
<glyph glyph-name="periodcentered" unicode="&#xb7;" horiz-adv-x="182" d="M91 284 C64 284 42 262 42 236 C42 208 64 186 91 186 C118 186 140 208 140 235 C140 262 118 284 91 284 L91 284 Z " />
<glyph glyph-name="cedilla" unicode="&#xb8;" horiz-adv-x="500" d="M318 -68 L266 -41 L202 -171 L238 -192 L318 -68 Z " />
<glyph glyph-name="onesuperior" unicode="&#xb9;" horiz-adv-x="253" d="M163 667 L67 667 L62 621 L110 621 L110 267 L163 267 L163 667 Z " />
<glyph glyph-name="ordmasculine" unicode="&#xba;" horiz-adv-x="254" d="M30 281 L223 281 L223 323 L30 323 L30 281 Z M128 672 C68 672 36 617 36 516 C36 464 50 408 69 388 C84 372 105 363 128 363 C187 363 217 414 217 514 C217 621 188 672 128 672 L128 672 Z M127 623 C151 623 164 586 164 516 C164 451 150 412 127 412 C103 412 89 449 89 517 C89 585 103 623 127 623 L127 623 Z " />
<glyph glyph-name="guillemotright" unicode="&#xbb;" horiz-adv-x="326" d="M33 405 L131 235 L38 61 L76 39 L183 235 L72 427 L33 405 Z M143 405 L241 235 L146 61 L186 39 L292 235 L182 427 L143 405 Z " />
<glyph glyph-name="onequarter" unicode="&#xbc;" horiz-adv-x="626" d="M163 667 L67 667 L62 621 L110 621 L110 267 L163 267 L163 667 Z M492 667 L444 667 L135 0 L183 0 L492 667 Z M566 400 L515 400 L401 152 L401 107 L514 107 L514 0 L566 0 L566 107 L595 107 L595 150 L566 150 L566 400 Z M514 150 L450 150 L507 285 L510 293 C511 295 513 299 515 305 C514 294 514 289 514 283 L514 150 Z " />
<glyph glyph-name="onehalf" unicode="&#xbd;" horiz-adv-x="626" d="M163 667 L67 667 L62 621 L110 621 L110 267 L163 267 L163 667 Z M492 667 L444 667 L135 0 L183 0 L492 667 Z M588 46 L481 46 C504 90 504 90 540 154 C575 218 593 270 593 311 C593 370 559 405 501 405 C439 405 410 369 410 291 L410 276 L463 276 L463 297 C463 339 475 359 501 359 C525 359 539 341 539 312 C539 275 523 231 477 146 C464 122 439 72 402 0 L588 0 L588 46 Z " />
<glyph glyph-name="threequarters" unicode="&#xbe;" horiz-adv-x="626" d="M91 562 L91 570 L91 572 C91 608 102 625 125 625 C149 625 161 606 161 569 C161 537 153 516 139 509 C127 504 121 503 88 503 L88 457 C97 458 101 458 107 458 C147 458 164 435 164 383 C164 332 151 308 123 308 C98 308 85 327 85 363 C85 364 85 371 86 376 L34 376 C33 370 33 362 33 359 C33 295 64 261 123 261 C187 261 218 299 218 379 C218 436 206 463 172 480 C202 497 213 521 213 574 C213 640 183 673 124 673 C68 673 39 635 40 562 L91 562 Z M492 667 L444 667 L134 0 L182 0 L492 667 Z M566 400 L515 400 L401 152 L401 107 L514 107 L514 0 L566 0 L566 107 L594 107 L594 150 L566 150 L566 400 Z M514 150 L450 150 L507 285 L510 293 C511 295 513 299 515 305 C514 294 514 289 514 283 L514 150 Z " />
<glyph glyph-name="questiondown" unicode="&#xbf;" horiz-adv-x="330" d="M219 327 L150 327 L150 176 C72 172 47 127 47 -7 C47 -74 53 -110 69 -139 C86 -169 120 -186 165 -186 C246 -186 284 -138 284 -34 L284 -11 L214 -11 L214 -32 C214 -96 201 -123 168 -123 C133 -123 118 -90 118 -10 C118 98 130 120 191 120 L219 120 L219 327 Z M185 495 C157 495 135 473 135 446 C135 419 157 397 184 397 C211 397 233 419 233 446 C233 473 211 495 185 495 L185 495 Z " />
<glyph glyph-name="Agrave" unicode="&#xc0;" horiz-adv-x="343" d="M139 667 L1 0 L77 0 L102 134 L239 134 L264 0 L341 0 L203 667 L139 667 Z M227 195 L113 195 L142 356 C157 440 165 495 170 560 C175 495 182 440 195 366 L227 195 Z M115 856 L66 810 L172 720 L206 752 L115 856 Z " />
<glyph glyph-name="Aacute" unicode="&#xc1;" horiz-adv-x="343" d="M139 667 L1 0 L77 0 L102 134 L239 134 L264 0 L341 0 L203 667 L139 667 Z M227 195 L113 195 L142 356 C157 440 165 495 170 560 C175 495 182 440 195 366 L227 195 Z M226 856 L135 752 L169 720 L275 810 L226 856 Z " />
<glyph glyph-name="Acircumflex" unicode="&#xc2;" horiz-adv-x="343" d="M139 667 L1 0 L77 0 L102 134 L239 134 L264 0 L341 0 L203 667 L139 667 Z M227 195 L113 195 L142 356 C157 440 165 495 170 560 C175 495 182 440 195 366 L227 195 Z M171 862 L60 760 L97 720 L171 786 L244 720 L283 762 L171 862 Z " />
<glyph glyph-name="Atilde" unicode="&#xc3;" horiz-adv-x="343" d="M139 667 L1 0 L77 0 L102 134 L239 134 L264 0 L341 0 L203 667 L139 667 Z M227 195 L113 195 L142 356 C157 440 165 495 170 560 C175 495 182 440 195 366 L227 195 Z M232 812 C232 797 227 788 217 788 C211 788 199 792 187 798 C162 810 135 818 122 818 C87 818 63 786 59 734 L113 734 L113 737 C113 749 120 759 129 759 C136 759 148 755 160 748 C185 735 205 729 221 729 C259 729 284 761 286 812 L232 812 Z " />
<glyph glyph-name="Adieresis" unicode="&#xc4;" horiz-adv-x="343" d="M139 667 L1 0 L77 0 L102 134 L239 134 L264 0 L341 0 L203 667 L139 667 Z M227 195 L113 195 L142 356 C157 440 165 495 170 560 C175 495 182 440 195 366 L227 195 Z M98 822 C72 822 51 801 51 775 C51 750 72 729 97 729 C123 729 144 749 144 775 C144 801 124 822 98 822 L98 822 Z M244 822 C219 822 198 801 198 775 C198 750 219 729 244 729 C270 729 291 749 291 776 C291 801 270 822 244 822 L244 822 Z " />
<glyph glyph-name="Aring" unicode="&#xc5;" horiz-adv-x="343" d="M139 667 L1 0 L77 0 L102 134 L239 134 L264 0 L341 0 L203 667 L139 667 Z M227 195 L113 195 L142 356 C157 440 165 495 170 560 C175 495 182 440 195 366 L227 195 Z M171 868 C130 868 96 834 96 793 C96 752 130 718 170 718 C212 718 246 751 246 792 C246 835 213 868 171 868 L171 868 Z M171 825 C189 825 203 811 203 793 C203 775 189 761 171 761 C154 761 139 776 139 793 C139 811 153 825 171 825 L171 825 Z " />
<glyph glyph-name="AE" unicode="&#xc6;" horiz-adv-x="487" d="M359 667 L137 667 L1 0 L78 0 L102 134 L246 134 L271 0 L490 0 L477 66 L336 66 L286 311 L420 311 L406 377 L273 377 L228 601 L372 601 L359 667 Z M236 194 L113 194 L147 381 C165 479 171 517 175 568 C181 507 188 458 196 412 L236 194 Z " />
<glyph glyph-name="Ccedilla" unicode="&#xc7;" horiz-adv-x="329" d="M246 -69 L191 -41 L126 -177 L166 -198 L246 -69 Z M308 656 C283 671 262 676 232 676 C102 676 38 558 38 321 C38 211 52 136 84 77 C112 24 168 -9 228 -9 C259 -9 281 -3 308 14 L308 87 C281 71 262 65 238 65 C158 65 117 154 117 330 C117 432 130 510 153 551 C172 583 205 604 237 604 C260 604 279 598 308 581 L308 656 Z " />
<glyph glyph-name="Egrave" unicode="&#xc8;" horiz-adv-x="311" d="M277 667 L53 667 L53 0 L277 0 L277 66 L129 66 L129 311 L266 311 L266 377 L129 377 L129 601 L277 601 L277 667 Z M129 856 L80 810 L186 720 L220 752 L129 856 Z " />
<glyph glyph-name="Eacute" unicode="&#xc9;" horiz-adv-x="311" d="M277 667 L53 667 L53 0 L277 0 L277 66 L129 66 L129 311 L266 311 L266 377 L129 377 L129 601 L277 601 L277 667 Z M212 856 L120 752 L154 720 L260 810 L212 856 Z " />
<glyph glyph-name="Ecircumflex" unicode="&#xca;" horiz-adv-x="311" d="M273 667 L49 667 L49 0 L273 0 L273 66 L125 66 L125 311 L262 311 L262 377 L125 377 L125 601 L273 601 L273 667 Z M160 862 L49 760 L86 720 L160 786 L234 720 L272 762 L160 862 Z " />
<glyph glyph-name="Edieresis" unicode="&#xcb;" horiz-adv-x="311" d="M277 667 L53 667 L53 0 L277 0 L277 66 L129 66 L129 311 L266 311 L266 377 L129 377 L129 601 L277 601 L277 667 Z M92 822 C66 822 45 801 45 775 C45 750 66 729 91 729 C117 729 138 750 138 776 C138 801 117 822 92 822 L92 822 Z M239 822 C213 822 192 801 192 775 C192 750 213 729 238 729 C264 729 285 750 285 776 C285 801 264 822 239 822 L239 822 Z " />
<glyph glyph-name="Igrave" unicode="&#xcc;" horiz-adv-x="182" d="M129 667 L53 667 L53 0 L129 0 L129 667 Z M40 856 L-9 810 L94 720 L128 752 L40 856 Z " />
<glyph glyph-name="Iacute" unicode="&#xcd;" horiz-adv-x="182" d="M126 667 L50 667 L50 0 L126 0 L126 667 Z M140 856 L52 752 L86 720 L188 810 L140 856 Z " />
<glyph glyph-name="Icircumflex" unicode="&#xce;" horiz-adv-x="182" d="M129 667 L53 667 L53 0 L129 0 L129 667 Z M90 862 L-17 760 L20 720 L90 786 L161 720 L200 762 L90 862 Z " />
<glyph glyph-name="Idieresis" unicode="&#xcf;" horiz-adv-x="182" d="M129 667 L53 667 L53 0 L129 0 L129 667 Z M29 822 C3 822 -18 801 -18 775 C-18 750 3 729 28 729 C54 729 75 750 75 776 C75 801 54 822 29 822 L29 822 Z M154 822 C129 822 108 801 108 775 C108 750 129 729 154 729 C180 729 201 749 201 776 C201 801 180 822 154 822 L154 822 Z " />
<glyph glyph-name="Eth" unicode="&#xd0;" horiz-adv-x="391" d="M53 667 L53 385 L5 385 L5 325 L53 325 L53 0 L131 0 C301 0 354 77 354 324 C354 585 304 667 147 667 L53 667 Z M129 601 L148 601 C247 601 275 536 275 311 C275 170 258 109 211 82 C189 70 176 67 129 67 L129 325 L218 325 L218 385 L129 385 L129 601 Z " />
<glyph glyph-name="Ntilde" unicode="&#xd1;" horiz-adv-x="400" d="M347 667 L275 667 L275 325 C275 268 279 216 288 147 C273 208 260 256 242 307 L122 667 L53 667 L53 0 L124 0 L122 353 C120 420 116 494 112 524 L116 507 L122 485 L132 443 C134 432 143 402 154 370 L278 0 L347 0 L347 667 Z M261 812 L261 809 C262 798 255 788 246 788 C239 788 227 792 215 798 C190 810 163 818 150 818 C115 818 91 786 87 734 L141 734 L141 737 C141 750 148 759 157 759 C164 759 176 755 189 748 C213 735 233 729 249 729 C288 729 312 760 315 812 L261 812 Z " />
<glyph glyph-name="Ograve" unicode="&#xd2;" horiz-adv-x="413" d="M205 676 C90 676 38 571 38 337 C38 97 90 -9 209 -9 C323 -9 375 94 375 322 C375 574 326 676 205 676 L205 676 Z M207 605 C273 605 296 533 296 328 C296 131 273 63 207 63 C141 63 117 139 117 342 C117 531 142 605 207 605 L207 605 Z M159 856 L110 810 L216 720 L250 752 L159 856 Z " />
<glyph glyph-name="Oacute" unicode="&#xd3;" horiz-adv-x="413" d="M205 676 C90 676 38 571 38 337 C38 97 90 -9 209 -9 C323 -9 375 94 375 322 C375 574 326 676 205 676 L205 676 Z M207 605 C273 605 296 533 296 328 C296 131 273 63 207 63 C141 63 117 139 117 342 C117 531 142 605 207 605 L207 605 Z M257 856 L165 752 L199 720 L305 810 L257 856 Z " />
<glyph glyph-name="Ocircumflex" unicode="&#xd4;" horiz-adv-x="413" d="M205 676 C90 676 38 571 38 337 C38 97 90 -9 209 -9 C323 -9 375 94 375 322 C375 574 326 676 205 676 L205 676 Z M207 605 C273 605 296 533 296 328 C296 131 273 63 207 63 C141 63 117 139 117 342 C117 531 142 605 207 605 L207 605 Z M206 862 L96 760 L132 720 L206 786 L280 720 L319 762 L206 862 Z " />
<glyph glyph-name="Otilde" unicode="&#xd5;" horiz-adv-x="413" d="M205 676 C90 676 38 571 38 337 C38 97 90 -9 209 -9 C323 -9 375 94 375 322 C375 574 326 676 205 676 L205 676 Z M207 605 C273 605 296 533 296 328 C296 131 273 63 207 63 C141 63 117 139 117 342 C117 531 142 605 207 605 L207 605 Z M272 812 L272 809 C273 798 266 788 257 788 C250 788 238 792 226 798 C201 810 175 818 161 818 C126 818 103 786 99 734 L152 734 L152 737 C152 749 159 759 168 759 C175 759 187 755 200 748 C224 735 244 729 260 729 C299 729 323 760 326 812 L272 812 Z " />
<glyph glyph-name="Odieresis" unicode="&#xd6;" horiz-adv-x="413" d="M205 676 C90 676 38 571 38 337 C38 97 90 -9 209 -9 C323 -9 375 94 375 322 C375 574 326 676 205 676 L205 676 Z M207 605 C273 605 296 533 296 328 C296 131 273 63 207 63 C141 63 117 139 117 342 C117 531 142 605 207 605 L207 605 Z M134 822 C108 822 87 801 87 775 C87 750 108 729 133 729 C159 729 180 749 180 775 C180 801 160 822 134 822 L134 822 Z M281 822 C255 822 234 801 234 775 C234 750 255 729 280 729 C306 729 327 749 327 776 C327 801 306 822 281 822 L281 822 Z " />
<glyph glyph-name="multiply" unicode="&#xd7;" horiz-adv-x="373" d="M51 432 L141 342 L51 252 L96 207 L186 297 L276 207 L322 253 L232 343 L322 433 L277 478 L187 388 L97 478 L51 432 Z " />
<glyph glyph-name="Oslash" unicode="&#xd8;" horiz-adv-x="420" d="M398 656 L353 679 L324 620 C296 658 259 676 210 676 C94 676 41 573 41 348 C41 241 50 160 69 106 L20 7 L65 -16 L96 49 C122 12 165 -9 214 -9 C264 -9 308 16 332 58 C365 115 379 196 379 329 C379 426 370 507 352 562 L398 656 Z M294 461 C299 400 300 370 300 326 C300 130 277 63 211 63 C179 63 156 82 142 120 L294 461 Z M127 205 C121 250 119 286 119 343 C119 534 144 605 210 605 C245 605 266 587 279 547 L127 205 Z " />
<glyph glyph-name="Ugrave" unicode="&#xd9;" horiz-adv-x="400" d="M347 667 L272 667 L272 194 C272 134 270 115 259 94 C250 76 227 64 201 64 C174 64 150 77 141 95 C131 116 128 137 128 200 L128 667 L53 667 L53 198 C53 120 59 82 74 54 C97 13 142 -9 201 -9 C261 -9 309 18 331 64 C343 90 347 122 347 192 L347 667 Z M152 856 L103 810 L209 720 L244 752 L152 856 Z " />
<glyph glyph-name="Uacute" unicode="&#xda;" horiz-adv-x="400" d="M347 667 L272 667 L272 194 C272 134 270 115 259 94 C250 76 227 64 201 64 C174 64 150 77 141 95 C131 116 128 137 128 200 L128 667 L53 667 L53 198 C53 120 59 82 74 54 C97 13 142 -9 201 -9 C261 -9 309 18 331 64 C343 90 347 122 347 192 L347 667 Z M255 856 L163 752 L197 720 L304 810 L255 856 Z " />
<glyph glyph-name="Ucircumflex" unicode="&#xdb;" horiz-adv-x="400" d="M347 667 L272 667 L272 194 C272 134 270 115 259 94 C250 76 227 64 201 64 C174 64 150 77 141 95 C131 116 128 137 128 200 L128 667 L53 667 L53 198 C53 120 59 82 74 54 C97 13 142 -9 201 -9 C261 -9 309 18 331 64 C343 90 347 122 347 192 L347 667 Z M199 862 L89 760 L125 720 L199 786 L273 720 L312 762 L199 862 Z " />
<glyph glyph-name="Udieresis" unicode="&#xdc;" horiz-adv-x="400" d="M347 667 L272 667 L272 194 C272 134 270 115 259 94 C250 76 227 64 201 64 C174 64 150 77 141 95 C131 116 128 137 128 200 L128 667 L53 667 L53 198 C53 120 59 82 74 54 C97 13 142 -9 201 -9 C261 -9 309 18 331 64 C343 90 347 122 347 192 L347 667 Z M127 822 C101 822 80 801 80 775 C80 750 101 729 126 729 C152 729 173 749 173 775 C173 801 153 822 127 822 L127 822 Z M273 822 C248 822 227 801 227 775 C227 750 248 729 273 729 C299 729 320 749 320 775 C320 801 300 822 273 822 L273 822 Z " />
<glyph glyph-name="Yacute" unicode="&#xdd;" horiz-adv-x="329" d="M329 667 L249 667 L202 496 C186 436 178 402 171 356 C163 399 155 432 134 497 L81 667 L0 667 L134 290 L134 0 L210 0 L210 290 L329 667 Z M223 856 L132 752 L166 720 L272 810 L223 856 Z " />
<glyph glyph-name="Thorn" unicode="&#xde;" horiz-adv-x="340" d="M129 0 L129 203 L142 203 C194 203 228 209 253 223 C296 248 318 301 318 381 C318 463 296 518 252 542 C226 557 199 562 152 562 L129 562 L129 667 L53 667 L53 0 L129 0 Z M129 496 L146 496 C215 496 240 464 240 377 C240 326 227 291 203 279 C189 272 172 269 145 269 L129 269 L129 496 Z " />
<glyph glyph-name="germandbls" unicode="&#xdf;" horiz-adv-x="352" d="M52 0 L122 0 L122 569 C122 647 138 677 178 677 C218 677 237 644 237 575 C237 506 218 480 170 480 C169 480 163 480 159 481 L159 414 L168 414 C229 414 246 376 246 236 C246 102 231 66 175 66 C173 66 167 66 163 67 L163 0 C173 -1 185 -1 189 -1 C288 -1 321 57 321 232 C321 381 306 426 245 448 C289 467 309 509 309 584 C309 692 267 744 178 744 C128 744 92 726 73 692 C57 662 52 635 52 575 L52 531 L26 531 L26 501 L52 501 L52 0 Z " />
<glyph glyph-name="agrave" unicode="&#xe0;" horiz-adv-x="340" d="M291 450 L221 450 L221 409 C199 444 178 457 144 457 C110 457 78 439 63 410 C43 372 34 316 34 221 C34 126 51 47 76 21 C94 3 117 -7 142 -7 C177 -7 199 8 221 47 L221 0 L291 0 L291 450 Z M166 397 C209 397 225 351 225 229 C225 100 209 54 166 54 C121 54 106 99 106 232 C106 350 123 397 166 397 L166 397 Z M86 622 L182 510 L222 536 L140 662 L86 622 Z " />
<glyph glyph-name="aacute" unicode="&#xe1;" horiz-adv-x="340" d="M291 450 L221 450 L221 409 C199 444 178 457 144 457 C110 457 78 439 63 410 C43 372 34 316 34 221 C34 126 51 47 76 21 C94 3 117 -7 142 -7 C177 -7 199 8 221 47 L221 0 L291 0 L291 450 Z M166 397 C209 397 225 351 225 229 C225 100 209 54 166 54 C121 54 106 99 106 232 C106 350 123 397 166 397 L166 397 Z M132 536 L172 510 L268 622 L214 662 L132 536 Z " />
<glyph glyph-name="acircumflex" unicode="&#xe2;" horiz-adv-x="340" d="M291 450 L221 450 L221 409 C199 444 178 457 144 457 C110 457 78 439 63 410 C43 372 34 316 34 221 C34 126 51 47 76 21 C94 3 117 -7 142 -7 C177 -7 199 8 221 47 L221 0 L291 0 L291 450 Z M166 397 C209 397 225 351 225 229 C225 100 209 54 166 54 C121 54 106 99 106 232 C106 350 123 397 166 397 L166 397 Z M174 662 L64 547 L106 510 L174 582 L244 510 L284 547 L174 662 Z " />
<glyph glyph-name="atilde" unicode="&#xe3;" horiz-adv-x="340" d="M291 450 L221 450 L221 409 C199 444 178 457 144 457 C110 457 78 439 63 410 C43 372 34 316 34 221 C34 126 51 47 76 21 C94 3 117 -7 142 -7 C177 -7 199 8 221 47 L221 0 L291 0 L291 450 Z M166 397 C209 397 225 351 225 229 C225 100 209 54 166 54 C121 54 106 99 106 232 C106 350 123 397 166 397 L166 397 Z M236 603 C236 588 229 578 220 578 C213 578 203 581 193 586 C162 602 146 607 130 607 C90 607 68 580 62 525 L116 525 L116 528 C116 540 124 550 133 550 C139 550 148 547 157 543 C191 526 206 521 225 521 C263 521 284 548 289 603 L236 603 Z " />
<glyph glyph-name="adieresis" unicode="&#xe4;" horiz-adv-x="340" d="M291 450 L221 450 L221 409 C199 444 178 457 144 457 C110 457 78 439 63 410 C43 372 34 316 34 221 C34 126 51 47 76 21 C94 3 117 -7 142 -7 C177 -7 199 8 221 47 L221 0 L291 0 L291 450 Z M166 397 C209 397 225 351 225 229 C225 100 209 54 166 54 C121 54 106 99 106 232 C106 350 123 397 166 397 L166 397 Z M105 611 C79 611 58 590 58 564 C58 538 79 517 104 517 C131 517 152 538 152 564 C152 590 131 611 105 611 L105 611 Z M242 611 C216 611 195 590 195 564 C195 538 216 517 241 517 C268 517 289 538 289 564 C289 590 268 611 242 611 L242 611 Z " />
<glyph glyph-name="aring" unicode="&#xe5;" horiz-adv-x="340" d="M291 450 L221 450 L221 409 C199 444 178 457 144 457 C110 457 78 439 63 410 C43 372 34 316 34 221 C34 126 51 47 76 21 C94 3 117 -7 142 -7 C177 -7 199 8 221 47 L221 0 L291 0 L291 450 Z M166 397 C209 397 225 351 225 229 C225 100 209 54 166 54 C121 54 106 99 106 232 C106 350 123 397 166 397 L166 397 Z M174 655 C133 655 100 622 100 581 C100 540 133 506 173 506 C215 506 248 539 248 580 C248 622 215 655 174 655 L174 655 Z M174 614 C192 614 207 599 207 580 C207 562 192 547 173 547 C156 547 141 562 141 581 C141 599 156 614 174 614 L174 614 Z " />
<glyph glyph-name="ae" unicode="&#xe6;" horiz-adv-x="509" d="M477 212 C478 221 478 233 478 236 C478 375 430 457 350 457 C307 457 274 434 253 390 C227 439 197 457 144 457 C112 457 87 450 56 433 L56 360 C90 382 110 390 136 390 C189 390 216 357 218 292 L218 281 C218 281 219 271 219 262 C201 284 175 295 143 295 C73 295 32 239 32 143 C32 48 74 -7 145 -7 C194 -7 228 17 249 66 C270 17 303 -7 350 -7 C426 -7 469 50 474 155 L408 155 L408 143 C408 89 386 54 353 54 C308 54 287 103 285 212 L477 212 Z M287 266 L287 277 C287 308 295 346 307 371 C315 387 331 397 347 397 C383 397 408 349 408 281 C408 279 408 271 407 266 L287 266 Z M161 239 C201 239 223 205 223 144 C223 88 199 53 161 53 C122 53 101 86 101 148 C101 208 122 239 161 239 L161 239 Z " />
<glyph glyph-name="ccedilla" unicode="&#xe7;" horiz-adv-x="250" d="M229 440 C207 452 189 457 167 457 C78 457 32 376 32 220 C32 75 80 -7 164 -7 C188 -7 206 -1 229 13 L229 87 C209 66 197 59 180 59 C133 59 107 119 107 228 C107 333 133 391 180 391 C199 391 213 384 229 365 L229 440 Z M190 -68 L138 -41 L75 -171 L111 -192 L190 -68 Z " />
<glyph glyph-name="egrave" unicode="&#xe8;" horiz-adv-x="321" d="M292 211 L292 235 C292 377 246 457 164 457 C137 457 111 448 90 429 C54 398 32 323 32 230 C32 71 76 -7 167 -7 C242 -7 283 47 288 152 L221 152 C218 86 201 55 166 55 C123 55 103 102 102 211 L292 211 Z M221 265 L102 265 C108 357 126 395 163 395 C198 395 216 359 220 281 L221 265 Z M73 622 L169 510 L209 536 L127 662 L73 622 Z " />
<glyph glyph-name="eacute" unicode="&#xe9;" horiz-adv-x="321" d="M292 211 L292 235 C292 377 246 457 164 457 C137 457 111 448 90 429 C54 398 32 323 32 230 C32 71 76 -7 167 -7 C242 -7 283 47 288 152 L221 152 C218 86 201 55 166 55 C123 55 103 102 102 211 L292 211 Z M221 265 L102 265 C108 357 126 395 163 395 C198 395 216 359 220 281 L221 265 Z M123 536 L163 510 L259 622 L205 662 L123 536 Z " />
<glyph glyph-name="ecircumflex" unicode="&#xea;" horiz-adv-x="321" d="M292 211 L292 235 C292 377 246 457 164 457 C137 457 111 448 90 429 C54 398 32 323 32 230 C32 71 76 -7 167 -7 C242 -7 283 47 288 152 L221 152 C218 86 201 55 166 55 C123 55 103 102 102 211 L292 211 Z M221 265 L102 265 C108 357 126 395 163 395 C198 395 216 359 220 281 L221 265 Z M164 662 L54 547 L96 510 L163 582 L234 510 L273 547 L164 662 Z " />
<glyph glyph-name="edieresis" unicode="&#xeb;" horiz-adv-x="321" d="M292 211 L292 235 C292 377 246 457 164 457 C137 457 111 448 90 429 C54 398 32 323 32 230 C32 71 76 -7 167 -7 C242 -7 283 47 288 152 L221 152 C218 86 201 55 166 55 C123 55 103 102 102 211 L292 211 Z M221 265 L102 265 C108 357 126 395 163 395 C198 395 216 359 220 281 L221 265 Z M95 611 C69 611 48 590 48 564 C48 538 69 517 94 517 C121 517 142 538 142 564 C142 590 121 611 95 611 L95 611 Z M233 611 C207 611 186 590 186 564 C186 538 207 517 232 517 C259 517 280 538 280 564 C280 590 259 611 233 611 L233 611 Z " />
<glyph glyph-name="igrave" unicode="&#xec;" horiz-adv-x="167" d="M119 450 L49 450 L49 0 L119 0 L119 450 Z M-14 622 L79 510 L119 536 L41 662 L-14 622 Z " />
<glyph glyph-name="iacute" unicode="&#xed;" horiz-adv-x="167" d="M114 450 L44 450 L44 0 L114 0 L114 450 Z M45 536 L85 510 L177 622 L123 662 L45 536 Z " />
<glyph glyph-name="icircumflex" unicode="&#xee;" horiz-adv-x="167" d="M118 450 L48 450 L48 0 L118 0 L118 450 Z M84 662 L-23 547 L19 510 L83 582 L150 510 L190 547 L84 662 Z " />
<glyph glyph-name="idieresis" unicode="&#xef;" horiz-adv-x="167" d="M119 450 L49 450 L49 0 L119 0 L119 450 Z M23 607 C-2 607 -22 587 -22 562 C-22 538 -2 517 22 517 C48 517 68 537 68 562 C68 587 48 607 23 607 L23 607 Z M144 607 C119 607 99 587 99 562 C99 538 119 517 143 517 C169 517 189 537 189 562 C189 587 169 607 144 607 L144 607 Z " />
<glyph glyph-name="eth" unicode="&#xf0;" horiz-adv-x="334" d="M173 669 C147 693 123 709 79 732 L51 690 C72 677 79 673 88 667 C104 657 108 654 127 637 L57 589 L85 548 L156 596 C185 556 203 505 213 438 C200 451 187 456 165 456 C78 456 32 376 32 227 C32 70 77 -7 169 -7 C212 -7 248 13 269 50 C293 91 303 143 303 232 C303 433 276 547 208 631 L272 673 L243 717 L173 669 Z M169 392 C212 392 231 340 231 222 C231 109 212 57 169 57 C125 57 106 108 106 231 C106 341 126 392 169 392 L169 392 Z " />
<glyph glyph-name="ntilde" unicode="&#xf1;" horiz-adv-x="346" d="M118 450 L48 450 L48 0 L118 0 L118 297 C118 367 136 398 178 398 C195 398 210 390 218 376 C225 362 227 350 227 312 L227 0 L297 0 L297 326 C297 371 293 399 282 417 C268 442 241 457 208 457 C170 457 143 442 118 406 L118 450 Z M233 603 L233 600 C234 589 226 578 217 578 C210 578 200 581 190 586 C160 602 143 607 127 607 C87 607 65 580 59 525 L113 525 L113 528 C113 540 121 550 130 550 C136 550 145 547 154 543 C188 526 203 521 222 521 C260 521 281 548 286 603 L233 603 Z " />
<glyph glyph-name="ograve" unicode="&#xf2;" horiz-adv-x="334" d="M168 457 C78 457 32 379 32 225 C32 70 77 -7 168 -7 C258 -7 302 68 302 220 C302 382 260 457 168 457 L168 457 Z M169 393 C212 393 230 341 230 222 C230 159 217 88 203 74 C193 63 182 58 169 58 C124 58 106 109 106 232 C106 342 126 393 169 393 L169 393 Z M78 622 L174 510 L214 536 L133 662 L78 622 Z " />
<glyph glyph-name="oacute" unicode="&#xf3;" horiz-adv-x="334" d="M168 457 C78 457 32 379 32 225 C32 70 77 -7 168 -7 C258 -7 302 68 302 220 C302 382 260 457 168 457 L168 457 Z M169 393 C212 393 230 341 230 222 C230 159 217 88 203 74 C193 63 182 58 169 58 C124 58 106 109 106 232 C106 342 126 393 169 393 L169 393 Z M129 536 L169 510 L266 622 L211 662 L129 536 Z " />
<glyph glyph-name="ocircumflex" unicode="&#xf4;" horiz-adv-x="334" d="M168 457 C78 457 32 379 32 225 C32 70 77 -7 168 -7 C258 -7 302 68 302 220 C302 382 260 457 168 457 L168 457 Z M169 393 C212 393 230 341 230 222 C230 159 217 88 203 74 C193 63 182 58 169 58 C124 58 106 109 106 232 C106 342 126 393 169 393 L169 393 Z M168 662 L58 547 L100 510 L167 582 L238 510 L277 547 L168 662 Z " />
<glyph glyph-name="otilde" unicode="&#xf5;" horiz-adv-x="334" d="M168 457 C78 457 32 379 32 225 C32 70 77 -7 168 -7 C258 -7 302 68 302 220 C302 382 260 457 168 457 L168 457 Z M169 393 C212 393 230 341 230 222 C230 159 217 88 203 74 C193 63 182 58 169 58 C124 58 106 109 106 232 C106 342 126 393 169 393 L169 393 Z M231 603 C231 588 224 578 215 578 C208 578 198 581 188 586 C157 602 141 607 125 607 C85 607 63 580 57 525 L111 525 C111 539 118 550 128 550 C134 550 143 547 152 543 C186 526 200 521 220 521 C258 521 279 548 284 603 L231 603 Z " />
<glyph glyph-name="odieresis" unicode="&#xf6;" horiz-adv-x="334" d="M168 457 C78 457 32 379 32 225 C32 70 77 -7 168 -7 C258 -7 302 68 302 220 C302 382 260 457 168 457 L168 457 Z M169 393 C212 393 230 341 230 222 C230 159 217 88 203 74 C193 63 182 58 169 58 C124 58 106 109 106 232 C106 342 126 393 169 393 L169 393 Z M99 611 C73 611 52 590 52 564 C52 538 73 517 98 517 C125 517 146 538 146 564 C146 590 125 611 99 611 L99 611 Z M236 611 C210 611 189 590 189 564 C189 538 210 517 235 517 C262 517 283 538 283 564 C283 590 262 611 236 611 L236 611 Z " />
<glyph glyph-name="divide" unicode="&#xf7;" horiz-adv-x="373" d="M34 308 L340 308 L340 373 L34 373 L34 308 Z M187 266 C161 266 140 245 140 219 C140 193 161 171 187 171 C213 171 234 192 234 219 C234 245 213 266 187 266 L187 266 Z M187 509 C161 509 140 488 140 463 C140 436 161 415 187 415 C213 415 234 436 234 462 C234 488 213 509 187 509 L187 509 Z " />
<glyph glyph-name="oslash" unicode="&#xf8;" horiz-adv-x="340" d="M325 439 L287 462 L260 417 C233 446 209 457 172 457 C81 457 35 381 35 229 C35 171 41 128 55 79 L16 13 L53 -11 L81 34 C105 6 133 -7 172 -7 C263 -7 306 66 306 220 C306 286 300 334 286 370 L325 439 Z M229 288 C232 261 233 231 233 207 C233 104 214 55 173 55 C151 55 134 69 125 94 L229 288 Z M112 162 C110 201 109 235 109 251 C109 343 131 393 170 393 C192 393 208 380 216 356 L112 162 Z " />
<glyph glyph-name="ugrave" unicode="&#xf9;" horiz-adv-x="348" d="M48 450 L48 131 C48 39 90 -7 173 -7 C261 -7 299 39 299 145 L299 450 L229 450 L229 151 C229 83 215 59 174 59 C153 59 135 68 129 82 C120 101 119 110 118 169 L118 450 L48 450 Z M83 622 L179 510 L219 536 L138 662 L83 622 Z " />
<glyph glyph-name="uacute" unicode="&#xfa;" horiz-adv-x="348" d="M48 450 L48 131 C48 39 90 -7 173 -7 C261 -7 299 39 299 145 L299 450 L229 450 L229 151 C229 83 215 59 174 59 C153 59 135 68 129 82 C120 101 119 110 118 169 L118 450 L48 450 Z M136 536 L176 510 L272 622 L217 662 L136 536 Z " />
<glyph glyph-name="ucircumflex" unicode="&#xfb;" horiz-adv-x="348" d="M48 450 L48 131 C48 39 90 -7 173 -7 C261 -7 299 39 299 145 L299 450 L229 450 L229 151 C229 83 215 59 174 59 C153 59 135 68 129 82 C120 101 119 110 118 169 L118 450 L48 450 Z M174 662 L64 547 L106 510 L174 582 L244 510 L284 547 L174 662 Z " />
<glyph glyph-name="udieresis" unicode="&#xfc;" horiz-adv-x="348" d="M48 450 L48 131 C48 39 90 -7 173 -7 C261 -7 299 39 299 145 L299 450 L229 450 L229 151 C229 83 215 59 174 59 C153 59 135 68 129 82 C120 101 119 110 118 169 L118 450 L48 450 Z M105 611 C79 611 58 590 58 564 C58 538 79 517 104 517 C131 517 152 538 152 564 C152 590 131 611 105 611 L105 611 Z M243 611 C217 611 196 590 196 564 C196 538 217 517 242 517 C269 517 290 538 290 564 C290 590 269 611 243 611 L243 611 Z " />
<glyph glyph-name="yacute" unicode="&#xfd;" horiz-adv-x="310" d="M305 450 L233 450 L164 165 L161 155 C159 143 158 137 156 131 C154 122 154 121 153 112 C151 127 149 139 142 169 L81 450 L5 450 L119 25 L62 -173 L136 -173 L305 450 Z M125 536 L165 510 L261 622 L206 662 L125 536 Z " />
<glyph glyph-name="thorn" unicode="&#xfe;" horiz-adv-x="337" d="M48 731 L48 -178 L118 -178 L118 43 C141 6 162 -7 196 -7 C219 -7 240 1 257 16 C288 42 305 114 305 215 C305 386 273 457 196 457 C161 457 140 443 118 406 L118 731 L48 731 Z M173 396 C216 396 233 349 233 231 C233 98 218 54 173 54 C127 54 113 102 113 253 C113 350 132 396 173 396 L173 396 Z " />
<glyph glyph-name="ydieresis" unicode="&#xff;" horiz-adv-x="310" d="M305 450 L233 450 L164 165 L161 155 C159 143 158 137 156 131 C154 122 154 121 153 112 C151 127 149 139 142 169 L81 450 L5 450 L119 25 L62 -173 L136 -173 L305 450 Z M86 611 C60 611 39 590 39 564 C39 538 60 517 85 517 C112 517 133 538 133 564 C133 590 112 611 86 611 L86 611 Z M224 611 C198 611 177 590 177 564 C177 538 198 517 223 517 C250 517 271 538 271 564 C271 590 250 611 224 611 L224 611 Z " />
<glyph glyph-name="Amacron" unicode="&#x100;" horiz-adv-x="343" d="M139 667 L1 0 L77 0 L102 134 L239 134 L264 0 L341 0 L203 667 L139 667 Z M227 195 L113 195 L142 356 C157 440 165 495 170 560 C175 495 182 440 195 366 L227 195 Z M61 738 L281 738 L281 796 L61 796 L61 738 Z " />
<glyph glyph-name="amacron" unicode="&#x101;" horiz-adv-x="340" d="M291 450 L221 450 L221 409 C199 444 178 457 144 457 C110 457 78 439 63 410 C43 372 34 316 34 221 C34 126 51 47 76 21 C94 3 117 -7 142 -7 C177 -7 199 8 221 47 L221 0 L291 0 L291 450 Z M166 397 C209 397 225 351 225 229 C225 100 209 54 166 54 C121 54 106 99 106 232 C106 350 123 397 166 397 L166 397 Z M67 533 L280 533 L280 591 L67 591 L67 533 Z " />
<glyph glyph-name="Abreve" unicode="&#x102;" horiz-adv-x="343" d="M139 667 L1 0 L77 0 L102 134 L239 134 L264 0 L341 0 L203 667 L139 667 Z M227 195 L113 195 L142 356 C157 440 165 495 170 560 C175 495 182 440 195 366 L227 195 Z M230 836 C222 796 204 778 171 778 C138 778 120 796 113 836 L58 836 C64 764 105 723 172 723 C241 723 279 761 285 836 L230 836 Z " />
<glyph glyph-name="abreve" unicode="&#x103;" horiz-adv-x="340" d="M291 450 L221 450 L221 409 C199 444 178 457 144 457 C110 457 78 439 63 410 C43 372 34 316 34 221 C34 126 51 47 76 21 C94 3 117 -7 142 -7 C177 -7 199 8 221 47 L221 0 L291 0 L291 450 Z M166 397 C209 397 225 351 225 229 C225 100 209 54 166 54 C121 54 106 99 106 232 C106 350 123 397 166 397 L166 397 Z M227 630 C221 587 204 567 172 567 C142 567 124 588 119 630 L65 630 C72 553 110 513 175 513 C240 513 276 553 281 630 L227 630 Z " />
<glyph glyph-name="Aogonek" unicode="&#x104;" horiz-adv-x="343" d="M203 667 L139 667 L1 0 L77 0 L102 134 L239 134 L264 0 L294 0 C260 -34 247 -57 247 -85 C247 -127 279 -153 330 -153 C346 -153 357 -151 375 -144 L375 -95 C360 -101 349 -103 334 -103 C311 -103 298 -92 298 -73 C298 -51 313 -26 341 0 L203 667 Z M227 195 L113 195 L142 356 C157 440 165 495 170 560 C175 495 182 440 195 366 L227 195 Z " />
<glyph glyph-name="aogonek" unicode="&#x105;" horiz-adv-x="340" d="M291 450 L221 450 L221 409 C199 444 178 457 144 457 C110 457 78 439 63 410 C43 372 34 316 34 221 C34 126 51 47 76 21 C94 3 117 -7 142 -7 C177 -7 199 8 221 47 L221 0 L244 0 C209 -35 196 -57 196 -85 C196 -127 228 -153 279 -153 C295 -153 306 -151 324 -144 L324 -95 C309 -101 298 -103 284 -103 C261 -103 247 -92 247 -73 C247 -51 262 -26 291 0 L291 450 Z M166 397 C209 397 225 351 225 229 C225 100 209 54 166 54 C121 54 106 99 106 232 C106 350 123 397 166 397 L166 397 Z " />
<glyph glyph-name="Cacute" unicode="&#x106;" horiz-adv-x="329" d="M308 656 C283 671 262 676 232 676 C102 676 38 558 38 321 C38 211 52 136 84 77 C112 24 168 -9 228 -9 C259 -9 281 -3 308 14 L308 87 C281 71 262 65 238 65 C158 65 117 154 117 330 C117 432 130 510 153 551 C172 583 205 604 237 604 C260 604 279 598 308 581 L308 656 Z M265 856 L173 752 L207 720 L313 810 L265 856 Z " />
<glyph glyph-name="cacute" unicode="&#x107;" horiz-adv-x="250" d="M229 440 C207 452 189 457 167 457 C78 457 32 376 32 220 C32 75 80 -7 164 -7 C188 -7 206 -1 229 13 L229 87 C209 66 197 59 180 59 C133 59 107 119 107 228 C107 333 133 391 180 391 C199 391 213 384 229 365 L229 440 Z M119 536 L159 510 L255 622 L200 662 L119 536 Z " />
<glyph glyph-name="Ccircumflex" unicode="&#x108;" horiz-adv-x="329" d="M308 656 C283 671 262 676 232 676 C102 676 38 558 38 321 C38 211 52 136 84 77 C112 24 168 -9 228 -9 C259 -9 281 -3 308 14 L308 87 C281 71 262 65 238 65 C158 65 117 154 117 330 C117 432 130 510 153 551 C172 583 205 604 237 604 C260 604 279 598 308 581 L308 656 Z M208 862 L97 760 L134 720 L208 786 L281 720 L320 762 L208 862 Z " />
<glyph glyph-name="ccircumflex" unicode="&#x109;" horiz-adv-x="250" d="M229 440 C207 452 189 457 167 457 C78 457 32 376 32 220 C32 75 80 -7 164 -7 C188 -7 206 -1 229 13 L229 87 C209 66 197 59 180 59 C133 59 107 119 107 228 C107 333 133 391 180 391 C199 391 213 384 229 365 L229 440 Z M156 662 L46 547 L88 510 L155 582 L226 510 L265 547 L156 662 Z " />
<glyph glyph-name="Cdotaccent" unicode="&#x10a;" horiz-adv-x="329" d="M308 656 C283 671 262 676 232 676 C102 676 38 558 38 321 C38 211 52 136 84 77 C112 24 168 -9 228 -9 C259 -9 281 -3 308 14 L308 87 C281 71 262 65 238 65 C158 65 117 154 117 330 C117 432 130 510 153 551 C172 583 205 604 237 604 C260 604 279 598 308 581 L308 656 Z M214 826 C187 826 165 804 165 777 C165 751 187 729 213 729 C241 729 262 750 262 778 C262 804 240 826 214 826 L214 826 Z " />
<glyph glyph-name="cdotaccent" unicode="&#x10b;" horiz-adv-x="250" d="M229 440 C207 452 189 457 167 457 C78 457 32 376 32 220 C32 75 80 -7 164 -7 C188 -7 206 -1 229 13 L229 87 C209 66 197 59 180 59 C133 59 107 119 107 228 C107 333 133 391 180 391 C199 391 213 384 229 365 L229 440 Z M155 615 C128 615 106 593 106 566 C106 539 128 517 154 517 C182 517 204 539 204 566 C204 593 182 615 155 615 L155 615 Z " />
<glyph glyph-name="Ccaron" unicode="&#x10c;" horiz-adv-x="329" d="M308 656 C283 671 262 676 232 676 C102 676 38 558 38 321 C38 211 52 136 84 77 C112 24 168 -9 228 -9 C259 -9 281 -3 308 14 L308 87 C281 71 262 65 238 65 C158 65 117 154 117 330 C117 432 130 510 153 551 C172 583 205 604 237 604 C260 604 279 598 308 581 L308 656 Z M211 720 L323 822 L285 862 L211 796 L138 862 L100 819 L211 720 Z " />
<glyph glyph-name="ccaron" unicode="&#x10d;" horiz-adv-x="250" d="M229 440 C207 452 189 457 167 457 C78 457 32 376 32 220 C32 75 80 -7 164 -7 C188 -7 206 -1 229 13 L229 87 C209 66 197 59 180 59 C133 59 107 119 107 228 C107 333 133 391 180 391 C199 391 213 384 229 365 L229 440 Z M156 510 L262 626 L223 662 L156 590 L91 662 L49 626 L156 510 Z " />
<glyph glyph-name="Dcaron" unicode="&#x10e;" horiz-adv-x="391" d="M52 667 L52 0 L130 0 C299 0 352 78 352 325 C352 585 302 667 146 667 L52 667 Z M128 601 L147 601 C245 601 273 536 273 312 C273 170 256 109 209 82 C188 70 174 67 128 68 L128 601 Z M171 720 L283 822 L245 862 L171 796 L97 862 L60 819 L171 720 Z " />
<glyph glyph-name="dcaron" unicode="&#x10f;" horiz-adv-x="435" d="M289 731 L219 731 L219 409 C196 444 176 457 143 457 C108 457 77 439 61 410 C41 372 32 316 32 221 C32 126 49 47 74 21 C92 3 115 -7 140 -7 C175 -7 197 8 219 46 L219 0 L289 0 L289 731 Z M164 396 C207 396 223 350 223 228 C223 100 207 54 164 54 C119 54 104 99 104 232 C104 349 121 396 164 396 L164 396 Z M436 712 L380 735 L326 594 L365 577 L436 712 Z " />
<glyph glyph-name="Dcroat" unicode="&#x110;" horiz-adv-x="391" d="M53 667 L53 385 L5 385 L5 325 L53 325 L53 0 L131 0 C301 0 354 77 354 324 C354 585 304 667 147 667 L53 667 Z M129 601 L148 601 C247 601 275 536 275 311 C275 170 258 109 211 82 C189 70 176 67 129 67 L129 325 L218 325 L218 385 L129 385 L129 601 Z " />
<glyph glyph-name="dcroat" unicode="&#x111;" horiz-adv-x="337" d="M289 731 L219 731 L219 617 L137 617 L137 564 L219 564 L219 409 C196 444 176 457 142 457 C65 457 32 388 32 226 C32 63 64 -7 140 -7 C175 -7 197 8 219 46 L219 0 L289 0 L289 564 L331 564 L331 617 L289 617 L289 731 Z M219 133 C217 118 213 99 208 88 C198 65 184 54 164 54 C123 54 104 100 104 201 C104 348 119 396 164 396 C205 396 223 350 223 246 L219 133 Z " />
<glyph glyph-name="Emacron" unicode="&#x112;" horiz-adv-x="311" d="M275 667 L51 667 L51 0 L275 0 L275 66 L127 66 L127 311 L264 311 L264 377 L127 377 L127 601 L275 601 L275 667 Z M53 738 L273 738 L273 796 L53 796 L53 738 Z " />
<glyph glyph-name="emacron" unicode="&#x113;" horiz-adv-x="321" d="M292 211 L292 235 C292 377 246 457 164 457 C137 457 111 448 90 429 C54 398 32 323 32 230 C32 71 76 -7 167 -7 C242 -7 283 47 288 152 L221 152 C218 86 201 55 166 55 C123 55 103 102 102 211 L292 211 Z M221 265 L102 265 C108 357 126 395 163 395 C198 395 216 359 220 281 L221 265 Z M56 533 L269 533 L269 591 L56 591 L56 533 Z " />
<glyph glyph-name="Ebreve" unicode="&#x114;" horiz-adv-x="311" d="M275 667 L52 667 L52 0 L275 0 L275 66 L128 66 L128 311 L265 311 L265 377 L128 377 L128 601 L275 601 L275 667 Z M222 836 C215 796 196 778 163 778 C130 778 112 796 105 836 L50 836 C56 764 97 723 164 723 C233 723 271 761 277 836 L222 836 Z " />
<glyph glyph-name="ebreve" unicode="&#x115;" horiz-adv-x="321" d="M292 211 L292 235 C292 377 246 457 164 457 C137 457 111 448 90 429 C54 398 32 323 32 230 C32 71 76 -7 167 -7 C242 -7 283 47 288 152 L221 152 C218 86 201 55 166 55 C123 55 103 102 102 211 L292 211 Z M221 265 L102 265 C108 357 126 395 163 395 C198 395 216 359 220 281 L221 265 Z M216 630 C210 587 192 567 161 567 C131 567 112 589 108 630 L54 630 C60 553 98 513 163 513 C228 513 265 553 270 630 L216 630 Z " />
<glyph glyph-name="Edotaccent" unicode="&#x116;" horiz-adv-x="311" d="M277 667 L53 667 L53 0 L277 0 L277 66 L129 66 L129 311 L266 311 L266 377 L129 377 L129 601 L277 601 L277 667 Z M165 826 C138 826 116 804 116 777 C116 751 138 729 164 729 C191 729 213 750 213 778 C213 804 191 826 165 826 L165 826 Z " />
<glyph glyph-name="edotaccent" unicode="&#x117;" horiz-adv-x="321" d="M292 211 L292 235 C292 377 246 457 164 457 C137 457 111 448 90 429 C54 398 32 323 32 230 C32 71 76 -7 167 -7 C242 -7 283 47 288 152 L221 152 C218 86 201 55 166 55 C123 55 103 102 102 211 L292 211 Z M221 265 L102 265 C108 357 126 395 163 395 C198 395 216 359 220 281 L221 265 Z M163 615 C136 615 114 593 114 566 C114 539 136 517 162 517 C190 517 212 539 212 566 C212 593 190 615 163 615 L163 615 Z " />
<glyph glyph-name="Eogonek" unicode="&#x118;" horiz-adv-x="311" d="M277 667 L53 667 L53 0 L229 0 C195 -34 182 -57 182 -85 C182 -127 214 -153 265 -153 C282 -153 293 -151 310 -144 L310 -95 C295 -101 284 -103 270 -103 C247 -103 233 -92 233 -73 C233 -51 249 -24 277 0 L277 66 L129 66 L129 311 L266 311 L266 377 L129 377 L129 601 L277 601 L277 667 Z " />
<glyph glyph-name="eogonek" unicode="&#x119;" horiz-adv-x="321" d="M266 -90 C251 -96 239 -99 226 -99 C203 -99 189 -88 189 -69 C189 -46 204 -19 232 9 C271 49 287 89 289 152 L222 152 C219 86 201 56 166 56 C148 56 133 65 126 79 C108 114 103 145 102 211 L292 211 L292 235 C292 377 246 457 165 457 C77 457 32 377 32 219 C32 74 77 -6 159 -6 C165 -6 171 -6 179 -5 C151 -27 138 -51 138 -81 C138 -123 170 -149 221 -149 C237 -149 249 -147 266 -140 L266 -90 Z M102 265 C108 357 126 395 163 395 C198 395 216 359 221 281 C221 279 221 272 222 265 L102 265 Z " />
<glyph glyph-name="Ecaron" unicode="&#x11a;" horiz-adv-x="311" d="M273 667 L49 667 L49 0 L273 0 L273 66 L125 66 L125 311 L262 311 L262 377 L125 377 L125 601 L273 601 L273 667 Z M160 720 L272 822 L234 862 L160 796 L87 862 L49 819 L160 720 Z " />
<glyph glyph-name="ecaron" unicode="&#x11b;" horiz-adv-x="321" d="M292 211 L292 235 C292 377 246 457 164 457 C137 457 111 448 90 429 C54 398 32 323 32 230 C32 71 76 -7 167 -7 C242 -7 283 47 288 152 L221 152 C218 86 201 55 166 55 C123 55 103 102 102 211 L292 211 Z M221 265 L102 265 C108 357 126 395 163 395 C198 395 216 359 220 281 L221 265 Z M164 510 L273 626 L233 662 L163 590 L95 662 L53 626 L164 510 Z " />
<glyph glyph-name="Gcircumflex" unicode="&#x11c;" horiz-adv-x="393" d="M197 351 L197 285 L281 285 L281 238 C281 105 263 63 204 63 C178 63 155 76 146 95 C126 140 116 221 116 353 C116 534 141 606 205 606 C246 606 266 582 280 515 L352 545 C327 637 283 676 205 676 C149 676 104 650 78 605 C52 557 38 464 38 338 C38 202 52 111 81 59 C105 15 149 -9 204 -9 C270 -9 312 22 336 88 C349 127 355 184 355 284 L355 351 L197 351 Z M205 862 L94 760 L131 720 L205 786 L278 720 L317 762 L205 862 Z " />
<glyph glyph-name="gcircumflex" unicode="&#x11d;" horiz-adv-x="342" d="M293 450 L223 450 L223 408 C200 444 180 457 145 457 C69 457 34 385 34 228 C34 139 44 82 65 43 C80 15 113 -4 147 -4 C181 -4 204 10 223 43 L223 -18 C222 -75 221 -83 213 -100 C207 -114 189 -123 168 -123 C128 -123 111 -99 111 -42 L43 -42 C42 -49 42 -56 42 -59 C42 -138 88 -184 166 -184 C216 -184 258 -164 275 -132 C290 -104 293 -85 293 -21 L293 450 Z M164 397 C207 397 226 346 226 228 C226 99 212 57 169 57 C125 57 106 106 106 224 C106 347 123 397 164 397 L164 397 Z M174 662 L63 547 L105 510 L173 582 L243 510 L283 547 L174 662 Z " />
<glyph glyph-name="Gbreve" unicode="&#x11e;" horiz-adv-x="393" d="M197 351 L197 285 L281 285 L281 238 C281 105 263 63 204 63 C178 63 155 76 146 95 C126 140 116 221 116 353 C116 534 141 606 205 606 C246 606 266 582 280 515 L352 545 C327 637 283 676 205 676 C149 676 104 650 78 605 C52 557 38 464 38 338 C38 202 52 111 81 59 C105 15 149 -9 204 -9 C270 -9 312 22 336 88 C349 127 355 184 355 284 L355 351 L197 351 Z M262 836 C255 796 236 778 203 778 C170 778 152 796 145 836 L90 836 C96 764 137 723 204 723 C273 723 311 761 317 836 L262 836 Z " />
<glyph glyph-name="gbreve" unicode="&#x11f;" horiz-adv-x="342" d="M293 450 L223 450 L223 408 C200 444 180 457 145 457 C69 457 34 385 34 228 C34 139 44 82 65 43 C80 15 113 -4 147 -4 C181 -4 204 10 223 43 L223 -18 C222 -75 221 -83 213 -100 C207 -114 189 -123 168 -123 C128 -123 111 -99 111 -42 L43 -42 C42 -49 42 -56 42 -59 C42 -138 88 -184 166 -184 C216 -184 258 -164 275 -132 C290 -104 293 -85 293 -21 L293 450 Z M164 397 C207 397 226 346 226 228 C226 99 212 57 169 57 C125 57 106 106 106 224 C106 347 123 397 164 397 L164 397 Z M229 630 C223 587 205 567 173 567 C140 567 122 588 117 630 L63 630 C69 553 107 513 173 513 C240 513 278 552 283 630 L229 630 Z " />
<glyph glyph-name="Gdotaccent" unicode="&#x120;" horiz-adv-x="393" d="M197 351 L197 285 L281 285 L281 238 C281 105 263 63 204 63 C178 63 155 76 146 95 C126 140 116 221 116 353 C116 534 141 606 205 606 C246 606 266 582 280 515 L352 545 C327 637 283 676 205 676 C149 676 104 650 78 605 C52 557 38 464 38 338 C38 202 52 111 81 59 C105 15 149 -9 204 -9 C270 -9 312 22 336 88 C349 127 355 184 355 284 L355 351 L197 351 Z M206 826 C179 826 157 804 157 777 C157 751 179 729 205 729 C232 729 254 750 254 777 C254 804 233 826 206 826 L206 826 Z " />
<glyph glyph-name="gdotaccent" unicode="&#x121;" horiz-adv-x="342" d="M293 450 L223 450 L223 408 C200 444 180 457 145 457 C69 457 34 385 34 228 C34 139 44 82 65 43 C80 15 113 -4 147 -4 C181 -4 204 10 223 43 L223 -18 C222 -75 221 -83 213 -100 C207 -114 189 -123 168 -123 C128 -123 111 -99 111 -42 L43 -42 C42 -49 42 -56 42 -59 C42 -138 88 -184 166 -184 C216 -184 258 -164 275 -132 C290 -104 293 -85 293 -21 L293 450 Z M164 397 C207 397 226 346 226 228 C226 99 212 57 169 57 C125 57 106 106 106 224 C106 347 123 397 164 397 L164 397 Z M173 615 C146 615 124 593 124 566 C124 539 146 517 172 517 C200 517 222 539 222 566 C222 593 200 615 173 615 L173 615 Z " />
<glyph glyph-name="Gcommaaccent" unicode="&#x122;" horiz-adv-x="393" d="M197 351 L197 285 L281 285 L281 238 C281 105 263 63 204 63 C178 63 155 76 146 95 C126 140 116 221 116 353 C116 534 141 606 205 606 C246 606 266 582 280 515 L352 545 C327 637 283 676 205 676 C149 676 104 650 78 605 C52 557 38 464 38 338 C38 202 52 111 81 59 C105 15 149 -9 204 -9 C270 -9 312 22 336 88 C349 127 355 184 355 284 L355 351 L197 351 Z M241 -68 L184 -45 L130 -186 L172 -204 L241 -68 Z " />
<glyph glyph-name="gcommaaccent" unicode="&#x123;" horiz-adv-x="342" d="M293 450 L223 450 L223 408 C200 444 180 457 145 457 C69 457 34 385 34 228 C34 139 44 82 65 43 C80 15 113 -4 147 -4 C181 -4 204 10 223 43 L223 -18 C222 -75 221 -83 213 -100 C207 -114 189 -123 168 -123 C128 -123 111 -99 111 -42 L43 -42 C42 -49 42 -56 42 -59 C42 -138 88 -184 166 -184 C216 -184 258 -164 275 -132 C290 -104 293 -85 293 -21 L293 450 Z M164 397 C207 397 226 346 226 228 C226 99 212 57 169 57 C125 57 106 106 106 224 C106 347 123 397 164 397 L164 397 Z M137 533 L192 510 L246 650 L206 667 L137 533 Z " />
<glyph glyph-name="Hcircumflex" unicode="&#x124;" horiz-adv-x="400" d="M347 667 L271 667 L271 403 L129 403 L129 667 L53 667 L53 0 L129 0 L129 337 L271 337 L271 0 L347 0 L347 667 Z M199 862 L89 760 L125 720 L199 786 L273 720 L312 762 L199 862 Z " />
<glyph glyph-name="hcircumflex" unicode="&#x125;" horiz-adv-x="346" d="M118 731 L48 731 L48 0 L118 0 L118 297 C118 367 136 398 178 398 C196 398 210 390 218 376 C226 362 228 350 228 312 L228 0 L298 0 L298 326 C298 373 294 400 284 418 C269 442 241 457 208 457 C171 457 143 441 118 406 L118 731 Z M112 896 L1 794 L38 754 L112 820 L185 754 L224 796 L112 896 Z " />
<glyph glyph-name="Hbar" unicode="&#x126;" horiz-adv-x="400" d="M389 553 L347 553 L347 667 L271 667 L271 553 L129 553 L129 667 L53 667 L53 553 L11 553 L11 493 L53 493 L53 0 L129 0 L129 337 L271 337 L271 0 L347 0 L347 493 L389 493 L389 553 Z M129 493 L271 493 L271 403 L129 403 L129 493 Z " />
<glyph glyph-name="hbar" unicode="&#x127;" horiz-adv-x="346" d="M200 617 L118 617 L118 731 L48 731 L48 617 L6 617 L6 564 L48 564 L48 0 L118 0 L118 297 C118 367 136 398 178 398 C196 398 210 390 218 376 C226 362 228 350 228 312 L228 0 L298 0 L298 326 C298 373 294 400 284 418 C269 442 241 457 208 457 C171 457 143 441 118 406 L118 564 L200 564 L200 617 Z " />
<glyph glyph-name="Itilde" unicode="&#x128;" horiz-adv-x="182" d="M129 667 L53 667 L53 0 L129 0 L129 667 Z M150 812 C150 797 145 788 135 788 C128 788 117 792 105 798 C79 810 53 818 39 818 C5 818 -19 786 -23 734 L31 734 L30 737 C30 749 37 759 46 759 C54 759 66 755 78 748 C102 735 123 729 139 729 C177 729 202 761 204 812 L150 812 Z " />
<glyph glyph-name="itilde" unicode="&#x129;" horiz-adv-x="167" d="M118 450 L48 450 L48 0 L118 0 L118 450 Z M143 603 C144 602 144 601 144 600 C145 589 137 578 128 578 C121 578 111 581 101 586 C71 602 54 607 38 607 C-2 607 -24 580 -30 525 L24 525 C24 540 31 550 41 550 C47 550 56 547 65 543 C99 526 114 521 132 521 C171 521 192 548 197 603 L143 603 Z " />
<glyph glyph-name="Imacron" unicode="&#x12a;" horiz-adv-x="182" d="M129 667 L53 667 L53 0 L129 0 L129 667 Z M-2 738 L186 738 L186 796 L-2 796 L-2 738 Z " />
<glyph glyph-name="imacron" unicode="&#x12b;" horiz-adv-x="167" d="M118 450 L48 450 L48 0 L118 0 L118 450 Z M-5 533 L172 533 L172 591 L-5 591 L-5 533 Z " />
<glyph glyph-name="Ibreve" unicode="&#x12c;" horiz-adv-x="182" d="M129 667 L53 667 L53 0 L129 0 L129 667 Z M149 836 C142 796 123 778 90 778 C57 778 39 796 32 836 L-23 836 C-17 764 24 723 91 723 C160 723 198 761 204 836 L149 836 Z " />
<glyph glyph-name="ibreve" unicode="&#x12d;" horiz-adv-x="167" d="M118 450 L48 450 L48 0 L118 0 L118 450 Z M131 630 C125 587 110 567 84 567 C57 567 40 590 36 630 L-18 630 C-12 555 24 513 84 513 C145 513 180 554 185 630 L131 630 Z " />
<glyph glyph-name="Iogonek" unicode="&#x12e;" horiz-adv-x="182" d="M129 667 L53 667 L53 0 L83 0 C53 -26 40 -52 40 -84 C40 -125 71 -153 118 -153 C134 -153 144 -151 162 -144 L162 -95 C146 -100 134 -103 126 -103 C104 -103 91 -91 91 -70 C91 -44 107 -15 129 0 L129 667 Z " />
<glyph glyph-name="iogonek" unicode="&#x12f;" horiz-adv-x="167" d="M112 450 L42 450 L42 0 L69 0 C40 -27 26 -55 26 -87 C26 -126 58 -154 103 -154 C118 -154 129 -152 146 -144 L146 -95 C131 -101 120 -104 108 -104 C89 -104 77 -92 77 -74 C77 -48 91 -19 112 0 L112 450 Z M77 633 C49 633 27 611 27 584 C27 557 49 535 76 535 C104 535 126 557 126 584 C126 611 104 633 77 633 L77 633 Z " />
<glyph glyph-name="Idotaccent" unicode="&#x130;" horiz-adv-x="182" d="M129 667 L53 667 L53 0 L129 0 L129 667 Z M92 826 C65 826 43 804 43 777 C43 751 65 729 91 729 C118 729 140 750 140 778 C140 804 118 826 92 826 L92 826 Z " />
<glyph glyph-name="dotlessi" unicode="&#x131;" horiz-adv-x="167" d="M118 450 L48 450 L48 0 L118 0 L118 450 Z " />
<glyph glyph-name="IJ" unicode="&#x132;" horiz-adv-x="420" d="M129 667 L53 667 L53 0 L129 0 L129 667 Z M367 667 L291 667 L291 145 C291 81 278 60 239 60 C220 60 207 66 179 86 L179 8 C204 -4 225 -9 251 -9 C297 -9 334 9 351 38 C363 60 367 82 367 135 L367 667 Z " />
<glyph glyph-name="ij" unicode="&#x133;" horiz-adv-x="332" d="M118 450 L48 450 L48 0 L118 0 L118 450 Z M82 633 C54 633 32 612 32 584 C32 557 54 535 81 535 C109 535 131 557 131 584 C131 611 109 633 82 633 L82 633 Z M283 450 L213 450 L213 -178 L283 -178 L283 450 Z M247 633 C219 633 197 611 197 584 C197 557 219 535 246 535 C274 535 296 557 296 584 C296 611 274 633 247 633 L247 633 Z " />
<glyph glyph-name="Jcircumflex" unicode="&#x134;" horiz-adv-x="241" d="M189 667 L113 667 L113 145 C113 81 100 60 60 60 C41 60 28 66 0 86 L0 8 C26 -4 46 -9 73 -9 C119 -9 156 8 173 38 C185 60 189 82 189 135 L189 667 Z M150 862 L39 760 L76 720 L150 786 L223 720 L262 762 L150 862 Z " />
<glyph glyph-name="jcircumflex" unicode="&#x135;" horiz-adv-x="168" d="M120 450 L50 450 L50 -178 L120 -178 L120 450 Z M83 662 L-27 547 L15 510 L83 582 L153 510 L193 547 L83 662 Z " />
<glyph glyph-name="Kcommaaccent" unicode="&#x136;" horiz-adv-x="351" d="M338 667 L258 667 L129 354 L129 667 L53 667 L53 0 L129 0 L129 340 L258 0 L344 0 L201 347 L338 667 Z M225 -68 L167 -45 L114 -186 L156 -204 L225 -68 Z " />
<glyph glyph-name="kcommaaccent" unicode="&#x137;" horiz-adv-x="330" d="M118 731 L48 731 L48 0 L118 0 L118 227 L247 0 L331 0 L184 249 L305 450 L227 450 L118 259 L118 731 Z M217 -66 L161 -43 L108 -182 L147 -199 L217 -66 Z " />
<glyph glyph-name="kgreenlandic" unicode="&#x138;" horiz-adv-x="330" d="M118 450 L48 450 L48 0 L118 0 L118 227 L247 0 L331 0 L184 249 L305 450 L227 450 L118 259 L118 450 Z " />
<glyph glyph-name="Lacute" unicode="&#x139;" horiz-adv-x="278" d="M129 667 L53 667 L53 0 L275 0 L275 66 L129 66 L129 667 Z M151 856 L59 752 L93 720 L199 810 L151 856 Z " />
<glyph glyph-name="lacute" unicode="&#x13a;" horiz-adv-x="167" d="M116 723 L46 723 L46 0 L116 0 L116 723 Z M134 898 L46 793 L80 761 L183 852 L134 898 Z " />
<glyph glyph-name="Lcommaaccent" unicode="&#x13b;" horiz-adv-x="278" d="M129 667 L53 667 L53 0 L275 0 L275 66 L129 66 L129 667 Z M205 -68 L147 -45 L94 -186 L136 -204 L205 -68 Z " />
<glyph glyph-name="lcommaaccent" unicode="&#x13c;" horiz-adv-x="167" d="M118 731 L48 731 L48 0 L118 0 L118 731 Z M116 -66 L60 -43 L7 -182 L46 -199 L116 -66 Z " />
<glyph glyph-name="Lcaron" unicode="&#x13d;" horiz-adv-x="278" d="M129 667 L53 667 L53 0 L275 0 L275 66 L129 66 L129 667 Z M281 655 L224 678 L170 537 L212 519 L281 655 Z " />
<glyph glyph-name="lcaron" unicode="&#x13e;" horiz-adv-x="265" d="M118 731 L48 731 L48 0 L118 0 L118 731 Z M265 712 L209 735 L155 594 L194 577 L265 712 Z " />
<glyph glyph-name="Ldot" unicode="&#x13f;" horiz-adv-x="278" d="M129 667 L53 667 L53 0 L275 0 L275 66 L129 66 L129 667 Z M229 400 C195 400 167 372 167 340 C167 305 194 277 228 277 C262 277 290 304 290 339 C290 373 263 400 229 400 L229 400 Z " />
<glyph glyph-name="ldot" unicode="&#x140;" horiz-adv-x="289" d="M118 731 L48 731 L48 0 L118 0 L118 731 Z M228 400 C194 400 166 372 166 340 C166 305 193 277 227 277 C262 277 289 304 289 339 C289 373 262 400 228 400 L228 400 Z " />
<glyph glyph-name="Lslash" unicode="&#x141;" horiz-adv-x="278" d="M129 307 L227 392 L227 467 L129 382 L129 667 L53 667 L53 335 L3 290 L3 215 L53 260 L53 0 L274 0 L274 66 L129 66 L129 307 Z " />
<glyph glyph-name="lslash" unicode="&#x142;" horiz-adv-x="182" d="M126 367 L178 415 L178 484 L126 436 L126 731 L56 731 L56 394 L3 347 L3 278 L56 325 L56 0 L126 0 L126 367 Z " />
<glyph glyph-name="Nacute" unicode="&#x143;" horiz-adv-x="400" d="M347 667 L275 667 L275 325 C275 268 279 216 288 147 C273 208 260 256 242 307 L122 667 L53 667 L53 0 L124 0 L122 353 C120 420 116 494 112 524 L116 507 L122 485 L132 443 C134 432 143 402 154 370 L278 0 L347 0 L347 667 Z M255 856 L164 752 L198 720 L304 810 L255 856 Z " />
<glyph glyph-name="nacute" unicode="&#x144;" horiz-adv-x="346" d="M118 450 L48 450 L48 0 L118 0 L118 297 C118 367 136 398 178 398 C195 398 210 390 218 376 C225 362 227 350 227 312 L227 0 L297 0 L297 326 C297 371 293 399 282 417 C268 442 241 457 208 457 C170 457 143 442 118 406 L118 450 Z M130 536 L170 510 L266 622 L211 662 L130 536 Z " />
<glyph glyph-name="Ncommaaccent" unicode="&#x145;" horiz-adv-x="400" d="M347 667 L275 667 L275 325 C275 268 279 216 288 147 C273 208 260 256 242 307 L122 667 L53 667 L53 0 L124 0 L122 353 C120 420 116 494 112 524 L116 507 L122 485 L132 443 C134 432 143 402 154 370 L278 0 L347 0 L347 667 Z M238 -68 L180 -45 L127 -186 L169 -204 L238 -68 Z " />
<glyph glyph-name="ncommaaccent" unicode="&#x146;" horiz-adv-x="346" d="M118 450 L48 450 L48 0 L118 0 L118 297 C118 367 136 398 178 398 C195 398 210 390 218 376 C225 362 227 350 227 312 L227 0 L297 0 L297 326 C297 371 293 399 282 417 C268 442 241 457 208 457 C170 457 143 442 118 406 L118 450 Z M209 -66 L153 -43 L100 -182 L139 -199 L209 -66 Z " />
<glyph glyph-name="Ncaron" unicode="&#x147;" horiz-adv-x="400" d="M347 667 L275 667 L275 325 C275 268 279 216 288 147 C273 208 260 256 242 307 L122 667 L53 667 L53 0 L124 0 L122 353 C120 420 116 494 112 524 L116 507 L122 485 L132 443 C134 432 143 402 154 370 L278 0 L347 0 L347 667 Z M200 720 L312 822 L274 862 L200 796 L126 862 L89 819 L200 720 Z " />
<glyph glyph-name="ncaron" unicode="&#x148;" horiz-adv-x="346" d="M118 450 L48 450 L48 0 L118 0 L118 297 C118 367 136 398 178 398 C195 398 210 390 218 376 C225 362 227 350 227 312 L227 0 L297 0 L297 326 C297 371 293 399 282 417 C268 442 241 457 208 457 C170 457 143 442 118 406 L118 450 Z M170 510 L279 626 L239 662 L169 590 L102 662 L59 626 L170 510 Z " />
<glyph glyph-name="napostrophe" unicode="&#x149;" horiz-adv-x="434" d="M171 657 L104 682 L40 457 L84 441 L171 657 Z M206 450 L136 450 L136 0 L206 0 L206 297 C206 367 224 398 266 398 C283 398 298 390 306 376 C313 362 315 350 315 312 L315 0 L385 0 L385 326 C385 371 381 399 370 417 C356 442 329 457 296 457 C258 457 231 442 206 406 L206 450 Z " />
<glyph glyph-name="Eng" unicode="&#x14a;" horiz-adv-x="400" d="M129 667 L53 667 L53 0 L129 0 L129 434 C129 502 135 542 149 567 C162 590 185 605 208 605 C227 605 246 594 256 577 C268 554 271 532 271 466 L271 46 C271 -7 269 -24 261 -40 C254 -53 238 -63 222 -63 C208 -63 195 -58 178 -46 L178 -117 C200 -129 215 -133 236 -133 C278 -133 313 -110 331 -70 C343 -42 347 -13 347 56 L347 484 C347 557 341 597 324 627 C306 658 275 676 238 676 C192 676 159 654 129 602 L129 667 Z " />
<glyph glyph-name="eng" unicode="&#x14b;" horiz-adv-x="346" d="M118 450 L48 450 L48 0 L118 0 L118 297 C118 367 136 398 177 398 C195 398 209 390 217 376 C225 362 227 349 227 312 L227 13 C227 -24 226 -35 220 -46 C215 -55 202 -62 189 -62 C177 -62 169 -59 151 -48 L151 -122 C172 -130 186 -133 204 -133 C269 -133 297 -95 297 -6 L297 326 C297 371 293 399 282 417 C268 442 240 457 207 457 C169 457 142 442 118 406 L118 450 Z " />
<glyph glyph-name="Omacron" unicode="&#x14c;" horiz-adv-x="413" d="M205 676 C90 676 38 571 38 337 C38 97 90 -9 209 -9 C323 -9 375 94 375 322 C375 574 326 676 205 676 L205 676 Z M207 605 C273 605 296 533 296 328 C296 131 273 63 207 63 C141 63 117 139 117 342 C117 531 142 605 207 605 L207 605 Z M97 738 L317 738 L317 796 L97 796 L97 738 Z " />
<glyph glyph-name="omacron" unicode="&#x14d;" horiz-adv-x="334" d="M168 457 C78 457 32 379 32 225 C32 70 77 -7 168 -7 C258 -7 302 68 302 220 C302 382 260 457 168 457 L168 457 Z M169 393 C212 393 230 341 230 222 C230 159 217 88 203 74 C193 63 182 58 169 58 C124 58 106 109 106 232 C106 342 126 393 169 393 L169 393 Z M61 533 L274 533 L274 591 L61 591 L61 533 Z " />
<glyph glyph-name="Obreve" unicode="&#x14e;" horiz-adv-x="413" d="M206 676 C90 676 38 571 38 337 C38 97 90 -9 209 -9 C323 -9 375 94 375 321 C375 573 326 676 206 676 L206 676 Z M207 605 C273 605 296 533 296 328 C296 131 273 63 207 63 C141 63 117 139 117 342 C117 531 142 605 207 605 L207 605 Z M265 836 C258 796 239 778 206 778 C173 778 155 796 148 836 L93 836 C99 764 140 723 207 723 C276 723 314 761 320 836 L265 836 Z " />
<glyph glyph-name="obreve" unicode="&#x14f;" horiz-adv-x="334" d="M168 457 C78 457 32 379 32 225 C32 70 77 -7 168 -7 C258 -7 302 68 302 220 C302 382 260 457 168 457 L168 457 Z M169 393 C212 393 230 341 230 222 C230 159 217 88 203 74 C193 63 182 58 169 58 C124 58 106 109 106 232 C106 342 126 393 169 393 L169 393 Z M221 630 C215 587 198 567 166 567 C136 567 117 589 113 630 L59 630 C66 553 103 513 169 513 C233 513 270 553 275 630 L221 630 Z " />
<glyph glyph-name="Ohungarumlaut" unicode="&#x150;" horiz-adv-x="413" d="M205 676 C90 676 38 571 38 337 C38 97 90 -9 209 -9 C323 -9 375 94 375 322 C375 574 326 676 205 676 L205 676 Z M207 605 C273 605 296 533 296 328 C296 131 273 63 207 63 C141 63 117 139 117 342 C117 531 142 605 207 605 L207 605 Z M274 720 L370 824 L319 861 L239 747 L274 720 Z M153 720 L248 824 L197 861 L117 747 L153 720 Z " />
<glyph glyph-name="ohungarumlaut" unicode="&#x151;" horiz-adv-x="334" d="M168 457 C78 457 32 379 32 225 C32 70 77 -7 168 -7 C258 -7 302 68 302 220 C302 382 260 457 168 457 L168 457 Z M169 393 C212 393 230 341 230 222 C230 159 217 88 203 74 C193 63 182 58 169 58 C124 58 106 109 106 232 C106 342 126 393 169 393 L169 393 Z M198 532 L234 510 L317 630 L267 662 L198 532 Z M88 532 L124 510 L207 630 L157 662 L88 532 Z " />
<glyph glyph-name="OE" unicode="&#x152;" horiz-adv-x="552" d="M295 0 L514 0 L514 66 L365 66 L365 311 L504 311 L504 377 L365 377 L365 601 L512 601 L512 667 L293 667 L293 612 C269 657 238 676 193 676 C87 676 38 569 38 337 C38 99 86 -9 192 -9 C240 -9 271 12 295 60 L295 0 Z M205 607 C253 607 281 558 287 462 C293 357 293 279 287 195 C281 109 252 62 205 62 C189 62 176 67 162 79 C132 105 115 191 115 317 C115 439 127 531 149 572 C161 594 182 607 205 607 L205 607 Z " />
<glyph glyph-name="oe" unicode="&#x153;" horiz-adv-x="516" d="M485 212 C485 278 481 315 472 349 C453 420 414 457 359 457 C313 457 276 429 260 380 C243 429 208 457 163 457 C136 457 112 447 88 427 C52 395 32 325 32 229 C32 74 77 -7 162 -7 C209 -7 240 18 259 71 C280 19 312 -7 358 -7 C430 -7 479 55 479 146 L479 153 L414 153 C414 89 396 55 360 55 C317 55 297 101 293 212 L485 212 Z M294 265 L294 281 C294 352 317 396 355 396 C393 396 415 348 415 265 L294 265 Z M164 393 C204 393 226 337 226 237 C226 115 206 57 164 57 C124 57 102 116 102 221 C102 335 123 393 164 393 L164 393 Z " />
<glyph glyph-name="Racute" unicode="&#x154;" horiz-adv-x="374" d="M134 327 L273 0 L354 0 L215 322 C244 327 258 332 274 345 C309 374 327 424 327 494 C327 569 303 623 259 647 C232 662 208 667 156 667 L55 667 L55 0 L134 0 L134 327 Z M134 602 L158 602 C187 602 208 596 221 585 C238 569 249 530 249 487 C249 450 239 412 226 396 C213 381 189 373 155 373 L134 373 L134 602 Z M216 856 L124 752 L158 720 L264 810 L216 856 Z " />
<glyph glyph-name="racute" unicode="&#x155;" horiz-adv-x="217" d="M48 450 L48 0 L118 0 L118 273 C118 314 121 333 131 349 C142 370 166 383 191 383 C194 383 200 383 205 382 L205 458 C168 457 141 437 118 392 L118 450 L48 450 Z M76 536 L116 510 L212 622 L157 662 L76 536 Z " />
<glyph glyph-name="Rcommaaccent" unicode="&#x156;" horiz-adv-x="374" d="M134 327 L273 0 L354 0 L215 322 C244 327 258 332 274 345 C309 374 327 424 327 494 C327 569 303 623 259 647 C232 662 208 667 156 667 L55 667 L55 0 L134 0 L134 327 Z M134 602 L158 602 C187 602 208 596 221 585 C238 569 249 530 249 487 C249 450 239 412 226 396 C213 381 189 373 155 373 L134 373 L134 602 Z M238 -68 L180 -45 L127 -186 L169 -204 L238 -68 Z " />
<glyph glyph-name="rcommaaccent" unicode="&#x157;" horiz-adv-x="217" d="M48 450 L48 0 L118 0 L118 273 C118 314 121 333 131 349 C142 370 166 383 191 383 C194 383 200 383 205 382 L205 458 C168 457 141 437 118 392 L118 450 L48 450 Z M124 -66 L68 -43 L15 -182 L54 -199 L124 -66 Z " />
<glyph glyph-name="Rcaron" unicode="&#x158;" horiz-adv-x="374" d="M134 327 L273 0 L354 0 L215 322 C244 327 258 332 274 345 C309 374 327 424 327 494 C327 569 303 623 259 647 C232 662 208 667 156 667 L55 667 L55 0 L134 0 L134 327 Z M134 602 L158 602 C187 602 208 596 221 585 C238 569 249 530 249 487 C249 450 239 412 226 396 C213 381 189 373 155 373 L134 373 L134 602 Z M168 720 L280 822 L242 862 L168 796 L94 862 L57 819 L168 720 Z " />
<glyph glyph-name="rcaron" unicode="&#x159;" horiz-adv-x="217" d="M48 450 L48 0 L118 0 L118 273 C118 314 121 333 131 349 C142 370 166 383 191 383 C194 383 200 383 205 382 L205 458 C168 457 141 437 118 392 L118 450 L48 450 Z M119 510 L226 626 L187 662 L118 590 L52 662 L10 626 L119 510 Z " />
<glyph glyph-name="Sacute" unicode="&#x15a;" horiz-adv-x="338" d="M282 647 C247 668 220 676 186 676 C93 676 31 607 31 503 C31 426 57 383 148 309 C222 250 239 223 239 169 C239 107 202 64 148 64 C115 64 88 77 51 109 L51 24 C80 2 114 -9 151 -9 C245 -9 314 69 314 175 C314 216 303 253 282 284 C268 306 249 324 196 368 C129 423 106 458 106 507 C106 565 143 606 195 606 C226 606 250 594 281 564 L282 647 Z M227 856 L136 752 L170 720 L276 810 L227 856 Z " />
<glyph glyph-name="sacute" unicode="&#x15b;" horiz-adv-x="255" d="M220 434 C194 451 172 458 143 458 C74 458 26 410 26 340 C26 291 46 260 111 206 C158 168 169 151 169 120 C169 82 144 57 108 57 C83 57 64 66 34 92 L34 19 C63 0 85 -7 114 -7 C185 -7 237 47 237 123 C237 176 220 204 156 255 C109 292 95 312 95 340 C95 371 118 394 149 394 C174 394 197 383 220 360 L220 434 Z M92 536 L132 510 L228 622 L174 662 L92 536 Z " />
<glyph glyph-name="Scircumflex" unicode="&#x15c;" horiz-adv-x="338" d="M282 647 C247 668 220 676 186 676 C93 676 31 607 31 503 C31 426 57 383 148 309 C222 250 239 223 239 169 C239 107 202 64 148 64 C115 64 88 77 51 109 L51 24 C80 2 114 -9 151 -9 C245 -9 314 69 314 175 C314 216 303 253 282 284 C268 306 249 324 196 368 C129 423 106 458 106 507 C106 565 143 606 195 606 C226 606 250 594 281 564 L282 647 Z M178 862 L67 760 L104 720 L178 786 L252 720 L290 762 L178 862 Z " />
<glyph glyph-name="scircumflex" unicode="&#x15d;" horiz-adv-x="255" d="M220 434 C194 451 171 458 143 458 C74 458 26 409 26 340 C26 291 46 260 111 206 C158 168 169 151 169 120 C169 82 144 57 108 57 C83 57 64 66 34 92 L34 19 C63 0 84 -7 114 -7 C185 -7 237 47 237 123 C237 176 220 204 156 255 C109 292 95 312 95 340 C95 371 118 394 149 394 C174 394 196 383 220 360 L220 434 Z M132 662 L22 547 L64 510 L132 582 L202 510 L242 547 L132 662 Z " />
<glyph glyph-name="Scedilla" unicode="&#x15e;" horiz-adv-x="338" d="M282 647 C247 668 220 676 186 676 C93 676 31 607 31 503 C31 426 57 383 148 309 C222 250 239 223 239 169 C239 107 202 64 148 64 C115 64 88 77 51 109 L51 24 C80 2 114 -9 151 -9 C245 -9 314 69 314 175 C314 216 303 253 282 284 C268 306 249 324 196 368 C129 423 106 458 106 507 C106 565 143 606 195 606 C226 606 250 594 281 564 L282 647 Z M197 -69 L142 -41 L76 -177 L116 -198 L197 -69 Z " />
<glyph glyph-name="scedilla" unicode="&#x15f;" horiz-adv-x="255" d="M220 434 C194 451 172 458 143 458 C74 458 26 410 26 340 C26 291 46 260 111 206 C158 168 169 151 169 120 C169 82 144 57 108 57 C83 57 64 66 34 92 L34 19 C63 0 85 -7 114 -7 C185 -7 237 47 237 123 C237 176 220 204 156 255 C109 292 95 312 95 340 C95 371 118 394 149 394 C174 394 197 383 220 360 L220 434 Z M158 -68 L106 -41 L42 -171 L78 -192 L158 -68 Z " />
<glyph glyph-name="Scaron" unicode="&#x160;" horiz-adv-x="338" d="M282 647 C247 668 220 676 186 676 C93 676 31 607 31 503 C31 426 57 383 148 309 C222 250 239 223 239 169 C239 107 202 64 148 64 C115 64 88 77 51 109 L51 24 C80 2 114 -9 151 -9 C245 -9 314 69 314 175 C314 216 303 253 282 284 C268 306 249 324 196 368 C129 423 106 458 106 507 C106 565 143 606 195 606 C226 606 250 594 281 564 L282 647 Z M176 720 L288 822 L250 862 L176 796 L102 862 L65 819 L176 720 Z " />
<glyph glyph-name="scaron" unicode="&#x161;" horiz-adv-x="255" d="M220 434 C194 451 171 458 143 458 C74 458 26 409 26 340 C26 291 46 260 111 206 C158 168 169 151 169 120 C169 82 144 57 108 57 C83 57 64 66 34 92 L34 19 C63 0 84 -7 114 -7 C185 -7 237 47 237 123 C237 176 220 204 156 255 C109 292 95 312 95 340 C95 371 118 394 149 394 C174 394 196 383 220 360 L220 434 Z M132 510 L242 626 L202 662 L132 590 L64 662 L22 626 L132 510 Z " />
<glyph glyph-name="Tcommaaccent" unicode="&#x162;" horiz-adv-x="277" d="M277 667 L0 667 L0 599 L102 599 L102 0 L177 0 L177 599 L277 599 L277 667 Z M171 -68 L114 -45 L60 -186 L102 -204 L171 -68 Z " />
<glyph glyph-name="tcommaaccent" unicode="&#x163;" horiz-adv-x="199" d="M188 450 L128 450 L128 575 L58 575 L58 450 L11 450 L11 391 L58 391 L58 0 L128 0 L128 391 L188 391 L188 450 Z M125 -66 L69 -43 L16 -182 L55 -199 L125 -66 Z " />
<glyph glyph-name="Tcaron" unicode="&#x164;" horiz-adv-x="277" d="M277 667 L0 667 L0 599 L102 599 L102 0 L177 0 L177 599 L277 599 L277 667 Z M139 720 L251 822 L213 862 L139 796 L65 862 L28 819 L139 720 Z " />
<glyph glyph-name="tcaron" unicode="&#x165;" horiz-adv-x="280" d="M192 450 L132 450 L132 575 L62 575 L62 450 L15 450 L15 391 L62 391 L62 0 L132 0 L132 391 L192 391 L192 450 Z M280 645 L224 668 L170 527 L209 509 L280 645 Z " />
<glyph glyph-name="Tbar" unicode="&#x166;" horiz-adv-x="277" d="M262 500 L177 500 L177 599 L277 599 L277 667 L0 667 L0 599 L102 599 L102 500 L15 500 L15 440 L102 440 L102 0 L177 0 L177 440 L262 440 L262 500 Z " />
<glyph glyph-name="tbar" unicode="&#x167;" horiz-adv-x="199" d="M192 314 L132 314 L132 391 L192 391 L192 450 L132 450 L132 575 L62 575 L62 450 L15 450 L15 391 L62 391 L62 314 L15 314 L15 261 L62 261 L62 0 L132 0 L132 261 L192 261 L192 314 Z " />
<glyph glyph-name="Utilde" unicode="&#x168;" horiz-adv-x="400" d="M347 667 L272 667 L272 194 C272 134 270 115 259 94 C250 76 227 64 201 64 C174 64 150 77 141 95 C131 116 128 137 128 200 L128 667 L53 667 L53 198 C53 120 59 82 74 54 C97 13 142 -9 201 -9 C261 -9 309 18 331 64 C343 90 347 122 347 192 L347 667 Z M259 812 C260 797 254 788 245 788 C238 788 226 792 214 798 C189 810 162 818 149 818 C114 818 91 786 86 734 L140 734 L140 737 C140 749 147 759 156 759 C163 759 175 755 187 748 C212 735 232 729 248 729 C287 729 312 761 313 812 L259 812 Z " />
<glyph glyph-name="utilde" unicode="&#x169;" horiz-adv-x="348" d="M48 450 L48 131 C48 39 90 -7 173 -7 C261 -7 299 39 299 145 L299 450 L229 450 L229 169 L229 151 C229 83 215 59 174 59 C153 59 135 68 129 82 C120 101 119 110 118 169 L118 450 L48 450 Z M234 603 C234 588 227 578 218 578 C211 578 201 581 191 586 C160 602 144 607 128 607 C88 607 66 580 60 525 L114 525 C114 539 121 550 131 550 C137 550 146 547 155 543 C189 526 203 521 223 521 C261 521 282 548 287 603 L234 603 Z " />
<glyph glyph-name="Umacron" unicode="&#x16a;" horiz-adv-x="400" d="M347 667 L272 667 L272 194 C272 134 270 115 259 94 C250 76 227 64 201 64 C174 64 150 77 141 95 C131 116 128 137 128 200 L128 667 L53 667 L53 198 C53 120 59 82 74 54 C97 13 142 -9 201 -9 C261 -9 309 18 331 64 C343 90 347 122 347 192 L347 667 Z M90 738 L310 738 L310 796 L90 796 L90 738 Z " />
<glyph glyph-name="umacron" unicode="&#x16b;" horiz-adv-x="348" d="M48 450 L48 131 C48 39 90 -7 173 -7 C261 -7 299 39 299 145 L299 450 L229 450 L229 151 C229 83 215 59 174 59 C153 59 135 68 129 82 C120 101 119 110 118 169 L118 450 L48 450 Z M67 533 L280 533 L280 591 L67 591 L67 533 Z " />
<glyph glyph-name="Ubreve" unicode="&#x16c;" horiz-adv-x="400" d="M347 667 L272 667 L272 194 C272 134 270 115 259 94 C250 76 227 64 201 64 C174 64 150 77 141 95 C131 116 128 137 128 200 L128 667 L53 667 L53 198 C53 120 59 82 74 54 C97 13 142 -9 201 -9 C261 -9 309 18 331 64 C343 90 347 122 347 192 L347 667 Z M258 836 C251 796 232 778 199 778 C166 778 149 796 141 836 L86 836 C92 764 134 723 201 723 C269 723 307 761 313 836 L258 836 Z " />
<glyph glyph-name="ubreve" unicode="&#x16d;" horiz-adv-x="348" d="M48 450 L48 131 C48 39 90 -7 173 -7 C261 -7 299 39 299 145 L299 450 L229 450 L229 151 C229 83 215 59 174 59 C153 59 135 68 129 82 C120 101 119 110 118 169 L118 450 L48 450 Z M228 630 C221 587 204 567 173 567 C142 567 124 589 119 630 L65 630 C72 553 110 513 175 513 C240 513 276 553 282 630 L228 630 Z " />
<glyph glyph-name="Uring" unicode="&#x16e;" horiz-adv-x="400" d="M347 667 L272 667 L272 194 C272 134 270 115 259 94 C250 76 227 64 201 64 C174 64 150 77 141 95 C131 116 128 137 128 200 L128 667 L53 667 L53 198 C53 120 59 82 74 54 C97 13 142 -9 201 -9 C261 -9 309 18 331 64 C343 90 347 122 347 192 L347 667 Z M200 868 C159 868 125 834 125 793 C125 752 159 718 199 718 C241 718 275 751 275 792 C275 835 242 868 200 868 L200 868 Z M200 825 C218 825 232 811 232 793 C232 775 218 761 200 761 C183 761 168 776 168 793 C168 811 182 825 200 825 L200 825 Z " />
<glyph glyph-name="uring" unicode="&#x16f;" horiz-adv-x="348" d="M48 450 L48 131 C48 39 90 -7 173 -7 C261 -7 299 39 299 145 L299 450 L229 450 L229 151 C229 83 215 59 174 59 C153 59 135 68 129 82 C120 101 119 110 118 169 L118 450 L48 450 Z M174 655 C133 655 100 622 100 581 C100 540 133 506 173 506 C215 506 248 539 248 580 C248 622 215 655 174 655 L174 655 Z M174 614 C192 614 207 599 207 581 C207 562 192 547 173 547 C156 547 141 562 141 581 C141 599 156 614 174 614 L174 614 Z " />
<glyph glyph-name="Uhungarumlaut" unicode="&#x170;" horiz-adv-x="400" d="M347 667 L272 667 L272 194 C272 134 270 115 259 94 C250 76 227 64 201 64 C174 64 150 77 141 95 C131 116 128 137 128 200 L128 667 L53 667 L53 198 C53 120 59 82 74 54 C97 13 142 -9 201 -9 C261 -9 309 18 331 64 C343 90 347 122 347 192 L347 667 Z M268 720 L364 824 L312 861 L233 747 L268 720 Z M147 720 L242 824 L191 861 L111 747 L147 720 Z " />
<glyph glyph-name="uhungarumlaut" unicode="&#x171;" horiz-adv-x="348" d="M48 450 L48 131 C48 39 90 -7 173 -7 C261 -7 299 39 299 145 L299 450 L229 450 L229 151 C229 83 215 59 174 59 C153 59 135 68 129 82 C120 101 119 110 118 169 L118 450 L48 450 Z M199 532 L235 510 L319 630 L268 662 L199 532 Z M89 532 L125 510 L209 630 L158 662 L89 532 Z " />
<glyph glyph-name="Uogonek" unicode="&#x172;" horiz-adv-x="400" d="M272 667 L272 194 C272 134 270 115 259 94 C250 76 227 64 201 64 C174 64 150 77 141 95 C131 116 128 137 128 200 L128 667 L53 667 L53 198 C53 132 56 98 66 73 C85 22 134 -9 195 -9 C207 -9 215 -8 232 -6 C210 -28 200 -50 200 -75 C200 -117 232 -143 283 -143 C300 -143 311 -141 328 -134 L328 -84 C313 -90 301 -93 288 -93 C264 -93 251 -82 251 -62 C251 -32 261 -14 292 15 C340 62 347 86 347 192 L347 667 L272 667 Z " />
<glyph glyph-name="uogonek" unicode="&#x173;" horiz-adv-x="348" d="M229 450 L229 151 C229 83 215 59 174 59 C153 59 135 68 129 82 C120 101 119 110 118 169 L118 450 L48 450 L48 131 C48 41 91 -7 169 -7 C178 -7 185 -7 199 -5 C178 -26 169 -44 169 -71 C169 -115 200 -142 252 -142 C269 -142 280 -140 297 -133 L297 -83 C282 -89 270 -92 257 -92 C233 -92 220 -81 220 -59 C220 -36 232 -12 255 13 C292 50 296 62 299 145 L299 450 L229 450 Z " />
<glyph glyph-name="Wcircumflex" unicode="&#x174;" horiz-adv-x="515" d="M513 667 L439 667 L387 327 C374 242 369 201 365 146 C364 150 363 154 363 156 C363 158 362 169 360 185 C357 217 353 245 343 316 L289 667 L228 667 L168 315 C161 276 154 219 146 143 C140 211 134 264 129 302 L76 667 L1 667 L112 0 L176 0 L238 359 C245 404 251 460 257 526 C262 467 267 417 276 361 L332 0 L396 0 L513 667 Z M257 862 L146 760 L183 720 L257 786 L330 720 L369 762 L257 862 Z " />
<glyph glyph-name="wcircumflex" unicode="&#x175;" horiz-adv-x="447" d="M438 450 L368 450 L325 231 C319 201 313 161 307 105 C301 159 296 198 295 199 L289 231 L253 450 L194 450 L155 229 C146 181 144 163 137 105 C133 154 127 195 119 241 L81 450 L8 450 L108 0 L166 0 L208 242 C215 283 219 313 222 352 L223 340 L225 324 L228 297 C229 287 230 275 233 261 L237 238 L278 0 L336 0 L438 450 Z M224 662 L113 547 L155 510 L223 582 L293 510 L333 547 L224 662 Z " />
<glyph glyph-name="Ycircumflex" unicode="&#x176;" horiz-adv-x="329" d="M329 667 L249 667 L202 496 C186 436 178 402 171 356 C163 398 155 429 139 482 L81 667 L0 667 L134 290 L134 0 L210 0 L210 290 L329 667 Z M164 862 L54 760 L90 720 L164 786 L238 720 L277 762 L164 862 Z " />
<glyph glyph-name="ycircumflex" unicode="&#x177;" horiz-adv-x="310" d="M305 450 L233 450 L164 165 L161 155 C159 143 158 137 156 131 C154 122 154 121 153 112 C151 127 149 139 142 169 L81 450 L5 450 L119 25 L62 -173 L136 -173 L305 450 Z M156 662 L45 547 L87 510 L155 582 L225 510 L265 547 L156 662 Z " />
<glyph glyph-name="Ydieresis" unicode="&#x178;" horiz-adv-x="329" d="M329 667 L249 667 L202 496 C186 436 178 402 171 356 C163 398 155 429 139 482 L81 667 L0 667 L134 290 L134 0 L210 0 L210 290 L329 667 Z M92 822 C66 822 45 801 45 775 C45 750 66 729 91 729 C117 729 138 749 138 775 C138 801 118 822 92 822 L92 822 Z M238 822 C213 822 192 801 192 775 C192 750 213 729 238 729 C264 729 285 749 285 776 C285 801 264 822 238 822 L238 822 Z " />
<glyph glyph-name="Zacute" unicode="&#x179;" horiz-adv-x="306" d="M300 667 L31 667 L31 601 L204 601 L10 0 L286 0 L286 68 L107 68 L300 667 Z M215 856 L124 752 L158 720 L264 810 L215 856 Z " />
<glyph glyph-name="zacute" unicode="&#x17a;" horiz-adv-x="286" d="M259 64 L111 64 L278 450 L27 450 L27 387 L176 387 L9 0 L259 0 L259 64 Z M109 536 L149 510 L245 622 L191 662 L109 536 Z " />
<glyph glyph-name="Zdotaccent" unicode="&#x17b;" horiz-adv-x="306" d="M300 667 L31 667 L31 601 L204 601 L10 0 L286 0 L286 68 L107 68 L300 667 Z M165 826 C139 826 117 804 117 777 C117 751 139 729 165 729 C192 729 214 750 214 777 C214 804 192 826 165 826 L165 826 Z " />
<glyph glyph-name="zdotaccent" unicode="&#x17c;" horiz-adv-x="286" d="M259 64 L111 64 L278 450 L27 450 L27 387 L176 387 L9 0 L259 0 L259 64 Z M153 615 C126 615 104 593 104 566 C104 539 126 517 152 517 C180 517 202 539 202 566 C202 593 180 615 153 615 L153 615 Z " />
<glyph glyph-name="Zcaron" unicode="&#x17d;" horiz-adv-x="306" d="M300 667 L31 667 L31 601 L204 601 L10 0 L286 0 L286 68 L107 68 L300 667 Z M164 720 L276 822 L238 862 L164 796 L90 862 L53 819 L164 720 Z " />
<glyph glyph-name="zcaron" unicode="&#x17e;" horiz-adv-x="286" d="M259 64 L111 64 L278 450 L27 450 L27 387 L176 387 L9 0 L259 0 L259 64 Z M153 510 L263 626 L223 662 L153 590 L85 662 L43 626 L153 510 Z " />
<glyph glyph-name="longs" unicode="&#x17f;" horiz-adv-x="211" d="M131 0 L131 593 C131 630 132 641 138 652 C143 661 156 668 169 668 C181 668 190 665 207 654 L207 728 C186 736 172 739 154 739 C89 739 61 701 61 612 L61 450 L15 450 L15 391 L61 391 L61 0 L131 0 Z " />
<glyph glyph-name="uni018F" unicode="&#x18f;" horiz-adv-x="413" d="M38 347 C38 251 47 162 61 117 C87 33 135 -9 208 -9 C324 -9 375 93 375 327 C375 572 325 676 206 676 C110 676 59 604 41 445 L118 437 C127 554 154 605 207 605 C272 605 293 544 296 346 L38 347 Z M295 287 C296 278 296 273 296 267 C296 203 285 135 268 100 C258 78 233 63 207 63 C182 63 159 77 148 99 C130 136 117 205 117 265 C117 268 117 276 118 287 L295 287 Z " />
<glyph glyph-name="florin" unicode="&#x192;" horiz-adv-x="373" d="M240 421 L313 421 L320 461 L247 461 L271 599 C282 658 292 673 321 673 C333 673 341 670 357 659 L370 731 C352 739 338 742 318 742 C281 742 252 729 234 705 C219 684 210 656 200 598 L176 461 L121 461 L114 421 L169 421 L98 23 C86 -49 73 -70 42 -70 C29 -70 19 -67 3 -58 L-9 -126 C12 -134 26 -137 45 -137 C117 -137 149 -96 170 26 L240 421 Z " />
<glyph glyph-name="uni01C4" unicode="&#x1c4;" horiz-adv-x="697" d="M53 667 L53 0 L131 0 C300 0 353 78 353 325 C353 585 303 667 147 667 L53 667 Z M129 601 L148 601 C246 601 274 536 274 312 C274 170 257 109 210 82 C189 70 175 67 129 68 L129 601 Z M691 667 L421 667 L421 601 L594 601 L400 0 L676 0 L676 68 L497 68 L691 667 Z M555 720 L667 822 L629 862 L555 796 L481 862 L444 819 L555 720 Z " />
<glyph glyph-name="uni01C5" unicode="&#x1c5;" horiz-adv-x="677" d="M53 667 L53 0 L131 0 C300 0 353 78 353 325 C353 585 303 667 147 667 L53 667 Z M129 601 L148 601 C246 601 274 536 274 312 C274 170 257 109 210 82 C189 70 175 67 129 68 L129 601 Z M650 64 L502 64 L669 450 L418 450 L418 387 L567 387 L400 0 L650 0 L650 64 Z M544 510 L654 626 L614 662 L544 590 L476 662 L434 626 L544 510 Z " />
<glyph glyph-name="uni01C6" unicode="&#x1c6;" horiz-adv-x="623" d="M289 731 L219 731 L219 409 C196 444 176 457 143 457 C108 457 77 439 61 410 C41 372 32 316 32 221 C32 126 49 47 74 21 C92 3 115 -7 140 -7 C175 -7 197 8 219 46 L219 0 L289 0 L289 731 Z M164 396 C207 396 223 350 223 228 C223 100 207 54 164 54 C119 54 104 99 104 232 C104 349 121 396 164 396 L164 396 Z M596 64 L448 64 L615 450 L364 450 L364 387 L513 387 L346 0 L596 0 L596 64 Z M491 510 L600 626 L560 662 L490 590 L422 662 L380 626 L491 510 Z " />
<glyph glyph-name="uni01C7" unicode="&#x1c7;" horiz-adv-x="519" d="M129 667 L53 667 L53 0 L275 0 L275 66 L129 66 L129 667 Z M496 667 L420 667 L420 145 C420 81 407 60 367 60 C348 60 335 66 307 86 L307 8 C333 -4 353 -9 380 -9 C426 -9 463 8 480 38 C492 60 496 82 496 135 L496 667 Z " />
<glyph glyph-name="uni01C8" unicode="&#x1c8;" horiz-adv-x="446" d="M129 667 L53 667 L53 0 L275 0 L275 66 L129 66 L129 667 Z M398 450 L328 450 L328 -178 L398 -178 L398 450 Z M362 633 C334 633 312 611 312 584 C312 557 334 535 361 535 C389 535 411 557 411 584 C411 611 389 633 362 633 L362 633 Z " />
<glyph glyph-name="uni01C9" unicode="&#x1c9;" horiz-adv-x="335" d="M118 731 L48 731 L48 0 L118 0 L118 731 Z M286 450 L216 450 L216 -178 L286 -178 L286 450 Z M250 633 C222 633 200 611 200 584 C200 557 222 535 249 535 C277 535 299 557 299 584 C299 611 277 633 250 633 L250 633 Z " />
<glyph glyph-name="uni01CA" unicode="&#x1ca;" horiz-adv-x="641" d="M347 667 L275 667 L275 325 C275 268 279 216 288 147 C273 208 260 256 242 307 L122 667 L53 667 L53 0 L124 0 L122 353 C120 420 116 494 112 524 L116 507 L122 485 L132 443 C134 432 143 402 154 370 L278 0 L347 0 L347 667 Z M588 667 L512 667 L512 145 C512 81 499 60 460 60 C441 60 428 66 400 86 L400 8 C425 -4 446 -9 472 -9 C518 -9 555 9 572 38 C584 60 588 82 588 135 L588 667 Z " />
<glyph glyph-name="uni01CB" unicode="&#x1cb;" horiz-adv-x="568" d="M347 667 L275 667 L275 325 C275 268 279 216 288 147 C273 208 260 256 242 307 L122 667 L53 667 L53 0 L124 0 L122 353 C120 420 116 494 112 524 L116 507 L122 485 L132 443 C134 432 143 402 154 370 L278 0 L347 0 L347 667 Z M520 450 L450 450 L450 -178 L520 -178 L520 450 Z M484 633 C456 633 434 611 434 584 C434 557 456 535 483 535 C511 535 533 557 533 584 C533 611 511 633 484 633 L484 633 Z " />
<glyph glyph-name="uni01CC" unicode="&#x1cc;" horiz-adv-x="514" d="M118 450 L48 450 L48 0 L118 0 L118 297 C118 367 136 398 178 398 C195 398 210 390 218 376 C225 362 227 350 227 312 L227 0 L297 0 L297 326 C297 371 293 399 282 417 C268 442 241 457 208 457 C170 457 143 442 118 406 L118 450 Z M466 450 L396 450 L396 -178 L466 -178 L466 450 Z M430 633 C402 633 380 611 380 584 C380 557 402 535 429 535 C457 535 479 557 479 584 C479 611 457 633 430 633 L430 633 Z " />
<glyph glyph-name="uni01CD" unicode="&#x1cd;" horiz-adv-x="343" d="M139 667 L1 0 L77 0 L102 134 L239 134 L264 0 L341 0 L203 667 L139 667 Z M227 195 L113 195 L142 356 C157 440 165 495 170 560 C175 495 182 440 195 366 L227 195 Z M171 720 L283 822 L245 862 L171 796 L97 862 L60 819 L171 720 Z " />
<glyph glyph-name="uni01CE" unicode="&#x1ce;" horiz-adv-x="340" d="M291 450 L221 450 L221 409 C199 444 178 457 144 457 C110 457 78 439 63 410 C43 372 34 316 34 221 C34 126 51 47 76 21 C94 3 117 -7 142 -7 C177 -7 199 8 221 47 L221 0 L291 0 L291 450 Z M166 397 C209 397 225 351 225 229 C225 100 209 54 166 54 C121 54 106 99 106 232 C106 350 123 397 166 397 L166 397 Z M174 510 L284 626 L244 662 L174 590 L106 662 L64 626 L174 510 Z " />
<glyph glyph-name="uni01CF" unicode="&#x1cf;" horiz-adv-x="182" d="M129 667 L53 667 L53 0 L129 0 L129 667 Z M90 720 L202 822 L164 862 L90 796 L16 862 L-21 819 L90 720 Z " />
<glyph glyph-name="uni01D0" unicode="&#x1d0;" horiz-adv-x="167" d="M118 450 L48 450 L48 0 L118 0 L118 450 Z M83 510 L193 626 L153 662 L83 590 L15 662 L-27 626 L83 510 Z " />
<glyph glyph-name="uni01D1" unicode="&#x1d1;" horiz-adv-x="413" d="M206 676 C90 676 38 571 38 337 C38 97 90 -9 209 -9 C323 -9 375 94 375 321 C375 573 326 676 206 676 L206 676 Z M207 605 C273 605 296 533 296 328 C296 131 273 63 207 63 C141 63 117 139 117 342 C117 531 142 605 207 605 L207 605 Z M206 720 L318 822 L280 862 L206 796 L132 862 L95 819 L206 720 Z " />
<glyph glyph-name="uni01D2" unicode="&#x1d2;" horiz-adv-x="334" d="M168 457 C78 457 32 379 32 225 C32 70 77 -7 168 -7 C258 -7 302 68 302 220 C302 382 260 457 168 457 L168 457 Z M169 393 C212 393 230 341 230 222 C230 159 217 88 203 74 C193 63 182 58 169 58 C124 58 106 109 106 232 C106 342 126 393 169 393 L169 393 Z M168 510 L277 626 L237 662 L167 590 L99 662 L57 626 L168 510 Z " />
<glyph glyph-name="uni01D3" unicode="&#x1d3;" horiz-adv-x="400" d="M347 667 L272 667 L272 194 C272 134 270 115 259 94 C250 76 227 64 201 64 C174 64 150 77 141 95 C131 116 128 137 128 200 L128 667 L53 667 L53 198 C53 120 59 82 74 54 C97 13 142 -9 201 -9 C261 -9 309 18 331 64 C343 90 347 122 347 192 L347 667 Z M200 720 L312 822 L274 862 L200 796 L126 862 L89 819 L200 720 Z " />
<glyph glyph-name="uni01D4" unicode="&#x1d4;" horiz-adv-x="348" d="M48 450 L48 131 C48 39 90 -7 173 -7 C261 -7 299 39 299 145 L299 450 L229 450 L229 151 C229 83 215 59 174 59 C153 59 135 68 129 82 C120 101 119 110 118 169 L118 450 L48 450 Z M174 510 L283 626 L244 662 L173 590 L106 662 L64 626 L174 510 Z " />
<glyph glyph-name="uni01DD" unicode="&#x1dd;" horiz-adv-x="321" d="M32 239 L32 216 C32 73 78 -7 160 -7 C187 -7 213 2 234 21 C270 52 292 128 292 220 C292 379 248 457 157 457 C82 457 41 404 35 298 L103 298 C105 364 123 395 158 395 C176 395 191 386 198 372 C216 337 221 306 222 239 L32 239 Z M103 185 L222 185 C216 93 198 55 161 55 C126 55 108 92 104 169 L103 185 Z " />
<glyph glyph-name="Gcaron" unicode="&#x1e6;" horiz-adv-x="393" d="M197 351 L197 285 L281 285 L281 238 C281 105 263 63 204 63 C178 63 155 76 146 95 C126 140 116 221 116 353 C116 534 141 606 205 606 C246 606 266 582 280 515 L352 545 C327 637 283 676 205 676 C149 676 104 650 78 605 C52 557 38 464 38 338 C38 202 52 111 81 59 C105 15 149 -9 204 -9 C270 -9 312 22 336 88 C349 127 355 184 355 284 L355 351 L197 351 Z M205 720 L317 822 L279 862 L205 796 L131 862 L94 819 L205 720 Z " />
<glyph glyph-name="gcaron" unicode="&#x1e7;" horiz-adv-x="342" d="M293 450 L223 450 L223 408 C200 444 180 457 145 457 C69 457 34 385 34 228 C34 139 44 82 65 43 C80 15 113 -4 147 -4 C181 -4 204 10 223 43 L223 -18 C222 -75 221 -83 213 -100 C207 -114 189 -123 168 -123 C128 -123 111 -99 111 -42 L43 -42 C42 -49 42 -56 42 -59 C42 -138 88 -184 166 -184 C216 -184 258 -164 275 -132 C290 -104 293 -85 293 -21 L293 450 Z M164 397 C207 397 226 346 226 228 C226 99 212 57 169 57 C125 57 106 106 106 224 C106 347 123 397 164 397 L164 397 Z M174 510 L283 626 L243 662 L173 590 L105 662 L63 626 L174 510 Z " />
<glyph glyph-name="uni01F4" unicode="&#x1f4;" horiz-adv-x="393" d="M197 351 L197 285 L281 285 L281 238 C281 105 263 63 204 63 C178 63 155 76 146 95 C126 140 116 221 116 353 C116 534 141 606 205 606 C246 606 266 582 280 515 L352 545 C327 637 283 676 205 676 C149 676 104 650 78 605 C52 557 38 464 38 338 C38 202 52 111 81 59 C105 15 149 -9 204 -9 C270 -9 312 22 336 88 C349 127 355 184 355 284 L355 351 L197 351 Z M252 856 L160 752 L194 720 L300 810 L252 856 Z " />
<glyph glyph-name="uni01F5" unicode="&#x1f5;" horiz-adv-x="342" d="M293 450 L223 450 L223 408 C200 444 180 457 145 457 C69 457 34 385 34 228 C34 139 44 82 65 43 C80 15 113 -4 147 -4 C181 -4 204 10 223 43 L223 -18 C222 -75 221 -83 213 -100 C207 -114 189 -123 168 -123 C128 -123 111 -99 111 -42 L43 -42 C42 -49 42 -56 42 -59 C42 -138 88 -184 166 -184 C216 -184 258 -164 275 -132 C290 -104 293 -85 293 -21 L293 450 Z M164 397 C207 397 226 346 226 228 C226 99 212 57 169 57 C125 57 106 106 106 224 C106 347 123 397 164 397 L164 397 Z M96 536 L136 510 L232 622 L177 662 L96 536 Z " />
<glyph glyph-name="Aringacute" unicode="&#x1fa;" horiz-adv-x="343" d="M139 667 L1 0 L77 0 L102 134 L239 134 L264 0 L341 0 L203 667 L139 667 Z M227 195 L113 195 L142 356 C157 440 165 495 170 560 C175 495 182 440 195 366 L227 195 Z M174 833 C133 833 99 799 99 758 C99 717 133 683 173 683 C215 683 249 716 249 757 C249 800 216 833 174 833 L174 833 Z M174 790 C192 790 206 776 206 758 C206 740 192 726 174 726 C157 726 142 741 142 758 C142 776 156 790 174 790 L174 790 Z M165 952 L73 847 L107 816 L213 905 L165 952 Z " />
<glyph glyph-name="aringacute" unicode="&#x1fb;" horiz-adv-x="340" d="M291 450 L221 450 L221 409 C199 444 178 457 144 457 C110 457 78 439 63 410 C43 372 34 316 34 221 C34 126 51 47 76 21 C94 3 117 -7 142 -7 C177 -7 199 8 221 47 L221 0 L291 0 L291 450 Z M166 397 C209 397 225 351 225 229 C225 100 209 54 166 54 C121 54 106 99 106 232 C106 350 123 397 166 397 L166 397 Z M174 655 C133 655 100 622 100 581 C100 540 133 506 173 506 C215 506 248 539 248 580 C248 622 215 655 174 655 L174 655 Z M174 614 C192 614 207 599 207 580 C207 562 192 547 173 547 C156 547 141 562 141 581 C141 599 156 614 174 614 L174 614 Z M68 667 L108 641 L204 753 L149 792 L68 667 Z " />
<glyph glyph-name="AEacute" unicode="&#x1fc;" horiz-adv-x="487" d="M359 667 L137 667 L1 0 L78 0 L102 134 L246 134 L271 0 L490 0 L477 66 L336 66 L286 311 L420 311 L406 377 L273 377 L228 601 L372 601 L359 667 Z M236 194 L113 194 L147 381 C165 479 171 517 175 568 C181 507 188 458 196 412 L236 194 Z M286 856 L195 752 L229 720 L335 810 L286 856 Z " />
<glyph glyph-name="aeacute" unicode="&#x1fd;" horiz-adv-x="509" d="M477 212 C478 221 478 233 478 236 C478 375 430 457 350 457 C307 457 274 434 253 390 C227 439 197 457 144 457 C112 457 87 450 56 433 L56 360 C90 382 110 390 136 390 C189 390 216 357 218 292 L218 281 C218 281 219 271 219 262 C201 284 175 295 143 295 C73 295 32 239 32 143 C32 48 74 -7 145 -7 C194 -7 228 17 249 66 C270 17 303 -7 350 -7 C426 -7 469 50 474 155 L408 155 L408 143 C408 89 386 54 353 54 C308 54 287 103 285 212 L477 212 Z M287 266 L287 277 C287 308 295 346 307 371 C315 387 331 397 347 397 C383 397 408 349 408 281 C408 279 408 271 407 266 L287 266 Z M161 239 C201 239 223 205 223 144 C223 88 199 53 161 53 C122 53 101 86 101 148 C101 208 122 239 161 239 L161 239 Z M212 536 L252 510 L348 622 L294 662 L212 536 Z " />
<glyph glyph-name="Oslashacute" unicode="&#x1fe;" horiz-adv-x="420" d="M398 656 L353 679 L324 620 C296 658 259 676 210 676 C94 676 41 573 41 348 C41 241 50 160 69 106 L20 7 L65 -16 L96 49 C122 12 165 -9 214 -9 C264 -9 308 16 332 58 C365 115 379 196 379 329 C379 426 370 507 352 562 L398 656 Z M294 461 C299 400 300 370 300 326 C300 130 277 63 211 63 C179 63 156 82 142 120 L294 461 Z M127 205 C121 250 119 286 119 343 C119 534 144 605 210 605 C245 605 266 587 279 547 L127 205 Z M230 856 L139 752 L173 720 L279 810 L230 856 Z " />
<glyph glyph-name="oslashacute" unicode="&#x1ff;" horiz-adv-x="340" d="M325 439 L287 462 L260 417 C233 446 209 457 172 457 C81 457 35 381 35 229 C35 171 41 128 55 79 L16 13 L53 -11 L81 34 C105 6 133 -7 172 -7 C263 -7 306 66 306 220 C306 286 300 334 286 370 L325 439 Z M229 288 C232 261 233 231 233 207 C233 104 214 55 173 55 C151 55 134 69 125 94 L229 288 Z M112 162 C110 201 109 235 109 251 C109 343 131 393 170 393 C192 393 208 380 216 356 L112 162 Z M102 536 L142 510 L238 622 L184 662 L102 536 Z " />
<glyph glyph-name="uni0200" unicode="&#x200;" horiz-adv-x="343" d="M139 667 L1 0 L77 0 L102 134 L239 134 L264 0 L341 0 L203 667 L139 667 Z M227 195 L113 195 L142 356 C157 440 165 495 170 560 C175 495 182 440 195 366 L227 195 Z M110 720 L146 747 L66 861 L15 824 L110 720 Z M232 720 L267 747 L188 861 L137 824 L232 720 Z " />
<glyph glyph-name="uni0201" unicode="&#x201;" horiz-adv-x="340" d="M291 450 L221 450 L221 409 C199 444 178 457 144 457 C110 457 78 439 63 410 C43 372 34 316 34 221 C34 126 51 47 76 21 C94 3 117 -7 142 -7 C177 -7 199 8 221 47 L221 0 L291 0 L291 450 Z M166 397 C209 397 225 351 225 229 C225 100 209 54 166 54 C121 54 106 99 106 232 C106 350 123 397 166 397 L166 397 Z M167 532 L98 662 L48 630 L131 510 L167 532 Z M277 532 L208 662 L158 630 L241 510 L277 532 Z " />
<glyph glyph-name="Scommaaccent" unicode="&#x218;" horiz-adv-x="338" d="M282 647 C247 668 220 676 186 676 C93 676 31 607 31 503 C31 426 57 383 148 309 C222 250 239 223 239 169 C239 107 202 64 148 64 C115 64 88 77 51 109 L51 24 C80 2 114 -9 151 -9 C245 -9 314 69 314 175 C314 216 303 253 282 284 C268 306 249 324 196 368 C129 423 106 458 106 507 C106 565 143 606 195 606 C226 606 250 594 281 564 L282 647 Z M198 -68 L140 -45 L87 -186 L129 -204 L198 -68 Z " />
<glyph glyph-name="scommaaccent" unicode="&#x219;" horiz-adv-x="255" d="M220 434 C194 451 172 458 143 458 C74 458 26 410 26 340 C26 291 46 260 111 206 C158 168 169 151 169 120 C169 82 144 57 108 57 C83 57 64 66 34 92 L34 19 C63 0 85 -7 114 -7 C185 -7 237 47 237 123 C237 176 220 204 156 255 C109 292 95 312 95 340 C95 371 118 394 149 394 C174 394 197 383 220 360 L220 434 Z M155 -66 L99 -43 L46 -182 L85 -199 L155 -66 Z " />
<glyph glyph-name="uni021A" unicode="&#x21a;" horiz-adv-x="277" d="M277 667 L0 667 L0 599 L102 599 L102 0 L177 0 L177 599 L277 599 L277 667 Z M171 -68 L114 -45 L60 -186 L102 -204 L171 -68 Z " />
<glyph glyph-name="uni021B" unicode="&#x21b;" horiz-adv-x="199" d="M188 450 L128 450 L128 575 L58 575 L58 450 L11 450 L11 391 L58 391 L58 0 L128 0 L128 391 L188 391 L188 450 Z M125 -66 L69 -43 L16 -182 L55 -199 L125 -66 Z " />
<glyph glyph-name="uni0226" unicode="&#x226;" horiz-adv-x="343" d="M139 667 L1 0 L77 0 L102 134 L239 134 L264 0 L341 0 L203 667 L139 667 Z M227 195 L113 195 L142 356 C157 440 165 495 170 560 C175 495 182 440 195 366 L227 195 Z M172 826 C145 826 123 804 123 777 C123 751 145 729 171 729 C198 729 220 750 220 777 C220 804 199 826 172 826 L172 826 Z " />
<glyph glyph-name="uni0227" unicode="&#x227;" horiz-adv-x="340" d="M291 450 L221 450 L221 409 C199 444 178 457 144 457 C110 457 78 439 63 410 C43 372 34 316 34 221 C34 126 51 47 76 21 C94 3 117 -7 142 -7 C177 -7 199 8 221 47 L221 0 L291 0 L291 450 Z M166 397 C209 397 225 351 225 229 C225 100 209 54 166 54 C121 54 106 99 106 232 C106 350 123 397 166 397 L166 397 Z M175 615 C148 615 126 593 126 566 C126 539 148 517 174 517 C202 517 224 539 224 566 C224 593 202 615 175 615 L175 615 Z " />
<glyph glyph-name="uni0237" unicode="&#x237;" horiz-adv-x="168" d="M120 450 L50 450 L50 -175 L120 -175 L120 450 Z " />
<glyph glyph-name="uni02BB" unicode="&#x2bb;" horiz-adv-x="204" d="M40 475 L107 450 L171 674 L127 691 L40 475 Z " />
<glyph glyph-name="afii57929" unicode="&#x2bc;" horiz-adv-x="204" d="M171 657 L104 682 L40 457 L84 441 L171 657 Z " />
<glyph glyph-name="circumflex" unicode="&#x2c6;" horiz-adv-x="500" d="M250 662 L140 547 L182 510 L250 582 L320 510 L360 547 L250 662 Z " />
<glyph glyph-name="caron" unicode="&#x2c7;" horiz-adv-x="500" d="M250 510 L360 626 L320 662 L250 590 L182 662 L140 626 L250 510 Z " />
<glyph glyph-name="uni02C9" unicode="&#x2c9;" horiz-adv-x="500" d="M143 533 L356 533 L356 591 L143 591 L143 533 Z " />
<glyph glyph-name="breve" unicode="&#x2d8;" horiz-adv-x="500" d="M304 630 C298 587 281 567 249 567 C219 567 200 589 196 630 L142 630 C148 553 186 513 251 513 C316 513 353 553 358 630 L304 630 Z " />
<glyph glyph-name="dotaccent" unicode="&#x2d9;" horiz-adv-x="500" d="M250 615 C223 615 201 593 201 566 C201 539 223 517 249 517 C277 517 299 539 299 566 C299 593 277 615 250 615 L250 615 Z " />
<glyph glyph-name="ring" unicode="&#x2da;" horiz-adv-x="500" d="M251 655 C209 655 176 622 176 580 C176 540 209 506 249 506 C292 506 325 539 325 580 C325 622 292 655 251 655 L251 655 Z M250 614 C269 614 284 599 284 580 C284 562 269 547 250 547 C232 547 217 562 217 581 C217 599 232 614 250 614 L250 614 Z " />
<glyph glyph-name="ogonek" unicode="&#x2db;" horiz-adv-x="500" d="M304 0 C270 -34 257 -57 257 -85 C257 -127 289 -153 340 -153 C356 -153 367 -151 385 -144 L385 -95 C370 -101 359 -103 345 -103 C322 -103 308 -92 308 -73 C308 -51 323 -26 352 0 L304 0 Z " />
<glyph glyph-name="tilde" unicode="&#x2dc;" horiz-adv-x="500" d="M310 603 C311 602 311 601 311 600 C312 589 304 578 295 578 C288 578 278 581 268 586 C238 602 221 607 205 607 C165 607 143 580 137 525 L191 525 C191 540 198 550 208 550 C214 550 223 547 232 543 C266 526 281 521 299 521 C338 521 359 548 364 603 L310 603 Z " />
<glyph glyph-name="hungarumlaut" unicode="&#x2dd;" horiz-adv-x="500" d="M287 532 L323 510 L406 630 L356 662 L287 532 Z M177 532 L213 510 L296 630 L246 662 L177 532 Z " />
<glyph glyph-name="pi" unicode="&#x3c0;" horiz-adv-x="336" d="M281 386 L317 386 L317 450 L19 450 L19 386 L55 386 L55 0 L125 0 L125 386 L211 386 L211 0 L281 0 L281 386 Z " />
<glyph glyph-name="uni1E1E" unicode="&#x1e1e;" horiz-adv-x="302" d="M279 667 L53 667 L53 0 L129 0 L129 311 L268 311 L268 377 L129 377 L129 601 L279 601 L279 667 Z M167 826 C140 826 118 804 118 777 C118 751 140 729 166 729 C193 729 215 750 215 778 C215 804 193 826 167 826 L167 826 Z " />
<glyph glyph-name="Wgrave" unicode="&#x1e80;" horiz-adv-x="515" d="M513 667 L439 667 L387 327 C374 242 369 201 365 146 C364 150 363 154 363 156 C363 158 362 169 360 185 C357 217 353 245 343 316 L289 667 L228 667 L168 315 C161 276 154 219 146 143 C140 211 134 264 129 302 L76 667 L1 667 L112 0 L176 0 L238 359 C245 404 251 460 257 526 C262 467 267 417 276 361 L332 0 L396 0 L513 667 Z M218 856 L169 810 L275 720 L309 752 L218 856 Z " />
<glyph glyph-name="wgrave" unicode="&#x1e81;" horiz-adv-x="447" d="M438 450 L368 450 L325 231 C319 201 313 161 307 105 C301 159 296 198 295 199 L289 231 L253 450 L194 450 L155 229 C146 181 144 163 137 105 C133 154 127 195 119 241 L81 450 L8 450 L108 0 L166 0 L208 242 C215 283 219 313 222 352 L223 340 L225 324 L228 297 C229 287 230 275 233 261 L237 238 L278 0 L336 0 L438 450 Z M143 622 L239 510 L279 536 L198 662 L143 622 Z " />
<glyph glyph-name="Wacute" unicode="&#x1e82;" horiz-adv-x="515" d="M513 667 L439 667 L387 327 C374 242 369 201 365 146 C364 150 363 154 363 156 C363 158 362 169 360 185 C357 217 353 245 343 316 L289 667 L228 667 L168 315 C161 276 154 219 146 143 C140 211 134 264 129 302 L76 667 L1 667 L112 0 L176 0 L238 359 C245 404 251 460 257 526 C262 467 267 417 276 361 L332 0 L396 0 L513 667 Z M291 856 L199 752 L233 720 L339 810 L291 856 Z " />
<glyph glyph-name="wacute" unicode="&#x1e83;" horiz-adv-x="447" d="M438 450 L368 450 L325 231 C319 201 313 161 307 105 C301 159 296 198 295 199 L289 231 L253 450 L194 450 L155 229 C146 181 144 163 137 105 C133 154 127 195 119 241 L81 450 L8 450 L108 0 L166 0 L208 242 C215 283 219 313 222 352 L223 340 L225 324 L228 297 C229 287 230 275 233 261 L237 238 L278 0 L336 0 L438 450 Z M164 536 L204 510 L300 622 L245 662 L164 536 Z " />
<glyph glyph-name="Wdieresis" unicode="&#x1e84;" horiz-adv-x="515" d="M513 667 L439 667 L387 327 C374 242 369 201 365 146 C364 150 363 154 363 156 C363 158 362 169 360 185 C357 217 353 245 343 316 L289 667 L228 667 L168 315 C161 276 154 219 146 143 C140 211 134 264 129 302 L76 667 L1 667 L112 0 L176 0 L238 359 C245 404 251 460 257 526 C262 467 267 417 276 361 L332 0 L396 0 L513 667 Z M184 822 C158 822 137 801 137 775 C137 750 158 729 183 729 C209 729 230 749 230 775 C230 801 209 822 184 822 L184 822 Z M331 822 C305 822 284 801 284 775 C284 750 305 729 330 729 C356 729 377 750 377 776 C377 801 356 822 331 822 L331 822 Z " />
<glyph glyph-name="wdieresis" unicode="&#x1e85;" horiz-adv-x="447" d="M438 450 L368 450 L325 231 C319 201 313 161 307 105 C301 159 296 198 295 199 L289 231 L253 450 L194 450 L155 229 C146 181 144 163 137 105 C133 154 127 195 119 241 L81 450 L8 450 L108 0 L166 0 L208 242 C215 283 219 313 222 352 L223 340 L225 324 L228 297 C229 287 230 275 233 261 L237 238 L278 0 L336 0 L438 450 Z M155 611 C129 611 108 590 108 564 C108 538 129 517 154 517 C181 517 202 538 202 564 C202 590 181 611 155 611 L155 611 Z M292 611 C266 611 245 590 245 564 C245 538 266 517 291 517 C318 517 339 538 339 564 C339 590 318 611 292 611 L292 611 Z " />
<glyph glyph-name="Ygrave" unicode="&#x1ef2;" horiz-adv-x="329" d="M329 667 L249 667 L202 496 C186 436 178 402 171 356 C163 401 156 426 139 482 L134 497 L81 667 L0 667 L134 290 L134 0 L210 0 L210 290 L329 667 Z M143 856 L95 810 L201 720 L235 752 L143 856 Z " />
<glyph glyph-name="ygrave" unicode="&#x1ef3;" horiz-adv-x="310" d="M305 450 L233 450 L164 165 L161 155 C159 143 158 137 156 131 C154 122 154 121 153 112 C151 127 149 139 142 169 L81 450 L5 450 L119 25 L62 -173 L136 -173 L305 450 Z M87 622 L183 510 L223 536 L142 662 L87 622 Z " />
<glyph glyph-name="uni2011" unicode="&#x2011;" horiz-adv-x="148" d="M0 199 L148 199 L148 268 L0 268 L0 199 Z " />
<glyph glyph-name="figuredash" unicode="&#x2012;" horiz-adv-x="373" d="M61 199 L311 199 L311 267 L61 267 L61 199 Z " />
<glyph glyph-name="endash" unicode="&#x2013;" horiz-adv-x="373" d="M61 199 L311 199 L311 267 L61 267 L61 199 Z " />
<glyph glyph-name="emdash" unicode="&#x2014;" horiz-adv-x="430" d="M0 199 L430 199 L430 267 L0 267 L0 199 Z " />
<glyph glyph-name="afii00208" unicode="&#x2015;" horiz-adv-x="430" d="M0 199 L430 199 L430 267 L0 267 L0 199 Z " />
<glyph glyph-name="underscoredbl" unicode="&#x2017;" horiz-adv-x="500" d="M0 -57 L0 -104 L500 -104 L500 -57 L0 -57 Z M0 -174 L0 -221 L500 -221 L500 -174 L0 -174 Z " />
<glyph glyph-name="quoteleft" unicode="&#x2018;" horiz-adv-x="204" d="M40 475 L107 450 L171 674 L127 691 L40 475 Z " />
<glyph glyph-name="quoteright" unicode="&#x2019;" horiz-adv-x="204" d="M171 657 L104 682 L40 457 L84 441 L171 657 Z " />
<glyph glyph-name="quotesinglbase" unicode="&#x201a;" horiz-adv-x="204" d="M164 63 L97 88 L33 -136 L77 -152 L164 63 Z " />
<glyph glyph-name="quotereversed" unicode="&#x201b;" horiz-adv-x="500" d="M301 533 L231 667 L192 650 L245 510 L301 533 Z " />
<glyph glyph-name="quotedblleft" unicode="&#x201c;" horiz-adv-x="324" d="M160 475 L227 450 L291 674 L247 691 L160 475 Z M40 475 L107 450 L171 674 L127 691 L40 475 Z " />
<glyph glyph-name="quotedblright" unicode="&#x201d;" horiz-adv-x="324" d="M171 657 L104 682 L40 457 L84 441 L171 657 Z M291 657 L224 682 L160 457 L204 441 L291 657 Z " />
<glyph glyph-name="quotedblbase" unicode="&#x201e;" horiz-adv-x="324" d="M164 63 L97 88 L33 -136 L77 -152 L164 63 Z M284 63 L217 88 L153 -136 L197 -152 L284 63 Z " />
<glyph glyph-name="dagger" unicode="&#x2020;" horiz-adv-x="373" d="M153 -172 L221 -172 L221 473 L313 473 L313 533 L221 533 L221 731 L153 731 L153 533 L60 533 L60 473 L153 473 L153 -172 Z " />
<glyph glyph-name="daggerdbl" unicode="&#x2021;" horiz-adv-x="373" d="M153 485 L153 245 L60 245 L60 185 L153 185 L153 -172 L221 -172 L221 185 L313 185 L313 245 L221 245 L221 485 L313 485 L313 545 L221 545 L221 731 L153 731 L153 545 L60 545 L60 485 L153 485 Z " />
<glyph glyph-name="bullet" unicode="&#x2022;" horiz-adv-x="667" d="M336 480 C258 480 196 418 196 341 C196 263 257 200 334 200 C410 200 471 263 471 340 C471 416 410 480 336 480 L336 480 Z " />
<glyph glyph-name="ellipsis" unicode="&#x2026;" horiz-adv-x="525" d="M87 91 C60 91 38 69 38 43 C38 15 60 -7 87 -7 C114 -7 136 15 136 42 C136 69 114 91 87 91 L87 91 Z M262 91 C235 91 213 69 213 43 C213 15 235 -7 262 -7 C289 -7 311 15 311 42 C311 69 289 91 262 91 L262 91 Z M437 91 C410 91 388 69 388 43 C388 15 410 -7 437 -7 C464 -7 486 15 486 42 C486 69 464 91 437 91 L437 91 Z " />
<glyph glyph-name="perthousand" unicode="&#x2030;" horiz-adv-x="851" d="M145 666 C74 666 30 601 30 497 C30 398 72 335 139 335 C207 335 250 402 250 506 C250 606 211 666 145 666 L145 666 Z M141 626 C180 626 201 582 201 503 C201 427 176 375 139 375 C102 375 78 423 78 498 C78 574 104 626 141 626 L141 626 Z M492 663 L444 663 L82 -5 L130 -5 L492 663 Z M439 323 C368 323 324 259 324 153 C324 54 366 -8 434 -8 C502 -8 544 57 544 161 C544 262 504 323 439 323 L439 323 Z M437 283 C474 283 496 238 496 165 C496 85 472 32 436 32 C397 32 373 79 373 155 C373 233 398 283 437 283 L437 283 Z M716 323 C645 323 601 258 601 153 C601 54 643 -8 711 -8 C779 -8 821 58 821 163 C821 263 781 323 716 323 L716 323 Z M714 283 C750 283 772 239 772 166 C772 84 748 32 712 32 C674 32 650 80 650 155 C650 232 675 283 714 283 L714 283 Z " />
<glyph glyph-name="guilsinglleft" unicode="&#x2039;" horiz-adv-x="217" d="M183 405 L144 427 L33 235 L140 39 L179 61 L85 235 L183 405 Z " />
<glyph glyph-name="guilsinglright" unicode="&#x203a;" horiz-adv-x="217" d="M33 405 L131 235 L38 61 L76 39 L183 235 L72 427 L33 405 Z " />
<glyph glyph-name="uni203E" unicode="&#x203e;" horiz-adv-x="500" d="M0 863 L0 797 L500 797 L500 863 L0 863 Z " />
<glyph glyph-name="fraction" unicode="&#x2044;" horiz-adv-x="121" d="M239 667 L192 667 L-118 0 L-70 0 L239 667 Z " />
<glyph glyph-name="franc" unicode="&#x20a3;" horiz-adv-x="373" d="M280 667 L54 667 L54 0 L130 0 L130 311 L269 311 L269 377 L130 377 L130 601 L280 601 L280 667 Z M252 283 L252 0 L310 0 L310 161 C310 211 322 230 354 230 C358 230 361 230 369 229 L369 292 C344 291 334 283 310 248 L310 283 L252 283 Z " />
<glyph glyph-name="lira" unicode="&#x20a4;" horiz-adv-x="373" d="M42 197 L146 197 C148 184 148 179 148 173 C148 150 142 130 126 104 C118 105 114 105 111 105 C75 105 42 75 28 31 L87 2 C95 25 107 37 123 37 C133 37 149 31 165 22 C210 -5 234 -14 259 -14 C304 -14 336 18 349 73 L287 93 C280 65 270 53 253 53 C239 53 221 61 196 78 C189 83 187 84 184 86 C200 113 214 159 214 187 C214 190 214 192 213 197 L282 197 L282 245 L205 245 C198 266 194 278 182 303 L282 303 L282 351 L159 351 C127 423 116 461 116 505 C116 561 150 600 201 600 C249 600 276 566 277 504 L341 527 C336 613 283 666 201 666 C106 666 44 598 44 493 C44 447 54 409 81 351 L42 351 L42 303 L105 303 C107 298 107 298 111 292 C122 271 128 258 134 245 L42 245 L42 197 Z " />
<glyph glyph-name="peseta" unicode="&#x20a7;" horiz-adv-x="595" d="M129 0 L129 308 L142 308 C194 308 228 314 253 328 C296 353 318 406 318 486 C318 568 296 623 252 647 C226 662 199 667 152 667 L53 667 L53 0 L129 0 Z M129 601 L144 601 C215 601 240 570 240 482 C240 431 227 396 203 384 C189 377 172 374 145 374 C143 374 136 374 129 375 L129 601 Z M415 286 L378 286 L378 364 L320 364 L320 286 L293 286 L293 235 L320 235 L320 0 L378 0 L378 235 L415 235 L415 286 Z M575 276 C555 287 537 292 516 292 C470 292 435 259 435 215 C435 183 451 159 492 130 C519 110 529 96 529 79 C529 59 516 47 494 47 C478 47 465 53 440 71 L440 12 C461 0 479 -5 499 -5 C549 -5 586 31 586 79 C586 113 572 135 532 164 C504 183 493 198 493 213 C493 229 505 240 522 240 C537 240 553 234 565 224 L570 220 C570 220 572 218 575 216 L575 276 Z " />
<glyph glyph-name="Euro" unicode="&#x20ac;" horiz-adv-x="560" d="M27 419 L4 362 L79 362 C78 339 78 338 78 307 L78 304 L27 304 L4 247 L84 247 C114 76 203 -13 347 -13 C405 -13 466 2 510 27 L510 125 C429 82 395 71 349 71 C263 71 204 132 183 247 L393 247 L416 304 L174 304 L174 325 C174 338 174 348 175 362 L441 362 L465 419 L185 419 C206 529 264 591 346 591 C398 591 438 575 510 526 L544 608 C480 654 421 674 352 674 C211 674 119 586 86 419 L27 419 Z " />
<glyph glyph-name="uni2101" unicode="&#x2101;" horiz-adv-x="679" d="M115 667 L28 267 L82 267 L98 345 L177 345 L192 267 L247 267 L160 667 L115 667 Z M169 388 L106 388 L115 437 C127 500 133 531 133 538 C134 544 135 552 137 565 C141 535 145 509 149 485 L169 388 Z M521 667 L474 667 L195 0 L242 0 L521 667 Z M622 385 C599 398 581 403 558 403 C501 403 460 360 460 300 C460 252 477 224 534 181 C577 148 588 132 588 103 C588 68 567 45 535 45 C514 45 498 53 472 75 L472 16 C492 2 513 -5 537 -5 C597 -5 642 42 642 105 C642 151 626 175 567 221 C528 251 513 273 513 301 C513 332 535 355 565 355 C585 355 599 348 622 326 L622 385 Z " />
<glyph glyph-name="afii61248" unicode="&#x2105;" horiz-adv-x="181" d="M90 387 C65 387 43 366 43 341 C43 314 64 293 91 293 C117 293 138 314 138 340 C138 366 117 387 90 387 L90 387 Z " />
<glyph glyph-name="afii61289" unicode="&#x2113;" horiz-adv-x="500" d="M249 269 C298 320 321 348 344 380 C395 454 425 536 425 602 C425 648 400 679 362 679 C328 679 299 657 271 607 C235 545 198 424 167 258 C143 231 129 217 116 206 C102 194 96 186 96 179 C96 171 103 163 110 163 C116 163 131 174 150 193 L159 202 C149 106 149 100 149 71 C149 19 175 -14 215 -14 C238 -14 254 -7 274 14 C301 42 317 71 318 94 C318 102 313 108 305 108 C297 108 292 103 286 90 C270 54 253 35 235 35 C224 35 217 43 217 58 C217 94 221 119 247 256 L249 269 Z M261 333 C300 557 327 639 362 639 C376 639 386 622 386 596 C386 517 340 420 261 333 L261 333 Z " />
<glyph glyph-name="afii61352" unicode="&#x2116;" horiz-adv-x="625" d="M347 667 L275 667 L275 325 C275 268 279 216 288 147 C273 208 260 256 242 307 L122 667 L53 667 L53 0 L124 0 L122 353 C120 420 116 494 112 524 L116 507 L122 485 L132 443 C134 432 143 402 154 370 L278 0 L347 0 L347 667 Z M506 448 C442 448 405 394 405 298 C405 203 442 149 507 149 C571 149 606 200 606 295 C606 397 573 448 506 448 L506 448 Z M506 394 C529 394 542 359 542 298 C542 237 529 203 506 203 C483 203 469 238 469 299 C469 360 483 394 506 394 L506 394 Z M606 111 L405 111 L405 48 L606 48 L606 111 Z " />
<glyph glyph-name="uni2117" unicode="&#x2117;" horiz-adv-x="123" d="M90 541 L33 541 L33 267 L90 267 L90 541 Z M61 647 C40 647 23 631 23 612 C23 593 40 577 60 577 C81 577 98 592 98 612 C98 631 81 647 61 647 L61 647 Z " />
<glyph glyph-name="trademark" unicode="&#x2122;" horiz-adv-x="476" d="M175 667 L3 667 L3 622 L64 622 L64 287 L116 287 L116 622 L175 622 L175 667 Z M417 667 L372 667 L331 450 L328 437 C327 433 325 423 323 410 L322 400 C318 422 316 431 315 436 L312 449 L271 667 L226 667 L182 287 L232 287 L256 530 C259 511 262 497 264 487 L302 287 L341 287 L387 529 L408 287 L460 287 L417 667 Z " />
<glyph glyph-name="uni2126" unicode="&#x2126;" horiz-adv-x="667" d="M28 0 L290 0 L290 61 C167 130 107 227 107 354 C107 503 205 615 334 615 C391 615 439 594 483 549 C535 496 559 434 559 353 C559 226 500 131 377 61 L377 0 L638 0 L638 68 L462 68 C581 138 638 233 638 362 C638 543 506 683 333 683 C161 683 28 543 28 362 C28 233 84 139 205 68 L28 68 L28 0 Z " />
<glyph glyph-name="estimated" unicode="&#x212e;" horiz-adv-x="597" d="M531 250 C529 323 524 358 510 394 C477 474 400 522 304 522 C161 522 71 418 71 254 C71 92 158 -6 303 -6 C412 -6 486 45 516 142 L472 142 C440 73 384 38 304 38 C259 38 222 50 197 73 C178 89 169 106 157 145 L158 250 L531 250 Z M458 285 L160 285 L160 378 C194 452 232 478 304 478 C361 478 400 460 435 419 C447 405 451 398 458 378 L458 285 Z " />
<glyph glyph-name="partialdiff" unicode="&#x2202;" horiz-adv-x="500" d="M84 605 C157 597 214 573 279 523 C332 478 353 445 385 361 C343 413 301 434 238 434 C122 434 30 337 30 215 C30 91 129 -11 251 -11 C327 -11 396 30 435 97 C458 137 469 185 469 245 C469 404 397 542 277 613 C226 643 176 659 94 670 L84 605 Z M255 378 C335 378 394 309 394 216 C394 120 331 45 249 45 C170 45 104 120 104 210 C104 305 170 378 255 378 L255 378 Z " />
<glyph glyph-name="emptyset" unicode="&#x2205;" horiz-adv-x="618" d="M439 667 L392 578 C362 588 340 592 311 592 C175 592 67 485 67 349 C67 267 103 200 175 147 L114 25 L162 0 L225 123 C248 112 271 107 303 107 C443 107 552 214 552 350 C552 432 513 502 439 554 L487 642 L439 667 Z M416 502 C465 472 496 412 496 349 C496 247 412 164 309 164 C290 164 275 166 251 172 L416 502 Z M200 198 C150 239 123 291 123 349 C123 452 208 535 312 535 C332 535 345 533 366 527 L200 198 Z " />
<glyph glyph-name="Delta" unicode="&#x2206;" horiz-adv-x="667" d="M27 0 L639 0 L371 667 L293 667 L27 0 Z M132 68 L332 578 L532 68 L132 68 Z " />
<glyph glyph-name="product" unicode="&#x220f;" horiz-adv-x="699" d="M37 750 L37 682 L116 682 L116 -182 L37 -182 L37 -250 L271 -250 L271 -182 L189 -182 L189 682 L510 682 L510 -182 L428 -182 L428 -250 L663 -250 L663 -182 L583 -182 L583 682 L663 682 L663 750 L37 750 Z " />
<glyph glyph-name="summation" unicode="&#x2211;" horiz-adv-x="667" d="M598 750 L28 750 L28 675 L276 270 L28 -174 L28 -250 L608 -250 L608 -23 L538 -23 L534 -182 L110 -182 L362 270 L110 681 L525 681 L531 521 L598 521 L598 750 Z " />
<glyph glyph-name="minus" unicode="&#x2212;" horiz-adv-x="373" d="M34 308 L340 308 L340 373 L34 373 L34 308 Z " />
<glyph glyph-name="uni2215" unicode="&#x2215;" horiz-adv-x="121" d="M239 667 L192 667 L-118 0 L-70 0 L239 667 Z " />
<glyph glyph-name="uni2218" unicode="&#x2218;" horiz-adv-x="500" d="M253 480 C175 480 113 418 113 341 C113 263 174 200 251 200 C327 200 388 263 388 340 C388 416 327 480 253 480 L253 480 Z M252 433 C301 433 341 391 341 340 C341 289 301 247 251 247 C201 247 160 289 160 341 C160 392 201 433 252 433 L252 433 Z " />
<glyph glyph-name="uni2219" unicode="&#x2219;" horiz-adv-x="182" d="M91 284 C64 284 42 262 42 236 C42 208 64 186 91 186 C118 186 140 208 140 235 C140 262 118 284 91 284 L91 284 Z " />
<glyph glyph-name="radical" unicode="&#x221a;" horiz-adv-x="667" d="M667 829 L408 829 L300 442 L257 292 L233 186 C228 164 223 142 218 121 C218 119 216 112 214 100 L208 100 L205 116 C186 213 185 221 180 239 L143 367 L0 367 L0 299 L83 299 L165 0 L256 0 L471 761 L667 761 L667 829 Z " />
<glyph glyph-name="infinity" unicode="&#x221e;" horiz-adv-x="667" d="M335 291 C383 219 434 187 498 187 C586 187 648 250 648 340 C648 430 586 494 498 494 C432 494 381 462 332 390 C284 461 231 494 168 494 C82 494 18 429 18 342 C18 251 80 187 168 187 C233 187 283 219 335 291 L335 291 Z M370 341 C412 405 446 431 488 431 C538 431 575 393 575 341 C575 288 539 250 489 250 C445 250 412 275 370 341 L370 341 Z M296 340 C254 276 220 250 178 250 C128 250 91 289 91 340 C91 393 127 431 176 431 C221 431 254 406 296 340 L296 340 Z " />
<glyph glyph-name="integral" unicode="&#x222b;" horiz-adv-x="500" d="M95 -239 C115 -246 128 -248 153 -248 C208 -248 249 -229 269 -194 C283 -168 286 -146 286 -50 L286 531 C286 625 287 628 289 641 C294 670 313 684 343 684 C358 684 368 682 388 674 L404 740 C373 748 358 750 336 750 C291 750 258 735 235 704 C217 679 213 653 213 550 L213 -63 C213 -127 211 -145 203 -160 C196 -174 177 -183 156 -183 C141 -183 131 -181 111 -174 L95 -239 Z " />
<glyph glyph-name="similar" unicode="&#x223c;" horiz-adv-x="500" d="M53 264 C81 315 107 338 139 338 C156 338 181 331 207 320 C307 274 316 271 351 271 C378 271 414 286 437 306 C458 325 471 344 491 384 L446 410 C416 358 393 341 356 341 C334 341 306 350 259 373 C210 397 175 408 146 408 C88 408 49 375 10 292 L53 264 Z " />
<glyph glyph-name="approxequal" unicode="&#x2248;" horiz-adv-x="500" d="M53 348 C80 398 107 421 139 421 C157 421 181 414 207 403 C307 357 316 354 351 354 C378 354 414 368 437 389 C458 409 471 427 491 467 L446 493 C416 441 394 424 356 424 C333 424 306 433 259 456 C210 480 175 491 147 491 C88 491 49 458 10 376 L53 348 Z M53 180 C81 231 107 254 139 254 C156 254 181 247 207 236 C307 190 316 187 351 187 C378 187 414 202 437 222 C458 241 471 260 491 300 L446 326 C416 274 393 257 357 257 C334 257 306 266 259 289 C210 313 175 324 147 324 C88 324 49 291 10 208 L53 180 Z " />
<glyph glyph-name="notequal" unicode="&#x2260;" horiz-adv-x="500" d="M272 448 L33 448 L33 382 L242 382 L197 291 L33 291 L33 226 L167 226 L123 132 L173 112 L228 226 L467 226 L467 291 L258 291 L302 382 L467 382 L467 448 L333 448 L377 540 L326 560 L272 448 Z " />
<glyph glyph-name="lessequal" unicode="&#x2264;" horiz-adv-x="500" d="M466 610 L33 414 L33 350 L466 156 L466 226 L112 383 L466 540 L466 610 Z M466 126 L33 126 L33 58 L466 58 L466 126 Z " />
<glyph glyph-name="greaterequal" unicode="&#x2265;" horiz-adv-x="500" d="M33 156 L466 350 L466 414 L33 610 L33 540 L388 383 L33 226 L33 156 Z M33 58 L466 58 L466 126 L33 126 L33 58 Z " />
<glyph glyph-name="lozenge" unicode="&#x25ca;" horiz-adv-x="667" d="M334 693 L74 334 L334 -26 L593 334 L334 693 Z M334 555 L495 334 L334 112 L172 334 L334 555 Z " />
<glyph glyph-name="ff" unicode="&#xfb00;" horiz-adv-x="391" d="M177 450 L131 450 L131 593 C131 630 132 641 138 652 C143 661 156 668 170 668 C182 668 189 665 207 654 L207 728 C186 736 172 739 154 739 C89 739 61 701 61 612 L61 450 L15 450 L15 391 L61 391 L61 0 L131 0 L131 391 L177 391 L177 450 Z M386 450 L312 450 L312 593 C312 630 313 641 319 652 C324 661 337 668 350 668 C362 668 371 665 388 654 L388 728 C367 736 353 739 334 739 C270 739 242 700 242 612 L242 450 L201 450 L201 391 L242 391 L242 0 L312 0 L312 391 L386 391 L386 450 Z " />
<glyph glyph-name="fi" unicode="&#xfb01;" horiz-adv-x="361" d="M205 450 L131 450 L131 593 C131 630 132 641 138 652 C143 661 156 668 169 668 C181 668 190 665 207 654 L207 728 C186 736 172 739 154 739 C89 739 61 701 61 612 L61 450 L15 450 L15 391 L61 391 L61 0 L131 0 L131 391 L205 391 L205 450 Z M312 450 L242 450 L242 0 L312 0 L312 450 Z M276 633 C248 633 226 611 226 584 C226 557 248 535 275 535 C302 535 324 557 324 584 C324 611 302 633 276 633 L276 633 Z " />
<glyph glyph-name="fl" unicode="&#xfb02;" horiz-adv-x="361" d="M205 450 L131 450 L131 593 C131 630 132 641 138 652 C143 662 156 668 169 668 C181 668 190 665 207 654 L207 729 C186 736 172 739 153 739 C119 739 91 724 76 698 C66 681 61 652 61 612 L61 450 L15 450 L15 391 L61 391 L61 0 L131 0 L131 391 L205 391 L205 450 Z M312 731 L242 731 L242 0 L312 0 L312 731 Z " />
<glyph glyph-name="ffi" unicode="&#xfb03;" horiz-adv-x="542" d="M177 450 L131 450 L131 593 C131 630 132 641 138 652 C143 661 156 668 170 668 C182 668 189 665 207 654 L207 728 C186 736 172 739 154 739 C89 739 61 701 61 612 L61 450 L15 450 L15 391 L61 391 L61 0 L131 0 L131 391 L177 391 L177 450 Z M386 450 L312 450 L312 593 C312 630 313 641 319 652 C324 661 337 668 350 668 C362 668 371 665 388 654 L388 728 C367 736 353 739 334 739 C270 739 242 700 242 612 L242 450 L201 450 L201 391 L242 391 L242 0 L312 0 L312 391 L386 391 L386 450 Z M493 450 L423 450 L423 0 L493 0 L493 450 Z M457 633 C429 633 407 611 407 584 C407 557 429 535 456 535 C483 535 505 557 505 584 C505 611 483 633 457 633 L457 633 Z " />
<glyph glyph-name="ffl" unicode="&#xfb04;" horiz-adv-x="542" d="M177 450 L131 450 L131 593 C131 630 132 641 138 652 C143 662 156 668 170 668 C182 668 189 665 207 654 L207 729 C186 736 173 739 154 739 C89 739 61 701 61 612 L61 450 L15 450 L15 391 L61 391 L61 0 L131 0 L131 391 L177 391 L177 450 Z M386 450 L312 450 L312 593 C312 630 313 641 319 652 C324 662 337 668 350 668 C362 668 371 665 388 654 L388 729 C367 736 353 739 334 739 C270 739 242 700 242 612 L242 450 L201 450 L201 391 L242 391 L242 0 L312 0 L312 391 L386 391 L386 450 Z M493 731 L423 731 L423 0 L493 0 L493 731 Z " />
</font>
</svg>
