<?xml version="1.0" standalone="no"?>
<!DOCTYPE svg PUBLIC "-//W3C//DTD SVG 1.1//EN" "http://www.w3.org/Graphics/SVG/1.1/DTD/svg11.dtd" >
<svg xmlns="http://www.w3.org/2000/svg">
<metadata>
Created by FontPrep 20130207 at Tue Jul 25 16:14:56 2017
 By Louise Stroud
Copyright (c) 2017 by Emil Bertell. All rights reserved.
</metadata>
<defs>
<font id="f2aec40fa49e4521d7f49dc7d5bcce1a" horiz-adv-x='1024' >
  <font-face 
    font-family="Karu-Italic"
    font-weight="400"
    font-style="italic"
    font-stretch="normal"
    units-per-em="2048"
    panose-1="0 0 5 0 0 0 0 0 0 0"
    ascent="1638"
    descent="-410"
    x-height="975"
    cap-height="1423"
    bbox="-1438 -664 2597 2097"
    underline-thickness="102"
    underline-position="-102"
    slope="-9.5"
    unicode-range="U+0020-FB02"
  />
<missing-glyph horiz-adv-x="1015" 
d="M676 -135h-338v-66h143l-143 -96v-68h338v68h-207l141 96h66v66zM608 74v-94h-202v94h202zM676 141h-338v-229h338v229zM676 494h-203v-115h70v47h65v-96h-202v164h-68v-230h338v230zM676 739h-68v-133h-270v-69h338v202zM676 862h-338v-67h135v-74h-135v-68h205v142h133
v67zM473 1059v-74h-67v74h67zM543 1128h-205v-210h338v67h-133v143zM676 1391h-336v-68h133v-76h-135v-65h338v65h-133v76h133v68zM831 1526v-2030h-643v2030h643z" />
    <glyph glyph-name="fi" unicode="fi" horiz-adv-x="1050" 
d="M718 1556q184 0 331 -83l-70 -142q-103 72 -231 72q-128 1 -189 -59t-90 -228l-23 -141h551l-161 -975h-179l138 823h-375l-209 -1267h-176l209 1267h-144l23 152h147l23 141q41 250 141 345t284 95z" />
    <glyph glyph-name="fl" unicode="fl" horiz-adv-x="1040" 
d="M735 1556q81 0 185 -18t157 -47l-243 -1491h-179l226 1384q-61 18 -155 18t-162 -58q-68 -60 -91 -205l-27 -164h189l-25 -152h-190l-209 -1267h-176l209 1267h-144l23 152h145l31 190q37 219 147 305q111 86 289 86z" />
    <glyph glyph-name="f_b" unicode="fb" horiz-adv-x="1755" 
d="M1137 131q161 0 271 131q110 132 110 294t-70 224t-166 62q-225 0 -346 -211l-53 -326q35 -82 101 -128t153 -46zM1362 1006q135 0 236 -96t102 -294q0 -278 -154 -462t-397 -185q-205 0 -299 172l-33 -141h-164l230 1380q-68 23 -168 23q-199 0 -234 -217l-35 -211h195
l-23 -152h-196l-211 -1267h-176l209 1267h-144l23 152h145l37 227q59 354 408 354q219 0 366 -59l-110 -672q141 181 393 181z" />
    <glyph glyph-name="f_f_i" unicode="ffi" horiz-adv-x="1656" 
d="M627 1556q131 0 243 -69l-67 -135q-68 51 -144 51q-75 0 -115 -41t-57 -133l-41 -254h431l22 141q41 250 141 345t284 95t331 -83l-70 -142q-103 72 -231 72q-128 1 -189 -59t-90 -228l-22 -141h551l-162 -975h-178l137 823h-375l-209 -1267h-176l209 1267h-430
l-209 -1267h-176l209 1267h-144l23 152h145l45 270q53 311 314 311z" />
    <glyph glyph-name="f_f_l" unicode="ffl" horiz-adv-x="1611" 
d="M684 1403q-84 0 -133 -52t-68 -177l-32 -199h389l30 190q18 104 52 172q-100 66 -238 66zM1307 1556q82 0 185 -18t157 -47l-244 -1491h-178l225 1384q-60 18 -154 18t-162 -58q-68 -60 -92 -205l-26 -164h188l-24 -152h-191l-209 -1267h-176l209 1267h-391l-213 -1267
h-176l213 1267h-148l23 152h149l37 219q31 199 121 281t229 81q199 0 347 -98q106 98 301 98z" />
    <glyph glyph-name="f_h" unicode="fh" horiz-adv-x="1689" 
d="M1339 1006q149 0 215 -100t37 -273l-104 -635h-178l98 592q45 254 -160 254q-190 0 -311 -217l-102 -627l-179 2l226 1382q-59 20 -157 20t-160 -57q-62 -58 -87 -200l-28 -172h192l-23 -152h-194l-213 -1267h-176l209 1267h-144l23 152h145l35 205q35 211 141 294
q106 82 307 82t326 -65l-114 -705q136 220 376 220z" />
    <glyph glyph-name="f_k" unicode="fk" horiz-adv-x="1574" 
d="M754 1556q196 0 323 -65l-170 -1026l482 510h213l-365 -354l229 -621h-194l-176 485l-219 -213l-46 -272h-178l230 1386q-55 18 -153 18t-165 -58q-68 -59 -96 -226l-25 -145h197l-23 -152h-198l-209 -1267h-176l209 1267h-144l23 152h145l31 188q37 221 147 307
q112 86 308 86z" />
    <glyph glyph-name=".notdef" horiz-adv-x="1015" 
d="M676 -135h-338v-66h143l-143 -96v-68h338v68h-207l141 96h66v66zM608 74v-94h-202v94h202zM676 141h-338v-229h338v229zM676 494h-203v-115h70v47h65v-96h-202v164h-68v-230h338v230zM676 739h-68v-133h-270v-69h338v202zM676 862h-338v-67h135v-74h-135v-68h205v142h133
v67zM473 1059v-74h-67v74h67zM543 1128h-205v-210h338v67h-133v143zM676 1391h-336v-68h133v-76h-135v-65h338v65h-133v76h133v68zM831 1526v-2030h-643v2030h643z" />
    <glyph glyph-name=".null" 
 />
    <glyph glyph-name="nonmarkingreturn" horiz-adv-x="681" 
 />
    <glyph glyph-name="space" unicode=" " horiz-adv-x="417" 
 />
    <glyph glyph-name="exclam" unicode="!" horiz-adv-x="555" 
d="M76 100q0 56 44 100t102 44t94 -36t36 -94t-44 -100t-101 -43q-57 0 -94 36t-37 93zM518 1423l-184 -1038h-162l152 1038h194z" />
    <glyph glyph-name="quotedbl" unicode="&#x22;" horiz-adv-x="663" 
d="M752 1526l-131 -582h-136l78 582h189zM449 1526l-105 -582h-135l51 582h189z" />
    <glyph glyph-name="numbersign" unicode="#" horiz-adv-x="1284" 
d="M795 532l157 420h-379l-157 -420h379zM1284 952h-160l-157 -420h221l-47 -151h-232l-143 -381h-172l143 381h-377l-143 -381h-172l143 381h-149l45 151h160l157 420h-219l45 154h232l119 317h172l-119 -317h379l118 317h172l-118 -317h147z" />
    <glyph glyph-name="dollar" unicode="$" horiz-adv-x="999" 
d="M737 393q0 119 -129 193l-63 -393q86 16 139 67t53 133zM352 1040q0 -121 137 -194l64 393q-93 -11 -147 -61t-54 -138zM926 390q0 -158 -117 -258t-293 -114l-24 -149h-160l24 156q-199 27 -366 174l76 163q135 -139 319 -169l74 460q-145 63 -221 151t-76 216
q0 176 114 279q115 103 304 108l24 147h162l-27 -161q145 -27 291 -140l-84 -145q-113 94 -233 121l-74 -451q135 -59 211 -144q76 -86 76 -244z" />
    <glyph glyph-name="percent" unicode="%" horiz-adv-x="1609" 
d="M1174 94q98 0 173 80t75 174q-1 189 -169 191q-115 0 -189 -79q-74 -78 -73 -172q0 -94 43 -144q42 -50 140 -50zM1143 -31q-129 0 -205 79t-76 210q0 170 116 286t294 115q131 -1 205 -77t73 -209q0 -170 -118 -287t-289 -117zM264 1082q0 -193 184 -193q96 0 173 80
q75 80 75 174q-1 190 -168 190q-116 0 -190 -79t-74 -172zM362 0l795 1423h178l-792 -1423h-181zM416 764q-129 0 -205 80t-76 209q0 169 116 285t294 116q133 0 207 -78t73 -209q1 -171 -117 -287t-292 -116z" />
    <glyph glyph-name="ampersand" unicode="&#x26;" horiz-adv-x="1280" 
d="M463 121q176 0 330 84l-293 403q-125 -53 -193 -123q-67 -70 -67 -167t62 -147t161 -50zM940 1120q0 178 -212 178q-108 0 -180 -68t-71 -189q0 -120 119 -279q154 59 249 149t95 209zM418 -31q-170 0 -264 78t-94 226t98 258q100 110 274 174q-123 183 -123 353t125 283
t332 113q158 0 249 -77t91 -231t-126 -278q-126 -123 -316 -196l266 -365q152 152 188 389h162q-53 -307 -266 -503l141 -193h-213l-65 88q-201 -119 -459 -119z" />
    <glyph glyph-name="quotesingle" unicode="'" horiz-adv-x="360" 
d="M449 1526l-119 -582h-135l65 582h189z" />
    <glyph glyph-name="parenleft" unicode="(" horiz-adv-x="559" 
d="M569 1731l131 -95q-307 -399 -395 -974q-43 -270 -23 -540t107 -480l-156 -66q-96 209 -125 512q-59 598 181 1167q118 283 280 476z" />
    <glyph glyph-name="parenright" unicode=")" horiz-adv-x="561" 
d="M45 -438l-131 94q307 397 395 973q43 272 23 540t-107 482l156 63q96 -207 126 -511t-16 -594t-165 -572t-281 -475z" />
    <glyph glyph-name="asterisk" unicode="*" horiz-adv-x="811" 
d="M899 1155l-311 -59l164 -281l-142 -65l-102 315l-199 -289l-114 86l243 244l-291 113l74 135l262 -172l17 329l147 -14l-80 -319l303 120z" />
    <glyph glyph-name="plus" unicode="+" horiz-adv-x="1112" 
d="M1051 766l-25 -156h-367l-63 -399h-162l64 399h-369l25 156h368l60 381h161l-59 -381h367z" />
    <glyph glyph-name="comma" unicode="," horiz-adv-x="409" 
d="M295 64q0 -160 -102 -298t-254 -194l-50 100q209 84 271 297q-10 -2 -44 0t-62 32q-28 29 -28 89t45 100q44 40 103 39q121 -6 121 -165z" />
    <glyph glyph-name="hyphen" unicode="-" horiz-adv-x="813" 
d="M66 492l24 153h686l-24 -153h-686z" />
    <glyph glyph-name="period" unicode="." horiz-adv-x="432" 
d="M18 86q0 55 46 99t102 44q55 1 87 -31t32 -86t-48 -98q-47 -44 -103 -45q-56 0 -86 31t-30 86z" />
    <glyph glyph-name="slash" unicode="/" horiz-adv-x="940" 
d="M985 1671l-850 -1900h-180l850 1900h180z" />
    <glyph glyph-name="zero" unicode="0" horiz-adv-x="1292" 
d="M578 147q215 -1 357 217t142 525q0 201 -80 295q-81 94 -213 94t-249 -101t-183 -269t-65 -357q0 -404 291 -404zM559 -31q-217 -1 -343 139t-126 418q0 392 206 660t519 268q197 0 327 -134t130 -398t-81 -475q-81 -210 -248 -344t-384 -134z" />
    <glyph glyph-name="one" unicode="1" horiz-adv-x="581" 
d="M557 1423l-233 -1423h-185l207 1266l-162 -2l27 159h346z" />
    <glyph glyph-name="two" unicode="2" horiz-adv-x="1071" 
d="M827 1053q0 225 -229 225q-184 0 -375 -145l-61 149q231 172 485 172q169 0 275 -89t106 -278q0 -331 -422 -681l-295 -242h684l-28 -164h-932l26 156l357 305q209 170 309 306t100 286z" />
    <glyph glyph-name="three" unicode="3" horiz-adv-x="1042" 
d="M942 406q0 -205 -142 -321t-382 -116t-434 176l98 144q143 -141 340 -142q137 0 232 76q96 76 96 200t-84 181t-211 58h-97l25 135h92q129 0 239 83t109 210q0 96 -59 143t-158 47q-215 0 -395 -150l-53 154q223 170 508 170q144 0 252 -66t108 -231q0 -167 -98 -273
t-238 -153q112 -33 182 -116t70 -209z" />
    <glyph glyph-name="four" unicode="4" horiz-adv-x="1157" 
d="M213 436h522l133 805zM1112 436l-27 -151h-192l-47 -285h-184l47 285h-709l29 161l809 977h243l-163 -987h194z" />
    <glyph glyph-name="five" unicode="5" horiz-adv-x="1040" 
d="M620 858q148 0 250 -86t103 -270q0 -258 -152 -396q-151 -138 -403 -137q-252 0 -412 146l78 157q123 -125 344 -125q143 0 245 85q101 85 101 255q0 117 -58 175t-153 59q-176 0 -307 -131l-117 55l129 778h764l-28 -168h-586l-82 -485q136 88 284 88z" />
    <glyph glyph-name="six" unicode="6" horiz-adv-x="1187" 
d="M307 413q1 -124 71 -197t205 -73q135 -1 237 93t102 236t-74 200t-178 57q-147 0 -255 -96t-108 -220zM104 500q0 408 205 681t525 273q219 0 364 -137l-119 -137q-109 104 -256 104q-205 0 -351 -187t-167 -464q59 105 171 173t277 68q164 0 275 -117q90 -97 88 -265
q-2 -231 -154 -377q-153 -145 -401 -146q-199 0 -328 129t-129 402z" />
    <glyph glyph-name="seven" unicode="7" horiz-adv-x="968" 
d="M172 1423h864l-635 -1423h-206l587 1255h-639z" />
    <glyph glyph-name="eight" unicode="8" horiz-adv-x="1173" 
d="M514 143q180 0 282 79q101 79 101 205t-83 181q-84 56 -226 56t-242 -82t-100 -207q0 -232 268 -232zM958 1067q0 215 -268 215q-130 0 -218 -80t-87 -196q0 -222 238 -224q135 0 235 86t100 199zM1081 406q-1 -207 -157 -322t-435 -115q-193 0 -317 81t-123 255
q0 173 96 279t252 145q-193 86 -192 295q0 176 136 303t388 127q193 0 305 -85t113 -239q0 -154 -89 -256t-218 -149q115 -31 178 -113t63 -206z" />
    <glyph glyph-name="nine" unicode="9" horiz-adv-x="1165" 
d="M588 705q126 0 230 94q104 95 104 209t-75 193t-183 79q-140 0 -232 -106t-92 -228t61 -182q61 -59 187 -59zM686 1454q182 0 309 -135t127 -403q0 -556 -315 -816q-160 -131 -371 -131q-252 0 -430 172l98 158q129 -154 326 -154t325 165t156 458q-67 -96 -175 -152
t-248 -57q-140 0 -240 91t-101 263q1 217 149 379t390 162z" />
    <glyph glyph-name="colon" unicode=":" horiz-adv-x="432" 
d="M18 86q0 55 46 99t102 44q55 1 87 -31t32 -86t-48 -98q-47 -44 -103 -45q-56 0 -86 31t-30 86zM137 805q0 55 46 99q45 44 101 44t88 -32t32 -86t-49 -98q-48 -44 -103 -44t-85 31t-30 86z" />
    <glyph glyph-name="semicolon" unicode=";" horiz-adv-x="409" 
d="M295 64q0 -160 -102 -298t-254 -194l-50 100q209 84 271 297q-10 -2 -44 0t-62 32q-28 29 -28 89t45 100q44 40 103 39q121 -6 121 -165zM277 932q55 0 87 -32t32 -86t-49 -98q-48 -44 -103 -44t-85 30t-30 86q0 55 46 100q47 44 102 44z" />
    <glyph glyph-name="less" unicode="&#x3c;" horiz-adv-x="917" 
d="M936 1130l-29 -176l-717 -280l627 -289l-26 -176l-752 371l22 153l7 35z" />
    <glyph glyph-name="equal" unicode="=" horiz-adv-x="1126" 
d="M115 508h905l-25 -156h-905zM186 967h908l-25 -158h-907z" />
    <glyph glyph-name="greater" unicode="&#x3e;" horiz-adv-x="919" 
d="M944 768l-24 -152l-7 -36l-868 -371l27 176l719 289l-629 280l28 176z" />
    <glyph glyph-name="question" unicode="?" horiz-adv-x="987" 
d="M386 246q60 0 94 -36t34 -93t-46 -101t-106 -43q-60 0 -92 35q-32 34 -32 94t44 102t104 42zM616 1452q160 0 264 -91t105 -269q0 -178 -123 -293t-313 -140l-39 -235h-166l45 336q176 -2 291 83t115 208t-67 180t-163 55q-168 0 -315 -119l-76 131q188 154 442 154z" />
    <glyph glyph-name="at" unicode="@" horiz-adv-x="1826" 
d="M657 453q0 -97 45 -151t129 -54t165 56t114 163l23 129v10q-1 115 -53 170t-138 55q-129 -1 -207 -113t-78 -265zM1339 244q84 0 144 82q110 153 109 416q-1 262 -146 406t-381 144q-237 0 -433 -133t-300 -347t-104 -464t140 -400t428 -151q288 0 531 115l16 -121
q-262 -119 -573 -120t-494 169q-182 170 -182 472t126 552t358 401t510 151q280 0 459 -171q179 -170 179 -508t-189 -521q-99 -95 -232 -95q-88 0 -142 46q-53 46 -65 124q-60 -82 -148 -130t-198 -48q-110 1 -181 79q-72 78 -71 232q0 217 117 378q119 161 309 161
t243 -168l41 145h127l-82 -491q-37 -205 84 -205z" />
    <glyph glyph-name="A" unicode="A" horiz-adv-x="1253" 
d="M399 530h455l-113 707zM938 0l-59 377h-553l-183 -377h-186l711 1423h217l248 -1423h-195z" />
    <glyph glyph-name="B" unicode="B" horiz-adv-x="1255" 
d="M627 166q170 0 278.5 79t108.5 224q0 104 -65.5 155.5t-184.5 51.5h-379l-86 -510h328zM1032 1075q0 184 -235 185h-316l-75 -463h335q119 0 205 77.5t86 200.5zM1198 459q0 -219 -163 -339t-433 -120h-514l236 1423h536q174 0 269.5 -72.5t95.5 -214.5t-77 -242.5
t-210 -143.5q260 -47 260 -291z" />
    <glyph glyph-name="C" unicode="C" horiz-adv-x="1300" 
d="M679.5 -31q-131.5 0 -227.5 34t-177.5 103.5t-130 193.5t-48.5 290q0 233 100.5 428.5t293 315.5t460 120t445.5 -156l-115 -155q-139 133 -365 133q-270 0 -446 -194.5t-176 -479.5q0 -233 115.5 -342.5t267 -109.5t277.5 46t210 119l43 -174q-100 -78 -247.5 -125
t-279 -47z" />
    <glyph glyph-name="D" unicode="D" horiz-adv-x="1406" 
d="M508 170q256 0 452 150q100 76 160 214t60 320q0 403 -443 403h-254l-180 -1087h205zM768 1423q289 0 449.5 -137t160.5 -416q0 -215 -72.5 -385t-195.5 -273q-253 -212 -596 -212h-424l234 1423h444z" />
    <glyph glyph-name="E" unicode="E" horiz-adv-x="1122" 
d="M1206 1257h-723l-71 -436h571l-25 -153h-571l-82 -500h721l-27 -168h-909l234 1423h909z" />
    <glyph glyph-name="F" unicode="F" horiz-adv-x="1073" 
d="M1178 1255h-697l-73 -438h546l-24 -155h-547l-111 -662h-184l236 1423h882z" />
    <glyph glyph-name="G" unicode="G" horiz-adv-x="1423" 
d="M98 584q0 367 233.5 618.5t604.5 251.5q129 0 258 -45t215 -123l-127 -145q-158 139 -369 139q-270 0 -444 -197.5t-174 -488.5q0 -231 122 -339t309 -108t339 56l70 436h-390l25 149h578l-119 -733q-249 -86 -513 -86q-264 1 -432 133q-87 68 -136.5 191t-49.5 291z" />
    <glyph glyph-name="H" unicode="H" horiz-adv-x="1423" 
d="M1223 1423h184l-233 -1423h-185l109 664h-713l-111 -664h-184l234 1423h186l-98 -592h714z" />
    <glyph glyph-name="I" unicode="I" horiz-adv-x="524" 
d="M508 1423l-234 -1423h-184l234 1423h184z" />
    <glyph glyph-name="J" unicode="J" horiz-adv-x="913" 
d="M282 -31q-185 0 -331 121l69 164q106 -119 259 -119q242 0 294 311l164 977h185l-162 -981q-45 -260 -169 -366.5t-309 -106.5z" />
    <glyph glyph-name="K" unicode="K" horiz-adv-x="1232" 
d="M1335 1423l-547 -528l308 -895h-215l-252 741l-277 -266l-78 -475h-184l234 1423h186l-115 -698l717 698h223z" />
    <glyph glyph-name="L" unicode="L" horiz-adv-x="974" 
d="M301 168h606l-28 -168h-793l238 1423h186z" />
    <glyph glyph-name="M" unicode="M" horiz-adv-x="1673" 
d="M1434 1423h217l-226 -1423h-182l180 1083l-581 -1003h-142l-262 1038l-178 -1118h-170l234 1423h215l278 -1069z" />
    <glyph glyph-name="N" unicode="N" horiz-adv-x="1386" 
d="M1206 1423h168l-237 -1423h-179l-514 1110l-184 -1110h-170l234 1423h176l520 -1120z" />
    <glyph glyph-name="O" unicode="O" horiz-adv-x="1525" 
d="M688 150q270 0 447.5 207.5t177.5 473.5q0 219 -118 332t-294 113q-258 0 -434 -197.5t-176 -470.5q0 -231 111.5 -344.5t285.5 -113.5zM667 -31q-246 0 -409.5 151.5t-163.5 459.5q0 367 236.5 620.5t599.5 253.5q176 0 329 -92t215 -280q34 -104 35 -230
q0 -231 -100 -430t-298 -326t-444 -127z" />
    <glyph glyph-name="P" unicode="P" horiz-adv-x="1216" 
d="M688 674q186 0 283.5 98t97.5 256q0 111 -67.5 170t-188.5 59h-332l-96 -583h303zM862 1423q197 0 300.5 -95t103.5 -279q0 -248 -152.5 -393.5t-433.5 -145.5h-324l-84 -510h-186l238 1423h538z" />
    <glyph glyph-name="Q" unicode="Q" horiz-adv-x="1523" 
d="M1251 -326l-743 9l24 147l742 -8zM688 150q270 0 447.5 207.5t177.5 473.5q0 219 -118 332t-294 113q-258 0 -434 -197.5t-176 -470.5q0 -231 111.5 -344.5t285.5 -113.5zM667 -31q-246 0 -409.5 151.5t-163.5 459.5q0 367 236.5 620.5t599.5 253.5q176 0 329 -92
t215 -280q34 -104 35 -230q0 -231 -100 -430t-298 -326t-444 -127z" />
    <glyph glyph-name="R" unicode="R" horiz-adv-x="1267" 
d="M705 754q170 0 268 83t98 222q0 98 -63.5 147t-171.5 49h-355l-84 -501h308zM1270 1079.5q0 -178.5 -114 -301.5t-300 -162l274 -616h-221l-247 602h-289l-101 -602h-184l236 1423h559q188 0 287.5 -82.5t99.5 -261z" />
    <glyph glyph-name="S" unicode="S" horiz-adv-x="1069" 
d="M465 -31q-266 0 -465 168l74 180q154 -174 395 -174q139 0 227 70t88 175t-61 156.5t-212 112t-236 148.5t-85 255t128 280.5t363 113.5t427 -129l-104 -154q-152 113 -334 113q-127 0 -206 -58.5t-79 -155.5t55.5 -149.5t148.5 -89.5t131 -54t94 -54q163 -108 163 -312
t-145.5 -323t-366.5 -119z" />
    <glyph glyph-name="T" unicode="T" horiz-adv-x="1054" 
d="M1186 1423l-29 -168h-407l-207 -1255h-185l207 1255h-407l26 168h1002z" />
    <glyph glyph-name="U" unicode="U" horiz-adv-x="1370" 
d="M602 -31q-176 0 -286 87q-208 165 -146 540l135 827h184l-137 -841q-33 -190 33 -314.5t238 -124.5t282.5 115t145.5 322l141 843h186l-139 -835q-51 -305 -214 -462t-423 -157z" />
    <glyph glyph-name="V" unicode="V" horiz-adv-x="1329" 
d="M1227 1423h194l-745 -1423h-219l-236 1423h199l162 -1017q14 -168 18 -224q35 84 113 244z" />
    <glyph glyph-name="W" unicode="W" horiz-adv-x="1900" 
d="M1782 1423h192l-579 -1423h-217l-99 877q-2 31 -18 292q-80 -223 -109 -284l-422 -885h-219l-71 1423h198l31 -1034q-2 -51 -2 -166q25 66 68 162l479 1024h188l115 -999q8 -84 10 -179l59 170z" />
    <glyph glyph-name="X" unicode="X" horiz-adv-x="1241" 
d="M1319 1423l-528 -684l313 -739h-203l-264 635l-451 -635h-211l560 754l-306 669h203l248 -579l432 579h207z" />
    <glyph glyph-name="Y" unicode="Y" horiz-adv-x="1148" 
d="M1280 1423l-602 -874l-90 -549h-187l93 557l-312 866h203l229 -696l459 696h207z" />
    <glyph glyph-name="Z" unicode="Z" horiz-adv-x="1136" 
d="M1165 1423l-24 -157l-873 -1102l764 2l-28 -166h-988l27 156l858 1099h-708l28 168h944z" />
    <glyph glyph-name="bracketleft" unicode="[" horiz-adv-x="487" 
d="M580 1544h-156l-283 -1802h156l-23 -143h-333l327 2089h334z" />
    <glyph glyph-name="backslash" unicode="\" horiz-adv-x="876" 
d="M690 -252h-180l-344 1935h180z" />
    <glyph glyph-name="bracketright" unicode="]" horiz-adv-x="487" 
d="M264 1688h334l-328 -2089h-333l22 143h156l284 1802h-155z" />
    <glyph glyph-name="asciicircum" unicode="^" horiz-adv-x="1067" 
d="M1032 715h-176l-170 674l-399 -674h-176l505 811h187z" />
    <glyph glyph-name="underscore" unicode="_" horiz-adv-x="989" 
d="M-49 -182l24 129h863l-27 -129h-860z" />
    <glyph glyph-name="grave" unicode="`" horiz-adv-x="1228" 
d="M520 1128h-125l-178 433h186z" />
    <glyph glyph-name="a" unicode="a" horiz-adv-x="1130" 
d="M470 133q105 0 194.5 55.5t146.5 151.5l53 313q-66 193 -254 193q-147 0 -259.5 -125t-112.5 -320q0 -125 63.5 -196.5t168.5 -71.5zM401 -31q-156 0 -251 101.5t-95 289.5q0 289 159 467.5t384 178.5q100 0 178 -48.5t121 -126.5l33 144h164l-162 -975h-166l16 152
q-70 -86 -171 -134.5t-210 -48.5z" />
    <glyph glyph-name="b" unicode="b" horiz-adv-x="1142" 
d="M524 131q160 0 272 131q112 130 111.5 292t-71 225t-164.5 63q-229 0 -348 -215l-54 -320q35 -82 101.5 -129t152.5 -47zM750 1006q137 0 238.5 -96.5t101.5 -293.5q0 -279 -155 -463t-398 -184q-205 0 -299 172l-31 -141h-164l250 1526h178l-117 -703q144 183 396 183z
" />
    <glyph glyph-name="c" unicode="c" horiz-adv-x="911" 
d="M428 -31q-160 0 -266.5 97.5t-106.5 306.5q0 276 171 454.5t411 178.5q180 0 307 -117l-102 -129q-92 88 -228.5 88t-257 -127t-120.5 -322q0 -135 69.5 -200.5t173.5 -65.5q184 0 312 111l32 -150q-154 -125 -395 -125z" />
    <glyph glyph-name="d" unicode="d" horiz-adv-x="1132" 
d="M471 131q219 0 342 211l53 326q-66 180 -252 180q-152 0 -264 -127t-112 -324q0 -125 63.5 -195.5t169.5 -70.5zM53 362q0 283 159 463.5t372 180.5t311 -166l111 684h180l-252 -1524h-164l16 150q-152 -180 -385 -181q-156 0 -252 102.5t-96 290.5z" />
    <glyph glyph-name="e" unicode="e" horiz-adv-x="1001" 
d="M596 864q-113 0 -208 -86t-134 -225h532q6 41 7 76q0 235 -197 235zM231 393q0 -147 79 -207.5t188 -60.5q182 0 340 104l39 -141q-178 -119 -412 -119q-174 0 -293 94.5t-119 296.5q0 272 164 459t408 187q154 0 242.5 -89.5t88.5 -273.5q0 -99 -20 -199h-703
q-2 -16 -2 -51z" />
    <glyph glyph-name="f" unicode="f" horiz-adv-x="675" 
d="M627 1556q131 0 243 -69l-67 -135q-68 51 -144 51t-115.5 -41t-56.5 -133l-41 -254h195l-23 -152h-198l-209 -1267h-176l209 1267h-144l23 152h145l45 270q54 311 314 311z" />
    <glyph glyph-name="g" unicode="g" horiz-adv-x="1132" 
d="M471.5 133q105.5 0 195 52.5t148.5 146.5l53 319q-61 195 -262 195q-150 0 -262.5 -127t-112.5 -320q0 -125 67.5 -195.5t173 -70.5zM383 -532q-242 0 -397 133l63 153q135 -131 330 -131q317 0 381 377l22 139q-70 -82 -168 -126t-204 -44q-162 0 -259.5 103.5
t-97.5 294.5q0 285 158 462t383 177q104 0 186 -47.5t125 -124.5l39 141h154l-164 -985q-86 -522 -551 -522z" />
    <glyph glyph-name="h" unicode="h" horiz-adv-x="1077" 
d="M729 1006q147 0 214 -100.5t38 -272.5l-104 -635h-179l99 592q43 254 -160 254q-193 0 -313 -215l-103 -629l-178 2l250 1524h178l-121 -740q137 220 379 220z" />
    <glyph glyph-name="i" unicode="i" horiz-adv-x="468" 
d="M406 975l-164 -975h-176l161 975h179zM358 1208q-98 0 -98 99q0 51 37 88t86 37q98 0 98 -103q0 -49 -37.5 -85t-85.5 -36z" />
    <glyph glyph-name="j" unicode="j" horiz-adv-x="450" 
d="M-186 -524l-25 149q213 10 250 236l182 1114h176l-180 -1118q-31 -191 -131 -279t-272 -102zM351 1208q-99 0 -99 95q0 55 37 92t86 37t75 -27t26 -76t-39 -85q-38 -36 -86 -36z" />
    <glyph glyph-name="k" unicode="k" horiz-adv-x="962" 
d="M991 975l-366 -354l229 -621h-195l-174 485l-221 -213l-45 -272h-176l250 1526h178l-176 -1061l481 510h215z" />
    <glyph glyph-name="l" unicode="l" horiz-adv-x="428" 
d="M469 1526l-248 -1526h-176l248 1526h176z" />
    <glyph glyph-name="m" unicode="m" horiz-adv-x="1675" 
d="M1329 1004q150 0 215.5 -97.5t34.5 -277.5l-104 -629h-177l97 588q37 254 -156 254q-174 0 -283 -217l-102 -625h-178l98 596q41 250 -153 250q-164 0 -283 -199l-109 -647h-176l162 975h164l-19 -174q125 205 355 205q100 0 169.5 -54.5t80.5 -177.5q59 104 153 167
t211 63z" />
    <glyph glyph-name="n" unicode="n" horiz-adv-x="1089" 
d="M741 1006q150 0 215.5 -100.5t36.5 -272.5l-104 -635h-178l98 592q43 254 -160 254q-96 0 -178 -60.5t-137 -165.5l-105 -618h-176l162 975h178l-33 -191q139 222 381 222z" />
    <glyph glyph-name="o" unicode="o" horiz-adv-x="1097" 
d="M477 135q153 -4 267 118q114 121 121 287t-64.5 234t-173.5 70q-158 2 -276 -123t-120 -305q-2 -137 66.5 -209t179.5 -72zM459 -31q-174 0 -289 101.5t-115 308.5q0 256 168 441.5t428 185.5q168 0 279.5 -100.5t111.5 -309.5q0 -272 -168.5 -449.5t-414.5 -177.5z" />
    <glyph glyph-name="p" unicode="p" horiz-adv-x="1153" 
d="M532 131q160 0 273 131q113 132 113 294t-70 224t-166 62q-219 0 -342 -205l-57 -340q33 -80 98 -123t151 -43zM760 1006q135 0 237.5 -96.5t102.5 -293.5q0 -279 -156 -463t-399 -184q-199 0 -291 154l-104 -625h-179l246 1477h160l-15 -160q140 191 398 191z" />
    <glyph glyph-name="q" unicode="q" horiz-adv-x="1130" 
d="M469.5 133q103.5 0 193 51.5t146.5 143.5l55 327q-66 190 -256 191q-147 0 -259.5 -127t-112.5 -322q0 -121 65 -192.5t168.5 -71.5zM403 -31q-158 0 -253 101.5t-95 294.5q0 281 158 461t379 180q104 0 184 -47.5t123 -127.5l39 144h156l-246 -1479h-178l106 641
q-70 -80 -169 -124t-204 -44z" />
    <glyph glyph-name="r" unicode="r" horiz-adv-x="663" 
d="M657 991q47 0 72 -6l-31 -164q-25 6 -61 6q-115 0 -193.5 -81.5t-132.5 -260.5l-82 -485h-176l162 975h170l-31 -223q110 239 303 239z" />
    <glyph glyph-name="s" unicode="s" horiz-adv-x="778" 
d="M90 724q0 122 94.5 202t264.5 80t319 -80l-76 -131q-109 70 -250 69q-184 0 -184 -135q0 -104 156 -160q135 -45 205.5 -107.5t70.5 -196t-111.5 -215t-295 -81.5t-314.5 97l62 137q106 -92 274 -92q94 0 154.5 40.5t60.5 117t-78 116.5q-32 17 -46 21
q-171 57 -238.5 126.5t-67.5 191.5z" />
    <glyph glyph-name="t" unicode="t" horiz-adv-x="657" 
d="M440 127q100 0 197 63l10 -149q-121 -72 -264 -72t-204.5 86t-33.5 258l84 510h-129l23 152h131l51 311h178l-51 -311h283l-23 -152h-286l-82 -493q-33 -203 116 -203z" />
    <glyph glyph-name="u" unicode="u" horiz-adv-x="1064" 
d="M330 -31q-143 0 -208 103.5t-36 279.5l104 623h179l-99 -582q-20 -125 18 -193.5t132 -68.5q195 0 315 223l103 621h176l-160 -975h-178l31 180q-147 -211 -377 -211z" />
    <glyph glyph-name="v" unicode="v" horiz-adv-x="960" 
d="M842 975h194l-561 -975h-203l-184 975h180l140 -817z" />
    <glyph glyph-name="w" unicode="w" horiz-adv-x="1374" 
d="M1243 975h189l-463 -975h-168l-86 741l-350 -741h-179l-82 975h181l34 -801l361 789h147l86 -783z" />
    <glyph glyph-name="x" unicode="x" horiz-adv-x="903" 
d="M946 975l-385 -479l240 -496h-193l-184 414l-291 -414h-190l395 518l-225 457h190l168 -387l285 387h190z" />
    <glyph glyph-name="y" unicode="y" horiz-adv-x="980" 
d="M860 975h191l-840 -1479h-184l290 492l-219 987h185l151 -797z" />
    <glyph glyph-name="z" unicode="z" horiz-adv-x="806" 
d="M815 975l-22 -139l-592 -695h510l-25 -141h-704l24 141l584 693h-486l23 141h688z" />
    <glyph glyph-name="braceleft" unicode="{" horiz-adv-x="591" 
d="M530 1724q106 0 213 -47l-30 -147q-91 41 -155 41t-114 -45q-50 -46 -51 -126q0 -80 24 -218q23 -138 23 -230q0 -94 -54 -172t-134 -104q117 -43 117 -164q-1 -121 -107 -334t-106 -289q0 -75 40 -109t114 -36t132 20l-41 -151q-78 -18 -181 -14t-177 65t-74 173
t112 334t112 318q0 123 -152 123l22 150q203 0 203 201q0 73 -24 225t-25 223q-1 141 81 227t232 86z" />
    <glyph glyph-name="bar" unicode="|" horiz-adv-x="524" 
d="M547 1649l-314 -1866h-178l314 1866h178z" />
    <glyph glyph-name="braceright" unicode="}" horiz-adv-x="591" 
d="M586 559q-201 1 -201 -181q0 -92 24 -244t23 -224q0 -141 -82 -226t-215 -85t-227 47l29 147q94 -43 156 -43t114 45q51 45 51 126t-25 219t-25 230t55 172q54 79 136 105q-119 39 -118 174q0 109 107 322q108 213 108 289t-40 110t-115 34q-75 1 -132 -17l39 149
q76 16 180 16t178 -63t74 -175t-112 -336t-111 -319q0 -123 153 -122z" />
    <glyph glyph-name="asciitilde" unicode="~" horiz-adv-x="1032" 
d="M367 709q-50 -1 -99 -21q-50 -20 -74 -38t-83 -62l26 176q129 111 242 110q80 0 209 -74t184 -75q56 0 104 20q48 21 70 37t84 64l-26 -182q-119 -104 -246 -105q-88 0 -214 75t-177 75z" />
    <glyph glyph-name="exclamdown" unicode="&#xa1;" horiz-adv-x="555" 
d="M51 -367l185 1039h161l-151 -1039h-195zM362 1085q58 1 95 -35t37 -93t-44 -101t-102 -43q-58 0 -95 36q-36 36 -36 94t44 100q43 42 101 42z" />
    <glyph glyph-name="cent" unicode="&#xa2;" horiz-adv-x="901" 
d="M270 698q0 -213 166 -276l109 694q-119 -30 -197 -138t-78 -280zM92 678q0 256 135 422t346 188l37 238h162l-39 -242q147 -25 258 -135l-100 -129q-80 80 -182 100l-113 -714q125 12 219 90l51 -144q-111 -90 -295 -106l-39 -246h-163l39 250q-145 31 -231 142
q-85 112 -85 286z" />
    <glyph glyph-name="sterling" unicode="&#xa3;" horiz-adv-x="1122" 
d="M870 1280q-154 0 -259 -109t-165 -370h486l-23 -154h-491q-33 -209 -41 -479h624l-26 -168h-1002l29 168h186q10 283 39 479h-151l24 154h154q74 358 224 505q151 146 381 146t386 -137l-94 -150q-127 115 -281 115z" />
    <glyph glyph-name="currency" unicode="&#xa4;" horiz-adv-x="1196" 
d="M596 387q166 0 287 110t121 294q0 137 -92 221t-234 84q-141 0 -264 -108t-123 -298q0 -141 90 -222t215 -81zM1174 803q0 -295 -226 -459l90 -186l-151 -76l-88 184q-102 -37 -225 -37t-226 54l-139 -160l-125 94l141 162q-104 121 -104 289q0 272 188 440l-104 192
l143 76l96 -180q122 55 270 55t267 -77l143 167l125 -92l-155 -182q80 -112 80 -264z" />
    <glyph glyph-name="yen" unicode="&#xa5;" horiz-adv-x="1202" 
d="M1280 1423l-440 -598h295l-23 -153h-379l-33 -207h379l-24 -154h-379l-49 -311h-185l50 311h-377l22 154h377l33 207h-377l25 153h292l-251 598h206l224 -585l401 585h213z" />
    <glyph glyph-name="brokenbar" unicode="&#xa6;" horiz-adv-x="524" 
d="M377 637l-144 -854h-178l144 854h178zM547 1649l-146 -854h-176l144 854h178z" />
    <glyph glyph-name="section" unicode="&#xa7;" horiz-adv-x="1204" 
d="M930 519q0 81 -71 132t-202 85t-178 55q-84 -13 -137 -67t-53 -133t56 -132q55 -53 177 -81t185 -52q95 0 159 56t64 137zM1112 577q0 -129 -79 -209t-202 -104q117 -80 117 -232t-133 -254t-389 -102t-440 103l92 145q131 -94 368 -94q129 0 224 46q94 46 94 147
q0 71 -70 115t-235 81q-350 78 -350 322q1 121 71 201t189 110q-107 80 -107 244t135 260t372 96t437 -113l-96 -151q-164 109 -371 108q-295 0 -295 -194q0 -80 60 -125t236 -87t274 -113t98 -200z" />
    <glyph glyph-name="dieresis" unicode="&#xa8;" horiz-adv-x="1228" 
d="M752 1485q47 0 74.5 -33t19.5 -80t-46 -79.5t-85 -32.5t-75 32.5t-19.5 79.5t46.5 80t85 33zM321.5 1485q47.5 0 74 -33t18.5 -80t-46 -79.5t-85 -32.5t-74 32.5t-18.5 79.5t46 80t85 33z" />
    <glyph glyph-name="copyright" unicode="&#xa9;" horiz-adv-x="1832" 
d="M725 692q0 -229 241 -229q119 0 236 86l66 -121q-158 -123 -342 -123t-281 92q-96 92 -96 265q1 242 151 410t381 167q172 0 289 -98l-110 -125q-78 68 -199 67q-150 1 -243 -115t-93 -276zM1681 903q0 268 -170 425t-428 157q-348 0 -594 -256t-245 -613
q0 -270 164 -420t436 -149q344 -1 590 245t247 611zM1096 1563q317 1 496 -183t180 -469q0 -412 -268 -679t-675 -267q-323 0 -499 174t-176 467q0 401 270 679q271 278 672 278z" />
    <glyph glyph-name="guillemotleft" unicode="&#xab;" horiz-adv-x="987" 
d="M1004 1032l-27 -192l-387 -271l295 -280l-25 -178l-387 389l25 159zM541 840l-387 -271l295 -280l-27 -178l-385 389l24 159l506 373z" />
    <glyph glyph-name="logicalnot" unicode="&#xac;" horiz-adv-x="1112" 
d="M1067 821l-76 -479h-160l52 324h-764l24 155h924z" />
    <glyph glyph-name="registered" unicode="&#xae;" horiz-adv-x="1126" 
d="M657 1098q145 0 146 114q0 72 -92 72h-105l-33 -186h84zM735 1370q168 0 168 -139t-133 -187l80 -202h-102l-68 186h-119l-31 -186h-94l88 528h211zM592 655q219 0 361 152t143 369q0 160 -100 252t-259 92q-217 0 -361 -155t-145 -370q1 -160 99 -250t262 -90zM748 1585
q200 1 310 -109t109 -290q0 -254 -165 -425t-420 -171q-199 0 -311 108t-111 285q0 256 167 429t421 173z" />
    <glyph glyph-name="macron" unicode="&#xaf;" horiz-adv-x="1228" 
d="M193 1438h696l-25 -150h-696z" />
    <glyph glyph-name="degree" unicode="&#xb0;" horiz-adv-x="749" 
d="M274 1106q0 -186 187 -186q92 0 162 74q69 74 69 168t-46 141t-138 47t-163 -75t-71 -169zM428 805q-131 0 -204 72t-72 194q0 168 107 279q108 111 280 110q133 0 205 -74t71 -219q0 -145 -107 -254q-108 -108 -280 -108z" />
    <glyph glyph-name="plusminus" unicode="&#xb1;" horiz-adv-x="1118" 
d="M53 133l25 156h899l-25 -156h-899zM713 942h366l-24 -158h-367l-47 -297h-162l47 297h-368l24 158h367l47 297h164z" />
    <glyph glyph-name="acute" unicode="&#xb4;" horiz-adv-x="1228" 
d="M651 1561l-323 -433h-125l262 433h186z" />
    <glyph glyph-name="paragraph" unicode="&#xb6;" horiz-adv-x="966" 
d="M784 1423h211l-219 -1304q-41 -237 -171 -345t-308 -108q-121 0 -217 48t-154 116l84 150q121 -141 281 -142q242 0 299 314l55 317h-16q-235 0 -345 126t-71 380q73 448 571 448z" />
    <glyph glyph-name="periodcentered" unicode="&#xb7;" horiz-adv-x="432" 
d="M117 678q0 55 46 99t101 44q55 1 87 -31t32 -86t-48 -98q-47 -44 -103 -45q-56 0 -86 31q-29 31 -29 86z" />
    <glyph glyph-name="cedilla" unicode="&#xb8;" horiz-adv-x="1228" 
d="M385 -338q-1 80 -103 80q-58 0 -110 -47l-90 35l162 290h123l-129 -208q57 22 112 22q170 0 170 -168q0 -123 -90 -192.5t-223 -69.5t-238 61l56 101q90 -51 174 -51t135 41t51 106z" />
    <glyph glyph-name="guillemotright" unicode="&#xbb;" horiz-adv-x="1009" 
d="M602 1032l402 -373l-25 -157l-522 -391l30 192l398 285l-310 268zM559 659l-24 -157l-523 -391l31 192l395 285l-307 268l27 176z" />
    <glyph glyph-name="questiondown" unicode="&#xbf;" horiz-adv-x="989" 
d="M383 -416q-160 0 -264 91q-105 91 -105 269t123 294q123 115 314 139l38 235h166l-45 -336q-176 2 -291 -82t-114 -221q1 -111 67 -168t162 -55q169 0 316 119l75 -131q-188 -154 -442 -154zM762 934q0 -60 -45 -102t-105 -41q-60 -1 -93 35q-34 36 -34 93t46 101
q45 44 105 43q60 0 93 -35q33 -34 33 -94z" />
    <glyph glyph-name="Agrave" unicode="&#xc0;" horiz-adv-x="1253" 
d="M399 530h455l-113 707zM938 0l-59 377h-553l-183 -377h-186l711 1423h217l248 -1423h-195zM860 1573h-131l-207 434h187z" />
    <glyph glyph-name="Aacute" unicode="&#xc1;" horiz-adv-x="1253" 
d="M399 530h455l-113 707zM668 1423h217l248 -1423h-195l-59 377h-553l-183 -377h-186zM1251 1995l-389 -422h-145l336 422h198z" />
    <glyph glyph-name="Acircumflex" unicode="&#xc2;" horiz-adv-x="1253" 
d="M399 530h455l-113 707zM668 1423h217l248 -1423h-195l-59 377h-553l-183 -377h-186zM866 1880l-254 -317h-131l328 444h158l178 -444h-131z" />
    <glyph glyph-name="Atilde" unicode="&#xc3;" horiz-adv-x="1253" 
d="M399 530h455l-113 707zM668 1423h217l248 -1423h-195l-59 377h-553l-183 -377h-186zM979 1694q90 0 129 256h133q-51 -399 -254 -400q-49 0 -93 41t-72 89q-76 129 -126.5 129.5t-80 -60.5t-48.5 -193h-133q49 397 246 398q47 0 91 -41t71.5 -89t64.5 -89t72 -41z" />
    <glyph glyph-name="Adieresis" unicode="&#xc4;" horiz-adv-x="1253" 
d="M399 530h455l-113 707zM668 1423h217l248 -1423h-195l-59 377h-553l-183 -377h-186zM1041 1851q48 0 76 -33.5t20 -81.5t-47 -82t-88 -34t-77 34t-19 82t48 81.5t87 33.5zM611 1620q-48 0 -75.5 34t-18.5 82t47 81.5t86 33.5t76 -33.5t19.5 -81.5t-47.5 -82t-87 -34z" />
    <glyph glyph-name="Aring" unicode="&#xc5;" horiz-adv-x="1253" 
d="M399 530h455l-113 707zM938 0l-59 377h-553l-183 -377h-186l711 1423h217l248 -1423h-195zM817.5 1669q59.5 0 102.5 36t53 99q8 63 -21.5 101.5t-88 38.5t-101.5 -39.5t-54 -101.5t19.5 -98t90 -36zM798 1563q-114 0 -168.5 66.5t-37 175t96.5 175t191 66.5t168 -67.5
t38.5 -174t-96 -174t-192.5 -67.5z" />
    <glyph glyph-name="AE" unicode="&#xc6;" horiz-adv-x="1828" 
d="M465 530h465l102 727h-86zM1898 1257h-677l-64 -438h533l-27 -153h-526l-72 -498h668l-29 -168h-850l53 377h-545l-249 -377h-199l938 1423h1073z" />
    <glyph glyph-name="Ccedilla" unicode="&#xc7;" horiz-adv-x="1300" 
d="M731 -338q-1 80 -103 80q-58 0 -110 -47l-90 35l137 245q-203 27 -336 177.5t-133 437.5q0 233 100.5 428.5t293 315.5t460 120t445.5 -156l-115 -155q-140 133 -365 133q-270 0 -446 -194.5t-176 -479.5q0 -233 115.5 -342.5t267 -109.5t277.5 46t210 119l43 -174
q-96 -74 -236.5 -121t-287.5 -51l-98 -157q55 23 112 22q170 0 170 -168q0 -123 -90 -192.5t-223 -69.5t-238 61l56 101q90 -51 174 -51t135 41t51 106z" />
    <glyph glyph-name="Egrave" unicode="&#xc8;" horiz-adv-x="1122" 
d="M1206 1257h-723l-71 -436h571l-25 -153h-571l-82 -500h721l-27 -168h-909l234 1423h909zM854 1573h-131l-207 434h186z" />
    <glyph glyph-name="Eacute" unicode="&#xc9;" horiz-adv-x="1122" 
d="M90 0l234 1423h909l-27 -166h-723l-71 -436h571l-25 -153h-571l-82 -500h721l-27 -168h-909zM1245 1995l-389 -422h-145l336 422h198z" />
    <glyph glyph-name="Ecircumflex" unicode="&#xca;" horiz-adv-x="1122" 
d="M1206 1257h-723l-71 -436h571l-25 -153h-571l-82 -500h721l-27 -168h-909l234 1423h909zM860 1880l-254 -317h-131l328 444h158l178 -444h-131z" />
    <glyph glyph-name="Edieresis" unicode="&#xcb;" horiz-adv-x="1122" 
d="M1206 1257h-723l-71 -436h571l-25 -153h-571l-82 -500h721l-27 -168h-909l234 1423h909zM995 1620q-49 0 -76.5 34t-18.5 82t48 81.5t87 33.5t76 -33.5t19.5 -81.5t-47.5 -82t-88 -34zM605 1620q-48 0 -75.5 34t-18.5 82t47 81.5t86 33.5t76 -33.5t19.5 -81.5t-47.5 -82
t-87 -34z" />
    <glyph glyph-name="Igrave" unicode="&#xcc;" horiz-adv-x="524" 
d="M508 1423l-234 -1423h-184l234 1423h184zM373 1573l-207 434h186l152 -434h-131z" />
    <glyph glyph-name="Iacute" unicode="&#xcd;" horiz-adv-x="524" 
d="M508 1423l-234 -1423h-184l234 1423h184zM895 1995l-389 -422h-146l336 422h199z" />
    <glyph glyph-name="Icircumflex" unicode="&#xce;" horiz-adv-x="524" 
d="M90 0l234 1423h184l-234 -1423h-184zM788 1563h-131l-147 317l-254 -317h-131l328 444h157z" />
    <glyph glyph-name="Idieresis" unicode="&#xcf;" horiz-adv-x="524" 
d="M508 1423l-234 -1423h-184l234 1423h184zM645 1620q-49 0 -76.5 34t-18.5 82t48 81.5t87 33.5t75.5 -33.5t19.5 -81.5t-47 -82t-88 -34zM255 1620q-48 0 -75.5 34t-18.5 82t47 81.5t86 33.5t75.5 -33.5t19.5 -81.5t-47 -82t-87 -34z" />
    <glyph glyph-name="Eth" unicode="&#xd0;" horiz-adv-x="1406" 
d="M508 170q256 0 452 150q100 76 160 214t60 320q0 403 -443 403h-254l-71 -430h393l-25 -153h-395l-82 -504h205zM768 1423q289 0 449.5 -137t160.5 -416q0 -215 -72.5 -385t-195.5 -273q-253 -212 -596 -212h-424l111 674h-115l27 153h112l99 596h444z" />
    <glyph glyph-name="Ntilde" unicode="&#xd1;" horiz-adv-x="1386" 
d="M1206 1423h168l-237 -1423h-179l-514 1110l-184 -1110h-170l234 1423h176l520 -1120zM1053 1694q90 0 129 256h133q-51 -399 -254 -400q-49 0 -93 41t-73 89q-77 130 -126.5 130t-79.5 -61t-48 -193h-133q49 397 246 398q47 0 91 -41t71.5 -89t64.5 -89t72 -41z" />
    <glyph glyph-name="Ograve" unicode="&#xd2;" horiz-adv-x="1525" 
d="M688 150q270 0 447.5 207.5t177.5 473.5q0 219 -118 332t-294 113q-258 0 -434 -197.5t-176 -470.5q0 -231 111.5 -344.5t285.5 -113.5zM667 -31q-246 0 -409.5 151.5t-163.5 459.5q0 367 236.5 620.5t599.5 253.5q176 0 329 -92t215 -280q34 -104 35 -230
q0 -231 -100 -430t-298 -326t-444 -127zM872 1573l-206 434h186l152 -434h-132z" />
    <glyph glyph-name="Oacute" unicode="&#xd3;" horiz-adv-x="1525" 
d="M688 150q270 0 447.5 207.5t177.5 473.5q0 219 -118 332t-294 113q-258 0 -434 -197.5t-176 -470.5q0 -231 111.5 -344.5t285.5 -113.5zM667 -31q-246 0 -409.5 151.5t-163.5 459.5q0 367 236.5 620.5t599.5 253.5q176 0 329 -92t215 -280q34 -104 35 -230
q0 -231 -100 -430t-298 -326t-444 -127zM1395 1995l-389 -422h-146l336 422h199z" />
    <glyph glyph-name="Ocircumflex" unicode="&#xd4;" horiz-adv-x="1525" 
d="M688 150q270 0 447.5 207.5t177.5 473.5q0 219 -118 332t-294 113q-258 0 -434 -197.5t-176 -470.5q0 -231 111.5 -344.5t285.5 -113.5zM930 1454q176 0 329 -92t215 -280q34 -104 35 -230q0 -231 -100 -430t-298 -326t-444 -127t-409.5 151.5t-163.5 459.5
q0 367 237 620.5t599 253.5zM1010 1880l-254 -317h-131l327 444h158l178 -444h-131z" />
    <glyph glyph-name="Otilde" unicode="&#xd5;" horiz-adv-x="1525" 
d="M688 150q270 0 447.5 207.5t177.5 473.5q0 219 -118 332t-294 113q-258 0 -434 -197.5t-176 -470.5q0 -231 111.5 -344.5t285.5 -113.5zM667 -31q-246 0 -409.5 151.5t-163.5 459.5q0 367 236.5 620.5t599.5 253.5q176 0 329 -92t215 -280q34 -104 35 -230
q0 -231 -100 -430t-298 -326t-444 -127zM838.5 1810q-49.5 0 -79.5 -61t-48 -193h-133q49 397 245 398q47 0 91 -41t72 -89q76 -130 136 -130q90 0 129 256h133q-51 -399 -254 -400q-49 0 -93 41q-45 41 -73 89q-76 130 -125.5 130z" />
    <glyph glyph-name="Odieresis" unicode="&#xd6;" horiz-adv-x="1525" 
d="M688 150q270 0 447.5 207.5t177.5 473.5q0 219 -118 332t-294 113q-258 0 -434 -197.5t-176 -470.5q0 -231 111.5 -344.5t285.5 -113.5zM667 -31q-246 0 -409.5 151.5t-163.5 459.5q0 367 236.5 620.5t599.5 253.5q176 0 329 -92t215 -280q34 -104 35 -230
q0 -231 -100 -430t-298 -326t-444 -127zM1145 1620q-49 0 -77 34t-18.5 82t48.5 81.5t87 33.5t75.5 -33.5t19.5 -81.5t-47 -82t-88 -34zM755 1620q-48 0 -76 34t-18.5 82t47 81.5t86 33.5t76 -33.5t19.5 -81.5t-47 -82t-87 -34z" />
    <glyph glyph-name="multiply" unicode="&#xd7;" horiz-adv-x="1042" 
d="M1026 1034l-367 -338l261 -336l-127 -102l-254 328l-357 -328l-98 102l369 338l-260 336l126 103l254 -328l359 328z" />
    <glyph glyph-name="Oslash" unicode="&#xd8;" horiz-adv-x="1525" 
d="M1313 831q0 141 -53 244l-836 -833q100 -92 264 -92q270 0 447.5 207.5t177.5 473.5zM291 608q0 -147 47 -248l831 826q-109 90 -268 90q-258 0 -434 -198t-176 -470zM1509 847q0 -226 -100 -425t-298 -326t-439.5 -127t-390.5 131l-119 -118l-113 90l137 137
q-92 147 -92 371q0 367 236.5 620.5t599.5 253.5q221 0 381 -127l114 115l121 -80l-139 -139q102 -150 102 -376z" />
    <glyph glyph-name="Ugrave" unicode="&#xd9;" horiz-adv-x="1370" 
d="M602 -31q-176 0 -286 87q-208 165 -146 540l135 827h184l-137 -841q-33 -190 33 -314.5t238 -124.5t282.5 115t145.5 322l141 843h186l-139 -835q-51 -305 -214 -462t-423 -157zM795 1573l-207 434h186l152 -434h-131z" />
    <glyph glyph-name="Uacute" unicode="&#xda;" horiz-adv-x="1370" 
d="M602 -31q-176 0 -286 87q-208 165 -146 540l135 827h184l-137 -841q-33 -190 33 -314.5t238 -124.5t282.5 115t145.5 322l141 843h186l-139 -835q-51 -305 -214 -462t-423 -157zM1317 1995l-389 -422h-146l336 422h199z" />
    <glyph glyph-name="Ucircumflex" unicode="&#xdb;" horiz-adv-x="1370" 
d="M602 -31q-176 0 -286 87q-208 165 -146 540l135 827h184l-137 -841q-33 -190 33 -314.5t238 -124.5t282.5 115t145.5 322l141 843h186l-139 -835q-51 -305 -214 -462t-423 -157zM932 1880l-254 -317h-131l327 444h158l178 -444h-131z" />
    <glyph glyph-name="Udieresis" unicode="&#xdc;" horiz-adv-x="1370" 
d="M602 -31q-176 0 -286 87q-208 165 -146 540l135 827h184l-137 -841q-33 -190 33 -314.5t238 -124.5t282.5 115t145.5 322l141 843h186l-139 -835q-51 -305 -214 -462t-423 -157zM1067 1620q-49 0 -76.5 34t-18.5 82t48 81.5t87 33.5t75.5 -33.5t19.5 -81.5t-47 -82
t-88 -34zM677 1620q-48 0 -76 34t-18.5 82t47.5 81.5t86 33.5t75.5 -33.5t19.5 -81.5t-47 -82t-87 -34z" />
    <glyph glyph-name="Yacute" unicode="&#xdd;" horiz-adv-x="1148" 
d="M1280 1423l-602 -874l-90 -549h-187l93 557l-312 866h203l229 -696l459 696h207zM1206 1995l-389 -422h-145l336 422h198z" />
    <glyph glyph-name="Thorn" unicode="&#xde;" horiz-adv-x="1198" 
d="M600 467q197 0 297 96t100 234q0 219 -264 219h-291l-92 -549h250zM788 1184q406 0 406 -361q0 -229 -151.5 -373.5t-440.5 -144.5h-278l-52 -305h-186l238 1423h186l-41 -239h319z" />
    <glyph glyph-name="germandbls" unicode="&#xdf;" horiz-adv-x="1021" 
d="M971 397q0 -197 -111 -311t-266 -115q-155 0 -258 49l26 138q78 -39 191 -39t181 85t69 209q0 125 -73 197t-208 72h-35l17 121h28q137 0 224 118q86 118 86 263q0 217 -185 217q-121 1 -193 -103t-106 -325l-233 -1430h-174l231 1424q53 321 169 455t325 134
q139 0 234 -85q96 -85 96 -262t-91 -303t-210 -158q121 -23 193 -118t73 -233z" />
    <glyph glyph-name="agrave" unicode="&#xe0;" horiz-adv-x="1130" 
d="M470 133q105 0 194.5 55.5t146.5 151.5l53 313q-66 193 -254 193q-147 0 -259.5 -125t-112.5 -320q0 -125 63.5 -196.5t168.5 -71.5zM401 -31q-156 0 -251 101.5t-95 289.5q0 289 159 467.5t384 178.5q100 0 178 -48.5t121 -126.5l33 144h164l-162 -975h-166l16 152
q-70 -86 -171 -134.5t-210 -48.5zM756 1128h-125l-178 433h186z" />
    <glyph glyph-name="aacute" unicode="&#xe1;" horiz-adv-x="1130" 
d="M470 133q105 0 194.5 55.5t146.5 151.5l53 313q-66 193 -254 193q-147 0 -259.5 -125t-112.5 -320q0 -125 63.5 -196.5t168.5 -71.5zM401 -31q-156 0 -251 101.5t-95 289.5q0 289 159 467.5t384 178.5q100 0 178 -48.5t121 -126.5l33 144h164l-162 -975h-166l16 152
q-70 -86 -171 -134.5t-210 -48.5zM1038 1561l-323 -433h-125l262 433h186z" />
    <glyph glyph-name="acircumflex" unicode="&#xe2;" horiz-adv-x="1130" 
d="M470 133q105 0 194.5 55.5t146.5 151.5l53 313q-66 193 -254 193q-147 0 -259.5 -125t-112.5 -320q0 -125 63.5 -196.5t168.5 -71.5zM401 -31q-156 0 -251 101.5t-95 289.5q0 289 159 467.5t384 178.5q100 0 178 -48.5t121 -126.5l33 144h164l-162 -975h-166l16 152
q-70 -86 -171 -134.5t-210 -48.5zM745 1446l-253 -318h-132l326 445h158l182 -445h-131z" />
    <glyph glyph-name="atilde" unicode="&#xe3;" horiz-adv-x="1130" 
d="M470 133q105 0 194.5 55.5t146.5 151.5l53 313q-66 193 -254 193q-147 0 -259.5 -125t-112.5 -320q0 -125 63.5 -196.5t168.5 -71.5zM401 -31q-156 0 -251 101.5t-95 289.5q0 289 159 467.5t384 178.5q100 0 178 -48.5t121 -126.5l33 144h164l-162 -975h-166l16 152
q-70 -86 -171 -134.5t-210 -48.5zM565 1401q-82 0 -121 -254h-133q49 399 246 399q63 0 111 -58t65 -87t21 -34t12 -17.5t13 -17.5t13 -14q30 -32 58 -32q90 0 129 256h135q-55 -401 -252 -401q-68 -1 -130 73q-22 26 -51 69l-34 51q-45 67 -82 67z" />
    <glyph glyph-name="adieresis" unicode="&#xe4;" horiz-adv-x="1130" 
d="M470 133q105 0 194.5 55.5t146.5 151.5l53 313q-66 193 -254 193q-147 0 -259.5 -125t-112.5 -320q0 -125 63.5 -196.5t168.5 -71.5zM401 -31q-156 0 -251 101.5t-95 289.5q0 289 159 467.5t384 178.5q100 0 178 -48.5t121 -126.5l33 144h164l-162 -975h-166l16 152
q-70 -86 -171 -134.5t-210 -48.5zM930 1260q-47 0 -75 32.5t-19.5 79.5t46.5 80t85 33t74.5 -33t19.5 -80t-46 -79.5t-85 -32.5zM498 1260q-47 0 -74 32.5t-18.5 79.5t46 80t85 33t74 -33t18.5 -80t-46 -79.5t-85 -32.5z" />
    <glyph glyph-name="aring" unicode="&#xe5;" horiz-adv-x="1130" 
d="M470 133q105 0 194.5 55.5t146.5 151.5l53 313q-66 193 -254 193q-147 0 -259.5 -125t-112.5 -320q0 -125 63.5 -196.5t168.5 -71.5zM401 -31q-156 0 -251 101.5t-95 289.5q0 289 159 467.5t384 178.5q100 0 178 -48.5t121 -126.5l33 144h164l-162 -975h-166l16 152
q-70 -86 -171 -134.5t-210 -48.5zM625 1402q-1 -122 119 -122q58 0 111.5 49t53.5 125q1 115 -123 115q-62 0 -111.5 -51.5t-49.5 -115.5zM721 1182q-94 0 -149.5 53t-55.5 139q0 127 84 209t195.5 82t168 -55.5t56.5 -141.5q0 -121 -84 -203.5t-215 -82.5z" />
    <glyph glyph-name="ae" unicode="&#xe6;" horiz-adv-x="1644" 
d="M371 96q195 0 305 178l14 101q-82 100 -250 100q-106 0 -177 -62q-71 -61 -71 -147t50 -128q49 -42 129 -42zM1427 623q1 239 -215 239q-106 0 -192 -85t-123 -218h528q2 23 2 64zM1264 1006q152 0 242 -92t89 -271q0 -51 -10 -129l-8 -45h-698q-4 -53 -5 -80
q0 -133 69 -198t192 -64q184 0 346 102l45 -133q-195 -127 -422 -127q-291 0 -350 228q-72 -107 -191 -167t-250 -60t-212 62q-81 64 -81 208t109 241q109 99 287 99t293 -88l14 96q16 132 -31 198q-48 66 -194 66t-279 -80l-45 127q176 106 395 107q262 0 303 -203
q150 203 392 203z" />
    <glyph glyph-name="ccedilla" unicode="&#xe7;" horiz-adv-x="911" 
d="M569 -338q-1 80 -103 80q-58 0 -110 -47l-90 35l133 239q-150 8 -247 105.5t-97 298.5q0 276 171 454.5t411 178.5q180 0 307 -117l-102 -129q-92 88 -228.5 88t-257 -127t-120.5 -322q0 -135 69.5 -200.5t173.5 -65.5q184 0 312 111l32 -150q-123 -100 -301 -119
l-100 -163q57 23 113 22q170 0 170 -168q0 -123 -90.5 -192.5t-223.5 -69.5t-237 61l55 101q90 -51 174 -51t135 41t51 106z" />
    <glyph glyph-name="egrave" unicode="&#xe8;" horiz-adv-x="1001" 
d="M596 864q-113 0 -208 -86t-134 -225h532q6 41 7 76q0 235 -197 235zM231 393q0 -147 79 -207.5t188 -60.5q182 0 340 104l39 -141q-178 -119 -412 -119q-174 0 -293 94.5t-119 296.5q0 272 164 459t408 187q154 0 242.5 -89.5t88.5 -273.5q0 -99 -20 -199h-703
q-2 -16 -2 -51zM676 1128h-125l-178 433h186z" />
    <glyph glyph-name="eacute" unicode="&#xe9;" horiz-adv-x="1001" 
d="M596 864q-113 0 -208 -86t-134 -225h532q6 41 7 76q0 235 -197 235zM625 1006q154 0 242.5 -89.5t88.5 -273.5q0 -98 -20 -199h-703q-2 -16 -2 -51q0 -147 79 -207.5t188 -60.5q182 0 340 104l39 -141q-178 -119 -412 -119q-174 0 -293 94.5t-119 296.5q0 272 164 459
t408 187zM958 1561l-323 -433h-125l262 433h186z" />
    <glyph glyph-name="ecircumflex" unicode="&#xea;" horiz-adv-x="1001" 
d="M596 864q-113 0 -208 -86t-134 -225h532q6 41 7 76q0 235 -197 235zM231 393q0 -147 79 -207.5t188 -60.5q182 0 340 104l39 -141q-178 -119 -412 -119q-174 0 -293 94.5t-119 296.5q0 272 164 459t408 187q154 0 242.5 -89.5t88.5 -273.5q0 -99 -20 -199h-703
q-2 -16 -2 -51zM666 1446l-254 -318h-131l325 445h158l182 -445h-131z" />
    <glyph glyph-name="edieresis" unicode="&#xeb;" horiz-adv-x="1001" 
d="M596 864q-113 0 -208 -86t-134 -225h532q6 41 7 76q0 235 -197 235zM625 1006q154 0 242.5 -89.5t88.5 -273.5q0 -98 -20 -199h-703q-2 -16 -2 -51q0 -147 79 -207.5t188 -60.5q182 0 340 104l39 -141q-178 -119 -412 -119q-174 0 -293 94.5t-119 296.5q0 272 164 459
t408 187zM887 1485q47 0 74.5 -33t19.5 -80t-46 -79.5t-85 -32.5t-74.5 32.5t-19.5 79.5t46 80t85 33zM418 1260q-47 0 -74 32.5t-18.5 79.5t46.5 80t85 33t73.5 -33t18.5 -80t-46 -79.5t-85 -32.5z" />
    <glyph glyph-name="igrave" unicode="&#xec;" horiz-adv-x="477" 
d="M408 975l-162 -975h-178l161 975h179zM410 1128h-125l-179 433h187z" />
    <glyph glyph-name="iacute" unicode="&#xed;" horiz-adv-x="477" 
d="M408 975l-162 -975h-178l161 975h179zM692 1561l-323 -433h-125l262 433h186z" />
    <glyph glyph-name="icircumflex" unicode="&#xee;" horiz-adv-x="477" 
d="M68 0l161 975h179l-162 -975h-178zM498 1573l182 -445h-131l-150 318l-254 -318h-131l326 445h158z" />
    <glyph glyph-name="idieresis" unicode="&#xef;" horiz-adv-x="477" 
d="M408 975l-162 -975h-178l161 975h179zM620.5 1485q47.5 0 75 -33t19.5 -80t-46 -79.5t-85 -32.5t-75 32.5t-19.5 79.5t46 80t85 33zM190.5 1485q47.5 0 74 -33t18 -80t-46 -79.5t-85 -32.5t-74 32.5t-18 79.5t46 80t85 33z" />
    <glyph glyph-name="eth" unicode="&#xf0;" horiz-adv-x="1099" 
d="M469.5 131q116.5 0 216.5 91t148 270q-55 240 -273 239q-133 0 -234.5 -97t-101.5 -253q0 -115 64 -182.5t180.5 -67.5zM1042 806q0 -222 -50 -384t-135 -258q-173 -195 -413 -195q-182 0 -289.5 105.5t-107.5 287.5q0 225 140.5 365.5t344.5 140.5q123 0 207 -60
t123 -159q8 63 8 148q0 199 -77 336l-265 -132l-57 121l240 119q-141 141 -377 156l33 143q303 -20 489 -225l225 110l58 -120l-201 -101q104 -176 104 -398z" />
    <glyph glyph-name="ntilde" unicode="&#xf1;" horiz-adv-x="1089" 
d="M741 1006q150 0 215.5 -100.5t36.5 -272.5l-104 -635h-178l98 592q43 254 -160 254q-96 0 -178 -60.5t-137 -165.5l-105 -618h-176l162 975h178l-33 -191q139 222 381 222zM518 1546q63 0 111 -58t65 -87t21 -34t12 -17.5t13 -17.5q6 -5 14 -14q30 -32 57 -32
q90 0 129 256h135q-55 -401 -252 -401q-69 -1 -131 73q-22 26 -50 69l-34 51q-45 67 -82 67q-82 0 -120 -254h-134q49 399 246 399z" />
    <glyph glyph-name="ograve" unicode="&#xf2;" horiz-adv-x="1097" 
d="M477 135q153 -4 267 118q114 121 121 287t-64.5 234t-173.5 70q-158 2 -276 -123t-120 -305q-2 -137 66.5 -209t179.5 -72zM459 -31q-174 0 -289 101.5t-115 308.5q0 256 168 441.5t428 185.5q168 0 279.5 -100.5t111.5 -309.5q0 -272 -168.5 -449.5t-414.5 -177.5z
M733 1128h-125l-178 433h186z" />
    <glyph glyph-name="oacute" unicode="&#xf3;" horiz-adv-x="1097" 
d="M477 135q153 -4 267 118q114 121 121 287t-64.5 234t-173.5 70q-158 2 -276 -123t-120 -305q-2 -137 66.5 -209t179.5 -72zM459 -31q-174 0 -289 101.5t-115 308.5q0 256 168 441.5t428 185.5q168 0 279.5 -100.5t111.5 -309.5q0 -272 -168.5 -449.5t-414.5 -177.5z
M1016 1561l-324 -433h-125l262 433h187z" />
    <glyph glyph-name="ocircumflex" unicode="&#xf4;" horiz-adv-x="1097" 
d="M743.5 253q114.5 122 121.5 287.5t-64.5 233.5t-173.5 70q-158 2 -276 -123t-120 -305q-2 -137 67 -209t179 -72q152 -4 266.5 118zM651 1006q168 0 279.5 -100.5t111.5 -309.5q0 -272 -168.5 -449.5t-414.5 -177.5q-174 0 -289 101.5t-115 308.5q0 256 168 441.5
t428 185.5zM723 1446l-254 -318h-131l326 445h157l183 -445h-132z" />
    <glyph glyph-name="otilde" unicode="&#xf5;" horiz-adv-x="1097" 
d="M477 135q152 -4 266.5 118t121.5 287.5t-64.5 233.5t-173.5 70q-158 2 -276 -123t-120 -305q-2 -137 66.5 -209t179.5 -72zM459 -31q-174 0 -289 101.5t-115 308.5q0 256 168 441.5t428 185.5q168 0 279.5 -100.5t111.5 -309.5q0 -272 -168.5 -449.5t-414.5 -177.5z
M543 1401q-82 0 -121 -254h-133q49 399 246 399q63 0 112 -60q50 -60 65 -87t19 -32t12.5 -17.5t13.5 -17.5t13 -14t14.5 -13.5t16.5 -11.5t26 -7q90 0 129 256h136q-55 -401 -252 -401q-37 0 -73 23.5t-58.5 50t-50.5 68.5l-34 51q-32 47 -49.5 57t-31.5 10z" />
    <glyph glyph-name="odieresis" unicode="&#xf6;" horiz-adv-x="1097" 
d="M477 135q152 -4 266.5 118t121.5 287.5t-64.5 233.5t-173.5 70q-158 2 -276 -123t-120 -305q-2 -137 66.5 -209t179.5 -72zM459 -31q-174 0 -289 101.5t-115 308.5q0 256 168 441.5t428 185.5q168 0 279.5 -100.5t111.5 -309.5q0 -272 -168.5 -449.5t-414.5 -177.5z
M944 1485q47 0 75 -33t19.5 -80t-46.5 -79.5t-85 -32.5t-74.5 32.5t-19.5 79.5t46 80t85 33zM514 1485q47 0 73.5 -33t18.5 -80t-46 -79.5t-85 -32.5t-73.5 32.5t-18.5 79.5t46 80t85 33z" />
    <glyph glyph-name="divide" unicode="&#xf7;" horiz-adv-x="1177" 
d="M590 446q60 0 95 -42q34 -42 26 -100q-9 -58 -57 -100t-108 -42t-95 41t-25 100t57 101t107 42zM156 778h960l-24 -155h-961zM716 1237q60 0 94 -42t24 -101q-10 -60 -58 -102t-106 -42q-59 0 -96 42q-35 43 -25 102t58 101q49 42 109 42z" />
    <glyph glyph-name="oslash" unicode="&#xf8;" horiz-adv-x="1097" 
d="M866 559q2 86 -18 141l-522 -518q59 -47 151 -47q150 -4 264.5 118t124.5 306zM231 416q-2 -70 17 -125l518 514q-63 39 -141 39q-158 2 -275 -123t-119 -305zM1042 596q0 -272 -170 -449.5t-415 -177.5q-162 0 -264 82l-91 -90l-96 90l100 101q-51 92 -51 227
q0 256 168 441.5t428 185.5q143 0 246 -72l88 88l105 -80l-105 -104q57 -100 57 -242z" />
    <glyph glyph-name="ugrave" unicode="&#xf9;" horiz-adv-x="1064" 
d="M330 -31q-143 0 -208 103.5t-36 279.5l104 623h179l-99 -582q-20 -125 18 -193.5t132 -68.5q195 0 315 223l103 621h176l-160 -975h-178l31 180q-147 -211 -377 -211zM709 1128h-125l-178 433h186z" />
    <glyph glyph-name="uacute" unicode="&#xfa;" horiz-adv-x="1064" 
d="M330 -31q-143 0 -208 103.5t-36 279.5l104 623h179l-99 -582q-20 -125 18 -193.5t132 -68.5q195 0 315 223l103 621h176l-160 -975h-178l31 180q-147 -211 -377 -211zM991 1561l-323 -433h-125l262 433h186z" />
    <glyph glyph-name="ucircumflex" unicode="&#xfb;" horiz-adv-x="1064" 
d="M330 -31q-143 0 -208 103.5t-36 279.5l104 623h179l-99 -582q-20 -125 18 -193.5t132 -68.5q195 0 315 223l103 621h176l-160 -975h-178l31 180q-147 -211 -377 -211zM698 1446l-254 -318h-131l326 445h158l182 -445h-131z" />
    <glyph glyph-name="udieresis" unicode="&#xfc;" horiz-adv-x="1064" 
d="M330 -31q-143 0 -208 103.5t-36 279.5l104 623h179l-99 -582q-20 -125 18 -193.5t132 -68.5q194 0 315 223l103 621h176l-160 -975h-178l31 180q-147 -211 -377 -211zM919.5 1485q47.5 0 75 -33t19.5 -80t-46 -79.5t-85 -32.5t-75 32.5t-19.5 79.5t46 80t85 33z
M450.5 1260q-47.5 0 -74 32.5t-18 79.5t46 80t85 33t74 -33t18 -80t-46 -79.5t-85 -32.5z" />
    <glyph glyph-name="yacute" unicode="&#xfd;" horiz-adv-x="980" 
d="M860 975h191l-840 -1479h-184l290 492l-219 987h185l151 -797zM938 1561l-324 -433h-125l263 433h186z" />
    <glyph glyph-name="thorn" unicode="&#xfe;" horiz-adv-x="1153" 
d="M532 131q160 0 273 131q113 132 113 294t-70 224t-166 62q-219 0 -342 -203l-57 -344q33 -78 98 -121t151 -43zM760 1006q135 0 237.5 -96.5t102.5 -293.5q0 -279 -156 -463t-399 -184q-199 0 -291 154l-104 -625h-179l340 2028h178l-116 -697q141 177 387 177z" />
    <glyph glyph-name="ydieresis" unicode="&#xff;" horiz-adv-x="980" 
d="M860 975h191l-840 -1479h-184l290 492l-219 987h185l151 -797zM829.5 1260q-47.5 0 -75 32.5t-19.5 79.5t46 80t85 33t75 -33t19.5 -80t-46 -79.5t-85 -32.5zM397 1260q-47 0 -73.5 32.5t-18.5 79.5t46 80t85 33t74 -33t18.5 -80t-46.5 -79.5t-85 -32.5z" />
    <glyph glyph-name="Amacron" unicode="&#x100;" horiz-adv-x="1253" 
d="M399 530h455l-113 707zM668 1423h217l248 -1423h-195l-59 377h-553l-183 -377h-186zM504 1853h696l-24 -149h-697z" />
    <glyph glyph-name="amacron" unicode="&#x101;" horiz-adv-x="1130" 
d="M470 133q105 0 194.5 55.5t146.5 151.5l53 313q-66 193 -254 193q-147 0 -259.5 -125t-112.5 -320q0 -125 63.5 -196.5t168.5 -71.5zM401 -31q-156 0 -251 101.5t-95 289.5q0 289 159 467.5t384 178.5q100 0 178 -48.5t121 -126.5l33 144h164l-162 -975h-166l16 152
q-70 -86 -171 -134.5t-210 -48.5zM1081 1438l-24 -150h-697l25 150h696z" />
    <glyph glyph-name="Abreve" unicode="&#x102;" horiz-adv-x="1253" 
d="M399 530h455l-113 707zM668 1423h217l248 -1423h-195l-59 377h-553l-183 -377h-186zM807 1591q-172 0 -245 102.5t-30 301.5h142q-57 -283 151.5 -283t245.5 283h141q-23 -199 -128 -301.5t-277 -102.5z" />
    <glyph glyph-name="abreve" unicode="&#x103;" horiz-adv-x="1130" 
d="M470 133q105 0 194.5 55.5t146.5 151.5l53 313q-66 193 -254 193q-147 0 -259.5 -125t-112.5 -320q0 -125 63.5 -196.5t168.5 -71.5zM401 -31q-156 0 -251 101.5t-95 289.5q0 289 159 467.5t384 178.5q100 0 178 -48.5t121 -126.5l33 144h164l-162 -975h-166l16 152
q-70 -86 -171 -134.5t-210 -48.5zM697 1167q-173 0 -245.5 102.5t-27.5 301.5h141q-61 -283 150 -283t248 283h141q-23 -199 -128.5 -301.5t-278.5 -102.5z" />
    <glyph glyph-name="Aogonek" unicode="&#x104;" horiz-adv-x="1253" 
d="M399 530h455l-113 707zM873 -459q89 0 180 56l10 -125q-131 -68 -240.5 -68t-158 46t-48.5 124q0 133 96.5 242.5t254.5 183.5h-29l-59 377h-553l-183 -377h-186l711 1423h217l248 -1423q-348 -168 -349 -367q0 -92 89 -92z" />
    <glyph glyph-name="aogonek" unicode="&#x105;" horiz-adv-x="1130" 
d="M470 133q105 0 194.5 55.5t146.5 151.5l53 313q-66 193 -254 193q-147 0 -259.5 -125t-112.5 -320q0 -125 63.5 -196.5t168.5 -71.5zM680 -424q84 0 180 51l10 -125q-127 -63 -241.5 -63t-162.5 51t-42 135q12 225 344 391l14 136q-70 -86 -171 -134.5t-210 -48.5
q-156 0 -251 101.5t-95 289.5q0 289 159 467.5t384 178.5q100 0 178 -48.5t121 -126.5l33 144h164l-158 -952v-3l-4 -20h-35q-303 -162 -309 -330q-4 -94 92 -94z" />
    <glyph glyph-name="Cacute" unicode="&#x106;" horiz-adv-x="1300" 
d="M679.5 -31q-131.5 0 -227.5 34t-177.5 103.5t-130 193.5t-48.5 290q0 233 100.5 428.5t293 315.5t460 120t445.5 -156l-115 -155q-139 133 -365 133q-270 0 -446 -194.5t-176 -479.5q0 -233 115.5 -342.5t267 -109.5t277.5 46t210 119l43 -174q-100 -78 -247.5 -125
t-279 -47zM1378 1995l-389 -422h-145l336 422h198z" />
    <glyph glyph-name="cacute" unicode="&#x107;" horiz-adv-x="911" 
d="M428 -31q-160 0 -266.5 97.5t-106.5 306.5q0 276 171 454.5t411 178.5q180 0 307 -117l-102 -129q-92 88 -228.5 88t-257 -127t-120.5 -322q0 -135 69.5 -200.5t173.5 -65.5q184 0 312 111l32 -150q-154 -125 -395 -125zM999 1561l-323 -433h-125l262 433h186z" />
    <glyph glyph-name="Cdotaccent" unicode="&#x10a;" horiz-adv-x="1300" 
d="M679.5 -31q-131.5 0 -227.5 34t-177.5 103.5t-130 193.5t-48.5 290q0 233 100.5 428.5t293 315.5t460 120t445.5 -156l-115 -155q-139 133 -365 133q-270 0 -446 -194.5t-176 -479.5q0 -233 115.5 -342.5t267 -109.5t277.5 46t210 119l43 -174q-100 -78 -247.5 -125
t-279 -47zM977 1858q51 0 79.5 -35t19.5 -84t-49 -84t-90 -35t-78.5 35t-18.5 84q8 49 47 84t90 35z" />
    <glyph glyph-name="cdotaccent" unicode="&#x10b;" horiz-adv-x="911" 
d="M428 -31q-160 0 -266.5 97.5t-106.5 306.5q0 276 171 454.5t411 178.5q180 0 307 -117l-102 -129q-92 88 -228.5 88t-257 -127t-120.5 -322q0 -135 69.5 -200.5t173.5 -65.5q184 0 312 111l32 -150q-154 -125 -395 -125zM705.5 1415q52.5 0 82 -37t21.5 -88t-49 -88
t-94.5 -37t-83 36t-20.5 88t50 89t93.5 37z" />
    <glyph glyph-name="Ccaron" unicode="&#x10c;" horiz-adv-x="1300" 
d="M915 1276q-270 0 -446 -194.5t-176 -479.5q0 -233 115.5 -342.5t267.5 -109.5t277.5 46t209.5 119l43 -174q-100 -78 -248 -125q-146 -47 -278 -47t-228 34t-177.5 103.5t-130 193.5t-48.5 290q0 233 100.5 428.5t293 315.5t460.5 120t445 -156l-115 -155
q-140 133 -365 133zM1008 1579h-160l-176 444h131l147 -317l254 317h131z" />
    <glyph glyph-name="ccaron" unicode="&#x10d;" horiz-adv-x="911" 
d="M55 373q0 276 171 454.5t411 178.5q180 0 307 -117l-102 -129q-92 88 -228 88t-257 -127t-121 -322q0 -135 69.5 -200.5t173.5 -65.5q184 0 312 111l32 -150q-154 -125 -395 -125q-160 0 -266.5 97.5t-106.5 306.5zM723 1128h-158l-178 445h131l150 -318l252 318h131z
" />
    <glyph glyph-name="Dcaron" unicode="&#x10e;" horiz-adv-x="1406" 
d="M508 170q256 0 452 150q100 76 160 214t60 320q0 403 -443 403h-254l-180 -1087h205zM768 1423q289 0 449.5 -137t160.5 -416q0 -215 -72.5 -385t-195.5 -273q-253 -212 -596 -212h-424l234 1423h444zM954 1579h-159l-177 444h132l147 -317l254 317h131z" />
    <glyph glyph-name="dcaron" unicode="&#x10f;" horiz-adv-x="1144" 
d="M471 131q219 0 342 211l53 326q-66 180 -252 180q-152 0 -264 -127t-112 -324q0 -125 63.5 -195.5t169.5 -70.5zM53 362q0 283 159 463.5t372 180.5t311 -166l111 684h180l-252 -1524h-164l16 150q-152 -180 -385 -181q-156 0 -252 102.5t-96 290.5zM1294 1532h172
l-188 -612h-113z" />
    <glyph glyph-name="Dcroat" unicode="&#x110;" horiz-adv-x="1406" 
d="M508 170q256 0 452 150q100 76 160 214t60 320q0 403 -443 403h-254l-71 -430h393l-25 -153h-395l-82 -504h205zM768 1423q289 0 449.5 -137t160.5 -416q0 -215 -72.5 -385t-195.5 -273q-253 -212 -596 -212h-424l111 674h-115l27 153h112l99 596h444z" />
    <glyph glyph-name="dcroat" unicode="&#x111;" horiz-adv-x="1132" 
d="M471 131q219 0 342 211l53 326q-66 180 -252 180q-152 0 -264 -127t-112 -324q0 -125 63.5 -195.5t169.5 -70.5zM53 362q0 283 159 463.5t372 180.5t311 -166l66 403h-426l24 154h426l21 127h180l-21 -127h121l-24 -154h-123l-205 -1243h-164l16 150q-152 -180 -385 -181
q-156 0 -252 102.5t-96 290.5z" />
    <glyph glyph-name="Emacron" unicode="&#x112;" horiz-adv-x="1122" 
d="M1206 1257h-723l-71 -436h571l-25 -153h-571l-82 -500h721l-27 -168h-909l234 1423h909zM1194 1853l-25 -149h-696l25 149h696z" />
    <glyph glyph-name="emacron" unicode="&#x113;" horiz-adv-x="1001" 
d="M596 864q-113 0 -208 -86t-134 -225h532q6 41 7 76q0 235 -197 235zM625 1006q154 0 242.5 -89.5t88.5 -273.5q0 -98 -20 -199h-703q-2 -16 -2 -51q0 -147 79 -207.5t188 -60.5q182 0 340 104l39 -141q-178 -119 -412 -119q-174 0 -293 94.5t-119 296.5q0 272 164 459
t408 187zM305 1438h696l-24 -150h-696z" />
    <glyph glyph-name="Edotaccent" unicode="&#x116;" horiz-adv-x="1122" 
d="M1206 1257h-723l-71 -436h571l-25 -153h-571l-82 -500h721l-27 -168h-909l234 1423h909zM804 1620q-50 0 -79 35t-18 84q8 49 47 84t90 35t79.5 -35t19.5 -84t-49 -84t-90 -35z" />
    <glyph glyph-name="edotaccent" unicode="&#x117;" horiz-adv-x="1001" 
d="M596 864q-113 0 -208 -86t-134 -225h532q6 41 7 76q0 235 -197 235zM231 393q0 -147 79 -207.5t188 -60.5q182 0 340 104l39 -141q-178 -119 -412 -119q-174 0 -293 94.5t-119 296.5q0 272 164 459t408 187q154 0 242.5 -89.5t88.5 -273.5q0 -99 -20 -199h-703
q-2 -16 -2 -51zM624.5 1165q-53.5 0 -83 36t-20.5 88t50 89t93.5 37t82 -37t21.5 -88t-49 -88t-94.5 -37z" />
    <glyph glyph-name="Eogonek" unicode="&#x118;" horiz-adv-x="1122" 
d="M651 -367q0 -92 89 -92t180 56l10 -125q-131 -68 -240.5 -68t-158 46t-48.5 124q0 133 96.5 242.5t254.5 183.5h-744l234 1423h909l-27 -166h-723l-71 -436h571l-25 -153h-571l-82 -500h721l-27 -168q-348 -168 -348 -367z" />
    <glyph glyph-name="eogonek" unicode="&#x119;" horiz-adv-x="1001" 
d="M596 864q-113 0 -208 -86t-134 -225h532q6 41 7 76q0 235 -197 235zM231 393q0 -147 79 -207.5t188 -60.5q182 0 340 104l39 -141l-31 -18q-182 -115 -260 -186.5t-78 -159.5t88 -88.5t184 51.5l11 -125q-127 -63 -239.5 -63.5t-161 45.5t-48.5 124q0 168 203 305
q-53 -4 -80 -4q-174 0 -293 94.5t-119 296.5q0 272 164 459t408 187q154 0 242.5 -89.5t88.5 -273.5q0 -99 -20 -199h-703q-2 -16 -2 -51z" />
    <glyph glyph-name="Ecaron" unicode="&#x11a;" horiz-adv-x="1122" 
d="M1206 1257h-723l-71 -436h571l-25 -153h-571l-82 -500h721l-27 -168h-909l234 1423h909zM874 1579h-159l-176 444h131l147 -317l254 317h131z" />
    <glyph glyph-name="ecaron" unicode="&#x11b;" horiz-adv-x="1001" 
d="M596 864q-113 0 -208 -86t-134 -225h532q6 41 7 76q0 235 -197 235zM625 1006q154 0 242.5 -89.5t88.5 -273.5q0 -98 -20 -199h-703q-2 -16 -2 -51q0 -147 79 -207.5t188 -60.5q182 0 340 104l39 -141q-178 -119 -412 -119q-174 0 -293 94.5t-119 296.5q0 272 164 459
t408 187zM682 1128h-158l-178 445h131l150 -318l252 318h131z" />
    <glyph glyph-name="Gbreve" unicode="&#x11e;" horiz-adv-x="1423" 
d="M98 584q0 367 233.5 618.5t604.5 251.5q129 0 258 -45t215 -123l-127 -145q-158 139 -369 139q-270 0 -444 -197.5t-174 -488.5q0 -231 122 -339t309 -108t339 56l70 436h-390l25 149h578l-119 -733q-249 -86 -513 -86q-264 1 -432 133q-87 68 -136.5 191t-49.5 291z
M922 1591q-172 0 -245 102.5t-30 301.5h141q-57 -283 152 -283t246 283h141q-23 -199 -128 -301.5t-277 -102.5z" />
    <glyph glyph-name="gbreve" unicode="&#x11f;" horiz-adv-x="1132" 
d="M471.5 133q105.5 0 195 52.5t148.5 146.5l53 319q-61 195 -262 195q-150 0 -262.5 -127t-112.5 -320q0 -125 67.5 -195.5t173 -70.5zM383 -532q-242 0 -397 133l63 153q135 -131 330 -131q317 0 381 377l22 139q-70 -82 -168 -126t-204 -44q-162 0 -259.5 103.5
t-97.5 294.5q0 285 158 462t383 177q104 0 186 -47.5t125 -124.5l39 141h154l-164 -985q-86 -522 -551 -522zM683 1165q-173 0 -245.5 102.5t-27.5 301.5h141q-61 -283 149.5 -283t247.5 283h142q-23 -199 -128.5 -301.5t-278.5 -102.5z" />
    <glyph glyph-name="Gdotaccent" unicode="&#x120;" horiz-adv-x="1423" 
d="M98 584q0 367 233.5 618.5t604.5 251.5q129 0 258 -45t215 -123l-127 -145q-158 139 -369 139q-270 0 -444 -197.5t-174 -488.5q0 -231 122 -339t309 -108t339 56l70 436h-390l25 149h578l-119 -733q-249 -86 -513 -86q-264 1 -432 133q-87 68 -136.5 191t-49.5 291z
M925 1620q-50 0 -79 35t-19 84q8 49 47 84t90.5 35t80 -35t19.5 -84t-49 -84t-90 -35z" />
    <glyph glyph-name="gdotaccent" unicode="&#x121;" horiz-adv-x="1132" 
d="M471.5 133q105.5 0 195 52.5t148.5 146.5l53 319q-61 195 -262 195q-150 0 -262.5 -127t-112.5 -320q0 -125 67.5 -195.5t173 -70.5zM383 -532q-242 0 -397 133l63 153q135 -131 330 -131q317 0 381 377l22 139q-70 -82 -168 -126t-204 -44q-162 0 -259.5 103.5
t-97.5 294.5q0 285 158 462t383 177q104 0 186 -47.5t125 -124.5l39 141h154l-164 -985q-86 -522 -551 -522zM690 1163q-53 0 -82.5 36t-20.5 88t50 89t93 37t82 -37t21.5 -88t-49.5 -88t-94 -37z" />
    <glyph glyph-name="Gcommaaccent" unicode="&#x122;" horiz-adv-x="1423" 
d="M681.5 -104q62.5 0 95 -54.5t16.5 -146.5q-43 -242 -289 -344l-47 94q84 35 134 81t77 120q-20 -6 -57 -6t-66 33.5t-19 92t51.5 94.5t104 36zM98 584q0 367 233.5 618.5t604.5 251.5q129 0 258 -45t215 -123l-127 -145q-158 139 -369 139q-270 0 -444 -197.5
t-174 -488.5q0 -231 122 -339t309 -108t339 56l70 436h-390l25 149h578l-119 -733q-249 -86 -513 -86q-264 1 -432 133q-87 68 -136.5 191t-49.5 291z" />
    <glyph glyph-name="gcommaaccent" unicode="&#x123;" horiz-adv-x="1132" 
d="M471.5 133q105.5 0 195 52.5t148.5 146.5l53 319q-61 195 -262 195q-150 0 -262.5 -127t-112.5 -320q0 -125 67.5 -195.5t173 -70.5zM383 -532q-242 0 -397 133l63 153q135 -131 330 -131q317 0 381 377l22 139q-70 -82 -168 -126t-204 -44q-162 0 -259.5 103.5
t-97.5 294.5q0 285 158 462t383 177q104 0 186 -47.5t125 -124.5l39 141h154l-164 -985q-86 -522 -551 -522zM682.5 1174q-62.5 0 -93 52t-12.5 155.5t90 195.5t195 137l45 -94q-172 -72 -217 -217q31 12 68 12t64.5 -28.5t18.5 -85.5t-52.5 -92t-106 -35z" />
    <glyph glyph-name="Hbar" unicode="&#x126;" horiz-adv-x="1423" 
d="M1108 719l49 301h-715l-49 -301h715zM1477 1163l-25 -143h-111l-167 -1020h-185l92 557h-714l-93 -557h-184l168 1020h-106l24 143h105l43 260h186l-43 -260h713l43 260h184l-43 -260h113z" />
    <glyph glyph-name="hbar" unicode="&#x127;" horiz-adv-x="1077" 
d="M729 1006q147 0 214 -100.5t38 -272.5l-104 -635h-179l99 592q43 254 -160 254q-193 0 -313 -215l-103 -629l-178 2l199 1210h-101l25 154h100l27 160h178l-27 -160h449l-25 -154h-448l-70 -426q137 220 379 220z" />
    <glyph glyph-name="Imacron" unicode="&#x12a;" horiz-adv-x="524" 
d="M508 1423l-234 -1423h-184l234 1423h184zM123 1704l24 149h697l-25 -149h-696z" />
    <glyph glyph-name="imacron" unicode="&#x12b;" horiz-adv-x="477" 
d="M408 975l-162 -975h-178l161 975h179zM39 1438h696l-24 -150h-697z" />
    <glyph glyph-name="Iogonek" unicode="&#x12e;" horiz-adv-x="524" 
d="M-74 -367q0 -92 89 -92t180 56l10 -125q-131 -68 -240.5 -68t-158 46t-48.5 124q0 133 96.5 242.5t254.5 183.5h-19l234 1423h184l-234 -1423q-348 -168 -348 -367z" />
    <glyph glyph-name="iogonek" unicode="&#x12f;" horiz-adv-x="477" 
d="M-10 -444q84 0 180 51l10 -125q-127 -63 -241.5 -63.5t-162.5 51t-42 135.5q12 231 354 395h-20l161 975h179l-162 -975q-342 -174 -348 -350q-4 -94 92 -94zM398 1415q52 0 82 -37t22 -88t-49 -88t-94.5 -37t-83 36t-20.5 88t50 89t93 37z" />
    <glyph glyph-name="Idotaccent" unicode="&#x130;" horiz-adv-x="524" 
d="M508 1423l-234 -1423h-184l234 1423h184zM493.5 1858q51.5 0 80 -35t19.5 -84t-49 -84t-90 -35t-79 35t-19 84q8 49 47 84t90.5 35z" />
    <glyph glyph-name="dotlessi" unicode="&#x131;" horiz-adv-x="477" 
d="M408 975l-162 -975h-178l161 975h179z" />
    <glyph glyph-name="Kcommaaccent" unicode="&#x136;" horiz-adv-x="1232" 
d="M537.5 -104q62.5 0 95.5 -54.5t16 -146.5q-43 -242 -289 -344l-47 94q84 35 134.5 81t76.5 120q-20 -6 -57 -6t-65.5 33.5t-18.5 92t51 94.5t103.5 36zM1335 1423l-547 -528l308 -895h-215l-252 741l-277 -266l-78 -475h-184l234 1423h186l-115 -698l717 698h223z" />
    <glyph glyph-name="kcommaaccent" unicode="&#x137;" horiz-adv-x="962" 
d="M388.5 -104q62.5 0 95 -54.5t16.5 -146.5q-43 -242 -289 -344l-47 94q84 35 134 81t77 120q-23 -6 -58.5 -6t-64.5 33.5t-19 92t51.5 94.5t104 36zM991 975l-366 -354l229 -621h-195l-174 485l-221 -213l-45 -272h-176l250 1526h178l-176 -1061l481 510h215z" />
    <glyph glyph-name="Lacute" unicode="&#x139;" horiz-adv-x="974" 
d="M301 168h606l-28 -168h-793l238 1423h186zM897 1995l-389 -422h-146l336 422h199z" />
    <glyph glyph-name="lacute" unicode="&#x13a;" horiz-adv-x="428" 
d="M469 1526l-248 -1526h-176l248 1526h176zM856 2097l-389 -422h-145l335 422h199z" />
    <glyph glyph-name="Lcommaaccent" unicode="&#x13b;" horiz-adv-x="974" 
d="M476.5 -104q62.5 0 95 -54.5t16.5 -146.5q-43 -242 -289 -344l-47 94q84 35 134 81t77 120q-20 -6 -57 -6t-66 33.5t-18.5 92t51.5 94.5t103.5 36zM301 168h606l-28 -168h-793l238 1423h186z" />
    <glyph glyph-name="lcommaaccent" unicode="&#x13c;" horiz-adv-x="428" 
d="M122.5 -104q62.5 0 95 -54.5t15.5 -146.5q-43 -242 -288 -344l-47 94q84 35 134 81t77 120q-23 -6 -58.5 -6t-64.5 33.5t-19 92t51.5 94.5t104 36zM469 1526l-248 -1526h-176l248 1526h176z" />
    <glyph glyph-name="Lcaron" unicode="&#x13d;" horiz-adv-x="974" 
d="M301 168h606l-28 -168h-793l238 1423h186zM526 1579h-159l-177 444h132l147 -317l254 317h131z" />
    <glyph glyph-name="lcaron" unicode="&#x13e;" horiz-adv-x="561" 
d="M469 1526l-248 -1526h-176l248 1526h176zM766 1532l-188 -612h-113l129 612h172z" />
    <glyph glyph-name="Lslash" unicode="&#x141;" horiz-adv-x="974" 
d="M301 168h606l-28 -168h-793l109 649l-256 -98l-48 141l332 129l101 602h186l-88 -524l252 98l53 -141l-332 -129z" />
    <glyph glyph-name="lslash" unicode="&#x142;" horiz-adv-x="724" 
d="M842 938l-353 -137l-131 -801h-176l119 729l-248 -96l-47 141l322 125l102 627h176l-90 -553l272 106z" />
    <glyph glyph-name="Nacute" unicode="&#x143;" horiz-adv-x="1386" 
d="M1206 1423h168l-237 -1423h-179l-514 1110l-184 -1110h-170l234 1423h176l520 -1120zM1325 1995l-389 -422h-145l335 422h199z" />
    <glyph glyph-name="nacute" unicode="&#x144;" horiz-adv-x="1089" 
d="M741 1006q150 0 215.5 -100.5t36.5 -272.5l-104 -635h-178l98 592q43 254 -160 254q-96 0 -178 -60.5t-137 -165.5l-105 -618h-176l162 975h178l-33 -191q139 222 381 222zM999 1561l-323 -433h-125l262 433h186z" />
    <glyph glyph-name="Ncommaaccent" unicode="&#x145;" horiz-adv-x="1386" 
d="M603.5 -104q62.5 0 95 -54.5t16.5 -146.5q-43 -242 -289 -344l-47 94q84 35 134 81t77 120q-20 -6 -57 -6t-66 33.5t-18.5 92t51.5 94.5t103.5 36zM1206 1423h168l-237 -1423h-179l-514 1110l-184 -1110h-170l234 1423h176l520 -1120z" />
    <glyph glyph-name="ncommaaccent" unicode="&#x146;" horiz-adv-x="1089" 
d="M453.5 -104q62.5 0 95.5 -54.5t16 -146.5q-43 -242 -289 -344l-47 94q84 35 134.5 81t76.5 120q-23 -6 -58.5 -6t-64 33.5t-18.5 92t51 94.5t103.5 36zM741 1006q150 0 215.5 -100.5t36.5 -272.5l-104 -635h-178l98 592q43 254 -160 254q-96 0 -178 -60.5t-137 -165.5
l-105 -618h-176l162 975h178l-33 -191q139 222 381 222z" />
    <glyph glyph-name="Ncaron" unicode="&#x147;" horiz-adv-x="1386" 
d="M1206 1423h168l-237 -1423h-179l-514 1110l-184 -1110h-170l234 1423h176l520 -1120zM954 1579h-159l-177 444h132l147 -317l254 317h131z" />
    <glyph glyph-name="ncaron" unicode="&#x148;" horiz-adv-x="1089" 
d="M741 1006q150 0 215.5 -100.5t36.5 -272.5l-104 -635h-178l98 592q43 254 -160 254q-96 0 -178 -60.5t-137 -165.5l-105 -618h-176l162 975h178l-33 -191q139 222 381 222zM723 1128h-158l-178 445h131l150 -318l252 318h131z" />
    <glyph glyph-name="Eng" unicode="&#x14a;" horiz-adv-x="1376" 
d="M689 -432q-179 0 -316 113l69 143q98 -98 246 -98q217 0 277 260l-521 1124l-184 -1110h-170l234 1423h176l520 -1120l186 1120h168l-229 -1364q-41 -272 -159 -381.5t-297 -109.5z" />
    <glyph glyph-name="eng" unicode="&#x14b;" horiz-adv-x="1085" 
d="M741 1006q150 0 215.5 -100.5t36.5 -272.5l-119 -711q-35 -195 -146.5 -288t-297.5 -107l-24 149q250 10 290 250l113 664q43 254 -160 254q-96 0 -178 -60.5t-137 -165.5l-105 -618h-176l162 975h178l-33 -191q139 222 381 222z" />
    <glyph glyph-name="Omacron" unicode="&#x14c;" horiz-adv-x="1525" 
d="M688 150q270 0 447.5 207.5t177.5 473.5q0 219 -118 332t-294 113q-258 0 -434 -197.5t-176 -470.5q0 -231 111.5 -344.5t285.5 -113.5zM667 -31q-246 0 -409.5 151.5t-163.5 459.5q0 367 236.5 620.5t599.5 253.5q176 0 329 -92t215 -280q34 -104 35 -230
q0 -231 -100 -430t-298 -326t-444 -127zM623 1704l24 149h696l-24 -149h-696z" />
    <glyph glyph-name="omacron" unicode="&#x14d;" horiz-adv-x="1097" 
d="M477 135q153 -4 267 118q114 121 121 287t-64.5 234t-173.5 70q-158 2 -276 -123t-120 -305q-2 -137 66.5 -209t179.5 -72zM459 -31q-174 0 -289 101.5t-115 308.5q0 256 168 441.5t428 185.5q168 0 279.5 -100.5t111.5 -309.5q0 -272 -168.5 -449.5t-414.5 -177.5z
M362 1438h697l-25 -150h-696z" />
    <glyph glyph-name="Ohungarumlaut" unicode="&#x150;" horiz-adv-x="1525" 
d="M688 150q270 0 447.5 207.5t177.5 473.5q0 219 -118 332t-294 113q-258 0 -434 -197.5t-176 -470.5q0 -231 111.5 -344.5t285.5 -113.5zM667 -31q-246 0 -409.5 151.5t-163.5 459.5q0 367 236.5 620.5t599.5 253.5q176 0 329 -92t215 -280q34 -104 35 -230
q0 -231 -100 -430t-298 -326t-444 -127zM1526 2005l-402 -432h-129l344 432h187zM1116 2005l-276 -432h-115l211 432h180z" />
    <glyph glyph-name="ohungarumlaut" unicode="&#x151;" horiz-adv-x="1097" 
d="M477 135q153 -4 267 118q114 121 121 287t-64.5 234t-173.5 70q-158 2 -276 -123t-120 -305q-2 -137 66.5 -209t179.5 -72zM459 -31q-174 0 -289 101.5t-115 308.5q0 256 168 441.5t428 185.5q168 0 279.5 -100.5t111.5 -309.5q0 -272 -168.5 -449.5t-414.5 -177.5z
M1227 1561l-402 -433h-127l342 433h187zM856 1561l-276 -433h-115l211 433h180z" />
    <glyph glyph-name="OE" unicode="&#x152;" horiz-adv-x="2101" 
d="M688 150q256 0 432 161l133 799q-113 166 -357.5 166t-424.5 -198.5t-180 -473.5q0 -229 111.5 -341.5t285.5 -112.5zM94 580q0 365 236.5 618.5t599.5 255.5q213 -4 360 -119l15 88h909l-27 -166h-723l-71 -436h579l-24 -153h-582l-82 -500h723l-29 -168h-909l12 72
q-193 -102 -420 -102t-391 138q-82 70 -129 191t-47 281z" />
    <glyph glyph-name="oe" unicode="&#x153;" horiz-adv-x="1796" 
d="M477 135q152 -4 266.5 118t121.5 287.5t-64.5 233.5t-173.5 70q-158 2 -276 -123t-120 -305q-2 -137 66.5 -209t179.5 -72zM1389 864q-113 0 -207.5 -87t-134.5 -226h534q6 39 6 78q1 235 -198 235zM1026 393q0 -147 77 -207.5t187 -60.5q184 0 342 104l39 -141
q-178 -119 -411 -119q-123 0 -222.5 52.5t-142.5 162.5q-78 -102 -192.5 -158.5t-243.5 -56.5q-174 0 -289 101.5t-115 308.5q0 256 168 441.5t428 185.5q117 0 210 -55.5t134 -168.5q164 223 424 224q152 0 242 -89.5t90 -273.5q0 -90 -20 -192h-703q-2 -18 -2 -58z" />
    <glyph glyph-name="Racute" unicode="&#x154;" horiz-adv-x="1267" 
d="M705 754q170 0 268 83t98 222q0 98 -63.5 147t-171.5 49h-355l-84 -501h308zM883 1423q387 0 387 -344q0 -178 -114 -301t-300 -162l274 -616h-221l-247 602h-289l-101 -602h-184l236 1423h559zM1294 1995l-389 -422h-145l336 422h198z" />
    <glyph glyph-name="racute" unicode="&#x155;" horiz-adv-x="663" 
d="M637 827q-115 0 -193.5 -81.5t-132.5 -260.5l-82 -485h-176l162 975h170l-31 -223q111 240 303 239q47 0 72 -6l-31 -164q-25 6 -61 6zM848 1561l-324 -433h-125l263 433h186z" />
    <glyph glyph-name="Rcommaaccent" unicode="&#x156;" horiz-adv-x="1267" 
d="M572.5 -104q62.5 0 95 -54.5t16.5 -146.5q-43 -242 -289 -344l-47 94q84 35 134 81t77 120q-23 -6 -58.5 -6t-64 33.5t-18.5 92t51 94.5t103.5 36zM705 754q170 0 268 83t98 222q0 98 -63.5 147t-171.5 49h-355l-84 -501h308zM1270 1079.5q0 -178.5 -114 -301.5
t-300 -162l274 -616h-221l-247 602h-289l-101 -602h-184l236 1423h559q188 0 287.5 -82.5t99.5 -261z" />
    <glyph glyph-name="rcommaaccent" unicode="&#x157;" horiz-adv-x="663" 
d="M132.5 -104q62.5 0 95 -54.5t16.5 -146.5q-43 -242 -289 -344l-47 94q84 35 134 81t77 120q-20 -6 -57 -6t-66 33.5t-19 92t51.5 94.5t104 36zM657 991q47 0 72 -6l-31 -164q-25 6 -61 6q-115 0 -193.5 -81.5t-132.5 -260.5l-82 -485h-176l162 975h170l-31 -223
q110 239 303 239z" />
    <glyph glyph-name="Rcaron" unicode="&#x158;" horiz-adv-x="1267" 
d="M705 754q170 0 268 83t98 222q0 98 -63.5 147t-171.5 49h-355l-84 -501h308zM1270 1079.5q0 -178.5 -114 -301.5t-300 -162l274 -616h-221l-247 602h-289l-101 -602h-184l236 1423h559q188 0 287.5 -82.5t99.5 -261zM924 1579h-160l-176 444h131l147 -317l254 317h131z
" />
    <glyph glyph-name="rcaron" unicode="&#x159;" horiz-adv-x="663" 
d="M637 827q-115 0 -193.5 -81.5t-132.5 -260.5l-82 -485h-176l162 975h170l-31 -223q111 240 303 239q47 0 72 -6l-31 -164q-25 6 -61 6zM571 1128h-157l-178 445h131l149 -318l252 318h131z" />
    <glyph glyph-name="Sacute" unicode="&#x15a;" horiz-adv-x="1069" 
d="M465 -31q-266 0 -465 168l74 180q154 -174 395 -174q139 0 227 70t88 175t-61 156.5t-212 112t-236 148.5t-85 255t128 280.5t363 113.5t427 -129l-104 -154q-152 113 -334 113q-127 0 -206 -58.5t-79 -155.5t55.5 -149.5t148.5 -89.5t131 -54t94 -54q163 -108 163 -312
t-145.5 -323t-366.5 -119zM1178 1995l-390 -422h-145l336 422h199z" />
    <glyph glyph-name="sacute" unicode="&#x15b;" horiz-adv-x="778" 
d="M90 724q0 122 94.5 202t264.5 80t319 -80l-76 -131q-109 70 -250 69q-184 0 -184 -135q0 -104 156 -160q135 -45 205.5 -107.5t70.5 -196t-111.5 -215t-295 -81.5t-314.5 97l62 137q106 -92 274 -92q94 0 154.5 40.5t60.5 117t-78 116.5q-32 17 -46 21
q-171 57 -238.5 126.5t-67.5 191.5zM819 1561l-323 -433h-125l262 433h186z" />
    <glyph glyph-name="Scedilla" unicode="&#x15e;" horiz-adv-x="1069" 
d="M670 1284q-127 0 -206 -58.5t-79 -155.5t55.5 -149.5t148.5 -89.5t131 -54t94 -54q163 -108 163 -304.5t-129 -314.5t-330 -133l-88 -141q61 29 134 29t118 -42t45 -120q0 -131 -90 -204t-237 -73t-230 68l57 106q61 -66 183 -65q84 0 134 40t50 107q0 84 -86 84
t-143 -51l-89 37l130 225q-229 18 -406 166l74 180q154 -174 395 -174q139 0 227 70t88 175t-61 156.5t-212 112t-236 148.5t-85 255t128 280.5t363 113.5t427 -129l-104 -154q-152 113 -334 113z" />
    <glyph glyph-name="scedilla" unicode="&#x15f;" horiz-adv-x="778" 
d="M418 -338q0 80 -102 80q-58 0 -111 -47l-90 35l135 241q-162 8 -281 95l62 137q106 -92 274 -92q94 0 154.5 41t60.5 117t-78 116q-32 17 -46 21q-171 57 -238.5 126.5t-67.5 191.5t94.5 202t264.5 80t319 -80l-76 -131q-109 69 -250 69q-184 0 -184 -135
q0 -104 156 -160q135 -45 205.5 -107.5t70.5 -188t-88 -204.5t-231 -96l-101 -161q57 23 113 22q170 0 170 -168q0 -123 -90 -192.5t-223 -69.5t-238 61l55 101q90 -51 174.5 -51t135.5 41t51 106z" />
    <glyph glyph-name="Scaron" unicode="&#x160;" horiz-adv-x="1069" 
d="M190 1060q0 167 128 280.5t363 113.5t427 -129l-104 -154q-152 113 -334 113q-127 0 -206 -58.5t-79 -155.5t55.5 -149.5t148.5 -89.5t131 -54t94 -54q163 -108 163 -312t-145.5 -323t-366.5 -119q-266 0 -465 168l74 180q154 -174 395 -174q139 0 227 70t88 175
t-61 156.5t-212 112t-236 148.5t-85 255zM807 1579h-160l-176 444h131l148 -317l254 317h131z" />
    <glyph glyph-name="scaron" unicode="&#x161;" horiz-adv-x="778" 
d="M90 724q0 122 94.5 202t264.5 80t319 -80l-76 -131q-109 70 -250 69q-184 0 -184 -135q0 -104 156 -160q135 -45 205.5 -107.5t70.5 -196t-111.5 -215t-295 -81.5t-314.5 97l62 137q106 -92 274 -92q94 0 154.5 41t60.5 117t-78 116q-32 17 -46 21q-171 57 -238.5 126.5
t-67.5 191.5zM543 1128h-158l-178 445h131l149 -318l252 318h131z" />
    <glyph glyph-name="uni0162" unicode="&#x162;" horiz-adv-x="1054" 
d="M527 -141q73 0 118 -42t45 -120q0 -131 -90 -204t-236.5 -73t-230.5 68l57 106q61 -66 183 -65q84 0 134 40t50 107q0 84 -86 84t-143 -51l-88 37l145 254h-27l207 1255h-407l26 168h1002l-29 -168h-407l-207 -1255h-43l-107 -170q61 29 134 29z" />
    <glyph glyph-name="uni0163" unicode="&#x163;" horiz-adv-x="657" 
d="M496 -338q0 80 -102 80q-58 0 -111 -47l-90 35l135 241q-111 14 -159 100.5t-24 241.5l84 510h-129l23 152h131l51 311h178l-51 -311h283l-23 -152h-286l-82 -493q-33 -203 116 -203q100 0 197 63l10 -149q-92 -55 -198 -68l-101 -161q57 23 113 22q170 0 170 -168
q0 -123 -90 -192.5t-223 -69.5t-238 61l55 101q90 -51 174 -51t135.5 41t51.5 106z" />
    <glyph glyph-name="Tcaron" unicode="&#x164;" horiz-adv-x="1054" 
d="M1186 1423l-29 -168h-407l-207 -1255h-185l207 1255h-407l26 168h1002zM791 1579h-160l-176 444h131l147 -317l254 317h131z" />
    <glyph glyph-name="tcaron" unicode="&#x165;" horiz-adv-x="720" 
d="M440 127q100 0 197 63l10 -149q-121 -72 -264 -72t-204.5 86t-33.5 258l84 510h-129l23 152h131l51 311h178l-51 -311h283l-23 -152h-286l-82 -493q-33 -203 116 -203zM852 1673l-188 -612h-113l129 612h172z" />
    <glyph glyph-name="Tbar" unicode="&#x166;" horiz-adv-x="1079" 
d="M1157 1255h-407l-91 -540h283l-24 -154h-283l-92 -561h-185l93 561h-261l25 154h260l90 540h-407l26 168h1002z" />
    <glyph glyph-name="tbar" unicode="&#x167;" horiz-adv-x="712" 
d="M440 127q100 0 197 63l10 -149q-121 -72 -264 -72t-204.5 86t-33.5 258l33 195h-119l19 110h117l41 242h-132l19 115h131l51 311h178l-51 -311h283l-21 -115h-282l-39 -242h293l-17 -110h-295l-30 -178q-33 -203 116 -203z" />
    <glyph glyph-name="Umacron" unicode="&#x16a;" horiz-adv-x="1370" 
d="M602 -31q-176 0 -286 87q-208 165 -146 540l135 827h184l-137 -841q-33 -190 33 -314.5t238 -124.5t282.5 115t145.5 322l141 843h186l-139 -835q-51 -305 -214 -462t-423 -157zM545 1704l24 149h697l-25 -149h-696z" />
    <glyph glyph-name="umacron" unicode="&#x16b;" horiz-adv-x="1064" 
d="M330 -31q-143 0 -208 103.5t-36 279.5l104 623h179l-99 -582q-20 -125 18 -193.5t132 -68.5q194 0 315 223l103 621h176l-160 -975h-178l31 180q-147 -211 -377 -211zM1034 1438l-24 -150h-697l25 150h696z" />
    <glyph glyph-name="Uring" unicode="&#x16e;" horiz-adv-x="1370" 
d="M602 -31q-176 0 -286 87q-208 165 -146 540l135 827h184l-137 -841q-33 -190 33 -314.5t238 -124.5t282.5 115t145.5 322l141 843h186l-139 -835q-51 -305 -214 -462t-423 -157zM929 1944q-58 0 -101.5 -39t-54.5 -101.5t19.5 -98.5t90 -36t102.5 36t53 99
q8 63 -21.5 101.5t-87.5 38.5zM945.5 2046q111.5 0 167.5 -67.5t39 -174t-96 -174t-193 -67.5t-168 66t-38 175q18 109 97.5 175.5t191 66.5z" />
    <glyph glyph-name="uring" unicode="&#x16f;" horiz-adv-x="1064" 
d="M330 -31q-143 0 -208 103.5t-36 279.5l104 623h179l-99 -582q-20 -125 18 -193.5t132 -68.5q195 0 315 223l103 621h176l-160 -975h-178l31 180q-147 -211 -377 -211zM578 1402q0 -122 120 -122q58 0 111 49t53 125q0 115 -124 115q-62 0 -111 -51.5t-49 -115.5z
M674 1182q-94 0 -149.5 53t-55.5 139q0 127 84 209t195.5 82t168 -55.5t56.5 -141.5q0 -121 -84 -203.5t-215 -82.5z" />
    <glyph glyph-name="Uhungarumlaut" unicode="&#x170;" horiz-adv-x="1370" 
d="M602 -31q-176 0 -286 87q-208 165 -146 540l135 827h184l-137 -841q-33 -190 33 -314.5t238 -124.5t282.5 115t145.5 322l141 843h186l-139 -835q-51 -305 -214 -462t-423 -157zM1448 2005l-401 -432h-129l344 432h186zM1038 2005l-276 -432h-115l211 432h180z" />
    <glyph glyph-name="uhungarumlaut" unicode="&#x171;" horiz-adv-x="1064" 
d="M330 -31q-143 0 -208 103.5t-36 279.5l104 623h179l-99 -582q-20 -125 18 -193.5t132 -68.5q194 0 315 223l103 621h176l-160 -975h-178l31 180q-147 -211 -377 -211zM801 1128h-127l342 433h186zM831 1561l-276 -433h-115l211 433h180z" />
    <glyph glyph-name="Uogonek" unicode="&#x172;" horiz-adv-x="1370" 
d="M512 -348q0 -92 89 -92t179 55l11 -125q-131 -68 -240.5 -68t-158 46.5t-48.5 123.5q0 217 260 377h-2q-176 0 -286 87q-208 165 -146 540l135 827h184l-137 -841q-33 -190 33 -314.5t238 -124.5t282.5 115t145.5 322l141 843h186l-139 -835q-78 -455 -393 -578
q-334 -164 -334 -358z" />
    <glyph glyph-name="uogonek" unicode="&#x173;" horiz-adv-x="1064" 
d="M598 -444q84 0 180 51l10 -125q-127 -63 -241 -63.5t-162.5 51t-42.5 135.5q12 231 354 395h-20l31 180q-147 -211 -377 -211q-143 0 -208 103.5t-36 279.5l104 623h179l-99 -582q-20 -125 18 -193.5t132 -68.5q195 0 315 223l103 621h176l-160 -975q-342 -174 -348 -350
q-4 -94 92 -94z" />
    <glyph glyph-name="Wcircumflex" unicode="&#x174;" horiz-adv-x="1900" 
d="M1782 1423h192l-579 -1423h-217l-99 877q-2 31 -18 292q-80 -223 -109 -284l-422 -885h-219l-71 1423h198l31 -1034q-2 -51 -2 -166q25 66 68 162l479 1024h188l115 -999q8 -84 10 -179l59 170zM1196 1880l-254 -317h-131l328 444h157l179 -444h-132z" />
    <glyph glyph-name="wcircumflex" unicode="&#x175;" horiz-adv-x="1374" 
d="M1243 975h189l-463 -975h-168l-86 741l-350 -741h-179l-82 975h181l34 -801l361 789h147l86 -783zM848 1446l-254 -318h-131l325 445h158l182 -445h-131z" />
    <glyph glyph-name="Ycircumflex" unicode="&#x176;" horiz-adv-x="1148" 
d="M1280 1423l-602 -874l-90 -549h-187l93 557l-312 866h203l229 -696l459 696h207zM821 1880l-254 -317h-131l328 444h158l178 -444h-131z" />
    <glyph glyph-name="ycircumflex" unicode="&#x177;" horiz-adv-x="980" 
d="M860 975h191l-840 -1479h-184l290 492l-219 987h185l151 -797zM645 1446l-254 -318h-131l326 445h157l183 -445h-131z" />
    <glyph glyph-name="Ydieresis" unicode="&#x178;" horiz-adv-x="1148" 
d="M1280 1423l-602 -874l-90 -549h-187l93 557l-312 866h203l229 -696l459 696h207zM956 1620q-49 0 -76.5 34t-18.5 82t48 81.5t87 33.5t76 -33.5t20 -81.5t-47.5 -82t-88.5 -34zM566 1620q-48 0 -75.5 34t-18.5 82t47 81.5t86 33.5t76 -33.5t19.5 -81.5t-47.5 -82t-87 -34
z" />
    <glyph glyph-name="Zacute" unicode="&#x179;" horiz-adv-x="1136" 
d="M193 1255l28 168h944l-24 -157l-873 -1102l764 2l-28 -166h-988l27 156l858 1099h-708zM1208 1995l-389 -422h-145l336 422h198z" />
    <glyph glyph-name="zacute" unicode="&#x17a;" horiz-adv-x="806" 
d="M104 834l23 141h688l-22 -139l-592 -695h510l-25 -141h-704l24 141l584 693h-486zM858 1561l-323 -433h-125l262 433h186z" />
    <glyph glyph-name="Zdotaccent" unicode="&#x17b;" horiz-adv-x="1136" 
d="M1165 1423l-24 -157l-873 -1102l764 2l-28 -166h-988l27 156l858 1099h-708l28 168h944zM767 1620q-50 0 -79 35t-18 84q8 49 47 84t90 35t79.5 -35t19.5 -84t-49 -84t-90 -35z" />
    <glyph glyph-name="zdotaccent" unicode="&#x17c;" horiz-adv-x="806" 
d="M815 975l-22 -139l-592 -695h510l-25 -141h-704l24 141l584 693h-486l23 141h688zM524.5 1165q-53.5 0 -83 36t-20.5 88t50 89t93 37t82 -37t21.5 -88t-49 -88t-94 -37z" />
    <glyph glyph-name="Zcaron" unicode="&#x17d;" horiz-adv-x="1136" 
d="M193 1255l28 168h944l-24 -157l-873 -1102l764 2l-28 -166h-988l27 156l858 1099h-708zM838 1579h-160l-176 444h131l147 -317l254 317h131z" />
    <glyph glyph-name="zcaron" unicode="&#x17e;" horiz-adv-x="806" 
d="M104 834l23 141h688l-22 -139l-592 -695h510l-25 -141h-704l24 141l584 693h-486zM582 1128h-158l-178 445h131l149 -318l252 318h131z" />
    <glyph glyph-name="uni01CD" unicode="&#x1cd;" horiz-adv-x="1253" 
d="M399 530h455l-113 707zM668 1423h217l248 -1423h-195l-59 377h-553l-183 -377h-186zM881 1579h-160l-176 444h131l147 -317l254 317h131z" />
    <glyph glyph-name="uni01CE" unicode="&#x1ce;" horiz-adv-x="1130" 
d="M470 133q105 0 194.5 55.5t146.5 151.5l53 313q-66 193 -254 193q-147 0 -259.5 -125t-112.5 -320q0 -125 63.5 -196.5t168.5 -71.5zM401 -31q-156 0 -251 101.5t-95 289.5q0 289 159 467.5t384 178.5q100 0 178 -48.5t121 -126.5l33 144h164l-162 -975h-166l16 152
q-70 -86 -171 -134.5t-210 -48.5zM762 1128h-158l-178 445h131l150 -318l251 318h132z" />
    <glyph glyph-name="uni01CF" unicode="&#x1cf;" horiz-adv-x="524" 
d="M90 0l234 1423h184l-234 -1423h-184zM721 2023h131l-328 -444h-159l-177 444h131l148 -317z" />
    <glyph glyph-name="uni01D0" unicode="&#x1d0;" horiz-adv-x="477" 
d="M68 0l161 975h179l-162 -975h-178zM612 1573h131l-327 -445h-158l-178 445h131l149 -318z" />
    <glyph glyph-name="uni01D1" unicode="&#x1d1;" horiz-adv-x="1525" 
d="M688 150q270 0 447.5 207.5t177.5 473.5q0 219 -118 332t-294 113q-258 0 -434 -197.5t-176 -470.5q0 -231 111.5 -344.5t285.5 -113.5zM930 1454q176 0 329 -92t215 -280q34 -104 35 -230q0 -231 -100 -430t-298 -326t-444 -127t-409.5 151.5t-163.5 459.5
q0 367 237 620.5t599 253.5zM1024 1579h-160l-176 444h131l148 -317l254 317h131z" />
    <glyph glyph-name="uni01D2" unicode="&#x1d2;" horiz-adv-x="1097" 
d="M743.5 253q114.5 122 121.5 287.5t-64.5 233.5t-173.5 70q-158 2 -276 -123t-120 -305q-2 -137 67 -209t179 -72q152 -4 266.5 118zM651 1006q168 0 279.5 -100.5t111.5 -309.5q0 -272 -168.5 -449.5t-414.5 -177.5q-174 0 -289 101.5t-115 308.5q0 256 168 441.5
t428 185.5zM739 1128h-157l-179 445h132l149 -318l252 318h131z" />
    <glyph glyph-name="uni01D3" unicode="&#x1d3;" horiz-adv-x="1370" 
d="M602 -31q-176 0 -286 87q-208 165 -146 540l135 827h184l-137 -841q-33 -190 33 -314.5t238 -124.5t282.5 115t145.5 322l141 843h186l-139 -835q-51 -305 -214 -462t-423 -157zM946 1579h-160l-176 444h131l148 -317l254 317h131z" />
    <glyph glyph-name="uni01D4" unicode="&#x1d4;" horiz-adv-x="1064" 
d="M330 -31q-143 0 -208 103.5t-36 279.5l104 623h179l-99 -582q-20 -125 18 -193.5t132 -68.5q194 0 315 223l103 621h176l-160 -975h-178l31 180q-147 -211 -377 -211zM715 1128h-158l-178 445h131l149 -318l252 318h131z" />
    <glyph glyph-name="Scommaaccent" unicode="&#x218;" horiz-adv-x="1069" 
d="M476.5 -104q62.5 0 95 -54.5t16.5 -146.5q-43 -242 -289 -344l-47 94q84 35 134 81t77 120q-20 -6 -57 -6t-66 33.5t-18.5 92t51.5 94.5t103.5 36zM670 1284q-127 0 -206 -58.5t-79 -155.5t55.5 -149.5t148.5 -89.5t131 -54t94 -54q163 -108 163 -312t-145.5 -323
t-366.5 -119q-266 0 -465 168l74 180q154 -174 395 -174q139 0 227 70t88 175t-61 156.5t-212 112t-236 148.5t-85 255t128 280.5t363 113.5t427 -129l-104 -154q-152 113 -334 113z" />
    <glyph glyph-name="scommaaccent" unicode="&#x219;" horiz-adv-x="778" 
d="M300.5 -104q62.5 0 95 -54.5t16.5 -146.5q-43 -242 -289 -344l-47 94q84 35 134 81t77 120q-20 -6 -57 -6t-66 33.5t-19 92t51.5 94.5t104 36zM442 864q-184 0 -184 -135q0 -104 156 -160q135 -45 205.5 -107.5t70.5 -196t-111.5 -215t-295 -81.5t-314.5 97l62 137
q106 -92 274 -92q94 0 154.5 41t60.5 117t-78 116q-32 17 -46 21q-171 57 -238.5 126.5t-67.5 191.5t94.5 202t264.5 80t319 -80l-76 -131q-109 69 -250 69z" />
    <glyph glyph-name="uni021A" unicode="&#x21a;" horiz-adv-x="1054" 
d="M439.5 -104q62.5 0 95 -54.5t16.5 -146.5q-43 -242 -289 -344l-47 94q84 35 134 81t77 120q-20 -6 -57 -6t-66 33.5t-18.5 92t51.5 94.5t103.5 36zM1186 1423l-29 -168h-407l-207 -1255h-185l207 1255h-407l26 168h1002z" />
    <glyph glyph-name="uni021B" unicode="&#x21b;" horiz-adv-x="657" 
d="M378.5 -104q62.5 0 95 -54.5t15.5 -146.5q-43 -242 -288 -344l-47 94q84 35 134 81t77 120q-20 -6 -57 -6t-66 33.5t-19 92t51.5 94.5t104 36zM440 127q100 0 197 63l10 -149q-121 -72 -264 -72t-204.5 86t-33.5 258l84 510h-129l23 152h131l51 311h178l-51 -311h283
l-23 -152h-286l-82 -493q-33 -203 116 -203z" />
    <glyph glyph-name="uni0237" unicode="&#x237;" horiz-adv-x="450" 
d="M-186 -524l-25 149q213 10 250 236l182 1114h176l-180 -1118q-31 -190 -131 -278.5t-272 -102.5z" />
    <glyph glyph-name="circumflex" unicode="&#x2c6;" horiz-adv-x="1228" 
d="M805 1128h-131l-150 318l-254 -318h-131l326 445h158z" />
    <glyph glyph-name="caron" unicode="&#x2c7;" horiz-adv-x="1228" 
d="M756 1573h131l-328 -445h-158l-178 445h131l150 -318z" />
    <glyph glyph-name="breve" unicode="&#x2d8;" horiz-adv-x="1228" 
d="M516.5 1288q210.5 0 247.5 283h141q-23 -199 -128 -301.5t-278 -102.5t-246 102.5t-28 301.5h142q-61 -283 149.5 -283z" />
    <glyph glyph-name="dotaccent" unicode="&#x2d9;" horiz-adv-x="1228" 
d="M308 1415q52 0 82 -37t21.5 -88t-49 -88t-94 -37t-83 36t-20.5 88t50 89t93 37z" />
    <glyph glyph-name="ring" unicode="&#x2da;" horiz-adv-x="1228" 
d="M287 1402q-1 -122 119 -122q58 0 111.5 49t53.5 115q0 126 -116 125q-70 0 -119 -51.5t-49 -115.5zM383 1182q-94 0 -149.5 53t-55.5 139q0 127 84 209t195.5 82t168 -55.5t56.5 -141.5q0 -121 -84 -203.5t-215 -82.5z" />
    <glyph glyph-name="ogonek" unicode="&#x2db;" horiz-adv-x="1228" 
d="M144 -549q-114 0 -163 51q-48 51 -42 136q8 139 139 256t358 200l15 -61q-342 -174 -349 -350q-4 -94 93 -95q84 0 180 52l10 -125q-127 -64 -241 -64z" />
    <glyph glyph-name="tilde" unicode="&#x2dc;" horiz-adv-x="1228" 
d="M406 1401q-82 0 -121 -254h-133q49 399 245 399q65 0 121 -68q36 -44 54 -75t22 -36t12 -17.5t13.5 -17.5t13.5 -14q28 -32 57 -32q90 0 129 256h135q-55 -401 -252 -401q-68 -1 -130 73q-22 26 -51 69l-34 51q-45 67 -81 67z" />
    <glyph glyph-name="hungarumlaut" unicode="&#x2dd;" horiz-adv-x="1228" 
d="M956 1561l-401 -433h-127l342 433h186zM586 1561l-277 -433h-114l211 433h180z" />
    <glyph glyph-name="gravecomb" unicode="&#x300;" 
d="M61 1128h-124l-179 433h187z" />
    <glyph glyph-name="acutecomb" unicode="&#x301;" 
d="M195 1561l-324 -433h-125l262 433h187z" />
    <glyph glyph-name="uni0302" unicode="&#x302;" 
d="M80 1128h-131l-150 318l-254 -318h-131l326 445h158z" />
    <glyph glyph-name="tildecomb" unicode="&#x303;" 
d="M-420 1401q-82 0 -121 -254h-133q49 399 246 399q63 0 112.5 -60t64.5 -87t19.5 -32t12.5 -17.5t13 -17.5q6 -5 14 -14q30 -32 57 -32q90 0 129 256h135q-55 -401 -252 -401q-69 -1 -131 73q-22 26 -50 69l-34 51q-45 67 -82 67z" />
    <glyph glyph-name="uni0304" unicode="&#x304;" 
d="M-571 1438h696l-25 -150h-696z" />
    <glyph glyph-name="uni0306" unicode="&#x306;" 
d="M-247.5 1288q210.5 0 247.5 283h141q-23 -199 -128 -301.5t-278 -102.5t-246 102.5t-28 301.5h142q-61 -283 149.5 -283z" />
    <glyph glyph-name="uni0307" unicode="&#x307;" 
d="M1 1415q52 0 82 -37t21.5 -88t-49.5 -88t-94 -37t-82.5 36t-20.5 88t50 89t93 37z" />
    <glyph glyph-name="uni0308" unicode="&#x308;" 
d="M14 1485q47 0 75 -33t19.5 -80t-46 -79.5t-85 -32.5t-75 32.5t-19.5 79.5t46 80t85 33zM-416 1485q47 0 74 -33t18.5 -80t-46.5 -79.5t-85 -32.5t-73.5 32.5t-18.5 79.5t46 80t85 33z" />
    <glyph glyph-name="uni030A" unicode="&#x30a;" 
d="M-262 1402q0 -122 120 -122q58 0 111.5 49t53.5 115q0 126 -117 125q-70 0 -119 -51.5t-49 -115.5zM-166 1182q-94 0 -149.5 53t-55.5 139q0 127 84 209t195.5 82t168 -55.5t56.5 -141.5q0 -121 -84 -203.5t-215 -82.5z" />
    <glyph glyph-name="uni030B" unicode="&#x30b;" 
d="M180 1561l-401 -433h-127l342 433h186zM-190 1561l-277 -433h-115l211 433h181z" />
    <glyph glyph-name="uni030C" unicode="&#x30c;" 
d="M8 1573h131l-327 -445h-158l-178 445h131l149 -318z" />
    <glyph glyph-name="uni0312" unicode="&#x312;" 
d="M12 1417q37 0 64.5 -28.5t18.5 -85.5t-52 -92t-105.5 -35t-93 52t-12.5 155.5t90 195.5t195 137l45 -94q-172 -72 -217 -217q30 12 67 12z" />
    <glyph glyph-name="uni0326" unicode="&#x326;" 
d="M-330.5 -104q62.5 0 95 -54.5t16.5 -146.5q-43 -242 -289 -344l-47 94q84 35 134 81t77 120q-20 -6 -57 -6t-66 33.5t-18.5 92t51.5 94.5t103.5 36z" />
    <glyph glyph-name="uni0327" unicode="&#x327;" 
d="M-322 -338q0 80 -102 80q-58 0 -111 -47l-90 35l162 290h123l-129 -208q56 22 113 22q170 0 170 -168q0 -123 -90.5 -192.5t-223.5 -69.5t-237 61l55 101q90 -51 174 -51t135 41t51 106z" />
    <glyph glyph-name="uni0328" unicode="&#x328;" 
d="M-403.5 -549q-114.5 0 -162.5 51.5t-42 135.5q8 139 139 255.5t358 200.5l15 -61q-342 -174 -348 -350q-4 -94 92 -95q84 0 180 52l10 -125q-127 -64 -241.5 -64z" />
    <glyph glyph-name="uni0335" unicode="&#x335;" 
d="M-768 492l25 153h727l-25 -153h-727z" />
    <glyph glyph-name="uni0336" unicode="&#x336;" 
 />
    <glyph glyph-name="uni0337" unicode="&#x337;" 
d="M-819 465l-47 141l782 305l53 -141z" />
    <glyph glyph-name="uni0338" unicode="&#x338;" 
d="M59 1362l-1384 -1380l-113 90l1377 1370z" />
    <glyph glyph-name="Wgrave" unicode="&#x1e80;" horiz-adv-x="1900" 
d="M1782 1423h192l-579 -1423h-217l-99 877q-2 31 -18 292q-80 -223 -109 -284l-422 -885h-219l-71 1423h198l31 -1034q-2 -51 -2 -166q25 66 68 162l479 1024h188l115 -999q8 -84 10 -179l59 170zM1190 1573h-131l-207 434h186z" />
    <glyph glyph-name="wgrave" unicode="&#x1e81;" horiz-adv-x="1374" 
d="M1243 975h189l-463 -975h-168l-86 741l-350 -741h-179l-82 975h181l34 -801l361 789h147l86 -783zM858 1128h-125l-178 433h186z" />
    <glyph glyph-name="Wacute" unicode="&#x1e82;" horiz-adv-x="1900" 
d="M1782 1423h192l-579 -1423h-217l-99 877q-2 31 -18 292q-80 -223 -109 -284l-422 -885h-219l-71 1423h198l31 -1034q-2 -51 -2 -166q25 66 68 162l479 1024h188l115 -999q8 -84 10 -179l59 170zM1581 1995l-389 -422h-145l335 422h199z" />
    <glyph glyph-name="wacute" unicode="&#x1e83;" horiz-adv-x="1374" 
d="M1243 975h189l-463 -975h-168l-86 741l-350 -741h-179l-82 975h181l34 -801l361 789h147l86 -783zM1141 1561l-324 -433h-125l262 433h187z" />
    <glyph glyph-name="Wdieresis" unicode="&#x1e84;" horiz-adv-x="1900" 
d="M1782 1423h192l-579 -1423h-217l-99 877q-2 31 -18 292q-80 -223 -109 -284l-422 -885h-219l-71 1423h198l31 -1034q-2 -51 -2 -166q25 66 68 162l479 1024h188l115 -999q8 -84 10 -179l59 170zM1331 1620q-49 0 -76.5 34t-18.5 82t48 81.5t87 33.5t76 -33.5t19.5 -81.5
t-47.5 -82t-88 -34zM941 1620q-48 0 -75.5 34t-18.5 82t47 81.5t86 33.5t75.5 -33.5t19.5 -81.5t-47 -82t-87 -34z" />
    <glyph glyph-name="wdieresis" unicode="&#x1e85;" horiz-adv-x="1374" 
d="M1243 975h189l-463 -975h-168l-86 741l-350 -741h-179l-82 975h181l34 -801l361 789h147l86 -783zM1032 1260q-47 0 -74.5 32.5t-19.5 79.5t46 80t85 33t74.5 -33t19.5 -80t-46 -79.5t-85 -32.5zM600 1260q-47 0 -73.5 32.5t-18.5 79.5t46 80t85 33t73.5 -33t18.5 -80
t-46 -79.5t-85 -32.5z" />
    <glyph glyph-name="Ygrave" unicode="&#x1ef2;" horiz-adv-x="1148" 
d="M1280 1423l-602 -874l-90 -549h-187l93 557l-312 866h203l229 -696l459 696h207zM815 1573h-131l-207 434h187z" />
    <glyph glyph-name="ygrave" unicode="&#x1ef3;" horiz-adv-x="980" 
d="M860 975h191l-840 -1479h-184l290 492l-219 987h185l151 -797zM655 1128h-125l-178 433h187z" />
    <glyph glyph-name="endash" unicode="&#x2013;" horiz-adv-x="1107" 
d="M66 492l24 153h979l-25 -153h-978z" />
    <glyph glyph-name="emdash" unicode="&#x2014;" horiz-adv-x="1349" 
d="M61 492l25 153h1221l-25 -153h-1221z" />
    <glyph glyph-name="quoteleft" unicode="&#x2018;" horiz-adv-x="397" 
d="M316 1167q32 -1 57 -27t25 -75t-39 -85q-38 -36 -95 -36q-121 0 -121 159q1 159 93 271t235 162l41 -88q-112 -31 -178 -109t-76 -182q26 10 58 10z" />
    <glyph glyph-name="quoteright" unicode="&#x2019;" horiz-adv-x="382" 
d="M371 1540q121 0 121 -159t-92 -271t-236 -162l-41 88q111 31 177 109t77 182q-27 -10 -59 -10q-32 1 -56 27t-24 75t37 85q39 36 96 36z" />
    <glyph glyph-name="quotedblleft" unicode="&#x201c;" horiz-adv-x="706" 
d="M654 1167q32 -1 57 -27t25 -75t-39 -85q-38 -36 -95 -36q-121 0 -121 159t92 271t236 162l41 -88q-112 -31 -178 -109t-76 -182q26 10 58 10zM316 1167q32 -1 57 -27t25 -75t-39 -85q-38 -36 -95 -36q-121 0 -121 159q1 159 93 271t235 162l41 -88q-112 -31 -178 -109
t-76 -182q26 10 58 10z" />
    <glyph glyph-name="quotedblright" unicode="&#x201d;" horiz-adv-x="708" 
d="M711 1540q121 0 121 -159t-93 -271q-92 -112 -235 -162l-41 88q111 31 177 109t77 182q-27 -10 -59 -10q-32 1 -56 27t-24 75t37 85q39 36 96 36zM371 1540q121 0 121 -159t-92 -271t-236 -162l-41 88q111 31 177 109t77 182q-27 -10 -59 -10q-32 1 -56 27t-24 75t37 85
q39 36 96 36z" />
    <glyph glyph-name="dagger" unicode="&#x2020;" horiz-adv-x="1228" 
 />
    <glyph glyph-name="daggerdbl" unicode="&#x2021;" horiz-adv-x="1228" 
 />
    <glyph glyph-name="bullet" unicode="&#x2022;" horiz-adv-x="563" 
d="M284 494q-84 0 -129 50q-46 50 -39 134t74 147q68 63 152 63t132 -52q48 -53 41 -136q-7 -82 -77 -144t-154 -62z" />
    <glyph glyph-name="ellipsis" unicode="&#x2026;" horiz-adv-x="1101" 
d="M688 86q0 55 46 99t102 44q56 1 87 -31t31 -86t-48 -98t-103 -45q-55 0 -85 31t-30 86zM354 86q0 55 46 99t102 44q56 1 87 -31q32 -32 32 -86q-1 -54 -49 -98t-103 -45q-55 0 -85 31t-30 86zM18 86q0 55 46 99t102 44q55 1 87 -31t32 -86t-48 -98q-47 -44 -103 -45
q-56 0 -86 31t-30 86z" />
    <glyph glyph-name="perthousand" unicode="&#x2030;" horiz-adv-x="2342" 
d="M1908 94q98 0 172 80t74 174q-1 189 -167 191q-115 0 -189 -79q-74 -78 -74 -172t43 -144t141 -50zM1174 94q98 0 173 80t75 174q-1 189 -169 191q-115 0 -189 -79q-74 -78 -73 -172q0 -94 43 -144q42 -50 140 -50zM1876 -31q-129 0 -205 79t-76 210q0 170 116 286
t294 115q131 -1 205 -77t74 -209q0 -170 -118 -287t-290 -117zM1143 -31q-129 0 -205 79t-76 210q0 170 116 286t294 115q131 -1 205 -77t73 -209q0 -170 -118 -287t-289 -117zM264 1082q0 -193 184 -193q96 0 173 80q75 80 75 174q-1 190 -168 190q-116 0 -190 -79
t-74 -172zM362 0l795 1423h178l-792 -1423h-181zM416 764q-129 0 -205 80t-76 209q0 169 116 285t294 116q133 0 207 -78t73 -209q1 -171 -117 -287t-292 -116z" />
    <glyph glyph-name="guilsinglleft" unicode="&#x2039;" horiz-adv-x="753" 
d="M690 1032l-26 -186l-490 -277l397 -286l-26 -172l-508 389l24 159z" />
    <glyph glyph-name="guilsinglright" unicode="&#x203a;" horiz-adv-x="751" 
d="M209 1032l512 -373l-25 -157l-630 -391l28 186l492 291l-404 274z" />
    <glyph glyph-name="fraction" unicode="&#x2044;" horiz-adv-x="880" 
d="M930 1423l-709 -1423h-196l708 1423h197z" />
    <glyph glyph-name="Euro" unicode="&#x20ac;" horiz-adv-x="1353" 
d="M1046 1276q-202 0 -350 -99t-223 -268h526l-30 -106h-533q-20 -74 -26 -166h536l-26 -109h-506q16 -194 122 -286t246 -92q138 0 258 46t207 119l41 -174q-98 -78 -242 -125t-286 -47q-219 0 -374 135t-171 424h-190l26 109h164q4 92 21 166h-162l30 106h162
q88 246 293 396q205 149 481 149t439 -141l-86 -170q-145 133 -347 133z" />
    <glyph glyph-name="trademark" unicode="&#x2122;" horiz-adv-x="1398" 
d="M1352 1423h137l-115 -714h-114l86 516l-269 -475h-78l-116 489l-84 -530h-111l117 714h129l131 -526zM702 1423l-16 -108h-199l-100 -606h-125l100 606h-186l17 108h509z" />
    <glyph glyph-name="partialdiff" unicode="&#x2202;" horiz-adv-x="1228" 
 />
    <glyph glyph-name="emptyset" unicode="&#x2205;" horiz-adv-x="1228" 
 />
    <glyph glyph-name="product" unicode="&#x220f;" horiz-adv-x="1228" 
 />
    <glyph glyph-name="summation" unicode="&#x2211;" horiz-adv-x="1228" 
 />
    <glyph glyph-name="minus" unicode="&#x2212;" horiz-adv-x="1122" 
d="M154 758h905l-25 -158h-905z" />
    <glyph glyph-name="radical" unicode="&#x221a;" horiz-adv-x="1228" 
 />
    <glyph glyph-name="infinity" unicode="&#x221e;" horiz-adv-x="1228" 
 />
    <glyph glyph-name="integral" unicode="&#x222b;" horiz-adv-x="1228" 
 />
    <glyph glyph-name="approxequal" unicode="&#x2248;" horiz-adv-x="1228" 
 />
    <glyph glyph-name="notequal" unicode="&#x2260;" horiz-adv-x="1126" 
d="M1069 809h-287l-211 -301h449l-25 -156h-534l-139 -198l-125 59l98 139h-205l25 156h288l213 301h-454l24 158h541l125 176l123 -62l-80 -114h199z" />
    <glyph glyph-name="lessequal" unicode="&#x2264;" horiz-adv-x="1228" 
 />
    <glyph glyph-name="greaterequal" unicode="&#x2265;" horiz-adv-x="1228" 
 />
    <glyph glyph-name="lozenge" unicode="&#x25ca;" horiz-adv-x="1228" 
 />
    <glyph glyph-name="ff" unicode="&#xfb00;" horiz-adv-x="1228" 
 />
    <glyph glyph-name="G.ss01" horiz-adv-x="1390" 
d="M643 -31q-227 0 -375.5 149.5t-148.5 440.5q0 244 94 443.5t287.5 325.5t455.5 126q129 0 258 -44t207 -118l-127 -145q-145 131 -364 131q-145 0 -266 -59.5t-196 -158.5q-157 -207 -157 -470q0 -213 102.5 -325.5t262.5 -112.5q201 0 341 123.5t181 351.5h-416l27 159
h608l-14 -92q-57 -362 -257 -543.5t-503 -181.5z" />
    <glyph glyph-name="Gbreve.ss01" horiz-adv-x="1390" 
d="M643 -31q-227 0 -375.5 149.5t-148.5 440.5q0 244 94 443.5t287.5 325.5t455.5 126q129 0 258 -44t207 -118l-127 -145q-145 131 -364 131q-145 0 -266 -59.5t-196 -158.5q-157 -207 -157 -470q0 -213 102.5 -325.5t262.5 -112.5q201 0 341 123.5t181 351.5h-416l27 159
h608l-14 -92q-57 -362 -257 -543.5t-503 -181.5zM924 1591q-172 0 -245 102.5t-30 301.5h142q-57 -283 151.5 -283t245.5 283h141q-23 -199 -128 -301.5t-277 -102.5z" />
    <glyph glyph-name="Gcommaaccent.ss01" horiz-adv-x="1390" 
d="M687.5 -104q62.5 0 95 -54.5t16.5 -146.5q-43 -242 -289 -344l-47 94q84 35 134 81t77 120q-23 -6 -58.5 -6t-64.5 33.5t-19 92t51.5 94.5t104 36zM643 -31q-227 0 -375.5 149.5t-148.5 440.5q0 244 94 443.5t287.5 325.5t455.5 126q129 0 258 -44t207 -118l-127 -145
q-145 131 -364 131q-145 0 -266 -59.5t-196 -158.5q-157 -207 -157 -470q0 -213 102.5 -325.5t262.5 -112.5q201 0 341 123.5t181 351.5h-416l27 159h608l-14 -92q-57 -362 -257 -543.5t-503 -181.5z" />
    <glyph glyph-name="Gdotaccent.ss01" horiz-adv-x="1390" 
d="M643 -31q-227 0 -375.5 149.5t-148.5 440.5q0 244 94 443.5t287.5 325.5t455.5 126q129 0 258 -44t207 -118l-127 -145q-145 131 -364 131q-145 0 -266 -59.5t-196 -158.5q-157 -207 -157 -470q0 -213 102.5 -325.5t262.5 -112.5q201 0 341 123.5t181 351.5h-416l27 159
h608l-14 -92q-57 -362 -257 -543.5t-503 -181.5zM927 1620q-50 0 -79 35t-19 84q8 49 47 84t90.5 35t80 -35t19.5 -84t-49 -84t-90 -35z" />
    <glyph glyph-name="Q.ss01" horiz-adv-x="1523" 
d="M291 608q0 -231 111.5 -344.5t285.5 -113.5q270 0 447.5 207.5t177.5 473.5q0 219 -118 332t-294 113q-258 0 -434 -198t-176 -470zM1509 852q0 -211 -88 -400.5t-245 -312.5l149 -239l-162 -107l-155 248q-156 -72 -349 -72q-238 0 -401.5 151.5t-163.5 459.5
q0 367 236.5 620.5t599.5 253.5q176 0 329 -92t215 -280q34 -104 35 -230z" />
    <glyph glyph-name="W.ss01" horiz-adv-x="1916" 
d="M1890 1413l191 -2l-711 -1415h-194l-152 688l-406 -680l-196 2l-176 1428l196 -2l131 -1209l402 686l-115 516l189 -2l61 -282l164 280l186 -2l-301 -504l154 -696z" />
    <glyph glyph-name="A.swsh" horiz-adv-x="1630" 
d="M782 530h455l-113 707zM752 1270q-221 0 -348.5 -84t-127.5 -234q0 -219 240 -225l-59 -133q-170 2 -255 104.5t-85 245.5q0 217 172 348t489 131h490l248 -1423h-195l-59 377h-553l-183 -377h-186l635 1270h-223z" />
    <glyph glyph-name="Aacute.swsh" horiz-adv-x="1630" 
d="M782 530h455l-113 707zM752 1270q-221 0 -348.5 -84t-127.5 -234q0 -219 240 -225l-59 -133q-170 2 -255 104.5t-85 245.5q0 217 172 348t489 131h490l248 -1423h-195l-59 377h-553l-183 -377h-186l635 1270h-223zM1599 1995l-389 -422h-145l336 422h198z" />
    <glyph glyph-name="Abreve.swsh" horiz-adv-x="1630" 
d="M782 530h455l-113 707zM752 1270q-221 0 -348.5 -84t-127.5 -234q0 -219 240 -225l-59 -133q-170 2 -255 104.5t-85 245.5q0 217 172 348t489 131h490l248 -1423h-195l-59 377h-553l-183 -377h-186l635 1270h-223zM1155 1591q-172 0 -244.5 102.5t-29.5 301.5h141
q-57 -283 151.5 -283t245.5 283h142q-23 -199 -128.5 -301.5t-277.5 -102.5z" />
    <glyph glyph-name="uni01CD.swsh" horiz-adv-x="1630" 
d="M782 530h455l-113 707zM752 1270q-221 0 -348.5 -84t-127.5 -234q0 -219 240 -225l-59 -133q-170 2 -255 104.5t-85 245.5q0 217 172 348t489 131h490l248 -1423h-195l-59 377h-553l-183 -377h-186l635 1270h-223zM1229 1579h-160l-176 444h131l147 -317l254 317h131z
" />
    <glyph glyph-name="Acircumflex.swsh" horiz-adv-x="1630" 
d="M782 530h455l-113 707zM752 1270q-221 0 -348.5 -84t-127.5 -234q0 -219 240 -225l-59 -133q-170 2 -255 104.5t-85 245.5q0 217 172 348t489 131h490l248 -1423h-195l-59 377h-553l-183 -377h-186l635 1270h-223zM1214 1880l-253 -317h-132l328 444h158l178 -444h-131z
" />
    <glyph glyph-name="Adieresis.swsh" horiz-adv-x="1630" 
d="M782 530h455l-113 707zM752 1270q-221 0 -348.5 -84t-127.5 -234q0 -219 240 -225l-59 -133q-170 2 -255 104.5t-85 245.5q0 217 172 348t489 131h490l248 -1423h-195l-59 377h-553l-183 -377h-186l635 1270h-223zM1350 1620q-49 0 -77 34t-19 82t48 81.5t87.5 33.5
t76 -33.5t19.5 -81.5t-47 -82t-88 -34zM960 1620q-48 0 -76 34t-19 82t47 81.5t86 33.5t76 -33.5t20 -81.5t-47 -82t-87 -34z" />
    <glyph glyph-name="Agrave.swsh" horiz-adv-x="1630" 
d="M782 530h455l-113 707zM752 1270q-221 0 -348.5 -84t-127.5 -234q0 -219 240 -225l-59 -133q-170 2 -255 104.5t-85 245.5q0 217 172 348t489 131h490l248 -1423h-195l-59 377h-553l-183 -377h-186l635 1270h-223zM1208 1573h-131l-207 434h187z" />
    <glyph glyph-name="Amacron.swsh" horiz-adv-x="1630" 
d="M782 530h455l-113 707zM752 1270q-221 0 -348.5 -84t-127.5 -234q0 -219 240 -225l-59 -133q-170 2 -255 104.5t-85 245.5q0 217 172 348t489 131h490l248 -1423h-195l-59 377h-553l-183 -377h-186l635 1270h-223zM852 1853h696l-24 -149h-697z" />
    <glyph glyph-name="Aogonek.swsh" horiz-adv-x="1630" 
d="M782 530h455l-113 707zM1188 -367q0 -92 89 -92t179 56l10 -125q-131 -68 -240.5 -68t-157.5 46t-48 124q0 133 96 242.5t254 183.5h-49l-59 377h-553l-183 -377h-186l635 1270h-223q-221 0 -348.5 -84t-127.5 -234q0 -219 240 -225l-59 -133q-170 2 -255 104.5
t-85 245.5q0 217 172 348t489 131h490l245 -1407l23 -16q-348 -168 -348 -367z" />
    <glyph glyph-name="Aring.swsh" horiz-adv-x="1630" 
d="M782 530h455l-113 707zM752 1270q-221 0 -348.5 -84t-127.5 -234q0 -219 240 -225l-59 -133q-170 2 -255 104.5t-85 245.5q0 217 172 348t489 131h490l248 -1423h-195l-59 377h-553l-183 -377h-186l635 1270h-223zM1165.5 1669q59.5 0 102.5 36t53 99q8 63 -21.5 101.5
t-88 38.5t-101.5 -39.5t-54 -101.5t19.5 -98t90 -36zM1146 1563q-114 0 -168 66.5t-37 175t96 175t191 66.5t168 -67.5t39 -174t-96 -174t-193 -67.5z" />
    <glyph glyph-name="Atilde.swsh" horiz-adv-x="1630" 
d="M782 530h455l-113 707zM752 1270q-221 0 -348.5 -84t-127.5 -234q0 -219 240 -225l-59 -133q-170 2 -255 104.5t-85 245.5q0 217 172 348t489 131h490l248 -1423h-195l-59 377h-553l-183 -377h-186l635 1270h-223zM963.5 1749q-29.5 -61 -48.5 -193h-133q49 397 246 398
q47 0 91 -41t72 -89q76 -130 136 -130q90 0 129 256h133q-51 -399 -254 -400q-49 0 -93 41t-72 89q-76 130 -126.5 130t-80 -61z" />
    <glyph glyph-name="B.swsh" horiz-adv-x="1730" 
d="M1102 166q170 0 278.5 79t108.5 224q0 104 -65.5 155.5t-184.5 51.5h-379l-86 -510h328zM1507 1075q0 184 -235 185h-316l-75 -463h336q119 0 204.5 77.5t85.5 200.5zM213 899q0 -235 303 -235l-22 -140q-213 0 -327 104.5t-114 268.5q-1 213 145 361q76 76 212.5 120.5
t322.5 44.5h602q174 0 269.5 -72.5t95.5 -214.5t-77 -242.5t-210 -143.5q260 -47 260 -291q0 -219 -162.5 -339t-433.5 -120h-514l211 1270h-72q-242 0 -365.5 -98.5t-123.5 -272.5z" />
    <glyph glyph-name="C.swsh" horiz-adv-x="1366" 
d="M621 -72q-257 0 -397 152t-140 414t102.5 478t294 348t428.5 132q184 0 296 -99.5t112 -297.5q0 -133 -51 -295h-168q49 133 49 254t-70.5 189.5t-195.5 68.5q-176 0 -315.5 -108.5t-211 -276.5t-71.5 -360t101 -306.5t284 -114.5q303 0 532 238l53 -170
q-111 -106 -273 -176t-359 -70z" />
    <glyph glyph-name="Cacute.swsh" horiz-adv-x="1366" 
d="M621 -72q-257 0 -397 152t-140 414t102.5 478t294 348t428.5 132q184 0 296 -99.5t112 -297.5q0 -133 -51 -295h-168q49 133 49 254t-70.5 189.5t-195.5 68.5q-176 0 -315.5 -108.5t-211 -276.5t-71.5 -360t101 -306.5t284 -114.5q303 0 532 238l53 -170
q-111 -106 -273 -176t-359 -70zM1380 1995l-389 -422h-145l336 422h198z" />
    <glyph glyph-name="Ccaron.swsh" horiz-adv-x="1366" 
d="M909 1452q184 0 296 -99.5t112 -297.5q0 -133 -51 -295h-168q49 133 49 254t-70.5 189.5t-195.5 68.5q-176 0 -315.5 -108.5t-211 -276.5t-71.5 -360t101 -306.5t284 -114.5q303 0 532 238l53 -170q-111 -106 -273.5 -176t-358.5 -70q-257 0 -397 152t-140 414t102.5 478
t293.5 348t429 132zM1010 1579h-160l-176 444h131l147 -317l254 317h131z" />
    <glyph glyph-name="Ccedilla.swsh" horiz-adv-x="1366" 
d="M1147 1014q0 121 -70.5 189.5t-195.5 68.5q-176 0 -315.5 -108.5t-211 -276.5t-71.5 -360t101 -306.5t284 -114.5q303 0 532 238l53 -170q-233 -229 -587 -244l-88 -143q61 29 134 29t117.5 -42t44.5 -120q0 -131 -90 -204t-236.5 -73t-230.5 68l58 106q61 -66 182 -65
q84 0 134 40t50 107q0 84 -86 84t-143 -51l-88 37l131 227q-225 20 -348 170t-123 403t102.5 469t294 348t428.5 132q184 0 296 -99.5t112 -297.5q0 -133 -51 -295h-168q49 133 49 254z" />
    <glyph glyph-name="Cdotaccent.swsh" horiz-adv-x="1366" 
d="M621 -72q-256 0 -396.5 151.5t-140.5 414t102.5 478.5t294 348t428.5 132q184 0 296 -99.5t112 -297.5q0 -133 -51 -295h-168q49 133 49 254t-70.5 189.5t-195.5 68.5q-176 0 -315.5 -108.5t-211 -276.5t-71.5 -360t101 -306.5t284 -114.5q303 0 532 238l53 -170
q-111 -106 -273 -176t-359 -70zM979 1858q51 0 79.5 -35t19.5 -84t-49 -84t-90 -35t-78.5 35t-18.5 84q8 49 47 84t90 35z" />
    <glyph glyph-name="D.swsh" horiz-adv-x="1835" 
d="M934 170q256 0 452 150q100 76 160 214t60 320q0 403 -443 403h-254l-180 -1087h205zM1194 1423q289 0 449.5 -137t160.5 -416q0 -215 -72.5 -385t-195.5 -273q-253 -212 -596 -212h-424l209 1270h-63q-242 0 -366 -98.5t-124 -272.5q0 -117 79 -176t226 -59l-22 -140
q-213 0 -327 104.5t-114 268.5q0 215 146 361q76 76 212 120.5t322 44.5h500z" />
    <glyph glyph-name="Eth.swsh" horiz-adv-x="1953" 
d="M1053 170q255 0 451 150q100 76 160 214t60 320q0 403 -442 403h-254l-78 -469h314l-25 -153h-315l-76 -465h205zM1313 1423q289 0 449.5 -137t160.5 -416q0 -215 -72.5 -385t-195.5 -273q-253 -212 -596 -212h-424l104 635h-227l25 153h227l80 482h-64
q-270 0 -410.5 -109.5t-140.5 -304.5q0 -158 85 -241t235 -83l-23 -139q-223 0 -338.5 128t-115.5 346t157 378q82 84 231.5 131t352.5 47h500z" />
    <glyph glyph-name="Dcaron.swsh" horiz-adv-x="1835" 
d="M934 170q256 0 452 150q100 76 160 214t60 320q0 403 -443 403h-254l-180 -1087h205zM1194 1423q289 0 449.5 -137t160.5 -416q0 -215 -72.5 -385t-195.5 -273q-253 -212 -596 -212h-424l209 1270h-63q-242 0 -366 -98.5t-124 -272.5q0 -117 79 -176t226 -59l-22 -140
q-213 0 -327 104.5t-114 268.5q0 215 146 361q76 76 212 120.5t322 44.5h500zM1380 1579h-159l-177 444h132l147 -317l254 317h131z" />
    <glyph glyph-name="Dcroat.swsh" horiz-adv-x="1406" 
d="M508 170q256 0 452 150q100 76 160 214t60 320q0 403 -443 403h-254l-71 -430h393l-25 -153h-395l-82 -504h205zM768 1423q289 0 449.5 -137t160.5 -416q0 -215 -72.5 -385t-195.5 -273q-253 -212 -596 -212h-424l111 674h-115l27 153h112l99 596h444z" />
    <glyph glyph-name="E.swsh" horiz-adv-x="1619" 
d="M213 899q0 -235 303 -235l-22 -140q-213 0 -327 104.5t-114 268.5q-1 213 145 361q76 76 212.5 120.5t322.5 44.5h998l-27 -166h-723l-72 -436h572l-25 -153h-571l-82 -500h721l-27 -168h-909l209 1270h-95q-242 0 -365.5 -98.5t-123.5 -272.5z" />
    <glyph glyph-name="Eacute.swsh" horiz-adv-x="1619" 
d="M213 899q0 -235 303 -235l-22 -140q-213 0 -327 104.5t-114 268.5q-1 213 145 361q76 76 212.5 120.5t322.5 44.5h998l-27 -166h-723l-72 -436h572l-25 -153h-571l-82 -500h721l-27 -168h-909l209 1270h-95q-242 0 -365.5 -98.5t-123.5 -272.5zM1438 1995l-389 -422h-146
l336 422h199z" />
    <glyph glyph-name="Ecaron.swsh" horiz-adv-x="1619" 
d="M213 899q0 -235 303 -235l-22 -140q-213 0 -327 104.5t-114 268.5q-1 213 145 361q76 76 212.5 120.5t322.5 44.5h998l-27 -166h-723l-72 -436h572l-25 -153h-571l-82 -500h721l-27 -168h-909l209 1270h-95q-242 0 -365.5 -98.5t-123.5 -272.5zM1067 1579h-160l-176 444
h131l148 -317l254 317h131z" />
    <glyph glyph-name="Ecircumflex.swsh" horiz-adv-x="1619" 
d="M213 899q0 -235 303 -235l-22 -140q-213 0 -327 104.5t-114 268.5q-1 213 145 361q76 76 212.5 120.5t322.5 44.5h998l-27 -166h-723l-72 -436h572l-25 -153h-571l-82 -500h721l-27 -168h-909l209 1270h-95q-242 0 -365.5 -98.5t-123.5 -272.5zM1053 1880l-254 -317h-131
l327 444h158l178 -444h-131z" />
    <glyph glyph-name="Edieresis.swsh" horiz-adv-x="1619" 
d="M213 899q0 -235 303 -235l-22 -140q-213 0 -327 104.5t-114 268.5q-1 213 145 361q76 76 212.5 120.5t322.5 44.5h998l-27 -166h-723l-72 -436h572l-25 -153h-571l-82 -500h721l-27 -168h-909l209 1270h-95q-242 0 -365.5 -98.5t-123.5 -272.5zM1188 1620q-49 0 -77 34
t-18.5 82t48.5 81.5t87 33.5t75.5 -33.5t19.5 -81.5t-47 -82t-88 -34zM798 1620q-48 0 -76 34t-18.5 82t47 81.5t86 33.5t76 -33.5t19.5 -81.5t-47 -82t-87 -34z" />
    <glyph glyph-name="Edotaccent.swsh" horiz-adv-x="1619" 
d="M213 899q0 -235 303 -235l-22 -140q-213 0 -327 104.5t-114 268.5q-1 213 145 361q76 76 212.5 120.5t322.5 44.5h998l-27 -166h-723l-72 -436h572l-25 -153h-571l-82 -500h721l-27 -168h-909l209 1270h-95q-242 0 -365.5 -98.5t-123.5 -272.5zM996 1620q-50 0 -78.5 35
t-18.5 84q8 49 47 84t90 35t80 -35t20 -84t-49.5 -84t-90.5 -35z" />
    <glyph glyph-name="Egrave.swsh" horiz-adv-x="1619" 
d="M213 899q0 -235 303 -235l-22 -140q-213 0 -327 104.5t-114 268.5q-1 213 145 361q76 76 212.5 120.5t322.5 44.5h998l-27 -166h-723l-72 -436h572l-25 -153h-571l-82 -500h721l-27 -168h-909l209 1270h-95q-242 0 -365.5 -98.5t-123.5 -272.5zM1047 1573h-132l-206 434
h186z" />
    <glyph glyph-name="Emacron.swsh" horiz-adv-x="1619" 
d="M213 899q0 -235 303 -235l-22 -140q-213 0 -327 104.5t-114 268.5q-1 213 145 361q76 76 212.5 120.5t322.5 44.5h998l-27 -166h-723l-72 -436h572l-25 -153h-571l-82 -500h721l-27 -168h-909l209 1270h-95q-242 0 -365.5 -98.5t-123.5 -272.5zM1386 1853l-24 -149h-696
l24 149h696z" />
    <glyph glyph-name="Eogonek.swsh" horiz-adv-x="1650" 
d="M213 899q0 -235 303 -235l-22 -140q-213 0 -327 104.5t-114 268.5q-1 213 145 361q76 76 212.5 120.5t322.5 44.5h998l-27 -166h-723l-72 -436h572l-25 -153h-571l-82 -500h721l-27 -168q-348 -168 -348 -367q0 -92 89 -92t179 56l10 -125q-131 -68 -240.5 -68t-157.5 46
t-48 124q0 133 96.5 242.5t253.5 183.5h-743l209 1270h-95q-242 0 -365.5 -98.5t-123.5 -272.5z" />
    <glyph glyph-name="F.swsh" horiz-adv-x="1568" 
d="M715 1270q-242 0 -366 -98.5t-124 -272.5q0 -117 79 -176t226 -59l-16 -140q-217 0 -331.5 104.5t-114.5 268.5q0 215 145 361q76 76 213 120.5t322 44.5h954l-29 -168h-696l-74 -438h547l-25 -155h-546l-111 -662h-184l211 1270h-80z" />
    <glyph glyph-name="G.swsh" horiz-adv-x="1366" 
d="M530 -512q-160 0 -288.5 46t-192.5 106l74 163q127 -143 421 -143t409 208q48 87 69 214q-180 -98 -420.5 -98t-384 146t-143.5 403.5t103.5 466t295 331.5t432.5 123q408 0 408 -387q0 -115 -31 -240h-180q29 102 28 185q0 262 -261 262t-430 -209t-169 -477
q0 -205 102.5 -315.5t305.5 -111t375 112.5l47 308h186l-80 -498q-96 -596 -676 -596z" />
    <glyph glyph-name="Gbreve.swsh" horiz-adv-x="1366" 
d="M869 1274q-261 0 -430 -209t-169 -477q0 -205 102.5 -315.5t305.5 -110.5t375 112l47 308h186l-80 -498q-96 -596 -676 -596q-160 0 -288.5 46t-192.5 106l74 163q127 -143 421 -143t409 208q48 87 69 214q-180 -98 -420.5 -98t-384 146t-143.5 403.5t103.5 466
t295 331.5t432.5 123q408 0 408 -387q0 -115 -31 -240h-180q29 102 28 185q0 262 -261 262zM934 1591q-172 0 -245 102.5t-30 301.5h142q-57 -283 151.5 -283t245.5 283h141q-23 -199 -128 -301.5t-277 -102.5z" />
    <glyph glyph-name="Gcommaaccent.swsh" horiz-adv-x="1366" 
d="M544.5 -119q62.5 0 95 -54t15.5 -146q-43 -242 -288 -345l-48 95q84 35 134.5 81t76.5 119q-23 -6 -58.5 -6t-64 34t-18.5 92t51.5 94t104 36zM601.5 -16q-240.5 0 -384 146t-143.5 403.5t103.5 466t295 331.5t432.5 123q408 0 408 -387q0 -115 -31 -240h-180
q29 102 28 185q0 262 -261 262t-430 -209t-169 -477q0 -205 102.5 -315.5t305.5 -111t375 112.5l47 308h186l-80 -498q-39 -248 -128 -382t-232 -204l-101 127q217 115 277 457q-180 -98 -420.5 -98z" />
    <glyph glyph-name="Gdotaccent.swsh" horiz-adv-x="1366" 
d="M530 -512q-160 0 -288.5 46t-192.5 106l74 163q127 -143 421 -143t409 208q48 87 69 214q-180 -98 -420.5 -98t-384 146t-143.5 403.5t103.5 466t295 331.5t432.5 123q408 0 408 -387q0 -115 -31 -240h-180q29 102 28 185q0 262 -261 262t-430 -209t-169 -477
q0 -205 102.5 -315.5t305.5 -111t375 112.5l47 308h186l-80 -498q-96 -596 -676 -596zM937 1620q-50 0 -79 35t-18 84q8 49 47 84t90 35t79.5 -35t19.5 -84t-49 -84t-90 -35z" />
    <glyph glyph-name="H.swsh" horiz-adv-x="1943" 
d="M715 1270q-242 0 -366 -98.5t-124 -272.5q0 -117 79 -176t226 -59l-16 -140q-217 0 -331.5 104.5t-114.5 268.5q0 215 145 361q76 76 213 120.5t322 44.5h282l-98 -592h715l96 592h184l-233 -1423h-185l109 664h-713l-110 -664h-185l209 1270h-104z" />
    <glyph glyph-name="I.swsh" horiz-adv-x="974" 
d="M203 899q0 -235 305 -235l-16 -140q-217 0 -332 104.5t-115 268.5q-1 213 145 361q76 76 213.5 120.5t321.5 44.5h233l-233 -1423h-184l209 1270h-58q-242 0 -365.5 -98.5t-123.5 -272.5z" />
    <glyph glyph-name="Iacute.swsh" horiz-adv-x="974" 
d="M203 899q0 -235 305 -235l-16 -140q-217 0 -332 104.5t-115 268.5q-1 213 145 361q76 76 213.5 120.5t321.5 44.5h233l-233 -1423h-184l209 1270h-58q-242 0 -365.5 -98.5t-123.5 -272.5zM1346 1995l-390 -422h-145l336 422h199z" />
    <glyph glyph-name="uni01CF.swsh" horiz-adv-x="974" 
d="M203 899q0 -235 305 -235l-16 -140q-217 0 -332 104.5t-115 268.5q-1 213 145 361q76 76 213.5 120.5t321.5 44.5h233l-233 -1423h-184l209 1270h-58q-242 0 -365.5 -98.5t-123.5 -272.5zM1171 2023h132l-328 -444h-160l-176 444h131l148 -317z" />
    <glyph glyph-name="Icircumflex.swsh" horiz-adv-x="974" 
d="M203 899q0 -235 305 -235l-16 -140q-217 0 -332 104.5t-115 268.5q-1 213 145 361q76 76 213.5 120.5t321.5 44.5h233l-233 -1423h-184l209 1270h-58q-242 0 -365.5 -98.5t-123.5 -272.5zM1239 1563h-131l-147 317l-254 -317h-132l328 444h158z" />
    <glyph glyph-name="Idieresis.swsh" horiz-adv-x="974" 
d="M203 899q0 -235 305 -235l-16 -140q-217 0 -332 104.5t-115 268.5q-1 213 145 361q76 76 213.5 120.5t321.5 44.5h233l-233 -1423h-184l209 1270h-58q-242 0 -365.5 -98.5t-123.5 -272.5zM1136 1851q48 0 75.5 -33.5t19.5 -81.5t-47 -82t-88 -34t-77 34t-19 82t48.5 81.5
t87.5 33.5zM706 1620q-48 0 -76 34t-19 82t47 81.5t86 33.5t76 -33.5t20 -81.5t-47 -82t-87 -34z" />
    <glyph glyph-name="Idotaccent.swsh" horiz-adv-x="974" 
d="M203 899q0 -235 305 -235l-16 -140q-217 0 -332 104.5t-115 268.5q-1 213 145 361q76 76 213.5 120.5t321.5 44.5h233l-233 -1423h-184l209 1270h-58q-242 0 -365.5 -98.5t-123.5 -272.5zM944 1858q51 0 80 -35t19.5 -84t-49.5 -84t-90 -35t-78.5 35t-18.5 84q8 49 47 84
t90 35z" />
    <glyph glyph-name="Igrave.swsh" horiz-adv-x="974" 
d="M203 899q0 -235 305 -235l-16 -140q-217 0 -332 104.5t-115 268.5q-1 213 145 361q76 76 213.5 120.5t321.5 44.5h233l-233 -1423h-184l209 1270h-58q-242 0 -365.5 -98.5t-123.5 -272.5zM954 1573h-131l-207 434h187z" />
    <glyph glyph-name="Imacron.swsh" horiz-adv-x="974" 
d="M203 899q0 -235 305 -235l-16 -140q-217 0 -332 104.5t-115 268.5q-1 213 145 361q76 76 213.5 120.5t321.5 44.5h233l-233 -1423h-184l209 1270h-58q-242 0 -365.5 -98.5t-123.5 -272.5zM598 1853h696l-24 -149h-697z" />
    <glyph glyph-name="Iogonek.swsh" horiz-adv-x="974" 
d="M203 899q0 -235 305 -235l-16 -140q-217 0 -332 104.5t-115 268.5q-1 213 145 361q76 76 213.5 120.5t321.5 44.5h233l-233 -1423q-348 -168 -348 -367q0 -92 89 -92t179 56l10 -125q-131 -68 -240.5 -68t-157.5 46t-48 124q0 133 96 242.5t254 183.5h-18l209 1270h-58
q-242 0 -365.5 -98.5t-123.5 -272.5z" />
    <glyph glyph-name="J.swsh" horiz-adv-x="1142" 
d="M-88 33q0 268 190.5 433t505.5 155l-24 -162q-223 10 -360.5 -105.5t-137.5 -304.5q0 -129 75 -199.5t208 -70.5q344 0 419 475l158 1008h-436l25 161h622l-184 -1169q-29 -186 -93 -318q-64 -130 -150 -196q-160 -120 -363.5 -120.5t-329 102t-125.5 311.5z" />
    <glyph glyph-name="K.swsh" horiz-adv-x="1734" 
d="M231 899q0 -235 304 -235l-21 -140q-215 0 -328.5 104.5t-113.5 268.5q0 215 145 361q76 76 213 120.5t324 44.5h258l-115 -698l717 698h223l-547 -528l307 -895h-215l-252 741l-276 -266l-78 -475h-184l209 1270h-80q-242 0 -366 -98.5t-124 -272.5z" />
    <glyph glyph-name="Kcommaaccent.swsh" horiz-adv-x="1734" 
d="M1039.5 -104q62.5 0 95 -54.5t16.5 -146.5q-43 -242 -289 -344l-47 94q84 35 134 81t77 120q-23 -6 -58.5 -6t-64.5 33.5t-18.5 92t51.5 94.5t103.5 36zM231 899q0 -235 304 -235l-21 -140q-215 0 -328.5 104.5t-113.5 268.5q0 215 145 361q76 76 213 120.5t324 44.5h258
l-115 -698l717 698h223l-547 -528l307 -895h-215l-252 741l-276 -266l-78 -475h-184l209 1270h-80q-242 0 -366 -98.5t-124 -272.5z" />
    <glyph glyph-name="L.swsh" horiz-adv-x="1505" 
d="M700 1270q-242 0 -365.5 -98.5t-123.5 -272.5q0 -117 79 -176t226 -59l-27 -140q-213 0 -324.5 104.5t-111.5 268.5q-1 213 145 361q76 76 212.5 120.5t322.5 44.5h307l-209 -1255h607l-29 -168h-793l211 1270h-127z" />
    <glyph glyph-name="Lacute.swsh" horiz-adv-x="1505" 
d="M700 1270q-242 0 -365.5 -98.5t-123.5 -272.5q0 -117 79 -176t226 -59l-27 -140q-213 0 -324.5 104.5t-111.5 268.5q-1 213 145 361q76 76 212.5 120.5t322.5 44.5h307l-209 -1255h607l-29 -168h-793l211 1270h-127zM1427 1995l-389 -422h-145l336 422h198z" />
    <glyph glyph-name="Lcaron.swsh" horiz-adv-x="1505" 
d="M700 1270q-242 0 -365.5 -98.5t-123.5 -272.5q0 -117 79 -176t226 -59l-27 -140q-213 0 -324.5 104.5t-111.5 268.5q-1 213 145 361q76 76 212.5 120.5t322.5 44.5h307l-209 -1255h607l-29 -168h-793l211 1270h-127zM1057 1579h-160l-176 444h131l147 -317l254 317h131z
" />
    <glyph glyph-name="Lcommaaccent.swsh" horiz-adv-x="1505" 
d="M1006.5 -104q62.5 0 95.5 -54.5t16 -146.5q-43 -242 -289 -344l-47 94q84 35 134.5 81t76.5 120q-23 -6 -58.5 -6t-64 33.5t-18.5 92t51 94.5t103.5 36zM700 1270q-242 0 -365.5 -98.5t-123.5 -272.5q0 -117 79 -176t226 -59l-27 -140q-213 0 -324.5 104.5t-111.5 268.5
q-1 213 145 361q76 76 212.5 120.5t322.5 44.5h307l-209 -1255h607l-29 -168h-793l211 1270h-127z" />
    <glyph glyph-name="Lslash.swsh" horiz-adv-x="1546" 
d="M741 1270q-252 0 -380 -107.5t-128 -304.5q0 -137 78 -210t226 -73l-23 -137q-215 0 -327.5 116t-112.5 302t94 322q167 244 606 245h307l-86 -520l367 144l53 -142l-448 -174l-95 -563h607l-29 -168h-793l109 653l-139 -53l-47 141l215 84l73 445h-127z" />
    <glyph glyph-name="M.swsh" horiz-adv-x="2209" 
d="M715 1270q-242 0 -366 -98.5t-124 -272.5q0 -236 305 -235l-26 -140q-211 2 -323.5 105.5t-112.5 267.5q0 215 145 361q163 164 535 165h327l279 -1069l616 1069h217l-225 -1423h-182l180 1083l-582 -1003h-141l-262 1038l-178 -1118h-170l209 1270h-121z" />
    <glyph glyph-name="N.swsh" horiz-adv-x="1884" 
d="M715 1270q-242 0 -366 -98.5t-124 -272.5q0 -236 305 -235l-26 -140q-211 2 -323.5 105.5t-112.5 267.5q0 215 145 361q163 164 535 165h249l521 -1120l186 1120h168l-238 -1423h-178l-514 1110l-184 -1110h-170l209 1270h-82z" />
    <glyph glyph-name="Nacute.swsh" horiz-adv-x="1884" 
d="M715 1270q-242 0 -366 -98.5t-124 -272.5q0 -236 305 -235l-26 -140q-211 2 -323.5 105.5t-112.5 267.5q0 215 145 361q163 164 535 165h249l521 -1120l186 1120h168l-238 -1423h-178l-514 1110l-184 -1110h-170l209 1270h-82zM1823 1995l-389 -422h-146l336 422h199z
" />
    <glyph glyph-name="Ncaron.swsh" horiz-adv-x="1884" 
d="M715 1270q-242 0 -366 -98.5t-124 -272.5q0 -236 305 -235l-26 -140q-211 2 -323.5 105.5t-112.5 267.5q0 215 145 361q163 164 535 165h249l521 -1120l186 1120h168l-238 -1423h-178l-514 1110l-184 -1110h-170l209 1270h-82zM1452 1579h-160l-176 444h131l148 -317
l254 317h131z" />
    <glyph glyph-name="Ncommaaccent.swsh" horiz-adv-x="1884" 
d="M1101.5 -104q62.5 0 95 -54.5t15.5 -146.5q-43 -242 -288 -344l-47 94q84 35 134 81t76 120q-23 -6 -58.5 -6t-64 33.5t-18.5 92t51.5 94.5t104 36zM715 1270q-242 0 -366 -98.5t-124 -272.5q0 -236 305 -235l-26 -140q-211 2 -323.5 105.5t-112.5 267.5q0 215 145 361
q163 164 535 165h249l521 -1120l186 1120h168l-238 -1423h-178l-514 1110l-184 -1110h-170l209 1270h-82z" />
    <glyph glyph-name="Ntilde.swsh" horiz-adv-x="1884" 
d="M715 1270q-242 0 -366 -98.5t-124 -272.5q0 -236 305 -235l-26 -140q-211 2 -323.5 105.5t-112.5 267.5q0 215 145 361q163 164 535 165h249l521 -1120l186 1120h168l-238 -1423h-178l-514 1110l-184 -1110h-170l209 1270h-82zM1266.5 1810q-49.5 0 -79.5 -61t-48 -193
h-133q49 397 245 398q47 0 91 -41t72 -89q76 -130 136 -130q90 0 129 256h133q-51 -399 -253 -400q-49 0 -93 41q-46 41 -74 89q-76 130 -125.5 130z" />
    <glyph glyph-name="O.swsh" horiz-adv-x="1523" 
d="M709 150q252 0 420.5 160.5t168.5 400.5q0 176 -102 250q-68 -125 -212 -195t-318 -70l26 142q150 0 262.5 75.5t112.5 204.5q0 78 -51 122t-137 44q-258 0 -424 -202.5t-166 -491.5q0 -205 113.5 -322.5t306.5 -117.5zM1485 743q0 -336 -224.5 -555t-572.5 -219
q-274 0 -436 156t-162 426q0 387 227.5 645t587.5 258q162 0 251 -80t89 -217q0 -76 -24 -143l102 90q162 -109 162 -361z" />
    <glyph glyph-name="Oacute.swsh" horiz-adv-x="1523" 
d="M709 150q252 0 420.5 160.5t168.5 400.5q0 176 -102 250q-68 -125 -212 -195t-318 -70l26 142q150 0 262.5 75.5t112.5 204.5q0 78 -51 122t-137 44q-258 0 -424 -202.5t-166 -491.5q0 -205 113.5 -322.5t306.5 -117.5zM1485 743q0 -336 -224.5 -555t-572.5 -219
q-274 0 -436 156t-162 426q0 387 227.5 645t587.5 258q162 0 251 -80t89 -217q0 -76 -24 -143l102 90q162 -109 162 -361zM1395 1995l-389 -422h-146l336 422h199z" />
    <glyph glyph-name="uni01D1.swsh" horiz-adv-x="1523" 
d="M709 150q252 0 420.5 160.5t168.5 400.5q0 176 -102 250q-68 -125 -212 -195t-318 -70l26 142q150 0 262.5 75.5t112.5 204.5q0 78 -51 122t-137 44q-258 0 -424 -202.5t-166 -491.5q0 -205 113.5 -322.5t306.5 -117.5zM1485 743q0 -336 -224.5 -555t-572.5 -219
q-274 0 -436 156t-162 426q0 387 227.5 645t587.5 258q162 0 251 -80t89 -217q0 -76 -24 -143l102 90q162 -109 162 -361zM1024 1579h-160l-176 444h131l148 -317l254 317h131z" />
    <glyph glyph-name="Ocircumflex.swsh" horiz-adv-x="1523" 
d="M709 150q252 0 420.5 160.5t168.5 400.5q0 176 -102 250q-68 -125 -212 -195t-318 -70l26 142q150 0 262.5 75.5t112.5 204.5q0 78 -51 122t-137 44q-258 0 -424 -202.5t-166 -491.5q0 -205 113.5 -322.5t306.5 -117.5zM1485 743q0 -336 -224.5 -555t-572.5 -219
q-274 0 -436 156t-162 426q0 387 227.5 645t587.5 258q162 0 251 -80t89 -217q0 -76 -24 -143l102 90q162 -109 162 -361zM1010 1880l-254 -317h-131l327 444h158l178 -444h-131z" />
    <glyph glyph-name="Odieresis.swsh" horiz-adv-x="1523" 
d="M709 150q252 0 420.5 160.5t168.5 400.5q0 176 -102 250q-68 -125 -212 -195t-318 -70l26 142q150 0 262.5 75.5t112.5 204.5q0 78 -51 122t-137 44q-258 0 -424 -202.5t-166 -491.5q0 -205 113.5 -322.5t306.5 -117.5zM1485 743q0 -336 -224.5 -555t-572.5 -219
q-274 0 -436 156t-162 426q0 387 227.5 645t587.5 258q162 0 251 -80t89 -217q0 -76 -24 -143l102 90q162 -109 162 -361zM1145 1620q-49 0 -77 34t-18.5 82t48.5 81.5t87 33.5t75.5 -33.5t19.5 -81.5t-47 -82t-88 -34zM755 1620q-48 0 -76 34t-18.5 82t47 81.5t86 33.5
t76 -33.5t19.5 -81.5t-47 -82t-87 -34z" />
    <glyph glyph-name="Ograve.swsh" horiz-adv-x="1523" 
d="M709 150q252 0 420.5 160.5t168.5 400.5q0 176 -102 250q-68 -125 -212 -195t-318 -70l26 142q150 0 262.5 75.5t112.5 204.5q0 78 -51 122t-137 44q-258 0 -424 -202.5t-166 -491.5q0 -205 113.5 -322.5t306.5 -117.5zM1485 743q0 -336 -224.5 -555t-572.5 -219
q-274 0 -436 156t-162 426q0 387 227.5 645t587.5 258q162 0 251 -80t89 -217q0 -76 -24 -143l102 90q162 -109 162 -361zM1004 1573h-132l-206 434h186z" />
    <glyph glyph-name="Ohungarumlaut.swsh" horiz-adv-x="1523" 
d="M709 150q252 0 420.5 160.5t168.5 400.5q0 176 -102 250q-68 -125 -212 -195t-318 -70l26 142q150 0 262.5 75.5t112.5 204.5q0 78 -51 122t-137 44q-258 0 -424 -202.5t-166 -491.5q0 -205 113.5 -322.5t306.5 -117.5zM1485 743q0 -336 -224.5 -555t-572.5 -219
q-274 0 -436 156t-162 426q0 387 227.5 645t587.5 258q162 0 251 -80t89 -217q0 -76 -24 -143l102 90q162 -109 162 -361zM1124 1573h-129l344 432h187zM1116 2005l-276 -432h-115l211 432h180z" />
    <glyph glyph-name="Omacron.swsh" horiz-adv-x="1523" 
d="M709 150q252 0 420.5 160.5t168.5 400.5q0 176 -102 250q-68 -125 -212 -195t-318 -70l26 142q150 0 262.5 75.5t112.5 204.5q0 78 -51 122t-137 44q-258 0 -424 -202.5t-166 -491.5q0 -205 113.5 -322.5t306.5 -117.5zM1485 743q0 -336 -224.5 -555t-572.5 -219
q-274 0 -436 156t-162 426q0 387 227.5 645t587.5 258q162 0 251 -80t89 -217q0 -76 -24 -143l102 90q162 -109 162 -361zM1343 1853l-24 -149h-696l24 149h696z" />
    <glyph glyph-name="Otilde.swsh" horiz-adv-x="1523" 
d="M709 150q252 0 420.5 160.5t168.5 400.5q0 176 -102 250q-68 -125 -212 -195t-318 -70l26 142q150 0 262.5 75.5t112.5 204.5q0 78 -51 122t-137 44q-258 0 -424 -202.5t-166 -491.5q0 -205 113.5 -322.5t306.5 -117.5zM1485 743q0 -336 -224.5 -555t-572.5 -219
q-274 0 -436 156t-162 426q0 387 227.5 645t587.5 258q162 0 251 -80t89 -217q0 -76 -24 -143l102 90q162 -109 162 -361zM838.5 1810q-49.5 0 -79.5 -61t-48 -193h-133q49 397 245 398q47 0 91 -41t72 -89q76 -130 136 -130q90 0 129 256h133q-51 -399 -254 -400
q-49 0 -93 41q-45 41 -73 89q-76 130 -125.5 130z" />
    <glyph glyph-name="P.swsh" horiz-adv-x="1718" 
d="M1190 674q186 0 283.5 98t97.5 256q0 111 -67.5 170t-188.5 59h-332l-96 -583h303zM1364 1423q197 0 300 -95t103 -279q0 -248 -152.5 -393.5t-432.5 -145.5h-324l-84 -510h-186l211 1262h-88q-231 0 -349 -94.5t-118 -264.5q0 -233 299 -233l-8 -156q-229 0 -342 110.5
t-113 280.5q0 223 149.5 370.5t479.5 147.5h655z" />
    <glyph glyph-name="Q.swsh" horiz-adv-x="1523" 
d="M289 590q0 -205 113.5 -322.5t306.5 -117.5q252 0 420.5 160.5t168.5 400.5q0 176 -102 250q-68 -125 -212 -195t-318 -70l26 142q150 0 262.5 75.5t112.5 204.5q0 78 -51 122t-137 44q-258 0 -424 -202.5t-166 -491.5zM1157.5 -201q98.5 0 204.5 60l-12 -164
q-104 -55 -220 -55q-199 0 -365.5 115.5t-308 115.5t-317.5 -90l6 164q137 61 267 75q-154 63 -238 200.5t-84 330.5q0 387 227.5 645t587.5 258q162 0 251 -80t89 -217q0 -76 -24 -143l102 90q162 -109 162 -361q0 -326 -212 -543t-546 -231q39 -18 120 -68.5t146.5 -76
t164 -25.5z" />
    <glyph glyph-name="R.swsh" horiz-adv-x="1742" 
d="M1180 754q170 0 268 83t98 222q0 98 -63.5 147t-171.5 49h-355l-84 -501h308zM1745 1079.5q0 -178.5 -113.5 -301.5t-300.5 -162l275 -616h-222l-247 602h-289l-100 -602h-185l209 1262h-74q-242 0 -360.5 -94.5t-118.5 -264.5q0 -236 297 -235l-6 -154
q-231 0 -344 110.5t-113 280.5q1 213 137 357q70 74 199 117.5t307 43.5h662q188 0 287.5 -82.5t99.5 -261z" />
    <glyph glyph-name="Racute.swsh" horiz-adv-x="1742" 
d="M1180 754q170 0 268 83t98 222q0 98 -63.5 147t-171.5 49h-355l-84 -501h308zM1358 1423q387 0 387 -344q0 -178 -113.5 -301t-300.5 -162l275 -616h-222l-247 602h-289l-100 -602h-185l209 1262h-74q-242 0 -360.5 -94.5t-118.5 -264.5q0 -236 297 -235l-6 -154
q-231 0 -344 110.5t-113 280.5q1 213 137 357q70 74 199 117.5t307 43.5h662zM1769 1995l-389 -422h-145l336 422h198z" />
    <glyph glyph-name="Rcaron.swsh" horiz-adv-x="1742" 
d="M1180 754q170 0 268 83t98 222q0 98 -63.5 147t-171.5 49h-355l-84 -501h308zM1745 1079.5q0 -178.5 -113.5 -301.5t-300.5 -162l275 -616h-222l-247 602h-289l-100 -602h-185l209 1262h-74q-242 0 -360.5 -94.5t-118.5 -264.5q0 -236 297 -235l-6 -154
q-231 0 -344 110.5t-113 280.5q1 213 137 357q70 74 199 117.5t307 43.5h662q188 0 287.5 -82.5t99.5 -261zM1399 1579h-160l-176 444h131l147 -317l254 317h131z" />
    <glyph glyph-name="Rcommaaccent.swsh" horiz-adv-x="1742" 
d="M1047.5 -104q62.5 0 95.5 -54.5t16 -146.5q-43 -242 -289 -344l-47 94q84 35 134.5 81t76.5 120q-23 -6 -58.5 -6t-64 33.5t-18.5 92t51 94.5t103.5 36zM1180 754q170 0 268 83t98 222q0 98 -63.5 147t-171.5 49h-355l-84 -501h308zM1745 1079.5q0 -178.5 -113.5 -301.5
t-300.5 -162l275 -616h-222l-247 602h-289l-100 -602h-185l209 1262h-74q-242 0 -360.5 -94.5t-118.5 -264.5q0 -236 297 -235l-6 -154q-231 0 -344 110.5t-113 280.5q1 213 137 357q70 74 199 117.5t307 43.5h662q188 0 287.5 -82.5t99.5 -261z" />
    <glyph glyph-name="S.swsh" horiz-adv-x="1054" 
d="M440 -297q-470 0 -471 422q0 59 8 111l177 28q-8 -49 -9 -100q0 -145 79 -218t226.5 -73t238.5 73.5t91 189.5t-59 188.5t-202.5 177t-226.5 212t-83 257.5q0 211 142.5 346t369.5 135q158 0 251 -77t93 -232q0 -100 -39 -219l-168 2q27 86 27 161q0 197 -195 197
q-129 0 -211 -83t-82 -193.5t62.5 -183t168.5 -148.5t150 -114q46 -38 96 -96q100 -114 99 -286q0 -225 -152.5 -351t-380.5 -126z" />
    <glyph glyph-name="Sacute.swsh" horiz-adv-x="1054" 
d="M440 -297q-470 0 -471 422q0 59 8 111l177 28q-8 -49 -9 -100q0 -145 79 -218t226.5 -73t238.5 73.5t91 189.5t-59 188.5t-202.5 177t-226.5 212t-83 257.5q0 211 142.5 346t369.5 135q158 0 251 -77t93 -232q0 -100 -39 -219l-168 2q27 86 27 161q0 197 -195 197
q-129 0 -211 -83t-82 -193.5t62.5 -183t168.5 -148.5t150 -114q46 -38 96 -96q100 -114 99 -286q0 -225 -152.5 -351t-380.5 -126zM1182 1995l-389 -422h-146l336 422h199z" />
    <glyph glyph-name="Scaron.swsh" horiz-adv-x="1054" 
d="M721 1452q158 0 251 -77t93 -232q0 -100 -39 -219l-168 2q27 86 27 161q0 197 -195 197q-129 0 -211 -83t-82 -193.5t62.5 -183t168.5 -148.5t150 -114q46 -38 96 -96q100 -114 99 -286q0 -225 -152.5 -351t-380.5 -126q-470 0 -471 422q0 59 8 111l177 28
q-8 -49 -9 -100q0 -145 79 -218t226.5 -73t238.5 73.5t91 189.5t-59 188.5t-202.5 177t-226.5 212t-83 257.5q0 211 142.5 346t369.5 135zM811 1579h-160l-176 444h131l148 -317l254 317h131z" />
    <glyph glyph-name="Scedilla.swsh" horiz-adv-x="1054" 
d="M887 1092q0 193 -197 192q-129 0 -211 -80t-82 -189t62.5 -184t174 -149.5t166 -120t100.5 -125.5t46 -172q0 -162 -116.5 -243.5t-297.5 -81.5h-38l-72 -117q61 31 135 31t119 -42t45 -122q0 -129 -90 -199t-238 -70t-227 68l55 106q63 -63 164.5 -63t152 37t50.5 102
q0 84 -85 84t-143 -51l-90 37l117 213q-229 45 -387 246l88 163q182 -252 451 -251q98 0 155.5 41t57.5 117.5t-51.5 131t-157.5 121.5q-164 100 -249 211t-85 260q0 197 143.5 328t368.5 131q156 0 250 -78t94 -235q0 -96 -39 -215l-168 2q29 84 29 166z" />
    <glyph glyph-name="Scommaaccent.swsh" horiz-adv-x="1054" 
d="M472.5 -104q62.5 0 95 -54.5t16.5 -146.5q-43 -242 -289 -344l-47 94q84 35 134 81t77 120q-20 -6 -57 -6t-66 33.5t-19 92t51.5 94.5t104 36zM887 1092q0 193 -197 192q-129 0 -211 -80t-82 -189t62.5 -184t174 -149.5t166 -120t100.5 -125.5t46 -172
q0 -162 -116.5 -243.5t-297.5 -81.5q-330 0 -532 260l88 163q182 -252 451 -251q98 0 155.5 41t57.5 117.5t-51.5 131t-157.5 121.5q-164 100 -249 211t-85 260q0 197 143.5 328t368.5 131q156 0 250 -78t94 -235q0 -96 -39 -215l-168 2q29 84 29 166z" />
    <glyph glyph-name="T.swsh" horiz-adv-x="1415" 
d="M672 1260q-242 0 -364 -97.5t-122 -267.5q0 -231 303 -231l-22 -140q-213 0 -326.5 103.5t-113.5 261.5q0 221 145 369q162 166 535 165h833l-22 -163h-414l-199 -1260h-186l199 1260h-246z" />
    <glyph glyph-name="Tbar.swsh" horiz-adv-x="1415" 
d="M672 1260q-242 0 -364 -97.5t-122 -267.5q0 -231 303 -231l-22 -140q-213 0 -326.5 103.5t-113.5 261.5q0 221 145 369q162 166 535 165h833l-22 -163h-414l-92 -578h270l-25 -154h-268l-84 -528h-186l84 528h-273l25 154h270l93 578h-246z" />
    <glyph glyph-name="Tcaron.swsh" horiz-adv-x="1415" 
d="M672 1260q-242 0 -364 -97.5t-122 -267.5q0 -231 303 -231l-22 -140q-213 0 -326.5 103.5t-113.5 261.5q0 221 145 369q162 166 535 165h833l-22 -163h-414l-199 -1260h-186l199 1260h-246zM1141 1579h-160l-176 444h131l147 -317l254 317h131z" />
    <glyph glyph-name="uni0162.swsh" horiz-adv-x="1415" 
d="M890 -141q73 0 118 -42t45 -120q0 -131 -90.5 -204t-237 -73t-229.5 68l57 106q61 -66 182 -65q84 0 134.5 40t50.5 107q0 84 -86 84t-144 -51l-88 37l146 254h-29l199 1260h-246q-242 0 -364 -97.5t-122 -267.5q0 -231 303 -231l-22 -140q-213 0 -326.5 103.5
t-113.5 261.5q0 221 145 369q162 166 535 165h833l-22 -163h-414l-199 -1260h-43l-106 -170q61 29 134 29z" />
    <glyph glyph-name="uni021A.swsh" horiz-adv-x="1415" 
d="M802.5 -104q62.5 0 95 -54.5t15.5 -146.5q-43 -242 -288 -344l-47 94q84 35 134 81t76 120q-23 -6 -58.5 -6t-64 33.5t-18.5 92t51.5 94.5t104 36zM672 1260q-242 0 -364 -97.5t-122 -267.5q0 -231 303 -231l-22 -140q-213 0 -326.5 103.5t-113.5 261.5q0 221 145 369
q162 166 535 165h833l-22 -163h-414l-199 -1260h-186l199 1260h-246z" />
    <glyph glyph-name="U.swsh" horiz-adv-x="1894" 
d="M1126 -31q-176 0 -286 87q-206 164 -146 540l111 674h-111q-227 0 -344 -81t-117 -220.5t79 -209t225 -69.5l-25 -139q-211 0 -324.5 114.5t-113.5 286.5q0 205 154.5 338t498.5 133h287l-137 -841q-33 -190 32.5 -314.5t237.5 -124.5t282.5 115t145.5 322l141 843h187
l-140 -835q-51 -305 -214 -462t-423 -157z" />
    <glyph glyph-name="Uacute.swsh" horiz-adv-x="1894" 
d="M1126 -31q-176 0 -286 87q-206 164 -146 540l111 674h-111q-227 0 -344 -81t-117 -220.5t79 -209t225 -69.5l-25 -139q-211 0 -324.5 114.5t-113.5 286.5q0 205 154.5 338t498.5 133h287l-137 -841q-33 -190 32.5 -314.5t237.5 -124.5t282.5 115t145.5 322l141 843h187
l-140 -835q-51 -305 -214 -462t-423 -157zM1827 1995l-389 -422h-146l336 422h199z" />
    <glyph glyph-name="uni01D3.swsh" horiz-adv-x="1894" 
d="M1126 -31q-176 0 -286 87q-206 164 -146 540l111 674h-111q-227 0 -344 -81t-117 -220.5t79 -209t225 -69.5l-25 -139q-211 0 -324.5 114.5t-113.5 286.5q0 205 154.5 338t498.5 133h287l-137 -841q-33 -190 32.5 -314.5t237.5 -124.5t282.5 115t145.5 322l141 843h187
l-140 -835q-51 -305 -214 -462t-423 -157zM1456 1579h-160l-176 444h131l148 -317l254 317h131z" />
    <glyph glyph-name="Ucircumflex.swsh" horiz-adv-x="1894" 
d="M1126 -31q-176 0 -286 87q-206 164 -146 540l111 674h-111q-227 0 -344 -81t-117 -220.5t79 -209t225 -69.5l-25 -139q-211 0 -324.5 114.5t-113.5 286.5q0 205 154.5 338t498.5 133h287l-137 -841q-33 -190 32.5 -314.5t237.5 -124.5t282.5 115t145.5 322l141 843h187
l-140 -835q-51 -305 -214 -462t-423 -157zM1442 1880l-254 -317h-131l327 444h158l178 -444h-131z" />
    <glyph glyph-name="Udieresis.swsh" horiz-adv-x="1894" 
d="M1126 -31q-176 0 -286 87q-206 164 -146 540l111 674h-111q-227 0 -344 -81t-117 -220.5t79 -209t225 -69.5l-25 -139q-211 0 -324.5 114.5t-113.5 286.5q0 205 154.5 338t498.5 133h287l-137 -841q-33 -190 32.5 -314.5t237.5 -124.5t282.5 115t145.5 322l141 843h187
l-140 -835q-51 -305 -214 -462t-423 -157zM1577 1620q-49 0 -76.5 34t-18.5 82t48 81.5t87 33.5t75.5 -33.5t19.5 -81.5t-47 -82t-88 -34zM1187 1620q-48 0 -76 34t-18.5 82t47.5 81.5t86 33.5t75.5 -33.5t19.5 -81.5t-47 -82t-87 -34z" />
    <glyph glyph-name="Ugrave.swsh" horiz-adv-x="1894" 
d="M1126 -31q-176 0 -286 87q-206 164 -146 540l111 674h-111q-227 0 -344 -81t-117 -220.5t79 -209t225 -69.5l-25 -139q-211 0 -324.5 114.5t-113.5 286.5q0 205 154.5 338t498.5 133h287l-137 -841q-33 -190 32.5 -314.5t237.5 -124.5t282.5 115t145.5 322l141 843h187
l-140 -835q-51 -305 -214 -462t-423 -157zM1436 1573h-131l-207 434h186z" />
    <glyph glyph-name="Uhungarumlaut.swsh" horiz-adv-x="1894" 
d="M1126 -31q-176 0 -286 87q-206 164 -146 540l111 674h-111q-227 0 -344 -81t-117 -220.5t79 -209t225 -69.5l-25 -139q-211 0 -324.5 114.5t-113.5 286.5q0 205 154.5 338t498.5 133h287l-137 -841q-33 -190 32.5 -314.5t237.5 -124.5t282.5 115t145.5 322l141 843h187
l-140 -835q-51 -305 -214 -462t-423 -157zM1556 1573h-129l345 432h186zM1548 2005l-276 -432h-115l211 432h180z" />
    <glyph glyph-name="Umacron.swsh" horiz-adv-x="1894" 
d="M1126 -31q-176 0 -286 87q-206 164 -146 540l111 674h-111q-227 0 -344 -81t-117 -220.5t79 -209t225 -69.5l-25 -139q-211 0 -324.5 114.5t-113.5 286.5q0 205 154.5 338t498.5 133h287l-137 -841q-33 -190 32.5 -314.5t237.5 -124.5t282.5 115t145.5 322l141 843h187
l-140 -835q-51 -305 -214 -462t-423 -157zM1776 1853l-25 -149h-696l24 149h697z" />
    <glyph glyph-name="Uogonek.swsh" horiz-adv-x="1894" 
d="M1020 -358q0 -92 88 -93q90 0 180 56l10 -125q-131 -68 -240.5 -68t-157.5 46t-48 124q0 225 276 387h-2q-176 0 -286 87q-206 164 -146 540l111 674h-111q-227 0 -344 -81t-117 -220.5t79 -209t225 -69.5l-25 -139q-211 0 -324.5 114.5t-113.5 286.5q0 205 154.5 338
t498.5 133h287l-137 -841q-33 -190 32.5 -314.5t237.5 -124.5t282.5 115t145.5 322l141 843h187l-140 -835q-78 -459 -397 -578l2 -2q-348 -168 -348 -366z" />
    <glyph glyph-name="Uring.swsh" horiz-adv-x="1894" 
d="M1126 -31q-176 0 -286 87q-206 164 -146 540l111 674h-111q-227 0 -344 -81t-117 -220.5t79 -209t225 -69.5l-25 -139q-211 0 -324.5 114.5t-113.5 286.5q0 205 154.5 338t498.5 133h287l-137 -841q-33 -190 32.5 -314.5t237.5 -124.5t282.5 115t145.5 322l141 843h187
l-140 -835q-51 -305 -214 -462t-423 -157zM1392.5 1669q59.5 0 102.5 36t53 99q8 63 -21.5 101.5t-87.5 38.5t-101.5 -39.5t-54.5 -101.5t19.5 -98t90 -36zM1373 1563q-114 0 -168 66.5t-37 175t96 175t191 66.5t168 -67.5t39 -174t-96 -174t-193 -67.5z" />
    <glyph glyph-name="V.swsh" horiz-adv-x="1769" 
d="M643 1270q-227 0 -344 -81t-117 -220.5t79 -209t224 -69.5l-24 -139q-211 0 -324.5 114.5t-113.5 286.5q0 205 154.5 338t498.5 133h262l162 -1017q14 -168 18 -224q35 84 113 244l514 997h194l-745 -1423h-219l-211 1270h-121z" />
    <glyph glyph-name="W.swsh" horiz-adv-x="2445" 
d="M758 1270q-227 0 -344 -81t-117 -220.5t79 -209t224 -69.5l-25 -139q-211 0 -324.5 114.5t-113.5 286.5q0 205 154.5 338t499.5 133h270l31 -1034q-2 -51 -2 -166q25 66 67 162l479 1024h189l114 -999q8 -84 11 -179l59 170l395 1022h193l-580 -1423h-217l-98 877
q-2 31 -19 292q-80 -223 -108 -284l-422 -885h-219l-64 1270h-112z" />
    <glyph glyph-name="Wacute.swsh" horiz-adv-x="2445" 
d="M758 1270q-227 0 -344 -81t-117 -220.5t79 -209t224 -69.5l-25 -139q-211 0 -324.5 114.5t-113.5 286.5q0 205 154.5 338t499.5 133h270l31 -1034q-2 -51 -2 -166q25 66 67 162l479 1024h189l114 -999q8 -84 11 -179l59 170l395 1022h193l-580 -1423h-217l-98 877
q-2 31 -19 292q-80 -223 -108 -284l-422 -885h-219l-64 1270h-112zM2204 1995l-389 -422h-146l336 422h199z" />
    <glyph glyph-name="Wcircumflex.swsh" horiz-adv-x="2445" 
d="M758 1270q-227 0 -344 -81t-117 -220.5t79 -209t224 -69.5l-25 -139q-211 0 -324.5 114.5t-113.5 286.5q0 205 154.5 338t499.5 133h270l31 -1034q-2 -51 -2 -166q25 66 67 162l479 1024h189l114 -999q8 -84 11 -179l59 170l395 1022h193l-580 -1423h-217l-98 877
q-2 31 -19 292q-80 -223 -108 -284l-422 -885h-219l-64 1270h-112zM1819 1880l-254 -317h-131l327 444h158l178 -444h-131z" />
    <glyph glyph-name="Wdieresis.swsh" horiz-adv-x="2445" 
d="M758 1270q-227 0 -344 -81t-117 -220.5t79 -209t224 -69.5l-25 -139q-211 0 -324.5 114.5t-113.5 286.5q0 205 154.5 338t499.5 133h270l31 -1034q-2 -51 -2 -166q25 66 67 162l479 1024h189l114 -999q8 -84 11 -179l59 170l395 1022h193l-580 -1423h-217l-98 877
q-2 31 -19 292q-80 -223 -108 -284l-422 -885h-219l-64 1270h-112zM1954 1620q-49 0 -77 34t-18.5 82t48.5 81.5t87 33.5t75.5 -33.5t19.5 -81.5t-47 -82t-88 -34zM1564 1620q-48 0 -76 34t-19 82t47 81.5t86.5 33.5t76 -33.5t19.5 -81.5t-47 -82t-87 -34z" />
    <glyph glyph-name="Wgrave.swsh" horiz-adv-x="2445" 
d="M758 1270q-227 0 -344 -81t-117 -220.5t79 -209t224 -69.5l-25 -139q-211 0 -324.5 114.5t-113.5 286.5q0 205 154.5 338t499.5 133h270l31 -1034q-2 -51 -2 -166q25 66 67 162l479 1024h189l114 -999q8 -84 11 -179l59 170l395 1022h193l-580 -1423h-217l-98 877
q-2 31 -19 292q-80 -223 -108 -284l-422 -885h-219l-64 1270h-112zM1812 1573h-131l-206 434h186z" />
    <glyph glyph-name="X.swsh" horiz-adv-x="1595" 
d="M590 1268q-140 0 -228 -87t-88 -223t86 -204q86 -70 252 -52l-22 -139q-238 -15 -357 95t-118 284q0 213 130 347t343 134t358 -147t217 -414q188 281 406 561h207q-256 -319 -516 -690l260 -733h-207l-205 625l-451 -625h-213l574 768q-115 500 -428 500z" />
    <glyph glyph-name="Y.swsh" horiz-adv-x="1652" 
d="M606 1257q-135 0 -224 -88t-89 -221t83 -202.5t255 -47.5l-21 -147q-242 -23 -363.5 90t-121.5 291q0 215 138 353t366.5 138t357.5 -185t152 -519q88 182 216 373.5t251 330.5h204q-158 -180 -325.5 -420.5t-294.5 -472.5l-84 -530h-186l81 510q-2 338 -101 542.5
t-294 204.5z" />
    <glyph glyph-name="Yacute.swsh" horiz-adv-x="1652" 
d="M606 1257q-135 0 -224 -88t-89 -221t83 -202.5t255 -47.5l-21 -147q-242 -23 -363.5 90t-121.5 291q0 215 138 353t366.5 138t357.5 -185t152 -519q88 182 216 373.5t251 330.5h204q-158 -180 -325.5 -420.5t-294.5 -472.5l-84 -530h-186l81 510q-2 338 -101 542.5
t-294 204.5zM1696 1995l-389 -422h-146l336 422h199z" />
    <glyph glyph-name="Ycircumflex.swsh" horiz-adv-x="1652" 
d="M606 1257q-135 0 -224 -88t-89 -221t83 -202.5t255 -47.5l-21 -147q-242 -23 -363.5 90t-121.5 291q0 215 138 353t366.5 138t357.5 -185t152 -519q88 182 216 373.5t251 330.5h204q-158 -180 -325.5 -420.5t-294.5 -472.5l-84 -530h-186l81 510q-2 338 -101 542.5
t-294 204.5zM1311 1880l-254 -317h-131l327 444h158l178 -444h-131z" />
    <glyph glyph-name="Ydieresis.swsh" horiz-adv-x="1652" 
d="M606 1257q-135 0 -224 -88t-89 -221t83 -202.5t255 -47.5l-21 -147q-242 -23 -363.5 90t-121.5 291q0 215 138 353t366.5 138t357.5 -185t152 -519q88 182 216 373.5t251 330.5h204q-158 -180 -325.5 -420.5t-294.5 -472.5l-84 -530h-186l81 510q-2 338 -101 542.5
t-294 204.5zM1446 1620q-49 0 -77 34t-18.5 82t48.5 81.5t87 33.5t75.5 -33.5t19.5 -81.5t-47 -82t-88 -34zM1056 1620q-48 0 -76 34t-18.5 82t47.5 81.5t86 33.5t75.5 -33.5t19.5 -81.5t-47 -82t-87 -34z" />
    <glyph glyph-name="Ygrave.swsh" horiz-adv-x="1652" 
d="M606 1257q-135 0 -224 -88t-89 -221t83 -202.5t255 -47.5l-21 -147q-242 -23 -363.5 90t-121.5 291q0 215 138 353t366.5 138t357.5 -185t152 -519q88 182 216 373.5t251 330.5h204q-158 -180 -325.5 -420.5t-294.5 -472.5l-84 -530h-186l81 510q-2 338 -101 542.5
t-294 204.5zM1305 1573h-131l-207 434h186z" />
    <glyph glyph-name="Z.swsh" horiz-adv-x="1196" 
d="M244 180q88 0 233.5 -72.5t252 -72.5t173 82t66.5 196q0 184 -191 273l117 133q102 -47 178 -143.5t76 -245.5q0 -207 -115.5 -341t-298.5 -134q-104 0 -212.5 39.5t-197.5 78.5t-145 39q-100 0 -188 -57l-29 158l948 1142h-737l27 168h977l-25 -157l-911 -1086h2z" />
    <glyph glyph-name="Zacute.swsh" horiz-adv-x="1196" 
d="M244 180q88 0 233.5 -72.5t252 -72.5t173 82t66.5 196q0 184 -191 273l117 133q102 -47 178 -143.5t76 -245.5q0 -207 -115.5 -341t-298.5 -134q-104 0 -212.5 39.5t-197.5 78.5t-145 39q-100 0 -188 -57l-29 158l948 1142h-737l27 168h977l-25 -157l-911 -1086h2z
M1141 1995l-389 -422h-146l336 422h199z" />
    <glyph glyph-name="Zcaron.swsh" horiz-adv-x="1196" 
d="M244 180q88 0 233.5 -72.5t252 -72.5t173 82t66.5 196q0 184 -191 273l117 133q102 -47 178 -143.5t76 -245.5q0 -207 -115.5 -341t-298.5 -134q-104 0 -212.5 39.5t-197.5 78.5t-145 39q-100 0 -188 -57l-29 158l948 1142h-737l27 168h977l-25 -157l-911 -1086h2z
M770 1579h-160l-176 444h131l148 -317l254 317h131z" />
    <glyph glyph-name="Zdotaccent.swsh" horiz-adv-x="1196" 
d="M244 180q88 0 233.5 -72.5t252 -72.5t173 82t66.5 196q0 184 -191 273l117 133q102 -47 178 -143.5t76 -245.5q0 -207 -115.5 -341t-298.5 -134q-104 0 -212.5 39.5t-197.5 78.5t-145 39q-100 0 -188 -57l-29 158l948 1142h-737l27 168h977l-25 -157l-911 -1086h2z
M699 1620q-50 0 -78.5 35t-18.5 84q8 49 47 84t90.5 35t80 -35t19.5 -84t-49.5 -84t-90.5 -35z" />
    <glyph glyph-name="i.loclTRK" horiz-adv-x="477" 
d="M408 975l-162 -975h-178l161 975h179zM398 1415q52 0 82 -37t22 -88t-49 -88t-94.5 -37t-83 36t-20.5 88t50 89t93 37z" />
    <glyph glyph-name="f.ss01" horiz-adv-x="622" 
d="M643 1556q135 0 244 -67l-68 -133q-73 47 -147 47t-114 -41t-54 -133l-43 -254h196l-24 -152h-197l-160 -966q-39 -203 -143 -295t-315 -86l-25 149q254 -20 305 236l160 962h-143l24 152h144l45 270q53 311 315 311z" />
    <glyph glyph-name="w.ss01" horiz-adv-x="1366" 
d="M1323 971l178 -2l-467 -971h-182l-111 463l-282 -459h-172l-111 977h178l68 -797l276 465l-77 328h174l26 -121l70 119h168l-195 -316l105 -487z" />
    <glyph glyph-name="a.sc" horiz-adv-x="1062" 
d="M342 395h340l-90 484zM754 0l-47 252h-439l-131 -252h-184l563 1055h211l217 -1055h-190z" />
    <glyph glyph-name="aacute.sc" horiz-adv-x="1062" 
d="M342 395h340l-90 484zM516 1055h211l217 -1055h-190l-47 252h-439l-131 -252h-184zM991 1640l-323 -432h-125l262 432h186z" />
    <glyph glyph-name="abreve.sc" horiz-adv-x="1062" 
d="M342 395h340l-90 484zM516 1055h211l217 -1055h-190l-47 252h-439l-131 -252h-184zM650 1247q-173 0 -245.5 102.5t-27.5 301.5h141q-61 -283 150 -283t247 283h142q-23 -199 -128.5 -301.5t-278.5 -102.5z" />
    <glyph glyph-name="uni01CE.sc" horiz-adv-x="1062" 
d="M342 395h340l-90 484zM516 1055h211l217 -1055h-190l-47 252h-439l-131 -252h-184zM715 1208h-158l-178 445h131l149 -318l252 318h131z" />
    <glyph glyph-name="acircumflex.sc" horiz-adv-x="1062" 
d="M342 395h340l-90 484zM516 1055h211l217 -1055h-190l-47 252h-439l-131 -252h-184zM698 1526l-254 -318h-131l326 445h158l182 -445h-131z" />
    <glyph glyph-name="adieresis.sc" horiz-adv-x="1062" 
d="M342 395h340l-90 484zM516 1055h211l217 -1055h-190l-47 252h-439l-131 -252h-184zM919.5 1565q47.5 0 75 -33t19.5 -80t-46 -80t-85 -33t-75 33t-19.5 80t46 80t85 33zM450.5 1339q-47.5 0 -74 33t-18 80t46 80t85 33t74 -33t18 -80t-46 -80t-85 -33z" />
    <glyph glyph-name="agrave.sc" horiz-adv-x="1062" 
d="M342 395h340l-90 484zM754 0l-47 252h-439l-131 -252h-184l563 1055h211l217 -1055h-190zM709 1208h-125l-178 432h186z" />
    <glyph glyph-name="amacron.sc" horiz-adv-x="1062" 
d="M342 395h340l-90 484zM516 1055h211l217 -1055h-190l-47 252h-439l-131 -252h-184zM338 1518h696l-24 -150h-697z" />
    <glyph glyph-name="aogonek.sc" horiz-adv-x="1062" 
d="M342 395h340l-90 484zM688 -444q84 0 180 51l11 -125q-127 -64 -241 -64t-163 51.5t-43 135.5q12 231 354 395h-32l-47 252h-439l-131 -252h-184l563 1055h211l217 -1055q-342 -174 -348 -350q-4 -94 92 -94z" />
    <glyph glyph-name="aring.sc" horiz-adv-x="1062" 
d="M342 395h340l-90 484zM516 1055h211l217 -1055h-190l-47 252h-439l-131 -252h-184zM578 1482q0 -122 120 -122q58 0 111 49t53 125q0 115 -124 115q-62 0 -111 -51.5t-49 -115.5zM674 1262q-94 0 -149.5 53t-55.5 139q0 127 84 209t195.5 82t168 -55.5t56.5 -141.5
q0 -121 -84 -203.5t-215 -82.5z" />
    <glyph glyph-name="atilde.sc" horiz-adv-x="1062" 
d="M342 395h340l-90 484zM516 1055h211l217 -1055h-190l-47 252h-439l-131 -252h-184zM518 1481q-82 0 -121 -254h-133q49 399 246 399q63 0 112.5 -60t64.5 -87t19.5 -32t12.5 -17.5t13 -17.5q6 -5 14 -14q30 -32 57 -32q90 0 129 256h135q-55 -401 -252 -401
q-69 -1 -131 73q-22 26 -50 69l-34 51q-45 67 -82 67z" />
    <glyph glyph-name="ae.sc" horiz-adv-x="1609" 
d="M436 403h352l68 494h-63zM1595 897h-555l-39 -283h429l-21 -131h-426l-43 -323h535l-23 -160h-719l35 252h-440l-183 -252h-192l743 1055h920z" />
    <glyph glyph-name="b.sc" horiz-adv-x="1114" 
d="M561 160q121 0 197 50t76 142q-2 133 -177 133h-313l-53 -325h270zM674 897h-262l-50 -297h277q80 0 141.5 50t59.5 128q0 119 -166 119zM522 0h-440l174 1055h463q307 0 307 -217q2 -100 -58.5 -174t-164.5 -109q209 -33 211 -215q2 -168 -133.5 -254t-358.5 -86z" />
    <glyph glyph-name="c.sc" horiz-adv-x="1103" 
d="M524 -25q-176 0 -306 102q-144 113 -144 389q0 150 74.5 292.5t224 231.5t368 88t369.5 -113l-100 -150q-121 94 -307.5 94t-308.5 -128t-122 -306t82 -255t207 -77q219 0 371 121l45 -166q-170 -123 -453 -123z" />
    <glyph glyph-name="cacute.sc" horiz-adv-x="1103" 
d="M524 -25q-176 0 -306 102q-144 113 -144 389q0 150 74.5 292.5t224 231.5t368 88t369.5 -113l-100 -150q-121 94 -307.5 94t-308.5 -128t-122 -306t82 -255t207 -77q219 0 371 121l45 -166q-170 -123 -453 -123zM1100 1640l-324 -432h-125l262 432h187z" />
    <glyph glyph-name="ccaron.sc" horiz-adv-x="1103" 
d="M74 466q0 150 74.5 292.5t224 231.5t368 88t369.5 -113l-100 -150q-121 94 -307.5 94t-308.5 -128t-122 -306t82 -255t207 -77q219 0 371 121l45 -166q-170 -123 -453 -123q-175 0 -313 107q-137 107 -137 384zM823 1208h-157l-179 445h131l150 -318l252 318h131z" />
    <glyph glyph-name="ccedilla.sc" horiz-adv-x="1103" 
d="M629 -338q-1 80 -103 80q-58 0 -110 -47l-90 35l139 247q-168 16 -279.5 130t-111.5 337q0 172 74.5 314.5t224 231.5t368 88t369.5 -113l-100 -150q-121 94 -307.5 94t-308.5 -128t-122 -306t82 -255t207 -77q219 0 371 121l45 -166q-147 -109 -393 -121l-103 -165
q55 23 113 22q170 0 170 -168q0 -123 -90 -192.5t-223 -69.5t-238 61l55 101q90 -51 174.5 -51t135.5 41t51 106z" />
    <glyph glyph-name="cdotaccent.sc" horiz-adv-x="1103" 
d="M524 -25q-176 0 -306 102q-144 113 -144 389q0 150 74.5 292.5t224 231.5t368 88t369.5 -113l-100 -150q-121 94 -307.5 94t-308.5 -128t-122 -306t82 -255t207 -77q219 0 371 121l45 -166q-170 -123 -453 -123zM806 1495q52 0 82 -37t21.5 -88t-49.5 -88t-94 -37
t-82.5 36t-20.5 88t50 89t93 37z" />
    <glyph glyph-name="d.sc" horiz-adv-x="1212" 
d="M469 164q189 0 331 97q74 50 117.5 140.5t43.5 208.5q0 285 -336 285h-211l-121 -731h176zM676 1055q479 0 479 -426q1 -158 -57 -281q-58 -124 -157 -198q-200 -150 -490 -150h-367l172 1055h420z" />
    <glyph glyph-name="eth.sc" horiz-adv-x="1212" 
d="M469 164q189 0 331 97q74 50 117.5 140.5t43.5 208.5q0 285 -336 285h-211l-45 -277h309l-21 -137h-311l-53 -317h176zM676 1055q479 0 479 -426q1 -158 -57 -281q-58 -124 -157 -198q-200 -150 -490 -150h-367l78 481h-80l20 137h82l72 437h420z" />
    <glyph glyph-name="dcaron.sc" horiz-adv-x="1212" 
d="M469 164q189 0 331 97q74 50 117.5 140.5t43.5 208.5q0 285 -336 285h-211l-121 -731h176zM676 1055q479 0 479 -426q1 -158 -57 -281q-58 -124 -157 -198q-200 -150 -490 -150h-367l172 1055h420zM799 1208h-158l-178 445h131l149 -318l252 318h131z" />
    <glyph glyph-name="dcroat.sc" horiz-adv-x="1212" 
d="M469 164q189 0 331 97q74 50 117.5 140.5t43.5 208.5q0 285 -336 285h-211l-45 -277h309l-21 -137h-311l-53 -317h176zM676 1055q479 0 479 -426q1 -158 -57 -281q-58 -124 -157 -198q-200 -150 -490 -150h-367l78 481h-80l20 137h82l72 437h420z" />
    <glyph glyph-name="e.sc" horiz-adv-x="1001" 
d="M1004 891h-588l-47 -281h456l-18 -127h-459l-53 -319h579l-24 -164h-766l172 1055h768z" />
    <glyph glyph-name="eacute.sc" horiz-adv-x="1001" 
d="M1004 891h-588l-47 -281h456l-18 -127h-459l-53 -319h579l-24 -164h-766l172 1055h768zM1004 1640l-324 -432h-125l262 432h187z" />
    <glyph glyph-name="ecaron.sc" horiz-adv-x="1001" 
d="M84 0l172 1055h768l-20 -164h-588l-47 -281h456l-18 -127h-459l-53 -319h579l-24 -164h-766zM727 1208h-158l-178 445h131l150 -318l252 318h131z" />
    <glyph glyph-name="ecircumflex.sc" horiz-adv-x="1001" 
d="M1004 891h-588l-47 -281h456l-18 -127h-459l-53 -319h579l-24 -164h-766l172 1055h768zM711 1526l-254 -318h-131l325 445h158l182 -445h-131z" />
    <glyph glyph-name="edieresis.sc" horiz-adv-x="1001" 
d="M84 0l172 1055h768l-20 -164h-588l-47 -281h456l-18 -127h-459l-53 -319h579l-24 -164h-766zM932 1565q47 0 74.5 -33t19.5 -80t-46 -80t-85 -33t-74.5 33t-19.5 80t46 80t85 33zM463 1339q-47 0 -74 33t-18.5 80t46.5 80t85 33t73.5 -33t18.5 -80t-46 -80t-85 -33z" />
    <glyph glyph-name="edotaccent.sc" horiz-adv-x="1001" 
d="M1004 891h-588l-47 -281h456l-18 -127h-459l-53 -319h579l-24 -164h-766l172 1055h768zM669.5 1245q-53.5 0 -83 36t-20.5 88t50 89q42 37 94 37t81.5 -37t21.5 -88t-49 -88t-94.5 -37z" />
    <glyph glyph-name="egrave.sc" horiz-adv-x="1001" 
d="M1004 891h-588l-47 -281h456l-18 -127h-459l-53 -319h579l-24 -164h-766l172 1055h768zM721 1208h-125l-178 432h186z" />
    <glyph glyph-name="emacron.sc" horiz-adv-x="1001" 
d="M84 0l172 1055h768l-20 -164h-588l-47 -281h456l-18 -127h-459l-53 -319h579l-24 -164h-766zM1047 1518l-25 -150h-696l24 150h697z" />
    <glyph glyph-name="eogonek.sc" horiz-adv-x="1001" 
d="M594 -444q84 0 180 51l10 -125q-127 -63 -241.5 -63.5t-162.5 51t-42 135.5q12 231 354 395h-608l172 1055h768l-20 -164h-588l-47 -281h456l-18 -127h-459l-53 -319h579l-24 -164q-342 -174 -348 -350q-4 -94 92 -94z" />
    <glyph glyph-name="f.sc" horiz-adv-x="931" 
d="M979 889h-567l-52 -305h439l-19 -152h-444l-72 -432h-182l174 1055h745z" />
    <glyph glyph-name="g.sc" horiz-adv-x="1193" 
d="M750 1081q250 0 405 -129l-121 -141q-127 98 -321.5 98t-321.5 -132t-123 -328q2 -154 97.5 -229t239.5 -75t261 39l43 267h-303l19 145h487l-88 -557q-197 -63 -420 -63q-224 0 -370 97q-74 50 -117 142t-43 219q-4 281 182 464t494 183z" />
    <glyph glyph-name="gbreve.sc" horiz-adv-x="1193" 
d="M750 1081q250 0 405 -129l-121 -141q-127 98 -321.5 98t-321.5 -132t-123 -328q2 -154 97.5 -229t239.5 -75t261 39l43 267h-303l19 145h487l-88 -557q-197 -63 -420 -63q-224 0 -370 97q-74 50 -117 142t-43 219q-4 281 182 464t494 183zM742 1247q-173 0 -245.5 102.5
t-27.5 301.5h141q-61 -283 150 -283t248 283h141q-23 -199 -128.5 -301.5t-278.5 -102.5z" />
    <glyph glyph-name="gcommaaccent.sc" horiz-adv-x="1193" 
d="M554.5 -104q62.5 0 95 -54.5t16.5 -146.5q-43 -242 -289 -344l-47 94q84 35 134 81t77 120q-20 -6 -57 -6t-66 33.5t-19 92t51.5 94.5t104 36zM750 1081q250 0 405 -129l-121 -141q-127 98 -321.5 98t-321.5 -132t-123 -328q2 -154 97.5 -229t239.5 -75t261 39l43 267
h-303l19 145h487l-88 -557q-197 -63 -420 -63q-224 0 -370 97q-74 50 -117 142t-43 219q-4 281 182 464t494 183z" />
    <glyph glyph-name="gdotaccent.sc" horiz-adv-x="1193" 
d="M750 1081q250 0 405 -129l-121 -141q-127 98 -321.5 98t-321.5 -132t-123 -328q2 -154 97.5 -229t239.5 -75t261 39l43 267h-303l19 145h487l-88 -557q-197 -63 -420 -63q-224 0 -370 97q-74 50 -117 142t-43 219q-4 281 182 464t494 183zM749.5 1245q-53.5 0 -83 36
t-20.5 88t50 89t93.5 37t82 -37t21.5 -88t-49 -88t-94.5 -37z" />
    <glyph glyph-name="h.sc" horiz-adv-x="1220" 
d="M989 1055h182l-172 -1055h-184l78 467h-549l-78 -467h-182l172 1055h184l-69 -424h549z" />
    <glyph glyph-name="hbar.sc" horiz-adv-x="1220" 
d="M905 545l33 196h-549l-33 -196h549zM1231 883l-25 -142h-86l-121 -741h-184l66 387h-551l-64 -387h-182l123 741h-84l22 142h84l29 172h182l-28 -172h551l28 172h180l-28 -172h88z" />
    <glyph glyph-name="i.sc" horiz-adv-x="487" 
d="M440 1055l-174 -1055h-182l172 1055h184z" />
    <glyph glyph-name="iacute.sc" horiz-adv-x="487" 
d="M440 1055l-174 -1055h-182l172 1055h184zM723 1640l-324 -432h-125l263 432h186z" />
    <glyph glyph-name="uni01D0.sc" horiz-adv-x="487" 
d="M84 0l172 1055h184l-174 -1055h-182zM643 1653h131l-328 -445h-157l-178 445h131l149 -318z" />
    <glyph glyph-name="icircumflex.sc" horiz-adv-x="487" 
d="M84 0l172 1055h184l-174 -1055h-182zM528 1653l183 -445h-131l-150 318l-254 -318h-131l326 445h157z" />
    <glyph glyph-name="idieresis.sc" horiz-adv-x="487" 
d="M440 1055l-174 -1055h-182l172 1055h184zM651 1565q47 0 75 -33t19.5 -80t-46 -80t-85 -33t-75 33t-19.5 80t46 80t85 33zM221 1565q47 0 74 -33t18.5 -80t-46.5 -80t-85 -33t-73.5 33t-18.5 80t46 80t85 33z" />
    <glyph glyph-name="i.sc.loclTRK" horiz-adv-x="487" 
d="M440 1055l-174 -1055h-182l172 1055h184zM429 1495q52 0 82 -37t21.5 -88t-49.5 -88t-94 -37t-82.5 36t-20.5 88t50 89t93 37z" />
    <glyph glyph-name="igrave.sc" horiz-adv-x="487" 
d="M440 1055l-174 -1055h-182l172 1055h184zM440 1208h-125l-178 432h187z" />
    <glyph glyph-name="imacron.sc" horiz-adv-x="487" 
d="M440 1055l-174 -1055h-182l172 1055h184zM70 1518h696l-25 -150h-696z" />
    <glyph glyph-name="iogonek.sc" horiz-adv-x="487" 
d="M10 -444q84 0 180 51l11 -125q-127 -63 -241.5 -63.5t-163 51t-42.5 135.5q12 231 355 395h-25l172 1055h184l-174 -1055q-342 -174 -348 -350q-4 -94 92 -94z" />
    <glyph glyph-name="j.sc" horiz-adv-x="794" 
d="M246 -25q-162 0 -283 86l64 164q88 -84 206 -84q193 0 234 228l119 686h180l-117 -713q-35 -201 -138 -284t-265 -83z" />
    <glyph glyph-name="k.sc" horiz-adv-x="1073" 
d="M1120 1055l-432 -396l256 -659h-213l-199 516l-213 -197l-53 -319h-182l172 1055h184l-82 -500l547 500h215z" />
    <glyph glyph-name="kcommaaccent.sc" horiz-adv-x="1073" 
d="M468.5 -104q62.5 0 95 -54.5t16.5 -146.5q-43 -242 -289 -344l-47 94q84 35 134 81t77 120q-20 -6 -57 -6t-66 33.5t-19 92t51.5 94.5t104 36zM1120 1055l-432 -396l256 -659h-213l-199 516l-213 -197l-53 -319h-182l172 1055h184l-82 -500l547 500h215z" />
    <glyph glyph-name="l.sc" horiz-adv-x="845" 
d="M291 162h485l-24 -162h-672l176 1055h184z" />
    <glyph glyph-name="lacute.sc" horiz-adv-x="845" 
d="M291 162h485l-24 -162h-672l176 1055h184zM725 1640l-324 -432h-125l263 432h186z" />
    <glyph glyph-name="lcaron.sc" horiz-adv-x="845" 
d="M440 1055l-149 -893h485l-24 -162h-672l176 1055h184zM449 1208h-158l-178 445h131l149 -318l252 318h131z" />
    <glyph glyph-name="lcommaaccent.sc" horiz-adv-x="845" 
d="M429.5 -104q62.5 0 95 -54.5t16.5 -146.5q-43 -242 -289 -344l-47 94q84 35 134 81t77 120q-23 -6 -58.5 -6t-64.5 33.5t-19 92t51.5 94.5t104 36zM291 162h485l-24 -162h-672l176 1055h184z" />
    <glyph glyph-name="lslash.sc" horiz-adv-x="845" 
d="M291 162h485l-24 -162h-672l76 453l-219 -84l-48 141l295 115l72 430h184l-59 -353l291 113l53 -141l-373 -144z" />
    <glyph glyph-name="m.sc" horiz-adv-x="1437" 
d="M1163 1055h217l-163 -1055h-179l107 645q25 135 31 158q-57 -102 -89 -150l-370 -587h-119l-190 616q-10 33 -31 123q-6 -72 -17 -137l-108 -668h-168l172 1055h205l231 -760z" />
    <glyph glyph-name="n.sc" horiz-adv-x="1191" 
d="M979 1055h166l-176 -1055h-174l-416 766l-127 -766h-168l172 1055h172l422 -779z" />
    <glyph glyph-name="nacute.sc" horiz-adv-x="1191" 
d="M979 1055h166l-176 -1055h-174l-416 766l-127 -766h-168l172 1055h172l422 -779zM1075 1640l-323 -432h-125l262 432h186z" />
    <glyph glyph-name="ncaron.sc" horiz-adv-x="1191" 
d="M979 1055h166l-176 -1055h-174l-416 766l-127 -766h-168l172 1055h172l422 -779zM799 1208h-158l-178 445h131l149 -318l252 318h131z" />
    <glyph glyph-name="ncommaaccent.sc" horiz-adv-x="1191" 
d="M517.5 -104q62.5 0 95 -54.5t16.5 -146.5q-43 -242 -289 -344l-47 94q84 35 134 81t77 120q-20 -6 -57 -6t-66 33.5t-19 92t51.5 94.5t104 36zM979 1055h166l-176 -1055h-174l-416 766l-127 -766h-168l172 1055h172l422 -779z" />
    <glyph glyph-name="eng.sc" horiz-adv-x="1185" 
d="M602 -336q-154 0 -270 80l61 141q76 -72 195 -71q166 0 213 176l-422 776l-127 -766h-168l172 1055h172l422 -779l129 779h166l-174 -1035q-61 -356 -369 -356z" />
    <glyph glyph-name="ntilde.sc" horiz-adv-x="1191" 
d="M850 276l129 779h166l-176 -1055h-174l-416 766l-127 -766h-168l172 1055h172zM602 1481q-82 0 -121 -254h-133q49 399 246 399q63 0 112.5 -60t64.5 -87t19.5 -32t12.5 -17.5t13 -17.5q6 -5 14 -14q30 -32 57 -32q90 0 129 256h135q-55 -401 -252 -401q-89 0 -181 142
q-38 59 -62.5 88.5t-53.5 29.5z" />
    <glyph glyph-name="o.sc" horiz-adv-x="1290" 
d="M571 137q207 0 338 140.5t127 324.5q-2 154 -92 232.5t-223 78.5q-195 0 -326 -134t-127 -318q0 -164 85 -244t218 -80zM543 -31q-185 0 -321 107q-68 53 -108 145t-42 213q-2 272 187.5 461.5t483.5 189.5q197 -2 341.5 -116.5t146.5 -350.5q4 -268 -185.5 -458.5
t-502.5 -190.5z" />
    <glyph glyph-name="oacute.sc" horiz-adv-x="1290" 
d="M571 137q207 0 338 140.5t127 324.5q-2 154 -92 232.5t-223 78.5q-195 0 -326 -134t-127 -318q0 -164 85 -244t218 -80zM543 -31q-185 0 -321 107q-68 53 -108 145t-42 213q-2 272 187.5 461.5t483.5 189.5q197 -2 341.5 -116.5t146.5 -350.5q4 -268 -185.5 -458.5
t-502.5 -190.5zM1118 1640l-323 -432h-125l262 432h186z" />
    <glyph glyph-name="uni01D2.sc" horiz-adv-x="1290" 
d="M571 137q207 0 338 140.5t127 324.5q-2 154 -92 232.5t-223 78.5q-195 0 -326 -134t-127 -318q0 -164 85 -244t218 -80zM543 -31q-185 0 -321 107q-68 53 -108 145t-42 213q-2 272 187.5 461.5t483.5 189.5q197 -2 341.5 -116.5t146.5 -350.5q4 -268 -185.5 -458.5
t-502.5 -190.5zM842 1208h-158l-178 445h131l149 -318l252 318h131z" />
    <glyph glyph-name="ocircumflex.sc" horiz-adv-x="1290" 
d="M571 137q207 0 338 140.5t127 324.5q-2 154 -92 232.5t-223 78.5q-195 0 -326 -134t-127 -318q0 -164 85 -244t218 -80zM543 -31q-185 0 -321 107q-68 53 -108 145t-42 213q-2 272 187.5 461.5t483.5 189.5q197 -2 341.5 -116.5t146.5 -350.5q4 -268 -185.5 -458.5
t-502.5 -190.5zM825 1526l-254 -318h-131l326 445h158l182 -445h-131z" />
    <glyph glyph-name="odieresis.sc" horiz-adv-x="1290" 
d="M571 137q207 0 338 140.5t127 324.5q-2 154 -92 232.5t-223 78.5q-195 0 -326 -134t-127 -318q0 -164 85 -244t218 -80zM543 -31q-185 0 -321 107q-68 53 -108 145t-42 213q-2 272 187.5 461.5t483.5 189.5q197 -2 341.5 -116.5t146.5 -350.5q4 -268 -185.5 -458.5
t-502.5 -190.5zM1046.5 1565q47.5 0 75 -33t19.5 -80t-46 -80t-85 -33t-75 33t-19.5 80t46 80t85 33zM616.5 1565q47.5 0 74 -33t18 -80t-46 -80t-85 -33t-74 33t-18 80t46 80t85 33z" />
    <glyph glyph-name="ograve.sc" horiz-adv-x="1290" 
d="M571 137q207 0 338 140.5t127 324.5q-2 154 -92 232.5t-223 78.5q-195 0 -326 -134t-127 -318q0 -164 85 -244t218 -80zM543 -31q-185 0 -321 107q-68 53 -108 145t-42 213q-2 272 187.5 461.5t483.5 189.5q197 -2 341.5 -116.5t146.5 -350.5q4 -268 -185.5 -458.5
t-502.5 -190.5zM836 1208h-125l-179 432h187z" />
    <glyph glyph-name="ohungarumlaut.sc" horiz-adv-x="1290" 
d="M571 137q207 0 338 140.5t127 324.5q-2 154 -92 232.5t-223 78.5q-195 0 -326 -134t-127 -318q0 -164 85 -244t218 -80zM543 -31q-185 0 -321 107q-68 53 -108 145t-42 213q-2 272 187.5 461.5t483.5 189.5q197 -2 341.5 -116.5t146.5 -350.5q4 -268 -185.5 -458.5
t-502.5 -190.5zM1329 1640l-401 -432h-127l342 432h186zM958 1640l-276 -432h-115l211 432h180z" />
    <glyph glyph-name="omacron.sc" horiz-adv-x="1290" 
d="M571 137q207 0 338 140.5t127 324.5q-2 154 -92 232.5t-223 78.5q-195 0 -326 -134t-127 -318q0 -164 85 -244t218 -80zM543 -31q-185 0 -321 107q-68 53 -108 145t-42 213q-2 272 187.5 461.5t483.5 189.5q197 -2 341.5 -116.5t146.5 -350.5q4 -268 -185.5 -458.5
t-502.5 -190.5zM465 1518h696l-24 -150h-697z" />
    <glyph glyph-name="otilde.sc" horiz-adv-x="1290" 
d="M571 137q207 0 338 140.5t127 324.5q-2 154 -92 232.5t-223 78.5q-195 0 -326 -134t-127 -318q0 -164 85 -244t218 -80zM543 -31q-185 0 -321 107q-68 53 -108 145t-42 213q-2 272 187.5 461.5t483.5 189.5q197 -2 341.5 -116.5t146.5 -350.5q4 -268 -185.5 -458.5
t-502.5 -190.5zM637 1626q63 0 112.5 -60t64.5 -87t19.5 -32t12.5 -17.5t13 -17.5t13 -14q30 -32 58 -32q90 0 129 256h135q-55 -401 -252 -401q-90 0 -182 142q-38 59 -62 88.5t-53 29.5q-82 0 -121 -254h-133q49 399 246 399z" />
    <glyph glyph-name="oe.sc" horiz-adv-x="1789" 
d="M580 143q190 0 327 107l92 555q-99 104 -285 104t-318 -132t-129 -304t89.5 -251t223.5 -79zM1784 897h-586l-45 -281h463l-21 -133h-465l-53 -321h580l-23 -162h-768l6 39q-142 -63 -336 -63t-327 114.5t-135 349.5q-2 272 183 456.5t472 184.5q184 -4 303 -80l8 54h766
z" />
    <glyph glyph-name="p.sc" horiz-adv-x="1052" 
d="M592 514q135 0 204.5 62.5t69.5 149.5q0 165 -192 165h-262l-64 -377h244zM713 1055q168 0 258 -76t90 -223q0 -184 -127 -293t-359 -109h-253l-60 -354h-182l176 1055h457z" />
    <glyph glyph-name="thorn.sc" horiz-adv-x="1042" 
d="M535 375q139 0 209.5 60.5t70.5 148.5q0 141 -192 141h-238l-59 -350h209zM659 887q348 0 349 -283q0 -172 -125 -279.5t-365 -107.5h-219l-37 -217h-182l176 1055h184l-28 -168h247z" />
    <glyph glyph-name="q.sc" horiz-adv-x="1294" 
d="M1067 -287l-625 6l19 146l626 -6zM571 137q207 0 338 140.5t127 324.5q-2 154 -92 232.5t-223 78.5q-195 0 -326 -134t-127 -318q0 -164 85 -244t218 -80zM543 -31q-185 0 -321 107q-68 53 -108 145t-42 213q-2 272 187.5 461.5t483.5 189.5q197 -2 341.5 -116.5
t146.5 -350.5q4 -268 -185.5 -458.5t-502.5 -190.5z" />
    <glyph glyph-name="r.sc" horiz-adv-x="1112" 
d="M608 569q121 0 190.5 54.5t69.5 142.5q0 131 -172 131h-282l-54 -328h248zM735 1055q324 0 328 -265q2 -134 -84 -225.5t-234 -124.5l224 -440h-217l-197 424h-219l-72 -424h-182l174 1055h479z" />
    <glyph glyph-name="racute.sc" horiz-adv-x="1112" 
d="M608 569q121 0 190.5 54.5t69.5 142.5q0 131 -172 131h-282l-54 -328h248zM735 1055q324 0 328 -265q2 -134 -84 -225.5t-234 -124.5l224 -440h-217l-197 424h-219l-72 -424h-182l174 1055h479zM1051 1640l-324 -432h-125l262 432h187z" />
    <glyph glyph-name="rcaron.sc" horiz-adv-x="1112" 
d="M608 569q121 0 190.5 54.5t69.5 142.5q0 131 -172 131h-282l-54 -328h248zM735 1055q324 0 328 -265q2 -134 -84 -225.5t-234 -124.5l224 -440h-217l-197 424h-219l-72 -424h-182l174 1055h479zM774 1208h-158l-178 445h131l150 -318l252 318h131z" />
    <glyph glyph-name="rcommaaccent.sc" horiz-adv-x="1112" 
d="M490.5 -104q62.5 0 95 -54.5t16.5 -146.5q-43 -242 -289 -344l-47 94q84 35 134.5 81t76.5 120q-23 -6 -58.5 -6t-64 33.5t-18.5 92t51 94.5t103.5 36zM608 569q121 0 190.5 54.5t69.5 142.5q0 131 -172 131h-282l-54 -328h248zM735 1055q324 0 328 -265
q2 -134 -84 -225.5t-234 -124.5l224 -440h-217l-197 424h-219l-72 -424h-182l174 1055h479z" />
    <glyph glyph-name="s.sc" horiz-adv-x="921" 
d="M383 -25q-209 0 -371 121l64 160q125 -125 332 -125q100 0 164.5 47t63.5 118t-47 103.5t-168 72.5t-196.5 111.5t-77 199.5t103 213t303.5 85t361 -88l-92 -151q-123 82 -276 82q-94 0 -152.5 -38t-57.5 -105t43 -101.5t124 -62.5t123 -46t93 -53q105 -71 106 -221
t-116.5 -236t-326.5 -86z" />
    <glyph glyph-name="sacute.sc" horiz-adv-x="921" 
d="M383 -25q-209 0 -371 121l64 160q125 -125 332 -125q100 0 164.5 47t63.5 118t-47 103.5t-168 72.5t-196.5 111.5t-77 199.5t103 213t303.5 85t361 -88l-92 -151q-123 82 -276 82q-94 0 -152.5 -38t-57.5 -105t43 -101.5t124 -62.5t123 -46t93 -53q105 -71 106 -221
t-116.5 -236t-326.5 -86zM946 1640l-323 -432h-125l262 432h186z" />
    <glyph glyph-name="scaron.sc" horiz-adv-x="921" 
d="M547 924q-94 0 -152.5 -38t-57.5 -105t43 -101.5t124 -62.5t123 -46t93 -53q105 -71 106 -221t-116.5 -236t-326.5 -86t-371 121l64 160q125 -125 332 -125q100 0 164.5 47t63.5 118t-47 103.5t-168 72.5t-196.5 111.5t-77 199.5t103 213t303.5 85t361 -88l-92 -151
q-122 82 -276 82zM670 1208h-158l-178 445h131l149 -318l252 318h131z" />
    <glyph glyph-name="scedilla.sc" horiz-adv-x="921" 
d="M524 -338q0 80 -102 80q-58 0 -111 -47l-90 35l137 247q-199 8 -346 119l64 160q125 -125 332 -125q100 0 164.5 47t63.5 118t-47 103.5t-168 72.5t-196.5 111.5t-77 199.5t103 213t303.5 85t361 -88l-92 -151q-123 82 -276 82q-94 0 -152.5 -38t-57.5 -105t43 -101.5
t124 -62.5t123 -46t93 -53q105 -71 106 -212.5t-93 -224.5t-252 -101l-104 -168q57 23 112 22q170 0 170 -168q0 -123 -90 -192.5t-223 -69.5t-237 61l55 101q90 -51 174 -51t135 41t51 106z" />
    <glyph glyph-name="scommaaccent.sc" horiz-adv-x="921" 
d="M406.5 -104q62.5 0 95.5 -54.5t16 -146.5q-43 -242 -289 -344l-47 94q84 35 134.5 81t76.5 120q-20 -6 -57 -6t-65.5 33.5t-18.5 92t51 94.5t103.5 36zM383 -25q-209 0 -371 121l64 160q125 -125 332 -125q100 0 164.5 47t63.5 118t-47 103.5t-168 72.5t-196.5 111.5
t-77 199.5t103 213t303.5 85t361 -88l-92 -151q-123 82 -276 82q-94 0 -152.5 -38t-57.5 -105t43 -101.5t124 -62.5t123 -46t93 -53q105 -71 106 -221t-116.5 -236t-326.5 -86z" />
    <glyph glyph-name="t.sc" horiz-adv-x="915" 
d="M969 1055l-23 -166h-332l-145 -889h-182l145 889h-321l22 166h836z" />
    <glyph glyph-name="tcaron.sc" horiz-adv-x="915" 
d="M111 889l22 166h836l-23 -166h-332l-145 -889h-182l145 889h-321zM647 1208h-158l-178 445h131l150 -318l252 318h131z" />
    <glyph glyph-name="uni0163.sc" horiz-adv-x="915" 
d="M483 -338q-1 80 -103 80q-58 0 -110 -47l-90 35l150 270h-43l145 889h-321l22 166h836l-23 -166h-332l-145 -889h-16l-117 -188q57 23 113 22q170 0 169 -168q0 -123 -90 -192.5t-223 -69.5t-237 61l55 101q90 -51 174 -51t135 41t51 106z" />
    <glyph glyph-name="uni021B.sc" horiz-adv-x="915" 
d="M365.5 -104q62.5 0 95.5 -54.5t16 -146.5q-43 -242 -289 -344l-47 94q84 35 134.5 81t76.5 120q-20 -6 -57 -6t-65.5 33.5t-18.5 92t51 94.5t103.5 36zM969 1055l-23 -166h-332l-145 -889h-182l145 889h-321l22 166h836z" />
    <glyph glyph-name="u.sc" horiz-adv-x="1169" 
d="M508 -25q-225 0 -318.5 136.5t-56.5 361.5l94 582h185l-99 -600q-23 -137 26.5 -225.5t182.5 -88.5t219 83t111 231l102 600h181l-97 -584q-84 -496 -530 -496z" />
    <glyph glyph-name="uacute.sc" horiz-adv-x="1169" 
d="M508 -25q-225 0 -318.5 136.5t-56.5 361.5l94 582h185l-99 -600q-23 -137 26.5 -225.5t182.5 -88.5t219 83t111 231l102 600h181l-97 -584q-84 -496 -530 -496zM1055 1640l-324 -432h-125l262 432h187z" />
    <glyph glyph-name="uni01D4.sc" horiz-adv-x="1169" 
d="M508 -25q-225 0 -318.5 136.5t-56.5 361.5l94 582h185l-99 -600q-23 -137 26.5 -225.5t182.5 -88.5t219 83t111 231l102 600h181l-97 -584q-84 -496 -530 -496zM778 1208h-157l-179 445h131l150 -318l252 318h131z" />
    <glyph glyph-name="ucircumflex.sc" horiz-adv-x="1169" 
d="M508 -25q-225 0 -318.5 136.5t-56.5 361.5l94 582h185l-99 -600q-23 -137 26.5 -225.5t182.5 -88.5t219 83t111 231l102 600h181l-97 -584q-84 -496 -530 -496zM762 1526l-254 -318h-131l325 445h158l182 -445h-131z" />
    <glyph glyph-name="udieresis.sc" horiz-adv-x="1169" 
d="M508 -25q-225 0 -318.5 136.5t-56.5 361.5l94 582h185l-99 -600q-23 -137 26.5 -225.5t182.5 -88.5t219 83t111 231l102 600h181l-97 -584q-84 -496 -530 -496zM983 1565q47 0 74.5 -33t19.5 -80t-46 -80t-85 -33t-74.5 33t-19.5 80t46 80t85 33zM553 1565q47 0 73.5 -33
t18.5 -80t-46 -80t-85 -33t-73.5 33t-18.5 80t46 80t85 33z" />
    <glyph glyph-name="ugrave.sc" horiz-adv-x="1169" 
d="M508 -25q-225 0 -318.5 136.5t-56.5 361.5l94 582h185l-99 -600q-23 -137 26.5 -225.5t182.5 -88.5t219 83t111 231l102 600h181l-97 -584q-84 -496 -530 -496zM772 1208h-125l-178 432h186z" />
    <glyph glyph-name="uhungarumlaut.sc" horiz-adv-x="1169" 
d="M508 -25q-225 0 -318.5 136.5t-56.5 361.5l94 582h185l-99 -600q-23 -137 26.5 -225.5t182.5 -88.5t219 83t111 231l102 600h181l-97 -584q-84 -496 -530 -496zM1266 1640l-402 -432h-127l342 432h187zM895 1640l-277 -432h-114l211 432h180z" />
    <glyph glyph-name="umacron.sc" horiz-adv-x="1169" 
d="M508 -25q-225 0 -318.5 136.5t-56.5 361.5l94 582h185l-99 -600q-23 -137 26.5 -225.5t182.5 -88.5t219 83t111 231l102 600h181l-97 -584q-84 -496 -530 -496zM401 1518h697l-25 -150h-696z" />
    <glyph glyph-name="uogonek.sc" horiz-adv-x="1169" 
d="M471 -428q84 0 180 51l11 -125q-127 -63 -241.5 -63t-163 51t-42.5 135q12 201 277 354q-217 6 -306.5 141.5t-52.5 356.5l94 582h185l-99 -600q-23 -137 26.5 -225.5t182.5 -88.5t219 83t111 231l102 600h181l-97 -584q-63 -377 -336 -467q-317 -168 -323 -338
q-4 -94 92 -94z" />
    <glyph glyph-name="uring.sc" horiz-adv-x="1169" 
d="M508 -25q-225 0 -318.5 136.5t-56.5 361.5l94 582h185l-99 -600q-23 -137 26.5 -225.5t182.5 -88.5t219 83t111 231l102 600h181l-97 -584q-84 -496 -530 -496zM641 1470q1 -110 121 -110q58 0 111 49t53 115q0 126 -117 125q-70 0 -119 -51.5t-49 -127.5zM737 1262
q-94 0 -149.5 53t-55.5 139q0 127 84 209t195.5 82t168 -55.5t56.5 -141.5q0 -121 -84 -203.5t-215 -82.5z" />
    <glyph glyph-name="v.sc" horiz-adv-x="1142" 
d="M989 1055h191l-590 -1055h-215l-209 1055h194l134 -697q14 -143 18 -188q43 113 92 201z" />
    <glyph glyph-name="w.sc" horiz-adv-x="1632" 
d="M1466 1055h191l-457 -1055h-221l-82 598q-10 104 -12 223q-55 -147 -92 -223l-306 -598h-217l-77 1055h194l41 -676q0 -88 -6 -174q25 61 61 147l348 695h189l94 -668q4 -35 12 -162q27 80 52 148z" />
    <glyph glyph-name="wacute.sc" horiz-adv-x="1632" 
d="M1466 1055h191l-457 -1055h-221l-82 598q-10 104 -12 223q-55 -147 -92 -223l-306 -598h-217l-77 1055h194l41 -676q0 -88 -6 -174q25 61 61 147l348 695h189l94 -668q4 -35 12 -162q27 80 52 148zM1296 1640l-323 -432h-125l262 432h186z" />
    <glyph glyph-name="wcircumflex.sc" horiz-adv-x="1632" 
d="M1466 1055h191l-457 -1055h-221l-82 598q-10 104 -12 223q-55 -147 -92 -223l-306 -598h-217l-77 1055h194l41 -676q0 -88 -6 -174q25 61 61 147l348 695h189l94 -668q4 -35 12 -162q27 80 52 148zM1004 1526l-254 -318h-132l326 445h158l182 -445h-131z" />
    <glyph glyph-name="wdieresis.sc" horiz-adv-x="1632" 
d="M1466 1055h191l-457 -1055h-221l-82 598q-10 104 -12 223q-55 -147 -92 -223l-306 -598h-217l-77 1055h194l41 -676q0 -88 -6 -174q25 61 61 147l348 695h189l94 -668q4 -35 12 -162q27 80 52 148zM1188 1339q-47 0 -75 33t-19.5 80t46.5 80t85 33t74.5 -33t19.5 -80
t-46 -80t-85 -33zM756 1339q-47 0 -74 33t-18.5 80t46.5 80t85 33t73.5 -33t18.5 -80t-46 -80t-85 -33z" />
    <glyph glyph-name="wgrave.sc" horiz-adv-x="1632" 
d="M1466 1055h191l-457 -1055h-221l-82 598q-10 104 -12 223q-55 -147 -92 -223l-306 -598h-217l-77 1055h194l41 -676q0 -88 -6 -174q25 61 61 147l348 695h189l94 -668q4 -35 12 -162q27 80 52 148zM1014 1208h-125l-178 432h186z" />
    <glyph glyph-name="x.sc" horiz-adv-x="1056" 
d="M1073 1055l-405 -512l262 -543h-201l-217 444l-334 -444h-207l430 563l-251 492h198l203 -410l321 410h201z" />
    <glyph glyph-name="y.sc" horiz-adv-x="1005" 
d="M1075 1055l-489 -693l-62 -362h-180l62 379l-263 676h199l182 -506l348 506h203z" />
    <glyph glyph-name="yacute.sc" horiz-adv-x="1005" 
d="M1075 1055l-489 -693l-62 -362h-180l62 379l-263 676h199l182 -506l348 506h203zM973 1640l-324 -432h-125l262 432h187z" />
    <glyph glyph-name="ycircumflex.sc" horiz-adv-x="1005" 
d="M1075 1055l-489 -693l-62 -362h-180l62 379l-263 676h199l182 -506l348 506h203zM680 1526l-254 -318h-131l326 445h157l183 -445h-132z" />
    <glyph glyph-name="ydieresis.sc" horiz-adv-x="1005" 
d="M1075 1055l-489 -693l-62 -362h-180l62 379l-263 676h199l182 -506l348 506h203zM864 1339q-47 0 -74.5 33t-19.5 80t46 80t85 33t75 -33t19.5 -80t-46.5 -80t-85 -33zM432 1339q-47 0 -73.5 33t-18.5 80t46 80t85 33t73.5 -33t18.5 -80t-46 -80t-85 -33z" />
    <glyph glyph-name="ygrave.sc" horiz-adv-x="1005" 
d="M1075 1055l-489 -693l-62 -362h-180l62 379l-263 676h199l182 -506l348 506h203zM690 1208h-125l-178 432h186z" />
    <glyph glyph-name="z.sc" horiz-adv-x="956" 
d="M969 1055l-21 -154l-684 -741h602l-24 -160h-828l21 154l680 743h-565l22 158h797z" />
    <glyph glyph-name="zacute.sc" horiz-adv-x="956" 
d="M969 1055l-21 -154l-684 -741h602l-24 -160h-828l21 154l680 743h-565l22 158h797zM965 1640l-324 -432h-125l262 432h187z" />
    <glyph glyph-name="zcaron.sc" horiz-adv-x="956" 
d="M150 897l22 158h797l-21 -154l-684 -741h602l-24 -160h-828l21 154l680 743h-565zM688 1208h-158l-178 445h131l150 -318l252 318h131z" />
    <glyph glyph-name="zdotaccent.sc" horiz-adv-x="956" 
d="M969 1055l-21 -154l-684 -741h602l-24 -160h-828l21 154l680 743h-565l22 158h797zM631 1245q-53 0 -83 36t-21 88t50 89t93 37t82 -37t22 -88t-49 -88t-94 -37z" />
    <glyph glyph-name="zero.lf" horiz-adv-x="1292" 
d="M578 147q215 -1 357 217t142 525q0 201 -80 295q-81 94 -213 94t-249 -101t-183 -269t-65 -357q0 -404 291 -404zM559 -31q-217 -1 -343 139t-126 418q0 392 206 660t519 268q197 0 327 -134t130 -398t-81 -475q-81 -210 -248 -344t-384 -134z" />
    <glyph glyph-name="one.lf" horiz-adv-x="581" 
d="M557 1423l-233 -1423h-185l207 1266l-162 -2l27 159h346z" />
    <glyph glyph-name="two.lf" horiz-adv-x="1071" 
d="M827 1053q0 225 -229 225q-184 0 -375 -145l-61 149q231 172 485 172q169 0 275 -89t106 -278q0 -331 -422 -681l-295 -242h684l-28 -164h-932l26 156l357 305q209 170 309 306t100 286z" />
    <glyph glyph-name="three.lf" horiz-adv-x="1042" 
d="M942 406q0 -205 -142 -321t-382 -116t-434 176l98 144q143 -141 340 -142q137 0 232 76q96 76 96 200t-84 181t-211 58h-97l25 135h92q129 0 239 83t109 210q0 96 -59 143t-158 47q-215 0 -395 -150l-53 154q223 170 508 170q144 0 252 -66t108 -231q0 -167 -98 -273
t-238 -153q112 -33 182 -116t70 -209z" />
    <glyph glyph-name="four.lf" horiz-adv-x="1157" 
d="M213 436h522l133 805zM1112 436l-27 -151h-192l-47 -285h-184l47 285h-709l29 161l809 977h243l-163 -987h194z" />
    <glyph glyph-name="five.lf" horiz-adv-x="1040" 
d="M620 858q148 0 250 -86t103 -270q0 -258 -152 -396q-151 -138 -403 -137q-252 0 -412 146l78 157q123 -125 344 -125q143 0 245 85q101 85 101 255q0 117 -58 175t-153 59q-176 0 -307 -131l-117 55l129 778h764l-28 -168h-586l-82 -485q136 88 284 88z" />
    <glyph glyph-name="six.lf" horiz-adv-x="1187" 
d="M307 413q1 -124 71 -197t205 -73q135 -1 237 93t102 236t-74 200t-178 57q-147 0 -255 -96t-108 -220zM104 500q0 408 205 681t525 273q219 0 364 -137l-119 -137q-109 104 -256 104q-205 0 -351 -187t-167 -464q59 105 171 173t277 68q164 0 275 -117q90 -97 88 -265
q-2 -231 -154 -377q-153 -145 -401 -146q-199 0 -328 129t-129 402z" />
    <glyph glyph-name="seven.lf" horiz-adv-x="968" 
d="M172 1423h864l-635 -1423h-206l587 1255h-639z" />
    <glyph glyph-name="eight.lf" horiz-adv-x="1173" 
d="M514 143q180 0 282 79q101 79 101 205t-83 181q-84 56 -226 56t-242 -82t-100 -207q0 -232 268 -232zM958 1067q0 215 -268 215q-130 0 -218 -80t-87 -196q0 -222 238 -224q135 0 235 86t100 199zM1081 406q-1 -207 -157 -322t-435 -115q-193 0 -317 81t-123 255
q0 173 96 279t252 145q-193 86 -192 295q0 176 136 303t388 127q193 0 305 -85t113 -239q0 -154 -89 -256t-218 -149q115 -31 178 -113t63 -206z" />
    <glyph glyph-name="nine.lf" horiz-adv-x="1165" 
d="M588 705q126 0 230 94q104 95 104 209t-75 193t-183 79q-140 0 -232 -106t-92 -228t61 -182q61 -59 187 -59zM686 1454q182 0 309 -135t127 -403q0 -556 -315 -816q-160 -131 -371 -131q-252 0 -430 172l98 158q129 -154 326 -154t325 165t156 458q-67 -96 -175 -152
t-248 -57q-140 0 -240 91t-101 263q1 217 149 379t390 162z" />
    <glyph glyph-name="zero.osf" horiz-adv-x="1196" 
d="M512 121q201 1 331 151t130 357q0 157 -76 233t-192 76q-207 0 -337 -154t-130 -348q0 -315 274 -315zM492 -29q-197 0 -315 111t-118 340q-1 274 183 469t483 194q180 -1 303 -111t123 -335q0 -272 -174 -470t-485 -198z" />
    <glyph glyph-name="one.osf" horiz-adv-x="544" 
d="M471 1055l-172 -1055h-178l147 901h-121l25 154h299z" />
    <glyph glyph-name="two.osf" horiz-adv-x="974" 
d="M477 922q-182 0 -336 -150l-75 125q195 188 460 188q168 0 268 -85t99 -252q0 -348 -608 -598h610l-29 -150h-835l26 162q338 160 490 280t151 267q0 213 -221 213z" />
    <glyph glyph-name="three.osf" horiz-adv-x="976" 
d="M846 31q0 -199 -148 -315t-382 -116t-425 177l97 135q139 -147 340 -148q137 0 239 77q103 77 103 203t-88 186t-224 61h-96l25 137h92q127 0 239 84t113 215q0 98 -58 146t-155 49q-193 0 -373 -140l-77 131q215 172 501 172q143 0 249 -72q106 -73 106 -235t-98 -267
t-246 -146q122 -29 194 -114t72 -220z" />
    <glyph glyph-name="four.osf" horiz-adv-x="1097" 
d="M145 139h476l118 746zM995 139l-26 -139h-187l-55 -354h-184l55 354h-649l24 147l725 904h250l-143 -912h190z" />
    <glyph glyph-name="five.osf" horiz-adv-x="1015" 
d="M555 498q151 0 255 -96t103 -300q-1 -246 -151 -374t-406 -129q-256 0 -422 145l82 152q123 -129 355 -129q150 -1 251 81t101 232q-1 150 -63 218q-62 67 -171 67q-176 0 -282 -103l-117 53l115 738h764l-29 -166h-584l-71 -465q119 76 270 76z" />
    <glyph glyph-name="six.osf" horiz-adv-x="1126" 
d="M887 472q0 144 -72 204q-73 60 -191 59q-118 0 -220 -98t-101 -221q-1 -123 67 -201t200 -78t225 95q92 96 92 240zM720 874q146 0 250 -92q103 -92 103 -308t-143 -360t-387 -145q-190 0 -314 134q-123 135 -123 403t88 482q87 214 245 340q159 126 355 126t353 -113
l-100 -139q-115 88 -259 88q-198 0 -338 -196t-157 -480q55 112 168 186t259 74z" />
    <glyph glyph-name="seven.osf" horiz-adv-x="917" 
d="M106 1055h846l-559 -1411h-209l516 1243h-620z" />
    <glyph glyph-name="eight.osf" horiz-adv-x="1138" 
d="M236 384q0 -247 286 -247q148 0 244 81t96 208t-80 184q-80 58 -216 58t-233 -82t-97 -202zM905 1067q-1 221 -247 221q-120 0 -202 -82q-83 -82 -83 -200t59 -172t173 -56q114 0 207 87t93 202zM479 -31q-190 0 -308 91q-118 92 -118 258t91 269t239 142
q-182 82 -182 295q0 178 129 304t368 126q176 0 282 -85t107 -241q0 -156 -83 -257q-84 -99 -207 -144q115 -33 181 -115t66 -206q0 -207 -150 -322t-415 -115z" />
    <glyph glyph-name="nine.osf" horiz-adv-x="1114" 
d="M242 578q0 -246 251 -246q127 0 231 94q103 94 103 212t-74 199q-75 81 -182 81q-143 0 -236 -108t-93 -232zM588 1083q174 0 302 -135q128 -134 128 -402q0 -550 -303 -806q-154 -129 -374 -129t-396 162l82 153q55 -68 140 -108t181 -41q205 0 331 168t152 469
q-67 -102 -177 -162t-252 -62q-142 0 -240 90q-100 90 -101 265q1 217 145 377t382 161z" />
    <glyph glyph-name="uni0308.case" 
d="M-33 1171q-49 0 -76.5 34t-18.5 82t48 82t87 34t76 -34t19.5 -82t-47.5 -82t-88 -34zM-423 1171q-48 0 -75.5 34t-18.5 82t47 82t86 34t75.5 -34t19.5 -82t-47 -82t-87 -34z" />
    <glyph glyph-name="uni0307.case" 
d="M0 1409q51 0 80 -35t19.5 -84t-49.5 -84t-90 -35t-78.5 35t-18.5 84q8 49 47 84t90 35z" />
    <glyph glyph-name="gravecomb.case" 
d="M-43 1124l-207 435h187l151 -435h-131z" />
    <glyph glyph-name="acutecomb.case" 
d="M217 1546l-389 -422h-145l335 422h199z" />
    <glyph glyph-name="uni030B.case" 
d="M176 1556l-401 -432h-129l344 432h186zM-233 1556l-277 -432h-115l211 432h181z" />
    <glyph glyph-name="uni0302.case" 
d="M76 1124h-131l-148 318l-254 -318h-131l328 445h158z" />
    <glyph glyph-name="uni030C.case" 
d="M8 1575h131l-327 -445h-160l-176 445h131l147 -318z" />
    <glyph glyph-name="uni0306.case" 
d="M-270 1143q-172 0 -245 102t-30 301h142q-57 -283 151.5 -282.5t245.5 282.5h141q-23 -199 -128 -301t-277 -102z" />
    <glyph glyph-name="uni030A.case" 
d="M-113.5 1495q-58.5 0 -101.5 -39t-54 -101t19.5 -98t90 -36t102.5 36t53 99q8 63 -21.5 101t-88 38zM-97 1597q112 0 168 -67.5t39 -173.5t-96.5 -174t-193 -68t-167.5 66.5t-38 175.5q18 109 97 175t191 66z" />
    <glyph glyph-name="tildecomb.case" 
d="M-426 1550q47 0 91 -41t71.5 -89t64.5 -89t72 -41q90 0 129 256h133q-51 -399 -254 -399q-49 0 -93 41t-72 89q-77 130 -127 130t-79.5 -61.5t-48.5 -192.5h-133q49 397 246 397z" />
    <glyph glyph-name="uni0304.case" 
d="M-608 1255l24 150h697l-25 -150h-696z" />
    <glyph glyph-name="uni0326.case" 
d="M-330.5 -104q62.5 0 95 -54.5t16.5 -146.5q-43 -242 -289 -344l-47 94q84 35 134 81t77 120q-20 -6 -57 -6t-66 33.5t-18.5 92t51.5 94.5t103.5 36z" />
    <glyph glyph-name="uni0327.case" 
d="M-333 -111q73 0 118 -42t45 -119q0 -131 -90 -204t-237 -73t-230 68l57 106q61 -66 183 -65q84 0 134 40t50 107q0 84 -86 84t-143 -51l-89 37l166 289h115l-127 -205q61 28 134 28z" />
    <glyph glyph-name="uni0328.case" 
d="M-443.5 -549q-109.5 0 -157.5 46t-48 124q0 154 129 276.5t325 192.5l62 -43q-348 -168 -348 -366q0 -92 88 -93q90 0 180 56l10 -125q-131 -68 -240.5 -68z" />
    <glyph glyph-name="caron.alt" horiz-adv-x="305" 
d="M442 1532l-188 -612h-113l129 612h172z" />
    </font>
</defs>
</svg>
