<?xml version="1.0" encoding="UTF-8"?>
<svg xmlns="http://www.w3.org/2000/svg" xmlns:xlink="http://www.w3.org/1999/xlink" version="1.2" >
<font id="Bodoni URW Extra Bold">
<font-face  font-family="Bodoni URW" units-per-em="1000" ascent="680" descent="-320" font-style="normal" font-weight="800" font-stretch="normal" cap-height="667" x-height="407" underline-position="-94" underline-thickness="98" />
<missing-glyph  horiz-adv-x="250" d="" />
<glyph glyph-name="NULL" d="" />
<glyph glyph-name="CR" unicode="&#xd;" horiz-adv-x="250" d="" />
<glyph glyph-name="space" unicode="&#x20;" horiz-adv-x="250" d="" />
<glyph glyph-name="exclam" unicode="&#x21;" horiz-adv-x="313" d="M156 162 C90 162 40 125 40 76 C40 28 92 -10 157 -10 C222 -10 273 26 273 73 C273 124 223 162 156 162 L156 162 Z M172 196 L242 515 C253 575 254 580 254 592 C254 641 214 674 155 674 C91 674 52 639 52 582 C52 565 53 557 63 515 L137 196 L172 196 Z " />
<glyph glyph-name="quotedbl" unicode="&#x22;" horiz-adv-x="521" d="M168 399 L224 667 L32 667 L87 399 L168 399 Z M433 399 L489 667 L297 667 L352 399 L433 399 Z " />
<glyph glyph-name="numbersign" unicode="&#x23;" horiz-adv-x="667" d="M423 250 L556 250 L556 291 L428 291 L443 394 L578 394 L578 436 L448 436 L480 670 L440 670 L406 436 L299 436 L331 670 L288 670 L255 436 L113 436 L113 394 L249 394 L235 291 L89 291 L89 250 L229 250 L195 0 L238 0 L273 250 L381 250 L346 0 L387 0 L423 250 Z M401 394 L386 291 L278 291 L293 394 L401 394 Z " />
<glyph glyph-name="dollar" unicode="&#x24;" horiz-adv-x="667" d="M330 22 C311 17 299 16 281 16 C244 16 209 20 173 29 C222 46 243 72 243 115 C243 168 201 209 147 209 C94 209 51 166 51 113 C51 33 145 -10 321 -10 L327 -10 L330 -10 L330 -81 L350 -81 L350 -9 C511 -3 616 83 616 209 C616 252 601 295 575 331 C549 365 516 390 449 426 C416 443 373 466 350 478 L350 645 C373 651 392 653 418 653 C451 653 473 649 509 637 C484 635 474 633 462 627 C435 614 420 586 420 551 C420 497 460 458 516 458 C570 458 610 498 610 552 C610 630 528 677 391 677 C379 677 368 677 350 676 L350 744 L330 744 L330 673 C172 651 81 569 81 449 C81 379 109 327 173 276 C199 256 199 256 316 196 L323 192 L330 189 L330 22 Z M350 178 C404 149 419 132 419 101 C419 70 397 46 350 28 L350 178 Z M330 488 C285 513 264 538 264 567 C264 597 288 624 330 640 L330 488 Z " />
<glyph glyph-name="percent" unicode="&#x25;" horiz-adv-x="820" d="M201 678 C97 678 16 579 16 452 C16 324 94 230 200 230 C254 230 305 254 336 293 C367 332 386 394 386 452 C386 582 308 678 201 678 L201 678 Z M174 618 C174 646 181 655 202 655 C222 655 229 646 229 618 L229 289 C229 261 222 252 202 252 C181 252 174 261 174 289 L174 618 Z M290 0 L566 667 L539 667 L263 0 L290 0 Z M621 437 C517 437 436 338 436 211 C436 83 514 -11 621 -11 C675 -11 726 12 757 52 C788 91 807 153 807 211 C807 341 729 437 621 437 L621 437 Z M594 377 C594 405 601 414 622 414 C643 414 650 405 650 377 L650 48 C650 20 643 11 622 11 C601 11 594 20 594 48 L594 377 Z " />
<glyph glyph-name="ampersand" unicode="&#x26;" horiz-adv-x="897" d="M854 167 C854 138 853 127 851 115 C847 95 835 83 818 83 C805 83 794 91 782 112 L702 240 C748 276 766 314 766 378 L854 378 L854 401 L660 401 L660 378 L736 378 C737 322 726 294 689 263 L563 469 C620 495 651 532 651 575 C651 640 592 680 497 680 C423 680 351 656 306 615 C273 586 257 548 257 503 C257 478 260 461 271 435 C108 381 27 298 27 186 C27 72 115 -13 234 -13 C322 -13 408 11 495 61 C542 8 594 -13 677 -13 C773 -13 844 18 866 70 C876 94 877 104 877 167 L854 167 Z M482 81 C462 69 450 65 432 65 C394 65 375 80 340 138 L240 306 C232 321 226 340 226 356 C226 381 241 396 282 413 L482 81 Z M548 496 C523 533 509 565 509 583 C509 614 529 635 559 635 C594 635 621 608 621 574 C621 540 595 513 548 496 L548 496 Z " />
<glyph glyph-name="quotesingle" unicode="&#x27;" horiz-adv-x="285" d="M187 399 L243 667 L43 667 L99 399 L187 399 Z " />
<glyph glyph-name="parenleft" unicode="&#x28;" horiz-adv-x="363" d="M342 -253 C318 -237 301 -224 289 -215 L289 661 C301 672 308 677 317 683 L336 696 L342 700 L332 715 C266 672 230 643 193 601 C96 492 40 354 40 223 C40 102 87 -24 173 -131 C216 -185 256 -219 332 -269 L342 -253 Z " />
<glyph glyph-name="parenright" unicode="&#x29;" horiz-adv-x="363" d="M30 -269 C96 -226 132 -196 169 -155 C266 -45 322 93 322 223 C322 345 275 470 189 578 C146 632 107 666 30 715 L20 700 C23 698 25 696 26 696 L45 683 C54 677 61 672 73 661 L73 -215 C61 -225 54 -231 45 -236 C39 -241 32 -245 26 -249 C25 -249 23 -251 20 -253 L30 -269 Z " />
<glyph glyph-name="asterisk" unicode="&#x2a;" horiz-adv-x="501" d="M98 378 C91 376 86 372 86 367 C86 361 92 357 115 346 C117 345 121 343 126 341 C118 316 115 300 115 289 C115 275 120 268 129 268 C141 268 157 276 187 300 C202 281 213 272 222 272 C227 272 230 275 230 282 L229 292 L229 317 C229 359 234 385 252 445 C269 396 280 342 280 305 L280 296 L279 289 L279 284 C279 276 282 272 287 272 C295 272 306 282 322 303 C351 281 365 274 378 273 C388 273 394 280 394 291 C394 306 392 317 381 347 C407 357 420 366 420 373 C420 377 415 381 408 383 L402 384 C355 397 296 427 265 455 C326 456 368 450 414 435 L423 432 C426 431 430 430 432 430 C437 430 440 433 440 437 C440 447 433 462 421 478 C452 500 468 517 468 530 C468 541 447 549 418 549 L397 548 C394 582 390 592 381 592 C377 592 373 589 371 585 L367 579 C336 534 301 498 259 470 C273 522 293 565 326 610 L332 616 C333 618 334 622 334 625 C334 631 331 633 322 633 C312 633 304 632 285 626 C271 670 260 687 248 687 C235 687 224 667 211 624 C196 628 186 630 180 630 C170 630 163 626 163 620 C163 618 163 617 169 611 L174 604 C206 563 227 523 243 469 C191 504 172 523 134 574 L127 582 C123 588 120 590 117 590 C107 590 103 576 102 543 L91 543 C53 543 32 535 32 522 C32 510 48 495 81 472 C68 453 64 443 64 432 C64 427 66 424 70 424 C73 424 76 425 80 427 L88 430 C126 445 158 450 239 454 C204 424 150 393 107 380 L98 378 Z " />
<glyph glyph-name="plus" unicode="&#x2b;" horiz-adv-x="667" d="M567 356 L354 356 L354 581 L312 581 L312 356 L100 356 L100 313 L312 313 L312 88 L354 88 L354 313 L567 313 L567 356 Z " />
<glyph glyph-name="comma" unicode="&#x2c;" horiz-adv-x="324" d="M75 -87 C145 -86 172 -82 200 -71 C250 -50 284 7 284 68 C284 131 233 175 161 175 C94 175 42 137 42 88 C42 41 95 0 156 0 C192 0 222 11 245 32 C230 -39 189 -62 75 -63 L75 -87 Z " />
<glyph glyph-name="hyphen" unicode="&#x2d;" horiz-adv-x="287" d="M287 151 L287 324 L0 324 L0 151 L287 151 Z " />
<glyph glyph-name="period" unicode="&#x2e;" horiz-adv-x="315" d="M158 167 C93 167 40 127 40 79 C40 27 93 -13 161 -13 C226 -13 275 24 275 72 C275 126 224 167 158 167 L158 167 Z " />
<glyph glyph-name="slash" unicode="&#x2f;" horiz-adv-x="200" d="M-32 -227 L256 680 L229 680 L-59 -227 L-32 -227 Z " />
<glyph glyph-name="zero" unicode="0" horiz-adv-x="667" d="M333 683 C165 683 31 527 31 330 C31 236 63 146 121 79 C174 16 246 -16 332 -16 C419 -16 502 20 552 80 C603 141 636 239 636 330 C636 532 507 683 333 683 L333 683 Z M288 594 C288 639 301 657 335 657 C368 657 381 639 381 594 L381 72 C381 27 368 9 335 9 C301 9 288 27 288 72 L288 594 Z " />
<glyph glyph-name="one" unicode="1" horiz-adv-x="667" d="M529 0 L529 23 L450 23 L450 687 C372 646 323 635 205 633 L137 633 L137 610 L218 610 L218 23 L137 23 L137 0 L529 0 Z " />
<glyph glyph-name="two" unicode="2" horiz-adv-x="667" d="M48 -19 C81 9 108 19 148 19 C189 19 234 13 313 -3 C338 -8 362 -11 378 -11 C407 -11 437 -4 467 10 C497 24 516 42 545 83 C580 133 600 168 627 231 L605 245 C578 196 562 190 474 190 C443 190 404 193 339 199 C318 202 296 203 285 203 C259 203 241 199 219 187 C244 209 257 215 327 231 C414 251 460 267 504 295 C573 338 603 388 603 457 C603 597 485 683 290 683 C217 683 164 671 120 643 C67 610 34 559 34 511 C34 454 83 406 142 406 C200 406 244 451 244 511 C244 568 206 606 148 606 C134 606 125 604 107 599 C138 634 175 651 221 651 C259 651 295 637 317 613 C341 588 351 552 351 485 C351 357 317 289 221 221 C103 145 51 83 27 -6 L48 -19 Z " />
<glyph glyph-name="three" unicode="3" horiz-adv-x="667" d="M346 437 C344 398 332 386 299 387 L236 387 L236 359 L289 359 C334 358 344 349 346 305 L346 97 C346 37 323 13 264 13 C227 13 188 20 159 32 C134 43 122 52 109 74 C134 58 147 53 168 53 C219 53 255 90 255 144 C255 199 214 240 160 240 C101 240 56 194 56 135 C56 91 80 52 126 22 C164 -3 226 -16 301 -16 C389 -16 479 3 521 31 C576 66 609 125 609 185 C609 239 581 295 537 326 C496 356 460 368 398 373 C463 377 494 384 524 402 C563 425 584 465 584 516 C584 622 489 683 323 683 C169 683 83 635 83 549 C83 495 122 456 176 456 C231 456 272 495 272 549 C272 588 251 620 216 633 C204 637 201 638 177 638 C202 651 232 657 267 657 C325 657 346 637 346 580 L346 437 Z " />
<glyph glyph-name="four" unicode="4" horiz-adv-x="667" d="M630 0 L630 23 L560 23 L560 163 L630 163 L630 186 L560 186 L560 667 L364 667 L18 163 L326 163 L326 23 L233 23 L233 0 L630 0 Z M326 186 L67 186 L326 565 L326 186 Z " />
<glyph glyph-name="five" unicode="5" horiz-adv-x="667" d="M159 377 C203 405 236 417 270 417 C310 417 329 396 329 351 L329 94 C329 63 325 50 313 38 C296 22 269 13 234 13 C198 13 171 20 147 34 C211 36 242 65 242 121 C242 179 205 219 150 219 C93 219 52 177 52 120 C52 35 131 -16 263 -16 C351 -16 431 3 490 37 C551 73 585 137 585 218 C585 296 560 350 503 393 C454 430 397 448 329 448 C277 448 233 440 188 421 L196 501 L315 501 C483 496 567 550 600 687 C535 673 470 667 386 667 C311 667 246 671 191 680 L159 377 Z " />
<glyph glyph-name="six" unicode="6" horiz-adv-x="667" d="M290 555 C290 599 293 612 307 628 C324 647 353 658 390 658 C407 658 416 656 435 649 C395 633 376 605 376 563 C376 506 416 466 474 466 C532 466 568 501 568 557 C568 637 499 684 382 684 C179 684 31 531 31 321 C31 124 161 -16 344 -16 C420 -16 500 8 552 47 C603 83 635 150 635 217 C635 332 545 420 426 420 C380 420 341 410 290 383 L290 555 Z M290 360 C326 377 328 378 343 378 C371 378 384 359 384 317 L384 58 C384 30 366 13 337 13 C307 13 291 29 291 60 L290 360 Z " />
<glyph glyph-name="seven" unicode="7" horiz-adv-x="667" d="M621 678 C596 663 566 657 521 657 C500 657 482 658 465 661 C357 680 331 683 282 683 C212 683 145 667 104 641 L104 664 L104 678 L104 684 L81 684 C83 667 83 659 83 644 C83 575 69 501 41 429 L66 429 C90 484 110 498 164 498 L203 497 C233 495 253 494 262 494 C389 494 480 524 542 586 C510 540 492 520 430 463 C362 401 323 363 287 321 C226 250 194 178 194 110 C194 35 246 -16 322 -16 C374 -16 418 7 440 45 C461 83 468 121 467 205 C462 381 531 574 632 660 L621 678 Z " />
<glyph glyph-name="eight" unicode="8" horiz-adv-x="667" d="M428 386 C545 402 599 447 599 528 C599 631 507 683 323 683 C243 683 185 672 139 647 C91 622 61 574 61 524 C61 483 80 447 113 423 C143 402 167 393 227 381 C165 373 137 365 103 342 C53 309 26 256 26 192 C26 122 58 63 112 33 C165 2 245 -16 324 -16 C413 -16 500 8 561 51 C611 85 641 143 641 206 C641 271 611 325 558 353 C522 372 494 379 428 386 L428 386 Z M288 608 C288 644 300 657 332 657 C364 657 376 644 376 608 L376 448 C376 412 364 399 332 399 C300 399 288 412 288 448 L288 608 Z M288 329 C288 365 300 378 332 378 C364 378 376 365 376 329 L376 56 C376 20 364 7 332 7 C300 7 288 20 288 56 L288 329 Z " />
<glyph glyph-name="nine" unicode="9" horiz-adv-x="667" d="M381 113 C381 77 376 60 360 44 C339 25 301 13 259 13 C228 13 205 18 176 30 C213 43 233 73 233 112 C233 168 194 208 141 208 C85 208 43 168 43 114 C43 34 124 -16 252 -16 C337 -16 429 13 496 61 C583 122 631 224 631 345 C631 448 596 538 530 604 C474 659 411 683 321 683 C151 683 35 590 35 453 C35 334 131 251 268 251 C313 251 331 255 381 278 L381 113 Z M380 306 C360 291 340 283 323 283 C299 283 288 304 288 351 L288 583 C288 621 291 633 305 646 C312 653 323 657 335 657 C365 657 381 634 381 589 L380 306 Z " />
<glyph glyph-name="colon" unicode="&#x3a;" horiz-adv-x="315" d="M158 167 C93 167 40 127 40 79 C40 27 93 -13 161 -13 C226 -13 275 24 275 72 C275 126 224 167 158 167 L158 167 Z M158 420 C93 420 40 380 40 332 C40 280 93 240 161 240 C226 240 275 277 275 325 C275 379 224 420 158 420 L158 420 Z " />
<glyph glyph-name="semicolon" unicode="&#x3b;" horiz-adv-x="323" d="M75 -87 C144 -86 171 -82 199 -71 C249 -50 283 6 283 68 C283 131 232 175 160 175 C93 175 41 137 41 88 C41 41 94 0 155 0 C192 0 222 11 245 32 C230 -39 189 -62 75 -63 L75 -87 Z M158 420 C93 420 40 380 40 332 C40 280 93 240 161 240 C226 240 275 277 275 325 C275 379 224 420 158 420 L158 420 Z " />
<glyph glyph-name="less" unicode="&#x3c;" horiz-adv-x="500" d="M463 649 L36 387 L36 377 L463 81 L463 298 L256 441 L463 568 L463 649 Z " />
<glyph glyph-name="equal" unicode="&#x3d;" horiz-adv-x="667" d="M567 416 L100 416 L100 373 L567 373 L567 416 Z M567 295 L100 295 L100 252 L567 252 L567 295 Z " />
<glyph glyph-name="greater" unicode="&#x3e;" horiz-adv-x="500" d="M36 81 L463 343 L463 353 L36 649 L36 433 L243 289 L36 163 L36 81 Z " />
<glyph glyph-name="question" unicode="&#x3f;" horiz-adv-x="475" d="M181 139 C122 139 75 106 75 66 C75 24 122 -10 182 -10 C241 -10 288 22 288 61 C288 104 240 139 181 139 L181 139 Z M169 154 L195 188 C251 192 290 202 328 220 C402 257 448 334 448 421 C448 557 329 674 191 674 C101 674 20 602 20 522 C20 465 57 427 111 427 C165 427 201 461 201 511 C201 562 164 599 113 599 C97 599 87 597 71 590 C102 630 133 647 173 647 C245 647 311 571 311 486 C311 404 250 353 145 349 L169 154 Z " />
<glyph glyph-name="at" unicode="&#x40;" horiz-adv-x="741" d="M450 519 L443 496 C426 523 409 533 381 533 C271 533 154 388 154 250 C154 182 192 134 245 134 C286 134 323 155 365 202 C376 153 399 133 443 133 C479 133 530 153 576 187 C661 248 711 340 711 435 C711 577 588 684 425 684 C215 684 30 495 30 281 C30 107 159 -17 340 -17 C446 -17 554 26 632 98 C659 124 674 143 693 181 L659 181 C615 88 470 10 344 10 C184 10 70 121 70 277 C70 480 235 656 426 656 C567 656 681 559 681 438 C681 371 652 300 605 251 C571 216 537 193 517 193 C509 193 503 199 503 207 C503 212 506 224 510 236 L602 519 L450 519 Z M378 296 C365 257 364 252 361 227 C338 202 314 185 303 184 C295 184 290 192 290 204 C290 215 292 226 300 249 L361 436 C374 477 388 495 405 495 C414 495 420 489 433 466 L378 296 Z " />
<glyph glyph-name="A" unicode="A" horiz-adv-x="782" d="M778 0 L778 23 L741 23 L517 667 L289 667 L112 174 C74 83 35 28 3 23 L3 0 L262 0 L262 23 C222 24 200 30 180 47 C156 67 141 105 141 148 C141 165 143 179 150 205 L382 205 L445 23 L369 23 L369 0 L778 0 Z M375 228 L158 228 L266 539 L375 228 Z " />
<glyph glyph-name="B" unicode="B" horiz-adv-x="833" d="M23 0 L577 0 C655 0 693 8 732 31 C781 60 807 110 807 173 C807 237 783 283 734 317 C701 339 678 346 625 347 C682 350 708 358 734 379 C766 406 785 451 785 501 C785 560 758 615 716 642 C686 661 656 667 583 667 L23 667 L23 644 L108 644 L108 23 L23 23 L23 0 Z M392 23 L392 326 L432 326 C490 325 500 316 500 261 L500 85 C500 32 492 24 437 23 L392 23 Z M392 348 L392 644 L434 644 C487 645 499 629 500 555 L500 417 C500 362 486 348 437 348 L392 348 Z " />
<glyph glyph-name="C" unicode="C" horiz-adv-x="700" d="M630 133 C565 50 496 10 417 10 C361 10 338 41 338 117 L338 557 C338 597 340 614 348 627 C358 647 378 657 404 657 C464 657 528 621 574 562 C609 516 624 475 626 412 L649 412 L649 687 L548 631 C490 673 448 687 379 687 C172 687 30 543 30 334 C30 129 178 -20 381 -20 C495 -20 574 20 653 117 L630 133 Z " />
<glyph glyph-name="D" unicode="D" horiz-adv-x="863" d="M23 0 L547 0 C626 0 685 26 737 84 C797 152 833 246 833 339 C833 436 793 535 727 598 C678 646 615 667 524 667 L23 667 L23 644 L101 644 L101 23 L23 23 L23 0 Z M388 23 L388 644 L438 644 C502 645 512 632 512 549 L512 118 C514 45 493 22 428 23 L388 23 Z " />
<glyph glyph-name="E" unicode="E" horiz-adv-x="746" d="M686 0 L686 246 L664 246 C644 115 535 26 388 23 L388 331 L408 331 C478 331 528 266 525 179 L546 179 L546 511 L525 511 C528 418 483 357 409 355 L388 355 L388 644 C529 654 631 578 642 457 L664 457 L664 667 L23 667 L23 644 L101 644 L101 23 L23 23 L23 0 L686 0 Z " />
<glyph glyph-name="F" unicode="F" horiz-adv-x="723" d="M476 0 L476 23 L388 23 L388 318 C486 319 522 280 525 169 L548 169 L548 501 L525 501 C528 395 480 339 388 341 L388 644 L434 644 C551 650 635 579 653 460 L676 460 L676 667 L23 667 L23 644 L101 644 L101 23 L23 23 L23 0 L476 0 Z " />
<glyph glyph-name="G" unicode="G" horiz-adv-x="785" d="M761 277 L761 300 L409 300 L409 277 L459 277 L459 93 C459 39 439 10 401 10 C366 10 350 33 350 83 L350 562 C350 635 369 657 431 657 C494 657 556 626 605 570 C645 525 660 486 662 427 L684 427 L684 687 L585 631 C515 675 474 687 394 687 C305 687 221 663 164 621 C81 559 29 446 29 327 C29 122 182 -20 402 -20 C500 -20 573 1 638 46 L714 -32 L714 277 L761 277 Z " />
<glyph glyph-name="H" unicode="H" horiz-adv-x="893" d="M869 0 L869 23 L791 23 L791 644 L869 644 L869 667 L454 667 L454 644 L504 644 L504 359 L388 359 L388 644 L438 644 L438 667 L23 667 L23 644 L101 644 L101 23 L23 23 L23 0 L438 0 L438 23 L388 23 L388 336 L504 336 L504 23 L454 23 L454 0 L869 0 Z " />
<glyph glyph-name="I" unicode="I" horiz-adv-x="493" d="M470 0 L470 23 L392 23 L392 644 L470 644 L470 667 L23 667 L23 644 L101 644 L101 23 L23 23 L23 0 L470 0 Z " />
<glyph glyph-name="J" unicode="J" horiz-adv-x="653" d="M634 644 L634 667 L174 667 L174 644 L269 644 L269 141 C269 95 263 69 249 50 C231 26 202 11 171 11 C138 11 101 28 80 52 C95 49 101 48 111 48 C174 48 218 90 218 150 C218 206 179 246 125 246 C64 246 17 198 17 135 C17 47 101 -20 212 -20 C317 -20 425 0 474 29 C535 66 556 108 556 197 L556 644 L634 644 Z " />
<glyph glyph-name="K" unicode="K" horiz-adv-x="901" d="M894 0 L894 23 L861 23 L606 510 L643 542 C755 623 800 646 849 644 L861 644 L861 667 L508 667 L508 644 C536 644 549 643 563 640 C595 632 614 610 614 579 C614 556 603 541 563 510 L388 377 L388 644 L470 644 L470 667 L23 667 L23 644 L101 644 L101 23 L23 23 L23 0 L464 0 L464 23 L388 23 L388 345 L557 23 L489 23 L489 0 L894 0 Z " />
<glyph glyph-name="L" unicode="L" horiz-adv-x="717" d="M677 250 L653 250 C650 138 530 36 388 23 L388 644 L474 644 L474 667 L23 667 L23 644 L101 644 L101 23 L23 23 L23 0 L677 0 L677 250 Z " />
<glyph glyph-name="M" unicode="M" horiz-adv-x="1047" d="M1023 0 L1023 23 L945 23 L945 644 L1023 644 L1023 667 L670 667 L541 335 L406 667 L30 667 L30 644 L95 644 L117 604 L117 203 C117 95 74 20 13 23 L13 0 L269 0 L269 24 L259 24 C220 24 195 37 177 65 C156 100 145 153 145 219 L145 573 L371 0 L436 0 L658 573 L658 23 L575 23 L575 0 L1023 0 Z " />
<glyph glyph-name="N" unicode="N" horiz-adv-x="821" d="M702 0 L702 457 C702 573 743 645 807 644 L807 667 L540 667 L540 644 L562 644 C637 646 673 583 675 449 L675 295 L398 667 L13 667 L13 644 L75 644 L119 582 L119 192 C116 87 75 23 13 23 L13 0 L270 0 L270 23 C189 21 145 93 146 228 L146 545 L540 0 L702 0 Z " />
<glyph glyph-name="O" unicode="O" horiz-adv-x="805" d="M401 687 C291 687 202 656 132 593 C64 531 30 447 30 338 C30 212 72 121 162 53 C226 4 307 -20 407 -20 C513 -20 595 7 654 60 C731 129 775 227 775 332 C775 554 634 687 401 687 L401 687 Z M349 601 C349 644 367 666 403 666 C438 666 456 644 456 601 L456 68 C456 21 440 1 402 1 C365 1 349 21 349 68 L349 601 Z " />
<glyph glyph-name="P" unicode="P" horiz-adv-x="811" d="M478 0 L478 23 L388 23 L388 268 L505 268 C596 268 661 280 700 303 C752 335 785 402 785 477 C785 547 755 611 709 641 C682 659 636 667 567 667 L23 667 L23 644 L101 644 L101 23 L23 23 L23 0 L478 0 Z M388 292 L388 644 L424 644 C481 646 491 629 493 541 L493 366 C493 314 472 292 421 291 L395 292 L388 292 Z " />
<glyph glyph-name="Q" unicode="Q" horiz-adv-x="805" d="M688 -197 C671 -199 663 -199 650 -199 C593 -199 559 -183 537 -147 C515 -111 502 -60 502 -11 C666 18 775 156 775 338 C775 552 631 687 400 687 C172 687 30 553 30 338 C30 215 72 124 162 55 C212 15 262 -5 332 -15 C336 -169 423 -238 615 -238 C642 -238 658 -237 688 -234 L688 -197 Z M351 601 C351 647 366 666 404 666 C441 666 456 647 456 601 L456 63 C456 20 440 1 404 1 C367 1 351 20 351 63 L351 601 Z " />
<glyph glyph-name="R" unicode="R" horiz-adv-x="864" d="M811 118 C806 90 799 78 788 78 C775 78 771 87 771 115 L771 134 C775 195 775 195 775 212 C775 258 765 287 739 312 C723 327 711 333 665 351 C745 383 780 432 780 510 C780 562 761 607 727 633 C697 657 650 667 571 667 L23 667 L23 644 L101 644 L101 23 L23 23 L23 0 L455 0 L455 23 L388 23 L388 339 C401 340 407 340 416 340 C479 340 493 328 493 275 C495 130 497 106 515 70 C543 13 598 -14 689 -14 C746 -14 784 2 807 34 C819 53 826 72 834 112 L811 118 Z M388 644 L421 644 C478 645 493 631 494 575 L494 434 C491 373 473 361 388 363 L388 644 Z " />
<glyph glyph-name="S" unicode="S" horiz-adv-x="634" d="M581 456 L581 687 L489 631 C424 673 378 687 312 687 C166 687 56 587 56 453 C56 359 115 284 243 217 C338 167 339 167 360 150 C386 129 396 112 396 89 C396 41 352 9 285 9 C217 9 148 49 96 116 C70 151 58 193 59 254 L33 254 L33 -17 L122 43 C187 -4 233 -21 297 -21 C355 -21 426 -4 475 22 C554 63 594 129 594 218 C594 327 550 377 361 479 C293 516 286 520 269 533 C251 547 242 564 242 585 C242 631 275 660 329 660 C397 660 478 622 520 569 C543 540 555 502 556 456 L581 456 Z " />
<glyph glyph-name="T" unicode="T" horiz-adv-x="739" d="M603 0 L603 23 L514 23 L514 644 C610 610 684 527 698 435 L721 435 L721 667 L18 667 L18 435 L41 435 C64 536 123 602 227 644 L227 23 L138 23 L138 0 L603 0 Z " />
<glyph glyph-name="U" unicode="U" horiz-adv-x="770" d="M756 667 L503 667 L503 644 C586 648 625 580 624 437 L624 180 C624 130 611 94 582 68 C549 38 500 18 457 18 C431 18 410 26 399 39 C388 52 385 69 385 110 L385 644 L455 644 L455 667 L20 667 L20 644 L98 644 L98 176 C98 102 116 69 173 36 C233 2 325 -20 411 -20 C557 -20 651 55 651 170 L651 467 C652 575 692 644 756 644 L756 667 Z " />
<glyph glyph-name="V" unicode="V" horiz-adv-x="764" d="M764 667 L537 667 L537 644 C566 644 582 639 596 627 C613 612 624 583 624 555 C624 534 615 496 604 469 L503 230 L355 644 L419 644 L419 667 L0 667 L0 644 L52 644 L279 0 L430 0 L637 475 C674 564 722 628 764 644 L764 667 Z " />
<glyph glyph-name="W" unicode="W" horiz-adv-x="1172" d="M1172 667 L945 667 L945 644 C982 641 992 638 1005 626 C1021 611 1030 584 1030 552 C1030 527 1024 498 1013 472 L911 230 L772 644 L827 644 L827 667 L422 667 L422 644 L470 644 L569 348 L507 214 L354 644 L402 644 L402 667 L0 667 L0 644 L52 644 L278 0 L436 0 L582 312 L686 0 L840 0 L1041 469 C1083 565 1124 619 1172 644 L1172 667 Z " />
<glyph glyph-name="X" unicode="X" horiz-adv-x="814" d="M807 0 L807 23 L752 23 L554 397 L689 552 C747 621 774 641 807 644 L807 667 L564 667 L564 644 C586 644 598 642 609 639 C631 633 643 612 643 583 C643 554 628 522 603 493 L541 423 L425 644 L495 644 L495 667 L42 667 L42 644 L102 644 L286 292 L168 145 C109 72 52 29 7 23 L7 0 L262 0 L262 23 C216 27 189 53 189 93 C189 116 202 144 227 176 L299 266 L429 23 L349 23 L349 0 L807 0 Z " />
<glyph glyph-name="Y" unicode="Y" horiz-adv-x="764" d="M764 667 L537 667 L537 644 C567 642 578 640 589 634 C608 623 622 597 622 571 C622 550 612 518 596 489 L523 358 L368 644 L440 644 L440 667 L0 667 L0 644 L42 644 L250 260 L250 23 L167 23 L167 0 L626 0 L626 23 L537 23 L537 328 L633 500 C678 580 719 625 764 644 L764 667 Z " />
<glyph glyph-name="Z" unicode="Z" horiz-adv-x="733" d="M682 285 L657 285 C655 228 627 170 574 113 C507 41 460 21 371 23 L693 667 L76 667 L76 415 L99 415 C102 488 128 542 182 589 C231 630 265 641 358 644 L40 0 L682 0 L682 285 Z " />
<glyph glyph-name="bracketleft" unicode="&#x5b;" horiz-adv-x="367" d="M374 -253 L374 -233 L293 -233 L293 680 L374 680 L374 700 L47 700 L47 -253 L374 -253 Z " />
<glyph glyph-name="backslash" unicode="&#x5c;" horiz-adv-x="200" d="M232 -227 L259 -227 L-29 680 L-56 680 L232 -227 Z " />
<glyph glyph-name="bracketright" unicode="&#x5d;" horiz-adv-x="368" d="M-7 -253 L321 -253 L321 700 L-7 700 L-7 680 L74 680 L74 -233 L-7 -233 L-7 -253 Z " />
<glyph glyph-name="asciicircum" unicode="&#x5e;" horiz-adv-x="500" d="M535 273 L273 700 L262 700 L-34 273 L183 273 L326 480 L453 273 L535 273 Z " />
<glyph glyph-name="underscore" unicode="&#x5f;" horiz-adv-x="500" d="M-2 -93 L-2 -191 L501 -191 L501 -93 L-2 -93 Z " />
<glyph glyph-name="grave" unicode="&#x60;" horiz-adv-x="500" d="M285 483 L249 623 L82 623 L82 596 L251 483 L285 483 Z " />
<glyph glyph-name="a" unicode="a" horiz-adv-x="617" d="M589 88 C570 58 565 53 557 53 C553 53 551 59 551 78 L551 267 C551 338 532 367 471 391 C424 410 354 420 267 420 C149 420 84 384 84 319 C84 272 118 240 168 240 C217 240 249 271 249 319 C249 357 233 378 196 390 C210 395 222 397 241 397 C268 397 291 390 306 379 C323 366 327 352 327 313 L327 213 C289 226 256 231 212 231 C162 231 125 224 96 209 C53 187 27 148 27 107 C27 38 97 -13 193 -13 C244 -13 281 -1 332 31 C367 -1 397 -13 442 -13 C520 -13 578 19 607 78 L589 88 Z M327 48 C298 32 286 27 272 27 C252 27 241 41 241 68 L241 161 C241 192 251 204 278 204 C292 204 303 201 327 192 L327 48 Z " />
<glyph glyph-name="b" unicode="b" horiz-adv-x="643" d="M301 34 C338 1 374 -13 422 -13 C537 -13 624 81 624 206 C624 279 590 352 538 389 C510 410 476 420 435 420 C396 420 368 414 301 390 L301 680 C272 673 223 668 156 667 L7 667 L7 647 L74 647 L74 20 L7 20 L7 0 L216 0 C240 0 279 -5 301 -13 L301 34 Z M301 365 C315 375 328 380 343 380 C370 380 381 362 381 315 L381 70 C381 45 373 34 355 34 C338 34 318 44 301 62 L301 365 Z " />
<glyph glyph-name="c" unicode="c" horiz-adv-x="500" d="M455 95 C416 43 370 15 321 15 C274 15 261 32 261 95 L261 338 C261 385 274 399 316 399 C353 399 379 391 399 374 C386 377 380 378 373 378 C335 378 304 344 304 300 C304 256 338 224 386 224 C433 224 466 256 466 304 C466 376 400 420 294 420 C136 420 20 326 20 198 C20 134 49 75 101 37 C145 3 202 -13 277 -13 C369 -13 429 17 473 85 L455 95 Z " />
<glyph glyph-name="d" unicode="d" horiz-adv-x="644" d="M344 -13 C379 -4 395 -2 445 0 L638 0 L638 20 L571 20 L571 680 C515 671 493 668 442 667 L277 667 L277 647 L344 647 L344 388 C289 411 251 420 207 420 C96 420 20 333 20 206 C20 135 43 81 89 39 C125 7 174 -13 219 -13 C261 -13 301 2 344 34 L344 -13 Z M344 62 C324 44 302 33 286 33 C270 33 262 48 262 78 L262 326 C262 361 275 380 299 380 C310 380 316 378 344 365 L344 62 Z " />
<glyph glyph-name="e" unicode="e" horiz-adv-x="543" d="M499 131 C454 69 375 20 321 20 C296 20 281 28 270 48 C262 61 259 80 259 121 L259 209 L523 209 C506 335 411 420 289 420 C135 420 20 325 20 197 C20 77 133 -13 283 -13 C374 -13 456 32 515 114 L499 131 Z M352 230 L259 230 L259 348 C259 384 275 401 307 401 C339 401 352 385 352 347 L352 230 Z " />
<glyph glyph-name="f" unicode="f" horiz-adv-x="383" d="M374 393 L374 413 L317 413 C269 413 251 418 226 438 C191 467 171 507 171 550 C171 611 211 665 257 665 C261 665 265 664 271 661 C228 646 203 611 203 568 C203 519 239 485 293 485 C347 485 384 521 384 573 C384 637 330 684 256 684 C206 684 160 663 123 624 C88 586 74 543 74 478 L74 413 L7 413 L7 393 L74 393 L74 20 L7 20 L7 0 L374 0 L374 20 L301 20 L301 393 L374 393 Z " />
<glyph glyph-name="g" unicode="g" horiz-adv-x="576" d="M307 85 C282 84 232 84 215 84 C162 84 140 92 140 111 C140 122 148 132 164 141 C206 128 246 123 292 123 C347 123 406 133 449 151 C506 173 536 212 536 264 C536 335 478 383 361 410 C371 442 385 463 408 476 C406 468 405 465 405 457 C405 427 426 407 459 407 C492 407 516 431 516 463 C516 496 492 518 457 518 C408 518 360 474 343 413 C315 418 296 420 270 420 C123 420 33 363 33 269 C33 211 59 182 142 147 C74 110 40 66 40 13 C40 -13 47 -32 67 -56 C49 -81 42 -98 42 -117 C42 -186 131 -232 262 -232 C434 -232 542 -164 542 -55 C542 37 478 85 358 85 L307 85 Z M327 189 C327 154 314 138 285 138 C258 138 245 154 245 187 L245 354 C245 385 259 401 287 401 C314 401 327 386 327 355 L327 189 Z M81 -68 C107 -88 134 -96 179 -96 C193 -96 209 -96 227 -95 C275 -92 290 -92 310 -92 C392 -92 419 -104 419 -142 C419 -184 366 -210 277 -210 C158 -210 72 -165 72 -102 C72 -90 74 -83 81 -68 L81 -68 Z " />
<glyph glyph-name="h" unicode="h" horiz-adv-x="685" d="M678 0 L678 20 L612 20 L612 275 C612 329 604 362 586 381 C563 406 525 420 479 420 C416 420 358 403 301 368 L301 680 C258 670 230 667 180 667 L7 667 L7 644 L74 644 L74 20 L7 20 L7 0 L333 0 L333 20 L301 20 L301 344 C320 359 337 367 352 367 C374 367 385 350 385 314 L385 20 L353 20 L353 0 L678 0 Z " />
<glyph glyph-name="i" unicode="i" horiz-adv-x="373" d="M367 0 L367 20 L301 20 L301 426 C270 419 210 413 175 413 L7 413 L7 393 L74 393 L74 20 L7 20 L7 0 L367 0 Z M185 674 C119 674 71 639 71 592 C71 541 116 509 186 509 C255 509 301 542 301 591 C301 640 253 674 185 674 L185 674 Z " />
<glyph glyph-name="j" unicode="j" horiz-adv-x="377" d="M304 426 C287 420 212 412 175 413 L10 413 L10 393 L77 393 L77 0 C133 -1 144 -3 169 -16 C206 -35 227 -69 227 -111 C227 -162 194 -201 150 -202 L143 -202 C177 -185 195 -157 195 -121 C195 -70 159 -35 106 -35 C52 -35 13 -74 13 -128 C13 -186 60 -227 128 -227 C189 -227 246 -199 273 -156 C295 -121 304 -76 304 0 L304 426 Z M188 674 C122 674 74 639 74 592 C74 541 119 509 189 509 C258 509 304 542 304 591 C304 640 256 674 188 674 L188 674 Z " />
<glyph glyph-name="k" unicode="k" horiz-adv-x="708" d="M705 0 L705 20 L686 20 L484 363 C517 387 538 394 572 393 L611 393 L611 413 L434 413 L434 393 L446 393 C465 393 472 390 472 382 C472 374 467 369 446 354 L301 252 L301 680 C265 672 222 667 185 667 L7 667 L7 647 L74 647 L74 20 L7 20 L7 0 L367 0 L367 20 L301 20 L301 235 L427 20 L388 20 L388 0 L705 0 Z " />
<glyph glyph-name="l" unicode="l" horiz-adv-x="373" d="M367 0 L367 20 L301 20 L301 680 C280 673 239 668 198 667 L7 667 L7 647 L74 647 L74 20 L7 20 L7 0 L367 0 Z " />
<glyph glyph-name="m" unicode="m" horiz-adv-x="991" d="M984 0 L984 20 L918 20 L918 283 C918 327 908 356 886 377 C857 404 812 420 761 420 C704 420 658 401 602 355 C564 400 522 420 465 420 C408 420 357 400 301 356 L301 426 C273 419 209 413 167 413 L7 413 L7 393 L74 393 L74 20 L7 20 L7 0 L335 0 L335 20 L301 20 L301 331 C321 352 337 361 352 361 C373 361 380 349 380 315 L380 20 L349 20 L349 0 L641 0 L641 20 L607 20 L607 331 C624 352 642 362 661 362 C684 362 691 351 691 309 L691 20 L657 20 L657 0 L984 0 Z " />
<glyph glyph-name="n" unicode="n" horiz-adv-x="686" d="M679 0 L679 20 L613 20 L613 287 C613 332 604 359 581 381 C556 406 513 420 467 420 C410 420 354 400 301 359 L301 426 C255 416 236 414 200 413 L7 413 L7 393 L74 393 L74 20 L7 20 L7 0 L335 0 L335 20 L301 20 L301 334 C324 355 339 363 354 363 C375 363 386 346 386 311 L386 20 L352 20 L352 0 L679 0 Z " />
<glyph glyph-name="o" unicode="o" horiz-adv-x="612" d="M305 420 C234 420 164 402 112 369 C54 333 20 269 20 196 C20 71 134 -13 305 -13 C389 -13 470 9 521 47 C565 79 592 135 592 195 C592 332 480 420 305 420 L305 420 Z M352 70 C352 26 338 8 304 8 C271 8 260 24 260 70 L260 335 C260 384 272 402 307 402 C341 402 352 386 352 338 L352 70 Z " />
<glyph glyph-name="p" unicode="p" horiz-adv-x="645" d="M301 44 C323 29 337 20 341 18 C369 1 406 -9 437 -9 C544 -9 625 85 625 211 C625 329 544 420 439 420 C398 420 367 410 301 376 L301 426 C266 419 212 413 176 413 L7 413 L7 393 L74 393 L74 -207 L7 -207 L7 -227 L367 -227 L367 -207 L301 -207 L301 44 Z M301 352 C318 368 339 377 355 377 C378 377 389 361 389 324 L389 101 C389 59 380 43 355 43 C338 43 322 50 301 69 L301 352 Z " />
<glyph glyph-name="q" unicode="q" horiz-adv-x="643" d="M342 -207 L276 -207 L276 -227 L636 -227 L636 -207 L569 -207 L569 393 L636 393 L636 413 L468 413 C422 414 371 419 342 426 L342 373 C294 405 246 420 199 420 C97 420 20 326 20 201 C20 78 99 -13 206 -13 C252 -13 291 2 342 41 L342 -207 Z M342 66 C326 50 306 41 288 41 C265 41 254 59 254 98 L254 311 C254 352 266 373 289 373 C304 373 322 365 342 349 L342 66 Z " />
<glyph glyph-name="r" unicode="r" horiz-adv-x="521" d="M367 0 L367 20 L301 20 L301 258 C306 288 324 320 344 335 C341 326 341 321 341 315 C341 268 375 234 424 234 C475 234 515 276 515 330 C515 382 483 416 433 416 C388 416 345 383 301 313 L301 426 C259 416 229 413 175 413 L7 413 L7 393 L74 393 L74 20 L7 20 L7 0 L367 0 Z " />
<glyph glyph-name="s" unicode="s" horiz-adv-x="506" d="M450 247 L450 423 L374 378 C317 409 277 420 228 420 C118 420 37 355 37 267 C37 193 102 140 257 88 C289 77 299 68 299 49 C299 26 283 14 252 14 C193 14 131 37 96 71 C70 98 58 126 55 167 L33 167 L33 -17 L99 33 C145 3 211 -14 275 -14 C395 -14 472 42 472 130 C472 178 453 212 412 239 C375 262 357 272 289 304 C207 347 207 347 207 365 C207 384 221 394 246 394 C290 394 347 374 377 348 C408 321 424 291 429 247 L450 247 Z " />
<glyph glyph-name="t" unicode="t" horiz-adv-x="397" d="M364 152 C345 91 330 70 307 70 C287 70 285 76 285 122 L285 393 L351 393 L351 413 L285 413 L285 616 L261 616 C236 521 106 417 7 413 L7 393 L58 393 L58 104 C58 67 64 48 82 29 C106 5 145 -7 197 -7 C260 -7 305 11 336 47 C354 69 366 92 384 146 L364 152 Z " />
<glyph glyph-name="u" unicode="u" horiz-adv-x="668" d="M368 0 L662 0 L662 20 L595 20 L595 426 C565 418 524 414 484 413 L311 413 L311 393 L368 393 L368 80 C349 62 330 52 315 52 C304 52 294 59 291 69 C288 78 287 84 287 108 L287 426 C253 418 211 413 174 413 L7 413 L7 393 L60 393 L60 102 C60 26 106 -13 196 -13 C256 -13 310 8 368 53 L368 0 Z " />
<glyph glyph-name="v" unicode="v" horiz-adv-x="522" d="M525 413 L350 413 L350 393 C396 391 417 371 417 331 C417 315 414 303 407 282 L365 169 L268 393 L322 393 L322 413 L-3 413 L-3 393 L29 393 L198 0 L322 0 L437 295 C467 362 486 383 525 393 L525 413 Z " />
<glyph glyph-name="w" unicode="w" horiz-adv-x="842" d="M846 413 L672 413 L672 393 C714 390 737 367 737 327 C737 315 734 302 728 287 L682 170 L586 393 L641 393 L641 413 L319 413 L319 393 L348 393 L399 270 L361 170 L265 393 L300 393 L300 413 L-3 413 L-3 393 L27 393 L194 0 L319 0 L414 238 L515 0 L641 0 L756 283 C786 356 806 381 846 393 L846 413 Z " />
<glyph glyph-name="x" unicode="x" horiz-adv-x="554" d="M550 0 L550 20 L523 20 L379 270 L457 352 C490 384 506 391 550 393 L550 413 L368 413 L368 393 C404 393 419 385 419 366 C419 351 415 344 393 320 L368 293 L310 393 L343 393 L343 413 L3 413 L3 393 L52 393 L178 166 L103 89 C72 57 22 23 3 20 L3 0 L169 0 L169 20 C135 22 124 30 124 52 C124 67 132 84 148 101 L191 144 L262 20 L223 20 L223 0 L550 0 Z " />
<glyph glyph-name="y" unicode="y" horiz-adv-x="516" d="M520 413 L348 413 L348 393 C394 388 412 373 412 340 C412 327 407 310 396 290 L372 244 L288 393 L331 393 L331 413 L1 413 L1 393 L27 393 L249 4 L188 -115 C178 -65 141 -34 92 -34 C38 -34 -3 -77 -3 -133 C-3 -188 37 -228 93 -228 C139 -228 174 -200 206 -137 L431 308 C460 365 481 386 520 393 L520 413 Z " />
<glyph glyph-name="z" unicode="z" horiz-adv-x="525" d="M505 0 L505 178 L481 178 C481 93 397 23 290 20 L505 413 L39 413 L39 233 L62 233 C74 330 142 392 239 392 L20 0 L505 0 Z " />
<glyph glyph-name="braceleft" unicode="&#x7b;" horiz-adv-x="394" d="M15 213 L31 213 C75 212 91 190 91 130 C94 12 136 -86 214 -164 C247 -198 336 -259 369 -269 L378 -254 C348 -241 333 -231 307 -209 L307 -23 C308 112 303 129 251 172 C216 198 173 212 105 221 L105 226 C173 235 216 249 251 275 C303 318 308 335 307 470 L307 655 C333 678 348 688 378 701 L369 715 C344 709 263 656 229 624 C141 544 94 442 91 317 C91 257 75 235 31 233 L15 233 L15 213 Z " />
<glyph glyph-name="bar" unicode="&#x7c;" horiz-adv-x="500" d="M184 667 L184 -167 L316 -167 L316 667 L184 667 Z " />
<glyph glyph-name="braceright" unicode="&#x7d;" horiz-adv-x="394" d="M379 233 L363 233 C318 235 303 257 303 317 C300 435 258 533 179 610 C147 645 58 705 24 715 L16 701 C46 687 62 677 87 655 L87 470 C86 335 91 318 143 275 C178 249 221 235 289 226 L289 221 C221 212 178 198 143 172 C91 129 86 112 87 -23 L87 -209 C62 -231 46 -241 16 -254 L24 -269 C50 -262 131 -209 165 -177 C253 -98 299 5 303 130 C303 190 318 212 363 213 L379 213 L379 233 Z " />
<glyph glyph-name="asciitilde" unicode="&#x7e;" horiz-adv-x="500" d="M422 381 C405 366 393 360 377 360 C361 360 346 363 305 377 C260 391 238 396 213 396 C165 396 142 382 62 302 L81 287 C98 304 106 308 120 308 C132 308 137 306 176 290 C210 277 239 270 267 270 C300 270 334 279 361 296 C384 309 396 320 429 359 C432 363 435 367 438 370 L422 381 Z " />
<glyph glyph-name="uni00A0" unicode="&#xa0;" horiz-adv-x="250" d="" />
<glyph glyph-name="exclamdown" unicode="&#xa1;" horiz-adv-x="313" d="M157 420 C91 420 40 384 40 337 C40 286 90 248 158 248 C224 248 274 285 274 334 C274 382 222 420 157 420 L157 420 Z M141 214 L71 -105 C60 -164 59 -168 59 -181 C59 -230 99 -263 158 -263 C221 -263 261 -228 261 -171 C261 -154 260 -145 250 -105 L177 214 L141 214 Z " />
<glyph glyph-name="cent" unicode="&#xa2;" horiz-adv-x="667" d="M353 154 C449 154 511 184 556 251 L537 261 C497 207 452 181 398 181 C358 181 345 201 345 261 L345 500 C345 554 353 564 400 564 C435 564 458 558 481 541 C471 543 466 544 460 544 C416 544 387 513 387 467 C387 421 420 390 467 390 C515 390 549 424 549 472 C549 543 482 587 373 587 C366 587 363 587 353 586 L353 667 L333 667 L333 584 C284 577 271 573 245 563 C158 526 104 449 104 362 C104 288 144 223 213 183 C249 162 270 157 333 154 L333 72 L353 72 L353 154 Z " />
<glyph glyph-name="sterling" unicode="&#xa3;" horiz-adv-x="667" d="M632 144 C626 105 617 86 595 64 C558 29 506 10 443 10 C396 10 364 18 318 43 C369 88 390 154 400 305 L519 305 L519 325 L400 325 C400 358 400 387 399 390 C397 464 397 464 397 474 C397 547 401 578 413 606 C427 640 453 656 493 656 C516 656 531 653 554 643 C492 633 460 599 460 544 C460 490 501 449 555 449 C612 449 652 491 652 551 C652 634 582 683 461 683 C373 683 296 663 249 627 C184 578 159 510 159 381 L159 325 L71 325 L71 305 L159 305 C160 179 157 145 146 108 C118 121 104 125 85 125 C46 125 16 95 16 57 C16 9 54 -16 127 -16 C189 -16 251 0 296 29 C394 -51 450 -80 509 -80 C601 -80 655 0 658 144 L632 144 Z M139 80 C129 46 112 30 85 30 C62 30 47 42 47 61 C47 82 63 97 86 97 C102 97 118 92 139 80 L139 80 Z " />
<glyph glyph-name="currency" unicode="&#xa4;" horiz-adv-x="667" d="M67 118 L97 87 L189 178 C238 142 282 126 334 126 C387 126 434 143 479 180 L572 87 L602 118 L509 211 C546 258 562 301 562 353 C562 406 546 450 510 497 L601 588 L570 619 L478 528 C431 566 387 582 333 582 C279 582 237 566 187 528 L95 619 L64 588 L156 496 C120 450 104 406 104 354 C104 301 121 254 158 209 L67 118 Z M273 496 C273 539 293 561 334 561 C374 561 394 539 394 496 L394 214 C394 167 376 147 333 147 C291 147 273 167 273 214 L273 496 Z " />
<glyph glyph-name="yen" unicode="&#xa5;" horiz-adv-x="667" d="M461 23 L461 307 L658 307 L658 330 L462 330 L509 427 L658 427 L658 450 L520 450 L544 500 C587 578 630 626 675 644 L675 667 L448 667 L448 644 C478 642 489 640 500 634 C519 623 533 597 533 572 C533 548 528 532 506 489 L447 358 L305 644 L364 644 L364 667 L-8 667 L-8 644 L34 644 L132 450 L9 450 L9 427 L144 427 L193 330 L9 330 L9 307 L205 307 L229 260 L229 23 L149 23 L149 0 L550 0 L550 23 L461 23 Z " />
<glyph glyph-name="brokenbar" unicode="&#xa6;" horiz-adv-x="500" d="M184 667 L184 299 L316 299 L316 667 L184 667 Z M184 153 L184 -167 L316 -167 L316 153 L184 153 Z " />
<glyph glyph-name="section" unicode="&#xa7;" horiz-adv-x="569" d="M439 93 C504 152 530 198 530 256 C530 311 504 360 461 386 C432 403 376 429 309 456 C217 492 204 499 182 524 C172 534 166 549 166 562 C166 616 237 666 313 666 C350 666 387 655 412 637 C428 625 435 614 439 589 C421 610 405 617 376 617 C324 617 289 586 289 540 C289 495 326 462 376 462 C431 462 471 503 471 561 C471 637 407 687 311 687 C187 687 91 596 91 479 C91 432 104 397 134 362 C72 314 38 255 38 194 C38 141 66 89 112 57 C142 36 168 23 252 -10 C401 -69 426 -86 426 -126 C426 -181 362 -224 278 -224 C238 -224 202 -215 172 -199 C153 -188 145 -179 135 -157 C153 -171 169 -177 191 -177 C237 -177 271 -144 271 -99 C271 -54 237 -22 189 -22 C134 -22 97 -60 97 -117 C97 -196 166 -247 274 -247 C410 -247 505 -163 505 -41 C505 18 485 59 439 93 L439 93 Z M418 105 C382 124 368 130 322 149 C122 229 100 242 100 277 C100 301 110 317 138 338 C144 342 147 344 149 346 C194 319 209 312 294 276 C438 216 438 216 456 198 C462 192 466 182 466 173 C466 151 450 128 418 105 L418 105 Z " />
<glyph glyph-name="dieresis" unicode="&#xa8;" horiz-adv-x="500" d="M365 646 C307 646 266 613 266 564 C266 517 308 484 368 484 C422 484 459 517 459 564 C459 612 421 646 365 646 L365 646 Z M139 647 C83 647 41 612 41 566 C41 520 83 486 140 486 C196 486 234 518 234 566 C234 614 195 647 139 647 L139 647 Z " />
<glyph glyph-name="copyright" unicode="&#xa9;" horiz-adv-x="753" d="M534 220 C493 169 452 146 403 146 C371 146 358 163 358 206 L358 465 C358 507 367 520 395 520 C431 520 469 499 497 465 C520 438 527 416 529 376 L551 376 L551 548 L485 513 C449 537 422 545 379 545 C249 545 159 458 159 333 C159 210 252 121 380 121 C454 121 504 146 555 207 L534 220 Z M377 680 C185 680 30 525 30 334 C30 144 185 -13 372 -13 C568 -13 723 140 723 334 C723 525 568 680 377 680 L377 680 Z M377 654 C550 654 692 510 692 334 C692 155 551 13 373 13 C203 13 61 159 61 334 C61 511 202 654 377 654 L377 654 Z " />
<glyph glyph-name="ordfeminine" unicode="&#xaa;" horiz-adv-x="395" d="M378 343 L17 343 L17 308 L378 308 L378 343 Z M367 480 C358 465 353 459 349 459 C347 459 346 462 346 468 L346 580 C346 623 333 642 294 657 C264 668 220 674 166 674 C92 674 49 651 49 611 C49 585 69 567 99 567 C131 567 152 586 152 613 C152 631 145 641 127 650 C138 653 148 654 154 654 C167 654 183 650 192 644 C201 637 204 629 204 607 L204 546 C185 552 159 555 132 555 C58 555 13 528 13 484 C13 441 59 410 121 410 C153 410 179 417 211 435 C231 417 248 410 275 410 C326 410 363 430 382 470 L367 480 Z M204 452 C189 445 176 441 167 441 C155 441 149 448 149 462 L149 510 C149 527 154 532 171 532 C181 532 192 530 204 526 L204 452 Z " />
<glyph glyph-name="guillemotleft" unicode="&#xab;" horiz-adv-x="545" d="M512 55 L372 208 L512 361 L362 361 L221 208 L359 55 L512 55 Z M313 55 L173 208 L313 361 L161 361 L20 208 L161 55 L313 55 Z " />
<glyph glyph-name="logicalnot" unicode="&#xac;" horiz-adv-x="500" d="M266 0 L475 0 L475 267 L26 267 L26 178 L266 178 L266 0 Z " />
<glyph glyph-name="uni00AD" unicode="&#xad;" horiz-adv-x="287" d="M287 151 L287 324 L0 324 L0 151 L287 151 Z " />
<glyph glyph-name="registered" unicode="&#xae;" horiz-adv-x="753" d="M588 210 C586 194 582 186 578 186 C572 186 570 193 570 208 C570 212 570 215 571 217 C575 251 575 251 575 262 C575 306 560 326 516 343 C557 362 578 393 578 437 C578 469 566 497 547 513 C529 527 502 533 458 533 L171 533 L171 513 L209 513 L209 153 L171 153 L171 133 L392 133 L392 153 L352 153 L352 333 L356 333 C414 334 417 332 416 270 C418 192 419 186 434 161 C449 137 476 125 518 125 C574 125 596 145 608 206 L588 210 Z M352 513 L369 513 C409 514 417 506 418 472 L418 396 C416 360 405 353 352 354 L352 513 Z M377 680 C185 680 30 525 30 334 C30 144 185 -13 372 -13 C568 -13 723 140 723 334 C723 525 568 680 377 680 L377 680 Z M377 654 C550 654 692 510 692 334 C692 155 551 13 373 13 C203 13 61 159 61 334 C61 511 202 654 377 654 L377 654 Z " />
<glyph glyph-name="macron" unicode="&#xaf;" horiz-adv-x="500" d="M400 601 L100 601 L100 530 L400 530 L400 601 Z " />
<glyph glyph-name="degree" unicode="&#xb0;" horiz-adv-x="400" d="M203 686 C117 686 50 619 50 534 C50 448 116 381 200 381 C284 381 350 448 350 533 C350 619 286 686 203 686 L203 686 Z M202 629 C252 629 293 586 293 534 C293 480 252 438 200 438 C148 438 106 481 106 533 C106 587 148 629 202 629 L202 629 Z " />
<glyph glyph-name="plusminus" unicode="&#xb1;" horiz-adv-x="667" d="M567 356 L354 356 L354 581 L312 581 L312 356 L100 356 L100 313 L312 313 L312 88 L354 88 L354 313 L567 313 L567 356 Z M567 43 L100 43 L100 0 L567 0 L567 43 Z " />
<glyph glyph-name="twosuperior" unicode="&#xb2;" horiz-adv-x="433" d="M40 255 C61 272 77 278 102 278 C127 278 154 275 203 266 C219 263 234 261 244 261 C289 261 322 278 351 317 C373 347 385 369 404 408 L383 420 C365 385 359 382 303 382 C289 382 272 383 253 385 C196 390 196 390 164 390 C178 395 181 396 208 401 C333 427 388 470 388 540 C388 624 313 676 190 676 C146 676 113 669 85 652 C52 633 31 603 31 574 C31 539 62 510 98 510 C135 510 162 537 162 572 C162 605 138 631 106 631 C101 631 95 631 88 630 C108 645 124 651 147 651 C170 651 192 643 206 630 C220 615 226 594 226 556 C226 482 205 443 146 404 C71 357 37 320 22 265 L40 255 Z " />
<glyph glyph-name="threesuperior" unicode="&#xb3;" horiz-adv-x="433" d="M223 532 C224 508 218 502 197 502 L161 502 L161 479 L190 479 C220 478 224 473 223 446 L223 327 L224 312 C224 292 205 280 175 280 C140 280 110 289 91 304 C101 301 107 300 115 300 C147 300 170 323 170 355 C170 388 144 412 110 412 C73 412 45 385 45 350 C45 293 104 257 198 257 C252 257 309 269 335 285 C371 307 392 341 392 379 C392 407 379 436 357 456 C340 471 324 479 286 490 C351 502 377 526 377 575 C377 638 315 676 212 676 C117 676 62 646 62 595 C62 563 86 540 120 540 C155 540 181 563 181 594 C181 623 166 640 135 648 C154 653 164 654 178 654 C215 654 223 646 223 612 L223 532 Z " />
<glyph glyph-name="acute" unicode="&#xb4;" horiz-adv-x="500" d="M215 483 L248 483 L418 596 L418 623 L251 623 L215 483 Z " />
<glyph glyph-name="mu" unicode="&#xb5;" horiz-adv-x="576" d="M442 500 L353 500 L354 131 C318 80 284 58 242 58 C184 58 150 99 150 169 L150 500 L62 500 L62 20 C62 -1 58 -26 51 -56 C34 -118 33 -123 33 -147 C33 -190 54 -219 83 -219 C112 -219 132 -189 132 -145 C132 -124 129 -111 113 -53 C102 -17 101 -8 101 21 L101 33 C143 -3 165 -13 200 -13 C250 -13 301 18 354 80 C362 48 367 36 377 21 C392 0 419 -13 449 -13 C510 -13 553 31 567 108 L540 109 C536 71 515 41 492 41 C462 41 442 77 442 131 L442 500 Z " />
<glyph glyph-name="paragraph" unicode="&#xb6;" horiz-adv-x="822" d="M803 700 L247 700 C176 700 150 693 114 667 C60 628 27 550 27 460 C27 360 71 275 140 244 C167 231 194 227 254 227 L299 227 L299 -233 L219 -233 L219 -253 L478 -253 L478 680 L544 680 L544 -253 L803 -253 L803 -233 L723 -233 L723 680 L803 680 L803 700 Z M300 251 L272 251 C242 253 228 288 229 355 L229 576 C228 643 242 678 272 680 L300 680 L300 251 Z " />
<glyph glyph-name="periodcentered" unicode="&#xb7;" horiz-adv-x="315" d="M158 296 C93 296 40 256 40 208 C40 156 93 116 161 116 C226 116 275 153 275 201 C275 255 224 296 158 296 L158 296 Z " />
<glyph glyph-name="cedilla" unicode="&#xb8;" horiz-adv-x="500" d="M245 0 L189 -83 L201 -94 C209 -88 215 -86 225 -86 C245 -86 260 -102 260 -124 C260 -155 238 -172 198 -172 C174 -172 157 -169 128 -158 L120 -175 C162 -193 194 -199 249 -199 C335 -199 379 -173 379 -123 C379 -82 342 -55 286 -55 C265 -55 250 -58 227 -65 L270 0 L245 0 Z " />
<glyph glyph-name="onesuperior" unicode="&#xb9;" horiz-adv-x="433" d="M342 266 L342 287 L293 287 L293 682 C242 655 213 649 137 647 L91 647 L91 627 L141 627 L141 287 L91 287 L91 266 L342 266 Z " />
<glyph glyph-name="ordmasculine" unicode="&#xba;" horiz-adv-x="396" d="M377 343 L17 343 L17 308 L377 308 L377 343 Z M197 674 C88 674 16 620 16 538 C16 461 88 410 197 410 C308 410 379 459 379 537 C379 620 308 674 197 674 L197 674 Z M225 463 C225 438 217 429 196 429 C176 429 170 437 170 463 L170 620 C170 648 177 657 198 657 C219 657 225 649 225 622 L225 463 Z " />
<glyph glyph-name="guillemotright" unicode="&#xbb;" horiz-adv-x="545" d="M33 361 L173 208 L33 55 L183 55 L324 208 L186 361 L33 361 Z M232 361 L372 208 L232 55 L384 55 L525 208 L384 361 L232 361 Z " />
<glyph glyph-name="onequarter" unicode="&#xbc;" horiz-adv-x="946" d="M342 266 L342 287 L293 287 L293 682 C242 655 213 649 137 647 L91 647 L91 627 L141 627 L141 287 L91 287 L91 266 L342 266 Z M287 -13 L689 680 L660 680 L258 -13 L287 -13 Z M917 0 L917 21 L873 21 L873 96 L917 96 L917 117 L873 117 L873 400 L746 400 L526 96 L720 96 L720 21 L662 21 L662 0 L917 0 Z M720 117 L567 117 L720 328 L720 117 Z " />
<glyph glyph-name="onehalf" unicode="&#xbd;" horiz-adv-x="946" d="M342 266 L342 287 L293 287 L293 682 C242 655 213 649 137 647 L91 647 L91 627 L141 627 L141 287 L91 287 L91 266 L342 266 Z M287 -13 L689 680 L660 680 L258 -13 L287 -13 Z M552 -12 C574 5 589 11 614 11 C629 11 667 7 681 5 C738 -7 741 -7 757 -7 C801 -7 834 11 863 50 C885 79 898 101 916 141 L895 152 C877 118 871 115 815 115 C801 115 784 116 765 117 C711 122 710 122 676 123 C690 128 694 129 720 134 C845 161 900 203 900 273 C900 357 824 409 702 409 C657 409 625 402 597 385 C564 366 543 335 543 306 C543 271 574 242 610 242 C647 242 674 269 674 305 C674 338 650 364 618 364 C614 364 607 363 600 362 C620 378 636 384 659 384 C682 384 705 376 718 363 C732 349 738 327 738 289 C738 215 717 176 658 137 C583 90 549 53 534 -2 L552 -12 Z " />
<glyph glyph-name="threequarters" unicode="&#xbe;" horiz-adv-x="946" d="M224 532 C224 508 217 501 197 502 L161 502 L161 479 L190 479 C219 478 224 473 224 446 L224 327 C224 291 212 280 175 280 C140 280 110 289 91 304 C101 301 107 300 115 300 C147 300 170 323 170 355 C170 388 144 412 110 412 C73 412 45 385 45 350 C45 293 104 257 198 257 C253 257 309 268 336 285 C371 307 393 343 393 379 C393 406 379 436 357 456 C340 471 324 479 286 490 C351 502 377 526 377 575 C377 638 316 676 212 676 C117 676 62 646 62 595 C62 563 86 540 120 540 C155 540 181 563 181 594 C181 623 166 640 135 648 C154 653 164 654 178 654 C214 654 224 645 224 612 L224 532 Z M287 -13 L690 680 L660 680 L258 -13 L287 -13 Z M917 0 L917 21 L873 21 L873 96 L917 96 L917 117 L873 117 L873 400 L746 400 L526 96 L720 96 L720 21 L662 21 L662 0 L917 0 Z M720 117 L567 117 L720 328 L720 117 Z " />
<glyph glyph-name="questiondown" unicode="&#xbf;" horiz-adv-x="475" d="M287 420 C227 420 180 388 180 348 C180 305 228 270 287 270 C346 270 393 303 393 343 C393 386 346 420 287 420 L287 420 Z M299 256 L273 221 C217 218 177 208 140 190 C66 153 20 75 20 -11 C20 -147 139 -264 277 -264 C367 -264 448 -192 448 -112 C448 -56 412 -18 357 -18 C303 -18 267 -52 267 -102 C267 -153 304 -190 355 -190 C371 -190 381 -188 397 -180 C365 -220 335 -237 295 -237 C223 -237 157 -161 157 -76 C157 6 218 57 323 60 L299 256 Z " />
<glyph glyph-name="Agrave" unicode="&#xc0;" horiz-adv-x="782" d="M778 0 L778 23 L741 23 L517 667 L289 667 L112 174 C74 83 35 28 3 23 L3 0 L262 0 L262 23 C222 24 200 30 180 47 C156 67 141 105 141 148 C141 165 143 179 150 205 L382 205 L445 23 L369 23 L369 0 L778 0 Z M375 228 L158 228 L266 539 L375 228 Z M489 716 L451 856 L276 856 L276 829 L462 716 L489 716 Z " />
<glyph glyph-name="Aacute" unicode="&#xc1;" horiz-adv-x="782" d="M778 0 L778 23 L741 23 L517 667 L289 667 L112 174 C74 83 35 28 3 23 L3 0 L262 0 L262 23 C222 24 200 30 180 47 C156 67 141 105 141 148 C141 165 143 179 150 205 L382 205 L445 23 L369 23 L369 0 L778 0 Z M375 228 L158 228 L266 539 L375 228 Z M364 716 L391 716 L577 829 L577 856 L402 856 L364 716 Z " />
<glyph glyph-name="Acircumflex" unicode="&#xc2;" horiz-adv-x="782" d="M778 0 L778 23 L741 23 L517 667 L289 667 L112 174 C74 83 35 28 3 23 L3 0 L262 0 L262 23 C222 24 200 30 180 47 C156 67 141 105 141 148 C141 165 143 179 150 205 L382 205 L445 23 L369 23 L369 0 L778 0 Z M375 228 L158 228 L266 539 L375 228 Z M596 758 C530 782 480 823 461 869 L346 869 C328 823 277 782 212 758 L221 728 C281 732 344 750 404 780 C465 750 527 732 586 728 L596 758 Z " />
<glyph glyph-name="Atilde" unicode="&#xc3;" horiz-adv-x="782" d="M778 0 L778 23 L741 23 L517 667 L289 667 L112 174 C74 83 35 28 3 23 L3 0 L262 0 L262 23 C222 24 200 30 180 47 C156 67 141 105 141 148 C141 165 143 179 150 205 L382 205 L445 23 L369 23 L369 0 L778 0 Z M375 228 L158 228 L266 539 L375 228 Z M580 850 C563 835 551 829 535 829 C519 829 504 832 463 846 C418 860 395 865 371 865 C323 865 300 851 220 771 L238 756 C256 773 264 777 278 777 C290 777 295 775 334 759 C367 746 397 739 425 739 C458 739 492 748 519 765 C542 778 554 789 587 828 C590 832 593 836 596 839 L580 850 Z " />
<glyph glyph-name="Adieresis" unicode="&#xc4;" horiz-adv-x="782" d="M778 0 L778 23 L741 23 L517 667 L289 667 L112 174 C74 83 35 28 3 23 L3 0 L262 0 L262 23 C222 24 200 30 180 47 C156 67 141 105 141 148 C141 165 143 179 150 205 L382 205 L445 23 L369 23 L369 0 L778 0 Z M375 228 L158 228 L266 539 L375 228 Z M539 886 C481 886 440 853 440 804 C440 757 482 724 542 724 C596 724 633 757 633 804 C633 852 595 886 539 886 L539 886 Z M267 887 C211 887 169 852 169 806 C169 760 211 725 268 725 C324 725 362 758 362 805 C362 854 323 887 267 887 L267 887 Z " />
<glyph glyph-name="Aring" unicode="&#xc5;" horiz-adv-x="782" d="M778 0 L778 23 L741 23 L517 667 L289 667 L112 174 C74 83 35 28 3 23 L3 0 L262 0 L262 23 C222 24 200 30 180 47 C156 67 141 105 141 148 C141 165 143 179 150 205 L382 205 L445 23 L369 23 L369 0 L778 0 Z M375 228 L158 228 L266 539 L375 228 Z M406 906 C325 906 267 866 267 811 C267 755 321 718 404 718 C485 718 541 755 541 810 C541 866 484 906 406 906 L406 906 Z M405 877 C466 877 512 848 512 810 C512 773 468 747 404 747 C339 747 296 772 296 811 C296 849 342 877 405 877 L405 877 Z " />
<glyph glyph-name="AE" unicode="&#xc6;" horiz-adv-x="1088" d="M1028 0 L1028 249 L1006 249 C986 165 970 135 919 91 C859 43 831 33 730 23 L730 333 C817 336 867 279 866 180 L890 180 L890 511 L866 511 C863 403 823 357 730 355 L730 643 C879 647 961 586 983 457 L1006 457 L1006 667 L382 667 L382 644 L462 644 L137 170 C94 101 35 41 -7 23 L-7 0 L213 0 L213 23 C164 29 135 56 135 94 C135 115 135 115 170 173 L192 205 L458 205 L458 23 L378 23 L378 0 L1028 0 Z M458 230 L208 230 L458 594 L458 230 Z " />
<glyph glyph-name="Ccedilla" unicode="&#xc7;" horiz-adv-x="700" d="M348 -19 C365 -20 372 -20 382 -20 C495 -20 574 20 653 117 L630 133 C565 50 496 10 417 10 C361 10 338 41 338 117 L338 557 C338 597 340 614 348 627 C358 647 378 657 404 657 C464 657 528 621 574 562 C609 516 624 475 626 412 L649 412 L649 687 L548 631 C490 673 448 687 379 687 C172 687 30 543 30 334 C30 150 147 11 323 -16 L276 -83 L288 -94 C297 -88 303 -86 313 -86 C335 -86 350 -102 350 -124 C350 -155 327 -172 285 -172 C260 -172 242 -169 212 -158 L203 -175 C247 -193 282 -199 339 -199 C386 -199 413 -195 436 -183 C461 -170 476 -148 476 -123 C476 -82 437 -55 378 -55 C356 -55 340 -58 315 -65 L348 -19 Z " />
<glyph glyph-name="Egrave" unicode="&#xc8;" horiz-adv-x="746" d="M686 0 L686 246 L664 246 C644 115 535 26 388 23 L388 331 L408 331 C478 331 528 266 525 179 L546 179 L546 511 L525 511 C528 418 483 357 409 355 L388 355 L388 644 C529 654 631 578 642 457 L664 457 L664 667 L23 667 L23 644 L101 644 L101 23 L23 23 L23 0 L686 0 Z M444 716 L407 856 L232 856 L232 829 L418 716 L444 716 Z " />
<glyph glyph-name="Eacute" unicode="&#xc9;" horiz-adv-x="746" d="M686 0 L686 246 L664 246 C644 115 535 26 388 23 L388 331 L408 331 C478 331 528 266 525 179 L546 179 L546 511 L525 511 C528 418 483 357 409 355 L388 355 L388 644 C529 654 631 578 642 457 L664 457 L664 667 L23 667 L23 644 L101 644 L101 23 L23 23 L23 0 L686 0 Z M328 716 L354 716 L540 829 L540 856 L365 856 L328 716 Z " />
<glyph glyph-name="Ecircumflex" unicode="&#xca;" horiz-adv-x="746" d="M686 0 L686 246 L664 246 C644 115 535 26 388 23 L388 331 L408 331 C478 331 528 266 525 179 L546 179 L546 511 L525 511 C528 418 483 357 409 355 L388 355 L388 644 C529 654 631 578 642 457 L664 457 L664 667 L23 667 L23 644 L101 644 L101 23 L23 23 L23 0 L686 0 Z M577 758 C512 782 462 823 443 869 L328 869 C309 823 259 782 193 758 L203 728 C262 732 325 750 385 780 C446 750 508 732 568 728 L577 758 Z " />
<glyph glyph-name="Edieresis" unicode="&#xcb;" horiz-adv-x="746" d="M686 0 L686 246 L664 246 C644 115 535 26 388 23 L388 331 L408 331 C478 331 528 266 525 179 L546 179 L546 511 L525 511 C528 418 483 357 409 355 L388 355 L388 644 C529 654 631 578 642 457 L664 457 L664 667 L23 667 L23 644 L101 644 L101 23 L23 23 L23 0 L686 0 Z M502 886 C444 886 403 853 403 804 C403 757 445 724 505 724 C559 724 597 757 597 804 C597 852 558 886 502 886 L502 886 Z M230 887 C174 887 132 852 132 806 C132 760 174 725 231 725 C287 725 325 758 325 805 C325 854 286 887 230 887 L230 887 Z " />
<glyph glyph-name="Igrave" unicode="&#xcc;" horiz-adv-x="493" d="M470 0 L470 23 L392 23 L392 644 L470 644 L470 667 L23 667 L23 644 L101 644 L101 23 L23 23 L23 0 L470 0 Z M345 716 L307 856 L132 856 L132 829 L318 716 L345 716 Z " />
<glyph glyph-name="Iacute" unicode="&#xcd;" horiz-adv-x="493" d="M470 0 L470 23 L392 23 L392 644 L470 644 L470 667 L23 667 L23 644 L101 644 L101 23 L23 23 L23 0 L470 0 Z M220 716 L247 716 L433 829 L433 856 L258 856 L220 716 Z " />
<glyph glyph-name="Icircumflex" unicode="&#xce;" horiz-adv-x="493" d="M470 0 L470 23 L392 23 L392 644 L470 644 L470 667 L23 667 L23 644 L101 644 L101 23 L23 23 L23 0 L470 0 Z M438 758 C373 782 323 823 304 869 L189 869 C170 823 120 782 54 758 L64 728 C123 732 186 750 246 780 C307 750 369 732 429 728 L438 758 Z " />
<glyph glyph-name="Idieresis" unicode="&#xcf;" horiz-adv-x="493" d="M470 0 L470 23 L392 23 L392 644 L470 644 L470 667 L23 667 L23 644 L101 644 L101 23 L23 23 L23 0 L470 0 Z M357 886 C303 886 265 852 265 804 C265 757 304 724 360 724 C410 724 445 757 445 804 C445 853 409 886 357 886 L357 886 Z M138 887 C86 887 47 852 47 806 C47 760 86 725 139 725 C191 725 227 758 227 805 C227 854 191 887 138 887 L138 887 Z " />
<glyph glyph-name="Eth" unicode="&#xd0;" horiz-adv-x="863" d="M23 340 L101 340 L101 23 L23 23 L23 0 L547 0 C626 0 685 26 737 84 C797 152 833 246 833 339 C833 436 793 534 727 598 C678 646 615 667 524 667 L23 667 L23 644 L101 644 L101 363 L23 363 L23 340 Z M388 363 L388 644 L438 644 C502 645 512 632 512 549 L512 118 C514 45 493 22 428 23 L388 23 L388 340 L449 340 L449 363 L388 363 Z " />
<glyph glyph-name="Ntilde" unicode="&#xd1;" horiz-adv-x="821" d="M702 0 L702 457 C702 573 743 645 807 644 L807 667 L540 667 L540 644 L562 644 C637 646 673 583 675 449 L675 295 L398 667 L13 667 L13 644 L75 644 L119 582 L119 192 C116 87 75 23 13 23 L13 0 L270 0 L270 23 C189 21 145 93 146 228 L146 545 L540 0 L702 0 Z M595 850 C578 835 566 829 549 829 C533 829 519 832 478 846 C433 860 410 865 386 865 C338 865 315 851 235 771 L253 756 C271 773 279 777 293 777 C305 777 310 775 349 759 C382 746 412 739 440 739 C472 739 507 748 534 765 C557 778 569 789 602 828 C605 832 608 836 611 839 L595 850 Z " />
<glyph glyph-name="Ograve" unicode="&#xd2;" horiz-adv-x="805" d="M401 687 C291 687 202 656 132 593 C64 531 30 447 30 338 C30 212 72 121 162 53 C226 4 307 -20 407 -20 C513 -20 595 7 654 60 C731 129 775 227 775 332 C775 554 634 687 401 687 L401 687 Z M349 601 C349 644 367 666 403 666 C438 666 456 644 456 601 L456 68 C456 21 440 1 402 1 C365 1 349 21 349 68 L349 601 Z M463 716 L425 856 L250 856 L250 829 L436 716 L463 716 Z " />
<glyph glyph-name="Oacute" unicode="&#xd3;" horiz-adv-x="805" d="M401 687 C291 687 202 656 132 593 C64 531 30 447 30 338 C30 212 72 121 162 53 C226 4 307 -20 407 -20 C513 -20 595 7 654 60 C731 129 775 227 775 332 C775 554 634 687 401 687 L401 687 Z M349 601 C349 644 367 666 403 666 C438 666 456 644 456 601 L456 68 C456 21 440 1 402 1 C365 1 349 21 349 68 L349 601 Z M376 716 L403 716 L589 829 L589 856 L414 856 L376 716 Z " />
<glyph glyph-name="Ocircumflex" unicode="&#xd4;" horiz-adv-x="805" d="M401 687 C291 687 202 656 132 593 C64 531 30 447 30 338 C30 212 72 121 162 53 C226 4 307 -20 407 -20 C513 -20 595 7 654 60 C731 129 775 227 775 332 C775 554 634 687 401 687 L401 687 Z M349 601 C349 644 367 666 403 666 C438 666 456 644 456 601 L456 68 C456 21 440 1 402 1 C365 1 349 21 349 68 L349 601 Z M594 758 C529 782 479 823 460 869 L345 869 C326 823 276 782 210 758 L220 728 C279 732 342 750 402 780 C463 750 525 732 585 728 L594 758 Z " />
<glyph glyph-name="Otilde" unicode="&#xd5;" horiz-adv-x="805" d="M401 687 C291 687 202 656 132 593 C64 531 30 447 30 338 C30 212 72 121 162 53 C226 4 307 -20 407 -20 C513 -20 595 7 654 60 C731 129 775 227 775 332 C775 554 634 687 401 687 L401 687 Z M349 601 C349 644 367 666 403 666 C438 666 456 644 456 601 L456 68 C456 21 440 1 402 1 C365 1 349 21 349 68 L349 601 Z M574 850 C557 835 545 829 529 829 C513 829 498 832 457 846 C412 860 390 865 365 865 C317 865 294 851 214 771 L233 756 C250 773 258 777 272 777 C284 777 290 775 328 759 C362 746 391 739 419 739 C452 739 486 748 514 765 C536 778 548 789 581 828 C585 832 587 836 591 839 L574 850 Z " />
<glyph glyph-name="Odieresis" unicode="&#xd6;" horiz-adv-x="805" d="M401 687 C291 687 202 656 132 593 C64 531 30 447 30 338 C30 212 72 121 162 53 C226 4 307 -20 407 -20 C513 -20 595 7 654 60 C731 129 775 227 775 332 C775 554 634 687 401 687 L401 687 Z M349 601 C349 644 367 666 403 666 C438 666 456 644 456 601 L456 68 C456 21 440 1 402 1 C365 1 349 21 349 68 L349 601 Z M540 886 C482 886 441 853 441 804 C441 757 483 724 543 724 C597 724 635 757 635 804 C635 852 596 886 540 886 L540 886 Z M268 887 C212 887 170 852 170 806 C170 760 212 725 269 725 C325 725 363 758 363 805 C363 854 324 887 268 887 L268 887 Z " />
<glyph glyph-name="multiply" unicode="&#xd7;" horiz-adv-x="667" d="M494 524 L333 364 L165 533 L135 503 L304 334 L144 175 L174 145 L334 304 L503 136 L532 165 L364 334 L524 494 L494 524 Z " />
<glyph glyph-name="Oslash" unicode="&#xd8;" horiz-adv-x="805" d="M51 58 L109 101 C181 19 278 -20 407 -20 C512 -20 595 7 654 60 C732 130 775 227 775 335 C775 415 754 488 714 548 L767 587 L753 608 L699 568 C633 646 531 687 402 687 C175 687 30 551 30 338 C30 247 49 182 93 121 L35 79 L51 58 Z M456 396 L349 303 L349 601 C349 644 367 666 403 666 C438 666 456 644 456 601 L456 396 Z M349 271 L456 364 L456 68 C456 21 440 1 402 1 C365 1 349 21 349 68 L349 271 Z " />
<glyph glyph-name="Ugrave" unicode="&#xd9;" horiz-adv-x="770" d="M756 667 L503 667 L503 644 C586 648 625 580 624 437 L624 180 C624 130 611 94 582 68 C549 38 500 18 457 18 C431 18 410 26 399 39 C388 52 385 69 385 110 L385 644 L455 644 L455 667 L20 667 L20 644 L98 644 L98 176 C98 102 116 69 173 36 C233 2 325 -20 411 -20 C557 -20 651 55 651 170 L651 467 C652 575 692 644 756 644 L756 667 Z M489 716 L451 856 L276 856 L276 829 L462 716 L489 716 Z " />
<glyph glyph-name="Uacute" unicode="&#xda;" horiz-adv-x="770" d="M756 667 L503 667 L503 644 C586 648 625 580 624 437 L624 180 C624 130 611 94 582 68 C549 38 500 18 457 18 C431 18 410 26 399 39 C388 52 385 69 385 110 L385 644 L455 644 L455 667 L20 667 L20 644 L98 644 L98 176 C98 102 116 69 173 36 C233 2 325 -20 411 -20 C557 -20 651 55 651 170 L651 467 C652 575 692 644 756 644 L756 667 Z M402 716 L429 716 L615 829 L615 856 L440 856 L402 716 Z " />
<glyph glyph-name="Ucircumflex" unicode="&#xdb;" horiz-adv-x="770" d="M756 667 L503 667 L503 644 C586 648 625 580 624 437 L624 180 C624 130 611 94 582 68 C549 38 500 18 457 18 C431 18 410 26 399 39 C388 52 385 69 385 110 L385 644 L455 644 L455 667 L20 667 L20 644 L98 644 L98 176 C98 102 116 69 173 36 C233 2 325 -20 411 -20 C557 -20 651 55 651 170 L651 467 C652 575 692 644 756 644 L756 667 Z M606 758 C540 782 490 823 471 869 L356 869 C338 823 287 782 222 758 L231 728 C291 732 354 750 414 780 C474 750 537 732 596 728 L606 758 Z " />
<glyph glyph-name="Udieresis" unicode="&#xdc;" horiz-adv-x="770" d="M756 667 L503 667 L503 644 C586 648 625 580 624 437 L624 180 C624 130 611 94 582 68 C549 38 500 18 457 18 C431 18 410 26 399 39 C388 52 385 69 385 110 L385 644 L455 644 L455 667 L20 667 L20 644 L98 644 L98 176 C98 102 116 69 173 36 C233 2 325 -20 411 -20 C557 -20 651 55 651 170 L651 467 C652 575 692 644 756 644 L756 667 Z M550 886 C492 886 451 853 451 804 C451 757 493 724 553 724 C607 724 644 757 644 804 C644 852 606 886 550 886 L550 886 Z M278 887 C221 887 179 852 179 806 C179 759 222 725 279 725 C335 725 373 758 373 805 C373 854 334 887 278 887 L278 887 Z " />
<glyph glyph-name="Yacute" unicode="&#xdd;" horiz-adv-x="764" d="M764 667 L537 667 L537 644 C567 642 578 640 589 634 C608 623 622 597 622 571 C622 550 612 518 596 489 L523 358 L368 644 L440 644 L440 667 L0 667 L0 644 L42 644 L250 260 L250 23 L167 23 L167 0 L626 0 L626 23 L537 23 L537 328 L633 500 C678 580 719 625 764 644 L764 667 Z M406 716 L433 716 L619 829 L619 856 L444 856 L406 716 Z " />
<glyph glyph-name="Thorn" unicode="&#xde;" horiz-adv-x="812" d="M468 0 L468 23 L388 23 L388 182 L506 182 C597 182 662 194 701 217 C753 249 786 316 786 391 C786 460 756 524 710 554 C681 573 655 578 568 580 L388 580 L388 644 L468 644 L468 667 L23 667 L23 644 L101 644 L101 23 L23 23 L23 0 L468 0 Z M388 206 L388 557 L424 557 C482 558 492 543 494 455 L494 280 C494 228 473 206 422 205 L396 206 L388 206 Z " />
<glyph glyph-name="germandbls" unicode="&#xdf;" horiz-adv-x="685" d="M333 0 C374 -7 402 -10 432 -10 C570 -10 666 76 666 200 C666 261 640 315 596 345 C559 371 523 381 442 385 C510 392 541 402 569 425 C597 448 615 487 615 527 C615 626 529 684 380 684 C316 684 255 675 209 658 C147 636 111 602 90 545 C77 510 74 482 74 397 L74 20 L7 20 L7 0 L301 0 L301 598 C301 646 316 666 352 666 C385 666 398 650 398 608 L398 471 C396 406 386 392 333 391 L333 371 C385 372 398 358 398 300 L398 88 C396 41 384 27 333 17 L333 0 Z " />
<glyph glyph-name="agrave" unicode="&#xe0;" horiz-adv-x="617" d="M589 88 C570 58 565 53 557 53 C553 53 551 59 551 78 L551 267 C551 338 532 367 471 391 C424 410 354 420 267 420 C149 420 84 384 84 319 C84 272 118 240 168 240 C217 240 249 271 249 319 C249 357 233 378 196 390 C210 395 222 397 241 397 C268 397 291 390 306 379 C323 366 327 352 327 313 L327 213 C289 226 256 231 212 231 C162 231 125 224 96 209 C53 187 27 148 27 107 C27 38 97 -13 193 -13 C244 -13 281 -1 332 31 C367 -1 397 -13 442 -13 C520 -13 578 19 607 78 L589 88 Z M327 48 C298 32 286 27 272 27 C252 27 241 41 241 68 L241 161 C241 192 251 204 278 204 C292 204 303 201 327 192 L327 48 Z M409 483 L373 623 L206 623 L206 596 L375 483 L409 483 Z " />
<glyph glyph-name="aacute" unicode="&#xe1;" horiz-adv-x="617" d="M589 88 C570 58 565 53 557 53 C553 53 551 59 551 78 L551 267 C551 338 532 367 471 391 C424 410 354 420 267 420 C149 420 84 384 84 319 C84 272 118 240 168 240 C217 240 249 271 249 319 C249 357 233 378 196 390 C210 395 222 397 241 397 C268 397 291 390 306 379 C323 366 327 352 327 313 L327 213 C289 226 256 231 212 231 C162 231 125 224 96 209 C53 187 27 148 27 107 C27 38 97 -13 193 -13 C244 -13 281 -1 332 31 C367 -1 397 -13 442 -13 C520 -13 578 19 607 78 L589 88 Z M327 48 C298 32 286 27 272 27 C252 27 241 41 241 68 L241 161 C241 192 251 204 278 204 C292 204 303 201 327 192 L327 48 Z M293 483 L327 483 L496 596 L496 623 L329 623 L293 483 Z " />
<glyph glyph-name="acircumflex" unicode="&#xe2;" horiz-adv-x="617" d="M589 88 C570 58 565 53 557 53 C553 53 551 59 551 78 L551 267 C551 338 532 367 471 391 C424 410 354 420 267 420 C149 420 84 384 84 319 C84 272 118 240 168 240 C217 240 249 271 249 319 C249 357 233 378 196 390 C210 395 222 397 241 397 C268 397 291 390 306 379 C323 366 327 352 327 313 L327 213 C289 226 256 231 212 231 C162 231 125 224 96 209 C53 187 27 148 27 107 C27 38 97 -13 193 -13 C244 -13 281 -1 332 31 C367 -1 397 -13 442 -13 C520 -13 578 19 607 78 L589 88 Z M327 48 C298 32 286 27 272 27 C252 27 241 41 241 68 L241 161 C241 192 251 204 278 204 C292 204 303 201 327 192 L327 48 Z M511 525 C448 549 401 590 383 636 L273 636 C255 590 207 549 145 525 L154 495 C211 499 270 517 328 547 C386 517 445 499 502 495 L511 525 Z " />
<glyph glyph-name="atilde" unicode="&#xe3;" horiz-adv-x="617" d="M589 88 C570 58 565 53 557 53 C553 53 551 59 551 78 L551 267 C551 338 532 367 471 391 C424 410 354 420 267 420 C149 420 84 384 84 319 C84 272 118 240 168 240 C217 240 249 271 249 319 C249 357 233 378 196 390 C210 395 222 397 241 397 C268 397 291 390 306 379 C323 366 327 352 327 313 L327 213 C289 226 256 231 212 231 C162 231 125 224 96 209 C53 187 27 148 27 107 C27 38 97 -13 193 -13 C244 -13 281 -1 332 31 C367 -1 397 -13 442 -13 C520 -13 578 19 607 78 L589 88 Z M327 48 C298 32 286 27 272 27 C252 27 241 41 241 68 L241 161 C241 192 251 204 278 204 C292 204 303 201 327 192 L327 48 Z M497 606 L481 617 C464 600 454 595 438 595 C422 595 409 598 370 612 C327 627 305 632 282 632 C237 632 212 616 138 538 L156 523 C172 539 180 543 193 543 C205 543 210 541 247 525 C279 512 307 505 333 505 C365 505 397 514 423 531 C445 545 457 556 488 595 L497 606 Z " />
<glyph glyph-name="adieresis" unicode="&#xe4;" horiz-adv-x="617" d="M589 88 C570 58 565 53 557 53 C553 53 551 59 551 78 L551 267 C551 338 532 367 471 391 C424 410 354 420 267 420 C149 420 84 384 84 319 C84 272 118 240 168 240 C217 240 249 271 249 319 C249 357 233 378 196 390 C210 395 222 397 241 397 C268 397 291 390 306 379 C323 366 327 352 327 313 L327 213 C289 226 256 231 212 231 C162 231 125 224 96 209 C53 187 27 148 27 107 C27 38 97 -13 193 -13 C244 -13 281 -1 332 31 C367 -1 397 -13 442 -13 C520 -13 578 19 607 78 L589 88 Z M327 48 C298 32 286 27 272 27 C252 27 241 41 241 68 L241 161 C241 192 251 204 278 204 C292 204 303 201 327 192 L327 48 Z M438 646 C380 646 339 613 339 564 C339 517 381 484 441 484 C495 484 533 517 533 564 C533 612 494 646 438 646 L438 646 Z M213 647 C157 647 115 612 115 566 C115 520 157 486 214 486 C270 486 308 518 308 566 C308 614 269 647 213 647 L213 647 Z " />
<glyph glyph-name="aring" unicode="&#xe5;" horiz-adv-x="617" d="M589 88 C570 58 565 53 557 53 C553 53 551 59 551 78 L551 267 C551 338 532 367 471 391 C424 410 354 420 267 420 C149 420 84 384 84 319 C84 272 118 240 168 240 C217 240 249 271 249 319 C249 357 233 378 196 390 C210 395 222 397 241 397 C268 397 291 390 306 379 C323 366 327 352 327 313 L327 213 C289 226 256 231 212 231 C162 231 125 224 96 209 C53 187 27 148 27 107 C27 38 97 -13 193 -13 C244 -13 281 -1 332 31 C367 -1 397 -13 442 -13 C520 -13 578 19 607 78 L589 88 Z M327 48 C298 32 286 27 272 27 C252 27 241 41 241 68 L241 161 C241 192 251 204 278 204 C292 204 303 201 327 192 L327 48 Z M325 672 C259 672 206 632 206 582 C206 531 258 490 324 490 C389 490 441 531 441 582 C441 631 388 672 325 672 L325 672 Z M324 645 C370 645 410 616 410 581 C410 546 371 517 322 517 C274 517 235 546 235 581 C235 617 274 645 324 645 L324 645 Z " />
<glyph glyph-name="ae" unicode="&#xe6;" horiz-adv-x="831" d="M787 130 C739 66 662 18 605 18 C585 18 567 28 557 43 C548 58 546 67 546 101 L546 207 L811 207 C784 340 696 420 575 420 C535 420 500 414 455 398 C396 413 335 420 272 420 C149 420 82 384 82 319 C82 273 115 240 162 240 C210 240 243 273 243 320 C243 356 230 375 194 391 C209 396 220 398 237 398 C267 398 289 392 303 381 C321 367 325 350 325 298 L325 214 C277 225 248 229 212 229 C96 229 27 183 27 106 C27 37 96 -13 193 -13 C234 -13 275 -2 304 18 C319 28 329 36 355 61 C407 10 472 -13 566 -13 C633 -13 676 0 724 35 C759 60 782 83 802 112 L787 130 Z M640 227 L546 227 L546 337 C546 381 560 399 594 399 C627 399 640 382 640 339 L640 227 Z M240 157 C240 192 249 204 274 204 C288 204 302 200 325 191 L325 142 C326 108 330 94 342 78 C312 43 290 27 269 27 C249 27 240 42 240 78 L240 157 Z " />
<glyph glyph-name="ccedilla" unicode="&#xe7;" horiz-adv-x="500" d="M262 -13 C364 -16 423 12 473 85 L455 95 C416 43 370 15 321 15 C274 15 261 32 261 95 L261 338 C261 385 274 399 316 399 C353 399 379 391 399 374 C386 377 380 378 373 378 C335 378 304 344 304 300 C304 256 338 224 386 224 C433 224 466 256 466 304 C466 376 400 420 294 420 C136 420 20 326 20 198 C20 120 63 52 133 16 C164 0 193 -7 238 -12 L190 -83 L201 -94 C210 -88 216 -86 225 -86 C246 -86 261 -102 261 -124 C261 -155 239 -172 199 -172 C175 -172 158 -169 128 -158 L120 -175 C162 -193 195 -199 250 -199 C336 -199 380 -173 380 -123 C380 -82 343 -55 287 -55 C266 -55 251 -58 227 -65 L262 -13 Z " />
<glyph glyph-name="egrave" unicode="&#xe8;" horiz-adv-x="543" d="M499 131 C454 69 375 20 321 20 C296 20 281 28 270 48 C262 61 259 80 259 121 L259 209 L523 209 C506 335 411 420 289 420 C135 420 20 325 20 197 C20 77 133 -13 283 -13 C374 -13 456 32 515 114 L499 131 Z M352 230 L259 230 L259 348 C259 384 275 401 307 401 C339 401 352 385 352 347 L352 230 Z M363 483 L327 623 L160 623 L160 596 L330 483 L363 483 Z " />
<glyph glyph-name="eacute" unicode="&#xe9;" horiz-adv-x="543" d="M499 131 C454 69 375 20 321 20 C296 20 281 28 270 48 C262 61 259 80 259 121 L259 209 L523 209 C506 335 411 420 289 420 C135 420 20 325 20 197 C20 77 133 -13 283 -13 C374 -13 456 32 515 114 L499 131 Z M352 230 L259 230 L259 348 C259 384 275 401 307 401 C339 401 352 385 352 347 L352 230 Z M254 483 L287 483 L456 596 L456 623 L290 623 L254 483 Z " />
<glyph glyph-name="ecircumflex" unicode="&#xea;" horiz-adv-x="543" d="M499 131 C454 69 375 20 321 20 C296 20 281 28 270 48 C262 61 259 80 259 121 L259 209 L523 209 C506 335 411 420 289 420 C135 420 20 325 20 197 C20 77 133 -13 283 -13 C374 -13 456 32 515 114 L499 131 Z M352 230 L259 230 L259 348 C259 384 275 401 307 401 C339 401 352 385 352 347 L352 230 Z M465 525 C402 549 355 590 337 636 L227 636 C209 590 162 549 99 525 L108 495 C165 499 224 517 282 547 C340 517 399 499 456 495 L465 525 Z " />
<glyph glyph-name="edieresis" unicode="&#xeb;" horiz-adv-x="543" d="M499 131 C454 69 375 20 321 20 C296 20 281 28 270 48 C262 61 259 80 259 121 L259 209 L523 209 C506 335 411 420 289 420 C135 420 20 325 20 197 C20 77 133 -13 283 -13 C374 -13 456 32 515 114 L499 131 Z M352 230 L259 230 L259 348 C259 384 275 401 307 401 C339 401 352 385 352 347 L352 230 Z M399 646 C341 646 300 613 300 564 C300 517 342 484 402 484 C456 484 494 517 494 564 C494 612 455 646 399 646 L399 646 Z M174 647 C118 647 76 612 76 566 C76 520 118 486 175 486 C231 486 269 518 269 566 C269 614 230 647 174 647 L174 647 Z " />
<glyph glyph-name="igrave" unicode="&#xec;" horiz-adv-x="373" d="M367 0 L367 20 L301 20 L301 426 C270 419 210 413 175 413 L7 413 L7 393 L74 393 L74 20 L7 20 L7 0 L367 0 Z M263 483 L227 623 L61 623 L61 596 L230 483 L263 483 Z " />
<glyph glyph-name="iacute" unicode="&#xed;" horiz-adv-x="373" d="M367 0 L367 20 L301 20 L301 426 C270 419 210 413 175 413 L7 413 L7 393 L74 393 L74 20 L7 20 L7 0 L367 0 Z M169 483 L202 483 L371 596 L371 623 L205 623 L169 483 Z " />
<glyph glyph-name="icircumflex" unicode="&#xee;" horiz-adv-x="373" d="M367 0 L367 20 L301 20 L301 426 C270 419 210 413 175 413 L7 413 L7 393 L74 393 L74 20 L7 20 L7 0 L367 0 Z M362 525 C302 549 257 590 239 636 L134 636 C116 590 71 549 11 525 L20 495 C74 499 131 517 187 547 C242 517 299 499 354 495 L362 525 Z " />
<glyph glyph-name="idieresis" unicode="&#xef;" horiz-adv-x="373" d="M367 0 L367 20 L300 20 L300 426 C269 419 210 413 174 413 L6 413 L6 393 L73 393 L73 20 L6 20 L6 0 L367 0 Z M286 646 C236 646 201 612 201 564 C201 518 238 484 288 484 C336 484 368 516 368 564 C368 613 335 646 286 646 L286 646 Z M90 647 C41 647 5 612 5 566 C5 520 42 486 91 486 C139 486 172 519 172 566 C172 614 138 647 90 647 L90 647 Z " />
<glyph glyph-name="eth" unicode="&#xf0;" horiz-adv-x="613" d="M179 504 L189 490 L279 551 C289 530 300 509 310 489 C321 466 329 444 336 418 C325 420 321 420 309 420 C133 420 20 333 20 196 C20 71 134 -13 305 -13 C389 -13 471 9 522 47 C565 79 593 136 593 194 C593 273 550 371 479 456 C445 495 404 535 335 593 L424 655 L414 670 L320 606 C302 622 286 635 280 638 C248 659 230 671 226 675 L208 663 C220 648 228 636 244 610 C261 582 262 580 270 569 L179 504 Z M352 70 C352 26 338 8 304 8 C270 8 259 24 259 70 L259 335 C259 384 271 402 306 402 C341 402 352 386 352 338 L352 70 Z " />
<glyph glyph-name="ntilde" unicode="&#xf1;" horiz-adv-x="686" d="M679 0 L679 20 L613 20 L613 287 C613 332 604 359 581 381 C556 406 513 420 467 420 C410 420 354 400 301 359 L301 426 C255 416 236 414 200 413 L7 413 L7 393 L74 393 L74 20 L7 20 L7 0 L335 0 L335 20 L301 20 L301 334 C324 355 339 363 354 363 C375 363 386 346 386 311 L386 20 L352 20 L352 0 L679 0 Z M529 606 L513 617 C496 600 486 595 470 595 C454 595 441 598 402 612 C359 627 337 632 314 632 C269 632 244 616 170 538 L188 523 C204 539 212 543 225 543 C237 543 242 541 279 525 C311 512 339 505 365 505 C397 505 429 514 455 531 C477 545 489 556 520 595 L529 606 Z " />
<glyph glyph-name="ograve" unicode="&#xf2;" horiz-adv-x="612" d="M305 420 C234 420 164 402 112 369 C54 333 20 269 20 196 C20 71 134 -13 305 -13 C389 -13 470 9 521 47 C565 79 592 135 592 195 C592 332 480 420 305 420 L305 420 Z M352 70 C352 26 338 8 304 8 C271 8 260 24 260 70 L260 335 C260 384 272 402 307 402 C341 402 352 386 352 338 L352 70 Z M357 483 L321 623 L155 623 L155 596 L324 483 L357 483 Z " />
<glyph glyph-name="oacute" unicode="&#xf3;" horiz-adv-x="612" d="M305 420 C234 420 164 402 112 369 C54 333 20 269 20 196 C20 71 134 -13 305 -13 C389 -13 470 9 521 47 C565 79 592 135 592 195 C592 332 480 420 305 420 L305 420 Z M352 70 C352 26 338 8 304 8 C271 8 260 24 260 70 L260 335 C260 384 272 402 307 402 C341 402 352 386 352 338 L352 70 Z M276 483 L309 483 L478 596 L478 623 L312 623 L276 483 Z " />
<glyph glyph-name="ocircumflex" unicode="&#xf4;" horiz-adv-x="612" d="M305 420 C234 420 164 402 112 369 C54 333 20 269 20 196 C20 71 134 -13 305 -13 C389 -13 470 9 521 47 C565 79 592 135 592 195 C592 332 480 420 305 420 L305 420 Z M352 70 C352 26 338 8 304 8 C271 8 260 24 260 70 L260 335 C260 384 272 402 307 402 C341 402 352 386 352 338 L352 70 Z M493 525 C431 549 383 590 365 636 L255 636 C237 590 190 549 127 525 L136 495 C193 499 253 517 310 547 C368 517 427 499 484 495 L493 525 Z " />
<glyph glyph-name="otilde" unicode="&#xf5;" horiz-adv-x="612" d="M305 420 C234 420 164 402 112 369 C54 333 20 269 20 196 C20 71 134 -13 305 -13 C389 -13 470 9 521 47 C565 79 592 135 592 195 C592 332 480 420 305 420 L305 420 Z M352 70 C352 26 338 8 304 8 C271 8 260 24 260 70 L260 335 C260 384 272 402 307 402 C341 402 352 386 352 338 L352 70 Z M474 617 C457 600 446 595 431 595 C415 595 402 598 362 612 C320 627 298 632 275 632 C229 632 204 616 131 538 L149 523 C165 539 173 543 186 543 C198 543 203 541 240 525 C272 512 300 505 326 505 C358 505 390 514 416 531 C438 545 450 556 481 595 C484 599 487 602 489 606 L474 617 Z " />
<glyph glyph-name="odieresis" unicode="&#xf6;" horiz-adv-x="612" d="M305 420 C234 420 164 402 112 369 C54 333 20 269 20 196 C20 71 134 -13 305 -13 C389 -13 470 9 521 47 C565 79 592 135 592 195 C592 332 480 420 305 420 L305 420 Z M352 70 C352 26 338 8 304 8 C271 8 260 24 260 70 L260 335 C260 384 272 402 307 402 C341 402 352 386 352 338 L352 70 Z M421 646 C363 646 322 613 322 564 C322 517 364 484 424 484 C478 484 515 517 515 564 C515 612 477 646 421 646 L421 646 Z M195 647 C139 647 97 612 97 566 C97 520 139 486 196 486 C252 486 290 518 290 566 C290 614 251 647 195 647 L195 647 Z " />
<glyph glyph-name="divide" unicode="&#xf7;" horiz-adv-x="667" d="M567 356 L100 356 L100 313 L567 313 L567 356 Z M331 211 C279 211 237 180 237 141 C237 101 279 69 333 69 C385 69 424 98 424 136 C424 178 383 211 331 211 L331 211 Z M331 612 C279 612 237 581 237 542 C237 502 279 470 334 470 C385 470 424 499 424 537 C424 579 383 612 331 612 L331 612 Z " />
<glyph glyph-name="oslash" unicode="&#xf8;" horiz-adv-x="612" d="M581 387 L569 403 L511 360 C459 400 388 420 304 420 C136 420 20 329 20 197 C20 137 44 86 88 51 L39 14 L52 -1 L105 39 C159 5 230 -13 308 -13 C380 -13 454 5 507 36 C561 68 592 127 592 197 C592 260 571 307 526 347 L581 387 Z M352 245 L260 175 L260 342 C260 384 273 400 307 400 C338 400 352 382 352 344 L352 245 Z M352 219 L352 59 C352 24 337 7 305 7 C271 7 260 21 260 63 L260 150 L352 219 Z " />
<glyph glyph-name="ugrave" unicode="&#xf9;" horiz-adv-x="668" d="M368 0 L662 0 L662 20 L595 20 L595 426 C565 418 524 414 484 413 L311 413 L311 393 L368 393 L368 80 C349 62 330 52 315 52 C304 52 294 59 291 69 C288 78 287 84 287 108 L287 426 C253 418 211 413 174 413 L7 413 L7 393 L60 393 L60 102 C60 26 106 -13 196 -13 C256 -13 310 8 368 53 L368 0 Z M415 483 L379 623 L213 623 L213 596 L382 483 L415 483 Z " />
<glyph glyph-name="uacute" unicode="&#xfa;" horiz-adv-x="668" d="M368 0 L662 0 L662 20 L595 20 L595 426 C565 418 524 414 484 413 L311 413 L311 393 L368 393 L368 80 C349 62 330 52 315 52 C304 52 294 59 291 69 C288 78 287 84 287 108 L287 426 C253 418 211 413 174 413 L7 413 L7 393 L60 393 L60 102 C60 26 106 -13 196 -13 C256 -13 310 8 368 53 L368 0 Z M317 483 L350 483 L519 596 L519 623 L352 623 L317 483 Z " />
<glyph glyph-name="ucircumflex" unicode="&#xfb;" horiz-adv-x="668" d="M368 0 L662 0 L662 20 L595 20 L595 426 C565 418 524 414 484 413 L311 413 L311 393 L368 393 L368 80 C349 62 330 52 315 52 C304 52 294 59 291 69 C288 78 287 84 287 108 L287 426 C253 418 211 413 174 413 L7 413 L7 393 L60 393 L60 102 C60 26 106 -13 196 -13 C256 -13 310 8 368 53 L368 0 Z M524 525 C461 549 413 590 395 636 L286 636 C268 590 220 549 158 525 L167 495 C224 499 283 517 341 547 C398 517 458 499 515 495 L524 525 Z " />
<glyph glyph-name="udieresis" unicode="&#xfc;" horiz-adv-x="668" d="M368 0 L662 0 L662 20 L595 20 L595 426 C565 418 524 414 484 413 L311 413 L311 393 L368 393 L368 80 C349 62 330 52 315 52 C304 52 294 59 291 69 C288 78 287 84 287 108 L287 426 C253 418 211 413 174 413 L7 413 L7 393 L60 393 L60 102 C60 26 106 -13 196 -13 C256 -13 310 8 368 53 L368 0 Z M455 646 C397 646 356 613 356 564 C356 517 398 484 458 484 C512 484 550 517 550 564 C550 612 511 646 455 646 L455 646 Z M230 647 C174 647 132 612 132 566 C132 520 174 486 231 486 C287 486 325 518 325 566 C325 614 286 647 230 647 L230 647 Z " />
<glyph glyph-name="yacute" unicode="&#xfd;" horiz-adv-x="516" d="M520 413 L348 413 L348 393 C394 388 412 373 412 340 C412 327 407 310 396 290 L372 244 L288 393 L331 393 L331 413 L1 413 L1 393 L27 393 L249 4 L188 -115 C178 -65 141 -34 92 -34 C38 -34 -3 -77 -3 -133 C-3 -188 37 -228 93 -228 C139 -228 174 -200 206 -137 L431 308 C460 365 481 386 520 393 L520 413 Z M259 483 L293 483 L462 596 L462 623 L295 623 L259 483 Z " />
<glyph glyph-name="thorn" unicode="&#xfe;" horiz-adv-x="645" d="M301 44 C323 29 337 20 341 18 C369 1 406 -9 437 -9 C544 -9 625 85 625 211 C625 329 544 420 439 420 C398 420 367 410 301 376 L301 680 C266 673 212 667 176 667 L7 667 L7 647 L74 647 L74 -207 L7 -207 L7 -227 L367 -227 L367 -207 L301 -207 L301 44 Z M301 352 C318 368 339 377 355 377 C378 377 389 361 389 324 L389 101 C389 59 380 43 355 43 C338 43 322 50 301 69 L301 352 Z " />
<glyph glyph-name="ydieresis" unicode="&#xff;" horiz-adv-x="516" d="M520 413 L348 413 L348 393 C394 388 412 373 412 340 C412 327 407 310 396 290 L372 244 L288 393 L331 393 L331 413 L1 413 L1 393 L27 393 L249 4 L188 -115 C178 -65 141 -34 92 -34 C38 -34 -3 -77 -3 -133 C-3 -188 37 -228 93 -228 C139 -228 174 -200 206 -137 L431 308 C460 365 481 386 520 393 L520 413 Z M398 646 C340 646 299 613 299 564 C299 517 341 484 401 484 C455 484 493 517 493 564 C493 612 454 646 398 646 L398 646 Z M173 647 C117 647 75 612 75 566 C75 520 117 486 174 486 C230 486 268 518 268 566 C268 614 229 647 173 647 L173 647 Z " />
<glyph glyph-name="Amacron" unicode="&#x100;" horiz-adv-x="782" d="M778 0 L778 23 L741 23 L517 667 L289 667 L112 174 C74 83 35 28 3 23 L3 0 L262 0 L262 23 C222 24 200 30 180 47 C156 67 141 105 141 148 C141 165 143 179 150 205 L382 205 L445 23 L369 23 L369 0 L778 0 Z M375 228 L158 228 L266 539 L375 228 Z M566 827 L228 827 L228 756 L566 756 L566 827 Z " />
<glyph glyph-name="amacron" unicode="&#x101;" horiz-adv-x="617" d="M589 88 C570 58 565 53 557 53 C553 53 551 59 551 78 L551 267 C551 338 532 367 471 391 C424 410 354 420 267 420 C149 420 84 384 84 319 C84 272 118 240 168 240 C217 240 249 271 249 319 C249 357 233 378 196 390 C210 395 222 397 241 397 C268 397 291 390 306 379 C323 366 327 352 327 313 L327 213 C289 226 256 231 212 231 C162 231 125 224 96 209 C53 187 27 148 27 107 C27 38 97 -13 193 -13 C244 -13 281 -1 332 31 C367 -1 397 -13 442 -13 C520 -13 578 19 607 78 L589 88 Z M327 48 C298 32 286 27 272 27 C252 27 241 41 241 68 L241 161 C241 192 251 204 278 204 C292 204 303 201 327 192 L327 48 Z M476 601 L176 601 L176 530 L476 530 L476 601 Z " />
<glyph glyph-name="Abreve" unicode="&#x102;" horiz-adv-x="782" d="M778 0 L778 23 L741 23 L517 667 L289 667 L112 174 C74 83 35 28 3 23 L3 0 L262 0 L262 23 C222 24 200 30 180 47 C156 67 141 105 141 148 C141 165 143 179 150 205 L382 205 L445 23 L369 23 L369 0 L778 0 Z M375 228 L158 228 L266 539 L375 228 Z M544 878 C540 862 535 856 525 849 C505 837 461 830 405 830 C353 830 310 836 290 847 C276 854 271 861 267 878 L244 878 C248 836 254 812 269 791 C292 758 335 742 405 742 C471 742 514 756 537 785 C554 806 562 832 566 878 L544 878 Z " />
<glyph glyph-name="abreve" unicode="&#x103;" horiz-adv-x="617" d="M589 88 C570 58 565 53 557 53 C553 53 551 59 551 78 L551 267 C551 338 532 367 471 391 C424 410 354 420 267 420 C149 420 84 384 84 319 C84 272 118 240 168 240 C217 240 249 271 249 319 C249 357 233 378 196 390 C210 395 222 397 241 397 C268 397 291 390 306 379 C323 366 327 352 327 313 L327 213 C289 226 256 231 212 231 C162 231 125 224 96 209 C53 187 27 148 27 107 C27 38 97 -13 193 -13 C244 -13 281 -1 332 31 C367 -1 397 -13 442 -13 C520 -13 578 19 607 78 L589 88 Z M327 48 C298 32 286 27 272 27 C252 27 241 41 241 68 L241 161 C241 192 251 204 278 204 C292 204 303 201 327 192 L327 48 Z M456 638 C452 622 448 616 438 609 C419 597 377 590 324 590 C274 590 233 596 214 607 C201 614 196 621 192 638 L170 638 C174 596 180 571 194 551 C215 518 257 502 323 502 C386 502 427 516 450 545 C466 566 473 592 477 638 L456 638 Z " />
<glyph glyph-name="Aogonek" unicode="&#x104;" horiz-adv-x="782" d="M778 0 L778 23 L741 23 L517 667 L289 667 L112 174 C74 83 35 28 3 23 L3 0 L262 0 L262 23 C222 24 200 30 180 47 C156 67 141 105 141 148 C141 165 143 179 150 205 L382 205 L445 23 L369 23 L369 0 L700 0 C598 -23 543 -60 543 -106 C543 -149 592 -180 658 -180 C688 -180 701 -178 747 -163 L747 -146 C678 -145 646 -127 646 -90 C646 -68 660 -46 686 -28 C697 -20 709 -14 739 0 L778 0 Z M375 228 L158 228 L266 539 L375 228 Z " />
<glyph glyph-name="aogonek" unicode="&#x105;" horiz-adv-x="617" d="M525 1 C557 12 592 45 607 78 L589 88 C570 58 565 53 557 53 C553 53 551 59 551 78 L551 267 C551 338 532 367 471 391 C424 410 354 420 267 420 C149 420 84 384 84 319 C84 272 118 240 168 240 C217 240 249 271 249 319 C249 357 233 378 196 390 C210 395 222 397 241 397 C268 397 291 390 306 379 C323 366 327 352 327 313 L327 213 C289 226 256 231 212 231 C162 231 125 224 96 209 C53 187 27 148 27 107 C27 38 97 -13 193 -13 C244 -13 281 -1 332 31 C364 0 396 -13 442 -13 L446 -13 L449 -13 C388 -32 357 -64 357 -107 C357 -154 399 -180 475 -180 C499 -180 517 -178 556 -171 L556 -150 C488 -145 462 -128 462 -89 C462 -56 476 -35 519 -3 L525 1 Z M327 48 C298 32 286 27 272 27 C252 27 241 41 241 68 L241 161 C241 192 251 204 278 204 C292 204 303 201 327 192 L327 48 Z " />
<glyph glyph-name="Cacute" unicode="&#x106;" horiz-adv-x="700" d="M630 133 C565 50 496 10 417 10 C361 10 338 41 338 117 L338 557 C338 597 340 614 348 627 C358 647 378 657 404 657 C464 657 528 621 574 562 C609 516 624 475 626 412 L649 412 L649 687 L548 631 C490 673 448 687 379 687 C172 687 30 543 30 334 C30 129 178 -20 381 -20 C495 -20 574 20 653 117 L630 133 Z M332 716 L359 716 L545 829 L545 856 L370 856 L332 716 Z " />
<glyph glyph-name="cacute" unicode="&#x107;" horiz-adv-x="500" d="M455 95 C416 43 370 15 321 15 C274 15 261 32 261 95 L261 338 C261 385 274 399 316 399 C353 399 379 391 399 374 C386 377 380 378 373 378 C335 378 304 344 304 300 C304 256 338 224 386 224 C433 224 466 256 466 304 C466 376 400 420 294 420 C136 420 20 326 20 198 C20 134 49 75 101 37 C145 3 202 -13 277 -13 C369 -13 429 17 473 85 L455 95 Z M235 483 L268 483 L438 596 L438 623 L271 623 L235 483 Z " />
<glyph glyph-name="Ccircumflex" unicode="&#x108;" horiz-adv-x="700" d="M630 133 C565 50 496 10 417 10 C361 10 338 41 338 117 L338 557 C338 597 340 614 348 627 C358 647 378 657 404 657 C464 657 528 621 574 562 C609 516 624 475 626 412 L649 412 L649 687 L548 631 C490 673 448 687 379 687 C172 687 30 543 30 334 C30 129 178 -20 381 -20 C495 -20 574 20 653 117 L630 133 Z M576 758 C510 782 460 823 441 869 L326 869 C308 823 257 782 192 758 L201 728 C261 732 324 750 384 780 C444 750 507 732 566 728 L576 758 Z " />
<glyph glyph-name="Cdotaccent" unicode="&#x10a;" horiz-adv-x="700" d="M630 133 C565 50 496 10 417 10 C361 10 338 41 338 117 L338 557 C338 597 340 614 348 627 C358 647 378 657 404 657 C464 657 528 621 574 562 C609 516 624 475 626 412 L649 412 L649 687 L548 631 C490 673 448 687 379 687 C172 687 30 543 30 334 C30 129 178 -20 381 -20 C495 -20 574 20 653 117 L630 133 Z M371 887 C314 887 272 852 272 806 C272 759 315 725 372 725 C428 725 466 758 466 805 C466 854 427 887 371 887 L371 887 Z " />
<glyph glyph-name="cdotaccent" unicode="&#x10b;" horiz-adv-x="500" d="M455 95 C416 43 370 15 321 15 C274 15 261 32 261 95 L261 338 C261 385 274 399 316 399 C353 399 379 391 399 374 C386 377 380 378 373 378 C335 378 304 344 304 300 C304 256 338 224 386 224 C433 224 466 256 466 304 C466 376 400 420 294 420 C136 420 20 326 20 198 C20 134 49 75 101 37 C145 3 202 -13 277 -13 C369 -13 429 17 473 85 L455 95 Z M270 647 C214 647 172 612 172 566 C172 520 214 486 271 486 C327 486 365 518 365 566 C365 614 326 647 270 647 L270 647 Z " />
<glyph glyph-name="Ccaron" unicode="&#x10c;" horiz-adv-x="700" d="M630 133 C565 50 496 10 417 10 C361 10 338 41 338 117 L338 557 C338 597 340 614 348 627 C358 647 378 657 404 657 C464 657 528 621 574 562 C609 516 624 475 626 412 L649 412 L649 687 L548 631 C490 673 448 687 379 687 C172 687 30 543 30 334 C30 129 178 -20 381 -20 C495 -20 574 20 653 117 L630 133 Z M181 849 C247 825 297 784 316 738 L431 738 C450 784 500 825 565 849 L556 879 C496 875 434 857 373 827 C313 857 250 875 191 879 L181 849 Z " />
<glyph glyph-name="ccaron" unicode="&#x10d;" horiz-adv-x="500" d="M455 95 C416 43 370 15 321 15 C274 15 261 32 261 95 L261 338 C261 385 274 399 316 399 C353 399 379 391 399 374 C386 377 380 378 373 378 C335 378 304 344 304 300 C304 256 338 224 386 224 C433 224 466 256 466 304 C466 376 400 420 294 420 C136 420 20 326 20 198 C20 134 49 75 101 37 C145 3 202 -13 277 -13 C369 -13 429 17 473 85 L455 95 Z M87 606 C149 582 197 541 215 495 L325 495 C342 541 390 582 453 606 L444 636 C387 632 327 614 270 584 C212 614 153 632 96 636 L87 606 Z " />
<glyph glyph-name="Dcaron" unicode="&#x10e;" horiz-adv-x="863" d="M23 0 L547 0 C626 0 685 26 737 84 C797 152 833 246 833 339 C833 436 793 535 727 598 C678 646 615 667 524 667 L23 667 L23 644 L101 644 L101 23 L23 23 L23 0 Z M388 23 L388 644 L438 644 C502 645 512 632 512 549 L512 118 C514 45 493 22 428 23 L388 23 Z M200 849 C266 825 316 784 335 738 L450 738 C469 784 519 825 584 849 L575 879 C515 875 453 857 392 827 C332 857 269 875 210 879 L200 849 Z " />
<glyph glyph-name="dcaron" unicode="&#x10f;" horiz-adv-x="828" d="M344 -13 C379 -4 395 -2 445 0 L638 0 L638 20 L571 20 L571 680 C515 671 493 668 442 667 L277 667 L277 647 L344 647 L344 388 C289 411 251 420 207 420 C96 420 20 333 20 206 C20 135 43 81 89 39 C125 7 174 -13 219 -13 C261 -13 301 2 344 34 L344 -13 Z M344 62 C324 44 302 33 286 33 C270 33 262 48 262 78 L262 326 C262 361 275 380 299 380 C310 380 316 378 344 365 L344 62 Z M629 451 C695 453 719 456 746 467 C793 486 825 539 825 596 C825 646 781 680 718 680 C659 680 614 647 614 604 C614 565 656 533 706 533 C738 533 767 543 788 563 C774 496 735 474 629 474 L629 451 Z " />
<glyph glyph-name="Dcroat" unicode="&#x110;" horiz-adv-x="863" d="M23 340 L101 340 L101 23 L23 23 L23 0 L547 0 C626 0 685 26 737 84 C797 152 833 246 833 339 C833 436 793 534 727 598 C678 646 615 667 524 667 L23 667 L23 644 L101 644 L101 363 L23 363 L23 340 Z M388 363 L388 644 L438 644 C502 645 512 632 512 549 L512 118 C514 45 493 22 428 23 L388 23 L388 340 L449 340 L449 363 L388 363 Z " />
<glyph glyph-name="dcroat" unicode="&#x111;" horiz-adv-x="644" d="M344 534 L344 388 C289 411 251 420 207 420 C96 420 20 333 20 206 C20 135 43 81 89 39 C125 7 174 -13 219 -13 C261 -13 301 2 344 34 L344 -13 C379 -4 395 -2 445 0 L638 0 L638 20 L571 20 L571 534 L638 534 L638 557 L571 557 L571 680 C515 671 493 668 442 667 L277 667 L277 647 L344 647 L344 557 L179 557 L179 534 L344 534 Z M344 62 C324 44 302 33 286 33 C270 33 262 48 262 78 L262 326 C262 361 275 380 299 380 C310 380 316 378 344 365 L344 62 Z " />
<glyph glyph-name="Emacron" unicode="&#x112;" horiz-adv-x="746" d="M686 0 L686 246 L664 246 C644 115 535 26 388 23 L388 331 L408 331 C478 331 528 266 525 179 L546 179 L546 511 L525 511 C528 418 483 357 409 355 L388 355 L388 644 C529 654 631 578 642 457 L664 457 L664 667 L23 667 L23 644 L101 644 L101 23 L23 23 L23 0 L686 0 Z M538 827 L200 827 L200 756 L538 756 L538 827 Z " />
<glyph glyph-name="emacron" unicode="&#x113;" horiz-adv-x="543" d="M499 131 C454 69 375 20 321 20 C296 20 281 28 270 48 C262 61 259 80 259 121 L259 209 L523 209 C506 335 411 420 289 420 C135 420 20 325 20 197 C20 77 133 -13 283 -13 C374 -13 456 32 515 114 L499 131 Z M352 230 L259 230 L259 348 C259 384 275 401 307 401 C339 401 352 385 352 347 L352 230 Z M430 601 L130 601 L130 530 L430 530 L430 601 Z " />
<glyph glyph-name="Ebreve" unicode="&#x114;" horiz-adv-x="746" d="M686 0 L686 246 L664 246 C644 115 535 26 388 23 L388 331 L408 331 C478 331 528 266 525 179 L546 179 L546 511 L525 511 C528 418 483 357 409 355 L388 355 L388 644 C529 654 631 578 642 457 L664 457 L664 667 L23 667 L23 644 L101 644 L101 23 L23 23 L23 0 L686 0 Z M516 878 C512 862 508 856 497 849 C477 837 433 830 378 830 C326 830 283 836 262 847 C248 854 243 861 239 878 L217 878 C220 836 227 812 241 791 C264 758 308 742 377 742 C443 742 486 756 510 785 C527 806 535 832 538 878 L516 878 Z " />
<glyph glyph-name="ebreve" unicode="&#x115;" horiz-adv-x="543" d="M499 131 C454 69 375 20 321 20 C296 20 281 28 270 48 C262 61 259 80 259 121 L259 209 L523 209 C506 335 411 420 289 420 C135 420 20 325 20 197 C20 77 133 -13 283 -13 C374 -13 456 32 515 114 L499 131 Z M352 230 L259 230 L259 348 C259 384 275 401 307 401 C339 401 352 385 352 347 L352 230 Z M414 638 C410 622 406 616 396 609 C377 597 335 590 282 590 C233 590 192 596 172 607 C159 614 154 621 150 638 L129 638 C132 596 139 571 152 551 C174 518 216 502 282 502 C345 502 386 516 408 545 C424 566 432 592 435 638 L414 638 Z " />
<glyph glyph-name="Edotaccent" unicode="&#x116;" horiz-adv-x="746" d="M686 0 L686 246 L664 246 C644 115 535 26 388 23 L388 331 L408 331 C478 331 528 266 525 179 L546 179 L546 511 L525 511 C528 418 483 357 409 355 L388 355 L388 644 C529 654 631 578 642 457 L664 457 L664 667 L23 667 L23 644 L101 644 L101 23 L23 23 L23 0 L686 0 Z M371 887 C314 887 272 852 272 806 C272 759 315 725 372 725 C428 725 466 758 466 805 C466 854 427 887 371 887 L371 887 Z " />
<glyph glyph-name="edotaccent" unicode="&#x117;" horiz-adv-x="543" d="M499 131 C454 69 375 20 321 20 C296 20 281 28 270 48 C262 61 259 80 259 121 L259 209 L523 209 C506 335 411 420 289 420 C135 420 20 325 20 197 C20 77 133 -13 283 -13 C374 -13 456 32 515 114 L499 131 Z M352 230 L259 230 L259 348 C259 384 275 401 307 401 C339 401 352 385 352 347 L352 230 Z M285 647 C228 647 186 612 186 566 C186 520 229 486 286 486 C342 486 380 518 380 566 C380 614 341 647 285 647 L285 647 Z " />
<glyph glyph-name="Eogonek" unicode="&#x118;" horiz-adv-x="746" d="M686 0 L686 246 L664 246 C644 115 535 26 388 23 L388 331 L408 331 C478 331 528 266 525 179 L546 179 L546 511 L525 511 C528 418 483 357 409 355 L388 355 L388 644 C529 654 631 578 642 457 L664 457 L664 667 L23 667 L23 644 L101 644 L101 23 L23 23 L23 0 L638 0 C536 -23 482 -60 482 -106 C482 -149 530 -180 596 -180 C627 -180 638 -178 686 -163 L686 -146 C617 -145 585 -127 585 -90 C585 -54 609 -31 678 0 L686 0 Z " />
<glyph glyph-name="eogonek" unicode="&#x119;" horiz-adv-x="543" d="M398 12 C435 29 489 76 515 114 L499 131 C454 69 375 20 321 20 C296 20 281 28 270 48 C262 61 259 80 259 121 L259 209 L523 209 C506 335 411 420 289 420 C135 420 20 325 20 197 C20 77 133 -13 284 -13 C296 -13 303 -13 314 -12 C251 -30 217 -63 217 -106 C217 -154 258 -180 335 -180 C359 -180 377 -178 416 -171 L416 -150 C347 -145 321 -128 321 -89 C321 -66 332 -42 350 -25 C358 -18 360 -17 386 3 L398 12 Z M352 230 L259 230 L259 348 C259 384 275 401 307 401 C339 401 352 385 352 347 L352 230 Z " />
<glyph glyph-name="Ecaron" unicode="&#x11a;" horiz-adv-x="746" d="M686 0 L686 246 L664 246 C644 115 535 26 388 23 L388 331 L408 331 C478 331 528 266 525 179 L546 179 L546 511 L525 511 C528 418 483 357 409 355 L388 355 L388 644 C529 654 631 578 642 457 L664 457 L664 667 L23 667 L23 644 L101 644 L101 23 L23 23 L23 0 L686 0 Z M179 849 C245 825 295 784 314 738 L429 738 C448 784 498 825 563 849 L554 879 C494 875 432 857 371 827 C311 857 248 875 189 879 L179 849 Z " />
<glyph glyph-name="ecaron" unicode="&#x11b;" horiz-adv-x="543" d="M499 131 C454 69 375 20 321 20 C296 20 281 28 270 48 C262 61 259 80 259 121 L259 209 L523 209 C506 335 411 420 289 420 C135 420 20 325 20 197 C20 77 133 -13 283 -13 C374 -13 456 32 515 114 L499 131 Z M352 230 L259 230 L259 348 C259 384 275 401 307 401 C339 401 352 385 352 347 L352 230 Z M99 606 C162 582 209 541 227 495 L337 495 C355 541 402 582 465 606 L456 636 C399 632 340 614 282 584 C224 614 165 632 108 636 L99 606 Z " />
<glyph glyph-name="Gcircumflex" unicode="&#x11c;" horiz-adv-x="785" d="M761 277 L761 300 L409 300 L409 277 L459 277 L459 93 C459 39 439 10 401 10 C366 10 350 33 350 83 L350 562 C350 635 369 657 431 657 C494 657 556 626 605 570 C645 525 660 486 662 427 L684 427 L684 687 L585 631 C515 675 474 687 394 687 C305 687 221 663 164 621 C81 559 29 446 29 327 C29 122 182 -20 402 -20 C500 -20 573 1 638 46 L714 -32 L714 277 L761 277 Z M598 758 C533 782 483 823 464 869 L349 869 C330 823 280 782 214 758 L224 728 C283 732 346 750 406 780 C467 750 529 732 589 728 L598 758 Z " />
<glyph glyph-name="gcircumflex" unicode="&#x11d;" horiz-adv-x="576" d="M307 85 C282 84 232 84 215 84 C162 84 140 92 140 111 C140 122 148 132 164 141 C206 128 246 123 292 123 C347 123 406 133 449 151 C506 173 536 212 536 264 C536 335 478 383 361 410 C371 442 385 463 408 476 C406 468 405 465 405 457 C405 427 426 407 459 407 C492 407 516 431 516 463 C516 492 498 513 468 517 L470 525 C408 548 360 590 342 636 L233 636 C215 590 167 549 105 525 L114 494 C171 499 230 517 288 547 C328 526 367 512 407 503 C378 486 351 448 343 413 C315 418 296 420 270 420 C123 420 33 363 33 269 C33 211 59 182 142 147 C74 110 40 66 40 13 C40 -13 47 -32 67 -56 C49 -81 42 -98 42 -117 C42 -186 131 -232 262 -232 C434 -232 542 -164 542 -55 C542 37 478 85 358 85 L307 85 Z M327 189 C327 154 314 138 285 138 C258 138 245 154 245 187 L245 354 C245 385 259 401 287 401 C314 401 327 386 327 355 L327 189 Z M81 -68 C107 -88 134 -96 179 -96 C193 -96 209 -96 227 -95 C275 -92 290 -92 310 -92 C392 -92 419 -104 419 -142 C419 -184 366 -210 277 -210 C158 -210 72 -165 72 -102 C72 -90 74 -83 81 -68 L81 -68 Z " />
<glyph glyph-name="Gbreve" unicode="&#x11e;" horiz-adv-x="785" d="M761 277 L761 300 L409 300 L409 277 L459 277 L459 93 C459 39 439 10 401 10 C366 10 350 33 350 83 L350 562 C350 635 369 657 431 657 C494 657 556 626 605 570 C645 525 660 486 662 427 L684 427 L684 687 L585 631 C515 675 474 687 394 687 C305 687 221 663 164 621 C81 559 29 446 29 327 C29 122 182 -20 402 -20 C500 -20 573 1 638 46 L714 -32 L714 277 L761 277 Z M541 878 C537 862 532 856 522 849 C502 837 458 830 402 830 C350 830 307 836 287 847 C273 854 268 861 264 878 L241 878 C245 836 251 812 266 791 C289 758 332 742 402 742 C468 742 511 756 534 785 C551 806 559 832 563 878 L541 878 Z " />
<glyph glyph-name="gbreve" unicode="&#x11f;" horiz-adv-x="576" d="M307 85 C282 84 232 84 215 84 C162 84 140 92 140 111 C140 122 148 132 164 141 C206 128 246 123 292 123 C347 123 406 133 449 151 C506 173 536 212 536 264 C536 335 478 383 361 410 C371 442 385 463 408 476 C406 468 405 465 405 457 C405 427 426 407 459 407 C492 407 516 431 516 463 C516 496 492 518 457 518 C408 518 360 474 343 413 C315 418 296 420 270 420 C123 420 33 363 33 269 C33 211 59 182 142 147 C74 110 40 66 40 13 C40 -13 47 -32 67 -56 C49 -81 42 -98 42 -117 C42 -186 131 -232 262 -232 C434 -232 542 -164 542 -55 C542 37 478 85 358 85 L307 85 Z M327 189 C327 154 314 138 285 138 C258 138 245 154 245 187 L245 354 C245 385 259 401 287 401 C314 401 327 386 327 355 L327 189 Z M81 -68 C107 -88 134 -96 179 -96 C193 -96 209 -96 227 -95 C275 -92 290 -92 310 -92 C392 -92 419 -104 419 -142 C419 -184 366 -210 277 -210 C158 -210 72 -165 72 -102 C72 -90 74 -83 81 -68 L81 -68 Z M420 638 C416 622 412 616 402 609 C383 597 341 590 288 590 C238 590 197 596 178 607 C165 614 160 621 156 638 L134 638 C138 596 144 571 158 551 C180 518 221 502 287 502 C350 502 391 516 414 545 C430 566 437 592 441 638 L420 638 Z " />
<glyph glyph-name="Gdotaccent" unicode="&#x120;" horiz-adv-x="785" d="M761 277 L761 300 L409 300 L409 277 L459 277 L459 93 C459 39 439 10 401 10 C366 10 350 33 350 83 L350 562 C350 635 369 657 431 657 C494 657 556 626 605 570 C645 525 660 486 662 427 L684 427 L684 687 L585 631 C515 675 474 687 394 687 C305 687 221 663 164 621 C81 559 29 446 29 327 C29 122 182 -20 402 -20 C500 -20 573 1 638 46 L714 -32 L714 277 L761 277 Z M397 887 C341 887 299 852 299 806 C299 760 341 725 398 725 C454 725 492 758 492 805 C492 854 453 887 397 887 L397 887 Z " />
<glyph glyph-name="gdotaccent" unicode="&#x121;" horiz-adv-x="576" d="M307 85 C282 84 232 84 215 84 C162 84 140 92 140 111 C140 122 148 132 164 141 C206 128 246 123 292 123 C347 123 406 133 449 151 C506 173 536 212 536 264 C536 335 478 383 361 410 C371 442 385 463 408 476 C406 468 405 465 405 457 C405 427 426 407 459 407 C492 407 516 431 516 463 C516 496 492 518 457 518 C408 518 360 474 343 413 C315 418 296 420 270 420 C123 420 33 363 33 269 C33 211 59 182 142 147 C74 110 40 66 40 13 C40 -13 47 -32 67 -56 C49 -81 42 -98 42 -117 C42 -186 131 -232 262 -232 C434 -232 542 -164 542 -55 C542 37 478 85 358 85 L307 85 Z M327 189 C327 154 314 138 285 138 C258 138 245 154 245 187 L245 354 C245 385 259 401 287 401 C314 401 327 386 327 355 L327 189 Z M81 -68 C107 -88 134 -96 179 -96 C193 -96 209 -96 227 -95 C275 -92 290 -92 310 -92 C392 -92 419 -104 419 -142 C419 -184 366 -210 277 -210 C158 -210 72 -165 72 -102 C72 -90 74 -83 81 -68 L81 -68 Z M290 647 C234 647 192 612 192 566 C192 520 234 486 291 486 C347 486 385 518 385 566 C385 614 346 647 290 647 L290 647 Z " />
<glyph glyph-name="Gcommaaccent" unicode="&#x122;" horiz-adv-x="785" d="M761 277 L761 300 L409 300 L409 277 L459 277 L459 93 C459 39 439 10 401 10 C366 10 350 33 350 83 L350 562 C350 635 369 657 431 657 C494 657 556 626 605 570 C645 525 660 486 662 427 L684 427 L684 687 L585 631 C515 675 474 687 394 687 C305 687 221 663 164 621 C81 559 29 446 29 327 C29 122 182 -20 402 -20 C500 -20 573 1 638 46 L714 -32 L714 277 L761 277 Z M313 -288 C379 -286 403 -283 430 -272 C477 -253 509 -200 509 -142 C509 -87 463 -48 397 -48 C335 -48 288 -82 288 -126 C288 -169 335 -206 390 -206 C423 -206 451 -196 473 -176 C459 -243 420 -265 313 -265 L313 -288 Z " />
<glyph glyph-name="gcommaaccent" unicode="&#x123;" horiz-adv-x="576" d="M307 85 C282 84 232 84 215 84 C162 84 140 92 140 111 C140 122 148 132 164 141 C206 128 246 123 292 123 C347 123 406 133 449 151 C506 173 536 212 536 264 C536 335 478 383 361 410 C371 442 385 463 408 476 C406 468 405 465 405 457 C405 427 426 407 459 407 C492 407 516 431 516 463 C516 496 492 518 457 518 C408 518 360 474 343 413 C315 418 296 420 270 420 C123 420 33 363 33 269 C33 211 59 182 142 147 C74 110 40 66 40 13 C40 -13 47 -32 67 -56 C49 -81 42 -98 42 -117 C42 -186 131 -232 262 -232 C434 -232 542 -164 542 -55 C542 37 478 85 358 85 L307 85 Z M327 189 C327 154 314 138 285 138 C258 138 245 154 245 187 L245 354 C245 385 259 401 287 401 C314 401 327 386 327 355 L327 189 Z M81 -68 C107 -88 134 -96 179 -96 C193 -96 209 -96 227 -95 C275 -92 290 -92 310 -92 C392 -92 419 -104 419 -142 C419 -184 366 -210 277 -210 C158 -210 72 -165 72 -102 C72 -90 74 -83 81 -68 L81 -68 Z M382 712 C316 710 292 707 265 696 C218 677 186 624 186 567 C186 517 230 483 293 483 C352 483 397 516 397 559 C397 598 355 630 305 630 C273 630 244 619 223 600 C237 667 276 688 382 689 L382 712 Z " />
<glyph glyph-name="Hcircumflex" unicode="&#x124;" horiz-adv-x="893" d="M869 0 L869 23 L791 23 L791 644 L869 644 L869 667 L454 667 L454 644 L504 644 L504 359 L388 359 L388 644 L438 644 L438 667 L23 667 L23 644 L101 644 L101 23 L23 23 L23 0 L438 0 L438 23 L388 23 L388 336 L504 336 L504 23 L454 23 L454 0 L869 0 Z M638 758 C572 782 523 823 504 869 L388 869 C370 823 320 782 254 758 L263 728 C323 732 386 750 446 780 C507 750 569 732 629 728 L638 758 Z " />
<glyph glyph-name="Hbar" unicode="&#x126;" horiz-adv-x="893" d="M101 479 L101 23 L23 23 L23 0 L438 0 L438 23 L388 23 L388 336 L504 336 L504 23 L454 23 L454 0 L869 0 L869 23 L791 23 L791 479 L869 479 L869 504 L791 504 L791 644 L869 644 L869 667 L454 667 L454 644 L504 644 L504 504 L388 504 L388 644 L438 644 L438 667 L23 667 L23 644 L101 644 L101 504 L23 504 L23 479 L101 479 Z M388 479 L504 479 L504 359 L388 359 L388 479 Z " />
<glyph glyph-name="hbar" unicode="&#x127;" horiz-adv-x="685" d="M74 534 L74 20 L7 20 L7 0 L333 0 L333 20 L301 20 L301 344 C320 359 337 367 352 367 C374 367 385 350 385 314 L385 20 L353 20 L353 0 L678 0 L678 20 L612 20 L612 275 C612 329 604 362 586 381 C563 406 525 420 479 420 C416 420 358 403 301 368 L301 534 L418 534 L418 557 L301 557 L301 680 C258 670 230 667 180 667 L7 667 L7 644 L74 644 L74 557 L7 557 L7 534 L74 534 Z " />
<glyph glyph-name="Imacron" unicode="&#x12a;" horiz-adv-x="493" d="M470 0 L470 23 L392 23 L392 644 L470 644 L470 667 L23 667 L23 644 L101 644 L101 23 L23 23 L23 0 L470 0 Z M416 827 L77 827 L77 756 L416 756 L416 827 Z " />
<glyph glyph-name="imacron" unicode="&#x12b;" horiz-adv-x="373" d="M367 0 L367 20 L301 20 L301 426 C270 419 210 413 175 413 L7 413 L7 393 L74 393 L74 20 L7 20 L7 0 L367 0 Z M337 601 L37 601 L37 530 L337 530 L337 601 Z " />
<glyph glyph-name="ibreve" unicode="&#x12d;" horiz-adv-x="373" d="M367 0 L367 20 L301 20 L301 426 C270 419 210 413 175 413 L7 413 L7 393 L74 393 L74 20 L7 20 L7 0 L367 0 Z M319 638 C315 622 311 616 301 609 C282 597 240 590 187 590 C137 590 96 596 77 607 C64 614 59 621 55 638 L33 638 C37 596 43 571 57 551 C79 518 120 502 186 502 C249 502 290 516 313 545 C329 566 336 592 340 638 L319 638 Z " />
<glyph glyph-name="Iogonek" unicode="&#x12e;" horiz-adv-x="493" d="M470 0 L470 23 L392 23 L392 644 L470 644 L470 667 L23 667 L23 644 L101 644 L101 23 L23 23 L23 0 L358 0 C256 -23 201 -60 201 -106 C201 -149 250 -180 316 -180 C347 -180 360 -177 405 -163 L406 -146 C337 -145 305 -127 305 -90 C305 -68 319 -46 345 -28 C356 -20 368 -13 397 0 L470 0 Z " />
<glyph glyph-name="iogonek" unicode="&#x12f;" horiz-adv-x="373" d="M367 0 L367 20 L301 20 L301 426 C270 419 210 413 175 413 L7 413 L7 393 L74 393 L74 20 L7 20 L7 0 L273 0 C234 -9 219 -13 205 -19 C152 -41 129 -68 129 -106 C129 -154 170 -180 247 -180 C271 -180 289 -178 327 -171 L327 -150 C260 -145 234 -128 234 -89 C234 -55 255 -25 296 0 L367 0 Z M185 674 C119 674 71 639 71 592 C71 541 116 509 186 509 C255 509 301 542 301 591 C301 640 253 674 185 674 L185 674 Z " />
<glyph glyph-name="Idotaccent" unicode="&#x130;" horiz-adv-x="493" d="M470 0 L470 23 L392 23 L392 644 L470 644 L470 667 L23 667 L23 644 L101 644 L101 23 L23 23 L23 0 L470 0 Z M248 887 C192 887 150 852 150 806 C150 760 192 725 249 725 C305 725 343 758 343 805 C343 854 304 887 248 887 L248 887 Z " />
<glyph glyph-name="dotlessi" unicode="&#x131;" horiz-adv-x="373" d="M367 0 L367 20 L301 20 L301 426 C270 419 210 413 175 413 L7 413 L7 393 L74 393 L74 20 L7 20 L7 0 L367 0 Z " />
<glyph glyph-name="Kcommaaccent" unicode="&#x136;" horiz-adv-x="901" d="M894 0 L894 23 L861 23 L606 510 L643 542 C755 623 800 646 849 644 L861 644 L861 667 L508 667 L508 644 C536 644 549 643 563 640 C595 632 614 610 614 579 C614 556 603 541 563 510 L388 377 L388 644 L470 644 L470 667 L23 667 L23 644 L101 644 L101 23 L23 23 L23 0 L464 0 L464 23 L388 23 L388 345 L557 23 L489 23 L489 0 L894 0 Z M372 -288 C438 -286 462 -283 489 -272 C536 -253 568 -200 568 -142 C568 -87 522 -48 456 -48 C394 -48 347 -82 347 -126 C347 -169 394 -206 448 -206 C481 -206 509 -196 531 -176 C517 -243 478 -265 372 -265 L372 -288 Z " />
<glyph glyph-name="kcommaaccent" unicode="&#x137;" horiz-adv-x="708" d="M705 0 L705 20 L686 20 L484 363 C517 387 538 394 572 393 L611 393 L611 413 L434 413 L434 393 L446 393 C465 393 472 390 472 382 C472 374 467 369 446 354 L301 252 L301 680 C265 672 222 667 185 667 L7 667 L7 647 L74 647 L74 20 L7 20 L7 0 L367 0 L367 20 L301 20 L301 235 L427 20 L388 20 L388 0 L705 0 Z M267 -277 C333 -276 357 -273 384 -262 C430 -242 463 -189 463 -132 C463 -82 419 -48 356 -48 C297 -48 252 -81 252 -124 C252 -163 294 -195 344 -195 C376 -195 405 -185 426 -165 C412 -232 373 -254 267 -254 L267 -277 Z " />
<glyph glyph-name="Lacute" unicode="&#x139;" horiz-adv-x="717" d="M677 250 L653 250 C650 138 530 36 388 23 L388 644 L474 644 L474 667 L23 667 L23 644 L101 644 L101 23 L23 23 L23 0 L677 0 L677 250 Z M240 716 L266 716 L452 829 L452 856 L277 856 L240 716 Z " />
<glyph glyph-name="lacute" unicode="&#x13a;" horiz-adv-x="373" d="M367 0 L367 20 L301 20 L301 680 C280 673 239 668 198 667 L7 667 L7 647 L74 647 L74 20 L7 20 L7 0 L367 0 Z M175 716 L202 716 L388 829 L388 856 L213 856 L175 716 Z " />
<glyph glyph-name="Lcommaaccent" unicode="&#x13b;" horiz-adv-x="717" d="M677 250 L653 250 C650 138 530 36 388 23 L388 644 L474 644 L474 667 L23 667 L23 644 L101 644 L101 23 L23 23 L23 0 L677 0 L677 250 Z M276 -288 C342 -286 366 -283 393 -272 C440 -253 472 -200 472 -142 C472 -87 426 -48 360 -48 C298 -48 251 -82 251 -126 C251 -169 298 -206 353 -206 C386 -206 414 -196 435 -176 C421 -243 382 -265 276 -265 L276 -288 Z " />
<glyph glyph-name="lcommaaccent" unicode="&#x13c;" horiz-adv-x="373" d="M367 0 L367 20 L301 20 L301 680 C280 673 239 668 198 667 L7 667 L7 647 L74 647 L74 20 L7 20 L7 0 L367 0 Z M100 -277 C166 -276 190 -273 217 -262 C263 -242 296 -189 296 -132 C296 -82 252 -48 189 -48 C131 -48 86 -81 86 -124 C86 -163 128 -195 177 -195 C209 -195 238 -185 259 -165 C245 -232 206 -254 100 -254 L100 -277 Z " />
<glyph glyph-name="Lcaron" unicode="&#x13d;" horiz-adv-x="717" d="M677 250 L653 250 C650 138 530 36 388 23 L388 644 L474 644 L474 667 L23 667 L23 644 L101 644 L101 23 L23 23 L23 0 L677 0 L677 250 Z M511 427 C577 428 601 431 628 442 C675 462 707 515 707 573 C707 628 661 667 595 667 C533 667 486 633 486 589 C486 546 533 509 588 509 C621 509 649 519 671 539 C657 472 618 450 511 450 L511 427 Z " />
<glyph glyph-name="lcaron" unicode="&#x13e;" horiz-adv-x="553" d="M367 0 L367 20 L301 20 L301 680 C280 673 239 668 198 667 L7 667 L7 647 L74 647 L74 20 L7 20 L7 0 L367 0 Z M354 451 C420 453 445 456 472 467 C518 486 551 539 551 596 C551 646 507 680 444 680 C385 680 340 647 340 604 C340 565 382 533 431 533 C464 533 492 543 514 563 C500 496 461 474 354 474 L354 451 Z " />
<glyph glyph-name="Ldot" unicode="&#x13f;" horiz-adv-x="717" d="M677 250 L653 250 C650 138 530 36 388 23 L388 644 L474 644 L474 667 L23 667 L23 644 L101 644 L101 23 L23 23 L23 0 L677 0 L677 250 Z M527 413 C471 413 429 378 429 332 C429 286 471 252 528 252 C584 252 622 284 622 332 C622 380 583 413 527 413 L527 413 Z " />
<glyph glyph-name="ldot" unicode="&#x140;" horiz-adv-x="519" d="M367 0 L367 20 L301 20 L301 680 C280 673 239 668 198 667 L7 667 L7 647 L74 647 L74 20 L7 20 L7 0 L367 0 Z M437 409 C381 409 339 374 339 328 C339 281 381 247 438 247 C494 247 533 280 533 327 C533 376 494 409 437 409 L437 409 Z " />
<glyph glyph-name="Lslash" unicode="&#x141;" horiz-adv-x="717" d="M23 209 L101 251 L101 23 L23 23 L23 0 L677 0 L677 250 L653 250 C650 138 530 36 388 23 L388 409 L511 477 L511 502 L388 435 L388 644 L474 644 L474 667 L23 667 L23 644 L101 644 L101 277 L23 235 L23 209 Z " />
<glyph glyph-name="lslash" unicode="&#x142;" horiz-adv-x="373" d="M7 229 L74 292 L74 20 L7 20 L7 0 L367 0 L367 20 L301 20 L301 468 L367 531 L367 557 L301 495 L301 680 C280 673 239 668 198 667 L7 667 L7 647 L74 647 L74 318 L7 255 L7 229 Z " />
<glyph glyph-name="Nacute" unicode="&#x143;" horiz-adv-x="821" d="M702 0 L702 457 C702 573 743 645 807 644 L807 667 L540 667 L540 644 L562 644 C637 646 673 583 675 449 L675 295 L398 667 L13 667 L13 644 L75 644 L119 582 L119 192 C116 87 75 23 13 23 L13 0 L270 0 L270 23 C189 21 145 93 146 228 L146 545 L540 0 L702 0 Z M384 716 L411 716 L597 829 L597 856 L422 856 L384 716 Z " />
<glyph glyph-name="nacute" unicode="&#x144;" horiz-adv-x="686" d="M679 0 L679 20 L613 20 L613 287 C613 332 604 359 581 381 C556 406 513 420 467 420 C410 420 354 400 301 359 L301 426 C255 416 236 414 200 413 L7 413 L7 393 L74 393 L74 20 L7 20 L7 0 L335 0 L335 20 L301 20 L301 334 C324 355 339 363 354 363 C375 363 386 346 386 311 L386 20 L352 20 L352 0 L679 0 Z M313 483 L346 483 L515 596 L515 623 L349 623 L313 483 Z " />
<glyph glyph-name="Ncommaaccent" unicode="&#x145;" horiz-adv-x="821" d="M702 0 L702 457 C702 573 743 645 807 644 L807 667 L540 667 L540 644 L562 644 C637 646 673 583 675 449 L675 295 L398 667 L13 667 L13 644 L75 644 L119 582 L119 192 C116 87 75 23 13 23 L13 0 L270 0 L270 23 C189 21 145 93 146 228 L146 545 L540 0 L702 0 Z M324 -288 C390 -286 414 -283 441 -272 C488 -253 520 -200 520 -142 C520 -87 474 -48 408 -48 C346 -48 298 -82 298 -126 C298 -169 345 -206 400 -206 C433 -206 461 -196 483 -176 C469 -243 430 -265 324 -265 L324 -288 Z " />
<glyph glyph-name="ncommaaccent" unicode="&#x146;" horiz-adv-x="686" d="M679 0 L679 20 L613 20 L613 287 C613 332 604 359 581 381 C556 406 513 420 467 420 C410 420 354 400 301 359 L301 426 C255 416 236 414 200 413 L7 413 L7 393 L74 393 L74 20 L7 20 L7 0 L335 0 L335 20 L301 20 L301 334 C324 355 339 363 354 363 C375 363 386 346 386 311 L386 20 L352 20 L352 0 L679 0 Z M252 -277 C318 -276 342 -273 369 -262 C416 -242 448 -189 448 -132 C448 -82 404 -48 341 -48 C283 -48 238 -81 238 -124 C238 -163 280 -195 329 -195 C362 -195 390 -185 411 -165 C397 -232 358 -254 252 -254 L252 -277 Z " />
<glyph glyph-name="Ncaron" unicode="&#x147;" horiz-adv-x="821" d="M702 0 L702 457 C702 573 743 645 807 644 L807 667 L540 667 L540 644 L562 644 C637 646 673 583 675 449 L675 295 L398 667 L13 667 L13 644 L75 644 L119 582 L119 192 C116 87 75 23 13 23 L13 0 L270 0 L270 23 C189 21 145 93 146 228 L146 545 L540 0 L702 0 Z M231 849 C297 825 347 784 365 738 L480 738 C499 784 549 825 615 849 L606 879 C546 875 484 857 423 827 C363 857 300 875 240 879 L231 849 Z " />
<glyph glyph-name="ncaron" unicode="&#x148;" horiz-adv-x="686" d="M679 0 L679 20 L613 20 L613 287 C613 332 604 359 581 381 C556 406 513 420 467 420 C410 420 354 400 301 359 L301 426 C255 416 236 414 200 413 L7 413 L7 393 L74 393 L74 20 L7 20 L7 0 L335 0 L335 20 L301 20 L301 334 C324 355 339 363 354 363 C375 363 386 346 386 311 L386 20 L352 20 L352 0 L679 0 Z M166 606 C229 582 277 541 295 495 L404 495 C422 541 470 582 532 606 L523 636 C466 632 407 614 349 584 C292 614 232 632 175 636 L166 606 Z " />
<glyph glyph-name="Omacron" unicode="&#x14c;" horiz-adv-x="805" d="M401 687 C291 687 202 656 132 593 C64 531 30 447 30 338 C30 212 72 121 162 53 C226 4 307 -20 407 -20 C513 -20 595 7 654 60 C731 129 775 227 775 332 C775 554 634 687 401 687 L401 687 Z M349 601 C349 644 367 666 403 666 C438 666 456 644 456 601 L456 68 C456 21 440 1 402 1 C365 1 349 21 349 68 L349 601 Z M572 827 L233 827 L233 756 L572 756 L572 827 Z " />
<glyph glyph-name="omacron" unicode="&#x14d;" horiz-adv-x="612" d="M305 420 C234 420 164 402 112 369 C54 333 20 269 20 196 C20 71 134 -13 305 -13 C389 -13 470 9 521 47 C565 79 592 135 592 195 C592 332 480 420 305 420 L305 420 Z M352 70 C352 26 338 8 304 8 C271 8 260 24 260 70 L260 335 C260 384 272 402 307 402 C341 402 352 386 352 338 L352 70 Z M456 601 L156 601 L156 530 L456 530 L456 601 Z " />
<glyph glyph-name="Ohungarumlaut" unicode="&#x150;" horiz-adv-x="805" d="M401 687 C291 687 202 656 132 593 C64 531 30 447 30 338 C30 212 72 121 162 53 C226 4 307 -20 407 -20 C513 -20 595 7 654 60 C731 129 775 227 775 332 C775 554 634 687 401 687 L401 687 Z M349 601 C349 644 367 666 403 666 C438 666 456 644 456 601 L456 68 C456 21 440 1 402 1 C365 1 349 21 349 68 L349 601 Z M298 717 L321 718 L493 836 L493 859 L327 859 L298 717 Z M485 717 L508 718 L680 836 L680 859 L513 859 L485 717 Z " />
<glyph glyph-name="ohungarumlaut" unicode="&#x151;" horiz-adv-x="612" d="M305 420 C234 420 164 402 112 369 C54 333 20 269 20 196 C20 71 134 -13 305 -13 C389 -13 470 9 521 47 C565 79 592 135 592 195 C592 332 480 420 305 420 L305 420 Z M352 70 C352 26 338 8 304 8 C271 8 260 24 260 70 L260 335 C260 384 272 402 307 402 C341 402 352 386 352 338 L352 70 Z M190 483 L212 484 L375 602 L375 625 L217 625 L190 483 Z M372 483 L395 484 L567 602 L567 625 L400 625 L372 483 Z " />
<glyph glyph-name="OE" unicode="&#x152;" horiz-adv-x="1081" d="M1021 0 L1021 245 L999 245 C980 112 879 31 725 24 L725 331 C812 334 864 275 861 179 L884 179 L884 509 L861 509 L861 498 C861 450 846 410 819 385 C794 362 771 354 725 354 L725 642 C866 651 968 575 978 455 L999 455 L999 667 L532 667 C481 682 450 687 401 687 C312 687 232 666 173 626 C83 566 29 459 29 341 C29 230 78 121 157 57 C219 6 301 -20 398 -20 C447 -20 486 -15 539 0 L1021 0 Z M345 590 C345 645 360 666 398 666 C437 666 452 645 452 590 L452 77 C452 22 437 1 399 1 C360 1 345 22 345 77 L345 590 Z " />
<glyph glyph-name="oe" unicode="&#x153;" horiz-adv-x="861" d="M817 129 C771 68 689 19 632 19 C610 19 593 30 583 49 C576 64 574 76 574 112 L574 207 L841 207 C814 342 727 420 603 420 C557 420 513 410 462 388 C408 411 360 420 304 420 C140 420 20 329 20 204 C20 135 55 76 119 38 C173 6 242 -13 305 -13 C357 -13 408 -3 462 19 C506 -4 541 -13 590 -13 C685 -13 775 33 832 112 L817 129 Z M669 228 L574 228 L574 339 C574 377 591 397 622 397 C653 397 669 378 669 339 L669 228 Z M353 67 C353 22 340 4 308 4 C275 4 261 22 261 66 L261 339 C261 381 277 401 310 401 C340 401 353 382 353 338 L353 67 Z " />
<glyph glyph-name="Racute" unicode="&#x154;" horiz-adv-x="864" d="M811 118 C806 90 799 78 788 78 C775 78 771 87 771 115 L771 134 C775 195 775 195 775 212 C775 258 765 287 739 312 C723 327 711 333 665 351 C745 383 780 432 780 510 C780 562 761 607 727 633 C697 657 650 667 571 667 L23 667 L23 644 L101 644 L101 23 L23 23 L23 0 L455 0 L455 23 L388 23 L388 339 C401 340 407 340 416 340 C479 340 493 328 493 275 C495 130 497 106 515 70 C543 13 598 -14 689 -14 C746 -14 784 2 807 34 C819 53 826 72 834 112 L811 118 Z M388 644 L421 644 C478 645 493 631 494 575 L494 434 C491 373 473 361 388 363 L388 644 Z M358 716 L384 716 L570 829 L570 856 L395 856 L358 716 Z " />
<glyph glyph-name="racute" unicode="&#x155;" horiz-adv-x="521" d="M367 0 L367 20 L301 20 L301 258 C306 288 324 320 344 335 C341 326 341 321 341 315 C341 268 375 234 424 234 C475 234 515 276 515 330 C515 382 483 416 433 416 C388 416 345 383 301 313 L301 426 C259 416 229 413 175 413 L7 413 L7 393 L74 393 L74 20 L7 20 L7 0 L367 0 Z M245 483 L278 483 L447 596 L447 623 L281 623 L245 483 Z " />
<glyph glyph-name="Rcommaaccent" unicode="&#x156;" horiz-adv-x="864" d="M811 118 C806 90 799 78 788 78 C775 78 771 87 771 115 L771 134 C775 195 775 195 775 212 C775 258 765 287 739 312 C723 327 711 333 665 351 C745 383 780 432 780 510 C780 562 761 607 727 633 C697 657 650 667 571 667 L23 667 L23 644 L101 644 L101 23 L23 23 L23 0 L455 0 L455 23 L388 23 L388 339 C401 340 407 340 416 340 C479 340 493 328 493 275 C495 130 497 106 515 70 C543 13 598 -14 689 -14 C746 -14 784 2 807 34 C819 53 826 72 834 112 L811 118 Z M388 644 L421 644 C478 645 493 631 494 575 L494 434 C491 373 473 361 388 363 L388 644 Z M339 -288 C405 -286 429 -283 456 -272 C503 -253 535 -200 535 -142 C535 -87 489 -48 423 -48 C361 -48 314 -82 314 -126 C314 -169 361 -206 416 -206 C449 -206 477 -196 499 -176 C485 -243 446 -265 339 -265 L339 -288 Z " />
<glyph glyph-name="rcommaaccent" unicode="&#x157;" horiz-adv-x="521" d="M367 0 L367 20 L301 20 L301 258 C306 288 324 320 344 335 C341 326 341 321 341 315 C341 268 375 234 424 234 C475 234 515 276 515 330 C515 382 483 416 433 416 C388 416 345 383 301 313 L301 426 C259 416 229 413 175 413 L7 413 L7 393 L74 393 L74 20 L7 20 L7 0 L367 0 Z M102 -277 C168 -276 193 -273 220 -262 C266 -242 299 -189 299 -132 C299 -82 255 -48 192 -48 C133 -48 88 -81 88 -124 C88 -163 130 -195 179 -195 C212 -195 240 -185 262 -165 C248 -232 209 -254 102 -254 L102 -277 Z " />
<glyph glyph-name="Rcaron" unicode="&#x158;" horiz-adv-x="864" d="M811 118 C806 90 799 78 788 78 C775 78 771 87 771 115 L771 134 C775 195 775 195 775 212 C775 258 765 287 739 312 C723 327 711 333 665 351 C745 383 780 432 780 510 C780 562 761 607 727 633 C697 657 650 667 571 667 L23 667 L23 644 L101 644 L101 23 L23 23 L23 0 L455 0 L455 23 L388 23 L388 339 C401 340 407 340 416 340 C479 340 493 328 493 275 C495 130 497 106 515 70 C543 13 598 -14 689 -14 C746 -14 784 2 807 34 C819 53 826 72 834 112 L811 118 Z M388 644 L421 644 C478 645 493 631 494 575 L494 434 C491 373 473 361 388 363 L388 644 Z M211 849 C277 825 327 784 345 738 L461 738 C480 784 529 825 595 849 L586 879 C526 875 464 857 403 827 C343 857 280 875 220 879 L211 849 Z " />
<glyph glyph-name="rcaron" unicode="&#x159;" horiz-adv-x="521" d="M367 0 L367 20 L301 20 L301 258 C306 288 324 320 344 335 C341 326 341 321 341 315 C341 268 375 234 424 234 C475 234 515 276 515 330 C515 382 483 416 433 416 C388 416 345 383 301 313 L301 426 C259 416 229 413 175 413 L7 413 L7 393 L74 393 L74 20 L7 20 L7 0 L367 0 Z M90 606 C153 582 200 541 218 495 L328 495 C346 541 393 582 456 606 L447 636 C390 632 331 614 273 584 C215 614 156 632 99 636 L90 606 Z " />
<glyph glyph-name="Sacute" unicode="&#x15a;" horiz-adv-x="634" d="M581 456 L581 687 L489 631 C424 673 378 687 312 687 C166 687 56 587 56 453 C56 359 115 284 243 217 C338 167 339 167 360 150 C386 129 396 112 396 89 C396 41 352 9 285 9 C217 9 148 49 96 116 C70 151 58 193 59 254 L33 254 L33 -17 L122 43 C187 -4 233 -21 297 -21 C355 -21 426 -4 475 22 C554 63 594 129 594 218 C594 327 550 377 361 479 C293 516 286 520 269 533 C251 547 242 564 242 585 C242 631 275 660 329 660 C397 660 478 622 520 569 C543 540 555 502 556 456 L581 456 Z M287 716 L314 716 L500 829 L500 856 L325 856 L287 716 Z " />
<glyph glyph-name="sacute" unicode="&#x15b;" horiz-adv-x="506" d="M450 247 L450 423 L374 378 C317 409 277 420 228 420 C118 420 37 355 37 267 C37 193 102 140 257 88 C289 77 299 68 299 49 C299 26 283 14 252 14 C193 14 131 37 96 71 C70 98 58 126 55 167 L33 167 L33 -17 L99 33 C145 3 211 -14 275 -14 C395 -14 472 42 472 130 C472 178 453 212 412 239 C375 262 357 272 289 304 C207 347 207 347 207 365 C207 384 221 394 246 394 C290 394 347 374 377 348 C408 321 424 291 429 247 L450 247 Z M222 483 L256 483 L425 596 L425 623 L258 623 L222 483 Z " />
<glyph glyph-name="Scircumflex" unicode="&#x15c;" horiz-adv-x="634" d="M581 456 L581 687 L489 631 C424 673 378 687 312 687 C166 687 56 587 56 453 C56 359 115 284 243 217 C338 167 339 167 360 150 C386 129 396 112 396 89 C396 41 352 9 285 9 C217 9 148 49 96 116 C70 151 58 193 59 254 L33 254 L33 -17 L122 43 C187 -4 233 -21 297 -21 C355 -21 426 -4 475 22 C554 63 594 129 594 218 C594 327 550 377 361 479 C293 516 286 520 269 533 C251 547 242 564 242 585 C242 631 275 660 329 660 C397 660 478 622 520 569 C543 540 555 502 556 456 L581 456 Z M524 758 C459 782 409 823 390 869 L275 869 C256 823 206 782 140 758 L150 728 C209 732 272 750 332 780 C393 750 455 732 515 728 L524 758 Z " />
<glyph glyph-name="scircumflex" unicode="&#x15d;" horiz-adv-x="506" d="M450 247 L450 423 L374 378 C317 409 277 420 228 420 C118 420 37 355 37 267 C37 193 102 140 257 88 C289 77 299 68 299 49 C299 26 283 14 252 14 C193 14 131 37 96 71 C70 98 58 126 55 167 L33 167 L33 -17 L99 33 C145 3 211 -14 275 -14 C395 -14 472 42 472 130 C472 178 453 212 412 239 C375 262 357 272 289 304 C207 347 207 347 207 365 C207 384 221 394 246 394 C290 394 347 374 377 348 C408 321 424 291 429 247 L450 247 Z M442 525 C379 549 332 590 314 636 L204 636 C186 590 139 549 76 525 L85 495 C142 499 201 517 259 547 C317 517 376 499 433 495 L442 525 Z " />
<glyph glyph-name="Scedilla" unicode="&#x15e;" horiz-adv-x="634" d="M300 -21 C341 -21 394 -10 441 7 C541 44 594 117 594 219 C594 327 550 377 361 479 C294 515 286 520 269 533 C251 548 242 564 242 585 C242 631 275 660 329 660 C397 660 478 622 520 569 C543 540 555 502 556 456 L581 456 L581 687 L489 631 C424 673 378 687 312 687 C166 687 56 587 56 454 C56 360 116 285 243 218 C338 168 339 168 360 151 C386 130 396 113 396 90 C396 42 352 10 285 10 C218 10 148 50 96 117 C69 152 58 193 59 254 L33 254 L33 -17 L122 43 C176 3 219 -15 274 -20 L229 -83 L241 -94 C250 -88 256 -86 266 -86 C288 -86 303 -102 303 -124 C303 -155 280 -172 239 -172 C213 -172 196 -169 165 -158 L157 -175 C200 -193 235 -199 292 -199 C339 -199 366 -194 389 -183 C414 -170 429 -148 429 -123 C429 -82 390 -55 331 -55 C309 -55 293 -58 269 -65 L300 -21 Z " />
<glyph glyph-name="scedilla" unicode="&#x15f;" horiz-adv-x="506" d="M264 -13 C271 -14 277 -14 279 -14 C395 -14 472 43 472 130 C472 178 453 213 412 239 C376 262 357 272 289 304 C207 347 207 347 207 365 C207 384 221 394 246 394 C290 394 347 374 377 348 C408 321 424 291 429 247 L450 247 L450 423 L374 378 C317 409 277 420 228 420 C118 420 37 355 37 267 C37 193 102 140 257 88 C289 77 299 68 299 49 C299 26 283 14 252 14 C193 14 131 37 96 71 C70 98 58 126 55 167 L33 167 L33 -17 L99 33 C131 11 190 -8 240 -12 L192 -83 L203 -94 C212 -88 218 -86 228 -86 C248 -86 263 -102 263 -124 C263 -155 241 -172 201 -172 C177 -172 160 -169 131 -158 L123 -175 C165 -193 197 -199 252 -199 C338 -199 382 -173 382 -123 C382 -82 345 -55 289 -55 C268 -55 253 -58 229 -65 L264 -13 Z " />
<glyph glyph-name="Scaron" unicode="&#x160;" horiz-adv-x="634" d="M581 456 L581 687 L489 631 C424 673 378 687 312 687 C166 687 56 587 56 453 C56 359 115 284 243 217 C338 167 339 167 360 150 C386 129 396 112 396 89 C396 41 352 9 285 9 C217 9 148 49 96 116 C70 151 58 193 59 254 L33 254 L33 -17 L122 43 C187 -4 233 -21 297 -21 C355 -21 426 -4 475 22 C554 63 594 129 594 218 C594 327 550 377 361 479 C293 516 286 520 269 533 C251 547 242 564 242 585 C242 631 275 660 329 660 C397 660 478 622 520 569 C543 540 555 502 556 456 L581 456 Z M131 849 C197 825 247 784 265 738 L381 738 C400 784 449 825 515 849 L506 879 C446 875 384 857 323 827 C263 857 200 875 140 879 L131 849 Z " />
<glyph glyph-name="scaron" unicode="&#x161;" horiz-adv-x="506" d="M450 247 L450 423 L374 378 C317 409 277 420 228 420 C118 420 37 355 37 267 C37 193 102 140 257 88 C289 77 299 68 299 49 C299 26 283 14 252 14 C193 14 131 37 96 71 C70 98 58 126 55 167 L33 167 L33 -17 L99 33 C145 3 211 -14 275 -14 C395 -14 472 42 472 130 C472 178 453 212 412 239 C375 262 357 272 289 304 C207 347 207 347 207 365 C207 384 221 394 246 394 C290 394 347 374 377 348 C408 321 424 291 429 247 L450 247 Z M74 606 C136 582 184 541 202 495 L312 495 C330 541 377 582 440 606 L431 636 C374 632 315 614 257 584 C199 614 140 632 83 636 L74 606 Z " />
<glyph glyph-name="Tcommaaccent" unicode="&#x162;" horiz-adv-x="739" d="M603 0 L603 23 L514 23 L514 644 C610 610 684 527 698 435 L721 435 L721 667 L18 667 L18 435 L41 435 C64 536 123 602 227 644 L227 23 L138 23 L138 0 L603 0 Z M283 -288 C349 -286 373 -283 400 -272 C447 -253 479 -200 479 -142 C479 -87 433 -48 367 -48 C305 -48 258 -82 258 -126 C258 -169 305 -206 360 -206 C393 -206 421 -196 442 -176 C428 -243 389 -265 283 -265 L283 -288 Z " />
<glyph glyph-name="tcommaaccent" unicode="&#x163;" horiz-adv-x="397" d="M364 152 C345 91 330 70 307 70 C287 70 285 76 285 122 L285 393 L351 393 L351 413 L285 413 L285 616 L261 616 C236 521 106 417 7 413 L7 393 L58 393 L58 104 C58 67 64 48 82 29 C106 5 145 -7 197 -7 C260 -7 305 11 336 47 C354 69 366 92 384 146 L364 152 Z M92 -277 C158 -276 182 -273 209 -262 C255 -242 288 -189 288 -132 C288 -82 244 -48 181 -48 C122 -48 77 -81 77 -124 C77 -163 119 -195 168 -195 C201 -195 230 -185 251 -165 C237 -232 198 -254 92 -254 L92 -277 Z " />
<glyph glyph-name="Tcaron" unicode="&#x164;" horiz-adv-x="739" d="M603 0 L603 23 L514 23 L514 644 C610 610 684 527 698 435 L721 435 L721 667 L18 667 L18 435 L41 435 C64 536 123 602 227 644 L227 23 L138 23 L138 0 L603 0 Z M186 849 C252 825 302 784 321 738 L436 738 C455 784 505 825 570 849 L561 879 C501 875 439 857 378 827 C318 857 255 875 196 879 L186 849 Z " />
<glyph glyph-name="tcaron" unicode="&#x165;" horiz-adv-x="530" d="M364 152 C345 91 330 70 307 70 C287 70 285 76 285 122 L285 393 L351 393 L351 413 L285 413 L285 616 L261 616 C236 521 106 417 7 413 L7 393 L58 393 L58 104 C58 67 64 48 82 29 C106 5 145 -7 197 -7 C260 -7 305 11 336 47 C354 69 366 92 384 146 L364 152 Z M331 491 C397 492 421 495 448 507 C495 526 527 579 527 636 C527 686 483 720 420 720 C362 720 317 687 317 644 C317 605 359 573 408 573 C441 573 469 583 491 603 C477 536 438 514 331 514 L331 491 Z " />
<glyph glyph-name="utilde" unicode="&#x169;" horiz-adv-x="668" d="M368 0 L662 0 L662 20 L595 20 L595 426 C565 418 524 414 484 413 L311 413 L311 393 L368 393 L368 80 C349 62 330 52 315 52 C304 52 294 59 291 69 C288 78 287 84 287 108 L287 426 C253 418 211 413 174 413 L7 413 L7 393 L60 393 L60 102 C60 26 106 -13 196 -13 C256 -13 310 8 368 53 L368 0 Z M508 617 C492 600 481 595 465 595 C450 595 436 598 397 612 C355 627 333 632 309 632 C264 632 239 616 166 538 L183 523 C200 539 208 543 221 543 C232 543 238 541 274 525 C306 512 335 505 361 505 C392 505 424 514 451 531 C473 545 485 556 516 595 C518 599 521 602 524 606 L508 617 Z " />
<glyph glyph-name="Umacron" unicode="&#x16a;" horiz-adv-x="770" d="M756 667 L503 667 L503 644 C586 648 625 580 624 437 L624 180 C624 130 611 94 582 68 C549 38 500 18 457 18 C431 18 410 26 399 39 C388 52 385 69 385 110 L385 644 L455 644 L455 667 L20 667 L20 644 L98 644 L98 176 C98 102 116 69 173 36 C233 2 325 -20 411 -20 C557 -20 651 55 651 170 L651 467 C652 575 692 644 756 644 L756 667 Z M574 827 L236 827 L236 756 L574 756 L574 827 Z " />
<glyph glyph-name="umacron" unicode="&#x16b;" horiz-adv-x="668" d="M368 0 L662 0 L662 20 L595 20 L595 426 C565 418 524 414 484 413 L311 413 L311 393 L368 393 L368 80 C349 62 330 52 315 52 C304 52 294 59 291 69 C288 78 287 84 287 108 L287 426 C253 418 211 413 174 413 L7 413 L7 393 L60 393 L60 102 C60 26 106 -13 196 -13 C256 -13 310 8 368 53 L368 0 Z M484 601 L184 601 L184 530 L484 530 L484 601 Z " />
<glyph glyph-name="ubreve" unicode="&#x16d;" horiz-adv-x="668" d="M368 0 L662 0 L662 20 L595 20 L595 426 C565 418 524 414 484 413 L311 413 L311 393 L368 393 L368 80 C349 62 330 52 315 52 C304 52 294 59 291 69 C288 78 287 84 287 108 L287 426 C253 418 211 413 174 413 L7 413 L7 393 L60 393 L60 102 C60 26 106 -13 196 -13 C256 -13 310 8 368 53 L368 0 Z M466 638 C463 622 458 616 448 609 C430 597 388 590 334 590 C285 590 244 596 224 607 C211 614 206 621 202 638 L181 638 C184 596 191 571 204 551 C226 518 268 502 334 502 C397 502 438 516 460 545 C476 566 484 592 488 638 L466 638 Z " />
<glyph glyph-name="Uring" unicode="&#x16e;" horiz-adv-x="770" d="M756 667 L503 667 L503 644 C586 648 625 580 624 437 L624 180 C624 130 611 94 582 68 C549 38 500 18 457 18 C431 18 410 26 399 39 C388 52 385 69 385 110 L385 644 L455 644 L455 667 L20 667 L20 644 L98 644 L98 176 C98 102 116 69 173 36 C233 2 325 -20 411 -20 C557 -20 651 55 651 170 L651 467 C652 575 692 644 756 644 L756 667 Z M413 906 C333 906 275 866 275 811 C275 755 329 718 412 718 C493 718 548 755 548 810 C548 866 491 906 413 906 L413 906 Z M413 877 C474 877 519 848 519 810 C519 773 476 747 412 747 C347 747 304 772 304 811 C304 849 349 877 413 877 L413 877 Z " />
<glyph glyph-name="uring" unicode="&#x16f;" horiz-adv-x="668" d="M368 0 L662 0 L662 20 L595 20 L595 426 C565 418 524 414 484 413 L311 413 L311 393 L368 393 L368 80 C349 62 330 52 315 52 C304 52 294 59 291 69 C288 78 287 84 287 108 L287 426 C253 418 211 413 174 413 L7 413 L7 393 L60 393 L60 102 C60 26 106 -13 196 -13 C256 -13 310 8 368 53 L368 0 Z M347 672 C280 672 227 632 227 582 C227 531 280 490 345 490 C410 490 463 531 463 582 C463 631 410 672 347 672 L347 672 Z M345 645 C392 645 432 616 432 581 C432 546 393 517 344 517 C295 517 256 546 256 581 C256 617 296 645 345 645 L345 645 Z " />
<glyph glyph-name="Uhungarumlaut" unicode="&#x170;" horiz-adv-x="770" d="M756 667 L503 667 L503 644 C586 648 625 580 624 437 L624 180 C624 130 611 94 582 68 C549 38 500 18 457 18 C431 18 410 26 399 39 C388 52 385 69 385 110 L385 644 L455 644 L455 667 L20 667 L20 644 L98 644 L98 176 C98 102 116 69 173 36 C233 2 325 -20 411 -20 C557 -20 651 55 651 170 L651 467 C652 575 692 644 756 644 L756 667 Z M293 717 L316 718 L488 836 L487 859 L321 859 L293 717 Z M479 717 L502 718 L674 836 L674 859 L508 859 L479 717 Z " />
<glyph glyph-name="uhungarumlaut" unicode="&#x171;" horiz-adv-x="668" d="M368 0 L662 0 L662 20 L595 20 L595 426 C565 418 524 414 484 413 L311 413 L311 393 L368 393 L368 80 C349 62 330 52 315 52 C304 52 294 59 291 69 C288 78 287 84 287 108 L287 426 C253 418 211 413 174 413 L7 413 L7 393 L60 393 L60 102 C60 26 106 -13 196 -13 C256 -13 310 8 368 53 L368 0 Z M214 483 L236 484 L399 602 L399 625 L241 625 L214 483 Z M396 483 L419 484 L591 602 L591 625 L424 625 L396 483 Z " />
<glyph glyph-name="Uogonek" unicode="&#x172;" horiz-adv-x="770" d="M576 -146 C507 -145 476 -127 476 -89 C476 -54 493 -31 543 1 C619 48 648 93 651 170 L651 467 C652 575 692 644 756 644 L756 667 L503 667 L503 644 C586 648 625 580 624 437 L624 180 C624 130 611 94 582 68 C549 38 500 18 457 18 C431 18 410 26 399 39 C388 52 385 69 385 110 L385 644 L455 644 L455 667 L20 667 L20 644 L98 644 L98 176 C98 94 121 59 199 23 C253 -3 339 -20 411 -20 C423 -20 430 -20 444 -19 C395 -46 373 -73 373 -105 C373 -149 421 -180 487 -180 C518 -180 531 -177 576 -163 L576 -146 Z " />
<glyph glyph-name="uogonek" unicode="&#x173;" horiz-adv-x="668" d="M662 0 L662 20 L595 20 L595 426 C565 418 524 414 484 413 L311 413 L311 393 L368 393 L368 80 C349 62 330 52 315 52 C304 52 294 59 291 69 C288 78 287 84 287 108 L287 426 C253 418 211 413 174 413 L7 413 L7 393 L60 393 L60 102 C60 26 106 -13 196 -13 C256 -13 310 8 368 53 L368 0 L570 0 C527 -10 515 -13 501 -19 C448 -41 425 -68 425 -106 C425 -154 466 -180 543 -180 C567 -180 585 -178 623 -171 L624 -150 C556 -145 530 -128 530 -89 C530 -55 551 -24 592 0 L662 0 Z " />
<glyph glyph-name="Wcircumflex" unicode="&#x174;" horiz-adv-x="1172" d="M1172 667 L945 667 L945 644 C982 641 992 638 1005 626 C1021 611 1030 584 1030 552 C1030 527 1024 498 1013 472 L911 230 L772 644 L827 644 L827 667 L422 667 L422 644 L470 644 L569 348 L507 214 L354 644 L402 644 L402 667 L0 667 L0 644 L52 644 L278 0 L436 0 L582 312 L686 0 L840 0 L1041 469 C1083 565 1124 619 1172 644 L1172 667 Z M814 758 C748 782 698 823 679 869 L564 869 C545 823 495 782 429 758 L439 728 C499 732 562 750 622 780 C682 750 745 732 804 728 L814 758 Z " />
<glyph glyph-name="Ycircumflex" unicode="&#x176;" horiz-adv-x="764" d="M764 667 L537 667 L537 644 C567 642 578 640 589 634 C608 623 622 597 622 571 C622 550 612 518 596 489 L523 358 L368 644 L440 644 L440 667 L0 667 L0 644 L42 644 L250 260 L250 23 L167 23 L167 0 L626 0 L626 23 L537 23 L537 328 L633 500 C678 580 719 625 764 644 L764 667 Z M601 758 C536 782 486 823 467 869 L352 869 C333 823 283 782 217 758 L227 728 C287 732 349 750 409 780 C470 750 532 732 592 728 L601 758 Z " />
<glyph glyph-name="ycircumflex" unicode="&#x177;" horiz-adv-x="516" d="M520 413 L348 413 L348 393 C394 388 412 373 412 340 C412 327 407 310 396 290 L372 244 L288 393 L331 393 L331 413 L1 413 L1 393 L27 393 L249 4 L188 -115 C178 -65 141 -34 92 -34 C38 -34 -3 -77 -3 -133 C-3 -188 37 -228 93 -228 C139 -228 174 -200 206 -137 L431 308 C460 365 481 386 520 393 L520 413 Z M454 525 C391 549 344 590 326 636 L216 636 C198 590 151 549 88 525 L97 495 C154 499 213 517 271 547 C329 517 388 499 445 495 L454 525 Z " />
<glyph glyph-name="Ydieresis" unicode="&#x178;" horiz-adv-x="764" d="M764 667 L537 667 L537 644 C567 642 578 640 589 634 C608 623 622 597 622 571 C622 550 612 518 596 489 L523 358 L368 644 L440 644 L440 667 L0 667 L0 644 L42 644 L250 260 L250 23 L167 23 L167 0 L626 0 L626 23 L537 23 L537 328 L633 500 C678 580 719 625 764 644 L764 667 Z M554 886 C496 886 455 853 455 804 C455 757 497 724 557 724 C611 724 648 757 648 804 C648 852 610 886 554 886 L554 886 Z M282 887 C225 887 183 852 183 806 C183 759 226 725 283 725 C339 725 377 758 377 805 C377 854 338 887 282 887 L282 887 Z " />
<glyph glyph-name="Zacute" unicode="&#x179;" horiz-adv-x="733" d="M682 285 L657 285 C655 228 627 170 574 113 C507 41 460 21 371 23 L693 667 L76 667 L76 415 L99 415 C102 488 128 542 182 589 C231 630 265 641 358 644 L40 0 L682 0 L682 285 Z M378 716 L404 716 L590 829 L590 856 L415 856 L378 716 Z " />
<glyph glyph-name="zacute" unicode="&#x17a;" horiz-adv-x="525" d="M505 0 L505 178 L481 178 C481 93 397 23 290 20 L505 413 L39 413 L39 233 L62 233 C74 330 142 392 239 392 L20 0 L505 0 Z M257 483 L291 483 L460 596 L460 623 L293 623 L257 483 Z " />
<glyph glyph-name="Zdotaccent" unicode="&#x17b;" horiz-adv-x="733" d="M682 285 L657 285 C655 228 627 170 574 113 C507 41 460 21 371 23 L693 667 L76 667 L76 415 L99 415 C102 488 128 542 182 589 C231 630 265 641 358 644 L40 0 L682 0 L682 285 Z M399 887 C343 887 301 852 301 806 C301 759 343 725 400 725 C456 725 495 758 495 805 C495 854 456 887 399 887 L399 887 Z " />
<glyph glyph-name="zdotaccent" unicode="&#x17c;" horiz-adv-x="525" d="M505 0 L505 178 L481 178 C481 93 397 23 290 20 L505 413 L39 413 L39 233 L62 233 C74 330 142 392 239 392 L20 0 L505 0 Z M282 647 C226 647 184 612 184 566 C184 520 226 486 283 486 C338 486 377 518 377 566 C377 614 338 647 282 647 L282 647 Z " />
<glyph glyph-name="Zcaron" unicode="&#x17d;" horiz-adv-x="733" d="M682 285 L657 285 C655 228 627 170 574 113 C507 41 460 21 371 23 L693 667 L76 667 L76 415 L99 415 C102 488 128 542 182 589 C231 630 265 641 358 644 L40 0 L682 0 L682 285 Z M207 849 C272 825 323 784 341 738 L456 738 C475 784 525 825 591 849 L581 879 C522 875 460 857 399 827 C339 857 276 875 216 879 L207 849 Z " />
<glyph glyph-name="zcaron" unicode="&#x17e;" horiz-adv-x="525" d="M505 0 L505 178 L481 178 C481 93 397 23 290 20 L505 413 L39 413 L39 233 L62 233 C74 330 142 392 239 392 L20 0 L505 0 Z M110 606 C173 582 220 541 238 495 L348 495 C366 541 413 582 476 606 L467 636 C410 632 351 614 293 584 C235 614 176 632 119 636 L110 606 Z " />
<glyph glyph-name="florin" unicode="&#x192;" horiz-adv-x="667" d="M329 -227 L439 393 L515 393 L518 413 L480 413 C395 413 333 474 333 556 C333 612 364 653 406 653 C408 653 411 653 415 652 C382 636 368 616 368 583 C368 531 417 484 471 484 C515 484 551 519 551 562 C551 624 491 671 411 671 C311 671 236 603 217 493 L203 413 L143 413 L140 393 L199 393 L90 -227 L329 -227 Z " />
<glyph glyph-name="uni01CD" unicode="&#x1cd;" horiz-adv-x="782" d="M778 0 L778 23 L741 23 L517 667 L289 667 L112 174 C74 83 35 28 3 23 L3 0 L262 0 L262 23 C222 24 200 30 180 47 C156 67 141 105 141 148 C141 165 143 179 150 205 L382 205 L445 23 L369 23 L369 0 L778 0 Z M375 228 L158 228 L266 539 L375 228 Z M213 849 C279 825 329 784 348 738 L463 738 C482 784 532 825 597 849 L588 879 C528 875 466 857 405 827 C345 857 282 875 223 879 L213 849 Z " />
<glyph glyph-name="uni01CE" unicode="&#x1ce;" horiz-adv-x="617" d="M589 88 C570 58 565 53 557 53 C553 53 551 59 551 78 L551 267 C551 338 532 367 471 391 C424 410 354 420 267 420 C149 420 84 384 84 319 C84 272 118 240 168 240 C217 240 249 271 249 319 C249 357 233 378 196 390 C210 395 222 397 241 397 C268 397 291 390 306 379 C323 366 327 352 327 313 L327 213 C289 226 256 231 212 231 C162 231 125 224 96 209 C53 187 27 148 27 107 C27 38 97 -13 193 -13 C244 -13 281 -1 332 31 C367 -1 397 -13 442 -13 C520 -13 578 19 607 78 L589 88 Z M327 48 C298 32 286 27 272 27 C252 27 241 41 241 68 L241 161 C241 192 251 204 278 204 C292 204 303 201 327 192 L327 48 Z M143 606 C205 582 253 541 271 495 L380 495 C398 541 446 582 509 606 L500 636 C443 632 383 614 326 584 C268 614 209 632 152 636 L143 606 Z " />
<glyph glyph-name="uni01D3" unicode="&#x1d3;" horiz-adv-x="770" d="M756 667 L503 667 L503 644 C586 648 625 580 624 437 L624 180 C624 130 611 94 582 68 C549 38 500 18 457 18 C431 18 410 26 399 39 C388 52 385 69 385 110 L385 644 L455 644 L455 667 L20 667 L20 644 L98 644 L98 176 C98 102 116 69 173 36 C233 2 325 -20 411 -20 C557 -20 651 55 651 170 L651 467 C652 575 692 644 756 644 L756 667 Z M219 849 C285 825 335 784 354 738 L469 738 C488 784 538 825 603 849 L594 879 C534 875 472 857 411 827 C351 857 289 875 229 879 L219 849 Z " />
<glyph glyph-name="uni01D4" unicode="&#x1d4;" horiz-adv-x="668" d="M368 0 L662 0 L662 20 L595 20 L595 426 C565 418 524 414 484 413 L311 413 L311 393 L368 393 L368 80 C349 62 330 52 315 52 C304 52 294 59 291 69 C288 78 287 84 287 108 L287 426 C253 418 211 413 174 413 L7 413 L7 393 L60 393 L60 102 C60 26 106 -13 196 -13 C256 -13 310 8 368 53 L368 0 Z M162 606 C224 582 272 541 290 495 L400 495 C418 541 465 582 528 606 L519 636 C462 632 403 614 345 584 C287 614 228 632 171 636 L162 606 Z " />
<glyph glyph-name="Gcaron" unicode="&#x1e6;" horiz-adv-x="785" d="M761 277 L761 300 L409 300 L409 277 L459 277 L459 93 C459 39 439 10 401 10 C366 10 350 33 350 83 L350 562 C350 635 369 657 431 657 C494 657 556 626 605 570 C645 525 660 486 662 427 L684 427 L684 687 L585 631 C515 675 474 687 394 687 C305 687 221 663 164 621 C81 559 29 446 29 327 C29 122 182 -20 402 -20 C500 -20 573 1 638 46 L714 -32 L714 277 L761 277 Z M210 849 C276 825 326 784 345 738 L460 738 C479 784 528 825 594 849 L585 879 C525 875 463 857 402 827 C342 857 279 875 219 879 L210 849 Z " />
<glyph glyph-name="gcaron" unicode="&#x1e7;" horiz-adv-x="576" d="M307 85 C282 84 232 84 215 84 C162 84 140 92 140 111 C140 122 148 132 164 141 C206 128 246 123 292 123 C347 123 406 133 449 151 C506 173 536 212 536 264 C536 335 478 383 361 410 C371 442 385 463 408 476 C406 468 405 465 405 457 C405 427 426 407 459 407 C492 407 516 431 516 463 C516 496 492 518 457 518 C408 518 360 474 343 413 C315 418 296 420 270 420 C123 420 33 363 33 269 C33 211 59 182 142 147 C74 110 40 66 40 13 C40 -13 47 -32 67 -56 C49 -81 42 -98 42 -117 C42 -186 131 -232 262 -232 C434 -232 542 -164 542 -55 C542 37 478 85 358 85 L307 85 Z M327 189 C327 154 314 138 285 138 C258 138 245 154 245 187 L245 354 C245 385 259 401 287 401 C314 401 327 386 327 355 L327 189 Z M81 -68 C107 -88 134 -96 179 -96 C193 -96 209 -96 227 -95 C275 -92 290 -92 310 -92 C392 -92 419 -104 419 -142 C419 -184 366 -210 277 -210 C158 -210 72 -165 72 -102 C72 -90 74 -83 81 -68 L81 -68 Z M105 606 C167 582 215 541 233 495 L342 495 C360 541 408 582 471 606 L462 636 C405 632 345 614 288 584 C230 614 171 632 114 636 L105 606 Z " />
<glyph glyph-name="Scommaaccent" unicode="&#x218;" horiz-adv-x="634" d="M581 456 L581 687 L489 631 C424 673 378 687 312 687 C166 687 56 587 56 453 C56 359 115 284 243 217 C338 167 339 167 360 150 C386 129 396 112 396 89 C396 41 352 9 285 9 C217 9 148 49 96 116 C70 151 58 193 59 254 L33 254 L33 -17 L122 43 C187 -4 233 -21 297 -21 C355 -21 426 -4 475 22 C554 63 594 129 594 218 C594 327 550 377 361 479 C293 516 286 520 269 533 C251 547 242 564 242 585 C242 631 275 660 329 660 C397 660 478 622 520 569 C543 540 555 502 556 456 L581 456 Z M225 -288 C291 -286 315 -283 342 -272 C389 -253 421 -200 421 -142 C421 -87 375 -48 309 -48 C247 -48 199 -82 199 -126 C199 -169 246 -206 301 -206 C334 -206 362 -196 384 -176 C370 -243 331 -265 225 -265 L225 -288 Z " />
<glyph glyph-name="scommaaccent" unicode="&#x219;" horiz-adv-x="506" d="M450 247 L450 423 L374 378 C317 409 277 420 228 420 C118 420 37 355 37 267 C37 193 102 140 257 88 C289 77 299 68 299 49 C299 26 283 14 252 14 C193 14 131 37 96 71 C70 98 58 126 55 167 L33 167 L33 -17 L99 33 C145 3 211 -14 275 -14 C395 -14 472 42 472 130 C472 178 453 212 412 239 C375 262 357 272 289 304 C207 347 207 347 207 365 C207 384 221 394 246 394 C290 394 347 374 377 348 C408 321 424 291 429 247 L450 247 Z M170 -277 C236 -276 260 -273 287 -262 C334 -242 366 -189 366 -132 C366 -82 323 -48 259 -48 C201 -48 156 -81 156 -124 C156 -163 198 -195 247 -195 C280 -195 308 -185 330 -165 C316 -232 277 -254 170 -254 L170 -277 Z " />
<glyph glyph-name="uni021A" unicode="&#x21a;" horiz-adv-x="739" d="M603 0 L603 23 L514 23 L514 644 C610 610 684 527 698 435 L721 435 L721 667 L18 667 L18 435 L41 435 C64 536 123 602 227 644 L227 23 L138 23 L138 0 L603 0 Z M283 -288 C349 -286 373 -283 400 -272 C447 -253 479 -200 479 -142 C479 -87 433 -48 367 -48 C305 -48 258 -82 258 -126 C258 -169 305 -206 360 -206 C393 -206 421 -196 442 -176 C428 -243 389 -265 283 -265 L283 -288 Z " />
<glyph glyph-name="uni021B" unicode="&#x21b;" horiz-adv-x="397" d="M364 152 C345 91 330 70 307 70 C287 70 285 76 285 122 L285 393 L351 393 L351 413 L285 413 L285 616 L261 616 C236 521 106 417 7 413 L7 393 L58 393 L58 104 C58 67 64 48 82 29 C106 5 145 -7 197 -7 C260 -7 305 11 336 47 C354 69 366 92 384 146 L364 152 Z M92 -277 C158 -276 182 -273 209 -262 C255 -242 288 -189 288 -132 C288 -82 244 -48 181 -48 C122 -48 77 -81 77 -124 C77 -163 119 -195 168 -195 C201 -195 230 -185 251 -165 C237 -232 198 -254 92 -254 L92 -277 Z " />
<glyph glyph-name="circumflex" unicode="&#x2c6;" horiz-adv-x="500" d="M433 525 C370 549 323 590 305 636 L195 636 C177 590 130 549 67 525 L76 495 C133 499 192 517 250 547 C308 517 367 499 424 495 L433 525 Z " />
<glyph glyph-name="caron" unicode="&#x2c7;" horiz-adv-x="500" d="M67 606 C130 582 177 541 195 495 L305 495 C323 541 370 582 433 606 L424 636 C367 632 308 614 250 584 C192 614 133 632 76 636 L67 606 Z " />
<glyph glyph-name="uni02C9" unicode="&#x2c9;" horiz-adv-x="500" d="M400 601 L100 601 L100 530 L400 530 L400 601 Z " />
<glyph glyph-name="breve" unicode="&#x2d8;" horiz-adv-x="500" d="M382 638 C379 622 374 616 364 609 C345 597 304 590 250 590 C201 590 160 596 140 607 C127 614 122 621 118 638 L97 638 C100 596 107 571 120 551 C142 518 184 502 250 502 C313 502 354 516 376 545 C392 566 400 592 403 638 L382 638 Z " />
<glyph glyph-name="dotaccent" unicode="&#x2d9;" horiz-adv-x="500" d="M252 647 C196 647 154 612 154 566 C154 520 196 486 253 486 C309 486 347 518 347 566 C347 614 308 647 252 647 L252 647 Z " />
<glyph glyph-name="ring" unicode="&#x2da;" horiz-adv-x="500" d="M251 672 C185 672 132 632 132 582 C132 531 184 490 250 490 C315 490 367 531 367 582 C367 631 314 672 251 672 L251 672 Z M250 645 C296 645 336 616 336 581 C336 546 297 517 248 517 C200 517 161 546 161 581 C161 617 200 645 250 645 L250 645 Z " />
<glyph glyph-name="ogonek" unicode="&#x2db;" horiz-adv-x="500" d="M330 0 C228 -22 185 -53 185 -106 C185 -154 226 -180 303 -180 C327 -180 345 -178 384 -171 L384 -150 C316 -145 290 -128 290 -89 C290 -55 311 -25 353 1 L330 0 Z " />
<glyph glyph-name="tilde" unicode="&#x2dc;" horiz-adv-x="500" d="M430 606 L414 617 C397 600 386 595 371 595 C355 595 342 598 302 612 C260 627 238 632 215 632 C169 632 144 616 71 538 L89 523 C105 539 113 543 126 543 C138 543 143 541 180 525 C212 512 240 505 266 505 C298 505 330 514 356 531 C378 545 390 556 421 595 L430 606 Z " />
<glyph glyph-name="hungarumlaut" unicode="&#x2dd;" horiz-adv-x="500" d="M151 483 L173 484 L336 602 L336 625 L178 625 L151 483 Z M333 483 L356 484 L528 602 L528 625 L361 625 L333 483 Z " />
<glyph glyph-name="Wdieresis" unicode="&#x1e84;" horiz-adv-x="1172" d="M1172 667 L945 667 L945 644 C982 641 992 638 1005 626 C1021 611 1030 584 1030 552 C1030 527 1024 498 1013 472 L911 230 L772 644 L827 644 L827 667 L422 667 L422 644 L470 644 L569 348 L507 214 L354 644 L402 644 L402 667 L0 667 L0 644 L52 644 L278 0 L436 0 L582 312 L686 0 L840 0 L1041 469 C1083 565 1124 619 1172 644 L1172 667 Z M741 886 C683 886 642 853 642 804 C642 757 684 724 744 724 C798 724 835 757 835 804 C835 852 797 886 741 886 L741 886 Z M469 887 C412 887 370 852 370 806 C370 759 413 725 470 725 C526 725 564 758 564 805 C564 854 525 887 469 887 L469 887 Z " />
<glyph glyph-name="uni2011" unicode="&#x2011;" horiz-adv-x="287" d="M287 151 L287 324 L0 324 L0 151 L287 151 Z " />
<glyph glyph-name="figuredash" unicode="&#x2012;" horiz-adv-x="667" d="M603 171 L603 304 L63 304 L63 171 L603 171 Z " />
<glyph glyph-name="endash" unicode="&#x2013;" horiz-adv-x="667" d="M603 171 L603 304 L63 304 L63 171 L603 171 Z " />
<glyph glyph-name="emdash" unicode="&#x2014;" horiz-adv-x="840" d="M0 171 L840 171 L840 304 L0 304 L0 171 Z " />
<glyph glyph-name="afii00208" unicode="&#x2015;" horiz-adv-x="840" d="M0 171 L840 171 L840 304 L0 304 L0 171 Z " />
<glyph glyph-name="quoteleft" unicode="&#x2018;" horiz-adv-x="320" d="M247 662 L248 687 C180 686 154 682 123 668 C72 646 40 595 40 537 C40 468 87 426 164 426 C230 426 280 463 280 512 C280 560 231 599 168 599 C135 599 103 588 77 568 C79 595 91 616 115 634 C140 653 177 662 232 662 L247 662 Z " />
<glyph glyph-name="quoteright" unicode="&#x2019;" horiz-adv-x="320" d="M72 425 C138 426 167 431 197 444 C248 467 280 517 280 576 C280 645 233 687 156 687 C90 687 40 650 40 601 C40 552 89 513 152 513 C185 513 217 524 243 544 C239 485 184 450 92 450 C89 450 82 450 73 451 L72 425 Z " />
<glyph glyph-name="quotesinglbase" unicode="&#x201a;" horiz-adv-x="320" d="M72 -87 C140 -86 166 -82 197 -68 C248 -45 280 5 280 64 C280 132 233 174 156 174 C90 174 40 137 40 88 C40 40 89 1 152 1 C185 1 218 12 243 32 C235 -33 180 -63 73 -61 L72 -87 Z " />
<glyph glyph-name="quotedblleft" unicode="&#x201c;" horiz-adv-x="575" d="M247 662 L248 687 C180 686 154 682 123 668 C72 646 40 595 40 537 C40 468 87 426 164 426 C230 426 280 463 280 512 C280 560 231 599 168 599 C135 599 103 588 77 568 C79 595 91 616 115 634 C140 653 177 662 232 662 L247 662 Z M502 662 L503 687 C436 686 410 682 379 668 C328 646 296 595 296 537 C296 468 343 426 420 426 C486 426 535 463 535 512 C535 560 486 599 423 599 C390 599 358 588 333 568 C334 595 347 616 370 634 C396 653 433 662 488 662 L502 662 Z " />
<glyph glyph-name="quotedblright" unicode="&#x201d;" horiz-adv-x="575" d="M72 425 C138 426 167 431 197 444 C248 467 280 517 280 576 C280 645 233 687 156 687 C90 687 40 650 40 601 C40 552 89 513 152 513 C185 513 217 524 243 544 C239 485 184 450 92 450 C89 450 82 450 73 451 L72 425 Z M328 425 C393 426 423 431 453 444 C504 467 536 517 536 576 C536 645 489 687 412 687 C346 687 296 650 296 601 C296 552 345 513 408 513 C441 513 473 524 499 544 C495 485 439 450 348 450 C345 450 337 450 329 451 L328 425 Z " />
<glyph glyph-name="quotedblbase" unicode="&#x201e;" horiz-adv-x="575" d="M72 -87 C140 -86 166 -82 197 -68 C248 -45 280 5 280 64 C280 132 233 174 156 174 C90 174 40 137 40 88 C40 40 89 1 152 1 C185 1 218 12 243 32 C235 -33 180 -63 73 -61 L72 -87 Z M328 -87 C396 -86 422 -82 453 -68 C504 -45 536 5 536 63 C536 132 489 174 412 174 C346 174 296 137 296 88 C296 40 345 1 408 1 C440 1 473 12 499 32 C491 -33 436 -63 329 -61 L328 -87 Z " />
<glyph glyph-name="dagger" unicode="&#x2020;" horiz-adv-x="678" d="M454 573 C460 581 462 586 462 591 C462 601 455 608 446 608 C438 608 427 605 395 595 C370 663 355 687 338 687 C320 687 301 655 283 595 C252 606 245 608 233 608 C224 608 217 600 217 592 C217 587 220 581 225 573 L234 559 C272 505 314 410 327 350 C277 362 180 415 145 450 L135 460 C128 465 120 469 113 469 C105 469 99 463 99 454 C99 444 102 426 107 406 C107 405 108 400 109 395 C33 365 20 357 20 339 C20 326 42 309 76 297 L109 284 C99 244 98 240 98 227 C98 217 105 209 114 209 C119 209 126 213 136 222 L149 233 C186 269 284 322 328 329 C309 153 277 19 221 -117 L214 -133 C208 -149 206 -154 206 -157 C206 -165 214 -173 222 -173 C232 -173 251 -167 274 -157 C275 -157 279 -155 283 -154 C311 -227 323 -247 340 -247 C354 -247 369 -221 394 -154 C426 -167 446 -173 453 -173 C462 -173 470 -166 470 -157 C470 -153 468 -147 462 -133 L455 -117 C403 4 365 168 350 329 C402 317 486 273 532 233 L544 222 C551 216 558 212 563 212 C573 212 579 219 579 228 C579 236 576 253 568 284 C627 305 658 324 658 339 C658 355 640 366 569 395 C577 429 580 442 580 451 C580 462 574 469 565 469 C557 469 549 465 543 460 L528 445 C497 414 391 358 351 350 C360 402 404 498 445 559 L454 573 Z " />
<glyph glyph-name="daggerdbl" unicode="&#x2021;" horiz-adv-x="678" d="M455 573 C461 582 463 587 463 591 C463 601 456 608 447 608 C439 608 426 605 395 595 C370 663 355 687 339 687 C323 687 308 661 284 595 C253 605 240 608 233 608 C223 608 216 601 216 592 C216 587 218 581 224 573 L233 559 C272 502 316 405 328 349 C269 359 181 391 153 413 L135 425 C123 433 119 435 114 435 C105 435 98 428 98 418 C98 410 98 410 109 374 C39 356 23 350 23 338 C23 328 50 317 110 303 C102 280 99 266 99 260 C99 251 106 244 114 244 C117 244 117 244 134 254 L148 262 C179 287 252 314 328 328 L316 219 L328 112 C253 126 179 153 148 178 L134 186 C117 196 117 196 114 196 C106 196 99 189 99 181 C99 173 103 159 110 137 C51 123 23 112 23 102 C23 91 30 88 101 69 L109 66 C102 40 98 25 98 22 C98 12 105 5 114 5 C119 5 122 6 135 15 L153 27 C181 50 269 82 328 91 C317 37 272 -62 233 -119 L224 -133 C218 -141 216 -146 216 -151 C216 -161 223 -168 232 -168 C240 -168 252 -165 284 -155 C308 -222 323 -247 339 -247 C355 -247 370 -223 395 -155 C426 -165 439 -168 446 -168 C456 -168 463 -161 463 -152 C463 -147 461 -142 455 -133 L446 -119 C407 -62 363 35 350 91 C409 82 498 50 526 27 L543 15 C557 6 559 5 564 5 C574 5 580 12 580 22 C580 30 579 32 569 66 L578 69 C649 88 656 91 656 102 C656 112 629 123 569 137 C577 162 580 174 580 180 C580 189 573 196 565 196 C561 196 561 196 545 186 L531 178 C500 153 426 126 350 112 L363 219 L350 328 C425 314 500 287 531 262 L545 254 C561 244 561 244 564 244 C573 244 580 251 580 259 C580 267 577 280 569 303 C629 317 656 328 656 338 C656 350 649 353 578 372 L569 374 C576 400 580 415 580 418 C580 428 574 435 564 435 C559 435 556 434 544 425 L526 413 C498 390 411 359 350 349 C362 403 407 502 446 559 L455 573 Z " />
<glyph glyph-name="bullet" unicode="&#x2022;" horiz-adv-x="667" d="M336 479 C258 479 196 417 196 339 C196 263 258 200 334 200 C410 200 471 262 471 340 C471 416 410 479 336 479 L336 479 Z " />
<glyph glyph-name="ellipsis" unicode="&#x2026;" horiz-adv-x="944" d="M158 167 C93 167 40 127 40 79 C40 27 93 -13 161 -13 C226 -13 275 24 275 72 C275 126 224 167 158 167 L158 167 Z M473 167 C408 167 355 127 355 79 C355 27 408 -13 476 -13 C541 -13 590 24 590 72 C590 126 539 167 473 167 L473 167 Z M787 167 C722 167 669 127 669 79 C669 27 722 -13 790 -13 C855 -13 904 24 904 72 C904 126 853 167 787 167 L787 167 Z " />
<glyph glyph-name="perthousand" unicode="&#x2030;" horiz-adv-x="1224" d="M201 678 C97 678 16 579 16 452 C16 324 94 230 200 230 C254 230 305 254 336 293 C367 332 386 394 386 452 C386 582 308 678 201 678 L201 678 Z M174 618 C174 646 181 655 202 655 C222 655 229 646 229 618 L229 289 C229 261 222 252 202 252 C181 252 174 261 174 289 L174 618 Z M290 0 L566 667 L539 667 L263 0 L290 0 Z M621 437 C517 437 436 338 436 211 C436 83 514 -11 621 -11 C675 -11 726 12 757 52 C788 91 807 153 807 211 C807 341 729 437 621 437 L621 437 Z M594 377 C594 405 601 414 622 414 C643 414 650 405 650 377 L650 48 C650 20 643 11 622 11 C601 11 594 20 594 48 L594 377 Z M1026 437 C922 437 841 338 841 211 C841 83 919 -11 1026 -11 C1080 -11 1131 12 1162 52 C1193 91 1212 153 1212 211 C1212 341 1134 437 1026 437 L1026 437 Z M999 377 C999 405 1006 414 1027 414 C1048 414 1055 405 1055 377 L1055 48 C1055 20 1048 11 1027 11 C1006 11 999 20 999 48 L999 377 Z " />
<glyph glyph-name="guilsinglleft" unicode="&#x2039;" horiz-adv-x="347" d="M313 55 L173 208 L313 361 L161 361 L20 208 L161 55 L313 55 Z " />
<glyph glyph-name="guilsinglright" unicode="&#x203a;" horiz-adv-x="347" d="M33 361 L174 208 L33 55 L185 55 L326 208 L185 361 L33 361 Z " />
<glyph glyph-name="uni203E" unicode="&#x203e;" horiz-adv-x="500" d="M0 847 L0 807 L500 807 L500 847 L0 847 Z " />
<glyph glyph-name="fraction" unicode="&#x2044;" horiz-adv-x="79" d="M-147 -13 L256 680 L226 680 L-176 -13 L-147 -13 Z " />
<glyph glyph-name="franc" unicode="&#x20a3;" horiz-adv-x="1072" d="M476 0 L476 23 L388 23 L388 318 C486 319 522 280 525 169 L548 169 L548 501 L525 501 C528 395 480 339 388 341 L388 644 L434 644 C551 650 635 579 653 460 L676 460 L676 667 L23 667 L23 644 L101 644 L101 23 L23 23 L23 0 L476 0 Z M945 0 L945 20 L878 20 L878 202 C884 232 902 264 921 279 C919 270 918 265 918 259 C918 211 952 178 1001 178 C1052 178 1092 220 1092 274 C1092 326 1060 360 1011 360 C965 360 922 326 878 257 L878 370 C837 360 806 357 753 357 L584 357 L584 337 L651 337 L651 20 L584 20 L584 0 L945 0 Z " />
<glyph glyph-name="Euro" unicode="&#x20ac;" horiz-adv-x="735" d="M81 343 L81 340 L81 334 L81 330 L81 326 L81 323 L39 323 L31 303 L82 303 C97 111 240 -20 432 -20 C546 -20 626 20 705 117 L682 133 C617 50 547 10 469 10 C412 10 389 41 389 117 L389 303 L538 303 L547 323 L389 323 L389 343 L555 343 L563 363 L389 363 L389 557 C389 597 391 614 399 627 C409 647 429 657 455 657 C515 657 579 621 625 562 C661 516 676 475 678 411 L701 411 L701 687 L600 631 C542 673 499 687 430 687 C234 687 98 561 82 363 L39 363 L31 343 L81 343 Z " />
<glyph glyph-name="trademark" unicode="&#x2122;" horiz-adv-x="1061" d="M359 287 L359 307 L308 307 L308 646 C364 623 400 582 409 531 L430 531 L430 667 L7 667 L7 531 L28 531 C41 587 71 620 130 645 L130 307 L79 307 L79 287 L359 287 Z M1052 287 L1052 307 L1004 307 L1004 647 L1052 647 L1052 667 L835 667 L762 488 L685 667 L457 667 L457 647 L497 647 L508 627 L508 404 C508 343 483 303 447 307 L447 287 L606 287 L606 307 C555 304 534 333 532 413 L532 591 L659 287 L703 287 L827 590 L827 307 L778 307 L778 287 L1052 287 Z " />
<glyph glyph-name="uni2126" unicode="&#x2126;" horiz-adv-x="768" d="M326 0 L308 155 C230 199 180 288 180 382 C180 434 195 493 221 540 C257 605 317 642 385 642 C453 642 513 605 549 540 C575 493 590 434 590 382 C590 288 540 199 462 155 L444 0 L736 0 L736 153 L712 153 C704 108 684 90 643 90 L497 90 L500 128 C535 141 557 151 580 166 C657 215 702 296 702 382 C702 449 673 522 625 578 C564 648 480 686 385 686 C290 686 206 648 145 578 C97 522 68 449 68 382 C68 296 113 215 190 166 C213 151 235 141 270 128 L273 90 L127 90 C86 90 66 108 58 153 L34 153 L34 0 L326 0 Z " />
<glyph glyph-name="partialdiff" unicode="&#x2202;" horiz-adv-x="494" d="M107 673 C152 697 184 706 219 706 C321 706 379 611 379 447 C379 418 377 394 372 346 C308 396 272 412 221 412 C172 412 131 394 95 355 C51 309 26 246 26 184 C26 76 109 -10 213 -10 C282 -10 341 22 383 84 C429 152 462 286 462 402 C462 519 429 610 360 681 C312 730 259 753 195 753 C156 753 121 745 66 724 L107 673 Z M366 312 C350 200 340 158 314 106 C288 54 244 21 201 21 C146 21 113 73 113 159 C113 273 180 367 261 367 C299 367 324 354 366 312 L366 312 Z " />
<glyph glyph-name="Delta" unicode="&#x2206;" horiz-adv-x="612" d="M6 0 L608 0 L327 688 L6 0 Z M77 51 L290 509 L479 51 L77 51 Z " />
<glyph glyph-name="product" unicode="&#x220f;" horiz-adv-x="823" d="M25 -124 L315 -124 L315 -98 L312 -98 C242 -94 221 -67 224 18 L224 594 C224 656 228 677 242 690 C260 707 272 708 413 708 C556 708 568 707 586 690 C600 677 604 656 604 594 L604 18 C607 -67 586 -94 516 -98 L513 -98 L513 -124 L803 -124 L803 -98 L800 -98 C730 -94 709 -67 712 18 L712 609 C709 694 730 721 800 725 L803 725 L803 751 L25 751 L25 725 L28 725 C98 721 119 694 116 609 L116 18 C119 -67 98 -94 28 -98 L25 -98 L25 -124 Z " />
<glyph glyph-name="summation" unicode="&#x2211;" horiz-adv-x="713" d="M176 711 L444 711 C560 710 590 688 606 587 L632 587 L622 752 L23 752 L256 285 L14 -123 L641 -123 L695 87 L669 87 C639 7 605 -12 491 -11 L163 -11 L364 341 L176 711 Z " />
<glyph glyph-name="minus" unicode="&#x2212;" horiz-adv-x="667" d="M567 356 L100 356 L100 313 L567 313 L567 356 Z " />
<glyph glyph-name="uni2215" unicode="&#x2215;" horiz-adv-x="79" d="M-147 -13 L256 680 L226 680 L-176 -13 L-147 -13 Z " />
<glyph glyph-name="uni2219" unicode="&#x2219;" horiz-adv-x="315" d="M158 296 C93 296 40 256 40 208 C40 156 93 116 161 116 C226 116 275 153 275 201 C275 255 224 296 158 296 L158 296 Z " />
<glyph glyph-name="radical" unicode="&#x221a;" horiz-adv-x="549" d="M363 -35 L515 908 L480 913 L353 123 L156 520 L10 449 L26 414 L121 461 L363 -35 Z " />
<glyph glyph-name="infinity" unicode="&#x221e;" horiz-adv-x="713" d="M357 302 C299 375 234 414 171 414 C86 414 26 351 26 263 C26 176 84 115 167 115 C224 115 281 142 327 192 C334 200 340 206 357 227 C416 155 485 114 548 114 C631 114 688 175 688 265 C688 354 629 414 543 414 C476 414 412 376 357 302 L357 302 Z M391 264 C434 325 493 362 546 362 C600 362 638 321 638 264 C638 204 603 166 549 166 C496 166 460 188 391 264 L391 264 Z M324 266 C276 204 216 167 163 167 C111 167 76 207 76 266 C76 323 113 362 167 362 C218 362 257 338 324 266 L324 266 Z " />
<glyph glyph-name="integral" unicode="&#x222b;" horiz-adv-x="274" d="M180 576 C180 653 179 691 176 746 C174 774 173 800 173 815 C173 855 184 878 202 878 C208 878 213 876 215 872 C232 845 239 839 256 839 C276 839 291 853 291 871 C291 898 267 916 231 916 C186 916 152 887 138 838 C123 784 113 682 113 577 L113 232 C113 160 114 124 117 63 C119 34 120 4 120 -12 C120 -47 108 -70 89 -70 C81 -70 74 -65 68 -52 C59 -35 51 -30 37 -30 C17 -30 2 -44 2 -63 C2 -89 26 -107 62 -107 C107 -107 141 -78 155 -29 C170 25 180 126 180 232 L180 576 Z " />
<glyph glyph-name="approxequal" unicode="&#x2248;" horiz-adv-x="549" d="M489 251 C444 199 423 187 384 187 C365 187 354 190 285 211 C212 234 188 239 160 239 C101 239 54 211 14 155 L57 121 C103 174 120 184 159 184 C180 184 180 184 271 157 C350 133 354 132 385 132 C449 132 496 160 527 217 L489 251 Z M489 408 C443 356 423 344 384 344 C365 344 354 347 285 368 C212 391 188 396 160 396 C101 396 54 369 14 312 L57 278 C103 331 119 341 159 341 C180 341 180 341 271 314 C350 290 354 289 385 289 C449 289 496 317 527 374 L489 408 Z " />
<glyph glyph-name="notequal" unicode="&#x2260;" horiz-adv-x="549" d="M187 142 L115 -1 L161 -25 L246 142 L540 142 L540 197 L273 197 L344 336 L540 336 L540 391 L371 391 L439 525 L392 549 L312 391 L15 391 L15 336 L285 336 L215 197 L15 197 L15 142 L187 142 Z " />
<glyph glyph-name="lessequal" unicode="&#x2264;" horiz-adv-x="549" d="M526 55 L29 55 L29 0 L526 0 L526 55 Z M526 639 L29 405 L29 350 L526 117 L526 179 L108 378 L526 577 L526 639 Z " />
<glyph glyph-name="greaterequal" unicode="&#x2265;" horiz-adv-x="549" d="M526 55 L29 55 L29 0 L526 0 L526 55 Z M29 639 L29 577 L447 378 L29 179 L29 117 L526 350 L526 405 L29 639 Z " />
<glyph glyph-name="lozenge" unicode="&#x25ca;" horiz-adv-x="494" d="M209 0 L269 -1 L466 374 L277 740 L214 740 L18 377 L209 0 Z M240 58 L81 376 L245 683 L402 373 L240 58 Z " />
<glyph glyph-name="fi" unicode="&#xfb01;" horiz-adv-x="735" d="M728 20 L662 20 L662 426 C633 419 570 413 536 413 L317 413 C269 413 251 418 226 437 C191 466 171 506 171 549 C171 610 211 664 257 664 C262 664 265 663 271 660 C228 645 203 610 203 567 C203 518 239 484 292 484 C346 484 383 520 383 572 C383 636 329 683 256 683 C206 683 159 662 123 623 C88 585 74 542 74 477 L74 413 L7 413 L7 393 L74 393 L74 20 L7 20 L7 0 L363 0 L363 20 L301 20 L301 393 L435 393 L435 20 L381 20 L381 0 L728 0 L728 20 Z M547 674 C481 674 433 639 433 592 C433 541 478 509 548 509 C617 509 662 542 662 591 C662 640 614 674 547 674 L547 674 Z " />
<glyph glyph-name="fl" unicode="&#xfb02;" horiz-adv-x="735" d="M374 393 L374 413 L317 413 C269 413 251 418 226 437 C191 466 171 506 171 549 C171 610 211 664 257 664 C262 664 265 663 271 660 C228 645 203 610 203 567 C203 518 239 484 293 484 C347 484 384 520 384 572 C384 636 330 683 256 683 C206 683 160 662 123 623 C88 585 74 542 74 477 L74 413 L7 413 L7 393 L74 393 L74 20 L7 20 L7 0 L364 0 L364 20 L301 20 L301 393 L374 393 Z M728 0 L728 20 L662 20 L662 680 C641 673 599 668 559 667 L382 667 L382 647 L435 647 L435 20 L381 20 L381 0 L728 0 Z " />
</font>
</svg>
