<?xml version="1.0" encoding="UTF-8"?>
<svg xmlns="http://www.w3.org/2000/svg" xmlns:xlink="http://www.w3.org/1999/xlink" version="1.2" >
<font id="FranklinGothic URW Heavy Italic">
<font-face  font-family="FranklinGothic URW" units-per-em="1000" ascent="667" descent="-333" font-style="italic" font-weight="850" font-stretch="normal" slope="-9.5" cap-height="667" x-height="490" underline-position="-46" underline-thickness="117" />
<missing-glyph  horiz-adv-x="250" d="" />
<glyph glyph-name="NULL" d="" />
<glyph glyph-name="CR" unicode="&#xd;" horiz-adv-x="250" d="" />
<glyph glyph-name="space" unicode="&#x20;" horiz-adv-x="250" d="" />
<glyph glyph-name="exclam" unicode="&#x21;" horiz-adv-x="316" d="M332 667 L105 667 L95 223 L208 223 L332 667 Z M241 177 L52 177 L22 0 L211 0 L241 177 Z " />
<glyph glyph-name="quotedbl" unicode="&#x22;" horiz-adv-x="406" d="M180 389 L251 667 L110 667 L88 389 L180 389 Z M364 389 L435 667 L295 667 L272 389 L364 389 Z " />
<glyph glyph-name="numbersign" unicode="&#x23;" horiz-adv-x="587" d="M551 303 L454 303 L471 377 L567 377 L591 480 L496 480 L539 667 L428 667 L384 480 L306 480 L349 667 L246 667 L202 480 L94 480 L70 377 L178 377 L161 303 L51 303 L27 199 L136 199 L90 0 L193 0 L240 199 L318 199 L272 0 L383 0 L430 199 L527 199 L551 303 Z M360 377 L343 303 L264 303 L281 377 L360 377 Z " />
<glyph glyph-name="dollar" unicode="&#x24;" horiz-adv-x="587" d="M578 488 C547 576 491 629 409 645 L424 737 L317 737 L303 656 C241 653 210 645 170 623 C104 585 64 519 64 445 C64 389 90 335 131 305 C161 283 202 268 265 255 C321 243 329 241 342 234 C358 225 365 213 365 198 C365 168 336 151 285 151 C211 151 185 171 169 238 L1 204 C18 101 90 32 196 15 L179 -89 L286 -89 L302 6 C362 11 392 17 423 31 C503 66 551 138 551 222 C551 329 478 393 330 416 C262 427 241 439 241 467 C241 497 272 516 319 516 C348 516 377 508 395 495 C408 486 415 474 424 444 L578 488 Z " />
<glyph glyph-name="percent" unicode="&#x25;" horiz-adv-x="768" d="M588 346 C493 346 415 254 415 141 C415 52 474 -12 556 -12 C652 -12 728 77 728 190 C728 282 671 346 588 346 L588 346 Z M582 258 C605 258 617 241 617 209 C617 182 611 148 602 120 C592 89 580 76 560 76 C538 76 525 93 525 122 C525 146 532 194 539 216 C547 243 562 258 582 258 L582 258 Z M676 667 L582 667 L123 0 L217 0 L676 667 Z M243 681 C147 681 71 592 71 480 C71 384 126 322 210 322 C257 322 298 342 329 379 C361 419 382 475 382 524 C382 617 326 681 243 681 L243 681 Z M239 593 C262 593 272 578 272 544 C272 515 266 478 258 453 C248 422 236 409 215 409 C192 409 180 425 180 456 C180 479 189 533 196 552 C205 579 220 593 239 593 L239 593 Z " />
<glyph glyph-name="ampersand" unicode="&#x26;" horiz-adv-x="719" d="M680 128 C650 126 644 126 636 126 C607 126 594 131 576 151 C621 182 683 270 717 350 L563 382 C557 372 554 366 552 363 L531 320 C518 296 509 283 488 259 L423 350 C462 368 480 379 502 399 C541 434 563 480 563 526 C563 619 478 686 359 686 C237 686 156 618 156 514 C156 474 163 454 200 395 C134 369 111 357 83 335 C41 302 15 245 15 186 C15 65 119 -18 270 -18 C344 -18 397 -1 452 43 C500 -2 536 -17 593 -17 C613 -17 629 -15 657 -7 L680 128 Z M370 151 C349 135 326 127 300 127 C250 127 217 159 217 206 C217 242 238 270 276 285 L370 151 Z M353 450 C331 478 323 497 323 520 C323 549 342 567 370 567 C397 567 417 547 417 520 C417 490 393 464 353 450 L353 450 Z " />
<glyph glyph-name="quotesingle" unicode="&#x27;" horiz-adv-x="222" d="M180 389 L251 667 L110 667 L88 389 L180 389 Z " />
<glyph glyph-name="parenleft" unicode="&#x28;" horiz-adv-x="293" d="M248 667 C208 634 166 587 111 511 C44 418 3 298 3 193 C3 86 42 -43 110 -157 L220 -157 C174 -66 151 30 151 130 C151 233 175 356 212 442 C244 518 296 598 358 667 L248 667 Z " />
<glyph glyph-name="parenright" unicode="&#x29;" horiz-adv-x="293" d="M47 -157 C88 -124 130 -76 185 -1 C252 92 293 211 293 317 C293 424 253 555 185 667 L76 667 C122 576 145 480 145 380 C145 276 121 154 84 68 C52 -8 0 -88 -62 -157 L47 -157 Z " />
<glyph glyph-name="asterisk" unicode="&#x2a;" horiz-adv-x="587" d="M476 299 L399 423 L549 433 L532 545 L381 510 L420 655 L305 674 L293 525 L169 606 L113 506 L249 449 L134 356 L219 273 L315 387 L370 248 L476 299 Z " />
<glyph glyph-name="plus" unicode="&#x2b;" horiz-adv-x="587" d="M551 399 L371 399 L371 586 L246 586 L246 399 L65 399 L65 275 L246 275 L246 87 L371 87 L371 275 L551 275 L551 399 Z " />
<glyph glyph-name="comma" unicode="&#x2c;" horiz-adv-x="275" d="M217 177 L34 177 L4 0 L86 0 L-21 -171 L57 -171 L190 16 L217 177 Z " />
<glyph glyph-name="hyphen" unicode="&#x2d;" horiz-adv-x="275" d="M250 173 L275 320 L25 320 L0 173 L250 173 Z " />
<glyph glyph-name="period" unicode="&#x2e;" horiz-adv-x="275" d="M217 177 L34 177 L4 0 L187 0 L217 177 Z " />
<glyph glyph-name="slash" unicode="&#x2f;" horiz-adv-x="424" d="M467 667 L373 667 L-108 -157 L-13 -157 L467 667 Z " />
<glyph glyph-name="zero" unicode="0" horiz-adv-x="587" d="M340 684 C250 684 174 638 118 548 C72 476 44 370 44 268 C44 200 56 148 83 97 C124 22 186 -15 273 -15 C370 -15 441 29 499 125 C545 201 570 296 570 395 C570 573 482 684 340 684 L340 684 Z M334 543 C375 543 394 514 394 453 C394 402 380 298 364 236 C345 160 319 126 279 126 C240 126 219 159 219 221 C219 254 233 349 248 423 C265 508 290 543 334 543 L334 543 Z " />
<glyph glyph-name="one" unicode="1" horiz-adv-x="587" d="M486 682 L347 682 C297 607 233 576 125 577 L101 437 C115 436 127 435 132 435 C194 435 228 442 268 463 L214 146 L52 146 L28 0 L543 0 L568 146 L396 146 L486 682 Z " />
<glyph glyph-name="two" unicode="2" horiz-adv-x="587" d="M525 159 L255 159 C358 207 408 235 459 271 C532 324 570 393 570 474 C570 596 473 682 336 682 C206 682 120 615 66 473 L214 415 C235 488 271 526 318 526 C355 526 382 501 382 465 C382 419 345 375 238 296 C180 253 85 192 25 159 L-2 0 L499 0 L525 159 Z " />
<glyph glyph-name="three" unicode="3" horiz-adv-x="587" d="M7 179 C28 111 46 80 80 49 C126 6 198 -18 281 -18 C435 -18 544 71 544 197 C544 267 512 312 443 341 C523 361 568 415 568 493 C568 606 465 684 315 684 C248 684 195 667 147 630 C106 598 85 570 63 513 L213 464 C231 515 263 541 311 541 C354 541 384 516 384 482 C384 460 373 439 356 427 C337 414 321 410 279 410 L216 410 L193 273 L257 273 C325 273 355 253 355 207 C355 163 318 129 271 129 C217 129 178 160 163 216 L7 179 Z " />
<glyph glyph-name="four" unicode="4" horiz-adv-x="587" d="M582 289 L486 289 L553 689 L368 689 L43 301 L18 151 L278 151 L253 0 L438 0 L463 151 L559 151 L582 289 Z M311 289 L176 289 L309 450 C313 455 318 460 323 465 C324 467 328 473 335 483 C337 485 341 491 346 497 L343 480 L340 462 L336 440 L311 289 Z " />
<glyph glyph-name="five" unicode="5" horiz-adv-x="587" d="M595 667 L144 667 L56 300 L203 266 C227 298 249 310 284 310 C332 310 367 277 367 231 C367 178 325 138 270 138 C227 138 195 160 177 203 L13 162 C33 109 49 84 84 54 C135 8 201 -15 277 -15 C356 -15 426 11 477 60 C526 107 557 177 557 241 C557 355 472 443 363 443 C309 443 275 427 235 384 L262 502 L554 502 L595 667 Z " />
<glyph glyph-name="six" unicode="6" horiz-adv-x="587" d="M592 502 C582 557 567 586 533 619 C490 661 433 681 362 681 C271 681 202 647 144 574 C83 497 46 380 46 265 C46 178 67 113 112 62 C157 12 214 -11 294 -11 C388 -11 457 21 509 87 C542 130 559 180 559 235 C559 346 484 425 379 425 C320 425 272 399 237 348 C240 379 248 414 264 455 C286 514 313 539 355 539 C393 539 422 514 431 472 L592 502 Z M306 289 C347 289 377 257 377 212 C377 164 341 124 298 124 C257 124 225 157 225 200 C225 249 262 289 306 289 L306 289 Z " />
<glyph glyph-name="seven" unicode="7" horiz-adv-x="587" d="M603 667 L113 667 L69 505 L396 505 C349 480 271 398 210 308 C153 220 98 90 81 0 L311 0 C342 202 442 402 581 535 L603 667 Z " />
<glyph glyph-name="eight" unicode="8" horiz-adv-x="587" d="M461 360 C494 374 510 383 527 398 C559 427 579 472 579 514 C579 616 483 684 339 684 C185 684 79 598 79 472 C79 415 98 376 145 336 C58 300 13 244 13 170 C13 58 116 -15 275 -15 C445 -15 557 72 557 205 C557 276 535 312 461 360 L461 360 Z M359 414 C316 433 290 445 282 452 C270 460 262 477 262 492 C262 526 292 549 336 549 C381 549 414 522 414 485 C414 456 396 432 359 414 L359 414 Z M330 235 C354 224 368 205 368 182 C368 143 333 118 279 118 C222 118 185 146 185 188 C185 225 211 256 254 271 L330 235 Z " />
<glyph glyph-name="nine" unicode="9" horiz-adv-x="587" d="M26 156 C39 105 53 78 84 48 C126 7 185 -15 253 -15 C342 -15 412 21 473 100 C534 177 571 292 571 402 C571 574 472 680 310 680 C234 680 173 657 126 611 C81 567 53 499 53 434 C53 326 132 243 235 243 C295 243 342 268 378 320 C368 205 320 128 258 128 C220 128 190 153 183 192 L26 156 Z M317 544 C361 544 389 515 389 469 C389 417 355 379 308 379 C265 379 235 411 235 457 C235 508 269 544 317 544 L317 544 Z " />
<glyph glyph-name="colon" unicode="&#x3a;" horiz-adv-x="275" d="M217 177 L34 177 L4 0 L187 0 L217 177 Z M270 497 L87 497 L58 320 L241 320 L270 497 Z " />
<glyph glyph-name="semicolon" unicode="&#x3b;" horiz-adv-x="275" d="M217 177 L34 177 L4 0 L86 0 L-21 -171 L57 -171 L190 16 L217 177 Z M271 497 L88 497 L58 320 L241 320 L271 497 Z " />
<glyph glyph-name="less" unicode="&#x3c;" horiz-adv-x="587" d="M524 616 L91 392 L91 277 L524 53 L524 189 L237 334 L524 479 L524 616 Z " />
<glyph glyph-name="equal" unicode="&#x3d;" horiz-adv-x="587" d="M550 485 L64 485 L64 361 L550 361 L550 485 Z M550 299 L64 299 L64 175 L550 175 L550 299 Z " />
<glyph glyph-name="greater" unicode="&#x3e;" horiz-adv-x="587" d="M91 53 L524 277 L524 392 L91 616 L91 480 L379 335 L91 190 L91 53 Z " />
<glyph glyph-name="question" unicode="&#x3f;" horiz-adv-x="512" d="M328 170 L145 170 L117 0 L300 0 L328 170 Z M314 212 C320 247 334 261 399 300 C492 354 529 409 529 489 C529 551 503 605 457 636 C415 665 358 682 300 682 C227 682 164 657 119 610 C86 577 70 547 49 481 L202 448 C212 515 238 547 281 547 C313 547 337 523 337 490 C337 452 321 429 253 374 C192 325 160 268 162 212 L314 212 Z " />
<glyph glyph-name="at" unicode="&#x40;" horiz-adv-x="767" d="M577 502 L485 502 L479 480 C450 503 433 510 403 510 C308 510 233 421 233 307 C233 208 290 136 368 136 C404 136 433 150 460 180 C483 151 510 138 550 138 C660 138 752 249 752 382 C752 554 607 687 418 687 C211 687 50 529 50 326 C50 201 113 87 216 26 C272 -7 343 -24 423 -24 C509 -24 577 -10 651 23 L622 104 C537 70 499 61 435 61 C366 61 312 73 271 98 C194 146 148 232 148 330 C148 486 264 606 415 606 C555 606 663 507 663 379 C663 298 614 228 558 228 C541 228 536 231 536 241 C536 246 538 263 541 281 L577 502 Z M404 415 C440 415 466 385 466 343 C466 285 423 230 379 230 C350 230 331 261 331 308 C331 369 362 415 404 415 L404 415 Z " />
<glyph glyph-name="A" unicode="A" horiz-adv-x="630" d="M373 136 L391 0 L588 0 L484 667 L275 667 L-33 0 L132 0 L194 136 L373 136 Z M361 274 L246 274 L334 467 L361 274 Z " />
<glyph glyph-name="B" unicode="B" horiz-adv-x="646" d="M17 0 L380 0 C449 0 500 13 536 42 C579 75 607 135 607 192 C607 234 592 272 566 299 C550 316 533 326 497 340 C589 363 640 420 640 501 C640 563 606 617 552 643 C515 661 476 667 404 667 L129 667 L17 0 Z M279 412 L298 526 L374 526 C420 526 447 506 447 472 C447 449 433 428 412 419 C398 414 384 412 355 412 L279 412 Z M235 147 L256 273 L339 273 C387 273 416 249 416 211 C416 169 387 147 334 147 L235 147 Z " />
<glyph glyph-name="C" unicode="C" horiz-adv-x="633" d="M435 258 C410 175 382 145 330 145 C276 145 249 180 249 249 C249 298 266 398 283 445 C305 505 333 531 378 531 C410 531 434 515 446 487 C455 466 458 450 458 409 L646 423 C643 501 629 543 590 591 C541 651 472 682 384 682 C258 682 159 623 98 509 C61 442 42 367 42 289 C42 106 151 -14 317 -14 C404 -14 470 15 529 78 C570 122 591 161 614 235 L435 258 Z " />
<glyph glyph-name="D" unicode="D" horiz-adv-x="686" d="M17 0 L261 0 C408 0 456 9 518 50 C616 115 673 232 673 368 C673 465 645 541 589 594 C532 649 472 667 351 667 L129 667 L17 0 Z M241 149 L304 523 L361 523 C435 523 473 472 473 375 C473 298 450 225 413 187 C386 160 351 149 286 149 L241 149 Z " />
<glyph glyph-name="E" unicode="E" horiz-adv-x="573" d="M534 153 L236 153 L256 271 L496 271 L520 416 L280 416 L297 521 L583 521 L607 667 L129 667 L17 0 L508 0 L534 153 Z " />
<glyph glyph-name="F" unicode="F" horiz-adv-x="534" d="M491 399 L277 399 L297 517 L573 517 L598 667 L129 667 L17 0 L210 0 L253 254 L467 254 L491 399 Z " />
<glyph glyph-name="G" unicode="G" horiz-adv-x="681" d="M357 365 L333 224 L442 224 C418 165 390 142 340 142 C280 142 248 182 248 257 C248 302 256 358 270 407 C293 488 330 527 385 527 C438 527 470 499 485 438 L668 468 C646 541 628 574 590 610 C541 658 470 683 387 683 C282 683 198 643 132 560 C73 488 38 380 38 273 C38 102 144 -13 303 -13 C391 -13 442 11 487 73 L493 0 L590 0 L651 365 L357 365 Z " />
<glyph glyph-name="H" unicode="H" horiz-adv-x="676" d="M429 268 L384 0 L577 0 L689 667 L495 667 L454 421 L281 421 L322 667 L129 667 L17 0 L210 0 L255 268 L429 268 Z " />
<glyph glyph-name="I" unicode="I" horiz-adv-x="305" d="M318 667 L129 667 L17 0 L206 0 L318 667 Z " />
<glyph glyph-name="J" unicode="J" horiz-adv-x="417" d="M436 667 L238 667 L174 288 C161 206 161 206 149 185 C135 160 106 146 68 146 C47 146 30 148 -9 154 L-35 0 C18 -10 44 -13 91 -13 C186 -13 245 5 291 49 C330 87 345 123 362 226 L436 667 Z " />
<glyph glyph-name="K" unicode="K" horiz-adv-x="641" d="M475 414 L700 667 L509 667 L414 560 L365 501 C285 407 281 401 263 360 L268 396 L278 452 L286 501 L293 542 L314 667 L129 667 L17 0 L202 0 L229 162 L331 275 L406 0 L603 0 L475 414 Z " />
<glyph glyph-name="L" unicode="L" horiz-adv-x="527" d="M499 160 L246 160 L331 667 L129 667 L17 0 L472 0 L499 160 Z " />
<glyph glyph-name="M" unicode="M" horiz-adv-x="849" d="M862 667 L592 667 L460 372 C450 349 447 342 440 321 C438 327 437 332 437 334 L435 352 L432 372 L397 667 L129 667 L17 0 L168 0 L220 313 C233 389 235 404 251 551 C252 536 253 526 253 522 L255 473 C257 457 262 401 263 388 L309 0 L429 0 L601 388 C618 425 624 439 637 474 C642 490 648 505 654 520 C655 523 659 533 663 543 C659 523 656 509 655 505 C649 481 643 458 638 434 C635 427 628 391 622 355 L563 0 L750 0 L862 667 Z " />
<glyph glyph-name="N" unicode="N" horiz-adv-x="681" d="M694 667 L535 667 L492 414 C485 370 479 322 479 307 C479 299 479 289 481 275 C468 321 432 405 381 513 L308 667 L129 667 L17 0 L180 0 L234 327 C239 355 242 382 242 397 L241 422 C249 383 272 325 307 256 L434 0 L582 0 L694 667 Z " />
<glyph glyph-name="O" unicode="O" horiz-adv-x="687" d="M390 684 C297 684 206 645 146 580 C80 507 39 395 39 283 C39 104 157 -17 331 -17 C441 -17 538 34 599 124 C648 195 677 291 677 378 C677 564 564 684 390 684 L390 684 Z M383 528 C437 528 469 490 469 424 C469 391 455 310 440 250 C420 175 385 138 333 138 C276 138 248 172 248 241 C248 288 262 372 278 426 C299 493 335 528 383 528 L383 528 Z " />
<glyph glyph-name="P" unicode="P" horiz-adv-x="599" d="M251 244 L381 244 C452 244 508 264 548 302 C591 343 617 406 617 467 C617 539 583 601 525 635 C480 661 448 667 349 667 L129 667 L17 0 L210 0 L251 244 Z M275 387 L298 523 L338 523 C395 523 426 500 426 458 C426 412 389 387 321 387 L275 387 Z " />
<glyph glyph-name="Q" unicode="Q" horiz-adv-x="695" d="M615 -7 L595 -8 C571 -10 551 -11 546 -11 C503 -11 482 -1 471 24 C529 51 566 82 600 131 C646 200 673 289 673 377 C673 560 558 679 382 679 C274 679 181 631 119 542 C71 474 41 375 41 290 C41 110 156 -11 325 -11 C343 -11 353 -10 374 -7 C382 -65 391 -88 415 -110 C443 -136 488 -149 544 -149 C565 -149 579 -148 611 -143 L615 -7 Z M380 528 C437 528 468 490 468 420 C468 363 452 269 435 222 C412 161 383 136 334 136 C277 136 247 171 247 240 C247 293 266 394 285 445 C307 504 335 528 380 528 L380 528 Z " />
<glyph glyph-name="R" unicode="R" horiz-adv-x="664" d="M512 279 C546 292 564 301 584 318 C627 355 652 411 652 473 C652 539 624 597 577 630 C540 655 490 667 419 667 L129 667 L17 0 L207 0 L249 253 L328 253 L387 0 L585 0 L512 279 Z M273 392 L295 527 L365 527 C425 527 456 506 456 464 C456 443 444 421 426 409 C408 396 389 392 348 392 L273 392 Z " />
<glyph glyph-name="S" unicode="S" horiz-adv-x="617" d="M624 512 C605 564 584 593 540 623 C487 660 422 678 340 678 C262 678 202 662 156 629 C103 591 71 528 71 460 C71 374 119 317 220 280 L351 232 C358 229 366 225 373 218 C380 211 384 202 384 193 C384 162 355 143 307 143 C240 143 203 164 183 213 L-9 176 C14 116 37 85 78 55 C138 12 215 -10 303 -10 C478 -10 597 84 597 222 C597 282 572 329 520 366 C485 390 485 390 347 439 C298 456 285 467 285 489 C285 516 310 533 350 533 C402 533 440 509 452 468 L624 512 Z " />
<glyph glyph-name="T" unicode="T" horiz-adv-x="501" d="M392 516 L539 516 L564 669 L82 669 L56 516 L199 516 L112 0 L306 0 L392 516 Z " />
<glyph glyph-name="U" unicode="U" horiz-adv-x="644" d="M663 667 L504 667 L434 250 C427 207 421 188 410 173 C395 153 366 141 335 141 C286 141 251 168 251 207 C251 218 253 237 256 257 L325 667 L122 667 L53 257 C49 234 47 208 47 185 C47 61 138 -10 298 -10 C393 -10 474 18 523 70 C560 110 577 152 594 257 L663 667 Z " />
<glyph glyph-name="V" unicode="V" horiz-adv-x="611" d="M681 667 L518 667 L399 389 L374 330 C365 308 356 287 347 266 C346 263 342 252 336 236 L332 261 L323 310 L314 360 L263 667 L59 667 L189 0 L382 0 L681 667 Z " />
<glyph glyph-name="W" unicode="W" horiz-adv-x="886" d="M946 667 L792 667 L679 379 C673 364 667 350 661 336 L656 320 C653 312 647 295 638 268 C637 279 637 290 637 291 L635 325 L631 365 L608 667 L447 667 L315 345 C308 328 304 317 302 313 C300 308 297 298 292 283 L288 268 C287 278 286 285 286 288 L283 328 L279 365 L255 667 L69 667 L144 0 L307 0 L419 277 C430 305 446 346 466 400 L496 0 L671 0 L946 667 Z " />
<glyph glyph-name="X" unicode="X" horiz-adv-x="606" d="M660 667 L481 667 L395 548 L379 526 L359 499 C358 496 353 490 346 481 C334 514 330 523 326 532 L266 667 L54 667 L203 356 L-58 0 L122 0 L245 177 L256 192 C259 198 263 203 267 208 C268 209 270 213 274 218 C280 205 287 192 288 190 C290 183 293 177 296 170 L370 0 L582 0 L418 346 L660 667 Z " />
<glyph glyph-name="Y" unicode="Y" horiz-adv-x="585" d="M671 667 L490 667 L371 489 C367 483 359 471 349 454 L338 437 C329 465 329 466 320 489 L253 667 L42 667 L199 298 L149 0 L348 0 L396 289 L671 667 Z " />
<glyph glyph-name="Z" unicode="Z" horiz-adv-x="578" d="M544 148 L238 148 C246 158 254 167 257 170 C269 184 282 199 295 213 L336 258 L593 540 L615 667 L103 667 L79 522 L238 522 L276 522 L321 522 L345 522 L-2 137 L-25 0 L520 0 L544 148 Z " />
<glyph glyph-name="bracketleft" unicode="&#x5b;" horiz-adv-x="293" d="M214 -90 L102 -90 L218 600 L330 600 L341 667 L109 667 L-29 -157 L203 -157 L214 -90 Z " />
<glyph glyph-name="backslash" unicode="&#x5c;" horiz-adv-x="424" d="M105 667 L309 -157 L396 -157 L190 667 L105 667 Z " />
<glyph glyph-name="bracketright" unicode="&#x5d;" horiz-adv-x="293" d="M82 600 L193 600 L77 -90 L-34 -90 L-45 -157 L186 -157 L324 667 L93 667 L82 600 Z " />
<glyph glyph-name="asciicircum" unicode="&#x5e;" horiz-adv-x="500" d="M159 335 L265 564 L370 335 L510 335 L353 671 L177 671 L19 335 L159 335 Z " />
<glyph glyph-name="underscore" unicode="&#x5f;" horiz-adv-x="500" d="M14 -46 L14 -163 L514 -163 L514 -46 L14 -46 Z " />
<glyph glyph-name="grave" unicode="&#x60;" horiz-adv-x="500" d="M397 630 L195 743 L155 651 L370 567 L397 630 Z " />
<glyph glyph-name="a" unicode="a" horiz-adv-x="594" d="M515 0 C512 18 511 27 511 38 C511 68 511 68 531 181 C558 344 559 350 559 369 C559 454 473 506 332 506 C249 506 186 490 137 457 C105 436 87 414 65 369 L226 337 C246 375 270 391 308 391 C343 391 365 376 365 351 C365 344 363 337 359 323 C350 322 328 320 293 317 C217 310 198 307 157 297 C60 274 5 213 5 131 C5 48 70 -11 162 -11 C232 -11 280 16 324 81 C322 61 321 38 321 24 C321 16 321 12 323 0 L515 0 Z M341 234 C336 192 333 177 325 158 C312 129 280 107 251 107 C224 107 207 123 207 148 C207 176 221 198 247 212 C269 224 284 228 341 234 L341 234 Z " />
<glyph glyph-name="b" unicode="b" horiz-adv-x="586" d="M312 667 L122 667 L10 0 L95 0 L150 82 C186 15 231 -11 310 -11 C398 -11 467 31 515 113 C546 166 566 241 566 306 C566 432 508 506 409 506 C354 506 322 489 272 431 L312 667 Z M252 313 C269 366 290 389 324 389 C357 389 375 363 375 316 C375 278 368 231 358 194 C341 131 320 107 282 107 C259 107 240 119 233 137 C229 145 229 148 229 173 L252 313 Z " />
<glyph glyph-name="c" unicode="c" horiz-adv-x="523" d="M346 192 C330 145 305 123 269 123 C234 123 214 149 214 193 C214 222 221 265 231 301 C244 350 267 375 299 375 C334 375 354 349 354 304 L354 294 L521 314 C520 364 510 395 483 429 C441 481 377 510 302 510 C212 510 130 469 82 398 C45 346 24 279 24 218 C24 82 120 -14 255 -14 C317 -14 380 9 423 47 C453 73 470 99 495 155 L346 192 Z " />
<glyph glyph-name="d" unicode="d" horiz-adv-x="588" d="M607 667 L419 667 L381 436 C354 488 323 506 262 506 C186 506 123 467 77 390 C42 332 22 259 22 187 C22 130 36 80 63 47 C93 8 140 -15 186 -15 C243 -15 292 15 332 74 L320 0 L495 0 L607 667 Z M338 179 C324 132 303 111 268 111 C235 111 217 135 217 178 C217 207 227 266 239 307 C253 356 279 384 311 384 C340 384 362 362 362 335 C362 330 362 324 361 318 L338 179 Z " />
<glyph glyph-name="e" unicode="e" horiz-adv-x="584" d="M552 210 C557 236 558 249 558 266 C558 412 463 505 314 505 C148 505 23 382 23 219 C23 78 121 -15 270 -15 C339 -15 397 4 451 45 C491 74 509 96 534 147 L368 174 C349 130 324 112 284 112 C239 112 210 139 210 180 C210 186 211 199 213 210 L552 210 Z M227 305 C237 360 270 394 315 394 C351 394 377 367 377 329 C377 324 376 314 374 305 L227 305 Z " />
<glyph glyph-name="f" unicode="f" horiz-adv-x="387" d="M422 493 L299 493 C301 550 321 569 384 569 C401 569 419 567 462 561 L474 679 C440 690 392 696 346 696 C272 696 213 677 175 640 C143 608 131 577 118 493 L38 493 L17 367 L97 367 L36 0 L217 0 L278 367 L401 367 L422 493 Z " />
<glyph glyph-name="g" unicode="g" horiz-adv-x="555" d="M575 633 C550 635 539 636 524 636 C480 636 450 627 424 605 C396 581 385 556 373 498 C342 504 327 505 297 505 C224 505 167 494 127 472 C81 446 50 395 50 345 C50 297 72 262 118 236 C38 212 -2 173 -2 119 C-2 86 11 65 46 40 C-19 14 -42 -11 -42 -53 C-42 -135 43 -174 223 -174 C311 -174 371 -164 420 -141 C475 -116 512 -59 512 -1 C512 76 450 129 355 132 L206 136 C195 137 185 140 176 145 C171 149 167 157 167 165 C167 185 185 200 207 200 C215 200 228 199 245 198 C258 196 268 196 291 196 C375 196 424 208 463 239 C499 266 521 310 521 356 C521 408 503 437 446 474 C462 502 482 513 518 513 C530 513 541 512 563 510 L575 633 Z M141 0 C165 -3 165 -3 257 -8 C329 -11 329 -11 338 -16 C345 -20 349 -26 349 -34 C349 -61 318 -71 237 -71 C154 -71 113 -59 113 -34 C113 -22 119 -14 141 0 L141 0 Z M295 410 C329 410 349 390 349 356 C349 315 321 285 282 285 C249 285 228 304 228 335 C228 380 255 410 295 410 L295 410 Z " />
<glyph glyph-name="h" unicode="h" horiz-adv-x="588" d="M309 667 L122 667 L10 0 L197 0 L246 291 C251 322 255 335 261 345 C273 363 293 374 316 374 C343 374 363 358 363 335 C363 331 361 314 357 291 L308 0 L495 0 L547 311 C551 335 554 362 554 380 C554 425 540 457 510 478 C484 496 449 507 415 507 C353 507 311 485 270 432 L309 667 Z " />
<glyph glyph-name="i" unicode="i" horiz-adv-x="294" d="M315 682 L124 682 L100 537 L291 537 L315 682 Z M284 493 L93 493 L10 0 L201 0 L284 493 Z " />
<glyph glyph-name="j" unicode="j" horiz-adv-x="295" d="M317 682 L124 682 L100 537 L293 537 L317 682 Z M286 493 L93 493 L22 67 C8 -12 8 -12 -4 -23 C-16 -32 -34 -37 -61 -37 C-73 -37 -80 -36 -95 -33 L-110 -168 C-75 -174 -59 -176 -32 -176 C21 -176 68 -168 98 -155 C163 -125 189 -84 206 18 L286 493 Z " />
<glyph glyph-name="k" unicode="k" horiz-adv-x="580" d="M614 493 L442 493 L296 360 C292 356 283 347 269 334 C262 326 254 318 247 311 L234 298 L239 327 L249 388 L259 448 L296 667 L122 667 L10 0 L184 0 L206 134 L291 210 L359 0 L547 0 L428 323 C455 349 472 366 528 416 L614 493 Z " />
<glyph glyph-name="l" unicode="l" horiz-adv-x="290" d="M309 667 L122 667 L10 0 L197 0 L309 667 Z " />
<glyph glyph-name="m" unicode="m" horiz-adv-x="851" d="M93 493 L10 0 L191 0 L240 292 C246 325 250 337 258 349 C268 363 287 372 304 372 C328 372 343 356 343 331 C343 321 342 309 339 292 L290 0 L472 0 L519 283 C525 319 528 327 536 342 C547 360 564 370 583 370 C609 370 623 354 623 327 C623 318 622 304 620 292 L571 0 L758 0 L812 321 C815 338 816 355 816 372 C816 452 759 505 672 505 C605 505 561 479 525 417 C503 479 463 508 400 508 C360 508 320 494 291 470 C276 457 266 445 248 417 L261 493 L93 493 Z " />
<glyph glyph-name="n" unicode="n" horiz-adv-x="585" d="M93 493 L10 0 L193 0 L243 296 C252 349 276 375 314 375 C344 375 359 361 359 334 C359 327 358 317 354 296 L305 0 L492 0 L548 337 C551 354 553 373 553 387 C553 460 497 508 413 508 C371 508 331 496 300 475 C277 459 265 444 251 413 L265 493 L93 493 Z " />
<glyph glyph-name="o" unicode="o" horiz-adv-x="582" d="M311 505 C144 505 24 384 24 214 C24 144 44 93 90 51 C135 7 196 -15 267 -15 C434 -15 558 107 558 271 C558 413 461 505 311 505 L311 505 Z M306 387 C342 387 363 359 363 309 C363 267 354 208 341 169 C326 123 307 105 275 105 C238 105 217 133 217 182 C217 219 229 289 241 325 C255 367 276 387 306 387 L306 387 Z " />
<glyph glyph-name="p" unicode="p" horiz-adv-x="587" d="M93 493 L-16 -157 L171 -157 L207 58 C240 7 272 -11 330 -11 C400 -11 456 21 499 84 C540 144 563 219 563 295 C563 424 497 506 394 506 C332 506 299 484 255 414 L269 493 L93 493 Z M250 315 C266 365 283 382 315 382 C349 382 368 356 368 310 C368 285 361 239 350 193 C335 133 315 108 280 108 C249 108 229 131 229 168 C229 189 238 248 250 315 L250 315 Z " />
<glyph glyph-name="q" unicode="q" horiz-adv-x="583" d="M464 -157 L550 356 C562 422 572 459 588 493 L492 493 L435 418 C401 480 359 505 286 505 C207 505 142 472 91 407 C47 350 21 269 21 189 C21 68 83 -12 176 -12 C233 -12 276 13 314 67 L277 -157 L464 -157 Z M334 186 C327 158 323 147 315 135 C304 117 283 105 262 105 C229 105 212 130 212 178 C212 217 225 294 237 330 C253 373 275 395 305 395 C337 395 357 371 357 333 C357 329 356 317 354 308 L334 186 Z " />
<glyph glyph-name="r" unicode="r" horiz-adv-x="391" d="M93 493 L10 0 L197 0 L231 201 C247 296 281 331 359 331 C369 331 377 331 395 330 L417 506 C407 507 399 508 394 508 C322 508 277 470 237 375 L257 493 L93 493 Z " />
<glyph glyph-name="s" unicode="s" horiz-adv-x="523" d="M502 379 C486 419 468 440 427 464 C380 492 327 505 263 505 C125 505 36 437 36 332 C36 251 90 204 215 177 C293 160 296 159 304 153 C309 149 312 143 312 137 C312 119 286 106 248 106 C189 106 159 121 143 159 L-11 137 C3 87 20 63 57 38 C105 5 167 -11 245 -11 C318 -11 378 4 421 33 C465 63 492 114 492 165 C492 223 460 268 398 296 C377 306 332 317 263 331 C228 337 213 347 213 364 C213 383 233 394 267 394 C314 394 343 379 357 347 L502 379 Z " />
<glyph glyph-name="t" unicode="t" horiz-adv-x="361" d="M380 493 L290 493 L315 642 L156 628 L123 493 L42 493 L21 370 L89 370 L59 192 C52 150 50 132 50 118 C50 84 59 58 78 35 C105 2 141 -11 205 -11 C240 -11 263 -8 306 0 L328 128 C306 124 296 123 282 123 C253 123 236 136 236 159 C236 166 237 175 240 192 L270 370 L359 370 L380 493 Z " />
<glyph glyph-name="u" unicode="u" horiz-adv-x="585" d="M574 493 L387 493 L346 249 C332 167 304 126 262 126 C239 126 228 138 228 162 C228 172 229 178 234 211 L282 493 L92 493 L41 185 C35 150 31 118 31 104 C31 36 87 -13 165 -13 C237 -13 285 17 330 92 L314 0 L492 0 L574 493 Z " />
<glyph glyph-name="v" unicode="v" horiz-adv-x="498" d="M543 493 L405 493 L274 224 L218 493 L25 493 L151 0 L299 0 L543 493 Z " />
<glyph glyph-name="w" unicode="w" horiz-adv-x="725" d="M760 493 L629 493 L520 244 L496 493 L353 493 L248 244 L218 493 L35 493 L117 0 L251 0 L367 283 L394 0 L533 0 L760 493 Z " />
<glyph glyph-name="x" unicode="x" horiz-adv-x="529" d="M550 493 L394 493 L306 372 L246 493 L46 493 L152 274 L-55 0 L106 0 L220 163 L297 0 L501 0 L372 265 L550 493 Z " />
<glyph glyph-name="y" unicode="y" horiz-adv-x="485" d="M530 493 L396 493 L299 284 C295 276 291 267 291 267 L282 245 C281 243 279 238 276 231 C272 253 270 267 268 275 C267 281 265 288 263 294 L221 493 L25 493 L144 30 C147 18 149 5 149 -2 C149 -29 125 -42 74 -42 C54 -42 30 -40 -18 -36 L-19 -168 C15 -174 32 -176 59 -176 C178 -176 234 -136 295 -7 L530 493 Z " />
<glyph glyph-name="z" unicode="z" horiz-adv-x="475" d="M437 123 L225 123 L483 397 L499 493 L74 493 L54 373 L238 373 L-6 111 L-25 0 L416 0 L437 123 Z " />
<glyph glyph-name="braceleft" unicode="&#x7b;" horiz-adv-x="293" d="M241 532 C252 592 261 598 331 598 C335 598 343 598 352 597 L363 665 C291 667 289 667 273 667 C163 667 115 630 98 530 L70 362 C58 313 44 298 3 290 L-7 229 C23 224 37 208 37 180 C37 171 36 158 34 148 L6 -20 C3 -38 2 -49 2 -60 C2 -130 39 -157 134 -157 C142 -157 173 -156 226 -155 L238 -85 L217 -85 C162 -85 145 -78 145 -54 C145 -47 145 -42 149 -20 L175 135 C178 150 179 164 179 176 C179 214 169 232 135 255 C186 283 202 308 215 375 L241 532 Z " />
<glyph glyph-name="bar" unicode="&#x7c;" horiz-adv-x="500" d="M196 667 L196 -167 L334 -167 L334 667 L196 667 Z " />
<glyph glyph-name="braceright" unicode="&#x7d;" horiz-adv-x="293" d="M54 -22 C44 -81 35 -88 -36 -88 C-39 -88 -48 -88 -57 -87 L-68 -155 C4 -157 6 -157 22 -157 C133 -157 180 -120 197 -20 L225 148 C237 197 251 212 292 220 L302 281 C273 286 259 302 259 330 C259 340 260 356 261 362 L289 530 C292 548 293 558 293 571 C293 640 255 667 161 667 C153 667 122 666 69 665 L57 595 L78 595 C134 595 150 588 150 564 C150 556 150 552 146 530 L120 375 C118 363 117 347 117 333 C117 296 127 278 160 255 C109 227 93 203 80 135 L54 -22 Z " />
<glyph glyph-name="asciitilde" unicode="&#x7e;" horiz-adv-x="587" d="M138 232 C163 280 177 292 208 292 C225 292 233 290 292 269 C351 248 371 242 392 242 C420 242 449 251 474 269 C504 290 521 314 551 378 L475 425 C452 385 436 373 405 373 C385 373 377 375 321 396 C269 416 240 423 216 423 C145 423 106 387 64 282 L138 232 Z " />
<glyph glyph-name="uni00A0" unicode="&#xa0;" horiz-adv-x="250" d="" />
<glyph glyph-name="exclamdown" unicode="&#xa1;" horiz-adv-x="316" d="M-13 -157 L214 -157 L224 287 L111 287 L-13 -157 Z M78 333 L268 333 L297 510 L108 510 L78 333 Z " />
<glyph glyph-name="cent" unicode="&#xa2;" horiz-adv-x="587" d="M379 291 C366 247 341 223 308 223 C273 223 256 246 256 292 C256 331 264 377 276 408 C292 447 310 465 336 465 C372 465 394 437 394 390 L538 404 C535 496 482 559 392 581 L409 685 L323 685 L306 583 C257 576 228 566 197 544 C129 495 86 405 86 313 C86 251 105 196 140 161 C161 139 182 127 227 108 L205 -25 L291 -25 L311 98 C409 104 487 167 515 264 L379 291 Z " />
<glyph glyph-name="sterling" unicode="&#xa3;" horiz-adv-x="587" d="M420 228 C406 160 374 135 300 136 L236 136 C298 182 320 220 327 298 L416 298 L435 411 L327 411 L327 425 L327 459 C327 513 349 541 390 541 C424 541 436 530 448 488 L606 540 C592 592 575 619 540 642 C502 666 450 680 396 680 C299 680 218 641 176 573 C148 529 143 504 142 411 L82 411 L63 298 L148 298 C149 285 149 271 149 267 C149 178 113 136 37 136 L0 136 L-24 0 L327 0 C442 -7 543 75 572 196 L420 228 Z " />
<glyph glyph-name="currency" unicode="&#xa4;" horiz-adv-x="667" d="M42 137 L112 67 L215 169 C266 137 305 125 354 125 C405 125 451 139 496 170 L599 67 L669 138 L566 241 C596 288 609 328 609 377 C609 427 597 465 564 517 L666 619 L596 689 L493 587 C447 617 406 630 356 630 C304 630 263 617 216 586 L112 690 L41 619 L145 515 C114 469 101 428 101 378 C101 329 115 283 145 240 L42 137 Z M357 514 C430 514 491 452 491 378 C491 302 430 241 355 241 C280 241 219 302 219 377 C219 454 280 514 357 514 L357 514 Z " />
<glyph glyph-name="yen" unicode="&#xa5;" horiz-adv-x="587" d="M69 447 L54 353 L188 353 L206 294 L44 294 L28 200 L191 200 L157 0 L342 0 L375 200 L549 200 L564 294 L394 294 L433 353 L574 353 L590 447 L495 447 L641 667 L482 667 L370 490 C363 478 359 473 348 454 L338 438 C334 454 329 469 327 474 C324 483 322 489 321 490 L266 667 L76 667 L154 447 L69 447 Z " />
<glyph glyph-name="brokenbar" unicode="&#xa6;" horiz-adv-x="500" d="M196 667 L196 318 L334 318 L334 667 L196 667 Z M196 153 L196 -167 L334 -167 L334 153 L196 153 Z " />
<glyph glyph-name="section" unicode="&#xa7;" horiz-adv-x="587" d="M5 -20 C32 -68 52 -90 88 -116 C137 -149 199 -168 261 -168 C403 -168 502 -79 502 47 C502 97 491 119 451 154 C504 195 530 244 530 298 C530 340 516 374 490 397 C467 418 467 418 374 460 C299 497 299 497 287 508 C281 513 277 523 277 532 C277 558 309 579 351 579 C388 579 411 565 431 530 L556 557 C513 640 444 679 337 679 C207 679 118 608 118 504 C118 467 126 443 150 408 C90 349 67 305 67 246 C67 191 90 156 149 124 C181 107 217 90 282 60 C324 42 340 25 340 0 C340 -34 307 -57 257 -57 C211 -57 186 -43 152 4 L5 -20 Z M260 350 C275 342 275 342 288 335 C340 312 340 312 347 308 C372 293 384 279 384 264 C384 247 373 231 344 207 C319 219 293 231 272 241 C237 257 223 271 223 288 C223 307 235 326 260 350 L260 350 Z " />
<glyph glyph-name="dieresis" unicode="&#xa8;" horiz-adv-x="500" d="M403 709 C368 709 339 680 339 645 C339 609 368 580 404 580 C439 580 468 609 468 644 C468 680 440 709 403 709 L403 709 Z M229 709 C194 709 165 680 165 645 C165 609 194 580 230 580 C265 580 294 609 294 643 C294 680 266 709 229 709 L229 709 Z " />
<glyph glyph-name="copyright" unicode="&#xa9;" horiz-adv-x="773" d="M454 293 C438 241 424 226 394 226 C364 226 349 245 349 285 C349 328 364 394 380 422 C389 437 403 446 421 446 C453 446 465 427 467 374 L594 383 C591 419 590 429 582 447 C557 507 499 542 425 542 C345 542 282 506 243 439 C221 399 209 355 209 309 C209 198 279 125 386 125 C479 125 543 176 576 278 L454 293 Z M401 677 C212 677 58 523 58 334 C58 144 212 -10 402 -10 C589 -10 745 144 745 329 C745 524 594 677 401 677 L401 677 Z M401 600 C549 600 665 481 665 330 C665 187 545 67 402 67 C256 67 138 187 138 334 C138 481 256 600 401 600 L401 600 Z " />
<glyph glyph-name="ordfeminine" unicode="&#xaa;" horiz-adv-x="388" d="M386 378 C383 391 382 398 382 406 C382 423 382 423 394 488 C409 583 410 587 410 596 C410 652 356 684 264 684 C202 684 157 671 127 646 C111 632 100 617 96 604 L204 583 C216 605 228 613 249 613 C270 613 282 604 282 590 C282 586 281 581 279 572 C180 564 165 562 135 552 C84 534 57 502 57 459 C57 408 100 371 160 371 C198 371 228 384 254 413 C254 391 254 387 255 378 L386 378 Z M268 519 C262 468 245 444 215 444 C200 444 190 453 190 469 C190 499 210 512 268 519 L268 519 Z " />
<glyph glyph-name="guillemotleft" unicode="&#xab;" horiz-adv-x="371" d="M102 109 L158 109 L123 235 L203 381 L138 381 L29 243 L102 109 Z M255 109 L311 109 L277 243 L357 381 L289 381 L180 243 L255 109 Z " />
<glyph glyph-name="logicalnot" unicode="&#xac;" horiz-adv-x="587" d="M387 0 L524 0 L524 270 L91 270 L91 147 L387 147 L387 0 Z " />
<glyph glyph-name="uni00AD" unicode="&#xad;" horiz-adv-x="275" d="M250 173 L275 320 L25 320 L0 173 L250 173 Z " />
<glyph glyph-name="registered" unicode="&#xae;" horiz-adv-x="773" d="M509 308 C560 327 588 367 588 420 C588 493 540 533 451 533 L291 533 L227 147 L334 147 L359 291 L395 291 L428 147 L550 147 L509 308 Z M373 377 L385 447 L419 447 C451 447 467 436 467 415 C467 389 449 377 411 377 L373 377 Z M401 677 C212 677 58 523 58 334 C58 144 212 -10 402 -10 C589 -10 745 144 745 329 C745 524 594 677 401 677 L401 677 Z M401 600 C549 600 665 481 665 330 C665 187 545 67 402 67 C256 67 138 187 138 334 C138 481 256 600 401 600 L401 600 Z " />
<glyph glyph-name="macron" unicode="&#xaf;" horiz-adv-x="500" d="M468 590 L481 667 L158 667 L145 590 L468 590 Z " />
<glyph glyph-name="degree" unicode="&#xb0;" horiz-adv-x="587" d="M341 678 C259 678 193 612 193 531 C193 451 260 384 340 384 C424 384 490 449 490 531 C490 612 424 678 341 678 L341 678 Z M341 599 C378 599 409 568 409 531 C409 493 379 463 341 463 C304 463 274 494 274 531 C274 569 304 599 341 599 L341 599 Z " />
<glyph glyph-name="plusminus" unicode="&#xb1;" horiz-adv-x="587" d="M551 399 L371 399 L371 586 L246 586 L246 399 L65 399 L65 275 L246 275 L246 87 L371 87 L371 275 L551 275 L551 399 Z M551 65 L65 65 L65 -59 L551 -59 L551 65 Z " />
<glyph glyph-name="twosuperior" unicode="&#xb2;" horiz-adv-x="387" d="M376 366 L210 366 C356 429 402 473 402 549 C402 623 337 676 246 676 C159 676 104 636 68 548 L170 511 C183 557 204 579 234 579 C258 579 274 565 274 544 C274 518 250 493 184 447 C147 421 85 385 45 365 L29 267 L360 267 L376 366 Z " />
<glyph glyph-name="threesuperior" unicode="&#xb3;" horiz-adv-x="387" d="M32 377 C47 334 59 315 82 296 C114 270 161 256 215 256 C316 256 387 309 387 385 C387 425 366 454 326 471 C373 483 400 517 400 561 C400 630 331 678 231 678 C150 678 94 642 65 572 L168 541 C179 572 199 587 229 587 C256 587 275 573 275 553 C275 528 254 515 211 515 L167 515 L152 428 L197 428 C240 428 259 416 259 391 C259 367 237 348 209 348 C173 348 149 366 139 400 L32 377 Z " />
<glyph glyph-name="acute" unicode="&#xb4;" horiz-adv-x="500" d="M199 630 L225 567 L458 651 L424 743 L199 630 Z " />
<glyph glyph-name="mu" unicode="&#xb5;" horiz-adv-x="587" d="M-21 -173 L164 -173 L203 57 C212 4 229 -15 268 -15 C312 -15 332 7 353 79 L347 0 L495 0 L578 497 L387 497 L344 242 C329 162 329 162 324 147 C315 122 292 105 268 105 C243 105 229 122 229 151 C229 168 233 200 240 242 L282 497 L91 497 L-21 -173 Z " />
<glyph glyph-name="paragraph" unicode="&#xb6;" horiz-adv-x="587" d="M652 667 L328 667 C217 667 184 663 148 647 C82 618 45 553 45 467 C45 395 71 346 119 329 C147 319 150 319 266 319 L307 319 L228 -157 L305 -157 L430 590 L499 590 L374 -157 L448 -157 L573 590 L639 590 L652 667 Z M320 396 L298 396 C268 397 262 398 248 403 C227 411 216 432 216 466 C216 505 231 548 251 566 C273 586 288 590 353 590 L320 396 Z " />
<glyph glyph-name="periodcentered" unicode="&#xb7;" horiz-adv-x="213" d="M213 336 L30 336 L0 159 L183 159 L213 336 Z " />
<glyph glyph-name="cedilla" unicode="&#xb8;" horiz-adv-x="500" d="M208 0 L173 -85 C179 -84 186 -84 188 -84 C234 -84 257 -97 257 -122 C257 -144 242 -156 214 -156 C188 -156 164 -149 134 -133 L115 -173 C157 -196 187 -205 226 -205 C290 -205 332 -172 332 -121 C332 -76 302 -49 252 -49 L237 -49 L258 0 L208 0 Z " />
<glyph glyph-name="onesuperior" unicode="&#xb9;" horiz-adv-x="387" d="M326 675 L231 675 C197 629 159 613 87 614 L72 526 C82 525 90 525 95 525 C133 525 156 529 180 540 L149 359 L57 359 L42 267 L355 267 L371 359 L273 359 L326 675 Z " />
<glyph glyph-name="ordmasculine" unicode="&#xba;" horiz-adv-x="381" d="M251 684 C144 684 68 612 68 510 C68 426 131 370 225 370 C331 370 409 443 409 542 C409 628 346 684 251 684 L251 684 Z M247 611 C269 611 280 595 280 565 C280 530 270 483 259 463 C252 450 243 444 230 444 C209 444 197 460 197 489 C197 523 209 576 220 594 C227 605 236 611 247 611 L247 611 Z " />
<glyph glyph-name="guillemotright" unicode="&#xbb;" horiz-adv-x="371" d="M268 381 L212 381 L247 255 L166 109 L232 109 L341 247 L268 381 Z M115 381 L59 381 L92 247 L13 109 L80 109 L189 247 L115 381 Z " />
<glyph glyph-name="onequarter" unicode="&#xbc;" horiz-adv-x="880" d="M306 675 L211 675 C177 629 139 613 67 614 L52 526 C62 525 70 525 75 525 C113 525 136 529 160 540 L129 359 L37 359 L22 267 L335 267 L351 359 L253 359 L306 675 Z M143 0 L237 0 L765 667 L673 667 L143 0 Z M880 176 L818 176 L858 413 L733 413 L524 182 L508 89 L684 89 L669 0 L789 0 L804 89 L866 89 L880 176 Z M707 166 L607 166 L731 308 L707 166 Z " />
<glyph glyph-name="onehalf" unicode="&#xbd;" horiz-adv-x="880" d="M306 675 L211 675 C177 629 139 613 67 614 L52 526 C62 525 70 525 75 525 C113 525 136 529 160 540 L129 359 L37 359 L22 267 L335 267 L351 359 L253 359 L306 675 Z M143 0 L237 0 L765 667 L673 667 L143 0 Z M844 99 L678 99 C735 124 767 140 798 160 C845 192 870 233 870 281 C870 355 805 408 713 408 C627 408 571 368 536 281 L638 244 C651 289 672 311 702 311 C725 311 742 297 742 276 C742 251 718 225 652 180 C614 154 552 117 513 98 L497 0 L827 0 L844 99 Z " />
<glyph glyph-name="threequarters" unicode="&#xbe;" horiz-adv-x="880" d="M13 377 C28 334 40 315 63 296 C95 270 142 256 196 256 C297 256 368 309 368 385 C368 425 347 454 307 471 C354 483 381 517 381 561 C381 630 312 678 212 678 C131 678 75 642 46 572 L149 541 C160 572 180 587 210 587 C237 587 256 573 256 553 C256 528 235 515 192 515 L148 515 L133 428 L178 428 C221 428 240 416 240 391 C240 367 218 348 190 348 C154 348 130 366 120 400 L13 377 Z M164 0 L258 0 L786 667 L693 667 L164 0 Z M881 176 L819 176 L858 413 L733 413 L524 182 L509 89 L685 89 L670 0 L789 0 L804 89 L866 89 L881 176 Z M708 166 L607 166 L731 308 L708 166 Z " />
<glyph glyph-name="questiondown" unicode="&#xbf;" horiz-adv-x="513" d="M186 340 L370 340 L398 510 L215 510 L186 340 Z M200 298 C194 263 181 249 116 210 C23 155 -14 101 -14 21 C-14 -41 12 -95 58 -126 C100 -155 157 -172 215 -172 C288 -172 351 -147 397 -100 C429 -67 446 -36 466 29 L313 62 C303 -4 277 -37 234 -37 C202 -37 178 -13 178 20 C178 58 195 81 262 136 C323 185 355 242 353 298 L200 298 Z " />
<glyph glyph-name="Agrave" unicode="&#xc0;" horiz-adv-x="630" d="M373 136 L391 0 L588 0 L484 667 L275 667 L-33 0 L132 0 L194 136 L373 136 Z M361 274 L246 274 L334 467 L361 274 Z M478 794 L272 897 L235 801 L452 727 L478 794 Z " />
<glyph glyph-name="Aacute" unicode="&#xc1;" horiz-adv-x="630" d="M373 136 L391 0 L588 0 L484 667 L275 667 L-33 0 L132 0 L194 136 L373 136 Z M361 274 L246 274 L334 467 L361 274 Z M294 794 L319 727 L553 801 L519 897 L294 794 Z " />
<glyph glyph-name="Acircumflex" unicode="&#xc2;" horiz-adv-x="630" d="M373 136 L391 0 L588 0 L484 667 L275 667 L-33 0 L132 0 L194 136 L373 136 Z M361 274 L246 274 L334 467 L361 274 Z M582 743 L413 890 L194 743 L303 733 L397 791 L469 733 L582 743 Z " />
<glyph glyph-name="Atilde" unicode="&#xc3;" horiz-adv-x="630" d="M373 136 L391 0 L588 0 L484 667 L275 667 L-33 0 L132 0 L194 136 L373 136 Z M361 274 L246 274 L334 467 L361 274 Z M522 856 C489 827 473 818 451 818 C434 818 431 819 392 839 C366 852 344 858 326 858 C289 858 254 839 212 796 L260 739 C284 766 303 777 326 777 C337 777 350 774 361 768 C417 739 424 737 451 737 C492 737 529 756 571 799 L522 856 Z " />
<glyph glyph-name="Adieresis" unicode="&#xc4;" horiz-adv-x="630" d="M373 136 L391 0 L588 0 L484 667 L275 667 L-33 0 L132 0 L194 136 L373 136 Z M361 274 L246 274 L334 467 L361 274 Z M479 867 C444 867 415 838 415 803 C415 767 444 738 480 738 C515 738 544 767 544 802 C544 838 516 867 479 867 L479 867 Z M300 867 C265 867 236 838 236 803 C236 767 265 738 301 738 C336 738 365 767 365 801 C365 838 337 867 300 867 L300 867 Z " />
<glyph glyph-name="Aring" unicode="&#xc5;" horiz-adv-x="630" d="M373 136 L391 0 L588 0 L484 667 L275 667 L-33 0 L132 0 L194 136 L373 136 Z M361 274 L246 274 L334 467 L361 274 Z M394 917 C339 917 294 872 294 817 C294 762 339 717 392 717 C449 717 493 761 493 817 C493 873 449 917 394 917 L394 917 Z M394 850 C413 850 429 835 429 816 C429 798 413 783 394 783 C375 783 359 798 359 817 C359 835 375 850 394 850 L394 850 Z " />
<glyph glyph-name="AE" unicode="&#xc6;" horiz-adv-x="891" d="M852 153 L561 153 L580 269 L815 269 L840 415 L605 415 L622 520 L901 520 L925 667 L366 667 L-55 0 L116 0 L209 153 L373 153 L347 0 L826 0 L852 153 Z M396 289 L290 289 L434 520 L396 289 Z " />
<glyph glyph-name="Ccedilla" unicode="&#xc7;" horiz-adv-x="633" d="M306 -14 L320 -14 C377 -14 430 1 472 29 C541 75 583 135 614 235 L435 258 C410 176 382 146 330 146 C276 146 249 181 249 249 C249 299 266 398 283 445 C305 505 333 531 378 531 C410 531 434 515 446 487 C455 466 458 450 458 409 L646 423 C643 501 629 543 590 591 C541 651 472 682 384 682 C258 682 159 623 98 509 C61 442 42 367 42 289 C42 131 124 18 256 -9 L223 -89 C230 -88 236 -88 239 -88 C287 -88 311 -102 311 -128 C311 -150 295 -163 266 -163 C239 -163 215 -156 183 -139 L163 -180 C206 -205 238 -214 278 -214 C345 -214 389 -179 389 -127 C389 -80 357 -51 306 -51 L291 -51 L306 -14 Z " />
<glyph glyph-name="Egrave" unicode="&#xc8;" horiz-adv-x="573" d="M534 153 L236 153 L256 271 L496 271 L520 416 L280 416 L297 521 L583 521 L607 667 L129 667 L17 0 L508 0 L534 153 Z M477 794 L271 897 L235 801 L451 727 L477 794 Z " />
<glyph glyph-name="Eacute" unicode="&#xc9;" horiz-adv-x="573" d="M534 153 L236 153 L256 271 L496 271 L520 416 L280 416 L297 521 L583 521 L607 667 L129 667 L17 0 L508 0 L534 153 Z M278 794 L304 727 L537 801 L503 897 L278 794 Z " />
<glyph glyph-name="Ecircumflex" unicode="&#xca;" horiz-adv-x="573" d="M534 153 L236 153 L256 271 L496 271 L520 416 L280 416 L297 521 L583 521 L607 667 L129 667 L17 0 L508 0 L534 153 Z M575 743 L406 890 L187 743 L296 733 L390 791 L462 733 L575 743 Z " />
<glyph glyph-name="Edieresis" unicode="&#xcb;" horiz-adv-x="573" d="M534 153 L236 153 L256 271 L496 271 L520 416 L280 416 L297 521 L583 521 L607 667 L129 667 L17 0 L508 0 L534 153 Z M470 867 C435 867 406 838 406 803 C406 767 435 738 471 738 C506 738 535 767 535 802 C535 838 507 867 470 867 L470 867 Z M291 867 C256 867 227 838 227 803 C227 767 256 738 292 738 C327 738 356 767 356 801 C356 838 328 867 291 867 L291 867 Z " />
<glyph glyph-name="Igrave" unicode="&#xcc;" horiz-adv-x="305" d="M318 667 L129 667 L17 0 L206 0 L318 667 Z M324 794 L138 897 L99 801 L299 727 L324 794 Z " />
<glyph glyph-name="Iacute" unicode="&#xcd;" horiz-adv-x="305" d="M318 667 L129 667 L17 0 L206 0 L318 667 Z M137 794 L163 727 L376 801 L343 897 L137 794 Z " />
<glyph glyph-name="Icircumflex" unicode="&#xce;" horiz-adv-x="305" d="M318 667 L129 667 L17 0 L206 0 L318 667 Z M406 743 L261 890 L65 743 L167 733 L245 791 L302 733 L406 743 Z " />
<glyph glyph-name="Idieresis" unicode="&#xcf;" horiz-adv-x="305" d="M318 667 L129 667 L17 0 L206 0 L318 667 Z M318 867 C283 867 254 838 254 803 C254 767 283 738 319 738 C354 738 383 767 383 802 C383 838 355 867 318 867 L318 867 Z M159 867 C124 867 95 838 95 803 C95 767 124 738 160 738 C195 738 224 767 224 801 C224 838 196 867 159 867 L159 867 Z " />
<glyph glyph-name="Eth" unicode="&#xd0;" horiz-adv-x="686" d="M13 305 L68 305 L17 0 L260 0 C407 0 456 9 517 50 C615 115 672 231 672 368 C672 465 644 541 588 594 C531 649 471 667 350 667 L128 667 L83 397 L28 397 L13 305 Z M267 305 L375 305 L390 397 L282 397 L303 523 L361 523 C434 523 472 472 472 375 C472 297 449 224 412 187 C385 160 350 149 286 149 L241 149 L267 305 Z " />
<glyph glyph-name="Ntilde" unicode="&#xd1;" horiz-adv-x="681" d="M694 667 L535 667 L492 414 C485 370 479 322 479 307 C479 299 479 289 481 275 C468 321 432 405 381 513 L308 667 L129 667 L17 0 L180 0 L234 327 C239 355 242 382 242 397 L241 422 C249 383 272 325 307 256 L434 0 L582 0 L694 667 Z M563 856 C531 827 514 818 492 818 C476 818 472 819 434 839 C408 852 386 858 367 858 C330 858 296 839 253 796 L301 739 C325 766 344 777 368 777 C379 777 391 774 403 768 C458 739 465 737 493 737 C534 737 571 756 612 799 L563 856 Z " />
<glyph glyph-name="Ograve" unicode="&#xd2;" horiz-adv-x="687" d="M390 684 C297 684 206 645 146 580 C80 507 39 395 39 283 C39 104 157 -17 331 -17 C441 -17 538 34 599 124 C648 195 677 291 677 378 C677 564 564 684 390 684 L390 684 Z M383 528 C437 528 469 490 469 424 C469 391 455 310 440 250 C420 175 385 138 333 138 C276 138 248 172 248 241 C248 288 262 372 278 426 C299 493 335 528 383 528 L383 528 Z M526 794 L320 897 L284 801 L501 727 L526 794 Z " />
<glyph glyph-name="Oacute" unicode="&#xd3;" horiz-adv-x="687" d="M390 684 C297 684 206 645 146 580 C80 507 39 395 39 283 C39 104 157 -17 331 -17 C441 -17 538 34 599 124 C648 195 677 291 677 378 C677 564 564 684 390 684 L390 684 Z M383 528 C437 528 469 490 469 424 C469 391 455 310 440 250 C420 175 385 138 333 138 C276 138 248 172 248 241 C248 288 262 372 278 426 C299 493 335 528 383 528 L383 528 Z M343 794 L369 727 L602 801 L568 897 L343 794 Z " />
<glyph glyph-name="Ocircumflex" unicode="&#xd4;" horiz-adv-x="687" d="M390 684 C297 684 206 645 146 580 C80 507 39 395 39 283 C39 104 157 -17 331 -17 C441 -17 538 34 599 124 C648 195 677 291 677 378 C677 564 564 684 390 684 L390 684 Z M383 528 C437 528 469 490 469 424 C469 391 455 310 440 250 C420 175 385 138 333 138 C276 138 248 172 248 241 C248 288 262 372 278 426 C299 493 335 528 383 528 L383 528 Z M621 743 L452 890 L233 743 L343 733 L436 791 L508 733 L621 743 Z " />
<glyph glyph-name="Otilde" unicode="&#xd5;" horiz-adv-x="687" d="M390 684 C297 684 206 645 146 580 C80 507 39 395 39 283 C39 104 157 -17 331 -17 C441 -17 538 34 599 124 C648 195 677 291 677 378 C677 564 564 684 390 684 L390 684 Z M383 528 C437 528 469 490 469 424 C469 391 455 310 440 250 C420 175 385 138 333 138 C276 138 248 172 248 241 C248 288 262 372 278 426 C299 493 335 528 383 528 L383 528 Z M573 856 C541 827 524 818 502 818 C486 818 482 819 443 839 C417 852 396 858 377 858 C340 858 305 839 263 796 L311 739 C335 766 354 777 377 777 C388 777 401 774 412 768 C468 739 475 737 503 737 C543 737 580 756 622 799 L573 856 Z " />
<glyph glyph-name="Odieresis" unicode="&#xd6;" horiz-adv-x="687" d="M390 684 C297 684 206 645 146 580 C80 507 39 395 39 283 C39 104 157 -17 331 -17 C441 -17 538 34 599 124 C648 195 677 291 677 378 C677 564 564 684 390 684 L390 684 Z M383 528 C437 528 469 490 469 424 C469 391 455 310 440 250 C420 175 385 138 333 138 C276 138 248 172 248 241 C248 288 262 372 278 426 C299 493 335 528 383 528 L383 528 Z M523 867 C488 867 459 838 459 803 C459 767 488 738 524 738 C559 738 588 767 588 802 C588 838 560 867 523 867 L523 867 Z M343 867 C308 867 279 838 279 803 C279 767 308 738 344 738 C379 738 408 767 408 801 C408 838 380 867 343 867 L343 867 Z " />
<glyph glyph-name="multiply" unicode="&#xd7;" horiz-adv-x="587" d="M446 566 L309 429 L172 566 L84 478 L221 341 L84 204 L172 116 L309 253 L446 116 L534 204 L397 341 L534 478 L446 566 Z " />
<glyph glyph-name="Oslash" unicode="&#xd8;" horiz-adv-x="687" d="M682 723 L577 723 L524 657 C469 678 438 684 392 684 C300 684 220 653 159 593 C86 521 40 402 40 287 C40 203 60 143 107 79 L17 -51 L123 -51 L176 23 C228 -5 273 -17 334 -17 C425 -17 507 18 567 83 C637 157 678 269 678 382 C678 478 653 545 595 605 L682 723 Z M467 459 C469 444 470 436 470 427 C470 390 455 300 440 248 C418 169 387 138 332 138 C309 138 295 143 277 158 L467 459 Z M249 248 C252 300 261 361 273 404 C295 490 331 529 385 529 C397 529 405 527 421 521 L249 248 Z " />
<glyph glyph-name="Ugrave" unicode="&#xd9;" horiz-adv-x="644" d="M663 667 L504 667 L434 250 C427 207 421 188 410 173 C395 153 366 141 335 141 C286 141 251 168 251 207 C251 218 253 237 256 257 L325 667 L122 667 L53 257 C49 234 47 208 47 185 C47 61 138 -10 298 -10 C393 -10 474 18 523 70 C560 110 577 152 594 257 L663 667 Z M502 794 L296 897 L260 801 L477 727 L502 794 Z " />
<glyph glyph-name="Uacute" unicode="&#xda;" horiz-adv-x="644" d="M663 667 L504 667 L434 250 C427 207 421 188 410 173 C395 153 366 141 335 141 C286 141 251 168 251 207 C251 218 253 237 256 257 L325 667 L122 667 L53 257 C49 234 47 208 47 185 C47 61 138 -10 298 -10 C393 -10 474 18 523 70 C560 110 577 152 594 257 L663 667 Z M327 794 L352 727 L586 801 L552 897 L327 794 Z " />
<glyph glyph-name="Ucircumflex" unicode="&#xdb;" horiz-adv-x="644" d="M663 667 L504 667 L434 250 C427 207 421 188 410 173 C395 153 366 141 335 141 C286 141 251 168 251 207 C251 218 253 237 256 257 L325 667 L122 667 L53 257 C49 234 47 208 47 185 C47 61 138 -10 298 -10 C393 -10 474 18 523 70 C560 110 577 152 594 257 L663 667 Z M607 743 L438 890 L219 743 L328 733 L422 791 L494 733 L607 743 Z " />
<glyph glyph-name="Udieresis" unicode="&#xdc;" horiz-adv-x="644" d="M663 667 L504 667 L434 250 C427 207 421 188 410 173 C395 153 366 141 335 141 C286 141 251 168 251 207 C251 218 253 237 256 257 L325 667 L122 667 L53 257 C49 234 47 208 47 185 C47 61 138 -10 298 -10 C393 -10 474 18 523 70 C560 110 577 152 594 257 L663 667 Z M503 867 C468 867 439 838 439 803 C439 767 468 738 504 738 C539 738 568 767 568 802 C568 838 540 867 503 867 L503 867 Z M324 867 C289 867 260 838 260 803 C260 767 289 738 325 738 C360 738 389 767 389 801 C389 838 361 867 324 867 L324 867 Z " />
<glyph glyph-name="Yacute" unicode="&#xdd;" horiz-adv-x="585" d="M671 667 L490 667 L371 489 C367 483 359 471 349 454 L338 437 C329 465 329 466 320 489 L253 667 L42 667 L199 298 L149 0 L348 0 L396 289 L671 667 Z M292 794 L317 727 L551 801 L517 897 L292 794 Z " />
<glyph glyph-name="Thorn" unicode="&#xde;" horiz-adv-x="606" d="M210 0 L236 151 L366 151 C437 151 493 171 533 209 C576 250 602 312 602 373 C602 445 568 507 509 541 C464 568 432 573 333 573 L306 573 L322 667 L129 667 L17 0 L210 0 Z M260 294 L282 429 L323 429 C380 429 411 407 411 365 C411 319 374 294 305 294 L260 294 Z " />
<glyph glyph-name="germandbls" unicode="&#xdf;" horiz-adv-x="626" d="M183 -61 L276 493 C282 533 289 551 302 566 C316 583 340 594 361 594 C391 594 415 574 415 548 C415 517 393 502 340 493 C294 429 276 387 276 346 C276 298 303 266 381 224 C416 205 430 188 430 163 C430 133 404 113 365 113 C340 113 324 119 295 138 L236 29 C276 0 318 -13 370 -13 C498 -13 600 83 600 202 C600 284 551 346 459 383 C410 402 408 403 408 409 C408 412 412 414 421 416 C519 433 583 494 583 571 C583 659 505 717 386 717 C289 717 213 685 160 621 C129 585 117 556 90 454 L50 454 L30 334 L70 334 L1 -81 L183 -61 Z " />
<glyph glyph-name="agrave" unicode="&#xe0;" horiz-adv-x="594" d="M515 0 C512 18 511 27 511 38 C511 68 511 68 531 181 C558 344 559 350 559 369 C559 454 473 506 332 506 C249 506 186 490 137 457 C105 436 87 414 65 369 L226 337 C246 375 270 391 308 391 C343 391 365 376 365 351 C365 344 363 337 359 323 C350 322 328 320 293 317 C217 310 198 307 157 297 C60 274 5 213 5 131 C5 48 70 -11 162 -11 C232 -11 280 16 324 81 C322 61 321 38 321 24 C321 16 321 12 323 0 L515 0 Z M341 234 C336 192 333 177 325 158 C312 129 280 107 251 107 C224 107 207 123 207 148 C207 176 221 198 247 212 C269 224 284 228 341 234 L341 234 Z M460 630 L258 743 L217 651 L432 567 L460 630 Z " />
<glyph glyph-name="aacute" unicode="&#xe1;" horiz-adv-x="594" d="M515 0 C512 18 511 27 511 38 C511 68 511 68 531 181 C558 344 559 350 559 369 C559 454 473 506 332 506 C249 506 186 490 137 457 C105 436 87 414 65 369 L226 337 C246 375 270 391 308 391 C343 391 365 376 365 351 C365 344 363 337 359 323 C350 322 328 320 293 317 C217 310 198 307 157 297 C60 274 5 213 5 131 C5 48 70 -11 162 -11 C232 -11 280 16 324 81 C322 61 321 38 321 24 C321 16 321 12 323 0 L515 0 Z M341 234 C336 192 333 177 325 158 C312 129 280 107 251 107 C224 107 207 123 207 148 C207 176 221 198 247 212 C269 224 284 228 341 234 L341 234 Z M263 630 L288 567 L522 651 L488 743 L263 630 Z " />
<glyph glyph-name="acircumflex" unicode="&#xe2;" horiz-adv-x="594" d="M515 0 C512 18 511 27 511 38 C511 68 511 68 531 181 C558 344 559 350 559 369 C559 454 473 506 332 506 C249 506 186 490 137 457 C105 436 87 414 65 369 L226 337 C246 375 270 391 308 391 C343 391 365 376 365 351 C365 344 363 337 359 323 C350 322 328 320 293 317 C217 310 198 307 157 297 C60 274 5 213 5 131 C5 48 70 -11 162 -11 C232 -11 280 16 324 81 C322 61 321 38 321 24 C321 16 321 12 323 0 L515 0 Z M341 234 C336 192 333 177 325 158 C312 129 280 107 251 107 C224 107 207 123 207 148 C207 176 221 198 247 212 C269 224 284 228 341 234 L341 234 Z M554 583 L386 737 L166 583 L276 573 L370 636 L441 573 L554 583 Z " />
<glyph glyph-name="atilde" unicode="&#xe3;" horiz-adv-x="594" d="M515 0 C512 18 511 27 511 38 C511 68 511 68 531 181 C558 344 559 350 559 369 C559 454 473 506 332 506 C249 506 186 490 137 457 C105 436 87 414 65 369 L226 337 C246 375 270 391 308 391 C343 391 365 376 365 351 C365 344 363 337 359 323 C350 322 328 320 293 317 C217 310 198 307 157 297 C60 274 5 213 5 131 C5 48 70 -11 162 -11 C232 -11 280 16 324 81 C322 61 321 38 321 24 C321 16 321 12 323 0 L515 0 Z M341 234 C336 192 333 177 325 158 C312 129 280 107 251 107 C224 107 207 123 207 148 C207 176 221 198 247 212 C269 224 284 228 341 234 L341 234 Z M498 700 C467 671 449 661 427 661 C411 661 408 662 369 682 C343 695 321 702 302 702 C265 702 231 683 188 640 L237 582 C260 610 279 621 303 621 C314 621 326 618 338 612 C393 582 400 580 428 580 C469 580 506 599 547 643 L498 700 Z " />
<glyph glyph-name="adieresis" unicode="&#xe4;" horiz-adv-x="594" d="M515 0 C512 18 511 27 511 38 C511 68 511 68 531 181 C558 344 559 350 559 369 C559 454 473 506 332 506 C249 506 186 490 137 457 C105 436 87 414 65 369 L226 337 C246 375 270 391 308 391 C343 391 365 376 365 351 C365 344 363 337 359 323 C350 322 328 320 293 317 C217 310 198 307 157 297 C60 274 5 213 5 131 C5 48 70 -11 162 -11 C232 -11 280 16 324 81 C322 61 321 38 321 24 C321 16 321 12 323 0 L515 0 Z M341 234 C336 192 333 177 325 158 C312 129 280 107 251 107 C224 107 207 123 207 148 C207 176 221 198 247 212 C269 224 284 228 341 234 L341 234 Z M450 709 C415 709 386 680 386 645 C386 609 415 580 451 580 C486 580 515 609 515 644 C515 680 487 709 450 709 L450 709 Z M276 709 C241 709 212 680 212 645 C212 609 241 580 277 580 C312 580 341 609 341 643 C341 680 313 709 276 709 L276 709 Z " />
<glyph glyph-name="aring" unicode="&#xe5;" horiz-adv-x="594" d="M515 0 C512 18 511 27 511 38 C511 68 511 68 531 181 C558 344 559 350 559 369 C559 454 473 506 332 506 C249 506 186 490 137 457 C105 436 87 414 65 369 L226 337 C246 375 270 391 308 391 C343 391 365 376 365 351 C365 344 363 337 359 323 C350 322 328 320 293 317 C217 310 198 307 157 297 C60 274 5 213 5 131 C5 48 70 -11 162 -11 C232 -11 280 16 324 81 C322 61 321 38 321 24 C321 16 321 12 323 0 L515 0 Z M341 234 C336 192 333 177 325 158 C312 129 280 107 251 107 C224 107 207 123 207 148 C207 176 221 198 247 212 C269 224 284 228 341 234 L341 234 Z M366 762 C312 762 267 717 267 663 C267 608 311 563 365 563 C421 563 465 607 465 663 C465 717 421 762 366 762 L366 762 Z M367 697 C386 697 402 682 402 663 C402 643 386 628 367 628 C348 628 332 644 332 662 C332 682 348 697 367 697 L367 697 Z " />
<glyph glyph-name="ae" unicode="&#xe6;" horiz-adv-x="795" d="M599 178 C589 138 559 114 520 114 C483 114 458 143 458 186 C458 191 459 203 461 213 L764 213 C768 238 770 251 770 267 C770 413 687 508 560 508 C512 508 473 498 428 475 C384 498 358 504 301 504 C177 504 105 463 65 369 L206 336 C225 374 246 390 279 390 C311 390 330 375 330 348 C330 340 329 334 325 322 C306 320 306 320 279 318 C213 313 202 311 164 302 C58 275 5 217 5 126 C5 38 61 -15 155 -15 C222 -15 264 6 330 70 C378 12 431 -13 508 -13 C571 -13 627 7 673 46 C707 75 723 99 746 150 L599 178 Z M475 308 C489 369 513 397 552 397 C587 397 609 373 609 335 C609 330 608 318 606 308 L475 308 Z M308 232 C303 191 299 173 287 149 C274 122 249 104 225 104 C200 104 186 119 186 145 C186 198 234 232 308 232 L308 232 Z " />
<glyph glyph-name="ccedilla" unicode="&#xe7;" horiz-adv-x="523" d="M260 -14 C374 -9 451 46 495 155 L346 191 C330 145 305 122 269 122 C234 122 214 148 214 193 C214 221 221 264 231 300 C244 350 267 375 299 375 C334 375 354 349 354 303 L354 294 L521 314 C520 364 510 394 483 429 C441 481 377 510 302 510 C212 510 130 469 82 398 C45 345 24 279 24 217 C24 96 92 13 211 -11 L180 -85 L195 -85 C240 -85 264 -98 264 -123 C264 -144 249 -156 221 -156 C196 -156 172 -149 141 -133 L122 -173 C164 -196 195 -205 233 -205 C297 -205 339 -172 339 -121 C339 -76 309 -49 259 -49 L245 -49 L260 -14 Z " />
<glyph glyph-name="egrave" unicode="&#xe8;" horiz-adv-x="584" d="M552 210 C557 236 558 249 558 266 C558 412 463 505 314 505 C148 505 23 382 23 219 C23 78 121 -15 270 -15 C339 -15 397 4 451 45 C491 74 509 96 534 147 L368 174 C349 130 324 112 284 112 C239 112 210 139 210 180 C210 186 211 199 213 210 L552 210 Z M227 305 C237 360 270 394 315 394 C351 394 377 367 377 329 C377 324 376 314 374 305 L227 305 Z M435 630 L234 743 L193 651 L408 567 L435 630 Z " />
<glyph glyph-name="eacute" unicode="&#xe9;" horiz-adv-x="584" d="M552 210 C557 236 558 249 558 266 C558 412 463 505 314 505 C148 505 23 382 23 219 C23 78 121 -15 270 -15 C339 -15 397 4 451 45 C491 74 509 96 534 147 L368 174 C349 130 324 112 284 112 C239 112 210 139 210 180 C210 186 211 199 213 210 L552 210 Z M227 305 C237 360 270 394 315 394 C351 394 377 367 377 329 C377 324 376 314 374 305 L227 305 Z M250 630 L276 567 L509 651 L476 743 L250 630 Z " />
<glyph glyph-name="ecircumflex" unicode="&#xea;" horiz-adv-x="584" d="M552 210 C557 236 558 249 558 266 C558 412 463 505 314 505 C148 505 23 382 23 219 C23 78 121 -15 270 -15 C339 -15 397 4 451 45 C491 74 509 96 534 147 L368 174 C349 130 324 112 284 112 C239 112 210 139 210 180 C210 186 211 199 213 210 L552 210 Z M227 305 C237 360 270 394 315 394 C351 394 377 367 377 329 C377 324 376 314 374 305 L227 305 Z M538 583 L370 737 L150 583 L260 573 L354 636 L425 573 L538 583 Z " />
<glyph glyph-name="edieresis" unicode="&#xeb;" horiz-adv-x="584" d="M552 210 C557 236 558 249 558 266 C558 412 463 505 314 505 C148 505 23 382 23 219 C23 78 121 -15 270 -15 C339 -15 397 4 451 45 C491 74 509 96 534 147 L368 174 C349 130 324 112 284 112 C239 112 210 139 210 180 C210 186 211 199 213 210 L552 210 Z M227 305 C237 360 270 394 315 394 C351 394 377 367 377 329 C377 324 376 314 374 305 L227 305 Z M436 709 C401 709 372 680 372 645 C372 609 401 580 437 580 C472 580 501 609 501 644 C501 680 473 709 436 709 L436 709 Z M262 709 C227 709 198 680 198 645 C198 609 227 580 263 580 C298 580 327 609 327 643 C327 680 299 709 262 709 L262 709 Z " />
<glyph glyph-name="igrave" unicode="&#xec;" horiz-adv-x="294" d="M284 493 L93 493 L10 0 L201 0 L284 493 Z M294 630 L118 743 L75 651 L267 567 L294 630 Z " />
<glyph glyph-name="iacute" unicode="&#xed;" horiz-adv-x="294" d="M284 493 L93 493 L10 0 L201 0 L284 493 Z M109 630 L134 567 L344 651 L309 743 L109 630 Z " />
<glyph glyph-name="icircumflex" unicode="&#xee;" horiz-adv-x="294" d="M284 493 L93 493 L10 0 L201 0 L284 493 Z M370 583 L229 737 L36 583 L132 573 L213 636 L271 573 L370 583 Z " />
<glyph glyph-name="idieresis" unicode="&#xef;" horiz-adv-x="294" d="M284 493 L93 493 L10 0 L201 0 L284 493 Z M285 709 C250 709 221 680 221 645 C221 609 250 580 286 580 C321 580 350 609 350 644 C350 680 322 709 285 709 L285 709 Z M125 709 C90 709 61 680 61 645 C61 609 90 580 126 580 C161 580 190 609 190 643 C190 680 162 709 125 709 L125 709 Z " />
<glyph glyph-name="eth" unicode="&#xf0;" horiz-adv-x="572" d="M218 578 L245 522 L339 565 C361 537 373 506 381 457 C344 482 320 490 275 490 C131 490 21 371 21 215 C21 75 118 -15 271 -15 C350 -15 421 11 470 58 C527 112 558 203 558 315 C558 451 523 546 448 613 L516 644 L488 702 L386 656 C334 683 288 700 242 711 L201 651 C251 634 275 623 289 611 L218 578 Z M301 369 C336 369 360 341 360 301 C360 269 351 208 341 176 C325 127 305 106 273 106 C235 106 214 132 214 181 C214 214 224 279 234 306 C249 349 271 369 301 369 L301 369 Z " />
<glyph glyph-name="ntilde" unicode="&#xf1;" horiz-adv-x="585" d="M93 493 L10 0 L193 0 L243 296 C252 349 276 375 314 375 C344 375 359 361 359 334 C359 327 358 317 354 296 L305 0 L492 0 L548 337 C551 354 553 373 553 387 C553 460 497 508 413 508 C371 508 331 496 300 475 C277 459 265 444 251 413 L265 493 L93 493 Z M486 700 C454 671 437 661 415 661 C399 661 395 662 356 682 C331 695 309 702 290 702 C253 702 219 683 176 640 L224 582 C248 610 267 621 290 621 C301 621 314 618 325 612 C381 582 388 580 416 580 C456 580 493 599 535 643 L486 700 Z " />
<glyph glyph-name="ograve" unicode="&#xf2;" horiz-adv-x="582" d="M311 505 C144 505 24 384 24 214 C24 144 44 93 90 51 C135 7 196 -15 267 -15 C434 -15 558 107 558 271 C558 413 461 505 311 505 L311 505 Z M306 387 C342 387 363 359 363 309 C363 267 354 208 341 169 C326 123 307 105 275 105 C238 105 217 133 217 182 C217 219 229 289 241 325 C255 367 276 387 306 387 L306 387 Z M435 630 L233 743 L193 651 L408 567 L435 630 Z " />
<glyph glyph-name="oacute" unicode="&#xf3;" horiz-adv-x="582" d="M311 505 C144 505 24 384 24 214 C24 144 44 93 90 51 C135 7 196 -15 267 -15 C434 -15 558 107 558 271 C558 413 461 505 311 505 L311 505 Z M306 387 C342 387 363 359 363 309 C363 267 354 208 341 169 C326 123 307 105 275 105 C238 105 217 133 217 182 C217 219 229 289 241 325 C255 367 276 387 306 387 L306 387 Z M250 630 L276 567 L509 651 L475 743 L250 630 Z " />
<glyph glyph-name="ocircumflex" unicode="&#xf4;" horiz-adv-x="582" d="M311 505 C144 505 24 384 24 214 C24 144 44 93 90 51 C135 7 196 -15 267 -15 C434 -15 558 107 558 271 C558 413 461 505 311 505 L311 505 Z M306 387 C342 387 363 359 363 309 C363 267 354 208 341 169 C326 123 307 105 275 105 C238 105 217 133 217 182 C217 219 229 289 241 325 C255 367 276 387 306 387 L306 387 Z M539 583 L371 737 L151 583 L260 573 L355 636 L426 573 L539 583 Z " />
<glyph glyph-name="otilde" unicode="&#xf5;" horiz-adv-x="582" d="M311 505 C144 505 24 384 24 214 C24 144 44 93 90 51 C135 7 196 -15 267 -15 C434 -15 558 107 558 271 C558 413 461 505 311 505 L311 505 Z M306 387 C342 387 363 359 363 309 C363 267 354 208 341 169 C326 123 307 105 275 105 C238 105 217 133 217 182 C217 219 229 289 241 325 C255 367 276 387 306 387 L306 387 Z M486 700 C454 671 437 661 415 661 C399 661 395 662 356 682 C331 695 309 702 290 702 C253 702 219 683 176 640 L224 582 C248 610 267 621 290 621 C301 621 314 618 326 612 C381 582 388 580 416 580 C457 580 493 599 535 643 L486 700 Z " />
<glyph glyph-name="odieresis" unicode="&#xf6;" horiz-adv-x="582" d="M311 505 C144 505 24 384 24 214 C24 144 44 93 90 51 C135 7 196 -15 267 -15 C434 -15 558 107 558 271 C558 413 461 505 311 505 L311 505 Z M306 387 C342 387 363 359 363 309 C363 267 354 208 341 169 C326 123 307 105 275 105 C238 105 217 133 217 182 C217 219 229 289 241 325 C255 367 276 387 306 387 L306 387 Z M433 709 C398 709 369 680 369 645 C369 609 398 580 434 580 C469 580 498 609 498 644 C498 680 470 709 433 709 L433 709 Z M259 709 C224 709 195 680 195 645 C195 609 224 580 260 580 C295 580 324 609 324 643 C324 680 296 709 259 709 L259 709 Z " />
<glyph glyph-name="divide" unicode="&#xf7;" horiz-adv-x="587" d="M551 399 L65 399 L65 275 L551 275 L551 399 Z M306 235 C262 235 226 201 226 157 C226 115 262 80 306 80 C348 80 382 114 382 156 C382 200 348 235 306 235 L306 235 Z M306 594 C262 594 226 559 226 516 C226 473 262 438 306 438 C348 438 382 472 382 515 C382 558 348 594 306 594 L306 594 Z " />
<glyph glyph-name="oslash" unicode="&#xf8;" horiz-adv-x="582" d="M564 543 L468 543 L422 485 C377 500 352 505 312 505 C145 505 25 384 25 215 C25 144 42 101 89 52 L15 -45 L113 -45 L154 8 C198 -10 222 -15 266 -15 C435 -15 558 107 558 274 C558 346 538 395 488 445 L564 543 Z M306 387 C342 387 363 359 363 311 C363 273 354 213 343 176 C328 126 308 105 275 105 C239 105 218 134 218 183 C218 218 230 289 242 326 C256 368 276 387 306 387 L306 387 Z " />
<glyph glyph-name="ugrave" unicode="&#xf9;" horiz-adv-x="585" d="M574 493 L387 493 L346 249 C332 167 304 126 262 126 C239 126 228 138 228 162 C228 172 229 178 234 211 L282 493 L92 493 L41 185 C35 150 31 118 31 104 C31 36 87 -13 165 -13 C237 -13 285 17 330 92 L314 0 L492 0 L574 493 Z M437 630 L235 743 L195 651 L409 567 L437 630 Z " />
<glyph glyph-name="uacute" unicode="&#xfa;" horiz-adv-x="585" d="M574 493 L387 493 L346 249 C332 167 304 126 262 126 C239 126 228 138 228 162 C228 172 229 178 234 211 L282 493 L92 493 L41 185 C35 150 31 118 31 104 C31 36 87 -13 165 -13 C237 -13 285 17 330 92 L314 0 L492 0 L574 493 Z M259 630 L285 567 L518 651 L485 743 L259 630 Z " />
<glyph glyph-name="ucircumflex" unicode="&#xfb;" horiz-adv-x="585" d="M574 493 L387 493 L346 249 C332 167 304 126 262 126 C239 126 228 138 228 162 C228 172 229 178 234 211 L282 493 L92 493 L41 185 C35 150 31 118 31 104 C31 36 87 -13 165 -13 C237 -13 285 17 330 92 L314 0 L492 0 L574 493 Z M540 583 L372 737 L152 583 L262 573 L356 636 L427 573 L540 583 Z " />
<glyph glyph-name="udieresis" unicode="&#xfc;" horiz-adv-x="585" d="M574 493 L387 493 L346 249 C332 167 304 126 262 126 C239 126 228 138 228 162 C228 172 229 178 234 211 L282 493 L92 493 L41 185 C35 150 31 118 31 104 C31 36 87 -13 165 -13 C237 -13 285 17 330 92 L314 0 L492 0 L574 493 Z M440 709 C405 709 376 680 376 645 C376 609 405 580 441 580 C476 580 505 609 505 644 C505 680 477 709 440 709 L440 709 Z M266 709 C231 709 202 680 202 645 C202 609 231 580 267 580 C302 580 331 609 331 643 C331 680 303 709 266 709 L266 709 Z " />
<glyph glyph-name="yacute" unicode="&#xfd;" horiz-adv-x="485" d="M530 493 L396 493 L299 284 C295 276 291 267 291 267 L282 245 C281 243 279 238 276 231 C272 253 270 267 268 275 C267 281 265 288 263 294 L221 493 L25 493 L144 30 C147 18 149 5 149 -2 C149 -29 125 -42 74 -42 C54 -42 30 -40 -18 -36 L-19 -168 C15 -174 32 -176 59 -176 C178 -176 234 -136 295 -7 L530 493 Z M214 630 L240 567 L473 651 L440 743 L214 630 Z " />
<glyph glyph-name="thorn" unicode="&#xfe;" horiz-adv-x="587" d="M122 667 L-16 -157 L171 -157 L207 58 C240 7 272 -11 330 -11 C400 -11 456 21 499 84 C540 144 563 219 563 295 C563 422 497 506 398 506 C344 506 306 483 269 428 L309 667 L122 667 Z M250 315 C266 365 283 382 315 382 C349 382 368 356 368 310 C368 285 361 239 350 193 C335 133 315 108 280 108 C249 108 229 131 229 168 C229 189 238 248 250 315 L250 315 Z " />
<glyph glyph-name="ydieresis" unicode="&#xff;" horiz-adv-x="485" d="M530 493 L396 493 L299 284 C295 276 291 267 291 267 L282 245 C281 243 279 238 276 231 C272 253 270 267 268 275 C267 281 265 288 263 294 L221 493 L25 493 L144 30 C147 18 149 5 149 -2 C149 -29 125 -42 74 -42 C54 -42 30 -40 -18 -36 L-19 -168 C15 -174 32 -176 59 -176 C178 -176 234 -136 295 -7 L530 493 Z M384 709 C349 709 320 680 320 645 C320 609 349 580 385 580 C420 580 449 609 449 644 C449 680 421 709 384 709 L384 709 Z M210 709 C175 709 146 680 146 645 C146 609 175 580 211 580 C246 580 275 609 275 643 C275 680 247 709 210 709 L210 709 Z " />
<glyph glyph-name="Amacron" unicode="&#x100;" horiz-adv-x="630" d="M373 136 L391 0 L588 0 L484 667 L275 667 L-33 0 L132 0 L194 136 L373 136 Z M361 274 L246 274 L334 467 L361 274 Z M553 753 L567 833 L230 833 L217 753 L553 753 Z " />
<glyph glyph-name="amacron" unicode="&#x101;" horiz-adv-x="594" d="M515 0 C512 18 511 27 511 38 C511 68 511 68 531 181 C558 344 559 350 559 369 C559 454 473 506 332 506 C249 506 186 490 137 457 C105 436 87 414 65 369 L226 337 C246 375 270 391 308 391 C343 391 365 376 365 351 C365 344 363 337 359 323 C350 322 328 320 293 317 C217 310 198 307 157 297 C60 274 5 213 5 131 C5 48 70 -11 162 -11 C232 -11 280 16 324 81 C322 61 321 38 321 24 C321 16 321 12 323 0 L515 0 Z M341 234 C336 192 333 177 325 158 C312 129 280 107 251 107 C224 107 207 123 207 148 C207 176 221 198 247 212 C269 224 284 228 341 234 L341 234 Z M516 590 L529 667 L205 667 L192 590 L516 590 Z " />
<glyph glyph-name="Abreve" unicode="&#x102;" horiz-adv-x="630" d="M373 136 L391 0 L588 0 L484 667 L275 667 L-33 0 L132 0 L194 136 L373 136 Z M361 274 L246 274 L334 467 L361 274 Z M503 883 C473 837 442 818 396 818 C350 818 328 836 317 883 L233 883 C245 782 292 736 383 736 C434 736 483 753 520 784 C551 810 567 834 589 883 L503 883 Z " />
<glyph glyph-name="abreve" unicode="&#x103;" horiz-adv-x="594" d="M515 0 C512 18 511 27 511 38 C511 68 511 68 531 181 C558 344 559 350 559 369 C559 454 473 506 332 506 C249 506 186 490 137 457 C105 436 87 414 65 369 L226 337 C246 375 270 391 308 391 C343 391 365 376 365 351 C365 344 363 337 359 323 C350 322 328 320 293 317 C217 310 198 307 157 297 C60 274 5 213 5 131 C5 48 70 -11 162 -11 C232 -11 280 16 324 81 C322 61 321 38 321 24 C321 16 321 12 323 0 L515 0 Z M341 234 C336 192 333 177 325 158 C312 129 280 107 251 107 C224 107 207 123 207 148 C207 176 221 198 247 212 C269 224 284 228 341 234 L341 234 Z M478 728 C449 679 417 659 371 659 C325 659 304 678 293 728 L209 728 C220 625 268 577 359 577 C409 577 458 595 496 627 C526 653 543 677 564 728 L478 728 Z " />
<glyph glyph-name="Aogonek" unicode="&#x104;" horiz-adv-x="630" d="M484 667 L275 667 L-33 0 L132 0 L194 136 L373 136 L391 0 L516 0 C451 -29 422 -61 422 -105 C422 -155 461 -184 529 -184 C560 -184 589 -178 626 -163 L616 -119 C590 -128 574 -131 559 -131 C529 -131 512 -115 512 -87 C512 -54 529 -34 588 0 L484 667 Z M361 274 L246 274 L334 467 L361 274 Z " />
<glyph glyph-name="aogonek" unicode="&#x105;" horiz-adv-x="594" d="M446 0 C383 -28 356 -59 356 -101 C356 -149 393 -177 458 -177 C489 -177 516 -171 551 -157 L542 -114 C517 -123 503 -126 487 -126 C459 -126 443 -111 443 -84 C443 -52 460 -33 515 0 C512 18 511 27 511 38 C511 69 511 69 531 181 C558 344 559 350 559 369 C559 454 473 506 332 506 C249 506 186 490 137 457 C105 436 87 414 65 369 L226 337 C246 375 270 391 308 391 C343 391 365 376 365 351 C365 344 363 337 359 323 C350 322 328 320 293 317 C217 310 198 307 157 297 C60 274 5 213 5 131 C5 48 70 -11 162 -11 C232 -11 280 16 324 81 C322 61 321 38 321 24 C321 16 321 12 323 0 L446 0 Z M341 234 C336 192 333 177 325 158 C312 129 280 107 251 107 C224 107 207 123 207 148 C207 176 221 198 247 212 C269 224 284 228 341 234 L341 234 Z " />
<glyph glyph-name="Cacute" unicode="&#x106;" horiz-adv-x="633" d="M435 258 C410 175 382 145 330 145 C276 145 249 180 249 249 C249 298 266 398 283 445 C305 505 333 531 378 531 C410 531 434 515 446 487 C455 466 458 450 458 409 L646 423 C643 501 629 543 590 591 C541 651 472 682 384 682 C258 682 159 623 98 509 C61 442 42 367 42 289 C42 106 151 -14 317 -14 C404 -14 470 15 529 78 C570 122 591 161 614 235 L435 258 Z M320 794 L345 727 L579 801 L545 897 L320 794 Z " />
<glyph glyph-name="cacute" unicode="&#x107;" horiz-adv-x="523" d="M346 192 C330 145 305 123 269 123 C234 123 214 149 214 193 C214 222 221 265 231 301 C244 350 267 375 299 375 C334 375 354 349 354 304 L354 294 L521 314 C520 364 510 395 483 429 C441 481 377 510 302 510 C212 510 130 469 82 398 C45 346 24 279 24 218 C24 82 120 -14 255 -14 C317 -14 380 9 423 47 C453 73 470 99 495 155 L346 192 Z M239 630 L265 567 L498 651 L465 743 L239 630 Z " />
<glyph glyph-name="Ccircumflex" unicode="&#x108;" horiz-adv-x="633" d="M435 258 C410 175 382 145 330 145 C276 145 249 180 249 249 C249 298 266 398 283 445 C305 505 333 531 378 531 C410 531 434 515 446 487 C455 466 458 450 458 409 L646 423 C643 501 629 543 590 591 C541 651 472 682 384 682 C258 682 159 623 98 509 C61 442 42 367 42 289 C42 106 151 -14 317 -14 C404 -14 470 15 529 78 C570 122 591 161 614 235 L435 258 Z M604 743 L435 890 L217 743 L326 733 L420 791 L492 733 L604 743 Z " />
<glyph glyph-name="ccircumflex" unicode="&#x109;" horiz-adv-x="523" d="M346 192 C330 145 305 123 269 123 C234 123 214 149 214 193 C214 222 221 265 231 301 C244 350 267 375 299 375 C334 375 354 349 354 304 L354 294 L521 314 C520 364 510 395 483 429 C441 481 377 510 302 510 C212 510 130 469 82 398 C45 346 24 279 24 218 C24 82 120 -14 255 -14 C317 -14 380 9 423 47 C453 73 470 99 495 155 L346 192 Z M508 583 L340 737 L120 583 L229 573 L324 636 L395 573 L508 583 Z " />
<glyph glyph-name="Cdotaccent" unicode="&#x10a;" horiz-adv-x="633" d="M435 258 C410 175 382 145 330 145 C276 145 249 180 249 249 C249 298 266 398 283 445 C305 505 333 531 378 531 C410 531 434 515 446 487 C455 466 458 450 458 409 L646 423 C643 501 629 543 590 591 C541 651 472 682 384 682 C258 682 159 623 98 509 C61 442 42 367 42 289 C42 106 151 -14 317 -14 C404 -14 470 15 529 78 C570 122 591 161 614 235 L435 258 Z M422 870 C385 870 354 840 354 804 C354 767 385 737 423 737 C460 737 491 767 491 802 C491 840 461 870 422 870 L422 870 Z " />
<glyph glyph-name="cdotaccent" unicode="&#x10b;" horiz-adv-x="523" d="M346 192 C330 145 305 123 269 123 C234 123 214 149 214 193 C214 222 221 265 231 301 C244 350 267 375 299 375 C334 375 354 349 354 304 L354 294 L521 314 C520 364 510 395 483 429 C441 481 377 510 302 510 C212 510 130 469 82 398 C45 346 24 279 24 218 C24 82 120 -14 255 -14 C317 -14 380 9 423 47 C453 73 470 99 495 155 L346 192 Z M331 713 C295 713 265 683 265 647 C265 610 295 580 332 580 C368 580 398 610 398 646 C398 683 369 713 331 713 L331 713 Z " />
<glyph glyph-name="Ccaron" unicode="&#x10c;" horiz-adv-x="633" d="M435 258 C410 175 382 145 330 145 C276 145 249 180 249 249 C249 298 266 398 283 445 C305 505 333 531 378 531 C410 531 434 515 446 487 C455 466 458 450 458 409 L646 423 C643 501 629 543 590 591 C541 651 472 682 384 682 C258 682 159 623 98 509 C61 442 42 367 42 289 C42 106 151 -14 317 -14 C404 -14 470 15 529 78 C570 122 591 161 614 235 L435 258 Z M244 873 L413 727 L632 873 L522 883 L429 825 L357 883 L244 873 Z " />
<glyph glyph-name="ccaron" unicode="&#x10d;" horiz-adv-x="523" d="M346 192 C330 145 305 123 269 123 C234 123 214 149 214 193 C214 222 221 265 231 301 C244 350 267 375 299 375 C334 375 354 349 354 304 L354 294 L521 314 C520 364 510 395 483 429 C441 481 377 510 302 510 C212 510 130 469 82 398 C45 346 24 279 24 218 C24 82 120 -14 255 -14 C317 -14 380 9 423 47 C453 73 470 99 495 155 L346 192 Z M151 720 L319 567 L539 720 L430 730 L335 667 L264 730 L151 720 Z " />
<glyph glyph-name="Dcaron" unicode="&#x10e;" horiz-adv-x="686" d="M17 0 L261 0 C408 0 456 9 518 50 C616 115 673 232 673 368 C673 465 645 541 589 594 C532 649 472 667 351 667 L129 667 L17 0 Z M241 149 L304 523 L361 523 C435 523 473 472 473 375 C473 298 450 225 413 187 C386 160 351 149 286 149 L241 149 Z M200 873 L369 727 L588 873 L479 883 L385 825 L313 883 L200 873 Z " />
<glyph glyph-name="dcaron" unicode="&#x10f;" horiz-adv-x="716" d="M607 667 L419 667 L381 436 C354 488 323 506 262 506 C186 506 123 467 77 390 C42 332 22 259 22 187 C22 130 36 80 63 47 C93 8 140 -15 186 -15 C243 -15 292 15 332 74 L320 0 L495 0 L607 667 Z M338 179 C324 132 303 111 268 111 C235 111 217 135 217 178 C217 207 227 266 239 307 C253 356 279 384 311 384 C340 384 362 362 362 335 C362 330 362 324 361 318 L338 179 Z M782 667 L673 667 L627 461 L679 461 L782 667 Z " />
<glyph glyph-name="Dcroat" unicode="&#x110;" horiz-adv-x="686" d="M13 305 L68 305 L17 0 L260 0 C407 0 456 9 517 50 C615 115 672 231 672 368 C672 465 644 541 588 594 C531 649 471 667 350 667 L128 667 L83 397 L28 397 L13 305 Z M267 305 L375 305 L390 397 L282 397 L303 523 L361 523 C434 523 472 472 472 375 C472 297 449 224 412 187 C385 160 350 149 286 149 L241 149 L267 305 Z " />
<glyph glyph-name="dcroat" unicode="&#x111;" horiz-adv-x="588" d="M586 545 L640 545 L653 622 L599 622 L607 667 L419 667 L412 622 L296 622 L283 545 L399 545 L381 436 C354 488 323 506 262 506 C186 506 123 467 77 391 C42 331 22 259 22 187 C22 130 36 80 63 47 C93 8 139 -15 186 -15 C243 -15 292 15 332 74 L320 0 L495 0 L586 545 Z M338 179 C324 131 303 111 268 111 C235 111 217 135 217 178 C217 207 227 266 239 307 C253 356 279 384 311 384 C340 384 362 362 362 335 C362 330 362 324 361 318 L338 179 Z " />
<glyph glyph-name="Emacron" unicode="&#x112;" horiz-adv-x="573" d="M534 153 L236 153 L256 271 L496 271 L520 416 L280 416 L297 521 L583 521 L607 667 L129 667 L17 0 L508 0 L534 153 Z M541 753 L555 833 L218 833 L205 753 L541 753 Z " />
<glyph glyph-name="emacron" unicode="&#x113;" horiz-adv-x="584" d="M552 210 C557 236 558 249 558 266 C558 412 463 505 314 505 C148 505 23 382 23 219 C23 78 121 -15 270 -15 C339 -15 397 4 451 45 C491 74 509 96 534 147 L368 174 C349 130 324 112 284 112 C239 112 210 139 210 180 C210 186 211 199 213 210 L552 210 Z M227 305 C237 360 270 394 315 394 C351 394 377 367 377 329 C377 324 376 314 374 305 L227 305 Z M501 590 L514 667 L191 667 L178 590 L501 590 Z " />
<glyph glyph-name="Ebreve" unicode="&#x114;" horiz-adv-x="573" d="M534 153 L236 153 L256 271 L496 271 L520 416 L280 416 L297 521 L583 521 L607 667 L129 667 L17 0 L508 0 L534 153 Z M491 883 C461 837 430 818 384 818 C338 818 316 836 305 883 L221 883 C233 782 280 736 371 736 C422 736 470 753 508 784 C539 810 555 834 577 883 L491 883 Z " />
<glyph glyph-name="ebreve" unicode="&#x115;" horiz-adv-x="584" d="M552 210 C557 236 558 249 558 266 C558 412 463 505 314 505 C148 505 23 382 23 219 C23 78 121 -15 270 -15 C339 -15 397 4 451 45 C491 74 509 96 534 147 L368 174 C349 130 324 112 284 112 C239 112 210 139 210 180 C210 186 211 199 213 210 L552 210 Z M227 305 C237 360 270 394 315 394 C351 394 377 367 377 329 C377 324 376 314 374 305 L227 305 Z M460 728 C431 679 400 659 353 659 C307 659 286 678 275 728 L191 728 C202 625 250 577 341 577 C391 577 440 595 478 627 C508 653 525 677 546 728 L460 728 Z " />
<glyph glyph-name="Edotaccent" unicode="&#x116;" horiz-adv-x="573" d="M534 153 L236 153 L256 271 L496 271 L520 416 L280 416 L297 521 L583 521 L607 667 L129 667 L17 0 L508 0 L534 153 Z M382 870 C345 870 314 840 314 804 C314 767 345 737 383 737 C420 737 451 767 451 802 C451 840 421 870 382 870 L382 870 Z " />
<glyph glyph-name="edotaccent" unicode="&#x117;" horiz-adv-x="584" d="M552 210 C557 236 558 249 558 266 C558 412 463 505 314 505 C148 505 23 382 23 219 C23 78 121 -15 270 -15 C339 -15 397 4 451 45 C491 74 509 96 534 147 L368 174 C349 130 324 112 284 112 C239 112 210 139 210 180 C210 186 211 199 213 210 L552 210 Z M227 305 C237 360 270 394 315 394 C351 394 377 367 377 329 C377 324 376 314 374 305 L227 305 Z M348 713 C312 713 282 683 282 647 C282 610 312 580 349 580 C385 580 415 610 415 646 C415 683 386 713 348 713 L348 713 Z " />
<glyph glyph-name="Eogonek" unicode="&#x118;" horiz-adv-x="573" d="M534 153 L236 153 L256 271 L496 271 L520 416 L280 416 L297 521 L583 521 L607 667 L129 667 L17 0 L436 0 C371 -29 342 -61 342 -105 C342 -155 381 -184 449 -184 C481 -184 509 -178 546 -163 L536 -119 C510 -128 495 -131 479 -131 C449 -131 432 -115 432 -87 C432 -54 450 -34 508 0 L534 153 Z " />
<glyph glyph-name="eogonek" unicode="&#x119;" horiz-adv-x="584" d="M447 -111 C422 -119 408 -122 392 -122 C364 -122 348 -107 348 -82 C348 -49 376 -12 436 33 C491 74 507 93 534 147 L368 174 C349 130 324 112 284 112 C239 112 210 139 210 180 C210 186 211 199 213 210 L552 210 C557 236 558 249 558 266 C558 412 463 505 314 505 C148 505 23 382 23 219 C23 77 121 -15 271 -15 C291 -15 303 -14 326 -10 C278 -37 261 -61 261 -97 C261 -145 298 -173 363 -173 C394 -173 420 -168 456 -153 L447 -111 Z M227 305 C237 360 270 394 315 394 C351 394 377 367 377 329 C377 324 376 314 374 305 L227 305 Z " />
<glyph glyph-name="Ecaron" unicode="&#x11a;" horiz-adv-x="573" d="M534 153 L236 153 L256 271 L496 271 L520 416 L280 416 L297 521 L583 521 L607 667 L129 667 L17 0 L508 0 L534 153 Z M204 873 L374 727 L592 873 L483 883 L389 825 L317 883 L204 873 Z " />
<glyph glyph-name="ecaron" unicode="&#x11b;" horiz-adv-x="584" d="M552 210 C557 236 558 249 558 266 C558 412 463 505 314 505 C148 505 23 382 23 219 C23 78 121 -15 270 -15 C339 -15 397 4 451 45 C491 74 509 96 534 147 L368 174 C349 130 324 112 284 112 C239 112 210 139 210 180 C210 186 211 199 213 210 L552 210 Z M227 305 C237 360 270 394 315 394 C351 394 377 367 377 329 C377 324 376 314 374 305 L227 305 Z M172 720 L340 567 L560 720 L450 730 L356 667 L285 730 L172 720 Z " />
<glyph glyph-name="Gcircumflex" unicode="&#x11c;" horiz-adv-x="681" d="M357 365 L333 224 L442 224 C418 165 390 142 340 142 C280 142 248 182 248 257 C248 302 256 358 270 407 C293 488 330 527 385 527 C438 527 470 499 485 438 L668 468 C646 541 628 574 590 610 C541 658 470 683 387 683 C282 683 198 643 132 560 C73 488 38 380 38 273 C38 102 144 -13 303 -13 C391 -13 442 11 487 73 L493 0 L590 0 L651 365 L357 365 Z M612 743 L443 890 L224 743 L334 733 L428 791 L500 733 L612 743 Z " />
<glyph glyph-name="gcircumflex" unicode="&#x11d;" horiz-adv-x="555" d="M485 630 L323 783 L110 630 L220 620 L307 682 L372 620 L485 630 Z M206 136 C195 137 185 140 176 145 C171 149 167 157 167 165 C167 185 185 200 207 200 C215 200 228 199 245 198 C258 196 268 196 291 196 C375 196 424 208 463 239 C499 266 521 310 521 356 C521 377 518 393 509 414 C524 434 540 441 569 441 C586 441 601 439 626 431 L653 552 C614 560 594 563 574 563 C512 563 473 535 446 471 C396 496 356 505 291 505 C223 505 167 494 127 472 C81 447 50 395 50 345 C50 297 72 262 118 236 C38 212 -2 173 -2 119 C-2 86 11 65 46 40 C-19 14 -42 -11 -42 -53 C-42 -135 43 -174 223 -174 C311 -174 371 -164 420 -141 C475 -116 512 -59 512 -1 C512 76 450 129 355 132 L206 136 Z M141 0 C165 -3 165 -3 257 -8 C329 -11 329 -11 338 -16 C345 -20 349 -26 349 -34 C349 -61 318 -71 237 -71 C154 -71 113 -59 113 -34 C113 -22 119 -14 141 0 L141 0 Z M295 410 C329 410 349 390 349 356 C349 315 321 285 282 285 C249 285 228 304 228 335 C228 380 255 410 295 410 L295 410 Z " />
<glyph glyph-name="Gbreve" unicode="&#x11e;" horiz-adv-x="681" d="M357 365 L333 224 L442 224 C418 165 390 142 340 142 C280 142 248 182 248 257 C248 302 256 358 270 407 C293 488 330 527 385 527 C438 527 470 499 485 438 L668 468 C646 541 628 574 590 610 C541 658 470 683 387 683 C282 683 198 643 132 560 C73 488 38 380 38 273 C38 102 144 -13 303 -13 C391 -13 442 11 487 73 L493 0 L590 0 L651 365 L357 365 Z M533 883 C503 837 472 818 426 818 C380 818 358 836 347 883 L263 883 C275 782 322 736 413 736 C464 736 512 753 550 784 C581 810 597 834 619 883 L533 883 Z " />
<glyph glyph-name="gbreve" unicode="&#x11f;" horiz-adv-x="555" d="M206 136 C195 137 185 140 176 145 C171 149 167 157 167 165 C167 185 185 200 207 200 C215 200 228 199 245 198 C258 196 268 196 291 196 C375 196 424 208 463 239 C499 266 521 310 521 356 C521 377 518 393 509 414 C524 434 540 441 569 441 C586 441 601 439 626 431 L653 552 C614 560 594 563 574 563 C512 563 473 535 446 471 C396 496 356 505 291 505 C223 505 167 494 127 472 C81 447 50 395 50 345 C50 297 72 262 118 236 C38 212 -2 173 -2 119 C-2 86 11 65 46 40 C-19 14 -42 -11 -42 -53 C-42 -135 43 -174 223 -174 C311 -174 371 -164 420 -141 C475 -116 512 -59 512 -1 C512 76 450 129 355 132 L206 136 Z M141 0 C165 -3 165 -3 257 -8 C329 -11 329 -11 338 -16 C345 -20 349 -26 349 -34 C349 -61 318 -71 237 -71 C154 -71 113 -59 113 -34 C113 -22 119 -14 141 0 L141 0 Z M295 410 C329 410 349 390 349 356 C349 315 321 285 282 285 C249 285 228 304 228 335 C228 380 255 410 295 410 L295 410 Z M413 741 C388 692 361 672 320 672 C282 672 263 691 254 741 L170 741 C181 638 224 590 307 590 C354 590 400 608 435 640 C464 666 479 690 499 741 L413 741 Z " />
<glyph glyph-name="Gdotaccent" unicode="&#x120;" horiz-adv-x="681" d="M357 365 L333 224 L442 224 C418 165 390 142 340 142 C280 142 248 182 248 257 C248 302 256 358 270 407 C293 488 330 527 385 527 C438 527 470 499 485 438 L668 468 C646 541 628 574 590 610 C541 658 470 683 387 683 C282 683 198 643 132 560 C73 488 38 380 38 273 C38 102 144 -13 303 -13 C391 -13 442 11 487 73 L493 0 L590 0 L651 365 L357 365 Z M422 870 C385 870 354 840 354 804 C354 767 385 737 423 737 C460 737 491 767 491 802 C491 840 461 870 422 870 L422 870 Z " />
<glyph glyph-name="gdotaccent" unicode="&#x121;" horiz-adv-x="555" d="M330 726 C294 726 264 696 264 660 C264 623 294 593 331 593 C367 593 397 623 397 659 C397 696 368 726 330 726 L330 726 Z M206 136 C195 137 185 140 176 145 C171 149 167 157 167 165 C167 185 185 200 207 200 C215 200 228 199 245 198 C258 196 268 196 291 196 C375 196 424 208 463 239 C499 266 521 310 521 356 C521 377 518 393 509 414 C524 434 540 441 569 441 C586 441 601 439 626 431 L653 552 C614 560 594 563 574 563 C512 563 473 535 446 471 C396 496 356 505 291 505 C223 505 167 494 127 472 C81 447 50 395 50 345 C50 297 72 262 118 236 C38 212 -2 173 -2 119 C-2 86 11 65 46 40 C-19 14 -42 -11 -42 -53 C-42 -135 43 -174 223 -174 C311 -174 371 -164 420 -141 C475 -116 512 -59 512 -1 C512 76 450 129 355 132 L206 136 Z M141 0 C165 -3 165 -3 257 -8 C329 -11 329 -11 338 -16 C345 -20 349 -26 349 -34 C349 -61 318 -71 237 -71 C154 -71 113 -59 113 -34 C113 -22 119 -14 141 0 L141 0 Z M295 410 C329 410 349 390 349 356 C349 315 321 285 282 285 C249 285 228 304 228 335 C228 380 255 410 295 410 L295 410 Z " />
<glyph glyph-name="Gcommaaccent" unicode="&#x122;" horiz-adv-x="681" d="M357 365 L333 224 L442 224 C418 165 390 142 340 142 C280 142 248 182 248 257 C248 302 256 358 270 407 C293 488 330 527 385 527 C438 527 470 499 485 438 L668 468 C646 541 628 574 590 610 C541 658 470 683 387 683 C282 683 198 643 132 560 C73 488 38 380 38 273 C38 102 144 -13 303 -13 C391 -13 442 11 487 73 L493 0 L590 0 L651 365 L357 365 Z M362 -57 L249 -57 L204 -258 L257 -258 L362 -57 Z " />
<glyph glyph-name="gcommaaccent" unicode="&#x123;" horiz-adv-x="555" d="M246 587 L355 587 L400 784 L348 784 L246 587 Z M206 136 C195 137 185 140 176 145 C171 149 167 157 167 165 C167 185 185 200 207 200 C215 200 228 199 245 198 C258 196 268 196 291 196 C375 196 424 208 463 239 C499 266 521 310 521 356 C521 377 518 393 509 414 C524 434 540 441 569 441 C586 441 601 439 626 431 L653 552 C614 560 594 563 574 563 C512 563 473 535 446 471 C396 496 356 505 291 505 C223 505 167 494 127 472 C81 447 50 395 50 345 C50 297 72 262 118 236 C38 212 -2 173 -2 119 C-2 86 11 65 46 40 C-19 14 -42 -11 -42 -53 C-42 -135 43 -174 223 -174 C311 -174 371 -164 420 -141 C475 -116 512 -59 512 -1 C512 76 450 129 355 132 L206 136 Z M141 0 C165 -3 165 -3 257 -8 C329 -11 329 -11 338 -16 C345 -20 349 -26 349 -34 C349 -61 318 -71 237 -71 C154 -71 113 -59 113 -34 C113 -22 119 -14 141 0 L141 0 Z M295 410 C329 410 349 390 349 356 C349 315 321 285 282 285 C249 285 228 304 228 335 C228 380 255 410 295 410 L295 410 Z " />
<glyph glyph-name="Hcircumflex" unicode="&#x124;" horiz-adv-x="676" d="M429 268 L384 0 L577 0 L689 667 L495 667 L454 421 L281 421 L322 667 L129 667 L17 0 L210 0 L255 268 L429 268 Z M615 743 L445 890 L227 743 L336 733 L430 791 L502 733 L615 743 Z " />
<glyph glyph-name="hcircumflex" unicode="&#x125;" horiz-adv-x="588" d="M309 667 L122 667 L10 0 L197 0 L246 291 C251 322 255 335 261 345 C273 363 293 374 316 374 C343 374 363 358 363 335 C363 331 361 314 357 291 L308 0 L495 0 L547 311 C551 335 554 362 554 380 C554 425 540 457 510 478 C484 496 449 507 415 507 C353 507 311 485 270 432 L309 667 Z M425 743 L256 890 L37 743 L146 733 L240 791 L312 733 L425 743 Z " />
<glyph glyph-name="Hbar" unicode="&#x126;" horiz-adv-x="676" d="M46 497 L100 497 L17 0 L210 0 L255 268 L429 268 L384 0 L577 0 L660 497 L715 497 L730 586 L675 586 L689 667 L495 667 L482 586 L308 586 L322 667 L129 667 L115 586 L60 586 L46 497 Z M294 497 L467 497 L450 395 L276 395 L294 497 Z " />
<glyph glyph-name="hbar" unicode="&#x127;" horiz-adv-x="588" d="M417 622 L301 622 L309 667 L121 667 L114 622 L61 622 L48 545 L101 545 L10 0 L197 0 L246 291 C251 322 255 335 261 345 C273 363 293 374 316 374 C343 374 363 358 363 335 C363 331 361 314 357 291 L308 0 L495 0 L547 311 C551 335 554 362 554 380 C554 425 540 457 510 478 C484 496 449 507 415 507 C353 507 311 485 270 432 L289 545 L405 545 L417 622 Z " />
<glyph glyph-name="Itilde" unicode="&#x128;" horiz-adv-x="305" d="M318 667 L129 667 L17 0 L206 0 L318 667 Z M370 856 C338 827 321 818 299 818 C283 818 279 819 240 839 C214 852 193 858 174 858 C137 858 102 839 60 796 L108 739 C132 766 151 777 174 777 C185 777 198 774 209 768 C265 739 272 737 300 737 C340 737 377 756 419 799 L370 856 Z " />
<glyph glyph-name="itilde" unicode="&#x129;" horiz-adv-x="294" d="M284 493 L93 493 L10 0 L201 0 L284 493 Z M336 700 C304 671 287 661 265 661 C249 661 245 662 206 682 C181 695 159 702 140 702 C103 702 69 683 26 640 L74 582 C98 610 117 621 140 621 C151 621 164 618 176 612 C231 582 238 580 266 580 C307 580 343 599 385 643 L336 700 Z " />
<glyph glyph-name="Imacron" unicode="&#x12a;" horiz-adv-x="305" d="M318 667 L129 667 L17 0 L206 0 L318 667 Z M368 753 L381 833 L111 833 L98 753 L368 753 Z " />
<glyph glyph-name="imacron" unicode="&#x12b;" horiz-adv-x="294" d="M284 493 L93 493 L10 0 L201 0 L284 493 Z M328 590 L341 667 L77 667 L65 590 L328 590 Z " />
<glyph glyph-name="Ibreve" unicode="&#x12c;" horiz-adv-x="305" d="M318 667 L129 667 L17 0 L206 0 L318 667 Z M347 883 C317 837 286 818 240 818 C194 818 172 836 161 883 L77 883 C89 782 136 736 227 736 C278 736 326 753 364 784 C395 810 411 834 433 883 L347 883 Z " />
<glyph glyph-name="ibreve" unicode="&#x12d;" horiz-adv-x="294" d="M284 493 L93 493 L10 0 L201 0 L284 493 Z M294 728 C270 679 245 659 208 659 C173 659 156 678 148 728 L64 728 C75 624 115 577 195 577 C240 577 283 595 318 627 C345 653 360 677 380 728 L294 728 Z " />
<glyph glyph-name="Iogonek" unicode="&#x12e;" horiz-adv-x="305" d="M318 667 L129 667 L17 0 L134 0 C69 -29 40 -61 40 -105 C40 -155 79 -184 147 -184 C179 -184 207 -178 244 -163 L234 -119 C208 -128 193 -131 177 -131 C147 -131 130 -115 130 -87 C130 -54 148 -34 206 0 L318 667 Z " />
<glyph glyph-name="iogonek" unicode="&#x12f;" horiz-adv-x="294" d="M284 493 L93 493 L10 0 L132 0 C69 -28 42 -59 42 -101 C42 -149 79 -177 144 -177 C175 -177 202 -171 237 -157 L228 -114 C203 -123 189 -126 173 -126 C145 -126 129 -111 129 -84 C129 -52 146 -33 201 0 L284 493 Z M315 682 L124 682 L100 537 L291 537 L315 682 Z " />
<glyph glyph-name="Idotaccent" unicode="&#x130;" horiz-adv-x="305" d="M318 667 L129 667 L17 0 L206 0 L318 667 Z M245 870 C208 870 177 840 177 804 C177 767 208 737 246 737 C283 737 314 767 314 802 C314 840 284 870 245 870 L245 870 Z " />
<glyph glyph-name="dotlessi" unicode="&#x131;" horiz-adv-x="294" d="M284 493 L93 493 L10 0 L201 0 L284 493 Z " />
<glyph glyph-name="IJ" unicode="&#x132;" horiz-adv-x="719" d="M318 667 L129 667 L17 0 L206 0 L318 667 Z M738 667 L540 667 L477 288 C464 206 464 206 452 185 C437 160 409 146 370 146 C350 146 332 148 293 154 L268 0 C320 -10 347 -13 394 -13 C489 -13 548 5 593 49 C633 87 647 123 665 226 L738 667 Z " />
<glyph glyph-name="ij" unicode="&#x133;" horiz-adv-x="587" d="M315 682 L124 682 L100 537 L291 537 L315 682 Z M284 493 L93 493 L10 0 L201 0 L284 493 Z M608 682 L415 682 L391 537 L584 537 L608 682 Z M577 493 L384 493 L313 67 C299 -12 299 -12 287 -23 C275 -32 257 -37 230 -37 C218 -37 211 -36 196 -33 L181 -168 C216 -174 232 -176 259 -176 C312 -176 359 -168 389 -155 C454 -125 480 -84 497 18 L577 493 Z " />
<glyph glyph-name="Jcircumflex" unicode="&#x134;" horiz-adv-x="417" d="M436 667 L238 667 L174 288 C161 206 161 206 149 185 C135 160 106 146 68 146 C47 146 30 148 -9 154 L-35 0 C18 -10 44 -13 91 -13 C186 -13 245 5 291 49 C330 87 345 123 362 226 L436 667 Z M536 743 L367 890 L149 743 L258 733 L352 791 L424 733 L536 743 Z " />
<glyph glyph-name="jcircumflex" unicode="&#x135;" horiz-adv-x="295" d="M286 493 L93 493 L22 67 C8 -12 8 -12 -4 -23 C-16 -32 -34 -37 -61 -37 C-73 -37 -80 -36 -95 -33 L-110 -168 C-75 -174 -59 -176 -32 -176 C21 -176 68 -168 98 -155 C163 -125 189 -83 206 18 L286 493 Z M390 583 L222 737 L2 583 L111 573 L206 636 L277 573 L390 583 Z " />
<glyph glyph-name="Kcommaaccent" unicode="&#x136;" horiz-adv-x="641" d="M475 414 L700 667 L509 667 L414 560 L365 501 C285 407 281 401 263 360 L268 396 L278 452 L286 501 L293 542 L314 667 L129 667 L17 0 L202 0 L229 162 L331 275 L406 0 L603 0 L475 414 Z M357 -57 L244 -57 L198 -258 L252 -258 L357 -57 Z " />
<glyph glyph-name="kcommaaccent" unicode="&#x137;" horiz-adv-x="580" d="M614 493 L442 493 L296 360 C292 356 283 347 269 334 C262 326 254 318 247 311 L234 298 L239 327 L249 388 L259 448 L296 667 L122 667 L10 0 L184 0 L206 134 L291 210 L359 0 L547 0 L428 323 C455 349 472 366 528 416 L614 493 Z M321 -57 L212 -57 L167 -254 L219 -254 L321 -57 Z " />
<glyph glyph-name="kgreenlandic" unicode="&#x138;" horiz-adv-x="580" d="M614 493 L442 493 L296 360 C292 356 283 347 269 334 C262 326 254 318 247 311 L234 298 L239 327 L249 388 L259 448 L267 493 L93 493 L10 0 L184 0 L206 134 L291 210 L359 0 L547 0 L428 323 C455 349 472 366 528 416 L614 493 Z " />
<glyph glyph-name="Lacute" unicode="&#x139;" horiz-adv-x="527" d="M499 160 L246 160 L331 667 L129 667 L17 0 L472 0 L499 160 Z M160 794 L186 727 L419 801 L385 897 L160 794 Z " />
<glyph glyph-name="lacute" unicode="&#x13a;" horiz-adv-x="290" d="M309 667 L122 667 L10 0 L197 0 L309 667 Z M128 794 L153 727 L367 803 L333 897 L128 794 Z " />
<glyph glyph-name="Lcommaaccent" unicode="&#x13b;" horiz-adv-x="527" d="M499 160 L246 160 L331 667 L129 667 L17 0 L472 0 L499 160 Z M299 -57 L185 -57 L140 -258 L194 -258 L299 -57 Z " />
<glyph glyph-name="lcommaaccent" unicode="&#x13c;" horiz-adv-x="290" d="M308 667 L121 667 L10 0 L197 0 L308 667 Z M154 -57 L45 -57 L0 -254 L52 -254 L154 -57 Z " />
<glyph glyph-name="Lcaron" unicode="&#x13d;" horiz-adv-x="527" d="M499 160 L246 160 L331 667 L129 667 L17 0 L472 0 L499 160 Z M535 667 L422 667 L375 459 L429 459 L535 667 Z " />
<glyph glyph-name="lcaron" unicode="&#x13e;" horiz-adv-x="418" d="M309 667 L122 667 L10 0 L197 0 L309 667 Z M485 667 L376 667 L329 461 L381 461 L485 667 Z " />
<glyph glyph-name="Ldot" unicode="&#x13f;" horiz-adv-x="527" d="M499 160 L246 160 L331 667 L129 667 L17 0 L472 0 L499 160 Z M545 429 L361 429 L332 252 L515 252 L545 429 Z " />
<glyph glyph-name="ldot" unicode="&#x140;" horiz-adv-x="474" d="M309 667 L122 667 L10 0 L197 0 L309 667 Z M504 429 L321 429 L292 252 L475 252 L504 429 Z " />
<glyph glyph-name="Lslash" unicode="&#x141;" horiz-adv-x="527" d="M330 667 L128 667 L76 355 L16 311 L-3 199 L57 243 L16 0 L472 0 L498 159 L245 159 L277 350 L379 421 L398 533 L296 463 L330 667 Z " />
<glyph glyph-name="lslash" unicode="&#x142;" horiz-adv-x="310" d="M318 667 L131 667 L79 354 L18 312 L2 214 L62 256 L20 0 L207 0 L262 327 L322 367 L338 465 L278 425 L318 667 Z " />
<glyph glyph-name="Nacute" unicode="&#x143;" horiz-adv-x="681" d="M694 667 L535 667 L492 414 C485 370 479 322 479 307 C479 299 479 289 481 275 C468 321 432 405 381 513 L308 667 L129 667 L17 0 L180 0 L234 327 C239 355 242 382 242 397 L241 422 C249 383 272 325 307 256 L434 0 L582 0 L694 667 Z M335 794 L360 727 L594 801 L560 897 L335 794 Z " />
<glyph glyph-name="nacute" unicode="&#x144;" horiz-adv-x="585" d="M93 493 L10 0 L193 0 L243 296 C252 349 276 375 314 375 C344 375 359 361 359 334 C359 327 358 317 354 296 L305 0 L492 0 L548 337 C551 354 553 373 553 387 C553 460 497 508 413 508 C371 508 331 496 300 475 C277 459 265 444 251 413 L265 493 L93 493 Z M253 630 L279 567 L512 651 L478 743 L253 630 Z " />
<glyph glyph-name="Ncommaaccent" unicode="&#x145;" horiz-adv-x="681" d="M694 667 L535 667 L492 414 C485 370 479 322 479 307 C479 299 479 289 481 275 C468 321 432 405 381 513 L308 667 L129 667 L17 0 L180 0 L234 327 C239 355 242 382 242 397 L241 422 C249 383 272 325 307 256 L434 0 L582 0 L694 667 Z M372 -57 L259 -57 L214 -258 L267 -258 L372 -57 Z " />
<glyph glyph-name="ncommaaccent" unicode="&#x146;" horiz-adv-x="585" d="M93 493 L10 0 L193 0 L243 296 C252 349 276 375 314 375 C344 375 359 361 359 334 C359 327 358 317 354 296 L305 0 L492 0 L548 337 C551 354 553 373 553 387 C553 460 497 508 413 508 C371 508 331 496 300 475 C277 459 265 444 251 413 L265 493 L93 493 Z M302 -57 L193 -57 L148 -254 L200 -254 L302 -57 Z " />
<glyph glyph-name="Ncaron" unicode="&#x147;" horiz-adv-x="681" d="M694 667 L535 667 L492 414 C485 370 479 322 479 307 C479 299 479 289 481 275 C468 321 432 405 381 513 L308 667 L129 667 L17 0 L180 0 L234 327 C239 355 242 382 242 397 L241 422 C249 383 272 325 307 256 L434 0 L582 0 L694 667 Z M252 873 L421 727 L640 873 L530 883 L437 825 L365 883 L252 873 Z " />
<glyph glyph-name="ncaron" unicode="&#x148;" horiz-adv-x="585" d="M93 493 L10 0 L193 0 L243 296 C252 349 276 375 314 375 C344 375 359 361 359 334 C359 327 358 317 354 296 L305 0 L492 0 L548 337 C551 354 553 373 553 387 C553 460 497 508 413 508 C371 508 331 496 300 475 C277 459 265 444 251 413 L265 493 L93 493 Z M175 720 L343 567 L563 720 L454 730 L359 667 L288 730 L175 720 Z " />
<glyph glyph-name="napostrophe" unicode="&#x149;" horiz-adv-x="799" d="M282 667 L120 667 L95 514 L161 514 L73 383 L149 383 L259 529 L282 667 Z M307 493 L225 0 L408 0 L458 296 C467 349 490 375 529 375 C559 375 574 361 574 334 C574 327 573 321 569 296 L519 0 L707 0 L763 337 C766 354 768 374 768 387 C768 460 712 508 628 508 C586 508 546 496 514 475 C492 459 480 444 466 413 L479 493 L307 493 Z " />
<glyph glyph-name="Eng" unicode="&#x14a;" horiz-adv-x="676" d="M129 667 L17 0 L210 0 L280 414 C292 490 329 529 389 529 C435 529 462 507 460 471 C459 458 457 439 453 414 L404 119 C385 9 385 7 368 -8 C352 -21 326 -28 291 -28 C275 -28 266 -27 244 -22 L224 -166 C260 -174 276 -176 306 -176 C415 -176 484 -148 534 -84 C562 -47 576 -5 591 86 L653 456 C658 481 660 507 660 526 C660 620 590 684 488 684 C438 684 387 668 349 640 C321 620 306 600 288 558 L307 667 L129 667 Z " />
<glyph glyph-name="eng" unicode="&#x14b;" horiz-adv-x="585" d="M93 493 L10 0 L193 0 L243 296 C252 349 276 375 314 375 C344 375 359 361 359 334 C359 327 358 317 354 296 L316 67 C303 -12 303 -12 290 -23 C279 -32 260 -37 234 -37 C222 -37 215 -36 199 -32 L179 -168 C214 -174 230 -176 257 -176 C310 -176 357 -168 387 -155 C452 -125 478 -83 495 18 L548 337 C551 354 553 373 553 387 C553 460 497 508 413 508 C371 508 331 496 300 475 C277 459 265 444 251 413 L265 493 L93 493 Z " />
<glyph glyph-name="Omacron" unicode="&#x14c;" horiz-adv-x="687" d="M390 684 C297 684 206 645 146 580 C80 507 39 395 39 283 C39 104 157 -17 331 -17 C441 -17 538 34 599 124 C648 195 677 291 677 378 C677 564 564 684 390 684 L390 684 Z M383 528 C437 528 469 490 469 424 C469 391 455 310 440 250 C420 175 385 138 333 138 C276 138 248 172 248 241 C248 288 262 372 278 426 C299 493 335 528 383 528 L383 528 Z M596 753 L610 833 L273 833 L260 753 L596 753 Z " />
<glyph glyph-name="omacron" unicode="&#x14d;" horiz-adv-x="582" d="M311 505 C144 505 24 384 24 214 C24 144 44 93 90 51 C135 7 196 -15 267 -15 C434 -15 558 107 558 271 C558 413 461 505 311 505 L311 505 Z M306 387 C342 387 363 359 363 309 C363 267 354 208 341 169 C326 123 307 105 275 105 C238 105 217 133 217 182 C217 219 229 289 241 325 C255 367 276 387 306 387 L306 387 Z M500 590 L512 667 L189 667 L176 590 L500 590 Z " />
<glyph glyph-name="Obreve" unicode="&#x14e;" horiz-adv-x="687" d="M390 684 C297 684 206 645 146 580 C80 507 39 395 39 283 C39 104 157 -17 331 -17 C441 -17 538 34 599 124 C648 195 677 291 677 378 C677 564 564 684 390 684 L390 684 Z M383 528 C437 528 469 490 469 424 C469 391 455 310 440 250 C420 175 385 138 333 138 C276 138 248 172 248 241 C248 288 262 372 278 426 C299 493 335 528 383 528 L383 528 Z M537 883 C507 837 476 818 430 818 C384 818 362 836 352 883 L268 883 C279 782 326 736 417 736 C468 736 517 753 554 784 C585 810 602 834 623 883 L537 883 Z " />
<glyph glyph-name="obreve" unicode="&#x14f;" horiz-adv-x="582" d="M311 505 C144 505 24 384 24 214 C24 144 44 93 90 51 C135 7 196 -15 267 -15 C434 -15 558 107 558 271 C558 413 461 505 311 505 L311 505 Z M306 387 C342 387 363 359 363 309 C363 267 354 208 341 169 C326 123 307 105 275 105 C238 105 217 133 217 182 C217 219 229 289 241 325 C255 367 276 387 306 387 L306 387 Z M444 728 C414 679 383 659 336 659 C291 659 269 678 258 728 L174 728 C186 625 233 577 324 577 C374 577 423 595 461 627 C492 653 508 677 530 728 L444 728 Z " />
<glyph glyph-name="Ohungarumlaut" unicode="&#x150;" horiz-adv-x="687" d="M390 684 C297 684 206 645 146 580 C80 507 39 395 39 283 C39 104 157 -17 331 -17 C441 -17 538 34 599 124 C648 195 677 291 677 378 C677 564 564 684 390 684 L390 684 Z M383 528 C437 528 469 490 469 424 C469 391 455 310 440 250 C420 175 385 138 333 138 C276 138 248 172 248 241 C248 288 262 372 278 426 C299 493 335 528 383 528 L383 528 Z M467 782 L500 727 L682 825 L638 903 L467 782 Z M264 782 L297 727 L479 825 L435 903 L264 782 Z " />
<glyph glyph-name="ohungarumlaut" unicode="&#x151;" horiz-adv-x="582" d="M311 505 C144 505 24 384 24 214 C24 144 44 93 90 51 C135 7 196 -15 267 -15 C434 -15 558 107 558 271 C558 413 461 505 311 505 L311 505 Z M306 387 C342 387 363 359 363 309 C363 267 354 208 341 169 C326 123 307 105 275 105 C238 105 217 133 217 182 C217 219 229 289 241 325 C255 367 276 387 306 387 L306 387 Z M372 622 L405 567 L584 672 L540 750 L372 622 Z M186 622 L219 567 L398 672 L353 750 L186 622 Z " />
<glyph glyph-name="OE" unicode="&#x152;" horiz-adv-x="944" d="M886 410 L638 410 L656 514 L951 514 L976 667 L507 667 C442 679 420 682 382 682 C270 682 182 637 119 548 C71 478 42 381 42 289 C42 177 80 94 157 38 C204 3 261 -15 320 -15 C351 -15 366 -12 395 0 L879 0 L904 150 L595 150 L614 265 L862 265 L886 410 Z M400 176 C393 152 371 140 335 140 C274 140 247 174 247 252 C247 314 266 410 289 461 C311 510 337 530 381 530 C421 530 446 513 451 483 L400 176 Z " />
<glyph glyph-name="oe" unicode="&#x153;" horiz-adv-x="844" d="M813 211 C818 240 819 254 819 272 C819 415 731 507 594 507 C532 507 488 494 439 459 C395 496 358 508 295 508 C138 508 24 384 24 214 C24 77 115 -13 254 -13 C310 -13 344 -2 398 33 C452 -3 484 -13 543 -13 C613 -13 665 4 716 45 C754 76 772 99 795 149 L640 176 C623 133 599 114 561 114 C520 114 494 141 494 183 C494 189 495 200 496 211 L813 211 Z M511 308 C528 372 550 396 591 396 C626 396 651 372 651 338 C651 332 649 320 647 308 L511 308 Z M294 388 C327 388 345 366 345 323 C345 291 337 231 327 192 C312 133 292 108 259 108 C223 108 205 132 205 178 C205 214 212 257 225 309 C241 367 259 388 294 388 L294 388 Z " />
<glyph glyph-name="Racute" unicode="&#x154;" horiz-adv-x="664" d="M512 279 C546 292 564 301 584 318 C627 355 652 411 652 473 C652 539 624 597 577 630 C540 655 490 667 419 667 L129 667 L17 0 L207 0 L249 253 L328 253 L387 0 L585 0 L512 279 Z M273 392 L295 527 L365 527 C425 527 456 506 456 464 C456 443 444 421 426 409 C408 396 389 392 348 392 L273 392 Z M279 794 L305 727 L538 801 L504 897 L279 794 Z " />
<glyph glyph-name="racute" unicode="&#x155;" horiz-adv-x="391" d="M93 493 L10 0 L197 0 L231 201 C247 296 281 331 359 331 C369 331 377 331 395 330 L417 506 C407 507 399 508 394 508 C322 508 277 470 237 375 L257 493 L93 493 Z M175 630 L201 567 L434 651 L400 743 L175 630 Z " />
<glyph glyph-name="Rcommaaccent" unicode="&#x156;" horiz-adv-x="664" d="M512 279 C546 292 564 301 584 318 C627 355 652 411 652 473 C652 539 624 597 577 630 C540 655 490 667 419 667 L129 667 L17 0 L207 0 L249 253 L328 253 L387 0 L585 0 L512 279 Z M273 392 L295 527 L365 527 C425 527 456 506 456 464 C456 443 444 421 426 409 C408 396 389 392 348 392 L273 392 Z M350 -57 L236 -57 L191 -258 L245 -258 L350 -57 Z " />
<glyph glyph-name="rcommaaccent" unicode="&#x157;" horiz-adv-x="391" d="M93 493 L10 0 L198 0 L231 201 C247 296 282 331 359 331 C370 331 378 331 396 330 L418 506 C408 507 399 508 395 508 C322 508 277 470 238 375 L258 493 L93 493 Z M155 -57 L46 -57 L1 -254 L53 -254 L155 -57 Z " />
<glyph glyph-name="Rcaron" unicode="&#x158;" horiz-adv-x="664" d="M512 279 C546 292 564 301 584 318 C627 355 652 411 652 473 C652 539 624 597 577 630 C540 655 490 667 419 667 L129 667 L17 0 L207 0 L249 253 L328 253 L387 0 L585 0 L512 279 Z M273 392 L295 527 L365 527 C425 527 456 506 456 464 C456 443 444 421 426 409 C408 396 389 392 348 392 L273 392 Z M195 873 L364 727 L583 873 L473 883 L380 825 L308 883 L195 873 Z " />
<glyph glyph-name="rcaron" unicode="&#x159;" horiz-adv-x="391" d="M93 493 L10 0 L197 0 L231 201 C247 296 281 331 359 331 C369 331 377 331 395 330 L417 506 C407 507 399 508 394 508 C322 508 277 470 237 375 L257 493 L93 493 Z M88 720 L256 567 L476 720 L366 730 L272 667 L201 730 L88 720 Z " />
<glyph glyph-name="Sacute" unicode="&#x15a;" horiz-adv-x="617" d="M624 512 C605 564 584 593 540 623 C487 660 422 678 340 678 C262 678 202 662 156 629 C103 591 71 528 71 460 C71 374 119 317 220 280 L351 232 C358 229 366 225 373 218 C380 211 384 202 384 193 C384 162 355 143 307 143 C240 143 203 164 183 213 L-9 176 C14 116 37 85 78 55 C138 12 215 -10 303 -10 C478 -10 597 84 597 222 C597 282 572 329 520 366 C485 390 485 390 347 439 C298 456 285 467 285 489 C285 516 310 533 350 533 C402 533 440 509 452 468 L624 512 Z M279 794 L305 727 L538 801 L505 897 L279 794 Z " />
<glyph glyph-name="sacute" unicode="&#x15b;" horiz-adv-x="523" d="M502 379 C486 419 468 440 427 464 C380 492 327 505 263 505 C125 505 36 437 36 332 C36 251 90 204 215 177 C293 160 296 159 304 153 C309 149 312 143 312 137 C312 119 286 106 248 106 C189 106 159 121 143 159 L-11 137 C3 87 20 63 57 38 C105 5 167 -11 245 -11 C318 -11 378 4 421 33 C465 63 492 114 492 165 C492 223 460 268 398 296 C377 306 332 317 263 331 C228 337 213 347 213 364 C213 383 233 394 267 394 C314 394 343 379 357 347 L502 379 Z M199 630 L225 567 L458 651 L424 743 L199 630 Z " />
<glyph glyph-name="Scircumflex" unicode="&#x15c;" horiz-adv-x="617" d="M624 512 C605 564 584 593 540 623 C487 660 422 678 340 678 C262 678 202 662 156 629 C103 591 71 528 71 460 C71 374 119 317 220 280 L351 232 C358 229 366 225 373 218 C380 211 384 202 384 193 C384 162 355 143 307 143 C240 143 203 164 183 213 L-9 176 C14 116 37 85 78 55 C138 12 215 -10 303 -10 C478 -10 597 84 597 222 C597 282 572 329 520 366 C485 390 485 390 347 439 C298 456 285 467 285 489 C285 516 310 533 350 533 C402 533 440 509 452 468 L624 512 Z M577 743 L408 890 L189 743 L299 733 L392 791 L464 733 L577 743 Z " />
<glyph glyph-name="scircumflex" unicode="&#x15d;" horiz-adv-x="523" d="M502 379 C486 419 468 440 427 464 C380 492 327 505 263 505 C125 505 36 437 36 332 C36 251 90 204 215 177 C293 160 296 159 304 153 C309 149 312 143 312 137 C312 119 286 106 248 106 C189 106 159 121 143 159 L-11 137 C3 87 20 63 57 38 C105 5 167 -11 245 -11 C318 -11 378 4 421 33 C465 63 492 114 492 165 C492 223 460 268 398 296 C377 306 332 317 263 331 C228 337 213 347 213 364 C213 383 233 394 267 394 C314 394 343 379 357 347 L502 379 Z M489 583 L321 737 L102 583 L211 573 L305 636 L377 573 L489 583 Z " />
<glyph glyph-name="Scedilla" unicode="&#x15e;" horiz-adv-x="617" d="M307 -10 C478 -10 597 85 597 222 C597 282 571 329 520 366 C484 391 484 391 347 439 C298 456 285 467 285 489 C285 516 310 533 350 533 C402 533 440 509 452 468 L624 512 C605 564 583 593 540 623 C487 660 422 678 340 678 C262 678 202 662 156 629 C103 591 71 528 71 460 C71 374 119 317 220 280 L351 232 C358 229 366 225 373 218 C380 211 384 202 384 193 C384 162 355 143 307 143 C240 143 203 164 183 213 L-9 176 C27 70 118 7 255 -8 L221 -89 C229 -88 235 -88 238 -88 C285 -88 310 -102 310 -128 C310 -150 294 -163 265 -163 C238 -163 213 -156 181 -139 L161 -180 C205 -205 237 -214 277 -214 C344 -214 388 -179 388 -127 C388 -80 356 -51 304 -51 L289 -51 L307 -10 Z " />
<glyph glyph-name="scedilla" unicode="&#x15f;" horiz-adv-x="523" d="M252 -11 C305 -9 341 -3 374 9 C447 36 492 95 492 165 C492 223 460 268 398 296 C377 306 332 317 263 331 C228 337 213 347 213 364 C213 383 233 394 267 394 C314 394 343 379 357 347 L502 378 C486 419 468 440 427 464 C380 492 327 505 263 505 C125 505 36 437 36 332 C36 251 90 204 215 177 C293 160 296 159 304 153 C309 149 312 143 312 137 C312 119 286 106 248 106 C189 106 159 121 143 159 L-11 136 C8 54 84 1 203 -9 L171 -85 L186 -84 C232 -84 255 -97 255 -122 C255 -144 240 -156 212 -156 C187 -156 163 -149 132 -133 L113 -173 C155 -196 185 -205 224 -205 C288 -205 330 -172 330 -121 C330 -76 300 -49 250 -49 L235 -49 L252 -11 Z " />
<glyph glyph-name="Scaron" unicode="&#x160;" horiz-adv-x="617" d="M624 512 C605 564 584 593 540 623 C487 660 422 678 340 678 C262 678 202 662 156 629 C103 591 71 528 71 460 C71 374 119 317 220 280 L351 232 C358 229 366 225 373 218 C380 211 384 202 384 193 C384 162 355 143 307 143 C240 143 203 164 183 213 L-9 176 C14 116 37 85 78 55 C138 12 215 -10 303 -10 C478 -10 597 84 597 222 C597 282 572 329 520 366 C485 390 485 390 347 439 C298 456 285 467 285 489 C285 516 310 533 350 533 C402 533 440 509 452 468 L624 512 Z M207 873 L376 727 L595 873 L485 883 L392 825 L320 883 L207 873 Z " />
<glyph glyph-name="scaron" unicode="&#x161;" horiz-adv-x="523" d="M502 379 C486 419 468 440 427 464 C380 492 327 505 263 505 C125 505 36 437 36 332 C36 251 90 204 215 177 C293 160 296 159 304 153 C309 149 312 143 312 137 C312 119 286 106 248 106 C189 106 159 121 143 159 L-11 137 C3 87 20 63 57 38 C105 5 167 -11 245 -11 C318 -11 378 4 421 33 C465 63 492 114 492 165 C492 223 460 268 398 296 C377 306 332 317 263 331 C228 337 213 347 213 364 C213 383 233 394 267 394 C314 394 343 379 357 347 L502 379 Z M126 720 L294 567 L514 720 L404 730 L310 667 L239 730 L126 720 Z " />
<glyph glyph-name="Tcommaaccent" unicode="&#x162;" horiz-adv-x="501" d="M392 516 L539 516 L564 669 L82 669 L56 516 L199 516 L112 0 L306 0 L392 516 Z M261 -57 L148 -57 L102 -258 L156 -258 L261 -57 Z " />
<glyph glyph-name="tcommaaccent" unicode="&#x163;" horiz-adv-x="361" d="M380 493 L290 493 L315 642 L156 628 L123 493 L42 493 L21 370 L89 370 L59 192 C52 150 50 132 50 118 C50 84 59 58 78 35 C105 2 141 -11 205 -11 C240 -11 263 -8 306 0 L328 128 C306 124 296 123 282 123 C253 123 236 136 236 159 C236 166 237 175 240 192 L270 370 L359 370 L380 493 Z M221 -57 L112 -57 L67 -254 L119 -254 L221 -57 Z " />
<glyph glyph-name="Tcaron" unicode="&#x164;" horiz-adv-x="501" d="M392 516 L539 516 L564 669 L82 669 L56 516 L199 516 L112 0 L306 0 L392 516 Z M159 873 L328 727 L547 873 L438 883 L344 825 L272 883 L159 873 Z " />
<glyph glyph-name="tcaron" unicode="&#x165;" horiz-adv-x="440" d="M380 493 L290 493 L315 642 L156 628 L123 493 L42 493 L21 370 L89 370 L59 192 C52 150 50 132 50 118 C50 84 59 58 78 35 C105 2 141 -11 205 -11 C240 -11 263 -8 306 0 L328 128 C306 124 296 123 282 123 C253 123 236 136 236 159 C236 166 237 175 240 192 L270 370 L359 370 L380 493 Z M507 747 L398 747 L352 545 L404 545 L507 747 Z " />
<glyph glyph-name="Tbar" unicode="&#x166;" horiz-adv-x="501" d="M488 419 L376 419 L392 516 L539 516 L564 669 L82 669 L56 516 L199 516 L183 419 L74 419 L59 327 L167 327 L112 0 L306 0 L361 327 L473 327 L488 419 Z " />
<glyph glyph-name="tbar" unicode="&#x167;" horiz-adv-x="361" d="M345 309 L259 309 L269 370 L359 370 L379 493 L290 493 L315 642 L156 628 L123 493 L41 493 L21 370 L89 370 L78 309 L14 309 L1 232 L66 232 L59 192 C52 154 50 133 50 118 C50 84 59 58 78 35 C105 2 141 -11 204 -11 C239 -11 263 -8 306 0 L328 128 C306 124 296 123 281 123 C252 123 235 136 235 159 C235 164 235 164 240 192 L246 232 L332 232 L345 309 Z " />
<glyph glyph-name="Utilde" unicode="&#x168;" horiz-adv-x="644" d="M663 667 L504 667 L434 250 C427 207 421 188 410 173 C395 153 366 141 335 141 C286 141 251 168 251 207 C251 218 253 237 256 257 L325 667 L122 667 L53 257 C49 234 47 208 47 185 C47 61 138 -10 298 -10 C393 -10 474 18 523 70 C560 110 577 152 594 257 L663 667 Z M558 856 C526 827 509 818 487 818 C471 818 467 819 428 839 C402 852 381 858 362 858 C325 858 290 839 248 796 L296 739 C320 766 339 777 362 777 C373 777 386 774 397 768 C453 739 460 737 488 737 C528 737 565 756 607 799 L558 856 Z " />
<glyph glyph-name="utilde" unicode="&#x169;" horiz-adv-x="585" d="M574 493 L387 493 L346 249 C332 167 304 126 262 126 C239 126 228 138 228 162 C228 172 229 178 234 211 L282 493 L92 493 L41 185 C35 150 31 118 31 104 C31 36 87 -13 165 -13 C237 -13 285 17 330 92 L314 0 L492 0 L574 493 Z M488 700 C456 671 439 661 417 661 C400 661 397 662 358 682 C333 695 310 702 292 702 C255 702 221 683 178 640 L226 582 C250 610 269 621 292 621 C303 621 316 618 327 612 C383 582 390 580 418 580 C458 580 495 599 537 643 L488 700 Z " />
<glyph glyph-name="Umacron" unicode="&#x16a;" horiz-adv-x="644" d="M663 667 L504 667 L434 250 C427 207 421 188 410 173 C395 153 366 141 335 141 C286 141 251 168 251 207 C251 218 253 237 256 257 L325 667 L122 667 L53 257 C49 234 47 208 47 185 C47 61 138 -10 298 -10 C393 -10 474 18 523 70 C560 110 577 152 594 257 L663 667 Z M573 753 L587 833 L250 833 L237 753 L573 753 Z " />
<glyph glyph-name="umacron" unicode="&#x16b;" horiz-adv-x="585" d="M574 493 L387 493 L346 249 C332 167 304 126 262 126 C239 126 228 138 228 162 C228 172 229 178 234 211 L282 493 L92 493 L41 185 C35 150 31 118 31 104 C31 36 87 -13 165 -13 C237 -13 285 17 330 92 L314 0 L492 0 L574 493 Z M508 590 L521 667 L197 667 L185 590 L508 590 Z " />
<glyph glyph-name="Ubreve" unicode="&#x16c;" horiz-adv-x="644" d="M663 667 L504 667 L434 250 C427 207 421 188 410 173 C395 153 366 141 335 141 C286 141 251 168 251 207 C251 218 253 237 256 257 L325 667 L122 667 L53 257 C49 234 47 208 47 185 C47 61 138 -10 298 -10 C393 -10 474 18 523 70 C560 110 577 152 594 257 L663 667 Z M535 883 C505 837 474 818 428 818 C382 818 360 836 349 883 L265 883 C277 782 324 736 415 736 C466 736 514 753 552 784 C583 810 599 834 621 883 L535 883 Z " />
<glyph glyph-name="ubreve" unicode="&#x16d;" horiz-adv-x="585" d="M574 493 L387 493 L346 249 C332 167 304 126 262 126 C239 126 228 138 228 162 C228 172 229 178 234 211 L282 493 L92 493 L41 185 C35 150 31 118 31 104 C31 36 87 -13 165 -13 C237 -13 285 17 330 92 L314 0 L492 0 L574 493 Z M464 728 C434 679 403 659 357 659 C311 659 289 678 278 728 L194 728 C206 625 253 577 344 577 C395 577 443 595 481 627 C512 653 528 677 550 728 L464 728 Z " />
<glyph glyph-name="Uring" unicode="&#x16e;" horiz-adv-x="644" d="M663 667 L504 667 L434 250 C427 207 421 188 410 173 C395 153 366 141 335 141 C286 141 251 168 251 207 C251 218 253 237 256 257 L325 667 L122 667 L53 257 C49 234 47 208 47 185 C47 61 138 -10 298 -10 C393 -10 474 18 523 70 C560 110 577 152 594 257 L663 667 Z M418 917 C363 917 318 872 318 817 C318 762 363 717 416 717 C473 717 517 761 517 817 C517 873 473 917 418 917 L418 917 Z M418 850 C437 850 453 835 453 816 C453 798 437 783 418 783 C399 783 383 798 383 817 C383 835 399 850 418 850 L418 850 Z " />
<glyph glyph-name="uring" unicode="&#x16f;" horiz-adv-x="585" d="M574 493 L387 493 L346 249 C332 167 304 126 262 126 C239 126 228 138 228 162 C228 172 229 178 234 211 L282 493 L92 493 L41 185 C35 150 31 118 31 104 C31 36 87 -13 165 -13 C237 -13 285 17 330 92 L314 0 L492 0 L574 493 Z M355 762 C301 762 256 717 256 663 C256 608 300 563 354 563 C410 563 454 607 454 663 C454 717 410 762 355 762 L355 762 Z M356 697 C375 697 391 682 391 663 C391 643 375 628 356 628 C337 628 321 644 321 662 C321 682 337 697 356 697 L356 697 Z " />
<glyph glyph-name="Uhungarumlaut" unicode="&#x170;" horiz-adv-x="644" d="M663 667 L504 667 L434 250 C427 207 421 188 410 173 C395 153 366 141 335 141 C286 141 251 168 251 207 C251 218 253 237 256 257 L325 667 L122 667 L53 257 C49 234 47 208 47 185 C47 61 138 -10 298 -10 C393 -10 474 18 523 70 C560 110 577 152 594 257 L663 667 Z M444 782 L477 727 L659 825 L615 903 L444 782 Z M241 782 L274 727 L456 825 L412 903 L241 782 Z " />
<glyph glyph-name="uhungarumlaut" unicode="&#x171;" horiz-adv-x="585" d="M574 493 L387 493 L346 249 C332 167 304 126 262 126 C239 126 228 138 228 162 C228 172 229 178 234 211 L282 493 L92 493 L41 185 C35 150 31 118 31 104 C31 36 87 -13 165 -13 C237 -13 285 17 330 92 L314 0 L492 0 L574 493 Z M379 622 L412 567 L591 672 L546 750 L379 622 Z M193 622 L226 567 L404 672 L360 750 L193 622 Z " />
<glyph glyph-name="Uogonek" unicode="&#x172;" horiz-adv-x="644" d="M498 -112 C474 -121 458 -124 442 -124 C413 -124 396 -109 396 -83 C396 -49 417 -20 477 29 C555 91 571 122 594 257 L663 667 L504 667 L434 250 C427 207 421 188 410 173 C395 153 366 141 335 141 C286 141 251 168 251 207 C251 218 253 237 256 257 L325 667 L122 667 L53 257 C49 234 47 208 47 185 C47 121 66 79 110 44 C152 10 220 -10 297 -10 C327 -10 352 -7 383 -1 C363 -12 356 -16 347 -23 C320 -42 305 -68 305 -98 C305 -148 344 -177 411 -177 C443 -177 471 -171 508 -156 L498 -112 Z " />
<glyph glyph-name="uogonek" unicode="&#x173;" horiz-adv-x="585" d="M574 493 L387 493 L346 249 C332 167 304 126 262 126 C239 126 228 138 228 162 C228 172 229 178 234 211 L282 493 L92 493 L41 185 C35 150 31 118 31 104 C31 36 87 -13 165 -13 C237 -13 285 17 330 92 L314 0 L422 0 C359 -28 332 -59 332 -101 C332 -149 369 -177 434 -177 C465 -177 492 -171 528 -157 L518 -114 C494 -123 479 -126 464 -126 C435 -126 419 -111 419 -84 C419 -52 436 -33 492 0 L574 493 Z " />
<glyph glyph-name="Wcircumflex" unicode="&#x174;" horiz-adv-x="886" d="M946 667 L792 667 L679 379 C673 364 667 350 661 336 L656 320 C653 312 647 295 638 268 C637 279 637 290 637 291 L635 325 L631 365 L608 667 L447 667 L315 345 C308 328 304 317 302 313 C300 308 297 298 292 283 L288 268 C287 278 286 285 286 288 L283 328 L279 365 L255 667 L69 667 L144 0 L307 0 L419 277 C430 305 446 346 466 400 L496 0 L671 0 L946 667 Z M722 743 L552 890 L334 743 L443 733 L537 791 L609 733 L722 743 Z " />
<glyph glyph-name="wcircumflex" unicode="&#x175;" horiz-adv-x="725" d="M760 493 L629 493 L520 244 L496 493 L353 493 L248 244 L218 493 L35 493 L117 0 L251 0 L367 283 L394 0 L533 0 L760 493 Z M619 583 L451 737 L231 583 L341 573 L435 636 L506 573 L619 583 Z " />
<glyph glyph-name="Ycircumflex" unicode="&#x176;" horiz-adv-x="585" d="M671 667 L490 667 L371 489 C367 483 359 471 349 454 L338 437 C329 465 329 466 320 489 L253 667 L42 667 L199 298 L149 0 L348 0 L396 289 L671 667 Z M567 743 L398 890 L179 743 L289 733 L382 791 L454 733 L567 743 Z " />
<glyph glyph-name="ycircumflex" unicode="&#x177;" horiz-adv-x="485" d="M530 493 L396 493 L299 284 C295 276 291 267 291 267 L282 245 C281 243 279 238 276 231 C272 253 270 267 268 275 C267 281 265 288 263 294 L221 493 L25 493 L144 30 C147 18 149 5 149 -2 C149 -29 125 -42 74 -42 C54 -42 30 -40 -18 -36 L-19 -168 C15 -174 32 -176 59 -176 C178 -176 234 -136 295 -7 L530 493 Z M486 583 L318 737 L98 583 L208 573 L302 636 L373 573 L486 583 Z " />
<glyph glyph-name="Ydieresis" unicode="&#x178;" horiz-adv-x="585" d="M671 667 L490 667 L371 489 C367 483 359 471 349 454 L338 437 C329 465 329 466 320 489 L253 667 L42 667 L199 298 L149 0 L348 0 L396 289 L671 667 Z M462 867 C427 867 398 838 398 803 C398 767 427 738 463 738 C498 738 527 767 527 802 C527 838 499 867 462 867 L462 867 Z M283 867 C248 867 219 838 219 803 C219 767 248 738 284 738 C319 738 348 767 348 801 C348 838 320 867 283 867 L283 867 Z " />
<glyph glyph-name="Zacute" unicode="&#x179;" horiz-adv-x="578" d="M544 148 L238 148 C246 158 254 167 257 170 C269 184 282 199 295 213 L336 258 L593 540 L615 667 L103 667 L79 522 L238 522 L276 522 L321 522 L345 522 L-2 137 L-25 0 L520 0 L544 148 Z M277 794 L302 727 L536 801 L502 897 L277 794 Z " />
<glyph glyph-name="zacute" unicode="&#x17a;" horiz-adv-x="475" d="M437 123 L225 123 L483 397 L499 493 L74 493 L54 373 L238 373 L-6 111 L-25 0 L416 0 L437 123 Z M208 630 L233 567 L467 651 L433 743 L208 630 Z " />
<glyph glyph-name="Zdotaccent" unicode="&#x17b;" horiz-adv-x="578" d="M544 148 L238 148 C246 158 254 167 257 170 C269 184 282 199 295 213 L336 258 L593 540 L615 667 L103 667 L79 522 L238 522 L276 522 L321 522 L345 522 L-2 137 L-25 0 L520 0 L544 148 Z M374 870 C337 870 306 840 306 804 C306 767 337 737 375 737 C412 737 443 767 443 802 C443 840 413 870 374 870 L374 870 Z " />
<glyph glyph-name="zdotaccent" unicode="&#x17c;" horiz-adv-x="475" d="M437 123 L225 123 L483 397 L499 493 L74 493 L54 373 L238 373 L-6 111 L-25 0 L416 0 L437 123 Z M303 713 C267 713 237 683 237 647 C237 610 267 580 304 580 C340 580 370 610 370 646 C370 683 341 713 303 713 L303 713 Z " />
<glyph glyph-name="Zcaron" unicode="&#x17d;" horiz-adv-x="578" d="M544 148 L238 148 C246 158 254 167 257 170 C269 184 282 199 295 213 L336 258 L593 540 L615 667 L103 667 L79 522 L238 522 L276 522 L321 522 L345 522 L-2 137 L-25 0 L520 0 L544 148 Z M199 873 L368 727 L587 873 L477 883 L384 825 L312 883 L199 873 Z " />
<glyph glyph-name="zcaron" unicode="&#x17e;" horiz-adv-x="475" d="M437 123 L225 123 L483 397 L499 493 L74 493 L54 373 L238 373 L-6 111 L-25 0 L416 0 L437 123 Z M130 720 L298 567 L518 720 L408 730 L314 667 L243 730 L130 720 Z " />
<glyph glyph-name="uni018F" unicode="&#x18f;" horiz-adv-x="691" d="M57 363 C55 354 55 352 54 346 C47 310 45 295 45 266 C45 199 62 137 93 88 C134 23 205 -10 304 -10 C421 -10 521 39 591 130 C648 206 682 307 682 405 C682 473 666 532 633 580 C590 645 519 677 421 677 C298 677 194 628 130 540 C106 507 100 494 78 427 L262 417 C274 451 277 457 285 469 C310 507 346 527 391 527 C455 527 485 492 485 417 C485 406 484 383 482 363 L57 363 Z M441 215 C410 160 381 140 330 140 C278 140 258 158 246 215 L441 215 Z " />
<glyph glyph-name="florin" unicode="&#x192;" horiz-adv-x="587" d="M180 521 L141 392 L216 392 L124 94 C98 9 70 -19 11 -19 C-9 -19 -23 -17 -51 -10 L-100 -131 C-56 -146 -17 -152 45 -152 C117 -152 167 -134 207 -95 C238 -63 264 -17 281 37 L389 392 L511 392 L552 521 L422 521 C440 580 468 602 524 602 C547 602 563 599 595 590 L630 705 C594 718 569 722 516 722 C430 722 376 706 332 668 C299 640 286 615 253 521 L180 521 Z " />
<glyph glyph-name="uni01C4" unicode="&#x1c4;" horiz-adv-x="513" d="M213 497 L397 497 L425 667 L242 667 L213 497 Z M227 455 C221 420 208 406 143 367 C50 312 13 258 13 178 C13 116 39 62 85 31 C127 2 184 -15 242 -15 C315 -15 378 10 424 57 C456 90 473 121 493 186 L340 219 C330 153 304 120 261 120 C229 120 205 144 205 177 C205 215 222 238 289 293 C350 342 382 399 380 455 L227 455 Z " />
<glyph glyph-name="uni01C5" unicode="&#x1c5;" horiz-adv-x="424" d="M467 667 L374 667 L-16 0 L79 0 L467 667 Z " />
<glyph glyph-name="uni01C6" unicode="&#x1c6;" horiz-adv-x="315" d="M250 667 C214 640 177 602 130 541 C73 467 39 372 39 288 C39 200 76 93 138 0 L247 0 C207 76 188 154 188 236 C188 400 245 543 359 667 L250 667 Z " />
<glyph glyph-name="uni01C7" unicode="&#x1c7;" horiz-adv-x="316" d="M74 0 C110 27 148 66 194 126 C252 200 286 295 286 379 C286 466 248 575 186 667 L77 667 C116 592 136 514 136 431 C136 266 80 125 -35 0 L74 0 Z " />
<glyph glyph-name="uni01C8" unicode="&#x1c8;" horiz-adv-x="336" d="M262 67 L150 67 L239 600 L351 600 L363 667 L131 667 L19 0 L251 0 L262 67 Z " />
<glyph glyph-name="uni01C9" unicode="&#x1c9;" horiz-adv-x="335" d="M102 600 L214 600 L125 67 L13 67 L2 0 L234 0 L346 667 L114 667 L102 600 Z " />
<glyph glyph-name="uni01CA" unicode="&#x1ca;" horiz-adv-x="486" d="M10 113 C27 85 34 75 49 60 C94 15 161 -11 231 -11 C352 -11 438 62 438 162 C438 205 429 224 396 252 C438 284 460 324 460 367 C460 403 447 432 423 451 C403 467 403 467 325 502 C250 537 249 538 249 556 C249 577 271 591 303 591 C332 591 351 579 366 551 L482 575 C444 646 385 678 293 678 C180 678 103 620 103 534 C103 505 110 484 130 457 C81 410 62 374 62 326 C62 264 92 239 246 173 C278 159 290 147 290 127 C290 101 266 85 228 85 C191 85 177 93 144 135 L10 113 Z M239 324 C226 329 216 335 209 342 C204 346 201 353 201 360 C201 375 210 390 231 408 C241 403 241 403 261 394 C305 373 305 373 317 363 C324 357 328 349 328 341 C328 326 320 314 298 297 L239 324 Z " />
<glyph glyph-name="uni01CB" unicode="&#x1cb;" horiz-adv-x="583" d="M272 667 L245 506 L80 506 L56 360 L221 360 L160 0 L340 0 L401 360 L565 360 L590 506 L425 506 L452 667 L272 667 Z " />
<glyph glyph-name="uni01CC" unicode="&#x1cc;" horiz-adv-x="583" d="M452 667 L272 667 L250 539 L86 539 L61 393 L226 393 L207 280 L42 280 L18 134 L183 134 L160 0 L340 0 L363 134 L527 134 L552 280 L387 280 L406 393 L570 393 L595 539 L430 539 L452 667 Z " />
<glyph glyph-name="uni01CD" unicode="&#x1cd;" horiz-adv-x="630" d="M373 136 L391 0 L588 0 L484 667 L275 667 L-33 0 L132 0 L194 136 L373 136 Z M361 274 L246 274 L334 467 L361 274 Z M215 873 L384 727 L603 873 L494 883 L400 825 L328 883 L215 873 Z " />
<glyph glyph-name="uni01CE" unicode="&#x1ce;" horiz-adv-x="594" d="M515 0 C512 18 511 27 511 38 C511 68 511 68 531 181 C558 344 559 350 559 369 C559 454 473 506 332 506 C249 506 186 490 137 457 C105 436 87 414 65 369 L226 337 C246 375 270 391 308 391 C343 391 365 376 365 351 C365 344 363 337 359 323 C350 322 328 320 293 317 C217 310 198 307 157 297 C60 274 5 213 5 131 C5 48 70 -11 162 -11 C232 -11 280 16 324 81 C322 61 321 38 321 24 C321 16 321 12 323 0 L515 0 Z M341 234 C336 192 333 177 325 158 C312 129 280 107 251 107 C224 107 207 123 207 148 C207 176 221 198 247 212 C269 224 284 228 341 234 L341 234 Z M191 720 L359 567 L579 720 L470 730 L375 667 L304 730 L191 720 Z " />
<glyph glyph-name="uni01D1" unicode="&#x1d1;" horiz-adv-x="316" d="M13 0 L240 0 L250 444 L137 444 L13 0 Z M104 490 L294 490 L323 667 L134 667 L104 490 Z " />
<glyph glyph-name="uni01D2" unicode="&#x1d2;" horiz-adv-x="582" d="M311 505 C144 505 24 384 24 214 C24 144 44 93 90 51 C135 7 196 -15 267 -15 C434 -15 558 107 558 271 C558 413 461 505 311 505 L311 505 Z M306 387 C342 387 363 359 363 309 C363 267 354 208 341 169 C326 123 307 105 275 105 C238 105 217 133 217 182 C217 219 229 289 241 325 C255 367 276 387 306 387 L306 387 Z M149 720 L316 567 L536 720 L427 730 L333 667 L261 730 L149 720 Z " />
<glyph glyph-name="uni01D3" unicode="&#x1d3;" horiz-adv-x="644" d="M663 667 L504 667 L434 250 C427 207 421 188 410 173 C395 153 366 141 335 141 C286 141 251 168 251 207 C251 218 253 237 256 257 L325 667 L122 667 L53 257 C49 234 47 208 47 185 C47 61 138 -10 298 -10 C393 -10 474 18 523 70 C560 110 577 152 594 257 L663 667 Z M239 873 L408 727 L627 873 L518 883 L424 825 L352 883 L239 873 Z " />
<glyph glyph-name="uni01D4" unicode="&#x1d4;" horiz-adv-x="585" d="M574 493 L387 493 L346 249 C332 167 304 126 262 126 C239 126 228 138 228 162 C228 172 229 178 234 211 L282 493 L92 493 L41 185 C35 150 31 118 31 104 C31 36 87 -13 165 -13 C237 -13 285 17 330 92 L314 0 L492 0 L574 493 Z M177 720 L345 567 L565 720 L455 730 L361 667 L290 730 L177 720 Z " />
<glyph glyph-name="uni01DD" unicode="&#x1dd;" horiz-adv-x="587" d="M220 317 C238 362 261 378 305 378 C346 378 369 358 369 323 C369 314 368 305 365 286 L33 286 C25 247 23 226 23 200 C23 70 109 -10 247 -10 C342 -10 429 27 486 93 C536 151 567 227 567 296 C567 424 475 503 328 503 C192 503 85 439 40 329 L220 317 Z M349 188 C340 130 312 103 264 103 C227 103 208 121 208 157 C208 166 209 173 211 188 L349 188 Z " />
<glyph glyph-name="Gcaron" unicode="&#x1e6;" horiz-adv-x="681" d="M357 365 L333 224 L442 224 C418 165 390 142 340 142 C280 142 248 182 248 257 C248 302 256 358 270 407 C293 488 330 527 385 527 C438 527 470 499 485 438 L668 468 C646 541 628 574 590 610 C541 658 470 683 387 683 C282 683 198 643 132 560 C73 488 38 380 38 273 C38 102 144 -13 303 -13 C391 -13 442 11 487 73 L493 0 L590 0 L651 365 L357 365 Z M245 873 L414 727 L633 873 L524 883 L430 825 L358 883 L245 873 Z " />
<glyph glyph-name="gcaron" unicode="&#x1e7;" horiz-adv-x="555" d="M575 633 C550 635 539 636 524 636 C480 636 450 627 424 605 C396 581 385 556 373 498 C342 504 327 505 297 505 C224 505 167 494 127 472 C81 446 50 395 50 345 C50 297 72 262 118 236 C38 212 -2 173 -2 119 C-2 86 11 65 46 40 C-19 14 -42 -11 -42 -53 C-42 -135 43 -174 223 -174 C311 -174 371 -164 420 -141 C475 -116 512 -59 512 -1 C512 76 450 129 355 132 L206 136 C195 137 185 140 176 145 C171 149 167 157 167 165 C167 185 185 200 207 200 C215 200 228 199 245 198 C258 196 268 196 291 196 C375 196 424 208 463 239 C499 266 521 310 521 356 C521 408 503 437 446 474 C462 502 482 513 518 513 C530 513 541 512 563 510 L575 633 Z M141 0 C165 -3 165 -3 257 -8 C329 -11 329 -11 338 -16 C345 -20 349 -26 349 -34 C349 -61 318 -71 237 -71 C154 -71 113 -59 113 -34 C113 -22 119 -14 141 0 L141 0 Z M295 410 C329 410 349 390 349 356 C349 315 321 285 282 285 C249 285 228 304 228 335 C228 380 255 410 295 410 L295 410 Z M134 733 L295 580 L508 733 L399 743 L311 681 L247 743 L134 733 Z " />
<glyph glyph-name="uni01F4" unicode="&#x1f4;" horiz-adv-x="681" d="M357 365 L333 224 L442 224 C418 165 390 142 340 142 C280 142 248 182 248 257 C248 302 256 358 270 407 C293 488 330 527 385 527 C438 527 470 499 485 438 L668 468 C646 541 628 574 590 610 C541 658 470 683 387 683 C282 683 198 643 132 560 C73 488 38 380 38 273 C38 102 144 -13 303 -13 C391 -13 442 11 487 73 L493 0 L590 0 L651 365 L357 365 Z M325 794 L351 727 L584 801 L550 897 L325 794 Z " />
<glyph glyph-name="uni01F5" unicode="&#x1f5;" horiz-adv-x="555" d="M575 633 C550 635 539 636 524 636 C480 636 450 627 424 605 C396 581 385 556 373 498 C342 504 327 505 297 505 C224 505 167 494 127 472 C81 446 50 395 50 345 C50 297 72 262 118 236 C38 212 -2 173 -2 119 C-2 86 11 65 46 40 C-19 14 -42 -11 -42 -53 C-42 -135 43 -174 223 -174 C311 -174 371 -164 420 -141 C475 -116 512 -59 512 -1 C512 76 450 129 355 132 L206 136 C195 137 185 140 176 145 C171 149 167 157 167 165 C167 185 185 200 207 200 C215 200 228 199 245 198 C258 196 268 196 291 196 C375 196 424 208 463 239 C499 266 521 310 521 356 C521 408 503 437 446 474 C462 502 482 513 518 513 C530 513 541 512 563 510 L575 633 Z M141 0 C165 -3 165 -3 257 -8 C329 -11 329 -11 338 -16 C345 -20 349 -26 349 -34 C349 -61 318 -71 237 -71 C154 -71 113 -59 113 -34 C113 -22 119 -14 141 0 L141 0 Z M295 410 C329 410 349 390 349 356 C349 315 321 285 282 285 C249 285 228 304 228 335 C228 380 255 410 295 410 L295 410 Z M199 630 L225 567 L458 651 L424 743 L199 630 Z " />
<glyph glyph-name="Aringacute" unicode="&#x1fa;" horiz-adv-x="630" d="M-33 0 L132 0 L194 136 L373 136 L391 0 L588 0 L486 657 C495 675 499 693 499 712 C499 779 446 832 380 832 C314 832 260 778 260 711 C260 693 264 678 272 660 L-33 0 Z M361 274 L246 274 L343 506 L361 274 Z M379 771 C408 771 431 746 431 715 C431 685 408 660 379 660 C351 660 328 685 328 716 C328 746 351 771 379 771 L379 771 Z M227 886 L253 819 L486 893 L452 989 L227 886 Z " />
<glyph glyph-name="aringacute" unicode="&#x1fb;" horiz-adv-x="594" d="M515 0 C512 18 511 27 511 38 C511 68 511 68 531 181 C558 344 559 350 559 369 C559 454 473 506 332 506 C249 506 186 490 137 457 C105 436 87 414 65 369 L226 337 C246 375 270 391 308 391 C343 391 365 376 365 351 C365 344 363 337 359 323 C350 322 328 320 293 317 C217 310 198 307 157 297 C60 274 5 213 5 131 C5 48 70 -11 162 -11 C232 -11 280 16 324 81 C322 61 321 38 321 24 C321 16 321 12 323 0 L515 0 Z M341 234 C336 192 333 177 325 158 C312 129 280 107 251 107 C224 107 207 123 207 148 C207 176 221 198 247 212 C269 224 284 228 341 234 L341 234 Z M366 736 C312 736 267 691 267 637 C267 582 311 537 365 537 C421 537 465 581 465 637 C465 691 421 736 366 736 L366 736 Z M367 671 C386 671 402 656 402 637 C402 617 386 602 367 602 C348 602 332 618 332 636 C332 656 348 671 367 671 L367 671 Z M236 804 L261 740 L495 825 L461 917 L236 804 Z " />
<glyph glyph-name="AEacute" unicode="&#x1fc;" horiz-adv-x="891" d="M852 153 L561 153 L580 269 L815 269 L840 415 L605 415 L622 520 L901 520 L925 667 L366 667 L-55 0 L116 0 L209 153 L373 153 L347 0 L826 0 L852 153 Z M396 289 L290 289 L434 520 L396 289 Z M550 794 L575 727 L809 801 L775 897 L550 794 Z " />
<glyph glyph-name="aeacute" unicode="&#x1fd;" horiz-adv-x="795" d="M599 178 C589 138 559 114 520 114 C483 114 458 143 458 186 C458 191 459 203 461 213 L764 213 C768 238 770 251 770 267 C770 413 687 508 560 508 C512 508 473 498 428 475 C384 498 358 504 301 504 C177 504 105 463 65 369 L206 336 C225 374 246 390 279 390 C311 390 330 375 330 348 C330 340 329 334 325 322 C306 320 306 320 279 318 C213 313 202 311 164 302 C58 275 5 217 5 126 C5 38 61 -15 155 -15 C222 -15 264 6 330 70 C378 12 431 -13 508 -13 C571 -13 627 7 673 46 C707 75 723 99 746 150 L599 178 Z M475 308 C489 369 513 397 552 397 C587 397 609 373 609 335 C609 330 608 318 606 308 L475 308 Z M308 232 C303 191 299 173 287 149 C274 122 249 104 225 104 C200 104 186 119 186 145 C186 198 234 232 308 232 L308 232 Z M335 630 L361 567 L594 651 L561 743 L335 630 Z " />
<glyph glyph-name="Oslashacute" unicode="&#x1fe;" horiz-adv-x="687" d="M682 723 L577 723 L524 657 C469 678 438 684 392 684 C300 684 220 653 159 593 C86 521 40 402 40 287 C40 203 60 143 107 79 L17 -51 L123 -51 L176 23 C228 -5 273 -17 334 -17 C425 -17 507 18 567 83 C637 157 678 269 678 382 C678 478 653 545 595 605 L682 723 Z M467 459 C469 444 470 436 470 427 C470 390 455 300 440 248 C418 169 387 138 332 138 C309 138 295 143 277 158 L467 459 Z M249 248 C252 300 261 361 273 404 C295 490 331 529 385 529 C397 529 405 527 421 521 L249 248 Z M304 794 L330 727 L563 801 L529 897 L304 794 Z " />
<glyph glyph-name="oslashacute" unicode="&#x1ff;" horiz-adv-x="582" d="M564 543 L468 543 L422 485 C377 500 352 505 312 505 C145 505 25 384 25 215 C25 144 42 101 89 52 L15 -45 L113 -45 L154 8 C198 -10 222 -15 266 -15 C435 -15 558 107 558 274 C558 346 538 395 488 445 L564 543 Z M306 387 C342 387 363 359 363 311 C363 273 354 213 343 176 C328 126 308 105 275 105 C239 105 218 134 218 183 C218 218 230 289 242 326 C256 368 276 387 306 387 L306 387 Z M212 630 L237 567 L471 651 L437 743 L212 630 Z " />
<glyph glyph-name="uni0200" unicode="&#x200;" horiz-adv-x="547" d="M286 674 L284 529 L187 637 L114 548 L239 474 L97 444 L137 337 L264 408 L218 270 L332 251 L334 396 L430 288 L503 376 L379 451 L521 480 L481 588 L354 517 L399 655 L286 674 Z " />
<glyph glyph-name="uni0201" unicode="&#x201;" horiz-adv-x="360" d="M275 532 C286 592 295 598 365 598 C369 598 377 598 386 597 L397 665 C325 667 323 667 307 667 C197 667 149 630 132 530 L104 362 C92 313 78 298 37 290 L27 229 C57 224 71 208 71 180 C71 171 70 158 68 148 L40 -20 C37 -38 36 -49 36 -60 C36 -130 73 -157 168 -157 C176 -157 207 -156 260 -155 L272 -85 L251 -85 C196 -85 179 -78 179 -54 C179 -47 179 -42 183 -20 L209 135 C212 150 213 164 213 176 C213 214 203 232 169 255 C220 283 236 308 249 375 L275 532 Z " />
<glyph glyph-name="Scommaaccent" unicode="&#x218;" horiz-adv-x="617" d="M624 512 C605 564 584 593 540 623 C487 660 422 678 340 678 C262 678 202 662 156 629 C103 591 71 528 71 460 C71 374 119 317 220 280 L351 232 C358 229 366 225 373 218 C380 211 384 202 384 193 C384 162 355 143 307 143 C240 143 203 164 183 213 L-9 176 C14 116 37 85 78 55 C138 12 215 -10 303 -10 C478 -10 597 84 597 222 C597 282 572 329 520 366 C485 390 485 390 347 439 C298 456 285 467 285 489 C285 516 310 533 350 533 C402 533 440 509 452 468 L624 512 Z M351 -57 L238 -57 L192 -258 L246 -258 L351 -57 Z " />
<glyph glyph-name="scommaaccent" unicode="&#x219;" horiz-adv-x="523" d="M502 379 C486 419 468 440 427 464 C380 492 327 505 263 505 C125 505 36 437 36 332 C36 251 90 204 215 177 C293 160 296 159 304 153 C309 149 312 143 312 137 C312 119 286 106 248 106 C189 106 159 121 143 159 L-11 137 C3 87 20 63 57 38 C105 5 167 -11 245 -11 C318 -11 378 4 421 33 C465 63 492 114 492 165 C492 223 460 268 398 296 C377 306 332 317 263 331 C228 337 213 347 213 364 C213 383 233 394 267 394 C314 394 343 379 357 347 L502 379 Z M285 -57 L176 -57 L131 -254 L184 -254 L285 -57 Z " />
<glyph glyph-name="uni021A" unicode="&#x21a;" horiz-adv-x="501" d="M392 516 L539 516 L564 669 L82 669 L56 516 L199 516 L112 0 L306 0 L392 516 Z M261 -57 L148 -57 L102 -258 L156 -258 L261 -57 Z " />
<glyph glyph-name="uni021B" unicode="&#x21b;" horiz-adv-x="361" d="M380 493 L290 493 L315 642 L156 628 L123 493 L42 493 L21 370 L89 370 L59 192 C52 150 50 132 50 118 C50 84 59 58 78 35 C105 2 141 -11 205 -11 C240 -11 263 -8 306 0 L328 128 C306 124 296 123 282 123 C253 123 236 136 236 159 C236 166 237 175 240 192 L270 370 L359 370 L380 493 Z M221 -57 L112 -57 L67 -254 L119 -254 L221 -57 Z " />
<glyph glyph-name="uni0226" unicode="&#x226;" horiz-adv-x="630" d="M373 136 L391 0 L588 0 L484 667 L275 667 L-33 0 L132 0 L194 136 L373 136 Z M361 274 L246 274 L334 467 L361 274 Z M392 870 C355 870 324 840 324 804 C324 767 355 737 393 737 C430 737 461 767 461 802 C461 840 431 870 392 870 L392 870 Z " />
<glyph glyph-name="uni0227" unicode="&#x227;" horiz-adv-x="594" d="M515 0 C512 18 511 27 511 38 C511 68 511 68 531 181 C558 344 559 350 559 369 C559 454 473 506 332 506 C249 506 186 490 137 457 C105 436 87 414 65 369 L226 337 C246 375 270 391 308 391 C343 391 365 376 365 351 C365 344 363 337 359 323 C350 322 328 320 293 317 C217 310 198 307 157 297 C60 274 5 213 5 131 C5 48 70 -11 162 -11 C232 -11 280 16 324 81 C322 61 321 38 321 24 C321 16 321 12 323 0 L515 0 Z M341 234 C336 192 333 177 325 158 C312 129 280 107 251 107 C224 107 207 123 207 148 C207 176 221 198 247 212 C269 224 284 228 341 234 L341 234 Z M363 713 C327 713 297 683 297 647 C297 610 327 580 364 580 C400 580 430 610 430 646 C430 683 401 713 363 713 L363 713 Z " />
<glyph glyph-name="uni0237" unicode="&#x237;" horiz-adv-x="295" d="M286 493 L93 493 L22 67 C8 -12 8 -12 -4 -23 C-16 -32 -34 -37 -61 -37 C-73 -37 -80 -36 -95 -33 L-110 -168 C-75 -174 -59 -176 -32 -176 C21 -176 68 -168 98 -155 C163 -125 189 -83 206 18 L286 493 Z " />
<glyph glyph-name="uni0259" unicode="&#x259;" horiz-adv-x="587" d="M220 317 C238 362 261 378 305 378 C346 378 369 358 369 323 C369 314 368 305 365 286 L33 286 C25 247 23 226 23 200 C23 70 109 -10 247 -10 C342 -10 429 27 486 93 C536 151 567 227 567 296 C567 424 475 503 328 503 C192 503 85 439 40 329 L220 317 Z M349 188 C340 130 312 103 264 103 C227 103 208 121 208 157 C208 166 209 173 211 188 L349 188 Z " />
<glyph glyph-name="afii57929" unicode="&#x2bc;" horiz-adv-x="275" d="M288 667 L126 667 L101 514 L167 514 L79 383 L155 383 L265 529 L288 667 Z " />
<glyph glyph-name="circumflex" unicode="&#x2c6;" horiz-adv-x="500" d="M499 583 L331 737 L111 583 L220 573 L315 636 L386 573 L499 583 Z " />
<glyph glyph-name="caron" unicode="&#x2c7;" horiz-adv-x="500" d="M134 720 L302 567 L522 720 L412 730 L318 667 L247 730 L134 720 Z " />
<glyph glyph-name="uni02C9" unicode="&#x2c9;" horiz-adv-x="500" d="M468 590 L481 667 L158 667 L145 590 L468 590 Z " />
<glyph glyph-name="breve" unicode="&#x2d8;" horiz-adv-x="500" d="M417 728 C387 679 356 659 309 659 C263 659 242 678 231 728 L147 728 C158 625 206 577 297 577 C347 577 396 595 434 627 C464 653 481 677 503 728 L417 728 Z " />
<glyph glyph-name="dotaccent" unicode="&#x2d9;" horiz-adv-x="500" d="M316 713 C280 713 250 683 250 647 C250 610 280 580 317 580 C353 580 383 610 383 646 C383 683 354 713 316 713 L316 713 Z " />
<glyph glyph-name="ring" unicode="&#x2da;" horiz-adv-x="500" d="M319 762 C265 762 220 717 220 663 C220 608 264 563 318 563 C374 563 418 607 418 663 C418 717 374 762 319 762 L319 762 Z M320 697 C339 697 355 682 355 663 C355 643 339 628 320 628 C301 628 285 644 285 662 C285 682 301 697 320 697 L320 697 Z " />
<glyph glyph-name="ogonek" unicode="&#x2db;" horiz-adv-x="500" d="M339 0 C276 -28 249 -59 249 -101 C249 -149 286 -177 351 -177 C382 -177 408 -171 444 -157 L434 -114 C410 -123 395 -126 380 -126 C352 -126 336 -111 336 -84 C336 -52 353 -33 408 0 L339 0 Z " />
<glyph glyph-name="tilde" unicode="&#x2dc;" horiz-adv-x="500" d="M446 700 C414 671 397 661 375 661 C358 661 355 662 316 682 C291 695 268 702 250 702 C213 702 179 683 136 640 L184 582 C208 610 227 621 250 621 C261 621 274 618 285 612 C341 582 348 580 376 580 C416 580 453 599 495 643 L446 700 Z " />
<glyph glyph-name="hungarumlaut" unicode="&#x2dd;" horiz-adv-x="500" d="M342 622 L375 567 L554 672 L509 750 L342 622 Z M156 622 L189 567 L368 672 L323 750 L156 622 Z " />
<glyph glyph-name="uni0309" unicode="&#x309;" horiz-adv-x="500" d="M588 713 L486 713 L-59 -48 L43 -48 L588 713 Z " />
<glyph glyph-name="uni037E" unicode="&#x37e;" horiz-adv-x="275" d="M217 177 L34 177 L4 0 L86 0 L-21 -171 L57 -171 L190 16 L217 177 Z M271 497 L88 497 L58 320 L241 320 L271 497 Z " />
<glyph glyph-name="tonos" unicode="&#x384;" horiz-adv-x="664" d="M229 675 L62 727 L8 453 L122 416 L229 675 Z " />
<glyph glyph-name="dieresistonos" unicode="&#x385;" horiz-adv-x="500" d="M239 759 L315 697 L448 842 L343 922 L239 759 Z M410 711 C371 711 338 678 338 639 C338 599 371 566 411 566 C450 566 483 598 483 638 C483 679 451 711 410 711 L410 711 Z M214 711 C175 711 142 678 142 639 C142 598 175 566 215 566 C254 566 287 598 287 637 C287 678 255 711 214 711 L214 711 Z " />
<glyph glyph-name="Alphatonos" unicode="&#x386;" horiz-adv-x="695" d="M452 136 L470 0 L667 0 L563 667 L344 667 L36 0 L201 0 L263 136 L452 136 Z M440 274 L315 274 L403 467 L413 467 L440 274 Z M247 667 L91 715 L40 451 L144 418 L247 667 Z " />
<glyph glyph-name="Epsilontonos" unicode="&#x388;" horiz-adv-x="746" d="M707 153 L409 153 L429 271 L669 271 L693 416 L453 416 L470 521 L756 521 L780 667 L301 667 L190 0 L681 0 L707 153 Z M243 667 L88 715 L36 451 L140 418 L243 667 Z " />
<glyph glyph-name="Etatonos" unicode="&#x389;" horiz-adv-x="839" d="M591 268 L546 0 L740 0 L851 667 L658 667 L617 421 L444 421 L485 667 L291 667 L180 0 L373 0 L418 268 L591 268 Z M243 667 L88 715 L36 451 L140 418 L243 667 Z " />
<glyph glyph-name="Iotatonos" unicode="&#x38a;" horiz-adv-x="478" d="M491 667 L301 667 L190 0 L379 0 L491 667 Z M243 667 L88 715 L36 451 L140 418 L243 667 Z " />
<glyph glyph-name="Omicrontonos" unicode="&#x38c;" horiz-adv-x="853" d="M556 684 C463 684 372 645 312 580 C246 507 205 395 205 283 C205 104 323 -17 497 -17 C607 -17 704 34 765 124 C814 195 843 291 843 378 C843 564 730 684 556 684 L556 684 Z M549 528 C603 528 635 490 635 424 C635 391 622 311 606 250 C586 175 551 138 499 138 C442 138 414 172 414 241 C414 287 428 372 444 426 C465 493 501 528 549 528 L549 528 Z M243 667 L88 715 L36 451 L140 418 L243 667 Z " />
<glyph glyph-name="Upsilontonos" unicode="&#x38e;" horiz-adv-x="821" d="M911 667 L729 667 L611 489 C606 482 599 472 588 454 L577 437 C569 465 569 466 559 489 L492 667 L281 667 L438 298 L388 0 L587 0 L635 289 L911 667 Z M243 667 L88 715 L36 451 L140 418 L243 667 Z " />
<glyph glyph-name="Omegatonos" unicode="&#x38f;" horiz-adv-x="902" d="M172 0 L462 0 L488 153 C452 178 436 222 436 295 C436 358 446 423 462 462 C484 517 519 544 569 544 C631 544 662 502 662 420 C662 367 652 301 636 255 C617 203 597 175 562 153 L537 0 L834 0 L860 153 L680 153 C750 181 779 199 808 229 C850 274 875 341 875 413 C875 574 752 684 572 684 C371 684 230 557 230 375 C230 323 243 276 270 234 C293 197 315 180 370 153 L198 153 L172 0 Z M243 667 L88 715 L36 451 L140 418 L243 667 Z " />
<glyph glyph-name="iotadieresistonos" unicode="&#x390;" horiz-adv-x="294" d="M284 497 L93 497 L10 0 L201 0 L284 497 Z M143 755 L211 699 L338 836 L241 909 L143 755 Z M308 700 C271 700 241 670 241 633 C241 596 271 566 309 566 C345 566 376 596 376 632 C376 670 346 700 308 700 L308 700 Z M112 700 C75 700 45 670 45 633 C45 596 75 566 113 566 C150 566 180 596 180 632 C180 670 150 700 112 700 L112 700 Z " />
<glyph glyph-name="Alpha" unicode="&#x391;" horiz-adv-x="624" d="M381 136 L399 0 L596 0 L492 667 L273 667 L-35 0 L130 0 L192 136 L381 136 Z M369 274 L244 274 L332 467 L342 467 L369 274 Z " />
<glyph glyph-name="Beta" unicode="&#x392;" horiz-adv-x="643" d="M17 0 L380 0 C450 0 501 13 538 42 C582 75 610 135 610 194 C610 238 595 279 568 309 C551 327 534 338 497 353 C588 375 636 426 636 503 C636 563 602 617 550 643 C513 661 475 667 404 667 L129 667 L17 0 Z M279 412 L298 526 L374 526 C419 526 446 506 446 472 C446 449 432 428 411 419 C398 414 383 412 355 412 L279 412 Z M235 147 L257 281 L341 281 C387 281 415 255 415 213 C415 169 388 147 334 147 L235 147 Z " />
<glyph glyph-name="Gamma" unicode="&#x393;" horiz-adv-x="478" d="M17 0 L210 0 L296 514 L529 514 L555 667 L129 667 L17 0 Z " />
<glyph glyph-name="uni0394" unicode="&#x394;" horiz-adv-x="602" d="M-51 0 L581 0 L475 667 L259 667 L-51 0 Z M172 153 L309 467 L324 467 L373 153 L172 153 Z " />
<glyph glyph-name="Epsilon" unicode="&#x395;" horiz-adv-x="573" d="M534 153 L236 153 L256 271 L496 271 L520 416 L280 416 L297 521 L583 521 L607 667 L129 667 L17 0 L508 0 L534 153 Z " />
<glyph glyph-name="Zeta" unicode="&#x396;" horiz-adv-x="578" d="M544 148 L238 148 C246 158 254 167 257 170 C269 184 282 199 295 213 L336 258 L593 540 L615 667 L103 667 L79 522 L238 522 L276 522 L321 522 L345 522 L-2 137 L-25 0 L520 0 L544 148 Z " />
<glyph glyph-name="Eta" unicode="&#x397;" horiz-adv-x="676" d="M429 268 L384 0 L577 0 L689 667 L495 667 L454 421 L281 421 L322 667 L129 667 L17 0 L210 0 L255 268 L429 268 Z " />
<glyph glyph-name="Theta" unicode="&#x398;" horiz-adv-x="725" d="M465 404 L306 404 L291 275 L450 275 L465 404 Z M417 684 C198 684 39 511 39 273 C39 190 60 128 107 75 C161 13 234 -17 334 -17 C456 -17 556 30 626 119 C682 191 714 287 714 384 C714 569 600 684 417 684 L417 684 Z M400 539 C475 539 516 485 516 387 C516 231 452 128 354 128 C279 128 238 182 238 280 C238 437 302 539 400 539 L400 539 Z " />
<glyph glyph-name="Iota" unicode="&#x399;" horiz-adv-x="305" d="M318 667 L129 667 L17 0 L206 0 L318 667 Z " />
<glyph glyph-name="Kappa" unicode="&#x39a;" horiz-adv-x="641" d="M475 414 L700 667 L509 667 L414 560 L365 501 C285 406 281 401 263 360 L269 396 L278 452 L286 501 L293 542 L314 667 L129 667 L17 0 L202 0 L230 162 L331 275 L406 0 L603 0 L475 414 Z " />
<glyph glyph-name="Lambda" unicode="&#x39b;" horiz-adv-x="565" d="M101 0 L304 491 L352 0 L544 0 L457 667 L242 667 L-55 0 L101 0 Z " />
<glyph glyph-name="Mu" unicode="&#x39c;" horiz-adv-x="849" d="M862 667 L592 667 L460 372 C449 348 448 346 440 321 C438 327 438 332 437 334 L435 352 L432 372 L397 667 L129 667 L17 0 L168 0 L220 313 C233 389 235 402 251 551 C252 536 253 526 253 522 L255 473 C256 466 262 398 263 388 L309 0 L429 0 L601 388 C618 425 624 439 637 474 C642 490 648 505 654 520 L663 543 C659 523 656 509 655 505 C649 481 643 458 638 434 C635 427 628 391 622 355 L563 0 L750 0 L862 667 Z " />
<glyph glyph-name="Nu" unicode="&#x39d;" horiz-adv-x="681" d="M694 667 L535 667 L492 414 C485 370 479 322 479 307 C479 299 480 289 481 275 C467 321 432 406 381 513 L308 667 L129 667 L17 0 L180 0 L234 327 C239 355 242 382 242 397 L241 422 C249 383 272 325 307 256 L434 0 L582 0 L694 667 Z " />
<glyph glyph-name="Xi" unicode="&#x39e;" horiz-adv-x="580" d="M-15 0 L512 0 L538 153 L11 153 L-15 0 Z M94 274 L495 274 L518 412 L117 412 L94 274 Z M79 514 L589 514 L615 667 L105 667 L79 514 Z " />
<glyph glyph-name="Omicron" unicode="&#x39f;" horiz-adv-x="687" d="M390 684 C297 684 206 645 146 580 C80 507 39 395 39 283 C39 104 157 -17 331 -17 C441 -17 538 34 599 124 C648 195 677 291 677 378 C677 564 564 684 390 684 L390 684 Z M383 528 C437 528 469 490 469 424 C469 391 456 311 440 250 C420 175 385 138 333 138 C276 138 248 172 248 241 C248 287 262 372 278 426 C299 493 335 528 383 528 L383 528 Z " />
<glyph glyph-name="Pi" unicode="&#x3a0;" horiz-adv-x="662" d="M17 0 L210 0 L296 514 L455 514 L369 0 L563 0 L674 667 L129 667 L17 0 Z " />
<glyph glyph-name="Rho" unicode="&#x3a1;" horiz-adv-x="599" d="M251 244 L381 244 C452 244 508 264 548 302 C591 343 617 406 617 467 C617 539 583 601 525 635 C480 661 448 667 349 667 L129 667 L17 0 L210 0 L251 244 Z M275 387 L298 523 L338 523 C395 523 426 500 426 458 C426 412 389 387 321 387 L275 387 Z " />
<glyph glyph-name="Sigma" unicode="&#x3a3;" horiz-adv-x="541" d="M-21 0 L477 0 L502 153 L192 153 L415 338 L302 514 L551 514 L576 667 L107 667 L81 514 L210 320 L5 153 L-21 0 Z " />
<glyph glyph-name="Tau" unicode="&#x3a4;" horiz-adv-x="483" d="M381 516 L528 516 L553 669 L71 669 L45 516 L188 516 L101 0 L295 0 L381 516 Z " />
<glyph glyph-name="Upsilon" unicode="&#x3a5;" horiz-adv-x="579" d="M669 667 L488 667 L369 489 C365 483 357 471 347 454 L336 437 C327 465 327 466 318 489 L251 667 L40 667 L197 298 L147 0 L346 0 L394 289 L669 667 Z " />
<glyph glyph-name="Phi" unicode="&#x3a6;" horiz-adv-x="754" d="M370 687 L356 605 C266 599 199 576 147 532 C80 476 41 388 41 296 C41 162 118 83 266 65 L251 -20 L414 -20 L428 62 C523 70 585 91 637 135 C703 191 743 278 743 368 C743 456 705 528 638 566 C603 586 573 596 518 602 L532 687 L370 687 Z M496 471 C546 446 563 418 563 361 C563 273 526 217 449 187 L496 471 Z M287 195 C238 222 221 250 221 302 C221 394 257 450 335 479 L287 195 Z " />
<glyph glyph-name="Chi" unicode="&#x3a7;" horiz-adv-x="613" d="M663 667 L484 667 L398 548 L382 526 L362 499 C361 496 356 490 350 481 C337 514 333 524 329 532 L269 667 L57 667 L206 356 L-55 0 L125 0 L248 177 L259 192 C263 198 266 203 270 208 C271 209 273 213 277 218 C284 205 290 192 291 190 C293 183 296 177 299 170 L373 0 L585 0 L421 346 L663 667 Z " />
<glyph glyph-name="Psi" unicode="&#x3a8;" horiz-adv-x="892" d="M307 0 L500 0 L520 117 C737 115 834 183 867 357 C873 395 879 433 886 472 L918 667 L725 667 L692 472 C667 329 666 322 648 301 C630 280 600 271 545 268 L612 667 L418 667 L352 268 C281 273 255 291 255 332 C255 351 255 351 274 472 L306 667 L113 667 L80 472 C67 392 62 351 62 323 C62 178 139 117 326 117 L307 0 Z " />
<glyph glyph-name="uni03A9" unicode="&#x3a9;" horiz-adv-x="723" d="M-7 0 L283 0 L308 153 C272 178 256 222 256 295 C256 358 266 423 282 462 C304 517 340 544 390 544 C452 544 483 502 483 420 C483 367 473 301 456 255 C438 203 418 174 383 153 L357 0 L655 0 L681 153 L501 153 C570 181 600 199 629 229 C671 274 696 341 696 413 C696 574 573 684 393 684 C191 684 50 557 50 375 C50 323 63 275 90 234 C114 197 135 180 190 153 L19 153 L-7 0 Z " />
<glyph glyph-name="Iotadieresis" unicode="&#x3aa;" horiz-adv-x="305" d="M318 667 L129 667 L17 0 L206 0 L318 667 Z M336 867 C301 867 272 838 272 803 C272 767 301 738 337 738 C372 738 401 767 401 802 C401 838 373 867 336 867 L336 867 Z M157 867 C122 867 93 838 93 803 C93 767 122 738 158 738 C193 738 222 767 222 801 C222 838 194 867 157 867 L157 867 Z " />
<glyph glyph-name="Upsilondieresis" unicode="&#x3ab;" horiz-adv-x="579" d="M669 667 L488 667 L369 489 C365 483 357 471 347 454 L336 437 C327 465 327 466 318 489 L251 667 L40 667 L197 298 L147 0 L346 0 L394 289 L669 667 Z M472 867 C437 867 408 838 408 803 C408 767 437 738 473 738 C508 738 537 767 537 802 C537 838 509 867 472 867 L472 867 Z M293 867 C258 867 229 838 229 803 C229 767 258 738 294 738 C329 738 358 767 358 801 C358 838 330 867 293 867 L293 867 Z " />
<glyph glyph-name="alphatonos" unicode="&#x3ac;" horiz-adv-x="588" d="M578 493 L390 493 L381 436 C354 488 323 506 262 506 C186 506 123 467 77 391 C42 332 22 259 22 187 C22 130 36 80 63 47 C93 8 140 -15 186 -15 C243 -15 292 15 332 74 L320 0 L495 0 L578 493 Z M338 179 C324 132 303 111 268 111 C235 111 217 135 217 178 C217 207 227 266 239 307 C253 356 279 384 311 384 C340 384 362 362 362 335 C362 330 362 324 361 318 L338 179 Z M258 609 L365 546 L493 723 L354 807 L258 609 Z " />
<glyph glyph-name="epsilontonos" unicode="&#x3ad;" horiz-adv-x="524" d="M337 298 C283 298 282 298 265 305 C252 311 245 322 245 339 C245 374 266 396 299 396 C331 396 344 382 348 346 L522 371 C509 464 431 511 290 511 C207 511 147 494 105 459 C74 432 56 394 56 355 C56 312 71 295 139 265 C51 244 11 202 11 131 C11 34 87 -15 237 -15 C337 -15 394 3 446 50 C472 73 487 95 501 130 L332 155 C320 114 300 96 263 96 C231 96 215 110 215 138 C215 166 226 186 247 196 C262 203 268 204 322 205 L337 298 Z M250 606 L348 548 L470 716 L341 794 L250 606 Z " />
<glyph glyph-name="etatonos" unicode="&#x3ae;" horiz-adv-x="582" d="M463 -173 L544 314 C552 358 554 379 554 398 C554 467 501 512 419 512 C347 512 300 485 258 419 L271 497 L93 497 L10 0 L201 0 L251 295 C260 351 283 379 321 379 C344 379 356 365 356 339 C356 333 356 330 352 309 L271 -173 L463 -173 Z M286 606 L384 548 L506 716 L377 794 L286 606 Z " />
<glyph glyph-name="iotatonos" unicode="&#x3af;" horiz-adv-x="294" d="M284 497 L93 497 L10 0 L201 0 L284 497 Z M142 606 L240 548 L362 716 L233 794 L142 606 Z " />
<glyph glyph-name="upsilondieresistonos" unicode="&#x3b0;" horiz-adv-x="576" d="M280 497 L89 497 L45 237 C40 207 37 172 37 148 C37 37 106 -15 253 -15 C361 -15 427 11 472 71 C501 108 513 144 528 237 L572 497 L380 497 L337 237 C318 124 308 105 265 105 C239 105 226 118 226 144 C226 157 232 208 237 237 L280 497 Z M284 755 L353 699 L479 836 L383 909 L284 755 Z M449 700 C412 700 382 670 382 633 C382 596 412 566 450 566 C486 566 517 596 517 632 C517 670 487 700 449 700 L449 700 Z M253 700 C216 700 186 670 186 633 C186 596 216 566 254 566 C291 566 321 596 321 632 C321 670 291 700 253 700 L253 700 Z " />
<glyph glyph-name="alpha" unicode="&#x3b1;" horiz-adv-x="588" d="M578 493 L390 493 L381 436 C354 488 323 506 262 506 C186 506 123 467 77 391 C42 332 22 259 22 187 C22 130 36 80 63 47 C93 8 140 -15 186 -15 C243 -15 292 15 332 74 L320 0 L495 0 L578 493 Z M338 179 C324 132 303 111 268 111 C235 111 217 135 217 178 C217 207 227 266 239 307 C253 356 279 384 311 384 C340 384 362 362 362 335 C362 330 362 324 361 318 L338 179 Z " />
<glyph glyph-name="beta" unicode="&#x3b2;" horiz-adv-x="613" d="M-17 -173 L174 -173 L215 70 C249 6 284 -15 358 -15 C418 -15 468 4 507 40 C550 80 579 147 579 205 C579 252 560 294 528 319 C501 339 476 348 410 362 C531 381 582 429 582 528 C582 626 500 682 357 682 C215 682 141 638 105 531 C96 507 96 507 80 404 L-17 -173 Z M279 462 C295 554 308 575 351 575 C386 575 404 554 404 514 C404 464 392 426 372 411 C359 401 348 398 319 397 L304 309 L313 309 C359 309 378 286 378 229 C378 155 341 101 290 101 C262 101 243 114 226 143 L279 462 Z " />
<glyph glyph-name="gamma" unicode="&#x3b3;" horiz-adv-x="485" d="M64 -173 L255 -173 L284 0 L544 497 L396 497 L249 198 L226 497 L24 497 L93 0 L64 -173 Z " />
<glyph glyph-name="delta" unicode="&#x3b4;" horiz-adv-x="599" d="M553 667 L146 667 L127 560 L253 444 C177 429 138 411 98 375 C48 329 23 269 23 194 C23 63 115 -15 270 -15 C370 -15 447 16 502 77 C546 125 569 188 569 257 C569 309 554 360 527 400 C501 440 486 453 406 514 L362 547 L533 547 L553 667 Z M311 346 C350 346 367 325 367 275 C367 237 359 189 348 156 C335 119 317 105 282 105 C242 105 226 126 226 179 C226 224 234 275 246 301 C259 332 280 346 311 346 L311 346 Z " />
<glyph glyph-name="epsilon" unicode="&#x3b5;" horiz-adv-x="524" d="M337 298 C283 298 282 298 265 305 C252 311 245 322 245 339 C245 374 266 396 299 396 C331 396 344 382 348 346 L522 371 C509 464 431 511 290 511 C207 511 147 494 105 459 C74 432 56 394 56 355 C56 312 71 295 139 265 C51 244 11 202 11 131 C11 34 87 -15 237 -15 C337 -15 394 3 446 50 C472 73 487 95 501 130 L332 155 C320 114 300 96 263 96 C231 96 215 110 215 138 C215 166 226 186 247 196 C262 203 268 204 322 205 L337 298 Z " />
<glyph glyph-name="zeta" unicode="&#x3b6;" horiz-adv-x="453" d="M102 547 L291 547 C214 499 172 467 130 421 C58 343 17 247 17 156 C17 56 69 6 180 2 C226 1 242 -9 242 -35 C242 -66 229 -99 198 -144 L327 -185 C390 -104 419 -36 419 34 C419 94 388 121 314 127 C247 132 227 149 227 204 C227 267 259 352 309 421 C357 488 410 532 474 559 L492 667 L122 667 L102 547 Z " />
<glyph glyph-name="eta" unicode="&#x3b7;" horiz-adv-x="582" d="M463 -173 L544 314 C552 358 554 379 554 398 C554 467 501 512 419 512 C347 512 300 485 258 419 L271 497 L93 497 L10 0 L201 0 L251 295 C260 351 283 379 321 379 C344 379 356 365 356 339 C356 333 356 330 352 309 L271 -173 L463 -173 Z " />
<glyph glyph-name="theta" unicode="&#x3b8;" horiz-adv-x="592" d="M349 682 C239 682 156 633 102 534 C62 460 39 361 39 262 C39 77 117 -15 273 -15 C383 -15 464 34 518 132 C558 205 582 306 582 404 C582 589 504 682 349 682 L349 682 Z M248 393 C264 518 291 571 337 571 C374 571 391 538 391 465 C391 446 390 429 387 393 L248 393 Z M375 293 C359 151 334 96 283 96 C245 96 230 124 230 195 C230 225 232 255 236 293 L375 293 Z " />
<glyph glyph-name="iota" unicode="&#x3b9;" horiz-adv-x="294" d="M284 497 L93 497 L10 0 L201 0 L284 497 Z " />
<glyph glyph-name="kappa" unicode="&#x3ba;" horiz-adv-x="564" d="M437 328 L614 497 L446 497 L253 305 L285 497 L100 497 L17 0 L202 0 L225 138 L297 209 L364 0 L552 0 L437 328 Z " />
<glyph glyph-name="lambda" unicode="&#x3bb;" horiz-adv-x="490" d="M-53 0 L82 0 L226 292 L280 0 L470 0 L322 667 L131 667 L188 463 L-53 0 Z " />
<glyph glyph-name="uni03BC" unicode="&#x3bc;" horiz-adv-x="590" d="M-19 -173 L166 -173 L205 57 C214 4 231 -15 270 -15 C314 -15 334 7 355 79 L349 0 L497 0 L580 497 L389 497 L346 242 C331 162 331 162 326 147 C317 122 294 105 270 105 C245 105 231 122 231 151 C231 168 235 200 242 242 L284 497 L93 497 L-19 -173 Z " />
<glyph glyph-name="nu" unicode="&#x3bd;" horiz-adv-x="498" d="M537 497 L399 497 L266 224 L208 497 L15 497 L143 0 L291 0 L537 497 Z " />
<glyph glyph-name="xi" unicode="&#x3be;" horiz-adv-x="482" d="M364 -185 C419 -97 446 -28 446 28 C446 86 419 110 340 123 C265 136 263 136 250 141 C230 149 220 165 220 190 C220 218 233 244 255 261 C277 279 299 283 362 283 L434 283 L455 405 L378 405 C323 405 301 422 301 465 C301 490 312 514 331 529 C350 546 357 547 416 547 L493 547 L513 667 L102 667 L82 547 L212 547 C164 534 142 525 121 506 C98 487 84 462 84 439 C84 418 95 396 112 384 C127 373 128 373 186 348 C60 300 12 245 12 151 C12 59 63 15 185 -1 C237 -8 240 -8 252 -14 C266 -21 273 -31 273 -46 C273 -69 261 -101 236 -145 L364 -185 Z " />
<glyph glyph-name="omicron" unicode="&#x3bf;" horiz-adv-x="582" d="M310 511 C144 511 24 388 24 217 C24 146 44 95 89 51 C135 7 195 -15 267 -15 C433 -15 557 109 557 274 C557 418 460 511 310 511 L310 511 Z M305 393 C342 393 362 364 362 312 C362 269 353 209 340 170 C325 124 307 105 275 105 C238 105 217 134 217 184 C217 222 229 294 241 330 C255 373 275 393 305 393 L305 393 Z " />
<glyph glyph-name="pi" unicode="&#x3c0;" horiz-adv-x="640" d="M34 0 L225 0 L288 374 L395 374 L333 0 L524 0 L586 374 L642 374 L662 497 L62 497 L41 374 L96 374 L34 0 Z " />
<glyph glyph-name="rho" unicode="&#x3c1;" horiz-adv-x="587" d="M-25 -173 L166 -173 L200 30 C231 -2 266 -15 317 -15 C466 -15 562 100 562 278 C562 426 472 512 319 512 C190 512 98 447 63 332 C55 305 55 305 38 205 L-25 -173 Z M317 391 C352 391 368 369 368 318 C368 277 357 198 347 166 C334 124 312 105 278 105 C242 105 227 127 227 178 C227 232 238 304 252 338 C267 374 287 391 317 391 L317 391 Z " />
<glyph glyph-name="uni03C2" unicode="&#x3c2;" horiz-adv-x="544" d="M412 -185 C464 -108 489 -43 489 9 C489 71 460 103 392 114 C304 128 295 131 274 146 C248 165 235 199 235 250 C235 336 266 391 314 391 C349 391 363 365 363 302 L540 329 C539 368 532 394 514 422 C476 482 413 511 319 511 C218 511 141 476 88 406 C49 354 27 284 27 213 C27 127 59 65 125 27 C160 6 188 -2 255 -9 C303 -15 314 -23 314 -50 C314 -73 298 -120 280 -153 L412 -185 Z " />
<glyph glyph-name="sigma" unicode="&#x3c3;" horiz-adv-x="609" d="M636 497 L424 497 C380 509 354 513 317 513 C237 513 167 489 118 444 C61 392 26 305 26 217 C26 67 115 -14 281 -14 C372 -14 442 11 494 62 C541 109 567 174 567 246 C567 303 554 340 524 377 L616 377 L636 497 Z M314 392 C352 392 368 369 368 314 C368 269 359 199 349 167 C336 125 316 106 281 106 C245 106 228 130 228 183 C228 239 238 307 250 339 C264 375 285 392 314 392 L314 392 Z " />
<glyph glyph-name="tau" unicode="&#x3c4;" horiz-adv-x="443" d="M77 0 L269 0 L332 377 L458 377 L478 497 L35 497 L15 377 L140 377 L77 0 Z " />
<glyph glyph-name="upsilon" unicode="&#x3c5;" horiz-adv-x="576" d="M280 497 L89 497 L45 237 C40 207 37 172 37 148 C37 37 106 -15 253 -15 C361 -15 427 11 472 71 C501 108 513 144 528 237 L572 497 L380 497 L337 237 C318 124 308 105 265 105 C239 105 226 118 226 144 C226 157 232 208 237 237 L280 497 Z " />
<glyph glyph-name="phi" unicode="&#x3c6;" horiz-adv-x="688" d="M292 -173 L425 -173 L425 -16 C490 -10 525 1 564 28 C629 73 668 151 668 238 C668 319 634 391 573 439 C520 480 458 498 367 498 C351 498 320 497 292 496 L292 102 C216 114 184 155 184 240 C184 301 200 337 242 366 L242 489 C175 469 139 448 106 410 C69 369 49 308 49 241 C49 162 76 94 127 47 C171 6 214 -10 292 -16 L292 -173 Z M425 380 C493 373 532 324 532 244 C532 159 496 111 425 102 L425 380 Z " />
<glyph glyph-name="chi" unicode="&#x3c7;" horiz-adv-x="533" d="M153 189 L-94 -173 L73 -173 L213 68 L289 -173 L489 -173 L365 163 L584 497 L421 497 L306 286 L237 497 L37 497 L153 189 Z " />
<glyph glyph-name="psi" unicode="&#x3c8;" horiz-adv-x="821" d="M252 -173 L429 -173 L456 -11 C683 -8 746 42 773 239 L816 497 L625 497 L580 231 C564 127 550 110 476 109 L541 497 L364 497 L299 109 C244 109 229 122 229 167 C229 181 232 210 236 231 L280 497 L89 497 L45 239 C41 209 38 181 38 156 C38 94 67 48 125 17 C162 -3 197 -9 279 -11 L252 -173 Z " />
<glyph glyph-name="omega" unicode="&#x3c9;" horiz-adv-x="791" d="M496 368 L326 368 L306 252 L300 213 C284 140 283 138 277 129 C269 117 258 110 246 110 C225 110 214 132 214 172 C214 217 228 283 246 329 C263 372 282 404 321 455 L188 513 C115 451 82 412 55 361 C28 307 12 242 12 182 C12 119 26 75 55 42 C89 5 142 -15 204 -15 C279 -15 323 10 375 85 C411 13 456 -15 535 -15 C615 -15 681 14 718 67 C753 115 772 184 772 260 C772 364 752 411 662 513 L514 455 C553 385 567 336 567 269 C567 168 544 110 503 110 C479 110 467 128 467 161 C467 179 471 217 477 252 L496 368 Z " />
<glyph glyph-name="iotadieresis" unicode="&#x3ca;" horiz-adv-x="294" d="M284 497 L93 497 L10 0 L201 0 L284 497 Z M300 709 C265 709 236 680 236 645 C236 609 265 580 301 580 C336 580 365 609 365 644 C365 680 337 709 300 709 L300 709 Z M126 709 C91 709 62 680 62 645 C62 609 91 580 127 580 C162 580 191 609 191 643 C191 680 163 709 126 709 L126 709 Z " />
<glyph glyph-name="upsilondieresis" unicode="&#x3cb;" horiz-adv-x="576" d="M280 497 L89 497 L45 237 C40 207 37 172 37 148 C37 37 106 -15 253 -15 C361 -15 427 11 472 71 C501 108 513 144 528 237 L572 497 L380 497 L337 237 C318 124 308 105 265 105 C239 105 226 118 226 144 C226 157 232 208 237 237 L280 497 Z M442 709 C407 709 378 680 378 645 C378 609 407 580 443 580 C478 580 507 609 507 644 C507 680 479 709 442 709 L442 709 Z M268 709 C233 709 204 680 204 645 C204 609 233 580 269 580 C304 580 333 609 333 643 C333 680 305 709 268 709 L268 709 Z " />
<glyph glyph-name="omicrontonos" unicode="&#x3cc;" horiz-adv-x="582" d="M310 511 C144 511 24 388 24 217 C24 146 44 95 89 51 C135 7 195 -15 267 -15 C433 -15 557 109 557 274 C557 418 460 511 310 511 L310 511 Z M305 393 C342 393 362 364 362 312 C362 269 353 209 340 170 C325 124 307 105 275 105 C238 105 217 134 217 184 C217 222 229 294 241 330 C255 373 275 393 305 393 L305 393 Z M272 606 L370 548 L493 716 L363 794 L272 606 Z " />
<glyph glyph-name="upsilontonos" unicode="&#x3cd;" horiz-adv-x="576" d="M280 497 L89 497 L45 237 C40 207 37 172 37 148 C37 37 106 -15 253 -15 C361 -15 427 11 472 71 C501 108 513 144 528 237 L572 497 L380 497 L337 237 C318 124 308 105 265 105 C239 105 226 118 226 144 C226 157 232 208 237 237 L280 497 Z M263 606 L361 548 L483 716 L354 794 L263 606 Z " />
<glyph glyph-name="omegatonos" unicode="&#x3ce;" horiz-adv-x="791" d="M496 368 L326 368 L306 252 L300 213 C284 140 283 138 277 129 C269 117 258 110 246 110 C225 110 214 132 214 172 C214 217 228 283 246 329 C263 372 282 404 321 455 L188 513 C115 451 82 412 55 361 C28 307 12 242 12 182 C12 119 26 75 55 42 C89 5 142 -15 204 -15 C279 -15 323 10 375 85 C411 13 456 -15 535 -15 C615 -15 681 14 718 67 C753 115 772 184 772 260 C772 364 752 411 662 513 L514 455 C553 385 567 336 567 269 C567 168 544 110 503 110 C479 110 467 128 467 161 C467 179 471 217 477 252 L496 368 Z M378 606 L475 548 L598 716 L469 794 L378 606 Z " />
<glyph glyph-name="theta1" unicode="&#x3d1;" horiz-adv-x="590" d="M240 423 L87 423 L35 200 C28 169 24 142 24 119 C24 35 88 -14 199 -14 C352 -14 479 94 515 256 L551 413 C591 432 594 433 617 442 L635 522 C600 508 595 505 569 491 C578 533 582 574 582 612 C582 671 570 708 545 729 C518 751 473 765 426 765 C367 765 314 745 276 709 C237 672 210 609 210 555 C210 513 231 471 266 441 C298 413 332 401 393 394 L365 268 C349 199 340 171 323 144 C295 97 260 70 228 70 C196 70 177 92 177 129 C177 146 179 164 183 181 L240 423 Z M407 465 C382 482 364 525 364 569 C364 624 386 671 412 671 C424 671 432 662 432 649 C432 620 417 513 407 465 L407 465 Z " />
<glyph glyph-name="phi1" unicode="&#x3d5;" horiz-adv-x="778" d="M272 108 C230 124 210 159 210 218 C210 280 226 325 261 361 L238 490 C111 460 26 352 26 218 C26 138 55 77 114 35 C153 6 188 -6 251 -15 L225 -173 L412 -173 L438 -16 C488 -11 524 -5 558 6 C679 44 752 144 752 270 C752 424 642 511 447 511 C409 511 386 509 338 503 L272 108 Z M508 401 C554 378 572 343 572 277 C572 185 539 134 458 100 L508 401 Z " />
<glyph glyph-name="uni0400" unicode="&#x400;" horiz-adv-x="573" d="M534 153 L236 153 L256 271 L496 271 L520 416 L280 416 L297 521 L583 521 L607 667 L129 667 L17 0 L508 0 L534 153 Z M437 794 L231 897 L195 801 L412 727 L437 794 Z " />
<glyph glyph-name="afii10023" unicode="&#x401;" horiz-adv-x="573" d="M534 153 L236 153 L256 271 L496 271 L520 416 L280 416 L297 521 L583 521 L607 667 L129 667 L17 0 L508 0 L534 153 Z M475 867 C440 867 411 838 411 803 C411 767 440 738 476 738 C511 738 540 767 540 802 C540 838 512 867 475 867 L475 867 Z M296 867 C261 867 232 838 232 803 C232 767 261 738 297 738 C332 738 361 767 361 801 C361 838 333 867 296 867 L296 867 Z " />
<glyph glyph-name="afii10051" unicode="&#x402;" horiz-adv-x="651" d="M49 0 L237 0 L276 234 C287 299 318 329 373 329 C411 329 427 314 427 278 C427 250 409 133 388 31 C375 -34 363 -50 323 -55 L311 -174 C398 -172 441 -164 483 -140 C535 -111 556 -72 578 41 C603 163 623 299 623 338 C623 419 573 461 478 461 C405 461 363 442 301 381 L325 527 L530 527 L553 667 L60 667 L37 527 L137 527 L49 0 Z " />
<glyph glyph-name="afii10052" unicode="&#x403;" horiz-adv-x="478" d="M17 0 L210 0 L296 514 L529 514 L555 667 L129 667 L17 0 Z M227 794 L253 727 L486 801 L453 897 L227 794 Z " />
<glyph glyph-name="afii10053" unicode="&#x404;" horiz-adv-x="643" d="M463 401 L249 401 C266 494 306 535 377 535 C433 535 463 509 480 449 L657 497 C612 624 526 684 389 684 C288 684 209 650 145 580 C79 507 39 391 39 274 C39 94 145 -17 317 -17 C466 -17 579 59 645 203 L470 234 C440 164 397 132 334 132 C268 132 226 177 226 248 C226 253 227 267 228 278 L442 278 L463 401 Z " />
<glyph glyph-name="afii10054" unicode="&#x405;" horiz-adv-x="607" d="M610 512 C591 564 570 593 526 623 C473 660 408 678 326 678 C248 678 188 662 142 629 C89 591 57 528 57 460 C57 374 105 317 206 280 L337 232 C344 229 352 225 359 218 C366 211 370 202 370 193 C370 162 341 143 293 143 C226 143 189 164 169 213 L-23 176 C0 116 23 85 64 55 C124 12 201 -10 289 -10 C464 -10 583 84 583 222 C583 282 558 329 506 366 C471 390 471 390 333 439 C284 456 271 467 271 489 C271 516 296 533 336 533 C388 533 426 509 438 468 L610 512 Z " />
<glyph glyph-name="afii10055" unicode="&#x406;" horiz-adv-x="305" d="M318 667 L129 667 L17 0 L206 0 L318 667 Z " />
<glyph glyph-name="afii10056" unicode="&#x407;" horiz-adv-x="305" d="M318 667 L129 667 L17 0 L206 0 L318 667 Z M330 867 C295 867 266 838 266 803 C266 767 295 738 331 738 C366 738 395 767 395 802 C395 838 367 867 330 867 L330 867 Z M148 867 C113 867 84 838 84 803 C84 767 113 738 149 738 C184 738 213 767 213 801 C213 838 185 867 148 867 L148 867 Z " />
<glyph glyph-name="afii10057" unicode="&#x408;" horiz-adv-x="417" d="M436 667 L238 667 L174 288 C161 206 161 206 149 185 C135 160 106 146 68 146 C47 146 30 148 -9 154 L-35 0 C18 -10 44 -13 91 -13 C186 -13 245 5 291 49 C330 87 345 123 362 226 L436 667 Z " />
<glyph glyph-name="afii10058" unicode="&#x409;" horiz-adv-x="896" d="M500 430 L475 667 L244 667 L-78 0 L79 0 L312 514 L342 0 L592 0 C680 0 738 13 782 44 C844 86 879 160 879 246 C879 306 861 353 825 385 C789 417 734 430 637 430 L500 430 Z M515 291 L603 291 C653 291 678 271 678 229 C678 172 651 146 592 146 L530 146 L515 291 Z " />
<glyph glyph-name="afii10059" unicode="&#x40a;" horiz-adv-x="984" d="M631 430 L670 667 L482 667 L439 410 L274 410 L317 667 L129 667 L17 0 L206 0 L251 271 L415 271 L370 0 L681 0 C768 0 827 13 870 44 C932 86 967 160 967 246 C967 306 949 353 913 385 C877 417 823 430 726 430 L631 430 Z M583 146 L607 291 L691 291 C742 291 766 271 766 229 C766 172 739 146 680 146 L583 146 Z " />
<glyph glyph-name="afii10060" unicode="&#x40b;" horiz-adv-x="661" d="M325 527 L530 527 L553 667 L60 667 L37 527 L137 527 L48 0 L237 0 L276 234 C289 304 311 327 367 327 C405 327 421 315 421 286 C421 277 420 269 417 251 L375 0 L566 0 L608 251 C616 299 619 321 619 339 C619 417 565 461 468 461 C398 461 355 440 300 380 L325 527 Z " />
<glyph glyph-name="afii10061" unicode="&#x40c;" horiz-adv-x="641" d="M475 414 L700 667 L509 667 L414 560 L365 501 C285 406 281 401 263 360 L269 396 L278 452 L286 501 L293 542 L314 667 L129 667 L17 0 L202 0 L230 162 L331 275 L406 0 L603 0 L475 414 Z M326 794 L352 727 L585 801 L552 897 L326 794 Z " />
<glyph glyph-name="uni040D" unicode="&#x40d;" horiz-adv-x="573" d="M534 153 L236 153 L256 271 L496 271 L520 416 L280 416 L297 521 L583 521 L607 667 L129 667 L17 0 L508 0 L534 153 Z M466 867 C431 867 402 838 402 803 C402 767 431 738 467 738 C502 738 531 767 531 802 C531 838 503 867 466 867 L466 867 Z M287 867 C252 867 223 838 223 803 C223 767 252 738 288 738 C323 738 352 767 352 801 C352 838 324 867 287 867 L287 867 Z " />
<glyph glyph-name="afii10062" unicode="&#x40e;" horiz-adv-x="548" d="M215 205 L208 193 C185 160 151 146 100 146 L36 146 L12 0 L110 0 C232 -2 302 46 377 182 L661 667 L478 667 L333 401 L251 667 L41 667 L215 205 Z M490 883 C460 837 429 818 382 818 C336 818 315 836 304 883 L220 883 C231 782 279 736 370 736 C420 736 469 753 507 784 C537 810 554 834 576 883 L490 883 Z " />
<glyph glyph-name="afii10145" unicode="&#x40f;" horiz-adv-x="655" d="M230 146 L317 667 L129 667 L17 0 L219 0 L195 -141 L331 -141 L354 0 L556 0 L668 667 L479 667 L392 146 L230 146 Z " />
<glyph glyph-name="afii10017" unicode="&#x410;" horiz-adv-x="624" d="M381 136 L399 0 L596 0 L492 667 L273 667 L-35 0 L130 0 L192 136 L381 136 Z M369 274 L244 274 L332 467 L342 467 L369 274 Z " />
<glyph glyph-name="afii10018" unicode="&#x411;" horiz-adv-x="641" d="M17 0 L347 0 C419 0 491 20 531 51 C581 89 612 157 612 230 C612 284 594 326 557 358 C518 391 462 405 362 405 L273 405 L294 530 L586 530 L609 667 L129 667 L17 0 Z M230 146 L251 271 L321 271 C384 271 411 254 411 213 C411 171 382 146 334 146 L230 146 Z " />
<glyph glyph-name="afii10019" unicode="&#x412;" horiz-adv-x="643" d="M17 0 L380 0 C450 0 501 13 538 42 C582 75 610 135 610 194 C610 238 595 279 568 309 C551 327 534 338 497 353 C588 375 636 426 636 503 C636 563 602 617 550 643 C513 661 475 667 404 667 L129 667 L17 0 Z M279 412 L298 526 L374 526 C419 526 446 506 446 472 C446 449 432 428 411 419 C398 414 383 412 355 412 L279 412 Z M235 147 L257 281 L341 281 C387 281 415 255 415 213 C415 169 388 147 334 147 L235 147 Z " />
<glyph glyph-name="afii10020" unicode="&#x413;" horiz-adv-x="458" d="M17 0 L210 0 L296 514 L509 514 L535 667 L129 667 L17 0 Z " />
<glyph glyph-name="afii10021" unicode="&#x414;" horiz-adv-x="649" d="M35 145 L-38 145 L-86 -140 L43 -140 L83 0 L481 0 L474 -140 L603 -140 L650 145 L578 145 L517 667 L273 667 L35 145 Z M194 145 L349 513 L359 513 L379 145 L194 145 Z " />
<glyph glyph-name="afii10022" unicode="&#x415;" horiz-adv-x="573" d="M534 153 L236 153 L256 271 L496 271 L520 416 L280 416 L297 521 L583 521 L607 667 L129 667 L17 0 L508 0 L534 153 Z " />
<glyph glyph-name="afii10024" unicode="&#x416;" horiz-adv-x="891" d="M964 667 L777 667 L579 391 L552 384 L599 667 L430 667 L383 387 L358 395 L268 667 L74 667 L199 350 L-71 0 L120 0 L338 279 L363 271 L318 0 L487 0 L533 271 L560 279 L695 0 L896 0 L728 348 L964 667 Z " />
<glyph glyph-name="afii10025" unicode="&#x417;" horiz-adv-x="603" d="M6 205 C11 146 18 112 33 84 C71 14 142 -17 263 -17 C370 -17 442 4 496 51 C543 92 569 152 569 217 C569 288 541 324 460 357 C544 391 582 438 582 508 C582 618 488 684 332 684 C173 684 88 622 54 479 L204 453 C224 517 249 538 306 538 C356 538 385 515 385 476 C385 430 355 398 311 398 L278 398 L259 282 L297 282 C344 282 366 263 366 222 C366 161 336 132 270 132 C213 132 190 157 184 224 L6 205 Z " />
<glyph glyph-name="afii10026" unicode="&#x418;" horiz-adv-x="674" d="M215 59 L352 240 C396 299 414 328 462 408 C445 337 438 306 429 256 L387 0 L575 0 L687 667 L498 667 L488 604 L351 420 C304 357 288 334 241 257 C258 328 265 359 274 407 L317 667 L129 667 L17 0 L206 0 L215 59 Z " />
<glyph glyph-name="afii10027" unicode="&#x419;" horiz-adv-x="674" d="M215 59 L352 240 C396 299 414 328 462 408 C445 337 438 306 429 256 L387 0 L575 0 L687 667 L498 667 L488 604 L351 420 C304 357 288 334 241 257 C258 328 265 359 274 407 L317 667 L129 667 L17 0 L206 0 L215 59 Z M551 883 C522 837 490 818 444 818 C398 818 376 836 366 883 L282 883 C293 782 340 736 431 736 C482 736 531 753 568 784 C599 810 616 834 637 883 L551 883 Z " />
<glyph glyph-name="afii10028" unicode="&#x41a;" horiz-adv-x="641" d="M475 414 L700 667 L509 667 L414 560 L365 501 C285 406 281 401 263 360 L269 396 L278 452 L286 501 L293 542 L314 667 L129 667 L17 0 L202 0 L230 162 L331 275 L406 0 L603 0 L475 414 Z " />
<glyph glyph-name="afii10029" unicode="&#x41b;" horiz-adv-x="565" d="M101 0 L304 491 L352 0 L544 0 L457 667 L242 667 L-55 0 L101 0 Z " />
<glyph glyph-name="afii10030" unicode="&#x41c;" horiz-adv-x="849" d="M862 667 L592 667 L460 372 C449 348 448 346 440 321 C438 327 438 332 437 334 L435 352 L432 372 L397 667 L129 667 L17 0 L168 0 L220 313 C233 389 235 402 251 551 C252 536 253 526 253 522 L255 473 C256 466 262 398 263 388 L309 0 L429 0 L601 388 C618 425 624 439 637 474 C642 490 648 505 654 520 L663 543 C659 523 656 509 655 505 C649 481 643 458 638 434 C635 427 628 391 622 355 L563 0 L750 0 L862 667 Z " />
<glyph glyph-name="afii10031" unicode="&#x41d;" horiz-adv-x="676" d="M429 268 L384 0 L577 0 L689 667 L495 667 L454 421 L281 421 L322 667 L129 667 L17 0 L210 0 L255 268 L429 268 Z " />
<glyph glyph-name="afii10032" unicode="&#x41e;" horiz-adv-x="687" d="M390 684 C297 684 206 645 146 580 C80 507 39 395 39 283 C39 104 157 -17 331 -17 C441 -17 538 34 599 124 C648 195 677 291 677 378 C677 564 564 684 390 684 L390 684 Z M383 528 C437 528 469 490 469 424 C469 391 456 311 440 250 C420 175 385 138 333 138 C276 138 248 172 248 241 C248 287 262 372 278 426 C299 493 335 528 383 528 L383 528 Z " />
<glyph glyph-name="afii10033" unicode="&#x41f;" horiz-adv-x="656" d="M17 0 L206 0 L294 527 L456 527 L368 0 L557 0 L668 667 L129 667 L17 0 Z " />
<glyph glyph-name="afii10034" unicode="&#x420;" horiz-adv-x="599" d="M251 244 L381 244 C452 244 508 264 548 302 C591 343 617 406 617 467 C617 539 583 601 525 635 C480 661 448 667 349 667 L129 667 L17 0 L210 0 L251 244 Z M275 387 L298 523 L338 523 C395 523 426 500 426 458 C426 412 389 387 321 387 L275 387 Z " />
<glyph glyph-name="afii10035" unicode="&#x421;" horiz-adv-x="633" d="M435 258 C410 176 382 145 330 145 C276 145 249 180 249 249 C249 298 266 398 283 445 C305 505 333 531 378 531 C410 531 434 515 446 487 C455 466 458 450 458 409 L646 423 C643 501 629 543 590 591 C541 651 472 682 384 682 C258 682 159 623 98 509 C61 442 42 367 42 289 C42 106 151 -14 317 -14 C404 -14 470 15 529 78 C570 122 591 161 615 235 L435 258 Z " />
<glyph glyph-name="afii10036" unicode="&#x422;" horiz-adv-x="483" d="M381 514 L528 514 L553 667 L71 667 L45 514 L188 514 L102 0 L295 0 L381 514 Z " />
<glyph glyph-name="afii10037" unicode="&#x423;" horiz-adv-x="534" d="M208 205 L202 196 C179 160 144 146 80 146 L16 146 L-8 0 L90 0 C167 0 207 10 257 41 C305 73 321 94 380 199 L641 667 L458 667 L313 401 L231 667 L21 667 L208 205 Z " />
<glyph glyph-name="afii10038" unicode="&#x424;" horiz-adv-x="754" d="M370 687 L356 605 C266 599 199 576 147 532 C80 476 41 388 41 296 C41 162 118 83 266 65 L251 -20 L414 -20 L428 62 C523 70 585 91 637 135 C703 191 743 278 743 368 C743 456 705 528 638 566 C603 586 573 596 518 602 L532 687 L370 687 Z M496 471 C546 446 563 418 563 361 C563 273 526 217 449 187 L496 471 Z M287 195 C238 222 221 250 221 302 C221 394 257 450 335 479 L287 195 Z " />
<glyph glyph-name="afii10039" unicode="&#x425;" horiz-adv-x="613" d="M663 667 L484 667 L398 548 L382 526 L362 499 C361 496 356 490 350 481 C337 514 333 524 329 532 L269 667 L57 667 L206 356 L-55 0 L125 0 L248 177 L259 192 C263 198 266 203 270 208 C271 209 273 213 277 218 C284 205 290 192 291 190 C293 183 296 177 299 170 L373 0 L585 0 L421 346 L663 667 Z " />
<glyph glyph-name="afii10040" unicode="&#x426;" horiz-adv-x="662" d="M17 0 L499 0 L492 -141 L611 -141 L660 153 L582 153 L668 667 L480 667 L394 153 L231 153 L317 667 L129 667 L17 0 Z " />
<glyph glyph-name="afii10041" unicode="&#x427;" horiz-adv-x="655" d="M362 0 L555 0 L667 667 L473 667 L422 358 C379 343 357 339 325 339 C283 339 264 351 264 378 C264 390 264 390 272 439 L310 667 L116 667 L78 439 C70 392 67 362 67 341 C67 244 130 190 242 190 C298 190 343 204 402 242 L362 0 Z " />
<glyph glyph-name="afii10042" unicode="&#x428;" horiz-adv-x="983" d="M17 0 L884 0 L996 667 L807 667 L721 153 L570 153 L656 667 L468 667 L382 153 L231 153 L317 667 L129 667 L17 0 Z " />
<glyph glyph-name="afii10043" unicode="&#x429;" horiz-adv-x="989" d="M910 153 L996 667 L807 667 L721 153 L570 153 L656 667 L468 667 L382 153 L231 153 L317 667 L129 667 L17 0 L826 0 L819 -141 L938 -141 L987 153 L910 153 Z " />
<glyph glyph-name="afii10044" unicode="&#x42a;" horiz-adv-x="686" d="M72 0 L383 0 C470 0 529 13 572 44 C634 86 669 160 669 246 C669 306 651 353 615 385 C579 417 525 430 428 430 L333 430 L372 667 L44 667 L18 514 L158 514 L72 0 Z M285 146 L309 291 L393 291 C444 291 468 271 468 229 C468 172 441 146 382 146 L285 146 Z " />
<glyph glyph-name="afii10045" unicode="&#x42b;" horiz-adv-x="931" d="M644 0 L832 0 L944 667 L755 667 L644 0 Z M17 0 L328 0 C415 0 474 13 517 44 C579 86 614 160 614 246 C614 306 596 353 560 385 C524 417 470 430 373 430 L277 430 L317 667 L129 667 L17 0 Z M230 146 L254 291 L338 291 C389 291 413 271 413 229 C413 172 386 146 327 146 L230 146 Z " />
<glyph glyph-name="afii10046" unicode="&#x42c;" horiz-adv-x="631" d="M17 0 L328 0 C415 0 474 13 517 44 C579 86 614 160 614 246 C614 306 596 353 560 385 C524 417 470 430 373 430 L277 430 L317 667 L129 667 L17 0 Z M230 146 L254 291 L338 291 C389 291 413 271 413 229 C413 172 386 146 327 146 L230 146 Z " />
<glyph glyph-name="afii10047" unicode="&#x42d;" horiz-adv-x="646" d="M213 278 L434 278 C429 239 422 219 408 196 C382 155 341 132 294 132 C257 132 223 147 205 173 C193 188 188 202 181 234 L-1 203 C33 56 128 -17 283 -17 C497 -17 635 138 635 380 C635 477 610 552 560 607 C513 659 448 684 358 684 C221 684 126 625 55 497 L221 449 C252 510 288 535 342 535 C410 535 442 497 442 419 C442 417 442 409 441 401 L234 401 L213 278 Z " />
<glyph glyph-name="afii10048" unicode="&#x42e;" horiz-adv-x="994" d="M353 269 C356 218 363 182 379 145 C425 43 521 -17 639 -17 C836 -17 984 155 984 383 C984 563 869 684 698 684 C539 684 417 582 370 411 L274 411 L317 667 L129 667 L17 0 L206 0 L251 269 L353 269 Z M690 528 C744 528 776 490 776 425 C776 391 763 311 747 251 C727 175 692 139 640 139 C583 139 555 173 555 241 C555 288 569 372 585 427 C606 493 642 528 690 528 L690 528 Z " />
<glyph glyph-name="afii10049" unicode="&#x42f;" horiz-adv-x="651" d="M405 255 L362 0 L552 0 L664 667 L330 667 C258 667 194 651 154 623 C97 583 63 514 63 436 C63 364 92 318 161 281 L-33 0 L160 0 L307 255 L405 255 Z M450 527 L428 392 L358 392 C296 392 266 413 266 456 C266 480 277 500 296 512 C316 524 334 527 382 527 L450 527 Z " />
<glyph glyph-name="afii10065" unicode="&#x430;" horiz-adv-x="592" d="M516 0 C513 18 512 27 512 39 C512 68 512 68 532 181 C559 344 560 350 560 370 C560 457 473 511 333 511 C250 511 187 495 138 460 C106 438 88 416 66 369 L227 337 C246 378 271 396 309 396 C343 396 366 379 366 353 C366 345 364 337 360 323 C351 322 329 320 294 317 C218 310 199 307 158 297 C61 274 6 213 6 131 C6 48 71 -11 163 -11 C233 -11 281 16 325 81 C323 61 322 38 322 24 C322 16 322 12 324 0 L516 0 Z M342 234 C337 192 334 177 326 158 C313 129 281 107 252 107 C225 107 208 123 208 148 C208 176 222 198 248 212 C270 224 285 228 342 234 L342 234 Z " />
<glyph glyph-name="afii10066" unicode="&#x431;" horiz-adv-x="584" d="M384 712 C380 688 372 679 345 671 C284 654 284 654 269 649 C214 630 173 604 136 563 C70 489 28 356 28 223 C28 71 114 -15 266 -15 C359 -15 433 14 484 70 C531 122 560 203 560 283 C560 418 479 500 344 500 C301 500 279 494 233 472 C249 538 281 563 371 580 C496 603 557 644 570 712 L384 712 Z M310 387 C348 387 364 365 364 310 C364 266 355 194 347 165 C334 122 312 102 279 102 C240 102 223 127 223 183 C223 224 232 297 241 326 C255 368 276 387 310 387 L310 387 Z " />
<glyph glyph-name="afii10067" unicode="&#x432;" horiz-adv-x="564" d="M10 0 L316 0 C451 0 526 54 526 150 C526 210 494 238 400 258 C494 271 536 309 536 382 C536 458 482 497 378 497 L93 497 L10 0 Z M245 295 L261 393 L319 393 C353 393 366 381 366 350 C366 313 347 295 309 295 L245 295 Z M213 108 L232 220 L284 220 C331 220 348 209 348 177 C348 160 342 141 333 128 C323 113 308 108 278 108 L213 108 Z " />
<glyph glyph-name="afii10068" unicode="&#x433;" horiz-adv-x="414" d="M443 497 L93 497 L10 0 L201 0 L263 372 L422 372 L443 497 Z " />
<glyph glyph-name="afii10069" unicode="&#x434;" horiz-adv-x="526" d="M17 117 L-29 117 L-68 -113 L47 -113 L83 0 L361 0 L358 -113 L474 -113 L512 117 L466 117 L438 493 L185 493 L17 117 Z M151 117 L256 376 L275 376 L275 117 L151 117 Z " />
<glyph glyph-name="afii10070" unicode="&#x435;" horiz-adv-x="584" d="M552 213 C557 239 558 252 558 269 C558 417 463 511 313 511 C147 511 22 387 22 222 C22 79 120 -15 270 -15 C339 -15 397 4 451 46 C491 76 509 98 534 150 L368 177 C349 131 324 112 283 112 C238 112 209 140 209 183 C209 188 211 202 213 213 L552 213 Z M227 308 C237 365 270 400 315 400 C351 400 377 372 377 332 C377 327 376 317 374 308 L227 308 Z " />
<glyph glyph-name="afii10072" unicode="&#x436;" horiz-adv-x="803" d="M667 304 L861 497 L673 497 L531 323 L508 316 L538 497 L347 497 L316 316 L296 323 L212 497 L28 497 L150 258 L-55 0 L121 0 L261 207 L297 198 L264 0 L455 0 L488 198 L526 207 L598 0 L789 0 L667 304 Z " />
<glyph glyph-name="afii10073" unicode="&#x437;" horiz-adv-x="501" d="M171 205 C225 204 231 203 245 196 C259 189 266 177 266 159 C266 120 244 96 209 96 C176 96 159 115 157 155 L-18 130 C-13 95 -4 72 16 50 C56 2 107 -15 206 -15 C319 -15 385 5 432 55 C456 80 471 118 471 155 C471 213 442 244 371 265 C453 292 480 321 480 380 C480 465 405 511 267 511 C173 511 118 494 68 452 C41 428 26 406 14 371 L182 346 C195 383 211 396 243 396 C270 396 285 382 285 357 C285 332 274 313 255 305 C237 298 235 298 188 298 L171 205 Z " />
<glyph glyph-name="afii10074" unicode="&#x438;" horiz-adv-x="594" d="M209 43 L286 154 C315 195 327 214 362 271 C346 208 342 187 334 142 L310 0 L502 0 L585 497 L393 497 L385 443 L307 332 C279 292 267 273 232 216 C247 278 253 308 259 345 L284 497 L93 497 L10 0 L201 0 L209 43 Z " />
<glyph glyph-name="afii10075" unicode="&#x439;" horiz-adv-x="594" d="M209 43 L286 154 C315 195 327 214 362 271 C346 208 342 187 334 142 L310 0 L502 0 L585 497 L393 497 L385 443 L307 332 C279 292 267 273 232 216 C247 278 253 308 259 345 L284 497 L93 497 L10 0 L201 0 L209 43 Z M470 728 C441 679 410 659 363 659 C317 659 296 678 285 728 L201 728 C212 625 260 577 351 577 C401 577 450 595 488 627 C518 653 535 677 556 728 L470 728 Z " />
<glyph glyph-name="afii10076" unicode="&#x43a;" horiz-adv-x="564" d="M437 328 L614 497 L446 497 L253 305 L285 497 L100 497 L17 0 L202 0 L225 138 L297 209 L364 0 L552 0 L437 328 Z " />
<glyph glyph-name="afii10077" unicode="&#x43b;" horiz-adv-x="477" d="M-65 0 L73 0 L228 334 L235 334 L263 0 L459 0 L388 493 L181 493 L-65 0 Z " />
<glyph glyph-name="afii10078" unicode="&#x43c;" horiz-adv-x="787" d="M10 0 L154 0 L218 382 L227 382 L243 0 L431 0 L576 382 L585 382 L521 0 L695 0 L778 497 L524 497 L379 107 L364 497 L93 497 L10 0 Z " />
<glyph glyph-name="afii10079" unicode="&#x43d;" horiz-adv-x="581" d="M10 0 L201 0 L235 204 L331 204 L297 0 L488 0 L572 497 L380 497 L350 318 L255 318 L284 497 L93 497 L10 0 Z " />
<glyph glyph-name="afii10080" unicode="&#x43e;" horiz-adv-x="582" d="M310 511 C144 511 24 388 24 217 C24 146 44 95 89 51 C135 7 195 -15 267 -15 C433 -15 557 109 557 274 C557 418 460 511 310 511 L310 511 Z M305 393 C342 393 362 364 362 312 C362 269 353 209 340 170 C325 124 307 105 275 105 C238 105 217 134 217 184 C217 222 229 294 241 330 C255 373 275 393 305 393 L305 393 Z " />
<glyph glyph-name="afii10081" unicode="&#x43f;" horiz-adv-x="566" d="M10 0 L201 0 L265 384 L347 384 L282 0 L474 0 L557 497 L93 497 L10 0 Z " />
<glyph glyph-name="afii10082" unicode="&#x440;" horiz-adv-x="588" d="M93 493 L-19 -173 L168 -173 L207 58 C240 3 272 -16 332 -16 C400 -16 456 17 499 80 C540 141 563 218 563 295 C563 427 497 511 394 511 C332 511 298 488 255 414 L269 493 L93 493 Z M250 315 C266 369 282 387 316 387 C350 387 368 360 368 311 C368 284 361 239 350 190 C335 129 315 103 280 103 C249 103 229 128 229 168 C229 188 238 249 250 315 L250 315 Z " />
<glyph glyph-name="afii10083" unicode="&#x441;" horiz-adv-x="530" d="M346 192 C330 145 305 122 269 122 C234 122 214 148 214 193 C214 222 221 264 231 301 C244 351 267 376 299 376 C334 376 354 349 354 304 L354 294 L521 314 C520 365 510 395 483 429 C442 482 377 511 302 511 C212 511 130 469 82 399 C45 346 24 279 24 217 C24 81 120 -15 255 -15 C317 -15 380 8 423 46 C453 73 470 98 495 155 L346 192 Z " />
<glyph glyph-name="afii10084" unicode="&#x442;" horiz-adv-x="423" d="M77 0 L269 0 L332 377 L461 377 L481 497 L25 497 L5 377 L140 377 L77 0 Z " />
<glyph glyph-name="afii10085" unicode="&#x443;" horiz-adv-x="498" d="M531 497 L393 497 L299 284 L291 267 L282 245 C281 243 279 238 276 231 C272 253 270 267 268 275 C267 281 265 288 263 294 L221 497 L25 497 L144 30 C147 18 149 5 149 -2 C149 -29 125 -42 74 -42 C53 -42 30 -40 -18 -36 L-19 -168 C15 -174 32 -176 59 -176 C178 -176 234 -136 295 -7 L531 497 Z " />
<glyph glyph-name="afii10086" unicode="&#x444;" horiz-adv-x="740" d="M358 667 L330 504 C233 497 172 473 116 423 C56 368 25 293 25 205 C25 127 53 69 110 31 C146 6 183 -5 244 -10 L217 -173 L382 -173 L409 -12 C504 -7 560 11 613 55 C677 107 712 187 712 280 C712 351 687 407 636 448 C598 478 560 493 494 501 L522 667 L358 667 Z M478 403 C521 375 539 337 539 275 C539 180 502 118 425 86 L478 403 Z M262 95 C218 123 200 161 200 220 C200 314 244 388 315 415 L262 95 Z " />
<glyph glyph-name="afii10087" unicode="&#x445;" horiz-adv-x="522" d="M548 497 L392 497 L303 372 L242 497 L42 497 L149 274 L-58 0 L103 0 L217 163 L294 0 L498 0 L369 265 L548 497 Z " />
<glyph glyph-name="afii10088" unicode="&#x446;" horiz-adv-x="586" d="M10 0 L429 0 L427 -114 L539 -114 L578 120 L507 120 L570 497 L379 497 L316 120 L221 120 L284 497 L93 497 L10 0 Z " />
<glyph glyph-name="afii10089" unicode="&#x447;" horiz-adv-x="567" d="M282 0 L474 0 L557 497 L365 497 L327 266 C306 260 292 257 273 257 C248 257 237 265 238 283 C238 289 239 297 241 306 L273 497 L81 497 L47 293 C45 277 43 259 43 247 C43 177 90 137 170 137 C221 137 260 147 311 173 L282 0 Z " />
<glyph glyph-name="afii10090" unicode="&#x448;" horiz-adv-x="865" d="M10 0 L772 0 L855 497 L664 497 L601 120 L507 120 L570 497 L378 497 L315 120 L221 120 L284 497 L93 497 L10 0 Z " />
<glyph glyph-name="afii10091" unicode="&#x449;" horiz-adv-x="871" d="M10 0 L714 0 L712 -114 L824 -114 L863 120 L792 120 L855 497 L664 497 L601 120 L507 120 L570 497 L378 497 L315 120 L221 120 L284 497 L93 497 L10 0 Z " />
<glyph glyph-name="afii10092" unicode="&#x44a;" horiz-adv-x="595" d="M59 0 L342 0 C381 0 430 8 463 19 C526 41 566 103 566 181 C566 224 553 258 526 283 C494 313 450 326 377 326 L305 326 L334 497 L15 497 L-5 376 L122 377 L59 0 Z M263 111 L281 220 L325 220 C377 220 393 209 393 175 C393 131 373 111 327 111 L263 111 Z " />
<glyph glyph-name="afii10093" unicode="&#x44b;" horiz-adv-x="823" d="M10 0 L293 0 C332 0 381 8 414 19 C477 41 517 103 517 181 C517 224 504 258 477 283 C445 314 401 326 328 326 L256 326 L284 497 L93 497 L10 0 Z M214 111 L232 220 L276 220 C328 220 344 209 344 175 C344 131 323 111 278 111 L214 111 Z M539 0 L731 0 L814 497 L622 497 L539 0 Z " />
<glyph glyph-name="afii10094" unicode="&#x44c;" horiz-adv-x="546" d="M10 0 L293 0 C332 0 381 8 414 19 C477 41 517 103 517 181 C517 224 504 258 477 283 C445 314 401 326 328 326 L256 326 L284 497 L93 497 L10 0 Z M214 111 L232 220 L276 220 C328 220 344 209 344 175 C344 131 323 111 278 111 L214 111 Z " />
<glyph glyph-name="afii10095" unicode="&#x44d;" horiz-adv-x="544" d="M115 198 L312 198 C305 132 282 105 234 105 C198 105 174 123 170 155 L-10 130 C23 26 84 -15 208 -15 C298 -15 366 6 421 52 C486 105 522 184 522 271 C522 338 499 398 457 441 C410 489 348 511 262 511 C148 511 67 464 23 371 L199 346 C208 377 227 391 260 391 C300 391 321 370 321 327 C321 324 320 313 319 305 L133 305 L115 198 Z " />
<glyph glyph-name="afii10096" unicode="&#x44e;" horiz-adv-x="865" d="M315 193 C325 67 418 -15 552 -15 C717 -15 841 109 841 275 C841 418 744 512 595 512 C465 512 363 435 327 311 L253 311 L284 497 L93 497 L10 0 L201 0 L234 193 L315 193 Z M589 394 C626 394 646 365 646 313 C646 270 637 210 624 170 C609 124 591 105 559 105 C522 105 501 134 501 185 C501 222 513 295 525 331 C539 374 559 394 589 394 L589 394 Z " />
<glyph glyph-name="afii10097" unicode="&#x44f;" horiz-adv-x="551" d="M266 0 L458 0 L541 497 L219 497 C113 497 41 430 41 332 C41 279 59 248 102 223 L-35 0 L130 0 L234 187 L298 187 L266 0 Z M322 295 L253 295 C226 295 216 304 216 330 C216 371 233 390 269 390 L338 390 L322 295 Z " />
<glyph glyph-name="uni0450" unicode="&#x450;" horiz-adv-x="652" d="M332 260 L323 309 L314 360 L263 667 L59 667 L189 0 L353 0 L560 456 C580 501 589 517 595 517 C598 517 602 515 607 513 C622 503 650 495 667 495 C705 495 737 529 737 571 C737 618 697 650 638 650 C560 650 492 602 458 523 L399 389 L374 329 C365 308 356 287 347 265 C346 263 342 252 336 236 L332 260 Z " />
<glyph glyph-name="afii10071" unicode="&#x451;" horiz-adv-x="584" d="M552 213 C557 239 558 252 558 269 C558 417 463 511 313 511 C147 511 22 387 22 222 C22 79 120 -15 270 -15 C339 -15 397 4 451 46 C491 76 509 98 534 150 L368 177 C349 131 324 112 283 112 C238 112 209 140 209 183 C209 188 211 202 213 213 L552 213 Z M227 308 C237 365 270 400 315 400 C351 400 377 372 377 332 C377 327 376 317 374 308 L227 308 Z M423 709 C388 709 359 680 359 645 C359 609 388 580 424 580 C459 580 488 609 488 644 C488 680 460 709 423 709 L423 709 Z M242 709 C207 709 178 680 178 645 C178 609 207 580 243 580 C278 580 307 609 307 643 C307 680 279 709 242 709 L242 709 Z " />
<glyph glyph-name="afii10099" unicode="&#x452;" horiz-adv-x="581" d="M17 0 L199 0 L241 254 C252 300 252 300 254 306 C263 329 289 346 315 346 C343 346 356 331 356 298 C356 263 335 125 315 32 C301 -37 290 -50 241 -54 L230 -174 C258 -175 264 -175 276 -175 C398 -175 460 -125 490 -1 C510 80 547 315 547 361 C547 440 505 480 422 480 C360 480 316 459 267 408 L289 537 L479 537 L494 627 L304 627 L313 680 L131 680 L122 627 L49 627 L34 537 L107 537 L17 0 Z " />
<glyph glyph-name="afii10100" unicode="&#x453;" horiz-adv-x="414" d="M443 497 L93 497 L10 0 L201 0 L263 372 L422 372 L443 497 Z M190 630 L215 567 L448 651 L415 743 L190 630 Z " />
<glyph glyph-name="afii10101" unicode="&#x454;" horiz-adv-x="551" d="M432 305 L240 305 C245 366 268 392 316 392 C348 392 364 378 370 346 L551 371 C525 461 443 511 323 511 C225 511 150 479 95 414 C50 360 24 287 24 213 C24 148 43 96 80 55 C125 7 187 -15 281 -15 C400 -15 472 27 529 130 L355 155 C343 122 319 105 284 105 C243 105 221 128 221 173 C221 177 222 189 223 198 L414 198 L432 305 Z " />
<glyph glyph-name="afii10102" unicode="&#x455;" horiz-adv-x="523" d="M503 380 C487 421 469 443 428 468 C381 497 328 511 263 511 C127 511 37 441 37 334 C37 252 91 206 216 178 C294 161 297 160 305 154 C310 149 313 144 313 138 C313 117 286 102 248 102 C190 102 160 118 144 160 L-10 138 C4 87 21 61 58 36 C106 2 168 -15 246 -15 C319 -15 379 0 422 31 C466 61 493 113 493 166 C493 224 461 269 400 297 C378 307 329 319 264 332 C228 338 214 348 214 367 C214 387 235 400 269 400 C315 400 345 383 358 348 L503 380 Z " />
<glyph glyph-name="afii10103" unicode="&#x456;" horiz-adv-x="294" d="M315 682 L124 682 L100 537 L291 537 L315 682 Z M284 497 L93 497 L10 0 L201 0 L284 497 Z " />
<glyph glyph-name="afii10104" unicode="&#x457;" horiz-adv-x="295" d="M284 497 L93 497 L10 0 L201 0 L284 497 Z M295 709 C260 709 231 680 231 645 C231 609 260 580 296 580 C331 580 360 609 360 644 C360 680 332 709 295 709 L295 709 Z M117 709 C82 709 53 680 53 645 C53 609 82 580 118 580 C153 580 182 609 182 643 C182 680 154 709 117 709 L117 709 Z " />
<glyph glyph-name="afii10105" unicode="&#x458;" horiz-adv-x="302" d="M323 682 L130 682 L106 537 L299 537 L323 682 Z M292 497 L99 497 L28 67 C14 -12 14 -12 2 -23 C-10 -32 -28 -37 -55 -37 C-67 -37 -74 -36 -89 -33 L-104 -168 C-69 -174 -53 -176 -27 -176 C27 -176 74 -168 104 -155 C169 -125 195 -83 212 18 L292 497 Z " />
<glyph glyph-name="afii10106" unicode="&#x459;" horiz-adv-x="733" d="M397 326 L392 493 L181 493 L-65 0 L73 0 L228 334 L235 334 L225 0 L479 0 C518 0 567 8 600 19 C663 41 703 103 703 181 C703 224 690 258 663 283 C631 313 587 326 514 326 L397 326 Z M400 220 L462 220 C514 220 530 209 530 175 C530 131 510 111 464 111 L403 111 L400 220 Z " />
<glyph glyph-name="afii10107" unicode="&#x45a;" horiz-adv-x="833" d="M331 204 L297 0 L580 0 C619 0 668 8 701 19 C765 41 804 103 804 181 C804 224 791 258 764 283 C732 314 688 326 615 326 L534 326 L562 497 L380 497 L350 318 L248 318 L278 497 L93 497 L10 0 L195 0 L229 204 L331 204 Z M495 111 L513 220 L563 220 C614 220 630 210 630 180 C630 131 611 111 565 111 L495 111 Z " />
<glyph glyph-name="afii10108" unicode="&#x45b;" horiz-adv-x="591" d="M122 627 L49 627 L34 537 L107 537 L17 0 L208 0 L251 254 C261 300 261 300 264 306 C272 329 298 346 324 346 C348 346 360 334 360 308 C360 299 359 288 356 272 L311 0 L502 0 L552 296 C557 331 561 360 561 372 C561 436 507 480 430 480 C370 480 325 459 277 408 L298 537 L479 537 L494 627 L313 627 L322 680 L131 680 L122 627 Z " />
<glyph glyph-name="afii10109" unicode="&#x45c;" horiz-adv-x="564" d="M437 328 L614 497 L446 497 L253 305 L285 497 L100 497 L17 0 L202 0 L225 138 L297 209 L364 0 L552 0 L437 328 Z M265 630 L290 567 L524 651 L483 742 L265 630 Z " />
<glyph glyph-name="uni045D" unicode="&#x45d;" horiz-adv-x="498" d="M274 224 L218 493 L25 493 L151 0 L295 0 L441 301 C471 362 471 362 477 362 C479 362 483 360 488 358 C504 348 531 340 548 340 C586 340 618 374 618 416 C618 439 608 461 591 473 C572 487 533 500 510 500 C480 500 438 484 411 463 C384 441 360 407 334 353 L274 224 Z " />
<glyph glyph-name="afii10110" unicode="&#x45e;" horiz-adv-x="498" d="M544 497 L409 497 L312 284 C307 275 305 269 304 267 L295 245 C294 243 292 238 289 231 C285 253 283 267 281 275 C280 281 278 288 276 294 L234 497 L38 497 L157 30 C160 18 162 5 162 -2 C162 -29 138 -42 87 -42 C66 -42 43 -40 -5 -36 L-6 -168 C28 -174 45 -176 72 -176 C191 -176 247 -136 308 -7 L544 497 Z M435 728 C406 679 375 659 328 659 C282 659 261 678 250 728 L166 728 C177 625 225 577 316 577 C366 577 415 595 453 627 C483 653 500 677 521 728 L435 728 Z " />
<glyph glyph-name="afii10193" unicode="&#x45f;" horiz-adv-x="580" d="M10 0 L177 0 L172 -114 L286 -114 L320 0 L487 0 L570 497 L379 497 L316 122 L222 122 L284 497 L93 497 L10 0 Z " />
<glyph glyph-name="afii10050" unicode="&#x490;" horiz-adv-x="478" d="M576 794 L441 794 L420 667 L129 667 L17 0 L210 0 L296 514 L529 514 L576 794 Z " />
<glyph glyph-name="afii10098" unicode="&#x491;" horiz-adv-x="414" d="M314 497 L93 497 L10 0 L201 0 L263 372 L422 372 L463 614 L333 614 L314 497 Z " />
<glyph glyph-name="uni0492" unicode="&#x492;" horiz-adv-x="533" d="M253 254 L467 254 L491 399 L277 399 L297 517 L573 517 L598 667 L129 667 L84 399 L46 399 L22 254 L59 254 L17 0 L210 0 L253 254 Z " />
<glyph glyph-name="uni0493" unicode="&#x493;" horiz-adv-x="417" d="M230 169 L308 169 L329 296 L251 296 L264 372 L422 372 L443 497 L94 497 L60 296 L31 296 L10 169 L39 169 L10 0 L202 0 L230 169 Z " />
<glyph glyph-name="uni0496" unicode="&#x496;" horiz-adv-x="1024" d="M841 0 L827 -171 L947 -171 L994 108 L858 108 L851 94 L728 348 L964 667 L777 667 L579 391 L552 384 L599 667 L430 667 L383 387 L358 394 L268 667 L74 667 L199 350 L-71 0 L120 0 L338 279 L363 271 L318 0 L487 0 L533 271 L560 279 L695 0 L841 0 Z " />
<glyph glyph-name="uni0497" unicode="&#x497;" horiz-adv-x="898" d="M702 0 L688 -194 L803 -194 L849 80 L757 80 L667 304 L861 497 L673 497 L531 323 L508 316 L538 497 L347 497 L316 316 L296 323 L212 497 L28 497 L150 258 L-55 0 L121 0 L261 207 L297 198 L264 0 L455 0 L488 198 L526 207 L598 0 L702 0 Z " />
<glyph glyph-name="uni049A" unicode="&#x49a;" horiz-adv-x="699" d="M562 133 L475 414 L700 667 L509 667 L414 560 L365 501 C285 406 281 401 263 360 L269 396 L278 452 L286 501 L293 542 L314 667 L129 667 L17 0 L202 0 L230 162 L331 275 L406 0 L511 0 L499 -146 L619 -146 L666 133 L562 133 Z " />
<glyph glyph-name="uni049B" unicode="&#x49b;" horiz-adv-x="651" d="M465 0 L452 -167 L568 -167 L614 107 L515 107 L437 328 L614 497 L446 497 L253 305 L285 497 L100 497 L17 0 L202 0 L225 138 L297 209 L364 0 L465 0 Z " />
<glyph glyph-name="uni049C" unicode="&#x49c;" horiz-adv-x="643" d="M272 209 L249 64 L319 64 L345 222 L406 0 L603 0 L475 414 L700 667 L509 667 L414 560 L399 542 L412 619 L341 619 L311 436 C286 407 275 388 263 360 L269 395 L278 452 L286 501 L293 542 L314 667 L129 667 L17 0 L202 0 L230 162 L272 209 Z " />
<glyph glyph-name="uni049D" unicode="&#x49d;" horiz-adv-x="567" d="M248 161 L232 56 L307 56 L320 139 L364 0 L552 0 L437 328 L614 497 L446 497 L368 419 L376 471 L301 471 L278 330 L253 305 L285 497 L100 497 L17 0 L202 0 L225 138 L248 161 Z " />
<glyph glyph-name="uni04A2" unicode="&#x4a2;" horiz-adv-x="732" d="M599 133 L689 667 L495 667 L454 421 L281 421 L322 667 L129 667 L17 0 L210 0 L255 268 L429 268 L384 0 L540 0 L529 -146 L649 -146 L695 133 L599 133 Z " />
<glyph glyph-name="uni04A3" unicode="&#x4a3;" horiz-adv-x="629" d="M443 0 L431 -163 L547 -163 L593 111 L507 111 L572 497 L380 497 L350 318 L255 318 L284 497 L93 497 L10 0 L201 0 L235 204 L331 204 L297 0 L443 0 Z " />
<glyph glyph-name="uni04AE" unicode="&#x4ae;" horiz-adv-x="591" d="M671 667 L490 667 L371 489 C367 483 359 471 349 454 L338 437 C329 465 329 466 320 489 L253 667 L42 667 L199 298 L149 0 L348 0 L396 289 L671 667 Z " />
<glyph glyph-name="uni04AF" unicode="&#x4af;" horiz-adv-x="507" d="M540 497 L398 497 L266 221 L230 497 L21 497 L125 8 L96 -166 L256 -166 L286 11 L540 497 Z " />
<glyph glyph-name="uni04B0" unicode="&#x4b0;" horiz-adv-x="584" d="M198 292 L133 292 L110 153 L174 153 L149 0 L348 0 L373 153 L465 153 L488 292 L398 292 L671 667 L490 667 L371 490 C365 481 359 471 349 455 L338 438 C330 466 329 466 320 490 L253 667 L42 667 L199 299 L198 292 Z " />
<glyph glyph-name="uni04B1" unicode="&#x4b1;" horiz-adv-x="500" d="M315 67 L540 497 L398 497 L266 222 L230 497 L21 497 L113 67 L51 67 L27 -72 L111 -72 L96 -166 L256 -166 L272 -72 L349 -72 L372 67 L315 67 Z " />
<glyph glyph-name="uni04B2" unicode="&#x4b2;" horiz-adv-x="703" d="M514 0 L502 -148 L622 -148 L669 132 L524 132 L524 129 L421 346 L663 667 L484 667 L398 548 L382 526 L362 499 C361 496 356 490 350 482 C337 514 333 524 329 532 L269 667 L57 667 L206 356 L-55 0 L125 0 L248 177 L259 193 L270 208 C271 209 273 213 277 218 C284 205 290 192 291 190 C293 184 296 177 299 170 L373 0 L514 0 Z " />
<glyph glyph-name="uni04B3" unicode="&#x4b3;" horiz-adv-x="606" d="M444 111 L369 265 L548 497 L392 497 L303 372 L242 497 L42 497 L149 274 L-58 0 L103 0 L217 163 L294 0 L412 0 L400 -163 L516 -163 L561 111 L444 111 Z " />
<glyph glyph-name="uni04B6" unicode="&#x4b6;" horiz-adv-x="655" d="M577 131 L667 667 L473 667 L422 358 C378 343 357 339 325 339 C283 339 264 351 264 378 C264 389 264 389 272 439 L310 667 L116 667 L78 439 C70 392 67 362 67 341 C67 244 130 190 242 190 C298 190 343 204 402 242 L362 0 L554 0 L543 -148 L663 -148 L710 131 L577 131 Z " />
</font>
</svg>
