<?xml version="1.0" standalone="no"?>
<!DOCTYPE svg PUBLIC "-//W3C//DTD SVG 1.1//EN" "http://www.w3.org/Graphics/SVG/1.1/DTD/svg11.dtd" >
<svg xmlns="http://www.w3.org/2000/svg">
<metadata>
Created by FontPrep 20130207 at Wed Nov 23 14:29:06 2016
 By Tina Muller
Copyright (c) 2016 by Enrique Hernandez Vasquez. All rights reserved.
</metadata>
<defs>
<font id="96649c4849e4170ba2fc615c8f70b866" horiz-adv-x='1024' >
  <font-face 
    font-family="IsidoraAlt-Regular"
    font-weight="400"
    font-stretch="normal"
    units-per-em="2048"
    panose-1="0 0 5 0 0 0 0 0 0 0"
    ascent="1638"
    descent="-410"
    x-height="1024"
    cap-height="1331"
    bbox="-281 -717 2636 1800"
    underline-thickness="102"
    underline-position="-102"
    unicode-range="U+0020-FB02"
  />
<missing-glyph horiz-adv-x="1177" 
d="M784 -289h-391v-78h166l-166 -110v-78h391v78h-239l164 110h75v78zM707 -45v-111h-236v111h236zM784 33h-391v-266h391v266zM784 440h-235v-133h80v55h78v-110h-236v188h-78v-266h391v266zM784 727h-77v-156h-314v-79h391v235zM784 868h-391v-77h156v-89h-156v-75h236
v164h155v77zM549 1096v-84h-78v84h78zM629 1178h-236v-246h391v80h-155v166zM784 1481h-389v-78h154v-88h-156v-78h391v78h-155v88h155v78zM965 1638v-2355h-746v2355h746z" />
    <glyph glyph-name="fi" unicode="fi" horiz-adv-x="1030" 
d="M797 1130q-39 0 -68 29t-29 68t29 67t68 29q39 0 67 -29q28 -30 27 -68q1 -38 -27 -67t-67 -29zM745 135v803h-428v-1112q-1 -72 -37 -115t-98 -43t-94 27l-4 8l22 68l9 4q18 -18 47 -19q55 0 55 97v1085h-178v86h178v39q0 178 81 266t214 88q74 0 139 -35l2 -10l-35 -67
l-8 -5q-47 27 -98 27q-195 0 -195 -264v-39h529v-864q0 -94 55 -94q29 0 45 16l8 -2l25 -68q-22 -37 -91 -37t-106 44t-37 116z" />
    <glyph glyph-name="fl" unicode="fl" horiz-adv-x="1040" 
d="M886 -25q-60 0 -98 44q-37 44 -36 116v1077q-37 115 -199 115q-109 0 -172 -69t-64 -195v-39h326v-86h-326v-1112q-1 -72 -37 -115t-98 -43t-94 27l-4 8l22 68l9 4q18 -18 47 -19q55 0 55 97v1085h-178v86h178v39q0 170 92 262q93 92 239 92t225 -62t79 -159v-1036
q0 -94 55 -94q27 0 47 16l9 -2l22 -68l-4 -10q-35 -27 -95 -27z" />
    <glyph glyph-name=".notdef" horiz-adv-x="1177" 
d="M784 -289h-391v-78h166l-166 -110v-78h391v78h-239l164 110h75v78zM707 -45v-111h-236v111h236zM784 33h-391v-266h391v266zM784 440h-235v-133h80v55h78v-110h-236v188h-78v-266h391v266zM784 727h-77v-156h-314v-79h391v235zM784 868h-391v-77h156v-89h-156v-75h236
v164h155v77zM549 1096v-84h-78v84h78zM629 1178h-236v-246h391v80h-155v166zM784 1481h-389v-78h154v-88h-156v-78h391v78h-155v88h155v78zM965 1638v-2355h-746v2355h746z" />
    <glyph glyph-name=".null" horiz-adv-x="0" 
 />
    <glyph glyph-name="nonmarkingreturn" horiz-adv-x="681" 
 />
    <glyph glyph-name="space" unicode=" " horiz-adv-x="524" 
 />
    <glyph glyph-name="exclam" unicode="!" horiz-adv-x="442" 
d="M221 154q41 0 69 -28t28 -69t-28 -69t-69 -27q-41 0 -69 28q-28 29 -27 69q-1 40 27 68t69 28zM162 1325l6 6h104l7 -6l-13 -1051l-10 -6h-72l-8 6z" />
    <glyph glyph-name="quotedbl" unicode="&#x22;" horiz-adv-x="595" 
d="M383 854l-25 477h109l-25 -477h-59zM154 854l-25 477h109l-25 -477h-59z" />
    <glyph glyph-name="numbersign" unicode="#" horiz-adv-x="1161" 
d="M422 481h307l49 369h-305zM264 0l55 395h-245l12 86h246l51 369h-252l12 86h252l54 393h90l-54 -393h308l53 393h90l-53 -393h207l-13 -86h-209l-49 -369h211l-12 -86h-211l-55 -395h-90l55 395h-307l-56 -395h-90z" />
    <glyph glyph-name="dollar" unicode="$" horiz-adv-x="892" 
d="M803 414q0 -119 -86 -195t-221 -86v-156h-90v156q-211 18 -330 184v9l65 51h9q96 -156 294 -156q113 0 185 52t71 139q0 48 -25 84t-52 55q-27 17 -41 27t-47 24t-47 20t-54 22q-74 28 -163 74q-144 74 -144 216q0 110 78 184t201 84v150h90v-152q178 -23 268 -156v-8
l-66 -51h-8q-92 127 -250 127q-94 0 -152 -47t-58 -118t52 -115q53 -44 275 -132q85 -36 111 -57q87 -68 100 -95q35 -79 35 -134z" />
    <glyph glyph-name="percent" unicode="%" horiz-adv-x="1542" 
d="M1176 61q88 0 140 82t52 216t-52 216t-140 82t-142 -82t-53 -216q-1 -134 53 -216t142 -82zM1176 -25q-127 1 -207 107t-80 278t79 278t207 105q129 0 207 -105q78 -106 78 -278t-78 -278t-206 -107zM369 674q88 0 141 82t53 216t-53 216t-141 82q-89 0 -141 -82
t-52 -216t52 -216t141 -82zM207 12l1022 1319h94l4 -12l-1020 -1319h-96zM369 588q-127 0 -206 105t-79 277t79 279t206 107t207 -106t79 -279q1 -171 -79 -277t-207 -106z" />
    <glyph glyph-name="ampersand" unicode="&#x26;" horiz-adv-x="1185" 
d="M201 412q0 -150 104 -245q103 -95 255 -95t263 84l-352 485l-63 92q-88 -39 -148 -123t-59 -198zM94 408q0 141 77 247t183 158q-98 161 -98 277t91 191t231 75q182 0 301 -150v-8l-66 -57h-8q-92 121 -225 121q-92 -2 -154 -52t-61 -135q-1 -53 31 -123t63 -118t98 -142
l336 -463q59 84 59 207t-88 221v9l78 53h8q111 -133 111 -294t-103 -284q63 -78 113 -78q31 0 53 15l9 -6l16 -70l-2 -6q-35 -20 -80 -21q-92 0 -182 101q-133 -100 -327 -100t-329 121q-135 122 -135 311z" />
    <glyph glyph-name="quotesingle" unicode="'" horiz-adv-x="366" 
d="M154 854l-25 477h109l-25 -477h-59z" />
    <glyph glyph-name="parenleft" unicode="(" horiz-adv-x="546" 
d="M211 573q0 -492 307 -872h-117q-301 403 -301 872t301 873h117q-307 -381 -307 -873z" />
    <glyph glyph-name="parenright" unicode=")" horiz-adv-x="546" 
d="M338 574q0 492 -307 872h116q301 -402 301 -872t-301 -873h-116q307 381 307 873z" />
    <glyph glyph-name="asterisk" unicode="*" horiz-adv-x="921" 
d="M420 1372h82v-297l258 150l43 -74l-258 -147l258 -150l-43 -72l-258 150v-299h-82v299l-258 -150l-43 72l258 150l-258 147l43 72l258 -148v297z" />
    <glyph glyph-name="plus" unicode="+" horiz-adv-x="1103" 
d="M1024 657v-82h-426v-413h-90v413h-428v82h428v406h90v-406h426z" />
    <glyph glyph-name="comma" unicode="," horiz-adv-x="442" 
d="M123 72q0 40 29 68q28 28 68 28t68 -29t27 -71q4 -139 -165 -359h-9l-51 41v6q88 125 96 226q-63 22 -63 90z" />
    <glyph glyph-name="hyphen" unicode="-" horiz-adv-x="964" 
d="M139 657h686v-86h-686v86z" />
    <glyph glyph-name="period" unicode="." horiz-adv-x="432" 
d="M217 -10q-41 0 -69 28t-27 68q0 41 27 69q28 27 69 27t69 -28t28 -68q0 -41 -28 -69q-28 -27 -69 -27z" />
    <glyph glyph-name="slash" unicode="/" horiz-adv-x="1019" 
d="M872 1442h91l8 -10l-821 -1541h-89l-10 11z" />
    <glyph glyph-name="zero" unicode="0" horiz-adv-x="1222" 
d="M610 1260q-178 0 -286 -164t-109 -429q0 -265 109 -430q108 -165 286 -165t287 165t109 430t-109 429t-287 164zM1112 666q0 -310 -138 -500t-364 -190t-362 190q-137 190 -137 500t137 499q137 191 362 191q226 0 364 -190t138 -500z" />
    <glyph glyph-name="one" unicode="1" horiz-adv-x="593" 
d="M375 1331v-1331h-103v1237h-221l-4 10l31 84h297z" />
    <glyph glyph-name="two" unicode="2" horiz-adv-x="1024" 
d="M936 90v-90h-864v76q35 35 100 98q356 344 461 473q153 191 153 327t-81 212q-82 76 -218 76q-178 0 -315 -162h-10l-62 53v8q162 195 387 195q182 0 294 -102t112 -273q0 -88 -37 -175t-138 -208q-100 -121 -196 -217t-299 -291h713z" />
    <glyph glyph-name="three" unicode="3" horiz-adv-x="1048" 
d="M940 347q0 -149 -120 -261t-320 -111q-119 1 -237 53t-195 142v8l61 58h8q63 -78 161 -122t202 -44q150 0 242 84t94 219q0 135 -104 221t-269 86h-78v80h82q133 0 225 75t92 185t-78 176q-79 66 -202 66q-186 0 -303 -134h-8l-62 54v8q156 166 381 166q164 0 272 -89
t107 -237q-1 -104 -57 -183t-154 -120q124 -41 192 -136t68 -244z" />
    <glyph glyph-name="four" unicode="4" horiz-adv-x="1091" 
d="M733 436v688l-567 -688h567zM1014 436v-90h-178v-346h-105v346h-694v76l749 909h50v-895h178z" />
    <glyph glyph-name="five" unicode="5" horiz-adv-x="1091" 
d="M568 872q184 0 312 -126t128 -324t-136 -322q-136 -125 -342 -125q-276 0 -436 193v8l64 57h8q135 -164 356 -163q164 0 273 99t109 255t-102 254q-101 98 -259 98q-107 0 -199 -45t-137 -110h-10l-74 36l104 674h674v-96h-588l-71 -457q142 94 326 94z" />
    <glyph glyph-name="six" unicode="6" horiz-adv-x="1101" 
d="M568 70q167 0 268 100q100 100 100 252t-100 251t-266 99t-267 -100q-102 -100 -102 -251t100 -251t267 -100zM569 868q207 0 340 -127t133 -319t-133 -320q-133 -127 -340 -127t-340 127t-133 320q-2 397 520 948h9l65 -53v-8q-283 -289 -414 -549q129 108 293 108z" />
    <glyph glyph-name="seven" unicode="7" horiz-adv-x="907" 
d="M33 1331h850v-55l-566 -1276h-106l-4 6l545 1227h-719v98z" />
    <glyph glyph-name="eight" unicode="8" horiz-adv-x="1146" 
d="M574 70q159 0 265 89q105 89 105 227t-105 228t-265 90t-265 -88q-106 -90 -106 -229t106 -228t265 -89zM305 1028q0 -104 76 -170q77 -66 193 -66t192 66t76 170t-76 169t-193 65t-193 -65t-75 -169zM1049 385q-1 -176 -137 -293t-339 -117t-339 117t-136 293
q0 129 73 226t196 145q-170 88 -170 272q0 143 107 236q108 92 270 92t269 -92q108 -92 107 -236q0 -186 -168 -274q123 -46 195 -144t72 -225z" />
    <glyph glyph-name="nine" unicode="9" horiz-adv-x="1101" 
d="M532 557q166 0 268 100q101 100 101 251t-100 251q-99 101 -267 101t-268 -100t-100 -252q0 -151 100 -251t266 -100zM514 463q-188 0 -320 127t-132 318q0 190 132 318q134 128 340 128t340 -124q132 -124 133 -321t-137 -445t-385 -503h-8l-63 51v8q287 293 424 568
q-135 -125 -324 -125z" />
    <glyph glyph-name="colon" unicode=":" horiz-adv-x="473" 
d="M238 -12q-41 0 -69 28t-28 68q0 39 28 68q28 28 69 28q40 0 68 -28t28 -68t-28 -68t-68 -28zM238 860q-41 0 -69 29t-28 67t28 68q28 29 69 29q40 0 68 -29t28 -68q0 -40 -28 -68t-68 -28z" />
    <glyph glyph-name="semicolon" unicode=";" horiz-adv-x="520" 
d="M170 72q0 40 28 68t68 28t69 -29q28 -29 27 -71q4 -139 -165 -359h-9l-51 41v6q88 125 96 226q-63 22 -63 90zM270 868q-42 0 -70 29t-28 68t29 69t69 29q40 0 68 -29q29 -28 29 -68t-28 -69t-69 -29z" />
    <glyph glyph-name="less" unicode="&#x3c;" horiz-adv-x="991" 
d="M858 1063l-4 -8l-668 -396l668 -395l4 -8v-86l-8 -6l-784 463v65l784 463l8 -6v-86z" />
    <glyph glyph-name="equal" unicode="=" horiz-adv-x="1234" 
d="M147 430h943v-86h-943v86zM147 885h943v-86h-943v86z" />
    <glyph glyph-name="greater" unicode="&#x3e;" horiz-adv-x="991" 
d="M141 1155l785 -463v-65l-785 -463l-8 6v86l4 8l668 395l-668 396l-4 8v86z" />
    <glyph glyph-name="question" unicode="?" horiz-adv-x="999" 
d="M500 154q40 0 68 -28t28 -69t-28 -69t-68 -27q-40 0 -69 28q-28 29 -28 69t28 68t69 28zM499 1356q173 0 294 -104t120 -261q0 -111 -61 -195q-35 -48 -51 -68q-17 -20 -73 -74q-56 -52 -60 -56q-66 -62 -92 -112t-25 -124v-86h-102v84q0 96 35 163q36 67 110 136
q12 11 52 49q124 116 147 194q12 40 12 83q0 123 -93 200q-92 77 -222 77t-217 -75t-117 -186l-9 -4l-86 23l-2 8q35 140 151 234t289 94z" />
    <glyph glyph-name="at" unicode="@" horiz-adv-x="1746" 
d="M815 225q125 0 208 85t83 221q0 137 -82 221t-208 84t-206 -88t-80 -218t80 -217q80 -88 205 -88zM864 -248q-317 0 -541 218t-225 542q0 324 224 542t556 218q334 0 546 -204t212 -511q0 -199 -90 -307t-223 -107q-86 0 -139 47t-66 127q-98 -166 -307 -165
q-164 0 -266 108q-103 108 -103 272q0 162 102 270t269 107q195 0 293 -155v151h80v-504q0 -178 135 -178q92 0 156 90q63 90 63 248q0 271 -188 447t-480 176t-485 -194t-193 -484t192 -477q191 -188 480 -189q201 0 365 111h8l45 -62v-8q-168 -129 -420 -129z" />
    <glyph glyph-name="A" unicode="A" horiz-adv-x="1435" 
d="M399 414h633l-313 747zM1327 -25q-57 0 -98 35t-80 127l-76 182h-713l-77 -182q-39 -92 -81 -127t-98 -35t-94 29l-4 8l27 74l8 2q25 -16 55 -16t47 18q18 18 47 84l498 1157h66l489 -1157q29 -66 48 -84t50 -18t52 16l8 -2l26 -74l-4 -8q-39 -29 -96 -29z" />
    <glyph glyph-name="B" unicode="B" horiz-adv-x="1261" 
d="M727 94q143 0 230 75t87 200t-91 201t-238 75h-410v-551h422zM678 1237h-373v-504h383q139 0 217 67q78 66 78 186t-81 186t-224 65zM1151 365q0 -165 -115 -265t-334 -100h-501v1331h465q211 0 317 -93t107 -251q0 -102 -54 -177t-141 -114q111 -39 183 -124t73 -207z
" />
    <glyph glyph-name="C" unicode="C" horiz-adv-x="1411" 
d="M207 667q0 -253 169 -423t421 -170q141 0 263 59.5t200 163.5h8l71 -55v-9q-96 -121 -237 -189.5t-305 -68.5q-297 0 -497 199t-200 491.5t200 491.5t497 199q164 0 305 -68.5t237 -189.5v-8l-71 -56h-8q-78 104 -200 163.5t-263 59.5q-252 0 -421 -168.5t-169 -421.5z
" />
    <glyph glyph-name="D" unicode="D" horiz-adv-x="1468" 
d="M680 94q266 0 422 156t155 416q1 260 -155 416t-422 155h-375v-1143h375zM680 1331q314 0 500 -182t186 -483q0 -302 -186 -484t-500 -182h-479v1331h479z" />
    <glyph glyph-name="E" unicode="E" horiz-adv-x="1128" 
d="M1040 1237h-735v-518h580v-92h-580v-533h735v-94h-839v1331h839v-94z" />
    <glyph glyph-name="F" unicode="F" horiz-adv-x="1026" 
d="M983 1237h-678v-518h537v-92h-537v-627h-104v1331h782v-94z" />
    <glyph glyph-name="G" unicode="G" horiz-adv-x="1536" 
d="M1470 639q0 -276 -195.5 -470t-486 -194t-489.5 199t-199 491.5t200 491.5t495 199q168 0 309 -67.5t235 -186.5v-8l-71 -60h-8q-80 104 -202 163.5t-265 59.5q-248 0 -417 -168.5t-169 -421.5t169 -423t410 -170t407.5 154.5t168.5 375.5h-563v94h661l8 -10q2 -18 2 -49
z" />
    <glyph glyph-name="H" unicode="H" horiz-adv-x="1476" 
d="M1171 1331h105v-1331h-105v627h-866v-627h-104v1331h104v-612h866v612z" />
    <glyph glyph-name="I" unicode="I" horiz-adv-x="714" 
d="M637 1241h-227v-1149h227v-92h-559v92h227v1149h-227v90h559v-90z" />
    <glyph glyph-name="J" unicode="J" horiz-adv-x="1015" 
d="M274 1331h557v-960q0 -184 -111 -290q-112 -105 -276 -106q-252 0 -383 201v8l72 60h8q113 -172 301 -172q123 0 204 82t81 219v864h-453v94z" />
    <glyph glyph-name="K" unicode="K" horiz-adv-x="1210" 
d="M172 1356q70 0 107.5 -44t37.5 -116v-575l680 710h125l4 -6l-598 -627l445 -520q94 -106 155 -106q33 0 60 16l10 -2l25 -74l-4 -8q-37 -29 -97 -29q-109 0 -243 156l-422 492l-140 -146v-477h-106v1165q0 94 -55 95q-31 0 -47 -17l-11 2l-24 74q28 37 98 37z" />
    <glyph glyph-name="L" unicode="L" horiz-adv-x="1005" 
d="M967 94v-94h-766v1331h104v-1237h662z" />
    <glyph glyph-name="M" unicode="M" horiz-adv-x="1777" 
d="M1626 -25q-139 0 -162 203l-100 893l-442 -1071h-66l-442 1075l-101 -897q-23 -203 -159 -203q-53 0 -93 29l-4 8l27 74l8 2q26 -16 54 -16t45 32t28 113l121 1114h66l483 -1171l483 1171h66l123 -1114q8 -82 25 -114q17 -31 48 -31t52 16l10 -2l26 -74l-4 -8
q-39 -29 -92 -29z" />
    <glyph glyph-name="N" unicode="N" horiz-adv-x="1490" 
d="M1188 1331h102v-1331h-65l-922 1128v-1128h-102v1331h65l922 -1128v1128z" />
    <glyph glyph-name="O" unicode="O" horiz-adv-x="1601" 
d="M801 74q256 0 426 169t170 423t-170 423t-426 169t-426 -170q-170 -168 -170 -422t170 -423t426 -169zM801 -25q-301 0 -502 198t-201 493q0 294 201 492t502 198t502 -198t201 -492t-202 -493q-200 -198 -501 -198z" />
    <glyph glyph-name="P" unicode="P" horiz-adv-x="1173" 
d="M688 635q143 0 228 84t85 217t-85 217t-228 84h-383v-602h383zM666 1331q210 0 326 -105q116 -104 116 -288t-116 -288t-326 -105h-361v-545h-104v1331h465z" />
    <glyph glyph-name="Q" unicode="Q" horiz-adv-x="1601" 
d="M801 74q70 0 141 16q-137 160 -216 219t-200 59t-211 -57q82 -111 208 -174t278 -63zM801 1257q-256 -1 -426 -169t-170 -422q0 -147 59 -267q112 68 262 68t254 -75t267 -269q160 68 255 212t95 331q0 254 -170 422t-426 169zM1524 -328q-147 0 -258 82t-252 252
q-100 -31 -213 -31q-301 0 -502 198t-201 493q0 294 201 492t502 198t502 -198t200 -492q0 -207 -105 -374t-284 -249q121 -143 208 -208t204 -65t207 76l10 -4l43 -71l-2 -9q-113 -90 -260 -90z" />
    <glyph glyph-name="R" unicode="R" horiz-adv-x="1253" 
d="M305 672h383q145 0 229 77.5t84 206.5t-83.5 205t-229.5 76h-383v-565zM1111 -25q-44 0 -68.5 6.5t-44 13.5t-40 25.5t-33 28.5t-29.5 39t-25.5 41t-24.5 48q-22 47 -44 99q-124 304 -208 304h-289v-580h-104v1331h465q211 0 326.5 -98t115.5 -267.5t-94 -266.5
t-269 -115q61 -37 152 -254q55 -128 84 -174q52 -84 127 -84q39 0 61 16l11 -4l24 -72l-4 -8q-45 -29 -89 -29z" />
    <glyph glyph-name="S" unicode="S" horiz-adv-x="1081" 
d="M139 1022.5q0 141.5 114 237.5t294 96q244 0 399 -189v-8l-65 -61h-9q-131 160 -325 159q-131 0 -215 -66.5t-84 -163.5t70 -156t259.5 -136t218.5 -100t66 -48.5t52.5 -49t43 -66t27.5 -135.5q0 -160 -121 -260.5t-311 -100.5q-145 0 -273 61t-204 165v8l63 65h8
q156 -201 400 -200q147 0 238.5 72.5t91.5 178.5q0 105 -77 169q-78 64 -256 138q-58 24 -77 32q-152 63 -240 140t-88 218.5z" />
    <glyph glyph-name="T" unicode="T" horiz-adv-x="1050" 
d="M575 1237v-1237h-104v1237h-444v94h995v-94h-447z" />
    <glyph glyph-name="U" unicode="U" horiz-adv-x="1439" 
d="M153 1356q75 0 111 -44t37 -116v-672q0 -208 115 -330q116 -122 314 -122t312 122t115 330v807h103v-811q0 -250 -142 -398t-389 -147q-246 -1 -389 147t-143 398v645q0 94 -58 95q-27 0 -47 -17l-8 2l-25 74q19 37 94 37z" />
    <glyph glyph-name="V" unicode="V" horiz-adv-x="1427" 
d="M6 1319q18 37 91 37t115 -40t77 -120l426 -1024l426 1024q68 160 182 160q59 0 94 -29l4 -8l-26 -74l-9 -2q-23 16 -53 17q-53 0 -94 -99l-491 -1161h-68l-492 1161q-41 98 -94 99q-31 0 -53 -17l-8 2z" />
    <glyph glyph-name="W" unicode="W" horiz-adv-x="2027" 
d="M1919 1356q59 0 98 -29l4 -8l-26 -74l-8 -2q-68 38 -103 -5q-18 -22 -37 -77l-403 -1161h-66l-364 1167l-365 -1167h-65l-404 1161q-18 55 -34 77t-47 22q-30 0 -58 -17l-8 2l-27 74l4 8q39 29 99 29q121 0 172 -160l337 -1016l349 1151h96l348 -1149l338 1014
q53 160 170 160z" />
    <glyph glyph-name="X" unicode="X" horiz-adv-x="1368" 
d="M149 1356q70 0 119 -36t109 -120l313 -446l336 446q62 86 110 121t106 35t99 -29l5 -8l-27 -74l-8 -2q-23 16 -58 17q-57 0 -125 -91l-380 -503l352 -504q63 -90 123 -90q33 0 59 16l8 -2l27 -74l-4 -8q-41 -29 -101 -29t-111 36q-50 36 -108 120l-313 447l-338 -447
q-58 -86 -108 -121t-108 -35t-99 29l-4 8l26 74l8 2q27 -16 60 -16q59 0 123 90l381 504l-353 503q-61 90 -123 91q-35 0 -57 -17l-8 2l-29 74q28 37 98 37z" />
    <glyph glyph-name="Y" unicode="Y" horiz-adv-x="1370" 
d="M739 0h-106v551l-416 618q-61 90 -115 91q-33 0 -53 -17l-8 2l-29 74l4 8q37 29 95 29q59 0 103 -37t101 -119l373 -559l373 559q55 82 98 119t101 37t92 -29l4 -8l-27 -74l-8 -2q-20 16 -53 17q-53 0 -115 -91l-414 -616v-553z" />
    <glyph glyph-name="Z" unicode="Z" horiz-adv-x="1171" 
d="M1106 136q0 -66 -43 -101t-117 -35h-893v66l867 1175h-824v90h967v-65l-866 -1174h718q96 0 97 58q0 29 -21 45l4 8l74 26q37 -27 37 -93z" />
    <glyph glyph-name="bracketleft" unicode="[" horiz-adv-x="530" 
d="M465 1364h-199v-1577h199v-86h-299v1749h299v-86z" />
    <glyph glyph-name="backslash" unicode="\" horiz-adv-x="1019" 
d="M147 1442l822 -1540l-11 -11h-88l-821 1541l8 10h90z" />
    <glyph glyph-name="bracketright" unicode="]" horiz-adv-x="530" 
d="M66 1364v86h299v-1749h-299v86h198v1577h-198z" />
    <glyph glyph-name="asciicircum" unicode="^" horiz-adv-x="1198" 
d="M637 1331l487 -766l-6 -8h-92l-8 6l-414 651l-424 -651l-10 -6h-90l-6 8l497 766h66z" />
    <glyph glyph-name="underscore" unicode="_" horiz-adv-x="960" 
d="M41 -127h879v-82h-879v82z" />
    <glyph glyph-name="grave" unicode="`" horiz-adv-x="565" 
d="M152 1473l331 -269v-8l-39 -49h-6l-356 242v8l61 76h9z" />
    <glyph glyph-name="a" unicode="a" horiz-adv-x="1306" 
d="M610 68q182 0 302 122t120 322q0 199 -119 322q-119 122 -301 122t-300 -129t-118 -316t118 -315q116 -128 298 -128zM1156 -25q-60 0 -94 44q-36 44 -36 116v60q-68 -103 -176 -161t-244 -59q-225 0 -370 155t-146 382q0 227 146 382t370 155q266 0 416 -211v186h100
v-864q0 -94 58 -94q29 0 45 16l8 -2l22 -68l-4 -10q-35 -27 -95 -27z" />
    <glyph glyph-name="b" unicode="b" horiz-adv-x="1284" 
d="M252 512q0 -204 119 -324t302 -120t300 128t117 316t-117 316t-300 128t-302 -120t-119 -324zM674 1049q228 0 374 -155t146 -382t-145 -382t-375 -155q-264 0 -412 213v-188h-100v1221q0 96 -56 96q-25 0 -47 -19l-8 2l-22 68l4 10q35 27 95 27t98 -41q36 -41 36 -113
v-415q148 213 412 213z" />
    <glyph glyph-name="c" unicode="c" horiz-adv-x="1126" 
d="M90 512q0 229 153.5 383t385.5 154q131 0 243.5 -52.5t182.5 -144.5v-8l-64 -51h-8q-135 164 -354 163q-188 0 -311 -127t-123 -317t121.5 -317t312.5 -127q227 0 354 163h8l64 -49v-10q-70 -92 -182.5 -144.5t-243.5 -52.5q-231 0 -385 154t-154 383z" />
    <glyph glyph-name="d" unicode="d" horiz-adv-x="1306" 
d="M611 68q183 0 302 120.5t119 323.5t-118.5 323.5t-302 120.5t-300 -129t-116.5 -316t116.5 -315t299.5 -128zM1156.5 -25q-59.5 0 -95 44t-35.5 116v58q-68 -100 -176.5 -159t-239.5 -59q-229 0 -374.5 155t-145.5 383t145.5 382t374.5 154q260 0 412 -213v542l92 19
l8 -6v-1231q0 -94 58 -94q25 0 45 16l8 -2l22 -68l-4 -10q-35 -27 -94.5 -27z" />
    <glyph glyph-name="e" unicode="e" 
d="M611 956q-173 0 -287.5 -107.5t-126.5 -281.5h813q-14 178 -120 283.5t-279 105.5zM629 68q115 0 219 48t166 132h8l65 -55v-9q-72 -98 -196.5 -153.5t-259.5 -55.5q-225 0 -383 146.5t-158 384t144.5 390.5t372.5 153t367.5 -150.5t139.5 -374.5q0 -33 -2 -45h-917
q12 -188 135 -299.5t299 -111.5z" />
    <glyph glyph-name="f" unicode="f" horiz-adv-x="659" 
d="M526 1327q-86 0 -148 -65q-60 -66 -61 -199v-39h326v-86h-326v-1112q-1 -72 -37 -115t-98 -43t-94 27l-4 8l22 68l9 4q18 -18 47 -19q55 0 55 97v1085h-178v86h178v39q0 176 92 265t213 89t199 -49l2 -8l-35 -68l-10 -4q-66 39 -152 39z" />
    <glyph glyph-name="g" unicode="g" horiz-adv-x="1253" 
d="M584 195q172 0 281.5 107.5t109.5 272t-109.5 273t-280.5 108.5t-279.5 -107.5t-108.5 -273t107.5 -273t279.5 -107.5zM1071 864v-706q0 -225 -135 -345t-348 -120q-305 0 -453 219v8l55 60h9q135 -197 389 -197q174 0 278.5 98.5t104.5 276.5v137q-135 -193 -389 -193
q-211 0 -350.5 136.5t-139.5 338t138.5 337t351.5 135.5q258 0 393 -197v43q0 72 36 113t95 41t94 -27l4 -10l-22 -68l-8 -2q-23 18 -46 19q-57 0 -57 -97z" />
    <glyph glyph-name="h" unicode="h" horiz-adv-x="1206" 
d="M1078 -25q-68 0 -104 44t-36 118v488q0 151 -89 241t-241 90t-249 -95t-97 -245v-616h-100v1221q0 96 -58 96q-23 0 -45 -19l-8 2l-22 68l4 10q35 27 95 27t98 -41q36 -41 36 -113v-381q119 178 363 179q186 0 300 -115t113 -301v-473q0 -94 58 -94q23 0 41 14l8 -2
l24 -70q-24 -33 -91 -33z" />
    <glyph glyph-name="i" unicode="i" horiz-adv-x="438" 
d="M300 -25q-70 0 -106 44t-36 118v887h100v-864q0 -94 55 -94q23 0 43 14l9 -2l22 -70q-16 -33 -87 -33zM207 1145q-39 -1 -68 27t-28 69q0 41 28 69q29 28 68 28t67 -28t29 -69q-1 -41 -29 -69t-67 -27z" />
    <glyph glyph-name="j" unicode="j" horiz-adv-x="452" 
d="M291 1024v-991q0 -133 -48 -208t-147 -132h-8l-39 74v6q72 43 107 98t34 152v915h-141v86h242zM201 1145q-41 -1 -69 27t-28 69t28 69t69 28t69 -28t27 -69q1 -41 -27 -69t-69 -27z" />
    <glyph glyph-name="k" unicode="k" horiz-adv-x="1118" 
d="M262 598v-115h348q125 0 203 66.5t78 173t-74 171t-199 64.5q-170 0 -263 -99t-93 -261zM981 -25q-92 0 -186 115l-254 307h-279v-397h-100v1221q0 96 -56 96q-25 0 -47 -19l-8 2l-22 68l4 10q35 27 95.5 27t97 -41t36.5 -113v-381q111 178 365 179q166 0 267 -90.5
t101 -228.5t-92 -226t-237 -105l215 -262q61 -72 108 -71q25 0 49 14l9 -2l22 -70l-4 -8q-35 -25 -84 -25z" />
    <glyph glyph-name="l" unicode="l" horiz-adv-x="452" 
d="M134.5 1405q58.5 0 94 -41t35.5 -113v-1091q0 -94 55 -94q27 0 48 16l8 -2l22 -68l-4 -10q-35 -27 -95.5 -27t-97 44t-36.5 116v1086q0 96 -55 96q-25 0 -48 -19l-8 2l-22 68l4 10q41 27 99.5 27z" />
    <glyph glyph-name="m" unicode="m" horiz-adv-x="1970" 
d="M1842 -25q-72 0 -108 44t-36 118v488q0 151 -82 241t-230 90t-245 -95q-96 -95 -97 -245v-616h-102v625q0 151 -83 241t-231 90t-245 -95q-96 -95 -96 -245v-616h-103v864q0 96 -57 97q-23 0 -45 -19l-8 2l-23 68l4 10q35 27 95 27t95 -42q36 -42 36 -112v-35
q119 188 364 189q133 -1 228 -63t139 -171q49 109 152 171t239 63q185 0 291 -114t106 -302v-473q0 -94 55 -94q25 0 43 14l9 -2l22 -70q-16 -33 -87 -33z" />
    <glyph glyph-name="n" unicode="n" horiz-adv-x="1232" 
d="M1105 -25q-71 0 -107.5 44t-36.5 118v488q0 150 -89.5 240.5t-240 90.5t-247.5 -95t-97 -245v-616h-103v864q0 96 -57 97q-23 0 -45 -19l-8 2l-23 68l4 10q35 27 94.5 27t95.5 -42t36 -112v-31q121 184 366 185q188 0 302 -115t114 -301v-473q0 -94 55 -94q25 0 43 14
l8 -2l23 -70q-16 -33 -87 -33z" />
    <glyph glyph-name="o" unicode="o" horiz-adv-x="1265" 
d="M632.5 68q190.5 0 314.5 127t124 317t-124 317t-314.5 127t-314 -127t-123.5 -317t123.5 -317t314 -127zM632.5 -25q-233.5 0 -388 155t-154.5 382t154.5 382t388 155t388.5 -155t155 -382t-155 -382t-388.5 -155z" />
    <glyph glyph-name="p" unicode="p" horiz-adv-x="1306" 
d="M274 512q0 -204 119 -324t302 -120t300 128t117 315t-117 316t-300 129t-302 -120t-119 -324zM696 1049q228 0 374 -155t146 -382t-144 -382q-146 -155 -376 -155q-264 0 -411 213v-495h-101v1171q0 96 -55 97q-25 0 -47 -19l-8 2l-23 68l4 10q35 27 95 27t95 -41
q36 -41 36 -113v-66q147 220 415 220z" />
    <glyph glyph-name="q" unicode="q" horiz-adv-x="1304" 
d="M611 68q183 0 302 120t119 324q0 203 -119 324q-119 120 -302 120t-300 -129t-117 -316t118 -315q116 -128 299 -128zM1122 -307h-100v495q-152 -213 -412 -213q-229 0 -374 155t-146 382q0 227 146 382t374 155q131 -1 240 -59t176 -159v62q0 74 36 115t95 41t94 -27
l4 -10l-22 -68l-8 -2q-23 18 -45 19q-57 0 -58 -97v-1171z" />
    <glyph glyph-name="r" unicode="r" horiz-adv-x="710" 
d="M285 612v-612h-101v864q0 96 -55 97q-25 0 -47 -19l-8 2l-23 68l4 10q35 27 94.5 27t95.5 -41t36 -113v-25q96 178 292 179q74 0 129 -29l5 -8l-35 -76l-8 -2q-37 23 -105 22q-117 0 -195.5 -94t-78.5 -250z" />
    <glyph glyph-name="s" unicode="s" horiz-adv-x="874" 
d="M413.5 1049q120.5 0 207 -43t133.5 -115v-8l-64 -52h-8q-92 125 -252 125q-94 0 -151.5 -46t-57.5 -117.5t48 -112.5t104.5 -63.5l113 -45t91 -39t99 -58.5t90.5 -94t26 -122q0 -131 -99.5 -207t-251.5 -76q-246 0 -374 187v10l63 51h10q94 -156 295 -155q113 0 183.5 52
t70.5 132t-53.5 124t-91 61.5t-76.5 35t-128 53t-156.5 93t-67.5 169t88 186.5t208.5 75z" />
    <glyph glyph-name="t" unicode="t" horiz-adv-x="688" 
d="M510 -25q-133 0 -214 93.5t-81 257.5v612h-178v86h178v313l92 19l8 -6v-326h332v-86h-332v-612q0 -125 52.5 -191.5t148.5 -66.5q57 0 98 28l11 -4l32 -69l-4 -9q-57 -39 -143 -39z" />
    <glyph glyph-name="u" unicode="u" horiz-adv-x="1210" 
d="M1060 -25q-60 0 -94 44q-36 44 -36 116v25q-121 -184 -357 -185q-183 0 -293 110t-110 294v485q0 96 -55 97q-25 0 -47 -19l-9 2l-22 68l4 10q35 27 95 27t98 -41q36 -41 36 -113v-508q0 -151 87 -235t231 -84t241 96q96 96 97 244v616h100v-864q0 -94 55 -94q27 0 47 16
l9 -2l22 -68l-4 -10q-35 -27 -95 -27z" />
    <glyph glyph-name="v" unicode="v" horiz-adv-x="1124" 
d="M279 895v-516q-1 -150 75 -231q76 -80 224 -80t244 120q98 120 98 302t-44 326t-116 222v9l74 55h8q84 -88 134 -249t50 -343q-2 -240 -130 -387t-316 -147t-294 108q-108 109 -108 287v493q0 96 -55 97q-25 0 -47 -19l-8 2l-23 68l4 10q35 27 95 27t98 -41
q37 -41 37 -113z" />
    <glyph glyph-name="w" unicode="w" horiz-adv-x="1826" 
d="M134 1049q69 0 106 -41t36 -113v-516q0 -150 81 -231q81 -80 219 -80t222 88q83 88 83 233v635h100v-637q0 -147 77 -233q76 -86 224 -86t242 118t99 302q5 182 -38 327t-117 223v9l74 55h8q86 -90 136 -252t43 -340q-7 -246 -131 -390t-328 -145q-238 0 -338 199
q-104 -199 -352 -199q-180 1 -292 107t-112 289v493q0 96 -55 97q-27 0 -45 -19l-8 2l-25 68q22 37 91 37z" />
    <glyph glyph-name="x" unicode="x" horiz-adv-x="1142" 
d="M144 1049q58 0 102 -33t96 -111l233 -330l234 330q55 78 96 111t101 33t94 -27l4 -10l-23 -68l-8 -2q-20 18 -51 19q-57 0 -127 -95l-254 -354l254 -354q66 -92 119 -92q31 0 53 16l8 -2l23 -68l-4 -10q-35 -27 -94 -27t-101 33q-41 33 -96 111l-236 332l-233 -332
q-51 -78 -94 -111q-42 -33 -100 -33t-97 27l-4 10l22 68l11 2q18 -16 51 -16q59 0 125 92l256 354l-254 354q-68 94 -121 95q-31 0 -51 -19l-8 2l-23 68l4 10q35 27 93 27z" />
    <glyph glyph-name="y" unicode="y" horiz-adv-x="1173" 
d="M913 1024h101v-866q0 -221 -131 -343t-353 -122t-376 180v8l55 60h8q131 -158 313 -158t283 99q100 99 100 276v100q-129 -172 -354 -172q-186 0 -294 104t-107 293v381q0 96 -56 97q-25 0 -47 -19l-8 2l-22 68l4 10q39 27 97 27t96 -41q36 -41 36 -113v-416
q0 -141 85 -221t228 -80t243 96q99 96 99 244v506z" />
    <glyph glyph-name="z" unicode="z" horiz-adv-x="927" 
d="M98 1024h738v-72l-650 -868h529q86 0 86 55q0 27 -21 47l4 9l66 22l10 -2q29 -37 29 -90q0 -125 -160 -125h-668v74l650 866h-613v84z" />
    <glyph glyph-name="braceleft" unicode="{" horiz-adv-x="581" 
d="M201 600v-49q88 0 88 -264v-242q0 -154 40 -206t158 -52h39v-86h-41q-169 0 -233 75t-64 269v287q0 110 -12 146t-37 47t-65 12v77q78 0 96 43t18 162v287q0 196 65 270t232 74h41v-86h-39q-119 0 -159 -52t-39 -206v-242q0 -264 -88 -264z" />
    <glyph glyph-name="bar" unicode="|" horiz-adv-x="419" 
d="M166 -299v1749h88v-1749h-88z" />
    <glyph glyph-name="braceright" unicode="}" horiz-adv-x="581" 
d="M293 864v242q0 154 -40 206t-159 52h-39v86h41q168 0 233 -75t64 -269v-287q1 -110 13 -146t36 -47t66 -12v-77q-78 0 -96 -43t-19 -162v-287q-1 -195 -65 -269t-232 -75h-41v86h39q119 0 159 52t40 206v242q0 264 88 264v49q-88 0 -88 264z" />
    <glyph glyph-name="asciitilde" unicode="~" horiz-adv-x="1185" 
d="M824 584q-70 0 -229 36t-223 36q-120 -1 -165 -72h-6l-51 67v6q78 90 204 91q84 0 248 -36t248 -36t131 72h8l51 -68v-8q-25 -29 -42 -43q-17 -13 -60 -29q-44 -16 -114 -16z" />
    <glyph glyph-name="exclamdown" unicode="&#xa1;" horiz-adv-x="428" 
d="M272 -301l-6 -6h-104l-6 6l12 1051l10 6h72l8 -6zM213 870q-41 0 -69 28t-27 69q-1 41 27 69t69 27q41 0 69 -28q28 -29 28 -69t-28 -68t-69 -28z" />
    <glyph glyph-name="cent" unicode="&#xa2;" horiz-adv-x="1157" 
d="M650.5 1112q-203.5 0 -326.5 -127t-123 -317.5t121.5 -317.5t312.5 -127q227 0 354 164h8l64 -49v-10q-135 -178 -383 -195v-158h-92v158q-215 16 -352.5 168t-137.5 367t137.5 366.5t352.5 167.5v150h92v-150q248 -16 383 -194v-9l-64 -51h-8q-135 164 -338.5 164z" />
    <glyph glyph-name="sterling" unicode="&#xa3;" horiz-adv-x="1091" 
d="M629 1264q-127 0 -211 -78t-84 -215v-246h405v-92h-405v-541h659v-92h-893v92h131v541h-118v92h118v244q0 180 114 283t286 104q213 0 362 -168v-8l-61 -58h-8q-125 142 -295 142z" />
    <glyph glyph-name="currency" unicode="&#xa4;" horiz-adv-x="1355" 
d="M678 252q172 0 290 122t117 298q0 176 -117 298q-118 122 -290 122t-291 -122t-119 -298t119 -298t291 -122zM674 160q-188 0 -326 121l-129 -127l-67 67l129 127q-115 138 -116 322t114 325l-125 125l67 68l125 -125q142 121 332 121t332 -123l127 127l67 -68l-127 -127
q113 -141 112 -323t-114 -322l127 -127l-67 -67l-127 127q-146 -121 -334 -121z" />
    <glyph glyph-name="yen" unicode="&#xa5;" horiz-adv-x="1239" 
d="M965 557v-78h-293v-174h293v-78h-293v-227h-105v227h-293v78h293v174h-293v78h289l-510 768l4 6h117l449 -678l450 678h109l2 -6l-508 -768h289z" />
    <glyph glyph-name="brokenbar" unicode="&#xa6;" horiz-adv-x="415" 
d="M164 494h88v-793h-88v793zM164 1450h88v-752h-88v752z" />
    <glyph glyph-name="section" unicode="&#xa7;" horiz-adv-x="1101" 
d="M260 623q0 -66 54 -118t121 -81t175 -73t168 -77q109 63 109 170t-115 176q-85 50 -208 99q-124 49 -173 74q-131 -53 -131 -170zM993 -1q0 -138 -119 -223t-293 -85q-175 0 -303 55t-204 152v8l63 57h8q150 -188 408 -188q152 0 243 63t91 168t-144 182q-60 33 -177 79
q-118 46 -168 70q-171 81 -215 160q-30 52 -29 119q0 147 135 228q-135 90 -135 219t111 211q112 82 284 82q250 0 403 -166v-8l-69 -56h-9q-137 143 -327 144q-121 0 -204 -56t-83 -137q0 -82 51 -124q31 -26 49 -41q33 -27 218 -98t271 -128q85 -56 115 -112t29 -128
q0 -141 -119 -225q119 -84 119 -222z" />
    <glyph glyph-name="dieresis" unicode="&#xa8;" horiz-adv-x="735" 
d="M526 1145q-38 0 -66 29q-28 30 -28 68t28 67t66 29t68 -28q29 -28 29 -69t-29 -69t-68 -27zM207 1145q-39 0 -67 29q-28 30 -28 68t28 67t67 29t67 -28t29 -69q-1 -41 -29 -69t-67 -27z" />
    <glyph glyph-name="copyright" unicode="&#xa9;" horiz-adv-x="1587" 
d="M807 262q-176 0 -293 117t-117 289t117 288t293 117q211 0 323 -149v-6l-57 -56h-6q-93 121 -247 121t-238 -89t-84 -226q0 -136 84 -226t240 -90t245 121h6l57 -57v-6q-114 -148 -323 -148zM794 57q259 0 431 176q172 177 172 433t-172 432t-431 176q-260 0 -432 -176
t-172 -432t172 -433q173 -176 432 -176zM102 666q0 290 198 490t494 200t494 -201t199 -489q-1 -288 -199 -490q-198 -201 -494 -201t-494 200t-198 491z" />
    <glyph glyph-name="ordfeminine" unicode="&#xaa;" horiz-adv-x="849" 
d="M199 900q-1 -58 43 -92t126 -34t144 51q61 51 61 127v37q-90 37 -184 37t-142 -34t-48 -92zM686 692q-96 0 -104 103q-80 -101 -208 -101t-198 56t-70 153t77 149t188 52t207 -41v45q0 80 -56 122t-133 42q-135 0 -211 -90h-8l-43 51v6q41 49 116 82t167 33t170 -60
q80 -60 79 -170v-282q0 -72 39 -72q12 0 33 12l8 -4l19 -57l-2 -6q-31 -23 -70 -23z" />
    <glyph glyph-name="guillemotleft" unicode="&#xab;" horiz-adv-x="897" 
d="M764 901v-6l-248 -289l248 -289v-8l-55 -55h-9l-299 342v20l299 342h9zM457 895l-248 -289l248 -289v-8l-56 -55h-8l-299 342v20l299 342h8l56 -57v-6z" />
    <glyph glyph-name="registered" unicode="&#xae;" horiz-adv-x="1587" 
d="M829 702q85 0 131 46t46 116t-45 114t-132 44h-225v-320h225zM604 627v-363h-84v834h293q133 0 206 -62t73 -168t-56 -168t-162 -69l220 -367h-103l-219 363h-168zM794 1274q-260 0 -432 -176t-172 -432t172 -432t432 -177q260 0 431 176q172 177 172 433t-172 432
t-431 176zM102 666q0 290 198 490t494 200t494 -201t199 -489q0 -288 -199 -490q-198 -201 -494 -201t-494 200t-198 491z" />
    <glyph glyph-name="macron" unicode="&#xaf;" horiz-adv-x="1069" 
d="M258 1274h553v-86h-553v86z" />
    <glyph glyph-name="degree" unicode="&#xb0;" horiz-adv-x="720" 
d="M180 1092q0 -76 53 -129t128 -53t128 52q53 54 54 130t-53 129t-129 53t-128 -53t-53 -129zM361 827q-109 0 -187 78t-78 188q0 111 78 187t188 76t186 -77q77 -77 77 -187t-77 -188q-77 -77 -187 -77z" />
    <glyph glyph-name="plusminus" unicode="&#xb1;" horiz-adv-x="1193" 
d="M125 0v86h942v-86h-942zM645 655h426v-82h-426v-413h-90v413h-428v82h428v406h90v-406z" />
    <glyph glyph-name="acute" unicode="&#xb4;" horiz-adv-x="565" 
d="M416 1473h6l61 -76v-8l-354 -242h-8l-39 49v8z" />
    <glyph glyph-name="paragraph" unicode="&#xb6;" horiz-adv-x="1300" 
d="M1053 1200v-1493h-88v1493h88zM1223 1360h-457v-1653h-88v879h-78q-248 -2 -392 103t-145 333q0 428 537 428h623v-90z" />
    <glyph glyph-name="periodcentered" unicode="&#xb7;" horiz-adv-x="487" 
d="M244 438q-45 0 -78 33t-33 78t33 78t78 33t78 -34q32 -32 32 -77t-32 -78t-78 -33z" />
    <glyph glyph-name="cedilla" unicode="&#xb8;" horiz-adv-x="602" 
d="M367 -84q55 0 100 -43t45 -117t-61 -123t-162 -49q-141 0 -226 84v8l50 56h8q63 -68 158 -68q59 0 96 25t37 63t-30 63q-30 23 -83 23t-111 -26l-45 26l68 158v43h104v-43l-36 -88l2 -4q31 12 86 12z" />
    <glyph glyph-name="ordmasculine" unicode="&#xba;" horiz-adv-x="858" 
d="M429 786q103 0 171 68t68 173t-68 173t-171 68t-171 -68t-68 -173t68 -173t171 -68zM94 1026q0 142 95 236t239 94t240 -93t96 -237t-96 -236q-96 -94 -239 -94t-239 94t-96 236z" />
    <glyph glyph-name="guillemotright" unicode="&#xbb;" horiz-adv-x="897" 
d="M504 958l299 -342v-20l-299 -342h-8l-56 55v8l248 289l-248 289v6l56 57h8zM496 616v-20l-299 -342h-9l-55 55v8l248 289l-248 289v6l55 57h9z" />
    <glyph glyph-name="onequarter" unicode="&#xbc;" horiz-adv-x="1323" 
d="M1036 254v344l-270 -344h270zM1217 254v-82h-91v-172h-90v172h-377v59l400 519h67v-496h91zM96 12l1022 1319h94l5 -12l-1020 -1319h-97zM338 1331v-758h-102v672h-148l-4 6l25 80h229z" />
    <glyph glyph-name="onehalf" unicode="&#xbd;" horiz-adv-x="1437" 
d="M1350 86v-86h-523v53q35 33 152 138t173 173q55 68 65 100t10 58q0 64 -38 104t-106 40q-98 0 -186 -93h-6l-51 58v6q102 113 232 113t192 -62t63 -164q0 -47 -22 -102t-165 -200q-43 -42 -143 -136h353zM256 1245h-147l-5 6l25 80h229v-758h-102v672zM1210 1331l4 -12
l-1019 -1319h-97l-4 12l1022 1319h94z" />
    <glyph glyph-name="threequarters" unicode="&#xbe;" horiz-adv-x="1480" 
d="M1192 254v344l-270 -344h270zM1282 750v-496h90v-82h-90v-172h-90v172h-377v59l399 519h68zM1376 1331l4 -12l-1020 -1319h-96l-4 12l1022 1319h94zM598 782q0 -79 -74 -144t-190 -65q-150 0 -260 117v6l53 52h6q86 -92 203 -93q68 0 114 42t46 109q0 66 -50 106t-139 40
h-49v76h37q72 0 116 36t44 90t-37 87t-101 33q-96 0 -159 -72h-6l-54 47v6q84 101 206 101t183 -54t62 -137q0 -111 -105 -170q72 -25 113 -79t41 -134z" />
    <glyph glyph-name="questiondown" unicode="&#xbf;" horiz-adv-x="987" 
d="M493 -319q-173 0 -294 103t-121 261q0 111 61 196q35 48 51 68q16 21 72 73t62 56q66 62 92 112t24 124v86h103v-84q0 -96 -36 -163t-110 -136q-12 -12 -54 -51t-87 -96q-45 -56 -57 -96t-13 -83q0 -123 94 -199t222 -77q129 1 216 75t118 185l8 4l86 -23l2 -8
q-34 -141 -150 -234t-289 -93zM492 883q-41 -1 -69 27t-28 69t28 69t69 28q40 0 68 -28t28 -69t-28 -69t-68 -27z" />
    <glyph glyph-name="Agrave" unicode="&#xc0;" horiz-adv-x="1435" 
d="M399 414h633l-313 747zM1327 -25q-57 0 -98 35t-80 127l-76 182h-713l-77 -182q-39 -92 -81 -127t-98 -35t-94 29l-4 8l27 74l8 2q25 -16 55 -16t47 18q18 18 47 84l498 1157h66l489 -1157q29 -66 48 -84t50 -18t52 16l8 -2l26 -74l-4 -8q-39 -29 -96 -29zM754 1450h-9
l-378 209v6l51 80h8l360 -236v-8z" />
    <glyph glyph-name="Aacute" unicode="&#xc1;" horiz-adv-x="1435" 
d="M399 414h633l-313 747zM1327 -25q-57 0 -98 35t-80 127l-76 182h-713l-77 -182q-39 -92 -81 -127t-98 -35t-94 29l-4 8l27 74l8 2q25 -16 55 -16t47 18q18 18 47 84l498 1157h66l489 -1157q29 -66 48 -84t50 -18t52 16l8 -2l26 -74l-4 -8q-39 -29 -96 -29zM696 1450h-8
l-33 51v8l361 236h8l51 -80v-6z" />
    <glyph glyph-name="Acircumflex" unicode="&#xc2;" horiz-adv-x="1435" 
d="M399 414h633l-313 747zM1327 -25q-57 0 -98 35t-80 127l-76 182h-713l-77 -182q-39 -92 -81 -127t-98 -35t-94 29l-4 8l27 74l8 2q25 -16 55 -16t47 18q18 18 47 84l498 1157h66l489 -1157q29 -66 48 -84t50 -18t52 16l8 -2l26 -74l-4 -8q-39 -29 -96 -29zM453 1438h-9
l-38 59v6l305 185h14l305 -185v-6l-39 -59h-8l-264 143z" />
    <glyph glyph-name="Atilde" unicode="&#xc3;" horiz-adv-x="1435" 
d="M399 414h633l-313 747zM1327 -25q-57 0 -98 35t-80 127l-76 182h-713l-77 -182q-39 -92 -81 -127t-98 -35t-94 29l-4 8l27 74l8 2q25 -16 55 -16t47 18q18 18 47 84l498 1157h66l489 -1157q29 -66 48 -84t50 -18t52 16l8 -2l26 -74l-4 -8q-39 -29 -96 -29zM543 1638
q63 0 182 -36t174 -37q80 0 117 73h6l45 -73v-6q-57 -86 -168 -86q-63 -1 -180 37t-176 38q-80 1 -119 -75h-6l-45 73v6q57 86 170 86z" />
    <glyph glyph-name="Adieresis" unicode="&#xc4;" horiz-adv-x="1435" 
d="M399 414h633l-313 747zM1327 -25q-57 0 -98 35t-80 127l-76 182h-713l-77 -182q-39 -92 -81 -127t-98 -35t-94 29l-4 8l27 74l8 2q25 -16 55 -16t47 18q18 18 47 84l498 1157h66l489 -1157q29 -66 48 -84t50 -18t52 16l8 -2l26 -74l-4 -8q-39 -29 -96 -29zM901 1448
q-41 0 -69 28t-27 68q0 40 28 69q29 27 69 27t68 -28t28 -68t-28 -68t-69 -28zM541 1448q-41 0 -69 28t-28 68t28 69q28 27 69 27t69 -28t27 -68q1 -40 -27 -68t-69 -28z" />
    <glyph glyph-name="Aring" unicode="&#xc5;" horiz-adv-x="1435" 
d="M399 414h633l-313 747zM1327 -25q-57 0 -98 35t-80 127l-76 182h-713l-77 -182q-39 -92 -81 -127t-98 -35t-94 29l-4 8l27 74l8 2q25 -16 55 -16t47 18q18 18 47 84l498 1157h66l489 -1157q29 -66 48 -84t50 -18t52 16l8 -2l26 -74l-4 -8q-39 -29 -96 -29zM721 1726
q-47 0 -77 -32t-30 -74q0 -43 31 -76t76 -33t76 33t30 76q0 43 -29 75q-30 31 -77 31zM721 1440q-78 0 -131 52t-53 128t53 128t131 52t131 -52t53 -128t-53 -128t-131 -52z" />
    <glyph glyph-name="AE" unicode="&#xc6;" horiz-adv-x="1921" 
d="M993 414v809l-598 -809h598zM1833 1237h-735v-518h579v-92h-579v-533h735v-94h-840v319h-667l-236 -319h-119l971 1331h891v-94z" />
    <glyph glyph-name="Ccedilla" unicode="&#xc7;" horiz-adv-x="1411" 
d="M797 1257q-252 0 -421 -168.5t-169 -421.5t169 -423t421 -170q141 0 263 59.5t200 163.5h8l71 -55v-9q-197 -246 -516 -258l-26 -63l2 -4q31 12 86 12t100 -43t45 -117t-61.5 -123t-161.5 -49q-141 0 -225 84v9l49 55h8q63 -68 158 -68q59 0 96 24.5t37 63.5t-30 62.5
t-83 23.5t-110 -26l-45 26l59 138q-270 27 -445.5 219t-175.5 476t200 482.5t497 198.5q164 0 305 -68.5t237 -189.5v-8l-71 -56h-8q-78 104 -200 163.5t-263 59.5z" />
    <glyph glyph-name="Egrave" unicode="&#xc8;" horiz-adv-x="1128" 
d="M1040 1237h-735v-518h580v-92h-580v-533h735v-94h-839v1331h839v-94zM469 1745l360 -236v-8l-32 -51h-9l-378 209v6l51 80h8z" />
    <glyph glyph-name="Eacute" unicode="&#xc9;" horiz-adv-x="1128" 
d="M1040 1237h-735v-518h580v-92h-580v-533h735v-94h-839v1331h839v-94zM770 1745h8l51 -80v-6l-378 -209h-9l-32 51v8z" />
    <glyph glyph-name="Ecircumflex" unicode="&#xca;" horiz-adv-x="1128" 
d="M1040 1237h-735v-518h580v-92h-580v-533h735v-94h-839v1331h839v-94zM352 1438h-8l-39 59v6l305 185h15l305 -185v-6l-39 -59h-8l-265 143z" />
    <glyph glyph-name="Edieresis" unicode="&#xcb;" horiz-adv-x="1128" 
d="M1040 1237h-735v-518h580v-92h-580v-533h735v-94h-839v1331h839v-94zM801 1448q-39 0 -67.5 27.5t-28.5 68.5t28.5 68.5t67.5 27.5t67.5 -27.5t28.5 -68.5t-28.5 -68.5t-67.5 -27.5zM440 1448q-39 0 -67.5 27.5t-28.5 68.5t28.5 68.5t67.5 27.5t68 -27.5t29 -68.5
t-29 -68.5t-68 -27.5z" />
    <glyph glyph-name="Igrave" unicode="&#xcc;" horiz-adv-x="714" 
d="M637 1241h-227v-1149h227v-92h-559v92h227v1149h-227v90h559v-90zM207 1745l360 -236v-8l-32 -51h-9l-379 209v6l52 80h8z" />
    <glyph glyph-name="Iacute" unicode="&#xcd;" horiz-adv-x="714" 
d="M637 1241h-227v-1149h227v-92h-559v92h227v1149h-227v90h559v-90zM508 1745h8l51 -80v-6l-379 -209h-8l-33 51v8z" />
    <glyph glyph-name="Icircumflex" unicode="&#xce;" horiz-adv-x="714" 
d="M78 1241v90h559v-90h-227v-1149h227v-92h-559v92h227v1149h-227zM362 1688l306 -185v-6l-39 -59h-8l-265 143l-266 -143h-8l-39 59v6l305 185h14z" />
    <glyph glyph-name="Idieresis" unicode="&#xcf;" horiz-adv-x="714" 
d="M637 1241h-227v-1149h227v-92h-559v92h227v1149h-227v90h559v-90zM539 1448q-39 0 -68 28t-29 68t29 69q29 27 68 27t67 -28t29 -68q-1 -40 -29 -68t-67 -28zM178 1448q-40 0 -68 28t-28 68t29 69q29 27 67 27t68 -28q28 -28 28 -68t-28 -68t-68 -28z" />
    <glyph glyph-name="Eth" unicode="&#xd0;" horiz-adv-x="1474" 
d="M686 94q266 0 422 156t156 416t-156 416t-422 155h-375v-518h414v-94h-414v-531h375zM686 1331q314 0 500 -182t186 -483q0 -302 -186 -484t-500 -182h-479v625h-168v94h168v612h479z" />
    <glyph glyph-name="Ntilde" unicode="&#xd1;" horiz-adv-x="1490" 
d="M1188 1331h102v-1331h-65l-922 1128v-1128h-102v1331h65l922 -1128v1128zM563 1638q68 0 194 -36.5t185 -36.5q86 0 123 73h8l47 -73v-6q-61 -86 -178 -86q-68 0 -191.5 37.5t-187.5 37.5q-88 1 -125 -75h-8l-47 73v6q61 86 180 86z" />
    <glyph glyph-name="Ograve" unicode="&#xd2;" horiz-adv-x="1601" 
d="M801 74q256 0 426 169t170 423t-170 423t-426 169t-426 -170q-170 -168 -170 -422t170 -423t426 -169zM801 -25q-301 0 -502 198t-201 493q0 294 201 492t502 198t502 -198t201 -492t-202 -493q-200 -198 -501 -198zM649 1745l361 -236v-8l-33 -51h-8l-379 209v6l51 80h8
z" />
    <glyph glyph-name="Oacute" unicode="&#xd3;" horiz-adv-x="1601" 
d="M801 74q256 0 426 169t170 423t-170 423t-426 169t-426 -170q-170 -168 -170 -422t170 -423t426 -169zM801 -25q-301 0 -502 198t-201 493q0 294 201 492t502 198t502 -198t201 -492t-202 -493q-200 -198 -501 -198zM950 1745h8l52 -80v-6l-379 -209h-8l-33 51v8z" />
    <glyph glyph-name="Ocircumflex" unicode="&#xd4;" horiz-adv-x="1601" 
d="M801 74q256 0 426 169t170 423t-170 423t-426 169t-426 -170q-170 -168 -170 -422t170 -423t426 -169zM801 1356q301 0 502 -198t201 -492t-202 -493q-200 -198 -501 -198t-502 198t-201 493q0 294 201 492t502 198zM532 1438h-8l-39 59v6l306 185h14l305 -185v-6
l-39 -59h-8l-264 143z" />
    <glyph glyph-name="Otilde" unicode="&#xd5;" horiz-adv-x="1601" 
d="M801 74q256 0 426 169t170 423t-170 423t-426 169t-426 -170q-170 -168 -170 -422t170 -423t426 -169zM801 -25q-301 0 -502 198t-201 493q0 294 201 492t502 198t502 -198t201 -492t-202 -493q-200 -198 -501 -198zM612 1638q68 0 194 -36t185 -37q86 0 123 73h8l47 -73
v-6q-61 -86 -178 -86q-67 -1 -191 37t-200 38t-113 -75h-8l-47 73v6q61 86 180 86z" />
    <glyph glyph-name="Odieresis" unicode="&#xd6;" horiz-adv-x="1601" 
d="M801 74q256 0 426 169t170 423t-170 423t-426 169t-426 -170q-170 -168 -170 -422t170 -423t426 -169zM801 -25q-301 0 -502 198t-201 493q0 294 201 492t502 198t502 -198t201 -492t-202 -493q-200 -198 -501 -198zM981 1448q-39 0 -68 28t-29 68t29 69q29 27 68 27
t68 -28t29 -68t-30 -68q-28 -28 -67 -28zM621 1448q-39 0 -68 28t-29 68t29 69q29 27 68 27t67 -28t29 -68q-1 -40 -29 -68t-67 -28z" />
    <glyph glyph-name="multiply" unicode="&#xd7;" horiz-adv-x="1079" 
d="M973 303l-66 -67l-370 372l-367 -368l-61 59l368 367l-371 370l66 66l371 -369l366 367l60 -62l-367 -364z" />
    <glyph glyph-name="Oslash" unicode="&#xd8;" horiz-adv-x="1601" 
d="M801 74q256 0 426 169t170 423q0 299 -228 473l-659 -996q129 -69 291 -69zM205 666q0 -295 221 -467l659 993q-135 66 -284 65q-256 -1 -426 -169t-170 -422zM801 -25q-188 0 -346 84l-109 -161h-108l-5 12l136 205q-127 94 -199 237t-72 314q0 294 201 492t502 198
q184 0 340 -80l114 172h107l4 -12l-141 -213q131 -93 205 -239t73 -318q-1 -295 -201 -493t-501 -198z" />
    <glyph glyph-name="Ugrave" unicode="&#xd9;" horiz-adv-x="1439" 
d="M153 1356q75 0 111 -44t37 -116v-672q0 -208 115 -330q116 -122 314 -122t312 122t115 330v807h103v-811q0 -250 -142 -398t-389 -147q-246 -1 -389 147t-143 398v645q0 94 -58 95q-27 0 -47 -17l-8 2l-25 74q19 37 94 37zM565 1745l361 -236v-8l-33 -51h-8l-379 209v6
l51 80h8z" />
    <glyph glyph-name="Uacute" unicode="&#xda;" horiz-adv-x="1439" 
d="M153 1356q75 0 111 -44t37 -116v-672q0 -208 115 -330q116 -122 314 -122t312 122t115 330v807h103v-811q0 -250 -142 -398t-389 -147q-246 -1 -389 147t-143 398v645q0 94 -58 95q-27 0 -47 -17l-8 2l-25 74q19 37 94 37zM866 1745h8l52 -80v-6l-379 -209h-8l-33 51v8z
" />
    <glyph glyph-name="Ucircumflex" unicode="&#xdb;" horiz-adv-x="1439" 
d="M153 1356q75 0 111 -44t37 -116v-672q0 -208 115 -330q116 -122 314 -122t312 122t115 330v807h103v-811q0 -250 -142 -397t-389 -147q-246 0 -389 146q-143 148 -143 398v645q0 94 -58 95q-27 0 -47 -17l-8 2l-25 74q19 37 94 37zM449 1438h-9l-39 59v6l306 185h14
l305 -185v-6l-39 -59h-8l-264 143z" />
    <glyph glyph-name="Udieresis" unicode="&#xdc;" horiz-adv-x="1439" 
d="M153 1356q75 0 111 -44t37 -116v-672q0 -208 115 -330q116 -122 314 -122t312 122t115 330v807h103v-811q0 -250 -142 -398t-389 -147q-246 -1 -389 147t-143 398v645q0 94 -58 95q-27 0 -47 -17l-8 2l-25 74q19 37 94 37zM897 1448q-41 0 -69 28t-28 68t28 69
q28 27 69 27t69 -28t28 -68t-28 -68t-69 -28zM537 1448q-41 0 -69 28t-28 68t28 69q28 27 69 27t69 -28t27 -68q1 -40 -27 -68t-69 -28z" />
    <glyph glyph-name="Yacute" unicode="&#xdd;" horiz-adv-x="1370" 
d="M739 0h-106v551l-416 618q-61 90 -115 91q-33 0 -53 -17l-8 2l-29 74l4 8q37 29 95 29q59 0 103 -37t101 -119l373 -559l373 559q55 82 98 119t101 37t92 -29l4 -8l-27 -74l-8 -2q-20 16 -53 17q-53 0 -115 -91l-414 -616v-553zM518 1450h-8l-33 51v8l361 236h8l51 -80
v-6z" />
    <glyph glyph-name="Thorn" unicode="&#xde;" horiz-adv-x="1198" 
d="M709 365q143 0 227 84t84 217t-84 217t-227 84h-404v-602h404zM684 1059q211 1 328 -105q116 -106 116 -288t-116 -288q-117 -105 -328 -106h-379v-272h-104v1331h104v-272h379z" />
    <glyph glyph-name="germandbls" unicode="&#xdf;" horiz-adv-x="1136" 
d="M1047 373q0 -182 -125 -290t-306 -108q-96 0 -180 39l-2 9l33 73h8q49 -29 139 -28q137 0 234 79q96 79 96 221t-99 226t-255 84h-74v82h70q120 0 198 70t78 182q0 114 -80 184t-216 70t-220 -83t-84 -220v-963h-100v967q0 176 111 282q112 107 293 107t290 -95t109 -247
q0 -199 -174 -287q123 -39 189 -131t67 -223z" />
    <glyph glyph-name="agrave" unicode="&#xe0;" horiz-adv-x="1306" 
d="M610 68q182 0 302 122t120 322q0 199 -119 322q-119 122 -301 122t-300 -129t-118 -316t118 -315q116 -128 298 -128zM1156 -25q-60 0 -94 44q-36 44 -36 116v60q-68 -103 -176 -161t-244 -59q-225 0 -370 155t-146 382q0 227 146 382t370 155q266 0 416 -211v186h100
v-864q0 -94 58 -94q29 0 45 16l8 -2l22 -68l-4 -10q-35 -27 -95 -27zM801 1147h-6l-357 242v8l62 76h8l332 -269v-8z" />
    <glyph glyph-name="aacute" unicode="&#xe1;" horiz-adv-x="1306" 
d="M610 68q182 0 302 122t120 322q0 199 -119 322q-119 122 -301 122t-300 -129t-118 -316t118 -315q116 -128 298 -128zM1156 -25q-60 0 -94 44q-36 44 -36 116v60q-68 -103 -176 -161t-244 -59q-225 0 -370 155t-146 382q0 227 146 382t370 155q266 0 416 -211v186h100
v-864q0 -94 58 -94q29 0 45 16l8 -2l22 -68l-4 -10q-35 -27 -95 -27zM485 1147h-8l-39 49v8l334 269h6l62 -76v-8z" />
    <glyph glyph-name="acircumflex" unicode="&#xe2;" horiz-adv-x="1306" 
d="M610 68q182 0 302 122t120 322q0 199 -119 322q-119 122 -301 122t-300 -129t-118 -316t118 -315q116 -128 298 -128zM1156 -25q-60 0 -94 44q-36 44 -36 116v60q-68 -103 -176 -161t-244 -59q-225 0 -370 155t-146 382q0 227 146 382t370 155q266 0 416 -211v186h100
v-864q0 -94 58 -94q29 0 45 16l8 -2l22 -68l-4 -10q-35 -27 -95 -27zM391 1147h-6l-45 55v8l289 187h20l289 -187v-8l-45 -55h-8l-246 143z" />
    <glyph glyph-name="atilde" unicode="&#xe3;" horiz-adv-x="1306" 
d="M610 68q182 0 302 122t120 322q0 199 -119 322q-119 122 -301 122t-300 -129t-118 -316t118 -315q116 -128 298 -128zM1156 -25q-60 0 -94 44q-36 44 -36 116v60q-68 -103 -176 -161t-244 -59q-225 0 -370 155t-146 382q0 227 146 382t370 155q266 0 416 -211v186h100
v-864q0 -94 58 -94q29 0 45 16l8 -2l22 -68l-4 -10q-35 -27 -95 -27zM467 1327q61 0 176 -36t179 -36t100 72h8l37 -74v-8q-57 -82 -156 -82q-61 0 -174 36t-181 36t-100 -72h-8l-37 74v8q57 82 156 82z" />
    <glyph glyph-name="adieresis" unicode="&#xe4;" horiz-adv-x="1306" 
d="M610 68q182 0 302 122t120 322q0 199 -119 322q-119 122 -301 122t-300 -129t-118 -316t118 -315q116 -128 298 -128zM1156 -25q-60 0 -94 44q-36 44 -36 116v60q-68 -103 -176 -161t-244 -59q-225 0 -370 155t-146 382q0 227 146 382t370 155q266 0 416 -211v186h100
v-864q0 -94 58 -94q29 0 45 16l8 -2l22 -68l-4 -10q-35 -27 -95 -27zM895 1241q1 -41 -27 -69t-68 -27q-40 0 -68 29q-28 30 -28 68t28 67t68 29t68 -28t27 -69zM480 1145q-40 0 -68 29q-28 30 -27 68q0 38 28 67q27 29 67 29t68 -28t28 -69t-28 -69q-28 -27 -68 -27z" />
    <glyph glyph-name="aring" unicode="&#xe5;" horiz-adv-x="1306" 
d="M610 68q182 0 302 122t120 322q0 199 -119 322q-119 122 -301 122t-300 -129t-118 -316t118 -315q116 -128 298 -128zM1156 -25q-60 0 -94 44q-36 44 -36 116v60q-68 -103 -176 -161t-244 -59q-225 0 -370 155t-146 382q0 227 146 382t370 155q266 0 416 -211v186h100
v-864q0 -94 58 -94q29 0 45 16l8 -2l22 -68l-4 -10q-35 -27 -95 -27zM640 1413q-46 0 -75 -31q-29 -32 -29 -72t30 -71q28 -31 74 -31t74 30t27 73q1 43 -27 73t-74 29zM825 1311q0 -77 -53 -129t-132 -52t-133 52t-54 129q0 76 54 128t133 52t132 -52t53 -128z" />
    <glyph glyph-name="ae" unicode="&#xe6;" horiz-adv-x="1959" 
d="M854 375v106q-156 70 -316.5 70t-256 -64.5t-95.5 -177.5t87 -177t224.5 -64t247 83t109.5 224zM1375 956q-173 0 -287.5 -107.5t-126.5 -281.5h813q-14 178 -120 283.5t-279 105.5zM1393 68q115 0 219 48t166 132h8l65 -55v-9q-72 -98 -196.5 -153.5t-268 -55.5
t-270.5 70t-196 195q-45 -125 -170 -195t-283 -70t-271.5 89.5t-113.5 248t126 242.5t311 84t335 -70v107q0 133 -99.5 206.5t-226.5 73.5q-197 0 -342 -149h-8l-63 55v8q168 178 413 179q133 0 246 -59.5t158 -182.5q68 113 181.5 177.5t258.5 64.5q227 0 366.5 -150.5
t139.5 -374.5q0 -33 -2 -45h-918q12 -188 135.5 -299.5t299.5 -111.5z" />
    <glyph glyph-name="ccedilla" unicode="&#xe7;" horiz-adv-x="1126" 
d="M644.5 956q-203.5 0 -326.5 -127t-123 -317t121.5 -317t312.5 -127q227 0 354 163h8l64 -49v-10q-135 -178 -383 -195l-27 -65l2 -4q31 12 86.5 12t100.5 -43t45 -116.5t-61.5 -123t-162.5 -49.5q-141 0 -225 84v9l49 55h8q63 -68 158 -68q59 0 96 24.5t37 63.5
t-29.5 62.5t-82.5 23.5t-111 -26l-45 26l57 135q-209 20 -343 171t-134 372t153.5 375t385.5 154q131 0 243.5 -52.5t182.5 -144.5v-8l-64 -51h-8q-135 163 -338.5 163z" />
    <glyph glyph-name="egrave" unicode="&#xe8;" 
d="M611 956q-173 0 -287.5 -107.5t-126.5 -281.5h813q-14 178 -120 283.5t-279 105.5zM629 68q115 0 219 48t166 132h8l65 -55v-9q-72 -98 -196.5 -153.5t-259.5 -55.5q-225 0 -383 146.5t-158 384t144.5 390.5t372.5 153t367.5 -150.5t139.5 -374.5q0 -33 -2 -45h-917
q12 -188 135 -299.5t299 -111.5zM776 1147h-6l-356 242v8l61 76h8l332 -269v-8z" />
    <glyph glyph-name="eacute" unicode="&#xe9;" 
d="M611 956q-173 0 -287.5 -107.5t-126.5 -281.5h813q-14 178 -120 283.5t-279 105.5zM629 68q115 0 219 48t166 132h8l65 -55v-9q-72 -98 -196.5 -153.5t-259.5 -55.5q-225 0 -383 146.5t-158 384t144.5 390.5t372.5 153t367.5 -150.5t139.5 -374.5q0 -33 -2 -45h-917
q12 -188 135 -299.5t299 -111.5zM461 1147h-8l-39 49v8l334 269h6l61 -76v-8z" />
    <glyph glyph-name="ecircumflex" unicode="&#xea;" 
d="M611 956q-173 0 -287.5 -107.5t-126.5 -281.5h813q-14 178 -120 283.5t-279 105.5zM629 68q115 0 219 48t166 132h8l65 -55v-9q-72 -98 -196.5 -153.5t-259.5 -55.5q-225 0 -383 146.5t-158 384t144.5 390.5t372.5 153t367.5 -150.5t139.5 -374.5q0 -33 -2 -45h-917
q12 -188 135 -299.5t299 -111.5zM367 1147h-7l-45 55v8l289 187h21l288 -187v-8l-45 -55h-8l-246 143z" />
    <glyph glyph-name="edieresis" unicode="&#xeb;" 
d="M611 956q-173 0 -287.5 -107.5t-126.5 -281.5h813q-14 178 -120 283.5t-279 105.5zM629 68q115 0 219 48t166 132h8l65 -55v-9q-72 -98 -196.5 -153.5t-259.5 -55.5q-225 0 -383 146.5t-158 384t144.5 390.5t372.5 153t367.5 -150.5t139.5 -374.5q0 -33 -2 -45h-917
q12 -188 135 -299.5t299 -111.5zM775 1145q-40 0 -67.5 28.5t-27.5 67.5t27.5 67.5t67.5 28.5t67.5 -27.5t27.5 -68.5t-27.5 -68.5t-67.5 -27.5zM456 1145q-40 0 -68 28.5t-28 67.5t28 67.5t68 28.5t67.5 -27.5t27.5 -68.5t-27.5 -68.5t-67.5 -27.5z" />
    <glyph glyph-name="igrave" unicode="&#xec;" horiz-adv-x="438" 
d="M300 -25q-70 0 -106 44t-36 118v887h100v-864q0 -94 55 -94q23 0 43 14l9 -2l22 -70q-16 -33 -87 -33zM76 1473l332 -269v-8l-39 -49h-7l-356 242v8l62 76h8z" />
    <glyph glyph-name="iacute" unicode="&#xed;" horiz-adv-x="438" 
d="M300 -25q-70 0 -106 44t-36 118v887h100v-864q0 -94 55 -94q23 0 43 14l9 -2l22 -70q-16 -33 -87 -33zM340 1473h6l62 -76v-8l-355 -242h-8l-39 49v8z" />
    <glyph glyph-name="icircumflex" unicode="&#xee;" horiz-adv-x="438" 
d="M300 -25q-70 0 -106 44t-36 118v887h100v-864q0 -94 55 -94q23 0 43 14l9 -2l22 -70q-16 -33 -87 -33zM217 1397l289 -187v-8l-45 -55h-8l-246 143l-248 -143h-6l-45 55v8l289 187h20z" />
    <glyph glyph-name="idieresis" unicode="&#xef;" horiz-adv-x="438" 
d="M300 -25q-70 0 -106 44t-36 118v887h100v-864q0 -94 55 -94q23 0 43 14l9 -2l22 -70q-16 -33 -87 -33zM367 1145q-39 0 -67 29q-28 30 -28 68t28 67t67 29t67 -28t29 -69q-1 -41 -29 -69t-67 -27zM47 1145q-39 0 -67 29q-28 30 -27 68q0 38 28 67q29 29 67 29t67 -28
t29 -69t-29 -69q-29 -27 -68 -27z" />
    <glyph glyph-name="eth" unicode="&#xf0;" horiz-adv-x="1157" 
d="M578 70q168 0 278 112t109 281q0 171 -109 281q-108 110 -276 110t-278 -112t-110 -280t109 -281q109 -111 277 -111zM88 463q0 207 140 346t350 139q143 0 256 -67q-55 90 -144 202l-227 -82l-6 9v77l178 66q-68 80 -160 174v8l64 54h8q92 -94 180 -203l266 98l8 -6v-80
l-219 -80q287 -373 285 -655q2 -207 -139 -347t-350 -140q-210 0 -350 140t-140 347z" />
    <glyph glyph-name="ntilde" unicode="&#xf1;" horiz-adv-x="1232" 
d="M1105 -25q-71 0 -107.5 44t-36.5 118v488q0 150 -89.5 240.5t-240 90.5t-247.5 -95t-97 -245v-616h-103v864q0 96 -57 97q-23 0 -45 -19l-8 2l-23 68l4 10q35 27 94.5 27t95.5 -42t36 -112v-31q121 184 366 185q188 0 302 -115t114 -301v-473q0 -94 55 -94q25 0 43 14
l8 -2l23 -70q-16 -33 -87 -33zM446 1327q61 0 176 -36t179 -36t100 72h8l37 -74v-8q-57 -82 -155 -82q-61 0 -174 36t-180.5 36t-100.5 -72h-8l-37 74v8q57 82 155 82z" />
    <glyph glyph-name="ograve" unicode="&#xf2;" horiz-adv-x="1265" 
d="M632.5 68q190.5 0 314.5 127t124 317t-124 317t-314.5 127t-314 -127t-123.5 -317t123.5 -317t314 -127zM632.5 -25q-233.5 0 -388 155t-154.5 382t154.5 382t388 155t388.5 -155t155 -382t-155 -382t-388.5 -155zM502 1473l332 -269v-8l-39 -49h-7l-356 242v8l62 76h8z
" />
    <glyph glyph-name="oacute" unicode="&#xf3;" horiz-adv-x="1265" 
d="M632.5 68q190.5 0 314.5 127t124 317t-124 317t-314.5 127t-314 -127t-123.5 -317t123.5 -317t314 -127zM632.5 -25q-233.5 0 -388 155t-154.5 382t154.5 382t388 155t388.5 -155t155 -382t-155 -382t-388.5 -155zM766 1473h6l62 -76v-8l-355 -242h-8l-39 49v8z" />
    <glyph glyph-name="ocircumflex" unicode="&#xf4;" horiz-adv-x="1265" 
d="M632.5 68q190.5 0 314.5 127t124 317t-124 317t-314.5 127t-314 -127t-123.5 -317t123.5 -317t314 -127zM632.5 1049q233.5 0 388.5 -155t155 -382t-155 -382t-388.5 -155t-388 155t-154.5 382t154.5 382t388 155zM385 1147h-6l-45 55v8l289 187h20l289 -187v-8l-45 -55
h-8l-246 143z" />
    <glyph glyph-name="otilde" unicode="&#xf5;" horiz-adv-x="1265" 
d="M632.5 68q190.5 0 314.5 127t124 317t-124 317t-314.5 127t-314 -127t-123.5 -317t123.5 -317t314 -127zM632.5 -25q-233.5 0 -388 155t-154.5 382t154.5 382t388 155t388.5 -155t155 -382t-155 -382t-388.5 -155zM461 1327q61 0 176 -36t168 -36q76 0 110 72h9l37 -74
v-8q-57 -82 -156 -82q-61 0 -174 36t-181 36t-100 -72h-8l-37 74v8q58 82 156 82z" />
    <glyph glyph-name="odieresis" unicode="&#xf6;" horiz-adv-x="1265" 
d="M632.5 68q190.5 0 314.5 127t124 317t-124 317t-314.5 127t-314 -127t-123.5 -317t123.5 -317t314 -127zM632.5 -25q-233.5 0 -388 155t-154.5 382t154.5 382t388 155t388.5 -155t155 -382t-155 -382t-388.5 -155zM792.5 1145q-38.5 0 -66.5 28.5t-28 67.5t28 67.5
t66.5 28.5t67.5 -27.5t29 -68.5t-29 -68.5t-67.5 -27.5zM473 1145q-39 0 -66.5 28.5t-27.5 67.5t27.5 67.5t66.5 28.5t67.5 -27.5t28.5 -68.5t-28.5 -68.5t-67.5 -27.5z" />
    <glyph glyph-name="divide" unicode="&#xf7;" horiz-adv-x="1093" 
d="M553 203q-41 -1 -69 27t-27 69q0 41 27 69q28 28 69 28t69 -28t28 -69t-28 -69q-28 -27 -69 -27zM129 657h836v-86h-836v86zM553 860q-41 0 -69 29t-28 67t28 68q28 29 69 29t69 -29t28 -68q0 -40 -28 -68t-69 -28z" />
    <glyph glyph-name="oslash" unicode="&#xf8;" horiz-adv-x="1265" 
d="M633 68q190 0 314 127t124 326.5t-145 328.5l-510 -729q96 -53 217 -53zM195 502.5q0 -199.5 145 -328.5l510 729q-96 53 -217 53q-190 0 -314 -127t-124 -326.5zM1176 512q0 -227 -155 -382t-388 -155q-147 0 -271 68l-96 -137h-104l-6 6l129 182q-195 158 -195 418
q0 227 154.5 382t388.5 155q147 0 270 -68l115 164h104l6 -6l-147 -209q195 -158 195 -418z" />
    <glyph glyph-name="ugrave" unicode="&#xf9;" horiz-adv-x="1210" 
d="M1060 -25q-60 0 -94 44q-36 44 -36 116v25q-121 -184 -357 -185q-183 0 -293 110t-110 294v485q0 96 -55 97q-25 0 -47 -19l-9 2l-22 68l4 10q35 27 95 27t98 -41q36 -41 36 -113v-508q0 -151 87 -235t231 -84t241 96q96 96 97 244v616h100v-864q0 -94 55 -94q27 0 47 16
l9 -2l22 -68l-4 -10q-35 -27 -95 -27zM754 1147h-6l-357 242v8l62 76h8l332 -269v-8z" />
    <glyph glyph-name="uacute" unicode="&#xfa;" horiz-adv-x="1210" 
d="M1060 -25q-60 0 -94 44q-36 44 -36 116v25q-121 -184 -357 -185q-183 0 -293 110t-110 294v485q0 96 -55 97q-25 0 -47 -19l-9 2l-22 68l4 10q35 27 95 27t98 -41q36 -41 36 -113v-508q0 -151 87 -235t231 -84t241 96q96 96 97 244v616h100v-864q0 -94 55 -94q27 0 47 16
l9 -2l22 -68l-4 -10q-35 -27 -95 -27zM438 1147h-8l-39 49v8l334 269h6l62 -76v-8z" />
    <glyph glyph-name="ucircumflex" unicode="&#xfb;" horiz-adv-x="1210" 
d="M1060 -25q-60 0 -94 44q-36 44 -36 116v25q-121 -184 -357 -185q-183 0 -293 110t-110 294v485q0 96 -55 97q-25 0 -47 -19l-9 2l-22 68l4 10q35 27 95 27t98 -41q36 -41 36 -113v-508q0 -151 87 -235t231 -84t241 96q96 96 97 244v616h100v-864q0 -94 55 -94q27 0 47 16
l9 -2l22 -68l-4 -10q-35 -27 -95 -27zM344 1147h-6l-45 55v8l289 187h20l289 -187v-8l-45 -55h-8l-246 143z" />
    <glyph glyph-name="udieresis" unicode="&#xfc;" horiz-adv-x="1210" 
d="M1060 -25q-60 0 -94 44q-36 44 -36 116v25q-121 -184 -357 -185q-183 0 -293 110t-110 294v485q0 96 -55 97q-25 0 -47 -19l-9 2l-22 68l4 10q35 27 95 27t98 -41q36 -41 36 -113v-508q0 -151 87 -235t231 -84t241 96q96 96 97 244v616h100v-864q0 -94 55 -94q27 0 47 16
l9 -2l22 -68l-4 -10q-35 -27 -95 -27zM752 1145q-39 0 -67 29q-28 30 -28 68t28 67t67 29q40 0 68 -28t28 -69t-28 -69t-68 -27zM432 1145q-38 0 -66 29q-28 30 -28 68t28 67t66 29t68 -28q28 -28 28 -69t-28 -69q-29 -27 -68 -27z" />
    <glyph glyph-name="yacute" unicode="&#xfd;" horiz-adv-x="1173" 
d="M913 1024h101v-866q0 -221 -131 -343t-353 -122t-376 180v8l55 60h8q131 -158 313 -158t283 99q100 99 100 276v100q-129 -172 -354 -172q-186 0 -294 104t-107 293v381q0 96 -56 97q-25 0 -47 -19l-8 2l-22 68l4 10q39 27 97 27t96 -41q36 -41 36 -113v-416
q0 -141 85 -221t228 -80t243 96q99 96 99 244v506zM406 1147h-9l-39 49v8l334 269h6l62 -76v-8z" />
    <glyph glyph-name="thorn" unicode="&#xfe;" horiz-adv-x="1284" 
d="M252 512q0 -204 119 -324t302 -120t300 128t117 315t-117 316t-300 129t-302 -120t-119 -324zM674 1049q228 0 374 -155t146 -382t-145 -382t-375 -155q-264 0 -412 213v-495h-100v1478q0 96 -56 97q-25 0 -47 -19l-8 2l-22 68l4 10q35 27 95 27t94 -44q36 -44 36 -116
v-367q148 220 416 220z" />
    <glyph glyph-name="ydieresis" unicode="&#xff;" horiz-adv-x="1173" 
d="M913 1024h101v-866q0 -221 -131 -343t-353 -122t-376 180v8l55 60h8q131 -158 313 -158t283 99q100 99 100 276v100q-129 -172 -354 -172q-186 0 -294 104t-107 293v381q0 96 -56 97q-25 0 -47 -19l-8 2l-22 68l4 10q39 27 97 27t96 -41q36 -41 36 -113v-416
q0 -141 85 -221t228 -80t243 96q99 96 99 244v506zM719 1145q-39 0 -67 29q-28 30 -28 68t28 67t67 29t67 -28t29 -69q-1 -41 -29 -69t-67 -27zM399 1145q-39 0 -67 29q-28 30 -27 68q0 38 28 67q29 29 67 29t67 -28t29 -69t-29 -69t-68 -27z" />
    <glyph glyph-name="Amacron" unicode="&#x100;" horiz-adv-x="1435" 
d="M399 414h633l-313 747zM1327 -25q-57 0 -98 35t-80 127l-76 182h-713l-77 -182q-39 -92 -81 -127t-98 -35t-94 29l-4 8l27 74l8 2q25 -16 55 -16t47 18q18 18 47 84l498 1157h66l489 -1157q29 -66 48 -84t50 -18t52 16l8 -2l26 -74l-4 -8q-39 -29 -96 -29zM1001 1579v-82
h-561v82h561z" />
    <glyph glyph-name="amacron" unicode="&#x101;" horiz-adv-x="1306" 
d="M610 68q182 0 302 122t120 322q0 199 -119 322q-119 122 -301 122t-300 -129t-118 -316t118 -315q116 -128 298 -128zM1156 -25q-60 0 -94 44q-36 44 -36 116v60q-68 -103 -176 -161t-244 -59q-225 0 -370 155t-146 382q0 227 146 382t370 155q266 0 416 -211v186h100
v-864q0 -94 58 -94q29 0 45 16l8 -2l22 -68l-4 -10q-35 -27 -95 -27zM915 1274v-86h-553v86h553z" />
    <glyph glyph-name="Abreve" unicode="&#x102;" horiz-adv-x="1435" 
d="M399 414h633l-313 747zM1327 -25q-57 0 -98 35t-80 127l-76 182h-713l-77 -182q-39 -92 -81 -127t-98 -35t-94 29l-4 8l27 74l8 2q25 -16 55 -16t47 18q18 18 47 84l498 1157h66l489 -1157q29 -66 48 -84t50 -18t52 16l8 -2l26 -74l-4 -8q-39 -29 -96 -29zM725 1448
q-111 0 -189 70t-94 184h90q12 -80 64 -126t129 -46q78 0 129 46t64 126h90q-14 -114 -93 -184t-190 -70z" />
    <glyph glyph-name="abreve" unicode="&#x103;" horiz-adv-x="1306" 
d="M610 68q182 0 302 122t120 322q0 199 -119 322q-119 122 -301 122t-300 -129t-118 -316t118 -315q116 -128 298 -128zM1156 -25q-60 0 -94 44q-36 44 -36 116v60q-68 -103 -176 -161t-244 -59q-225 0 -370 155t-146 382q0 227 146 382t370 155q266 0 416 -211v186h100
v-864q0 -94 58 -94q29 0 45 16l8 -2l22 -68l-4 -10q-35 -27 -95 -27zM639 1147q-115 0 -192 70t-91 182h90q12 -78 66 -125t127 -47q74 0 127 47t65 125h91q-14 -113 -91 -183t-192 -69z" />
    <glyph glyph-name="Aogonek" unicode="&#x104;" horiz-adv-x="1435" 
d="M399 414h633l-313 747zM1133 -238q0 100 157 218q-39 10 -61 32q-41 33 -80 125l-76 182h-713l-77 -182q-39 -92 -81 -127t-98 -35t-94 29l-4 8l27 74l8 2q25 -16 55 -16t47 18q18 18 47 84l498 1157h66l489 -1157q29 -66 48 -84t50 -18t52 16l8 -2l26 -74l-4 -8
q-21 -17 -79 -64q-58 -46 -86 -80q-28 -35 -34 -54q-5 -18 -5 -50q1 -32 29 -58t79 -27t100 42h9l39 -51v-8q-76 -62 -157 -62t-133 46t-52 124z" />
    <glyph glyph-name="aogonek" unicode="&#x105;" horiz-adv-x="1306" 
d="M610 68q182 0 302 122t120 322q0 199 -119 322q-119 122 -301 122t-300 -129t-118 -316t118 -315q116 -128 298 -128zM961 -240q0 100 161 222q-96 27 -96 153v60q-68 -103 -176 -161t-244 -59q-225 0 -370 155t-146 382q0 227 146 382t370 155q266 0 416 -211v186h100
v-864q0 -94 58 -94q29 0 45 16l8 -2l22 -68l-4 -10q-12 -10 -41 -33t-43 -35t-38 -32t-53 -57q-29 -38 -29 -80q1 -43 29 -69t79 -27t100 42h9l39 -51v-8q-76 -62 -157 -62t-133 46t-52 124z" />
    <glyph glyph-name="Cacute" unicode="&#x106;" horiz-adv-x="1411" 
d="M207 667q0 -253 169 -423t421 -170q141 0 263 59.5t200 163.5h8l71 -55v-9q-96 -121 -237 -189.5t-305 -68.5q-297 0 -497 199t-200 491.5t200 491.5t497 199q164 0 305 -68.5t237 -189.5v-8l-71 -56h-8q-78 104 -200 163.5t-263 59.5q-252 0 -421 -168.5t-169 -421.5z
M944 1745h8l52 -80v-6l-379 -209h-9l-32 51v8z" />
    <glyph glyph-name="cacute" unicode="&#x107;" horiz-adv-x="1126" 
d="M90 512q0 229 153.5 383t385.5 154q131 0 243.5 -52.5t182.5 -144.5v-8l-64 -51h-8q-135 164 -354 163q-188 0 -311 -127t-123 -317t121.5 -317t312.5 -127q227 0 354 163h8l64 -49v-10q-70 -92 -182.5 -144.5t-243.5 -52.5q-231 0 -385 154t-154 383zM760 1473h6l61 -76
v-8l-354 -242h-8l-39 49v8z" />
    <glyph glyph-name="Cdotaccent" unicode="&#x10a;" horiz-adv-x="1411" 
d="M207 667q0 -253 169 -423t421 -170q141 0 263 59.5t200 163.5h8l71 -55v-9q-96 -121 -237 -189.5t-305 -68.5q-297 0 -497 199t-200 491.5t200 491.5t497 199q164 0 305 -68.5t237 -189.5v-8l-71 -56h-8q-78 104 -200 163.5t-263 59.5q-252 0 -421 -168.5t-169 -421.5z
M796 1450q-38 0 -67 27.5t-29 66.5t29 66.5t67 27.5t66.5 -27.5t28.5 -66.5t-28.5 -66.5t-66.5 -27.5z" />
    <glyph glyph-name="cdotaccent" unicode="&#x10b;" horiz-adv-x="1126" 
d="M90 512q0 229 153.5 383t385.5 154q131 0 243.5 -52.5t182.5 -144.5v-8l-64 -51h-8q-135 164 -354 163q-188 0 -311 -127t-123 -317t121.5 -317t312.5 -127q227 0 354 163h8l64 -49v-10q-70 -92 -182.5 -144.5t-243.5 -52.5q-231 0 -385 154t-154 383zM627 1145
q-41 0 -69 27.5t-28 68.5t28 68.5t69 27.5t68.5 -27.5t27.5 -68.5t-27.5 -68.5t-68.5 -27.5z" />
    <glyph glyph-name="Ccaron" unicode="&#x10c;" horiz-adv-x="1411" 
d="M797 1257q-252 0 -421 -168.5t-169 -421.5t169 -423t421 -170q141 0 263 59.5t200 163.5h8l71 -55v-9q-96 -121 -237 -189.5t-305 -68.5q-297 0 -497 199t-200 491.5t200 491.5t497 199q164 0 305 -68.5t237 -189.5v-8l-71 -56h-8q-78 104 -200 163.5t-263 59.5z
M801 1450h-13l-307 184v8l39 58h8l267 -144l266 144h6l39 -58v-8z" />
    <glyph glyph-name="ccaron" unicode="&#x10d;" horiz-adv-x="1126" 
d="M644.5 956q-203.5 0 -326.5 -127t-123 -317t121.5 -317t312.5 -127q227 0 354 163h8l64 -49v-10q-70 -92 -182.5 -144.5t-243.5 -52.5q-231 0 -385 154t-154 383t153.5 383t385.5 154q131 0 243.5 -52.5t182.5 -144.5v-8l-64 -51h-8q-135 163 -338.5 163zM637 1147h-21
l-288 186v8l45 56h6l248 -146l245 146h9l45 -56v-8z" />
    <glyph glyph-name="Dcaron" unicode="&#x10e;" horiz-adv-x="1468" 
d="M680 94q266 0 422 156t155 416q1 260 -155 416t-422 155h-375v-1143h375zM680 1331q314 0 500 -182t186 -483q0 -302 -186 -484t-500 -182h-479v1331h479zM659 1450h-12l-307 184v8l39 58h8l266 -144l267 144h6l39 -58v-8z" />
    <glyph glyph-name="dcaron" unicode="&#x10f;" horiz-adv-x="1337" 
d="M611 68q183 0 302 120.5t119 323.5t-118.5 323.5t-302 120.5t-300 -129t-116.5 -316t116.5 -315t299.5 -128zM1156.5 -25q-59.5 0 -95 44t-35.5 116v58q-68 -100 -176.5 -159t-239.5 -59q-229 0 -374.5 155t-145.5 383t145.5 382t374.5 154q260 0 412 -213v542l92 19
l8 -6v-1231q0 -94 58 -94q25 0 45 16l8 -2l22 -68l-4 -10q-35 -27 -94.5 -27zM1411 1444l6 -8l-98 -349l-8 -8h-58l-6 8l58 349l8 8h98z" />
    <glyph glyph-name="Dcroat" unicode="&#x110;" horiz-adv-x="1474" 
d="M686 94q266 0 422 156t156 416t-156 416t-422 155h-375v-518h414v-94h-414v-531h375zM686 1331q314 0 500 -182t186 -483q0 -302 -186 -484t-500 -182h-479v625h-168v94h168v612h479z" />
    <glyph glyph-name="dcroat" unicode="&#x111;" horiz-adv-x="1306" 
d="M611 68q183 0 302 120.5t119 323.5t-118.5 323.5t-302 120.5t-300 -129t-116.5 -316t116.5 -315t299.5 -128zM1122 1151v-991q0 -94 58 -94q25 0 45 16l8 -2l22 -68l-4 -10q-35 -27 -94.5 -27t-95 44t-35.5 116v58q-68 -100 -176.5 -159t-239.5 -59q-229 0 -374.5 155
t-145.5 383t145.5 382t374.5 154q260 0 412 -213v315h-317v82h317v145l92 19l8 -6v-158h138v-82h-138z" />
    <glyph glyph-name="Emacron" unicode="&#x112;" horiz-adv-x="1128" 
d="M1040 1237h-735v-518h580v-92h-580v-533h735v-94h-839v1331h839v-94zM340 1579h561v-82h-561v82z" />
    <glyph glyph-name="emacron" unicode="&#x113;" 
d="M611 956q-173 0 -287.5 -107.5t-126.5 -281.5h813q-14 178 -120 283.5t-279 105.5zM629 68q115 0 219 48t166 132h8l65 -55v-9q-72 -98 -196.5 -153.5t-259.5 -55.5q-225 0 -383 146.5t-158 384t144.5 390.5t372.5 153t367.5 -150.5t139.5 -374.5q0 -33 -2 -45h-917
q12 -188 135 -299.5t299 -111.5zM891 1274v-86h-553v86h553z" />
    <glyph glyph-name="Edotaccent" unicode="&#x116;" horiz-adv-x="1128" 
d="M1040 1237h-735v-518h580v-92h-580v-533h735v-94h-839v1331h839v-94zM622 1450q-38 0 -67 27.5t-29 66.5t29 66.5t67 27.5t66.5 -27.5t28.5 -66.5t-28.5 -66.5t-66.5 -27.5z" />
    <glyph glyph-name="edotaccent" unicode="&#x117;" 
d="M611 956q-173 0 -287.5 -107.5t-126.5 -281.5h813q-14 178 -120 283.5t-279 105.5zM629 68q115 0 219 48t166 132h8l65 -55v-9q-72 -98 -196.5 -153.5t-259.5 -55.5q-225 0 -383 146.5t-158 384t144.5 390.5t372.5 153t367.5 -150.5t139.5 -374.5q0 -33 -2 -45h-917
q12 -188 135 -299.5t299 -111.5zM614 1145q-41 0 -68.5 27.5t-27.5 68.5t27.5 68.5t68.5 27.5t69 -27.5t28 -68.5t-28 -68.5t-69 -27.5z" />
    <glyph glyph-name="Eogonek" unicode="&#x118;" horiz-adv-x="1128" 
d="M201 0v1331h839v-94h-735v-518h580v-92h-580v-533h735v-94q-12 -10 -40.5 -32.5t-43 -35t-36.5 -32.5q-84 -72 -84 -138q0 -42 28.5 -68t79.5 -27t100 42h9l39 -51v-8q-76 -61 -157 -61.5t-133 46t-52 132t126 185.5q16 13 64 48h-739z" />
    <glyph glyph-name="eogonek" unicode="&#x119;" 
d="M611 956q-173 0 -287.5 -107.5t-126.5 -281.5h813q-14 178 -120 283.5t-279 105.5zM629 68q115 0 219 48t166 132h8l65 -55v-9q-82 -111 -231 -168q-14 -10 -42 -32.5t-42 -33.5q-14 -12 -36 -32q-82 -75 -83 -138q0 -42 29 -67.5t80 -26.5t100 42h8l39 -52v-8
q-76 -61 -156.5 -61t-133 46t-52.5 132t140 195q-49 -4 -76 -5q-225 0 -383 146.5t-158 384t144.5 390.5t372.5 153t367.5 -150.5t139.5 -374.5q0 -33 -2 -45h-917q12 -188 135 -299.5t299 -111.5z" />
    <glyph glyph-name="Ecaron" unicode="&#x11a;" horiz-adv-x="1128" 
d="M1040 1237h-735v-518h580v-92h-580v-533h735v-94h-839v1331h839v-94zM627 1450h-13l-307 184v8l39 58h8l267 -144l266 144h6l39 -58v-8z" />
    <glyph glyph-name="ecaron" unicode="&#x11b;" 
d="M611 956q-173 0 -287.5 -107.5t-126.5 -281.5h813q-14 178 -120 283.5t-279 105.5zM629 68q115 0 219 48t166 132h8l65 -55v-9q-72 -98 -196.5 -153.5t-259.5 -55.5q-225 0 -383 146.5t-158 384t144.5 390.5t372.5 153t367.5 -150.5t139.5 -374.5q0 -33 -2 -45h-917
q12 -188 135 -299.5t299 -111.5zM625 1147h-21l-289 186v8l45 56h7l247 -146l246 146h8l45 -56v-8z" />
    <glyph glyph-name="Gbreve" unicode="&#x11e;" horiz-adv-x="1536" 
d="M1470 639q0 -276 -195.5 -470t-486 -194t-489.5 199t-199 491.5t200 491.5t495 199q168 0 309 -67.5t235 -186.5v-8l-71 -60h-8q-80 104 -202 163.5t-265 59.5q-248 0 -417 -168.5t-169 -421.5t169 -423t410 -170t407.5 154.5t168.5 375.5h-563v94h661l8 -10q2 -18 2 -49
zM800.5 1448q-110.5 0 -189.5 69.5t-93 184.5h90q12 -80 63.5 -126t129.5 -46t129 46t63 126h90q-14 -115 -93 -184.5t-189.5 -69.5z" />
    <glyph glyph-name="gbreve" unicode="&#x11f;" horiz-adv-x="1253" 
d="M584 195q172 0 281.5 107.5t109.5 272t-109.5 273t-280.5 108.5t-279.5 -107.5t-108.5 -273t107.5 -273t279.5 -107.5zM1071 864v-706q0 -225 -135 -345t-348 -120q-305 0 -453 219v8l55 60h9q135 -197 389 -197q174 0 278.5 98.5t104.5 276.5v137q-135 -193 -389 -193
q-211 0 -350.5 136.5t-139.5 338t138.5 337t351.5 135.5q258 0 393 -197v43q0 72 36 113t95 41t94 -27l4 -10l-22 -68l-8 -2q-23 18 -46 19q-57 0 -57 -97zM612.5 1147q-114.5 0 -191.5 69.5t-91 182.5h90q12 -78 65.5 -125t127 -47t127 47t65.5 125h90q-14 -113 -91 -182.5
t-191.5 -69.5z" />
    <glyph glyph-name="Gdotaccent" unicode="&#x120;" horiz-adv-x="1536" 
d="M1470 639q0 -276 -195.5 -470t-486 -194t-489.5 199t-199 491.5t200 491.5t495 199q168 0 309 -67.5t235 -186.5v-8l-71 -60h-8q-80 104 -202 163.5t-265 59.5q-248 0 -417 -168.5t-169 -421.5t169 -423t410 -170t407.5 154.5t168.5 375.5h-563v94h661l8 -10q2 -18 2 -49
zM798 1450q-38 0 -67 27.5t-29 66.5t29 66.5t67 27.5t66.5 -27.5t28.5 -66.5t-28.5 -66.5t-66.5 -27.5z" />
    <glyph glyph-name="gdotaccent" unicode="&#x121;" horiz-adv-x="1253" 
d="M584 195q172 0 281.5 107.5t109.5 272t-109.5 273t-280.5 108.5t-279.5 -107.5t-108.5 -273t107.5 -273t279.5 -107.5zM1071 864v-706q0 -225 -135 -345t-348 -120q-305 0 -453 219v8l55 60h9q135 -197 389 -197q174 0 278.5 98.5t104.5 276.5v137q-135 -193 -389 -193
q-211 0 -350.5 136.5t-139.5 338t138.5 337t351.5 135.5q258 0 393 -197v43q0 72 36 113t95 41t94 -27l4 -10l-22 -68l-8 -2q-23 18 -46 19q-57 0 -57 -97zM612 1145q-39 0 -67.5 27.5t-28.5 68.5t28.5 68.5t67.5 27.5t68 -27.5t29 -68.5t-29 -68.5t-68 -27.5z" />
    <glyph glyph-name="Gcommaaccent" unicode="&#x122;" horiz-adv-x="1536" 
d="M748 -100h98l6 -9l-88 -305l-8 -8h-60l-6 8l49 305zM1470 639q0 -276 -195.5 -470t-486 -194t-489.5 199t-199 491.5t200 491.5t495 199q168 0 309 -67.5t235 -186.5v-8l-71 -60h-8q-80 104 -202 163.5t-265 59.5q-248 0 -417 -168.5t-169 -421.5t169 -423t410 -170
t407.5 154.5t168.5 375.5h-563v94h661l8 -10q2 -18 2 -49z" />
    <glyph glyph-name="gcommaaccent" unicode="&#x123;" horiz-adv-x="1253" 
d="M584 195q172 0 281.5 107.5t109.5 272t-109.5 273t-280.5 108.5t-279.5 -107.5t-108.5 -273t107.5 -273t279.5 -107.5zM1071 864v-706q0 -225 -135 -345t-348 -120q-305 0 -453 219v8l55 60h9q135 -197 389 -197q174 0 278.5 98.5t104.5 276.5v137q-135 -193 -389 -193
q-211 0 -350.5 136.5t-139.5 338t138.5 337t351.5 135.5q258 0 393 -197v43q0 72 36 113t95 41t94 -27l4 -10l-22 -68l-8 -2q-23 18 -46 19q-57 0 -57 -97zM662 1149h-99l-6 8l88 305l8 8h60l6 -8l-49 -305z" />
    <glyph glyph-name="Hbar" unicode="&#x126;" horiz-adv-x="1476" 
d="M1171 719v227h-866v-227h866zM1378 1030v-84h-102v-946h-105v627h-866v-627h-104v946h-101v84h101v301h104v-301h866v301h105v-301h102z" />
    <glyph glyph-name="hbar" unicode="&#x127;" horiz-adv-x="1208" 
d="M1078 -25q-68 0 -104 44t-36 118v488q0 151 -89 241t-241 90t-249 -95t-97 -245v-616h-100v1124h-60v82h60v15q0 96 -58 96q-23 0 -45 -19l-8 2l-22 68l4 10q35 27 95 27t98 -41q36 -41 36 -113v-45h322v-82h-322v-254q119 178 363 179q186 0 300 -115t113 -301v-473
q0 -94 58 -94q23 0 41 14l8 -2l24 -70q-24 -33 -91 -33z" />
    <glyph glyph-name="Itilde" unicode="&#x128;" horiz-adv-x="714" 
d="M637 1241h-227v-1149h227v-92h-559v92h227v1149h-227v90h559v-90zM203 1638q55 0 159 -36t152 -37q72 0 100 73h9l39 -73v-6q-53 -86 -148 -86q-56 -1 -158 37t-153 38q-72 0 -103 -75h-6l-39 73v6q50 86 148 86z" />
    <glyph glyph-name="itilde" unicode="&#x129;" horiz-adv-x="438" 
d="M300 -25q-70 0 -106 44t-36 118v887h100v-864q0 -94 55 -94q23 0 43 14l9 -2l22 -70q-16 -33 -87 -33zM35 1327q61 0 176 -36t168 -36q76 0 110 72h9l37 -74v-8q-57 -82 -156 -82q-61 0 -174 36t-181 36t-100 -72h-8l-37 74v8q58 82 156 82z" />
    <glyph glyph-name="Imacron" unicode="&#x12a;" horiz-adv-x="714" 
d="M637 1241h-227v-1149h227v-92h-559v92h227v1149h-227v90h559v-90zM106 1579h506v-82h-506v82z" />
    <glyph glyph-name="imacron" unicode="&#x12b;" horiz-adv-x="438" 
d="M300 -25q-70 0 -106 44t-36 118v887h100v-864q0 -94 55 -94q23 0 43 14l9 -2l22 -70q-16 -33 -87 -33zM-70 1274h553v-86h-553v86z" />
    <glyph glyph-name="Iogonek" unicode="&#x12e;" horiz-adv-x="714" 
d="M78 0v92h227v1149h-227v90h559v-90h-227v-1149h227v-92q-12 -10 -41 -33t-43 -35t-37 -31q-84 -69 -84 -125t29 -82t79 -27t101 42h8l39 -51v-8q-76 -62 -157 -62t-133 46t-52 124t62 135q62 58 129 107h-459z" />
    <glyph glyph-name="iogonek" unicode="&#x12f;" horiz-adv-x="438" 
d="M92 -242q0 104 164 222q-98 27 -98 157v887h100v-864q0 -94 55 -94q23 0 43 14l9 -2l22 -70l-4 -8q-12 -10 -41 -33t-43 -35t-37 -31q-84 -69 -84 -125t29 -82t80 -27t100 42h8l39 -51v-8q-76 -62 -157 -62t-133 46t-52 124zM207 1145q-39 -1 -68 27t-28 69q0 41 28 69
q29 28 68 28t67 -28t29 -69q-1 -41 -29 -69t-67 -27z" />
    <glyph glyph-name="Idotaccent" unicode="&#x130;" horiz-adv-x="714" 
d="M637 1241h-227v-1149h227v-92h-559v92h227v1149h-227v90h559v-90zM455 1544q0 -38 -29 -66t-67 -28q-39 0 -67 28t-28 66t29 67q29 27 67 27t66 -28q29 -28 29 -66z" />
    <glyph glyph-name="dotlessi" unicode="&#x131;" horiz-adv-x="438" 
d="M300 -25q-70 0 -106 44t-36 118v887h100v-864q0 -94 55 -94q23 0 43 14l9 -2l22 -70q-16 -33 -87 -33z" />
    <glyph glyph-name="IJ" unicode="&#x132;" horiz-adv-x="1730" 
d="M989 1331h557v-960q0 -184 -111 -290q-112 -105 -276 -106q-252 0 -383 201v8l72 60h8q113 -172 301 -172q123 0 204 82t81 219v864h-453v94zM637 1241h-227v-1149h227v-92h-559v92h227v1149h-227v90h559v-90z" />
    <glyph glyph-name="ij" unicode="&#x133;" horiz-adv-x="890" 
d="M729 1024v-991q0 -133 -48 -208t-146 -132h-9l-39 74v6q72 43 107 98t35 152v915h-142v86h242zM300 -25q-70 0 -106 44t-36 118v887h100v-864q0 -94 55 -94q23 0 43 14l9 -2l22 -70q-16 -33 -87 -33zM639 1145q-41 -1 -69 27t-27 69q0 41 27 69q28 28 69 28t69 -28
t28 -69t-28 -69q-28 -27 -69 -27zM303 1241q0 -41 -29 -69q-30 -28 -68 -28t-67 28t-28 69q0 41 28 69q29 28 68 28t67 -28t29 -69z" />
    <glyph glyph-name="Kcommaaccent" unicode="&#x136;" horiz-adv-x="1210" 
d="M610 -100h99l6 -9l-88 -305l-9 -8h-59l-6 8l49 305zM172 1356q70 0 107.5 -44t37.5 -116v-575l680 710h125l4 -6l-598 -627l445 -520q94 -106 155 -106q33 0 60 16l10 -2l25 -74l-4 -8q-37 -29 -97 -29q-109 0 -243 156l-422 492l-140 -146v-477h-106v1165q0 94 -55 95
q-31 0 -47 -17l-11 2l-24 74q28 37 98 37z" />
    <glyph glyph-name="kcommaaccent" unicode="&#x137;" horiz-adv-x="1118" 
d="M518 -100h98l7 -9l-88 -305l-9 -8h-59l-6 8l49 305zM262 598v-115h348q125 0 203 66.5t78 173t-74 171t-199 64.5q-170 0 -263 -99t-93 -261zM981 -25q-92 0 -186 115l-254 307h-279v-397h-100v1221q0 96 -56 96q-25 0 -47 -19l-8 2l-22 68l4 10q35 27 95.5 27t97 -41
t36.5 -113v-381q111 178 365 179q166 0 267 -90.5t101 -228.5t-92 -226t-237 -105l215 -262q61 -72 108 -71q25 0 49 14l9 -2l22 -70l-4 -8q-35 -25 -84 -25z" />
    <glyph glyph-name="kgreenlandic" unicode="&#x138;" horiz-adv-x="1026" 
d="M954 -25q-92 0 -186 115l-342 418l-162 -166v-342h-100v1024h100v-557l547 557h113l2 -6l-434 -440l362 -441q59 -72 109 -71q25 0 49 14l10 -2l22 -70q-25 -33 -90 -33z" />
    <glyph glyph-name="Lacute" unicode="&#x139;" horiz-adv-x="1005" 
d="M967 94v-94h-766v1331h104v-1237h662zM528 1745h9l51 -80v-6l-379 -209h-8l-33 51v8z" />
    <glyph glyph-name="lacute" unicode="&#x13a;" horiz-adv-x="452" 
d="M134.5 1405q58.5 0 94 -41t35.5 -113v-1091q0 -94 55 -94q27 0 48 16l8 -2l22 -68l-4 -10q-35 -27 -95.5 -27t-97 44t-36.5 116v1086q0 96 -55 96q-25 0 -48 -19l-8 2l-22 68l4 10q41 27 99.5 27zM397 1751h9l51 -80v-6l-379 -209h-8l-33 51v9z" />
    <glyph glyph-name="Lcommaaccent" unicode="&#x13b;" horiz-adv-x="1005" 
d="M526 -109l9 9h98l6 -9l-88 -305l-8 -8h-60l-6 8zM967 94v-94h-766v1331h104v-1237h662z" />
    <glyph glyph-name="lcommaaccent" unicode="&#x13c;" horiz-adv-x="452" 
d="M223 -115l8 9h99l6 -9l-88 -305l-8 -8h-60l-6 8zM134.5 1405q58.5 0 94 -41t35.5 -113v-1091q0 -94 55 -94q27 0 48 16l8 -2l22 -68l-4 -10q-35 -27 -95.5 -27t-97 44t-36.5 116v1086q0 96 -55 96q-25 0 -48 -19l-8 2l-22 68l4 10q41 27 99.5 27z" />
    <glyph glyph-name="Lcaron" unicode="&#x13d;" horiz-adv-x="1005" 
d="M967 94v-94h-766v1331h104v-1237h662zM592 1434l8 8h98l7 -8l-99 -349l-8 -8h-57l-6 8z" />
    <glyph glyph-name="lcaron" unicode="&#x13e;" horiz-adv-x="479" 
d="M134.5 1405q58.5 0 94 -41t35.5 -113v-1091q0 -94 55 -94q27 0 48 16l8 -2l22 -68l-4 -10q-35 -27 -95.5 -27t-97 44t-36.5 116v1086q0 96 -55 96q-25 0 -48 -19l-8 2l-22 68l4 10q41 27 99.5 27zM438 1436l8 8h99l6 -8l-98 -349l-11 -8h-55l-6 8z" />
    <glyph glyph-name="Ldot" unicode="&#x13f;" horiz-adv-x="1019" 
d="M649 590q-45 0 -77.5 32.5t-32.5 77.5t32.5 78t77.5 33t77 -33t32 -78t-32 -77.5t-77 -32.5zM967 94v-94h-766v1331h104v-1237h662z" />
    <glyph glyph-name="ldot" unicode="&#x140;" horiz-adv-x="483" 
d="M434 629q-45 0 -77.5 32.5t-32.5 77.5t32.5 78t77.5 33t78 -33t33 -78t-33 -77.5t-78 -32.5zM134.5 1405q58.5 0 94 -41t35.5 -113v-1091q0 -94 55 -94q27 0 48 16l8 -2l22 -68l-4 -10q-35 -27 -95.5 -27t-97 44t-36.5 116v1086q0 96 -55 96q-25 0 -48 -19l-8 2l-22 68
l4 10q41 27 99.5 27z" />
    <glyph glyph-name="Lslash" unicode="&#x141;" horiz-adv-x="1042" 
d="M342 94h659v-94h-763v518l-201 -98l-8 6v80l209 102v723h104v-672l344 170l8 -6v-82l-352 -172v-475z" />
    <glyph glyph-name="lslash" unicode="&#x142;" horiz-adv-x="591" 
d="M352 160q0 -94 56 -94q27 0 47 16l8 -2l22 -68l-4 -10q-35 -27 -95.5 -27t-97 44t-36.5 116v461l-195 -100h-10v79l205 107v539q0 96 -55 96q-25 0 -47 -19l-9 2l-22 68l4 10q41 27 99.5 27t94 -41t35.5 -113v-518l197 103h10v-82l-207 -107v-487z" />
    <glyph glyph-name="Nacute" unicode="&#x143;" horiz-adv-x="1490" 
d="M1188 1331h102v-1331h-65l-922 1128v-1128h-102v1331h65l922 -1128v1128zM582 1450h-9l-32 51v8l360 236h8l52 -80v-6z" />
    <glyph glyph-name="nacute" unicode="&#x144;" horiz-adv-x="1232" 
d="M1105 -25q-71 0 -107.5 44t-36.5 118v488q0 150 -89.5 240.5t-240 90.5t-247.5 -95t-97 -245v-616h-103v864q0 96 -57 97q-23 0 -45 -19l-8 2l-23 68l4 10q35 27 94.5 27t95.5 -42t36 -112v-31q121 184 366 185q188 0 302 -115t114 -301v-473q0 -94 55 -94q25 0 43 14
l8 -2l23 -70q-16 -33 -87 -33zM465 1147h-8l-39 49v8l334 269h6l61 -76v-8z" />
    <glyph glyph-name="Ncommaaccent" unicode="&#x145;" horiz-adv-x="1490" 
d="M702 -100h99l6 -9l-88 -305l-8 -8h-60l-6 8l49 305zM1188 1331h102v-1331h-65l-922 1128v-1128h-102v1331h65l922 -1128v1128z" />
    <glyph glyph-name="ncommaaccent" unicode="&#x146;" horiz-adv-x="1232" 
d="M578 -100h98l6 -9l-88 -305l-8 -8h-60l-6 8l49 305zM1105 -25q-71 0 -107.5 44t-36.5 118v488q0 150 -89.5 240.5t-240 90.5t-247.5 -95t-97 -245v-616h-103v864q0 96 -57 97q-23 0 -45 -19l-8 2l-23 68l4 10q35 27 94.5 27t95.5 -42t36 -112v-31q121 184 366 185
q188 0 302 -115t114 -301v-473q0 -94 55 -94q25 0 43 14l8 -2l23 -70q-16 -33 -87 -33z" />
    <glyph glyph-name="Ncaron" unicode="&#x147;" horiz-adv-x="1490" 
d="M1188 1331h102v-1331h-65l-922 1128v-1128h-102v1331h65l922 -1128v1128zM758 1450h-13l-307 184v8l39 58h8l267 -144l266 144h6l39 -58v-8z" />
    <glyph glyph-name="ncaron" unicode="&#x148;" horiz-adv-x="1232" 
d="M1105 -25q-71 0 -107.5 44t-36.5 118v488q0 150 -89.5 240.5t-240 90.5t-247.5 -95t-97 -245v-616h-103v864q0 96 -57 97q-23 0 -45 -19l-8 2l-23 68l4 10q35 27 94.5 27t95.5 -42t36 -112v-31q121 184 366 185q188 0 302 -115t114 -301v-473q0 -94 55 -94q25 0 43 14
l8 -2l23 -70q-16 -33 -87 -33zM629 1147h-21l-289 186v8l46 56h6l247 -146l246 146h8l46 -56v-8z" />
    <glyph glyph-name="napostrophe" unicode="&#x149;" horiz-adv-x="1232" 
d="M1105 -25q-71 0 -107.5 44t-36.5 118v488q0 150 -89.5 240.5t-240 90.5t-247.5 -95t-97 -245v-616h-103v864q0 96 -57 97q-23 0 -45 -19l-8 2l-23 68l4 10q35 27 94.5 27t95.5 -42t36 -112v-31q121 184 366 185q188 0 302 -115t114 -301v-473q0 -94 55 -94q25 0 43 14
l8 -2l23 -70q-16 -33 -87 -33zM109 1458l4 -8l-99 -311l-8 -9h-57l-4 9l55 311l10 8h99z" />
    <glyph glyph-name="Eng" unicode="&#x14a;" horiz-adv-x="1490" 
d="M1188 1331h102v-1403q0 -162 -99 -251t-247 -89q-100 0 -191 43t-137 117v8l68 60h8q39 -60 109 -96q69 -36 161 -36t160 66t68 193v100l-887 1085v-1128h-102v1331h65l922 -1128v1128z" />
    <glyph glyph-name="eng" unicode="&#x14b;" horiz-adv-x="1208" 
d="M647 1049q188 0 302 -115t114 -301v-576q0 -141 -51 -227t-154 -137h-8l-43 74l2 8q78 39 114 101t38 169v580q1 151 -89 241t-240 90t-248 -95q-97 -95 -97 -245v-616h-103v864q0 96 -57 97q-23 0 -45 -19l-8 2l-23 68l4 10q35 27 95 27t95 -42q36 -42 36 -112v-31
q120 185 366 185z" />
    <glyph glyph-name="Omacron" unicode="&#x14c;" horiz-adv-x="1601" 
d="M801 74q256 0 426 169t170 423t-170 423t-426 169t-426 -170q-170 -168 -170 -422t170 -423t426 -169zM801 -25q-301 0 -502 198t-201 493q0 294 201 492t502 198t502 -198t201 -492t-202 -493q-200 -198 -501 -198zM520 1579h561v-82h-561v82z" />
    <glyph glyph-name="omacron" unicode="&#x14d;" horiz-adv-x="1265" 
d="M632.5 68q190.5 0 314.5 127t124 317t-124 317t-314.5 127t-314 -127t-123.5 -317t123.5 -317t314 -127zM632.5 -25q-233.5 0 -388 155t-154.5 382t154.5 382t388 155t388.5 -155t155 -382t-155 -382t-388.5 -155zM356 1274h553v-86h-553v86z" />
    <glyph glyph-name="Ohungarumlaut" unicode="&#x150;" horiz-adv-x="1601" 
d="M801 74q256 0 426 169t170 423t-170 423t-426 169t-426 -170q-170 -168 -170 -422t170 -423t426 -169zM801 -25q-301 0 -502 198t-201 493q0 294 201 492t502 198t502 -198t201 -492t-202 -493q-200 -198 -501 -198zM1004 1788l8 8h102l6 -8l-190 -334l-8 -8h-60l-4 8z
M762 1788l8 8h102l7 -8l-189 -334l-10 -8h-59l-5 8z" />
    <glyph glyph-name="ohungarumlaut" unicode="&#x151;" horiz-adv-x="1265" 
d="M632.5 68q190.5 0 314.5 127t124 317t-124 317t-314.5 127t-314 -127t-123.5 -317t123.5 -317t314 -127zM632.5 -25q-233.5 0 -388 155t-154.5 382t154.5 382t388 155t388.5 -155t155 -382t-155 -382t-388.5 -155zM840 1489l8 6h102l6 -6l-192 -336l-8 -8h-60l-6 8z
M594 1489l10 6h103l4 -6l-191 -336l-8 -8h-59l-7 8z" />
    <glyph glyph-name="OE" unicode="&#x152;" horiz-adv-x="2326" 
d="M801 74q256 0 426 169t170 423t-170 422.5t-426 168.5t-426 -168.5t-170 -422.5t170 -423t426 -169zM2238 1237h-737v-518h582v-92h-580q-2 -6 -2 -17v-516h737v-94h-841v291q-94 -147 -250 -231.5t-346 -84.5q-301 0 -502 198t-201 493t201 492.5t502 197.5
q190 0 346 -84t250 -232v291h841v-94z" />
    <glyph glyph-name="oe" unicode="&#x153;" horiz-adv-x="2177" 
d="M1592 956q-173 0 -287.5 -107.5t-126.5 -281.5h813q-14 178 -120 283.5t-279 105.5zM632.5 68q190.5 0 314.5 127t124 317t-124 317t-314.5 127t-314 -127t-123.5 -317t123.5 -317t314 -127zM1610 68q115 0 219 48t166 132h8l65 -55v-9q-72 -98 -196.5 -153.5t-273 -55.5
t-280.5 79t-196 216q-66 -135 -195.5 -215t-293.5 -80q-233 0 -388 155t-155 382t154.5 382t388.5 155q164 0 293 -80t194 -215q61 135 184 215t285 80q227 0 366.5 -150.5t139.5 -374.5q0 -33 -2 -45h-917q12 -188 135 -299.5t299 -111.5z" />
    <glyph glyph-name="Racute" unicode="&#x154;" horiz-adv-x="1253" 
d="M305 672h383q145 0 229 77.5t84 206.5t-83.5 205t-229.5 76h-383v-565zM1111 -25q-44 0 -68.5 6.5t-44 13.5t-40 25.5t-33 28.5t-29.5 39t-25.5 41t-24.5 48q-22 47 -44 99q-124 304 -208 304h-289v-580h-104v1331h465q211 0 326.5 -98t115.5 -267.5t-94 -266.5
t-269 -115q61 -37 152 -254q55 -128 84 -174q52 -84 127 -84q39 0 61 16l11 -4l24 -72l-4 -8q-45 -29 -89 -29zM424 1450h-8l-33 51v8l360 236h9l51 -80v-6z" />
    <glyph glyph-name="racute" unicode="&#x155;" horiz-adv-x="710" 
d="M285 612v-612h-101v864q0 96 -55 97q-25 0 -47 -19l-8 2l-23 68l4 10q35 27 94.5 27t95.5 -41t36 -113v-25q96 178 292 179q74 0 129 -29l5 -8l-35 -76l-8 -2q-37 23 -105 22q-117 0 -195.5 -94t-78.5 -250zM209 1147h-8l-39 49v8l334 269h6l61 -76v-8z" />
    <glyph glyph-name="Rcommaaccent" unicode="&#x156;" horiz-adv-x="1253" 
d="M575 -100h99l6 -9l-88 -305l-8 -8h-60l-6 8l49 305zM305 672h383q145 0 229 77.5t84 206.5t-83.5 205t-229.5 76h-383v-565zM1111 -25q-44 0 -68.5 6.5t-44 13.5t-40 25.5t-33 28.5t-29.5 39t-25.5 41t-24.5 48q-22 47 -44 99q-124 304 -208 304h-289v-580h-104v1331h465
q211 0 326.5 -98t115.5 -267.5t-94 -266.5t-269 -115q61 -37 152 -254q55 -128 84 -174q52 -84 127 -84q39 0 61 16l11 -4l24 -72l-4 -8q-45 -29 -89 -29z" />
    <glyph glyph-name="rcommaaccent" unicode="&#x157;" horiz-adv-x="710" 
d="M184 -100h99l6 -9l-88 -305l-8 -8h-60l-6 8l49 305zM285 612v-612h-101v864q0 96 -55 97q-25 0 -47 -19l-8 2l-23 68l4 10q35 27 94.5 27t95.5 -41t36 -113v-25q96 178 292 179q74 0 129 -29l5 -8l-35 -76l-8 -2q-37 23 -105 22q-117 0 -195.5 -94t-78.5 -250z" />
    <glyph glyph-name="Rcaron" unicode="&#x158;" horiz-adv-x="1253" 
d="M305 672h383q145 0 229 77.5t84 206.5t-83.5 205t-229.5 76h-383v-565zM1111 -25q-44 0 -68.5 6.5t-44 13.5t-40 25.5t-33 28.5t-29.5 39t-25.5 41t-24.5 48q-22 47 -44 99q-124 304 -208 304h-289v-580h-104v1331h465q211 0 326.5 -98t115.5 -267.5t-94 -266.5
t-269 -115q61 -37 152 -254q55 -128 84 -174q52 -84 127 -84q39 0 61 16l11 -4l24 -72l-4 -8q-45 -29 -89 -29zM600 1450h-12l-307 184v8l38 58h9l266 -144l266 144h6l39 -58v-8z" />
    <glyph glyph-name="rcaron" unicode="&#x159;" horiz-adv-x="710" 
d="M285 612v-612h-101v864q0 96 -55 97q-25 0 -47 -19l-8 2l-23 68l4 10q35 27 94.5 27t95.5 -41t36 -113v-25q96 178 292 179q74 0 129 -29l5 -8l-35 -76l-8 -2q-37 23 -105 22q-117 0 -195.5 -94t-78.5 -250zM373 1147h-21l-289 186v8l46 56h6l247 -146l246 146h8l46 -56
v-8z" />
    <glyph glyph-name="Sacute" unicode="&#x15a;" horiz-adv-x="1081" 
d="M139 1022.5q0 141.5 114 237.5t294 96q244 0 399 -189v-8l-65 -61h-9q-131 160 -325 159q-131 0 -215 -66.5t-84 -163.5t70 -156t259.5 -136t218.5 -100t66 -48.5t52.5 -49t43 -66t27.5 -135.5q0 -160 -121 -260.5t-311 -100.5q-145 0 -273 61t-204 165v8l63 65h8
q156 -201 400 -200q147 0 238.5 72.5t91.5 178.5q0 105 -77 169q-78 64 -256 138q-58 24 -77 32q-152 63 -240 140t-88 218.5zM700 1745h9l51 -80v-6l-379 -209h-8l-33 51v8z" />
    <glyph glyph-name="sacute" unicode="&#x15b;" horiz-adv-x="874" 
d="M413.5 1049q120.5 0 207 -43t133.5 -115v-8l-64 -52h-8q-92 125 -252 125q-94 0 -151.5 -46t-57.5 -117.5t48 -112.5t104.5 -63.5l113 -45t91 -39t99 -58.5t90.5 -94t26 -122q0 -131 -99.5 -207t-251.5 -76q-246 0 -374 187v10l63 51h10q94 -156 295 -155q113 0 183.5 52
t70.5 132t-53.5 124t-91 61.5t-76.5 35t-128 53t-156.5 93t-67.5 169t88 186.5t208.5 75zM571 1473h7l61 -76v-8l-354 -242h-9l-38 49v8z" />
    <glyph glyph-name="Scedilla" unicode="&#x15e;" horiz-adv-x="1081" 
d="M985 336q0 -154 -111.5 -252t-291.5 -109l-27 -63l2 -4q31 12 86.5 12t100 -43t44.5 -116.5t-61 -123t-162 -49.5q-141 0 -225 84v9l49 55h8q63 -68 158 -68q59 0 96 24.5t37 63.5t-29.5 62.5t-82.5 23.5t-111 -26l-45 26l59 138q-260 29 -403 221v8l63 65h8
q156 -201 400 -200q147 0 238.5 72.5t91.5 178.5t-77 170t-230 126q-153 63 -212 93.5t-112 72.5q-107 85 -107 231t114 242t294 96q244 0 399 -189v-8l-65 -61h-9q-131 160 -325 159q-131 0 -215 -66.5t-84 -163.5t70 -156t259 -136t218.5 -100t66.5 -48.5t52.5 -49
t43.5 -65.5q28 -43 27 -136z" />
    <glyph glyph-name="scedilla" unicode="&#x15f;" horiz-adv-x="874" 
d="M793 266q0 -131 -89.5 -205.5t-230.5 -85.5l-27 -63l3 -4q31 12 86 12t100 -43t45 -116.5t-61.5 -123t-161.5 -49.5q-141 0 -226 84v9l50 55h8q63 -68 157 -68q59 0 96.5 24.5t37.5 63.5t-30 62.5t-83 23.5t-111 -26l-45 26l60 138q-197 29 -303 182v10l63 51h10
q94 -156 295 -155q113 0 183.5 52t70.5 132t-53.5 124t-91 61.5t-76.5 35t-128 53t-156.5 93t-67.5 169t88 186.5t208.5 75t207 -43t133.5 -115v-8l-64 -52h-8q-92 125 -252 125q-94 0 -151.5 -46t-57.5 -117.5t48 -112.5t191.5 -98.5t201.5 -96.5q131 -88 131 -219z" />
    <glyph glyph-name="Scaron" unicode="&#x160;" horiz-adv-x="1081" 
d="M985 336q0 -160 -121 -260.5t-311 -100.5q-145 0 -273 60.5t-204 165.5v8l63 65h8q156 -201 400 -200q147 0 238.5 72.5t91.5 178.5t-77 170t-230 126q-153 63 -212 93.5t-112 72.5q-107 85 -107 231t114 242t294 96q244 0 399 -189v-8l-65 -61h-9q-131 160 -325 159
q-131 0 -215 -66.5t-84 -163.5t70 -156t259 -136t218.5 -100t66.5 -48.5t52.5 -49t43.5 -65.5q28 -43 27 -136zM557 1450h-12l-307 184v8l38 58h9l266 -144l266 144h6l39 -58v-8z" />
    <glyph glyph-name="scaron" unicode="&#x161;" horiz-adv-x="874" 
d="M793 262q0 -135 -99.5 -211t-251.5 -76q-246 0 -374 187v10l63 51h10q94 -156 295 -155q113 0 183.5 52t70.5 132t-53.5 124t-91 61.5t-76.5 35t-128 53t-156.5 93t-67.5 169t88 186.5t208.5 75t207 -43t133.5 -115v-8l-64 -52h-8q-92 125 -252 125q-94 0 -151.5 -46
t-57.5 -117.5t48.5 -112.5t191.5 -98.5t201 -96.5q131 -88 131 -223zM449 1147h-21l-289 186v8l45 56h6l248 -146l246 146h8l45 -56v-8z" />
    <glyph glyph-name="uni0162" unicode="&#x162;" horiz-adv-x="1050" 
d="M1022 1237h-447v-1194h3v-43l-37 -88l2 -4q31 12 86 12t100 -43t45 -117t-61.5 -123t-161.5 -49q-141 0 -225 84v9l49 55h8q63 -68 158 -68q59 0 96 24.5t37 63.5t-30 62.5t-83 23.5t-110 -26l-45 26l67 158h-2v1237h-444v94h995v-94z" />
    <glyph glyph-name="uni0163" unicode="&#x163;" horiz-adv-x="688" 
d="M536.5 -80q55.5 0 100.5 -43t45 -116.5t-61.5 -123t-161.5 -49.5q-141 0 -226 84v9l50 55h8q63 -68 158 -68q59 0 96 24.5t37 63.5t-30 62.5t-83 23.5t-111 -26l-45 26l68 158v2q-166 80 -166 324v612h-178v86h178v313l92 19l8 -6v-326h332v-86h-332v-612
q0 -125 52.5 -191.5t148.5 -66.5q57 0 98 28l11 -4l32 -69l-4 -9q-57 -39 -143 -39q-23 0 -35 2l-26 -65l2 -4q30 12 85.5 12z" />
    <glyph glyph-name="Tcaron" unicode="&#x164;" horiz-adv-x="1050" 
d="M27 1331h995v-94h-447v-1237h-104v1237h-444v94zM530 1450h-12l-307 184v8l39 58h8l266 -144l267 144h6l39 -58v-8z" />
    <glyph glyph-name="tcaron" unicode="&#x165;" horiz-adv-x="688" 
d="M510 -25q-133 0 -214 93.5t-81 257.5v612h-178v86h178v313l92 19l8 -6v-326h332v-86h-332v-612q0 -125 52.5 -191.5t148.5 -66.5q57 0 98 28l11 -4l32 -69l-4 -9q-57 -39 -143 -39zM483 1126h-57l-4 9l55 348l8 8h99l6 -8l-98 -348z" />
    <glyph glyph-name="Tbar" unicode="&#x166;" horiz-adv-x="1050" 
d="M1022 1237h-447v-528h240v-82h-240v-627h-104v627h-211v82h211v528h-444v94h995v-94z" />
    <glyph glyph-name="tbar" unicode="&#x167;" horiz-adv-x="688" 
d="M510 -25q-133 0 -214 93.5t-81 257.5v182h-178v82h178v348h-178v86h178v313l92 19l8 -6v-326h332v-86h-332v-348h277v-82h-277v-182q0 -125 52.5 -191.5t148.5 -66.5q57 0 98 28l11 -4l32 -69l-4 -9q-57 -39 -143 -39z" />
    <glyph glyph-name="Utilde" unicode="&#x168;" horiz-adv-x="1439" 
d="M153 1356q75 0 111 -44t37 -116v-672q0 -208 115 -330q116 -122 314 -122t312 122t115 330v807h103v-811q0 -250 -142 -398t-389 -147q-246 -1 -389 147t-143 398v645q0 94 -58 95q-27 0 -47 -17l-8 2l-25 74q19 37 94 37zM528 1638q68 0 194 -36t185 -37q86 0 123 73h8
l47 -73v-6q-61 -86 -178 -86q-67 -1 -191 37t-199 38t-114 -75h-8l-47 73v6q61 86 180 86z" />
    <glyph glyph-name="utilde" unicode="&#x169;" horiz-adv-x="1210" 
d="M1060 -25q-60 0 -94 44q-36 44 -36 116v25q-121 -184 -357 -185q-183 0 -293 110t-110 294v485q0 96 -55 97q-25 0 -47 -19l-9 2l-22 68l4 10q35 27 95 27t98 -41q36 -41 36 -113v-508q0 -151 87 -235t231 -84t241 96q96 96 97 244v616h100v-864q0 -94 55 -94q27 0 47 16
l9 -2l22 -68l-4 -10q-35 -27 -95 -27zM420 1327q61 0 176 -36t168 -36q76 0 110 72h9l37 -74v-8q-57 -82 -156 -82q-61 0 -174 36q-112 36 -180 36t-101 -72h-8l-37 74v8q57 82 156 82z" />
    <glyph glyph-name="Umacron" unicode="&#x16a;" horiz-adv-x="1439" 
d="M153 1356q75 0 111 -44t37 -116v-672q0 -208 115 -330q116 -122 314 -122t312 122t115 330v807h103v-811q0 -250 -142 -398t-389 -147q-246 -1 -389 147t-143 398v645q0 94 -58 95q-27 0 -47 -17l-8 2l-25 74q19 37 94 37zM436 1579h561v-82h-561v82z" />
    <glyph glyph-name="umacron" unicode="&#x16b;" horiz-adv-x="1210" 
d="M1060 -25q-60 0 -94 44q-36 44 -36 116v25q-121 -184 -357 -185q-183 0 -293 110t-110 294v485q0 96 -55 97q-25 0 -47 -19l-9 2l-22 68l4 10q35 27 95 27t98 -41q36 -41 36 -113v-508q0 -151 87 -235t231 -84t241 96q96 96 97 244v616h100v-864q0 -94 55 -94q27 0 47 16
l9 -2l22 -68l-4 -10q-35 -27 -95 -27zM868 1274v-86h-553v86h553z" />
    <glyph glyph-name="Uring" unicode="&#x16e;" horiz-adv-x="1439" 
d="M153 1356q75 0 111 -44t37 -116v-672q0 -208 115 -330q116 -122 314 -122t312 122t115 330v807h103v-811q0 -250 -142 -398t-389 -147q-246 -1 -389 147t-143 398v645q0 94 -58 95q-27 0 -47 -17l-8 2l-25 74q19 37 94 37zM717 1511q45 0 76 33t30 76q0 43 -29 75
q-30 31 -77 31t-77 -32t-30 -74q0 -43 31 -76t76 -33zM717 1440q-78 0 -131 52t-54 128q0 76 54 128t131 52q78 0 131 -52t53 -128t-53 -128t-131 -52z" />
    <glyph glyph-name="uring" unicode="&#x16f;" horiz-adv-x="1210" 
d="M1060 -25q-60 0 -94 44q-36 44 -36 116v25q-121 -184 -357 -185q-183 0 -293 110t-110 294v485q0 96 -55 97q-25 0 -47 -19l-9 2l-22 68l4 10q35 27 95 27t98 -41q36 -41 36 -113v-508q0 -151 87 -235t231 -84t241 96q96 96 97 244v616h100v-864q0 -94 55 -94q27 0 47 16
l9 -2l22 -68l-4 -10q-35 -27 -95 -27zM593 1413q-46 0 -75 -31q-29 -32 -29 -72t29 -71t75 -31t74 30t27 73q0 43 -28 73t-73 29zM778 1311q0 -77 -53 -129t-132 -52t-133 52t-54 129q0 76 54 128t133 52t132 -52t53 -128z" />
    <glyph glyph-name="Uhungarumlaut" unicode="&#x170;" horiz-adv-x="1439" 
d="M153 1356q75 0 111 -44t37 -116v-672q0 -208 115 -330q116 -122 314 -122t312 122t115 330v807h103v-811q0 -250 -142 -398t-389 -147q-246 -1 -389 147t-143 398v645q0 94 -58 95q-27 0 -47 -17l-8 2l-25 74q19 37 94 37zM920 1788l8 8h102l6 -8l-190 -334l-8 -8h-60
l-4 8zM678 1788l8 8h102l7 -8l-189 -334l-10 -8h-59l-5 8z" />
    <glyph glyph-name="uhungarumlaut" unicode="&#x171;" horiz-adv-x="1210" 
d="M1060 -25q-60 0 -94 44q-36 44 -36 116v25q-121 -184 -357 -185q-183 0 -293 110t-110 294v485q0 96 -55 97q-25 0 -47 -19l-9 2l-22 68l4 10q35 27 95 27t98 -41q36 -41 36 -113v-508q0 -151 87 -235t231 -84t241 96q96 96 97 244v616h100v-864q0 -94 55 -94q27 0 47 16
l9 -2l22 -68l-4 -10q-35 -27 -95 -27zM655 1145l-6 8l150 336l8 6h102l6 -6l-192 -336l-8 -8h-60zM471 1145h-59l-6 8l147 336l10 6h103l4 -6l-191 -336z" />
    <glyph glyph-name="Uogonek" unicode="&#x172;" horiz-adv-x="1439" 
d="M153 1356q75 0 111 -44t37 -116v-672q0 -208 115 -330q116 -122 314 -122t312 122t115 330v807h103v-811q0 -174 -71 -301t-200 -188q-12 -10 -74 -59q-110 -88 -127 -149q-18 -61 18 -93q36 -31 87 -32t100 42h8l39 -51v-8q-76 -61 -156 -61t-133 45q-53 46 -53 131
t125 186q-43 -6 -94 -7q-246 -1 -389 147t-143 398v645q0 94 -58 95q-27 0 -47 -17l-8 2l-25 74q19 37 94 37z" />
    <glyph glyph-name="uogonek" unicode="&#x173;" horiz-adv-x="1210" 
d="M864 -240q0 100 162 222q-96 27 -96 153v25q-121 -184 -357 -185q-183 0 -293 110t-110 294v485q0 96 -55 97q-25 0 -47 -19l-9 2l-22 68l4 10q35 27 95 27t98 -41q36 -41 36 -113v-508q0 -151 87 -235t231 -84t241 96q96 96 97 244v616h100v-864q0 -94 55 -94
q27 0 47 16l9 -2l22 -68l-4 -10q-12 -10 -41 -33t-43 -35t-37 -31q-84 -69 -84 -125t29 -82t80 -27t100 42h8l39 -51v-8q-76 -62 -156 -62t-134 46q-52 46 -52 124z" />
    <glyph glyph-name="Wcircumflex" unicode="&#x174;" horiz-adv-x="2027" 
d="M99 1260q-30 0 -58 -17l-8 2l-27 74l4 8q39 29 99 29q121 0 172 -160l337 -1016l349 1151h96l348 -1149l338 1014q53 160 170 160q59 0 98 -29l4 -8l-26 -74l-8 -2q-68 38 -103 -5q-18 -22 -37 -77l-403 -1161h-66l-364 1167l-365 -1167h-65l-404 1161q-18 55 -34 77
t-47 22zM745 1438h-8l-39 59v6l306 185h14l305 -185v-6l-39 -59h-8l-264 143z" />
    <glyph glyph-name="wcircumflex" unicode="&#x175;" horiz-adv-x="1826" 
d="M134 1049q69 0 106 -41t36 -113v-516q0 -150 81 -231q81 -80 219 -80t222 88q83 88 83 233v635h100v-637q0 -147 77 -233q76 -86 224 -86t242 118t99 302q5 182 -38 327t-117 223v9l74 55h8q86 -90 136 -252t43 -340q-7 -246 -131 -390t-328 -145q-238 0 -338 199
q-104 -199 -352 -199q-180 1 -292 107t-112 289v493q0 96 -55 97q-27 0 -45 -19l-8 2l-25 68q22 37 91 37zM684 1147h-6l-45 55v8l289 187h20l289 -187v-8l-45 -55h-8l-246 143z" />
    <glyph glyph-name="Ycircumflex" unicode="&#x176;" horiz-adv-x="1370" 
d="M739 0h-106v551l-416 618q-61 90 -115 91q-33 0 -53 -17l-8 2l-29 74l4 8q37 29 95 29q59 0 103 -37t101 -119l373 -559l373 559q55 82 98 119t101 37t92 -29l4 -8l-27 -74l-8 -2q-20 16 -53 17q-53 0 -115 -91l-414 -616v-553zM420 1438h-8l-39 59v6l305 185h14
l305 -185v-6l-39 -59h-8l-264 143z" />
    <glyph glyph-name="ycircumflex" unicode="&#x177;" horiz-adv-x="1173" 
d="M913 1024h101v-866q0 -221 -131 -343t-353 -122t-376 180v8l55 60h8q131 -158 313 -158t283 99q100 99 100 276v100q-129 -172 -354 -172q-186 0 -294 104t-107 293v381q0 96 -56 97q-25 0 -47 -19l-8 2l-22 68l4 10q39 27 97 27t96 -41q36 -41 36 -113v-416
q0 -141 85 -221t228 -80t243 96q99 96 99 244v506zM311 1147h-6l-45 55v8l289 187h20l289 -187v-8l-45 -55h-8l-246 143z" />
    <glyph glyph-name="Ydieresis" unicode="&#x178;" horiz-adv-x="1370" 
d="M739 0h-106v551l-416 618q-61 90 -115 91q-33 0 -53 -17l-8 2l-29 74l4 8q37 29 95 29q59 0 103 -37t101 -119l373 -559l373 559q55 82 98 119t101 37t92 -29l4 -8l-27 -74l-8 -2q-20 16 -53 17q-53 0 -115 -91l-414 -616v-553zM868 1448q-40 0 -68 28t-28 68t28 69
q28 27 68 27t69 -28q28 -28 28 -68t-28 -68t-69 -28zM508 1448q-41 0 -69 28q-27 28 -27 68t27 69q28 27 69 27t69 -28q27 -28 27 -68t-28 -68t-68 -28z" />
    <glyph glyph-name="Zacute" unicode="&#x179;" horiz-adv-x="1171" 
d="M1106 136q0 -66 -43 -101t-117 -35h-893v66l867 1175h-824v90h967v-65l-866 -1174h718q96 0 97 58q0 29 -21 45l4 8l74 26q37 -27 37 -93zM729 1745h8l51 -80v-6l-378 -209h-9l-32 51v8z" />
    <glyph glyph-name="zacute" unicode="&#x17a;" horiz-adv-x="927" 
d="M98 1024h738v-72l-650 -868h529q86 0 86 55q0 27 -21 47l4 9l66 22l10 -2q29 -37 29 -90q0 -125 -160 -125h-668v74l650 866h-613v84zM608 1473h6l62 -76v-8l-354 -242h-9l-39 49v8z" />
    <glyph glyph-name="Zdotaccent" unicode="&#x17b;" horiz-adv-x="1171" 
d="M1106 136q0 -66 -43 -101t-117 -35h-893v66l867 1175h-824v90h967v-65l-866 -1174h718q96 0 97 58q0 29 -21 45l4 8l74 26q37 -27 37 -93zM676 1544q0 -38 -28 -66t-67 -28q-38 0 -67 28t-29 66t29 67q29 27 67 27q39 0 67 -28t28 -66z" />
    <glyph glyph-name="zdotaccent" unicode="&#x17c;" horiz-adv-x="927" 
d="M98 1024h738v-72l-650 -868h529q86 0 86 55q0 27 -21 47l4 9l66 22l10 -2q29 -37 29 -90q0 -125 -160 -125h-668v74l650 866h-613v84zM475 1145q-41 -1 -69 27t-27 69q0 41 28 69q29 28 69 28t68 -28t28 -69t-28 -69q-28 -27 -69 -27z" />
    <glyph glyph-name="Zcaron" unicode="&#x17d;" horiz-adv-x="1171" 
d="M1106 136q0 -66 -43 -101t-117 -35h-893v66l867 1175h-824v90h967v-65l-866 -1174h718q96 0 97 58q0 29 -21 45l4 8l74 26q37 -27 37 -93zM586 1450h-13l-307 184v8l39 58h8l267 -144l266 144h6l39 -58v-8z" />
    <glyph glyph-name="zcaron" unicode="&#x17e;" horiz-adv-x="927" 
d="M889 125q0 -125 -160 -125h-668v74l650 866h-613v84h738v-72l-650 -868h529q86 0 86 55q0 27 -21 47l4 9l66 22l10 -2q29 -37 29 -90zM485 1147h-20l-289 186v8l45 56h6l248 -146l246 146h8l45 -56v-8z" />
    <glyph glyph-name="uni01EA" unicode="&#x1ea;" horiz-adv-x="1601" 
d="M801 74q256 0 426 169t170 423t-170 423t-426 169t-426 -170q-170 -168 -170 -422t170 -423t426 -169zM1503 666q0 -212 -109 -380t-292 -249q-12 -10 -41 -33t-43 -35t-37 -31q-84 -69 -84 -126q0 -56 29 -82q30 -26 80 -26q50 -1 100 42h8l39 -51v-8q-76 -61 -157 -61
t-133 45q-52 46 -52 129t125 188q-63 -12 -135 -13q-301 0 -502 198t-201 493q0 294 201 492t502 198t501 -198t201 -492z" />
    <glyph glyph-name="uni01EB" unicode="&#x1eb;" horiz-adv-x="1265" 
d="M632.5 68q190.5 0 314.5 127t124 317t-124 317t-314.5 127t-314 -127t-123.5 -317t123.5 -317t314 -127zM1176 512q0 -176 -97.5 -313.5t-257.5 -192.5q-12 -10 -41 -32l-42 -36q-16 -12 -38 -32q-84 -73 -84 -138q0 -42 29 -68t80 -27t100 42h9l38 -51v-8
q-76 -61 -156.5 -61.5t-133 46t-52.5 123.5q0 96 152 213q-16 -2 -49 -2q-233 0 -388 155t-155 382t154.5 382t388 155t388.5 -155t155 -382z" />
    <glyph glyph-name="AEacute" unicode="&#x1fc;" horiz-adv-x="1921" 
d="M993 414v809l-598 -809h598zM1833 1237h-735v-518h579v-92h-579v-533h735v-94h-840v319h-667l-236 -319h-119l971 1331h891v-94zM1272 1450h-8l-33 51v8l360 236h8l52 -80v-6z" />
    <glyph glyph-name="aeacute" unicode="&#x1fd;" horiz-adv-x="1959" 
d="M854 375v106q-156 70 -316.5 70t-256 -64.5t-95.5 -177.5t87 -177t224.5 -64t247 83t109.5 224zM1375 956q-173 0 -287.5 -107.5t-126.5 -281.5h813q-14 178 -120 283.5t-279 105.5zM1393 68q115 0 219 48t166 132h8l65 -55v-9q-72 -98 -196.5 -153.5t-268 -55.5
t-270.5 70t-196 195q-45 -125 -170 -195t-283 -70t-271.5 89.5t-113.5 248t126 242.5t311 84t335 -70v107q0 133 -99.5 206.5t-226.5 73.5q-197 0 -342 -149h-8l-63 55v8q168 178 413 179q133 0 246 -59.5t158 -182.5q68 113 181.5 177.5t258.5 64.5q227 0 366.5 -150.5
t139.5 -374.5q0 -33 -2 -45h-918q12 -188 135.5 -299.5t299.5 -111.5zM811 1147h-8l-39 49v8l334 269h6l61 -76v-8z" />
    <glyph glyph-name="Oslashacute" unicode="&#x1fe;" horiz-adv-x="1601" 
d="M801 74q256 0 426 169t170 423q0 299 -228 473l-659 -996q129 -69 291 -69zM205 666q0 -295 221 -467l659 993q-135 66 -284 65q-256 -1 -426 -169t-170 -422zM801 -25q-188 0 -346 84l-109 -161h-108l-5 12l136 205q-127 94 -199 237t-72 314q0 294 201 492t502 198
q184 0 340 -80l114 172h107l4 -12l-141 -213q131 -93 205 -239t73 -318q-1 -295 -201 -493t-501 -198zM631 1450h-8l-33 51v8l360 236h8l52 -80v-6z" />
    <glyph glyph-name="oslashacute" unicode="&#x1ff;" horiz-adv-x="1265" 
d="M633 68q190 0 314 127t124 326.5t-145 328.5l-510 -729q96 -53 217 -53zM195 502.5q0 -199.5 145 -328.5l510 729q-96 53 -217 53q-190 0 -314 -127t-124 -326.5zM1176 512q0 -227 -155 -382t-388 -155q-147 0 -271 68l-96 -137h-104l-6 6l129 182q-195 158 -195 418
q0 227 154.5 382t388.5 155q147 0 270 -68l115 164h104l6 -6l-147 -209q195 -158 195 -418zM479 1147h-8l-39 49v8l334 269h6l62 -76v-8z" />
    <glyph glyph-name="Scommaaccent" unicode="&#x218;" horiz-adv-x="1081" 
d="M481 -109l8 9h99l6 -9l-88 -305l-8 -8h-60l-6 8zM139 1022.5q0 141.5 114 237.5t294 96q244 0 399 -189v-8l-65 -61h-9q-131 160 -325 159q-131 0 -215 -66.5t-84 -163.5t70 -156t259.5 -136t218.5 -100t66 -48.5t52.5 -49t43 -66t27.5 -135.5q0 -160 -121 -260.5
t-311 -100.5q-145 0 -273 61t-204 165v8l63 65h8q156 -201 400 -200q147 0 238.5 72.5t91.5 178.5q0 105 -77 169q-78 64 -256 138q-58 24 -77 32q-152 63 -240 140t-88 218.5z" />
    <glyph glyph-name="scommaaccent" unicode="&#x219;" horiz-adv-x="874" 
d="M373 -109l8 9h98l6 -9l-88 -305l-8 -8h-59l-6 8zM413.5 1049q120.5 0 207 -43t133.5 -115v-8l-64 -52h-8q-92 125 -252 125q-94 0 -151.5 -46t-57.5 -117.5t48 -112.5t104.5 -63.5l113 -45t91 -39t99 -58.5t90.5 -94t26 -122q0 -131 -99.5 -207t-251.5 -76
q-246 0 -374 187v10l63 51h10q94 -156 295 -155q113 0 183.5 52t70.5 132t-53.5 124t-91 61.5t-76.5 35t-128 53t-156.5 93t-67.5 169t88 186.5t208.5 75z" />
    <glyph glyph-name="uni021A" unicode="&#x21a;" horiz-adv-x="1050" 
d="M467 -109l8 9h98l7 -9l-88 -305l-9 -8h-59l-6 8zM575 1237v-1237h-104v1237h-444v94h995v-94h-447z" />
    <glyph glyph-name="uni021B" unicode="&#x21b;" horiz-adv-x="688" 
d="M383 -100h98l6 -9l-88 -305l-8 -8h-59l-6 8l49 305zM510 -25q-133 0 -214 93.5t-81 257.5v612h-178v86h178v313l92 19l8 -6v-326h332v-86h-332v-612q0 -125 52.5 -191.5t148.5 -66.5q57 0 98 28l11 -4l32 -69l-4 -9q-57 -39 -143 -39z" />
    <glyph glyph-name="uni0237" unicode="&#x237;" horiz-adv-x="452" 
d="M291 1024v-991q0 -133 -48 -208t-147 -132h-8l-39 74v6q72 43 107 98t34 152v915h-141v86h242z" />
    <glyph glyph-name="uni02BC" unicode="&#x2bc;" horiz-adv-x="358" 
d="M166 1450l10 8h98l5 -8l-99 -311l-8 -9h-57l-4 9z" />
    <glyph glyph-name="circumflex" unicode="&#x2c6;" horiz-adv-x="737" 
d="M391 1397l289 -187v-8l-45 -55h-8l-246 143l-248 -143h-6l-45 55v8l289 187h20z" />
    <glyph glyph-name="caron" unicode="&#x2c7;" horiz-adv-x="749" 
d="M635 1397l45 -56v-8l-289 -186h-20l-289 186v8l45 56h6l248 -146l246 146h8z" />
    <glyph glyph-name="breve" unicode="&#x2d8;" horiz-adv-x="741" 
d="M369 1147q-115 0 -192 70t-91 182h90q12 -78 66 -125t127 -47q74 0 127 47t65 125h90q-15 -113 -91 -183t-191 -69z" />
    <glyph glyph-name="dotaccent" unicode="&#x2d9;" horiz-adv-x="264" 
d="M133 1145q-39 -1 -67 27t-29 69q0 41 29 69q30 28 68 28t67 -28t29 -69t-29 -69q-29 -27 -68 -27z" />
    <glyph glyph-name="ring" unicode="&#x2da;" horiz-adv-x="532" 
d="M369 1311q0 43 -28 73t-74 29q-47 0 -75 -31q-28 -32 -28 -72t28 -71t75 -31q46 0 74 30t28 73zM267 1130q-79 0 -133 52t-54 129q0 76 54 128t133 52t132 -52t53 -128q0 -77 -52 -129q-54 -52 -133 -52z" />
    <glyph glyph-name="ogonek" unicode="&#x2db;" horiz-adv-x="505" 
d="M239 -403q-81 0 -134 46q-52 46 -52 122t62 135q62 58 129 108h100q-21 -17 -80 -65q-59 -47 -85 -79t-33 -52t-7 -52t29 -58t80 -27t100 42h8l39 -51v-8q-75 -61 -156 -61z" />
    <glyph glyph-name="tilde" unicode="&#x2dc;" horiz-adv-x="819" 
d="M238 1327q61 0 176 -36q114 -36 178 -36t100 72h8l37 -74v-8q-57 -82 -155 -82q-61 0 -174 36q-112 36 -180 36t-101 -72h-8l-37 74v8q58 82 156 82z" />
    <glyph glyph-name="hungarumlaut" unicode="&#x2dd;" horiz-adv-x="737" 
d="M485 1489l9 6h102l6 -6l-192 -336l-9 -8h-59l-6 8zM240 1489l10 6h102l4 -6l-190 -336l-8 -8h-60l-6 8z" />
    <glyph glyph-name="uni0326" unicode="&#x326;" horiz-adv-x="0" 
d="M-231 -113l8 9h98l6 -9l-88 -305l-8 -8h-59l-7 8z" />
    <glyph glyph-name="Wgrave" unicode="&#x1e80;" horiz-adv-x="2027" 
d="M1919 1356q59 0 98 -29l4 -8l-26 -74l-8 -2q-68 38 -103 -5q-18 -22 -37 -77l-403 -1161h-66l-364 1167l-365 -1167h-65l-404 1161q-18 55 -34 77t-47 22q-30 0 -58 -17l-8 2l-27 74l4 8q39 29 99 29q121 0 172 -160l337 -1016l349 1151h96l348 -1149l338 1014
q53 160 170 160zM862 1745l361 -236v-8l-33 -51h-8l-379 209v6l51 80h8z" />
    <glyph glyph-name="wgrave" unicode="&#x1e81;" horiz-adv-x="1826" 
d="M134 1049q69 0 106 -41t36 -113v-516q0 -150 81 -231q81 -80 219 -80t222 88q83 88 83 233v635h100v-637q0 -147 77 -233q76 -86 224 -86t242 118t99 302q5 182 -38 327t-117 223v9l74 55h8q86 -90 136 -252t43 -340q-7 -246 -131 -390t-328 -145q-238 0 -338 199
q-104 -199 -352 -199q-180 1 -292 107t-112 289v493q0 96 -55 97q-27 0 -45 -19l-8 2l-25 68q22 37 91 37zM1094 1147h-7l-356 242v8l62 76h8l332 -269v-8z" />
    <glyph glyph-name="Wacute" unicode="&#x1e82;" horiz-adv-x="2027" 
d="M1919 1356q59 0 98 -29l4 -8l-26 -74l-8 -2q-68 38 -103 -5q-18 -22 -37 -77l-403 -1161h-66l-364 1167l-365 -1167h-65l-404 1161q-18 55 -34 77t-47 22q-30 0 -58 -17l-8 2l-27 74l4 8q39 29 99 29q121 0 172 -160l337 -1016l349 1151h96l348 -1149l338 1014
q53 160 170 160zM1163 1745h8l52 -80v-6l-379 -209h-8l-33 51v8z" />
    <glyph glyph-name="wacute" unicode="&#x1e83;" horiz-adv-x="1826" 
d="M134 1049q69 0 106 -41t36 -113v-516q0 -150 81 -231q81 -80 219 -80t222 88q83 88 83 233v635h100v-637q0 -147 77 -233q76 -86 224 -86t242 118t99 302q5 182 -38 327t-117 223v9l74 55h8q86 -90 136 -252t43 -340q-7 -246 -131 -390t-328 -145q-238 0 -338 199
q-104 -199 -352 -199q-180 1 -292 107t-112 289v493q0 96 -55 97q-27 0 -45 -19l-8 2l-25 68q22 37 91 37zM778 1147h-8l-39 49v8l334 269h6l62 -76v-8z" />
    <glyph glyph-name="Wdieresis" unicode="&#x1e84;" horiz-adv-x="2027" 
d="M1919 1356q59 0 98 -29l4 -8l-26 -74l-8 -2q-68 38 -103 -5q-18 -22 -37 -77l-403 -1161h-66l-364 1167l-365 -1167h-65l-404 1161q-18 55 -34 77t-47 22q-30 0 -58 -17l-8 2l-27 74l4 8q39 29 99 29q121 0 172 -160l337 -1016l349 1151h96l348 -1149l338 1014
q53 160 170 160zM1194 1448q-39 0 -68 28q-28 28 -28 68t28 69q29 27 68 27t68 -28q28 -28 28 -68t-28 -68t-68 -28zM834 1448q-39 0 -68 28t-29 68t29 69q29 27 68 27q40 0 68 -28t28 -68t-28 -68t-68 -28z" />
    <glyph glyph-name="wdieresis" unicode="&#x1e85;" horiz-adv-x="1826" 
d="M134 1049q69 0 106 -41t36 -113v-516q0 -150 81 -231q81 -80 219 -80t222 88q83 88 83 233v635h100v-637q0 -147 77 -233q76 -86 224 -86t242 118t99 302q5 182 -38 327t-117 223v9l74 55h8q86 -90 136 -252t43 -340q-7 -246 -131 -390t-328 -145q-238 0 -338 199
q-104 -199 -352 -199q-180 1 -292 107t-112 289v493q0 96 -55 97q-27 0 -45 -19l-8 2l-25 68q22 37 91 37zM1092 1145q-39 0 -67 29q-28 30 -28 68t28 67t67 29q40 0 68 -28t28 -69t-28 -69t-68 -27zM772 1145q-38 0 -66 29q-28 30 -28 68t28 67t66 29t68 -28q28 -28 28 -69
t-28 -69q-29 -27 -68 -27z" />
    <glyph glyph-name="uni1E9E" unicode="&#x1e9e;" horiz-adv-x="1259" 
d="M748 -25q-178 0 -320 95l-2 8l49 69l8 3q106 -80 248 -80t235 90t93 228t-96 226t-250 88h-80v97l305 354q-104 104 -279 104t-274 -118q-98 -119 -98 -328v-811h-105v815q0 252 129 396t355 145q270 0 405 -211l-301 -346q178 -10 287 -129t109 -289t-120 -288
t-298 -118z" />
    <glyph glyph-name="Ygrave" unicode="&#x1ef2;" horiz-adv-x="1370" 
d="M739 0h-106v551l-416 618q-61 90 -115 91q-33 0 -53 -17l-8 2l-29 74l4 8q37 29 95 29q59 0 103 -37t101 -119l373 -559l373 559q55 82 98 119t101 37t92 -29l4 -8l-27 -74l-8 -2q-20 16 -53 17q-53 0 -115 -91l-414 -616v-553zM864 1450h-8l-379 209v6l51 80h9l360 -236
v-8z" />
    <glyph glyph-name="ygrave" unicode="&#x1ef3;" horiz-adv-x="1173" 
d="M913 1024h101v-866q0 -221 -131 -343t-353 -122t-376 180v8l55 60h8q131 -158 313 -158t283 99q100 99 100 276v100q-129 -172 -354 -172q-186 0 -294 104t-107 293v381q0 96 -56 97q-25 0 -47 -19l-8 2l-22 68l4 10q39 27 97 27t96 -41q36 -41 36 -113v-416
q0 -141 85 -221t228 -80t243 96q99 96 99 244v506zM721 1147h-6l-357 242v8l62 76h8l332 -269v-8z" />
    <glyph glyph-name="uni1EF8" unicode="&#x1ef8;" horiz-adv-x="1370" 
d="M739 0h-106v551l-416 618q-61 90 -115 91q-33 0 -53 -17l-8 2l-29 74l4 8q37 29 95 29q59 0 103 -37t101 -119l373 -559l373 559q55 82 98 119t101 37t92 -29l4 -8l-27 -74l-8 -2q-20 16 -53 17q-53 0 -115 -91l-414 -616v-553zM500 1638q68 0 194 -36t185 -37
q86 0 122 73h9l47 -73v-6q-61 -86 -178 -86q-68 -1 -192 37t-187 38q-86 1 -125 -75h-8l-48 73v6q61 86 181 86z" />
    <glyph glyph-name="uni1EF9" unicode="&#x1ef9;" horiz-adv-x="1173" 
d="M913 1024h101v-866q0 -221 -131 -343t-353 -122t-376 180v8l55 60h8q131 -158 313 -158t283 99q100 99 100 276v100q-129 -172 -354 -172q-186 0 -294 104t-107 293v381q0 96 -56 97q-25 0 -47 -19l-8 2l-22 68l4 10q39 27 97 27t96 -41q36 -41 36 -113v-416
q0 -141 85 -221t228 -80t243 96q99 96 99 244v506zM387 1327q61 0 176 -36t168 -36q76 0 111 72h8l37 -74v-8q-57 -82 -156 -82q-61 0 -174 36t-181 36t-100 -72h-8l-37 74v8q57 82 156 82z" />
    <glyph glyph-name="endash" unicode="&#x2013;" horiz-adv-x="1159" 
d="M139 657h881v-86h-881v86z" />
    <glyph glyph-name="emdash" unicode="&#x2014;" horiz-adv-x="1462" 
d="M139 657h1184v-86h-1184v86z" />
    <glyph glyph-name="quoteleft" unicode="&#x2018;" horiz-adv-x="421" 
d="M201 975q-41 0 -69 29t-28 71q-4 111 144 314h10l55 -41v-7q-74 -117 -80 -180q63 -25 64 -90q1 -41 -27 -69t-69 -27z" />
    <glyph glyph-name="quoteright" unicode="&#x2019;" horiz-adv-x="415" 
d="M227 1397q41 0 69 -29t28 -72q4 -111 -144 -313h-10l-55 41v6q74 117 80 180q-63 25 -64 90q-1 41 27 69t69 28z" />
    <glyph glyph-name="quotesinglbase" unicode="&#x201a;" horiz-adv-x="448" 
d="M223 162q41 0 69 -29t27 -72q4 -111 -143 -313h-10l-55 41v6q74 117 79 180q-63 25 -63 91q-1 40 27 68t69 28z" />
    <glyph glyph-name="quotedblleft" unicode="&#x201c;" horiz-adv-x="698" 
d="M479 975q-41 0 -69 29t-27 71q-4 111 143 314h11l55 -41v-7q-74 -117 -80 -180q63 -25 63 -90q0 -41 -27 -69q-28 -27 -69 -27zM201 975q-41 0 -69 29t-28 71q-4 111 144 314h10l55 -41v-7q-74 -117 -80 -180q63 -25 64 -90q1 -41 -27 -69t-69 -27z" />
    <glyph glyph-name="quotedblright" unicode="&#x201d;" horiz-adv-x="696" 
d="M506 1399q40 0 68 -29t28 -72q4 -111 -143 -313h-10l-56 41v6q74 117 80 180q-63 25 -63 91q0 41 28 69t68 27zM227 1399q41 0 69 -29t28 -72q4 -111 -144 -313h-10l-55 41v6q74 117 80 180q-63 25 -64 91q-1 41 27 69t69 27z" />
    <glyph glyph-name="quotedblbase" unicode="&#x201e;" horiz-adv-x="727" 
d="M502 160q40 0 68 -29t28 -72q4 -111 -143 -313h-11l-55 41v6q74 117 80 180q-63 25 -63 90q0 41 27 69q28 28 69 28zM223 160q41 0 69 -29t27 -72q4 -111 -143 -313h-10l-55 41v6q74 117 79 180q-63 25 -63 90q-1 41 27 69t69 28z" />
    <glyph glyph-name="dagger" unicode="&#x2020;" horiz-adv-x="950" 
d="M848 909v-88h-322v-1140h-102v1140h-322v88h322v443h102v-443h322z" />
    <glyph glyph-name="daggerdbl" unicode="&#x2021;" horiz-adv-x="950" 
d="M848 821h-322v-610h322v-88h-322v-442h-102v442h-322v88h322v610h-322v88h322v443h102v-443h322v-88z" />
    <glyph glyph-name="bullet" unicode="&#x2022;" horiz-adv-x="716" 
d="M358 395q-76 1 -130 55t-54 130t54 130t130 54t130 -54t54 -130t-54 -130t-130 -55z" />
    <glyph glyph-name="ellipsis" unicode="&#x2026;" horiz-adv-x="1067" 
d="M852 -10q-41 0 -69 28t-27 68q0 41 27 69q28 27 69 27t69 -28q27 -28 27 -68q0 -41 -27 -69q-28 -27 -69 -27zM537 -10q-41 0 -69 28t-28 68q0 41 28 69q28 27 69 27t69 -28t27 -68q1 -40 -27 -68t-69 -28zM217 -10q-41 0 -69 28t-27 68q0 41 27 69q28 27 69 27t69 -28
t28 -68q0 -41 -28 -69q-28 -27 -69 -27z" />
    <glyph glyph-name="perthousand" unicode="&#x2030;" horiz-adv-x="2220" 
d="M1176 61q88 0 140 82t52 216t-52 216t-140 82t-142 -82t-53 -216q-1 -134 53 -216t142 -82zM1864 47q92 0 145 84t53 227q0 142 -53 228t-145 86t-146 -85t-53 -227q-1 -142 53 -228q54 -85 146 -85zM1864 -25q-127 -1 -207 105t-80 278t80 278t207 107q127 0 207 -106
q79 -107 79 -279t-80 -278t-206 -105zM1176 -25q-127 1 -207 107t-80 278t79 278t207 105q129 0 207 -105q78 -106 78 -278t-78 -278t-206 -107zM369 674q88 0 141 82t53 216t-53 216t-141 82q-89 0 -141 -82t-52 -216t52 -216t141 -82zM207 12l1022 1319h94l4 -12
l-1020 -1319h-96zM369 588q-127 0 -206 105t-79 277t79 279t206 107t207 -106t79 -279q1 -171 -79 -277t-207 -106z" />
    <glyph glyph-name="guilsinglleft" unicode="&#x2039;" horiz-adv-x="587" 
d="M455 909v-6l-248 -289l248 -288v-9l-56 -55h-8l-299 342v21l299 342h8z" />
    <glyph glyph-name="guilsinglright" unicode="&#x203a;" horiz-adv-x="587" 
d="M197 967l299 -342v-21l-299 -342h-9l-55 55v9l248 288l-248 289v6l55 58h9z" />
    <glyph glyph-name="fraction" unicode="&#x2044;" horiz-adv-x="1118" 
d="M4 12l1022 1319h94l4 -12l-1020 -1319h-96z" />
    <glyph glyph-name="Euro" unicode="&#x20ac;" horiz-adv-x="1570" 
d="M928 -25q-236 -1 -417 135t-245 355h-194l-4 8l34 78h144q-8 49 -8 97t4 104h-148l-2 8l35 78h131q54 229 240 373t428 145q166 0 306 -69t234 -189v-8l-71 -52h-9q-80 104 -200 164t-258 60q-201 0 -356 -118t-207 -306h690l4 -9l-35 -77h-678q-6 -43 -6 -91t10 -110
h682l2 -8l-35 -78h-626q61 -176 213 -286t344 -109q283 0 456 223l9 2l71 -57l2 -9q-94 -121 -234 -187t-306 -67z" />
    <glyph glyph-name="trademark" unicode="&#x2122;" horiz-adv-x="1443" 
d="M1305 664h-84l-50 475l-196 -475h-68l-194 475l-51 -475h-82l71 667h66l225 -549l225 549h66zM68 1264v67h497v-67h-207v-600h-86v600h-204z" />
    <glyph glyph-name="minus" unicode="&#x2212;" horiz-adv-x="1232" 
d="M145 709h942v-86h-942v86z" />
    <glyph glyph-name="approxequal" unicode="&#x2248;" horiz-adv-x="1183" 
d="M822 430q-70 0 -229 36t-223 36q-119 0 -165 -72h-6l-52 68v6q78 90 205 90q86 0 248 -36t247 -36t132 72h8l51 -68v-8q-25 -29 -42 -43q-17 -13 -60 -29q-44 -16 -114 -16zM822 737q-70 0 -229 36t-223 36q-119 0 -165 -72h-6l-52 68v6q78 90 205 90q86 0 248 -36
t247 -36t132 72h8l51 -67v-9q-25 -29 -42 -43t-60 -30q-44 -16 -114 -15z" />
    <glyph glyph-name="notequal" unicode="&#x2260;" horiz-adv-x="1234" 
d="M1081 788h-340l-145 -243h485v-86h-536l-189 -316h-96l-4 13l180 303h-297v86h350l146 243h-496v86h547l154 259h96l4 -13l-147 -246h288v-86z" />
    <glyph glyph-name="uniF8FF" unicode="&#xf8ff;" horiz-adv-x="2758" 
d="M1305 381q-47 0 -48 -62q0 -17 9 -55q79 12 77 74q0 43 -38 43zM1884 350v8q2 4 2 9q0 39 -37 39q-45 0 -45 -56h80zM2200 518q14 0 14 12t-14 13h-17v-25h17zM2167 557h33q31 0 30 -25q0 -18 -16 -24l16 -27h-18l-14 23h-15v-23h-16v76zM2195 457q25 0 43 18t19 43
q-1 25 -19 43q-18 19 -43 19t-43 -18t-18 -44q0 -25 18 -43t43 -18zM2120 518q0 32 22 54t54 22q30 0 53 -23t23 -53t-24 -54q-22 -22 -53 -22t-53 22t-22 54zM1591 346q0 260 252 260q105 0 167 -61t63 -172q0 -19 -11 -74h-245q6 -50 88 -50q81 1 106 32v-150
q-4 -4 -44 -18t-103 -15q-137 0 -205 67t-68 181zM1040 12q0 295 11 420l12 158h160l6 -60q8 -43 8 -94q29 170 160 170q75 0 117 -60t42 -182t-68 -194t-192 -72q0 -14 2 -22l2 -64h-260zM717 590q-4 -78 -4 -216q0 -54 32 -55q31 0 31 54l-2 60v50q-2 31 -2 107h217l6 -82
q6 -78 6 -220q1 -142 -73 -209t-234 -67q-88 0 -133 14t-57 29v170q45 -37 136 -38t136 36q20 16 23 37q-8 -6 -23 -16q-33 -14 -94 -15q-190 0 -190 152v16h-93l4 -125q25 0 58 13v-152q-33 -33 -137 -35q-150 0 -150 131l4 168h-55v170l248 82l8 -59h338zM2389 817
q48 1 48 59t-48 58t-48 -58t48 -59zM664 817q49 1 49 59t-49 58q-43 0 -43 -58t43 -59zM2142 901q0 254 246 254q140 0 194 -68q54 -67 54 -183t-62 -182t-185 -65q-123 -1 -185 65t-62 179zM1599 670q0 320 23 477h156l6 -51q6 -92 6 -101l4 21q17 50 39 80q45 59 125 59
t114 -48t35 -159l4 -278h-229l4 192q0 51 -33 51t-32 -51l10 -192h-232zM586 657q-182 0 -183 230q-1 133 63 201t208 67q238 0 237 -229v-256h-155l-19 118q-25 -131 -151 -131zM938 965v170l238 73l8 -61h352q8 -105 12 -157t4 -320h-233q0 248 4 295h-117l4 -129
q0 -4 20 -4q20 -1 38 8v-148q-2 -8 -30 -21t-97 -14q-160 0 -160 131l4 177h-47zM127 670q0 303 10 446l13 182h194q2 -46 11 -210t10 -418h-238zM1436 1174q-53 0 -87 36t-34 87q0 52 34 87t87 35t87 -35q33 -35 33 -87t-33 -88q-34 -35 -87 -35z" />
    <glyph glyph-name="H.ss01" horiz-adv-x="1499" 
d="M172 1356q70 0 108 -44t37 -116v-477h865v612h106v-1165q0 -94 58 -94q29 0 45 16l10 -2l24 -74q-28 -37 -98 -37q-69 0 -107 44t-38 116v492h-865v-627h-106v1165q0 94 -57 95q-29 0 -45 -17l-11 2l-24 74q28 37 98 37z" />
    <glyph glyph-name="Hbar.ss01" horiz-adv-x="1499" 
d="M317 719h865v225h-865v-225zM1327 -25q-69 0 -107 44t-38 116v492h-865v-627h-106v944h-111v84h111v137q0 94 -57 95q-29 0 -45 -17l-11 2l-24 74q28 37 98 37t108 -44t37 -116v-168h865v303h106v-303h113v-84h-113v-778q0 -94 58 -94q29 0 45 16l10 -2l24 -74
q-28 -37 -98 -37z" />
    <glyph glyph-name="N.ss01" horiz-adv-x="1509" 
d="M1206 1331h103v-1331h-64l-923 1128v-993q0 -72 -37 -116t-99 -44t-100 29l-4 8l24 74l9 2q20 -16 47 -16q57 0 57 94v1165h66l921 -1128v1128z" />
    <glyph glyph-name="Nacute.ss01" horiz-adv-x="1509" 
d="M1206 1331h103v-1331h-64l-923 1128v-993q0 -72 -37 -116t-99 -44t-100 29l-4 8l24 74l9 2q20 -16 47 -16q57 0 57 94v1165h66l921 -1128v1128zM602 1450h-8l-33 51v8l361 236h8l51 -80v-6z" />
    <glyph glyph-name="Ncaron.ss01" horiz-adv-x="1509" 
d="M1206 1331h103v-1331h-64l-923 1128v-993q0 -72 -37 -116t-99 -44t-100 29l-4 8l24 74l9 2q20 -16 47 -16q57 0 57 94v1165h66l921 -1128v1128zM778 1450h-12l-307 184v8l39 58h8l266 -144l266 144h6l39 -58v-8z" />
    <glyph glyph-name="Ncommaaccent.ss01" horiz-adv-x="1509" 
d="M715 -100h98l6 -9l-88 -305l-8 -8h-59l-7 8l50 305zM1206 1331h103v-1331h-64l-923 1128v-993q0 -72 -37 -116t-99 -44t-100 29l-4 8l24 74l9 2q20 -16 47 -16q57 0 57 94v1165h66l921 -1128v1128z" />
    <glyph glyph-name="Eng.ss01" horiz-adv-x="1509" 
d="M1206 1331h103v-1403q1 -160 -99 -250t-247 -90q-101 0 -191 43t-137 117v8l67 60h9q39 -60 109 -96t161 -36q92 0 160 66t67 193v102l-886 1083v-993q0 -72 -37 -116t-99 -44t-100 29l-4 8l24 74l9 2q20 -16 47 -16q57 0 57 94v1165h66l921 -1128v1128z" />
    <glyph glyph-name="Ntilde.ss01" horiz-adv-x="1509" 
d="M1206 1331h103v-1331h-64l-923 1128v-993q0 -72 -37 -116t-99.5 -44t-99.5 29l-4 8l24 74l9 2q20 -16 47 -16q57 0 57 94v1165h66l921 -1128v1128zM584 1638q68 0 193.5 -36.5t185.5 -36.5q86 0 122 73h9l47 -73v-6q-61 -86 -178 -86q-68 0 -192 37.5t-187 37.5
q-88 1 -125 -75h-8l-48 73v6q61 86 181 86z" />
    <glyph glyph-name="Q.ss01" horiz-adv-x="1601" 
d="M205 666q0 -254 170 -423t426 -169t426 169t170 423t-170 423t-426 169t-426 -170q-170 -168 -170 -422zM1292 -307q-101 0 -221 102q-14 12 -92 81q-112 99 -178 99q-301 0 -502 198t-201 493q0 294 201 492t502 198t502 -198t200 -492q0 -248 -146 -432t-380 -238
q74 -53 118 -92q45 -39 49 -42q4 -2 21 -16q16 -14 36 -27t31 -16q11 -4 29 -11t63 -7q44 0 89 37l8 -4l39 -68l-4 -8q-63 -49 -164 -49z" />
    <glyph glyph-name="W.ss01" horiz-adv-x="1988" 
d="M0 1319q18 37 91 37t115 -39t77 -121l438 -1026l213 514l-275 641l5 6h100l231 -553l230 553h100l4 -6l-274 -641l215 -514l436 1026q35 82 77 121t104 39t98 -29l4 -8l-27 -74l-8 -2q-24 17 -52 17t-48 -22t-44 -77l-503 -1161h-68l-244 588l-245 -588h-68l-502 1161
q-25 55 -45 77t-49 22t-51 -17l-8 2z" />
    <glyph glyph-name="Wacute.ss01" horiz-adv-x="1988" 
d="M0 1319q18 37 91 37t115 -39t77 -121l438 -1026l213 514l-275 641l5 6h100l231 -553l230 553h100l4 -6l-274 -641l215 -514l436 1026q35 82 77 121t104 39t98 -29l4 -8l-27 -74l-8 -2q-24 17 -52 17t-48 -22t-44 -77l-503 -1161h-68l-244 588l-245 -588h-68l-502 1161
q-25 55 -45 77t-49 22t-51 -17l-8 2zM1145 1745h8l51 -80v-6l-379 -209h-8l-33 51v8z" />
    <glyph glyph-name="Wcircumflex.ss01" horiz-adv-x="1988" 
d="M0 1319q18 37 91 37t115 -39t77 -121l438 -1026l213 514l-275 641l5 6h100l231 -553l230 553h100l4 -6l-274 -641l215 -514l436 1026q35 82 77 121q43 39 105 39t97 -29l4 -8l-27 -74l-8 -2q-24 17 -52 17t-48 -22t-44 -77l-503 -1161h-68l-244 588l-245 -588h-68
l-502 1161q-25 55 -45 77t-49 22t-51 -17l-8 2zM727 1438h-8l-39 59v6l305 185h14l306 -185v-6l-39 -59h-9l-264 143z" />
    <glyph glyph-name="Wdieresis.ss01" horiz-adv-x="1988" 
d="M0 1319q18 37 91 37t115 -39t77 -121l438 -1026l213 514l-275 641l5 6h100l231 -553l230 553h100l4 -6l-274 -641l215 -514l436 1026q35 82 77 121t104 39t98 -29l4 -8l-27 -74l-8 -2q-24 17 -52 17t-48 -22t-44 -77l-503 -1161h-68l-244 588l-245 -588h-68l-502 1161
q-25 55 -45 77t-49 22t-51 -17l-8 2zM1176 1448q-41 0 -69 28t-28 68t28 69q28 27 69 27q40 0 68 -28t28 -68t-28 -68t-68 -28zM815 1448q-41 0 -69 28t-28 68t28 69q28 27 69 27t69 -28t28 -68t-28 -68t-69 -28z" />
    <glyph glyph-name="Wgrave.ss01" horiz-adv-x="1988" 
d="M0 1319q18 37 91 37t115 -39t77 -121l438 -1026l213 514l-275 641l5 6h100l231 -553l230 553h100l4 -6l-274 -641l215 -514l436 1026q35 82 77 121t104 39t98 -29l4 -8l-27 -74l-8 -2q-24 17 -52 17t-48 -22t-44 -77l-503 -1161h-68l-244 588l-245 -588h-68l-502 1161
q-25 55 -45 77t-49 22t-51 -17l-8 2zM844 1745l360 -236v-8l-33 -51h-8l-379 209v6l52 80h8z" />
    <glyph glyph-name="N.ss02" horiz-adv-x="1513" 
d="M1300 0h-63l-924 1128v-991q0 -72 -36.5 -117t-98 -45t-96.5 27l-4 8l24 74l9 4q20 -16 45 -16q55 0 55 94v1165h65l922 -1126v989q0 74 38 118t97.5 44t98.5 -27l4 -8l-25 -74l-8 -4q-20 16 -45 17q-57 0 -58 -95v-1165z" />
    <glyph glyph-name="Nacute.ss02" horiz-adv-x="1513" 
d="M1300 0h-63l-924 1128v-991q0 -72 -36.5 -117t-98 -45t-96.5 27l-4 8l24 74l9 4q20 -16 45 -16q55 0 55 94v1165h65l922 -1126v989q0 74 38 118t97.5 44t98.5 -27l4 -8l-25 -74l-8 -4q-20 16 -45 17q-57 0 -58 -95v-1165zM618 1450h-8l-32 51v8l360 236h8l51 -80v-6z" />
    <glyph glyph-name="Ncaron.ss02" horiz-adv-x="1513" 
d="M1300 0h-63l-924 1128v-991q0 -72 -36.5 -117t-98 -45t-96.5 27l-4 8l24 74l9 4q20 -16 45 -16q55 0 55 94v1165h65l922 -1126v989q0 74 38 118t97.5 44t98.5 -27l4 -8l-25 -74l-8 -4q-20 16 -45 17q-57 0 -58 -95v-1165zM795 1450h-13l-307 184v8l39 58h8l266 -144
l267 144h6l39 -58v-8z" />
    <glyph glyph-name="Ncommaaccent.ss02" horiz-adv-x="1513" 
d="M709 -100h98l6 -9l-88 -305l-8 -8h-60l-6 8l49 305zM1300 0h-63l-924 1128v-991q0 -72 -36.5 -117t-98 -45t-96.5 27l-4 8l24 74l9 4q20 -16 45 -16q55 0 55 94v1165h65l922 -1126v989q0 74 38 118t97.5 44t98.5 -27l4 -8l-25 -74l-8 -4q-20 16 -45 17q-57 0 -58 -95
v-1165z" />
    <glyph glyph-name="Eng.ss02" horiz-adv-x="1513" 
d="M1300 -72q0 -162 -98 -251t-246 -89q-102 0 -192 42t-137 118v8l69 60h6q39 -61 109 -96t161.5 -35t159.5 65.5t68 192.5v102l-887 1083v-991q0 -72 -36.5 -117t-98 -45t-96.5 27l-4 8l24 74l9 4q20 -16 45 -16q55 0 55 94v1165h65l922 -1126v989q0 74 38 118t97.5 44
t98.5 -27l4 -8l-25 -74l-8 -4q-20 16 -45 17q-57 0 -58 -95v-1237z" />
    <glyph glyph-name="Ntilde.ss02" horiz-adv-x="1513" 
d="M1300 0h-63l-924 1128v-991q0 -72 -36.5 -117t-98 -45t-96.5 27l-4 8l24 74l9 4q20 -16 45 -16q55 0 55 94v1165h65l922 -1126v989q0 74 38 118t97.5 44t98.5 -27l4 -8l-25 -74l-8 -4q-20 16 -45 17q-57 0 -58 -95v-1165zM600 1638q68 0 194 -36.5t185 -36.5q86 0 123 73
h8l47 -73v-6q-61 -86 -178 -86q-68 0 -191.5 37.5t-187.5 37.5q-88 1 -125 -75h-8l-47 73v6q61 86 180 86z" />
    <glyph glyph-name="i.loclTRK" horiz-adv-x="430" 
d="M164 0v1024h100v-1024h-100zM215 1145q-39 -1 -68 27t-28 69q0 41 28 69q29 28 68 28t68 -28t29 -69t-29 -69q-29 -27 -68 -27z" />
    <glyph glyph-name="e.ss01" horiz-adv-x="1155" 
d="M623 956q-164 0 -283 -102t-141 -270q195 -111 417 -111q158 0 251.5 63.5t93.5 176.5t-87 178t-251 65zM90 510.5q0 234.5 153.5 386.5t372 152t334 -91.5t115.5 -245t-123 -240.5t-333 -87t-414 102q8 -188 126.5 -303.5t315.5 -116t342 149.5h8l64 -55v-8
q-168 -178 -414 -178.5t-396.5 150t-150.5 385z" />
    <glyph glyph-name="eacute.ss01" horiz-adv-x="1155" 
d="M623 956q-164 0 -283 -102t-141 -270q195 -111 417 -111q158 0 251.5 63.5t93.5 176.5t-87 178t-251 65zM90 510.5q0 234.5 153.5 386.5t372 152t334 -91.5t115.5 -245t-123 -240.5t-333 -87t-414 102q8 -188 126.5 -303.5t315.5 -116t342 149.5h8l64 -55v-8
q-168 -178 -414 -178.5t-396.5 150t-150.5 385zM471 1147h-8l-39 49v8l334 269h6l61 -76v-8z" />
    <glyph glyph-name="ecaron.ss01" horiz-adv-x="1155" 
d="M623 956q-164 0 -283 -102t-141 -270q195 -111 417 -111q158 0 251.5 63.5t93.5 176.5t-87 178t-251 65zM90 510.5q0 234.5 153.5 386.5t372 152t334 -91.5t115.5 -245t-123 -240.5t-333 -87t-414 102q8 -188 126.5 -303.5t315.5 -116t342 149.5h8l64 -55v-8
q-168 -178 -414 -178.5t-396.5 150t-150.5 385zM635 1147h-21l-288 186v8l45 56h6l248 -146l245 146h9l45 -56v-8z" />
    <glyph glyph-name="ecircumflex.ss01" horiz-adv-x="1155" 
d="M623 956q-164 0 -283 -102t-141 -270q195 -111 417 -111q158 0 251.5 63.5t93.5 176.5t-87 178t-251 65zM90 510.5q0 234.5 153.5 386.5t372 152t334 -91.5t115.5 -245t-123 -240.5t-333 -87t-414 102q8 -188 126.5 -303.5t315.5 -116t342 149.5h8l64 -55v-8
q-168 -178 -414 -178.5t-396.5 150t-150.5 385zM377 1147h-6l-45 55v8l288 187h21l289 -187v-8l-45 -55h-9l-245 143z" />
    <glyph glyph-name="edieresis.ss01" horiz-adv-x="1155" 
d="M623 956q-164 0 -283 -102t-141 -270q195 -111 417 -111q158 0 251.5 63.5t93.5 176.5t-87 178t-251 65zM90 510.5q0 234.5 153.5 386.5t372 152t334 -91.5t115.5 -245t-123 -240.5t-333 -87t-414 102q8 -188 126.5 -303.5t315.5 -116t342 149.5h8l64 -55v-8
q-168 -178 -414 -178.5t-396.5 150t-150.5 385zM784 1145q-39 0 -66.5 28.5t-27.5 67.5t27.5 67.5t66.5 28.5t68 -27.5t29 -68.5t-29 -68.5t-68 -27.5zM465 1145q-39 0 -66.5 28.5t-27.5 67.5t27.5 67.5t66.5 28.5t67.5 -27.5t28.5 -68.5t-28.5 -68.5t-67.5 -27.5z" />
    <glyph glyph-name="edotaccent.ss01" horiz-adv-x="1155" 
d="M623 956q-164 0 -283 -102t-141 -270q195 -111 417 -111q158 0 251.5 63.5t93.5 176.5t-87 178t-251 65zM90 510.5q0 234.5 153.5 386.5t372 152t334 -91.5t115.5 -245t-123 -240.5t-333 -87t-414 102q8 -188 126.5 -303.5t315.5 -116t342 149.5h8l64 -55v-8
q-168 -178 -414 -178.5t-396.5 150t-150.5 385zM625 1145q-39 0 -68 27.5t-29 68.5t29 68.5t68 27.5t67.5 -27.5t28.5 -68.5t-28.5 -68.5t-67.5 -27.5z" />
    <glyph glyph-name="egrave.ss01" horiz-adv-x="1155" 
d="M623 956q-164 0 -283 -102t-141 -270q195 -111 417 -111q158 0 251.5 63.5t93.5 176.5t-87 178t-251 65zM90 510.5q0 234.5 153.5 386.5t372 152t334 -91.5t115.5 -245t-123 -240.5t-333 -87t-414 102q8 -188 126.5 -303.5t315.5 -116t342 149.5h8l64 -55v-8
q-168 -178 -414 -178.5t-396.5 150t-150.5 385zM786 1147h-6l-356 242v8l61 76h9l331 -269v-8z" />
    <glyph glyph-name="emacron.ss01" horiz-adv-x="1155" 
d="M623 956q-164 0 -283 -102t-141 -270q195 -111 417 -111q158 0 251.5 63.5t93.5 176.5t-87 178t-251 65zM90 510.5q0 234.5 153.5 386.5t372 152t334 -91.5t115.5 -245t-123 -240.5t-333 -87t-414 102q8 -188 126.5 -303.5t315.5 -116t342 149.5h8l64 -55v-8
q-168 -178 -414 -178.5t-396.5 150t-150.5 385zM901 1274v-86h-553v86h553z" />
    <glyph glyph-name="eogonek.ss01" horiz-adv-x="1155" 
d="M623 956q-164 0 -283 -102t-141 -270q195 -111 417 -111q158 0 251.5 63.5t93.5 176.5t-87 178t-251 65zM653 -211q0 -47 29 -72.5t80 -26.5t100 42h8l39 -51v-9q-76 -61 -156.5 -61t-133 46t-52.5 132t133 191q-45 -4 -71 -5q-238 0 -388.5 150.5t-150.5 385
t153.5 386.5t372 152t334 -91.5t115.5 -245t-123 -240.5t-333 -87t-414 102q8 -188 126.5 -303.5t315.5 -116t342 149.5h8l64 -55v-8q-84 -90 -201 -140l-32 -24q-22 -18 -32 -26q-32 -24 -58 -49l-24 -23q-40 -40 -45.5 -65.5t-5.5 -37.5z" />
    <glyph glyph-name="f.ss01" horiz-adv-x="645" 
d="M512 1327q-88 1 -148 -65t-61 -199v-39h324v-86h-324v-1245h-102v1245h-176v86h176v39q0 176 92 265t215 89t199 -49l2 -8l-35 -68l-8 -4q-66 39 -154 39z" />
    <glyph glyph-name="i.ss01" horiz-adv-x="473" 
d="M142 1049q69 0 106 -41t37 -113v-735q0 -94 57 -94q25 0 45 16l8 -2l23 -68l-4 -10q-36 -27 -96 -27t-97 44t-37 116v729q0 96 -55 97q-27 0 -45 -19l-10 2l-23 68q22 37 91 37zM205 1145q-41 -1 -69 27t-27 69q0 41 27 69q28 28 69 28t69 -28t27 -69q1 -41 -27 -69
t-69 -27z" />
    <glyph glyph-name="dotlessi.ss01" horiz-adv-x="473" 
d="M142 1049q69 0 106 -41t37 -113v-735q0 -94 57 -94q25 0 45 16l8 -2l23 -68l-4 -10q-36 -27 -96 -27t-97 44t-37 116v729q0 96 -55 97q-27 0 -45 -19l-10 2l-23 68q22 37 91 37z" />
    <glyph glyph-name="iacute.ss01" horiz-adv-x="473" 
d="M142 1049q69 0 106 -41t37 -113v-735q0 -94 57 -94q25 0 45 16l8 -2l23 -68l-4 -10q-36 -27 -96 -27t-97 44t-37 116v729q0 96 -55 97q-27 0 -45 -19l-10 2l-23 68q22 37 91 37zM385 1473h6l62 -76v-8l-355 -242h-8l-39 49v8z" />
    <glyph glyph-name="icircumflex.ss01" horiz-adv-x="473" 
d="M142 1049q69 0 106 -41t37 -113v-735q0 -94 57 -94q25 0 45 16l8 -2l23 -68l-4 -10q-36 -27 -96 -27t-97 44t-37 116v729q0 96 -55 97q-27 0 -45 -19l-10 2l-23 68q22 37 91 37zM215 1397l260 -187v-8l-41 -55h-8l-221 143l-223 -143h-5l-40 55v8l260 187h18z" />
    <glyph glyph-name="idieresis.ss01" horiz-adv-x="473" 
d="M142 1049q69 0 106 -41t37 -113v-735q0 -94 57 -94q25 0 45 16l8 -2l23 -68l-4 -10q-36 -27 -96 -27t-97 44t-37 116v729q0 96 -55 97q-27 0 -45 -19l-10 2l-23 68q22 37 91 37zM461 1241q1 -41 -27 -69t-68 -27q-40 0 -68 29q-28 30 -28 68t28 67t68 29t68 -28t27 -69z
M46 1145q-40 0 -68 29q-28 30 -28 68t28 67t68 29t68 -28t28 -69t-28 -69q-28 -27 -68 -27z" />
    <glyph glyph-name="igrave.ss01" horiz-adv-x="473" 
d="M142 1049q69 0 106 -41t37 -113v-735q0 -94 57 -94q25 0 45 16l8 -2l23 -68l-4 -10q-36 -27 -96 -27t-97 44t-37 116v729q0 96 -55 97q-27 0 -45 -19l-10 2l-23 68q22 37 91 37zM-27 1473l332 -269v-8l-39 -49h-6l-356 242v8l61 76h8z" />
    <glyph glyph-name="ij.ss01" horiz-adv-x="925" 
d="M764 1024v-991q0 -133 -48 -208t-147 -132h-8l-39 74v6q72 43 107 98t35 152v915h-142v86h242zM142 1049q69 0 106 -41t37 -113v-735q0 -94 57 -94q25 0 45 16l8 -2l23 -68l-4 -10q-36 -27 -96 -27t-97 44t-37 116v729q0 96 -55 97q-27 0 -45 -19l-10 2l-23 68
q22 37 91 37zM674 1145q-39 -1 -68 27t-28 69q0 41 28 69q29 28 68 28q40 0 68 -28t28 -69t-28 -69t-68 -27zM205 1145q-41 -1 -69 27t-27 69q0 41 27 69q28 28 69 28t69 -28t27 -69q1 -41 -27 -69t-69 -27z" />
    <glyph glyph-name="imacron.ss01" horiz-adv-x="473" 
d="M142 1049q69 0 106 -41t37 -113v-735q0 -94 57 -94q25 0 45 16l8 -2l23 -68l-4 -10q-36 -27 -96 -27t-97 44t-37 116v729q0 96 -55 97q-27 0 -45 -19l-10 2l-23 68q22 37 91 37zM-45 1274h498v-86h-498v86z" />
    <glyph glyph-name="iogonek.ss01" horiz-adv-x="473" 
d="M142 1049q69 0 106 -41t37 -113v-735q0 -94 57 -94q25 0 45 16l8 -2l23 -68l-4 -10q-12 -10 -41 -33t-43 -35t-39 -33t-54 -57q-28 -37 -28 -79q0 -43 29 -69q30 -26 80 -27t100 42h8l39 -51v-8q-76 -62 -157 -62t-133 46t-52 124q0 104 162 220q-100 29 -101 155v729
q0 96 -55 97q-27 0 -45 -19l-10 2l-23 68q22 37 91 37zM205 1145q-41 -1 -69 27t-27 69q0 41 27 69q28 28 69 28t69 -28t27 -69q1 -41 -27 -69t-69 -27z" />
    <glyph glyph-name="itilde.ss01" horiz-adv-x="473" 
d="M142 1049q69 0 106 -41t37 -113v-735q0 -94 57 -94q25 0 45 16l8 -2l23 -68l-4 -10q-36 -27 -96 -27t-97 44t-37 116v729q0 96 -55 97q-27 0 -45 -19l-10 2l-23 68q22 37 91 37zM49 1327q55 0 159 -36t162 -36q56 0 89 72h8l33 -74v-8q-53 -82 -140 -82q-55 0 -156 36
t-163 36t-90 -72h-8l-33 74v8q53 82 139 82z" />
    <glyph glyph-name="k.ss01" horiz-adv-x="1024" 
d="M942 -25q-82 0 -176 115l-344 416l-160 -164v-342h-100v1221q0 96 -56 96q-25 0 -47 -19l-8 2l-22 68l4 10q35 27 95.5 27t97 -41t36.5 -113v-784l545 557h115l2 -6l-435 -440l363 -441q61 -72 109 -71q23 0 47 14l10 -2l22 -70q-16 -33 -98 -33z" />
    <glyph glyph-name="kcommaaccent.ss01" horiz-adv-x="1024" 
d="M504 -100h98l6 -9l-88 -305l-8 -8h-59l-7 8l50 305zM942 -25q-82 0 -176 115l-344 416l-160 -164v-342h-100v1221q0 96 -56 96q-25 0 -47 -19l-8 2l-22 68l4 10q35 27 95.5 27t97 -41t36.5 -113v-784l545 557h115l2 -6l-435 -440l363 -441q61 -72 109 -71q23 0 47 14
l10 -2l22 -70q-16 -33 -98 -33z" />
    <glyph glyph-name="v.ss01" horiz-adv-x="1144" 
d="M104 1049q58 0 96 -37t68 -109l303 -745l310 745q31 74 65 110q35 36 91 36t91 -27l7 -10l-23 -68l-10 -2q-20 18 -50 18t-50 -29q-20 -28 -48 -93l-352 -838h-63l-351 838q-27 66 -47 94t-49 28q-29 1 -53 -18l-8 2l-23 68l4 10q35 27 92 27z" />
    <glyph glyph-name="y.ss01" 
d="M326 -307q-82 0 -136 37l-4 6l31 69l10 5q41 -29 90 -29q102 0 168 141l58 131l-350 785q-31 70 -49 96t-48 26q-29 1 -53 -18l-8 2l-23 68l4 10q39 27 94 27q56 0 94 -36t70 -110l326 -731l324 731q35 76 69 111q35 35 93 35t92 -27l4 -10l-23 -68l-8 -2q-25 18 -53 18
t-47 -27q-18 -26 -50 -95l-419 -942q-50 -111 -112 -157t-144 -46z" />
    <glyph glyph-name="yacute.ss01" 
d="M326 -307q-82 0 -136 37l-4 6l31 69l10 5q41 -29 90 -29q102 0 168 141l58 131l-350 785q-31 70 -49 96t-48 26q-29 1 -53 -18l-8 2l-23 68l4 10q39 27 94 27q56 0 94 -36t70 -110l326 -731l324 731q35 76 69 111q35 35 93 35t92 -27l4 -10l-23 -68l-8 -2q-25 18 -53 18
t-47 -27q-18 -26 -50 -95l-419 -942q-50 -111 -112 -157t-144 -46zM440 1147h-8l-39 49v8l334 269h6l62 -76v-8z" />
    <glyph glyph-name="ycircumflex.ss01" 
d="M326 -307q-82 0 -136 37l-4 6l31 69l10 5q41 -29 90 -29q102 0 168 141l58 131l-350 785q-31 70 -49 96t-48 26q-29 1 -53 -18l-8 2l-23 68l4 10q39 27 94 27q56 0 94 -36t70 -110l326 -731l324 731q35 76 69 111q35 35 93 35t92 -27l4 -10l-23 -68l-8 -2q-25 18 -53 18
t-47 -27q-18 -26 -50 -95l-419 -942q-50 -111 -112 -157t-144 -46zM346 1147h-6l-45 55v8l289 187h20l289 -187v-8l-45 -55h-8l-246 143z" />
    <glyph glyph-name="ydieresis.ss01" 
d="M326 -307q-82 0 -136 37l-4 6l31 69l10 5q41 -29 90 -29q102 0 168 141l58 131l-350 785q-31 70 -49 96t-48 26q-29 1 -53 -18l-8 2l-23 68l4 10q39 27 94 27q56 0 94 -36t70 -110l326 -731l324 731q35 76 69 111q35 35 93 35t92 -27l4 -10l-23 -68l-8 -2q-25 18 -53 18
t-47 -27q-18 -26 -50 -95l-419 -942q-50 -111 -112 -157t-144 -46zM850 1241q0 -41 -28 -69t-67 -27q-40 0 -68 29q-28 30 -28 68t28 67t68 29q39 0 67 -28t28 -69zM435 1145q-39 0 -67 29q-28 30 -28 68t28 67t68 29t67 -28t27 -69t-27 -69q-28 -27 -68 -27z" />
    <glyph glyph-name="ygrave.ss01" 
d="M326 -307q-82 0 -136 37l-4 6l31 69l10 5q41 -29 90 -29q102 0 168 141l58 131l-350 785q-31 70 -49 96t-48 26q-29 1 -53 -18l-8 2l-23 68l4 10q39 27 94 27q56 0 94 -36t70 -110l326 -731l324 731q35 76 69 111q35 35 93 35t92 -27l4 -10l-23 -68l-8 -2q-25 18 -53 18
t-47 -27q-18 -26 -50 -95l-419 -942q-50 -111 -112 -157t-144 -46zM756 1147h-6l-357 242v8l62 76h8l332 -269v-8z" />
    <glyph glyph-name="uni1EF9.ss01" 
d="M326 -307q-82 0 -136 37l-4 6l31 69l10 5q41 -29 90 -29q102 0 168 141l58 131l-350 785q-31 70 -49 96t-48 26q-29 1 -53 -18l-8 2l-23 68l4 10q39 27 94 27q56 0 94 -36t70 -110l326 -731l324 731q35 76 69 111q35 35 93 35t92 -27l4 -10l-23 -68l-8 -2q-25 18 -53 18
t-47 -27q-18 -26 -50 -95l-419 -942q-50 -111 -112 -157t-144 -46zM422 1327q61 0 176 -36q114 -36 178 -36t101 72h8l37 -74v-8q-57 -82 -156 -82q-61 0 -174 36q-112 36 -180 36t-101 -72h-8l-37 74v8q57 82 156 82z" />
    <glyph glyph-name="f_b" horiz-adv-x="1873" 
d="M842 512q0 -204 119 -324t302 -120t300 128t116 316q0 188 -116 316q-117 128 -300 128t-302 -120t-119 -324zM1264 1049q229 0 374 -155q146 -155 146 -382t-146 -382t-374 -155q-264 0 -412 213v-188h-100v1212q-37 115 -199 115q-109 0 -172 -69t-64 -195v-39h326v-86
h-326v-1112q-1 -72 -37 -115t-98 -43t-94 27l-4 8l22 68l9 4q18 -18 47 -19q55 0 55 97v1085h-178v86h178v39q0 170 92 262q93 92 239 92t225 -62t79 -159v-360q148 213 412 213z" />
    <glyph glyph-name="f_h" horiz-adv-x="1796" 
d="M1672 -25q-72 0 -108 44t-36 118v488q0 151 -89 241t-241 90t-249 -95t-97 -245v-616h-100v1212q-37 115 -199 115q-109 0 -172 -69t-64 -195v-39h326v-86h-326v-1112q-1 -72 -37 -115t-98 -43t-94 27l-4 8l22 68l9 4q18 -18 47 -19q55 0 55 97v1085h-178v86h178v39
q0 170 92 262q93 92 239 92t225 -62t79 -159v-326q119 178 362 179q186 0 302 -115t114 -301v-473q0 -94 56 -94q23 0 40 14l11 -2l22 -70q-16 -33 -87 -33z" />
    <glyph glyph-name="f_k" horiz-adv-x="1708" 
d="M852 598v-115h348q125 0 203 67t78 173t-74 171t-199 64q-170 0 -263 -99t-93 -261zM1571 -25q-92 0 -187 115l-254 307h-278v-397h-100v1212q-37 115 -199 115q-109 0 -172 -69t-64 -195v-39h326v-86h-326v-1112q-1 -72 -37 -115t-98 -43t-94 27l-4 8l22 68l9 4
q18 -18 47 -19q55 0 55 97v1085h-178v86h178v39q0 170 92 262q93 92 239 92t225 -62t79 -159v-326q113 178 365 179q166 -1 267 -91t101 -228t-92 -226t-238 -105l215 -262q61 -72 109 -71q25 0 49 14l8 -2l25 -70q-25 -33 -90 -33z" />
    <glyph glyph-name="f_t" horiz-adv-x="1232" 
d="M862 1024h330v-86h-330v-612q0 -127 52 -193t147 -65q55 0 100 28l8 -4l33 -69l-4 -9q-57 -39 -139 -39q-137 -1 -217 93t-80 258v612h-445v-1112q-1 -72 -37 -115t-98 -43t-94 27l-4 8l22 68l9 4q18 -18 47 -19q55 0 55 97v1085h-178v86h178v39q0 178 81 266t214 88
q74 0 139 -35l2 -10l-35 -67l-8 -5q-47 27 -98 27q-195 0 -195 -264v-39h445v313l92 19l8 -6v-326z" />
    <glyph glyph-name="ordfeminine.ss01" horiz-adv-x="935" 
d="M420 766q106 0 175 70t69 186t-69 186t-174 70t-174 -75t-69 -183t68 -182q68 -72 174 -72zM426 688q-148 0 -241 95q-91 95 -91 237t91 237q91 97 239 97t240 -117v102h81v-510q0 -68 37 -67q16 0 29 12l8 -4l17 -55l-2 -6q-29 -21 -74 -21t-71 32t-25 85
q-90 -117 -238 -117z" />
    <glyph glyph-name="ampersand.ss01" horiz-adv-x="1245" 
d="M1190 690v-94h-176q74 -102 73 -213q0 -178 -141 -293t-356 -115t-357 115q-141 115 -141 293q0 127 74 223t201 144q-172 98 -172 274q0 141 113 237q114 95 286 95q244 0 395 -189v-8l-65 -61h-9q-135 162 -325 162q-123 0 -205 -66t-82 -169t80 -170t211 -67h78v-92
h-82q-168 0 -279 -90t-111 -223t112 -223q110 -90 278 -90t278 89t109 220q0 131 -96 217v94h309z" />
    <glyph glyph-name="uni0326.001" horiz-adv-x="0" 
d="M-205 1393l8 8h99l6 -8l-98 -349l-9 -8h-57l-6 8z" />
    <glyph glyph-name="acute.case" horiz-adv-x="583" 
d="M442 1442h9l51 -80v-6l-379 -209h-8l-33 51v8z" />
    <glyph glyph-name="breve.case" horiz-adv-x="741" 
d="M369 1145q-111 -1 -190 69t-93 185h90q12 -80 64 -126t129 -46q78 0 129 46t63 126h90q-15 -115 -93 -185t-189 -69z" />
    <glyph glyph-name="caron.case" horiz-adv-x="741" 
d="M643 1397l39 -58v-8l-305 -184h-12l-308 184v8l39 58h8l267 -144l266 144h6z" />
    <glyph glyph-name="circumflex.case" horiz-adv-x="741" 
d="M373 1384l305 -184v-6l-39 -59h-8l-264 143l-267 -143h-8l-39 59v6l305 184h15z" />
    <glyph glyph-name="dieresis.case" horiz-adv-x="733" 
d="M547 1145q-39 -1 -68 27t-28 69q0 41 28 69q29 28 68 28t67 -28t29 -69q-1 -41 -29 -69t-67 -27zM186 1145q-40 -1 -68 27t-28 69t29 69t67 28t68 -28q29 -28 29 -69t-29 -69t-68 -27z" />
    <glyph glyph-name="dotaccent.case" horiz-adv-x="354" 
d="M177 1147q-39 0 -67 28q-28 29 -28 67t29 66t67 28t66 -28t28 -67t-28 -67t-67 -27z" />
    <glyph glyph-name="grave.case" horiz-adv-x="585" 
d="M141 1442l361 -236v-8l-33 -51h-8l-379 209v6l51 80h8z" />
    <glyph glyph-name="hungarumlaut.case" horiz-adv-x="724" 
d="M477 1485l8 8h103l6 -8l-191 -334l-8 -8h-59l-4 8zM236 1485l8 8h102l6 -8l-188 -334l-10 -8h-60l-4 8z" />
    <glyph glyph-name="macron.case" horiz-adv-x="722" 
d="M82 1276h561v-82h-561v82z" />
    <glyph glyph-name="ring.case" horiz-adv-x="473" 
d="M238 1198q46 0 76 33t30 76t-30 75t-76 31q-46 0 -77 -32q-30 -33 -30 -75t31 -75t76 -33zM238 1126q-78 0 -132 52t-53 129q0 76 53 128q54 52 132 52t131 -52t53 -128q0 -77 -53 -129t-131 -52z" />
    <glyph glyph-name="tilde.case" horiz-adv-x="870" 
d="M248 1335q68 0 194 -37t185 -36q86 0 123 73h8l47 -73v-7q-61 -86 -178 -86q-68 0 -192 38t-187 38q-88 0 -125 -76h-8l-47 74v6q61 86 180 86z" />
    <glyph glyph-name="IJacute" horiz-adv-x="1652" 
d="M911 1331h557v-960q0 -184 -111 -290q-112 -105 -276 -106q-252 0 -383 201v8l72 60h8q111 -172 301 -172q123 0 203 82t80 219v864h-451v94zM637 1241h-227v-1149h227v-92h-559v92h227v1149h-227v90h559v-90zM1343 1745h9l51 -80v-6l-379 -209h-8l-35 51v8zM508 1745h8
l51 -80v-6l-379 -209h-8l-33 51v8z" />
    <glyph glyph-name="ijacute" horiz-adv-x="923" 
d="M764 1024v-991q0 -133 -48 -208t-147 -132h-8l-39 74v6q72 43 107 98t35 152v915h-142v86h242zM142 1049q69 0 106 -41t37 -113v-735q0 -94 57 -94q25 0 45 16l8 -2l23 -68l-4 -10q-36 -27 -96 -27t-97 44t-37 116v729q0 96 -55 97q-27 0 -45 -19l-10 2l-23 68
q22 37 91 37zM813 1473l61 -76v-8l-354 -242h-8l-39 49v8l334 269h6zM385 1473h6l62 -76v-8l-355 -242h-8l-39 49v8z" />
    <glyph glyph-name="slashlong.case" horiz-adv-x="1265" 
d="M129 -100l-4 12l1022 1538h106l4 -12l-1019 -1538h-109z" />
    <glyph glyph-name="slashlong" horiz-adv-x="1087" 
d="M63 59l-6 7l863 1232h104l6 -6l-862 -1233h-105z" />
    <glyph glyph-name="slashshort.case" horiz-adv-x="757" 
d="M727 772l-657 -321l-9 4v82l658 323l8 -6v-82z" />
    <glyph glyph-name="slashshort" horiz-adv-x="657" 
d="M82 459v80l502 258h12v-80l-504 -258h-10z" />
    <glyph glyph-name="strokelong" horiz-adv-x="1548" 
d="M145 1057h1252v-84h-1252v84z" />
    <glyph glyph-name="strokeshort" horiz-adv-x="710" 
d="M76 702h555v-81h-555v81z" />
    </font>
</defs>
</svg>
