<?xml version="1.0" encoding="UTF-8"?>
<svg xmlns="http://www.w3.org/2000/svg" xmlns:xlink="http://www.w3.org/1999/xlink" version="1.2" >
<font id="Futura Cond Medium">
<font-face  font-family="Futura Cond" units-per-em="1000" ascent="733" descent="-267" font-style="normal" font-weight="500" font-stretch="normal" cap-height="667" x-height="447" underline-position="-61" underline-thickness="79" />
<missing-glyph  horiz-adv-x="186" d="" />
<glyph glyph-name="NULL" d="" />
<glyph glyph-name="CR" unicode="&#xd;" horiz-adv-x="250" d="" />
<glyph glyph-name="space" unicode="&#x20;" horiz-adv-x="186" d="" />
<glyph glyph-name="exclam" unicode="&#x21;" horiz-adv-x="246" d="M124 99 C94 99 70 76 70 46 C70 17 94 -7 123 -7 C152 -7 176 17 176 46 C176 75 152 99 124 99 L124 99 Z M80 667 L80 160 L167 160 L167 667 L80 667 Z " />
<glyph glyph-name="quotedbl" unicode="&#x22;" horiz-adv-x="334" d="M122 406 L140 667 L40 667 L58 406 L122 406 Z M275 406 L294 667 L193 667 L212 406 L275 406 Z " />
<glyph glyph-name="numbersign" unicode="&#x23;" horiz-adv-x="380" d="M340 287 L279 287 L291 392 L371 392 L371 466 L301 466 L325 667 L254 667 L230 466 L173 466 L198 667 L127 667 L103 466 L31 466 L32 392 L94 392 L81 287 L8 287 L9 213 L72 213 L45 0 L116 0 L142 213 L198 213 L172 0 L243 0 L269 213 L340 213 L340 287 Z M220 392 L208 287 L151 287 L164 392 L220 392 Z " />
<glyph glyph-name="dollar" unicode="&#x24;" horiz-adv-x="379" d="M170 734 L170 675 C87 669 35 604 35 504 C35 449 49 406 78 372 C98 349 112 338 171 300 C214 272 230 261 241 248 C254 232 261 205 261 173 C261 106 237 73 190 73 C147 73 128 88 113 132 L40 97 C64 28 98 1 170 -7 L170 -66 L209 -66 L209 -7 C251 1 270 8 288 22 C325 51 346 109 346 184 C346 277 326 310 225 375 C132 436 118 454 118 511 C118 570 145 604 193 604 C233 604 259 583 270 541 L338 575 C321 637 278 669 209 675 L209 734 L170 734 Z " />
<glyph glyph-name="percent" unicode="&#x25;" horiz-adv-x="513" d="M126 669 C61 669 32 620 32 512 C32 403 61 354 126 354 C192 354 223 404 223 510 C223 619 193 669 126 669 L126 669 Z M127 616 C153 616 164 585 164 510 C164 437 153 406 128 406 C101 406 92 434 92 511 C92 588 101 616 127 616 L127 616 Z M394 667 L64 0 L119 0 L449 667 L394 667 Z M386 304 C322 304 292 254 292 147 C292 39 322 -10 386 -10 C449 -10 481 41 481 145 C481 201 475 233 460 261 C445 288 418 304 386 304 L386 304 Z M387 251 C412 251 423 220 423 145 C423 73 412 42 387 42 C361 42 352 69 352 146 C352 224 361 251 387 251 L387 251 Z " />
<glyph glyph-name="ampersand" unicode="&#x26;" horiz-adv-x="454" d="M377 256 L322 179 L234 323 C311 400 334 442 334 501 C334 572 283 620 208 620 C133 620 79 567 79 494 C79 443 96 394 132 335 C65 265 40 218 40 158 C40 70 108 -4 190 -4 C234 -4 270 14 304 52 L335 0 L434 0 L363 112 L434 211 L377 256 Z M198 389 C168 447 160 468 160 495 C160 526 184 552 214 552 C242 552 261 531 261 499 C261 464 247 440 198 389 L198 389 Z M267 113 C243 83 224 71 199 71 C157 71 124 112 124 163 C124 200 137 226 174 267 L267 113 Z " />
<glyph glyph-name="quotesingle" unicode="&#x27;" horiz-adv-x="180" d="M122 406 L140 667 L40 667 L58 406 L122 406 Z " />
<glyph glyph-name="parenleft" unicode="&#x28;" horiz-adv-x="259" d="M132 744 C109 680 96 639 85 591 C65 502 50 372 50 278 C50 123 77 -35 132 -194 L219 -171 C169 -15 143 142 143 284 C143 413 168 557 219 723 L132 744 Z " />
<glyph glyph-name="parenright" unicode="&#x29;" horiz-adv-x="259" d="M128 -194 C151 -129 163 -88 175 -40 C195 49 210 179 210 273 C210 428 182 587 128 744 L40 721 C90 565 117 408 117 266 C117 138 91 -8 40 -172 L128 -194 Z " />
<glyph glyph-name="asterisk" unicode="&#x2a;" horiz-adv-x="380" d="M171 733 L174 613 L60 653 L48 616 L164 582 L90 486 L121 464 L190 563 L258 464 L289 486 L216 582 L332 616 L320 653 L206 613 L209 733 L171 733 Z " />
<glyph glyph-name="plus" unicode="&#x2b;" horiz-adv-x="380" d="M34 304 L153 304 L153 186 L228 186 L228 304 L346 304 L346 378 L228 378 L228 495 L153 495 L153 378 L34 378 L34 304 Z " />
<glyph glyph-name="comma" unicode="&#x2c;" horiz-adv-x="187" d="M72 93 L13 -150 L58 -163 L144 72 L72 93 Z " />
<glyph glyph-name="hyphen" unicode="&#x2d;" horiz-adv-x="157" d="M0 262 L0 195 L157 195 L157 262 L0 262 Z " />
<glyph glyph-name="period" unicode="&#x2e;" horiz-adv-x="187" d="M94 100 C64 100 40 77 40 47 C40 17 64 -7 94 -7 C123 -7 147 17 147 47 C147 76 123 100 94 100 L94 100 Z " />
<glyph glyph-name="slash" unicode="&#x2f;" horiz-adv-x="398" d="M356 733 L-43 -183 L28 -183 L425 733 L356 733 Z " />
<glyph glyph-name="zero" unicode="0" horiz-adv-x="379" d="M189 675 C136 675 93 645 71 593 C48 539 39 464 39 334 C39 202 48 131 71 74 C92 22 136 -8 190 -8 C243 -8 287 22 308 74 C331 130 340 203 340 328 C340 465 331 535 308 593 C286 645 243 675 189 675 L189 675 Z M188 595 C234 595 249 531 249 329 C249 136 234 70 189 70 C143 70 128 134 128 332 C128 530 143 595 188 595 L188 595 Z " />
<glyph glyph-name="one" unicode="1" horiz-adv-x="380" d="M86 667 L86 590 L152 590 L152 0 L238 0 L238 667 L86 667 Z " />
<glyph glyph-name="two" unicode="2" horiz-adv-x="379" d="M137 450 L137 495 C137 566 154 597 192 597 C228 597 249 566 249 514 C249 452 225 385 134 197 C54 32 54 31 40 0 L333 0 L333 77 L168 77 L187 115 C242 217 242 217 253 240 C314 364 340 444 340 512 C340 622 292 675 193 675 C127 675 88 653 67 605 C53 571 49 533 49 450 L137 450 Z " />
<glyph glyph-name="three" unicode="3" horiz-adv-x="379" d="M140 488 L140 508 C140 566 158 597 192 597 C227 597 244 564 244 493 C244 410 224 385 155 385 L142 385 L142 308 C153 309 158 310 165 310 C222 310 245 277 245 199 C245 105 228 71 183 71 C149 71 127 100 127 145 C127 152 127 159 128 167 L43 167 L43 150 C43 105 55 61 75 34 C95 6 131 -8 180 -8 C229 -8 267 6 293 34 C323 67 336 112 336 188 C336 285 317 323 254 344 C312 368 328 403 328 501 C328 622 285 675 187 675 C94 675 55 625 55 506 L55 488 L140 488 Z " />
<glyph glyph-name="four" unicode="4" horiz-adv-x="379" d="M215 667 L32 260 L32 183 L215 183 L215 0 L298 0 L298 183 L341 183 L341 252 L298 252 L298 667 L215 667 Z M215 252 L102 252 L215 531 L215 252 Z " />
<glyph glyph-name="five" unicode="5" horiz-adv-x="379" d="M114 667 L76 343 C98 349 113 351 131 351 C203 351 241 307 241 222 C241 132 203 75 145 75 C120 75 103 81 67 100 L45 20 C92 -2 115 -8 151 -8 C267 -8 336 82 336 232 C336 325 303 384 239 410 C214 421 208 422 161 422 L183 590 L327 590 L327 667 L114 667 Z " />
<glyph glyph-name="six" unicode="6" horiz-adv-x="379" d="M181 667 C157 619 127 553 107 507 C62 402 46 326 46 220 C46 59 89 -8 191 -8 C238 -8 276 8 298 37 C323 72 333 116 333 199 C333 273 327 316 311 350 C294 387 258 410 218 410 C192 410 175 403 146 381 C183 474 188 485 263 640 L276 667 L181 667 Z M190 328 C213 328 228 318 235 298 C242 276 247 239 247 200 C247 113 229 70 191 70 C153 70 135 113 135 201 C135 291 151 328 190 328 L190 328 Z " />
<glyph glyph-name="seven" unicode="7" horiz-adv-x="379" d="M49 667 L49 591 L234 591 L49 0 L145 0 L347 667 L49 667 Z " />
<glyph glyph-name="eight" unicode="8" horiz-adv-x="379" d="M255 362 C308 385 328 425 328 511 C328 625 286 675 190 675 C94 675 52 625 52 511 C52 425 72 385 125 362 C65 340 46 301 46 194 C46 122 56 77 79 44 C103 9 140 -8 190 -8 C240 -8 277 9 301 44 C324 77 334 122 334 194 C334 300 315 340 255 362 L255 362 Z M190 598 C222 598 239 565 239 504 C239 439 221 401 190 401 C159 401 141 439 141 505 C141 565 159 598 190 598 L190 598 Z M190 314 C229 314 245 277 245 183 C245 107 227 71 190 71 C152 71 135 107 135 187 C135 277 151 314 190 314 L190 314 Z " />
<glyph glyph-name="nine" unicode="9" horiz-adv-x="379" d="M194 0 L202 16 C315 250 333 308 333 447 C333 611 292 675 189 675 C143 675 105 658 83 627 C58 593 47 538 47 449 C47 376 55 335 75 302 C92 272 126 253 162 253 C189 253 205 259 231 280 C196 196 193 189 113 29 L99 0 L194 0 Z M188 593 C228 593 245 553 245 461 C245 371 228 333 189 333 C149 333 132 371 132 463 C132 553 149 593 188 593 L188 593 Z " />
<glyph glyph-name="colon" unicode="&#x3a;" horiz-adv-x="187" d="M94 100 C64 100 40 77 40 47 C40 17 64 -7 94 -7 C123 -7 147 17 147 47 C147 76 123 100 94 100 L94 100 Z M94 454 C64 454 40 431 40 401 C40 371 64 347 94 347 C123 347 147 371 147 401 C147 430 123 454 94 454 L94 454 Z " />
<glyph glyph-name="semicolon" unicode="&#x3b;" horiz-adv-x="187" d="M72 93 L13 -150 L58 -163 L144 72 L72 93 Z M95 454 C65 454 41 431 41 401 C41 371 65 347 95 347 C124 347 148 371 148 401 C148 430 124 454 95 454 L95 454 Z " />
<glyph glyph-name="less" unicode="&#x3c;" horiz-adv-x="500" d="M466 582 L33 375 L33 301 L466 93 L466 179 L125 337 L466 496 L466 582 Z " />
<glyph glyph-name="equal" unicode="&#x3d;" horiz-adv-x="380" d="M34 355 L346 355 L346 429 L34 429 L34 355 Z M34 252 L346 252 L346 326 L34 326 L34 252 Z " />
<glyph glyph-name="greater" unicode="&#x3e;" horiz-adv-x="500" d="M34 93 L467 300 L467 374 L34 582 L34 496 L375 337 L34 179 L34 93 Z " />
<glyph glyph-name="question" unicode="&#x3f;" horiz-adv-x="329" d="M197 155 L197 296 C229 299 242 304 257 320 C279 345 289 392 289 474 C289 621 255 674 161 674 C112 674 79 659 60 628 C46 604 41 571 40 500 L120 500 C120 556 121 566 126 579 C132 593 144 601 158 601 C193 601 206 567 206 472 C206 378 193 355 138 355 C133 355 126 355 119 356 L119 155 L197 155 Z M158 100 C128 100 104 76 104 47 C104 17 128 -7 157 -7 C187 -7 211 17 211 47 C211 76 187 100 158 100 L158 100 Z " />
<glyph glyph-name="at" unicode="&#x40;" horiz-adv-x="655" d="M485 508 L414 508 L408 473 C382 506 364 516 334 516 C251 516 188 431 188 320 C188 216 240 139 312 139 C346 139 372 155 397 193 C412 159 436 141 468 141 C555 141 628 251 628 382 C628 548 504 676 343 676 C165 676 27 527 27 334 C27 210 85 97 179 38 C228 7 288 -9 355 -9 C434 -9 489 6 568 50 L537 121 C521 112 521 112 516 108 C463 78 413 65 354 65 C304 65 259 77 225 100 C153 148 110 235 110 334 C110 487 211 604 343 604 C468 604 559 508 559 376 C559 291 519 210 477 210 C462 210 455 219 455 238 C455 251 456 267 458 282 L485 508 Z M339 446 C372 446 395 405 395 347 C395 275 357 209 316 209 C286 209 265 254 265 317 C265 390 297 446 339 446 L339 446 Z " />
<glyph glyph-name="A" unicode="A" horiz-adv-x="360" d="M146 667 L1 0 L87 0 L113 130 L245 130 L270 0 L359 0 L216 667 L146 667 Z M232 199 L125 199 L142 285 C159 373 171 453 180 537 C185 483 200 372 212 306 L232 199 Z " />
<glyph glyph-name="B" unicode="B" horiz-adv-x="364" d="M51 667 L51 0 L169 0 C275 0 326 59 326 184 C326 237 314 279 291 304 C279 318 265 326 232 339 C294 361 316 400 316 490 C316 610 270 667 173 667 L51 667 Z M136 373 L136 594 C142 595 147 595 151 595 C203 595 229 559 229 487 C229 404 206 373 142 373 L136 373 Z M136 302 C208 302 233 272 233 187 C233 142 225 113 207 96 C193 82 178 78 136 77 L136 302 Z " />
<glyph glyph-name="C" unicode="C" horiz-adv-x="337" d="M313 656 C284 672 268 676 238 676 C103 676 38 561 38 322 C38 101 105 -9 240 -9 C272 -9 287 -5 313 10 L313 92 C291 81 279 78 260 78 C175 78 133 159 133 325 C133 412 142 481 158 520 C177 565 213 592 255 592 C273 592 287 588 313 575 L313 656 Z " />
<glyph glyph-name="D" unicode="D" horiz-adv-x="411" d="M51 667 L51 0 L124 0 C222 0 273 15 309 53 C354 103 373 184 373 324 C373 472 356 550 313 606 C278 651 239 667 161 667 L51 667 Z M141 591 L152 591 C249 591 279 527 279 323 C279 130 250 78 141 78 L141 591 Z " />
<glyph glyph-name="E" unicode="E" horiz-adv-x="321" d="M51 667 L51 0 L290 0 L290 76 L141 76 L141 303 L273 303 L273 379 L141 379 L141 591 L290 591 L290 667 L51 667 Z " />
<glyph glyph-name="F" unicode="F" horiz-adv-x="309" d="M51 667 L51 0 L141 0 L141 304 L276 304 L276 380 L141 380 L141 591 L291 591 L291 667 L51 667 Z " />
<glyph glyph-name="G" unicode="G" horiz-adv-x="412" d="M211 351 L211 275 L289 275 L289 243 C289 119 268 74 211 74 C149 74 131 131 131 333 C131 538 149 597 209 597 C252 597 271 574 285 504 L369 539 C342 637 297 676 209 676 C151 676 110 655 82 610 C53 565 38 469 38 331 C38 86 87 -9 214 -9 C297 -9 345 36 362 130 C371 182 374 230 374 351 L211 351 Z " />
<glyph glyph-name="H" unicode="H" horiz-adv-x="414" d="M51 667 L51 0 L141 0 L141 330 L272 330 L272 0 L362 0 L362 667 L272 667 L272 406 L141 406 L141 667 L51 667 Z " />
<glyph glyph-name="I" unicode="I" horiz-adv-x="193" d="M51 667 L51 0 L141 0 L141 667 L51 667 Z " />
<glyph glyph-name="J" unicode="J" horiz-adv-x="259" d="M117 667 L117 186 C117 134 116 126 111 112 C103 89 83 76 58 76 C40 76 29 80 -2 99 L-2 9 C20 -3 45 -9 75 -9 C123 -9 163 10 184 42 C201 67 207 98 207 155 L207 667 L117 667 Z " />
<glyph glyph-name="K" unicode="K" horiz-adv-x="372" d="M51 667 L51 0 L141 0 L141 344 L266 0 L367 0 L225 344 L356 667 L266 667 L141 344 L141 667 L51 667 Z " />
<glyph glyph-name="L" unicode="L" horiz-adv-x="293" d="M51 667 L51 0 L288 0 L288 76 L141 76 L141 667 L51 667 Z " />
<glyph glyph-name="M" unicode="M" horiz-adv-x="504" d="M83 667 L28 0 L112 0 L138 459 C147 395 163 294 173 252 L226 0 L286 0 L342 291 L347 314 C355 361 360 391 363 403 C366 424 367 433 371 459 L372 448 L374 366 L378 277 C379 249 380 229 380 226 L395 0 L482 0 L420 667 L342 667 L290 400 L280 352 L269 279 L256 202 C256 201 255 195 254 185 C241 282 231 340 218 395 L160 667 L83 667 Z " />
<glyph glyph-name="N" unicode="N" horiz-adv-x="413" d="M51 667 L51 0 L140 0 L135 291 L134 330 C132 358 131 385 129 412 C128 435 126 458 125 480 C124 484 123 496 121 513 C124 498 127 484 129 479 C136 443 142 419 143 413 C148 395 168 327 177 300 L278 0 L362 0 L362 667 L272 667 L272 418 C274 316 278 263 293 160 C280 219 247 334 225 401 L135 667 L51 667 Z " />
<glyph glyph-name="O" unicode="O" horiz-adv-x="423" d="M210 676 C145 676 100 649 74 594 C48 540 38 472 38 349 C38 208 50 123 79 66 C103 19 153 -9 214 -9 C337 -9 385 82 385 317 C385 469 373 547 342 605 C318 650 270 676 210 676 L210 676 Z M211 595 C276 595 291 539 291 308 C291 242 287 182 280 145 C271 97 249 74 212 74 C150 74 132 131 132 331 C132 454 136 512 148 544 C161 579 181 595 211 595 L211 595 Z " />
<glyph glyph-name="P" unicode="P" horiz-adv-x="351" d="M51 667 L51 0 L141 0 L141 296 C193 296 217 299 243 309 C302 332 332 391 332 485 C332 564 309 619 266 646 C241 662 217 667 169 667 L51 667 Z M141 373 L141 591 L153 591 C212 591 239 555 239 476 C239 412 213 375 168 374 L149 373 L141 373 Z " />
<glyph glyph-name="Q" unicode="Q" horiz-adv-x="423" d="M404 -10 L347 68 C374 118 385 193 385 318 C385 582 339 676 208 676 C144 676 99 650 74 596 C47 540 38 479 38 357 C38 213 51 125 80 67 C105 19 155 -9 215 -9 C248 -9 272 -3 301 15 L347 -51 L404 -10 Z M245 212 L191 169 L248 87 C235 77 226 74 212 74 C149 74 132 132 132 354 C132 460 137 514 148 545 C161 579 180 594 209 594 C275 594 291 536 291 303 C291 243 289 206 282 159 L245 212 Z " />
<glyph glyph-name="R" unicode="R" horiz-adv-x="373" d="M51 667 L51 0 L141 0 L141 326 L263 0 L354 0 L232 324 C257 330 270 338 284 356 C310 390 324 436 324 493 C324 561 304 614 267 642 C243 661 218 667 169 667 L51 667 Z M141 593 L155 593 C184 593 200 588 212 575 C228 558 237 521 237 478 C237 435 226 403 206 387 C193 376 176 372 141 371 L141 593 Z " />
<glyph glyph-name="S" unicode="S" horiz-adv-x="330" d="M274 653 C240 671 219 676 182 676 C89 676 31 610 31 506 C31 468 39 435 54 407 C70 377 83 362 141 305 C200 247 217 216 217 168 C217 112 187 77 139 77 C110 77 87 86 52 112 L52 23 C82 0 110 -9 150 -9 C241 -9 305 64 305 168 C305 207 296 244 278 277 C266 301 251 320 211 361 C132 440 119 461 119 506 C119 558 152 595 200 595 C224 595 244 587 273 565 L274 653 Z " />
<glyph glyph-name="T" unicode="T" horiz-adv-x="289" d="M-2 667 L-2 588 L102 588 L102 0 L190 0 L190 588 L291 588 L291 667 L-2 667 Z " />
<glyph glyph-name="U" unicode="U" horiz-adv-x="409" d="M51 667 L51 196 C51 122 56 88 69 60 C92 14 137 -9 203 -9 C258 -9 298 6 324 35 C350 64 358 101 358 183 L358 667 L270 667 L270 183 C270 144 268 125 264 113 C256 88 237 76 206 76 C178 76 159 87 149 107 C142 120 139 145 139 196 L139 667 L51 667 Z " />
<glyph glyph-name="V" unicode="V" horiz-adv-x="327" d="M-2 667 L127 0 L198 0 L329 667 L245 667 L202 421 C200 410 197 394 195 375 C190 341 185 307 179 273 C175 247 171 221 167 196 C167 193 166 182 164 165 C157 221 156 225 148 279 L134 376 L127 421 L87 667 L-2 667 Z " />
<glyph glyph-name="W" unicode="W" horiz-adv-x="524" d="M1 667 L116 0 L188 0 L237 288 C238 292 241 310 245 338 C247 360 250 381 253 402 C254 407 256 430 259 466 C260 470 261 480 262 495 C267 438 269 417 271 405 L280 338 L288 288 L335 0 L405 0 L522 667 L437 667 L398 406 C388 337 376 235 370 170 C366 227 357 299 343 387 L298 667 L229 667 L181 378 C169 302 164 256 155 165 C154 179 153 186 153 187 L148 244 C145 279 144 286 133 357 L88 667 L1 667 Z " />
<glyph glyph-name="X" unicode="X" horiz-adv-x="332" d="M6 667 L125 339 L-2 0 L93 0 L132 121 L139 146 C151 181 157 202 159 208 C163 223 164 230 166 249 C171 216 179 185 200 127 L244 0 L334 0 L211 339 L334 667 L244 667 L201 530 C189 492 179 458 172 426 C171 440 159 482 140 538 L93 667 L6 667 Z " />
<glyph glyph-name="Y" unicode="Y" horiz-adv-x="341" d="M-2 667 L137 287 L137 0 L227 0 L227 287 L343 667 L249 667 L212 516 L207 493 C197 449 191 423 190 415 C186 396 184 386 180 359 C173 404 168 423 147 491 C142 504 139 514 137 522 L93 667 L-2 667 Z " />
<glyph glyph-name="Z" unicode="Z" horiz-adv-x="334" d="M35 667 L35 591 L213 591 L11 0 L317 0 L317 79 L128 79 L328 667 L35 667 Z " />
<glyph glyph-name="bracketleft" unicode="&#x5b;" horiz-adv-x="312" d="M67 733 L67 -183 L279 -183 L279 -106 L158 -106 L158 656 L279 656 L279 733 L67 733 Z " />
<glyph glyph-name="backslash" unicode="&#x5c;" horiz-adv-x="398" d="M46 733 L-23 733 L374 -183 L445 -183 L46 733 Z " />
<glyph glyph-name="bracketright" unicode="&#x5d;" horiz-adv-x="312" d="M245 -183 L245 733 L33 733 L33 656 L154 656 L154 -106 L33 -106 L33 -183 L245 -183 Z " />
<glyph glyph-name="asciicircum" unicode="&#x5e;" horiz-adv-x="500" d="M113 358 L249 601 L387 358 L480 358 L307 669 L193 669 L20 358 L113 358 Z " />
<glyph glyph-name="underscore" unicode="&#x5f;" horiz-adv-x="500" d="M0 -61 L0 -140 L500 -140 L500 -61 L0 -61 Z " />
<glyph glyph-name="grave" unicode="&#x60;" horiz-adv-x="500" d="M137 633 L225 514 L269 539 L196 671 L137 633 Z " />
<glyph glyph-name="a" unicode="a" horiz-adv-x="349" d="M302 447 L219 447 L219 397 C197 438 174 454 137 454 C101 454 70 432 54 396 C37 358 30 307 30 229 C30 66 63 -7 137 -7 C176 -7 196 9 219 58 L219 0 L302 0 L302 447 Z M169 379 C207 379 222 334 222 224 C222 112 207 68 169 68 C129 68 115 108 115 226 C115 338 129 379 169 379 L169 379 Z " />
<glyph glyph-name="b" unicode="b" horiz-adv-x="349" d="M47 733 L47 0 L130 0 L130 58 C153 9 173 -7 212 -7 C286 -7 319 66 319 229 C319 385 286 454 210 454 C173 454 153 440 130 397 L130 733 L47 733 Z M180 379 C220 379 234 339 234 221 C234 109 220 68 180 68 C142 68 128 110 128 224 C128 337 142 379 180 379 L180 379 Z " />
<glyph glyph-name="c" unicode="c" horiz-adv-x="253" d="M229 439 C204 451 189 454 164 454 C72 454 30 380 30 220 C30 68 74 -7 163 -7 C187 -7 204 -2 229 11 L229 88 C212 75 202 71 187 71 C142 71 120 122 120 227 C120 328 141 375 188 375 C206 375 216 370 229 354 L229 439 Z " />
<glyph glyph-name="d" unicode="d" horiz-adv-x="349" d="M302 733 L219 733 L219 397 C196 440 176 454 139 454 C63 454 30 385 30 229 C30 66 63 -7 137 -7 C176 -7 196 9 219 58 L219 0 L302 0 L302 733 Z M169 379 C207 379 222 334 222 224 C222 112 207 68 169 68 C129 68 115 108 115 226 C115 338 129 379 169 379 L169 379 Z " />
<glyph glyph-name="e" unicode="e" horiz-adv-x="326" d="M219 151 C218 93 201 64 168 64 C129 64 113 106 111 207 L299 207 C299 261 297 296 290 328 C272 411 230 454 165 454 C122 454 81 431 62 396 C40 356 30 302 30 222 C30 158 36 114 49 76 C68 24 111 -7 167 -7 C217 -7 260 19 279 62 C290 88 294 107 296 151 L219 151 Z M111 266 C118 357 129 384 163 384 C197 384 209 357 215 266 L111 266 Z " />
<glyph glyph-name="f" unicode="f" horiz-adv-x="217" d="M15 447 L15 382 L56 382 L56 0 L139 0 L139 382 L209 382 L209 447 L139 447 L139 566 C140 618 140 618 142 630 C146 645 160 654 178 654 C190 654 198 651 213 644 L213 731 C188 740 176 742 157 742 C122 742 95 730 78 709 C61 685 56 663 56 603 L56 447 L15 447 Z " />
<glyph glyph-name="g" unicode="g" horiz-adv-x="349" d="M220 447 L220 394 C195 439 175 454 139 454 C62 454 30 385 30 218 C30 133 39 80 59 42 C75 12 106 -7 139 -7 C177 -7 201 12 220 55 L220 -32 C220 -61 219 -73 216 -86 C210 -107 193 -119 170 -119 C134 -119 117 -96 117 -47 L37 -47 C36 -53 36 -59 36 -61 C36 -140 85 -188 167 -188 C220 -188 262 -169 283 -136 C299 -111 303 -85 303 -14 L303 447 L220 447 Z M165 379 C204 379 221 329 221 219 C221 106 209 68 172 68 C130 68 115 112 115 228 C115 333 130 379 165 379 L165 379 Z " />
<glyph glyph-name="h" unicode="h" horiz-adv-x="358" d="M47 733 L47 0 L130 0 L130 289 C130 357 144 382 181 382 C216 382 229 360 229 299 L229 0 L312 0 L312 318 C312 359 309 389 302 404 C289 435 259 454 222 454 C181 454 156 438 130 396 L130 733 L47 733 Z " />
<glyph glyph-name="i" unicode="i" horiz-adv-x="176" d="M47 447 L47 0 L130 0 L130 447 L47 447 Z M86 637 C54 637 29 612 29 581 C29 550 54 525 85 525 C116 525 141 550 141 581 C141 612 116 637 86 637 L86 637 Z " />
<glyph glyph-name="j" unicode="j" horiz-adv-x="176" d="M47 447 L47 -183 L130 -183 L130 447 L47 447 Z M86 637 C54 637 29 612 29 581 C29 550 54 525 85 525 C116 525 141 550 141 581 C141 612 116 637 86 637 L86 637 Z " />
<glyph glyph-name="k" unicode="k" horiz-adv-x="346" d="M47 733 L47 0 L130 0 L130 237 L246 0 L343 0 L214 248 L328 447 L235 447 L130 248 L130 733 L47 733 Z " />
<glyph glyph-name="l" unicode="l" horiz-adv-x="176" d="M47 733 L47 0 L130 0 L130 733 L47 733 Z " />
<glyph glyph-name="m" unicode="m" horiz-adv-x="540" d="M47 447 L47 0 L130 0 L130 294 C130 323 133 346 139 355 C147 370 164 379 182 379 C218 379 230 358 230 294 L230 0 L315 0 L315 294 C315 328 317 342 322 353 C328 369 345 379 366 379 C401 379 411 361 411 294 L411 0 L494 0 L494 356 C494 419 460 454 397 454 C354 454 328 437 304 392 C288 436 264 454 220 454 C181 454 154 436 130 392 L130 447 L47 447 Z " />
<glyph glyph-name="n" unicode="n" horiz-adv-x="358" d="M47 447 L47 0 L130 0 L130 289 C130 357 144 382 181 382 C216 382 229 360 229 299 L229 0 L312 0 L312 318 C312 359 309 389 302 404 C289 435 259 454 222 454 C181 454 156 438 130 396 L130 447 L47 447 Z " />
<glyph glyph-name="o" unicode="o" horiz-adv-x="341" d="M170 454 C75 454 30 381 30 224 C30 66 75 -7 171 -7 C265 -7 311 67 311 220 C311 382 267 454 170 454 L170 454 Z M172 379 C212 379 226 339 226 222 C226 110 212 70 173 70 C133 70 119 110 119 224 C119 339 133 379 172 379 L172 379 Z " />
<glyph glyph-name="p" unicode="p" horiz-adv-x="349" d="M47 -183 L130 -183 L130 50 C153 8 173 -7 210 -7 C286 -7 319 62 319 218 C319 381 286 454 212 454 C174 454 153 438 130 389 L130 447 L47 447 L47 -183 Z M180 379 C220 379 234 339 234 221 C234 109 220 68 180 68 C142 68 127 112 127 224 C127 335 142 379 180 379 L180 379 Z " />
<glyph glyph-name="q" unicode="q" horiz-adv-x="349" d="M302 -183 L302 447 L219 447 L219 389 C196 438 175 454 137 454 C63 454 30 381 30 218 C30 62 63 -7 139 -7 C176 -7 196 8 219 50 L219 -183 L302 -183 Z M169 379 C207 379 222 334 222 224 C222 112 207 68 169 68 C129 68 115 108 115 226 C115 338 129 379 169 379 L169 379 Z " />
<glyph glyph-name="r" unicode="r" horiz-adv-x="236" d="M47 447 L47 0 L130 0 L130 271 C130 316 134 333 151 350 C164 365 184 372 211 372 C217 372 219 372 226 371 L226 458 C183 455 154 436 130 391 L130 447 L47 447 Z " />
<glyph glyph-name="s" unicode="s" horiz-adv-x="260" d="M219 438 C193 453 173 458 145 458 C74 458 25 408 25 335 C25 282 44 252 113 198 C154 167 164 152 164 124 C164 89 143 68 108 68 C84 68 67 75 40 94 L40 14 C70 -3 85 -7 112 -7 C190 -7 240 45 240 125 C240 180 222 210 161 257 C117 290 103 309 103 333 C103 362 126 383 156 383 C178 383 199 376 219 361 L219 438 Z " />
<glyph glyph-name="t" unicode="t" horiz-adv-x="196" d="M56 572 L56 447 L11 447 L11 383 L56 383 L56 0 L139 0 L139 383 L184 383 L184 447 L139 447 L139 572 L56 572 Z " />
<glyph glyph-name="u" unicode="u" horiz-adv-x="359" d="M47 447 L47 152 C47 112 50 89 57 68 C74 17 114 -7 179 -7 C241 -7 279 13 299 55 C311 79 313 101 313 180 L313 447 L230 447 L230 180 C230 120 230 115 226 104 C221 82 206 72 181 72 C161 72 147 80 138 95 C132 107 131 116 130 180 L130 447 L47 447 Z " />
<glyph glyph-name="v" unicode="v" horiz-adv-x="300" d="M3 447 L124 0 L179 0 L296 447 L216 447 L186 306 C179 271 166 200 165 191 C161 169 158 147 155 124 L152 109 C149 158 134 265 124 306 L91 447 L3 447 Z " />
<glyph glyph-name="w" unicode="w" horiz-adv-x="449" d="M7 447 L116 0 L173 0 L207 178 C219 249 224 287 226 328 C227 317 228 308 228 304 C230 281 231 265 232 261 C235 232 238 211 246 171 L280 0 L337 0 L442 447 L361 447 L330 282 C321 236 314 180 308 126 C301 203 300 211 286 282 L257 447 L198 447 L167 282 C153 215 151 198 143 126 C135 206 132 232 119 303 L94 447 L7 447 Z " />
<glyph glyph-name="x" unicode="x" horiz-adv-x="332" d="M3 447 L115 236 L3 0 L89 0 L129 93 C145 130 155 160 157 181 C160 161 163 152 191 86 L230 0 L329 0 L206 236 L307 447 L220 447 L188 368 C175 337 169 321 163 294 C157 318 148 344 140 361 L100 447 L3 447 Z " />
<glyph glyph-name="y" unicode="y" horiz-adv-x="326" d="M3 447 L122 36 L53 -183 L140 -183 L322 447 L239 447 L162 135 L96 447 L3 447 Z " />
<glyph glyph-name="z" unicode="z" horiz-adv-x="298" d="M25 447 L25 374 L168 374 L13 0 L277 0 L277 75 L135 75 L284 447 L25 447 Z " />
<glyph glyph-name="braceleft" unicode="&#x7b;" horiz-adv-x="267" d="M177 569 C177 643 184 652 237 650 L247 650 L254 650 L254 731 C248 734 244 735 218 735 C133 735 89 684 89 585 L89 395 C88 350 78 334 46 325 C42 325 39 324 38 323 C37 323 35 321 33 319 L33 236 L38 234 L45 232 C79 223 89 206 89 158 L89 -21 C89 -134 130 -185 223 -185 C228 -185 237 -185 254 -184 L254 -103 L247 -103 L229 -103 C182 -103 179 -99 177 -19 L177 160 C176 220 168 240 133 274 C164 298 175 327 177 388 L177 569 Z " />
<glyph glyph-name="bar" unicode="&#x7c;" horiz-adv-x="500" d="M207 667 L207 -167 L294 -167 L294 667 L207 667 Z " />
<glyph glyph-name="braceright" unicode="&#x7d;" horiz-adv-x="267" d="M90 -19 C90 -90 84 -100 38 -100 C36 -100 35 -100 20 -99 L13 -99 L13 -180 C18 -184 23 -185 49 -185 C134 -185 178 -134 178 -35 L178 156 C179 201 189 216 221 225 C225 226 228 227 229 227 C230 227 232 230 234 232 L234 315 L229 316 L222 318 C188 328 178 344 178 393 L178 572 C178 684 137 735 44 735 C37 735 37 735 19 734 L13 734 L13 653 L38 653 C84 654 89 645 90 570 L90 391 C91 331 99 310 134 276 C103 253 92 223 90 163 L90 -19 Z " />
<glyph glyph-name="asciitilde" unicode="&#x7e;" horiz-adv-x="667" d="M144 576 C170 626 193 645 226 645 C241 645 263 640 284 631 C374 592 399 584 425 584 C456 584 489 596 514 616 C537 635 552 656 575 703 L522 734 C493 686 473 671 436 671 C414 671 402 675 343 700 C290 723 260 732 233 732 C190 732 156 714 129 676 C117 660 110 646 92 609 L144 576 Z " />
<glyph glyph-name="uni00A0" unicode="&#xa0;" horiz-adv-x="186" d="" />
<glyph glyph-name="exclamdown" unicode="&#xa1;" horiz-adv-x="246" d="M124 489 C94 489 70 466 70 436 C70 407 94 383 123 383 C152 383 176 407 176 436 C176 465 152 489 124 489 L124 489 Z M80 -183 L167 -183 L167 323 L80 323 L80 -183 Z " />
<glyph glyph-name="cent" unicode="&#xa2;" horiz-adv-x="379" d="M204 623 L204 561 C166 550 149 538 133 513 C107 472 96 415 96 331 C96 244 107 188 132 149 C148 125 168 112 210 101 L210 45 L249 45 L249 103 C267 105 269 105 286 114 L286 187 C269 180 262 178 252 178 C207 178 185 230 185 334 C185 437 206 482 253 482 C268 482 274 480 286 471 L286 549 C269 556 266 556 245 559 L245 623 L204 623 Z " />
<glyph glyph-name="sterling" unicode="&#xa3;" horiz-adv-x="380" d="M280 302 L189 302 C185 312 185 313 182 319 C169 349 168 351 162 366 C136 429 124 477 124 515 C124 567 158 603 207 603 C256 603 277 575 277 510 L347 543 C341 628 292 676 210 676 C106 676 44 610 44 500 C44 445 56 401 97 312 L102 302 L43 302 L43 241 L125 241 C136 212 139 198 139 177 C139 152 135 137 121 110 L108 111 C68 111 32 77 26 32 L93 5 C99 24 109 34 123 34 C134 34 150 29 167 20 C208 -1 233 -9 259 -9 C302 -9 332 17 352 73 L280 96 C272 75 263 66 249 66 C235 66 227 70 187 91 C203 125 210 154 210 193 C210 210 209 222 204 241 L280 241 L280 302 Z " />
<glyph glyph-name="currency" unicode="&#xa4;" horiz-adv-x="667" d="M45 128 L94 78 L191 174 C242 140 284 126 335 126 C386 126 431 142 477 175 L575 78 L624 128 L526 226 C560 274 574 315 574 365 C574 416 560 456 526 507 L622 603 L572 653 L475 557 C427 591 386 605 334 605 C282 605 241 591 191 556 L93 653 L43 603 L141 506 C107 458 93 417 93 366 C93 314 109 268 142 225 L45 128 Z M336 525 C420 525 491 452 491 365 C491 277 421 206 334 206 C247 206 176 277 176 365 C176 454 246 525 336 525 L336 525 Z " />
<glyph glyph-name="yen" unicode="&#xa5;" horiz-adv-x="380" d="M364 424 L283 424 L357 667 L263 667 L226 516 L221 492 C218 481 215 469 213 457 C208 437 205 423 204 415 C200 396 198 386 194 358 C187 404 182 423 161 490 C157 503 153 514 151 521 L107 667 L12 667 L101 424 L16 424 L16 369 L121 369 L140 317 L16 317 L16 262 L151 262 L151 0 L241 0 L241 262 L364 262 L364 317 L250 317 L266 369 L364 369 L364 424 Z " />
<glyph glyph-name="brokenbar" unicode="&#xa6;" horiz-adv-x="500" d="M207 667 L207 330 L294 330 L294 667 L207 667 Z M207 153 L207 -167 L294 -167 L294 153 L207 153 Z " />
<glyph glyph-name="section" unicode="&#xa7;" horiz-adv-x="380" d="M327 593 C322 642 319 655 305 679 C282 718 239 742 192 742 C114 742 59 682 59 598 C59 540 75 508 131 455 C99 436 82 422 71 404 C52 374 40 327 40 280 C40 223 55 171 81 137 C97 116 112 106 164 78 C228 44 250 14 250 -36 C250 -87 226 -121 190 -121 C166 -121 147 -108 138 -84 C132 -68 131 -63 129 -26 L54 -26 C59 -73 61 -86 72 -109 C94 -157 138 -186 190 -186 C268 -186 323 -125 323 -39 C323 18 300 66 260 95 L253 99 L258 101 C308 122 339 188 339 273 C339 328 328 376 309 405 C292 430 283 437 212 483 C151 522 132 549 132 594 C132 642 157 677 191 677 C227 677 244 653 251 593 L327 593 Z M189 410 C240 410 266 362 266 266 C266 185 240 144 189 144 C140 144 113 191 113 277 C113 360 141 410 189 410 L189 410 Z " />
<glyph glyph-name="dieresis" unicode="&#xa8;" horiz-adv-x="500" d="M175 617 C147 617 124 595 124 567 C124 539 146 517 174 517 C202 517 224 539 224 567 C224 594 202 617 175 617 L175 617 Z M326 617 C298 617 275 595 275 567 C275 539 297 517 325 517 C353 517 375 539 375 567 C375 594 353 617 326 617 L326 617 Z " />
<glyph glyph-name="copyright" unicode="&#xa9;" horiz-adv-x="757" d="M450 525 C427 536 418 538 397 538 C309 538 266 469 266 326 C266 194 310 128 399 128 C421 128 429 130 450 142 L450 204 C423 192 423 192 410 192 C361 192 338 236 338 330 C338 430 360 476 407 476 C419 476 425 474 450 463 L450 525 Z M383 680 C187 680 33 527 33 333 C33 142 188 -13 378 -13 C569 -13 723 142 723 333 C723 523 569 680 383 680 L383 680 Z M382 631 C539 631 669 496 669 334 C669 169 539 36 378 36 C217 36 86 170 86 333 C86 500 216 631 382 631 L382 631 Z " />
<glyph glyph-name="ordfeminine" unicode="&#xaa;" horiz-adv-x="267" d="M34 276 L234 276 L234 328 L34 328 L34 276 Z M215 361 L215 668 L154 668 L154 656 L150 658 C134 667 119 672 111 672 C99 672 76 661 66 649 C48 629 38 582 38 515 C38 451 47 404 63 383 C73 370 97 357 111 357 C119 357 133 362 150 371 L154 373 L154 361 L215 361 Z M129 618 C150 618 157 592 157 518 C157 437 150 411 129 411 C108 411 100 441 100 523 C100 589 109 618 129 618 L129 618 Z " />
<glyph glyph-name="guillemotleft" unicode="&#xab;" horiz-adv-x="326" d="M292 406 L253 430 L139 234 L244 36 L283 57 L191 234 L292 406 Z M185 406 L145 430 L33 234 L136 36 L178 57 L83 234 L185 406 Z " />
<glyph glyph-name="logicalnot" unicode="&#xac;" horiz-adv-x="500" d="M379 0 L466 0 L466 267 L33 267 L33 186 L379 186 L379 0 Z " />
<glyph glyph-name="uni00AD" unicode="&#xad;" horiz-adv-x="157" d="M0 262 L0 195 L157 195 L157 262 L0 262 Z " />
<glyph glyph-name="registered" unicode="&#xae;" horiz-adv-x="757" d="M276 533 L276 133 L345 133 L345 294 L409 133 L480 133 L404 323 C437 333 458 373 458 425 C458 498 424 533 356 533 L276 533 Z M345 477 C380 477 391 462 391 417 C391 378 379 363 345 362 L345 477 Z M383 680 C187 680 33 527 33 333 C33 142 188 -13 378 -13 C569 -13 723 142 723 333 C723 523 569 680 383 680 L383 680 Z M382 631 C539 631 669 496 669 334 C669 169 539 36 378 36 C217 36 86 170 86 333 C86 500 216 631 382 631 L382 631 Z " />
<glyph glyph-name="macron" unicode="&#xaf;" horiz-adv-x="499" d="M141 536 L359 536 L359 598 L141 598 L141 536 Z " />
<glyph glyph-name="degree" unicode="&#xb0;" horiz-adv-x="380" d="M192 674 C104 674 35 607 35 522 C35 439 105 371 190 371 C276 371 345 439 345 523 C345 606 276 674 192 674 L192 674 Z M191 609 C237 609 275 570 275 523 C275 476 237 437 190 437 C143 437 105 476 105 523 C105 571 143 609 191 609 L191 609 Z " />
<glyph glyph-name="plusminus" unicode="&#xb1;" horiz-adv-x="380" d="M34 304 L153 304 L153 186 L228 186 L228 304 L346 304 L346 378 L228 378 L228 495 L153 495 L153 378 L34 378 L34 304 Z M34 90 L346 90 L346 164 L34 164 L34 90 Z " />
<glyph glyph-name="twosuperior" unicode="&#xb2;" horiz-adv-x="253" d="M97 532 C96 544 96 550 96 562 C96 602 105 619 128 619 C149 619 161 602 161 574 C161 537 145 496 89 388 C65 342 48 308 36 286 C33 280 30 274 27 267 L220 267 L220 319 L118 319 C121 324 121 324 128 336 C162 397 162 397 169 411 C208 484 224 532 224 572 C224 639 192 672 128 672 C60 672 34 638 34 552 C34 549 34 541 35 532 L97 532 Z " />
<glyph glyph-name="threesuperior" unicode="&#xb3;" horiz-adv-x="253" d="M99 555 C98 561 98 569 98 571 C98 602 108 619 127 619 C148 619 157 601 157 561 C157 514 146 501 105 501 L93 501 L93 448 C102 449 107 450 111 450 C144 450 158 432 158 387 C158 334 148 315 121 315 C102 315 88 333 89 356 C89 360 90 366 91 372 L31 372 C30 366 30 361 30 359 C30 295 61 262 120 262 C190 262 222 300 222 381 C222 436 210 460 177 473 C207 487 217 511 217 566 C217 640 189 672 125 672 C64 672 38 641 38 568 L38 555 L99 555 Z " />
<glyph glyph-name="acute" unicode="&#xb4;" horiz-adv-x="500" d="M363 633 L304 671 L231 539 L275 514 L363 633 Z " />
<glyph glyph-name="mu" unicode="&#xb5;" horiz-adv-x="359" d="M130 -183 L120 9 C144 -3 162 -7 188 -7 C241 -7 280 15 299 55 C311 79 313 101 313 180 L313 447 L230 447 L230 180 C230 120 230 115 226 104 C221 82 206 72 181 72 C144 72 131 92 131 148 C130 153 130 158 130 164 L130 179 L130 447 L47 447 L47 -183 L130 -183 Z " />
<glyph glyph-name="paragraph" unicode="&#xb6;" horiz-adv-x="380" d="M123 -99 L198 -99 L198 590 L260 590 L260 -99 L335 -99 L335 590 L373 590 L373 667 L145 667 C57 667 8 606 8 495 C8 424 31 370 69 348 C85 339 90 338 123 338 L123 -99 Z " />
<glyph glyph-name="periodcentered" unicode="&#xb7;" horiz-adv-x="187" d="M94 287 C64 287 40 264 40 234 C40 204 64 180 94 180 C123 180 147 204 147 234 C147 263 123 287 94 287 L94 287 Z " />
<glyph glyph-name="cedilla" unicode="&#xb8;" horiz-adv-x="500" d="M268 -45 L213 -171 L251 -190 L327 -73 L268 -45 Z " />
<glyph glyph-name="onesuperior" unicode="&#xb9;" horiz-adv-x="252" d="M68 667 L68 615 L109 615 L109 267 L170 267 L170 667 L68 667 Z " />
<glyph glyph-name="ordmasculine" unicode="&#xba;" horiz-adv-x="267" d="M34 276 L234 276 L234 328 L34 328 L34 276 Z M136 672 C74 672 40 617 40 515 C40 413 73 358 136 358 C196 358 228 411 228 511 C228 619 198 672 136 672 L136 672 Z M135 614 C154 614 165 577 165 514 C165 452 154 416 134 416 C114 416 102 452 102 513 C102 578 113 614 135 614 L135 614 Z " />
<glyph glyph-name="guillemotright" unicode="&#xbb;" horiz-adv-x="326" d="M33 406 L135 234 L42 57 L81 36 L187 234 L73 430 L33 406 Z M141 406 L243 234 L148 57 L189 36 L292 234 L181 430 L141 406 Z " />
<glyph glyph-name="onequarter" unicode="&#xbc;" horiz-adv-x="630" d="M68 667 L68 615 L109 615 L109 267 L170 267 L170 667 L68 667 Z M453 667 L122 0 L177 0 L508 667 L453 667 Z M518 400 L401 157 L401 108 L517 108 L517 0 L576 0 L576 108 L603 108 L603 155 L576 155 L576 400 L518 400 Z M517 155 L454 155 L517 300 L517 155 Z " />
<glyph glyph-name="onehalf" unicode="&#xbd;" horiz-adv-x="631" d="M68 667 L68 615 L109 615 L109 267 L170 267 L170 667 L68 667 Z M453 667 L122 0 L177 0 L508 667 L453 667 Z M475 265 C474 277 474 283 474 294 C474 335 483 351 506 351 C527 351 539 334 539 306 C539 270 524 230 467 121 C448 85 430 50 414 19 C411 12 408 6 405 0 L598 0 L598 52 L496 52 C499 57 499 57 506 69 C540 130 540 130 547 143 C586 217 602 265 602 304 C602 371 570 404 506 404 C438 404 412 371 412 285 C412 282 412 274 413 265 L475 265 Z " />
<glyph glyph-name="threequarters" unicode="&#xbe;" horiz-adv-x="631" d="M99 555 C98 561 98 569 98 571 C98 602 108 619 127 619 C148 619 157 601 157 561 C157 514 146 501 105 501 L93 501 L93 448 C102 449 107 450 111 450 C144 450 158 432 158 387 C158 334 148 315 121 315 C102 315 88 333 89 356 C89 360 90 366 91 372 L31 372 C30 366 30 361 30 359 C30 295 61 262 120 262 C190 262 222 300 222 381 C222 436 210 460 177 473 C207 487 217 511 217 566 C217 640 189 672 125 672 C64 672 38 641 38 568 L38 555 L99 555 Z M454 667 L123 0 L178 0 L508 667 L454 667 Z M519 400 L402 157 L402 108 L518 108 L518 0 L577 0 L577 108 L603 108 L603 155 L577 155 L577 400 L519 400 Z M518 155 L455 155 L518 300 L518 155 Z " />
<glyph glyph-name="questiondown" unicode="&#xbf;" horiz-adv-x="329" d="M132 328 L132 187 C100 184 86 179 72 163 C50 138 40 91 40 9 C40 -138 73 -190 168 -190 C218 -190 251 -175 269 -145 C284 -121 289 -87 290 -17 L210 -17 C210 -72 209 -83 203 -95 C197 -109 186 -117 171 -117 C136 -117 123 -83 123 12 C123 105 136 128 191 128 C196 128 204 128 211 127 L211 328 L132 328 Z M172 490 C142 490 118 466 118 437 C118 407 142 383 172 383 C201 383 225 407 225 437 C225 466 201 490 172 490 L172 490 Z " />
<glyph glyph-name="Agrave" unicode="&#xc0;" horiz-adv-x="360" d="M146 667 L1 0 L87 0 L113 130 L245 130 L270 0 L359 0 L216 667 L146 667 Z M232 199 L125 199 L142 285 C159 373 171 453 180 537 C185 483 200 372 212 306 L232 199 Z M124 854 L77 802 L185 727 L217 763 L124 854 Z " />
<glyph glyph-name="Aacute" unicode="&#xc1;" horiz-adv-x="360" d="M146 667 L1 0 L87 0 L113 130 L245 130 L270 0 L359 0 L216 667 L146 667 Z M232 199 L125 199 L142 285 C159 373 171 453 180 537 C185 483 200 372 212 306 L232 199 Z M237 854 L144 763 L176 727 L284 802 L237 854 Z " />
<glyph glyph-name="Acircumflex" unicode="&#xc2;" horiz-adv-x="360" d="M146 667 L1 0 L87 0 L113 130 L245 130 L270 0 L359 0 L216 667 L146 667 Z M232 199 L125 199 L142 285 C159 373 171 453 180 537 C185 483 200 372 212 306 L232 199 Z M180 865 L70 768 L106 727 L180 789 L254 727 L291 773 L180 865 Z " />
<glyph glyph-name="Atilde" unicode="&#xc3;" horiz-adv-x="360" d="M146 667 L1 0 L87 0 L113 130 L245 130 L270 0 L359 0 L216 667 L146 667 Z M232 199 L125 199 L142 285 C159 373 171 453 180 537 C185 483 200 372 212 306 L232 199 Z M243 818 C243 801 238 794 229 794 C221 794 211 797 189 807 C154 823 148 825 134 825 C95 825 73 793 71 736 L122 736 C123 753 128 760 139 760 C149 760 161 756 179 747 C208 732 215 730 229 730 C270 730 295 763 295 818 L243 818 Z " />
<glyph glyph-name="Adieresis" unicode="&#xc4;" horiz-adv-x="360" d="M146 667 L1 0 L87 0 L113 130 L245 130 L270 0 L359 0 L216 667 L146 667 Z M232 199 L125 199 L142 285 C159 373 171 453 180 537 C185 483 200 372 212 306 L232 199 Z M98 833 C70 833 48 811 48 784 C48 756 70 734 98 734 C125 734 147 756 147 784 C147 811 125 833 98 833 L98 833 Z M263 833 C235 833 213 811 213 784 C213 756 235 734 263 734 C290 734 312 756 312 784 C312 811 290 833 263 833 L263 833 Z " />
<glyph glyph-name="Aring" unicode="&#xc5;" horiz-adv-x="360" d="M146 667 L1 0 L87 0 L113 130 L245 130 L270 0 L359 0 L216 667 L146 667 Z M232 199 L125 199 L142 285 C159 373 171 453 180 537 C185 483 200 372 212 306 L232 199 Z M181 872 C140 872 107 840 107 800 C107 759 140 726 180 726 C220 726 253 759 253 799 C253 839 220 872 181 872 L181 872 Z M180 827 C195 827 208 814 208 799 C208 784 196 771 180 771 C164 771 152 783 152 799 C152 815 165 827 180 827 L180 827 Z " />
<glyph glyph-name="AE" unicode="&#xc6;" horiz-adv-x="511" d="M142 667 L1 0 L88 0 L113 131 L251 131 L278 0 L509 0 L492 76 L350 76 L299 303 L430 303 L413 379 L281 379 L235 591 L380 591 L364 667 L142 667 Z M239 198 L126 198 L143 289 C160 377 179 506 180 540 C187 465 194 415 207 351 L239 198 Z " />
<glyph glyph-name="Ccedilla" unicode="&#xc7;" horiz-adv-x="337" d="M313 656 C284 672 268 676 238 676 C103 676 38 561 38 322 C38 101 105 -9 240 -9 C272 -9 287 -5 313 10 L313 92 C291 81 279 78 260 78 C175 78 133 159 133 325 C133 412 142 481 158 520 C177 565 213 592 255 592 C273 592 287 588 313 575 L313 656 Z M194 -41 L140 -167 L183 -189 L256 -71 L194 -41 Z " />
<glyph glyph-name="Egrave" unicode="&#xc8;" horiz-adv-x="321" d="M51 667 L51 0 L290 0 L290 76 L141 76 L141 303 L273 303 L273 379 L141 379 L141 591 L290 591 L290 667 L51 667 Z M131 854 L84 802 L192 727 L224 763 L131 854 Z " />
<glyph glyph-name="Eacute" unicode="&#xc9;" horiz-adv-x="321" d="M51 667 L51 0 L290 0 L290 76 L141 76 L141 303 L273 303 L273 379 L141 379 L141 591 L290 591 L290 667 L51 667 Z M217 854 L124 763 L157 727 L264 802 L217 854 Z " />
<glyph glyph-name="Ecircumflex" unicode="&#xca;" horiz-adv-x="321" d="M51 667 L51 0 L290 0 L290 76 L141 76 L141 303 L273 303 L273 379 L141 379 L141 591 L290 591 L290 667 L51 667 Z M170 865 L60 768 L96 727 L170 789 L243 727 L281 773 L170 865 Z " />
<glyph glyph-name="Edieresis" unicode="&#xcb;" horiz-adv-x="321" d="M52 667 L52 0 L290 0 L290 76 L142 76 L142 303 L274 303 L274 379 L142 379 L142 591 L290 591 L290 667 L52 667 Z M89 833 C61 833 39 811 39 784 C39 756 61 734 89 734 C116 734 138 756 138 784 C138 811 116 833 89 833 L89 833 Z M254 833 C226 833 204 811 204 784 C204 756 226 734 254 734 C281 734 303 756 303 784 C303 811 281 833 254 833 L254 833 Z " />
<glyph glyph-name="Igrave" unicode="&#xcc;" horiz-adv-x="193" d="M51 667 L51 0 L141 0 L141 667 L51 667 Z M40 854 L-7 802 L101 727 L133 763 L40 854 Z " />
<glyph glyph-name="Iacute" unicode="&#xcd;" horiz-adv-x="193" d="M51 667 L51 0 L141 0 L141 667 L51 667 Z M153 854 L60 763 L92 727 L200 802 L153 854 Z " />
<glyph glyph-name="Icircumflex" unicode="&#xce;" horiz-adv-x="193" d="M51 667 L51 0 L141 0 L141 667 L51 667 Z M96 865 L-14 768 L22 727 L96 789 L170 727 L207 773 L96 865 Z " />
<glyph glyph-name="Idieresis" unicode="&#xcf;" horiz-adv-x="193" d="M52 667 L52 0 L142 0 L142 667 L52 667 Z M32 833 C4 833 -18 811 -18 784 C-18 756 4 734 32 734 C59 734 81 756 81 784 C81 811 59 833 32 833 L32 833 Z M163 833 C135 833 113 811 113 784 C113 756 135 734 163 734 C190 734 212 756 212 784 C212 811 190 833 163 833 L163 833 Z " />
<glyph glyph-name="Eth" unicode="&#xd0;" horiz-adv-x="411" d="M51 667 L51 399 L1 399 L1 330 L51 330 L51 0 L124 0 C222 0 273 15 309 53 C354 103 373 183 373 324 C373 471 356 550 313 606 C278 651 239 667 162 667 L51 667 Z M141 330 L228 330 L228 399 L141 399 L141 591 L152 591 C249 591 279 527 279 323 C279 130 250 78 141 78 L141 330 Z " />
<glyph glyph-name="Ntilde" unicode="&#xd1;" horiz-adv-x="413" d="M51 667 L51 0 L140 0 L135 291 L134 330 C132 358 131 385 129 412 C128 435 126 458 125 480 C124 484 123 496 121 513 C124 498 127 484 129 479 C136 443 142 419 143 413 C148 395 168 327 177 300 L278 0 L362 0 L362 667 L272 667 L272 418 C274 316 278 263 293 160 C280 219 247 334 225 401 L135 667 L51 667 Z M267 818 C266 801 262 794 252 794 C244 794 234 797 212 807 C177 823 171 825 157 825 C119 825 96 793 94 736 L145 736 C146 753 151 760 162 760 C172 760 184 756 202 747 C231 732 238 730 252 730 C293 730 319 763 318 818 L267 818 Z " />
<glyph glyph-name="Ograve" unicode="&#xd2;" horiz-adv-x="423" d="M210 676 C145 676 100 649 74 594 C48 540 38 472 38 349 C38 208 50 123 79 66 C103 19 153 -9 214 -9 C337 -9 385 82 385 317 C385 469 373 547 342 605 C318 650 270 676 210 676 L210 676 Z M211 595 C276 595 291 539 291 308 C291 242 287 182 280 145 C271 97 249 74 212 74 C150 74 132 131 132 331 C132 454 136 512 148 544 C161 579 181 595 211 595 L211 595 Z M162 854 L115 802 L223 727 L255 763 L162 854 Z " />
<glyph glyph-name="Oacute" unicode="&#xd3;" horiz-adv-x="423" d="M210 676 C145 676 100 649 74 594 C48 540 38 472 38 349 C38 208 50 123 79 66 C103 19 153 -9 214 -9 C337 -9 385 82 385 317 C385 469 373 547 342 605 C318 650 270 676 210 676 L210 676 Z M211 595 C276 595 291 539 291 308 C291 242 287 182 280 145 C271 97 249 74 212 74 C150 74 132 131 132 331 C132 454 136 512 148 544 C161 579 181 595 211 595 L211 595 Z M262 854 L169 763 L201 727 L309 802 L262 854 Z " />
<glyph glyph-name="Ocircumflex" unicode="&#xd4;" horiz-adv-x="423" d="M210 676 C145 676 100 649 74 594 C48 540 38 472 38 349 C38 208 50 123 79 66 C103 19 153 -9 214 -9 C337 -9 385 82 385 317 C385 469 373 547 342 605 C318 650 270 676 210 676 L210 676 Z M211 595 C276 595 291 539 291 308 C291 242 287 182 280 145 C271 97 249 74 212 74 C150 74 132 131 132 331 C132 454 136 512 148 544 C161 579 181 595 211 595 L211 595 Z M212 865 L102 768 L138 727 L212 789 L285 727 L322 773 L212 865 Z " />
<glyph glyph-name="Otilde" unicode="&#xd5;" horiz-adv-x="423" d="M210 676 C145 676 100 649 74 594 C48 540 38 472 38 349 C38 208 50 123 79 66 C103 19 153 -9 214 -9 C337 -9 385 82 385 317 C385 469 373 547 342 605 C318 650 270 676 210 676 L210 676 Z M211 595 C276 595 291 539 291 308 C291 242 287 182 280 145 C271 97 249 74 212 74 C150 74 132 131 132 331 C132 454 136 512 148 544 C161 579 181 595 211 595 L211 595 Z M278 818 C278 801 273 794 263 794 C256 794 246 797 224 807 C188 823 183 825 169 825 C130 825 108 793 106 736 L157 736 C158 753 163 760 174 760 C184 760 196 756 214 747 C243 732 250 730 264 730 C305 730 330 763 330 818 L278 818 Z " />
<glyph glyph-name="Odieresis" unicode="&#xd6;" horiz-adv-x="423" d="M210 676 C145 676 100 649 74 594 C48 540 38 472 38 349 C38 208 50 123 79 66 C103 19 153 -9 214 -9 C337 -9 385 82 385 317 C385 469 373 547 342 605 C318 650 270 676 210 676 L210 676 Z M211 595 C276 595 291 539 291 308 C291 242 287 182 280 145 C271 97 249 74 212 74 C150 74 132 131 132 331 C132 454 136 512 148 544 C161 579 181 595 211 595 L211 595 Z M129 833 C101 833 79 811 79 784 C79 756 101 734 129 734 C156 734 178 756 178 784 C178 811 156 833 129 833 L129 833 Z M295 833 C267 833 245 811 245 784 C245 756 267 734 295 734 C322 734 344 756 344 784 C344 811 322 833 295 833 L295 833 Z " />
<glyph glyph-name="multiply" unicode="&#xd7;" horiz-adv-x="380" d="M49 433 L138 344 L49 256 L101 204 L190 293 L278 204 L331 256 L242 345 L330 434 L279 485 L190 397 L101 486 L49 433 Z " />
<glyph glyph-name="Oslash" unicode="&#xd8;" horiz-adv-x="423" d="M360 684 L329 622 C299 660 263 676 209 676 C84 676 37 590 37 356 C37 244 45 165 61 112 L7 3 L57 -24 L92 47 C120 11 164 -9 216 -9 C279 -9 324 19 349 73 C375 128 384 197 384 329 C384 435 379 486 361 557 L411 656 L360 684 Z M135 231 C132 268 131 286 131 343 C131 457 135 515 146 545 C158 579 179 595 210 595 C244 595 264 578 272 541 L135 231 Z M287 435 C289 352 290 328 290 300 C290 240 286 179 280 144 C271 96 250 74 213 74 C183 74 160 92 148 126 L287 435 Z " />
<glyph glyph-name="Ugrave" unicode="&#xd9;" horiz-adv-x="409" d="M51 667 L51 196 C51 122 56 88 69 60 C92 14 137 -9 203 -9 C258 -9 298 6 324 35 C350 64 358 101 358 183 L358 667 L270 667 L270 183 C270 144 268 125 264 113 C256 88 237 76 206 76 C178 76 159 87 149 107 C142 120 139 145 139 196 L139 667 L51 667 Z M155 854 L108 802 L216 727 L248 763 L155 854 Z " />
<glyph glyph-name="Uacute" unicode="&#xda;" horiz-adv-x="409" d="M51 667 L51 196 C51 122 56 88 69 60 C92 14 137 -9 203 -9 C258 -9 298 6 324 35 C350 64 358 101 358 183 L358 667 L270 667 L270 183 C270 144 268 125 264 113 C256 88 237 76 206 76 C178 76 159 87 149 107 C142 120 139 145 139 196 L139 667 L51 667 Z M261 854 L168 763 L201 727 L308 802 L261 854 Z " />
<glyph glyph-name="Ucircumflex" unicode="&#xdb;" horiz-adv-x="409" d="M51 667 L51 196 C51 122 56 88 69 60 C92 14 137 -9 203 -9 C258 -9 298 6 324 35 C350 64 358 101 358 183 L358 667 L270 667 L270 183 C270 144 268 125 264 113 C256 88 237 76 206 76 C178 76 159 87 149 107 C142 120 139 145 139 196 L139 667 L51 667 Z M205 865 L95 768 L131 727 L205 789 L278 727 L315 773 L205 865 Z " />
<glyph glyph-name="Udieresis" unicode="&#xdc;" horiz-adv-x="409" d="M51 667 L51 196 C51 122 56 88 69 60 C92 14 137 -9 203 -9 C258 -9 298 6 324 35 C350 64 358 101 358 183 L358 667 L270 667 L270 183 C270 144 268 125 264 113 C256 88 237 76 206 76 C178 76 159 87 149 107 C142 120 139 145 139 196 L139 667 L51 667 Z M122 833 C94 833 72 811 72 784 C72 756 94 734 122 734 C149 734 171 756 171 784 C171 811 149 833 122 833 L122 833 Z M288 833 C260 833 238 811 238 784 C238 756 260 734 288 734 C315 734 337 756 337 784 C337 811 315 833 288 833 L288 833 Z " />
<glyph glyph-name="Yacute" unicode="&#xdd;" horiz-adv-x="341" d="M-2 667 L137 287 L137 0 L227 0 L227 287 L343 667 L249 667 L212 516 L207 493 C197 449 191 423 190 415 C186 396 184 386 180 359 C173 404 168 423 147 491 C142 504 139 514 137 522 L93 667 L-2 667 Z M234 854 L141 763 L173 727 L281 802 L234 854 Z " />
<glyph glyph-name="Thorn" unicode="&#xde;" horiz-adv-x="351" d="M51 667 L51 0 L141 0 L141 202 C194 203 218 206 243 216 C302 239 332 298 332 392 C332 471 309 526 266 553 C241 569 217 574 169 574 L141 574 L141 667 L51 667 Z M141 279 L141 498 L153 498 C212 498 239 462 239 383 C239 309 213 279 149 279 L141 279 Z " />
<glyph glyph-name="germandbls" unicode="&#xdf;" horiz-adv-x="365" d="M130 0 L130 575 C130 615 132 632 140 647 C147 661 164 670 182 670 C220 670 235 646 235 584 C235 518 218 493 171 493 L160 493 L160 418 C197 417 216 408 229 384 C241 361 244 328 244 237 C244 109 231 76 181 76 L169 76 L169 0 L201 -1 C309 -1 335 47 335 247 C335 402 322 437 258 456 C301 474 320 515 320 593 C320 704 279 751 181 751 C131 751 99 739 77 712 C54 684 47 655 47 593 L47 0 L130 0 Z " />
<glyph glyph-name="agrave" unicode="&#xe0;" horiz-adv-x="349" d="M302 447 L219 447 L219 397 C197 438 174 454 137 454 C101 454 70 432 54 396 C37 358 30 307 30 229 C30 66 63 -7 137 -7 C176 -7 196 9 219 58 L219 0 L302 0 L302 447 Z M169 379 C207 379 222 334 222 224 C222 112 207 68 169 68 C129 68 115 108 115 226 C115 338 129 379 169 379 L169 379 Z M89 633 L177 514 L221 539 L148 671 L89 633 Z " />
<glyph glyph-name="aacute" unicode="&#xe1;" horiz-adv-x="349" d="M302 447 L219 447 L219 397 C197 438 174 454 137 454 C101 454 70 432 54 396 C37 358 30 307 30 229 C30 66 63 -7 137 -7 C176 -7 196 9 219 58 L219 0 L302 0 L302 447 Z M169 379 C207 379 222 334 222 224 C222 112 207 68 169 68 C129 68 115 108 115 226 C115 338 129 379 169 379 L169 379 Z M268 633 L208 671 L136 539 L180 514 L268 633 Z " />
<glyph glyph-name="acircumflex" unicode="&#xe2;" horiz-adv-x="349" d="M302 447 L219 447 L219 397 C197 438 174 454 137 454 C101 454 70 432 54 396 C37 358 30 307 30 229 C30 66 63 -7 137 -7 C176 -7 196 9 219 58 L219 0 L302 0 L302 447 Z M169 379 C207 379 222 334 222 224 C222 112 207 68 169 68 C129 68 115 108 115 226 C115 338 129 379 169 379 L169 379 Z M176 671 L65 548 L111 514 L175 587 L244 514 L285 548 L176 671 Z " />
<glyph glyph-name="atilde" unicode="&#xe3;" horiz-adv-x="349" d="M302 447 L219 447 L219 397 C197 438 174 454 137 454 C101 454 70 432 54 396 C37 358 30 307 30 229 C30 66 63 -7 137 -7 C176 -7 196 9 219 58 L219 0 L302 0 L302 447 Z M169 379 C207 379 222 334 222 224 C222 112 207 68 169 68 C129 68 115 108 115 226 C115 338 129 379 169 379 L169 379 Z M239 608 C236 588 232 582 221 582 C214 582 202 586 191 592 C163 607 151 611 134 611 C91 611 71 585 66 524 L118 524 C120 541 126 548 138 548 C147 548 152 546 182 531 C199 523 209 520 223 520 C266 520 284 543 289 608 L239 608 Z " />
<glyph glyph-name="adieresis" unicode="&#xe4;" horiz-adv-x="349" d="M302 447 L219 447 L219 397 C197 438 174 454 137 454 C101 454 70 432 54 396 C37 358 30 307 30 229 C30 66 63 -7 137 -7 C176 -7 196 9 219 58 L219 0 L302 0 L302 447 Z M169 379 C207 379 222 334 222 224 C222 112 207 68 169 68 C129 68 115 108 115 226 C115 338 129 379 169 379 L169 379 Z M99 617 C71 617 48 595 48 567 C48 539 70 517 98 517 C126 517 148 539 148 567 C148 594 126 617 99 617 L99 617 Z M251 617 C223 617 200 595 200 567 C200 539 222 517 250 517 C278 517 300 539 300 567 C300 594 278 617 251 617 L251 617 Z " />
<glyph glyph-name="aring" unicode="&#xe5;" horiz-adv-x="349" d="M302 447 L219 447 L219 397 C197 438 174 454 137 454 C101 454 70 432 54 396 C37 358 30 307 30 229 C30 66 63 -7 137 -7 C176 -7 196 9 219 58 L219 0 L302 0 L302 447 Z M169 379 C207 379 222 334 222 224 C222 112 207 68 169 68 C129 68 115 108 115 226 C115 338 129 379 169 379 L169 379 Z M177 649 C136 649 104 618 104 578 C104 538 136 506 176 506 C215 506 247 538 247 578 C247 617 215 649 177 649 L177 649 Z M176 608 C192 608 205 594 205 579 C205 562 192 549 176 549 C159 549 146 562 146 579 C146 595 159 608 176 608 L176 608 Z " />
<glyph glyph-name="ae" unicode="&#xe6;" horiz-adv-x="505" d="M52 348 C82 367 106 374 135 374 C162 374 183 366 194 353 C203 342 207 327 208 297 C209 291 209 277 210 259 C193 279 171 288 140 288 C69 288 30 233 30 135 C30 42 68 -7 140 -7 C190 -7 217 12 240 63 C260 14 292 -7 346 -7 C429 -7 469 42 475 153 L396 153 L396 137 C396 92 377 62 347 62 C306 62 292 97 291 206 L475 206 L475 238 C475 379 429 454 344 454 C299 454 272 438 248 397 C225 439 197 454 142 454 C109 454 89 449 52 432 L52 348 Z M164 223 C199 223 216 196 216 140 C216 89 197 60 164 60 C129 60 113 88 113 146 C113 197 130 223 164 223 L164 223 Z M392 266 L292 266 L292 286 C292 349 310 386 342 386 C374 386 392 349 392 286 L392 266 Z " />
<glyph glyph-name="ccedilla" unicode="&#xe7;" horiz-adv-x="253" d="M229 439 C204 451 189 454 164 454 C72 454 30 380 30 220 C30 68 74 -7 163 -7 C187 -7 204 -2 229 11 L229 88 C212 75 202 71 187 71 C142 71 120 122 120 227 C120 328 141 375 188 375 C206 375 216 370 229 354 L229 439 Z M139 -45 L83 -171 L122 -190 L197 -73 L139 -45 Z " />
<glyph glyph-name="egrave" unicode="&#xe8;" horiz-adv-x="326" d="M219 151 C218 93 201 64 168 64 C129 64 113 106 111 207 L299 207 C299 261 297 296 290 328 C272 411 230 454 165 454 C122 454 81 431 62 396 C40 356 30 302 30 222 C30 158 36 114 49 76 C68 24 111 -7 167 -7 C217 -7 260 19 279 62 C290 88 294 107 296 151 L219 151 Z M111 266 C118 357 129 384 163 384 C197 384 209 357 215 266 L111 266 Z M78 633 L165 514 L210 539 L137 671 L78 633 Z " />
<glyph glyph-name="eacute" unicode="&#xe9;" horiz-adv-x="326" d="M219 151 C218 93 201 64 168 64 C129 64 113 106 111 207 L299 207 C299 261 297 296 290 328 C272 411 230 454 165 454 C122 454 81 431 62 396 C40 356 30 302 30 222 C30 158 36 114 49 76 C68 24 111 -7 167 -7 C217 -7 260 19 279 62 C290 88 294 107 296 151 L219 151 Z M111 266 C118 357 129 384 163 384 C197 384 209 357 215 266 L111 266 Z M256 633 L197 671 L124 539 L169 514 L256 633 Z " />
<glyph glyph-name="ecircumflex" unicode="&#xea;" horiz-adv-x="326" d="M219 151 C218 93 201 64 168 64 C129 64 113 106 111 207 L299 207 C299 261 297 296 290 328 C272 411 230 454 165 454 C122 454 81 431 62 396 C40 356 30 302 30 222 C30 158 36 114 49 76 C68 24 111 -7 167 -7 C217 -7 260 19 279 62 C290 88 294 107 296 151 L219 151 Z M111 266 C118 357 129 384 163 384 C197 384 209 357 215 266 L111 266 Z M165 671 L53 548 L99 514 L163 587 L232 514 L274 548 L165 671 Z " />
<glyph glyph-name="edieresis" unicode="&#xeb;" horiz-adv-x="326" d="M219 151 C218 93 201 64 168 64 C129 64 113 106 111 207 L299 207 C299 261 297 296 290 328 C272 411 230 454 165 454 C122 454 81 431 62 396 C40 356 30 302 30 222 C30 158 36 114 49 76 C68 24 111 -7 167 -7 C217 -7 260 19 279 62 C290 88 294 107 296 151 L219 151 Z M111 266 C118 357 129 384 163 384 C197 384 209 357 215 266 L111 266 Z M90 617 C62 617 39 595 39 567 C39 539 61 517 89 517 C117 517 139 539 139 567 C139 594 117 617 90 617 L90 617 Z M241 617 C213 617 190 595 190 567 C190 539 212 517 240 517 C268 517 290 539 290 567 C290 594 268 617 241 617 L241 617 Z " />
<glyph glyph-name="igrave" unicode="&#xec;" horiz-adv-x="176" d="M47 447 L47 0 L130 0 L130 447 L47 447 Z M-11 633 L77 514 L121 539 L48 671 L-11 633 Z " />
<glyph glyph-name="iacute" unicode="&#xed;" horiz-adv-x="176" d="M47 447 L47 0 L130 0 L130 447 L47 447 Z M188 633 L129 671 L56 539 L101 514 L188 633 Z " />
<glyph glyph-name="icircumflex" unicode="&#xee;" horiz-adv-x="176" d="M46 447 L46 0 L129 0 L129 447 L46 447 Z M89 671 L-22 548 L24 514 L88 587 L157 514 L199 548 L89 671 Z " />
<glyph glyph-name="idieresis" unicode="&#xef;" horiz-adv-x="176" d="M47 447 L47 0 L130 0 L130 447 L47 447 Z M22 617 C-6 617 -29 595 -29 567 C-29 539 -7 517 21 517 C49 517 71 539 71 567 C71 594 49 617 22 617 L22 617 Z M156 617 C128 617 105 595 105 567 C105 539 127 517 155 517 C183 517 205 539 205 567 C205 594 183 617 156 617 L156 617 Z " />
<glyph glyph-name="eth" unicode="&#xf0;" horiz-adv-x="341" d="M37 684 C54 673 75 656 108 625 L33 574 L64 528 L141 581 C170 539 189 497 199 451 C186 453 179 454 170 454 C74 454 30 381 30 224 C30 65 74 -7 171 -7 C267 -7 311 67 311 230 C311 397 274 531 202 622 L273 671 L240 721 L165 667 C148 686 114 715 83 736 L37 684 Z M172 379 C212 379 226 339 226 221 C226 109 212 68 173 68 C133 68 119 109 119 223 C119 338 133 379 172 379 L172 379 Z " />
<glyph glyph-name="ntilde" unicode="&#xf1;" horiz-adv-x="358" d="M47 447 L47 0 L130 0 L130 289 C130 357 144 382 181 382 C216 382 229 360 229 299 L229 0 L312 0 L312 318 C312 359 309 389 302 404 C289 435 259 454 222 454 C181 454 156 438 130 396 L130 447 L47 447 Z M241 608 C237 588 234 582 223 582 C215 582 204 586 192 592 C165 607 152 611 135 611 C93 611 72 585 68 524 L119 524 C122 541 127 548 139 548 C149 548 154 546 184 531 C201 523 211 520 224 520 C268 520 286 543 291 608 L241 608 Z " />
<glyph glyph-name="ograve" unicode="&#xf2;" horiz-adv-x="341" d="M170 454 C75 454 30 381 30 224 C30 66 75 -7 171 -7 C265 -7 311 67 311 220 C311 382 267 454 170 454 L170 454 Z M172 379 C212 379 226 339 226 222 C226 110 212 70 173 70 C133 70 119 110 119 224 C119 339 133 379 172 379 L172 379 Z M88 633 L176 514 L220 539 L148 671 L88 633 Z " />
<glyph glyph-name="oacute" unicode="&#xf3;" horiz-adv-x="341" d="M170 454 C75 454 30 381 30 224 C30 66 75 -7 171 -7 C265 -7 311 67 311 220 C311 382 267 454 170 454 L170 454 Z M172 379 C212 379 226 339 226 222 C226 110 212 70 173 70 C133 70 119 110 119 224 C119 339 133 379 172 379 L172 379 Z M264 633 L204 671 L132 539 L176 514 L264 633 Z " />
<glyph glyph-name="ocircumflex" unicode="&#xf4;" horiz-adv-x="341" d="M170 454 C75 454 30 381 30 224 C30 66 75 -7 171 -7 C265 -7 311 67 311 220 C311 382 267 454 170 454 L170 454 Z M172 379 C212 379 226 339 226 222 C226 110 212 70 173 70 C133 70 119 110 119 224 C119 339 133 379 172 379 L172 379 Z M172 671 L61 548 L107 514 L171 587 L240 514 L281 548 L172 671 Z " />
<glyph glyph-name="otilde" unicode="&#xf5;" horiz-adv-x="341" d="M170 454 C75 454 30 381 30 224 C30 66 75 -7 171 -7 C265 -7 311 67 311 220 C311 382 267 454 170 454 L170 454 Z M172 379 C212 379 226 339 226 222 C226 110 212 70 173 70 C133 70 119 110 119 224 C119 339 133 379 172 379 L172 379 Z M235 608 C232 588 228 582 217 582 C210 582 198 586 187 592 C159 607 147 611 130 611 C87 611 67 585 62 524 L114 524 C116 541 122 548 134 548 C143 548 148 546 178 531 C195 523 205 520 219 520 C262 520 280 543 285 608 L235 608 Z " />
<glyph glyph-name="odieresis" unicode="&#xf6;" horiz-adv-x="341" d="M170 454 C75 454 30 381 30 224 C30 66 75 -7 171 -7 C265 -7 311 67 311 220 C311 382 267 454 170 454 L170 454 Z M172 379 C212 379 226 339 226 222 C226 110 212 70 173 70 C133 70 119 110 119 224 C119 339 133 379 172 379 L172 379 Z M95 617 C67 617 44 595 44 567 C44 539 66 517 94 517 C122 517 144 539 144 567 C144 594 122 617 95 617 L95 617 Z M247 617 C219 617 196 595 196 567 C196 539 218 517 246 517 C274 517 296 539 296 567 C296 594 274 617 247 617 L247 617 Z " />
<glyph glyph-name="divide" unicode="&#xf7;" horiz-adv-x="380" d="M34 304 L346 304 L346 378 L34 378 L34 304 Z M190 272 C161 272 138 249 138 221 C138 191 161 168 190 168 C218 168 241 191 241 220 C241 249 218 272 190 272 L190 272 Z M190 512 C161 512 138 489 138 461 C138 432 161 409 190 409 C218 409 241 432 241 461 C241 489 218 512 190 512 L190 512 Z " />
<glyph glyph-name="oslash" unicode="&#xf8;" horiz-adv-x="341" d="M290 462 L262 417 C233 445 209 454 169 454 C73 454 30 383 30 228 C30 168 34 140 48 80 L7 15 L49 -15 L79 29 C102 4 130 -7 170 -7 C266 -7 311 64 311 213 C311 279 305 328 292 362 L333 434 L290 462 Z M119 183 L118 241 C118 341 132 379 169 379 C190 379 205 368 211 347 L119 183 Z M223 266 C224 243 225 222 225 213 C225 100 213 64 173 64 C152 64 138 76 131 98 L223 266 Z " />
<glyph glyph-name="ugrave" unicode="&#xf9;" horiz-adv-x="359" d="M47 447 L47 152 C47 112 50 89 57 68 C74 17 114 -7 179 -7 C241 -7 279 13 299 55 C311 79 313 101 313 180 L313 447 L230 447 L230 180 C230 120 230 115 226 104 C221 82 206 72 181 72 C161 72 147 80 138 95 C132 107 131 116 130 180 L130 447 L47 447 Z M98 633 L186 514 L230 539 L157 671 L98 633 Z " />
<glyph glyph-name="uacute" unicode="&#xfa;" horiz-adv-x="359" d="M47 447 L47 152 C47 112 50 89 57 68 C74 17 114 -7 179 -7 C241 -7 279 13 299 55 C311 79 313 101 313 180 L313 447 L230 447 L230 180 C230 120 230 115 226 104 C221 82 206 72 181 72 C161 72 147 80 138 95 C132 107 131 116 130 180 L130 447 L47 447 Z M273 633 L214 671 L141 539 L186 514 L273 633 Z " />
<glyph glyph-name="ucircumflex" unicode="&#xfb;" horiz-adv-x="359" d="M47 447 L47 152 C47 112 50 89 57 68 C74 17 114 -7 179 -7 C241 -7 279 13 299 55 C311 79 313 101 313 180 L313 447 L230 447 L230 180 C230 120 230 115 226 104 C221 82 206 72 181 72 C161 72 147 80 138 95 C132 107 131 116 130 180 L130 447 L47 447 Z M182 671 L70 548 L116 514 L180 587 L249 514 L291 548 L182 671 Z " />
<glyph glyph-name="udieresis" unicode="&#xfc;" horiz-adv-x="359" d="M47 447 L47 152 C47 112 50 89 57 68 C74 17 114 -7 179 -7 C241 -7 279 13 299 55 C311 79 313 101 313 180 L313 447 L230 447 L230 180 C230 120 230 115 226 104 C221 82 206 72 181 72 C161 72 147 80 138 95 C132 107 131 116 130 180 L130 447 L47 447 Z M105 617 C77 617 54 595 54 567 C54 539 76 517 104 517 C132 517 154 539 154 567 C154 594 132 617 105 617 L105 617 Z M256 617 C228 617 205 595 205 567 C205 539 227 517 255 517 C283 517 305 539 305 567 C305 594 283 617 256 617 L256 617 Z " />
<glyph glyph-name="yacute" unicode="&#xfd;" horiz-adv-x="326" d="M3 447 L122 36 L53 -183 L140 -183 L322 447 L239 447 L162 135 L96 447 L3 447 Z M269 633 L210 671 L137 539 L182 514 L269 633 Z " />
<glyph glyph-name="thorn" unicode="&#xfe;" horiz-adv-x="349" d="M47 -183 L130 -183 L130 50 C153 8 173 -7 210 -7 C286 -7 319 62 319 218 C319 381 286 454 212 454 C174 454 153 438 130 389 L130 733 L47 733 L47 -183 Z M180 379 C220 379 234 339 234 221 C234 109 220 68 180 68 C142 68 127 112 127 224 C127 335 142 379 180 379 L180 379 Z " />
<glyph glyph-name="ydieresis" unicode="&#xff;" horiz-adv-x="326" d="M3 447 L122 36 L53 -183 L140 -183 L322 447 L239 447 L162 135 L96 447 L3 447 Z M88 617 C60 617 37 595 37 567 C37 539 59 517 87 517 C115 517 137 539 137 567 C137 594 115 617 88 617 L88 617 Z M239 617 C211 617 188 595 188 567 C188 539 210 517 238 517 C266 517 288 539 288 567 C288 594 266 617 239 617 L239 617 Z " />
<glyph glyph-name="Amacron" unicode="&#x100;" horiz-adv-x="360" d="M146 667 L1 0 L87 0 L113 130 L245 130 L270 0 L359 0 L216 667 L146 667 Z M232 199 L125 199 L142 285 C159 373 171 453 180 537 C185 483 200 372 212 306 L232 199 Z M68 740 L293 740 L293 802 L68 802 L68 740 Z " />
<glyph glyph-name="amacron" unicode="&#x101;" horiz-adv-x="349" d="M302 447 L219 447 L219 397 C197 438 174 454 137 454 C101 454 70 432 54 396 C37 358 30 307 30 229 C30 66 63 -7 137 -7 C176 -7 196 9 219 58 L219 0 L302 0 L302 447 Z M169 379 C207 379 222 334 222 224 C222 112 207 68 169 68 C129 68 115 108 115 226 C115 338 129 379 169 379 L169 379 Z M65 536 L283 536 L283 598 L65 598 L65 536 Z " />
<glyph glyph-name="Abreve" unicode="&#x102;" horiz-adv-x="360" d="M146 667 L1 0 L87 0 L113 130 L245 130 L270 0 L359 0 L216 667 L146 667 Z M232 199 L125 199 L142 285 C159 373 171 453 180 537 C185 483 200 372 212 306 L232 199 Z M243 836 C236 800 219 786 182 786 C143 786 125 800 118 836 L63 836 C70 766 110 730 179 730 C257 730 290 760 298 836 L243 836 Z " />
<glyph glyph-name="abreve" unicode="&#x103;" horiz-adv-x="349" d="M302 447 L219 447 L219 397 C197 438 174 454 137 454 C101 454 70 432 54 396 C37 358 30 307 30 229 C30 66 63 -7 137 -7 C176 -7 196 9 219 58 L219 0 L302 0 L302 447 Z M169 379 C207 379 222 334 222 224 C222 112 207 68 169 68 C129 68 115 108 115 226 C115 338 129 379 169 379 L169 379 Z M229 631 C224 586 210 569 175 569 C141 569 122 590 120 631 L65 631 C70 553 106 516 176 516 C247 516 280 551 284 631 L229 631 Z " />
<glyph glyph-name="Aogonek" unicode="&#x104;" horiz-adv-x="360" d="M146 667 L1 0 L87 0 L113 130 L245 130 L270 0 L310 0 C274 -35 262 -57 262 -86 C262 -128 294 -155 344 -155 C362 -155 374 -153 392 -146 L392 -95 C378 -100 364 -103 349 -103 C328 -103 315 -92 315 -72 C315 -52 331 -25 359 0 L216 667 L146 667 Z M232 199 L125 199 L142 285 C159 373 171 453 180 537 C185 483 200 372 212 306 L232 199 Z " />
<glyph glyph-name="aogonek" unicode="&#x105;" horiz-adv-x="349" d="M302 447 L219 447 L219 397 C197 438 174 454 137 454 C101 454 70 432 54 396 C37 358 30 307 30 229 C30 66 63 -7 137 -7 C176 -7 196 9 219 58 L219 0 L253 0 C217 -35 205 -57 205 -86 C205 -128 237 -155 288 -155 C306 -155 317 -153 335 -146 L335 -95 C321 -100 307 -103 292 -103 C271 -103 258 -92 258 -72 C258 -52 275 -24 302 0 L302 447 Z M169 379 C207 379 222 334 222 224 C222 112 207 68 169 68 C129 68 115 108 115 226 C115 338 129 379 169 379 L169 379 Z " />
<glyph glyph-name="Cacute" unicode="&#x106;" horiz-adv-x="337" d="M313 656 C284 672 268 676 238 676 C103 676 38 561 38 322 C38 101 105 -9 240 -9 C272 -9 287 -5 313 10 L313 92 C291 81 279 78 260 78 C175 78 133 159 133 325 C133 412 142 481 158 520 C177 565 213 592 255 592 C273 592 287 588 313 575 L313 656 Z M272 854 L179 763 L212 727 L319 802 L272 854 Z " />
<glyph glyph-name="cacute" unicode="&#x107;" horiz-adv-x="253" d="M229 439 C204 451 189 454 164 454 C72 454 30 380 30 220 C30 68 74 -7 163 -7 C187 -7 204 -2 229 11 L229 88 C212 75 202 71 187 71 C142 71 120 122 120 227 C120 328 141 375 188 375 C206 375 216 370 229 354 L229 439 Z M250 633 L190 671 L118 539 L162 514 L250 633 Z " />
<glyph glyph-name="Ccircumflex" unicode="&#x108;" horiz-adv-x="337" d="M313 656 C284 672 268 676 238 676 C103 676 38 561 38 322 C38 101 105 -9 240 -9 C272 -9 287 -5 313 10 L313 92 C291 81 279 78 260 78 C175 78 133 159 133 325 C133 412 142 481 158 520 C177 565 213 592 255 592 C273 592 287 588 313 575 L313 656 Z M209 865 L99 768 L135 727 L209 789 L282 727 L320 773 L209 865 Z " />
<glyph glyph-name="ccircumflex" unicode="&#x109;" horiz-adv-x="253" d="M229 439 C204 451 189 454 164 454 C72 454 30 380 30 220 C30 68 74 -7 163 -7 C187 -7 204 -2 229 11 L229 88 C212 75 202 71 187 71 C142 71 120 122 120 227 C120 328 141 375 188 375 C206 375 216 370 229 354 L229 439 Z M153 671 L41 548 L88 514 L152 587 L220 514 L262 548 L153 671 Z " />
<glyph glyph-name="Cdotaccent" unicode="&#x10a;" horiz-adv-x="337" d="M313 656 C284 672 268 676 238 676 C103 676 38 561 38 322 C38 101 105 -9 240 -9 C272 -9 287 -5 313 10 L313 92 C291 81 279 78 260 78 C175 78 133 159 133 325 C133 412 142 481 158 520 C177 565 213 592 255 592 C273 592 287 588 313 575 L313 656 Z M218 837 C188 837 165 814 165 786 C165 757 188 734 217 734 C246 734 269 757 269 786 C269 814 246 837 218 837 L218 837 Z " />
<glyph glyph-name="cdotaccent" unicode="&#x10b;" horiz-adv-x="253" d="M229 439 C204 451 189 454 164 454 C72 454 30 380 30 220 C30 68 74 -7 163 -7 C187 -7 204 -2 229 11 L229 88 C212 75 202 71 187 71 C142 71 120 122 120 227 C120 328 141 375 188 375 C206 375 216 370 229 354 L229 439 Z M151 622 C122 622 98 599 98 570 C98 541 121 517 151 517 C180 517 203 541 203 570 C203 598 179 622 151 622 L151 622 Z " />
<glyph glyph-name="Ccaron" unicode="&#x10c;" horiz-adv-x="337" d="M313 656 C284 672 268 676 238 676 C103 676 38 561 38 322 C38 101 105 -9 240 -9 C272 -9 287 -5 313 10 L313 92 C291 81 279 78 260 78 C175 78 133 159 133 325 C133 412 142 481 158 520 C177 565 213 592 255 592 C273 592 287 588 313 575 L313 656 Z M216 727 L326 823 L290 865 L216 803 L143 865 L106 818 L216 727 Z " />
<glyph glyph-name="ccaron" unicode="&#x10d;" horiz-adv-x="253" d="M229 439 C204 451 189 454 164 454 C72 454 30 380 30 220 C30 68 74 -7 163 -7 C187 -7 204 -2 229 11 L229 88 C212 75 202 71 187 71 C142 71 120 122 120 227 C120 328 141 375 188 375 C206 375 216 370 229 354 L229 439 Z M155 514 L264 637 L222 671 L153 598 L89 671 L43 637 L155 514 Z " />
<glyph glyph-name="Dcaron" unicode="&#x10e;" horiz-adv-x="411" d="M51 667 L51 0 L124 0 C222 0 273 15 309 53 C354 103 373 184 373 324 C373 472 356 550 313 606 C278 651 239 667 161 667 L51 667 Z M141 591 L152 591 C249 591 279 527 279 323 C279 130 250 78 141 78 L141 591 Z M180 727 L290 823 L254 865 L180 803 L106 865 L69 818 L180 727 Z " />
<glyph glyph-name="dcaron" unicode="&#x10f;" horiz-adv-x="447" d="M302 733 L219 733 L219 397 C196 440 176 454 139 454 C63 454 30 385 30 229 C30 66 63 -7 137 -7 C176 -7 196 9 219 58 L219 0 L302 0 L302 733 Z M169 379 C207 379 222 334 222 224 C222 112 207 68 169 68 C129 68 115 108 115 226 C115 338 129 379 169 379 L169 379 Z M386 741 L342 611 L382 595 L447 718 L386 741 Z " />
<glyph glyph-name="Dcroat" unicode="&#x110;" horiz-adv-x="411" d="M51 667 L51 399 L1 399 L1 330 L51 330 L51 0 L124 0 C222 0 273 15 309 53 C354 103 373 183 373 324 C373 471 356 550 313 606 C278 651 239 667 162 667 L51 667 Z M141 330 L228 330 L228 399 L141 399 L141 591 L152 591 C249 591 279 527 279 323 C279 130 250 78 141 78 L141 330 Z " />
<glyph glyph-name="dcroat" unicode="&#x111;" horiz-adv-x="349" d="M347 619 L302 619 L302 733 L219 733 L219 619 L129 619 L129 560 L219 560 L219 397 C196 440 176 454 139 454 C63 454 30 385 30 229 C30 66 63 -7 137 -7 C176 -7 196 9 219 58 L219 0 L302 0 L302 560 L347 560 L347 619 Z M169 379 C207 379 222 334 222 224 C222 112 207 68 169 68 C129 68 115 108 115 226 C115 338 129 379 169 379 L169 379 Z " />
<glyph glyph-name="Emacron" unicode="&#x112;" horiz-adv-x="321" d="M51 667 L51 0 L290 0 L290 76 L141 76 L141 303 L273 303 L273 379 L141 379 L141 591 L290 591 L290 667 L51 667 Z M58 740 L283 740 L283 802 L58 802 L58 740 Z " />
<glyph glyph-name="emacron" unicode="&#x113;" horiz-adv-x="326" d="M219 151 C218 93 201 64 168 64 C129 64 113 106 111 207 L299 207 C299 261 297 296 290 328 C272 411 230 454 165 454 C122 454 81 431 62 396 C40 356 30 302 30 222 C30 158 36 114 49 76 C68 24 111 -7 167 -7 C217 -7 260 19 279 62 C290 88 294 107 296 151 L219 151 Z M111 266 C118 357 129 384 163 384 C197 384 209 357 215 266 L111 266 Z M54 536 L272 536 L272 598 L54 598 L54 536 Z " />
<glyph glyph-name="Ebreve" unicode="&#x114;" horiz-adv-x="321" d="M51 667 L51 0 L290 0 L290 76 L141 76 L141 303 L273 303 L273 379 L141 379 L141 591 L290 591 L290 667 L51 667 Z M233 836 C226 800 209 786 172 786 C133 786 115 800 108 836 L53 836 C60 766 99 730 169 730 C246 730 280 760 288 836 L233 836 Z " />
<glyph glyph-name="ebreve" unicode="&#x115;" horiz-adv-x="326" d="M219 151 C218 93 201 64 168 64 C129 64 113 106 111 207 L299 207 C299 261 297 296 290 328 C272 411 230 454 165 454 C122 454 81 431 62 396 C40 356 30 302 30 222 C30 158 36 114 49 76 C68 24 111 -7 167 -7 C217 -7 260 19 279 62 C290 88 294 107 296 151 L219 151 Z M111 266 C118 357 129 384 163 384 C197 384 209 357 215 266 L111 266 Z M215 631 C210 586 196 569 161 569 C127 569 108 590 106 631 L51 631 C56 553 92 516 162 516 C233 516 266 551 270 631 L215 631 Z " />
<glyph glyph-name="Edotaccent" unicode="&#x116;" horiz-adv-x="321" d="M51 667 L51 0 L290 0 L290 76 L141 76 L141 303 L273 303 L273 379 L141 379 L141 591 L290 591 L290 667 L51 667 Z M171 837 C142 837 119 814 119 786 C119 757 142 734 171 734 C199 734 222 757 222 786 C222 814 199 837 171 837 L171 837 Z " />
<glyph glyph-name="edotaccent" unicode="&#x117;" horiz-adv-x="326" d="M219 151 C218 93 201 64 168 64 C129 64 113 106 111 207 L299 207 C299 261 297 296 290 328 C272 411 230 454 165 454 C122 454 81 431 62 396 C40 356 30 302 30 222 C30 158 36 114 49 76 C68 24 111 -7 167 -7 C217 -7 260 19 279 62 C290 88 294 107 296 151 L219 151 Z M111 266 C118 357 129 384 163 384 C197 384 209 357 215 266 L111 266 Z M165 622 C136 622 112 599 112 570 C112 541 135 517 165 517 C194 517 217 541 217 570 C217 598 193 622 165 622 L165 622 Z " />
<glyph glyph-name="Eogonek" unicode="&#x118;" horiz-adv-x="321" d="M51 667 L51 0 L241 0 C205 -35 193 -57 193 -86 C193 -128 225 -155 275 -155 C294 -155 305 -153 323 -146 L323 -95 C309 -100 295 -103 280 -103 C259 -103 246 -92 246 -72 C246 -52 263 -24 290 0 L290 76 L141 76 L141 303 L273 303 L273 379 L141 379 L141 591 L290 591 L290 667 L51 667 Z " />
<glyph glyph-name="eogonek" unicode="&#x119;" horiz-adv-x="326" d="M219 151 C218 93 201 64 168 64 C129 64 112 106 111 207 L299 207 C299 261 296 296 290 328 C271 411 229 454 165 454 C122 454 81 431 62 396 C40 357 30 302 30 221 C30 137 41 80 64 46 C86 13 121 -6 159 -6 C164 -6 171 -5 180 -4 C148 -30 134 -56 134 -87 C134 -128 167 -155 216 -155 C234 -155 246 -153 264 -146 L264 -95 C250 -100 236 -103 221 -103 C200 -103 187 -92 187 -73 C187 -47 205 -14 233 8 C279 46 292 76 296 151 L219 151 Z M111 266 C117 357 129 384 163 384 C196 384 208 357 215 266 L111 266 Z " />
<glyph glyph-name="Ecaron" unicode="&#x11a;" horiz-adv-x="321" d="M51 667 L51 0 L290 0 L290 76 L141 76 L141 303 L273 303 L273 379 L141 379 L141 591 L290 591 L290 667 L51 667 Z M171 727 L281 823 L245 865 L171 803 L97 865 L60 818 L171 727 Z " />
<glyph glyph-name="ecaron" unicode="&#x11b;" horiz-adv-x="326" d="M219 151 C218 93 201 64 168 64 C129 64 113 106 111 207 L299 207 C299 261 297 296 290 328 C272 411 230 454 165 454 C122 454 81 431 62 396 C40 356 30 302 30 222 C30 158 36 114 49 76 C68 24 111 -7 167 -7 C217 -7 260 19 279 62 C290 88 294 107 296 151 L219 151 Z M111 266 C118 357 129 384 163 384 C197 384 209 357 215 266 L111 266 Z M165 514 L274 637 L232 671 L163 598 L99 671 L53 637 L165 514 Z " />
<glyph glyph-name="Gcircumflex" unicode="&#x11c;" horiz-adv-x="412" d="M211 351 L211 275 L289 275 L289 243 C289 119 268 74 211 74 C149 74 131 131 131 333 C131 538 149 597 209 597 C252 597 271 574 285 504 L369 539 C342 637 297 676 209 676 C151 676 110 655 82 610 C53 565 38 469 38 331 C38 86 87 -9 214 -9 C297 -9 345 36 362 130 C371 182 374 230 374 351 L211 351 Z M210 865 L100 768 L136 727 L210 789 L283 727 L321 773 L210 865 Z " />
<glyph glyph-name="gcircumflex" unicode="&#x11d;" horiz-adv-x="349" d="M220 447 L220 394 C195 439 175 454 139 454 C62 454 30 385 30 218 C30 133 39 80 59 42 C75 12 106 -7 139 -7 C177 -7 201 12 220 55 L220 -32 C220 -61 219 -73 216 -86 C210 -107 193 -119 170 -119 C134 -119 117 -96 117 -47 L37 -47 C36 -53 36 -59 36 -61 C36 -140 85 -188 167 -188 C220 -188 262 -169 283 -136 C299 -111 303 -85 303 -14 L303 447 L220 447 Z M165 379 C204 379 221 329 221 219 C221 106 209 68 172 68 C130 68 115 112 115 228 C115 333 130 379 165 379 L165 379 Z M176 671 L65 548 L111 514 L175 587 L244 514 L286 548 L176 671 Z " />
<glyph glyph-name="Gbreve" unicode="&#x11e;" horiz-adv-x="412" d="M211 351 L211 275 L289 275 L289 243 C289 119 268 74 211 74 C149 74 131 131 131 333 C131 538 149 597 209 597 C252 597 271 574 285 504 L369 539 C342 637 297 676 209 676 C151 676 110 655 82 610 C53 565 38 469 38 331 C38 86 87 -9 214 -9 C297 -9 345 36 362 130 C371 182 374 230 374 351 L211 351 Z M269 836 C262 800 246 786 208 786 C169 786 151 800 145 836 L90 836 C96 766 136 730 206 730 C283 730 317 760 324 836 L269 836 Z " />
<glyph glyph-name="gbreve" unicode="&#x11f;" horiz-adv-x="349" d="M220 447 L220 394 C195 439 175 454 139 454 C62 454 30 385 30 218 C30 133 39 80 59 42 C75 12 106 -7 139 -7 C177 -7 201 12 220 55 L220 -32 C220 -61 219 -73 216 -86 C210 -107 193 -119 170 -119 C134 -119 117 -96 117 -47 L37 -47 C36 -53 36 -59 36 -61 C36 -140 85 -188 167 -188 C220 -188 262 -169 283 -136 C299 -111 303 -85 303 -14 L303 447 L220 447 Z M165 379 C204 379 221 329 221 219 C221 106 209 68 172 68 C130 68 115 112 115 228 C115 333 130 379 165 379 L165 379 Z M234 631 C229 585 213 568 176 568 C138 568 118 588 116 631 L61 631 C67 551 101 516 174 516 C251 516 285 550 289 631 L234 631 Z " />
<glyph glyph-name="Gdotaccent" unicode="&#x120;" horiz-adv-x="412" d="M211 351 L211 275 L289 275 L289 243 C289 119 268 74 211 74 C149 74 131 131 131 333 C131 538 149 597 209 597 C252 597 271 574 285 504 L369 539 C342 637 297 676 209 676 C151 676 110 655 82 610 C53 565 38 469 38 331 C38 86 87 -9 214 -9 C297 -9 345 36 362 130 C371 182 374 230 374 351 L211 351 Z M212 837 C182 837 159 814 159 786 C159 757 182 734 211 734 C240 734 263 757 263 786 C263 814 240 837 212 837 L212 837 Z " />
<glyph glyph-name="gdotaccent" unicode="&#x121;" horiz-adv-x="349" d="M220 447 L220 394 C195 439 175 454 139 454 C62 454 30 385 30 218 C30 133 39 80 59 42 C75 12 106 -7 139 -7 C177 -7 201 12 220 55 L220 -32 C220 -61 219 -73 216 -86 C210 -107 193 -119 170 -119 C134 -119 117 -96 117 -47 L37 -47 C36 -53 36 -59 36 -61 C36 -140 85 -188 167 -188 C220 -188 262 -169 283 -136 C299 -111 303 -85 303 -14 L303 447 L220 447 Z M165 379 C204 379 221 329 221 219 C221 106 209 68 172 68 C130 68 115 112 115 228 C115 333 130 379 165 379 L165 379 Z M176 622 C147 622 123 599 123 570 C123 541 146 517 176 517 C205 517 228 541 228 570 C228 598 204 622 176 622 L176 622 Z " />
<glyph glyph-name="Gcommaaccent" unicode="&#x122;" horiz-adv-x="412" d="M211 351 L211 275 L289 275 L289 243 C289 119 268 74 211 74 C149 74 131 131 131 333 C131 538 149 597 209 597 C252 597 271 574 285 504 L369 539 C342 637 297 676 209 676 C151 676 110 655 82 610 C53 565 38 469 38 331 C38 86 87 -9 214 -9 C297 -9 345 36 362 130 C371 182 374 230 374 351 L211 351 Z M189 -46 L147 -176 L191 -194 L254 -70 L189 -46 Z " />
<glyph glyph-name="gcommaaccent" unicode="&#x123;" horiz-adv-x="349" d="M220 447 L220 394 C195 439 175 454 139 454 C62 454 30 385 30 218 C30 133 39 80 59 42 C75 12 106 -7 139 -7 C177 -7 201 12 220 55 L220 -32 C220 -61 219 -73 216 -86 C210 -107 193 -119 170 -119 C134 -119 117 -96 117 -47 L37 -47 C36 -53 36 -59 36 -61 C36 -140 85 -188 167 -188 C220 -188 262 -169 283 -136 C299 -111 303 -85 303 -14 L303 447 L220 447 Z M165 379 C204 379 221 329 221 219 C221 106 209 68 172 68 C130 68 115 112 115 228 C115 333 130 379 165 379 L165 379 Z M197 514 L240 644 L201 660 L136 537 L197 514 Z " />
<glyph glyph-name="Hcircumflex" unicode="&#x124;" horiz-adv-x="414" d="M51 667 L51 0 L141 0 L141 330 L272 330 L272 0 L362 0 L362 667 L272 667 L272 406 L141 406 L141 667 L51 667 Z M207 865 L97 768 L133 727 L207 789 L280 727 L318 773 L207 865 Z " />
<glyph glyph-name="hcircumflex" unicode="&#x125;" horiz-adv-x="358" d="M46 733 L46 0 L129 0 L129 289 C129 357 143 382 180 382 C215 382 228 360 228 299 L228 0 L311 0 L311 318 C311 359 308 389 301 404 C288 435 258 454 221 454 C180 454 155 438 129 396 L129 733 L46 733 Z M122 918 L12 821 L48 780 L122 842 L196 780 L233 826 L122 918 Z " />
<glyph glyph-name="Hbar" unicode="&#x126;" horiz-adv-x="414" d="M272 667 L272 545 L141 545 L141 667 L51 667 L51 545 L13 545 L13 476 L51 476 L51 0 L141 0 L141 330 L272 330 L272 0 L362 0 L362 476 L400 476 L400 545 L362 545 L362 667 L272 667 Z M141 476 L272 476 L272 406 L141 406 L141 476 Z " />
<glyph glyph-name="hbar" unicode="&#x127;" horiz-adv-x="358" d="M219 619 L130 619 L130 733 L47 733 L47 619 L2 619 L2 560 L47 560 L47 0 L130 0 L130 289 C130 357 144 382 181 382 C215 382 228 360 228 299 L228 0 L311 0 L311 318 C311 359 308 389 301 404 C288 435 258 454 221 454 C180 454 156 438 130 396 L130 560 L219 560 L219 619 Z " />
<glyph glyph-name="Itilde" unicode="&#x128;" horiz-adv-x="193" d="M51 667 L51 0 L141 0 L141 667 L51 667 Z M156 818 C156 801 151 794 141 794 C134 794 124 797 102 807 C67 823 61 825 47 825 C8 825 -14 793 -16 736 L35 736 C36 753 41 760 52 760 C62 760 74 756 92 747 C121 732 128 730 142 730 C183 730 208 763 208 818 L156 818 Z " />
<glyph glyph-name="itilde" unicode="&#x129;" horiz-adv-x="176" d="M46 447 L46 0 L129 0 L129 447 L46 447 Z M149 608 C146 588 142 582 131 582 C124 582 112 586 101 592 C73 607 61 611 44 611 C1 611 -19 585 -24 524 L28 524 C30 541 36 548 48 548 C57 548 62 546 92 531 C109 523 119 520 133 520 C176 520 194 543 199 608 L149 608 Z " />
<glyph glyph-name="Imacron" unicode="&#x12a;" horiz-adv-x="193" d="M51 667 L51 0 L141 0 L141 667 L51 667 Z M-6 740 L202 740 L202 802 L-6 802 L-6 740 Z " />
<glyph glyph-name="imacron" unicode="&#x12b;" horiz-adv-x="176" d="M46 447 L46 0 L129 0 L129 447 L46 447 Z M-8 536 L183 536 L183 598 L-8 598 L-8 536 Z " />
<glyph glyph-name="Ibreve" unicode="&#x12c;" horiz-adv-x="193" d="M51 667 L51 0 L141 0 L141 667 L51 667 Z M159 836 C152 800 135 786 98 786 C59 786 41 800 34 836 L-21 836 C-14 766 25 730 95 730 C172 730 206 760 214 836 L159 836 Z " />
<glyph glyph-name="ibreve" unicode="&#x12d;" horiz-adv-x="176" d="M47 447 L47 0 L130 0 L130 447 L47 447 Z M136 631 C131 585 119 568 90 568 C61 568 42 592 40 631 L-15 631 C-9 554 26 516 90 516 C154 516 187 553 191 631 L136 631 Z " />
<glyph glyph-name="Iogonek" unicode="&#x12e;" horiz-adv-x="193" d="M142 667 L52 667 L52 0 L95 0 C63 -26 50 -51 50 -85 C50 -127 82 -155 129 -155 C145 -155 155 -153 173 -146 L173 -95 C158 -100 147 -103 139 -103 C114 -103 103 -92 103 -69 C103 -41 120 -11 142 0 L142 667 Z " />
<glyph glyph-name="iogonek" unicode="&#x12f;" horiz-adv-x="176" d="M47 0 L87 0 C54 -30 40 -55 40 -86 C40 -127 72 -155 119 -155 C134 -155 145 -153 163 -146 L163 -95 C146 -101 137 -103 124 -103 C103 -103 93 -93 93 -73 C93 -48 109 -15 129 0 L129 447 L47 447 L47 0 Z M86 637 C54 637 29 612 29 581 C29 550 54 525 85 525 C116 525 141 550 141 581 C141 612 116 637 86 637 L86 637 Z " />
<glyph glyph-name="Idotaccent" unicode="&#x130;" horiz-adv-x="193" d="M52 667 L52 0 L142 0 L142 667 L52 667 Z M97 837 C68 837 45 814 45 786 C45 757 68 734 97 734 C125 734 148 757 148 786 C148 814 125 837 97 837 L97 837 Z " />
<glyph glyph-name="dotlessi" unicode="&#x131;" horiz-adv-x="176" d="M47 447 L47 0 L130 0 L130 447 L47 447 Z " />
<glyph glyph-name="IJ" unicode="&#x132;" horiz-adv-x="448" d="M51 667 L51 0 L141 0 L141 667 L51 667 Z M306 667 L306 186 C306 134 305 126 300 112 C292 89 272 76 247 76 C229 76 218 80 187 99 L187 9 C209 -3 234 -9 264 -9 C312 -9 352 10 373 42 C390 67 396 98 396 155 L396 667 L306 667 Z " />
<glyph glyph-name="ij" unicode="&#x133;" horiz-adv-x="349" d="M47 447 L47 0 L130 0 L130 447 L47 447 Z M86 637 C54 637 29 612 29 581 C29 550 54 525 85 525 C116 525 141 550 141 581 C141 612 116 637 86 637 L86 637 Z M219 447 L219 -183 L302 -183 L302 447 L219 447 Z M259 637 C227 637 202 612 202 581 C202 550 227 525 258 525 C289 525 314 550 314 581 C314 612 289 637 259 637 L259 637 Z " />
<glyph glyph-name="Jcircumflex" unicode="&#x134;" horiz-adv-x="259" d="M117 667 L117 186 C117 134 116 126 111 112 C103 89 83 76 58 76 C40 76 29 80 -2 99 L-2 9 C20 -3 45 -9 75 -9 C123 -9 163 10 184 42 C201 67 207 98 207 155 L207 667 L117 667 Z M163 865 L53 768 L89 727 L163 789 L236 727 L274 773 L163 865 Z " />
<glyph glyph-name="jcircumflex" unicode="&#x135;" horiz-adv-x="176" d="M46 447 L46 -183 L129 -183 L129 447 L46 447 Z M85 671 L-26 548 L20 514 L84 587 L153 514 L195 548 L85 671 Z " />
<glyph glyph-name="Kcommaaccent" unicode="&#x136;" horiz-adv-x="372" d="M51 667 L51 0 L141 0 L141 344 L266 0 L367 0 L225 344 L356 667 L266 667 L141 344 L141 667 L51 667 Z M175 -46 L133 -176 L177 -194 L240 -70 L175 -46 Z " />
<glyph glyph-name="kcommaaccent" unicode="&#x137;" horiz-adv-x="346" d="M47 733 L47 0 L130 0 L130 237 L246 0 L343 0 L214 248 L328 447 L235 447 L130 248 L130 733 L47 733 Z M169 -45 L125 -175 L164 -192 L230 -69 L169 -45 Z " />
<glyph glyph-name="kgreenlandic" unicode="&#x138;" horiz-adv-x="346" d="M47 447 L47 0 L130 0 L130 237 L246 0 L343 0 L214 248 L328 447 L235 447 L130 248 L130 447 L47 447 Z " />
<glyph glyph-name="Lacute" unicode="&#x139;" horiz-adv-x="293" d="M51 667 L51 0 L288 0 L288 76 L141 76 L141 667 L51 667 Z M156 854 L63 763 L96 727 L203 802 L156 854 Z " />
<glyph glyph-name="lacute" unicode="&#x13a;" horiz-adv-x="176" d="M47 717 L47 0 L130 0 L130 717 L47 717 Z M145 887 L52 797 L84 760 L192 835 L145 887 Z " />
<glyph glyph-name="Lcommaaccent" unicode="&#x13b;" horiz-adv-x="293" d="M51 667 L51 0 L288 0 L288 76 L141 76 L141 667 L51 667 Z M149 -46 L106 -176 L151 -194 L213 -70 L149 -46 Z " />
<glyph glyph-name="lcommaaccent" unicode="&#x13c;" horiz-adv-x="176" d="M47 733 L47 0 L130 0 L130 733 L47 733 Z M63 -45 L19 -175 L59 -192 L124 -69 L63 -45 Z " />
<glyph glyph-name="Lcaron" unicode="&#x13d;" horiz-adv-x="293" d="M51 667 L51 0 L288 0 L288 76 L141 76 L141 667 L51 667 Z M232 680 L189 551 L234 533 L296 656 L232 680 Z " />
<glyph glyph-name="lcaron" unicode="&#x13e;" horiz-adv-x="274" d="M47 733 L47 0 L130 0 L130 733 L47 733 Z M214 741 L170 611 L209 595 L275 718 L214 741 Z " />
<glyph glyph-name="Ldot" unicode="&#x13f;" horiz-adv-x="293" d="M51 667 L51 0 L288 0 L288 76 L141 76 L141 667 L51 667 Z M241 398 C205 398 176 370 176 335 C176 299 204 270 240 270 C275 270 304 299 304 334 C304 369 275 398 241 398 L241 398 Z " />
<glyph glyph-name="ldot" unicode="&#x140;" horiz-adv-x="304" d="M47 733 L47 0 L130 0 L130 733 L47 733 Z M241 398 C205 398 176 370 176 335 C176 299 204 270 240 270 C275 270 304 299 304 334 C304 369 275 398 241 398 L241 398 Z " />
<glyph glyph-name="Lslash" unicode="&#x141;" horiz-adv-x="293" d="M252 462 L141 377 L141 667 L51 667 L51 323 L0 282 L0 196 L51 237 L51 0 L288 0 L288 76 L141 76 L141 291 L252 376 L252 462 Z " />
<glyph glyph-name="lslash" unicode="&#x142;" horiz-adv-x="192" d="M192 468 L138 422 L138 733 L55 733 L55 376 L0 332 L0 256 L55 300 L55 0 L138 0 L138 346 L192 392 L192 468 Z " />
<glyph glyph-name="Nacute" unicode="&#x143;" horiz-adv-x="413" d="M51 667 L51 0 L140 0 L135 291 L134 330 C132 358 131 385 129 412 C128 435 126 458 125 480 C124 484 123 496 121 513 C124 498 127 484 129 479 C136 443 142 419 143 413 C148 395 168 327 177 300 L278 0 L362 0 L362 667 L272 667 L272 418 C274 316 278 263 293 160 C280 219 247 334 225 401 L135 667 L51 667 Z M263 854 L170 763 L203 727 L310 802 L263 854 Z " />
<glyph glyph-name="nacute" unicode="&#x144;" horiz-adv-x="358" d="M47 447 L47 0 L130 0 L130 289 C130 357 144 382 181 382 C216 382 229 360 229 299 L229 0 L312 0 L312 318 C312 359 309 389 302 404 C289 435 259 454 222 454 C181 454 156 438 130 396 L130 447 L47 447 Z M269 633 L210 671 L137 539 L182 514 L269 633 Z " />
<glyph glyph-name="Ncommaaccent" unicode="&#x145;" horiz-adv-x="413" d="M51 667 L51 0 L140 0 L135 291 L134 330 C132 358 131 385 129 412 C128 435 126 458 125 480 C124 484 123 496 121 513 C124 498 127 484 129 479 C136 443 142 419 143 413 C148 395 168 327 177 300 L278 0 L362 0 L362 667 L272 667 L272 418 C274 316 278 263 293 160 C280 219 247 334 225 401 L135 667 L51 667 Z M186 -46 L143 -176 L188 -194 L250 -70 L186 -46 Z " />
<glyph glyph-name="ncommaaccent" unicode="&#x146;" horiz-adv-x="358" d="M47 447 L47 0 L130 0 L130 289 C130 357 144 382 181 382 C216 382 229 360 229 299 L229 0 L312 0 L312 318 C312 359 309 389 302 404 C289 435 259 454 222 454 C181 454 156 438 130 396 L130 447 L47 447 Z M158 -45 L114 -175 L154 -192 L219 -69 L158 -45 Z " />
<glyph glyph-name="Ncaron" unicode="&#x147;" horiz-adv-x="413" d="M51 667 L51 0 L140 0 L135 291 L134 330 C132 358 131 385 129 412 C128 435 126 458 125 480 C124 484 123 496 121 513 C124 498 127 484 129 479 C136 443 142 419 143 413 C148 395 168 327 177 300 L278 0 L362 0 L362 667 L272 667 L272 418 C274 316 278 263 293 160 C280 219 247 334 225 401 L135 667 L51 667 Z M207 727 L317 823 L281 865 L207 803 L134 865 L97 818 L207 727 Z " />
<glyph glyph-name="ncaron" unicode="&#x148;" horiz-adv-x="358" d="M47 447 L47 0 L130 0 L130 289 C130 357 144 382 181 382 C216 382 229 360 229 299 L229 0 L312 0 L312 318 C312 359 309 389 302 404 C289 435 259 454 222 454 C181 454 156 438 130 396 L130 447 L47 447 Z M177 514 L286 637 L245 671 L176 598 L112 671 L66 637 L177 514 Z " />
<glyph glyph-name="napostrophe" unicode="&#x149;" horiz-adv-x="442" d="M99 688 L40 445 L85 432 L171 667 L99 688 Z M131 447 L131 0 L214 0 L214 289 C214 357 228 382 265 382 C300 382 313 360 313 299 L313 0 L395 0 L395 318 C395 359 392 389 385 404 C373 435 342 454 305 454 C264 454 240 438 214 396 L214 447 L131 447 Z " />
<glyph glyph-name="Eng" unicode="&#x14a;" horiz-adv-x="414" d="M51 667 L51 0 L141 0 L141 411 C141 465 145 516 150 536 C160 572 183 594 211 594 C237 594 256 575 265 541 C270 521 272 497 272 446 L272 78 C271 -9 271 -14 264 -28 C257 -45 242 -54 223 -54 C208 -54 197 -50 179 -38 L179 -116 C205 -130 217 -133 240 -133 C281 -133 315 -115 335 -82 C356 -49 362 -14 362 74 L362 475 C362 534 358 580 351 602 C335 649 299 676 254 676 C204 676 173 653 141 590 L141 667 L51 667 Z " />
<glyph glyph-name="eng" unicode="&#x14b;" horiz-adv-x="358" d="M47 447 L47 0 L130 0 L130 289 C130 357 144 382 181 382 C216 382 229 360 229 299 L229 43 C229 -9 229 -9 226 -21 C222 -36 208 -45 190 -45 C178 -45 170 -42 155 -35 L155 -122 C180 -131 192 -133 211 -133 C246 -133 274 -121 290 -100 C307 -77 312 -54 312 6 L312 318 C312 359 309 389 302 404 C289 435 259 454 221 454 C180 454 156 438 130 396 L130 447 L47 447 Z " />
<glyph glyph-name="Omacron" unicode="&#x14c;" horiz-adv-x="423" d="M210 676 C145 676 100 649 74 594 C48 540 38 472 38 349 C38 208 50 123 79 66 C103 19 153 -9 214 -9 C337 -9 385 82 385 317 C385 469 373 547 342 605 C318 650 270 676 210 676 L210 676 Z M211 595 C276 595 291 539 291 308 C291 242 287 182 280 145 C271 97 249 74 212 74 C150 74 132 131 132 331 C132 454 136 512 148 544 C161 579 181 595 211 595 L211 595 Z M99 740 L324 740 L324 802 L99 802 L99 740 Z " />
<glyph glyph-name="omacron" unicode="&#x14d;" horiz-adv-x="341" d="M170 454 C75 454 30 381 30 224 C30 66 75 -7 171 -7 C265 -7 311 67 311 220 C311 382 267 454 170 454 L170 454 Z M172 379 C212 379 226 339 226 222 C226 110 212 70 173 70 C133 70 119 110 119 224 C119 339 133 379 172 379 L172 379 Z M61 536 L279 536 L279 598 L61 598 L61 536 Z " />
<glyph glyph-name="Obreve" unicode="&#x14e;" horiz-adv-x="423" d="M210 676 C145 676 100 649 74 594 C48 540 38 472 38 349 C38 208 50 123 79 66 C103 19 153 -9 214 -9 C337 -9 385 82 385 317 C385 469 373 547 342 605 C318 650 270 676 210 676 L210 676 Z M211 595 C276 595 291 539 291 308 C291 242 287 182 280 145 C271 97 249 74 212 74 C150 74 132 131 132 331 C132 454 136 512 148 544 C161 579 181 595 211 595 L211 595 Z M274 836 C267 800 250 786 213 786 C174 786 156 800 149 836 L94 836 C101 766 140 730 210 730 C287 730 321 760 329 836 L274 836 Z " />
<glyph glyph-name="obreve" unicode="&#x14f;" horiz-adv-x="341" d="M170 454 C75 454 30 381 30 224 C30 66 75 -7 171 -7 C265 -7 311 67 311 220 C311 382 267 454 170 454 L170 454 Z M172 379 C212 379 226 339 226 222 C226 110 212 70 173 70 C133 70 119 110 119 224 C119 339 133 379 172 379 L172 379 Z M225 631 C220 586 206 569 171 569 C137 569 118 590 116 631 L61 631 C66 553 102 516 172 516 C243 516 276 551 280 631 L225 631 Z " />
<glyph glyph-name="Ohungarumlaut" unicode="&#x150;" horiz-adv-x="423" d="M210 676 C145 676 100 649 74 594 C48 540 38 472 38 349 C38 208 50 123 79 66 C103 19 153 -9 214 -9 C337 -9 385 82 385 317 C385 469 373 547 342 605 C318 650 270 676 210 676 L210 676 Z M211 595 C276 595 291 539 291 308 C291 242 287 182 280 145 C271 97 249 74 212 74 C150 74 132 131 132 331 C132 454 136 512 148 544 C161 579 181 595 211 595 L211 595 Z M190 862 L114 757 L152 727 L246 820 L190 862 Z M323 862 L248 757 L286 727 L379 820 L323 862 Z " />
<glyph glyph-name="ohungarumlaut" unicode="&#x151;" horiz-adv-x="341" d="M170 454 C75 454 30 381 30 224 C30 66 75 -7 171 -7 C265 -7 311 67 311 220 C311 382 267 454 170 454 L170 454 Z M172 379 C212 379 226 339 226 222 C226 110 212 70 173 70 C133 70 119 110 119 224 C119 339 133 379 172 379 L172 379 Z M206 638 L150 671 L89 535 L129 514 L206 638 Z M319 638 L264 671 L203 535 L242 514 L319 638 Z " />
<glyph glyph-name="OE" unicode="&#x152;" horiz-adv-x="564" d="M290 667 L290 616 C266 660 239 676 192 676 C144 676 103 652 78 609 C52 562 38 465 38 328 C38 210 50 121 74 71 C98 20 141 -9 193 -9 C240 -9 268 8 294 52 L294 0 L526 0 L526 76 L374 76 L374 303 L509 303 L509 379 L374 379 L374 591 L521 591 L521 667 L290 667 Z M212 597 C241 597 263 578 274 544 C286 508 289 461 289 329 C289 217 286 168 277 134 C266 94 244 73 212 73 C152 73 130 143 130 334 C130 526 152 597 212 597 L212 597 Z " />
<glyph glyph-name="oe" unicode="&#x153;" horiz-adv-x="524" d="M415 151 C415 95 396 65 363 65 C325 65 310 100 305 207 L494 207 C494 268 490 308 482 340 C463 416 424 454 362 454 C315 454 286 436 265 395 C247 435 216 454 170 454 C129 454 88 434 67 403 C42 367 30 309 30 229 C30 68 74 -7 168 -7 C217 -7 242 9 264 54 C290 9 315 -7 361 -7 C440 -7 488 50 492 151 L415 151 Z M170 379 C209 379 226 331 226 222 C226 117 208 68 171 68 C132 68 115 116 115 224 C115 330 132 379 170 379 L170 379 Z M307 264 C307 321 309 338 315 353 C324 373 339 385 356 385 C393 385 407 352 409 264 L307 264 Z " />
<glyph glyph-name="Racute" unicode="&#x154;" horiz-adv-x="373" d="M51 667 L51 0 L141 0 L141 326 L263 0 L354 0 L232 324 C257 330 270 338 284 356 C310 390 324 436 324 493 C324 561 304 614 267 642 C243 661 218 667 169 667 L51 667 Z M141 593 L155 593 C184 593 200 588 212 575 C228 558 237 521 237 478 C237 435 226 403 206 387 C193 376 176 372 141 371 L141 593 Z M209 854 L116 763 L149 727 L257 802 L209 854 Z " />
<glyph glyph-name="racute" unicode="&#x155;" horiz-adv-x="236" d="M47 447 L47 0 L130 0 L130 271 C130 316 134 333 151 350 C164 365 184 372 211 372 C217 372 219 372 226 371 L226 458 C183 455 154 436 130 391 L130 447 L47 447 Z M218 633 L159 671 L86 539 L131 514 L218 633 Z " />
<glyph glyph-name="Rcommaaccent" unicode="&#x156;" horiz-adv-x="373" d="M51 667 L51 0 L141 0 L141 326 L263 0 L354 0 L232 324 C257 330 270 338 284 356 C310 390 324 436 324 493 C324 561 304 614 267 642 C243 661 218 667 169 667 L51 667 Z M141 593 L155 593 C184 593 200 588 212 575 C228 558 237 521 237 478 C237 435 226 403 206 387 C193 376 176 372 141 371 L141 593 Z M179 -46 L136 -176 L181 -194 L243 -70 L179 -46 Z " />
<glyph glyph-name="rcommaaccent" unicode="&#x157;" horiz-adv-x="236" d="M47 447 L47 0 L130 0 L130 271 C130 316 134 333 151 350 C164 365 184 372 211 372 C217 372 219 372 226 371 L226 458 C183 455 154 436 130 391 L130 447 L47 447 Z M80 -45 L36 -175 L76 -192 L141 -69 L80 -45 Z " />
<glyph glyph-name="Rcaron" unicode="&#x158;" horiz-adv-x="373" d="M51 667 L51 0 L141 0 L141 326 L263 0 L354 0 L232 324 C257 330 270 338 284 356 C310 390 324 436 324 493 C324 561 304 614 267 642 C243 661 218 667 169 667 L51 667 Z M141 593 L155 593 C184 593 200 588 212 575 C228 558 237 521 237 478 C237 435 226 403 206 387 C193 376 176 372 141 371 L141 593 Z M164 727 L274 823 L238 865 L164 803 L90 865 L53 818 L164 727 Z " />
<glyph glyph-name="rcaron" unicode="&#x159;" horiz-adv-x="236" d="M47 447 L47 0 L130 0 L130 271 C130 316 134 333 151 350 C164 365 184 372 211 372 C217 372 219 372 226 371 L226 458 C183 455 154 436 130 391 L130 447 L47 447 Z M129 514 L239 637 L197 671 L128 598 L64 671 L18 637 L129 514 Z " />
<glyph glyph-name="Sacute" unicode="&#x15a;" horiz-adv-x="330" d="M274 653 C240 671 219 676 182 676 C89 676 31 610 31 506 C31 468 39 435 54 407 C70 377 83 362 141 305 C200 247 217 216 217 168 C217 112 187 77 139 77 C110 77 87 86 52 112 L52 23 C82 0 110 -9 150 -9 C241 -9 305 64 305 168 C305 207 296 244 278 277 C266 301 251 320 211 361 C132 440 119 461 119 506 C119 558 152 595 200 595 C224 595 244 587 273 565 L274 653 Z M229 854 L136 763 L168 727 L276 802 L229 854 Z " />
<glyph glyph-name="sacute" unicode="&#x15b;" horiz-adv-x="260" d="M219 438 C193 453 173 458 145 458 C74 458 25 408 25 335 C25 282 44 252 113 198 C154 167 164 152 164 124 C164 89 143 68 108 68 C84 68 67 75 40 94 L40 14 C70 -3 85 -7 112 -7 C190 -7 240 45 240 125 C240 180 222 210 161 257 C117 290 103 309 103 333 C103 362 126 383 156 383 C178 383 199 376 219 361 L219 438 Z M224 633 L164 671 L92 539 L136 514 L224 633 Z " />
<glyph glyph-name="Scircumflex" unicode="&#x15c;" horiz-adv-x="330" d="M274 653 C240 671 219 676 182 676 C89 676 31 610 31 506 C31 468 39 435 54 407 C70 377 83 362 141 305 C200 247 217 216 217 168 C217 112 187 77 139 77 C110 77 87 86 52 112 L52 23 C82 0 110 -9 150 -9 C241 -9 305 64 305 168 C305 207 296 244 278 277 C266 301 251 320 211 361 C132 440 119 461 119 506 C119 558 152 595 200 595 C224 595 244 587 273 565 L274 653 Z M175 865 L65 768 L101 727 L175 789 L249 727 L286 773 L175 865 Z " />
<glyph glyph-name="scircumflex" unicode="&#x15d;" horiz-adv-x="260" d="M219 438 C193 453 173 458 145 458 C74 458 25 408 25 335 C25 282 44 252 113 198 C154 167 164 152 164 124 C164 89 143 68 108 68 C84 68 67 75 40 94 L40 14 C70 -3 85 -7 112 -7 C190 -7 240 45 240 125 C240 180 222 210 161 257 C117 290 103 309 103 333 C103 362 126 383 156 383 C178 383 199 376 219 361 L219 438 Z M131 671 L20 548 L66 514 L130 587 L199 514 L241 548 L131 671 Z " />
<glyph glyph-name="Scedilla" unicode="&#x15e;" horiz-adv-x="330" d="M274 653 C240 671 219 676 182 676 C89 676 31 610 31 506 C31 468 39 435 54 407 C70 377 83 362 141 305 C200 247 217 216 217 168 C217 112 187 77 139 77 C110 77 87 86 52 112 L52 23 C82 0 110 -9 150 -9 C241 -9 305 64 305 168 C305 207 296 244 278 277 C266 301 251 320 211 361 C132 440 119 461 119 506 C119 558 152 595 200 595 C224 595 244 587 273 565 L274 653 Z M139 -41 L85 -167 L128 -189 L201 -71 L139 -41 Z " />
<glyph glyph-name="scedilla" unicode="&#x15f;" horiz-adv-x="260" d="M219 438 C193 453 173 458 145 458 C74 458 25 408 25 335 C25 282 44 252 113 198 C154 167 164 152 164 124 C164 89 143 68 108 68 C84 68 67 75 40 94 L40 14 C70 -3 85 -7 112 -7 C190 -7 240 45 240 125 C240 180 222 210 161 257 C117 290 103 309 103 333 C103 362 126 383 156 383 C178 383 199 376 219 361 L219 438 Z M109 -45 L54 -171 L92 -190 L167 -73 L109 -45 Z " />
<glyph glyph-name="Scaron" unicode="&#x160;" horiz-adv-x="330" d="M274 653 C240 671 219 676 182 676 C89 676 31 610 31 506 C31 468 39 435 54 407 C70 377 83 362 141 305 C200 247 217 216 217 168 C217 112 187 77 139 77 C110 77 87 86 52 112 L52 23 C82 0 110 -9 150 -9 C241 -9 305 64 305 168 C305 207 296 244 278 277 C266 301 251 320 211 361 C132 440 119 461 119 506 C119 558 152 595 200 595 C224 595 244 587 273 565 L274 653 Z M173 727 L283 823 L247 865 L173 803 L99 865 L62 818 L173 727 Z " />
<glyph glyph-name="scaron" unicode="&#x161;" horiz-adv-x="260" d="M219 438 C193 453 173 458 145 458 C74 458 25 408 25 335 C25 282 44 252 113 198 C154 167 164 152 164 124 C164 89 143 68 108 68 C84 68 67 75 40 94 L40 14 C70 -3 85 -7 112 -7 C190 -7 240 45 240 125 C240 180 222 210 161 257 C117 290 103 309 103 333 C103 362 126 383 156 383 C178 383 199 376 219 361 L219 438 Z M131 514 L241 637 L199 671 L130 598 L66 671 L20 637 L131 514 Z " />
<glyph glyph-name="Tcommaaccent" unicode="&#x162;" horiz-adv-x="289" d="M-2 667 L-2 588 L102 588 L102 0 L190 0 L190 588 L291 588 L291 667 L-2 667 Z M117 -46 L74 -176 L119 -194 L181 -70 L117 -46 Z " />
<glyph glyph-name="tcommaaccent" unicode="&#x163;" horiz-adv-x="196" d="M56 572 L56 447 L11 447 L11 383 L56 383 L56 0 L139 0 L139 383 L184 383 L184 447 L139 447 L139 572 L56 572 Z M73 -45 L29 -175 L69 -192 L134 -69 L73 -45 Z " />
<glyph glyph-name="Tcaron" unicode="&#x164;" horiz-adv-x="289" d="M-2 667 L-2 588 L102 588 L102 0 L190 0 L190 588 L291 588 L291 667 L-2 667 Z M145 727 L255 823 L219 865 L145 803 L72 865 L34 818 L145 727 Z " />
<glyph glyph-name="tcaron" unicode="&#x165;" horiz-adv-x="287" d="M56 572 L56 447 L11 447 L11 383 L56 383 L56 0 L139 0 L139 383 L184 383 L184 447 L139 447 L139 572 L56 572 Z M226 629 L182 499 L222 482 L287 605 L226 629 Z " />
<glyph glyph-name="Tbar" unicode="&#x166;" horiz-adv-x="289" d="M278 499 L190 499 L190 588 L291 588 L291 667 L-2 667 L-2 588 L102 588 L102 499 L11 499 L11 430 L102 430 L102 0 L190 0 L190 430 L278 430 L278 499 Z " />
<glyph glyph-name="tbar" unicode="&#x167;" horiz-adv-x="196" d="M184 316 L139 316 L139 383 L184 383 L184 447 L139 447 L139 572 L56 572 L56 447 L11 447 L11 383 L56 383 L56 316 L11 316 L11 257 L56 257 L56 0 L139 0 L139 257 L184 257 L184 316 Z " />
<glyph glyph-name="Utilde" unicode="&#x168;" horiz-adv-x="409" d="M51 667 L51 196 C51 122 56 88 69 60 C92 14 137 -9 203 -9 C258 -9 298 6 324 35 C350 64 358 101 358 183 L358 667 L270 667 L270 183 C270 144 268 125 264 113 C256 88 237 76 206 76 C178 76 159 87 149 107 C142 120 139 145 139 196 L139 667 L51 667 Z M265 818 C264 801 260 794 250 794 C242 794 232 797 210 807 C175 823 169 825 155 825 C117 825 94 793 92 736 L143 736 C144 753 149 760 160 760 C170 760 182 756 200 747 C229 732 236 730 250 730 C291 730 316 763 316 818 L265 818 Z " />
<glyph glyph-name="utilde" unicode="&#x169;" horiz-adv-x="359" d="M47 447 L47 152 C47 112 50 89 57 68 C74 17 114 -7 179 -7 C241 -7 279 13 299 55 C311 79 313 101 313 180 L313 447 L230 447 L230 180 C230 120 230 115 226 104 C221 82 206 72 181 72 C161 72 147 80 138 95 C132 107 131 116 130 180 L130 447 L47 447 Z M241 608 C238 588 234 582 224 582 C216 582 204 586 193 592 C166 607 153 611 136 611 C93 611 73 585 68 524 L120 524 C122 541 128 548 140 548 C150 548 154 546 184 531 C201 523 212 520 225 520 C268 520 286 543 292 608 L241 608 Z " />
<glyph glyph-name="Umacron" unicode="&#x16a;" horiz-adv-x="409" d="M51 667 L51 196 C51 122 56 88 69 60 C92 14 137 -9 203 -9 C258 -9 298 6 324 35 C350 64 358 101 358 183 L358 667 L270 667 L270 183 C270 144 268 125 264 113 C256 88 237 76 206 76 C178 76 159 87 149 107 C142 120 139 145 139 196 L139 667 L51 667 Z M92 740 L317 740 L317 802 L92 802 L92 740 Z " />
<glyph glyph-name="umacron" unicode="&#x16b;" horiz-adv-x="359" d="M47 447 L47 152 C47 112 50 89 57 68 C74 17 114 -7 179 -7 C241 -7 279 13 299 55 C311 79 313 101 313 180 L313 447 L230 447 L230 180 C230 120 230 115 226 104 C221 82 206 72 181 72 C161 72 147 80 138 95 C132 107 131 116 130 180 L130 447 L47 447 Z M71 536 L289 536 L289 598 L71 598 L71 536 Z " />
<glyph glyph-name="Ubreve" unicode="&#x16c;" horiz-adv-x="409" d="M51 667 L51 196 C51 122 56 88 69 60 C92 14 137 -9 203 -9 C258 -9 298 6 324 35 C350 64 358 101 358 183 L358 667 L270 667 L270 183 C270 144 268 125 264 113 C256 88 237 76 206 76 C178 76 159 87 149 107 C142 120 139 145 139 196 L139 667 L51 667 Z M267 836 C260 800 243 786 206 786 C167 786 149 800 142 836 L87 836 C94 766 133 730 203 730 C280 730 314 760 322 836 L267 836 Z " />
<glyph glyph-name="ubreve" unicode="&#x16d;" horiz-adv-x="359" d="M47 447 L47 152 C47 112 50 89 57 68 C74 17 114 -7 179 -7 C241 -7 279 13 299 55 C311 79 313 101 313 180 L313 447 L230 447 L230 180 C230 120 230 115 226 104 C221 82 206 72 181 72 C161 72 147 80 138 95 C132 107 131 116 130 180 L130 447 L47 447 Z M235 631 C230 586 215 569 181 569 C146 569 127 590 125 631 L70 631 C76 553 112 516 182 516 C253 516 286 551 290 631 L235 631 Z " />
<glyph glyph-name="Uring" unicode="&#x16e;" horiz-adv-x="409" d="M51 667 L51 196 C51 122 56 88 69 60 C92 14 137 -9 203 -9 C258 -9 298 6 324 35 C350 64 358 101 358 183 L358 667 L270 667 L270 183 C270 144 268 125 264 113 C256 88 237 76 206 76 C178 76 159 87 149 107 C142 120 139 145 139 196 L139 667 L51 667 Z M206 872 C165 872 132 840 132 800 C132 759 165 726 205 726 C245 726 278 759 278 799 C278 839 245 872 206 872 L206 872 Z M205 827 C220 827 233 814 233 799 C233 784 221 771 205 771 C189 771 177 783 177 799 C177 815 190 827 205 827 L205 827 Z " />
<glyph glyph-name="uring" unicode="&#x16f;" horiz-adv-x="359" d="M47 447 L47 152 C47 112 50 89 57 68 C74 17 114 -7 179 -7 C241 -7 279 13 299 55 C311 79 313 101 313 180 L313 447 L230 447 L230 180 C230 120 230 115 226 104 C221 82 206 72 181 72 C161 72 147 80 138 95 C132 107 131 116 130 180 L130 447 L47 447 Z M182 649 C141 649 109 618 109 578 C109 538 141 506 181 506 C221 506 253 538 253 578 C253 616 221 649 182 649 L182 649 Z M181 608 C197 608 211 594 211 579 C211 562 197 549 181 549 C164 549 151 562 151 579 C151 595 165 608 181 608 L181 608 Z " />
<glyph glyph-name="Uhungarumlaut" unicode="&#x170;" horiz-adv-x="409" d="M51 667 L51 196 C51 122 56 88 69 60 C92 14 137 -9 203 -9 C258 -9 298 6 324 35 C350 64 358 101 358 183 L358 667 L270 667 L270 183 C270 144 268 125 264 113 C256 88 237 76 206 76 C178 76 159 87 149 107 C142 120 139 145 139 196 L139 667 L51 667 Z M183 862 L107 757 L145 727 L239 820 L183 862 Z M316 862 L241 757 L279 727 L372 820 L316 862 Z " />
<glyph glyph-name="uhungarumlaut" unicode="&#x171;" horiz-adv-x="359" d="M47 447 L47 152 C47 112 50 89 57 68 C74 17 114 -7 179 -7 C241 -7 279 13 299 55 C311 79 313 101 313 180 L313 447 L230 447 L230 180 C230 120 230 115 226 104 C221 82 206 72 181 72 C161 72 147 80 138 95 C132 107 131 116 130 180 L130 447 L47 447 Z M212 638 L157 671 L96 535 L135 514 L212 638 Z M326 638 L270 671 L209 535 L249 514 L326 638 Z " />
<glyph glyph-name="Uogonek" unicode="&#x172;" horiz-adv-x="409" d="M51 667 L51 196 C51 122 56 88 69 60 C91 16 138 -9 198 -9 C205 -9 221 -8 236 -6 C211 -31 202 -52 202 -78 C202 -120 234 -147 284 -147 C302 -147 313 -145 331 -138 L331 -87 C317 -92 303 -95 289 -95 C267 -95 255 -84 255 -63 C255 -33 267 -12 295 9 C348 52 359 83 358 183 L358 667 L270 667 L270 183 C270 144 268 125 264 113 C256 88 237 76 206 76 C178 76 159 87 149 107 C142 120 139 145 139 196 L139 667 L51 667 Z " />
<glyph glyph-name="uogonek" unicode="&#x173;" horiz-adv-x="359" d="M47 447 L47 152 C47 112 50 89 57 68 C74 18 114 -8 175 -8 C180 -8 194 -7 206 -6 C183 -27 174 -46 174 -73 C174 -115 206 -142 256 -142 C274 -142 286 -140 304 -133 L304 -82 C290 -87 276 -90 261 -90 C240 -90 227 -79 227 -60 C227 -39 239 -16 260 5 C309 51 313 65 313 180 L313 447 L230 447 L230 180 C230 120 230 115 226 103 C221 81 206 71 181 71 C161 71 147 79 138 94 C132 106 131 115 130 180 L130 447 L47 447 Z " />
<glyph glyph-name="Wcircumflex" unicode="&#x174;" horiz-adv-x="524" d="M1 667 L116 0 L188 0 L237 288 C238 292 241 310 245 338 C247 360 250 381 253 402 C254 407 256 430 259 466 C260 470 261 480 262 495 C267 438 269 417 271 405 L280 338 L288 288 L335 0 L405 0 L522 667 L437 667 L398 406 C388 337 376 235 370 170 C366 227 357 299 343 387 L298 667 L229 667 L181 378 C169 302 164 256 155 165 C154 179 153 186 153 187 L148 244 C145 279 144 286 133 357 L88 667 L1 667 Z M262 865 L152 768 L188 727 L262 789 L335 727 L373 773 L262 865 Z " />
<glyph glyph-name="wcircumflex" unicode="&#x175;" horiz-adv-x="449" d="M7 447 L116 0 L173 0 L207 178 C219 249 224 287 226 328 C227 317 228 308 228 304 C230 281 231 265 232 261 C235 232 238 211 246 171 L280 0 L337 0 L442 447 L361 447 L330 282 C321 236 314 180 308 126 C301 203 300 211 286 282 L257 447 L198 447 L167 282 C153 215 151 198 143 126 C135 206 132 232 119 303 L94 447 L7 447 Z M226 671 L114 548 L161 514 L224 587 L293 514 L335 548 L226 671 Z " />
<glyph glyph-name="Ycircumflex" unicode="&#x176;" horiz-adv-x="341" d="M-2 667 L137 287 L137 0 L227 0 L227 287 L343 667 L249 667 L212 516 L207 493 C197 449 191 423 190 415 C186 396 184 386 180 359 C173 404 168 423 147 491 C142 504 139 514 137 522 L93 667 L-2 667 Z M171 865 L61 768 L97 727 L171 789 L244 727 L281 773 L171 865 Z " />
<glyph glyph-name="ycircumflex" unicode="&#x177;" horiz-adv-x="326" d="M3 447 L122 36 L53 -183 L140 -183 L322 447 L239 447 L162 135 L96 447 L3 447 Z M164 671 L53 548 L99 514 L163 587 L232 514 L274 548 L164 671 Z " />
<glyph glyph-name="Ydieresis" unicode="&#x178;" horiz-adv-x="341" d="M-2 667 L137 287 L137 0 L227 0 L227 287 L343 667 L249 667 L212 516 L207 493 C197 449 191 423 190 415 C186 396 184 386 180 359 C173 404 168 423 147 491 C142 504 139 514 137 522 L93 667 L-2 667 Z M89 833 C61 833 39 811 39 784 C39 756 61 734 89 734 C116 734 138 756 138 784 C138 811 116 833 89 833 L89 833 Z M254 833 C226 833 204 811 204 784 C204 756 226 734 254 734 C281 734 303 756 303 784 C303 811 281 833 254 833 L254 833 Z " />
<glyph glyph-name="Zacute" unicode="&#x179;" horiz-adv-x="334" d="M35 667 L35 591 L213 591 L11 0 L317 0 L317 79 L128 79 L328 667 L35 667 Z M233 854 L140 763 L172 727 L280 802 L233 854 Z " />
<glyph glyph-name="zacute" unicode="&#x17a;" horiz-adv-x="298" d="M25 447 L25 374 L168 374 L13 0 L277 0 L277 75 L135 75 L284 447 L25 447 Z M241 633 L182 671 L109 539 L154 514 L241 633 Z " />
<glyph glyph-name="Zdotaccent" unicode="&#x17b;" horiz-adv-x="334" d="M35 667 L35 591 L213 591 L11 0 L317 0 L317 79 L128 79 L328 667 L35 667 Z M182 837 C152 837 129 814 129 786 C129 757 152 734 181 734 C209 734 233 757 233 786 C233 814 209 837 182 837 L182 837 Z " />
<glyph glyph-name="zdotaccent" unicode="&#x17c;" horiz-adv-x="298" d="M25 447 L25 374 L168 374 L13 0 L277 0 L277 75 L135 75 L284 447 L25 447 Z M156 622 C127 622 103 599 103 570 C103 541 126 517 155 517 C184 517 208 541 208 570 C208 598 184 622 156 622 L156 622 Z " />
<glyph glyph-name="Zcaron" unicode="&#x17d;" horiz-adv-x="334" d="M35 667 L35 591 L213 591 L11 0 L317 0 L317 79 L128 79 L328 667 L35 667 Z M181 727 L291 823 L255 865 L181 803 L107 865 L70 818 L181 727 Z " />
<glyph glyph-name="zcaron" unicode="&#x17e;" horiz-adv-x="298" d="M25 447 L25 374 L168 374 L13 0 L277 0 L277 75 L135 75 L284 447 L25 447 Z M156 514 L265 637 L223 671 L154 598 L90 671 L44 637 L156 514 Z " />
<glyph glyph-name="longs" unicode="&#x17f;" horiz-adv-x="217" d="M15 447 L15 382 L56 382 L56 0 L139 0 L139 566 C140 618 140 618 142 630 C146 645 160 654 178 654 C190 654 198 651 213 644 L213 731 C188 740 176 742 157 742 C122 742 95 730 78 709 C61 685 56 663 56 603 L56 447 L15 447 Z " />
<glyph glyph-name="uni018F" unicode="&#x18f;" horiz-adv-x="423" d="M39 360 C40 194 50 122 79 66 C104 19 153 -9 214 -9 C338 -9 385 81 385 321 C385 468 373 547 342 605 C318 650 270 676 210 676 C114 676 65 621 44 490 L134 474 C147 566 166 595 211 595 C247 595 271 572 278 532 C284 497 291 414 291 379 L291 359 L39 360 Z M289 297 C290 277 291 261 291 252 C291 206 284 154 274 122 C265 92 242 74 212 74 C185 74 163 90 153 116 C140 149 132 207 132 257 C132 264 133 280 134 297 L289 297 Z " />
<glyph glyph-name="florin" unicode="&#x192;" horiz-adv-x="379" d="M111 410 L165 410 L106 74 C88 -30 76 -52 38 -52 C27 -52 19 -51 0 -45 L-13 -121 C10 -130 22 -132 43 -132 C97 -132 134 -108 156 -59 C168 -34 178 9 190 77 L249 410 L317 410 L324 445 L255 445 L277 569 C290 643 298 656 328 656 C340 656 348 654 364 646 L378 729 C358 738 345 741 324 741 C277 741 240 720 222 683 C212 665 204 630 193 569 L171 445 L117 445 L111 410 Z " />
<glyph glyph-name="uni01C4" unicode="&#x1c4;" horiz-adv-x="745" d="M51 667 L51 0 L124 0 C222 0 273 15 309 53 C354 103 373 184 373 324 C373 472 356 550 313 606 C278 651 239 667 161 667 L51 667 Z M141 591 L152 591 C249 591 279 527 279 323 C279 130 250 78 141 78 L141 591 Z M446 667 L446 591 L624 591 L422 0 L729 0 L729 79 L539 79 L740 667 L446 667 Z M592 727 L702 823 L666 865 L592 803 L519 865 L481 818 L592 727 Z " />
<glyph glyph-name="uni01C5" unicode="&#x1c5;" horiz-adv-x="709" d="M51 667 L51 0 L124 0 C222 0 273 15 309 53 C354 103 373 184 373 324 C373 472 356 550 313 606 C278 651 239 667 161 667 L51 667 Z M141 591 L152 591 C249 591 279 527 279 323 C279 130 250 78 141 78 L141 591 Z M436 447 L436 374 L579 374 L424 0 L688 0 L688 75 L546 75 L696 447 L436 447 Z M567 514 L676 637 L635 671 L566 598 L502 671 L456 637 L567 514 Z " />
<glyph glyph-name="uni01C6" unicode="&#x1c6;" horiz-adv-x="647" d="M302 733 L219 733 L219 397 C196 440 176 454 139 454 C63 454 30 385 30 229 C30 66 63 -7 137 -7 C176 -7 196 9 219 58 L219 0 L302 0 L302 733 Z M169 379 C207 379 222 334 222 224 C222 112 207 68 169 68 C129 68 115 108 115 226 C115 338 129 379 169 379 L169 379 Z M374 447 L374 374 L517 374 L362 0 L626 0 L626 75 L484 75 L634 447 L374 447 Z M505 514 L614 637 L572 671 L503 598 L440 671 L393 637 L505 514 Z " />
<glyph glyph-name="uni01C7" unicode="&#x1c7;" horiz-adv-x="551" d="M51 667 L51 0 L288 0 L288 76 L141 76 L141 667 L51 667 Z M445 667 L445 186 C445 134 444 126 439 112 C431 89 411 76 386 76 C368 76 357 80 326 99 L326 9 C348 -3 373 -9 403 -9 C451 -9 491 10 512 42 C529 67 535 98 535 155 L535 667 L445 667 Z " />
<glyph glyph-name="uni01C8" unicode="&#x1c8;" horiz-adv-x="469" d="M51 667 L51 0 L288 0 L288 76 L141 76 L141 667 L51 667 Z M339 447 L339 -183 L422 -183 L422 447 L339 447 Z M378 637 C346 637 321 612 321 581 C321 550 346 525 377 525 C408 525 433 550 433 581 C433 612 408 637 378 637 L378 637 Z " />
<glyph glyph-name="uni01C9" unicode="&#x1c9;" horiz-adv-x="352" d="M47 733 L47 0 L130 0 L130 733 L47 733 Z M223 447 L223 -183 L306 -183 L306 447 L223 447 Z M262 637 C230 637 205 612 205 581 C205 550 230 525 261 525 C292 525 317 550 317 581 C317 612 292 637 262 637 L262 637 Z " />
<glyph glyph-name="uni01CA" unicode="&#x1ca;" horiz-adv-x="672" d="M51 667 L51 0 L140 0 L135 291 L134 330 C132 358 131 385 129 412 C128 435 126 458 125 480 C124 484 123 496 121 513 C124 498 127 484 129 479 C136 443 142 419 143 413 C148 395 168 327 177 300 L278 0 L362 0 L362 667 L272 667 L272 418 C274 316 278 263 293 160 C280 219 247 334 225 401 L135 667 L51 667 Z M530 667 L530 186 C530 134 529 126 524 112 C516 89 496 76 471 76 C453 76 442 80 411 99 L411 9 C433 -3 458 -9 488 -9 C536 -9 576 10 597 42 C614 67 620 98 620 155 L620 667 L530 667 Z " />
<glyph glyph-name="uni01CB" unicode="&#x1cb;" horiz-adv-x="589" d="M51 667 L51 0 L140 0 L135 291 L134 330 C132 358 131 385 129 412 C128 435 126 458 125 480 C124 484 123 496 121 513 C124 498 127 484 129 479 C136 443 142 419 143 413 C148 395 168 327 177 300 L278 0 L362 0 L362 667 L272 667 L272 418 C274 316 278 263 293 160 C280 219 247 334 225 401 L135 667 L51 667 Z M459 447 L459 -183 L542 -183 L542 447 L459 447 Z M499 637 C467 637 442 612 442 581 C442 550 467 525 498 525 C529 525 554 550 554 581 C554 612 529 637 499 637 L499 637 Z " />
<glyph glyph-name="uni01CC" unicode="&#x1cc;" horiz-adv-x="534" d="M47 447 L47 0 L130 0 L130 289 C130 357 144 382 181 382 C216 382 229 360 229 299 L229 0 L312 0 L312 318 C312 359 309 389 302 404 C289 435 259 454 222 454 C181 454 156 438 130 396 L130 447 L47 447 Z M405 447 L405 -183 L488 -183 L488 447 L405 447 Z M444 637 C412 637 387 612 387 581 C387 550 412 525 443 525 C474 525 499 550 499 581 C499 612 474 637 444 637 L444 637 Z " />
<glyph glyph-name="uni01CD" unicode="&#x1cd;" horiz-adv-x="360" d="M146 667 L1 0 L87 0 L113 130 L245 130 L270 0 L359 0 L216 667 L146 667 Z M232 199 L125 199 L142 285 C159 373 171 453 180 537 C185 483 200 372 212 306 L232 199 Z M181 727 L291 823 L255 865 L181 803 L107 865 L70 818 L181 727 Z " />
<glyph glyph-name="uni01CE" unicode="&#x1ce;" horiz-adv-x="349" d="M302 447 L219 447 L219 397 C197 438 174 454 137 454 C101 454 70 432 54 396 C37 358 30 307 30 229 C30 66 63 -7 137 -7 C176 -7 196 9 219 58 L219 0 L302 0 L302 447 Z M169 379 C207 379 222 334 222 224 C222 112 207 68 169 68 C129 68 115 108 115 226 C115 338 129 379 169 379 L169 379 Z M176 514 L285 637 L244 671 L175 598 L111 671 L65 637 L176 514 Z " />
<glyph glyph-name="uni01CF" unicode="&#x1cf;" horiz-adv-x="193" d="M51 667 L51 0 L141 0 L141 667 L51 667 Z M97 727 L207 823 L171 865 L97 803 L23 865 L-14 818 L97 727 Z " />
<glyph glyph-name="uni01D0" unicode="&#x1d0;" horiz-adv-x="176" d="M47 447 L47 0 L130 0 L130 447 L47 447 Z M89 514 L199 637 L157 671 L88 598 L24 671 L-22 637 L89 514 Z " />
<glyph glyph-name="uni01D1" unicode="&#x1d1;" horiz-adv-x="423" d="M210 676 C145 676 100 649 74 594 C48 540 38 472 38 349 C38 208 50 123 79 66 C103 19 153 -9 214 -9 C337 -9 385 82 385 317 C385 469 373 547 342 605 C318 650 270 676 210 676 L210 676 Z M211 595 C276 595 291 539 291 308 C291 242 287 182 280 145 C271 97 249 74 212 74 C150 74 132 131 132 331 C132 454 136 512 148 544 C161 579 181 595 211 595 L211 595 Z M212 727 L322 823 L286 865 L212 803 L138 865 L101 818 L212 727 Z " />
<glyph glyph-name="uni01D2" unicode="&#x1d2;" horiz-adv-x="341" d="M170 454 C75 454 30 381 30 224 C30 66 75 -7 171 -7 C265 -7 311 67 311 220 C311 382 267 454 170 454 L170 454 Z M172 379 C212 379 226 339 226 222 C226 110 212 70 173 70 C133 70 119 110 119 224 C119 339 133 379 172 379 L172 379 Z M171 514 L281 637 L239 671 L170 598 L106 671 L60 637 L171 514 Z " />
<glyph glyph-name="uni01D3" unicode="&#x1d3;" horiz-adv-x="409" d="M51 667 L51 196 C51 122 56 88 69 60 C92 14 137 -9 203 -9 C258 -9 298 6 324 35 C350 64 358 101 358 183 L358 667 L270 667 L270 183 C270 144 268 125 264 113 C256 88 237 76 206 76 C178 76 159 87 149 107 C142 120 139 145 139 196 L139 667 L51 667 Z M205 727 L315 823 L279 865 L205 803 L132 865 L95 818 L205 727 Z " />
<glyph glyph-name="uni01D4" unicode="&#x1d4;" horiz-adv-x="359" d="M47 447 L47 152 C47 112 50 89 57 68 C74 17 114 -7 179 -7 C241 -7 279 13 299 55 C311 79 313 101 313 180 L313 447 L230 447 L230 180 C230 120 230 115 226 104 C221 82 206 72 181 72 C161 72 147 80 138 95 C132 107 131 116 130 180 L130 447 L47 447 Z M181 514 L290 637 L249 671 L180 598 L116 671 L70 637 L181 514 Z " />
<glyph glyph-name="uni01DD" unicode="&#x1dd;" horiz-adv-x="326" d="M110 296 C111 354 128 383 161 383 C200 383 217 341 218 239 L30 239 C30 185 33 150 39 118 C58 35 100 -7 164 -7 C207 -7 248 16 267 51 C289 90 299 145 299 224 C299 289 293 333 280 371 C261 423 218 454 162 454 C112 454 69 428 51 385 C39 359 35 340 33 296 L110 296 Z M218 180 C212 89 200 63 166 63 C133 63 121 90 114 180 L218 180 Z " />
<glyph glyph-name="Gcaron" unicode="&#x1e6;" horiz-adv-x="412" d="M211 351 L211 275 L289 275 L289 243 C289 119 268 74 211 74 C149 74 131 131 131 333 C131 538 149 597 209 597 C252 597 271 574 285 504 L369 539 C342 637 297 676 209 676 C151 676 110 655 82 610 C53 565 38 469 38 331 C38 86 87 -9 214 -9 C297 -9 345 36 362 130 C371 182 374 230 374 351 L211 351 Z M211 727 L321 823 L285 865 L211 803 L137 865 L100 818 L211 727 Z " />
<glyph glyph-name="gcaron" unicode="&#x1e7;" horiz-adv-x="349" d="M220 447 L220 394 C195 439 175 454 139 454 C62 454 30 385 30 218 C30 133 39 80 59 42 C75 12 106 -7 139 -7 C177 -7 201 12 220 55 L220 -32 C220 -61 219 -73 216 -86 C210 -107 193 -119 170 -119 C134 -119 117 -96 117 -47 L37 -47 C36 -53 36 -59 36 -61 C36 -140 85 -188 167 -188 C220 -188 262 -169 283 -136 C299 -111 303 -85 303 -14 L303 447 L220 447 Z M165 379 C204 379 221 329 221 219 C221 106 209 68 172 68 C130 68 115 112 115 228 C115 333 130 379 165 379 L165 379 Z M176 514 L286 637 L244 671 L175 598 L111 671 L65 637 L176 514 Z " />
<glyph glyph-name="uni01F4" unicode="&#x1f4;" horiz-adv-x="412" d="M211 351 L211 275 L289 275 L289 243 C289 119 268 74 211 74 C149 74 131 131 131 333 C131 538 149 597 209 597 C252 597 271 574 285 504 L369 539 C342 637 297 676 209 676 C151 676 110 655 82 610 C53 565 38 469 38 331 C38 86 87 -9 214 -9 C297 -9 345 36 362 130 C371 182 374 230 374 351 L211 351 Z M256 854 L163 763 L196 727 L304 802 L256 854 Z " />
<glyph glyph-name="uni01F5" unicode="&#x1f5;" horiz-adv-x="349" d="M220 447 L220 394 C195 439 175 454 139 454 C62 454 30 385 30 218 C30 133 39 80 59 42 C75 12 106 -7 139 -7 C177 -7 201 12 220 55 L220 -32 C220 -61 219 -73 216 -86 C210 -107 193 -119 170 -119 C134 -119 117 -96 117 -47 L37 -47 C36 -53 36 -59 36 -61 C36 -140 85 -188 167 -188 C220 -188 262 -169 283 -136 C299 -111 303 -85 303 -14 L303 447 L220 447 Z M165 379 C204 379 221 329 221 219 C221 106 209 68 172 68 C130 68 115 112 115 228 C115 333 130 379 165 379 L165 379 Z M232 633 L173 671 L100 539 L145 514 L232 633 Z " />
<glyph glyph-name="Aringacute" unicode="&#x1fa;" horiz-adv-x="360" d="M146 667 L1 0 L87 0 L113 130 L245 130 L270 0 L359 0 L216 667 L146 667 Z M232 199 L125 199 L142 285 C159 373 171 453 180 537 C185 483 200 372 212 306 L232 199 Z M183 832 C142 832 109 800 109 760 C109 719 142 686 182 686 C222 686 255 719 255 759 C255 799 222 832 183 832 L183 832 Z M182 787 C197 787 210 774 210 759 C210 744 198 731 182 731 C166 731 154 743 154 759 C154 775 167 787 182 787 L182 787 Z M172 941 L79 850 L111 814 L219 889 L172 941 Z " />
<glyph glyph-name="aringacute" unicode="&#x1fb;" horiz-adv-x="349" d="M302 447 L219 447 L219 397 C197 438 174 454 137 454 C101 454 70 432 54 396 C37 358 30 307 30 229 C30 66 63 -7 137 -7 C176 -7 196 9 219 58 L219 0 L302 0 L302 447 Z M169 379 C207 379 222 334 222 224 C222 112 207 68 169 68 C129 68 115 108 115 226 C115 338 129 379 169 379 L169 379 Z M177 649 C136 649 104 618 104 578 C104 538 136 506 176 506 C215 506 247 538 247 578 C247 617 215 649 177 649 L177 649 Z M176 608 C192 608 205 594 205 579 C205 562 192 549 176 549 C159 549 146 562 146 579 C146 595 159 608 176 608 L176 608 Z M204 750 L145 788 L72 657 L116 631 L204 750 Z " />
<glyph glyph-name="AEacute" unicode="&#x1fc;" horiz-adv-x="511" d="M142 667 L1 0 L88 0 L113 131 L251 131 L278 0 L509 0 L492 76 L350 76 L299 303 L430 303 L413 379 L281 379 L235 591 L380 591 L364 667 L142 667 Z M239 198 L126 198 L143 289 C160 377 179 506 180 540 C187 465 194 415 207 351 L239 198 Z M282 854 L189 763 L222 727 L330 802 L282 854 Z " />
<glyph glyph-name="aeacute" unicode="&#x1fd;" horiz-adv-x="505" d="M52 348 C82 367 106 374 135 374 C162 374 183 366 194 353 C203 342 207 327 208 297 C209 291 209 277 210 259 C193 279 171 288 140 288 C69 288 30 233 30 135 C30 42 68 -7 140 -7 C190 -7 217 12 240 63 C260 14 292 -7 346 -7 C429 -7 469 42 475 153 L396 153 L396 137 C396 92 377 62 347 62 C306 62 292 97 291 206 L475 206 L475 238 C475 379 429 454 344 454 C299 454 272 438 248 397 C225 439 197 454 142 454 C109 454 89 449 52 432 L52 348 Z M164 223 C199 223 216 196 216 140 C216 89 197 60 164 60 C129 60 113 88 113 146 C113 197 130 223 164 223 L164 223 Z M392 266 L292 266 L292 286 C292 349 310 386 342 386 C374 386 392 349 392 286 L392 266 Z M329 633 L269 671 L197 539 L241 514 L329 633 Z " />
<glyph glyph-name="Oslashacute" unicode="&#x1fe;" horiz-adv-x="423" d="M360 684 L329 622 C299 660 263 676 209 676 C84 676 37 590 37 356 C37 244 45 165 61 112 L7 3 L57 -24 L92 47 C120 11 164 -9 216 -9 C279 -9 324 19 349 73 C375 128 384 197 384 329 C384 435 379 486 361 557 L411 656 L360 684 Z M135 231 C132 268 131 286 131 343 C131 457 135 515 146 545 C158 579 179 595 210 595 C244 595 264 578 272 541 L135 231 Z M287 435 C289 352 290 328 290 300 C290 240 286 179 280 144 C271 96 250 74 213 74 C183 74 160 92 148 126 L287 435 Z M232 854 L139 763 L171 727 L279 802 L232 854 Z " />
<glyph glyph-name="oslashacute" unicode="&#x1ff;" horiz-adv-x="341" d="M290 462 L262 417 C233 445 209 454 169 454 C73 454 30 383 30 228 C30 168 34 140 48 80 L7 15 L49 -15 L79 29 C102 4 130 -7 170 -7 C266 -7 311 64 311 213 C311 279 305 328 292 362 L333 434 L290 462 Z M119 183 L118 241 C118 341 132 379 169 379 C190 379 205 368 211 347 L119 183 Z M223 266 C224 243 225 222 225 213 C225 100 213 64 173 64 C152 64 138 76 131 98 L223 266 Z M236 633 L177 671 L104 539 L148 514 L236 633 Z " />
<glyph glyph-name="uni0200" unicode="&#x200;" horiz-adv-x="360" d="M146 667 L1 0 L87 0 L113 130 L245 130 L270 0 L359 0 L216 667 L146 667 Z M232 199 L125 199 L142 285 C159 373 171 453 180 537 C185 483 200 372 212 306 L232 199 Z M201 862 L146 820 L239 727 L277 757 L201 862 Z M68 862 L12 820 L105 727 L144 757 L68 862 Z " />
<glyph glyph-name="uni0201" unicode="&#x201;" horiz-adv-x="349" d="M302 447 L219 447 L219 397 C197 438 174 454 137 454 C101 454 70 432 54 396 C37 358 30 307 30 229 C30 66 63 -7 137 -7 C176 -7 196 9 219 58 L219 0 L302 0 L302 447 Z M169 379 C207 379 222 334 222 224 C222 112 207 68 169 68 C129 68 115 108 115 226 C115 338 129 379 169 379 L169 379 Z M164 638 L241 514 L281 535 L220 671 L164 638 Z M51 638 L128 514 L168 535 L107 671 L51 638 Z " />
<glyph glyph-name="Scommaaccent" unicode="&#x218;" horiz-adv-x="330" d="M274 653 C240 671 219 676 182 676 C89 676 31 610 31 506 C31 468 39 435 54 407 C70 377 83 362 141 305 C200 247 217 216 217 168 C217 112 187 77 139 77 C110 77 87 86 52 112 L52 23 C82 0 110 -9 150 -9 C241 -9 305 64 305 168 C305 207 296 244 278 277 C266 301 251 320 211 361 C132 440 119 461 119 506 C119 558 152 595 200 595 C224 595 244 587 273 565 L274 653 Z M134 -46 L91 -176 L136 -194 L198 -70 L134 -46 Z " />
<glyph glyph-name="scommaaccent" unicode="&#x219;" horiz-adv-x="260" d="M219 438 C193 453 173 458 145 458 C74 458 25 408 25 335 C25 282 44 252 113 198 C154 167 164 152 164 124 C164 89 143 68 108 68 C84 68 67 75 40 94 L40 14 C70 -3 85 -7 112 -7 C190 -7 240 45 240 125 C240 180 222 210 161 257 C117 290 103 309 103 333 C103 362 126 383 156 383 C178 383 199 376 219 361 L219 438 Z M102 -45 L59 -175 L98 -192 L163 -69 L102 -45 Z " />
<glyph glyph-name="uni021A" unicode="&#x21a;" horiz-adv-x="289" d="M-2 667 L-2 588 L102 588 L102 0 L190 0 L190 588 L291 588 L291 667 L-2 667 Z M117 -46 L74 -176 L119 -194 L181 -70 L117 -46 Z " />
<glyph glyph-name="uni021B" unicode="&#x21b;" horiz-adv-x="196" d="M56 572 L56 447 L11 447 L11 383 L56 383 L56 0 L139 0 L139 383 L184 383 L184 447 L139 447 L139 572 L56 572 Z M73 -45 L29 -175 L69 -192 L134 -69 L73 -45 Z " />
<glyph glyph-name="uni0226" unicode="&#x226;" horiz-adv-x="360" d="M146 667 L1 0 L87 0 L113 130 L245 130 L270 0 L359 0 L216 667 L146 667 Z M232 199 L125 199 L142 285 C159 373 171 453 180 537 C185 483 200 372 212 306 L232 199 Z M182 837 C152 837 129 814 129 786 C129 757 152 734 181 734 C210 734 233 757 233 786 C233 814 210 837 182 837 L182 837 Z " />
<glyph glyph-name="uni0227" unicode="&#x227;" horiz-adv-x="349" d="M302 447 L219 447 L219 397 C197 438 174 454 137 454 C101 454 70 432 54 396 C37 358 30 307 30 229 C30 66 63 -7 137 -7 C176 -7 196 9 219 58 L219 0 L302 0 L302 447 Z M169 379 C207 379 222 334 222 224 C222 112 207 68 169 68 C129 68 115 108 115 226 C115 338 129 379 169 379 L169 379 Z M179 622 C150 622 126 599 126 570 C126 541 149 517 179 517 C208 517 231 541 231 570 C231 598 207 622 179 622 L179 622 Z " />
<glyph glyph-name="uni0237" unicode="&#x237;" horiz-adv-x="176" d="M47 447 L47 -183 L130 -183 L130 447 L47 447 Z " />
<glyph glyph-name="uni02BB" unicode="&#x2bb;" horiz-adv-x="204" d="M112 451 L171 694 L125 707 L40 472 L112 451 Z " />
<glyph glyph-name="afii57929" unicode="&#x2bc;" horiz-adv-x="204" d="M99 688 L40 445 L85 432 L171 667 L99 688 Z " />
<glyph glyph-name="circumflex" unicode="&#x2c6;" horiz-adv-x="500" d="M251 671 L140 548 L186 514 L250 587 L319 514 L361 548 L251 671 Z " />
<glyph glyph-name="caron" unicode="&#x2c7;" horiz-adv-x="500" d="M251 514 L361 637 L319 671 L250 598 L186 671 L140 637 L251 514 Z " />
<glyph glyph-name="uni02C9" unicode="&#x2c9;" horiz-adv-x="499" d="M141 536 L359 536 L359 598 L141 598 L141 536 Z " />
<glyph glyph-name="breve" unicode="&#x2d8;" horiz-adv-x="500" d="M304 631 C299 586 285 569 251 569 C216 569 197 590 195 631 L140 631 C146 553 182 516 251 516 C322 516 355 551 359 631 L304 631 Z " />
<glyph glyph-name="dotaccent" unicode="&#x2d9;" horiz-adv-x="500" d="M250 622 C221 622 197 599 197 570 C197 541 220 517 250 517 C279 517 302 541 302 570 C302 598 278 622 250 622 L250 622 Z " />
<glyph glyph-name="ring" unicode="&#x2da;" horiz-adv-x="500" d="M251 649 C210 649 178 618 178 578 C178 538 210 506 250 506 C290 506 322 538 322 578 C322 617 290 649 251 649 L251 649 Z M251 608 C267 608 280 595 280 579 C280 562 267 549 250 549 C233 549 220 562 220 579 C220 595 234 608 251 608 L251 608 Z " />
<glyph glyph-name="ogonek" unicode="&#x2db;" horiz-adv-x="500" d="M256 0 C220 -35 208 -57 208 -86 C208 -128 240 -155 290 -155 C308 -155 320 -153 338 -146 L338 -95 C324 -100 310 -103 295 -103 C274 -103 261 -92 261 -72 C261 -52 277 -25 305 0 L256 0 Z " />
<glyph glyph-name="tilde" unicode="&#x2dc;" horiz-adv-x="500" d="M311 608 C308 588 304 582 293 582 C286 582 274 586 263 592 C235 607 223 611 206 611 C163 611 143 585 138 524 L190 524 C192 541 198 548 210 548 C219 548 224 546 254 531 C271 523 281 520 295 520 C338 520 356 543 361 608 L311 608 Z " />
<glyph glyph-name="hungarumlaut" unicode="&#x2dd;" horiz-adv-x="500" d="M289 638 L233 671 L172 535 L212 514 L289 638 Z M402 638 L346 671 L285 535 L325 514 L402 638 Z " />
<glyph glyph-name="pi" unicode="&#x3c0;" horiz-adv-x="361" d="M304 372 L343 372 L343 447 L17 447 L17 372 L56 372 L56 0 L139 0 L139 372 L221 372 L221 0 L304 0 L304 372 Z " />
<glyph glyph-name="uni1E1E" unicode="&#x1e1e;" horiz-adv-x="309" d="M51 667 L51 0 L141 0 L141 304 L276 304 L276 380 L141 380 L141 591 L291 591 L291 667 L51 667 Z M171 837 C142 837 119 814 119 786 C119 757 142 734 171 734 C199 734 222 757 222 786 C222 814 199 837 171 837 L171 837 Z " />
<glyph glyph-name="Wgrave" unicode="&#x1e80;" horiz-adv-x="524" d="M1 667 L116 0 L188 0 L237 288 C238 292 241 310 245 338 C247 360 250 381 253 402 C254 407 256 430 259 466 C260 470 261 480 262 495 C267 438 269 417 271 405 L280 338 L288 288 L335 0 L405 0 L522 667 L437 667 L398 406 C388 337 376 235 370 170 C366 227 357 299 343 387 L298 667 L229 667 L181 378 C169 302 164 256 155 165 C154 179 153 186 153 187 L148 244 C145 279 144 286 133 357 L88 667 L1 667 Z M239 854 L192 802 L299 727 L332 763 L239 854 Z " />
<glyph glyph-name="wgrave" unicode="&#x1e81;" horiz-adv-x="449" d="M7 447 L116 0 L173 0 L207 178 C219 249 224 287 226 328 C227 317 228 308 228 304 C230 281 231 265 232 261 C235 232 238 211 246 171 L280 0 L337 0 L442 447 L361 447 L330 282 C321 236 314 180 308 126 C301 203 300 211 286 282 L257 447 L198 447 L167 282 C153 215 151 198 143 126 C135 206 132 232 119 303 L94 447 L7 447 Z M159 633 L246 514 L291 539 L218 671 L159 633 Z " />
<glyph glyph-name="Wacute" unicode="&#x1e82;" horiz-adv-x="524" d="M1 667 L116 0 L188 0 L237 288 C238 292 241 310 245 338 C247 360 250 381 253 402 C254 407 256 430 259 466 C260 470 261 480 262 495 C267 438 269 417 271 405 L280 338 L288 288 L335 0 L405 0 L522 667 L437 667 L398 406 C388 337 376 235 370 170 C366 227 357 299 343 387 L298 667 L229 667 L181 378 C169 302 164 256 155 165 C154 179 153 186 153 187 L148 244 C145 279 144 286 133 357 L88 667 L1 667 Z M285 854 L192 763 L224 727 L332 802 L285 854 Z " />
<glyph glyph-name="wacute" unicode="&#x1e83;" horiz-adv-x="449" d="M7 447 L116 0 L173 0 L207 178 C219 249 224 287 226 328 C227 317 228 308 228 304 C230 281 231 265 232 261 C235 232 238 211 246 171 L280 0 L337 0 L442 447 L361 447 L330 282 C321 236 314 180 308 126 C301 203 300 211 286 282 L257 447 L198 447 L167 282 C153 215 151 198 143 126 C135 206 132 232 119 303 L94 447 L7 447 Z M291 633 L231 671 L159 539 L203 514 L291 633 Z " />
<glyph glyph-name="Wdieresis" unicode="&#x1e84;" horiz-adv-x="524" d="M1 667 L116 0 L188 0 L237 288 C238 292 241 310 245 338 C247 360 250 381 253 402 C254 407 256 430 259 466 C260 470 261 480 262 495 C267 438 269 417 271 405 L280 338 L288 288 L335 0 L405 0 L522 667 L437 667 L398 406 C388 337 376 235 370 170 C366 227 357 299 343 387 L298 667 L229 667 L181 378 C169 302 164 256 155 165 C154 179 153 186 153 187 L148 244 C145 279 144 286 133 357 L88 667 L1 667 Z M180 833 C152 833 130 811 130 784 C130 756 152 734 180 734 C207 734 229 756 229 784 C229 811 207 833 180 833 L180 833 Z M345 833 C317 833 295 811 295 784 C295 756 317 734 345 734 C372 734 394 756 394 784 C394 811 372 833 345 833 L345 833 Z " />
<glyph glyph-name="wdieresis" unicode="&#x1e85;" horiz-adv-x="449" d="M7 447 L116 0 L173 0 L207 178 C219 249 224 287 226 328 C227 317 228 308 228 304 C230 281 231 265 232 261 C235 232 238 211 246 171 L280 0 L337 0 L442 447 L361 447 L330 282 C321 236 314 180 308 126 C301 203 300 211 286 282 L257 447 L198 447 L167 282 C153 215 151 198 143 126 C135 206 132 232 119 303 L94 447 L7 447 Z M150 617 C122 617 99 595 99 567 C99 539 121 517 149 517 C177 517 199 539 199 567 C199 594 177 617 150 617 L150 617 Z M301 617 C273 617 250 595 250 567 C250 539 272 517 300 517 C328 517 350 539 350 567 C350 594 328 617 301 617 L301 617 Z " />
<glyph glyph-name="Ygrave" unicode="&#x1ef2;" horiz-adv-x="341" d="M-2 667 L137 287 L137 0 L227 0 L227 287 L343 667 L249 667 L212 516 L207 493 C197 449 191 423 190 415 C186 396 184 386 180 359 C173 404 168 423 147 491 C142 504 139 514 137 522 L93 667 L-2 667 Z M148 854 L101 802 L208 727 L241 763 L148 854 Z " />
<glyph glyph-name="ygrave" unicode="&#x1ef3;" horiz-adv-x="326" d="M3 447 L122 36 L53 -183 L140 -183 L322 447 L239 447 L162 135 L96 447 L3 447 Z M97 633 L184 514 L229 539 L156 671 L97 633 Z " />
<glyph glyph-name="uni2011" unicode="&#x2011;" horiz-adv-x="157" d="M0 262 L0 195 L157 195 L157 262 L0 262 Z " />
<glyph glyph-name="figuredash" unicode="&#x2012;" horiz-adv-x="379" d="M57 262 L57 196 L323 196 L323 262 L57 262 Z " />
<glyph glyph-name="endash" unicode="&#x2013;" horiz-adv-x="379" d="M57 262 L57 196 L323 196 L323 262 L57 262 Z " />
<glyph glyph-name="emdash" unicode="&#x2014;" horiz-adv-x="446" d="M0 262 L0 196 L446 196 L446 262 L0 262 Z " />
<glyph glyph-name="afii00208" unicode="&#x2015;" horiz-adv-x="446" d="M0 262 L0 196 L446 196 L446 262 L0 262 Z " />
<glyph glyph-name="underscoredbl" unicode="&#x2017;" horiz-adv-x="500" d="M0 -55 L0 -109 L500 -109 L500 -55 L0 -55 Z M0 -172 L0 -226 L500 -226 L500 -172 L0 -172 Z " />
<glyph glyph-name="quoteleft" unicode="&#x2018;" horiz-adv-x="204" d="M112 451 L171 694 L125 707 L40 472 L112 451 Z " />
<glyph glyph-name="quoteright" unicode="&#x2019;" horiz-adv-x="204" d="M99 688 L40 445 L85 432 L171 667 L99 688 Z " />
<glyph glyph-name="quotesinglbase" unicode="&#x201a;" horiz-adv-x="204" d="M92 93 L33 -150 L78 -163 L164 72 L92 93 Z " />
<glyph glyph-name="quotereversed" unicode="&#x201b;" horiz-adv-x="500" d="M235 514 L296 537 L231 660 L191 644 L235 514 Z " />
<glyph glyph-name="quotedblleft" unicode="&#x201c;" horiz-adv-x="325" d="M233 451 L292 694 L247 707 L161 472 L233 451 Z M112 451 L171 694 L125 707 L40 472 L112 451 Z " />
<glyph glyph-name="quotedblright" unicode="&#x201d;" horiz-adv-x="325" d="M99 688 L40 445 L85 432 L171 667 L99 688 Z M220 688 L161 445 L207 432 L292 667 L220 688 Z " />
<glyph glyph-name="quotedblbase" unicode="&#x201e;" horiz-adv-x="325" d="M92 93 L33 -150 L78 -163 L164 72 L92 93 Z M213 93 L154 -150 L200 -163 L285 72 L213 93 Z " />
<glyph glyph-name="dagger" unicode="&#x2020;" horiz-adv-x="380" d="M149 733 L149 513 L57 513 L57 440 L149 440 L149 -170 L232 -170 L232 440 L323 440 L323 513 L232 513 L232 733 L149 733 Z " />
<glyph glyph-name="daggerdbl" unicode="&#x2021;" horiz-adv-x="380" d="M149 733 L149 547 L57 547 L57 474 L149 474 L149 239 L57 239 L57 166 L149 166 L149 -170 L232 -170 L232 166 L323 166 L323 239 L232 239 L232 474 L323 474 L323 547 L232 547 L232 733 L149 733 Z " />
<glyph glyph-name="bullet" unicode="&#x2022;" horiz-adv-x="667" d="M336 480 C258 480 196 418 196 340 C196 263 258 200 334 200 C410 200 471 263 471 340 C471 417 410 480 336 480 L336 480 Z " />
<glyph glyph-name="ellipsis" unicode="&#x2026;" horiz-adv-x="560" d="M94 100 C64 100 40 77 40 47 C40 17 64 -7 94 -7 C123 -7 147 17 147 47 C147 76 123 100 94 100 L94 100 Z M281 100 C251 100 227 77 227 47 C227 17 251 -7 281 -7 C310 -7 334 17 334 47 C334 76 310 100 281 100 L281 100 Z M467 100 C437 100 413 77 413 47 C413 17 437 -7 467 -7 C496 -7 520 17 520 47 C520 76 496 100 467 100 L467 100 Z " />
<glyph glyph-name="perthousand" unicode="&#x2030;" horiz-adv-x="979" d="M489 307 C399 307 348 250 348 147 C348 45 398 -11 488 -11 C576 -11 626 48 626 152 C626 249 575 307 489 307 L489 307 Z M488 262 C538 262 566 222 566 150 C566 75 538 34 488 34 C435 34 408 72 408 146 C408 224 434 262 488 262 L488 262 Z M823 308 C732 308 681 250 681 147 C681 46 731 -11 822 -11 C908 -11 959 49 959 151 C959 250 908 308 823 308 L823 308 Z M822 263 C872 263 899 224 899 151 C899 76 872 35 821 35 C769 35 741 75 741 149 C741 224 769 263 822 263 L822 263 Z M162 660 C71 660 20 602 20 500 C20 399 70 341 158 341 C245 341 298 402 298 501 C298 602 248 660 162 660 L162 660 Z M160 614 C211 614 238 575 238 501 C238 428 209 387 158 387 C108 387 80 426 80 497 C80 572 109 614 160 614 L160 614 Z M571 660 L510 660 L74 -10 L135 -10 L571 660 Z " />
<glyph glyph-name="guilsinglleft" unicode="&#x2039;" horiz-adv-x="221" d="M187 406 L147 430 L33 234 L139 36 L178 57 L85 234 L187 406 Z " />
<glyph glyph-name="guilsinglright" unicode="&#x203a;" horiz-adv-x="221" d="M33 406 L135 234 L42 57 L81 36 L187 234 L73 430 L33 406 Z " />
<glyph glyph-name="uni203E" unicode="&#x203e;" horiz-adv-x="500" d="M0 870 L0 792 L500 792 L500 870 L0 870 Z " />
<glyph glyph-name="fraction" unicode="&#x2044;" horiz-adv-x="126" d="M201 667 L-130 0 L-75 0 L256 667 L201 667 Z " />
<glyph glyph-name="franc" unicode="&#x20a3;" horiz-adv-x="380" d="M53 667 L53 0 L143 0 L143 304 L278 304 L278 380 L143 380 L143 591 L293 591 L293 667 L53 667 Z M252 281 L252 0 L315 0 L315 169 C315 209 326 223 357 223 C360 223 360 223 373 221 L373 288 C347 286 339 282 323 262 L315 253 L315 281 L252 281 Z " />
<glyph glyph-name="lira" unicode="&#x20a4;" horiz-adv-x="380" d="M281 352 L169 352 C136 434 126 474 126 516 C126 567 160 603 208 603 C257 603 278 575 278 510 L347 543 C342 628 292 676 211 676 C107 676 45 610 45 499 C45 451 51 424 80 352 L45 352 L45 297 L104 297 C119 265 122 258 126 246 L45 246 L45 191 L138 191 C139 181 139 177 139 172 C139 151 135 137 121 110 L108 111 C68 111 34 78 26 32 L94 5 C100 24 110 34 123 34 C134 34 150 29 167 20 C209 -1 234 -9 260 -9 C303 -9 333 17 353 73 L281 97 C272 75 263 66 250 66 C236 66 227 70 188 91 C204 124 210 154 210 191 L281 191 L281 246 L204 246 C200 267 197 279 191 297 L281 297 L281 352 Z " />
<glyph glyph-name="peseta" unicode="&#x20a7;" horiz-adv-x="598" d="M51 667 L51 0 L141 0 L141 296 C193 296 217 299 243 309 C302 332 332 391 332 485 C332 564 309 619 266 646 C241 662 217 667 169 667 L51 667 Z M141 373 L141 591 L153 591 C212 591 239 555 239 476 C239 412 213 375 168 374 L149 373 L141 373 Z M338 357 L338 282 L310 282 L310 230 L338 230 L338 0 L401 0 L401 230 L427 230 L427 282 L401 282 L401 357 L338 357 Z M580 273 C562 284 548 288 529 288 C482 288 450 255 450 208 C450 173 462 154 506 120 C529 103 534 95 534 81 C534 63 524 54 507 54 C491 54 487 56 459 76 L459 11 C481 -1 490 -4 509 -4 C560 -4 593 31 593 82 C593 117 581 137 543 167 C518 185 511 195 511 207 C511 220 521 230 536 230 C548 230 559 226 569 218 C572 216 576 213 580 210 L580 273 Z " />
<glyph glyph-name="Euro" unicode="&#x20ac;" horiz-adv-x="379" d="M169 407 C177 529 218 592 288 592 C306 592 320 588 346 575 L346 656 C317 672 301 676 271 676 C153 676 89 589 74 407 L40 407 L13 350 L71 350 L71 322 L71 302 L40 302 L13 245 L74 245 C89 76 155 -9 273 -9 C305 -9 320 -5 346 10 L346 92 C324 81 312 78 293 78 C222 78 184 130 170 245 L208 245 L235 302 L167 302 C166 315 166 320 166 328 C166 333 166 339 167 350 L257 350 L284 407 L169 407 Z " />
<glyph glyph-name="uni2101" unicode="&#x2101;" horiz-adv-x="710" d="M488 667 L220 0 L274 0 L542 667 L488 667 Z M121 667 L30 267 L91 267 L106 344 L183 344 L198 267 L260 267 L170 667 L121 667 Z M173 391 L115 391 L125 438 C135 486 139 513 145 558 C150 523 157 478 162 450 L173 391 Z M650 386 C628 398 614 401 590 401 C531 401 493 361 493 298 C493 251 505 230 563 177 C598 144 609 126 609 101 C609 71 591 52 564 52 C545 52 531 58 506 76 L506 15 C526 1 544 -5 570 -5 C628 -5 670 39 670 101 C670 144 656 171 610 215 C562 261 554 272 554 298 C554 327 573 347 601 347 C617 347 628 342 650 326 L650 386 Z " />
<glyph glyph-name="afii61248" unicode="&#x2105;" horiz-adv-x="179" d="M90 392 C62 392 38 369 38 341 C38 312 61 289 90 289 C119 289 142 312 142 341 C142 369 119 392 90 392 L90 392 Z " />
<glyph glyph-name="afii61289" unicode="&#x2113;" horiz-adv-x="500" d="M252 268 C309 329 341 368 364 406 C403 471 427 541 427 594 C427 645 401 678 361 678 C279 678 217 546 162 259 C152 246 123 215 113 206 C99 193 94 187 94 179 C94 170 102 161 109 161 C115 161 124 168 155 197 C150 144 147 106 147 81 C147 21 172 -14 216 -14 C243 -14 267 0 291 30 C309 53 320 78 320 95 C320 106 315 112 306 112 C297 112 293 107 286 93 C270 58 254 40 238 40 C226 40 220 48 220 66 C220 100 224 126 249 256 L252 268 Z M264 339 C282 443 304 537 323 589 C331 614 347 632 361 632 C374 632 383 615 383 588 C383 514 338 421 264 339 L264 339 Z " />
<glyph glyph-name="afii61352" unicode="&#x2116;" horiz-adv-x="650" d="M527 471 C458 471 419 415 419 318 C419 223 459 167 527 167 C595 167 633 220 633 316 C633 418 597 471 527 471 L527 471 Z M527 408 C548 408 559 376 559 317 C559 262 547 230 526 230 C505 230 493 264 493 320 C493 375 506 408 527 408 L527 408 Z M633 127 L419 127 L419 50 L633 50 L633 127 Z M51 667 L51 0 L140 0 L135 291 L134 330 C132 358 131 385 129 412 C128 435 126 458 125 480 C124 484 123 496 121 513 C124 498 127 484 129 479 C136 443 142 419 143 413 C148 395 168 327 177 300 L278 0 L362 0 L362 667 L272 667 L272 418 C274 316 278 263 293 160 C280 219 247 334 225 401 L135 667 L51 667 Z " />
<glyph glyph-name="uni2117" unicode="&#x2117;" horiz-adv-x="129" d="M32 539 L32 267 L97 267 L97 539 L32 539 Z M62 650 C40 650 21 632 21 611 C21 589 40 572 62 572 C85 572 104 589 104 610 C104 633 86 650 62 650 L62 650 Z " />
<glyph glyph-name="trademark" unicode="&#x2122;" horiz-adv-x="496" d="M-5 667 L-5 616 L60 616 L60 287 L122 287 L122 616 L185 616 L185 667 L-5 667 Z M229 667 L194 287 L254 287 L269 516 C272 494 275 481 276 476 C279 457 280 451 285 430 L319 287 L362 287 L410 510 L425 287 L486 287 L447 667 L392 667 L358 515 C354 492 350 476 348 466 C345 448 345 448 340 414 C330 472 329 477 321 512 L283 667 L229 667 Z " />
<glyph glyph-name="uni2126" unicode="&#x2126;" horiz-adv-x="666" d="M28 0 L292 0 L292 73 C178 137 122 229 122 353 C122 435 146 497 196 545 C235 582 284 602 334 602 C389 602 437 579 478 533 C524 483 544 428 544 354 C544 275 521 207 475 152 C448 120 423 101 374 73 L374 0 L638 0 L638 81 L472 81 C586 149 638 238 638 365 C638 545 506 683 333 683 C160 683 28 545 28 365 C28 238 80 150 194 81 L28 81 L28 0 Z " />
<glyph glyph-name="estimated" unicode="&#x212e;" horiz-adv-x="597" d="M531 250 C529 323 524 358 510 394 C477 474 400 522 304 522 C161 522 71 418 71 254 C71 92 158 -6 303 -6 C412 -6 486 45 516 142 L472 142 C440 73 384 38 304 38 C259 38 222 50 197 73 C178 89 169 106 157 145 L158 250 L531 250 Z M458 285 L160 285 L160 378 C194 452 232 478 304 478 C361 478 400 460 435 419 C447 405 451 398 458 378 L458 285 Z " />
<glyph glyph-name="partialdiff" unicode="&#x2202;" horiz-adv-x="500" d="M79 593 C147 585 196 567 262 524 C321 479 340 452 376 368 C333 417 295 435 235 435 C119 435 27 339 27 217 C27 92 128 -10 251 -10 C324 -10 391 26 431 87 C459 131 473 184 473 251 C473 376 427 488 346 563 C281 624 210 653 91 669 L79 593 Z M253 370 C329 370 384 305 384 218 C384 126 325 56 250 56 C175 56 115 126 115 212 C115 301 176 370 253 370 L253 370 Z " />
<glyph glyph-name="emptyset" unicode="&#x2205;" horiz-adv-x="618" d="M439 667 L392 578 C362 588 340 592 311 592 C175 592 67 485 67 349 C67 267 103 200 175 147 L114 25 L162 0 L225 123 C248 112 271 107 304 107 C443 107 552 214 552 350 C552 432 514 501 439 554 L487 642 L439 667 Z M416 502 C465 472 496 412 496 349 C496 247 412 164 309 164 C290 164 275 166 251 172 L416 502 Z M200 198 C149 239 123 290 123 350 C123 452 208 535 312 535 C332 535 345 533 366 527 L200 198 Z " />
<glyph glyph-name="Delta" unicode="&#x2206;" horiz-adv-x="667" d="M25 0 L642 0 L379 667 L286 667 L25 0 Z M149 81 L333 561 L516 81 L149 81 Z " />
<glyph glyph-name="product" unicode="&#x220f;" horiz-adv-x="707" d="M37 750 L37 669 L117 669 L117 -169 L37 -169 L37 -250 L285 -250 L285 -169 L204 -169 L204 669 L502 669 L502 -169 L420 -169 L420 -250 L669 -250 L669 -169 L589 -169 L589 669 L669 669 L669 750 L37 750 Z " />
<glyph glyph-name="summation" unicode="&#x2211;" horiz-adv-x="667" d="M603 750 L26 750 L26 661 L273 269 L26 -160 L26 -250 L613 -250 L613 -18 L530 -18 L526 -169 L123 -169 L375 269 L123 669 L516 669 L525 516 L603 516 L603 750 Z " />
<glyph glyph-name="minus" unicode="&#x2212;" horiz-adv-x="380" d="M34 304 L346 304 L346 378 L34 378 L34 304 Z " />
<glyph glyph-name="uni2215" unicode="&#x2215;" horiz-adv-x="126" d="M201 667 L-130 0 L-75 0 L256 667 L201 667 Z " />
<glyph glyph-name="uni2218" unicode="&#x2218;" horiz-adv-x="500" d="M253 480 C175 480 113 418 113 340 C113 263 175 200 251 200 C327 200 388 263 388 340 C388 417 327 480 253 480 L253 480 Z M252 433 C301 433 341 391 341 340 C341 289 301 247 251 247 C201 247 160 289 160 340 C160 392 200 433 252 433 L252 433 Z " />
<glyph glyph-name="uni2219" unicode="&#x2219;" horiz-adv-x="187" d="M94 287 C64 287 40 264 40 234 C40 204 64 180 94 180 C123 180 147 204 147 234 C147 263 123 287 94 287 L94 287 Z " />
<glyph glyph-name="radical" unicode="&#x221a;" horiz-adv-x="667" d="M667 830 L400 830 L297 444 C271 348 256 287 250 261 C241 213 227 147 224 133 C224 130 222 123 221 113 L214 113 C200 205 194 239 189 254 L157 373 L0 373 L0 292 L86 292 L162 0 L272 0 L475 749 L667 749 L667 830 Z " />
<glyph glyph-name="infinity" unicode="&#x221e;" horiz-adv-x="667" d="M335 283 C381 216 433 184 496 184 C585 184 649 249 649 340 C649 432 586 496 495 496 C431 496 378 464 332 398 C286 462 232 496 173 496 C83 496 18 431 18 342 C18 249 82 185 173 185 C234 185 287 217 335 283 L335 283 Z M377 340 C415 399 445 422 484 422 C529 422 563 387 563 340 C563 293 530 258 485 258 C445 258 415 281 377 340 L377 340 Z M290 340 C251 280 223 259 183 259 C138 259 104 294 104 340 C104 387 137 422 182 422 C222 422 253 399 290 340 L290 340 Z " />
<glyph glyph-name="integral" unicode="&#x222b;" horiz-adv-x="500" d="M84 -239 C104 -246 122 -248 149 -248 C205 -248 246 -231 269 -197 C290 -168 293 -144 293 -32 L293 508 C293 610 294 612 295 624 C300 656 318 672 351 672 C366 672 377 670 398 663 L416 740 C382 748 366 750 342 750 C278 750 230 719 215 668 C208 643 206 617 206 533 L206 -48 C206 -95 206 -111 204 -123 C199 -155 181 -171 149 -171 C133 -171 123 -169 101 -162 L84 -239 Z " />
<glyph glyph-name="similar" unicode="&#x223c;" horiz-adv-x="500" d="M59 260 C86 311 109 331 143 331 C158 331 179 325 202 315 C291 276 316 268 343 268 C374 268 406 280 432 301 C454 319 469 340 491 385 L440 415 C411 366 390 351 354 351 C331 351 317 355 259 381 C206 405 176 414 149 414 C88 414 47 378 9 293 L59 260 Z " />
<glyph glyph-name="uni2243" unicode="&#x2243;" horiz-adv-x="500" d="M59 348 C86 399 109 418 142 418 C157 418 180 412 202 403 C292 364 316 356 343 356 C374 356 406 368 432 389 C454 407 469 427 491 473 L440 503 C411 454 391 439 354 439 C330 439 319 443 259 469 C206 492 176 501 150 501 C88 501 47 466 9 381 L59 348 Z M467 295 L33 295 L33 217 L467 217 L467 295 Z " />
<glyph glyph-name="approxequal" unicode="&#x2248;" horiz-adv-x="500" d="M59 348 C86 399 109 418 142 418 C157 418 180 412 202 403 C292 364 316 356 343 356 C374 356 406 368 432 389 C454 407 469 427 491 473 L440 503 C411 454 391 439 354 439 C330 439 319 443 259 469 C206 492 176 501 150 501 C88 501 47 466 9 381 L59 348 Z M59 172 C86 223 109 242 143 242 C158 242 179 236 202 227 C291 188 316 180 343 180 C374 180 407 192 432 213 C454 231 469 252 491 297 L440 327 C411 278 390 263 354 263 C331 263 318 267 259 293 C207 316 176 325 149 325 C88 325 48 290 9 204 L59 172 Z " />
<glyph glyph-name="notequal" unicode="&#x2260;" horiz-adv-x="500" d="M269 458 L33 458 L33 380 L234 380 L192 295 L33 295 L33 217 L156 217 L116 133 L174 107 L227 217 L467 217 L467 295 L263 295 L305 380 L467 380 L467 458 L340 458 L382 544 L324 569 L269 458 Z " />
<glyph glyph-name="lessequal" unicode="&#x2264;" horiz-adv-x="500" d="M466 624 L33 425 L33 351 L466 154 L466 237 L125 389 L466 542 L466 624 Z M466 125 L33 125 L33 44 L466 44 L466 125 Z " />
<glyph glyph-name="greaterequal" unicode="&#x2265;" horiz-adv-x="500" d="M33 154 L466 351 L466 425 L33 624 L33 542 L374 389 L33 237 L33 154 Z M33 44 L466 44 L466 125 L33 125 L33 44 Z " />
<glyph glyph-name="lozenge" unicode="&#x25ca;" horiz-adv-x="667" d="M334 693 L74 334 L334 -26 L593 334 L334 693 Z M334 543 L486 334 L334 124 L181 334 L334 543 Z " />
<glyph glyph-name="ff" unicode="&#xfb00;" horiz-adv-x="403" d="M15 447 L15 382 L56 382 L56 0 L139 0 L139 382 L179 382 L179 447 L139 447 L139 566 C140 618 140 618 142 630 C146 645 160 654 179 654 C190 654 198 652 213 644 L213 731 C188 740 177 742 157 742 C122 742 95 730 78 709 C61 685 56 663 56 603 L56 447 L15 447 Z M205 447 L205 382 L243 382 L243 0 L326 0 L326 382 L395 382 L395 447 L326 447 L326 566 C327 618 327 618 329 630 C333 645 346 654 365 654 C376 654 384 652 399 644 L399 731 C374 740 363 742 344 742 C309 742 281 730 265 709 C248 685 243 663 243 603 L243 447 L205 447 Z " />
<glyph glyph-name="fi" unicode="&#xfb01;" horiz-adv-x="373" d="M15 447 L15 382 L56 382 L56 0 L139 0 L139 382 L209 382 L209 447 L139 447 L139 566 C140 618 140 618 142 630 C146 645 160 654 178 654 C190 654 198 651 213 644 L213 731 C188 740 176 742 157 742 C122 742 95 730 78 709 C61 685 56 663 56 603 L56 447 L15 447 Z M243 447 L243 0 L326 0 L326 447 L243 447 Z M282 637 C250 637 225 612 225 581 C225 550 250 525 281 525 C312 525 337 550 337 581 C337 612 312 637 282 637 L282 637 Z " />
<glyph glyph-name="fl" unicode="&#xfb02;" horiz-adv-x="373" d="M15 447 L15 382 L56 382 L56 0 L139 0 L139 382 L209 382 L209 447 L139 447 L139 566 C140 618 140 618 142 630 C146 645 160 654 178 654 C190 654 198 651 213 644 L213 731 C188 740 176 742 157 742 C122 742 95 730 78 709 C61 685 56 663 56 603 L56 447 L15 447 Z M243 733 L243 0 L326 0 L326 733 L243 733 Z " />
<glyph glyph-name="ffi" unicode="&#xfb03;" horiz-adv-x="559" d="M15 447 L15 382 L56 382 L56 0 L139 0 L139 382 L179 382 L179 447 L139 447 L139 566 C140 618 140 618 142 630 C146 645 160 654 179 654 C190 654 198 652 213 644 L213 731 C188 740 177 742 157 742 C122 742 95 730 78 709 C61 685 56 663 56 603 L56 447 L15 447 Z M205 447 L205 382 L243 382 L243 0 L326 0 L326 382 L395 382 L395 447 L326 447 L326 566 C327 618 327 618 329 630 C333 645 346 654 365 654 C376 654 384 652 399 644 L399 731 C374 740 363 742 344 742 C309 742 281 730 265 709 C248 685 243 663 243 603 L243 447 L205 447 Z M429 447 L429 0 L512 0 L512 447 L429 447 Z M469 637 C437 637 412 612 412 581 C412 550 437 525 468 525 C499 525 524 550 524 581 C524 612 499 637 469 637 L469 637 Z " />
<glyph glyph-name="ffl" unicode="&#xfb04;" horiz-adv-x="559" d="M15 447 L15 382 L56 382 L56 0 L139 0 L139 382 L179 382 L179 447 L139 447 L139 566 C140 618 140 618 142 630 C146 645 160 654 179 654 C190 654 198 652 213 644 L213 731 C188 740 177 742 157 742 C122 742 95 730 78 709 C61 685 56 663 56 603 L56 447 L15 447 Z M205 447 L205 382 L243 382 L243 0 L326 0 L326 382 L395 382 L395 447 L326 447 L326 566 C327 618 327 618 329 630 C333 645 346 654 365 654 C376 654 384 652 399 644 L399 731 C374 740 363 742 344 742 C309 742 281 730 265 709 C248 685 243 663 243 603 L243 447 L205 447 Z M429 733 L429 0 L512 0 L512 733 L429 733 Z " />
</font>
</svg>
