<?xml version="1.0" encoding="UTF-8"?>
<svg xmlns="http://www.w3.org/2000/svg" xmlns:xlink="http://www.w3.org/1999/xlink" version="1.2" >
<font id="Clarendon URW Extra Wide Medium">
<font-face  font-family="Clarendon URW Extra Wide" units-per-em="1000" ascent="667" descent="-333" font-style="normal" font-weight="500" font-stretch="normal" cap-height="667" x-height="469" underline-position="-59" underline-thickness="85" />
<missing-glyph  horiz-adv-x="250" d="" />
<glyph glyph-name="NULL" d="" />
<glyph glyph-name="CR" unicode="&#xd;" horiz-adv-x="250" d="" />
<glyph glyph-name="space" unicode="&#x20;" horiz-adv-x="250" d="" />
<glyph glyph-name="exclam" unicode="&#x21;" horiz-adv-x="382" d="M212 140 C164 140 125 105 125 63 C125 18 163 -17 213 -17 C261 -17 299 18 299 62 C299 105 260 140 212 140 L212 140 Z M254 199 C261 290 267 332 290 476 C302 549 304 568 304 592 C304 654 272 687 212 687 C153 687 120 654 120 594 C120 569 122 551 134 476 C158 327 163 291 170 199 L254 199 Z " />
<glyph glyph-name="quotedbl" unicode="&#x22;" horiz-adv-x="414" d="M157 399 L182 667 L32 667 L57 399 L157 399 Z M357 399 L383 667 L232 667 L257 399 L357 399 Z " />
<glyph glyph-name="numbersign" unicode="&#x23;" horiz-adv-x="688" d="M634 293 L521 293 L537 387 L649 387 L667 492 L555 492 L586 667 L454 667 L423 492 L315 492 L347 667 L217 667 L187 492 L74 492 L57 387 L170 387 L153 293 L39 293 L22 188 L136 188 L103 0 L231 0 L264 188 L371 188 L336 0 L471 0 L503 188 L617 188 L634 293 Z M405 387 L389 293 L283 293 L299 387 L405 387 Z " />
<glyph glyph-name="dollar" unicode="&#x24;" horiz-adv-x="688" d="M302 -110 L371 -110 L371 0 C469 9 512 20 559 51 C608 84 636 132 636 184 C636 246 599 297 536 325 C495 343 464 351 371 369 L371 541 C432 540 469 530 492 508 C456 494 441 477 441 453 C441 418 475 393 522 393 C574 393 608 422 608 467 C608 502 588 535 550 560 C507 589 462 600 371 606 L371 675 L302 675 L302 604 C212 591 176 580 133 552 C87 521 59 472 59 418 C59 362 87 316 139 290 C176 271 201 263 302 236 L302 61 C235 62 189 74 159 101 C205 111 224 128 224 160 C224 200 190 228 141 228 C86 228 47 191 47 141 C47 109 63 79 94 54 C138 19 191 5 302 -1 L302 -110 Z M371 224 C434 215 460 207 480 193 C499 179 508 163 508 144 C508 128 500 111 487 99 C464 79 436 71 371 64 L371 224 Z M302 383 C258 393 249 395 232 402 C203 413 187 435 187 462 C187 508 223 532 302 538 L302 383 Z " />
<glyph glyph-name="percent" unicode="&#x25;" horiz-adv-x="1054" d="M274 -17 L366 -17 L776 623 L685 623 L274 -17 Z M244 622 C122 622 38 545 38 433 C38 373 54 333 91 297 C130 259 181 240 245 240 C368 240 450 317 450 432 C450 546 368 622 244 622 L244 622 Z M244 556 C305 556 333 517 333 431 C333 345 305 306 244 306 C182 306 155 345 155 433 C155 516 184 556 244 556 L244 556 Z M808 365 C686 365 602 288 602 177 C602 117 618 76 655 40 C693 3 746 -17 809 -17 C931 -17 1014 60 1014 175 C1014 289 931 365 808 365 L808 365 Z M808 297 C870 297 897 260 897 173 C897 87 870 50 808 50 C745 50 719 87 719 176 C719 259 747 297 808 297 L808 297 Z " />
<glyph glyph-name="ampersand" unicode="&#x26;" horiz-adv-x="950" d="M806 231 C806 185 803 163 793 140 C777 106 752 89 716 89 C685 89 668 98 636 128 C684 189 700 211 715 234 C757 303 757 303 779 317 C796 328 817 333 846 333 C853 333 866 333 879 332 L879 414 L543 414 L543 332 L566 332 C621 332 636 328 636 312 C636 288 613 252 565 197 C505 263 482 293 428 375 C522 432 557 477 557 544 C557 629 487 688 388 688 C278 688 193 615 193 519 C193 485 201 458 228 405 C92 346 42 287 42 186 C42 125 69 73 122 32 C167 -1 232 -19 312 -19 C382 -19 426 -7 514 36 C596 -9 631 -20 692 -20 C771 -20 831 5 866 54 C891 87 901 126 901 192 C901 198 901 214 900 231 L806 231 Z M373 456 C332 499 318 523 318 551 C318 583 348 605 393 605 C436 605 463 583 463 549 C463 511 441 488 373 456 L373 456 Z M277 313 C338 219 381 162 438 102 C399 85 381 80 349 80 C258 80 196 133 196 210 C196 255 216 280 277 313 L277 313 Z " />
<glyph glyph-name="quotesingle" unicode="&#x27;" horiz-adv-x="214" d="M157 399 L182 667 L32 667 L57 399 L157 399 Z " />
<glyph glyph-name="parenleft" unicode="&#x28;" horiz-adv-x="437" d="M410 687 C311 670 263 650 202 603 C99 521 49 405 49 245 C49 86 100 -32 202 -112 C262 -158 310 -178 410 -196 L410 -119 C341 -99 309 -79 277 -37 C229 25 209 110 209 246 C209 381 229 466 277 528 C309 570 341 589 410 610 L410 687 Z " />
<glyph glyph-name="parenright" unicode="&#x29;" horiz-adv-x="437" d="M27 -196 C126 -179 174 -160 235 -112 C338 -30 388 86 388 245 C388 405 337 523 235 603 C175 649 127 668 28 687 L28 609 C97 589 128 570 160 528 C207 466 228 380 228 245 C228 110 207 25 160 -38 C128 -80 96 -99 27 -119 L27 -196 Z " />
<glyph glyph-name="asterisk" unicode="&#x2a;" horiz-adv-x="546" d="M261 492 C224 516 215 525 191 559 C161 602 150 610 122 610 C87 610 60 584 60 550 C60 532 70 516 86 508 C101 499 101 499 151 497 C196 495 217 490 250 474 C216 460 198 456 154 452 C109 449 104 449 91 443 C72 436 60 419 60 400 C60 367 88 339 122 339 C150 339 160 346 191 390 C218 427 232 440 263 456 C259 428 253 408 234 371 C211 329 211 329 211 312 C211 283 235 264 271 264 C308 264 334 285 334 314 C334 328 329 340 312 369 C292 404 288 416 283 458 C311 442 321 433 353 391 C390 342 394 338 421 338 C456 338 483 365 483 399 C483 420 474 435 456 443 C441 450 441 450 394 452 C348 455 326 460 293 476 C325 490 343 493 391 497 C441 500 441 500 455 507 C472 515 483 533 483 552 C483 583 455 611 423 611 C396 611 384 602 354 559 C327 523 313 509 282 493 C288 534 293 551 310 580 C332 618 333 621 333 636 C333 665 306 687 270 687 C235 687 210 667 210 637 C210 622 213 615 232 582 C251 550 257 530 261 492 L261 492 Z " />
<glyph glyph-name="plus" unicode="&#x2b;" horiz-adv-x="654" d="M81 366 L81 263 L273 263 L273 100 L381 100 L381 263 L574 263 L574 366 L381 366 L381 530 L273 530 L273 366 L81 366 Z " />
<glyph glyph-name="comma" unicode="&#x2c;" horiz-adv-x="295" d="M53 -144 C116 -133 146 -121 178 -94 C218 -62 241 -14 241 35 C241 96 199 140 141 140 C89 140 48 103 48 57 C48 21 78 -10 114 -10 C124 -10 139 -7 155 -1 C143 -60 126 -76 53 -94 L53 -144 Z " />
<glyph glyph-name="hyphen" unicode="&#x2d;" horiz-adv-x="302" d="M0 172 L302 172 L302 299 L0 299 L0 172 Z " />
<glyph glyph-name="period" unicode="&#x2e;" horiz-adv-x="344" d="M174 140 C126 140 87 105 87 63 C87 18 125 -17 175 -17 C223 -17 261 18 261 62 C261 105 222 140 174 140 L174 140 Z " />
<glyph glyph-name="slash" unicode="&#x2f;" horiz-adv-x="422" d="M96 -92 L378 686 L293 686 L11 -92 L96 -92 Z " />
<glyph glyph-name="zero" unicode="0" horiz-adv-x="688" d="M350 621 C160 621 33 493 33 301 C33 113 161 -17 346 -17 C531 -17 658 113 658 302 C658 489 531 621 350 621 L350 621 Z M345 539 C444 539 489 465 489 302 C489 140 443 65 346 65 C248 65 202 139 202 296 C202 464 246 539 345 539 L345 539 Z " />
<glyph glyph-name="one" unicode="1" horiz-adv-x="688" d="M277 444 L277 135 C275 85 268 78 215 76 L142 76 L142 0 L561 0 L561 76 L490 76 C437 78 430 86 430 135 L430 607 L323 607 C298 552 250 528 143 519 L143 444 L277 444 Z " />
<glyph glyph-name="two" unicode="2" horiz-adv-x="688" d="M141 0 C153 40 167 53 197 53 C214 53 239 47 273 33 C381 -10 409 -17 462 -17 C532 -17 587 11 614 61 C629 88 636 124 636 177 C636 185 636 197 635 213 L558 213 C555 142 535 117 482 117 C461 117 432 122 382 133 C338 143 309 148 288 148 C255 148 229 141 176 116 C212 173 241 189 352 219 C497 255 497 255 540 279 C590 308 620 361 620 422 C620 540 509 622 349 622 C261 622 191 601 138 558 C93 522 68 475 68 428 C68 367 112 324 174 324 C230 324 271 359 271 406 C271 443 241 472 202 472 C194 472 181 470 167 467 C179 494 187 505 202 514 C227 530 263 539 301 539 C389 539 449 496 449 431 C449 381 420 347 348 315 C120 219 55 148 60 0 L141 0 Z " />
<glyph glyph-name="three" unicode="3" horiz-adv-x="688" d="M270 280 C346 278 372 275 398 263 C435 246 458 212 458 173 C458 102 396 58 296 58 C230 58 199 67 155 98 C216 106 242 127 242 170 C242 217 202 252 149 252 C86 252 43 210 43 148 C43 46 150 -18 320 -18 C513 -18 625 51 625 169 C625 215 605 253 568 280 C540 300 515 310 456 326 C502 337 531 347 551 359 C589 383 608 418 608 462 C608 508 583 552 543 575 C494 605 422 622 344 622 C184 622 66 553 66 460 C66 409 105 374 162 374 C214 374 253 406 253 449 C253 487 230 506 174 515 C214 540 254 551 308 551 C390 551 439 515 439 455 C439 419 420 390 387 377 C359 365 336 362 270 360 L270 280 Z " />
<glyph glyph-name="four" unicode="4" horiz-adv-x="688" d="M650 77 L583 77 C533 79 526 87 527 136 L527 177 L644 177 L644 264 L527 264 L527 607 L390 607 L38 260 L38 177 L364 177 L364 136 C361 86 355 79 306 77 L248 77 L248 -1 L650 -1 L650 77 Z M153 264 L366 465 L364 264 L153 264 Z " />
<glyph glyph-name="five" unicode="5" horiz-adv-x="688" d="M195 490 C255 483 288 480 316 480 C456 480 581 539 581 605 C581 615 579 619 574 619 C570 619 565 618 560 616 C509 601 454 594 374 594 C284 594 231 599 113 618 L86 302 L178 302 C222 341 255 355 308 355 C397 355 452 300 452 211 C452 118 390 58 295 58 C242 58 202 70 162 97 C225 108 250 130 250 171 C250 217 212 249 159 249 C97 249 53 207 53 149 C53 49 158 -18 314 -18 C502 -18 620 73 620 217 C620 349 513 434 346 434 C283 434 253 427 188 397 L195 490 Z " />
<glyph glyph-name="six" unicode="6" horiz-adv-x="688" d="M468 534 C438 516 426 499 426 475 C426 435 463 407 516 407 C575 407 613 439 613 488 C613 567 520 622 387 622 C187 622 60 494 60 291 C60 95 174 -19 370 -19 C532 -19 641 61 641 180 C641 298 547 378 410 378 C351 378 313 368 246 333 C247 414 256 454 277 488 C302 529 351 554 404 554 C432 554 446 550 468 534 L468 534 Z M353 294 C428 294 475 248 475 175 C475 100 431 57 355 57 C274 57 231 99 231 177 C231 248 279 294 353 294 L353 294 Z " />
<glyph glyph-name="seven" unicode="7" horiz-adv-x="688" d="M420 -2 C422 186 446 256 563 408 C646 512 655 530 655 591 L655 605 L580 605 C571 576 558 566 528 566 C512 566 496 569 482 573 C367 613 367 613 316 613 C243 613 206 593 163 532 L163 605 L82 605 L82 324 L163 324 C163 404 165 417 185 446 C200 468 226 480 262 480 C279 480 279 480 355 468 C379 464 403 462 422 462 C453 462 474 467 516 484 C474 439 474 439 400 371 C263 245 236 185 239 -2 L420 -2 Z " />
<glyph glyph-name="eight" unicode="8" horiz-adv-x="688" d="M169 295 C73 256 38 218 38 154 C38 48 151 -17 335 -17 C423 -17 504 0 551 29 C609 64 641 118 641 180 C641 228 622 269 587 298 C566 315 542 328 492 347 C576 381 610 417 610 470 C610 561 504 622 348 622 C175 622 66 551 66 439 C66 400 79 370 108 342 C122 328 134 319 169 295 L169 295 Z M411 374 C294 408 283 411 265 418 C223 435 204 453 204 479 C204 520 258 546 343 546 C434 546 493 514 493 464 C493 427 469 400 411 374 L411 374 Z M253 257 C367 224 393 216 435 202 C478 188 500 168 500 143 C500 91 439 60 338 60 C227 60 157 100 157 162 C157 203 182 227 253 257 L253 257 Z " />
<glyph glyph-name="nine" unicode="9" horiz-adv-x="688" d="M220 69 C251 88 262 104 262 129 C262 169 225 197 172 197 C114 197 76 165 76 116 C76 36 169 -19 302 -19 C502 -19 629 110 629 312 C629 508 515 622 319 622 C157 622 48 542 48 423 C48 305 141 225 278 225 C338 225 375 235 443 270 C441 189 433 149 411 115 C386 74 337 49 284 49 C257 49 242 54 220 69 L220 69 Z M336 546 C415 546 458 503 458 426 C458 355 410 309 336 309 C261 309 214 355 214 428 C214 503 258 546 336 546 L336 546 Z " />
<glyph glyph-name="colon" unicode="&#x3a;" horiz-adv-x="382" d="M207 447 C159 447 120 412 120 370 C120 324 158 289 208 289 C256 289 294 324 294 368 C294 412 255 447 207 447 L207 447 Z M207 143 C159 143 120 108 120 66 C120 20 158 -15 208 -15 C256 -15 294 20 294 64 C294 108 255 143 207 143 L207 143 Z " />
<glyph glyph-name="semicolon" unicode="&#x3b;" horiz-adv-x="382" d="M216 447 C168 447 129 412 129 370 C129 324 167 289 217 289 C265 289 303 324 303 368 C303 412 264 447 216 447 L216 447 Z M124 -144 C187 -133 217 -121 249 -94 C289 -62 312 -14 312 35 C312 96 270 140 212 140 C160 140 119 103 119 57 C119 21 149 -10 185 -10 C195 -10 210 -7 226 -1 C214 -60 197 -76 124 -94 L124 -144 Z " />
<glyph glyph-name="less" unicode="&#x3c;" horiz-adv-x="550" d="M514 618 L37 393 L37 274 L514 49 L514 190 L202 333 L514 477 L514 618 Z " />
<glyph glyph-name="equal" unicode="&#x3d;" horiz-adv-x="654" d="M81 449 L81 352 L574 352 L574 449 L81 449 Z M81 282 L81 185 L574 185 L574 282 L81 282 Z " />
<glyph glyph-name="greater" unicode="&#x3e;" horiz-adv-x="550" d="M37 618 L37 477 L348 333 L37 190 L37 49 L513 274 L513 393 L37 618 Z " />
<glyph glyph-name="question" unicode="&#x3f;" horiz-adv-x="655" d="M307 140 C260 140 222 105 222 60 C222 18 261 -17 308 -17 C356 -17 395 18 395 62 C395 106 356 140 307 140 L307 140 Z M356 199 C356 244 375 275 421 306 C502 357 502 357 517 369 C568 411 591 453 591 506 C591 611 483 687 335 687 C238 687 164 657 118 600 C94 569 80 530 80 493 C80 421 126 373 195 373 C253 373 289 404 289 452 C289 492 258 521 215 521 C198 521 185 517 160 506 C167 539 175 556 190 569 C213 590 252 603 293 603 C369 603 429 560 429 506 C429 464 407 431 334 362 C279 311 262 278 262 226 C262 221 262 211 263 199 L356 199 Z " />
<glyph glyph-name="at" unicode="&#x40;" horiz-adv-x="815" d="M529 493 L520 451 C499 484 458 504 410 504 C306 504 216 410 216 302 C216 211 283 143 372 143 C428 143 479 168 510 208 C519 173 553 151 595 151 C691 151 777 262 777 384 C777 555 628 681 427 681 C209 681 38 526 38 328 C38 233 81 140 154 76 C224 15 316 -15 431 -15 C513 -15 595 -3 660 18 L639 93 C574 72 502 61 428 61 C329 61 259 84 204 134 C150 183 119 254 119 327 C119 484 255 606 431 606 C591 606 703 515 703 384 C703 302 651 219 601 219 C583 219 572 232 572 253 C572 262 574 276 579 298 L620 493 L529 493 Z M418 415 C465 415 496 384 496 339 C496 279 447 227 392 227 C344 227 311 259 311 304 C311 364 361 415 418 415 L418 415 Z " />
<glyph glyph-name="A" unicode="A" horiz-adv-x="776" d="M787 82 L759 82 C707 81 699 88 674 149 L478 667 L291 667 L98 153 C81 101 62 85 14 82 L-22 82 L-22 0 L308 0 L308 82 L262 82 C219 82 206 88 206 109 C206 116 209 128 214 142 L242 214 L466 214 L493 145 C498 133 501 120 501 112 C501 88 487 82 435 82 L395 82 L395 0 L787 0 L787 82 Z M436 297 L273 297 L354 512 L436 297 Z " />
<glyph glyph-name="B" unicode="B" horiz-adv-x="803" d="M22 667 L22 585 L68 585 C135 586 145 578 144 524 L144 143 C145 89 135 81 68 82 L22 82 L22 0 L439 0 C562 0 624 10 675 39 C725 67 754 119 754 181 C754 231 735 273 698 303 C666 329 638 340 572 352 C625 368 647 378 671 398 C705 426 722 463 722 506 C722 558 698 604 657 629 C613 656 553 667 450 667 L22 667 Z M307 385 L307 585 L371 585 C449 585 482 580 512 562 C537 547 550 521 550 486 C550 412 500 385 365 385 L307 385 Z M307 81 L307 305 L375 305 C467 305 505 299 539 278 C567 261 582 232 582 194 C582 155 564 122 534 105 C501 87 463 81 376 81 L307 81 Z " />
<glyph glyph-name="C" unicode="C" horiz-adv-x="787" d="M632 258 C625 195 615 166 592 136 C558 93 503 69 437 69 C369 69 314 95 276 145 C240 192 224 250 224 334 C224 418 240 476 276 523 C314 573 370 599 439 599 C502 599 552 578 589 535 C618 502 629 472 639 404 L733 404 L733 675 L644 675 L625 621 C538 673 492 687 412 687 C197 687 38 537 38 334 C38 228 79 136 156 70 C226 10 313 -19 426 -19 C545 -19 622 11 678 79 C715 125 728 166 736 258 L632 258 Z " />
<glyph glyph-name="D" unicode="D" horiz-adv-x="879" d="M22 0 L400 0 C553 0 640 20 715 73 C795 129 836 218 836 334 C836 450 795 538 715 594 C640 647 553 667 400 667 L22 667 L22 585 L68 585 C135 586 145 578 144 524 L144 143 C145 89 135 81 68 82 L22 82 L22 0 Z M307 83 L307 585 L398 585 C490 585 561 562 598 521 C631 483 650 415 650 334 C650 252 631 184 598 146 C561 105 491 83 398 83 L307 83 Z " />
<glyph glyph-name="E" unicode="E" horiz-adv-x="819" d="M746 667 L22 667 L22 585 L67 585 C132 586 142 578 141 524 L141 143 C142 89 132 81 67 82 L22 82 L22 0 L744 0 L744 279 L653 279 C641 115 603 79 444 82 L304 82 L304 306 L347 306 C426 306 450 284 451 213 L451 182 L541 182 L541 500 L452 500 C448 405 435 390 347 389 L304 389 L304 585 L457 585 C609 587 642 558 656 408 L746 408 L746 667 Z " />
<glyph glyph-name="F" unicode="F" horiz-adv-x="754" d="M703 667 L22 667 L22 585 L67 585 C132 586 142 578 141 524 L141 143 C142 89 132 81 67 82 L22 82 L22 0 L431 0 L431 82 L378 82 C311 81 303 89 303 143 L303 306 L340 306 C405 306 425 285 427 213 L427 182 L515 182 L515 500 L427 500 C423 404 413 390 340 389 L304 389 L304 585 L414 585 C570 588 603 557 614 393 L703 393 L703 667 Z " />
<glyph glyph-name="G" unicode="G" horiz-adv-x="863" d="M839 273 L839 354 L455 354 L455 273 L519 273 C577 272 582 268 582 222 L582 168 C582 133 578 121 560 105 C534 82 492 69 443 69 C374 69 318 95 278 145 C241 191 224 250 224 334 C224 418 240 476 277 523 C315 573 371 599 441 599 C505 599 556 578 593 535 C622 502 634 472 644 404 L733 404 L733 675 L649 675 L630 621 C543 673 497 687 416 687 C198 687 38 537 38 331 C38 124 191 -20 413 -20 C500 -20 549 -5 634 47 L670 -7 L745 -7 L745 229 C746 264 756 273 798 273 L839 273 Z " />
<glyph glyph-name="H" unicode="H" horiz-adv-x="901" d="M416 667 L22 667 L22 585 L67 585 C132 586 142 578 141 524 L141 143 C142 89 132 81 67 82 L22 82 L22 0 L416 0 L416 82 L369 82 C311 81 303 89 304 143 L304 301 L597 301 L597 143 C598 89 590 81 532 82 L486 82 L486 0 L879 0 L879 82 L834 82 C768 81 760 89 760 143 L760 524 C760 579 768 586 834 585 L879 585 L879 667 L486 667 L486 585 L532 585 C589 586 598 578 597 524 L597 387 L304 387 L304 524 C303 578 311 586 369 585 L416 585 L416 667 Z " />
<glyph glyph-name="I" unicode="I" horiz-adv-x="453" d="M24 0 L429 0 L429 82 L381 82 C315 81 305 89 306 143 L306 524 C306 578 314 586 381 585 L429 585 L429 667 L24 667 L24 585 L69 585 C135 586 143 578 143 524 L143 143 C143 89 135 81 69 82 L24 82 L24 0 Z " />
<glyph glyph-name="J" unicode="J" horiz-adv-x="650" d="M224 585 L277 585 C343 586 351 579 351 524 L351 224 C351 150 348 128 332 107 C315 82 278 67 234 67 C187 67 167 75 135 106 C201 111 232 137 232 187 C232 236 192 271 135 271 C68 271 21 224 21 154 C21 52 127 -20 277 -20 C371 -20 443 8 481 60 C507 96 514 132 514 224 L514 524 C514 578 522 586 589 585 L628 585 L628 667 L224 667 L224 585 Z " />
<glyph glyph-name="K" unicode="K" horiz-adv-x="869" d="M410 667 L22 667 L22 585 L67 585 C132 586 142 578 141 524 L141 143 C142 89 132 81 67 82 L22 82 L22 0 L408 0 L408 82 L376 82 C310 81 300 89 301 143 L301 225 L429 319 L568 122 C575 113 578 106 578 101 C578 88 561 82 523 82 L483 82 L483 0 L884 0 L884 82 L845 82 C813 82 791 94 768 124 L553 418 L702 536 C749 572 782 586 818 585 L846 585 L846 667 L481 667 L481 585 L528 585 C556 585 566 581 566 569 C566 562 561 554 551 547 L301 351 L301 524 C300 578 310 586 376 585 L410 585 L410 667 Z " />
<glyph glyph-name="L" unicode="L" horiz-adv-x="754" d="M432 667 L22 667 L22 585 L67 585 C133 586 143 578 142 524 L142 143 C143 89 133 81 67 82 L22 82 L22 0 L712 0 L712 279 L622 279 C611 116 575 79 429 82 L305 82 L305 524 C305 579 313 586 379 585 L432 585 L432 667 Z " />
<glyph glyph-name="M" unicode="M" horiz-adv-x="1071" d="M1045 667 L693 667 L535 238 L384 667 L22 667 L22 585 L63 585 C128 586 136 578 136 524 L136 143 C136 89 128 81 63 82 L22 82 L22 0 L352 0 L352 82 L318 82 C253 81 245 89 245 143 L245 549 L446 0 L567 0 L773 550 L773 143 C774 89 765 81 699 82 L662 82 L662 0 L1045 0 L1045 82 L1001 82 C934 81 926 89 926 143 L926 524 C926 578 934 586 1001 585 L1045 585 L1045 667 Z " />
<glyph glyph-name="N" unicode="N" horiz-adv-x="896" d="M367 82 L316 82 C251 81 243 89 243 143 L243 522 L582 0 L764 0 L764 524 C764 579 772 586 837 585 L872 585 L872 667 L530 667 L530 585 L582 585 C647 586 655 579 655 524 L655 191 L344 667 L22 667 L22 585 L61 585 C126 586 134 578 134 524 L134 143 C134 89 126 81 61 82 L22 82 L22 0 L367 0 L367 82 Z " />
<glyph glyph-name="O" unicode="O" horiz-adv-x="890" d="M445 686 C202 686 38 544 38 334 C38 125 202 -19 440 -19 C563 -19 657 10 732 73 C812 138 852 226 852 334 C852 545 688 686 445 686 L445 686 Z M448 599 C513 599 572 572 612 523 C648 479 666 418 666 336 C666 249 650 192 612 145 C571 95 515 69 445 69 C375 69 319 95 278 145 C241 191 224 250 224 333 C224 419 241 477 278 523 C320 574 376 599 448 599 L448 599 Z " />
<glyph glyph-name="P" unicode="P" horiz-adv-x="776" d="M22 585 L67 585 C132 586 142 578 141 524 L141 143 C142 89 132 81 67 82 L22 82 L22 0 L432 0 L432 82 L379 82 C312 81 304 88 304 143 L304 295 L450 295 C562 295 619 307 666 340 C709 371 734 422 734 480 C734 536 711 587 671 618 C625 654 564 667 450 667 L22 667 L22 585 Z M304 377 L304 585 L376 585 C458 585 493 579 524 561 C551 546 564 519 564 482 C564 405 512 377 370 377 L304 377 Z " />
<glyph glyph-name="Q" unicode="Q" horiz-adv-x="907" d="M923 152 L856 152 C854 119 853 103 853 102 C849 78 837 66 816 66 C797 66 782 74 755 97 C823 177 847 237 847 333 C847 545 684 686 440 686 C196 686 33 545 33 334 C33 123 197 -19 439 -19 C513 -19 560 -10 632 18 C696 -42 728 -59 777 -59 C838 -59 885 -26 909 35 C919 61 921 77 923 142 L923 152 Z M554 103 C505 70 476 60 434 60 C375 60 335 89 335 131 C335 166 363 192 400 192 C448 192 485 170 554 103 L554 103 Z M628 207 C561 266 499 293 427 293 C384 293 343 279 320 256 C297 233 287 208 281 155 C234 215 218 260 218 339 C218 498 304 599 440 599 C509 599 570 571 607 523 C642 477 663 411 663 345 C663 290 652 246 628 207 L628 207 Z " />
<glyph glyph-name="R" unicode="R" horiz-adv-x="858" d="M22 585 L67 585 C132 586 142 578 141 524 L141 143 C142 89 133 81 67 82 L22 82 L22 0 L432 0 L432 82 L379 82 C312 81 304 88 304 143 L304 310 L418 310 C488 313 522 281 525 211 L526 144 C528 74 536 46 562 22 C590 -5 636 -20 685 -20 C741 -20 791 1 817 36 C840 67 848 102 848 171 L848 188 L769 188 C768 95 763 78 734 78 C712 78 705 91 704 142 L701 212 C695 297 670 323 575 344 C636 359 660 369 688 388 C728 414 750 455 750 504 C750 555 724 601 683 627 C636 655 575 667 476 667 L22 667 L22 585 Z M304 390 L304 585 L381 585 C490 585 506 583 539 564 C566 549 580 523 580 489 C580 454 564 424 537 410 C506 394 472 390 375 390 L304 390 Z " />
<glyph glyph-name="S" unicode="S" horiz-adv-x="721" d="M138 -5 L163 49 C246 -3 304 -20 398 -20 C579 -20 698 67 698 200 C698 266 664 323 605 352 C553 379 493 396 367 421 C263 442 237 451 213 475 C204 484 198 501 198 517 C198 567 248 597 328 597 C393 597 454 579 497 546 C531 519 548 488 562 421 L655 421 L655 669 L574 669 L547 623 C466 671 416 686 331 686 C160 686 45 601 45 473 C45 411 78 355 131 326 C181 300 242 282 370 256 C473 236 508 223 526 199 C536 187 541 172 541 156 C541 107 484 74 398 74 C332 74 274 92 228 126 C185 157 167 188 147 262 L52 262 L52 -5 L138 -5 Z " />
<glyph glyph-name="T" unicode="T" horiz-adv-x="748" d="M292 143 C292 89 284 81 218 82 L165 82 L165 0 L582 0 L582 82 L529 82 C463 81 455 89 455 143 L455 587 C585 588 629 542 631 402 L725 402 L725 667 L22 667 L22 402 L117 402 C118 541 162 588 292 587 L292 143 Z " />
<glyph glyph-name="U" unicode="U" horiz-adv-x="841" d="M816 667 L485 667 L485 585 L533 585 C593 586 601 579 601 524 L601 211 C601 157 592 130 569 111 C545 91 496 78 440 78 C397 78 364 86 340 103 C310 125 299 154 299 217 L299 524 C299 579 307 586 374 585 L427 585 L427 667 L22 667 L22 585 L61 585 C128 586 136 578 136 524 L136 206 C136 136 153 91 195 51 C245 2 316 -21 415 -21 C611 -21 711 58 711 213 L711 524 C711 579 719 586 779 585 L816 585 L816 667 Z " />
<glyph glyph-name="V" unicode="V" horiz-adv-x="776" d="M-16 585 L12 585 C59 584 78 569 100 519 L296 0 L471 0 L673 514 C694 569 710 583 757 585 L788 585 L788 667 L453 667 L453 587 L505 585 C554 583 559 581 559 561 C559 549 557 537 553 526 L414 169 L284 522 C278 537 275 551 275 560 C275 580 287 585 336 585 L385 585 L385 667 L-16 667 L-16 585 Z " />
<glyph glyph-name="W" unicode="W" horiz-adv-x="1071" d="M389 585 C443 584 456 574 480 519 L492 485 L377 169 L269 522 C263 540 261 552 261 561 C261 581 270 585 317 585 L340 585 L340 667 L16 667 L16 585 C65 583 80 571 100 519 L261 0 L432 0 L543 316 L641 0 L811 0 L970 514 C988 568 1005 584 1047 585 L1066 585 L1066 667 L779 667 L779 587 L816 587 C852 587 866 580 866 562 C866 553 864 542 859 526 L757 169 L649 522 C642 544 641 550 641 557 C641 579 653 585 697 585 L731 585 L731 667 L389 667 L389 585 Z " />
<glyph glyph-name="X" unicode="X" horiz-adv-x="814" d="M10 585 L46 585 C79 584 93 577 117 550 L312 327 L133 145 C83 94 69 86 31 82 L-16 82 L-16 0 L345 0 L345 82 L315 82 C274 82 259 88 259 103 C259 113 264 122 280 139 L380 248 L478 133 C487 123 492 111 492 102 C492 90 474 82 444 82 L405 82 L405 0 L823 0 L823 82 L777 82 C743 83 729 90 705 117 L494 360 L680 547 C707 576 721 583 754 585 L795 585 L795 667 L457 667 L457 585 L481 585 C516 585 532 579 532 564 C532 555 528 549 510 530 L421 438 L343 534 C334 545 329 556 329 564 C329 577 346 585 377 585 L399 585 L399 667 L10 667 L10 585 Z " />
<glyph glyph-name="Y" unicode="Y" horiz-adv-x="770" d="M-16 585 L12 585 C52 586 84 565 122 514 L303 277 L303 143 C303 89 295 81 229 82 L170 82 L170 0 L599 0 L599 82 L540 82 C474 81 466 89 466 143 L466 277 L656 520 C695 573 715 585 759 585 L784 585 L784 667 L456 667 L456 587 L483 587 C522 587 541 579 541 563 C541 556 538 549 529 537 L418 389 L321 528 C313 539 308 551 308 559 C308 579 320 585 356 585 L385 585 L385 667 L-16 667 L-16 585 Z " />
<glyph glyph-name="Z" unicode="Z" horiz-adv-x="716" d="M22 0 L663 0 L663 286 L565 286 C556 124 520 85 374 81 L235 81 L663 575 L663 667 L45 667 L45 403 L135 403 C145 544 187 585 321 585 L453 585 L22 84 L22 0 Z " />
<glyph glyph-name="bracketleft" unicode="&#x5b;" horiz-adv-x="437" d="M417 -176 L417 -99 L273 -99 L273 590 L417 590 L417 667 L126 667 L126 -176 L417 -176 Z " />
<glyph glyph-name="backslash" unicode="&#x5c;" horiz-adv-x="422" d="M326 -92 L411 -92 L129 686 L44 686 L326 -92 Z " />
<glyph glyph-name="bracketright" unicode="&#x5d;" horiz-adv-x="437" d="M22 667 L22 590 L166 590 L166 -100 L22 -100 L22 -177 L313 -177 L313 667 L22 667 Z " />
<glyph glyph-name="asciicircum" unicode="&#x5e;" horiz-adv-x="550" d="M158 353 L275 575 L393 353 L532 353 L362 670 L189 670 L19 353 L158 353 Z " />
<glyph glyph-name="underscore" unicode="&#x5f;" horiz-adv-x="500" d="M0 -58 L0 -143 L500 -143 L500 -58 L0 -58 Z " />
<glyph glyph-name="grave" unicode="&#x60;" horiz-adv-x="524" d="M342 540 L207 683 C174 718 155 730 132 730 C101 730 78 707 78 677 C78 653 92 637 128 619 L287 540 L342 540 Z " />
<glyph glyph-name="a" unicode="a" horiz-adv-x="645" d="M629 173 L569 173 L569 120 C569 88 558 74 533 74 C509 74 498 89 498 120 L498 313 C498 382 493 402 472 426 C438 465 369 486 280 486 C137 486 47 437 47 358 C47 313 84 282 138 282 C186 282 224 310 224 344 C224 378 203 397 160 402 C188 423 210 430 250 430 C317 430 361 398 361 350 C361 302 330 281 237 264 C155 249 111 235 77 215 C42 194 22 157 22 115 C22 34 88 -18 190 -18 C261 -18 307 0 370 54 C398 1 429 -17 495 -17 C541 -17 576 -4 599 20 C622 44 629 70 629 127 L629 173 Z M357 169 C357 108 317 73 246 73 C202 73 174 94 174 127 C174 144 181 157 196 170 C210 183 224 189 284 210 C295 213 325 224 357 237 L357 169 Z " />
<glyph glyph-name="b" unicode="b" horiz-adv-x="672" d="M5 593 L30 593 C90 588 96 582 97 534 L97 -4 L183 -4 L225 66 C249 37 264 23 281 12 C313 -7 358 -18 406 -18 C551 -18 631 71 631 234 C631 388 549 483 418 483 C342 483 297 458 240 385 L240 667 L5 667 L5 593 Z M359 393 C437 393 474 341 474 231 C474 120 437 66 360 66 C322 66 295 78 274 105 C250 135 242 169 242 239 C242 298 251 330 274 358 C295 382 322 393 359 393 L359 393 Z " />
<glyph glyph-name="c" unicode="c" horiz-adv-x="574" d="M424 179 C418 146 411 125 400 110 C381 84 347 69 305 69 C266 69 234 83 216 107 C196 135 184 185 184 242 C184 353 229 410 318 410 C354 410 375 403 413 379 C367 370 345 348 345 310 C345 267 381 236 432 236 C491 236 531 274 531 330 C531 421 438 487 313 487 C238 487 169 465 115 423 C56 377 27 313 27 229 C27 79 134 -18 299 -18 C384 -18 449 8 487 57 C511 88 519 117 521 179 L424 179 Z " />
<glyph glyph-name="d" unicode="d" horiz-adv-x="677" d="M413 394 C366 461 325 483 246 483 C108 483 27 392 27 234 C27 76 105 -17 238 -17 C279 -17 319 -7 348 11 C370 25 384 40 405 75 L405 0 L659 0 L659 70 L621 70 C564 73 556 80 556 129 L556 667 L327 667 L327 593 L345 593 C404 591 413 583 413 534 L413 394 Z M296 393 C332 393 358 382 378 358 C402 331 410 298 410 234 C410 122 372 67 295 67 C220 67 184 120 184 231 C184 341 220 393 296 393 L296 393 Z " />
<glyph glyph-name="e" unicode="e" horiz-adv-x="595" d="M443 161 C425 94 391 68 323 68 C278 68 249 80 229 108 C209 135 202 161 201 218 L561 218 C558 318 542 368 497 415 C452 461 380 488 300 488 C136 488 27 384 27 228 C27 78 134 -18 301 -18 C388 -18 458 7 504 55 C531 83 542 108 550 161 L443 161 Z M204 294 C205 337 210 356 223 375 C239 397 266 409 299 409 C332 409 360 397 375 375 C389 356 394 337 395 294 L204 294 Z " />
<glyph glyph-name="f" unicode="f" horiz-adv-x="410" d="M370 74 L328 74 C275 76 268 84 268 133 L268 389 L380 389 L380 469 L268 469 L268 528 C268 575 273 597 286 611 C297 621 317 628 337 628 C351 628 362 625 385 616 C349 602 335 588 335 563 C335 529 366 504 408 504 C456 504 487 532 487 574 C487 640 420 685 321 685 C253 685 193 662 160 623 C135 595 125 562 125 507 L125 469 L27 469 L27 389 L125 389 L125 133 C124 83 116 76 62 74 L27 74 L27 0 L370 0 L370 74 Z " />
<glyph glyph-name="g" unicode="g" horiz-adv-x="699" d="M123 165 C55 138 32 113 32 68 C32 22 56 -4 119 -27 C49 -45 22 -67 22 -110 C22 -179 113 -214 295 -214 C403 -214 486 -201 534 -176 C584 -151 612 -107 612 -56 C612 30 542 74 402 74 C391 74 368 74 344 73 C307 72 277 72 267 72 C158 72 138 77 138 103 C138 118 150 129 178 139 C228 124 250 120 289 120 C439 120 535 188 535 293 C535 338 525 369 499 404 C528 428 547 439 563 439 C572 439 586 435 601 428 C573 416 559 398 559 373 C559 341 590 316 628 316 C673 316 702 345 702 389 C702 444 651 484 582 484 C541 484 516 474 468 440 C408 475 367 486 297 486 C150 486 54 415 54 306 C54 252 73 213 123 165 L123 165 Z M300 420 C337 420 362 409 373 387 C383 368 389 334 389 298 C389 213 362 181 293 181 C230 181 200 218 200 297 C200 386 227 420 300 420 L300 420 Z M316 -46 C345 -46 384 -49 408 -52 C452 -58 466 -69 466 -97 C466 -135 418 -152 310 -152 C203 -152 162 -136 162 -95 C162 -72 175 -59 208 -53 C228 -49 278 -46 316 -46 L316 -46 Z " />
<glyph glyph-name="h" unicode="h" horiz-adv-x="721" d="M378 0 L699 0 L699 74 L671 74 C611 76 603 83 603 133 L603 311 C603 382 593 418 565 443 C537 469 490 484 439 484 C363 484 316 460 257 391 L257 667 L22 667 L22 593 L51 593 C105 591 113 584 114 534 L114 133 C113 83 105 76 51 74 L22 74 L22 0 L339 0 L339 74 L318 74 C264 76 257 83 257 133 L257 272 C257 349 307 401 381 401 C409 401 432 392 445 376 C457 362 460 347 460 309 L460 133 C460 83 452 76 399 74 L378 74 L378 0 Z " />
<glyph glyph-name="i" unicode="i" horiz-adv-x="388" d="M363 74 L327 74 C274 76 267 84 267 133 L267 469 L27 469 L27 395 L59 395 C109 393 116 386 117 336 L117 133 C116 83 109 76 59 74 L27 74 L27 0 L363 0 L363 74 Z M185 667 C143 667 108 633 108 591 C108 546 141 512 186 512 C229 512 263 546 263 590 C263 632 228 667 185 667 L185 667 Z " />
<glyph glyph-name="j" unicode="j" horiz-adv-x="359" d="M188 667 C146 667 111 633 111 591 C111 546 144 512 189 512 C232 512 266 546 266 590 C266 632 231 667 188 667 L188 667 Z M42 395 L75 395 C121 393 127 386 128 336 L128 -64 C128 -134 115 -157 77 -157 C68 -157 60 -155 45 -149 C74 -136 86 -121 86 -96 C86 -61 56 -38 13 -38 C-39 -38 -72 -68 -72 -114 C-72 -176 -12 -214 83 -214 C183 -214 248 -176 266 -108 C271 -89 271 -83 271 -12 L271 469 L42 469 L42 395 Z " />
<glyph glyph-name="k" unicode="k" horiz-adv-x="715" d="M16 593 L48 593 C98 591 105 584 106 534 L106 133 C105 83 98 76 48 74 L16 74 L16 0 L328 0 L328 74 L313 74 C261 78 256 84 256 143 L358 215 L434 115 C440 106 445 96 445 90 C445 80 434 74 416 74 L381 74 L381 0 L700 0 L700 74 L681 74 C648 74 617 93 592 129 L469 295 L542 352 C580 383 599 391 637 395 L664 395 L664 469 L343 469 L343 395 L410 395 C430 395 437 392 437 386 C437 379 429 370 417 362 L256 243 L256 667 L16 667 L16 593 Z " />
<glyph glyph-name="l" unicode="l" horiz-adv-x="371" d="M256 667 L16 667 L16 593 L48 593 C98 591 105 584 106 534 L106 133 C105 83 98 76 48 74 L16 74 L16 0 L352 0 L352 74 L316 74 C263 76 256 84 256 133 L256 667 Z " />
<glyph glyph-name="m" unicode="m" horiz-adv-x="1027" d="M22 0 L335 0 L335 74 L322 74 C269 77 262 84 262 133 L262 272 C262 347 312 400 383 400 C405 400 424 391 434 375 C442 361 445 346 445 309 L445 133 C445 83 439 76 397 74 L374 74 L374 0 L659 0 L659 74 L643 74 C595 78 588 85 588 133 L588 272 C588 348 638 401 709 401 C731 401 749 392 759 376 C768 362 770 347 770 309 L770 133 C770 83 764 76 723 74 L700 74 L700 0 L1006 0 L1006 74 L976 74 C920 76 913 84 913 133 L913 311 C913 381 904 417 878 443 C853 469 810 484 763 484 C695 484 653 462 583 389 C554 461 521 484 450 484 C376 484 332 462 266 390 L266 469 L22 469 L22 395 L56 395 C110 393 118 386 119 336 L119 133 C118 83 110 76 56 74 L22 74 L22 0 Z " />
<glyph glyph-name="n" unicode="n" horiz-adv-x="721" d="M383 0 L701 0 L701 74 L676 74 C616 76 608 83 608 133 L608 311 C608 382 598 418 571 443 C544 469 498 484 447 484 C376 484 336 462 266 385 L266 469 L22 469 L22 395 L56 395 C110 393 118 386 119 336 L119 133 C118 83 110 76 56 74 L22 74 L22 0 L344 0 L344 74 L323 74 C268 76 262 83 262 133 L262 272 C262 350 311 401 385 401 C414 401 436 392 450 376 C462 362 465 347 465 309 L465 133 C465 83 457 76 404 74 L383 74 L383 0 Z " />
<glyph glyph-name="o" unicode="o" horiz-adv-x="650" d="M325 486 C149 486 30 386 30 238 C30 82 145 -17 327 -17 C503 -17 620 83 620 234 C620 387 503 486 325 486 L325 486 Z M325 409 C418 409 463 352 463 235 C463 117 418 60 326 60 C232 60 187 117 187 237 C187 351 234 409 325 409 L325 409 Z " />
<glyph glyph-name="p" unicode="p" horiz-adv-x="688" d="M253 469 L16 469 L16 395 L43 395 C98 393 105 386 105 336 L105 -81 C105 -131 98 -138 43 -140 L16 -140 L16 -214 L355 -214 L355 -140 L328 -140 C257 -138 248 -131 248 -81 L248 78 C269 43 284 25 303 12 C332 -6 374 -17 419 -17 C558 -17 640 75 640 232 C640 388 561 484 431 484 C353 484 308 459 253 385 L253 469 Z M368 400 C409 400 442 383 458 355 C474 328 483 283 483 235 C483 188 474 145 458 117 C442 89 410 73 367 73 C330 73 302 84 282 108 C257 137 249 167 249 233 C249 296 258 332 281 361 C303 388 330 400 368 400 L368 400 Z " />
<glyph glyph-name="q" unicode="q" horiz-adv-x="677" d="M323 -214 L663 -214 L663 -140 L634 -140 C580 -137 572 -130 571 -80 L571 336 C572 386 580 393 634 395 L663 395 L663 469 L424 469 L424 391 C369 463 325 487 250 487 C120 487 38 389 38 232 C38 75 120 -17 260 -17 C298 -17 335 -9 362 5 C388 19 405 37 429 78 L429 -80 C429 -130 419 -137 350 -140 L323 -140 L323 -214 Z M310 400 C347 400 374 388 396 361 C419 332 428 296 428 227 C428 169 419 136 395 108 C375 84 348 73 311 73 C268 73 236 88 220 117 C204 145 195 188 195 235 C195 346 232 400 310 400 L310 400 Z " />
<glyph glyph-name="r" unicode="r" horiz-adv-x="535" d="M262 469 L22 469 L22 395 L51 395 C105 393 113 386 114 336 L114 133 C113 83 105 76 51 74 L22 74 L22 0 L370 0 L370 74 L317 74 C265 76 257 84 257 133 L257 253 C257 320 265 353 290 383 C311 408 342 423 373 423 C383 423 391 421 407 414 C366 402 348 382 348 349 C348 312 381 285 426 285 C482 285 521 323 521 376 C521 440 471 482 397 482 C338 482 300 461 262 408 L262 469 Z " />
<glyph glyph-name="s" unicode="s" horiz-adv-x="595" d="M145 30 C216 -5 268 -18 334 -18 C461 -18 551 47 551 138 C551 190 521 235 470 258 C436 273 394 286 321 302 C234 321 230 322 212 335 C202 341 196 354 196 366 C196 394 227 412 273 412 C303 412 338 404 365 391 C395 376 415 358 449 314 L523 314 L523 474 L449 474 L433 445 C371 476 329 487 266 487 C138 487 48 423 48 333 C48 300 62 268 86 249 C120 221 178 196 242 182 C356 157 360 156 380 145 C397 136 404 126 404 112 C404 81 368 61 312 61 C271 61 238 69 208 87 C172 108 158 125 136 176 L50 176 L50 -7 L126 -7 L145 30 Z " />
<glyph glyph-name="t" unicode="t" horiz-adv-x="475" d="M344 224 L344 180 C344 98 332 75 291 75 C256 75 245 91 245 144 L245 391 L390 391 L390 469 L254 469 L254 652 L166 652 C150 528 117 487 16 463 L16 391 L103 391 L103 170 C103 93 107 71 128 41 C154 2 198 -17 262 -17 C322 -17 363 1 390 38 C410 67 416 94 416 154 L416 224 L344 224 Z " />
<glyph glyph-name="u" unicode="u" horiz-adv-x="721" d="M22 395 L40 395 C90 393 97 386 97 336 L97 156 C97 85 107 49 135 24 C163 -2 210 -17 261 -17 C336 -17 382 6 446 76 L446 0 L700 0 L700 74 L661 74 C605 76 597 84 597 133 L597 469 L375 469 L375 395 L402 395 C446 393 454 384 454 336 L454 195 C454 120 400 66 324 66 C294 66 270 75 256 91 C244 105 240 120 240 158 L240 469 L22 469 L22 395 Z " />
<glyph glyph-name="v" unicode="v" horiz-adv-x="617" d="M335 108 L254 343 C250 354 248 364 248 370 C248 388 261 396 294 396 C301 396 303 396 312 395 L312 469 L5 469 L5 395 C65 393 78 383 100 329 L220 0 L391 0 L519 328 C543 390 549 395 603 395 L611 395 L611 469 L361 469 L361 395 L386 395 C415 395 431 388 431 376 C431 368 428 354 421 338 L335 108 Z " />
<glyph glyph-name="w" unicode="w" horiz-adv-x="918" d="M266 469 L5 469 L5 395 C59 393 72 382 91 329 L186 0 L357 0 L453 245 L535 0 L700 0 L821 328 C843 388 851 395 910 395 L910 469 L671 469 L671 395 L685 395 C716 395 732 388 732 376 C732 368 731 366 721 338 L642 112 L564 343 C560 355 558 364 558 370 C558 388 569 394 602 396 C605 396 611 396 617 395 L617 469 L336 469 L336 395 L354 395 C385 395 399 388 399 372 C399 363 396 350 390 338 L294 113 L226 343 C223 354 221 364 221 370 C221 389 230 395 257 395 L266 395 L266 469 Z " />
<glyph glyph-name="x" unicode="x" horiz-adv-x="705" d="M21 395 C76 393 97 383 142 341 L254 231 L124 123 C73 80 59 74 0 74 L0 0 L283 0 L283 74 L261 74 C238 74 228 78 228 86 C228 93 235 103 247 113 L316 172 L378 116 C396 100 401 94 401 86 C401 77 388 74 354 74 L337 74 L337 0 L682 0 L682 74 C621 75 598 85 553 128 L442 250 L547 345 C587 381 615 395 651 395 L660 395 L660 469 L415 469 L415 395 L424 396 C439 397 451 391 451 382 C451 374 446 364 439 359 L373 303 L321 352 C310 363 303 375 303 383 C303 390 316 396 334 396 C340 396 343 396 350 395 L350 469 L21 469 L21 395 Z " />
<glyph glyph-name="y" unicode="y" horiz-adv-x="623" d="M524 326 C550 386 563 395 621 396 L621 469 L373 469 L373 396 L395 396 C426 396 441 389 441 375 C441 366 437 353 431 338 L347 152 L258 343 C253 353 251 362 251 372 C251 389 263 396 297 396 L320 396 L320 469 L1 469 L1 396 C63 395 75 387 104 327 L266 -16 C242 -80 225 -107 197 -130 C179 -145 155 -154 134 -154 C115 -154 102 -148 80 -130 C112 -129 128 -125 142 -116 C159 -105 169 -85 169 -63 C169 -24 135 3 86 3 C31 3 -6 -34 -6 -90 C-6 -164 57 -216 146 -216 C239 -216 303 -163 359 -38 L524 326 Z " />
<glyph glyph-name="z" unicode="z" horiz-adv-x="584" d="M33 0 L522 0 L522 218 L435 218 C434 97 417 76 309 74 L216 74 L522 389 L522 469 L56 469 L56 267 L139 267 C140 382 155 397 264 395 L339 395 L33 83 L33 0 Z " />
<glyph glyph-name="braceleft" unicode="&#x7b;" horiz-adv-x="437" d="M296 510 C294 590 305 597 417 596 L417 668 C368 670 357 670 348 670 C207 670 162 635 162 528 L162 361 C161 304 144 283 94 274 L94 205 C145 194 162 173 162 115 L162 -46 C162 -155 207 -191 344 -191 C364 -191 381 -191 417 -189 L417 -117 C302 -117 295 -112 296 -30 L296 115 C295 182 280 213 236 239 C281 267 294 293 296 363 L296 510 Z " />
<glyph glyph-name="bar" unicode="&#x7c;" horiz-adv-x="536" d="M197 667 L197 -167 L339 -167 L339 667 L197 667 Z " />
<glyph glyph-name="braceright" unicode="&#x7d;" horiz-adv-x="437" d="M142 -31 C144 -101 133 -114 67 -117 L41 -117 L20 -117 L20 -189 C68 -191 78 -191 90 -191 C168 -191 206 -183 235 -160 C263 -138 276 -103 276 -49 L276 118 C277 174 293 196 343 205 L343 274 C292 284 276 306 276 364 L276 525 C276 634 231 670 94 670 C75 670 65 670 20 668 L20 596 C135 597 144 590 142 509 L142 363 C143 297 158 266 202 239 C157 212 144 186 142 116 L142 -31 Z " />
<glyph glyph-name="asciitilde" unicode="&#x7e;" horiz-adv-x="685" d="M172 556 C197 602 216 619 244 619 C259 619 277 614 301 604 C408 558 412 557 437 557 C476 557 512 576 540 611 C556 631 567 652 585 692 L515 749 C490 704 470 686 442 686 C423 686 414 689 359 714 C302 739 275 747 248 747 C186 747 140 705 102 613 L172 556 Z " />
<glyph glyph-name="uni00A0" unicode="&#xa0;" horiz-adv-x="250" d="" />
<glyph glyph-name="exclamdown" unicode="&#xa1;" horiz-adv-x="344" d="M174 483 C126 483 87 448 87 405 C87 362 126 326 172 326 C222 326 261 360 261 404 C261 448 222 483 174 483 L174 483 Z M132 267 C125 174 120 138 96 -9 C84 -83 82 -102 82 -126 C82 -186 115 -220 174 -220 C233 -220 266 -187 266 -126 C266 -101 264 -83 252 -9 C229 133 223 176 216 267 L132 267 Z " />
<glyph glyph-name="cent" unicode="&#xa2;" horiz-adv-x="688" d="M148 -101 L218 -101 L282 9 C320 2 337 0 361 0 C495 0 581 71 581 181 L581 197 L484 197 C476 148 465 125 441 107 C424 94 401 86 378 86 C365 86 354 88 332 95 L434 274 C456 258 467 254 492 254 C551 254 591 292 591 348 C591 388 578 414 538 455 L605 570 L535 570 L486 485 C439 502 418 506 377 506 C202 506 87 403 87 247 C87 142 133 68 223 28 L148 -101 Z M288 139 C251 185 239 216 239 266 C239 366 292 428 378 428 C414 428 435 421 473 397 C442 390 438 388 416 365 L288 139 Z " />
<glyph glyph-name="sterling" unicode="&#xa3;" horiz-adv-x="688" d="M79 -16 C153 30 190 44 230 44 C259 44 278 39 371 7 C414 -8 456 -17 486 -17 C531 -17 578 7 606 44 C630 75 640 113 640 167 C640 173 640 188 639 202 L568 202 C564 135 550 111 513 111 C497 111 476 116 454 123 C368 154 366 155 334 155 C304 155 279 149 218 128 C289 175 311 207 313 268 L441 268 L441 336 L307 336 C268 413 258 440 258 470 C258 518 313 555 385 555 C428 555 454 547 499 517 C459 498 444 481 444 454 C444 414 484 382 534 382 C588 382 626 418 626 468 C626 559 516 623 362 623 C263 623 190 598 140 549 C112 520 95 483 95 447 C95 414 104 388 131 336 L49 336 L49 268 L154 268 L155 231 C155 167 126 128 38 75 L79 -16 Z " />
<glyph glyph-name="currency" unicode="&#xa4;" horiz-adv-x="733" d="M22 137 L99 67 L212 169 C269 137 311 125 366 125 C422 125 471 139 522 170 L635 67 L712 138 L598 241 C632 287 646 328 646 377 C646 427 632 466 596 517 L708 619 L631 689 L518 587 C468 616 423 629 367 629 C310 629 265 616 213 586 L99 690 L21 619 L136 515 C102 470 87 428 87 377 C87 328 103 283 135 240 L22 137 Z M368 512 C455 512 527 451 527 377 C527 302 455 242 366 242 C278 242 206 303 206 377 C206 453 277 512 368 512 L368 512 Z " />
<glyph glyph-name="yen" unicode="&#xa5;" horiz-adv-x="771" d="M562 379 L633 472 C668 519 686 531 725 531 L748 531 L748 605 L451 605 L451 533 L475 533 C512 533 529 526 529 511 C529 504 527 500 517 487 L416 353 L328 478 C321 488 317 499 317 507 C317 525 327 531 361 531 L387 531 L387 605 L23 605 L23 531 L48 531 C85 532 114 512 148 466 L212 379 L105 379 L105 311 L265 311 L309 255 L116 255 L116 187 L312 187 L312 130 C312 80 305 74 245 74 L191 74 L191 0 L581 0 L581 74 L527 74 C467 74 460 80 460 130 L460 187 L656 187 L656 255 L464 255 L509 311 L667 311 L667 379 L562 379 Z " />
<glyph glyph-name="brokenbar" unicode="&#xa6;" horiz-adv-x="536" d="M197 667 L197 317 L339 317 L339 667 L197 667 Z M197 153 L197 -167 L339 -167 L339 153 L197 153 Z " />
<glyph glyph-name="section" unicode="&#xa7;" horiz-adv-x="655" d="M186 395 C92 349 60 311 60 243 C60 156 118 112 306 56 C429 20 464 -4 464 -53 C464 -111 403 -150 313 -150 C271 -150 244 -143 206 -123 C238 -104 249 -88 249 -62 C249 -23 221 2 177 2 C126 2 91 -31 91 -80 C91 -156 186 -211 318 -211 C473 -211 571 -141 571 -29 C571 32 549 64 475 109 C516 128 532 137 552 154 C584 180 602 217 602 256 C602 307 569 356 516 384 C467 410 404 433 289 469 C227 488 203 509 203 545 C203 594 255 626 336 626 C374 626 393 622 434 605 C410 587 401 573 401 553 C401 518 431 494 473 494 C519 494 552 524 552 566 C552 637 462 688 338 688 C198 688 99 619 99 523 C99 469 124 432 186 395 L186 395 Z M255 352 C285 352 403 313 446 288 C465 277 498 237 498 225 C498 218 482 195 467 178 C445 155 425 146 401 148 C366 152 220 204 199 221 C184 232 158 270 158 279 C158 287 186 326 199 336 C211 346 231 352 255 352 L255 352 Z " />
<glyph glyph-name="dieresis" unicode="&#xa8;" horiz-adv-x="536" d="M166 699 C128 699 95 667 95 630 C95 591 126 560 166 560 C204 560 234 590 234 629 C234 668 203 699 166 699 L166 699 Z M374 699 C336 699 303 667 303 630 C303 591 334 560 374 560 C412 560 442 590 442 629 C442 668 411 699 374 699 L374 699 Z " />
<glyph glyph-name="copyright" unicode="&#xa9;" horiz-adv-x="877" d="M559 294 C556 258 550 241 537 224 C518 201 488 188 452 188 C376 188 333 241 333 334 C333 426 376 479 452 479 C487 479 515 467 535 445 C552 426 558 409 564 370 L624 370 L624 528 L567 528 L557 499 C509 527 483 535 438 535 C313 535 220 449 220 334 C220 213 311 132 445 132 C514 132 559 149 592 188 C614 215 622 239 626 294 L559 294 Z M444 685 C217 685 38 530 38 333 C38 140 218 -18 439 -18 C659 -18 838 139 838 333 C838 525 659 685 444 685 L444 685 Z M443 622 C620 622 766 491 766 333 C766 174 619 45 439 45 C258 45 110 175 110 333 C110 495 257 622 443 622 L443 622 Z " />
<glyph glyph-name="ordfeminine" unicode="&#xaa;" horiz-adv-x="420" d="M410 437 L365 437 L365 403 C365 385 360 378 349 378 C338 378 333 386 333 403 L333 516 C333 558 330 570 315 586 C292 609 246 622 187 622 C91 622 30 591 30 543 C30 515 56 495 91 495 C123 495 149 513 149 535 C149 554 137 566 115 571 C128 579 140 582 162 582 C203 582 229 565 229 538 C229 512 210 501 153 491 C49 473 14 450 14 400 C14 350 57 318 124 318 C169 318 199 328 238 358 C256 328 277 318 319 318 C350 318 374 326 390 341 C405 356 410 372 410 407 L410 437 Z M226 431 C226 397 202 378 159 378 C134 378 118 389 118 407 C118 427 130 435 186 452 C191 454 208 460 226 466 L226 431 Z " />
<glyph glyph-name="guillemotleft" unicode="&#xab;" horiz-adv-x="530" d="M168 403 L122 346 C84 299 60 257 60 237 C60 218 84 176 122 129 L168 72 L253 72 L219 138 C182 215 178 224 178 238 C178 257 185 273 222 338 L259 403 L168 403 Z M380 403 L335 346 C297 299 273 257 273 237 C273 218 297 175 335 129 L380 72 L466 72 L432 138 C395 215 391 224 391 238 C391 257 398 273 435 338 L472 403 L380 403 Z " />
<glyph glyph-name="logicalnot" unicode="&#xac;" horiz-adv-x="550" d="M376 0 L514 0 L514 289 L37 289 L37 165 L376 165 L376 0 Z " />
<glyph glyph-name="uni00AD" unicode="&#xad;" horiz-adv-x="302" d="M0 172 L302 172 L302 299 L0 299 L0 172 Z " />
<glyph glyph-name="registered" unicode="&#xae;" horiz-adv-x="877" d="M218 471 L247 471 C283 471 286 469 286 440 L286 226 C286 197 283 195 247 195 L218 195 L218 143 L458 143 L458 195 L424 195 C389 195 386 197 386 226 L386 316 L446 316 C484 317 502 301 504 265 L504 227 C505 186 510 170 526 156 C543 141 570 132 599 132 C631 132 661 144 677 164 C690 182 695 202 695 242 L695 255 L643 255 C643 203 640 193 627 193 C616 193 614 199 613 226 L611 265 C608 310 593 328 550 339 C612 355 639 383 639 429 C639 492 587 523 479 523 L218 523 L218 471 Z M386 368 L386 471 L425 471 C487 471 496 470 514 460 C528 452 536 438 536 420 C536 402 527 386 513 379 C496 370 477 368 422 368 L386 368 Z M444 685 C217 685 38 530 38 333 C38 140 218 -18 439 -18 C659 -18 838 139 838 333 C838 525 659 685 444 685 L444 685 Z M443 622 C620 622 766 491 766 333 C766 174 619 45 439 45 C258 45 110 175 110 333 C110 495 257 622 443 622 L443 622 Z " />
<glyph glyph-name="macron" unicode="&#xaf;" horiz-adv-x="520" d="M111 588 L409 588 L409 670 L111 670 L111 588 Z " />
<glyph glyph-name="degree" unicode="&#xb0;" horiz-adv-x="400" d="M203 686 C117 686 50 619 50 534 C50 448 116 381 200 381 C284 381 350 448 350 533 C350 619 286 686 203 686 L203 686 Z M202 629 C252 629 293 586 293 534 C293 480 252 438 200 438 C148 438 106 481 106 533 C106 587 148 629 202 629 L202 629 Z " />
<glyph glyph-name="plusminus" unicode="&#xb1;" horiz-adv-x="549" d="M11 55 L11 0 L535 0 L535 55 L11 55 Z M302 662 L247 662 L247 423 L10 423 L10 368 L247 368 L247 129 L302 129 L302 368 L539 368 L539 423 L302 423 L302 662 Z " />
<glyph glyph-name="twosuperior" unicode="&#xb2;" horiz-adv-x="432" d="M87 266 C95 288 104 296 122 296 C133 296 149 292 170 285 C238 260 256 256 290 256 C363 256 399 292 399 365 C399 369 399 377 398 386 L350 386 C348 346 335 332 302 332 C289 332 270 335 239 341 C211 347 193 349 180 349 C159 349 143 345 109 332 C133 364 150 373 220 389 C312 409 312 409 339 423 C370 439 389 469 389 503 C389 569 319 615 218 615 C117 615 41 568 41 507 C41 473 69 449 108 449 C143 449 169 468 169 494 C169 515 150 531 125 531 C121 531 112 530 103 528 C118 557 142 569 188 569 C243 569 281 545 281 508 C281 480 262 461 217 443 C74 390 33 350 36 266 L87 266 Z " />
<glyph glyph-name="threesuperior" unicode="&#xb3;" horiz-adv-x="431" d="M169 424 C217 422 234 420 250 414 C274 404 288 386 288 364 C288 324 249 300 185 300 C144 300 124 305 96 321 C135 326 151 338 151 362 C151 388 126 408 93 408 C53 408 26 385 26 350 C26 293 93 257 201 257 C322 257 393 295 393 361 C393 407 364 431 286 450 C356 464 382 484 382 525 C382 580 318 615 216 615 C116 615 41 576 41 524 C41 496 66 476 101 476 C134 476 159 494 159 518 C159 539 144 550 108 555 C134 569 159 575 193 575 C245 575 276 555 276 522 C276 501 264 485 243 478 C225 471 210 469 169 469 L169 424 Z " />
<glyph glyph-name="acute" unicode="&#xb4;" horiz-adv-x="524" d="M167 540 L222 540 L380 619 C417 637 431 653 431 677 C431 707 408 730 378 730 C354 730 335 718 302 683 L167 540 Z " />
<glyph glyph-name="mu" unicode="&#xb5;" horiz-adv-x="576" d="M442 500 L353 500 L354 131 C318 80 284 58 242 58 C184 58 150 99 150 169 L150 500 L62 500 L62 20 C62 -1 58 -26 51 -56 C34 -118 33 -123 33 -147 C33 -190 54 -219 83 -219 C112 -219 132 -189 132 -145 C132 -124 129 -110 113 -53 C102 -17 101 -8 101 21 L101 33 C143 -3 165 -13 200 -13 C250 -13 301 18 354 80 C362 48 367 36 377 21 C392 0 419 -13 449 -13 C510 -13 553 31 567 108 L540 109 C536 71 515 41 492 41 C462 41 442 77 442 131 L442 500 Z " />
<glyph glyph-name="paragraph" unicode="&#xb6;" horiz-adv-x="722" d="M241 -93 L346 -93 L346 572 L451 572 L451 -93 L556 -93 L556 572 L642 572 L642 667 L280 667 C214 667 155 657 119 640 C62 612 29 557 29 491 C29 389 109 320 228 320 C229 320 235 320 241 321 L241 -93 Z " />
<glyph glyph-name="periodcentered" unicode="&#xb7;" horiz-adv-x="344" d="M174 313 C126 313 87 278 87 236 C87 191 125 156 175 156 C223 156 261 191 261 235 C261 278 222 313 174 313 L174 313 Z " />
<glyph glyph-name="cedilla" unicode="&#xb8;" horiz-adv-x="550" d="M120 -181 C207 -217 245 -227 296 -227 C370 -227 417 -192 417 -136 C417 -88 378 -53 326 -53 C313 -53 297 -54 280 -56 L280 0 L238 0 L238 -99 C252 -97 267 -95 275 -95 C308 -95 327 -110 327 -135 C327 -157 309 -171 278 -171 C241 -171 197 -158 146 -132 L120 -181 Z " />
<glyph glyph-name="onesuperior" unicode="&#xb9;" horiz-adv-x="432" d="M178 515 L178 342 C177 314 173 310 145 309 L93 309 L93 266 L357 266 L357 309 L312 309 C278 310 274 314 274 342 L274 607 L207 607 C193 576 166 562 106 557 L106 515 L178 515 Z " />
<glyph glyph-name="ordmasculine" unicode="&#xba;" horiz-adv-x="423" d="M214 621 C95 621 19 562 19 469 C19 378 96 318 212 318 C328 318 404 378 404 469 C404 560 327 621 214 621 L214 621 Z M296 471 L296 470 L297 470 L299 463 C304 451 303 448 274 392 C268 380 240 370 211 370 C154 370 126 403 126 470 C126 539 152 569 211 569 C258 569 288 548 292 514 L296 471 Z " />
<glyph glyph-name="guillemotright" unicode="&#xbb;" horiz-adv-x="530" d="M152 72 L198 129 C235 175 259 218 259 238 C259 257 235 300 198 346 L152 403 L66 403 L100 337 C137 260 141 251 141 237 C141 218 132 199 97 137 L60 72 L152 72 Z M365 72 L411 129 C448 175 472 218 472 238 C472 257 448 300 411 346 L365 403 L279 403 L313 337 C350 260 354 251 354 237 C354 219 345 199 310 137 L273 72 L365 72 Z " />
<glyph glyph-name="onequarter" unicode="&#xbc;" horiz-adv-x="1043" d="M178 515 L178 342 C177 314 173 310 145 309 L93 309 L93 266 L357 266 L357 309 L312 309 C278 310 274 314 274 342 L274 607 L207 607 C193 576 166 562 106 557 L106 515 L178 515 Z M251 -17 L343 -17 L798 622 L705 622 L251 -17 Z M1019 43 L977 43 C946 45 941 48 942 76 L942 99 L1015 99 L1015 148 L942 148 L942 340 L856 340 L634 146 L634 99 L839 99 L839 76 C838 48 834 44 802 43 L766 43 L766 0 L1019 0 L1019 43 Z M706 148 L841 261 L839 148 L706 148 Z " />
<glyph glyph-name="onehalf" unicode="&#xbd;" horiz-adv-x="1043" d="M178 515 L178 342 C177 314 173 310 145 309 L93 309 L93 266 L357 266 L357 309 L312 309 C278 310 274 314 274 342 L274 607 L207 607 C193 576 166 562 106 557 L106 515 L178 515 Z M251 -17 L343 -17 L798 622 L705 622 L251 -17 Z M696 0 C703 22 712 29 731 29 C742 29 757 25 779 18 C849 -6 864 -10 898 -10 C972 -10 1007 25 1007 100 L1007 119 L958 119 C956 79 944 65 910 65 C898 65 879 68 848 74 C819 80 801 82 788 82 C768 82 751 78 718 65 C741 97 758 106 829 122 C920 142 920 142 947 156 C979 172 998 202 998 236 C998 302 928 348 826 348 C726 348 649 301 649 240 C649 206 677 182 717 182 C752 182 778 201 778 227 C778 248 759 264 734 264 C729 264 721 263 712 261 C726 290 751 302 797 302 C852 302 890 278 890 241 C890 213 871 194 826 176 C682 123 641 83 645 0 L696 0 Z " />
<glyph glyph-name="threequarters" unicode="&#xbe;" horiz-adv-x="1043" d="M169 424 C217 422 234 420 250 414 C274 404 288 386 288 364 C288 324 249 300 185 300 C144 300 124 305 96 321 C135 326 151 338 151 362 C151 388 126 408 93 408 C53 408 26 385 26 350 C26 293 93 257 201 257 C322 257 393 295 393 361 C393 407 364 431 286 450 C356 464 382 484 382 525 C382 580 318 615 216 615 C116 615 41 576 41 524 C41 496 66 476 101 476 C134 476 159 494 159 518 C159 539 144 550 108 555 C134 569 159 575 193 575 C245 575 276 555 276 522 C276 501 264 485 243 478 C225 471 210 469 169 469 L169 424 Z M251 -17 L342 -17 L797 622 L704 622 L251 -17 Z M1019 43 L977 43 C946 45 941 48 942 76 L942 99 L1015 99 L1015 148 L942 148 L942 340 L856 340 L633 146 L633 99 L839 99 L839 76 C838 48 834 44 802 43 L766 43 L766 0 L1019 0 L1019 43 Z M706 148 L841 261 L839 148 L706 148 Z " />
<glyph glyph-name="questiondown" unicode="&#xbf;" horiz-adv-x="617" d="M337 483 C289 483 251 448 251 405 C251 362 289 326 335 326 C385 326 424 360 424 404 C424 448 386 483 337 483 L337 483 Z M383 267 L290 267 C290 223 270 191 225 160 C144 109 144 109 129 97 C78 56 55 14 55 -39 C55 -144 163 -220 311 -220 C408 -220 482 -190 528 -133 C552 -103 566 -64 566 -26 C566 45 520 93 451 93 C393 93 357 63 357 14 C357 -26 388 -55 431 -55 C448 -55 461 -51 486 -39 C478 -73 471 -89 456 -102 C433 -123 394 -136 352 -136 C277 -136 217 -93 217 -40 C217 3 238 36 312 104 C366 155 383 188 383 241 L383 267 Z " />
<glyph glyph-name="Agrave" unicode="&#xc0;" horiz-adv-x="776" d="M787 82 L759 82 C707 81 699 88 674 149 L478 667 L291 667 L98 153 C81 101 62 85 14 82 L-22 82 L-22 0 L308 0 L308 82 L262 82 C219 82 206 88 206 109 C206 116 209 128 214 142 L242 214 L466 214 L493 145 C498 133 501 120 501 112 C501 88 487 82 435 82 L395 82 L395 0 L787 0 L787 82 Z M436 297 L273 297 L354 512 L436 297 Z M415 721 L469 721 L332 842 C310 861 297 868 280 868 C255 868 234 847 234 822 C234 801 250 782 277 772 L415 721 Z " />
<glyph glyph-name="Aacute" unicode="&#xc1;" horiz-adv-x="776" d="M787 82 L759 82 C707 81 699 88 674 149 L478 667 L291 667 L98 153 C81 101 62 85 14 82 L-22 82 L-22 0 L308 0 L308 82 L262 82 C219 82 206 88 206 109 C206 116 209 128 214 142 L242 214 L466 214 L493 145 C498 133 501 120 501 112 C501 88 487 82 435 82 L395 82 L395 0 L787 0 L787 82 Z M436 297 L273 297 L354 512 L436 297 Z M351 721 L488 772 C516 782 532 801 532 822 C532 847 511 868 486 868 C469 868 456 861 434 842 L297 721 L351 721 Z " />
<glyph glyph-name="Acircumflex" unicode="&#xc2;" horiz-adv-x="776" d="M787 82 L759 82 C707 81 699 88 674 149 L478 667 L291 667 L98 153 C81 101 62 85 14 82 L-22 82 L-22 0 L308 0 L308 82 L262 82 C219 82 206 88 206 109 C206 116 209 128 214 142 L242 214 L466 214 L493 145 C498 133 501 120 501 112 C501 88 487 82 435 82 L395 82 L395 0 L787 0 L787 82 Z M436 297 L273 297 L354 512 L436 297 Z M234 721 L280 721 L388 776 L495 721 L542 721 L445 858 L330 858 L234 721 Z " />
<glyph glyph-name="Atilde" unicode="&#xc3;" horiz-adv-x="776" d="M787 82 L759 82 C707 81 699 88 674 149 L478 667 L291 667 L98 153 C81 101 62 85 14 82 L-22 82 L-22 0 L308 0 L308 82 L262 82 C219 82 206 88 206 109 C206 116 209 128 214 142 L242 214 L466 214 L493 145 C498 133 501 120 501 112 C501 88 487 82 435 82 L395 82 L395 0 L787 0 L787 82 Z M436 297 L273 297 L354 512 L436 297 Z M275 720 C283 748 296 761 317 761 C325 761 335 759 347 756 L402 741 C412 739 424 737 433 737 C460 737 483 748 501 769 C520 790 528 810 539 858 L501 858 C490 828 480 818 457 818 C452 818 444 819 436 821 L380 836 C368 839 356 841 343 841 C285 841 256 808 237 720 L275 720 Z " />
<glyph glyph-name="Adieresis" unicode="&#xc4;" horiz-adv-x="776" d="M787 82 L759 82 C707 81 699 88 674 149 L478 667 L291 667 L98 153 C81 101 62 85 14 82 L-22 82 L-22 0 L308 0 L308 82 L262 82 C219 82 206 88 206 109 C206 116 209 128 214 142 L242 214 L466 214 L493 145 C498 133 501 120 501 112 C501 88 487 82 435 82 L395 82 L395 0 L787 0 L787 82 Z M436 297 L273 297 L354 512 L436 297 Z M269 858 C233 858 201 826 201 791 C201 752 231 722 269 722 C306 722 337 753 337 789 C337 826 305 858 269 858 L269 858 Z M474 858 C438 858 406 826 406 791 C406 752 436 722 474 722 C511 722 542 753 542 789 C542 826 510 858 474 858 L474 858 Z " />
<glyph glyph-name="Aring" unicode="&#xc5;" horiz-adv-x="776" d="M787 82 L759 82 C707 81 699 88 674 149 L478 667 L291 667 L98 153 C81 101 62 85 14 82 L-22 82 L-22 0 L308 0 L308 82 L262 82 C219 82 206 88 206 109 C206 116 209 128 214 142 L242 214 L466 214 L493 145 C498 133 501 120 501 112 C501 88 487 82 435 82 L395 82 L395 0 L787 0 L787 82 Z M436 297 L273 297 L354 512 L436 297 Z M384 932 C325 932 276 885 276 828 C276 766 325 716 385 716 C442 716 492 767 492 826 C492 885 444 932 384 932 L384 932 Z M384 869 C409 869 429 849 429 824 C429 799 409 779 385 779 C359 779 339 799 339 825 C339 849 360 869 384 869 L384 869 Z " />
<glyph glyph-name="AE" unicode="&#xc6;" horiz-adv-x="1180" d="M384 0 L1109 0 L1109 279 L1018 279 C1006 116 967 79 810 82 L670 82 L670 306 L713 306 C791 306 815 284 817 213 L817 182 L906 182 L906 500 L817 500 C814 405 800 390 713 389 L670 389 L670 585 L822 585 C975 586 1003 562 1023 408 L1110 408 L1110 667 L225 667 L225 585 L264 585 C316 585 331 579 331 556 C331 547 327 535 320 523 L97 144 C70 99 46 84 2 82 L-38 82 L-38 0 L310 0 L310 82 L266 82 C229 82 214 89 214 106 C214 114 218 122 227 139 L288 241 L511 241 L511 143 C511 88 503 81 437 82 L384 82 L384 0 Z M511 324 L337 324 L499 591 L511 591 L511 324 Z " />
<glyph glyph-name="Ccedilla" unicode="&#xc7;" horiz-adv-x="787" d="M412 -19 C616 -23 730 74 736 258 L631 258 C624 195 614 166 591 136 C557 93 502 69 437 69 C369 69 314 95 276 145 C240 192 224 250 224 334 C224 418 240 476 276 523 C314 573 369 599 438 599 C501 599 551 578 588 535 C617 502 628 472 638 404 L733 404 L733 675 L644 675 L623 621 C537 673 491 687 411 687 C197 687 38 537 38 334 C38 143 169 5 370 -16 L370 -101 C384 -98 399 -96 406 -96 C438 -96 457 -111 457 -135 C457 -157 439 -171 409 -171 C373 -171 331 -158 279 -132 L254 -181 C341 -217 377 -227 428 -227 C502 -227 550 -192 550 -137 C550 -90 510 -54 458 -54 C446 -54 429 -55 412 -58 L412 -19 Z " />
<glyph glyph-name="Egrave" unicode="&#xc8;" horiz-adv-x="819" d="M746 667 L22 667 L22 585 L67 585 C132 586 142 578 141 524 L141 143 C142 89 132 81 67 82 L22 82 L22 0 L744 0 L744 279 L653 279 C641 115 603 79 444 82 L304 82 L304 306 L347 306 C426 306 450 284 451 213 L451 182 L541 182 L541 500 L452 500 C448 405 435 390 347 389 L304 389 L304 585 L457 585 C609 587 642 558 656 408 L746 408 L746 667 Z M437 721 L491 721 L354 842 C332 861 319 868 302 868 C277 868 256 847 256 822 C256 801 272 782 300 772 L437 721 Z " />
<glyph glyph-name="Eacute" unicode="&#xc9;" horiz-adv-x="819" d="M746 667 L22 667 L22 585 L67 585 C132 586 142 578 141 524 L141 143 C142 89 132 81 67 82 L22 82 L22 0 L744 0 L744 279 L653 279 C641 115 603 79 444 82 L304 82 L304 306 L347 306 C426 306 450 284 451 213 L451 182 L541 182 L541 500 L452 500 C448 405 435 390 347 389 L304 389 L304 585 L457 585 C609 587 642 558 656 408 L746 408 L746 667 Z M373 721 L511 772 C538 782 554 801 554 822 C554 847 533 868 508 868 C491 868 478 861 456 842 L319 721 L373 721 Z " />
<glyph glyph-name="Ecircumflex" unicode="&#xca;" horiz-adv-x="819" d="M746 667 L22 667 L22 585 L67 585 C132 586 142 578 141 524 L141 143 C142 89 132 81 67 82 L22 82 L22 0 L744 0 L744 279 L653 279 C641 115 603 79 444 82 L304 82 L304 306 L347 306 C426 306 450 284 451 213 L451 182 L541 182 L541 500 L452 500 C448 405 435 390 347 389 L304 389 L304 585 L457 585 C609 587 642 558 656 408 L746 408 L746 667 Z M256 721 L302 721 L410 776 L517 721 L564 721 L468 858 L352 858 L256 721 Z " />
<glyph glyph-name="Edieresis" unicode="&#xcb;" horiz-adv-x="819" d="M746 667 L22 667 L22 585 L67 585 C132 586 142 578 141 524 L141 143 C142 89 132 81 67 82 L22 82 L22 0 L744 0 L744 279 L653 279 C641 115 603 79 444 82 L304 82 L304 306 L347 306 C426 306 450 284 451 213 L451 182 L541 182 L541 500 L452 500 C448 405 435 390 347 389 L304 389 L304 585 L457 585 C609 587 642 558 656 408 L746 408 L746 667 Z M307 858 C271 858 239 826 239 791 C239 752 269 722 308 722 C344 722 375 753 375 789 C375 826 344 858 307 858 L307 858 Z M512 858 C476 858 444 826 444 791 C444 752 474 722 513 722 C549 722 580 753 580 789 C580 826 549 858 512 858 L512 858 Z " />
<glyph glyph-name="Igrave" unicode="&#xcc;" horiz-adv-x="453" d="M24 0 L429 0 L429 82 L381 82 C315 81 305 89 306 143 L306 524 C306 578 314 586 381 585 L429 585 L429 667 L24 667 L24 585 L69 585 C135 586 143 578 143 524 L143 143 C143 89 135 81 69 82 L24 82 L24 0 Z M254 721 L308 721 L170 842 C148 861 135 868 119 868 C94 868 73 847 73 822 C73 801 89 782 116 772 L254 721 Z " />
<glyph glyph-name="Iacute" unicode="&#xcd;" horiz-adv-x="453" d="M24 0 L429 0 L429 82 L381 82 C315 81 305 89 306 143 L306 524 C306 578 314 586 381 585 L429 585 L429 667 L24 667 L24 585 L69 585 C135 586 143 578 143 524 L143 143 C143 89 135 81 69 82 L24 82 L24 0 Z M189 721 L327 772 C353 782 370 801 370 822 C370 847 349 868 324 868 C308 868 295 862 273 842 L135 721 L189 721 Z " />
<glyph glyph-name="Icircumflex" unicode="&#xce;" horiz-adv-x="453" d="M24 0 L429 0 L429 82 L381 82 C315 81 305 89 306 143 L306 524 C306 578 314 586 381 585 L429 585 L429 667 L24 667 L24 585 L69 585 C135 586 143 578 143 524 L143 143 C143 89 135 81 69 82 L24 82 L24 0 Z M72 721 L119 721 L226 776 L334 721 L380 721 L284 858 L168 858 L72 721 Z " />
<glyph glyph-name="Idieresis" unicode="&#xcf;" horiz-adv-x="453" d="M24 0 L429 0 L429 82 L381 82 C315 81 305 89 306 143 L306 524 C306 578 314 586 381 585 L429 585 L429 667 L24 667 L24 585 L69 585 C135 586 143 578 143 524 L143 143 C143 89 135 81 69 82 L24 82 L24 0 Z M127 858 C91 858 59 826 59 791 C59 752 89 722 128 722 C164 722 195 753 195 789 C195 826 164 858 127 858 L127 858 Z M325 858 C289 858 257 826 257 791 C257 752 287 722 326 722 C362 722 393 753 393 789 C393 826 362 858 325 858 L325 858 Z " />
<glyph glyph-name="Eth" unicode="&#xd0;" horiz-adv-x="890" d="M25 0 L403 0 C556 0 643 20 718 73 C798 129 839 217 839 333 C839 449 798 538 718 594 C644 647 557 667 403 667 L25 667 L25 585 L70 585 C136 586 144 578 144 524 L144 381 L0 381 L0 305 L144 305 L144 143 C145 89 136 82 70 82 L25 82 L25 0 Z M307 83 L307 305 L474 305 L474 381 L307 381 L307 585 L402 585 C494 585 564 562 601 521 C634 483 653 414 653 333 C653 252 634 184 601 146 C564 105 494 83 402 83 L307 83 Z " />
<glyph glyph-name="Ntilde" unicode="&#xd1;" horiz-adv-x="896" d="M367 82 L316 82 C251 81 243 89 243 143 L243 522 L582 0 L764 0 L764 524 C764 579 772 586 837 585 L872 585 L872 667 L530 667 L530 585 L582 585 C647 586 655 579 655 524 L655 191 L344 667 L22 667 L22 585 L61 585 C126 586 134 578 134 524 L134 143 C134 89 126 81 61 82 L22 82 L22 0 L367 0 L367 82 Z M341 720 C349 748 362 761 383 761 C391 761 401 759 413 756 L468 741 C478 739 490 737 499 737 C526 737 549 748 567 769 C586 790 594 810 604 858 L567 858 C556 828 546 818 523 818 C518 818 509 819 502 821 L446 836 C434 839 421 841 409 841 C351 841 322 808 303 720 L341 720 Z " />
<glyph glyph-name="Ograve" unicode="&#xd2;" horiz-adv-x="890" d="M445 686 C202 686 38 544 38 334 C38 125 202 -19 440 -19 C563 -19 657 10 732 73 C812 138 852 226 852 334 C852 545 688 686 445 686 L445 686 Z M448 599 C513 599 572 572 612 523 C648 479 666 418 666 336 C666 249 650 192 612 145 C571 95 515 69 445 69 C375 69 319 95 278 145 C241 191 224 250 224 333 C224 419 241 477 278 523 C320 574 376 599 448 599 L448 599 Z M472 721 L527 721 L389 842 C367 862 354 868 338 868 C313 868 292 847 292 822 C292 801 308 782 335 772 L472 721 Z " />
<glyph glyph-name="Oacute" unicode="&#xd3;" horiz-adv-x="890" d="M445 686 C202 686 38 544 38 334 C38 125 202 -19 440 -19 C563 -19 657 10 732 73 C812 138 852 226 852 334 C852 545 688 686 445 686 L445 686 Z M448 599 C513 599 572 572 612 523 C648 479 666 418 666 336 C666 249 650 192 612 145 C571 95 515 69 445 69 C375 69 319 95 278 145 C241 191 224 250 224 333 C224 419 241 477 278 523 C320 574 376 599 448 599 L448 599 Z M408 721 L546 772 C573 782 589 801 589 822 C589 847 568 868 543 868 C527 868 514 862 492 842 L354 721 L408 721 Z " />
<glyph glyph-name="Ocircumflex" unicode="&#xd4;" horiz-adv-x="890" d="M445 686 C202 686 38 544 38 334 C38 125 202 -19 440 -19 C563 -19 657 10 732 73 C812 138 852 226 852 334 C852 545 688 686 445 686 L445 686 Z M448 599 C513 599 572 572 612 523 C648 479 666 418 666 336 C666 249 650 192 612 145 C571 95 515 69 445 69 C375 69 319 95 278 145 C241 191 224 250 224 333 C224 419 241 477 278 523 C320 574 376 599 448 599 L448 599 Z M291 721 L337 721 L445 776 L553 721 L599 721 L503 858 L387 858 L291 721 Z " />
<glyph glyph-name="Otilde" unicode="&#xd5;" horiz-adv-x="890" d="M445 686 C202 686 38 544 38 334 C38 125 202 -19 440 -19 C563 -19 657 10 732 73 C812 138 852 226 852 334 C852 545 688 686 445 686 L445 686 Z M448 599 C513 599 572 572 612 523 C648 479 666 418 666 336 C666 249 650 192 612 145 C571 95 515 69 445 69 C375 69 319 95 278 145 C241 191 224 250 224 333 C224 419 241 477 278 523 C320 574 376 599 448 599 L448 599 Z M332 720 C340 748 354 761 374 761 C382 761 393 759 405 756 L459 741 C470 739 481 737 490 737 C517 737 540 748 558 769 C577 790 586 810 596 858 L558 858 C548 828 537 818 515 818 C509 818 501 819 494 821 L437 836 C425 839 413 841 401 841 C343 841 314 808 294 720 L332 720 Z " />
<glyph glyph-name="Odieresis" unicode="&#xd6;" horiz-adv-x="890" d="M445 686 C202 686 38 544 38 334 C38 125 202 -19 440 -19 C563 -19 657 10 732 73 C812 138 852 226 852 334 C852 545 688 686 445 686 L445 686 Z M448 599 C513 599 572 572 612 523 C648 479 666 418 666 336 C666 249 650 192 612 145 C571 95 515 69 445 69 C375 69 319 95 278 145 C241 191 224 250 224 333 C224 419 241 477 278 523 C320 574 376 599 448 599 L448 599 Z M342 858 C306 858 274 826 274 791 C274 752 304 722 342 722 C379 722 410 753 410 789 C410 826 378 858 342 858 L342 858 Z M547 858 C511 858 479 826 479 791 C479 752 509 722 547 722 C584 722 615 753 615 789 C615 826 583 858 547 858 L547 858 Z " />
<glyph glyph-name="multiply" unicode="&#xd7;" horiz-adv-x="654" d="M90 172 L170 99 L327 242 L484 99 L564 172 L407 315 L564 457 L484 530 L327 387 L170 530 L90 457 L247 315 L90 172 Z " />
<glyph glyph-name="Oslash" unicode="&#xd8;" horiz-adv-x="890" d="M106 -39 L195 46 C265 2 346 -19 446 -19 C689 -19 852 123 852 333 C852 431 821 509 754 575 L834 650 L778 701 L694 622 C625 665 543 686 444 686 C202 686 38 544 38 334 C38 236 70 158 136 93 L50 12 L106 -39 Z M246 198 C231 236 224 280 224 335 C224 418 241 477 278 523 C319 573 376 599 445 599 C509 599 560 578 601 534 L246 198 Z M643 470 C659 433 666 388 666 332 C666 249 649 191 612 144 C571 95 515 69 445 69 C380 69 331 89 288 134 L643 470 Z " />
<glyph glyph-name="Ugrave" unicode="&#xd9;" horiz-adv-x="841" d="M816 667 L485 667 L485 585 L533 585 C593 586 601 579 601 524 L601 211 C601 157 592 130 569 111 C545 91 496 78 440 78 C397 78 364 86 340 103 C310 125 299 154 299 217 L299 524 C299 579 307 586 374 585 L427 585 L427 667 L22 667 L22 585 L61 585 C128 586 136 578 136 524 L136 206 C136 136 153 91 195 51 C245 2 316 -21 415 -21 C611 -21 711 58 711 213 L711 524 C711 579 719 586 779 585 L816 585 L816 667 Z M448 721 L502 721 L365 842 C343 861 330 868 313 868 C288 868 267 847 267 822 C267 801 283 782 310 772 L448 721 Z " />
<glyph glyph-name="Uacute" unicode="&#xda;" horiz-adv-x="841" d="M816 667 L485 667 L485 585 L533 585 C593 586 601 579 601 524 L601 211 C601 157 592 130 569 111 C545 91 496 78 440 78 C397 78 364 86 340 103 C310 125 299 154 299 217 L299 524 C299 579 307 586 374 585 L427 585 L427 667 L22 667 L22 585 L61 585 C128 586 136 578 136 524 L136 206 C136 136 153 91 195 51 C245 2 316 -21 415 -21 C611 -21 711 58 711 213 L711 524 C711 579 719 586 779 585 L816 585 L816 667 Z M384 721 L521 772 C548 782 565 801 565 822 C565 847 544 868 519 868 C502 868 489 861 467 842 L330 721 L384 721 Z " />
<glyph glyph-name="Ucircumflex" unicode="&#xdb;" horiz-adv-x="841" d="M816 667 L485 667 L485 585 L533 585 C593 586 601 579 601 524 L601 211 C601 157 592 130 569 111 C545 91 496 78 440 78 C397 78 364 86 340 103 C310 125 299 154 299 217 L299 524 C299 579 307 586 374 585 L427 585 L427 667 L22 667 L22 585 L61 585 C128 586 136 578 136 524 L136 206 C136 136 153 91 195 51 C245 2 316 -21 415 -21 C611 -21 711 58 711 213 L711 524 C711 579 719 586 779 585 L816 585 L816 667 Z M267 721 L313 721 L421 776 L528 721 L575 721 L479 858 L363 858 L267 721 Z " />
<glyph glyph-name="Udieresis" unicode="&#xdc;" horiz-adv-x="841" d="M816 667 L485 667 L485 585 L533 585 C593 586 601 579 601 524 L601 211 C601 157 592 130 569 111 C545 91 496 78 440 78 C397 78 364 86 340 103 C310 125 299 154 299 217 L299 524 C299 579 307 586 374 585 L427 585 L427 667 L22 667 L22 585 L61 585 C128 586 136 578 136 524 L136 206 C136 136 153 91 195 51 C245 2 316 -21 415 -21 C611 -21 711 58 711 213 L711 524 C711 579 719 586 779 585 L816 585 L816 667 Z M314 858 C278 858 246 826 246 791 C246 752 276 722 315 722 C351 722 382 753 382 789 C382 826 351 858 314 858 L314 858 Z M519 858 C483 858 451 826 451 791 C451 752 481 722 520 722 C556 722 587 753 587 789 C587 826 556 858 519 858 L519 858 Z " />
<glyph glyph-name="Yacute" unicode="&#xdd;" horiz-adv-x="770" d="M-16 585 L12 585 C52 586 84 565 122 514 L303 277 L303 143 C303 89 295 81 229 82 L170 82 L170 0 L599 0 L599 82 L540 82 C474 81 466 89 466 143 L466 277 L656 520 C695 573 715 585 759 585 L784 585 L784 667 L456 667 L456 587 L483 587 C522 587 541 579 541 563 C541 556 538 549 529 537 L418 389 L321 528 C313 539 308 551 308 559 C308 579 320 585 356 585 L385 585 L385 667 L-16 667 L-16 585 Z M349 721 L486 772 C513 782 529 801 529 822 C529 847 508 868 483 868 C467 868 454 862 432 842 L294 721 L349 721 Z " />
<glyph glyph-name="Thorn" unicode="&#xde;" horiz-adv-x="776" d="M22 0 L432 0 L432 82 L383 82 C320 82 313 88 313 143 L313 154 L450 154 C562 154 619 166 666 199 C709 230 734 281 734 339 C734 395 711 446 671 477 C625 513 564 526 450 526 L313 526 L313 534 C314 578 324 586 383 585 L432 585 L432 667 L22 667 L22 585 L64 585 C122 586 133 578 133 534 L133 143 C134 89 126 81 64 82 L22 82 L22 0 Z M313 236 L313 444 L380 444 C460 444 494 438 525 420 C551 405 564 378 564 341 C564 264 513 236 374 236 L313 236 Z " />
<glyph glyph-name="germandbls" unicode="&#xdf;" horiz-adv-x="683" d="M100 133 C99 84 92 76 47 74 L22 74 L22 0 L243 0 L243 508 C243 549 250 570 268 587 C286 602 320 612 354 612 C420 612 455 583 455 530 C455 492 433 461 400 450 C379 443 367 442 316 440 L316 363 C400 363 417 360 445 341 C481 317 489 284 489 164 C489 109 486 95 473 77 C466 68 449 61 433 61 C402 61 383 78 383 107 L383 165 L312 165 L312 107 C312 26 360 -18 448 -18 C563 -18 642 74 642 208 C642 276 620 328 577 362 C549 385 522 396 461 411 C504 422 534 434 551 447 C582 470 599 506 599 545 C599 635 510 687 357 687 C268 687 200 666 153 623 C112 586 100 546 100 450 L100 133 Z " />
<glyph glyph-name="agrave" unicode="&#xe0;" horiz-adv-x="645" d="M629 173 L569 173 L569 120 C569 88 558 74 533 74 C509 74 498 89 498 120 L498 313 C498 382 493 402 472 426 C438 465 369 486 280 486 C137 486 47 437 47 358 C47 313 84 282 138 282 C186 282 224 310 224 344 C224 378 203 397 160 402 C188 423 210 430 250 430 C317 430 361 398 361 350 C361 302 330 281 237 264 C155 249 111 235 77 215 C42 194 22 157 22 115 C22 34 88 -18 190 -18 C261 -18 307 0 370 54 C398 1 429 -17 495 -17 C541 -17 576 -4 599 20 C622 44 629 70 629 127 L629 173 Z M357 169 C357 108 317 73 246 73 C202 73 174 94 174 127 C174 144 181 157 196 170 C210 183 224 189 284 210 C295 213 325 224 357 237 L357 169 Z M402 540 L267 683 C234 718 216 730 192 730 C162 730 139 707 139 677 C139 653 153 636 189 619 L347 540 L402 540 Z " />
<glyph glyph-name="aacute" unicode="&#xe1;" horiz-adv-x="645" d="M629 173 L569 173 L569 120 C569 88 558 74 533 74 C509 74 498 89 498 120 L498 313 C498 382 493 402 472 426 C438 465 369 486 280 486 C137 486 47 437 47 358 C47 313 84 282 138 282 C186 282 224 310 224 344 C224 378 203 397 160 402 C188 423 210 430 250 430 C317 430 361 398 361 350 C361 302 330 281 237 264 C155 249 111 235 77 215 C42 194 22 157 22 115 C22 34 88 -18 190 -18 C261 -18 307 0 370 54 C398 1 429 -17 495 -17 C541 -17 576 -4 599 20 C622 44 629 70 629 127 L629 173 Z M357 169 C357 108 317 73 246 73 C202 73 174 94 174 127 C174 144 181 157 196 170 C210 183 224 189 284 210 C295 213 325 224 357 237 L357 169 Z M227 540 L282 540 L441 619 C477 637 491 653 491 677 C491 707 468 730 438 730 C414 730 395 718 362 683 L227 540 Z " />
<glyph glyph-name="acircumflex" unicode="&#xe2;" horiz-adv-x="645" d="M629 173 L569 173 L569 120 C569 88 558 74 533 74 C509 74 498 89 498 120 L498 313 C498 382 493 402 472 426 C438 465 369 486 280 486 C137 486 47 437 47 358 C47 313 84 282 138 282 C186 282 224 310 224 344 C224 378 203 397 160 402 C188 423 210 430 250 430 C317 430 361 398 361 350 C361 302 330 281 237 264 C155 249 111 235 77 215 C42 194 22 157 22 115 C22 34 88 -18 190 -18 C261 -18 307 0 370 54 C398 1 429 -17 495 -17 C541 -17 576 -4 599 20 C622 44 629 70 629 127 L629 173 Z M357 169 C357 108 317 73 246 73 C202 73 174 94 174 127 C174 144 181 157 196 170 C210 183 224 189 284 210 C295 213 325 224 357 237 L357 169 Z M167 540 L215 540 L322 623 L429 540 L478 540 L367 719 L278 719 L167 540 Z " />
<glyph glyph-name="atilde" unicode="&#xe3;" horiz-adv-x="645" d="M629 173 L569 173 L569 120 C569 88 558 74 533 74 C509 74 498 89 498 120 L498 313 C498 382 493 402 472 426 C438 465 369 486 280 486 C137 486 47 437 47 358 C47 313 84 282 138 282 C186 282 224 310 224 344 C224 378 203 397 160 402 C188 423 210 430 250 430 C317 430 361 398 361 350 C361 302 330 281 237 264 C155 249 111 235 77 215 C42 194 22 157 22 115 C22 34 88 -18 190 -18 C261 -18 307 0 370 54 C398 1 429 -17 495 -17 C541 -17 576 -4 599 20 C622 44 629 70 629 127 L629 173 Z M357 169 C357 108 317 73 246 73 C202 73 174 94 174 127 C174 144 181 157 196 170 C210 183 224 189 284 210 C295 213 325 224 357 237 L357 169 Z M184 540 C192 568 205 581 226 581 C234 581 245 579 256 576 L311 561 C322 558 332 557 342 557 C368 557 392 568 410 589 C429 610 437 630 448 678 L410 678 C399 648 389 638 367 638 C361 638 353 639 345 641 L289 656 C277 659 264 661 252 661 C194 661 165 628 146 540 L184 540 Z " />
<glyph glyph-name="adieresis" unicode="&#xe4;" horiz-adv-x="645" d="M629 173 L569 173 L569 120 C569 88 558 74 533 74 C509 74 498 89 498 120 L498 313 C498 382 493 402 472 426 C438 465 369 486 280 486 C137 486 47 437 47 358 C47 313 84 282 138 282 C186 282 224 310 224 344 C224 378 203 397 160 402 C188 423 210 430 250 430 C317 430 361 398 361 350 C361 302 330 281 237 264 C155 249 111 235 77 215 C42 194 22 157 22 115 C22 34 88 -18 190 -18 C261 -18 307 0 370 54 C398 1 429 -17 495 -17 C541 -17 576 -4 599 20 C622 44 629 70 629 127 L629 173 Z M357 169 C357 108 317 73 246 73 C202 73 174 94 174 127 C174 144 181 157 196 170 C210 183 224 189 284 210 C295 213 325 224 357 237 L357 169 Z M224 699 C186 699 153 667 153 630 C153 591 184 560 224 560 C262 560 292 590 292 629 C292 668 261 699 224 699 L224 699 Z M432 699 C394 699 361 667 361 630 C361 591 392 560 432 560 C470 560 500 590 500 629 C500 668 469 699 432 699 L432 699 Z " />
<glyph glyph-name="aring" unicode="&#xe5;" horiz-adv-x="645" d="M629 173 L569 173 L569 120 C569 88 558 74 533 74 C509 74 498 89 498 120 L498 313 C498 382 493 402 472 426 C438 465 369 486 280 486 C137 486 47 437 47 358 C47 313 84 282 138 282 C186 282 224 310 224 344 C224 378 203 397 160 402 C188 423 210 430 250 430 C317 430 361 398 361 350 C361 302 330 281 237 264 C155 249 111 235 77 215 C42 194 22 157 22 115 C22 34 88 -18 190 -18 C261 -18 307 0 370 54 C398 1 429 -17 495 -17 C541 -17 576 -4 599 20 C622 44 629 70 629 127 L629 173 Z M357 169 C357 108 317 73 246 73 C202 73 174 94 174 127 C174 144 181 157 196 170 C210 183 224 189 284 210 C295 213 325 224 357 237 L357 169 Z M285 777 C215 777 156 720 156 651 C156 576 212 519 286 519 C357 519 414 577 414 648 C414 719 356 777 285 777 L285 777 Z M285 707 C317 707 344 680 344 648 C344 615 318 589 286 589 C251 589 226 615 226 649 C226 681 253 707 285 707 L285 707 Z " />
<glyph glyph-name="ae" unicode="&#xe6;" horiz-adv-x="896" d="M742 161 C724 94 691 69 622 69 C577 69 548 81 528 109 C508 135 501 161 500 218 L860 218 C858 300 849 337 822 381 C781 446 701 486 614 486 C556 486 520 475 448 435 C379 476 344 486 274 486 C138 486 46 434 46 358 C46 313 82 282 135 282 C182 282 219 310 219 344 C219 378 199 397 157 402 C185 424 205 430 247 430 C318 430 365 398 365 350 C365 302 334 282 233 263 C77 235 22 197 22 115 C22 32 89 -20 197 -20 C284 -20 330 -1 403 64 C462 6 521 -17 608 -17 C688 -17 757 9 803 55 C830 83 841 108 849 161 L742 161 Z M363 169 C363 107 321 72 248 72 C203 72 175 93 175 127 C175 143 182 157 197 170 C211 183 226 189 288 209 C299 212 330 224 363 237 L363 169 Z M503 294 C504 336 509 356 522 375 C538 396 565 408 598 408 C632 408 659 396 674 375 C688 356 693 336 694 294 L503 294 Z " />
<glyph glyph-name="ccedilla" unicode="&#xe7;" horiz-adv-x="574" d="M292 -18 C443 -17 524 52 520 179 L423 179 C417 146 410 125 399 110 C380 84 346 69 304 69 C266 69 234 83 216 107 C196 135 184 185 184 241 C184 353 229 410 317 410 C353 410 374 403 412 379 C365 370 343 348 343 310 C343 267 379 236 431 236 C490 236 531 274 531 330 C531 421 439 487 313 487 C238 487 169 464 115 423 C56 377 27 313 27 230 C27 96 109 6 250 -15 L250 -99 C264 -97 279 -95 286 -95 C319 -95 338 -110 338 -135 C338 -157 320 -171 289 -171 C253 -171 210 -158 158 -132 L133 -181 C219 -217 257 -227 308 -227 C381 -227 428 -192 428 -136 C428 -88 390 -53 338 -53 C326 -53 309 -54 292 -57 L292 -18 Z " />
<glyph glyph-name="egrave" unicode="&#xe8;" horiz-adv-x="595" d="M443 161 C425 94 391 68 323 68 C278 68 249 80 229 108 C209 135 202 161 201 218 L561 218 C558 318 542 368 497 415 C452 461 380 488 300 488 C136 488 27 384 27 228 C27 78 134 -18 301 -18 C388 -18 458 7 504 55 C531 83 542 108 550 161 L443 161 Z M204 294 C205 337 210 356 223 375 C239 397 266 409 299 409 C332 409 360 397 375 375 C389 356 394 337 395 294 L204 294 Z M377 540 L242 683 C209 718 191 730 167 730 C137 730 114 707 114 677 C114 653 128 636 164 619 L322 540 L377 540 Z " />
<glyph glyph-name="eacute" unicode="&#xe9;" horiz-adv-x="595" d="M443 161 C425 94 391 68 323 68 C278 68 249 80 229 108 C209 135 202 161 201 218 L561 218 C558 318 542 368 497 415 C452 461 380 488 300 488 C136 488 27 384 27 228 C27 78 134 -18 301 -18 C388 -18 458 7 504 55 C531 83 542 108 550 161 L443 161 Z M204 294 C205 337 210 356 223 375 C239 397 266 409 299 409 C332 409 360 397 375 375 C389 356 394 337 395 294 L204 294 Z M202 540 L257 540 L416 619 C452 637 466 653 466 677 C466 707 443 730 413 730 C389 730 370 718 337 683 L202 540 Z " />
<glyph glyph-name="ecircumflex" unicode="&#xea;" horiz-adv-x="595" d="M443 161 C425 94 391 68 323 68 C278 68 249 80 229 108 C209 135 202 161 201 218 L561 218 C558 318 542 368 497 415 C452 461 380 488 300 488 C136 488 27 384 27 228 C27 78 134 -18 301 -18 C388 -18 458 7 504 55 C531 83 542 108 550 161 L443 161 Z M204 294 C205 337 210 356 223 375 C239 397 266 409 299 409 C332 409 360 397 375 375 C389 356 394 337 395 294 L204 294 Z M142 540 L190 540 L297 623 L404 540 L453 540 L342 719 L253 719 L142 540 Z " />
<glyph glyph-name="edieresis" unicode="&#xeb;" horiz-adv-x="595" d="M443 161 C425 94 391 68 323 68 C278 68 249 80 229 108 C209 135 202 161 201 218 L561 218 C558 318 542 368 497 415 C452 461 380 488 300 488 C136 488 27 384 27 228 C27 78 134 -18 301 -18 C388 -18 458 7 504 55 C531 83 542 108 550 161 L443 161 Z M204 294 C205 337 210 356 223 375 C239 397 266 409 299 409 C332 409 360 397 375 375 C389 356 394 337 395 294 L204 294 Z M195 699 C157 699 124 667 124 630 C124 591 155 560 195 560 C233 560 263 590 263 629 C263 668 232 699 195 699 L195 699 Z M403 699 C365 699 332 667 332 630 C332 591 363 560 403 560 C441 560 471 590 471 629 C471 668 440 699 403 699 L403 699 Z " />
<glyph glyph-name="igrave" unicode="&#xec;" horiz-adv-x="388" d="M363 74 L327 74 C274 76 267 84 267 133 L267 469 L27 469 L27 395 L59 395 C109 393 116 386 117 336 L117 133 C116 83 109 76 59 74 L27 74 L27 0 L363 0 L363 74 Z M252 537 L164 676 C142 711 122 726 97 726 C71 726 51 707 51 682 C51 660 65 639 92 619 L206 537 L252 537 Z " />
<glyph glyph-name="iacute" unicode="&#xed;" horiz-adv-x="388" d="M95 537 L141 537 L255 619 C283 639 296 660 296 682 C296 707 276 726 250 726 C225 726 205 711 183 676 L95 537 Z M363 74 L327 74 C274 76 267 84 267 133 L267 469 L27 469 L27 395 L59 395 C109 393 116 386 117 336 L117 133 C116 83 109 76 59 74 L27 74 L27 0 L363 0 L363 74 Z " />
<glyph glyph-name="icircumflex" unicode="&#xee;" horiz-adv-x="381" d="M27 537 L73 537 L170 628 L267 537 L313 537 L215 717 L125 717 L27 537 Z M356 74 L320 74 C267 76 260 84 260 133 L260 469 L20 469 L20 395 L52 395 C102 393 109 386 110 336 L110 133 C109 83 102 76 52 74 L20 74 L20 0 L356 0 L356 74 Z " />
<glyph glyph-name="idieresis" unicode="&#xef;" horiz-adv-x="381" d="M357 74 L321 74 C268 76 261 84 261 133 L261 469 L20 469 L20 395 L53 395 C103 393 110 386 111 336 L111 133 C110 83 103 76 53 74 L20 74 L20 0 L357 0 L357 74 Z M77 699 C39 699 6 667 6 630 C6 591 37 560 77 560 C115 560 145 590 145 629 C145 668 114 699 77 699 L77 699 Z M274 699 C236 699 203 667 203 630 C203 591 234 560 274 560 C312 560 342 590 342 629 C342 668 311 699 274 699 L274 699 Z " />
<glyph glyph-name="eth" unicode="&#xf0;" horiz-adv-x="654" d="M229 667 C247 646 250 642 279 604 L198 574 L226 517 L315 551 C320 543 323 539 325 537 C328 532 338 518 351 498 C356 491 360 485 364 479 C342 483 327 485 307 485 C237 485 170 462 119 420 C63 374 35 312 35 235 C35 82 152 -17 331 -17 C507 -17 625 83 625 232 C625 313 598 378 527 463 C499 497 476 521 412 588 L492 617 L463 673 L363 638 C347 652 346 653 329 667 L229 667 Z M330 410 C423 410 468 352 468 235 C468 118 423 60 331 60 C237 60 192 117 192 238 C192 352 239 410 330 410 L330 410 Z " />
<glyph glyph-name="ntilde" unicode="&#xf1;" horiz-adv-x="721" d="M383 0 L701 0 L701 74 L676 74 C616 76 608 83 608 133 L608 311 C608 382 598 418 571 443 C544 469 498 484 447 484 C376 484 336 462 266 385 L266 469 L22 469 L22 395 L56 395 C110 393 118 386 119 336 L119 133 C118 83 110 76 56 74 L22 74 L22 0 L344 0 L344 74 L323 74 C268 76 262 83 262 133 L262 272 C262 350 311 401 385 401 C414 401 436 392 450 376 C462 362 465 347 465 309 L465 133 C465 83 457 76 404 74 L383 74 L383 0 Z M248 540 C256 568 269 581 290 581 C298 581 308 579 320 576 L375 561 C386 558 396 557 406 557 C432 557 456 568 474 589 C493 610 501 630 511 678 L474 678 C463 648 453 638 430 638 C425 638 417 639 409 641 L353 656 C341 659 328 661 316 661 C258 661 229 628 210 540 L248 540 Z " />
<glyph glyph-name="ograve" unicode="&#xf2;" horiz-adv-x="650" d="M405 540 L270 683 C237 718 218 730 195 730 C164 730 141 707 141 677 C141 653 155 637 192 619 L350 540 L405 540 Z M325 486 C149 486 30 386 30 238 C30 82 145 -17 327 -17 C503 -17 620 83 620 234 C620 387 503 486 325 486 L325 486 Z M325 409 C418 409 463 352 463 235 C463 117 418 60 326 60 C232 60 187 117 187 237 C187 351 234 409 325 409 L325 409 Z " />
<glyph glyph-name="oacute" unicode="&#xf3;" horiz-adv-x="650" d="M230 540 L285 540 L444 619 C480 637 494 653 494 677 C494 707 471 730 441 730 C417 730 398 718 365 683 L230 540 Z M325 486 C149 486 30 386 30 238 C30 82 145 -17 327 -17 C503 -17 620 83 620 234 C620 387 503 486 325 486 L325 486 Z M325 409 C418 409 463 352 463 235 C463 117 418 60 326 60 C232 60 187 117 187 237 C187 351 234 409 325 409 L325 409 Z " />
<glyph glyph-name="ocircumflex" unicode="&#xf4;" horiz-adv-x="650" d="M170 540 L218 540 L325 623 L432 540 L481 540 L370 719 L281 719 L170 540 Z M325 486 C149 486 30 386 30 238 C30 82 145 -17 327 -17 C503 -17 620 83 620 234 C620 387 503 486 325 486 L325 486 Z M325 409 C418 409 463 352 463 235 C463 117 418 60 326 60 C232 60 187 117 187 237 C187 351 234 409 325 409 L325 409 Z " />
<glyph glyph-name="otilde" unicode="&#xf5;" horiz-adv-x="650" d="M212 540 C220 568 234 581 254 581 C263 581 273 579 285 576 L340 561 C350 558 361 557 370 557 C397 557 420 568 439 589 C457 610 466 630 476 678 L438 678 C428 648 417 638 395 638 C390 638 381 639 374 641 L317 656 C306 659 293 661 281 661 C223 661 194 628 174 540 L212 540 Z M325 486 C149 486 30 386 30 238 C30 82 145 -17 327 -17 C503 -17 620 83 620 234 C620 387 503 486 325 486 L325 486 Z M325 409 C418 409 463 352 463 235 C463 117 418 60 326 60 C232 60 187 117 187 237 C187 351 234 409 325 409 L325 409 Z " />
<glyph glyph-name="odieresis" unicode="&#xf6;" horiz-adv-x="650" d="M219 699 C181 699 148 667 148 630 C148 591 179 560 219 560 C257 560 287 590 287 629 C287 667 256 699 219 699 L219 699 Z M426 699 C389 699 356 667 356 630 C356 591 387 560 427 560 C465 560 495 590 495 629 C495 667 464 699 426 699 L426 699 Z M325 486 C149 486 30 386 30 238 C30 82 145 -17 327 -17 C503 -17 620 83 620 234 C620 387 503 486 325 486 L325 486 Z M325 409 C418 409 463 352 463 235 C463 117 418 60 326 60 C232 60 187 117 187 237 C187 351 234 409 325 409 L325 409 Z " />
<glyph glyph-name="divide" unicode="&#xf7;" horiz-adv-x="549" d="M273 126 C239 126 211 99 211 64 C211 30 238 2 273 2 C306 2 334 30 334 64 C334 98 306 126 273 126 L273 126 Z M273 525 C239 525 211 498 211 463 C211 429 238 401 273 401 C306 401 334 429 334 463 C334 497 306 525 273 525 L273 525 Z M10 294 L10 239 L536 239 L536 294 L10 294 Z " />
<glyph glyph-name="oslash" unicode="&#xf8;" horiz-adv-x="650" d="M563 504 L499 445 C448 474 395 486 324 486 C147 486 30 386 30 235 C30 168 49 117 92 70 L27 10 L75 -38 L145 27 C195 -3 253 -17 326 -17 C503 -17 620 83 620 235 C620 304 600 355 554 403 L617 461 L563 504 Z M194 164 C189 191 187 211 187 236 C187 351 233 409 324 409 C366 409 397 398 422 374 L194 164 Z M454 312 C460 283 463 260 463 232 C463 118 417 60 325 60 C281 60 249 72 224 99 L454 312 Z " />
<glyph glyph-name="ugrave" unicode="&#xf9;" horiz-adv-x="721" d="M22 395 L40 395 C90 393 97 386 97 336 L97 156 C97 85 107 49 135 24 C163 -2 210 -17 261 -17 C336 -17 382 6 446 76 L446 0 L700 0 L700 74 L661 74 C605 76 597 84 597 133 L597 469 L375 469 L375 395 L402 395 C446 393 454 384 454 336 L454 195 C454 120 400 66 324 66 C294 66 270 75 256 91 C244 105 240 120 240 158 L240 469 L22 469 L22 395 Z M440 540 L306 683 C273 718 254 730 230 730 C200 730 177 707 177 677 C177 653 191 637 227 619 L386 540 L440 540 Z " />
<glyph glyph-name="uacute" unicode="&#xfa;" horiz-adv-x="721" d="M22 395 L40 395 C90 393 97 386 97 336 L97 156 C97 85 107 49 135 24 C163 -2 210 -17 261 -17 C336 -17 382 6 446 76 L446 0 L700 0 L700 74 L661 74 C605 76 597 84 597 133 L597 469 L375 469 L375 395 L402 395 C446 393 454 384 454 336 L454 195 C454 120 400 66 324 66 C294 66 270 75 256 91 C244 105 240 120 240 158 L240 469 L22 469 L22 395 Z M266 540 L321 540 L479 619 C515 637 529 653 529 677 C529 707 506 730 476 730 C452 730 434 718 401 683 L266 540 Z " />
<glyph glyph-name="ucircumflex" unicode="&#xfb;" horiz-adv-x="721" d="M22 395 L40 395 C90 393 97 386 97 336 L97 156 C97 85 107 49 135 24 C163 -2 210 -17 261 -17 C336 -17 382 6 446 76 L446 0 L700 0 L700 74 L661 74 C605 76 597 84 597 133 L597 469 L375 469 L375 395 L402 395 C446 393 454 384 454 336 L454 195 C454 120 400 66 324 66 C294 66 270 75 256 91 C244 105 240 120 240 158 L240 469 L22 469 L22 395 Z M205 540 L254 540 L361 623 L468 540 L516 540 L406 719 L316 719 L205 540 Z " />
<glyph glyph-name="udieresis" unicode="&#xfc;" horiz-adv-x="721" d="M22 395 L40 395 C90 393 97 386 97 336 L97 156 C97 85 107 49 135 24 C163 -2 210 -17 261 -17 C336 -17 382 6 446 76 L446 0 L700 0 L700 74 L661 74 C605 76 597 84 597 133 L597 469 L375 469 L375 395 L402 395 C446 393 454 384 454 336 L454 195 C454 120 400 66 324 66 C294 66 270 75 256 91 C244 105 240 120 240 158 L240 469 L22 469 L22 395 Z M256 699 C219 699 186 667 186 630 C186 591 217 560 257 560 C295 560 325 590 325 629 C325 667 294 699 256 699 L256 699 Z M465 699 C427 699 394 667 394 630 C394 591 425 560 465 560 C503 560 533 590 533 629 C533 668 502 699 465 699 L465 699 Z " />
<glyph glyph-name="yacute" unicode="&#xfd;" horiz-adv-x="623" d="M524 326 C550 386 563 395 621 396 L621 469 L373 469 L373 396 L395 396 C426 396 441 389 441 375 C441 366 437 353 431 338 L347 152 L258 343 C253 353 251 362 251 372 C251 389 263 396 297 396 L320 396 L320 469 L1 469 L1 396 C63 395 75 387 104 327 L266 -16 C242 -80 225 -107 197 -130 C179 -145 155 -154 134 -154 C115 -154 102 -148 80 -130 C112 -129 128 -125 142 -116 C159 -105 169 -85 169 -63 C169 -24 135 3 86 3 C31 3 -6 -34 -6 -90 C-6 -164 57 -216 146 -216 C239 -216 303 -163 359 -38 L524 326 Z M217 540 L272 540 L430 619 C466 637 480 653 480 677 C480 707 457 730 427 730 C403 730 385 718 352 683 L217 540 Z " />
<glyph glyph-name="thorn" unicode="&#xfe;" horiz-adv-x="698" d="M258 667 L18 667 L18 593 L52 593 C106 591 114 584 115 534 L115 -81 C115 -130 108 -138 53 -140 L26 -140 L26 -214 L365 -214 L365 -140 L338 -140 C267 -137 258 -131 258 -81 L258 78 C279 43 294 25 313 12 C342 -6 384 -17 429 -17 C568 -17 650 75 650 232 C650 388 569 484 437 484 C360 484 303 453 258 387 L258 667 Z M377 400 C418 400 452 383 468 355 C484 328 493 283 493 235 C493 188 484 145 468 117 C452 89 419 73 376 73 C339 73 311 84 290 108 C265 137 257 167 257 233 C257 297 266 332 290 361 C311 388 338 400 377 400 L377 400 Z " />
<glyph glyph-name="ydieresis" unicode="&#xff;" horiz-adv-x="623" d="M524 326 C550 386 563 395 621 396 L621 469 L373 469 L373 396 L395 396 C426 396 441 389 441 375 C441 366 437 353 431 338 L347 152 L258 343 C253 353 251 362 251 372 C251 389 263 396 297 396 L320 396 L320 469 L1 469 L1 396 C63 395 75 387 104 327 L266 -16 C242 -80 225 -107 197 -130 C179 -145 155 -154 134 -154 C115 -154 102 -148 80 -130 C112 -129 128 -125 142 -116 C159 -105 169 -85 169 -63 C169 -24 135 3 86 3 C31 3 -6 -34 -6 -90 C-6 -164 57 -216 146 -216 C239 -216 303 -163 359 -38 L524 326 Z M209 699 C171 699 138 667 138 630 C138 591 169 560 209 560 C247 560 277 590 277 629 C277 668 246 699 209 699 L209 699 Z M417 699 C379 699 346 667 346 630 C346 591 377 560 417 560 C455 560 485 590 485 629 C485 668 454 699 417 699 L417 699 Z " />
<glyph glyph-name="Amacron" unicode="&#x100;" horiz-adv-x="776" d="M787 82 L759 82 C707 81 699 88 674 149 L478 667 L291 667 L98 153 C81 101 62 85 14 82 L-22 82 L-22 0 L308 0 L308 82 L262 82 C219 82 206 88 206 109 C206 116 209 128 214 142 L242 214 L466 214 L493 145 C498 133 501 120 501 112 C501 88 487 82 435 82 L395 82 L395 0 L787 0 L787 82 Z M436 297 L273 297 L354 512 L436 297 Z M233 750 L522 750 L522 829 L233 829 L233 750 Z " />
<glyph glyph-name="amacron" unicode="&#x101;" horiz-adv-x="645" d="M629 173 L569 173 L569 120 C569 88 558 74 533 74 C509 74 498 89 498 120 L498 313 C498 382 493 402 472 426 C438 465 369 486 280 486 C137 486 47 437 47 358 C47 313 84 282 138 282 C186 282 224 310 224 344 C224 378 203 397 160 402 C188 423 210 430 250 430 C317 430 361 398 361 350 C361 302 330 281 237 264 C155 249 111 235 77 215 C42 194 22 157 22 115 C22 34 88 -18 190 -18 C261 -18 307 0 370 54 C398 1 429 -17 495 -17 C541 -17 576 -4 599 20 C622 44 629 70 629 127 L629 173 Z M357 169 C357 108 317 73 246 73 C202 73 174 94 174 127 C174 144 181 157 196 170 C210 183 224 189 284 210 C295 213 325 224 357 237 L357 169 Z M147 588 L444 588 L444 670 L147 670 L147 588 Z " />
<glyph glyph-name="Abreve" unicode="&#x102;" horiz-adv-x="776" d="M787 82 L759 82 C707 81 699 88 674 149 L478 667 L291 667 L98 153 C81 101 62 85 14 82 L-22 82 L-22 0 L308 0 L308 82 L262 82 C219 82 206 88 206 109 C206 116 209 128 214 142 L242 214 L466 214 L493 145 C498 133 501 120 501 112 C501 88 487 82 435 82 L395 82 L395 0 L787 0 L787 82 Z M436 297 L273 297 L354 512 L436 297 Z M231 858 C242 808 252 786 274 764 C302 736 342 720 387 720 C433 720 474 736 502 764 C524 786 534 808 544 858 L499 858 C484 820 455 806 388 806 C321 806 293 819 276 858 L231 858 Z " />
<glyph glyph-name="abreve" unicode="&#x103;" horiz-adv-x="645" d="M629 173 L569 173 L569 120 C569 88 558 74 533 74 C509 74 498 89 498 120 L498 313 C498 382 493 402 472 426 C438 465 369 486 280 486 C137 486 47 437 47 358 C47 313 84 282 138 282 C186 282 224 310 224 344 C224 378 203 397 160 402 C188 423 210 430 250 430 C317 430 361 398 361 350 C361 302 330 281 237 264 C155 249 111 235 77 215 C42 194 22 157 22 115 C22 34 88 -18 190 -18 C261 -18 307 0 370 54 C398 1 429 -17 495 -17 C541 -17 576 -4 599 20 C622 44 629 70 629 127 L629 173 Z M357 169 C357 108 317 73 246 73 C202 73 174 94 174 127 C174 144 181 157 196 170 C210 183 224 189 284 210 C295 213 325 224 357 237 L357 169 Z M136 704 C147 649 158 624 180 600 C208 571 249 555 294 555 C339 555 381 572 408 600 C430 623 441 649 452 704 L407 704 C391 659 363 644 294 644 C225 644 198 658 181 704 L136 704 Z " />
<glyph glyph-name="Aogonek" unicode="&#x104;" horiz-adv-x="776" d="M787 0 L787 82 L759 82 C707 81 699 88 674 149 L478 667 L291 667 L98 153 C81 101 62 85 14 82 L-22 82 L-22 0 L308 0 L308 82 L262 82 C219 82 206 88 206 109 C206 116 209 128 214 142 L242 214 L466 214 L493 145 C498 133 501 119 501 111 C501 88 486 82 435 82 L395 82 L395 0 L711 0 C631 -45 583 -102 583 -152 C583 -198 619 -227 676 -227 C732 -227 770 -201 802 -140 L784 -130 C757 -159 748 -164 722 -164 C689 -164 671 -146 671 -114 C671 -74 694 -40 748 0 L787 0 Z M436 297 L273 297 L354 512 L436 297 Z " />
<glyph glyph-name="aogonek" unicode="&#x105;" horiz-adv-x="645" d="M629 173 L569 173 L569 120 C569 88 559 74 534 74 C510 74 498 89 498 120 L498 313 C498 382 493 402 472 426 C438 465 369 486 280 486 C136 486 46 436 46 357 C46 313 84 282 138 282 C186 282 224 310 224 345 C224 378 203 397 160 402 C188 423 209 430 250 430 C317 430 361 398 361 350 C361 302 330 281 237 264 C155 249 111 235 77 215 C42 194 22 157 22 115 C22 34 88 -18 190 -18 C261 -18 307 0 370 54 C396 2 425 -15 493 -17 C423 -66 394 -106 394 -152 C394 -198 429 -227 485 -227 C540 -227 578 -201 611 -140 L593 -130 C565 -159 556 -164 531 -164 C499 -164 480 -146 480 -115 C480 -94 488 -72 503 -50 C516 -30 517 -29 552 -14 C612 17 630 50 629 127 L629 173 Z M357 169 C357 108 317 73 246 73 C202 73 174 94 174 127 C174 144 181 157 196 170 C210 183 224 189 284 210 C295 213 325 224 357 237 L357 169 Z " />
<glyph glyph-name="Cacute" unicode="&#x106;" horiz-adv-x="787" d="M632 258 C625 195 615 166 592 136 C558 93 503 69 437 69 C369 69 314 95 276 145 C240 192 224 250 224 334 C224 418 240 476 276 523 C314 573 370 599 439 599 C502 599 552 578 589 535 C618 502 629 472 639 404 L733 404 L733 675 L644 675 L625 621 C538 673 492 687 412 687 C197 687 38 537 38 334 C38 228 79 136 156 70 C226 10 313 -19 426 -19 C545 -19 622 11 678 79 C715 125 728 166 736 258 L632 258 Z M356 721 L494 772 C521 782 537 801 537 822 C537 847 516 868 491 868 C474 868 462 862 440 842 L302 721 L356 721 Z " />
<glyph glyph-name="cacute" unicode="&#x107;" horiz-adv-x="574" d="M424 179 C418 146 411 125 400 110 C381 84 347 69 305 69 C266 69 234 83 216 107 C196 135 184 185 184 242 C184 353 229 410 318 410 C354 410 375 403 413 379 C367 370 345 348 345 310 C345 267 381 236 432 236 C491 236 531 274 531 330 C531 421 438 487 313 487 C238 487 169 465 115 423 C56 377 27 313 27 229 C27 79 134 -18 299 -18 C384 -18 449 8 487 57 C511 88 519 117 521 179 L424 179 Z M192 540 L247 540 L405 619 C441 637 455 653 455 677 C455 707 432 730 402 730 C378 730 359 718 327 683 L192 540 Z " />
<glyph glyph-name="Ccaron" unicode="&#x10c;" horiz-adv-x="787" d="M632 258 C625 195 615 166 592 136 C558 93 503 69 437 69 C369 69 314 95 276 145 C240 192 224 250 224 334 C224 418 240 476 276 523 C314 573 370 599 439 599 C502 599 552 578 589 535 C618 502 629 472 639 404 L733 404 L733 675 L644 675 L625 621 C538 673 492 687 412 687 C197 687 38 537 38 334 C38 228 79 136 156 70 C226 10 313 -19 426 -19 C545 -19 622 11 678 79 C715 125 728 166 736 258 L632 258 Z M239 858 L335 720 L451 720 L547 858 L501 858 L393 803 L285 858 L239 858 Z " />
<glyph glyph-name="ccaron" unicode="&#x10d;" horiz-adv-x="574" d="M424 179 C418 146 411 125 400 110 C381 84 347 69 305 69 C266 69 234 83 216 107 C196 135 184 185 184 242 C184 353 229 410 318 410 C354 410 375 403 413 379 C367 370 345 348 345 310 C345 267 381 236 432 236 C491 236 531 274 531 330 C531 421 438 487 313 487 C238 487 169 465 115 423 C56 377 27 313 27 229 C27 79 134 -18 299 -18 C384 -18 449 8 487 57 C511 88 519 117 521 179 L424 179 Z M442 719 L394 719 L287 636 L180 719 L131 719 L242 540 L331 540 L442 719 Z " />
<glyph glyph-name="Dcaron" unicode="&#x10e;" horiz-adv-x="879" d="M22 0 L400 0 C553 0 640 20 715 73 C795 129 836 218 836 334 C836 450 795 538 715 594 C640 647 553 667 400 667 L22 667 L22 585 L68 585 C135 586 145 578 144 524 L144 143 C145 89 135 81 68 82 L22 82 L22 0 Z M307 83 L307 585 L398 585 C490 585 561 562 598 521 C631 483 650 415 650 334 C650 252 631 184 598 146 C561 105 491 83 398 83 L307 83 Z M141 858 L237 720 L353 720 L450 858 L403 858 L295 803 L188 858 L141 858 Z " />
<glyph glyph-name="dcaron" unicode="&#x10f;" horiz-adv-x="677" d="M413 394 C366 461 325 483 246 483 C108 483 27 392 27 234 C27 76 105 -17 238 -17 C279 -17 319 -7 348 11 C370 25 384 40 405 75 L405 0 L659 0 L659 70 L621 70 C564 73 556 80 556 129 L556 667 L327 667 L327 593 L345 593 C404 591 413 583 413 534 L413 394 Z M296 393 C332 393 358 382 378 358 C402 331 410 298 410 234 C410 122 372 67 295 67 C220 67 184 120 184 231 C184 341 220 393 296 393 L296 393 Z M627 447 C668 452 693 462 715 482 C741 507 757 545 757 585 C757 638 724 674 675 674 C636 674 608 647 608 610 C608 576 631 555 667 555 C675 555 682 556 695 560 C689 516 670 497 627 491 L627 447 Z " />
<glyph glyph-name="Dcroat" unicode="&#x110;" horiz-adv-x="890" d="M25 0 L403 0 C556 0 643 20 718 73 C798 129 839 217 839 333 C839 449 798 538 718 594 C644 647 557 667 403 667 L25 667 L25 585 L70 585 C136 586 144 578 144 524 L144 381 L0 381 L0 305 L144 305 L144 143 C145 89 136 82 70 82 L25 82 L25 0 Z M307 83 L307 305 L474 305 L474 381 L307 381 L307 585 L402 585 C494 585 564 562 601 521 C634 483 653 414 653 333 C653 252 634 184 601 146 C564 105 494 83 402 83 L307 83 Z " />
<glyph glyph-name="dcroat" unicode="&#x111;" horiz-adv-x="677" d="M413 512 L413 394 C366 461 324 483 246 483 C108 483 27 391 27 234 C27 76 105 -17 238 -17 C279 -17 319 -7 348 11 C370 25 384 40 405 75 L405 0 L659 0 L659 70 L621 70 C564 73 556 80 556 129 L556 512 L623 512 L623 579 L556 579 L556 667 L327 667 L327 593 L345 593 C374 593 396 587 404 579 L258 579 L258 512 L413 512 Z M296 393 C332 393 358 382 378 358 C402 331 410 298 410 234 C410 122 372 67 295 67 C220 67 184 120 184 231 C184 341 220 393 296 393 L296 393 Z " />
<glyph glyph-name="Emacron" unicode="&#x112;" horiz-adv-x="819" d="M746 667 L22 667 L22 585 L67 585 C132 586 142 578 141 524 L141 143 C142 89 132 81 67 82 L22 82 L22 0 L744 0 L744 279 L653 279 C641 115 603 79 444 82 L304 82 L304 306 L347 306 C426 306 450 284 451 213 L451 182 L541 182 L541 500 L452 500 C448 405 435 390 347 389 L304 389 L304 585 L457 585 C609 587 642 558 656 408 L746 408 L746 667 Z M265 750 L554 750 L554 829 L265 829 L265 750 Z " />
<glyph glyph-name="emacron" unicode="&#x113;" horiz-adv-x="595" d="M443 161 C425 94 391 68 323 68 C278 68 249 80 229 108 C209 135 202 161 201 218 L561 218 C558 318 542 368 497 415 C452 461 380 488 300 488 C136 488 27 384 27 228 C27 78 134 -18 301 -18 C388 -18 458 7 504 55 C531 83 542 108 550 161 L443 161 Z M204 294 C205 337 210 356 223 375 C239 397 266 409 299 409 C332 409 360 397 375 375 C389 356 394 337 395 294 L204 294 Z M149 588 L446 588 L446 670 L149 670 L149 588 Z " />
<glyph glyph-name="Edotaccent" unicode="&#x116;" horiz-adv-x="819" d="M746 667 L22 667 L22 585 L67 585 C132 586 142 578 141 524 L141 143 C142 89 132 81 67 82 L22 82 L22 0 L744 0 L744 279 L653 279 C641 115 603 79 444 82 L304 82 L304 306 L347 306 C426 306 450 284 451 213 L451 182 L541 182 L541 500 L452 500 C448 405 435 390 347 389 L304 389 L304 585 L457 585 C609 587 642 558 656 408 L746 408 L746 667 Z M394 862 C357 862 323 829 323 792 C323 753 355 721 394 721 C432 721 464 753 464 791 C464 829 431 862 394 862 L394 862 Z " />
<glyph glyph-name="edotaccent" unicode="&#x117;" horiz-adv-x="595" d="M443 161 C425 94 391 68 323 68 C278 68 249 80 229 108 C209 135 202 161 201 218 L561 218 C558 318 542 368 497 415 C452 461 380 488 300 488 C136 488 27 384 27 228 C27 78 134 -18 301 -18 C388 -18 458 7 504 55 C531 83 542 108 550 161 L443 161 Z M204 294 C205 337 210 356 223 375 C239 397 266 409 299 409 C332 409 360 397 375 375 C389 356 394 337 395 294 L204 294 Z M299 702 C260 702 225 668 225 631 C225 590 258 557 299 557 C339 557 370 589 370 629 C370 669 338 702 299 702 L299 702 Z " />
<glyph glyph-name="Eogonek" unicode="&#x118;" horiz-adv-x="819" d="M744 0 L744 279 L653 279 C641 115 603 79 444 82 L304 82 L304 306 L347 306 C426 306 450 284 451 213 L451 182 L541 182 L541 500 L452 500 C448 405 435 390 347 389 L304 389 L304 585 L457 585 C609 587 642 558 656 408 L746 408 L746 667 L22 667 L22 585 L67 585 C132 586 142 578 141 524 L141 143 C142 89 132 81 67 82 L22 82 L22 0 L657 0 C576 -45 528 -102 528 -152 C528 -198 564 -227 621 -227 C657 -227 686 -216 712 -191 C723 -180 727 -174 748 -140 L729 -130 C702 -159 693 -164 667 -164 C634 -164 616 -146 616 -114 C616 -74 639 -40 693 0 L744 0 Z " />
<glyph glyph-name="eogonek" unicode="&#x119;" horiz-adv-x="595" d="M443 161 C425 94 392 69 322 69 C278 69 249 81 229 109 C209 135 202 161 201 218 L561 218 C558 318 542 368 497 415 C452 461 380 488 300 488 C136 488 27 384 27 228 C27 79 135 -18 300 -18 C317 -18 333 -17 351 -14 C283 -60 248 -106 248 -152 C248 -198 283 -227 339 -227 C395 -227 432 -201 465 -140 L447 -130 C419 -159 411 -164 385 -164 C352 -164 334 -146 334 -114 C334 -94 342 -72 357 -50 C371 -30 378 -25 427 -1 C505 39 542 88 550 161 L443 161 Z M204 294 C205 337 210 356 223 375 C239 397 266 409 299 409 C332 409 360 397 375 375 C389 356 394 337 395 294 L204 294 Z " />
<glyph glyph-name="Ecaron" unicode="&#x11a;" horiz-adv-x="819" d="M746 667 L22 667 L22 585 L67 585 C132 586 142 578 141 524 L141 143 C142 89 132 81 67 82 L22 82 L22 0 L744 0 L744 279 L653 279 C641 115 603 79 444 82 L304 82 L304 306 L347 306 C426 306 450 284 451 213 L451 182 L541 182 L541 500 L452 500 C448 405 435 390 347 389 L304 389 L304 585 L457 585 C609 587 642 558 656 408 L746 408 L746 667 Z M220 858 L316 720 L432 720 L529 858 L482 858 L374 803 L267 858 L220 858 Z " />
<glyph glyph-name="ecaron" unicode="&#x11b;" horiz-adv-x="595" d="M443 161 C425 94 391 68 323 68 C278 68 249 80 229 108 C209 135 202 161 201 218 L561 218 C558 318 542 368 497 415 C452 461 380 488 300 488 C136 488 27 384 27 228 C27 78 134 -18 301 -18 C388 -18 458 7 504 55 C531 83 542 108 550 161 L443 161 Z M204 294 C205 337 210 356 223 375 C239 397 266 409 299 409 C332 409 360 397 375 375 C389 356 394 337 395 294 L204 294 Z M453 719 L404 719 L298 636 L190 719 L142 719 L252 540 L342 540 L453 719 Z " />
<glyph glyph-name="Gbreve" unicode="&#x11e;" horiz-adv-x="863" d="M839 273 L839 354 L455 354 L455 273 L519 273 C577 272 582 268 582 222 L582 168 C582 133 578 121 560 105 C534 82 492 69 443 69 C374 69 318 95 278 145 C241 191 224 250 224 334 C224 418 240 476 277 523 C315 573 371 599 441 599 C505 599 556 578 593 535 C622 502 634 472 644 404 L733 404 L733 675 L649 675 L630 621 C543 673 497 687 416 687 C198 687 38 537 38 331 C38 124 191 -20 413 -20 C500 -20 549 -5 634 47 L670 -7 L745 -7 L745 229 C746 264 756 273 798 273 L839 273 Z M243 858 C254 808 264 786 286 764 C314 736 355 720 400 720 C445 720 486 736 514 764 C536 786 546 808 557 858 L511 858 C496 820 467 806 400 806 C333 806 305 819 288 858 L243 858 Z " />
<glyph glyph-name="gbreve" unicode="&#x11f;" horiz-adv-x="699" d="M123 165 C55 138 32 113 32 68 C32 22 56 -4 119 -27 C49 -45 22 -67 22 -110 C22 -179 113 -214 295 -214 C403 -214 486 -201 534 -176 C584 -151 612 -107 612 -56 C612 30 542 74 402 74 C391 74 368 74 344 73 C307 72 277 72 267 72 C158 72 138 77 138 103 C138 118 150 129 178 139 C228 124 250 120 289 120 C439 120 535 188 535 293 C535 338 525 369 499 404 C528 428 547 439 563 439 C572 439 586 435 601 428 C573 416 559 398 559 373 C559 341 590 316 628 316 C673 316 702 345 702 389 C702 444 651 484 582 484 C541 484 516 474 468 440 C408 475 367 486 297 486 C150 486 54 415 54 306 C54 252 73 213 123 165 L123 165 Z M300 420 C337 420 362 409 373 387 C383 368 389 334 389 298 C389 213 362 181 293 181 C230 181 200 218 200 297 C200 386 227 420 300 420 L300 420 Z M316 -46 C345 -46 384 -49 408 -52 C452 -58 466 -69 466 -97 C466 -135 418 -152 310 -152 C203 -152 162 -136 162 -95 C162 -72 175 -59 208 -53 C228 -49 278 -46 316 -46 L316 -46 Z M154 704 C166 649 176 624 199 600 C227 571 267 555 312 555 C357 555 399 572 427 600 C449 623 460 649 471 704 L425 704 C409 659 382 644 313 644 C243 644 217 658 199 704 L154 704 Z " />
<glyph glyph-name="Gcommaaccent" unicode="&#x122;" horiz-adv-x="863" d="M839 273 L839 354 L455 354 L455 273 L519 273 C577 272 582 268 582 222 L582 168 C582 133 578 121 560 105 C534 82 492 69 443 69 C374 69 318 95 278 145 C241 191 224 250 224 334 C224 418 240 476 277 523 C315 573 371 599 441 599 C505 599 556 578 593 535 C622 502 634 472 644 404 L733 404 L733 675 L649 675 L630 621 C543 673 497 687 416 687 C198 687 38 537 38 331 C38 124 191 -20 413 -20 C500 -20 549 -5 634 47 L670 -7 L745 -7 L745 229 C746 264 756 273 798 273 L839 273 Z M375 -281 C416 -276 440 -267 463 -246 C489 -222 505 -183 505 -143 C505 -90 472 -54 423 -54 C384 -54 356 -80 356 -118 C356 -152 379 -173 415 -173 C422 -173 429 -172 443 -168 C437 -212 418 -231 375 -237 L375 -281 Z " />
<glyph glyph-name="gcommaaccent" unicode="&#x123;" horiz-adv-x="699" d="M123 165 C55 138 32 113 32 68 C32 22 56 -4 119 -27 C49 -45 22 -67 22 -110 C22 -179 113 -214 295 -214 C403 -214 486 -201 534 -176 C584 -151 612 -107 612 -56 C612 30 542 74 402 74 C391 74 368 74 344 73 C307 72 277 72 267 72 C158 72 138 77 138 103 C138 118 150 129 178 139 C228 124 250 120 289 120 C439 120 535 188 535 293 C535 338 525 369 499 404 C528 428 547 439 563 439 C572 439 586 435 601 428 C573 416 559 398 559 373 C559 341 590 316 628 316 C673 316 702 345 702 389 C702 444 651 484 582 484 C541 484 516 474 468 440 C408 475 367 486 297 486 C150 486 54 415 54 306 C54 252 73 213 123 165 L123 165 Z M300 420 C337 420 362 409 373 387 C383 368 389 334 389 298 C389 213 362 181 293 181 C230 181 200 218 200 297 C200 386 227 420 300 420 L300 420 Z M316 -46 C345 -46 384 -49 408 -52 C452 -58 466 -69 466 -97 C466 -135 418 -152 310 -152 C203 -152 162 -136 162 -95 C162 -72 175 -59 208 -53 C228 -49 278 -46 316 -46 L316 -46 Z M365 753 C324 748 299 738 277 718 C251 693 235 655 235 614 C235 561 268 525 317 525 C356 525 384 552 384 589 C384 623 361 645 325 645 C317 645 310 644 297 640 C303 684 322 703 365 709 L365 753 Z " />
<glyph glyph-name="Imacron" unicode="&#x12a;" horiz-adv-x="453" d="M24 0 L429 0 L429 82 L381 82 C315 81 305 89 306 143 L306 524 C306 578 314 586 381 585 L429 585 L429 667 L24 667 L24 585 L69 585 C135 586 143 578 143 524 L143 143 C143 89 135 81 69 82 L24 82 L24 0 Z M82 750 L371 750 L371 829 L82 829 L82 750 Z " />
<glyph glyph-name="imacron" unicode="&#x12b;" horiz-adv-x="388" d="M363 74 L327 74 C274 76 267 84 267 133 L267 469 L27 469 L27 395 L59 395 C109 393 116 386 117 336 L117 133 C116 83 109 76 59 74 L27 74 L27 0 L363 0 L363 74 Z M45 588 L342 588 L342 670 L45 670 L45 588 Z " />
<glyph glyph-name="Iogonek" unicode="&#x12e;" horiz-adv-x="453" d="M429 0 L429 82 L381 82 C315 81 305 89 306 143 L306 524 C306 578 314 586 381 585 L429 585 L429 667 L24 667 L24 585 L69 585 C135 586 143 578 143 524 L143 143 C143 89 135 81 69 82 L24 82 L24 0 L328 0 C247 -45 200 -101 200 -152 C200 -198 236 -227 293 -227 C349 -227 387 -201 420 -140 L402 -130 C374 -159 365 -164 339 -164 C306 -164 288 -146 288 -114 C288 -74 311 -40 365 0 L429 0 Z " />
<glyph glyph-name="iogonek" unicode="&#x12f;" horiz-adv-x="388" d="M363 0 L363 74 L327 74 C274 76 267 84 267 133 L267 469 L27 469 L27 395 L59 395 C109 393 116 386 117 336 L117 133 C116 83 109 76 59 74 L27 74 L27 0 L292 0 C207 -50 163 -101 163 -152 C163 -198 199 -227 256 -227 C312 -227 350 -201 383 -140 L364 -130 C337 -159 328 -164 302 -164 C269 -164 251 -146 251 -114 C251 -74 274 -40 328 0 L363 0 Z M186 667 C142 667 108 633 108 589 C108 546 142 512 185 512 C229 512 263 546 263 590 C263 632 228 667 186 667 L186 667 Z " />
<glyph glyph-name="Idotaccent" unicode="&#x130;" horiz-adv-x="453" d="M24 0 L429 0 L429 82 L381 82 C315 81 305 89 306 143 L306 524 C306 578 314 586 381 585 L429 585 L429 667 L24 667 L24 585 L69 585 C135 586 143 578 143 524 L143 143 C143 89 135 81 69 82 L24 82 L24 0 Z M227 862 C190 862 156 829 156 792 C156 753 188 721 227 721 C265 721 297 753 297 791 C297 829 264 862 227 862 L227 862 Z " />
<glyph glyph-name="dotlessi" unicode="&#x131;" horiz-adv-x="388" d="M363 74 L327 74 C274 76 267 84 267 133 L267 469 L27 469 L27 395 L59 395 C109 393 116 386 117 336 L117 133 C116 83 109 76 59 74 L27 74 L27 0 L363 0 L363 74 Z " />
<glyph glyph-name="Kcommaaccent" unicode="&#x136;" horiz-adv-x="869" d="M410 667 L22 667 L22 585 L67 585 C132 586 142 578 141 524 L141 143 C142 89 132 81 67 82 L22 82 L22 0 L408 0 L408 82 L376 82 C310 81 300 89 301 143 L301 225 L429 319 L568 122 C575 113 578 106 578 101 C578 88 561 82 523 82 L483 82 L483 0 L884 0 L884 82 L845 82 C813 82 791 94 768 124 L553 418 L702 536 C749 572 782 586 818 585 L846 585 L846 667 L481 667 L481 585 L528 585 C556 585 566 581 566 569 C566 562 561 554 551 547 L301 351 L301 524 C300 578 310 586 376 585 L410 585 L410 667 Z M378 -281 C419 -276 443 -267 466 -246 C492 -222 508 -183 508 -143 C508 -90 475 -54 426 -54 C387 -54 359 -80 359 -118 C359 -152 382 -173 418 -173 C425 -173 432 -172 446 -168 C440 -212 421 -231 378 -237 L378 -281 Z " />
<glyph glyph-name="kcommaaccent" unicode="&#x137;" horiz-adv-x="715" d="M16 593 L48 593 C98 591 105 584 106 534 L106 133 C105 83 98 76 48 74 L16 74 L16 0 L328 0 L328 74 L313 74 C261 78 256 84 256 143 L358 215 L434 115 C440 106 445 96 445 90 C445 80 434 74 416 74 L381 74 L381 0 L700 0 L700 74 L681 74 C648 74 617 93 592 129 L469 295 L542 352 C580 383 599 391 637 395 L664 395 L664 469 L343 469 L343 395 L410 395 C430 395 437 392 437 386 C437 379 429 370 417 362 L256 243 L256 667 L16 667 L16 593 Z M301 -281 C342 -276 366 -267 389 -246 C415 -222 431 -183 431 -143 C431 -90 398 -54 349 -54 C310 -54 282 -80 282 -118 C282 -152 305 -173 341 -173 C348 -173 355 -172 369 -168 C363 -212 344 -231 301 -237 L301 -281 Z " />
<glyph glyph-name="Lacute" unicode="&#x139;" horiz-adv-x="754" d="M432 667 L22 667 L22 585 L67 585 C133 586 143 578 142 524 L142 143 C143 89 133 81 67 82 L22 82 L22 0 L712 0 L712 279 L622 279 C611 116 575 79 429 82 L305 82 L305 524 C305 579 313 586 379 585 L432 585 L432 667 Z M340 721 L478 772 C505 782 521 801 521 822 C521 847 500 868 475 868 C458 868 445 862 423 842 L286 721 L340 721 Z " />
<glyph glyph-name="lacute" unicode="&#x13a;" horiz-adv-x="371" d="M256 667 L16 667 L16 593 L48 593 C98 591 105 584 106 534 L106 133 C105 83 98 76 48 74 L16 74 L16 0 L352 0 L352 74 L316 74 C263 76 256 84 256 133 L256 667 Z M147 726 L202 726 L360 805 C396 822 410 839 410 863 C410 893 387 916 357 916 C334 916 315 904 282 869 L147 726 Z " />
<glyph glyph-name="Lcommaaccent" unicode="&#x13b;" horiz-adv-x="754" d="M432 667 L22 667 L22 585 L67 585 C133 586 143 578 142 524 L142 143 C143 89 133 81 67 82 L22 82 L22 0 L712 0 L712 279 L622 279 C611 116 575 79 429 82 L305 82 L305 524 C305 579 313 586 379 585 L432 585 L432 667 Z M320 -281 C361 -276 385 -267 408 -246 C434 -222 450 -183 450 -143 C450 -90 417 -54 368 -54 C329 -54 301 -80 301 -118 C301 -152 324 -173 360 -173 C367 -173 374 -172 388 -168 C382 -212 363 -231 320 -237 L320 -281 Z " />
<glyph glyph-name="lcommaaccent" unicode="&#x13c;" horiz-adv-x="371" d="M256 667 L16 667 L16 593 L48 593 C98 591 105 584 106 534 L106 133 C105 83 98 76 48 74 L16 74 L16 0 L352 0 L352 74 L316 74 C263 76 256 84 256 133 L256 667 Z M129 -281 C170 -276 194 -267 217 -246 C243 -222 259 -183 259 -143 C259 -90 226 -54 177 -54 C138 -54 110 -80 110 -118 C110 -152 133 -173 169 -173 C176 -173 183 -172 197 -168 C191 -212 172 -231 129 -237 L129 -281 Z " />
<glyph glyph-name="Lcaron" unicode="&#x13d;" horiz-adv-x="754" d="M432 667 L22 667 L22 585 L67 585 C133 586 143 578 142 524 L142 143 C143 89 133 81 67 82 L22 82 L22 0 L712 0 L712 279 L622 279 C611 116 575 79 429 82 L305 82 L305 524 C305 579 313 586 379 585 L432 585 L432 667 Z M524 453 C569 458 596 467 620 488 C650 512 667 551 667 591 C667 644 631 680 576 680 C533 680 503 654 503 616 C503 582 528 561 568 561 C577 561 584 562 599 566 C592 522 571 503 524 497 L524 453 Z " />
<glyph glyph-name="lcaron" unicode="&#x13e;" horiz-adv-x="371" d="M256 667 L16 667 L16 593 L48 593 C98 591 105 584 106 534 L106 133 C105 83 98 76 48 74 L16 74 L16 0 L352 0 L352 74 L316 74 C263 76 256 84 256 133 L256 667 Z M323 446 C364 451 389 461 411 481 C437 506 453 544 453 585 C453 638 420 674 371 674 C332 674 304 647 304 610 C304 576 327 554 363 554 C371 554 378 555 391 559 C385 515 366 496 323 490 L323 446 Z " />
<glyph glyph-name="Lslash" unicode="&#x141;" horiz-adv-x="765" d="M438 667 L28 667 L28 585 L73 585 C139 586 147 579 147 524 L147 324 L5 242 L5 154 L147 236 L147 143 C147 89 139 81 73 82 L28 82 L28 0 L718 0 L718 279 L628 279 C617 116 581 79 435 82 L310 82 L310 305 L503 419 L503 507 L310 393 L310 524 C310 578 318 586 385 585 L438 585 L438 667 Z " />
<glyph glyph-name="lslash" unicode="&#x142;" horiz-adv-x="382" d="M116 280 L116 133 C115 83 108 76 58 74 L26 74 L26 0 L362 0 L362 74 L326 74 C273 76 266 84 266 133 L266 334 L392 406 L392 476 L266 404 L266 667 L26 667 L26 593 L58 593 C108 591 115 584 116 534 L116 350 L5 283 L5 213 L116 280 Z " />
<glyph glyph-name="Nacute" unicode="&#x143;" horiz-adv-x="896" d="M367 82 L316 82 C251 81 243 89 243 143 L243 522 L582 0 L764 0 L764 524 C764 579 772 586 837 585 L872 585 L872 667 L530 667 L530 585 L582 585 C647 586 655 579 655 524 L655 191 L344 667 L22 667 L22 585 L61 585 C126 586 134 578 134 524 L134 143 C134 89 126 81 61 82 L22 82 L22 0 L367 0 L367 82 Z M411 721 L549 772 C576 782 592 801 592 822 C592 847 571 868 546 868 C529 868 517 862 495 842 L357 721 L411 721 Z " />
<glyph glyph-name="nacute" unicode="&#x144;" horiz-adv-x="721" d="M383 0 L701 0 L701 74 L676 74 C616 76 608 83 608 133 L608 311 C608 382 598 418 571 443 C544 469 498 484 447 484 C376 484 336 462 266 385 L266 469 L22 469 L22 395 L56 395 C110 393 118 386 119 336 L119 133 C118 83 110 76 56 74 L22 74 L22 0 L344 0 L344 74 L323 74 C268 76 262 83 262 133 L262 272 C262 350 311 401 385 401 C414 401 436 392 450 376 C462 362 465 347 465 309 L465 133 C465 83 457 76 404 74 L383 74 L383 0 Z M266 540 L321 540 L479 619 C515 637 529 653 529 677 C529 707 506 730 476 730 C452 730 434 718 401 683 L266 540 Z " />
<glyph glyph-name="Ncommaaccent" unicode="&#x145;" horiz-adv-x="896" d="M367 82 L316 82 C251 81 243 89 243 143 L243 522 L582 0 L764 0 L764 524 C764 579 772 586 837 585 L872 585 L872 667 L530 667 L530 585 L582 585 C647 586 655 579 655 524 L655 191 L344 667 L22 667 L22 585 L61 585 C126 586 134 578 134 524 L134 143 C134 89 126 81 61 82 L22 82 L22 0 L367 0 L367 82 Z M391 -281 C432 -276 456 -267 479 -246 C505 -222 521 -183 521 -143 C521 -90 488 -54 439 -54 C400 -54 372 -80 372 -118 C372 -152 395 -173 431 -173 C438 -173 445 -172 459 -168 C453 -212 434 -231 391 -237 L391 -281 Z " />
<glyph glyph-name="ncommaaccent" unicode="&#x146;" horiz-adv-x="721" d="M383 0 L701 0 L701 74 L676 74 C616 76 608 83 608 133 L608 311 C608 382 598 418 571 443 C544 469 498 484 447 484 C376 484 336 462 266 385 L266 469 L22 469 L22 395 L56 395 C110 393 118 386 119 336 L119 133 C118 83 110 76 56 74 L22 74 L22 0 L344 0 L344 74 L323 74 C268 76 262 83 262 133 L262 272 C262 350 311 401 385 401 C414 401 436 392 450 376 C462 362 465 347 465 309 L465 133 C465 83 457 76 404 74 L383 74 L383 0 Z M304 -281 C345 -276 369 -267 392 -246 C418 -222 434 -183 434 -143 C434 -90 401 -54 352 -54 C313 -54 285 -80 285 -118 C285 -152 308 -173 344 -173 C351 -173 358 -172 372 -168 C366 -212 347 -231 304 -237 L304 -281 Z " />
<glyph glyph-name="Ncaron" unicode="&#x147;" horiz-adv-x="896" d="M367 82 L316 82 C251 81 243 89 243 143 L243 522 L582 0 L764 0 L764 524 C764 579 772 586 837 585 L872 585 L872 667 L530 667 L530 585 L582 585 C647 586 655 579 655 524 L655 191 L344 667 L22 667 L22 585 L61 585 C126 586 134 578 134 524 L134 143 C134 89 126 81 61 82 L22 82 L22 0 L367 0 L367 82 Z M294 858 L390 720 L506 720 L602 858 L556 858 L448 803 L340 858 L294 858 Z " />
<glyph glyph-name="ncaron" unicode="&#x148;" horiz-adv-x="721" d="M383 0 L701 0 L701 74 L676 74 C616 76 608 83 608 133 L608 311 C608 382 598 418 571 443 C544 469 498 484 447 484 C376 484 336 462 266 385 L266 469 L22 469 L22 395 L56 395 C110 393 118 386 119 336 L119 133 C118 83 110 76 56 74 L22 74 L22 0 L344 0 L344 74 L323 74 C268 76 262 83 262 133 L262 272 C262 350 311 401 385 401 C414 401 436 392 450 376 C462 362 465 347 465 309 L465 133 C465 83 457 76 404 74 L383 74 L383 0 Z M516 719 L468 719 L361 636 L254 719 L205 719 L316 540 L405 540 L516 719 Z " />
<glyph glyph-name="Omacron" unicode="&#x14c;" horiz-adv-x="890" d="M445 686 C202 686 38 544 38 334 C38 125 202 -19 440 -19 C563 -19 657 10 732 73 C812 138 852 226 852 334 C852 545 688 686 445 686 L445 686 Z M448 599 C513 599 572 572 612 523 C648 479 666 418 666 336 C666 249 650 192 612 145 C571 95 515 69 445 69 C375 69 319 95 278 145 C241 191 224 250 224 333 C224 419 241 477 278 523 C320 574 376 599 448 599 L448 599 Z M301 750 L590 750 L590 829 L301 829 L301 750 Z " />
<glyph glyph-name="omacron" unicode="&#x14d;" horiz-adv-x="650" d="M325 486 C149 486 30 386 30 238 C30 82 145 -17 327 -17 C503 -17 620 83 620 234 C620 387 503 486 325 486 L325 486 Z M325 409 C418 409 463 352 463 235 C463 117 418 60 326 60 C232 60 187 117 187 237 C187 351 234 409 325 409 L325 409 Z M176 588 L474 588 L474 670 L176 670 L176 588 Z " />
<glyph glyph-name="Ohungarumlaut" unicode="&#x150;" horiz-adv-x="890" d="M445 686 C202 686 38 544 38 334 C38 125 202 -19 440 -19 C563 -19 657 10 732 73 C812 138 852 226 852 334 C852 545 688 686 445 686 L445 686 Z M448 599 C513 599 572 572 612 523 C648 479 666 418 666 336 C666 249 650 192 612 145 C571 95 515 69 445 69 C375 69 319 95 278 145 C241 191 224 250 224 333 C224 419 241 477 278 523 C320 574 376 599 448 599 L448 599 Z M403 721 L498 786 C515 798 525 813 525 828 C525 850 505 869 483 869 C465 869 451 858 434 831 L365 721 L403 721 Z M551 721 L672 783 C696 795 707 809 707 826 C707 848 687 868 665 868 C649 868 635 859 616 838 L513 721 L551 721 Z " />
<glyph glyph-name="ohungarumlaut" unicode="&#x151;" horiz-adv-x="650" d="M325 486 C149 486 30 386 30 238 C30 82 145 -17 327 -17 C503 -17 620 83 620 234 C620 387 503 486 325 486 L325 486 Z M325 409 C418 409 463 352 463 235 C463 117 418 60 326 60 C232 60 187 117 187 237 C187 351 234 409 325 409 L325 409 Z M232 540 L276 540 L384 637 C404 654 414 671 414 687 C414 711 394 731 369 731 C343 731 328 718 303 671 L232 540 Z M379 540 L423 540 L563 631 C589 648 602 665 602 682 C602 708 582 729 556 729 C531 729 518 719 487 680 L379 540 Z " />
<glyph glyph-name="OE" unicode="&#x152;" horiz-adv-x="1322" d="M1260 667 L872 667 C747 667 727 668 608 677 C542 683 477 686 435 686 C201 686 38 542 38 334 C38 124 201 -19 439 -19 C484 -19 542 -16 602 -11 C670 -6 738 -1 751 -1 L894 0 L1259 0 L1259 279 L1167 279 C1155 116 1116 79 957 82 L816 82 L816 306 L859 306 C938 306 963 284 965 213 L965 182 L1054 182 L1054 500 L965 500 C961 405 948 391 859 389 L816 389 L816 585 L970 585 C1124 587 1152 562 1172 408 L1260 408 L1260 667 Z M652 247 C652 167 641 125 615 102 C589 79 536 66 470 66 C404 66 353 79 317 105 C254 151 224 225 224 333 C224 511 308 603 470 603 C535 603 589 589 615 567 C641 544 652 502 652 422 L652 247 Z " />
<glyph glyph-name="oe" unicode="&#x153;" horiz-adv-x="999" d="M849 161 C831 94 798 69 729 69 C685 69 656 81 635 109 C616 135 609 161 608 218 L967 218 C966 299 957 337 930 381 C888 447 807 487 713 487 C642 487 597 471 522 420 C459 468 402 486 317 486 C144 486 27 384 27 234 C27 85 145 -17 315 -17 C401 -17 458 3 522 55 C585 2 636 -17 714 -17 C795 -17 865 9 910 55 C937 83 948 108 956 161 L849 161 Z M611 294 C612 337 617 356 630 375 C645 397 672 409 706 409 C739 409 766 397 782 375 C796 356 800 337 801 294 L611 294 Z M318 409 C406 409 449 351 449 234 C449 118 406 60 319 60 C230 60 187 117 187 237 C187 351 231 409 318 409 L318 409 Z " />
<glyph glyph-name="Racute" unicode="&#x154;" horiz-adv-x="858" d="M22 585 L67 585 C132 586 142 578 141 524 L141 143 C142 89 133 81 67 82 L22 82 L22 0 L432 0 L432 82 L379 82 C312 81 304 88 304 143 L304 310 L418 310 C488 313 522 281 525 211 L526 144 C528 74 536 46 562 22 C590 -5 636 -20 685 -20 C741 -20 791 1 817 36 C840 67 848 102 848 171 L848 188 L769 188 C768 95 763 78 734 78 C712 78 705 91 704 142 L701 212 C695 297 670 323 575 344 C636 359 660 369 688 388 C728 414 750 455 750 504 C750 555 724 601 683 627 C636 655 575 667 476 667 L22 667 L22 585 Z M304 390 L304 585 L381 585 C490 585 506 583 539 564 C566 549 580 523 580 489 C580 454 564 424 537 410 C506 394 472 390 375 390 L304 390 Z M313 721 L451 772 C478 782 494 801 494 822 C494 847 473 868 448 868 C431 868 418 861 396 842 L259 721 L313 721 Z " />
<glyph glyph-name="racute" unicode="&#x155;" horiz-adv-x="535" d="M262 469 L22 469 L22 395 L51 395 C105 393 113 386 114 336 L114 133 C113 83 105 76 51 74 L22 74 L22 0 L370 0 L370 74 L317 74 C265 76 257 84 257 133 L257 253 C257 320 265 353 290 383 C311 408 342 423 373 423 C383 423 391 421 407 414 C366 402 348 382 348 349 C348 312 381 285 426 285 C482 285 521 323 521 376 C521 440 471 482 397 482 C338 482 300 461 262 408 L262 469 Z M173 540 L228 540 L386 619 C422 636 436 653 436 677 C436 707 413 730 383 730 C360 730 341 718 308 683 L173 540 Z " />
<glyph glyph-name="Rcommaaccent" unicode="&#x156;" horiz-adv-x="858" d="M22 585 L67 585 C132 586 142 578 141 524 L141 143 C142 89 133 81 67 82 L22 82 L22 0 L432 0 L432 82 L379 82 C312 81 304 88 304 143 L304 310 L418 310 C488 313 522 281 525 211 L526 144 C528 74 536 46 562 22 C590 -5 636 -20 685 -20 C741 -20 791 1 817 36 C840 67 848 102 848 171 L848 188 L769 188 C768 95 763 78 734 78 C712 78 705 91 704 142 L701 212 C695 297 670 323 575 344 C636 359 660 369 688 388 C728 414 750 455 750 504 C750 555 724 601 683 627 C636 655 575 667 476 667 L22 667 L22 585 Z M304 390 L304 585 L381 585 C490 585 506 583 539 564 C566 549 580 523 580 489 C580 454 564 424 537 410 C506 394 472 390 375 390 L304 390 Z M372 -281 C413 -276 437 -267 460 -246 C486 -222 502 -183 502 -143 C502 -90 469 -54 420 -54 C381 -54 353 -80 353 -118 C353 -152 376 -173 412 -173 C419 -173 426 -172 440 -168 C434 -212 415 -231 372 -237 L372 -281 Z " />
<glyph glyph-name="rcommaaccent" unicode="&#x157;" horiz-adv-x="535" d="M262 469 L22 469 L22 395 L51 395 C105 393 113 386 114 336 L114 133 C113 83 105 76 51 74 L22 74 L22 0 L370 0 L370 74 L317 74 C265 76 257 84 257 133 L257 253 C257 320 265 353 290 383 C311 408 342 423 373 423 C383 423 391 421 407 414 C366 402 348 382 348 349 C348 312 381 285 426 285 C482 285 521 323 521 376 C521 440 471 482 397 482 C338 482 300 461 262 408 L262 469 Z M120 -281 C161 -276 185 -267 208 -246 C234 -222 250 -183 250 -143 C250 -90 217 -54 168 -54 C129 -54 101 -80 101 -118 C101 -152 124 -173 160 -173 C167 -173 174 -172 188 -168 C182 -212 163 -231 120 -237 L120 -281 Z " />
<glyph glyph-name="Rcaron" unicode="&#x158;" horiz-adv-x="858" d="M22 585 L67 585 C132 586 142 578 141 524 L141 143 C142 89 133 81 67 82 L22 82 L22 0 L432 0 L432 82 L379 82 C312 81 304 88 304 143 L304 310 L418 310 C488 313 522 281 525 211 L526 144 C528 74 536 46 562 22 C590 -5 636 -20 685 -20 C741 -20 791 1 817 36 C840 67 848 102 848 171 L848 188 L769 188 C768 95 763 78 734 78 C712 78 705 91 704 142 L701 212 C695 297 670 323 575 344 C636 359 660 369 688 388 C728 414 750 455 750 504 C750 555 724 601 683 627 C636 655 575 667 476 667 L22 667 L22 585 Z M304 390 L304 585 L381 585 C490 585 506 583 539 564 C566 549 580 523 580 489 C580 454 564 424 537 410 C506 394 472 390 375 390 L304 390 Z M169 858 L266 720 L381 720 L478 858 L431 858 L323 803 L216 858 L169 858 Z " />
<glyph glyph-name="rcaron" unicode="&#x159;" horiz-adv-x="535" d="M262 469 L22 469 L22 395 L51 395 C105 393 113 386 114 336 L114 133 C113 83 105 76 51 74 L22 74 L22 0 L370 0 L370 74 L317 74 C265 76 257 84 257 133 L257 253 C257 320 265 353 290 383 C311 408 342 423 373 423 C383 423 391 421 407 414 C366 402 348 382 348 349 C348 312 381 285 426 285 C482 285 521 323 521 376 C521 440 471 482 397 482 C338 482 300 461 262 408 L262 469 Z M424 719 L375 719 L268 636 L161 719 L112 719 L223 540 L313 540 L424 719 Z " />
<glyph glyph-name="Sacute" unicode="&#x15a;" horiz-adv-x="721" d="M138 -5 L163 49 C246 -3 304 -20 398 -20 C579 -20 698 67 698 200 C698 266 664 323 605 352 C553 379 493 396 367 421 C263 442 237 451 213 475 C204 484 198 501 198 517 C198 567 248 597 328 597 C393 597 454 579 497 546 C531 519 548 488 562 421 L655 421 L655 669 L574 669 L547 623 C466 671 416 686 331 686 C160 686 45 601 45 473 C45 411 78 355 131 326 C181 300 242 282 370 256 C473 236 508 223 526 199 C536 187 541 172 541 156 C541 107 484 74 398 74 C332 74 274 92 228 126 C185 157 167 188 147 262 L52 262 L52 -5 L138 -5 Z M323 721 L461 772 C488 782 504 801 504 822 C504 847 483 868 458 868 C442 868 429 862 407 842 L269 721 L323 721 Z " />
<glyph glyph-name="sacute" unicode="&#x15b;" horiz-adv-x="595" d="M145 30 C216 -5 268 -18 334 -18 C461 -18 551 47 551 138 C551 190 521 235 470 258 C436 273 394 286 321 302 C234 321 230 322 212 335 C202 341 196 354 196 366 C196 394 227 412 273 412 C303 412 338 404 365 391 C395 376 415 358 449 314 L523 314 L523 474 L449 474 L433 445 C371 476 329 487 266 487 C138 487 48 423 48 333 C48 300 62 268 86 249 C120 221 178 196 242 182 C356 157 360 156 380 145 C397 136 404 126 404 112 C404 81 368 61 312 61 C271 61 238 69 208 87 C172 108 158 125 136 176 L50 176 L50 -7 L126 -7 L145 30 Z M203 540 L258 540 L416 619 C452 637 466 653 466 677 C466 707 443 730 413 730 C389 730 371 718 338 683 L203 540 Z " />
<glyph glyph-name="Scedilla" unicode="&#x15e;" horiz-adv-x="721" d="M373 -19 C384 -20 391 -20 398 -20 C580 -20 698 67 698 201 C698 266 663 323 605 352 C553 379 492 397 367 421 C263 442 238 451 213 475 C204 484 198 500 198 516 C198 567 247 597 329 597 C393 597 454 579 496 546 C531 520 548 488 562 421 L655 421 L655 669 L574 669 L547 623 C466 671 415 686 331 686 C160 686 45 601 45 473 C45 411 78 355 131 326 C181 300 243 282 369 256 C466 237 495 227 520 206 C533 195 541 176 541 157 C541 107 485 74 398 74 C332 74 274 92 228 126 C185 157 167 188 147 262 L52 262 L52 -5 L137 -5 L163 49 C221 11 272 -8 331 -16 L331 -101 C345 -99 360 -97 368 -97 C401 -97 420 -111 420 -136 C420 -157 401 -171 371 -171 C334 -171 291 -158 239 -132 L213 -181 C302 -217 338 -227 389 -227 C464 -227 512 -192 512 -137 C512 -90 472 -55 419 -55 C406 -55 390 -56 373 -58 L373 -19 Z " />
<glyph glyph-name="scedilla" unicode="&#x15f;" horiz-adv-x="595" d="M303 -16 C313 -18 321 -18 333 -18 C461 -18 551 46 551 138 C551 190 521 235 470 258 C436 273 393 286 320 302 C236 320 230 322 212 335 C202 341 196 353 196 365 C196 394 226 412 273 412 C303 412 338 404 365 391 C395 376 415 359 449 314 L523 314 L523 474 L449 474 L433 445 C371 476 329 487 266 487 C138 487 48 423 48 333 C48 300 62 268 86 249 C121 221 178 196 242 182 C356 157 360 156 380 145 C397 136 404 126 404 112 C404 81 368 61 312 61 C271 61 239 69 208 87 C172 108 158 125 136 176 L50 176 L50 -7 L126 -7 L145 30 C189 8 221 -3 261 -11 L261 -99 C275 -97 290 -95 297 -95 C330 -95 349 -110 349 -135 C349 -157 331 -171 300 -171 C264 -171 222 -159 169 -132 L143 -181 C230 -217 268 -227 319 -227 C393 -227 440 -192 440 -136 C440 -88 402 -53 349 -53 C337 -53 320 -54 303 -56 L303 -16 Z " />
<glyph glyph-name="Scaron" unicode="&#x160;" horiz-adv-x="721" d="M138 -5 L163 49 C246 -3 304 -20 398 -20 C579 -20 698 67 698 200 C698 266 664 323 605 352 C553 379 493 396 367 421 C263 442 237 451 213 475 C204 484 198 501 198 517 C198 567 248 597 328 597 C393 597 454 579 497 546 C531 519 548 488 562 421 L655 421 L655 669 L574 669 L547 623 C466 671 416 686 331 686 C160 686 45 601 45 473 C45 411 78 355 131 326 C181 300 242 282 370 256 C473 236 508 223 526 199 C536 187 541 172 541 156 C541 107 484 74 398 74 C332 74 274 92 228 126 C185 157 167 188 147 262 L52 262 L52 -5 L138 -5 Z M206 858 L302 720 L418 720 L515 858 L468 858 L360 803 L253 858 L206 858 Z " />
<glyph glyph-name="scaron" unicode="&#x161;" horiz-adv-x="595" d="M145 30 C216 -5 268 -18 334 -18 C461 -18 551 47 551 138 C551 190 521 235 470 258 C436 273 394 286 321 302 C234 321 230 322 212 335 C202 341 196 354 196 366 C196 394 227 412 273 412 C303 412 338 404 365 391 C395 376 415 358 449 314 L523 314 L523 474 L449 474 L433 445 C371 476 329 487 266 487 C138 487 48 423 48 333 C48 300 62 268 86 249 C120 221 178 196 242 182 C356 157 360 156 380 145 C397 136 404 126 404 112 C404 81 368 61 312 61 C271 61 238 69 208 87 C172 108 158 125 136 176 L50 176 L50 -7 L126 -7 L145 30 Z M453 719 L405 719 L298 636 L191 719 L142 719 L253 540 L342 540 L453 719 Z " />
<glyph glyph-name="Tcommaaccent" unicode="&#x162;" horiz-adv-x="748" d="M292 143 C292 89 284 81 218 82 L165 82 L165 0 L582 0 L582 82 L529 82 C463 81 455 89 455 143 L455 587 C585 588 629 542 631 402 L725 402 L725 667 L22 667 L22 402 L117 402 C118 541 162 588 292 587 L292 143 Z M317 -281 C358 -276 382 -267 405 -246 C431 -222 447 -183 447 -143 C447 -90 414 -54 365 -54 C326 -54 298 -80 298 -118 C298 -152 321 -173 357 -173 C364 -173 371 -172 385 -168 C379 -212 360 -231 317 -237 L317 -281 Z " />
<glyph glyph-name="tcommaaccent" unicode="&#x163;" horiz-adv-x="475" d="M344 224 L344 180 C344 98 332 75 291 75 C256 75 245 91 245 144 L245 391 L390 391 L390 469 L254 469 L254 652 L166 652 C150 528 117 487 16 463 L16 391 L103 391 L103 170 C103 93 107 71 128 41 C154 2 198 -17 262 -17 C322 -17 363 1 390 38 C410 67 416 94 416 154 L416 224 L344 224 Z M122 -281 C163 -276 187 -267 210 -246 C236 -222 252 -183 252 -143 C252 -90 219 -54 170 -54 C131 -54 103 -80 103 -118 C103 -152 126 -173 162 -173 C169 -173 176 -172 190 -168 C184 -212 165 -231 122 -237 L122 -281 Z " />
<glyph glyph-name="Tcaron" unicode="&#x164;" horiz-adv-x="748" d="M292 143 C292 89 284 81 218 82 L165 82 L165 0 L582 0 L582 82 L529 82 C463 81 455 89 455 143 L455 587 C585 588 629 542 631 402 L725 402 L725 667 L22 667 L22 402 L117 402 C118 541 162 588 292 587 L292 143 Z M220 858 L316 720 L432 720 L528 858 L481 858 L374 803 L266 858 L220 858 Z " />
<glyph glyph-name="tcaron" unicode="&#x165;" horiz-adv-x="475" d="M344 224 L344 180 C344 98 332 75 291 75 C256 75 245 91 245 144 L245 391 L390 391 L390 469 L254 469 L254 652 L166 652 C150 528 117 487 16 463 L16 391 L103 391 L103 170 C103 93 107 71 128 41 C154 2 198 -17 262 -17 C322 -17 363 1 390 38 C410 67 416 94 416 154 L416 224 L344 224 Z M375 531 C416 536 441 545 463 566 C489 590 505 629 505 669 C505 722 472 758 423 758 C384 758 356 731 356 694 C356 660 379 639 415 639 C423 639 430 640 443 644 C437 600 418 580 375 575 L375 531 Z " />
<glyph glyph-name="Umacron" unicode="&#x16a;" horiz-adv-x="841" d="M816 667 L485 667 L485 585 L533 585 C593 586 601 579 601 524 L601 211 C601 157 592 130 569 111 C545 91 496 78 440 78 C397 78 364 86 340 103 C310 125 299 154 299 217 L299 524 C299 579 307 586 374 585 L427 585 L427 667 L22 667 L22 585 L61 585 C128 586 136 578 136 524 L136 206 C136 136 153 91 195 51 C245 2 316 -21 415 -21 C611 -21 711 58 711 213 L711 524 C711 579 719 586 779 585 L816 585 L816 667 Z M276 750 L565 750 L565 829 L276 829 L276 750 Z " />
<glyph glyph-name="umacron" unicode="&#x16b;" horiz-adv-x="721" d="M22 395 L40 395 C90 393 97 386 97 336 L97 156 C97 85 107 49 135 24 C163 -2 210 -17 261 -17 C336 -17 382 6 446 76 L446 0 L700 0 L700 74 L661 74 C605 76 597 84 597 133 L597 469 L375 469 L375 395 L402 395 C446 393 454 384 454 336 L454 195 C454 120 400 66 324 66 C294 66 270 75 256 91 C244 105 240 120 240 158 L240 469 L22 469 L22 395 Z M192 588 L489 588 L489 670 L192 670 L192 588 Z " />
<glyph glyph-name="Uring" unicode="&#x16e;" horiz-adv-x="841" d="M816 667 L485 667 L485 585 L533 585 C593 586 601 579 601 524 L601 211 C601 157 592 130 569 111 C545 91 496 78 440 78 C397 78 364 86 340 103 C310 125 299 154 299 217 L299 524 C299 579 307 586 374 585 L427 585 L427 667 L22 667 L22 585 L61 585 C128 586 136 578 136 524 L136 206 C136 136 153 91 195 51 C245 2 316 -21 415 -21 C611 -21 711 58 711 213 L711 524 C711 579 719 586 779 585 L816 585 L816 667 Z M421 932 C362 932 313 885 313 828 C313 766 362 716 422 716 C479 716 529 767 529 826 C529 885 481 932 421 932 L421 932 Z M421 869 C446 869 466 849 466 824 C466 799 446 779 422 779 C396 779 376 799 376 825 C376 849 397 869 421 869 L421 869 Z " />
<glyph glyph-name="uring" unicode="&#x16f;" horiz-adv-x="721" d="M22 395 L40 395 C90 393 97 386 97 336 L97 156 C97 85 107 49 135 24 C163 -2 210 -17 261 -17 C336 -17 382 6 446 76 L446 0 L700 0 L700 74 L661 74 C605 76 597 84 597 133 L597 469 L375 469 L375 395 L402 395 C446 393 454 384 454 336 L454 195 C454 120 400 66 324 66 C294 66 270 75 256 91 C244 105 240 120 240 158 L240 469 L22 469 L22 395 Z M323 777 C253 777 194 720 194 651 C194 576 250 519 324 519 C395 519 452 577 452 648 C452 719 394 777 323 777 L323 777 Z M323 707 C355 707 382 680 382 648 C382 615 356 589 324 589 C289 589 264 615 264 649 C264 681 291 707 323 707 L323 707 Z " />
<glyph glyph-name="Uhungarumlaut" unicode="&#x170;" horiz-adv-x="841" d="M816 667 L485 667 L485 585 L533 585 C593 586 601 579 601 524 L601 211 C601 157 592 130 569 111 C545 91 496 78 440 78 C397 78 364 86 340 103 C310 125 299 154 299 217 L299 524 C299 579 307 586 374 585 L427 585 L427 667 L22 667 L22 585 L61 585 C128 586 136 578 136 524 L136 206 C136 136 153 91 195 51 C245 2 316 -21 415 -21 C611 -21 711 58 711 213 L711 524 C711 579 719 586 779 585 L816 585 L816 667 Z M359 721 L454 786 C471 798 481 813 481 828 C481 850 461 869 439 869 C420 869 406 858 390 831 L321 721 L359 721 Z M507 721 L628 783 C652 795 663 809 663 826 C663 848 643 868 621 868 C605 868 590 859 572 838 L469 721 L507 721 Z " />
<glyph glyph-name="uhungarumlaut" unicode="&#x171;" horiz-adv-x="721" d="M22 395 L40 395 C90 393 97 386 97 336 L97 156 C97 85 107 49 135 24 C163 -2 210 -17 261 -17 C336 -17 382 6 446 76 L446 0 L700 0 L700 74 L661 74 C605 76 597 84 597 133 L597 469 L375 469 L375 395 L402 395 C446 393 454 384 454 336 L454 195 C454 120 400 66 324 66 C294 66 270 75 256 91 C244 105 240 120 240 158 L240 469 L22 469 L22 395 Z M208 540 L251 540 L360 637 C379 653 389 671 389 687 C389 711 369 731 345 731 C318 731 304 718 279 671 L208 540 Z M355 540 L398 540 L539 631 C565 648 578 665 578 682 C578 708 558 729 532 729 C507 729 494 719 463 680 L355 540 Z " />
<glyph glyph-name="Uogonek" unicode="&#x172;" horiz-adv-x="841" d="M816 585 L816 667 L485 667 L485 585 L533 585 C593 586 601 579 601 524 L601 211 C601 157 592 130 569 111 C544 90 496 78 439 78 C397 78 363 87 340 103 C310 125 299 154 299 217 L299 524 C299 579 307 586 374 585 L427 585 L427 667 L22 667 L22 585 L61 585 C128 586 136 578 136 524 L136 206 C136 136 153 91 195 51 C245 2 316 -21 414 -21 C439 -21 466 -19 493 -15 C423 -62 389 -107 389 -152 C389 -198 425 -227 482 -227 C538 -227 576 -201 609 -140 L590 -130 C563 -159 554 -164 528 -164 C495 -164 477 -146 477 -113 C477 -76 502 -38 543 -15 L633 36 C649 44 668 65 684 94 C703 128 711 162 711 213 L711 524 C711 579 719 586 779 585 L816 585 Z " />
<glyph glyph-name="uogonek" unicode="&#x173;" horiz-adv-x="721" d="M700 0 L700 74 L661 74 C605 76 597 84 597 133 L597 469 L375 469 L375 395 L402 395 C446 393 454 384 454 336 L454 195 C454 120 400 66 324 66 C294 66 270 75 256 91 C244 105 240 120 240 158 L240 469 L22 469 L22 395 L40 395 C90 393 97 386 97 336 L97 156 C97 85 107 49 135 24 C163 -2 210 -17 261 -17 C336 -17 382 6 446 76 L446 0 L607 0 C525 -48 481 -101 481 -152 C481 -198 516 -227 572 -227 C628 -227 665 -201 698 -140 L680 -130 C652 -159 644 -164 618 -164 C585 -164 567 -146 567 -114 C567 -74 590 -40 644 0 L700 0 Z " />
<glyph glyph-name="Ydieresis" unicode="&#x178;" horiz-adv-x="770" d="M-16 585 L12 585 C52 586 84 565 122 514 L303 277 L303 143 C303 89 295 81 229 82 L170 82 L170 0 L599 0 L599 82 L540 82 C474 81 466 89 466 143 L466 277 L656 520 C695 573 715 585 759 585 L784 585 L784 667 L456 667 L456 587 L483 587 C522 587 541 579 541 563 C541 556 538 549 529 537 L418 389 L321 528 C313 539 308 551 308 559 C308 579 320 585 356 585 L385 585 L385 667 L-16 667 L-16 585 Z M283 858 C247 858 215 826 215 791 C215 752 245 722 284 722 C320 722 351 753 351 789 C351 826 320 858 283 858 L283 858 Z M488 858 C452 858 420 826 420 791 C420 752 450 722 489 722 C525 722 556 753 556 789 C556 826 525 858 488 858 L488 858 Z " />
<glyph glyph-name="Zacute" unicode="&#x179;" horiz-adv-x="716" d="M22 0 L663 0 L663 286 L565 286 C556 124 520 85 374 81 L235 81 L663 575 L663 667 L45 667 L45 403 L135 403 C145 544 187 585 321 585 L453 585 L22 84 L22 0 Z M321 721 L459 772 C486 782 502 801 502 822 C502 847 481 868 456 868 C439 868 426 862 404 842 L267 721 L321 721 Z " />
<glyph glyph-name="zacute" unicode="&#x17a;" horiz-adv-x="584" d="M33 0 L522 0 L522 218 L435 218 C434 97 417 76 309 74 L216 74 L522 389 L522 469 L56 469 L56 267 L139 267 C140 382 155 397 264 395 L339 395 L33 83 L33 0 Z M198 540 L253 540 L411 619 C447 637 461 653 461 677 C461 707 438 730 408 730 C384 730 365 718 332 683 L198 540 Z " />
<glyph glyph-name="Zdotaccent" unicode="&#x17b;" horiz-adv-x="716" d="M22 0 L663 0 L663 286 L565 286 C556 124 520 85 374 81 L235 81 L663 575 L663 667 L45 667 L45 403 L135 403 C145 544 187 585 321 585 L453 585 L22 84 L22 0 Z M358 862 C321 862 287 829 287 792 C287 753 319 721 358 721 C396 721 428 753 428 791 C428 829 395 862 358 862 L358 862 Z " />
<glyph glyph-name="zdotaccent" unicode="&#x17c;" horiz-adv-x="584" d="M33 0 L522 0 L522 218 L435 218 C434 97 417 76 309 74 L216 74 L522 389 L522 469 L56 469 L56 267 L139 267 C140 382 155 397 264 395 L339 395 L33 83 L33 0 Z M294 702 C255 702 220 668 220 631 C220 590 253 557 294 557 C334 557 365 589 365 629 C365 669 333 702 294 702 L294 702 Z " />
<glyph glyph-name="Zcaron" unicode="&#x17d;" horiz-adv-x="716" d="M22 0 L663 0 L663 286 L565 286 C556 124 520 85 374 81 L235 81 L663 575 L663 667 L45 667 L45 403 L135 403 C145 544 187 585 321 585 L453 585 L22 84 L22 0 Z M204 858 L300 720 L416 720 L512 858 L465 858 L358 803 L250 858 L204 858 Z " />
<glyph glyph-name="zcaron" unicode="&#x17e;" horiz-adv-x="584" d="M33 0 L522 0 L522 218 L435 218 C434 97 417 76 309 74 L216 74 L522 389 L522 469 L56 469 L56 267 L139 267 C140 382 155 397 264 395 L339 395 L33 83 L33 0 Z M448 719 L399 719 L293 636 L185 719 L137 719 L248 540 L337 540 L448 719 Z " />
<glyph glyph-name="florin" unicode="&#x192;" horiz-adv-x="703" d="M456 389 L561 389 L575 469 L470 469 L480 528 C488 575 497 597 512 611 C523 621 544 628 563 628 C577 628 586 625 606 616 C565 601 548 583 548 555 C548 524 572 504 611 504 C663 504 702 540 702 589 C702 648 644 685 550 685 C481 685 416 662 375 623 C345 595 329 562 319 507 L313 469 L222 469 L208 389 L299 389 L229 -10 C216 -85 196 -110 146 -110 C132 -110 123 -107 103 -98 C144 -83 161 -65 161 -37 C161 -6 137 14 98 14 C46 14 7 -22 7 -71 C7 -130 65 -167 159 -167 C228 -167 293 -144 334 -105 C364 -77 380 -44 390 11 L456 389 Z " />
<glyph glyph-name="uni01D3" unicode="&#x1d3;" horiz-adv-x="841" d="M816 667 L485 667 L485 585 L533 585 C593 586 601 579 601 524 L601 211 C601 157 592 130 569 111 C545 91 496 78 440 78 C397 78 364 86 340 103 C310 125 299 154 299 217 L299 524 C299 579 307 586 374 585 L427 585 L427 667 L22 667 L22 585 L61 585 C128 586 136 578 136 524 L136 206 C136 136 153 91 195 51 C245 2 316 -21 415 -21 C611 -21 711 58 711 213 L711 524 C711 579 719 586 779 585 L816 585 L816 667 Z M267 858 L363 720 L479 720 L575 858 L528 858 L421 803 L313 858 L267 858 Z " />
<glyph glyph-name="Scommaaccent" unicode="&#x218;" horiz-adv-x="721" d="M138 -5 L163 49 C246 -3 304 -20 398 -20 C579 -20 698 67 698 200 C698 266 664 323 605 352 C553 379 493 396 367 421 C263 442 237 451 213 475 C204 484 198 501 198 517 C198 567 248 597 328 597 C393 597 454 579 497 546 C531 519 548 488 562 421 L655 421 L655 669 L574 669 L547 623 C466 671 416 686 331 686 C160 686 45 601 45 473 C45 411 78 355 131 326 C181 300 242 282 370 256 C473 236 508 223 526 199 C536 187 541 172 541 156 C541 107 484 74 398 74 C332 74 274 92 228 126 C185 157 167 188 147 262 L52 262 L52 -5 L138 -5 Z M306 -281 C347 -276 371 -267 394 -246 C420 -222 436 -183 436 -143 C436 -90 403 -54 354 -54 C315 -54 287 -80 287 -118 C287 -152 310 -173 346 -173 C353 -173 360 -172 374 -168 C368 -212 349 -231 306 -237 L306 -281 Z " />
<glyph glyph-name="scommaaccent" unicode="&#x219;" horiz-adv-x="595" d="M145 30 C216 -5 268 -18 334 -18 C461 -18 551 47 551 138 C551 190 521 235 470 258 C436 273 394 286 321 302 C234 321 230 322 212 335 C202 341 196 354 196 366 C196 394 227 412 273 412 C303 412 338 404 365 391 C395 376 415 358 449 314 L523 314 L523 474 L449 474 L433 445 C371 476 329 487 266 487 C138 487 48 423 48 333 C48 300 62 268 86 249 C120 221 178 196 242 182 C356 157 360 156 380 145 C397 136 404 126 404 112 C404 81 368 61 312 61 C271 61 238 69 208 87 C172 108 158 125 136 176 L50 176 L50 -7 L126 -7 L145 30 Z M241 -281 C282 -276 306 -267 329 -246 C355 -222 371 -183 371 -143 C371 -90 338 -54 289 -54 C250 -54 222 -80 222 -118 C222 -152 245 -173 281 -173 C288 -173 295 -172 309 -168 C303 -212 284 -231 241 -237 L241 -281 Z " />
<glyph glyph-name="uni021A" unicode="&#x21a;" horiz-adv-x="748" d="M292 143 C292 89 284 81 218 82 L165 82 L165 0 L582 0 L582 82 L529 82 C463 81 455 89 455 143 L455 587 C585 588 629 542 631 402 L725 402 L725 667 L22 667 L22 402 L117 402 C118 541 162 588 292 587 L292 143 Z M317 -281 C358 -276 382 -267 405 -246 C431 -222 447 -183 447 -143 C447 -90 414 -54 365 -54 C326 -54 298 -80 298 -118 C298 -152 321 -173 357 -173 C364 -173 371 -172 385 -168 C379 -212 360 -231 317 -237 L317 -281 Z " />
<glyph glyph-name="uni021B" unicode="&#x21b;" horiz-adv-x="475" d="M344 224 L344 180 C344 98 332 75 291 75 C256 75 245 91 245 144 L245 391 L390 391 L390 469 L254 469 L254 652 L166 652 C150 528 117 487 16 463 L16 391 L103 391 L103 170 C103 93 107 71 128 41 C154 2 198 -17 262 -17 C322 -17 363 1 390 38 C410 67 416 94 416 154 L416 224 L344 224 Z M122 -281 C163 -276 187 -267 210 -246 C236 -222 252 -183 252 -143 C252 -90 219 -54 170 -54 C131 -54 103 -80 103 -118 C103 -152 126 -173 162 -173 C169 -173 176 -172 190 -168 C184 -212 165 -231 122 -237 L122 -281 Z " />
<glyph glyph-name="afii57929" unicode="&#x2bc;" horiz-adv-x="273" d="M42 403 C105 414 135 426 167 453 C207 485 230 533 230 582 C230 644 188 687 130 687 C78 687 37 650 37 604 C37 568 67 537 103 537 C113 537 128 540 144 546 C132 487 115 471 42 453 L42 403 Z " />
<glyph glyph-name="circumflex" unicode="&#x2c6;" horiz-adv-x="519" d="M104 540 L153 540 L260 623 L367 540 L415 540 L305 719 L215 719 L104 540 Z " />
<glyph glyph-name="caron" unicode="&#x2c7;" horiz-adv-x="519" d="M415 719 L367 719 L260 636 L153 719 L104 719 L215 540 L304 540 L415 719 Z " />
<glyph glyph-name="uni02C9" unicode="&#x2c9;" horiz-adv-x="520" d="M111 588 L409 588 L409 670 L111 670 L111 588 Z " />
<glyph glyph-name="breve" unicode="&#x2d8;" horiz-adv-x="518" d="M101 704 C112 649 123 624 145 600 C173 571 214 555 259 555 C304 555 346 572 374 600 C396 623 406 649 417 704 L372 704 C356 659 329 644 259 644 C190 644 164 658 146 704 L101 704 Z " />
<glyph glyph-name="dotaccent" unicode="&#x2d9;" horiz-adv-x="536" d="M270 702 C231 702 196 668 196 631 C196 590 229 557 270 557 C310 557 341 589 341 629 C341 669 309 702 270 702 L270 702 Z " />
<glyph glyph-name="ring" unicode="&#x2da;" horiz-adv-x="524" d="M225 777 C155 777 96 720 96 651 C96 576 152 519 226 519 C297 519 354 577 354 648 C354 719 296 777 225 777 L225 777 Z M225 707 C257 707 284 680 284 648 C284 615 258 589 226 589 C191 589 166 615 166 649 C166 681 193 707 225 707 L225 707 Z " />
<glyph glyph-name="ogonek" unicode="&#x2db;" horiz-adv-x="550" d="M318 14 C213 -44 166 -95 166 -152 C166 -198 201 -227 257 -227 C313 -227 351 -201 383 -140 L365 -130 C338 -159 329 -164 303 -164 C270 -164 252 -146 252 -114 C252 -69 275 -38 349 14 L318 14 Z " />
<glyph glyph-name="tilde" unicode="&#x2dc;" horiz-adv-x="520" d="M147 540 C155 568 168 581 189 581 C197 581 208 579 219 576 L274 561 C285 558 295 557 305 557 C332 557 355 568 373 589 C392 610 400 630 411 678 L373 678 C362 648 352 638 330 638 C324 638 316 639 308 641 L252 656 C240 659 227 661 215 661 C157 661 128 628 109 540 L147 540 Z " />
<glyph glyph-name="hungarumlaut" unicode="&#x2dd;" horiz-adv-x="530" d="M147 540 L191 540 L299 637 C319 654 329 671 329 687 C329 711 309 731 284 731 C258 731 243 718 218 671 L147 540 Z M294 540 L338 540 L478 631 C503 648 517 665 517 682 C517 708 497 729 471 729 C446 729 433 719 402 680 L294 540 Z " />
<glyph glyph-name="uni2011" unicode="&#x2011;" horiz-adv-x="302" d="M0 172 L302 172 L302 299 L0 299 L0 172 Z " />
<glyph glyph-name="figuredash" unicode="&#x2012;" horiz-adv-x="609" d="M32 187 L578 187 L578 284 L32 284 L32 187 Z " />
<glyph glyph-name="endash" unicode="&#x2013;" horiz-adv-x="609" d="M32 187 L578 187 L578 284 L32 284 L32 187 Z " />
<glyph glyph-name="emdash" unicode="&#x2014;" horiz-adv-x="809" d="M0 187 L809 187 L809 284 L0 284 L0 187 Z " />
<glyph glyph-name="afii00208" unicode="&#x2015;" horiz-adv-x="809" d="M0 187 L809 187 L809 284 L0 284 L0 187 Z " />
<glyph glyph-name="quoteleft" unicode="&#x2018;" horiz-adv-x="273" d="M225 687 C162 675 132 663 100 637 C60 605 37 557 37 508 C37 446 79 403 137 403 C189 403 230 440 230 485 C230 521 200 552 164 552 C154 552 139 549 123 543 C135 602 152 618 225 637 L225 687 Z " />
<glyph glyph-name="quoteright" unicode="&#x2019;" horiz-adv-x="273" d="M42 403 C105 414 135 426 167 453 C207 485 230 533 230 582 C230 644 188 687 130 687 C78 687 37 650 37 604 C37 568 67 537 103 537 C113 537 128 540 144 546 C132 487 115 471 42 453 L42 403 Z " />
<glyph glyph-name="quotesinglbase" unicode="&#x201a;" horiz-adv-x="273" d="M42 -144 C105 -133 135 -121 167 -94 C207 -62 230 -14 230 35 C230 97 188 140 130 140 C78 140 37 103 37 57 C37 21 67 -10 103 -10 C113 -10 128 -7 144 -1 C132 -60 115 -76 42 -94 L42 -144 Z " />
<glyph glyph-name="quotedblleft" unicode="&#x201c;" horiz-adv-x="530" d="M488 687 C425 675 395 663 363 637 C323 605 300 557 300 508 C300 446 342 403 400 403 C452 403 493 440 493 485 C493 521 463 552 427 552 C417 552 402 549 386 543 C398 602 415 618 488 637 L488 687 Z M231 687 C168 675 138 663 106 637 C66 605 43 557 43 508 C43 446 85 403 143 403 C195 403 236 440 236 485 C236 521 206 552 170 552 C160 552 145 549 129 543 C141 602 158 618 231 637 L231 687 Z " />
<glyph glyph-name="quotedblright" unicode="&#x201d;" horiz-adv-x="530" d="M298 403 C361 414 391 426 423 453 C463 485 486 533 486 582 C486 644 444 687 386 687 C334 687 293 650 293 604 C293 568 323 537 359 537 C369 537 384 540 400 546 C388 487 371 471 298 453 L298 403 Z M42 403 C105 414 135 426 167 453 C207 485 230 533 230 582 C230 644 188 687 130 687 C78 687 37 650 37 604 C37 568 67 537 103 537 C113 537 128 540 144 546 C132 487 115 471 42 453 L42 403 Z " />
<glyph glyph-name="quotedblbase" unicode="&#x201e;" horiz-adv-x="530" d="M48 -144 C111 -133 141 -121 174 -94 C213 -62 236 -14 236 35 C236 96 194 140 136 140 C84 140 43 103 43 57 C43 21 73 -10 109 -10 C119 -10 134 -7 150 -1 C138 -60 121 -76 48 -94 L48 -144 Z M305 -144 C368 -133 398 -121 430 -94 C470 -62 493 -15 493 35 C493 96 451 140 393 140 C341 140 300 103 300 57 C300 21 330 -10 366 -10 C376 -10 391 -7 407 -1 C395 -60 378 -76 305 -94 L305 -144 Z " />
<glyph glyph-name="dagger" unicode="&#x2020;" horiz-adv-x="655" d="M300 329 L296 276 C290 182 289 176 272 28 C260 -64 258 -81 258 -105 C258 -173 281 -208 327 -208 C351 -208 377 -195 387 -178 C397 -163 401 -139 401 -102 C401 -75 399 -52 388 28 C371 163 359 304 360 360 C394 355 411 351 429 345 C496 324 504 322 531 322 C569 322 595 347 595 384 C595 397 590 411 581 424 C569 440 554 446 526 446 C506 446 506 446 453 430 C446 428 432 424 410 419 C404 417 385 413 364 407 C364 456 367 473 387 545 C397 583 402 606 402 619 C402 663 377 687 331 687 C285 687 258 663 258 621 C258 605 262 584 273 546 C293 477 296 458 297 407 C277 412 257 417 251 419 C230 424 215 428 208 430 C155 446 155 446 136 446 C93 446 66 421 66 383 C66 346 91 322 129 322 C148 322 171 326 189 331 C221 341 240 347 246 349 C262 353 274 356 301 360 L300 329 Z " />
<glyph glyph-name="daggerdbl" unicode="&#x2021;" horiz-adv-x="655" d="M254 238 C282 198 293 161 300 89 C268 91 255 93 229 100 C162 120 155 121 127 121 C86 121 60 99 60 65 C60 30 87 7 129 7 C150 7 160 9 205 22 C238 31 252 34 296 39 C295 4 294 -1 283 -36 C258 -109 256 -119 256 -142 C256 -179 287 -206 330 -206 C374 -206 403 -181 403 -143 C403 -125 399 -101 392 -80 C389 -71 386 -62 383 -54 C378 -39 374 -28 372 -21 C366 1 365 8 364 39 C408 34 422 31 455 22 C500 9 510 7 530 7 C573 7 600 30 600 65 C600 100 575 121 534 121 C515 121 492 118 475 113 C442 103 422 98 416 96 C397 92 388 91 360 89 C367 161 379 199 406 238 C378 286 366 323 360 392 C393 389 407 387 431 380 C498 360 505 359 534 359 C574 359 600 382 600 416 C600 450 573 473 531 473 C510 473 500 471 455 458 C422 450 408 447 364 442 C365 476 366 482 377 517 C402 593 404 599 404 623 C404 661 374 687 330 687 C286 687 257 662 257 624 C257 598 260 586 283 517 C294 482 295 476 296 442 C252 447 238 449 205 458 C160 471 151 473 130 473 C88 473 60 450 60 415 C60 380 85 359 126 359 C145 359 168 362 185 367 C218 377 238 383 244 384 C263 388 272 390 300 392 C293 320 283 287 254 238 L254 238 Z " />
<glyph glyph-name="bullet" unicode="&#x2022;" horiz-adv-x="733" d="M368 480 C282 480 215 418 215 340 C215 263 283 200 366 200 C450 200 517 263 517 340 C517 417 450 480 368 480 L368 480 Z " />
<glyph glyph-name="ellipsis" unicode="&#x2026;" horiz-adv-x="1033" d="M174 140 C126 140 87 105 87 63 C87 18 125 -17 175 -17 C223 -17 261 18 261 62 C261 105 222 140 174 140 L174 140 Z M518 140 C470 140 431 105 431 63 C431 18 469 -17 519 -17 C567 -17 605 18 605 62 C605 105 566 140 518 140 L518 140 Z M862 140 C814 140 775 105 775 63 C775 18 813 -17 863 -17 C911 -17 949 18 949 62 C949 105 910 140 862 140 L862 140 Z " />
<glyph glyph-name="perthousand" unicode="&#x2030;" horiz-adv-x="1522" d="M244 622 C122 622 38 545 38 433 C38 373 54 333 91 297 C130 259 181 240 245 240 C368 240 450 317 450 432 C450 546 368 622 244 622 L244 622 Z M244 556 C305 556 333 517 333 431 C333 345 305 306 244 306 C182 306 155 345 155 433 C155 516 184 556 244 556 L244 556 Z M808 365 C686 365 602 288 602 177 C602 117 618 76 655 40 C693 3 746 -17 809 -17 C931 -17 1014 60 1014 175 C1014 289 931 365 808 365 L808 365 Z M808 297 C870 297 897 260 897 173 C897 87 870 50 808 50 C745 50 719 87 719 176 C719 259 747 297 808 297 L808 297 Z M274 -17 L366 -17 L776 623 L685 623 L274 -17 Z M1275 365 C1153 365 1069 288 1069 177 C1069 117 1085 76 1122 40 C1160 3 1213 -17 1275 -17 C1398 -17 1481 60 1481 175 C1481 289 1398 365 1275 365 L1275 365 Z M1275 297 C1337 297 1364 260 1364 173 C1364 87 1337 50 1275 50 C1212 50 1186 87 1186 176 C1186 259 1214 297 1275 297 L1275 297 Z " />
<glyph glyph-name="guilsinglleft" unicode="&#x2039;" horiz-adv-x="317" d="M168 403 L122 346 C84 299 60 257 60 237 C60 218 84 176 122 129 L168 72 L253 72 L219 138 C182 215 178 224 178 238 C178 257 185 273 222 338 L259 403 L168 403 Z " />
<glyph glyph-name="guilsinglright" unicode="&#x203a;" horiz-adv-x="317" d="M152 72 L198 129 C235 175 259 218 259 238 C259 257 235 300 198 346 L152 403 L66 403 L100 337 C137 260 141 251 141 237 C141 218 132 199 97 137 L60 72 L152 72 Z " />
<glyph glyph-name="uni203E" unicode="&#x203e;" horiz-adv-x="499" d="M0 785 L0 700 L500 700 L500 785 L0 785 Z " />
<glyph glyph-name="fraction" unicode="&#x2044;" horiz-adv-x="180" d="M-180 -17 L-88 -17 L366 622 L273 622 L-180 -17 Z " />
<glyph glyph-name="Euro" unicode="&#x20ac;" horiz-adv-x="848" d="M120 355 L120 336 L120 312 L65 312 L33 244 L130 244 C142 200 156 169 177 137 C247 34 359 -19 508 -19 C626 -19 703 11 759 79 C797 125 810 166 817 258 L714 258 C706 195 697 166 673 136 C640 93 585 69 519 69 C413 69 333 137 314 244 L527 244 L559 312 L306 312 L306 334 L306 355 L579 355 L610 423 L314 423 C333 530 413 598 521 598 C584 598 634 577 671 535 C699 501 711 472 721 404 L815 404 L815 675 L726 675 L706 621 C619 673 574 687 493 687 C316 687 169 580 130 423 L65 423 L33 355 L120 355 Z " />
<glyph glyph-name="trademark" unicode="&#x2122;" horiz-adv-x="1124" d="M179 370 C179 341 176 339 137 339 L101 339 L101 287 L363 287 L363 339 L327 339 C288 339 285 341 285 370 L285 615 C360 615 385 590 385 512 L450 512 L450 667 L14 667 L14 512 L79 512 C79 590 104 615 179 615 L179 370 Z M1109 667 L888 667 L794 434 L704 667 L477 667 L477 615 L507 615 C545 615 548 612 548 584 L548 370 C548 342 545 339 507 339 L477 339 L477 287 L686 287 L686 339 L662 339 C624 339 621 342 621 370 L621 578 L737 287 L816 287 L936 579 L936 370 C936 342 933 339 894 339 L868 339 L868 287 L1109 287 L1109 339 L1078 339 C1039 339 1036 342 1036 370 L1036 584 C1036 612 1039 615 1078 615 L1109 615 L1109 667 Z " />
<glyph glyph-name="uni2126" unicode="&#x2126;" horiz-adv-x="768" d="M326 0 L308 155 C230 199 180 288 180 382 C180 434 195 493 221 540 C257 605 317 642 385 642 C453 642 513 605 549 540 C575 493 590 434 590 382 C590 288 540 199 462 155 L444 0 L736 0 L736 153 L712 153 C704 108 684 90 643 90 L497 90 L500 128 C535 141 557 151 580 166 C657 215 702 296 702 382 C702 449 673 522 625 578 C564 648 480 686 385 686 C290 686 206 648 145 578 C97 522 68 449 68 382 C68 296 113 215 190 166 C213 151 235 141 270 128 L273 90 L127 90 C86 90 66 108 58 153 L34 153 L34 0 L326 0 Z " />
<glyph glyph-name="partialdiff" unicode="&#x2202;" horiz-adv-x="494" d="M107 674 C152 697 184 706 219 706 C321 706 379 611 379 447 C379 418 377 394 372 346 C308 396 272 412 221 412 C172 412 131 394 95 355 C51 309 26 246 26 184 C26 76 109 -10 213 -10 C282 -10 341 22 383 84 C429 152 462 286 462 403 C462 519 428 611 360 681 C312 730 259 753 195 753 C155 753 122 746 66 725 L107 674 Z M366 312 C350 201 340 158 314 107 C288 54 245 21 201 21 C146 21 113 73 113 159 C113 273 180 367 261 367 C299 367 324 354 366 312 L366 312 Z " />
<glyph glyph-name="Delta" unicode="&#x2206;" horiz-adv-x="612" d="M6 0 L608 0 L327 688 L6 0 Z M77 51 L290 509 L479 51 L77 51 Z " />
<glyph glyph-name="product" unicode="&#x220f;" horiz-adv-x="823" d="M25 -124 L315 -124 L315 -98 L312 -98 C242 -94 221 -67 224 18 L224 594 C224 656 228 677 242 690 C260 707 272 708 413 708 C556 708 568 707 586 690 C600 677 604 656 604 594 L604 18 C607 -67 586 -94 516 -98 L513 -98 L513 -124 L803 -124 L803 -98 L800 -98 C730 -94 709 -67 712 18 L712 609 C709 694 730 721 800 725 L803 725 L803 751 L25 751 L25 725 L28 725 C98 721 119 694 116 609 L116 18 C119 -67 98 -94 28 -98 L25 -98 L25 -124 Z " />
<glyph glyph-name="summation" unicode="&#x2211;" horiz-adv-x="713" d="M176 711 L444 711 C560 710 590 688 606 587 L632 587 L622 752 L23 752 L256 285 L14 -123 L641 -123 L695 87 L669 87 C639 7 605 -12 491 -11 L163 -11 L364 341 L176 711 Z " />
<glyph glyph-name="minus" unicode="&#x2212;" horiz-adv-x="654" d="M81 366 L81 263 L574 263 L574 366 L81 366 Z " />
<glyph glyph-name="uni2215" unicode="&#x2215;" horiz-adv-x="180" d="M-180 -17 L-88 -17 L366 622 L273 622 L-180 -17 Z " />
<glyph glyph-name="uni2219" unicode="&#x2219;" horiz-adv-x="344" d="M174 313 C126 313 87 278 87 236 C87 191 125 156 175 156 C223 156 261 191 261 235 C261 278 222 313 174 313 L174 313 Z " />
<glyph glyph-name="radical" unicode="&#x221a;" horiz-adv-x="549" d="M363 -35 L515 908 L480 913 L353 123 L156 520 L10 449 L26 414 L121 461 L363 -35 Z " />
<glyph glyph-name="infinity" unicode="&#x221e;" horiz-adv-x="713" d="M357 227 C415 156 485 115 548 115 C631 115 688 176 688 266 C688 354 629 414 543 414 C476 414 412 376 357 303 C300 375 234 414 171 414 C86 414 26 351 26 263 C26 176 84 115 167 115 C224 115 281 142 327 192 L357 227 Z M391 264 C434 325 493 362 546 362 C600 362 638 321 638 264 C638 205 603 167 549 167 C495 167 461 188 391 264 L391 264 Z M324 266 C275 203 216 167 163 167 C111 167 76 207 76 266 C76 323 113 362 167 362 C218 362 258 337 324 266 L324 266 Z " />
<glyph glyph-name="integral" unicode="&#x222b;" horiz-adv-x="274" d="M180 576 C180 653 179 691 176 746 C174 774 173 800 173 815 C173 855 184 878 202 878 C208 878 213 876 215 872 C232 845 239 839 256 839 C276 839 291 853 291 871 C291 898 267 916 231 916 C186 916 152 887 138 838 C123 784 113 682 113 577 L113 232 C113 160 114 124 117 63 C119 34 120 4 120 -12 C120 -47 108 -70 89 -70 C81 -70 74 -65 68 -52 C59 -35 51 -30 37 -30 C17 -30 2 -44 2 -63 C2 -89 26 -107 62 -107 C107 -107 141 -78 155 -29 C170 25 180 126 180 232 L180 576 Z " />
<glyph glyph-name="approxequal" unicode="&#x2248;" horiz-adv-x="549" d="M489 251 C444 199 423 187 384 187 C365 187 354 190 285 211 C212 234 188 239 160 239 C101 239 54 211 14 155 L57 121 C103 174 120 184 159 184 C180 184 180 184 271 157 C350 133 354 132 385 132 C449 132 496 160 527 217 L489 251 Z M489 408 C444 356 423 344 384 344 C365 344 354 347 285 368 C212 391 188 396 160 396 C101 396 54 369 14 312 L57 278 C103 331 120 341 159 341 C180 341 180 341 271 314 C350 290 354 289 385 289 C449 289 496 318 527 375 L489 408 Z " />
<glyph glyph-name="notequal" unicode="&#x2260;" horiz-adv-x="549" d="M187 142 L115 -1 L161 -25 L246 142 L540 142 L540 197 L273 197 L344 336 L540 336 L540 391 L371 391 L439 525 L392 549 L312 391 L15 391 L15 336 L285 336 L215 197 L15 197 L15 142 L187 142 Z " />
<glyph glyph-name="lessequal" unicode="&#x2264;" horiz-adv-x="549" d="M526 55 L29 55 L29 0 L526 0 L526 55 Z M526 639 L29 405 L29 350 L526 117 L526 179 L108 378 L526 577 L526 639 Z " />
<glyph glyph-name="greaterequal" unicode="&#x2265;" horiz-adv-x="549" d="M526 55 L29 55 L29 0 L526 0 L526 55 Z M29 639 L29 577 L447 378 L29 179 L29 117 L526 350 L526 405 L29 639 Z " />
<glyph glyph-name="lozenge" unicode="&#x25ca;" horiz-adv-x="494" d="M209 0 L269 -1 L466 374 L277 740 L214 740 L18 377 L209 0 Z M240 58 L81 376 L245 683 L402 373 L240 58 Z " />
<glyph glyph-name="fi" unicode="&#xfb01;" horiz-adv-x="743" d="M349 74 L328 74 C274 76 267 84 267 133 L267 389 L417 389 C471 389 480 380 481 330 L481 133 C480 83 471 74 417 74 L399 74 L399 0 L717 0 L717 74 L684 74 C630 76 623 84 623 133 L623 469 L267 469 L267 528 C267 559 277 581 296 595 C319 611 356 620 396 620 C424 620 441 617 476 607 C455 591 449 580 449 562 C449 527 481 502 525 502 C573 502 605 530 605 573 C605 642 522 684 386 684 C293 684 213 661 169 623 C140 598 124 557 124 507 L124 469 L27 469 L27 389 L124 389 L124 133 C123 83 115 76 62 74 L27 74 L27 0 L349 0 L349 74 Z " />
<glyph glyph-name="fl" unicode="&#xfb02;" horiz-adv-x="743" d="M349 74 L328 74 C274 76 267 84 267 133 L267 389 L400 389 L400 469 L267 469 L267 528 C267 559 277 581 296 595 C319 611 356 620 395 620 C424 620 440 617 475 607 C455 591 448 580 448 563 C448 542 456 530 480 515 L480 133 C479 83 471 76 417 74 L398 74 L398 0 L717 0 L717 74 L683 74 C629 76 622 84 622 133 L622 667 L519 667 C457 681 427 685 381 685 C290 685 215 663 170 624 C140 597 124 557 124 507 L124 469 L27 469 L27 389 L124 389 L124 133 C123 83 115 76 61 74 L27 74 L27 0 L349 0 L349 74 Z " />
</font>
</svg>
