<?xml version="1.0" standalone="no"?>
<!DOCTYPE svg PUBLIC "-//W3C//DTD SVG 1.1//EN" "http://www.w3.org/Graphics/SVG/1.1/DTD/svg11.dtd" >
<svg xmlns="http://www.w3.org/2000/svg">
<metadata>
Created by FontPrep 20130207 at Fri May 26 16:01:19 2017
 By Lizzy Knight
Copyright 2016 by URW++ Design &#38; Development GmbH
</metadata>
<defs>
<font id="5dbe24290d0b254485bb3f4a2c6d3622" horiz-adv-x='1024' >
  <font-face 
    font-family="URWDINCond-XLightItalic"
    font-weight="250"
    font-style="italic"
    font-stretch="normal"
    units-per-em="2048"
    panose-1="0 0 4 0 0 0 0 0 0 0"
    ascent="1462"
    descent="-586"
    x-height="1012"
    cap-height="1462"
    bbox="-293 -494 1632 2056"
    underline-thickness="73"
    underline-position="-232"
    slope="-10"
    unicode-range="U+0020-FB04"
  />
<missing-glyph horiz-adv-x="327" 
 />
    <glyph glyph-name="ff" unicode="ff" horiz-adv-x="849" 
d="M645 934h-80l13 78h81l39 221q23 137 68 184t147 45h56l-13 -71h-28q-70 2 -97 -32t-49 -151l-34 -196h143l-14 -78h-144l-164 -934h-90zM231 934h-81l14 78h82l39 221q23 137 67 184q45 47 150 45h53l-12 -71h-27q-72 2 -98 -32t-49 -151l-35 -196h137l-14 -78h-138
l-163 -934h-88z" />
    <glyph glyph-name="fi" unicode="fi" horiz-adv-x="792" 
d="M477 0l178 1012h88l-178 -1012h-88zM702 1280l33 182h88l-32 -182h-89zM231 934h-81l14 78h82l39 221q23 137 67 184q45 47 150 45h55l-12 -71h-29q-72 2 -98 -32t-49 -151l-35 -196h145l-14 -78h-146l-163 -934h-88z" />
    <glyph glyph-name="fl" unicode="fl" horiz-adv-x="831" 
d="M674 0q-168 0 -168 126q0 62 14 142l211 1194h88l-213 -1206q-10 -53 -10 -96q0 -44 20 -62t74 -18h25l-13 -80h-28zM231 934h-81l14 78h82l39 221q23 137 67 184q45 47 150 45h55l-12 -71h-29q-72 2 -98 -32t-49 -151l-35 -196h145l-14 -78h-146l-163 -934h-88z" />
    <glyph glyph-name="ffi" unicode="ffi" horiz-adv-x="1204" 
d="M645 934h-80l13 78h81l39 221q23 137 68 184t147 45h56l-13 -71h-28q-70 2 -97 -32t-49 -151l-34 -196h143l-14 -78h-144l-164 -934h-90zM889 0l180 1012h88l-180 -1012h-88zM1116 1280l31 182h88l-31 -182h-88zM231 934h-81l14 78h82l39 221q23 137 67 184q45 47 150 45
h53l-12 -71h-27q-72 2 -98 -32t-49 -151l-35 -196h137l-14 -78h-138l-163 -934h-88z" />
    <glyph glyph-name="ffl" unicode="ffl" horiz-adv-x="1245" 
d="M645 934h-80l13 78h81l39 221q23 137 68 184t147 45h56l-13 -71h-28q-70 2 -97 -32t-49 -151l-34 -196h143l-14 -78h-144l-164 -934h-90zM1010 159q0 -43 20 -61t74 -18h24l-14 -80h-27q-90 0 -129 32q-38 32 -38 98t14 138l209 1194h90l-213 -1206q-10 -55 -10 -97z
M231 934h-81l14 78h82l39 221q23 137 67 184q45 47 150 45h53l-12 -71h-27q-72 2 -98 -32t-49 -151l-35 -196h137l-14 -78h-138l-163 -934h-88z" />
    <glyph glyph-name=".notdef" horiz-adv-x="327" 
 />
    <glyph glyph-name=".null" horiz-adv-x="0" 
 />
    <glyph glyph-name="nonmarkingreturn" horiz-adv-x="681" 
 />
    <glyph glyph-name="space" unicode=" " horiz-adv-x="327" 
 />
    <glyph glyph-name="exclam" unicode="!" horiz-adv-x="385" 
d="M61 0l29 158h88l-28 -158h-89zM133 371l180 1091h99l-205 -1091h-74z" />
    <glyph glyph-name="quotedbl" unicode="&#x22;" horiz-adv-x="477" 
d="M401 965l82 497h90l-94 -497h-78zM160 965l82 497h90l-94 -497h-78z" />
    <glyph glyph-name="numbersign" unicode="#" 
d="M342 580h184l72 268h-186zM266 580l70 268h-211l22 72h209l99 378h75l-98 -378h184l101 378h76l-101 -378h213l-22 -72h-209l-72 -268h211l-22 -72h-207l-107 -402h-76l107 402h-184l-107 -402h-76l105 402h-213l22 72h211z" />
    <glyph glyph-name="dollar" unicode="$" 
d="M373 96q141 0 207 152q49 114 49 224t-37 161q-18 27 -36 38t-103 50q-197 86 -197 294t100 331q78 94 203 96l37 217h90l-41 -225q176 -47 176 -230q0 -37 -14 -108h-84q8 68 8 100q0 82 -41 125t-119 43q-117 0 -174 -113q-51 -91 -51 -197t37 -159t121 -91t116 -61
q99 -71 99 -231q0 -217 -94 -362q-74 -115 -228 -130l-51 -288h-90l51 291q-207 35 -207 231q1 47 17 147h84q-10 -80 -11 -125q0 -180 183 -180z" />
    <glyph glyph-name="percent" unicode="%" horiz-adv-x="1110" 
d="M283 0l542 1462h84l-542 -1462h-84zM985 582q0 100 -90 100q-57 0 -89 -42t-48 -142l-45 -250q-8 -47 -8 -86q0 -100 90 -101q57 1 88 43t49 144l43 250q10 55 10 84zM1071 592q0 -31 -10 -94l-45 -252q-25 -136 -79 -196t-153 -60q-164 0 -163 168q0 43 10 104l45 252
q23 129 74 184t147 56q174 0 174 -162zM489 1309q0 98 -90 98q-57 0 -88 -42t-49 -144l-45 -250q-8 -47 -8 -86q0 -98 90 -99q57 0 88 42t49 143l45 250q8 47 8 88zM575 1317q0 -39 -10 -94l-45 -252q-23 -133 -78 -195t-153 -61q-164 0 -164 168q0 34 12 102l43 252
q23 131 74 186t147 56q174 0 174 -162z" />
    <glyph glyph-name="ampersand" unicode="&#x26;" horiz-adv-x="1040" 
d="M621 227l-146 482q-98 -78 -130 -108t-64 -77q-101 -143 -101 -325t137 -183q104 0 209 99q34 32 95 112zM473 1135q0 -123 51 -293q233 195 234 448q0 141 -115 142q-76 0 -123 -87t-47 -210zM383 1098q0 195 72 301q72 111 179 111q214 -1 214 -226q0 -289 -295 -520
l131 -442q96 178 141 323h88q-86 -246 -192 -420l72 -225h-101l-39 137q-94 -109 -173 -155t-178 -45q-99 0 -157 65q-57 66 -57 184q0 221 123 385q41 57 76 88t162 127q-66 218 -66 312z" />
    <glyph glyph-name="quotesingle" unicode="'" horiz-adv-x="235" 
d="M160 965l82 497h90l-94 -497h-78z" />
    <glyph glyph-name="parenleft" unicode="(" horiz-adv-x="557" 
d="M184 276q0 320 116 726t284 647l57 -41q-162 -260 -263 -652t-102 -745q1 -242 46 -418l-70 -31q-68 194 -68 514z" />
    <glyph glyph-name="parenright" unicode=")" horiz-adv-x="557" 
d="M350 1204q0 238 -45 414l72 31q66 -201 65 -478q0 -356 -114 -760t-283 -649l-57 41q160 263 261 653t101 748z" />
    <glyph glyph-name="asterisk" unicode="*" 
d="M551 1128l-203 -266l-76 64l228 256l-267 125l48 84l251 -150l46 326l96 -19l-68 -319l287 53l16 -94l-295 -27l127 -319l-92 -33z" />
    <glyph glyph-name="plus" unicode="+" 
d="M162 717l14 78h266l60 329h76l-58 -329h266l-14 -78h-266l-60 -332h-75l59 332h-268z" />
    <glyph glyph-name="comma" unicode="," horiz-adv-x="352" 
d="M-80 -385l156 543h98l-180 -543h-74z" />
    <glyph glyph-name="hyphen" unicode="-" horiz-adv-x="608" 
d="M168 715l14 80h350l-14 -80h-350z" />
    <glyph glyph-name="period" unicode="." horiz-adv-x="356" 
d="M45 0l29 158h90l-29 -158h-90z" />
    <glyph glyph-name="slash" unicode="/" horiz-adv-x="520" 
d="M-31 -47l578 1556h88l-578 -1556h-88z" />
    <glyph glyph-name="zero" unicode="0" 
d="M568 1399q-96 0 -159 -84q-62 -84 -98 -273l-110 -622q-15 -86 -15 -169t45 -135t141 -52t160 84q62 84 95 272l110 622q16 102 17 158q0 199 -186 199zM570 1479q138 0 206 -70t68 -201q0 -57 -19 -170l-114 -647q-69 -407 -341 -407q-274 1 -274 270q1 78 17 170
l114 647q35 207 113 297q92 111 230 111z" />
    <glyph glyph-name="one" unicode="1" 
d="M315 0l240 1360l-197 -109l-34 66l274 145h66l-258 -1462h-91z" />
    <glyph glyph-name="two" unicode="2" 
d="M707 1231q0 168 -154 168q-97 0 -155 -73t-87 -234h-84q29 172 70 237q90 150 260 150q113 0 177 -67t65 -185q1 -175 -69 -321t-251 -382l-342 -444h465l-14 -80h-576l13 63l399 523q152 198 218 348t65 297z" />
    <glyph glyph-name="three" unicode="3" 
d="M549 1479q250 1 250 -281q0 -144 -65 -264t-177 -164q143 -70 143 -282t-92 -353q-96 -152 -280 -151q-131 0 -202 66t-71 192q0 63 19 153h84q-12 -82 -13 -141q0 -190 183 -191q152 0 221 144q59 119 59 289q0 106 -52 171t-138 64h-105l15 78h98q119 0 200 116t81 285
q0 188 -164 189q-99 0 -155 -69t-89 -234h-84q27 164 72 235q90 147 262 148z" />
    <glyph glyph-name="four" unicode="4" 
d="M463 0l51 283h-446l10 59l551 1120h94l-541 -1100h346l88 506h86l-88 -506h113l-14 -81h-113l-51 -281h-86z" />
    <glyph glyph-name="five" unicode="5" 
d="M496 887q236 0 235 -264q-1 -103 -27 -237t-63 -212q-92 -190 -301 -190q-131 0 -202 63t-70 184q0 63 18 164h84q-12 -82 -12 -141q0 -190 182 -191q88 1 145 49t95 154q57 176 57 357q0 96 -38 141t-131 45t-198 -96l-61 12l172 737h477l-14 -80h-402l-129 -563
q82 68 183 68z" />
    <glyph glyph-name="six" unicode="6" 
d="M496 809q-139 0 -209 -147q-35 -74 -64 -205t-29 -216t43 -132q42 -47 119 -48q184 0 238 230q51 229 51 327q0 192 -149 191zM512 885q106 0 164 -65t59 -179q0 -166 -61 -385q-76 -272 -318 -272q-116 0 -184 68t-68 163q0 96 22 211t48 191t98 198l367 647h100
l-344 -610q57 33 117 33z" />
    <glyph glyph-name="seven" unicode="7" 
d="M139 0l611 1382h-463l14 80h557l-10 -55l-602 -1407h-107z" />
    <glyph glyph-name="eight" unicode="8" 
d="M475 731q-168 0 -229 -141q-28 -68 -50 -176t-22 -187q0 -78 48 -122t138 -44q156 0 213 129q29 62 53 176t24 194t-46 126q-45 45 -129 45zM584 1403q-150 0 -201 -135q-19 -56 -37 -156t-18 -166t40 -104t115 -37q156 0 207 145q20 60 38 154t17 158q1 64 -41 103
q-42 38 -120 38zM582 1479q120 -1 186 -59t66 -165q0 -164 -62 -329q-41 -109 -156 -154q123 -49 123 -211q-1 -106 -27 -230t-65 -194q-84 -154 -287 -153q-132 0 -204 63t-72 167t26 223q26 118 60 192q51 106 170 145q-55 29 -78 70q-44 78 -1 299q22 109 50 172
q74 164 271 164z" />
    <glyph glyph-name="nine" unicode="9" 
d="M580 1401q-145 0 -201 -129q-29 -62 -53 -188t-25 -204q0 -78 41 -121q41 -44 115 -44q152 0 217 162q31 74 52 177q22 103 22 180t-44 122t-124 45zM416 639q-88 0 -147 63q-58 62 -58 164t27 238q28 136 62 210q34 75 109 120t185 45t176 -65q68 -65 68 -198t-58 -309
q-25 -74 -98 -202l-406 -705h-100l389 680q-61 -41 -149 -41z" />
    <glyph glyph-name="colon" unicode=":" horiz-adv-x="356" 
d="M195 854l28 158h90l-28 -158h-90zM45 0l29 158h90l-29 -158h-90z" />
    <glyph glyph-name="semicolon" unicode=";" horiz-adv-x="354" 
d="M201 854l28 158h90l-28 -158h-90zM-80 -385l156 543h98l-180 -543h-74z" />
    <glyph glyph-name="less" unicode="&#x3c;" 
d="M252 752l416 -293l-17 -84l-499 362l6 39l628 363l-16 -92z" />
    <glyph glyph-name="equal" unicode="=" 
d="M199 831l14 76h578l-15 -76h-577zM160 604l14 78h576l-13 -78h-577z" />
    <glyph glyph-name="greater" unicode="&#x3e;" 
d="M696 762l-413 293l14 84l500 -363l-6 -39l-629 -362l16 94z" />
    <glyph glyph-name="question" unicode="?" horiz-adv-x="745" 
d="M231 0l27 158h90l-29 -158h-88zM678 1227q0 172 -156 172q-94 0 -148 -73t-83 -234h-84q27 158 67 235q80 152 254 152q116 1 180 -63t64 -181q0 -170 -72 -309q-35 -70 -137 -189q-90 -96 -125 -155t-49 -146l-12 -65h-74l14 78q16 106 55 178q38 72 130 174
q94 109 129 186q47 111 47 240z" />
    <glyph glyph-name="at" unicode="@" horiz-adv-x="1239" 
d="M748 1026q-94 0 -179 -176q-102 -219 -102 -397q0 -47 18 -76t50 -29q104 0 194 204q91 204 91 339t-72 135zM852 352q195 0 285 403q33 146 32 265q0 176 -88 285q-90 109 -270 109t-301 -86t-201 -242t-126 -358t-46 -334q0 -253 111 -355q90 -84 284 -84q102 0 174 19
t171 75l28 -61q-104 -59 -186 -83t-187 -24q-240 0 -356 113q-57 53 -90 150t-33 206q1 210 61 442t150 377q199 317 531 318q217 0 338 -123t120 -342q0 -162 -45 -328t-116 -262q-117 -154 -258 -153q-111 0 -111 108q0 25 4 45q-57 -90 -101 -125t-106 -35
q-137 0 -137 179q0 92 34 215t87 225q109 209 250 209q59 0 88 -36t32 -118l41 131h62l-160 -526q-62 -199 35 -199z" />
    <glyph glyph-name="A" unicode="A" horiz-adv-x="776" 
d="M565 426l-30 885l-345 -885h375zM567 346h-407l-133 -346h-99l592 1462h76l80 -1462h-96z" />
    <glyph glyph-name="B" unicode="B" horiz-adv-x="880" 
d="M354 80q82 0 130 22t83 74q92 137 92 326q0 115 -39 165q-40 50 -135 50h-200l-113 -637h182zM492 797q117 0 182 92q88 123 88 289q0 112 -44 158t-151 46h-166l-102 -585h193zM553 1462q173 0 237 -68t64 -210q0 -143 -60 -261t-155 -163q61 -33 87 -91t26 -161
q0 -227 -113 -389q-47 -67 -109 -93t-163 -26h-299l258 1462h227z" />
    <glyph glyph-name="C" unicode="C" horiz-adv-x="845" 
d="M348 -16q-244 0 -246 254q0 61 19 176l117 667q37 205 108 293q88 104 222 104t202 -64q68 -65 68 -179q0 -51 -17 -143h-84q10 76 11 125q0 182 -166 182q-106 0 -164 -77t-92 -259l-117 -666q-16 -84 -16 -147q0 -186 159 -187q114 0 178 78t95 256h86
q-27 -156 -68 -237q-92 -176 -295 -176z" />
    <glyph glyph-name="D" unicode="D" horiz-adv-x="901" 
d="M788 1186q0 197 -202 196h-185l-229 -1302h184q252 -4 303 328l115 647q14 80 14 131zM588 1462q293 0 293 -268q0 -47 -17 -141l-121 -678q-29 -185 -126 -281t-255 -94h-294l258 1462h262z" />
    <glyph glyph-name="E" unicode="E" horiz-adv-x="768" 
d="M70 0l258 1462h522l-12 -80h-435l-106 -602h371l-15 -80h-370l-109 -620h432l-14 -80h-522z" />
    <glyph glyph-name="F" unicode="F" horiz-adv-x="716" 
d="M70 0l258 1462h518l-15 -80h-428l-108 -614h367l-15 -80h-366l-121 -688h-90z" />
    <glyph glyph-name="G" unicode="G" horiz-adv-x="872" 
d="M102 246q0 70 19 170l117 665q37 205 110 293q92 104 228 104t204 -62t68 -175q0 -57 -17 -149h-83q10 72 10 120q0 186 -174 187q-106 0 -166 -79t-92 -257l-119 -664q-14 -84 -14 -141q0 -195 176 -195q227 0 284 338l47 261h-196l12 77h287l-60 -340
q-37 -207 -116 -301q-101 -114 -245 -114q-280 0 -280 262z" />
    <glyph glyph-name="H" unicode="H" horiz-adv-x="905" 
d="M70 0l258 1462h90l-121 -682h410l120 682h91l-259 -1462h-90l123 700h-409l-123 -700h-90z" />
    <glyph glyph-name="I" unicode="I" horiz-adv-x="405" 
d="M70 0l258 1462h90l-258 -1462h-90z" />
    <glyph glyph-name="J" unicode="J" horiz-adv-x="577" 
d="M112 -14q-144 0 -212 108l67 56q59 -84 135 -84q111 0 168 120q23 55 54 224l186 1052h90l-188 -1063q-25 -145 -38 -194t-40 -92q-78 -127 -222 -127z" />
    <glyph glyph-name="K" unicode="K" horiz-adv-x="817" 
d="M70 0l258 1462h90l-146 -823l564 823h98l-424 -610l201 -852h-93l-176 766l-198 -291l-84 -475h-90z" />
    <glyph glyph-name="L" unicode="L" horiz-adv-x="724" 
d="M68 0l258 1462h90l-244 -1382h449l-15 -80h-538z" />
    <glyph glyph-name="M" unicode="M" horiz-adv-x="1077" 
d="M70 0l258 1462h92l110 -1001l465 1001h95l-259 -1462h-88l218 1227l-435 -940h-49l-102 940l-217 -1227h-88z" />
    <glyph glyph-name="N" unicode="N" horiz-adv-x="958" 
d="M70 0l258 1462h88l248 -1249l221 1249h86l-258 -1462h-86l-248 1251l-221 -1251h-88z" />
    <glyph glyph-name="O" unicode="O" horiz-adv-x="899" 
d="M786 1216q0 76 -50 130t-138 53q-127 0 -197 -105q-49 -68 -77 -235l-117 -656q-14 -84 -14 -137q1 -202 203 -202q102 0 165 78q63 79 96 261l115 656q14 81 14 157zM584 1479q146 0 220 -71q73 -71 73 -204q0 -66 -15 -151l-121 -678q-20 -113 -43 -172t-65 -111
q-89 -108 -237 -108t-221 70t-73 202q1 62 17 154l119 677q20 115 43 173t67 110q90 109 236 109z" />
    <glyph glyph-name="P" unicode="P" horiz-adv-x="815" 
d="M410 680q94 0 149 28t100 99q90 147 91 352q0 119 -50 171t-163 52h-134l-124 -702h131zM537 1462q161 0 233 -72t72 -204q0 -269 -111 -432q-53 -82 -126 -118t-187 -36h-152l-106 -600h-90l258 1462h209z" />
    <glyph glyph-name="Q" unicode="Q" horiz-adv-x="899" 
d="M786 1216q0 76 -50 130t-138 53q-127 0 -197 -105q-49 -68 -77 -235l-117 -656q-14 -81 -14 -157t50 -129t145 -53t167 73l-154 193l64 49l137 -172q33 72 55 196l115 656q14 81 14 157zM383 -16q-135 0 -208 70t-73 202q0 61 17 154l119 677q20 115 43 173t67 110
q90 109 236 109t220 -71q73 -71 73 -204q0 -66 -15 -151l-121 -678q-27 -158 -79 -246l86 -109l-64 -49l-74 97q-92 -84 -227 -84z" />
    <glyph glyph-name="R" unicode="R" horiz-adv-x="862" 
d="M426 743q96 0 150 26t98 89q86 129 86 316q0 108 -49 158t-168 50h-140l-112 -639h135zM545 1462q173 0 241 -72t68 -196q0 -122 -33 -230t-93 -183t-163 -101l97 -680h-99l-86 666h-201l-116 -666h-90l258 1462h217z" />
    <glyph glyph-name="S" unicode="S" horiz-adv-x="784" 
d="M207 1032q0 172 84 309t239 138q117 0 184 -67t66 -181q0 -51 -16 -139h-86q12 63 12 116q0 190 -160 191q-117 0 -178 -125q-53 -102 -53 -210t37 -164q38 -56 144 -110t143 -102q53 -72 53 -226t-74 -298q-92 -180 -285 -180q-123 0 -195 68t-73 179q1 55 19 166h84
q-14 -87 -14 -161t46 -123q47 -49 133 -50q147 0 215 160q52 117 52 233t-39 171q-27 35 -136 89t-156 128q-46 74 -46 188z" />
    <glyph glyph-name="T" unicode="T" horiz-adv-x="657" 
d="M197 0l243 1382h-250l15 80h588l-15 -80h-248l-243 -1382h-90z" />
    <glyph glyph-name="U" unicode="U" horiz-adv-x="917" 
d="M207 236q0 -172 180 -173q137 0 205 113q37 57 59 193l195 1093h90l-197 -1110q-19 -110 -37 -158t-55 -96q-92 -115 -264 -114q-127 0 -197 62t-69 177q0 66 18 162l189 1077h90l-193 -1093q-14 -84 -14 -133z" />
    <glyph glyph-name="V" unicode="V" horiz-adv-x="770" 
d="M260 0l-45 1462h88l27 -1265l471 1265h92l-559 -1462h-74z" />
    <glyph glyph-name="W" unicode="W" horiz-adv-x="1169" 
d="M178 0l60 1462h88l-64 -1231l457 1231h61l23 -1231l373 1231h88l-455 -1462h-74l-24 1231l-457 -1231h-76z" />
    <glyph glyph-name="X" unicode="X" horiz-adv-x="751" 
d="M375 774l-127 688h90l108 -604l306 604h98l-379 -719l137 -743h-90l-119 659l-333 -659h-97z" />
    <glyph glyph-name="Y" unicode="Y" horiz-adv-x="729" 
d="M231 0l97 553l-133 909h90l108 -780l385 780h94l-454 -909l-96 -553h-91z" />
    <glyph glyph-name="Z" unicode="Z" horiz-adv-x="712" 
d="M-14 0l10 53l668 1329h-408l14 80h508l-10 -53l-668 -1329h453l-14 -80h-553z" />
    <glyph glyph-name="bracketleft" unicode="[" horiz-adv-x="557" 
d="M92 -201l320 1813h231l-14 -76h-142l-292 -1661h141l-12 -76h-232z" />
    <glyph glyph-name="backslash" unicode="\" horiz-adv-x="520" 
d="M356 -47h-88l-28 1556h88z" />
    <glyph glyph-name="bracketright" unicode="]" horiz-adv-x="557" 
d="M539 1612l-320 -1813h-231l12 76h143l293 1661h-141l12 76h232z" />
    <glyph glyph-name="asciicircum" unicode="^" 
d="M580 1350l-289 -559h-101l388 684h47l145 -684h-96z" />
    <glyph glyph-name="underscore" unicode="_" horiz-adv-x="598" 
d="M-180 -344l12 74h662l-13 -74h-661z" />
    <glyph glyph-name="grave" unicode="`" horiz-adv-x="1024" 
d="M694 1194h-61l-92 274h102z" />
    <glyph glyph-name="a" unicode="a" horiz-adv-x="716" 
d="M350 496q-241 0 -241 -310q1 -66 35 -96t120 -29t129 49t68 183l35 203h-146zM422 948q-84 0 -131 -58t-70 -190h-82q25 147 72 218q74 111 215 110q205 0 205 -209q0 -61 -19 -164l-114 -655h-72l4 63q-35 -45 -76 -62t-114 -17q-222 0 -222 185t77 293t255 109h160
l18 107q14 80 15 133q0 137 -121 137z" />
    <glyph glyph-name="b" unicode="b" horiz-adv-x="763" 
d="M598 782q0 166 -121 166q-176 0 -244 -375l-22 -135q-20 -111 -21 -174q0 -201 127 -201q162 0 213 289l54 293q14 88 14 137zM688 801q0 -57 -22 -189l-50 -272q-34 -182 -104 -269t-198 -87t-173 122l-26 -106h-70l258 1462h88l-96 -544q74 111 190 110q203 0 203 -227
z" />
    <glyph glyph-name="c" unicode="c" horiz-adv-x="698" 
d="M76 205q0 74 18 172l51 293q31 182 99 271t179 89t165 -56t55 -157q0 -35 -12 -119h-82q8 72 8 109q0 145 -121 145q-82 0 -129 -70t-76 -225l-53 -303q-14 -82 -14 -141q0 -152 119 -152q109 0 161 107q30 55 48 168h81q-27 -176 -71 -242q-76 -111 -223 -110
q-203 0 -203 221z" />
    <glyph glyph-name="d" unicode="d" horiz-adv-x="763" 
d="M166 233q0 -170 123 -170q172 0 239 375l25 135q18 106 18 175q0 201 -131 200q-158 1 -207 -282l-55 -310q-12 -76 -12 -123zM78 221q0 68 14 152l55 307q31 180 102 264t195 84t170 -110l95 544h88l-256 -1462h-72l10 102q-76 -119 -198 -118q-203 0 -203 237z" />
    <glyph glyph-name="e" unicode="e" horiz-adv-x="727" 
d="M215 578h330q31 164 30 223q0 150 -129 149q-88 0 -137 -63t-76 -213zM162 209q0 -147 131 -148q88 1 138 61t75 200h82q-27 -158 -68 -222q-72 -117 -231 -116q-104 0 -160 58q-55 58 -55 167q0 59 18 164l51 299q33 186 95 262q82 94 197 94q225 0 227 -221
q0 -53 -44 -307h-415l-29 -160q-12 -61 -12 -131z" />
    <glyph glyph-name="f" unicode="f" horiz-adv-x="438" 
d="M231 934h-81l14 78h82l39 221q23 137 67 184q45 47 150 45h55l-12 -71h-29q-72 2 -98 -32t-49 -151l-35 -196h145l-14 -78h-146l-163 -934h-88z" />
    <glyph glyph-name="g" unicode="g" horiz-adv-x="763" 
d="M166 231q0 -168 123 -168q174 0 237 375l25 135q18 106 18 175q0 201 -131 200q-158 1 -207 -282l-55 -314q-10 -55 -10 -121zM217 -475q-203 0 -205 172q0 49 15 119h79q-8 -59 -8 -88q0 -125 121 -125q88 0 135 62t74 212l37 211q-72 -104 -189 -104q-201 0 -200 237
q0 72 16 152l53 307q33 180 103 264t194 84t174 -113l29 97h72l-203 -1143q-32 -186 -100 -265t-197 -79z" />
    <glyph glyph-name="h" unicode="h" horiz-adv-x="765" 
d="M496 1028q90 0 139 -51t49 -128t-20 -204l-115 -645h-88l117 657q16 100 16 146q0 145 -115 145q-94 0 -149 -84t-90 -272l-105 -592h-88l258 1462h88l-94 -532q78 98 197 98z" />
    <glyph glyph-name="i" unicode="i" horiz-adv-x="364" 
d="M49 0l178 1012h88l-178 -1012h-88zM274 1280l33 182h88l-33 -182h-88z" />
    <glyph glyph-name="j" unicode="j" horiz-adv-x="370" 
d="M279 1280l32 182h88l-30 -182h-90zM231 1012h88l-190 -1084q-33 -219 -105 -312t-210 -87l14 80q84 -7 135 69t78 248z" />
    <glyph glyph-name="k" unicode="k" horiz-adv-x="727" 
d="M49 0l258 1462h88l-188 -1069l407 619h99l-295 -428l139 -584h-92l-109 502l-176 -262l-43 -240h-88z" />
    <glyph glyph-name="l" unicode="l" horiz-adv-x="405" 
d="M248 0q-168 0 -168 126q0 62 14 142l211 1194h88l-213 -1206q-10 -53 -10 -96q0 -44 20 -62t74 -18h25l-13 -80h-28z" />
    <glyph glyph-name="m" unicode="m" horiz-adv-x="1130" 
d="M483 1028q152 0 174 -131q82 131 217 131q84 0 130 -50t47 -126q0 -76 -23 -207l-115 -645h-88l117 655q18 111 19 156q0 137 -105 137q-166 0 -225 -346l-107 -602h-88l117 655q16 98 16 158q0 135 -102 135q-88 0 -140 -84t-87 -272l-105 -592h-88l178 1012h70
l-12 -101q47 65 91 91t109 26z" />
    <glyph glyph-name="n" unicode="n" horiz-adv-x="765" 
d="M506 1028q80 0 129 -51t49 -128t-20 -204l-115 -645h-88l117 655q16 104 16 150q0 143 -115 143q-94 0 -149 -84t-90 -272l-105 -592h-88l178 1012h70l-12 -101q47 63 95 90t128 27z" />
    <glyph glyph-name="o" unicode="o" horiz-adv-x="747" 
d="M162 213q0 -152 133 -152q92 1 143 65t78 216l57 328q14 84 15 129q0 152 -133 151q-94 0 -145 -64q-50 -65 -77 -216l-59 -328q-12 -86 -12 -129zM455 1028q221 0 221 -225q0 -51 -19 -160l-55 -309q-31 -182 -94 -258q-80 -92 -201 -92q-233 0 -233 223q0 64 18 162
l53 309q33 186 97 258q80 92 213 92z" />
    <glyph glyph-name="p" unicode="p" horiz-adv-x="763" 
d="M600 780q0 168 -125 168q-172 0 -239 -375l-23 -135q-20 -115 -20 -174q0 -201 126 -201q162 0 213 289l56 314q12 76 12 114zM485 1028q203 0 203 -233q0 -63 -14 -150l-56 -305q-34 -182 -104 -269t-194 -87t-168 108l-99 -553h-88l260 1473h70l-2 -88q76 104 192 104z
" />
    <glyph glyph-name="q" unicode="q" horiz-adv-x="763" 
d="M166 233q0 -170 125 -170q170 0 237 375l25 135q18 106 18 175q0 201 -131 200q-158 1 -207 -282l-55 -314q-12 -68 -12 -119zM281 -16q-203 0 -203 237q0 72 14 152l55 307q33 180 103 264t196 84t172 -113l29 97h72l-260 -1473h-88l96 549q-70 -104 -186 -104z" />
    <glyph glyph-name="r" unicode="r" horiz-adv-x="514" 
d="M461 1028q68 0 123 -47l-56 -74q-39 41 -82 41q-76 0 -129 -108t-94 -342l-88 -498h-88l178 1012h70l-8 -103q68 119 174 119z" />
    <glyph glyph-name="s" unicode="s" horiz-adv-x="671" 
d="M111 203q0 -141 145 -142q96 0 160 77q63 77 63 190q0 63 -35 94q-16 16 -31 23t-104 38t-132 80q-42 49 -42 135q0 146 76 238q75 92 187 92t167 -53t56 -150q0 -43 -15 -123h-82q12 61 13 111q0 137 -125 137q-84 0 -137 -68q-52 -69 -52 -175q0 -72 56 -113
q35 -20 147 -59q141 -51 141 -189q0 -162 -86 -262t-209 -100t-183 52t-60 148q0 56 16 152h82q-16 -88 -16 -133z" />
    <glyph glyph-name="t" unicode="t" horiz-adv-x="430" 
d="M258 0q-166 0 -166 120q0 60 23 191l110 623h-82l15 78h82l63 344h84l-59 -344h121l-15 -78h-121l-114 -653q-16 -86 -17 -123q0 -78 80 -78h29l-15 -80h-18z" />
    <glyph glyph-name="u" unicode="u" horiz-adv-x="749" 
d="M172 203q0 -139 107 -140q88 0 142 84t89 273l104 592h88l-178 -1012h-69l12 104q-49 -70 -93 -96t-121 -24q-77 0 -124 51t-47 127t20 205l115 645h88l-117 -658q-16 -104 -16 -151z" />
    <glyph glyph-name="v" unicode="v" horiz-adv-x="651" 
d="M199 0l-56 1012h86l29 -873l338 873h90l-412 -1012h-75z" />
    <glyph glyph-name="w" unicode="w" horiz-adv-x="1017" 
d="M176 0l-18 1012h88l-2 -844l321 844h60l24 -844l297 844h90l-374 -1012h-68l-29 834l-319 -834h-70z" />
    <glyph glyph-name="x" unicode="x" horiz-adv-x="616" 
d="M260 522l-104 490h92l84 -402l217 402h100l-293 -506l109 -506h-94l-86 416l-228 -416h-100z" />
    <glyph glyph-name="y" unicode="y" horiz-adv-x="653" 
d="M195 -16l-58 1028h84l39 -906l334 906h90l-475 -1239q-59 -143 -117 -193t-168 -51l15 80q73 0 107 33t77 143z" />
    <glyph glyph-name="z" unicode="z" horiz-adv-x="628" 
d="M-14 0l8 49l500 883h-318l14 80h418l-8 -49l-500 -883h363l-14 -80h-463z" />
    <glyph glyph-name="braceleft" unicode="{" horiz-adv-x="557" 
d="M289 -201q-158 1 -158 147q0 72 31 249l39 225q29 160 28 205q0 102 -86 102h-8l10 61h11q72 2 102 60t61 246l27 151q35 217 88 292t172 75h41l-12 -70h-25q-78 -2 -114 -72t-74 -294l-16 -95q-27 -172 -54 -231t-88 -92q57 -35 58 -123q0 -37 -31 -203l-47 -274
q-23 -127 -23 -180q0 -109 94 -109h25l-12 -70h-39z" />
    <glyph glyph-name="bar" unicode="|" 
d="M268 -201l320 1813h76l-320 -1813h-76z" />
    <glyph glyph-name="braceright" unicode="}" horiz-adv-x="557" 
d="M326 877q0 33 28 204l31 172q23 121 23 178t-22 85t-73 26h-24l12 70h39q82 0 120 -37t38 -116t-31 -242l-21 -123q-29 -164 -28 -205q0 -100 84 -101h10l-10 -61h-10q-72 -4 -103 -61t-61 -246l-45 -254q-35 -217 -88 -292t-172 -75h-41l12 70h24q78 2 114 73t75 294
l35 198q28 172 54 232t87 92q-57 31 -57 119z" />
    <glyph glyph-name="asciitilde" unicode="~" 
d="M600 715q61 0 121 145l55 -18q-47 -113 -91 -158t-93 -45t-71 14q-23 15 -65 65t-60 64t-42 15q-64 0 -127 -150l-55 17q84 209 197 208q37 0 63 -16t66 -64q39 -48 59 -63q20 -14 43 -14z" />
    <glyph glyph-name="uni00A0" unicode="&#xa0;" horiz-adv-x="327" 
 />
    <glyph glyph-name="exclamdown" unicode="&#xa1;" horiz-adv-x="385" 
d="M326 1012l-29 -162h-88l29 162h88zM254 639l-180 -1092h-99l205 1092h74z" />
    <glyph glyph-name="cent" unicode="&#xa2;" 
d="M217 551q0 72 16 164l54 293q51 346 280 358l37 211h90l-39 -219q162 -39 162 -209q0 -47 -14 -113h-80q6 78 6 101q0 152 -143 151q-88 0 -137 -66t-76 -227l-54 -303q-14 -72 -14 -133q0 -160 141 -160q96 1 146 63t74 212h82q-20 -176 -85 -258t-190 -94l-41 -224h-88
l41 230q-168 31 -168 223z" />
    <glyph glyph-name="sterling" unicode="&#xa3;" 
d="M383 602q0 -148 -56 -286t-157 -236h530l-14 -80h-661l12 70q104 52 180 202t76 299q0 39 -4 84h-154l15 80h126q-6 37 -22 114t-16 152q0 190 81 328q94 150 277 150q131 0 203 -68t71 -188q0 -47 -14 -131h-84q8 74 8 116q0 190 -182 191q-133 0 -201 -117t-67 -266
q0 -95 45 -281h260l-12 -80h-242q2 -23 2 -53z" />
    <glyph glyph-name="currency" unicode="&#xa4;" 
d="M464 1001q-110 0 -180 -88t-71 -227q0 -139 71 -228q72 -89 180 -89t178 89t71 226q0 137 -70 227q-69 90 -179 90zM131 684q0 158 82 272l-137 174l49 48l135 -174q94 74 202 74t206 -74l133 174l49 -48l-135 -174q80 -112 80 -270t-80 -270l135 -174l-49 -47l-133 174
q-98 -74 -204 -74t-204 74l-135 -174l-49 47l137 174q-82 110 -82 268z" />
    <glyph glyph-name="yen" unicode="&#xa5;" 
d="M297 0l57 328h-241l12 69h242l28 160h-241l12 70h217l-143 835h90l129 -784l403 784h96l-438 -835h217l-12 -70h-240l-28 -160h239l-12 -69h-240l-57 -328h-90z" />
    <glyph glyph-name="brokenbar" unicode="&#xa6;" horiz-adv-x="638" 
d="M186 0l86 487h86l-86 -487h-86zM354 958l90 504h86l-88 -504h-88z" />
    <glyph glyph-name="section" unicode="&#xa7;" 
d="M483 389q185 99 185 281q0 76 -27 106q-27 29 -133 78l-98 47q-68 -41 -95 -67q-88 -84 -88 -224q0 -66 27 -96t133 -80zM119 55q0 -166 172 -166q119 0 191 75t73 196q0 74 -36 112q-35 38 -161 85t-174 99t-47 142q0 147 92 246q39 41 121 92q-78 61 -78 170
q0 156 80 264t240 109q111 1 173 -55t62 -156q0 -49 -12 -107h-80q4 49 4 103t-39 96q-40 41 -124 41t-148 -80t-63 -203q1 -68 33 -102t154 -89q122 -53 164 -99t42 -132q0 -221 -213 -342q57 -41 80 -82t22 -104q0 -162 -99 -259t-263 -97q-121 0 -188 57t-66 162
q0 47 14 127h82q-8 -66 -8 -103z" />
    <glyph glyph-name="dieresis" unicode="&#xa8;" horiz-adv-x="1024" 
d="M721 1214l31 181h82l-33 -181h-80zM473 1214l33 181h80l-33 -181h-80z" />
    <glyph glyph-name="copyright" unicode="&#xa9;" horiz-adv-x="1445" 
d="M725 1409q-262 0 -427 -188q-165 -189 -165 -489t166 -489t425 -189t424 188q165 190 165 484t-152 476q-174 207 -436 207zM723 -18q-293 0 -481 210t-188 540q0 331 188 540t482 209t481 -212t187 -539q0 -328 -188 -538t-481 -210zM616 664q0 -228 112 -228
q56 0 80 27t30 90h67q-6 -182 -174 -182q-100 1 -144 69t-44 228v127q0 157 43 227t141 70q166 0 168 -183h-66q-10 117 -98 117q-61 0 -88 -53t-27 -174v-135z" />
    <glyph glyph-name="ordfeminine" unicode="&#xaa;" horiz-adv-x="430" 
d="M336 1137q-88 0 -117 -45q-31 -53 -31 -131q0 -63 72 -63t96 40q24 41 35 84l21 115h-76zM438 1341q0 68 -73 68q-41 0 -63 -18t-36 -68h-73q33 150 179 150t146 -119q0 -27 -12 -111l-72 -399h-67l6 43q-43 -53 -121 -53q-143 0 -143 124q0 116 54 178t154 62h97l10 55
q14 70 14 88z" />
    <glyph glyph-name="guillemotleft" unicode="&#xab;" horiz-adv-x="528" 
d="M168 598l70 -256l-60 -29l-108 291l213 293l47 -41zM385 598l72 -256l-60 -29l-110 291l213 293l47 -41z" />
    <glyph glyph-name="logicalnot" unicode="&#xac;" 
d="M166 717l14 78h574l-74 -420h-86l59 342h-487z" />
    <glyph glyph-name="uni00AD" unicode="&#xad;" horiz-adv-x="608" 
d="M168 715l14 80h350l-14 -80h-350z" />
    <glyph glyph-name="registered" unicode="&#xae;" horiz-adv-x="1087" 
d="M119 1186q0 -207 114 -343q113 -136 311 -136t310 138t113 343q0 205 -114 341q-113 136 -311 136t-306 -133q-117 -139 -117 -346zM41 1186q-1 240 141 394t361 153q219 0 360 -156q141 -157 141 -393t-141 -390t-359 -155q-218 0 -361 154q-142 153 -142 393zM473 1202
h90q74 0 74 102t-78 101h-86v-203zM473 1147v-240h-67v555h157q143 0 144 -155q0 -131 -84 -154l90 -246h-72l-84 240h-84z" />
    <glyph glyph-name="macron" unicode="&#xaf;" horiz-adv-x="1024" 
d="M494 1290l12 70h313l-12 -70h-313z" />
    <glyph glyph-name="degree" unicode="&#xb0;" horiz-adv-x="501" 
d="M384 1454q-79 0 -124 -51t-45 -141t45 -140t124 -51q79 0 124 51q45 52 45 140t-45 140t-124 52zM133 1263q1 119 69 189t182 70t182 -72t69 -188q0 -116 -69 -188q-68 -70 -182 -70t-182 70t-69 189z" />
    <glyph glyph-name="plusminus" unicode="&#xb1;" 
d="M61 143l15 78h610l-14 -78h-611zM162 717l14 78h268l58 329h76l-58 -329h266l-12 -78h-268l-57 -332h-78l59 332h-268z" />
    <glyph glyph-name="twosuperior" unicode="&#xb2;" horiz-adv-x="550" 
d="M539 1516q0 90 -88 90q-59 0 -93 -41t-51 -138h-71q18 129 71 189t150 59q162 0 161 -162q0 -102 -42 -189t-158 -226l-197 -240h283l-12 -67h-383l8 53l250 307q96 119 134 197t38 168z" />
    <glyph glyph-name="threesuperior" unicode="&#xb3;" horiz-adv-x="550" 
d="M362 1286q82 0 130 58t49 160q0 101 -92 102q-61 0 -95 -40t-53 -134h-72q19 131 71 187t151 56q167 0 167 -169t-131 -253q76 -53 76 -179t-63 -210t-174 -84q-190 0 -191 154q0 33 12 106h74q-10 -49 -10 -84q0 -106 108 -106q76 0 121 63t45 172q0 133 -125 134h-65
l10 67h57z" />
    <glyph glyph-name="acute" unicode="&#xb4;" horiz-adv-x="1024" 
d="M575 1194l142 274h108l-184 -274h-66z" />
    <glyph glyph-name="mu" unicode="&#xb5;" 
d="M279 1012h86l-115 -652q-18 -102 -19 -159q0 -139 107 -140q90 0 144 86t87 277l105 588h86l-178 -1012h-64l10 115q-45 -76 -89 -105t-109 -28q-94 0 -133 73l-93 -516h-86z" />
    <glyph glyph-name="paragraph" unicode="&#xb6;" horiz-adv-x="804" 
d="M307 721q-100 0 -146 58q-46 59 -46 185t43 253t102 184q47 41 86 51t160 10h328l-306 -1741h-86l293 1663h-186l-295 -1663h-86l176 1000h-37z" />
    <glyph glyph-name="periodcentered" unicode="&#xb7;" horiz-adv-x="354" 
d="M164 676l29 158h90l-29 -158h-90z" />
    <glyph glyph-name="cedilla" unicode="&#xb8;" horiz-adv-x="1024" 
d="M270 -430l117 278h98l-153 -278h-62z" />
    <glyph glyph-name="onesuperior" unicode="&#xb9;" horiz-adv-x="550" 
d="M299 791l137 786l-119 -61l-30 59l186 92h57l-153 -876h-78z" />
    <glyph glyph-name="ordmasculine" unicode="&#xba;" horiz-adv-x="452" 
d="M467 1317q0 90 -86 90q-94 0 -119 -137l-37 -203q-6 -39 -6 -76q0 -90 84 -90q94 0 119 135l35 205q10 57 10 76zM545 1323q0 -29 -13 -98l-32 -195q-37 -194 -199 -194t-162 147q1 32 11 100l34 193q18 102 66 149t133 48q162 0 162 -150z" />
    <glyph glyph-name="guillemotright" unicode="&#xbb;" horiz-adv-x="528" 
d="M399 610l-71 258l59 29l109 -293l-211 -291l-49 41zM180 610l-71 258l61 29l109 -293l-213 -291l-48 41z" />
    <glyph glyph-name="onequarter" unicode="&#xbc;" horiz-adv-x="1302" 
d="M326 0l542 1462h84l-542 -1462h-84zM948 0l29 166h-285l10 53l338 658h80l-329 -639h198l53 292h72l-53 -292h74l-15 -74h-71l-29 -164h-72zM258 586l137 786l-119 -61l-30 59l186 92h57l-153 -876h-78z" />
    <glyph glyph-name="onehalf" unicode="&#xbd;" horiz-adv-x="1302" 
d="M301 0l543 1462h82l-541 -1462h-84zM1108 726q0 89 -88 89q-59 0 -91 -40t-52 -138h-72q23 133 73 190t148 58q162 0 162 -162q0 -100 -42 -187t-159 -229l-199 -239h285l-12 -68h-383l8 53l250 307q96 121 134 199t38 167zM258 586l137 786l-119 -61l-30 59l186 92h57
l-153 -876h-78z" />
    <glyph glyph-name="threequarters" unicode="&#xbe;" horiz-adv-x="1302" 
d="M385 0l543 1462h84l-543 -1462h-84zM956 0l31 166h-285l9 53l340 658h79l-329 -639h198l52 292h73l-53 -292h72l-13 -74h-71l-29 -164h-74zM328 1081q80 1 129 59t49 159t-92 102q-62 0 -96 -40t-52 -134h-71q20 131 71 187t150 56q168 0 168 -169t-131 -252
q75 -49 75 -179t-63 -212t-176 -83q-188 0 -189 154q0 33 13 107h73q-10 -51 -10 -93t29 -70t93 -28q64 -1 108 63q45 64 45 173q0 133 -127 133h-64l10 67h58z" />
    <glyph glyph-name="questiondown" unicode="&#xbf;" horiz-adv-x="745" 
d="M520 1012l-28 -162h-89l27 162h90zM72 -219q0 -170 155 -170q94 0 149 72q54 72 85 235h82q-25 -158 -68 -235q-80 -152 -254 -152q-117 0 -180 63t-64 181q0 170 72 309q35 74 132 179t131 165t48 145l13 66h76l-15 -78q-18 -109 -55 -179t-132 -178t-128 -181
q-47 -111 -47 -242z" />
    <glyph glyph-name="Agrave" unicode="&#xc0;" horiz-adv-x="776" 
d="M598 1632h-61l-93 273h103zM565 426l-30 885l-345 -885h375zM567 346h-407l-133 -346h-99l592 1462h76l80 -1462h-96z" />
    <glyph glyph-name="Aacute" unicode="&#xc1;" horiz-adv-x="776" 
d="M557 1632l141 273h109l-184 -273h-66zM565 426l-30 885l-345 -885h375zM567 346h-407l-133 -346h-99l592 1462h76l80 -1462h-96z" />
    <glyph glyph-name="Acircumflex" unicode="&#xc2;" horiz-adv-x="776" 
d="M608 1817l-121 -170h-98l203 247h53l115 -247h-92zM565 426l-30 885l-345 -885h375zM567 346h-407l-133 -346h-99l592 1462h76l80 -1462h-96z" />
    <glyph glyph-name="Atilde" unicode="&#xc3;" horiz-adv-x="776" 
d="M664 1661q-50 0 -91 68q-25 41 -35 53q-11 12 -26 12q-33 0 -68 -117h-57q53 184 139 185q53 0 93 -67t63 -66q33 0 66 116h57q-29 -104 -60 -144t-81 -40zM565 426l-30 885l-345 -885h375zM567 346h-407l-133 -346h-99l592 1462h76l80 -1462h-96z" />
    <glyph glyph-name="Adieresis" unicode="&#xc4;" horiz-adv-x="776" 
d="M659 1653l33 180h80l-31 -180h-82zM412 1653l30 180h82l-32 -180h-80zM565 426l-30 885l-345 -885h375zM567 346h-407l-133 -346h-99l592 1462h76l80 -1462h-96z" />
    <glyph glyph-name="Aring" unicode="&#xc5;" horiz-adv-x="776" 
d="M621 1937q-49 0 -81 -48t-32 -130t78 -82q49 0 81 48t31 122q1 90 -77 90zM592 1618q-156 0 -156 169q0 85 54 147t128 63q76 0 114 -43t38 -120q0 -76 -50 -146t-128 -70zM565 426l-30 885l-345 -885h375zM567 346h-407l-133 -346h-99l592 1462h76l80 -1462h-96z" />
    <glyph glyph-name="AE" unicode="&#xc6;" horiz-adv-x="1236" 
d="M614 432l168 950h-10l-539 -950h381zM602 352h-414l-198 -352h-105l846 1462h588l-12 -80h-435l-106 -602h369l-13 -80h-370l-109 -620h432l-14 -80h-522z" />
    <glyph glyph-name="Ccedilla" unicode="&#xc7;" horiz-adv-x="845" 
d="M150 -430l116 278h99l-154 -278h-61zM348 -16q-244 0 -246 254q0 61 19 176l117 667q37 205 108 293q88 104 222 104t202 -64q68 -65 68 -179q0 -51 -17 -143h-84q10 76 11 125q0 182 -166 182q-106 0 -164 -77t-92 -259l-117 -666q-16 -84 -16 -147q0 -186 159 -187
q114 0 178 78t95 256h86q-27 -156 -68 -237q-92 -176 -295 -176z" />
    <glyph glyph-name="Egrave" unicode="&#xc8;" horiz-adv-x="768" 
d="M672 1632h-62l-92 273h103zM70 0l258 1462h522l-12 -80h-435l-106 -602h371l-15 -80h-370l-109 -620h432l-14 -80h-522z" />
    <glyph glyph-name="Eacute" unicode="&#xc9;" horiz-adv-x="768" 
d="M553 1632l141 273h109l-185 -273h-65zM70 0l258 1462h522l-12 -80h-435l-106 -602h371l-15 -80h-370l-109 -620h432l-14 -80h-522z" />
    <glyph glyph-name="Ecircumflex" unicode="&#xca;" horiz-adv-x="768" 
d="M647 1817l-121 -170h-98l203 247h53l115 -247h-92zM70 0l258 1462h522l-12 -80h-435l-106 -602h371l-15 -80h-370l-109 -620h432l-14 -80h-522z" />
    <glyph glyph-name="Edieresis" unicode="&#xcb;" horiz-adv-x="768" 
d="M696 1653l33 180h80l-31 -180h-82zM449 1653l30 180h82l-33 -180h-79zM70 0l258 1462h522l-12 -80h-435l-106 -602h371l-15 -80h-370l-109 -620h432l-14 -80h-522z" />
    <glyph glyph-name="Igrave" unicode="&#xcc;" horiz-adv-x="405" 
d="M459 1632h-62l-92 273h103zM70 0l258 1462h90l-258 -1462h-90z" />
    <glyph glyph-name="Iacute" unicode="&#xcd;" horiz-adv-x="405" 
d="M346 1632l141 273h109l-184 -273h-66zM70 0l258 1462h90l-258 -1462h-90z" />
    <glyph glyph-name="Icircumflex" unicode="&#xce;" horiz-adv-x="405" 
d="M438 1817l-121 -170h-98l203 247h53l115 -247h-92zM70 0l258 1462h90l-258 -1462h-90z" />
    <glyph glyph-name="Idieresis" unicode="&#xcf;" horiz-adv-x="405" 
d="M489 1653l33 180h80l-33 -180h-80zM242 1653l30 180h82l-32 -180h-80zM70 0l258 1462h90l-258 -1462h-90z" />
    <glyph glyph-name="Eth" unicode="&#xd0;" horiz-adv-x="901" 
d="M786 1186q0 197 -200 196h-185l-106 -602h229l-12 -80h-231l-109 -620h184q248 -4 303 328l115 647q12 82 12 131zM588 1462q291 0 291 -268q0 -61 -15 -141l-121 -678q-29 -185 -127 -281t-254 -94h-294l122 700h-108l12 80h111l121 682h262z" />
    <glyph glyph-name="Ntilde" unicode="&#xd1;" horiz-adv-x="958" 
d="M758 1661q-51 0 -90 68q-25 41 -36 53t-26 12q-32 0 -67 -117h-58q53 184 140 185q53 0 93 -67t62 -66q33 0 66 116h57q-29 -104 -59 -144t-82 -40zM70 0l258 1462h88l248 -1249l221 1249h86l-258 -1462h-86l-248 1251l-221 -1251h-88z" />
    <glyph glyph-name="Ograve" unicode="&#xd2;" horiz-adv-x="899" 
d="M709 1632h-62l-92 273h102zM786 1216q0 76 -50 130t-138 53q-127 0 -197 -105q-49 -68 -77 -235l-117 -656q-14 -84 -14 -137q1 -202 203 -202q102 0 165 78q63 79 96 261l115 656q14 81 14 157zM584 1479q146 0 220 -71q73 -71 73 -204q0 -66 -15 -151l-121 -678
q-20 -113 -43 -172t-65 -111q-89 -108 -237 -108t-221 70t-73 202q1 62 17 154l119 677q20 115 43 173t67 110q90 109 236 109z" />
    <glyph glyph-name="Oacute" unicode="&#xd3;" horiz-adv-x="899" 
d="M590 1632l141 273h109l-185 -273h-65zM786 1216q0 76 -50 130t-138 53q-127 0 -197 -105q-49 -68 -77 -235l-117 -656q-14 -84 -14 -137q1 -202 203 -202q102 0 165 78q63 79 96 261l115 656q14 81 14 157zM584 1479q146 0 220 -71q73 -71 73 -204q0 -66 -15 -151
l-121 -678q-20 -113 -43 -172t-65 -111q-89 -108 -237 -108t-221 70t-73 202q1 62 17 154l119 677q20 115 43 173t67 110q90 109 236 109z" />
    <glyph glyph-name="Ocircumflex" unicode="&#xd4;" horiz-adv-x="899" 
d="M682 1817l-121 -170h-98l203 247h53l115 -247h-93zM786 1216q0 76 -50 130t-138 53q-127 0 -197 -105q-49 -68 -77 -235l-117 -656q-14 -84 -14 -137q1 -202 203 -202q102 0 165 78q63 79 96 261l115 656q14 81 14 157zM584 1479q146 0 220 -71q73 -71 73 -204
q0 -66 -15 -151l-121 -678q-20 -113 -43 -172t-65 -111q-89 -108 -237 -108t-221 70t-73 202q1 62 17 154l119 677q20 115 43 173t67 110q90 109 236 109z" />
    <glyph glyph-name="Otilde" unicode="&#xd5;" horiz-adv-x="899" 
d="M739 1661q-51 0 -90 68q-25 41 -36 53t-25 12q-33 0 -68 -117h-57q53 184 139 185q53 0 93 -67t63 -66q33 0 65 116h58q-29 -104 -60 -144t-82 -40zM786 1216q0 76 -50 130t-138 53q-127 0 -197 -105q-49 -68 -77 -235l-117 -656q-14 -84 -14 -137q1 -202 203 -202
q102 0 165 78q63 79 96 261l115 656q14 81 14 157zM584 1479q146 0 220 -71q73 -71 73 -204q0 -66 -15 -151l-121 -678q-20 -113 -43 -172t-65 -111q-89 -108 -237 -108t-221 70t-73 202q1 62 17 154l119 677q20 115 43 173t67 110q90 109 236 109z" />
    <glyph glyph-name="Odieresis" unicode="&#xd6;" horiz-adv-x="899" 
d="M735 1653l33 180h80l-31 -180h-82zM487 1653l31 180h82l-33 -180h-80zM786 1216q0 76 -50 130t-138 53q-127 0 -197 -105q-49 -68 -77 -235l-117 -656q-14 -84 -14 -137q1 -202 203 -202q102 0 165 78q63 79 96 261l115 656q14 81 14 157zM584 1479q146 0 220 -71
q73 -71 73 -204q0 -66 -15 -151l-121 -678q-20 -113 -43 -172t-65 -111q-89 -108 -237 -108t-221 70t-73 202q1 62 17 154l119 677q20 115 43 173t67 110q90 109 236 109z" />
    <glyph glyph-name="multiply" unicode="&#xd7;" 
d="M418 756l-219 266l61 53l221 -266l314 266l43 -53l-316 -266l221 -269l-61 -51l-221 266l-314 -266l-43 51z" />
    <glyph glyph-name="Oslash" unicode="&#xd8;" horiz-adv-x="899" 
d="M601 1399q-128 0 -202 -105q-49 -74 -77 -235l-115 -656q-8 -45 -14 -106l579 987q-43 115 -171 115zM372 63q124 0 188 79t95 261l117 656q6 43 10 90l2 6l-577 -981q41 -111 165 -111zM597 1479q161 0 230 -101l60 99l65 -33l-86 -148q10 -55 10 -103t-16 -140
l-119 -678q-20 -115 -43 -173t-67 -110q-90 -108 -247 -108t-232 96l-60 -103l-67 33l88 152q-19 103 4 248l121 677q20 113 43 173t65 110q90 109 251 109z" />
    <glyph glyph-name="Ugrave" unicode="&#xd9;" horiz-adv-x="917" 
d="M719 1632h-62l-92 273h103zM207 236q0 -172 180 -173q137 0 205 113q37 57 59 193l195 1093h90l-197 -1110q-19 -110 -37 -158t-55 -96q-92 -115 -264 -114q-127 0 -197 62t-69 177q0 66 18 162l189 1077h90l-193 -1093q-14 -84 -14 -133z" />
    <glyph glyph-name="Uacute" unicode="&#xda;" horiz-adv-x="917" 
d="M600 1632l141 273h109l-184 -273h-66zM207 236q0 -172 180 -173q137 0 205 113q37 57 59 193l195 1093h90l-197 -1110q-19 -110 -37 -158t-55 -96q-92 -115 -264 -114q-127 0 -197 62t-69 177q0 66 18 162l189 1077h90l-193 -1093q-14 -84 -14 -133z" />
    <glyph glyph-name="Ucircumflex" unicode="&#xdb;" horiz-adv-x="917" 
d="M694 1817l-121 -170h-98l203 247h53l115 -247h-92zM207 236q0 -172 180 -173q137 0 205 113q37 57 59 193l195 1093h90l-197 -1110q-19 -110 -37 -158t-55 -96q-92 -115 -264 -114q-127 0 -197 62t-69 177q0 66 18 162l189 1077h90l-193 -1093q-14 -84 -14 -133z" />
    <glyph glyph-name="Udieresis" unicode="&#xdc;" horiz-adv-x="917" 
d="M745 1653l33 180h80l-31 -180h-82zM498 1653l30 180h82l-32 -180h-80zM207 236q0 -172 180 -173q137 0 205 113q37 57 59 193l195 1093h90l-197 -1110q-19 -110 -37 -158t-55 -96q-92 -115 -264 -114q-127 0 -197 62t-69 177q0 66 18 162l189 1077h90l-193 -1093
q-14 -84 -14 -133z" />
    <glyph glyph-name="Yacute" unicode="&#xdd;" horiz-adv-x="729" 
d="M514 1632l141 273h109l-184 -273h-66zM231 0l97 553l-133 909h90l108 -780l385 780h94l-454 -909l-96 -553h-91z" />
    <glyph glyph-name="Thorn" unicode="&#xde;" horiz-adv-x="815" 
d="M367 438q96 0 151 29t98 98q90 147 91 353q0 113 -50 167q-43 53 -161 54h-136l-124 -701h131zM494 1219q305 0 305 -276q0 -268 -111 -431q-53 -82 -126 -118t-187 -36h-152l-63 -358h-90l258 1462h90l-43 -243h119z" />
    <glyph glyph-name="germandbls" unicode="&#xdf;" horiz-adv-x="761" 
d="M522 1477q203 0 203 -226q0 -96 -35 -192t-86 -141q70 -53 70 -195q0 -76 -12 -137l-33 -187q-35 -213 -99 -306t-176 -93h-80l15 78h53q84 0 126 70t75 264l30 172q32 207 -7 258q-22 29 -79 28h-24l14 72h21q55 0 98 96q41 102 41 219q0 141 -115 142q-74 1 -119 -59
t-67 -187l-203 -1153h-88l207 1169q27 160 92 234q66 74 178 74z" />
    <glyph glyph-name="agrave" unicode="&#xe0;" horiz-adv-x="716" 
d="M541 1194h-62l-92 274h102zM350 496q-241 0 -241 -310q1 -66 35 -96t120 -29t129 49t68 183l35 203h-146zM422 948q-84 0 -131 -58t-70 -190h-82q25 147 72 218q74 111 215 110q205 0 205 -209q0 -61 -19 -164l-114 -655h-72l4 63q-35 -45 -76 -62t-114 -17
q-222 0 -222 185t77 293t255 109h160l18 107q14 80 15 133q0 137 -121 137z" />
    <glyph glyph-name="aacute" unicode="&#xe1;" horiz-adv-x="716" 
d="M424 1194l141 274h109l-185 -274h-65zM350 496q-241 0 -241 -310q1 -66 35 -96t120 -29t129 49t68 183l35 203h-146zM422 948q-84 0 -131 -58t-70 -190h-82q25 147 72 218q74 111 215 110q205 0 205 -209q0 -61 -19 -164l-114 -655h-72l4 63q-35 -45 -76 -62t-114 -17
q-222 0 -222 185t77 293t255 109h160l18 107q14 80 15 133q0 137 -121 137z" />
    <glyph glyph-name="acircumflex" unicode="&#xe2;" horiz-adv-x="716" 
d="M516 1378l-121 -170h-98l203 246h53l115 -246h-93zM350 496q-241 0 -241 -310q1 -66 35 -96t120 -29t129 49t68 183l35 203h-146zM422 948q-84 0 -131 -58t-70 -190h-82q25 147 72 218q74 111 215 110q205 0 205 -209q0 -61 -19 -164l-114 -655h-72l4 63q-35 -45 -76 -62
t-114 -17q-222 0 -222 185t77 293t255 109h160l18 107q14 80 15 133q0 137 -121 137z" />
    <glyph glyph-name="atilde" unicode="&#xe3;" horiz-adv-x="716" 
d="M436 1423q49 -1 89 -67t63 -66q35 0 65 119h58q-27 -102 -58 -144t-83 -42t-91 67q-25 41 -36 53t-25 13q-33 0 -68 -117h-57q29 98 61 141q33 43 82 43zM350 496q-241 0 -241 -310q1 -66 35 -96t120 -29t129 49t68 183l35 203h-146zM422 948q-84 0 -131 -58t-70 -190
h-82q25 147 72 218q74 111 215 110q205 0 205 -209q0 -61 -19 -164l-114 -655h-72l4 63q-35 -45 -76 -62t-114 -17q-222 0 -222 185t77 293t255 109h160l18 107q14 80 15 133q0 137 -121 137z" />
    <glyph glyph-name="adieresis" unicode="&#xe4;" horiz-adv-x="716" 
d="M569 1214l31 181h82l-33 -181h-80zM322 1214l32 181h80l-33 -181h-79zM350 496q-241 0 -241 -310q1 -66 35 -96t120 -29t129 49t68 183l35 203h-146zM422 948q-84 0 -131 -58t-70 -190h-82q25 147 72 218q74 111 215 110q205 0 205 -209q0 -61 -19 -164l-114 -655h-72
l4 63q-35 -45 -76 -62t-114 -17q-222 0 -222 185t77 293t255 109h160l18 107q14 80 15 133q0 137 -121 137z" />
    <glyph glyph-name="aring" unicode="&#xe5;" horiz-adv-x="716" 
d="M530 1499q-48 0 -80 -48t-32 -130t78 -82q49 0 81 48q31 48 31 130t-78 82zM528 1559q76 0 114 -43t38 -120t-47 -143q-49 -73 -129 -73t-119 42t-39 126t53 148q54 63 129 63zM350 496q-241 0 -241 -310q1 -66 35 -96t120 -29t129 49t68 183l35 203h-146zM422 948
q-84 0 -131 -58t-70 -190h-82q25 147 72 218q74 111 215 110q205 0 205 -209q0 -61 -19 -164l-114 -655h-72l4 63q-35 -45 -76 -62t-114 -17q-222 0 -222 185t77 293t255 109h160l18 107q14 80 15 133q0 137 -121 137z" />
    <glyph glyph-name="ae" unicode="&#xe6;" horiz-adv-x="1114" 
d="M963 801q0 150 -129 149q-88 0 -138 -63t-78 -213l-16 -96h330q31 164 31 223zM350 500q-242 0 -244 -314q0 -66 35 -96t121 -29t130 49t67 181l37 209h-146zM834 1028q104 0 159 -57t56 -166q0 -59 -43 -305h-422l-29 -160q-14 -88 -14 -125q0 -154 133 -154
q92 -1 143 61t74 200h84q-25 -154 -68 -222q-76 -116 -227 -116t-203 112q-78 -113 -237 -112q-223 0 -224 186q0 80 23 164t57 133q76 111 252 111h160l18 100q14 80 14 142q1 128 -122 128q-82 0 -129 -58t-70 -190h-82q25 152 72 218q73 110 219 110t184 -115
q82 115 222 115z" />
    <glyph glyph-name="ccedilla" unicode="&#xe7;" horiz-adv-x="698" 
d="M92 -430l117 278h98l-153 -278h-62zM76 205q0 74 18 172l51 293q31 182 99 271t179 89t165 -56t55 -157q0 -35 -12 -119h-82q8 72 8 109q0 145 -121 145q-82 0 -129 -70t-76 -225l-53 -303q-14 -82 -14 -141q0 -152 119 -152q109 0 161 107q30 55 48 168h81
q-27 -176 -71 -242q-76 -111 -223 -110q-203 0 -203 221z" />
    <glyph glyph-name="egrave" unicode="&#xe8;" horiz-adv-x="727" 
d="M551 1194h-62l-92 274h103zM215 578h330q31 164 30 223q0 150 -129 149q-88 0 -137 -63t-76 -213zM162 209q0 -147 131 -148q88 1 138 61t75 200h82q-27 -158 -68 -222q-72 -117 -231 -116q-104 0 -160 58q-55 58 -55 167q0 59 18 164l51 299q33 186 95 262q82 94 197 94
q225 0 227 -221q0 -53 -44 -307h-415l-29 -160q-12 -61 -12 -131z" />
    <glyph glyph-name="eacute" unicode="&#xe9;" horiz-adv-x="727" 
d="M432 1194l141 274h109l-184 -274h-66zM215 578h330q31 164 30 223q0 150 -129 149q-88 0 -137 -63t-76 -213zM162 209q0 -147 131 -148q88 1 138 61t75 200h82q-27 -158 -68 -222q-72 -117 -231 -116q-104 0 -160 58q-55 58 -55 167q0 59 18 164l51 299q33 186 95 262
q82 94 197 94q225 0 227 -221q0 -53 -44 -307h-415l-29 -160q-12 -61 -12 -131z" />
    <glyph glyph-name="ecircumflex" unicode="&#xea;" horiz-adv-x="727" 
d="M526 1378l-120 -170h-99l203 246h53l115 -246h-92zM215 578h330q31 164 30 223q0 150 -129 149q-88 0 -137 -63t-76 -213zM162 209q0 -147 131 -148q88 1 138 61t75 200h82q-27 -158 -68 -222q-72 -117 -231 -116q-104 0 -160 58q-55 58 -55 167q0 59 18 164l51 299
q33 186 95 262q82 94 197 94q225 0 227 -221q0 -53 -44 -307h-415l-29 -160q-12 -61 -12 -131z" />
    <glyph glyph-name="edieresis" unicode="&#xeb;" horiz-adv-x="727" 
d="M578 1214l30 181h82l-33 -181h-79zM330 1214l32 181h80l-32 -181h-80zM215 578h330q31 164 30 223q0 150 -129 149q-88 0 -137 -63t-76 -213zM162 209q0 -147 131 -148q88 1 138 61t75 200h82q-27 -158 -68 -222q-72 -117 -231 -116q-104 0 -160 58q-55 58 -55 167
q0 59 18 164l51 299q33 186 95 262q82 94 197 94q225 0 227 -221q0 -53 -44 -307h-415l-29 -160q-12 -61 -12 -131z" />
    <glyph glyph-name="igrave" unicode="&#xec;" horiz-adv-x="364" 
d="M362 1194h-61l-92 274h102zM49 0l178 1012h88l-178 -1012h-88z" />
    <glyph glyph-name="iacute" unicode="&#xed;" horiz-adv-x="364" 
d="M248 1194l141 274h109l-185 -274h-65zM49 0l178 1012h88l-178 -1012h-88z" />
    <glyph glyph-name="icircumflex" unicode="&#xee;" horiz-adv-x="364" 
d="M340 1378l-121 -170h-98l203 246h53l115 -246h-93zM49 0l178 1012h88l-178 -1012h-88z" />
    <glyph glyph-name="idieresis" unicode="&#xef;" horiz-adv-x="364" 
d="M391 1214l31 181h82l-33 -181h-80zM143 1214l33 181h80l-31 -181h-82zM49 0l178 1012h88l-178 -1012h-88z" />
    <glyph glyph-name="eth" unicode="&#xf0;" horiz-adv-x="747" 
d="M164 213q0 -152 139 -152q90 -1 138 63t77 218l57 324q12 68 13 129q0 152 -139 151q-91 0 -139 -63t-77 -217l-55 -324q-14 -66 -14 -129zM430 1024q110 0 166 -55q-8 186 -41 260l-147 -70l-23 53l141 68q-66 106 -149 125l22 70q119 -18 205 -154l133 63l25 -55
l-127 -59q47 -104 47 -299t-29 -363l-49 -276q-33 -184 -92 -254q-80 -94 -200 -94q-236 0 -236 225q0 47 16 156l55 311q33 180 95 256q78 92 188 92z" />
    <glyph glyph-name="ntilde" unicode="&#xf1;" horiz-adv-x="765" 
d="M461 1423q49 -1 89 -67t62 -66q35 0 66 119h57q-27 -102 -57 -144t-83 -42q-52 0 -91 67q-25 41 -36 53t-26 13q-32 0 -67 -117h-58q29 98 62 141t82 43zM506 1028q80 0 129 -51t49 -128t-20 -204l-115 -645h-88l117 655q16 104 16 150q0 143 -115 143q-94 0 -149 -84
t-90 -272l-105 -592h-88l178 1012h70l-12 -101q47 63 95 90t128 27z" />
    <glyph glyph-name="ograve" unicode="&#xf2;" horiz-adv-x="747" 
d="M557 1194h-61l-93 274h103zM162 213q0 -152 133 -152q92 1 143 65t78 216l57 328q14 84 15 129q0 152 -133 151q-94 0 -145 -64q-50 -65 -77 -216l-59 -328q-12 -86 -12 -129zM455 1028q221 0 221 -225q0 -51 -19 -160l-55 -309q-31 -182 -94 -258q-80 -92 -201 -92
q-233 0 -233 223q0 64 18 162l53 309q33 186 97 258q80 92 213 92z" />
    <glyph glyph-name="oacute" unicode="&#xf3;" horiz-adv-x="747" 
d="M438 1194l142 274h108l-184 -274h-66zM162 213q0 -152 133 -152q92 1 143 65t78 216l57 328q14 84 15 129q0 152 -133 151q-94 0 -145 -64q-50 -65 -77 -216l-59 -328q-12 -86 -12 -129zM455 1028q221 0 221 -225q0 -51 -19 -160l-55 -309q-31 -182 -94 -258
q-80 -92 -201 -92q-233 0 -233 223q0 64 18 162l53 309q33 186 97 258q80 92 213 92z" />
    <glyph glyph-name="ocircumflex" unicode="&#xf4;" horiz-adv-x="747" 
d="M532 1378l-120 -170h-99l203 246h53l115 -246h-92zM162 213q0 -152 133 -152q92 1 143 65t78 216l57 328q14 84 15 129q0 152 -133 151q-94 0 -145 -64q-50 -65 -77 -216l-59 -328q-12 -86 -12 -129zM455 1028q221 0 221 -225q0 -51 -19 -160l-55 -309q-31 -182 -94 -258
q-80 -92 -201 -92q-233 0 -233 223q0 64 18 162l53 309q33 186 97 258q80 92 213 92z" />
    <glyph glyph-name="otilde" unicode="&#xf5;" horiz-adv-x="747" 
d="M453 1423q49 -1 89 -67t62 -66q35 0 66 119h57q-27 -102 -57 -144t-83 -42q-52 0 -91 67q-25 41 -36 53t-26 13q-32 0 -67 -117h-58q29 98 62 141t82 43zM162 213q0 -152 133 -152q92 1 143 65t78 216l57 328q14 84 15 129q0 152 -133 151q-94 0 -145 -64
q-50 -65 -77 -216l-59 -328q-12 -86 -12 -129zM455 1028q221 0 221 -225q0 -51 -19 -160l-55 -309q-31 -182 -94 -258q-80 -92 -201 -92q-233 0 -233 223q0 64 18 162l53 309q33 186 97 258q80 92 213 92z" />
    <glyph glyph-name="odieresis" unicode="&#xf6;" horiz-adv-x="747" 
d="M584 1214l30 181h82l-32 -181h-80zM336 1214l33 181h80l-33 -181h-80zM162 213q0 -152 133 -152q92 1 143 65t78 216l57 328q14 84 15 129q0 152 -133 151q-94 0 -145 -64q-50 -65 -77 -216l-59 -328q-12 -86 -12 -129zM455 1028q221 0 221 -225q0 -51 -19 -160l-55 -309
q-31 -182 -94 -258q-80 -92 -201 -92q-233 0 -233 223q0 64 18 162l53 309q33 186 97 258q80 92 213 92z" />
    <glyph glyph-name="divide" unicode="&#xf7;" 
d="M467 956l27 154h86l-27 -154h-86zM369 401l28 154h84l-26 -154h-86zM162 717l14 78h610l-14 -78h-610z" />
    <glyph glyph-name="oslash" unicode="&#xf8;" horiz-adv-x="747" 
d="M162 227l409 656q-33 67 -121 67t-140 -64q-50 -65 -77 -216l-59 -328q-12 -78 -12 -115zM299 61q88 0 138 65t79 216l57 328q11 59 15 112l-410 -655q33 -66 121 -66zM676 804q0 -52 -19 -161l-55 -309q-31 -182 -94 -258q-80 -92 -203 -92t-178 61l-45 -74l-57 37
l63 101q-14 41 -14 103t18 157l53 309q19 106 39 160t58 98q80 92 203 92t178 -61l45 71l57 -37l-63 -100q14 -45 14 -97z" />
    <glyph glyph-name="ugrave" unicode="&#xf9;" horiz-adv-x="749" 
d="M557 1194h-61l-93 274h103zM172 203q0 -139 107 -140q88 0 142 84t89 273l104 592h88l-178 -1012h-69l12 104q-49 -70 -93 -96t-121 -24q-77 0 -124 51t-47 127t20 205l115 645h88l-117 -658q-16 -104 -16 -151z" />
    <glyph glyph-name="uacute" unicode="&#xfa;" horiz-adv-x="749" 
d="M438 1194l142 274h108l-184 -274h-66zM172 203q0 -139 107 -140q88 0 142 84t89 273l104 592h88l-178 -1012h-69l12 104q-49 -70 -93 -96t-121 -24q-77 0 -124 51t-47 127t20 205l115 645h88l-117 -658q-16 -104 -16 -151z" />
    <glyph glyph-name="ucircumflex" unicode="&#xfb;" horiz-adv-x="749" 
d="M532 1378l-120 -170h-99l203 246h53l115 -246h-92zM172 203q0 -139 107 -140q88 0 142 84t89 273l104 592h88l-178 -1012h-69l12 104q-49 -70 -93 -96t-121 -24q-77 0 -124 51t-47 127t20 205l115 645h88l-117 -658q-16 -104 -16 -151z" />
    <glyph glyph-name="udieresis" unicode="&#xfc;" horiz-adv-x="749" 
d="M584 1214l30 181h82l-32 -181h-80zM336 1214l33 181h80l-33 -181h-80zM172 203q0 -139 107 -140q88 0 142 84t89 273l104 592h88l-178 -1012h-69l12 104q-49 -70 -93 -96t-121 -24q-77 0 -124 51t-47 127t20 205l115 645h88l-117 -658q-16 -104 -16 -151z" />
    <glyph glyph-name="yacute" unicode="&#xfd;" horiz-adv-x="653" 
d="M397 1194l142 274h108l-184 -274h-66zM195 -16l-58 1028h84l39 -906l334 906h90l-475 -1239q-59 -143 -117 -193t-168 -51l15 80q73 0 107 33t77 143z" />
    <glyph glyph-name="thorn" unicode="&#xfe;" horiz-adv-x="757" 
d="M600 780q0 168 -125 168q-172 0 -239 -375l-23 -135q-20 -111 -20 -172q0 -203 126 -203q162 0 213 289l56 314q12 74 12 114zM688 793q0 -55 -14 -148l-56 -305q-63 -356 -292 -356q-66 0 -106 23q-39 24 -70 83l-97 -551h-88l340 1923h88l-96 -542q74 109 190 108
q201 0 201 -235z" />
    <glyph glyph-name="ydieresis" unicode="&#xff;" horiz-adv-x="653" 
d="M535 1214l30 181h82l-33 -181h-79zM287 1214l32 181h80l-32 -181h-80zM195 -16l-58 1028h84l39 -906l334 906h90l-475 -1239q-59 -143 -117 -193t-168 -51l15 80q73 0 107 33t77 143z" />
    <glyph glyph-name="Amacron" unicode="&#x100;" horiz-adv-x="776" 
d="M440 1729l13 69h313l-12 -69h-314zM565 426l-30 885l-345 -885h375zM567 346h-407l-133 -346h-99l592 1462h76l80 -1462h-96z" />
    <glyph glyph-name="amacron" unicode="&#x101;" horiz-adv-x="716" 
d="M326 1290l12 70h313l-12 -70h-313zM350 496q-241 0 -241 -310q1 -66 35 -96t120 -29t129 49t68 183l35 203h-146zM422 948q-84 0 -131 -58t-70 -190h-82q25 147 72 218q74 111 215 110q205 0 205 -209q0 -61 -19 -164l-114 -655h-72l4 63q-35 -45 -76 -62t-114 -17
q-222 0 -222 185t77 293t255 109h160l18 107q14 80 15 133q0 137 -121 137z" />
    <glyph glyph-name="Abreve" unicode="&#x102;" horiz-adv-x="776" 
d="M508 1798q0 -88 76 -88q55 0 84 37t49 133h69q-23 -113 -41 -149q-49 -96 -161 -97q-70 0 -109 34t-39 84t13 128h67q-8 -51 -8 -82zM565 426l-30 885l-345 -885h375zM567 346h-407l-133 -346h-99l592 1462h76l80 -1462h-96z" />
    <glyph glyph-name="abreve" unicode="&#x103;" horiz-adv-x="716" 
d="M416 1360q0 -90 78 -90q54 0 82 38t49 134h69q-23 -113 -41 -150q-47 -96 -159 -96q-72 0 -111 34t-39 81t12 131h68q-8 -49 -8 -82zM350 496q-241 0 -241 -310q1 -66 35 -96t120 -29t129 49t68 183l35 203h-146zM422 948q-84 0 -131 -58t-70 -190h-82q25 147 72 218
q74 111 215 110q205 0 205 -209q0 -61 -19 -164l-114 -655h-72l4 63q-35 -45 -76 -62t-114 -17q-222 0 -222 185t77 293t255 109h160l18 107q14 80 15 133q0 137 -121 137z" />
    <glyph glyph-name="Aogonek" unicode="&#x104;" horiz-adv-x="776" 
d="M565 426l-30 885l-345 -885h375zM489 -248q0 -53 74 -53q29 0 78 16v-65q-53 -20 -109 -21q-131 0 -131 105q1 74 53 146t140 120h-14l-13 346h-407l-133 -346h-99l592 1462h76l80 -1462l-17 -12q-170 -123 -170 -236z" />
    <glyph glyph-name="aogonek" unicode="&#x105;" horiz-adv-x="716" 
d="M350 496q-241 0 -241 -310q1 -66 35 -96t120 -29t129 49t68 183l35 203h-146zM311 -248q0 -53 74 -53q29 0 78 16v-65q-53 -20 -109 -21q-131 0 -131 105q0 154 203 274l4 55q-35 -45 -76 -62t-114 -17q-222 0 -222 185t77 293t255 109h160l18 107q14 80 15 133
q0 137 -121 137q-84 0 -131 -58t-70 -190h-82q25 147 72 218q74 111 215 110q205 0 205 -209q-1 -62 -19 -164l-114 -655q-70 -49 -103 -82q-84 -80 -84 -166z" />
    <glyph glyph-name="Cacute" unicode="&#x106;" horiz-adv-x="845" 
d="M582 1632l141 273h108l-184 -273h-65zM348 -16q-244 0 -246 254q0 61 19 176l117 667q37 205 108 293q88 104 222 104t202 -64q68 -65 68 -179q0 -51 -17 -143h-84q10 76 11 125q0 182 -166 182q-106 0 -164 -77t-92 -259l-117 -666q-16 -84 -16 -147q0 -186 159 -187
q114 0 178 78t95 256h86q-27 -156 -68 -237q-92 -176 -295 -176z" />
    <glyph glyph-name="cacute" unicode="&#x107;" horiz-adv-x="698" 
d="M432 1194l141 274h109l-184 -274h-66zM76 205q0 74 18 172l51 293q31 182 99 271t179 89t165 -56t55 -157q0 -35 -12 -119h-82q8 72 8 109q0 145 -121 145q-82 0 -129 -70t-76 -225l-53 -303q-14 -82 -14 -141q0 -152 119 -152q109 0 161 107q30 55 48 168h81
q-27 -176 -71 -242q-76 -111 -223 -110q-203 0 -203 221z" />
    <glyph glyph-name="Ccircumflex" unicode="&#x108;" horiz-adv-x="845" 
d="M651 1817l-121 -170h-98l203 247h53l115 -247h-92zM348 -16q-244 0 -246 254q0 61 19 176l117 667q37 205 108 293q88 104 222 104t202 -64q68 -65 68 -179q0 -51 -17 -143h-84q10 76 11 125q0 182 -166 182q-106 0 -164 -77t-92 -259l-117 -666q-16 -84 -16 -147
q0 -186 159 -187q114 0 178 78t95 256h86q-27 -156 -68 -237q-92 -176 -295 -176z" />
    <glyph glyph-name="ccircumflex" unicode="&#x109;" horiz-adv-x="698" 
d="M508 1378l-121 -170h-98l203 246h53l114 -246h-92zM76 205q0 74 18 172l51 293q31 182 99 271t179 89t165 -56t55 -157q0 -35 -12 -119h-82q8 72 8 109q0 145 -121 145q-82 0 -129 -70t-76 -225l-53 -303q-14 -82 -14 -141q0 -152 119 -152q109 0 161 107q30 55 48 168
h81q-27 -176 -71 -242q-76 -111 -223 -110q-203 0 -203 221z" />
    <glyph glyph-name="Cdotaccent" unicode="&#x10a;" horiz-adv-x="845" 
d="M580 1653l32 180h86l-32 -180h-86zM348 -16q-244 0 -246 254q0 61 19 176l117 667q37 205 108 293q88 104 222 104t202 -64q68 -65 68 -179q0 -51 -17 -143h-84q10 76 11 125q0 182 -166 182q-106 0 -164 -77t-92 -259l-117 -666q-16 -84 -16 -147q0 -186 159 -187
q114 0 178 78t95 256h86q-27 -156 -68 -237q-92 -176 -295 -176z" />
    <glyph glyph-name="cdotaccent" unicode="&#x10b;" horiz-adv-x="698" 
d="M434 1214l31 181h88l-33 -181h-86zM76 205q0 74 18 172l51 293q31 182 99 271t179 89t165 -56t55 -157q0 -35 -12 -119h-82q8 72 8 109q0 145 -121 145q-82 0 -129 -70t-76 -225l-53 -303q-14 -82 -14 -141q0 -152 119 -152q109 0 161 107q30 55 48 168h81
q-27 -176 -71 -242q-76 -111 -223 -110q-203 0 -203 221z" />
    <glyph glyph-name="Ccaron" unicode="&#x10c;" horiz-adv-x="845" 
d="M623 1722l120 170h99l-203 -247h-53l-115 247h92zM348 -16q-244 0 -246 254q0 61 19 176l117 667q37 205 108 293q88 104 222 104t202 -64q68 -65 68 -179q0 -51 -17 -143h-84q10 76 11 125q0 182 -166 182q-106 0 -164 -77t-92 -259l-117 -666q-16 -84 -16 -147
q0 -186 159 -187q114 0 178 78t95 256h86q-27 -156 -68 -237q-92 -176 -295 -176z" />
    <glyph glyph-name="ccaron" unicode="&#x10d;" horiz-adv-x="698" 
d="M492 1284l120 170h99l-203 -248h-53l-115 248h92zM76 205q0 74 18 172l51 293q31 182 99 271t179 89t165 -56t55 -157q0 -35 -12 -119h-82q8 72 8 109q0 145 -121 145q-82 0 -129 -70t-76 -225l-53 -303q-14 -82 -14 -141q0 -152 119 -152q109 0 161 107q30 55 48 168h81
q-27 -176 -71 -242q-76 -111 -223 -110q-203 0 -203 221z" />
    <glyph glyph-name="Dcaron" unicode="&#x10e;" horiz-adv-x="901" 
d="M612 1722l121 170h98l-202 -247h-54l-114 247h92zM788 1186q0 197 -202 196h-185l-229 -1302h184q252 -4 303 328l115 647q14 80 14 131zM588 1462q293 0 293 -268q0 -47 -17 -141l-121 -678q-29 -185 -126 -281t-255 -94h-294l258 1462h262z" />
    <glyph glyph-name="dcaron" unicode="&#x10f;" horiz-adv-x="839" 
d="M848 1067l102 399h90l-131 -399h-61zM166 233q0 -170 123 -170q172 0 239 375l25 135q18 106 18 175q0 201 -131 200q-158 1 -207 -282l-55 -310q-12 -76 -12 -123zM78 221q0 68 14 152l55 307q31 180 102 264t195 84t170 -110l95 544h88l-256 -1462h-72l10 102
q-76 -119 -198 -118q-203 0 -203 237z" />
    <glyph glyph-name="Dcroat" unicode="&#x110;" horiz-adv-x="901" 
d="M786 1186q0 197 -200 196h-185l-106 -602h229l-12 -80h-231l-109 -620h184q248 -4 303 328l115 647q12 82 12 131zM588 1462q291 0 291 -268q0 -61 -15 -141l-121 -678q-29 -185 -127 -281t-254 -94h-294l122 700h-108l12 80h111l121 682h262z" />
    <glyph glyph-name="dcroat" unicode="&#x111;" horiz-adv-x="763" 
d="M166 233q0 -170 123 -170q172 0 239 375l25 135q18 106 18 175q0 201 -131 200q-158 1 -207 -282l-55 -310q-12 -76 -12 -123zM78 221q0 68 14 152l55 307q31 180 102 264t195 84t170 -110l45 266h-198l12 73h201l35 205h88l-35 -205h98l-12 -73h-100l-207 -1184h-72
l10 102q-76 -119 -198 -118q-203 0 -203 237z" />
    <glyph glyph-name="Emacron" unicode="&#x112;" horiz-adv-x="768" 
d="M475 1729l12 69h314l-13 -69h-313zM70 0l258 1462h522l-12 -80h-435l-106 -602h371l-15 -80h-370l-109 -620h432l-14 -80h-522z" />
    <glyph glyph-name="emacron" unicode="&#x113;" horiz-adv-x="727" 
d="M342 1290l12 70h314l-13 -70h-313zM215 578h330q31 164 30 223q0 150 -129 149q-88 0 -137 -63t-76 -213zM162 209q0 -147 131 -148q88 1 138 61t75 200h82q-27 -158 -68 -222q-72 -117 -231 -116q-104 0 -160 58q-55 58 -55 167q0 59 18 164l51 299q33 186 95 262
q82 94 197 94q225 0 227 -221q0 -53 -44 -307h-415l-29 -160q-12 -61 -12 -131z" />
    <glyph glyph-name="Ebreve" unicode="&#x114;" horiz-adv-x="768" 
d="M543 1798q0 -88 75 -88q55 0 84 37t50 133h69q-23 -113 -41 -149q-47 -96 -162 -97q-70 0 -108 34t-39 84q0 50 12 128h68q-8 -51 -8 -82zM70 0l258 1462h522l-12 -80h-435l-106 -602h371l-15 -80h-370l-109 -620h432l-14 -80h-522z" />
    <glyph glyph-name="ebreve" unicode="&#x115;" horiz-adv-x="727" 
d="M418 1360q0 -90 78 -90q53 0 82 38t49 134h69q-23 -113 -41 -150q-49 -96 -159 -96q-72 0 -111 34t-39 81t12 131h68q-8 -49 -8 -82zM215 578h330q31 164 30 223q0 150 -129 149q-88 0 -137 -63t-76 -213zM162 209q0 -147 131 -148q88 1 138 61t75 200h82
q-27 -158 -68 -222q-72 -117 -231 -116q-104 0 -160 58q-55 58 -55 167q0 59 18 164l51 299q33 186 95 262q82 94 197 94q225 0 227 -221q0 -53 -44 -307h-415l-29 -160q-12 -61 -12 -131z" />
    <glyph glyph-name="Edotaccent" unicode="&#x116;" horiz-adv-x="768" 
d="M571 1653l33 180h86l-33 -180h-86zM70 0l258 1462h522l-12 -80h-435l-106 -602h371l-15 -80h-370l-109 -620h432l-14 -80h-522z" />
    <glyph glyph-name="edotaccent" unicode="&#x117;" horiz-adv-x="727" 
d="M449 1214l30 181h88l-32 -181h-86zM215 578h330q31 164 30 223q0 150 -129 149q-88 0 -137 -63t-76 -213zM162 209q0 -147 131 -148q88 1 138 61t75 200h82q-27 -158 -68 -222q-72 -117 -231 -116q-104 0 -160 58q-55 58 -55 167q0 59 18 164l51 299q33 186 95 262
q82 94 197 94q225 0 227 -221q0 -53 -44 -307h-415l-29 -160q-12 -61 -12 -131z" />
    <glyph glyph-name="Eogonek" unicode="&#x118;" horiz-adv-x="768" 
d="M481 -301q27 0 78 16v-65q-53 -20 -108 -21q-131 0 -132 105q0 154 191 266h-440l258 1462h522l-12 -80h-435l-106 -602h371l-15 -80h-370l-109 -620h432l-14 -80q-61 -45 -103 -82q-82 -86 -81 -166q0 -53 73 -53z" />
    <glyph glyph-name="eogonek" unicode="&#x119;" horiz-adv-x="727" 
d="M215 578h330q31 164 30 223q0 150 -129 149q-88 0 -137 -63t-76 -213zM162 209q0 -147 131 -148q88 0 138 61t75 200h82q-20 -139 -62 -211t-118 -107q-78 -57 -109 -96q-68 -78 -68 -156q0 -53 74 -53q29 0 76 16l2 -65q-53 -20 -109 -21q-131 0 -131 107q0 135 146 246
q-104 0 -160 58q-55 58 -55 169q0 59 18 164l51 299q33 186 95 262q82 94 197 94q225 0 227 -221q0 -53 -44 -307h-415l-29 -160q-12 -61 -12 -131z" />
    <glyph glyph-name="Ecaron" unicode="&#x11a;" horiz-adv-x="768" 
d="M623 1722l120 170h99l-203 -247h-53l-115 247h92zM70 0l258 1462h522l-12 -80h-435l-106 -602h371l-15 -80h-370l-109 -620h432l-14 -80h-522z" />
    <glyph glyph-name="ecaron" unicode="&#x11b;" horiz-adv-x="727" 
d="M500 1284l121 170h98l-203 -248h-53l-115 248h92zM215 578h330q31 164 30 223q0 150 -129 149q-88 0 -137 -63t-76 -213zM162 209q0 -147 131 -148q88 1 138 61t75 200h82q-27 -158 -68 -222q-72 -117 -231 -116q-104 0 -160 58q-55 58 -55 167q0 59 18 164l51 299
q33 186 95 262q82 94 197 94q225 0 227 -221q0 -53 -44 -307h-415l-29 -160q-12 -61 -12 -131z" />
    <glyph glyph-name="Gcircumflex" unicode="&#x11c;" horiz-adv-x="872" 
d="M657 1817l-120 -170h-99l203 247h53l115 -247h-92zM102 246q0 70 19 170l117 665q37 205 110 293q92 104 228 104t204 -62t68 -175q0 -57 -17 -149h-83q10 72 10 120q0 186 -174 187q-106 0 -166 -79t-92 -257l-119 -664q-14 -84 -14 -141q0 -195 176 -195q227 0 284 338
l47 261h-196l12 77h287l-60 -340q-37 -207 -116 -301q-101 -114 -245 -114q-280 0 -280 262z" />
    <glyph glyph-name="gcircumflex" unicode="&#x11d;" horiz-adv-x="763" 
d="M541 1378l-121 -170h-98l202 246h54l114 -246h-92zM166 231q0 -168 123 -168q174 0 237 375l25 135q18 106 18 175q0 201 -131 200q-158 1 -207 -282l-55 -314q-10 -55 -10 -121zM217 -475q-203 0 -205 172q0 49 15 119h79q-8 -59 -8 -88q0 -125 121 -125q88 0 135 62
t74 212l37 211q-72 -104 -189 -104q-201 0 -200 237q0 72 16 152l53 307q33 180 103 264t194 84t174 -113l29 97h72l-203 -1143q-32 -186 -100 -265t-197 -79z" />
    <glyph glyph-name="Gbreve" unicode="&#x11e;" horiz-adv-x="872" 
d="M543 1798q0 -88 75 -88q55 0 84 37t50 133h69q-23 -113 -41 -149q-47 -96 -162 -97q-70 0 -108 34t-39 84q0 50 12 128h68q-8 -51 -8 -82zM102 246q0 70 19 170l117 665q37 205 110 293q92 104 228 104t204 -62t68 -175q0 -57 -17 -149h-83q10 72 10 120q0 186 -174 187
q-106 0 -166 -79t-92 -257l-119 -664q-14 -84 -14 -141q0 -195 176 -195q227 0 284 338l47 261h-196l12 77h287l-60 -340q-37 -207 -116 -301q-101 -114 -245 -114q-280 0 -280 262z" />
    <glyph glyph-name="gbreve" unicode="&#x11f;" horiz-adv-x="763" 
d="M455 1360q0 -90 77 -90q53 0 82 38t50 134h69q-23 -113 -41 -150q-49 -96 -160 -96q-72 0 -110 34t-39 81q0 47 12 131h68q-8 -49 -8 -82zM166 231q0 -168 123 -168q174 0 237 375l25 135q18 106 18 175q0 201 -131 200q-158 1 -207 -282l-55 -314q-10 -55 -10 -121z
M217 -475q-203 0 -205 172q0 49 15 119h79q-8 -59 -8 -88q0 -125 121 -125q88 0 135 62t74 212l37 211q-72 -104 -189 -104q-201 0 -200 237q0 72 16 152l53 307q33 180 103 264t194 84t174 -113l29 97h72l-203 -1143q-32 -186 -100 -265t-197 -79z" />
    <glyph glyph-name="Gdotaccent" unicode="&#x120;" horiz-adv-x="872" 
d="M580 1653l32 180h86l-32 -180h-86zM102 246q0 70 19 170l117 665q37 205 110 293q92 104 228 104t204 -62t68 -175q0 -57 -17 -149h-83q10 72 10 120q0 186 -174 187q-106 0 -166 -79t-92 -257l-119 -664q-14 -84 -14 -141q0 -195 176 -195q227 0 284 338l47 261h-196
l12 77h287l-60 -340q-37 -207 -116 -301q-101 -114 -245 -114q-280 0 -280 262z" />
    <glyph glyph-name="gdotaccent" unicode="&#x121;" horiz-adv-x="763" 
d="M479 1214l31 181h88l-33 -181h-86zM166 231q0 -168 123 -168q174 0 237 375l25 135q18 106 18 175q0 201 -131 200q-158 1 -207 -282l-55 -314q-10 -55 -10 -121zM217 -475q-203 0 -205 172q0 49 15 119h79q-8 -59 -8 -88q0 -125 121 -125q88 0 135 62t74 212l37 211
q-72 -104 -189 -104q-201 0 -200 237q0 72 16 152l53 307q33 180 103 264t194 84t174 -113l29 97h72l-203 -1143q-32 -186 -100 -265t-197 -79z" />
    <glyph glyph-name="Gcommaaccent" unicode="&#x122;" horiz-adv-x="872" 
d="M158 -430l116 278h99l-154 -278h-61zM102 246q0 70 19 170l117 665q37 205 110 293q92 104 228 104t204 -62t68 -175q0 -57 -17 -149h-83q10 72 10 120q0 186 -174 187q-106 0 -166 -79t-92 -257l-119 -664q-14 -84 -14 -141q0 -195 176 -195q227 0 284 338l47 261h-196
l12 77h287l-60 -340q-37 -207 -116 -301q-101 -114 -245 -114q-280 0 -280 262z" />
    <glyph glyph-name="gcommaaccent" unicode="&#x123;" horiz-adv-x="763" 
d="M461 1194l184 274h66l-142 -274h-108zM166 231q0 -168 123 -168q174 0 237 375l25 135q18 106 18 175q0 201 -131 200q-158 1 -207 -282l-55 -314q-10 -55 -10 -121zM217 -475q-203 0 -205 172q0 49 15 119h79q-8 -59 -8 -88q0 -125 121 -125q88 0 135 62t74 212l37 211
q-72 -104 -189 -104q-201 0 -200 237q0 72 16 152l53 307q33 180 103 264t194 84t174 -113l29 97h72l-203 -1143q-32 -186 -100 -265t-197 -79z" />
    <glyph glyph-name="Hcircumflex" unicode="&#x124;" horiz-adv-x="905" 
d="M682 1817l-121 -170h-98l203 247h53l115 -247h-93zM70 0l258 1462h90l-121 -682h410l120 682h91l-259 -1462h-90l123 700h-409l-123 -700h-90z" />
    <glyph glyph-name="hcircumflex" unicode="&#x125;" horiz-adv-x="765" 
d="M449 1817l-121 -170h-99l203 247h53l115 -247h-92zM496 1028q90 0 139 -51t49 -128t-20 -204l-115 -645h-88l117 657q16 100 16 146q0 145 -115 145q-94 0 -149 -84t-90 -272l-105 -592h-88l258 1462h88l-94 -532q78 98 197 98z" />
    <glyph glyph-name="Hbar" unicode="&#x126;" horiz-adv-x="905" 
d="M295 780h410l40 236h-409zM68 0l178 1016h-80l14 76h80l66 370h90l-66 -370h410l65 370h90l-65 -370h82l-14 -76h-80l-181 -1016h-90l123 700h-409l-123 -700h-90z" />
    <glyph glyph-name="hbar" unicode="&#x127;" horiz-adv-x="765" 
d="M496 1028q90 0 139 -51t49 -135t-20 -197l-115 -645h-88l117 657q16 98 16 148q0 143 -115 143q-94 0 -149 -84t-90 -272l-105 -592h-88l209 1184h-104l12 73h104l37 205h88l-37 -205h195l-12 -73h-195l-45 -254q78 98 197 98z" />
    <glyph glyph-name="Itilde" unicode="&#x128;" horiz-adv-x="405" 
d="M494 1661q-50 0 -91 68q-25 41 -35 53q-11 12 -26 12q-33 0 -68 -117h-57q53 184 139 185q54 0 94 -67t62 -66q33 0 66 116h57q-29 -104 -60 -144t-81 -40zM70 0l258 1462h90l-258 -1462h-90z" />
    <glyph glyph-name="itilde" unicode="&#x129;" horiz-adv-x="364" 
d="M262 1423q49 -1 89 -67t63 -66q35 0 65 119h58q-27 -102 -58 -144t-83 -42t-91 67q-25 41 -36 53t-25 13q-33 0 -68 -117h-57q29 98 61 141q33 43 82 43zM49 0l178 1012h88l-178 -1012h-88z" />
    <glyph glyph-name="Imacron" unicode="&#x12a;" horiz-adv-x="405" 
d="M262 1729l12 69h314l-13 -69h-313zM70 0l258 1462h90l-258 -1462h-90z" />
    <glyph glyph-name="imacron" unicode="&#x12b;" horiz-adv-x="364" 
d="M164 1290l12 70h313l-12 -70h-313zM49 0l178 1012h88l-178 -1012h-88z" />
    <glyph glyph-name="Ibreve" unicode="&#x12c;" horiz-adv-x="405" 
d="M338 1798q0 -88 76 -88q55 0 84 37t49 133h69q-23 -113 -41 -149q-47 -96 -161 -97q-70 0 -109 34t-39 84t13 128h67q-8 -51 -8 -82zM70 0l258 1462h90l-258 -1462h-90z" />
    <glyph glyph-name="ibreve" unicode="&#x12d;" horiz-adv-x="364" 
d="M240 1360q0 -90 77 -90q53 0 82 38t50 134h69q-23 -113 -41 -150q-47 -96 -160 -96q-73 0 -111 34t-38 81t12 131h68q-8 -49 -8 -82zM49 0l178 1012h88l-178 -1012h-88z" />
    <glyph glyph-name="Iogonek" unicode="&#x12e;" horiz-adv-x="405" 
d="M-27 -248q0 -53 74 -53q29 0 78 16v-65q-53 -20 -109 -21q-131 0 -131 105q1 74 53 146t140 120h-8l256 1462h90l-256 -1462q-100 -72 -144 -129t-43 -119z" />
    <glyph glyph-name="iogonek" unicode="&#x12f;" horiz-adv-x="364" 
d="M276 1280l33 182h88l-32 -182h-89zM-47 -248q0 -53 74 -53q29 0 77 16v-65q-53 -20 -108 -21q-131 0 -131 105q0 72 52 144t138 122h-4l178 1012h88l-178 -1012q-78 -55 -104 -82q-82 -86 -82 -166z" />
    <glyph glyph-name="Idotaccent" unicode="&#x130;" horiz-adv-x="405" 
d="M358 1653l33 180h86l-33 -180h-86zM68 0l258 1462h90l-258 -1462h-90z" />
    <glyph glyph-name="dotlessi" unicode="&#x131;" horiz-adv-x="364" 
d="M49 0l178 1012h88l-178 -1012h-88z" />
    <glyph glyph-name="IJ" unicode="&#x132;" horiz-adv-x="808" 
d="M242 -494q-59 0 -129 29l51 72q33 -20 76 -21q111 0 168 121q27 63 55 223l268 1532h90l-270 -1542q-39 -219 -82 -287q-78 -127 -227 -127zM70 0l258 1462h90l-258 -1462h-90z" />
    <glyph glyph-name="ij" unicode="&#x133;" horiz-adv-x="714" 
d="M575 1012h89l-191 -1084q-35 -219 -107 -312t-208 -87l14 80q84 -7 135 69t78 248zM623 1280l32 182h88l-32 -182h-88zM49 0l178 1012h88l-178 -1012h-88zM274 1280l33 182h88l-33 -182h-88z" />
    <glyph glyph-name="Jcircumflex" unicode="&#x134;" horiz-adv-x="577" 
d="M598 1817l-121 -170h-98l203 247h53l115 -247h-93zM112 -14q-144 0 -212 108l67 56q59 -84 135 -84q111 0 168 120q23 55 54 224l186 1052h90l-188 -1063q-25 -145 -38 -194t-40 -92q-78 -127 -222 -127z" />
    <glyph glyph-name="jcircumflex" unicode="&#x135;" horiz-adv-x="370" 
d="M342 1378l-121 -170h-98l203 246h53l115 -246h-93zM231 1012h88l-190 -1084q-33 -219 -105 -312t-210 -87l14 80q84 -7 135 69t78 248z" />
    <glyph glyph-name="Kcommaaccent" unicode="&#x136;" horiz-adv-x="817" 
d="M209 -430l117 278h98l-154 -278h-61zM70 0l258 1462h90l-146 -823l564 823h98l-424 -610l201 -852h-93l-176 766l-198 -291l-84 -475h-90z" />
    <glyph glyph-name="kcommaaccent" unicode="&#x137;" horiz-adv-x="727" 
d="M123 -430l117 278h98l-154 -278h-61zM49 0l258 1462h88l-188 -1069l407 619h99l-295 -428l139 -584h-92l-109 502l-176 -262l-43 -240h-88z" />
    <glyph glyph-name="kgreenlandic" unicode="&#x138;" horiz-adv-x="727" 
d="M49 0l178 1012h88l-108 -619l407 619h99l-295 -428l139 -584h-92l-109 502l-176 -262l-43 -240h-88z" />
    <glyph glyph-name="Lacute" unicode="&#x139;" horiz-adv-x="724" 
d="M379 1632l141 273h109l-185 -273h-65zM68 0l258 1462h90l-244 -1382h449l-15 -80h-538z" />
    <glyph glyph-name="lacute" unicode="&#x13a;" horiz-adv-x="405" 
d="M344 1632l141 275h109l-184 -275h-66zM248 0q-168 0 -168 126q0 62 14 142l211 1194h88l-213 -1206q-10 -53 -10 -96q0 -44 20 -62t74 -18h25l-13 -80h-28z" />
    <glyph glyph-name="Lcommaaccent" unicode="&#x13b;" horiz-adv-x="724" 
d="M160 -430l116 278h99l-154 -278h-61zM68 0l258 1462h90l-244 -1382h449l-15 -80h-538z" />
    <glyph glyph-name="lcommaaccent" unicode="&#x13c;" horiz-adv-x="405" 
d="M-39 -430l117 278h98l-153 -278h-62zM170 156q0 -40 20 -58t74 -18h25l-15 -80h-26q-90 0 -129 32t-39 98t14 138l211 1194h88l-213 -1206q-10 -61 -10 -100z" />
    <glyph glyph-name="Lcaron" unicode="&#x13d;" horiz-adv-x="724" 
d="M487 1067l103 399h90l-131 -399h-62zM68 0l258 1462h90l-244 -1382h449l-15 -80h-538z" />
    <glyph glyph-name="lcaron" unicode="&#x13e;" horiz-adv-x="448" 
d="M459 1067l102 399h90l-131 -399h-61zM248 0q-168 0 -168 126q0 62 14 142l211 1194h88l-213 -1206q-10 -53 -10 -96q0 -44 20 -62t74 -18h25l-13 -80h-28z" />
    <glyph glyph-name="Ldot" unicode="&#x13f;" horiz-adv-x="724" 
d="M530 678l27 156h84l-29 -156h-82zM68 0l258 1462h90l-244 -1382h449l-15 -80h-538z" />
    <glyph glyph-name="ldot" unicode="&#x140;" horiz-adv-x="425" 
d="M371 678l28 158h90l-28 -158h-90zM248 0q-168 0 -168 126q0 62 14 142l211 1194h88l-213 -1206q-10 -53 -10 -96q0 -44 20 -62t74 -18h25l-13 -80h-28z" />
    <glyph glyph-name="Lslash" unicode="&#x141;" horiz-adv-x="724" 
d="M70 0l80 463l-117 -109l18 111l119 108l156 889h90l-140 -800l318 296l-21 -110l-317 -295l-84 -473h451l-15 -80h-538z" />
    <glyph glyph-name="lslash" unicode="&#x142;" horiz-adv-x="411" 
d="M250 0q-168 0 -168 122q0 58 14 136l64 371l-144 -133l21 112l143 131l127 723h88l-112 -637l178 162l-21 -113l-176 -159l-82 -459q-10 -57 -10 -98q0 -42 20 -60t74 -18h27l-14 -80h-29z" />
    <glyph glyph-name="Nacute" unicode="&#x143;" horiz-adv-x="958" 
d="M625 1632l141 273h108l-184 -273h-65zM70 0l258 1462h88l248 -1249l221 1249h86l-258 -1462h-86l-248 1251l-221 -1251h-88z" />
    <glyph glyph-name="nacute" unicode="&#x144;" horiz-adv-x="765" 
d="M446 1194l142 274h108l-184 -274h-66zM506 1028q80 0 129 -51t49 -128t-20 -204l-115 -645h-88l117 655q16 104 16 150q0 143 -115 143q-94 0 -149 -84t-90 -272l-105 -592h-88l178 1012h70l-12 -101q47 63 95 90t128 27z" />
    <glyph glyph-name="Ncommaaccent" unicode="&#x145;" horiz-adv-x="958" 
d="M221 -430l117 278h98l-153 -278h-62zM70 0l258 1462h88l248 -1249l221 1249h86l-258 -1462h-86l-248 1251l-221 -1251h-88z" />
    <glyph glyph-name="ncommaaccent" unicode="&#x146;" horiz-adv-x="765" 
d="M127 -430l117 278h98l-154 -278h-61zM506 1028q80 0 129 -51t49 -128t-20 -204l-115 -645h-88l117 655q16 104 16 150q0 143 -115 143q-94 0 -149 -84t-90 -272l-105 -592h-88l178 1012h70l-12 -101q47 63 95 90t128 27z" />
    <glyph glyph-name="Ncaron" unicode="&#x147;" horiz-adv-x="958" 
d="M686 1722l121 170h98l-203 -247h-53l-114 247h92zM70 0l258 1462h88l248 -1249l221 1249h86l-258 -1462h-86l-248 1251l-221 -1251h-88z" />
    <glyph glyph-name="ncaron" unicode="&#x148;" horiz-adv-x="765" 
d="M514 1284l121 170h98l-203 -248h-53l-115 248h93zM506 1028q80 0 129 -51t49 -128t-20 -204l-115 -645h-88l117 655q16 104 16 150q0 143 -115 143q-94 0 -149 -84t-90 -272l-105 -592h-88l178 1012h70l-12 -101q47 63 95 90t128 27z" />
    <glyph glyph-name="napostrophe" unicode="&#x149;" horiz-adv-x="806" 
d="M113 1006l129 456h92l-148 -456h-73zM711 849q0 -77 -21 -204l-115 -645h-88l117 655q16 106 17 150q0 143 -115 143q-94 0 -150 -84t-90 -272l-104 -592h-88l178 1012h70l-13 -101q51 68 97 93q46 24 126 24t130 -51t49 -128z" />
    <glyph glyph-name="Eng" unicode="&#x14a;" horiz-adv-x="958" 
d="M70 0l258 1462h88l248 -1249l221 1249h86l-271 -1542q-36 -211 -108 -302t-205 -89l14 78q82 -6 134 69q51 76 77 244l15 80l-248 1251l-221 -1251h-88z" />
    <glyph glyph-name="eng" unicode="&#x14b;" horiz-adv-x="765" 
d="M505 1028q81 0 130 -51t49 -128t-20 -204l-127 -721q-33 -211 -108 -304t-208 -91l15 80q82 -7 133 69t80 248l129 729q16 104 16 150q0 143 -115 143q-94 0 -149 -84t-90 -272l-105 -592h-88l178 1012h70l-12 -101q49 65 95 91t127 26z" />
    <glyph glyph-name="Omacron" unicode="&#x14c;" horiz-adv-x="899" 
d="M483 1729l13 69h313l-12 -69h-314zM786 1216q0 76 -50 130t-138 53q-127 0 -197 -105q-49 -68 -77 -235l-117 -656q-14 -84 -14 -137q1 -202 203 -202q102 0 165 78q63 79 96 261l115 656q14 81 14 157zM584 1479q146 0 220 -71q73 -71 73 -204q0 -66 -15 -151l-121 -678
q-20 -113 -43 -172t-65 -111q-89 -108 -237 -108t-221 70t-73 202q1 62 17 154l119 677q20 115 43 173t67 110q90 109 236 109z" />
    <glyph glyph-name="omacron" unicode="&#x14d;" horiz-adv-x="747" 
d="M356 1290l13 70h313l-12 -70h-314zM162 213q0 -152 133 -152q92 1 143 65t78 216l57 328q14 84 15 129q0 152 -133 151q-94 0 -145 -64q-50 -65 -77 -216l-59 -328q-12 -86 -12 -129zM455 1028q221 0 221 -225q0 -51 -19 -160l-55 -309q-31 -182 -94 -258
q-80 -92 -201 -92q-233 0 -233 223q0 64 18 162l53 309q33 186 97 258q80 92 213 92z" />
    <glyph glyph-name="Obreve" unicode="&#x14e;" horiz-adv-x="899" 
d="M584 1798q0 -88 75 -88q55 0 84 37t50 133h69q-23 -113 -41 -149q-47 -96 -162 -97q-71 0 -109 34t-38 84t12 128h68q-8 -51 -8 -82zM786 1216q0 76 -50 130t-138 53q-127 0 -197 -105q-49 -68 -77 -235l-117 -656q-14 -84 -14 -137q1 -202 203 -202q102 0 165 78
q63 79 96 261l115 656q14 81 14 157zM584 1479q146 0 220 -71q73 -71 73 -204q0 -66 -15 -151l-121 -678q-20 -113 -43 -172t-65 -111q-89 -108 -237 -108t-221 70t-73 202q1 62 17 154l119 677q20 115 43 173t67 110q90 109 236 109z" />
    <glyph glyph-name="obreve" unicode="&#x14f;" horiz-adv-x="747" 
d="M432 1360q0 -90 78 -90q53 0 82 38t49 134h70q-23 -113 -41 -150q-47 -96 -160 -96q-72 0 -111 34t-39 81t13 131h67q-8 -49 -8 -82zM162 213q0 -152 133 -152q92 1 143 65t78 216l57 328q14 84 15 129q0 152 -133 151q-94 0 -145 -64q-50 -65 -77 -216l-59 -328
q-12 -86 -12 -129zM455 1028q221 0 221 -225q0 -51 -19 -160l-55 -309q-31 -182 -94 -258q-80 -92 -201 -92q-233 0 -233 223q0 64 18 162l53 309q33 186 97 258q80 92 213 92z" />
    <glyph glyph-name="Ohungarumlaut" unicode="&#x150;" horiz-adv-x="899" 
d="M690 1632l123 273h98l-157 -273h-64zM528 1632l123 273h99l-158 -273h-64zM786 1216q0 76 -50 130t-138 53q-127 0 -197 -105q-49 -68 -77 -235l-117 -656q-14 -84 -14 -137q1 -202 203 -202q102 0 165 78q63 79 96 261l115 656q14 81 14 157zM584 1479q146 0 220 -71
q73 -71 73 -204q0 -66 -15 -151l-121 -678q-20 -113 -43 -172t-65 -111q-89 -108 -237 -108t-221 70t-73 202q1 62 17 154l119 677q20 115 43 173t67 110q90 109 236 109z" />
    <glyph glyph-name="ohungarumlaut" unicode="&#x151;" horiz-adv-x="747" 
d="M539 1194l123 274h98l-158 -274h-63zM377 1194l123 274h98l-158 -274h-63zM162 213q0 -152 133 -152q92 1 143 65t78 216l57 328q14 84 15 129q0 152 -133 151q-94 0 -145 -64q-50 -65 -77 -216l-59 -328q-12 -86 -12 -129zM455 1028q221 0 221 -225q0 -51 -19 -160
l-55 -309q-31 -182 -94 -258q-80 -92 -201 -92q-233 0 -233 223q0 64 18 162l53 309q33 186 97 258q80 92 213 92z" />
    <glyph glyph-name="OE" unicode="&#x152;" horiz-adv-x="1284" 
d="M193 266q0 -98 47 -150t135 -53q221 0 282 340l115 656q16 81 16 157t-48 130t-150 53q-207 0 -266 -340l-117 -656q-14 -86 -14 -137zM102 256q0 57 17 152l119 679q37 197 114 285q98 106 255 106t227 -114l16 98h518l-14 -80h-434l-107 -602h371l-15 -80h-368
l-111 -620h434l-14 -80h-516l16 98q-96 -114 -232 -114t-206 70t-70 202z" />
    <glyph glyph-name="oe" unicode="&#x153;" horiz-adv-x="1161" 
d="M1010 803q0 147 -129 147q-87 0 -137 -63t-76 -213l-19 -96h332q29 168 29 225zM162 213q0 -152 133 -152q92 1 142 65t77 214l59 332q12 74 13 125q0 154 -133 153q-92 0 -144 -64q-51 -65 -78 -214l-57 -332q-12 -57 -12 -127zM464 1028q146 0 193 -121q80 121 226 121
q102 0 157 -57t56 -164q0 -59 -21 -180l-14 -76q-4 -41 -8 -51h-422l-29 -160q-14 -82 -14 -125q0 -154 135 -154q90 -1 142 61t75 200h82q-25 -154 -68 -222q-72 -116 -230 -116t-204 127q-82 -127 -229 -127q-219 0 -219 219q0 65 16 155l55 308q33 188 97 266
q78 96 224 96z" />
    <glyph glyph-name="Racute" unicode="&#x154;" horiz-adv-x="862" 
d="M547 1632l141 273h109l-185 -273h-65zM426 743q96 0 150 26t98 89q86 129 86 316q0 108 -49 158t-168 50h-140l-112 -639h135zM545 1462q173 0 241 -72t68 -196q0 -122 -33 -230t-93 -183t-163 -101l97 -680h-99l-86 666h-201l-116 -666h-90l258 1462h217z" />
    <glyph glyph-name="racute" unicode="&#x155;" horiz-adv-x="514" 
d="M356 1194l142 274h108l-184 -274h-66zM461 1028q68 0 123 -47l-56 -74q-39 41 -82 41q-76 0 -129 -108t-94 -342l-88 -498h-88l178 1012h70l-8 -103q68 119 174 119z" />
    <glyph glyph-name="Rcommaaccent" unicode="&#x156;" horiz-adv-x="862" 
d="M178 -430l117 278h98l-153 -278h-62zM426 743q96 0 150 26t98 89q86 129 86 316q0 108 -49 158t-168 50h-140l-112 -639h135zM545 1462q173 0 241 -72t68 -196q0 -122 -33 -230t-93 -183t-163 -101l97 -680h-99l-86 666h-201l-116 -666h-90l258 1462h217z" />
    <glyph glyph-name="rcommaaccent" unicode="&#x157;" horiz-adv-x="514" 
d="M-94 -430l117 278h98l-154 -278h-61zM461 1028q68 0 123 -47l-56 -74q-39 41 -82 41q-76 0 -129 -108t-94 -342l-88 -498h-88l178 1012h70l-8 -103q68 119 174 119z" />
    <glyph glyph-name="Rcaron" unicode="&#x158;" horiz-adv-x="862" 
d="M594 1722l121 170h98l-203 -247h-53l-115 247h93zM426 743q96 0 150 26t98 89q86 129 86 316q0 108 -49 158t-168 50h-140l-112 -639h135zM545 1462q173 0 241 -72t68 -196q0 -122 -33 -230t-93 -183t-163 -101l97 -680h-99l-86 666h-201l-116 -666h-90l258 1462h217z
" />
    <glyph glyph-name="rcaron" unicode="&#x159;" horiz-adv-x="514" 
d="M410 1284l120 170h99l-203 -248h-53l-115 248h92zM461 1028q68 0 123 -47l-56 -74q-39 41 -82 41q-76 0 -129 -108t-94 -342l-88 -498h-88l178 1012h70l-8 -103q68 119 174 119z" />
    <glyph glyph-name="Sacute" unicode="&#x15a;" horiz-adv-x="784" 
d="M532 1632l142 273h108l-184 -273h-66zM207 1032q0 172 84 309t239 138q117 0 184 -67t66 -181q0 -51 -16 -139h-86q12 63 12 116q0 190 -160 191q-117 0 -178 -125q-53 -102 -53 -210t37 -164q38 -56 144 -110t143 -102q53 -72 53 -226t-74 -298q-92 -180 -285 -180
q-123 0 -195 68t-73 179q1 55 19 166h84q-14 -87 -14 -161t46 -123q47 -49 133 -50q147 0 215 160q52 117 52 233t-39 171q-27 35 -136 89t-156 128q-46 74 -46 188z" />
    <glyph glyph-name="sacute" unicode="&#x15b;" horiz-adv-x="671" 
d="M399 1194l142 274h108l-184 -274h-66zM111 203q0 -141 145 -142q96 0 160 77q63 77 63 190q0 63 -35 94q-16 16 -31 23t-104 38t-132 80q-42 49 -42 135q0 146 76 238q75 92 187 92t167 -53t56 -150q0 -43 -15 -123h-82q12 61 13 111q0 137 -125 137q-84 0 -137 -68
q-52 -69 -52 -175q0 -72 56 -113q35 -20 147 -59q141 -51 141 -189q0 -162 -86 -262t-209 -100t-183 52t-60 148q0 56 16 152h82q-16 -88 -16 -133z" />
    <glyph glyph-name="Scircumflex" unicode="&#x15c;" horiz-adv-x="784" 
d="M604 1817l-121 -170h-98l203 247h53l115 -247h-92zM207 1032q0 172 84 309t239 138q117 0 184 -67t66 -181q0 -51 -16 -139h-86q12 63 12 116q0 190 -160 191q-117 0 -178 -125q-53 -102 -53 -210t37 -164q38 -56 144 -110t143 -102q53 -72 53 -226t-74 -298
q-92 -180 -285 -180q-123 0 -195 68t-73 179q1 55 19 166h84q-14 -87 -14 -161t46 -123q47 -49 133 -50q147 0 215 160q52 117 52 233t-39 171q-27 35 -136 89t-156 128q-46 74 -46 188z" />
    <glyph glyph-name="scircumflex" unicode="&#x15d;" horiz-adv-x="671" 
d="M494 1378l-121 -170h-99l203 246h53l115 -246h-92zM111 203q0 -141 145 -142q96 0 160 77q63 77 63 190q0 63 -35 94q-16 16 -31 23t-104 38t-132 80q-42 49 -42 135q0 146 76 238q75 92 187 92t167 -53t56 -150q0 -43 -15 -123h-82q12 61 13 111q0 137 -125 137
q-84 0 -137 -68q-52 -69 -52 -175q0 -72 56 -113q35 -20 147 -59q141 -51 141 -189q0 -162 -86 -262t-209 -100t-183 52t-60 148q0 56 16 152h82q-16 -88 -16 -133z" />
    <glyph glyph-name="Scedilla" unicode="&#x15e;" horiz-adv-x="784" 
d="M117 -430l116 278h99l-154 -278h-61zM207 1032q0 172 84 309t239 138q117 0 184 -67t66 -181q0 -51 -16 -139h-86q12 63 12 116q0 190 -160 191q-117 0 -178 -125q-53 -102 -53 -210t37 -164q38 -56 144 -110t143 -102q53 -72 53 -226t-74 -298q-92 -180 -285 -180
q-123 0 -195 68t-73 179q1 55 19 166h84q-14 -87 -14 -161t46 -123q47 -49 133 -50q147 0 215 160q52 117 52 233t-39 171q-27 35 -136 89t-156 128q-46 74 -46 188z" />
    <glyph glyph-name="scedilla" unicode="&#x15f;" horiz-adv-x="671" 
d="M82 -430l117 278h98l-154 -278h-61zM111 203q0 -141 145 -142q96 0 160 77q63 77 63 190q0 63 -35 94q-16 16 -31 23t-104 38t-132 80q-42 49 -42 135q0 146 76 238q75 92 187 92t167 -53t56 -150q0 -43 -15 -123h-82q12 61 13 111q0 137 -125 137q-84 0 -137 -68
q-52 -69 -52 -175q0 -72 56 -113q35 -20 147 -59q141 -51 141 -189q0 -162 -86 -262t-209 -100t-183 52t-60 148q0 56 16 152h82q-16 -88 -16 -133z" />
    <glyph glyph-name="Scaron" unicode="&#x160;" horiz-adv-x="784" 
d="M596 1722l121 170h98l-203 -247h-53l-115 247h93zM207 1032q0 172 84 309t239 138q117 0 184 -67t66 -181q0 -51 -16 -139h-86q12 63 12 116q0 190 -160 191q-117 0 -178 -125q-53 -102 -53 -210t37 -164q38 -56 144 -110t143 -102q53 -72 53 -226t-74 -298
q-92 -180 -285 -180q-123 0 -195 68t-73 179q1 55 19 166h84q-14 -87 -14 -161t46 -123q47 -49 133 -50q147 0 215 160q52 117 52 233t-39 171q-27 35 -136 89t-156 128q-46 74 -46 188z" />
    <glyph glyph-name="scaron" unicode="&#x161;" horiz-adv-x="671" 
d="M467 1284l121 170h98l-203 -248h-53l-115 248h93zM111 203q0 -141 145 -142q96 0 160 77q63 77 63 190q0 63 -35 94q-16 16 -31 23t-104 38t-132 80q-42 49 -42 135q0 146 76 238q75 92 187 92t167 -53t56 -150q0 -43 -15 -123h-82q12 61 13 111q0 137 -125 137
q-84 0 -137 -68q-52 -69 -52 -175q0 -72 56 -113q35 -20 147 -59q141 -51 141 -189q0 -162 -86 -262t-209 -100t-183 52t-60 148q0 56 16 152h82q-16 -88 -16 -133z" />
    <glyph glyph-name="Tcommaaccent" unicode="&#x162;" horiz-adv-x="657" 
d="M53 -430l117 278h98l-153 -278h-62zM195 0l243 1382h-248l13 80h590l-15 -80h-250l-243 -1382h-90z" />
    <glyph glyph-name="tcommaaccent" unicode="&#x163;" horiz-adv-x="430" 
d="M-27 -430l117 278h98l-153 -278h-62zM258 0q-166 0 -166 118q0 58 23 193l110 623h-82l15 78h82l63 344h86l-61 -344h121l-15 -78h-121l-114 -653q-16 -86 -17 -123q0 -78 82 -78h27l-15 -80h-18z" />
    <glyph glyph-name="Tcaron" unicode="&#x164;" horiz-adv-x="657" 
d="M541 1722l121 170h98l-203 -247h-53l-115 247h92zM197 0l243 1382h-250l15 80h588l-15 -80h-248l-243 -1382h-90z" />
    <glyph glyph-name="tcaron" unicode="&#x165;" horiz-adv-x="493" 
d="M508 1108l96 383h90l-125 -383h-61zM258 0q-166 0 -166 120q0 60 23 191l110 623h-82l15 78h82l63 344h84l-59 -344h121l-15 -78h-121l-114 -653q-16 -86 -17 -123q0 -78 80 -78h29l-15 -80h-18z" />
    <glyph glyph-name="Tbar" unicode="&#x166;" horiz-adv-x="657" 
d="M195 0l124 700h-182l15 80h180l106 602h-248l13 80h590l-15 -80h-250l-106 -602h182l-14 -80h-180l-125 -700h-90z" />
    <glyph glyph-name="tbar" unicode="&#x167;" horiz-adv-x="430" 
d="M260 80h29l-15 -80h-18q-90 0 -128 30t-38 90t23 185l59 336h-82l12 74h82l39 219h-82l15 78h82l63 344h84l-59 -344h120l-14 -78h-121l-39 -219h123l-12 -74h-123l-63 -362q-16 -84 -17 -119q0 -80 80 -80z" />
    <glyph glyph-name="Utilde" unicode="&#x168;" horiz-adv-x="917" 
d="M750 1661q-50 0 -91 68q-25 41 -35 53q-11 12 -26 12q-33 0 -68 -117h-57q53 184 139 185q54 0 94 -67t62 -66q33 0 66 116h57q-29 -104 -60 -144t-81 -40zM207 236q0 -172 180 -173q137 0 205 113q37 57 59 193l195 1093h90l-197 -1110q-19 -110 -37 -158t-55 -96
q-92 -115 -264 -114q-127 0 -197 62t-69 177q0 66 18 162l189 1077h90l-193 -1093q-14 -84 -14 -133z" />
    <glyph glyph-name="utilde" unicode="&#x169;" horiz-adv-x="749" 
d="M453 1423q49 -1 89 -67t62 -66q35 0 66 119h57q-27 -102 -57 -144t-83 -42q-52 0 -91 67q-25 41 -36 53t-26 13q-32 0 -67 -117h-58q29 98 62 141t82 43zM172 203q0 -139 107 -140q88 0 142 84t89 273l104 592h88l-178 -1012h-69l12 104q-49 -70 -93 -96t-121 -24
q-77 0 -124 51t-47 127t20 205l115 645h88l-117 -658q-16 -104 -16 -151z" />
    <glyph glyph-name="Umacron" unicode="&#x16a;" horiz-adv-x="917" 
d="M510 1729l12 69h314l-13 -69h-313zM207 236q0 -172 180 -173q137 0 205 113q37 57 59 193l195 1093h90l-197 -1110q-19 -110 -37 -158t-55 -96q-92 -115 -264 -114q-127 0 -197 62t-69 177q0 66 18 162l189 1077h90l-193 -1093q-14 -84 -14 -133z" />
    <glyph glyph-name="umacron" unicode="&#x16b;" horiz-adv-x="749" 
d="M354 1290l13 70h313l-12 -70h-314zM172 203q0 -139 107 -140q88 0 142 84t89 273l104 592h88l-178 -1012h-69l12 104q-49 -70 -93 -96t-121 -24q-77 0 -124 51t-47 127t20 205l115 645h88l-117 -658q-16 -104 -16 -151z" />
    <glyph glyph-name="Ubreve" unicode="&#x16c;" horiz-adv-x="917" 
d="M594 1798q0 -88 76 -88q55 0 84 37t49 133h69q-23 -113 -41 -149q-49 -96 -161 -97q-70 0 -109 34t-39 84t13 128h67q-8 -51 -8 -82zM207 236q0 -172 180 -173q137 0 205 113q37 57 59 193l195 1093h90l-197 -1110q-19 -110 -37 -158t-55 -96q-92 -115 -264 -114
q-127 0 -197 62t-69 177q0 66 18 162l189 1077h90l-193 -1093q-14 -84 -14 -133z" />
    <glyph glyph-name="ubreve" unicode="&#x16d;" horiz-adv-x="749" 
d="M430 1360q0 -90 78 -90q53 0 82 38t49 134h70q-23 -113 -41 -150q-49 -96 -160 -96q-72 0 -111 34t-39 81t13 131h67q-8 -49 -8 -82zM172 203q0 -139 107 -140q88 0 142 84t89 273l104 592h88l-178 -1012h-69l12 104q-49 -70 -93 -96t-121 -24q-77 0 -124 51t-47 127
t20 205l115 645h88l-117 -658q-16 -104 -16 -151z" />
    <glyph glyph-name="Uring" unicode="&#x16e;" horiz-adv-x="917" 
d="M707 1937q-49 0 -81 -48t-32 -130t78 -82q49 0 81 48t31 122q1 90 -77 90zM678 1618q-156 0 -156 169q0 85 54 147t128 63q76 0 114 -43t38 -120q0 -76 -50 -146t-128 -70zM207 236q0 -172 180 -173q137 0 205 113q37 57 59 193l195 1093h90l-197 -1110
q-19 -110 -37 -158t-55 -96q-92 -115 -264 -114q-127 0 -197 62t-69 177q0 66 18 162l189 1077h90l-193 -1093q-14 -84 -14 -133z" />
    <glyph glyph-name="uring" unicode="&#x16f;" horiz-adv-x="749" 
d="M545 1499q-49 0 -81 -48t-32 -130t78 -82q49 0 81 48t32 130t-78 82zM360 1348q0 84 54 148q54 63 128 63q76 0 114 -43t38 -120t-47 -143q-49 -73 -129 -73t-119 42t-39 126zM172 203q0 -139 107 -140q88 0 142 84t89 273l104 592h88l-178 -1012h-69l12 104
q-49 -70 -93 -96t-121 -24q-77 0 -124 51t-47 127t20 205l115 645h88l-117 -658q-16 -104 -16 -151z" />
    <glyph glyph-name="Uhungarumlaut" unicode="&#x170;" horiz-adv-x="917" 
d="M700 1632l123 273h99l-158 -273h-64zM539 1632l123 273h98l-158 -273h-63zM207 236q0 -172 180 -173q137 0 205 113q37 57 59 193l195 1093h90l-197 -1110q-19 -110 -37 -158t-55 -96q-92 -115 -264 -114q-127 0 -197 62t-69 177q0 66 18 162l189 1077h90l-193 -1093
q-14 -84 -14 -133z" />
    <glyph glyph-name="uhungarumlaut" unicode="&#x171;" horiz-adv-x="749" 
d="M537 1194l122 274h99l-158 -274h-63zM375 1194l123 274h98l-158 -274h-63zM172 203q0 -139 107 -140q88 0 142 84t89 273l104 592h88l-178 -1012h-69l12 104q-49 -70 -93 -96t-121 -24q-77 0 -124 51t-47 127t20 205l115 645h88l-117 -658q-16 -104 -16 -151z" />
    <glyph glyph-name="Uogonek" unicode="&#x172;" horiz-adv-x="917" 
d="M328 -248q0 -53 73 -53q29 0 76 16l2 -65q-53 -20 -108 -21q-131 0 -131 107q0 63 43 131t114 119q-6 -2 -14 -2q-119 -8 -193 58t-73 181q0 66 18 162l189 1077h90l-193 -1093q-14 -84 -14 -133q0 -172 180 -173q137 0 205 113q37 57 59 193l195 1093h90l-197 -1110
q-20 -147 -75 -232t-156 -120q-180 -131 -180 -248z" />
    <glyph glyph-name="uogonek" unicode="&#x173;" horiz-adv-x="749" 
d="M338 -248q0 -53 74 -53q29 0 77 16v-65q-53 -20 -108 -21q-131 0 -131 105q0 76 48 142t159 136l10 92q-49 -70 -93 -96t-121 -24q-77 0 -124 51t-47 127t20 205l115 645h88l-117 -658q-16 -104 -16 -151q0 -139 107 -140q88 0 142 84t89 273l104 592h88l-178 -1012
q-186 -131 -186 -248z" />
    <glyph glyph-name="Wcircumflex" unicode="&#x174;" horiz-adv-x="1169" 
d="M817 1817l-121 -170h-98l203 247h53l115 -247h-92zM178 0l60 1462h88l-64 -1231l457 1231h61l23 -1231l373 1231h88l-455 -1462h-74l-24 1231l-457 -1231h-76z" />
    <glyph glyph-name="wcircumflex" unicode="&#x175;" horiz-adv-x="1017" 
d="M664 1378l-121 -170h-99l203 246h53l115 -246h-92zM176 0l-18 1012h88l-2 -844l321 844h60l24 -844l297 844h90l-374 -1012h-68l-29 834l-319 -834h-70z" />
    <glyph glyph-name="Ycircumflex" unicode="&#x176;" horiz-adv-x="729" 
d="M600 1817l-121 -170h-98l203 247h53l115 -247h-93zM231 0l97 553l-133 909h90l108 -780l385 780h94l-454 -909l-96 -553h-91z" />
    <glyph glyph-name="ycircumflex" unicode="&#x177;" horiz-adv-x="653" 
d="M483 1378l-121 -170h-98l203 246h53l115 -246h-92zM195 -16l-58 1028h84l39 -906l334 906h90l-475 -1239q-59 -143 -117 -193t-168 -51l15 80q73 0 107 33t77 143z" />
    <glyph glyph-name="Ydieresis" unicode="&#x178;" horiz-adv-x="729" 
d="M649 1653l33 180h80l-31 -180h-82zM401 1653l31 180h82l-33 -180h-80zM231 0l97 553l-133 909h90l108 -780l385 780h94l-454 -909l-96 -553h-91z" />
    <glyph glyph-name="Zacute" unicode="&#x179;" horiz-adv-x="712" 
d="M500 1632l141 273h109l-185 -273h-65zM-14 0l10 53l668 1329h-408l14 80h508l-10 -53l-668 -1329h453l-14 -80h-553z" />
    <glyph glyph-name="zacute" unicode="&#x17a;" horiz-adv-x="628" 
d="M403 1194l142 274h108l-184 -274h-66zM-14 0l8 49l500 883h-318l14 80h418l-8 -49l-500 -883h363l-14 -80h-463z" />
    <glyph glyph-name="Zdotaccent" unicode="&#x17b;" horiz-adv-x="712" 
d="M516 1653l33 180h86l-33 -180h-86zM-14 0l10 53l668 1329h-408l14 80h508l-10 -53l-668 -1329h453l-14 -80h-553z" />
    <glyph glyph-name="zdotaccent" unicode="&#x17c;" horiz-adv-x="628" 
d="M397 1214l31 181h88l-33 -181h-86zM-14 0l8 49l500 883h-318l14 80h418l-8 -49l-500 -883h363l-14 -80h-463z" />
    <glyph glyph-name="Zcaron" unicode="&#x17d;" horiz-adv-x="712" 
d="M567 1722l121 170h98l-202 -247h-54l-114 247h92zM-14 0l10 53l668 1329h-408l14 80h508l-10 -53l-668 -1329h453l-14 -80h-553z" />
    <glyph glyph-name="zcaron" unicode="&#x17e;" horiz-adv-x="628" 
d="M451 1284l120 170h99l-203 -248h-53l-115 248h92zM-14 0l8 49l500 883h-318l14 80h418l-8 -49l-500 -883h363l-14 -80h-463z" />
    <glyph glyph-name="Ohorn" unicode="&#x1a0;" horiz-adv-x="948" 
d="M786 1218q0 76 -49 130t-139 53q-127 0 -197 -105q-49 -72 -77 -237l-117 -656q-14 -84 -14 -137q1 -202 203 -202q102 0 165 78q63 79 96 261l115 656q14 83 14 159zM1098 1448q0 -142 -104 -232q-26 -22 -122 -83l-2 -15v-10q-4 -29 -8 -55l-121 -678
q-20 -113 -43 -172t-65 -111q-89 -108 -237 -108t-221 70t-73 202q0 61 17 154l119 677q20 115 43 175t67 110q90 109 250 109q272 0 279 -273q66 49 86 76q57 72 57 156l-4 41h80q2 -12 2 -33z" />
    <glyph glyph-name="ohorn" unicode="&#x1a1;" horiz-adv-x="784" 
d="M162 213q0 -152 133 -152q92 -1 143 65t78 216l57 328q14 80 15 129q0 152 -133 151q-94 0 -145 -64q-50 -65 -77 -216l-59 -328q-12 -82 -12 -129zM879 1028v-33q0 -190 -215 -311q-2 -8 -2 -16l-60 -334q-31 -182 -94 -258q-80 -92 -201 -92q-233 0 -233 223
q0 63 18 162l53 309q33 186 97 258q80 94 213 94q221 0 221 -229q0 -23 -2 -41q127 106 127 227q0 23 -4 41h82z" />
    <glyph glyph-name="Uhorn" unicode="&#x1af;" horiz-adv-x="987" 
d="M207 236q0 -172 180 -173q137 0 205 113q37 57 59 193l195 1093h90l-53 -297q106 67 153 131t47 144q0 23 -4 41h82v-37q-3 -113 -69 -193t-224 -164l-129 -735q-19 -110 -37 -158t-55 -96q-92 -115 -264 -114q-127 0 -197 62t-69 177q0 66 18 162l189 1077h90
l-193 -1093q-14 -80 -14 -133z" />
    <glyph glyph-name="uhorn" unicode="&#x1b0;" horiz-adv-x="815" 
d="M928 1028v-35q0 -109 -68 -193t-225 -165l-111 -635h-69l12 104q-49 -70 -93 -96t-121 -24q-77 0 -124 51t-47 127t20 205l115 645h88l-117 -658q-16 -98 -16 -151q0 -139 107 -140q88 0 142 84t89 273l104 592h88l-53 -299q201 123 201 278q0 18 -4 37h82z" />
    <glyph glyph-name="uni01C4" unicode="&#x1c4;" horiz-adv-x="1556" 
d="M829 0l11 53l667 1329h-405l14 80h506l-10 -53l-668 -1329h453l-15 -80h-553zM1413 1722l119 170h100l-202 -247h-54l-116 247h92zM788 1186q0 197 -202 196h-185l-229 -1302h184q252 -4 303 328l115 647q14 80 14 131zM588 1462q293 0 293 -268q0 -47 -17 -141
l-121 -678q-29 -185 -126 -281t-255 -94h-294l258 1462h262z" />
    <glyph glyph-name="uni01C5" unicode="&#x1c5;" horiz-adv-x="1529" 
d="M1352 1284l121 170h98l-201 -248h-55l-115 248h92zM887 0l8 49l500 883h-316l13 80h419l-8 -49l-502 -883h365l-14 -80h-465zM788 1186q0 197 -202 196h-185l-229 -1302h184q252 -4 303 328l115 647q14 80 14 131zM588 1462q293 0 293 -268q0 -47 -17 -141l-121 -678
q-29 -185 -126 -281t-255 -94h-294l258 1462h262z" />
    <glyph glyph-name="uni01C6" unicode="&#x1c6;" horiz-adv-x="1392" 
d="M750 0l8 49l499 883h-317l14 80h418l-8 -49l-500 -883h363l-15 -80h-462zM1214 1284l119 170h101l-203 -248h-53l-117 248h92zM166 233q0 -170 123 -170q172 0 239 375l25 135q18 106 18 175q0 201 -131 200q-158 1 -207 -282l-55 -310q-12 -76 -12 -123zM78 221
q0 68 14 152l55 307q31 180 102 264t195 84t170 -110l95 544h88l-256 -1462h-72l10 102q-76 -119 -198 -118q-203 0 -203 237z" />
    <glyph glyph-name="uni01C7" unicode="&#x1c7;" horiz-adv-x="1130" 
d="M561 -494q-61 0 -131 29l51 72q35 -20 76 -21q111 0 168 121q25 53 55 223l271 1532h90l-273 -1542q-39 -219 -82 -287q-78 -127 -225 -127zM68 0l258 1462h90l-244 -1382h449l-15 -80h-538z" />
    <glyph glyph-name="uni01C8" unicode="&#x1c8;" horiz-adv-x="1095" 
d="M956 1012h88l-190 -1084q-34 -219 -106 -312t-209 -87l14 80q84 -7 135 69t78 248zM1004 1280l32 182h88l-32 -182h-88zM68 0l258 1462h90l-244 -1382h449l-15 -80h-538z" />
    <glyph glyph-name="uni01C9" unicode="&#x1c9;" horiz-adv-x="776" 
d="M639 1012h88l-190 -1084q-35 -219 -108 -312t-208 -87l12 80q84 -6 136 69q51 76 77 248zM686 1280l33 182h88l-33 -182h-88zM248 0q-168 0 -168 126q0 62 14 142l211 1194h88l-213 -1206q-10 -53 -10 -96q0 -44 20 -62t74 -18h25l-13 -80h-28z" />
    <glyph glyph-name="uni01CA" unicode="&#x1ca;" horiz-adv-x="1363" 
d="M797 -494q-61 0 -131 29l51 72q37 -20 76 -21q111 0 168 121q25 53 55 223l270 1532h90l-272 -1542q-39 -221 -82 -287q-78 -127 -225 -127zM70 0l258 1462h88l248 -1249l221 1249h86l-258 -1462h-86l-248 1251l-221 -1251h-88z" />
    <glyph glyph-name="uni01CB" unicode="&#x1cb;" horiz-adv-x="1329" 
d="M1192 1012h88l-190 -1084q-33 -219 -106 -312t-210 -87l14 80q84 -6 136 69q51 76 77 248zM1239 1280l33 182h88l-33 -182h-88zM70 0l258 1462h88l248 -1249l221 1249h86l-258 -1462h-86l-248 1251l-221 -1251h-88z" />
    <glyph glyph-name="uni01CC" unicode="&#x1cc;" horiz-adv-x="1136" 
d="M999 1012h88l-190 -1084q-35 -219 -107 -312t-208 -87l14 80q84 -7 134 69t77 248zM1047 1280l32 182h88l-32 -182h-88zM506 1028q80 0 129 -51t49 -128t-20 -204l-115 -645h-88l117 655q16 104 16 150q0 143 -115 143q-94 0 -149 -84t-90 -272l-105 -592h-88l178 1012
h70l-12 -101q47 63 95 90t128 27z" />
    <glyph glyph-name="uni01CD" unicode="&#x1cd;" horiz-adv-x="776" 
d="M584 1722l121 170h98l-203 -247h-53l-115 247h92zM565 426l-30 885l-345 -885h375zM567 346h-407l-133 -346h-99l592 1462h76l80 -1462h-96z" />
    <glyph glyph-name="uni01CE" unicode="&#x1ce;" horiz-adv-x="716" 
d="M492 1284l120 170h99l-203 -248h-53l-115 248h92zM350 496q-241 0 -241 -310q1 -66 35 -96t120 -29t129 49t68 183l35 203h-146zM422 948q-84 0 -131 -58t-70 -190h-82q25 147 72 218q74 111 215 110q205 0 205 -209q0 -61 -19 -164l-114 -655h-72l4 63q-35 -45 -76 -62
t-114 -17q-222 0 -222 185t77 293t255 109h160l18 107q14 80 15 133q0 137 -121 137z" />
    <glyph glyph-name="uni01CF" unicode="&#x1cf;" horiz-adv-x="405" 
d="M414 1722l121 170h98l-203 -247h-53l-115 247h92zM70 0l258 1462h90l-258 -1462h-90z" />
    <glyph glyph-name="uni01D0" unicode="&#x1d0;" horiz-adv-x="364" 
d="M315 1284l121 170h99l-201 -248h-55l-115 248h92zM49 0l178 1012h88l-178 -1012h-88z" />
    <glyph glyph-name="uni01D1" unicode="&#x1d1;" horiz-adv-x="899" 
d="M659 1722l121 170h99l-201 -247h-55l-115 247h92zM786 1216q0 76 -50 130t-138 53q-127 0 -197 -105q-49 -68 -77 -235l-117 -656q-14 -84 -14 -137q1 -202 203 -202q102 0 165 78q63 79 96 261l115 656q14 81 14 157zM584 1479q146 0 220 -71q73 -71 73 -204
q0 -66 -15 -151l-121 -678q-20 -113 -43 -172t-65 -111q-89 -108 -237 -108t-221 70t-73 202q1 62 17 154l119 677q20 115 43 173t67 110q90 109 236 109z" />
    <glyph glyph-name="uni01D2" unicode="&#x1d2;" horiz-adv-x="747" 
d="M508 1284l121 170h98l-203 -248h-53l-115 248h93zM162 213q0 -152 133 -152q92 1 143 65t78 216l57 328q14 84 15 129q0 152 -133 151q-94 0 -145 -64q-50 -65 -77 -216l-59 -328q-12 -86 -12 -129zM455 1028q221 0 221 -225q0 -51 -19 -160l-55 -309q-31 -182 -94 -258
q-80 -92 -201 -92q-233 0 -233 223q0 64 18 162l53 309q33 186 97 258q80 92 213 92z" />
    <glyph glyph-name="uni01D3" unicode="&#x1d3;" horiz-adv-x="917" 
d="M657 1722l121 170h99l-203 -247h-53l-115 247h92zM207 236q0 -172 180 -173q137 0 205 113q37 57 59 193l195 1093h90l-197 -1110q-19 -110 -37 -158t-55 -96q-92 -115 -264 -114q-127 0 -197 62t-69 177q0 66 18 162l189 1077h90l-193 -1093q-14 -84 -14 -133z" />
    <glyph glyph-name="uni01D4" unicode="&#x1d4;" horiz-adv-x="749" 
d="M508 1284l121 170h98l-203 -248h-53l-115 248h93zM172 203q0 -139 107 -140q88 0 142 84t89 273l104 592h88l-178 -1012h-69l12 104q-49 -70 -93 -96t-121 -24q-77 0 -124 51t-47 127t20 205l115 645h88l-117 -658q-16 -104 -16 -151z" />
    <glyph glyph-name="Gcaron" unicode="&#x1e6;" horiz-adv-x="872" 
d="M633 1722l121 170h98l-203 -247h-53l-115 247h92zM102 246q0 70 19 170l117 665q37 205 110 293q92 104 228 104t204 -62t68 -175q0 -57 -17 -149h-83q10 72 10 120q0 186 -174 187q-106 0 -166 -79t-92 -257l-119 -664q-14 -84 -14 -141q0 -195 176 -195q227 0 284 338
l47 261h-196l12 77h287l-60 -340q-37 -207 -116 -301q-101 -114 -245 -114q-280 0 -280 262z" />
    <glyph glyph-name="gcaron" unicode="&#x1e7;" horiz-adv-x="763" 
d="M514 1284l121 170h98l-203 -248h-53l-115 248h93zM166 231q0 -168 123 -168q174 0 237 375l25 135q18 106 18 175q0 201 -131 200q-158 1 -207 -282l-55 -314q-10 -55 -10 -121zM217 -475q-203 0 -205 172q0 49 15 119h79q-8 -59 -8 -88q0 -125 121 -125q88 0 135 62
t74 212l37 211q-72 -104 -189 -104q-201 0 -200 237q0 72 16 152l53 307q33 180 103 264t194 84t174 -113l29 97h72l-203 -1143q-32 -186 -100 -265t-197 -79z" />
    <glyph glyph-name="uni01EA" unicode="&#x1ea;" horiz-adv-x="899" 
d="M786 1216q0 76 -50 130t-138 53q-127 0 -197 -105q-49 -68 -77 -235l-117 -656q-14 -79 -14 -157t50 -131t138 -54q125 0 199 105q48 75 77 237l115 656q14 81 14 157zM317 -248q0 -53 74 -53q29 0 78 16v-65q-53 -20 -109 -21q-131 0 -131 105q0 135 156 250
q-137 -2 -210 68t-73 204q0 61 17 154l119 677q20 115 43 173t67 110q90 109 236 109t220 -71q73 -71 73 -204q0 -66 -15 -151l-121 -678q-42 -309 -243 -375l-9 -6l-8 -6q-164 -117 -164 -236z" />
    <glyph glyph-name="uni01EB" unicode="&#x1eb;" horiz-adv-x="747" 
d="M162 213q0 -152 133 -152q92 1 143 65t78 216l57 328q14 84 15 129q0 152 -133 151q-94 0 -145 -64q-50 -65 -77 -216l-59 -328q-12 -86 -12 -129zM244 -248q0 -53 71 -53q29 0 78 16l2 -65q-55 -20 -108 -21q-131 0 -131 105q0 133 145 250q-227 -4 -227 223
q0 63 18 162l53 307q33 186 105 269t205 83q221 0 221 -225q0 -51 -19 -160l-55 -309q-24 -135 -62 -209t-114 -115l-12 -8q-170 -135 -170 -250z" />
    <glyph glyph-name="uni01F1" unicode="&#x1f1;" horiz-adv-x="1556" 
d="M829 0l11 53l667 1329h-405l14 80h506l-10 -53l-668 -1329h453l-15 -80h-553zM788 1186q0 197 -202 196h-185l-229 -1302h184q252 -4 303 328l115 647q14 80 14 131zM588 1462q293 0 293 -268q0 -47 -17 -141l-121 -678q-29 -185 -126 -281t-255 -94h-294l258 1462h262z
" />
    <glyph glyph-name="uni01F2" unicode="&#x1f2;" horiz-adv-x="1529" 
d="M887 0l8 49l500 883h-316l13 80h419l-8 -49l-502 -883h365l-14 -80h-465zM788 1186q0 197 -202 196h-185l-229 -1302h184q252 -4 303 328l115 647q14 80 14 131zM588 1462q293 0 293 -268q0 -47 -17 -141l-121 -678q-29 -185 -126 -281t-255 -94h-294l258 1462h262z" />
    <glyph glyph-name="uni01F3" unicode="&#x1f3;" horiz-adv-x="1392" 
d="M750 0l8 49l499 883h-317l14 80h418l-8 -49l-500 -883h363l-15 -80h-462zM166 233q0 -170 123 -170q172 0 239 375l25 135q18 106 18 175q0 201 -131 200q-158 1 -207 -282l-55 -310q-12 -76 -12 -123zM78 221q0 68 14 152l55 307q31 180 102 264t195 84t170 -110l95 544
h88l-256 -1462h-72l10 102q-76 -119 -198 -118q-203 0 -203 237z" />
    <glyph glyph-name="uni01F4" unicode="&#x1f4;" horiz-adv-x="872" 
d="M578 1632l141 273h108l-184 -273h-65zM102 246q0 70 19 170l117 665q37 205 110 293q92 104 228 104t204 -62t68 -175q0 -57 -17 -149h-83q10 72 10 120q0 186 -174 187q-106 0 -166 -79t-92 -257l-119 -664q-14 -84 -14 -141q0 -195 176 -195q227 0 284 338l47 261h-196
l12 77h287l-60 -340q-37 -207 -116 -301q-101 -114 -245 -114q-280 0 -280 262z" />
    <glyph glyph-name="uni01F5" unicode="&#x1f5;" horiz-adv-x="763" 
d="M457 1194l141 274h109l-185 -274h-65zM166 231q0 -168 123 -168q174 0 237 375l25 135q18 106 18 175q0 201 -131 200q-158 1 -207 -282l-55 -314q-10 -55 -10 -121zM217 -475q-203 0 -205 172q0 49 15 119h79q-8 -59 -8 -88q0 -125 121 -125q88 0 135 62t74 212l37 211
q-72 -104 -189 -104q-201 0 -200 237q0 72 16 152l53 307q33 180 103 264t194 84t174 -113l29 97h72l-203 -1143q-32 -186 -100 -265t-197 -79z" />
    <glyph glyph-name="Aringacute" unicode="&#x1fa;" horiz-adv-x="776" 
d="M567 1829l133 227h129l-200 -227h-62zM600 1729q-49 -1 -81 -49t-32 -106q0 -106 78 -106q49 0 81 48t32 131q0 82 -78 82zM565 426l-30 885l-345 -885h375zM416 1556q0 104 53 168t127 64t114 -42t40 -119t-44 -141t-106 -75l76 -1411h-96l-13 346h-407l-133 -346h-99
l574 1419q-86 33 -86 137z" />
    <glyph glyph-name="aringacute" unicode="&#x1fb;" horiz-adv-x="716" 
d="M496 1599l135 230h129l-203 -230h-61zM522 1458q-49 0 -81 -48q-31 -48 -31 -130t77 -82q49 0 81 48t32 130t-78 82zM516 1518q78 0 117 -43t39 -120t-47 -143q-49 -74 -129 -74q-158 1 -158 160q0 88 51 152q49 68 127 68zM350 496q-241 0 -241 -310q1 -66 35 -96
t120 -29t129 49t68 183l35 203h-146zM422 948q-84 0 -131 -58t-70 -190h-82q25 147 72 218q74 111 215 110q205 0 205 -209q0 -61 -19 -164l-114 -655h-72l4 63q-35 -45 -76 -62t-114 -17q-222 0 -222 185t77 293t255 109h160l18 107q14 80 15 133q0 137 -121 137z" />
    <glyph glyph-name="AEacute" unicode="&#x1fc;" horiz-adv-x="1236" 
d="M997 1632l142 273h108l-184 -273h-66zM614 432l168 950h-10l-539 -950h381zM602 352h-414l-198 -352h-105l846 1462h588l-12 -80h-435l-106 -602h369l-13 -80h-370l-109 -620h432l-14 -80h-522z" />
    <glyph glyph-name="aeacute" unicode="&#x1fd;" horiz-adv-x="1114" 
d="M621 1194l141 274h108l-184 -274h-65zM963 801q0 150 -129 149q-88 0 -138 -63t-78 -213l-16 -96h330q31 164 31 223zM350 500q-242 0 -244 -314q0 -66 35 -96t121 -29t130 49t67 181l37 209h-146zM834 1028q104 0 159 -57t56 -166q0 -59 -43 -305h-422l-29 -160
q-14 -88 -14 -125q0 -154 133 -154q92 -1 143 61t74 200h84q-25 -154 -68 -222q-76 -116 -227 -116t-203 112q-78 -113 -237 -112q-223 0 -224 186q0 80 23 164t57 133q76 111 252 111h160l18 100q14 80 14 142q1 128 -122 128q-82 0 -129 -58t-70 -190h-82q25 152 72 218
q73 110 219 110t184 -115q82 115 222 115z" />
    <glyph glyph-name="Oslashacute" unicode="&#x1fe;" horiz-adv-x="899" 
d="M590 1632l141 273h109l-185 -273h-65zM601 1399q-128 0 -202 -105q-49 -74 -77 -235l-115 -656q-8 -45 -14 -106l579 987q-43 115 -171 115zM372 63q124 0 188 79t95 261l117 656q6 43 10 90l2 6l-577 -981q41 -111 165 -111zM597 1479q161 0 230 -101l60 99l65 -33
l-86 -148q10 -55 10 -103t-16 -140l-119 -678q-20 -115 -43 -173t-67 -110q-90 -108 -247 -108t-232 96l-60 -103l-67 33l88 152q-19 103 4 248l121 677q20 113 43 173t65 110q90 109 251 109z" />
    <glyph glyph-name="oslashacute" unicode="&#x1ff;" horiz-adv-x="747" 
d="M438 1194l142 274h108l-184 -274h-66zM162 227l409 656q-33 67 -121 67t-140 -64q-50 -65 -77 -216l-59 -328q-12 -78 -12 -115zM299 61q88 0 138 65t79 216l57 328q11 59 15 112l-410 -655q33 -66 121 -66zM676 804q0 -52 -19 -161l-55 -309q-31 -182 -94 -258
q-80 -92 -203 -92t-178 61l-45 -74l-57 37l63 101q-14 41 -14 103t18 157l53 309q19 106 39 160t58 98q80 92 203 92t178 -61l45 71l57 -37l-63 -100q14 -45 14 -97z" />
    <glyph glyph-name="uni0200" unicode="&#x200;" horiz-adv-x="776" 
d="M547 1632h-62l-63 273h98zM709 1632h-62l-63 273h98zM565 426l-30 885l-345 -885h375zM567 346h-407l-133 -346h-99l592 1462h76l80 -1462h-96z" />
    <glyph glyph-name="uni0201" unicode="&#x201;" horiz-adv-x="716" 
d="M438 1194h-61l-64 274h99zM600 1194h-61l-64 274h98zM350 496q-241 0 -241 -310q1 -66 35 -96t120 -29t129 49t68 183l35 203h-146zM422 948q-84 0 -131 -58t-70 -190h-82q25 147 72 218q74 111 215 110q205 0 205 -209q0 -61 -19 -164l-114 -655h-72l4 63
q-35 -45 -76 -62t-114 -17q-222 0 -222 185t77 293t255 109h160l18 107q14 80 15 133q0 137 -121 137z" />
    <glyph glyph-name="uni0202" unicode="&#x202;" horiz-adv-x="776" 
d="M698 1733q0 90 -77 90q-53 0 -81 -37t-48 -135h-70q20 109 41 149q49 96 162 96q71 0 109 -34t38 -80q0 -47 -12 -131h-68q6 57 6 82zM565 426l-30 885l-345 -885h375zM567 346h-407l-133 -346h-99l592 1462h76l80 -1462h-96z" />
    <glyph glyph-name="uni0203" unicode="&#x203;" horiz-adv-x="716" 
d="M592 1294q0 90 -78 90q-53 0 -81 -38t-48 -134h-70q20 111 41 150q49 96 160 96q72 0 111 -34t39 -81t-13 -131h-67q6 59 6 82zM350 496q-241 0 -241 -310q1 -66 35 -96t120 -29t129 49t68 183l35 203h-146zM422 948q-84 0 -131 -58t-70 -190h-82q25 147 72 218
q74 111 215 110q205 0 205 -209q0 -61 -19 -164l-114 -655h-72l4 63q-35 -45 -76 -62t-114 -17q-222 0 -222 185t77 293t255 109h160l18 107q14 80 15 133q0 137 -121 137z" />
    <glyph glyph-name="uni0204" unicode="&#x204;" horiz-adv-x="768" 
d="M573 1632h-61l-63 273h98zM735 1632h-61l-64 273h99zM70 0l258 1462h522l-12 -80h-435l-106 -602h371l-15 -80h-370l-109 -620h432l-14 -80h-522z" />
    <glyph glyph-name="uni0205" unicode="&#x205;" horiz-adv-x="727" 
d="M453 1194h-62l-63 274h98zM614 1194h-61l-64 274h99zM215 578h330q31 164 30 223q0 150 -129 149q-88 0 -137 -63t-76 -213zM162 209q0 -147 131 -148q88 1 138 61t75 200h82q-27 -158 -68 -222q-72 -117 -231 -116q-104 0 -160 58q-55 58 -55 167q0 59 18 164l51 299
q33 186 95 262q82 94 197 94q225 0 227 -221q0 -53 -44 -307h-415l-29 -160q-12 -61 -12 -131z" />
    <glyph glyph-name="uni0206" unicode="&#x206;" horiz-adv-x="768" 
d="M733 1733q0 90 -78 90q-53 0 -81 -37t-48 -135h-69q20 109 41 149q47 96 161 96q70 0 109 -34t39 -80q0 -47 -12 -131h-68q6 59 6 82zM70 0l258 1462h522l-12 -80h-435l-106 -602h371l-15 -80h-370l-109 -620h432l-14 -80h-522z" />
    <glyph glyph-name="uni0207" unicode="&#x207;" horiz-adv-x="727" 
d="M594 1294q0 90 -78 90q-53 0 -81 -38t-48 -134h-70q20 111 41 150q47 96 160 96q72 0 111 -34t39 -81t-13 -131h-67q6 59 6 82zM215 578h330q31 164 30 223q0 150 -129 149q-88 0 -137 -63t-76 -213zM162 209q0 -147 131 -148q88 1 138 61t75 200h82q-27 -158 -68 -222
q-72 -117 -231 -116q-104 0 -160 58q-55 58 -55 167q0 59 18 164l51 299q33 186 95 262q82 94 197 94q225 0 227 -221q0 -53 -44 -307h-415l-29 -160q-12 -61 -12 -131z" />
    <glyph glyph-name="uni0208" unicode="&#x208;" horiz-adv-x="405" 
d="M360 1632h-61l-63 273h98zM522 1632h-61l-64 273h99zM70 0l258 1462h90l-258 -1462h-90z" />
    <glyph glyph-name="uni0209" unicode="&#x209;" horiz-adv-x="364" 
d="M262 1194h-61l-64 274h99zM424 1194h-62l-63 274h98zM49 0l178 1012h88l-178 -1012h-88z" />
    <glyph glyph-name="uni020A" unicode="&#x20a;" horiz-adv-x="405" 
d="M510 1733q0 90 -78 90q-53 0 -81 -37t-48 -135h-70q20 109 41 149q49 96 162 96q70 0 109 -34t39 -80q0 -47 -13 -131h-67q6 57 6 82zM68 0l258 1462h90l-258 -1462h-90z" />
    <glyph glyph-name="uni020B" unicode="&#x20b;" horiz-adv-x="364" 
d="M414 1294q0 90 -78 90q-53 0 -81 -38t-48 -134h-70q20 111 41 150q47 96 160 96q72 0 111 -34t39 -81t-13 -131h-67q6 59 6 82zM49 0l178 1012h88l-178 -1012h-88z" />
    <glyph glyph-name="uni020C" unicode="&#x20c;" horiz-adv-x="899" 
d="M606 1632h-61l-64 273h99zM768 1632h-61l-64 273h98zM786 1216q0 76 -50 130t-138 53q-127 0 -197 -105q-49 -68 -77 -235l-117 -656q-14 -84 -14 -137q1 -202 203 -202q102 0 165 78q63 79 96 261l115 656q14 81 14 157zM584 1479q146 0 220 -71q73 -71 73 -204
q0 -66 -15 -151l-121 -678q-20 -113 -43 -172t-65 -111q-89 -108 -237 -108t-221 70t-73 202q1 62 17 154l119 677q20 115 43 173t67 110q90 109 236 109z" />
    <glyph glyph-name="uni020D" unicode="&#x20d;" horiz-adv-x="747" 
d="M455 1194h-62l-63 274h98zM616 1194h-61l-63 274h98zM162 213q0 -152 133 -152q92 1 143 65t78 216l57 328q14 84 15 129q0 152 -133 151q-94 0 -145 -64q-50 -65 -77 -216l-59 -328q-12 -86 -12 -129zM455 1028q221 0 221 -225q0 -51 -19 -160l-55 -309
q-31 -182 -94 -258q-80 -92 -201 -92q-233 0 -233 223q0 64 18 162l53 309q33 186 97 258q80 92 213 92z" />
    <glyph glyph-name="uni020E" unicode="&#x20e;" horiz-adv-x="899" 
d="M758 1733q0 90 -78 90q-53 0 -81 -37t-48 -135h-70q20 109 41 149q47 96 162 96q70 0 109 -34t39 -80q0 -47 -13 -131h-67q6 59 6 82zM786 1216q0 76 -50 130t-138 53q-127 0 -197 -105q-49 -68 -77 -235l-117 -656q-14 -84 -14 -137q1 -202 203 -202q102 0 165 78
q63 79 96 261l115 656q14 81 14 157zM584 1479q146 0 220 -71q73 -71 73 -204q0 -66 -15 -151l-121 -678q-20 -113 -43 -172t-65 -111q-89 -108 -237 -108t-221 70t-73 202q1 62 17 154l119 677q20 115 43 173t67 110q90 109 236 109z" />
    <glyph glyph-name="uni020F" unicode="&#x20f;" horiz-adv-x="747" 
d="M606 1294q0 90 -78 90q-53 0 -81 -38t-48 -134h-69q20 111 41 150q47 96 159 96q72 0 111 -34t39 -81t-12 -131h-68q6 59 6 82zM162 213q0 -152 133 -152q92 1 143 65t78 216l57 328q14 84 15 129q0 152 -133 151q-94 0 -145 -64q-50 -65 -77 -216l-59 -328
q-12 -86 -12 -129zM455 1028q221 0 221 -225q0 -51 -19 -160l-55 -309q-31 -182 -94 -258q-80 -92 -201 -92q-233 0 -233 223q0 64 18 162l53 309q33 186 97 258q80 92 213 92z" />
    <glyph glyph-name="uni0210" unicode="&#x210;" horiz-adv-x="862" 
d="M541 1632h-62l-63 273h98zM702 1632h-61l-63 273h98zM422 743q96 0 150 26t98 89q86 129 86 316q0 108 -50 158t-167 50h-140l-112 -639h135zM541 1462q173 0 241 -72t68 -196q0 -122 -33 -230t-93 -183t-163 -101l96 -680h-98l-86 666h-201l-116 -666h-90l258 1462h217z
" />
    <glyph glyph-name="uni0211" unicode="&#x211;" horiz-adv-x="514" 
d="M367 1194h-62l-63 274h98zM528 1194h-61l-64 274h99zM461 1028q68 0 123 -47l-56 -74q-39 41 -82 41q-76 0 -129 -108t-94 -342l-88 -498h-88l178 1012h70l-8 -103q68 119 174 119z" />
    <glyph glyph-name="uni0212" unicode="&#x212;" horiz-adv-x="862" 
d="M631 1823q-53 0 -81 -37t-48 -135h-70q20 109 41 149q47 96 162 96q71 0 109 -34t38 -80q0 -47 -12 -131h-68q6 59 7 82q0 90 -78 90zM426 743q96 0 150 26t98 89q86 129 86 316q0 108 -49 158t-168 50h-140l-112 -639h135zM545 1462q173 0 241 -72t68 -196
q0 -122 -33 -230t-93 -183t-163 -101l97 -680h-99l-86 666h-201l-116 -666h-90l258 1462h217z" />
    <glyph glyph-name="uni0213" unicode="&#x213;" horiz-adv-x="514" 
d="M524 1294q0 90 -78 90q-52 0 -80 -38t-49 -134h-69q20 111 41 150q47 96 160 96q73 0 111 -34t38 -81t-12 -131h-68q6 59 6 82zM461 1028q68 0 123 -47l-56 -74q-39 41 -82 41q-76 0 -129 -108t-94 -342l-88 -498h-88l178 1012h70l-8 -103q68 119 174 119z" />
    <glyph glyph-name="uni0214" unicode="&#x214;" horiz-adv-x="917" 
d="M616 1632h-61l-63 273h98zM778 1632h-61l-64 273h99zM207 236q0 -172 180 -173q137 0 205 113q37 57 59 193l195 1093h90l-197 -1110q-19 -110 -37 -158t-55 -96q-92 -115 -264 -114q-127 0 -197 62t-69 177q0 66 18 162l189 1077h90l-193 -1093q-14 -84 -14 -133z" />
    <glyph glyph-name="uni0215" unicode="&#x215;" horiz-adv-x="749" 
d="M455 1194h-62l-63 274h98zM616 1194h-61l-63 274h98zM172 203q0 -139 107 -140q88 0 142 84t89 273l104 592h88l-178 -1012h-69l12 104q-49 -70 -93 -96t-121 -24q-77 0 -124 51t-47 127t20 205l115 645h88l-117 -658q-16 -104 -16 -151z" />
    <glyph glyph-name="uni0216" unicode="&#x216;" horiz-adv-x="917" 
d="M768 1733q0 90 -78 90q-53 0 -81 -37t-48 -135h-69q20 109 40 149q49 96 162 96q70 0 109 -34t39 -80q0 -47 -13 -131h-67q6 59 6 82zM207 236q0 -172 180 -173q137 0 205 113q37 57 59 193l195 1093h90l-197 -1110q-19 -110 -37 -158t-55 -96q-92 -115 -264 -114
q-127 0 -197 62t-69 177q0 66 18 162l189 1077h90l-193 -1093q-14 -84 -14 -133z" />
    <glyph glyph-name="uni0217" unicode="&#x217;" horiz-adv-x="749" 
d="M606 1294q0 90 -78 90q-53 0 -81 -38t-48 -134h-69q20 111 41 150q47 96 159 96q72 0 111 -34t39 -81t-12 -131h-68q6 59 6 82zM172 203q0 -139 107 -140q88 0 142 84t89 273l104 592h88l-178 -1012h-69l12 104q-49 -70 -93 -96t-121 -24q-77 0 -124 51t-47 127t20 205
l115 645h88l-117 -658q-16 -104 -16 -151z" />
    <glyph glyph-name="Scommaaccent" unicode="&#x218;" horiz-adv-x="784" 
d="M106 -430l117 278h99l-154 -278h-62zM207 1032q0 172 84 309t239 138q117 0 184 -67t66 -181q0 -51 -16 -139h-86q12 63 12 116q0 190 -160 191q-117 0 -178 -125q-53 -102 -53 -210t37 -164q38 -56 144 -110t143 -102q53 -72 53 -226t-74 -298q-92 -180 -285 -180
q-123 0 -195 68t-73 179q1 55 19 166h84q-14 -87 -14 -161t46 -123q47 -49 133 -50q147 0 215 160q52 117 52 233t-39 171q-27 35 -136 89t-156 128q-46 74 -46 188z" />
    <glyph glyph-name="scommaaccent" unicode="&#x219;" horiz-adv-x="671" 
d="M57 -430l117 278h98l-153 -278h-62zM111 203q0 -141 145 -142q96 0 160 77q63 77 63 190q0 63 -35 94q-16 16 -31 23t-104 38t-132 80q-42 49 -42 135q0 146 76 238q75 92 187 92t167 -53t56 -150q0 -43 -15 -123h-82q12 61 13 111q0 137 -125 137q-84 0 -137 -68
q-52 -69 -52 -175q0 -72 56 -113q35 -20 147 -59q141 -51 141 -189q0 -162 -86 -262t-209 -100t-183 52t-60 148q0 56 16 152h82q-16 -88 -16 -133z" />
    <glyph glyph-name="uni021A" unicode="&#x21a;" horiz-adv-x="657" 
d="M53 -430l117 278h98l-153 -278h-62zM195 0l243 1382h-248l13 80h590l-15 -80h-250l-243 -1382h-90z" />
    <glyph glyph-name="uni021B" unicode="&#x21b;" horiz-adv-x="430" 
d="M-27 -430l117 278h98l-153 -278h-62zM258 0q-166 0 -166 118q0 58 23 193l110 623h-82l15 78h82l63 344h86l-61 -344h121l-15 -78h-121l-114 -653q-16 -86 -17 -123q0 -78 82 -78h27l-15 -80h-18z" />
    <glyph glyph-name="uni0226" unicode="&#x226;" horiz-adv-x="776" 
d="M545 1653l33 180h86l-33 -180h-86zM565 426l-30 885l-345 -885h375zM567 346h-407l-133 -346h-99l592 1462h76l80 -1462h-96z" />
    <glyph glyph-name="uni0227" unicode="&#x227;" horiz-adv-x="716" 
d="M440 1214l31 181h88l-33 -181h-86zM350 496q-241 0 -241 -310q1 -66 35 -96t120 -29t129 49t68 183l35 203h-146zM422 948q-84 0 -131 -58t-70 -190h-82q25 147 72 218q74 111 215 110q205 0 205 -209q0 -61 -19 -164l-114 -655h-72l4 63q-35 -45 -76 -62t-114 -17
q-222 0 -222 185t77 293t255 109h160l18 107q14 80 15 133q0 137 -121 137z" />
    <glyph glyph-name="uni0237" unicode="&#x237;" horiz-adv-x="370" 
d="M231 1012h88l-190 -1084q-33 -219 -105 -312t-210 -87l14 80q84 -7 135 69t78 248z" />
    <glyph glyph-name="afii57929" unicode="&#x2bc;" horiz-adv-x="225" 
d="M133 1006l127 456h94l-149 -456h-72z" />
    <glyph glyph-name="uni02C0" unicode="&#x2c0;" horiz-adv-x="1024" 
d="M786 1823q0 45 -63 45q-37 0 -92 -19l-10 60q63 25 114 24q135 0 135 -108q0 -55 -67 -123q-31 -31 -39 -46t-14 -50h-76q8 45 17 63q9 17 52 69t43 85z" />
    <glyph glyph-name="circumflex" unicode="&#x2c6;" horiz-adv-x="1024" 
d="M670 1378l-121 -170h-98l202 246h54l114 -246h-92z" />
    <glyph glyph-name="caron" unicode="&#x2c7;" horiz-adv-x="1024" 
d="M645 1284l121 170h98l-202 -248h-54l-114 248h92z" />
    <glyph glyph-name="uni02C9" unicode="&#x2c9;" horiz-adv-x="1024" 
d="M494 1290l12 70h313l-12 -70h-313z" />
    <glyph glyph-name="breve" unicode="&#x2d8;" horiz-adv-x="1024" 
d="M647 1270q53 0 82 38t49 134h70q-23 -113 -41 -150q-49 -96 -160 -96q-73 0 -111 34t-38 81t12 131h68q-8 -49 -9 -82q0 -90 78 -90z" />
    <glyph glyph-name="dotaccent" unicode="&#x2d9;" horiz-adv-x="1024" 
d="M594 1214l31 181h88l-33 -181h-86z" />
    <glyph glyph-name="ring" unicode="&#x2da;" horiz-adv-x="1024" 
d="M682 1499q-49 0 -81 -48t-32 -130t78 -82q49 0 81 48t32 130t-78 82zM679 1559q75 0 114 -43t39 -120t-48 -143q-49 -73 -129 -73q-157 1 -157 157q0 96 53 159t128 63z" />
    <glyph glyph-name="ogonek" unicode="&#x2db;" horiz-adv-x="1024" 
d="M381 -248q0 -53 74 -53q29 0 77 16v-65q-53 -20 -108 -21q-131 0 -131 105q0 74 51 146t139 120h84q-92 -68 -123 -102q-63 -74 -63 -146z" />
    <glyph glyph-name="tilde" unicode="&#x2dc;" horiz-adv-x="1024" 
d="M592 1423q49 -1 89 -67t62 -66q35 0 66 119h57q-28 -102 -58 -144t-82 -42t-91 67q-25 41 -36 53t-26 13q-32 0 -67 -117h-57q29 98 61 141q33 43 82 43z" />
    <glyph glyph-name="hungarumlaut" unicode="&#x2dd;" horiz-adv-x="1024" 
d="M676 1194l123 274h98l-158 -274h-63zM514 1194l123 274h98l-157 -274h-64z" />
    <glyph glyph-name="uni0309" unicode="&#x309;" horiz-adv-x="1024" 
d="M647 1442q-39 0 -92 -21l-10 62q63 25 114 24q135 0 136 -108q0 -55 -68 -125q-31 -33 -39 -47t-14 -49h-76q10 62 61 124t52 95q0 45 -64 45z" />
    <glyph glyph-name="uni0312" unicode="&#x312;" horiz-adv-x="1024" 
d="M524 1194l185 274h65l-141 -274h-109z" />
    <glyph glyph-name="uni0313" unicode="&#x313;" horiz-adv-x="75" 
d="M84 1067l102 399h90l-131 -399h-61z" />
    <glyph glyph-name="uni031B" unicode="&#x31b;" horiz-adv-x="75" 
d="M84 1067l102 399h90l-131 -399h-61z" />
    <glyph glyph-name="uni0323" unicode="&#x323;" horiz-adv-x="1024" 
d="M311 -375l33 180h86l-33 -180h-86z" />
    <glyph glyph-name="uni037E" unicode="&#x37e;" horiz-adv-x="354" 
d="M201 854l28 158h90l-28 -158h-90zM-80 -385l156 543h98l-180 -543h-74z" />
    <glyph glyph-name="uni0387" unicode="&#x387;" horiz-adv-x="354" 
d="M164 676l29 158h90l-29 -158h-90z" />
    <glyph glyph-name="uni04D4" unicode="&#x4d4;" horiz-adv-x="1236" 
d="M614 432l168 950h-10l-539 -950h381zM602 352h-414l-198 -352h-105l846 1462h588l-12 -80h-435l-106 -602h369l-13 -80h-370l-109 -620h432l-14 -80h-522z" />
    <glyph glyph-name="uni04D5" unicode="&#x4d5;" horiz-adv-x="1114" 
d="M963 801q0 150 -129 149q-88 0 -138 -63t-78 -213l-16 -96h330q31 164 31 223zM350 500q-242 0 -244 -314q0 -66 35 -96t121 -29t130 49t67 181l37 209h-146zM834 1028q104 0 159 -57t56 -166q0 -59 -43 -305h-422l-29 -160q-14 -88 -14 -125q0 -154 133 -154
q92 -1 143 61t74 200h84q-25 -154 -68 -222q-76 -116 -227 -116t-203 112q-78 -113 -237 -112q-223 0 -224 186q0 80 23 164t57 133q76 111 252 111h160l18 100q14 80 14 142q1 128 -122 128q-82 0 -129 -58t-70 -190h-82q25 152 72 218q73 110 219 110t184 -115
q82 115 222 115z" />
    <glyph glyph-name="uni1E02" unicode="&#x1e02;" horiz-adv-x="880" 
d="M565 1653l33 180h86l-33 -180h-86zM354 80q82 0 130 22t83 74q92 137 92 326q0 115 -39 165q-40 50 -135 50h-200l-113 -637h182zM492 797q117 0 182 92q88 123 88 289q0 112 -44 158t-151 46h-166l-102 -585h193zM553 1462q173 0 237 -68t64 -210q0 -143 -60 -261
t-155 -163q61 -33 87 -91t26 -161q0 -227 -113 -389q-47 -67 -109 -93t-163 -26h-299l258 1462h227z" />
    <glyph glyph-name="uni1E03" unicode="&#x1e03;" horiz-adv-x="763" 
d="M537 1214l30 181h88l-32 -181h-86zM598 782q0 166 -121 166q-176 0 -244 -375l-22 -135q-20 -111 -21 -174q0 -201 127 -201q162 0 213 289l54 293q14 88 14 137zM688 801q0 -57 -22 -189l-50 -272q-34 -182 -104 -269t-198 -87t-173 122l-26 -106h-70l258 1462h88
l-96 -544q74 111 190 110q203 0 203 -227z" />
    <glyph glyph-name="uni1E0C" unicode="&#x1e0c;" horiz-adv-x="901" 
d="M221 -375l33 180h86l-33 -180h-86zM788 1186q0 197 -202 196h-185l-229 -1302h184q252 -4 303 328l115 647q14 80 14 131zM588 1462q293 0 293 -268q0 -47 -17 -141l-121 -678q-29 -185 -126 -281t-255 -94h-294l258 1462h262z" />
    <glyph glyph-name="uni1E0D" unicode="&#x1e0d;" horiz-adv-x="763" 
d="M195 -375l32 180h86l-32 -180h-86zM166 233q0 -170 123 -170q172 0 239 375l25 135q18 106 18 175q0 201 -131 200q-158 1 -207 -282l-55 -310q-12 -76 -12 -123zM78 221q0 68 14 152l55 307q31 180 102 264t195 84t170 -110l95 544h88l-256 -1462h-72l10 102
q-76 -119 -198 -118q-203 0 -203 237z" />
    <glyph glyph-name="uni1E1E" unicode="&#x1e1e;" horiz-adv-x="716" 
d="M565 1653l33 180h86l-33 -180h-86zM70 0l258 1462h518l-15 -80h-428l-108 -614h367l-15 -80h-366l-121 -688h-90z" />
    <glyph glyph-name="uni1E1F" unicode="&#x1e1f;" horiz-adv-x="438" 
d="M430 1653l31 180h88l-33 -180h-86zM231 934h-81l14 78h82l39 221q23 137 67 184q45 47 150 45h55l-12 -71h-29q-72 2 -98 -32t-49 -151l-35 -196h145l-14 -78h-146l-163 -934h-88z" />
    <glyph glyph-name="uni1E24" unicode="&#x1e24;" horiz-adv-x="905" 
d="M254 -375l33 180h86l-33 -180h-86zM70 0l258 1462h90l-121 -682h410l120 682h91l-259 -1462h-90l123 700h-409l-123 -700h-90z" />
    <glyph glyph-name="uni1E25" unicode="&#x1e25;" horiz-adv-x="765" 
d="M184 -375l33 180h86l-33 -180h-86zM496 1028q90 0 139 -51t49 -128t-20 -204l-115 -645h-88l117 657q16 100 16 146q0 145 -115 145q-94 0 -149 -84t-90 -272l-105 -592h-88l258 1462h88l-94 -532q78 98 197 98z" />
    <glyph glyph-name="uni1E44" unicode="&#x1e44;" horiz-adv-x="958" 
d="M651 1653l33 180h86l-33 -180h-86zM70 0l258 1462h88l248 -1249l221 1249h86l-258 -1462h-86l-248 1251l-221 -1251h-88z" />
    <glyph glyph-name="uni1E45" unicode="&#x1e45;" horiz-adv-x="765" 
d="M465 1214l31 181h88l-33 -181h-86zM506 1028q80 0 129 -51t49 -128t-20 -204l-115 -645h-88l117 655q16 104 16 150q0 143 -115 143q-94 0 -149 -84t-90 -272l-105 -592h-88l178 1012h70l-12 -101q47 63 95 90t128 27z" />
    <glyph glyph-name="uni1E5A" unicode="&#x1e5a;" horiz-adv-x="862" 
d="M231 -375l33 180h86l-33 -180h-86zM426 743q96 0 150 26t98 89q86 129 86 316q0 108 -49 158t-168 50h-140l-112 -639h135zM545 1462q173 0 241 -72t68 -196q0 -122 -33 -230t-93 -183t-163 -101l97 -680h-99l-86 666h-201l-116 -666h-90l258 1462h217z" />
    <glyph glyph-name="uni1E5B" unicode="&#x1e5b;" horiz-adv-x="514" 
d="M-18 -375l32 180h86l-32 -180h-86zM461 1028q68 0 123 -47l-56 -74q-39 41 -82 41q-76 0 -129 -108t-94 -342l-88 -498h-88l178 1012h70l-8 -103q68 119 174 119z" />
    <glyph glyph-name="uni1E62" unicode="&#x1e62;" horiz-adv-x="784" 
d="M176 -375l33 180h86l-33 -180h-86zM207 1032q0 172 84 309t239 138q117 0 184 -67t66 -181q0 -51 -16 -139h-86q12 63 12 116q0 190 -160 191q-117 0 -178 -125q-53 -102 -53 -210t37 -164q38 -56 144 -110t143 -102q53 -72 53 -226t-74 -298q-92 -180 -285 -180
q-123 0 -195 68t-73 179q1 55 19 166h84q-14 -87 -14 -161t46 -123q47 -49 133 -50q147 0 215 160q52 117 52 233t-39 171q-27 35 -136 89t-156 128q-46 74 -46 188z" />
    <glyph glyph-name="uni1E63" unicode="&#x1e63;" horiz-adv-x="671" 
d="M133 -375l33 180h86l-33 -180h-86zM111 203q0 -141 145 -142q96 0 160 77q63 77 63 190q0 63 -35 94q-16 16 -31 23t-104 38t-132 80q-42 49 -42 135q0 146 76 238q75 92 187 92t167 -53t56 -150q0 -43 -15 -123h-82q12 61 13 111q0 137 -125 137q-84 0 -137 -68
q-52 -69 -52 -175q0 -72 56 -113q35 -20 147 -59q141 -51 141 -189q0 -162 -86 -262t-209 -100t-183 52t-60 148q0 56 16 152h82q-16 -88 -16 -133z" />
    <glyph glyph-name="uni1E6C" unicode="&#x1e6c;" horiz-adv-x="657" 
d="M129 -375l33 180h86l-33 -180h-86zM195 0l243 1382h-248l13 80h590l-15 -80h-250l-243 -1382h-90z" />
    <glyph glyph-name="uni1E6D" unicode="&#x1e6d;" horiz-adv-x="430" 
d="M14 -375l33 180h86l-33 -180h-86zM262 80h27l-13 -80h-20q-88 0 -126 30t-38 94t23 187l108 623h-80l15 78h82l61 344h86l-61 -344h123l-15 -78h-121l-116 -653q-14 -88 -15 -123q0 -78 80 -78z" />
    <glyph glyph-name="Wgrave" unicode="&#x1e80;" horiz-adv-x="1169" 
d="M844 1632h-62l-92 273h103zM178 0l60 1462h88l-64 -1231l457 1231h61l23 -1231l373 1231h88l-455 -1462h-74l-24 1231l-457 -1231h-76z" />
    <glyph glyph-name="wgrave" unicode="&#x1e81;" horiz-adv-x="1017" 
d="M690 1194h-61l-92 274h102zM176 0l-18 1012h88l-2 -844l321 844h60l24 -844l297 844h90l-374 -1012h-68l-29 834l-319 -834h-70z" />
    <glyph glyph-name="Wacute" unicode="&#x1e82;" horiz-adv-x="1169" 
d="M725 1632l141 273h109l-184 -273h-66zM178 0l60 1462h88l-64 -1231l457 1231h61l23 -1231l373 1231h88l-455 -1462h-74l-24 1231l-457 -1231h-76z" />
    <glyph glyph-name="wacute" unicode="&#x1e83;" horiz-adv-x="1017" 
d="M571 1194l142 274h108l-184 -274h-66zM176 0l-18 1012h88l-2 -844l321 844h60l24 -844l297 844h90l-374 -1012h-68l-29 834l-319 -834h-70z" />
    <glyph glyph-name="Wdieresis" unicode="&#x1e84;" horiz-adv-x="1169" 
d="M868 1653l33 180h80l-31 -180h-82zM621 1653l30 180h82l-33 -180h-79zM178 0l60 1462h88l-64 -1231l457 1231h61l23 -1231l373 1231h88l-455 -1462h-74l-24 1231l-457 -1231h-76z" />
    <glyph glyph-name="wdieresis" unicode="&#x1e85;" horiz-adv-x="1017" 
d="M717 1214l31 181h81l-32 -181h-80zM469 1214l33 181h80l-33 -181h-80zM176 0l-18 1012h88l-2 -844l321 844h60l24 -844l297 844h90l-374 -1012h-68l-29 834l-319 -834h-70z" />
    <glyph glyph-name="uni1E92" unicode="&#x1e92;" horiz-adv-x="712" 
d="M180 -375l33 180h86l-33 -180h-86zM-14 0l10 53l668 1329h-408l14 80h508l-10 -53l-668 -1329h453l-14 -80h-553z" />
    <glyph glyph-name="uni1E93" unicode="&#x1e93;" horiz-adv-x="628" 
d="M119 -375l33 180h86l-33 -180h-86zM-14 0l8 49l500 883h-318l14 80h418l-8 -49l-500 -883h363l-14 -80h-463z" />
    <glyph glyph-name="uni1EA0" unicode="&#x1ea0;" horiz-adv-x="776" 
d="M219 -375l33 180h86l-33 -180h-86zM565 426l-30 885l-345 -885h375zM567 346h-407l-133 -346h-99l592 1462h76l80 -1462h-96z" />
    <glyph glyph-name="uni1EA1" unicode="&#x1ea1;" horiz-adv-x="716" 
d="M160 -375l30 180h89l-33 -180h-86zM350 496q-241 0 -241 -310q1 -66 35 -96t120 -29t129 49t68 183l35 203h-146zM422 948q-84 0 -131 -58t-70 -190h-82q25 147 72 218q74 111 215 110q205 0 205 -209q0 -61 -19 -164l-114 -655h-72l4 63q-35 -45 -76 -62t-114 -17
q-222 0 -222 185t77 293t255 109h160l18 107q14 80 15 133q0 137 -121 137z" />
    <glyph glyph-name="uni1EA2" unicode="&#x1ea2;" horiz-adv-x="776" 
d="M649 1823q0 45 -63 45q-37 0 -90 -19l-11 60q59 25 115 24q133 0 133 -106q0 -57 -67 -125q-32 -33 -40 -47t-14 -49h-73q10 47 17 64q7 16 50 68t43 85zM565 426l-30 885l-345 -885h375zM567 346h-407l-133 -346h-99l592 1462h76l80 -1462h-96z" />
    <glyph glyph-name="uni1EA3" unicode="&#x1ea3;" horiz-adv-x="716" 
d="M557 1397q0 45 -63 45q-37 0 -93 -21l-10 62q63 25 117 24q133 0 133 -106q0 -57 -68 -127q-31 -33 -39 -47t-14 -49h-76q10 47 19 65q8 17 51 69t43 85zM350 496q-241 0 -241 -310q1 -66 35 -96t120 -29t129 49t68 183l35 203h-146zM422 948q-84 0 -131 -58t-70 -190
h-82q25 147 72 218q74 111 215 110q205 0 205 -209q0 -61 -19 -164l-114 -655h-72l4 63q-35 -45 -76 -62t-114 -17q-222 0 -222 185t77 293t255 109h160l18 107q14 80 15 133q0 137 -121 137z" />
    <glyph glyph-name="uni1EA4" unicode="&#x1ea4;" horiz-adv-x="776" 
d="M602 1683l-133 -120h-102l221 196h47l149 -196h-94zM569 1815l125 227h97l-164 -227h-58zM565 426l-30 885l-345 -885h375zM567 346h-407l-133 -346h-99l592 1462h76l80 -1462h-96z" />
    <glyph glyph-name="uni1EA5" unicode="&#x1ea5;" horiz-adv-x="716" 
d="M494 1245l-132 -121h-102l219 197h49l150 -197h-94zM461 1376l125 228h96l-164 -228h-57zM350 496q-241 0 -241 -310q1 -66 35 -96t120 -29t129 49t68 183l35 203h-146zM422 948q-84 0 -131 -58t-70 -190h-82q25 147 72 218q74 111 215 110q205 0 205 -209
q0 -61 -19 -164l-114 -655h-72l4 63q-35 -45 -76 -62t-114 -17q-222 0 -222 185t77 293t255 109h160l18 107q14 80 15 133q0 137 -121 137z" />
    <glyph glyph-name="uni1EA6" unicode="&#x1ea6;" horiz-adv-x="776" 
d="M602 1683l-133 -120h-102l221 196h47l149 -196h-94zM668 1815h-54l-86 227h86zM565 426l-30 885l-345 -885h375zM567 346h-407l-133 -346h-99l592 1462h76l80 -1462h-96z" />
    <glyph glyph-name="uni1EA7" unicode="&#x1ea7;" horiz-adv-x="716" 
d="M494 1245l-132 -121h-102l219 197h49l150 -197h-94zM561 1376h-55l-86 228h86zM350 496q-241 0 -241 -310q1 -66 35 -96t120 -29t129 49t68 183l35 203h-146zM422 948q-84 0 -131 -58t-70 -190h-82q25 147 72 218q74 111 215 110q205 0 205 -209q0 -61 -19 -164
l-114 -655h-72l4 63q-35 -45 -76 -62t-114 -17q-222 0 -222 185t77 293t255 109h160l18 107q14 80 15 133q0 137 -121 137z" />
    <glyph glyph-name="uni1EA8" unicode="&#x1ea8;" horiz-adv-x="776" 
d="M596 1683l-131 -120h-103l220 194h47l151 -194h-94zM662 1950q0 37 -41 37q-23 0 -64 -15l-8 53q43 18 88 19q96 0 96 -84q0 -41 -41 -88t-45 -84h-63q6 45 42 90t36 72zM565 426l-30 885l-345 -885h375zM567 346h-407l-133 -346h-99l592 1462h76l80 -1462h-96z" />
    <glyph glyph-name="uni1EA9" unicode="&#x1ea9;" horiz-adv-x="716" 
d="M489 1245l-133 -121h-102l219 195h49l150 -195h-94zM555 1513q0 37 -41 37q-27 0 -65 -16l-7 55q43 18 88 19q96 0 97 -84q0 -39 -40 -87t-48 -85h-62q8 49 43 92t35 69zM350 496q-241 0 -241 -310q1 -66 35 -96t120 -29t129 49t68 183l35 203h-146zM422 948
q-84 0 -131 -58t-70 -190h-82q25 147 72 218q74 111 215 110q205 0 205 -209q0 -61 -19 -164l-114 -655h-72l4 63q-35 -45 -76 -62t-114 -17q-222 0 -222 185t77 293t255 109h160l18 107q14 80 15 133q0 137 -121 137z" />
    <glyph glyph-name="uni1EAA" unicode="&#x1eaa;" horiz-adv-x="776" 
d="M610 1683l-133 -120h-102l219 196h49l150 -196h-95zM584 2032q47 0 80 -65t53 -64q33 0 71 112h56q-31 -98 -61 -138q-31 -40 -77 -40t-77 66q-33 63 -56 63q-36 0 -81 -113h-58q35 99 69 139t81 40zM565 426l-30 885l-345 -885h375zM567 346h-407l-133 -346h-99
l592 1462h76l80 -1462h-96z" />
    <glyph glyph-name="uni1EAB" unicode="&#x1eab;" horiz-adv-x="716" 
d="M502 1245l-131 -121h-103l219 197h48l151 -197h-94zM476 1593q48 0 80 -63t52 -64q37 0 72 113h57q-33 -100 -61 -139t-76 -39q-47 0 -80 63t-53 64q-37 0 -82 -113h-57q35 96 67 137q33 41 81 41zM350 496q-241 0 -241 -310q1 -66 35 -96t120 -29t129 49t68 183l35 203
h-146zM422 948q-84 0 -131 -58t-70 -190h-82q25 147 72 218q74 111 215 110q205 0 205 -209q0 -61 -19 -164l-114 -655h-72l4 63q-35 -45 -76 -62t-114 -17q-222 0 -222 185t77 293t255 109h160l18 107q14 80 15 133q0 137 -121 137z" />
    <glyph glyph-name="uni1EAC" unicode="&#x1eac;" horiz-adv-x="776" 
d="M190 -375l31 180h88l-33 -180h-86zM608 1817l-121 -170h-98l203 247h53l115 -247h-92zM565 426l-30 885l-345 -885h375zM567 346h-407l-133 -346h-99l592 1462h76l80 -1462h-96z" />
    <glyph glyph-name="uni1EAD" unicode="&#x1ead;" horiz-adv-x="716" 
d="M160 -375l30 180h89l-33 -180h-86zM516 1378l-121 -170h-98l203 246h53l115 -246h-93zM350 496q-241 0 -241 -310q1 -66 35 -96t120 -29t129 49t68 183l35 203h-146zM422 948q-84 0 -131 -58t-70 -190h-82q25 147 72 218q74 111 215 110q205 0 205 -209q0 -61 -19 -164
l-114 -655h-72l4 63q-35 -45 -76 -62t-114 -17q-222 0 -222 185t77 293t255 109h160l18 107q14 80 15 133q0 137 -121 137z" />
    <glyph glyph-name="uni1EAE" unicode="&#x1eae;" horiz-adv-x="776" 
d="M483 1735q0 -104 105 -105q63 0 97 34t56 118h68q-27 -127 -75 -176q-48 -50 -143 -50t-134 35t-39 115q0 27 8 76h61q-4 -45 -4 -47zM569 1815l125 227h97l-164 -227h-58zM565 426l-30 885l-345 -885h375zM567 346h-407l-133 -346h-99l592 1462h76l80 -1462h-96z" />
    <glyph glyph-name="uni1EAF" unicode="&#x1eaf;" horiz-adv-x="716" 
d="M377 1298q0 -104 104 -104q61 0 98 35q36 35 56 117h67q-27 -125 -75 -176q-49 -50 -143 -50t-134 35q-39 35 -39 113q0 27 6 78h64q-4 -27 -4 -48zM461 1376l125 228h96l-164 -228h-57zM350 496q-241 0 -241 -310q1 -66 35 -96t120 -29t129 49t68 183l35 203h-146z
M422 948q-84 0 -131 -58t-70 -190h-82q25 147 72 218q74 111 215 110q205 0 205 -209q0 -61 -19 -164l-114 -655h-72l4 63q-35 -45 -76 -62t-114 -17q-222 0 -222 185t77 293t255 109h160l18 107q14 80 15 133q0 137 -121 137z" />
    <glyph glyph-name="uni1EB0" unicode="&#x1eb0;" horiz-adv-x="776" 
d="M483 1735q0 -104 105 -105q63 0 97 34t56 118h68q-27 -127 -75 -176q-48 -50 -143 -50t-134 35t-39 115q0 27 8 76h61q-4 -45 -4 -47zM670 1815h-54l-88 227h86zM565 426l-30 885l-345 -885h375zM567 346h-407l-133 -346h-99l592 1462h76l80 -1462h-96z" />
    <glyph glyph-name="uni1EB1" unicode="&#x1eb1;" horiz-adv-x="716" 
d="M377 1298q0 -104 104 -104q61 0 98 35q36 35 56 117h67q-27 -125 -75 -176q-49 -50 -143 -50t-134 35q-39 35 -39 113q0 27 6 78h64q-4 -27 -4 -48zM561 1376h-53l-86 228h86zM350 496q-241 0 -241 -310q1 -66 35 -96t120 -29t129 49t68 183l35 203h-146zM422 948
q-84 0 -131 -58t-70 -190h-82q25 147 72 218q74 111 215 110q205 0 205 -209q0 -61 -19 -164l-114 -655h-72l4 63q-35 -45 -76 -62t-114 -17q-222 0 -222 185t77 293t255 109h160l18 107q14 80 15 133q0 137 -121 137z" />
    <glyph glyph-name="uni1EB2" unicode="&#x1eb2;" horiz-adv-x="776" 
d="M483 1735q0 -104 105 -105q63 0 97 34t56 118h68q-27 -127 -75 -176q-48 -50 -143 -50t-134 35t-39 115q0 27 8 76h61q-4 -45 -4 -47zM664 1950q0 37 -41 37q-25 0 -66 -15l-8 53q43 18 88 19q96 0 96 -88q0 -27 -8 -44q-8 -16 -43 -60t-39 -87h-63q8 53 46 103t38 82z
M565 426l-30 885l-345 -885h375zM567 346h-407l-133 -346h-99l592 1462h76l80 -1462h-96z" />
    <glyph glyph-name="uni1EB3" unicode="&#x1eb3;" horiz-adv-x="716" 
d="M377 1298q0 -104 104 -104q61 0 98 35q36 35 56 117h67q-27 -125 -75 -176q-49 -50 -143 -50t-134 35q-39 35 -39 113q0 27 6 78h64q-4 -27 -4 -48zM557 1513q0 37 -43 37q-27 0 -65 -16l-7 55q45 18 88 19q96 0 97 -88q-1 -27 -9 -44q-8 -16 -42 -60t-41 -87h-64
q8 49 47 101t39 83zM350 496q-241 0 -241 -310q1 -66 35 -96t120 -29t129 49t68 183l35 203h-146zM422 948q-84 0 -131 -58t-70 -190h-82q25 147 72 218q74 111 215 110q205 0 205 -209q0 -61 -19 -164l-114 -655h-72l4 63q-35 -45 -76 -62t-114 -17q-222 0 -222 185t77 293
t255 109h160l18 107q14 80 15 133q0 137 -121 137z" />
    <glyph glyph-name="uni1EB4" unicode="&#x1eb4;" horiz-adv-x="776" 
d="M479 1735q0 -104 105 -105q63 0 96 33t55 115h66q-29 -125 -76 -172t-145 -47q-164 0 -164 145q0 19 6 74h61q-4 -23 -4 -43zM706 1839q-46 1 -72 53t-38 64q-10 12 -25 12q-37 0 -82 -113h-57q59 178 146 179q53 0 84 -65t51 -64q37 0 71 112h58q-31 -98 -61 -138
q-29 -40 -75 -40zM565 426l-30 885l-345 -885h375zM567 346h-407l-133 -346h-99l592 1462h76l80 -1462h-96z" />
    <glyph glyph-name="uni1EB5" unicode="&#x1eb5;" horiz-adv-x="716" 
d="M475 1192q63 0 97 34t57 115h63q-27 -125 -75 -173t-139 -48t-131 35t-40 111q0 26 8 75h60l-4 -45q0 -104 104 -104zM471 1595q49 0 82 -63t53 -64q35 0 72 113h57q-33 -98 -63 -138t-76 -40q-47 0 -79 63t-52 64q-41 0 -84 -113h-55q59 178 145 178zM350 496
q-241 0 -241 -310q1 -66 35 -96t120 -29t129 49t68 183l35 203h-146zM422 948q-84 0 -131 -58t-70 -190h-82q25 147 72 218q74 111 215 110q205 0 205 -209q0 -61 -19 -164l-114 -655h-72l4 63q-35 -45 -76 -62t-114 -17q-222 0 -222 185t77 293t255 109h160l18 107
q14 80 15 133q0 137 -121 137z" />
    <glyph glyph-name="uni1EB6" unicode="&#x1eb6;" horiz-adv-x="776" 
d="M211 -375l31 180h88l-33 -180h-86zM508 1800q0 -90 78 -90q53 0 83 38t48 132h69q-23 -113 -41 -149q-49 -96 -161 -97q-72 0 -110 34t-38 81t13 131h67q-8 -55 -8 -80zM565 426l-30 885l-345 -885h375zM567 346h-407l-133 -346h-99l592 1462h76l80 -1462h-96z" />
    <glyph glyph-name="uni1EB7" unicode="&#x1eb7;" horiz-adv-x="716" 
d="M160 -375l30 180h89l-33 -180h-86zM416 1360q0 -90 78 -90q54 0 82 38t49 134h69q-20 -111 -41 -150q-47 -96 -159 -96q-150 0 -150 131q0 33 12 115h68q-8 -57 -8 -82zM350 496q-241 0 -241 -310q1 -66 35 -96t120 -29t129 49t68 183l35 203h-146zM422 948
q-84 0 -131 -58t-70 -190h-82q25 147 72 218q74 111 215 110q205 0 205 -209q0 -61 -19 -164l-114 -655h-72l4 63q-35 -45 -76 -62t-114 -17q-222 0 -222 185t77 293t255 109h160l18 107q14 80 15 133q0 137 -121 137z" />
    <glyph glyph-name="uni1EB8" unicode="&#x1eb8;" horiz-adv-x="768" 
d="M252 -375l33 180h86l-31 -180h-88zM70 0l258 1462h522l-12 -80h-435l-106 -602h371l-15 -80h-370l-109 -620h432l-14 -80h-522z" />
    <glyph glyph-name="uni1EB9" unicode="&#x1eb9;" horiz-adv-x="727" 
d="M164 -375l31 180h88l-33 -180h-86zM215 578h330q31 164 30 223q0 150 -129 149q-88 0 -137 -63t-76 -213zM162 209q0 -147 131 -148q88 1 138 61t75 200h82q-27 -158 -68 -222q-72 -117 -231 -116q-104 0 -160 58q-55 58 -55 167q0 59 18 164l51 299q33 186 95 262
q82 94 197 94q225 0 227 -221q0 -53 -44 -307h-415l-29 -160q-12 -61 -12 -131z" />
    <glyph glyph-name="uni1EBA" unicode="&#x1eba;" horiz-adv-x="768" 
d="M610 1868q-35 0 -90 -19l-10 60q63 25 115 24q133 0 133 -106q0 -57 -68 -125q-31 -31 -38 -45t-15 -51h-74q8 45 18 63q9 17 51 69t42 85q0 45 -64 45zM70 0l258 1462h522l-12 -80h-435l-106 -602h371l-15 -80h-370l-109 -620h432l-14 -80h-522z" />
    <glyph glyph-name="uni1EBB" unicode="&#x1ebb;" horiz-adv-x="727" 
d="M557 1397q0 45 -63 45q-39 0 -93 -21l-10 62q63 25 115 24q135 0 135 -108q0 -55 -68 -125q-31 -31 -39 -45t-14 -51h-76q10 62 62 124t51 95zM215 578h330q31 164 30 223q0 150 -129 149q-88 0 -137 -63t-76 -213zM162 209q0 -147 131 -148q88 1 138 61t75 200h82
q-27 -158 -68 -222q-72 -117 -231 -116q-104 0 -160 58q-55 58 -55 167q0 59 18 164l51 299q33 186 95 262q82 94 197 94q225 0 227 -221q0 -53 -44 -307h-415l-29 -160q-12 -61 -12 -131z" />
    <glyph glyph-name="uni1EBC" unicode="&#x1ebc;" horiz-adv-x="768" 
d="M688 1661q-51 0 -90 68q-25 41 -36 53t-25 12q-33 0 -68 -117h-57q53 184 139 185q53 0 93 -67t63 -66q33 0 65 116h57q-29 -104 -59 -144t-82 -40zM70 0l258 1462h522l-12 -80h-435l-106 -602h371l-15 -80h-370l-109 -620h432l-14 -80h-522z" />
    <glyph glyph-name="uni1EBD" unicode="&#x1ebd;" horiz-adv-x="727" 
d="M442 1423q49 -1 89 -67t63 -66q35 0 65 119h58q-27 -102 -58 -144t-83 -42t-91 67q-25 41 -35 53q-11 12 -26 13q-33 0 -68 -117h-57q29 98 61 141q33 43 82 43zM215 578h330q31 164 30 223q0 150 -129 149q-88 0 -137 -63t-76 -213zM162 209q0 -147 131 -148
q88 1 138 61t75 200h82q-27 -158 -68 -222q-72 -117 -231 -116q-104 0 -160 58q-55 58 -55 167q0 59 18 164l51 299q33 186 95 262q82 94 197 94q225 0 227 -221q0 -53 -44 -307h-415l-29 -160q-12 -61 -12 -131z" />
    <glyph glyph-name="uni1EBE" unicode="&#x1ebe;" horiz-adv-x="768" 
d="M621 1683l-132 -120h-102l219 196h49l150 -196h-94zM590 1815l123 227h96l-164 -227h-55zM70 0l258 1462h522l-12 -80h-435l-106 -602h371l-15 -80h-370l-109 -620h432l-14 -80h-522z" />
    <glyph glyph-name="uni1EBF" unicode="&#x1ebf;" horiz-adv-x="727" 
d="M498 1245l-131 -121h-103l219 197h47l152 -197h-94zM465 1376l125 228h96l-164 -228h-57zM215 578h330q31 164 30 223q0 150 -129 149q-88 0 -137 -63t-76 -213zM162 209q0 -147 131 -148q88 1 138 61t75 200h82q-27 -158 -68 -222q-72 -117 -231 -116q-104 0 -160 58
q-55 58 -55 167q0 59 18 164l51 299q33 186 95 262q82 94 197 94q225 0 227 -221q0 -53 -44 -307h-415l-29 -160q-12 -61 -12 -131z" />
    <glyph glyph-name="uni1EC0" unicode="&#x1ec0;" horiz-adv-x="768" 
d="M621 1683l-132 -120h-102l219 196h49l150 -196h-94zM688 1815h-53l-88 227h86zM70 0l258 1462h522l-12 -80h-435l-106 -602h371l-15 -80h-370l-109 -620h432l-14 -80h-522z" />
    <glyph glyph-name="uni1EC1" unicode="&#x1ec1;" horiz-adv-x="727" 
d="M498 1245l-131 -121h-103l219 197h47l152 -197h-94zM565 1376h-55l-86 228h86zM215 578h330q31 164 30 223q0 150 -129 149q-88 0 -137 -63t-76 -213zM162 209q0 -147 131 -148q88 1 138 61t75 200h82q-27 -158 -68 -222q-72 -117 -231 -116q-104 0 -160 58
q-55 58 -55 167q0 59 18 164l51 299q33 186 95 262q82 94 197 94q225 0 227 -221q0 -53 -44 -307h-415l-29 -160q-12 -61 -12 -131z" />
    <glyph glyph-name="uni1EC2" unicode="&#x1ec2;" horiz-adv-x="768" 
d="M616 1683l-133 -120h-102l219 194h49l152 -194h-96zM682 1950q0 37 -41 37q-23 0 -66 -15l-6 53q43 18 88 19q96 0 97 -84q0 -41 -41 -88t-45 -84h-64q8 51 43 93t35 69zM70 0l258 1462h522l-12 -80h-435l-106 -602h371l-15 -80h-370l-109 -620h432l-14 -80h-522z" />
    <glyph glyph-name="uni1EC3" unicode="&#x1ec3;" horiz-adv-x="727" 
d="M494 1245l-134 -121h-102l219 195h49l150 -195h-94zM559 1513q0 37 -41 37q-27 0 -65 -16l-9 55q45 18 91 19q96 0 96 -84q0 -41 -42 -89t-46 -83h-62q8 49 43 92t35 69zM215 578h330q31 164 30 223q0 150 -129 149q-88 0 -137 -63t-76 -213zM162 209q0 -147 131 -148
q88 1 138 61t75 200h82q-27 -158 -68 -222q-72 -117 -231 -116q-104 0 -160 58q-55 58 -55 167q0 59 18 164l51 299q33 186 95 262q82 94 197 94q225 0 227 -221q0 -53 -44 -307h-415l-29 -160q-12 -61 -12 -131z" />
    <glyph glyph-name="uni1EC4" unicode="&#x1ec4;" horiz-adv-x="768" 
d="M629 1683l-131 -120h-103l219 196h50l149 -196h-94zM603 2032q48 0 81 -65t51 -64q35 0 72 112h57q-30 -98 -60 -138t-76 -40q-46 1 -72 53t-38 64q-10 12 -24 12q-37 0 -82 -113h-57q35 96 67 138q33 41 81 41zM70 0l258 1462h522l-12 -80h-435l-106 -602h371l-15 -80
h-370l-109 -620h432l-14 -80h-522z" />
    <glyph glyph-name="uni1EC5" unicode="&#x1ec5;" horiz-adv-x="727" 
d="M506 1245l-133 -121h-103l222 197h47l151 -197h-96zM477 1593q49 0 84 -63q31 -63 51 -64q37 0 72 113h57q-33 -98 -63 -138t-75 -40q-46 0 -79 63t-53 64q-37 0 -82 -113h-57q59 178 145 178zM215 578h330q31 164 30 223q0 150 -129 149q-88 0 -137 -63t-76 -213z
M162 209q0 -147 131 -148q88 1 138 61t75 200h82q-27 -158 -68 -222q-72 -117 -231 -116q-104 0 -160 58q-55 58 -55 167q0 59 18 164l51 299q33 186 95 262q82 94 197 94q225 0 227 -221q0 -53 -44 -307h-415l-29 -160q-12 -61 -12 -131z" />
    <glyph glyph-name="uni1EC6" unicode="&#x1ec6;" horiz-adv-x="768" 
d="M262 -375l33 180h86l-33 -180h-86zM639 1817l-121 -170h-98l201 247h53l117 -247h-93zM70 0l258 1462h522l-12 -80h-435l-106 -602h371l-15 -80h-370l-109 -620h432l-14 -80h-522z" />
    <glyph glyph-name="uni1EC7" unicode="&#x1ec7;" horiz-adv-x="727" 
d="M172 -375l33 180h86l-33 -180h-86zM526 1378l-120 -170h-99l203 246h53l115 -246h-92zM215 578h330q31 164 30 223q0 150 -129 149q-88 0 -137 -63t-76 -213zM162 209q0 -147 131 -148q88 1 138 61t75 200h82q-27 -158 -68 -222q-72 -117 -231 -116q-104 0 -160 58
q-55 58 -55 167q0 59 18 164l51 299q33 186 95 262q82 94 197 94q225 0 227 -221q0 -53 -44 -307h-415l-29 -160q-12 -61 -12 -131z" />
    <glyph glyph-name="uni1EC8" unicode="&#x1ec8;" horiz-adv-x="405" 
d="M467 1823q0 45 -64 45q-37 0 -92 -19l-10 60q63 25 115 24q135 0 135 -108q0 -53 -68 -123q-31 -33 -39 -47t-14 -49h-76q8 45 18 63q9 17 52 69t43 85zM70 0l258 1462h90l-258 -1462h-90z" />
    <glyph glyph-name="uni1EC9" unicode="&#x1ec9;" horiz-adv-x="364" 
d="M381 1397q0 45 -64 45q-39 0 -92 -21l-10 62q63 25 115 24q135 0 135 -108q0 -55 -68 -125q-31 -33 -39 -47t-14 -49h-76q10 45 19 63q8 19 51 71t43 85zM49 0l178 1012h88l-178 -1012h-88z" />
    <glyph glyph-name="uni1ECA" unicode="&#x1eca;" horiz-adv-x="405" 
d="M2 -375l33 180h86l-33 -180h-86zM68 0l258 1462h90l-258 -1462h-90z" />
    <glyph glyph-name="uni1ECB" unicode="&#x1ecb;" horiz-adv-x="364" 
d="M-16 -375l32 180h86l-32 -180h-86zM51 0l178 1012h88l-178 -1012h-88zM276 1280l33 182h88l-32 -182h-89z" />
    <glyph glyph-name="uni1ECC" unicode="&#x1ecc;" horiz-adv-x="899" 
d="M250 -375l33 180h86l-33 -180h-86zM786 1216q0 76 -50 130t-138 53q-127 0 -197 -105q-49 -68 -77 -235l-117 -656q-14 -84 -14 -137q1 -202 203 -202q102 0 165 78q63 79 96 261l115 656q14 81 14 157zM584 1479q146 0 220 -71q73 -71 73 -204q0 -66 -15 -151l-121 -678
q-20 -113 -43 -172t-65 -111q-89 -108 -237 -108t-221 70t-73 202q1 62 17 154l119 677q20 115 43 173t67 110q90 109 236 109z" />
    <glyph glyph-name="uni1ECD" unicode="&#x1ecd;" horiz-adv-x="747" 
d="M174 -375l33 180h86l-31 -180h-88zM162 213q0 -152 133 -152q92 1 143 65t78 216l57 328q14 84 15 129q0 152 -133 151q-94 0 -145 -64q-50 -65 -77 -216l-59 -328q-12 -86 -12 -129zM455 1028q221 0 221 -225q0 -51 -19 -160l-55 -309q-31 -182 -94 -258
q-80 -92 -201 -92q-233 0 -233 223q0 64 18 162l53 309q33 186 97 258q80 92 213 92z" />
    <glyph glyph-name="uni1ECE" unicode="&#x1ece;" horiz-adv-x="899" 
d="M719 1823q0 45 -64 45q-37 0 -92 -19l-8 60q59 25 115 24q133 0 133 -106q0 -57 -68 -125q-31 -33 -39 -47t-14 -49h-76q8 45 18 63q9 17 52 69t43 85zM786 1216q0 76 -50 130t-138 53q-127 0 -197 -105q-49 -68 -77 -235l-117 -656q-14 -84 -14 -137q1 -202 203 -202
q102 0 165 78q63 79 96 261l115 656q14 81 14 157zM584 1479q146 0 220 -71q73 -71 73 -204q0 -66 -15 -151l-121 -678q-20 -113 -43 -172t-65 -111q-89 -108 -237 -108t-221 70t-73 202q1 62 17 154l119 677q20 115 43 173t67 110q90 109 236 109z" />
    <glyph glyph-name="uni1ECF" unicode="&#x1ecf;" horiz-adv-x="747" 
d="M563 1397q0 45 -63 45q-37 0 -90 -21l-11 62q63 25 115 24q133 0 133 -106q0 -57 -67 -127q-32 -33 -40 -47t-14 -49h-75q10 45 18 63q8 19 51 71t43 85zM162 213q0 -152 133 -152q92 1 143 65t78 216l57 328q14 84 15 129q0 152 -133 151q-94 0 -145 -64
q-50 -65 -77 -216l-59 -328q-12 -86 -12 -129zM455 1028q221 0 221 -225q0 -51 -19 -160l-55 -309q-31 -182 -94 -258q-80 -92 -201 -92q-233 0 -233 223q0 64 18 162l53 309q33 186 97 258q80 92 213 92z" />
    <glyph glyph-name="uni1ED0" unicode="&#x1ed0;" horiz-adv-x="899" 
d="M662 1683l-132 -120h-102l219 196h47l152 -196h-94zM629 1815l125 227h96l-164 -227h-57zM786 1216q0 76 -50 130t-138 53q-127 0 -197 -105q-49 -68 -77 -235l-117 -656q-14 -84 -14 -137q1 -202 203 -202q102 0 165 78q63 79 96 261l115 656q14 81 14 157zM584 1479
q146 0 220 -71q73 -71 73 -204q0 -66 -15 -151l-121 -678q-20 -113 -43 -172t-65 -111q-89 -108 -237 -108t-221 70t-73 202q1 62 17 154l119 677q20 115 43 173t67 110q90 109 236 109z" />
    <glyph glyph-name="uni1ED1" unicode="&#x1ed1;" horiz-adv-x="747" 
d="M510 1245l-133 -121h-103l222 197h47l149 -197h-94zM477 1376l125 228h96l-163 -228h-58zM162 213q0 -152 133 -152q92 1 143 65t78 216l57 328q14 84 15 129q0 152 -133 151q-94 0 -145 -64q-50 -65 -77 -216l-59 -328q-12 -86 -12 -129zM455 1028q221 0 221 -225
q0 -51 -19 -160l-55 -309q-31 -182 -94 -258q-80 -92 -201 -92q-233 0 -233 223q0 64 18 162l53 309q33 186 97 258q80 92 213 92z" />
    <glyph glyph-name="uni1ED2" unicode="&#x1ed2;" horiz-adv-x="899" 
d="M662 1683l-132 -120h-102l219 196h47l152 -196h-94zM729 1815h-55l-86 227h86zM786 1216q0 76 -50 130t-138 53q-127 0 -197 -105q-49 -68 -77 -235l-117 -656q-14 -84 -14 -137q1 -202 203 -202q102 0 165 78q63 79 96 261l115 656q14 81 14 157zM584 1479
q146 0 220 -71q73 -71 73 -204q0 -66 -15 -151l-121 -678q-20 -113 -43 -172t-65 -111q-89 -108 -237 -108t-221 70t-73 202q1 62 17 154l119 677q20 115 43 173t67 110q90 109 236 109z" />
    <glyph glyph-name="uni1ED3" unicode="&#x1ed3;" horiz-adv-x="747" 
d="M510 1245l-133 -121h-103l222 197h47l149 -197h-94zM575 1376h-53l-86 228h86zM162 213q0 -152 133 -152q92 1 143 65t78 216l57 328q14 84 15 129q0 152 -133 151q-94 0 -145 -64q-50 -65 -77 -216l-59 -328q-12 -86 -12 -129zM455 1028q221 0 221 -225q0 -51 -19 -160
l-55 -309q-31 -182 -94 -258q-80 -92 -201 -92q-233 0 -233 223q0 64 18 162l53 309q33 186 97 258q80 92 213 92z" />
    <glyph glyph-name="uni1ED4" unicode="&#x1ed4;" horiz-adv-x="899" 
d="M657 1683l-133 -120h-102l219 194h49l150 -194h-95zM723 1950q0 37 -41 37q-25 0 -66 -15l-8 53q43 18 88 19q98 0 99 -84q0 -41 -40 -86t-48 -86h-62q8 49 43 93t35 69zM786 1216q0 76 -50 130t-138 53q-127 0 -197 -105q-49 -68 -77 -235l-117 -656q-14 -84 -14 -137
q1 -202 203 -202q102 0 165 78q63 79 96 261l115 656q14 81 14 157zM584 1479q146 0 220 -71q73 -71 73 -204q0 -66 -15 -151l-121 -678q-20 -113 -43 -172t-65 -111q-89 -108 -237 -108t-221 70t-73 202q1 62 17 154l119 677q20 115 43 173t67 110q90 109 236 109z" />
    <glyph glyph-name="uni1ED5" unicode="&#x1ed5;" horiz-adv-x="747" 
d="M504 1245l-131 -121h-103l219 195h48l151 -195h-94zM569 1513q0 37 -41 37q-25 0 -63 -16l-8 55q45 18 88 19q96 0 96 -84q0 -41 -41 -90t-45 -82h-63q6 43 42 90t35 71zM162 213q0 -152 133 -152q92 1 143 65t78 216l57 328q14 84 15 129q0 152 -133 151q-94 0 -145 -64
q-50 -65 -77 -216l-59 -328q-12 -86 -12 -129zM455 1028q221 0 221 -225q0 -51 -19 -160l-55 -309q-31 -182 -94 -258q-80 -92 -201 -92q-233 0 -233 223q0 64 18 162l53 309q33 186 97 258q80 92 213 92z" />
    <glyph glyph-name="uni1ED6" unicode="&#x1ed6;" horiz-adv-x="899" 
d="M670 1683l-133 -120h-103l221 196h47l152 -196h-96zM776 1903q37 0 72 112h57q-33 -98 -63 -138t-76 -40q-47 1 -78 65t-53 64q-41 0 -82 -113h-57q59 178 145 179q51 0 84 -64q19 -41 29 -53t22 -12zM786 1216q0 76 -50 130t-138 53q-127 0 -197 -105q-49 -68 -77 -235
l-117 -656q-14 -84 -14 -137q1 -202 203 -202q102 0 165 78q63 79 96 261l115 656q14 81 14 157zM584 1479q146 0 220 -71q73 -71 73 -204q0 -66 -15 -151l-121 -678q-20 -113 -43 -172t-65 -111q-89 -108 -237 -108t-221 70t-73 202q1 62 17 154l119 677q20 115 43 173
t67 110q90 109 236 109z" />
    <glyph glyph-name="uni1ED7" unicode="&#x1ed7;" horiz-adv-x="747" 
d="M518 1245l-133 -121h-102l221 197h47l149 -197h-94zM489 1593q51 0 83 -63t53 -64q35 0 71 113h58q-33 -98 -63 -138q-29 -40 -75 -40t-79 63t-54 64q-41 0 -84 -113h-55q59 178 145 178zM162 213q0 -152 133 -152q92 1 143 65t78 216l57 328q14 84 15 129
q0 152 -133 151q-94 0 -145 -64q-50 -65 -77 -216l-59 -328q-12 -86 -12 -129zM455 1028q221 0 221 -225q0 -51 -19 -160l-55 -309q-31 -182 -94 -258q-80 -92 -201 -92q-233 0 -233 223q0 64 18 162l53 309q33 186 97 258q80 92 213 92z" />
    <glyph glyph-name="uni1ED8" unicode="&#x1ed8;" horiz-adv-x="899" 
d="M250 -375l33 180h86l-33 -180h-86zM682 1817l-119 -170h-100l203 247h53l115 -247h-91zM786 1216q0 76 -50 130t-138 53q-127 0 -197 -105q-49 -68 -77 -235l-117 -656q-14 -84 -14 -137q1 -202 203 -202q102 0 165 78q63 79 96 261l115 656q14 81 14 157zM584 1479
q146 0 220 -71q73 -71 73 -204q0 -66 -15 -151l-121 -678q-20 -113 -43 -172t-65 -111q-89 -108 -237 -108t-221 70t-73 202q1 62 17 154l119 677q20 115 43 173t67 110q90 109 236 109z" />
    <glyph glyph-name="uni1ED9" unicode="&#x1ed9;" horiz-adv-x="747" 
d="M174 -375l33 180h86l-31 -180h-88zM532 1378l-120 -170h-99l203 246h53l115 -246h-92zM162 213q0 -152 133 -152q92 1 143 65t78 216l57 328q14 84 15 129q0 152 -133 151q-94 0 -145 -64q-50 -65 -77 -216l-59 -328q-12 -86 -12 -129zM455 1028q221 0 221 -225
q0 -51 -19 -160l-55 -309q-31 -182 -94 -258q-80 -92 -201 -92q-233 0 -233 223q0 64 18 162l53 309q33 186 97 258q80 92 213 92z" />
    <glyph glyph-name="uni1EDA" unicode="&#x1eda;" horiz-adv-x="948" 
d="M621 1632l141 273h108l-184 -273h-65zM786 1218q0 76 -49 130t-139 53q-127 0 -197 -105q-49 -72 -77 -237l-117 -656q-14 -84 -14 -137q1 -202 203 -202q102 0 165 78q63 79 96 261l115 656q14 83 14 159zM1098 1448q0 -142 -104 -232q-26 -22 -122 -83l-2 -15v-10
q-4 -29 -8 -55l-121 -678q-20 -113 -43 -172t-65 -111q-89 -108 -237 -108t-221 70t-73 202q0 61 17 154l119 677q20 115 43 175t67 110q90 109 250 109q272 0 279 -273q66 49 86 76q57 72 57 156l-4 41h80q2 -12 2 -33z" />
    <glyph glyph-name="uni1EDB" unicode="&#x1edb;" horiz-adv-x="784" 
d="M463 1194l141 274h109l-185 -274h-65zM162 213q0 -152 133 -152q92 -1 143 65t78 216l57 328q14 80 15 129q0 152 -133 151q-94 0 -145 -64q-50 -65 -77 -216l-59 -328q-12 -82 -12 -129zM879 1028v-33q0 -190 -215 -311q-2 -8 -2 -16l-60 -334q-31 -182 -94 -258
q-80 -92 -201 -92q-233 0 -233 223q0 63 18 162l53 309q33 186 97 258q80 94 213 94q221 0 221 -229q0 -23 -2 -41q127 106 127 227q0 23 -4 41h82z" />
    <glyph glyph-name="uni1EDC" unicode="&#x1edc;" horiz-adv-x="948" 
d="M707 1632h-64l-90 273h100zM786 1218q0 76 -49 130t-139 53q-127 0 -197 -105q-49 -72 -77 -237l-117 -656q-14 -84 -14 -137q1 -202 203 -202q102 0 165 78q63 79 96 261l115 656q14 83 14 159zM1098 1448q0 -142 -104 -232q-26 -22 -122 -83l-2 -15v-10q-4 -29 -8 -55
l-121 -678q-20 -113 -43 -172t-65 -111q-89 -108 -237 -108t-221 70t-73 202q0 61 17 154l119 677q20 115 43 175t67 110q90 109 250 109q272 0 279 -273q66 49 86 76q57 72 57 156l-4 41h80q2 -12 2 -33z" />
    <glyph glyph-name="uni1EDD" unicode="&#x1edd;" horiz-adv-x="784" 
d="M547 1194h-62l-92 274h103zM162 213q0 -152 133 -152q92 -1 143 65t78 216l57 328q14 80 15 129q0 152 -133 151q-94 0 -145 -64q-50 -65 -77 -216l-59 -328q-12 -82 -12 -129zM879 1028v-33q0 -190 -215 -311q-2 -8 -2 -16l-60 -334q-31 -182 -94 -258q-80 -92 -201 -92
q-233 0 -233 223q0 63 18 162l53 309q33 186 97 258q80 94 213 94q221 0 221 -229q0 -23 -2 -41q127 106 127 227q0 23 -4 41h82z" />
    <glyph glyph-name="uni1EDE" unicode="&#x1ede;" horiz-adv-x="948" 
d="M647 1868q-35 0 -90 -19l-10 60q63 25 115 24q133 0 133 -106q0 -57 -68 -125q-31 -31 -38 -45t-15 -51h-74q10 47 17 64q7 18 50 68t44 85q0 45 -64 45zM786 1218q0 76 -49 130t-139 53q-127 0 -197 -105q-49 -72 -77 -237l-117 -656q-14 -84 -14 -137q1 -202 203 -202
q102 0 165 78q63 79 96 261l115 656q14 83 14 159zM1098 1448q0 -142 -104 -232q-26 -22 -122 -83l-2 -15v-10q-4 -29 -8 -55l-121 -678q-20 -113 -43 -172t-65 -111q-89 -108 -237 -108t-221 70t-73 202q0 61 17 154l119 677q20 115 43 175t67 110q90 109 250 109
q272 0 279 -273q66 49 86 76q57 72 57 156l-4 41h80q2 -12 2 -33z" />
    <glyph glyph-name="uni1EDF" unicode="&#x1edf;" horiz-adv-x="784" 
d="M567 1397q0 45 -63 45q-37 0 -90 -21l-11 62q63 25 115 24q133 0 133 -108q0 -55 -67 -125q-32 -33 -40 -47t-14 -49h-73q8 45 17 64q9 18 51 70t42 85zM162 213q0 -152 133 -152q92 -1 143 65t78 216l57 328q14 80 15 129q0 152 -133 151q-94 0 -145 -64
q-50 -65 -77 -216l-59 -328q-12 -82 -12 -129zM879 1028v-33q0 -190 -215 -311q-2 -8 -2 -16l-60 -334q-31 -182 -94 -258q-80 -92 -201 -92q-233 0 -233 223q0 63 18 162l53 309q33 186 97 258q80 94 213 94q221 0 221 -229q0 -23 -2 -41q127 106 127 227q0 23 -4 41h82z
" />
    <glyph glyph-name="uni1EE0" unicode="&#x1ee0;" horiz-adv-x="948" 
d="M594 1862q49 0 88 -66q37 -68 61 -67q35 0 68 116h57q-26 -100 -58 -142t-83 -42t-92 68q-23 41 -34 53t-26 12q-30 0 -67 -117h-57q29 98 61 142q33 43 82 43zM786 1218q0 76 -49 130t-139 53q-127 0 -197 -105q-49 -72 -77 -237l-117 -656q-14 -84 -14 -137
q1 -202 203 -202q102 0 165 78q63 79 96 261l115 656q14 83 14 159zM1098 1448q0 -142 -104 -232q-26 -22 -122 -83l-2 -15v-10q-4 -29 -8 -55l-121 -678q-20 -113 -43 -172t-65 -111q-89 -108 -237 -108t-221 70t-73 202q0 61 17 154l119 677q20 115 43 175t67 110
q90 109 250 109q272 0 279 -273q66 49 86 76q57 72 57 156l-4 41h80q2 -12 2 -33z" />
    <glyph glyph-name="uni1EE1" unicode="&#x1ee1;" horiz-adv-x="784" 
d="M434 1423q49 -1 89 -67t63 -66q35 0 65 119h60q-27 -100 -59 -143t-84 -43t-91 67q-25 42 -35 54t-24 12q-31 0 -70 -117h-57q29 98 61 141q33 43 82 43zM162 213q0 -152 133 -152q92 -1 143 65t78 216l57 328q14 80 15 129q0 152 -133 151q-94 0 -145 -64
q-50 -65 -77 -216l-59 -328q-12 -82 -12 -129zM879 1028v-33q0 -190 -215 -311q-2 -8 -2 -16l-60 -334q-31 -182 -94 -258q-80 -92 -201 -92q-233 0 -233 223q0 63 18 162l53 309q33 186 97 258q80 94 213 94q221 0 221 -229q0 -23 -2 -41q127 106 127 227q0 23 -4 41h82z
" />
    <glyph glyph-name="uni1EE2" unicode="&#x1ee2;" horiz-adv-x="948" 
d="M274 -375l31 180h88l-33 -180h-86zM786 1218q0 76 -49 130t-139 53q-127 0 -197 -105q-49 -72 -77 -237l-117 -656q-14 -84 -14 -137q1 -202 203 -202q102 0 165 78q63 79 96 261l115 656q14 83 14 159zM1098 1448q0 -142 -104 -232q-26 -22 -122 -83l-2 -15v-10
q-4 -29 -8 -55l-121 -678q-20 -113 -43 -172t-65 -111q-89 -108 -237 -108t-221 70t-73 202q0 61 17 154l119 677q20 115 43 175t67 110q90 109 250 109q272 0 279 -273q66 49 86 76q57 72 57 156l-4 41h80q2 -12 2 -33z" />
    <glyph glyph-name="uni1EE3" unicode="&#x1ee3;" horiz-adv-x="784" 
d="M182 -375l33 180h86l-31 -180h-88zM162 213q0 -152 133 -152q92 -1 143 65t78 216l57 328q14 80 15 129q0 152 -133 151q-94 0 -145 -64q-50 -65 -77 -216l-59 -328q-12 -82 -12 -129zM879 1028v-33q0 -190 -215 -311q-2 -8 -2 -16l-60 -334q-31 -182 -94 -258
q-80 -92 -201 -92q-233 0 -233 223q0 63 18 162l53 309q33 186 97 258q80 94 213 94q221 0 221 -229q0 -23 -2 -41q127 106 127 227q0 23 -4 41h82z" />
    <glyph glyph-name="uni1EE4" unicode="&#x1ee4;" horiz-adv-x="917" 
d="M260 -375l31 180h88l-33 -180h-86zM207 236q0 -172 180 -173q137 0 205 113q37 57 59 193l195 1093h90l-197 -1110q-19 -110 -37 -158t-55 -96q-92 -115 -264 -114q-127 0 -197 62t-69 177q0 66 18 162l189 1077h90l-193 -1093q-14 -84 -14 -133z" />
    <glyph glyph-name="uni1EE5" unicode="&#x1ee5;" horiz-adv-x="749" 
d="M174 -375l33 180h86l-33 -180h-86zM172 203q0 -139 107 -140q88 0 142 84t89 273l104 592h88l-178 -1012h-69l12 104q-49 -70 -93 -96t-121 -24q-77 0 -124 51t-47 127t20 205l115 645h88l-117 -658q-16 -104 -16 -151z" />
    <glyph glyph-name="uni1EE6" unicode="&#x1ee6;" horiz-adv-x="917" 
d="M719 1823q0 45 -64 45q-35 0 -90 -19l-10 60q63 25 115 24q133 0 133 -108q0 -53 -68 -123q-29 -31 -37 -46t-16 -50h-74q10 47 19 65q8 17 50 67t42 85zM207 236q0 -172 180 -173q137 0 205 113q37 57 59 193l195 1093h90l-197 -1110q-19 -110 -37 -158t-55 -96
q-92 -115 -264 -114q-127 0 -197 62t-69 177q0 66 18 162l189 1077h90l-193 -1093q-14 -84 -14 -133z" />
    <glyph glyph-name="uni1EE7" unicode="&#x1ee7;" horiz-adv-x="749" 
d="M563 1397q0 45 -63 45q-39 0 -92 -21l-11 62q63 25 115 24q135 0 135 -108q0 -55 -67 -125q-32 -33 -40 -47t-14 -49h-75q10 47 18 65q8 17 51 69t43 85zM172 203q0 -139 107 -140q88 0 142 84t89 273l104 592h88l-178 -1012h-69l12 104q-49 -70 -93 -96t-121 -24
q-77 0 -124 51t-47 127t20 205l115 645h88l-117 -658q-16 -104 -16 -151z" />
    <glyph glyph-name="uni1EE8" unicode="&#x1ee8;" horiz-adv-x="987" 
d="M641 1632l141 273h109l-184 -273h-66zM207 236q0 -172 180 -173q137 0 205 113q37 57 59 193l195 1093h90l-53 -297q106 67 153 131t47 144q0 23 -4 41h82v-37q-3 -113 -69 -193t-224 -164l-129 -735q-19 -110 -37 -158t-55 -96q-92 -115 -264 -114q-127 0 -197 62
t-69 177q0 66 18 162l189 1077h90l-193 -1093q-14 -80 -14 -133z" />
    <glyph glyph-name="uni1EE9" unicode="&#x1ee9;" horiz-adv-x="815" 
d="M473 1194l143 274h109l-184 -274h-68zM928 1028v-35q0 -109 -68 -193t-225 -165l-111 -635h-69l12 104q-49 -70 -93 -96t-121 -24q-77 0 -124 51t-47 127t20 205l115 645h88l-117 -658q-16 -98 -16 -151q0 -139 107 -140q88 0 142 84t89 273l104 592h88l-53 -299
q201 123 201 278q0 18 -4 37h82z" />
    <glyph glyph-name="uni1EEA" unicode="&#x1eea;" horiz-adv-x="987" 
d="M717 1632h-64l-90 273h101zM207 236q0 -172 180 -173q137 0 205 113q37 57 59 193l195 1093h90l-53 -297q106 67 153 131t47 144q0 23 -4 41h82v-37q-3 -113 -69 -193t-224 -164l-129 -735q-19 -110 -37 -158t-55 -96q-92 -115 -264 -114q-127 0 -197 62t-69 177
q0 66 18 162l189 1077h90l-193 -1093q-14 -80 -14 -133z" />
    <glyph glyph-name="uni1EEB" unicode="&#x1eeb;" horiz-adv-x="815" 
d="M532 1194h-61l-92 274h102zM928 1028v-35q0 -109 -68 -193t-225 -165l-111 -635h-69l12 104q-49 -70 -93 -96t-121 -24q-77 0 -124 51t-47 127t20 205l115 645h88l-117 -658q-16 -98 -16 -151q0 -139 107 -140q88 0 142 84t89 273l104 592h88l-53 -299q201 123 201 278
q0 18 -4 37h82z" />
    <glyph glyph-name="uni1EEC" unicode="&#x1eec;" horiz-adv-x="987" 
d="M719 1823q0 45 -64 45q-37 0 -92 -19l-8 60q59 25 115 24q133 0 133 -106q0 -57 -68 -125q-31 -33 -39 -47t-14 -49h-76q8 45 18 63q9 17 52 69t43 85zM207 236q0 -172 180 -173q137 0 205 113q37 57 59 193l195 1093h90l-53 -297q106 67 153 131t47 144q0 23 -4 41h82
v-37q-3 -113 -69 -193t-224 -164l-129 -735q-19 -110 -37 -158t-55 -96q-92 -115 -264 -114q-127 0 -197 62t-69 177q0 66 18 162l189 1077h90l-193 -1093q-14 -80 -14 -133z" />
    <glyph glyph-name="uni1EED" unicode="&#x1eed;" horiz-adv-x="815" 
d="M555 1397q0 45 -63 45q-37 0 -91 -21l-10 62q63 25 115 24q133 0 133 -108q0 -55 -68 -125q-31 -33 -39 -47t-14 -49h-74q8 45 17 62q8 16 51 70t43 87zM928 1028v-35q0 -109 -68 -193t-225 -165l-111 -635h-69l12 104q-49 -70 -93 -96t-121 -24q-77 0 -124 51t-47 127
t20 205l115 645h88l-117 -658q-16 -98 -16 -151q0 -139 107 -140q88 0 142 84t89 273l104 592h88l-53 -299q201 123 201 278q0 18 -4 37h82z" />
    <glyph glyph-name="uni1EEE" unicode="&#x1eee;" horiz-adv-x="987" 
d="M610 1862q49 0 89 -67t63 -66q35 0 67 116h58q-29 -102 -61 -143t-82 -41t-91 68q-25 43 -35 54t-24 11q-33 0 -70 -117h-57q29 98 61 142q33 43 82 43zM207 236q0 -172 180 -173q137 0 205 113q37 57 59 193l195 1093h90l-53 -297q106 67 153 131t47 144q0 23 -4 41h82
v-37q-3 -113 -69 -193t-224 -164l-129 -735q-19 -110 -37 -158t-55 -96q-92 -115 -264 -114q-127 0 -197 62t-69 177q0 66 18 162l189 1077h90l-193 -1093q-14 -80 -14 -133z" />
    <glyph glyph-name="uni1EEF" unicode="&#x1eef;" horiz-adv-x="815" 
d="M446 1423q48 0 91 -65q37 -68 61 -68q37 0 68 119h57q-29 -102 -59 -144t-83 -42q-53 1 -91 67t-60 66q-33 0 -68 -117h-57q29 100 61 142t80 42zM928 1028v-35q0 -109 -68 -193t-225 -165l-111 -635h-69l12 104q-49 -70 -93 -96t-121 -24q-77 0 -124 51t-47 127t20 205
l115 645h88l-117 -658q-16 -98 -16 -151q0 -139 107 -140q88 0 142 84t89 273l104 592h88l-53 -299q201 123 201 278q0 18 -4 37h82z" />
    <glyph glyph-name="uni1EF0" unicode="&#x1ef0;" horiz-adv-x="987" 
d="M279 -375l32 180h86l-30 -180h-88zM207 236q0 -172 180 -173q137 0 205 113q37 57 59 193l195 1093h90l-53 -297q106 67 153 131t47 144q0 23 -4 41h82v-37q-3 -113 -69 -193t-224 -164l-129 -735q-19 -110 -37 -158t-55 -96q-92 -115 -264 -114q-127 0 -197 62t-69 177
q0 66 18 162l189 1077h90l-193 -1093q-14 -80 -14 -133z" />
    <glyph glyph-name="uni1EF1" unicode="&#x1ef1;" horiz-adv-x="815" 
d="M184 -375l33 180h86l-33 -180h-86zM928 1028v-35q0 -109 -68 -193t-225 -165l-111 -635h-69l12 104q-49 -70 -93 -96t-121 -24q-77 0 -124 51t-47 127t20 205l115 645h88l-117 -658q-16 -98 -16 -151q0 -139 107 -140q88 0 142 84t89 273l104 592h88l-53 -299
q201 123 201 278q0 18 -4 37h82z" />
    <glyph glyph-name="Ygrave" unicode="&#x1ef2;" horiz-adv-x="729" 
d="M623 1632h-62l-92 273h102zM231 0l97 553l-133 909h90l108 -780l385 780h94l-454 -909l-96 -553h-91z" />
    <glyph glyph-name="ygrave" unicode="&#x1ef3;" horiz-adv-x="653" 
d="M504 1194h-62l-92 274h103zM195 -16l-58 1028h84l39 -906l334 906h90l-475 -1239q-59 -143 -117 -193t-168 -51l15 80q73 0 107 33t77 143z" />
    <glyph glyph-name="uni1EF4" unicode="&#x1ef4;" horiz-adv-x="729" 
d="M166 -375l33 180h86l-33 -180h-86zM233 0l97 553l-133 909h90l108 -780l383 780h96l-454 -909l-96 -553h-91z" />
    <glyph glyph-name="uni1EF5" unicode="&#x1ef5;" horiz-adv-x="653" 
d="M317 -375l31 180h88l-33 -180h-86zM195 -16l-58 1028h84l39 -906l334 906h90l-475 -1239q-59 -143 -117 -193t-168 -51l15 80q73 0 107 33t77 143z" />
    <glyph glyph-name="uni1EF6" unicode="&#x1ef6;" horiz-adv-x="729" 
d="M608 1823q0 45 -63 45q-37 0 -92 -19l-9 60q59 25 115 24q133 0 133 -106q0 -57 -67 -125q-31 -33 -39 -47t-15 -49h-75q8 45 17 63q9 17 52 69t43 85zM231 0l97 553l-133 909h90l108 -780l385 780h94l-454 -909l-96 -553h-91z" />
    <glyph glyph-name="uni1EF7" unicode="&#x1ef7;" horiz-adv-x="653" 
d="M438 1442q-37 0 -92 -21l-10 62q63 25 117 24q133 0 133 -106q0 -57 -68 -127q-31 -33 -39 -47t-14 -49h-76q8 45 19 64q10 18 52 70t42 85q0 45 -64 45zM195 -16l-58 1028h84l39 -906l334 906h90l-475 -1239q-59 -143 -117 -193t-168 -51l15 80q73 0 107 33t77 143z" />
    <glyph glyph-name="uni1EF8" unicode="&#x1ef8;" horiz-adv-x="729" 
d="M636 1661q-52 0 -91 68q-25 43 -35 54t-25 11q-34 0 -69 -117h-58q53 184 140 185q53 0 93 -67t62 -66q31 0 68 116h57q-30 -104 -60 -144t-82 -40zM231 0l97 553l-133 909h90l108 -780l385 780h94l-454 -909l-96 -553h-91z" />
    <glyph glyph-name="uni1EF9" unicode="&#x1ef9;" horiz-adv-x="653" 
d="M391 1423q53 -1 93 -67t63 -66q37 0 67 119h58q-29 -102 -60 -144q-30 -42 -82 -42t-92 67q-23 41 -34 53t-25 13q-33 0 -68 -117h-57q51 184 137 184zM195 -16l-58 1028h84l39 -906l334 906h90l-475 -1239q-59 -143 -117 -193t-168 -51l15 80q73 0 107 33t77 143z" />
    <glyph glyph-name="uni2002" unicode="&#x2002;" horiz-adv-x="1024" 
 />
    <glyph glyph-name="uni2003" unicode="&#x2003;" horiz-adv-x="2048" 
 />
    <glyph glyph-name="uni2004" unicode="&#x2004;" horiz-adv-x="681" 
 />
    <glyph glyph-name="uni2005" unicode="&#x2005;" horiz-adv-x="512" 
 />
    <glyph glyph-name="uni2006" unicode="&#x2006;" horiz-adv-x="342" 
 />
    <glyph glyph-name="uni2007" unicode="&#x2007;" 
 />
    <glyph glyph-name="uni2008" unicode="&#x2008;" horiz-adv-x="0" 
 />
    <glyph glyph-name="uni2009" unicode="&#x2009;" horiz-adv-x="409" 
 />
    <glyph glyph-name="uni200A" unicode="&#x200a;" horiz-adv-x="256" 
 />
    <glyph glyph-name="uni2011" unicode="&#x2011;" horiz-adv-x="608" 
d="M168 715l14 80h350l-14 -80h-350z" />
    <glyph glyph-name="figuredash" unicode="&#x2012;" 
d="M190 715l15 80h555l-15 -80h-555z" />
    <glyph glyph-name="endash" unicode="&#x2013;" 
d="M190 715l15 80h555l-15 -80h-555z" />
    <glyph glyph-name="emdash" unicode="&#x2014;" 
d="M133 715l14 80h670l-14 -80h-670z" />
    <glyph glyph-name="afii00208" unicode="&#x2015;" 
d="M133 715l14 80h670l-14 -80h-670z" />
    <glyph glyph-name="underscoredbl" unicode="&#x2017;" horiz-adv-x="598" 
d="M-166 -260l12 67h662l-12 -67h-662zM-193 -408l13 68h661l-12 -68h-662z" />
    <glyph glyph-name="quoteleft" unicode="&#x2018;" horiz-adv-x="225" 
d="M354 1462l-129 -456h-92l150 456h71z" />
    <glyph glyph-name="quoteright" unicode="&#x2019;" horiz-adv-x="225" 
d="M133 1006l127 456h94l-149 -456h-72z" />
    <glyph glyph-name="quotesinglbase" unicode="&#x201a;" horiz-adv-x="225" 
d="M-98 -299l127 457h94l-150 -457h-71z" />
    <glyph glyph-name="quotedblleft" unicode="&#x201c;" horiz-adv-x="448" 
d="M354 1462l-129 -456h-92l150 456h71zM575 1462l-126 -456h-93l150 456h69z" />
    <glyph glyph-name="quotedblright" unicode="&#x201d;" horiz-adv-x="448" 
d="M356 1006l127 456h92l-147 -456h-72zM133 1006l127 456h94l-149 -456h-72z" />
    <glyph glyph-name="quotedblbase" unicode="&#x201e;" horiz-adv-x="448" 
d="M125 -299l127 457h92l-147 -457h-72zM-98 -299l127 457h94l-150 -457h-71z" />
    <glyph glyph-name="dagger" unicode="&#x2020;" 
d="M457 907h-264l14 80h264l84 475h88l-84 -475h264l-12 -80h-264l-219 -1237h-90z" />
    <glyph glyph-name="daggerdbl" unicode="&#x2021;" 
d="M457 907h-264l14 80h264l84 475h88l-84 -475h264l-12 -80h-264l-68 -379h248l-14 -79h-248l-137 -779h-90l139 779h-250l14 79h248z" />
    <glyph glyph-name="bullet" unicode="&#x2022;" 
d="M430 1067q137 0 230 -90q94 -90 94 -223q0 -132 -94 -222t-231 -90q-138 0 -230 89q-93 89 -93 223t94 224q94 89 230 89z" />
    <glyph glyph-name="ellipsis" unicode="&#x2026;" horiz-adv-x="1069" 
d="M758 0l26 158h90l-26 -158h-90zM399 0l29 158h90l-29 -158h-90zM45 0l29 158h90l-29 -158h-90z" />
    <glyph glyph-name="perthousand" unicode="&#x2030;" horiz-adv-x="1597" 
d="M283 0l542 1462h84l-542 -1462h-84zM1470 584q0 98 -90 98q-57 0 -88 -42t-49 -142l-43 -250q-8 -39 -8 -86q0 -100 90 -101q57 1 88 43t49 144l43 250q8 41 8 86zM1556 592q0 -37 -10 -94l-43 -252q-25 -132 -80 -194t-151 -62q-164 0 -164 168q0 43 10 104l45 252
q23 129 74 184t145 56q174 0 174 -162zM985 582q0 100 -90 100q-57 0 -89 -42t-48 -142l-45 -250q-8 -47 -8 -86q0 -100 90 -101q57 1 88 43t49 144l43 250q10 55 10 84zM1071 592q0 -31 -10 -94l-45 -252q-25 -136 -79 -196t-153 -60q-164 0 -163 168q0 43 10 104l45 252
q23 129 74 184t147 56q174 0 174 -162zM489 1309q0 98 -90 98q-57 0 -88 -42t-49 -144l-45 -250q-8 -47 -8 -86q0 -98 90 -99q57 0 88 42t49 143l45 250q8 47 8 88zM575 1317q0 -39 -10 -94l-45 -252q-23 -133 -78 -195t-153 -61q-164 0 -164 168q0 34 12 102l43 252
q23 131 74 186t147 56q174 0 174 -162z" />
    <glyph glyph-name="guilsinglleft" unicode="&#x2039;" horiz-adv-x="309" 
d="M166 598l70 -256l-60 -29l-108 291l213 293l47 -41z" />
    <glyph glyph-name="guilsinglright" unicode="&#x203a;" horiz-adv-x="309" 
d="M180 610l-71 258l61 29l109 -293l-213 -291l-48 41z" />
    <glyph glyph-name="uni203E" unicode="&#x203e;" horiz-adv-x="598" 
d="M174 1669l12 74h662l-12 -74h-662z" />
    <glyph glyph-name="fraction" unicode="&#x2044;" horiz-adv-x="200" 
d="M-166 0l543 1462h82l-541 -1462h-84z" />
    <glyph glyph-name="zerosuperior" unicode="&#x2070;" horiz-adv-x="550" 
d="M571 1497q0 113 -98 113q-127 0 -162 -199l-63 -364q-12 -66 -12 -82q0 -115 100 -115q127 0 162 197l63 364q10 53 10 86zM469 1677q178 0 178 -172q0 -49 -10 -104l-66 -375q-23 -129 -77 -187t-156 -59q-178 0 -178 172q0 39 12 105l66 375q23 129 77 187
q55 58 154 58z" />
    <glyph glyph-name="foursuperior" unicode="&#x2074;" horiz-adv-x="550" 
d="M397 791l29 165h-285l9 54l339 657h80l-329 -639h198l51 293h74l-53 -293h72l-13 -74h-71l-29 -163h-72z" />
    <glyph glyph-name="fivesuperior" unicode="&#x2075;" horiz-adv-x="550" 
d="M582 1165q0 -139 -47 -252q-55 -133 -207 -133q-184 0 -185 154q0 37 13 106h71q-8 -51 -8 -93q0 -41 29 -69t82 -28q111 0 147 133q27 90 27 186t-88 97q-63 0 -133 -62l-58 10l109 453h321l-10 -68h-256l-70 -296q53 27 107 26q156 0 156 -164z" />
    <glyph glyph-name="sixsuperior" unicode="&#x2076;" horiz-adv-x="550" 
d="M416 1262q-80 0 -121 -80q-21 -41 -37 -113t-16 -119q0 -102 94 -102q82 0 119 78q18 36 33 110q16 74 16 122t-24 76t-64 28zM430 1327q74 0 114 -41t40 -112q0 -70 -20 -160t-44 -135q-53 -98 -182 -99q-174 0 -174 168q0 104 28 181t78 157l230 381h90l-209 -346
q31 6 49 6z" />
    <glyph glyph-name="sevensuperior" unicode="&#x2077;" horiz-adv-x="550" 
d="M174 791l375 808h-293l10 68h379l-10 -51l-371 -825h-90z" />
    <glyph glyph-name="eightsuperior" unicode="&#x2078;" horiz-adv-x="550" 
d="M406 1217q-88 0 -125 -60q-19 -31 -35 -97t-17 -118q0 -94 107 -94q86 0 125 57q18 31 35 100q16 69 16 115q0 96 -106 97zM563 1528q0 84 -91 84t-122 -79t-31 -169q1 -82 91 -82t118 66q35 86 35 180zM246 1360q0 133 47 227q49 90 178 90q82 0 125 -37t43 -95
t-15 -127q-16 -68 -34 -104t-66 -61q64 -39 64 -118t-18 -157t-46 -116q-59 -82 -186 -82q-90 0 -138 40t-48 108t18 146t44 118t77 63q-45 37 -45 105z" />
    <glyph glyph-name="ninesuperior" unicode="&#x2079;" horiz-adv-x="550" 
d="M473 1610q-88 0 -123 -70q-16 -34 -30 -104t-15 -113q0 -94 94 -94q82 0 121 74q16 31 32 101t15 112q0 94 -94 94zM227 1310q0 66 20 151q19 85 42 126q51 90 180 90q176 0 176 -157q0 -117 -43 -215q-14 -35 -55 -103l-252 -411h-90l233 383q-29 -10 -57 -11
q-72 0 -113 40q-41 41 -41 107z" />
    <glyph glyph-name="zeroinferior" unicode="&#x2080;" horiz-adv-x="550" 
d="M395 502q0 113 -98 112q-127 0 -162 -198l-63 -365q-12 -66 -13 -84q0 -115 101 -114q127 -1 162 198l63 365q10 55 10 86zM293 682q178 0 178 -174q0 -47 -10 -102l-66 -375q-23 -129 -78 -187t-155 -59q-178 0 -178 172q0 47 12 104l65 375q23 130 78 188t154 58z" />
    <glyph glyph-name="oneinferior" unicode="&#x2081;" horiz-adv-x="550" 
d="M125 -205l137 787l-119 -62l-30 60l186 92h57l-153 -877h-78z" />
    <glyph glyph-name="twoinferior" unicode="&#x2082;" horiz-adv-x="550" 
d="M274 610q-59 0 -91 -40t-52 -138h-72q16 106 45 154q57 94 177 94q162 0 161 -162q0 -100 -42 -187t-158 -229l-197 -239h283l-13 -68h-383l9 53l249 308q96 118 134 196t38 168t-88 90z" />
    <glyph glyph-name="threeinferior" unicode="&#x2083;" horiz-adv-x="550" 
d="M186 291q82 0 130 58q48 57 48 159t-92 102q-61 0 -95 -40t-52 -134h-72q19 132 71 188t150 56q168 0 168 -169t-131 -253q76 -49 76 -179t-63 -212t-177 -82q-188 0 -188 154q0 33 12 106h74q-10 -51 -10 -94q1 -43 29 -71t79 -27q76 1 121 65t45 172q0 133 -127 133
h-63l10 68h57z" />
    <glyph glyph-name="fourinferior" unicode="&#x2084;" horiz-adv-x="550" 
d="M221 -205l29 166h-285l8 53l340 658h80l-330 -639h199l51 293h74l-53 -293h72l-13 -74h-71l-29 -164h-72z" />
    <glyph glyph-name="fiveinferior" unicode="&#x2085;" horiz-adv-x="550" 
d="M250 334q156 0 156 -164q0 -139 -48 -252q-55 -133 -206 -133q-184 0 -185 154q0 37 13 106h71q-8 -59 -8 -86q0 -106 111 -106t147 135q27 86 27 184t-88 98q-63 0 -134 -61l-57 10l109 453h321l-10 -68h-256l-70 -297q53 27 107 27z" />
    <glyph glyph-name="sixinferior" unicode="&#x2086;" horiz-adv-x="550" 
d="M240 266q-80 0 -121 -80q-21 -40 -37 -112t-16 -119q0 -102 96 -102q82 0 119 77q18 37 33 112q16 75 16 123q0 49 -24 75t-66 26zM256 332q74 0 114 -41t40 -112t-20 -161t-44 -135q-53 -98 -184 -98q-174 0 -174 168q0 104 28 182t76 156l232 381h90l-209 -346
q31 6 51 6z" />
    <glyph glyph-name="seveninferior" unicode="&#x2087;" horiz-adv-x="550" 
d="M-2 -205l375 809h-293l10 68h379l-10 -51l-371 -826h-90z" />
    <glyph glyph-name="eightinferior" unicode="&#x2088;" horiz-adv-x="550" 
d="M231 221q-88 0 -125 -59q-18 -30 -34 -98t-17 -117q0 -94 107 -94q86 0 125 57q19 32 35 100t16 115q0 96 -107 96zM299 616q-92 0 -123 -78t-31 -169q-1 -82 91 -82t118 65q37 82 37 180q0 84 -92 84zM72 367q0 127 47 225q49 90 178 90q82 0 125 -37t43 -95t-14 -128
t-33 -100q-20 -39 -68 -64q64 -37 64 -117q0 -79 -18 -157t-46 -117q-59 -82 -186 -82q-90 0 -138 40q-48 39 -48 107t18 147t43 117t78 64q-45 37 -45 107z" />
    <glyph glyph-name="nineinferior" unicode="&#x2089;" horiz-adv-x="550" 
d="M299 614q-88 0 -123 -69q-16 -35 -30 -105t-15 -112q0 -94 94 -95q80 0 121 74q16 31 32 101q15 70 15 112q0 94 -94 94zM207 168q-72 0 -113 40t-41 107q-1 67 19 151t43 126q51 90 180 90q176 0 176 -158q0 -117 -43 -215q-16 -39 -55 -102l-252 -412h-90l233 383
q-31 -10 -57 -10z" />
    <glyph glyph-name="franc" unicode="&#x20a3;" horiz-adv-x="1046" 
d="M998 883q62 0 110 -47l-55 -72q-35 41 -78 41q-76 0 -130 -108t-95 -343l-62 -354h-88l154 866h69l-12 -112q43 72 84 100t103 29zM49 0l258 1462h506l-12 -80h-418l-109 -614h355l-15 -80h-354l-121 -688h-90z" />
    <glyph glyph-name="lira" unicode="&#x20a4;" 
d="M238 993q0 201 81 336q94 150 279 150q131 0 202 -67t70 -189q0 -47 -14 -131h-84q10 70 10 118q0 188 -182 189q-135 0 -203 -118t-67 -273q0 -72 22 -164h303l-12 -70h-274q16 -94 14 -160h231l-12 -69h-223q-5 -125 -63 -253t-146 -212h530l-14 -80h-661l12 70
q102 59 177 197t77 278h-176l12 69h166q-2 70 -25 160h-112l12 70h86l-8 55q-8 39 -8 94z" />
    <glyph glyph-name="peseta" unicode="&#x20a7;" 
d="M375 995l-58 -319h103q125 -8 203 70t116 249h-364zM760 1153q0 119 -45 176q-47 55 -166 55h-107l-55 -319h365q8 47 8 88zM549 1462q165 0 233 -74t68 -233q0 -37 -6 -90h117l-13 -70h-117q-45 -211 -143 -306t-262 -91h-121l-104 -598h-90l176 995h-142l13 70h141
l70 397h180z" />
    <glyph glyph-name="uni20AB" unicode="&#x20ab;" 
d="M596 748q0 201 -131 200q-158 1 -207 -282l-55 -310q-12 -72 -13 -120q0 -172 125 -173q172 0 240 375l23 135q18 98 18 175zM102 221q0 63 17 152l53 307q33 180 102 264q70 84 194 84t171 -110l47 266h-201l13 73h200l37 205h88l-37 -205h101l-15 -73h-98l-209 -1184
h-71l12 102q-43 -66 -89 -92t-112 -26q-203 0 -203 237zM-10 -344l12 74h569l-12 -74h-569z" />
    <glyph glyph-name="Euro" unicode="&#x20ac;" 
d="M782 1212q0 186 -174 187q-109 0 -168 -77t-92 -259l-39 -221h451l-37 -70h-426l-31 -178h373l-37 -70h-348q-33 -217 -33 -282q0 -178 172 -179q113 0 173 69t87 230h88q-25 -139 -61 -204q-92 -174 -295 -174q-123 0 -189 63t-67 171q0 108 35 306h-131l37 70h106
l31 178h-131l37 70h106l43 239q37 207 109 293q92 104 227 104t205 -65q70 -66 69 -186q0 -51 -16 -135h-82q8 76 8 120z" />
    <glyph glyph-name="uni20B4" unicode="&#x20b4;" 
d="M725 1214q0 184 -154 185q-88 0 -137 -54t-69 -171h-84q27 158 97 232t192 73q122 0 184 -69t61 -196q0 -236 -141 -376l157 -60l-28 -65l-193 71q-57 -36 -141 -70t-102 -44l366 -142l-28 -67l-408 155q-113 -123 -113 -360q0 -193 176 -193q104 -1 160 57t80 187h82
q-25 -150 -74 -215q-86 -109 -252 -108q-126 0 -194 68t-68 192q0 122 33 230t88 173l-119 45l29 68l145 -55q33 27 57 37t86 36t97 45l-313 119l28 66l361 -138q139 123 139 344z" />
    <glyph glyph-name="uni2101" unicode="&#x2101;" horiz-adv-x="1099" 
d="M295 0l543 1462h75l-542 -1462h-76zM940 279q0 45 -22 73t-89 60q-125 57 -125 187t63 208q62 78 159 78q129 0 164 -101l-70 -43q-24 72 -94 72q-70 -1 -104 -67t-34 -132q0 -90 101 -139q77 -37 105 -77t28 -136t-55 -178q-66 -92 -183 -92q-157 0 -188 125l70 37
q24 -90 104 -90t125 60q45 62 45 155zM418 850l-27 479l-194 -479h221zM422 782h-254l-80 -196h-82l373 876h65l68 -876h-80z" />
    <glyph glyph-name="afii61248" unicode="&#x2105;" horiz-adv-x="1157" 
d="M297 0l543 1462h75l-542 -1462h-76zM1042 625q0 127 -110 127q-141 0 -174 -199l-53 -295q-8 -45 -9 -74q0 -121 113 -121q141 0 178 195l49 283q6 31 6 84zM932 823q193 0 192 -190q0 -37 -8 -94l-53 -297q-43 -250 -252 -250q-195 0 -195 186q1 39 11 94l53 299
q43 252 252 252zM289 641q-174 0 -174 195q0 41 12 116l43 240q25 145 84 214t160 69q131 0 180 -117l-72 -41q-34 86 -104 86t-111 -56t-61 -182l-39 -215q-12 -78 -12 -110q0 -127 100 -127q77 0 143 90l58 -41q-82 -121 -207 -121z" />
    <glyph glyph-name="afii61289" unicode="&#x2113;" horiz-adv-x="686" 
d="M537 1303q0 121 -58 120q-65 0 -107 -149t-89 -563q254 326 254 592zM10 344q-10 0 -18 11t-8 25t43 56q74 66 157 164q51 450 89 610t84 225q47 65 111 65t101 -54q37 -53 37 -143q0 -211 -137 -445q-61 -104 -197 -262q-43 -340 -43 -442t68 -103q41 0 67 26t66 111
q20 43 44 43t24 -28q0 -63 -64 -145t-143 -83q-78 0 -110 45t-32 161t25 319q-47 -56 -100 -106q-54 -50 -64 -50z" />
    <glyph glyph-name="afii61352" unicode="&#x2116;" horiz-adv-x="1458" 
d="M838 0l14 78h451l-15 -78h-450zM1024 506q0 -143 111 -144q67 0 109 60t65 194l32 187q10 51 11 108q0 145 -111 146q-67 -1 -109 -61t-65 -193l-33 -187q-10 -57 -10 -110zM1243 1135q197 0 197 -215q0 -55 -13 -129l-34 -193q-29 -164 -91 -239t-162 -75
q-204 1 -204 214q0 55 14 133l33 190q29 164 91 239t169 75zM47 0l258 1462h88l248 -1249l221 1249h86l-258 -1462h-86l-248 1251l-221 -1251h-88z" />
    <glyph glyph-name="trademark" unicode="&#x2122;" horiz-adv-x="1105" 
d="M520 586l156 876h69l76 -581l281 581h74l-154 -876h-72l117 663l-240 -495h-51l-65 495l-119 -663h-72zM203 586l141 805h-168l12 71h408l-12 -71h-164l-144 -805h-73z" />
    <glyph glyph-name="uni2126" unicode="&#x2126;" 
d="M568 1479q142 0 216 -72q72 -72 72 -203q0 -63 -16 -151l-86 -490q-57 -344 -254 -430l-13 -63h197l-12 -70h-271l33 188q178 55 234 402l84 469q14 92 14 139q0 94 -50 148t-150 53q-203 0 -265 -340l-82 -469q-20 -123 -20 -180q0 -178 114 -222l-32 -188h-271l13 70
h194l12 67q-121 63 -120 262q0 72 22 199l86 489q33 195 113 283q96 109 238 109z" />
    <glyph glyph-name="estimated" unicode="&#x212e;" horiz-adv-x="763" 
d="M592 739v283q-55 295 -207 295q-72 0 -117 -66t-82 -227v-285h406zM186 680v-318q31 -172 76 -242t127 -69q150 0 215 273h64q-23 -119 -62 -187q-86 -153 -228 -153t-224 181q-80 181 -80 510t86 519t231 190q68 0 129 -52q169 -144 172 -652h-506z" />
    <glyph glyph-name="onethird" unicode="&#x2153;" horiz-adv-x="1302" 
d="M295 0l543 1462h84l-543 -1462h-84zM918 496q82 0 130 58t48 160t-92 101q-60 0 -96 -41t-52 -133h-72q18 129 70 186t152 58q168 0 168 -169t-132 -253q76 -49 76 -178t-63 -212t-174 -83q-190 0 -191 153q0 33 12 107h74q-10 -49 -10 -86q0 -106 108 -107q76 0 121 65
t45 173q0 133 -127 133h-63l10 68h58zM256 586l137 786l-119 -61l-30 59l186 92h57l-153 -876h-78z" />
    <glyph glyph-name="twothirds" unicode="&#x2154;" horiz-adv-x="1302" 
d="M356 0l543 1462h82l-541 -1462h-84zM973 496q82 0 130 58t48 160t-92 101q-119 0 -148 -174h-73q20 131 72 187t151 57q168 0 168 -169t-131 -253q74 -49 74 -178t-64 -212q-63 -83 -174 -83q-188 0 -189 153q0 45 13 107h73q-10 -49 -10 -86q0 -106 109 -107
q76 0 120 65t44 173q0 133 -125 133h-66l12 68h58zM504 1311q0 90 -88 90q-59 0 -91 -40t-53 -138h-71q16 106 45 153q59 94 176 94q162 0 162 -161q0 -99 -42 -187t-159 -229l-197 -240h283l-12 -67h-383l8 53l250 307q96 119 134 197t38 168z" />
    <glyph glyph-name="uni2155" unicode="&#x2155;" horiz-adv-x="1302" 
d="M305 0l543 1462h82l-541 -1462h-84zM985 539q156 0 156 -164q0 -143 -47 -252q-55 -133 -207 -133q-184 0 -185 153q0 35 13 107h71q-8 -55 -8 -96t29 -69t82 -28q111 0 147 136q27 90 27 186t-88 96q-66 0 -133 -61l-58 10l109 453h321l-10 -68h-256l-69 -297
q53 27 106 27zM262 586l137 786l-118 -61l-31 59l186 92h58l-154 -876h-78z" />
    <glyph glyph-name="uni2156" unicode="&#x2156;" horiz-adv-x="1302" 
d="M356 0l543 1462h82l-541 -1462h-84zM1020 539q156 0 156 -164q0 -143 -48 -252q-55 -133 -206 -133q-184 0 -185 153q0 35 13 107h73q-10 -49 -10 -93t29 -72t82 -28q111 0 147 136q27 90 27 186t-88 96q-63 0 -133 -61l-56 10l107 453h323l-12 -68h-256l-70 -297
q55 27 107 27zM504 1311q0 90 -88 90q-59 0 -91 -40t-53 -138h-71q16 106 45 153q59 94 176 94q162 0 162 -161q0 -99 -42 -187t-159 -229l-197 -240h283l-12 -67h-383l8 53l250 307q96 119 134 197t38 168z" />
    <glyph glyph-name="uni2157" unicode="&#x2157;" horiz-adv-x="1302" 
d="M362 0l543 1462h82l-541 -1462h-84zM1016 539q156 0 155 -164q0 -143 -47 -252q-55 -133 -206 -133q-184 0 -185 153q0 35 12 107h72q-8 -55 -8 -96t29 -69t82 -28q111 0 147 136q27 86 27 184t-90 98q-61 0 -132 -61l-57 10l109 453h321l-10 -68h-256l-70 -297
q53 27 107 27zM326 1081q80 1 129 59t49 159t-92 102q-62 0 -96 -40t-52 -134h-71q20 131 71 187t150 56q168 0 168 -169t-131 -252q75 -49 75 -179t-63 -212t-176 -83q-188 0 -189 154q0 33 13 107h73q-10 -51 -10 -93t29 -70t93 -28q64 -1 108 63t45 173q0 133 -127 133
h-64l10 67h58z" />
    <glyph glyph-name="uni2158" unicode="&#x2158;" horiz-adv-x="1302" 
d="M383 0l541 1462h84l-543 -1462h-82zM1036 539q154 0 154 -164q0 -139 -47 -252q-55 -133 -207 -133q-184 0 -184 153q0 35 12 107h72q-8 -55 -9 -86q0 -106 111 -106t147 135q27 90 27 186t-88 96q-63 0 -133 -61l-55 10l106 453h322l-11 -68h-256l-69 -297q53 27 108 27
zM360 586l29 166h-285l9 53l340 657h79l-329 -639h198l52 293h73l-53 -293h72l-13 -73h-71l-29 -164h-72z" />
    <glyph glyph-name="uni2159" unicode="&#x2159;" horiz-adv-x="1302" 
d="M322 0l542 1462h82l-540 -1462h-84zM954 471q-82 0 -120 -80q-20 -41 -36 -111t-18 -120q0 -102 94 -103q84 0 121 78q18 35 34 110q15 75 15 123t-24 76t-66 27zM1124 384q0 -71 -19 -161t-44 -135q-55 -98 -184 -98q-174 0 -175 168q0 171 107 338l231 381h88
l-208 -347q31 6 51 7q73 0 113 -41t40 -112zM264 586l137 786l-118 -61l-31 59l186 92h58l-154 -876h-78z" />
    <glyph glyph-name="uni215A" unicode="&#x215a;" horiz-adv-x="1302" 
d="M389 0l543 1462h84l-543 -1462h-84zM1004 471q-80 0 -121 -80q-21 -41 -37 -113t-17 -118q0 -102 95 -103q82 0 118 78q18 35 34 111t16 123t-24 75t-64 27zM926 -10q-174 0 -174 168q0 174 104 338l231 381h91l-209 -347q27 6 49 7q74 0 114 -41t40 -112t-20 -161
q-19 -90 -44 -135q-53 -98 -182 -98zM551 961q0 -139 -47 -252q-55 -133 -207 -134q-184 0 -184 154q0 37 12 107h72q-8 -59 -9 -84q0 -106 111 -106t147 132q27 90 27 186t-88 97q-66 0 -133 -62l-57 11l108 452h322l-11 -67h-256l-69 -297q55 27 106 26q156 0 156 -163z
" />
    <glyph glyph-name="oneeighth" unicode="&#x215b;" horiz-adv-x="1302" 
d="M287 0l542 1462h82l-540 -1462h-84zM772 150q0 -92 107 -93q86 0 125 58q20 31 35 99t15 115q1 97 -106 97q-88 0 -125 -59q-19 -29 -35 -97t-16 -120zM1108 730q0 91 -91 91t-122 -76q-33 -86 -33 -170q0 -83 90 -83t119 65q37 82 37 173zM1014 887q82 0 125 -37
q43 -38 43 -96t-16 -126t-33 -104q-18 -35 -64 -61q61 -39 61 -117t-18 -157t-45 -117q-59 -82 -186 -82q-90 0 -139 40q-48 40 -48 107t18 147t44 116q25 38 78 65q-45 37 -46 106q0 131 48 226q49 90 178 90zM244 586l137 786l-119 -61l-31 59l187 92h57l-153 -876h-78z
" />
    <glyph glyph-name="threeeighths" unicode="&#x215c;" horiz-adv-x="1302" 
d="M356 0l541 1462h84l-543 -1462h-82zM979 426q-88 0 -125 -59q-20 -29 -36 -97t-15 -120q0 -92 106 -93q86 0 125 58q18 31 34 99t17 116q0 96 -106 96zM1137 737q0 84 -91 84t-122 -79t-31 -169q0 -81 90 -81t119 65q35 86 35 180zM819 571q0 131 47 226q49 90 178 90
q82 0 125 -37q43 -38 43 -96t-15 -126t-33 -104q-18 -35 -64 -61q61 -39 61 -118t-18 -157t-45 -116q-59 -82 -187 -82q-90 0 -138 40t-48 107t18 147t43 116q25 38 78 65q-45 37 -45 106zM326 1081q80 1 129 59t49 159t-92 102q-62 0 -96 -40t-52 -134h-71q20 131 71 187
t150 56q168 0 168 -169t-131 -252q75 -49 75 -179t-63 -212t-176 -83q-188 0 -189 154q0 33 13 107h73q-10 -51 -10 -93t29 -70t93 -28q64 -1 108 63t45 173q0 133 -127 133h-64l10 67h58z" />
    <glyph glyph-name="fiveeighths" unicode="&#x215d;" horiz-adv-x="1302" 
d="M356 0l543 1462h82l-541 -1462h-84zM981 426q-88 0 -125 -59q-20 -29 -36 -97t-15 -120q0 -92 106 -93q84 0 123 58q20 31 36 99t15 115q0 97 -104 97zM1139 737q0 84 -91 84t-122 -79t-31 -169q0 -81 90 -81t119 65q35 86 35 180zM821 569q0 133 47 228q49 90 179 90
q83 0 125 -37q42 -38 42 -96t-15 -126t-33 -105q-18 -36 -66 -60q61 -39 61 -117t-18 -157t-45 -117q-57 -82 -185 -82q-186 0 -186 153q0 61 18 141t43 116q25 38 78 65q-45 37 -45 104zM545 961q0 -139 -47 -252q-55 -133 -207 -134q-184 0 -185 154q0 37 13 107h71
q-8 -59 -8 -84q0 -106 111 -106t147 132q27 90 27 186t-88 97q-66 0 -133 -62l-58 11l109 452h321l-10 -67h-256l-69 -297q55 27 106 26q156 0 156 -163z" />
    <glyph glyph-name="seveneighths" unicode="&#x215e;" horiz-adv-x="1302" 
d="M305 0l543 1462h82l-543 -1462h-82zM965 426q-88 0 -125 -59q-20 -31 -36 -97t-16 -118q0 -94 107 -95q86 0 125 58q20 31 36 99t15 115q0 97 -106 97zM1124 730q0 91 -91 91t-122 -76q-33 -86 -32 -172q0 -81 90 -81q91 0 123 74t32 164zM805 571q0 131 47 226
q49 90 178 90q82 0 125 -37q43 -38 43 -96t-14 -128t-33 -100q-20 -39 -68 -63q63 -39 63 -116t-18 -157q-20 -80 -45 -118q-59 -82 -186 -82q-186 0 -186 153q0 61 18 141t44 118q26 40 77 63q-45 37 -45 106zM150 586l374 809h-293l11 67h379l-11 -51l-370 -825h-90z" />
    <glyph glyph-name="arrowleft" unicode="&#x2190;" horiz-adv-x="1638" 
d="M1491 715h-1253l409 -410l-57 -57l-484 489v35l484 490l57 -58l-409 -409h1253v-80z" />
    <glyph glyph-name="arrowup" unicode="&#x2191;" horiz-adv-x="1638" 
d="M729 0v1346l-407 -408l-58 57l488 486h36l488 -486l-55 -57l-408 408v-1346h-84z" />
    <glyph glyph-name="arrowright" unicode="&#x2192;" horiz-adv-x="1638" 
d="M145 715v80h1254l-410 409l58 58l483 -490v-35l-483 -489l-58 57l410 410h-1254z" />
    <glyph glyph-name="arrowdown" unicode="&#x2193;" horiz-adv-x="1638" 
d="M729 1462h84v-1345l408 407l55 -57l-488 -485h-36l-488 485l58 57l407 -407v1345z" />
    <glyph glyph-name="arrowboth" unicode="&#x2194;" horiz-adv-x="1638" 
d="M1407 715h-1176l398 -398l-58 -57l-473 477v35l473 477l58 -57l-398 -397h1176l-397 397l57 57l473 -477v-35l-473 -477l-57 57z" />
    <glyph glyph-name="arrowupdn" unicode="&#x2195;" horiz-adv-x="1638" 
d="M729 109v1245l-397 -398l-58 58l478 473h34l478 -473l-58 -58l-397 398v-1245l397 397l58 -57l-478 -474h-34l-478 474l56 57z" />
    <glyph glyph-name="uni2196" unicode="&#x2196;" horiz-adv-x="1638" 
d="M391 557h-80v686l29 29h686v-82h-580l902 -897l-58 -57l-899 897v-576z" />
    <glyph glyph-name="uni2197" unicode="&#x2197;" horiz-adv-x="1638" 
d="M612 1192v80h686l29 -29v-686h-80v578l-899 -899l-57 57l899 899h-578z" />
    <glyph glyph-name="uni2198" unicode="&#x2198;" horiz-adv-x="1638" 
d="M1247 963h80v-689l-29 -28h-686v82h578l-899 899l55 57l901 -899v578z" />
    <glyph glyph-name="uni2199" unicode="&#x2199;" horiz-adv-x="1638" 
d="M1026 328v-82h-686l-29 28v689h80v-578l899 899l56 -57l-900 -899h580z" />
    <glyph glyph-name="partialdiff" unicode="&#x2202;" 
d="M641 795q0 150 -133 149q-90 0 -141 -66t-78 -214l-58 -322q-12 -86 -12 -131q0 -150 133 -150q90 -1 141 65t78 216l58 322q12 66 12 131zM488 1022q108 0 161 -59q-8 201 -59 304t-160 138l23 68q133 -27 211 -154q74 -129 74 -329t-29 -367l-50 -275
q-35 -190 -96 -268q-78 -96 -213 -96q-219 0 -219 219q0 63 16 155l56 312q64 352 285 352z" />
    <glyph glyph-name="emptyset" unicode="&#x2205;" 
d="M688 777q0 179 -115 292l-223 -657q39 -12 76 -13q118 -1 190 99t72 279zM426 1120q-118 0 -190 -98t-72 -260q0 -216 129 -320l225 662q-47 16 -92 16zM766 760q0 -195 -93 -314t-249 -118q-51 0 -98 16l-136 -399l-59 22l135 402q-180 115 -180 391q0 196 93 314
t249 118q58 -1 113 -21l123 359l59 -21l-125 -366q80 -53 124 -155t44 -228z" />
    <glyph glyph-name="Delta" unicode="&#x2206;" 
d="M616 80l-41 1231l-475 -1231h516zM719 0h-750l592 1462h80z" />
    <glyph glyph-name="product" unicode="&#x220f;" horiz-adv-x="884" 
d="M-25 -424l332 1886h611l-332 -1886h-88l317 1804h-432l-320 -1804h-88z" />
    <glyph glyph-name="summation" unicode="&#x2211;" horiz-adv-x="872" 
d="M0 -424l8 45l443 965l-115 823l8 53h571l-14 -80h-471l115 -796l-424 -930h489l-12 -80h-598z" />
    <glyph glyph-name="minus" unicode="&#x2212;" 
d="M162 717l14 78h610l-14 -78h-610z" />
    <glyph glyph-name="uni2215" unicode="&#x2215;" horiz-adv-x="200" 
d="M-166 0l543 1462h82l-541 -1462h-84z" />
    <glyph glyph-name="uni2218" unicode="&#x2218;" 
d="M430 1001q-108 -1 -182 -71t-74 -176t73 -178q73 -70 183 -70t182 71q74 71 74 177t-74 176t-182 71zM430 1069q138 0 232 -91t94 -224q0 -132 -94 -224t-232 -92t-232 91t-94 225t94 225q94 90 232 90z" />
    <glyph glyph-name="uni2219" unicode="&#x2219;" horiz-adv-x="354" 
d="M164 676l29 158h90l-29 -158h-90z" />
    <glyph glyph-name="radical" unicode="&#x221a;" 
d="M262 0l-20 639h-99l11 80h165l3 -604l550 1628h316l-14 -74h-242l-578 -1669h-92z" />
    <glyph glyph-name="infinity" unicode="&#x221e;" horiz-adv-x="1146" 
d="M991 760q0 94 -46 152q-47 58 -113 58t-121 -51q-55 -52 -90 -141l-9 -20l9 -21q83 -190 213 -190q66 0 111 59q46 60 46 154zM314 971q-66 1 -112 -59t-46 -153t46 -153t120 -59q121 0 202 190l8 21l-8 20q-35 88 -90 140q-54 52 -120 53zM306 473q-98 0 -163 78
q-63 78 -63 208t63 208q63 77 173 77t188 -96q20 -27 69 -123l9 19q49 102 104 151q56 49 154 49t161 -78t63 -207q0 -130 -62 -208q-64 -78 -174 -78t-187 94q-25 33 -68 123l-10 -16q-49 -104 -96 -144q-63 -57 -161 -57z" />
    <glyph glyph-name="integral" unicode="&#x222b;" horiz-adv-x="1026" 
d="M422 -129q49 0 67 50t19 185v1192q0 182 34 251t124 69q33 0 77 -10l-14 -78q-29 10 -47 10q-52 0 -70 -49t-18 -178v-1200q0 -182 -35 -251t-125 -69q-39 0 -76 10l15 78q23 -10 49 -10z" />
    <glyph glyph-name="similar" unicode="&#x223c;" 
d="M600 715q61 0 121 145l55 -18q-47 -113 -91 -158t-93 -45t-71 14q-23 15 -65 65t-60 64t-42 15q-64 0 -127 -150l-55 17q84 209 197 208q37 0 63 -16t66 -64q39 -48 59 -63q20 -14 43 -14z" />
    <glyph glyph-name="uni2243" unicode="&#x2243;" 
d="M799 973q-81 -203 -183 -203q-48 0 -70 14t-66 64t-61 64q-17 13 -42 14q-66 0 -125 -150l-57 19q86 207 196 206q37 0 64 -16t67 -64q40 -47 58 -61q20 -14 45 -14q61 0 118 145zM160 604l14 78h576l-13 -78h-577z" />
    <glyph glyph-name="approxequal" unicode="&#x2248;" 
d="M799 973q-81 -203 -183 -203q-48 0 -70 14t-66 64t-61 64q-17 13 -42 14q-66 0 -125 -150l-57 19q86 207 196 206q37 0 65 -17t68 -66q40 -44 58 -58t43 -14q63 0 120 145zM346 741q37 0 64 -16q26 -15 66 -63t60 -62t42 -14q61 0 120 143l56 -16q-47 -111 -91 -157
q-43 -46 -93 -46t-72 14t-63 64q-42 50 -60 64q-18 13 -43 14q-64 0 -127 -150l-55 16q84 209 196 209z" />
    <glyph glyph-name="notequal" unicode="&#x2260;" 
d="M160 604l14 78h225l72 149h-272l14 76h295l129 275l68 -25l-117 -250h203l-15 -76h-227l-70 -149h271l-13 -78h-297l-129 -274l-65 24l116 250h-202z" />
    <glyph glyph-name="lessequal" unicode="&#x2264;" 
d="M80 143l14 78h531l-15 -78h-530zM250 752l416 -293l-15 -84l-501 362l8 39l628 363l-16 -92z" />
    <glyph glyph-name="greaterequal" unicode="&#x2265;" 
d="M125 143l14 78h531l-15 -78h-530zM700 762l-415 293l16 84l500 -363l-6 -39l-629 -362l16 94z" />
    <glyph glyph-name="dotmath" unicode="&#x22c5;" horiz-adv-x="354" 
d="M164 676l29 158h90l-29 -158h-90z" />
    <glyph glyph-name="filledrect" unicode="&#x25ac;" 
d="M133 457v594h596v-594h-596z" />
    <glyph glyph-name="uni25B4" unicode="&#x25b4;" 
d="M74 446l356 711l356 -711h-712z" />
    <glyph glyph-name="uni25B8" unicode="&#x25b8;" 
d="M137 397v713l711 -356z" />
    <glyph glyph-name="uni25BE" unicode="&#x25be;" 
d="M74 1061h712l-356 -711z" />
    <glyph glyph-name="uni25C2" unicode="&#x25c2;" 
d="M723 397l-711 357l711 356v-713z" />
    <glyph glyph-name="lozenge" unicode="&#x25ca;" 
d="M158 707l272 -592l272 592l-272 591zM66 707l364 759l365 -759l-365 -760z" />
    <glyph glyph-name="openbullet" unicode="&#x25e6;" 
d="M430 1001q-108 -1 -182 -71t-74 -176t73 -178q73 -70 183 -70t182 71q74 71 74 177t-74 176t-182 71zM430 1069q138 0 232 -91t94 -224q0 -132 -94 -224t-232 -92t-232 91t-94 225t94 225q94 90 232 90z" />
    <glyph glyph-name="commaaccent" unicode="&#xf6c3;" horiz-adv-x="1024" 
d="M270 -430l117 278h98l-153 -278h-62z" />
    <glyph glyph-name="Acute" unicode="&#xf6c9;" horiz-adv-x="1024" 
d="M653 1632l142 273h108l-184 -273h-66z" />
    <glyph glyph-name="Caron" unicode="&#xf6ca;" horiz-adv-x="1024" 
d="M723 1722l121 170h98l-203 -247h-53l-115 247h93z" />
    <glyph glyph-name="Dieresis" unicode="&#xf6cb;" horiz-adv-x="1024" 
d="M797 1653l32 180h80l-30 -180h-82zM549 1653l31 180h82l-33 -180h-80z" />
    <glyph glyph-name="Grave" unicode="&#xf6ce;" horiz-adv-x="1024" 
d="M772 1632h-61l-93 273h103z" />
    <glyph glyph-name="Hungarumlaut" unicode="&#xf6cf;" horiz-adv-x="1024" 
d="M752 1632l122 273h99l-158 -273h-63zM590 1632l123 273h98l-158 -273h-63z" />
    <glyph glyph-name="Macron" unicode="&#xf6d0;" horiz-adv-x="1024" 
d="M571 1729l13 69h313l-12 -69h-314z" />
    <glyph glyph-name="zerooldstyle" unicode="&#xf730;" horiz-adv-x="849" 
d="M682 840q0 172 -172 172q-106 0 -164 -68t-86 -227l-61 -350q-16 -98 -17 -136q0 -168 172 -168q106 1 164 69t86 230l62 351q16 88 16 127zM510 1092q120 0 190 -67t70 -179q0 -43 -16 -148l-68 -379q-61 -335 -332 -335q-120 0 -190 66t-70 177q1 48 19 152l65 373
q61 340 332 340z" />
    <glyph glyph-name="oneoldstyle" unicode="&#xf731;" horiz-adv-x="514" 
d="M137 0l172 973l-203 -113l-30 70l276 145h64l-189 -1075h-90z" />
    <glyph glyph-name="twooldstyle" unicode="&#xf732;" horiz-adv-x="704" 
d="M416 1092q244 0 246 -242q0 -121 -58 -220t-221 -257l-301 -293h442l-14 -80h-559l12 66l369 366q141 141 190 226t49 190q0 164 -157 164q-100 0 -156 -60t-78 -198h-82q49 338 318 338z" />
    <glyph glyph-name="threeoldstyle" unicode="&#xf733;" horiz-adv-x="731" 
d="M315 469q117 0 196 102t79 254q0 186 -150 187q-158 0 -207 -207h-81q49 287 297 287q113 0 173 -69t60 -203t-61 -238t-172 -150q147 -61 147 -274q0 -182 -84 -324q-104 -162 -293 -162q-121 0 -185 54t-65 151q0 31 8 113h84q-4 -37 -4 -80q0 -158 164 -158
q145 0 223 150q60 113 60 239t-52 188t-147 62h-102l14 78h98z" />
    <glyph glyph-name="fouroldstyle" unicode="&#xf734;" horiz-adv-x="741" 
d="M352 -313l56 313h-465l10 61l532 1014h95l-523 -995h365l90 508h86l-90 -508h123l-15 -80h-120l-56 -313h-88z" />
    <glyph glyph-name="fiveoldstyle" unicode="&#xf735;" horiz-adv-x="815" 
d="M236 -328q-117 0 -185 56t-67 149q0 29 8 113h84q-4 -37 -4 -78q0 -160 161 -160q154 0 232 170q67 139 67 338t-157 199q-98 0 -205 -99l-64 15l173 700h466l-14 -80h-389l-129 -522q85 63 189 63t163 -71t59 -191t-26 -237q-27 -117 -66 -187q-100 -178 -296 -178z" />
    <glyph glyph-name="sixoldstyle" unicode="&#xf736;" horiz-adv-x="819" 
d="M479 809q-141 0 -207 -150q-42 -87 -68 -205t-26 -210q0 -182 156 -182t219 165q27 72 51 201q25 129 25 209t-40 126t-110 46zM498 885q104 0 162 -65t58 -165t-26 -241q-28 -141 -62 -231q-34 -91 -112 -145t-190 -54t-176 66t-64 192q0 178 74 379q25 68 94 186
l358 616h101l-336 -571q55 33 119 33z" />
    <glyph glyph-name="sevenoldstyle" unicode="&#xf737;" horiz-adv-x="538" 
d="M-92 -313l565 1308h-432l14 80h525l-9 -57l-559 -1331h-104z" />
    <glyph glyph-name="eightoldstyle" unicode="&#xf738;" horiz-adv-x="835" 
d="M457 711q-147 0 -211 -109q-33 -53 -60 -172q-26 -119 -26 -201t48 -125t136 -43q145 0 205 109q33 55 58 173q26 118 26 200t-47 125t-129 43zM565 1364q-137 0 -186 -111q-23 -53 -43 -155t-20 -170t38 -105q39 -37 111 -37q143 0 194 123q19 51 39 153t20 165
q0 65 -40 101q-41 36 -113 36zM561 1440q117 0 181 -56t65 -161q0 -105 -31 -227q-30 -122 -72 -172t-104 -76q123 -53 123 -199q0 -107 -31 -237t-69 -191q-84 -137 -279 -137q-131 0 -203 62t-71 177q0 63 17 165t40 167q58 162 195 203q-94 52 -94 160t26 226
q27 118 61 175q76 121 246 121z" />
    <glyph glyph-name="nineoldstyle" unicode="&#xf739;" horiz-adv-x="817" 
d="M491 1012q-157 0 -219 -164q-28 -74 -52 -203t-24 -208t41 -125q40 -46 113 -46q135 0 203 150q94 203 94 415q1 181 -156 181zM328 190q-104 0 -162 64t-60 164q0 102 27 244t61 230q34 89 114 144q80 56 190 56t175 -67t64 -191q0 -180 -73 -379q-27 -72 -95 -189
l-354 -581h-100l331 538q-55 -33 -118 -33z" />
    <glyph glyph-name="Dbreve" horiz-adv-x="901" 
d="M512 1798q0 -88 76 -88q55 0 84 37t49 133h70q-23 -113 -41 -149q-49 -96 -162 -97q-70 0 -109 34t-39 84t13 128h67q-8 -51 -8 -82zM788 1186q0 197 -202 196h-185l-229 -1302h184q252 -4 303 328l115 647q14 80 14 131zM588 1462q293 0 293 -268q0 -47 -17 -141
l-121 -678q-29 -185 -126 -281t-255 -94h-294l258 1462h262z" />
    <glyph glyph-name="ahungarumlaut" horiz-adv-x="716" 
d="M524 1194l123 274h98l-157 -274h-64zM362 1194l123 274h99l-158 -274h-64zM350 496q-241 0 -241 -310q1 -66 35 -96t120 -29t129 49t68 183l35 203h-146zM422 948q-84 0 -131 -58t-70 -190h-82q25 147 72 218q74 111 215 110q205 0 205 -209q0 -61 -19 -164l-114 -655
h-72l4 63q-35 -45 -76 -62t-114 -17q-222 0 -222 185t77 293t255 109h160l18 107q14 80 15 133q0 137 -121 137z" />
    <glyph glyph-name="uni0204.sc" horiz-adv-x="643" 
d="M438 1245h-61l-64 273h99zM600 1245h-61l-64 273h98zM45 0l191 1079h423l-12 -80h-336l-73 -417h284l-14 -80h-285l-76 -422h338l-14 -80h-426z" />
    <glyph glyph-name="uni0206.sc" horiz-adv-x="643" 
d="M600 1343q0 90 -78 91q-53 0 -81 -38t-48 -134h-69q20 109 38 149q51 96 162 96q72 1 111 -33t39 -81t-12 -131h-68q6 57 6 81zM55 0l191 1079h424l-13 -80h-335l-74 -417h284l-14 -80h-285l-75 -422h338l-15 -80h-426z" />
    <glyph glyph-name="uni0208.sc" horiz-adv-x="378" 
d="M279 1245h-62l-63 273h98zM440 1245h-61l-64 273h99zM57 0l191 1075h88l-189 -1075h-90z" />
    <glyph glyph-name="uni020A.sc" horiz-adv-x="378" 
d="M430 1343q0 90 -78 91q-53 0 -81 -38t-48 -134h-69q20 109 39 149q51 96 161 96q72 1 111 -33t39 -81t-12 -131h-68q6 57 6 81zM55 0l191 1075h88l-189 -1075h-90z" />
    <glyph glyph-name="uni020C.sc" horiz-adv-x="757" 
d="M463 1245h-62l-63 273h98zM625 1245h-62l-63 273h98zM600 868q0 143 -143 144q-86 0 -133 -56t-70 -188l-82 -463q-10 -61 -10 -98q0 -143 143 -144q86 1 133 57t70 185l82 463q10 57 10 100zM452 1092q118 0 178 -56t60 -159q0 -47 -12 -115l-86 -483q-28 -154 -96 -225
q-68 -70 -186 -70t-178 56t-60 161q0 28 12 112l86 482q28 157 96 227t186 70z" />
    <glyph glyph-name="uni020E.sc" horiz-adv-x="757" 
d="M618 1343q0 90 -77 91q-53 0 -81 -38t-48 -134h-70q20 109 39 149q51 96 162 96q73 1 111 -33t38 -81t-12 -131h-68q6 57 6 81zM604 868q0 143 -143 144q-86 0 -133 -56t-70 -188l-82 -463q-10 -61 -10 -98q0 -143 143 -144q86 1 133 57t70 185l82 463q10 57 10 100z
M456 1092q118 0 178 -56t60 -159q0 -47 -12 -115l-86 -483q-28 -154 -96 -225q-68 -70 -186 -70t-178 56t-60 161q0 28 12 112l86 482q28 157 96 227t186 70z" />
    <glyph glyph-name="uni0210.sc" horiz-adv-x="739" 
d="M434 1245h-61l-64 273h99zM596 1245h-61l-64 273h98zM348 553q74 0 113 17t71 63q61 88 62 221q0 78 -38 113t-124 34h-110l-78 -448h104zM428 1079q258 0 258 -219q0 -88 -30 -171t-78 -132q-14 -16 -52 -38t-63 -30l88 -489h-92l-76 475h-152l-84 -475h-90l191 1079
h180z" />
    <glyph glyph-name="uni0212.sc" horiz-adv-x="739" 
d="M502 1507q72 1 110 -33t39 -81q0 -47 -12 -131h-68q6 57 7 81q0 90 -78 91q-53 0 -81 -38t-48 -134h-70q20 109 39 149q51 96 162 96zM348 553q74 0 113 17t71 63q61 88 62 221q0 78 -38 113t-124 34h-110l-78 -448h104zM428 1079q258 0 258 -219q0 -88 -30 -171
t-78 -132q-14 -16 -52 -38t-63 -30l88 -489h-92l-76 475h-152l-84 -475h-90l191 1079h180z" />
    <glyph glyph-name="uni0214.sc" horiz-adv-x="780" 
d="M473 1245h-61l-64 273h98zM635 1245h-62l-63 273h98zM176 182q0 -119 137 -119q98 0 150 78q29 41 45 135l141 799h88l-143 -817q-14 -84 -28 -120t-46 -70q-78 -84 -198 -84t-178 49t-58 137q0 41 18 143l134 762h90l-138 -774q-14 -82 -14 -119z" />
    <glyph glyph-name="uni0216.sc" horiz-adv-x="780" 
d="M629 1343q0 90 -78 91q-53 0 -81 -38t-48 -134h-70q20 109 39 149q51 96 162 96q72 1 111 -33q38 -34 38 -81t-12 -131h-67q6 57 6 81zM317 63q98 0 150 78q29 41 45 135l141 799h88l-143 -817q-14 -84 -28 -120t-46 -70q-78 -84 -198 -84t-178 49t-58 137q0 41 19 143
l133 762h90l-137 -774q-14 -82 -15 -119q0 -119 137 -119z" />
    <glyph glyph-name="uni1E24.sc" horiz-adv-x="774" 
d="M188 -375l33 180h86l-33 -180h-86zM57 0l191 1075h88l-86 -493h307l86 493h90l-190 -1075h-88l88 502h-307l-89 -502h-90z" />
    <glyph glyph-name="uni1E5A.sc" horiz-adv-x="739" 
d="M172 -375l33 180h86l-33 -180h-86zM348 553q74 0 113 17t71 63q61 88 62 221q0 78 -38 113t-124 34h-110l-78 -448h104zM428 1079q258 0 258 -219q0 -88 -30 -171t-78 -132q-14 -16 -52 -38t-63 -30l88 -489h-92l-76 475h-152l-84 -475h-90l191 1079h180z" />
    <glyph glyph-name="uni1E62.sc" horiz-adv-x="649" 
d="M125 -375l33 180h86l-33 -180h-86zM111 197q0 -133 133 -134q115 0 164 119q34 84 34 165t-24 107t-38 32q-14 7 -79 34q-160 66 -160 225q0 133 66 240t194 107q93 0 149 -54t56 -145q0 -41 -12 -98h-80q8 57 8 90q0 127 -119 127q-88 0 -133 -92q-39 -74 -39 -150
t29 -112q30 -38 116 -74t122 -81q36 -46 34 -134q0 -139 -59 -248q-74 -137 -225 -137q-102 0 -162 51q-59 51 -59 141q0 45 12 123h82q-10 -63 -10 -102z" />
    <glyph glyph-name="uni1E6C.sc" horiz-adv-x="522" 
d="M61 -375l33 180h86l-33 -180h-86zM131 0l176 999h-198l14 80h479l-14 -80h-193l-176 -999h-88z" />
    <glyph glyph-name="uni1E92.sc" horiz-adv-x="587" 
d="M92 -375l33 180h86l-33 -180h-86zM-27 0l11 53l503 946h-313l14 80h412l-8 -53l-504 -946h350l-14 -80h-451z" />
    <glyph glyph-name="uni1E44.sc" horiz-adv-x="813" 
d="M510 1264l33 180h86l-33 -180h-86zM57 0l191 1075h84l200 -880l156 880h84l-190 -1075h-80l-205 889l-156 -889h-84z" />
    <glyph glyph-name="uni1E0C.sc" horiz-adv-x="763" 
d="M156 -375l32 180h86l-32 -180h-86zM608 881q0 122 -162 120h-124l-164 -923h125q106 -2 160 53t77 191l76 436q12 66 12 123zM442 1079q132 0 194 -48t62 -152q0 -39 -14 -131l-80 -451q-24 -159 -100 -229t-221 -68h-228l191 1079h196z" />
    <glyph glyph-name="uni1E02.sc" horiz-adv-x="747" 
d="M436 1264l33 180h86l-33 -180h-86zM299 78q106 0 156 65q63 94 63 224q0 79 -29 113t-94 34h-159l-78 -436h141zM397 592q86 0 141 72q56 72 56 172t-33 133t-112 32h-127l-72 -409h147zM440 1079q132 0 188 -50q56 -51 56 -159t-44 -191t-116 -120q50 -37 68 -80
t18 -119q0 -162 -84 -272q-72 -88 -211 -88h-260l191 1079h194z" />
    <glyph glyph-name="idotaccent" horiz-adv-x="364" 
d="M49 0l178 1012h88l-178 -1012h-88zM274 1280l33 182h88l-33 -182h-88z" />
    <glyph glyph-name="one.fitted" horiz-adv-x="514" 
d="M133 0l240 1360l-197 -109l-35 66l275 145h65l-258 -1462h-90z" />
    </font>
</defs>
</svg>
