<?xml version="1.0" standalone="no"?>
<!DOCTYPE svg PUBLIC "-//W3C//DTD SVG 1.1//EN" "http://www.w3.org/Graphics/SVG/1.1/DTD/svg11.dtd" >
<svg xmlns="http://www.w3.org/2000/svg">
<metadata>
Created by FontPrep 20130207 at Tue Jul 25 16:14:37 2017
 By Louise Stroud
Copyright (c) 2017 by Emil Bertell. All rights reserved.
</metadata>
<defs>
<font id="cc2dd747848b8fe0ac757f1bfdd91069" horiz-adv-x='1024' >
  <font-face 
    font-family="Karu-MediumItalic"
    font-weight="500"
    font-style="italic"
    font-stretch="normal"
    units-per-em="2048"
    panose-1="0 0 6 0 0 0 0 0 0 0"
    ascent="1638"
    descent="-410"
    x-height="977"
    cap-height="1425"
    bbox="-1450 -696 2607 2101"
    underline-thickness="102"
    underline-position="-102"
    slope="-9.5"
    unicode-range="U+0020-FB02"
  />
<missing-glyph horiz-adv-x="1017" 
d="M678 -135h-338v-68h141l-141 -96v-66h338v66h-209l143 96h66v68zM610 74v-97h-202v97h202zM678 141h-338v-229h338v229zM678 494h-205v-115h70v47h67v-96h-202v164h-68v-232h338v232zM678 741h-68v-135h-270v-69h338v204zM678 862h-338v-65h133v-76h-133v-68h203v144h135
v65zM473 1061v-74h-65v74h65zM543 1128h-203v-210h338v69h-135v141zM678 1391h-336v-66h131v-76h-133v-67h338v67h-135v76h135v66zM834 1528v-2034h-646v2034h646z" />
    <glyph glyph-name="fi" unicode="fi" horiz-adv-x="1075" 
d="M761 1350q-120 0 -175 -54t-82 -204l-19 -115h562l-164 -977h-242l127 772h-317l-199 -1221h-244l201 1221h-123l31 205h127l18 115q42 262 148 364t307 102t360 -88l-92 -192q-104 72 -224 72z" />
    <glyph glyph-name="fl" unicode="fl" horiz-adv-x="1079" 
d="M737 1559q100 0 219 -22t179 -54l-242 -1483h-242l217 1337q-188 41 -278 -42q-59 -54 -82 -183l-23 -135h168l-32 -205h-168l-201 -1221h-244l201 1221h-123l31 205h125l28 176q38 225 154 315t313 91z" />
    <glyph glyph-name="f_b" unicode="fb" horiz-adv-x="1773" 
d="M1161 186q137 0 230 110q92 110 92 247q-1 137 -59 190t-140 53q-186 0 -293 -178l-45 -274q29 -70 86 -109t129 -39zM1401 1008q137 0 233 -96t97 -287q0 -293 -153 -475t-392 -183q-190 0 -281 156l-31 -123h-227l219 1329q-66 20 -145 21q-172 0 -205 -185l-31 -188
h179l-33 -205h-178l-201 -1221h-244l199 1221h-121l31 205h125l34 215q33 190 141 278t298 89q113 -1 235 -21t189 -45l-107 -645q138 160 369 160z" />
    <glyph glyph-name="f_f_i" unicode="ffi" horiz-adv-x="1695" 
d="M629 1559q152 0 264 -76l-88 -180q-63 47 -137 47q-119 0 -146 -154l-37 -219h379l19 115q43 262 148 364t306 102t361 -88l-92 -192q-104 72 -224 72t-176 -54t-82 -204l-18 -115h561l-164 -977h-241l127 772h-318l-199 -1221h-243l200 1221h-376l-201 -1221h-244
l201 1221h-123l31 205h125l41 246q55 336 346 336z" />
    <glyph glyph-name="f_f_l" unicode="ffl" horiz-adv-x="1669" 
d="M831 977l29 176q12 80 37 141q-88 55 -203 56q-76 0 -119 -47t-57 -158l-29 -168h342zM1327 1559q100 0 219 -22t178 -54l-241 -1483h-242l217 1337q-189 41 -278 -42q-59 -54 -82 -183l-23 -135h168l-33 -205h-168l-200 -1221h-244l201 1221h-342l-205 -1221h-244
l203 1221h-125l31 205h129l33 201q33 209 128 295t246 86q207 0 357 -95q110 95 317 95z" />
    <glyph glyph-name="f_h" unicode="fh" horiz-adv-x="1705" 
d="M1384 1008q143 0 210 -98t38 -267l-106 -645h-244l96 577q37 213 -131 213q-154 0 -256 -180l-98 -608l-244 4l219 1333q-51 15 -139 15t-142 -54t-75 -182l-23 -139h175l-33 -205h-176l-203 -1221h-244l201 1221h-123l31 205h127l30 188q35 219 150 306t321 88
q99 -1 217 -21t173 -55l-111 -682q129 207 360 207z" />
    <glyph glyph-name="f_k" unicode="fk" horiz-adv-x="1624" 
d="M1663 977l-360 -359l213 -618h-265l-141 430l-178 -178l-41 -252h-244l221 1341q-49 12 -104 13q-113 0 -173 -54t-85 -202l-21 -121h179l-33 -205h-178l-201 -1221h-244l201 1221h-123l31 205h125l30 184q37 219 155 308t314 90q111 0 222 -22t172 -54l-160 -967
l401 461h287z" />
    <glyph glyph-name=".notdef" horiz-adv-x="1017" 
d="M678 -135h-338v-68h141l-141 -96v-66h338v66h-209l143 96h66v68zM610 74v-97h-202v97h202zM678 141h-338v-229h338v229zM678 494h-205v-115h70v47h67v-96h-202v164h-68v-232h338v232zM678 741h-68v-135h-270v-69h338v204zM678 862h-338v-65h133v-76h-133v-68h203v144h135
v65zM473 1061v-74h-65v74h65zM543 1128h-203v-210h338v69h-135v141zM678 1391h-336v-66h131v-76h-133v-67h338v67h-135v76h135v66zM834 1528v-2034h-646v2034h646z" />
    <glyph glyph-name=".null" 
 />
    <glyph glyph-name="nonmarkingreturn" horiz-adv-x="681" 
 />
    <glyph glyph-name="space" unicode=" " horiz-adv-x="380" 
 />
    <glyph glyph-name="exclam" unicode="!" horiz-adv-x="593" 
d="M229 -31q-67 -1 -111 43t-44 110t53 118q53 51 121 51t109 -43q42 -43 42 -110t-51 -118t-119 -51zM571 1425l-186 -1015h-221l147 1015h260z" />
    <glyph glyph-name="quotedbl" unicode="&#x22;" horiz-adv-x="743" 
d="M844 1528l-144 -584h-180l72 584h252zM500 1528l-113 -584h-180l41 584h252z" />
    <glyph glyph-name="numbersign" unicode="#" horiz-adv-x="1308" 
d="M784 563l129 346h-303l-131 -346h305zM1298 909h-149l-131 -346h196l-57 -209h-217l-133 -354h-234l134 354h-306l-133 -354h-233l133 354h-133l59 209h152l129 346h-197l58 207h217l114 309h236l-117 -309h305l115 309h235l-116 -309h131z" />
    <glyph glyph-name="dollar" unicode="$" horiz-adv-x="1007" 
d="M944 420q0 -172 -114 -280t-291 -126l-25 -159h-221l26 170q-178 33 -335 159l100 226q172 -164 387 -164q92 0 155 42q62 42 62 119t-49 117t-168 90q-162 66 -242 158t-79 229q0 174 106 284t285 128l22 148h221l-24 -160q135 -29 284 -133l-110 -203
q-150 123 -318 123q-94 0 -150 -40t-56 -114t45 -116t147 -84q162 -62 252 -152t90 -262z" />
    <glyph glyph-name="percent" unicode="%" horiz-adv-x="1644" 
d="M1421 344q1 162 -155 162q-82 0 -144 -67t-61 -145q0 -164 153 -163q82 0 145 67q62 66 62 146zM1178 -33q-133 0 -210 81t-77 210q0 174 117 291t295 117q137 0 211 -79t75 -210q1 -174 -117 -292t-294 -118zM299 1087q0 -163 154 -163q81 0 145 67q64 68 64 147
q0 80 -37 120t-119 40t-145 -66q-62 -67 -62 -145zM344 0l795 1425h245l-794 -1425h-246zM418 760q-133 0 -210 80t-77 211q0 175 116 291t296 116q137 0 212 -79t74 -210q1 -173 -117 -291t-294 -118z" />
    <glyph glyph-name="ampersand" unicode="&#x26;" horiz-adv-x="1298" 
d="M289 331q1 -157 219 -157q114 0 237 55l-251 351q-205 -92 -205 -249zM729 1249q-90 0 -150 -58t-60 -158t104 -247q283 115 282 310q0 72 -43 112t-133 41zM43 274q0 150 97 260t266 173q-113 168 -113 321q0 196 129 312t348 116q168 0 264 -77t96 -233t-120 -283
q-120 -126 -301 -195l223 -303q119 133 147 331h217q-51 -295 -252 -489l152 -207h-287l-51 72q-197 -104 -444 -105q-178 0 -275 78q-96 79 -96 229z" />
    <glyph glyph-name="quotesingle" unicode="'" horiz-adv-x="399" 
d="M500 1528l-127 -584h-183l58 584h252z" />
    <glyph glyph-name="parenleft" unicode="(" horiz-adv-x="604" 
d="M557 1739l180 -129q-295 -387 -385 -955q-41 -274 -19 -539t101 -464l-215 -88q-94 203 -127 508t13 607t168 586t284 474z" />
    <glyph glyph-name="parenright" unicode=")" horiz-adv-x="606" 
d="M102 -446l-180 129q297 395 383 954q43 275 21 539t-101 464l215 89q94 -203 126 -508t-13 -607t-168 -584q-123 -283 -283 -476z" />
    <glyph glyph-name="asterisk" unicode="*" horiz-adv-x="841" 
d="M926 1133l-295 -46l166 -266l-191 -86l-84 312l-184 -289l-156 116l244 228l-283 98l105 182l239 -176l2 320l201 -19l-90 -307l287 127z" />
    <glyph glyph-name="plus" unicode="+" horiz-adv-x="1118" 
d="M1063 793l-35 -213h-342l-59 -373h-221l59 373h-344l35 213h342l57 358h221l-57 -358h344z" />
    <glyph glyph-name="comma" unicode="," horiz-adv-x="450" 
d="M342 94q0 -182 -114 -327t-279 -205l-64 129q209 86 281 274h-21q-53 4 -87 41q-34 38 -34 108t53 118q52 48 124 47q141 -3 141 -185z" />
    <glyph glyph-name="hyphen" unicode="-" horiz-adv-x="821" 
d="M59 461l35 209h692l-32 -209h-695z" />
    <glyph glyph-name="period" unicode="." horiz-adv-x="458" 
d="M10 108q0 66 56 118t122 52t103 -37q37 -38 37 -103q0 -64 -56 -116t-124 -52q-66 0 -102 36t-36 102z" />
    <glyph glyph-name="slash" unicode="/" horiz-adv-x="983" 
d="M1014 1669l-797 -1898h-246l795 1898h248z" />
    <glyph glyph-name="zero" unicode="0" horiz-adv-x="1323" 
d="M602 213q188 0 313 195t125 466q0 176 -68 259q-69 82 -179 81q-186 0 -315 -194q-128 -195 -128 -457q0 -350 252 -350zM567 -33q-225 1 -356 145t-131 408t92 474t265 336t387 126t350 -136t135 -425q0 -372 -189 -642q-90 -130 -234 -208t-319 -78z" />
    <glyph glyph-name="one" unicode="1" horiz-adv-x="606" 
d="M606 1425l-235 -1425h-254l198 1208l-149 -2l35 219h405z" />
    <glyph glyph-name="two" unicode="2" horiz-adv-x="1101" 
d="M782 1024q0 193 -202 193q-170 0 -344 -134l-84 209q231 164 499 164q184 0 297 -91t113 -290q-1 -331 -402 -657l-239 -191h616l-39 -227h-968l37 211l321 270q207 166 301 289t94 254z" />
    <glyph glyph-name="three" unicode="3" horiz-adv-x="1071" 
d="M461 -33q-272 0 -481 180l135 197q135 -133 317 -133q119 0 200 63q81 64 81 166t-72 150t-180 49h-101l31 176h94q115 0 207 69t92 162q0 171 -194 171t-365 -138l-67 215q225 162 522 162q387 0 387 -313q0 -151 -91 -257t-228 -155q104 -37 166 -118t63 -203
q0 -213 -143 -328t-373 -115z" />
    <glyph glyph-name="four" unicode="4" horiz-adv-x="1181" 
d="M283 477h424l116 699zM1143 477l-35 -207h-186l-45 -270h-250l45 270h-678l37 217l755 938h326l-158 -948h189z" />
    <glyph glyph-name="five" unicode="5" horiz-adv-x="1069" 
d="M438 213q125 0 211 71t86 210q0 94 -49 141t-127 47q-156 0 -266 -111l-158 74l131 780h801l-39 -229h-559l-66 -397q125 67 258 67t239 -85t108 -269q0 -264 -157 -404t-396 -141q-281 0 -451 152l102 215q121 -121 332 -121z" />
    <glyph glyph-name="six" unicode="6" horiz-adv-x="1204" 
d="M600 205q114 0 197 78q84 79 84 195q1 116 -61 163t-170 47t-194 -79q-87 -79 -87 -182t58 -163q59 -59 173 -59zM94 512q0 408 211 676t539 268q229 0 381 -137l-162 -189q-98 92 -236 93q-180 0 -308 -160t-148 -391q57 94 159 150t236 57q133 0 246 -75
q59 -40 96 -119t37 -185q-2 -240 -156 -386t-411 -147q-213 0 -349 133q-135 133 -135 412z" />
    <glyph glyph-name="seven" unicode="7" horiz-adv-x="1003" 
d="M176 1425h905l-618 -1425h-283l551 1194h-594z" />
    <glyph glyph-name="eight" unicode="8" horiz-adv-x="1185" 
d="M854 442q0 201 -260 201q-118 0 -203 -70q-84 -70 -84 -174q1 -194 228 -194q151 -1 235 65t84 172zM434 987q0 -192 211 -192q103 -1 185 73t81 172q-1 183 -225 183q-108 0 -180 -69t-72 -167zM1106 408q0 -209 -158 -325t-448 -116q-463 0 -463 352q0 155 91 261
t243 147q-178 90 -178 295q0 178 139 306t403 128q203 0 319 -85t115 -257q-1 -142 -83 -242t-207 -149q227 -72 227 -315z" />
    <glyph glyph-name="nine" unicode="9" horiz-adv-x="1183" 
d="M393 934q1 -189 211 -189q106 0 190 78q85 78 85 174q-1 95 -63 159t-166 64t-181 -87q-76 -88 -76 -199zM690 1456q180 0 314 -126q68 -66 108 -182t39 -271q0 -246 -80 -450t-243 -332t-382 -128q-268 0 -452 174l129 213q129 -145 306 -145t288 135t139 377
q-135 -168 -377 -168q-143 0 -245 89q-101 89 -101 265q1 225 153 387t404 162z" />
    <glyph glyph-name="colon" unicode=":" horiz-adv-x="458" 
d="M10 108q0 66 56 118t122 52t103 -37q37 -38 37 -103q0 -64 -56 -116t-124 -52q-66 0 -102 36t-36 102zM125 796q0 66 55 118q56 52 122 52t104 -37q38 -39 36 -103q0 -64 -56 -116t-122 -52t-103 36q-36 36 -36 102z" />
    <glyph glyph-name="semicolon" unicode=";" horiz-adv-x="450" 
d="M342 94q0 -182 -114 -327t-279 -205l-64 129q209 86 281 274h-21q-53 4 -87 41q-34 38 -34 108t53 118q52 48 124 47q141 -3 141 -185zM302 954q66 0 104 -38t36 -102q0 -64 -56 -117q-56 -52 -122 -52t-103 37q-36 36 -36 102t55 118q56 52 122 52z" />
    <glyph glyph-name="less" unicode="&#x3c;" horiz-adv-x="917" 
d="M946 1153l-37 -240l-661 -243l583 -250l-38 -240l-764 365l32 205l9 49z" />
    <glyph glyph-name="equal" unicode="=" horiz-adv-x="1128" 
d="M117 537h913l-35 -215h-913zM190 997h914l-35 -213h-913z" />
    <glyph glyph-name="greater" unicode="&#x3e;" horiz-adv-x="919" 
d="M952 799l-32 -207l-9 -47l-880 -365l39 240l663 250l-586 243l37 240z" />
    <glyph glyph-name="question" unicode="?" horiz-adv-x="997" 
d="M231 124q-1 69 53 119t124 50t109 -42q38 -42 38 -111q0 -68 -53 -118q-52 -50 -122 -50t-110 41q-39 42 -39 111zM1010 1089q0 -181 -115 -294t-303 -144l-39 -211h-223l45 340q170 -2 272 71q103 73 103 178t-58 153t-141 49q-152 -2 -281 -107l-104 179
q188 152 461 151q171 0 277 -92t106 -273z" />
    <glyph glyph-name="at" unicode="@" horiz-adv-x="1837" 
d="M852 289q68 0 134 42t97 122l27 157q-4 92 -48 136t-114 45q-112 -1 -178 -99t-65 -229q0 -84 39 -129q40 -45 108 -45zM258 349q0 -241 133 -385t418 -144t530 112l17 -155q-262 -119 -580 -120t-505 171t-187 478t129 559t366 406t523 153t469 -172q182 -171 182 -520
t-201 -534q-104 -97 -245 -98q-92 0 -151 45q-58 45 -77 123q-129 -160 -323 -159q-119 1 -190 77t-70 232q0 223 116 386q117 163 314 163q172 0 227 -150l39 123h172l-82 -491q-33 -186 74 -187q74 0 126 80q95 146 95 399q0 252 -139 387q-139 136 -368 136t-419 -129
q-189 -129 -291 -337t-102 -449z" />
    <glyph glyph-name="A" unicode="A" horiz-adv-x="1267" 
d="M449 545h366l-84 626zM889 0l-45 338h-490l-151 -338h-256l684 1425h297l227 -1425h-266z" />
    <glyph glyph-name="B" unicode="B" horiz-adv-x="1259" 
d="M643 227q139 0 229.5 66.5t90.5 187.5q0 172 -211 172h-322l-72 -426h285zM979 1047q0 156 -199 155h-260l-63 -389h274q102 0 175 67t73 167zM610 0h-542l235 1425h574q367 0 366 -288q0 -139 -75.5 -240.5t-206.5 -146.5q254 -43 253.5 -277.5t-168 -353.5t-436.5 -119
z" />
    <glyph glyph-name="C" unicode="C" horiz-adv-x="1304" 
d="M684.5 -33q-133.5 0 -232 33t-183.5 103.5t-133 196.5t-48 323.5t96.5 391t293 317.5t474 124t451.5 -156l-154 -217q-129 129 -338 129q-242 0 -396.5 -173t-154.5 -427q0 -205 101.5 -301t241 -96t256 44t196.5 116l59 -238q-94 -76 -245 -123t-284.5 -47z" />
    <glyph glyph-name="D" unicode="D" horiz-adv-x="1404" 
d="M522 233q295 1 465 205q127 153 127 404q0 356 -389 356h-203l-160 -965h160zM770 1425q293 0 454.5 -137t161.5 -420q0 -208 -70 -376q-68 -168 -188 -274q-247 -218 -602 -218h-458l235 1425h467z" />
    <glyph glyph-name="E" unicode="E" horiz-adv-x="1124" 
d="M1200 1196h-678l-57 -350h526l-35 -207h-526l-68 -410h680l-38 -229h-934l233 1425h936z" />
    <glyph glyph-name="F" unicode="F" horiz-adv-x="1077" 
d="M1176 1194h-656l-59 -358h504l-35 -213h-504l-102 -623h-256l235 1425h911z" />
    <glyph glyph-name="G" unicode="G" horiz-adv-x="1425" 
d="M90 588q0 369 236.5 618.5t611.5 249.5q135 0 265 -44t216 -124l-174 -198q-145 127 -336 127q-244 0 -395.5 -177.5t-151.5 -435.5q0 -203 105.5 -296t265.5 -93t285 43l57 346h-342l33 203h598l-123 -754q-259 -86 -525 -86q-266 1 -438 133q-88 68 -138 193t-50 295z
" />
    <glyph glyph-name="H" unicode="H" horiz-adv-x="1411" 
d="M1163 1425h254l-235 -1425h-254l102 625h-604l-102 -625h-256l235 1425h256l-94 -567h604z" />
    <glyph glyph-name="I" unicode="I" horiz-adv-x="552" 
d="M557 1425l-233 -1425h-256l235 1425h254z" />
    <glyph glyph-name="J" unicode="J" horiz-adv-x="929" 
d="M290 -33q-200 0 -341 119l90 221q96 -113 244 -112q213 0 258 274l159 956h254l-157 -960q-45 -272 -176 -385t-331 -113z" />
    <glyph glyph-name="K" unicode="K" horiz-adv-x="1255" 
d="M1370 1425l-522 -528l280 -897h-297l-204 674l-230 -234l-73 -440h-256l235 1425h256l-104 -630l614 630h301z" />
    <glyph glyph-name="L" unicode="L" horiz-adv-x="987" 
d="M360 231h568l-39 -231h-823l237 1425h256z" />
    <glyph glyph-name="M" unicode="M" horiz-adv-x="1683" 
d="M1376 1425h301l-223 -1425h-248l162 975l-500 -883h-188l-217 916l-162 -1008h-231l233 1425h301l236 -954z" />
    <glyph glyph-name="N" unicode="N" horiz-adv-x="1378" 
d="M1155 1425h231l-237 -1425h-242l-442 985l-162 -985h-235l235 1425h240l446 -999z" />
    <glyph glyph-name="O" unicode="O" horiz-adv-x="1536" 
d="M707 215q238 0 393 185.5t155 422.5q0 190 -101 289.5t-259 99.5q-227 0 -382 -178t-155 -420q0 -201 96.5 -300t252.5 -99zM668 -33q-246 0 -414 152.5t-168 458.5q0 369 238.5 623.5t611.5 256.5q229 0 401 -138q86 -69 137.5 -190.5t51.5 -287.5t-59.5 -325
t-167 -281.5t-272 -195.5t-359.5 -73z" />
    <glyph glyph-name="P" unicode="P" horiz-adv-x="1224" 
d="M678 700q160 0 245 83t85 218q0 96 -57.5 145.5t-162.5 49.5h-268l-82 -496h240zM862 1425q201 0 308.5 -99t107.5 -296q0 -254 -160 -404.5t-444 -150.5h-275l-77 -475h-256l237 1425h559z" />
    <glyph glyph-name="Q" unicode="Q" horiz-adv-x="1533" 
d="M1249 -358l-760 8l33 203l762 -9zM707 215q238 0 393 185.5t155 422.5q0 190 -101 289.5t-259 99.5q-227 0 -382 -178t-155 -420q0 -201 96.5 -300t252.5 -99zM668 -33q-246 0 -414 152.5t-168 458.5q0 369 238.5 623.5t611.5 256.5q229 0 401 -138q86 -69 137.5 -190.5
t51.5 -287.5t-59.5 -325t-167 -281.5t-272 -195.5t-359.5 -73z" />
    <glyph glyph-name="R" unicode="R" horiz-adv-x="1280" 
d="M702 774q141 0 223.5 68.5t82.5 185.5q0 84 -53.5 126t-143.5 42h-291l-69 -422h251zM1282 1077q0 -178 -102.5 -304t-274.5 -177l250 -596h-301l-213 569h-225l-94 -569h-256l237 1425h578q401 0 401 -348z" />
    <glyph glyph-name="S" unicode="S" horiz-adv-x="1081" 
d="M471 -33q-276 0 -477 166l104 242q147 -170 377 -170q115 0 186.5 56t71.5 142t-57 128t-192.5 96.5t-222.5 146.5t-87 267t131 295t378 120t447 -129l-145 -213q-143 109 -315 109q-104 0 -167 -46.5t-63 -123t45 -118.5t139 -80q95 -37 142 -63q48 -26 110 -75
q122 -95 121.5 -298.5t-150 -327.5t-376.5 -124z" />
    <glyph glyph-name="T" unicode="T" horiz-adv-x="1058" 
d="M1192 1425l-39 -231h-377l-196 -1194h-256l198 1194h-377l37 231h1010z" />
    <glyph glyph-name="U" unicode="U" horiz-adv-x="1366" 
d="M604 -33q-272 0 -386 178.5t-66 458.5l135 821h254l-140 -845q-27 -166 27 -270t202 -103.5t242.5 97.5t124.5 276l142 845h254l-140 -831q-102 -627 -649 -627z" />
    <glyph glyph-name="V" unicode="V" horiz-adv-x="1351" 
d="M1186 1425h266l-727 -1425h-299l-213 1425h274l125 -931q12 -152 13 -238q33 78 110 254z" />
    <glyph glyph-name="W" unicode="W" horiz-adv-x="1921" 
d="M1747 1425h262l-567 -1425h-297l-78 752q-6 63 -14 307q-72 -207 -111 -293l-358 -766h-297l-62 1425h273l8 -929q-4 -59 -8 -191q35 94 75 187l420 923h252l94 -893q8 -119 9 -213q51 150 65 197z" />
    <glyph glyph-name="X" unicode="X" horiz-adv-x="1265" 
d="M1352 1425l-504 -688l289 -737h-277l-221 590l-387 -590h-287l533 758l-277 667h279l202 -542l371 542h279z" />
    <glyph glyph-name="Y" unicode="Y" horiz-adv-x="1189" 
d="M1323 1425l-594 -907l-86 -518h-254l86 524l-295 901h279l184 -661l401 661h279z" />
    <glyph glyph-name="Z" unicode="Z" horiz-adv-x="1134" 
d="M1182 1425l-35 -215l-797 -985l699 2l-39 -227h-1006l37 213l778 983h-647l39 229h971z" />
    <glyph glyph-name="bracketleft" unicode="[" horiz-adv-x="540" 
d="M629 1503h-156l-270 -1720h155l-30 -193h-400l330 2106h399z" />
    <glyph glyph-name="backslash" unicode="\" horiz-adv-x="942" 
d="M766 -252h-244l-344 1935h244z" />
    <glyph glyph-name="bracketright" unicode="]" horiz-adv-x="540" 
d="M264 1696h400l-330 -2106h-400l31 193h156l270 1720h-158z" />
    <glyph glyph-name="asciicircum" unicode="^" horiz-adv-x="1101" 
d="M1073 705h-239l-140 624l-354 -624h-240l502 823h254z" />
    <glyph glyph-name="underscore" unicode="_" horiz-adv-x="1003" 
d="M-55 -219l32 172h873l-31 -172h-874z" />
    <glyph glyph-name="grave" unicode="`" horiz-adv-x="1228" 
d="M571 1128h-168l-188 443h248z" />
    <glyph glyph-name="a" unicode="a" horiz-adv-x="1134" 
d="M487 190q178 0 285 170l43 275q-55 156 -209 156q-127 0 -221 -105.5t-94 -267.5q0 -106 53 -167t143 -61zM379 -33q-150 0 -243 100.5t-93 286.5q0 299 155.5 476.5t383.5 177.5q88 0 161.5 -42t114.5 -110l31 121h227l-162 -977h-229l12 127q-143 -160 -358 -160z" />
    <glyph glyph-name="b" unicode="b" horiz-adv-x="1148" 
d="M537 186q137 0 229 110t92 247t-58.5 190t-140.5 53q-190 0 -292 -180l-45 -272q29 -70 86 -109t129 -39zM776 1008q137 0 233.5 -95.5t96.5 -287.5q0 -293 -152.5 -475.5t-392.5 -182.5q-190 0 -280 156l-31 -123h-227l251 1528h244l-112 -680q137 160 370 160z" />
    <glyph glyph-name="c" unicode="c" horiz-adv-x="897" 
d="M422 -33q-164 0 -271.5 96.5t-107.5 309.5q0 281 172 458t420 177q180 0 311 -115l-137 -176q-84 76 -202 76t-217 -105.5t-99 -271.5q0 -113 57.5 -169.5t147.5 -56.5q166 0 276 99l45 -199q-154 -123 -395 -123z" />
    <glyph glyph-name="d" unicode="d" horiz-adv-x="1136" 
d="M487 186q178 0 285 172l47 293q-55 143 -196.5 143.5t-235.5 -107t-94 -275.5q0 -104 52 -165t142 -61zM381 -33q-154 0 -247 101.5t-93 289.5q0 291 156.5 470.5t382.5 179.5q184 0 274 -144l109 662h245l-252 -1524l-225 -2l8 125q-141 -158 -358 -158z" />
    <glyph glyph-name="e" unicode="e" horiz-adv-x="1003" 
d="M586 821q-90 0 -167 -68.5t-112 -179.5h434q4 37 4 58q1 190 -159 190zM283 430v-22q0 -229 231 -230q176 0 322 94l55 -188q-184 -117 -426 -117q-184 0 -304 95.5t-120 299.5q0 274 165 460t423 186q156 0 247 -87t91 -274q0 -113 -23 -217h-661z" />
    <glyph glyph-name="f" unicode="f" horiz-adv-x="671" 
d="M629 1559q152 0 264 -76l-88 -180q-63 47 -137 47q-119 0 -146 -154l-37 -219h179l-33 -205h-178l-201 -1221h-244l201 1221h-123l31 205h125l41 246q55 336 346 336z" />
    <glyph glyph-name="g" unicode="g" horiz-adv-x="1138" 
d="M489 190q178 0 291 164l47 275q-55 162 -225 162q-129 0 -223 -106.5t-94 -268.5q0 -106 56 -166t148 -60zM387 -537q-256 0 -416 140l84 207q137 -133 326 -134q285 0 340 330l18 111q-135 -150 -348 -150q-160 0 -255 102.5t-95 295.5q0 293 155.5 468t369 175
t308.5 -156l41 125h209l-161 -981q-54 -308 -209 -421q-155 -112 -367 -112z" />
    <glyph glyph-name="h" unicode="h" horiz-adv-x="1081" 
d="M760 1008q143 0 209.5 -97.5t38.5 -267.5l-107 -645h-244l97 577q37 213 -131 213q-156 0 -254 -180l-101 -608l-243 4l249 1524h244l-119 -725q130 205 361 205z" />
    <glyph glyph-name="i" unicode="i" horiz-adv-x="485" 
d="M446 977l-163 -977h-242l162 977h243zM366 1174q-126 0 -126 124q0 66 48 113t110 47q124 0 124 -130q0 -63 -48 -108.5t-108 -45.5z" />
    <glyph glyph-name="j" unicode="j" horiz-adv-x="477" 
d="M-182 -528l-35 206q203 6 240 218l176 1081h241l-174 -1086q-33 -207 -141 -305t-307 -114zM392 1458q124 0 124 -130q0 -62 -47 -108t-109 -46q-126 0 -124 118q0 72 47 119t109 47z" />
    <glyph glyph-name="k" unicode="k" horiz-adv-x="999" 
d="M1038 977l-360 -359l213 -618h-264l-142 430l-178 -178l-41 -252h-243l251 1528h244l-166 -1010l400 459h286z" />
    <glyph glyph-name="l" unicode="l" horiz-adv-x="454" 
d="M516 1528l-248 -1528h-241l247 1528h242z" />
    <glyph glyph-name="m" unicode="m" horiz-adv-x="1656" 
d="M1339 1008q150 0 212.5 -94.5t33.5 -272.5l-106 -641h-244l94 578q31 209 -125 208q-137 0 -227 -172l-100 -614h-244l96 584q37 207 -123 207q-135 0 -227 -164l-107 -627h-241l162 977h225l-15 -164q123 195 343 195t243 -220q57 98 147 159t203 61z" />
    <glyph glyph-name="n" unicode="n" horiz-adv-x="1087" 
d="M768 1008q143 0 208.5 -97.5t37.5 -267.5l-105 -645h-245l96 577q37 213 -133 213q-154 0 -252 -182l-103 -606h-243l164 977h243l-30 -176q135 207 362 207z" />
    <glyph glyph-name="o" unicode="o" horiz-adv-x="1099" 
d="M485 193q127 -4 223 96q96 99 104.5 239t-49.5 199t-147 61q-131 4 -230 -99t-101 -255q-4 -119 51 -179t149 -62zM461 -33q-184 0 -301 101.5t-117 312.5q0 262 171 444.5t439 182.5q172 0 287 -101.5t115 -312.5q0 -279 -171 -453t-423 -174z" />
    <glyph glyph-name="p" unicode="p" horiz-adv-x="1153" 
d="M537 186q137 0 232 111t95 247t-58 189t-140 53q-186 0 -289 -172l-49 -290q27 -66 83 -102t126 -36zM782 1008q133 0 231.5 -96.5t98.5 -286.5q0 -293 -155.5 -475.5t-395.5 -182.5q-184 0 -270 137l-101 -608h-243l246 1481h217l-9 -143q135 174 381 174z" />
    <glyph glyph-name="q" unicode="q" horiz-adv-x="1132" 
d="M483 190q86 0 160 42t125 118l47 283q-53 158 -211 158q-127 0 -221 -108t-94 -269q0 -104 54 -164t140 -60zM41 360q0 289 155.5 468.5t376.5 179.5q96 0 172 -42t115 -112l43 123h213l-248 -1483h-243l102 621q-135 -147 -348 -148q-154 0 -246 100.5t-92 292.5z" />
    <glyph glyph-name="r" unicode="r" horiz-adv-x="698" 
d="M684 995q49 0 78 -8l-41 -223q-33 6 -68 6q-111 0 -182.5 -74.5t-120.5 -232.5l-78 -463h-243l164 977h235l-29 -215q105 233 285 233z" />
    <glyph glyph-name="s" unicode="s" horiz-adv-x="786" 
d="M481 263q0 46 -23.5 71.5t-47 36t-74.5 28.5q-258 82 -258 291q0 143 100.5 230.5t280.5 87.5t334 -80l-103 -174q-102 68 -242 67.5t-141 -104.5q0 -82 133 -126t203 -108.5t70 -202t-115 -225.5t-310.5 -88t-326.5 94l82 183q109 -88 264 -88q78 0 126 30.5t48 76.5z
" />
    <glyph glyph-name="t" unicode="t" horiz-adv-x="692" 
d="M473 182q90 0 180 58l9 -201q-124 -72 -278 -72q-317 0 -257 363l74 442h-115l31 205h116l52 303h243l-51 -303h262l-32 -205h-263l-69 -416q-29 -174 98 -174z" />
    <glyph glyph-name="u" unicode="u" horiz-adv-x="1067" 
d="M303 -33q-137 0 -201.5 99.5t-35.5 273.5l106 637h244l-97 -574q-16 -102 15 -159.5t108 -57.5q150 0 252 181l101 610h243l-161 -977h-244l26 160q-133 -193 -356 -193z" />
    <glyph glyph-name="v" unicode="v" horiz-adv-x="1001" 
d="M813 977h264l-540 -977h-279l-170 977h248l106 -768z" />
    <glyph glyph-name="w" unicode="w" horiz-adv-x="1419" 
d="M1225 977h258l-465 -977h-225l-70 666l-303 -666h-240l-80 977h246l14 -746l318 736h194l70 -727z" />
    <glyph glyph-name="x" unicode="x" horiz-adv-x="954" 
d="M1004 977l-379 -481l229 -496h-262l-152 383l-239 -383h-262l383 522l-216 455h261l137 -354l237 354h263z" />
    <glyph glyph-name="y" unicode="y" horiz-adv-x="1021" 
d="M834 977h258l-828 -1483h-254l289 490l-207 993h254l115 -731z" />
    <glyph glyph-name="z" unicode="z" horiz-adv-x="821" 
d="M838 977l-31 -186l-528 -601h460l-30 -190h-736l33 188l518 598h-436l31 191h719z" />
    <glyph glyph-name="braceleft" unicode="{" horiz-adv-x="628" 
d="M74 786q182 0 182 172q0 88 -19 231q-19 144 -20 210q0 152 87 241q86 89 230 89t246 -50l-39 -196q-94 39 -148 39t-96 -40t-42 -112t19 -198q20 -128 20 -218t-56 -172t-143 -110q125 -45 125 -185q0 -102 -97 -305t-98 -274q0 -119 119 -123q82 0 141 18l-49 -200
q-84 -17 -196 -15t-191 66q-78 64 -78 177q0 114 105 333q104 219 104 309q0 57 -30 85q-31 28 -109 28z" />
    <glyph glyph-name="bar" unicode="|" horiz-adv-x="591" 
d="M614 1653l-315 -1874h-244l316 1874h243z" />
    <glyph glyph-name="braceright" unicode="}" horiz-adv-x="628" 
d="M612 530q-184 0 -184 -172q0 -86 20 -230t21 -210q0 -152 -87 -241q-88 -89 -230 -89t-248 50l41 196q94 -39 147 -39t96 40q43 41 43 111t-19 198t-19 220t56 172q56 81 142 109q-125 41 -125 184q0 103 98 305t97 275q0 119 -121 123q-80 0 -141 -19l51 201
q70 14 190 14t197 -65q78 -65 78 -179q-1 -114 -105 -332t-104 -308q0 -57 31 -85t108 -28z" />
    <glyph glyph-name="asciitilde" unicode="~" horiz-adv-x="1040" 
d="M362 676q-87 0 -176 -58q-29 -18 -84 -59l35 232q131 109 248 108q78 0 206 -73q128 -72 184 -72q55 0 105 19t74 35t82 62l-35 -237q-113 -102 -247 -103q-90 0 -216 73t-176 73z" />
    <glyph glyph-name="exclamdown" unicode="&#xa1;" horiz-adv-x="593" 
d="M37 -367l186 1016h221l-147 -1016h-260zM535 936q1 -66 -53 -117t-122 -51t-109 43q-42 43 -42 109t51 118t119 52t112 -44t44 -110z" />
    <glyph glyph-name="cent" unicode="&#xa2;" horiz-adv-x="915" 
d="M332 694q0 -144 108 -207l88 564q-88 -37 -142 -125t-54 -232zM92 676q0 252 131 419t344 195l37 238h221l-39 -248q131 -33 224 -125l-138 -176q-55 55 -120 78l-93 -592q89 19 152 74l68 -193q-92 -76 -254 -102l-39 -244h-224l39 248q-143 32 -226 144t-83 284z" />
    <glyph glyph-name="sterling" unicode="&#xa3;" horiz-adv-x="1130" 
d="M875 1221q-136 0 -227 -89t-144 -307h440l-31 -209h-446q-23 -168 -31 -387h582l-37 -229h-1018l37 229h176q6 225 27 387h-137l32 209h138q80 371 241 505q82 70 172 98t205 28q238 0 401 -133l-127 -207q-117 105 -253 105z" />
    <glyph glyph-name="currency" unicode="&#xa4;" horiz-adv-x="1212" 
d="M356 696q0 -122 75 -190t201 -68t226 96q102 96 103 252q0 117 -78 189t-197 72q-118 -1 -224 -95t-106 -256zM1192 803q0 -279 -203 -445l86 -186l-207 -102l-86 182q-96 -27 -200 -27t-205 43l-137 -162l-170 127l141 168q-86 111 -86 265q0 260 170 426l-109 194
l193 105l98 -181q117 45 250 45t240 -61l141 170l170 -129l-154 -184q68 -107 68 -248z" />
    <glyph glyph-name="yen" unicode="&#xa5;" horiz-adv-x="1224" 
d="M1321 1425l-408 -569h252l-30 -209h-359l-26 -164h358l-33 -207h-358l-43 -276h-254l43 276h-357l33 207h357l24 164h-356l33 209h245l-225 569h279l186 -555l350 555h289z" />
    <glyph glyph-name="brokenbar" unicode="&#xa6;" horiz-adv-x="591" 
d="M444 641l-145 -862h-244l146 862h243zM614 1653l-145 -862h-246l148 862h243z" />
    <glyph glyph-name="section" unicode="&#xa7;" horiz-adv-x="1218" 
d="M891 516q0 66 -66 110t-237 89q-45 12 -105 35q-67 -12 -107 -56t-40 -108q0 -66 51 -112t166 -73t160 -43q76 4 127 48t51 110zM969 41q-1 -159 -143 -267t-400 -108t-457 109l123 198q131 -96 365 -96q109 0 185 36t75 118q1 59 -59 94t-224 71q-342 75 -342 318
q0 121 70 201t188 108q-102 86 -102 256q0 171 140 273t380 104q268 -4 461 -110l-129 -207q-166 106 -365 106q-240 0 -239 -158q0 -67 54 -105t223 -78q171 -40 267 -110t96 -198q0 -129 -77 -208q-78 -79 -201 -101q111 -86 111 -246z" />
    <glyph glyph-name="dieresis" unicode="&#xa8;" horiz-adv-x="1228" 
d="M796.5 1513q59.5 0 93.5 -41.5t23.5 -101t-58.5 -99.5t-106 -40t-92 41t-25 99t57 100t107.5 42zM354.5 1513q59.5 0 92 -41.5t23.5 -100t-56 -99.5t-106.5 -41t-93.5 41t-25 99t57.5 100t108 42z" />
    <glyph glyph-name="copyright" unicode="&#xa9;" horiz-adv-x="1832" 
d="M903 297q-168 0 -267 93t-99 269q0 250 153 419q154 169 395 169q184 0 299 -104l-149 -166q-71 61 -185 61t-194 -98t-80 -233q0 -93 52 -145t154 -52t212 82l86 -162q-158 -133 -377 -133zM1667 901q0 262 -167 417t-419 155q-343 0 -583 -252t-240 -600
q0 -269 159 -415t429 -147q342 0 582 241t239 601zM1096 1563q315 -1 494 -183t179 -467q0 -416 -264 -682t-678 -266q-323 0 -499 174t-176 471q0 397 271 675q272 278 673 278z" />
    <glyph glyph-name="guillemotleft" unicode="&#xab;" horiz-adv-x="1046" 
d="M1063 1047l-37 -254l-352 -226l274 -235l-35 -236l-403 373l35 221zM549 793l-352 -226l274 -235l-35 -236l-403 373l35 221l518 357z" />
    <glyph glyph-name="logicalnot" unicode="&#xac;" horiz-adv-x="1105" 
d="M1063 850l-80 -508h-215l45 293h-713l33 215h930z" />
    <glyph glyph-name="registered" unicode="&#xae;" horiz-adv-x="1126" 
d="M657 1108q123 0 123 94q0 61 -78 62h-81l-27 -156h63zM905 1225q0 -129 -123 -181l76 -200h-129l-59 178h-90l-31 -178h-119l88 528h213q174 0 174 -147zM594 666q215 0 353 148t138 360q0 160 -97 248t-253 89q-213 1 -353 -151t-140 -363q0 -159 95 -245t257 -86z
M748 1587q198 -1 310 -113t111 -290q-1 -254 -165 -425t-424 -171q-197 0 -310 108t-112 289q0 254 169 428t421 174z" />
    <glyph glyph-name="macron" unicode="&#xaf;" horiz-adv-x="1228" 
d="M195 1462h706l-33 -202h-708z" />
    <glyph glyph-name="degree" unicode="&#xb0;" horiz-adv-x="749" 
d="M299 1100q0 -154 164 -154q82 0 143 64q62 64 62 148q0 85 -40 126t-122 41t-145 -65q-62 -66 -62 -160zM426 799q-135 -1 -210 73t-75 201q0 170 110 283t288 112q137 0 211 -76t74 -228q0 -150 -110 -258q-110 -107 -288 -107z" />
    <glyph glyph-name="plusminus" unicode="&#xb1;" horiz-adv-x="1124" 
d="M47 102l33 215h909l-33 -215h-909zM748 969h344l-35 -215h-342l-43 -277h-221l43 277h-344l34 215h342l43 274h222z" />
    <glyph glyph-name="acute" unicode="&#xb4;" horiz-adv-x="1228" 
d="M711 1571l-334 -443h-168l256 443h246z" />
    <glyph glyph-name="paragraph" unicode="&#xb6;" horiz-adv-x="1003" 
d="M768 1425h272l-219 -1304q-41 -244 -182 -357t-330 -112q-129 0 -232 50t-161 118l113 203q117 -141 264 -142q225 0 276 287l52 293h-13q-242 0 -356 124t-72 380q78 460 588 460z" />
    <glyph glyph-name="periodcentered" unicode="&#xb7;" horiz-adv-x="458" 
d="M104 678q0 66 56 118t122 52t103 -38t37 -102t-56 -117q-56 -52 -122 -52t-104 36q-36 37 -36 103z" />
    <glyph glyph-name="cedilla" unicode="&#xb8;" horiz-adv-x="1228" 
d="M375 -154q172 0 172 -172q0 -129 -93.5 -201.5t-239.5 -72.5t-249 63l70 131q86 -53 168 -53t124 34t42 91q-1 66 -67 66t-109 -43l-115 43l160 291h157l-123 -195q56 18 103 18z" />
    <glyph glyph-name="guillemotright" unicode="&#xbb;" horiz-adv-x="1062" 
d="M645 1047l416 -357l-35 -219l-530 -375l41 256l362 240l-289 221zM578 690l-33 -219l-533 -375l41 256l363 240l-289 221l35 234z" />
    <glyph glyph-name="questiondown" unicode="&#xbf;" horiz-adv-x="999" 
d="M-4 -67q0 181 115 294t303 144l39 211h223l-45 -340q-171 2 -273 -71t-102 -178t57 -153t142 -49q151 3 280 107l105 -179q-188 -152 -461 -151q-170 0 -277 92q-106 92 -106 273zM598 729q-70 0 -110 42q-38 42 -38 111q0 68 54 118q52 50 122 50t109 -41
q39 -42 39 -111t-53 -119t-123 -50z" />
    <glyph glyph-name="Agrave" unicode="&#xc0;" horiz-adv-x="1267" 
d="M449 545h366l-84 626zM889 0l-45 338h-490l-151 -338h-256l684 1425h297l227 -1425h-266zM887 1575h-172l-209 442h246z" />
    <glyph glyph-name="Aacute" unicode="&#xc1;" horiz-adv-x="1267" 
d="M449 545h366l-84 626zM631 1425h297l227 -1425h-266l-45 338h-490l-151 -338h-256zM1300 1999l-413 -424h-195l340 424h268z" />
    <glyph glyph-name="Acircumflex" unicode="&#xc2;" horiz-adv-x="1267" 
d="M449 545h366l-84 626zM631 1425h297l227 -1425h-266l-45 338h-490l-151 -338h-256zM874 1845l-227 -276h-172l326 450h205l174 -450h-172z" />
    <glyph glyph-name="Atilde" unicode="&#xc3;" horiz-adv-x="1267" 
d="M449 545h366l-84 626zM631 1425h297l227 -1425h-266l-45 338h-490l-151 -338h-256zM705 1761q-76 0 -111 -215h-178q49 410 262 410q47 0 90 -35q42 -35 70 -76q74 -110 127 -110q78 0 112 217h180q-51 -412 -270 -412q-59 0 -111.5 55.5t-94 110.5t-76.5 55z" />
    <glyph glyph-name="Adieresis" unicode="&#xc4;" horiz-adv-x="1267" 
d="M449 545h366l-84 626zM631 1425h297l227 -1425h-266l-45 338h-490l-151 -338h-256zM1062 1894q60 0 95 -42t24.5 -101t-58.5 -101t-108 -42t-95 42t-25 101t58.5 101t108.5 42zM601 1608q-58 0 -93 42t-24.5 101t58.5 101t107.5 42t93 -42t23.5 -101t-58.5 -101
t-106.5 -42z" />
    <glyph glyph-name="Aring" unicode="&#xc5;" horiz-adv-x="1267" 
d="M449 545h366l-84 626zM889 0l-45 338h-490l-151 -338h-256l684 1425h297l227 -1425h-266zM825.5 1694q53.5 0 91 31.5t46 89t-17 91t-79 33.5t-91.5 -33.5t-47 -89.5t17.5 -89t80 -33zM804 1561q-122 0 -181.5 69.5t-40 185.5t102.5 185.5t204 69.5t180 -72t41 -184.5
t-101 -183t-205 -70.5z" />
    <glyph glyph-name="AE" unicode="&#xc6;" horiz-adv-x="1851" 
d="M528 545h398l90 651h-78zM1919 1196h-645l-49 -354h493l-35 -207h-487l-55 -406h628l-38 -229h-881l47 338h-498l-213 -338h-270l897 1425h1143z" />
    <glyph glyph-name="Ccedilla" unicode="&#xc7;" horiz-adv-x="1304" 
d="M911 1212q-242 0 -396.5 -173t-154.5 -427q0 -205 102 -301q100 -96 240 -96t256.5 44t196.5 116l59 -238q-92 -74 -237.5 -120t-292.5 -50l-88 -139q55 18 102 18q172 0 172 -172q0 -129 -93 -201.5t-239 -72.5t-249 63l69 131q86 -53 168 -53t124 34t42 91q0 66 -71 66
q-61 0 -105 -43l-115 43l136 245q-199 35 -324 185.5t-125 433.5q0 225 96.5 418.5t293 317.5t474.5 124t451 -156l-154 -217q-129 129 -338 129z" />
    <glyph glyph-name="Egrave" unicode="&#xc8;" horiz-adv-x="1124" 
d="M1200 1196h-678l-57 -350h526l-35 -207h-526l-68 -410h680l-38 -229h-934l233 1425h936zM864 1575h-172l-209 442h246z" />
    <glyph glyph-name="Eacute" unicode="&#xc9;" horiz-adv-x="1124" 
d="M70 0l233 1425h936l-39 -229h-678l-57 -350h526l-35 -207h-526l-68 -410h680l-38 -229h-934zM1278 1999l-414 -424h-194l340 424h268z" />
    <glyph glyph-name="Ecircumflex" unicode="&#xca;" horiz-adv-x="1124" 
d="M1200 1196h-678l-57 -350h526l-35 -207h-526l-68 -410h680l-38 -229h-934l233 1425h936zM852 1845l-227 -276h-172l325 450h205l174 -450h-172z" />
    <glyph glyph-name="Edieresis" unicode="&#xcb;" horiz-adv-x="1124" 
d="M1200 1196h-678l-57 -350h526l-35 -207h-526l-68 -410h680l-38 -229h-934l233 1425h936zM992 1608q-60 0 -95 42t-24.5 101t58.5 101t108 42t95 -42t25 -101t-58.5 -101t-108.5 -42zM579 1608q-58 0 -93 42t-25 101t58 101t107.5 42t93.5 -42t23.5 -101t-58.5 -101
t-106 -42z" />
    <glyph glyph-name="Igrave" unicode="&#xcc;" horiz-adv-x="552" 
d="M557 1425l-233 -1425h-256l235 1425h254zM369 1575l-209 442h246l135 -442h-172z" />
    <glyph glyph-name="Iacute" unicode="&#xcd;" horiz-adv-x="552" 
d="M557 1425l-233 -1425h-256l235 1425h254zM954 1999l-413 -424h-195l340 424h268z" />
    <glyph glyph-name="Icircumflex" unicode="&#xce;" horiz-adv-x="552" 
d="M68 0l235 1425h254l-233 -1425h-256zM659 2019l175 -450h-172l-134 276l-227 -276h-172l326 450h204z" />
    <glyph glyph-name="Idieresis" unicode="&#xcf;" horiz-adv-x="552" 
d="M557 1425l-233 -1425h-256l235 1425h254zM669 1608q-60 0 -95 42t-25 101t58 101t108.5 42t95.5 -42t24.5 -101t-58.5 -101t-108 -42zM255 1608q-58 0 -93 42t-25 101t58.5 101t107.5 42t93 -42t24 -101t-58.5 -101t-106.5 -42z" />
    <glyph glyph-name="Eth" unicode="&#xd0;" horiz-adv-x="1404" 
d="M522 233q295 1 465 205q127 153 127 404q0 356 -389 356h-203l-57 -346h334l-35 -209h-334l-68 -410h160zM770 1425q293 0 454.5 -137t161.5 -420q0 -208 -70 -376q-68 -168 -188 -274q-247 -218 -602 -218h-458l106 643h-102l34 209h103l94 573h467z" />
    <glyph glyph-name="Ntilde" unicode="&#xd1;" horiz-adv-x="1378" 
d="M1155 1425h231l-237 -1425h-242l-442 985l-162 -985h-235l235 1425h240l446 -999zM770 1761q-76 0 -111 -215h-178q49 410 262 410q47 0 91 -35q42 -35 70 -76q74 -110 126 -110q78 0 113 217h180q-51 -412 -270 -412q-59 0 -111.5 55.5t-94.5 110.5t-77 55z" />
    <glyph glyph-name="Ograve" unicode="&#xd2;" horiz-adv-x="1536" 
d="M707 215q238 0 393 185.5t155 422.5q0 190 -101 289.5t-259 99.5q-227 0 -382 -178t-155 -420q0 -201 96.5 -300t252.5 -99zM668 -33q-246 0 -414 152.5t-168 458.5q0 369 238.5 623.5t611.5 256.5q229 0 401 -138q86 -69 137.5 -190.5t51.5 -287.5t-59.5 -325
t-167 -281.5t-272 -195.5t-359.5 -73zM860 1575l-209 442h246l135 -442h-172z" />
    <glyph glyph-name="Oacute" unicode="&#xd3;" horiz-adv-x="1536" 
d="M707 215q238 0 393 185.5t155 422.5q0 190 -101 289.5t-259 99.5q-227 0 -382 -178t-155 -420q0 -201 96.5 -300t252.5 -99zM668 -33q-246 0 -414 152.5t-168 458.5q0 369 238.5 623.5t611.5 256.5q229 0 401 -138q86 -69 137.5 -190.5t51.5 -287.5t-59.5 -325
t-167 -281.5t-272 -195.5t-359.5 -73zM1446 1999l-414 -424h-194l340 424h268z" />
    <glyph glyph-name="Ocircumflex" unicode="&#xd4;" horiz-adv-x="1536" 
d="M707 215q238 0 393 185.5t155 422.5q0 190 -101 289.5t-259 99.5q-227 0 -382 -178t-155 -420q0 -201 96.5 -300t252.5 -99zM1526 842q0 -166 -59.5 -325t-167 -281.5t-272.5 -195.5t-359 -73q-246 0 -414 152.5t-168 458.5q0 369 238.5 623.5t611.5 256.5
q229 0 401 -138q86 -69 137.5 -190.5t51.5 -287.5zM1020 1845l-227 -276h-172l325 450h205l174 -450h-172z" />
    <glyph glyph-name="Otilde" unicode="&#xd5;" horiz-adv-x="1536" 
d="M707 215q238 0 393 185.5t155 422.5q0 190 -101 289.5t-259 99.5q-227 0 -382 -178t-155 -420q0 -201 96.5 -300t252.5 -99zM668 -33q-246 0 -414 152.5t-168 458.5q0 369 238.5 623.5t611.5 256.5q229 0 401 -138q86 -69 137.5 -190.5t51.5 -287.5t-59.5 -325
t-167 -281.5t-272 -195.5t-359.5 -73zM850 1761q-76 0 -111 -215h-178q49 410 262 410q47 0 90 -35t71 -76q75 -110 126 -110q78 0 113 217h180q-51 -412 -270 -412q-59 0 -111.5 55.5t-94.5 110.5t-77 55z" />
    <glyph glyph-name="Odieresis" unicode="&#xd6;" horiz-adv-x="1536" 
d="M707 215q238 0 393 185.5t155 422.5q0 190 -101 289.5t-259 99.5q-227 0 -382 -178t-155 -420q0 -201 96.5 -300t252.5 -99zM668 -33q-246 0 -414 152.5t-168 458.5q0 369 238.5 623.5t611.5 256.5q229 0 401 -138q86 -69 137.5 -190.5t51.5 -287.5t-59.5 -325
t-167 -281.5t-272 -195.5t-359.5 -73zM1160 1608q-60 0 -95 42t-24.5 101t58.5 101t108 42t95 -42t25 -101t-58.5 -101t-108.5 -42zM747 1608q-58 0 -93.5 42t-25 101t58.5 101t107.5 42t93.5 -42t23.5 -101t-58.5 -101t-106 -42z" />
    <glyph glyph-name="multiply" unicode="&#xd7;" horiz-adv-x="1067" 
d="M1055 1012l-346 -318l243 -317l-172 -141l-235 305l-332 -305l-133 141l346 317l-244 318l174 141l236 -305l332 305z" />
    <glyph glyph-name="Oslash" unicode="&#xd8;" horiz-adv-x="1536" 
d="M1255 823q0 100 -32 183l-721 -732q84 -59 205 -59q238 0 393 185t155 423zM358 614q0 -106 29 -186l717 727q-88 57 -209 57q-227 0 -382 -178t-155 -420zM1526 870q0 -194 -59.5 -353t-167 -281.5t-272.5 -195.5t-367.5 -73t-354.5 109l-108 -111l-148 119l129 131
q-92 147 -92 363q0 369 238.5 623.5t611.5 256.5q209 0 360 -106l105 104l160 -108l-131 -134q96 -150 96 -344z" />
    <glyph glyph-name="Ugrave" unicode="&#xd9;" horiz-adv-x="1366" 
d="M604 -33q-272 0 -386 178.5t-66 458.5l135 821h254l-140 -845q-27 -166 27 -270t202 -103.5t242.5 97.5t124.5 276l142 845h254l-140 -831q-102 -627 -649 -627zM774 1575l-209 442h246l135 -442h-172z" />
    <glyph glyph-name="Uacute" unicode="&#xda;" horiz-adv-x="1366" 
d="M604 -33q-272 0 -386 178.5t-66 458.5l135 821h254l-140 -845q-27 -166 27 -270t202 -103.5t242.5 97.5t124.5 276l142 845h254l-140 -831q-102 -627 -649 -627zM1360 1999l-414 -424h-194l340 424h268z" />
    <glyph glyph-name="Ucircumflex" unicode="&#xdb;" horiz-adv-x="1366" 
d="M604 -33q-272 0 -386 178.5t-66 458.5l135 821h254l-140 -845q-27 -166 27.5 -269.5t202 -103.5t242 97t124.5 276l142 845h254l-140 -831q-102 -627 -649 -627zM934 1845l-227 -276h-172l325 450h205l174 -450h-172z" />
    <glyph glyph-name="Udieresis" unicode="&#xdc;" horiz-adv-x="1366" 
d="M604 -33q-272 0 -386 178.5t-66 458.5l135 821h254l-140 -845q-27 -166 27.5 -269.5t202 -103.5t242 97t124.5 276l142 845h254l-140 -831q-102 -627 -649 -627zM1074 1608q-60 0 -95 42t-24.5 101t58.5 101t108 42t95 -42t25 -101t-58.5 -101t-108.5 -42zM661 1608
q-58 0 -93.5 42t-25 101t58.5 101t107.5 42t93.5 -42t23.5 -101t-58.5 -101t-106 -42z" />
    <glyph glyph-name="Yacute" unicode="&#xdd;" horiz-adv-x="1189" 
d="M1323 1425l-594 -907l-86 -518h-254l86 524l-295 901h279l184 -661l401 661h279zM1274 1999l-414 -424h-194l340 424h268z" />
    <glyph glyph-name="Thorn" unicode="&#xde;" horiz-adv-x="1210" 
d="M618 516q160 0 244 79t84 193q0 182 -219 183h-244l-75 -455h210zM799 1200q203 0 310.5 -93t107.5 -280q0 -238 -155 -387t-448 -149h-243l-49 -291h-256l237 1425h256l-37 -225h277z" />
    <glyph glyph-name="germandbls" unicode="&#xdf;" horiz-adv-x="1054" 
d="M1008 401q0 -199 -112 -315t-270 -115q-158 0 -261 49l34 185q74 -35 168 -35t153 73q58 73 58 182t-61 171t-176 61h-33l22 160h29q119 -1 189 105t69 237q0 188 -153 189q-102 0 -162 -90t-90 -285l-234 -1430h-241l231 1424q53 323 175 457t347 135q144 -1 248 -89
t104 -267t-84 -301t-200 -159q114 -27 182 -119t68 -223z" />
    <glyph glyph-name="agrave" unicode="&#xe0;" horiz-adv-x="1134" 
d="M487 190q178 0 285 170l43 275q-55 156 -209 156q-127 0 -221 -105.5t-94 -267.5q0 -106 53 -167t143 -61zM379 -33q-150 0 -243 100.5t-93 286.5q0 299 155.5 476.5t383.5 177.5q88 0 161.5 -42t114.5 -110l31 121h227l-162 -977h-229l12 127q-143 -160 -358 -160z
M791 1128h-168l-189 443h248z" />
    <glyph glyph-name="aacute" unicode="&#xe1;" horiz-adv-x="1134" 
d="M487 190q178 0 285 170l43 275q-55 156 -209 156q-127 0 -221 -105.5t-94 -267.5q0 -106 53 -167t143 -61zM379 -33q-150 0 -243 100.5t-93 286.5q0 299 155.5 476.5t383.5 177.5q88 0 161.5 -42t114.5 -110l31 121h227l-162 -977h-229l12 127q-143 -160 -358 -160z
M1096 1571l-334 -443h-168l256 443h246z" />
    <glyph glyph-name="acircumflex" unicode="&#xe2;" horiz-adv-x="1134" 
d="M487 190q178 0 285 170l43 275q-55 156 -209 156q-127 0 -221 -105.5t-94 -267.5q0 -106 53 -167t143 -61zM379 -33q-150 0 -243 100.5t-93 286.5q0 299 155.5 476.5t383.5 177.5q88 0 161.5 -42t114.5 -110l31 121h227l-162 -977h-229l12 127q-143 -160 -358 -160z
M752 1405l-226 -277h-172l324 451h205l176 -451h-172z" />
    <glyph glyph-name="atilde" unicode="&#xe3;" horiz-adv-x="1134" 
d="M487 190q178 0 285 170l43 275q-55 156 -209 156q-127 0 -221 -105.5t-94 -267.5q0 -106 53 -167t143 -61zM379 -33q-150 0 -243 100.5t-93 286.5q0 299 155.5 476.5t383.5 177.5q88 0 161.5 -42t114.5 -110l31 121h227l-162 -977h-229l12 127q-143 -160 -358 -160z
M584 1360q-68 0 -103 -217h-180q51 412 264 411q35 0 68 -19t51 -40.5t53 -64.5q68 -98 109 -99q74 0 108 219h181q-51 -414 -267 -413q-89 0 -176 116q-35 47 -40 53.5t-13 17.5q-26 36 -55 36z" />
    <glyph glyph-name="adieresis" unicode="&#xe4;" horiz-adv-x="1134" 
d="M487 190q178 0 285 170l43 275q-55 156 -209 156q-127 0 -221 -105.5t-94 -267.5q0 -106 53 -167t143 -61zM379 -33q-150 0 -243 100.5t-93 286.5q0 299 155.5 476.5t383.5 177.5q88 0 161.5 -42t114.5 -110l31 121h227l-162 -977h-229l12 127q-143 -160 -358 -160z
M943 1231q-58 0 -92 41t-25 99t57.5 100t108 42t93 -41.5t23.5 -101t-58.5 -99.5t-106.5 -40zM501.5 1231q-59.5 0 -93 41t-24.5 99t57 100t107.5 42t92.5 -41.5t24 -100t-56.5 -99.5t-107 -41z" />
    <glyph glyph-name="aring" unicode="&#xe5;" horiz-adv-x="1134" 
d="M487 190q178 0 285 170l43 275q-55 156 -209 156q-127 0 -221 -105.5t-94 -267.5q0 -106 53 -167t143 -61zM379 -33q-150 0 -243 100.5t-93 286.5q0 299 155.5 476.5t383.5 177.5q88 0 161.5 -42t114.5 -110l31 121h227l-162 -977h-229l12 127q-143 -160 -358 -160z
M666 1405q0 -113 109 -113q54 0 102.5 44t48.5 116q0 107 -116 107q-58 0 -101 -47.5t-43 -106.5zM766.5 1169q-120.5 0 -180.5 56.5t-60 146.5q0 133 90.5 220t209 87t178 -58t59.5 -167t-88 -197t-208.5 -88z" />
    <glyph glyph-name="ae" unicode="&#xe6;" horiz-adv-x="1617" 
d="M444 446q-88 0 -145 -51t-57 -122q0 -140 152 -140t241 139l14 90q-70 84 -205 84zM1354 618q0 201 -176 201q-86 -1 -155 -71t-101 -181h430q2 18 2 51zM1245 1008q154 0 244 -90t90 -269q0 -70 -10 -129l-10 -63h-658q-2 -16 -2 -51q0 -225 229 -226q168 0 330 90
l53 -178q-197 -125 -426 -125q-285 0 -346 207q-71 -98 -189 -152t-249 -54t-212 62q-81 64 -81 208t106 241q106 99 276 99q169 0 282 -74l10 67q14 117 -27 173t-153 57q-160 0 -285 -74l-57 170q180 111 422 111t292 -172q144 172 371 172z" />
    <glyph glyph-name="ccedilla" unicode="&#xe7;" horiz-adv-x="897" 
d="M545 -154q172 0 172 -172q0 -129 -93.5 -201.5t-239 -72.5t-249.5 63l70 131q86 -53 168 -53t124 34t42 91q0 66 -66.5 66t-110.5 -43l-114 43l131 237q-150 12 -243 108.5t-93 295.5q0 281 172 458t420 177q180 0 311 -115l-137 -176q-84 76 -202 76t-217 -105.5
t-99 -271.5q0 -113 57.5 -169.5t147.5 -56.5q166 0 276 99l45 -199q-119 -94 -282 -115l-93 -147q55 18 103 18z" />
    <glyph glyph-name="egrave" unicode="&#xe8;" horiz-adv-x="1003" 
d="M586 821q-90 0 -167 -68.5t-112 -179.5h434q4 37 4 58q1 190 -159 190zM283 430v-22q0 -229 231 -230q176 0 322 94l55 -188q-184 -117 -426 -117q-184 0 -304 95.5t-120 299.5q0 274 165 460t423 186q156 0 247 -87t91 -274q0 -113 -23 -217h-661zM696 1128h-168
l-188 443h248z" />
    <glyph glyph-name="eacute" unicode="&#xe9;" horiz-adv-x="1003" 
d="M586 821q-90 0 -167 -68.5t-112 -179.5h434q4 37 4 58q1 190 -159 190zM629 1008q156 0 247 -87t91 -274q0 -113 -23 -217h-661v-22q0 -229 231 -230q176 0 322 94l55 -188q-184 -117 -426 -117q-184 0 -304 95.5t-120 299.5q0 274 165 460t423 186zM1001 1571l-333 -443
h-168l256 443h245z" />
    <glyph glyph-name="ecircumflex" unicode="&#xea;" horiz-adv-x="1003" 
d="M586 821q-90 0 -167 -68.5t-112 -179.5h434q4 37 4 58q1 190 -159 190zM283 430v-22q0 -229 231 -230q176 0 322 94l55 -188q-184 -117 -426 -117q-184 0 -304 95.5t-120 299.5q0 274 165 460t423 186q156 0 247 -87t91 -274q0 -113 -23 -217h-661zM657 1405l-225 -277
h-172l324 451h204l177 -451h-172z" />
    <glyph glyph-name="edieresis" unicode="&#xeb;" horiz-adv-x="1003" 
d="M586 821q-90 0 -167 -68.5t-112 -179.5h434q4 37 4 58q1 190 -159 190zM629 1008q156 0 247 -87t91 -274q0 -113 -23 -217h-661v-22q0 -229 231 -230q176 0 322 94l55 -188q-184 -117 -426 -117q-184 0 -304 95.5t-120 299.5q0 274 165 460t423 186zM897 1513
q59 0 93 -41.5t24 -101t-58.5 -99.5t-106.5 -40t-92 41t-25 99t57.5 100t107.5 42zM407.5 1231q-59.5 0 -93 41t-24.5 99t57 100t107.5 42t92.5 -41.5t23 -99.5t-56.5 -99.5t-106 -41.5z" />
    <glyph glyph-name="igrave" unicode="&#xec;" horiz-adv-x="491" 
d="M449 977l-164 -977h-242l162 977h244zM438 1128h-168l-188 443h248z" />
    <glyph glyph-name="iacute" unicode="&#xed;" horiz-adv-x="491" 
d="M449 977l-164 -977h-242l162 977h244zM743 1571l-333 -443h-168l256 443h245z" />
    <glyph glyph-name="icircumflex" unicode="&#xee;" horiz-adv-x="491" 
d="M43 0l162 977h244l-164 -977h-242zM530 1579l177 -451h-172l-136 277l-225 -277h-172l324 451h204z" />
    <glyph glyph-name="idieresis" unicode="&#xef;" horiz-adv-x="491" 
d="M449 977l-164 -977h-242l162 977h244zM639 1513q59 0 93 -41.5t23.5 -101t-58.5 -99.5t-106 -40t-92 41t-25 99t57.5 100t107.5 42zM196.5 1513q59.5 0 92.5 -41.5t23.5 -100t-56.5 -99.5t-106.5 -41t-93 41t-24.5 99t57 100t107.5 42z" />
    <glyph glyph-name="eth" unicode="&#xf0;" horiz-adv-x="1110" 
d="M487 186q98 0 182.5 80t125.5 234q-55 182 -236 182q-113 0 -193.5 -80t-80.5 -190.5t52 -168t150 -57.5zM1065 780q0 -391 -171 -602t-435 -211q-195 0 -306.5 107.5t-111.5 311.5t135 341t344 137t305 -180q4 66 4 107q0 174 -61 301l-238 -125l-79 161l202 107
q-129 109 -344 121l47 192q297 -12 496 -209l205 107l78 -162l-172 -90q102 -182 102 -414z" />
    <glyph glyph-name="ntilde" unicode="&#xf1;" horiz-adv-x="1087" 
d="M768 1008q143 0 208.5 -97.5t37.5 -267.5l-105 -645h-245l96 577q37 213 -133 213q-154 0 -252 -182l-103 -606h-243l164 977h243l-30 -176q135 207 362 207zM530 1360q-68 0 -102 -217h-180q51 412 264 411q35 0 67.5 -19t51 -40.5t53.5 -64.5q68 -98 109 -99
q74 0 108 219h180q-51 -414 -266 -413q-89 0 -176 116q-35 47 -40 53.5t-13 17.5t-13.5 15t-16 12.5t-26.5 8.5z" />
    <glyph glyph-name="ograve" unicode="&#xf2;" horiz-adv-x="1099" 
d="M485 193q127 -4 223 96q96 99 104.5 239t-49.5 199t-147 61q-131 4 -230 -99t-101 -255q-4 -119 51 -179t149 -62zM461 -33q-184 0 -301 101.5t-117 312.5q0 262 171 444.5t439 182.5q172 0 287 -101.5t115 -312.5q0 -279 -171 -453t-423 -174zM760 1128h-168l-189 443
h248z" />
    <glyph glyph-name="oacute" unicode="&#xf3;" horiz-adv-x="1099" 
d="M485 193q127 -4 223 96q96 99 104.5 239t-49.5 199t-147 61q-131 4 -230 -99t-101 -255q-4 -119 51 -179t149 -62zM461 -33q-184 0 -301 101.5t-117 312.5q0 262 171 444.5t439 182.5q172 0 287 -101.5t115 -312.5q0 -279 -171 -453t-423 -174zM1065 1571l-334 -443h-168
l256 443h246z" />
    <glyph glyph-name="ocircumflex" unicode="&#xf4;" horiz-adv-x="1099" 
d="M708.5 289q96.5 100 104.5 239.5t-50 198.5t-147 61q-131 4 -230 -99t-101 -255q-4 -119 51 -179t149 -62q127 -4 223.5 96zM653 1008q172 0 287 -101.5t115 -312.5q0 -279 -171 -453t-423 -174q-184 0 -301 101.5t-117 312.5q0 262 171 444.5t439 182.5zM721 1405
l-225 -277h-172l323 451h205l176 -451h-172z" />
    <glyph glyph-name="otilde" unicode="&#xf5;" horiz-adv-x="1099" 
d="M485 193q127 -4 223.5 96t104.5 239.5t-50 198.5t-147 61q-131 4 -230 -99t-101 -255q-4 -119 51 -179t149 -62zM461 -33q-184 0 -301 101.5t-117 312.5q0 262 171 444.5t439 182.5q172 0 287 -101.5t115 -312.5q0 -279 -171 -453t-423 -174zM553 1360q-68 0 -102 -217
h-181q51 412 265 411q35 0 67.5 -19t51 -40.5t53.5 -64.5q68 -98 108 -99q74 0 109 219h180q-51 -414 -266 -413q-53 0 -100.5 37.5t-79 81.5t-37 50.5t-13.5 17.5q-26 36 -55 36z" />
    <glyph glyph-name="odieresis" unicode="&#xf6;" horiz-adv-x="1099" 
d="M485 193q127 -4 223.5 96t104.5 239.5t-50 198.5t-147 61q-131 4 -230 -99t-101 -255q-4 -119 51 -179t149 -62zM461 -33q-184 0 -301 101.5t-117 312.5q0 262 171 444.5t439 182.5q172 0 287 -101.5t115 -312.5q0 -279 -171 -453t-423 -174zM960.5 1513q59.5 0 93 -41.5
t23.5 -101t-58 -99.5t-106.5 -40t-92 41t-24.5 99t57 100t107.5 42zM518.5 1513q59.5 0 92 -41.5t23.5 -100t-56.5 -99.5t-106.5 -41t-93 41t-25 99t57.5 100t108 42z" />
    <glyph glyph-name="divide" unicode="&#xf7;" horiz-adv-x="1165" 
d="M585 457q71 0 113 -50t31 -121q-10 -71 -67 -120q-58 -49 -130 -49t-112 48t-31 120t67 122t129 50zM158 803h952l-33 -215h-954zM715 1274q73 0 113 -50t29 -120t-69 -120t-128 -50t-112 49t-32 121q12 72 70 121t129 49z" />
    <glyph glyph-name="oslash" unicode="&#xf8;" horiz-adv-x="1097" 
d="M813 543q2 55 -6 94l-420 -422q45 -23 98 -22q127 -4 223.5 96t104.5 254zM283 434q0 -41 6 -76l411 414q-43 16 -84 16q-133 4 -231 -99t-102 -255zM459 -33q-152 0 -252 66l-84 -84l-125 119l92 92q-47 90 -47 221q0 262 170 444.5t440 182.5q131 0 228 -56l80 80
l133 -106l-95 -95q55 -98 56 -237q0 -279 -172 -453t-424 -174z" />
    <glyph glyph-name="ugrave" unicode="&#xf9;" horiz-adv-x="1067" 
d="M303 -33q-137 0 -201.5 99.5t-35.5 273.5l106 637h244l-97 -574q-16 -102 15 -159.5t108 -57.5q150 0 252 181l101 610h243l-161 -977h-244l26 160q-133 -193 -356 -193zM729 1128h-168l-188 443h248z" />
    <glyph glyph-name="uacute" unicode="&#xfa;" horiz-adv-x="1067" 
d="M303 -33q-137 0 -201.5 99.5t-35.5 273.5l106 637h244l-97 -574q-16 -102 15 -159.5t108 -57.5q150 0 252 181l101 610h243l-161 -977h-244l26 160q-133 -193 -356 -193zM1034 1571l-334 -443h-168l256 443h246z" />
    <glyph glyph-name="ucircumflex" unicode="&#xfb;" horiz-adv-x="1067" 
d="M303 -33q-137 0 -201.5 99.5t-35.5 273.5l106 637h244l-97 -574q-16 -102 15 -159.5t108 -57.5q150 0 252 181l101 610h243l-161 -977h-244l26 160q-133 -193 -356 -193zM690 1405l-225 -277h-172l323 451h205l176 -451h-172z" />
    <glyph glyph-name="udieresis" unicode="&#xfc;" horiz-adv-x="1067" 
d="M303 -33q-137 0 -201.5 99.5t-35.5 273.5l106 637h244l-97 -574q-16 -102 15 -159.5t108 -57.5q150 1 252 181l101 610h243l-161 -977h-244l26 160q-133 -193 -356 -193zM929.5 1513q59.5 0 93.5 -41.5t23.5 -101t-58.5 -99.5t-106 -40t-92 41t-25 99t57 100t107.5 42z
M440.5 1231q-59.5 0 -93.5 41t-24.5 99t57.5 100t107.5 42t92 -41.5t23.5 -100t-56 -99.5t-106.5 -41z" />
    <glyph glyph-name="yacute" unicode="&#xfd;" horiz-adv-x="1021" 
d="M834 977h258l-828 -1483h-254l289 490l-207 993h254l115 -731zM999 1571l-333 -443h-168l256 443h245z" />
    <glyph glyph-name="thorn" unicode="&#xfe;" horiz-adv-x="1153" 
d="M537 186q137 0 232 111t95 247t-58 189t-140 53q-184 0 -289 -170l-47 -292q27 -66 82 -102t125 -36zM782 1008q133 0 231.5 -96.5t98.5 -286.5q0 -293 -155.5 -475.5t-395.5 -182.5q-184 0 -268 137l-103 -608h-243l340 2032h243l-112 -676q133 156 364 156z" />
    <glyph glyph-name="ydieresis" unicode="&#xff;" horiz-adv-x="1021" 
d="M834 977h258l-828 -1483h-254l289 490l-207 993h254l115 -731zM847 1231q-58 0 -92 41t-25 99t57.5 100t107.5 42t93 -41.5t23.5 -101t-58.5 -99.5t-106 -40zM405.5 1231q-59.5 0 -93 41t-24.5 99t57 100t107.5 42t92.5 -41.5t23.5 -100t-56.5 -99.5t-106.5 -41z" />
    <glyph glyph-name="Amacron" unicode="&#x100;" horiz-adv-x="1267" 
d="M449 545h366l-84 626zM631 1425h297l227 -1425h-266l-45 338h-490l-151 -338h-256zM506 1882h706l-32 -203h-709z" />
    <glyph glyph-name="amacron" unicode="&#x101;" horiz-adv-x="1134" 
d="M487 190q178 0 285 170l43 275q-55 156 -209 156q-127 0 -221 -105.5t-94 -267.5q0 -106 53 -167t143 -61zM379 -33q-150 0 -243 100.5t-93 286.5q0 299 155.5 476.5t383.5 177.5q88 0 161.5 -42t114.5 -110l31 121h227l-162 -977h-229l12 127q-143 -160 -358 -160z
M1102 1462l-33 -202h-709l35 202h707z" />
    <glyph glyph-name="Abreve" unicode="&#x102;" horiz-adv-x="1267" 
d="M449 545h366l-84 626zM631 1425h297l227 -1425h-266l-45 338h-490l-151 -338h-256zM810 1587q-183 0 -260 106.5t-30 313.5h191q-51 -258 125 -258t208 258h193q-25 -207 -134.5 -313.5t-292.5 -106.5z" />
    <glyph glyph-name="abreve" unicode="&#x103;" horiz-adv-x="1134" 
d="M487 190q178 0 285 170l43 275q-55 156 -209 156q-127 0 -221 -105.5t-94 -267.5q0 -106 53 -167t143 -61zM379 -33q-150 0 -243 100.5t-93 286.5q0 299 155.5 476.5t383.5 177.5q88 0 161.5 -42t114.5 -110l31 121h227l-162 -977h-229l12 127q-143 -160 -358 -160z
M710 1157q-183 0 -260 106.5t-30 313.5h190q-49 -258 126 -258t208 258h193q-23 -207 -133.5 -313.5t-293.5 -106.5z" />
    <glyph glyph-name="Aogonek" unicode="&#x104;" horiz-adv-x="1267" 
d="M449 545h366l-84 626zM915.5 -422q79.5 0 167.5 53l13 -163q-139 -70 -261 -70q-225 0 -225 178q0 254 346 424h-67l-45 338h-490l-151 -338h-256l684 1425h297l227 -1425q-319 -164 -319 -340q0 -82 79.5 -82z" />
    <glyph glyph-name="aogonek" unicode="&#x105;" horiz-adv-x="1134" 
d="M487 190q178 0 285 170l43 275q-55 156 -209 156q-127 0 -221 -105.5t-94 -267.5q0 -106 53 -167t143 -61zM700 -391q74 0 170 49l13 -164q-139 -66 -266.5 -65.5t-178.5 56.5t-41 146q18 219 330 383l10 113q-143 -160 -358 -160q-150 0 -243 100.5t-93 286.5
q0 299 155.5 476.5t383.5 177.5q88 0 161.5 -42t114.5 -110l31 121h227l-162 -977h-53q-272 -154 -283 -305q-4 -86 82 -86z" />
    <glyph glyph-name="Cacute" unicode="&#x106;" horiz-adv-x="1304" 
d="M684.5 -33q-133.5 0 -232 33t-183.5 103.5t-133 196.5t-48 323.5t96.5 391t293 317.5t474 124t451.5 -156l-154 -217q-129 129 -338 129q-242 0 -396.5 -173t-154.5 -427q0 -205 101.5 -301t241 -96t256 44t196.5 116l59 -238q-94 -76 -245 -123t-284.5 -47zM1399 1999
l-414 -424h-194l339 424h269z" />
    <glyph glyph-name="cacute" unicode="&#x107;" horiz-adv-x="897" 
d="M422 -33q-164 0 -271.5 96.5t-107.5 309.5q0 281 172 458t420 177q180 0 311 -115l-137 -176q-84 76 -202 76t-217 -105.5t-99 -271.5q0 -113 57.5 -169.5t147.5 -56.5q166 0 276 99l45 -199q-154 -123 -395 -123zM1032 1571l-334 -443h-168l256 443h246z" />
    <glyph glyph-name="Cdotaccent" unicode="&#x10a;" horiz-adv-x="1304" 
d="M684.5 -33q-133.5 0 -232 33t-183.5 103.5t-133 196.5t-48 323.5t96.5 391t293 317.5t474 124t451.5 -156l-154 -217q-129 129 -338 129q-242 0 -396.5 -173t-154.5 -427q0 -205 101.5 -301t241 -96t256 44t196.5 116l59 -238q-94 -76 -245 -123t-284.5 -47zM959 1901
q60 0 95.5 -43t26 -103.5t-59.5 -103.5t-110.5 -43t-95 43t-25.5 103t59 103.5t110 43.5z" />
    <glyph glyph-name="cdotaccent" unicode="&#x10b;" horiz-adv-x="897" 
d="M422 -33q-164 0 -271.5 96.5t-107.5 309.5q0 281 172 458t420 177q180 0 311 -115l-137 -176q-84 76 -202 76t-217 -105.5t-99 -271.5q0 -113 57.5 -169.5t147.5 -56.5q166 0 276 99l45 -199q-154 -123 -395 -123zM702.5 1460q61.5 0 98.5 -44t26.5 -105.5t-60.5 -105.5
t-113.5 -44t-98.5 44.5t-25 105.5q8 61 59.5 105t113 44z" />
    <glyph glyph-name="Ccaron" unicode="&#x10c;" horiz-adv-x="1304" 
d="M911 1212q-242 0 -396.5 -173t-154.5 -427q0 -205 102 -301q100 -96 240 -96t256.5 44t196.5 116l59 -238q-94 -76 -245.5 -123t-284.5 -47t-231.5 33t-183.5 103.5t-133 196.5t-48 324t96.5 391t293 317t474.5 124t451 -156l-154 -217q-129 129 -338 129zM1004 1577
h-205l-174 453h172l133 -277l227 277h172z" />
    <glyph glyph-name="ccaron" unicode="&#x10d;" horiz-adv-x="897" 
d="M606.5 793q-117.5 0 -216.5 -105.5t-99 -271.5q0 -113 57.5 -169.5t147.5 -56.5q166 0 276 99l45 -199q-154 -123 -395 -123q-164 0 -271.5 96.5t-107.5 309.5q0 281 172 458t420 177q180 0 311 -115l-137 -176q-85 76 -202.5 76zM739 1128h-204l-175 451h172l134 -276
l227 276h172z" />
    <glyph glyph-name="Dcaron" unicode="&#x10e;" horiz-adv-x="1404" 
d="M522 233q295 1 465 205q127 153 127 404q0 356 -389 356h-203l-160 -965h160zM770 1425q293 0 454.5 -137t161.5 -420q0 -208 -70 -376q-68 -168 -188 -274q-247 -218 -602 -218h-458l235 1425h467zM969 1577h-205l-174 453h172l133 -277l227 277h172z" />
    <glyph glyph-name="dcaron" unicode="&#x10f;" horiz-adv-x="1142" 
d="M487 186q178 0 285 172l47 293q-55 143 -196.5 143.5t-235.5 -107t-94 -275.5q0 -104 52 -165t142 -61zM381 -33q-154 0 -247 101.5t-93 289.5q0 291 156.5 470.5t382.5 179.5q184 0 274 -144l109 662h245l-252 -1524l-225 -2l8 125q-141 -158 -358 -158zM1300 1532h228
l-193 -617h-147z" />
    <glyph glyph-name="Dcroat" unicode="&#x110;" horiz-adv-x="1404" 
d="M522 233q295 1 465 205q127 153 127 404q0 356 -389 356h-203l-57 -346h334l-35 -209h-334l-68 -410h160zM770 1425q293 0 454.5 -137t161.5 -420q0 -208 -70 -376q-68 -168 -188 -274q-247 -218 -602 -218h-458l106 643h-102l34 209h103l94 573h467z" />
    <glyph glyph-name="dcroat" unicode="&#x111;" horiz-adv-x="1136" 
d="M487 186q178 0 285 172l47 293q-55 143 -196.5 143.5t-235.5 -107t-94 -275.5q0 -104 52 -165t142 -61zM381 -33q-154 0 -247 101.5t-93 289.5q0 291 156.5 470.5t382.5 179.5q184 0 274 -144l55 338h-399l35 209h399l19 115h245l-18 -115h100l-35 -209h-100l-199 -1200
l-225 -2l8 125q-141 -158 -358 -158z" />
    <glyph glyph-name="Emacron" unicode="&#x112;" horiz-adv-x="1124" 
d="M1200 1196h-678l-57 -350h526l-35 -207h-526l-68 -410h680l-38 -229h-934l233 1425h936zM1190 1882l-33 -203h-708l34 203h707z" />
    <glyph glyph-name="emacron" unicode="&#x113;" horiz-adv-x="1003" 
d="M586 821q-90 0 -167 -68.5t-112 -179.5h434q4 37 4 58q1 190 -159 190zM629 1008q156 0 247 -87t91 -274q0 -113 -23 -217h-661v-22q0 -229 231 -230q176 0 322 94l55 -188q-184 -117 -426 -117q-184 0 -304 95.5t-120 299.5q0 274 165 460t423 186zM301 1462h707
l-33 -202h-709z" />
    <glyph glyph-name="Edotaccent" unicode="&#x116;" horiz-adv-x="1124" 
d="M1200 1196h-678l-57 -350h526l-35 -207h-526l-68 -410h680l-38 -229h-934l233 1425h936zM790 1608q-60 0 -95.5 43t-26 103t59.5 103.5t110.5 43.5t95.5 -43t25.5 -103.5t-59.5 -103.5t-110 -43z" />
    <glyph glyph-name="edotaccent" unicode="&#x117;" horiz-adv-x="1003" 
d="M586 821q-90 0 -167 -68.5t-112 -179.5h434q4 37 4 58q1 190 -159 190zM283 430v-22q0 -229 231 -230q176 0 322 94l55 -188q-184 -117 -426 -117q-184 0 -304 95.5t-120 299.5q0 274 165 460t423 186q156 0 247 -87t91 -274q0 -113 -23 -217h-661zM622.5 1161
q-63.5 0 -98.5 44t-25.5 105.5t60.5 105.5t112.5 44t98.5 -44t26.5 -105.5t-60.5 -105.5t-113.5 -44z" />
    <glyph glyph-name="Eogonek" unicode="&#x118;" horiz-adv-x="1124" 
d="M764 -422q80 0 168 53l12 -163q-138 -70 -260 -70q-224 0 -225 178q0 254 346 424h-735l233 1425h936l-39 -229h-678l-57 -350h526l-35 -207h-526l-68 -410h680l-38 -229q-319 -164 -320 -340q0 -82 80 -82z" />
    <glyph glyph-name="eogonek" unicode="&#x119;" horiz-adv-x="1003" 
d="M586 821q-90 0 -167 -68.5t-112 -179.5h434q4 37 4 58q1 190 -159 190zM283 430v-22q0 -229 231 -230q176 0 322 94l55 -188q-182 -107 -268 -185.5t-86 -158.5t84 -80q76 0 167 49l13 -164q-135 -65 -260 -65q-228 1 -228 176.5t205 312.5q-16 -2 -53 -2
q-184 0 -304 95.5t-120 299.5q0 274 165 460t423 186q156 0 247 -87t91 -274q0 -113 -23 -217h-661z" />
    <glyph glyph-name="Ecaron" unicode="&#x11a;" horiz-adv-x="1124" 
d="M1200 1196h-678l-57 -350h526l-35 -207h-526l-68 -410h680l-38 -229h-934l233 1425h936zM883 1577h-205l-174 453h172l133 -277l227 277h172z" />
    <glyph glyph-name="ecaron" unicode="&#x11b;" horiz-adv-x="1003" 
d="M586 821q-90 0 -167 -68.5t-112 -179.5h434q4 37 4 58q1 190 -159 190zM629 1008q156 0 247 -87t91 -274q0 -113 -23 -217h-661v-22q0 -229 231 -230q176 0 322 94l55 -188q-184 -117 -426 -117q-184 0 -304 95.5t-120 299.5q0 274 165 460t423 186zM709 1128h-205
l-174 451h172l133 -276l227 276h172z" />
    <glyph glyph-name="Gbreve" unicode="&#x11e;" horiz-adv-x="1425" 
d="M90 588q0 369 236.5 618.5t611.5 249.5q135 0 265 -44t216 -124l-174 -198q-145 127 -336 127q-244 0 -395.5 -177.5t-151.5 -435.5q0 -203 105.5 -296t265.5 -93t285 43l57 346h-342l33 203h598l-123 -754q-259 -86 -525 -86q-266 1 -438 133q-88 68 -138 193t-50 295z
M908 1587q-183 0 -260 106.5t-30 313.5h191q-51 -258 125 -258t209 258h192q-25 -207 -134.5 -313.5t-292.5 -106.5z" />
    <glyph glyph-name="gbreve" unicode="&#x11f;" horiz-adv-x="1138" 
d="M489 190q178 0 291 164l47 275q-55 162 -225 162q-129 0 -223 -106.5t-94 -268.5q0 -106 56 -166t148 -60zM387 -537q-256 0 -416 140l84 207q137 -133 326 -134q285 0 340 330l18 111q-135 -150 -348 -150q-160 0 -255 102.5t-95 295.5q0 293 155.5 468t369 175
t308.5 -156l41 125h209l-161 -981q-54 -308 -209 -420.5t-367 -112.5zM687 1155q-183 0 -260 106.5t-30 313.5h191q-51 -258 125 -258t209 258h192q-23 -207 -133.5 -313.5t-293.5 -106.5z" />
    <glyph glyph-name="Gdotaccent" unicode="&#x120;" horiz-adv-x="1425" 
d="M90 588q0 369 236.5 618.5t611.5 249.5q135 0 265 -44t216 -124l-174 -198q-145 127 -336 127q-244 0 -395.5 -177.5t-151.5 -435.5q0 -203 105.5 -296t265.5 -93t285 43l57 346h-342l33 203h598l-123 -754q-259 -86 -525 -86q-266 1 -438 133q-88 68 -138 193t-50 295z
M910 1608q-60 0 -95 43t-25.5 103t59.5 103.5t110 43.5t95.5 -43t26 -103.5t-60 -103.5t-110.5 -43z" />
    <glyph glyph-name="gdotaccent" unicode="&#x121;" horiz-adv-x="1138" 
d="M489 190q178 0 291 164l47 275q-55 162 -225 162q-129 0 -223 -106.5t-94 -268.5q0 -106 56 -166t148 -60zM387 -537q-256 0 -416 140l84 207q137 -133 326 -134q285 0 340 330l18 111q-135 -150 -348 -150q-160 0 -255 102.5t-95 295.5q0 293 155.5 468t369 175
t308.5 -156l41 125h209l-161 -981q-54 -308 -209 -421q-155 -112 -367 -112zM694.5 1159q-63.5 0 -98.5 44t-26 105.5t60.5 105.5t113 44t98.5 -44t26.5 -105.5t-60.5 -105.5t-113.5 -44z" />
    <glyph glyph-name="Gcommaaccent" unicode="&#x122;" horiz-adv-x="1425" 
d="M658.5 -106q72.5 0 110.5 -60.5t22 -163.5q-45 -252 -318 -366l-63 121q160 66 213 174q-10 -2 -29 -2q-59 0 -94 38.5t-24 106.5t60.5 110t122 42zM90 588q0 369 236.5 618.5t611.5 249.5q135 0 265 -44t216 -124l-174 -198q-145 127 -336 127q-244 0 -395.5 -177.5
t-151.5 -435.5q0 -203 105.5 -296t265.5 -93t285 43l57 346h-342l33 203h598l-123 -754q-259 -86 -525 -86q-266 1 -438 133q-88 68 -138 193t-50 295z" />
    <glyph glyph-name="gcommaaccent" unicode="&#x123;" horiz-adv-x="1138" 
d="M489 190q178 0 291 164l47 275q-55 162 -225 162q-129 0 -223 -106.5t-94 -268.5q0 -106 56 -166t148 -60zM387 -537q-256 0 -416 140l84 207q137 -133 326 -134q285 0 340 330l18 111q-135 -150 -348 -150q-160 0 -255 102.5t-95 295.5q0 293 155.5 468t369 175
t308.5 -156l41 125h209l-161 -981q-54 -308 -209 -420.5t-367 -112.5zM677.5 1163q-73.5 0 -109.5 57.5t-17.5 169t100.5 210t215 143.5l60 -119q-170 -72 -219 -192q23 8 62.5 8t72 -33t21.5 -99.5t-61.5 -105.5t-124 -39z" />
    <glyph glyph-name="Hbar" unicode="&#x126;" horiz-adv-x="1411" 
d="M1051 739l43 260h-605l-43 -260h605zM1479 1196l-35 -197h-96l-166 -999h-254l86 518h-604l-86 -518h-256l165 999h-96l33 197h94l39 229h256l-39 -229h604l39 229h254l-39 -229h101z" />
    <glyph glyph-name="hbar" unicode="&#x127;" horiz-adv-x="1081" 
d="M760 1008q143 0 209.5 -97.5t38.5 -267.5l-107 -645h-244l97 577q37 213 -131 213q-156 0 -254 -180l-101 -608l-243 4l192 1178h-96l35 209h96l22 137h244l-22 -137h405l-35 -209h-405l-62 -379q130 205 361 205z" />
    <glyph glyph-name="Imacron" unicode="&#x12a;" horiz-adv-x="552" 
d="M557 1425l-233 -1425h-256l235 1425h254zM125 1679l35 203h706l-32 -203h-709z" />
    <glyph glyph-name="imacron" unicode="&#x12b;" horiz-adv-x="491" 
d="M449 977l-164 -977h-242l162 977h244zM43 1462h707l-33 -202h-709z" />
    <glyph glyph-name="Iogonek" unicode="&#x12e;" horiz-adv-x="552" 
d="M84 -422q80 0 168 53l12 -163q-138 -70 -260 -70q-224 0 -225 178q0 254 346 424h-57l235 1425h254l-233 -1425q-319 -164 -320 -340q0 -82 80 -82z" />
    <glyph glyph-name="iogonek" unicode="&#x12f;" horiz-adv-x="491" 
d="M47 -412q76 0 170 50l12 -164q-139 -66 -266 -66t-178 56.5t-41 146.5q18 225 340 389h-41l162 977h244l-164 -977q-309 -166 -320 -326q-4 -86 82 -86zM413.5 1460q61.5 0 98.5 -44t26.5 -105.5t-60.5 -105.5t-113.5 -44t-98.5 44t-25.5 105.5t60.5 105.5t112.5 44z" />
    <glyph glyph-name="Idotaccent" unicode="&#x130;" horiz-adv-x="552" 
d="M557 1425l-233 -1425h-256l235 1425h254zM515 1901q60 0 95 -43t26 -103.5t-59.5 -103.5t-110.5 -43t-95 43t-26 103t59.5 103.5t110.5 43.5z" />
    <glyph glyph-name="dotlessi" unicode="&#x131;" horiz-adv-x="491" 
d="M449 977l-164 -977h-242l162 977h244z" />
    <glyph glyph-name="Kcommaaccent" unicode="&#x136;" horiz-adv-x="1255" 
d="M546.5 -106q72.5 0 110 -60.5t21.5 -163.5q-45 -252 -318 -366l-63 121q160 66 213 174q-10 -2 -29 -2q-59 0 -94 38.5t-23.5 106.5t61 110t122 42zM1370 1425l-522 -528l280 -897h-297l-204 674l-230 -234l-73 -440h-256l235 1425h256l-104 -630l614 630h301z" />
    <glyph glyph-name="kcommaaccent" unicode="&#x137;" horiz-adv-x="999" 
d="M406.5 -106q72.5 0 110.5 -60.5t22 -163.5q-45 -252 -318 -366l-63 121q160 66 213 174q-10 -2 -29 -2q-59 0 -94 38.5t-24 106.5t60.5 110t122 42zM1038 977l-360 -359l213 -618h-264l-142 430l-178 -178l-41 -252h-243l251 1528h244l-166 -1010l400 459h286z" />
    <glyph glyph-name="Lacute" unicode="&#x139;" horiz-adv-x="987" 
d="M559 1425l-199 -1194h568l-39 -231h-823l237 1425h256zM958 1999l-413 -424h-195l340 424h268z" />
    <glyph glyph-name="lacute" unicode="&#x13a;" horiz-adv-x="454" 
d="M516 1528l-248 -1528h-241l247 1528h242zM911 2101l-413 -424h-195l340 424h268z" />
    <glyph glyph-name="Lcommaaccent" unicode="&#x13b;" horiz-adv-x="987" 
d="M480.5 -106q72.5 0 110.5 -60.5t21 -163.5q-45 -252 -317 -366l-64 121q160 66 213 174q-10 -2 -28 -2q-59 0 -94 38.5t-24 106.5t60.5 110t122 42zM360 231h568l-39 -231h-823l237 1425h256z" />
    <glyph glyph-name="lcommaaccent" unicode="&#x13c;" horiz-adv-x="454" 
d="M136.5 -106q72.5 0 110.5 -60.5t21 -163.5q-45 -252 -317 -366l-64 121q160 66 213 174q-10 -2 -28 -2q-59 0 -94 38.5t-24 106.5t60.5 110t122 42zM516 1528l-248 -1528h-241l247 1528h242z" />
    <glyph glyph-name="Lcaron" unicode="&#x13d;" horiz-adv-x="987" 
d="M360 231h568l-39 -231h-823l237 1425h256zM563 1577h-205l-174 453h172l133 -277l228 277h172z" />
    <glyph glyph-name="lcaron" unicode="&#x13e;" horiz-adv-x="634" 
d="M516 1528l-248 -1528h-241l247 1528h242zM852 1532l-193 -617h-147l113 617h227z" />
    <glyph glyph-name="Lslash" unicode="&#x141;" horiz-adv-x="987" 
d="M360 231h568l-39 -231h-823l100 598l-221 -84l-62 197l322 123l98 591h256l-82 -489l215 82l74 -195l-328 -123z" />
    <glyph glyph-name="lslash" unicode="&#x142;" horiz-adv-x="776" 
d="M893 913l-352 -133l-127 -780h-242l111 684l-211 -80l-62 197l312 119l98 608h242l-82 -512l239 92z" />
    <glyph glyph-name="Nacute" unicode="&#x143;" horiz-adv-x="1378" 
d="M1155 1425h231l-237 -1425h-242l-442 985l-162 -985h-235l235 1425h240l446 -999zM1366 1999l-414 -424h-194l340 424h268z" />
    <glyph glyph-name="nacute" unicode="&#x144;" horiz-adv-x="1087" 
d="M768 1008q143 0 208.5 -97.5t37.5 -267.5l-105 -645h-245l96 577q37 213 -133 213q-154 0 -252 -182l-103 -606h-243l164 977h243l-30 -176q135 207 362 207zM1042 1571l-333 -443h-168l256 443h245z" />
    <glyph glyph-name="Ncommaaccent" unicode="&#x145;" horiz-adv-x="1378" 
d="M599.5 -106q72.5 0 110.5 -60.5t21 -163.5q-45 -252 -317 -366l-64 121q160 66 213 174q-10 -2 -28 -2q-59 0 -94 38.5t-24 106.5t60.5 110t122 42zM1155 1425h231l-237 -1425h-242l-442 985l-162 -985h-235l235 1425h240l446 -999z" />
    <glyph glyph-name="ncommaaccent" unicode="&#x146;" horiz-adv-x="1087" 
d="M453.5 -106q72.5 0 110.5 -60.5t22 -163.5q-45 -252 -318 -366l-63 121q160 66 213 174q-10 -2 -29 -2q-59 0 -94 38.5t-24 106.5t60.5 110t122 42zM768 1008q143 0 208.5 -97.5t37.5 -267.5l-105 -645h-245l96 577q37 213 -133 213q-154 0 -252 -182l-103 -606h-243
l164 977h243l-30 -176q135 207 362 207z" />
    <glyph glyph-name="Ncaron" unicode="&#x147;" horiz-adv-x="1378" 
d="M1155 1425h231l-237 -1425h-242l-442 985l-162 -985h-235l235 1425h240l446 -999zM971 1577h-205l-174 453h172l133 -277l227 277h172z" />
    <glyph glyph-name="ncaron" unicode="&#x148;" horiz-adv-x="1087" 
d="M768 1008q143 0 208.5 -97.5t37.5 -267.5l-105 -645h-245l96 577q37 213 -133 213q-154 0 -252 -182l-103 -606h-243l164 977h243l-30 -176q135 207 362 207zM750 1128h-205l-174 451h172l133 -276l227 276h172z" />
    <glyph glyph-name="Eng" unicode="&#x14a;" horiz-adv-x="1368" 
d="M687 -457q-183 0 -325 109l91 194q90 -86 219 -86q193 0 241 226l-448 999l-162 -985h-235l235 1425h240l446 -997l166 997h231l-227 -1353q-45 -293 -167 -411t-305 -118z" />
    <glyph glyph-name="eng" unicode="&#x14b;" horiz-adv-x="1085" 
d="M768 1008q143 0 208.5 -97.5t37.5 -267.5l-117 -702q-35 -213 -151.5 -313.5t-327.5 -116.5l-33 204q229 6 268 230l107 630q37 213 -133 213q-154 0 -252 -182l-103 -606h-243l164 977h243l-30 -176q135 207 362 207z" />
    <glyph glyph-name="Omacron" unicode="&#x14c;" horiz-adv-x="1536" 
d="M707 215q238 0 393 185.5t155 422.5q0 190 -101 289.5t-259 99.5q-227 0 -382 -178t-155 -420q0 -201 96.5 -300t252.5 -99zM668 -33q-246 0 -414 152.5t-168 458.5q0 369 238.5 623.5t611.5 256.5q229 0 401 -138q86 -69 137.5 -190.5t51.5 -287.5t-59.5 -325
t-167 -281.5t-272 -195.5t-359.5 -73zM616 1679l35 203h707l-33 -203h-709z" />
    <glyph glyph-name="omacron" unicode="&#x14d;" horiz-adv-x="1099" 
d="M485 193q127 -4 223 96q96 99 104.5 239t-49.5 199t-147 61q-131 4 -230 -99t-101 -255q-4 -119 51 -179t149 -62zM461 -33q-184 0 -301 101.5t-117 312.5q0 262 171 444.5t439 182.5q172 0 287 -101.5t115 -312.5q0 -279 -171 -453t-423 -174zM365 1462h706l-33 -202
h-708z" />
    <glyph glyph-name="Ohungarumlaut" unicode="&#x150;" horiz-adv-x="1536" 
d="M707 215q238 0 393 185.5t155 422.5q0 190 -101 289.5t-259 99.5q-227 0 -382 -178t-155 -420q0 -201 96.5 -300t252.5 -99zM668 -33q-246 0 -414 152.5t-168 458.5q0 369 238.5 623.5t611.5 256.5q229 0 401 -138q86 -69 137.5 -190.5t51.5 -287.5t-59.5 -325
t-167 -281.5t-272 -195.5t-359.5 -73zM1577 2015l-410 -440h-170l334 440h246zM1137 2015l-283 -440h-152l195 440h240z" />
    <glyph glyph-name="ohungarumlaut" unicode="&#x151;" horiz-adv-x="1099" 
d="M485 193q127 -4 223 96q96 99 104.5 239t-49.5 199t-147 61q-131 4 -230 -99t-101 -255q-4 -119 51 -179t149 -62zM461 -33q-184 0 -301 101.5t-117 312.5q0 262 171 444.5t439 182.5q172 0 287 -101.5t115 -312.5q0 -279 -171 -453t-423 -174zM1278 1571l-410 -443h-170
l332 443h248zM864 1571l-280 -443h-152l195 443h237z" />
    <glyph glyph-name="OE" unicode="&#x152;" horiz-adv-x="2084" 
d="M705 215q225 0 385 143l116 713q-100 141 -314 141t-374 -180t-160 -424q0 -197 96.5 -295t250.5 -98zM86 578q0 369 239.5 623.5t610.5 254.5q182 0 319 -86l11 55h934l-37 -229h-678l-58 -350h531l-33 -207h-532l-70 -410h680l-39 -229h-934l6 43q-168 -76 -389 -76
q-221 -1 -383 141q-82 72 -130 192t-48 278z" />
    <glyph glyph-name="oe" unicode="&#x153;" horiz-adv-x="1759" 
d="M708.5 289q96.5 100 104.5 239.5t-50 198.5t-147 61q-131 4 -230 -99t-101 -255q-4 -119 51 -179t149 -62q127 -4 223.5 96zM1343 821q-92 0 -168.5 -69.5t-111.5 -184.5h436q4 41 4 64q0 190 -160 190zM1040 408q0 -229 230 -230q178 0 323 94l54 -188
q-182 -117 -431 -117t-346 176q-164 -176 -409 -176q-184 0 -301 101.5t-117 312.5q0 262 171 444.5t439 182.5q238 0 332 -185q158 184 399 185q158 0 249 -87t91 -274q1 -90 -24 -205h-658q-2 -12 -2 -34z" />
    <glyph glyph-name="Racute" unicode="&#x154;" horiz-adv-x="1280" 
d="M702 774q141 0 223.5 68.5t82.5 185.5q0 84 -53.5 126t-143.5 42h-291l-69 -422h251zM1282 1077q0 -178 -102.5 -304t-274.5 -177l250 -596h-301l-213 569h-225l-94 -569h-256l237 1425h578q401 0 401 -348zM1339 1999l-413 -424h-195l340 424h268z" />
    <glyph glyph-name="racute" unicode="&#x155;" horiz-adv-x="698" 
d="M684 995q49 0 78 -8l-41 -223q-33 6 -68 6q-111 0 -182.5 -74.5t-120.5 -232.5l-78 -463h-243l164 977h235l-29 -215q104 233 285 233zM903 1571l-334 -443h-168l256 443h246z" />
    <glyph glyph-name="Rcommaaccent" unicode="&#x156;" horiz-adv-x="1280" 
d="M570.5 -106q72.5 0 110.5 -60.5t21 -163.5q-45 -252 -317 -366l-63 121q160 66 213 174q-10 -2 -29 -2q-59 0 -94 38.5t-24 106.5t60.5 110t122 42zM702 774q141 0 223.5 68.5t82.5 185.5q0 84 -53.5 126t-143.5 42h-291l-69 -422h251zM1282 1077q0 -178 -102.5 -304
t-274.5 -177l250 -596h-301l-213 569h-225l-94 -569h-256l237 1425h578q401 0 401 -348z" />
    <glyph glyph-name="rcommaaccent" unicode="&#x157;" horiz-adv-x="698" 
d="M142.5 -106q72.5 0 110.5 -60.5t21 -163.5q-45 -252 -317 -366l-63 121q160 66 212 174q-10 -2 -28 -2q-59 0 -94 38.5t-24 106.5t60.5 110t122 42zM684 995q49 0 78 -8l-41 -223q-33 6 -68 6q-111 0 -182.5 -74.5t-120.5 -232.5l-78 -463h-243l164 977h235l-29 -215
q105 233 285 233z" />
    <glyph glyph-name="Rcaron" unicode="&#x158;" horiz-adv-x="1280" 
d="M702 774q141 0 223.5 68.5t82.5 185.5q0 84 -53.5 126t-143.5 42h-291l-69 -422h251zM1282 1077q0 -178 -102.5 -304t-274.5 -177l250 -596h-301l-213 569h-225l-94 -569h-256l237 1425h578q401 0 401 -348zM944 1577h-205l-174 453h172l133 -277l228 277h172z" />
    <glyph glyph-name="rcaron" unicode="&#x159;" horiz-adv-x="698" 
d="M684 995q49 0 78 -8l-41 -223q-33 6 -68 6q-111 0 -182.5 -74.5t-120.5 -232.5l-78 -463h-243l164 977h235l-29 -215q104 233 285 233zM610 1128h-204l-175 451h172l134 -276l227 276h172z" />
    <glyph glyph-name="Sacute" unicode="&#x15a;" horiz-adv-x="1081" 
d="M471 -33q-276 0 -477 166l104 242q147 -170 377 -170q115 0 186.5 56t71.5 142t-57 128t-192.5 96.5t-222.5 146.5t-87 267t131 295t378 120t447 -129l-145 -213q-143 109 -315 109q-104 0 -167 -46.5t-63 -123t45 -118.5t139 -80q95 -37 142 -63q48 -26 110 -75
q122 -95 121.5 -298.5t-150 -327.5t-376.5 -124zM1227 1999l-414 -424h-195l340 424h269z" />
    <glyph glyph-name="sacute" unicode="&#x15b;" horiz-adv-x="786" 
d="M481 263q0 46 -23.5 71.5t-47 36t-74.5 28.5q-258 82 -258 291q0 143 100.5 230.5t280.5 87.5t334 -80l-103 -174q-102 68 -242 67.5t-141 -104.5q0 -82 133 -126t203 -108.5t70 -202t-115 -225.5t-310.5 -88t-326.5 94l82 183q109 -88 264 -88q78 0 126 30.5t48 76.5z
M874 1571l-333 -443h-168l256 443h245z" />
    <glyph glyph-name="Scedilla" unicode="&#x15e;" horiz-adv-x="1081" 
d="M748 -291q0 -141 -93.5 -215t-247 -74t-237.5 68l70 137q20 -23 69 -43t115 -20t107.5 32.5t41.5 90.5q0 72 -71 71q-68 0 -119 -47l-113 43l125 219q-229 20 -401 162l104 242q147 -170 377 -170q115 0 186.5 56t71.5 142t-56.5 128.5t-192.5 96.5t-223 146t-87 267
t131 295t378 120t447 -129l-145 -213q-143 109 -315 109q-104 0 -167 -46.5t-63 -123t45.5 -118.5t139.5 -80q94 -37 141 -63q48 -26 110 -75q122 -95 121.5 -290.5t-129.5 -317t-329 -140.5l-72 -112q55 23 123 22.5t113 -43.5t45 -127z" />
    <glyph glyph-name="scedilla" unicode="&#x15f;" horiz-adv-x="786" 
d="M713 292q0 -126 -87 -211t-231 -108l-92 -145q55 18 103 18q172 0 172 -172q0 -129 -93.5 -201.5t-239 -72.5t-249.5 63l70 131q86 -53 168 -53t123.5 34t41.5 91q0 66 -71 66q-61 0 -105 -43l-114 43l131 237q-162 12 -279 92l82 183q109 -88 264 -88q78 0 126 30.5
t48 76.5t-23.5 71.5t-47 36t-74.5 28.5q-258 82 -258 291q0 143 100.5 230.5t280.5 87.5t334 -80l-103 -174q-102 68 -242 67.5t-141 -104.5q0 -82 133 -126t203 -108.5t70 -190.5z" />
    <glyph glyph-name="Scaron" unicode="&#x160;" horiz-adv-x="1081" 
d="M670 1223q-104 0 -167 -46.5t-63 -123t45 -118.5t139 -80q95 -37 142 -63q48 -26 110 -75q122 -95 121.5 -298.5t-150 -327.5t-376.5 -124q-276 0 -477 166l104 242q147 -170 377 -170q115 0 186.5 56t71.5 142t-57 128t-192.5 96.5t-222.5 146.5t-87 267t131 295
t378 120t447 -129l-145 -213q-143 109 -315 109zM831 1577h-204l-174 453h172l133 -277l227 277h172z" />
    <glyph glyph-name="scaron" unicode="&#x161;" horiz-adv-x="786" 
d="M448 821q-140 0 -141 -104q0 -82 133 -126t203 -108.5t70 -202t-115 -225.5t-310.5 -88t-326.5 94l82 183q109 -88 264 -88q78 0 126 30.5t48 76.5t-23.5 71.5t-47 36t-74.5 28.5q-258 82 -258 291q0 143 100.5 230.5t280.5 87.5t334 -80l-103 -174q-102 67 -242 67z
M582 1128h-205l-174 451h172l133 -276l227 276h172z" />
    <glyph glyph-name="uni0162" unicode="&#x162;" horiz-adv-x="1058" 
d="M705 -291q0 -141 -93.5 -215t-247 -74t-237.5 68l70 137q20 -23 69 -43t115 -20t107.5 32.5t41.5 90.5q0 72 -71 71q-68 0 -119 -47l-113 43l142 248h-45l198 1194h-377l37 231h1010l-39 -231h-377l-196 -1194h-66l-90 -143q57 23 124 22.5t112 -43.5t45 -127z" />
    <glyph glyph-name="uni0163" unicode="&#x163;" horiz-adv-x="692" 
d="M473 182q90 0 180 58l9 -201q-90 -51 -187 -64l-92 -147q55 18 102 18q172 0 172 -172q0 -129 -93 -201.5t-238.5 -72.5t-249.5 63l69 131q86 -53 168.5 -53t124 34t41.5 91q0 66 -71 66q-61 0 -105 -43l-115 43l131 239q-248 31 -192 359l74 442h-115l31 205h116l52 303
h243l-51 -303h262l-32 -205h-263l-69 -416q-29 -174 98 -174z" />
    <glyph glyph-name="Tcaron" unicode="&#x164;" horiz-adv-x="1058" 
d="M1192 1425l-39 -231h-377l-196 -1194h-256l198 1194h-377l37 231h1010zM813 1577h-205l-174 453h172l133 -277l228 277h172z" />
    <glyph glyph-name="tcaron" unicode="&#x165;" horiz-adv-x="737" 
d="M473 182q90 0 180 58l9 -201q-124 -72 -278 -72q-317 0 -257 363l74 442h-115l31 205h116l52 303h243l-51 -303h262l-32 -205h-263l-69 -416q-29 -174 98 -174zM930 1677l-193 -616h-147l112 616h228z" />
    <glyph glyph-name="Tbar" unicode="&#x166;" horiz-adv-x="1075" 
d="M1153 1194h-377l-76 -459h254l-34 -209h-254l-86 -526h-256l88 526h-238l35 209h237l76 459h-377l37 231h1010z" />
    <glyph glyph-name="tbar" unicode="&#x167;" horiz-adv-x="733" 
d="M473 182q90 0 180 58l9 -201q-124 -72 -278 -72q-317 0 -257 363l27 159h-109l23 144h110l31 192h-119l27 152h116l52 303h243l-51 -303h262l-26 -152h-260l-33 -192h268l-22 -144h-269l-22 -133q-29 -174 98 -174z" />
    <glyph glyph-name="Umacron" unicode="&#x16a;" horiz-adv-x="1366" 
d="M604 -33q-272 0 -386 178.5t-66 458.5l135 821h254l-140 -845q-27 -166 27 -270t202 -103.5t242.5 97.5t124.5 276l142 845h254l-140 -831q-102 -627 -649 -627zM530 1679l35 203h707l-33 -203h-709z" />
    <glyph glyph-name="umacron" unicode="&#x16b;" horiz-adv-x="1067" 
d="M303 -33q-137 0 -201.5 99.5t-35.5 273.5l106 637h244l-97 -574q-16 -102 15 -159.5t108 -57.5q150 1 252 181l101 610h243l-161 -977h-244l26 160q-133 -193 -356 -193zM1040 1462l-32 -202h-709l35 202h706z" />
    <glyph glyph-name="Uring" unicode="&#x16e;" horiz-adv-x="1366" 
d="M604 -33q-272 0 -386 178.5t-66 458.5l135 821h254l-140 -845q-27 -166 27.5 -269.5t202 -103.5t242 97t124.5 276l142 845h254l-140 -831q-102 -627 -649 -627zM925.5 1939q-53.5 0 -91 -33.5t-47 -89.5t17 -89t80 -33t91.5 31.5t46 89t-17.5 91t-79 33.5zM948 2071
q121 0 180.5 -72t41 -184.5t-101.5 -183t-205 -70.5t-181 69.5t-40 185.5t102 185.5t204 69.5z" />
    <glyph glyph-name="uring" unicode="&#x16f;" horiz-adv-x="1067" 
d="M303 -33q-137 0 -201.5 99.5t-35.5 273.5l106 637h244l-97 -574q-16 -102 15 -159.5t108 -57.5q150 0 252 181l101 610h243l-161 -977h-244l26 160q-133 -193 -356 -193zM864 1452q0 107 -114 107q-58 0 -102 -47.5t-44 -106.5q0 -113 101 -113q63 0 111 44t48 116z
M704.5 1169q-120.5 0 -180 56.5t-59.5 146.5q0 133 90 220t208.5 87t178 -58t59.5 -167t-88 -197t-208.5 -88z" />
    <glyph glyph-name="Uhungarumlaut" unicode="&#x170;" horiz-adv-x="1366" 
d="M604 -33q-272 0 -386 178.5t-66 458.5l135 821h254l-140 -845q-27 -166 27 -270t202 -103.5t242.5 97.5t124.5 276l142 845h254l-140 -831q-102 -627 -649 -627zM1491 2015l-410 -440h-170l334 440h246zM1051 2015l-283 -440h-152l195 440h240z" />
    <glyph glyph-name="uhungarumlaut" unicode="&#x171;" horiz-adv-x="1067" 
d="M303 -33q-137 0 -201.5 99.5t-35.5 273.5l106 637h244l-97 -574q-16 -102 15 -159.5t108 -57.5q150 1 252 181l101 610h243l-161 -977h-244l26 160q-133 -193 -356 -193zM838 1128h-170l331 443h248zM834 1571l-281 -443h-152l195 443h238z" />
    <glyph glyph-name="Uogonek" unicode="&#x172;" horiz-adv-x="1366" 
d="M557 -322q0 -82 80 -81.5t168 53.5l12 -164q-139 -70 -260.5 -70t-173 48.5t-51.5 129.5q0 215 254 373q-262 8 -372 185.5t-62 451.5l135 821h254l-140 -845q-27 -166 27.5 -269.5t202 -103.5t242 97t124.5 276l142 845h254l-140 -831q-74 -451 -383 -580
q-313 -164 -313 -336z" />
    <glyph glyph-name="uogonek" unicode="&#x173;" horiz-adv-x="1067" 
d="M639 -412q74 0 170 50l12 -164q-139 -66 -266 -66t-178 56.5t-41 146.5q18 225 340 389h-43l26 160q-133 -193 -356 -193q-137 0 -201.5 99.5t-35.5 273.5l106 637h244l-97 -574q-16 -102 15 -159.5t108 -57.5q150 0 252 181l101 610h243l-161 -977q-309 -166 -320 -326
q-4 -86 82 -86z" />
    <glyph glyph-name="Wcircumflex" unicode="&#x174;" horiz-adv-x="1921" 
d="M1747 1425h262l-567 -1425h-297l-78 752q-6 63 -14 307q-72 -207 -111 -293l-358 -766h-297l-62 1425h273l8 -929q-4 -59 -8 -191q35 94 75 187l420 923h252l94 -893q8 -119 9 -213q51 150 65 197zM1212 1845l-227 -276h-172l326 450h204l175 -450h-172z" />
    <glyph glyph-name="wcircumflex" unicode="&#x175;" horiz-adv-x="1419" 
d="M1225 977h258l-465 -977h-225l-70 666l-303 -666h-240l-80 977h246l14 -746l318 736h194l70 -727zM864 1405l-225 -277h-172l324 451h204l176 -451h-172z" />
    <glyph glyph-name="Ycircumflex" unicode="&#x176;" horiz-adv-x="1189" 
d="M1323 1425l-594 -907l-86 -518h-254l86 524l-295 901h279l184 -661l401 661h279zM848 1845l-227 -276h-172l325 450h205l174 -450h-172z" />
    <glyph glyph-name="ycircumflex" unicode="&#x177;" horiz-adv-x="1021" 
d="M834 977h258l-828 -1483h-254l289 490l-207 993h254l115 -731zM655 1405l-225 -277h-172l324 451h204l177 -451h-172z" />
    <glyph glyph-name="Ydieresis" unicode="&#x178;" horiz-adv-x="1189" 
d="M1323 1425l-594 -907l-86 -518h-254l86 524l-295 901h279l184 -661l401 661h279zM988 1608q-60 0 -95 42t-24.5 101t58.5 101t108 42t95 -42t25 -101t-58.5 -101t-108.5 -42zM574 1608q-58 0 -93 42t-24.5 101t58.5 101t107.5 42t93.5 -42t23.5 -101t-59 -101t-106.5 -42
z" />
    <glyph glyph-name="Zacute" unicode="&#x179;" horiz-adv-x="1134" 
d="M172 1196l39 229h971l-35 -215l-797 -985l699 2l-39 -227h-1006l37 213l778 983h-647zM1249 1999l-413 -424h-195l340 424h268z" />
    <glyph glyph-name="zacute" unicode="&#x17a;" horiz-adv-x="821" 
d="M88 786l31 191h719l-31 -186l-528 -601h460l-30 -190h-736l33 188l518 598h-436zM909 1571l-334 -443h-167l256 443h245z" />
    <glyph glyph-name="Zdotaccent" unicode="&#x17b;" horiz-adv-x="1134" 
d="M1182 1425l-35 -215l-797 -985l699 2l-39 -227h-1006l37 213l778 983h-647l39 229h971zM761 1608q-60 0 -95 43t-26 103t59.5 103.5t110.5 43.5t95 -43t26 -103.5t-59.5 -103.5t-110.5 -43z" />
    <glyph glyph-name="zdotaccent" unicode="&#x17c;" horiz-adv-x="821" 
d="M838 977l-31 -186l-528 -601h460l-30 -190h-736l33 188l518 598h-436l31 191h719zM530.5 1161q-63.5 0 -98.5 44q-36 43 -26 105t61 106t112.5 44t98.5 -44t26.5 -105.5t-60.5 -105.5t-113.5 -44z" />
    <glyph glyph-name="Zcaron" unicode="&#x17d;" horiz-adv-x="1134" 
d="M1182 1425l-35 -215l-797 -985l699 2l-39 -227h-1006l37 213l778 983h-647l39 229h971zM854 1577h-205l-174 453h172l133 -277l228 277h172z" />
    <glyph glyph-name="zcaron" unicode="&#x17e;" horiz-adv-x="821" 
d="M88 786l31 191h719l-31 -186l-528 -601h460l-30 -190h-736l33 188l518 598h-436zM616 1128h-204l-174 451h172l133 -276l227 276h172z" />
    <glyph glyph-name="uni01CD" unicode="&#x1cd;" horiz-adv-x="1267" 
d="M449 545h366l-84 626zM631 1425h297l227 -1425h-266l-45 338h-490l-151 -338h-256zM905 1577h-205l-174 453h172l133 -277l228 277h172z" />
    <glyph glyph-name="uni01CE" unicode="&#x1ce;" horiz-adv-x="1134" 
d="M487 190q178 0 285 170l43 275q-55 156 -209 156q-127 0 -221 -105.5t-94 -267.5q0 -106 53 -167t143 -61zM379 -33q-150 0 -243 100.5t-93 286.5q0 299 155.5 476.5t383.5 177.5q88 0 161.5 -42t114.5 -110l31 121h227l-162 -977h-229l12 127q-143 -160 -358 -160z
M803 1128h-205l-174 451h172l133 -276l227 276h172z" />
    <glyph glyph-name="uni01CF" unicode="&#x1cf;" horiz-adv-x="552" 
d="M68 0l235 1425h254l-233 -1425h-256zM713 2030h172l-326 -453h-205l-174 453h172l133 -277z" />
    <glyph glyph-name="uni01D0" unicode="&#x1d0;" horiz-adv-x="491" 
d="M43 0l162 977h244l-164 -977h-242zM604 1579h172l-325 -451h-205l-174 451h172l133 -276z" />
    <glyph glyph-name="uni01D1" unicode="&#x1d1;" horiz-adv-x="1536" 
d="M707 215q238 0 393 185.5t155 422.5q0 190 -101 289.5t-259 99.5q-227 0 -382 -178t-155 -420q0 -201 96.5 -300t252.5 -99zM1526 842q0 -166 -59.5 -325t-167 -281.5t-272.5 -195.5t-359 -73q-246 0 -414 152.5t-168 458.5q0 369 238.5 623.5t611.5 256.5
q229 0 401 -138q86 -69 137.5 -190.5t51.5 -287.5zM1051 1577h-205l-174 453h172l133 -277l227 277h172z" />
    <glyph glyph-name="uni01D2" unicode="&#x1d2;" horiz-adv-x="1099" 
d="M708.5 289q96.5 100 104.5 239.5t-50 198.5t-147 61q-131 4 -230 -99t-101 -255q-4 -119 51 -179t149 -62q127 -4 223.5 96zM653 1008q172 0 287 -101.5t115 -312.5q0 -279 -171 -453t-423 -174q-184 0 -301 101.5t-117 312.5q0 262 171 444.5t439 182.5zM772 1128h-205
l-174 451h172l133 -276l228 276h172z" />
    <glyph glyph-name="uni01D3" unicode="&#x1d3;" horiz-adv-x="1366" 
d="M604 -33q-272 0 -386 178.5t-66 458.5l135 821h254l-140 -845q-27 -166 27.5 -269.5t202 -103.5t242 97t124.5 276l142 845h254l-140 -831q-102 -627 -649 -627zM965 1577h-205l-174 453h172l133 -277l227 277h172z" />
    <glyph glyph-name="uni01D4" unicode="&#x1d4;" horiz-adv-x="1067" 
d="M303 -33q-137 0 -201.5 99.5t-35.5 273.5l106 637h244l-97 -574q-16 -102 15 -159.5t108 -57.5q150 1 252 181l101 610h243l-161 -977h-244l26 160q-133 -193 -356 -193zM741 1128h-204l-175 451h173l133 -276l227 276h172z" />
    <glyph glyph-name="Scommaaccent" unicode="&#x218;" horiz-adv-x="1081" 
d="M482.5 -106q72.5 0 110.5 -60.5t21 -163.5q-45 -252 -317 -366l-64 121q160 66 213 174q-10 -2 -28 -2q-59 0 -94 38.5t-24 106.5t60.5 110t122 42zM471 -33q-276 0 -477 166l104 242q147 -170 377 -170q115 0 186.5 56t71.5 142t-56.5 128.5t-192.5 96.5t-223 146
t-87 267t131 295t378 120t447 -129l-145 -213q-143 109 -315 109q-104 0 -167 -46.5t-63 -123t45.5 -118.5t139.5 -80q94 -37 141 -63q48 -26 110 -75q122 -95 121.5 -298.5t-150 -327.5t-376.5 -124z" />
    <glyph glyph-name="scommaaccent" unicode="&#x219;" horiz-adv-x="786" 
d="M308.5 -106q72.5 0 110.5 -60.5t21 -163.5q-45 -252 -317 -366l-64 121q160 66 213 174q-10 -2 -28 -2q-59 0 -94 38.5t-24 106.5t60.5 110t122 42zM713 280.5q0 -137.5 -115 -225.5t-310.5 -88t-326.5 94l82 183q109 -88 264 -88q78 0 126 30.5t48 76.5t-23.5 71.5
t-47 36t-74.5 28.5q-258 82 -258 291q0 143 100.5 230.5t280.5 87.5t334 -80l-103 -174q-102 68 -242 67.5t-141 -104.5q0 -82 133 -126t203 -108.5t70 -202z" />
    <glyph glyph-name="uni021A" unicode="&#x21a;" horiz-adv-x="1058" 
d="M439.5 -106q72.5 0 110.5 -60.5t21 -163.5q-45 -252 -317 -366l-64 121q160 66 213 174q-10 -2 -28 -2q-59 0 -94 38.5t-24 106.5t60.5 110t122 42zM1192 1425l-39 -231h-377l-196 -1194h-256l198 1194h-377l37 231h1010z" />
    <glyph glyph-name="uni021B" unicode="&#x21b;" horiz-adv-x="692" 
d="M388.5 -106q72.5 0 110.5 -60.5t21 -163.5q-45 -252 -317 -366l-64 121q160 66 213 174q-10 -2 -28 -2q-59 0 -94 38.5t-24 106.5t60.5 110t122 42zM473 182q90 0 180 58l9 -201q-124 -72 -278 -72q-317 0 -257 363l74 442h-115l31 205h116l52 303h243l-51 -303h262
l-32 -205h-263l-69 -416q-29 -174 98 -174z" />
    <glyph glyph-name="uni0237" unicode="&#x237;" horiz-adv-x="477" 
d="M-182 -528l-35 206q203 6 240 218l176 1081h241l-174 -1086q-33 -207 -141 -305t-307 -114z" />
    <glyph glyph-name="circumflex" unicode="&#x2c6;" horiz-adv-x="1228" 
d="M848 1128h-172l-135 277l-226 -277h-172l324 451h205z" />
    <glyph glyph-name="caron" unicode="&#x2c7;" horiz-adv-x="1228" 
d="M756 1579h172l-326 -451h-205l-174 451h172l133 -276z" />
    <glyph glyph-name="breve" unicode="&#x2d8;" horiz-adv-x="1228" 
d="M541 1319q176 0 209 258h192q-23 -207 -133.5 -313.5t-293.5 -106.5t-260 106.5t-30 313.5h191q-51 -258 125 -258z" />
    <glyph glyph-name="dotaccent" unicode="&#x2d9;" horiz-adv-x="1228" 
d="M344.5 1460q61.5 0 98 -44t26.5 -105.5t-60.5 -105.5t-114 -44t-98 44.5t-24.5 105.5q8 61 59.5 105t113 44z" />
    <glyph glyph-name="ring" unicode="&#x2da;" horiz-adv-x="1228" 
d="M309 1405q0 -113 110 -113q54 0 102 44t48 106q0 118 -106 117q-66 0 -110 -47.5t-44 -106.5zM409.5 1169q-120.5 0 -180 56.5t-59.5 146.5q0 133 90 220t208.5 87t178.5 -58t60 -167t-88.5 -197t-209 -88z" />
    <glyph glyph-name="ogonek" unicode="&#x2db;" horiz-adv-x="1228" 
d="M133 -555q-127 0 -178 56t-41 147q25 285 528 471l13 -82q-309 -166 -320 -326q-4 -86 82 -86q74 0 170 49l12 -163q-139 -66 -266 -66z" />
    <glyph glyph-name="tilde" unicode="&#x2dc;" horiz-adv-x="1228" 
d="M432 1360q-68 0 -102 -217h-180q51 412 264 411q35 0 67.5 -19t51 -40.5t53.5 -64.5q68 -98 108 -99q74 0 109 219h180q-51 -414 -266 -413q-53 0 -101 37t-79 81.5t-36 51t-13.5 17.5t-13.5 15q-5 5 -15 13q-11 8 -27 8z" />
    <glyph glyph-name="hungarumlaut" unicode="&#x2dd;" horiz-adv-x="1228" 
d="M1055 1571l-410 -443h-170l332 443h248zM641 1571l-281 -443h-151l194 443h238z" />
    <glyph glyph-name="gravecomb" unicode="&#x300;" 
d="M61 1128h-167l-189 443h248z" />
    <glyph glyph-name="acutecomb" unicode="&#x301;" 
d="M203 1571l-334 -443h-168l256 443h246z" />
    <glyph glyph-name="uni0302" unicode="&#x302;" 
d="M78 1128h-172l-135 277l-226 -277h-172l324 451h205z" />
    <glyph glyph-name="tildecomb" unicode="&#x303;" 
d="M-426 1360q-68 0 -102 -217h-181q51 412 265 411q35 0 67.5 -19t51 -40.5t53.5 -64.5q68 -98 108 -99q74 0 109 219h180q-51 -414 -266 -413q-53 0 -100.5 37.5t-79 81.5t-36.5 50.5t-13 17.5q-28 36 -56 36z" />
    <glyph glyph-name="uni0304" unicode="&#x304;" 
d="M-575 1462h706l-33 -202h-708z" />
    <glyph glyph-name="uni0306" unicode="&#x306;" 
d="M-259 1319q175 0 208 258h192q-23 -207 -133 -313.5t-293.5 -106.5t-260 106.5t-29.5 313.5h190q-49 -258 126 -258z" />
    <glyph glyph-name="uni0307" unicode="&#x307;" 
d="M-18.5 1460q61.5 0 98.5 -44t26.5 -105.5t-60.5 -105.5t-113.5 -44t-98 44.5t-24.5 105.5q8 61 59 105t112.5 44z" />
    <glyph glyph-name="uni0308" unicode="&#x308;" 
d="M-10.5 1513q59.5 0 93.5 -41.5t23.5 -101t-58.5 -99.5t-106 -40t-92 41t-25 99t57 100t107.5 42zM-452.5 1513q59.5 0 92 -41.5t23.5 -100t-56 -99.5t-106.5 -41t-93 41t-24.5 99t57 100t107.5 42z" />
    <glyph glyph-name="uni030A" unicode="&#x30a;" 
d="M-258 1405q0 -113 109 -113q54 0 102.5 44t48.5 106q0 118 -106 117q-66 0 -110 -47.5t-44 -106.5zM-157.5 1169q-120.5 0 -180 56.5t-59.5 146.5q0 133 90 220t208.5 87t178 -58t59.5 -167t-88 -197t-208.5 -88z" />
    <glyph glyph-name="uni030B" unicode="&#x30b;" 
d="M193 1571l-410 -443h-170l332 443h248zM-221 1571l-281 -443h-151l194 443h238z" />
    <glyph glyph-name="uni030C" unicode="&#x30c;" 
d="M-31 1579h172l-325 -451h-205l-174 451h172l133 -276z" />
    <glyph glyph-name="uni0312" unicode="&#x312;" 
d="M3 1442q40 0 73 -33t21.5 -99.5t-61.5 -105.5t-124 -39t-109.5 57.5t-17.5 169t100 210t215 143.5l60 -119q-170 -72 -219 -192q22 8 62 8z" />
    <glyph glyph-name="uni0326" unicode="&#x326;" 
d="M-346.5 -106q72.5 0 110 -60.5t21.5 -163.5q-45 -252 -317 -366l-64 121q160 66 213 174q-10 -2 -29 -2q-59 0 -94 38.5t-23.5 106.5t61 110t122 42z" />
    <glyph glyph-name="uni0327" unicode="&#x327;" 
d="M-332 -154q172 0 172 -172q0 -129 -93 -201.5t-239 -72.5t-249 63l69 131q86 -53 168 -53t124 34t42 91q0 66 -66 66t-110 -43l-115 43l160 291h158l-123 -195q55 18 102 18z" />
    <glyph glyph-name="uni0328" unicode="&#x328;" 
d="M-445 -555q-127 0 -178 56.5t-41 146.5q25 285 529 471l12 -82q-309 -166 -319 -326q-4 -86 82 -86q74 0 170 49l12 -163q-140 -66 -267 -66z" />
    <glyph glyph-name="uni0335" unicode="&#x335;" 
d="M-793 461l35 209h746l-35 -209h-746z" />
    <glyph glyph-name="uni0336" unicode="&#x336;" 
 />
    <glyph glyph-name="uni0337" unicode="&#x337;" 
d="M-872 438l-62 197l809 307l74 -194z" />
    <glyph glyph-name="uni0338" unicode="&#x338;" 
d="M61 1348l-1364 -1383l-147 119l1352 1372z" />
    <glyph glyph-name="Wgrave" unicode="&#x1e80;" horiz-adv-x="1921" 
d="M1747 1425h262l-567 -1425h-297l-78 752q-6 63 -14 307q-72 -207 -111 -293l-358 -766h-297l-62 1425h273l8 -929q-4 -59 -8 -191q35 94 75 187l420 923h252l94 -893q8 -119 9 -213q51 150 65 197zM1225 1575h-172l-209 442h246z" />
    <glyph glyph-name="wgrave" unicode="&#x1e81;" horiz-adv-x="1419" 
d="M1225 977h258l-465 -977h-225l-70 666l-303 -666h-240l-80 977h246l14 -746l318 736h194l70 -727zM903 1128h-168l-188 443h248z" />
    <glyph glyph-name="Wacute" unicode="&#x1e82;" horiz-adv-x="1921" 
d="M1747 1425h262l-567 -1425h-297l-78 752q-6 63 -14 307q-72 -207 -111 -293l-358 -766h-297l-62 1425h273l8 -929q-4 -59 -8 -191q35 94 75 187l420 923h252l94 -893q8 -119 9 -213q51 150 65 197zM1638 1999l-413 -424h-195l340 424h268z" />
    <glyph glyph-name="wacute" unicode="&#x1e83;" horiz-adv-x="1419" 
d="M1225 977h258l-465 -977h-225l-70 666l-303 -666h-240l-80 977h246l14 -746l318 736h194l70 -727zM1208 1571l-334 -443h-167l256 443h245z" />
    <glyph glyph-name="Wdieresis" unicode="&#x1e84;" horiz-adv-x="1921" 
d="M1747 1425h262l-567 -1425h-297l-78 752q-6 63 -14 307q-72 -207 -111 -293l-358 -766h-297l-62 1425h273l8 -929q-4 -59 -8 -191q35 94 75 187l420 923h252l94 -893q8 -119 9 -213q51 150 65 197zM1353 1608q-60 0 -95 42t-25 101t58 101t108.5 42t95.5 -42t24.5 -101
t-58.5 -101t-108 -42zM939 1608q-58 0 -93 42t-25 101t58.5 101t108 42t93 -42t23.5 -101t-58.5 -101t-106.5 -42z" />
    <glyph glyph-name="wdieresis" unicode="&#x1e85;" horiz-adv-x="1419" 
d="M1225 977h258l-465 -977h-225l-70 666l-303 -666h-240l-80 977h246l14 -746l318 736h194l70 -727zM1056 1231q-58 0 -92 41t-25 99t57 100t107.5 42t93.5 -41.5t23.5 -101t-58.5 -99.5t-106 -40zM614.5 1231q-59.5 0 -93.5 41t-24.5 99t57.5 100t107.5 42t92 -41.5
t23.5 -100t-56 -99.5t-106.5 -41z" />
    <glyph glyph-name="Ygrave" unicode="&#x1ef2;" horiz-adv-x="1189" 
d="M1323 1425l-594 -907l-86 -518h-254l86 524l-295 901h279l184 -661l401 661h279zM860 1575h-172l-209 442h246z" />
    <glyph glyph-name="ygrave" unicode="&#x1ef3;" horiz-adv-x="1021" 
d="M834 977h258l-828 -1483h-254l289 490l-207 993h254l115 -731zM694 1128h-168l-188 443h248z" />
    <glyph glyph-name="endash" unicode="&#x2013;" horiz-adv-x="1118" 
d="M59 461l35 209h987l-32 -209h-990z" />
    <glyph glyph-name="emdash" unicode="&#x2014;" horiz-adv-x="1368" 
d="M55 461l33 209h1239l-33 -209h-1239z" />
    <glyph glyph-name="quoteleft" unicode="&#x2018;" horiz-adv-x="430" 
d="M284 922q-68 0 -105 47q-36 47 -36 131q1 160 99 278t250 170l53 -114q-104 -27 -169 -94t-81 -160q74 22 120 -25q27 -29 27 -89t-45 -102t-113 -42z" />
    <glyph glyph-name="quoteright" unicode="&#x2019;" horiz-adv-x="419" 
d="M227 1404q0 60 45 102t114 42q68 0 104 -47t36 -131q0 -160 -98 -278t-250 -170l-53 114q104 28 169 94t81 160q-74 -22 -120 25q-28 29 -28 89z" />
    <glyph glyph-name="quotedblleft" unicode="&#x201c;" horiz-adv-x="780" 
d="M813 1066q0 -60 -45 -102t-114 -42q-68 0 -104 47t-36 131q0 160 98 278t250 170l53 -114q-104 -27 -169 -94t-80 -160q76 22 120 -25q28 -29 27 -89zM284 922q-68 0 -105 47q-36 47 -36 131q1 160 99 278t250 170l53 -114q-104 -27 -169 -94t-81 -160q74 22 120 -25
q27 -29 27 -89t-45 -102t-113 -42z" />
    <glyph glyph-name="quotedblright" unicode="&#x201d;" horiz-adv-x="782" 
d="M598 1404q0 60 45 102t114 42t105 -47t35 -131q0 -160 -98 -278t-250 -170l-53 114q104 28 169 94t80 160q-75 -22 -119 25q-28 29 -28 89zM227 1404q0 60 45 102t114 42q68 0 104 -47t36 -131q0 -160 -98 -278t-250 -170l-53 114q104 28 169 94t81 160q-74 -22 -120 25
q-28 29 -28 89z" />
    <glyph glyph-name="dagger" unicode="&#x2020;" horiz-adv-x="1228" 
 />
    <glyph glyph-name="daggerdbl" unicode="&#x2021;" horiz-adv-x="1228" 
 />
    <glyph glyph-name="bullet" unicode="&#x2022;" horiz-adv-x="602" 
d="M300 465q-96 -1 -148 57t-45 152t84 165t173 71t149 -60q54 -59 46 -152t-86 -163t-173 -70z" />
    <glyph glyph-name="ellipsis" unicode="&#x2026;" horiz-adv-x="1214" 
d="M766 108q0 66 55 118t121 52t104 -37q38 -38 38 -103q0 -64 -57 -116t-123 -52t-102 36t-36 102zM389 108q0 66 55 118q56 52 122 52t104 -37q38 -38 37 -103q-1 -64 -57 -116t-122 -52t-103 36q-36 36 -36 102zM10 108q0 66 56 118t122 52t103 -37q37 -38 37 -103
q0 -64 -56 -116t-124 -52q-66 0 -102 36t-36 102z" />
    <glyph glyph-name="perthousand" unicode="&#x2030;" horiz-adv-x="2377" 
d="M2000 506q-82 0 -144 -67t-62 -145t36 -121q36 -42 117 -42q82 0 146 68q63 69 63 147t-36 119q-37 41 -120 41zM1421 344q1 162 -155 162q-82 0 -144 -67t-61 -145q0 -164 153 -163q82 0 145 67q62 66 62 146zM1913 -33q-133 0 -210 80t-77 211q0 174 116 291t296 117
q135 0 210 -79t74 -210q0 -176 -116 -293t-293 -117zM1178 -33q-133 0 -210 81t-77 210q0 174 117 291t295 117q137 0 211 -79t75 -210q1 -174 -117 -292t-294 -118zM299 1087q0 -163 154 -163q81 0 145 67q64 68 64 147q0 80 -37 120t-119 40t-145 -66q-62 -67 -62 -145z
M344 0l795 1425h245l-794 -1425h-246zM418 760q-133 0 -210 80t-77 211q0 175 116 291t296 116q137 0 212 -79t74 -210q1 -173 -117 -291t-294 -118z" />
    <glyph glyph-name="guilsinglleft" unicode="&#x2039;" horiz-adv-x="759" 
d="M709 1047l-37 -250l-447 -230l369 -239l-35 -232l-526 373l35 221z" />
    <glyph glyph-name="guilsinglright" unicode="&#x203a;" horiz-adv-x="757" 
d="M203 1047l530 -357l-35 -219l-645 -375l43 250l451 246l-379 225z" />
    <glyph glyph-name="fraction" unicode="&#x2044;" horiz-adv-x="933" 
d="M993 1425l-710 -1425h-269l711 1425h268z" />
    <glyph glyph-name="Euro" unicode="&#x20ac;" horiz-adv-x="1357" 
d="M1024 1212q-158 0 -283 -78t-194 -212h483l-41 -136h-493q-16 -59 -21 -133h494l-37 -141h-451q23 -154 115 -226t215 -71q123 0 236 44t192 116l59 -238q-94 -76 -241 -123t-271 -47t-216 29t-173 90q-80 61 -131 170t-61 256h-187l37 141h148q2 61 16 133h-145l43 136
h141q90 238 293 386t487 148t449 -147l-133 -226q-129 129 -330 129z" />
    <glyph glyph-name="trademark" unicode="&#x2122;" horiz-adv-x="1429" 
d="M1331 1425h187l-115 -720h-154l78 460l-225 -413h-103l-94 432l-78 -479h-147l119 720h178l110 -473zM688 1278h-182l-94 -573h-170l94 573h-170l22 147h523z" />
    <glyph glyph-name="partialdiff" unicode="&#x2202;" horiz-adv-x="1228" 
 />
    <glyph glyph-name="emptyset" unicode="&#x2205;" horiz-adv-x="1228" 
 />
    <glyph glyph-name="product" unicode="&#x220f;" horiz-adv-x="1228" 
 />
    <glyph glyph-name="summation" unicode="&#x2211;" horiz-adv-x="1228" 
 />
    <glyph glyph-name="minus" unicode="&#x2212;" horiz-adv-x="1124" 
d="M156 786h913l-35 -215h-913z" />
    <glyph glyph-name="radical" unicode="&#x221a;" horiz-adv-x="1228" 
 />
    <glyph glyph-name="infinity" unicode="&#x221e;" horiz-adv-x="1228" 
 />
    <glyph glyph-name="integral" unicode="&#x222b;" horiz-adv-x="1228" 
 />
    <glyph glyph-name="approxequal" unicode="&#x2248;" horiz-adv-x="1228" 
 />
    <glyph glyph-name="notequal" unicode="&#x2260;" horiz-adv-x="1128" 
d="M1069 784h-281l-163 -247h405l-35 -215h-512l-135 -205l-172 78l84 127h-178l35 215h284l162 247h-407l34 213h515l120 185l172 -80l-69 -105h176z" />
    <glyph glyph-name="lessequal" unicode="&#x2264;" horiz-adv-x="1228" 
 />
    <glyph glyph-name="greaterequal" unicode="&#x2265;" horiz-adv-x="1228" 
 />
    <glyph glyph-name="lozenge" unicode="&#x25ca;" horiz-adv-x="1228" 
 />
    <glyph glyph-name="ff" unicode="&#xfb00;" horiz-adv-x="1228" 
 />
    <glyph glyph-name="G.ss01" horiz-adv-x="1394" 
d="M662 -33q-233 0 -386 149.5t-153 446.5q0 364 216 624q103 124 268 196.5t368 72.5q133 0 263 -44t206 -118l-174 -200q-133 123 -332 123q-254 0 -401.5 -185.5t-147.5 -429.5q0 -186 87 -284.5t242 -98.5t272.5 95.5t158.5 275.5h-363l37 215h625l-18 -115
q-57 -367 -257 -545t-511 -178z" />
    <glyph glyph-name="Gbreve.ss01" horiz-adv-x="1394" 
d="M662 -33q-233 0 -386 149.5t-153 446.5q0 364 216 624q103 124 268 196.5t368 72.5q133 0 263 -44t206 -118l-174 -200q-133 123 -332 123q-254 0 -401.5 -185.5t-147.5 -429.5q0 -186 87 -284.5t242 -98.5t272.5 95.5t158.5 275.5h-363l37 215h625l-18 -115
q-57 -367 -257 -545t-511 -178zM941 1587q-183 0 -260 106.5t-30 313.5h191q-51 -258 125 -258t209 258h192q-25 -207 -134.5 -313.5t-292.5 -106.5z" />
    <glyph glyph-name="Gcommaaccent.ss01" horiz-adv-x="1394" 
d="M709.5 -106q72.5 0 110.5 -60.5t22 -163.5q-45 -252 -318 -366l-63 121q160 66 213 174q-10 -2 -29 -2q-59 0 -94 38.5t-24 106.5t60.5 110t122 42zM662 -33q-233 0 -386 149.5t-153 446.5q0 364 216 624q103 124 268 196.5t368 72.5q133 0 263 -44t206 -118l-174 -200
q-133 123 -332 123q-254 0 -401.5 -185.5t-147.5 -429.5q0 -186 87 -284.5t242 -98.5t272.5 95.5t158.5 275.5h-363l37 215h625l-18 -115q-57 -367 -257 -545t-511 -178z" />
    <glyph glyph-name="Gdotaccent.ss01" horiz-adv-x="1394" 
d="M662 -33q-233 0 -386 149.5t-153 446.5q0 364 216 624q103 124 268 196.5t368 72.5q133 0 263 -44t206 -118l-174 -200q-133 123 -332 123q-254 0 -401.5 -185.5t-147.5 -429.5q0 -186 87 -284.5t242 -98.5t272.5 95.5t158.5 275.5h-363l37 215h625l-18 -115
q-57 -367 -257 -545t-511 -178zM943 1608q-60 0 -95 43t-26 103t59.5 103.5t110.5 43.5t95 -43t26 -103.5t-59.5 -103.5t-110.5 -43z" />
    <glyph glyph-name="Q.ss01" horiz-adv-x="1533" 
d="M358 614q0 -201 96.5 -300t252.5 -99q238 0 393 185.5t155 422.5q0 190 -101 289.5t-259 99.5q-227 0 -382 -178t-155 -420zM1526 826q0 -182 -80 -363.5t-227 -304.5l153 -248l-221 -143l-160 258q-150 -57 -323 -58q-246 0 -414 152.5t-168 458.5q0 369 238.5 623.5
t611.5 256.5q229 0 401 -138q189 -152 189 -494z" />
    <glyph glyph-name="W.ss01" horiz-adv-x="1978" 
d="M1896 1415l261 -2l-715 -1419l-264 4l-134 577l-348 -573l-266 6l-186 1428l274 -2l117 -1133l340 571l-129 558l260 -5l55 -239l142 237l253 -4l-325 -536l131 -582z" />
    <glyph glyph-name="A.swsh" horiz-adv-x="1665" 
d="M852 545h367l-84 626zM719 1217q-195 0 -305.5 -73t-110.5 -204q0 -197 227 -203l-77 -182q-182 2 -273.5 112.5t-91.5 260.5q0 223 171 360t507 137h565l228 -1425h-267l-45 338h-489l-152 -338h-256l584 1217h-215z" />
    <glyph glyph-name="Aacute.swsh" horiz-adv-x="1665" 
d="M852 545h367l-84 626zM719 1217q-195 0 -305.5 -73t-110.5 -204q0 -197 227 -203l-77 -182q-182 2 -273.5 112.5t-91.5 260.5q0 223 171 360t507 137h565l228 -1425h-267l-45 338h-489l-152 -338h-256l584 1217h-215zM1636 1999l-413 -424h-195l340 424h268z" />
    <glyph glyph-name="Abreve.swsh" horiz-adv-x="1665" 
d="M852 545h367l-84 626zM719 1217q-195 0 -305.5 -73t-110.5 -204q0 -197 227 -203l-77 -182q-182 2 -273.5 112.5t-91.5 260.5q0 223 171 360t507 137h565l228 -1425h-267l-45 338h-489l-152 -338h-256l584 1217h-215zM1146 1587q-183 0 -260 106.5t-30 313.5h191
q-51 -258 125 -258t208 258h193q-25 -207 -134.5 -313.5t-292.5 -106.5z" />
    <glyph glyph-name="uni01CD.swsh" horiz-adv-x="1665" 
d="M852 545h367l-84 626zM719 1217q-195 0 -305.5 -73t-110.5 -204q0 -197 227 -203l-77 -182q-182 2 -273.5 112.5t-91.5 260.5q0 223 171 360t507 137h565l228 -1425h-267l-45 338h-489l-152 -338h-256l584 1217h-215zM1241 1577h-205l-174 453h172l133 -277l228 277h172z
" />
    <glyph glyph-name="Acircumflex.swsh" horiz-adv-x="1665" 
d="M852 545h367l-84 626zM719 1217q-195 0 -305.5 -73t-110.5 -204q0 -197 227 -203l-77 -182q-182 2 -273.5 112.5t-91.5 260.5q0 223 171 360t507 137h565l228 -1425h-267l-45 338h-489l-152 -338h-256l584 1217h-215zM1210 1845l-227 -276h-172l326 450h204l175 -450
h-173z" />
    <glyph glyph-name="Adieresis.swsh" horiz-adv-x="1665" 
d="M852 545h367l-84 626zM719 1217q-195 0 -305.5 -73t-110.5 -204q0 -197 227 -203l-77 -182q-182 2 -273.5 112.5t-91.5 260.5q0 223 171 360t507 137h565l228 -1425h-267l-45 338h-489l-152 -338h-256l584 1217h-215zM1351 1608q-60 0 -95 42t-25 101t58 101t108.5 42
t95.5 -42t24.5 -101t-58.5 -101t-108 -42zM937 1608q-58 0 -93 42t-25 101t58.5 101t107.5 42t93 -42t24 -101t-58.5 -101t-106.5 -42z" />
    <glyph glyph-name="Agrave.swsh" horiz-adv-x="1665" 
d="M852 545h367l-84 626zM719 1217q-195 0 -305.5 -73t-110.5 -204q0 -197 227 -203l-77 -182q-182 2 -273.5 112.5t-91.5 260.5q0 223 171 360t507 137h565l228 -1425h-267l-45 338h-489l-152 -338h-256l584 1217h-215zM1223 1575h-172l-209 442h245z" />
    <glyph glyph-name="Amacron.swsh" horiz-adv-x="1665" 
d="M852 545h367l-84 626zM719 1217q-195 0 -305.5 -73t-110.5 -204q0 -197 227 -203l-77 -182q-182 2 -273.5 112.5t-91.5 260.5q0 223 171 360t507 137h565l228 -1425h-267l-45 338h-489l-152 -338h-256l584 1217h-215zM1548 1882l-32 -203h-709l35 203h706z" />
    <glyph glyph-name="Aogonek.swsh" horiz-adv-x="1665" 
d="M852 545h367l-84 626zM1352 -420q80 0 168 53l12 -163q-139 -70 -261 -70q-224 0 -224 178q0 252 342 422h-97l-45 338h-489l-152 -338h-256l584 1217h-215q-195 0 -305.5 -73t-110.5 -204q0 -197 227 -203l-77 -182q-182 2 -273.5 112.5t-91.5 260.5q0 223 171 360
t507 137h565l223 -1402l37 -21q-319 -164 -319 -340q0 -82 80 -82z" />
    <glyph glyph-name="Aring.swsh" horiz-adv-x="1665" 
d="M852 545h367l-84 626zM719 1217q-195 0 -305.5 -73t-110.5 -204q0 -197 227 -203l-77 -182q-182 2 -273.5 112.5t-91.5 260.5q0 223 171 360t507 137h565l228 -1425h-267l-45 338h-489l-152 -338h-256l584 1217h-215zM1161 1694q53 0 91 31.5t46.5 89t-17.5 91t-79 33.5
t-91 -33.5t-47 -89.5t17.5 -89t79.5 -33zM1140 1561q-122 0 -181.5 69.5t-40 185.5t102.5 185.5t204 69.5t180 -72t40.5 -184.5t-101 -183t-204.5 -70.5z" />
    <glyph glyph-name="Atilde.swsh" horiz-adv-x="1665" 
d="M852 545h367l-84 626zM719 1217q-195 0 -305.5 -73t-110.5 -204q0 -197 227 -203l-77 -182q-182 2 -273.5 112.5t-91.5 260.5q0 223 171 360t507 137h565l228 -1425h-267l-45 338h-489l-152 -338h-256l584 1217h-215zM1040 1761q-76 0 -110 -215h-178q49 410 262 410
q47 0 90 -35q42 -35 70 -76q74 -110 126 -110q78 0 113 217h180q-51 -412 -270 -412q-59 0 -111.5 55.5t-94.5 110.5t-77 55z" />
    <glyph glyph-name="B.swsh" horiz-adv-x="1746" 
d="M1130 227q139 0 229.5 66.5t90.5 187.5q0 172 -211 172h-321l-72 -426h284zM1466 1047q0 156 -198 155h-260l-64 -389h275q102 0 174.5 67t72.5 167zM1702 472.5q0 -234.5 -168 -353.5t-436 -119h-543l201 1217h-74q-211 0 -318.5 -83t-107.5 -233q0 -211 276 -211
l-30 -186q-221 0 -341 109.5t-120 285.5q1 215 147 361q76 76 218.5 120.5t336.5 44.5h621q367 0 367 -288q0 -139 -76 -240.5t-207 -146.5q254 -43 254 -277.5z" />
    <glyph glyph-name="C.swsh" horiz-adv-x="1357" 
d="M633 -74q-266 0 -410.5 155t-144.5 421t103.5 481t297 344t434.5 129q184 0 299 -98t115 -307q0 -129 -49 -291h-227q47 122 47 226t-59.5 163t-166.5 59q-231 0 -376.5 -198.5t-145.5 -456.5q0 -178 92.5 -279.5t257.5 -101.5q281 0 484 215l76 -227
q-106 -102 -269 -168t-358 -66z" />
    <glyph glyph-name="Cacute.swsh" horiz-adv-x="1357" 
d="M633 -74q-266 0 -410.5 155t-144.5 421t103.5 481t297 344t434.5 129q184 0 299 -98t115 -307q0 -129 -49 -291h-227q47 122 47 226t-59.5 163t-166.5 59q-231 0 -376.5 -198.5t-145.5 -456.5q0 -178 92.5 -279.5t257.5 -101.5q281 0 484 215l76 -227
q-106 -102 -269 -168t-358 -66zM1425 1999l-413 -424h-195l340 424h268z" />
    <glyph glyph-name="Ccaron.swsh" horiz-adv-x="1357" 
d="M913 1456q184 0 299 -98t115 -307q0 -129 -49 -291h-227q47 122 47 226t-59.5 163t-166.5 59q-231 0 -376.5 -198.5t-145.5 -456.5q0 -178 92.5 -279.5t257.5 -101.5q281 0 484 215l76 -227q-106 -102 -269.5 -168t-357.5 -66q-266 0 -410.5 155t-144.5 421t103.5 481
t296.5 344t435 129zM1030 1577h-205l-174 453h172l133 -277l228 277h172z" />
    <glyph glyph-name="Ccedilla.swsh" horiz-adv-x="1357" 
d="M1098 985.5q0 104.5 -59.5 163.5t-166.5 59q-231 0 -376.5 -198.5t-145.5 -456.5q0 -178 92.5 -279.5t257.5 -101.5q281 0 484 215l76 -227q-96 -94 -244 -157.5t-324 -74.5l-74 -116q57 23 124 22.5t112 -43.5t45 -127q0 -141 -93 -215t-247 -74t-237 68l69 137
q20 -23 69.5 -43t115 -20t107.5 32.5t42 90.5q0 72 -72 71q-68 0 -118 -47l-113 43l127 223q-227 25 -349 176.5t-122 406.5t103.5 470t297 344t434.5 129q184 0 299 -98t115 -307q0 -129 -49 -291h-227q47 121 47 225.5z" />
    <glyph glyph-name="Cdotaccent.swsh" horiz-adv-x="1357" 
d="M633 -74q-266 0 -410.5 155t-144.5 421t103.5 481t297 344t434.5 129q184 0 299 -98t115 -307q0 -129 -49 -291h-227q47 121 47 225.5t-59.5 163.5t-166.5 59q-231 0 -376.5 -198.5t-145.5 -456.5q0 -178 92.5 -279.5t257.5 -101.5q281 0 484 215l76 -227
q-106 -102 -269 -168t-358 -66zM986 1901q60 0 95 -43t26 -103.5t-59.5 -103.5t-110.5 -43t-95 43t-26 103t59.5 103.5t110.5 43.5z" />
    <glyph glyph-name="D.swsh" horiz-adv-x="1861" 
d="M979 233q293 1 465 205q128 152 127 404q0 356 -389 356h-203l-160 -965h160zM1227 1425q293 0 454.5 -137t161.5 -420q0 -209 -69.5 -376.5t-189.5 -273.5q-249 -219 -601 -218h-459l201 1217h-74q-209 0 -316.5 -83t-107.5 -233q0 -102 71 -156.5t204 -54.5l-29 -186
q-221 0 -342 109.5t-121 285.5q0 213 149 361q77 76 218 120.5t336 44.5h514z" />
    <glyph glyph-name="Eth.swsh" horiz-adv-x="1982" 
d="M1100 233q292 1 464 205q128 152 128 404q0 356 -389 356h-203l-64 -381h295l-35 -209h-295l-61 -375h160zM1348 1425q293 0 454.5 -137t161.5 -420q0 -209 -69.5 -376.5t-189.5 -273.5q-249 -218 -601 -218h-459l100 608h-194l35 209h194l66 400h-74
q-240 0 -362.5 -94.5t-122.5 -268.5q0 -137 74.5 -212t199.5 -75l-29 -186q-221 0 -341.5 130t-120.5 351t160 383q83 84 238 132t366 48h514z" />
    <glyph glyph-name="Dcaron.swsh" horiz-adv-x="1861" 
d="M979 233q293 1 465 205q128 152 127 404q0 356 -389 356h-203l-160 -965h160zM1227 1425q293 0 454.5 -137t161.5 -420q0 -209 -69.5 -376.5t-189.5 -273.5q-249 -219 -601 -218h-459l201 1217h-74q-209 0 -316.5 -83t-107.5 -233q0 -102 71 -156.5t204 -54.5l-29 -186
q-221 0 -342 109.5t-121 285.5q0 213 149 361q77 76 218 120.5t336 44.5h514zM1425 1577h-204l-174 453h172l133 -277l227 277h172z" />
    <glyph glyph-name="Dcroat.swsh" horiz-adv-x="1404" 
d="M522 233q295 1 465 205q127 153 127 404q0 356 -389 356h-203l-57 -346h334l-35 -209h-334l-68 -410h160zM770 1425q293 0 454.5 -137t161.5 -420q0 -208 -70 -376q-68 -168 -188 -274q-247 -218 -602 -218h-458l106 643h-102l34 209h103l94 573h467z" />
    <glyph glyph-name="E.swsh" horiz-adv-x="1642" 
d="M682 1217q-211 0 -318.5 -83t-107.5 -233q0 -211 276 -211l-30 -186q-221 0 -341 109.5t-120 285.5q1 215 147 361q76 76 218.5 120.5t336.5 44.5h1014l-39 -229h-678l-57 -350h526l-34 -207h-527l-67 -410h680l-39 -229h-934l198 1217h-104z" />
    <glyph glyph-name="Eacute.swsh" horiz-adv-x="1642" 
d="M682 1217q-211 0 -318.5 -83t-107.5 -233q0 -211 276 -211l-30 -186q-221 0 -341 109.5t-120 285.5q1 215 147 361q76 76 218.5 120.5t336.5 44.5h1014l-39 -229h-678l-57 -350h526l-34 -207h-527l-67 -410h680l-39 -229h-934l198 1217h-104zM1456 1999l-414 -424h-194
l340 424h268z" />
    <glyph glyph-name="Ecaron.swsh" horiz-adv-x="1642" 
d="M682 1217q-211 0 -318.5 -83t-107.5 -233q0 -211 276 -211l-30 -186q-221 0 -341 109.5t-120 285.5q1 215 147 361q76 76 218.5 120.5t336.5 44.5h1014l-39 -229h-678l-57 -350h526l-34 -207h-527l-67 -410h680l-39 -229h-934l198 1217h-104zM1061 1577h-205l-174 453
h172l133 -277l227 277h172z" />
    <glyph glyph-name="Ecircumflex.swsh" horiz-adv-x="1642" 
d="M682 1217q-211 0 -318.5 -83t-107.5 -233q0 -211 276 -211l-30 -186q-221 0 -341 109.5t-120 285.5q1 215 147 361q76 76 218.5 120.5t336.5 44.5h1014l-39 -229h-678l-57 -350h526l-34 -207h-527l-67 -410h680l-39 -229h-934l198 1217h-104zM1030 1845l-227 -276h-172
l325 450h205l174 -450h-172z" />
    <glyph glyph-name="Edieresis.swsh" horiz-adv-x="1642" 
d="M682 1217q-211 0 -318.5 -83t-107.5 -233q0 -211 276 -211l-30 -186q-221 0 -341 109.5t-120 285.5q1 215 147 361q76 76 218.5 120.5t336.5 44.5h1014l-39 -229h-678l-57 -350h526l-34 -207h-527l-67 -410h680l-39 -229h-934l198 1217h-104zM1170 1608q-60 0 -95 42
t-24.5 101t58.5 101t108.5 42t95.5 -42t24.5 -101t-59 -101t-108.5 -42zM757 1608q-58 0 -93 42t-25 101t58 101t107.5 42t93.5 -42t23.5 -101t-58.5 -101t-106 -42z" />
    <glyph glyph-name="Edotaccent.swsh" horiz-adv-x="1642" 
d="M682 1217q-211 0 -318.5 -83t-107.5 -233q0 -211 276 -211l-30 -186q-221 0 -341 109.5t-120 285.5q1 215 147 361q76 76 218.5 120.5t336.5 44.5h1014l-39 -229h-678l-57 -350h526l-34 -207h-527l-67 -410h680l-39 -229h-934l198 1217h-104zM968 1608q-60 0 -95 43
t-26 103t59 103.5t110.5 43.5t95.5 -43t26 -103.5t-59.5 -103.5t-110.5 -43z" />
    <glyph glyph-name="Egrave.swsh" horiz-adv-x="1642" 
d="M682 1217q-211 0 -318.5 -83t-107.5 -233q0 -211 276 -211l-30 -186q-221 0 -341 109.5t-120 285.5q1 215 147 361q76 76 218.5 120.5t336.5 44.5h1014l-39 -229h-678l-57 -350h526l-34 -207h-527l-67 -410h680l-39 -229h-934l198 1217h-104zM1042 1575h-172l-208 442
h245z" />
    <glyph glyph-name="Emacron.swsh" horiz-adv-x="1642" 
d="M682 1217q-211 0 -318.5 -83t-107.5 -233q0 -211 276 -211l-30 -186q-221 0 -341 109.5t-120 285.5q1 215 147 361q76 76 218.5 120.5t336.5 44.5h1014l-39 -229h-678l-57 -350h526l-34 -207h-527l-67 -410h680l-39 -229h-934l198 1217h-104zM1368 1882l-33 -203h-708
l35 203h706z" />
    <glyph glyph-name="Eogonek.swsh" horiz-adv-x="1685" 
d="M1282 -422q80 0 168 53l12 -163q-138 -70 -260 -70q-224 0 -225 178q0 254 346 424h-735l198 1217h-104q-211 0 -318.5 -83t-107.5 -233q0 -211 276 -211l-30 -186q-221 0 -341 109.5t-120 285.5q1 215 147 361q76 76 218.5 120.5t336.5 44.5h1014l-39 -229h-678
l-57 -350h526l-34 -207h-527l-67 -410h680l-39 -229q-319 -164 -320 -340q0 -82 80 -82z" />
    <glyph glyph-name="F.swsh" horiz-adv-x="1603" 
d="M702 1217q-211 0 -318.5 -83t-107.5 -233q0 -211 277 -211l-27 -186q-223 0 -344 109.5t-121 285.5q0 213 149 361q77 76 218 120.5t336 44.5h977l-39 -231h-655l-60 -358h504l-35 -213h-504l-102 -623h-256l201 1217h-93z" />
    <glyph glyph-name="G.swsh" horiz-adv-x="1376" 
d="M330 608q0 -372 356 -372q180 0 326 98l41 262h254l-78 -492q-100 -625 -705 -624q-160 0 -296 48t-195 105l98 222q129 -141 399 -141t375 178q43 74 64 182q-152 -84 -361 -84q-258 0 -402.5 146.5t-144.5 404.5q0 391 233.5 653t604.5 262q424 0 424 -387
q0 -119 -33 -244h-243q27 86 26 164q0 221 -227 221t-371.5 -184t-144.5 -418z" />
    <glyph glyph-name="Gbreve.swsh" horiz-adv-x="1376" 
d="M330 608q0 -372 355 -372q179 0 327 98l41 262h254l-78 -492q-100 -625 -705 -624q-160 0 -296 48t-195 105l98 222q129 -141 399 -141t375 178q43 74 64 182q-152 -84 -361 -84q-258 0 -402.5 146.5t-144.5 404.5q0 391 233.5 653t604.5 262q424 0 424 -387
q0 -119 -33 -244h-243q27 86 26 164q0 221 -227 221t-371.5 -184t-144.5 -418zM937 1587q-183 0 -260 106.5t-30 313.5h191q-51 -258 125 -258t208 258h193q-25 -207 -134.5 -313.5t-292.5 -106.5z" />
    <glyph glyph-name="Gcommaaccent.swsh" horiz-adv-x="1376" 
d="M521.5 -104q72.5 0 110.5 -60.5t21 -163.5q-45 -252 -317 -366l-64 121q160 66 213 174q-10 -2 -28 -2q-59 0 -94 38.5t-24 106.5t60.5 110t122 42zM330 608q0 -372 356 -372q180 0 326 98l41 262h254l-78 -492q-39 -252 -123 -391t-229 -217l-146 166q180 111 238 412
q-152 -84 -361 -84q-258 0 -402.5 146.5t-144.5 404.5q0 391 233.5 653t604.5 262q424 0 424 -387q0 -119 -33 -244h-243q27 86 26 164q0 221 -227 221t-371.5 -184t-144.5 -418z" />
    <glyph glyph-name="Gdotaccent.swsh" horiz-adv-x="1376" 
d="M330 608q0 -372 356 -372q180 0 326 98l41 262h254l-78 -492q-100 -625 -705 -624q-160 0 -296 48t-195 105l98 222q129 -141 399 -141t375 178q43 74 64 182q-152 -84 -361 -84q-258 0 -402.5 146.5t-144.5 404.5q0 391 233.5 653t604.5 262q424 0 424 -387
q0 -119 -33 -244h-243q27 86 26 164q0 221 -227 221t-371.5 -184t-144.5 -418zM939 1608q-60 0 -95 43t-26 103t59.5 103.5t110.5 43.5t95 -43t26 -103.5t-59.5 -103.5t-110.5 -43z" />
    <glyph glyph-name="H.swsh" horiz-adv-x="1939" 
d="M702 1217q-211 0 -318.5 -83t-107.5 -233q0 -211 277 -211l-27 -186q-223 0 -344 109.5t-121 285.5q0 213 149 361q77 76 218 120.5t336 44.5h323l-94 -567h604l95 567h254l-236 -1425h-254l103 625h-605l-102 -625h-256l201 1217h-95z" />
    <glyph glyph-name="I.swsh" horiz-adv-x="1038" 
d="M690 1217q-211 0 -318.5 -83t-107.5 -233q0 -211 277 -211l-27 -186q-223 0 -344 109.5t-121 285.5q1 213 149 361q76 76 217.5 120.5t336.5 44.5h290l-233 -1425h-256l201 1217h-64z" />
    <glyph glyph-name="Iacute.swsh" horiz-adv-x="1038" 
d="M690 1217q-211 0 -318.5 -83t-107.5 -233q0 -211 277 -211l-27 -186q-223 0 -344 109.5t-121 285.5q1 213 149 361q76 76 217.5 120.5t336.5 44.5h290l-233 -1425h-256l201 1217h-64zM1440 1999l-414 -424h-195l340 424h269z" />
    <glyph glyph-name="uni01CF.swsh" horiz-adv-x="1038" 
d="M690 1217q-211 0 -318.5 -83t-107.5 -233q0 -211 277 -211l-27 -186q-223 0 -344 109.5t-121 285.5q1 213 149 361q76 76 217.5 120.5t336.5 44.5h290l-233 -1425h-256l201 1217h-64zM1198 2030h172l-326 -453h-204l-174 453h172l133 -277z" />
    <glyph glyph-name="Icircumflex.swsh" horiz-adv-x="1038" 
d="M690 1217q-211 0 -318.5 -83t-107.5 -233q0 -211 277 -211l-27 -186q-223 0 -344 109.5t-121 285.5q1 213 149 361q76 76 217.5 120.5t336.5 44.5h290l-233 -1425h-256l201 1217h-64zM1145 2019l174 -450h-172l-133 276l-228 -276h-172l326 450h205z" />
    <glyph glyph-name="Idieresis.swsh" horiz-adv-x="1038" 
d="M690 1217q-211 0 -318.5 -83t-107.5 -233q0 -211 277 -211l-27 -186q-223 0 -344 109.5t-121 285.5q1 213 149 361q76 76 217.5 120.5t336.5 44.5h290l-233 -1425h-256l201 1217h-64zM1201 1894q60 0 95 -42t25 -101t-58.5 -101t-108.5 -42t-95 42t-25 101t58.5 101
t108.5 42zM740 1608q-58 0 -93 42t-24.5 101t58.5 101t107.5 42t93 -42t23.5 -101t-58.5 -101t-106.5 -42z" />
    <glyph glyph-name="Idotaccent.swsh" horiz-adv-x="1038" 
d="M690 1217q-211 0 -318.5 -83t-107.5 -233q0 -211 277 -211l-27 -186q-223 0 -344 109.5t-121 285.5q1 213 149 361q76 76 217.5 120.5t336.5 44.5h290l-233 -1425h-256l201 1217h-64zM1000 1901q60 0 95 -43t26 -103.5t-59 -103.5t-110.5 -43t-95.5 43t-26 103
t59.5 103.5t110.5 43.5z" />
    <glyph glyph-name="Igrave.swsh" horiz-adv-x="1038" 
d="M690 1217q-211 0 -318.5 -83t-107.5 -233q0 -211 277 -211l-27 -186q-223 0 -344 109.5t-121 285.5q1 213 149 361q76 76 217.5 120.5t336.5 44.5h290l-233 -1425h-256l201 1217h-64zM1026 1575h-172l-209 442h246z" />
    <glyph glyph-name="Imacron.swsh" horiz-adv-x="1038" 
d="M690 1217q-211 0 -318.5 -83t-107.5 -233q0 -211 277 -211l-27 -186q-223 0 -344 109.5t-121 285.5q1 213 149 361q76 76 217.5 120.5t336.5 44.5h290l-233 -1425h-256l201 1217h-64zM645 1882h707l-33 -203h-709z" />
    <glyph glyph-name="Iogonek.swsh" horiz-adv-x="1038" 
d="M569 -422q80 0 168 53l13 -163q-139 -70 -261 -70q-225 0 -225 178q0 254 346 424h-57l201 1217h-64q-211 0 -318.5 -83t-107.5 -233q0 -211 277 -211l-27 -186q-223 0 -344 109.5t-121 285.5q1 213 149 361q76 76 217.5 120.5t336.5 44.5h290l-233 -1425
q-319 -164 -320 -340q0 -82 80 -82z" />
    <glyph glyph-name="J.swsh" horiz-adv-x="1177" 
d="M375 -393q-201 0 -332 108.5t-131 319.5q0 274 191.5 440t510.5 158l-32 -217q-197 8 -314.5 -92.5t-117.5 -264.5q0 -111 63 -173t180 -62q309 0 379 452l148 926h-433l35 223h686l-180 -1149q-62 -394 -254 -542q-92 -70 -187 -98.5t-212 -28.5z" />
    <glyph glyph-name="K.swsh" horiz-adv-x="1781" 
d="M711 1217q-211 0 -318.5 -83t-107.5 -233q0 -211 276 -211l-29 -186q-221 0 -341.5 109.5t-120.5 285.5q0 213 148 361q77 76 218.5 120.5t335.5 44.5h313l-104 -630l614 630h301l-522 -528l281 -897h-297l-205 674l-229 -234l-74 -440h-256l201 1217h-84z" />
    <glyph glyph-name="Kcommaaccent.swsh" horiz-adv-x="1781" 
d="M1072.5 -106q72.5 0 110.5 -60.5t21 -163.5q-45 -252 -317 -366l-64 121q160 66 213 174q-10 -2 -28 -2q-59 0 -94 38.5t-24 106.5t60.5 110t122 42zM711 1217q-211 0 -318.5 -83t-107.5 -233q0 -211 276 -211l-29 -186q-221 0 -341.5 109.5t-120.5 285.5q0 213 148 361
q77 76 218.5 120.5t335.5 44.5h313l-104 -630l614 630h301l-522 -528l281 -897h-297l-205 674l-229 -234l-74 -440h-256l201 1217h-84z" />
    <glyph glyph-name="L.swsh" horiz-adv-x="1521" 
d="M680 1217q-211 0 -318.5 -83t-107.5 -233q0 -211 276 -211l-32 -186q-219 0 -339 109.5t-120 285.5q1 213 149 361q76 76 217.5 120.5t335.5 44.5h353l-199 -1194h567l-39 -231h-823l203 1217h-123z" />
    <glyph glyph-name="Lacute.swsh" horiz-adv-x="1521" 
d="M680 1217q-211 0 -318.5 -83t-107.5 -233q0 -211 276 -211l-32 -186q-219 0 -339 109.5t-120 285.5q1 213 149 361q76 76 217.5 120.5t335.5 44.5h353l-199 -1194h567l-39 -231h-823l203 1217h-123zM1493 1999l-414 -424h-194l340 424h268z" />
    <glyph glyph-name="Lcaron.swsh" horiz-adv-x="1521" 
d="M680 1217q-211 0 -318.5 -83t-107.5 -233q0 -211 276 -211l-32 -186q-219 0 -339 109.5t-120 285.5q1 213 149 361q76 76 217.5 120.5t335.5 44.5h353l-199 -1194h567l-39 -231h-823l203 1217h-123zM1098 1577h-205l-174 453h172l133 -277l227 277h172z" />
    <glyph glyph-name="Lcommaaccent.swsh" horiz-adv-x="1521" 
d="M1015.5 -106q72.5 0 110 -60.5t21.5 -163.5q-45 -252 -318 -366l-63 121q160 66 213 174q-10 -2 -29 -2q-59 0 -94 38.5t-23.5 106.5t61 110t122 42zM680 1217q-211 0 -318.5 -83t-107.5 -233q0 -211 276 -211l-32 -186q-219 0 -339 109.5t-120 285.5q1 213 149 361
q76 76 217.5 120.5t335.5 44.5h353l-199 -1194h567l-39 -231h-823l203 1217h-123z" />
    <glyph glyph-name="Lslash.swsh" horiz-adv-x="1585" 
d="M743 1217q-225 0 -340.5 -96.5t-115.5 -272.5q0 -127 70.5 -193.5t205.5 -66.5l-31 -185q-221 0 -340.5 123t-119.5 320q0 306 231 460q180 120 502 119h352l-80 -477l320 121l73 -195l-432 -161l-80 -482h568l-39 -231h-823l102 608l-117 -43l-61 197l217 82l61 373
h-123z" />
    <glyph glyph-name="M.swsh" horiz-adv-x="2240" 
d="M711 1217q-211 0 -318.5 -83t-107.5 -233q0 -211 276 -211l-33 -186q-219 2 -338.5 110.5t-119.5 284.5q0 213 148 361q77 76 218.5 120.5t335.5 44.5h391l236 -954l536 954h301l-223 -1425h-248l162 975l-500 -883h-188l-217 916l-162 -1008h-231l198 1217h-116z" />
    <glyph glyph-name="N.swsh" horiz-adv-x="1906" 
d="M711 1217q-211 0 -318.5 -83t-107.5 -233q0 -211 276 -211l-33 -186q-219 2 -338.5 110.5t-119.5 284.5q0 213 148 361q77 76 218.5 120.5t335.5 44.5h299l447 -999l165 999h232l-238 -1425h-241l-443 985l-162 -985h-235l201 1217h-86z" />
    <glyph glyph-name="Nacute.swsh" horiz-adv-x="1906" 
d="M711 1217q-211 0 -318.5 -83t-107.5 -233q0 -211 276 -211l-33 -186q-219 2 -338.5 110.5t-119.5 284.5q0 213 148 361q77 76 218.5 120.5t335.5 44.5h299l447 -999l165 999h232l-238 -1425h-241l-443 985l-162 -985h-235l201 1217h-86zM1894 1999l-413 -424h-195
l340 424h268z" />
    <glyph glyph-name="Ncaron.swsh" horiz-adv-x="1906" 
d="M711 1217q-211 0 -318.5 -83t-107.5 -233q0 -211 276 -211l-33 -186q-219 2 -338.5 110.5t-119.5 284.5q0 213 148 361q77 76 218.5 120.5t335.5 44.5h299l447 -999l165 999h232l-238 -1425h-241l-443 985l-162 -985h-235l201 1217h-86zM1499 1577h-205l-174 453h172
l133 -277l228 277h172z" />
    <glyph glyph-name="Ncommaaccent.swsh" horiz-adv-x="1906" 
d="M1127.5 -106q72.5 0 110.5 -60.5t22 -163.5q-45 -252 -318 -366l-63 121q160 66 213 174q-10 -2 -29 -2q-59 0 -94 38.5t-24 106.5t60.5 110t122 42zM711 1217q-211 0 -318.5 -83t-107.5 -233q0 -211 276 -211l-33 -186q-219 2 -338.5 110.5t-119.5 284.5q0 213 148 361
q77 76 218.5 120.5t335.5 44.5h299l447 -999l165 999h232l-238 -1425h-241l-443 985l-162 -985h-235l201 1217h-86z" />
    <glyph glyph-name="Ntilde.swsh" horiz-adv-x="1906" 
d="M711 1217q-211 0 -318.5 -83t-107.5 -233q0 -211 276 -211l-33 -186q-219 2 -338.5 110.5t-119.5 284.5q0 213 148 361q77 76 218.5 120.5t335.5 44.5h299l447 -999l165 999h232l-238 -1425h-241l-443 985l-162 -985h-235l201 1217h-86zM1298 1761q-76 0 -110 -215h-178
q49 410 262 410q47 0 90 -35q42 -35 70 -76q74 -110 127 -110q78 0 112 217h180q-51 -412 -270 -412q-59 0 -111.5 55.5t-94.5 110.5t-77 55z" />
    <glyph glyph-name="O.swsh" horiz-adv-x="1536" 
d="M725 215q223 0 371.5 140.5t148.5 351.5q0 115 -53 186q-78 -111 -219.5 -172.5t-310.5 -61.5l36 191q131 0 227.5 63.5t96.5 171.5q0 66 -42 102t-114 36q-223 0 -366.5 -181.5t-143.5 -429.5q0 -186 99.5 -291.5t269.5 -105.5zM698 -33q-285 0 -450.5 159t-165.5 433
q0 385 227.5 641t597.5 256q176 0 268.5 -84t92.5 -229q0 -49 -11 -101l91 72q154 -109 153 -364q0 -342 -227 -562.5t-576 -220.5z" />
    <glyph glyph-name="Oacute.swsh" horiz-adv-x="1536" 
d="M725 215q223 0 371.5 140.5t148.5 351.5q0 115 -53 186q-78 -111 -219.5 -172.5t-310.5 -61.5l36 191q131 0 227.5 63.5t96.5 171.5q0 66 -42 102t-114 36q-223 0 -366.5 -181.5t-143.5 -429.5q0 -186 99.5 -291.5t269.5 -105.5zM698 -33q-285 0 -450.5 159t-165.5 433
q0 385 227.5 641t597.5 256q176 0 268.5 -84t92.5 -229q0 -49 -11 -101l91 72q154 -109 153 -364q0 -342 -227 -562.5t-576 -220.5zM1446 1999l-414 -424h-194l340 424h268z" />
    <glyph glyph-name="uni01D1.swsh" horiz-adv-x="1536" 
d="M725 215q223 0 371.5 140.5t148.5 351.5q0 115 -53 186q-78 -111 -219.5 -172.5t-310.5 -61.5l36 191q131 0 227.5 63.5t96.5 171.5q0 66 -42 102t-114 36q-223 0 -366.5 -181.5t-143.5 -429.5q0 -186 99.5 -291.5t269.5 -105.5zM698 -33q-285 0 -450.5 159t-165.5 433
q0 385 227.5 641t597.5 256q176 0 268.5 -84t92.5 -229q0 -49 -11 -101l91 72q154 -109 153 -364q0 -342 -227 -562.5t-576 -220.5zM1051 1577h-205l-174 453h172l133 -277l227 277h172z" />
    <glyph glyph-name="Ocircumflex.swsh" horiz-adv-x="1536" 
d="M725 215q223 0 371.5 140.5t148.5 351.5q0 115 -53 186q-78 -111 -219.5 -172.5t-310.5 -61.5l36 191q131 0 227.5 63.5t96.5 171.5q0 66 -42 102t-114 36q-223 0 -366.5 -181.5t-143.5 -429.5q0 -186 99.5 -291.5t269.5 -105.5zM698 -33q-285 0 -450.5 159t-165.5 433
q0 385 227.5 641t597.5 256q176 0 268.5 -84t92.5 -229q0 -49 -11 -101l91 72q154 -109 153 -364q0 -342 -227 -562.5t-576 -220.5zM1020 1845l-227 -276h-172l325 450h205l174 -450h-172z" />
    <glyph glyph-name="Odieresis.swsh" horiz-adv-x="1536" 
d="M725 215q223 0 371.5 140.5t148.5 351.5q0 115 -53 186q-78 -111 -219.5 -172.5t-310.5 -61.5l36 191q131 0 227.5 63.5t96.5 171.5q0 66 -42 102t-114 36q-223 0 -366.5 -181.5t-143.5 -429.5q0 -186 99.5 -291.5t269.5 -105.5zM698 -33q-285 0 -450.5 159t-165.5 433
q0 385 227.5 641t597.5 256q176 0 268.5 -84t92.5 -229q0 -49 -11 -101l91 72q154 -109 153 -364q0 -342 -227 -562.5t-576 -220.5zM1160 1608q-60 0 -95 42t-24.5 101t58.5 101t108 42t95 -42t25 -101t-58.5 -101t-108.5 -42zM747 1608q-58 0 -93.5 42t-25 101t58.5 101
t107.5 42t93.5 -42t23.5 -101t-58.5 -101t-106 -42z" />
    <glyph glyph-name="Ograve.swsh" horiz-adv-x="1536" 
d="M725 215q223 0 371.5 140.5t148.5 351.5q0 115 -53 186q-78 -111 -219.5 -172.5t-310.5 -61.5l36 191q131 0 227.5 63.5t96.5 171.5q0 66 -42 102t-114 36q-223 0 -366.5 -181.5t-143.5 -429.5q0 -186 99.5 -291.5t269.5 -105.5zM698 -33q-285 0 -450.5 159t-165.5 433
q0 385 227.5 641t597.5 256q176 0 268.5 -84t92.5 -229q0 -49 -11 -101l91 72q154 -109 153 -364q0 -342 -227 -562.5t-576 -220.5zM1032 1575h-172l-209 442h246z" />
    <glyph glyph-name="Ohungarumlaut.swsh" horiz-adv-x="1536" 
d="M725 215q223 0 371.5 140.5t148.5 351.5q0 115 -53 186q-78 -111 -219.5 -172.5t-310.5 -61.5l36 191q131 0 227.5 63.5t96.5 171.5q0 66 -42 102t-114 36q-223 0 -366.5 -181.5t-143.5 -429.5q0 -186 99.5 -291.5t269.5 -105.5zM698 -33q-285 0 -450.5 159t-165.5 433
q0 385 227.5 641t597.5 256q176 0 268.5 -84t92.5 -229q0 -49 -11 -101l91 72q154 -109 153 -364q0 -342 -227 -562.5t-576 -220.5zM1167 1575h-170l334 440h246zM1137 2015l-283 -440h-152l195 440h240z" />
    <glyph glyph-name="Omacron.swsh" horiz-adv-x="1536" 
d="M725 215q223 0 371.5 140.5t148.5 351.5q0 115 -53 186q-78 -111 -219.5 -172.5t-310.5 -61.5l36 191q131 0 227.5 63.5t96.5 171.5q0 66 -42 102t-114 36q-223 0 -366.5 -181.5t-143.5 -429.5q0 -186 99.5 -291.5t269.5 -105.5zM698 -33q-285 0 -450.5 159t-165.5 433
q0 385 227.5 641t597.5 256q176 0 268.5 -84t92.5 -229q0 -49 -11 -101l91 72q154 -109 153 -364q0 -342 -227 -562.5t-576 -220.5zM1358 1882l-33 -203h-709l35 203h707z" />
    <glyph glyph-name="Otilde.swsh" horiz-adv-x="1536" 
d="M725 215q223 0 371.5 140.5t148.5 351.5q0 115 -53 186q-78 -111 -219.5 -172.5t-310.5 -61.5l36 191q131 0 227.5 63.5t96.5 171.5q0 66 -42 102t-114 36q-223 0 -366.5 -181.5t-143.5 -429.5q0 -186 99.5 -291.5t269.5 -105.5zM698 -33q-285 0 -450.5 159t-165.5 433
q0 385 227.5 641t597.5 256q176 0 268.5 -84t92.5 -229q0 -49 -11 -101l91 72q154 -109 153 -364q0 -342 -227 -562.5t-576 -220.5zM850 1761q-76 0 -111 -215h-178q49 410 262 410q47 0 90 -35t71 -76q75 -110 126 -110q78 0 113 217h180q-51 -412 -270 -412
q-59 0 -111.5 55.5t-94.5 110.5t-77 55z" />
    <glyph glyph-name="P.swsh" horiz-adv-x="1763" 
d="M1219 700q160 0 244.5 83t84.5 218q0 96 -57 145.5t-162 49.5h-268l-82 -496h240zM1403 1425q201 0 308.5 -99t107.5 -296q0 -254 -160 -404.5t-445 -150.5h-274l-78 -475h-256l201 1202h-111q-197 0 -294 -76.5t-97 -218.5q0 -209 268 -209l-6 -211q-248 2 -367.5 122
t-119.5 316t139 348t483 152h701z" />
    <glyph glyph-name="Q.swsh" horiz-adv-x="1536" 
d="M866 1223q-223 0 -366.5 -181.5t-143.5 -429.5q0 -186 99.5 -291.5t269.5 -105.5q223 0 371.5 140.5t148.5 351.5q0 115 -53 186q-78 -111 -219.5 -172.5t-310.5 -61.5l36 191q131 0 227.5 63.5t96.5 171.5q0 66 -42 102t-114 36zM1121 -391q-124 0 -243.5 54t-226 107.5
t-190.5 53.5q-150 0 -330 -92l16 223q123 57 248 72q-150 68 -231.5 205t-81.5 327q0 385 227.5 641t597.5 256q176 0 268.5 -84t92.5 -229q0 -49 -11 -101l91 72q154 -109 153 -364q0 -324 -204.5 -541t-528.5 -240q31 -14 89 -47t93 -50q99 -48 205.5 -48t220.5 61
l-18 -225q-113 -51 -237 -51z" />
    <glyph glyph-name="R.swsh" horiz-adv-x="1777" 
d="M1202 774q141 0 223 68.5t82 185.5q0 84 -53 126t-143 42h-291l-70 -422h252zM1782 1077q0 -178 -102.5 -304t-274.5 -177l250 -596h-301l-213 569h-226l-94 -569h-256l201 1202h-100q-401 0 -402 -297q0 -207 268 -207l-6 -211q-248 0 -367.5 120t-119.5 318t140 349
t493 151h708q402 0 402 -348z" />
    <glyph glyph-name="Racute.swsh" horiz-adv-x="1777" 
d="M1202 774q141 0 223 68.5t82 185.5q0 84 -53 126t-143 42h-291l-70 -422h252zM1782 1077q0 -178 -102.5 -304t-274.5 -177l250 -596h-301l-213 569h-226l-94 -569h-256l201 1202h-100q-401 0 -402 -297q0 -207 268 -207l-6 -211q-248 0 -367.5 120t-119.5 318t140 349
t493 151h708q402 0 402 -348zM1839 1999l-414 -424h-194l340 424h268z" />
    <glyph glyph-name="Rcaron.swsh" horiz-adv-x="1777" 
d="M1202 774q141 0 223 68.5t82 185.5q0 84 -53 126t-143 42h-291l-70 -422h252zM1782 1077q0 -178 -102.5 -304t-274.5 -177l250 -596h-301l-213 569h-226l-94 -569h-256l201 1202h-100q-401 0 -402 -297q0 -207 268 -207l-6 -211q-248 0 -367.5 120t-119.5 318t140 349
t493 151h708q402 0 402 -348zM1444 1577h-205l-174 453h172l133 -277l227 277h172z" />
    <glyph glyph-name="Rcommaaccent.swsh" horiz-adv-x="1777" 
d="M1070.5 -106q72.5 0 110.5 -60.5t21 -163.5q-45 -252 -317 -366l-64 121q160 66 213 174q-10 -2 -28 -2q-59 0 -94 38.5t-24 106.5t60.5 110t122 42zM1202 774q141 0 223 68.5t82 185.5q0 84 -53 126t-143 42h-291l-70 -422h252zM1782 1077q0 -178 -102.5 -304
t-274.5 -177l250 -596h-301l-213 569h-226l-94 -569h-256l201 1202h-100q-401 0 -402 -297q0 -207 268 -207l-6 -211q-248 0 -367.5 120t-119.5 317.5t140.5 349t492.5 151.5h708q402 0 402 -348z" />
    <glyph glyph-name="S.swsh" horiz-adv-x="1097" 
d="M207 186q0 -262 265 -262q128 0 205 63.5t77 163t-54.5 163t-160.5 141.5q-168 119 -253 230.5t-85 264.5q0 223 151.5 364.5t392.5 141.5q162 0 263.5 -78t101.5 -245q0 -94 -37 -218l-229 3q23 70 22 137q0 168 -164 168q-106 0 -173.5 -69t-67.5 -161t56 -155.5
t198 -160.5t222.5 -203.5t80.5 -274.5q0 -242 -160 -375t-402 -133q-492 0 -491 440q0 49 10 121l242 41q-10 -68 -10 -107z" />
    <glyph glyph-name="Sacute.swsh" horiz-adv-x="1097" 
d="M207 186q0 -262 265 -262q128 0 205 63.5t77 163t-54.5 163t-160.5 141.5q-168 119 -253 230.5t-85 264.5q0 223 151.5 364.5t392.5 141.5q162 0 263.5 -78t101.5 -245q0 -94 -37 -218l-229 3q23 70 22 137q0 168 -164 168q-106 0 -173.5 -69t-67.5 -161t56 -155.5
t198 -160.5t222.5 -203.5t80.5 -274.5q0 -242 -160 -375t-402 -133q-492 0 -491 440q0 49 10 121l242 41q-10 -68 -10 -107zM1251 1999l-413 -424h-195l340 424h268z" />
    <glyph glyph-name="Scaron.swsh" horiz-adv-x="1097" 
d="M207 186q0 -262 265 -262q128 0 205 63.5t77 163t-54.5 163t-160.5 141.5q-168 119 -253 230.5t-85 264.5q0 223 151 364.5t393 141.5q162 0 263.5 -78t101.5 -245q0 -94 -37 -218l-229 3q23 70 22 137q0 168 -164 168q-106 0 -173.5 -69t-67.5 -161t56 -155.5
t198 -160.5t222.5 -203.5t80.5 -274.5q0 -242 -160 -375t-402 -133q-492 0 -491 440q0 49 10 121l242 41q-10 -68 -10 -107zM856 1577h-205l-174 453h172l133 -277l228 277h172z" />
    <glyph glyph-name="Scedilla.swsh" horiz-adv-x="1097" 
d="M702 1225q-106 0 -173.5 -64.5t-67.5 -155t56 -157t181 -148.5q141 -86 220 -179t79 -232q0 -176 -128 -262t-314 -86h-20l-58 -97q55 25 124 25t114 -43t45 -127q0 -139 -92.5 -209t-248 -70t-237.5 70l70 135q20 -23 69.5 -43t108.5 -20q156 0 156 112q0 72 -70 72
t-121 -47l-110 43l114 213q-240 43 -397 233l115 234q84 -115 199.5 -181.5t244.5 -66.5q80 0 126 32t46 94t-45 105.5t-149 106.5q-166 96 -252 209t-86 264q0 201 152.5 336t391.5 135q160 0 262.5 -79t102.5 -249q0 -90 -37 -213l-229 3q25 78 24 141q0 166 -166 166z
" />
    <glyph glyph-name="Scommaaccent.swsh" horiz-adv-x="1097" 
d="M496.5 -106q72.5 0 110.5 -60.5t22 -163.5q-45 -252 -318 -366l-63 121q160 66 213 174q-10 -2 -29 -2q-59 0 -94 38.5t-24 106.5t60.5 110t122 42zM702 1225q-106 0 -173.5 -64.5t-67.5 -155t56 -157t181 -148.5q141 -86 220 -179t79 -232q0 -176 -128 -262t-314 -86
q-346 0 -553 247l115 234q84 -115 199.5 -181.5t244.5 -66.5q80 0 126 32t46 94t-45 105.5t-149 106.5q-166 96 -252 209t-86 264q0 201 152.5 336t391.5 135q160 0 262.5 -79t102.5 -249q0 -90 -37 -213l-229 3q25 78 24 141q0 166 -166 166z" />
    <glyph glyph-name="T.swsh" horiz-adv-x="1470" 
d="M668 1200q-209 0 -314.5 -81t-105.5 -226q0 -203 274 -203l-28 -186q-219 0 -340 107.5t-121 273.5q0 225 146 373q163 166 554 167h866l-32 -225h-404l-188 -1200h-256l188 1200h-239z" />
    <glyph glyph-name="Tbar.swsh" horiz-adv-x="1470" 
d="M668 1200q-209 0 -314.5 -81t-105.5 -226q0 -203 274 -203l-28 -186q-219 0 -340 107.5t-121 273.5q0 225 146 373q163 166 554 167h866l-32 -225h-404l-78 -504h244l-35 -209h-243l-76 -487h-256l76 487h-246l35 209h245l78 504h-239z" />
    <glyph glyph-name="Tcaron.swsh" horiz-adv-x="1470" 
d="M668 1200q-209 0 -314.5 -81t-105.5 -226q0 -203 274 -203l-28 -186q-219 0 -340 107.5t-121 273.5q0 225 146 373q163 166 554 167h866l-32 -225h-404l-188 -1200h-256l188 1200h-239zM1196 1577h-205l-174 453h172l133 -277l228 277h172z" />
    <glyph glyph-name="uni0162.swsh" horiz-adv-x="1470" 
d="M1102 -291q0 -141 -93.5 -215t-247 -74t-237.5 68l70 137q20 -23 69.5 -43t115 -20t107.5 32.5t42 90.5q0 72 -72 71q-68 0 -119 -47l-112 43l141 248h-47l188 1200h-239q-209 0 -314.5 -81t-105.5 -226q0 -203 274 -203l-28 -186q-219 0 -340 107.5t-121 273.5
q0 225 146 373q163 166 554 167h866l-32 -225h-404l-188 -1200h-64l-90 -143q55 23 123 22.5t113 -43.5t45 -127z" />
    <glyph glyph-name="uni021A.swsh" horiz-adv-x="1470" 
d="M836.5 -106q72.5 0 110.5 -60.5t22 -163.5q-45 -252 -318 -366l-63 121q160 66 213 174q-10 -2 -29 -2q-59 0 -94 38.5t-24 106.5t60.5 110t122 42zM668 1200q-209 0 -314.5 -81t-105.5 -226q0 -203 274 -203l-28 -186q-219 0 -340 107.5t-121 273.5q0 225 146 373
q163 166 554 167h866l-32 -225h-404l-188 -1200h-256l188 1200h-239z" />
    <glyph glyph-name="U.swsh" horiz-adv-x="1914" 
d="M1153 -33q-272 0 -386 178.5t-67 458.5l101 613h-115q-199 0 -301 -71t-102 -191.5t71.5 -182t202.5 -61.5l-31 -187q-219 0 -339.5 117t-120.5 306t151 333q151 145 531 145h342l-140 -845q-27 -166 27.5 -269.5t202 -103.5t242 97t124.5 276l142 845h254l-140 -831
q-102 -627 -649 -627z" />
    <glyph glyph-name="Uacute.swsh" horiz-adv-x="1914" 
d="M1153 -33q-272 0 -386 178.5t-67 458.5l101 613h-115q-199 0 -301 -71t-102 -191.5t71.5 -182t202.5 -61.5l-31 -187q-219 0 -339.5 117t-120.5 306t151 333q151 145 531 145h342l-140 -845q-27 -166 27.5 -269.5t202 -103.5t242 97t124.5 276l142 845h254l-140 -831
q-102 -627 -649 -627zM1894 1999l-413 -424h-195l340 424h268z" />
    <glyph glyph-name="uni01D3.swsh" horiz-adv-x="1914" 
d="M1153 -33q-272 0 -386 178.5t-67 458.5l101 613h-115q-199 0 -301 -71t-102 -191.5t71.5 -182t202.5 -61.5l-31 -187q-219 0 -339.5 117t-120.5 306t151 333q151 145 531 145h342l-140 -845q-27 -166 27.5 -269.5t202 -103.5t242 97t124.5 276l142 845h254l-140 -831
q-102 -627 -649 -627zM1499 1577h-205l-174 453h172l133 -277l228 277h172z" />
    <glyph glyph-name="Ucircumflex.swsh" horiz-adv-x="1914" 
d="M1153 -33q-272 0 -386 178.5t-67 458.5l101 613h-115q-199 0 -301 -71t-102 -191.5t71.5 -182t202.5 -61.5l-31 -187q-219 0 -339.5 117t-120.5 306t151 333q151 145 531 145h342l-140 -845q-27 -166 27.5 -269.5t202 -103.5t242 97t124.5 276l142 845h254l-140 -831
q-102 -627 -649 -627zM1468 1845l-227 -276h-172l326 450h204l175 -450h-172z" />
    <glyph glyph-name="Udieresis.swsh" horiz-adv-x="1914" 
d="M1153 -33q-272 0 -386 178.5t-67 458.5l101 613h-115q-199 0 -301 -71t-102 -191.5t71.5 -182t202.5 -61.5l-31 -187q-219 0 -339.5 117t-120.5 306t150.5 333.5t531.5 144.5h342l-140 -845q-27 -166 27.5 -269.5t202 -103.5t242 97t124.5 276l142 845h254l-140 -831
q-102 -627 -649 -627zM1609 1608q-60 0 -95 42t-25 101t58 101t108.5 42t95.5 -42t24.5 -101t-58.5 -101t-108 -42zM1195 1608q-58 0 -93 42t-25 101t58.5 101t108 42t93 -42t23.5 -101t-58.5 -101t-106.5 -42z" />
    <glyph glyph-name="Ugrave.swsh" horiz-adv-x="1914" 
d="M1153 -33q-272 0 -386 178.5t-67 458.5l101 613h-115q-199 0 -301 -71t-102 -191.5t71.5 -182t202.5 -61.5l-31 -187q-219 0 -339.5 117t-120.5 306t151 333q151 145 531 145h342l-140 -845q-27 -166 27.5 -269.5t202 -103.5t242 97t124.5 276l142 845h254l-140 -831
q-102 -627 -649 -627zM1481 1575h-172l-209 442h246z" />
    <glyph glyph-name="Uhungarumlaut.swsh" horiz-adv-x="1914" 
d="M1153 -33q-272 0 -386 178.5t-67 458.5l101 613h-115q-199 0 -301 -71t-102 -191.5t71.5 -182t202.5 -61.5l-31 -187q-219 0 -339.5 117t-120.5 306t151 333q151 145 531 145h342l-140 -845q-27 -166 27.5 -269.5t202 -103.5t241.5 97.5t125 275.5l142 845h254l-140 -831
q-102 -627 -649 -627zM1616 1575h-170l334 440h245zM1585 2015l-282 -440h-152l195 440h239z" />
    <glyph glyph-name="Umacron.swsh" horiz-adv-x="1914" 
d="M1153 -33q-272 0 -386 178.5t-67 458.5l101 613h-115q-199 0 -301 -71t-102 -191.5t71.5 -182t202.5 -61.5l-31 -187q-219 0 -339.5 117t-120.5 306t151 333q151 145 531 145h342l-140 -845q-27 -166 27.5 -269.5t202 -103.5t242 97t124.5 276l142 845h254l-140 -831
q-102 -627 -649 -627zM1806 1882l-32 -203h-709l35 203h706z" />
    <glyph glyph-name="Uogonek.swsh" horiz-adv-x="1914" 
d="M1159 -414q80 0 168 54l12 -164q-139 -70 -261 -70q-224 0 -224 178q0 221 270 383q-256 10 -362.5 186.5t-61.5 450.5l101 613h-115q-199 0 -301 -71t-102 -191.5t71.5 -182t202.5 -61.5l-31 -187q-219 0 -339.5 117t-120.5 306t151 333q151 145 531 145h342l-140 -845
q-27 -166 27.5 -269.5t202 -103.5t242 97t124.5 276l142 845h254l-140 -831q-78 -471 -409 -588q-313 -164 -314 -338q0 -82 80 -82z" />
    <glyph glyph-name="Uring.swsh" horiz-adv-x="1914" 
d="M1153 -33q-272 0 -386 178.5t-67 458.5l101 613h-115q-199 0 -301 -71t-102 -191.5t71.5 -182t202.5 -61.5l-31 -187q-219 0 -339.5 117t-120.5 306t150.5 333.5t531.5 144.5h342l-140 -845q-27 -166 27.5 -269.5t202 -103.5t242 97t124.5 276l142 845h254l-140 -831
q-102 -627 -649 -627zM1419.5 1694q53.5 0 91 31.5t46 89t-17.5 91t-79 33.5t-91 -33.5t-47 -89.5t17.5 -89t80 -33zM1398 1561q-122 0 -181.5 69.5t-40 185.5t102.5 185.5t204 69.5t180 -72t41 -184.5t-101 -183t-205 -70.5z" />
    <glyph glyph-name="V.swsh" horiz-adv-x="1808" 
d="M649 1217q-199 0 -302 -71t-103 -191.5t71.5 -182t204.5 -61.5l-33 -187q-217 0 -337.5 117t-120.5 306t151 333q151 145 531 145h305l125 -931q12 -152 12 -238q33 78 111 254l450 915h266l-727 -1425h-299l-182 1217h-123z" />
    <glyph glyph-name="W.swsh" horiz-adv-x="2457" 
d="M733 1217q-199 0 -301 -71t-102 -191.5t71.5 -182t202.5 -61.5l-33 -187q-217 0 -337.5 117t-120.5 306t151 333q151 145 531 145h301l8 -929q-4 -59 -8 -191q35 94 75 187l420 923h252l94 -893q8 -119 9 -213q51 150 65 197l334 919h262l-567 -1425h-297l-78 752
q-6 63 -14 307q-72 -207 -111 -293l-358 -766h-297l-54 1217h-98z" />
    <glyph glyph-name="Wacute.swsh" horiz-adv-x="2457" 
d="M733 1217q-199 0 -301 -71t-102 -191.5t71.5 -182t202.5 -61.5l-33 -187q-217 0 -337.5 117t-120.5 306t151 333q151 145 531 145h301l8 -929q-4 -59 -8 -191q35 94 75 187l420 923h252l94 -893q8 -119 9 -213q51 150 65 197l334 919h262l-567 -1425h-297l-78 752
q-6 63 -14 307q-72 -207 -111 -293l-358 -766h-297l-54 1217h-98zM2236 1999l-413 -424h-195l340 424h268z" />
    <glyph glyph-name="Wcircumflex.swsh" horiz-adv-x="2457" 
d="M733 1217q-199 0 -301 -71t-102 -191.5t71.5 -182t202.5 -61.5l-33 -187q-217 0 -337.5 117t-120.5 306t151 333q151 145 531 145h301l8 -929q-4 -59 -8 -191q35 94 75 187l420 923h252l94 -893q8 -119 9 -213q51 150 65 197l334 919h262l-567 -1425h-297l-78 752
q-6 63 -14 307q-72 -207 -111 -293l-358 -766h-297l-54 1217h-98zM1810 1845l-227 -276h-172l326 450h205l174 -450h-172z" />
    <glyph glyph-name="Wdieresis.swsh" horiz-adv-x="2457" 
d="M733 1217q-199 0 -301 -71t-102 -191.5t71.5 -182t202.5 -61.5l-33 -187q-217 0 -337.5 117t-120.5 306t150.5 333.5t531.5 144.5h301l8 -929q-4 -59 -8 -191q35 94 75 187l420 923h252l94 -893q8 -119 9 -213q51 150 65 197l334 919h262l-567 -1425h-297l-78 752
q-6 63 -14 307q-72 -207 -111 -293l-358 -766h-297l-54 1217h-98zM1951 1608q-60 0 -95 42t-25 101t58 101t108.5 42t95.5 -42t24.5 -101t-58.5 -101t-108 -42zM1537 1608q-58 0 -93 42t-24.5 101t58.5 101t107.5 42t93 -42t23.5 -101t-58.5 -101t-106.5 -42z" />
    <glyph glyph-name="Wgrave.swsh" horiz-adv-x="2457" 
d="M733 1217q-199 0 -301 -71t-102 -191.5t71.5 -182t202.5 -61.5l-33 -187q-217 0 -337.5 117t-120.5 306t151 333q151 145 531 145h301l8 -929q-4 -59 -8 -191q35 94 75 187l420 923h252l94 -893q8 -119 9 -213q51 150 65 197l334 919h262l-567 -1425h-297l-78 752
q-6 63 -14 307q-72 -207 -111 -293l-358 -766h-297l-54 1217h-98zM1823 1575h-172l-209 442h246z" />
    <glyph glyph-name="X.swsh" horiz-adv-x="1652" 
d="M614 1214q-131 0 -211 -76q-79 -76 -79 -192q0 -118 76 -179q77 -60 225 -48l-31 -184q-238 -13 -363 101t-125 314t136 337q136 138 360 138t374 -135t218 -395q184 303 348 530h279q-244 -317 -492 -694l248 -731h-279l-178 580l-387 -580h-287l549 770
q-80 444 -381 444z" />
    <glyph glyph-name="Y.swsh" horiz-adv-x="1693" 
d="M604 1200q-117 0 -193.5 -75.5t-76.5 -191.5t75.5 -179.5t235.5 -42.5l-27 -197q-252 -23 -382 94t-130 322.5t143.5 350t380.5 144.5t367.5 -170t159.5 -475q152 324 414 645h276q-346 -420 -620 -907l-80 -518h-256l80 500q-4 322 -97.5 511t-269.5 189z" />
    <glyph glyph-name="Yacute.swsh" horiz-adv-x="1693" 
d="M604 1200q-117 0 -193.5 -75.5t-76.5 -191.5t75.5 -179.5t235.5 -42.5l-27 -197q-252 -23 -382 94t-130 322.5t143.5 350t380.5 144.5t367.5 -170t159.5 -475q152 324 414 645h276q-346 -420 -620 -907l-80 -518h-256l80 500q-4 322 -97.5 511t-269.5 189zM1731 1999
l-414 -424h-195l340 424h269z" />
    <glyph glyph-name="Ycircumflex.swsh" horiz-adv-x="1693" 
d="M604 1200q-117 0 -193.5 -75.5t-76.5 -191.5t75.5 -179.5t235.5 -42.5l-27 -197q-252 -23 -382 94t-130 322.5t143.5 350t380.5 144.5t367.5 -170t159.5 -475q152 324 414 645h276q-346 -420 -620 -907l-80 -518h-256l80 500q-4 322 -97.5 511t-269.5 189zM1305 1845
l-228 -276h-172l326 450h205l174 -450h-172z" />
    <glyph glyph-name="Ydieresis.swsh" horiz-adv-x="1693" 
d="M604 1200q-117 0 -193.5 -75.5t-76.5 -191.5t75.5 -179.5t235.5 -42.5l-27 -197q-252 -23 -382 94t-130 322.5t143.5 350t380.5 144.5t367.5 -170t159.5 -475q152 324 414 645h276q-346 -420 -620 -907l-80 -518h-256l80 500q-4 322 -97.5 511t-269.5 189zM1445 1608
q-60 0 -95 42t-25 101t58.5 101t108.5 42t95 -42t25 -101t-58.5 -101t-108.5 -42zM1031 1608q-58 0 -93 42t-24.5 101t58.5 101t107.5 42t93 -42t23.5 -101t-58.5 -101t-106.5 -42z" />
    <glyph glyph-name="Ygrave.swsh" horiz-adv-x="1693" 
d="M604 1200q-117 0 -193.5 -75.5t-76.5 -191.5t75.5 -179.5t235.5 -42.5l-27 -197q-252 -23 -382 94t-130 322.5t143.5 350t380.5 144.5t367.5 -170t159.5 -475q152 324 414 645h276q-346 -420 -620 -907l-80 -518h-256l80 500q-4 322 -97.5 511t-269.5 189zM1317 1575
h-172l-209 442h246z" />
    <glyph glyph-name="Z.swsh" horiz-adv-x="1251" 
d="M1210 340q0 -221 -124.5 -364.5t-317.5 -143.5q-119 0 -234.5 41t-205.5 81t-166 40t-160 -51l-29 213l875 1038h-686l37 231h1018l-35 -215l-854 -991q59 -10 188 -73.5t229 -63.5t160 68.5t60 168.5q0 154 -168 238l159 176q102 -45 178 -142t76 -251z" />
    <glyph glyph-name="Zacute.swsh" horiz-adv-x="1251" 
d="M1210 340q0 -221 -124.5 -364.5t-317.5 -143.5q-119 0 -234.5 41t-205.5 81t-166 40t-160 -51l-29 213l875 1038h-686l37 231h1018l-35 -215l-854 -991q59 -10 188 -73.5t229 -63.5t160 68.5t60 168.5q0 154 -168 238l159 176q102 -45 178 -142t76 -251zM1206 1999
l-413 -424h-195l340 424h268z" />
    <glyph glyph-name="Zcaron.swsh" horiz-adv-x="1251" 
d="M1210 340q0 -221 -124.5 -364.5t-317.5 -143.5q-119 0 -234.5 41t-205.5 81t-166 40t-160 -51l-29 213l875 1038h-686l37 231h1018l-35 -215l-854 -991q59 -10 188 -73.5t229 -63.5t160 68.5t60 168.5q0 154 -168 238l159 176q102 -45 178 -142t76 -251zM811 1577h-205
l-174 453h172l133 -277l228 277h172z" />
    <glyph glyph-name="Zdotaccent.swsh" horiz-adv-x="1251" 
d="M1210 340q0 -221 -124.5 -364.5t-317.5 -143.5q-119 0 -234.5 41t-205.5 81t-166 40t-160 -51l-29 213l875 1038h-686l37 231h1018l-35 -215l-854 -991q59 -10 188 -73.5t229 -63.5t160 68.5t60 168.5q0 154 -168 238l159 176q102 -45 178 -142t76 -251zM718 1608
q-60 0 -95 43t-26 103t59.5 103.5t110.5 43.5t95 -43t26 -103.5t-59.5 -103.5t-110.5 -43z" />
    <glyph glyph-name="i.loclTRK" horiz-adv-x="491" 
d="M449 977l-164 -977h-242l162 977h244zM413.5 1460q61.5 0 98.5 -44t26.5 -105.5t-60.5 -105.5t-113.5 -44t-98 44.5t-24.5 105.5q8 61 59 105t112.5 44z" />
    <glyph glyph-name="f.ss01" horiz-adv-x="632" 
d="M639 1559q152 0 266 -72l-90 -180q-66 43 -137 43q-119 0 -146 -154l-36 -219h178l-31 -205h-180l-146 -881q-39 -221 -150.5 -323.5t-348.5 -95.5l-33 206q242 -23 289 218l145 876h-123l31 205h125l41 246q57 336 346 336z" />
    <glyph glyph-name="w.ss01" horiz-adv-x="1406" 
d="M864 977v-2h230l-179 -291l82 -455l310 744h239l-461 -975l-249 2l-88 412l-250 -410h-232l-92 979l242 -2l37 -735l241 428l-65 305h235z" />
    <glyph glyph-name="a.sc" horiz-adv-x="1105" 
d="M399 408h265l-64 409zM729 0l-35 213h-391l-104 -213h-250l545 1057h290l207 -1057h-262z" />
    <glyph glyph-name="aacute.sc" horiz-adv-x="1105" 
d="M399 408h265l-64 409zM494 1057h290l207 -1057h-262l-35 213h-391l-104 -213h-250zM1055 1651l-334 -443h-168l256 443h246z" />
    <glyph glyph-name="abreve.sc" horiz-adv-x="1105" 
d="M399 408h265l-64 409zM494 1057h290l207 -1057h-262l-35 213h-391l-104 -213h-250zM669 1237q-183 0 -260 106.5t-30 313.5h190q-49 -258 126 -258t208 258h193q-23 -207 -133.5 -313.5t-293.5 -106.5z" />
    <glyph glyph-name="uni01CE.sc" horiz-adv-x="1105" 
d="M399 408h265l-64 409zM494 1057h290l207 -1057h-262l-35 213h-391l-104 -213h-250zM762 1208h-205l-174 451h172l133 -277l227 277h172z" />
    <glyph glyph-name="acircumflex.sc" horiz-adv-x="1105" 
d="M399 408h265l-64 409zM494 1057h290l207 -1057h-262l-35 213h-391l-104 -213h-250zM711 1485l-226 -277h-172l324 451h205l176 -451h-172z" />
    <glyph glyph-name="adieresis.sc" horiz-adv-x="1105" 
d="M399 408h265l-64 409zM494 1057h290l207 -1057h-262l-35 213h-391l-104 -213h-250zM950.5 1593q59.5 0 93 -42t23.5 -101t-58 -99q-49 -40 -107 -40t-92 41t-25 99t57.5 100t108 42zM460.5 1311q-59.5 0 -93 41t-24.5 99t57.5 100t107.5 42t92 -42t24 -100t-56.5 -99
t-107 -41z" />
    <glyph glyph-name="agrave.sc" horiz-adv-x="1105" 
d="M399 408h265l-64 409zM729 0l-35 213h-391l-104 -213h-250l545 1057h290l207 -1057h-262zM750 1208h-168l-189 443h248z" />
    <glyph glyph-name="amacron.sc" horiz-adv-x="1105" 
d="M399 408h265l-64 409zM494 1057h290l207 -1057h-262l-35 213h-391l-104 -213h-250zM354 1542h707l-33 -203h-709z" />
    <glyph glyph-name="aogonek.sc" horiz-adv-x="1105" 
d="M399 408h265l-64 409zM754 -412q74 0 170 50l12 -164q-138 -66 -266 -66t-179 56.5t-40 146.5q18 225 340 389h-62l-35 213h-391l-104 -213h-250l545 1057h290l191 -977q2 2 4 2l12 -82q-309 -166 -319 -326q-4 -86 82 -86z" />
    <glyph glyph-name="aring.sc" horiz-adv-x="1105" 
d="M399 408h265l-64 409zM494 1057h290l207 -1057h-262l-35 213h-391l-104 -213h-250zM625 1485q0 -113 109 -113q54 0 102.5 44t48.5 116q1 106 -115 106q-58 0 -101.5 -47t-43.5 -106zM725.5 1249q-120.5 0 -180.5 56.5t-60 146.5q0 133 90.5 220t209 87t178 -58.5
t59.5 -167t-88 -196.5t-208.5 -88z" />
    <glyph glyph-name="atilde.sc" horiz-adv-x="1105" 
d="M399 408h265l-64 409zM494 1057h290l207 -1057h-262l-35 213h-391l-104 -213h-250zM543 1440q-68 0 -103 -217h-180q51 412 264 411q35 0 68 -19.5t51.5 -41t52.5 -64.5q68 -98 109 -98q74 0 108 219h181q-51 -414 -267 -413q-89 0 -176 116q-35 47 -40 53.5t-13 17.5
q-26 36 -55 36z" />
    <glyph glyph-name="ae.sc" horiz-adv-x="1662" 
d="M510 418h293l57 424h-55zM1647 842h-535l-29 -209h402l-27 -174h-397l-33 -240h510l-31 -219h-759l28 213h-409l-150 -213h-262l717 1057h1003z" />
    <glyph glyph-name="b.sc" horiz-adv-x="1132" 
d="M592 217q92 0 150.5 38t56.5 110q0 98 -133 98h-277l-41 -246h244zM805 752q0 90 -125 90h-227l-37 -226h233q63 0 109.5 37.5t46.5 98.5zM1047 344q0 -118 -71 -198q-130 -146 -437 -146h-476l175 1057h503q317 0 320 -221q0 -98 -58.5 -171t-160.5 -108
q205 -35 205 -213z" />
    <glyph glyph-name="c.sc" horiz-adv-x="1120" 
d="M535 -29q-184 0 -325 108q-142 108 -142 370t174 448t485 184q242 0 401 -114l-135 -205q-117 90 -282.5 90t-268 -108.5t-102.5 -259t69.5 -216t180.5 -65.5q207 0 346 114l63 -223q-169 -123 -464 -123z" />
    <glyph glyph-name="cacute.sc" horiz-adv-x="1120" 
d="M535 -29q-184 0 -325 108q-142 108 -142 370t174 448t485 184q242 0 401 -114l-135 -205q-117 90 -282.5 90t-268 -108.5t-102.5 -259t69.5 -216t180.5 -65.5q207 0 346 114l63 -223q-169 -123 -464 -123zM1133 1651l-334 -443h-168l256 443h246z" />
    <glyph glyph-name="ccaron.sc" horiz-adv-x="1120" 
d="M711 852q-166 0 -268.5 -108.5t-102.5 -259t69.5 -216t180.5 -65.5q207 0 346 114l63 -223q-170 -123 -464 -123q-184 0 -325.5 108t-141.5 370t174 448t485 184q242 0 401 -114l-135 -205q-116 90 -282 90zM840 1208h-205l-174 451h172l133 -277l227 277h172z" />
    <glyph glyph-name="ccedilla.sc" horiz-adv-x="1120" 
d="M606 -154q172 0 172 -172q0 -129 -93 -201.5t-238.5 -72.5t-249.5 63l69 131q86 -53 168.5 -53t124 34t41.5 91q0 66 -66.5 66t-109.5 -43l-115 43l135 245q-164 25 -270 139.5t-106 334.5q0 260 174 446t485 184q242 0 401 -114l-135 -205q-117 90 -282.5 90
t-268 -108.5t-102.5 -259t69.5 -216t180.5 -65.5q207 0 346 114l63 -223q-147 -109 -403 -121l-92 -145q55 18 102 18z" />
    <glyph glyph-name="cdotaccent.sc" horiz-adv-x="1120" 
d="M535 -29q-184 0 -325 108q-142 108 -142 370t174 448t485 184q242 0 401 -114l-135 -205q-117 90 -282.5 90t-268 -108.5t-102.5 -259t69.5 -216t180.5 -65.5q207 0 346 114l63 -223q-169 -123 -464 -123zM802.5 1540q61.5 0 98.5 -44t27 -105.5t-60.5 -105.5t-114 -44
t-98 44.5t-24.5 105.5q8 61 59 105t112.5 44z" />
    <glyph glyph-name="d.sc" horiz-adv-x="1234" 
d="M500 223q174 0 296 91.5t122 281.5q0 127 -71 185.5t-216 58.5h-178l-103 -617h150zM705 1057q479 0 479 -430q0 -303 -201 -465t-512 -162h-408l175 1057h467z" />
    <glyph glyph-name="eth.sc" horiz-adv-x="1234" 
d="M500 223q174 0 296 91.5t122 281.5q0 127 -71 185.5t-216 58.5h-178l-33 -201h266l-29 -188h-268l-39 -228h150zM705 1057q479 0 479 -430q0 -303 -201 -465t-512 -162h-408l74 451h-67l28 188h70l70 418h467z" />
    <glyph glyph-name="dcaron.sc" horiz-adv-x="1234" 
d="M500 223q174 0 296 91.5t122 281.5q0 127 -71 185.5t-216 58.5h-178l-103 -617h150zM705 1057q479 0 479 -430q0 -303 -201 -465t-512 -162h-408l175 1057h467zM829 1208h-204l-174 451h172l133 -277l227 277h172z" />
    <glyph glyph-name="dcroat.sc" horiz-adv-x="1234" 
d="M500 223q174 0 296 91.5t122 281.5q0 127 -71 185.5t-216 58.5h-178l-33 -201h266l-29 -188h-268l-39 -228h150zM705 1057q479 0 479 -430q0 -303 -201 -465t-512 -162h-408l74 451h-67l28 188h70l70 418h467z" />
    <glyph glyph-name="e.sc" horiz-adv-x="1015" 
d="M1016 831h-563l-33 -202h426l-27 -170h-428l-39 -234h549l-31 -225h-804l172 1057h806z" />
    <glyph glyph-name="eacute.sc" horiz-adv-x="1015" 
d="M1016 831h-563l-33 -202h426l-27 -170h-428l-39 -234h549l-31 -225h-804l172 1057h806zM1042 1651l-333 -443h-168l256 443h245z" />
    <glyph glyph-name="ecaron.sc" horiz-adv-x="1015" 
d="M66 0l172 1057h806l-28 -226h-563l-33 -202h426l-27 -170h-428l-39 -234h549l-31 -225h-804zM750 1208h-205l-174 451h172l133 -277l227 277h172z" />
    <glyph glyph-name="ecircumflex.sc" horiz-adv-x="1015" 
d="M1016 831h-563l-33 -202h426l-27 -170h-428l-39 -234h549l-31 -225h-804l172 1057h806zM698 1485l-225 -277h-172l324 451h204l177 -451h-172z" />
    <glyph glyph-name="edieresis.sc" horiz-adv-x="1015" 
d="M66 0l172 1057h806l-28 -226h-563l-33 -202h426l-27 -170h-428l-39 -234h549l-31 -225h-804zM938 1593q59 0 93 -42t23.5 -101t-58.5 -99t-106 -40t-92 41t-25 99t57.5 100t107.5 42zM448.5 1311q-59.5 0 -93 41t-24.5 99t57 100t107.5 42t92.5 -42q34 -42 24 -100
t-57 -99t-106.5 -41z" />
    <glyph glyph-name="edotaccent.sc" horiz-adv-x="1015" 
d="M1016 831h-563l-33 -202h426l-27 -170h-428l-39 -234h549l-31 -225h-804l172 1057h806zM663.5 1241q-63.5 0 -98.5 44q-35 43 -25 105t60.5 106t112 44t98.5 -44t26.5 -105.5t-60.5 -105.5t-113.5 -44z" />
    <glyph glyph-name="egrave.sc" horiz-adv-x="1015" 
d="M1016 831h-563l-33 -202h426l-27 -170h-428l-39 -234h549l-31 -225h-804l172 1057h806zM737 1208h-168l-188 443h248z" />
    <glyph glyph-name="emacron.sc" horiz-adv-x="1015" 
d="M66 0l172 1057h806l-28 -226h-563l-33 -202h426l-27 -170h-428l-39 -234h549l-31 -225h-804zM1049 1542l-33 -203h-709l35 203h707z" />
    <glyph glyph-name="eogonek.sc" horiz-adv-x="1015" 
d="M633 -412q76 0 170 50l12 -164q-139 -66 -266 -66t-178.5 56.5t-40.5 146.5q18 225 340 389h-604l172 1057h806l-28 -226h-563l-33 -202h426l-27 -170h-428l-39 -234h549l-31 -225q-309 -166 -319 -326q-4 -86 82 -86z" />
    <glyph glyph-name="f.sc" horiz-adv-x="954" 
d="M995 829h-544l-41 -247h409l-26 -205h-418l-62 -377h-250l175 1057h786z" />
    <glyph glyph-name="g.sc" horiz-adv-x="1214" 
d="M760 1085q268 0 422 -131l-164 -192q-121 90 -297.5 90t-283.5 -111.5t-103 -281.5q2 -127 84 -190.5t204 -63.5t218 31l30 182h-268l27 196h518l-92 -577q-213 -66 -442 -66q-229 1 -377 99q-78 52 -123 145.5t-45 222.5q-2 287 185 467t507 180z" />
    <glyph glyph-name="gbreve.sc" horiz-adv-x="1214" 
d="M760 1085q268 0 422 -131l-164 -192q-121 90 -297.5 90t-283.5 -111.5t-103 -281.5q2 -127 84 -190.5t204 -63.5t218 31l30 182h-268l27 196h518l-92 -577q-213 -66 -442 -66q-229 1 -377 99q-78 52 -123 145.5t-45 222.5q-2 287 185 467t507 180zM738 1237
q-183 0 -260 106.5t-29 313.5h190q-49 -258 126 -258t208 258h192q-23 -207 -133.5 -313.5t-293.5 -106.5z" />
    <glyph glyph-name="gcommaaccent.sc" horiz-adv-x="1214" 
d="M544.5 -106q72.5 0 110 -60.5t21.5 -163.5q-45 -252 -318 -366l-63 121q160 66 213 174q-10 -2 -29 -2q-59 0 -94 38.5t-24 106.5t61 110t122.5 42zM760 1085q268 0 422 -131l-164 -192q-121 90 -297.5 90t-283.5 -111.5t-103 -281.5q2 -127 84 -190.5t204 -63.5t218 31
l30 182h-268l27 196h518l-92 -577q-213 -66 -442 -66q-229 1 -377 99q-78 52 -123 145.5t-45 222.5q-2 287 185 467t507 180z" />
    <glyph glyph-name="gdotaccent.sc" horiz-adv-x="1214" 
d="M760 1085q268 0 422 -131l-164 -192q-121 90 -297.5 90t-283.5 -111.5t-103 -281.5q2 -127 84 -190.5t204 -63.5t218 31l30 182h-268l27 196h518l-92 -577q-213 -66 -442 -66q-229 1 -377 99q-78 52 -123 145.5t-45 222.5q-2 287 185 467t507 180zM745.5 1241
q-63.5 0 -98.5 44t-25.5 105.5t60.5 105.5t112.5 44t98.5 -44t26.5 -105.5t-60.5 -105.5t-113.5 -44z" />
    <glyph glyph-name="h.sc" horiz-adv-x="1234" 
d="M950 1057h248l-172 -1057h-252l72 430h-461l-72 -430h-250l175 1057h251l-65 -400h461z" />
    <glyph glyph-name="hbar.sc" horiz-adv-x="1234" 
d="M868 565l27 156h-461l-26 -156h460zM1255 913l-32 -192h-78l-119 -721h-250l58 348h-461l-58 -348h-249l118 721h-75l30 192h76l25 144h249l-24 -144h461l24 144h250l-24 -144h79z" />
    <glyph glyph-name="i.sc" horiz-adv-x="522" 
d="M487 1057l-174 -1057h-250l175 1057h249z" />
    <glyph glyph-name="iacute.sc" horiz-adv-x="522" 
d="M487 1057l-174 -1057h-250l175 1057h249zM780 1651l-334 -443h-167l256 443h245z" />
    <glyph glyph-name="uni01D0.sc" horiz-adv-x="522" 
d="M63 0l175 1057h249l-174 -1057h-250zM641 1659h172l-326 -451h-204l-174 451h172l133 -277z" />
    <glyph glyph-name="icircumflex.sc" horiz-adv-x="522" 
d="M63 0l175 1057h249l-174 -1057h-250zM567 1659l176 -451h-172l-135 277l-225 -277h-172l323 451h205z" />
    <glyph glyph-name="idieresis.sc" horiz-adv-x="522" 
d="M487 1057l-174 -1057h-250l175 1057h249zM675.5 1593q59.5 0 93.5 -42t23.5 -101t-58.5 -99t-106 -40t-92 41t-25 99t57 100t107.5 42zM233.5 1593q59.5 0 92 -42t23.5 -100t-56 -99t-106.5 -41t-93 41t-24.5 99t57 100t107.5 42z" />
    <glyph glyph-name="i.sc.loclTRK" horiz-adv-x="522" 
d="M487 1057l-174 -1057h-250l175 1057h249zM450.5 1540q61.5 0 98.5 -44t26.5 -105.5t-60.5 -105.5t-113.5 -44t-98 44.5t-24.5 105.5q8 61 59 105t112.5 44z" />
    <glyph glyph-name="igrave.sc" horiz-adv-x="522" 
d="M487 1057l-174 -1057h-250l175 1057h249zM475 1208h-168l-188 443h248z" />
    <glyph glyph-name="imacron.sc" horiz-adv-x="522" 
d="M487 1057l-174 -1057h-250l175 1057h249zM80 1542h706l-32 -203h-709z" />
    <glyph glyph-name="iogonek.sc" horiz-adv-x="522" 
d="M76 -412q76 0 170 50l12 -164q-139 -66 -266.5 -66t-178.5 56.5t-40 146.5q18 225 340 389h-50l175 1057h249l-174 -1057q-309 -166 -319 -326q-4 -86 82 -86z" />
    <glyph glyph-name="j.sc" horiz-adv-x="825" 
d="M263 -29q-173 0 -304 84l82 224q82 -78 195 -78q174 0 208 205l115 651h248l-115 -692q-35 -213 -145.5 -303.5t-283.5 -90.5z" />
    <glyph glyph-name="k.sc" horiz-adv-x="1114" 
d="M1171 1057l-419 -400l239 -657h-293l-159 453l-179 -170l-47 -283h-250l175 1057h251l-75 -449l465 449h292z" />
    <glyph glyph-name="kcommaaccent.sc" horiz-adv-x="1114" 
d="M482.5 -106q72.5 0 110.5 -60.5t21 -163.5q-45 -252 -317 -366l-64 121q160 66 213 174q-10 -2 -28 -2q-59 0 -94 38.5t-24 106.5t60.5 110t122 42zM1171 1057l-419 -400l239 -657h-293l-159 453l-179 -170l-47 -283h-250l175 1057h251l-75 -449l465 449h292z" />
    <glyph glyph-name="l.sc" horiz-adv-x="870" 
d="M350 219h457l-31 -219h-715l177 1057h251z" />
    <glyph glyph-name="lacute.sc" horiz-adv-x="870" 
d="M350 219h457l-31 -219h-715l177 1057h251zM786 1651l-333 -443h-168l256 443h245z" />
    <glyph glyph-name="lcaron.sc" horiz-adv-x="870" 
d="M489 1057l-139 -838h457l-31 -219h-715l177 1057h251zM494 1208h-205l-174 451h172l133 -277l227 277h172z" />
    <glyph glyph-name="lcommaaccent.sc" horiz-adv-x="870" 
d="M433.5 -106q72.5 0 110.5 -60.5t21 -163.5q-45 -252 -317 -366l-64 121q160 66 213 174q-10 -2 -28 -2q-59 0 -94 38.5t-24 106.5t60.5 110t122 42zM350 219h457l-31 -219h-715l177 1057h251z" />
    <glyph glyph-name="lslash.sc" horiz-adv-x="870" 
d="M350 219h457l-31 -219h-715l70 422l-174 -66l-61 197l276 104l66 400h251l-49 -297l265 100l73 -194l-377 -142z" />
    <glyph glyph-name="m.sc" horiz-adv-x="1474" 
d="M1126 1057h301l-161 -1057h-242l90 541q12 74 35 184q-70 -125 -102 -178l-299 -469h-154l-152 489l-39 156q-6 -96 -18 -170l-92 -553h-227l172 1057h282l199 -670z" />
    <glyph glyph-name="n.sc" horiz-adv-x="1208" 
d="M946 1057h228l-175 -1057h-235l-361 666l-110 -666h-230l175 1057h233l363 -674z" />
    <glyph glyph-name="nacute.sc" horiz-adv-x="1208" 
d="M946 1057h228l-175 -1057h-235l-361 666l-110 -666h-230l175 1057h233l363 -674zM1124 1651l-333 -443h-168l256 443h245z" />
    <glyph glyph-name="ncaron.sc" horiz-adv-x="1208" 
d="M946 1057h228l-175 -1057h-235l-361 666l-110 -666h-230l175 1057h233l363 -674zM831 1208h-204l-174 451h172l133 -277l227 277h172z" />
    <glyph glyph-name="ncommaaccent.sc" horiz-adv-x="1208" 
d="M521.5 -106q72.5 0 110.5 -60.5t21 -163.5q-45 -252 -317 -366l-64 121q160 66 213 174q-10 -2 -28 -2q-59 0 -94 38.5t-24 106.5t60.5 110t122 42zM946 1057h228l-175 -1057h-235l-361 666l-110 -666h-230l175 1057h233l363 -674z" />
    <glyph glyph-name="eng.sc" horiz-adv-x="1202" 
d="M948 1057h226l-177 -1043q-61 -373 -389 -372q-158 0 -280 75l80 189q72 -61 176 -62q145 0 184 146l-365 674l-110 -664h-230l175 1057h233l365 -676z" />
    <glyph glyph-name="ntilde.sc" horiz-adv-x="1208" 
d="M946 1057h228l-175 -1057h-235l-361 666l-110 -666h-230l175 1057h233l363 -674zM612 1440q-68 0 -102 -217h-180q51 412 264 411q35 0 67.5 -19.5t51 -41t53.5 -64.5q68 -98 108 -98q74 0 109 219h180q-51 -414 -266 -413q-89 0 -176 116q-60 81 -66 85.5t-16.5 13
t-26.5 8.5z" />
    <glyph glyph-name="o.sc" horiz-adv-x="1310" 
d="M594 199q176 0 287.5 116.5t109.5 260.5t-76.5 211t-191.5 67q-171 0 -281 -112t-108 -260t72.5 -215.5t187.5 -67.5zM555 -33q-207 0 -347 118t-142 351q-2 274 190.5 464t497.5 187q207 0 354 -117.5t149 -373.5t-189 -442.5t-513 -186.5z" />
    <glyph glyph-name="oacute.sc" horiz-adv-x="1310" 
d="M594 199q176 0 287.5 116.5t109.5 260.5t-76.5 211t-191.5 67q-171 0 -281 -112t-108 -260t72.5 -215.5t187.5 -67.5zM555 -33q-207 0 -347 118t-142 351q-2 274 190.5 464t497.5 187q207 0 354 -117.5t149 -373.5t-189 -442.5t-513 -186.5zM1167 1651l-333 -443h-168
l256 443h245z" />
    <glyph glyph-name="uni01D2.sc" horiz-adv-x="1310" 
d="M594 199q176 0 287.5 116.5t109.5 260t-76.5 211t-191.5 67.5q-170 0 -280.5 -112.5t-108.5 -260t72.5 -215t187.5 -67.5zM555 -33q-207 0 -347 118t-142 351q-2 274 190.5 464t497.5 187q207 0 354 -117.5t149 -373.5t-189 -442.5t-513 -186.5zM874 1208h-204l-174 451
h172l133 -277l227 277h172z" />
    <glyph glyph-name="ocircumflex.sc" horiz-adv-x="1310" 
d="M594 199q176 0 287.5 116.5t109.5 260t-76.5 211t-191.5 67.5q-170 0 -280.5 -112.5t-108.5 -260t72.5 -215t187.5 -67.5zM555 -33q-207 0 -347 118t-142 351q-2 274 190.5 464t497.5 187q207 0 354 -117.5t149 -373.5t-189 -442.5t-513 -186.5zM823 1485l-225 -277h-172
l324 451h204l176 -451h-172z" />
    <glyph glyph-name="odieresis.sc" horiz-adv-x="1310" 
d="M594 199q176 0 287.5 116.5t109.5 260t-76.5 211t-191.5 67.5q-170 0 -280.5 -112.5t-108.5 -260t72.5 -215t187.5 -67.5zM555 -33q-207 0 -347 118t-142 351q-2 274 190.5 464t497.5 187q207 0 354 -117.5t149 -373.5t-189 -442.5t-513 -186.5zM1063 1593q59 0 93 -42
t23.5 -101t-58.5 -99t-106 -40t-92 41t-25 99t57.5 100t107.5 42zM620.5 1593q59.5 0 92 -42t23.5 -100t-56 -99t-106.5 -41t-93 41t-24.5 99t57 100t107.5 42z" />
    <glyph glyph-name="ograve.sc" horiz-adv-x="1310" 
d="M594 199q176 0 287.5 116.5t109.5 260.5t-76.5 211t-191.5 67q-171 0 -281 -112t-108 -260t72.5 -215.5t187.5 -67.5zM555 -33q-207 0 -347 118t-142 351q-2 274 190.5 464t497.5 187q207 0 354 -117.5t149 -373.5t-189 -442.5t-513 -186.5zM862 1208h-168l-188 443h248z
" />
    <glyph glyph-name="ohungarumlaut.sc" horiz-adv-x="1310" 
d="M594 199q176 0 287.5 116.5t109.5 260.5t-76.5 211t-191.5 67q-171 0 -281 -112t-108 -260t72.5 -215.5t187.5 -67.5zM555 -33q-207 0 -347 118t-142 351q-2 274 190.5 464t497.5 187q207 0 354 -117.5t149 -373.5t-189 -442.5t-513 -186.5zM1380 1651l-409 -443h-170
l332 443h247zM967 1651l-281 -443h-151l194 443h238z" />
    <glyph glyph-name="omacron.sc" horiz-adv-x="1310" 
d="M594 199q176 0 287.5 116.5t109.5 260.5t-76.5 211t-191.5 67q-171 0 -281 -112t-108 -260t72.5 -215.5t187.5 -67.5zM555 -33q-207 0 -347 118t-142 351q-2 274 190.5 464t497.5 187q207 0 354 -117.5t149 -373.5t-189 -442.5t-513 -186.5zM467 1542h707l-33 -203h-709z
" />
    <glyph glyph-name="otilde.sc" horiz-adv-x="1310" 
d="M594 199q176 0 287.5 116.5t109.5 260t-76.5 211t-191.5 67.5q-170 0 -280.5 -112.5t-108.5 -260t72.5 -215t187.5 -67.5zM555 -33q-207 0 -347 118t-142 351q-2 274 190.5 464t497.5 187q207 0 354 -117.5t149 -373.5t-189 -442.5t-513 -186.5zM655 1440
q-68 0 -102 -217h-180q51 412 264 411q35 0 67.5 -19.5t51 -41t53.5 -64.5q68 -98 109 -98q74 0 108 219h180q-51 -414 -266 -413q-89 0 -176 116q-60 81 -66 85.5t-16.5 13t-26.5 8.5z" />
    <glyph glyph-name="oe.sc" horiz-adv-x="1802" 
d="M604 203q172 0 285 84l80 481q-88 82 -251 82t-273.5 -109.5t-108.5 -256t74.5 -214t193.5 -67.5zM527.5 -29q-185.5 0 -321.5 118t-138 374.5t184 439t475 182.5q174 -4 285 -57l4 29h807l-31 -215h-559l-35 -205h432l-28 -180h-435l-39 -236h551l-30 -221h-807l2 16
q-131 -45 -316.5 -45z" />
    <glyph glyph-name="p.sc" horiz-adv-x="1083" 
d="M602 541q109 0 165 48t56 126q0 117 -157 116h-215l-50 -290h201zM721 1057q369 0 369 -320q0 -190 -134.5 -302.5t-375.5 -112.5h-215l-54 -322h-250l177 1057h483z" />
    <glyph glyph-name="thorn.sc" horiz-adv-x="1075" 
d="M565 420q106 0 160.5 45t54.5 110q0 109 -145 109h-209l-43 -264h182zM678 903q367 0 366 -297q0 -180 -130 -290.5t-375 -110.5h-193l-35 -205h-250l177 1057h251l-26 -154h215z" />
    <glyph glyph-name="q.sc" horiz-adv-x="1318" 
d="M1092 -330l-656 6l27 199l655 -6zM594 199q176 0 287.5 116.5t109.5 260.5t-76.5 211t-191.5 67q-171 0 -281 -112t-108 -260t72.5 -215.5t187.5 -67.5zM555 -33q-207 0 -347 118t-142 351q-2 274 190.5 464t497.5 187q207 0 354 -117.5t149 -373.5t-189 -442.5
t-513 -186.5z" />
    <glyph glyph-name="r.sc" horiz-adv-x="1144" 
d="M625 590q94 0 147 41t53 108q0 102 -133 103h-239l-43 -252h215zM748 1057q166 0 254 -70t90 -204t-75 -227t-212 -134l205 -422h-295l-168 393h-170l-66 -393h-250l177 1057h510z" />
    <glyph glyph-name="racute.sc" horiz-adv-x="1144" 
d="M625 590q94 0 147 41t53 108q0 102 -133 103h-239l-43 -252h215zM748 1057q166 0 254 -70t90 -204t-75 -227t-212 -134l205 -422h-295l-168 393h-170l-66 -393h-250l177 1057h510zM1102 1651l-334 -443h-168l256 443h246z" />
    <glyph glyph-name="rcaron.sc" horiz-adv-x="1144" 
d="M625 590q94 0 147 41t53 108q0 102 -133 103h-239l-43 -252h215zM748 1057q166 0 254 -70t90 -204t-75 -227t-212 -134l205 -422h-295l-168 393h-170l-66 -393h-250l177 1057h510zM809 1208h-205l-174 451h172l133 -277l228 277h172z" />
    <glyph glyph-name="rcommaaccent.sc" horiz-adv-x="1144" 
d="M501.5 -106q72.5 0 110 -60.5t21.5 -163.5q-45 -252 -318 -366l-63 121q160 66 213 174q-10 -2 -29 -2q-59 0 -94 38.5t-24 106.5t61 110t122.5 42zM625 590q94 0 147 41t53 108q0 102 -133 103h-239l-43 -252h215zM748 1057q166 0 254 -70t90 -204t-75 -227t-212 -134
l205 -422h-295l-168 393h-170l-66 -393h-250l177 1057h510z" />
    <glyph glyph-name="s.sc" horiz-adv-x="948" 
d="M396.5 -29q-220.5 0 -386.5 119l84 215q123 -123 330 -123q78 0 126 36t48 89t-39 79t-127 54q-299 90 -301 324q0 145 109.5 233t321.5 88t382 -86l-123 -204q-121 80 -268 79q-74 0 -119 -29.5t-44 -79.5t36 -76.5t111 -50.5q121 -38 211 -98q110 -71 111 -231
t-120.5 -249t-342 -89z" />
    <glyph glyph-name="sacute.sc" horiz-adv-x="948" 
d="M396.5 -29q-220.5 0 -386.5 119l84 215q123 -123 330 -123q78 0 126 36t48 89t-39 79t-127 54q-299 90 -301 324q0 145 109.5 233t321.5 88t382 -86l-123 -204q-121 80 -268 79q-74 0 -119 -29.5t-44 -79.5t36 -76.5t111 -50.5q121 -38 211 -98q110 -71 111 -231
t-120.5 -249t-342 -89zM1001 1651l-333 -443h-168l256 443h245z" />
    <glyph glyph-name="scaron.sc" horiz-adv-x="948" 
d="M553 874q-74 0 -119 -29.5t-44 -79.5t36 -76.5t111 -50.5q121 -38 211 -98q110 -71 111 -231t-121 -249t-342 -89t-386 119l84 215q123 -123 330 -123q78 0 126 36t48 89t-39 79t-127 54q-299 90 -301 324q0 145 109.5 233t321.5 88t382 -86l-123 -204q-121 79 -268 79z
M709 1208h-205l-174 451h172l133 -277l227 277h172z" />
    <glyph glyph-name="scedilla.sc" horiz-adv-x="948" 
d="M518 -154q172 0 172 -172q0 -129 -93 -201.5t-238.5 -72.5t-249.5 63l69 131q86 -53 168 -53t124 34t42 91q0 66 -66.5 66t-109.5 -43l-115 43l133 241q-205 14 -344 117l84 215q123 -123 330 -123q78 0 126 36t48 89t-39 79t-127 54q-299 90 -301 324q0 145 109.5 233
t321.5 88t382 -86l-123 -204q-121 80 -268 79q-74 0 -119 -29.5t-44 -79.5t36 -76.5t111 -50.5q121 -38 211 -98q110 -71 111 -221t-93 -236.5t-256 -105.5l-94 -149q55 18 102 18z" />
    <glyph glyph-name="scommaaccent.sc" horiz-adv-x="948" 
d="M421.5 -106q72.5 0 110 -60.5t21.5 -163.5q-45 -252 -317 -366l-64 121q160 66 213 174q-10 -2 -29 -2q-59 0 -94 38.5t-23.5 106.5t61 110t122 42zM396 -29q-220 0 -386 119l84 215q123 -123 330 -123q78 0 126 36t48 89t-39 79t-127 54q-299 90 -301 324
q0 145 109.5 233t321.5 88t382 -86l-123 -204q-121 80 -268 79q-74 0 -119 -29.5t-44 -79.5t36 -76.5t111 -50.5q121 -38 211 -98q110 -71 111 -231t-121 -249t-342 -89z" />
    <glyph glyph-name="t.sc" horiz-adv-x="935" 
d="M989 1057l-28 -228h-316l-135 -829h-250l137 829h-299l31 228h860z" />
    <glyph glyph-name="tcaron.sc" horiz-adv-x="935" 
d="M98 829l31 228h860l-28 -228h-316l-135 -829h-250l137 829h-299zM682 1208h-205l-174 451h172l133 -277l228 277h172z" />
    <glyph glyph-name="uni0163.sc" horiz-adv-x="935" 
d="M471 -154q172 0 172 -172q0 -129 -93 -201.5t-239 -72.5t-250 63l70 131q86 -53 168 -53t124 34t42 91q0 66 -66.5 66t-109.5 -43l-115 43l148 268h-62l137 829h-299l31 228h860l-28 -228h-316l-135 -829h-33l-108 -172q55 18 102 18z" />
    <glyph glyph-name="uni021B.sc" horiz-adv-x="935" 
d="M374.5 -106q72.5 0 110 -60.5t21.5 -163.5q-45 -252 -318 -366l-63 121q160 66 213 174q-10 -2 -29 -2q-59 0 -94 38.5t-23.5 106.5t61 110t122 42zM989 1057l-28 -228h-316l-135 -829h-250l137 829h-299l31 228h860z" />
    <glyph glyph-name="u.sc" horiz-adv-x="1193" 
d="M523 -29q-239 0 -339 139.5t-61 383.5l92 563h252l-98 -590q-18 -119 21.5 -193.5t153.5 -74.5t186.5 70.5t94.5 199.5l99 588h247l-92 -561q-45 -270 -181 -397.5t-375 -127.5z" />
    <glyph glyph-name="uacute.sc" horiz-adv-x="1193" 
d="M523 -29q-239 0 -339 139.5t-61 383.5l92 563h252l-98 -590q-18 -119 21.5 -193.5t153.5 -74.5t186.5 70.5t94.5 199.5l99 588h247l-92 -561q-45 -270 -181 -397.5t-375 -127.5zM1112 1651l-334 -443h-168l256 443h246z" />
    <glyph glyph-name="uni01D4.sc" horiz-adv-x="1193" 
d="M523 -29q-239 0 -339 139.5t-61 383.5l92 563h252l-98 -590q-18 -119 21.5 -193.5t153.5 -74.5t186.5 70.5t94.5 199.5l99 588h247l-92 -561q-45 -270 -181 -397.5t-375 -127.5zM819 1208h-205l-174 451h172l133 -277l228 277h172z" />
    <glyph glyph-name="ucircumflex.sc" horiz-adv-x="1193" 
d="M523 -29q-239 0 -339 139.5t-61 383.5l92 563h252l-98 -590q-18 -119 21.5 -193.5t153.5 -74.5t186.5 70.5t94.5 199.5l99 588h247l-92 -561q-45 -270 -181 -397.5t-375 -127.5zM768 1485l-225 -277h-172l323 451h205l176 -451h-172z" />
    <glyph glyph-name="udieresis.sc" horiz-adv-x="1193" 
d="M523 -29q-239 0 -339 139.5t-61 383.5l92 563h252l-98 -590q-18 -119 21.5 -193.5t153.5 -74.5t186.5 70.5t94.5 199.5l99 588h247l-92 -561q-45 -270 -181 -397.5t-375 -127.5zM1007.5 1593q59.5 0 93.5 -42t23.5 -101t-58.5 -99t-106 -40t-92 41t-25 99t57 100
t107.5 42zM565.5 1593q59.5 0 92 -42t23.5 -100t-56 -99t-106.5 -41t-93.5 41t-25 99t57.5 100t108 42z" />
    <glyph glyph-name="ugrave.sc" horiz-adv-x="1193" 
d="M523 -29q-239 0 -339 139.5t-61 383.5l92 563h252l-98 -590q-18 -119 21.5 -193.5t153.5 -74.5t186.5 70.5t94.5 199.5l99 588h247l-92 -561q-45 -270 -181 -397.5t-375 -127.5zM807 1208h-168l-188 443h247z" />
    <glyph glyph-name="uhungarumlaut.sc" horiz-adv-x="1193" 
d="M523 -29q-239 0 -339 139.5t-61 383.5l92 563h252l-98 -590q-18 -119 21.5 -193.5t153.5 -74.5t186.5 70.5t94.5 199.5l99 588h247l-92 -561q-45 -270 -181 -397.5t-375 -127.5zM1325 1651l-410 -443h-170l332 443h248zM911 1651l-280 -443h-152l195 443h237z" />
    <glyph glyph-name="umacron.sc" horiz-adv-x="1193" 
d="M523 -29q-239 0 -339 139.5t-61 383.5l92 563h252l-98 -590q-18 -119 21.5 -193.5t153.5 -74.5t186.5 70.5t94.5 199.5l99 588h247l-92 -561q-45 -270 -181 -397.5t-375 -127.5zM412 1542h706l-33 -203h-708z" />
    <glyph glyph-name="uogonek.sc" horiz-adv-x="1193" 
d="M522 -393q76 0 170 49l13 -164q-139 -66 -266.5 -65.5t-178.5 56.5t-41 146q14 193 258 344q-213 14 -302 151.5t-52 369.5l92 563h252l-98 -590q-18 -119 21.5 -193.5t153.5 -74.5t186.5 70.5t94.5 199.5l99 588h247l-92 -561q-66 -410 -356 -498q-272 -154 -283 -305
q-4 -86 82 -86z" />
    <glyph glyph-name="uring.sc" horiz-adv-x="1193" 
d="M523 -29q-239 0 -339 139.5t-61 383.5l92 563h252l-98 -590q-18 -119 21.5 -193.5t153.5 -74.5t186.5 70.5t94.5 199.5l99 588h247l-92 -561q-45 -270 -181 -397.5t-375 -127.5zM682 1485q0 -113 109 -113q54 0 102.5 44t48.5 106q0 116 -106 116q-66 0 -110 -47
t-44 -106zM782.5 1249q-120.5 0 -180 56.5t-59.5 146.5q0 133 90 220t208.5 87t178 -58.5t59.5 -167t-88 -196.5t-208.5 -88z" />
    <glyph glyph-name="v.sc" horiz-adv-x="1189" 
d="M971 1057h260l-580 -1057h-295l-194 1057h266l104 -615q4 -49 15 -202q41 106 92 211z" />
    <glyph glyph-name="w.sc" horiz-adv-x="1683" 
d="M1462 1057h258l-450 -1057h-303l-64 492q-6 76 -10 235q-47 -131 -94 -233l-250 -494h-297l-74 1057h268l27 -563q-4 -119 -14 -218q39 104 71 181l297 596h250l76 -566q8 -61 12 -190l56 170z" />
    <glyph glyph-name="wacute.sc" horiz-adv-x="1683" 
d="M1462 1057h258l-450 -1057h-303l-64 492q-6 76 -10 235q-47 -131 -94 -233l-250 -494h-297l-74 1057h268l27 -563q-4 -119 -14 -218q39 104 71 181l297 596h250l76 -566q8 -61 12 -190l56 170zM1366 1651l-334 -443h-168l256 443h246z" />
    <glyph glyph-name="wcircumflex.sc" horiz-adv-x="1683" 
d="M1462 1057h258l-450 -1057h-303l-64 492q-6 76 -10 235q-47 -131 -94 -233l-250 -494h-297l-74 1057h268l27 -563q-4 -119 -14 -218q39 104 71 181l297 596h250l76 -566q8 -61 12 -190l56 170zM1022 1485l-225 -277h-172l323 451h205l176 -451h-172z" />
    <glyph glyph-name="wdieresis.sc" horiz-adv-x="1683" 
d="M1462 1057h258l-450 -1057h-303l-64 492q-6 76 -10 235q-47 -131 -94 -233l-250 -494h-297l-74 1057h268l27 -563q-4 -119 -14 -218q39 104 71 181l297 596h250l76 -566q8 -61 12 -190l56 170zM1213 1311q-58 0 -92 41t-24.5 99t57.5 100t107.5 42t93.5 -42t23.5 -101
t-59 -99t-106.5 -40zM772 1311q-59 0 -93 41t-25 99t57.5 100t108 42t92 -42t23.5 -100t-56.5 -99t-106.5 -41z" />
    <glyph glyph-name="wgrave.sc" horiz-adv-x="1683" 
d="M1462 1057h258l-450 -1057h-303l-64 492q-6 76 -10 235q-47 -131 -94 -233l-250 -494h-297l-74 1057h268l27 -563q-4 -119 -14 -218q39 104 71 181l297 596h250l76 -566q8 -61 12 -190l56 170zM1061 1208h-168l-188 443h247z" />
    <glyph glyph-name="x.sc" horiz-adv-x="1110" 
d="M1133 1057l-390 -514l242 -543h-270l-180 408l-285 -408h-281l412 567l-229 490h272l164 -379l272 379h273z" />
    <glyph glyph-name="y.sc" horiz-adv-x="1058" 
d="M1130 1057l-489 -721l-57 -336h-250l59 354l-258 703h273l147 -469l303 469h272z" />
    <glyph glyph-name="yacute.sc" horiz-adv-x="1058" 
d="M1130 1057l-489 -721l-57 -336h-250l59 354l-258 703h273l147 -469l303 469h272zM1038 1651l-333 -443h-168l256 443h245z" />
    <glyph glyph-name="ycircumflex.sc" horiz-adv-x="1058" 
d="M1130 1057l-489 -721l-57 -336h-250l59 354l-258 703h273l147 -469l303 469h272zM694 1485l-225 -277h-172l324 451h204l176 -451h-172z" />
    <glyph glyph-name="ydieresis.sc" horiz-adv-x="1058" 
d="M1130 1057l-489 -721l-57 -336h-250l59 354l-258 703h273l147 -469l303 469h272zM886 1311q-58 0 -92 41t-25 99t57 100t107.5 42t93.5 -42t23.5 -101t-58.5 -99t-106 -40zM444.5 1311q-59.5 0 -93.5 41t-24.5 99t57.5 100t107.5 42t92 -42t23.5 -100t-56 -99t-106.5 -41
z" />
    <glyph glyph-name="ygrave.sc" horiz-adv-x="1058" 
d="M1130 1057l-489 -721l-57 -336h-250l59 354l-258 703h273l147 -469l303 469h272zM733 1208h-168l-188 443h248z" />
    <glyph glyph-name="z.sc" horiz-adv-x="978" 
d="M999 1057l-26 -211l-617 -629l543 2l-31 -219h-862l31 209l612 633h-516l31 215h835z" />
    <glyph glyph-name="zacute.sc" horiz-adv-x="978" 
d="M133 842l31 215h835l-26 -211l-617 -629l543 2l-31 -219h-862l31 209l612 633h-516zM1018 1651l-334 -443h-168l256 443h246z" />
    <glyph glyph-name="zcaron.sc" horiz-adv-x="978" 
d="M133 842l31 215h835l-26 -211l-617 -629l543 2l-31 -219h-862l31 209l612 633h-516zM725 1208h-205l-174 451h172l133 -277l228 277h172z" />
    <glyph glyph-name="zdotaccent.sc" horiz-adv-x="978" 
d="M999 1057l-26 -211l-617 -629l543 2l-31 -219h-862l31 209l612 633h-516l31 215h835zM638 1241q-64 0 -98 44q-34 43 -25 105t60.5 106t113 44t98 -44t26.5 -105.5t-60.5 -105.5t-114.5 -44z" />
    <glyph glyph-name="zero.lf" horiz-adv-x="1323" 
d="M602 213q188 0 313 195t125 466q0 176 -68 259q-69 82 -179 81q-186 0 -315 -194q-128 -195 -128 -457q0 -350 252 -350zM567 -33q-225 1 -356 145t-131 408t92 474t265 336t387 126t350 -136t135 -425q0 -372 -189 -642q-90 -130 -234 -208t-319 -78z" />
    <glyph glyph-name="one.lf" horiz-adv-x="606" 
d="M606 1425l-235 -1425h-254l198 1208l-149 -2l35 219h405z" />
    <glyph glyph-name="two.lf" horiz-adv-x="1101" 
d="M782 1024q0 193 -202 193q-170 0 -344 -134l-84 209q231 164 499 164q184 0 297 -91t113 -290q-1 -331 -402 -657l-239 -191h616l-39 -227h-968l37 211l321 270q207 166 301 289t94 254z" />
    <glyph glyph-name="three.lf" horiz-adv-x="1071" 
d="M461 -33q-272 0 -481 180l135 197q135 -133 317 -133q119 0 200 63q81 64 81 166t-72 150t-180 49h-101l31 176h94q115 0 207 69t92 162q0 171 -194 171t-365 -138l-67 215q225 162 522 162q387 0 387 -313q0 -151 -91 -257t-228 -155q104 -37 166 -118t63 -203
q0 -213 -143 -328t-373 -115z" />
    <glyph glyph-name="four.lf" horiz-adv-x="1181" 
d="M283 477h424l116 699zM1143 477l-35 -207h-186l-45 -270h-250l45 270h-678l37 217l755 938h326l-158 -948h189z" />
    <glyph glyph-name="five.lf" horiz-adv-x="1069" 
d="M438 213q125 0 211 71t86 210q0 94 -49 141t-127 47q-156 0 -266 -111l-158 74l131 780h801l-39 -229h-559l-66 -397q125 67 258 67t239 -85t108 -269q0 -264 -157 -404t-396 -141q-281 0 -451 152l102 215q121 -121 332 -121z" />
    <glyph glyph-name="six.lf" horiz-adv-x="1204" 
d="M600 205q114 0 197 78q84 79 84 195q1 116 -61 163t-170 47t-194 -79q-87 -79 -87 -182t58 -163q59 -59 173 -59zM94 512q0 408 211 676t539 268q229 0 381 -137l-162 -189q-98 92 -236 93q-180 0 -308 -160t-148 -391q57 94 159 150t236 57q133 0 246 -75
q59 -40 96 -119t37 -185q-2 -240 -156 -386t-411 -147q-213 0 -349 133q-135 133 -135 412z" />
    <glyph glyph-name="seven.lf" horiz-adv-x="1003" 
d="M176 1425h905l-618 -1425h-283l551 1194h-594z" />
    <glyph glyph-name="eight.lf" horiz-adv-x="1185" 
d="M854 442q0 201 -260 201q-118 0 -203 -70q-84 -70 -84 -174q1 -194 228 -194q151 -1 235 65t84 172zM434 987q0 -192 211 -192q103 -1 185 73t81 172q-1 183 -225 183q-108 0 -180 -69t-72 -167zM1106 408q0 -209 -158 -325t-448 -116q-463 0 -463 352q0 155 91 261
t243 147q-178 90 -178 295q0 178 139 306t403 128q203 0 319 -85t115 -257q-1 -142 -83 -242t-207 -149q227 -72 227 -315z" />
    <glyph glyph-name="nine.lf" horiz-adv-x="1183" 
d="M393 934q1 -189 211 -189q106 0 190 78q85 78 85 174q-1 95 -63 159t-166 64t-181 -87q-76 -88 -76 -199zM690 1456q180 0 314 -126q68 -66 108 -182t39 -271q0 -246 -80 -450t-243 -332t-382 -128q-268 0 -452 174l129 213q129 -145 306 -145t288 135t139 377
q-135 -168 -377 -168q-143 0 -245 89q-101 89 -101 265q1 225 153 387t404 162z" />
    <glyph glyph-name="zero.osf" horiz-adv-x="1204" 
d="M526 170q172 0 283 135t111 318q0 137 -64 203t-162 65q-174 0 -284 -136t-111 -315q0 -270 227 -270zM500 -31q-205 0 -325 115t-120 340q1 276 183 471t485 195q188 0 313 -112t125 -345q0 -272 -173 -468t-488 -196z" />
    <glyph glyph-name="one.osf" horiz-adv-x="581" 
d="M522 1057l-172 -1057h-246l140 848h-119l35 209h362z" />
    <glyph glyph-name="two.osf" horiz-adv-x="1011" 
d="M473 866q-166 0 -309 -139l-105 170q197 190 486 190q178 0 280 -85t103 -254q0 -328 -539 -545h543l-39 -203h-854l35 221q313 141 450 243t138 226q0 176 -189 176z" />
    <glyph glyph-name="three.osf" horiz-adv-x="997" 
d="M338 -178q117 0 204 63t87 171t-78 158q-78 52 -199 52h-100l31 180h94q113 0 209 71t96 181q0 168 -175 168t-339 -125l-107 181q213 166 514 165q143 0 250 -64q57 -33 91 -101t34 -162q0 -148 -92 -248t-237 -145q117 -33 183 -119t66 -219q0 -203 -150 -317
t-388 -114t-441 181l132 184q123 -141 315 -141z" />
    <glyph glyph-name="four.osf" horiz-adv-x="1134" 
d="M217 188h391l103 641zM1038 188l-34 -190h-175l-55 -356h-254l58 356h-621l31 197l669 858h338l-135 -865h178z" />
    <glyph glyph-name="five.osf" horiz-adv-x="1032" 
d="M938 106q0 -248 -156 -378t-420 -131q-264 0 -438 151l113 205q115 -129 338 -129q129 0 215 70t86 194q0 231 -199 234q-147 0 -246 -91l-157 74l119 750h800l-39 -230h-555l-63 -391q113 66 247 66t238 -84q53 -43 85 -123t32 -187z" />
    <glyph glyph-name="six.osf" horiz-adv-x="1148" 
d="M584 197q108 0 186 81q78 80 78 200t-60 169t-158 49q-100 0 -183 -81t-83 -186t56 -169t164 -63zM760 879q142 -1 242 -93t100 -286q0 -242 -148 -387t-397 -146q-205 -1 -334 141t-129 429q0 391 202 655t513 264q205 0 360 -113l-135 -190q-102 80 -237 80
q-178 0 -303 -170t-142 -412q57 100 162 164q104 64 246 64z" />
    <glyph glyph-name="seven.osf" horiz-adv-x="937" 
d="M106 1057h877l-547 -1417h-282l481 1185h-567z" />
    <glyph glyph-name="eight.osf" horiz-adv-x="1157" 
d="M295 406q1 -210 243 -211q124 1 203 69q80 68 80 178q1 207 -247 207q-114 -1 -197 -71q-82 -70 -82 -172zM864 1040q0 193 -206 193q-100 0 -170 -72q-68 -72 -68 -174t49 -149t147 -47q98 -1 172 73q76 74 76 176zM1071 408q-1 -209 -153 -325t-429 -116
q-201 0 -323 92q-122 91 -123 255q0 164 87 267t230 146q-174 88 -174 295q0 178 133 306t386 128q188 0 299 -86t110 -262q0 -140 -78 -238t-196 -147q231 -76 231 -315z" />
    <glyph glyph-name="nine.osf" horiz-adv-x="1134" 
d="M301 578q1 -208 213 -207q106 0 190 79t84 178t-62 166t-153 66q-119 0 -195 -88t-77 -194zM596 1087q186 0 318 -140t133 -441q0 -244 -76 -445t-235 -327q-158 -126 -386 -127q-228 0 -407 157l106 207q115 -141 303 -141t300 143t139 402q-133 -190 -394 -191
q-145 0 -243 89t-99 266q-1 225 147 387t394 161z" />
    <glyph glyph-name="uni0308.case" 
d="M-65 1159q-60 0 -95 42t-24.5 101.5t58.5 101.5t108.5 42t95.5 -42t24.5 -101.5t-59 -101.5t-108.5 -42zM-478 1159q-58 0 -93 42t-25 101.5t58.5 101.5t107.5 42t93 -42t23.5 -101.5t-58.5 -101.5t-106 -42z" />
    <glyph glyph-name="uni0307.case" 
d="M-19.5 1452q60.5 0 95.5 -43t25.5 -103t-59.5 -103.5t-110.5 -43.5t-95 43.5t-25.5 103.5t59 103t110.5 43z" />
    <glyph glyph-name="gravecomb.case" 
d="M-88 1126l-209 443h246l135 -443h-172z" />
    <glyph glyph-name="acutecomb.case" 
d="M236 1550l-414 -424h-195l340 424h269z" />
    <glyph glyph-name="uni030B.case" 
d="M168 1567l-410 -441h-170l334 441h246zM-272 1567l-283 -441h-152l195 441h240z" />
    <glyph glyph-name="uni0302.case" 
d="M74 1126h-172l-133 277l-228 -277h-172l326 451h205z" />
    <glyph glyph-name="uni030C.case" 
d="M-31 1581h172l-325 -453h-205l-174 453h172l133 -276z" />
    <glyph glyph-name="uni0306.case" 
d="M-289.5 1139q-183.5 0 -260.5 106.5t-30 313.5h191q-51 -258 125 -258.5t209 258.5h192q-25 -207 -134 -313.5t-292.5 -106.5z" />
    <glyph glyph-name="uni030A.case" 
d="M-127 1491q-53 0 -91 -34t-47 -90t17.5 -89t79.5 -33t91 32t46 89t-17.5 91t-78.5 34zM-104.5 1622q120.5 0 180 -71.5t41 -184.5t-101.5 -183.5t-204.5 -70.5t-181 69.5t-40.5 185.5t102.5 185.5t204 69.5z" />
    <glyph glyph-name="tildecomb.case" 
d="M-414 1384q-76 0 -110 -215h-178q49 410 262 410q47 0 90 -35q42 -35 70 -76q74 -110 126 -110q78 0 113 217h180q-51 -412 -270 -412q-59 0 -111.5 55.5t-94.5 110.5t-77 55z" />
    <glyph glyph-name="uni0304.case" 
d="M-625 1231l35 203h707l-33 -203h-709z" />
    <glyph glyph-name="uni0326.case" 
d="M-346.5 -106q72.5 0 110 -60.5t21.5 -163.5q-45 -252 -317 -366l-64 121q160 66 213 174q-10 -2 -29 -2q-59 0 -94 38.5t-23.5 106.5t61 110t122 42z" />
    <glyph glyph-name="uni0327.case" 
d="M-326.5 -98q66.5 0 111.5 -43t45 -127q0 -141 -93 -215t-247 -74t-238 68l70 137q20 -23 69.5 -43.5t115 -20.5t107.5 33t42 90q0 72 -70 72t-121 -47l-112 43l166 291h147l-117 -187q58 23 124.5 23z" />
    <glyph glyph-name="uni0328.case" 
d="M-464 -555q-224 0 -224 178q0 156 130 276.5t329 196.5l86 -49q-319 -164 -320 -340q0 -82 80 -82t168 53l12 -163q-139 -70 -261 -70z" />
    <glyph glyph-name="caron.alt" horiz-adv-x="356" 
d="M489 1532l-192 -617h-147l112 617h227z" />
    </font>
</defs>
</svg>
