<?xml version="1.0" standalone="no"?>
<!DOCTYPE svg PUBLIC "-//W3C//DTD SVG 1.1//EN" "http://www.w3.org/Graphics/SVG/1.1/DTD/svg11.dtd" >
<svg xmlns="http://www.w3.org/2000/svg">
<metadata>
Created by FontPrep 20130207 at Wed Nov 23 14:29:07 2016
 By Tina Muller
Copyright (c) 2016 by Enrique Hernandez Vasquez. All rights reserved.
</metadata>
<defs>
<font id="32edf52305e638decec86a929348ff29" horiz-adv-x='1024' >
  <font-face 
    font-family="IsidoraAlt-SemiBold"
    font-weight="600"
    font-stretch="normal"
    units-per-em="2048"
    panose-1="0 0 7 0 0 0 0 0 0 0"
    ascent="1638"
    descent="-410"
    x-height="1024"
    cap-height="1331"
    bbox="-346 -717 2636 1880"
    underline-thickness="102"
    underline-position="-102"
    unicode-range="U+0020-FB02"
  />
<missing-glyph horiz-adv-x="1177" 
d="M784 -289h-391v-78h166l-166 -110v-78h391v78h-239l164 110h75v78zM707 -45v-111h-236v111h236zM784 33h-391v-266h391v266zM784 440h-235v-133h80v55h78v-110h-236v188h-78v-266h391v266zM784 727h-77v-156h-314v-79h391v235zM784 868h-391v-77h156v-89h-156v-75h236
v164h155v77zM549 1096v-84h-78v84h78zM629 1178h-236v-246h391v80h-155v166zM784 1481h-389v-78h154v-88h-156v-78h391v78h-155v88h155v78zM965 1638v-2355h-746v2355h746z" />
    <glyph glyph-name="fi" unicode="fi" horiz-adv-x="1218" 
d="M937 1108q-60 0 -103 43t-43 104t43 105t103 43q60 0 103 -43q43 -42 43 -104t-43 -105t-103 -43zM1025 -25q-91 -1 -146 63t-56 173v639h-389v-942q0 -109 -55 -172q-55 -64 -147 -64t-138 35l-10 14l33 152l16 6q10 -12 31 -12q47 0 47 88v895h-174v174h176v37
q0 184 102 277t254 94q86 0 164 -37l8 -17l-53 -145l-16 -8q-41 23 -84 22q-152 0 -152 -186v-37h611v-764q0 -90 47 -90q16 0 32 12l15 -6l33 -151l-9 -15q-49 -35 -140 -35z" />
    <glyph glyph-name="fl" unicode="fl" horiz-adv-x="1208" 
d="M1011 -25q-91 -1 -145 63t-55 173v956q-45 74 -176 74q-199 0 -199 -201v-16h283v-174h-283l-2 -942q0 -109 -55 -172q-55 -64 -147 -64t-138 35l-10 14l33 152l16 6q10 -12 33 -12q45 0 45 88v895h-174v174h174v25q0 180 118 278t308 98t293 -75q102 -76 102 -211v-879
q0 -90 47 -90q16 0 33 12l14 -6l33 -151l-8 -15q-49 -35 -140 -35z" />
    <glyph glyph-name=".notdef" horiz-adv-x="1177" 
d="M784 -289h-391v-78h166l-166 -110v-78h391v78h-239l164 110h75v78zM707 -45v-111h-236v111h236zM784 33h-391v-266h391v266zM784 440h-235v-133h80v55h78v-110h-236v188h-78v-266h391v266zM784 727h-77v-156h-314v-79h391v235zM784 868h-391v-77h156v-89h-156v-75h236
v164h155v77zM549 1096v-84h-78v84h78zM629 1178h-236v-246h391v80h-155v166zM784 1481h-389v-78h154v-88h-156v-78h391v78h-155v88h155v78zM965 1638v-2355h-746v2355h746z" />
    <glyph glyph-name=".null" horiz-adv-x="0" 
 />
    <glyph glyph-name="nonmarkingreturn" horiz-adv-x="681" 
 />
    <glyph glyph-name="space" unicode=" " horiz-adv-x="481" 
 />
    <glyph glyph-name="exclam" unicode="!" horiz-adv-x="514" 
d="M256 268q62 0 108 -46t46 -109t-45 -109t-109 -45q-64 0 -110 45q-46 44 -46 108t46 110q47 46 110 46zM139 1321l13 10h208l13 -12l-27 -930l-14 -14h-152l-12 14z" />
    <glyph glyph-name="quotedbl" unicode="&#x22;" horiz-adv-x="698" 
d="M434 819l-39 512h199l-39 -512h-121zM143 819l-39 512h199l-39 -512h-121z" />
    <glyph glyph-name="numbersign" unicode="#" horiz-adv-x="1261" 
d="M496 512h264l43 307h-264zM248 0l51 365h-231l20 147h231l41 307h-229l21 148h231l49 362h178l-51 -362h266l49 362h179l-52 -362h193l-18 -148h-195l-43 -307h192l-20 -147h-192l-52 -365h-176l51 365h-264l-53 -365h-176z" />
    <glyph glyph-name="dollar" unicode="$" horiz-adv-x="937" 
d="M858 432q0 -125 -82 -203t-213 -98v-151h-176v151q-199 31 -317 178v17l108 106h15q41 -59 115 -97t156 -38q83 0 136 37t53 88t-38 86q-37 35 -75 51t-116 44q-134 48 -224 113q-91 65 -90 188q1 124 76 201q76 77 201 97v150h176v-152q172 -29 258 -147v-19l-106 -102
h-15q-90 109 -231 108q-72 0 -113 -32t-41 -74q0 -43 28 -73t88 -59t104 -43q43 -13 97 -38t74 -38q87 -58 106 -92q46 -81 46 -159z" />
    <glyph glyph-name="percent" unicode="%" horiz-adv-x="1703" 
d="M1318 121q71 -1 114 65t43 174t-43 175q-43 65 -114 65t-113 -66t-42 -174q0 -109 42 -174t113 -65zM1319 -25q-141 1 -230 107t-90 278t89 280t231 108t229 -108t88 -280t-88 -278t-229 -107zM543 970q0 108 -43 174t-114 64q-71 0 -113 -66t-42 -174t42 -174t113 -65
q71 0 114 66q43 67 43 175zM248 20l1020 1311h184l8 -20l-1020 -1311h-184zM387 584q-141 0 -229 106t-88 278t88 279t229 107t229 -106t88 -279t-88 -279t-229 -106z" />
    <glyph glyph-name="ampersand" unicode="&#x26;" horiz-adv-x="1312" 
d="M614 137q88 0 166 33l-342 494l-10 12q-145 -96 -135 -266q4 -121 93 -197t228 -76zM1118 -43q-102 0 -205 74q-135 -68 -303 -68q-233 0 -383 128t-149 331q0 127 66 232q67 105 178 169q-84 133 -84 257t104 206t264 80q219 0 348 -172v-16l-118 -101h-17
q-76 119 -196 117q-70 -2 -118 -38t-48 -110t137 -274l334 -479q41 66 41 147q0 125 -78 213v15l149 96h17q117 -144 117 -320t-111 -299q37 -18 79 -18t89 29l14 -9l47 -133l-6 -14q-66 -43 -168 -43z" />
    <glyph glyph-name="quotesingle" unicode="'" horiz-adv-x="407" 
d="M143 819l-39 512h199l-39 -512h-121z" />
    <glyph glyph-name="parenleft" unicode="(" horiz-adv-x="632" 
d="M309 573q0 -237 82 -465t225 -407h-233q-139 187 -219 415t-80 457t80 457t219 416h233q-143 -178 -225 -408t-82 -465z" />
    <glyph glyph-name="parenright" unicode=")" horiz-adv-x="632" 
d="M549 574q0 -230 -80 -457t-219 -416h-234q144 177 226 407t82 466t-82 464q-82 230 -226 408h234q139 -188 219 -416q80 -226 80 -456z" />
    <glyph glyph-name="asterisk" unicode="*" horiz-adv-x="903" 
d="M379 1372h145v-244l211 123l74 -125l-213 -122l213 -123l-74 -125l-211 123v-246h-145v246l-211 -123l-74 125l213 123l-213 122l74 125l211 -123v244z" />
    <glyph glyph-name="plus" unicode="+" horiz-adv-x="1120" 
d="M1051 694v-162h-400v-391h-180v391h-401v162h401v387h180v-387h400z" />
    <glyph glyph-name="comma" unicode="," horiz-adv-x="503" 
d="M94 127q0 66 45 110t112 44q67 -1 111 -47t44 -121q2 -180 -232 -465h-18l-90 76v16q100 123 120 246q-92 43 -92 141z" />
    <glyph glyph-name="hyphen" unicode="-" horiz-adv-x="974" 
d="M123 702h729v-176h-729v176z" />
    <glyph glyph-name="period" unicode="." horiz-adv-x="495" 
d="M248 -8q-63 0 -109 46q-45 46 -45 109t45 109t109 45q64 0 109 -45q46 -45 46 -110q0 -66 -46 -110t-109 -44z" />
    <glyph glyph-name="slash" unicode="/" horiz-adv-x="1128" 
d="M870 1442h203l8 -15l-823 -1536h-199l-12 15z" />
    <glyph glyph-name="zero" unicode="0" horiz-adv-x="1286" 
d="M319 666q-1 -222 89 -358t235 -136t235 136q89 136 89 358t-89 357q-88 136 -234 136t-236 -136t-89 -357zM1192 666q0 -310 -152 -500t-398 -190t-398 190t-152 500t153 499q153 191 399 191t396 -190q152 -190 152 -500z" />
    <glyph glyph-name="one" unicode="1" horiz-adv-x="706" 
d="M510 1331v-1331h-225v1145h-252l-6 16l57 170h426z" />
    <glyph glyph-name="two" unicode="2" horiz-adv-x="1099" 
d="M1020 186v-186h-948v158q64 61 170 160q294 273 383 381q89 107 106 162q16 55 17 95q0 96 -65 154t-171 59q-166 0 -297 -157h-16l-113 110v17q186 217 444 217q195 0 317 -108t122 -277t-122 -323t-452 -462h625z" />
    <glyph glyph-name="three" unicode="3" horiz-adv-x="1107" 
d="M1016 367q0 -166 -132 -279t-356 -113q-137 -1 -269 61t-210 159v16l119 113h16q54 -68 146 -115t202 -47t182 62t72 165t-84 169t-225 67h-100v161h106q117 0 190 58t73 144q0 87 -62 134q-61 47 -164 47q-174 0 -284 -116h-17l-106 116v15q176 172 434 172
q186 0 306 -93t120 -257q0 -191 -180 -291q223 -98 223 -348z" />
    <glyph glyph-name="four" unicode="4" horiz-adv-x="1165" 
d="M690 481v512l-411 -512h411zM903 305v-305h-225v305h-643v152l715 874h153v-850h191l2 -176h-193z" />
    <glyph glyph-name="five" unicode="5" horiz-adv-x="1146" 
d="M590 893q207 0 344 -126t137 -332t-143 -333t-369 -127q-145 1 -274 57t-209 161v16l121 115h16q57 -72 145 -117t202 -45t200 76t86 198t-85 199q-85 76 -212 76q-84 0 -159 -36t-116 -89h-18l-143 67l110 678h750v-192h-588l-47 -305q115 59 252 59z" />
    <glyph glyph-name="six" unicode="6" horiz-adv-x="1148" 
d="M305 433q0 -117 77 -195t209 -78t210 78t78 196t-78 195q-78 78 -208 78t-209 -78t-79 -196zM606 891q220 0 358 -129t138 -328t-142 -329t-368 -130q-224 1 -368 133t-143 340t135 440q134 230 411 517h16l133 -113v-16q-231 -227 -358 -426q92 41 188 41z" />
    <glyph glyph-name="seven" unicode="7" horiz-adv-x="980" 
d="M952 1331v-117l-530 -1214h-225l-9 12l494 1125h-645v194h915z" />
    <glyph glyph-name="eight" unicode="8" horiz-adv-x="1206" 
d="M603 156q128 0 211 70t83 181q0 109 -84 181t-210 72t-210 -72q-84 -70 -84 -180t83 -182q83 -70 211 -70zM602 1180q-90 0 -148 -50t-58 -131q0 -80 58 -131t147 -51t150 51q60 51 60 131q1 81 -59 131t-150 50zM1124 393q0 -182 -148 -300t-374 -118t-373 117t-147 301
q0 119 62 210t171 142q-137 99 -137 259t120 256t304 96t305 -98t121 -259q0 -162 -137 -254q109 -53 171 -144t62 -208z" />
    <glyph glyph-name="nine" unicode="9" horiz-adv-x="1148" 
d="M270 896q0 -118 78 -196t208 -78t209 80q79 78 79 196t-78 195t-209 77t-209 -78t-78 -196zM557 1354q227 0 369 -129t141 -342q0 -391 -545 -959h-16l-135 113v16q246 242 364 430q-96 -45 -198 -45q-211 0 -352 130q-140 130 -140 328t142 328q143 130 370 130z" />
    <glyph glyph-name="colon" unicode=":" horiz-adv-x="544" 
d="M272 -16q-63 0 -108 46t-45 109t45 109t108 45q64 0 110 -45t46 -110q0 -66 -46 -110t-110 -44zM272 762q-63 0 -108 46t-45 110t45 108q45 45 108 45q64 0 110 -45q46 -46 46 -110t-46 -109t-110 -45z" />
    <glyph glyph-name="semicolon" unicode=";" horiz-adv-x="573" 
d="M133 127q0 66 44 110t112 44q67 -1 111 -47t44 -121q2 -180 -231 -465h-18l-91 76v16q100 123 121 246q-92 43 -92 141zM446 910q0 -64 -44 -110t-110 -46q-64 0 -111 46q-46 46 -46 110t46 110q45 46 109 45q64 0 110 -45t46 -110z" />
    <glyph glyph-name="less" unicode="&#x3c;" horiz-adv-x="1036" 
d="M909 1038l-8 -12l-606 -367l606 -362l8 -12v-179l-12 -10l-838 496v133l838 502l12 -10v-179z" />
    <glyph glyph-name="equal" unicode="=" horiz-adv-x="1241" 
d="M131 465h979v-164h-979v164zM131 920h979v-164h-979v164z" />
    <glyph glyph-name="greater" unicode="&#x3e;" horiz-adv-x="1036" 
d="M139 1227l838 -502v-133l-838 -496l-12 10v179l8 12l606 362l-606 367l-8 12v179z" />
    <glyph glyph-name="question" unicode="?" horiz-adv-x="1056" 
d="M522 268q62 0 108 -46t46 -109t-45 -109t-109 -45q-64 0 -109 45q-46 44 -46 108t46 110t109 46zM528 1356q186 0 318 -102q131 -102 131 -261q0 -121 -69 -205q-69 -85 -124 -133q-56 -49 -88 -79q-69 -65 -65 -158v-37h-217v37q0 124 78 213q42 48 104 103t78 75
q63 79 63 164q0 84 -68 138q-69 54 -165 54t-165 -53t-91 -133l-19 -6l-170 49l-2 16q43 146 164 232t307 86z" />
    <glyph glyph-name="at" unicode="@" horiz-adv-x="1775" 
d="M843 276q101 0 165 66q63 66 63 180t-63 180q-62 66 -164 66t-164 -70t-62 -176t62 -176t163 -70zM870 -266q-326 0 -556 222t-230 555t231 556t579 223t567 -206q220 -206 220 -513q0 -205 -100 -321t-258 -115q-158 0 -213 125q-111 -123 -284 -123q-172 0 -280 109
q-108 108 -108 274t109 278t267 112t269 -107v102h154v-487q0 -139 98 -139q72 1 123 81t51 218q0 252 -173 408q-172 156 -448 155q-276 0 -455 -180q-179 -181 -179 -453t179 -448t452 -177q162 0 327 99h15l73 -107v-14q-174 -127 -430 -127z" />
    <glyph glyph-name="A" unicode="A" horiz-adv-x="1478" 
d="M500 442h469l-234 566zM1324 -25q-83 0 -140 50q-57 45 -133 219l-11 26h-614l-10 -26q-70 -168 -133 -219q-55 -49 -133 -49t-134 34l-8 17l39 159l16 7q52 -36 94 8q22 23 46 86l452 1044h164l457 -1044q35 -76 49 -90q48 -37 92 -4l15 -7l41 -159l-11 -17
q-55 -35 -138 -35z" />
    <glyph glyph-name="B" unicode="B" horiz-adv-x="1308" 
d="M739 184q115 0 184 56t68 151q0 94 -68 151q-69 56 -184 56h-340v-414h340zM926 956q0 92 -60 142t-172 49h-295v-381h295q112 0 172 49t60 141zM1219 369q0 -165 -120 -267t-368 -102h-559v1331h539q236 0 341 -97t105 -257q0 -189 -184 -281q102 -43 174 -127t72 -200z
" />
    <glyph glyph-name="C" unicode="C" horiz-adv-x="1396" 
d="M315 666q0 -211 136.5 -348.5t339.5 -137.5q119 0 220 51.5t169 139.5h16l143 -117v-16q-96 -123 -239.5 -193t-308.5 -70q-299 0 -504 198t-205 493t205 492.5t504 197.5q166 0 309 -69.5t239 -192.5v-17l-143 -116h-16q-68 88 -169.5 139t-219.5 51q-203 0 -339.5 -137
t-136.5 -348z" />
    <glyph glyph-name="D" unicode="D" horiz-adv-x="1495" 
d="M709 193q213 0 341 129t128 344t-128 344t-341 129h-310v-946h310zM715 1331q315 0 505 -182t191 -482q0 -299 -190 -483t-506 -184h-543v1331h543z" />
    <glyph glyph-name="E" unicode="E" horiz-adv-x="1171" 
d="M1083 1139h-684v-377h535v-184h-535v-385h684v-193h-911v1331h911v-192z" />
    <glyph glyph-name="F" unicode="F" horiz-adv-x="1069" 
d="M1024 1139h-625v-379h492v-187h-492v-573h-227v1331h852v-192z" />
    <glyph glyph-name="G" unicode="G" horiz-adv-x="1527" 
d="M786 -25q-297 0 -500.5 198t-203.5 493t205 492.5t504 197.5q168 0 311 -68.5t239 -189.5v-15l-145 -122h-16q-68 88 -169.5 139t-219.5 51q-203 0 -339.5 -137t-136.5 -348t136.5 -348.5t326.5 -137.5t320.5 109.5t146.5 271.5h-457v178h664l16 -14q4 -27 5 -78
q0 -283 -195 -477.5t-492 -194.5z" />
    <glyph glyph-name="H" unicode="H" horiz-adv-x="1499" 
d="M1102 1331h227v-1331h-227v573h-703v-573h-227v1331h227v-565h703v565z" />
    <glyph glyph-name="I" unicode="I" horiz-adv-x="829" 
d="M745 1145h-217v-959h217v-186h-659v186h215v959h-215v186h659v-186z" />
    <glyph glyph-name="J" unicode="J" horiz-adv-x="1046" 
d="M242 1331h649v-870q0 -242 -121 -364t-321 -122q-270 0 -418 205v19l137 127h16q98 -145 252 -146q98 0 163 68t65 188v703h-422v192z" />
    <glyph glyph-name="K" unicode="K" horiz-adv-x="1333" 
d="M1198 -25q-168 0 -321 189l-332 401l-113 -123v-442h-227v1047q0 55 -11.5 80.5t-40 25.5t-38.5 -14l-17 6l-37 160l11 16q53 35 149 35t153.5 -66.5t57.5 -175.5v-397l567 614h258l9 -12l-557 -608l350 -418q98 -115 166 -115q33 0 57 15l16 -7l43 -157l-6 -15
q-55 -39 -137 -39z" />
    <glyph glyph-name="L" unicode="L" horiz-adv-x="1028" 
d="M999 193v-193h-827v1331h227v-1138h600z" />
    <glyph glyph-name="M" unicode="M" horiz-adv-x="1857" 
d="M1656 -25q-84 -1 -144 57t-74 167l-78 643l-367 -842h-131l-366 842l-78 -643q-14 -109 -74 -166t-144 -57q-82 0 -137 34l-10 17l41 159l15 7q18 -15 45 -15t42 27t23 98l115 1028h149l445 -1020l444 1020h152l114 -1028q8 -73 24 -99t42 -26q27 0 45 15l14 -7l41 -159
l-10 -17q-55 -35 -138 -35z" />
    <glyph glyph-name="N" unicode="N" horiz-adv-x="1480" 
d="M1085 1331h224v-1331h-150l-764 930v-930h-223v1331h150l763 -930v930z" />
    <glyph glyph-name="O" unicode="O" horiz-adv-x="1593" 
d="M797 180q207 0 345 137t138 349t-138 348q-138 137 -345 137t-345 -137t-138 -348q0 -210 138 -348t345 -138zM797 -25q-305 0 -510 198t-205 493q0 294 205 492t510 198t510 -198t205 -492t-206 -493q-204 -198 -509 -198z" />
    <glyph glyph-name="P" unicode="P" horiz-adv-x="1241" 
d="M721 678q106 0 171 64q64 64 64 166q0 101 -63 166t-172 65h-322v-461h322zM698 1331q236 -1 363 -111t127 -308t-126 -308t-364 -108h-299v-496h-227v1331h526z" />
    <glyph glyph-name="Q" unicode="Q" horiz-adv-x="1593" 
d="M797 174q74 0 141 19q-102 139 -183 201t-185 62t-195 -42q61 -112 173 -176t249 -64zM797 1155q-207 0 -346 -138t-140 -351q0 -45 6 -88q123 59 271 59t264 -85q117 -85 256 -269q174 141 174 369t-139 365q-139 138 -346 138zM1606 -338q-162 0 -290 95t-253 263
q-129 -45 -266 -45q-305 0 -510 198t-205 493q0 294 205 492t510 198t510 -198t204 -492q1 -172 -73 -316t-205 -239q100 -131 185 -199t191 -68t195 74l17 -6l77 -133l-6 -15q-124 -102 -286 -102z" />
    <glyph glyph-name="R" unicode="R" horiz-adv-x="1320" 
d="M399 702h320q109 0 173 60.5t64 159t-64.5 158t-172.5 59.5h-320v-437zM1130 -25q-77 0 -127.5 22.5t-80.5 48.5q-74 63 -165 276t-177 213h-181v-535h-227v1331h526q238 0 364 -106.5t126 -296.5q0 -145 -82 -242.5t-232 -132.5q47 -33 87.5 -131.5t59.5 -136t54 -72.5
t73 -35t62 15l15 -7l45 -157l-8 -15q-55 -39 -132 -39z" />
    <glyph glyph-name="S" unicode="S" horiz-adv-x="1140" 
d="M571 172q115 0 184.5 52t69.5 122t-29.5 99.5t-47 44t-57.5 33t-62.5 26.5t-75.5 28.5t-103 38.5q-118 44 -210 112q-122 88 -121.5 255.5t130.5 270t329 102.5q289 0 448 -203v-18l-117 -123h-18q-131 154 -311 153q-98 0 -163 -46t-65 -120t58.5 -115.5t122 -65
t125.5 -47.5q146 -57 256 -130q144 -98 144.5 -278.5t-133.5 -284t-345 -103.5q-160 0 -294 62.5t-220 171.5v18l114 131h19q154 -186 372 -186z" />
    <glyph glyph-name="T" unicode="T" horiz-adv-x="1122" 
d="M674 1139v-1139h-228v1139h-423v192h1075v-192h-424z" />
    <glyph glyph-name="U" unicode="U" horiz-adv-x="1488" 
d="M1335 547q-1 -266 -153 -419t-417 -153t-420 153t-155 419v500q0 55 -11 81t-38 25q-27 0 -41 -14l-16 6l-37 160l10 16q51 35 149 35t154 -67t58 -183v-563q0 -171 92 -267t255 -96t256 96t93 267v788h221v-784z" />
    <glyph glyph-name="V" unicode="V" horiz-adv-x="1468" 
d="M150 1356q90 0 148 -50t105 -159l334 -811l336 811q45 105 103 157t146 52q87 0 134 -39l6 -14l-43 -158l-16 -6q-39 12 -59 9q-20 -4 -35 -24q-16 -20 -41 -77l-451 -1047h-164l-454 1047q-39 96 -80 102q-16 2 -56 -10l-14 6l-45 158l6 14q51 39 140 39z" />
    <glyph glyph-name="W" unicode="W" horiz-adv-x="2074" 
d="M1925 1356q88 0 137 -39l9 -14l-46 -158l-14 -6q-69 29 -99 -11q-15 -20 -38 -81l-375 -1047h-151l-312 975l-311 -975h-152l-374 1047q-19 57 -35 79q-31 43 -101 13l-14 6l-45 158l6 14q51 39 142 39q172 0 245 -211l262 -787l295 973h164l297 -977l264 791
q74 211 246 211z" />
    <glyph glyph-name="X" unicode="X" horiz-adv-x="1435" 
d="M209 1356q162 0 297 -193l221 -321l244 321q72 101 135 147t148 46t143 -39l6 -14l-45 -158l-15 -6q-27 14 -57 14q-63 0 -129 -94l-297 -393l279 -394q66 -94 129 -94q31 0 57 15l14 -7l45 -157l-8 -15q-53 -39 -142 -39t-160 45t-142 148l-223 324l-246 -324
q-74 -104 -137 -148q-64 -44 -150 -45q-86 0 -139 39l-8 15l45 157l14 7q27 -14 57 -15q63 0 129 94l301 394l-276 393q-66 94 -129 94q-31 0 -57 -14l-15 6l-45 158l8 14q56 39 148 39z" />
    <glyph glyph-name="Y" unicode="Y" horiz-adv-x="1413" 
d="M1288 1153q-55 0 -117 -94l-348 -539v-520h-227v516l-356 543q-61 94 -117 94q-27 0 -55 -14l-15 6l-45 158l8 14q49 39 133 39q85 0 147 -50t132 -157l285 -438l278 438q66 103 127 155q62 52 148 52t129 -39l8 -14l-45 -158l-15 -6q-29 14 -55 14z" />
    <glyph glyph-name="Z" unicode="Z" horiz-adv-x="1234" 
d="M946 0h-889v150l772 995h-729v186h1022v-151l-768 -994h510q53 0 79 10t26 39q0 28 -17 44l9 14l157 37l17 -8q37 -53 37 -135t-64 -135q-64 -52 -162 -52z" />
    <glyph glyph-name="bracketleft" unicode="[" horiz-adv-x="626" 
d="M559 1282h-199v-1413h199v-168h-412v1749h412v-168z" />
    <glyph glyph-name="backslash" unicode="\" horiz-adv-x="1128" 
d="M258 1442l823 -1536l-12 -15h-199l-823 1536l8 15h203z" />
    <glyph glyph-name="bracketright" unicode="]" horiz-adv-x="626" 
d="M68 1282v168h411v-1749h-411v168h198v1413h-198z" />
    <glyph glyph-name="asciicircum" unicode="^" horiz-adv-x="1275" 
d="M713 1331l499 -762l-10 -12h-188l-13 8l-358 545l-369 -545l-12 -8h-188l-11 12l515 762h135z" />
    <glyph glyph-name="underscore" unicode="_" horiz-adv-x="1034" 
d="M41 -78h952v-174h-952v174z" />
    <glyph glyph-name="grave" unicode="`" horiz-adv-x="651" 
d="M209 1548l360 -303v-14l-71 -88h-13l-403 254v12l113 139h14z" />
    <glyph glyph-name="a" unicode="a" 
d="M621 170q141 0 232 91t91 251t-91 251t-232 91t-231 -98t-89 -244q0 -146 89 -244q90 -98 231 -98zM1141 -25q-72 0 -122 39t-67 111q-150 -150 -368 -150t-365 155q-145 155 -145 382t145 382t363 155t368 -148v123h197v-764q0 -90 47 -90q20 0 33 12l14 -6l33 -151
l-8 -15q-53 -35 -125 -35z" />
    <glyph glyph-name="b" unicode="b" horiz-adv-x="1290" 
d="M670 170q141 0 230 98t89 244t-88 244t-230 98q-141 0 -233 -90t-92 -252t92 -252t232 -90zM714 1049q212 0 358 -155t146 -382t-144 -382q-146 -155 -368 -155t-366 150v-125h-201v1126q0 90 -45 91q-23 0 -35 -13l-14 6l-33 152l8 14q50 35 142 35t146 -58t54 -165
v-268q139 129 352 129z" />
    <glyph glyph-name="c" unicode="c" horiz-adv-x="1103" 
d="M74 512q0 229 157.5 383t399.5 154q127 0 236.5 -48.5t179.5 -132.5v-16l-129 -113h-17q-115 115 -264 115t-243 -98t-93.5 -246t92.5 -244t250 -96t258 115h17l129 -113v-16q-70 -84 -179.5 -132.5t-236.5 -48.5q-242 0 -399.5 154t-157.5 383z" />
    <glyph glyph-name="d" unicode="d" 
d="M620.5 170q141.5 0 232.5 90t91 253t-91 252t-232.5 89t-230.5 -99.5t-89 -243.5t89 -242.5t230.5 -98.5zM1143 -25q-74 0 -123 39t-68 109q-141 -147 -364 -147.5t-368.5 154.5t-145.5 383t145.5 382t374.5 154q190 0 332 -125v442l207 31l14 -11v-1126q0 -90 47 -90
q16 0 33 12l14 -6l33 -151l-8 -15q-49 -35 -123 -35z" />
    <glyph glyph-name="e" unicode="e" horiz-adv-x="1204" 
d="M610 874q-127 0 -214 -73.5t-101 -204.5h623q-14 133 -97.5 205.5t-210.5 72.5zM622 154q232 0 349 137h14l117 -105v-16q-78 -96 -204 -145.5t-259 -49.5q-236 0 -400.5 142.5t-164.5 384.5t149.5 394.5t386 152.5t383 -148.5t146.5 -374.5q0 -42 -6 -73h-838
q12 -141 112.5 -220t214.5 -79z" />
    <glyph glyph-name="f" unicode="f" horiz-adv-x="759" 
d="M609 1243q-73 0 -124 -50t-51 -151v-18h305v-174h-305v-942q0 -109 -56 -172q-56 -64 -146 -64t-140 35l-8 14l33 152l14 6q12 -12 33 -12q47 0 47 88v895h-174v174h174v16q0 188 113 286t253 97q140 0 220 -47l8 -16l-57 -141l-15 -9q-51 33 -124 33z" />
    <glyph glyph-name="g" unicode="g" horiz-adv-x="1298" 
d="M608 262q137 0 223.5 85t86.5 219t-86.5 220t-222.5 86t-222 -86t-86 -220t85 -219t222 -85zM1176 854q-47 0 -48 -90v-586q0 -242 -152.5 -365.5t-383.5 -123.5q-309 0 -475 209v14l102 123h14q131 -170 361 -170q139 0 229 72.5t90 214.5v47q-137 -115 -343.5 -115
t-350 138t-143.5 344t143 344.5t357.5 138.5t359.5 -134q39 133 188 134q74 0 123 -35l8 -15l-32 -151l-15 -6q-16 12 -32 12z" />
    <glyph glyph-name="h" unicode="h" horiz-adv-x="1253" 
d="M1067 -25q-92 -1 -146 61t-55 169v393q0 118 -66 188t-182 70q-114 0 -186 -71t-72 -187v-598h-221v1126q0 90 -45 91q-23 0 -35 -13l-14 6l-33 152l8 14q49 35 140 35q92 0 146 -58t54 -165v-242q125 102 312 102q186 0 302 -119q116 -120 116 -313v-356q0 -90 47 -90
q16 0 32 12l15 -6l33 -151l-9 -15q-49 -35 -141 -35z" />
    <glyph glyph-name="i" unicode="i" horiz-adv-x="528" 
d="M335 -25q-91 -1 -147 63t-55 173v813h223v-764q0 -90 47 -90q18 0 31 12l17 -6l32 -151l-8 -15q-49 -35 -140 -35zM244 1141q-63 0 -109 46q-45 46 -45 109q0 62 45 108t109 46t109 -45q46 -45 46 -109t-46 -109q-46 -46 -109 -46z" />
    <glyph glyph-name="j" unicode="j" horiz-adv-x="548" 
d="M410 1024v-893q0 -184 -58 -277t-200 -161h-15l-86 162v16q76 39 107 93t30 171v715h-139v174h361zM264 1141q-63 0 -108 46t-45 109q0 62 45 108t108 46q64 0 110 -45t46 -109t-46 -109q-46 -46 -110 -46z" />
    <glyph glyph-name="k" unicode="k" horiz-adv-x="1177" 
d="M362 623v-107h256q100 0 163 51t63 131t-55.5 129.5t-147.5 49.5q-135 0 -207 -68.5t-72 -185.5zM1006 -25q-141 0 -240 125l-219 269h-185v-369h-223v1126q0 90 -47 91q-20 0 -33 -13l-14 6l-33 152l8 14q49 35 140.5 35t146.5 -58.5t55 -164.5v-238q123 98 307.5 98.5
t289 -92t104.5 -245.5q0 -111 -71.5 -197t-192.5 -123l137 -164q51 -57 86 -57t57 14l17 -6l32 -155l-8 -17q-49 -31 -114 -31z" />
    <glyph glyph-name="l" unicode="l" horiz-adv-x="538" 
d="M162 1405q92 0 146 -58.5t54 -164.5v-922q0 -90 48 -90q16 0 32 12l15 -6l32 -151l-8 -15q-49 -35 -140 -35t-146.5 63.5t-55.5 172.5v909q0 90 -47 90q-16 0 -33 -12l-14 6l-33 152l8 14q50 35 142 35z" />
    <glyph glyph-name="m" unicode="m" horiz-adv-x="1982" 
d="M1796 -25q-92 -1 -146 61t-55 169v393q0 118 -62 188t-173 70q-112 0 -182 -71t-70 -187v-598h-223v598q-1 118 -63 188t-173 70t-181 -71t-71 -187v-598h-225v764q0 90 -47 90q-16 0 -33 -12l-14 6l-33 151l8 15q49 35 125 35q147 0 187 -129q133 129 329 129
q231 0 344 -175q133 174 369 175q188 0 300 -119t112 -314v-356q0 -90 47 -90q16 0 32 12l15 -6l33 -151l-9 -15q-49 -35 -141 -35z" />
    <glyph glyph-name="n" unicode="n" horiz-adv-x="1290" 
d="M1102 -25q-92 0 -146.5 61.5t-54.5 168.5v393q0 119 -65.5 188.5t-180 69.5t-186.5 -70.5t-72 -187.5v-598h-225v764q0 90 -47 90q-16 0 -33 -12l-14 6l-33 151l8 15q49 35 125 35q145 0 187 -129q129 129 328.5 129t315 -120t115.5 -313v-356q0 -90 47 -90q16 0 33 12
l15 -6l32 -151l-8 -15q-49 -35 -141 -35z" />
    <glyph glyph-name="o" unicode="o" horiz-adv-x="1261" 
d="M632 170q144 0 236.5 97.5t92.5 244.5t-92.5 244.5t-236.5 97.5t-237.5 -97.5t-93.5 -244.5t93.5 -244.5t237.5 -97.5zM632 -25q-243 0 -400.5 154t-157.5 383t157.5 383t400.5 154t400.5 -154t157.5 -384t-157.5 -383t-400.5 -153z" />
    <glyph glyph-name="p" unicode="p" 
d="M698 170q141 0 231 98q89 98 89 242t-89 244t-231 100t-232 -90q-91 -90 -91 -252t91 -252t232 -90zM736 1049q218 0 364 -155t145 -382q0 -227 -145 -382t-375 -155q-188 0 -330 125v-407h-223v1071q0 90 -47 90q-16 0 -33 -12l-14 6l-33 151l8 15q49 35 124 35t125 -39
t67 -111q149 150 367 150z" />
    <glyph glyph-name="q" unicode="q" horiz-adv-x="1316" 
d="M621 170q141 0 232 90t91 252t-91 252t-232 90t-231 -99t-89 -243q0 -144 89 -244q90 -98 231 -98zM1194 854q-47 0 -47 -90v-1071h-223v405q-139 -123 -330 -123q-229 0 -375 155q-145 155 -145 382t145 382t363 155t368 -148q16 70 66 109t126 39q75 0 124 -35l8 -15
l-33 -151l-14 -6q-16 12 -33 12z" />
    <glyph glyph-name="r" unicode="r" horiz-adv-x="806" 
d="M602 856q-86 0 -146.5 -72.5t-60.5 -197.5v-586h-223v764q0 90 -47 90q-16 0 -33 -12l-14 6l-33 151l8 15q49 35 127 35q139 0 178 -131q109 131 281 131q86 0 162 -35l8 -17l-57 -163l-15 -7q-49 29 -135 29z" />
    <glyph glyph-name="s" unicode="s" horiz-adv-x="946" 
d="M471 1049q121 0 220.5 -44t154.5 -118v-17l-115 -98h-16q-94 109 -240 109q-74 0 -113.5 -31t-39.5 -80t39.5 -77.5t91 -49t93.5 -36t53 -20.5t49 -21.5t53.5 -25t46 -27.5t44.5 -35q12 -16 34 -38q54 -57 55 -159q0 -141 -113 -223.5t-285 -82.5q-274 0 -428 191v16
l115 101h16q45 -61 120 -100.5t160 -39.5t136 37t51 89t-37 89q-39 35 -154.5 78.5t-158.5 62.5t-98 55q-107 70 -107 200.5t102.5 212.5t270.5 82z" />
    <glyph glyph-name="t" unicode="t" horiz-adv-x="788" 
d="M209 342v508h-174v174h174v301l207 31l16 -10v-322h311v-174h-311v-492q0 -90 40 -140t114 -50q41 0 86 29l14 -9l66 -141l-7 -16q-78 -55 -190 -56q-152 0 -249 98.5t-97 268.5z" />
    <glyph glyph-name="u" unicode="u" horiz-adv-x="1267" 
d="M1085 -25q-135 0 -180 127q-127 -127 -321 -127t-306 114q-114 114 -114 304v371q0 90 -47 90q-16 0 -33 -12l-14 6l-33 151l8 15q49 35 141 35q92 -1 146 -59t55 -165v-413q-1 -115 63 -180q64 -64 174 -64t180 72t68 186v598h224v-764q0 -90 47 -90q18 0 31 12l16 -6
l33 -151l-11 -15q-45 -35 -127 -35z" />
    <glyph glyph-name="v" unicode="v" horiz-adv-x="1187" 
d="M389 827v-409q0 -121 58 -186q58 -64 171 -64t188 97t75 249t-42 286q-42 132 -110 206v16l168 108h16q89 -96 143 -258t52 -335q-2 -248 -137 -405t-343 -157t-336 120q-126 120 -126 327v342q0 90 -47 90q-16 0 -33 -12l-14 6l-33 151l8 15q49 35 140 35t147 -58
t55 -164z" />
    <glyph glyph-name="w" unicode="w" horiz-adv-x="1867" 
d="M1288 -25q-222 0 -332 150q-123 -150 -334 -150q-212 0 -334 120t-122 327v342q0 90 -47 90q-16 0 -33 -12l-14 6l-33 151l8 15q49 35 141 35q92 -1 146 -59t55 -165v-409q-1 -119 59 -184q60 -64 166 -64t172 68q64 68 64 180v608h213v-608q0 -120 58 -184t157 -64
q129 0 203 102t78 257t-36 281t-106 200v16l162 109h16q93 -98 145 -256t46 -328q-8 -260 -142 -417t-356 -157z" />
    <glyph glyph-name="x" unicode="x" horiz-adv-x="1196" 
d="M177 1049q75 0 133 -37t124 -123l170 -242l170 242q66 86 121 123t130 37t120 -31l8 -17l-33 -155l-14 -6q-20 14 -51 14q-66 0 -123 -80l-191 -262l191 -262q59 -80 115 -80q31 0 51 14l14 -6l35 -155l-8 -17q-45 -31 -121 -31t-134 37t-124 123l-168 242l-170 -242
q-66 -86 -122 -123t-130 -37t-121 31l-8 17l35 155l14 6q20 -14 51 -14q63 0 123 80l191 262l-191 262q-59 80 -117 80q-33 0 -49 -14l-16 6l-33 155l8 17q45 31 120 31z" />
    <glyph glyph-name="y" unicode="y" horiz-adv-x="1216" 
d="M860 1024h221v-846q0 -236 -147 -362t-371 -127q-287 0 -454 209v14l102 123h16q129 -170 338 -170q131 0 215 75t84 212v53q-119 -119 -300 -119t-296 105t-114 301v272q0 90 -48 90q-16 0 -32 -12l-15 6l-32 151l8 15q49 35 139 35q90 -1 144 -59t55 -165v-317
q0 -109 62 -170q62 -62 171 -62q110 0 182 72t72 187v489z" />
    <glyph glyph-name="z" unicode="z" horiz-adv-x="1009" 
d="M94 1024h807v-156l-575 -698h381q82 0 81 49q0 23 -16 39l6 14l150 35l16 -8q37 -49 37 -132t-59 -125t-162 -42h-694v156l573 698h-545v170z" />
    <glyph glyph-name="braceleft" unicode="{" horiz-adv-x="688" 
d="M254 616v-81q68 0 108 -69t39 -196v-190q0 -135 35 -173t146 -38h49v-168h-74q-209 0 -289 83t-80 302v217q0 101 -14 139t-40 48t-68 12v147q82 0 102 43t20 156v217q0 219 80 302t289 83h74v-168h-49q-111 0 -146 -38t-35 -173v-190q1 -127 -39 -196t-108 -69z" />
    <glyph glyph-name="bar" unicode="|" horiz-adv-x="468" 
d="M147 -299v1749h175v-1749h-175z" />
    <glyph glyph-name="braceright" unicode="}" horiz-adv-x="688" 
d="M287 881v190q0 135 -35 173t-146 38h-49v168h74q209 0 289 -83t80 -302v-217q0 -101 14 -139t40 -49t69 -11v-147q-83 0 -103 -43t-20 -156v-217q0 -219 -80 -302t-289 -83h-74v168h49q111 0 146 38t35 173v190q0 127 40 196t107 69v81q-68 0 -108 69t-39 196z" />
    <glyph glyph-name="asciitilde" unicode="~" horiz-adv-x="1224" 
d="M844 545q-78 0 -231 36q-153 35 -219 35q-129 -1 -177 -71h-16l-78 123v14q27 31 49 49q22 19 77 37q54 18 136 18t247 -36t212 -35q117 0 164 71h16l78 -120v-17q-29 -33 -49 -50q-19 -17 -75 -35t-134 -19z" />
    <glyph glyph-name="exclamdown" unicode="&#xa1;" horiz-adv-x="499" 
d="M367 -297l-13 -10h-209l-12 12l27 930l14 14h152l12 -14zM252 756q-64 0 -111 46q-45 46 -45 109t45 109t109 45q64 0 109 -45q47 -44 47 -108t-45 -110t-109 -46z" />
    <glyph glyph-name="cent" unicode="&#xa2;" horiz-adv-x="1116" 
d="M631.5 1004q-145.5 0 -236 -94.5t-90.5 -240t89 -240.5t244 -95t255 112h14l127 -110v-17q-123 -145 -327 -169v-175h-177v177q-201 31 -324.5 174t-123.5 343t124 343t324 174v166h177v-164q205 -25 327 -170v-17l-127 -110h-14q-116 113 -261.5 113z" />
    <glyph glyph-name="sterling" unicode="&#xa3;" horiz-adv-x="1148" 
d="M678 1171q-100 0 -165 -62t-64 -167v-176h372v-176h-372v-412h612v-178h-963v178h125v412h-119v176h119v176q0 190 128 302t315 112q248 0 399 -187v-14l-121 -111h-16q-115 127 -250 127z" />
    <glyph glyph-name="currency" unicode="&#xa4;" horiz-adv-x="1376" 
d="M375 672q0 -136 90 -232t222 -96t223 95t91 233t-91 232q-91 95 -223 95t-222 -95t-90 -232zM166 670q0 162 92 293l-133 135l135 135l141 -139q129 86 289 86t285 -88l141 141l137 -135l-135 -135q92 -131 92 -293t-94 -289l135 -135l-135 -137l-141 141
q-131 -86 -290 -85t-282 85l-143 -141l-137 137l137 135q-94 127 -94 289z" />
    <glyph glyph-name="yen" unicode="&#xa5;" horiz-adv-x="1325" 
d="M1053 557v-133h-277v-121h277v-133h-277v-170h-223v170h-279v133h279v121h-279v133h252l-477 762l8 12h254l363 -612l366 612h228l8 -12l-477 -762h254z" />
    <glyph glyph-name="brokenbar" unicode="&#xa6;" horiz-adv-x="464" 
d="M145 494h174v-793h-174v793zM145 1450h174v-752h-174v752z" />
    <glyph glyph-name="section" unicode="&#xa7;" horiz-adv-x="1175" 
d="M344 582q0 -47 41 -83q41 -37 88 -55t139 -48t142 -50q109 49 108 139q0 65 -61 108q-61 44 -178 81q-117 36 -150 49q-59 -18 -94 -56t-35 -85zM594 1190q-96 0 -160 -41t-63 -108q-1 -67 65 -105t176 -74q110 -35 156 -50q45 -15 115 -49q203 -98 200 -278
q0 -154 -135 -243q117 -96 117 -236t-137 -228t-344 -87q-326 0 -512 200v19l114 113h17q156 -162 372 -162q111 0 184 46t73 110t-45 94q-26 18 -44 31q-37 27 -222 83q-297 91 -368 212q-34 56 -34 128q0 162 151 250q-133 88 -133 225q0 136 128 226t327 90
q289 0 459 -176v-19l-123 -102h-17q-135 131 -317 131z" />
    <glyph glyph-name="dieresis" unicode="&#xa8;" horiz-adv-x="882" 
d="M642 1141q-60 0 -103 43t-43 102q0 58 43 102t103 44t102 -43t42 -103t-42 -102q-42 -43 -102 -43zM243 1141q-60 0 -104 43q-43 43 -43 102q0 58 43 102t103 44t103 -43q42 -43 42 -103t-42 -102q-42 -43 -102 -43z" />
    <glyph glyph-name="copyright" unicode="&#xa9;" horiz-adv-x="1564" 
d="M818 264q-194 0 -314 116q-119 116 -119 289t119 289q120 116 312 115q192 0 310 -135v-12l-102 -107h-12q-74 90 -191 90q-117 -1 -180 -69t-63 -172t61 -172t181 -68t192 88h12l102 -104v-13q-114 -135 -308 -135zM782 100q240 0 402 163t162 403t-162 402t-402 163
q-240 0 -400 -163q-160 -164 -161 -404q1 -240 161 -402t400 -162zM782 -25q-296 0 -496 199t-200 491q0 291 201 491t497 200t495 -200q200 -200 200 -492t-200 -490q-200 -199 -497 -199z" />
    <glyph glyph-name="ordfeminine" unicode="&#xaa;" horiz-adv-x="851" 
d="M369 813q69 0 111 40t42 91v25q-60 25 -132 25t-106 -26t-34 -67q0 -88 119 -88zM117 1245q100 109 295 109q98 0 183 -60t85 -176v-215q0 -70 37 -69q12 0 26 10l11 -6l24 -105l-4 -12q-41 -27 -96 -27q-92 0 -125 80q-80 -80 -199 -80q-120 0 -194 58t-74 153t79 147
t183 52t180 -27v25q0 59 -44 91t-101 32q-57 -1 -109 -21t-75 -51h-13l-69 82v10z" />
    <glyph glyph-name="guillemotleft" unicode="&#xab;" horiz-adv-x="1017" 
d="M909 907v-12l-243 -283l243 -282v-13l-108 -104h-13l-339 385v31l339 383h13zM532 895l-243 -283l243 -282v-13l-108 -104h-12l-340 385v31l340 383h12l108 -105v-12z" />
    <glyph glyph-name="registered" unicode="&#xae;" horiz-adv-x="1564" 
d="M815 717q63 0 96 34t33 85t-33 85t-96 33h-178v-237h178zM637 598v-328h-154v815h320q145 -1 222 -65t77 -184q0 -188 -184 -222l190 -344h-182l-183 328h-106zM782 1231q-240 0 -400 -163q-160 -164 -161 -404q0 -240 161 -402q162 -162 402 -162t401 162t161 403
t-162 403t-402 163zM782 -25q-296 0 -496 199t-200 491q0 291 200 491t497 200q296 0 496 -200t200 -492t-200 -490q-200 -199 -497 -199z" />
    <glyph glyph-name="macron" unicode="&#xaf;" horiz-adv-x="978" 
d="M184 1329h611v-153h-611v153z" />
    <glyph glyph-name="degree" unicode="&#xb0;" horiz-adv-x="688" 
d="M215 1092q0 -52 38 -90t91 -38t90 36t37 90t-37 92q-37 37 -90 37t-91 -37t-38 -90zM344 827q-110 0 -186 78q-78 78 -78 188q0 111 78 187t188 76t186 -77t76 -187t-77 -187q-77 -78 -187 -78z" />
    <glyph glyph-name="plusminus" unicode="&#xb1;" horiz-adv-x="1161" 
d="M106 -10v155h949v-155h-949zM670 750h387v-158h-387v-379h-174v379h-390v158h390v374h174v-374z" />
    <glyph glyph-name="acute" unicode="&#xb4;" horiz-adv-x="651" 
d="M444 1548h13l112 -139v-12l-401 -254h-14l-72 88v14z" />
    <glyph glyph-name="paragraph" unicode="&#xb6;" horiz-adv-x="1421" 
d="M1194 1151v-1434h-166v1434h166zM1337 1292h-473v-1575h-168v844h-108q-238 -2 -384 110t-147 339t145 333t386 107h749v-158z" />
    <glyph glyph-name="periodcentered" unicode="&#xb7;" horiz-adv-x="555" 
d="M278 731q72 0 122 -50t50 -122t-50 -122q-51 -50 -122 -50t-122 51t-52 121q0 70 52 121t122 51z" />
    <glyph glyph-name="cedilla" unicode="&#xb8;" horiz-adv-x="684" 
d="M432 -90q74 0 120 -49t46 -134t-72 -145t-171 -61q-99 1 -175 29t-119 73v17l72 88h17q70 -74 165 -74q45 0 75 18t30 52q0 66 -94 65q-51 0 -99 -20l-65 38l90 203v53l166 3v-56l-49 -106l2 -4q31 10 61 10z" />
    <glyph glyph-name="ordmasculine" unicode="&#xba;" horiz-adv-x="839" 
d="M420 846q76 0 125 50t49 131t-48 130t-125 49t-126 -50t-49 -130t49 -130t125 -50zM420 696q-150 0 -246 94t-96 236t96 236t246 94t246 -93t96 -237t-96 -236q-96 -94 -246 -94z" />
    <glyph glyph-name="guillemotright" unicode="&#xbb;" horiz-adv-x="1017" 
d="M606 1012l340 -383v-31l-340 -385h-12l-109 104v13l244 282l-244 283v12l109 105h12zM569 629v-31l-340 -385h-12l-108 104v13l243 282l-243 283v12l108 105h12z" />
    <glyph glyph-name="onequarter" unicode="&#xbc;" horiz-adv-x="1497" 
d="M1153 281v254l-192 -254h192zM1403 281v-138h-86v-143h-168v143h-361v107l375 500h154v-469h86zM154 20l1020 1311h184l8 -20l-1020 -1311h-184zM432 1331v-756h-194v601h-170l-5 12l46 143h323z" />
    <glyph glyph-name="onehalf" unicode="&#xbd;" horiz-adv-x="1630" 
d="M1552 152v-152h-585v104q233 186 301 258t68 130q1 58 -27 86q-29 29 -80 28q-94 0 -178 -92h-11l-79 98v11q47 55 125 93t159 38q129 0 206 -62t77 -162q0 -98 -62 -176t-209 -202h295zM1366 1331l8 -20l-1020 -1311h-184l-8 20l1020 1311h184zM238 575v605h-170l-5 10
l43 141h326v-756h-194z" />
    <glyph glyph-name="threequarters" unicode="&#xbe;" horiz-adv-x="1603" 
d="M1253 281v254l-192 -254h192zM1415 281h88v-138h-88v-143h-166v143h-360v107l375 500h151v-469zM1477 1331l8 -20l-1020 -1311h-184l-9 20l1020 1311h185zM651 795q0 -94 -80 -159t-217 -65q-176 0 -288 136v10l84 86h12q70 -86 188 -86q51 1 85 27t34 72t-40 75t-110 29
h-55v120h47q61 0 93 26t32 64t-26 62t-74 25q-88 0 -152 -64h-12l-78 88v10q98 105 234 105t206 -60q68 -60 68 -153q0 -94 -92 -154q141 -57 141 -194z" />
    <glyph glyph-name="questiondown" unicode="&#xbf;" horiz-adv-x="1044" 
d="M520 -319q-186 0 -318 101q-130 101 -130 261q0 120 65 202q65 81 124 133q58 52 91 82q68 63 66 158v37h217v-37q0 -120 -78 -212q-51 -58 -113 -111q-61 -53 -73 -71q-12 -17 -36 -54t-24 -98q0 -92 69 -146t165 -55q96 0 165 53t91 133l18 6l170 -49l2 -16
q-43 -145 -164 -231t-307 -86zM526 768q-63 0 -108 46t-45 110t45 108q45 45 108 45q64 0 110 -45t46 -108t-46 -110q-47 -46 -110 -46z" />
    <glyph glyph-name="Agrave" unicode="&#xc0;" horiz-adv-x="1478" 
d="M500 442h469l-234 566zM1324 -25q-83 0 -140 50q-57 45 -133 219l-11 26h-614l-10 -26q-70 -168 -133 -219q-55 -49 -133 -49t-134 34l-8 17l39 159l16 7q52 -36 94 8q22 23 46 86l452 1044h164l457 -1044q35 -76 49 -90q48 -37 92 -4l15 -7l41 -159l-11 -17
q-55 -35 -138 -35zM819 1450h-16l-436 203v16l94 148h16l400 -258v-17z" />
    <glyph glyph-name="Aacute" unicode="&#xc1;" horiz-adv-x="1478" 
d="M500 442h469l-234 566zM1324 -25q-83 0 -140 50q-57 45 -133 219l-11 26h-614l-10 -26q-70 -168 -133 -219q-55 -49 -133 -49t-134 34l-8 17l39 159l16 7q52 -36 94 8q22 23 46 86l452 1044h164l457 -1044q35 -76 49 -90q48 -37 92 -4l15 -7l41 -159l-11 -17
q-55 -35 -138 -35zM672 1450h-17l-57 92v17l399 258h17l94 -148v-16z" />
    <glyph glyph-name="Acircumflex" unicode="&#xc2;" horiz-adv-x="1478" 
d="M500 442h469l-234 566zM1324 -25q-83 0 -140 50q-57 45 -133 219l-11 26h-614l-10 -26q-70 -168 -133 -219q-55 -49 -133 -49t-134 34l-8 17l39 159l16 7q52 -36 94 8q22 23 46 86l452 1044h164l457 -1044q35 -76 49 -90q48 -37 92 -4l15 -7l41 -159l-11 -17
q-55 -35 -138 -35zM451 1436h-17l-63 102v16l352 201h20l353 -201v-16l-64 -102h-16l-283 139z" />
    <glyph glyph-name="Atilde" unicode="&#xc3;" horiz-adv-x="1478" 
d="M500 442h469l-234 566zM1324 -25q-83 0 -140 50q-57 45 -133 219l-11 26h-614l-10 -26q-70 -168 -133 -219q-55 -49 -133 -49t-134 34l-8 17l39 159l16 7q52 -36 94 8q22 23 46 86l452 1044h164l457 -1044q35 -76 49 -90q48 -37 92 -4l15 -7l41 -159l-11 -17
q-55 -35 -138 -35zM561 1702q66 0 192 -36t160 -36q86 0 125 72h13l69 -127v-16q-59 -98 -207 -99q-57 0 -174 36t-178 36q-90 0 -127 -72h-14l-70 127v17q68 98 211 98z" />
    <glyph glyph-name="Adieresis" unicode="&#xc4;" horiz-adv-x="1478" 
d="M500 442h469l-234 566zM1324 -25q-83 0 -140 50q-57 45 -133 219l-11 26h-614l-10 -26q-70 -168 -133 -219q-55 -49 -133 -49t-134 34l-8 17l39 159l16 7q52 -36 94 8q22 23 46 86l452 1044h164l457 -1044q35 -76 49 -90q48 -37 92 -4l15 -7l41 -159l-11 -17
q-55 -35 -138 -35zM805 1598q0 62 44 106t106 45q61 0 105 -44q44 -45 44 -107t-44 -106t-105 -44q-62 0 -106 44t-44 106zM369 1598q0 62 44 106t106 45q63 0 107 -44q44 -45 44 -107t-44 -106t-107 -44q-62 0 -106 44t-44 106z" />
    <glyph glyph-name="Aring" unicode="&#xc5;" horiz-adv-x="1478" 
d="M500 442h469l-234 566zM1324 -25q-83 0 -140 50q-57 45 -133 219l-11 26h-614l-10 -26q-70 -168 -133 -219q-55 -49 -133 -49t-134 34l-8 17l39 159l16 7q52 -36 94 8q22 23 46 86l452 1044h164l457 -1044q35 -76 49 -90q48 -37 92 -4l15 -7l41 -159l-11 -17
q-55 -35 -138 -35zM738 1751q-36 0 -62 -28q-26 -27 -27 -65q0 -38 27 -65q26 -27 62 -27t64 28t27 65q1 37 -27 65t-64 27zM739 1438q-93 0 -159 64t-66 157q0 92 67 157q67 64 159 64t158 -64q67 -64 67 -157t-67 -157t-159 -64z" />
    <glyph glyph-name="AE" unicode="&#xc6;" horiz-adv-x="2021" 
d="M1034 442v631l-471 -631h471zM1933 1139h-671v-377h522v-184h-522v-385h671v-193h-899v270h-598l-203 -270h-266l983 1331h983v-192z" />
    <glyph glyph-name="Ccedilla" unicode="&#xc7;" horiz-adv-x="1396" 
d="M791 1151q-203 0 -339.5 -137t-136.5 -348t136.5 -348.5t339.5 -137.5q119 0 220 51.5t169 139.5h16l143 -117v-16q-88 -113 -217 -181.5t-278 -79.5l-29 -61l2 -4q31 10 62 10q74 0 119.5 -49t45.5 -134t-72 -145q-70 -60 -170 -61q-196 0 -294 102v17l72 88h16
q70 -74 166 -74q45 0 74.5 18.5t29.5 51.5q0 66 -94 65q-51 0 -98 -20l-66 39l72 164q-260 37 -429 226t-169 470t205 478.5t504 197.5q166 0 309 -69.5t239 -192.5v-17l-143 -116h-16q-68 88 -169 139t-220 51z" />
    <glyph glyph-name="Egrave" unicode="&#xc8;" horiz-adv-x="1171" 
d="M1083 1139h-684v-377h535v-184h-535v-385h684v-193h-911v1331h911v-192zM483 1817l400 -258v-17l-58 -92h-16l-436 203v16l94 148h16z" />
    <glyph glyph-name="Eacute" unicode="&#xc9;" horiz-adv-x="1171" 
d="M1083 1139h-684v-377h535v-184h-535v-385h684v-193h-911v1331h911v-192zM772 1817h16l95 -148v-16l-437 -203h-16l-57 92v17z" />
    <glyph glyph-name="Ecircumflex" unicode="&#xca;" horiz-adv-x="1171" 
d="M1083 1139h-684v-377h535v-184h-535v-385h684v-193h-911v1331h911v-192zM340 1436h-16l-64 102v16l352 201h21l352 -201v-16l-63 -102h-17l-282 139z" />
    <glyph glyph-name="Edieresis" unicode="&#xcb;" horiz-adv-x="1171" 
d="M1083 1139h-684v-377h535v-184h-535v-385h684v-193h-911v1331h911v-192zM845 1448q-62 0 -106.5 44t-44.5 106t44 106.5t106.5 44.5t105.5 -44t43 -106.5t-43 -106.5t-105 -44zM409 1448q-62 0 -106.5 44t-44.5 106t44 106.5t106.5 44.5t106.5 -44t44 -106.5t-44 -106.5
t-106 -44z" />
    <glyph glyph-name="Igrave" unicode="&#xcc;" horiz-adv-x="829" 
d="M745 1145h-217v-959h217v-186h-659v186h215v959h-215v186h659v-186zM272 1817l400 -258v-17l-58 -92h-16l-436 203v16l94 148h16z" />
    <glyph glyph-name="Iacute" unicode="&#xcd;" horiz-adv-x="829" 
d="M745 1145h-217v-959h217v-186h-659v186h215v959h-215v186h659v-186zM561 1817h17l94 -148v-16l-436 -203h-17l-57 92v17z" />
    <glyph glyph-name="Icircumflex" unicode="&#xce;" horiz-adv-x="829" 
d="M86 1145v186h659v-186h-217v-959h217v-186h-659v186h215v959h-215zM422 1755l352 -201v-16l-63 -102h-17l-282 139l-283 -139h-16l-64 102v16l352 201h21z" />
    <glyph glyph-name="Idieresis" unicode="&#xcf;" horiz-adv-x="829" 
d="M745 1145h-217v-959h217v-186h-659v186h215v959h-215v186h659v-186zM634 1448q-62 0 -107 44q-44 44 -44 106t44 106q45 44 107 45q62 0 105 -44q43 -45 43 -107t-43 -106t-105 -44zM198 1448q-62 0 -107 44q-44 44 -44 106t44 106q45 44 107 45q62 0 106 -44
q44 -45 44 -107t-44 -106t-106 -44z" />
    <glyph glyph-name="Eth" unicode="&#xd0;" horiz-adv-x="1513" 
d="M727 193q211 0 340 129t129 344t-129 344t-340 129h-311v-379h356v-185h-356v-382h311zM731 1331q315 0 505 -182t191 -482q0 -299 -190 -483t-506 -184h-543v575h-139v185h139v571h543z" />
    <glyph glyph-name="Ntilde" unicode="&#xd1;" horiz-adv-x="1480" 
d="M1085 1331h224v-1331h-150l-764 930v-930h-223v1331h150l763 -930v930zM557 1702q72 0 207 -36t172 -36q94 0 133 72h14l76 -127v-16q-68 -98 -223 -99q-61 0 -187 36t-192 36q-98 0 -135 -72h-16l-74 127v17q72 98 225 98z" />
    <glyph glyph-name="Ograve" unicode="&#xd2;" horiz-adv-x="1593" 
d="M797 180q207 0 345 137t138 349t-138 348q-138 137 -345 137t-345 -137t-138 -348q0 -210 138 -348t345 -138zM797 -25q-305 0 -510 198t-205 493q0 294 205 492t510 198t510 -198t205 -492t-206 -493q-204 -198 -509 -198zM653 1817l400 -258v-17l-58 -92h-16l-436 203
v16l94 148h16z" />
    <glyph glyph-name="Oacute" unicode="&#xd3;" horiz-adv-x="1593" 
d="M797 180q207 0 345 137t138 349t-138 348q-138 137 -345 137t-345 -137t-138 -348q0 -210 138 -348t345 -138zM797 -25q-305 0 -510 198t-205 493q0 294 205 492t510 198t510 -198t205 -492t-206 -493q-204 -198 -509 -198zM942 1817h16l95 -148v-16l-437 -203h-16
l-57 92v17z" />
    <glyph glyph-name="Ocircumflex" unicode="&#xd4;" horiz-adv-x="1593" 
d="M797 180q207 0 345 137t138 349t-138 348q-138 137 -345 137t-345 -137t-138 -348q0 -210 138 -348t345 -138zM797 1356q305 0 510 -198t205 -492t-206 -493q-204 -198 -509 -198t-510 198t-205 493q0 294 205 492t510 198zM510 1436h-16l-64 102v16l352 201h21l352 -201
v-16l-63 -102h-17l-282 139z" />
    <glyph glyph-name="Otilde" unicode="&#xd5;" horiz-adv-x="1593" 
d="M797 180q207 0 345 137t138 349t-138 348q-138 137 -345 137t-345 -137t-138 -348q0 -210 138 -348t345 -138zM797 -25q-305 0 -510 198t-205 493q0 294 205 492t510 198t510 -198t205 -492t-206 -493q-204 -198 -509 -198zM606 1702q72 0 207 -36t172 -36q94 0 133 72
h15l75 -127v-16q-68 -98 -223 -99q-61 0 -187 36t-192 36q-98 0 -135 -72h-16l-74 127v17q71 98 225 98z" />
    <glyph glyph-name="Odieresis" unicode="&#xd6;" horiz-adv-x="1593" 
d="M797 180q207 0 345 137t138 349t-138 348q-138 137 -345 137t-345 -137t-138 -348q0 -210 138 -348t345 -138zM797 -25q-305 0 -510 198t-205 493q0 294 205 492t510 198t510 -198t205 -492t-206 -493q-204 -198 -509 -198zM1015 1448q-62 0 -107 44q-44 44 -44 106
t44 106t106 45q62 0 106 -44q43 -45 43 -107t-43 -106t-105 -44zM579 1448q-62 0 -107 44q-44 44 -44 106t44 106t106 45q62 0 107 -44q44 -45 44 -107t-44 -106t-106 -44z" />
    <glyph glyph-name="multiply" unicode="&#xd7;" horiz-adv-x="1150" 
d="M1059 317l-127 -129l-354 357l-357 -357l-131 131l356 355l-354 354l129 127l354 -352l355 354l129 -131l-354 -354z" />
    <glyph glyph-name="Oslash" unicode="&#xd8;" horiz-adv-x="1593" 
d="M797 180q207 0 345 137t138 345t-133 346l-529 -797q83 -31 179 -31zM797 1151q-207 0 -345 -137t-139 -342q0 -205 129 -344l529 794q-82 29 -174 29zM797 -25q-158 0 -297 58l-90 -135h-240l-4 16l153 229q-237 201 -237 509t205 506t510 198q154 0 293 -56l98 148h235
l4 -16l-159 -240q244 -201 243 -526q-1 -295 -205 -493t-509 -198z" />
    <glyph glyph-name="Ugrave" unicode="&#xd9;" horiz-adv-x="1488" 
d="M1335 547q-1 -266 -153 -419t-417 -153t-420 153t-155 419v500q0 55 -11 81t-38 25q-27 0 -41 -14l-16 6l-37 160l10 16q51 35 149 35t154 -67t58 -183v-563q0 -171 92 -267t255 -96t256 96t93 267v788h221v-784zM594 1817l399 -258v-17l-57 -92h-16l-437 203v16l95 148
h16z" />
    <glyph glyph-name="Uacute" unicode="&#xda;" horiz-adv-x="1488" 
d="M1335 547q-1 -266 -153 -419t-417 -153t-420 153t-155 419v500q0 55 -11 81t-38 25q-27 0 -41 -14l-16 6l-37 160l10 16q51 35 149 35t154 -67t58 -183v-563q0 -171 92 -267t255 -96t256 96t93 267v788h221v-784zM883 1817h16l94 -148v-16l-436 -203h-16l-58 92v17z" />
    <glyph glyph-name="Ucircumflex" unicode="&#xdb;" horiz-adv-x="1488" 
d="M1114 1331h221v-784q-1 -266 -153 -419t-417 -153t-420 153t-155 419v500q0 55 -11 81t-38 25q-27 0 -41 -14l-16 6l-37 160l10 16q51 35 149 35t154 -67t58 -183v-563q0 -171 92 -267t255 -96t256 96t93 267v788zM451 1436h-17l-63 102v16l352 201h20l353 -201v-16
l-64 -102h-16l-283 139z" />
    <glyph glyph-name="Udieresis" unicode="&#xdc;" horiz-adv-x="1488" 
d="M1335 547q-1 -266 -153 -419t-417 -153t-420 153t-155 419v500q0 55 -11 81t-38 25q-27 0 -41 -14l-16 6l-37 160l10 16q51 35 149 35t154 -67t58 -183v-563q0 -171 92 -267t255 -96t256 96t93 267v788h221v-784zM805 1598q0 62 44 106t106 45q61 0 105 -44
q44 -45 44 -107t-44 -106t-105 -44q-62 0 -106 44t-44 106zM369 1598q0 62 44 106t106 45q63 0 107 -44q44 -45 44 -107t-44 -106t-107 -44q-62 0 -106 44t-44 106z" />
    <glyph glyph-name="Yacute" unicode="&#xdd;" horiz-adv-x="1413" 
d="M1288 1153q-55 0 -117 -94l-348 -539v-520h-227v516l-356 543q-61 94 -117 94q-27 0 -55 -14l-15 6l-45 158l8 14q49 39 133 39q85 0 147 -50t132 -157l285 -438l278 438q66 103 127 155q62 52 148 52t129 -39l8 -14l-45 -158l-15 -6q-29 14 -55 14zM530 1450h-16l-57 92
v17l399 258h16l95 -148v-16z" />
    <glyph glyph-name="Thorn" unicode="&#xde;" horiz-adv-x="1257" 
d="M735 434q106 0 171 65t65 166t-65 165t-171 65h-336v-461h336zM711 1087q239 -1 365 -111t126 -308t-126 -308q-126 -111 -365 -110h-312v-250h-227v1331h227v-244h312z" />
    <glyph glyph-name="germandbls" unicode="&#xdf;" horiz-adv-x="1200" 
d="M1128 383q0 -182 -128 -295t-316 -113q-119 0 -209 48l-6 14l57 147l15 4q43 -25 114 -24q109 0 181 63t72 167t-78 171q-77 68 -199 68h-94v149h71q90 0 148 54t57 142q0 87 -61 141q-61 55 -164 55t-164 -66t-62 -170v-938h-223v950q0 184 124 295t324 111
q201 0 321 -96t120 -264t-147 -263q121 -41 184 -133t63 -217z" />
    <glyph glyph-name="agrave" unicode="&#xe0;" 
d="M621 170q141 0 232 91t91 251t-91 251t-232 91t-231 -98t-89 -244q0 -146 89 -244q90 -98 231 -98zM1141 -25q-72 0 -122 39t-67 111q-150 -150 -368 -150t-365 155q-145 155 -145 382t145 382t363 155t368 -148v123h197v-764q0 -90 47 -90q20 0 33 12l14 -6l33 -151
l-8 -15q-53 -35 -125 -35zM823 1143h-12l-403 254v12l112 139h15l360 -303v-14z" />
    <glyph glyph-name="aacute" unicode="&#xe1;" 
d="M621 170q141 0 232 91t91 251t-91 251t-232 91t-231 -98t-89 -244q0 -146 89 -244q90 -98 231 -98zM1141 -25q-72 0 -122 39t-67 111q-150 -150 -368 -150t-365 155q-145 155 -145 382t145 382t363 155t368 -148v123h197v-764q0 -90 47 -90q20 0 33 12l14 -6l33 -151
l-8 -15q-53 -35 -125 -35zM494 1143h-15l-71 88v14l362 303h12l113 -139v-12z" />
    <glyph glyph-name="acircumflex" unicode="&#xe2;" 
d="M621 170q141 0 232 91t91 251t-91 251t-232 91t-231 -98t-89 -244q0 -146 89 -244q90 -98 231 -98zM1141 -25q-72 0 -122 39t-67 111q-150 -150 -368 -150t-365 155q-145 155 -145 382t145 382t363 155t368 -148v123h197v-764q0 -90 47 -90q20 0 33 12l14 -6l33 -151
l-8 -15q-53 -35 -125 -35zM403 1143h-12l-84 102v15l330 198h31l329 -198v-15l-84 -102h-12l-248 131z" />
    <glyph glyph-name="atilde" unicode="&#xe3;" 
d="M621 170q141 0 232 91t91 251t-91 251t-232 91t-231 -98t-89 -244q0 -146 89 -244q90 -98 231 -98zM1141 -25q-72 0 -122 39t-67 111q-150 -150 -368 -150t-365 155q-145 155 -145 382t145 382t363 155t368 -148v123h197v-764q0 -90 47 -90q20 0 33 12l14 -6l33 -151
l-8 -15q-53 -35 -125 -35zM811 1323q84 0 117 72h14l76 -127v-15q-72 -96 -189 -96q-57 0 -165 36t-170 36q-86 0 -119 -72h-15l-75 125v16q76 96 190 97q61 0 177 -36t159 -36z" />
    <glyph glyph-name="adieresis" unicode="&#xe4;" 
d="M621 170q141 0 232 91t91 251t-91 251t-232 91t-231 -98t-89 -244q0 -146 89 -244q90 -98 231 -98zM1141 -25q-72 0 -122 39t-67 111q-150 -150 -368 -150t-365 155q-145 155 -145 382t145 382t363 155t368 -148v123h197v-764q0 -90 47 -90q20 0 33 12l14 -6l33 -151
l-8 -15q-53 -35 -125 -35zM851 1141q-60 0 -103 43t-43 102q0 58 43 102t103 44t102 -43t42 -103t-42 -102q-42 -43 -102 -43zM452 1141q-60 0 -104 43q-43 43 -43 102q0 58 43 102q44 44 104 44t102 -43t42 -103t-42 -102q-42 -43 -102 -43z" />
    <glyph glyph-name="aring" unicode="&#xe5;" 
d="M621 170q141 0 232 91t91 251t-91 251t-232 91t-231 -98t-89 -244q0 -146 89 -244q90 -98 231 -98zM1141 -25q-72 0 -122 39t-67 111q-150 -150 -368 -150t-365 155q-145 155 -145 382t145 382t363 155t368 -148v123h197v-764q0 -90 47 -90q20 0 33 12l14 -6l33 -151
l-8 -15q-53 -35 -125 -35zM651 1432q-37 0 -61 -25t-25 -61q0 -36 25 -60q26 -24 62 -24t60 24t24 61t-24 61t-61 24zM649 1124q-96 0 -162 65t-65 157q0 92 66 158t162 65q97 0 163 -66q66 -67 66 -157t-67 -156t-163 -66z" />
    <glyph glyph-name="ae" unicode="&#xe6;" horiz-adv-x="1929" 
d="M793 371v75q-113 47 -237 47.5t-195.5 -49t-71.5 -131.5t66.5 -128t167.5 -46t185.5 64t84.5 168zM1333 874q-127 0 -214 -73.5t-101 -204.5h622q-14 133 -97 205.5t-210 72.5zM1346 154q232 0 348 137h14l117 -105v-16q-78 -96 -204 -145.5t-259 -49.5q-293 0 -457 201
q-66 -92 -183.5 -146.5t-240.5 -54.5q-180 0 -297.5 89.5t-117.5 251t129 245.5t333 84q145 0 265 -49v59q0 102 -80 160.5t-181 58.5q-168 0 -292 -118h-17l-112 106v17q176 170 440 170t387 -162q156 162 393.5 162t384 -148.5t146.5 -374.5q-1 -42 -7 -73h-837
q12 -141 113 -220t215 -79z" />
    <glyph glyph-name="ccedilla" unicode="&#xe7;" horiz-adv-x="1103" 
d="M637.5 854q-149.5 0 -243 -97.5t-93.5 -246t92 -244.5t250 -96t258 115h17l129 -113v-16q-127 -154 -353 -176l-28 -64l2 -4q31 10 61 10q74 0 120 -49t46 -134t-71.5 -145.5t-171.5 -60.5q-197 0 -294 102v17l72 88h16q70 -74 166 -74q45 0 75 18.5t30 51.5q0 66 -94 65
q-51 0 -99 -20l-65 39l71 164q-205 31 -330.5 177t-125.5 363t157.5 371t399.5 154q127 0 236.5 -48.5t179.5 -132.5v-16l-129 -113h-17q-114 115 -263.5 115z" />
    <glyph glyph-name="egrave" unicode="&#xe8;" horiz-adv-x="1204" 
d="M610 874q-127 0 -214 -73.5t-101 -204.5h623q-14 133 -97.5 205.5t-210.5 72.5zM622 154q232 0 349 137h14l117 -105v-16q-78 -96 -204 -145.5t-259 -49.5q-236 0 -400.5 142.5t-164.5 384.5t149.5 394.5t386 152.5t383 -148.5t146.5 -374.5q0 -42 -6 -73h-838
q12 -141 112.5 -220t214.5 -79zM788 1143h-12l-403 254v12l112 139h15l360 -303v-14z" />
    <glyph glyph-name="eacute" unicode="&#xe9;" horiz-adv-x="1204" 
d="M610 874q-127 0 -214 -73.5t-101 -204.5h623q-14 133 -97.5 205.5t-210.5 72.5zM622 154q232 0 349 137h14l117 -105v-16q-78 -96 -204 -145.5t-259 -49.5q-236 0 -400.5 142.5t-164.5 384.5t149.5 394.5t386 152.5t383 -148.5t146.5 -374.5q0 -42 -6 -73h-838
q12 -141 112.5 -220t214.5 -79zM459 1143h-15l-71 88v14l362 303h13l112 -139v-12z" />
    <glyph glyph-name="ecircumflex" unicode="&#xea;" horiz-adv-x="1204" 
d="M610 874q-127 0 -214 -73.5t-101 -204.5h623q-14 133 -97.5 205.5t-210.5 72.5zM622 154q232 0 349 137h14l117 -105v-16q-78 -96 -204 -145.5t-259 -49.5q-236 0 -400.5 142.5t-164.5 384.5t149.5 394.5t386 152.5t383 -148.5t146.5 -374.5q0 -42 -6 -73h-838
q12 -141 112.5 -220t214.5 -79zM369 1143h-13l-84 102v15l330 198h31l330 -198v-15l-84 -102h-13l-248 131z" />
    <glyph glyph-name="edieresis" unicode="&#xeb;" horiz-adv-x="1204" 
d="M610 874q-127 0 -214 -73.5t-101 -204.5h623q-14 133 -97.5 205.5t-210.5 72.5zM622 154q232 0 349 137h14l117 -105v-16q-78 -96 -204 -145.5t-259 -49.5q-236 0 -400.5 142.5t-164.5 384.5t149.5 394.5t386 152.5t383 -148.5t146.5 -374.5q0 -42 -6 -73h-838
q12 -141 112.5 -220t214.5 -79zM816 1141q-60 0 -103 43t-43 102.5t43 102.5t103 43t102.5 -43t42.5 -102.5t-42.5 -102.5t-102.5 -43zM417 1141q-60 0 -103.5 43t-43.5 102.5t43 102.5t103.5 43t102.5 -43t42 -102.5t-42 -102.5t-102 -43z" />
    <glyph glyph-name="igrave" unicode="&#xec;" horiz-adv-x="528" 
d="M335 -25q-91 -1 -147 63t-55 173v813h223v-764q0 -90 47 -90q18 0 31 12l17 -6l32 -151l-8 -15q-49 -35 -140 -35zM127 1548l360 -303v-14l-71 -88h-13l-403 254v12l113 139h14z" />
    <glyph glyph-name="iacute" unicode="&#xed;" horiz-adv-x="528" 
d="M335 -25q-91 -1 -147 63t-55 173v813h223v-764q0 -90 47 -90q18 0 31 12l17 -6l32 -151l-8 -15q-49 -35 -140 -35zM362 1548h13l112 -139v-12l-401 -254h-14l-72 88v14z" />
    <glyph glyph-name="icircumflex" unicode="&#xee;" horiz-adv-x="528" 
d="M335 -25q-91 -1 -147 63t-55 173v813h223v-764q0 -90 47 -90q19 0 31 12l17 -6l32 -151l-8 -15q-49 -35 -140 -35zM260 1458l330 -198v-15l-84 -102h-12l-248 131l-250 -131h-12l-84 102v15l329 198h31z" />
    <glyph glyph-name="idieresis" unicode="&#xef;" horiz-adv-x="528" 
d="M335 -25q-91 -1 -147 63t-55 173v813h223v-764q0 -90 47 -90q18 0 31 12l17 -6l32 -151l-8 -15q-49 -35 -140 -35zM297 1286q0 58 43 102t103 44q61 0 103 -43t42 -103t-42 -102q-42 -43 -103 -43q-60 0 -103 43t-43 102zM44 1141q-60 0 -103 43t-43 102q0 58 43 102
t103 44t102 -43t42 -103t-42 -102q-42 -43 -102 -43z" />
    <glyph glyph-name="eth" unicode="&#xf0;" horiz-adv-x="1179" 
d="M587 158q130 0 214 86t84 216t-83 215t-214 85t-215 -86t-84 -215t84 -215t214 -86zM1108 471q0 -215 -147 -355t-373 -140t-374 136q-148 138 -148 347t143 346t354 137q78 0 162 -22q-39 55 -98 124l-217 -79l-15 14v131l129 47q-47 51 -114 117v16l135 115h16
q96 -98 162 -176l264 96l17 -10v-135l-183 -66q287 -354 287 -643z" />
    <glyph glyph-name="ntilde" unicode="&#xf1;" horiz-adv-x="1290" 
d="M1102 -25q-92 0 -146.5 61.5t-54.5 168.5v393q0 119 -65.5 188.5t-180 69.5t-186.5 -70.5t-72 -187.5v-598h-225v764q0 90 -47 90q-16 0 -33 -12l-14 6l-33 151l8 15q49 35 125 35q145 0 187 -129q129 129 328.5 129t315 -120t115.5 -313v-356q0 -90 47 -90q16 0 33 12
l15 -6l32 -151l-8 -15q-49 -35 -141 -35zM801 1323q84 0 117 72h14l76 -127v-15q-72 -96 -189 -96q-57 0 -165.5 36t-182 36t-106.5 -72h-15l-76 125v16q76 96 191 97q61 0 177 -36t159 -36z" />
    <glyph glyph-name="ograve" unicode="&#xf2;" horiz-adv-x="1261" 
d="M632 170q144 0 236.5 97.5t92.5 244.5t-92.5 244.5t-236.5 97.5t-237.5 -97.5t-93.5 -244.5t93.5 -244.5t237.5 -97.5zM632 -25q-243 0 -400.5 154t-157.5 383t157.5 383t400.5 154t400.5 -154t157.5 -384t-157.5 -383t-400.5 -153zM514 1548l360 -303v-14l-71 -88h-12
l-404 254v12l113 139h14z" />
    <glyph glyph-name="oacute" unicode="&#xf3;" horiz-adv-x="1261" 
d="M632 170q144 0 236.5 97.5t92.5 244.5t-92.5 244.5t-236.5 97.5t-237.5 -97.5t-93.5 -244.5t93.5 -244.5t237.5 -97.5zM632 -25q-243 0 -400.5 154t-157.5 383t157.5 383t400.5 154t400.5 -154t157.5 -384t-157.5 -383t-400.5 -153zM750 1548h12l112 -139v-12l-401 -254
h-14l-72 88v14z" />
    <glyph glyph-name="ocircumflex" unicode="&#xf4;" horiz-adv-x="1261" 
d="M632 170q144 0 236.5 97.5t92.5 244.5t-92.5 244.5t-236.5 97.5t-237.5 -97.5t-93.5 -244.5t93.5 -244.5t237.5 -97.5zM632 1049q243 0 400.5 -154t157.5 -384t-158 -383t-400.5 -153t-400 154t-157.5 383t157.5 383t400.5 154zM383 1143h-12l-84 102v15l329 198h31
l330 -198v-15l-84 -102h-12l-248 131z" />
    <glyph glyph-name="otilde" unicode="&#xf5;" horiz-adv-x="1261" 
d="M632 170q144 0 236.5 97.5t92.5 244.5t-92.5 244.5t-236.5 97.5t-237.5 -97.5t-93.5 -244.5t93.5 -244.5t237.5 -97.5zM632 -25q-243 0 -400.5 154t-157.5 383t157.5 383t400.5 154t400.5 -154t157.5 -384t-157.5 -383t-400.5 -153zM455 1395q61 0 177 -36t159 -36
q84 0 116 72h15l75 -127v-15q-72 -96 -188 -96q-57 0 -165.5 36t-182.5 36t-107 -72h-14l-76 125v16q76 97 191 97z" />
    <glyph glyph-name="odieresis" unicode="&#xf6;" horiz-adv-x="1261" 
d="M632 170q144 0 236.5 97.5t92.5 244.5t-92.5 244.5t-236.5 97.5t-237.5 -97.5t-93.5 -244.5t93.5 -244.5t237.5 -97.5zM632 -25q-243 0 -400.5 154t-157.5 383t157.5 383t400.5 154t400.5 -154t157.5 -384t-157.5 -383t-400.5 -153zM830 1141q-60 0 -103 43t-43 102.5
t43 102.5t103 43t102.5 -43t42.5 -102.5t-42.5 -102.5t-102.5 -43zM431 1141q-60 0 -103 43t-43 102.5t43 102.5t103 43t102 -43t42 -102.5t-42 -102.5t-102 -43z" />
    <glyph glyph-name="divide" unicode="&#xf7;" horiz-adv-x="1101" 
d="M412 263q0 61 44 105t105 44t105 -43t45 -105q-1 -62 -45 -107q-44 -44 -105 -44t-105 44t-44 106zM96 692h912v-164h-912v164zM412 996q0 62 44 106t105 43q61 0 105 -43q44 -44 45 -106q-1 -62 -45 -106t-105 -44t-105 44t-44 106z" />
    <glyph glyph-name="oslash" unicode="&#xf8;" horiz-adv-x="1261" 
d="M631 170q145 0 237.5 97.5t92.5 232.5t-64 223l-375 -537q54 -16 109 -16zM301 523q0 -136 68 -226l376 539q-51 18 -114 18q-143 0 -236.5 -97.5t-93.5 -233.5zM1190 515q0 -234 -158 -387t-401 -153q-127 0 -228 43l-77 -112h-211l-11 14l138 197q-168 158 -168 391
t157.5 387t399.5 154q119 0 231 -43l99 139h210l11 -15l-158 -227q166 -154 166 -388z" />
    <glyph glyph-name="ugrave" unicode="&#xf9;" horiz-adv-x="1267" 
d="M1085 -25q-135 0 -180 127q-127 -127 -321 -127t-306 114q-114 114 -114 304v371q0 90 -47 90q-16 0 -33 -12l-14 6l-33 151l8 15q49 35 141 35q92 -1 146 -59t55 -165v-413q-1 -115 63 -180q64 -64 174 -64t180 72t68 186v598h224v-764q0 -90 47 -90q18 0 31 12l16 -6
l33 -151l-11 -15q-45 -35 -127 -35zM795 1143h-13l-403 254v12l113 139h14l360 -303v-14z" />
    <glyph glyph-name="uacute" unicode="&#xfa;" horiz-adv-x="1267" 
d="M1085 -25q-135 0 -180 127q-127 -127 -321 -127t-306 114q-114 114 -114 304v371q0 90 -47 90q-16 0 -33 -12l-14 6l-33 151l8 15q49 35 141 35q92 -1 146 -59t55 -165v-413q-1 -115 63 -180q64 -64 174 -64t180 72t68 186v598h224v-764q0 -90 47 -90q18 0 31 12l16 -6
l33 -151l-11 -15q-45 -35 -127 -35zM465 1143h-14l-72 88v14l362 303h13l112 -139v-12z" />
    <glyph glyph-name="ucircumflex" unicode="&#xfb;" horiz-adv-x="1267" 
d="M1085 -25q-135 0 -180 127q-127 -127 -321 -127t-306 114q-114 114 -114 304v371q0 90 -47 90q-16 0 -33 -12l-14 6l-33 151l8 15q49 35 141 35q92 -1 146 -59t55 -165v-413q-1 -115 63 -180q64 -64 174 -64t180 72t68 186v598h224v-764q0 -90 47 -90q18 0 31 12l16 -6
l33 -151l-11 -15q-45 -35 -127 -35zM375 1143h-13l-83 102v15l329 198h31l330 -198v-15l-84 -102h-13l-247 131z" />
    <glyph glyph-name="udieresis" unicode="&#xfc;" horiz-adv-x="1267" 
d="M1085 -25q-135 0 -180 127q-127 -127 -321 -127t-306 114q-114 114 -114 304v371q0 90 -47 90q-16 0 -33 -12l-14 6l-33 151l8 15q49 35 141 35q92 -1 146 -59t55 -165v-413q-1 -115 63 -180q64 -64 174 -64t180 72t68 186v598h224v-764q0 -90 47 -90q18 0 31 12l16 -6
l33 -151l-11 -15q-45 -35 -127 -35zM676 1286q0 58 43 102t103 44t102 -43t43 -103q-1 -60 -43 -102q-42 -43 -102 -43t-103 43t-43 102zM423 1141q-60 0 -104 43q-43 43 -43 102q0 58 43 102t103 44t103 -43q42 -43 42 -103t-42 -102q-42 -43 -102 -43z" />
    <glyph glyph-name="yacute" unicode="&#xfd;" horiz-adv-x="1216" 
d="M860 1024h221v-846q0 -236 -147 -362t-371 -127q-287 0 -454 209v14l102 123h16q129 -170 338 -170q131 0 215 75t84 212v53q-119 -119 -300 -119t-296 105t-114 301v272q0 90 -48 90q-16 0 -32 -12l-15 6l-32 151l8 15q49 35 139 35q90 -1 144 -59t55 -165v-317
q0 -109 62 -170q62 -62 171 -62q110 0 182 72t72 187v489zM420 1143h-14l-72 88v14l362 303h13l112 -139v-12z" />
    <glyph glyph-name="thorn" unicode="&#xfe;" horiz-adv-x="1296" 
d="M678 170q141 0 229 98t88 242t-89 244t-229 100q-139 0 -231 -90t-92 -252t92 -252t232 -90zM715 1049q217 0 363 -155t146 -382t-146 -382t-376 -155q-188 0 -329 125v-407h-223v1378q0 90 -48 90q-18 0 -30 -12l-15 6l-34 152l10 14q45 35 130 35t138 -58t53 -159v-232
q145 142 361 142z" />
    <glyph glyph-name="ydieresis" unicode="&#xff;" horiz-adv-x="1216" 
d="M860 1024h221v-846q0 -236 -147 -362t-371 -127q-287 0 -454 209v14l102 123h16q129 -170 338 -170q131 0 215 75t84 212v53q-119 -119 -300 -119t-296 105t-114 301v272q0 90 -48 90q-16 0 -32 -12l-15 6l-32 151l8 15q49 35 139 35q90 -1 144 -59t55 -165v-317
q0 -109 62 -170q62 -62 171 -62q110 0 182 72t72 187v489zM631 1286q0 58 43 102t103 44q61 0 103 -43t42 -103t-42 -102q-42 -43 -103 -43q-60 0 -103 43t-43 102zM378 1141q-60 0 -104 43q-43 43 -43 102q0 58 43 102q44 44 104 44t102 -43t42 -103t-42 -102
q-42 -43 -102 -43z" />
    <glyph glyph-name="Amacron" unicode="&#x100;" horiz-adv-x="1478" 
d="M500 442h469l-234 566zM1324 -25q-83 0 -140 50q-57 45 -133 219l-11 26h-614l-10 -26q-70 -168 -133 -219q-55 -49 -133 -49t-134 34l-8 17l39 159l16 7q52 -36 94 8q22 23 46 86l452 1044h164l457 -1044q35 -76 49 -90q48 -37 92 -4l15 -7l41 -159l-11 -17
q-55 -35 -138 -35zM1051 1645v-156h-625v156h625z" />
    <glyph glyph-name="amacron" unicode="&#x101;" 
d="M621 170q141 0 232 91t91 251t-91 251t-232 91t-231 -98t-89 -244q0 -146 89 -244q90 -98 231 -98zM1141 -25q-72 0 -122 39t-67 111q-150 -150 -368 -150t-365 155q-145 155 -145 382t145 382t363 155t368 -148v123h197v-764q0 -90 47 -90q20 0 33 12l14 -6l33 -151
l-8 -15q-53 -35 -125 -35zM956 1329v-153h-610v153h610z" />
    <glyph glyph-name="Abreve" unicode="&#x102;" horiz-adv-x="1478" 
d="M500 442h469l-234 566zM1324 -25q-83 0 -140 50q-57 45 -133 219l-11 26h-614l-10 -26q-70 -168 -133 -219q-55 -49 -133 -49t-134 34l-8 17l39 159l16 7q52 -36 94 8q22 23 46 86l452 1044h164l457 -1044q35 -76 49 -90q48 -37 92 -4l15 -7l41 -159l-11 -17
q-55 -35 -138 -35zM738 1448q-130 0 -222 84t-106 217h157q11 -74 57 -117t116 -43t114 43q45 43 57 117h158q-13 -133 -107 -217t-224 -84z" />
    <glyph glyph-name="abreve" unicode="&#x103;" 
d="M621 170q141 0 232 91t91 251t-91 251t-232 91t-231 -98t-89 -244q0 -146 89 -244q90 -98 231 -98zM1141 -25q-72 0 -122 39t-67 111q-150 -150 -368 -150t-365 155q-145 155 -145 382t145 382t363 155t368 -148v123h197v-764q0 -90 47 -90q20 0 33 12l14 -6l33 -151
l-8 -15q-53 -35 -125 -35zM651 1143q-133 0 -223 84t-106 219h157q11 -72 59 -116t114 -44t112 44q47 44 59 116h158q-17 -135 -107 -219t-223 -84z" />
    <glyph glyph-name="Aogonek" unicode="&#x104;" horiz-adv-x="1478" 
d="M500 442h469l-234 566zM1306 -459q-107 -1 -174 57t-67 152q0 47 32 96t61 77q30 28 83 69q-35 12 -57 33q-57 45 -133 219l-11 26h-614l-10 -26q-70 -168 -133 -219q-55 -49 -133 -49t-134 34l-8 17l39 159l16 7q52 -36 94 8q22 23 46 86l452 1044h164l457 -1044
q35 -76 49 -90q48 -37 92 -4l15 -7l41 -159l-11 -17q-16 -14 -61 -48t-91 -72t-61 -69q-14 -31 -14 -61q1 -30 23 -55t65 -26t90 38h17l63 -88v-14q-80 -74 -187 -74z" />
    <glyph glyph-name="aogonek" unicode="&#x105;" 
d="M621 170q141 0 232 91t91 251t-91 251t-232 91t-231 -98t-89 -244q0 -146 89 -244q90 -98 231 -98zM1109 -459q-107 -1 -174 57t-67 152q0 49 33 99t64 77t84 70q-74 37 -97 129q-150 -150 -368 -150t-365 155q-145 155 -145 382t145 382t363 155t368 -148v123h197v-764
q0 -90 47 -90q20 0 33 12l14 -6l33 -151l-8 -15q-16 -14 -62 -48t-91 -73q-46 -39 -60 -69q-15 -30 -15 -60t23 -55t65 -26t91 38h16l63 -88v-14q-80 -74 -187 -74z" />
    <glyph glyph-name="Cacute" unicode="&#x106;" horiz-adv-x="1396" 
d="M315 666q0 -211 136.5 -348.5t339.5 -137.5q119 0 220 51.5t169 139.5h16l143 -117v-16q-96 -123 -239.5 -193t-308.5 -70q-299 0 -504 198t-205 493t205 492.5t504 197.5q166 0 309 -69.5t239 -192.5v-17l-143 -116h-16q-68 88 -169.5 139t-219.5 51q-203 0 -339.5 -137
t-136.5 -348zM936 1817h16l95 -148v-16l-437 -203h-16l-57 92v17z" />
    <glyph glyph-name="cacute" unicode="&#x107;" horiz-adv-x="1103" 
d="M74 512q0 229 157.5 383t399.5 154q127 0 236.5 -48.5t179.5 -132.5v-16l-129 -113h-17q-115 115 -264 115t-243 -98t-93.5 -246t92.5 -244t250 -96t258 115h17l129 -113v-16q-70 -84 -179.5 -132.5t-236.5 -48.5q-242 0 -399.5 154t-157.5 383zM743 1548h13l112 -139
v-12l-401 -254h-14l-72 88v14z" />
    <glyph glyph-name="Cdotaccent" unicode="&#x10a;" horiz-adv-x="1396" 
d="M315 666q0 -211 136.5 -348.5t339.5 -137.5q119 0 220 51.5t169 139.5h16l143 -117v-16q-96 -123 -239.5 -193t-308.5 -70q-299 0 -504 198t-205 493t205 492.5t504 197.5q166 0 309 -69.5t239 -192.5v-17l-143 -116h-16q-68 88 -169.5 139t-219.5 51q-203 0 -339.5 -137
t-136.5 -348zM789 1448q-60 0 -106 46t-46 107.5t46 107.5t107 46t106.5 -46t45.5 -107.5t-46.5 -107.5t-106.5 -46z" />
    <glyph glyph-name="cdotaccent" unicode="&#x10b;" horiz-adv-x="1103" 
d="M74 512q0 229 157.5 383t399.5 154q127 0 236.5 -48.5t179.5 -132.5v-16l-129 -113h-17q-115 115 -264 115t-243 -98t-93.5 -246t92.5 -244t250 -96t258 115h17l129 -113v-16q-70 -84 -179.5 -132.5t-236.5 -48.5q-242 0 -399.5 154t-157.5 383zM624.5 1141
q-63.5 0 -108.5 46t-45 109.5t45 108.5t108.5 45t109.5 -45t46 -108.5t-46 -109.5t-109.5 -46z" />
    <glyph glyph-name="Ccaron" unicode="&#x10c;" horiz-adv-x="1396" 
d="M791 1151q-203 0 -339.5 -137t-136.5 -348t136.5 -348.5t339.5 -137.5q119 0 220 51.5t169 139.5h16l143 -117v-16q-96 -123 -239.5 -193t-308.5 -70q-299 0 -504 198t-205 493t205 492.5t504 197.5q166 0 309 -69.5t239 -192.5v-17l-143 -116h-16q-68 88 -169 139
t-220 51zM801 1450h-21l-352 201v16l64 102h16l285 -139l282 139h15l65 -102v-16z" />
    <glyph glyph-name="ccaron" unicode="&#x10d;" horiz-adv-x="1103" 
d="M637.5 854q-149.5 0 -243 -97.5t-93.5 -246t92 -244.5t250 -96t258 115h17l129 -113v-16q-70 -84 -179.5 -132.5t-236.5 -48.5q-242 0 -399.5 154t-157.5 383t157.5 383t399.5 154q127 0 236.5 -48.5t179.5 -132.5v-16l-129 -113h-17q-114 115 -263.5 115zM641 1143h-31
l-329 198v15l84 102h12l250 -131l247 131h13l84 -102v-15z" />
    <glyph glyph-name="Dcaron" unicode="&#x10e;" horiz-adv-x="1495" 
d="M709 193q213 0 341 129t128 344t-128 344t-341 129h-310v-946h310zM715 1331q315 0 505 -182t191 -482q0 -299 -190 -483t-506 -184h-543v1331h543zM668 1450h-21l-352 201v16l63 102h17l284 -139l283 139h14l66 -102v-16z" />
    <glyph glyph-name="dcaron" unicode="&#x10f;" horiz-adv-x="1406" 
d="M620.5 170q141.5 0 232.5 90t91 253t-91 252t-232.5 89t-230.5 -99.5t-89 -243.5t89 -242.5t230.5 -98.5zM1143 -25q-74 0 -123 39t-68 109q-141 -147 -364 -147.5t-368.5 154.5t-145.5 383t145.5 382t374.5 154q190 0 332 -125v442l207 31l14 -11v-1126q0 -90 47 -90
q17 0 33 12l14 -6l33 -151l-8 -15q-49 -35 -123 -35zM1524 1454l10 -14l-123 -385l-16 -15h-113l-12 15l53 385l16 14h185z" />
    <glyph glyph-name="Dcroat" unicode="&#x110;" horiz-adv-x="1513" 
d="M727 193q211 0 340 129t129 344t-129 344t-340 129h-311v-379h356v-185h-356v-382h311zM731 1331q315 0 505 -182t191 -482q0 -299 -190 -483t-506 -184h-543v575h-139v185h139v571h543z" />
    <glyph glyph-name="dcroat" unicode="&#x111;" 
d="M620.5 170q141.5 0 232.5 90t91 253t-91 252t-232.5 89t-230.5 -99.5t-89 -243.5t89 -242.5t230.5 -98.5zM1294 1120h-147v-860q0 -90 47 -90q16 0 33 12l14 -6l33 -151l-8 -15q-49 -35 -123 -35t-123 39t-68 109q-141 -147 -364 -147t-368.5 154.5t-145.5 382.5
t145.5 382t374.5 154q190 0 332 -125v196h-293v140h293v124l207 31l14 -10v-145h147v-140z" />
    <glyph glyph-name="Emacron" unicode="&#x112;" horiz-adv-x="1171" 
d="M1083 1139h-684v-377h535v-184h-535v-385h684v-193h-911v1331h911v-192zM315 1645h625v-156h-625v156z" />
    <glyph glyph-name="emacron" unicode="&#x113;" horiz-adv-x="1204" 
d="M610 874q-127 0 -214 -73.5t-101 -204.5h623q-14 133 -97.5 205.5t-210.5 72.5zM622 154q232 0 349 137h14l117 -105v-16q-78 -96 -204 -145.5t-259 -49.5q-236 0 -400.5 142.5t-164.5 384.5t149.5 394.5t386 152.5t383 -148.5t146.5 -374.5q0 -42 -6 -73h-838
q12 -141 112.5 -220t214.5 -79zM922 1329v-153h-611v153h611z" />
    <glyph glyph-name="Edotaccent" unicode="&#x116;" horiz-adv-x="1171" 
d="M1083 1139h-684v-377h535v-184h-535v-385h684v-193h-911v1331h911v-192zM626 1448q-60 0 -106.5 46t-46.5 107.5t46 107.5t107.5 46t106.5 -46t45 -107.5t-46 -107.5t-106 -46z" />
    <glyph glyph-name="edotaccent" unicode="&#x117;" horiz-adv-x="1204" 
d="M610 874q-127 0 -214 -73.5t-101 -204.5h623q-14 133 -97.5 205.5t-210.5 72.5zM622 154q232 0 349 137h14l117 -105v-16q-78 -96 -204 -145.5t-259 -49.5q-236 0 -400.5 142.5t-164.5 384.5t149.5 394.5t386 152.5t383 -148.5t146.5 -374.5q0 -42 -6 -73h-838
q12 -141 112.5 -220t214.5 -79zM616.5 1141q-63.5 0 -108.5 46t-45 109.5t45 108.5t108.5 45t109.5 -45t46 -108.5t-46 -109.5t-109.5 -46z" />
    <glyph glyph-name="Eogonek" unicode="&#x118;" horiz-adv-x="1171" 
d="M927 -469q-107 0 -174 57.5t-67 151.5q0 49 36 102.5t64 77t99 80.5h-713v1331h911v-192h-684v-377h535v-184h-535v-385h684v-193q-16 -14 -61 -48q-67 -50 -116.5 -98t-49.5 -91.5t22.5 -68t65.5 -25.5t90 38h17l63 -88v-14q-80 -74 -187 -74z" />
    <glyph glyph-name="eogonek" unicode="&#x119;" horiz-adv-x="1204" 
d="M610 874q-127 0 -214 -73.5t-101 -204.5h623q-14 133 -97.5 205.5t-210.5 72.5zM622 154q232 0 349 137h14l117 -105v-16q-86 -109 -242 -160q-16 -14 -61 -48q-72 -54 -119 -99.5t-47 -89t22.5 -68t65.5 -26t90 37.5h16l64 -88v-14q-80 -74 -187.5 -74t-174 57.5
t-66.5 153.5t153 223q-227 8 -384.5 149.5t-157.5 380.5t149.5 391.5t386 152.5t383 -148.5t146.5 -374.5q0 -42 -6 -73h-838q12 -141 112.5 -220t214.5 -79z" />
    <glyph glyph-name="Ecaron" unicode="&#x11a;" horiz-adv-x="1171" 
d="M1083 1139h-684v-377h535v-184h-535v-385h684v-193h-911v1331h911v-192zM637 1450h-21l-352 201v16l64 102h16l285 -139l282 139h15l65 -102v-16z" />
    <glyph glyph-name="ecaron" unicode="&#x11b;" horiz-adv-x="1204" 
d="M610 874q-127 0 -214 -73.5t-101 -204.5h623q-14 133 -97.5 205.5t-210.5 72.5zM622 154q232 0 349 137h14l117 -105v-16q-78 -96 -204 -145.5t-259 -49.5q-236 0 -400.5 142.5t-164.5 384.5t149.5 394.5t386 152.5t383 -148.5t146.5 -374.5q0 -42 -6 -73h-838
q12 -141 112.5 -220t214.5 -79zM633 1143h-31l-330 198v15l84 102h13l249 -131l248 131h13l84 -102v-15z" />
    <glyph glyph-name="Gbreve" unicode="&#x11e;" horiz-adv-x="1527" 
d="M786 -25q-297 0 -500.5 198t-203.5 493t205 492.5t504 197.5q168 0 311 -68.5t239 -189.5v-15l-145 -122h-16q-68 88 -169.5 139t-219.5 51q-203 0 -339.5 -137t-136.5 -348t136.5 -348.5t326.5 -137.5t320.5 109.5t146.5 271.5h-457v178h664l16 -14q4 -27 5 -78
q0 -283 -195 -477.5t-492 -194.5zM792 1450q-130 0 -222.5 84t-106.5 217h158q12 -74 57 -117t114.5 -43t114.5 43t58 117h157q-14 -133 -107 -217t-223 -84z" />
    <glyph glyph-name="gbreve" unicode="&#x11f;" horiz-adv-x="1298" 
d="M608 262q137 0 223.5 85t86.5 219t-86.5 220t-222.5 86t-222 -86t-86 -220t85 -219t222 -85zM1176 854q-47 0 -48 -90v-586q0 -242 -152.5 -365.5t-383.5 -123.5q-309 0 -475 209v14l102 123h14q131 -170 361 -170q139 0 229 72.5t90 214.5v47q-137 -115 -343.5 -115
t-350 138t-143.5 344t143 344.5t357.5 138.5t359.5 -134q39 133 188 134q74 0 123 -35l8 -15l-32 -151l-15 -6q-16 12 -32 12zM629 1143q-133 0 -223.5 84t-106.5 219h158q12 -72 59 -116t112.5 -44t112.5 44t60 116h157q-16 -135 -106 -219t-223 -84z" />
    <glyph glyph-name="Gdotaccent" unicode="&#x120;" horiz-adv-x="1527" 
d="M786 -25q-297 0 -500.5 198t-203.5 493t205 492.5t504 197.5q168 0 311 -68.5t239 -189.5v-15l-145 -122h-16q-68 88 -169.5 139t-219.5 51q-203 0 -339.5 -137t-136.5 -348t136.5 -348.5t326.5 -137.5t320.5 109.5t146.5 271.5h-457v178h664l16 -14q4 -27 5 -78
q0 -283 -195 -477.5t-492 -194.5zM789 1450q-60 0 -106 46t-46 107.5t46 107.5t107 46t106.5 -46t45.5 -107.5t-46.5 -107.5t-106.5 -46z" />
    <glyph glyph-name="gdotaccent" unicode="&#x121;" horiz-adv-x="1298" 
d="M608 262q137 0 223.5 85t86.5 219t-86.5 220t-222.5 86t-222 -86t-86 -220t85 -219t222 -85zM1176 854q-47 0 -48 -90v-586q0 -242 -152.5 -365.5t-383.5 -123.5q-309 0 -475 209v14l102 123h14q131 -170 361 -170q139 0 229 72.5t90 214.5v47q-137 -115 -343.5 -115
t-350 138t-143.5 344t143 344.5t357.5 138.5t359.5 -134q39 133 188 134q74 0 123 -35l8 -15l-32 -151l-15 -6q-16 12 -32 12zM628.5 1141q-63.5 0 -108.5 46t-45 109.5t45 108.5t108.5 45t109.5 -45t46 -108.5t-46 -109.5t-109.5 -46z" />
    <glyph glyph-name="Gcommaaccent" unicode="&#x122;" horiz-adv-x="1527" 
d="M698 -100h185l10 -15l-111 -346l-16 -14h-119l-12 14l47 346zM786 -25q-297 0 -500.5 198t-203.5 493t205 492.5t504 197.5q168 0 311 -68.5t239 -189.5v-15l-145 -122h-16q-68 88 -169.5 139t-219.5 51q-203 0 -339.5 -137t-136.5 -348t136.5 -348.5t326.5 -137.5
t320.5 109.5t146.5 271.5h-457v178h664l16 -14q4 -27 5 -78q0 -283 -195 -477.5t-492 -194.5z" />
    <glyph glyph-name="gcommaaccent" unicode="&#x123;" horiz-adv-x="1298" 
d="M608 262q137 0 223.5 85t86.5 219t-86.5 220t-222.5 86t-222 -86t-86 -220t85 -219t222 -85zM1176 854q-47 0 -48 -90v-586q0 -242 -152.5 -365.5t-383.5 -123.5q-309 0 -475 209v14l102 123h14q131 -170 361 -170q139 0 229 72.5t90 214.5v47q-137 -115 -343.5 -115
t-350 138t-143.5 344t143 344.5t357.5 138.5t359.5 -134q39 133 188 134q74 0 123 -35l8 -15l-32 -151l-15 -6q-16 12 -32 12zM721 1149h-184l-11 14l111 346l16 15h119l12 -15l-47 -346z" />
    <glyph glyph-name="Hbar" unicode="&#x126;" horiz-adv-x="1505" 
d="M1106 766v178h-705v-178h705zM1425 1106v-162h-94v-944h-225v573h-705v-573h-225v944h-96v162h96v225h225v-225h705v225h225v-225h94z" />
    <glyph glyph-name="hbar" unicode="&#x127;" horiz-adv-x="1253" 
d="M1067 -25q-92 -1 -146 61t-55 169v393q0 118 -66 188t-182 70q-114 0 -186 -71t-72 -187v-598h-221v1126q0 90 -45 91q-23 0 -35 -13l-14 6l-33 152l8 14q49 35 134 35q86 0 140 -46t64 -132h293v-137h-291v-150q125 102 312 102q186 0 302 -119q116 -120 116 -313v-356
q0 -90 47 -90q16 0 32 12l15 -6l33 -151l-9 -15q-49 -35 -141 -35z" />
    <glyph glyph-name="Itilde" unicode="&#x128;" horiz-adv-x="829" 
d="M745 1145h-217v-959h217v-186h-659v186h215v959h-215v186h659v-186zM258 1702q59 0 172 -36t143 -36q78 0 111 72h12l62 -127v-16q-55 -98 -185 -99q-51 0 -155 36t-160 36q-80 0 -113 -72h-12l-61 127v17q59 98 186 98z" />
    <glyph glyph-name="itilde" unicode="&#x129;" horiz-adv-x="528" 
d="M335 -25q-91 -1 -147 63t-55 173v813h223v-764q0 -90 47 -90q18 0 31 12l17 -6l32 -151l-8 -15q-49 -35 -140 -35zM68 1395q61 0 177 -36t158 -36q84 0 117 72h15l75 -127v-15q-72 -96 -188 -96q-57 0 -166 36t-170 36q-86 0 -119 -72h-14l-76 125v16q76 97 191 97z" />
    <glyph glyph-name="Imacron" unicode="&#x12a;" horiz-adv-x="829" 
d="M745 1145h-217v-959h217v-186h-659v186h215v959h-215v186h659v-186zM135 1645h561v-156h-561v156z" />
    <glyph glyph-name="imacron" unicode="&#x12b;" horiz-adv-x="528" 
d="M335 -25q-91 -1 -147 63t-55 173v813h223v-764q0 -90 47 -90q18 0 31 12l17 -6l32 -151l-8 -15q-49 -35 -140 -35zM-61 1329h610v-153h-610v153z" />
    <glyph glyph-name="Iogonek" unicode="&#x12e;" horiz-adv-x="829" 
d="M589 -469q-107 0 -174 57t-67 152q0 49 36 102t64 77t99 81h-461v186h215v959h-215v186h659v-186h-217v-959h217v-186q-16 -14 -61 -48q-72 -54 -119 -100t-47 -89q0 -45 23 -69t65 -25t90 38h17l63 -88v-14q-80 -74 -187 -74z" />
    <glyph glyph-name="iogonek" unicode="&#x12f;" horiz-adv-x="528" 
d="M318 -459q-108 -1 -174 57t-66 160t176 234q-121 53 -121 219v813h223v-764q0 -90 47 -90q18 0 31 12l17 -6l32 -151l-8 -15q-16 -14 -61 -48t-91 -72t-61 -69q-14 -31 -14 -61t22 -55t66 -26q43 -1 90 38h16l64 -88v-14q-80 -74 -188 -74zM244 1141q-63 0 -109 46
q-45 46 -45 109q0 62 45 108t109 46t109 -45q46 -45 46 -109t-46 -109q-46 -46 -109 -46z" />
    <glyph glyph-name="Idotaccent" unicode="&#x130;" horiz-adv-x="829" 
d="M745 1145h-217v-959h217v-186h-659v186h215v959h-215v186h659v-186zM567 1602q0 -62 -46 -108t-106 -46t-107 46q-46 46 -46 108t46 107q46 46 108 46t106 -46q45 -46 45 -107z" />
    <glyph glyph-name="dotlessi" unicode="&#x131;" horiz-adv-x="528" 
d="M335 -25q-91 -1 -147 63t-55 173v813h223v-764q0 -90 47 -90q18 0 31 12l17 -6l32 -151l-8 -15q-49 -35 -140 -35z" />
    <glyph glyph-name="IJ" unicode="&#x132;" horiz-adv-x="1875" 
d="M1071 1331h649v-870q0 -242 -121 -364t-321 -122q-270 0 -418 205v19l137 127h17q98 -145 252 -146q98 0 162 68t65 188v703h-422v192zM745 1145h-217v-959h217v-186h-659v186h215v959h-215v186h659v-186z" />
    <glyph glyph-name="ij" unicode="&#x133;" horiz-adv-x="1077" 
d="M938 1024v-893q0 -184 -57 -277t-201 -161h-14l-86 162v16q76 39 106 93t31 171v715h-139v174h360zM335 -25q-91 -1 -147 63t-55 173v813h223v-764q0 -90 47 -90q19 0 31 12l17 -6l32 -151l-8 -15q-49 -35 -140 -35zM946 1296q0 -64 -44 -109q-44 -46 -110 -46
q-64 0 -110 46q-45 46 -45 109q0 62 45 108q44 46 108 46t110 -45t46 -109zM244 1141q-63 0 -109 46q-45 46 -45 109q0 62 45 108t109 46t109 -45q46 -45 46 -109t-46 -109q-46 -46 -109 -46z" />
    <glyph glyph-name="Kcommaaccent" unicode="&#x136;" horiz-adv-x="1333" 
d="M633 -100h184l10 -15l-110 -346l-17 -14h-118l-13 14l47 346zM1198 -25q-168 0 -321 189l-332 401l-113 -123v-442h-227v1047q0 55 -11.5 80.5t-40 25.5t-38.5 -14l-17 6l-37 160l11 16q53 35 149 35t153.5 -66.5t57.5 -175.5v-397l567 614h258l9 -12l-557 -608l350 -418
q98 -115 166 -115q33 0 57 15l16 -7l43 -157l-6 -15q-55 -39 -137 -39z" />
    <glyph glyph-name="kcommaaccent" unicode="&#x137;" horiz-adv-x="1177" 
d="M514 -100h184l11 -15l-111 -346l-16 -14h-119l-12 14l47 346zM362 623v-107h256q100 0 163 51t63 131t-55.5 129.5t-147.5 49.5q-135 0 -207 -68.5t-72 -185.5zM1006 -25q-141 0 -240 125l-219 269h-185v-369h-223v1126q0 90 -47 91q-20 0 -33 -13l-14 6l-33 152l8 14
q49 35 140.5 35t146.5 -58.5t55 -164.5v-238q123 98 307.5 98.5t289 -92t104.5 -245.5q0 -111 -71.5 -197t-192.5 -123l137 -164q51 -57 86 -57t57 14l17 -6l32 -155l-8 -17q-49 -31 -114 -31z" />
    <glyph glyph-name="kgreenlandic" unicode="&#x138;" horiz-adv-x="1110" 
d="M991 -25q-135 0 -239 125l-281 340l-106 -102v-338h-224v1024h224v-467l423 467h238l6 -14l-403 -437l295 -346q49 -57 84 -57t59 14l16 -6l33 -155l-8 -17q-53 -31 -117 -31z" />
    <glyph glyph-name="Lacute" unicode="&#x139;" horiz-adv-x="1028" 
d="M999 193v-193h-827v1331h227v-1138h600zM514 1817h16l95 -148v-16l-437 -203h-16l-57 92v17z" />
    <glyph glyph-name="lacute" unicode="&#x13a;" horiz-adv-x="538" 
d="M162 1405q92 0 146 -58.5t54 -164.5v-922q0 -90 48 -90q16 0 32 12l15 -6l32 -151l-8 -15q-49 -35 -140 -35t-146.5 63.5t-55.5 172.5v909q0 90 -47 90q-16 0 -33 -12l-14 6l-33 152l8 14q50 35 142 35zM428 1831h16l95 -148v-16l-437 -203h-16l-57 92v17z" />
    <glyph glyph-name="Lcommaaccent" unicode="&#x13b;" horiz-adv-x="1028" 
d="M479 -115l17 15h184l10 -15l-110 -346l-17 -14h-119l-12 14zM999 193v-193h-827v1331h227v-1138h600z" />
    <glyph glyph-name="lcommaaccent" unicode="&#x13c;" horiz-adv-x="538" 
d="M209 -119l16 15h185l10 -15l-111 -346l-16 -14h-119l-12 14zM162 1405q92 0 146 -58.5t54 -164.5v-922q0 -90 48 -90q16 0 32 12l15 -6l32 -151l-8 -15q-49 -35 -140 -35t-146.5 63.5t-55.5 172.5v909q0 90 -47 90q-16 0 -33 -12l-14 6l-33 152l8 14q50 35 142 35z" />
    <glyph glyph-name="Lcaron" unicode="&#x13d;" horiz-adv-x="1028" 
d="M999 193v-193h-827v1331h227v-1138h600zM614 1438l17 14h182l12 -14l-123 -387l-16 -13h-113l-12 13z" />
    <glyph glyph-name="lcaron" unicode="&#x13e;" horiz-adv-x="618" 
d="M162 1405q92 0 146 -58.5t54 -164.5v-922q0 -90 48 -90q16 0 32 12l15 -6l32 -151l-8 -15q-49 -35 -140 -35t-146.5 63.5t-55.5 172.5v909q0 90 -47 90q-16 0 -33 -12l-14 6l-33 152l8 14q50 35 142 35zM535 1440l14 14h184l12 -14l-124 -385l-17 -15h-112l-11 15z" />
    <glyph glyph-name="Ldot" unicode="&#x13f;" horiz-adv-x="1054" 
d="M710.5 543q-71.5 0 -122.5 51t-51 120.5t51 121t122.5 51.5t122 -50.5t50.5 -122t-50.5 -121.5t-122 -50zM999 193v-193h-827v1331h227v-1138h600z" />
    <glyph glyph-name="ldot" unicode="&#x140;" horiz-adv-x="655" 
d="M575.5 598q-71.5 0 -122 51t-50.5 121t50.5 121t122 51t123 -51t51.5 -121t-51.5 -121t-123 -51zM162 1405q92 0 146 -58.5t54 -164.5v-922q0 -90 48 -90q16 0 32 12l15 -6l32 -151l-8 -15q-49 -35 -140 -35t-146.5 63.5t-55.5 172.5v909q0 90 -47 90q-16 0 -33 -12
l-14 6l-33 152l8 14q50 35 142 35z" />
    <glyph glyph-name="Lslash" unicode="&#x141;" horiz-adv-x="1097" 
d="M469 193h600v-193h-827v477l-179 -84l-16 10v179l195 92v657h227v-549l309 148l19 -8v-181l-328 -155v-393z" />
    <glyph glyph-name="lslash" unicode="&#x142;" horiz-adv-x="686" 
d="M459 260q0 -90 47 -90q16 0 33 12l14 -6l33 -151l-8 -15q-49 -35 -140 -35t-146.5 63.5t-55.5 172.5v324l-166 -86h-19v163l185 97v411q0 90 -48 90q-16 0 -32 -12l-15 6l-32 152l8 14q49 35 141 35t146.5 -58.5t54.5 -164.5v-359l168 88h16v-166l-184 -96v-389z" />
    <glyph glyph-name="Nacute" unicode="&#x143;" horiz-adv-x="1480" 
d="M1085 1331h224v-1331h-150l-764 930v-930h-223v1331h150l763 -930v930zM567 1450h-16l-57 92v17l399 258h16l95 -148v-16z" />
    <glyph glyph-name="nacute" unicode="&#x144;" horiz-adv-x="1290" 
d="M1102 -25q-92 0 -146.5 61.5t-54.5 168.5v393q0 119 -65.5 188.5t-180 69.5t-186.5 -70.5t-72 -187.5v-598h-225v764q0 90 -47 90q-16 0 -33 -12l-14 6l-33 151l8 15q49 35 125 35q145 0 187 -129q129 129 328.5 129t315 -120t115.5 -313v-356q0 -90 47 -90q16 0 33 12
l15 -6l32 -151l-8 -15q-49 -35 -141 -35zM483 1143h-14l-72 88v14l363 303h12l113 -139v-12z" />
    <glyph glyph-name="Ncommaaccent" unicode="&#x145;" horiz-adv-x="1480" 
d="M649 -100h185l10 -15l-111 -346l-16 -14h-119l-12 14l47 346zM1085 1331h224v-1331h-150l-764 930v-930h-223v1331h150l763 -930v930z" />
    <glyph glyph-name="ncommaaccent" unicode="&#x146;" horiz-adv-x="1290" 
d="M555 -100h184l11 -15l-111 -346l-16 -14h-119l-12 14l47 346zM1102 -25q-92 0 -146.5 61.5t-54.5 168.5v393q0 119 -65.5 188.5t-180 69.5t-186.5 -70.5t-72 -187.5v-598h-225v764q0 90 -47 90q-16 0 -33 -12l-14 6l-33 151l8 15q49 35 125 35q145 0 187 -129
q129 129 328.5 129t315 -120t115.5 -313v-356q0 -90 47 -90q16 0 33 12l15 -6l32 -151l-8 -15q-49 -35 -141 -35z" />
    <glyph glyph-name="Ncaron" unicode="&#x147;" horiz-adv-x="1480" 
d="M1085 1331h224v-1331h-150l-764 930v-930h-223v1331h150l763 -930v930zM758 1450h-21l-352 201v16l64 102h16l285 -139l282 139h15l65 -102v-16z" />
    <glyph glyph-name="ncaron" unicode="&#x148;" horiz-adv-x="1290" 
d="M1102 -25q-92 0 -146.5 61.5t-54.5 168.5v393q0 119 -65.5 188.5t-180 69.5t-186.5 -70.5t-72 -187.5v-598h-225v764q0 90 -47 90q-16 0 -33 -12l-14 6l-33 151l8 15q49 35 125 35q145 0 187 -129q129 129 328.5 129t315 -120t115.5 -313v-356q0 -90 47 -90q16 0 33 12
l15 -6l32 -151l-8 -15q-49 -35 -141 -35zM657 1143h-30l-330 198v15l84 102h12l250 -131l248 131h12l84 -102v-15z" />
    <glyph glyph-name="napostrophe" unicode="&#x149;" horiz-adv-x="1290" 
d="M1102 -25q-92 0 -146.5 61.5t-54.5 168.5v393q0 119 -65.5 188.5t-180 69.5t-186.5 -70.5t-72 -187.5v-598h-225v764q0 90 -47 90q-16 0 -33 -12l-14 6l-33 151l8 15q49 35 125 35q145 0 187 -129q129 129 328.5 129t315 -120t115.5 -313v-356q0 -90 47 -90q16 0 33 12
l15 -6l32 -151l-8 -15q-49 -35 -141 -35zM145 1518l13 -15l-121 -364l-14 -13h-117l-10 13l51 364l14 15h184z" />
    <glyph glyph-name="Eng" unicode="&#x14a;" horiz-adv-x="1480" 
d="M1085 1331h224v-1397q0 -178 -119 -286t-293 -109q-103 0 -203 42t-153 120v16l131 123h16q75 -106 224 -106q77 0 132 57t56 160v121l-705 862v-934h-223v1331h150l763 -930v930z" />
    <glyph glyph-name="eng" unicode="&#x14b;" horiz-adv-x="1245" 
d="M693 1049q200 0 316 -120t115 -313v-469q-2 -185 -68 -293t-214 -173h-11l-73 163l2 13q141 70 141 215v526q1 118 -65 188t-181 70t-187 -71t-71 -187v-598h-225v764q0 90 -47 90q-16 0 -33 -12l-14 6l-33 151l8 15q49 35 127 35q143 0 185 -129q128 129 328 129z" />
    <glyph glyph-name="Omacron" unicode="&#x14c;" horiz-adv-x="1593" 
d="M797 180q207 0 345 137t138 349t-138 348q-138 137 -345 137t-345 -137t-138 -348q0 -210 138 -348t345 -138zM797 -25q-305 0 -510 198t-205 493q0 294 205 492t510 198t510 -198t205 -492t-206 -493q-204 -198 -509 -198zM485 1645h625v-156h-625v156z" />
    <glyph glyph-name="omacron" unicode="&#x14d;" horiz-adv-x="1261" 
d="M632 170q144 0 236.5 97.5t92.5 244.5t-92.5 244.5t-236.5 97.5t-237.5 -97.5t-93.5 -244.5t93.5 -244.5t237.5 -97.5zM632 -25q-243 0 -400.5 154t-157.5 383t157.5 383t400.5 154t400.5 -154t157.5 -384t-157.5 -383t-400.5 -153zM326 1329h610v-153h-610v153z" />
    <glyph glyph-name="Ohungarumlaut" unicode="&#x150;" horiz-adv-x="1593" 
d="M797 180q207 0 345 137t138 349t-138 348q-138 137 -345 137t-345 -137t-138 -348q0 -210 138 -348t345 -138zM797 -25q-305 0 -510 198t-205 493q0 294 205 492t510 198t510 -198t205 -492t-206 -493q-204 -198 -509 -198zM1004 1812l16 15h176l10 -15l-209 -354
l-16 -12h-109l-12 12zM692 1812l17 15h176l10 -15l-209 -354l-16 -12h-109l-12 12z" />
    <glyph glyph-name="ohungarumlaut" unicode="&#x151;" horiz-adv-x="1261" 
d="M632 170q144 0 236.5 97.5t92.5 244.5t-92.5 244.5t-236.5 97.5t-237.5 -97.5t-93.5 -244.5t93.5 -244.5t237.5 -97.5zM632 -25q-243 0 -400.5 154t-157.5 383t157.5 383t400.5 154t400.5 -154t157.5 -384t-157.5 -383t-400.5 -153zM838 1509l16 15h176l10 -15l-209 -354
l-16 -14h-108l-13 14zM526 1509l17 15h176l10 -15l-209 -354l-16 -14h-109l-12 14z" />
    <glyph glyph-name="OE" unicode="&#x152;" horiz-adv-x="2279" 
d="M797 180q207 0 345 137.5t138 348.5t-138 348t-345 137t-345.5 -137t-138.5 -348t138.5 -348.5t345.5 -137.5zM2193 1141h-686v-379h535v-184h-535v-388h686v-190h-913v147q-200 -172 -494 -172t-499 198t-205 493t205 492.5t500 197.5t493 -172v147h913v-190z" />
    <glyph glyph-name="oe" unicode="&#x153;" horiz-adv-x="2099" 
d="M632 170q144 0 236.5 97.5t92.5 244.5t-92.5 244.5t-236.5 97.5t-237.5 -97.5t-93.5 -244.5t93.5 -244.5t237.5 -97.5zM1503 874q-127 0 -214 -73.5t-101 -204.5h622q-14 133 -97 205.5t-210 72.5zM1516 154q232 0 348 137h14l117 -105v-16q-78 -96 -204 -145.5
t-259 -49.5q-293 0 -457 201q-160 -201 -444 -201q-242 0 -399.5 154t-157.5 383t157.5 383t399.5 154q281 0 444 -201q152 201 428 201q236 0 382.5 -148.5t146.5 -374.5q-1 -42 -7 -73h-837q12 -141 113 -220t215 -79z" />
    <glyph glyph-name="Racute" unicode="&#x154;" horiz-adv-x="1320" 
d="M399 702h320q109 0 173 60.5t64 159t-64.5 158t-172.5 59.5h-320v-437zM1130 -25q-77 0 -127.5 22.5t-80.5 48.5q-74 63 -165 276t-177 213h-181v-535h-227v1331h526q238 0 364 -106.5t126 -296.5q0 -145 -82 -242.5t-232 -132.5q47 -33 87.5 -131.5t59.5 -136t54 -72.5
t73 -35t62 15l15 -7l45 -157l-8 -15q-55 -39 -132 -39zM442 1450h-16l-57 92v17l399 258h16l95 -148v-16z" />
    <glyph glyph-name="racute" unicode="&#x155;" horiz-adv-x="806" 
d="M602 856q-86 0 -146.5 -72.5t-60.5 -197.5v-586h-223v764q0 90 -47 90q-16 0 -33 -12l-14 6l-33 151l8 15q49 35 127 35q139 0 178 -131q109 131 281 131q86 0 162 -35l8 -17l-57 -163l-15 -7q-49 29 -135 29zM242 1143h-15l-71 88v14l362 303h12l113 -139v-12z" />
    <glyph glyph-name="Rcommaaccent" unicode="&#x156;" horiz-adv-x="1320" 
d="M561 -100h184l11 -15l-111 -346l-16 -14h-119l-12 14l47 346zM399 702h320q109 0 173 60.5t64 159t-64.5 158t-172.5 59.5h-320v-437zM1130 -25q-77 0 -127.5 22.5t-80.5 48.5q-74 63 -165 276t-177 213h-181v-535h-227v1331h526q238 0 364 -106.5t126 -296.5
q0 -145 -82 -242.5t-232 -132.5q47 -33 87.5 -131.5t59.5 -136t54 -72.5t73 -35t62 15l15 -7l45 -157l-8 -15q-55 -39 -132 -39z" />
    <glyph glyph-name="rcommaaccent" unicode="&#x157;" horiz-adv-x="806" 
d="M193 -100h184l10 -15l-111 -346l-16 -14h-119l-12 14l47 346zM602 856q-86 0 -146.5 -72.5t-60.5 -197.5v-586h-223v764q0 90 -47 90q-16 0 -33 -12l-14 6l-33 151l8 15q49 35 127 35q139 0 178 -131q109 131 281 131q86 0 162 -35l8 -17l-57 -163l-15 -7q-49 29 -135 29
z" />
    <glyph glyph-name="Rcaron" unicode="&#x158;" horiz-adv-x="1320" 
d="M399 702h320q109 0 173 60.5t64 159t-64.5 158t-172.5 59.5h-320v-437zM1130 -25q-77 0 -127.5 22.5t-80.5 48.5q-74 63 -165 276t-177 213h-181v-535h-227v1331h526q238 0 364 -106.5t126 -296.5q0 -145 -82 -242.5t-232 -132.5q47 -33 87.5 -131.5t59.5 -136t54 -72.5
t73 -35t62 15l15 -7l45 -157l-8 -15q-55 -39 -132 -39zM633 1450h-21l-352 201v16l64 102h16l285 -139l282 139h15l65 -102v-16z" />
    <glyph glyph-name="rcaron" unicode="&#x159;" horiz-adv-x="806" 
d="M602 856q-86 0 -146.5 -72.5t-60.5 -197.5v-586h-223v764q0 90 -47 90q-16 0 -33 -12l-14 6l-33 151l8 15q49 35 127 35q139 0 178 -131q109 131 281 131q86 0 162 -35l8 -17l-57 -163l-15 -7q-49 29 -135 29zM416 1143h-31l-330 198v15l84 102h13l249 -131l248 131h13
l83 -102v-15z" />
    <glyph glyph-name="Sacute" unicode="&#x15a;" horiz-adv-x="1140" 
d="M571 172q115 0 184.5 52t69.5 122t-29.5 99.5t-47 44t-57.5 33t-62.5 26.5t-75.5 28.5t-103 38.5q-118 44 -210 112q-122 88 -121.5 255.5t130.5 270t329 102.5q289 0 448 -203v-18l-117 -123h-18q-131 154 -311 153q-98 0 -163 -46t-65 -120t58.5 -115.5t122 -65
t125.5 -47.5q146 -57 256 -130q144 -98 144.5 -278.5t-133.5 -284t-345 -103.5q-160 0 -294 62.5t-220 171.5v18l114 131h19q154 -186 372 -186zM723 1817h16l95 -148v-16l-437 -203h-16l-57 92v17z" />
    <glyph glyph-name="sacute" unicode="&#x15b;" horiz-adv-x="946" 
d="M471 1049q121 0 220.5 -44t154.5 -118v-17l-115 -98h-16q-94 109 -240 109q-74 0 -113.5 -31t-39.5 -80t39.5 -77.5t91 -49t93.5 -36t53 -20.5t49 -21.5t53.5 -25t46 -27.5t44.5 -35q12 -16 34 -38q54 -57 55 -159q0 -141 -113 -223.5t-285 -82.5q-274 0 -428 191v16
l115 101h16q45 -61 120 -100.5t160 -39.5t136 37t51 89t-37 89q-39 35 -154.5 78.5t-158.5 62.5t-98 55q-107 70 -107 200.5t102.5 212.5t270.5 82zM594 1548h12l113 -139v-12l-402 -254h-14l-72 88v14z" />
    <glyph glyph-name="Scedilla" unicode="&#x15e;" horiz-adv-x="1140" 
d="M1059 360q0 -164 -116 -265t-302 -118l-29 -61l2 -4q31 10 62 10q74 0 120 -49t46 -134t-72 -145.5t-171 -60.5t-175 28.5t-119 73.5v17l72 88h16q70 -74 166 -74q45 0 75 18.5t30 51.5q0 66 -95 65q-51 0 -98 -20l-65 39l71 162q-264 37 -411 227v18l114 131h19
q154 -186 372 -186q115 0 184.5 52t69.5 122t-29.5 99.5t-47 44t-57.5 33t-62.5 26.5t-75.5 28.5t-103 38.5q-118 44 -210 112q-122 88 -121.5 255.5t130.5 270t329 102.5q289 0 448 -203v-18l-117 -123h-18q-131 154 -311 153q-98 0 -163 -46t-65 -120t58.5 -115.5
t225.5 -105t238 -108.5q185 -115 185 -310z" />
    <glyph glyph-name="scedilla" unicode="&#x15f;" horiz-adv-x="946" 
d="M786.5 72q-94.5 -80 -243.5 -95l-29 -61l2 -4q31 10 62 10q74 0 119.5 -49t45.5 -134t-71.5 -145.5t-171.5 -60.5q-196 0 -293 102v17l72 88h16q70 -74 166 -74q45 0 74.5 18.5t29.5 51.5q0 66 -94 65q-51 0 -98 -20l-66 39l74 164q-207 35 -326 182v16l115 101h16
q45 -61 120 -100.5t160 -39.5t136 37t51 94q0 78 -114 132q-29 12 -111 43t-125 50t-98 55q-107 70 -107 200.5t102.5 212.5t270.5 82q121 0 220.5 -44t154.5 -118v-17l-115 -98h-16q-94 109 -240 109q-74 0 -113.5 -31t-39.5 -80t39.5 -77.5t91 -49t93.5 -36t53 -20.5
t49 -21.5t53.5 -25t46 -27.5t44.5 -35q12 -16 34 -38q54 -57 54.5 -172.5t-94 -195.5z" />
    <glyph glyph-name="Scaron" unicode="&#x160;" horiz-adv-x="1140" 
d="M580 -25q-160 0 -294 62.5t-220 171.5v18l114 131h19q154 -186 372 -186q115 0 184.5 52t69.5 122t-29.5 99.5t-47 44t-57.5 33t-62.5 26.5t-75.5 28.5t-103 38.5q-118 44 -210 112q-122 88 -121.5 255.5t130.5 270t329 102.5q289 0 448 -203v-18l-117 -123h-18
q-131 154 -311 153q-98 0 -163 -46t-65 -120t58.5 -115.5t225.5 -105t238 -108.5q184 -115 184.5 -301.5t-133.5 -290t-345 -103.5zM588 1450h-21l-352 201v16l64 102h16l285 -139l282 139h15l65 -102v-16z" />
    <glyph glyph-name="scaron" unicode="&#x161;" horiz-adv-x="946" 
d="M881 281q0 -141 -113 -223.5t-285 -82.5q-274 0 -428 191v16l115 101h16q45 -61 120 -100.5t160 -39.5t136 37t51 94q0 78 -114 132q-29 12 -111 43t-125 50t-98 55q-107 70 -107 200.5t102.5 212.5t270.5 82q121 0 220.5 -44t154.5 -118v-17l-115 -98h-16
q-94 109 -240 109q-74 0 -113.5 -31t-39.5 -80t40 -77.5t91 -49t93 -36t53 -20.5t49 -21.5t53.5 -25t46 -27.5t44.5 -35q12 -16 34 -38q54 -58 55 -159zM492 1143h-31l-330 198v15l84 102h12l250 -131l248 131h12l84 -102v-15z" />
    <glyph glyph-name="uni0162" unicode="&#x162;" horiz-adv-x="1122" 
d="M674 0h-27l-39 -84l2 -4q31 10 62 10q74 0 120 -49t46 -134t-72 -145.5t-172 -60.5q-196 0 -293 102v17l72 88h16q70 -74 166 -74q45 0 74.5 18.5t29.5 51.5q0 66 -94 65q-51 0 -98 -20l-66 39l80 180h-35v1139h-423v192h1075v-192h-424v-1139z" />
    <glyph glyph-name="uni0163" unicode="&#x163;" horiz-adv-x="788" 
d="M596 -78q74 0 120 -49t46 -134t-72 -145.5t-171 -60.5t-175 28.5t-119 73.5v17l72 88h16q70 -74 166 -74q45 0 75 18.5t30 51.5q0 66 -95 65q-51 0 -98 -20l-65 39l82 184q-92 39 -145.5 127t-53.5 211v508h-174v174h174v301l207 31l16 -10v-322h311v-174h-311v-492
q0 -90 40 -140t114 -50q41 0 86 29l14 -9l66 -141l-7 -16q-76 -55 -186 -56l-27 -59l3 -4q30 10 61 10z" />
    <glyph glyph-name="Tcaron" unicode="&#x164;" horiz-adv-x="1122" 
d="M23 1331h1075v-192h-424v-1139h-228v1139h-423v192zM571 1450h-20l-352 201v16l63 102h17l284 -139l283 139h14l66 -102v-16z" />
    <glyph glyph-name="tcaron" unicode="&#x165;" horiz-adv-x="788" 
d="M209 342v508h-174v174h174v301l207 31l16 -10v-322h311v-174h-311v-492q0 -90 40 -140t114 -50q41 0 86 29l14 -9l66 -141l-7 -16q-78 -55 -190 -56q-152 0 -249 98.5t-97 268.5zM643 1143h-113l-10 14l53 385l15 14h184l12 -14l-125 -385z" />
    <glyph glyph-name="Tbar" unicode="&#x166;" horiz-adv-x="1122" 
d="M1098 1139h-424v-396h246v-149h-246v-594h-228v594h-208v149h208v396h-423v192h1075v-192z" />
    <glyph glyph-name="tbar" unicode="&#x167;" horiz-adv-x="788" 
d="M209 342v133h-170v137h170v238h-174v174h174v301l207 31l16 -10v-322h311v-174h-311v-238h250v-137h-250v-117q0 -90 40 -140t114 -50q41 0 86 29l14 -9l66 -141l-7 -16q-78 -55 -190 -56q-152 0 -249 98.5t-97 268.5z" />
    <glyph glyph-name="Utilde" unicode="&#x168;" horiz-adv-x="1488" 
d="M1335 547q-1 -266 -153 -419t-417 -153t-420 153t-155 419v500q0 55 -11 81t-38 25q-27 0 -41 -14l-16 6l-37 160l10 16q51 35 149 35t154 -67t58 -183v-563q0 -171 92 -267t255 -96t256 96t93 267v788h221v-784zM547 1702q72 0 207 -36t172 -36q94 0 133 72h14l76 -127
v-16q-68 -98 -223 -99q-62 0 -188 36t-191 36q-100 0 -135 -72h-17l-73 127v17q71 98 225 98z" />
    <glyph glyph-name="utilde" unicode="&#x169;" horiz-adv-x="1267" 
d="M1085 -25q-135 0 -180 127q-127 -127 -321 -127t-306 114q-114 114 -114 304v371q0 90 -47 90q-16 0 -33 -12l-14 6l-33 151l8 15q49 35 141 35q92 -1 146 -59t55 -165v-413q-1 -115 63 -180q64 -64 174 -64t180 72t68 186v598h224v-764q0 -90 47 -90q18 0 31 12l16 -6
l33 -151l-11 -15q-45 -35 -127 -35zM782 1323q84 0 117 72h14l76 -127v-15q-72 -96 -188 -96q-57 0 -166 36t-170 36q-86 0 -119 -72h-14l-76 125v16q76 96 190 97q62 0 178 -36t158 -36z" />
    <glyph glyph-name="Umacron" unicode="&#x16a;" horiz-adv-x="1488" 
d="M1335 547q-1 -266 -153 -419t-417 -153t-420 153t-155 419v500q0 55 -11 81t-38 25q-27 0 -41 -14l-16 6l-37 160l10 16q51 35 149 35t154 -67t58 -183v-563q0 -171 92 -267t255 -96t256 96t93 267v788h221v-784zM426 1645h625v-156h-625v156z" />
    <glyph glyph-name="umacron" unicode="&#x16b;" horiz-adv-x="1267" 
d="M1085 -25q-135 0 -180 127q-127 -127 -321 -127t-306 114q-114 114 -114 304v371q0 90 -47 90q-16 0 -33 -12l-14 6l-33 151l8 15q49 35 141 35q92 -1 146 -59t55 -165v-413q-1 -115 63 -180q64 -64 174 -64t180 72t68 186v598h224v-764q0 -90 47 -90q18 0 31 12l16 -6
l33 -151l-11 -15q-45 -35 -127 -35zM928 1329v-153h-611v153h611z" />
    <glyph glyph-name="Uring" unicode="&#x16e;" horiz-adv-x="1488" 
d="M1335 547q-1 -266 -153 -419t-417 -153t-420 153t-155 419v500q0 55 -11 81t-38 25q-27 0 -41 -14l-16 6l-37 160l10 16q51 35 149 35t154 -67t58 -183v-563q0 -171 92 -267t255 -96t256 96t93 267v788h221v-784zM738 1751q-36 0 -62 -28q-26 -27 -27 -65q1 -38 27 -64
t62 -27t64 27t27 65q1 37 -27 65t-64 27zM739 1438q-93 0 -159 64t-66 157q0 92 67 157q67 64 159 64t158 -64q67 -64 67 -157t-67 -157t-159 -64z" />
    <glyph glyph-name="uring" unicode="&#x16f;" horiz-adv-x="1267" 
d="M1085 -25q-135 0 -180 127q-127 -127 -321 -127t-306 114q-114 114 -114 304v371q0 90 -47 90q-16 0 -33 -12l-14 6l-33 151l8 15q49 35 141 35q92 -1 146 -59t55 -165v-413q-1 -115 63 -180q64 -64 174 -64t180 72t68 186v598h224v-764q0 -90 47 -90q18 0 31 12l16 -6
l33 -151l-11 -15q-45 -35 -127 -35zM623 1432q-37 0 -62 -25t-25 -61t26 -60q24 -24 61 -24t61 24t23 61q1 37 -23 61t-61 24zM393 1346q0 92 66 158t163 65q96 0 162 -66q66 -67 66 -157t-66 -156t-163 -66q-96 0 -162 65t-66 157z" />
    <glyph glyph-name="Uhungarumlaut" unicode="&#x170;" horiz-adv-x="1488" 
d="M1335 547q-1 -266 -153 -419t-417 -153t-420 153t-155 419v500q0 55 -11 81t-38 25q-27 0 -41 -14l-16 6l-37 160l10 16q51 35 149 35t154 -67t58 -183v-563q0 -171 92 -267t255 -96t256 96t93 267v788h221v-784zM944 1812l17 15h176l10 -15l-209 -354l-16 -12h-109
l-12 12zM633 1812l16 15h176l11 -15l-209 -354l-17 -12h-108l-13 12z" />
    <glyph glyph-name="uhungarumlaut" unicode="&#x171;" horiz-adv-x="1267" 
d="M1085 -25q-135 0 -180 127q-127 -127 -321 -127t-306 114q-114 114 -114 304v371q0 90 -47 90q-16 0 -33 -12l-14 6l-33 151l8 15q49 35 141 35q92 -1 146 -59t55 -165v-413q-1 -115 63 -180q64 -64 174 -64t180 72t68 186v598h224v-764q0 -90 47 -90q18 0 31 12l16 -6
l33 -151l-11 -15q-45 -35 -127 -35zM698 1141l-12 14l143 354l17 15h176l10 -15l-209 -354l-16 -14h-109zM496 1141h-109l-12 14l143 354l17 15h176l10 -15l-209 -354z" />
    <glyph glyph-name="Uogonek" unicode="&#x172;" horiz-adv-x="1488" 
d="M1114 1331h221v-784q0 -360 -264 -502q-16 -14 -61 -48q-72 -54 -119 -100t-47 -89q0 -44 22 -68t66 -26q43 -1 90 38h16l64 -88v-14q-80 -74 -188 -74t-174 57t-66 151t112 191h-20q-266 0 -421 153t-155 419v500q0 55 -11 81t-38 25q-27 0 -41 -14l-16 6l-37 160l10 16
q51 35 149 35t154 -67t58 -183v-563q0 -171 92 -267t255 -96t256 96t93 267v788z" />
    <glyph glyph-name="uogonek" unicode="&#x173;" horiz-adv-x="1267" 
d="M1056 -459q-107 -1 -174 57t-67 152q0 49 33 99t63 77q31 27 84 70q-61 31 -90 106q-127 -127 -321 -127t-306 114q-114 114 -114 304v371q0 90 -47 90q-16 0 -33 -12l-14 6l-33 151l8 15q49 35 141 35q92 -1 146 -59t55 -165v-413q-1 -115 63 -180q64 -64 174 -64
t180 72t68 186v598h224v-764q0 -90 47 -90q18 0 31 12l16 -6l33 -151l-11 -15q-16 -14 -61 -48t-91 -72t-61 -69q-14 -31 -14 -61t23 -55q24 -25 66 -26t89 38h17l63 -88v-14q-80 -74 -187 -74z" />
    <glyph glyph-name="Wcircumflex" unicode="&#x174;" horiz-adv-x="2074" 
d="M152 1356q172 0 245 -211l262 -787l295 973h164l297 -977l264 791q74 211 246 211q88 0 137 -39l9 -14l-46 -158l-14 -6q-69 29 -99 -11q-15 -20 -38 -81l-375 -1047h-151l-312 975l-311 -975h-152l-374 1047q-19 57 -35 79q-31 43 -101 13l-14 6l-45 158l6 14
q51 39 142 39zM750 1436h-17l-63 102v16l352 201h20l353 -201v-16l-64 -102h-16l-283 139z" />
    <glyph glyph-name="wcircumflex" unicode="&#x175;" horiz-adv-x="1867" 
d="M1288 -25q-222 0 -332 150q-123 -150 -334 -150q-212 0 -334 120t-122 327v342q0 90 -47 90q-16 0 -33 -12l-14 6l-33 151l8 15q49 35 141 35q92 -1 146 -59t55 -165v-409q-1 -119 59 -184q60 -64 166 -64t172 68q64 68 64 180v608h213v-608q0 -120 58 -184t157 -64
q129 0 203 102t78 257t-36 281t-106 200v16l162 109h16q93 -98 145 -256t46 -328q-8 -260 -142 -417t-356 -157zM709 1143h-13l-84 102v15l330 198h31l330 -198v-15l-84 -102h-13l-248 131z" />
    <glyph glyph-name="Ycircumflex" unicode="&#x176;" horiz-adv-x="1413" 
d="M1288 1153q-55 0 -117 -94l-348 -539v-520h-227v516l-356 543q-61 94 -117 94q-27 0 -55 -14l-15 6l-45 158l8 14q49 39 133 39q85 0 147 -50t132 -157l285 -438l278 438q66 103 127 155q62 52 148 52t129 -39l8 -14l-45 -158l-15 -6q-29 14 -55 14zM424 1436h-16
l-64 102v16l352 201h21l352 -201v-16l-63 -102h-17l-282 139z" />
    <glyph glyph-name="ycircumflex" unicode="&#x177;" horiz-adv-x="1216" 
d="M860 1024h221v-846q0 -236 -147 -362t-371 -127q-287 0 -454 209v14l102 123h16q129 -170 338 -170q131 0 215 75t84 212v53q-119 -119 -300 -119t-296 105t-114 301v272q0 90 -48 90q-16 0 -32 -12l-15 6l-32 151l8 15q49 35 139 35q90 -1 144 -59t55 -165v-317
q0 -109 62 -170q62 -62 171 -62q110 0 182 72t72 187v489zM330 1143h-13l-84 102v15l330 198h31l330 -198v-15l-84 -102h-13l-247 131z" />
    <glyph glyph-name="Ydieresis" unicode="&#x178;" horiz-adv-x="1413" 
d="M1288 1153q-55 0 -117 -94l-348 -539v-520h-227v516l-356 543q-61 94 -117 94q-27 0 -55 -14l-15 6l-45 158l8 14q49 39 133 39q85 0 147 -50t132 -157l285 -438l278 438q66 103 127 155q62 52 148 52t129 -39l8 -14l-45 -158l-15 -6q-29 14 -55 14zM929 1448
q-62 0 -107 44q-44 44 -44 106t44 106t106 45q62 0 106 -44q43 -45 43 -107t-43 -106t-105 -44zM493 1448q-62 0 -107 44q-44 44 -44 106t44 106t106 45q62 0 107 -44q44 -45 44 -107t-44 -106t-106 -44z" />
    <glyph glyph-name="Zacute" unicode="&#x179;" horiz-adv-x="1234" 
d="M946 0h-889v150l772 995h-729v186h1022v-151l-768 -994h510q53 0 79 10t26 39q0 28 -17 44l9 14l157 37l17 -8q37 -53 37 -135t-64 -135q-64 -52 -162 -52zM754 1817h16l94 -148v-16l-436 -203h-16l-58 92v17z" />
    <glyph glyph-name="zacute" unicode="&#x17a;" horiz-adv-x="1009" 
d="M94 1024h807v-156l-575 -698h381q82 0 81 49q0 23 -16 39l6 14l150 35l16 -8q37 -49 37 -132t-59 -125t-162 -42h-694v156l573 698h-545v170zM625 1548h12l113 -139v-12l-402 -254h-14l-72 88v14z" />
    <glyph glyph-name="Zdotaccent" unicode="&#x17b;" horiz-adv-x="1234" 
d="M946 0h-889v150l772 995h-729v186h1022v-151l-768 -994h510q53 0 79 10t26 39q0 28 -17 44l9 14l157 37l17 -8q37 -53 37 -135t-64 -135q-64 -52 -162 -52zM607 1448q-60 0 -106 46t-46 108t46 107q46 46 107 46q60 0 106 -46t46 -107t-46 -108q-47 -46 -107 -46z" />
    <glyph glyph-name="zdotaccent" unicode="&#x17c;" horiz-adv-x="1009" 
d="M94 1024h807v-156l-575 -698h381q82 0 81 49q0 23 -16 39l6 14l150 35l16 -8q37 -49 37 -132t-59 -125t-162 -42h-694v156l573 698h-545v170zM506 1141q-63 0 -109 46q-45 46 -45 109q0 62 45 108t109 46t109 -45q47 -45 47 -109t-46 -109q-46 -46 -110 -46z" />
    <glyph glyph-name="Zcaron" unicode="&#x17d;" horiz-adv-x="1234" 
d="M946 0h-889v150l772 995h-729v186h1022v-151l-768 -994h510q53 0 79 10t26 39q0 28 -17 44l9 14l157 37l17 -8q37 -53 37 -135q0 -83 -64 -135q-63 -52 -162 -52zM618 1450h-20l-352 201v16l63 102h17l284 -139l283 139h14l66 -102v-16z" />
    <glyph glyph-name="zcaron" unicode="&#x17e;" horiz-adv-x="1009" 
d="M981 167q0 -83 -59 -125t-162 -42h-694v156l573 698h-545v170h807v-156l-575 -698h381q82 0 81 49q0 23 -16 39l6 14l150 35l16 -8q37 -49 37 -132zM522 1143h-30l-330 198v15l84 102h12l250 -131l248 131h12l84 -102v-15z" />
    <glyph glyph-name="uni01EA" unicode="&#x1ea;" horiz-adv-x="1593" 
d="M313 666q1 -210 139 -348t345 -138t345 137t138 349t-138 348q-138 137 -345 137t-345 -137t-139 -348zM937 -434q-107 0 -174 57t-67 153t125 199h-24q-305 0 -510 198t-205 493q0 294 205 492t510 198t510 -198t204 -492q0 -217 -114 -386t-307 -247q-18 -16 -60 -48
q-122 -92 -153 -151q-30 -59 12 -104q23 -25 65 -26t90 38h17l63 -88v-14q-80 -74 -187 -74z" />
    <glyph glyph-name="uni01EB" unicode="&#x1eb;" horiz-adv-x="1261" 
d="M301 512q0 -147 93 -244.5t237.5 -97.5t237 97.5t92.5 244.5t-92.5 244.5t-236.5 97.5t-237.5 -97.5t-93.5 -244.5zM604 -243.5q0 -28.5 22.5 -53.5t65.5 -26t90 38h17l63 -88v-14q-80 -74 -187 -74t-174 57.5t-67 155.5t158 225q-227 12 -372.5 163t-145.5 376
t157.5 379t400.5 154t400.5 -154t157.5 -383q0 -178 -98.5 -314.5t-262.5 -191.5q-14 -12 -51 -39.5t-54 -42t-45 -38t-41 -41t-23.5 -39t-10.5 -50z" />
    <glyph glyph-name="AEacute" unicode="&#x1fc;" horiz-adv-x="2021" 
d="M1034 442v631l-471 -631h471zM1933 1139h-671v-377h522v-184h-522v-385h671v-193h-899v270h-598l-203 -270h-266l983 1331h983v-192zM1307 1450h-17l-57 92v17l399 258h17l94 -148v-16z" />
    <glyph glyph-name="aeacute" unicode="&#x1fd;" horiz-adv-x="1929" 
d="M793 371v75q-113 47 -237 47.5t-195.5 -49t-71.5 -131.5t66.5 -128t167.5 -46t185.5 64t84.5 168zM1333 874q-127 0 -214 -73.5t-101 -204.5h622q-14 133 -97 205.5t-210 72.5zM1346 154q232 0 348 137h14l117 -105v-16q-78 -96 -204 -145.5t-259 -49.5q-293 0 -457 201
q-66 -92 -183.5 -146.5t-240.5 -54.5q-180 0 -297.5 89.5t-117.5 251t129 245.5t333 84q145 0 265 -49v59q0 102 -80 160.5t-181 58.5q-168 0 -292 -118h-17l-112 106v17q176 170 440 170t387 -162q156 162 393.5 162t384 -148.5t146.5 -374.5q-1 -42 -7 -73h-837
q12 -141 113 -220t215 -79zM805 1143h-14l-72 88v14l362 303h13l112 -139v-12z" />
    <glyph glyph-name="Oslashacute" unicode="&#x1fe;" horiz-adv-x="1593" 
d="M797 180q207 0 345 137t138 345t-133 346l-529 -797q83 -31 179 -31zM797 1151q-207 0 -345 -137t-139 -342q0 -205 129 -344l529 794q-82 29 -174 29zM797 -25q-158 0 -297 58l-90 -135h-240l-4 16l153 229q-237 201 -237 509t205 506t510 198q154 0 293 -56l98 148h235
l4 -16l-159 -240q244 -201 243 -526q-1 -295 -205 -493t-509 -198zM614 1450h-16l-57 92v17l399 258h16l95 -148v-16z" />
    <glyph glyph-name="oslashacute" unicode="&#x1ff;" horiz-adv-x="1261" 
d="M631 170q145 0 237.5 97.5t92.5 232.5t-64 223l-375 -537q54 -16 109 -16zM301 523q0 -136 68 -226l376 539q-51 18 -114 18q-143 0 -236.5 -97.5t-93.5 -233.5zM1190 515q0 -234 -158 -387t-401 -153q-127 0 -228 43l-77 -112h-211l-11 14l138 197q-168 158 -168 391
t157.5 387t399.5 154q119 0 231 -43l99 139h210l11 -15l-158 -227q166 -154 166 -388zM473 1143h-14l-72 88v14l363 303h12l112 -139v-12z" />
    <glyph glyph-name="Scommaaccent" unicode="&#x218;" horiz-adv-x="1140" 
d="M461 -115l16 15h185l10 -15l-111 -346l-16 -14h-119l-12 14zM571 172q115 0 184.5 52t69.5 122t-29.5 99.5t-47 44t-57.5 33t-62.5 26.5t-75.5 28.5t-103 38.5q-118 44 -210 112q-122 88 -121.5 255.5t130.5 270t329 102.5q289 0 448 -203v-18l-117 -123h-18
q-131 154 -311 153q-98 0 -163 -46t-65 -120t58.5 -115.5t122 -65t125.5 -47.5q146 -57 256 -130q144 -98 144.5 -278.5t-133.5 -284t-345 -103.5q-160 0 -294 62.5t-220 171.5v18l114 131h19q154 -186 372 -186z" />
    <glyph glyph-name="scommaaccent" unicode="&#x219;" horiz-adv-x="946" 
d="M362 -115l17 15h184l10 -15l-110 -346l-17 -14h-118l-13 14zM471 1049q121 0 220.5 -44t154.5 -118v-17l-115 -98h-16q-94 109 -240 109q-74 0 -113.5 -31t-39.5 -80t39.5 -77.5t91 -49t93.5 -36t53 -20.5t49 -21.5t53.5 -25t46 -27.5t44.5 -35q12 -16 34 -38
q54 -57 55 -159q0 -141 -113 -223.5t-285 -82.5q-274 0 -428 191v16l115 101h16q45 -61 120 -100.5t160 -39.5t136 37t51 89t-37 89q-39 35 -154.5 78.5t-158.5 62.5t-98 55q-107 70 -107 200.5t102.5 212.5t270.5 82z" />
    <glyph glyph-name="uni021A" unicode="&#x21a;" horiz-adv-x="1122" 
d="M457 -115l16 15h184l11 -15l-111 -346l-16 -14h-119l-12 14zM674 1139v-1139h-228v1139h-423v192h1075v-192h-424z" />
    <glyph glyph-name="uni021B" unicode="&#x21b;" horiz-adv-x="788" 
d="M397 -100h185l10 -15l-111 -346l-16 -14h-119l-12 14l47 346zM209 342v508h-174v174h174v301l207 31l16 -10v-322h311v-174h-311v-492q0 -90 40 -140t114 -50q41 0 86 29l14 -9l66 -141l-7 -16q-78 -55 -190 -56q-152 0 -249 98.5t-97 268.5z" />
    <glyph glyph-name="uni0237" unicode="&#x237;" horiz-adv-x="548" 
d="M410 1024v-893q0 -184 -58 -277t-200 -161h-15l-86 162v16q76 39 107 93t30 171v715h-139v174h361z" />
    <glyph glyph-name="uni02BC" unicode="&#x2bc;" horiz-adv-x="413" 
d="M145 1503l15 15h184l12 -15l-120 -364l-15 -13h-117l-10 13z" />
    <glyph glyph-name="circumflex" unicode="&#x2c6;" horiz-adv-x="849" 
d="M453 1458l329 -198v-15l-84 -102h-12l-248 131l-250 -131h-12l-84 102v15l330 198h31z" />
    <glyph glyph-name="caron" unicode="&#x2c7;" horiz-adv-x="860" 
d="M698 1458l84 -102v-15l-329 -198h-31l-330 198v15l84 102h12l250 -131l248 131h12z" />
    <glyph glyph-name="breve" unicode="&#x2d8;" horiz-adv-x="774" 
d="M385 1143q-133 0 -223 84t-107 219h158q12 -72 59 -116t113 -44t113 44t59 116h158q-17 -135 -107 -219t-223 -84z" />
    <glyph glyph-name="dotaccent" unicode="&#x2d9;" horiz-adv-x="401" 
d="M356 1296q0 -64 -44 -109q-44 -46 -110 -46q-64 0 -110 46q-45 46 -45 109q0 62 45 108q44 46 108 46t110 -45t46 -109z" />
    <glyph glyph-name="ring" unicode="&#x2da;" horiz-adv-x="620" 
d="M311 1262q37 0 61 24t24 61t-24 61t-61 24t-61 -25t-25 -61q1 -36 25 -60t61 -24zM309 1124q-96 0 -162 65t-65 157q0 92 66 158t162 65q97 0 163 -66q66 -67 66 -157t-67 -156t-163 -66z" />
    <glyph glyph-name="ogonek" unicode="&#x2db;" horiz-adv-x="591" 
d="M302 -461q-108 -1 -174 57q-67 58 -67 152q0 49 36 102t62 75q25 23 61 51t40 32h199q-15 -14 -61 -48t-92 -73t-60 -69t-14 -60t22 -55q24 -25 66 -26t90 38h16l63 -88v-14q-79 -74 -187 -74z" />
    <glyph glyph-name="tilde" unicode="&#x2dc;" horiz-adv-x="897" 
d="M272 1395q62 0 178 -36t158 -36q84 0 117 72h14l76 -127v-15q-72 -96 -188 -96q-57 0 -166 36t-170 36q-86 0 -119 -72h-14l-76 125v16q75 97 190 97z" />
    <glyph glyph-name="hungarumlaut" unicode="&#x2dd;" horiz-adv-x="798" 
d="M528 1509l17 15h176l10 -15l-209 -354l-16 -14h-109l-12 14zM217 1509l16 15h177l10 -15l-209 -354l-16 -14h-109l-12 14z" />
    <glyph glyph-name="uni0326" unicode="&#x326;" horiz-adv-x="0" 
d="M-281 -119l17 15h184l10 -15l-110 -346l-17 -14h-118l-13 14z" />
    <glyph glyph-name="Wgrave" unicode="&#x1e80;" horiz-adv-x="2074" 
d="M1925 1356q88 0 137 -39l9 -14l-46 -158l-14 -6q-69 29 -99 -11q-15 -20 -38 -81l-375 -1047h-151l-312 975l-311 -975h-152l-374 1047q-19 57 -35 79q-31 43 -101 13l-14 6l-45 158l6 14q51 39 142 39q172 0 245 -211l262 -787l295 973h164l297 -977l264 791
q74 211 246 211zM893 1817l399 -258v-17l-57 -92h-16l-437 203v16l95 148h16z" />
    <glyph glyph-name="wgrave" unicode="&#x1e81;" horiz-adv-x="1867" 
d="M1288 -25q-222 0 -332 150q-123 -150 -334 -150q-212 0 -334 120t-122 327v342q0 90 -47 90q-16 0 -33 -12l-14 6l-33 151l8 15q49 35 141 35q92 -1 146 -59t55 -165v-409q-1 -119 59 -184q60 -64 166 -64t172 68q64 68 64 180v608h213v-608q0 -120 58 -184t157 -64
q129 0 203 102t78 257t-36 281t-106 200v16l162 109h16q93 -98 145 -256t46 -328q-8 -260 -142 -417t-356 -157zM1128 1143h-12l-403 254v12l112 139h15l360 -303v-14z" />
    <glyph glyph-name="Wacute" unicode="&#x1e82;" horiz-adv-x="2074" 
d="M1925 1356q88 0 137 -39l9 -14l-46 -158l-14 -6q-69 29 -99 -11q-15 -20 -38 -81l-375 -1047h-151l-312 975l-311 -975h-152l-374 1047q-19 57 -35 79q-31 43 -101 13l-14 6l-45 158l6 14q51 39 142 39q172 0 245 -211l262 -787l295 973h164l297 -977l264 791
q74 211 246 211zM1182 1817h16l94 -148v-16l-436 -203h-16l-58 92v17z" />
    <glyph glyph-name="wacute" unicode="&#x1e83;" horiz-adv-x="1867" 
d="M1288 -25q-222 0 -332 150q-123 -150 -334 -150q-212 0 -334 120t-122 327v342q0 90 -47 90q-16 0 -33 -12l-14 6l-33 151l8 15q49 35 141 35q92 -1 146 -59t55 -165v-409q-1 -119 59 -184q60 -64 166 -64t172 68q64 68 64 180v608h213v-608q0 -120 58 -184t157 -64
q129 0 203 102t78 257t-36 281t-106 200v16l162 109h16q93 -98 145 -256t46 -328q-8 -260 -142 -417t-356 -157zM799 1143h-15l-71 88v14l362 303h12l113 -139v-12z" />
    <glyph glyph-name="Wdieresis" unicode="&#x1e84;" horiz-adv-x="2074" 
d="M1925 1356q88 0 137 -39l9 -14l-46 -158l-14 -6q-69 29 -99 -11q-15 -20 -38 -81l-375 -1047h-151l-312 975l-311 -975h-152l-374 1047q-19 57 -35 79q-31 43 -101 13l-14 6l-45 158l6 14q51 39 142 39q172 0 245 -211l262 -787l295 973h164l297 -977l264 791
q74 211 246 211zM1104 1598q0 62 44 106t106 45q62 0 106 -44q44 -45 43 -107q1 -62 -43 -106t-106 -44t-106 44t-44 106zM668 1598q0 62 44 106t106 45q62 0 106 -44q44 -45 45 -107q-1 -62 -45 -106t-106 -44t-106 44t-44 106z" />
    <glyph glyph-name="wdieresis" unicode="&#x1e85;" horiz-adv-x="1867" 
d="M1288 -25q-222 0 -332 150q-123 -150 -334 -150q-212 0 -334 120t-122 327v342q0 90 -47 90q-16 0 -33 -12l-14 6l-33 151l8 15q49 35 141 35q92 -1 146 -59t55 -165v-409q-1 -119 59 -184q60 -64 166 -64t172 68q64 68 64 180v608h213v-608q0 -120 58 -184t157 -64
q129 0 203 102t78 257t-36 281t-106 200v16l162 109h16q93 -98 145 -256t46 -328q-8 -260 -142 -417t-356 -157zM1156 1141q-60 0 -103 43t-43 102q0 58 43 102t103 44t102 -43t42 -103t-42 -102q-42 -43 -102 -43zM757 1141q-60 0 -104 43q-43 43 -43 102q0 58 43 102
t103 44t103 -43q42 -43 42 -103t-42 -102q-42 -43 -102 -43z" />
    <glyph glyph-name="uni1E9E" unicode="&#x1e9e;" horiz-adv-x="1337" 
d="M816 -25q-194 0 -333 93l-8 16l74 141l14 4q98 -65 219 -65t193 72t72 176t-79 173t-225 68h-84v162l224 277q-77 59 -211 59t-212 -93t-79 -265v-793h-227v788q0 264 147 416t399 152q305 0 453 -236l-256 -311q168 -23 265 -139q98 -116 98 -282q0 -167 -125 -290
t-319 -123z" />
    <glyph glyph-name="Ygrave" unicode="&#x1ef2;" horiz-adv-x="1413" 
d="M1288 1153q-55 0 -117 -94l-348 -539v-520h-227v516l-356 543q-61 94 -117 94q-27 0 -55 -14l-15 6l-45 158l8 14q49 39 133 39q85 0 147 -50t132 -157l285 -438l278 438q66 103 127 155q62 52 148 52t129 -39l8 -14l-45 -158l-15 -6q-29 14 -55 14zM909 1450h-16
l-436 203v16l94 148h16l400 -258v-17z" />
    <glyph glyph-name="ygrave" unicode="&#x1ef3;" horiz-adv-x="1216" 
d="M860 1024h221v-846q0 -236 -147 -362t-371 -127q-287 0 -454 209v14l102 123h16q129 -170 338 -170q131 0 215 75t84 212v53q-119 -119 -300 -119t-296 105t-114 301v272q0 90 -48 90q-16 0 -32 -12l-15 6l-32 151l8 15q49 35 139 35q90 -1 144 -59t55 -165v-317
q0 -109 62 -170q62 -62 171 -62q110 0 182 72t72 187v489zM750 1143h-13l-403 254v12l112 139h15l360 -303v-14z" />
    <glyph glyph-name="uni1EF8" unicode="&#x1ef8;" horiz-adv-x="1413" 
d="M1288 1153q-55 0 -117 -94l-348 -539v-520h-227v516l-356 543q-61 94 -117 94q-27 0 -55 -14l-15 6l-45 158l8 14q49 39 133 39q85 0 147 -50t132 -157l285 -438l278 438q66 103 127 155q62 52 148 52t129 -39l8 -14l-45 -158l-15 -6q-29 14 -55 14zM520 1702
q72 0 207 -36t172 -36q94 0 133 72h15l75 -127v-16q-68 -98 -223 -99q-61 0 -187 36t-192 36q-98 0 -135 -72h-16l-74 127v17q72 98 225 98z" />
    <glyph glyph-name="uni1EF9" unicode="&#x1ef9;" horiz-adv-x="1216" 
d="M860 1024h221v-846q0 -236 -147 -362t-371 -127q-287 0 -454 209v14l102 123h16q129 -170 338 -170q131 0 215 75t84 212v53q-119 -119 -300 -119t-296 105t-114 301v272q0 90 -48 90q-16 0 -32 -12l-15 6l-32 151l8 15q49 35 139 35q90 -1 144 -59t55 -165v-317
q0 -109 62 -170q62 -62 171 -62q110 0 182 72t72 187v489zM737 1323q84 0 117 72h14l76 -127v-15q-72 -96 -188 -96q-57 0 -166 36t-170 36q-86 0 -119 -72h-14l-76 125v16q76 96 190 97q61 0 177 -36t159 -36z" />
    <glyph glyph-name="endash" unicode="&#x2013;" horiz-adv-x="1198" 
d="M123 702h952v-176h-952v176z" />
    <glyph glyph-name="emdash" unicode="&#x2014;" horiz-adv-x="1492" 
d="M123 702h1247v-176h-1247v176z" />
    <glyph glyph-name="quoteleft" unicode="&#x2018;" horiz-adv-x="479" 
d="M379 1001q1 -61 -43 -103t-108 -42t-104 44t-41 120t44 165t147 220h19l88 -70v-16q-80 -115 -90 -184q88 -39 88 -134z" />
    <glyph glyph-name="quoteright" unicode="&#x2019;" horiz-adv-x="475" 
d="M254 1409q64 0 104 -44t42 -120q1 -76 -44 -165t-147 -220h-19l-88 70v16q80 115 91 184q-88 39 -89 134q0 61 43 103t107 42z" />
    <glyph glyph-name="quotesinglbase" unicode="&#x201a;" horiz-adv-x="497" 
d="M248 254q64 0 104 -44t42 -120q1 -76 -44 -165t-147 -220h-19l-88 70v16q80 115 90 184q-88 39 -88 134q0 61 43 103t107 42z" />
    <glyph glyph-name="quotedblleft" unicode="&#x201c;" horiz-adv-x="876" 
d="M626 856q-64 0 -104 44q-41 44 -42 120t44 165t148 220h18l88 -70v-16q-80 -115 -90 -184q88 -39 88 -134q0 -61 -43 -103t-107 -42zM379 1001q1 -61 -43 -103t-108 -42t-104 44t-41 120t44 165t147 220h19l88 -70v-16q-80 -115 -90 -184q88 -39 88 -134z" />
    <glyph glyph-name="quotedblright" unicode="&#x201d;" horiz-adv-x="872" 
d="M652 1409q64 0 104 -44q41 -44 42 -120t-44 -165t-148 -220h-18l-88 70v16q80 115 90 184q-88 39 -88 134q0 61 43 103t107 42zM254 1409q64 0 104 -44t42 -120q1 -76 -44 -165t-147 -220h-19l-88 70v16q80 115 91 184q-88 39 -89 134q0 61 43 103t107 42z" />
    <glyph glyph-name="quotedblbase" unicode="&#x201e;" horiz-adv-x="894" 
d="M496 106q0 62 43 104t107 42t104 -44q41 -44 42 -120t-44 -165t-148 -220h-18l-88 70v16q80 115 90 184q-88 39 -88 133zM248 252q64 0 104 -44t42 -120q1 -76 -44 -165t-147 -220h-19l-88 70v16q80 115 90 184q-88 39 -88 133q0 61 43 104q43 42 107 42z" />
    <glyph glyph-name="dagger" unicode="&#x2020;" horiz-adv-x="1062" 
d="M958 954v-176h-315v-1097h-223v1097h-316v176h316v398h223v-398h315z" />
    <glyph glyph-name="daggerdbl" unicode="&#x2021;" horiz-adv-x="1062" 
d="M958 778h-315v-524h315v-176h-315v-397h-223v397h-316v176h316v524h-316v176h316v398h223v-398h315v-176z" />
    <glyph glyph-name="bullet" unicode="&#x2022;" horiz-adv-x="776" 
d="M388 336q-101 0 -172 72t-71 172t71 172t172 72t172 -72t71 -172t-71 -172t-172 -72z" />
    <glyph glyph-name="ellipsis" unicode="&#x2026;" horiz-adv-x="1361" 
d="M1116 -8q-63 0 -108 46t-45 109t45 109t108 45q64 0 110 -45t46 -110q0 -66 -46 -110t-110 -44zM682 -8q-63 0 -109 46q-45 46 -45 109t45 109t109 45q64 0 110 -45t46 -110q0 -66 -46 -110t-110 -44zM248 -8q-63 0 -109 46q-45 46 -45 109t45 109t109 45q64 0 109 -45
q46 -45 46 -110q0 -66 -46 -110t-109 -44z" />
    <glyph glyph-name="perthousand" unicode="&#x2030;" horiz-adv-x="2445" 
d="M1318 121q71 -1 114 65t43 174t-43 175q-43 65 -114 65t-113 -66t-42 -174q0 -109 42 -174t113 -65zM2062 106q76 0 119 69t43 187t-43 186t-119 68t-118 -68t-43 -187q1 -119 43 -187t118 -68zM2382 360q0 -172 -90 -278t-231 -107q-142 1 -230 107t-88 279t88 279
t230 108q141 0 231 -108t90 -280zM1319 -25q-141 1 -230 107t-90 278t89 280t231 108t229 -108t88 -280t-88 -278t-229 -107zM543 970q0 108 -43 174t-114 64q-71 0 -113 -66t-42 -174t42 -174t113 -65q71 0 114 66q43 67 43 175zM248 20l1020 1311h184l8 -20l-1020 -1311
h-184zM387 584q-141 0 -229 106t-88 278t88 279t229 107t229 -106t88 -279t-88 -279t-229 -106z" />
    <glyph glyph-name="guilsinglleft" unicode="&#x2039;" horiz-adv-x="641" 
d="M532 907v-12l-243 -283l243 -282v-13l-108 -104h-12l-340 385v31l340 383h12z" />
    <glyph glyph-name="guilsinglright" unicode="&#x203a;" horiz-adv-x="641" 
d="M229 1012l340 -383v-31l-340 -385h-12l-108 104v13l243 282l-243 283v12l108 105h12z" />
    <glyph glyph-name="fraction" unicode="&#x2044;" horiz-adv-x="1206" 
d="M2 20l1020 1311h184l8 -20l-1019 -1311h-185z" />
    <glyph glyph-name="Euro" unicode="&#x20ac;" horiz-adv-x="1601" 
d="M965 1155q-150 0 -268 -81t-171 -218h584l8 -14l-49 -119h-575q-2 -18 -2 -58t6 -77h575l8 -15l-45 -116h-501q55 -129 171 -205t259 -76q242 0 387 193h14l145 -121v-15q-94 -121 -237 -189t-311 -69q-240 1 -422 133t-248 349h-223l-11 14l47 117h160q-4 49 -4 83t2 52
h-160l-8 16l45 117h146q59 224 244 362t427 138q344 0 553 -262v-17l-145 -114h-14q-145 192 -387 192z" />
    <glyph glyph-name="trademark" unicode="&#x2122;" horiz-adv-x="1527" 
d="M1409 664h-139l-41 374l-164 -374h-94l-162 370l-41 -370h-139l78 667h104l209 -479l207 479h104zM66 1221v110h538v-110h-198v-557h-144v557h-196z" />
    <glyph glyph-name="minus" unicode="&#x2212;" horiz-adv-x="1236" 
d="M129 748h979v-164h-979v164z" />
    <glyph glyph-name="approxequal" unicode="&#x2248;" horiz-adv-x="1230" 
d="M846 358q-78 0 -231 36t-219 36q-130 0 -177 -72h-16l-78 123v15q27 31 49 49q22 19 77 37q54 18 136 18t247 -36t212 -36q117 0 164 72h16l78 -121v-16q-29 -33 -49 -50q-19 -17 -75 -36t-134 -19zM846 731q-78 0 -231 36t-219 36q-128 0 -177 -72h-16l-78 123v14
q27 31 49 50q69 54 213 54q82 0 247 -35q165 -36 212 -36q117 0 164 72h16l78 -121v-16q-29 -32 -49 -50q-19 -18 -75 -36t-134 -19z" />
    <glyph glyph-name="notequal" unicode="&#x2260;" horiz-adv-x="1241" 
d="M1124 768h-344l-123 -205h467v-164h-565l-170 -284h-178l-6 16l160 268h-250v164h348l123 205h-471v164h567l147 246h179l6 -19l-135 -227h245v-164z" />
    <glyph glyph-name="uniF8FF" unicode="&#xf8ff;" horiz-adv-x="2758" 
d="M1305 381q-47 0 -48 -62q0 -17 9 -55q79 12 77 74q0 43 -38 43zM1884 350v8q2 4 2 9q0 39 -37 39q-45 0 -45 -56h80zM2200 518q14 0 14 12t-14 13h-17v-25h17zM2167 557h33q31 0 30 -25q0 -18 -16 -24l16 -27h-18l-14 23h-15v-23h-16v76zM2195 457q25 0 43 18t19 43
q-1 25 -19 43q-18 19 -43 19t-43 -18t-18 -44q0 -25 18 -43t43 -18zM2120 518q0 32 22 54t54 22q30 0 53 -23t23 -53t-24 -54q-22 -22 -53 -22t-53 22t-22 54zM1591 346q0 260 252 260q105 0 167 -61t63 -172q0 -19 -11 -74h-245q6 -50 88 -50q81 1 106 32v-150
q-4 -4 -44 -18t-103 -15q-137 0 -205 67t-68 181zM1040 12q0 295 11 420l12 158h160l6 -60q8 -43 8 -94q29 170 160 170q75 0 117 -60t42 -182t-68 -194t-192 -72q0 -14 2 -22l2 -64h-260zM717 590q-4 -78 -4 -216q0 -54 32 -55q31 0 31 54l-2 60v50q-2 31 -2 107h217l6 -82
q6 -78 6 -220q1 -142 -73 -209t-234 -67q-88 0 -133 14t-57 29v170q45 -37 136 -38t136 36q20 16 23 37q-8 -6 -23 -16q-33 -14 -94 -15q-190 0 -190 152v16h-93l4 -125q25 0 58 13v-152q-33 -33 -137 -35q-150 0 -150 131l4 168h-55v170l248 82l8 -59h338zM2389 817
q48 1 48 59t-48 58t-48 -58t48 -59zM664 817q49 1 49 59t-49 58q-43 0 -43 -58t43 -59zM2142 901q0 254 246 254q140 0 194 -68q54 -67 54 -183t-62 -182t-185 -65q-123 -1 -185 65t-62 179zM1599 670q0 320 23 477h156l6 -51q6 -92 6 -101l4 21q17 50 39 80q45 59 125 59
t114 -48t35 -159l4 -278h-229l4 192q0 51 -33 51t-32 -51l10 -192h-232zM586 657q-182 0 -183 230q-1 133 63 201t208 67q238 0 237 -229v-256h-155l-19 118q-25 -131 -151 -131zM938 965v170l238 73l8 -61h352q8 -105 12 -157t4 -320h-233q0 248 4 295h-117l4 -129
q0 -4 20 -4q20 -1 38 8v-148q-2 -8 -30 -21t-97 -14q-160 0 -160 131l4 177h-47zM127 670q0 303 10 446l13 182h194q2 -46 11 -210t10 -418h-238zM1436 1174q-53 0 -87 36t-34 87q0 52 34 87t87 35t87 -35q33 -35 33 -87t-33 -88q-34 -35 -87 -35z" />
    <glyph glyph-name="H.ss01" horiz-adv-x="1566" 
d="M222 1356q96 0 153 -67t57 -175v-348h703v565h227v-1046q0 -55 10 -81t38 -26t42 15l14 -7l39 -159l-10 -17q-51 -35 -147 -35t-155 66q-58 66 -58 176v356h-703v-573h-227v1047q0 55 -11 81t-38 25q-27 0 -41 -14l-17 6l-37 160l11 16q54 35 150 35z" />
    <glyph glyph-name="Hbar.ss01" horiz-adv-x="1566" 
d="M432 766h703v174h-703v-174zM1348 -25q-96 0 -155 66q-58 66 -58 176v356h-703v-573h-227v1047q0 55 -11 81t-38 25q-27 0 -41 -14l-17 6l-37 160l11 16q54 35 150 35t153 -67t57 -175v-18h703v235h227v-1046q0 -55 10 -81t38 -26t42 15l14 -7l39 -159l-10 -17
q-51 -35 -147 -35z" />
    <glyph glyph-name="N.ss01" horiz-adv-x="1523" 
d="M1126 1331h226v-1331h-150l-764 928v-711q0 -111 -57 -176.5t-153 -65.5t-148 35l-8 17l37 159l14 7q14 -15 42 -15t38 25.5t10 81.5v1046h149l764 -930v930z" />
    <glyph glyph-name="Nacute.ss01" horiz-adv-x="1523" 
d="M1126 1331h226v-1331h-150l-764 928v-711q0 -111 -57 -176.5t-153 -65.5t-148 35l-8 17l37 159l14 7q14 -15 42 -15t38 25.5t10 81.5v1046h149l764 -930v930zM608 1450h-16l-57 92v17l399 258h16l94 -148v-16z" />
    <glyph glyph-name="Ncaron.ss01" horiz-adv-x="1523" 
d="M1126 1331h226v-1331h-150l-764 928v-711q0 -111 -57 -176.5t-153 -65.5t-148 35l-8 17l37 159l14 7q14 -15 42 -15t38 25.5t10 81.5v1046h149l764 -930v930zM799 1450h-21l-352 201v16l63 102h17l285 -139l282 139h14l66 -102v-16z" />
    <glyph glyph-name="Ncommaaccent.ss01" horiz-adv-x="1523" 
d="M690 -100h184l11 -15l-111 -346l-16 -14h-119l-12 14l47 346zM1126 1331h226v-1331h-150l-764 928v-711q0 -111 -57 -176.5t-153 -65.5t-148 35l-8 17l37 159l14 7q14 -15 42 -15t38 25.5t10 81.5v1046h149l764 -930v930z" />
    <glyph glyph-name="Eng.ss01" horiz-adv-x="1523" 
d="M1126 1331h226v-1397q0 -178 -120 -286t-292 -109q-104 0 -204 42t-154 120v16l133 123h16q75 -106 223 -106q76 0 132 57t57 160v121l-705 856v-711q0 -111 -57 -177t-153 -65q-96 0 -148 35l-8 17l37 159l14 7q14 -15 42 -15t38 26t10 81v1046h149l764 -930v930z" />
    <glyph glyph-name="Ntilde.ss01" horiz-adv-x="1523" 
d="M1126 1331h226v-1331h-150l-764 928v-711q0 -111 -57 -176.5t-153.5 -65.5t-147.5 35l-8 17l37 159l14 7q14 -14 42 -14.5t38 25t10 81.5v1046h149l764 -930v930zM598 1702q72 0 207 -36t172 -36q94 0 133 72h14l76 -127v-16q-68 -98 -223 -99q-61 0 -187 36t-192 36
q-98 0 -135 -72h-17l-73 127v17q72 98 225 98z" />
    <glyph glyph-name="Q.ss01" horiz-adv-x="1593" 
d="M313 666q1 -210 139 -348t345 -138t345 137t138 349t-138 348q-138 137 -345 137t-345 -137t-139 -348zM797 -25q-305 0 -510 198t-205 493q0 294 205 492t510 198t510 -198t204 -492q-1 -213 -113 -381t-300 -250l30 -25q10 -8 62 -54t85 -55q34 -9 56 -10q63 0 105 37
l16 -6l76 -141l-6 -17q-76 -70 -203 -70t-270 118q-129 112 -176 138q-48 25 -76 25z" />
    <glyph glyph-name="W.ss01" horiz-adv-x="2048" 
d="M143 1356q91 0 147 -50t105 -161l340 -799l156 367l-266 606l8 12h203l188 -473l188 473h203l8 -12l-266 -606l156 -367l342 799q47 111 103 161t146 50t138 -39l8 -14l-45 -158l-14 -6q-47 12 -63 9q-31 -6 -73 -101l-454 -1047h-152l-225 557l-223 -557h-152l-456 1047
q-25 59 -40 78t-31 23t-65 -9l-14 6l-45 158l8 14q47 39 137 39z" />
    <glyph glyph-name="Wacute.ss01" horiz-adv-x="2048" 
d="M143 1356q91 0 147 -50t105 -161l340 -799l156 367l-266 606l8 12h203l188 -473l188 473h203l8 -12l-266 -606l156 -367l342 799q47 111 103 161t146 50t138 -39l8 -14l-45 -158l-14 -6q-47 12 -63 9q-31 -6 -73 -101l-454 -1047h-152l-225 557l-223 -557h-152l-456 1047
q-25 59 -40 78t-31 23t-65 -9l-14 6l-45 158l8 14q47 39 137 39zM1169 1817h17l94 -148v-16l-436 -203h-17l-57 92v17z" />
    <glyph glyph-name="Wcircumflex.ss01" horiz-adv-x="2048" 
d="M143 1356q91 0 147 -50t105 -161l340 -799l156 367l-266 606l8 12h203l188 -473l188 473h203l8 -12l-266 -606l156 -367l342 799q47 111 103 161t146 50t138 -39l8 -14l-45 -158l-14 -6q-47 12 -63 9q-31 -6 -73 -101l-454 -1047h-152l-225 557l-223 -557h-152l-456 1047
q-25 59 -40 78t-31 23t-65 -9l-14 6l-45 158l8 14q47 39 137 39zM737 1436h-16l-64 102v16l353 201h20l352 -201v-16l-63 -102h-16l-283 139z" />
    <glyph glyph-name="Wdieresis.ss01" horiz-adv-x="2048" 
d="M143 1356q91 0 147 -50t105 -161l340 -799l156 367l-266 606l8 12h203l188 -473l188 473h203l8 -12l-266 -606l156 -367l342 799q47 111 103 161t146 50t138 -39l8 -14l-45 -158l-14 -6q-47 12 -63 9q-31 -6 -73 -101l-454 -1047h-152l-225 557l-223 -557h-152l-456 1047
q-25 59 -40 78t-31 23t-65 -9l-14 6l-45 158l8 14q47 39 137 39zM1092 1598q0 62 44 106t106 45q62 0 106 -44q44 -45 43 -107q1 -62 -43 -106t-106 -44t-106 44t-44 106zM806 1448q-62 0 -107 44q-44 44 -44 106t44 106q45 44 107 45q62 0 106 -44q44 -45 44 -107t-44 -106
t-106 -44z" />
    <glyph glyph-name="Wgrave.ss01" horiz-adv-x="2048" 
d="M143 1356q91 0 147 -50t105 -161l340 -799l156 367l-266 606l8 12h203l188 -473l188 473h203l8 -12l-266 -606l156 -367l342 799q47 111 103 161t146 50t138 -39l8 -14l-45 -158l-14 -6q-47 12 -63 9q-31 -6 -73 -101l-454 -1047h-152l-225 557l-223 -557h-152l-456 1047
q-25 59 -40 78t-31 23t-65 -9l-14 6l-45 158l8 14q47 39 137 39zM881 1817l399 -258v-17l-57 -92h-17l-436 203v16l94 148h17z" />
    <glyph glyph-name="N.ss02" horiz-adv-x="1548" 
d="M1392 1153q-28 0 -38.5 -25.5t-10.5 -80.5v-1047h-149l-764 928v-711q0 -111 -57.5 -176.5t-153.5 -65.5t-147 35l-9 17l37 159l15 7q14 -14 42 -14.5t38 25t10 81.5v1046h151l764 -932v715q0 109 56.5 175.5t153 66.5t147.5 -35l10 -16l-37 -160l-16 -6q-14 14 -42 14z
" />
    <glyph glyph-name="Nacute.ss02" horiz-adv-x="1548" 
d="M1392 1153q-28 0 -38.5 -25.5t-10.5 -80.5v-1047h-149l-764 928v-711q0 -111 -57.5 -176.5t-153.5 -65.5t-147 35l-9 17l37 159l15 7q14 -14 42 -14.5t38 25t10 81.5v1046h151l764 -932v715q0 109 56.5 175.5t153 66.5t147.5 -35l10 -16l-37 -160l-16 -6q-14 14 -42 14z
M629 1450h-17l-57 92v17l399 258h17l94 -148v-16z" />
    <glyph glyph-name="Ncaron.ss02" horiz-adv-x="1548" 
d="M1392 1153q-28 0 -38.5 -25.5t-10.5 -80.5v-1047h-149l-764 928v-711q0 -111 -57.5 -176.5t-153.5 -65.5t-147 35l-9 17l37 159l15 7q14 -14 42 -14.5t38 25t10 81.5v1046h151l764 -932v715q0 109 56.5 175.5t153 66.5t147.5 -35l10 -16l-37 -160l-16 -6q-14 14 -42 14z
M819 1450h-20l-353 201v16l64 102h16l285 -139l283 139h14l66 -102v-16z" />
    <glyph glyph-name="Ncommaaccent.ss02" horiz-adv-x="1548" 
d="M682 -100h184l11 -15l-111 -346l-16 -14h-119l-13 14l48 346zM1392 1153q-28 0 -38.5 -25.5t-10.5 -80.5v-1047h-149l-764 928v-711q0 -111 -57.5 -176.5t-153.5 -65.5t-147 35l-9 17l37 159l15 7q14 -14 42 -14.5t38 25t10 81.5v1046h151l764 -932v715q0 109 56.5 175.5
t153 66.5t147.5 -35l10 -16l-37 -160l-16 -6q-14 14 -42 14z" />
    <glyph glyph-name="Eng.ss02" horiz-adv-x="1548" 
d="M723 -160q74 -106 223 -106q76 0 132.5 57t56.5 160v121l-705 856v-711q0 -111 -57.5 -176.5t-153.5 -65.5t-147 35l-9 17l37 159l15 7q14 -14 42 -14.5t38 25t10 81.5v1046h151l764 -932v715q0 109 56.5 175.5t153 66.5t147.5 -35l10 -16l-37 -160l-16 -6q-14 14 -42 14
t-38.5 -25.5t-10.5 -80.5v-1113q0 -178 -118.5 -286.5t-292.5 -108.5q-104 0 -204.5 42t-154.5 120v16l134 123h16z" />
    <glyph glyph-name="Ntilde.ss02" horiz-adv-x="1548" 
d="M1392 1153q-28 0 -38.5 -25.5t-10.5 -80.5v-1047h-149l-764 928v-711q0 -111 -57.5 -176.5t-153.5 -65.5t-147 35l-9 17l37 159l15 7q14 -14 42 -14.5t38 25t10 81.5v1046h151l764 -932v715q0 109 56.5 175.5t153 66.5t147.5 -35l10 -16l-37 -160l-16 -6q-14 14 -42 14z
M618 1702q72 0 207.5 -36t171.5 -36q94 0 133 72h15l76 -127v-16q-68 -98 -224 -99q-61 0 -187 36t-192 36q-98 0 -135 -72h-16l-74 127v17q72 98 225 98z" />
    <glyph glyph-name="i.loclTRK" horiz-adv-x="505" 
d="M141 0v1024h224v-1024h-224zM252 1141q-63 0 -109 46q-45 46 -45 109q0 62 45 108t109 46t109 -45q47 -45 47 -109t-46 -109q-46 -46 -110 -46z" />
    <glyph glyph-name="e.ss01" horiz-adv-x="1161" 
d="M624 872q-120 0 -208 -72.5t-113 -199.5q133 -80 311 -80q121 0 189.5 48t68.5 129t-64 128t-184 47zM74 512q0 236 154.5 386.5t384 150.5t352 -92.5t122.5 -244t-128 -243.5t-345 -92q-158 0 -315 69q20 -135 113.5 -213.5t234.5 -78.5q98 0 164.5 28.5t134.5 91.5h15
l114 -106v-16q-170 -176 -432 -176.5t-415.5 150t-153.5 386.5z" />
    <glyph glyph-name="eacute.ss01" horiz-adv-x="1161" 
d="M624 872q-120 0 -208 -72.5t-113 -199.5q133 -80 311 -80q121 0 189.5 48t68.5 129t-64 128t-184 47zM74 512q0 236 154.5 386.5t384 150.5t352 -92.5t122.5 -244t-128 -243.5t-345 -92q-158 0 -315 69q20 -135 113.5 -213.5t234.5 -78.5q98 0 164.5 28.5t134.5 91.5h15
l114 -106v-16q-170 -176 -432 -176.5t-415.5 150t-153.5 386.5zM461 1143h-15l-71 88v14l362 303h13l112 -139v-12z" />
    <glyph glyph-name="ecaron.ss01" horiz-adv-x="1161" 
d="M624 872q-120 0 -208 -72.5t-113 -199.5q133 -80 311 -80q121 0 189.5 48t68.5 129t-64 128t-184 47zM74 512q0 236 154.5 386.5t384 150.5t352 -92.5t122.5 -244t-128 -243.5t-345 -92q-158 0 -315 69q20 -135 113.5 -213.5t234.5 -78.5q98 0 164.5 28.5t134.5 91.5h15
l114 -106v-16q-170 -176 -432 -176.5t-415.5 150t-153.5 386.5zM635 1143h-31l-330 198v15l84 102h13l250 -131l247 131h13l84 -102v-15z" />
    <glyph glyph-name="ecircumflex.ss01" horiz-adv-x="1161" 
d="M624 872q-120 0 -208 -72.5t-113 -199.5q133 -80 311 -80q121 0 189.5 48t68.5 129t-64 128t-184 47zM74 512q0 236 154.5 386.5t384 150.5t352 -92.5t122.5 -244t-128 -243.5t-345 -92q-158 0 -315 69q20 -135 113.5 -213.5t234.5 -78.5q98 0 164.5 28.5t134.5 91.5h15
l114 -106v-16q-170 -176 -432 -176.5t-415.5 150t-153.5 386.5zM371 1143h-13l-84 102v15l330 198h31l330 -198v-15l-84 -102h-13l-247 131z" />
    <glyph glyph-name="edieresis.ss01" horiz-adv-x="1161" 
d="M624 872q-120 0 -208 -72.5t-113 -199.5q133 -80 311 -80q121 0 189.5 48t68.5 129t-64 128t-184 47zM74 512q0 236 154.5 386.5t384 150.5t352 -92.5t122.5 -244t-128 -243.5t-345 -92q-158 0 -315 69q20 -135 113.5 -213.5t234.5 -78.5q98 0 164.5 28.5t134.5 91.5h15
l114 -106v-16q-170 -176 -432 -176.5t-415.5 150t-153.5 386.5zM818 1141q-60 0 -103 43t-43 102.5t43 102.5t103 43t102.5 -43t42.5 -102.5t-42.5 -102.5t-102.5 -43zM419 1141q-60 0 -103.5 43t-43.5 102.5t43 102.5t103.5 43t102.5 -43t42 -102.5t-42 -102.5t-102 -43z
" />
    <glyph glyph-name="edotaccent.ss01" horiz-adv-x="1161" 
d="M624 872q-120 0 -208 -72.5t-113 -199.5q133 -80 311 -80q121 0 189.5 48t68.5 129t-64 128t-184 47zM74 512q0 236 154.5 386.5t384 150.5t352 -92.5t122.5 -244t-128 -243.5t-345 -92q-158 0 -315 69q20 -135 113.5 -213.5t234.5 -78.5q98 0 164.5 28.5t134.5 91.5h15
l114 -106v-16q-170 -176 -432 -176.5t-415.5 150t-153.5 386.5zM619.5 1141q-64.5 0 -109.5 46t-45 109.5t45 108.5t108.5 45t109.5 -45t46 -108.5t-45 -109.5t-109.5 -46z" />
    <glyph glyph-name="egrave.ss01" horiz-adv-x="1161" 
d="M624 872q-120 0 -208 -72.5t-113 -199.5q133 -80 311 -80q121 0 189.5 48t68.5 129t-64 128t-184 47zM74 512q0 236 154.5 386.5t384 150.5t352 -92.5t122.5 -244t-128 -243.5t-345 -92q-158 0 -315 69q20 -135 113.5 -213.5t234.5 -78.5q98 0 164.5 28.5t134.5 91.5h15
l114 -106v-16q-170 -176 -432 -176.5t-415.5 150t-153.5 386.5zM791 1143h-13l-403 254v12l112 139h15l360 -303v-14z" />
    <glyph glyph-name="emacron.ss01" horiz-adv-x="1161" 
d="M624 872q-120 0 -208 -72.5t-113 -199.5q133 -80 311 -80q121 0 189.5 48t68.5 129t-64 128t-184 47zM74 512q0 236 154.5 386.5t384 150.5t352 -92.5t122.5 -244t-128 -243.5t-345 -92q-158 0 -315 69q20 -135 113.5 -213.5t234.5 -78.5q98 0 164.5 28.5t134.5 91.5h15
l114 -106v-16q-170 -176 -432 -176.5t-415.5 150t-153.5 386.5zM924 1329v-153h-611v153h611z" />
    <glyph glyph-name="eogonek.ss01" horiz-adv-x="1161" 
d="M624 872q-120 0 -208 -72.5t-113 -199.5q133 -80 311 -80q121 0 189.5 48t68.5 129t-64 128t-184 47zM639 -235.5q0 -30.5 22.5 -55t65.5 -25.5t90 37h17l63 -88v-14q-80 -74 -187 -74t-174 57.5t-67 155.5t149 217q-244 2 -394 153t-150 385.5t154.5 385t384 150.5
t352 -92.5t122.5 -244t-128 -243.5t-345 -92q-158 0 -315 69q20 -135 113.5 -213.5t234.5 -78.5q98 0 164.5 28.5t134.5 91.5h15l114 -106v-16q-92 -96 -209 -138q-16 -14 -61 -48t-65.5 -51t-49 -45t-40 -51.5t-11.5 -54z" />
    <glyph glyph-name="f.ss01" horiz-adv-x="747" 
d="M596 1241q-72 0 -123 -51t-51 -150v-24h305v-174h-305v-1153h-223v1153h-174v174h174v24q0 188 113 286q114 97 254 97t220 -47l7 -16l-54 -146l-14 -6q-57 33 -129 33z" />
    <glyph glyph-name="i.ss01" horiz-adv-x="569" 
d="M374 -25q-90 -1 -146 63t-56 173v553q0 90 -47 90q-16 0 -33 -12l-14 6l-33 151l8 15q49 35 140 35q91 -1 147 -59t55 -165v-565q0 -90 47 -90q16 0 33 12l14 -6l33 -151l-8 -15q-49 -35 -140 -35zM248 1141q-63 0 -109 46q-45 46 -45 109q0 62 45 108t109 46t109 -45
q46 -45 46 -109t-46 -109q-46 -46 -109 -46z" />
    <glyph glyph-name="dotlessi.ss01" horiz-adv-x="569" 
d="M374 -25q-90 -1 -146 63t-56 173v553q0 90 -47 90q-16 0 -33 -12l-14 6l-33 151l8 15q49 35 140 35q91 -1 147 -59t55 -165v-565q0 -90 47 -90q16 0 33 12l14 -6l33 -151l-8 -15q-49 -35 -140 -35z" />
    <glyph glyph-name="iacute.ss01" horiz-adv-x="569" 
d="M374 -25q-90 -1 -146 63t-56 173v553q0 90 -47 90q-16 0 -33 -12l-14 6l-33 151l8 15q49 35 140 35q91 -1 147 -59t55 -165v-565q0 -90 47 -90q16 0 33 12l14 -6l33 -151l-8 -15q-49 -35 -140 -35zM410 1548h12l113 -139v-12l-402 -254h-14l-72 88v14z" />
    <glyph glyph-name="icircumflex.ss01" horiz-adv-x="569" 
d="M374 -25q-90 -1 -146 63t-56 173v553q0 90 -47 90q-16 0 -33 -12l-14 6l-33 151l8 15q49 35 140 35q91 -1 147 -59t55 -165v-565q0 -90 47 -90q17 0 33 12l14 -6l33 -151l-8 -15q-49 -35 -140 -35zM264 1458l299 -198v-15l-78 -102h-10l-225 131l-227 -131h-11l-75 102
v15l299 198h28z" />
    <glyph glyph-name="idieresis.ss01" horiz-adv-x="569" 
d="M374 -25q-90 -1 -146 63t-56 173v553q0 90 -47 90q-16 0 -33 -12l-14 6l-33 151l8 15q49 35 140 35q91 -1 147 -59t55 -165v-565q0 -90 47 -90q16 0 33 12l14 -6l33 -151l-8 -15q-49 -35 -140 -35zM301 1286q0 58 43 102t103 44q61 0 103 -43t42 -103t-42 -102
q-42 -43 -103 -43q-60 0 -103 43t-43 102zM-98 1286q0 58 43 102t103 44t102 -43t43 -103q-1 -60 -43 -102q-42 -43 -102 -43t-103 43t-43 102z" />
    <glyph glyph-name="igrave.ss01" horiz-adv-x="569" 
d="M374 -25q-90 -1 -146 63t-56 173v553q0 90 -47 90q-16 0 -33 -12l-14 6l-33 151l8 15q49 35 140 35q91 -1 147 -59t55 -165v-565q0 -90 47 -90q16 0 33 12l14 -6l33 -151l-8 -15q-49 -35 -140 -35zM72 1548l360 -303v-14l-72 -88h-12l-403 254v12l112 139h15z" />
    <glyph glyph-name="ij.ss01" horiz-adv-x="1118" 
d="M979 1024v-893q0 -184 -57 -277t-201 -161h-14l-86 162v16q77 39 107 93t30 171v715h-140v174h361zM374 -25q-90 -1 -146 63t-56 173v553q0 90 -47 90q-16 0 -33 -12l-14 6l-33 151l8 15q49 35 140 35q91 -1 147 -59t55 -165v-565q0 -90 47 -90q17 0 33 12l14 -6l33 -151
l-8 -15q-49 -35 -140 -35zM834 1141q-63 0 -109 46q-45 46 -45 109q0 62 45 108t109 46t109 -45q46 -45 46 -109t-46 -109q-46 -46 -109 -46zM248 1141q-63 0 -109 46q-45 46 -45 109q0 62 45 108t109 46t109 -45q46 -45 46 -109t-46 -109q-46 -46 -109 -46z" />
    <glyph glyph-name="imacron.ss01" horiz-adv-x="569" 
d="M374 -25q-90 -1 -146 63t-56 173v553q0 90 -47 90q-16 0 -33 -12l-14 6l-33 151l8 15q49 35 140 35q91 -1 147 -59t55 -165v-565q0 -90 47 -90q16 0 33 12l14 -6l33 -151l-8 -15q-49 -35 -140 -35zM-35 1329h567v-153h-567v153z" />
    <glyph glyph-name="iogonek.ss01" horiz-adv-x="569" 
d="M358 -459q-108 -1 -175 57t-67 160t177 234q-121 53 -121 219v553q0 90 -47 90q-16 0 -33 -12l-14 6l-33 151l8 15q49 35 140 35q91 -1 147 -59t55 -165v-565q0 -90 47 -90q16 0 33 12l14 -6l33 -151l-8 -15q-16 -14 -61 -48t-91 -72t-61 -69q-14 -31 -14 -61
q1 -30 23 -55t65 -26t90 38h16l64 -88v-14q-79 -74 -187 -74zM248 1141q-63 0 -109 46q-45 46 -45 109q0 62 45 108t109 46t109 -45q46 -45 46 -109t-46 -109q-46 -46 -109 -46z" />
    <glyph glyph-name="itilde.ss01" horiz-adv-x="569" 
d="M374 -25q-90 -1 -146 63t-56 173v553q0 90 -47 90q-16 0 -33 -12l-14 6l-33 151l8 15q49 35 140 35q91 -1 147 -59t55 -165v-565q0 -90 47 -90q16 0 33 12l14 -6l33 -151l-8 -15q-49 -35 -140 -35zM84 1395q57 0 165 -36t146 -36q80 0 109 72h14l70 -127v-15
q-63 -96 -174 -96q-52 0 -154 36t-170 36t-100 -72h-13l-71 125v16q72 97 178 97z" />
    <glyph glyph-name="k.ss01" horiz-adv-x="1107" 
d="M989 -25q-137 0 -237 125l-289 349l-101 -109v-340h-223v1126q0 90 -47 91q-20 0 -33 -13l-14 6l-33 152l8 14q49 35 141.5 35t146.5 -58.5t54 -164.5v-631l424 467h240l6 -14l-405 -437l295 -346q53 -57 87 -57t56 14l16 -6l33 -155l-8 -17q-45 -31 -117 -31z" />
    <glyph glyph-name="kcommaaccent.ss01" horiz-adv-x="1107" 
d="M516 -100h184l11 -15l-111 -346l-16 -14h-119l-12 14l47 346zM989 -25q-137 0 -237 125l-289 349l-101 -109v-340h-223v1126q0 90 -47 91q-20 0 -33 -13l-14 6l-33 152l8 14q49 35 141.5 35t146.5 -58.5t54 -164.5v-631l424 467h240l6 -14l-405 -437l295 -346
q53 -57 87 -57t56 14l16 -6l33 -155l-8 -17q-45 -31 -117 -31z" />
    <glyph glyph-name="v.ss01" horiz-adv-x="1183" 
d="M143 1049q159 0 240 -226l209 -544l221 544q45 119 96 172t133 53t127 -30l11 -17l-35 -155l-15 -6q-25 16 -51 14q-47 -4 -96 -119l-307 -735h-168l-307 735q-49 117 -95 119q-31 2 -51 -14l-14 6l-35 155l8 17q47 31 129 31z" />
    <glyph glyph-name="y.ss01" horiz-adv-x="1228" 
d="M338 -311q-102 0 -168 39l-6 14l51 141l14 8q39 -25 80 -24q104 0 162 131l39 82l-301 655q-31 69 -51 93t-47 26t-48 -14l-16 6l-33 155l9 17q45 31 127 31q82 -1 140 -55q56 -54 109 -171l226 -508l225 508q53 123 101 174t130 51t129 -30l9 -17l-35 -155l-15 -6
q-20 16 -48 14t-47 -27t-50 -92l-356 -792q-60 -141 -144 -197t-186 -57z" />
    <glyph glyph-name="yacute.ss01" horiz-adv-x="1228" 
d="M338 -311q-102 0 -168 39l-6 14l51 141l14 8q39 -25 80 -24q104 0 162 131l39 82l-301 655q-31 69 -51 93t-47 26t-48 -14l-16 6l-33 155l9 17q45 31 127 31q82 -1 140 -55q56 -54 109 -171l226 -508l225 508q53 123 101 174t130 51t129 -30l9 -17l-35 -155l-15 -6
q-20 16 -48 14t-47 -27t-50 -92l-356 -792q-60 -141 -144 -197t-186 -57zM446 1143h-14l-72 88v14l363 303h12l113 -139v-12z" />
    <glyph glyph-name="ycircumflex.ss01" horiz-adv-x="1228" 
d="M338 -311q-102 0 -168 39l-6 14l51 141l14 8q39 -25 80 -24q104 0 162 131l39 82l-301 655q-31 69 -51 93t-47 26t-48 -14l-16 6l-33 155l9 17q45 31 127 31q82 -1 140 -55q56 -54 109 -171l226 -508l225 508q53 123 101 174t130 51t129 -30l9 -17l-35 -155l-15 -6
q-20 16 -48 14t-47 -27t-50 -92l-356 -792q-60 -141 -144 -197t-186 -57zM356 1143h-12l-84 102v15l330 198h31l329 -198v-15l-84 -102h-12l-248 131z" />
    <glyph glyph-name="ydieresis.ss01" horiz-adv-x="1228" 
d="M338 -311q-102 0 -168 39l-6 14l51 141l14 8q39 -25 80 -24q104 0 162 131l39 82l-301 655q-31 69 -51 93t-47 26t-48 -14l-16 6l-33 155l9 17q45 31 127 31q82 -1 140 -55q56 -54 109 -171l226 -508l225 508q53 123 101 174t130 51t129 -30l9 -17l-35 -155l-15 -6
q-20 16 -48 14t-47 -27t-50 -92l-356 -792q-60 -141 -144 -197t-186 -57zM804 1141q-60 0 -104 43q-43 43 -43 102q0 58 43 102q44 44 104 44t102 -43t42 -103t-42 -102q-42 -43 -102 -43zM258 1286q0 58 43 102t103 44t102 -43t43 -103q-1 -60 -43 -102q-42 -43 -102 -43
t-103 43t-43 102z" />
    <glyph glyph-name="ygrave.ss01" horiz-adv-x="1228" 
d="M338 -311q-102 0 -168 39l-6 14l51 141l14 8q39 -25 80 -24q104 0 162 131l39 82l-301 655q-31 69 -51 93t-47 26t-48 -14l-16 6l-33 155l9 17q45 31 127 31q82 -1 140 -55q56 -54 109 -171l226 -508l225 508q53 123 101 174t130 51t129 -30l9 -17l-35 -155l-15 -6
q-20 16 -48 14t-47 -27t-50 -92l-356 -792q-60 -141 -144 -197t-186 -57zM776 1143h-12l-404 254v12l113 139h14l361 -303v-14z" />
    <glyph glyph-name="uni1EF9.ss01" horiz-adv-x="1228" 
d="M338 -311q-102 0 -168 39l-6 14l51 141l14 8q39 -25 80 -24q104 0 162 131l39 82l-301 655q-31 69 -51 93t-47 26t-48 -14l-16 6l-33 155l9 17q45 31 127 31q82 -1 140 -55q56 -54 109 -171l226 -508l225 508q53 123 101 174t130 51t129 -30l9 -17l-35 -155l-15 -6
q-20 16 -48 14t-47 -27t-50 -92l-356 -792q-60 -141 -144 -197t-186 -57zM764 1323q84 0 117 72h14l76 -127v-15q-72 -96 -189 -96q-57 0 -166 36t-170 36q-85 0 -118 -72h-15l-75 125v16q76 96 190 97q61 0 177 -36t159 -36z" />
    <glyph glyph-name="f_b" horiz-adv-x="1961" 
d="M1341 170q141 0 231 98q89 98 88 244t-89 244q-87 98 -229 98t-234 -90t-92 -252t92 -252t233 -90zM1384 1049q212 0 358 -155t146 -382t-145 -382t-367 -155t-366 150v-125h-199v1167q-47 74 -176 74q-201 0 -201 -201v-16h285v-174h-285v-942q0 -109 -56 -172
q-56 -64 -146 -64t-140 35l-8 14l33 152l14 6q12 -12 33 -12q47 0 47 88v895h-174v174h174v25q0 180 118 278t307 98t293 -75q103 -76 103 -211v-219q139 129 352 129z" />
    <glyph glyph-name="f_h" horiz-adv-x="1925" 
d="M1739 -25q-93 -1 -147 61t-54 169v393q0 118 -67 188t-181 70t-186 -71t-72 -187v-598h-221v1167q-45 74 -176 74q-199 0 -199 -201v-16h283v-174h-283l-2 -942q0 -109 -55 -172q-55 -64 -147 -64t-138 35l-10 14l33 152l16 6q10 -12 33 -12q45 0 45 88v895h-174v174h174
v25q0 180 118 278t308 98t293 -75q102 -76 102 -211v-193q126 102 312 102t302 -119q116 -120 115 -313v-356q0 -90 47 -90q16 0 33 12l14 -6l33 -151l-8 -15q-49 -35 -141 -35z" />
    <glyph glyph-name="f_k" horiz-adv-x="1847" 
d="M1032 623v-107h258q100 0 162 51q61 51 61 131t-55 129q-54 49 -168 49t-186 -68t-72 -185zM1675 -25q-137 0 -239 125l-217 269h-187v-369h-221v1167q-45 74 -176 74q-199 0 -199 -201v-16h283v-174h-283l-2 -942q0 -109 -55 -172q-55 -64 -147 -64t-138 35l-10 14
l33 152l16 6q10 -12 33 -12q45 0 45 88v895h-174v174h174v25q0 180 118 278t308 98t293 -75q102 -76 102 -211v-189q122 98 308 98t290 -92t105 -245q0 -111 -73 -197t-192 -121l138 -166q51 -57 86 -57t57 14l16 -6l33 -155l-8 -17q-53 -31 -117 -31z" />
    <glyph glyph-name="f_t" horiz-adv-x="1421" 
d="M1065 1024h311v-174h-311v-492q0 -90 40 -140q39 -50 97 -50t103 29l14 -9l65 -141l-6 -16q-78 -55 -186 -56q-156 1 -253 99t-97 268v508h-408v-942q0 -109 -56 -172q-56 -64 -146 -64t-140 35l-8 14l33 152l14 6q12 -12 33 -12q47 0 47 88v895h-174v174h174v37
q0 184 102 277t254 94q90 0 164 -37l8 -17l-53 -145l-14 -8q-41 23 -84 22q-154 0 -154 -186v-37h408v301l207 31l16 -10v-322z" />
    <glyph glyph-name="ordfeminine.ss01" horiz-adv-x="929" 
d="M236 1020q0 -82 51 -138t132 -57q81 1 133 53t52 142t-52 143t-133 53t-132 -56q-51 -58 -51 -140zM396 688q-136 0 -227 95t-91 237t91 237q91 97 224 97t223 -86v71h138v-452q0 -66 34 -66q12 0 23 10l10 -4l25 -102q-22 -37 -107 -37t-118 90q-89 -90 -225 -90z" />
    <glyph glyph-name="ampersand.ss01" horiz-adv-x="1323" 
d="M1282 727v-168h-160q39 -90 39 -158q1 -188 -149 -307t-390 -119t-393 119q-152 119 -151 309q0 119 62 212t175 149q-129 98 -129 246t123 247q123 98 309 99q262 0 418 -197v-18l-112 -103h-19q-125 147 -284 148q-99 0 -161 -49t-62 -129t62 -129t163 -50h71v-174h-73
q-135 0 -226 -71q-90 -72 -90 -177t90 -179q89 -74 225 -72q136 0 225 72t89 168q0 94 -66 163v168h414z" />
    <glyph glyph-name="uni0326.001" horiz-adv-x="0" 
d="M-293 1438l17 14h182l12 -14l-123 -387l-16 -13h-113l-12 13z" />
    <glyph glyph-name="acute.case" horiz-adv-x="661" 
d="M475 1505h17l94 -147v-17l-436 -202h-17l-57 92v16z" />
    <glyph glyph-name="breve.case" horiz-adv-x="796" 
d="M396 1145q-130 0 -222 84t-106 217h157q11 -74 57 -117t116 -43t114 43q45 43 57 117h158q-13 -133 -107 -217t-224 -84z" />
    <glyph glyph-name="caron.case" horiz-adv-x="829" 
d="M713 1466l65 -102v-16l-354 -201h-21l-352 201v16l64 102h16l285 -139l282 139h15z" />
    <glyph glyph-name="circumflex.case" horiz-adv-x="829" 
d="M418 1452l352 -201v-16l-63 -102h-17l-282 139l-283 -139h-16l-64 102v16l352 201h21z" />
    <glyph glyph-name="dieresis.case" horiz-adv-x="913" 
d="M675 1145q-62 0 -107 44q-44 44 -44 106q0 63 44 107t106 44t106 -44q43 -44 43 -106t-43 -107q-43 -44 -105 -44zM239 1145q-62 0 -107 44q-44 44 -44 106q0 63 44 107t106 44t107 -44q44 -44 44 -106t-44 -107q-44 -44 -106 -44z" />
    <glyph glyph-name="dotaccent.case" horiz-adv-x="468" 
d="M82 1298q0 62 46 108t107 46t107 -46t45 -108t-47 -107q-46 -46 -106 -46t-106 46t-46 107z" />
    <glyph glyph-name="grave.case" horiz-adv-x="661" 
d="M186 1505l400 -258v-16l-58 -92h-16l-436 202v17l94 147h16z" />
    <glyph glyph-name="hungarumlaut.case" horiz-adv-x="798" 
d="M528 1509l17 15h176l10 -15l-209 -354l-16 -12h-109l-12 12zM217 1509l16 15h177l10 -15l-209 -354l-16 -12h-109l-12 12z" />
    <glyph glyph-name="macron.case" horiz-adv-x="786" 
d="M82 1341h625v-155h-625v155z" />
    <glyph glyph-name="ring.case" horiz-adv-x="550" 
d="M367 1356q0 36 -28 64t-64 28q-37 0 -63 -28t-26 -66t26 -64t63 -26q36 0 64 28t28 64zM276 1135q-92 1 -158 65t-67 156q0 92 67 156q66 64 158 65q92 0 159 -65q67 -64 67 -156t-67 -156t-159 -65z" />
    <glyph glyph-name="tilde.case" horiz-adv-x="968" 
d="M301 1399q72 0 207 -36t172 -36q94 0 133 72h14l76 -127v-17q-68 -98 -223 -98q-61 0 -187 36t-192 36q-100 0 -135 -72h-16l-74 127v16q71 99 225 99z" />
    <glyph glyph-name="IJacute" horiz-adv-x="1835" 
d="M1028 1331h649v-870q1 -242 -119 -364t-321 -122q-270 0 -418 205v19l135 127h17q102 -145 254 -146q98 0 161 68t64 188v703h-422v192zM745 1145h-217v-959h217v-186h-659v186h215v959h-215v186h659v-186zM1495 1817h16l95 -150v-14l-437 -203h-16l-57 92v17zM559 1817
h16l95 -150v-14l-437 -203h-16l-57 92v17z" />
    <glyph glyph-name="ijacute" horiz-adv-x="1118" 
d="M979 1024v-893q0 -184 -57 -277t-201 -161h-14l-86 162v16q77 39 107 93t30 171v715h-140v174h361zM374 -25q-90 -1 -146 63t-56 173v553q0 90 -47 90q-16 0 -33 -12l-14 6l-33 151l8 15q49 35 140 35q91 -1 147 -59t55 -165v-565q0 -90 47 -90q17 0 33 12l14 -6l33 -151
l-8 -15q-49 -35 -140 -35zM965 1548l112 -139v-12l-401 -254h-14l-72 88v14l362 303h13zM408 1548h12l112 -139v-12l-401 -254h-14l-72 88v14z" />
    <glyph glyph-name="slashlong.case" horiz-adv-x="1337" 
d="M94 -100l-4 16l1022 1534h236l4 -16l-1018 -1534h-240z" />
    <glyph glyph-name="slashlong" horiz-adv-x="1159" 
d="M51 59l-10 15l856 1224h211l10 -14l-856 -1225h-211z" />
    <glyph glyph-name="slashshort.case" horiz-adv-x="804" 
d="M778 748l-715 -351l-16 9v180l715 350l16 -8v-180z" />
    <glyph glyph-name="slashshort" horiz-adv-x="755" 
d="M82 414v166l573 297h19v-164l-576 -299h-16z" />
    <glyph glyph-name="strokelong" horiz-adv-x="1548" 
d="M98 1094h1323v-154h-1323v154z" />
    <glyph glyph-name="strokeshort" horiz-adv-x="747" 
d="M61 733h625v-141h-625v141z" />
    </font>
</defs>
</svg>
