<?xml version="1.0" encoding="UTF-8"?>
<svg xmlns="http://www.w3.org/2000/svg" xmlns:xlink="http://www.w3.org/1999/xlink" version="1.2" >
<font id="Bodoni URW Narrow Light Oblique">
<font-face  font-family="Bodoni URW Narrow" units-per-em="1000" ascent="667" descent="-333" font-style="italic" font-weight="300" font-stretch="semi-condensed" cap-height="667" x-height="387" underline-position="-88" underline-thickness="46" />
<missing-glyph  horiz-adv-x="250" d="" />
<glyph glyph-name="NULL" d="" />
<glyph glyph-name="CR" unicode="&#xd;" horiz-adv-x="250" d="" />
<glyph glyph-name="space" unicode="&#x20;" horiz-adv-x="250" d="" />
<glyph glyph-name="exclam" unicode="&#x21;" horiz-adv-x="260" d="M109 197 C138 321 164 413 190 480 L228 577 C236 597 239 613 239 629 C239 658 225 677 204 677 C168 677 139 633 137 577 L133 480 C128 392 123 351 94 197 L109 197 Z M83 107 C48 107 15 73 15 38 C15 12 33 -7 57 -7 C93 -7 125 26 125 63 C125 88 107 107 83 107 L83 107 Z " />
<glyph glyph-name="quotedbl" unicode="&#x22;" horiz-adv-x="278" d="M102 413 L160 576 C171 608 175 624 175 639 C175 662 164 677 148 677 C118 677 97 640 93 576 L81 413 L102 413 Z M230 413 L287 576 C298 606 302 624 302 639 C302 662 291 677 275 677 C245 677 225 640 220 576 L208 413 L230 413 Z " />
<glyph glyph-name="numbersign" unicode="&#x23;" horiz-adv-x="475" d="M220 442 L291 647 L233 647 L163 442 L76 442 L71 417 L154 417 L92 238 L5 238 L0 213 L83 213 L9 0 L67 0 L141 213 L252 213 L179 0 L236 0 L310 213 L396 213 L400 238 L318 238 L380 417 L467 417 L471 442 L389 442 L460 647 L402 647 L332 442 L220 442 Z M211 417 L323 417 L261 238 L149 238 L211 417 Z " />
<glyph glyph-name="dollar" unicode="&#x24;" horiz-adv-x="475" d="M260 395 L314 648 C359 646 383 631 383 606 C383 600 382 590 381 581 C378 560 376 542 376 534 C376 510 391 493 413 493 C440 493 463 526 463 564 C463 622 401 666 318 668 L335 749 L306 749 L289 667 C238 661 195 642 159 611 C111 569 80 508 80 453 C80 402 106 361 161 326 L210 296 L151 21 C126 23 105 32 93 46 C83 58 80 73 80 109 C80 124 80 128 84 143 C87 155 88 164 88 174 C88 202 76 218 56 218 C24 218 -6 176 -6 131 C-6 63 57 9 147 1 L128 -88 L157 -88 L176 1 C289 8 396 124 396 240 C396 289 371 327 316 361 L260 395 Z M238 411 L209 427 C169 450 146 483 146 520 C146 585 207 639 288 647 L238 411 Z M236 280 L276 255 C310 233 328 204 328 170 C328 98 259 29 180 21 L236 280 Z " />
<glyph glyph-name="percent" unicode="&#x25;" horiz-adv-x="653" d="M226 653 C142 653 55 548 55 445 C55 372 96 319 153 319 C238 319 324 423 324 526 C324 601 284 653 226 653 L226 653 Z M244 451 C226 366 204 337 159 337 C126 337 112 352 112 388 C112 404 115 424 121 451 L135 521 C153 606 175 635 221 635 C253 635 267 620 267 584 C267 568 264 548 259 521 L244 451 Z M550 647 L522 647 L99 0 L127 0 L550 647 Z M496 327 C412 327 325 222 325 120 C325 47 366 -6 423 -6 C508 -6 594 98 594 200 C594 275 554 327 496 327 L496 327 Z M514 126 C496 41 474 12 428 12 C396 12 382 27 382 63 C382 78 385 99 391 126 L405 196 C423 280 445 309 490 309 C523 309 537 294 537 258 C537 243 534 223 528 196 L514 126 Z " />
<glyph glyph-name="ampersand" unicode="&#x26;" horiz-adv-x="564" d="M321 0 L468 0 L472 18 L398 18 L359 112 C420 184 443 229 466 322 L536 322 L540 340 L372 340 L368 322 L446 322 C431 246 395 175 349 131 L264 340 C326 364 354 381 377 407 C396 428 407 456 407 481 C407 523 366 551 305 551 C219 551 151 499 151 433 C151 421 156 401 164 380 L187 322 C107 284 69 259 39 224 C9 188 -7 147 -7 107 C-7 32 39 -10 121 -10 C187 -10 243 11 296 54 L321 0 Z M237 408 C228 429 222 454 222 467 C222 507 250 531 297 531 C334 531 350 518 350 487 C350 456 339 421 320 394 C306 375 291 366 258 353 L237 408 Z M290 71 C244 35 215 21 181 21 C146 21 119 41 101 79 C87 110 78 151 78 183 C78 235 107 266 193 306 L290 71 Z " />
<glyph glyph-name="quotesingle" unicode="&#x27;" horiz-adv-x="150" d="M102 413 L160 576 C171 608 175 624 175 639 C175 662 164 677 148 677 C118 677 97 640 93 576 L81 413 L102 413 Z " />
<glyph glyph-name="parenleft" unicode="&#x28;" horiz-adv-x="252" d="M280 674 C219 611 171 552 126 484 C42 359 6 254 6 138 C6 37 39 -78 97 -186 L111 -177 C85 -91 74 -26 74 54 C74 208 122 386 201 529 C226 574 250 610 290 665 L280 674 Z " />
<glyph glyph-name="parenright" unicode="&#x29;" horiz-adv-x="252" d="M102 665 C129 579 139 514 139 434 C139 280 91 101 12 -42 C-12 -85 -36 -122 -77 -177 L-67 -186 C116 2 207 180 207 350 C207 451 174 568 116 674 L102 665 Z " />
<glyph glyph-name="asterisk" unicode="&#x2a;" horiz-adv-x="475" d="M271 510 C264 508 261 506 257 500 L181 554 C161 568 157 570 147 570 C128 570 109 548 109 527 C109 509 118 504 154 501 L253 492 C252 488 252 487 252 485 C252 482 253 480 254 477 L164 406 C134 383 127 374 127 358 C127 343 139 331 154 331 C170 331 179 340 200 373 L260 472 C263 470 265 470 267 470 C269 470 271 470 275 472 L295 375 C301 341 307 332 323 332 C343 332 365 352 365 371 C365 383 362 388 345 407 L283 477 C287 482 289 485 290 492 L393 503 C437 506 453 518 453 545 C453 561 444 572 430 572 C419 572 415 570 388 555 L290 500 C287 506 285 508 280 510 L323 613 C335 640 336 643 336 654 C336 667 326 677 311 677 C287 677 270 657 270 631 L270 613 L271 510 Z " />
<glyph glyph-name="plus" unicode="&#x2b;" horiz-adv-x="475" d="M217 308 L180 131 L210 131 L248 308 L421 308 L427 338 L254 338 L292 515 L262 515 L224 338 L49 338 L43 308 L217 308 Z " />
<glyph glyph-name="comma" unicode="&#x2c;" horiz-adv-x="234" d="M-5 -152 C77 -88 120 -22 120 40 C120 83 96 112 60 112 C20 112 -14 75 -14 31 C-14 7 -1 -7 20 -7 C48 -7 67 16 73 56 C87 46 92 36 92 16 C92 -29 61 -75 -14 -140 L-5 -152 Z " />
<glyph glyph-name="hyphen" unicode="&#x2d;" horiz-adv-x="179" d="M157 230 L-22 230 L-35 170 L144 170 L157 230 Z " />
<glyph glyph-name="period" unicode="&#x2e;" horiz-adv-x="234" d="M70 107 C35 107 2 73 2 38 C2 12 20 -7 44 -7 C80 -7 112 26 112 63 C112 88 94 107 70 107 L70 107 Z " />
<glyph glyph-name="slash" unicode="&#x2f;" horiz-adv-x="388" d="M423 667 L373 667 L-147 -180 L-96 -180 L423 667 Z " />
<glyph glyph-name="zero" unicode="0" horiz-adv-x="475" d="M308 657 C253 657 201 625 147 558 C71 463 27 339 27 217 C27 82 82 -10 164 -10 C218 -10 272 23 324 89 C402 188 444 307 444 431 C444 494 431 550 405 597 C384 635 348 657 308 657 L308 657 Z M325 251 C287 74 247 10 170 10 C119 10 95 39 95 103 C95 139 101 179 116 251 L147 396 C184 573 225 637 301 637 C352 637 376 608 376 545 C376 507 370 463 356 396 L325 251 Z " />
<glyph glyph-name="one" unicode="1" horiz-adv-x="475" d="M359 647 L172 637 L169 621 L253 621 C266 621 270 619 270 613 C270 609 269 599 268 595 L145 18 L41 18 L37 0 L322 0 L326 18 L225 18 L359 647 Z " />
<glyph glyph-name="two" unicode="2" horiz-adv-x="475" d="M339 0 L376 177 L364 177 C357 159 356 157 352 145 C329 85 321 78 261 77 L45 77 L234 243 L301 301 C347 341 385 384 415 430 C434 459 445 495 445 527 C445 607 388 657 299 657 C191 657 98 576 98 482 C98 443 117 419 147 419 C176 419 201 444 201 474 C201 494 188 508 169 508 C163 508 157 507 151 505 C135 500 135 500 133 500 C127 500 124 505 124 513 C124 570 198 634 264 634 C318 634 351 592 351 523 C351 490 346 457 334 423 C314 363 260 295 167 211 L-18 46 L-28 0 L339 0 Z " />
<glyph glyph-name="three" unicode="3" horiz-adv-x="475" d="M135 358 L131 340 L166 340 C217 340 259 326 278 302 C290 287 296 265 296 236 C296 104 228 10 133 10 C90 10 48 35 48 62 C48 67 51 71 63 79 C82 92 92 112 92 136 C92 154 81 166 64 166 C33 166 7 131 7 89 C7 28 58 -10 140 -10 C218 -10 287 23 337 85 C370 126 389 175 389 219 C389 257 375 292 351 311 C323 333 296 342 231 349 C292 362 328 380 368 420 C405 457 424 499 424 544 C424 612 373 657 296 657 C209 657 134 601 134 535 C134 513 145 498 162 498 C186 498 207 525 207 556 C207 567 203 576 196 583 C191 588 190 590 190 593 C190 613 233 634 275 634 C318 634 343 611 343 573 C343 547 331 491 318 456 C296 393 242 358 170 358 L135 358 Z " />
<glyph glyph-name="four" unicode="4" horiz-adv-x="475" d="M295 174 L382 174 L366 99 L387 99 L423 273 L403 273 L387 199 L300 199 L397 654 L358 654 L0 216 L-9 174 L215 174 L181 18 L93 18 L89 0 L337 0 L341 18 L261 18 L295 174 Z M220 199 L14 199 L294 546 L220 199 Z " />
<glyph glyph-name="five" unicode="5" horiz-adv-x="475" d="M179 570 L355 570 C410 569 426 586 449 672 L436 672 C421 650 417 647 392 647 L220 647 C181 646 172 639 163 597 L96 339 C144 362 163 368 194 368 C261 368 302 329 302 265 C302 198 277 116 240 65 C217 32 174 10 134 10 C93 10 42 37 42 58 C42 63 44 67 49 70 C80 89 92 108 92 136 C92 155 80 168 62 168 C32 168 4 130 4 88 C4 31 59 -10 136 -10 C271 -10 391 105 391 234 C391 328 323 388 216 388 C184 388 161 384 127 372 L179 570 Z " />
<glyph glyph-name="six" unicode="6" horiz-adv-x="475" d="M459 687 C355 666 277 628 203 564 C91 466 17 308 17 167 C17 61 78 -10 170 -10 C299 -10 417 125 417 274 C417 367 361 429 277 429 C233 429 198 415 154 380 C197 537 296 630 455 667 L459 687 Z M260 407 C304 407 333 377 333 332 C333 289 313 185 294 125 C267 40 235 10 173 10 C122 10 96 42 96 106 C96 162 119 267 144 326 C164 373 212 407 260 407 L260 407 Z " />
<glyph glyph-name="seven" unicode="7" horiz-adv-x="475" d="M439 570 L252 280 C235 253 177 155 165 132 C140 86 130 56 130 29 C130 5 144 -10 165 -10 C206 -10 230 27 229 88 L229 127 C228 182 250 231 343 379 L503 629 C508 637 510 641 510 642 C510 646 508 647 498 647 L153 647 L72 468 L88 468 L115 516 C140 561 150 568 199 570 L439 570 Z " />
<glyph glyph-name="eight" unicode="8" horiz-adv-x="475" d="M273 343 C330 357 361 373 392 404 C426 438 445 481 445 525 C445 602 388 657 308 657 C199 657 97 563 97 462 C97 402 131 364 205 343 C142 331 105 314 68 279 C25 239 0 185 0 132 C0 48 67 -10 164 -10 C292 -10 404 90 404 205 C404 242 391 275 367 300 C343 323 321 333 273 343 L273 343 Z M303 637 C344 637 367 612 367 569 C367 541 355 478 341 438 C324 387 289 358 243 358 C200 358 177 381 177 426 C177 455 189 517 203 557 C220 609 255 637 303 637 L303 637 Z M314 238 C314 173 291 98 257 54 C237 28 200 10 167 10 C119 10 90 44 90 100 C90 166 113 242 147 287 C167 313 204 331 237 331 C285 331 314 297 314 241 L314 238 Z " />
<glyph glyph-name="nine" unicode="9" horiz-adv-x="475" d="M6 -41 C129 -19 231 40 319 142 C403 240 453 366 453 480 C453 585 394 657 308 657 C178 657 52 515 52 370 C52 279 114 212 197 212 C245 212 276 228 319 274 C263 100 157 -1 10 -21 L6 -41 Z M298 637 C347 637 375 609 375 558 C375 518 362 433 346 377 C321 285 271 234 205 234 C160 234 136 262 136 316 C136 387 173 535 202 579 C228 618 259 637 298 637 L298 637 Z " />
<glyph glyph-name="colon" unicode="&#x3a;" horiz-adv-x="234" d="M132 400 C97 400 64 367 64 331 C64 306 82 287 107 287 C142 287 175 320 175 356 C175 382 157 400 132 400 L132 400 Z M70 107 C35 107 2 73 2 38 C2 12 20 -7 44 -7 C80 -7 112 26 112 63 C112 88 94 107 70 107 L70 107 Z " />
<glyph glyph-name="semicolon" unicode="&#x3b;" horiz-adv-x="234" d="M121 400 C86 400 53 367 53 331 C53 306 71 287 96 287 C131 287 163 320 163 356 C163 381 145 400 121 400 L121 400 Z M-5 -152 C77 -88 120 -22 120 40 C120 83 96 112 60 112 C20 112 -14 75 -14 31 C-14 7 -1 -7 20 -7 C48 -7 67 16 73 56 C87 46 92 36 92 16 C92 -29 61 -75 -14 -140 L-5 -152 Z " />
<glyph glyph-name="less" unicode="&#x3c;" horiz-adv-x="475" d="M488 595 L42 327 L41 322 L373 52 L386 114 L106 343 L483 571 L488 595 Z " />
<glyph glyph-name="equal" unicode="&#x3d;" horiz-adv-x="475" d="M441 399 L63 399 L57 369 L434 369 L441 399 Z M415 279 L37 279 L31 249 L409 249 L415 279 Z " />
<glyph glyph-name="greater" unicode="&#x3e;" horiz-adv-x="475" d="M-17 52 L429 319 L430 324 L98 595 L85 532 L365 303 L-12 75 L-17 52 Z " />
<glyph glyph-name="question" unicode="&#x3f;" horiz-adv-x="358" d="M111 196 C125 262 136 278 198 324 L255 365 C324 415 364 484 364 554 C364 629 319 677 248 677 C161 677 80 604 80 526 C80 503 91 487 108 487 C132 487 153 514 153 545 L153 547 C154 557 149 565 138 575 C130 582 127 586 127 590 C127 621 192 657 247 657 C296 657 331 626 331 584 C331 550 305 509 264 476 L227 446 C145 385 111 317 98 193 L111 196 Z M92 107 C57 107 24 73 24 38 C24 12 42 -7 66 -7 C102 -7 134 26 134 63 C134 88 116 107 92 107 L92 107 Z " />
<glyph glyph-name="at" unicode="&#x40;" horiz-adv-x="707" d="M507 83 C438 35 371 12 302 12 C171 12 72 116 72 253 C72 452 248 638 438 638 C553 638 642 553 642 441 C642 376 623 320 584 270 C542 216 477 174 436 174 C427 174 421 180 421 187 C421 197 428 216 441 248 L547 487 L486 487 L462 432 C460 456 457 466 450 475 C441 487 422 496 404 496 C301 496 177 359 177 245 C177 187 210 149 259 149 C304 149 340 172 376 223 C373 207 372 198 372 190 C372 162 387 147 417 147 C469 147 529 177 581 229 C641 290 670 360 670 443 C670 571 577 664 450 664 C238 664 44 466 44 250 C44 97 149 -13 295 -13 C386 -13 474 21 545 83 L507 83 Z M408 479 C434 478 448 460 448 430 C448 396 423 328 389 267 C348 194 312 163 271 163 C246 163 232 179 232 208 C232 242 262 319 301 386 C338 450 374 481 408 479 L408 479 Z " />
<glyph glyph-name="A" unicode="A" horiz-adv-x="576" d="M322 214 L344 18 L254 18 L250 0 L508 0 L512 18 L440 18 L370 667 L345 667 L-10 18 L-70 18 L-74 0 L94 0 L98 18 L14 18 L120 214 L322 214 Z M320 232 L130 232 L288 527 L320 232 Z " />
<glyph glyph-name="B" unicode="B" horiz-adv-x="585" d="M46 18 L-35 18 L-39 0 L219 0 C317 0 376 15 426 52 C478 91 510 156 510 222 C510 292 461 333 358 350 C426 364 464 382 500 417 C534 449 553 492 553 535 C553 624 483 667 338 667 L103 667 L99 649 L180 649 L46 18 Z M212 358 L274 649 L325 649 C419 649 457 623 457 557 C457 492 433 425 398 394 C370 368 335 358 277 358 L212 358 Z M140 18 L208 340 L270 340 C362 340 402 311 402 246 C402 196 389 138 369 101 C338 44 292 18 222 18 L140 18 Z " />
<glyph glyph-name="C" unicode="C" horiz-adv-x="561" d="M587 667 L574 667 L532 617 C489 658 448 677 400 677 C304 677 208 624 137 533 C72 450 33 337 33 237 C33 96 122 -10 240 -10 C294 -10 342 7 412 50 L432 0 L445 0 L484 185 L472 185 C403 62 335 10 247 10 C175 10 125 58 125 126 C125 163 139 250 162 350 C189 471 204 521 226 560 C260 621 322 657 392 657 C441 657 483 636 508 599 C529 569 535 545 537 494 L550 494 L587 667 Z " />
<glyph glyph-name="D" unicode="D" horiz-adv-x="640" d="M46 18 L-35 18 L-39 0 L201 0 C309 0 361 14 425 62 C537 145 605 283 605 425 C605 519 572 589 509 631 C471 657 423 667 342 667 L103 667 L99 649 L180 649 L46 18 Z M140 18 L274 649 L337 649 C460 649 510 613 510 525 C510 479 500 414 480 324 C442 155 416 95 366 59 C324 29 281 18 205 18 L140 18 Z " />
<glyph glyph-name="E" unicode="E" horiz-adv-x="556" d="M551 667 L103 667 L99 649 L181 649 L47 18 L-35 18 L-39 0 L431 0 L494 208 L481 208 C453 148 435 116 417 90 C367 26 352 19 263 18 L141 18 L207 329 L247 329 C307 329 329 310 329 259 C329 247 328 234 325 221 L320 198 L333 198 L392 472 L378 472 L374 453 C355 373 327 349 253 347 L210 347 L274 649 L353 649 C480 650 512 618 513 486 L525 486 L551 667 Z " />
<glyph glyph-name="F" unicode="F" horiz-adv-x="508" d="M553 667 L103 667 L99 649 L181 649 L47 18 L-35 18 L-39 0 L221 0 L225 18 L141 18 L207 329 L260 329 C325 329 347 312 347 259 C347 248 346 238 344 227 L339 205 L352 205 L410 475 L396 475 L393 457 C367 362 350 347 265 347 L210 347 L274 649 L377 649 C427 649 461 640 478 624 C500 601 514 559 514 513 C514 505 514 494 513 475 L525 475 L553 667 Z " />
<glyph glyph-name="G" unicode="G" horiz-adv-x="603" d="M575 667 L562 667 L521 625 C480 661 439 677 389 677 C290 677 185 610 113 500 C62 424 32 321 32 228 C32 191 38 158 51 124 C85 35 147 -10 235 -10 C308 -10 381 23 433 80 C462 112 479 144 504 212 L567 212 L571 230 L306 230 L302 212 L400 212 C387 151 380 127 368 102 C338 43 289 10 231 10 C165 10 124 51 124 118 C124 221 192 505 232 571 C266 627 319 657 381 657 C471 657 517 595 520 471 L533 471 L575 667 Z " />
<glyph glyph-name="H" unicode="H" horiz-adv-x="674" d="M466 330 L400 18 L316 18 L312 0 L572 0 L576 18 L493 18 L627 649 L710 649 L714 667 L454 667 L450 649 L534 649 L470 348 L211 348 L274 649 L358 649 L362 667 L103 667 L99 649 L181 649 L47 18 L-35 18 L-39 0 L221 0 L225 18 L141 18 L207 330 L466 330 Z " />
<glyph glyph-name="I" unicode="I" horiz-adv-x="321" d="M47 18 L-35 18 L-39 0 L219 0 L223 18 L141 18 L274 649 L357 649 L361 667 L103 667 L99 649 L181 649 L47 18 Z " />
<glyph glyph-name="J" unicode="J" horiz-adv-x="364" d="M334 649 L412 649 L416 667 L162 667 L158 649 L241 649 L116 63 C106 16 98 -6 84 -24 C69 -43 47 -55 27 -55 C13 -55 2 -46 2 -36 C2 -34 3 -30 6 -27 C22 -6 26 5 26 24 C26 45 15 58 -3 58 C-33 58 -59 26 -59 -11 C-59 -48 -29 -75 13 -75 C52 -75 95 -60 128 -35 C180 5 208 56 228 149 L334 649 Z " />
<glyph glyph-name="K" unicode="K" horiz-adv-x="623" d="M47 18 L-35 18 L-39 0 L214 0 L218 18 L141 18 L274 649 L352 649 L356 667 L103 667 L99 649 L181 649 L47 18 Z M313 407 L570 649 L650 649 L654 667 L453 667 L449 649 L541 649 L225 353 L393 18 L308 18 L304 0 L553 0 L556 18 L507 18 L313 407 Z " />
<glyph glyph-name="L" unicode="L" horiz-adv-x="539" d="M430 0 L486 205 L473 205 C411 55 369 17 271 18 L141 18 L274 649 L352 649 L356 667 L103 667 L99 649 L181 649 L47 18 L-35 18 L-39 0 L430 0 Z " />
<glyph glyph-name="M" unicode="M" horiz-adv-x="725" d="M248 0 L266 0 L587 644 L455 18 L377 18 L373 0 L626 0 L630 18 L548 18 L682 649 L764 649 L768 667 L579 667 L330 166 L290 667 L100 667 L96 649 L172 649 L38 18 L-38 18 L-42 0 L138 0 L142 18 L61 18 L195 649 L248 0 Z " />
<glyph glyph-name="N" unicode="N" horiz-adv-x="645" d="M456 0 L472 0 L610 649 L680 649 L684 667 L509 667 L505 649 L587 649 L488 185 L293 667 L93 667 L89 649 L171 649 L37 18 L-45 18 L-49 0 L144 0 L148 18 L61 18 L193 644 L456 0 Z " />
<glyph glyph-name="O" unicode="O" horiz-adv-x="627" d="M389 677 C204 677 35 467 35 237 C35 91 118 -10 239 -10 C424 -10 594 202 594 433 C594 574 508 677 389 677 L389 677 Z M383 657 C458 657 503 611 503 535 C503 503 498 466 484 400 C441 194 429 149 405 107 C370 46 311 10 243 10 C170 10 125 57 125 132 C125 164 130 201 144 267 C186 472 199 518 223 560 C258 621 317 657 383 657 L383 657 Z " />
<glyph glyph-name="P" unicode="P" horiz-adv-x="544" d="M205 323 L296 323 C376 323 431 338 477 373 C529 412 560 470 560 527 C560 574 539 616 505 638 C475 657 430 667 369 667 L103 667 L99 649 L181 649 L47 18 L-35 18 L-39 0 L221 0 L225 18 L141 18 L205 323 Z M209 341 L274 649 L359 649 C424 649 454 628 454 582 C454 526 431 429 409 395 C385 355 354 341 294 341 L209 341 Z " />
<glyph glyph-name="Q" unicode="Q" horiz-adv-x="627" d="M286 -6 C454 27 594 226 594 434 C594 574 507 677 389 677 C203 677 34 466 34 235 C34 110 98 16 197 -6 L194 -19 C190 -39 188 -60 188 -78 C188 -174 261 -215 431 -217 L434 -204 C316 -199 274 -170 274 -93 C274 -72 278 -42 284 -13 L286 -6 Z M383 657 C458 657 503 611 503 535 C503 503 498 466 484 400 C441 194 429 149 405 107 C370 46 311 10 243 10 C170 10 125 57 125 132 C125 164 130 202 144 267 C187 473 199 519 223 560 C258 621 317 657 383 657 L383 657 Z " />
<glyph glyph-name="R" unicode="R" horiz-adv-x="612" d="M210 345 L265 345 C306 345 343 333 358 315 C368 302 373 283 373 258 C373 247 371 229 368 214 L357 165 C352 138 349 117 349 100 C349 35 387 -5 449 -5 C473 -5 491 -1 518 12 L517 29 C495 19 486 16 474 16 C452 16 438 33 438 58 C438 69 440 80 446 108 L457 163 C460 177 462 193 462 207 C462 248 450 282 426 305 C402 329 378 339 322 350 C406 360 449 376 494 415 C534 450 556 498 556 548 C556 589 538 622 507 641 C473 662 442 667 361 667 L103 667 L99 649 L181 649 L47 18 L-35 18 L-39 0 L221 0 L225 18 L141 18 L210 345 Z M214 363 L274 649 L339 649 C385 649 421 638 436 618 C446 605 452 583 452 555 C452 493 429 432 394 402 C363 376 324 363 272 363 L214 363 Z " />
<glyph glyph-name="S" unicode="S" horiz-adv-x="477" d="M468 676 L455 676 L416 633 C382 663 346 677 304 677 C190 677 84 559 84 433 C84 369 116 333 189 310 L258 290 C322 271 349 242 349 194 C349 93 270 10 175 10 C91 10 36 74 36 171 C36 182 36 190 38 207 L19 207 L-19 0 L-6 0 L39 56 C78 8 114 -10 170 -10 C237 -10 296 20 341 78 C386 134 412 207 412 275 C412 344 376 386 296 409 L249 423 C175 444 145 470 145 511 C145 587 218 657 298 657 C369 657 415 608 415 533 C415 527 415 518 413 503 L432 503 L468 676 Z " />
<glyph glyph-name="T" unicode="T" horiz-adv-x="554" d="M567 459 L599 667 L90 667 L39 459 L51 457 C84 536 104 568 146 612 C176 641 196 648 253 649 L298 649 L165 18 L70 18 L66 0 L344 0 L348 18 L258 18 L392 649 L437 649 C522 648 548 604 554 457 L567 459 Z " />
<glyph glyph-name="U" unicode="U" horiz-adv-x="610" d="M257 649 L339 649 L343 667 L90 667 L86 649 L163 649 L78 249 C68 201 63 163 63 138 C63 41 126 -10 243 -10 C328 -10 389 17 433 73 C461 110 477 149 492 222 L583 649 L652 649 L655 667 L488 667 L484 649 L560 649 L469 222 C454 150 446 128 427 98 C390 42 335 10 273 10 C197 10 150 53 150 123 C150 141 153 160 162 205 L257 649 Z " />
<glyph glyph-name="V" unicode="V" horiz-adv-x="527" d="M269 144 L209 649 L300 649 L304 667 L55 667 L51 649 L112 649 L192 -10 L211 -10 L550 649 L613 649 L617 667 L437 667 L434 649 L527 649 L269 144 Z " />
<glyph glyph-name="W" unicode="W" horiz-adv-x="745" d="M493 143 L453 431 L573 649 L626 649 L630 667 L61 667 L57 649 L113 649 L194 -10 L211 -10 L380 292 L418 -10 L435 -10 L772 649 L824 649 L828 667 L668 667 L665 649 L751 649 L493 143 Z M209 649 L332 649 L375 325 L270 135 L209 649 Z M422 649 L554 649 L450 467 L422 649 Z " />
<glyph glyph-name="X" unicode="X" horiz-adv-x="554" d="M311 385 L525 649 L592 649 L596 667 L418 667 L414 649 L498 649 L304 408 L219 649 L312 649 L316 667 L61 667 L57 649 L110 649 L228 310 L-2 18 L-68 18 L-72 0 L108 0 L112 18 L25 18 L235 288 L329 18 L244 18 L240 0 L492 0 L496 18 L438 18 L311 385 Z " />
<glyph glyph-name="Y" unicode="Y" horiz-adv-x="524" d="M545 649 L610 649 L614 667 L433 667 L429 649 L521 649 L318 353 L209 649 L293 649 L297 667 L52 667 L48 649 L102 649 L222 312 L160 18 L65 18 L61 0 L344 0 L348 18 L253 18 L315 312 L545 649 Z " />
<glyph glyph-name="Z" unicode="Z" horiz-adv-x="530" d="M417 0 L479 208 L466 208 C397 53 352 13 250 18 L66 18 L576 667 L149 667 L86 464 L99 464 C161 604 206 648 287 649 L460 649 L-37 24 L-42 0 L417 0 Z " />
<glyph glyph-name="bracketleft" unicode="&#x5b;" horiz-adv-x="251" d="M312 649 L316 667 L134 667 L-46 -180 L136 -180 L140 -162 L33 -162 L205 649 L312 649 Z " />
<glyph glyph-name="backslash" unicode="&#x5c;" horiz-adv-x="388" d="M110 667 L270 -180 L320 -180 L161 667 L110 667 Z " />
<glyph glyph-name="bracketright" unicode="&#x5d;" horiz-adv-x="251" d="M-99 -162 L-103 -180 L79 -180 L259 667 L77 667 L73 649 L180 649 L7 -162 L-99 -162 Z " />
<glyph glyph-name="asciicircum" unicode="&#x5e;" horiz-adv-x="475" d="M489 285 L324 700 L318 700 L-34 285 L67 285 L327 591 L451 285 L489 285 Z " />
<glyph glyph-name="underscore" unicode="&#x5f;" horiz-adv-x="498" d="M-69 -88 L-79 -134 L378 -134 L388 -88 L-69 -88 Z " />
<glyph glyph-name="grave" unicode="&#x60;" horiz-adv-x="484" d="M241 613 L176 613 C167 613 162 610 162 605 C162 602 164 598 167 595 L299 466 C301 463 302 463 303 463 C306 463 307 465 307 468 C307 468 307 469 306 470 L241 613 Z " />
<glyph glyph-name="a" unicode="a" horiz-adv-x="401" d="M229 215 C135 212 81 198 38 164 C3 136 -18 98 -18 60 C-18 16 12 -10 62 -10 C117 -10 157 14 198 71 C197 60 197 53 197 48 C197 10 217 -10 254 -10 C277 -10 289 -5 325 18 L319 30 C306 19 297 15 288 15 C276 15 269 22 269 32 L269 34 L272 57 L320 282 C323 296 324 309 324 323 C324 368 283 396 217 396 C131 396 53 343 53 285 C53 270 65 257 79 257 C102 257 123 281 123 309 C123 314 121 321 119 329 C117 334 116 338 116 341 C116 358 164 380 200 380 C233 380 252 365 252 340 C252 327 252 323 250 315 L229 215 Z M219 167 C208 119 199 94 182 72 C161 46 134 30 107 30 C80 30 62 49 62 77 C62 106 75 136 96 156 C127 186 161 198 226 200 L219 167 Z " />
<glyph glyph-name="b" unicode="b" horiz-adv-x="468" d="M228 667 L88 667 L84 649 L147 649 L13 18 L-50 18 L-54 0 L86 0 L101 69 C121 12 147 -10 196 -10 C304 -10 407 118 407 252 C407 342 360 397 283 397 C234 397 195 372 153 313 L228 667 Z M301 163 C285 91 276 64 259 41 C245 22 221 10 196 10 C148 10 117 50 117 111 C117 255 188 377 272 377 C308 377 328 355 328 317 C328 298 326 283 318 244 L301 163 Z " />
<glyph glyph-name="c" unicode="c" horiz-adv-x="383" d="M311 126 C275 51 220 10 154 10 C114 10 84 37 84 72 L84 77 L96 165 L109 228 C132 338 168 378 241 378 C275 378 306 366 306 352 C306 349 305 347 299 341 C285 326 275 302 275 282 C275 261 285 249 303 249 C330 249 352 278 352 314 C352 363 308 397 244 397 C118 397 3 277 3 145 C3 53 62 -10 146 -10 C227 -10 286 34 330 126 L311 126 Z " />
<glyph glyph-name="d" unicode="d" horiz-adv-x="467" d="M239 0 L379 0 L383 18 L320 18 L457 667 L309 667 L305 649 L377 649 L304 307 C287 372 260 397 208 397 C99 397 2 272 2 131 C2 49 52 -10 123 -10 C176 -10 212 15 257 84 L239 0 Z M110 233 C133 341 158 377 210 377 C256 377 287 334 287 269 C287 137 212 10 135 10 C101 10 83 31 83 72 C83 96 86 119 96 165 L110 233 Z " />
<glyph glyph-name="e" unicode="e" horiz-adv-x="410" d="M107 228 L354 228 C357 245 358 253 358 264 C358 341 304 397 229 397 C168 397 109 364 62 302 C24 253 3 199 3 148 C3 58 66 -10 151 -10 C228 -10 298 45 330 130 L311 130 C282 56 222 10 155 10 C109 10 81 37 81 83 C81 98 84 121 91 151 L107 228 Z M272 246 L111 246 L118 280 C132 345 166 377 222 377 C265 377 285 361 285 325 C285 312 284 301 281 289 L272 246 Z " />
<glyph glyph-name="f" unicode="f" horiz-adv-x="283" d="M182 369 L268 369 L272 387 L186 387 L222 557 C232 606 237 620 251 637 C263 652 280 661 299 661 C314 661 321 658 328 649 C308 633 299 617 299 595 C299 578 309 566 323 566 C347 566 367 593 367 625 C367 655 341 677 304 677 C261 677 217 652 183 608 C154 572 142 544 128 474 L109 387 L26 387 L22 369 L105 369 L31 18 L-52 18 L-56 0 L186 0 L190 18 L107 18 L182 369 Z " />
<glyph glyph-name="g" unicode="g" horiz-adv-x="415" d="M61 18 C21 18 1 28 1 49 C1 73 29 100 88 133 C112 121 129 117 154 117 C250 117 332 195 332 287 C332 308 328 321 317 343 C332 356 341 361 350 361 C358 361 360 357 360 341 C360 325 368 315 381 315 C402 315 419 336 419 361 C419 380 406 391 384 391 C362 391 344 382 308 353 C281 385 256 397 214 397 C117 397 36 320 36 227 C36 192 46 171 74 144 C34 117 13 103 12 102 C-25 71 -44 35 -44 -2 C-44 -37 -27 -57 13 -69 C-53 -96 -81 -128 -81 -176 C-81 -234 -21 -274 65 -274 C196 -274 305 -172 305 -49 C305 2 280 18 202 18 L61 18 Z M239 228 C224 156 207 137 156 137 C123 137 107 150 107 178 C107 188 109 201 115 228 L128 288 C142 354 163 377 210 377 C244 377 260 365 260 339 C260 330 258 314 253 293 L239 228 Z M39 -70 L76 -70 L194 -70 C269 -70 279 -74 279 -101 C279 -121 267 -150 248 -173 C207 -225 145 -254 76 -254 C6 -254 -35 -223 -35 -168 C-35 -131 -18 -101 20 -70 L39 -70 Z " />
<glyph glyph-name="h" unicode="h" horiz-adv-x="496" d="M228 667 L88 667 L84 649 L147 649 L13 18 L-50 18 L-54 0 L146 0 L149 18 L90 18 L124 177 C139 248 153 286 176 315 C204 353 243 374 283 374 C319 374 337 358 337 327 C337 315 335 299 332 286 L275 18 L212 18 L208 0 L408 0 L412 18 L352 18 L409 286 C412 298 413 311 413 324 C413 343 409 357 401 367 C386 386 352 397 312 397 C252 397 212 379 156 327 L228 667 Z " />
<glyph glyph-name="i" unicode="i" horiz-adv-x="251" d="M182 387 L46 387 L42 369 L102 369 L27 18 L-32 18 L-36 0 L164 0 L167 18 L104 18 L182 387 Z M197 654 C163 654 131 623 131 590 C131 565 149 547 174 547 C208 547 240 578 240 612 C240 636 222 654 197 654 L197 654 Z " />
<glyph glyph-name="j" unicode="j" horiz-adv-x="221" d="M169 387 L29 387 L25 369 L88 369 L-29 -182 C-39 -232 -55 -254 -82 -254 C-95 -254 -102 -248 -102 -237 C-102 -234 -101 -231 -99 -227 C-94 -212 -94 -212 -93 -193 L-93 -180 C-93 -167 -103 -157 -117 -157 C-141 -157 -162 -187 -162 -220 C-162 -249 -130 -274 -94 -274 C-49 -274 -3 -247 26 -203 C46 -173 56 -146 70 -77 L169 387 Z M182 654 C147 654 115 623 115 589 C115 565 133 547 158 547 C192 547 224 578 224 612 C224 636 206 654 182 654 L182 654 Z " />
<glyph glyph-name="k" unicode="k" horiz-adv-x="465" d="M224 667 L88 667 L84 649 L143 649 L9 18 L-50 18 L-54 0 L146 0 L149 18 L86 18 L224 667 Z M226 250 L373 369 L437 369 L441 387 L255 387 L251 369 L341 369 L148 214 L248 18 L196 18 L192 0 L394 0 L398 18 L352 18 L226 250 Z " />
<glyph glyph-name="l" unicode="l" horiz-adv-x="234" d="M224 667 L79 667 L75 649 L144 649 L10 18 L-59 18 L-63 0 L156 0 L159 18 L87 18 L224 667 Z " />
<glyph glyph-name="m" unicode="m" horiz-adv-x="723" d="M186 387 L46 387 L42 369 L106 369 L31 18 L-32 18 L-36 0 L167 0 L171 18 L108 18 L144 189 C161 268 174 305 193 328 C215 356 249 374 281 374 C309 374 328 356 328 328 C328 317 327 309 325 299 L266 18 L202 18 L198 0 L402 0 L406 18 L342 18 L382 206 C398 279 405 299 426 328 C447 356 482 374 514 374 C545 374 561 359 561 330 C561 317 560 309 558 299 L499 18 L435 18 L431 0 L635 0 L639 18 L575 18 L632 287 C636 305 638 321 638 334 C638 373 605 397 550 397 C498 397 457 381 410 343 C399 382 373 397 320 397 C267 397 226 381 177 343 L186 387 Z " />
<glyph glyph-name="n" unicode="n" horiz-adv-x="501" d="M186 387 L46 387 L42 369 L106 369 L31 18 L-32 18 L-36 0 L167 0 L171 18 L108 18 L142 178 C158 255 172 295 192 320 C217 353 257 374 293 374 C321 374 339 357 339 329 C339 319 337 305 335 292 L277 18 L213 18 L209 0 L413 0 L417 18 L353 18 L406 265 C410 284 412 303 412 316 C412 364 371 397 313 397 C262 397 223 378 174 330 L186 387 Z " />
<glyph glyph-name="o" unicode="o" horiz-adv-x="447" d="M239 397 C116 397 3 277 3 147 C3 56 63 -10 148 -10 C270 -10 383 110 383 240 C383 331 323 397 239 397 L239 397 Z M280 169 C266 102 255 70 241 51 C221 25 188 10 154 10 C111 10 81 35 81 69 C81 85 88 131 96 169 L106 218 C116 265 129 311 137 324 C155 357 191 377 232 377 C275 377 305 352 305 316 L305 314 L291 218 L280 169 Z " />
<glyph glyph-name="p" unicode="p" horiz-adv-x="465" d="M169 387 L29 387 L25 369 L88 369 L-43 -249 L-106 -249 L-110 -267 L102 -267 L106 -249 L34 -249 L104 82 C122 15 147 -10 198 -10 C249 -10 296 17 338 71 C381 125 405 191 405 254 C405 342 359 397 286 397 C235 397 194 370 152 306 L169 387 Z M301 176 C285 102 263 45 243 29 C227 16 211 10 194 10 C151 10 121 54 121 119 C121 254 196 377 277 377 C309 377 327 358 327 324 C327 304 325 292 316 249 L301 176 Z " />
<glyph glyph-name="q" unicode="q" horiz-adv-x="454" d="M308 387 L293 316 C273 374 247 397 200 397 C98 397 3 272 3 138 C3 48 48 -10 118 -10 C166 -10 198 12 242 77 L173 -249 L101 -249 L97 -267 L309 -267 L313 -249 L250 -249 L381 369 L444 369 L448 387 L308 387 Z M111 239 C132 339 159 377 206 377 C245 377 276 335 276 284 C276 235 258 150 238 106 C211 47 169 10 128 10 C101 10 82 34 82 69 C82 90 86 121 94 159 L111 239 Z " />
<glyph glyph-name="r" unicode="r" horiz-adv-x="336" d="M186 387 L46 387 L42 369 L106 369 L31 18 L-32 18 L-36 0 L167 0 L171 18 L108 18 L133 134 C151 222 166 263 195 310 C216 344 235 361 250 361 C255 361 260 357 260 352 C260 350 260 347 259 344 C258 336 257 327 257 322 C257 305 266 294 281 294 C307 294 329 323 329 357 C329 383 314 397 288 397 C243 397 211 368 165 287 L186 387 Z " />
<glyph glyph-name="s" unicode="s" horiz-adv-x="338" d="M299 395 L286 395 L266 359 C238 386 214 397 181 397 C104 397 39 329 39 249 C39 201 61 173 106 164 L176 148 C207 141 223 125 223 101 C223 54 172 10 119 10 C61 10 26 56 26 132 L26 148 L10 148 L-21 0 L-11 0 L18 38 C50 2 74 -10 113 -10 C194 -10 264 66 264 156 C264 208 240 234 180 248 L140 257 C96 266 77 279 77 297 C77 338 124 377 173 377 C224 377 259 342 259 290 L259 280 L274 280 L299 395 Z " />
<glyph glyph-name="t" unicode="t" horiz-adv-x="274" d="M160 369 L262 369 L266 387 L164 387 L198 546 L189 546 C156 479 80 402 29 384 L26 369 L84 369 L28 107 C23 84 21 69 21 58 C21 15 51 -10 105 -10 C158 -10 196 18 219 74 L200 74 C184 36 164 20 135 20 C111 20 97 32 97 54 C97 65 98 75 100 85 L160 369 Z " />
<glyph glyph-name="u" unicode="u" horiz-adv-x="485" d="M417 387 L281 387 L277 369 L336 369 L300 200 C286 133 270 88 251 64 C227 32 189 13 150 13 C118 13 100 29 100 58 C100 72 103 93 108 117 L165 387 L29 387 L25 369 L85 369 L34 131 C29 106 26 85 26 72 C26 19 62 -10 130 -10 C188 -10 227 10 271 60 L258 0 L398 0 L402 18 L339 18 L417 387 Z " />
<glyph glyph-name="v" unicode="v" horiz-adv-x="411" d="M122 -10 L152 -10 L376 369 L418 369 L422 387 L283 387 L279 369 L354 369 L185 85 L139 369 L214 369 L218 387 L11 387 L7 369 L56 369 L122 -10 Z " />
<glyph glyph-name="w" unicode="w" horiz-adv-x="581" d="M324 -10 L352 -10 L547 369 L588 369 L592 387 L468 387 L464 369 L524 369 L385 94 L343 387 L321 387 L174 94 L137 369 L205 369 L209 387 L11 387 L7 369 L56 369 L113 -9 L141 -9 L280 261 L324 -10 Z " />
<glyph glyph-name="x" unicode="x" horiz-adv-x="402" d="M205 230 L337 369 L388 369 L392 387 L253 387 L249 369 L311 369 L195 249 L141 369 L202 369 L206 387 L8 387 L4 369 L52 369 L135 182 L-22 18 L-70 18 L-74 0 L76 0 L80 18 L8 18 L145 163 L208 18 L160 18 L157 0 L334 0 L338 18 L298 18 L205 230 Z " />
<glyph glyph-name="y" unicode="y" horiz-adv-x="393" d="M187 94 L137 369 L201 369 L205 387 L12 387 L8 369 L52 369 L133 -6 L49 -161 C28 -201 21 -208 8 -208 C2 -208 -2 -206 -5 -200 C-15 -180 -23 -174 -39 -174 C-67 -174 -92 -201 -92 -233 C-92 -258 -75 -274 -50 -274 C-8 -274 25 -244 65 -170 L359 369 L401 369 L405 387 L272 387 L268 369 L334 369 L187 94 Z " />
<glyph glyph-name="z" unicode="z" horiz-adv-x="381" d="M277 0 L314 164 L301 164 C250 41 226 19 143 18 L58 18 L367 387 L70 387 L35 238 L48 238 C102 349 123 367 207 369 L263 369 L-42 0 L277 0 Z " />
<glyph glyph-name="braceleft" unicode="&#x7b;" horiz-adv-x="251" d="M-16 250 C16 248 28 236 28 207 C28 190 28 188 11 108 L-7 22 C-21 -44 -27 -79 -27 -98 C-27 -132 -10 -160 19 -170 C39 -177 67 -180 119 -180 L123 -162 C69 -157 49 -139 49 -94 C49 -71 51 -58 63 0 L85 103 C94 142 99 175 99 187 C99 223 76 250 40 256 L41 260 C108 276 130 304 149 403 L170 501 C192 611 220 644 295 649 L299 667 C155 669 120 637 88 469 L72 395 C48 288 37 270 -13 266 L-16 250 Z " />
<glyph glyph-name="bar" unicode="&#x7c;" horiz-adv-x="475" d="M281 667 L104 -167 L159 -167 L336 667 L281 667 Z " />
<glyph glyph-name="braceright" unicode="&#x7d;" horiz-adv-x="251" d="M236 266 C205 268 192 281 192 309 C192 320 199 363 206 395 L221 469 C238 546 239 554 239 580 C239 621 222 649 192 659 C173 664 158 666 94 667 L90 649 C142 645 165 625 165 584 C165 569 160 535 153 501 L132 403 C121 350 120 346 120 326 C120 291 141 267 179 260 L179 256 C112 242 88 208 68 103 L46 0 C23 -123 -4 -157 -82 -162 L-86 -180 C62 -181 93 -152 126 22 L145 108 C169 227 181 246 232 250 L236 266 Z " />
<glyph glyph-name="asciitilde" unicode="&#x7e;" horiz-adv-x="492" d="M410 374 C387 350 367 342 337 342 C324 342 307 345 292 351 L251 365 C230 372 217 375 199 375 C147 375 115 356 72 299 L81 294 C104 316 125 325 155 325 C172 325 190 322 208 316 L247 302 C266 296 286 292 299 292 C337 292 374 315 419 369 L410 374 Z " />
<glyph glyph-name="uni00A0" unicode="&#xa0;" horiz-adv-x="250" d="" />
<glyph glyph-name="exclamdown" unicode="&#xa1;" horiz-adv-x="260" d="M95 207 C65 78 40 -9 14 -76 L-24 -174 C-32 -194 -35 -210 -35 -226 C-35 -255 -21 -274 0 -274 C36 -274 65 -230 67 -174 L71 -76 C75 9 82 61 110 207 L95 207 Z M147 410 C111 410 79 377 79 341 C79 316 97 297 121 297 C156 297 189 330 189 366 C189 391 171 410 147 410 L147 410 Z " />
<glyph glyph-name="cent" unicode="&#xa2;" horiz-adv-x="475" d="M339 665 L310 665 L284 545 C169 531 70 415 70 295 C70 209 121 147 198 140 L177 42 L206 42 L227 140 C303 147 361 193 397 276 L378 276 C348 209 297 168 231 160 L309 527 C343 527 373 515 373 502 C373 498 372 496 365 490 C351 476 341 452 341 432 C341 412 352 399 369 399 C397 399 419 428 419 464 C419 513 377 545 314 547 L339 665 Z M202 161 C170 167 151 191 151 225 C151 248 155 279 163 314 L176 378 C199 477 226 516 280 525 L202 161 Z " />
<glyph glyph-name="sterling" unicode="&#xa3;" horiz-adv-x="475" d="M179 268 C195 237 202 215 202 196 C202 169 196 143 182 114 C141 135 108 144 67 144 C-2 144 -53 108 -53 59 C-53 22 -21 0 33 0 C80 0 115 12 160 42 L192 17 C216 -1 243 -10 275 -10 C359 -10 416 51 443 171 L421 171 C414 136 406 117 390 95 C372 71 341 53 317 53 C293 53 262 64 232 85 L204 103 C231 158 243 198 243 240 C243 249 242 258 240 268 L367 268 L373 298 L233 298 C230 305 229 309 225 317 L197 381 C186 408 179 440 179 472 C179 574 252 657 342 657 C390 657 424 631 424 594 C424 582 421 575 412 567 C382 543 375 531 375 507 C375 485 388 471 408 471 C444 471 477 514 477 563 C477 627 419 677 344 677 C219 677 95 567 95 456 C95 431 105 399 124 366 L162 298 L47 298 L40 268 L179 268 Z M144 58 C108 30 80 20 39 20 C-1 20 -27 36 -27 61 C-27 87 0 109 30 109 C54 109 83 99 105 84 L144 58 Z " />
<glyph glyph-name="currency" unicode="&#xa4;" horiz-adv-x="475" d="M392 478 C363 510 324 527 278 527 C233 527 188 511 144 478 L95 545 L71 523 L120 457 C69 406 42 346 42 283 C42 250 49 223 64 196 L-13 130 L3 109 L80 175 C110 143 149 127 193 127 C238 127 286 144 328 175 L377 109 L401 130 L352 196 C403 246 431 308 431 370 C431 403 424 430 408 457 L485 523 L469 545 L392 478 Z M267 464 C325 464 367 419 367 357 C367 271 289 190 206 190 C148 190 106 235 106 296 C106 383 183 464 267 464 L267 464 Z " />
<glyph glyph-name="yen" unicode="&#xa5;" horiz-adv-x="475" d="M152 451 L50 451 L46 433 L157 433 L189 322 L51 322 L47 304 L195 304 L134 18 L53 18 L49 0 L288 0 L292 18 L214 18 L275 304 L416 304 L420 322 L286 322 L354 433 L472 433 L476 451 L366 451 L479 629 L535 629 L539 647 L384 647 L380 629 L457 629 L275 339 L192 629 L264 629 L268 647 L57 647 L54 629 L100 629 L152 451 Z " />
<glyph glyph-name="brokenbar" unicode="&#xa6;" horiz-adv-x="475" d="M281 667 L210 330 L265 330 L336 667 L281 667 Z M172 153 L104 -167 L159 -167 L227 153 L172 153 Z " />
<glyph glyph-name="section" unicode="&#xa7;" horiz-adv-x="475" d="M220 475 C183 498 168 518 168 545 C168 609 230 657 312 657 C363 657 396 640 410 607 C363 596 340 573 340 538 C340 517 354 503 374 503 C410 503 442 540 442 582 C442 640 392 677 311 677 C248 677 198 653 161 606 C133 571 117 526 117 486 C117 455 129 430 157 402 C118 384 99 371 80 348 C52 314 34 266 34 222 C34 179 50 157 109 118 L230 40 C271 13 288 -9 288 -37 C288 -115 217 -170 117 -170 C56 -170 21 -152 0 -109 C45 -105 77 -71 77 -26 C77 -2 63 13 41 13 C3 13 -32 -31 -32 -79 C-32 -145 27 -190 113 -190 C242 -190 346 -100 346 10 C346 52 328 82 280 118 C361 146 411 213 411 292 C411 341 391 369 326 409 L220 475 Z M307 316 C350 288 368 265 368 238 C368 190 312 136 264 136 C250 136 243 138 224 151 L121 215 C91 234 78 254 78 283 C78 333 126 383 174 383 C194 383 213 377 231 366 L307 316 Z " />
<glyph glyph-name="dieresis" unicode="&#xa8;" horiz-adv-x="480" d="M211 583 C180 583 151 555 151 525 C151 503 167 487 190 487 C221 487 250 515 250 545 C250 567 234 583 211 583 L211 583 Z M376 583 C345 583 316 555 316 525 C316 503 332 487 355 487 C386 487 415 515 415 545 C415 567 399 583 376 583 L376 583 Z " />
<glyph glyph-name="copyright" unicode="&#xa9;" horiz-adv-x="747" d="M450 677 C235 677 36 476 36 259 C36 103 146 -10 297 -10 C512 -10 711 191 711 408 C711 563 601 677 450 677 L450 677 Z M444 649 C508 649 575 620 616 573 C655 529 675 470 675 403 C675 204 496 18 304 18 C169 18 72 121 72 263 C72 346 102 429 158 499 C234 595 337 649 444 649 L444 649 Z M545 530 L532 530 L509 503 C486 525 459 536 432 536 C393 536 349 520 316 494 C255 447 213 360 213 283 C213 199 267 137 338 137 C370 137 398 147 438 171 L450 143 L463 143 L486 255 L474 255 C433 184 395 155 344 155 C303 155 274 182 274 219 C274 256 298 372 319 438 C335 488 375 518 425 518 C477 518 507 485 509 425 L522 425 L545 530 Z " />
<glyph glyph-name="ordfeminine" unicode="&#xaa;" horiz-adv-x="322" d="M292 330 L23 330 L16 297 L285 297 L292 330 Z M235 551 C166 549 124 538 92 513 C69 494 55 469 55 445 C55 413 78 394 118 394 C155 394 187 410 214 442 C213 438 213 436 213 435 C213 409 229 394 258 394 C274 394 283 397 313 415 L305 429 C297 422 286 417 282 417 C275 417 270 422 270 427 C270 431 271 437 272 442 L304 593 C306 602 307 612 307 620 C307 653 276 674 225 674 C163 674 105 636 105 597 C105 583 114 573 127 573 C146 573 163 591 163 610 C163 615 161 621 157 627 C156 630 155 632 155 633 C155 643 189 656 214 656 C237 656 251 647 251 631 C251 627 250 620 249 615 L235 551 Z M228 516 C215 457 190 428 151 428 C131 428 118 440 118 458 C118 504 159 532 232 534 L228 516 Z " />
<glyph glyph-name="guillemotleft" unicode="&#xab;" horiz-adv-x="358" d="M125 200 L209 96 L256 96 L173 200 L301 304 L253 304 L125 200 Z M16 200 L100 96 L147 96 L64 200 L191 304 L144 304 L16 200 Z " />
<glyph glyph-name="logicalnot" unicode="&#xac;" horiz-adv-x="475" d="M271 0 L371 0 L428 267 L19 267 L10 224 L318 224 L271 0 Z " />
<glyph glyph-name="uni00AD" unicode="&#xad;" horiz-adv-x="179" d="M157 230 L-22 230 L-35 170 L144 170 L157 230 Z " />
<glyph glyph-name="registered" unicode="&#xae;" horiz-adv-x="747" d="M450 677 C235 677 36 476 36 259 C36 103 146 -10 297 -10 C512 -10 711 191 711 408 C711 563 601 677 450 677 L450 677 Z M444 649 C508 649 575 620 616 573 C655 529 675 470 675 403 C675 204 496 18 304 18 C169 18 72 121 72 263 C72 346 102 429 158 499 C234 595 337 649 444 649 L444 649 Z M331 340 L360 340 C403 340 421 325 421 292 C421 285 420 276 418 268 L412 240 C410 228 408 213 408 204 C408 165 432 140 469 140 C485 140 496 143 514 151 L513 167 C498 161 493 159 486 159 C475 159 468 166 468 179 C468 189 469 198 471 208 L478 239 C479 247 480 254 480 264 C480 307 458 334 413 345 C486 357 534 401 534 459 C534 483 523 503 505 514 C484 527 465 530 417 530 L261 530 L257 513 L306 513 L231 160 L182 160 L178 143 L338 143 L342 160 L292 160 L331 340 Z M334 357 L367 513 L402 513 C449 513 466 499 466 462 C466 395 430 357 366 357 L334 357 Z " />
<glyph glyph-name="macron" unicode="&#xaf;" horiz-adv-x="489" d="M416 499 L422 523 L148 523 L143 499 L416 499 Z " />
<glyph glyph-name="degree" unicode="&#xb0;" horiz-adv-x="400" d="M204 686 C118 686 50 619 50 534 C50 449 116 381 200 381 C284 381 350 448 350 534 C350 619 286 686 204 686 L204 686 Z M202 629 C252 629 293 586 293 534 C293 480 252 438 200 438 C148 438 106 481 106 533 C106 587 148 629 202 629 L202 629 Z " />
<glyph glyph-name="plusminus" unicode="&#xb1;" horiz-adv-x="475" d="M218 308 L180 131 L210 131 L248 308 L421 308 L427 338 L254 338 L292 515 L262 515 L224 338 L50 338 L43 308 L218 308 Z M-20 11 L358 11 L364 41 L-14 41 L-20 11 Z " />
<glyph glyph-name="twosuperior" unicode="&#xb2;" horiz-adv-x="310" d="M250 258 L273 369 L260 369 C251 345 243 328 238 319 C233 313 222 310 200 310 L73 310 L183 402 C289 489 315 523 315 572 C315 621 277 653 218 653 C150 653 91 603 91 545 C91 520 104 505 125 505 C145 505 162 522 162 542 C162 555 153 565 139 565 C136 565 131 564 127 563 C119 560 119 560 117 560 C115 560 114 562 114 565 C114 596 157 632 195 632 C226 632 245 608 245 569 C245 506 214 454 137 388 L23 290 L16 258 L250 258 Z " />
<glyph glyph-name="threesuperior" unicode="&#xb3;" horiz-adv-x="310" d="M114 477 L111 460 L136 460 C188 460 211 441 211 400 C211 325 172 271 119 271 C95 271 69 285 69 298 C69 300 71 302 76 306 C87 313 95 328 95 343 C95 356 87 364 75 364 L73 364 C54 364 36 340 36 314 C36 276 69 253 122 253 C206 253 281 318 281 391 C281 436 253 461 196 469 C256 486 300 534 300 583 C300 625 266 653 215 653 C159 653 112 618 112 578 C112 563 120 553 132 553 C148 553 163 571 163 591 C163 598 161 604 156 609 C154 611 153 613 153 614 C153 622 180 633 200 633 C225 633 237 622 237 600 L237 599 C232 516 202 478 140 477 L114 477 Z " />
<glyph glyph-name="acute" unicode="&#xb4;" horiz-adv-x="484" d="M362 613 L236 470 C235 468 234 467 234 466 C234 465 236 463 237 463 C238 463 239 464 242 466 L428 595 C434 598 438 604 438 607 C438 611 435 613 428 613 L362 613 Z " />
<glyph glyph-name="mu" unicode="&#xb5;" horiz-adv-x="576" d="M442 500 L353 500 L354 131 C318 80 284 58 242 58 C184 58 150 99 150 169 L150 500 L62 500 L62 20 C62 -1 58 -26 51 -56 C34 -118 33 -123 33 -147 C33 -190 54 -219 83 -219 C112 -219 132 -189 132 -146 C132 -124 129 -111 113 -53 C103 -17 101 -8 101 21 L101 33 C143 -2 166 -13 200 -13 C250 -13 301 18 354 80 C362 48 367 36 377 21 C392 0 419 -13 449 -13 C510 -13 553 31 567 108 L540 109 C536 71 515 41 492 41 C462 41 442 77 442 131 L442 500 Z " />
<glyph glyph-name="paragraph" unicode="&#xb6;" horiz-adv-x="475" d="M110 -162 L39 -162 L35 -180 L328 -180 L332 -162 L277 -162 L449 649 L504 649 L508 667 L280 667 C202 667 149 643 106 589 C73 547 54 496 54 445 C54 362 105 312 189 312 L210 312 L110 -162 Z M153 -162 L325 649 L406 649 L234 -162 L153 -162 Z " />
<glyph glyph-name="periodcentered" unicode="&#xb7;" horiz-adv-x="234" d="M102 257 C67 257 34 224 34 188 C34 162 52 143 76 143 C111 143 144 177 144 213 C144 238 126 257 102 257 L102 257 Z " />
<glyph glyph-name="cedilla" unicode="&#xb8;" horiz-adv-x="475" d="M178 0 L160 0 L130 -65 C155 -73 165 -84 165 -104 C165 -134 139 -160 108 -160 C91 -160 75 -152 75 -144 C75 -143 75 -143 76 -138 C77 -135 77 -134 77 -130 L77 -123 C78 -113 78 -113 78 -111 C78 -104 75 -98 70 -98 C61 -98 54 -110 54 -127 C54 -156 79 -176 115 -176 C171 -176 224 -138 224 -97 C224 -70 203 -56 164 -56 L151 -56 L178 0 Z " />
<glyph glyph-name="onesuperior" unicode="&#xb9;" horiz-adv-x="310" d="M261 647 L134 641 L131 625 L185 625 C191 625 194 624 194 622 L193 613 L121 276 L57 276 L53 258 L241 258 L245 276 L183 276 L261 647 Z " />
<glyph glyph-name="ordmasculine" unicode="&#xba;" horiz-adv-x="328" d="M296 330 L27 330 L20 297 L289 297 L296 330 Z M236 674 C146 674 63 593 63 504 C63 440 109 394 173 394 C263 394 346 475 346 564 C346 628 300 674 236 674 L236 674 Z M268 517 C258 471 247 443 235 433 C220 421 200 414 179 414 C145 414 125 429 125 454 C125 469 128 495 133 517 L140 550 C150 597 161 625 173 635 C189 647 208 654 229 654 C263 654 283 639 283 613 C283 597 280 573 275 550 L268 517 Z " />
<glyph glyph-name="guillemotright" unicode="&#xbb;" horiz-adv-x="357" d="M175 200 L92 304 L44 304 L127 200 L0 96 L48 96 L175 200 Z M285 200 L201 304 L153 304 L236 200 L109 96 L157 96 L285 200 Z " />
<glyph glyph-name="onequarter" unicode="&#xbc;" horiz-adv-x="729" d="M261 647 L134 641 L131 625 L185 625 C191 625 194 624 194 622 L193 613 L121 276 L57 276 L53 258 L241 258 L245 276 L183 276 L261 647 Z M602 647 L570 647 L148 0 L180 0 L602 647 Z M590 103 L632 103 L622 59 L642 59 L665 168 L646 168 L636 124 L595 124 L652 393 L617 393 L396 132 L390 103 L528 103 L510 18 L455 18 L452 0 L612 0 L615 18 L572 18 L590 103 Z M533 124 L414 124 L573 315 L533 124 Z " />
<glyph glyph-name="onehalf" unicode="&#xbd;" horiz-adv-x="729" d="M261 647 L134 641 L131 625 L185 625 C191 625 194 624 194 622 L193 613 L121 276 L57 276 L53 258 L241 258 L245 276 L183 276 L261 647 Z M590 647 L558 647 L135 0 L167 0 L590 647 Z M613 0 L636 111 L623 111 C614 87 606 70 601 61 C596 55 585 52 563 52 L436 52 L546 144 C651 231 678 265 678 314 C678 363 640 395 582 395 C513 395 454 346 454 287 C454 262 467 247 488 247 C508 247 525 264 525 284 C525 297 515 307 502 307 C498 307 494 306 490 305 C482 302 482 302 480 302 C478 302 477 304 477 307 C477 338 520 374 558 374 C589 374 608 350 608 311 C608 248 577 196 501 130 L386 32 L379 0 L613 0 Z " />
<glyph glyph-name="threequarters" unicode="&#xbe;" horiz-adv-x="729" d="M114 477 L111 460 L136 460 C188 460 211 441 211 400 C211 325 172 271 119 271 C95 271 69 285 69 298 C69 300 71 302 76 306 C87 313 95 328 95 343 C95 356 87 364 75 364 L73 364 C54 364 36 340 36 314 C36 276 69 253 122 253 C206 253 281 318 281 391 C281 436 253 461 196 469 C256 486 300 534 300 583 C300 625 266 653 215 653 C159 653 112 618 112 578 C112 563 120 553 132 553 C148 553 163 571 163 591 C163 598 161 604 156 609 C154 611 153 613 153 614 C153 622 180 633 200 633 C225 633 237 622 237 600 L237 599 C232 516 202 478 140 477 L114 477 Z M602 647 L570 647 L148 0 L180 0 L602 647 Z M590 103 L632 103 L622 59 L642 59 L665 168 L646 168 L636 124 L595 124 L652 393 L617 393 L396 132 L390 103 L528 103 L510 18 L455 18 L452 0 L612 0 L615 18 L572 18 L590 103 Z M533 124 L414 124 L573 315 L533 124 Z " />
<glyph glyph-name="questiondown" unicode="&#xbf;" horiz-adv-x="358" d="M192 207 C178 142 167 125 105 79 L48 38 C-22 -12 -60 -79 -60 -151 C-60 -227 -16 -274 56 -274 C142 -274 223 -201 223 -123 C223 -98 212 -84 194 -84 C169 -84 149 -110 149 -142 C149 -154 153 -162 165 -172 C173 -178 176 -182 176 -187 C176 -217 112 -254 59 -254 C7 -254 -28 -224 -28 -181 C-28 -147 -2 -105 39 -72 L76 -43 C157 17 192 86 205 211 L192 207 Z M236 410 C201 410 169 377 169 341 C169 316 187 297 211 297 C246 297 279 330 279 366 C279 391 261 410 236 410 L236 410 Z " />
<glyph glyph-name="Agrave" unicode="&#xc0;" horiz-adv-x="576" d="M329 833 L232 833 C223 833 217 830 217 824 C217 820 220 817 228 814 L429 721 C431 720 433 720 435 720 C438 720 440 722 440 725 C440 727 439 728 437 731 L329 833 Z M322 214 L344 18 L254 18 L250 0 L508 0 L512 18 L440 18 L370 667 L345 667 L-10 18 L-70 18 L-74 0 L94 0 L98 18 L14 18 L120 214 L322 214 Z M320 232 L130 232 L288 527 L320 232 Z " />
<glyph glyph-name="Aacute" unicode="&#xc1;" horiz-adv-x="576" d="M483 833 L333 731 C328 728 326 725 326 723 C326 721 328 719 330 719 C331 719 333 720 336 721 L577 814 C588 818 592 822 592 827 C592 831 588 833 580 833 L483 833 Z M322 214 L344 18 L254 18 L250 0 L508 0 L512 18 L440 18 L370 667 L345 667 L-10 18 L-70 18 L-74 0 L94 0 L98 18 L14 18 L120 214 L322 214 Z M320 232 L130 232 L288 527 L320 232 Z " />
<glyph glyph-name="Acircumflex" unicode="&#xc2;" horiz-adv-x="576" d="M379 769 L516 721 C518 720 519 720 520 720 C524 720 526 722 526 724 C526 726 525 728 522 730 L394 838 L219 730 C213 726 212 725 212 723 C212 721 213 720 216 720 C218 720 220 720 221 721 L379 769 Z M322 214 L344 18 L254 18 L250 0 L508 0 L512 18 L440 18 L370 667 L345 667 L-10 18 L-70 18 L-74 0 L94 0 L98 18 L14 18 L120 214 L322 214 Z M320 232 L130 232 L288 527 L320 232 Z " />
<glyph glyph-name="Atilde" unicode="&#xc3;" horiz-adv-x="576" d="M549 815 C526 792 507 783 477 783 C465 783 447 786 432 792 L391 806 C366 815 356 817 339 817 C287 817 254 798 212 741 L220 735 C243 758 265 767 294 767 C310 767 329 764 347 757 L387 744 C406 737 427 733 439 733 C477 733 513 756 559 810 L549 815 Z M322 214 L344 18 L254 18 L250 0 L508 0 L512 18 L440 18 L370 667 L345 667 L-10 18 L-70 18 L-74 0 L94 0 L98 18 L14 18 L120 214 L322 214 Z M320 232 L130 232 L288 527 L320 232 Z " />
<glyph glyph-name="Adieresis" unicode="&#xc4;" horiz-adv-x="576" d="M290 823 C259 823 230 795 230 765 C230 743 246 727 269 727 C300 727 329 755 329 785 C329 807 313 823 290 823 L290 823 Z M491 823 C460 823 431 795 431 765 C431 743 447 727 470 727 C501 727 530 755 530 785 C530 807 514 823 491 823 L491 823 Z M322 214 L344 18 L254 18 L250 0 L508 0 L512 18 L440 18 L370 667 L345 667 L-10 18 L-70 18 L-74 0 L94 0 L98 18 L14 18 L120 214 L322 214 Z M320 232 L130 232 L288 527 L320 232 Z " />
<glyph glyph-name="Aring" unicode="&#xc5;" horiz-adv-x="576" d="M398 859 C348 859 303 815 303 766 C303 731 328 707 364 707 C414 707 458 750 458 800 C458 834 432 859 398 859 L398 859 Z M391 832 C412 832 429 815 429 793 C429 763 399 734 369 734 C348 734 332 751 332 773 C332 803 362 832 391 832 L391 832 Z M322 214 L344 18 L254 18 L250 0 L508 0 L512 18 L440 18 L370 667 L345 667 L-10 18 L-70 18 L-74 0 L94 0 L98 18 L14 18 L120 214 L322 214 Z M320 232 L130 232 L288 527 L320 232 Z " />
<glyph glyph-name="AE" unicode="&#xc6;" horiz-adv-x="801" d="M796 667 L310 667 L306 649 L401 649 L-22 18 L-92 18 L-96 0 L94 0 L98 18 L2 18 L131 211 L333 211 L292 18 L210 18 L206 0 L676 0 L739 207 L726 207 C698 149 680 115 662 90 C612 26 597 19 508 18 L386 18 L452 329 L492 329 C552 329 574 310 574 259 C574 246 573 233 570 221 L565 197 L578 197 L636 472 L623 472 L619 453 C600 373 572 348 498 347 L455 347 L519 649 L598 649 C725 650 757 618 758 486 L770 486 L796 667 Z M337 229 L143 229 L426 649 L337 229 Z " />
<glyph glyph-name="Ccedilla" unicode="&#xc7;" horiz-adv-x="561" d="M239 -10 C294 -10 346 8 412 50 L433 0 L445 0 L485 185 L472 185 C403 62 335 10 247 10 C176 10 125 58 125 126 C125 163 139 250 162 350 C189 471 204 521 226 560 C260 621 322 657 392 657 C441 657 483 636 508 599 C529 569 535 545 537 494 L550 494 L587 667 L574 667 L532 617 C489 658 448 677 400 677 C304 677 208 624 137 533 C73 451 33 337 33 239 C33 189 45 141 67 99 C102 33 149 -1 221 -9 L194 -67 C221 -75 232 -86 232 -107 C232 -138 205 -165 172 -165 C154 -165 137 -157 137 -149 C137 -147 137 -146 138 -142 C139 -140 139 -138 139 -134 L139 -126 C140 -116 140 -116 140 -115 C140 -107 136 -101 132 -101 C122 -101 115 -113 115 -130 C115 -160 141 -181 180 -181 C239 -181 294 -142 294 -100 C294 -73 271 -58 230 -58 L216 -58 L239 -10 Z " />
<glyph glyph-name="Egrave" unicode="&#xc8;" horiz-adv-x="556" d="M360 833 L263 833 C254 833 248 830 248 824 C248 820 251 817 258 814 L459 721 C461 720 463 720 465 720 C468 720 470 722 470 725 C470 727 469 729 467 731 L360 833 Z M551 667 L103 667 L99 649 L181 649 L47 18 L-35 18 L-39 0 L431 0 L494 208 L481 208 C453 148 435 116 417 90 C367 26 352 19 263 18 L141 18 L207 329 L247 329 C307 329 329 310 329 259 C329 247 328 234 325 221 L320 198 L333 198 L392 472 L378 472 L374 453 C355 373 327 349 253 347 L210 347 L274 649 L353 649 C480 650 512 618 513 486 L525 486 L551 667 Z " />
<glyph glyph-name="Eacute" unicode="&#xc9;" horiz-adv-x="556" d="M459 833 L308 731 C304 728 302 725 302 723 C302 721 304 719 306 719 C307 719 309 720 311 721 L552 814 C562 818 567 822 567 827 C567 831 563 833 556 833 L459 833 Z M551 667 L103 667 L99 649 L181 649 L47 18 L-35 18 L-39 0 L431 0 L494 208 L481 208 C453 148 435 116 417 90 C367 26 352 19 263 18 L141 18 L207 329 L247 329 C307 329 329 310 329 259 C329 247 328 234 325 221 L320 198 L333 198 L392 472 L378 472 L374 453 C355 373 327 349 253 347 L210 347 L274 649 L353 649 C480 650 512 618 513 486 L525 486 L551 667 Z " />
<glyph glyph-name="Ecircumflex" unicode="&#xca;" horiz-adv-x="556" d="M383 769 L520 721 C521 720 522 720 524 720 C528 720 530 722 530 724 C530 725 529 727 525 730 L397 838 L223 730 C218 727 216 725 216 723 C216 721 217 720 220 720 C222 720 223 720 225 721 L383 769 Z M551 667 L103 667 L99 649 L181 649 L47 18 L-35 18 L-39 0 L431 0 L494 208 L481 208 C453 148 435 116 417 90 C367 26 352 19 263 18 L141 18 L207 329 L247 329 C307 329 329 310 329 259 C329 247 328 234 325 221 L320 198 L333 198 L392 472 L378 472 L374 453 C355 373 327 349 253 347 L210 347 L274 649 L353 649 C480 650 512 618 513 486 L525 486 L551 667 Z " />
<glyph glyph-name="Edieresis" unicode="&#xcb;" horiz-adv-x="556" d="M290 823 C259 823 230 795 230 765 C230 743 246 727 268 727 C300 727 328 755 328 785 C328 807 312 823 290 823 L290 823 Z M491 823 C460 823 431 795 431 765 C431 743 447 727 469 727 C501 727 529 755 529 785 C529 807 513 823 491 823 L491 823 Z M551 667 L103 667 L99 649 L181 649 L47 18 L-35 18 L-39 0 L431 0 L494 208 L481 208 C453 148 435 116 417 90 C367 26 352 19 263 18 L141 18 L207 329 L247 329 C307 329 329 310 329 259 C329 247 328 234 325 221 L320 198 L333 198 L392 472 L378 472 L374 453 C355 373 327 349 253 347 L210 347 L274 649 L353 649 C480 650 512 618 513 486 L525 486 L551 667 Z " />
<glyph glyph-name="Igrave" unicode="&#xcc;" horiz-adv-x="321" d="M47 18 L-35 18 L-39 0 L219 0 L223 18 L141 18 L274 649 L357 649 L361 667 L103 667 L99 649 L181 649 L47 18 Z M217 833 L120 833 C111 833 105 830 105 824 C105 820 108 817 115 814 L317 721 C318 720 320 720 322 720 C326 720 328 722 328 725 C328 727 327 728 324 731 L217 833 Z " />
<glyph glyph-name="Iacute" unicode="&#xcd;" horiz-adv-x="321" d="M47 18 L-35 18 L-39 0 L219 0 L223 18 L141 18 L274 649 L357 649 L361 667 L103 667 L99 649 L181 649 L47 18 Z M364 833 L213 731 C208 727 206 725 206 723 C206 721 208 719 210 719 C211 719 213 720 216 721 L457 814 C467 818 472 822 472 827 C472 831 468 833 461 833 L364 833 Z " />
<glyph glyph-name="Icircumflex" unicode="&#xce;" horiz-adv-x="321" d="M47 18 L-35 18 L-39 0 L219 0 L223 18 L141 18 L274 649 L357 649 L361 667 L103 667 L99 649 L181 649 L47 18 Z M253 769 L390 721 C391 720 393 720 394 720 C398 720 400 722 400 724 C400 726 399 727 396 730 L268 838 L93 730 C87 726 86 725 86 723 C86 721 87 720 90 720 C92 720 93 720 95 721 L253 769 Z " />
<glyph glyph-name="Idieresis" unicode="&#xcf;" horiz-adv-x="321" d="M47 18 L-35 18 L-39 0 L219 0 L223 18 L141 18 L274 649 L357 649 L361 667 L103 667 L99 649 L181 649 L47 18 Z M185 823 C154 823 125 795 125 765 C125 743 141 727 164 727 C195 727 224 755 224 785 C224 807 208 823 185 823 L185 823 Z M345 823 C314 823 285 795 285 765 C285 743 301 727 324 727 C355 727 384 755 384 785 C384 807 368 823 345 823 L345 823 Z " />
<glyph glyph-name="Eth" unicode="&#xd0;" horiz-adv-x="640" d="M113 330 L47 18 L-35 18 L-39 0 L200 0 C312 0 365 15 433 68 C539 150 605 287 605 425 C605 518 572 588 509 631 C470 657 423 667 341 667 L103 667 L99 649 L181 649 L117 348 L35 348 L31 330 L113 330 Z M207 330 L350 330 L354 348 L211 348 L274 649 L337 649 C460 649 509 613 509 524 C509 478 499 413 479 324 C442 156 415 95 365 59 C324 29 280 18 204 18 L141 18 L207 330 Z " />
<glyph glyph-name="Ntilde" unicode="&#xd1;" horiz-adv-x="645" d="M593 815 C570 792 551 783 521 783 C509 783 491 786 476 792 L435 806 C410 815 400 817 383 817 C331 817 298 798 256 741 L264 735 C287 758 309 767 338 767 C354 767 373 764 391 757 L431 744 C450 737 471 733 483 733 C521 733 557 756 603 810 L593 815 Z M456 0 L472 0 L610 649 L680 649 L684 667 L509 667 L505 649 L587 649 L488 185 L293 667 L93 667 L89 649 L171 649 L37 18 L-45 18 L-49 0 L144 0 L148 18 L61 18 L193 644 L456 0 Z " />
<glyph glyph-name="Ograve" unicode="&#xd2;" horiz-adv-x="627" d="M371 833 L274 833 C265 833 259 830 259 824 C259 820 262 817 270 814 L471 721 C473 720 475 720 477 720 C480 720 482 722 482 725 C482 727 481 729 479 731 L371 833 Z M389 677 C204 677 35 467 35 237 C35 91 118 -10 239 -10 C424 -10 594 202 594 433 C594 574 508 677 389 677 L389 677 Z M383 657 C458 657 503 611 503 535 C503 503 498 466 484 400 C441 194 429 149 405 107 C370 46 311 10 243 10 C170 10 125 57 125 132 C125 164 130 201 144 267 C186 472 199 518 223 560 C258 621 317 657 383 657 L383 657 Z " />
<glyph glyph-name="Oacute" unicode="&#xd3;" horiz-adv-x="627" d="M496 833 L345 731 C341 728 339 725 339 723 C339 721 341 719 343 719 C344 719 346 720 348 721 L589 814 C599 818 604 822 604 827 C604 831 601 833 593 833 L496 833 Z M389 677 C204 677 35 467 35 237 C35 91 118 -10 239 -10 C424 -10 594 202 594 433 C594 574 508 677 389 677 L389 677 Z M383 657 C458 657 503 611 503 535 C503 503 498 466 484 400 C441 194 429 149 405 107 C370 46 311 10 243 10 C170 10 125 57 125 132 C125 164 130 201 144 267 C186 472 199 518 223 560 C258 621 317 657 383 657 L383 657 Z " />
<glyph glyph-name="Ocircumflex" unicode="&#xd4;" horiz-adv-x="627" d="M407 769 L544 721 C545 720 547 720 548 720 C552 720 554 722 554 724 C554 725 553 727 550 730 L422 838 L247 730 C241 726 240 725 240 723 C240 721 241 720 244 720 C246 720 247 720 249 721 L407 769 Z M389 677 C204 677 35 467 35 237 C35 91 118 -10 239 -10 C424 -10 594 202 594 433 C594 574 508 677 389 677 L389 677 Z M383 657 C458 657 503 611 503 535 C503 503 498 466 484 400 C441 194 429 149 405 107 C370 46 311 10 243 10 C170 10 125 57 125 132 C125 164 130 201 144 267 C186 472 199 518 223 560 C258 621 317 657 383 657 L383 657 Z " />
<glyph glyph-name="Otilde" unicode="&#xd5;" horiz-adv-x="627" d="M579 815 C556 792 536 783 506 783 C494 783 477 786 461 792 L420 806 C395 815 386 817 368 817 C316 817 284 798 241 741 L250 735 C273 758 294 767 324 767 C339 767 358 764 377 757 L416 744 C435 737 456 733 468 733 C506 733 543 756 588 810 L579 815 Z M389 677 C204 677 35 467 35 237 C35 91 118 -10 239 -10 C424 -10 594 202 594 433 C594 574 508 677 389 677 L389 677 Z M383 657 C458 657 503 611 503 535 C503 503 498 466 484 400 C441 194 429 149 405 107 C370 46 311 10 243 10 C170 10 125 57 125 132 C125 164 130 201 144 267 C186 472 199 518 223 560 C258 621 317 657 383 657 L383 657 Z " />
<glyph glyph-name="Odieresis" unicode="&#xd6;" horiz-adv-x="627" d="M318 823 C287 823 258 795 258 765 C258 743 275 727 297 727 C328 727 357 755 357 785 C357 807 341 823 318 823 L318 823 Z M519 823 C488 823 459 795 459 765 C459 743 476 727 498 727 C529 727 558 755 558 785 C558 807 542 823 519 823 L519 823 Z M389 677 C204 677 35 467 35 237 C35 91 118 -10 239 -10 C424 -10 594 202 594 433 C594 574 508 677 389 677 L389 677 Z M383 657 C458 657 503 611 503 535 C503 503 498 466 484 400 C441 194 429 149 405 107 C370 46 311 10 243 10 C170 10 125 57 125 132 C125 164 130 201 144 267 C186 472 199 518 223 560 C258 621 317 657 383 657 L383 657 Z " />
<glyph glyph-name="multiply" unicode="&#xd7;" horiz-adv-x="475" d="M231 302 L333 163 L358 184 L255 323 L417 463 L402 484 L240 345 L137 484 L112 463 L215 323 L53 184 L69 163 L231 302 Z " />
<glyph glyph-name="Oslash" unicode="&#xd8;" horiz-adv-x="627" d="M8 2 L20 -11 L87 65 C128 14 177 -10 239 -10 C424 -10 594 202 594 432 C594 487 577 549 551 588 L621 667 L606 679 L540 604 C499 653 450 677 389 677 C204 677 35 467 35 237 C35 172 48 122 77 80 L8 2 Z M125 135 C127 211 186 484 214 544 C248 615 311 657 384 657 C449 657 492 621 501 560 L125 135 Z M503 534 L503 530 C503 506 496 456 484 400 C441 194 429 148 405 107 C370 46 311 10 244 10 C179 10 134 48 127 110 L503 534 Z " />
<glyph glyph-name="Ugrave" unicode="&#xd9;" horiz-adv-x="610" d="M387 833 L290 833 C281 833 275 830 275 824 C275 820 278 817 286 814 L487 721 C489 720 491 720 492 720 C496 720 498 722 498 725 C498 727 497 728 495 731 L387 833 Z M257 649 L339 649 L343 667 L90 667 L86 649 L163 649 L78 249 C68 201 63 163 63 138 C63 41 126 -10 243 -10 C328 -10 389 17 433 73 C461 110 477 149 492 222 L583 649 L652 649 L655 667 L488 667 L484 649 L560 649 L469 222 C454 150 446 128 427 98 C390 42 335 10 273 10 C197 10 150 53 150 123 C150 141 153 160 162 205 L257 649 Z " />
<glyph glyph-name="Uacute" unicode="&#xda;" horiz-adv-x="610" d="M516 833 L365 731 C361 728 359 725 359 723 C359 721 361 719 363 719 C364 719 366 720 369 721 L610 814 C620 818 625 822 625 827 C625 831 621 833 613 833 L516 833 Z M257 649 L339 649 L343 667 L90 667 L86 649 L163 649 L78 249 C68 201 63 163 63 138 C63 41 126 -10 243 -10 C328 -10 389 17 433 73 C461 110 477 149 492 222 L583 649 L652 649 L655 667 L488 667 L484 649 L560 649 L469 222 C454 150 446 128 427 98 C390 42 335 10 273 10 C197 10 150 53 150 123 C150 141 153 160 162 205 L257 649 Z " />
<glyph glyph-name="Ucircumflex" unicode="&#xdb;" horiz-adv-x="610" d="M420 769 L557 721 C558 720 559 720 561 720 C565 720 567 722 567 724 C567 725 566 727 563 730 L434 838 L260 730 C254 726 253 725 253 723 C253 721 254 720 257 720 C259 720 260 720 262 721 L420 769 Z M257 649 L339 649 L343 667 L90 667 L86 649 L163 649 L78 249 C68 201 63 163 63 138 C63 41 126 -10 243 -10 C328 -10 389 17 433 73 C461 110 477 149 492 222 L583 649 L652 649 L655 667 L488 667 L484 649 L560 649 L469 222 C454 150 446 128 427 98 C390 42 335 10 273 10 C197 10 150 53 150 123 C150 141 153 160 162 205 L257 649 Z " />
<glyph glyph-name="Udieresis" unicode="&#xdc;" horiz-adv-x="610" d="M325 823 C294 823 265 795 265 765 C265 743 281 727 303 727 C335 727 363 755 363 785 C363 807 347 823 325 823 L325 823 Z M526 823 C495 823 466 795 466 765 C466 743 482 727 505 727 C536 727 565 755 565 785 C565 807 549 823 526 823 L526 823 Z M257 649 L339 649 L343 667 L90 667 L86 649 L163 649 L78 249 C68 201 63 163 63 138 C63 41 126 -10 243 -10 C328 -10 389 17 433 73 C461 110 477 149 492 222 L583 649 L652 649 L655 667 L488 667 L484 649 L560 649 L469 222 C454 150 446 128 427 98 C390 42 335 10 273 10 C197 10 150 53 150 123 C150 141 153 160 162 205 L257 649 Z " />
<glyph glyph-name="Yacute" unicode="&#xdd;" horiz-adv-x="524" d="M488 833 L337 731 C332 728 330 725 330 723 C330 721 332 719 334 719 C335 719 337 720 340 721 L581 814 C591 818 596 822 596 827 C596 831 593 833 584 833 L488 833 Z M545 649 L610 649 L614 667 L433 667 L429 649 L521 649 L318 353 L209 649 L293 649 L297 667 L52 667 L48 649 L102 649 L222 312 L160 18 L65 18 L61 0 L344 0 L348 18 L253 18 L315 312 L545 649 Z " />
<glyph glyph-name="Thorn" unicode="&#xde;" horiz-adv-x="550" d="M180 203 L271 203 C351 203 406 218 452 253 C504 292 535 350 535 407 C535 454 514 496 480 518 C449 538 405 547 344 547 L253 547 L274 649 L358 649 L362 667 L103 667 L99 649 L181 649 L47 18 L-35 18 L-39 0 L221 0 L225 18 L141 18 L180 203 Z M184 221 L249 529 L333 529 C399 529 429 508 429 462 C429 407 406 308 384 275 C359 235 329 221 268 221 L184 221 Z " />
<glyph glyph-name="germandbls" unicode="&#xdf;" horiz-adv-x="462" d="M90 18 L129 203 C142 264 155 297 175 322 C200 354 241 374 281 374 C311 374 329 358 329 331 C329 303 309 272 282 257 C264 247 250 244 219 244 L215 226 C282 226 306 207 306 154 C306 76 274 10 237 10 C223 10 210 18 210 27 C210 29 212 33 215 38 C227 54 233 72 233 88 C233 103 224 113 210 113 C187 113 167 86 167 55 C167 18 198 -10 238 -10 C310 -10 382 62 382 135 C382 190 349 218 269 235 C322 239 350 247 373 266 C394 284 407 310 407 336 C407 375 374 397 316 397 C246 397 203 378 155 325 L182 450 C212 591 251 657 306 657 C318 657 327 651 327 643 C327 641 326 637 323 632 C315 617 311 603 311 591 C311 575 321 565 337 565 C363 565 385 591 385 623 C385 657 360 677 318 677 C266 677 217 648 173 592 C133 541 115 498 94 401 L13 18 L-50 18 L-54 0 L128 0 L132 18 L90 18 Z " />
<glyph glyph-name="agrave" unicode="&#xe0;" horiz-adv-x="401" d="M240 613 L175 613 C166 613 161 610 161 605 C161 602 163 598 166 595 L298 466 C300 463 301 463 302 463 C304 463 306 465 306 468 C306 469 306 469 305 470 L240 613 Z M229 215 C135 212 81 198 38 164 C3 136 -18 98 -18 60 C-18 16 12 -10 62 -10 C117 -10 157 14 198 71 C197 60 197 53 197 48 C197 10 217 -10 254 -10 C277 -10 289 -5 325 18 L319 30 C306 19 297 15 288 15 C276 15 269 22 269 32 L269 34 L272 57 L320 282 C323 296 324 309 324 323 C324 368 283 396 217 396 C131 396 53 343 53 285 C53 270 65 257 79 257 C102 257 123 281 123 309 C123 314 121 321 119 329 C117 334 116 338 116 341 C116 358 164 380 200 380 C233 380 252 365 252 340 C252 327 252 323 250 315 L229 215 Z M219 167 C208 119 199 94 182 72 C161 46 134 30 107 30 C80 30 62 49 62 77 C62 106 75 136 96 156 C127 186 161 198 226 200 L219 167 Z " />
<glyph glyph-name="aacute" unicode="&#xe1;" horiz-adv-x="401" d="M336 613 L209 470 C207 468 207 467 207 466 C207 465 209 463 210 463 C211 463 212 464 215 466 L401 595 C407 598 411 604 411 607 C411 611 408 613 401 613 L336 613 Z M229 215 C135 212 81 198 38 164 C3 136 -18 98 -18 60 C-18 16 12 -10 62 -10 C117 -10 157 14 198 71 C197 60 197 53 197 48 C197 10 217 -10 254 -10 C277 -10 289 -5 325 18 L319 30 C306 19 297 15 288 15 C276 15 269 22 269 32 L269 34 L272 57 L320 282 C323 296 324 309 324 323 C324 368 283 396 217 396 C131 396 53 343 53 285 C53 270 65 257 79 257 C102 257 123 281 123 309 C123 314 121 321 119 329 C117 334 116 338 116 341 C116 358 164 380 200 380 C233 380 252 365 252 340 C252 327 252 323 250 315 L229 215 Z M219 167 C208 119 199 94 182 72 C161 46 134 30 107 30 C80 30 62 49 62 77 C62 106 75 136 96 156 C127 186 161 198 226 200 L219 167 Z " />
<glyph glyph-name="acircumflex" unicode="&#xe2;" horiz-adv-x="401" d="M259 541 L377 465 C378 464 380 463 381 463 C383 463 386 465 386 467 C386 469 385 471 382 474 L275 617 L108 474 C103 470 101 468 101 466 C101 465 103 463 104 463 C105 463 107 464 109 465 L259 541 Z M229 215 C135 212 81 198 38 164 C3 136 -18 98 -18 60 C-18 16 12 -10 62 -10 C117 -10 157 14 198 71 C197 60 197 53 197 48 C197 10 217 -10 254 -10 C277 -10 289 -5 325 18 L319 30 C306 19 297 15 288 15 C276 15 269 22 269 32 L269 34 L272 57 L320 282 C323 296 324 309 324 323 C324 368 283 396 217 396 C131 396 53 343 53 285 C53 270 65 257 79 257 C102 257 123 281 123 309 C123 314 121 321 119 329 C117 334 116 338 116 341 C116 358 164 380 200 380 C233 380 252 365 252 340 C252 327 252 323 250 315 L229 215 Z M219 167 C208 119 199 94 182 72 C161 46 134 30 107 30 C80 30 62 49 62 77 C62 106 75 136 96 156 C127 186 161 198 226 200 L219 167 Z " />
<glyph glyph-name="atilde" unicode="&#xe3;" horiz-adv-x="401" d="M412 572 C391 549 373 541 346 541 C333 541 319 544 306 549 L269 563 C250 571 238 573 223 573 C176 573 146 554 107 499 L115 493 C135 515 155 524 182 524 C198 524 213 521 229 515 L265 502 C281 496 299 492 311 492 C346 492 378 514 420 567 L412 572 Z M229 215 C135 212 81 198 38 164 C3 136 -18 98 -18 60 C-18 16 12 -10 62 -10 C117 -10 157 14 198 71 C197 60 197 53 197 48 C197 10 217 -10 254 -10 C277 -10 289 -5 325 18 L319 30 C306 19 297 15 288 15 C276 15 269 22 269 32 L269 34 L272 57 L320 282 C323 296 324 309 324 323 C324 368 283 396 217 396 C131 396 53 343 53 285 C53 270 65 257 79 257 C102 257 123 281 123 309 C123 314 121 321 119 329 C117 334 116 338 116 341 C116 358 164 380 200 380 C233 380 252 365 252 340 C252 327 252 323 250 315 L229 215 Z M219 167 C208 119 199 94 182 72 C161 46 134 30 107 30 C80 30 62 49 62 77 C62 106 75 136 96 156 C127 186 161 198 226 200 L219 167 Z " />
<glyph glyph-name="adieresis" unicode="&#xe4;" horiz-adv-x="401" d="M178 583 C147 583 118 555 118 525 C118 503 134 487 156 487 C188 487 216 515 216 545 C216 567 200 583 178 583 L178 583 Z M342 583 C311 583 282 555 282 525 C282 503 299 487 321 487 C352 487 381 515 381 545 C381 567 365 583 342 583 L342 583 Z M229 215 C135 212 81 198 38 164 C3 136 -18 98 -18 60 C-18 16 12 -10 62 -10 C117 -10 157 14 198 71 C197 60 197 53 197 48 C197 10 217 -10 254 -10 C277 -10 289 -5 325 18 L319 30 C306 19 297 15 288 15 C276 15 269 22 269 32 L269 34 L272 57 L320 282 C323 296 324 309 324 323 C324 368 283 396 217 396 C131 396 53 343 53 285 C53 270 65 257 79 257 C102 257 123 281 123 309 C123 314 121 321 119 329 C117 334 116 338 116 341 C116 358 164 380 200 380 C233 380 252 365 252 340 C252 327 252 323 250 315 L229 215 Z M219 167 C208 119 199 94 182 72 C161 46 134 30 107 30 C80 30 62 49 62 77 C62 106 75 136 96 156 C127 186 161 198 226 200 L219 167 Z " />
<glyph glyph-name="aring" unicode="&#xe5;" horiz-adv-x="401" d="M274 615 C224 615 179 571 179 522 C179 487 204 463 240 463 C290 463 334 506 334 556 C334 590 308 615 274 615 L274 615 Z M267 588 C288 588 305 571 305 549 C305 519 275 490 245 490 C224 490 208 507 208 529 C208 558 238 588 267 588 L267 588 Z M229 215 C135 212 81 198 38 164 C3 136 -18 98 -18 60 C-18 16 12 -10 62 -10 C117 -10 157 14 198 71 C197 60 197 53 197 48 C197 10 217 -10 254 -10 C277 -10 289 -5 325 18 L319 30 C306 19 297 15 288 15 C276 15 269 22 269 32 L269 34 L272 57 L320 282 C323 296 324 309 324 323 C324 368 283 396 217 396 C131 396 53 343 53 285 C53 270 65 257 79 257 C102 257 123 281 123 309 C123 314 121 321 119 329 C117 334 116 338 116 341 C116 358 164 380 200 380 C233 380 252 365 252 340 C252 327 252 323 250 315 L229 215 Z M219 167 C208 119 199 94 182 72 C161 46 134 30 107 30 C80 30 62 49 62 77 C62 106 75 136 96 156 C127 186 161 198 226 200 L219 167 Z " />
<glyph glyph-name="ae" unicode="&#xe6;" horiz-adv-x="615" d="M232 214 C136 212 81 197 37 163 C2 135 -18 97 -18 61 C-18 16 12 -10 65 -10 C125 -10 186 32 215 94 L215 95 L217 98 C226 73 232 61 238 50 C260 14 308 -10 356 -10 C433 -10 503 45 535 130 L516 130 C486 56 427 10 360 10 C313 10 285 37 285 83 C285 98 288 121 295 151 L311 228 L559 228 C562 244 563 252 563 264 C563 342 510 397 436 397 C396 397 359 383 319 354 C303 381 267 396 217 396 C133 396 54 343 54 287 C54 268 65 256 80 256 C104 256 125 280 125 307 C125 313 123 321 119 329 C117 333 116 338 116 340 C116 357 165 380 203 380 C236 380 256 365 256 340 C256 334 255 323 253 314 L232 214 Z M221 167 C211 119 202 94 185 72 C164 46 135 30 108 30 C81 30 62 49 62 77 C62 106 74 135 96 155 C127 186 163 197 228 199 L221 167 Z M477 246 L315 246 L322 280 C336 345 370 377 427 377 C470 377 490 361 490 324 C490 314 489 301 486 289 L477 246 Z " />
<glyph glyph-name="ccedilla" unicode="&#xe7;" horiz-adv-x="383" d="M142 -10 L149 -10 L151 -10 C229 -9 293 40 329 126 L311 126 C275 51 220 10 154 10 C112 10 84 37 84 75 C84 98 88 130 95 165 L109 228 C132 337 168 378 241 378 C274 378 306 366 306 352 C306 349 304 346 299 341 C285 327 275 303 275 282 C275 261 285 249 302 249 C330 249 352 278 352 314 C352 363 308 397 244 397 C118 397 3 277 3 146 C3 63 51 3 125 -8 L99 -65 C123 -73 133 -83 133 -103 C133 -134 107 -160 76 -160 C60 -160 44 -152 44 -144 L44 -142 C46 -135 46 -134 47 -123 C48 -112 48 -112 48 -111 C48 -104 44 -98 40 -98 C30 -98 24 -110 24 -127 C24 -156 49 -176 84 -176 C140 -176 192 -138 192 -97 C192 -71 171 -56 133 -56 L120 -56 L142 -10 Z " />
<glyph glyph-name="egrave" unicode="&#xe8;" horiz-adv-x="410" d="M246 613 L181 613 C172 613 167 610 167 605 C167 602 169 598 173 595 L304 466 C306 463 307 463 308 463 C310 463 312 465 312 467 C312 469 312 469 311 470 L246 613 Z M107 228 L354 228 C357 245 358 253 358 264 C358 341 304 397 229 397 C168 397 109 364 62 302 C24 253 3 199 3 148 C3 58 66 -10 151 -10 C228 -10 298 45 330 130 L311 130 C282 56 222 10 155 10 C109 10 81 37 81 83 C81 98 84 121 91 151 L107 228 Z M272 246 L111 246 L118 280 C132 345 166 377 222 377 C265 377 285 361 285 325 C285 312 284 301 281 289 L272 246 Z " />
<glyph glyph-name="eacute" unicode="&#xe9;" horiz-adv-x="410" d="M348 613 L222 470 C219 468 219 467 219 466 C219 465 221 463 222 463 C223 463 224 464 227 466 L413 595 C420 599 424 604 424 607 C424 611 420 613 413 613 L348 613 Z M107 228 L354 228 C357 245 358 253 358 264 C358 341 304 397 229 397 C168 397 109 364 62 302 C24 253 3 199 3 148 C3 58 66 -10 151 -10 C228 -10 298 45 330 130 L311 130 C282 56 222 10 155 10 C109 10 81 37 81 83 C81 98 84 121 91 151 L107 228 Z M272 246 L111 246 L118 280 C132 345 166 377 222 377 C265 377 285 361 285 325 C285 312 284 301 281 289 L272 246 Z " />
<glyph glyph-name="ecircumflex" unicode="&#xea;" horiz-adv-x="410" d="M265 541 L383 465 C384 464 386 463 387 463 C390 463 392 465 392 467 C392 468 390 472 388 474 L281 617 L114 474 C109 470 107 468 107 466 C107 465 109 463 110 463 C111 463 113 464 115 465 L265 541 Z M107 228 L354 228 C357 245 358 253 358 264 C358 341 304 397 229 397 C168 397 109 364 62 302 C24 253 3 199 3 148 C3 58 66 -10 151 -10 C228 -10 298 45 330 130 L311 130 C282 56 222 10 155 10 C109 10 81 37 81 83 C81 98 84 121 91 151 L107 228 Z M272 246 L111 246 L118 280 C132 345 166 377 222 377 C265 377 285 361 285 325 C285 312 284 301 281 289 L272 246 Z " />
<glyph glyph-name="edieresis" unicode="&#xeb;" horiz-adv-x="410" d="M188 583 C157 583 128 555 128 525 C128 503 144 487 167 487 C198 487 227 515 227 545 C227 567 211 583 188 583 L188 583 Z M353 583 C322 583 293 555 293 525 C293 503 309 487 331 487 C362 487 391 515 391 545 C391 567 375 583 353 583 L353 583 Z M107 228 L354 228 C357 245 358 253 358 264 C358 341 304 397 229 397 C168 397 109 364 62 302 C24 253 3 199 3 148 C3 58 66 -10 151 -10 C228 -10 298 45 330 130 L311 130 C282 56 222 10 155 10 C109 10 81 37 81 83 C81 98 84 121 91 151 L107 228 Z M272 246 L111 246 L118 280 C132 345 166 377 222 377 C265 377 285 361 285 325 C285 312 284 301 281 289 L272 246 Z " />
<glyph glyph-name="igrave" unicode="&#xec;" horiz-adv-x="251" d="M182 387 L46 387 L42 369 L102 369 L27 18 L-32 18 L-36 0 L164 0 L167 18 L104 18 L182 387 Z M141 613 L76 613 C67 613 62 610 62 605 C62 602 64 598 68 595 L199 466 C202 463 202 463 203 463 C205 463 207 465 207 467 L207 470 L141 613 Z " />
<glyph glyph-name="iacute" unicode="&#xed;" horiz-adv-x="251" d="M182 387 L46 387 L42 369 L102 369 L27 18 L-32 18 L-36 0 L164 0 L167 18 L104 18 L182 387 Z M263 613 L137 470 C134 468 134 467 134 466 C134 465 136 463 137 463 C138 463 139 464 142 466 L328 595 C335 599 339 604 339 607 C339 611 335 613 328 613 L263 613 Z " />
<glyph glyph-name="icircumflex" unicode="&#xee;" horiz-adv-x="251" d="M182 387 L46 387 L42 369 L102 369 L27 18 L-32 18 L-36 0 L164 0 L167 18 L104 18 L182 387 Z M170 541 L287 465 C289 464 290 463 292 463 C294 463 297 465 297 467 C297 468 296 470 293 474 L186 617 L18 474 C13 470 11 468 11 466 C11 465 13 463 14 463 C16 463 17 464 20 465 L170 541 Z " />
<glyph glyph-name="idieresis" unicode="&#xef;" horiz-adv-x="251" d="M182 387 L46 387 L42 369 L102 369 L27 18 L-32 18 L-36 0 L164 0 L167 18 L104 18 L182 387 Z M110 579 C80 579 52 552 52 523 C52 503 68 487 89 487 C119 487 147 514 147 543 C147 564 131 579 110 579 L110 579 Z M247 579 C218 579 190 552 190 523 C190 503 206 487 227 487 C257 487 284 514 284 543 C284 564 268 579 247 579 L247 579 Z " />
<glyph glyph-name="eth" unicode="&#xf0;" horiz-adv-x="447" d="M182 544 L188 527 L269 580 C297 517 309 456 308 378 C279 393 262 397 236 397 C117 397 3 274 3 146 C3 56 65 -10 149 -10 C287 -10 391 121 391 297 C391 402 359 502 296 597 L373 649 L367 664 L285 610 C273 629 238 669 220 680 L208 667 C236 637 251 617 263 596 L182 544 Z M281 169 C266 102 256 70 241 51 C221 25 189 10 154 10 C111 10 81 35 81 70 C81 85 88 128 96 169 L107 218 C117 266 130 311 137 324 C156 357 191 377 232 377 C276 377 305 352 305 315 L305 314 L291 218 L281 169 Z " />
<glyph glyph-name="ntilde" unicode="&#xf1;" horiz-adv-x="501" d="M450 572 C429 549 412 541 384 541 C371 541 358 544 344 549 L308 563 C288 571 277 573 261 573 C214 573 185 554 145 499 L153 493 C174 515 193 524 220 524 C236 524 251 521 268 515 L303 502 C319 496 337 492 350 492 C384 492 417 515 459 567 L450 572 Z M186 387 L46 387 L42 369 L106 369 L31 18 L-32 18 L-36 0 L167 0 L171 18 L108 18 L142 178 C158 255 172 295 192 320 C217 353 257 374 293 374 C321 374 339 357 339 329 C339 319 337 305 335 292 L277 18 L213 18 L209 0 L413 0 L417 18 L353 18 L406 265 C410 284 412 303 412 316 C412 364 371 397 313 397 C262 397 223 378 174 330 L186 387 Z " />
<glyph glyph-name="ograve" unicode="&#xf2;" horiz-adv-x="447" d="M258 613 L192 613 C184 613 179 610 179 605 C179 602 181 597 184 595 L315 466 C318 464 319 463 320 463 C322 463 324 465 324 468 C324 468 324 469 323 470 L258 613 Z M239 397 C116 397 3 277 3 147 C3 56 63 -10 148 -10 C270 -10 383 110 383 240 C383 331 323 397 239 397 L239 397 Z M280 169 C266 102 255 70 241 51 C221 25 188 10 154 10 C111 10 81 35 81 69 C81 85 88 131 96 169 L106 218 C116 265 129 311 137 324 C155 357 191 377 232 377 C275 377 305 352 305 316 L305 314 L291 218 L280 169 Z " />
<glyph glyph-name="oacute" unicode="&#xf3;" horiz-adv-x="447" d="M360 613 L234 470 C233 469 232 467 232 466 C232 465 234 463 235 463 C236 463 237 464 240 466 L426 595 C432 599 436 604 436 607 C436 611 433 613 425 613 L360 613 Z M239 397 C116 397 3 277 3 147 C3 56 63 -10 148 -10 C270 -10 383 110 383 240 C383 331 323 397 239 397 L239 397 Z M280 169 C266 102 255 70 241 51 C221 25 188 10 154 10 C111 10 81 35 81 69 C81 85 88 131 96 169 L106 218 C116 265 129 311 137 324 C155 357 191 377 232 377 C275 377 305 352 305 316 L305 314 L291 218 L280 169 Z " />
<glyph glyph-name="ocircumflex" unicode="&#xf4;" horiz-adv-x="447" d="M267 541 L385 465 C387 464 388 463 390 463 C392 463 394 465 394 467 L394 468 L390 474 L283 617 L116 474 C111 470 109 468 109 466 C109 465 111 463 112 463 C113 463 115 464 118 465 L267 541 Z M239 397 C116 397 3 277 3 147 C3 56 63 -10 148 -10 C270 -10 383 110 383 240 C383 331 323 397 239 397 L239 397 Z M280 169 C266 102 255 70 241 51 C221 25 188 10 154 10 C111 10 81 35 81 69 C81 85 88 131 96 169 L106 218 C116 265 129 311 137 324 C155 357 191 377 232 377 C275 377 305 352 305 316 L305 314 L291 218 L280 169 Z " />
<glyph glyph-name="otilde" unicode="&#xf5;" horiz-adv-x="447" d="M427 572 C405 549 388 541 361 541 C348 541 334 544 320 549 L284 563 C264 571 253 573 237 573 C190 573 161 555 121 499 L129 493 C150 515 170 524 196 524 C212 524 228 521 244 515 L279 502 C295 496 314 492 326 492 C360 492 393 514 435 567 L427 572 Z M239 397 C116 397 3 277 3 147 C3 56 63 -10 148 -10 C270 -10 383 110 383 240 C383 331 323 397 239 397 L239 397 Z M280 169 C266 102 255 70 241 51 C221 25 188 10 154 10 C111 10 81 35 81 69 C81 85 88 131 96 169 L106 218 C116 265 129 311 137 324 C155 357 191 377 232 377 C275 377 305 352 305 316 L305 314 L291 218 L280 169 Z " />
<glyph glyph-name="odieresis" unicode="&#xf6;" horiz-adv-x="447" d="M194 583 C163 583 134 555 134 525 C134 503 151 487 173 487 C204 487 233 515 233 545 C233 567 217 583 194 583 L194 583 Z M359 583 C328 583 299 555 299 525 C299 503 316 487 338 487 C369 487 398 515 398 545 C398 567 382 583 359 583 L359 583 Z M239 397 C116 397 3 277 3 147 C3 56 63 -10 148 -10 C270 -10 383 110 383 240 C383 331 323 397 239 397 L239 397 Z M280 169 C266 102 255 70 241 51 C221 25 188 10 154 10 C111 10 81 35 81 69 C81 85 88 131 96 169 L106 218 C116 265 129 311 137 324 C155 357 191 377 232 377 C275 377 305 352 305 316 L305 314 L291 218 L280 169 Z " />
<glyph glyph-name="divide" unicode="&#xf7;" horiz-adv-x="475" d="M43 308 L421 308 L427 338 L49 338 L43 308 Z M280 530 C245 530 212 497 212 461 C212 436 230 417 254 417 C289 417 322 450 322 486 C322 512 304 530 280 530 L280 530 Z M216 231 C181 231 148 197 148 162 C148 136 166 117 191 117 C226 117 259 150 259 187 C259 212 241 231 216 231 L216 231 Z " />
<glyph glyph-name="oslash" unicode="&#xf8;" horiz-adv-x="447" d="M398 406 L385 416 L331 360 C304 385 272 397 234 397 C116 397 3 275 3 149 C3 109 14 76 38 45 L-16 -11 L-5 -23 L49 32 C78 4 111 -10 151 -10 C270 -10 383 111 383 237 C383 283 369 322 343 348 L398 406 Z M305 313 C304 294 299 262 291 218 L280 169 C266 101 255 70 240 51 C221 25 188 10 154 10 C114 10 88 28 82 61 L305 313 Z M82 84 C86 118 90 140 96 169 L106 218 C116 265 130 311 137 324 C155 357 191 377 232 377 C268 377 289 364 302 335 L82 84 Z " />
<glyph glyph-name="ugrave" unicode="&#xf9;" horiz-adv-x="485" d="M273 613 L208 613 C200 613 195 610 195 605 C195 602 197 597 200 595 L331 466 C334 464 335 463 336 463 C338 463 341 466 340 468 C340 468 340 469 339 470 L273 613 Z M417 387 L281 387 L277 369 L336 369 L300 200 C286 133 270 88 251 64 C227 32 189 13 150 13 C118 13 100 29 100 58 C100 72 103 93 108 117 L165 387 L29 387 L25 369 L85 369 L34 131 C29 106 26 85 26 72 C26 19 62 -10 130 -10 C188 -10 227 10 271 60 L258 0 L398 0 L402 18 L339 18 L417 387 Z " />
<glyph glyph-name="uacute" unicode="&#xfa;" horiz-adv-x="485" d="M379 613 L253 470 C252 469 251 467 251 466 C251 465 253 463 254 463 C255 463 256 464 259 466 L445 595 C451 599 455 604 455 607 C455 611 452 613 444 613 L379 613 Z M417 387 L281 387 L277 369 L336 369 L300 200 C286 133 270 88 251 64 C227 32 189 13 150 13 C118 13 100 29 100 58 C100 72 103 93 108 117 L165 387 L29 387 L25 369 L85 369 L34 131 C29 106 26 85 26 72 C26 19 62 -10 130 -10 C188 -10 227 10 271 60 L258 0 L398 0 L402 18 L339 18 L417 387 Z " />
<glyph glyph-name="ucircumflex" unicode="&#xfb;" horiz-adv-x="485" d="M291 541 L408 465 C410 464 412 463 413 463 C415 463 418 465 418 467 C418 468 417 470 414 474 L307 617 L139 474 C134 470 132 468 132 466 C132 465 134 463 135 463 C137 463 138 464 141 465 L291 541 Z M417 387 L281 387 L277 369 L336 369 L300 200 C286 133 270 88 251 64 C227 32 189 13 150 13 C118 13 100 29 100 58 C100 72 103 93 108 117 L165 387 L29 387 L25 369 L85 369 L34 131 C29 106 26 85 26 72 C26 19 62 -10 130 -10 C188 -10 227 10 271 60 L258 0 L398 0 L402 18 L339 18 L417 387 Z " />
<glyph glyph-name="udieresis" unicode="&#xfc;" horiz-adv-x="485" d="M220 583 C189 583 160 555 160 525 C160 503 176 487 198 487 C230 487 258 515 258 545 C258 567 242 583 220 583 L220 583 Z M384 583 C353 583 324 555 324 525 C324 503 341 487 363 487 C394 487 423 515 423 545 C423 567 407 583 384 583 L384 583 Z M417 387 L281 387 L277 369 L336 369 L300 200 C286 133 270 88 251 64 C227 32 189 13 150 13 C118 13 100 29 100 58 C100 72 103 93 108 117 L165 387 L29 387 L25 369 L85 369 L34 131 C29 106 26 85 26 72 C26 19 62 -10 130 -10 C188 -10 227 10 271 60 L258 0 L398 0 L402 18 L339 18 L417 387 Z " />
<glyph glyph-name="yacute" unicode="&#xfd;" horiz-adv-x="393" d="M362 613 L236 470 C233 467 233 467 233 466 C233 465 235 463 236 463 C237 463 239 464 241 466 L428 595 C434 599 438 604 438 607 C438 611 435 613 427 613 L362 613 Z M187 94 L137 369 L201 369 L205 387 L12 387 L8 369 L52 369 L133 -6 L49 -161 C28 -201 21 -208 8 -208 C2 -208 -2 -206 -5 -200 C-15 -180 -23 -174 -39 -174 C-67 -174 -92 -201 -92 -233 C-92 -258 -75 -274 -50 -274 C-8 -274 25 -244 65 -170 L359 369 L401 369 L405 387 L272 387 L268 369 L334 369 L187 94 Z " />
<glyph glyph-name="thorn" unicode="&#xfe;" horiz-adv-x="465" d="M228 667 L88 667 L84 649 L148 649 L-43 -249 L-106 -249 L-110 -267 L102 -267 L106 -249 L34 -249 L104 82 C122 15 147 -10 198 -10 C249 -10 296 17 338 71 C381 125 405 191 405 254 C405 342 359 397 286 397 C235 397 194 369 152 306 L228 667 Z M301 176 C285 102 263 45 243 29 C227 16 211 10 194 10 C151 10 121 54 121 119 C121 253 196 377 277 377 C309 377 327 358 327 324 C327 304 325 292 316 249 L301 176 Z " />
<glyph glyph-name="ydieresis" unicode="&#xff;" horiz-adv-x="393" d="M193 583 C162 583 133 555 133 525 C133 503 150 487 172 487 C203 487 232 515 232 545 C232 567 216 583 193 583 L193 583 Z M358 583 C327 583 298 555 298 525 C298 503 315 487 337 487 C368 487 397 515 397 545 C397 567 381 583 358 583 L358 583 Z M187 94 L137 369 L201 369 L205 387 L12 387 L8 369 L52 369 L133 -6 L49 -161 C28 -201 21 -208 8 -208 C2 -208 -2 -206 -5 -200 C-15 -180 -23 -174 -39 -174 C-67 -174 -92 -201 -92 -233 C-92 -258 -75 -274 -50 -274 C-8 -274 25 -244 65 -170 L359 369 L401 369 L405 387 L272 387 L268 369 L334 369 L187 94 Z " />
<glyph glyph-name="Amacron" unicode="&#x100;" horiz-adv-x="576" d="M322 214 L344 18 L254 18 L250 0 L508 0 L512 18 L440 18 L370 667 L345 667 L-10 18 L-70 18 L-74 0 L94 0 L98 18 L14 18 L120 214 L322 214 Z M320 232 L130 232 L288 527 L320 232 Z M536 749 L543 779 L223 779 L216 749 L536 749 Z " />
<glyph glyph-name="amacron" unicode="&#x101;" horiz-adv-x="401" d="M229 215 C135 212 81 198 38 164 C3 136 -18 98 -18 60 C-18 16 12 -10 62 -10 C117 -10 157 14 198 71 C197 60 197 53 197 48 C197 10 217 -10 254 -10 C277 -10 289 -5 325 18 L319 30 C306 19 297 15 288 15 C276 15 269 22 269 32 L269 34 L272 57 L320 282 C323 296 324 309 324 323 C324 368 283 396 217 396 C131 396 53 343 53 285 C53 270 65 257 79 257 C102 257 123 281 123 309 C123 314 121 321 119 329 C117 334 116 338 116 341 C116 358 164 380 200 380 C233 380 252 365 252 340 C252 327 252 323 250 315 L229 215 Z M219 167 C208 119 199 94 182 72 C161 46 134 30 107 30 C80 30 62 49 62 77 C62 106 75 136 96 156 C127 186 161 198 226 200 L219 167 Z M387 499 L392 523 L119 523 L113 499 L387 499 Z " />
<glyph glyph-name="Abreve" unicode="&#x102;" horiz-adv-x="576" d="M322 214 L344 18 L254 18 L250 0 L508 0 L512 18 L440 18 L370 667 L345 667 L-10 18 L-70 18 L-74 0 L94 0 L98 18 L14 18 L120 214 L322 214 Z M320 232 L130 232 L288 527 L320 232 Z M531 838 C519 819 512 811 500 803 C474 784 432 774 382 774 C332 774 293 784 276 803 C268 811 264 820 260 838 L246 838 L246 830 C246 767 298 722 371 722 C448 722 517 768 545 838 L531 838 Z " />
<glyph glyph-name="abreve" unicode="&#x103;" horiz-adv-x="401" d="M229 215 C135 212 81 198 38 164 C3 136 -18 98 -18 60 C-18 16 12 -10 62 -10 C117 -10 157 14 198 71 C197 60 197 53 197 48 C197 10 217 -10 254 -10 C277 -10 289 -5 325 18 L319 30 C306 19 297 15 288 15 C276 15 269 22 269 32 L269 34 L272 57 L320 282 C323 296 324 309 324 323 C324 368 283 396 217 396 C131 396 53 343 53 285 C53 270 65 257 79 257 C102 257 123 281 123 309 C123 314 121 321 119 329 C117 334 116 338 116 341 C116 358 164 380 200 380 C233 380 252 365 252 340 C252 327 252 323 250 315 L229 215 Z M219 167 C208 119 199 94 182 72 C161 46 134 30 107 30 C80 30 62 49 62 77 C62 106 75 136 96 156 C127 186 161 198 226 200 L219 167 Z M396 610 C382 580 373 568 358 554 C335 534 296 521 257 521 C218 521 184 534 170 554 C160 567 157 580 156 610 L144 610 C143 598 143 593 143 587 C143 516 185 467 245 467 C314 467 377 523 407 610 L396 610 Z " />
<glyph glyph-name="Aogonek" unicode="&#x104;" horiz-adv-x="576" d="M508 0 L512 18 L440 18 L370 667 L345 667 L-10 18 L-70 18 L-74 0 L94 0 L98 18 L14 18 L120 214 L322 214 L344 18 L254 18 L250 0 L424 0 C346 -26 306 -64 306 -111 C306 -144 329 -163 372 -163 C401 -163 424 -157 454 -141 L457 -127 C436 -134 423 -137 405 -137 C376 -137 362 -125 362 -102 C362 -64 390 -30 447 0 L508 0 Z M320 232 L130 232 L288 527 L320 232 Z " />
<glyph glyph-name="aogonek" unicode="&#x105;" horiz-adv-x="401" d="M319 30 C306 19 297 15 288 15 C276 15 269 22 269 32 L269 34 L272 57 L320 282 C323 296 324 309 324 323 C324 368 283 396 217 396 C131 396 53 343 53 285 C53 270 65 257 79 257 C102 257 123 281 123 309 C123 314 121 321 119 329 C117 334 116 338 116 341 C116 358 164 380 200 380 C233 380 252 365 252 340 C252 327 252 323 250 315 L229 215 C135 212 81 198 38 164 C3 136 -18 98 -18 60 C-18 16 12 -10 62 -10 C117 -10 157 14 198 71 C197 60 197 53 197 48 C197 15 211 -3 240 -9 C183 -34 151 -70 151 -108 C151 -141 174 -159 213 -159 C241 -159 263 -153 293 -138 L296 -124 C276 -132 263 -134 246 -134 C219 -134 205 -123 205 -100 C205 -67 230 -33 272 -8 C286 -5 300 2 325 18 L319 30 Z M219 167 C208 119 199 94 182 72 C161 46 134 30 107 30 C80 30 62 49 62 77 C62 106 75 136 96 156 C127 186 161 198 226 200 L219 167 Z " />
<glyph glyph-name="Cacute" unicode="&#x106;" horiz-adv-x="561" d="M587 667 L574 667 L532 617 C489 658 448 677 400 677 C304 677 208 624 137 533 C72 450 33 337 33 237 C33 96 122 -10 240 -10 C294 -10 342 7 412 50 L432 0 L445 0 L484 185 L472 185 C403 62 335 10 247 10 C175 10 125 58 125 126 C125 163 139 250 162 350 C189 471 204 521 226 560 C260 621 322 657 392 657 C441 657 483 636 508 599 C529 569 535 545 537 494 L550 494 L587 667 Z M504 833 L353 731 C349 728 347 725 347 723 C347 721 349 719 351 719 C352 719 354 720 357 721 L598 814 C609 818 613 822 613 827 C613 831 610 833 601 833 L504 833 Z " />
<glyph glyph-name="cacute" unicode="&#x107;" horiz-adv-x="383" d="M311 126 C275 51 220 10 154 10 C114 10 84 37 84 72 L84 77 L96 165 L109 228 C132 338 168 378 241 378 C275 378 306 366 306 352 C306 349 305 347 299 341 C285 326 275 302 275 282 C275 261 285 249 303 249 C330 249 352 278 352 314 C352 363 308 397 244 397 C118 397 3 277 3 145 C3 53 62 -10 146 -10 C227 -10 286 34 330 126 L311 126 Z M358 613 L231 470 C229 467 229 467 229 466 C229 465 231 463 232 463 C233 463 235 464 237 466 L423 595 C430 599 434 604 434 607 C434 611 430 613 423 613 L358 613 Z " />
<glyph glyph-name="Ccircumflex" unicode="&#x108;" horiz-adv-x="561" d="M587 667 L574 667 L532 617 C489 658 448 677 400 677 C304 677 208 624 137 533 C72 450 33 337 33 237 C33 96 122 -10 240 -10 C294 -10 342 7 412 50 L432 0 L445 0 L484 185 L472 185 C403 62 335 10 247 10 C175 10 125 58 125 126 C125 163 139 250 162 350 C189 471 204 521 226 560 C260 621 322 657 392 657 C441 657 483 636 508 599 C529 569 535 545 537 494 L550 494 L587 667 Z M419 769 L556 721 C557 720 558 720 560 720 C564 720 566 722 566 724 C566 725 565 727 561 730 L433 838 L259 730 C254 727 252 725 252 723 C252 721 253 720 256 720 C258 720 259 720 261 721 L419 769 Z " />
<glyph glyph-name="Cdotaccent" unicode="&#x10a;" horiz-adv-x="561" d="M587 667 L574 667 L532 617 C489 658 448 677 400 677 C304 677 208 624 137 533 C72 450 33 337 33 237 C33 96 122 -10 240 -10 C294 -10 342 7 412 50 L432 0 L445 0 L484 185 L472 185 C403 62 335 10 247 10 C175 10 125 58 125 126 C125 163 139 250 162 350 C189 471 204 521 226 560 C260 621 322 657 392 657 C441 657 483 636 508 599 C529 569 535 545 537 494 L550 494 L587 667 Z M428 827 C395 827 365 797 365 765 C365 742 382 725 405 725 C438 725 468 755 468 787 C468 810 451 827 428 827 L428 827 Z " />
<glyph glyph-name="cdotaccent" unicode="&#x10b;" horiz-adv-x="383" d="M311 126 C275 51 220 10 154 10 C114 10 84 37 84 72 L84 77 L96 165 L109 228 C132 338 168 378 241 378 C275 378 306 366 306 352 C306 349 305 347 299 341 C285 326 275 302 275 282 C275 261 285 249 303 249 C330 249 352 278 352 314 C352 363 308 397 244 397 C118 397 3 277 3 145 C3 53 62 -10 146 -10 C227 -10 286 34 330 126 L311 126 Z M283 587 C251 587 220 557 220 526 C220 502 237 485 261 485 C294 485 324 515 324 547 C324 570 307 587 283 587 L283 587 Z " />
<glyph glyph-name="Ccaron" unicode="&#x10c;" horiz-adv-x="561" d="M587 667 L574 667 L532 617 C489 658 448 677 400 677 C304 677 208 624 137 533 C72 450 33 337 33 237 C33 96 122 -10 240 -10 C294 -10 342 7 412 50 L432 0 L445 0 L484 185 L472 185 C403 62 335 10 247 10 C175 10 125 58 125 126 C125 163 139 250 162 350 C189 471 204 521 226 560 C260 621 322 657 392 657 C441 657 483 636 508 599 C529 569 535 545 537 494 L550 494 L587 667 Z M418 789 L281 838 L277 838 C273 838 271 837 271 834 C271 833 272 832 276 829 L404 720 L578 829 C583 831 585 833 585 835 C584 838 584 838 581 838 L576 838 L418 789 Z " />
<glyph glyph-name="ccaron" unicode="&#x10d;" horiz-adv-x="383" d="M311 126 C275 51 220 10 154 10 C114 10 84 37 84 72 L84 77 L96 165 L109 228 C132 338 168 378 241 378 C275 378 306 366 306 352 C306 349 305 347 299 341 C285 326 275 302 275 282 C275 261 285 249 303 249 C330 249 352 278 352 314 C352 363 308 397 244 397 C118 397 3 277 3 145 C3 53 62 -10 146 -10 C227 -10 286 34 330 126 L311 126 Z M272 539 L155 615 C153 616 152 617 150 617 C148 617 145 615 145 613 C145 612 146 610 149 606 L256 463 L424 606 C429 610 431 612 431 614 C431 615 429 617 428 617 C426 617 424 616 422 615 L272 539 Z " />
<glyph glyph-name="Dcaron" unicode="&#x10e;" horiz-adv-x="640" d="M46 18 L-35 18 L-39 0 L201 0 C309 0 361 14 425 62 C537 145 605 283 605 425 C605 519 572 589 509 631 C471 657 423 667 342 667 L103 667 L99 649 L180 649 L46 18 Z M140 18 L274 649 L337 649 C460 649 510 613 510 525 C510 479 500 414 480 324 C442 155 416 95 366 59 C324 29 281 18 205 18 L140 18 Z M395 789 L258 838 L254 838 C250 838 248 837 248 834 C248 833 249 832 253 829 L381 720 L555 829 C560 831 562 833 562 835 C561 838 561 838 558 838 L553 838 L395 789 Z " />
<glyph glyph-name="dcaron" unicode="&#x10f;" horiz-adv-x="553" d="M239 0 L379 0 L383 18 L320 18 L457 667 L309 667 L305 649 L377 649 L304 307 C287 372 260 397 208 397 C99 397 2 272 2 131 C2 49 52 -10 123 -10 C176 -10 212 15 257 84 L239 0 Z M110 233 C133 341 158 377 210 377 C256 377 287 334 287 269 C287 137 212 10 135 10 C101 10 83 31 83 72 C83 96 86 119 96 165 L110 233 Z M491 461 C567 508 606 557 606 606 C606 642 581 667 546 667 C507 667 475 637 475 600 C475 578 488 565 510 565 C538 565 557 585 561 619 C574 611 579 602 579 586 C579 552 551 520 482 473 L491 461 Z " />
<glyph glyph-name="Dcroat" unicode="&#x110;" horiz-adv-x="640" d="M113 330 L47 18 L-35 18 L-39 0 L200 0 C312 0 365 15 433 68 C539 150 605 287 605 425 C605 518 572 588 509 631 C470 657 423 667 341 667 L103 667 L99 649 L181 649 L117 348 L35 348 L31 330 L113 330 Z M207 330 L350 330 L354 348 L211 348 L274 649 L337 649 C460 649 509 613 509 524 C509 478 499 413 479 324 C442 156 415 95 365 59 C324 29 280 18 204 18 L141 18 L207 330 Z " />
<glyph glyph-name="dcroat" unicode="&#x111;" horiz-adv-x="467" d="M352 532 L304 307 C287 372 260 397 208 397 C99 397 2 272 2 131 C2 49 52 -10 123 -10 C176 -10 212 15 257 84 L239 0 L379 0 L383 18 L320 18 L429 532 L492 532 L497 556 L434 556 L457 667 L309 667 L305 649 L377 649 L357 556 L201 556 L196 532 L352 532 Z M110 233 C133 341 158 377 210 377 C256 377 287 334 287 269 C287 137 212 10 135 10 C101 10 83 31 83 72 C83 96 86 119 96 165 L110 233 Z " />
<glyph glyph-name="Emacron" unicode="&#x112;" horiz-adv-x="556" d="M551 667 L103 667 L99 649 L181 649 L47 18 L-35 18 L-39 0 L431 0 L494 208 L481 208 C453 148 435 116 417 90 C367 26 352 19 263 18 L141 18 L207 329 L247 329 C307 329 329 310 329 259 C329 247 328 234 325 221 L320 198 L333 198 L392 472 L378 472 L374 453 C355 373 327 349 253 347 L210 347 L274 649 L353 649 C480 650 512 618 513 486 L525 486 L551 667 Z M525 749 L531 779 L211 779 L205 749 L525 749 Z " />
<glyph glyph-name="emacron" unicode="&#x113;" horiz-adv-x="410" d="M107 228 L354 228 C357 245 358 253 358 264 C358 341 304 397 229 397 C168 397 109 364 62 302 C24 253 3 199 3 148 C3 58 66 -10 151 -10 C228 -10 298 45 330 130 L311 130 C282 56 222 10 155 10 C109 10 81 37 81 83 C81 98 84 121 91 151 L107 228 Z M272 246 L111 246 L118 280 C132 345 166 377 222 377 C265 377 285 361 285 325 C285 312 284 301 281 289 L272 246 Z M385 499 L391 523 L117 523 L112 499 L385 499 Z " />
<glyph glyph-name="Ebreve" unicode="&#x114;" horiz-adv-x="556" d="M551 667 L103 667 L99 649 L181 649 L47 18 L-35 18 L-39 0 L431 0 L494 208 L481 208 C453 148 435 116 417 90 C367 26 352 19 263 18 L141 18 L207 329 L247 329 C307 329 329 310 329 259 C329 247 328 234 325 221 L320 198 L333 198 L392 472 L378 472 L374 453 C355 373 327 349 253 347 L210 347 L274 649 L353 649 C480 650 512 618 513 486 L525 486 L551 667 Z M536 838 C524 819 517 811 505 803 C479 784 437 774 387 774 C337 774 298 784 281 803 C273 811 269 820 265 838 L251 838 L251 830 C251 767 303 722 376 722 C453 722 522 768 550 838 L536 838 Z " />
<glyph glyph-name="ebreve" unicode="&#x115;" horiz-adv-x="410" d="M107 228 L354 228 C357 245 358 253 358 264 C358 341 304 397 229 397 C168 397 109 364 62 302 C24 253 3 199 3 148 C3 58 66 -10 151 -10 C228 -10 298 45 330 130 L311 130 C282 56 222 10 155 10 C109 10 81 37 81 83 C81 98 84 121 91 151 L107 228 Z M272 246 L111 246 L118 280 C132 345 166 377 222 377 C265 377 285 361 285 325 C285 312 284 301 281 289 L272 246 Z M399 610 C385 580 376 568 361 554 C338 534 299 521 259 521 C220 521 187 534 173 554 C163 567 160 580 158 610 L147 610 C146 599 146 594 146 588 C146 516 187 467 248 467 C317 467 380 523 410 610 L399 610 Z " />
<glyph glyph-name="Edotaccent" unicode="&#x116;" horiz-adv-x="556" d="M551 667 L103 667 L99 649 L181 649 L47 18 L-35 18 L-39 0 L431 0 L494 208 L481 208 C453 148 435 116 417 90 C367 26 352 19 263 18 L141 18 L207 329 L247 329 C307 329 329 310 329 259 C329 247 328 234 325 221 L320 198 L333 198 L392 472 L378 472 L374 453 C355 373 327 349 253 347 L210 347 L274 649 L353 649 C480 650 512 618 513 486 L525 486 L551 667 Z M398 827 C366 827 335 797 335 766 C335 742 352 725 376 725 C409 725 439 755 439 787 C439 810 422 827 398 827 L398 827 Z " />
<glyph glyph-name="edotaccent" unicode="&#x117;" horiz-adv-x="410" d="M107 228 L354 228 C357 245 358 253 358 264 C358 341 304 397 229 397 C168 397 109 364 62 302 C24 253 3 199 3 148 C3 58 66 -10 151 -10 C228 -10 298 45 330 130 L311 130 C282 56 222 10 155 10 C109 10 81 37 81 83 C81 98 84 121 91 151 L107 228 Z M272 246 L111 246 L118 280 C132 345 166 377 222 377 C265 377 285 361 285 325 C285 312 284 301 281 289 L272 246 Z M272 587 C240 587 209 557 209 526 C209 502 226 485 250 485 C283 485 313 515 313 547 C313 570 296 587 272 587 L272 587 Z " />
<glyph glyph-name="Eogonek" unicode="&#x118;" horiz-adv-x="556" d="M431 0 L494 208 L481 208 C453 148 435 116 417 90 C367 26 352 19 263 18 L141 18 L207 329 L247 329 C307 329 329 310 329 259 C329 247 328 234 325 221 L320 198 L333 198 L392 472 L378 472 L374 453 C355 373 327 349 253 347 L210 347 L274 649 L353 649 C480 650 512 618 513 486 L525 486 L551 667 L103 667 L99 649 L181 649 L47 18 L-35 18 L-39 0 L371 0 C293 -26 253 -64 253 -111 C253 -144 276 -163 319 -163 C348 -163 370 -157 401 -141 L404 -127 C383 -134 370 -137 352 -137 C323 -137 309 -125 309 -102 C309 -64 337 -30 393 0 L431 0 Z " />
<glyph glyph-name="eogonek" unicode="&#x119;" horiz-adv-x="410" d="M231 -124 C212 -132 199 -134 182 -134 C154 -134 141 -123 141 -100 C141 -62 161 -38 233 11 C283 43 313 80 330 130 L311 130 C282 56 222 10 155 10 C109 10 81 37 81 83 C81 98 84 121 91 151 L107 228 L354 228 C357 245 358 253 358 264 C358 341 304 397 229 397 C168 397 109 364 62 302 C24 253 3 199 3 148 C3 58 66 -10 149 -10 C159 -10 166 -9 178 -8 C119 -34 87 -69 87 -108 C87 -141 110 -159 149 -159 C177 -159 199 -153 228 -138 L231 -124 Z M272 246 L111 246 L118 280 C132 345 166 377 222 377 C266 377 285 361 285 325 C285 313 284 301 281 289 L272 246 Z " />
<glyph glyph-name="Ecaron" unicode="&#x11a;" horiz-adv-x="556" d="M551 667 L103 667 L99 649 L181 649 L47 18 L-35 18 L-39 0 L431 0 L494 208 L481 208 C453 148 435 116 417 90 C367 26 352 19 263 18 L141 18 L207 329 L247 329 C307 329 329 310 329 259 C329 247 328 234 325 221 L320 198 L333 198 L392 472 L378 472 L374 453 C355 373 327 349 253 347 L210 347 L274 649 L353 649 C480 650 512 618 513 486 L525 486 L551 667 Z M389 789 L252 838 L248 838 C244 838 242 837 242 834 C242 833 243 831 246 829 L374 720 L549 829 C554 832 556 833 556 835 C555 838 555 838 552 838 L547 838 L389 789 Z " />
<glyph glyph-name="ecaron" unicode="&#x11b;" horiz-adv-x="410" d="M107 228 L354 228 C357 245 358 253 358 264 C358 341 304 397 229 397 C168 397 109 364 62 302 C24 253 3 199 3 148 C3 58 66 -10 151 -10 C228 -10 298 45 330 130 L311 130 C282 56 222 10 155 10 C109 10 81 37 81 83 C81 98 84 121 91 151 L107 228 Z M272 246 L111 246 L118 280 C132 345 166 377 222 377 C265 377 285 361 285 325 C285 312 284 301 281 289 L272 246 Z M261 539 L144 615 C142 616 140 617 139 617 C136 617 134 615 134 613 C134 612 135 609 138 606 L245 463 L413 606 C419 611 420 612 420 614 C420 615 418 617 417 617 C415 617 413 616 411 615 L261 539 Z " />
<glyph glyph-name="Gcircumflex" unicode="&#x11c;" horiz-adv-x="603" d="M575 667 L562 667 L521 625 C480 661 439 677 389 677 C290 677 185 610 113 500 C62 424 32 321 32 228 C32 191 38 158 51 124 C85 35 147 -10 235 -10 C308 -10 381 23 433 80 C462 112 479 144 504 212 L567 212 L571 230 L306 230 L302 212 L400 212 C387 151 380 127 368 102 C338 43 289 10 231 10 C165 10 124 51 124 118 C124 221 192 505 232 571 C266 627 319 657 381 657 C471 657 517 595 520 471 L533 471 L575 667 Z M411 769 L548 721 C549 720 550 720 552 720 C556 720 558 722 558 724 C558 725 557 727 554 730 L425 838 L251 730 C245 726 244 725 244 723 C244 721 245 720 248 720 C250 720 251 720 253 721 L411 769 Z " />
<glyph glyph-name="gcircumflex" unicode="&#x11d;" horiz-adv-x="415" d="M61 18 C21 18 1 28 1 49 C1 73 29 100 88 133 C112 121 129 117 154 117 C250 117 332 195 332 287 C332 308 328 321 317 343 C332 356 341 361 350 361 C358 361 360 357 360 341 C360 325 368 315 381 315 C402 315 419 336 419 361 C419 380 406 391 384 391 C362 391 344 382 308 353 C281 385 256 397 214 397 C117 397 36 320 36 227 C36 192 46 171 74 144 C34 117 13 103 12 102 C-25 71 -44 35 -44 -2 C-44 -37 -27 -57 13 -69 C-53 -96 -81 -128 -81 -176 C-81 -234 -21 -274 65 -274 C196 -274 305 -172 305 -49 C305 2 280 18 202 18 L61 18 Z M239 228 C224 156 207 137 156 137 C123 137 107 150 107 178 C107 188 109 201 115 228 L128 288 C142 354 163 377 210 377 C244 377 260 365 260 339 C260 330 258 314 253 293 L239 228 Z M39 -70 L76 -70 L194 -70 C269 -70 279 -74 279 -101 C279 -121 267 -150 248 -173 C207 -225 145 -254 76 -254 C6 -254 -35 -223 -35 -168 C-35 -131 -18 -101 20 -70 L39 -70 Z M251 541 L368 465 C370 464 372 463 373 463 C376 463 378 465 378 467 C378 468 377 471 374 474 L267 617 L99 474 C93 469 92 468 92 466 C92 464 94 463 95 463 C97 463 99 464 101 465 L251 541 Z " />
<glyph glyph-name="Gbreve" unicode="&#x11e;" horiz-adv-x="603" d="M575 667 L562 667 L521 625 C480 661 439 677 389 677 C290 677 185 610 113 500 C62 424 32 321 32 228 C32 191 38 158 51 124 C85 35 147 -10 235 -10 C308 -10 381 23 433 80 C462 112 479 144 504 212 L567 212 L571 230 L306 230 L302 212 L400 212 C387 151 380 127 368 102 C338 43 289 10 231 10 C165 10 124 51 124 118 C124 221 192 505 232 571 C266 627 319 657 381 657 C471 657 517 595 520 471 L533 471 L575 667 Z M555 838 C543 819 536 811 525 803 C499 784 456 774 406 774 C357 774 318 785 300 803 C292 811 288 820 284 838 L271 838 L270 829 L270 826 C270 767 324 722 395 722 C472 722 542 768 569 838 L555 838 Z " />
<glyph glyph-name="gbreve" unicode="&#x11f;" horiz-adv-x="415" d="M61 18 C21 18 1 28 1 49 C1 73 29 100 88 133 C112 121 129 117 154 117 C250 117 332 195 332 287 C332 308 328 321 317 343 C332 356 341 361 350 361 C358 361 360 357 360 341 C360 325 368 315 381 315 C402 315 419 336 419 361 C419 380 406 391 384 391 C362 391 344 382 308 353 C281 385 256 397 214 397 C117 397 36 320 36 227 C36 192 46 171 74 144 C34 117 13 103 12 102 C-25 71 -44 35 -44 -2 C-44 -37 -27 -57 13 -69 C-53 -96 -81 -128 -81 -176 C-81 -234 -21 -274 65 -274 C196 -274 305 -172 305 -49 C305 2 280 18 202 18 L61 18 Z M239 228 C224 156 207 137 156 137 C123 137 107 150 107 178 C107 188 109 201 115 228 L128 288 C142 354 163 377 210 377 C244 377 260 365 260 339 C260 330 258 314 253 293 L239 228 Z M39 -70 L76 -70 L194 -70 C269 -70 279 -74 279 -101 C279 -121 267 -150 248 -173 C207 -225 145 -254 76 -254 C6 -254 -35 -223 -35 -168 C-35 -131 -18 -101 20 -70 L39 -70 Z M386 610 C372 580 363 568 348 554 C325 534 286 521 246 521 C207 521 174 534 160 554 C150 567 147 580 146 610 L134 610 C133 599 133 594 133 588 C133 516 174 467 235 467 C304 467 367 523 397 610 L386 610 Z " />
<glyph glyph-name="Gdotaccent" unicode="&#x120;" horiz-adv-x="603" d="M575 667 L562 667 L521 625 C480 661 439 677 389 677 C290 677 185 610 113 500 C62 424 32 321 32 228 C32 191 38 158 51 124 C85 35 147 -10 235 -10 C308 -10 381 23 433 80 C462 112 479 144 504 212 L567 212 L571 230 L306 230 L302 212 L400 212 C387 151 380 127 368 102 C338 43 289 10 231 10 C165 10 124 51 124 118 C124 221 192 505 232 571 C266 627 319 657 381 657 C471 657 517 595 520 471 L533 471 L575 667 Z M420 827 C388 827 357 797 357 765 C357 742 374 725 398 725 C431 725 461 755 461 787 C461 810 444 827 420 827 L420 827 Z " />
<glyph glyph-name="gdotaccent" unicode="&#x121;" horiz-adv-x="415" d="M61 18 C21 18 1 28 1 49 C1 73 29 100 88 133 C112 121 129 117 154 117 C250 117 332 195 332 287 C332 308 328 321 317 343 C332 356 341 361 350 361 C358 361 360 357 360 341 C360 325 368 315 381 315 C402 315 419 336 419 361 C419 380 406 391 384 391 C362 391 344 382 308 353 C281 385 256 397 214 397 C117 397 36 320 36 227 C36 192 46 171 74 144 C34 117 13 103 12 102 C-25 71 -44 35 -44 -2 C-44 -37 -27 -57 13 -69 C-53 -96 -81 -128 -81 -176 C-81 -234 -21 -274 65 -274 C196 -274 305 -172 305 -49 C305 2 280 18 202 18 L61 18 Z M239 228 C224 156 207 137 156 137 C123 137 107 150 107 178 C107 188 109 201 115 228 L128 288 C142 354 163 377 210 377 C244 377 260 365 260 339 C260 330 258 314 253 293 L239 228 Z M39 -70 L76 -70 L194 -70 C269 -70 279 -74 279 -101 C279 -121 267 -150 248 -173 C207 -225 145 -254 76 -254 C6 -254 -35 -223 -35 -168 C-35 -131 -18 -101 20 -70 L39 -70 Z M257 587 C225 587 194 557 194 525 C194 502 211 485 235 485 C268 485 298 515 298 547 C298 570 281 587 257 587 L257 587 Z " />
<glyph glyph-name="Gcommaaccent" unicode="&#x122;" horiz-adv-x="603" d="M575 667 L562 667 L521 625 C480 661 439 677 389 677 C290 677 185 610 113 500 C62 424 32 321 32 228 C32 191 38 158 51 124 C85 35 147 -10 235 -10 C308 -10 381 23 433 80 C462 112 479 144 504 212 L567 212 L571 230 L306 230 L302 212 L400 212 C387 151 380 127 368 102 C338 43 289 10 231 10 C165 10 124 51 124 118 C124 221 192 505 232 571 C266 627 319 657 381 657 C471 657 517 595 520 471 L533 471 L575 667 Z M141 -276 C222 -224 262 -173 262 -120 C262 -81 237 -54 201 -54 C161 -54 129 -86 129 -125 C129 -147 142 -161 163 -161 C192 -161 210 -140 215 -105 C230 -113 235 -123 235 -140 C235 -178 207 -211 132 -264 L141 -276 Z " />
<glyph glyph-name="gcommaaccent" unicode="&#x123;" horiz-adv-x="415" d="M61 18 C21 18 1 28 1 49 C1 73 29 100 88 133 C112 121 129 117 154 117 C250 117 332 195 332 287 C332 308 328 321 317 343 C332 356 341 361 350 361 C358 361 360 357 360 341 C360 325 368 315 381 315 C402 315 419 336 419 361 C419 380 406 391 384 391 C362 391 344 382 308 353 C281 385 256 397 214 397 C117 397 36 320 36 227 C36 192 46 171 74 144 C34 117 13 103 12 102 C-25 71 -44 35 -44 -2 C-44 -37 -27 -57 13 -69 C-53 -96 -81 -128 -81 -176 C-81 -234 -21 -274 65 -274 C196 -274 305 -172 305 -49 C305 2 280 18 202 18 L61 18 Z M239 228 C224 156 207 137 156 137 C123 137 107 150 107 178 C107 188 109 201 115 228 L128 288 C142 354 163 377 210 377 C244 377 260 365 260 339 C260 330 258 314 253 293 L239 228 Z M39 -70 L76 -70 L194 -70 C269 -70 279 -74 279 -101 C279 -121 267 -150 248 -173 C207 -225 145 -254 76 -254 C6 -254 -35 -223 -35 -168 C-35 -131 -18 -101 20 -70 L39 -70 Z M296 652 C220 605 181 556 181 507 C181 471 205 446 241 446 C280 446 312 476 312 513 C312 535 299 548 277 548 C249 548 231 528 227 495 C213 502 208 511 208 527 C208 561 236 593 306 640 L296 652 Z " />
<glyph glyph-name="Hcircumflex" unicode="&#x124;" horiz-adv-x="674" d="M466 330 L400 18 L316 18 L312 0 L572 0 L576 18 L493 18 L627 649 L710 649 L714 667 L454 667 L450 649 L534 649 L470 348 L211 348 L274 649 L358 649 L362 667 L103 667 L99 649 L181 649 L47 18 L-35 18 L-39 0 L221 0 L225 18 L141 18 L207 330 L466 330 Z M429 769 L567 721 C568 720 569 720 571 720 C574 720 577 722 577 724 C577 725 576 726 572 730 L444 838 L270 730 C265 727 263 725 263 723 C263 721 264 720 267 720 C268 720 270 720 271 721 L429 769 Z " />
<glyph glyph-name="Hbar" unicode="&#x126;" horiz-adv-x="674" d="M144 475 L47 18 L-35 18 L-39 0 L221 0 L225 18 L141 18 L207 330 L466 330 L400 18 L316 18 L312 0 L572 0 L576 18 L493 18 L591 475 L654 475 L658 493 L594 493 L627 649 L710 649 L714 667 L454 667 L450 649 L534 649 L501 493 L242 493 L274 649 L358 649 L362 667 L103 667 L99 649 L181 649 L148 493 L83 493 L79 475 L144 475 Z M238 475 L497 475 L470 348 L211 348 L238 475 Z " />
<glyph glyph-name="hbar" unicode="&#x127;" horiz-adv-x="496" d="M204 556 L228 667 L88 667 L84 649 L147 649 L127 556 L64 556 L59 532 L122 532 L13 18 L-50 18 L-54 0 L146 0 L149 18 L90 18 L124 177 C139 248 153 286 176 315 C204 353 243 374 283 374 C319 374 337 358 337 327 C337 315 335 299 332 286 L275 18 L212 18 L208 0 L408 0 L412 18 L352 18 L409 286 C412 298 413 311 413 324 C413 343 409 357 401 367 C386 386 352 397 312 397 C252 397 212 379 156 327 L199 532 L353 532 L358 556 L204 556 Z " />
<glyph glyph-name="Imacron" unicode="&#x12a;" horiz-adv-x="321" d="M47 18 L-35 18 L-39 0 L219 0 L223 18 L141 18 L274 649 L357 649 L361 667 L103 667 L99 649 L181 649 L47 18 Z M387 749 L394 779 L119 779 L112 749 L387 749 Z " />
<glyph glyph-name="imacron" unicode="&#x12b;" horiz-adv-x="251" d="M182 387 L46 387 L42 369 L102 369 L27 18 L-32 18 L-36 0 L164 0 L167 18 L104 18 L182 387 Z M274 499 L279 523 L44 523 L39 499 L274 499 Z " />
<glyph glyph-name="ibreve" unicode="&#x12d;" horiz-adv-x="251" d="M182 387 L46 387 L42 369 L102 369 L27 18 L-32 18 L-36 0 L164 0 L167 18 L104 18 L182 387 Z M314 610 C299 580 291 568 276 554 C252 534 214 521 174 521 C135 521 102 534 87 554 C78 567 75 580 73 610 L62 610 C61 598 61 593 61 587 C61 516 103 467 163 467 C231 467 295 523 325 610 L314 610 Z " />
<glyph glyph-name="Iogonek" unicode="&#x12e;" horiz-adv-x="321" d="M219 0 L223 18 L141 18 L274 649 L357 649 L361 667 L103 667 L99 649 L181 649 L47 18 L-35 18 L-39 0 L139 0 C62 -26 22 -64 22 -111 C22 -144 45 -163 87 -163 C116 -163 139 -157 169 -141 L172 -127 C151 -134 138 -137 121 -137 C92 -137 78 -125 78 -102 C78 -64 107 -29 162 0 L219 0 Z " />
<glyph glyph-name="iogonek" unicode="&#x12f;" horiz-adv-x="251" d="M164 0 L167 18 L104 18 L182 387 L46 387 L42 369 L102 369 L27 18 L-32 18 L-36 0 L87 0 C11 -30 -24 -65 -24 -108 C-24 -141 -1 -159 38 -159 C67 -159 88 -153 118 -138 L121 -124 C101 -132 89 -134 71 -134 C44 -134 30 -123 30 -100 C30 -62 55 -32 112 0 L164 0 Z M197 654 C163 654 131 623 131 590 C131 565 149 547 174 547 C208 547 240 578 240 612 C240 636 222 654 197 654 L197 654 Z " />
<glyph glyph-name="Idotaccent" unicode="&#x130;" horiz-adv-x="321" d="M47 18 L-35 18 L-39 0 L219 0 L223 18 L141 18 L274 649 L357 649 L361 667 L103 667 L99 649 L181 649 L47 18 Z M266 827 C234 827 203 797 203 766 C203 742 220 725 244 725 C277 725 307 755 307 787 C307 810 290 827 266 827 L266 827 Z " />
<glyph glyph-name="dotlessi" unicode="&#x131;" horiz-adv-x="251" d="M182 387 L46 387 L42 369 L102 369 L27 18 L-32 18 L-36 0 L164 0 L167 18 L104 18 L182 387 Z " />
<glyph glyph-name="Kcommaaccent" unicode="&#x136;" horiz-adv-x="623" d="M47 18 L-35 18 L-39 0 L214 0 L218 18 L141 18 L274 649 L352 649 L356 667 L103 667 L99 649 L181 649 L47 18 Z M313 407 L570 649 L650 649 L654 667 L453 667 L449 649 L541 649 L225 353 L393 18 L308 18 L304 0 L553 0 L556 18 L507 18 L313 407 Z M152 -276 C233 -224 273 -173 273 -120 C273 -81 248 -54 212 -54 C172 -54 140 -86 140 -125 C140 -147 153 -161 174 -161 C203 -161 222 -140 226 -105 C241 -113 246 -123 246 -140 C246 -178 218 -212 143 -264 L152 -276 Z " />
<glyph glyph-name="kcommaaccent" unicode="&#x137;" horiz-adv-x="465" d="M224 667 L88 667 L84 649 L143 649 L9 18 L-50 18 L-54 0 L146 0 L149 18 L86 18 L224 667 Z M226 250 L373 369 L437 369 L441 387 L255 387 L251 369 L341 369 L148 214 L248 18 L196 18 L192 0 L394 0 L398 18 L352 18 L226 250 Z M84 -260 C161 -213 200 -164 200 -115 C200 -79 175 -54 140 -54 C101 -54 69 -84 69 -121 C69 -143 82 -156 104 -156 C131 -156 150 -136 154 -103 C168 -110 173 -119 173 -135 C173 -169 145 -201 75 -248 L84 -260 Z " />
<glyph glyph-name="Lacute" unicode="&#x139;" horiz-adv-x="539" d="M430 0 L486 205 L473 205 C411 55 369 17 271 18 L141 18 L274 649 L352 649 L356 667 L103 667 L99 649 L181 649 L47 18 L-35 18 L-39 0 L430 0 Z M389 833 L239 731 C234 728 232 725 232 723 C232 721 234 719 236 719 C237 719 239 720 242 721 L483 814 C493 818 498 822 498 827 C498 831 494 833 486 833 L389 833 Z " />
<glyph glyph-name="lacute" unicode="&#x13a;" horiz-adv-x="234" d="M224 667 L79 667 L75 649 L144 649 L10 18 L-59 18 L-63 0 L156 0 L159 18 L87 18 L224 667 Z M314 833 L163 731 C158 727 156 725 156 723 C156 721 158 719 160 719 C161 719 163 720 166 721 L407 814 C417 818 422 822 422 827 C422 831 418 833 411 833 L314 833 Z " />
<glyph glyph-name="Lcommaaccent" unicode="&#x13b;" horiz-adv-x="539" d="M430 0 L486 205 L473 205 C411 55 369 17 271 18 L141 18 L274 649 L352 649 L356 667 L103 667 L99 649 L181 649 L47 18 L-35 18 L-39 0 L430 0 Z M120 -276 C201 -224 241 -173 241 -120 C241 -81 216 -54 180 -54 C140 -54 108 -86 108 -125 C108 -147 121 -161 142 -161 C171 -161 190 -140 194 -105 C209 -113 214 -123 214 -140 C214 -178 185 -212 111 -264 L120 -276 Z " />
<glyph glyph-name="lcommaaccent" unicode="&#x13c;" horiz-adv-x="234" d="M224 667 L79 667 L75 649 L144 649 L10 18 L-59 18 L-63 0 L156 0 L159 18 L87 18 L224 667 Z M-25 -260 C52 -213 91 -164 91 -115 C91 -79 66 -54 31 -54 C-8 -54 -40 -84 -40 -121 C-40 -143 -27 -156 -5 -156 C22 -156 41 -136 45 -103 C59 -110 64 -119 64 -135 C64 -169 36 -201 -34 -248 L-25 -260 Z " />
<glyph glyph-name="Lcaron" unicode="&#x13d;" horiz-adv-x="539" d="M430 0 L486 205 L473 205 C411 55 369 17 271 18 L141 18 L274 649 L352 649 L356 667 L103 667 L99 649 L181 649 L47 18 L-35 18 L-39 0 L430 0 Z M374 445 C455 497 495 549 495 602 C495 640 470 667 434 667 C394 667 362 635 362 597 C362 575 375 561 396 561 C425 561 444 581 448 617 C463 608 468 599 468 581 C468 544 439 509 365 458 L374 445 Z " />
<glyph glyph-name="lcaron" unicode="&#x13e;" horiz-adv-x="325" d="M224 667 L79 667 L75 649 L144 649 L10 18 L-59 18 L-63 0 L156 0 L159 18 L87 18 L224 667 Z M263 461 C340 509 378 557 378 606 C378 642 353 667 318 667 C279 667 247 637 247 600 C247 578 260 565 282 565 C310 565 329 585 333 619 C346 611 351 602 351 586 C351 552 323 520 254 473 L263 461 Z " />
<glyph glyph-name="Ldot" unicode="&#x13f;" horiz-adv-x="539" d="M430 0 L486 205 L473 205 C411 55 369 17 271 18 L141 18 L274 649 L352 649 L356 667 L103 667 L99 649 L181 649 L47 18 L-35 18 L-39 0 L430 0 Z M337 369 C305 369 274 339 274 308 C274 284 291 267 315 267 C348 267 378 297 378 329 C378 352 361 369 337 369 L337 369 Z " />
<glyph glyph-name="ldot" unicode="&#x140;" horiz-adv-x="285" d="M224 667 L79 667 L75 649 L144 649 L10 18 L-59 18 L-63 0 L156 0 L159 18 L87 18 L224 667 Z M248 362 C215 362 185 332 185 301 C185 277 202 260 225 260 C258 260 288 290 288 322 C288 345 271 362 248 362 L248 362 Z " />
<glyph glyph-name="Lslash" unicode="&#x141;" horiz-adv-x="539" d="M100 269 L47 18 L-35 18 L-39 0 L430 0 L486 205 L473 205 C411 55 369 17 271 18 L141 18 L206 324 L393 455 L399 480 L211 349 L274 649 L352 649 L356 667 L103 667 L99 649 L181 649 L106 294 L10 228 L4 203 L100 269 Z " />
<glyph glyph-name="lslash" unicode="&#x142;" horiz-adv-x="234" d="M84 351 L-1 293 L-6 268 L79 326 L14 18 L-59 18 L-63 0 L156 0 L159 18 L90 18 L164 367 L246 425 L251 450 L170 392 L228 667 L79 667 L75 649 L148 649 L84 351 Z " />
<glyph glyph-name="Nacute" unicode="&#x143;" horiz-adv-x="645" d="M456 0 L472 0 L610 649 L680 649 L684 667 L509 667 L505 649 L587 649 L488 185 L293 667 L93 667 L89 649 L171 649 L37 18 L-45 18 L-49 0 L144 0 L148 18 L61 18 L193 644 L456 0 Z M522 833 L371 731 C367 728 365 725 365 723 C365 721 367 719 369 719 C370 719 372 720 375 721 L616 814 C627 818 631 822 631 827 C631 831 627 833 619 833 L522 833 Z " />
<glyph glyph-name="nacute" unicode="&#x144;" horiz-adv-x="501" d="M186 387 L46 387 L42 369 L106 369 L31 18 L-32 18 L-36 0 L167 0 L171 18 L108 18 L142 178 C158 255 172 295 192 320 C217 353 257 374 293 374 C321 374 339 357 339 329 C339 319 337 305 335 292 L277 18 L213 18 L209 0 L413 0 L417 18 L353 18 L406 265 C410 284 412 303 412 316 C412 364 371 397 313 397 C262 397 223 378 174 330 L186 387 Z M377 613 L251 470 C250 469 249 467 249 466 C249 465 251 463 252 463 C253 463 253 463 257 466 L443 595 C449 599 453 604 453 607 C453 611 450 613 442 613 L377 613 Z " />
<glyph glyph-name="Ncommaaccent" unicode="&#x145;" horiz-adv-x="645" d="M456 0 L472 0 L610 649 L680 649 L684 667 L509 667 L505 649 L587 649 L488 185 L293 667 L93 667 L89 649 L171 649 L37 18 L-45 18 L-49 0 L144 0 L148 18 L61 18 L193 644 L456 0 Z M165 -276 C246 -224 285 -173 285 -120 C285 -81 261 -54 225 -54 C185 -54 153 -86 153 -125 C153 -147 166 -161 187 -161 C215 -161 234 -140 239 -105 C253 -113 258 -123 258 -140 C258 -178 230 -212 156 -264 L165 -276 Z " />
<glyph glyph-name="ncommaaccent" unicode="&#x146;" horiz-adv-x="501" d="M186 387 L46 387 L42 369 L106 369 L31 18 L-32 18 L-36 0 L167 0 L171 18 L108 18 L142 178 C158 255 172 295 192 320 C217 353 257 374 293 374 C321 374 339 357 339 329 C339 319 337 305 335 292 L277 18 L213 18 L209 0 L413 0 L417 18 L353 18 L406 265 C410 284 412 303 412 316 C412 364 371 397 313 397 C262 397 223 378 174 330 L186 387 Z M111 -260 C188 -213 226 -164 226 -115 C226 -79 201 -54 166 -54 C127 -54 95 -84 95 -121 C95 -143 108 -156 130 -156 C158 -156 177 -136 181 -103 C194 -110 199 -119 199 -135 C199 -169 172 -201 102 -248 L111 -260 Z " />
<glyph glyph-name="Ncaron" unicode="&#x147;" horiz-adv-x="645" d="M456 0 L472 0 L610 649 L680 649 L684 667 L509 667 L505 649 L587 649 L488 185 L293 667 L93 667 L89 649 L171 649 L37 18 L-45 18 L-49 0 L144 0 L148 18 L61 18 L193 644 L456 0 Z M426 789 L289 838 L285 838 C281 838 279 837 279 834 C279 833 280 831 283 829 L411 720 L586 829 C591 832 593 834 593 835 C592 838 592 838 588 838 L584 838 L426 789 Z " />
<glyph glyph-name="ncaron" unicode="&#x148;" horiz-adv-x="501" d="M186 387 L46 387 L42 369 L106 369 L31 18 L-32 18 L-36 0 L167 0 L171 18 L108 18 L142 178 C158 255 172 295 192 320 C217 353 257 374 293 374 C321 374 339 357 339 329 C339 319 337 305 335 292 L277 18 L213 18 L209 0 L413 0 L417 18 L353 18 L406 265 C410 284 412 303 412 316 C412 364 371 397 313 397 C262 397 223 378 174 330 L186 387 Z M309 539 L192 615 C190 616 188 617 187 617 C184 617 182 615 182 613 C182 612 184 609 186 606 L293 463 L460 606 C465 609 467 612 467 614 C467 615 465 617 464 617 C463 617 461 616 459 615 L309 539 Z " />
<glyph glyph-name="Omacron" unicode="&#x14c;" horiz-adv-x="627" d="M389 677 C204 677 35 467 35 237 C35 91 118 -10 239 -10 C424 -10 594 202 594 433 C594 574 508 677 389 677 L389 677 Z M383 657 C458 657 503 611 503 535 C503 503 498 466 484 400 C441 194 429 149 405 107 C370 46 311 10 243 10 C170 10 125 57 125 132 C125 164 130 201 144 267 C186 472 199 518 223 560 C258 621 317 657 383 657 L383 657 Z M563 749 L569 779 L249 779 L243 749 L563 749 Z " />
<glyph glyph-name="omacron" unicode="&#x14d;" horiz-adv-x="447" d="M239 397 C116 397 3 277 3 147 C3 56 63 -10 148 -10 C270 -10 383 110 383 240 C383 331 323 397 239 397 L239 397 Z M280 169 C266 102 255 70 241 51 C221 25 188 10 154 10 C111 10 81 35 81 69 C81 85 88 131 96 169 L106 218 C116 265 129 311 137 324 C155 357 191 377 232 377 C275 377 305 352 305 316 L305 314 L291 218 L280 169 Z M395 499 L400 523 L127 523 L121 499 L395 499 Z " />
<glyph glyph-name="Ohungarumlaut" unicode="&#x150;" horiz-adv-x="627" d="M389 677 C204 677 35 467 35 237 C35 91 118 -10 239 -10 C424 -10 594 202 594 433 C594 574 508 677 389 677 L389 677 Z M383 657 C458 657 503 611 503 535 C503 503 498 466 484 400 C441 194 429 149 405 107 C370 46 311 10 243 10 C170 10 125 57 125 132 C125 164 130 201 144 267 C186 472 199 518 223 560 C258 621 317 657 383 657 L383 657 Z M594 833 L460 731 C456 728 454 725 454 723 C454 721 455 720 457 720 C459 720 461 720 464 721 L671 813 C682 818 686 822 686 827 C686 831 683 833 674 833 L594 833 Z M438 833 L304 731 C298 727 297 725 297 723 C297 721 298 720 300 720 C302 720 305 720 307 721 L515 813 C526 819 530 822 530 827 C530 831 527 833 518 833 L438 833 Z " />
<glyph glyph-name="ohungarumlaut" unicode="&#x151;" horiz-adv-x="447" d="M239 397 C116 397 3 277 3 147 C3 56 63 -10 148 -10 C270 -10 383 110 383 240 C383 331 323 397 239 397 L239 397 Z M280 169 C266 102 255 70 241 51 C221 25 188 10 154 10 C111 10 81 35 81 69 C81 85 88 131 96 169 L106 218 C116 265 129 311 137 324 C155 357 191 377 232 377 C275 377 305 352 305 316 L305 314 L291 218 L280 169 Z M435 613 L309 470 C308 468 307 467 307 465 C307 464 308 463 309 463 C310 463 313 464 316 466 L494 595 C501 599 505 604 505 607 C505 611 502 613 494 613 L435 613 Z M305 613 L179 470 C177 468 177 467 177 465 C177 464 178 463 179 463 C180 463 183 464 186 466 L364 595 C370 599 374 604 374 607 C374 611 371 613 364 613 L305 613 Z " />
<glyph glyph-name="OE" unicode="&#x152;" horiz-adv-x="876" d="M871 667 L488 667 C455 675 438 677 414 677 C215 677 35 472 35 243 C35 88 125 -10 268 -10 C294 -10 312 -8 346 0 L750 0 L813 208 L801 208 C773 148 755 116 736 90 C687 26 672 19 583 18 L460 18 L526 329 L567 329 C626 329 649 310 649 259 C649 248 647 234 645 221 L640 198 L652 198 L711 472 L698 472 L694 453 C675 373 647 349 573 347 L530 347 L594 649 L672 649 C800 650 832 618 833 486 L845 486 L871 667 Z M370 30 C327 14 307 10 273 10 C179 10 129 53 129 132 C129 183 139 255 155 324 C187 461 208 531 226 561 C260 620 330 657 407 657 C437 657 457 653 499 639 L370 30 Z " />
<glyph glyph-name="oe" unicode="&#x153;" horiz-adv-x="688" d="M589 130 C559 55 498 10 430 10 C382 10 354 37 354 84 C354 98 357 123 363 151 L380 228 L632 228 C634 245 635 252 635 264 C635 341 581 397 507 397 C453 397 400 372 358 327 C337 370 290 397 237 397 C116 397 3 276 3 147 C3 55 63 -10 147 -10 C204 -10 261 16 303 60 C326 17 373 -10 427 -10 C505 -10 575 44 608 130 L589 130 Z M281 169 C266 102 256 70 241 51 C221 26 188 10 154 10 C110 10 80 35 80 70 C80 87 86 130 95 169 L105 218 C119 284 130 317 144 336 C164 361 197 377 231 377 C275 377 305 352 305 316 C305 298 299 255 291 218 L281 169 Z M550 246 L384 246 L391 280 C405 346 439 377 498 377 C542 377 562 361 562 324 C562 311 561 300 559 289 L550 246 Z " />
<glyph glyph-name="Racute" unicode="&#x154;" horiz-adv-x="612" d="M210 345 L265 345 C306 345 343 333 358 315 C368 302 373 283 373 258 C373 247 371 229 368 214 L357 165 C352 138 349 117 349 100 C349 35 387 -5 449 -5 C473 -5 491 -1 518 12 L517 29 C495 19 486 16 474 16 C452 16 438 33 438 58 C438 69 440 80 446 108 L457 163 C460 177 462 193 462 207 C462 248 450 282 426 305 C402 329 378 339 322 350 C406 360 449 376 494 415 C534 450 556 498 556 548 C556 589 538 622 507 641 C473 662 442 667 361 667 L103 667 L99 649 L181 649 L47 18 L-35 18 L-39 0 L221 0 L225 18 L141 18 L210 345 Z M214 363 L274 649 L339 649 C385 649 421 638 436 618 C446 605 452 583 452 555 C452 493 429 432 394 402 C363 376 324 363 272 363 L214 363 Z M457 833 L306 731 C302 728 300 725 300 723 C300 721 302 719 304 719 C305 719 307 720 310 721 L551 814 C562 818 566 822 566 827 C566 831 562 833 554 833 L457 833 Z " />
<glyph glyph-name="racute" unicode="&#x155;" horiz-adv-x="336" d="M186 387 L46 387 L42 369 L106 369 L31 18 L-32 18 L-36 0 L167 0 L171 18 L108 18 L133 134 C151 222 166 263 195 310 C216 344 235 361 250 361 C255 361 260 357 260 352 C260 350 260 347 259 344 C258 336 257 327 257 322 C257 305 266 294 281 294 C307 294 329 323 329 357 C329 383 314 397 288 397 C243 397 211 368 165 287 L186 387 Z M330 613 L204 470 C203 469 202 467 202 466 C202 465 204 463 205 463 C206 463 206 463 210 466 L396 595 C402 599 406 604 406 607 C406 611 402 613 395 613 L330 613 Z " />
<glyph glyph-name="Rcommaaccent" unicode="&#x156;" horiz-adv-x="612" d="M210 345 L265 345 C306 345 343 333 358 315 C368 302 373 283 373 258 C373 247 371 229 368 214 L357 165 C352 138 349 117 349 100 C349 35 387 -5 449 -5 C473 -5 491 -1 518 12 L517 29 C495 19 486 16 474 16 C452 16 438 33 438 58 C438 69 440 80 446 108 L457 163 C460 177 462 193 462 207 C462 248 450 282 426 305 C402 329 378 339 322 350 C406 360 449 376 494 415 C534 450 556 498 556 548 C556 589 538 622 507 641 C473 662 442 667 361 667 L103 667 L99 649 L181 649 L47 18 L-35 18 L-39 0 L221 0 L225 18 L141 18 L210 345 Z M214 363 L274 649 L339 649 C385 649 421 638 436 618 C446 605 452 583 452 555 C452 493 429 432 394 402 C363 376 324 363 272 363 L214 363 Z M144 -276 C225 -224 265 -173 265 -120 C265 -81 240 -54 204 -54 C164 -54 132 -86 132 -125 C132 -147 145 -161 166 -161 C195 -161 214 -140 218 -105 C233 -113 238 -123 238 -140 C238 -178 210 -212 135 -264 L144 -276 Z " />
<glyph glyph-name="rcommaaccent" unicode="&#x157;" horiz-adv-x="336" d="M186 387 L46 387 L42 369 L106 369 L31 18 L-32 18 L-36 0 L167 0 L171 18 L108 18 L133 134 C151 222 166 263 195 310 C216 344 235 361 250 361 C255 361 260 357 260 352 C260 350 260 347 259 344 C258 336 257 327 257 322 C257 305 266 294 281 294 C307 294 329 323 329 357 C329 383 314 397 288 397 C243 397 211 368 165 287 L186 387 Z M-1 -260 C75 -213 114 -164 114 -115 C114 -79 89 -54 54 -54 C15 -54 -17 -84 -17 -121 C-17 -143 -4 -156 18 -156 C46 -156 65 -136 69 -103 C82 -110 87 -119 87 -135 C87 -169 59 -201 -10 -248 L-1 -260 Z " />
<glyph glyph-name="Rcaron" unicode="&#x158;" horiz-adv-x="612" d="M210 345 L265 345 C306 345 343 333 358 315 C368 302 373 283 373 258 C373 247 371 229 368 214 L357 165 C352 138 349 117 349 100 C349 35 387 -5 449 -5 C473 -5 491 -1 518 12 L517 29 C495 19 486 16 474 16 C452 16 438 33 438 58 C438 69 440 80 446 108 L457 163 C460 177 462 193 462 207 C462 248 450 282 426 305 C402 329 378 339 322 350 C406 360 449 376 494 415 C534 450 556 498 556 548 C556 589 538 622 507 641 C473 662 442 667 361 667 L103 667 L99 649 L181 649 L47 18 L-35 18 L-39 0 L221 0 L225 18 L141 18 L210 345 Z M214 363 L274 649 L339 649 C385 649 421 638 436 618 C446 605 452 583 452 555 C452 493 429 432 394 402 C363 376 324 363 272 363 L214 363 Z M382 789 L245 838 L241 838 C237 838 235 837 235 834 C235 833 236 831 239 829 L367 720 L542 829 C547 832 549 833 549 835 C548 838 548 838 545 838 L540 838 L382 789 Z " />
<glyph glyph-name="rcaron" unicode="&#x159;" horiz-adv-x="336" d="M186 387 L46 387 L42 369 L106 369 L31 18 L-32 18 L-36 0 L167 0 L171 18 L108 18 L133 134 C151 222 166 263 195 310 C216 344 235 361 250 361 C255 361 260 357 260 352 C260 350 260 347 259 344 C258 336 257 327 257 322 C257 305 266 294 281 294 C307 294 329 323 329 357 C329 383 314 397 288 397 C243 397 211 368 165 287 L186 387 Z M234 539 L117 615 C115 616 114 617 112 617 C110 617 107 615 107 613 C107 612 108 610 111 606 L218 463 L386 606 C391 610 393 612 393 614 C393 615 391 617 390 617 C388 617 387 616 384 615 L234 539 Z " />
<glyph glyph-name="Sacute" unicode="&#x15a;" horiz-adv-x="477" d="M468 676 L455 676 L416 633 C382 663 346 677 304 677 C190 677 84 559 84 433 C84 369 116 333 189 310 L258 290 C322 271 349 242 349 194 C349 93 270 10 175 10 C91 10 36 74 36 171 C36 182 36 190 38 207 L19 207 L-19 0 L-6 0 L39 56 C78 8 114 -10 170 -10 C237 -10 296 20 341 78 C386 134 412 207 412 275 C412 344 376 386 296 409 L249 423 C175 444 145 470 145 511 C145 587 218 657 298 657 C369 657 415 608 415 533 C415 527 415 518 413 503 L432 503 L468 676 Z M428 833 L277 731 C273 728 271 725 271 723 C271 721 273 719 275 719 C276 719 278 720 281 721 L522 814 C533 818 537 822 537 827 C537 831 533 833 525 833 L428 833 Z " />
<glyph glyph-name="sacute" unicode="&#x15b;" horiz-adv-x="338" d="M299 395 L286 395 L266 359 C238 386 214 397 181 397 C104 397 39 329 39 249 C39 201 61 173 106 164 L176 148 C207 141 223 125 223 101 C223 54 172 10 119 10 C61 10 26 56 26 132 L26 148 L10 148 L-21 0 L-11 0 L18 38 C50 2 74 -10 113 -10 C194 -10 264 66 264 156 C264 208 240 234 180 248 L140 257 C96 266 77 279 77 297 C77 338 124 377 173 377 C224 377 259 342 259 290 L259 280 L274 280 L299 395 Z M306 613 L180 470 C179 469 178 467 178 466 C178 465 180 463 181 463 C182 463 182 463 186 466 L372 595 C378 599 382 604 382 607 C382 611 379 613 371 613 L306 613 Z " />
<glyph glyph-name="Scircumflex" unicode="&#x15c;" horiz-adv-x="477" d="M468 676 L455 676 L416 633 C382 663 346 677 304 677 C190 677 84 559 84 433 C84 369 116 333 189 310 L258 290 C322 271 349 242 349 194 C349 93 270 10 175 10 C91 10 36 74 36 171 C36 182 36 190 38 207 L19 207 L-19 0 L-6 0 L39 56 C78 8 114 -10 170 -10 C237 -10 296 20 341 78 C386 134 412 207 412 275 C412 344 376 386 296 409 L249 423 C175 444 145 470 145 511 C145 587 218 657 298 657 C369 657 415 608 415 533 C415 527 415 518 413 503 L432 503 L468 676 Z M330 769 L467 721 C468 720 470 720 471 720 C475 720 477 722 477 724 C477 726 476 727 473 730 L345 838 L170 730 C164 726 163 725 163 723 C163 721 164 720 167 720 C169 720 171 720 172 721 L330 769 Z " />
<glyph glyph-name="scircumflex" unicode="&#x15d;" horiz-adv-x="338" d="M299 395 L286 395 L266 359 C238 386 214 397 181 397 C104 397 39 329 39 249 C39 201 61 173 106 164 L176 148 C207 141 223 125 223 101 C223 54 172 10 119 10 C61 10 26 56 26 132 L26 148 L10 148 L-21 0 L-11 0 L18 38 C50 2 74 -10 113 -10 C194 -10 264 66 264 156 C264 208 240 234 180 248 L140 257 C96 266 77 279 77 297 C77 338 124 377 173 377 C224 377 259 342 259 290 L259 280 L274 280 L299 395 Z M228 541 L345 465 C347 464 349 463 350 463 C353 463 355 465 355 467 C355 468 354 471 351 474 L244 617 L76 474 C70 469 69 468 69 466 C69 465 71 463 72 463 C74 463 76 464 78 465 L228 541 Z " />
<glyph glyph-name="Scedilla" unicode="&#x15e;" horiz-adv-x="477" d="M172 -10 C220 -9 262 6 298 34 C366 88 412 185 412 275 C412 344 376 386 296 409 L249 423 C175 444 145 470 145 511 C145 587 218 657 298 657 C369 657 415 608 415 533 C415 527 415 518 413 503 L432 503 L468 676 L455 676 L416 633 C382 663 346 677 304 677 C190 677 84 559 84 433 C84 369 116 333 189 310 L258 290 C322 271 349 242 349 194 C349 93 270 10 175 10 C91 10 36 74 36 171 C36 182 36 190 38 207 L19 207 L-19 0 L-6 0 L39 56 C71 15 106 -5 153 -9 L126 -67 C153 -75 164 -86 164 -107 C164 -138 137 -165 104 -165 C86 -165 69 -157 69 -149 L69 -146 L71 -142 C71 -140 71 -139 72 -137 L72 -126 C73 -116 73 -116 73 -115 C73 -107 69 -101 64 -101 C54 -101 47 -113 47 -130 C47 -160 73 -181 112 -181 C171 -181 226 -142 226 -100 C226 -73 204 -58 163 -58 L148 -58 L172 -10 Z " />
<glyph glyph-name="scedilla" unicode="&#x15f;" horiz-adv-x="338" d="M113 -10 C196 -9 264 66 264 156 C264 208 240 234 180 248 L140 257 C96 266 77 279 77 297 C77 338 124 377 173 377 C224 377 259 342 259 290 L259 280 L274 280 L299 395 L286 395 L266 359 C238 386 214 397 181 397 C104 397 39 329 39 249 C39 201 61 173 106 164 L176 148 C207 141 223 125 223 101 C223 54 172 10 119 10 C61 10 26 56 26 132 L26 148 L10 148 L-21 0 L-11 0 L18 38 C44 8 65 -5 95 -9 L69 -65 C95 -73 105 -84 105 -104 C105 -134 79 -160 48 -160 C31 -160 15 -152 15 -144 C15 -143 15 -141 16 -138 C17 -136 17 -134 17 -130 L17 -123 C18 -112 18 -112 18 -111 C18 -104 14 -98 10 -98 C1 -98 -6 -110 -6 -127 C-6 -155 19 -176 55 -176 C111 -176 164 -138 164 -97 C164 -70 143 -56 104 -56 L90 -56 L113 -10 Z " />
<glyph glyph-name="Scaron" unicode="&#x160;" horiz-adv-x="477" d="M339 789 L202 838 L198 838 C194 838 192 837 192 834 C192 833 193 831 196 829 L324 720 L499 829 C504 832 506 834 506 835 C505 838 505 838 501 838 L497 838 L339 789 Z M468 676 L455 676 L416 633 C382 663 346 677 304 677 C190 677 84 559 84 433 C84 369 116 333 189 310 L258 290 C322 271 349 242 349 194 C349 93 270 10 175 10 C91 10 36 74 36 171 C36 182 36 190 38 207 L19 207 L-19 0 L-6 0 L39 56 C78 8 114 -10 170 -10 C237 -10 296 20 341 78 C386 134 412 207 412 275 C412 344 376 386 296 409 L249 423 C175 444 145 470 145 511 C145 587 218 657 298 657 C369 657 415 608 415 533 C415 527 415 518 413 503 L432 503 L468 676 Z " />
<glyph glyph-name="scaron" unicode="&#x161;" horiz-adv-x="338" d="M299 395 L286 395 L266 359 C238 386 214 397 181 397 C104 397 39 329 39 249 C39 201 61 173 106 164 L176 148 C207 141 223 125 223 101 C223 54 172 10 119 10 C61 10 26 56 26 132 L26 148 L10 148 L-21 0 L-11 0 L18 38 C50 2 74 -10 113 -10 C194 -10 264 66 264 156 C264 208 240 234 180 248 L140 257 C96 266 77 279 77 297 C77 338 124 377 173 377 C224 377 259 342 259 290 L259 280 L274 280 L299 395 Z M221 539 L104 615 C102 616 100 617 99 617 C96 617 94 615 94 613 C94 612 96 609 98 606 L205 463 L373 606 C377 609 379 612 379 614 C379 615 377 617 376 617 C375 617 373 616 371 615 L221 539 Z " />
<glyph glyph-name="Tcommaaccent" unicode="&#x162;" horiz-adv-x="554" d="M567 459 L599 667 L90 667 L39 459 L51 457 C84 536 104 568 146 612 C176 641 196 648 253 649 L298 649 L165 18 L70 18 L66 0 L344 0 L348 18 L258 18 L392 649 L437 649 C522 648 548 604 554 457 L567 459 Z M130 -276 C211 -224 251 -173 251 -120 C251 -81 226 -54 190 -54 C150 -54 118 -86 118 -125 C118 -147 131 -161 152 -161 C181 -161 200 -140 204 -105 C219 -113 224 -123 224 -140 C224 -178 196 -212 121 -264 L130 -276 Z " />
<glyph glyph-name="tcommaaccent" unicode="&#x163;" horiz-adv-x="274" d="M160 369 L262 369 L266 387 L164 387 L198 546 L189 546 C156 479 80 402 29 384 L26 369 L84 369 L28 107 C23 84 21 69 21 58 C21 15 51 -10 105 -10 C158 -10 196 18 219 74 L200 74 C184 36 164 20 135 20 C111 20 97 32 97 54 C97 65 98 75 100 85 L160 369 Z M7 -260 C84 -212 122 -164 122 -115 C122 -79 97 -54 62 -54 C23 -54 -9 -84 -9 -121 C-9 -143 4 -156 26 -156 C54 -156 72 -136 77 -103 C90 -110 95 -119 95 -135 C95 -169 67 -201 -2 -248 L7 -260 Z " />
<glyph glyph-name="Tcaron" unicode="&#x164;" horiz-adv-x="554" d="M567 459 L599 667 L90 667 L39 459 L51 457 C84 536 104 568 146 612 C176 641 196 648 253 649 L298 649 L165 18 L70 18 L66 0 L344 0 L348 18 L258 18 L392 649 L437 649 C522 648 548 604 554 457 L567 459 Z M377 789 L240 838 L236 838 C232 838 230 837 230 834 C230 833 231 831 234 829 L362 720 L536 829 C543 832 544 834 544 835 C543 838 543 838 539 838 L535 838 L377 789 Z " />
<glyph glyph-name="tcaron" unicode="&#x165;" horiz-adv-x="307" d="M160 369 L262 369 L266 387 L164 387 L198 546 L189 546 C156 479 80 402 29 384 L26 369 L84 369 L28 107 C23 84 21 69 21 58 C21 15 51 -10 105 -10 C158 -10 196 18 219 74 L200 74 C184 36 164 20 135 20 C111 20 97 32 97 54 C97 65 98 75 100 85 L160 369 Z M244 461 C321 509 359 557 359 606 C359 642 334 667 299 667 C260 667 228 637 228 600 C228 578 241 565 263 565 C291 565 310 585 314 619 C327 611 332 602 332 586 C332 552 305 521 235 473 L244 461 Z " />
<glyph glyph-name="utilde" unicode="&#x169;" horiz-adv-x="485" d="M417 387 L281 387 L277 369 L336 369 L300 200 C286 133 270 88 251 64 C227 32 189 13 150 13 C118 13 100 29 100 58 C100 72 103 93 108 117 L165 387 L29 387 L25 369 L85 369 L34 131 C29 106 26 85 26 72 C26 19 62 -10 130 -10 C188 -10 227 10 271 60 L258 0 L398 0 L402 18 L339 18 L417 387 Z M440 572 C419 549 402 541 375 541 C362 541 348 544 334 549 L298 563 C278 571 267 573 251 573 C204 573 175 555 135 499 L143 493 C164 515 183 524 210 524 C226 524 242 521 258 515 L293 502 C309 496 327 492 340 492 C374 492 407 514 449 567 L440 572 Z " />
<glyph glyph-name="Umacron" unicode="&#x16a;" horiz-adv-x="610" d="M257 649 L339 649 L343 667 L90 667 L86 649 L163 649 L78 249 C68 201 63 163 63 138 C63 41 126 -10 243 -10 C328 -10 389 17 433 73 C461 110 477 149 492 222 L583 649 L652 649 L655 667 L488 667 L484 649 L560 649 L469 222 C454 150 446 128 427 98 C390 42 335 10 273 10 C197 10 150 53 150 123 C150 141 153 160 162 205 L257 649 Z M565 749 L571 779 L251 779 L245 749 L565 749 Z " />
<glyph glyph-name="umacron" unicode="&#x16b;" horiz-adv-x="485" d="M417 387 L281 387 L277 369 L336 369 L300 200 C286 133 270 88 251 64 C227 32 189 13 150 13 C118 13 100 29 100 58 C100 72 103 93 108 117 L165 387 L29 387 L25 369 L85 369 L34 131 C29 106 26 85 26 72 C26 19 62 -10 130 -10 C188 -10 227 10 271 60 L258 0 L398 0 L402 18 L339 18 L417 387 Z M415 499 L420 523 L147 523 L142 499 L415 499 Z " />
<glyph glyph-name="ubreve" unicode="&#x16d;" horiz-adv-x="485" d="M417 387 L281 387 L277 369 L336 369 L300 200 C286 133 270 88 251 64 C227 32 189 13 150 13 C118 13 100 29 100 58 C100 72 103 93 108 117 L165 387 L29 387 L25 369 L85 369 L34 131 C29 106 26 85 26 72 C26 19 62 -10 130 -10 C188 -10 227 10 271 60 L258 0 L398 0 L402 18 L339 18 L417 387 Z M422 610 C408 580 399 568 384 554 C361 534 323 521 283 521 C244 521 210 534 196 554 C187 567 183 581 182 610 L170 610 C169 599 169 593 169 587 C169 516 211 467 271 467 C340 467 403 523 434 610 L422 610 Z " />
<glyph glyph-name="Uring" unicode="&#x16e;" horiz-adv-x="610" d="M257 649 L339 649 L343 667 L90 667 L86 649 L163 649 L78 249 C68 201 63 163 63 138 C63 41 126 -10 243 -10 C328 -10 389 17 433 73 C461 110 477 149 492 222 L583 649 L652 649 L655 667 L488 667 L484 649 L560 649 L469 222 C454 150 446 128 427 98 C390 42 335 10 273 10 C197 10 150 53 150 123 C150 141 153 160 162 205 L257 649 Z M438 859 C388 859 343 815 343 766 C343 731 368 707 404 707 C455 707 498 750 498 800 C498 834 472 859 438 859 L438 859 Z M431 832 C452 832 469 815 469 793 C469 763 439 734 409 734 C388 734 372 751 372 773 C372 802 402 832 431 832 L431 832 Z " />
<glyph glyph-name="uring" unicode="&#x16f;" horiz-adv-x="485" d="M417 387 L281 387 L277 369 L336 369 L300 200 C286 133 270 88 251 64 C227 32 189 13 150 13 C118 13 100 29 100 58 C100 72 103 93 108 117 L165 387 L29 387 L25 369 L85 369 L34 131 C29 106 26 85 26 72 C26 19 62 -10 130 -10 C188 -10 227 10 271 60 L258 0 L398 0 L402 18 L339 18 L417 387 Z M313 615 C263 615 218 571 218 522 C218 487 243 463 279 463 C329 463 373 506 373 556 C373 590 347 615 313 615 L313 615 Z M306 588 C328 588 344 571 344 549 C344 519 314 490 284 490 C263 490 247 507 247 529 C247 558 277 588 306 588 L306 588 Z " />
<glyph glyph-name="Uhungarumlaut" unicode="&#x170;" horiz-adv-x="610" d="M257 649 L339 649 L343 667 L90 667 L86 649 L163 649 L78 249 C68 201 63 163 63 138 C63 41 126 -10 243 -10 C328 -10 389 17 433 73 C461 110 477 149 492 222 L583 649 L652 649 L655 667 L488 667 L484 649 L560 649 L469 222 C454 150 446 128 427 98 C390 42 335 10 273 10 C197 10 150 53 150 123 C150 141 153 160 162 205 L257 649 Z M580 833 L446 731 C440 727 439 725 439 723 C439 721 440 720 442 720 C444 720 447 720 449 721 L657 813 C668 818 672 822 672 827 C672 831 669 833 660 833 L580 833 Z M423 833 L289 731 C285 728 283 725 283 723 C283 721 284 720 286 720 C288 720 290 720 292 721 L500 813 C511 818 515 822 515 827 C515 831 512 833 503 833 L423 833 Z " />
<glyph glyph-name="uhungarumlaut" unicode="&#x171;" horiz-adv-x="485" d="M417 387 L281 387 L277 369 L336 369 L300 200 C286 133 270 88 251 64 C227 32 189 13 150 13 C118 13 100 29 100 58 C100 72 103 93 108 117 L165 387 L29 387 L25 369 L85 369 L34 131 C29 106 26 85 26 72 C26 19 62 -10 130 -10 C188 -10 227 10 271 60 L258 0 L398 0 L402 18 L339 18 L417 387 Z M437 613 L311 470 C309 468 308 467 308 466 C308 464 309 463 310 463 C312 463 315 464 317 466 L496 595 C502 599 506 604 506 607 C506 611 503 613 495 613 L437 613 Z M307 613 L180 470 C179 468 178 467 178 466 C178 464 179 463 180 463 C182 463 185 464 187 466 L366 595 C372 599 376 604 376 607 C376 611 373 613 365 613 L307 613 Z " />
<glyph glyph-name="Uogonek" unicode="&#x172;" horiz-adv-x="610" d="M355 -127 C334 -134 320 -137 303 -137 C274 -137 260 -126 260 -102 C260 -62 283 -36 361 13 C434 54 471 112 492 222 L583 649 L652 649 L655 667 L488 667 L484 649 L560 649 L469 222 C454 150 446 128 427 98 C390 42 335 10 273 10 C197 10 150 53 150 123 C150 141 153 160 162 205 L257 649 L339 649 L343 667 L90 667 L86 649 L163 649 L78 249 C68 201 63 163 63 138 C63 42 126 -10 242 -10 C265 -10 287 -8 308 -4 C240 -30 204 -67 204 -111 C204 -144 227 -163 269 -163 C298 -163 321 -157 352 -141 L355 -127 Z " />
<glyph glyph-name="uogonek" unicode="&#x173;" horiz-adv-x="485" d="M398 0 L402 18 L339 18 L417 387 L281 387 L277 369 L336 369 L300 200 C286 133 270 88 251 64 C227 32 189 13 150 13 C118 13 100 29 100 58 C100 72 103 93 108 117 L165 387 L29 387 L25 369 L85 369 L34 131 C29 106 26 85 26 72 C26 19 62 -10 130 -10 C188 -10 227 10 271 60 L258 0 L319 0 C245 -29 209 -65 209 -108 C209 -141 232 -159 271 -159 C299 -159 321 -153 351 -138 L354 -124 C334 -132 321 -134 304 -134 C277 -134 263 -123 263 -100 C263 -62 288 -32 344 0 L398 0 Z " />
<glyph glyph-name="Wcircumflex" unicode="&#x174;" horiz-adv-x="745" d="M493 143 L453 431 L573 649 L626 649 L630 667 L61 667 L57 649 L113 649 L194 -10 L211 -10 L380 292 L418 -10 L435 -10 L772 649 L824 649 L828 667 L668 667 L665 649 L751 649 L493 143 Z M209 649 L332 649 L375 325 L270 135 L209 649 Z M422 649 L554 649 L450 467 L422 649 Z M491 769 L628 721 C630 720 630 720 632 720 C636 720 638 722 638 724 C638 726 637 727 634 730 L506 838 L331 730 C325 726 324 725 324 723 C324 721 325 720 328 720 C330 720 331 720 333 721 L491 769 Z " />
<glyph glyph-name="Ycircumflex" unicode="&#x176;" horiz-adv-x="524" d="M545 649 L610 649 L614 667 L433 667 L429 649 L521 649 L318 353 L209 649 L293 649 L297 667 L52 667 L48 649 L102 649 L222 312 L160 18 L65 18 L61 0 L344 0 L348 18 L253 18 L315 312 L545 649 Z M373 769 L510 721 C512 720 513 720 514 720 C518 720 520 722 520 724 C520 726 519 727 516 730 L388 838 L213 730 C207 726 206 725 206 723 C206 721 207 720 210 720 C212 720 214 720 215 721 L373 769 Z " />
<glyph glyph-name="ycircumflex" unicode="&#x177;" horiz-adv-x="393" d="M187 94 L137 369 L201 369 L205 387 L12 387 L8 369 L52 369 L133 -6 L49 -161 C28 -201 21 -208 8 -208 C2 -208 -2 -206 -5 -200 C-15 -180 -23 -174 -39 -174 C-67 -174 -92 -201 -92 -233 C-92 -258 -75 -274 -50 -274 C-8 -274 25 -244 65 -170 L359 369 L401 369 L405 387 L272 387 L268 369 L334 369 L187 94 Z M262 541 L379 465 C381 464 383 463 384 463 C387 463 389 465 389 467 C389 468 388 471 385 474 L278 617 L110 474 C104 469 103 468 103 466 C103 465 105 463 106 463 C108 463 110 464 112 465 L262 541 Z " />
<glyph glyph-name="Ydieresis" unicode="&#x178;" horiz-adv-x="524" d="M288 823 C257 823 228 795 228 765 C228 743 244 727 267 727 C298 727 327 755 327 785 C327 807 311 823 288 823 L288 823 Z M489 823 C458 823 429 795 429 765 C429 743 445 727 468 727 C499 727 528 755 528 785 C528 807 512 823 489 823 L489 823 Z M545 649 L610 649 L614 667 L433 667 L429 649 L521 649 L318 353 L209 649 L293 649 L297 667 L52 667 L48 649 L102 649 L222 312 L160 18 L65 18 L61 0 L344 0 L348 18 L253 18 L315 312 L545 649 Z " />
<glyph glyph-name="Zacute" unicode="&#x179;" horiz-adv-x="530" d="M417 0 L479 208 L466 208 C397 53 352 13 250 18 L66 18 L576 667 L149 667 L86 464 L99 464 C161 604 206 648 287 649 L460 649 L-37 24 L-42 0 L417 0 Z M487 833 L336 731 C331 727 329 725 329 723 C329 721 331 719 333 719 C334 719 336 720 339 721 L580 814 C590 818 595 822 595 827 C595 831 591 833 584 833 L487 833 Z " />
<glyph glyph-name="zacute" unicode="&#x17a;" horiz-adv-x="381" d="M277 0 L314 164 L301 164 C250 41 226 19 143 18 L58 18 L367 387 L70 387 L35 238 L48 238 C102 349 123 367 207 369 L263 369 L-42 0 L277 0 Z M355 613 L228 470 C226 468 226 467 226 466 C226 465 228 463 229 463 C230 463 231 464 234 466 L420 595 C426 598 430 604 430 607 C430 611 427 613 420 613 L355 613 Z " />
<glyph glyph-name="Zdotaccent" unicode="&#x17b;" horiz-adv-x="530" d="M417 0 L479 208 L466 208 C397 53 352 13 250 18 L66 18 L576 667 L149 667 L86 464 L99 464 C161 604 206 648 287 649 L460 649 L-37 24 L-42 0 L417 0 Z M404 827 C372 827 341 797 341 766 C341 742 358 725 382 725 C415 725 445 755 445 787 C445 810 428 827 404 827 L404 827 Z " />
<glyph glyph-name="zdotaccent" unicode="&#x17c;" horiz-adv-x="381" d="M277 0 L314 164 L301 164 C250 41 226 19 143 18 L58 18 L367 387 L70 387 L35 238 L48 238 C102 349 123 367 207 369 L263 369 L-42 0 L277 0 Z M274 587 C242 587 211 557 211 526 C211 502 228 485 252 485 C285 485 315 515 315 547 C315 570 298 587 274 587 L274 587 Z " />
<glyph glyph-name="Zcaron" unicode="&#x17d;" horiz-adv-x="530" d="M396 789 L259 838 L255 838 C251 838 249 837 249 834 C249 833 250 832 254 829 L382 720 L556 829 C561 831 563 833 563 835 C562 838 562 838 559 838 L554 838 L396 789 Z M417 0 L479 208 L466 208 C397 53 352 13 250 18 L66 18 L576 667 L149 667 L86 464 L99 464 C161 604 206 648 287 649 L460 649 L-37 24 L-42 0 L417 0 Z " />
<glyph glyph-name="zcaron" unicode="&#x17e;" horiz-adv-x="382" d="M264 539 L147 615 C145 616 144 617 142 617 C140 617 137 615 137 613 C137 612 138 610 141 606 L248 463 L416 606 C421 610 423 612 423 614 C423 615 421 617 420 617 C418 617 417 616 414 615 L264 539 Z M277 0 L314 164 L301 164 C250 41 226 19 143 18 L58 18 L367 387 L70 387 L35 238 L48 238 C102 349 123 367 207 369 L263 369 L-42 0 L277 0 Z " />
<glyph glyph-name="florin" unicode="&#x192;" horiz-adv-x="475" d="M253 302 L335 302 L343 320 L260 320 L316 459 C372 600 416 660 465 660 C474 660 479 656 479 651 C479 647 477 643 472 640 C456 627 451 618 451 604 C451 589 461 579 478 579 C507 579 531 604 531 635 C531 661 510 677 477 677 C387 677 291 575 226 413 L189 320 L107 320 L99 302 L182 302 L51 -27 C-3 -163 -6 -171 -24 -199 C-51 -242 -79 -263 -109 -263 C-121 -263 -129 -258 -129 -252 C-129 -249 -126 -244 -122 -237 C-113 -225 -109 -215 -109 -206 C-109 -193 -119 -183 -133 -183 C-157 -183 -180 -209 -180 -237 C-180 -264 -158 -280 -121 -280 C-71 -280 -26 -254 21 -197 C68 -141 104 -72 156 59 L253 302 Z " />
<glyph glyph-name="uni01CD" unicode="&#x1cd;" horiz-adv-x="576" d="M322 214 L344 18 L254 18 L250 0 L508 0 L512 18 L440 18 L370 667 L345 667 L-10 18 L-70 18 L-74 0 L94 0 L98 18 L14 18 L120 214 L322 214 Z M320 232 L130 232 L288 527 L320 232 Z M384 789 L247 838 L243 838 C239 838 237 837 237 834 C237 833 238 831 241 829 L369 720 L544 829 C549 832 551 833 551 835 C550 838 550 838 547 838 L542 838 L384 789 Z " />
<glyph glyph-name="uni01CE" unicode="&#x1ce;" horiz-adv-x="401" d="M229 215 C135 212 81 198 38 164 C3 136 -18 98 -18 60 C-18 16 12 -10 62 -10 C117 -10 157 14 198 71 C197 60 197 53 197 48 C197 10 217 -10 254 -10 C277 -10 289 -5 325 18 L319 30 C306 19 297 15 288 15 C276 15 269 22 269 32 L269 34 L272 57 L320 282 C323 296 324 309 324 323 C324 368 283 396 217 396 C131 396 53 343 53 285 C53 270 65 257 79 257 C102 257 123 281 123 309 C123 314 121 321 119 329 C117 334 116 338 116 341 C116 358 164 380 200 380 C233 380 252 365 252 340 C252 327 252 323 250 315 L229 215 Z M219 167 C208 119 199 94 182 72 C161 46 134 30 107 30 C80 30 62 49 62 77 C62 106 75 136 96 156 C127 186 161 198 226 200 L219 167 Z M264 539 L147 615 C145 616 144 617 142 617 C140 617 137 615 137 613 C137 612 138 610 141 606 L248 463 L416 606 C421 610 423 612 423 614 C423 615 421 617 420 617 C419 617 417 616 414 615 L264 539 Z " />
<glyph glyph-name="uni01D3" unicode="&#x1d3;" horiz-adv-x="610" d="M257 649 L339 649 L343 667 L90 667 L86 649 L163 649 L78 249 C68 201 63 163 63 138 C63 41 126 -10 243 -10 C328 -10 389 17 433 73 C461 110 477 149 492 222 L583 649 L652 649 L655 667 L488 667 L484 649 L560 649 L469 222 C454 150 446 128 427 98 C390 42 335 10 273 10 C197 10 150 53 150 123 C150 141 153 160 162 205 L257 649 Z M427 789 L290 838 L286 838 C282 838 280 837 280 834 C280 833 281 831 284 829 L413 720 L587 829 C592 832 594 833 594 835 C593 838 593 838 590 838 L585 838 L427 789 Z " />
<glyph glyph-name="uni01D4" unicode="&#x1d4;" horiz-adv-x="485" d="M417 387 L281 387 L277 369 L336 369 L300 200 C286 133 270 88 251 64 C227 32 189 13 150 13 C118 13 100 29 100 58 C100 72 103 93 108 117 L165 387 L29 387 L25 369 L85 369 L34 131 C29 106 26 85 26 72 C26 19 62 -10 130 -10 C188 -10 227 10 271 60 L258 0 L398 0 L402 18 L339 18 L417 387 Z M295 539 L178 615 C176 616 174 617 173 617 C170 617 168 615 168 613 C168 612 170 609 172 606 L279 463 L447 606 C451 609 453 612 453 614 C453 615 451 617 450 617 C449 617 447 616 445 615 L295 539 Z " />
<glyph glyph-name="Gcaron" unicode="&#x1e6;" horiz-adv-x="603" d="M575 667 L562 667 L521 625 C480 661 439 677 389 677 C290 677 185 610 113 500 C62 424 32 321 32 228 C32 191 38 158 51 124 C85 35 147 -10 235 -10 C308 -10 381 23 433 80 C462 112 479 144 504 212 L567 212 L571 230 L306 230 L302 212 L400 212 C387 151 380 127 368 102 C338 43 289 10 231 10 C165 10 124 51 124 118 C124 221 192 505 232 571 C266 627 319 657 381 657 C471 657 517 595 520 471 L533 471 L575 667 Z M406 789 L269 838 L265 838 C261 838 259 836 259 834 C259 833 260 832 264 829 L392 720 L566 829 C571 832 573 833 573 835 C573 837 572 838 569 838 L564 838 L406 789 Z " />
<glyph glyph-name="gcaron" unicode="&#x1e7;" horiz-adv-x="415" d="M61 18 C21 18 1 28 1 49 C1 73 29 100 88 133 C112 121 129 117 154 117 C250 117 332 195 332 287 C332 308 328 321 317 343 C332 356 341 361 350 361 C358 361 360 357 360 341 C360 325 368 315 381 315 C402 315 419 336 419 361 C419 380 406 391 384 391 C362 391 344 382 308 353 C281 385 256 397 214 397 C117 397 36 320 36 227 C36 192 46 171 74 144 C34 117 13 103 12 102 C-25 71 -44 35 -44 -2 C-44 -37 -27 -57 13 -69 C-53 -96 -81 -128 -81 -176 C-81 -234 -21 -274 65 -274 C196 -274 305 -172 305 -49 C305 2 280 18 202 18 L61 18 Z M239 228 C224 156 207 137 156 137 C123 137 107 150 107 178 C107 188 109 201 115 228 L128 288 C142 354 163 377 210 377 C244 377 260 365 260 339 C260 330 258 314 253 293 L239 228 Z M39 -70 L76 -70 L194 -70 C269 -70 279 -74 279 -101 C279 -121 267 -150 248 -173 C207 -225 145 -254 76 -254 C6 -254 -35 -223 -35 -168 C-35 -131 -18 -101 20 -70 L39 -70 Z M254 539 L137 615 C136 616 134 617 132 617 C130 617 128 615 128 613 C128 611 130 608 131 606 L238 463 L406 606 C411 610 413 612 413 614 C413 615 411 617 410 617 C409 617 407 616 404 615 L254 539 Z " />
<glyph glyph-name="Scommaaccent" unicode="&#x218;" horiz-adv-x="477" d="M468 676 L455 676 L416 633 C382 663 346 677 304 677 C190 677 84 559 84 433 C84 369 116 333 189 310 L258 290 C322 271 349 242 349 194 C349 93 270 10 175 10 C91 10 36 74 36 171 C36 182 36 190 38 207 L19 207 L-19 0 L-6 0 L39 56 C78 8 114 -10 170 -10 C237 -10 296 20 341 78 C386 134 412 207 412 275 C412 344 376 386 296 409 L249 423 C175 444 145 470 145 511 C145 587 218 657 298 657 C369 657 415 608 415 533 C415 527 415 518 413 503 L432 503 L468 676 Z M86 -276 C167 -224 206 -173 206 -120 C206 -81 182 -54 146 -54 C106 -54 74 -86 74 -125 C74 -147 87 -161 108 -161 C136 -161 155 -140 159 -105 C174 -113 179 -123 179 -140 C179 -178 151 -212 77 -264 L86 -276 Z " />
<glyph glyph-name="scommaaccent" unicode="&#x219;" horiz-adv-x="338" d="M299 395 L286 395 L266 359 C238 386 214 397 181 397 C104 397 39 329 39 249 C39 201 61 173 106 164 L176 148 C207 141 223 125 223 101 C223 54 172 10 119 10 C61 10 26 56 26 132 L26 148 L10 148 L-21 0 L-11 0 L18 38 C50 2 74 -10 113 -10 C194 -10 264 66 264 156 C264 208 240 234 180 248 L140 257 C96 266 77 279 77 297 C77 338 124 377 173 377 C224 377 259 342 259 290 L259 280 L274 280 L299 395 Z M30 -260 C106 -213 145 -164 145 -115 C145 -79 120 -54 85 -54 C46 -54 14 -84 14 -121 C14 -143 27 -156 49 -156 C77 -156 95 -136 99 -103 C113 -110 118 -119 118 -135 C118 -169 91 -201 21 -248 L30 -260 Z " />
<glyph glyph-name="uni021A" unicode="&#x21a;" horiz-adv-x="554" d="M567 459 L599 667 L90 667 L39 459 L51 457 C84 536 104 568 146 612 C176 641 196 648 253 649 L298 649 L165 18 L70 18 L66 0 L344 0 L348 18 L258 18 L392 649 L437 649 C522 648 548 604 554 457 L567 459 Z M130 -276 C211 -224 251 -173 251 -120 C251 -81 226 -54 190 -54 C150 -54 118 -86 118 -125 C118 -147 131 -161 152 -161 C181 -161 200 -140 204 -105 C219 -113 224 -123 224 -140 C224 -178 196 -212 121 -264 L130 -276 Z " />
<glyph glyph-name="uni021B" unicode="&#x21b;" horiz-adv-x="274" d="M160 369 L262 369 L266 387 L164 387 L198 546 L189 546 C156 479 80 402 29 384 L26 369 L84 369 L28 107 C23 84 21 69 21 58 C21 15 51 -10 105 -10 C158 -10 196 18 219 74 L200 74 C184 36 164 20 135 20 C111 20 97 32 97 54 C97 65 98 75 100 85 L160 369 Z M7 -260 C84 -212 122 -164 122 -115 C122 -79 97 -54 62 -54 C23 -54 -9 -84 -9 -121 C-9 -143 4 -156 26 -156 C54 -156 72 -136 77 -103 C90 -110 95 -119 95 -135 C95 -169 67 -201 -2 -248 L7 -260 Z " />
<glyph glyph-name="circumflex" unicode="&#x2c6;" horiz-adv-x="489" d="M289 541 L406 465 C408 464 409 463 411 463 C413 463 415 465 415 467 C415 469 413 472 412 474 L305 617 L137 474 C132 470 130 468 130 466 C130 465 132 463 133 463 C134 463 136 464 139 465 L289 541 Z " />
<glyph glyph-name="caron" unicode="&#x2c7;" horiz-adv-x="489" d="M288 539 L171 615 C169 616 167 617 166 617 C163 617 161 615 161 613 C161 612 162 609 165 606 L272 463 L440 606 C444 609 446 612 446 614 C446 615 444 617 443 617 C442 617 440 616 438 615 L288 539 Z " />
<glyph glyph-name="uni02C9" unicode="&#x2c9;" horiz-adv-x="489" d="M416 499 L422 523 L148 523 L143 499 L416 499 Z " />
<glyph glyph-name="breve" unicode="&#x2d8;" horiz-adv-x="488" d="M423 610 C409 580 400 568 385 554 C362 534 323 521 284 521 C245 521 211 534 197 554 C188 567 184 580 183 610 L171 610 C170 598 170 593 170 587 C170 516 212 467 272 467 C341 467 404 523 435 610 L423 610 Z " />
<glyph glyph-name="dotaccent" unicode="&#x2d9;" horiz-adv-x="480" d="M294 587 C262 587 231 557 231 525 C231 502 248 485 272 485 C305 485 335 515 335 547 C335 570 318 587 294 587 L294 587 Z " />
<glyph glyph-name="ring" unicode="&#x2da;" horiz-adv-x="483" d="M303 615 C253 615 208 571 208 522 C208 487 233 463 269 463 C320 463 363 506 363 556 C363 590 337 615 303 615 L303 615 Z M296 588 C317 588 334 571 334 549 C334 519 304 490 274 490 C253 490 237 507 237 529 C237 558 267 588 296 588 L296 588 Z " />
<glyph glyph-name="ogonek" unicode="&#x2db;" horiz-adv-x="475" d="M291 0 C217 -29 180 -65 180 -108 C180 -141 203 -159 242 -159 C270 -159 292 -153 322 -138 L325 -124 C305 -132 292 -134 275 -134 C248 -134 234 -123 234 -100 C234 -63 260 -30 315 0 L291 0 Z " />
<glyph glyph-name="tilde" unicode="&#x2dc;" horiz-adv-x="490" d="M436 572 C415 549 397 541 370 541 C357 541 344 544 330 549 L293 563 C274 571 263 573 247 573 C200 573 171 554 131 499 L139 493 C159 515 179 524 206 524 C222 524 237 521 253 515 L289 502 C305 496 323 492 335 492 C370 492 403 514 445 567 L436 572 Z " />
<glyph glyph-name="hungarumlaut" unicode="&#x2dd;" horiz-adv-x="483" d="M429 613 L303 470 C301 468 300 467 300 466 C300 464 301 463 302 463 C304 463 307 464 309 466 L488 595 C494 599 498 604 498 607 C498 611 495 613 487 613 L429 613 Z M299 613 L172 470 C171 468 170 467 170 465 C170 464 171 463 172 463 C174 463 177 464 179 466 L358 595 C364 599 368 604 368 607 C368 611 364 613 357 613 L299 613 Z " />
<glyph glyph-name="Wdieresis" unicode="&#x1e84;" horiz-adv-x="745" d="M493 143 L453 431 L573 649 L626 649 L630 667 L61 667 L57 649 L113 649 L194 -10 L211 -10 L380 292 L418 -10 L435 -10 L772 649 L824 649 L828 667 L668 667 L665 649 L751 649 L493 143 Z M209 649 L332 649 L375 325 L270 135 L209 649 Z M422 649 L554 649 L450 467 L422 649 Z M403 823 C372 823 343 795 343 765 C343 743 359 727 382 727 C413 727 442 755 442 785 C442 807 426 823 403 823 L403 823 Z M604 823 C573 823 544 795 544 765 C544 743 560 727 583 727 C614 727 643 755 643 785 C643 807 627 823 604 823 L604 823 Z " />
<glyph glyph-name="uni2011" unicode="&#x2011;" horiz-adv-x="179" d="M157 230 L-22 230 L-35 170 L144 170 L157 230 Z " />
<glyph glyph-name="figuredash" unicode="&#x2012;" horiz-adv-x="475" d="M414 230 L18 230 L5 170 L401 170 L414 230 Z " />
<glyph glyph-name="endash" unicode="&#x2013;" horiz-adv-x="475" d="M414 230 L18 230 L5 170 L401 170 L414 230 Z " />
<glyph glyph-name="emdash" unicode="&#x2014;" horiz-adv-x="538" d="M516 230 L-22 230 L-35 170 L503 170 L516 230 Z " />
<glyph glyph-name="afii00208" unicode="&#x2015;" horiz-adv-x="538" d="M516 230 L-22 230 L-35 170 L503 170 L516 230 Z " />
<glyph glyph-name="quoteleft" unicode="&#x2018;" horiz-adv-x="246" d="M218 687 C134 625 88 558 88 496 C88 453 114 423 152 423 C194 423 229 459 229 503 C229 527 216 542 193 542 C164 542 144 519 139 479 C122 489 116 500 116 521 C116 565 150 611 227 675 L218 687 Z " />
<glyph glyph-name="quoteright" unicode="&#x2019;" horiz-adv-x="246" d="M120 413 C204 475 249 542 249 605 C249 647 223 677 185 677 C143 677 108 641 108 597 C108 573 122 558 144 558 C173 558 193 581 199 621 C215 611 221 600 221 579 C221 535 188 489 110 425 L120 413 Z " />
<glyph glyph-name="quotesinglbase" unicode="&#x201a;" horiz-adv-x="238" d="M-3 -152 C79 -88 122 -22 122 40 C122 83 98 112 62 112 C22 112 -12 75 -12 31 C-12 7 1 -7 22 -7 C50 -7 69 16 75 56 C89 46 94 36 94 16 C94 -29 63 -75 -12 -140 L-3 -152 Z " />
<glyph glyph-name="quotedblleft" unicode="&#x201c;" horiz-adv-x="448" d="M420 687 C336 625 290 558 290 496 C290 453 316 423 354 423 C396 423 431 459 431 503 C431 527 418 542 396 542 C366 542 346 519 341 479 C324 489 318 500 318 521 C318 565 352 611 430 675 L420 687 Z M218 687 C134 625 88 558 88 496 C88 453 114 423 152 423 C194 423 229 459 229 503 C229 527 216 542 193 542 C164 542 144 519 139 479 C122 489 116 500 116 521 C116 565 150 611 227 675 L218 687 Z " />
<glyph glyph-name="quotedblright" unicode="&#x201d;" horiz-adv-x="448" d="M120 413 C204 475 249 542 249 605 C249 647 223 677 185 677 C143 677 108 641 108 597 C108 573 122 558 144 558 C173 558 193 581 199 621 C215 611 221 600 221 579 C221 535 188 489 110 425 L120 413 Z M322 413 C406 475 451 542 451 605 C451 647 425 677 387 677 C345 677 310 641 310 597 C310 573 324 558 346 558 C375 558 396 581 401 621 C417 611 423 600 423 579 C423 535 389 489 312 425 L322 413 Z " />
<glyph glyph-name="quotedblbase" unicode="&#x201e;" horiz-adv-x="441" d="M-3 -152 C79 -88 122 -22 122 40 C122 83 98 112 62 112 C22 112 -12 75 -12 31 C-12 7 1 -7 22 -7 C50 -7 69 16 75 56 C89 46 94 36 94 16 C94 -29 63 -75 -12 -140 L-3 -152 Z M199 -152 C281 -89 325 -22 325 40 C325 83 300 112 264 112 C224 112 190 75 190 31 C190 7 203 -7 224 -7 C252 -7 271 16 277 56 C292 46 297 36 297 16 C297 -29 266 -75 190 -140 L199 -152 Z " />
<glyph glyph-name="dagger" unicode="&#x2020;" horiz-adv-x="475" d="M253 376 L405 339 C411 337 414 337 423 337 C457 337 485 362 485 393 C485 415 468 429 442 429 C435 429 430 429 424 427 L256 388 L316 531 C334 572 344 613 344 640 C344 665 332 677 310 677 C267 677 242 624 242 531 L241 388 L90 427 C85 428 80 429 73 429 C38 429 10 404 10 373 C10 351 27 337 52 337 C63 337 64 337 71 339 L239 376 L131 17 C101 -73 92 -110 92 -142 C92 -170 106 -190 125 -190 C147 -190 171 -167 182 -135 C195 -99 201 -65 209 17 L253 376 Z " />
<glyph glyph-name="daggerdbl" unicode="&#x2021;" horiz-adv-x="475" d="M246 407 L94 446 C88 448 81 449 77 449 C42 449 14 424 14 393 C14 370 31 356 57 356 C64 356 69 356 75 358 L243 395 C234 356 215 309 187 255 L187 230 C187 200 187 200 182 113 L182 109 L31 148 C25 149 20 150 14 150 C-21 150 -49 125 -49 94 C-49 71 -33 57 -7 57 C-2 57 6 58 12 59 L179 96 L123 -43 C96 -112 92 -125 92 -152 C92 -177 104 -190 127 -190 C149 -190 166 -177 177 -152 C188 -127 190 -113 192 -43 L195 96 L346 59 C353 58 359 57 364 57 C398 57 426 82 426 113 C426 136 409 150 383 150 C377 150 371 149 365 148 L198 109 L199 113 L211 146 C224 180 232 201 235 209 C242 226 246 234 255 255 C253 278 252 292 252 310 C252 336 254 360 257 395 L410 358 C415 357 420 356 427 356 C462 356 490 381 490 412 C490 435 474 449 447 449 C443 449 435 448 429 446 L261 407 L314 531 C335 581 345 615 345 638 C345 663 333 677 310 677 C265 677 245 632 245 531 L246 407 Z " />
<glyph glyph-name="bullet" unicode="&#x2022;" horiz-adv-x="633" d="M349 480 C264 480 184 397 184 309 C184 245 227 200 287 200 C373 200 452 282 452 371 C452 435 409 480 349 480 L349 480 Z " />
<glyph glyph-name="ellipsis" unicode="&#x2026;" horiz-adv-x="703" d="M70 107 C35 107 2 73 2 38 C2 12 20 -7 44 -7 C80 -7 112 26 112 63 C112 88 94 107 70 107 L70 107 Z M304 107 C269 107 236 73 236 38 C236 12 254 -7 279 -7 C314 -7 347 26 347 63 C347 88 329 107 304 107 L304 107 Z M539 107 C504 107 471 73 471 38 C471 12 489 -7 513 -7 C549 -7 581 26 581 63 C581 88 563 107 539 107 L539 107 Z " />
<glyph glyph-name="perthousand" unicode="&#x2030;" horiz-adv-x="957" d="M226 653 C142 653 55 548 55 445 C55 372 96 319 153 319 C238 319 324 423 324 526 C324 601 284 653 226 653 L226 653 Z M244 451 C226 366 204 337 159 337 C126 337 112 352 112 388 C112 404 115 424 121 451 L135 521 C153 606 175 635 221 635 C253 635 267 620 267 584 C267 568 264 548 259 521 L244 451 Z M550 647 L522 647 L99 0 L127 0 L550 647 Z M498 327 C414 327 328 222 328 119 C328 47 369 -6 425 -6 C508 -6 594 98 594 201 C594 275 555 327 498 327 L498 327 Z M514 126 C496 42 474 13 430 13 C399 13 385 28 385 62 C385 77 388 97 394 126 L409 196 C427 280 448 309 492 309 C524 309 537 294 537 259 C537 243 534 223 528 196 L514 126 Z M800 327 C716 327 629 222 629 120 C629 47 670 -6 727 -6 C812 -6 898 98 898 200 C898 275 858 327 800 327 L800 327 Z M818 126 C800 41 778 12 732 12 C700 12 686 27 686 63 C686 78 689 99 695 126 L709 196 C727 280 749 309 794 309 C827 309 841 294 841 258 C841 243 838 223 832 196 L818 126 Z " />
<glyph glyph-name="guilsinglleft" unicode="&#x2039;" horiz-adv-x="248" d="M16 200 L100 96 L147 96 L64 200 L191 304 L144 304 L16 200 Z " />
<glyph glyph-name="guilsinglright" unicode="&#x203a;" horiz-adv-x="248" d="M175 200 L92 304 L44 304 L127 200 L0 96 L48 96 L175 200 Z " />
<glyph glyph-name="uni203E" unicode="&#x203e;" horiz-adv-x="500" d="M110 847 L101 807 L601 807 L610 847 L110 847 Z " />
<glyph glyph-name="fraction" unicode="&#x2044;" horiz-adv-x="108" d="M280 647 L248 647 L-175 0 L-143 0 L280 647 Z " />
<glyph glyph-name="franc" unicode="&#x20a3;" horiz-adv-x="688" d="M553 667 L103 667 L99 649 L181 649 L47 18 L-35 18 L-39 0 L221 0 L225 18 L141 18 L207 329 L260 329 C325 329 347 312 347 259 C347 248 346 238 344 227 L339 205 L352 205 L410 475 L396 475 L393 457 C367 362 350 347 265 347 L210 347 L274 649 L377 649 C427 649 461 640 478 624 C500 601 514 559 514 513 C514 505 514 494 513 475 L525 475 L553 667 Z M555 357 L415 357 L411 339 L474 339 L406 18 L343 18 L339 0 L542 0 L546 18 L483 18 L501 105 C520 191 535 233 564 280 C585 314 604 331 619 331 C624 331 629 327 629 322 C629 320 629 317 628 314 C627 307 626 298 626 292 C626 275 635 264 650 264 C676 264 698 293 698 327 C698 352 683 367 657 367 C612 367 579 338 534 257 L555 357 Z " />
<glyph glyph-name="Euro" unicode="&#x20ac;" horiz-adv-x="678" d="M108 350 C105 338 102 325 101 317 L56 317 L38 287 L96 287 C94 267 93 253 93 237 C93 96 181 -10 300 -10 C354 -10 402 7 472 50 L492 0 L505 0 L544 185 L532 185 C463 62 395 10 308 10 C235 10 185 57 185 128 C185 157 194 220 208 287 L412 287 L431 317 L214 317 L215 320 L217 330 L219 340 L222 350 L452 350 L470 380 L229 380 C247 460 250 472 265 512 C298 606 364 657 452 657 C501 657 543 636 568 599 C588 569 595 544 597 494 L610 494 L647 667 L634 667 L592 617 C548 659 509 677 456 677 C313 677 173 554 117 380 L70 380 L51 350 L108 350 Z " />
<glyph glyph-name="trademark" unicode="&#x2122;" horiz-adv-x="777" d="M375 544 L394 667 L92 667 L61 544 L75 542 C109 623 140 652 188 649 L211 649 L138 305 L82 305 L79 287 L248 287 L252 305 L200 305 L273 649 L295 649 C342 649 356 625 361 542 L375 544 Z M503 287 L519 287 L691 625 L623 305 L579 305 L575 287 L729 287 L733 305 L685 305 L758 649 L806 649 L810 667 L694 667 L556 397 L532 667 L415 667 L411 649 L455 649 L382 305 L338 305 L334 287 L446 287 L450 305 L404 305 L472 628 L503 287 Z " />
<glyph glyph-name="uni2126" unicode="&#x2126;" horiz-adv-x="768" d="M326 0 L308 155 C230 199 180 288 180 383 C180 434 196 493 221 540 C257 605 316 642 385 642 C454 642 513 605 549 540 C575 493 590 435 590 381 C590 288 540 199 462 155 L444 0 L736 0 L736 153 L712 153 C704 108 684 90 643 90 L497 90 L500 128 C535 141 557 151 580 166 C657 215 702 296 702 382 C702 449 673 522 625 578 C564 648 480 686 385 686 C290 686 206 648 145 578 C97 522 68 448 68 382 C68 296 114 215 190 166 C213 151 234 141 270 128 L273 90 L127 90 C86 90 66 108 58 153 L34 153 L34 0 L326 0 Z " />
<glyph glyph-name="partialdiff" unicode="&#x2202;" horiz-adv-x="494" d="M107 674 C151 697 184 706 219 706 C321 706 379 611 379 448 C379 418 377 395 372 346 C308 396 272 412 221 412 C172 412 131 394 95 355 C51 309 26 246 26 184 C26 76 109 -10 213 -10 C282 -10 341 23 383 84 C429 152 462 286 462 403 C462 519 428 611 360 681 C312 730 259 753 194 753 C155 753 122 746 66 725 L107 674 Z M366 312 C350 201 340 158 314 107 C288 54 245 21 201 21 C147 21 113 74 113 159 C113 273 180 367 261 367 C299 367 324 354 366 312 L366 312 Z " />
<glyph glyph-name="Delta" unicode="&#x2206;" horiz-adv-x="612" d="M6 0 L608 0 L327 688 L6 0 Z M77 51 L290 509 L479 51 L77 51 Z " />
<glyph glyph-name="product" unicode="&#x220f;" horiz-adv-x="823" d="M25 -124 L315 -124 L315 -98 L312 -98 C242 -94 221 -67 224 18 L224 594 C224 656 228 677 242 690 C260 707 271 708 413 708 C557 708 567 707 586 690 C600 677 604 656 604 594 L604 18 C607 -67 586 -94 516 -98 L513 -98 L513 -124 L803 -124 L803 -98 L800 -98 C730 -94 709 -67 712 18 L712 609 C709 694 730 721 800 725 L803 725 L803 751 L25 751 L25 725 L28 725 C98 721 119 694 116 609 L116 18 C119 -67 98 -94 28 -98 L25 -98 L25 -124 Z " />
<glyph glyph-name="summation" unicode="&#x2211;" horiz-adv-x="713" d="M176 711 L444 711 C560 710 590 688 606 587 L632 587 L622 752 L23 752 L256 285 L14 -123 L641 -123 L695 87 L669 87 C639 7 605 -12 491 -11 L163 -11 L364 341 L176 711 Z " />
<glyph glyph-name="minus" unicode="&#x2212;" horiz-adv-x="475" d="M427 339 L49 339 L43 309 L421 309 L427 339 Z " />
<glyph glyph-name="uni2215" unicode="&#x2215;" horiz-adv-x="108" d="M280 647 L248 647 L-175 0 L-143 0 L280 647 Z " />
<glyph glyph-name="uni2219" unicode="&#x2219;" horiz-adv-x="234" d="M102 257 C67 257 34 224 34 188 C34 162 52 143 76 143 C111 143 144 177 144 213 C144 238 126 257 102 257 L102 257 Z " />
<glyph glyph-name="radical" unicode="&#x221a;" horiz-adv-x="549" d="M363 -35 L515 908 L480 913 L353 123 L156 520 L10 449 L26 414 L121 461 L363 -35 Z " />
<glyph glyph-name="infinity" unicode="&#x221e;" horiz-adv-x="713" d="M357 227 C415 156 485 115 549 115 C631 115 688 176 688 266 C688 354 629 414 543 414 C476 414 412 376 357 303 C300 375 234 414 171 414 C87 414 26 351 26 263 C26 176 84 115 167 115 C224 115 281 142 327 192 L357 227 Z M391 264 C434 325 493 362 546 362 C600 362 638 321 638 264 C638 205 603 167 549 167 C495 167 461 188 391 264 L391 264 Z M324 266 C276 204 215 167 163 167 C111 167 76 208 76 266 C76 323 113 362 167 362 C218 362 258 338 324 266 L324 266 Z " />
<glyph glyph-name="integral" unicode="&#x222b;" horiz-adv-x="274" d="M180 576 C180 653 179 691 176 746 C174 774 173 800 173 815 C173 855 184 878 202 878 C208 878 213 876 215 872 C232 845 239 839 256 839 C276 839 291 853 291 871 C291 898 267 916 231 916 C186 916 152 887 138 838 C123 784 113 682 113 577 L113 232 C113 160 114 124 117 63 C119 34 120 4 120 -12 C120 -47 108 -70 89 -70 C81 -70 75 -65 68 -52 C59 -35 51 -30 37 -30 C17 -30 2 -44 2 -63 C2 -89 26 -107 62 -107 C107 -107 141 -79 155 -29 C170 25 180 126 180 232 L180 576 Z " />
<glyph glyph-name="approxequal" unicode="&#x2248;" horiz-adv-x="549" d="M489 251 C444 199 423 187 384 187 C365 187 354 190 285 211 C212 234 188 239 160 239 C101 239 54 212 14 155 L57 121 C103 174 120 184 159 184 C180 184 180 184 271 157 C350 133 354 132 385 132 C449 132 496 160 527 217 L489 251 Z M489 408 C444 356 423 344 384 344 C365 344 354 347 285 369 C211 392 188 397 160 397 C101 397 54 369 14 312 L57 279 C104 332 119 342 159 342 C181 342 181 342 271 315 C351 290 354 289 385 289 C449 289 496 318 527 375 L489 408 Z " />
<glyph glyph-name="notequal" unicode="&#x2260;" horiz-adv-x="549" d="M187 142 L115 -1 L161 -25 L246 142 L540 142 L540 197 L273 197 L344 336 L540 336 L540 391 L371 391 L439 525 L392 549 L312 391 L15 391 L15 336 L285 336 L215 197 L15 197 L15 142 L187 142 Z " />
<glyph glyph-name="lessequal" unicode="&#x2264;" horiz-adv-x="549" d="M467 55 L-30 55 L-42 0 L455 0 L467 55 Z M591 639 L44 405 L32 350 L480 117 L493 179 L117 378 L578 577 L591 639 Z " />
<glyph glyph-name="greaterequal" unicode="&#x2265;" horiz-adv-x="549" d="M467 55 L-30 55 L-42 0 L455 0 L467 55 Z M94 639 L81 577 L457 378 L-4 179 L-17 117 L529 350 L541 405 L94 639 Z " />
<glyph glyph-name="lozenge" unicode="&#x25ca;" horiz-adv-x="494" d="M209 0 L269 -1 L466 374 L277 740 L214 740 L18 377 L209 0 Z M240 58 L81 376 L245 683 L402 373 L240 58 Z " />
<glyph glyph-name="fi" unicode="&#xfb01;" horiz-adv-x="495" d="M186 387 L218 540 C236 624 277 663 348 663 C376 663 397 657 414 644 C393 627 382 606 382 582 C382 560 398 544 421 544 C453 544 480 573 480 607 C480 651 430 682 360 682 C287 682 218 650 176 597 C155 569 141 537 132 495 L109 387 L26 387 L22 369 L105 369 L31 18 L-52 18 L-56 0 L163 0 L167 18 L107 18 L182 369 L345 369 L271 18 L211 18 L207 0 L407 0 L411 18 L347 18 L426 387 L186 387 Z " />
<glyph glyph-name="fl" unicode="&#xfb02;" horiz-adv-x="495" d="M347 18 L488 680 L409 671 C386 679 369 682 345 682 C237 682 157 612 132 495 L109 387 L26 387 L22 369 L105 369 L31 18 L-52 18 L-56 0 L163 0 L167 18 L107 18 L182 369 L268 369 L272 387 L186 387 L218 540 C236 622 274 663 333 663 C373 663 392 645 392 609 C392 594 390 578 383 549 L271 18 L211 18 L207 0 L416 0 L420 18 L347 18 Z " />
</font>
</svg>
