<?xml version="1.0" encoding="UTF-8"?>
<svg xmlns="http://www.w3.org/2000/svg" xmlns:xlink="http://www.w3.org/1999/xlink" version="1.2" >
<font id="Clarendon URW Extra Wide Extra Bold Oblique">
<font-face  font-family="Clarendon URW Extra Wide" units-per-em="1000" ascent="667" descent="-333" font-style="italic" font-weight="800" font-stretch="normal" cap-height="667" x-height="469" underline-position="-48" underline-thickness="113" />
<missing-glyph  horiz-adv-x="250" d="" />
<glyph glyph-name="NULL" d="" />
<glyph glyph-name="CR" unicode="&#xd;" horiz-adv-x="250" d="" />
<glyph glyph-name="space" unicode="&#x20;" horiz-adv-x="250" d="" />
<glyph glyph-name="exclam" unicode="&#x21;" horiz-adv-x="382" d="M255 207 C279 283 293 323 315 376 C382 539 388 556 388 596 C388 655 356 687 297 687 C254 687 214 667 189 633 C161 595 149 548 149 466 C148 320 148 313 136 207 L255 207 Z M190 166 C125 166 67 116 67 59 C67 13 100 -17 150 -17 C212 -17 271 36 271 91 C271 134 237 166 190 166 L190 166 Z " />
<glyph glyph-name="quotedbl" unicode="&#x22;" horiz-adv-x="495" d="M205 399 L296 667 L98 667 L75 399 L205 399 Z M449 399 L540 667 L342 667 L319 399 L449 399 Z " />
<glyph glyph-name="numbersign" unicode="&#x23;" horiz-adv-x="706" d="M644 299 L532 299 L564 381 L674 381 L718 498 L609 498 L674 667 L528 667 L462 498 L366 498 L434 667 L289 667 L224 498 L114 498 L70 381 L180 381 L148 299 L37 299 L-8 182 L103 182 L32 0 L175 0 L246 182 L340 182 L267 0 L417 0 L488 182 L599 182 L644 299 Z M417 381 L385 299 L292 299 L324 381 L417 381 Z " />
<glyph glyph-name="dollar" unicode="&#x24;" horiz-adv-x="710" d="M222 -112 L298 -112 L321 -3 C440 6 497 23 553 68 C605 110 633 164 633 221 C633 269 609 308 565 331 C528 350 503 358 402 380 L434 528 C480 526 492 523 521 509 C484 487 469 466 469 438 C469 405 501 382 547 382 C612 382 664 430 664 490 C664 530 640 561 595 580 C557 596 526 601 450 606 L465 677 L389 677 L374 605 C280 597 226 580 170 543 C104 499 65 437 65 374 C65 337 78 310 108 287 C137 263 173 251 293 222 L261 71 L250 71 C192 71 176 74 137 97 C183 109 206 133 206 169 C206 203 172 228 125 228 C58 228 3 178 3 117 C3 73 27 41 75 22 C120 4 155 -1 245 -3 L222 -112 Z M330 396 C264 407 244 419 244 449 C244 494 283 521 357 526 L330 396 Z M365 204 C432 193 460 175 460 146 C460 128 446 108 424 95 C405 82 385 78 337 74 L365 204 Z " />
<glyph glyph-name="percent" unicode="&#x25;" horiz-adv-x="1054" d="M188 -17 L293 -17 L846 623 L743 623 L188 -17 Z M305 622 C160 622 48 518 48 383 C48 297 118 240 223 240 C368 240 479 344 479 479 C479 565 410 622 305 622 L305 622 Z M288 547 C333 547 353 528 353 484 C353 442 339 387 320 358 C301 328 277 315 240 315 C194 315 175 334 175 380 C175 422 189 475 208 504 C228 534 252 547 288 547 L288 547 Z M814 365 C669 365 557 261 557 126 C557 40 627 -17 732 -17 C877 -17 988 87 988 222 C988 308 918 365 814 365 L814 365 Z M796 290 C842 290 862 271 862 227 C862 185 848 130 829 101 C810 70 786 58 748 58 C702 58 683 77 683 123 C683 165 697 218 716 247 C736 277 760 290 796 290 L796 290 Z " />
<glyph glyph-name="ampersand" unicode="&#x26;" horiz-adv-x="956" d="M800 230 C790 187 784 169 771 149 C752 118 721 98 693 98 C671 98 654 109 627 138 C671 179 692 200 712 225 C779 313 789 319 881 329 L899 415 L587 415 L569 329 C623 327 643 321 643 309 C643 288 622 262 564 212 C526 255 493 310 464 379 C528 414 571 447 591 477 C610 505 621 539 621 570 C621 644 561 687 459 687 C323 687 224 608 224 499 C224 473 229 451 246 406 C139 367 96 341 54 293 C18 252 -3 197 -3 145 C-3 34 74 -20 230 -20 C313 -20 366 -8 465 35 C497 13 513 5 535 -2 C572 -14 612 -20 649 -20 C736 -20 810 15 852 75 C882 119 897 159 911 230 L800 230 Z M418 473 C403 499 398 513 398 531 C398 569 424 597 459 597 C484 597 499 583 499 559 C499 522 474 495 418 473 L418 473 Z M278 301 C330 191 348 163 391 112 C348 94 327 89 300 89 C234 89 186 130 186 187 C186 235 208 262 278 301 L278 301 Z " />
<glyph glyph-name="quotesingle" unicode="&#x27;" horiz-adv-x="257" d="M210 399 L301 667 L98 667 L75 399 L210 399 Z " />
<glyph glyph-name="parenleft" unicode="&#x28;" horiz-adv-x="470" d="M521 687 C430 677 387 667 336 644 C224 593 146 507 93 377 C58 290 34 177 34 92 C34 -7 60 -73 121 -128 C173 -176 225 -193 333 -196 L351 -111 C309 -101 290 -91 273 -72 C246 -41 230 9 230 64 C230 139 250 258 279 351 C309 446 343 505 393 550 C424 578 446 589 503 601 L521 687 Z " />
<glyph glyph-name="parenright" unicode="&#x29;" horiz-adv-x="470" d="M-91 -196 C0 -186 43 -176 94 -153 C206 -102 284 -16 337 114 C372 201 396 314 396 398 C396 497 370 564 309 619 C257 667 205 683 96 687 L78 602 C120 591 140 582 157 563 C184 531 200 481 200 426 C200 352 179 233 151 140 C121 45 87 -14 37 -60 C6 -88 -16 -98 -73 -110 L-91 -196 Z " />
<glyph glyph-name="asterisk" unicode="&#x2a;" horiz-adv-x="563" d="M302 483 C270 507 262 516 244 553 C222 597 212 606 182 606 C142 606 103 570 103 532 C103 508 123 490 151 489 C226 487 248 483 287 464 C247 448 228 444 181 441 C127 438 114 435 98 425 C80 413 69 394 69 373 C69 343 91 322 122 322 C152 322 163 329 205 376 C242 415 260 428 296 445 C286 414 276 395 247 355 C212 308 209 303 209 282 C209 258 230 242 262 242 C305 242 340 271 340 307 C340 318 337 328 328 353 C318 378 315 393 315 411 C315 419 316 433 318 447 C343 430 351 420 376 377 C393 345 393 345 396 341 C406 327 418 321 436 321 C477 321 516 358 516 398 C516 410 512 419 504 426 C491 437 484 439 433 441 C387 444 365 449 332 465 C367 479 386 484 440 488 C499 491 504 492 521 505 C539 517 550 536 550 556 C550 585 528 607 499 607 C469 607 457 599 415 553 C379 515 360 501 324 483 C339 525 350 546 373 575 C408 619 411 624 411 642 C411 670 390 687 356 687 C313 687 280 659 280 623 C280 612 282 606 293 576 C301 554 305 535 305 516 C305 509 304 496 302 483 L302 483 Z " />
<glyph glyph-name="plus" unicode="&#x2b;" horiz-adv-x="710" d="M98 387 L69 252 L269 252 L234 87 L371 87 L406 252 L606 252 L635 387 L434 387 L469 552 L333 552 L298 387 L98 387 Z " />
<glyph glyph-name="comma" unicode="&#x2c;" horiz-adv-x="355" d="M-27 -131 C39 -123 74 -112 118 -83 C186 -40 227 23 227 80 C227 132 189 166 131 166 C64 166 7 115 7 56 C7 17 33 -8 73 -8 C80 -8 89 -7 99 -6 C68 -50 51 -59 -14 -68 L-27 -131 Z " />
<glyph glyph-name="hyphen" unicode="&#x2d;" horiz-adv-x="319" d="M-38 154 L281 154 L314 312 L-5 312 L-38 154 Z " />
<glyph glyph-name="period" unicode="&#x2e;" horiz-adv-x="355" d="M143 166 C78 166 20 116 20 59 C20 13 53 -17 103 -17 C165 -17 224 36 224 91 C224 134 190 166 143 166 L143 166 Z " />
<glyph glyph-name="slash" unicode="&#x2f;" horiz-adv-x="437" d="M20 -92 L468 686 L367 686 L-80 -92 L20 -92 Z " />
<glyph glyph-name="zero" unicode="0" horiz-adv-x="710" d="M413 622 C299 622 190 574 113 490 C50 421 11 317 11 216 C11 77 118 -17 278 -17 C393 -17 499 30 578 116 C641 184 680 289 680 387 C680 528 573 622 413 622 L413 622 Z M391 525 C448 525 472 495 472 426 C472 353 442 222 412 163 C383 105 348 80 299 80 C243 80 219 110 219 180 C219 253 248 381 279 442 C308 500 343 525 391 525 L391 525 Z " />
<glyph glyph-name="one" unicode="1" horiz-adv-x="710" d="M170 439 L294 439 L232 148 C222 94 217 91 127 87 L96 87 L77 0 L511 0 L529 87 L501 87 C442 87 423 93 423 111 C423 115 424 122 425 128 L526 605 L370 605 C337 557 287 535 189 528 L170 439 Z " />
<glyph glyph-name="two" unicode="2" horiz-adv-x="710" d="M95 0 C112 22 125 29 149 29 C166 29 186 26 205 21 C338 -15 349 -17 407 -17 C483 -17 541 9 580 60 C606 94 617 126 634 213 L523 213 C509 156 493 136 459 136 C453 136 446 137 441 138 C342 160 340 160 303 160 C257 160 225 152 158 125 C190 170 207 177 369 214 C492 243 557 274 606 327 C638 361 657 409 657 452 C657 555 558 622 405 622 C218 622 64 517 64 389 C64 340 97 311 155 311 C227 311 283 359 283 420 C283 460 264 474 210 475 C252 504 285 514 335 514 C405 514 445 489 445 447 C445 431 441 416 432 400 C415 368 371 338 291 302 C75 205 4 135 -20 0 L95 0 Z " />
<glyph glyph-name="three" unicode="3" horiz-adv-x="710" d="M286 272 C335 271 353 267 377 256 C400 245 413 222 413 195 C413 168 401 140 381 120 C349 88 306 74 243 74 C194 74 173 78 132 97 C175 103 194 110 212 126 C227 141 237 165 237 189 C237 232 205 257 149 257 C68 257 1 196 1 123 C1 30 94 -17 274 -17 C409 -17 509 14 573 75 C605 106 626 154 626 199 C626 261 596 294 509 325 C570 343 596 357 623 387 C648 414 662 449 662 485 C662 573 579 622 428 622 C315 622 225 598 160 551 C114 517 83 466 83 422 C83 376 116 349 172 349 C241 349 289 387 289 442 C289 476 273 491 233 493 C271 521 295 529 342 529 C414 529 456 500 456 451 C456 416 434 385 402 372 C376 363 359 360 304 355 L286 272 Z " />
<glyph glyph-name="four" unicode="4" horiz-adv-x="710" d="M535 173 L638 173 L655 257 L552 257 L626 605 L421 605 L22 279 L-1 173 L327 173 L322 148 C313 95 308 92 225 88 L196 88 L177 0 L601 0 L619 87 L593 87 C541 87 523 93 523 110 C523 116 524 122 525 128 L535 173 Z M136 257 L393 469 L345 257 L136 257 Z " />
<glyph glyph-name="five" unicode="5" horiz-adv-x="710" d="M86 307 L203 307 C247 332 269 339 306 339 C373 339 408 307 408 247 C408 150 328 71 231 71 C194 71 175 77 142 100 C175 107 188 111 201 120 C222 135 237 165 237 194 C237 236 203 262 148 262 C65 262 5 206 5 129 C5 37 95 -18 246 -18 C462 -18 622 102 622 264 C622 372 530 440 385 440 C320 440 291 434 230 409 L250 487 C316 482 347 480 379 480 C468 480 545 501 608 542 C639 562 664 592 664 611 C664 622 657 629 646 629 C639 629 631 628 621 626 C550 611 502 606 425 606 C360 606 300 609 171 618 L86 307 Z " />
<glyph glyph-name="six" unicode="6" horiz-adv-x="710" d="M285 345 C303 414 317 445 345 476 C378 513 426 536 469 536 C481 536 491 534 512 529 C475 509 460 489 460 459 C460 421 494 397 546 397 C619 397 671 441 671 502 C671 576 592 622 467 622 C340 622 225 573 148 486 C81 411 42 307 42 205 C42 136 60 86 98 50 C145 6 219 -17 313 -17 C502 -17 634 84 634 229 C634 325 563 382 443 382 C390 382 354 374 285 345 L285 345 Z M357 285 C407 285 434 257 434 207 C434 176 424 142 406 116 C384 82 355 67 314 67 C259 67 235 90 235 142 C235 223 288 285 357 285 L357 285 Z " />
<glyph glyph-name="seven" unicode="7" horiz-adv-x="710" d="M373 0 C416 183 444 230 616 416 C712 521 721 536 734 605 L637 605 C632 579 620 569 592 569 C576 569 562 573 521 590 C474 609 435 617 394 617 C326 617 284 598 233 543 L246 605 L134 605 L74 324 L186 324 C198 385 200 392 208 407 C223 438 255 457 293 457 C304 457 309 456 359 447 C387 443 413 440 437 440 C473 440 496 445 541 461 C510 435 495 423 460 399 C233 251 173 176 141 0 L373 0 Z " />
<glyph glyph-name="eight" unicode="8" horiz-adv-x="710" d="M150 299 C88 274 62 260 37 234 C8 205 -9 164 -9 125 C-9 100 -2 77 10 62 C49 10 138 -17 265 -17 C493 -17 643 74 643 214 C643 278 620 307 531 354 C578 369 598 379 620 400 C646 424 662 459 662 493 C662 574 573 622 422 622 C293 622 197 591 135 528 C103 495 82 448 82 407 C82 366 99 339 150 299 L150 299 Z M374 415 C299 438 299 438 284 450 C278 455 273 464 273 473 C273 508 328 534 404 534 C474 534 521 511 521 476 C521 445 492 420 432 398 L374 415 Z M338 211 C416 183 416 183 433 163 C438 157 441 147 441 138 C441 93 383 65 289 65 C196 65 133 98 133 147 C133 165 143 186 158 201 C178 220 195 230 242 249 L338 211 Z " />
<glyph glyph-name="nine" unicode="9" horiz-adv-x="710" d="M412 260 C394 190 380 160 352 129 C319 92 271 69 229 69 C217 69 206 70 185 75 C222 95 237 115 237 145 C237 183 203 207 151 207 C77 207 26 164 26 103 C26 29 104 -17 230 -17 C357 -17 471 32 549 119 C615 193 654 294 654 392 C654 463 635 515 596 552 C549 598 476 622 386 622 C201 622 63 517 63 376 C63 281 135 223 255 223 C307 223 343 231 412 260 L412 260 Z M383 538 C438 538 462 516 462 463 C462 383 408 320 340 320 C291 320 263 348 263 397 C263 430 273 463 291 490 C313 523 342 538 383 538 L383 538 Z " />
<glyph glyph-name="colon" unicode="&#x3a;" horiz-adv-x="382" d="M235 448 C171 448 113 398 113 341 C113 295 146 265 196 265 C258 265 317 318 317 374 C317 417 283 448 235 448 L235 448 Z M176 166 C111 166 53 116 53 59 C53 13 86 -17 136 -17 C198 -17 257 36 257 91 C257 134 222 166 176 166 L176 166 Z " />
<glyph glyph-name="semicolon" unicode="&#x3b;" horiz-adv-x="382" d="M17 -131 C83 -123 118 -112 162 -83 C230 -40 271 23 271 80 C271 132 233 166 175 166 C108 166 51 115 51 56 C51 17 77 -8 117 -8 C124 -8 133 -7 143 -6 C112 -50 95 -59 30 -68 L17 -131 Z M242 448 C177 448 119 398 119 341 C119 295 152 265 203 265 C265 265 324 318 324 374 C324 417 289 448 242 448 L242 448 Z " />
<glyph glyph-name="less" unicode="&#x3c;" horiz-adv-x="550" d="M582 657 L54 415 L20 253 L445 10 L486 204 L263 333 L541 463 L582 657 Z " />
<glyph glyph-name="equal" unicode="&#x3d;" horiz-adv-x="710" d="M117 475 L90 348 L626 348 L654 475 L117 475 Z M76 284 L49 157 L586 157 L613 284 L76 284 Z " />
<glyph glyph-name="greater" unicode="&#x3e;" horiz-adv-x="550" d="M105 657 L64 463 L287 333 L9 204 L-32 10 L496 253 L531 415 L105 657 Z " />
<glyph glyph-name="question" unicode="&#x3f;" horiz-adv-x="655" d="M289 166 C225 166 168 116 168 59 C168 12 200 -17 251 -17 C313 -17 372 36 372 91 C372 135 337 166 289 166 L289 166 Z M365 209 C378 256 388 268 445 300 C517 340 563 370 596 401 C632 435 656 488 656 535 C656 630 571 687 426 687 C324 687 244 658 181 600 C134 555 106 498 106 445 C106 383 138 352 201 352 C273 352 330 401 330 463 C330 499 307 520 268 520 C258 520 238 518 221 514 C236 542 247 555 262 564 C287 578 319 586 350 586 C406 586 443 558 443 515 C443 478 410 428 345 367 C251 278 245 271 238 209 L365 209 Z " />
<glyph glyph-name="at" unicode="&#x40;" horiz-adv-x="813" d="M558 493 L542 455 C528 485 489 504 444 504 C383 504 324 475 273 421 C230 375 204 317 204 267 C204 194 255 144 330 144 C387 144 443 168 481 207 C485 175 515 153 555 153 C672 153 794 301 794 442 C794 586 677 682 501 682 C373 682 248 631 157 540 C75 459 28 356 28 261 C28 189 53 122 99 74 C156 14 241 -16 355 -16 C435 -16 518 -5 587 15 L581 96 C507 75 440 65 370 65 C272 65 208 87 165 135 C134 172 116 221 116 273 C116 446 292 601 489 601 C626 601 714 534 714 428 C714 379 695 328 662 284 C634 248 602 226 579 226 C565 226 557 234 557 247 C557 258 559 264 575 301 L656 493 L558 493 Z M435 408 C471 408 494 387 494 354 C494 297 430 235 372 235 C334 235 309 256 309 289 C309 347 373 408 435 408 L435 408 Z " />
<glyph glyph-name="A" unicode="A" horiz-adv-x="770" d="M305 0 L750 0 L770 94 L731 94 C681 96 678 100 668 165 L603 667 L337 667 L38 163 C7 112 -13 97 -56 94 L-84 94 L-104 0 L225 0 L245 94 L208 94 C175 94 160 99 160 110 C160 117 163 124 178 151 L215 214 L413 214 L424 143 L424 132 C424 97 419 94 358 94 L325 94 L305 0 Z M398 310 L269 310 L375 512 L398 310 Z " />
<glyph glyph-name="B" unicode="B" horiz-adv-x="819" d="M-54 0 L370 0 C521 0 604 16 659 57 C710 94 744 157 744 217 C744 251 731 281 706 302 C678 325 652 336 584 352 C656 374 688 391 720 422 C756 455 775 496 775 537 C775 574 758 608 731 628 C692 656 633 667 523 667 L88 667 L68 572 L109 572 C156 572 171 566 171 547 C171 541 169 529 166 515 L89 151 C81 101 72 95 8 94 L-34 94 L-54 0 Z M360 392 L398 570 L442 570 C526 570 561 551 561 506 C561 480 550 451 533 432 C508 404 467 392 400 392 L360 392 Z M296 94 L341 305 L388 305 C482 305 523 281 523 226 C523 196 510 162 489 138 C460 105 423 94 343 94 L296 94 Z " />
<glyph glyph-name="C" unicode="C" horiz-adv-x="808" d="M636 258 C614 193 597 165 559 134 C517 99 463 79 409 79 C326 79 281 124 281 207 C281 280 314 423 344 479 C382 549 438 585 510 585 C565 585 606 565 626 528 C642 499 647 473 651 402 L782 402 L840 676 L721 676 L695 640 C621 678 581 687 494 687 C358 687 239 640 151 553 C71 472 22 354 22 238 C22 164 43 107 85 65 C140 11 236 -20 351 -20 C476 -20 581 15 654 81 C703 124 726 165 755 258 L636 258 Z " />
<glyph glyph-name="D" unicode="D" horiz-adv-x="885" d="M-54 0 L338 0 C521 0 629 31 719 108 C806 182 857 298 857 422 C857 496 832 553 782 594 C717 647 634 667 480 667 L88 667 L68 572 L109 572 C158 572 171 567 171 546 C171 541 169 528 166 515 L89 152 C81 102 72 95 8 94 L-34 94 L-54 0 Z M299 97 L400 570 L458 570 C507 570 548 558 572 536 C593 516 603 485 603 440 C603 366 578 264 546 202 C508 130 448 97 358 97 L299 97 Z " />
<glyph glyph-name="E" unicode="E" horiz-adv-x="852" d="M856 667 L88 667 L68 573 L107 573 C152 573 167 567 167 548 C167 541 165 529 162 515 L85 152 C77 101 68 95 7 94 L-34 94 L-54 0 L719 0 L778 275 L657 275 C636 204 622 174 595 141 C554 98 532 93 403 94 L290 94 L334 301 L365 301 C423 301 441 289 441 248 C441 237 438 212 435 191 L531 191 L596 495 L500 495 C479 410 459 393 383 389 L353 389 L392 573 L491 573 C652 577 684 553 688 419 L804 419 L856 667 Z " />
<glyph glyph-name="F" unicode="F" horiz-adv-x="787" d="M832 667 L88 667 L68 573 L107 573 C152 573 167 567 167 548 C167 541 165 529 162 515 L85 152 C77 101 68 95 7 94 L-34 94 L-54 0 L382 0 L402 94 L356 94 C312 94 296 100 296 119 C296 121 296 121 302 152 L334 302 L367 302 C428 302 446 289 446 248 C446 237 443 212 440 191 L531 191 L596 495 L504 495 C484 410 464 392 384 389 L353 389 L392 573 L496 573 C590 573 609 569 634 547 C653 529 662 503 662 467 C662 450 660 431 655 393 L774 393 L832 667 Z " />
<glyph glyph-name="G" unicode="G" horiz-adv-x="901" d="M439 261 L466 261 C512 261 527 254 527 235 C527 228 525 217 522 203 L512 153 C506 126 498 108 489 100 C477 89 436 81 398 81 C320 81 274 128 274 208 C274 282 307 423 337 479 C374 549 430 585 502 585 C556 585 597 565 617 528 C632 499 637 473 641 402 L762 402 L820 676 L710 676 L685 640 C617 678 581 687 493 687 C359 687 242 641 153 553 C71 472 22 355 22 240 C22 165 43 105 85 63 C138 10 228 -22 328 -22 C405 -22 464 -8 559 34 L573 -7 L690 -7 L735 203 C744 254 752 260 814 261 L844 261 L864 355 L459 355 L439 261 Z " />
<glyph glyph-name="H" unicode="H" horiz-adv-x="923" d="M496 667 L90 667 L70 573 L111 573 C157 573 171 567 171 548 C171 544 169 533 165 515 L88 151 C80 101 71 95 9 94 L-32 94 L-52 0 L354 0 L374 94 C320 94 305 99 305 120 C305 125 307 138 310 151 L342 301 L567 301 L535 151 C525 100 516 94 447 94 L427 0 L833 0 L853 94 L811 94 C766 94 751 100 751 119 C751 124 753 137 756 151 L833 515 C843 566 852 573 913 573 L955 573 L975 667 L568 667 L548 573 C602 573 617 567 617 547 C617 540 615 528 613 515 L587 395 L362 395 L387 515 C397 567 406 573 476 573 L496 667 Z " />
<glyph glyph-name="I" unicode="I" horiz-adv-x="481" d="M-49 0 L387 0 L407 94 L367 94 C322 94 306 100 306 119 C306 124 308 136 311 152 L389 515 C398 566 408 573 468 573 L509 573 L529 667 L93 667 L73 573 L113 573 C158 573 173 567 173 548 C173 540 171 529 169 515 L91 152 C82 101 72 95 12 94 L-29 94 L-49 0 Z " />
<glyph glyph-name="J" unicode="J" horiz-adv-x="699" d="M294 573 L340 573 C385 573 400 567 400 548 C400 543 398 531 395 515 L335 234 C317 150 312 137 287 115 C265 96 227 83 191 83 C147 83 126 96 108 133 C123 130 135 129 144 129 C203 129 254 180 254 239 C254 285 222 310 165 310 C65 310 -17 231 -17 135 C-17 40 75 -20 222 -20 C310 -20 389 0 444 37 C506 77 532 121 554 224 L616 515 C624 566 632 572 695 573 L732 573 L752 667 L314 667 L294 573 Z " />
<glyph glyph-name="K" unicode="K" horiz-adv-x="929" d="M489 667 L88 667 L68 572 L108 572 C153 572 168 566 168 547 C168 540 166 529 163 515 L86 152 C77 101 67 95 7 94 L-34 94 L-54 0 L364 0 L385 94 L359 94 C313 94 298 101 298 120 C298 126 300 138 303 152 L315 208 L452 285 L528 137 C531 131 532 125 532 118 C532 100 517 94 476 94 L441 94 L421 0 L874 0 L894 94 L850 94 C817 94 799 105 780 139 L639 408 L812 523 C857 554 902 573 926 572 L963 572 L983 667 L575 667 L555 572 L616 572 C643 572 655 568 655 558 C655 549 645 537 632 529 L346 350 L381 515 C389 566 398 572 468 572 L489 667 Z " />
<glyph glyph-name="L" unicode="L" horiz-adv-x="754" d="M529 667 L88 667 L68 573 L108 573 C154 573 169 567 169 548 C169 543 167 531 164 515 L86 152 C77 102 67 95 7 94 L-34 94 L-54 0 L636 0 L695 278 L581 278 C535 121 500 93 351 97 L296 97 L384 515 C393 566 401 572 463 573 L509 573 L529 667 Z " />
<glyph glyph-name="M" unicode="M" horiz-adv-x="1131" d="M1181 667 L757 667 L539 269 L499 667 L88 667 L68 573 L103 573 C146 573 161 567 161 548 C161 543 159 530 156 515 L79 152 C69 101 60 95 2 94 L-34 94 L-54 0 L274 0 L295 94 L265 94 C222 94 207 100 207 119 C207 124 209 136 212 152 L298 557 L366 0 L537 0 L853 557 L767 152 C758 101 750 95 688 94 L657 94 L637 0 L1040 0 L1060 94 L1020 94 C975 94 960 100 960 119 C960 123 961 130 966 152 L1043 515 C1052 566 1061 572 1122 573 L1161 573 L1181 667 Z " />
<glyph glyph-name="N" unicode="N" horiz-adv-x="890" d="M451 667 L88 667 L68 572 L106 572 C149 572 163 566 163 547 C163 540 161 528 158 515 L81 151 C71 101 62 95 4 94 L-34 94 L-54 0 L270 0 L290 94 L255 94 C212 94 197 100 197 119 C197 123 199 136 202 151 L272 478 L461 0 L706 0 L816 515 C825 565 834 572 893 572 L921 572 L941 667 L619 667 L599 572 L642 572 C685 572 700 566 700 547 C700 544 700 542 694 515 L631 217 L451 667 Z " />
<glyph glyph-name="O" unicode="O" horiz-adv-x="923" d="M536 687 C377 687 249 642 156 552 C75 475 28 363 28 249 C28 177 51 119 97 73 C160 10 252 -20 386 -20 C547 -20 671 24 767 115 C848 193 895 304 895 418 C895 490 872 549 826 594 C761 658 671 687 536 687 L536 687 Z M514 586 C598 586 644 541 644 457 C644 382 612 244 581 188 C543 119 483 82 410 82 C324 82 278 127 278 211 C278 285 311 426 341 480 C379 549 440 586 514 586 L514 586 Z " />
<glyph glyph-name="P" unicode="P" horiz-adv-x="819" d="M337 295 L489 295 C627 295 698 313 756 362 C803 402 831 461 831 520 C831 560 816 594 789 618 C747 654 688 667 568 667 L88 667 L68 572 L108 572 C155 572 169 567 169 548 C169 543 167 531 164 515 L86 151 C77 101 67 95 7 94 L-34 94 L-54 0 L387 0 L407 94 L361 94 C316 94 301 100 301 119 C301 123 303 136 306 151 L337 295 Z M355 377 L396 569 L455 569 C561 569 599 551 599 500 C599 469 588 439 569 419 C541 389 496 377 410 377 L355 377 Z " />
<glyph glyph-name="Q" unicode="Q" horiz-adv-x="950" d="M848 149 C838 108 834 98 825 85 C816 74 800 66 785 66 C770 66 756 72 734 90 C784 132 807 158 832 200 C869 263 891 344 891 419 C891 490 868 548 822 594 C758 658 666 687 532 687 C371 687 247 643 152 552 C71 474 24 362 24 249 C24 82 155 -21 366 -21 C429 -21 472 -14 554 9 C605 -49 642 -68 708 -68 C772 -68 821 -46 860 0 C892 37 907 70 929 149 L848 149 Z M511 96 C462 71 436 63 398 63 C353 63 325 83 325 115 C325 152 357 183 396 183 C438 183 472 157 511 96 L511 96 Z M298 223 C297 240 297 250 297 261 C297 329 319 429 345 480 C382 552 433 586 504 586 C584 586 626 542 626 458 C626 408 614 339 587 235 C560 267 548 279 533 290 C507 308 474 318 441 318 C409 318 379 309 354 293 C331 278 318 261 298 223 L298 223 Z " />
<glyph glyph-name="R" unicode="R" horiz-adv-x="896" d="M68 572 L108 572 C154 572 168 566 168 547 C168 540 166 529 163 515 L86 152 C77 101 67 95 7 94 L-34 94 L-54 0 L387 0 L407 94 L361 94 C316 94 301 100 301 119 C301 124 303 136 306 152 L338 300 L412 300 C477 300 502 287 502 254 C502 242 499 220 494 197 L482 142 C479 125 476 104 476 91 C476 19 528 -16 637 -16 C711 -16 757 -1 794 36 C828 70 844 106 859 188 L786 188 C773 120 761 96 737 96 C724 96 717 106 717 123 C717 136 718 140 731 203 C736 227 739 252 739 269 C739 321 716 340 636 353 C699 367 729 379 761 406 C802 438 826 486 826 534 C826 571 810 605 783 626 C744 655 690 667 593 667 L88 667 L68 572 Z M356 391 L393 568 L472 568 C566 568 596 551 596 501 C596 472 584 443 564 423 C540 400 502 391 427 391 L356 391 Z " />
<glyph glyph-name="S" unicode="S" horiz-adv-x="770" d="M41 245 L-12 -3 L89 -3 L123 34 C218 -9 267 -20 354 -20 C565 -20 718 89 718 239 C718 340 641 394 444 431 C319 455 319 455 299 469 C290 475 284 487 284 498 C284 544 346 579 428 579 C484 579 528 566 560 539 C588 516 599 492 605 438 L728 438 L777 670 L673 670 L646 637 C565 673 508 686 423 686 C313 686 224 659 157 605 C101 559 65 490 65 427 C65 386 77 356 103 330 C133 301 207 272 341 239 C457 210 459 209 478 190 C484 184 488 173 488 162 C488 116 432 82 355 82 C298 82 241 101 202 133 C173 158 159 185 146 245 L41 245 Z " />
<glyph glyph-name="T" unicode="T" horiz-adv-x="814" d="M146 414 C170 515 216 556 310 562 L345 562 L257 152 C249 101 241 95 180 94 L118 94 L98 0 L579 0 L599 94 L532 94 C488 94 473 100 473 119 C473 124 475 136 478 152 L566 562 L600 562 C666 562 708 527 708 473 C708 459 706 443 702 414 L810 414 L863 667 L92 667 L38 414 L146 414 Z " />
<glyph glyph-name="U" unicode="U" horiz-adv-x="852" d="M555 573 L594 573 C637 573 652 567 652 548 C652 544 650 531 647 516 L583 214 C572 165 558 139 531 117 C504 96 458 83 407 83 C337 83 301 109 301 159 C301 172 303 188 311 222 L373 516 C383 566 392 573 453 573 L498 573 L518 667 L76 667 L56 573 L98 573 C143 573 158 567 158 548 C158 542 156 530 153 516 L84 189 C80 173 78 154 78 141 C78 40 177 -20 344 -20 C555 -20 684 56 714 197 L782 519 C791 565 801 573 859 573 L894 573 L914 667 L575 667 L555 573 Z " />
<glyph glyph-name="V" unicode="V" horiz-adv-x="787" d="M24 573 L58 573 C102 573 123 550 132 491 L197 0 L447 0 L740 508 C768 558 787 571 837 573 L864 573 L884 667 L543 667 L523 573 L560 573 C597 573 610 568 610 556 C610 547 606 535 599 523 L405 181 L362 522 C361 525 361 526 361 527 C360 539 366 558 371 563 C379 570 393 573 422 573 L463 573 L483 667 L44 667 L24 573 Z " />
<glyph glyph-name="W" unicode="W" horiz-adv-x="1087" d="M414 667 L71 667 L51 573 C101 570 120 549 126 489 L175 0 L413 0 L546 272 L561 0 L807 0 L1053 508 C1080 559 1096 571 1142 573 L1162 667 L908 667 L888 573 C926 572 939 568 939 556 C939 548 935 537 928 523 L757 184 L732 521 L732 526 C732 564 743 573 795 573 L819 573 L839 667 L472 667 L452 573 C518 568 525 562 528 499 L375 184 L341 521 L341 526 C341 562 351 571 394 573 L414 667 Z " />
<glyph glyph-name="X" unicode="X" horiz-adv-x="808" d="M49 573 L74 573 C102 571 114 563 135 530 L273 315 L83 148 C38 107 17 97 -31 94 L-67 94 L-87 0 L278 0 L298 94 L257 94 C237 94 226 99 226 109 C226 113 231 120 239 127 L356 230 L404 149 C414 133 417 125 417 118 C417 102 404 94 380 94 L357 94 L337 0 L754 0 L774 94 L744 94 C711 98 691 110 679 133 L543 369 L744 542 C770 564 798 573 829 573 L849 573 L869 667 L534 667 L514 573 L546 573 C566 573 577 567 577 558 C577 553 572 546 564 539 L457 448 L416 517 C407 534 404 541 404 549 C404 564 417 573 441 573 L460 573 L480 667 L69 667 L49 573 Z " />
<glyph glyph-name="Y" unicode="Y" horiz-adv-x="754" d="M24 573 L45 573 C89 570 109 555 132 510 L252 268 L227 152 C219 101 211 95 149 94 L103 94 L83 0 L529 0 L549 94 L503 94 C458 94 443 100 443 119 C443 124 445 136 448 152 L473 268 L698 506 C737 553 765 570 806 573 L828 573 L848 667 L519 667 L499 573 L521 573 C543 573 558 567 558 558 C558 551 551 535 541 523 L437 393 L382 521 C379 529 377 538 377 543 C377 563 394 573 428 573 L451 573 L471 667 L44 667 L24 573 Z " />
<glyph glyph-name="Z" unicode="Z" horiz-adv-x="737" d="M-54 0 L636 0 L693 267 L562 267 C524 132 474 90 351 94 L252 94 L758 573 L778 667 L106 667 L53 418 L179 418 C215 541 255 572 377 573 L474 573 L-34 94 L-54 0 Z " />
<glyph glyph-name="bracketleft" unicode="&#x5b;" horiz-adv-x="470" d="M324 -182 L345 -82 L206 -82 L344 569 L483 569 L504 667 L179 667 L-1 -182 L324 -182 Z " />
<glyph glyph-name="backslash" unicode="&#x5c;" horiz-adv-x="437" d="M236 -92 L336 -92 L219 686 L119 686 L236 -92 Z " />
<glyph glyph-name="bracketright" unicode="&#x5d;" horiz-adv-x="470" d="M-73 -182 L252 -182 L432 667 L107 667 L87 569 L225 569 L87 -82 L-52 -82 L-73 -182 Z " />
<glyph glyph-name="asciicircum" unicode="&#x5e;" horiz-adv-x="550" d="M193 335 L320 541 L359 335 L545 335 L465 672 L229 672 L6 335 L193 335 Z " />
<glyph glyph-name="underscore" unicode="&#x5f;" horiz-adv-x="500" d="M-81 -47 L-105 -160 L395 -160 L419 -47 L-81 -47 Z " />
<glyph glyph-name="grave" unicode="&#x60;" horiz-adv-x="522" d="M378 534 L267 686 C240 723 223 735 198 735 C162 735 128 703 128 668 C128 649 140 634 169 618 L319 534 L378 534 Z " />
<glyph glyph-name="a" unicode="a" horiz-adv-x="694" d="M652 189 L585 189 L573 133 C568 109 562 103 543 103 C531 103 523 109 523 117 C523 120 524 126 525 133 L564 313 C569 337 572 362 572 378 C572 410 558 434 532 449 C486 474 420 486 332 486 C158 486 41 426 41 337 C41 296 73 272 130 272 C197 272 245 307 245 355 C245 380 233 393 199 404 C230 417 246 421 271 421 C325 421 355 398 355 358 C355 338 347 317 335 304 C312 280 278 269 192 258 C94 245 44 227 8 191 C-17 166 -33 125 -33 85 C-33 18 18 -17 115 -17 C158 -17 204 -9 244 6 C272 16 286 24 317 50 C346 -1 379 -17 449 -17 C507 -17 552 -4 585 23 C613 46 627 72 639 128 L652 189 Z M317 157 C309 113 273 87 223 87 C188 87 165 103 165 127 C165 148 184 166 216 178 L273 197 C279 199 304 208 329 218 L317 157 Z " />
<glyph glyph-name="b" unicode="b" horiz-adv-x="705" d="M53 580 C124 580 134 576 134 550 C134 544 133 538 132 533 L19 0 L146 0 L204 65 C260 1 295 -16 368 -16 C459 -16 532 17 580 82 C624 141 653 232 653 311 C653 420 588 486 480 486 C413 486 363 467 303 416 L356 667 L71 667 L53 580 Z M381 382 C424 382 443 359 443 306 C443 259 429 197 409 153 C387 106 358 84 319 84 C279 84 255 112 255 159 C255 207 274 292 293 323 C315 362 346 382 381 382 L381 382 Z " />
<glyph glyph-name="c" unicode="c" horiz-adv-x="579" d="M380 163 C372 135 364 120 354 108 C335 87 305 74 276 74 C227 74 201 100 201 149 C201 195 224 295 243 332 C265 375 304 397 357 397 C387 397 398 392 412 373 C381 369 367 363 351 346 C336 330 327 309 327 288 C327 248 357 226 412 226 C494 226 551 278 551 353 C551 436 476 487 354 487 C245 487 154 455 90 395 C30 339 -6 257 -6 176 C-6 54 84 -19 235 -19 C297 -19 352 -7 402 18 C459 46 486 81 513 163 L380 163 Z " />
<glyph glyph-name="d" unicode="d" horiz-adv-x="705" d="M360 580 L375 580 C440 580 450 576 450 551 C450 540 450 539 449 533 L424 416 C382 467 342 486 275 486 C195 486 120 450 70 387 C22 328 -9 234 -9 148 C-9 40 51 -16 167 -16 C236 -16 275 1 354 65 L340 0 L615 0 L633 87 L605 87 C568 87 557 93 557 113 C557 120 558 127 559 134 L672 667 L378 667 L360 580 Z M327 382 C372 382 394 358 394 309 C394 259 375 181 355 145 C332 105 301 84 266 84 C222 84 202 108 202 162 C202 208 216 272 237 314 C259 361 287 382 327 382 L327 382 Z " />
<glyph glyph-name="e" unicode="e" horiz-adv-x="623" d="M418 163 C405 136 395 122 383 110 C359 88 327 75 294 75 C240 75 209 103 209 152 C209 163 212 187 217 207 L559 207 C567 245 572 286 572 308 C572 419 487 487 348 487 C145 487 -6 355 -6 176 C-6 52 83 -18 241 -18 C324 -18 405 3 456 38 C495 65 519 96 552 163 L418 163 Z M235 294 C247 334 254 351 267 366 C283 385 312 398 338 398 C374 398 398 374 398 339 C398 328 396 311 393 294 L235 294 Z " />
<glyph glyph-name="f" unicode="f" horiz-adv-x="443" d="M109 378 L57 134 C48 94 39 88 -4 87 L-30 87 L-49 0 L340 0 L358 87 L313 87 C280 87 269 93 269 111 C269 118 270 127 272 135 L323 378 L418 378 L437 469 L343 469 L356 532 C367 581 372 592 390 606 C401 615 415 619 429 619 C437 619 443 618 456 614 C421 596 404 574 404 547 C404 515 433 494 477 494 C538 494 587 535 587 587 C587 648 524 685 416 685 C351 685 286 672 242 651 C180 621 152 581 134 496 L128 469 L51 469 L31 378 L109 378 Z " />
<glyph glyph-name="g" unicode="g" horiz-adv-x="677" d="M56 167 C18 153 2 144 -17 125 C-41 103 -54 74 -54 47 C-54 18 -43 -2 -13 -27 C-68 -45 -100 -78 -100 -117 C-100 -141 -89 -160 -65 -176 C-29 -200 60 -214 186 -214 C412 -214 538 -149 538 -32 C538 45 490 72 354 72 C341 72 322 72 309 71 C179 68 179 68 151 68 C96 68 84 72 84 89 C84 101 95 109 123 118 C168 106 189 103 222 103 C401 103 529 200 529 336 C529 366 525 379 505 410 C539 429 557 436 572 436 C582 436 588 433 600 424 C568 402 555 385 555 363 C555 336 584 316 625 316 C679 316 720 354 720 405 C720 455 674 488 605 488 C565 488 537 479 480 449 C403 480 382 485 326 485 C231 485 158 465 104 425 C50 384 17 321 17 259 C17 220 27 197 56 167 L56 167 Z M300 416 C335 416 348 402 348 363 C348 332 340 289 328 251 C311 195 286 172 245 172 C211 172 197 191 197 235 C197 265 206 307 220 346 C238 395 261 416 300 416 L300 416 Z M226 -70 C269 -70 306 -72 332 -77 C350 -80 358 -86 358 -98 C358 -129 316 -141 213 -141 C118 -141 81 -132 81 -108 C81 -81 122 -70 226 -70 L226 -70 Z " />
<glyph glyph-name="h" unicode="h" horiz-adv-x="748" d="M680 87 L664 87 C625 87 613 93 613 113 C613 118 614 127 616 134 L653 308 C659 339 663 368 663 386 C663 446 606 482 510 482 C426 482 380 463 305 398 L362 667 L88 667 L69 580 L90 580 C129 580 141 574 141 554 C141 549 140 540 138 533 L54 134 C44 95 35 88 -15 87 L-35 87 L-54 0 L288 0 L307 87 C257 87 247 92 247 113 C247 123 247 127 249 134 L282 288 C294 347 337 383 393 383 C435 383 459 365 459 332 C459 320 458 313 456 303 L420 134 C410 92 402 87 343 87 L325 0 L662 0 L680 87 Z " />
<glyph glyph-name="i" unicode="i" horiz-adv-x="399" d="M327 87 L306 87 C268 87 256 93 256 113 C256 122 256 127 258 134 L329 469 L51 469 L32 382 L54 382 C88 382 98 376 98 357 C98 351 97 342 95 335 L53 134 C44 95 35 88 -8 87 L-30 87 L-49 0 L309 0 L327 87 Z M263 686 C205 686 152 634 152 577 C152 536 182 507 224 507 C282 507 335 559 335 615 C335 656 305 686 263 686 L263 686 Z " />
<glyph glyph-name="j" unicode="j" horiz-adv-x="387" d="M340 469 L73 469 L55 382 L79 382 C109 382 120 375 119 358 C119 351 117 343 116 335 L24 -98 C18 -124 3 -141 -15 -141 C-22 -141 -30 -138 -43 -133 C-13 -110 -3 -95 -3 -73 C-3 -39 -35 -18 -88 -18 C-162 -18 -215 -60 -215 -119 C-215 -183 -157 -215 -41 -215 C91 -215 173 -181 209 -111 C220 -91 223 -80 237 -12 L340 469 Z M264 686 C206 686 153 634 153 577 C153 536 183 507 225 507 C283 507 336 559 336 615 C336 656 306 686 264 686 L264 686 Z " />
<glyph glyph-name="k" unicode="k" horiz-adv-x="737" d="M69 580 L96 580 C134 580 146 573 146 554 C146 546 145 540 144 533 L59 134 C50 95 41 88 -9 87 L-33 87 L-52 0 L284 0 L303 87 C260 89 249 94 249 114 C249 123 252 138 256 152 L354 203 L384 141 C393 122 396 112 396 104 C396 91 391 89 355 87 L336 0 L672 0 L691 87 C642 90 628 97 615 124 L528 307 L612 359 C639 374 662 380 705 382 L724 469 L414 469 L395 382 L408 382 C430 382 437 379 437 371 C437 363 429 354 417 346 L281 269 L365 667 L87 667 L69 580 Z " />
<glyph glyph-name="l" unicode="l" horiz-adv-x="388" d="M362 667 L82 667 L63 580 L88 580 C121 580 131 574 131 555 C131 547 130 540 129 533 L44 134 C35 95 26 88 -17 87 L-41 87 L-60 0 L299 0 L318 87 L298 87 C259 87 247 93 247 113 C247 120 248 127 249 134 L362 667 Z " />
<glyph glyph-name="m" unicode="m" horiz-adv-x="1065" d="M331 469 L51 469 L32 382 L54 382 C93 382 105 376 105 356 C105 350 104 342 102 335 L60 134 C51 95 41 88 -8 87 L-30 87 L-49 0 L284 0 L303 87 C262 88 253 93 253 113 C253 120 254 127 255 134 L285 273 C301 351 332 383 389 383 C423 383 440 368 440 338 C440 327 439 315 436 303 L400 134 C392 95 382 87 344 87 L335 87 L317 0 L623 0 L642 87 L632 87 C600 87 592 91 592 109 C592 116 593 126 595 134 L625 275 C641 351 672 383 728 383 C762 383 780 368 780 339 C780 325 779 315 776 303 L741 134 C731 94 725 90 675 87 L657 0 L982 0 L1000 87 L985 87 C946 87 934 93 934 113 C934 122 934 127 936 134 L974 312 C980 343 984 371 984 390 C984 449 927 486 837 486 C768 486 717 470 646 424 C619 471 586 487 516 487 C444 487 397 469 319 410 L331 469 Z " />
<glyph glyph-name="n" unicode="n" horiz-adv-x="754" d="M690 87 L666 87 C628 87 616 93 616 113 C616 121 617 127 618 134 L655 308 C662 340 666 370 666 387 C666 445 610 482 521 482 C438 482 384 460 312 396 L328 469 L40 469 L21 382 L51 382 C89 382 101 376 101 357 C101 349 100 342 99 335 L56 134 C47 95 38 88 -11 87 L-41 87 L-60 0 L287 0 L306 87 C258 87 249 92 249 113 C249 118 250 127 252 134 L284 288 C297 347 339 383 396 383 C438 383 462 365 462 332 C462 323 461 313 459 303 L423 134 C413 92 405 87 346 87 L327 0 L672 0 L690 87 Z " />
<glyph glyph-name="o" unicode="o" horiz-adv-x="672" d="M369 486 C147 486 -4 359 -4 172 C-4 54 96 -17 262 -17 C479 -17 634 112 634 292 C634 414 535 486 369 486 L369 486 Z M348 394 C404 394 428 371 428 320 C428 273 406 176 386 138 C364 95 332 75 281 75 C226 75 202 98 202 150 C202 197 224 292 244 331 C266 374 298 394 348 394 L348 394 Z " />
<glyph glyph-name="p" unicode="p" horiz-adv-x="705" d="M319 469 L45 469 L27 382 L55 382 C91 382 102 376 102 356 C102 347 101 342 100 335 L12 -80 C2 -119 -7 -126 -53 -127 L-81 -127 L-100 -214 L260 -214 L278 -127 C216 -127 205 -122 205 -98 C205 -93 206 -86 207 -80 L235 53 C277 2 318 -17 385 -17 C463 -17 539 19 589 82 C637 141 668 235 668 320 C668 428 608 485 494 485 C424 485 380 466 305 404 L319 469 Z M393 385 C438 385 457 361 457 306 C457 259 443 198 423 155 C400 108 372 87 331 87 C289 87 264 115 264 161 C264 205 285 291 305 324 C328 364 358 385 393 385 L393 385 Z " />
<glyph glyph-name="q" unicode="q" horiz-adv-x="705" d="M427 404 C378 466 342 485 272 485 C185 485 112 450 65 387 C22 328 -7 237 -7 158 C-7 49 59 -17 168 -17 C235 -17 285 2 347 53 L319 -80 C308 -122 299 -127 228 -127 L209 -214 L569 -214 L588 -127 L560 -127 C523 -127 512 -121 512 -101 C512 -96 513 -87 515 -80 L603 335 C612 374 621 381 668 382 L696 382 L714 469 L441 469 L427 404 Z M329 385 C370 385 394 357 394 309 C394 261 375 177 356 146 C334 107 302 87 267 87 C222 87 203 110 203 164 C203 209 217 273 237 316 C259 363 288 385 329 385 L329 385 Z " />
<glyph glyph-name="r" unicode="r" horiz-adv-x="563" d="M331 469 L51 469 L32 382 L54 382 C93 382 105 376 105 356 C105 350 104 342 102 335 L60 134 C51 95 41 88 -8 87 L-30 87 L-49 0 L323 0 L341 87 L302 87 C265 87 253 93 253 112 C253 120 254 127 255 134 L285 272 C294 317 309 348 332 372 C355 396 389 412 415 412 C421 412 430 411 442 408 C396 388 377 365 377 330 C377 294 406 271 451 271 C520 271 575 326 575 395 C575 452 536 485 468 485 C414 485 377 469 322 423 L331 469 Z " />
<glyph glyph-name="s" unicode="s" horiz-adv-x="623" d="M38 -7 L65 30 C121 -3 183 -17 265 -17 C423 -17 539 62 539 170 C539 229 508 258 408 287 C374 298 295 320 283 323 C250 331 236 342 236 359 C236 386 269 403 321 403 C344 403 365 400 386 393 C425 381 440 369 465 330 L551 330 L582 478 L501 478 L480 450 C407 479 373 486 304 486 C204 486 130 464 76 419 C41 390 18 344 18 304 C18 251 48 223 136 195 C174 182 254 159 279 153 C312 146 325 135 325 117 C325 89 294 74 236 74 C209 74 184 78 161 86 C124 98 109 116 94 164 L-3 164 L-39 -7 L38 -7 Z " />
<glyph glyph-name="t" unicode="t" horiz-adv-x="502" d="M100 383 L54 167 C47 132 42 102 42 90 C42 23 106 -19 208 -19 C278 -19 333 -2 372 32 C403 60 417 89 432 158 L445 221 L360 221 L350 178 C333 98 316 73 277 73 C252 73 238 84 238 104 C238 114 240 128 244 142 L295 383 L459 383 L478 469 L314 469 L352 652 L235 652 C178 513 132 471 34 469 L16 383 L100 383 Z " />
<glyph glyph-name="u" unicode="u" horiz-adv-x="754" d="M372 0 L664 0 L683 87 L655 87 C615 87 602 93 602 113 C602 123 602 127 604 134 L675 469 L414 469 L395 381 L414 381 C444 381 454 376 454 358 C454 352 453 343 451 335 L418 181 C406 122 361 86 301 86 C255 86 230 105 230 138 C230 146 231 156 233 166 L298 469 L40 469 L21 381 L37 381 C67 381 78 375 77 358 C77 351 76 343 74 335 L36 156 C29 125 25 95 25 79 C25 20 82 -17 174 -17 C258 -17 313 5 387 69 L372 0 Z " />
<glyph glyph-name="v" unicode="v" horiz-adv-x="628" d="M419 382 C453 380 465 373 465 358 C465 351 462 342 458 335 L334 124 L295 335 C294 338 294 341 294 345 C294 375 307 382 360 382 L379 469 L35 469 L16 382 L36 382 C65 382 71 375 78 335 L126 0 L379 0 L561 329 C582 368 604 381 648 382 L667 469 L438 469 L419 382 Z " />
<glyph glyph-name="w" unicode="w" horiz-adv-x="934" d="M331 0 L454 227 L469 0 L694 0 L865 329 C884 368 906 382 947 382 L966 469 L762 469 L743 382 C769 377 777 372 777 359 C777 353 774 343 770 335 L656 124 L637 335 L636 341 C634 366 648 382 673 382 L685 382 L704 469 L394 469 L375 382 C404 378 414 372 414 358 C414 352 411 342 407 335 L290 119 L276 335 L276 340 C276 374 286 382 327 382 L345 469 L35 469 L16 382 L41 382 C72 382 76 375 83 310 L106 0 L331 0 Z " />
<glyph glyph-name="x" unicode="x" horiz-adv-x="694" d="M645 87 L613 87 C572 90 556 99 530 134 L445 254 L568 348 C604 376 623 382 676 382 L695 469 L451 469 L433 386 C451 386 458 383 458 377 C458 371 452 361 444 356 L383 313 L349 351 C343 357 338 368 338 374 C338 382 348 387 369 387 L386 469 L29 469 L11 382 C60 379 64 376 99 335 L177 229 L19 111 C-7 92 -23 87 -52 87 L-71 0 L168 0 L185 83 C160 83 152 85 152 93 C152 100 158 109 166 115 L242 165 L285 118 C291 112 296 101 296 94 C296 87 287 83 269 83 L252 83 L235 0 L627 0 L645 87 Z " />
<glyph glyph-name="y" unicode="y" horiz-adv-x="634" d="M413 382 C460 379 469 376 469 362 C469 357 466 349 458 337 L358 174 L304 338 C302 345 301 352 301 358 C301 376 309 380 353 382 L372 469 L28 469 L9 382 L30 382 C65 380 71 373 90 306 L189 -51 C137 -118 94 -147 49 -147 C33 -147 25 -143 13 -130 C46 -122 60 -116 76 -101 C90 -86 99 -66 99 -47 C99 -11 68 12 19 12 C-56 12 -113 -39 -113 -106 C-113 -174 -53 -214 48 -214 C114 -214 172 -196 218 -162 C262 -130 314 -77 337 -40 L565 329 C588 369 607 381 652 382 L671 469 L432 469 L413 382 Z " />
<glyph glyph-name="z" unicode="z" horiz-adv-x="563" d="M-54 0 L460 0 L504 206 L405 206 C383 107 367 91 280 87 L208 87 L539 373 L560 469 L64 469 L24 280 L123 280 C147 368 159 378 233 382 L305 382 L-33 96 L-54 0 Z " />
<glyph glyph-name="braceleft" unicode="&#x7b;" horiz-adv-x="470" d="M345 476 C354 520 354 520 356 528 C362 545 371 555 387 562 C400 567 418 569 463 569 C466 569 474 569 483 568 L503 665 C438 668 424 668 406 668 C307 668 275 663 238 640 C203 618 181 581 169 523 L136 369 C123 308 102 288 47 279 L27 185 C65 179 83 163 83 134 C83 123 81 111 78 96 L45 -59 C41 -81 39 -93 39 -108 C39 -146 52 -170 79 -185 C105 -199 134 -203 209 -203 C234 -203 257 -203 319 -201 L340 -104 C301 -104 286 -104 271 -102 C244 -100 230 -90 230 -72 C230 -65 231 -57 233 -47 C234 -43 237 -30 241 -12 L266 106 C270 124 272 144 272 160 C272 192 262 210 233 232 C285 261 303 287 320 358 L345 476 Z " />
<glyph glyph-name="bar" unicode="&#x7c;" horiz-adv-x="530" d="M238 667 L61 -167 L257 -167 L434 667 L238 667 Z " />
<glyph glyph-name="braceright" unicode="&#x7d;" horiz-adv-x="470" d="M82 -12 C65 -103 61 -105 -57 -104 L-77 -200 C-8 -203 7 -203 20 -203 C120 -203 152 -198 188 -175 C223 -153 245 -116 257 -59 L290 96 C303 156 324 177 379 185 L399 279 C361 285 343 302 343 330 C343 341 344 349 348 369 L381 523 C385 543 387 558 387 573 C387 611 375 635 348 649 C321 664 292 668 217 668 C190 668 175 668 107 665 L86 569 L108 569 C177 569 196 562 196 537 C196 527 196 527 185 476 L160 359 C156 339 154 320 154 305 C154 273 164 254 193 232 C141 203 124 177 107 106 L82 -12 Z " />
<glyph glyph-name="asciitilde" unicode="&#x7e;" horiz-adv-x="685" d="M236 534 C266 575 283 588 306 588 C317 588 329 585 355 574 C433 542 452 536 472 536 C513 536 556 557 594 595 C616 618 632 641 662 689 L587 767 C555 725 540 714 516 714 C502 714 498 715 448 736 C378 763 375 764 348 764 C280 764 223 718 160 613 L236 534 Z " />
<glyph glyph-name="uni00A0" unicode="&#xa0;" horiz-adv-x="250" d="" />
<glyph glyph-name="exclamdown" unicode="&#xa1;" horiz-adv-x="377" d="M115 259 C91 183 77 145 55 90 C-13 -72 -19 -89 -19 -129 C-19 -188 13 -220 72 -220 C115 -220 155 -200 180 -166 C208 -128 220 -81 220 0 C221 145 222 151 233 259 L115 259 Z M219 483 C158 483 98 430 98 375 C98 332 133 300 180 300 C245 300 303 350 303 407 C303 453 270 483 219 483 L219 483 Z " />
<glyph glyph-name="cent" unicode="&#xa2;" horiz-adv-x="710" d="M424 254 C450 246 462 243 481 243 C559 243 617 297 617 370 C617 400 608 420 579 455 L663 564 L579 564 L518 487 C463 501 435 506 403 506 C212 506 59 367 59 192 C59 112 85 70 163 26 L60 -107 L144 -107 L231 5 C266 2 298 0 322 0 C388 0 455 22 502 58 C538 86 555 114 578 180 L445 180 C427 119 397 91 348 91 C332 91 324 94 308 106 L424 254 Z M284 183 C276 212 272 235 272 250 C272 288 296 347 323 376 C344 400 380 414 417 414 C444 414 456 409 476 389 C429 384 415 373 396 327 L284 183 Z " />
<glyph glyph-name="sterling" unicode="&#xa3;" horiz-adv-x="710" d="M23 -17 C99 25 136 39 177 39 C199 39 228 33 262 22 C372 -15 380 -17 428 -17 C508 -17 570 12 605 67 C629 104 639 136 652 216 L549 216 C539 155 519 131 481 131 C468 131 454 133 443 137 C368 164 368 164 341 164 C306 164 277 156 213 130 C299 185 306 194 328 260 L469 260 L488 351 L339 351 C334 368 330 381 327 390 C320 411 317 427 317 438 C317 462 336 491 364 511 C391 530 427 541 466 541 C505 541 521 536 548 516 C508 497 491 474 491 440 C491 403 524 378 573 378 C639 378 691 425 691 483 C691 570 599 622 447 622 C343 622 264 599 201 551 C147 510 116 454 116 398 C116 388 118 369 121 351 L37 351 L17 260 L131 260 C130 180 96 140 -12 88 L23 -17 Z " />
<glyph glyph-name="currency" unicode="&#xa4;" horiz-adv-x="804" d="M-16 107 L72 9 L209 112 C258 86 296 76 349 76 C399 76 448 88 502 112 L595 8 L724 108 L631 213 C677 274 697 326 697 386 C697 417 693 437 680 470 L818 575 L730 674 L588 566 C542 588 506 597 458 597 C409 597 370 588 313 565 L215 675 L84 575 L180 468 C131 405 109 351 109 289 C109 260 113 239 122 213 L-16 107 Z M425 434 C482 434 525 400 525 355 C525 297 457 244 383 244 C325 244 282 278 282 323 C282 382 349 434 425 434 L425 434 Z " />
<glyph glyph-name="yen" unicode="&#xa5;" horiz-adv-x="754" d="M421 346 L363 472 C359 480 357 488 357 493 C357 510 374 519 407 519 L430 519 L448 605 L75 605 L57 519 L76 519 C115 517 135 503 155 462 L181 404 L103 404 L84 313 L222 313 L250 252 L85 252 L66 161 L237 161 L232 138 C224 91 217 86 167 85 L129 85 L111 0 L504 0 L522 85 L484 85 C448 85 436 91 436 108 C436 113 438 125 441 138 L445 161 L612 161 L632 252 L470 252 L526 313 L660 313 L679 404 L608 404 L656 458 C692 501 718 517 754 519 L775 519 L793 605 L505 605 L487 519 L512 519 C534 519 549 514 549 506 C549 499 541 484 533 474 L421 346 Z " />
<glyph glyph-name="brokenbar" unicode="&#xa6;" horiz-adv-x="530" d="M238 667 L161 304 L357 304 L434 667 L238 667 Z M129 153 L61 -167 L257 -167 L325 153 L129 153 Z " />
<glyph glyph-name="section" unicode="&#xa7;" horiz-adv-x="683" d="M151 -111 C181 -88 191 -72 191 -47 C191 -8 160 18 114 18 C55 18 6 -30 6 -89 C6 -164 86 -211 213 -211 C391 -211 530 -114 530 10 C530 52 514 78 462 119 C525 146 551 164 577 203 C597 232 608 266 608 297 C608 363 559 403 412 456 C288 501 275 509 275 537 C275 581 331 614 406 614 C438 614 452 611 481 597 C453 577 443 563 443 541 C443 505 475 481 520 481 C580 481 627 523 627 575 C627 644 545 687 415 687 C318 687 242 662 191 614 C154 581 130 529 130 487 C130 450 144 426 187 389 C126 362 101 346 73 316 C47 288 31 249 31 212 C31 149 70 112 173 74 C339 14 343 13 362 -3 C378 -16 384 -28 384 -44 C384 -97 326 -132 240 -132 C198 -132 185 -129 151 -111 L151 -111 Z M257 341 C284 341 323 329 413 291 C450 275 468 257 468 236 C468 199 421 163 376 165 C347 166 253 198 206 223 C184 235 170 254 170 274 C170 308 213 341 257 341 L257 341 Z " />
<glyph glyph-name="dieresis" unicode="&#xa8;" horiz-adv-x="534" d="M235 715 C184 715 136 670 136 622 C136 584 162 559 201 559 C250 559 295 604 295 652 C295 688 270 715 235 715 L235 715 Z M468 715 C417 715 369 670 369 622 C369 584 395 559 434 559 C483 559 528 604 528 652 C528 688 503 715 468 715 L468 715 Z " />
<glyph glyph-name="copyright" unicode="&#xa9;" horiz-adv-x="915" d="M574 294 C562 257 552 241 531 224 C508 204 478 194 449 194 C402 194 378 218 378 264 C378 304 396 383 413 414 C434 452 464 471 505 471 C534 471 556 460 567 440 C576 424 579 409 581 368 L663 368 L697 528 L623 528 L609 509 C567 529 544 534 495 534 C340 534 223 425 223 280 C223 185 291 132 415 132 C486 132 547 152 590 190 C619 215 632 239 649 294 L574 294 Z M542 703 C274 703 29 495 29 267 C29 92 177 -36 380 -36 C642 -36 886 174 886 400 C886 574 740 703 542 703 L542 703 Z M526 631 C684 631 801 527 801 388 C801 205 606 36 395 36 C232 36 113 139 113 280 C113 464 310 631 526 631 L526 631 Z " />
<glyph glyph-name="ordfeminine" unicode="&#xaa;" horiz-adv-x="458" d="M475 446 L425 446 L418 410 C415 398 413 396 403 396 C396 396 392 398 392 401 C392 403 392 406 393 410 L416 516 C419 530 421 545 421 553 C421 599 368 621 260 621 C145 621 68 585 68 532 C68 509 92 495 131 495 C177 495 208 513 208 541 C208 555 201 563 184 570 C198 575 206 576 220 576 C254 576 273 563 273 541 C273 508 249 495 172 486 C66 474 23 444 23 383 C23 340 57 318 123 318 C177 318 218 330 254 356 C273 328 296 318 341 318 C380 318 409 326 431 342 C451 357 460 373 467 407 L475 446 Z M250 424 C246 400 225 386 193 386 C172 386 158 394 158 407 C158 418 169 427 188 433 C201 437 213 441 226 444 C231 446 241 449 256 454 L250 424 Z " />
<glyph glyph-name="guillemotleft" unicode="&#xab;" horiz-adv-x="552" d="M219 67 C167 196 167 196 167 217 C167 252 184 280 282 406 L173 406 C58 296 22 252 22 224 C22 206 32 186 102 67 L219 67 Z M456 67 C404 196 404 196 404 217 C404 252 421 280 520 406 L410 406 C296 296 259 252 259 224 C259 206 271 182 339 67 L456 67 Z " />
<glyph glyph-name="logicalnot" unicode="&#xac;" horiz-adv-x="550" d="M252 0 L442 0 L506 299 L29 299 L-7 128 L280 128 L252 0 Z " />
<glyph glyph-name="uni00AD" unicode="&#xad;" horiz-adv-x="319" d="M-38 154 L281 154 L314 312 L-5 312 L-38 154 Z " />
<glyph glyph-name="registered" unicode="&#xae;" horiz-adv-x="915" d="M252 464 L279 464 C303 464 310 461 310 452 C310 449 309 443 307 435 L264 231 C259 205 256 203 223 202 L196 202 L183 143 L442 143 L455 202 L424 202 C401 202 393 205 393 214 C393 216 394 222 396 231 L413 312 L451 312 C487 312 502 305 501 288 C501 282 499 271 496 257 L489 226 C487 216 486 205 486 197 C486 155 517 134 581 134 C662 134 696 165 712 255 L663 255 C656 216 650 203 639 203 C634 203 630 208 630 215 C630 219 630 223 631 227 C643 280 643 282 643 298 C643 326 632 337 597 345 C656 360 692 398 692 446 C692 499 650 523 556 523 L264 523 L252 464 Z M424 369 L444 461 L485 461 C538 461 554 453 554 426 C554 410 548 396 537 385 C524 374 503 369 461 369 L424 369 Z M542 703 C274 703 29 495 29 267 C29 92 177 -36 380 -36 C642 -36 886 174 886 400 C886 574 740 703 542 703 L542 703 Z M526 631 C684 631 802 527 802 388 C802 205 606 36 395 36 C232 36 113 139 113 280 C113 464 310 631 526 631 L526 631 Z " />
<glyph glyph-name="macron" unicode="&#xaf;" horiz-adv-x="518" d="M155 585 L470 585 L489 672 L173 672 L155 585 Z " />
<glyph glyph-name="degree" unicode="&#xb0;" horiz-adv-x="400" d="M203 686 C117 686 50 619 50 534 C50 448 116 381 200 381 C284 381 350 448 350 533 C350 619 286 686 203 686 L203 686 Z M202 629 C252 629 293 586 293 534 C293 480 252 438 200 438 C148 438 106 481 106 533 C106 587 148 629 202 629 L202 629 Z " />
<glyph glyph-name="plusminus" unicode="&#xb1;" horiz-adv-x="549" d="M11 55 L11 0 L535 0 L535 55 L11 55 Z M302 662 L247 662 L247 423 L10 423 L10 368 L247 368 L247 129 L302 129 L302 368 L539 368 L539 423 L302 423 L302 662 Z " />
<glyph glyph-name="twosuperior" unicode="&#xb2;" horiz-adv-x="410" d="M81 266 C91 278 98 282 112 282 C122 282 133 280 145 278 C222 258 228 257 262 257 C306 257 339 271 362 300 C377 319 383 337 393 386 L328 386 C320 354 311 343 292 343 C288 343 284 343 281 344 C223 356 222 356 201 356 C174 356 156 352 117 337 C135 362 145 366 239 387 C311 403 348 420 376 450 C394 469 405 495 405 519 C405 577 347 615 258 615 C150 615 61 556 61 485 C61 457 81 441 114 441 C155 441 188 468 188 502 C188 524 177 532 145 533 C170 549 189 555 218 555 C259 555 282 541 282 517 C282 486 257 464 193 436 C68 381 28 343 14 266 L81 266 Z " />
<glyph glyph-name="threesuperior" unicode="&#xb3;" horiz-adv-x="410" d="M193 419 C246 417 266 405 266 376 C266 335 228 308 168 308 C140 308 128 310 104 321 C147 326 165 341 165 372 C165 396 147 410 114 410 C67 410 28 376 28 335 C28 284 82 257 187 257 C310 257 390 304 390 378 C390 413 372 431 322 448 C383 466 410 494 410 538 C410 587 361 615 273 615 C208 615 156 602 118 575 C92 557 74 527 74 503 C74 477 93 462 126 462 C166 462 194 483 194 514 C194 533 184 542 161 543 C183 559 196 563 224 563 C266 563 291 547 291 519 C291 500 279 482 260 475 C245 470 235 468 203 466 L193 419 Z " />
<glyph glyph-name="acute" unicode="&#xb4;" horiz-adv-x="522" d="M201 534 L259 534 L445 617 C491 638 512 661 512 691 C512 717 494 735 467 735 C441 735 420 724 376 686 L201 534 Z " />
<glyph glyph-name="mu" unicode="&#xb5;" horiz-adv-x="576" d="M442 500 L353 500 L354 131 C318 80 284 58 242 58 C184 58 150 99 150 169 L150 500 L62 500 L62 20 C62 -1 58 -26 51 -56 C34 -118 33 -123 33 -147 C33 -190 54 -219 83 -219 C112 -219 132 -189 132 -145 C132 -124 129 -110 113 -53 C102 -17 101 -8 101 21 L101 33 C143 -3 165 -13 200 -13 C250 -13 301 18 354 80 C362 48 367 36 377 21 C392 0 419 -13 449 -13 C510 -13 553 31 567 108 L540 109 C536 71 515 41 492 41 C462 41 442 77 442 131 L442 500 Z " />
<glyph glyph-name="paragraph" unicode="&#xb6;" horiz-adv-x="681" d="M150 -92 L262 -92 L402 565 L505 565 L365 -92 L477 -92 L617 565 L702 565 L723 667 L352 667 C256 667 186 649 138 612 C89 574 59 513 59 453 C59 413 73 381 99 360 C129 336 177 321 224 321 L238 321 L150 -92 Z " />
<glyph glyph-name="periodcentered" unicode="&#xb7;" horiz-adv-x="355" d="M177 326 C112 326 54 276 54 219 C54 173 87 143 137 143 C199 143 258 196 258 251 C258 294 224 326 177 326 L177 326 Z " />
<glyph glyph-name="cedilla" unicode="&#xb8;" horiz-adv-x="550" d="M4 -182 C81 -217 129 -230 181 -230 C266 -230 331 -182 331 -118 C331 -76 299 -49 250 -49 C238 -49 219 -51 201 -53 L213 0 L168 0 L147 -98 C162 -96 179 -94 187 -94 C217 -94 235 -106 235 -126 C235 -152 210 -171 174 -171 C134 -171 94 -159 43 -130 L4 -182 Z " />
<glyph glyph-name="onesuperior" unicode="&#xb9;" horiz-adv-x="410" d="M132 513 L192 513 L157 350 C152 320 149 318 97 316 L78 316 L68 267 L320 267 L330 316 L313 316 C279 316 267 320 268 330 L269 339 L326 605 L235 605 C218 578 192 566 142 562 L132 513 Z " />
<glyph glyph-name="ordmasculine" unicode="&#xba;" horiz-adv-x="444" d="M285 622 C138 622 40 548 40 435 C40 363 108 318 218 318 C361 318 461 394 461 502 C461 576 394 622 285 622 L285 622 Z M269 561 C305 561 320 548 320 518 C320 489 307 436 295 414 C282 390 263 379 231 379 C196 379 181 392 181 422 C181 451 194 505 206 527 C219 551 238 561 269 561 L269 561 Z " />
<glyph glyph-name="guillemotright" unicode="&#xbb;" horiz-adv-x="552" d="M341 67 C420 145 420 145 431 157 C478 205 492 225 492 245 C492 267 464 324 414 406 L305 406 C318 367 328 336 335 316 C344 290 348 273 348 262 C348 235 328 194 295 153 C274 127 251 99 224 67 L341 67 Z M104 67 C183 145 183 145 194 157 C241 205 255 225 255 245 C255 267 227 325 177 406 L68 406 C81 366 91 336 98 316 C107 290 111 273 111 262 C111 235 91 194 58 153 C37 127 14 99 -13 67 L104 67 Z " />
<glyph glyph-name="onequarter" unicode="&#xbc;" horiz-adv-x="1000" d="M132 513 L192 513 L157 350 C152 320 149 318 97 316 L78 316 L68 267 L320 267 L330 316 L313 316 C279 316 267 320 268 330 L269 339 L326 605 L235 605 C218 578 192 566 142 562 L132 513 Z M155 -17 L259 -17 L838 622 L735 622 L155 -17 Z M867 97 L927 97 L937 144 L877 144 L918 339 L799 339 L569 156 L556 97 L747 97 L744 83 C739 53 736 51 688 49 L671 49 L660 0 L906 0 L916 49 L901 49 C871 49 859 53 860 62 C860 64 861 68 862 72 L867 97 Z M635 144 L784 263 L757 144 L635 144 Z " />
<glyph glyph-name="onehalf" unicode="&#xbd;" horiz-adv-x="999" d="M132 513 L192 513 L157 350 C152 320 149 318 97 316 L78 316 L68 267 L320 267 L330 316 L313 316 C279 316 267 320 268 330 L269 339 L326 605 L235 605 C218 578 192 566 142 562 L132 513 Z M155 -17 L259 -17 L838 622 L735 622 L155 -17 Z M614 0 C624 12 631 16 645 16 C655 16 667 14 678 12 C755 -8 762 -9 795 -9 C839 -9 873 5 895 34 C910 53 917 71 926 119 L862 119 C854 87 844 76 825 76 C821 76 817 76 814 77 C757 89 756 89 734 89 C708 89 689 85 650 70 C669 95 678 99 772 120 C843 136 881 153 909 183 C927 202 938 228 938 252 C938 310 880 348 791 348 C683 348 594 289 594 218 C594 190 614 174 647 174 C689 174 722 201 722 235 C722 257 711 265 679 266 C703 282 722 288 751 288 C792 288 815 274 815 250 C815 219 790 197 726 169 C601 114 561 76 547 0 L614 0 Z " />
<glyph glyph-name="threequarters" unicode="&#xbe;" horiz-adv-x="999" d="M193 419 C246 417 266 405 266 376 C266 335 228 308 168 308 C140 308 128 310 104 321 C147 326 165 341 165 372 C165 396 147 410 114 410 C67 410 28 376 28 335 C28 284 82 257 187 257 C310 257 390 304 390 378 C390 413 372 431 322 448 C383 466 410 494 410 538 C410 587 361 615 273 615 C208 615 156 602 118 575 C92 557 74 527 74 503 C74 477 93 462 126 462 C166 462 194 483 194 514 C194 533 184 542 161 543 C183 559 196 563 224 563 C266 563 291 547 291 519 C291 500 279 482 260 475 C245 470 235 468 203 466 L193 419 Z M154 -17 L258 -17 L837 622 L734 622 L154 -17 Z M866 97 L926 97 L936 144 L876 144 L917 339 L798 339 L568 156 L556 97 L746 97 L743 83 C738 53 735 51 687 49 L670 49 L660 0 L905 0 L916 49 L900 49 C870 49 860 52 860 62 C860 65 860 69 861 72 L866 97 Z M635 144 L783 263 L756 144 L635 144 Z " />
<glyph glyph-name="questiondown" unicode="&#xbf;" horiz-adv-x="650" d="M383 483 C321 483 262 430 262 375 C262 331 297 300 345 300 C409 300 466 350 466 407 C466 454 434 483 383 483 L383 483 Z M269 257 C256 210 246 199 189 166 C116 126 71 96 38 65 C2 31 -22 -21 -22 -68 C-22 -163 63 -220 208 -220 C310 -220 390 -191 453 -133 C500 -89 528 -31 528 21 C528 83 496 114 432 114 C361 114 304 65 304 3 C304 -33 327 -54 365 -54 C376 -54 396 -52 413 -48 C397 -75 386 -88 371 -97 C348 -111 315 -119 284 -119 C228 -119 191 -91 191 -49 C191 -11 224 39 289 100 C383 188 388 195 396 257 L269 257 Z " />
<glyph glyph-name="Agrave" unicode="&#xc0;" horiz-adv-x="770" d="M305 0 L750 0 L770 94 L731 94 C681 96 678 100 668 165 L603 667 L337 667 L38 163 C7 112 -13 97 -56 94 L-84 94 L-104 0 L225 0 L245 94 L208 94 C175 94 160 99 160 110 C160 117 163 124 178 151 L215 214 L413 214 L424 143 L424 132 C424 97 419 94 358 94 L325 94 L305 0 Z M398 310 L269 310 L375 512 L398 310 Z M528 723 L585 723 L467 851 C448 872 435 879 418 879 C389 879 358 849 358 821 C358 803 371 786 393 777 L528 723 Z " />
<glyph glyph-name="Aacute" unicode="&#xc1;" horiz-adv-x="770" d="M305 0 L750 0 L770 94 L731 94 C681 96 678 100 668 165 L603 667 L337 667 L38 163 C7 112 -13 97 -56 94 L-84 94 L-104 0 L225 0 L245 94 L208 94 C175 94 160 99 160 110 C160 117 163 124 178 151 L215 214 L413 214 L424 143 L424 132 C424 97 419 94 358 94 L325 94 L305 0 Z M398 310 L269 310 L375 512 L398 310 Z M408 723 L565 777 C601 790 623 814 623 839 C623 863 607 879 584 879 C567 879 551 872 524 851 L351 723 L408 723 Z " />
<glyph glyph-name="Acircumflex" unicode="&#xc2;" horiz-adv-x="770" d="M305 0 L750 0 L770 94 L731 94 C681 96 678 100 668 165 L603 667 L337 667 L38 163 C7 112 -13 97 -56 94 L-84 94 L-104 0 L225 0 L245 94 L208 94 C175 94 160 99 160 110 C160 117 163 124 178 151 L215 214 L413 214 L424 143 L424 132 C424 97 419 94 358 94 L325 94 L305 0 Z M398 310 L269 310 L375 512 L398 310 Z M309 723 L358 723 L484 782 L586 723 L635 723 L564 869 L441 869 L309 723 Z " />
<glyph glyph-name="Atilde" unicode="&#xc3;" horiz-adv-x="770" d="M305 0 L750 0 L770 94 L731 94 C681 96 678 100 668 165 L603 667 L337 667 L38 163 C7 112 -13 97 -56 94 L-84 94 L-104 0 L225 0 L245 94 L208 94 C175 94 160 99 160 110 C160 117 163 124 178 151 L215 214 L413 214 L424 143 L424 132 C424 97 419 94 358 94 L325 94 L305 0 Z M398 310 L269 310 L375 512 L398 310 Z M348 723 C363 753 379 766 402 766 C412 766 422 765 433 761 L487 746 C498 743 509 741 519 741 C548 741 575 752 599 774 C623 797 636 818 658 869 L619 869 C600 837 587 827 564 827 C557 827 549 828 542 830 L485 846 C473 849 461 851 448 851 C386 851 348 816 308 723 L348 723 Z " />
<glyph glyph-name="Adieresis" unicode="&#xc4;" horiz-adv-x="770" d="M305 0 L750 0 L770 94 L731 94 C681 96 678 100 668 165 L603 667 L337 667 L38 163 C7 112 -13 97 -56 94 L-84 94 L-104 0 L225 0 L245 94 L208 94 C175 94 160 99 160 110 C160 117 163 124 178 151 L215 214 L413 214 L424 143 L424 132 C424 97 419 94 358 94 L325 94 L305 0 Z M398 310 L269 310 L375 512 L398 310 Z M405 878 C356 878 309 834 309 788 C309 751 334 726 369 726 C418 726 465 770 465 815 C465 850 438 878 405 878 L405 878 Z M635 878 C586 878 539 834 539 788 C539 751 563 726 599 726 C648 726 694 770 694 816 C694 850 668 878 635 878 L635 878 Z " />
<glyph glyph-name="Aring" unicode="&#xc5;" horiz-adv-x="770" d="M305 0 L750 0 L770 94 L731 94 C681 96 678 100 668 165 L600 654 L335 654 L38 163 C6 112 -13 97 -56 94 L-84 94 L-104 0 L225 0 L245 94 L208 94 C175 94 160 99 160 110 C160 117 163 124 178 151 L215 214 L413 214 L424 143 L424 132 C424 97 419 94 358 94 L325 94 L305 0 Z M398 310 L269 310 L375 512 L398 310 Z M516 922 C440 922 372 859 372 788 C372 732 410 691 462 691 C535 691 607 760 607 831 C607 884 569 922 516 922 L516 922 Z M500 851 C521 850 535 835 535 814 C535 787 507 761 478 761 C457 761 442 777 442 798 C442 825 472 853 500 851 L500 851 Z " />
<glyph glyph-name="AE" unicode="&#xc6;" horiz-adv-x="1213" d="M473 214 L460 152 C451 101 443 95 383 94 L338 94 L318 0 L1080 0 L1139 275 L1021 275 C972 113 937 88 772 94 L656 94 L700 302 L736 302 C792 302 809 289 809 249 C809 237 806 212 803 191 L897 191 L962 495 L868 495 C847 411 827 392 753 389 L719 389 L758 573 L860 573 C1018 577 1049 553 1052 419 L1165 419 L1218 667 L281 667 L261 573 L301 573 C348 573 356 570 356 554 C356 545 350 533 340 521 L47 159 C4 111 -21 97 -68 94 L-95 94 L-115 0 L238 0 L258 94 L223 94 C192 94 176 100 176 111 C176 119 184 134 196 150 L248 214 L473 214 Z M493 310 L320 310 L525 573 L549 573 L493 310 Z " />
<glyph glyph-name="Ccedilla" unicode="&#xc7;" horiz-adv-x="808" d="M339 -20 C432 -21 514 -3 582 32 C679 86 720 139 754 258 L635 258 C613 193 596 166 558 135 C516 100 463 80 408 80 C325 80 281 125 281 208 C281 281 314 423 344 479 C382 549 438 585 510 585 C565 585 606 565 625 528 C640 498 645 473 649 402 L782 402 L840 676 L719 676 L693 640 C619 678 580 687 493 687 C358 687 238 640 151 553 C71 473 22 354 22 239 C22 86 111 3 296 -17 L278 -99 C293 -97 309 -95 317 -95 C346 -95 364 -107 364 -126 C364 -152 339 -171 304 -171 C264 -171 226 -159 175 -130 L137 -182 C214 -217 260 -230 312 -230 C397 -230 462 -182 462 -120 C462 -77 430 -50 380 -50 C369 -50 350 -52 332 -54 L339 -20 Z " />
<glyph glyph-name="Egrave" unicode="&#xc8;" horiz-adv-x="852" d="M856 667 L88 667 L68 573 L107 573 C152 573 167 567 167 548 C167 541 165 529 162 515 L85 152 C77 101 68 95 7 94 L-34 94 L-54 0 L719 0 L778 275 L657 275 C636 204 622 174 595 141 C554 98 532 93 403 94 L290 94 L334 301 L365 301 C423 301 441 289 441 248 C441 237 438 212 435 191 L531 191 L596 495 L500 495 C479 410 459 393 383 389 L353 389 L392 573 L491 573 C652 577 684 553 688 419 L804 419 L856 667 Z M548 723 L605 723 L486 851 C468 872 455 879 437 879 C408 879 377 849 377 821 C377 803 390 787 413 777 L548 723 Z " />
<glyph glyph-name="Eacute" unicode="&#xc9;" horiz-adv-x="852" d="M856 667 L88 667 L68 573 L107 573 C152 573 167 567 167 548 C167 541 165 529 162 515 L85 152 C77 101 68 95 7 94 L-34 94 L-54 0 L719 0 L778 275 L657 275 C636 204 622 174 595 141 C554 98 532 93 403 94 L290 94 L334 301 L365 301 C423 301 441 289 441 248 C441 237 438 212 435 191 L531 191 L596 495 L500 495 C479 410 459 393 383 389 L353 389 L392 573 L491 573 C652 577 684 553 688 419 L804 419 L856 667 Z M450 723 L607 777 C643 790 665 814 665 839 C665 863 649 879 626 879 C609 879 593 872 566 851 L393 723 L450 723 Z " />
<glyph glyph-name="Ecircumflex" unicode="&#xca;" horiz-adv-x="852" d="M856 667 L88 667 L68 573 L107 573 C152 573 167 567 167 548 C167 541 165 529 162 515 L85 152 C77 101 68 95 7 94 L-34 94 L-54 0 L719 0 L778 275 L657 275 C636 204 622 174 595 141 C554 98 532 93 403 94 L290 94 L334 301 L365 301 C423 301 441 289 441 248 C441 237 438 212 435 191 L531 191 L596 495 L500 495 C479 410 459 393 383 389 L353 389 L392 573 L491 573 C652 577 684 553 688 419 L804 419 L856 667 Z M346 723 L395 723 L522 782 L623 723 L673 723 L602 869 L479 869 L346 723 Z " />
<glyph glyph-name="Edieresis" unicode="&#xcb;" horiz-adv-x="852" d="M856 667 L88 667 L68 573 L107 573 C152 573 167 567 167 548 C167 541 165 529 162 515 L85 152 C77 101 68 95 7 94 L-34 94 L-54 0 L719 0 L778 275 L657 275 C636 204 622 174 595 141 C554 98 532 93 403 94 L290 94 L334 301 L365 301 C423 301 441 289 441 248 C441 237 438 212 435 191 L531 191 L596 495 L500 495 C479 410 459 393 383 389 L353 389 L392 573 L491 573 C652 577 684 553 688 419 L804 419 L856 667 Z M430 878 C381 878 334 834 334 788 C334 751 358 726 394 726 C442 726 489 770 489 816 C489 850 463 878 430 878 L430 878 Z M660 878 C610 878 563 834 563 788 C563 751 588 726 624 726 C672 726 719 770 719 816 C719 850 693 878 660 878 L660 878 Z " />
<glyph glyph-name="Igrave" unicode="&#xcc;" horiz-adv-x="481" d="M-49 0 L387 0 L407 94 L367 94 C322 94 306 100 306 119 C306 124 308 136 311 152 L389 515 C398 566 408 573 468 573 L509 573 L529 667 L93 667 L73 573 L113 573 C158 573 173 567 173 548 C173 540 171 529 169 515 L91 152 C82 101 72 95 12 94 L-29 94 L-49 0 Z M361 723 L418 723 L300 851 C281 872 269 879 251 879 C222 879 191 849 191 821 C191 803 204 786 227 777 L361 723 Z " />
<glyph glyph-name="Iacute" unicode="&#xcd;" horiz-adv-x="481" d="M-49 0 L387 0 L407 94 L367 94 C322 94 306 100 306 119 C306 124 308 136 311 152 L389 515 C398 566 408 573 468 573 L509 573 L529 667 L93 667 L73 573 L113 573 C158 573 173 567 173 548 C173 540 171 529 169 515 L91 152 C82 101 72 95 12 94 L-29 94 L-49 0 Z M278 723 L435 777 C471 790 493 814 493 839 C493 863 477 879 454 879 C437 879 421 872 394 851 L221 723 L278 723 Z " />
<glyph glyph-name="Icircumflex" unicode="&#xce;" horiz-adv-x="481" d="M-49 0 L387 0 L407 94 L367 94 C322 94 306 100 306 119 C306 124 308 136 311 152 L389 515 C398 566 408 573 468 573 L509 573 L529 667 L93 667 L73 573 L113 573 C158 573 173 567 173 548 C173 540 171 529 169 515 L91 152 C82 101 72 95 12 94 L-29 94 L-49 0 Z M159 723 L209 723 L335 782 L437 723 L486 723 L415 869 L292 869 L159 723 Z " />
<glyph glyph-name="Idieresis" unicode="&#xcf;" horiz-adv-x="481" d="M-49 0 L387 0 L407 94 L367 94 C322 94 306 100 306 119 C306 124 308 136 311 152 L389 515 C398 566 408 573 468 573 L509 573 L529 667 L93 667 L73 573 L113 573 C158 573 173 567 173 548 C173 540 171 529 169 515 L91 152 C82 101 72 95 12 94 L-29 94 L-49 0 Z M249 878 C200 878 153 834 153 788 C153 751 177 726 213 726 C261 726 308 770 308 816 C308 850 282 878 249 878 L249 878 Z M468 878 C418 878 371 834 371 788 C371 751 396 726 432 726 C480 726 527 770 527 816 C527 850 501 878 468 878 L468 878 Z " />
<glyph glyph-name="Eth" unicode="&#xd0;" horiz-adv-x="890" d="M-51 0 L343 0 C525 0 633 31 722 108 C809 182 860 298 860 422 C860 496 835 553 785 594 C721 647 638 667 485 667 L91 667 L71 572 L110 572 C157 572 171 567 171 548 C171 543 169 530 166 515 L139 391 L17 391 L-1 306 L121 306 L89 152 C81 102 72 95 10 94 L-31 94 L-51 0 Z M295 97 L339 306 L464 306 L483 391 L357 391 L395 570 L468 570 C516 570 556 558 579 536 C600 516 610 486 610 441 C610 367 585 264 553 202 C515 130 457 97 367 97 L295 97 Z " />
<glyph glyph-name="Ntilde" unicode="&#xd1;" horiz-adv-x="890" d="M451 667 L88 667 L68 572 L106 572 C149 572 163 566 163 547 C163 540 161 528 158 515 L81 151 C71 101 62 95 4 94 L-34 94 L-54 0 L270 0 L290 94 L255 94 C212 94 197 100 197 119 C197 123 199 136 202 151 L272 478 L461 0 L706 0 L816 515 C825 565 834 572 893 572 L921 572 L941 667 L619 667 L599 572 L642 572 C685 572 700 566 700 547 C700 544 700 542 694 515 L631 217 L451 667 Z M409 723 C424 753 440 766 463 766 C473 766 483 765 494 761 L548 746 C559 743 570 741 580 741 C609 741 636 752 660 774 C684 797 697 818 719 869 L680 869 C661 837 648 827 625 827 C618 827 610 828 603 830 L546 846 C534 849 522 851 509 851 C447 851 409 816 369 723 L409 723 Z " />
<glyph glyph-name="Ograve" unicode="&#xd2;" horiz-adv-x="923" d="M536 687 C377 687 249 642 156 552 C75 475 28 363 28 249 C28 177 51 119 97 73 C160 10 252 -20 386 -20 C547 -20 671 24 767 115 C848 193 895 304 895 418 C895 490 872 549 826 594 C761 658 671 687 536 687 L536 687 Z M514 586 C598 586 644 541 644 457 C644 382 612 244 581 188 C543 119 483 82 410 82 C324 82 278 127 278 211 C278 285 311 426 341 480 C379 549 440 586 514 586 L514 586 Z M587 723 L644 723 L525 851 C507 872 494 879 476 879 C447 879 416 849 416 821 C416 803 429 787 452 777 L587 723 Z " />
<glyph glyph-name="Oacute" unicode="&#xd3;" horiz-adv-x="923" d="M536 687 C377 687 249 642 156 552 C75 475 28 363 28 249 C28 177 51 119 97 73 C160 10 252 -20 386 -20 C547 -20 671 24 767 115 C848 193 895 304 895 418 C895 490 872 549 826 594 C761 658 671 687 536 687 L536 687 Z M514 586 C598 586 644 541 644 457 C644 382 612 244 581 188 C543 119 483 82 410 82 C324 82 278 127 278 211 C278 285 311 426 341 480 C379 549 440 586 514 586 L514 586 Z M489 723 L646 777 C682 790 704 814 704 839 C704 863 688 879 665 879 C648 879 632 872 605 851 L432 723 L489 723 Z " />
<glyph glyph-name="Ocircumflex" unicode="&#xd4;" horiz-adv-x="923" d="M536 687 C377 687 249 642 156 552 C75 475 28 363 28 249 C28 177 51 119 97 73 C160 10 252 -20 386 -20 C547 -20 671 24 767 115 C848 193 895 304 895 418 C895 490 872 549 826 594 C761 658 671 687 536 687 L536 687 Z M514 586 C598 586 644 541 644 457 C644 382 612 244 581 188 C543 119 483 82 410 82 C324 82 278 127 278 211 C278 285 311 426 341 480 C379 549 440 586 514 586 L514 586 Z M385 723 L434 723 L561 782 L662 723 L712 723 L641 869 L518 869 L385 723 Z " />
<glyph glyph-name="Otilde" unicode="&#xd5;" horiz-adv-x="923" d="M536 687 C377 687 249 642 156 552 C75 475 28 363 28 249 C28 177 51 119 97 73 C160 10 252 -20 386 -20 C547 -20 671 24 767 115 C848 193 895 304 895 418 C895 490 872 549 826 594 C761 658 671 687 536 687 L536 687 Z M514 586 C598 586 644 541 644 457 C644 382 612 244 581 188 C543 119 483 82 410 82 C324 82 278 127 278 211 C278 285 311 426 341 480 C379 549 440 586 514 586 L514 586 Z M429 723 C444 753 460 766 483 766 C493 766 502 765 514 761 L568 746 C579 743 590 741 600 741 C628 741 656 752 679 774 C704 797 717 818 739 869 L699 869 C681 837 668 827 645 827 C638 827 630 828 623 830 L566 846 C554 849 542 851 529 851 C467 851 428 816 389 723 L429 723 Z " />
<glyph glyph-name="Odieresis" unicode="&#xd6;" horiz-adv-x="923" d="M536 687 C377 687 249 642 156 552 C75 475 28 363 28 249 C28 177 51 119 97 73 C160 10 252 -20 386 -20 C547 -20 671 24 767 115 C848 193 895 304 895 418 C895 490 872 549 826 594 C761 658 671 687 536 687 L536 687 Z M518 586 C598 586 644 539 644 458 C644 382 612 244 580 188 C543 119 484 82 410 82 C324 82 278 127 278 211 C278 285 311 426 341 480 C380 551 439 586 518 586 L518 586 Z M471 878 C422 878 375 834 375 788 C375 751 399 726 435 726 C483 726 530 770 530 815 C530 850 503 878 471 878 L471 878 Z M700 878 C651 878 604 834 604 788 C604 751 629 726 664 726 C713 726 760 770 760 816 C760 850 734 878 700 878 L700 878 Z " />
<glyph glyph-name="multiply" unicode="&#xd7;" horiz-adv-x="710" d="M61 178 L146 82 L332 223 L457 82 L583 178 L457 319 L643 460 L557 556 L372 415 L247 556 L121 460 L246 319 L61 178 Z " />
<glyph glyph-name="Oslash" unicode="&#xd8;" horiz-adv-x="923" d="M873 707 L776 633 C718 669 639 687 536 687 C375 687 251 643 156 552 C75 474 28 363 28 251 C28 189 42 144 75 98 L-27 20 L25 -46 L137 39 C197 -1 278 -20 386 -20 C547 -20 672 24 767 115 C848 193 895 304 895 417 C895 483 879 530 841 577 L927 642 L873 707 Z M281 255 C290 326 305 393 327 448 C360 536 429 586 514 586 C573 586 611 565 631 523 L281 255 Z M643 425 C637 360 619 280 596 219 C562 132 495 82 410 82 C345 82 306 105 287 154 L643 425 Z " />
<glyph glyph-name="Ugrave" unicode="&#xd9;" horiz-adv-x="852" d="M555 573 L594 573 C637 573 652 567 652 548 C652 544 650 531 647 516 L583 214 C572 165 558 139 531 117 C504 96 458 83 407 83 C337 83 301 109 301 159 C301 172 303 188 311 222 L373 516 C383 566 392 573 453 573 L498 573 L518 667 L76 667 L56 573 L98 573 C143 573 158 567 158 548 C158 542 156 530 153 516 L84 189 C80 173 78 154 78 141 C78 40 177 -20 344 -20 C555 -20 684 56 714 197 L782 519 C791 565 801 573 859 573 L894 573 L914 667 L575 667 L555 573 Z M547 723 L604 723 L486 851 C467 872 454 879 437 879 C408 879 377 849 377 821 C377 803 390 786 412 777 L547 723 Z " />
<glyph glyph-name="Uacute" unicode="&#xda;" horiz-adv-x="852" d="M555 573 L594 573 C637 573 652 567 652 548 C652 544 650 531 647 516 L583 214 C572 165 558 139 531 117 C504 96 458 83 407 83 C337 83 301 109 301 159 C301 172 303 188 311 222 L373 516 C383 566 392 573 453 573 L498 573 L518 667 L76 667 L56 573 L98 573 C143 573 158 567 158 548 C158 542 156 530 153 516 L84 189 C80 173 78 154 78 141 C78 40 177 -20 344 -20 C555 -20 684 56 714 197 L782 519 C791 565 801 573 859 573 L894 573 L914 667 L575 667 L555 573 Z M449 723 L607 777 C642 790 664 814 664 839 C664 863 648 879 625 879 C608 879 592 872 565 851 L392 723 L449 723 Z " />
<glyph glyph-name="Ucircumflex" unicode="&#xdb;" horiz-adv-x="852" d="M555 573 L594 573 C637 573 652 567 652 548 C652 544 650 531 647 516 L583 214 C572 165 558 139 531 117 C504 96 458 83 407 83 C337 83 301 109 301 159 C301 172 303 188 311 222 L373 516 C383 566 392 573 453 573 L498 573 L518 667 L76 667 L56 573 L98 573 C143 573 158 567 158 548 C158 542 156 530 153 516 L84 189 C80 173 78 154 78 141 C78 40 177 -20 344 -20 C555 -20 684 56 714 197 L782 519 C791 565 801 573 859 573 L894 573 L914 667 L575 667 L555 573 Z M345 723 L395 723 L521 782 L623 723 L672 723 L601 869 L478 869 L345 723 Z " />
<glyph glyph-name="Udieresis" unicode="&#xdc;" horiz-adv-x="852" d="M555 573 L594 573 C637 573 652 567 652 548 C652 544 650 531 647 516 L583 214 C572 165 558 139 531 117 C504 96 458 83 407 83 C337 83 301 109 301 159 C301 172 303 188 311 222 L373 516 C383 566 392 573 453 573 L498 573 L518 667 L76 667 L56 573 L98 573 C143 573 158 567 158 548 C158 542 156 530 153 516 L84 189 C80 173 78 154 78 141 C78 40 177 -20 344 -20 C555 -20 684 56 714 197 L782 519 C791 565 801 573 859 573 L894 573 L914 667 L575 667 L555 573 Z M447 878 C398 878 351 834 351 788 C351 751 375 726 411 726 C459 726 506 770 506 816 C506 850 480 878 447 878 L447 878 Z M677 878 C627 878 580 834 580 788 C580 751 605 726 641 726 C689 726 736 770 736 816 C736 851 710 878 677 878 L677 878 Z " />
<glyph glyph-name="Yacute" unicode="&#xdd;" horiz-adv-x="754" d="M24 573 L45 573 C89 570 109 555 132 510 L252 268 L227 152 C219 101 211 95 149 94 L103 94 L83 0 L529 0 L549 94 L503 94 C458 94 443 100 443 119 C443 124 445 136 448 152 L473 268 L698 506 C737 553 765 570 806 573 L828 573 L848 667 L519 667 L499 573 L521 573 C543 573 558 567 558 558 C558 551 551 535 541 523 L437 393 L382 521 C379 529 377 538 377 543 C377 563 394 573 428 573 L451 573 L471 667 L44 667 L24 573 Z M423 723 L580 777 C616 790 638 814 638 839 C638 863 622 879 599 879 C582 879 566 872 538 851 L365 723 L423 723 Z " />
<glyph glyph-name="Thorn" unicode="&#xde;" horiz-adv-x="819" d="M-54 0 L387 0 L407 94 L366 94 C326 94 312 100 312 118 C312 123 314 133 316 145 L318 154 L459 154 C597 154 668 172 726 221 C773 261 801 320 801 379 C801 420 786 454 759 477 C718 513 658 526 538 526 L397 526 L398 532 C406 566 419 573 467 573 L509 573 L529 667 L88 667 L68 573 L104 573 C146 573 159 566 158 546 C158 542 157 537 156 532 L74 145 C65 102 55 94 3 94 L-34 94 L-54 0 Z M338 243 L378 435 L432 435 C535 435 571 417 571 366 C571 336 560 305 542 285 C514 255 471 243 387 243 L338 243 Z " />
<glyph glyph-name="germandbls" unicode="&#xdf;" horiz-adv-x="726" d="M-30 88 L-49 0 L211 0 L315 490 C327 549 338 569 364 585 C383 597 407 603 432 603 C481 603 509 584 509 550 C509 527 500 505 484 487 C461 461 434 451 376 449 L358 361 C392 360 412 359 418 358 C466 348 488 324 488 284 C488 255 473 170 459 125 C449 89 434 76 404 76 C384 76 371 83 371 96 C371 103 372 109 373 116 L385 174 L314 174 L301 113 C299 102 298 91 298 78 C298 56 302 40 312 28 C330 2 371 -13 420 -13 C495 -13 564 20 612 77 C655 130 682 200 682 260 C682 302 668 337 639 362 C614 385 587 396 524 411 C602 429 635 445 666 478 C689 504 703 538 703 570 C703 646 619 687 464 687 C354 687 271 667 207 623 C153 587 132 549 111 449 L44 135 C36 96 27 88 -13 88 L-30 88 Z " />
<glyph glyph-name="agrave" unicode="&#xe0;" horiz-adv-x="694" d="M652 189 L585 189 L573 133 C568 109 562 103 543 103 C531 103 523 109 523 117 C523 120 524 126 525 133 L564 313 C569 337 572 362 572 378 C572 410 558 434 532 449 C486 474 420 486 332 486 C158 486 41 426 41 337 C41 296 73 272 130 272 C197 272 245 307 245 355 C245 380 233 393 199 404 C230 417 246 421 271 421 C325 421 355 398 355 358 C355 338 347 317 335 304 C312 280 278 269 192 258 C94 245 44 227 8 191 C-17 166 -33 125 -33 85 C-33 18 18 -17 115 -17 C158 -17 204 -9 244 6 C272 16 286 24 317 50 C346 -1 379 -17 449 -17 C507 -17 552 -4 585 23 C613 46 627 72 639 128 L652 189 Z M317 157 C309 113 273 87 223 87 C188 87 165 103 165 127 C165 148 184 166 216 178 L273 197 C279 199 304 208 329 218 L317 157 Z M463 534 L352 686 C326 722 308 735 283 735 C247 735 213 703 213 668 C213 649 225 634 255 618 L405 534 L463 534 Z " />
<glyph glyph-name="aacute" unicode="&#xe1;" horiz-adv-x="694" d="M652 189 L585 189 L573 133 C568 109 562 103 543 103 C531 103 523 109 523 117 C523 120 524 126 525 133 L564 313 C569 337 572 362 572 378 C572 410 558 434 532 449 C486 474 420 486 332 486 C158 486 41 426 41 337 C41 296 73 272 130 272 C197 272 245 307 245 355 C245 380 233 393 199 404 C230 417 246 421 271 421 C325 421 355 398 355 358 C355 338 347 317 335 304 C312 280 278 269 192 258 C94 245 44 227 8 191 C-17 166 -33 125 -33 85 C-33 18 18 -17 115 -17 C158 -17 204 -9 244 6 C272 16 286 24 317 50 C346 -1 379 -17 449 -17 C507 -17 552 -4 585 23 C613 46 627 72 639 128 L652 189 Z M317 157 C309 113 273 87 223 87 C188 87 165 103 165 127 C165 148 184 166 216 178 L273 197 C279 199 304 208 329 218 L317 157 Z M280 534 L338 534 L524 617 C571 639 591 661 591 691 C591 717 573 735 546 735 C520 735 498 723 455 686 L280 534 Z " />
<glyph glyph-name="acircumflex" unicode="&#xe2;" horiz-adv-x="694" d="M652 189 L585 189 L573 133 C568 109 562 103 543 103 C531 103 523 109 523 117 C523 120 524 126 525 133 L564 313 C569 337 572 362 572 378 C572 410 558 434 532 449 C486 474 420 486 332 486 C158 486 41 426 41 337 C41 296 73 272 130 272 C197 272 245 307 245 355 C245 380 233 393 199 404 C230 417 246 421 271 421 C325 421 355 398 355 358 C355 338 347 317 335 304 C312 280 278 269 192 258 C94 245 44 227 8 191 C-17 166 -33 125 -33 85 C-33 18 18 -17 115 -17 C158 -17 204 -9 244 6 C272 16 286 24 317 50 C346 -1 379 -17 449 -17 C507 -17 552 -4 585 23 C613 46 627 72 639 128 L652 189 Z M317 157 C309 113 273 87 223 87 C188 87 165 103 165 127 C165 148 184 166 216 178 L273 197 C279 199 304 208 329 218 L317 157 Z M199 534 L250 534 L382 622 L477 534 L529 534 L452 724 L357 724 L199 534 Z " />
<glyph glyph-name="atilde" unicode="&#xe3;" horiz-adv-x="694" d="M652 189 L585 189 L573 133 C568 109 562 103 543 103 C531 103 523 109 523 117 C523 120 524 126 525 133 L564 313 C569 337 572 362 572 378 C572 410 558 434 532 449 C486 474 420 486 332 486 C158 486 41 426 41 337 C41 296 73 272 130 272 C197 272 245 307 245 355 C245 380 233 393 199 404 C230 417 246 421 271 421 C325 421 355 398 355 358 C355 338 347 317 335 304 C312 280 278 269 192 258 C94 245 44 227 8 191 C-17 166 -33 125 -33 85 C-33 18 18 -17 115 -17 C158 -17 204 -9 244 6 C272 16 286 24 317 50 C346 -1 379 -17 449 -17 C507 -17 552 -4 585 23 C613 46 627 72 639 128 L652 189 Z M317 157 C309 113 273 87 223 87 C188 87 165 103 165 127 C165 148 184 166 216 178 L273 197 C279 199 304 208 329 218 L317 157 Z M238 549 C254 583 272 597 296 597 C307 597 317 596 328 592 L385 576 C396 573 407 571 418 571 C448 571 478 583 501 605 C526 629 540 651 565 708 L523 708 C502 671 489 661 465 661 C458 661 449 662 441 664 L383 681 C370 684 357 686 343 686 C317 686 292 677 270 661 C241 639 223 613 195 549 L238 549 Z " />
<glyph glyph-name="adieresis" unicode="&#xe4;" horiz-adv-x="694" d="M652 189 L585 189 L573 133 C568 109 562 103 543 103 C531 103 523 109 523 117 C523 120 524 126 525 133 L564 313 C569 337 572 362 572 378 C572 410 558 434 532 449 C486 474 420 486 332 486 C158 486 41 426 41 337 C41 296 73 272 130 272 C197 272 245 307 245 355 C245 380 233 393 199 404 C230 417 246 421 271 421 C325 421 355 398 355 358 C355 338 347 317 335 304 C312 280 278 269 192 258 C94 245 44 227 8 191 C-17 166 -33 125 -33 85 C-33 18 18 -17 115 -17 C158 -17 204 -9 244 6 C272 16 286 24 317 50 C346 -1 379 -17 449 -17 C507 -17 552 -4 585 23 C613 46 627 72 639 128 L652 189 Z M317 157 C309 113 273 87 223 87 C188 87 165 103 165 127 C165 148 184 166 216 178 L273 197 C279 199 304 208 329 218 L317 157 Z M291 715 C240 715 192 670 192 622 C192 584 218 559 257 559 C306 559 351 604 351 652 C351 688 326 715 291 715 L291 715 Z M524 715 C473 715 425 670 425 622 C425 584 451 559 490 559 C539 559 584 604 584 652 C584 688 559 715 524 715 L524 715 Z " />
<glyph glyph-name="aring" unicode="&#xe5;" horiz-adv-x="694" d="M652 189 L585 189 L573 133 C568 109 562 103 543 103 C531 103 523 109 523 117 C523 120 524 126 525 133 L564 313 C569 337 572 362 572 378 C572 410 558 434 532 449 C486 474 420 486 332 486 C158 486 41 426 41 337 C41 296 73 272 130 272 C197 272 245 307 245 355 C245 380 233 393 199 404 C230 417 246 421 271 421 C325 421 355 398 355 358 C355 338 347 317 335 304 C312 280 278 269 192 258 C94 245 44 227 8 191 C-17 166 -33 125 -33 85 C-33 18 18 -17 115 -17 C158 -17 204 -9 244 6 C272 16 286 24 317 50 C346 -1 379 -17 449 -17 C507 -17 552 -4 585 23 C613 46 627 72 639 128 L652 189 Z M317 157 C309 113 273 87 223 87 C188 87 165 103 165 127 C165 148 184 166 216 178 L273 197 C279 199 304 208 329 218 L317 157 Z M419 793 C328 793 247 717 247 631 C247 565 291 520 354 520 C442 520 525 599 525 683 C525 746 479 793 419 793 L419 793 Z M399 715 C427 713 445 694 445 667 C445 632 409 598 372 598 C344 598 326 617 326 645 C326 681 364 717 399 715 L399 715 Z " />
<glyph glyph-name="ae" unicode="&#xe6;" horiz-adv-x="928" d="M723 163 C694 101 657 74 603 74 C551 74 519 105 521 151 C522 167 524 186 529 207 L860 207 C869 246 874 287 874 309 C874 352 861 390 835 422 C800 464 742 486 663 486 C603 486 567 477 494 442 C424 477 387 486 320 486 C158 486 41 424 41 337 C41 296 73 272 129 272 C196 272 244 307 244 355 C244 380 232 393 198 404 C228 417 242 420 270 420 C325 420 354 399 354 359 C354 339 346 317 334 304 C310 279 274 267 191 257 C91 246 45 229 8 191 C-18 165 -33 126 -33 87 C-33 18 20 -17 126 -17 C175 -17 225 -9 265 7 C298 19 319 33 361 69 C385 40 399 27 419 15 C454 -6 504 -18 563 -18 C636 -18 710 3 759 38 C799 66 821 96 853 163 L723 163 Z M547 294 C559 335 566 351 578 366 C594 385 622 398 648 398 C683 398 706 375 706 339 C706 329 703 311 700 294 L547 294 Z M316 156 C307 113 272 87 222 87 C187 87 165 103 165 126 C165 147 184 166 216 177 L272 197 C278 198 302 208 327 218 L316 156 Z " />
<glyph glyph-name="ccedilla" unicode="&#xe7;" horiz-adv-x="579" d="M224 -19 L236 -19 C295 -19 352 -6 402 18 C459 46 486 81 514 163 L380 163 C372 135 364 120 354 108 C334 87 305 74 276 74 C228 74 202 100 202 149 C202 195 225 294 244 332 C266 375 304 397 357 397 C387 397 397 392 411 373 C381 369 366 363 350 346 C335 330 326 309 326 288 C326 248 357 226 411 226 C495 226 552 278 552 353 C552 436 477 487 355 487 C246 487 155 455 91 395 C31 339 -5 257 -5 176 C-5 122 13 77 47 44 C81 12 114 -2 181 -14 L163 -98 C177 -96 194 -94 202 -94 C232 -94 249 -106 249 -126 C249 -152 224 -171 189 -171 C149 -171 111 -159 59 -130 L20 -182 C97 -217 145 -230 196 -230 C281 -230 345 -182 345 -118 C345 -76 314 -49 264 -49 C253 -49 234 -51 217 -53 L224 -19 Z " />
<glyph glyph-name="egrave" unicode="&#xe8;" horiz-adv-x="623" d="M418 163 C405 136 395 122 383 110 C359 88 327 75 294 75 C240 75 209 103 209 152 C209 163 212 187 217 207 L559 207 C567 245 572 286 572 308 C572 419 487 487 348 487 C145 487 -6 355 -6 176 C-6 52 83 -18 241 -18 C324 -18 405 3 456 38 C495 65 519 96 552 163 L418 163 Z M235 294 C247 334 254 351 267 366 C283 385 312 398 338 398 C374 398 398 374 398 339 C398 328 396 311 393 294 L235 294 Z M427 534 L317 686 C290 722 272 735 247 735 C211 735 177 703 177 668 C177 649 189 634 219 618 L369 534 L427 534 Z " />
<glyph glyph-name="eacute" unicode="&#xe9;" horiz-adv-x="623" d="M418 163 C405 136 395 122 383 110 C359 88 327 75 294 75 C240 75 209 103 209 152 C209 163 212 187 217 207 L559 207 C567 245 572 286 572 308 C572 419 487 487 348 487 C145 487 -6 355 -6 176 C-6 52 83 -18 241 -18 C324 -18 405 3 456 38 C495 65 519 96 552 163 L418 163 Z M235 294 C247 334 254 351 267 366 C283 385 312 398 338 398 C374 398 398 374 398 339 C398 328 396 311 393 294 L235 294 Z M251 534 L309 534 L495 617 C543 639 563 661 563 691 C563 717 545 735 517 735 C492 735 469 723 427 686 L251 534 Z " />
<glyph glyph-name="ecircumflex" unicode="&#xea;" horiz-adv-x="623" d="M418 163 C405 136 395 122 383 110 C359 88 327 75 294 75 C240 75 209 103 209 152 C209 163 212 187 217 207 L559 207 C567 245 572 286 572 308 C572 419 487 487 348 487 C145 487 -6 355 -6 176 C-6 52 83 -18 241 -18 C324 -18 405 3 456 38 C495 65 519 96 552 163 L418 163 Z M235 294 C247 334 254 351 267 366 C283 385 312 398 338 398 C374 398 398 374 398 339 C398 328 396 311 393 294 L235 294 Z M188 534 L240 534 L372 622 L467 534 L519 534 L442 724 L347 724 L188 534 Z " />
<glyph glyph-name="edieresis" unicode="&#xeb;" horiz-adv-x="623" d="M418 163 C405 136 395 122 383 110 C359 88 327 75 294 75 C240 75 209 103 209 152 C209 163 212 187 217 207 L559 207 C567 245 572 286 572 308 C572 419 487 487 348 487 C145 487 -6 355 -6 176 C-6 52 83 -18 241 -18 C324 -18 405 3 456 38 C495 65 519 96 552 163 L418 163 Z M235 294 C247 334 254 351 267 366 C283 385 312 398 338 398 C374 398 398 374 398 339 C398 328 396 311 393 294 L235 294 Z M279 715 C228 715 180 670 180 622 C180 584 206 559 245 559 C294 559 339 604 339 652 C339 688 314 715 279 715 L279 715 Z M512 715 C461 715 413 670 413 622 C413 584 439 559 478 559 C527 559 572 604 572 652 C572 688 547 715 512 715 L512 715 Z " />
<glyph glyph-name="igrave" unicode="&#xec;" horiz-adv-x="399" d="M-49 0 L309 0 L327 87 L306 87 C268 87 256 93 256 113 C256 122 256 127 258 134 L329 469 L51 469 L32 382 L54 382 C88 382 98 376 98 357 C98 351 97 342 95 335 L53 134 C44 95 35 88 -8 87 L-30 87 L-49 0 Z M322 534 L241 684 C221 722 206 735 181 735 C144 735 113 707 113 673 C113 654 125 637 151 618 L270 534 L322 534 Z " />
<glyph glyph-name="iacute" unicode="&#xed;" horiz-adv-x="399" d="M-49 0 L309 0 L327 87 L306 87 C268 87 256 93 256 113 C256 122 256 127 258 134 L329 469 L51 469 L32 382 L54 382 C88 382 98 376 98 357 C98 351 97 342 95 335 L53 134 C44 95 35 88 -8 87 L-30 87 L-49 0 Z M141 534 L194 534 L349 618 C393 642 414 667 414 696 C414 719 396 735 368 735 C343 735 323 722 286 684 L141 534 Z " />
<glyph glyph-name="icircumflex" unicode="&#xee;" horiz-adv-x="392" d="M-56 0 L302 0 L320 87 L299 87 C261 87 249 93 249 113 C249 122 250 127 251 134 L322 469 L44 469 L25 382 L47 382 C81 382 91 376 91 357 C91 351 90 342 88 335 L46 134 C37 95 28 88 -15 87 L-37 87 L-56 0 Z M66 534 L117 534 L239 622 L324 534 L375 534 L307 724 L215 724 L66 534 Z " />
<glyph glyph-name="idieresis" unicode="&#xef;" horiz-adv-x="386" d="M319 87 L298 87 C260 87 248 93 248 113 C248 123 248 127 250 134 L321 469 L43 469 L24 382 L46 382 C80 382 90 376 90 357 C90 351 89 342 87 335 L45 134 C36 95 27 88 -16 87 L-38 87 L-57 0 L301 0 L319 87 Z M154 715 C103 715 55 670 55 623 C55 584 81 559 120 559 C169 559 214 604 214 652 C214 688 189 715 154 715 L154 715 Z M375 715 C324 715 276 670 276 623 C276 584 302 559 341 559 C390 559 435 604 435 652 C435 688 410 715 375 715 L375 715 Z " />
<glyph glyph-name="eth" unicode="&#xf0;" horiz-adv-x="672" d="M267 667 C282 642 289 629 301 603 L211 573 L228 506 L330 540 C344 512 348 503 356 481 C347 483 342 483 334 483 C248 483 147 445 88 390 C30 336 -4 255 -4 172 C-4 55 96 -17 261 -17 C374 -17 475 18 541 80 C600 134 635 216 635 297 C635 343 621 389 594 431 C570 469 568 471 489 565 L472 586 L551 613 L533 680 L422 643 L412 655 L401 667 L267 667 Z M348 394 C404 394 428 371 428 320 C428 273 406 176 386 138 C364 95 331 75 281 75 C226 75 202 98 202 150 C202 197 224 292 244 331 C266 374 298 394 348 394 L348 394 Z " />
<glyph glyph-name="ntilde" unicode="&#xf1;" horiz-adv-x="754" d="M690 87 L666 87 C628 87 616 93 616 113 C616 121 617 127 618 134 L655 308 C662 340 666 370 666 387 C666 445 610 482 521 482 C438 482 384 460 312 396 L328 469 L40 469 L21 382 L51 382 C89 382 101 376 101 357 C101 349 100 342 99 335 L56 134 C47 95 38 88 -11 87 L-41 87 L-60 0 L287 0 L306 87 C258 87 249 92 249 113 C249 118 250 127 252 134 L284 288 C297 347 339 383 396 383 C438 383 462 365 462 332 C462 323 461 313 459 303 L423 134 C413 92 405 87 346 87 L327 0 L672 0 L690 87 Z M297 549 C314 583 331 597 356 597 C366 597 376 596 387 592 L444 576 C455 573 466 571 477 571 C508 571 537 583 560 605 C585 629 599 651 624 708 L582 708 C561 671 549 661 524 661 C517 661 509 662 501 664 L442 681 C429 684 417 686 403 686 C377 686 351 677 330 661 C301 639 283 613 255 549 L297 549 Z " />
<glyph glyph-name="ograve" unicode="&#xf2;" horiz-adv-x="672" d="M372 486 C255 486 155 452 87 390 C30 337 -5 255 -5 173 C-5 55 95 -17 260 -17 C479 -17 634 111 634 292 C634 413 535 486 372 486 L372 486 Z M348 394 C404 394 428 371 428 320 C428 273 406 176 386 138 C364 95 331 75 281 75 C225 75 201 98 201 150 C201 197 223 293 243 331 C265 374 298 394 348 394 L348 394 Z M452 534 L342 686 C315 722 297 735 272 735 C236 735 202 703 202 668 C202 649 214 634 244 618 L394 534 L452 534 Z " />
<glyph glyph-name="oacute" unicode="&#xf3;" horiz-adv-x="672" d="M372 486 C255 486 155 452 87 390 C30 337 -5 255 -5 173 C-5 55 95 -17 260 -17 C479 -17 634 111 634 292 C634 413 535 486 372 486 L372 486 Z M348 394 C404 394 428 371 428 320 C428 273 406 176 386 138 C364 95 331 75 281 75 C225 75 201 98 201 150 C201 197 223 293 243 331 C265 374 298 394 348 394 L348 394 Z M276 534 L334 534 L520 617 C568 639 588 661 588 691 C588 717 570 735 543 735 C517 735 494 723 452 686 L276 534 Z " />
<glyph glyph-name="ocircumflex" unicode="&#xf4;" horiz-adv-x="672" d="M372 486 C255 486 155 452 87 390 C30 337 -5 255 -5 173 C-5 55 95 -17 260 -17 C479 -17 634 111 634 292 C634 413 535 486 372 486 L372 486 Z M348 394 C404 394 428 371 428 320 C428 273 406 176 386 138 C364 95 331 75 281 75 C225 75 201 98 201 150 C201 197 223 293 243 331 C265 374 298 394 348 394 L348 394 Z M213 534 L265 534 L397 622 L492 534 L544 534 L467 724 L372 724 L213 534 Z " />
<glyph glyph-name="otilde" unicode="&#xf5;" horiz-adv-x="672" d="M372 486 C255 486 155 452 87 390 C30 337 -5 255 -5 173 C-5 55 95 -17 260 -17 C479 -17 634 111 634 292 C634 413 535 486 372 486 L372 486 Z M348 394 C404 394 428 371 428 320 C428 273 406 176 386 138 C364 95 331 75 281 75 C225 75 201 98 201 150 C201 197 223 293 243 331 C265 374 298 394 348 394 L348 394 Z M257 549 C273 583 291 597 315 597 C326 597 335 596 346 592 L403 576 C414 573 426 571 436 571 C467 571 496 583 520 605 C544 629 558 651 584 708 L541 708 C521 671 508 661 483 661 C476 661 468 662 460 664 L401 681 C388 684 376 686 362 686 C336 686 310 677 289 661 C260 639 242 613 214 549 L257 549 Z " />
<glyph glyph-name="odieresis" unicode="&#xf6;" horiz-adv-x="672" d="M371 486 C254 486 154 452 86 390 C29 337 -6 255 -6 173 C-6 55 94 -17 259 -17 C478 -17 633 111 633 292 C633 413 534 486 371 486 L371 486 Z M347 394 C403 394 427 371 427 320 C427 273 405 176 385 138 C363 95 330 75 280 75 C224 75 200 98 200 150 C200 197 222 293 242 331 C264 374 297 394 347 394 L347 394 Z M305 715 C254 715 206 670 206 622 C206 584 232 559 271 559 C320 559 365 604 365 652 C365 688 340 715 305 715 L305 715 Z M538 715 C487 715 439 670 439 622 C439 584 465 559 504 559 C553 559 598 604 598 652 C598 688 573 715 538 715 L538 715 Z " />
<glyph glyph-name="divide" unicode="&#xf7;" horiz-adv-x="549" d="M273 126 C239 126 211 99 211 64 C211 30 238 2 273 2 C306 2 334 30 334 64 C334 98 306 126 273 126 L273 126 Z M273 525 C239 525 211 498 211 463 C211 429 238 401 273 401 C306 401 334 429 334 463 C334 497 306 525 273 525 L273 525 Z M10 294 L10 239 L536 239 L536 294 L10 294 Z " />
<glyph glyph-name="oslash" unicode="&#xf8;" horiz-adv-x="672" d="M605 517 L527 456 C483 476 429 486 368 486 C147 486 -4 358 -4 173 C-4 129 6 99 31 66 L-47 6 L4 -50 L91 18 C138 -5 194 -17 261 -17 C479 -17 634 111 634 291 C634 342 622 377 591 410 L658 463 L605 517 Z M208 205 C231 345 268 394 348 394 C382 394 402 387 416 369 L208 205 Z M424 280 C402 129 364 75 281 75 C242 75 219 86 209 110 L424 280 Z " />
<glyph glyph-name="ugrave" unicode="&#xf9;" horiz-adv-x="754" d="M372 0 L664 0 L683 87 L655 87 C615 87 602 93 602 113 C602 123 602 127 604 134 L675 469 L414 469 L395 381 L414 381 C444 381 454 376 454 358 C454 352 453 343 451 335 L418 181 C406 122 361 86 301 86 C255 86 230 105 230 138 C230 146 231 156 233 166 L298 469 L40 469 L21 381 L37 381 C67 381 78 375 77 358 C77 351 76 343 74 335 L36 156 C29 125 25 95 25 79 C25 20 82 -17 174 -17 C258 -17 313 5 387 69 L372 0 Z M493 534 L382 686 C356 722 338 735 313 735 C277 735 243 703 243 668 C243 649 255 634 285 618 L435 534 L493 534 Z " />
<glyph glyph-name="uacute" unicode="&#xfa;" horiz-adv-x="754" d="M372 0 L664 0 L683 87 L655 87 C615 87 602 93 602 113 C602 123 602 127 604 134 L675 469 L414 469 L395 381 L414 381 C444 381 454 376 454 358 C454 352 453 343 451 335 L418 181 C406 122 361 86 301 86 C255 86 230 105 230 138 C230 146 231 156 233 166 L298 469 L40 469 L21 381 L37 381 C67 381 78 375 77 358 C77 351 76 343 74 335 L36 156 C29 125 25 95 25 79 C25 20 82 -17 174 -17 C258 -17 313 5 387 69 L372 0 Z M317 534 L375 534 L561 617 C608 638 628 661 628 691 C628 717 610 735 583 735 C557 735 535 723 492 686 L317 534 Z " />
<glyph glyph-name="ucircumflex" unicode="&#xfb;" horiz-adv-x="754" d="M372 0 L664 0 L683 87 L655 87 C615 87 602 93 602 113 C602 123 602 127 604 134 L675 469 L414 469 L395 381 L414 381 C444 381 454 376 454 358 C454 352 453 343 451 335 L418 181 C406 122 361 86 301 86 C255 86 230 105 230 138 C230 146 231 156 233 166 L298 469 L40 469 L21 381 L37 381 C67 381 78 375 77 358 C77 351 76 343 74 335 L36 156 C29 125 25 95 25 79 C25 20 82 -17 174 -17 C258 -17 313 5 387 69 L372 0 Z M243 534 L295 534 L427 622 L522 534 L574 534 L497 724 L401 724 L243 534 Z " />
<glyph glyph-name="udieresis" unicode="&#xfc;" horiz-adv-x="754" d="M372 0 L664 0 L683 87 L655 87 C615 87 602 93 602 113 C602 123 602 127 604 134 L675 469 L414 469 L395 381 L414 381 C444 381 454 376 454 358 C454 352 453 343 451 335 L418 181 C406 122 361 86 301 86 C255 86 230 105 230 138 C230 146 231 156 233 166 L298 469 L40 469 L21 381 L37 381 C67 381 78 375 77 358 C77 351 76 343 74 335 L36 156 C29 125 25 95 25 79 C25 20 82 -17 174 -17 C258 -17 313 5 387 69 L372 0 Z M348 715 C297 715 249 670 249 622 C249 584 275 559 314 559 C363 559 408 604 408 652 C408 688 383 715 348 715 L348 715 Z M582 715 C531 715 483 670 483 623 C483 584 509 559 547 559 C596 559 641 604 641 652 C641 688 616 715 582 715 L582 715 Z " />
<glyph glyph-name="yacute" unicode="&#xfd;" horiz-adv-x="634" d="M413 382 C460 379 469 376 469 362 C469 357 466 349 458 337 L358 174 L304 338 C302 345 301 352 301 358 C301 376 309 380 353 382 L372 469 L28 469 L9 382 L30 382 C65 380 71 373 90 306 L189 -51 C137 -118 94 -147 49 -147 C33 -147 25 -143 13 -130 C46 -122 60 -116 76 -101 C90 -86 99 -66 99 -47 C99 -11 68 12 19 12 C-56 12 -113 -39 -113 -106 C-113 -174 -53 -214 48 -214 C114 -214 172 -196 218 -162 C262 -130 314 -77 337 -40 L565 329 C588 369 607 381 652 382 L671 469 L432 469 L413 382 Z M257 534 L316 534 L501 617 C549 639 569 661 569 691 C569 717 551 735 524 735 C498 735 475 723 433 686 L257 534 Z " />
<glyph glyph-name="thorn" unicode="&#xfe;" horiz-adv-x="709" d="M370 667 L89 667 L71 580 L98 580 C136 580 148 573 148 554 C148 545 147 540 146 533 L16 -80 C6 -119 -3 -126 -49 -127 L-77 -127 L-96 -214 L264 -214 L282 -127 C220 -127 209 -122 209 -98 C209 -93 210 -86 211 -80 L239 53 C281 2 322 -17 389 -17 C468 -17 543 19 593 82 C641 141 672 234 672 318 C672 428 610 485 493 485 C426 485 382 469 317 419 L370 667 Z M397 385 C442 385 461 361 461 306 C461 259 447 198 427 155 C404 108 376 87 335 87 C293 87 268 115 268 161 C268 205 289 291 309 324 C332 364 362 385 397 385 L397 385 Z " />
<glyph glyph-name="ydieresis" unicode="&#xff;" horiz-adv-x="634" d="M413 382 C460 379 469 376 469 362 C469 357 466 349 458 337 L358 174 L304 338 C302 345 301 352 301 358 C301 376 309 380 353 382 L372 469 L28 469 L9 382 L30 382 C65 380 71 373 90 306 L189 -51 C137 -118 94 -147 49 -147 C33 -147 25 -143 13 -130 C46 -122 60 -116 76 -101 C90 -86 99 -66 99 -47 C99 -11 68 12 19 12 C-56 12 -113 -39 -113 -106 C-113 -174 -53 -214 48 -214 C114 -214 172 -196 218 -162 C262 -130 314 -77 337 -40 L565 329 C588 369 607 381 652 382 L671 469 L432 469 L413 382 Z M288 715 C237 715 189 670 189 622 C189 584 215 559 254 559 C303 559 348 604 348 652 C348 688 323 715 288 715 L288 715 Z M522 715 C471 715 423 670 423 622 C423 584 449 559 488 559 C537 559 582 604 582 652 C582 688 557 715 522 715 L522 715 Z " />
<glyph glyph-name="Amacron" unicode="&#x100;" horiz-adv-x="770" d="M305 0 L750 0 L770 94 L731 94 C681 96 678 100 668 165 L603 667 L337 667 L38 163 C7 112 -13 97 -56 94 L-84 94 L-104 0 L225 0 L245 94 L208 94 C175 94 160 99 160 110 C160 117 163 124 178 151 L215 214 L413 214 L424 143 L424 132 C424 97 419 94 358 94 L325 94 L305 0 Z M398 310 L269 310 L375 512 L398 310 Z M321 754 L627 754 L645 838 L339 838 L321 754 Z " />
<glyph glyph-name="amacron" unicode="&#x101;" horiz-adv-x="694" d="M652 189 L585 189 L573 133 C568 109 562 103 543 103 C531 103 523 109 523 117 C523 120 524 126 525 133 L564 313 C569 337 572 362 572 378 C572 410 558 434 532 449 C486 474 420 486 332 486 C158 486 41 426 41 337 C41 296 73 272 130 272 C197 272 245 307 245 355 C245 380 233 393 199 404 C230 417 246 421 271 421 C325 421 355 398 355 358 C355 338 347 317 335 304 C312 280 278 269 192 258 C94 245 44 227 8 191 C-17 166 -33 125 -33 85 C-33 18 18 -17 115 -17 C158 -17 204 -9 244 6 C272 16 286 24 317 50 C346 -1 379 -17 449 -17 C507 -17 552 -4 585 23 C613 46 627 72 639 128 L652 189 Z M317 157 C309 113 273 87 223 87 C188 87 165 103 165 127 C165 148 184 166 216 178 L273 197 C279 199 304 208 329 218 L317 157 Z M211 585 L527 585 L545 672 L230 672 L211 585 Z " />
<glyph glyph-name="Abreve" unicode="&#x102;" horiz-adv-x="770" d="M305 0 L750 0 L770 94 L731 94 C681 96 678 100 668 165 L603 667 L337 667 L38 163 C7 112 -13 97 -56 94 L-84 94 L-104 0 L225 0 L245 94 L208 94 C175 94 160 99 160 110 C160 117 163 124 178 151 L215 214 L413 214 L424 143 L424 132 C424 97 419 94 358 94 L325 94 L305 0 Z M398 310 L269 310 L375 512 L398 310 Z M332 869 C333 817 339 793 357 769 C380 740 420 723 467 723 C515 723 563 740 599 769 C627 793 642 816 665 869 L617 869 C592 829 558 814 488 814 C417 814 389 828 380 869 L332 869 Z " />
<glyph glyph-name="abreve" unicode="&#x103;" horiz-adv-x="694" d="M652 189 L585 189 L573 133 C568 109 562 103 543 103 C531 103 523 109 523 117 C523 120 524 126 525 133 L564 313 C569 337 572 362 572 378 C572 410 558 434 532 449 C486 474 420 486 332 486 C158 486 41 426 41 337 C41 296 73 272 130 272 C197 272 245 307 245 355 C245 380 233 393 199 404 C230 417 246 421 271 421 C325 421 355 398 355 358 C355 338 347 317 335 304 C312 280 278 269 192 258 C94 245 44 227 8 191 C-17 166 -33 125 -33 85 C-33 18 18 -17 115 -17 C158 -17 204 -9 244 6 C272 16 286 24 317 50 C346 -1 379 -17 449 -17 C507 -17 552 -4 585 23 C613 46 627 72 639 128 L652 189 Z M317 157 C309 113 273 87 223 87 C188 87 165 103 165 127 C165 148 184 166 216 178 L273 197 C279 199 304 208 329 218 L317 157 Z M259 708 C260 660 261 645 267 628 C283 580 331 550 392 550 C440 550 489 568 524 598 C554 623 570 648 594 708 L546 708 C530 680 519 668 499 660 C477 650 446 645 414 645 C380 645 351 650 333 660 C318 668 311 681 306 708 L259 708 Z " />
<glyph glyph-name="Aogonek" unicode="&#x104;" horiz-adv-x="770" d="M750 0 L770 94 L731 94 C681 96 678 100 668 165 L603 667 L337 667 L38 163 C7 112 -13 97 -56 94 L-84 94 L-104 0 L225 0 L245 94 L208 94 C175 94 160 99 160 110 C160 118 163 124 178 151 L215 214 L413 214 L424 143 L424 132 C424 97 419 94 358 94 L325 94 L305 0 L642 0 C543 -55 489 -114 489 -169 C489 -207 520 -230 573 -230 C631 -230 679 -201 726 -138 L708 -128 C676 -156 662 -163 635 -163 C605 -163 591 -151 591 -124 C591 -84 622 -43 685 0 L750 0 Z M398 310 L269 310 L375 512 L398 310 Z " />
<glyph glyph-name="aogonek" unicode="&#x105;" horiz-adv-x="694" d="M652 189 L585 189 L573 133 C568 109 563 103 546 103 C531 103 523 107 523 116 C523 119 524 126 525 133 L564 313 C569 338 572 362 572 380 C572 410 558 435 532 449 C486 474 420 486 332 486 C158 486 41 426 41 337 C41 296 73 272 130 272 C197 272 245 307 245 355 C245 380 233 394 199 404 C230 417 246 421 271 421 C325 421 355 398 355 358 C355 338 347 317 335 304 C312 280 278 269 192 258 C94 245 44 227 8 191 C-17 166 -33 125 -33 85 C-33 18 18 -17 115 -17 C158 -17 204 -9 244 6 C272 16 286 24 317 50 C347 -1 379 -17 451 -17 L465 -17 C381 -71 342 -119 342 -169 C342 -208 372 -230 424 -230 C481 -230 530 -201 576 -138 L559 -128 C526 -157 513 -163 485 -163 C456 -163 442 -151 442 -125 C442 -85 471 -47 522 -16 C611 35 619 45 639 128 L652 189 Z M317 157 C309 113 273 87 223 87 C188 87 165 103 165 127 C165 148 184 166 216 178 L273 197 C279 199 304 208 329 218 L317 157 Z " />
<glyph glyph-name="Cacute" unicode="&#x106;" horiz-adv-x="808" d="M636 258 C614 193 597 165 559 134 C517 99 463 79 409 79 C326 79 281 124 281 207 C281 280 314 423 344 479 C382 549 438 585 510 585 C565 585 606 565 626 528 C642 499 647 473 651 402 L782 402 L840 676 L721 676 L695 640 C621 678 581 687 494 687 C358 687 239 640 151 553 C71 472 22 354 22 238 C22 164 43 107 85 65 C140 11 236 -20 351 -20 C476 -20 581 15 654 81 C703 124 726 165 755 258 L636 258 Z M442 723 L599 777 C635 790 657 814 657 839 C657 863 641 879 618 879 C601 879 585 872 558 851 L385 723 L442 723 Z " />
<glyph glyph-name="cacute" unicode="&#x107;" horiz-adv-x="579" d="M380 163 C372 135 364 120 354 108 C335 87 305 74 276 74 C227 74 201 100 201 149 C201 195 224 295 243 332 C265 375 304 397 357 397 C387 397 398 392 412 373 C381 369 367 363 351 346 C336 330 327 309 327 288 C327 248 357 226 412 226 C494 226 551 278 551 353 C551 436 476 487 354 487 C245 487 154 455 90 395 C30 339 -6 257 -6 176 C-6 54 84 -19 235 -19 C297 -19 352 -7 402 18 C459 46 486 81 513 163 L380 163 Z M229 534 L288 534 L473 617 C521 639 541 661 541 691 C541 718 523 735 496 735 C469 735 448 723 405 686 L229 534 Z " />
<glyph glyph-name="Ccaron" unicode="&#x10c;" horiz-adv-x="808" d="M636 258 C614 193 597 165 559 134 C517 99 463 79 409 79 C326 79 281 124 281 207 C281 280 314 423 344 479 C382 549 438 585 510 585 C565 585 606 565 626 528 C642 499 647 473 651 402 L782 402 L840 676 L721 676 L695 640 C621 678 581 687 494 687 C358 687 239 640 151 553 C71 472 22 354 22 238 C22 164 43 107 85 65 C140 11 236 -20 351 -20 C476 -20 581 15 654 81 C703 124 726 165 755 258 L636 258 Z M354 869 L425 723 L548 723 L681 869 L632 869 L505 810 L404 869 L354 869 Z " />
<glyph glyph-name="ccaron" unicode="&#x10d;" horiz-adv-x="579" d="M380 163 C372 135 364 120 354 108 C335 87 305 74 276 74 C227 74 201 100 201 149 C201 195 224 295 243 332 C265 375 304 397 357 397 C387 397 398 392 412 373 C381 369 367 363 351 346 C336 330 327 309 327 288 C327 248 357 226 412 226 C494 226 551 278 551 353 C551 436 476 487 354 487 C245 487 154 455 90 395 C30 339 -6 257 -6 176 C-6 54 84 -19 235 -19 C297 -19 352 -7 402 18 C459 46 486 81 513 163 L380 163 Z M207 724 L284 534 L379 534 L537 724 L486 724 L353 636 L259 724 L207 724 Z " />
<glyph glyph-name="Dcaron" unicode="&#x10e;" horiz-adv-x="885" d="M-54 0 L338 0 C521 0 629 31 719 108 C806 182 857 298 857 422 C857 496 832 553 782 594 C717 647 634 667 480 667 L88 667 L68 572 L109 572 C158 572 171 567 171 546 C171 541 169 528 166 515 L89 152 C81 102 72 95 8 94 L-34 94 L-54 0 Z M299 97 L400 570 L458 570 C507 570 548 558 572 536 C593 516 603 485 603 440 C603 366 578 264 546 202 C508 130 448 97 358 97 L299 97 Z M280 869 L351 723 L474 723 L607 869 L558 869 L431 810 L330 869 L280 869 Z " />
<glyph glyph-name="dcaron" unicode="&#x10f;" horiz-adv-x="698" d="M672 667 L378 667 L360 580 L373 580 C439 580 449 577 449 556 C449 542 446 520 440 491 L424 416 C382 467 342 486 275 486 C195 486 120 450 70 387 C22 327 -9 234 -9 147 C-9 40 51 -16 167 -16 C236 -16 275 1 354 65 L340 0 L615 0 L633 87 L605 87 C568 87 557 93 557 113 C557 120 558 127 559 134 L672 667 Z M327 382 C372 382 394 358 394 309 C394 259 375 181 355 145 C331 104 302 84 264 84 C222 84 202 109 202 161 C202 201 212 251 228 294 C251 355 282 382 327 382 L327 382 Z M693 429 C740 436 765 445 797 468 C844 502 874 553 874 598 C874 639 847 666 807 666 C758 666 715 624 715 576 C715 549 734 528 760 528 C765 528 774 529 782 531 C762 499 749 491 704 481 L693 429 Z " />
<glyph glyph-name="Dcroat" unicode="&#x110;" horiz-adv-x="890" d="M-51 0 L343 0 C525 0 633 31 722 108 C809 182 860 298 860 422 C860 496 835 553 785 594 C721 647 638 667 485 667 L91 667 L71 572 L110 572 C157 572 171 567 171 548 C171 543 169 530 166 515 L139 391 L17 391 L-1 306 L121 306 L89 152 C81 102 72 95 10 94 L-31 94 L-51 0 Z M295 97 L339 306 L464 306 L483 391 L357 391 L395 570 L468 570 C516 570 556 558 579 536 C600 516 610 486 610 441 C610 367 585 264 553 202 C515 130 457 97 367 97 L295 97 Z " />
<glyph glyph-name="dcroat" unicode="&#x111;" horiz-adv-x="698" d="M651 568 L672 667 L378 667 L360 580 L381 580 C423 580 440 577 447 568 L323 568 L306 491 L440 491 L424 416 C382 467 342 486 275 486 C196 486 120 449 70 387 C22 327 -9 234 -9 147 C-9 40 51 -16 167 -16 C236 -16 275 1 354 65 L340 0 L615 0 L633 87 L605 87 C568 87 557 93 557 113 C557 120 558 127 559 134 L635 491 L698 491 L715 568 L651 568 Z M327 381 C372 381 394 357 394 308 C394 258 375 180 355 144 C331 104 302 84 264 84 C222 84 202 109 202 161 C202 200 212 251 228 294 C251 354 282 381 327 381 L327 381 Z " />
<glyph glyph-name="Emacron" unicode="&#x112;" horiz-adv-x="852" d="M856 667 L88 667 L68 573 L107 573 C152 573 167 567 167 548 C167 541 165 529 162 515 L85 152 C77 101 68 95 7 94 L-34 94 L-54 0 L719 0 L778 275 L657 275 C636 204 622 174 595 141 C554 98 532 93 403 94 L290 94 L334 301 L365 301 C423 301 441 289 441 248 C441 237 438 212 435 191 L531 191 L596 495 L500 495 C479 410 459 393 383 389 L353 389 L392 573 L491 573 C652 577 684 553 688 419 L804 419 L856 667 Z M331 754 L638 754 L655 838 L349 838 L331 754 Z " />
<glyph glyph-name="emacron" unicode="&#x113;" horiz-adv-x="623" d="M418 163 C405 136 395 122 383 110 C359 88 327 75 294 75 C240 75 209 103 209 152 C209 163 212 187 217 207 L559 207 C567 245 572 286 572 308 C572 419 487 487 348 487 C145 487 -6 355 -6 176 C-6 52 83 -18 241 -18 C324 -18 405 3 456 38 C495 65 519 96 552 163 L418 163 Z M235 294 C247 334 254 351 267 366 C283 385 312 398 338 398 C374 398 398 374 398 339 C398 328 396 311 393 294 L235 294 Z M207 585 L522 585 L541 672 L225 672 L207 585 Z " />
<glyph glyph-name="Edotaccent" unicode="&#x116;" horiz-adv-x="852" d="M856 667 L88 667 L68 573 L107 573 C152 573 167 567 167 548 C167 541 165 529 162 515 L85 152 C77 101 68 95 7 94 L-34 94 L-54 0 L719 0 L778 275 L657 275 C636 204 622 174 595 141 C554 98 532 93 403 94 L290 94 L334 301 L365 301 C423 301 441 289 441 248 C441 237 438 212 435 191 L531 191 L596 495 L500 495 C479 410 459 393 383 389 L353 389 L392 573 L491 573 C652 577 684 553 688 419 L804 419 L856 667 Z M505 866 C458 866 411 823 411 779 C411 743 436 717 469 717 C517 717 563 760 563 805 C563 839 537 866 505 866 L505 866 Z " />
<glyph glyph-name="edotaccent" unicode="&#x117;" horiz-adv-x="623" d="M418 163 C405 136 395 122 383 110 C359 88 327 75 294 75 C240 75 209 103 209 152 C209 163 212 187 217 207 L559 207 C567 245 572 286 572 308 C572 419 487 487 348 487 C145 487 -6 355 -6 176 C-6 52 83 -18 241 -18 C324 -18 405 3 456 38 C495 65 519 96 552 163 L418 163 Z M235 294 C247 334 254 351 267 366 C283 385 312 398 338 398 C374 398 398 374 398 339 C398 328 396 311 393 294 L235 294 Z M394 707 C344 707 296 662 296 616 C296 579 322 553 360 553 C408 553 453 598 453 645 C453 680 428 707 394 707 L394 707 Z " />
<glyph glyph-name="Eogonek" unicode="&#x118;" horiz-adv-x="852" d="M719 0 L778 275 L657 275 C636 204 622 174 595 141 C554 98 532 93 403 94 L290 94 L334 301 L365 301 C423 301 441 289 441 248 C441 237 438 212 435 191 L531 191 L596 495 L500 495 C479 410 459 393 383 389 L353 389 L392 573 L491 573 C652 577 684 553 688 419 L804 419 L856 667 L88 667 L68 573 L107 573 C152 573 167 567 167 548 C167 541 165 529 162 515 L85 152 C77 101 68 95 7 94 L-34 94 L-54 0 L622 0 C522 -55 468 -114 468 -169 C468 -207 499 -230 552 -230 C610 -230 659 -201 705 -138 L688 -128 C655 -157 642 -163 615 -163 C585 -163 571 -151 571 -124 C571 -84 603 -42 664 0 L719 0 Z " />
<glyph glyph-name="eogonek" unicode="&#x119;" horiz-adv-x="623" d="M418 163 C405 136 395 121 383 110 C359 87 327 74 294 74 C240 74 209 103 209 151 C209 162 212 187 217 207 L559 207 C567 245 572 286 572 308 C572 420 487 487 346 487 C144 487 -6 354 -6 175 C-6 52 84 -18 241 -18 C260 -18 273 -17 289 -16 C205 -69 164 -119 164 -169 C164 -208 194 -230 246 -230 C304 -230 352 -201 399 -138 L381 -128 C348 -157 335 -163 308 -163 C278 -163 264 -151 264 -125 C264 -86 296 -42 338 -22 C482 46 505 66 552 163 L418 163 Z M235 294 C247 334 254 351 267 366 C283 385 312 398 338 398 C374 398 398 374 398 339 C398 328 396 311 393 294 L235 294 Z " />
<glyph glyph-name="Ecaron" unicode="&#x11a;" horiz-adv-x="852" d="M856 667 L88 667 L68 573 L107 573 C152 573 167 567 167 548 C167 541 165 529 162 515 L85 152 C77 101 68 95 7 94 L-34 94 L-54 0 L719 0 L778 275 L657 275 C636 204 622 174 595 141 C554 98 532 93 403 94 L290 94 L334 301 L365 301 C423 301 441 289 441 248 C441 237 438 212 435 191 L531 191 L596 495 L500 495 C479 410 459 393 383 389 L353 389 L392 573 L491 573 C652 577 684 553 688 419 L804 419 L856 667 Z M330 869 L401 723 L524 723 L657 869 L607 869 L481 810 L379 869 L330 869 Z " />
<glyph glyph-name="ecaron" unicode="&#x11b;" horiz-adv-x="623" d="M418 163 C405 136 395 122 383 110 C359 88 327 75 294 75 C240 75 209 103 209 152 C209 163 212 187 217 207 L559 207 C567 245 572 286 572 308 C572 419 487 487 348 487 C145 487 -6 355 -6 176 C-6 52 83 -18 241 -18 C324 -18 405 3 456 38 C495 65 519 96 552 163 L418 163 Z M235 294 C247 334 254 351 267 366 C283 385 312 398 338 398 C374 398 398 374 398 339 C398 328 396 311 393 294 L235 294 Z M229 724 L306 534 L401 534 L559 724 L508 724 L375 636 L281 724 L229 724 Z " />
<glyph glyph-name="Gbreve" unicode="&#x11e;" horiz-adv-x="901" d="M439 261 L466 261 C512 261 527 254 527 235 C527 228 525 217 522 203 L512 153 C506 126 498 108 489 100 C477 89 436 81 398 81 C320 81 274 128 274 208 C274 282 307 423 337 479 C374 549 430 585 502 585 C556 585 597 565 617 528 C632 499 637 473 641 402 L762 402 L820 676 L710 676 L685 640 C617 678 581 687 493 687 C359 687 242 641 153 553 C71 472 22 355 22 240 C22 165 43 105 85 63 C138 10 228 -22 328 -22 C405 -22 464 -8 559 34 L573 -7 L690 -7 L735 203 C744 254 752 260 814 261 L844 261 L864 355 L459 355 L439 261 Z M343 869 C343 817 349 793 367 769 C391 740 430 723 477 723 C526 723 574 740 609 769 C638 793 653 816 675 869 L627 869 C602 829 568 814 498 814 C427 814 400 828 391 869 L343 869 Z " />
<glyph glyph-name="gbreve" unicode="&#x11f;" horiz-adv-x="677" d="M56 167 C18 153 2 144 -17 125 C-41 103 -54 74 -54 47 C-54 18 -43 -2 -13 -27 C-68 -45 -100 -78 -100 -117 C-100 -141 -89 -160 -65 -176 C-29 -200 60 -214 186 -214 C412 -214 538 -149 538 -32 C538 45 490 72 354 72 C341 72 322 72 309 71 C179 68 179 68 151 68 C96 68 84 72 84 89 C84 101 95 109 123 118 C168 106 189 103 222 103 C401 103 529 200 529 336 C529 366 525 379 505 410 C539 429 557 436 572 436 C582 436 588 433 600 424 C568 402 555 385 555 363 C555 336 584 316 625 316 C679 316 720 354 720 405 C720 455 674 488 605 488 C565 488 537 479 480 449 C403 480 382 485 326 485 C231 485 158 465 104 425 C50 384 17 321 17 259 C17 220 27 197 56 167 L56 167 Z M300 416 C335 416 348 402 348 363 C348 332 340 289 328 251 C311 195 286 172 245 172 C211 172 197 191 197 235 C197 265 206 307 220 346 C238 395 261 416 300 416 L300 416 Z M226 -70 C269 -70 306 -72 332 -77 C350 -80 358 -86 358 -98 C358 -129 316 -141 213 -141 C118 -141 81 -132 81 -108 C81 -81 122 -70 226 -70 L226 -70 Z M186 708 L186 698 C186 645 191 623 210 598 C232 568 272 550 319 550 C368 550 416 568 452 598 C481 623 497 648 521 708 L473 708 C457 680 446 668 426 660 C404 650 374 645 341 645 C307 645 278 650 261 660 C246 668 239 681 234 708 L186 708 Z " />
<glyph glyph-name="Gcommaaccent" unicode="&#x122;" horiz-adv-x="901" d="M439 261 L466 261 C512 261 527 254 527 235 C527 228 525 217 522 203 L512 153 C506 126 498 108 489 100 C477 89 436 81 398 81 C320 81 274 128 274 208 C274 282 307 423 337 479 C374 549 430 585 502 585 C556 585 597 565 617 528 C632 499 637 473 641 402 L762 402 L820 676 L710 676 L685 640 C617 678 581 687 493 687 C359 687 242 641 153 553 C71 472 22 355 22 240 C22 165 43 105 85 63 C138 10 228 -22 328 -22 C405 -22 464 -8 559 34 L573 -7 L690 -7 L735 203 C744 254 752 260 814 261 L844 261 L864 355 L459 355 L439 261 Z M252 -290 C299 -283 325 -273 356 -251 C403 -217 433 -166 433 -121 C433 -80 406 -53 366 -53 C317 -53 274 -95 274 -143 C274 -170 293 -191 319 -191 C324 -191 333 -190 341 -188 C321 -220 309 -228 263 -238 L252 -290 Z " />
<glyph glyph-name="gcommaaccent" unicode="&#x123;" horiz-adv-x="677" d="M56 167 C18 153 2 144 -17 125 C-41 103 -54 74 -54 47 C-54 18 -43 -2 -13 -27 C-68 -45 -100 -78 -100 -117 C-100 -141 -89 -160 -65 -176 C-29 -200 60 -214 186 -214 C412 -214 538 -149 538 -32 C538 45 490 72 354 72 C341 72 322 72 309 71 C179 68 179 68 151 68 C96 68 84 72 84 89 C84 101 95 109 123 118 C168 106 189 103 222 103 C401 103 529 200 529 336 C529 366 525 379 505 410 C539 429 557 436 572 436 C582 436 588 433 600 424 C568 402 555 385 555 363 C555 336 584 316 625 316 C679 316 720 354 720 405 C720 455 674 488 605 488 C565 488 537 479 480 449 C403 480 382 485 326 485 C231 485 158 465 104 425 C50 384 17 321 17 259 C17 220 27 197 56 167 L56 167 Z M300 416 C335 416 348 402 348 363 C348 332 340 289 328 251 C311 195 286 172 245 172 C211 172 197 191 197 235 C197 265 206 307 220 346 C238 395 261 416 300 416 L300 416 Z M226 -70 C269 -70 306 -72 332 -77 C350 -80 358 -86 358 -98 C358 -129 316 -141 213 -141 C118 -141 81 -132 81 -108 C81 -81 122 -70 226 -70 L226 -70 Z M435 762 C388 754 363 745 331 722 C284 689 254 638 254 592 C254 552 281 525 321 525 C370 525 413 567 413 614 C413 641 394 662 368 662 C362 662 354 661 345 659 C366 691 378 699 424 709 L435 762 Z " />
<glyph glyph-name="Imacron" unicode="&#x12a;" horiz-adv-x="481" d="M-49 0 L387 0 L407 94 L367 94 C322 94 306 100 306 119 C306 124 308 136 311 152 L389 515 C398 566 408 573 468 573 L509 573 L529 667 L93 667 L73 573 L113 573 C158 573 173 567 173 548 C173 540 171 529 169 515 L91 152 C82 101 72 95 12 94 L-29 94 L-49 0 Z M176 754 L483 754 L500 838 L194 838 L176 754 Z " />
<glyph glyph-name="imacron" unicode="&#x12b;" horiz-adv-x="399" d="M327 87 L306 87 C268 87 256 93 256 113 C256 122 256 127 258 134 L329 469 L51 469 L32 382 L54 382 C88 382 98 376 98 357 C98 351 97 342 95 335 L53 134 C44 95 35 88 -8 87 L-30 87 L-49 0 L309 0 L327 87 Z M58 585 L374 585 L392 672 L77 672 L58 585 Z " />
<glyph glyph-name="Iogonek" unicode="&#x12e;" horiz-adv-x="481" d="M387 0 L407 94 L367 94 C322 94 306 100 306 119 C306 124 308 136 311 152 L389 515 C398 566 408 573 468 573 L509 573 L529 667 L93 667 L73 573 L113 573 C158 573 173 567 173 548 C173 540 171 529 169 515 L91 152 C82 101 72 95 12 94 L-29 94 L-49 0 L281 0 C182 -55 128 -114 128 -169 C128 -207 159 -230 212 -230 C270 -230 318 -201 365 -138 L347 -128 C314 -157 301 -163 274 -163 C244 -163 230 -151 230 -124 C230 -84 261 -42 324 0 L387 0 Z " />
<glyph glyph-name="iogonek" unicode="&#x12f;" horiz-adv-x="399" d="M309 0 L327 87 L306 87 C268 87 256 93 256 113 C256 123 256 127 258 134 L329 469 L51 469 L32 382 L54 382 C88 382 98 376 98 357 C98 351 97 342 95 335 L53 134 C44 95 35 88 -8 87 L-30 87 L-49 0 L206 0 C107 -55 53 -114 53 -169 C53 -208 84 -230 137 -230 C195 -230 244 -201 290 -138 L273 -128 C240 -156 226 -163 199 -163 C169 -163 155 -151 155 -124 C155 -84 186 -43 249 0 L309 0 Z M263 686 C205 686 152 634 152 577 C152 536 182 507 224 507 C282 507 335 559 335 615 C335 656 305 686 263 686 L263 686 Z " />
<glyph glyph-name="Idotaccent" unicode="&#x130;" horiz-adv-x="481" d="M-49 0 L387 0 L407 94 L367 94 C322 94 306 100 306 119 C306 124 308 136 311 152 L389 515 C398 566 408 573 468 573 L509 573 L529 667 L93 667 L73 573 L113 573 C158 573 173 567 173 548 C173 540 171 529 169 515 L91 152 C82 101 72 95 12 94 L-29 94 L-49 0 Z M356 866 C308 866 262 823 262 779 C262 743 287 717 320 717 C367 717 413 761 413 805 C413 839 387 866 356 866 L356 866 Z " />
<glyph glyph-name="dotlessi" unicode="&#x131;" horiz-adv-x="399" d="M327 87 L306 87 C268 87 256 93 256 113 C256 122 256 127 258 134 L329 469 L51 469 L32 382 L54 382 C88 382 98 376 98 357 C98 351 97 342 95 335 L53 134 C44 95 35 88 -8 87 L-30 87 L-49 0 L309 0 L327 87 Z " />
<glyph glyph-name="Kcommaaccent" unicode="&#x136;" horiz-adv-x="929" d="M489 667 L88 667 L68 572 L108 572 C153 572 168 566 168 547 C168 540 166 529 163 515 L86 152 C77 101 67 95 7 94 L-34 94 L-54 0 L364 0 L385 94 L359 94 C313 94 298 101 298 120 C298 126 300 138 303 152 L315 208 L452 285 L528 137 C531 131 532 125 532 118 C532 100 517 94 476 94 L441 94 L421 0 L874 0 L894 94 L850 94 C817 94 799 105 780 139 L639 408 L812 523 C857 554 902 573 926 572 L963 572 L983 667 L575 667 L555 572 L616 572 C643 572 655 568 655 558 C655 549 645 537 632 529 L346 350 L381 515 C389 566 398 572 468 572 L489 667 Z M266 -290 C313 -283 338 -273 370 -251 C417 -217 447 -167 447 -121 C447 -80 420 -53 380 -53 C331 -53 288 -95 288 -143 C288 -170 307 -191 333 -191 C338 -191 346 -190 355 -188 C334 -220 322 -228 277 -238 L266 -290 Z " />
<glyph glyph-name="kcommaaccent" unicode="&#x137;" horiz-adv-x="737" d="M69 580 L96 580 C134 580 146 573 146 554 C146 546 145 540 144 533 L59 134 C50 95 41 88 -9 87 L-33 87 L-52 0 L284 0 L303 87 C260 89 249 94 249 114 C249 123 252 138 256 152 L354 203 L384 141 C393 122 396 112 396 104 C396 91 391 89 355 87 L336 0 L672 0 L691 87 C642 90 628 97 615 124 L528 307 L612 359 C639 374 662 380 705 382 L724 469 L414 469 L395 382 L408 382 C430 382 437 379 437 371 C437 363 429 354 417 346 L281 269 L365 667 L87 667 L69 580 Z M169 -290 C217 -283 242 -273 273 -251 C320 -217 350 -167 350 -121 C350 -80 323 -53 283 -53 C234 -53 191 -95 191 -143 C191 -170 210 -191 236 -191 C242 -191 250 -190 259 -188 C238 -220 226 -228 181 -238 L169 -290 Z " />
<glyph glyph-name="Lacute" unicode="&#x139;" horiz-adv-x="754" d="M529 667 L88 667 L68 573 L108 573 C154 573 169 567 169 548 C169 543 167 531 164 515 L86 152 C77 102 67 95 7 94 L-34 94 L-54 0 L636 0 L695 278 L581 278 C535 121 500 93 351 97 L296 97 L384 515 C393 566 401 572 463 573 L509 573 L529 667 Z M415 723 L573 777 C609 790 631 814 631 839 C631 863 615 879 592 879 C575 879 558 872 531 851 L358 723 L415 723 Z " />
<glyph glyph-name="lacute" unicode="&#x13a;" horiz-adv-x="388" d="M362 667 L82 667 L63 580 L88 580 C121 580 131 574 131 555 C131 547 130 540 129 533 L44 134 C35 95 26 88 -17 87 L-41 87 L-60 0 L299 0 L318 87 L298 87 C259 87 247 93 247 113 C247 120 248 127 249 134 L362 667 Z M233 731 L291 731 L477 814 C524 835 544 858 544 888 C544 915 526 932 499 932 C473 932 452 921 408 883 L233 731 Z " />
<glyph glyph-name="Lcommaaccent" unicode="&#x13b;" horiz-adv-x="754" d="M529 667 L88 667 L68 573 L108 573 C154 573 169 567 169 548 C169 543 167 531 164 515 L86 152 C77 102 67 95 7 94 L-34 94 L-54 0 L636 0 L695 278 L581 278 C535 121 500 93 351 97 L296 97 L384 515 C393 566 401 572 463 573 L509 573 L529 667 Z M178 -290 C226 -283 251 -273 282 -251 C329 -217 359 -166 359 -121 C359 -80 332 -53 292 -53 C243 -53 200 -95 200 -143 C200 -170 219 -191 245 -191 C251 -191 259 -190 268 -188 C247 -220 235 -228 189 -238 L178 -290 Z " />
<glyph glyph-name="lcommaaccent" unicode="&#x13c;" horiz-adv-x="388" d="M362 667 L82 667 L63 580 L88 580 C121 580 131 574 131 555 C131 547 130 540 129 533 L44 134 C35 95 26 88 -17 87 L-41 87 L-60 0 L299 0 L318 87 L298 87 C259 87 247 93 247 113 C247 120 248 127 249 134 L362 667 Z M-5 -290 C42 -283 67 -273 99 -251 C146 -217 176 -167 176 -121 C176 -80 149 -53 109 -53 C60 -53 17 -95 17 -143 C17 -170 36 -191 62 -191 C67 -191 75 -190 84 -188 C63 -220 51 -228 6 -238 L-5 -290 Z " />
<glyph glyph-name="Lcaron" unicode="&#x13d;" horiz-adv-x="754" d="M529 667 L88 667 L68 573 L108 573 C154 573 169 567 169 548 C169 543 167 531 164 515 L86 152 C77 102 67 95 7 94 L-34 94 L-54 0 L636 0 L695 278 L581 278 C535 121 500 93 351 97 L296 97 L384 515 C393 566 401 572 463 573 L509 573 L529 667 Z M546 443 C598 451 625 460 660 483 C710 516 742 565 742 611 C742 652 712 680 666 680 C613 680 567 639 567 592 C567 564 589 543 617 543 C624 543 633 544 642 546 C620 513 607 506 557 496 L546 443 Z " />
<glyph glyph-name="lcaron" unicode="&#x13e;" horiz-adv-x="388" d="M362 667 L82 667 L63 580 L88 580 C121 580 131 574 131 555 C131 547 130 540 129 533 L44 134 C35 95 26 88 -17 87 L-41 87 L-60 0 L299 0 L318 87 L298 87 C259 87 247 93 247 113 C247 120 248 127 249 134 L362 667 Z M372 426 C419 433 444 443 476 466 C523 499 553 550 553 595 C553 636 526 663 486 663 C437 663 394 621 394 574 C394 547 413 526 439 526 C445 526 453 527 461 528 C440 496 428 488 383 479 L372 426 Z " />
<glyph glyph-name="Lslash" unicode="&#x141;" horiz-adv-x="759" d="M533 667 L92 667 L72 573 L112 573 C158 573 173 567 173 548 C173 543 171 531 168 515 L126 318 L-18 249 L-38 153 L106 223 L90 152 C81 102 71 95 11 94 L-30 94 L-50 0 L640 0 L700 278 L585 278 C539 121 504 94 355 97 L300 97 L346 315 L538 411 L558 506 L366 411 L389 515 C397 566 405 572 467 573 L513 573 L533 667 Z " />
<glyph glyph-name="lslash" unicode="&#x142;" horiz-adv-x="404" d="M90 263 L63 134 C54 95 44 88 -5 87 L-32 87 L-51 0 L308 0 L327 87 L307 87 C268 87 256 93 256 113 C256 120 257 127 258 134 L302 339 L419 395 L436 473 L318 417 L371 667 L91 667 L72 580 L100 580 C138 580 150 574 150 554 C150 548 149 540 148 533 L107 341 L-11 285 L-27 206 L90 263 Z " />
<glyph glyph-name="Nacute" unicode="&#x143;" horiz-adv-x="890" d="M451 667 L88 667 L68 572 L106 572 C149 572 163 566 163 547 C163 540 161 528 158 515 L81 151 C71 101 62 95 4 94 L-34 94 L-54 0 L270 0 L290 94 L255 94 C212 94 197 100 197 119 C197 123 199 136 202 151 L272 478 L461 0 L706 0 L816 515 C825 565 834 572 893 572 L921 572 L941 667 L619 667 L599 572 L642 572 C685 572 700 566 700 547 C700 544 700 542 694 515 L631 217 L451 667 Z M484 723 L641 777 C677 790 699 814 699 839 C699 863 683 879 660 879 C643 879 627 872 599 851 L426 723 L484 723 Z " />
<glyph glyph-name="nacute" unicode="&#x144;" horiz-adv-x="754" d="M690 87 L666 87 C628 87 616 93 616 113 C616 121 617 127 618 134 L655 308 C662 340 666 370 666 387 C666 445 610 482 521 482 C438 482 384 460 312 396 L328 469 L40 469 L21 382 L51 382 C89 382 101 376 101 357 C101 349 100 342 99 335 L56 134 C47 95 38 88 -11 87 L-41 87 L-60 0 L287 0 L306 87 C258 87 249 92 249 113 C249 118 250 127 252 134 L284 288 C297 347 339 383 396 383 C438 383 462 365 462 332 C462 323 461 313 459 303 L423 134 C413 92 405 87 346 87 L327 0 L672 0 L690 87 Z M317 534 L375 534 L561 617 C609 639 629 661 629 691 C629 718 611 735 583 735 C557 735 535 723 492 686 L317 534 Z " />
<glyph glyph-name="Ncommaaccent" unicode="&#x145;" horiz-adv-x="890" d="M451 667 L88 667 L68 572 L106 572 C149 572 163 566 163 547 C163 540 161 528 158 515 L81 151 C71 101 62 95 4 94 L-34 94 L-54 0 L270 0 L290 94 L255 94 C212 94 197 100 197 119 C197 123 199 136 202 151 L272 478 L461 0 L706 0 L816 515 C825 565 834 572 893 572 L921 572 L941 667 L619 667 L599 572 L642 572 C685 572 700 566 700 547 C700 544 700 542 694 515 L631 217 L451 667 Z M246 -290 C294 -283 319 -273 351 -251 C398 -217 428 -167 428 -121 C428 -80 401 -53 360 -53 C311 -53 268 -95 268 -143 C268 -170 287 -191 313 -191 C319 -191 327 -190 336 -188 C315 -220 303 -228 258 -238 L246 -290 Z " />
<glyph glyph-name="ncommaaccent" unicode="&#x146;" horiz-adv-x="754" d="M690 87 L666 87 C628 87 616 93 616 113 C616 121 617 127 618 134 L655 308 C662 340 666 370 666 387 C666 445 610 482 521 482 C438 482 384 460 312 396 L328 469 L40 469 L21 382 L51 382 C89 382 101 376 101 357 C101 349 100 342 99 335 L56 134 C47 95 38 88 -11 87 L-41 87 L-60 0 L287 0 L306 87 C258 87 249 92 249 113 C249 118 250 127 252 134 L284 288 C297 347 339 383 396 383 C438 383 462 365 462 332 C462 323 461 313 459 303 L423 134 C413 92 405 87 346 87 L327 0 L672 0 L690 87 Z M178 -290 C225 -283 250 -273 282 -251 C329 -217 359 -167 359 -121 C359 -80 332 -53 292 -53 C243 -53 200 -95 200 -143 C200 -170 219 -191 245 -191 C250 -191 258 -190 267 -188 C246 -220 234 -228 189 -238 L178 -290 Z " />
<glyph glyph-name="Ncaron" unicode="&#x147;" horiz-adv-x="890" d="M451 667 L88 667 L68 572 L106 572 C149 572 163 566 163 547 C163 540 161 528 158 515 L81 151 C71 101 62 95 4 94 L-34 94 L-54 0 L270 0 L290 94 L255 94 C212 94 197 100 197 119 C197 123 199 136 202 151 L272 478 L461 0 L706 0 L816 515 C825 565 834 572 893 572 L921 572 L941 667 L619 667 L599 572 L642 572 C685 572 700 566 700 547 C700 544 700 542 694 515 L631 217 L451 667 Z M396 869 L467 723 L590 723 L723 869 L673 869 L547 810 L445 869 L396 869 Z " />
<glyph glyph-name="ncaron" unicode="&#x148;" horiz-adv-x="754" d="M690 87 L666 87 C628 87 616 93 616 113 C616 121 617 127 618 134 L655 308 C662 340 666 370 666 387 C666 445 610 482 521 482 C438 482 384 460 312 396 L328 469 L40 469 L21 382 L51 382 C89 382 101 376 101 357 C101 349 100 342 99 335 L56 134 C47 95 38 88 -11 87 L-41 87 L-60 0 L287 0 L306 87 C258 87 249 92 249 113 C249 118 250 127 252 134 L284 288 C297 347 339 383 396 383 C438 383 462 365 462 332 C462 323 461 313 459 303 L423 134 C413 92 405 87 346 87 L327 0 L672 0 L690 87 Z M265 724 L342 534 L438 534 L596 724 L544 724 L412 636 L317 724 L265 724 Z " />
<glyph glyph-name="Omacron" unicode="&#x14c;" horiz-adv-x="923" d="M536 687 C377 687 249 642 156 552 C75 475 28 363 28 249 C28 177 51 119 97 73 C160 10 252 -20 386 -20 C547 -20 671 24 767 115 C848 193 895 304 895 418 C895 490 872 549 826 594 C761 658 671 687 536 687 L536 687 Z M514 586 C598 586 644 541 644 457 C644 382 612 244 581 188 C543 119 483 82 410 82 C324 82 278 127 278 211 C278 285 311 426 341 480 C379 549 440 586 514 586 L514 586 Z M398 754 L704 754 L722 838 L415 838 L398 754 Z " />
<glyph glyph-name="omacron" unicode="&#x14d;" horiz-adv-x="672" d="M369 486 C147 486 -4 359 -4 172 C-4 54 96 -17 262 -17 C479 -17 634 112 634 292 C634 414 535 486 369 486 L369 486 Z M348 394 C404 394 428 371 428 320 C428 273 406 176 386 138 C364 95 332 75 281 75 C226 75 202 98 202 150 C202 197 224 292 244 331 C266 374 298 394 348 394 L348 394 Z M232 585 L547 585 L566 672 L250 672 L232 585 Z " />
<glyph glyph-name="Ohungarumlaut" unicode="&#x150;" horiz-adv-x="923" d="M536 687 C377 687 249 642 156 552 C75 475 28 363 28 249 C28 177 51 119 97 73 C160 10 252 -20 386 -20 C547 -20 671 24 767 115 C848 193 895 304 895 418 C895 490 872 549 826 594 C761 658 671 687 536 687 L536 687 Z M514 586 C598 586 644 541 644 457 C644 382 612 244 581 188 C543 119 483 82 410 82 C324 82 278 127 278 211 C278 285 311 426 341 480 C379 549 440 586 514 586 L514 586 Z M464 721 L578 789 C603 805 617 823 617 842 C617 862 601 877 581 877 C561 877 545 866 521 838 L423 721 L464 721 Z M616 721 L758 787 C790 802 805 819 805 840 C805 860 789 877 770 877 C752 877 736 869 710 845 L575 721 L616 721 Z " />
<glyph glyph-name="ohungarumlaut" unicode="&#x151;" horiz-adv-x="672" d="M369 486 C147 486 -4 359 -4 172 C-4 54 96 -17 262 -17 C479 -17 634 112 634 292 C634 414 535 486 369 486 L369 486 Z M348 394 C404 394 428 371 428 320 C428 273 406 176 386 138 C364 95 332 75 281 75 C226 75 202 98 202 150 C202 197 224 292 244 331 C266 374 298 394 348 394 L348 394 Z M253 535 L300 535 L436 637 C463 658 479 680 479 699 C479 721 463 737 440 737 C412 737 396 724 358 674 L253 535 Z M404 535 L450 535 L620 632 C656 653 673 673 673 696 C673 718 657 735 635 735 C607 735 594 726 550 683 L404 535 Z " />
<glyph glyph-name="OE" unicode="&#x152;" horiz-adv-x="1317" d="M1323 667 L800 667 L504 687 C372 687 239 636 152 551 C71 473 24 361 24 248 C24 79 152 -20 369 -20 C407 -20 445 -18 487 -15 L604 -4 C634 -1 667 0 701 0 L1186 0 L1244 275 L1126 275 C1106 204 1091 174 1064 141 C1024 98 1003 93 876 94 L765 94 L809 301 L840 301 C897 301 914 289 914 249 C914 238 911 212 908 191 L1003 191 L1068 495 L973 495 C952 410 932 393 857 389 L828 389 L867 573 L964 573 C1122 578 1154 552 1157 419 L1270 419 L1323 667 Z M586 251 C570 177 552 137 526 115 C500 94 455 81 407 81 C322 81 276 127 276 212 C276 255 286 321 302 378 C320 446 339 486 367 521 C401 562 455 586 516 586 C549 586 582 578 603 566 C624 552 632 535 632 502 C632 482 628 450 621 416 L586 251 Z " />
<glyph glyph-name="oe" unicode="&#x153;" horiz-adv-x="1021" d="M810 163 C797 136 788 121 776 110 C752 87 719 74 687 74 C633 74 602 103 602 151 C602 163 605 187 609 207 L951 207 C959 245 965 286 965 309 C965 420 879 488 738 488 C672 488 627 476 546 435 C477 476 440 486 363 486 C147 486 -5 357 -5 173 C-5 121 12 80 46 50 C93 7 168 -17 251 -17 C322 -17 371 -5 465 37 C509 -1 566 -18 648 -18 C723 -18 796 2 848 38 C889 66 911 95 944 163 L810 163 Z M337 394 C386 394 407 372 407 323 C407 278 384 176 366 138 C345 95 315 75 270 75 C222 75 201 96 201 146 C201 192 223 291 242 331 C263 374 292 394 337 394 L337 394 Z M628 294 C639 335 646 351 659 366 C676 386 704 399 731 399 C767 399 791 375 791 339 C791 329 789 311 785 294 L628 294 Z " />
<glyph glyph-name="Racute" unicode="&#x154;" horiz-adv-x="896" d="M68 572 L108 572 C154 572 168 566 168 547 C168 540 166 529 163 515 L86 152 C77 101 67 95 7 94 L-34 94 L-54 0 L387 0 L407 94 L361 94 C316 94 301 100 301 119 C301 124 303 136 306 152 L338 300 L412 300 C477 300 502 287 502 254 C502 242 499 220 494 197 L482 142 C479 125 476 104 476 91 C476 19 528 -16 637 -16 C711 -16 757 -1 794 36 C828 70 844 106 859 188 L786 188 C773 120 761 96 737 96 C724 96 717 106 717 123 C717 136 718 140 731 203 C736 227 739 252 739 269 C739 321 716 340 636 353 C699 367 729 379 761 406 C802 438 826 486 826 534 C826 571 810 605 783 626 C744 655 690 667 593 667 L88 667 L68 572 Z M356 391 L393 568 L472 568 C566 568 596 551 596 501 C596 472 584 443 564 423 C540 400 502 391 427 391 L356 391 Z M375 723 L532 777 C568 790 590 814 590 839 C590 863 574 879 551 879 C534 879 518 872 491 851 L318 723 L375 723 Z " />
<glyph glyph-name="racute" unicode="&#x155;" horiz-adv-x="563" d="M331 469 L51 469 L32 382 L54 382 C93 382 105 376 105 356 C105 350 104 342 102 335 L60 134 C51 95 41 88 -8 87 L-30 87 L-49 0 L323 0 L341 87 L302 87 C265 87 253 93 253 112 C253 120 254 127 255 134 L285 272 C294 317 309 348 332 372 C355 396 389 412 415 412 C421 412 430 411 442 408 C396 388 377 365 377 330 C377 294 406 271 451 271 C520 271 575 326 575 395 C575 452 536 485 468 485 C414 485 377 469 322 423 L331 469 Z M222 534 L280 534 L465 617 C513 639 533 661 533 691 C533 718 515 735 488 735 C462 735 440 723 397 686 L222 534 Z " />
<glyph glyph-name="Rcommaaccent" unicode="&#x156;" horiz-adv-x="896" d="M68 572 L108 572 C154 572 168 566 168 547 C168 540 166 529 163 515 L86 152 C77 101 67 95 7 94 L-34 94 L-54 0 L387 0 L407 94 L361 94 C316 94 301 100 301 119 C301 124 303 136 306 152 L338 300 L412 300 C477 300 502 287 502 254 C502 242 499 220 494 197 L482 142 C479 125 476 104 476 91 C476 19 528 -16 637 -16 C711 -16 757 -1 794 36 C828 70 844 106 859 188 L786 188 C773 120 761 96 737 96 C724 96 717 106 717 123 C717 136 718 140 731 203 C736 227 739 252 739 269 C739 321 716 340 636 353 C699 367 729 379 761 406 C802 438 826 486 826 534 C826 571 810 605 783 626 C744 655 690 667 593 667 L88 667 L68 572 Z M356 391 L393 568 L472 568 C566 568 596 551 596 501 C596 472 584 443 564 423 C540 400 502 391 427 391 L356 391 Z M249 -290 C297 -283 322 -273 353 -251 C400 -217 430 -166 430 -121 C430 -80 403 -53 363 -53 C314 -53 271 -95 271 -143 C271 -170 290 -191 316 -191 C322 -191 330 -190 339 -188 C318 -220 306 -228 260 -238 L249 -290 Z " />
<glyph glyph-name="rcommaaccent" unicode="&#x157;" horiz-adv-x="563" d="M331 469 L51 469 L32 382 L54 382 C93 382 105 376 105 356 C105 350 104 342 102 335 L60 134 C51 95 41 88 -8 87 L-30 87 L-49 0 L323 0 L341 87 L302 87 C265 87 253 93 253 112 C253 120 254 127 255 134 L285 272 C294 317 309 348 332 372 C355 396 389 412 415 412 C421 412 430 411 442 408 C396 388 377 365 377 330 C377 294 406 271 451 271 C520 271 575 326 575 395 C575 452 536 485 468 485 C414 485 377 469 322 423 L331 469 Z M11 -290 C59 -283 84 -273 115 -251 C162 -217 192 -166 192 -121 C192 -80 165 -53 125 -53 C76 -53 33 -95 33 -143 C33 -170 52 -191 78 -191 C84 -191 92 -190 101 -188 C80 -220 68 -228 22 -238 L11 -290 Z " />
<glyph glyph-name="Rcaron" unicode="&#x158;" horiz-adv-x="896" d="M68 572 L108 572 C154 572 168 566 168 547 C168 540 166 529 163 515 L86 152 C77 101 67 95 7 94 L-34 94 L-54 0 L387 0 L407 94 L361 94 C316 94 301 100 301 119 C301 124 303 136 306 152 L338 300 L412 300 C477 300 502 287 502 254 C502 242 499 220 494 197 L482 142 C479 125 476 104 476 91 C476 19 528 -16 637 -16 C711 -16 757 -1 794 36 C828 70 844 106 859 188 L786 188 C773 120 761 96 737 96 C724 96 717 106 717 123 C717 136 718 140 731 203 C736 227 739 252 739 269 C739 321 716 340 636 353 C699 367 729 379 761 406 C802 438 826 486 826 534 C826 571 810 605 783 626 C744 655 690 667 593 667 L88 667 L68 572 Z M356 391 L393 568 L472 568 C566 568 596 551 596 501 C596 472 584 443 564 423 C540 400 502 391 427 391 L356 391 Z M274 869 L345 723 L468 723 L601 869 L551 869 L425 810 L323 869 L274 869 Z " />
<glyph glyph-name="rcaron" unicode="&#x159;" horiz-adv-x="563" d="M331 469 L51 469 L32 382 L54 382 C93 382 105 376 105 356 C105 350 104 342 102 335 L60 134 C51 95 41 88 -8 87 L-30 87 L-49 0 L323 0 L341 87 L302 87 C265 87 253 93 253 112 C253 120 254 127 255 134 L285 272 C294 317 309 348 332 372 C355 396 389 412 415 412 C421 412 430 411 442 408 C396 388 377 365 377 330 C377 294 406 271 451 271 C520 271 575 326 575 395 C575 452 536 485 468 485 C414 485 377 469 322 423 L331 469 Z M199 724 L276 534 L372 534 L530 724 L478 724 L346 636 L251 724 L199 724 Z " />
<glyph glyph-name="Sacute" unicode="&#x15a;" horiz-adv-x="770" d="M41 245 L-12 -3 L89 -3 L123 34 C218 -9 267 -20 354 -20 C565 -20 718 89 718 239 C718 340 641 394 444 431 C319 455 319 455 299 469 C290 475 284 487 284 498 C284 544 346 579 428 579 C484 579 528 566 560 539 C588 516 599 492 605 438 L728 438 L777 670 L673 670 L646 637 C565 673 508 686 423 686 C313 686 224 659 157 605 C101 559 65 490 65 427 C65 386 77 356 103 330 C133 301 207 272 341 239 C457 210 459 209 478 190 C484 184 488 173 488 162 C488 116 432 82 355 82 C298 82 241 101 202 133 C173 158 159 185 146 245 L41 245 Z M423 723 L581 777 C616 790 639 814 639 839 C639 863 623 879 600 879 C583 879 566 872 539 851 L366 723 L423 723 Z " />
<glyph glyph-name="sacute" unicode="&#x15b;" horiz-adv-x="623" d="M38 -7 L65 30 C121 -3 183 -17 265 -17 C423 -17 539 62 539 170 C539 229 508 258 408 287 C374 298 295 320 283 323 C250 331 236 342 236 359 C236 386 269 403 321 403 C344 403 365 400 386 393 C425 381 440 369 465 330 L551 330 L582 478 L501 478 L480 450 C407 479 373 486 304 486 C204 486 130 464 76 419 C41 390 18 344 18 304 C18 251 48 223 136 195 C174 182 254 159 279 153 C312 146 325 135 325 117 C325 89 294 74 236 74 C209 74 184 78 161 86 C124 98 109 116 94 164 L-3 164 L-39 -7 L38 -7 Z M252 534 L310 534 L496 617 C542 638 563 661 563 691 C563 717 545 735 518 735 C492 735 471 724 427 686 L252 534 Z " />
<glyph glyph-name="Scedilla" unicode="&#x15e;" horiz-adv-x="770" d="M322 -19 C340 -20 352 -20 359 -20 C565 -20 718 91 718 240 C718 340 641 394 444 431 C319 455 319 455 299 469 C290 475 284 488 284 498 C286 546 346 579 428 579 C484 579 528 566 560 539 C588 516 599 492 605 438 L728 438 L777 670 L673 670 L646 637 C565 673 508 686 423 686 C313 686 224 659 157 605 C100 558 65 490 65 424 C65 387 78 356 103 330 C133 301 207 272 341 239 C457 210 459 209 478 190 C484 184 488 173 488 162 C488 116 432 82 355 82 C298 82 241 101 202 133 C173 158 159 185 146 245 L41 245 L-12 -3 L89 -3 L123 34 C198 1 224 -7 279 -15 L261 -99 C275 -97 292 -95 300 -95 C330 -95 348 -107 348 -127 C348 -152 322 -171 288 -171 C247 -171 208 -159 156 -130 L118 -182 C197 -218 242 -230 295 -230 C381 -230 446 -182 446 -120 C446 -77 413 -50 363 -50 C351 -50 333 -51 315 -54 L322 -19 Z " />
<glyph glyph-name="scedilla" unicode="&#x15f;" horiz-adv-x="623" d="M246 -17 L249 -17 C330 -17 383 -7 433 19 C500 53 539 108 539 170 C539 229 507 258 408 288 C377 297 295 320 283 323 C250 331 236 342 236 359 C236 386 269 403 322 403 C344 403 365 400 386 393 C425 381 440 369 465 330 L551 330 L582 478 L501 478 L480 450 C407 479 373 486 304 486 C204 486 130 464 76 419 C41 390 18 344 18 303 C18 251 48 223 136 195 C186 179 248 161 279 153 C312 146 325 135 325 118 C325 89 294 74 236 74 C209 74 183 78 161 86 C124 98 109 116 94 164 L-3 164 L-39 -7 L38 -7 L65 30 C107 5 134 -4 202 -14 L184 -98 C199 -96 216 -94 224 -94 C254 -94 272 -106 272 -126 C272 -152 247 -171 211 -171 C171 -171 132 -159 80 -130 L41 -182 C119 -217 166 -230 218 -230 C303 -230 368 -182 368 -118 C368 -76 336 -49 287 -49 C275 -49 256 -51 238 -53 L246 -17 Z " />
<glyph glyph-name="Scaron" unicode="&#x160;" horiz-adv-x="770" d="M41 245 L-12 -3 L89 -3 L123 34 C218 -9 267 -20 354 -20 C565 -20 718 89 718 239 C718 340 641 394 444 431 C319 455 319 455 299 469 C290 475 284 487 284 498 C284 544 346 579 428 579 C484 579 528 566 560 539 C588 516 599 492 605 438 L728 438 L777 670 L673 670 L646 637 C565 673 508 686 423 686 C313 686 224 659 157 605 C101 559 65 490 65 427 C65 386 77 356 103 330 C133 301 207 272 341 239 C457 210 459 209 478 190 C484 184 488 173 488 162 C488 116 432 82 355 82 C298 82 241 101 202 133 C173 158 159 185 146 245 L41 245 Z M329 869 L399 723 L522 723 L655 869 L606 869 L479 810 L378 869 L329 869 Z " />
<glyph glyph-name="scaron" unicode="&#x161;" horiz-adv-x="623" d="M38 -7 L65 30 C121 -3 183 -17 265 -17 C423 -17 539 62 539 170 C539 229 508 258 408 287 C374 298 295 320 283 323 C250 331 236 342 236 359 C236 386 269 403 321 403 C344 403 365 400 386 393 C425 381 440 369 465 330 L551 330 L582 478 L501 478 L480 450 C407 479 373 486 304 486 C204 486 130 464 76 419 C41 390 18 344 18 304 C18 251 48 223 136 195 C174 182 254 159 279 153 C312 146 325 135 325 117 C325 89 294 74 236 74 C209 74 184 78 161 86 C124 98 109 116 94 164 L-3 164 L-39 -7 L38 -7 Z M215 724 L292 534 L387 534 L545 724 L494 724 L361 636 L267 724 L215 724 Z " />
<glyph glyph-name="Tcommaaccent" unicode="&#x162;" horiz-adv-x="814" d="M146 414 C170 515 216 556 310 562 L345 562 L257 152 C249 101 241 95 180 94 L118 94 L98 0 L579 0 L599 94 L532 94 C488 94 473 100 473 119 C473 124 475 136 478 152 L566 562 L600 562 C666 562 708 527 708 473 C708 459 706 443 702 414 L810 414 L863 667 L92 667 L38 414 L146 414 Z M207 -290 C255 -283 280 -273 312 -251 C359 -217 389 -167 389 -121 C389 -80 362 -53 322 -53 C273 -53 230 -95 230 -143 C230 -170 249 -191 274 -191 C280 -191 288 -190 297 -188 C276 -220 264 -228 219 -238 L207 -290 Z " />
<glyph glyph-name="tcommaaccent" unicode="&#x163;" horiz-adv-x="502" d="M100 383 L54 167 C47 133 42 103 42 90 C42 23 106 -19 207 -19 C278 -19 333 -2 371 32 C403 60 416 89 431 158 L445 221 L359 221 L350 178 C333 98 316 73 276 73 C252 73 238 84 238 104 C238 114 240 128 244 142 L295 383 L459 383 L477 469 L313 469 L352 652 L234 652 C178 513 131 471 34 469 L16 383 L100 383 Z M-6 -290 C42 -283 67 -273 98 -251 C145 -217 175 -166 175 -121 C175 -80 148 -53 108 -53 C59 -53 16 -95 16 -143 C16 -170 35 -191 61 -191 C67 -191 75 -190 84 -188 C63 -220 51 -228 5 -238 L-6 -290 Z " />
<glyph glyph-name="Tcaron" unicode="&#x164;" horiz-adv-x="814" d="M146 414 C170 515 216 556 310 562 L345 562 L257 152 C249 101 241 95 180 94 L118 94 L98 0 L579 0 L599 94 L532 94 C488 94 473 100 473 119 C473 124 475 136 478 152 L566 562 L600 562 C666 562 708 527 708 473 C708 459 706 443 702 414 L810 414 L863 667 L92 667 L38 414 L146 414 Z M339 869 L410 723 L532 723 L665 869 L616 869 L489 810 L388 869 L339 869 Z " />
<glyph glyph-name="tcaron" unicode="&#x165;" horiz-adv-x="502" d="M100 383 L54 167 C47 132 42 102 42 90 C42 23 106 -19 208 -19 C278 -19 333 -2 372 32 C403 60 417 89 432 158 L445 221 L360 221 L350 178 C333 98 316 73 277 73 C252 73 238 84 238 104 C238 114 240 128 244 142 L295 383 L459 383 L478 469 L314 469 L352 652 L235 652 C178 513 132 471 34 469 L16 383 L100 383 Z M452 526 C499 533 524 543 556 565 C603 599 633 650 633 695 C633 736 606 763 566 763 C517 763 474 721 474 674 C474 647 493 626 519 626 C525 626 533 627 541 628 C520 596 508 588 463 579 L452 526 Z " />
<glyph glyph-name="Umacron" unicode="&#x16a;" horiz-adv-x="852" d="M555 573 L594 573 C637 573 652 567 652 548 C652 544 650 531 647 516 L583 214 C572 165 558 139 531 117 C504 96 458 83 407 83 C337 83 301 109 301 159 C301 172 303 188 311 222 L373 516 C383 566 392 573 453 573 L498 573 L518 667 L76 667 L56 573 L98 573 C143 573 158 567 158 548 C158 542 156 530 153 516 L84 189 C80 173 78 154 78 141 C78 40 177 -20 344 -20 C555 -20 684 56 714 197 L782 519 C791 565 801 573 859 573 L894 573 L914 667 L575 667 L555 573 Z M362 754 L669 754 L686 838 L380 838 L362 754 Z " />
<glyph glyph-name="umacron" unicode="&#x16b;" horiz-adv-x="754" d="M372 0 L664 0 L683 87 L655 87 C615 87 602 93 602 113 C602 123 602 127 604 134 L675 469 L414 469 L395 381 L414 381 C444 381 454 376 454 358 C454 352 453 343 451 335 L418 181 C406 122 361 86 301 86 C255 86 230 105 230 138 C230 146 231 156 233 166 L298 469 L40 469 L21 381 L37 381 C67 381 78 375 77 358 C77 351 76 343 74 335 L36 156 C29 125 25 95 25 79 C25 20 82 -17 174 -17 C258 -17 313 5 387 69 L372 0 Z M226 585 L541 585 L560 672 L244 672 L226 585 Z " />
<glyph glyph-name="Uring" unicode="&#x16e;" horiz-adv-x="852" d="M555 573 L594 573 C637 573 652 567 652 548 C652 544 650 531 647 516 L583 214 C572 165 558 139 531 117 C504 96 458 83 407 83 C337 83 301 109 301 159 C301 172 303 188 311 222 L373 516 C383 566 392 573 453 573 L498 573 L518 667 L76 667 L56 573 L98 573 C143 573 158 567 158 548 C158 542 156 530 153 516 L84 189 C80 173 78 154 78 141 C78 40 177 -20 344 -20 C555 -20 684 56 714 197 L782 519 C791 565 801 573 859 573 L894 573 L914 667 L575 667 L555 573 Z M566 922 C490 922 422 859 422 788 C422 732 460 691 512 691 C585 691 657 760 657 831 C657 884 619 922 566 922 L566 922 Z M550 851 C571 850 585 835 585 814 C585 787 557 761 528 761 C508 761 493 777 493 798 C493 825 522 852 550 851 L550 851 Z " />
<glyph glyph-name="uring" unicode="&#x16f;" horiz-adv-x="754" d="M372 0 L664 0 L683 87 L655 87 C615 87 602 93 602 113 C602 123 602 127 604 134 L675 469 L414 469 L395 381 L414 381 C444 381 454 376 454 358 C454 352 453 343 451 335 L418 181 C406 122 361 86 301 86 C255 86 230 105 230 138 C230 146 231 156 233 166 L298 469 L40 469 L21 381 L37 381 C67 381 78 375 77 358 C77 351 76 343 74 335 L36 156 C29 125 25 95 25 79 C25 20 82 -17 174 -17 C258 -17 313 5 387 69 L372 0 Z M452 793 C361 793 280 717 280 631 C280 565 324 520 388 520 C476 520 559 599 559 683 C559 746 513 793 452 793 L452 793 Z M433 715 C460 713 479 694 479 667 C479 632 443 598 405 598 C378 598 359 617 359 645 C359 681 397 717 433 715 L433 715 Z " />
<glyph glyph-name="Uhungarumlaut" unicode="&#x170;" horiz-adv-x="852" d="M555 573 L594 573 C637 573 652 567 652 548 C652 544 650 531 647 516 L583 214 C572 165 558 139 531 117 C504 96 458 83 407 83 C337 83 301 109 301 159 C301 172 303 188 311 222 L373 516 C383 566 392 573 453 573 L498 573 L518 667 L76 667 L56 573 L98 573 C143 573 158 567 158 548 C158 542 156 530 153 516 L84 189 C80 173 78 154 78 141 C78 40 177 -20 344 -20 C555 -20 684 56 714 197 L782 519 C791 565 801 573 859 573 L894 573 L914 667 L575 667 L555 573 Z M448 721 L562 789 C588 805 601 823 601 842 C601 862 585 877 565 877 C545 877 528 866 505 838 L407 721 L448 721 Z M599 721 L741 787 C774 802 789 819 789 840 C789 860 773 877 754 877 C735 877 720 869 694 845 L559 721 L599 721 Z " />
<glyph glyph-name="uhungarumlaut" unicode="&#x171;" horiz-adv-x="754" d="M372 0 L664 0 L683 87 L655 87 C615 87 602 93 602 113 C602 123 602 127 604 134 L675 469 L414 469 L395 381 L414 381 C444 381 454 376 454 358 C454 352 453 343 451 335 L418 181 C406 122 361 86 301 86 C255 86 230 105 230 138 C230 146 231 156 233 166 L298 469 L40 469 L21 381 L37 381 C67 381 78 375 77 358 C77 351 76 343 74 335 L36 156 C29 125 25 95 25 79 C25 20 82 -17 174 -17 C258 -17 313 5 387 69 L372 0 Z M253 535 L300 535 L436 637 C465 659 480 680 480 699 C480 721 464 737 441 737 C413 737 395 724 358 674 L253 535 Z M404 535 L450 535 L620 632 C656 653 673 673 673 696 C673 718 657 735 635 735 C607 735 594 726 550 683 L404 535 Z " />
<glyph glyph-name="Uogonek" unicode="&#x172;" horiz-adv-x="852" d="M894 573 L914 667 L575 667 L555 573 L594 573 C637 573 652 567 652 548 C652 544 650 531 647 515 L583 214 C572 164 558 138 531 116 C504 94 458 82 405 82 C337 82 301 109 301 160 C301 171 304 189 311 222 L373 515 C383 566 392 573 453 573 L498 573 L518 667 L76 667 L56 573 L98 573 C143 573 158 567 158 548 C158 542 156 530 153 515 L84 189 C80 172 78 153 78 139 C78 39 178 -21 344 -21 C377 -21 414 -18 450 -13 C360 -69 319 -118 319 -169 C319 -208 350 -230 403 -230 C461 -230 509 -201 556 -138 L538 -128 C506 -156 492 -163 465 -163 C435 -163 421 -151 421 -124 C421 -106 430 -82 446 -62 C466 -36 476 -28 527 -4 C645 54 690 102 714 197 L782 519 C791 565 801 573 859 573 L894 573 Z " />
<glyph glyph-name="uogonek" unicode="&#x173;" horiz-adv-x="754" d="M664 0 L683 87 L655 87 C615 87 602 93 602 113 C602 123 602 127 604 134 L675 469 L414 469 L395 381 L414 381 C444 381 454 376 454 358 C454 352 453 343 451 335 L418 181 C406 122 361 86 301 86 C255 86 230 105 230 138 C230 146 231 156 233 166 L298 469 L40 469 L21 381 L37 381 C67 381 78 375 77 358 C77 351 76 343 74 335 L36 156 C29 125 25 95 25 79 C25 20 82 -17 174 -17 C258 -17 314 5 387 69 L372 0 L561 0 C461 -57 410 -114 410 -169 C410 -208 440 -230 492 -230 C550 -230 598 -201 645 -138 L627 -128 C594 -157 581 -163 554 -163 C524 -163 510 -151 510 -124 C510 -84 543 -40 604 0 L664 0 Z " />
<glyph glyph-name="Ydieresis" unicode="&#x178;" horiz-adv-x="754" d="M24 573 L45 573 C89 570 109 555 132 510 L252 268 L227 152 C219 101 211 95 149 94 L103 94 L83 0 L529 0 L549 94 L503 94 C458 94 443 100 443 119 C443 124 445 136 448 152 L473 268 L698 506 C737 553 765 570 806 573 L828 573 L848 667 L519 667 L499 573 L521 573 C543 573 558 567 558 558 C558 551 551 535 541 523 L437 393 L382 521 C379 529 377 538 377 543 C377 563 394 573 428 573 L451 573 L471 667 L44 667 L24 573 Z M388 878 C339 878 292 834 292 788 C292 751 317 726 352 726 C401 726 448 770 448 816 C448 850 421 878 388 878 L388 878 Z M618 878 C569 878 522 834 522 788 C522 751 547 726 582 726 C631 726 677 770 677 816 C677 850 651 878 618 878 L618 878 Z " />
<glyph glyph-name="Zacute" unicode="&#x179;" horiz-adv-x="737" d="M-54 0 L636 0 L693 267 L562 267 C524 132 474 90 351 94 L252 94 L758 573 L778 667 L106 667 L53 418 L179 418 C215 541 255 572 377 573 L474 573 L-34 94 L-54 0 Z M421 723 L579 777 C614 790 637 814 637 839 C637 863 621 879 598 879 C580 879 564 872 537 851 L364 723 L421 723 Z " />
<glyph glyph-name="zacute" unicode="&#x17a;" horiz-adv-x="563" d="M-54 0 L460 0 L504 206 L405 206 C383 107 367 91 280 87 L208 87 L539 373 L560 469 L64 469 L24 280 L123 280 C147 368 159 378 233 382 L305 382 L-33 96 L-54 0 Z M262 534 L320 534 L505 617 C553 639 573 661 573 691 C573 718 555 735 528 735 C502 735 480 723 437 686 L262 534 Z " />
<glyph glyph-name="Zdotaccent" unicode="&#x17b;" horiz-adv-x="737" d="M-54 0 L636 0 L693 267 L562 267 C524 132 474 90 351 94 L252 94 L758 573 L778 667 L106 667 L53 418 L179 418 C215 541 255 572 377 573 L474 573 L-34 94 L-54 0 Z M468 866 C420 866 374 823 374 779 C374 743 399 717 432 717 C479 717 525 761 525 805 C525 839 499 866 468 866 L468 866 Z " />
<glyph glyph-name="zdotaccent" unicode="&#x17c;" horiz-adv-x="563" d="M-54 0 L460 0 L504 206 L405 206 C383 107 367 91 280 87 L208 87 L539 373 L560 469 L64 469 L24 280 L123 280 C147 368 159 378 233 382 L305 382 L-33 96 L-54 0 Z M365 707 C315 707 266 662 266 616 C266 579 292 553 330 553 C378 553 424 598 424 645 C424 680 399 707 365 707 L365 707 Z " />
<glyph glyph-name="Zcaron" unicode="&#x17d;" horiz-adv-x="737" d="M-54 0 L636 0 L693 267 L562 267 C524 132 474 90 351 94 L252 94 L758 573 L778 667 L106 667 L53 418 L179 418 C215 541 255 572 377 573 L474 573 L-34 94 L-54 0 Z M320 869 L391 723 L513 723 L646 869 L597 869 L470 810 L369 869 L320 869 Z " />
<glyph glyph-name="zcaron" unicode="&#x17e;" horiz-adv-x="563" d="M-54 0 L460 0 L504 206 L405 206 C383 107 367 91 280 87 L208 87 L539 373 L560 469 L64 469 L24 280 L123 280 C147 368 159 378 233 382 L305 382 L-33 96 L-54 0 Z M200 724 L277 534 L372 534 L530 724 L478 724 L346 636 L251 724 L200 724 Z " />
<glyph glyph-name="florin" unicode="&#x192;" horiz-adv-x="728" d="M506 469 L530 532 C549 579 557 592 577 605 C589 613 604 618 618 618 C626 618 632 617 645 614 C602 594 580 568 580 539 C580 511 604 494 645 494 C713 494 772 544 772 600 C772 653 717 684 621 684 C536 684 455 661 400 621 C364 594 341 560 316 496 L306 469 L228 469 L193 378 L271 378 L117 -18 C100 -61 94 -74 84 -85 C69 -101 48 -111 27 -111 C19 -111 13 -110 0 -106 C42 -87 65 -60 65 -31 C65 -3 41 14 0 14 C-68 14 -127 -36 -127 -93 C-127 -145 -70 -177 25 -177 C108 -177 191 -153 245 -113 C285 -84 304 -54 337 32 L471 378 L565 378 L600 469 L506 469 Z " />
<glyph glyph-name="uni01D3" unicode="&#x1d3;" horiz-adv-x="852" d="M555 573 L594 573 C637 573 652 567 652 548 C652 544 650 531 647 516 L583 214 C572 165 558 139 531 117 C504 96 458 83 407 83 C337 83 301 109 301 159 C301 172 303 188 311 222 L373 516 C383 566 392 573 453 573 L498 573 L518 667 L76 667 L56 573 L98 573 C143 573 158 567 158 548 C158 542 156 530 153 516 L84 189 C80 173 78 154 78 141 C78 40 177 -20 344 -20 C555 -20 684 56 714 197 L782 519 C791 565 801 573 859 573 L894 573 L914 667 L575 667 L555 573 Z M376 869 L447 723 L570 723 L703 869 L654 869 L527 810 L426 869 L376 869 Z " />
<glyph glyph-name="Scommaaccent" unicode="&#x218;" horiz-adv-x="770" d="M41 245 L-12 -3 L89 -3 L123 34 C218 -9 267 -20 354 -20 C565 -20 718 89 718 239 C718 340 641 394 444 431 C319 455 319 455 299 469 C290 475 284 487 284 498 C284 544 346 579 428 579 C484 579 528 566 560 539 C588 516 599 492 605 438 L728 438 L777 670 L673 670 L646 637 C565 673 508 686 423 686 C313 686 224 659 157 605 C101 559 65 490 65 427 C65 386 77 356 103 330 C133 301 207 272 341 239 C457 210 459 209 478 190 C484 184 488 173 488 162 C488 116 432 82 355 82 C298 82 241 101 202 133 C173 158 159 185 146 245 L41 245 Z M222 -290 C270 -283 295 -273 326 -251 C373 -217 403 -167 403 -121 C403 -80 376 -53 336 -53 C287 -53 244 -95 244 -143 C244 -170 263 -191 289 -191 C295 -191 303 -190 312 -188 C291 -220 279 -228 234 -238 L222 -290 Z " />
<glyph glyph-name="scommaaccent" unicode="&#x219;" horiz-adv-x="623" d="M38 -7 L65 30 C121 -3 183 -17 265 -17 C423 -17 539 62 539 170 C539 229 508 258 408 287 C374 298 295 320 283 323 C250 331 236 342 236 359 C236 386 269 403 321 403 C344 403 365 400 386 393 C425 381 440 369 465 330 L551 330 L582 478 L501 478 L480 450 C407 479 373 486 304 486 C204 486 130 464 76 419 C41 390 18 344 18 304 C18 251 48 223 136 195 C174 182 254 159 279 153 C312 146 325 135 325 117 C325 89 294 74 236 74 C209 74 184 78 161 86 C124 98 109 116 94 164 L-3 164 L-39 -7 L38 -7 Z M112 -290 C160 -283 185 -273 217 -251 C264 -217 294 -167 294 -121 C294 -80 267 -53 226 -53 C177 -53 134 -95 134 -143 C134 -170 153 -191 179 -191 C185 -191 193 -190 202 -188 C181 -220 169 -228 124 -238 L112 -290 Z " />
<glyph glyph-name="uni021A" unicode="&#x21a;" horiz-adv-x="814" d="M146 414 C170 515 216 556 310 562 L345 562 L257 152 C249 101 241 95 180 94 L118 94 L98 0 L579 0 L599 94 L532 94 C488 94 473 100 473 119 C473 124 475 136 478 152 L566 562 L600 562 C666 562 708 527 708 473 C708 459 706 443 702 414 L810 414 L863 667 L92 667 L38 414 L146 414 Z M207 -290 C255 -283 280 -273 312 -251 C359 -217 389 -167 389 -121 C389 -80 362 -53 322 -53 C273 -53 230 -95 230 -143 C230 -170 249 -191 274 -191 C280 -191 288 -190 297 -188 C276 -220 264 -228 219 -238 L207 -290 Z " />
<glyph glyph-name="uni021B" unicode="&#x21b;" horiz-adv-x="502" d="M100 383 L54 167 C47 133 42 103 42 90 C42 23 106 -19 207 -19 C278 -19 333 -2 371 32 C403 60 416 89 431 158 L445 221 L359 221 L350 178 C333 98 316 73 276 73 C252 73 238 84 238 104 C238 114 240 128 244 142 L295 383 L459 383 L477 469 L313 469 L352 652 L234 652 C178 513 131 471 34 469 L16 383 L100 383 Z M-6 -290 C42 -283 67 -273 98 -251 C145 -217 175 -166 175 -121 C175 -80 148 -53 108 -53 C59 -53 16 -95 16 -143 C16 -170 35 -191 61 -191 C67 -191 75 -190 84 -188 C63 -220 51 -228 5 -238 L-6 -290 Z " />
<glyph glyph-name="afii57929" unicode="&#x2bc;" horiz-adv-x="300" d="M57 393 C123 401 158 412 202 441 C270 484 311 547 311 604 C311 656 273 690 215 690 C149 690 91 639 91 580 C91 542 118 516 156 516 C164 516 173 517 183 518 C152 474 135 465 70 455 L57 393 Z " />
<glyph glyph-name="circumflex" unicode="&#x2c6;" horiz-adv-x="517" d="M136 534 L188 534 L320 622 L415 534 L466 534 L389 724 L294 724 L136 534 Z " />
<glyph glyph-name="caron" unicode="&#x2c7;" horiz-adv-x="517" d="M176 724 L253 534 L348 534 L506 724 L455 724 L322 636 L228 724 L176 724 Z " />
<glyph glyph-name="uni02C9" unicode="&#x2c9;" horiz-adv-x="518" d="M155 585 L470 585 L489 672 L173 672 L155 585 Z " />
<glyph glyph-name="breve" unicode="&#x2d8;" horiz-adv-x="516" d="M170 708 C170 664 172 646 178 628 C194 580 241 550 303 550 C351 550 400 568 436 598 C465 623 481 648 505 708 L457 708 C441 680 430 668 410 660 C388 650 357 645 325 645 C291 645 262 650 244 660 C230 668 222 681 218 708 L170 708 Z " />
<glyph glyph-name="dotaccent" unicode="&#x2d9;" horiz-adv-x="534" d="M350 707 C300 707 252 662 252 616 C252 579 278 553 316 553 C364 553 409 598 409 645 C409 680 384 707 350 707 L350 707 Z " />
<glyph glyph-name="ring" unicode="&#x2da;" horiz-adv-x="666" d="M408 793 C318 793 237 717 237 631 C237 565 280 520 344 520 C432 520 515 599 515 683 C515 746 469 793 408 793 L408 793 Z M389 715 C417 713 435 694 435 667 C435 632 399 598 362 598 C334 598 316 617 316 645 C316 681 354 717 389 715 L389 715 Z " />
<glyph glyph-name="ogonek" unicode="&#x2db;" horiz-adv-x="550" d="M256 25 C121 -41 55 -105 55 -169 C55 -208 85 -230 137 -230 C195 -230 244 -201 290 -138 L273 -128 C240 -157 227 -163 200 -163 C170 -163 156 -151 156 -125 C156 -100 170 -71 196 -43 C215 -23 229 -12 288 25 L256 25 Z " />
<glyph glyph-name="tilde" unicode="&#x2dc;" horiz-adv-x="516" d="M179 549 C195 583 213 597 237 597 C248 597 257 596 269 592 L325 576 C336 573 348 571 358 571 C389 571 418 583 442 605 C466 629 480 651 506 708 L463 708 C443 671 430 661 405 661 C398 661 390 662 382 664 L323 681 C310 684 298 686 284 686 C258 686 232 677 211 661 C182 639 164 613 136 549 L179 549 Z " />
<glyph glyph-name="hungarumlaut" unicode="&#x2dd;" horiz-adv-x="529" d="M182 535 L228 535 L364 637 C393 658 408 680 408 699 C408 721 392 737 369 737 C341 737 324 724 286 674 L182 535 Z M333 535 L379 535 L548 632 C585 653 602 673 602 696 C602 718 586 735 564 735 C536 735 522 726 479 683 L333 535 Z " />
<glyph glyph-name="uni2011" unicode="&#x2011;" horiz-adv-x="319" d="M-38 154 L281 154 L314 312 L-5 312 L-38 154 Z " />
<glyph glyph-name="figuredash" unicode="&#x2012;" horiz-adv-x="605" d="M-5 170 L541 170 L568 295 L22 295 L-5 170 Z " />
<glyph glyph-name="endash" unicode="&#x2013;" horiz-adv-x="605" d="M-5 170 L541 170 L568 295 L22 295 L-5 170 Z " />
<glyph glyph-name="emdash" unicode="&#x2014;" horiz-adv-x="896" d="M-35 170 L861 170 L887 295 L-8 295 L-35 170 Z " />
<glyph glyph-name="afii00208" unicode="&#x2015;" horiz-adv-x="896" d="M-35 170 L861 170 L887 295 L-8 295 L-35 170 Z " />
<glyph glyph-name="quoteleft" unicode="&#x2018;" horiz-adv-x="300" d="M324 687 C257 679 222 667 179 639 C111 595 70 533 70 476 C70 424 108 390 166 390 C233 390 290 441 290 500 C290 538 264 563 224 563 C215 563 208 563 198 562 C229 605 246 615 310 624 L324 687 Z " />
<glyph glyph-name="quoteright" unicode="&#x2019;" horiz-adv-x="300" d="M57 393 C123 401 158 412 202 441 C270 484 311 547 311 604 C311 656 273 690 215 690 C149 690 91 639 91 580 C91 542 118 516 156 516 C164 516 173 517 183 518 C152 474 135 465 70 455 L57 393 Z " />
<glyph glyph-name="quotesinglbase" unicode="&#x201a;" horiz-adv-x="300" d="M-54 -131 C12 -123 47 -112 91 -83 C159 -40 200 23 200 80 C200 132 162 166 104 166 C38 166 -20 115 -20 56 C-20 18 7 -8 45 -8 C52 -8 62 -7 72 -6 C41 -50 24 -59 -41 -68 L-54 -131 Z " />
<glyph glyph-name="quotedblleft" unicode="&#x201c;" horiz-adv-x="557" d="M577 692 C511 684 476 673 432 644 C364 601 323 538 323 481 C323 429 361 395 419 395 C486 395 543 446 543 505 C543 544 517 569 477 569 C471 569 461 568 451 567 C482 611 499 620 564 629 L577 692 Z M319 692 C254 684 219 673 175 644 C107 601 66 538 66 481 C66 429 104 395 162 395 C229 395 286 446 286 505 C286 544 260 569 220 569 C213 569 203 568 194 567 C224 611 241 620 306 629 L319 692 Z " />
<glyph glyph-name="quotedblright" unicode="&#x201d;" horiz-adv-x="557" d="M314 393 C381 401 416 412 459 441 C527 484 568 547 568 604 C568 656 530 690 472 690 C406 690 348 639 348 580 C348 542 375 516 414 516 C421 516 430 517 440 518 C410 474 393 465 328 455 L314 393 Z M57 393 C123 401 158 412 202 441 C270 484 311 547 311 604 C311 656 273 690 215 690 C149 690 91 639 91 580 C91 542 118 516 156 516 C164 516 173 517 183 518 C152 474 135 465 70 455 L57 393 Z " />
<glyph glyph-name="quotedblbase" unicode="&#x201e;" horiz-adv-x="557" d="M-54 -131 C12 -123 47 -112 91 -83 C159 -40 200 23 200 80 C200 132 162 166 104 166 C37 166 -20 115 -20 56 C-20 17 6 -8 46 -8 C53 -8 62 -7 72 -6 C41 -50 24 -59 -41 -68 L-54 -131 Z M203 -131 C269 -123 304 -112 348 -83 C416 -40 457 23 457 80 C457 132 419 166 361 166 C294 166 237 115 237 56 C237 17 263 -8 303 -8 C310 -8 320 -7 329 -6 C299 -49 282 -59 217 -68 L203 -131 Z " />
<glyph glyph-name="dagger" unicode="&#x2020;" horiz-adv-x="683" d="M252 439 C212 454 199 458 180 458 C122 458 79 417 79 362 C79 325 100 305 139 305 C180 305 199 311 310 358 C305 318 295 287 237 122 C165 -68 158 -91 158 -134 C158 -177 184 -200 231 -200 C268 -200 301 -183 320 -153 C340 -120 351 -66 355 33 C362 209 371 309 386 358 C494 305 494 305 533 305 C586 305 626 347 626 401 C626 436 600 458 558 458 C534 458 526 456 398 412 C409 448 416 464 436 501 C488 592 493 602 493 636 C493 671 470 688 421 688 C346 688 310 654 310 581 C310 565 311 561 320 501 C323 481 324 468 324 453 C324 445 323 430 320 412 C299 420 282 427 271 431 L252 439 Z " />
<glyph glyph-name="daggerdbl" unicode="&#x2021;" horiz-adv-x="683" d="M261 372 C271 375 289 380 315 385 C307 353 271 295 228 244 C246 205 258 160 258 129 C258 124 257 116 256 105 C221 112 221 112 162 136 C151 141 124 145 106 145 C53 145 14 107 14 58 C14 25 40 4 83 4 C107 4 128 10 243 46 C233 15 227 2 207 -32 C157 -111 153 -120 153 -149 C153 -182 177 -198 229 -198 C300 -198 335 -168 335 -106 C335 -91 335 -91 323 -32 C320 -13 318 2 318 16 C318 22 319 33 320 46 C342 39 359 33 370 29 C376 26 382 24 389 22 C429 7 442 4 461 4 C518 4 560 41 560 91 C560 126 538 145 499 145 C479 145 452 141 438 136 L386 118 C376 115 358 110 332 105 C340 137 376 195 418 244 C400 289 389 333 389 361 C389 366 390 374 391 385 C426 378 426 378 485 354 C496 349 523 345 541 345 C594 345 633 382 633 432 C633 465 607 486 564 486 C539 486 528 483 404 443 C414 475 421 489 440 522 C490 601 494 610 494 640 C494 672 471 688 422 688 C347 688 312 659 312 597 C312 581 312 580 324 522 C327 503 329 488 329 474 C329 468 328 457 326 443 C320 446 297 454 258 468 C218 483 205 486 186 486 C129 486 87 449 87 399 C87 364 109 345 148 345 C168 345 195 349 209 354 L261 372 Z " />
<glyph glyph-name="bullet" unicode="&#x2022;" horiz-adv-x="733" d="M399 480 C303 480 214 400 214 313 C214 247 266 200 338 200 C433 200 522 281 522 367 C522 432 470 480 399 480 L399 480 Z " />
<glyph glyph-name="ellipsis" unicode="&#x2026;" horiz-adv-x="1065" d="M143 166 C78 166 20 116 20 59 C20 13 53 -17 103 -17 C165 -17 224 36 224 91 C224 134 190 166 143 166 L143 166 Z M498 166 C433 166 375 116 375 59 C375 13 408 -17 458 -17 C520 -17 579 36 579 91 C579 134 545 166 498 166 L498 166 Z M853 166 C788 166 730 116 730 59 C730 13 763 -17 813 -17 C875 -17 934 36 934 91 C934 134 900 166 853 166 L853 166 Z " />
<glyph glyph-name="perthousand" unicode="&#x2030;" horiz-adv-x="1527" d="M305 622 C160 622 48 518 48 383 C48 297 118 240 223 240 C368 240 479 344 479 479 C479 565 410 622 305 622 L305 622 Z M288 547 C333 547 353 528 353 484 C353 442 339 387 320 358 C301 328 277 315 240 315 C194 315 175 334 175 380 C175 422 189 475 208 504 C228 534 252 547 288 547 L288 547 Z M814 365 C669 365 557 261 557 126 C557 40 627 -17 732 -17 C877 -17 988 87 988 222 C988 308 918 365 814 365 L814 365 Z M796 290 C842 290 862 271 862 227 C862 185 848 130 829 101 C810 70 786 58 748 58 C702 58 683 77 683 123 C683 165 697 218 716 247 C736 277 760 290 796 290 L796 290 Z M188 -17 L293 -17 L846 623 L743 623 L188 -17 Z M1287 365 C1142 365 1030 261 1030 126 C1030 40 1100 -17 1205 -17 C1350 -17 1461 87 1461 222 C1461 308 1391 365 1287 365 L1287 365 Z M1269 290 C1315 290 1335 271 1335 227 C1335 185 1321 130 1302 101 C1283 70 1259 58 1221 58 C1175 58 1156 77 1156 123 C1156 165 1170 218 1189 247 C1209 277 1233 290 1269 290 L1269 290 Z " />
<glyph glyph-name="guilsinglleft" unicode="&#x2039;" horiz-adv-x="317" d="M219 67 C167 196 167 196 167 217 C167 252 184 280 282 406 L173 406 C58 296 22 252 22 224 C22 206 32 186 102 67 L219 67 Z " />
<glyph glyph-name="guilsinglright" unicode="&#x203a;" horiz-adv-x="317" d="M104 67 C183 145 183 145 194 157 C241 205 255 225 255 245 C255 267 227 325 177 406 L68 406 C81 366 91 336 98 316 C107 290 111 273 111 262 C111 235 91 194 58 153 C37 127 14 99 -13 67 L104 67 Z " />
<glyph glyph-name="uni203E" unicode="&#x203e;" horiz-adv-x="500" d="M-81 787 L-105 674 L395 674 L419 787 L-81 787 Z " />
<glyph glyph-name="fraction" unicode="&#x2044;" horiz-adv-x="180" d="M-255 -17 L-152 -17 L428 622 L324 622 L-255 -17 Z " />
<glyph glyph-name="Euro" unicode="&#x20ac;" horiz-adv-x="974" d="M139 355 C135 340 131 322 129 310 L73 310 L13 221 L124 221 C125 186 130 162 141 134 C180 36 292 -20 453 -20 C577 -20 682 15 756 81 C805 124 827 165 856 258 L738 258 C715 193 698 165 661 134 C618 99 565 79 510 79 C428 79 382 124 382 206 C382 208 382 215 383 221 L511 221 L572 310 L394 310 C397 325 397 326 403 352 L404 355 L604 355 L664 444 L430 444 C464 535 528 585 612 585 C667 585 708 565 728 528 C743 499 748 473 752 402 L884 402 L942 676 L822 676 L796 640 C722 678 682 687 594 687 C408 687 251 597 173 444 L102 444 L41 355 L139 355 Z " />
<glyph glyph-name="trademark" unicode="&#x2122;" horiz-adv-x="1240" d="M128 518 C142 577 167 598 227 601 L244 601 L196 375 C192 348 189 347 153 346 L110 346 L97 287 L407 287 L420 346 L374 346 C347 346 338 349 339 358 C339 361 340 366 342 375 L390 601 L408 601 C449 601 475 582 475 552 C475 544 474 535 472 518 L547 518 L578 667 L85 667 L53 518 L128 518 Z M1298 667 L1024 667 L897 452 L867 667 L602 667 L589 608 L615 608 C641 608 649 605 649 595 C649 592 648 586 646 579 L603 375 C598 349 595 347 560 346 L533 346 L521 287 L735 287 L748 346 L725 346 C699 346 690 350 691 359 C691 361 692 367 694 375 L738 581 L786 287 L900 287 L1080 582 L1037 375 C1032 349 1029 347 992 346 L969 346 L956 287 L1217 287 L1230 346 L1201 346 C1175 346 1166 349 1166 358 C1166 361 1167 367 1169 375 L1212 579 C1217 605 1220 607 1256 608 L1285 608 L1298 667 Z " />
<glyph glyph-name="uni2126" unicode="&#x2126;" horiz-adv-x="768" d="M326 0 L308 155 C230 199 180 288 180 382 C180 434 195 493 221 540 C257 605 317 642 385 642 C453 642 513 605 549 540 C575 493 590 434 590 382 C590 288 540 199 462 155 L444 0 L736 0 L736 153 L712 153 C704 108 684 90 643 90 L497 90 L500 128 C535 141 557 151 580 166 C657 215 702 296 702 382 C702 449 673 522 625 578 C564 648 480 686 385 686 C290 686 206 648 145 578 C97 522 68 449 68 382 C68 296 113 215 190 166 C213 151 235 141 270 128 L273 90 L127 90 C86 90 66 108 58 153 L34 153 L34 0 L326 0 Z " />
<glyph glyph-name="partialdiff" unicode="&#x2202;" horiz-adv-x="494" d="M107 674 C152 697 184 706 219 706 C321 706 379 611 379 447 C379 418 377 394 372 346 C308 396 272 412 221 412 C172 412 131 394 95 355 C51 309 26 246 26 184 C26 76 109 -10 213 -10 C282 -10 341 22 383 84 C429 152 462 286 462 403 C462 519 428 611 360 681 C312 730 259 753 195 753 C155 753 122 746 66 725 L107 674 Z M366 312 C350 201 340 158 314 107 C288 54 245 21 201 21 C146 21 113 73 113 159 C113 273 180 367 261 367 C299 367 324 354 366 312 L366 312 Z " />
<glyph glyph-name="Delta" unicode="&#x2206;" horiz-adv-x="612" d="M6 0 L608 0 L327 688 L6 0 Z M77 51 L290 509 L479 51 L77 51 Z " />
<glyph glyph-name="product" unicode="&#x220f;" horiz-adv-x="823" d="M25 -124 L315 -124 L315 -98 L312 -98 C242 -94 221 -67 224 18 L224 594 C224 656 228 677 242 690 C260 707 272 708 413 708 C556 708 568 707 586 690 C600 677 604 656 604 594 L604 18 C607 -67 586 -94 516 -98 L513 -98 L513 -124 L803 -124 L803 -98 L800 -98 C730 -94 709 -67 712 18 L712 609 C709 694 730 721 800 725 L803 725 L803 751 L25 751 L25 725 L28 725 C98 721 119 694 116 609 L116 18 C119 -67 98 -94 28 -98 L25 -98 L25 -124 Z " />
<glyph glyph-name="summation" unicode="&#x2211;" horiz-adv-x="713" d="M176 711 L444 711 C560 710 590 688 606 587 L632 587 L622 752 L23 752 L256 285 L14 -123 L641 -123 L695 87 L669 87 C639 7 605 -12 491 -11 L163 -11 L364 341 L176 711 Z " />
<glyph glyph-name="minus" unicode="&#x2212;" horiz-adv-x="710" d="M98 387 L69 252 L606 252 L635 387 L98 387 Z " />
<glyph glyph-name="uni2215" unicode="&#x2215;" horiz-adv-x="180" d="M-255 -17 L-152 -17 L428 622 L324 622 L-255 -17 Z " />
<glyph glyph-name="uni2219" unicode="&#x2219;" horiz-adv-x="355" d="M177 326 C112 326 54 276 54 219 C54 173 87 143 137 143 C199 143 258 196 258 251 C258 294 224 326 177 326 L177 326 Z " />
<glyph glyph-name="radical" unicode="&#x221a;" horiz-adv-x="549" d="M363 -35 L515 908 L480 913 L353 123 L156 520 L10 449 L26 414 L121 461 L363 -35 Z " />
<glyph glyph-name="infinity" unicode="&#x221e;" horiz-adv-x="713" d="M357 227 C415 156 485 115 548 115 C631 115 688 176 688 266 C688 354 629 414 543 414 C476 414 412 376 357 303 C300 375 234 414 171 414 C86 414 26 351 26 263 C26 176 84 115 167 115 C224 115 281 142 327 192 L357 227 Z M391 264 C434 325 493 362 546 362 C600 362 638 321 638 264 C638 205 603 167 549 167 C495 167 461 188 391 264 L391 264 Z M324 266 C275 203 216 167 163 167 C111 167 76 207 76 266 C76 323 113 362 167 362 C218 362 258 337 324 266 L324 266 Z " />
<glyph glyph-name="integral" unicode="&#x222b;" horiz-adv-x="274" d="M180 576 C180 653 179 691 176 746 C174 774 173 800 173 815 C173 855 184 878 202 878 C208 878 213 876 215 872 C232 845 239 839 256 839 C276 839 291 853 291 871 C291 898 267 916 231 916 C186 916 152 887 138 838 C123 784 113 682 113 577 L113 232 C113 160 114 124 117 63 C119 34 120 4 120 -12 C120 -47 108 -70 89 -70 C81 -70 74 -65 68 -52 C59 -35 51 -30 37 -30 C17 -30 2 -44 2 -63 C2 -89 26 -107 62 -107 C107 -107 141 -78 155 -29 C170 25 180 126 180 232 L180 576 Z " />
<glyph glyph-name="approxequal" unicode="&#x2248;" horiz-adv-x="549" d="M489 251 C444 199 423 187 384 187 C365 187 354 190 285 211 C212 234 188 239 160 239 C101 239 54 211 14 155 L57 121 C103 174 120 184 159 184 C180 184 180 184 271 157 C350 133 354 132 385 132 C449 132 496 160 527 217 L489 251 Z M489 408 C444 356 423 344 384 344 C365 344 354 347 285 368 C212 391 188 396 160 396 C101 396 54 369 14 312 L57 278 C103 331 120 341 159 341 C180 341 180 341 271 314 C350 290 354 289 385 289 C449 289 496 318 527 375 L489 408 Z " />
<glyph glyph-name="notequal" unicode="&#x2260;" horiz-adv-x="549" d="M187 142 L115 -1 L161 -25 L246 142 L540 142 L540 197 L273 197 L344 336 L540 336 L540 391 L371 391 L439 525 L392 549 L312 391 L15 391 L15 336 L285 336 L215 197 L15 197 L15 142 L187 142 Z " />
<glyph glyph-name="lessequal" unicode="&#x2264;" horiz-adv-x="549" d="M526 55 L29 55 L29 0 L526 0 L526 55 Z M526 639 L29 405 L29 350 L526 117 L526 179 L108 378 L526 577 L526 639 Z " />
<glyph glyph-name="greaterequal" unicode="&#x2265;" horiz-adv-x="549" d="M526 55 L29 55 L29 0 L526 0 L526 55 Z M29 639 L29 577 L447 378 L29 179 L29 117 L526 350 L526 405 L29 639 Z " />
<glyph glyph-name="lozenge" unicode="&#x25ca;" horiz-adv-x="494" d="M209 0 L269 -1 L466 374 L277 740 L214 740 L18 377 L209 0 Z M240 58 L81 376 L245 683 L402 373 L240 58 Z " />
<glyph glyph-name="fi" unicode="&#xfb01;" horiz-adv-x="781" d="M109 378 L57 134 C48 95 40 88 -4 87 L-30 87 L-49 0 L306 0 L325 87 L315 87 C279 87 270 92 270 112 C270 119 271 127 273 135 L324 378 L438 378 C478 378 491 372 491 353 C491 347 490 338 488 331 L447 134 C438 97 429 90 386 87 L370 87 L352 0 L692 0 L710 87 L690 87 C652 87 640 93 640 113 C640 122 640 127 642 134 L713 469 L343 469 L351 504 C367 581 416 616 505 616 C531 616 545 614 573 607 C538 586 525 568 525 541 C525 507 551 489 602 489 C666 489 712 528 712 583 C712 647 623 685 476 685 C407 685 340 677 292 662 C200 634 155 589 137 504 L130 469 L51 469 L31 378 L109 378 Z " />
<glyph glyph-name="fl" unicode="&#xfb02;" horiz-adv-x="781" d="M109 378 L57 134 C48 95 40 88 -4 87 L-30 87 L-49 0 L306 0 L324 87 L314 87 C278 87 268 93 269 112 C269 119 270 126 272 135 L324 378 L415 378 L435 469 L343 469 L354 520 C366 577 424 615 499 615 C516 615 527 614 552 609 C524 592 514 576 514 553 C514 539 518 531 532 517 L451 134 C442 97 433 90 391 87 L375 87 L356 0 L692 0 L710 87 L690 87 C651 87 639 93 639 113 C639 117 640 127 642 134 L755 667 L632 667 C560 680 526 684 474 684 C372 684 284 666 224 632 C179 607 150 563 136 500 L130 469 L51 469 L31 378 L109 378 Z " />
</font>
</svg>
