<?xml version="1.0" standalone="no"?>
<!DOCTYPE svg PUBLIC "-//W3C//DTD SVG 1.1//EN" "http://www.w3.org/Graphics/SVG/1.1/DTD/svg11.dtd" >
<svg xmlns="http://www.w3.org/2000/svg">
<metadata>
Created by FontPrep 20130207 at Fri May 26 16:08:42 2017
 By Lizzy Knight
Copyright 2016 by URW++ Design &#38; Development GmbH
</metadata>
<defs>
<font id="c28fd521b3897c38f16b941e49aaaccf" horiz-adv-x='1024' >
  <font-face 
    font-family="URWDIN-Bold"
    font-weight="700"
    font-stretch="normal"
    units-per-em="2048"
    panose-1="0 0 8 0 0 0 0 0 0 0"
    ascent="1462"
    descent="-586"
    x-height="1061"
    cap-height="1462"
    bbox="-211 -502 2750.01 2140"
    underline-thickness="202"
    underline-position="-82"
    unicode-range="U+0020-FB04"
  />
<missing-glyph horiz-adv-x="409" 
 />
    <glyph glyph-name="ff" unicode="ff" horiz-adv-x="1368" 
d="M827 825h-118v236h118v90q0 180 81 248t292 63h131v-219h-67q-90 2 -114 -18t-24 -97v-67h215v-236h-215v-825h-299v825zM182 825h-119v236h119v90q0 182 80 249t291 62h115v-219h-52q-88 2 -112 -18t-23 -97v-67h146v-236h-146v-825h-299v825z" />
    <glyph glyph-name="fi" unicode="fi" horiz-adv-x="1300" 
d="M860 0v1061h299v-1061h-299zM860 1198v281h299v-281h-299zM182 825h-119v236h119v90q0 180 81 248t292 63h131v-219h-68q-90 2 -114 -18t-23 -97v-67h215v-236h-215v-825h-299v825z" />
    <glyph glyph-name="fl" unicode="fl" horiz-adv-x="1366" 
d="M856 1462h299v-1007q0 -125 39 -170t145 -43h31v-242h-43q-289 0 -380 94t-91 391v977zM182 825h-119v236h119v90q0 180 81 248t292 63h131v-219h-68q-90 2 -114 -18t-23 -97v-67h215v-236h-215v-825h-299v825z" />
    <glyph glyph-name="ffi" unicode="ffi" horiz-adv-x="1945" 
d="M1507 0v1061h299v-1061h-299zM1507 1198v281h299v-281h-299zM827 825h-118v236h118v90q0 180 81 248t292 63h131v-219h-67q-90 2 -114 -18t-24 -97v-67h215v-236h-215v-825h-299v825zM182 825h-119v236h119v90q0 182 80 249t291 62h115v-219h-52q-88 2 -112 -18t-23 -97
v-67h146v-236h-146v-825h-299v825z" />
    <glyph glyph-name="ffl" unicode="ffl" horiz-adv-x="2013" 
d="M1501 1462h299v-1007q-2 -125 37 -170t148 -43h30v-242h-43q-289 0 -380 94t-91 391v977zM827 825h-118v236h118v90q0 180 81 248t292 63h131v-219h-67q-90 2 -114 -18t-24 -97v-67h215v-236h-215v-825h-299v825zM182 825h-119v236h119v90q0 182 80 249t291 62h115v-219
h-52q-88 2 -112 -18t-23 -97v-67h146v-236h-146v-825h-299v825z" />
    <glyph glyph-name=".notdef" horiz-adv-x="409" 
 />
    <glyph glyph-name=".null" horiz-adv-x="0" 
 />
    <glyph glyph-name="nonmarkingreturn" horiz-adv-x="681" 
 />
    <glyph glyph-name="space" unicode=" " horiz-adv-x="409" 
 />
    <glyph glyph-name="exclam" unicode="!" horiz-adv-x="710" 
d="M207 0v287h299v-287h-299zM233 428l-47 1034h338l-45 -1034h-246z" />
    <glyph glyph-name="quotedbl" unicode="&#x22;" horiz-adv-x="950" 
d="M549 846l-23 616h312l-23 -616h-266zM135 846l-22 616h311l-23 -616h-266z" />
    <glyph glyph-name="numbersign" unicode="#" 
d="M457 604h166l26 187h-166zM211 604l25 187h-156l26 186h158l49 344h246l-49 -344h166l49 344h248l-51 -344h157l-26 -186h-158l-27 -187h158l-27 -186h-157l-47 -332h-246l45 332h-164l-47 -332h-248l47 332h-155l26 186h158z" />
    <glyph glyph-name="dollar" unicode="$" 
d="M544 262q228 0 228 150q0 110 -123 150q-31 9 -184 44q-223 52 -321 154t-97 278q0 344 359 406v223h307v-231q225 -43 321 -222l-233 -147q-94 135 -266 135q-87 0 -137 -37t-50 -109t58 -113q58 -42 248 -87q188 -45 274 -102q145 -90 145 -318q0 -180 -87 -280
t-273 -133v-302h-307v295q-313 41 -422 248l239 152q93 -154 321 -154z" />
    <glyph glyph-name="percent" unicode="%" horiz-adv-x="1980" 
d="M621 0l464 1462h277l-465 -1462h-276zM1663 352v82q0 106 -26 150t-87 45q-61 0 -88 -44t-26 -151v-82q0 -104 26 -148t88 -44q61 0 87 44t26 148zM1186 326v137q0 182 83 265t287 83t291 -102q66 -78 66 -246v-137q0 -184 -83 -266t-287 -82t-292 102q-65 74 -65 246z
M547 1028v82q0 104 -27 148t-88 44t-87 -44t-26 -148v-82q0 -106 26 -150t87 -44t88 45t27 149zM70 999v138q0 182 77 260q90 88 293 88t291 -103q66 -78 66 -245v-138q0 -182 -83 -265t-287 -83t-292 103q-65 73 -65 245z" />
    <glyph glyph-name="ampersand" unicode="&#x26;" horiz-adv-x="1613" 
d="M418 340q0 -72 48 -110t133 -38t147 24q62 22 151 81l-246 293q-133 -72 -183 -125t-50 -125zM907 1122q0 123 -149 123q-72 0 -113 -33t-41 -79q0 -47 22 -83t93 -118q106 53 147 94t41 96zM106 336q0 145 83 254t276 215q-94 115 -125 178t-31 139q0 164 119 263
q120 99 322 99t327 -96q125 -97 125 -260q0 -115 -72 -212t-227 -195l193 -234q70 94 108 230h291q-84 -268 -219 -434l246 -283h-367l-88 104q-215 -166 -514 -165q-221 -1 -334 107t-113 290z" />
    <glyph glyph-name="quotesingle" unicode="'" horiz-adv-x="536" 
d="M135 846l-22 616h311l-23 -616h-266z" />
    <glyph glyph-name="parenleft" unicode="(" horiz-adv-x="929" 
d="M549 704q0 -278 115 -532q63 -137 163 -303l-219 -137q-209 274 -290 487q-80 213 -80 487t80 486q81 213 290 487l219 -137q-109 -182 -176 -334q-102 -226 -102 -504z" />
    <glyph glyph-name="parenright" unicode=")" horiz-adv-x="929" 
d="M690 706q0 -272 -81 -486t-290 -488l-219 137q104 174 179 334q100 231 100 508t-115 528q-78 162 -164 303l219 137q209 -274 290 -487t81 -486z" />
    <glyph glyph-name="asterisk" unicode="*" 
d="M553 942l-162 -268l-225 166l199 237l-291 60l69 254l285 -99l-16 295h284l-16 -295l285 99l69 -254l-291 -60l199 -237l-225 -166z" />
    <glyph glyph-name="plus" unicode="+" 
d="M92 604v236h332v344h258v-344h330v-236h-330v-340h-258v340h-332z" />
    <glyph glyph-name="comma" unicode="," horiz-adv-x="604" 
d="M70 -385l98 668h330l-158 -668h-270z" />
    <glyph glyph-name="hyphen" unicode="-" horiz-adv-x="948" 
d="M141 594v256h664v-256h-664z" />
    <glyph glyph-name="period" unicode="." horiz-adv-x="604" 
d="M145 0v287h316v-287h-316z" />
    <glyph glyph-name="slash" unicode="/" horiz-adv-x="819" 
d="M18 -41l492 1544h293l-490 -1544h-295z" />
    <glyph glyph-name="zero" unicode="0" 
d="M711 578v307q0 199 -34 273t-124 73q-90 0 -124 -75t-34 -271v-307q0 -197 34 -272t124 -75t124 74t34 273zM86 551v360q0 299 100 426q62 78 148 113t223 35t228 -41t153 -131q82 -121 82 -402v-360q0 -297 -100 -426q-62 -78 -148 -113t-223 -35t-228 41t-153 132
q-82 125 -82 401z" />
    <glyph glyph-name="one" unicode="1" 
d="M424 0v1137l-225 -93l-99 240l432 178h207v-1462h-315z" />
    <glyph glyph-name="two" unicode="2" 
d="M63 0v203l410 491q111 132 158 226t47 178q0 133 -137 133q-100 0 -140 -84q-27 -51 -32 -111l-289 21q20 428 471 428q213 -1 326 -105t113 -284t-99 -336q-39 -63 -68 -98t-155 -183l-193 -223h512v-256h-924z" />
    <glyph glyph-name="three" unicode="3" 
d="M522 231q168 0 168 199q0 98 -58 158t-157 61h-127v242h107q201 0 200 174q0 166 -139 166t-162 -156l-278 21q25 389 454 389q213 1 325 -103t112 -303q0 -113 -34 -183t-114 -124q103 -66 143 -144t39 -210q0 -440 -469 -440t-491 407l295 35q20 -188 186 -189z" />
    <glyph glyph-name="four" unicode="4" 
d="M637 0v250h-576v188l447 1024h332l-422 -962h219v327h281v-327h126v-250h-126v-250h-281z" />
    <glyph glyph-name="five" unicode="5" 
d="M958 1462v-256h-501l-25 -276l19 2q68 16 120 16q231 0 338 -123q95 -102 95 -357t-103 -364q-121 -127 -373 -127q-436 0 -456 408l295 35q20 -188 168 -189q81 -1 119 53t38 179t-37 181t-134 56t-159 -82l-229 48l64 796h761z" />
    <glyph glyph-name="six" unicode="6" 
d="M555 702q-84 0 -117 -51q-32 -51 -32 -184t32 -184t116 -51q83 0 116 50q32 52 32 184t-31 184q-32 52 -116 52zM1014 471q0 -158 -26 -246q-73 -246 -433 -248q-258 0 -371 127q-90 96 -90 353q0 141 26 237t101 230l305 538h353l-312 -520h19l53 4q47 4 121 -21
q176 -62 224 -207q30 -89 30 -247z" />
    <glyph glyph-name="seven" unicode="7" 
d="M115 1206v256h846v-186l-426 -1276h-336l434 1206h-518z" />
    <glyph glyph-name="eight" unicode="8" 
d="M555 637q-92 0 -128 -44t-36 -159t36 -159t127 -44t127 44t36 158t-35 159t-127 45zM554 874q76 0 106 41t30 145t-30 146q-30 41 -106 41q-77 0 -107 -40q-29 -41 -29 -147t30 -146t106 -40zM123 1082q0 204 103 303q102 99 328 99t328 -100t103 -302q0 -202 -96 -306
q75 -55 107 -134t32 -210q0 -240 -106 -340q-117 -115 -368 -115q-251 1 -363 107t-111 348q0 131 32 210q31 79 105 134q-94 102 -94 306z" />
    <glyph glyph-name="nine" unicode="9" 
d="M553 1231q-80 0 -115 -47t-35 -161t35 -163t114 -49t114 49q34 49 34 161t-33 161q-34 49 -114 49zM508 569q-168 0 -268 66q-82 51 -115 139t-33 240t27 235q75 234 439 235t432 -248q22 -77 22 -211t-18 -208t-81 -192l-333 -625h-353l318 569h-37z" />
    <glyph glyph-name="colon" unicode=":" horiz-adv-x="604" 
d="M145 778v287h316v-287h-316zM145 0v287h316v-287h-316z" />
    <glyph glyph-name="semicolon" unicode=";" horiz-adv-x="604" 
d="M180 778v287h316v-287h-316zM70 -385l98 668h330l-158 -668h-270z" />
    <glyph glyph-name="less" unicode="&#x3c;" 
d="M461 735l469 -213v-270l-801 387v192l801 388v-271z" />
    <glyph glyph-name="equal" unicode="=" 
d="M129 799v225h848v-225h-848zM129 420v225h848v-225h-848z" />
    <glyph glyph-name="greater" unicode="&#x3e;" 
d="M645 735l-469 213v271l801 -388v-192l-801 -387v270z" />
    <glyph glyph-name="question" unicode="?" horiz-adv-x="1181" 
d="M430 0v287h299v-287h-299zM457 420v80q-2 131 35 205t151 169q78 70 107 116q28 46 28 108t-40 98q-40 37 -114 37t-119 -51q-44 -51 -79 -178l-293 49q43 221 166 327t339 106t335 -106t119 -303q0 -150 -99 -262q-51 -57 -157 -143q-133 -104 -134 -209v-43h-245z" />
    <glyph glyph-name="at" unicode="@" horiz-adv-x="1939" 
d="M1034 850q-90 0 -157 -139q-55 -111 -56 -228q0 -94 68 -94q86 0 162 123q74 127 73 238q0 48 -24 74t-66 26zM1303 453q0 -74 67 -74q100 -1 170 109t70 268q0 250 -164 396t-456 146t-471 -199q-179 -201 -179 -529t162 -478q180 -168 526 -168q248 0 483 96l70 -172
q-264 -123 -569 -122q-426 0 -660 194q-246 199 -246 629t244 686t651 256q185 0 353 -57q168 -56 270 -152t156 -231t55 -289q0 -254 -138 -416t-356 -162q-96 0 -148 35t-75 115q-133 -150 -269 -150t-208 77t-72 214q1 227 133 397t314 170q70 0 114 -24t80 -84l27 86
h178l-96 -449q-16 -88 -16 -118z" />
    <glyph glyph-name="A" unicode="A" horiz-adv-x="1275" 
d="M821 524l-178 570l-182 -570h360zM897 274h-512l-86 -274h-340l528 1462h306l530 -1462h-342z" />
    <glyph glyph-name="B" unicode="B" horiz-adv-x="1300" 
d="M477 250h268q92 0 133 43q40 43 40 142t-40 141t-133 42h-268v-368zM477 868h242q94 0 134 40t40 133t-40 133t-134 38h-242v-344zM164 0v1462h577q133 0 210 -20t134 -70q119 -102 119 -307t-123 -301q70 -59 90 -92q59 -94 60 -262q0 -229 -135 -334q-104 -76 -328 -76
h-604z" />
    <glyph glyph-name="C" unicode="C" horiz-adv-x="1269" 
d="M131 569v320q0 170 27 269t90 171q136 152 400 152q264 1 388 -105t133 -329l-288 -21q-11 104 -63 152t-164 49q-112 0 -159 -78q-48 -78 -49 -285v-270q0 -207 48 -285t176 -78q202 0 227 201l295 -35q-19 -418 -528 -420q-303 0 -437 177q-53 72 -75 166t-21 249z" />
    <glyph glyph-name="D" unicode="D" horiz-adv-x="1370" 
d="M479 250h137q178 -2 242 68q63 71 66 278v270q-2 207 -66 278t-242 68h-137v-962zM164 0v1462h510q297 4 435 -135t130 -436v-320q8 -297 -130 -435t-435 -136h-510z" />
    <glyph glyph-name="E" unicode="E" horiz-adv-x="1191" 
d="M166 0v1462h924v-256h-613v-340h518v-256h-518v-354h621v-256h-932z" />
    <glyph glyph-name="F" unicode="F" horiz-adv-x="1120" 
d="M166 0v1462h909v-256h-594v-350h496v-256h-496v-600h-315z" />
    <glyph glyph-name="G" unicode="G" horiz-adv-x="1347" 
d="M705 580v239h532v-252q0 -162 -22 -253t-78 -162q-139 -174 -455 -174t-453 176q-53 70 -75 164t-23 251v318q0 170 28 270t93 172q138 152 408 152q270 -1 397 -107t137 -327l-289 -21q-12 102 -66 152t-173 49q-119 0 -169 -79t-51 -284v-270q0 -207 50 -285t182 -78
q131 -1 188 63t58 204v82h-219z" />
    <glyph glyph-name="H" unicode="H" horiz-adv-x="1390" 
d="M164 0v1462h315v-596h430v596h316v-1462h-316v610h-430v-610h-315z" />
    <glyph glyph-name="I" unicode="I" horiz-adv-x="643" 
d="M164 0v1462h315v-1462h-315z" />
    <glyph glyph-name="J" unicode="J" horiz-adv-x="1007" 
d="M537 1462h315v-882q0 -186 -11 -272t-42 -146q-102 -184 -379 -185q-136 1 -242 45t-221 146l174 207q131 -143 245 -143t146 114q14 63 15 229v887z" />
    <glyph glyph-name="K" unicode="K" horiz-adv-x="1259" 
d="M168 0v1462h311v-590l430 590h369l-483 -602l505 -860h-366l-344 647l-111 -145v-502h-311z" />
    <glyph glyph-name="L" unicode="L" horiz-adv-x="1118" 
d="M164 0v1462h315v-1206h617v-256h-932z" />
    <glyph glyph-name="M" unicode="M" horiz-adv-x="1671" 
d="M164 0v1462h293l379 -786l378 786h293v-1462h-301v874l-270 -555h-201l-270 555v-874h-301z" />
    <glyph glyph-name="N" unicode="N" horiz-adv-x="1456" 
d="M164 0v1462h305l518 -936v936h305v-1462h-305l-518 936v-936h-305z" />
    <glyph glyph-name="O" unicode="O" horiz-adv-x="1368" 
d="M924 586v291q0 199 -52 277t-187 77q-134 0 -186 -77t-53 -277v-291q0 -199 52 -277t187 -78t187 77t52 278zM131 559v344q0 166 28 264q29 98 99 173t170 110t261 35t269 -41t181 -133q100 -129 100 -408v-344q0 -166 -28 -264q-29 -98 -99 -173t-170 -110t-262 -35
t-270 41t-179 134q-100 126 -100 407z" />
    <glyph glyph-name="P" unicode="P" horiz-adv-x="1234" 
d="M473 762h193q110 0 156 51t46 174t-46 174t-156 51h-193v-450zM479 510v-510h-315v1462h500q160 0 252 -26q266 -76 266 -449q0 -264 -131 -377q-115 -100 -387 -100h-185z" />
    <glyph glyph-name="Q" unicode="Q" horiz-adv-x="1368" 
d="M924 877q0 199 -52 277t-187 77q-134 0 -186 -77t-53 -277v-291q0 -199 52 -277t186 -78q53 1 100 13l-188 149l149 178l170 -133q8 57 9 148v291zM712 -23q-192 0 -300 41t-181 134q-100 127 -100 407v344q0 166 28 264q29 98 99 173t170 110t261 35t269 -41t181 -133
q100 -129 100 -408v-344q0 -211 -55 -332l133 -104l-150 -178l-139 108q-124 -76 -316 -76z" />
    <glyph glyph-name="R" unicode="R" horiz-adv-x="1312" 
d="M475 823h219q109 0 155 44q46 45 46 151t-46 150t-159 44h-215v-389zM481 582v-582h-315v1462h555q147 0 234 -24q251 -71 251 -406q0 -188 -61 -286t-203 -140l315 -606h-348l-274 582h-154z" />
    <glyph glyph-name="S" unicode="S" horiz-adv-x="1175" 
d="M584 231q228 0 227 175q0 122 -123 158q-31 9 -182 48q-226 58 -322 158t-96 296t129 308t369 111q348 0 487 -238l-233 -149q-94 135 -262 135q-90 0 -140 -43t-49 -123q0 -80 57 -124t207 -82t205 -58t111 -55q143 -98 143 -322t-121 -332q-137 -119 -399 -119t-422 99
q-86 55 -147 159l239 152q94 -154 322 -154z" />
    <glyph glyph-name="T" unicode="T" horiz-adv-x="1138" 
d="M412 0v1206h-389v256h1091v-256h-387v-1206h-315z" />
    <glyph glyph-name="U" unicode="U" horiz-adv-x="1396" 
d="M158 1462h315v-915q0 -160 29 -216q28 -56 72 -78t127 -22t128 26t70 84t25 206v915h315v-915q0 -166 -19 -252t-81 -163q-125 -155 -453 -155t-457 195q-41 61 -56 143t-15 232v915z" />
    <glyph glyph-name="V" unicode="V" horiz-adv-x="1257" 
d="M489 0l-491 1462h315l316 -1044l315 1044h316l-494 -1462h-277z" />
    <glyph glyph-name="W" unicode="W" horiz-adv-x="1910" 
d="M410 0l-373 1462h315l215 -1042l267 1042h243l266 -1042l218 1042h315l-375 -1462h-282l-263 965l-262 -965h-284z" />
    <glyph glyph-name="X" unicode="X" horiz-adv-x="1214" 
d="M426 776l-408 686h344l273 -458l244 458h329l-411 -727l436 -735h-344l-301 508l-271 -508h-329z" />
    <glyph glyph-name="Y" unicode="Y" horiz-adv-x="1122" 
d="M408 0v526l-451 936h334l274 -624l275 624h334l-451 -936v-526h-315z" />
    <glyph glyph-name="Z" unicode="Z" horiz-adv-x="1171" 
d="M109 0v207l583 999h-555v256h912v-207l-586 -999h614v-256h-968z" />
    <glyph glyph-name="bracketleft" unicode="[" horiz-adv-x="929" 
d="M293 -201v1813h498v-215h-195v-1383h195v-215h-498z" />
    <glyph glyph-name="backslash" unicode="\" horiz-adv-x="819" 
d="M801 -41h-293l-492 1544h295z" />
    <glyph glyph-name="bracketright" unicode="]" horiz-adv-x="929" 
d="M637 1612v-1813h-498v215h195v1383h-195v215h498z" />
    <glyph glyph-name="asciicircum" unicode="^" 
d="M553 1116l-182 -354h-355l449 708h176l449 -708h-355z" />
    <glyph glyph-name="underscore" unicode="_" horiz-adv-x="962" 
d="M-51 -385v203h1065v-203h-1065z" />
    <glyph glyph-name="grave" unicode="`" horiz-adv-x="1024" 
d="M672 1186h-223l-281 323h332z" />
    <glyph glyph-name="a" unicode="a" horiz-adv-x="1097" 
d="M668 453h-158q-82 0 -118 -30q-36 -29 -36 -99t35 -97t123 -27t121 36q33 35 33 131v86zM668 649v35q0 164 -156 164q-117 0 -199 -103l-204 144q137 197 436 197t385 -191q37 -82 37 -266v-629h-234l-18 55q-92 -78 -284 -78q-191 0 -273 77q-82 76 -82 264t86 260
t311 71h195z" />
    <glyph glyph-name="b" unicode="b" horiz-adv-x="1163" 
d="M760 477v109q0 137 -38 199t-122 63q-162 0 -162 -203v-227q0 -104 39 -154t123 -49t122 63t38 199zM139 0v1462h299v-438q109 61 221 61q211 0 305 -112q93 -113 93 -365v-153q0 -254 -93 -366t-307 -112q-98 1 -153 19t-117 70l-18 -66h-230z" />
    <glyph glyph-name="c" unicode="c" horiz-adv-x="985" 
d="M106 502v53q0 258 93 381q115 150 346 149q295 0 411 -219l-219 -125q-37 59 -74 83q-38 24 -96 24q-162 0 -161 -264v-113q0 -256 172 -256q110 0 176 104l221 -122q-129 -219 -405 -219t-390 174q-74 115 -74 350z" />
    <glyph glyph-name="d" unicode="d" horiz-adv-x="1163" 
d="M403 586v-109q0 -139 38 -201t122 -61q84 0 123 49t39 154v227q0 203 -162 203q-84 0 -122 -62t-38 -200zM506 -23q-213 0 -306 112t-94 366v153q0 250 94 364t300 113q98 0 144 -20t81 -41v438h299v-1462h-229l-19 66l-16 -13q-86 -76 -254 -76z" />
    <glyph glyph-name="e" unicode="e" horiz-adv-x="1128" 
d="M403 657h353v25q0 90 -46 138t-130 48t-130 -49t-47 -137v-25zM406 455v-27q0 -221 196 -221q139 0 209 112l219 -124q-68 -117 -174 -167t-287 -51q-247 0 -355 119t-108 393v68q0 266 89 379q111 150 367 150t366 -124q109 -122 108 -405v-102h-630z" />
    <glyph glyph-name="f" unicode="f" horiz-adv-x="720" 
d="M182 825h-119v236h119v90q0 180 81 248t292 63h131v-219h-68q-90 2 -114 -18t-23 -97v-67h215v-236h-215v-825h-299v825z" />
    <glyph glyph-name="g" unicode="g" horiz-adv-x="1163" 
d="M403 586v-109q0 -139 38 -201t124 -61q160 0 160 203v227q0 203 -162 203q-84 0 -122 -62t-38 -200zM106 608q0 252 94 365t304 112q166 0 262 -84l29 60h229v-1020q0 -256 -100 -377q-123 -147 -385 -147q-299 0 -414 219l221 123q37 -63 77 -88t105 -25q102 0 149 61
q46 62 48 199v29q-88 -57 -225 -58q-207 0 -300 113t-94 365v153z" />
    <glyph glyph-name="h" unicode="h" horiz-adv-x="1173" 
d="M137 0v1462h299v-440q66 39 113 51t121 12q264 0 342 -204q31 -82 30 -275v-606h-299v586q0 129 -35 187q-36 58 -117 58t-118 -61t-37 -199v-571h-299z" />
    <glyph glyph-name="i" unicode="i" horiz-adv-x="579" 
d="M139 0v1061h299v-1061h-299zM139 1198v281h299v-281h-299z" />
    <glyph glyph-name="j" unicode="j" horiz-adv-x="591" 
d="M152 1198v281h299v-281h-299zM152 1061h299v-1012q4 -219 -41 -328t-157 -151t-337 -41v242q135 -4 186 50t50 199v1041z" />
    <glyph glyph-name="k" unicode="k" horiz-adv-x="1101" 
d="M139 0v1462h299v-848l336 447h338l-367 -451l379 -610h-325l-232 395l-129 -162v-233h-299z" />
    <glyph glyph-name="l" unicode="l" horiz-adv-x="645" 
d="M135 1462h299v-1007q0 -125 39 -170t145 -43h31v-242h-43q-289 0 -380 94t-91 391v977z" />
    <glyph glyph-name="m" unicode="m" horiz-adv-x="1703" 
d="M137 0v1061h225l21 -74q86 98 262 98t273 -120q88 121 280 120q270 0 344 -204q31 -78 31 -275v-606h-299v575q0 139 -31 197t-103 59q-72 0 -103 -63q-32 -63 -31 -209v-559h-299v569q0 145 -30 203t-105 59q-76 0 -106 -62t-30 -214v-555h-299z" />
    <glyph glyph-name="n" unicode="n" horiz-adv-x="1173" 
d="M137 0v1061h223l25 -80q98 104 279 104q270 0 348 -204q31 -82 30 -275v-606h-299v571q0 141 -33 201q-34 59 -119 59t-120 -62t-35 -218v-551h-299z" />
    <glyph glyph-name="o" unicode="o" horiz-adv-x="1146" 
d="M743 473v115q0 141 -38 200q-39 60 -131 60t-130 -60q-39 -60 -38 -200v-115q0 -139 38 -199q39 -59 130 -59t131 59q38 60 38 199zM106 451v159q0 252 111 364t359 112t357 -112q110 -112 109 -364v-159q0 -252 -110 -363t-358 -111t-358 111t-110 363z" />
    <glyph glyph-name="p" unicode="p" horiz-adv-x="1163" 
d="M760 477v109q0 137 -38 199t-122 63q-162 0 -162 -203v-227q0 -104 39 -154t123 -49t122 63t38 199zM139 -461v1522h230l30 -57q109 82 258 81q211 0 306 -112q94 -113 94 -365v-153q0 -254 -93 -366t-307 -112q-113 0 -219 58v-496h-299z" />
    <glyph glyph-name="q" unicode="q" horiz-adv-x="1163" 
d="M403 586v-109q0 -139 38 -201t124 -61q160 0 160 203v227q0 203 -162 203q-84 0 -122 -62t-38 -200zM725 -461v496q-109 -57 -221 -58q-211 0 -304 112t-94 366v153q0 252 94 365t306 112q150 0 258 -81l31 57h229v-1522h-299z" />
    <glyph glyph-name="r" unicode="r" horiz-adv-x="817" 
d="M137 0v1061h228l38 -68q55 53 99 73t104 19q111 0 238 -71l-129 -244q-74 59 -144 59q-71 -1 -103 -75t-32 -244v-510h-299z" />
    <glyph glyph-name="s" unicode="s" horiz-adv-x="1017" 
d="M487 1085q303 0 433 -219l-222 -125q-37 63 -77 87q-41 24 -113 24q-137 0 -137 -102q0 -47 33 -67q34 -19 128 -28q240 -23 325 -93t85 -244q0 -175 -111 -258t-346 -83q-342 1 -448 218l219 124q41 -67 86 -89t131 -21q188 0 189 115q0 43 -28 63q-28 19 -133 31
t-159 22t-106 35q-146 68 -146 249t104 271t293 90z" />
    <glyph glyph-name="t" unicode="t" horiz-adv-x="720" 
d="M162 825h-115v236h115l18 299h281v-299h211v-236h-211v-370q0 -125 39 -170t145 -43h25v-242h-35q-297 0 -386 91t-87 394v340z" />
    <glyph glyph-name="u" unicode="u" horiz-adv-x="1150" 
d="M131 1061h299v-572q0 -141 32 -199t110 -58t110 62q33 64 33 216v551h299v-1061h-201l-39 88q-43 -59 -104 -85t-164 -26q-270 0 -344 205q-31 84 -31 273v606z" />
    <glyph glyph-name="v" unicode="v" horiz-adv-x="1048" 
d="M381 0l-358 1061h303l198 -705l201 705h301l-356 -1061h-289z" />
    <glyph glyph-name="w" unicode="w" horiz-adv-x="1599" 
d="M356 0l-311 1061h303l152 -703l194 703h213l195 -703l151 703h303l-311 -1061h-256l-188 614l-187 -614h-258z" />
    <glyph glyph-name="x" unicode="x" horiz-adv-x="1019" 
d="M348 543l-325 518h335l181 -289l170 289h321l-346 -520l338 -541h-336l-190 307l-177 -307h-323z" />
    <glyph glyph-name="y" unicode="y" horiz-adv-x="1050" 
d="M92 -471v242q131 -3 172 29t86 165l21 62l-351 1034h302l204 -715l197 715h303l-369 -1118q-66 -188 -110 -255q-45 -66 -79 -90q-73 -50 -211 -64q-62 -5 -165 -5z" />
    <glyph glyph-name="z" unicode="z" horiz-adv-x="993" 
d="M66 0v186l434 635h-398v240h766v-189l-434 -632h465v-240h-833z" />
    <glyph glyph-name="braceleft" unicode="{" horiz-adv-x="929" 
d="M596 1157v-121q2 -156 -18 -210t-99 -97q76 -39 99 -96t18 -211v-168q0 -162 28 -208t126 -48h51v-199h-121q-244 -2 -320 82t-67 344v219q2 125 -20 160t-111 37h-19v176h19q88 2 112 37t19 162v170q-8 260 67 344q76 84 320 82h121v-199h-51q-98 -2 -126 -48t-28 -208z
" />
    <glyph glyph-name="bar" unicode="|" 
d="M424 -201v1813h258v-1813h-258z" />
    <glyph glyph-name="braceright" unicode="}" horiz-adv-x="929" 
d="M332 254v168q-4 154 18 211q23 57 99 96q-78 43 -99 97q-20 54 -18 210v121q0 162 -28 208t-126 48h-51v199h121q244 2 320 -82t67 -344v-170q-3 -127 19 -161t112 -38h18v-176h-18q-88 -2 -112 -37t-19 -160v-219q8 -260 -68 -344t-319 -82h-121v199h51q98 2 126 48
t28 208z" />
    <glyph glyph-name="asciitilde" unicode="~" 
d="M368 899q108 1 213 -63q106 -64 150 -64q70 0 127 119l168 -51q-94 -289 -309 -289q-57 0 -101 16q-44 15 -120 63t-123 48q-76 0 -121 -131l-174 39q38 168 110 240t180 73z" />
    <glyph glyph-name="uni00A0" unicode="&#xa0;" horiz-adv-x="409" 
 />
    <glyph glyph-name="exclamdown" unicode="&#xa1;" horiz-adv-x="710" 
d="M504 1061v-287h-299v287h299zM479 633l45 -1034h-338l47 1034h246z" />
    <glyph glyph-name="cent" unicode="&#xa2;" 
d="M449 16v254q-311 68 -302 504v55q-8 438 302 512v236h307v-242q160 -49 235 -194l-213 -119q-39 59 -78 83t-96 23q-168 0 -168 -270v-113q0 -264 176 -264q115 0 183 107l215 -121q-82 -145 -254 -193v-258h-307z" />
    <glyph glyph-name="sterling" unicode="&#xa3;" 
d="M98 0v221q233 53 234 258q0 39 -15 90h-221v256h101q-57 133 -58 242q0 203 111 311t340 107q229 0 352 -137q57 -63 109 -197l-250 -102q-39 80 -64 114q-57 74 -149 74q-64 0 -100 -37q-36 -38 -36 -102t18 -121q17 -57 69 -152h344v-256h-267q10 -43 11 -73
q0 -147 -113 -240h576v-256h-992z" />
    <glyph glyph-name="currency" unicode="&#xa4;" 
d="M768 682q0 116 -58 182t-157 66t-157 -66t-58 -182t57 -184q57 -66 157 -66t159 67q57 67 57 183zM90 680q0 125 72 248l-176 184l149 137l168 -178q111 70 251 70t247 -70l168 178l151 -137l-178 -184q72 -119 72 -247t-72 -247l178 -184l-151 -137l-168 176
q-105 -68 -247 -68t-251 68l-168 -176l-149 137l176 184q-72 121 -72 246z" />
    <glyph glyph-name="yen" unicode="&#xa5;" 
d="M399 0v274h-286v166h286v88h-286v166h209l-369 768h334l270 -618l270 618h334l-368 -768h208v-166h-286v-88h286v-166h-286v-274h-316z" />
    <glyph glyph-name="brokenbar" unicode="&#xa6;" horiz-adv-x="1024" 
d="M369 0v559h286v-559h-286zM369 874v588h286v-588h-286z" />
    <glyph glyph-name="section" unicode="&#xa7;" 
d="M369 655q0 -67 48 -105t197 -87l74 -23l6 9l15 14q35 33 35 97t-45 105q-44 40 -197 93l-72 22l-6 -4l-16 -16q-39 -37 -39 -105zM682 96q0 48 -40 74t-220 80t-258 128q-80 75 -80 206q0 94 35 160t114 126q-102 80 -102 246t113 267t307 102q287 0 430 -203l-209 -137
q-82 96 -199 96q-63 0 -101 -28q-38 -27 -38 -77t39 -76t219 -80q180 -56 256 -130q82 -86 82 -221q0 -87 -34 -151t-111 -126q100 -78 100 -221q0 -179 -120 -281t-328 -102q-324 0 -486 219l209 137q106 -113 254 -112q78 0 123 28t45 76z" />
    <glyph glyph-name="dieresis" unicode="&#xa8;" horiz-adv-x="1024" 
d="M582 1190v274h264v-274h-264zM176 1190v274h264v-274h-264z" />
    <glyph glyph-name="copyright" unicode="&#xa9;" horiz-adv-x="1710" 
d="M858 1311q-244 0 -402 -162t-159 -417q0 -255 159 -418q158 -162 402 -162t402 162t158 415q0 252 -158 417t-402 165zM66 730q0 335 226 555t567 220t564 -222t223 -554t-224 -552t-566 -220t-566 219t-224 554zM850 369q-186 0 -266 94q-61 70 -62 227v82q0 94 16 148
t60 92q84 82 257 82t248 -54t83 -174l-211 -12q-12 78 -109 78q-63 0 -88 -31t-24 -106v-127q0 -78 26 -108t88 -30q103 0 117 78l213 -18q-6 -119 -84 -170t-264 -51z" />
    <glyph glyph-name="ordfeminine" unicode="&#xaa;" horiz-adv-x="741" 
d="M442 1057h-80q-60 1 -84 -17t-24 -61q0 -76 94 -76t94 68v86zM430 1186v45q0 88 -90 88q-63 0 -135 -64l-127 101q57 68 122 94t167 27q203 0 262 -115q25 -51 24 -164v-432h-178l-6 37q-59 -49 -184 -49t-182 49q-56 49 -56 170t66 167t243 46h74z" />
    <glyph glyph-name="guillemotleft" unicode="&#xab;" horiz-adv-x="1044" 
d="M360 604l170 -260l-186 -125l-303 385l303 385l186 -127zM829 604l170 -260l-184 -125l-305 385l305 385l184 -127z" />
    <glyph glyph-name="logicalnot" unicode="&#xac;" 
d="M98 604v236h856v-633h-286v397h-570z" />
    <glyph glyph-name="uni00AD" unicode="&#xad;" horiz-adv-x="948" 
d="M141 594v256h664v-256h-664z" />
    <glyph glyph-name="registered" unicode="&#xae;" horiz-adv-x="1521" 
d="M762 1634q-203 0 -325 -127t-122 -321t122 -322q122 -127 325 -127q202 0 324 128t122 322t-127 324q-116 123 -319 123zM762 1812q278 0 462 -180t183 -447q0 -267 -184 -447q-185 -180 -461 -179q-276 0 -461 178q-184 177 -184 449t184 449q183 177 461 177zM690 1206
h90q44 0 62 16t18 56q0 70 -82 70h-88v-142zM694 1106v-209h-192v578h293q137 0 196 -42q59 -43 59 -127t-22 -120q-23 -36 -82 -60l137 -229h-206l-111 209h-72z" />
    <glyph glyph-name="macron" unicode="&#xaf;" horiz-adv-x="1024" 
d="M180 1227v211h664v-211h-664z" />
    <glyph glyph-name="degree" unicode="&#xb0;" horiz-adv-x="905" 
d="M457 1321q-158 0 -158 -162t155 -162t154 162q1 162 -151 162zM63 1155q0 179 104 275t288 96t286 -98q103 -98 103 -270q0 -173 -102 -269t-286 -96q-183 0 -280 84q-113 100 -113 278z" />
    <glyph glyph-name="plusminus" unicode="&#xb1;" 
d="M92 0v236h920v-236h-920zM92 655v236h332v321h258v-321h330v-236h-330v-317h-258v317h-332z" />
    <glyph glyph-name="twosuperior" unicode="&#xb2;" horiz-adv-x="737" 
d="M61 791v145l254 285q119 135 119 215q0 29 -20 47t-52 18q-84 0 -96 -112l-221 16q10 137 68 197q82 82 258 81q303 0 303 -256q0 -100 -62 -196q-31 -47 -133 -160l-90 -98h281v-182h-609z" />
    <glyph glyph-name="threesuperior" unicode="&#xb3;" horiz-adv-x="737" 
d="M225 1174v153h86q49 0 79 26q30 25 30 63t-23 61t-57 22q-76 0 -94 -90l-213 16q8 129 67 183q80 74 252 73q307 0 307 -249q0 -123 -77 -179q102 -71 102 -207t-80 -203t-251 -67t-253 62t-90 202l226 27q14 -111 111 -111t97 95q0 123 -120 123h-99z" />
    <glyph glyph-name="acute" unicode="&#xb4;" horiz-adv-x="1024" 
d="M354 1186l172 323h332l-280 -323h-224z" />
    <glyph glyph-name="mu" unicode="&#xb5;" 
d="M115 1061h288v-574q0 -139 34 -200t115 -61t116 62q35 64 34 224v549h289v-1061h-192l-39 98q-66 -121 -238 -121q-53 0 -119 25v-463h-288v1522z" />
    <glyph glyph-name="paragraph" unicode="&#xb6;" horiz-adv-x="1380" 
d="M428 -279v934h-41q-92 -1 -137 9t-94 38q-88 52 -138 146t-49 216t55 219t148 140q54 27 108 33t230 6h666v-1741h-279v1500h-190v-1500h-279z" />
    <glyph glyph-name="periodcentered" unicode="&#xb7;" horiz-adv-x="604" 
d="M145 580v286h316v-286h-316z" />
    <glyph glyph-name="cedilla" unicode="&#xb8;" horiz-adv-x="1024" 
d="M330 -498l100 373h283l-183 -373h-200z" />
    <glyph glyph-name="onesuperior" unicode="&#xb9;" horiz-adv-x="581" 
d="M203 791v657l-144 -51l-61 166l285 104h159v-876h-239z" />
    <glyph glyph-name="ordmasculine" unicode="&#xba;" horiz-adv-x="751" 
d="M471 1055v119q0 135 -96 135t-96 -135v-119q0 -133 96 -133t96 133zM57 1042v144q0 158 73 224t245 67q172 0 245 -67t72 -224v-144q0 -156 -72 -222t-245 -66q-172 0 -245 66t-73 222z" />
    <glyph glyph-name="guillemotright" unicode="&#xbb;" horiz-adv-x="1044" 
d="M684 604l-170 258l186 127l304 -385l-304 -385l-186 125zM215 604l-170 258l184 127l306 -385l-306 -385l-184 125z" />
    <glyph glyph-name="onequarter" unicode="&#xbc;" horiz-adv-x="1871" 
d="M467 0l463 1462h278l-465 -1462h-276zM1430 0v133h-381v135l292 609h250l-274 -566h113v146h208v-146h82v-178h-82v-133h-208zM268 586v657l-143 -51l-62 166l285 104h160v-876h-240z" />
    <glyph glyph-name="onehalf" unicode="&#xbd;" horiz-adv-x="1871" 
d="M459 0l465 1462h276l-465 -1462h-276zM1112 0v145l254 287q119 129 119 213q1 29 -19 47t-53 19q-80 0 -96 -113l-221 16q10 137 67 197q82 82 258 82q303 0 303 -256q0 -104 -61 -197q-29 -45 -133 -159l-90 -99h280v-182h-608zM266 586v657l-143 -51l-62 166l285 104
h160v-876h-240z" />
    <glyph glyph-name="threequarters" unicode="&#xbe;" horiz-adv-x="1871" 
d="M580 0l462 1462h277l-463 -1462h-276zM1499 0v133h-381v135l293 609h250l-275 -566h113v146h209v-146h82v-178h-82v-133h-209zM229 969v153h86q49 0 79 26t30 64t-23 60q-23 23 -57 22q-76 0 -94 -90l-213 17q8 129 67 182q80 74 252 74q307 0 308 -250q0 -123 -78 -178
q102 -72 102 -208t-80 -203t-251 -67q-171 1 -253 63t-90 202l226 26q8 -57 34 -83t78 -25q96 0 97 94q0 121 -121 121h-99z" />
    <glyph glyph-name="questiondown" unicode="&#xbf;" horiz-adv-x="1181" 
d="M772 1061v-287h-299v287h299zM748 641v-80q2 -133 -34 -206t-153 -171q-81 -70 -109 -114t-28 -106t40 -100t114 -38t121 51q46 51 79 178l293 -47q-43 -224 -166 -330t-339 -106t-335 106t-118 306q0 147 98 260q49 57 158 145q133 104 133 209v43h246z" />
    <glyph glyph-name="Agrave" unicode="&#xc0;" horiz-adv-x="1275" 
d="M774 1587h-223l-281 324h332zM821 524l-178 570l-182 -570h360zM897 274h-512l-86 -274h-340l528 1462h306l530 -1462h-342z" />
    <glyph glyph-name="Aacute" unicode="&#xc1;" horiz-adv-x="1275" 
d="M510 1587l172 324h332l-281 -324h-223zM821 524l-178 570l-182 -570h360zM897 274h-512l-86 -274h-340l528 1462h306l530 -1462h-342z" />
    <glyph glyph-name="Acircumflex" unicode="&#xc2;" horiz-adv-x="1275" 
d="M639 1745l-113 -156h-278l280 320h220l280 -320h-278zM821 524l-178 570l-182 -570h360zM897 274h-512l-86 -274h-340l528 1462h306l530 -1462h-342z" />
    <glyph glyph-name="Atilde" unicode="&#xc3;" horiz-adv-x="1275" 
d="M512 1911q90 -1 152 -53t77 -61q14 -9 33 -9q51 0 66 108h180q-18 -131 -41 -188q-55 -131 -203 -131q-98 -1 -166 61t-96 62t-50 -30t-28 -79h-178q25 131 53 191q66 129 201 129zM821 524l-178 570l-182 -570h360zM897 274h-512l-86 -274h-340l528 1462h306l530 -1462
h-342z" />
    <glyph glyph-name="Adieresis" unicode="&#xc4;" horiz-adv-x="1275" 
d="M715 1591v275h264v-275h-264zM299 1591v275h264v-275h-264zM821 524l-178 570l-182 -570h360zM897 274h-512l-86 -274h-340l528 1462h306l530 -1462h-342z" />
    <glyph glyph-name="Aring" unicode="&#xc5;" horiz-adv-x="1275" 
d="M638 1913q-91 1 -91 -105t91 -106t91 106t-91 105zM638 2048q124 0 198 -66t74 -174t-76 -174q-76 -68 -196 -68t-196 68t-76 176t74 174q74 64 198 64zM821 524l-178 570l-182 -570h360zM897 274h-512l-86 -274h-340l528 1462h306l530 -1462h-342z" />
    <glyph glyph-name="AE" unicode="&#xc6;" horiz-adv-x="1972" 
d="M948 561v645h-12l-381 -645h393zM948 309h-536l-183 -309h-364l932 1462h1073v-256h-613v-340h519v-256h-519v-354h621v-256h-930v309z" />
    <glyph glyph-name="Ccedilla" unicode="&#xc7;" horiz-adv-x="1269" 
d="M424 -498l100 373h283l-182 -373h-201zM131 569v320q0 170 27 269t90 171q136 152 400 152q264 1 388 -105t133 -329l-288 -21q-11 104 -63 152t-164 49q-112 0 -159 -78q-48 -78 -49 -285v-270q0 -207 48 -285t176 -78q202 0 227 201l295 -35q-19 -418 -528 -420
q-303 0 -437 177q-53 72 -75 166t-21 249z" />
    <glyph glyph-name="Egrave" unicode="&#xc8;" horiz-adv-x="1191" 
d="M801 1587h-223l-281 324h332zM166 0v1462h924v-256h-613v-340h518v-256h-518v-354h621v-256h-932z" />
    <glyph glyph-name="Eacute" unicode="&#xc9;" horiz-adv-x="1191" 
d="M489 1587l173 324h331l-280 -324h-224zM166 0v1462h924v-256h-613v-340h518v-256h-518v-354h621v-256h-932z" />
    <glyph glyph-name="Ecircumflex" unicode="&#xca;" horiz-adv-x="1191" 
d="M625 1745l-113 -156h-279l281 320h219l281 -320h-279zM166 0v1462h924v-256h-613v-340h518v-256h-518v-354h621v-256h-932z" />
    <glyph glyph-name="Edieresis" unicode="&#xcb;" horiz-adv-x="1191" 
d="M717 1591v275h264v-275h-264zM301 1591v275h264v-275h-264zM166 0v1462h924v-256h-613v-340h518v-256h-518v-354h621v-256h-932z" />
    <glyph glyph-name="Igrave" unicode="&#xcc;" horiz-adv-x="643" 
d="M465 1587h-223l-281 324h332zM164 0v1462h315v-1462h-315z" />
    <glyph glyph-name="Iacute" unicode="&#xcd;" horiz-adv-x="643" 
d="M176 1587l172 324h332l-281 -324h-223zM160 0v1462h315v-1462h-315z" />
    <glyph glyph-name="Icircumflex" unicode="&#xce;" horiz-adv-x="643" 
d="M322 1745l-113 -156h-279l281 320h219l281 -320h-279zM164 0v1462h315v-1462h-315z" />
    <glyph glyph-name="Idieresis" unicode="&#xcf;" horiz-adv-x="643" 
d="M397 1591v275h265v-275h-265zM-18 1591v275h264v-275h-264zM164 0v1462h315v-1462h-315z" />
    <glyph glyph-name="Eth" unicode="&#xd0;" horiz-adv-x="1370" 
d="M479 862h230v-250h-230v-362h137q178 -2 242 68q63 71 66 276v272q-2 207 -66 278t-242 68h-137v-350zM164 862v600h512q295 4 433 -135t130 -436v-320q8 -297 -129 -436t-434 -135h-512v612h-146v250h146z" />
    <glyph glyph-name="Ntilde" unicode="&#xd1;" horiz-adv-x="1456" 
d="M604 1911q90 -1 152 -53t78 -61q14 -9 32 -9q51 0 66 108h180q-18 -131 -41 -188q-55 -131 -203 -131q-98 -1 -166 61t-96 62t-50 -30t-28 -79h-178q25 131 53 191q63 129 201 129zM164 0v1462h305l518 -936v936h305v-1462h-305l-518 936v-936h-305z" />
    <glyph glyph-name="Ograve" unicode="&#xd2;" horiz-adv-x="1368" 
d="M844 1587h-223l-281 324h332zM924 586v291q0 199 -52 277t-187 77q-134 0 -186 -77t-53 -277v-291q0 -199 52 -277t187 -78t187 77t52 278zM131 559v344q0 166 28 264q29 98 99 173t170 110t261 35t269 -41t181 -133q100 -129 100 -408v-344q0 -166 -28 -264
q-29 -98 -99 -173t-170 -110t-262 -35t-270 41t-179 134q-100 126 -100 407z" />
    <glyph glyph-name="Oacute" unicode="&#xd3;" horiz-adv-x="1368" 
d="M528 1587l172 324h332l-280 -324h-224zM924 586v291q0 199 -52 277t-187 77q-134 0 -186 -77t-53 -277v-291q0 -199 52 -277t187 -78t187 77t52 278zM131 559v344q0 166 28 264q29 98 99 173t170 110t261 35t269 -41t181 -133q100 -129 100 -408v-344q0 -166 -28 -264
q-29 -98 -99 -173t-170 -110t-262 -35t-270 41t-179 134q-100 126 -100 407z" />
    <glyph glyph-name="Ocircumflex" unicode="&#xd4;" horiz-adv-x="1368" 
d="M686 1745l-113 -156h-278l280 320h220l280 -320h-278zM924 586v291q0 199 -52 277t-187 77q-134 0 -186 -77t-53 -277v-291q0 -199 52 -277t187 -78t187 77t52 278zM131 559v344q0 166 28 264q29 98 99 173t170 110t261 35t269 -41t181 -133q100 -129 100 -408v-344
q0 -166 -28 -264q-29 -98 -99 -173t-170 -110t-262 -35t-270 41t-179 134q-100 126 -100 407z" />
    <glyph glyph-name="Otilde" unicode="&#xd5;" horiz-adv-x="1368" 
d="M559 1911q91 -1 153 -53t76 -61t33 -9q51 0 66 108h180q-18 -131 -41 -188q-55 -131 -203 -131q-97 -1 -165 61t-97 62t-51 -30t-27 -79h-178q25 131 53 191q63 129 201 129zM924 586v291q0 199 -52 277t-187 77q-134 0 -186 -77t-53 -277v-291q0 -199 52 -277t187 -78
t187 77t52 278zM131 559v344q0 166 28 264q29 98 99 173t170 110t261 35t269 -41t181 -133q100 -129 100 -408v-344q0 -166 -28 -264q-29 -98 -99 -173t-170 -110t-262 -35t-270 41t-179 134q-100 126 -100 407z" />
    <glyph glyph-name="Odieresis" unicode="&#xd6;" horiz-adv-x="1368" 
d="M760 1591v275h264v-275h-264zM344 1591v275h264v-275h-264zM924 586v291q0 199 -52 277t-187 77q-134 0 -186 -77t-53 -277v-291q0 -199 52 -277t187 -78t187 77t52 278zM131 559v344q0 166 28 264q29 98 99 173t170 110t261 35t269 -41t181 -133q100 -129 100 -408v-344
q0 -166 -28 -264q-29 -98 -99 -173t-170 -110t-262 -35t-270 41t-179 134q-100 126 -100 407z" />
    <glyph glyph-name="multiply" unicode="&#xd7;" 
d="M389 723l-272 274l164 164l272 -272l272 272l166 -164l-272 -274l272 -272l-166 -164l-272 272l-272 -272l-164 164z" />
    <glyph glyph-name="Oslash" unicode="&#xd8;" horiz-adv-x="1368" 
d="M671 1231q-120 0 -172 -78t-53 -276v-283l398 592q-53 45 -173 45zM699 231q120 0 172 78t53 277v280l-396 -590q51 -45 171 -45zM1239 903v-344q0 -166 -28 -264q-29 -98 -99 -173t-171 -110t-283 -35t-291 60l-70 -105l-201 140l97 143q-35 75 -49 147t-13 197v344
q0 166 28 264q29 98 99 173t171 110t285 35t290 -62l69 105l201 -139l-94 -142q59 -129 59 -344z" />
    <glyph glyph-name="Ugrave" unicode="&#xd9;" horiz-adv-x="1396" 
d="M862 1587h-223l-281 324h332zM158 1462h315v-915q0 -160 29 -216q28 -56 72 -78t127 -22t128 26t70 84t25 206v915h315v-915q0 -166 -19 -252t-81 -163q-125 -155 -453 -155t-457 195q-41 61 -56 143t-15 232v915z" />
    <glyph glyph-name="Uacute" unicode="&#xda;" horiz-adv-x="1396" 
d="M555 1587l172 324h332l-281 -324h-223zM158 1462h315v-915q0 -160 29 -216q28 -56 72 -78t127 -22t128 26t70 84t25 206v915h315v-915q0 -166 -19 -252t-81 -163q-125 -155 -453 -155t-457 195q-41 61 -56 143t-15 232v915z" />
    <glyph glyph-name="Ucircumflex" unicode="&#xdb;" horiz-adv-x="1396" 
d="M698 1745l-112 -156h-279l281 320h219l280 -320h-278zM158 1462h315v-915q0 -160 29 -216q28 -56 72 -78t127 -22t128 26t70 84t25 206v915h315v-915q0 -166 -19 -252t-81 -163q-125 -155 -453 -155t-457 195q-41 61 -56 143t-15 232v915z" />
    <glyph glyph-name="Udieresis" unicode="&#xdc;" horiz-adv-x="1396" 
d="M774 1591v275h264v-275h-264zM358 1591v275h265v-275h-265zM158 1462h315v-915q0 -160 29 -216q28 -56 72 -78t127 -22t128 26t70 84t25 206v915h315v-915q0 -166 -19 -252t-81 -163q-125 -155 -453 -155t-457 195q-41 61 -56 143t-15 232v915z" />
    <glyph glyph-name="Yacute" unicode="&#xdd;" horiz-adv-x="1122" 
d="M428 1587l172 324h332l-281 -324h-223zM408 0v526l-451 936h334l274 -624l275 624h334l-451 -936v-526h-315z" />
    <glyph glyph-name="Thorn" unicode="&#xde;" horiz-adv-x="1234" 
d="M666 541q110 0 156 51t46 173t-46 173t-156 51h-187l-2 -448h189zM479 289v-289h-315v1462h315v-221h185q160 0 252 -28q266 -80 266 -447q0 -264 -131 -377q-115 -100 -387 -100h-185z" />
    <glyph glyph-name="germandbls" unicode="&#xdf;" horiz-adv-x="1175" 
d="M137 0v1049q1 225 105 328t321 103t328 -85q111 -86 110 -248q0 -74 -19 -127t-71 -123q170 -98 168 -373v-59q0 -261 -96 -363t-342 -102h-86v236h49q113 0 145 38t33 172v95q-2 127 -36 167t-140 37h-31v211h35q63 0 91 36t28 118q0 141 -141 141q-86 0 -119 -43
t-33 -155v-1053h-299z" />
    <glyph glyph-name="agrave" unicode="&#xe0;" horiz-adv-x="1097" 
d="M735 1186h-223l-281 323h332zM668 453h-158q-82 0 -118 -30q-36 -29 -36 -99t35 -97t123 -27t121 36q33 35 33 131v86zM668 649v35q0 164 -156 164q-117 0 -199 -103l-204 144q137 197 436 197t385 -191q37 -82 37 -266v-629h-234l-18 55q-92 -78 -284 -78
q-191 0 -273 77q-82 76 -82 264t86 260t311 71h195z" />
    <glyph glyph-name="aacute" unicode="&#xe1;" horiz-adv-x="1097" 
d="M426 1186l172 323h332l-281 -323h-223zM668 453h-158q-82 0 -118 -30q-36 -29 -36 -99t35 -97t123 -27t121 36q33 35 33 131v86zM668 649v35q0 164 -156 164q-117 0 -199 -103l-204 144q137 197 436 197t385 -191q37 -82 37 -266v-629h-234l-18 55q-92 -78 -284 -78
q-191 0 -273 77q-82 76 -82 264t86 260t311 71h195z" />
    <glyph glyph-name="acircumflex" unicode="&#xe2;" horiz-adv-x="1097" 
d="M551 1343l-113 -155h-278l280 319h219l281 -319h-278zM668 453h-158q-82 0 -118 -30q-36 -29 -36 -99t35 -97t123 -27t121 36q33 35 33 131v86zM668 649v35q0 164 -156 164q-117 0 -199 -103l-204 144q137 197 436 197t385 -191q37 -82 37 -266v-629h-234l-18 55
q-92 -78 -284 -78q-191 0 -273 77q-82 76 -82 264t86 260t311 71h195z" />
    <glyph glyph-name="atilde" unicode="&#xe3;" horiz-adv-x="1097" 
d="M424 1509q90 0 152 -52t77 -61q14 -9 33 -10q51 0 66 109h180q-20 -135 -41 -188q-55 -131 -203 -131q-98 0 -166 61t-95 61t-49 -30t-30 -78h-178q27 141 53 190q63 129 201 129zM668 453h-158q-82 0 -118 -30q-36 -29 -36 -99t35 -97t123 -27t121 36q33 35 33 131v86z
M668 649v35q0 164 -156 164q-117 0 -199 -103l-204 144q137 197 436 197t385 -191q37 -82 37 -266v-629h-234l-18 55q-92 -78 -284 -78q-191 0 -273 77q-82 76 -82 264t86 260t311 71h195z" />
    <glyph glyph-name="adieresis" unicode="&#xe4;" horiz-adv-x="1097" 
d="M621 1190v274h264v-274h-264zM215 1190v274h264v-274h-264zM668 453h-158q-82 0 -118 -30q-36 -29 -36 -99t35 -97t123 -27t121 36q33 35 33 131v86zM668 649v35q0 164 -156 164q-117 0 -199 -103l-204 144q137 197 436 197t385 -191q37 -82 37 -266v-629h-234l-18 55
q-92 -78 -284 -78q-191 0 -273 77q-82 76 -82 264t86 260t311 71h195z" />
    <glyph glyph-name="aring" unicode="&#xe5;" horiz-adv-x="1097" 
d="M643 1406q0 106 -91 105q-91 0 -91 -105t90 -106q92 0 92 106zM552 1647q124 0 198 -66q74 -65 74 -173t-76 -176q-74 -68 -195 -67q-121 0 -197 68q-76 69 -76 177t74 172t198 65zM668 453h-158q-82 0 -118 -30q-36 -29 -36 -99t35 -97t123 -27t121 36q33 35 33 131v86z
M668 649v35q0 164 -156 164q-117 0 -199 -103l-204 144q137 197 436 197t385 -191q37 -82 37 -266v-629h-234l-18 55q-92 -78 -284 -78q-191 0 -273 77q-82 76 -82 264t86 260t311 71h195z" />
    <glyph glyph-name="ae" unicode="&#xe6;" horiz-adv-x="1697" 
d="M975 657h352v25q0 90 -46 138t-130 48t-130 -49t-46 -137v-25zM670 453h-158q-82 0 -118 -30q-36 -31 -36 -99t35 -96t123 -28t121 39q33 38 33 140v74zM1608 455h-631v-27q0 -221 197 -221q137 0 208 112l220 -124q-66 -113 -172 -165t-275 -53q-229 0 -340 119
q-104 -119 -373 -119q-200 0 -282 76q-82 75 -82 265t85 261t312 70h195v35q0 164 -158 164q-113 -1 -197 -103l-204 144q135 197 424 196q199 0 299 -100q57 55 130 78t193 22q240 1 345 -123t106 -405v-102z" />
    <glyph glyph-name="ccedilla" unicode="&#xe7;" horiz-adv-x="985" 
d="M287 -498l100 373h283l-183 -373h-200zM106 502v53q0 258 93 381q115 150 346 149q295 0 411 -219l-219 -125q-37 59 -74 83q-38 24 -96 24q-162 0 -161 -264v-113q0 -256 172 -256q110 0 176 104l221 -122q-129 -219 -405 -219t-390 174q-74 115 -74 350z" />
    <glyph glyph-name="egrave" unicode="&#xe8;" horiz-adv-x="1128" 
d="M737 1186h-223l-281 323h332zM403 657h353v25q0 90 -46 138t-130 48t-130 -49t-47 -137v-25zM406 455v-27q0 -221 196 -221q139 0 209 112l219 -124q-68 -117 -174 -167t-287 -51q-247 0 -355 119t-108 393v68q0 266 89 379q111 150 367 150t366 -124q109 -122 108 -405
v-102h-630z" />
    <glyph glyph-name="eacute" unicode="&#xe9;" horiz-adv-x="1128" 
d="M420 1186l172 323h332l-281 -323h-223zM403 657h353v25q0 90 -46 138t-130 48t-130 -49t-47 -137v-25zM406 455v-27q0 -221 196 -221q139 0 209 112l219 -124q-68 -117 -174 -167t-287 -51q-247 0 -355 119t-108 393v68q0 266 89 379q111 150 367 150t366 -124
q109 -122 108 -405v-102h-630z" />
    <glyph glyph-name="ecircumflex" unicode="&#xea;" horiz-adv-x="1128" 
d="M580 1343l-113 -155h-279l281 319h219l281 -319h-279zM403 657h353v25q0 90 -46 138t-130 48t-130 -49t-47 -137v-25zM406 455v-27q0 -221 196 -221q139 0 209 112l219 -124q-68 -117 -174 -167t-287 -51q-247 0 -355 119t-108 393v68q0 266 89 379q111 150 367 150
t366 -124q109 -122 108 -405v-102h-630z" />
    <glyph glyph-name="edieresis" unicode="&#xeb;" horiz-adv-x="1128" 
d="M649 1190v274h264v-274h-264zM244 1190v274h264v-274h-264zM403 657h353v25q0 90 -46 138t-130 48t-130 -49t-47 -137v-25zM406 455v-27q0 -221 196 -221q139 0 209 112l219 -124q-68 -117 -174 -167t-287 -51q-247 0 -355 119t-108 393v68q0 266 89 379q111 150 367 150
t366 -124q109 -122 108 -405v-102h-630z" />
    <glyph glyph-name="igrave" unicode="&#xec;" horiz-adv-x="579" 
d="M420 1186h-223l-281 323h332zM139 0v1061h299v-1061h-299z" />
    <glyph glyph-name="iacute" unicode="&#xed;" horiz-adv-x="579" 
d="M150 1186l172 323h331l-280 -323h-223zM135 0v1061h299v-1061h-299z" />
    <glyph glyph-name="icircumflex" unicode="&#xee;" horiz-adv-x="579" 
d="M291 1343l-113 -155h-278l280 319h219l281 -319h-279zM141 0v1061h299v-1061h-299z" />
    <glyph glyph-name="idieresis" unicode="&#xef;" horiz-adv-x="579" 
d="M360 1190v274h265v-274h-265zM-45 1190v274h264v-274h-264zM141 0v1061h299v-1061h-299z" />
    <glyph glyph-name="eth" unicode="&#xf0;" horiz-adv-x="1146" 
d="M743 473v80q0 137 -38 197q-39 59 -131 59t-130 -58q-39 -58 -38 -198v-80q0 -139 38 -199q39 -59 130 -59t131 59q38 60 38 199zM106 451v124q0 246 104 359t318 113q86 0 136 -25q-45 98 -97 139l-211 -121l-90 121l148 82l-41 17q-55 23 -111 30l39 195
q201 -20 348 -103l180 105l93 -121l-142 -80q256 -244 262 -711v-124q0 -252 -110 -363t-358 -111t-358 111t-110 363z" />
    <glyph glyph-name="ntilde" unicode="&#xf1;" horiz-adv-x="1173" 
d="M459 1509q91 0 153 -52t76 -61t33 -10q51 0 65 109h181q-20 -135 -41 -188q-55 -131 -203 -131q-97 0 -165 61t-96 61t-50 -30t-29 -78h-178q27 141 53 190q66 129 201 129zM137 0v1061h223l25 -80q98 104 279 104q270 0 348 -204q31 -82 30 -275v-606h-299v571
q0 141 -33 201q-34 59 -119 59t-120 -62t-35 -218v-551h-299z" />
    <glyph glyph-name="ograve" unicode="&#xf2;" horiz-adv-x="1146" 
d="M733 1186h-223l-281 323h332zM743 473v115q0 141 -38 200q-39 60 -131 60t-130 -60q-39 -60 -38 -200v-115q0 -139 38 -199q39 -59 130 -59t131 59q38 60 38 199zM106 451v159q0 252 111 364t359 112t357 -112q110 -112 109 -364v-159q0 -252 -110 -363t-358 -111
t-358 111t-110 363z" />
    <glyph glyph-name="oacute" unicode="&#xf3;" horiz-adv-x="1146" 
d="M416 1186l172 323h332l-281 -323h-223zM743 473v115q0 141 -38 200q-39 60 -131 60t-130 -60q-39 -60 -38 -200v-115q0 -139 38 -199q39 -59 130 -59t131 59q38 60 38 199zM106 451v159q0 252 111 364t359 112t357 -112q110 -112 109 -364v-159q0 -252 -110 -363
t-358 -111t-358 111t-110 363z" />
    <glyph glyph-name="ocircumflex" unicode="&#xf4;" horiz-adv-x="1146" 
d="M575 1343l-112 -155h-279l281 319h219l281 -319h-279zM743 473v115q0 141 -38 200q-39 60 -131 60t-130 -60q-39 -60 -38 -200v-115q0 -139 38 -199q39 -59 130 -59t131 59q38 60 38 199zM106 451v159q0 252 111 364t359 112t357 -112q110 -112 109 -364v-159
q0 -252 -110 -363t-358 -111t-358 111t-110 363z" />
    <glyph glyph-name="otilde" unicode="&#xf5;" horiz-adv-x="1146" 
d="M449 1509q90 0 152 -52q63 -52 77 -61t33 -10q51 0 65 109h180q-20 -135 -41 -188q-55 -131 -202 -131q-97 0 -165 61t-96 61t-50 -29q-21 -30 -29 -79h-178q27 141 53 190q63 129 201 129zM743 473v115q0 141 -38 200q-39 60 -131 60t-130 -60q-39 -60 -38 -200v-115
q0 -139 38 -199q39 -59 130 -59t131 59q38 60 38 199zM106 451v159q0 252 111 364t359 112t357 -112q110 -112 109 -364v-159q0 -252 -110 -363t-358 -111t-358 111t-110 363z" />
    <glyph glyph-name="odieresis" unicode="&#xf6;" horiz-adv-x="1146" 
d="M645 1190v274h264v-274h-264zM240 1190v274h264v-274h-264zM743 473v115q0 141 -38 200q-39 60 -131 60t-130 -60q-39 -60 -38 -200v-115q0 -139 38 -199q39 -59 130 -59t131 59q38 60 38 199zM106 451v159q0 252 111 364t359 112t357 -112q110 -112 109 -364v-159
q0 -252 -110 -363t-358 -111t-358 111t-110 363z" />
    <glyph glyph-name="divide" unicode="&#xf7;" 
d="M418 963v239h268v-239h-268zM418 246v239h268v-239h-268zM92 604v236h920v-236h-920z" />
    <glyph glyph-name="oslash" unicode="&#xf8;" horiz-adv-x="1146" 
d="M558 848q-155 0 -155 -260v-139l271 370q-41 29 -116 29zM586 215q156 0 157 260v141l-270 -372q37 -29 113 -29zM1040 453q0 -254 -108 -365t-359 -111q-160 0 -262 46l-59 -82l-139 108l63 86q-72 104 -72 318v157q0 252 110 364t357 111q166 0 263 -45l59 80l139 -106
l-63 -86q72 -102 71 -318v-157z" />
    <glyph glyph-name="ugrave" unicode="&#xf9;" horiz-adv-x="1150" 
d="M735 1186h-223l-281 323h332zM131 1061h299v-572q0 -141 32 -199t110 -58t110 62q33 64 33 216v551h299v-1061h-201l-39 88q-43 -59 -104 -85t-164 -26q-270 0 -344 205q-31 84 -31 273v606z" />
    <glyph glyph-name="uacute" unicode="&#xfa;" horiz-adv-x="1150" 
d="M418 1186l172 323h332l-281 -323h-223zM131 1061h299v-572q0 -141 32 -199t110 -58t110 62q33 64 33 216v551h299v-1061h-201l-39 88q-43 -59 -104 -85t-164 -26q-270 0 -344 205q-31 84 -31 273v606z" />
    <glyph glyph-name="ucircumflex" unicode="&#xfb;" horiz-adv-x="1150" 
d="M578 1343l-113 -155h-279l281 319h219l281 -319h-279zM131 1061h299v-572q0 -141 32 -199t110 -58t110 62q33 64 33 216v551h299v-1061h-201l-39 88q-43 -59 -104 -85t-164 -26q-270 0 -344 205q-31 84 -31 273v606z" />
    <glyph glyph-name="udieresis" unicode="&#xfc;" horiz-adv-x="1150" 
d="M647 1190v274h264v-274h-264zM242 1190v274h264v-274h-264zM131 1061h299v-572q0 -141 32 -199t110 -58t110 62q33 64 33 216v551h299v-1061h-201l-39 88q-43 -59 -104 -85t-164 -26q-270 0 -344 205q-31 84 -31 273v606z" />
    <glyph glyph-name="yacute" unicode="&#xfd;" horiz-adv-x="1050" 
d="M397 1186l172 323h332l-280 -323h-224zM92 -471v242q131 -3 172 29t86 165l21 62l-351 1034h302l204 -715l197 715h303l-369 -1118q-66 -188 -110 -255q-45 -66 -79 -90q-73 -50 -211 -64q-62 -5 -165 -5z" />
    <glyph glyph-name="thorn" unicode="&#xfe;" horiz-adv-x="1163" 
d="M760 477v109q0 137 -38 199t-122 63q-162 0 -162 -203v-227q0 -104 39 -154t123 -49t122 63t38 199zM438 -461h-299v1923h299v-432q90 55 215 55q215 0 310 -111q94 -112 94 -366v-153q0 -254 -93 -366t-307 -112q-117 1 -219 58v-496z" />
    <glyph glyph-name="ydieresis" unicode="&#xff;" horiz-adv-x="1050" 
d="M596 1190v274h264v-274h-264zM190 1190v274h265v-274h-265zM92 -471v242q131 -3 172 29t86 165l21 62l-351 1034h302l204 -715l197 715h303l-369 -1118q-66 -188 -110 -255q-45 -66 -79 -90q-73 -50 -211 -64q-62 -5 -165 -5z" />
    <glyph glyph-name="Amacron" unicode="&#x100;" horiz-adv-x="1275" 
d="M307 1628v211h664v-211h-664zM821 524l-178 570l-182 -570h360zM897 274h-512l-86 -274h-340l528 1462h306l530 -1462h-342z" />
    <glyph glyph-name="amacron" unicode="&#x101;" horiz-adv-x="1097" 
d="M219 1227v211h664v-211h-664zM668 453h-158q-82 0 -118 -30q-36 -29 -36 -99t35 -97t123 -27t121 36q33 35 33 131v86zM668 649v35q0 164 -156 164q-117 0 -199 -103l-204 144q137 197 436 197t385 -191q37 -82 37 -266v-629h-234l-18 55q-92 -78 -284 -78
q-191 0 -273 77q-82 76 -82 264t86 260t311 71h195z" />
    <glyph glyph-name="Abreve" unicode="&#x102;" horiz-adv-x="1275" 
d="M628 1565q-248 0 -321 153q-25 52 -31 189h185q12 -76 50 -103q38 -26 128 -26t128 26t50 103h182q-4 -150 -43 -211q-80 -131 -328 -131zM821 524l-178 570l-182 -570h360zM897 274h-512l-86 -274h-340l528 1462h306l530 -1462h-342z" />
    <glyph glyph-name="abreve" unicode="&#x103;" horiz-adv-x="1097" 
d="M551 1376q90 0 128 27t50 102h182q-4 -150 -43 -211q-80 -131 -328 -131t-321 154q-25 51 -31 188h185q12 -77 50 -103t128 -26zM668 453h-158q-82 0 -118 -30q-36 -29 -36 -99t35 -97t123 -27t121 36q33 35 33 131v86zM668 649v35q0 164 -156 164q-117 0 -199 -103
l-204 144q137 197 436 197t385 -191q37 -82 37 -266v-629h-234l-18 55q-92 -78 -284 -78q-191 0 -273 77q-82 76 -82 264t86 260t311 71h195z" />
    <glyph glyph-name="Aogonek" unicode="&#x104;" horiz-adv-x="1275" 
d="M821 524l-178 570l-182 -570h360zM1145 -217q0 -74 88 -74q55 0 129 25l31 -144q-102 -43 -231 -43q-128 -1 -204 49t-75 142q0 150 221 262h-123l-84 274h-512l-86 -274h-340l528 1462h306l530 -1462q-178 -131 -178 -217z" />
    <glyph glyph-name="aogonek" unicode="&#x105;" horiz-adv-x="1097" 
d="M668 453h-158q-82 0 -118 -30q-36 -29 -36 -99t35 -97t123 -27t121 36q33 35 33 131v86zM967 629v-629q-95 -72 -137 -122t-42 -95q0 -74 89 -74q57 0 129 25l30 -144q-102 -43 -231 -43q-129 -1 -204 49t-75 142q0 154 222 262h-15l-18 55q-92 -78 -284 -78
q-191 0 -273 77q-82 76 -82 264t86 260t311 71h195v35q0 164 -156 164q-117 0 -199 -103l-204 144q137 197 436 197t385 -191q37 -82 37 -266z" />
    <glyph glyph-name="Cacute" unicode="&#x106;" horiz-adv-x="1269" 
d="M504 1587l172 324h332l-281 -324h-223zM131 569v320q0 170 27 269t90 171q136 152 400 152q264 1 388 -105t133 -329l-288 -21q-11 104 -63 152t-164 49q-112 0 -159 -78q-48 -78 -49 -285v-270q0 -207 48 -285t176 -78q202 0 227 201l295 -35q-19 -418 -528 -420
q-303 0 -437 177q-53 72 -75 166t-21 249z" />
    <glyph glyph-name="cacute" unicode="&#x107;" horiz-adv-x="985" 
d="M416 1186l172 323h332l-281 -323h-223zM106 502v53q0 258 93 381q115 150 346 149q295 0 411 -219l-219 -125q-37 59 -74 83q-38 24 -96 24q-162 0 -161 -264v-113q0 -256 172 -256q110 0 176 104l221 -122q-129 -219 -405 -219t-390 174q-74 115 -74 350z" />
    <glyph glyph-name="Ccircumflex" unicode="&#x108;" horiz-adv-x="1269" 
d="M662 1745l-113 -156h-279l281 320h219l281 -320h-279zM131 569v320q0 170 27 269t90 171q136 152 400 152q264 1 388 -105t133 -329l-288 -21q-11 104 -63 152t-164 49q-112 0 -159 -78q-48 -78 -49 -285v-270q0 -207 48 -285t176 -78q202 0 227 201l295 -35
q-19 -418 -528 -420q-303 0 -437 177q-53 72 -75 166t-21 249z" />
    <glyph glyph-name="ccircumflex" unicode="&#x109;" horiz-adv-x="985" 
d="M559 1343l-113 -155h-278l281 319h219l280 -319h-278zM106 502v53q0 258 93 381q115 150 346 149q295 0 411 -219l-219 -125q-37 59 -74 83q-38 24 -96 24q-162 0 -161 -264v-113q0 -256 172 -256q110 0 176 104l221 -122q-129 -219 -405 -219t-390 174q-74 115 -74 350z
" />
    <glyph glyph-name="Cdotaccent" unicode="&#x10a;" horiz-adv-x="1269" 
d="M522 1591v275h289v-275h-289zM131 569v320q0 170 27 269t90 171q136 152 400 152q264 1 388 -105t133 -329l-288 -21q-11 104 -63 152t-164 49q-112 0 -159 -78q-48 -78 -49 -285v-270q0 -207 48 -285t176 -78q202 0 227 201l295 -35q-19 -418 -528 -420q-303 0 -437 177
q-53 72 -75 166t-21 249z" />
    <glyph glyph-name="cdotaccent" unicode="&#x10b;" horiz-adv-x="985" 
d="M403 1190v274h289v-274h-289zM106 502v53q0 258 93 381q115 150 346 149q295 0 411 -219l-219 -125q-37 59 -74 83q-38 24 -96 24q-162 0 -161 -264v-113q0 -256 172 -256q110 0 176 104l221 -122q-129 -219 -405 -219t-390 174q-74 115 -74 350z" />
    <glyph glyph-name="Ccaron" unicode="&#x10c;" horiz-adv-x="1269" 
d="M657 1747l111 156h279l-281 -320h-217l-283 320h279zM131 569v320q0 170 27 269t90 171q136 152 400 152q264 1 388 -105t133 -329l-288 -21q-11 104 -63 152t-164 49q-112 0 -159 -78q-48 -78 -49 -285v-270q0 -207 48 -285t176 -78q202 0 227 201l295 -35
q-19 -418 -528 -420q-303 0 -437 177q-53 72 -75 166t-21 249z" />
    <glyph glyph-name="ccaron" unicode="&#x10d;" horiz-adv-x="985" 
d="M561 1346l111 155h278l-280 -319h-217l-283 319h279zM106 502v53q0 258 93 381q115 150 346 149q295 0 411 -219l-219 -125q-37 59 -74 83q-38 24 -96 24q-162 0 -161 -264v-113q0 -256 172 -256q110 0 176 104l221 -122q-129 -219 -405 -219t-390 174q-74 115 -74 350z
" />
    <glyph glyph-name="Dcaron" unicode="&#x10e;" horiz-adv-x="1370" 
d="M637 1747l111 156h278l-281 -320h-217l-282 320h278zM479 250h137q178 -2 242 68q63 71 66 278v270q-2 207 -66 278t-242 68h-137v-962zM164 0v1462h510q297 4 435 -135t130 -436v-320q8 -297 -130 -435t-435 -136h-510z" />
    <glyph glyph-name="dcaron" unicode="&#x10f;" horiz-adv-x="1425" 
d="M1133 905l71 596h281l-144 -596h-208zM403 586v-109q0 -139 38 -201t122 -61q84 0 123 49t39 154v227q0 203 -162 203q-84 0 -122 -62t-38 -200zM506 -23q-213 0 -306 112t-94 366v153q0 250 94 364t300 113q98 0 144 -20t81 -41v438h299v-1462h-229l-19 66l-16 -13
q-86 -76 -254 -76z" />
    <glyph glyph-name="Dcroat" unicode="&#x110;" horiz-adv-x="1370" 
d="M479 862h230v-250h-230v-362h137q178 -2 242 68q63 71 66 276v272q-2 207 -66 278t-242 68h-137v-350zM164 862v600h512q295 4 433 -135t130 -436v-320q8 -297 -129 -436t-434 -135h-512v612h-146v250h146z" />
    <glyph glyph-name="dcroat" unicode="&#x111;" horiz-adv-x="1165" 
d="M403 586v-109q0 -139 38 -201t122 -61q84 0 123 49t39 154v227q0 203 -162 203q-84 0 -122 -62t-38 -200zM490 -23q-197 0 -290 112t-94 366v153q0 250 94 364t300 113q98 0 144 -20t81 -41v125h-283v182h283v131h299v-131h156v-182h-156v-1149h-229l-19 66
q-89 -89 -286 -89z" />
    <glyph glyph-name="Emacron" unicode="&#x112;" horiz-adv-x="1191" 
d="M287 1628v211h663v-211h-663zM166 0v1462h924v-256h-613v-340h518v-256h-518v-354h621v-256h-932z" />
    <glyph glyph-name="emacron" unicode="&#x113;" horiz-adv-x="1128" 
d="M248 1227v211h663v-211h-663zM403 657h353v25q0 90 -46 138t-130 48t-130 -49t-47 -137v-25zM406 455v-27q0 -221 196 -221q139 0 209 112l219 -124q-68 -117 -174 -167t-287 -51q-247 0 -355 119t-108 393v68q0 266 89 379q111 150 367 150t366 -124q109 -122 108 -405
v-102h-630z" />
    <glyph glyph-name="Ebreve" unicode="&#x114;" horiz-adv-x="1191" 
d="M618 1565q-248 0 -321 153q-25 52 -31 189h185q12 -76 50 -103q38 -26 128 -26t128 26t50 103h182q-4 -150 -43 -211q-80 -131 -328 -131zM166 0v1462h924v-256h-613v-340h518v-256h-518v-354h621v-256h-932z" />
    <glyph glyph-name="ebreve" unicode="&#x115;" horiz-adv-x="1128" 
d="M567 1376q90 0 128 27t50 102h183q-4 -150 -43 -211q-80 -131 -328 -131t-321 154q-25 51 -31 188h184q12 -77 50 -103t128 -26zM403 657h353v25q0 90 -46 138t-130 48t-130 -49t-47 -137v-25zM406 455v-27q0 -221 196 -221q139 0 209 112l219 -124q-68 -117 -174 -167
t-287 -51q-247 0 -355 119t-108 393v68q0 266 89 379q111 150 367 150t366 -124q109 -122 108 -405v-102h-630z" />
    <glyph glyph-name="Edotaccent" unicode="&#x116;" horiz-adv-x="1191" 
d="M492 1591v275h288v-275h-288zM166 0v1462h924v-256h-613v-340h518v-256h-518v-354h621v-256h-932z" />
    <glyph glyph-name="edotaccent" unicode="&#x117;" horiz-adv-x="1128" 
d="M432 1190v274h289v-274h-289zM403 657h353v25q0 90 -46 138t-130 48t-130 -49t-47 -137v-25zM406 455v-27q0 -221 196 -221q139 0 209 112l219 -124q-68 -117 -174 -167t-287 -51q-247 0 -355 119t-108 393v68q0 266 89 379q111 150 367 150t366 -124q109 -122 108 -405
v-102h-630z" />
    <glyph glyph-name="Eogonek" unicode="&#x118;" horiz-adv-x="1191" 
d="M166 0v1462h924v-256h-613v-340h518v-256h-518v-354h621v-256q-115 -94 -146 -132t-30 -85q0 -74 88 -74q53 0 127 25l30 -144q-100 -43 -229 -43q-129 -1 -204 49t-75 134q-1 84 49 143t171 127h-713z" />
    <glyph glyph-name="eogonek" unicode="&#x119;" horiz-adv-x="1128" 
d="M410 657h352v25q0 90 -46 138t-130 48t-130 -49t-46 -137v-25zM412 455v-27q0 -223 196 -223q139 0 209 114l219 -124q-68 -123 -186 -175l-27 -18q-150 -109 -149 -217q0 -76 88 -76q53 0 127 25l31 -144q-100 -43 -218 -43q-291 0 -290 193q0 70 33 124q34 54 112 113
q-236 2 -342 125t-102 387v68q0 264 88 381q111 147 369 147q258 -1 366 -123t106 -405v-102h-630z" />
    <glyph glyph-name="Ecaron" unicode="&#x11a;" horiz-adv-x="1191" 
d="M637 1747l111 156h278l-281 -320h-217l-282 320h278zM166 0v1462h924v-256h-613v-340h518v-256h-518v-354h621v-256h-932z" />
    <glyph glyph-name="ecaron" unicode="&#x11b;" horiz-adv-x="1128" 
d="M580 1346l110 155h279l-281 -319h-217l-283 319h279zM403 657h353v25q0 90 -46 138t-130 48t-130 -49t-47 -137v-25zM406 455v-27q0 -221 196 -221q139 0 209 112l219 -124q-68 -117 -174 -167t-287 -51q-247 0 -355 119t-108 393v68q0 266 89 379q111 150 367 150
t366 -124q109 -122 108 -405v-102h-630z" />
    <glyph glyph-name="Gcircumflex" unicode="&#x11c;" horiz-adv-x="1347" 
d="M676 1745l-113 -156h-278l280 320h219l281 -320h-279zM705 580v239h532v-252q0 -162 -22 -253t-78 -162q-139 -174 -455 -174t-453 176q-53 70 -75 164t-23 251v318q0 170 28 270t93 172q138 152 408 152q270 -1 397 -107t137 -327l-289 -21q-12 102 -66 152t-173 49
q-119 0 -169 -79t-51 -284v-270q0 -207 50 -285t182 -78q131 -1 188 63t58 204v82h-219z" />
    <glyph glyph-name="gcircumflex" unicode="&#x11d;" horiz-adv-x="1163" 
d="M596 1343l-113 -155h-278l280 319h220l280 -319h-278zM403 586v-109q0 -139 38 -201t124 -61q160 0 160 203v227q0 203 -162 203q-84 0 -122 -62t-38 -200zM106 608q0 252 94 365t304 112q166 0 262 -84l29 60h229v-1020q0 -256 -100 -377q-123 -147 -385 -147
q-299 0 -414 219l221 123q37 -63 77 -88t105 -25q102 0 149 61q46 62 48 199v29q-88 -57 -225 -58q-207 0 -300 113t-94 365v153z" />
    <glyph glyph-name="Gbreve" unicode="&#x11e;" horiz-adv-x="1347" 
d="M666 1565q-248 0 -322 153q-25 52 -31 189h185q12 -76 50 -103q38 -26 128 -26t128 26t50 103h182q-4 -150 -43 -211q-79 -131 -327 -131zM705 580v239h532v-252q0 -162 -22 -253t-78 -162q-139 -174 -455 -174t-453 176q-53 70 -75 164t-23 251v318q0 170 28 270t93 172
q138 152 408 152q270 -1 397 -107t137 -327l-289 -21q-12 102 -66 152t-173 49q-119 0 -169 -79t-51 -284v-270q0 -207 50 -285t182 -78q131 -1 188 63t58 204v82h-219z" />
    <glyph glyph-name="gbreve" unicode="&#x11f;" horiz-adv-x="1163" 
d="M614 1376q90 0 128 27t51 102h182q-4 -150 -43 -211q-80 -131 -328 -131t-321 154q-25 51 -31 188h184q12 -77 50 -103t128 -26zM403 586v-109q0 -139 38 -201t124 -61q160 0 160 203v227q0 203 -162 203q-84 0 -122 -62t-38 -200zM106 608q0 252 94 365t304 112
q166 0 262 -84l29 60h229v-1020q0 -256 -100 -377q-123 -147 -385 -147q-299 0 -414 219l221 123q37 -63 77 -88t105 -25q102 0 149 61q46 62 48 199v29q-88 -57 -225 -58q-207 0 -300 113t-94 365v153z" />
    <glyph glyph-name="Gdotaccent" unicode="&#x120;" horiz-adv-x="1347" 
d="M530 1591v275h289v-275h-289zM705 580v239h532v-252q0 -162 -22 -253t-78 -162q-139 -174 -455 -174t-453 176q-53 70 -75 164t-23 251v318q0 170 28 270t93 172q138 152 408 152q270 -1 397 -107t137 -327l-289 -21q-12 102 -66 152t-173 49q-119 0 -169 -79t-51 -284
v-270q0 -207 50 -285t182 -78q131 -1 188 63t58 204v82h-219z" />
    <glyph glyph-name="gdotaccent" unicode="&#x121;" horiz-adv-x="1163" 
d="M481 1190v274h289v-274h-289zM403 586v-109q0 -139 38 -201t124 -61q160 0 160 203v227q0 203 -162 203q-84 0 -122 -62t-38 -200zM106 608q0 252 94 365t304 112q166 0 262 -84l29 60h229v-1020q0 -256 -100 -377q-123 -147 -385 -147q-299 0 -414 219l221 123
q37 -63 77 -88t105 -25q102 0 149 61q46 62 48 199v29q-88 -57 -225 -58q-207 0 -300 113t-94 365v153z" />
    <glyph glyph-name="Gcommaaccent" unicode="&#x122;" horiz-adv-x="1347" 
d="M471 -498l100 373h283l-182 -373h-201zM705 580v239h532v-252q0 -162 -22 -253t-78 -162q-139 -174 -455 -174t-453 176q-53 70 -75 164t-23 251v318q0 170 28 270t93 172q138 152 408 152q270 -1 397 -107t137 -327l-289 -21q-12 102 -66 152t-173 49q-119 0 -169 -79
t-51 -284v-270q0 -207 50 -285t182 -78q131 -1 188 63t58 204v82h-219z" />
    <glyph glyph-name="gcommaaccent" unicode="&#x123;" horiz-adv-x="1163" 
d="M426 1186l281 323h223l-172 -323h-332zM403 586v-109q0 -139 38 -201t124 -61q160 0 160 203v227q0 203 -162 203q-84 0 -122 -62t-38 -200zM106 608q0 252 94 365t304 112q166 0 262 -84l29 60h229v-1020q0 -256 -100 -377q-123 -147 -385 -147q-299 0 -414 219l221 123
q37 -63 77 -88t105 -25q102 0 149 61q46 62 48 199v29q-88 -57 -225 -58q-207 0 -300 113t-94 365v153z" />
    <glyph glyph-name="Hcircumflex" unicode="&#x124;" horiz-adv-x="1390" 
d="M694 1745l-112 -156h-279l281 320h219l280 -320h-278zM164 0v1462h315v-596h430v596h316v-1462h-316v610h-430v-610h-315z" />
    <glyph glyph-name="hcircumflex" unicode="&#x125;" horiz-adv-x="1173" 
d="M377 1745l-113 -156h-278l280 320h219l281 -320h-279zM137 0v1462h299v-440q111 63 234 63q264 0 342 -204q31 -82 30 -275v-606h-299v586q0 131 -35 188q-36 57 -117 57t-118 -61t-37 -199v-571h-299z" />
    <glyph glyph-name="Hbar" unicode="&#x126;" horiz-adv-x="1390" 
d="M479 866h432v148h-432v-148zM164 0v1014h-158v221h158v227h315v-227h432v227h316v-227h157v-221h-157v-1014h-316v610h-432v-610h-315z" />
    <glyph glyph-name="hbar" unicode="&#x127;" horiz-adv-x="1173" 
d="M139 1149h-155v194h155v119h299v-119h283v-194h-283v-127q111 63 232 63q264 0 342 -204q31 -82 30 -275v-606h-299v586q0 127 -36 186q-37 59 -117 59t-116 -61t-36 -199v-571h-299v1149z" />
    <glyph glyph-name="Itilde" unicode="&#x128;" horiz-adv-x="643" 
d="M195 1911q90 -1 152 -53q63 -52 77 -61t33 -9q51 0 65 108h180q-18 -131 -40 -188q-55 -131 -203 -131q-97 -1 -165 61t-97 62t-51 -30t-27 -79h-178q25 131 53 191q63 129 201 129zM164 0v1462h315v-1462h-315z" />
    <glyph glyph-name="itilde" unicode="&#x129;" horiz-adv-x="579" 
d="M162 1509q90 0 152 -52t77 -61q14 -9 33 -10q51 0 65 109h181q-20 -135 -41 -188q-55 -131 -203 -131q-98 0 -166 61t-95 61t-49 -30t-30 -78h-178q27 141 53 190q63 129 201 129zM139 0v1061h299v-1061h-299z" />
    <glyph glyph-name="Imacron" unicode="&#x12a;" horiz-adv-x="643" 
d="M-10 1628v211h663v-211h-663zM164 0v1462h315v-1462h-315z" />
    <glyph glyph-name="imacron" unicode="&#x12b;" horiz-adv-x="579" 
d="M-41 1227v211h664v-211h-664zM141 0v1061h299v-1061h-299z" />
    <glyph glyph-name="Ibreve" unicode="&#x12c;" horiz-adv-x="643" 
d="M312 1565q-248 0 -322 153q-25 52 -31 189h184q13 -76 51 -103q38 -26 128 -26t128 26t50 103h182q-4 -150 -43 -211q-79 -131 -327 -131zM164 0v1462h315v-1462h-315z" />
    <glyph glyph-name="ibreve" unicode="&#x12d;" horiz-adv-x="579" 
d="M291 1376q90 0 128 27t50 102h182q-4 -150 -43 -211q-80 -131 -328 -131t-321 154q-25 51 -31 188h185q12 -77 50 -103t128 -26zM141 0v1061h299v-1061h-299z" />
    <glyph glyph-name="Iogonek" unicode="&#x12e;" horiz-adv-x="643" 
d="M479 1462v-1462q-168 -127 -168 -215q0 -76 86 -76q57 0 127 25l33 -144q-100 -43 -219 -43q-289 0 -289 193q0 76 50 136t163 124h-98v1462h315z" />
    <glyph glyph-name="iogonek" unicode="&#x12f;" horiz-adv-x="579" 
d="M139 1198v281h299v-281h-299zM438 1061v-1061q-4 -2 -9 -7t-9 -7q-150 -117 -150 -201q0 -76 86 -76q57 0 127 25l31 -144q-102 -43 -217 -43q-289 0 -289 191q0 76 48 136t163 126h-80v1061h299z" />
    <glyph glyph-name="Idotaccent" unicode="&#x130;" horiz-adv-x="643" 
d="M176 1591v275h289v-275h-289zM164 0v1462h315v-1462h-315z" />
    <glyph glyph-name="dotlessi" unicode="&#x131;" horiz-adv-x="579" 
d="M139 0v1061h299v-1061h-299z" />
    <glyph glyph-name="IJ" unicode="&#x132;" horiz-adv-x="1286" 
d="M807 1462h315v-1362q0 -186 -11 -271t-42 -146q-100 -184 -375 -185q-129 0 -258 49l109 232q55 -27 106 -27q111 0 142 115q14 63 14 229v1366zM164 0v1462h315v-1462h-315z" />
    <glyph glyph-name="ij" unicode="&#x133;" horiz-adv-x="1169" 
d="M731 1198v281h299v-281h-299zM731 1061h299v-1012q4 -219 -41 -328t-157 -151t-336 -41v242q135 -4 186 50t49 199v1041zM139 0v1061h299v-1061h-299zM139 1198v281h299v-281h-299z" />
    <glyph glyph-name="Jcircumflex" unicode="&#x134;" horiz-adv-x="1007" 
d="M647 1745l-112 -156h-279l281 320h219l280 -320h-278zM537 1462h315v-882q0 -186 -11 -272t-42 -146q-102 -184 -379 -185q-136 1 -242 45t-221 146l174 207q131 -143 245 -143t146 114q14 63 15 229v887z" />
    <glyph glyph-name="jcircumflex" unicode="&#x135;" horiz-adv-x="591" 
d="M289 1343l-113 -155h-278l280 319h219l281 -319h-279zM145 1061h299v-1012q4 -219 -41 -328t-157 -151t-336 -41v242q135 -4 186 50t49 199v1041z" />
    <glyph glyph-name="Kcommaaccent" unicode="&#x136;" horiz-adv-x="1259" 
d="M451 -498l100 373h283l-183 -373h-200zM168 0v1462h311v-590l430 590h369l-483 -602l505 -860h-366l-344 647l-111 -145v-502h-311z" />
    <glyph glyph-name="kcommaaccent" unicode="&#x137;" horiz-adv-x="1101" 
d="M369 -498l100 373h283l-183 -373h-200zM139 0v1462h299v-848l336 447h338l-367 -451l379 -610h-325l-232 395l-129 -162v-233h-299z" />
    <glyph glyph-name="kgreenlandic" unicode="&#x138;" horiz-adv-x="1101" 
d="M139 0v1061h299v-447l336 447h338l-367 -451l379 -610h-325l-232 395l-129 -162v-233h-299z" />
    <glyph glyph-name="Lacute" unicode="&#x139;" horiz-adv-x="1118" 
d="M231 1587l172 324h332l-280 -324h-224zM164 0v1462h315v-1206h617v-256h-932z" />
    <glyph glyph-name="lacute" unicode="&#x13a;" horiz-adv-x="645" 
d="M166 1587l172 324h332l-281 -324h-223zM135 1462h299v-1007q0 -125 39 -170t145 -43h31v-242h-43q-289 0 -380 94t-91 391v977z" />
    <glyph glyph-name="Lcommaaccent" unicode="&#x13b;" horiz-adv-x="1118" 
d="M397 -498l101 373h282l-182 -373h-201zM164 0v1462h315v-1206h617v-256h-932z" />
    <glyph glyph-name="lcommaaccent" unicode="&#x13c;" horiz-adv-x="645" 
d="M137 -498l101 373h282l-182 -373h-201zM131 1462h299v-1007q0 -125 39 -170t145 -43h31v-242h-43q-289 0 -380 94t-91 391v977z" />
    <glyph glyph-name="Lcaron" unicode="&#x13d;" horiz-adv-x="1118" 
d="M627 905l71 596h281l-143 -596h-209zM164 0v1462h315v-1206h617v-256h-932z" />
    <glyph glyph-name="lcaron" unicode="&#x13e;" horiz-adv-x="849" 
d="M551 905l72 596h280l-143 -596h-209zM135 1462h299v-1007q0 -125 39 -170t145 -43h31v-242h-43q-289 0 -380 94t-91 391v977z" />
    <glyph glyph-name="Ldot" unicode="&#x13f;" horiz-adv-x="1118" 
d="M731 580v286h268v-286h-268zM164 0v1462h315v-1206h617v-256h-932z" />
    <glyph glyph-name="ldot" unicode="&#x140;" horiz-adv-x="800" 
d="M551 580v286h268v-286h-268zM135 1462h299v-1007q0 -125 39 -170t145 -43h31v-242h-43q-289 0 -380 94t-91 391v977z" />
    <glyph glyph-name="Lslash" unicode="&#x141;" horiz-adv-x="1118" 
d="M164 0v367l-137 -80v272l137 80v823h315v-647l361 211v-272l-361 -211v-287h617v-256h-932z" />
    <glyph glyph-name="lslash" unicode="&#x142;" horiz-adv-x="702" 
d="M164 1462h299v-547l227 136v-281l-227 -133v-182q0 -125 38 -170t142 -43h31v-242h-43q-260 -2 -361 81q-100 83 -104 302v88l-178 -104v278l176 103v714z" />
    <glyph glyph-name="Nacute" unicode="&#x143;" horiz-adv-x="1456" 
d="M604 1587l172 324h332l-281 -324h-223zM164 0v1462h305l518 -936v936h305v-1462h-305l-518 936v-936h-305z" />
    <glyph glyph-name="nacute" unicode="&#x144;" horiz-adv-x="1173" 
d="M457 1186l172 323h332l-281 -323h-223zM137 0v1061h223l25 -80q98 104 279 104q270 0 348 -204q31 -82 30 -275v-606h-299v571q0 141 -33 201q-34 59 -119 59t-120 -62t-35 -218v-551h-299z" />
    <glyph glyph-name="Ncommaaccent" unicode="&#x145;" horiz-adv-x="1456" 
d="M541 -498l100 373h283l-183 -373h-200zM164 0v1462h305l518 -936v936h305v-1462h-305l-518 936v-936h-305z" />
    <glyph glyph-name="ncommaaccent" unicode="&#x146;" horiz-adv-x="1173" 
d="M387 -498l100 373h283l-182 -373h-201zM137 0v1061h223l25 -80q98 104 279 104q270 0 348 -204q31 -82 30 -275v-606h-299v571q0 141 -33 201q-34 59 -119 59t-120 -62t-35 -218v-551h-299z" />
    <glyph glyph-name="Ncaron" unicode="&#x147;" horiz-adv-x="1456" 
d="M745 1747l111 156h279l-281 -320h-217l-283 320h279zM164 0v1462h305l518 -936v936h305v-1462h-305l-518 936v-936h-305z" />
    <glyph glyph-name="ncaron" unicode="&#x148;" horiz-adv-x="1173" 
d="M569 1346l111 155h278l-280 -319h-217l-283 319h279zM137 0v1061h223l25 -80q98 104 279 104q270 0 348 -204q31 -82 30 -275v-606h-299v571q0 141 -33 201q-34 59 -119 59t-120 -62t-35 -218v-551h-299z" />
    <glyph glyph-name="napostrophe" unicode="&#x149;" horiz-adv-x="1380" 
d="M-20 915l63 547h322l-123 -547h-262zM346 0v1061h223l25 -80q98 104 278 104q270 0 349 -204q31 -82 30 -275v-606h-299v571q0 141 -33 201q-34 59 -119 59t-120 -62t-35 -218v-551h-299z" />
    <glyph glyph-name="Eng" unicode="&#x14a;" horiz-adv-x="1456" 
d="M164 0v1462h305l518 -923v923h305v-1417q4 -315 -99 -417t-427 -99v235q133 -4 185 48t53 188v27l-535 909v-936h-305z" />
    <glyph glyph-name="eng" unicode="&#x14b;" horiz-adv-x="1173" 
d="M137 0v1061h223l25 -80q98 104 279 104q270 0 348 -204q31 -82 30 -275v-555q2 -166 -18 -263q-41 -198 -247 -241q-99 -20 -271 -18v242q137 -4 188 50t49 199v551q0 141 -33 201q-34 59 -119 59t-120 -62t-35 -218v-551h-299z" />
    <glyph glyph-name="Omacron" unicode="&#x14c;" horiz-adv-x="1368" 
d="M354 1628v211h664v-211h-664zM924 586v291q0 199 -52 277t-187 77q-134 0 -186 -77t-53 -277v-291q0 -199 52 -277t187 -78t187 77t52 278zM131 559v344q0 166 28 264q29 98 99 173t170 110t261 35t269 -41t181 -133q100 -129 100 -408v-344q0 -166 -28 -264
q-29 -98 -99 -173t-170 -110t-262 -35t-270 41t-179 134q-100 126 -100 407z" />
    <glyph glyph-name="omacron" unicode="&#x14d;" horiz-adv-x="1146" 
d="M244 1227v211h663v-211h-663zM743 473v115q0 141 -38 200q-39 60 -131 60t-130 -60q-39 -60 -38 -200v-115q0 -139 38 -199q39 -59 130 -59t131 59q38 60 38 199zM106 451v159q0 252 111 364t359 112t357 -112q110 -112 109 -364v-159q0 -252 -110 -363t-358 -111
t-358 111t-110 363z" />
    <glyph glyph-name="Obreve" unicode="&#x14e;" horiz-adv-x="1368" 
d="M676 1565q-248 0 -322 153q-24 52 -30 189h184q12 -76 50 -103q38 -26 128 -26t128 26t50 103h183q-4 -150 -43 -211q-80 -131 -328 -131zM924 586v291q0 199 -52 277t-187 77q-134 0 -186 -77t-53 -277v-291q0 -199 52 -277t187 -78t187 77t52 278zM131 559v344
q0 166 28 264q29 98 99 173t170 110t261 35t269 -41t181 -133q100 -129 100 -408v-344q0 -166 -28 -264q-29 -98 -99 -173t-170 -110t-262 -35t-270 41t-179 134q-100 126 -100 407z" />
    <glyph glyph-name="obreve" unicode="&#x14f;" horiz-adv-x="1146" 
d="M575 1376q90 0 128 27t51 102h182q-4 -150 -43 -211q-80 -131 -328 -131t-321 154q-25 51 -31 188h184q12 -77 50 -103t128 -26zM743 473v115q0 141 -38 200q-39 60 -131 60t-130 -60q-39 -60 -38 -200v-115q0 -139 38 -199q39 -59 130 -59t131 59q38 60 38 199zM106 451
v159q0 252 111 364t359 112t357 -112q110 -112 109 -364v-159q0 -252 -110 -363t-358 -111t-358 111t-110 363z" />
    <glyph glyph-name="Ohungarumlaut" unicode="&#x150;" horiz-adv-x="1368" 
d="M737 1587l135 324h314l-244 -324h-205zM373 1587l135 324h313l-241 -324h-207zM924 586v291q0 199 -52 277t-187 77q-134 0 -186 -77t-53 -277v-291q0 -199 52 -277t187 -78t187 77t52 278zM131 559v344q0 166 28 264q29 98 99 173t170 110t261 35t269 -41t181 -133
q100 -129 100 -408v-344q0 -166 -28 -264q-29 -98 -99 -173t-170 -110t-262 -35t-270 41t-179 134q-100 126 -100 407z" />
    <glyph glyph-name="ohungarumlaut" unicode="&#x151;" horiz-adv-x="1146" 
d="M627 1186l135 323h313l-244 -323h-204zM262 1186l135 323h314l-242 -323h-207zM743 473v115q0 141 -38 200q-39 60 -131 60t-130 -60q-39 -60 -38 -200v-115q0 -139 38 -199q39 -59 130 -59t131 59q38 60 38 199zM106 451v159q0 252 111 364t359 112t357 -112
q110 -112 109 -364v-159q0 -252 -110 -363t-358 -111t-358 111t-110 363z" />
    <glyph glyph-name="OE" unicode="&#x152;" horiz-adv-x="1953" 
d="M446 881v-303q0 -195 54 -271t187 -76q134 0 189 77q54 77 54 270v303q0 195 -54 273t-188 77t-188 -77t-54 -273zM985 0v90q-67 -63 -141 -88t-205 -25q-283 0 -414 177q-94 129 -94 399v352q0 297 115 428q133 152 393 152q131 0 207 -24t139 -87v88h866v-256h-608
v-340h514v-256h-514v-354h619v-256h-877z" />
    <glyph glyph-name="oe" unicode="&#x153;" horiz-adv-x="1767" 
d="M1044 657h353v25q0 90 -46 138t-129 48t-130 -49t-48 -137v-25zM745 475v111q0 137 -39 199q-40 63 -130 63t-131 -62q-40 -62 -39 -200v-111q0 -137 39 -199q40 -61 130 -61t131 61q39 62 39 199zM106 453v155q0 236 91 344q111 133 362 133q123 -1 197 -25t137 -87
q94 113 334 113t345 -124q105 -122 105 -405v-102h-630v-27q0 -221 196 -221q137 0 209 112l219 -122q-68 -115 -172 -167q-103 -52 -249 -52t-220 24q-74 25 -135 88q-47 -49 -74 -63q-86 -49 -260 -50q-239 0 -347 114t-108 362z" />
    <glyph glyph-name="Racute" unicode="&#x154;" horiz-adv-x="1312" 
d="M500 1587l172 324h332l-281 -324h-223zM475 823h219q109 0 155 44q46 45 46 151t-46 150t-159 44h-215v-389zM481 582v-582h-315v1462h555q147 0 234 -24q251 -71 251 -406q0 -188 -61 -286t-203 -140l315 -606h-348l-274 582h-154z" />
    <glyph glyph-name="racute" unicode="&#x155;" horiz-adv-x="817" 
d="M291 1186l172 323h332l-281 -323h-223zM137 0v1061h228l38 -68q55 53 99 73t104 19q111 0 238 -71l-129 -244q-74 59 -144 59q-71 -1 -103 -75t-32 -244v-510h-299z" />
    <glyph glyph-name="Rcommaaccent" unicode="&#x156;" horiz-adv-x="1312" 
d="M467 -498l100 373h283l-182 -373h-201zM475 823h219q109 0 155 44q46 45 46 151t-46 150t-159 44h-215v-389zM481 582v-582h-315v1462h555q147 0 234 -24q251 -71 251 -406q0 -188 -61 -286t-203 -140l315 -606h-348l-274 582h-154z" />
    <glyph glyph-name="rcommaaccent" unicode="&#x157;" horiz-adv-x="817" 
d="M39 -498l100 373h283l-182 -373h-201zM139 0v1061h228l39 -68q57 53 99 73t103 19q111 0 238 -71l-129 -244q-77 59 -145 59q-68 -1 -101 -75t-33 -244v-510h-299z" />
    <glyph glyph-name="Rcaron" unicode="&#x158;" horiz-adv-x="1312" 
d="M623 1747l110 156h279l-281 -320h-217l-283 320h279zM475 823h219q109 0 155 44q46 45 46 151t-46 150t-159 44h-215v-389zM481 582v-582h-315v1462h555q147 0 234 -24q251 -71 251 -406q0 -188 -61 -286t-203 -140l315 -606h-348l-274 582h-154z" />
    <glyph glyph-name="rcaron" unicode="&#x159;" horiz-adv-x="817" 
d="M455 1346l110 155h279l-281 -319h-217l-283 319h279zM137 0v1061h228l38 -68q57 55 99 73t104 19q111 0 238 -71l-129 -244q-76 59 -145 59q-70 -1 -102 -75t-32 -244v-510h-299z" />
    <glyph glyph-name="Sacute" unicode="&#x15a;" horiz-adv-x="1175" 
d="M432 1587l172 324h332l-281 -324h-223zM584 231q228 0 227 175q0 122 -123 158q-31 9 -182 48q-226 58 -322 158t-96 296t129 308t369 111q348 0 487 -238l-233 -149q-94 135 -262 135q-90 0 -140 -43t-49 -123q0 -80 57 -124t207 -82t205 -58t111 -55q143 -98 143 -322
t-121 -332q-137 -119 -399 -119t-422 99q-86 55 -147 159l239 152q94 -154 322 -154z" />
    <glyph glyph-name="sacute" unicode="&#x15b;" horiz-adv-x="1017" 
d="M350 1186l172 323h332l-281 -323h-223zM487 1085q303 0 433 -219l-222 -125q-37 63 -77 87q-41 24 -113 24q-137 0 -137 -102q0 -47 33 -67q34 -19 128 -28q240 -23 325 -93t85 -244q0 -175 -111 -258t-346 -83q-342 1 -448 218l219 124q41 -67 86 -89t131 -21
q188 0 189 115q0 43 -28 63q-28 19 -133 31t-159 22t-106 35q-146 68 -146 249t104 271t293 90z" />
    <glyph glyph-name="Scircumflex" unicode="&#x15c;" horiz-adv-x="1175" 
d="M590 1745l-113 -156h-278l280 320h219l281 -320h-279zM584 231q228 0 227 175q0 122 -123 158q-31 9 -182 48q-226 58 -322 158t-96 296t129 308t369 111q348 0 487 -238l-233 -149q-94 135 -262 135q-90 0 -140 -43t-49 -123q0 -80 57 -124t207 -82t205 -58t111 -55
q143 -98 143 -322t-121 -332q-137 -119 -399 -119t-422 99q-86 55 -147 159l239 152q94 -154 322 -154z" />
    <glyph glyph-name="scircumflex" unicode="&#x15d;" horiz-adv-x="1017" 
d="M506 1343l-113 -155h-278l280 319h219l281 -319h-279zM487 1085q303 0 433 -219l-222 -125q-37 63 -77 87q-41 24 -113 24q-137 0 -137 -102q0 -47 33 -67q34 -19 128 -28q240 -23 325 -93t85 -244q0 -175 -111 -258t-346 -83q-342 1 -448 218l219 124q41 -67 86 -89
t131 -21q188 0 189 115q0 43 -28 63q-28 19 -133 31t-159 22t-106 35q-146 68 -146 249t104 271t293 90z" />
    <glyph glyph-name="Scedilla" unicode="&#x15e;" horiz-adv-x="1175" 
d="M369 -498l100 373h283l-183 -373h-200zM584 231q228 0 227 175q0 122 -123 158q-31 9 -182 48q-226 58 -322 158t-96 296t129 308t369 111q348 0 487 -238l-233 -149q-94 135 -262 135q-90 0 -140 -43t-49 -123q0 -80 57 -124t207 -82t205 -58t111 -55q143 -98 143 -322
t-121 -332q-137 -119 -399 -119t-422 99q-86 55 -147 159l239 152q94 -154 322 -154z" />
    <glyph glyph-name="scedilla" unicode="&#x15f;" horiz-adv-x="1017" 
d="M285 -498l100 373h283l-183 -373h-200zM487 1085q303 0 433 -219l-222 -125q-37 63 -77 87q-41 24 -113 24q-137 0 -137 -102q0 -47 33 -67q34 -19 128 -28q240 -23 325 -93t85 -244q0 -175 -111 -258t-346 -83q-342 1 -448 218l219 124q41 -67 86 -89t131 -21
q188 0 189 115q0 43 -28 63q-28 19 -133 31t-159 22t-106 35q-146 68 -146 249t104 271t293 90z" />
    <glyph glyph-name="Scaron" unicode="&#x160;" horiz-adv-x="1175" 
d="M594 1747l111 156h278l-281 -320h-217l-282 320h278zM584 231q228 0 227 175q0 122 -123 158q-31 9 -182 48q-226 58 -322 158t-96 296t129 308t369 111q348 0 487 -238l-233 -149q-94 135 -262 135q-90 0 -140 -43t-49 -123q0 -80 57 -124t207 -82t205 -58t111 -55
q143 -98 143 -322t-121 -332q-137 -119 -399 -119t-422 99q-86 55 -147 159l239 152q94 -154 322 -154z" />
    <glyph glyph-name="scaron" unicode="&#x161;" horiz-adv-x="1017" 
d="M508 1346l110 155h279l-281 -319h-217l-282 319h278zM487 1085q303 0 433 -219l-222 -125q-37 63 -77 87q-41 24 -113 24q-137 0 -137 -102q0 -47 33 -67q34 -19 128 -28q240 -23 325 -93t85 -244q0 -175 -111 -258t-346 -83q-342 1 -448 218l219 124q41 -67 86 -89
t131 -21q188 0 189 115q0 43 -28 63q-28 19 -133 31t-159 22t-106 35q-146 68 -146 249t104 271t293 90z" />
    <glyph glyph-name="Tcommaaccent" unicode="&#x162;" horiz-adv-x="1138" 
d="M338 -498l100 373h283l-182 -373h-201zM412 0v1206h-389v256h1091v-256h-387v-1206h-315z" />
    <glyph glyph-name="tcommaaccent" unicode="&#x163;" horiz-adv-x="720" 
d="M178 -498l101 373h282l-182 -373h-201zM162 825h-115v236h115l18 299h281v-299h211v-236h-211v-370q0 -125 39 -170t145 -43h25v-242h-35q-297 0 -386 91t-87 394v340z" />
    <glyph glyph-name="Tcaron" unicode="&#x164;" horiz-adv-x="1138" 
d="M569 1747l111 156h278l-280 -320h-217l-283 320h279zM412 0v1206h-389v256h1091v-256h-387v-1206h-315z" />
    <glyph glyph-name="tcaron" unicode="&#x165;" horiz-adv-x="925" 
d="M639 1155l63 490h281l-135 -490h-209zM162 825h-115v236h115l18 299h281v-299h211v-236h-211v-370q0 -125 39 -170t145 -43h25v-242h-35q-297 0 -386 91t-87 394v340z" />
    <glyph glyph-name="Tbar" unicode="&#x166;" horiz-adv-x="1138" 
d="M412 0v612h-248v250h248v344h-389v256h1091v-256h-387v-344h244v-250h-244v-612h-315z" />
    <glyph glyph-name="tbar" unicode="&#x167;" horiz-adv-x="729" 
d="M176 825h-117v236h117l19 299h280v-299h211v-236h-211v-114h211v-195h-211v-88q0 -106 40 -147t142 -39h25v-242h-35q-279 0 -372 82t-99 334v100h-117v195h117v114z" />
    <glyph glyph-name="Utilde" unicode="&#x168;" horiz-adv-x="1396" 
d="M571 1911q91 -1 153 -53t76 -61t34 -9q51 0 65 108h180q-18 -131 -41 -188q-55 -131 -202 -131q-98 -1 -166 61t-96 62q-30 0 -51 -30t-27 -79h-179q25 131 54 191q63 129 200 129zM158 1462h315v-915q0 -160 29 -216q28 -56 72 -78t127 -22t128 26t70 84t25 206v915h315
v-915q0 -166 -19 -252t-81 -163q-125 -155 -453 -155t-457 195q-41 61 -56 143t-15 232v915z" />
    <glyph glyph-name="utilde" unicode="&#x169;" horiz-adv-x="1150" 
d="M455 1509q90 0 152 -52q63 -52 77 -61t33 -10q51 0 65 109h181q-20 -135 -41 -188q-55 -131 -203 -131q-97 0 -165 61t-96 61t-50 -30t-29 -78h-178q27 141 53 190q66 129 201 129zM131 1061h299v-572q0 -141 32 -199t110 -58t110 62q33 64 33 216v551h299v-1061h-201
l-39 88q-43 -59 -104 -85t-164 -26q-270 0 -344 205q-31 84 -31 273v606z" />
    <glyph glyph-name="Umacron" unicode="&#x16a;" horiz-adv-x="1396" 
d="M367 1628v211h663v-211h-663zM158 1462h315v-915q0 -160 29 -216q28 -56 72 -78t127 -22t128 26t70 84t25 206v915h315v-915q0 -166 -19 -252t-81 -163q-125 -155 -453 -155t-457 195q-41 61 -56 143t-15 232v915z" />
    <glyph glyph-name="umacron" unicode="&#x16b;" horiz-adv-x="1150" 
d="M246 1227v211h663v-211h-663zM131 1061h299v-572q0 -141 32 -199t110 -58t110 62q33 64 33 216v551h299v-1061h-201l-39 88q-43 -59 -104 -85t-164 -26q-270 0 -344 205q-31 84 -31 273v606z" />
    <glyph glyph-name="Ubreve" unicode="&#x16c;" horiz-adv-x="1396" 
d="M688 1565q-248 0 -321 153q-25 52 -31 189h184q12 -76 50 -103q38 -26 128 -26t128 26t51 103h182q-4 -150 -43 -211q-80 -131 -328 -131zM158 1462h315v-915q0 -160 29 -216q28 -56 72 -78t127 -22t128 26t70 84t25 206v915h315v-915q0 -166 -19 -252t-81 -163
q-125 -155 -453 -155t-457 195q-41 61 -56 143t-15 232v915z" />
    <glyph glyph-name="ubreve" unicode="&#x16d;" horiz-adv-x="1150" 
d="M578 1376q90 0 128 27t50 102h182q-4 -150 -43 -211q-79 -131 -327 -131t-322 154q-25 51 -31 188h184q13 -77 51 -103t128 -26zM131 1061h299v-572q0 -141 32 -199t110 -58t110 62q33 64 33 216v551h299v-1061h-201l-39 88q-43 -59 -104 -85t-164 -26q-270 0 -344 205
q-31 84 -31 273v606z" />
    <glyph glyph-name="Uring" unicode="&#x16e;" horiz-adv-x="1396" 
d="M697 1913q-91 1 -91 -105t91 -106t91 106t-91 105zM969 1808q0 -108 -76 -174q-76 -68 -196 -68q-119 0 -195 68t-76 176t74 174q74 64 197 64q124 0 198 -66t74 -174zM158 1462h315v-915q0 -160 29 -216q28 -56 72 -78t127 -22t128 26t70 84t25 206v915h315v-915
q0 -166 -19 -252t-81 -163q-125 -155 -453 -155t-457 195q-41 61 -56 143t-15 232v915z" />
    <glyph glyph-name="uring" unicode="&#x16f;" horiz-adv-x="1150" 
d="M577 1511q-91 0 -91 -105t89 -106q93 0 93 106t-91 105zM305 1410q0 108 74 172t198 65q123 0 197 -66q74 -65 74 -173t-75 -176t-195 -67q-120 0 -197 68q-76 69 -76 177zM131 1061h299v-572q0 -141 32 -199t110 -58t110 62q33 64 33 216v551h299v-1061h-201l-39 88
q-43 -59 -104 -85t-164 -26q-270 0 -344 205q-31 84 -31 273v606z" />
    <glyph glyph-name="Uhungarumlaut" unicode="&#x170;" horiz-adv-x="1396" 
d="M752 1587l135 324h313l-244 -324h-204zM387 1587l135 324h314l-242 -324h-207zM158 1462h315v-915q0 -160 29 -216q28 -56 72 -78t127 -22t128 26t70 84t25 206v915h315v-915q0 -166 -19 -252t-81 -163q-125 -155 -453 -155t-457 195q-41 61 -56 143t-15 232v915z" />
    <glyph glyph-name="uhungarumlaut" unicode="&#x171;" horiz-adv-x="1150" 
d="M629 1186l135 323h313l-243 -323h-205zM264 1186l135 323h314l-242 -323h-207zM131 1061h299v-572q0 -141 32 -199t110 -58t110 62q33 64 33 216v551h299v-1061h-201l-39 88q-43 -59 -104 -85t-164 -26q-270 0 -344 205q-31 84 -31 273v606z" />
    <glyph glyph-name="Uogonek" unicode="&#x172;" horiz-adv-x="1396" 
d="M160 1462h315v-915q0 -160 29 -216t73 -78q45 -22 127 -22t127 26t70 84t25 206v915h315v-915q7 -231 -59 -354t-228 -183q-152 -129 -151 -225q0 -76 88 -76q55 0 129 25l31 -144q-100 -43 -217 -43q-293 0 -293 195q0 131 143 235q-145 2 -232 30q-87 27 -162 97
t-104 163t-26 280v915z" />
    <glyph glyph-name="uogonek" unicode="&#x173;" horiz-adv-x="1150" 
d="M1014 1061v-1061q-96 -72 -137 -122t-41 -95q0 -74 88 -74q55 0 129 25l30 -144q-102 -43 -219 -43q-289 0 -289 191q0 162 234 268l-35 82q-43 -59 -104 -85t-164 -26q-270 0 -344 205q-31 84 -31 273v606h299v-572q0 -141 32 -199t110 -58t110 62q33 64 33 216v551h299
z" />
    <glyph glyph-name="Wcircumflex" unicode="&#x174;" horiz-adv-x="1910" 
d="M956 1745l-112 -156h-279l281 320h219l281 -320h-279zM410 0l-373 1462h315l215 -1042l267 1042h243l266 -1042l218 1042h315l-375 -1462h-282l-263 965l-262 -965h-284z" />
    <glyph glyph-name="wcircumflex" unicode="&#x175;" horiz-adv-x="1599" 
d="M801 1343l-113 -155h-278l280 319h219l281 -319h-279zM356 0l-311 1061h303l152 -703l194 703h213l195 -703l151 703h303l-311 -1061h-256l-188 614l-187 -614h-258z" />
    <glyph glyph-name="Ycircumflex" unicode="&#x176;" horiz-adv-x="1122" 
d="M561 1745l-112 -156h-279l281 320h219l280 -320h-278zM408 0v526l-451 936h334l274 -624l275 624h334l-451 -936v-526h-315z" />
    <glyph glyph-name="ycircumflex" unicode="&#x177;" horiz-adv-x="1050" 
d="M524 1343l-112 -155h-279l281 319h219l280 -319h-278zM92 -471v242q131 -3 172 29t86 165l21 62l-351 1034h302l204 -715l197 715h303l-369 -1118q-66 -188 -110 -255q-45 -66 -79 -90q-73 -50 -211 -64q-62 -5 -165 -5z" />
    <glyph glyph-name="Ydieresis" unicode="&#x178;" horiz-adv-x="1122" 
d="M637 1591v275h264v-275h-264zM221 1591v275h264v-275h-264zM408 0v526l-451 936h334l274 -624l275 624h334l-451 -936v-526h-315z" />
    <glyph glyph-name="Zacute" unicode="&#x179;" horiz-adv-x="1171" 
d="M469 1587l172 324h332l-281 -324h-223zM109 0v207l583 999h-555v256h912v-207l-586 -999h614v-256h-968z" />
    <glyph glyph-name="zacute" unicode="&#x17a;" horiz-adv-x="993" 
d="M379 1186l172 323h332l-281 -323h-223zM66 0v186l434 635h-398v240h766v-189l-434 -632h465v-240h-833z" />
    <glyph glyph-name="Zdotaccent" unicode="&#x17b;" horiz-adv-x="1171" 
d="M467 1591v275h289v-275h-289zM109 0v207l583 999h-555v256h912v-207l-586 -999h614v-256h-968z" />
    <glyph glyph-name="zdotaccent" unicode="&#x17c;" horiz-adv-x="993" 
d="M362 1190v274h289v-274h-289zM66 0v186l434 635h-398v240h766v-189l-434 -632h465v-240h-833z" />
    <glyph glyph-name="Zcaron" unicode="&#x17d;" horiz-adv-x="1171" 
d="M631 1747l110 156h279l-281 -320h-217l-282 320h278zM109 0v207l583 999h-555v256h912v-207l-586 -999h614v-256h-968z" />
    <glyph glyph-name="zcaron" unicode="&#x17e;" horiz-adv-x="993" 
d="M516 1346l111 155h278l-280 -319h-217l-283 319h278zM66 0v186l434 635h-398v240h766v-189l-434 -632h465v-240h-833z" />
    <glyph glyph-name="Ohorn" unicode="&#x1a0;" horiz-adv-x="1462" 
d="M924 586v291q0 199 -52 277t-187 77q-134 0 -186 -77t-53 -277v-291q0 -199 52 -277t187 -78t187 77t52 278zM1239 903v-344q0 -166 -28 -264q-29 -98 -99 -173t-170 -110t-262 -35t-270 41t-179 134q-100 127 -100 407v344q0 166 28 264q29 98 99 173t170 110t286 35
q389 0 492 -303q88 63 88 151t-43 154h258q18 -49 19 -105q0 -150 -121 -252q-61 -53 -174 -114l4 -37q2 -31 2 -76z" />
    <glyph glyph-name="ohorn" unicode="&#x1a1;" horiz-adv-x="1265" 
d="M743 473v115q0 141 -38 200q-39 60 -131 60t-130 -60q-39 -60 -38 -200v-115q0 -139 38 -199q39 -59 130 -59t131 59q38 60 38 199zM1321 977q1 -111 -63 -192t-220 -167q4 -27 4 -63v-104q0 -252 -110 -363t-358 -111t-358 111t-110 363v159q0 252 110 364t357 111
q197 1 306 -69t145 -219q63 63 63 139t-43 149h259q18 -55 18 -108z" />
    <glyph glyph-name="Uhorn" unicode="&#x1af;" horiz-adv-x="1552" 
d="M158 1462h315v-915q0 -160 29 -216q28 -56 72 -78t127 -22t128 26t70 84t25 206v915h315v-319q84 39 119 84t35 119t-43 141h258q18 -53 18 -126q0 -152 -188 -284q-59 -39 -199 -112v-418q0 -166 -19 -252t-81 -163q-125 -155 -453 -155t-457 195q-41 61 -56 143
t-15 232v915z" />
    <glyph glyph-name="uhorn" unicode="&#x1b0;" horiz-adv-x="1339" 
d="M131 1061h299v-572q0 -141 32 -199t110 -58t112 62q33 64 33 216v551h299v-322q84 39 119 84t35 118t-44 144h258q18 -55 19 -108q0 -176 -189 -303q-57 -39 -198 -113v-561h-201l-39 88q-43 -59 -105 -85t-165 -26q-270 0 -344 205q-31 84 -31 273v606z" />
    <glyph glyph-name="uni01C4" unicode="&#x1c4;" horiz-adv-x="2459" 
d="M1909 1747l112 156h279l-283 -320h-217l-282 320h280zM1397 0v207l583 999h-555v256h912v-207l-586 -999h614v-256h-968zM479 250h137q178 -2 242 68q63 71 66 278v270q-2 207 -66 278t-242 68h-137v-962zM164 0v1462h510q297 4 435 -135t130 -436v-320q8 -297 -130 -435
t-435 -136h-510z" />
    <glyph glyph-name="uni01C5" unicode="&#x1c5;" horiz-adv-x="2326" 
d="M1845 1346l111 155h278l-280 -319h-217l-283 319h279zM1399 0v186l436 635h-397v240h766v-189l-435 -632h463v-240h-833zM479 250h137q178 -2 242 68q63 71 66 278v270q-2 207 -66 278t-242 68h-137v-962zM164 0v1462h510q297 4 435 -135t130 -436v-320q8 -297 -130 -435
t-435 -136h-510z" />
    <glyph glyph-name="uni01C6" unicode="&#x1c6;" horiz-adv-x="2156" 
d="M1677 1346l113 155h278l-280 -319h-219l-281 319h279zM1231 0v186l434 635h-397v240h766v-189l-435 -632h463v-240h-831zM403 586v-109q0 -137 39 -199t123 -63q162 0 162 203v227q0 203 -162 203q-84 0 -123 -62t-39 -200zM491 -23q-198 0 -291 112t-94 366v153
q0 250 94 364t302 113q123 0 225 -61v438h299v-1462h-229l-19 66q-89 -89 -287 -89z" />
    <glyph glyph-name="uni01C7" unicode="&#x1c7;" horiz-adv-x="1763" 
d="M1284 1462h315v-1362q0 -186 -11 -271t-42 -146q-100 -184 -375 -185q-129 0 -258 49l109 232q55 -27 106 -27q111 0 142 115q14 66 14 229v1366zM164 0v1462h315v-1206h617v-256h-932z" />
    <glyph glyph-name="uni01C8" unicode="&#x1c8;" horiz-adv-x="1710" 
d="M1270 1061h299v-1012q1 -164 -19 -261q-42 -198 -244 -241q-99 -20 -270 -18v242q133 -4 185 50q51 54 49 199v1041zM1270 1198v281h299v-281h-299zM164 0v1462h315v-1206h617v-256h-932z" />
    <glyph glyph-name="uni01C9" unicode="&#x1c9;" horiz-adv-x="1236" 
d="M797 1061h299v-1012q4 -219 -41 -328t-157 -151t-337 -41v242q135 -4 187 50q51 54 49 199v1041zM797 1198v281h299v-281h-299zM135 1462h299v-1007q0 -125 39 -170t145 -43h31v-242h-43q-289 0 -380 94t-91 391v977z" />
    <glyph glyph-name="uni01CA" unicode="&#x1ca;" horiz-adv-x="2101" 
d="M1622 1462h315v-1362q0 -186 -11 -271t-42 -146q-100 -184 -375 -185q-129 0 -258 49l109 232q55 -27 106 -27q111 0 142 115q14 66 14 229v1366zM164 0v1462h305l518 -936v936h305v-1462h-305l-518 936v-936h-305z" />
    <glyph glyph-name="uni01CB" unicode="&#x1cb;" horiz-adv-x="2048" 
d="M1608 1198v281h299v-281h-299zM1608 1061h299v-1012q1 -164 -19 -261q-42 -198 -244 -241q-99 -20 -270 -18v242q133 -4 185 50q51 54 49 199v1041zM164 0v1462h305l518 -936v936h305v-1462h-305l-518 936v-936h-305z" />
    <glyph glyph-name="uni01CC" unicode="&#x1cc;" horiz-adv-x="1763" 
d="M1323 1198v281h299v-281h-299zM1323 1061h299v-1012q2 -164 -18 -261q-41 -198 -245 -241q-99 -20 -269 -18v242q133 -4 184 50t49 199v1041zM137 0v1061h223l25 -80q98 104 279 104q270 0 348 -204q31 -82 30 -275v-606h-299v571q0 141 -33 201q-34 59 -119 59t-120 -62
t-35 -218v-551h-299z" />
    <glyph glyph-name="uni01CD" unicode="&#x1cd;" horiz-adv-x="1275" 
d="M639 1747l111 156h278l-280 -320h-218l-282 320h278zM821 524l-178 570l-182 -570h360zM897 274h-512l-86 -274h-340l528 1462h306l530 -1462h-342z" />
    <glyph glyph-name="uni01CE" unicode="&#x1ce;" horiz-adv-x="1097" 
d="M551 1346l111 155h278l-281 -319h-217l-282 319h278zM668 453h-158q-82 0 -118 -30q-36 -29 -36 -99t35 -97t123 -27t121 36q33 35 33 131v86zM668 649v35q0 164 -156 164q-117 0 -199 -103l-204 144q137 197 436 197t385 -191q37 -82 37 -266v-629h-234l-18 55
q-92 -78 -284 -78q-191 0 -273 77q-82 76 -82 264t86 260t311 71h195z" />
    <glyph glyph-name="uni01CF" unicode="&#x1cf;" horiz-adv-x="643" 
d="M322 1747l110 156h279l-281 -320h-217l-283 320h279zM164 0v1462h315v-1462h-315z" />
    <glyph glyph-name="uni01D0" unicode="&#x1d0;" horiz-adv-x="579" 
d="M291 1346l110 155h279l-281 -319h-217l-282 319h278zM141 0v1061h299v-1061h-299z" />
    <glyph glyph-name="uni01D1" unicode="&#x1d1;" horiz-adv-x="1368" 
d="M686 1747l111 156h278l-280 -320h-217l-283 320h278zM926 586v291q0 201 -52 277t-189 77q-136 0 -188 -77t-53 -277v-291q0 -201 52 -278t189 -77t189 77t52 278zM131 559v344q0 166 28 264q29 98 99 173t170 110t262 35t270 -41t179 -133q100 -129 100 -408v-344
q0 -166 -28 -264q-29 -98 -99 -173t-170 -110t-262 -35t-270 41t-179 134q-100 126 -100 407z" />
    <glyph glyph-name="uni01D2" unicode="&#x1d2;" horiz-adv-x="1146" 
d="M575 1346l111 155h279l-281 -319h-217l-283 319h279zM743 473v115q0 141 -38 200q-39 60 -131 60t-130 -60q-39 -60 -38 -200v-115q0 -139 38 -199q39 -59 130 -59t131 59q38 60 38 199zM106 451v159q0 252 111 364t359 112t357 -112q110 -112 109 -364v-159
q0 -252 -110 -363t-358 -111t-358 111t-110 363z" />
    <glyph glyph-name="uni01D3" unicode="&#x1d3;" horiz-adv-x="1396" 
d="M698 1747l111 156h278l-280 -320h-217l-283 320h279zM158 1462h315v-915q0 -160 29 -216q28 -56 72 -78t127 -22t128 26t70 84t25 206v915h315v-915q0 -166 -19 -252t-81 -163q-125 -155 -453 -155t-457 195q-41 61 -56 143t-15 232v915z" />
    <glyph glyph-name="uni01D4" unicode="&#x1d4;" horiz-adv-x="1150" 
d="M578 1346l110 155h279l-281 -319h-217l-283 319h279zM131 1061h299v-572q0 -141 32 -199t110 -58t110 62q33 64 33 216v551h299v-1061h-201l-39 88q-43 -59 -104 -85t-164 -26q-270 0 -344 205q-31 84 -31 273v606z" />
    <glyph glyph-name="Gcaron" unicode="&#x1e6;" horiz-adv-x="1347" 
d="M676 1747l110 156h279l-281 -320h-217l-282 320h278zM705 580v239h532v-252q0 -162 -22 -253t-78 -162q-139 -174 -455 -174t-453 176q-53 70 -75 164t-23 251v318q0 170 28 270t93 172q138 152 408 152q270 -1 397 -107t137 -327l-289 -21q-12 102 -66 152t-173 49
q-119 0 -169 -79t-51 -284v-270q0 -207 50 -285t182 -78q131 -1 188 63t58 204v82h-219z" />
    <glyph glyph-name="gcaron" unicode="&#x1e7;" horiz-adv-x="1163" 
d="M608 1346l111 155h278l-280 -319h-217l-283 319h279zM403 586v-109q0 -139 38 -201t124 -61q160 0 160 203v227q0 203 -162 203q-84 0 -122 -62t-38 -200zM106 608q0 252 94 365t304 112q166 0 262 -84l29 60h229v-1020q0 -256 -100 -377q-123 -147 -385 -147
q-299 0 -414 219l221 123q37 -63 77 -88t105 -25q102 0 149 61q46 62 48 199v29q-88 -57 -225 -58q-207 0 -300 113t-94 365v153z" />
    <glyph glyph-name="uni01EA" unicode="&#x1ea;" horiz-adv-x="1368" 
d="M934 586v291q0 199 -52 277t-186 77q-134 0 -187 -77q-52 -77 -52 -277v-291q0 -199 52 -277t186 -78t187 77q52 77 52 278zM1249 903v-344q3 -225 -69 -357t-234 -194q-147 -119 -147 -223q0 -76 88 -76q55 0 127 25l33 -144q-100 -43 -220 -43q-291 0 -290 195
q0 131 137 235q-547 2 -533 582v344q0 166 28 264q29 98 99 173t170 110t261 35t270 -41t180 -133q100 -129 100 -408z" />
    <glyph glyph-name="uni01EB" unicode="&#x1eb;" horiz-adv-x="1146" 
d="M745 473v115q0 141 -38 200q-39 60 -130 60t-131 -60t-38 -200v-115q0 -139 38 -199q38 -59 130 -59t131 59q38 60 38 199zM1044 610v-159q0 -179 -51 -281t-166 -152q-150 -121 -149 -233q0 -76 88 -76q57 0 129 25l33 -144q-102 -43 -219 -43q-291 0 -291 193
q0 70 29 123q30 53 102 114q-236 8 -339 119t-101 355v159q0 252 110 364q111 112 359 112t357 -112t109 -364z" />
    <glyph glyph-name="uni01F1" unicode="&#x1f1;" horiz-adv-x="2459" 
d="M1397 0v207l583 999h-555v256h912v-207l-586 -999h614v-256h-968zM479 250h137q178 -2 242 68q63 71 66 278v270q-2 207 -66 278t-242 68h-137v-962zM164 0v1462h510q297 4 435 -135t130 -436v-320q8 -297 -130 -435t-435 -136h-510z" />
    <glyph glyph-name="uni01F2" unicode="&#x1f2;" horiz-adv-x="2322" 
d="M1397 0v186l434 635h-397v240h766v-189l-435 -632h465v-240h-833zM479 250h137q178 -2 242 68q63 71 66 278v270q-2 207 -66 278t-242 68h-137v-962zM164 0v1462h510q297 4 435 -135t130 -436v-320q8 -297 -130 -435t-435 -136h-510z" />
    <glyph glyph-name="uni01F3" unicode="&#x1f3;" horiz-adv-x="2156" 
d="M1231 0v186l434 635h-397v240h766v-189l-435 -632h463v-240h-831zM403 586v-109q0 -137 39 -199t123 -63q162 0 162 203v227q0 203 -162 203q-84 0 -123 -62t-39 -200zM491 -23q-198 0 -291 112t-94 366v153q0 250 94 364t302 113q123 0 225 -61v438h299v-1462h-229
l-19 66q-89 -89 -287 -89z" />
    <glyph glyph-name="uni01F4" unicode="&#x1f4;" horiz-adv-x="1347" 
d="M520 1587l172 324h332l-281 -324h-223zM705 580v239h532v-252q0 -162 -22 -253t-78 -162q-139 -174 -455 -174t-453 176q-53 70 -75 164t-23 251v318q0 170 28 270t93 172q138 152 408 152q270 -1 397 -107t137 -327l-289 -21q-12 102 -66 152t-173 49q-119 0 -169 -79
t-51 -284v-270q0 -207 50 -285t182 -78q131 -1 188 63t58 204v82h-219z" />
    <glyph glyph-name="uni01F5" unicode="&#x1f5;" horiz-adv-x="1163" 
d="M426 1186l172 323h332l-281 -323h-223zM403 586v-109q0 -139 38 -201t124 -61q160 0 160 203v227q0 203 -162 203q-84 0 -122 -62t-38 -200zM106 608q0 252 94 365t304 112q166 0 262 -84l29 60h229v-1020q0 -256 -100 -377q-123 -147 -385 -147q-299 0 -414 219l221 123
q37 -63 77 -88t105 -25q102 0 149 61q46 62 48 199v29q-88 -57 -225 -58q-207 0 -300 113t-94 365v153z" />
    <glyph glyph-name="Aringacute" unicode="&#x1fa;" horiz-adv-x="1275" 
d="M528 1845l117 266h318l-258 -266h-177zM729 1568q0 106 -91 107q-91 0 -91 -106t90 -107q92 0 92 106zM821 524l-178 570l-182 -570h360zM367 1569q-1 113 73 177t198 64t198 -64t74 -176q0 -110 -89 -184l502 -1386h-342l-84 274h-512l-86 -274h-340l500 1382
q-92 74 -92 187z" />
    <glyph glyph-name="aringacute" unicode="&#x1fb;" horiz-adv-x="1097" 
d="M440 1681l117 267h317l-256 -267h-178zM550 1489q-91 1 -91 -105t91 -106t91 106t-91 105zM550 1624q124 0 198 -66t74 -173t-76 -175t-196 -68t-196 68t-76 176t74 174q74 64 198 64zM668 453h-158q-82 0 -118 -30q-36 -29 -36 -99t35 -97t123 -27t121 36q33 35 33 131
v86zM668 649v35q0 164 -156 164q-117 0 -199 -103l-204 144q137 197 436 197t385 -191q37 -82 37 -266v-629h-234l-18 55q-92 -78 -284 -78q-191 0 -273 77q-82 76 -82 264t86 260t311 71h195z" />
    <glyph glyph-name="AEacute" unicode="&#x1fc;" horiz-adv-x="1972" 
d="M1161 1587l172 324h332l-281 -324h-223zM948 561v645h-12l-381 -645h393zM948 309h-536l-183 -309h-364l932 1462h1073v-256h-613v-340h519v-256h-519v-354h621v-256h-930v309z" />
    <glyph glyph-name="aeacute" unicode="&#x1fd;" horiz-adv-x="1697" 
d="M690 1186l172 323h332l-281 -323h-223zM975 657h352v25q0 90 -46 138t-130 48t-130 -49t-46 -137v-25zM670 453h-158q-82 0 -118 -30q-36 -31 -36 -99t35 -96t123 -28t121 39q33 38 33 140v74zM1608 455h-631v-27q0 -221 197 -221q137 0 208 112l220 -124
q-66 -113 -172 -165t-275 -53q-229 0 -340 119q-104 -119 -373 -119q-200 0 -282 76q-82 75 -82 265t85 261t312 70h195v35q0 164 -158 164q-113 -1 -197 -103l-204 144q135 197 424 196q199 0 299 -100q57 55 130 78t193 22q240 1 345 -123t106 -405v-102z" />
    <glyph glyph-name="Oslashacute" unicode="&#x1fe;" horiz-adv-x="1368" 
d="M528 1587l172 324h332l-280 -324h-224zM671 1231q-120 0 -172 -78t-53 -276v-283l398 592q-53 45 -173 45zM699 231q120 0 172 78t53 277v280l-396 -590q51 -45 171 -45zM1239 903v-344q0 -166 -28 -264q-29 -98 -99 -173t-171 -110t-283 -35t-291 60l-70 -105l-201 140
l97 143q-35 75 -49 147t-13 197v344q0 166 28 264q29 98 99 173t171 110t285 35t290 -62l69 105l201 -139l-94 -142q59 -129 59 -344z" />
    <glyph glyph-name="oslashacute" unicode="&#x1ff;" horiz-adv-x="1146" 
d="M414 1186l172 323h332l-281 -323h-223zM558 848q-155 0 -155 -260v-139l271 370q-41 29 -116 29zM586 215q156 0 157 260v141l-270 -372q37 -29 113 -29zM1040 453q0 -254 -108 -365t-359 -111q-160 0 -262 46l-59 -82l-139 108l63 86q-72 104 -72 318v157q0 252 110 364
t357 111q166 0 263 -45l59 80l139 -106l-63 -86q72 -102 71 -318v-157z" />
    <glyph glyph-name="uni0200" unicode="&#x200;" horiz-adv-x="1275" 
d="M586 1587h-205l-244 324h314zM950 1587h-207l-241 324h313zM821 524l-178 570l-182 -570h360zM897 274h-512l-86 -274h-340l528 1462h306l530 -1462h-342z" />
    <glyph glyph-name="uni0201" unicode="&#x201;" horiz-adv-x="1097" 
d="M496 1186h-205l-244 323h313zM860 1186h-207l-241 323h313zM645 453h-158q-81 0 -117 -30q-36 -29 -36 -99t35 -97t129 -27t127 52q20 29 20 115v86zM645 649v35q0 164 -156 164q-115 0 -198 -103l-205 144q139 197 437 197t384 -191q37 -82 37 -266v-629h-233l-19 55
q-92 -78 -284 -78t-273 77q-82 76 -82 264t85 260t313 71h194z" />
    <glyph glyph-name="uni0202" unicode="&#x202;" horiz-adv-x="1275" 
d="M648 1927q249 0 321 -153q24 -54 30 -189h-182q-14 76 -51 103q-37 26 -127 26t-128 -26t-50 -103h-185q8 150 43 211q80 131 329 131zM821 524l-178 570l-182 -570h360zM897 274h-512l-86 -274h-340l528 1462h306l530 -1462h-342z" />
    <glyph glyph-name="uni0203" unicode="&#x203;" horiz-adv-x="1097" 
d="M551 1313q-90 0 -128 -28t-50 -101h-185q8 150 43 211q80 131 329 131t321 -154q24 -51 30 -188h-182q-14 76 -51 102t-127 27zM668 453h-158q-82 0 -118 -30q-36 -29 -36 -99t35 -97t123 -27t121 36q33 35 33 131v86zM668 649v35q0 164 -156 164q-117 0 -199 -103
l-204 144q137 197 436 197t385 -191q37 -82 37 -266v-629h-234l-18 55q-92 -78 -284 -78q-191 0 -273 77q-82 76 -82 264t86 260t311 71h195z" />
    <glyph glyph-name="uni0204" unicode="&#x204;" horiz-adv-x="1191" 
d="M571 1587h-204l-244 324h313zM936 1587h-207l-242 324h314zM150 0v1462h923v-256h-612v-340h518v-256h-518v-354h620v-256h-931z" />
    <glyph glyph-name="uni0205" unicode="&#x205;" horiz-adv-x="1128" 
d="M526 1186h-204l-244 323h313zM891 1186h-207l-242 323h314zM389 657h352v25q0 90 -46 138t-130 48t-130 -49t-46 -137v-25zM391 455v-27q0 -221 199 -221q137 0 207 112l219 -124q-68 -117 -174 -167t-287 -51q-247 0 -355 119t-108 393v68q0 283 109 406t357 123
t356 -124q108 -122 108 -405v-102h-631z" />
    <glyph glyph-name="uni0206" unicode="&#x206;" horiz-adv-x="1191" 
d="M636 1927q249 0 320 -153q25 -54 31 -189h-182q-14 76 -51 103q-37 26 -127 26t-128 -26t-50 -103h-185q8 150 43 211q80 131 329 131zM166 0v1462h924v-256h-613v-340h518v-256h-518v-354h621v-256h-932z" />
    <glyph glyph-name="uni0207" unicode="&#x207;" horiz-adv-x="1128" 
d="M571 1313q-90 0 -128 -28t-50 -101h-184q8 150 43 211q80 131 328 131t321 -154q25 -51 31 -188h-182q-14 76 -52 102t-127 27zM403 657h353v25q0 90 -46 138t-130 48t-130 -49t-47 -137v-25zM406 455v-27q0 -221 196 -221q139 0 209 112l219 -124q-68 -117 -174 -167
t-287 -51q-247 0 -355 119t-108 393v68q0 266 89 379q111 150 367 150t366 -124q109 -122 108 -405v-102h-630z" />
    <glyph glyph-name="uni0208" unicode="&#x208;" horiz-adv-x="643" 
d="M268 1587h-205l-243 324h313zM633 1587h-207l-242 324h314zM164 0v1462h315v-1462h-315z" />
    <glyph glyph-name="uni0209" unicode="&#x209;" horiz-adv-x="579" 
d="M238 1186h-205l-244 323h313zM602 1186h-207l-241 323h313zM141 0v1061h299v-1061h-299z" />
    <glyph glyph-name="uni020A" unicode="&#x20a;" horiz-adv-x="643" 
d="M333 1927q249 0 320 -153q25 -54 31 -189h-182q-14 76 -51 103q-37 26 -127 26t-128 -26t-51 -103h-184q8 150 43 211q80 131 329 131zM166 0v1462h315v-1462h-315z" />
    <glyph glyph-name="uni020B" unicode="&#x20b;" horiz-adv-x="579" 
d="M291 1313q-90 0 -128 -28t-50 -101h-185q8 150 43 211q80 131 329 131t321 -154q24 -51 30 -188h-182q-14 76 -51 102t-127 27zM141 0v1061h299v-1061h-299z" />
    <glyph glyph-name="uni020C" unicode="&#x20c;" horiz-adv-x="1368" 
d="M631 1587h-205l-244 324h314zM995 1587h-207l-241 324h313zM924 586v291q0 199 -52 277t-187 77q-134 0 -186 -77t-53 -277v-291q0 -199 52 -277t187 -78t187 77t52 278zM131 559v344q0 166 28 264q29 98 99 173t170 110t261 35t269 -41t181 -133q100 -129 100 -408v-344
q0 -166 -28 -264q-29 -98 -99 -173t-170 -110t-262 -35t-270 41t-179 134q-100 126 -100 407z" />
    <glyph glyph-name="uni020D" unicode="&#x20d;" horiz-adv-x="1146" 
d="M508 1186h-205l-244 323h314zM872 1186h-206l-242 323h313zM729 473v115q0 141 -39 200q-39 60 -130 60t-130 -60t-39 -200v-115q0 -139 39 -199t130 -59q91 -1 130 59t39 199zM92 451v159q0 252 111 364t359 112t357 -112q110 -112 109 -364v-159q0 -252 -110 -363
t-358 -111t-358 111t-110 363z" />
    <glyph glyph-name="uni020E" unicode="&#x20e;" horiz-adv-x="1368" 
d="M696 1927q248 0 320 -153q25 -54 31 -189h-183q-14 76 -51 103q-37 26 -127 26t-128 -26t-50 -103h-184q8 150 43 211q81 131 329 131zM924 586v291q0 199 -52 277t-187 77q-134 0 -186 -77t-53 -277v-291q0 -199 52 -277t187 -78t187 77t52 278zM131 559v344
q0 166 28 264q29 98 99 173t170 110t261 35t269 -41t181 -133q100 -129 100 -408v-344q0 -166 -28 -264q-29 -98 -99 -173t-170 -110t-262 -35t-270 41t-179 134q-100 126 -100 407z" />
    <glyph glyph-name="uni020F" unicode="&#x20f;" horiz-adv-x="1146" 
d="M575 1313q-90 0 -128 -28t-50 -101h-184q8 150 43 211q80 131 328 131t321 -154q25 -51 31 -188h-182q-14 76 -52 102t-127 27zM743 473v115q0 141 -38 200q-39 60 -131 60t-130 -60q-39 -60 -38 -200v-115q0 -139 38 -199q39 -59 130 -59t131 59q38 60 38 199zM106 451
v159q0 252 111 364t359 112t357 -112q110 -112 109 -364v-159q0 -252 -110 -363t-358 -111t-358 111t-110 363z" />
    <glyph glyph-name="uni0210" unicode="&#x210;" horiz-adv-x="1312" 
d="M559 1587h-205l-243 324h313zM924 1587h-207l-242 324h313zM467 823h219q109 0 155 44q46 45 46 151t-46 150t-159 44h-215v-389zM473 582v-582h-315v1462h555q147 0 234 -24q251 -71 251 -406q0 -188 -61 -286t-203 -140l315 -606h-348l-274 582h-154z" />
    <glyph glyph-name="uni0211" unicode="&#x211;" horiz-adv-x="817" 
d="M373 1186h-205l-244 323h314zM737 1186h-207l-241 323h313zM137 0v1061h228l38 -68q55 53 99 73t104 19q111 0 238 -71l-129 -244q-74 59 -144 59q-71 -1 -103 -75t-32 -244v-510h-299z" />
    <glyph glyph-name="uni0212" unicode="&#x212;" horiz-adv-x="1312" 
d="M628 1927q248 0 320 -153q25 -54 31 -189h-182q-13 76 -51 103q-38 26 -128 26t-128 -26t-50 -103h-184q8 150 43 211q81 131 329 131zM475 823h219q109 0 155 44q46 45 46 151t-46 150t-159 44h-215v-389zM481 582v-582h-315v1462h555q147 0 234 -24q251 -71 251 -406
q0 -188 -61 -286t-203 -140l315 -606h-348l-274 582h-154z" />
    <glyph glyph-name="uni0213" unicode="&#x213;" horiz-adv-x="817" 
d="M440 1313q-90 0 -128 -28t-50 -101h-184q8 150 43 211q81 131 329 131t320 -154q25 -51 31 -188h-183q-14 76 -51 102t-127 27zM137 0v1061h228l38 -68q55 53 99 73t104 19q111 0 238 -71l-129 -244q-74 59 -144 59q-71 -1 -103 -75t-32 -244v-510h-299z" />
    <glyph glyph-name="uni0214" unicode="&#x214;" horiz-adv-x="1396" 
d="M645 1587h-205l-243 324h313zM1010 1587h-207l-242 324h313zM158 1462h315v-915q0 -160 29 -216q28 -56 72 -78t127 -22t128 26t70 84t25 206v915h315v-915q0 -166 -19 -252t-81 -163q-125 -155 -453 -155t-457 195q-41 61 -56 143t-15 232v915z" />
    <glyph glyph-name="uni0215" unicode="&#x215;" horiz-adv-x="1150" 
d="M518 1186h-205l-243 323h313zM883 1186h-207l-242 323h314zM125 1061h299v-572q0 -141 32 -199t110 -58t112 62q33 64 33 216v551h299v-1061h-201l-39 88q-43 -59 -105 -85t-165 -26q-270 0 -344 205q-31 84 -31 273v606z" />
    <glyph glyph-name="uni0216" unicode="&#x216;" horiz-adv-x="1396" 
d="M708 1927q248 0 320 -153q25 -54 31 -189h-182q-13 76 -51 103q-38 26 -128 26t-128 -26t-50 -103h-184q8 150 43 211q81 131 329 131zM158 1462h315v-915q0 -160 29 -216q28 -56 72 -78t127 -22t128 26t70 84t25 206v915h315v-915q0 -166 -19 -252t-81 -163
q-125 -155 -453 -155t-457 195q-41 61 -56 143t-15 232v915z" />
    <glyph glyph-name="uni0217" unicode="&#x217;" horiz-adv-x="1150" 
d="M578 1313q-90 0 -128 -28t-51 -101h-184q8 150 43 211q80 131 328 131t321 -154q25 -51 31 -188h-182q-14 76 -51 102t-127 27zM131 1061h299v-572q0 -141 32 -199t110 -58t110 62q33 64 33 216v551h299v-1061h-201l-39 88q-43 -59 -104 -85t-164 -26q-270 0 -344 205
q-31 84 -31 273v606z" />
    <glyph glyph-name="Scommaaccent" unicode="&#x218;" horiz-adv-x="1175" 
d="M358 -498l101 373h282l-182 -373h-201zM584 231q228 0 227 175q0 122 -123 158q-31 9 -182 48q-226 58 -322 158t-96 296t129 308t369 111q348 0 487 -238l-233 -149q-94 135 -262 135q-90 0 -140 -43t-49 -123q0 -80 57 -124t207 -82t205 -58t111 -55q143 -98 143 -322
t-121 -332q-137 -119 -399 -119t-422 99q-86 55 -147 159l239 152q94 -154 322 -154z" />
    <glyph glyph-name="scommaaccent" unicode="&#x219;" horiz-adv-x="1017" 
d="M270 -498l101 373h282l-182 -373h-201zM487 1085q303 0 433 -219l-222 -125q-37 63 -77 87q-41 24 -113 24q-137 0 -137 -102q0 -47 33 -67q34 -19 128 -28q240 -23 325 -93t85 -244q0 -175 -111 -258t-346 -83q-342 1 -448 218l219 124q41 -67 86 -89t131 -21
q188 0 189 115q0 43 -28 63q-28 19 -133 31t-159 22t-106 35q-146 68 -146 249t104 271t293 90z" />
    <glyph glyph-name="uni021A" unicode="&#x21a;" horiz-adv-x="1138" 
d="M338 -498l100 373h283l-182 -373h-201zM412 0v1206h-389v256h1091v-256h-387v-1206h-315z" />
    <glyph glyph-name="uni021B" unicode="&#x21b;" horiz-adv-x="720" 
d="M178 -498l101 373h282l-182 -373h-201zM162 825h-115v236h115l18 299h281v-299h211v-236h-211v-370q0 -125 39 -170t145 -43h25v-242h-35q-297 0 -386 91t-87 394v340z" />
    <glyph glyph-name="uni0226" unicode="&#x226;" horiz-adv-x="1275" 
d="M494 1591v275h288v-275h-288zM821 524l-178 570l-182 -570h360zM897 274h-512l-86 -274h-340l528 1462h306l530 -1462h-342z" />
    <glyph glyph-name="uni0227" unicode="&#x227;" horiz-adv-x="1097" 
d="M424 1190v274h289v-274h-289zM668 453h-158q-82 0 -118 -30q-36 -29 -36 -99t35 -97t123 -27t121 36q33 35 33 131v86zM668 649v35q0 164 -156 164q-117 0 -199 -103l-204 144q137 197 436 197t385 -191q37 -82 37 -266v-629h-234l-18 55q-92 -78 -284 -78
q-191 0 -273 77q-82 76 -82 264t86 260t311 71h195z" />
    <glyph glyph-name="uni0237" unicode="&#x237;" horiz-adv-x="591" 
d="M152 1061h299v-1012q4 -219 -41 -328t-157 -151t-337 -41v242q135 -4 186 50t50 199v1041z" />
    <glyph glyph-name="afii57929" unicode="&#x2bc;" horiz-adv-x="471" 
d="M47 918l66 544h311l-123 -544h-254z" />
    <glyph glyph-name="uni02C0" unicode="&#x2c0;" horiz-adv-x="1024" 
d="M512 1833q0 35 -43 35t-121 -37l-47 164q125 39 225 39t163 -49q62 -49 63 -138q0 -45 -14 -69t-68 -82q-23 -28 -29 -48t-8 -73h-201q2 100 10 131t52 84q18 25 18 43z" />
    <glyph glyph-name="circumflex" unicode="&#x2c6;" horiz-adv-x="1024" 
d="M512 1343l-113 -155h-278l280 319h220l280 -319h-278z" />
    <glyph glyph-name="caron" unicode="&#x2c7;" horiz-adv-x="1024" 
d="M512 1346l111 155h278l-280 -319h-218l-282 319h278z" />
    <glyph glyph-name="uni02C9" unicode="&#x2c9;" horiz-adv-x="1024" 
d="M180 1227v211h664v-211h-664z" />
    <glyph glyph-name="breve" unicode="&#x2d8;" horiz-adv-x="1024" 
d="M512 1376q90 0 128 27t50 102h182q-4 -150 -43 -211q-79 -131 -327 -131t-322 154q-24 51 -30 188h184q12 -77 50 -103t128 -26z" />
    <glyph glyph-name="dotaccent" unicode="&#x2d9;" horiz-adv-x="1024" 
d="M367 1190v274h288v-274h-288z" />
    <glyph glyph-name="ring" unicode="&#x2da;" horiz-adv-x="1024" 
d="M602 1406q0 106 -91 105q-91 0 -91 -105t90 -106q92 0 92 106zM511 1647q124 0 198 -66q73 -65 73 -173t-74 -176t-196 -67q-121 0 -197 68q-75 69 -75 177t74 172t197 65z" />
    <glyph glyph-name="ogonek" unicode="&#x2db;" horiz-adv-x="1024" 
d="M702 -291q57 0 127 25l33 -144q-102 -43 -231 -43q-129 -1 -204 49t-75 134t51 146t168 124h220q-176 -133 -177 -217q0 -74 88 -74z" />
    <glyph glyph-name="tilde" unicode="&#x2dc;" horiz-adv-x="1024" 
d="M385 1509q91 0 153 -52t76 -61t33 -10q51 0 66 109h180q-20 -135 -41 -188q-55 -131 -203 -131q-97 0 -165 61t-96 61t-50 -30t-29 -78h-178q27 141 53 190q66 129 201 129z" />
    <glyph glyph-name="hungarumlaut" unicode="&#x2dd;" horiz-adv-x="1024" 
d="M565 1186l135 323h314l-244 -323h-205zM201 1186l135 323h313l-241 -323h-207z" />
    <glyph glyph-name="uni0309" unicode="&#x309;" horiz-adv-x="1024" 
d="M432 1178q0 100 9 132t53 85q18 25 18 43q0 35 -41 35t-123 -37l-47 161q119 41 223 41t166 -49q61 -49 62 -137q0 -45 -14 -70t-68 -82q-23 -27 -29 -48t-8 -74h-201z" />
    <glyph glyph-name="uni0312" unicode="&#x312;" horiz-adv-x="1024" 
d="M354 1186l281 323h223l-172 -323h-332z" />
    <glyph glyph-name="uni0313" unicode="&#x313;" horiz-adv-x="262" 
d="M-33 905l72 596h280l-143 -596h-209z" />
    <glyph glyph-name="uni031B" unicode="&#x31b;" horiz-adv-x="262" 
d="M-33 905l72 596h280l-143 -596h-209z" />
    <glyph glyph-name="uni0323" unicode="&#x323;" horiz-adv-x="1024" 
d="M367 -436v274h288v-274h-288z" />
    <glyph glyph-name="uni037E" unicode="&#x37e;" horiz-adv-x="604" 
d="M180 778v287h316v-287h-316zM70 -385l98 668h330l-158 -668h-270z" />
    <glyph glyph-name="uni0387" unicode="&#x387;" horiz-adv-x="604" 
d="M145 580v286h316v-286h-316z" />
    <glyph glyph-name="uni04D4" unicode="&#x4d4;" horiz-adv-x="1972" 
d="M948 561v645h-12l-381 -645h393zM948 309h-536l-183 -309h-364l932 1462h1073v-256h-613v-340h519v-256h-519v-354h621v-256h-930v309z" />
    <glyph glyph-name="uni04D5" unicode="&#x4d5;" horiz-adv-x="1697" 
d="M975 657h352v25q0 90 -46 138t-130 48t-130 -49t-46 -137v-25zM670 453h-158q-82 0 -118 -30q-36 -31 -36 -99t35 -96t123 -28t121 39q33 38 33 140v74zM1608 455h-631v-27q0 -221 197 -221q137 0 208 112l220 -124q-66 -113 -172 -165t-275 -53q-229 0 -340 119
q-104 -119 -373 -119q-200 0 -282 76q-82 75 -82 265t85 261t312 70h195v35q0 164 -158 164q-113 -1 -197 -103l-204 144q135 197 424 196q199 0 299 -100q57 55 130 78t193 22q240 1 345 -123t106 -405v-102z" />
    <glyph glyph-name="uni1E02" unicode="&#x1e02;" horiz-adv-x="1300" 
d="M473 1591v275h289v-275h-289zM477 250h268q92 0 133 43q40 43 40 142t-40 141t-133 42h-268v-368zM477 868h242q94 0 134 40t40 133t-40 133t-134 38h-242v-344zM164 0v1462h577q133 0 210 -20t134 -70q119 -102 119 -307t-123 -301q70 -59 90 -92q59 -94 60 -262
q0 -229 -135 -334q-104 -76 -328 -76h-604z" />
    <glyph glyph-name="uni1E03" unicode="&#x1e03;" horiz-adv-x="1163" 
d="M629 1190v274h289v-274h-289zM760 477v109q0 137 -38 199t-122 63q-162 0 -162 -203v-227q0 -104 39 -154t123 -49t122 63t38 199zM139 0v1462h299v-438q109 61 221 61q211 0 305 -112q93 -113 93 -365v-153q0 -254 -93 -366t-307 -112q-98 1 -153 19t-117 70l-18 -66
h-230z" />
    <glyph glyph-name="uni1E0C" unicode="&#x1e0c;" horiz-adv-x="1370" 
d="M496 -436v274h288v-274h-288zM479 250h137q178 -2 242 68q63 71 66 278v270q-2 207 -66 278t-242 68h-137v-962zM164 0v1462h510q297 4 435 -135t130 -436v-320q8 -297 -130 -435t-435 -136h-510z" />
    <glyph glyph-name="uni1E0D" unicode="&#x1e0d;" horiz-adv-x="1163" 
d="M477 -436v274h289v-274h-289zM403 586v-109q0 -139 38 -201t122 -61q84 0 123 49t39 154v227q0 203 -162 203q-84 0 -122 -62t-38 -200zM506 -23q-213 0 -306 112t-94 366v153q0 250 94 364t300 113q98 0 144 -20t81 -41v438h299v-1462h-229l-19 66l-16 -13
q-86 -76 -254 -76z" />
    <glyph glyph-name="uni1E1E" unicode="&#x1e1e;" horiz-adv-x="1120" 
d="M494 1591v275h288v-275h-288zM166 0v1462h909v-256h-594v-350h496v-256h-496v-600h-315z" />
    <glyph glyph-name="uni1E1F" unicode="&#x1e1f;" horiz-adv-x="720" 
d="M293 1591v275h289v-275h-289zM182 825h-119v236h119v90q0 180 81 248t292 63h131v-219h-68q-90 2 -114 -18t-23 -97v-67h215v-236h-215v-825h-299v825z" />
    <glyph glyph-name="uni1E24" unicode="&#x1e24;" horiz-adv-x="1390" 
d="M549 -436v274h289v-274h-289zM164 0v1462h315v-596h430v596h316v-1462h-316v610h-430v-610h-315z" />
    <glyph glyph-name="uni1E25" unicode="&#x1e25;" horiz-adv-x="1173" 
d="M440 -436v274h289v-274h-289zM137 0v1462h299v-440q66 39 113 51t121 12q264 0 342 -204q31 -82 30 -275v-606h-299v586q0 129 -35 187q-36 58 -117 58t-118 -61t-37 -199v-571h-299z" />
    <glyph glyph-name="uni1E44" unicode="&#x1e44;" horiz-adv-x="1456" 
d="M596 1591v275h289v-275h-289zM164 0v1462h305l518 -936v936h305v-1462h-305l-518 936v-936h-305z" />
    <glyph glyph-name="uni1E45" unicode="&#x1e45;" horiz-adv-x="1173" 
d="M440 1190v274h289v-274h-289zM137 0v1061h223l25 -80q98 104 279 104q270 0 348 -204q31 -82 30 -275v-606h-299v571q0 141 -33 201q-34 59 -119 59t-120 -62t-35 -218v-551h-299z" />
    <glyph glyph-name="uni1E5A" unicode="&#x1e5a;" horiz-adv-x="1312" 
d="M537 -436v274h288v-274h-288zM475 823h219q109 0 155 44q46 45 46 151t-46 150t-159 44h-215v-389zM481 582v-582h-315v1462h555q147 0 234 -24q251 -71 251 -406q0 -188 -61 -286t-203 -140l315 -606h-348l-274 582h-154z" />
    <glyph glyph-name="uni1E5B" unicode="&#x1e5b;" horiz-adv-x="817" 
d="M141 -436v274h289v-274h-289zM137 0v1061h228l38 -68q55 53 99 73t104 19q111 0 238 -71l-129 -244q-74 59 -144 59q-71 -1 -103 -75t-32 -244v-510h-299z" />
    <glyph glyph-name="uni1E62" unicode="&#x1e62;" horiz-adv-x="1175" 
d="M416 -436v274h289v-274h-289zM584 231q228 0 227 175q0 122 -123 158q-31 9 -182 48q-226 58 -322 158t-96 296t129 308t369 111q348 0 487 -238l-233 -149q-94 135 -262 135q-90 0 -140 -43t-49 -123q0 -80 57 -124t207 -82t205 -58t111 -55q143 -98 143 -322t-121 -332
q-137 -119 -399 -119t-422 99q-86 55 -147 159l239 152q94 -154 322 -154z" />
    <glyph glyph-name="uni1E63" unicode="&#x1e63;" horiz-adv-x="1017" 
d="M348 -436v274h289v-274h-289zM487 1085q303 0 433 -219l-222 -125q-37 63 -77 87q-41 24 -113 24q-137 0 -137 -102q0 -47 33 -67q34 -19 128 -28q240 -23 325 -93t85 -244q0 -175 -111 -258t-346 -83q-342 1 -448 218l219 124q41 -67 86 -89t131 -21q188 0 189 115
q0 43 -28 63q-28 19 -133 31t-159 22t-106 35q-146 68 -146 249t104 271t293 90z" />
    <glyph glyph-name="uni1E6C" unicode="&#x1e6c;" horiz-adv-x="1138" 
d="M422 -436v274h289v-274h-289zM412 0v1206h-389v256h1091v-256h-387v-1206h-315z" />
    <glyph glyph-name="uni1E6D" unicode="&#x1e6d;" horiz-adv-x="720" 
d="M215 -436v274h289v-274h-289zM162 825h-115v236h115l18 299h281v-299h211v-236h-211v-370q0 -125 39 -170t145 -43h25v-242h-35q-297 0 -386 91t-87 394v340z" />
    <glyph glyph-name="Wgrave" unicode="&#x1e80;" horiz-adv-x="1910" 
d="M1116 1587h-223l-281 324h332zM410 0l-373 1462h315l215 -1042l267 1042h243l266 -1042l218 1042h315l-375 -1462h-282l-263 965l-262 -965h-284z" />
    <glyph glyph-name="wgrave" unicode="&#x1e81;" horiz-adv-x="1599" 
d="M961 1186h-224l-280 323h331zM356 0l-311 1061h303l152 -703l194 703h213l195 -703l151 703h303l-311 -1061h-256l-188 614l-187 -614h-258z" />
    <glyph glyph-name="Wacute" unicode="&#x1e82;" horiz-adv-x="1910" 
d="M799 1587l172 324h332l-281 -324h-223zM410 0l-373 1462h315l215 -1042l267 1042h243l266 -1042l218 1042h315l-375 -1462h-282l-263 965l-262 -965h-284z" />
    <glyph glyph-name="wacute" unicode="&#x1e83;" horiz-adv-x="1599" 
d="M643 1186l172 323h332l-281 -323h-223zM356 0l-311 1061h303l152 -703l194 703h213l195 -703l151 703h303l-311 -1061h-256l-188 614l-187 -614h-258z" />
    <glyph glyph-name="Wdieresis" unicode="&#x1e84;" horiz-adv-x="1910" 
d="M1032 1591v275h264v-275h-264zM616 1591v275h265v-275h-265zM410 0l-373 1462h315l215 -1042l267 1042h243l266 -1042l218 1042h315l-375 -1462h-282l-263 965l-262 -965h-284z" />
    <glyph glyph-name="wdieresis" unicode="&#x1e85;" horiz-adv-x="1599" 
d="M870 1190v274h265v-274h-265zM465 1190v274h264v-274h-264zM356 0l-311 1061h303l152 -703l194 703h213l195 -703l151 703h303l-311 -1061h-256l-188 614l-187 -614h-258z" />
    <glyph glyph-name="uni1E92" unicode="&#x1e92;" horiz-adv-x="1171" 
d="M465 -436v274h289v-274h-289zM109 0v207l583 999h-555v256h912v-207l-586 -999h614v-256h-968z" />
    <glyph glyph-name="uni1E93" unicode="&#x1e93;" horiz-adv-x="993" 
d="M354 -436v274h289v-274h-289zM66 0v186l434 635h-398v240h766v-189l-434 -632h465v-240h-833z" />
    <glyph glyph-name="uni1EA0" unicode="&#x1ea0;" horiz-adv-x="1275" 
d="M494 -436v274h288v-274h-288zM821 524l-178 570l-182 -570h360zM897 274h-512l-86 -274h-340l528 1462h306l530 -1462h-342z" />
    <glyph glyph-name="uni1EA1" unicode="&#x1ea1;" horiz-adv-x="1097" 
d="M403 -436v274h289v-274h-289zM668 453h-158q-82 0 -118 -30q-36 -29 -36 -99t35 -97t123 -27t121 36q33 35 33 131v86zM668 649v35q0 164 -156 164q-117 0 -199 -103l-204 144q137 197 436 197t385 -191q37 -82 37 -266v-629h-234l-18 55q-92 -78 -284 -78
q-191 0 -273 77q-82 76 -82 264t86 260t311 71h195z" />
    <glyph glyph-name="uni1EA2" unicode="&#x1ea2;" horiz-adv-x="1275" 
d="M559 1575q0 98 9 130q8 32 38 71t31 57q0 35 -40 35t-122 -37l-47 164q126 39 226 39t161 -49t62 -138q1 -43 -13 -69t-52 -67q-38 -43 -44 -63t-8 -73h-201zM821 524l-178 570l-182 -570h360zM897 274h-512l-86 -274h-340l528 1462h306l530 -1462h-342z" />
    <glyph glyph-name="uni1EA3" unicode="&#x1ea3;" horiz-adv-x="1097" 
d="M674 1178h-203q2 100 10 132q9 32 39 71t31 57q0 35 -42 35t-120 -37l-49 161q120 41 224 41t165 -49t62 -137q1 -45 -13 -70t-69 -82q-23 -27 -29 -48t-6 -74zM668 453h-158q-82 0 -118 -30q-36 -29 -36 -99t35 -97t123 -27t121 36q33 35 33 131v86zM668 649v35
q0 164 -156 164q-117 0 -199 -103l-204 144q137 197 436 197t385 -191q37 -82 37 -266v-629h-234l-18 55q-92 -78 -284 -78q-191 0 -273 77q-82 76 -82 264t86 260t311 71h195z" />
    <glyph glyph-name="uni1EA4" unicode="&#x1ea4;" horiz-adv-x="1275" 
d="M639 1665l-107 -109h-264l269 261h204l267 -261h-263zM543 1872l123 242h233l-194 -242h-162zM821 524l-178 570l-182 -570h360zM897 274h-512l-86 -274h-340l528 1462h306l530 -1462h-342z" />
    <glyph glyph-name="uni1EA5" unicode="&#x1ea5;" horiz-adv-x="1097" 
d="M567 1264l-106 -107h-264l268 258h205l266 -258h-262zM471 1470l125 242h231l-194 -242h-162zM668 453h-158q-82 0 -118 -30q-36 -29 -36 -99t35 -97t123 -27t121 36q33 35 33 131v86zM668 649v35q0 164 -156 164q-117 0 -199 -103l-204 144q137 197 436 197t385 -191
q37 -82 37 -266v-629h-234l-18 55q-92 -78 -284 -78q-191 0 -273 77q-82 76 -82 264t86 260t311 71h195z" />
    <glyph glyph-name="uni1EA6" unicode="&#x1ea6;" horiz-adv-x="1275" 
d="M639 1665l-107 -109h-264l269 261h204l267 -261h-263zM729 1872h-162l-194 242h231zM821 524l-178 570l-182 -570h360zM897 274h-512l-86 -274h-340l528 1462h306l530 -1462h-342z" />
    <glyph glyph-name="uni1EA7" unicode="&#x1ea7;" horiz-adv-x="1097" 
d="M567 1264l-106 -107h-264l268 258h205l266 -258h-262zM657 1470h-161l-195 242h231zM668 453h-158q-82 0 -118 -30q-36 -29 -36 -99t35 -97t123 -27t121 36q33 35 33 131v86zM668 649v35q0 164 -156 164q-117 0 -199 -103l-204 144q137 197 436 197t385 -191
q37 -82 37 -266v-629h-234l-18 55q-92 -78 -284 -78q-191 0 -273 77q-82 76 -82 264t86 260t311 71h195z" />
    <glyph glyph-name="uni1EA8" unicode="&#x1ea8;" horiz-adv-x="1275" 
d="M637 1657l-107 -101h-262l267 236h204l269 -236h-265zM545 1823v14q2 55 9 77q8 22 30 44t22 38t-31 15q-31 0 -88 -29l-43 123q86 33 174 33t138 -38q49 -38 49 -103q0 -31 -11 -48t-39 -43t-31 -35t-7 -48h-172zM821 524l-178 570l-182 -570h360zM897 274h-512
l-86 -274h-340l528 1462h306l530 -1462h-342z" />
    <glyph glyph-name="uni1EA9" unicode="&#x1ea9;" horiz-adv-x="1097" 
d="M565 1257l-106 -100h-262l266 234h205l268 -234h-264zM547 1739q88 0 137 -39t49 -105q0 -29 -11 -47t-52 -53q-21 -23 -23 -72h-174l2 15q0 52 8 74q7 22 29 46t23 35q0 19 -31 19t-88 -29l-41 121q84 35 172 35zM668 453h-158q-82 0 -118 -30q-36 -29 -36 -99t35 -97
t123 -27t121 36q33 35 33 131v86zM668 649v35q0 164 -156 164q-117 0 -199 -103l-204 144q137 197 436 197t385 -191q37 -82 37 -266v-629h-234l-18 55q-92 -78 -284 -78q-191 0 -273 77q-82 76 -82 264t86 260t311 71h195z" />
    <glyph glyph-name="uni1EAA" unicode="&#x1eaa;" horiz-adv-x="1275" 
d="M641 1665l-106 -109h-265l269 261h204l267 -261h-262zM535 1956q-52 0 -66 -88h-147q25 113 45 149q53 102 165 103q76 0 134 -50t77 -51q41 0 54 88h147q-16 -109 -35 -149q-43 -102 -164 -103q-80 1 -134 51t-76 50zM821 524l-178 570l-182 -570h360zM897 274h-512
l-86 -274h-340l528 1462h306l530 -1462h-342z" />
    <glyph glyph-name="uni1EAB" unicode="&#x1eab;" horiz-adv-x="1097" 
d="M563 1264l-106 -107h-262l266 258h205l268 -258h-264zM457 1718q74 0 132 -50t79 -50q41 0 53 88h147q-20 -115 -34 -150q-45 -102 -164 -102q-80 0 -136 49t-77 49q-52 0 -66 -86h-145q18 98 43 150q53 102 168 102zM668 453h-158q-82 0 -118 -30q-36 -29 -36 -99
t35 -97t123 -27t121 36q33 35 33 131v86zM668 649v35q0 164 -156 164q-117 0 -199 -103l-204 144q137 197 436 197t385 -191q37 -82 37 -266v-629h-234l-18 55q-92 -78 -284 -78q-191 0 -273 77q-82 76 -82 264t86 260t311 71h195z" />
    <glyph glyph-name="uni1EAC" unicode="&#x1eac;" horiz-adv-x="1275" 
d="M494 -436v274h288v-274h-288zM639 1745l-113 -156h-278l280 320h220l280 -320h-278zM821 524l-178 570l-182 -570h360zM897 274h-512l-86 -274h-340l528 1462h306l530 -1462h-342z" />
    <glyph glyph-name="uni1EAD" unicode="&#x1ead;" horiz-adv-x="1097" 
d="M403 -436v274h289v-274h-289zM549 1343l-111 -155h-278l280 319h217l283 -319h-278zM668 453h-158q-82 0 -118 -30q-36 -29 -36 -99t35 -97t123 -27t121 36q33 35 33 131v86zM668 649v35q0 164 -156 164q-117 0 -199 -103l-204 144q137 197 436 197t385 -191
q37 -82 37 -266v-629h-234l-18 55q-92 -78 -284 -78q-191 0 -273 77q-82 76 -82 264t86 260t311 71h195z" />
    <glyph glyph-name="uni1EAE" unicode="&#x1eae;" horiz-adv-x="1275" 
d="M628 1546q-236 0 -302 140q-23 49 -29 174h172q12 -68 48 -93t122 -25t122 26q36 24 46 92h174q-8 -139 -41 -193q-76 -121 -312 -121zM543 1872l123 242h233l-194 -242h-162zM821 524l-178 570l-182 -570h360zM897 274h-512l-86 -274h-340l528 1462h306l530 -1462h-342z
" />
    <glyph glyph-name="uni1EAF" unicode="&#x1eaf;" horiz-adv-x="1097" 
d="M561 1341q86 0 123 25t47 92h172q-6 -139 -41 -192q-74 -121 -310 -121t-302 139q-23 43 -31 174h174q10 -68 46 -92t122 -25zM467 1470l123 242h233l-196 -242h-160zM668 453h-158q-82 0 -118 -30q-36 -29 -36 -99t35 -97t123 -27t121 36q33 35 33 131v86zM668 649v35
q0 164 -156 164q-117 0 -199 -103l-204 144q137 197 436 197t385 -191q37 -82 37 -266v-629h-234l-18 55q-92 -78 -284 -78q-191 0 -273 77q-82 76 -82 264t86 260t311 71h195z" />
    <glyph glyph-name="uni1EB0" unicode="&#x1eb0;" horiz-adv-x="1275" 
d="M628 1546q-236 0 -302 140q-23 49 -29 174h172q12 -68 48 -93t122 -25t122 26q36 24 46 92h174q-8 -139 -41 -193q-76 -121 -312 -121zM745 1872h-161l-195 242h232zM821 524l-178 570l-182 -570h360zM897 274h-512l-86 -274h-340l528 1462h306l530 -1462h-342z" />
    <glyph glyph-name="uni1EB1" unicode="&#x1eb1;" horiz-adv-x="1097" 
d="M561 1341q86 0 123 25t47 92h172q-6 -139 -41 -192q-74 -121 -310 -121t-302 139q-23 43 -31 174h174q10 -68 46 -92t122 -25zM680 1470h-162l-194 242h233zM668 453h-158q-82 0 -118 -30q-36 -29 -36 -99t35 -97t123 -27t121 36q33 35 33 131v86zM668 649v35
q0 164 -156 164q-117 0 -199 -103l-204 144q137 197 436 197t385 -191q37 -82 37 -266v-629h-234l-18 55q-92 -78 -284 -78q-191 0 -273 77q-82 76 -82 264t86 260t311 71h195z" />
    <glyph glyph-name="uni1EB2" unicode="&#x1eb2;" horiz-adv-x="1275" 
d="M628 1546q-236 0 -302 140q-23 49 -29 174h168q12 -72 49 -98t125 -26t124 26t48 98h170q-8 -139 -41 -193q-76 -121 -312 -121zM547 1819v14q2 57 9 77q8 20 30 46q22 24 22 37q0 20 -32 20t-87 -31l-43 123q84 35 174 35t138 -39q49 -39 49 -106q0 -29 -11 -46t-53 -55
q-22 -22 -24 -75h-172zM821 524l-178 570l-182 -570h360zM897 274h-512l-86 -274h-340l528 1462h306l530 -1462h-342z" />
    <glyph glyph-name="uni1EB3" unicode="&#x1eb3;" horiz-adv-x="1097" 
d="M561 1335q88 0 125 26t49 97h168q-6 -139 -41 -192q-74 -121 -310 -121t-302 139q-23 43 -31 174h170q12 -72 48 -98t124 -25zM471 1417v15q2 57 9 77q8 20 30 45t22 37q0 47 -120 -8l-41 121q84 35 173 35t138 -39t49 -107q0 -29 -11 -46t-52 -54q-23 -23 -25 -76h-172z
M668 453h-158q-82 0 -118 -30q-36 -29 -36 -99t35 -97t123 -27t121 36q33 35 33 131v86zM668 649v35q0 164 -156 164q-117 0 -199 -103l-204 144q137 197 436 197t385 -191q37 -82 37 -266v-629h-234l-18 55q-92 -78 -284 -78q-191 0 -273 77q-82 76 -82 264t86 260t311 71
h195z" />
    <glyph glyph-name="uni1EB4" unicode="&#x1eb4;" horiz-adv-x="1275" 
d="M625 1726q85 0 119 22t47 81h163q-4 -80 -12 -112t-29 -62q-72 -107 -298 -107t-291 125q-27 47 -29 156h164q10 -59 46 -81t120 -22zM528 2138q74 0 132 -50t79 -50q41 0 54 88h147q-16 -106 -35 -150q-43 -102 -164 -102q-80 0 -135 50t-78 50q-49 0 -65 -88h-146
q20 106 45 150q51 102 166 102zM821 524l-178 570l-182 -570h360zM897 274h-512l-86 -274h-340l528 1462h306l530 -1462h-342z" />
    <glyph glyph-name="uni1EB5" unicode="&#x1eb5;" horiz-adv-x="1097" 
d="M553 1325q84 0 120 22t46 80h164q-8 -125 -39 -174q-74 -106 -300 -106t-292 125q-25 46 -29 155h164q10 -59 46 -81t120 -21zM670 1473q-80 0 -134 50t-77 50q-52 0 -66 -88h-147q20 104 45 151q51 100 166 101q76 0 133 -50t78 -51q45 0 53 88h147q-16 -106 -34 -149
q-43 -102 -164 -102zM668 453h-158q-82 0 -118 -30q-36 -29 -36 -99t35 -97t123 -27t121 36q33 35 33 131v86zM668 649v35q0 164 -156 164q-117 0 -199 -103l-204 144q137 197 436 197t385 -191q37 -82 37 -266v-629h-234l-18 55q-92 -78 -284 -78q-191 0 -273 77
q-82 76 -82 264t86 260t311 71h195z" />
    <glyph glyph-name="uni1EB6" unicode="&#x1eb6;" horiz-adv-x="1275" 
d="M494 -436v274h288v-274h-288zM628 1565q-248 0 -321 153q-25 52 -31 189h185q12 -76 50 -103q38 -26 128 -26t128 26t50 103h182q-4 -150 -43 -211q-80 -131 -328 -131zM821 524l-178 570l-182 -570h360zM897 274h-512l-86 -274h-340l528 1462h306l530 -1462h-342z" />
    <glyph glyph-name="uni1EB7" unicode="&#x1eb7;" horiz-adv-x="1097" 
d="M403 -436v274h289v-274h-289zM555 1376q90 0 128 27t50 102h185q-8 -150 -44 -211q-80 -131 -328 -131t-321 154q-24 53 -30 188h182q12 -77 50 -103t128 -26zM668 453h-158q-82 0 -118 -30q-36 -29 -36 -99t35 -97t123 -27t121 36q33 35 33 131v86zM668 649v35
q0 164 -156 164q-117 0 -199 -103l-204 144q137 197 436 197t385 -191q37 -82 37 -266v-629h-234l-18 55q-92 -78 -284 -78q-191 0 -273 77q-82 76 -82 264t86 260t311 71h195z" />
    <glyph glyph-name="uni1EB8" unicode="&#x1eb8;" horiz-adv-x="1191" 
d="M487 -436v274h289v-274h-289zM166 0v1462h924v-256h-613v-340h518v-256h-518v-354h621v-256h-932z" />
    <glyph glyph-name="uni1EB9" unicode="&#x1eb9;" horiz-adv-x="1128" 
d="M420 -436v274h289v-274h-289zM403 657h353v25q0 90 -46 138t-130 48t-130 -49t-47 -137v-25zM406 455v-27q0 -221 196 -221q139 0 209 112l219 -124q-68 -117 -174 -167t-287 -51q-247 0 -355 119t-108 393v68q0 266 89 379q111 150 367 150t366 -124q109 -122 108 -405
v-102h-630z" />
    <glyph glyph-name="uni1EBA" unicode="&#x1eba;" horiz-adv-x="1191" 
d="M756 1575h-203q2 100 10 131q9 31 39 70t31 57q0 35 -42 35t-120 -37l-49 164q126 39 226 39t162 -49t62 -138q0 -45 -13 -69t-68 -82q-23 -28 -29 -48t-6 -73zM166 0v1462h924v-256h-613v-340h518v-256h-518v-354h621v-256h-932z" />
    <glyph glyph-name="uni1EBB" unicode="&#x1ebb;" horiz-adv-x="1128" 
d="M690 1178h-203q2 98 12 131q9 33 39 72t29 57q0 35 -40 35t-121 -37l-50 161q116 41 222 41t167 -49t62 -139q0 -43 -13 -68t-69 -82q-23 -29 -29 -49t-6 -73zM403 657h353v25q0 90 -46 138t-130 48t-130 -49t-47 -137v-25zM406 455v-27q0 -221 196 -221q139 0 209 112
l219 -124q-68 -117 -174 -167t-287 -51q-247 0 -355 119t-108 393v68q0 266 89 379q111 150 367 150t366 -124q109 -122 108 -405v-102h-630z" />
    <glyph glyph-name="uni1EBC" unicode="&#x1ebc;" horiz-adv-x="1191" 
d="M506 1911q90 -1 152 -53t77 -61q14 -9 33 -9q51 0 66 108h180q-18 -131 -41 -188q-55 -131 -203 -131q-98 -1 -166 61t-96 62t-50 -30t-28 -79h-178q25 131 53 191q63 129 201 129zM166 0v1462h924v-256h-613v-340h518v-256h-518v-354h621v-256h-932z" />
    <glyph glyph-name="uni1EBD" unicode="&#x1ebd;" horiz-adv-x="1128" 
d="M438 1509q90 0 152 -52t78 -61q14 -9 32 -10q51 0 66 109h180q-20 -135 -41 -188q-55 -131 -203 -131q-98 0 -166 61t-95 61t-49 -30t-30 -78h-178q27 141 54 190q66 129 200 129zM403 657h353v25q0 90 -46 138t-130 48t-130 -49t-47 -137v-25zM406 455v-27
q0 -221 196 -221q139 0 209 112l219 -124q-68 -117 -174 -167t-287 -51q-247 0 -355 119t-108 393v68q0 266 89 379q111 150 367 150t366 -124q109 -122 108 -405v-102h-630z" />
    <glyph glyph-name="uni1EBE" unicode="&#x1ebe;" horiz-adv-x="1191" 
d="M633 1665l-107 -109h-262l266 261h205l269 -261h-265zM537 1872l125 242h231l-195 -242h-161zM166 0v1462h924v-256h-613v-340h518v-256h-518v-354h621v-256h-932z" />
    <glyph glyph-name="uni1EBF" unicode="&#x1ebf;" horiz-adv-x="1128" 
d="M578 1264l-107 -107h-264l266 258h205l268 -258h-262zM481 1470l123 242h234l-195 -242h-162zM403 657h353v25q0 90 -46 138t-130 48t-130 -49t-47 -137v-25zM406 455v-27q0 -221 196 -221q139 0 209 112l219 -124q-68 -117 -174 -167t-287 -51q-247 0 -355 119t-108 393
v68q0 266 89 379q111 150 367 150t366 -124q109 -122 108 -405v-102h-630z" />
    <glyph glyph-name="uni1EC0" unicode="&#x1ec0;" horiz-adv-x="1191" 
d="M633 1665l-107 -109h-262l266 261h205l269 -261h-265zM723 1872h-162l-194 242h231zM166 0v1462h924v-256h-613v-340h518v-256h-518v-354h621v-256h-932z" />
    <glyph glyph-name="uni1EC1" unicode="&#x1ec1;" horiz-adv-x="1128" 
d="M578 1264l-107 -107h-264l268 258h205l266 -258h-262zM668 1470h-162l-195 242h232zM403 657h353v25q0 90 -46 138t-130 48t-130 -49t-47 -137v-25zM406 455v-27q0 -221 196 -221q139 0 209 112l219 -124q-68 -117 -174 -167t-287 -51q-247 0 -355 119t-108 393v68
q0 266 89 379q111 150 367 150t366 -124q109 -122 108 -405v-102h-630z" />
    <glyph glyph-name="uni1EC2" unicode="&#x1ec2;" horiz-adv-x="1191" 
d="M631 1657l-107 -101h-262l266 236h205l268 -236h-264zM541 1823v14q0 53 8 75q7 22 29 45t22 39t-31 15q-31 0 -88 -29l-41 123q86 33 173 33t137 -38t49 -103q1 -31 -11 -48t-53 -55q-20 -20 -22 -71h-172zM166 0v1462h924v-256h-613v-340h518v-256h-518v-354h621v-256
h-932z" />
    <glyph glyph-name="uni1EC3" unicode="&#x1ec3;" horiz-adv-x="1128" 
d="M575 1257l-106 -100h-264l268 234h205l266 -234h-262zM483 1423v15q1 54 9 76t40 55q12 16 13 24q0 19 -31 19t-88 -29l-43 121q84 35 173 35t138 -38t49 -104q0 -31 -11 -48t-52 -54q-21 -21 -25 -72h-172zM403 657h353v25q0 90 -46 138t-130 48t-130 -49t-47 -137v-25z
M406 455v-27q0 -221 196 -221q139 0 209 112l219 -124q-68 -117 -174 -167t-287 -51q-247 0 -355 119t-108 393v68q0 266 89 379q111 150 367 150t366 -124q109 -122 108 -405v-102h-630z" />
    <glyph glyph-name="uni1EC4" unicode="&#x1ec4;" horiz-adv-x="1191" 
d="M635 1665l-107 -109h-262l266 261h205l269 -261h-265zM528 1956q-51 0 -65 -88h-146q20 111 43 149q53 102 166 103q76 0 133 -50t80 -51q39 0 54 88h145q-14 -106 -33 -149q-43 -102 -164 -103q-80 1 -135 51t-78 50zM166 0v1462h924v-256h-613v-340h518v-256h-518v-354
h621v-256h-932z" />
    <glyph glyph-name="uni1EC5" unicode="&#x1ec5;" horiz-adv-x="1128" 
d="M575 1264l-106 -107h-262l266 258h205l268 -258h-264zM467 1718q76 0 134 -50t79 -50q41 0 53 88h146q-16 -111 -33 -150q-45 -102 -164 -102q-80 0 -136 49t-77 49q-52 0 -66 -86h-145q20 109 43 150q53 102 166 102zM403 657h353v25q0 90 -46 138t-130 48t-130 -49
t-47 -137v-25zM406 455v-27q0 -221 196 -221q139 0 209 112l219 -124q-68 -117 -174 -167t-287 -51q-247 0 -355 119t-108 393v68q0 266 89 379q111 150 367 150t366 -124q109 -122 108 -405v-102h-630z" />
    <glyph glyph-name="uni1EC6" unicode="&#x1ec6;" horiz-adv-x="1191" 
d="M487 -436v274h289v-274h-289zM625 1745l-111 -156h-281l283 320h217l283 -320h-279zM166 0v1462h924v-256h-613v-340h518v-256h-518v-354h621v-256h-932z" />
    <glyph glyph-name="uni1EC7" unicode="&#x1ec7;" horiz-adv-x="1128" 
d="M420 -436v274h289v-274h-289zM578 1343l-111 -155h-279l281 319h217l283 -319h-279zM403 657h353v25q0 90 -46 138t-130 48t-130 -49t-47 -137v-25zM406 455v-27q0 -221 196 -221q139 0 209 112l219 -124q-68 -117 -174 -167t-287 -51q-247 0 -355 119t-108 393v68
q0 266 89 379q111 150 367 150t366 -124q109 -122 108 -405v-102h-630z" />
    <glyph glyph-name="uni1EC8" unicode="&#x1ec8;" horiz-adv-x="643" 
d="M278 1868q-44 0 -120 -37l-47 164q125 39 225 39t163 -49q62 -49 62 -138q0 -45 -13 -69t-69 -82q-23 -28 -29 -48t-8 -73h-200q2 100 10 131t38 70t32 57q0 35 -44 35zM164 0v1462h315v-1462h-315z" />
    <glyph glyph-name="uni1EC9" unicode="&#x1ec9;" horiz-adv-x="579" 
d="M209 1178q0 100 9 132q10 32 40 71t31 57q0 35 -41 35t-123 -37l-47 161q120 41 224 41t165 -49t61 -137q0 -45 -13 -70t-69 -82q-22 -27 -28 -48t-8 -74h-201zM139 0v1061h299v-1061h-299z" />
    <glyph glyph-name="uni1ECA" unicode="&#x1eca;" horiz-adv-x="643" 
d="M176 -436v274h289v-274h-289zM164 0v1462h315v-1462h-315z" />
    <glyph glyph-name="uni1ECB" unicode="&#x1ecb;" horiz-adv-x="579" 
d="M143 -436v274h289v-274h-289zM139 0v1061h299v-1061h-299zM139 1198v281h299v-281h-299z" />
    <glyph glyph-name="uni1ECC" unicode="&#x1ecc;" horiz-adv-x="1368" 
d="M541 -436v274h288v-274h-288zM924 586v291q0 199 -52 277t-187 77q-134 0 -186 -77t-53 -277v-291q0 -199 52 -277t187 -78t187 77t52 278zM131 559v344q0 166 28 264q29 98 99 173t170 110t261 35t269 -41t181 -133q100 -129 100 -408v-344q0 -166 -28 -264
q-29 -98 -99 -173t-170 -110t-262 -35t-270 41t-179 134q-100 126 -100 407z" />
    <glyph glyph-name="uni1ECD" unicode="&#x1ecd;" horiz-adv-x="1146" 
d="M428 -436v274h289v-274h-289zM743 473v115q0 141 -38 200q-39 60 -131 60t-130 -60q-39 -60 -38 -200v-115q0 -139 38 -199q39 -59 130 -59t131 59q38 60 38 199zM106 451v159q0 252 111 364t359 112t357 -112q110 -112 109 -364v-159q0 -252 -110 -363t-358 -111
t-358 111t-110 363z" />
    <glyph glyph-name="uni1ECE" unicode="&#x1ece;" horiz-adv-x="1368" 
d="M684 1833q0 35 -40 35t-122 -37l-49 164q125 39 227 39t162 -49q61 -49 62 -138q0 -45 -14 -69t-51 -67q-38 -43 -44 -63t-8 -73h-203q2 100 11 131t39 70t30 57zM924 586v291q0 199 -52 277t-187 77q-134 0 -186 -77t-53 -277v-291q0 -199 52 -277t187 -78t187 77
t52 278zM131 559v344q0 166 28 264q29 98 99 173t170 110t261 35t269 -41t181 -133q100 -129 100 -408v-344q0 -166 -28 -264q-29 -98 -99 -173t-170 -110t-262 -35t-270 41t-179 134q-100 126 -100 407z" />
    <glyph glyph-name="uni1ECF" unicode="&#x1ecf;" horiz-adv-x="1146" 
d="M696 1178h-202q2 100 10 132t51 85q18 25 18 43q0 35 -42 35t-119 -37l-50 161q119 41 224 41t166 -49t61 -137q0 -45 -13 -70t-67 -82q-23 -27 -30 -48t-7 -74zM743 473v115q0 141 -38 200q-39 60 -131 60t-130 -60q-39 -60 -38 -200v-115q0 -139 38 -199
q39 -59 130 -59t131 59q38 60 38 199zM106 451v159q0 252 111 364t359 112t357 -112q110 -112 109 -364v-159q0 -252 -110 -363t-358 -111t-358 111t-110 363z" />
    <glyph glyph-name="uni1ED0" unicode="&#x1ed0;" horiz-adv-x="1368" 
d="M684 1665l-106 -109h-263l267 261h204l269 -261h-264zM590 1872l123 242h233l-194 -242h-162zM924 586v291q0 199 -52 277t-187 77q-134 0 -186 -77t-53 -277v-291q0 -199 52 -277t187 -78t187 77t52 278zM131 559v344q0 166 28 264q29 98 99 173t170 110t261 35t269 -41
t181 -133q100 -129 100 -408v-344q0 -166 -28 -264q-29 -98 -99 -173t-170 -110t-262 -35t-270 41t-179 134q-100 126 -100 407z" />
    <glyph glyph-name="uni1ED1" unicode="&#x1ed1;" horiz-adv-x="1146" 
d="M573 1264l-106 -107h-262l266 258h205l268 -258h-264zM479 1470l123 242h234l-195 -242h-162zM743 473v115q0 141 -38 200q-39 60 -131 60t-130 -60q-39 -60 -38 -200v-115q0 -139 38 -199q39 -59 130 -59t131 59q38 60 38 199zM106 451v159q0 252 111 364t359 112
t357 -112q110 -112 109 -364v-159q0 -252 -110 -363t-358 -111t-358 111t-110 363z" />
    <glyph glyph-name="uni1ED2" unicode="&#x1ed2;" horiz-adv-x="1368" 
d="M684 1665l-106 -109h-263l269 261h204l267 -261h-264zM774 1872h-162l-194 242h233zM924 586v291q0 199 -52 277t-187 77q-134 0 -186 -77t-53 -277v-291q0 -199 52 -277t187 -78t187 77t52 278zM131 559v344q0 166 28 264q29 98 99 173t170 110t261 35t269 -41t181 -133
q100 -129 100 -408v-344q0 -166 -28 -264q-29 -98 -99 -173t-170 -110t-262 -35t-270 41t-179 134q-100 126 -100 407z" />
    <glyph glyph-name="uni1ED3" unicode="&#x1ed3;" horiz-adv-x="1146" 
d="M573 1264l-106 -107h-262l268 258h205l266 -258h-264zM664 1470h-162l-195 242h234zM743 473v115q0 141 -38 200q-39 60 -131 60t-130 -60q-39 -60 -38 -200v-115q0 -139 38 -199q39 -59 130 -59t131 59q38 60 38 199zM106 451v159q0 252 111 364t359 112t357 -112
q110 -112 109 -364v-159q0 -252 -110 -363t-358 -111t-358 111t-110 363z" />
    <glyph glyph-name="uni1ED4" unicode="&#x1ed4;" horiz-adv-x="1368" 
d="M684 1657l-106 -101h-265l269 236h204l267 -236h-262zM592 1823v14q2 55 9 77t29 44t23 38q-1 16 -31 15q-30 0 -87 -29l-43 123q86 33 174 33t137 -38t49 -103q0 -29 -11 -47t-53 -56q-22 -20 -24 -71h-172zM924 586v291q0 199 -52 277t-187 77q-134 0 -186 -77
t-53 -277v-291q0 -199 52 -277t187 -78t187 77t52 278zM131 559v344q0 166 28 264q29 98 99 173t170 110t261 35t269 -41t181 -133q100 -129 100 -408v-344q0 -166 -28 -264q-29 -98 -99 -173t-170 -110t-262 -35t-270 41t-179 134q-100 126 -100 407z" />
    <glyph glyph-name="uni1ED5" unicode="&#x1ed5;" horiz-adv-x="1146" 
d="M573 1257l-106 -100h-264l268 234h205l266 -234h-262zM481 1423v15q2 54 9 76q8 22 30 44t23 35q0 19 -31 19t-88 -29l-43 121q84 35 173 35t138 -38t49 -104q0 -31 -11 -48t-52 -54q-23 -23 -25 -72h-172zM743 473v115q0 141 -38 200q-39 60 -131 60t-130 -60
q-39 -60 -38 -200v-115q0 -139 38 -199q39 -59 130 -59t131 59q38 60 38 199zM106 451v159q0 252 111 364t359 112t357 -112q110 -112 109 -364v-159q0 -252 -110 -363t-358 -111t-358 111t-110 363z" />
    <glyph glyph-name="uni1ED6" unicode="&#x1ed6;" horiz-adv-x="1368" 
d="M686 1665l-104 -109h-265l267 261h204l269 -261h-262zM580 1956q-50 0 -66 -88h-145q20 104 45 149q51 102 166 103q74 0 131 -50t80 -51q41 0 53 88h147q-16 -106 -35 -149q-43 -102 -163 -103q-81 1 -135 51t-78 50zM924 586v291q0 199 -52 277t-187 77
q-134 0 -186 -77t-53 -277v-291q0 -199 52 -277t187 -78t187 77t52 278zM131 559v344q0 166 28 264q29 98 99 173t170 110t261 35t269 -41t181 -133q100 -129 100 -408v-344q0 -166 -28 -264q-29 -98 -99 -173t-170 -110t-262 -35t-270 41t-179 134q-100 126 -100 407z" />
    <glyph glyph-name="uni1ED7" unicode="&#x1ed7;" horiz-adv-x="1146" 
d="M575 1264l-106 -107h-262l266 258h205l268 -258h-262zM469 1718q74 0 132 -50t79 -50q41 0 53 88h148q-14 -104 -35 -150q-45 -102 -164 -102q-80 0 -136 49t-75 49q-52 0 -68 -86h-145q18 100 45 150q53 102 166 102zM743 473v115q0 141 -38 200q-39 60 -131 60
t-130 -60q-39 -60 -38 -200v-115q0 -139 38 -199q39 -59 130 -59t131 59q38 60 38 199zM106 451v159q0 252 111 364t359 112t357 -112q110 -112 109 -364v-159q0 -252 -110 -363t-358 -111t-358 111t-110 363z" />
    <glyph glyph-name="uni1ED8" unicode="&#x1ed8;" horiz-adv-x="1368" 
d="M541 -436v274h288v-274h-288zM684 1745l-111 -156h-278l280 320h218l282 -320h-278zM924 586v291q0 199 -52 277t-187 77q-134 0 -186 -77t-53 -277v-291q0 -199 52 -277t187 -78t187 77t52 278zM131 559v344q0 166 28 264q29 98 99 173t170 110t261 35t269 -41t181 -133
q100 -129 100 -408v-344q0 -166 -28 -264q-29 -98 -99 -173t-170 -110t-262 -35t-270 41t-179 134q-100 126 -100 407z" />
    <glyph glyph-name="uni1ED9" unicode="&#x1ed9;" horiz-adv-x="1146" 
d="M428 -436v274h289v-274h-289zM573 1343l-110 -155h-279l281 319h217l283 -319h-279zM743 473v115q0 141 -38 200q-39 60 -131 60t-130 -60q-39 -60 -38 -200v-115q0 -139 38 -199q39 -59 130 -59t131 59q38 60 38 199zM106 451v159q0 252 111 364t359 112t357 -112
q110 -112 109 -364v-159q0 -252 -110 -363t-358 -111t-358 111t-110 363z" />
    <glyph glyph-name="uni1EDA" unicode="&#x1eda;" horiz-adv-x="1462" 
d="M578 1587l172 324h331l-282 -324h-221zM924 586v291q0 199 -52 277t-187 77q-134 0 -186 -77t-53 -277v-291q0 -199 52 -277t187 -78t187 77t52 278zM1239 903v-344q0 -166 -28 -264q-29 -98 -99 -173t-170 -110t-262 -35t-270 41t-179 134q-100 127 -100 407v344
q0 166 28 264q29 98 99 173t170 110t286 35q389 0 492 -303q88 63 88 151t-43 154h258q18 -49 19 -105q0 -150 -121 -252q-61 -53 -174 -114l4 -37q2 -31 2 -76z" />
    <glyph glyph-name="uni1EDB" unicode="&#x1edb;" horiz-adv-x="1265" 
d="M463 1186l170 323h334l-283 -323h-221zM743 473v115q0 141 -38 200q-39 60 -131 60t-130 -60q-39 -60 -38 -200v-115q0 -139 38 -199q39 -59 130 -59t131 59q38 60 38 199zM1321 977q1 -111 -63 -192t-220 -167q4 -27 4 -63v-104q0 -252 -110 -363t-358 -111t-358 111
t-110 363v159q0 252 110 364t357 111q197 1 306 -69t145 -219q63 63 63 139t-43 149h259q18 -55 18 -108z" />
    <glyph glyph-name="uni1EDC" unicode="&#x1edc;" horiz-adv-x="1462" 
d="M874 1587h-223l-280 324h331zM924 586v291q0 199 -52 277t-187 77q-134 0 -186 -77t-53 -277v-291q0 -199 52 -277t187 -78t187 77t52 278zM1239 903v-344q0 -166 -28 -264q-29 -98 -99 -173t-170 -110t-262 -35t-270 41t-179 134q-100 127 -100 407v344q0 166 28 264
q29 98 99 173t170 110t286 35q389 0 492 -303q88 63 88 151t-43 154h258q18 -49 19 -105q0 -150 -121 -252q-61 -53 -174 -114l4 -37q2 -31 2 -76z" />
    <glyph glyph-name="uni1EDD" unicode="&#x1edd;" horiz-adv-x="1265" 
d="M766 1186h-223l-281 323h332zM743 473v115q0 141 -38 200q-39 60 -131 60t-130 -60q-39 -60 -38 -200v-115q0 -139 38 -199q39 -59 130 -59t131 59q38 60 38 199zM1321 977q1 -111 -63 -192t-220 -167q4 -27 4 -63v-104q0 -252 -110 -363t-358 -111t-358 111t-110 363
v159q0 252 110 364t357 111q197 1 306 -69t145 -219q63 63 63 139t-43 149h259q18 -55 18 -108z" />
    <glyph glyph-name="uni1EDE" unicode="&#x1ede;" horiz-adv-x="1462" 
d="M805 1575h-203q2 100 10 131t52 84q18 25 18 43q0 35 -40 35t-122 -37l-49 164q125 39 227 39t162 -49q61 -49 62 -138q0 -45 -14 -69t-68 -82q-23 -26 -29 -48t-6 -73zM924 586v291q0 199 -52 277t-187 77q-134 0 -186 -77t-53 -277v-291q0 -199 52 -277t187 -78t187 77
t52 278zM1239 903v-344q0 -166 -28 -264q-29 -98 -99 -173t-170 -110t-262 -35t-270 41t-179 134q-100 127 -100 407v344q0 166 28 264q29 98 99 173t170 110t286 35q389 0 492 -303q88 63 88 151t-43 154h258q18 -49 19 -105q0 -150 -121 -252q-61 -53 -174 -114l4 -37
q2 -31 2 -76z" />
    <glyph glyph-name="uni1EDF" unicode="&#x1edf;" horiz-adv-x="1265" 
d="M705 1178h-203q2 98 11 131t39 72t30 57q0 35 -42 35t-120 -37l-49 161q117 41 223 41t166 -49q61 -49 61 -139q0 -43 -13 -68q-12 -25 -52 -68t-46 -63t-5 -73zM743 473v115q0 141 -38 200q-39 60 -131 60t-130 -60q-39 -60 -38 -200v-115q0 -139 38 -199
q39 -59 130 -59t131 59q38 60 38 199zM1321 977q1 -111 -63 -192t-220 -167q4 -27 4 -63v-104q0 -252 -110 -363t-358 -111t-358 111t-110 363v159q0 252 110 364t357 111q197 1 306 -69t145 -219q63 63 63 139t-43 149h259q18 -55 18 -108z" />
    <glyph glyph-name="uni1EE0" unicode="&#x1ee0;" horiz-adv-x="1462" 
d="M573 1911q92 0 162 -62q53 -43 67 -52t34 -9q51 0 65 108h180q-18 -133 -41 -188q-55 -131 -202 -131q-98 -1 -166 61t-96 62q-30 0 -51 -30t-27 -79h-179q27 137 54 191q66 129 200 129zM924 586v291q0 199 -52 277t-187 77q-134 0 -186 -77t-53 -277v-291
q0 -199 52 -277t187 -78t187 77t52 278zM1239 903v-344q0 -166 -28 -264q-29 -98 -99 -173t-170 -110t-262 -35t-270 41t-179 134q-100 127 -100 407v344q0 166 28 264q29 98 99 173t170 110t286 35q389 0 492 -303q88 63 88 151t-43 154h258q18 -49 19 -105
q0 -150 -121 -252q-61 -53 -174 -114l4 -37q2 -31 2 -76z" />
    <glyph glyph-name="uni1EE1" unicode="&#x1ee1;" horiz-adv-x="1265" 
d="M475 1509q92 0 162 -61q53 -43 67 -52q14 -10 38 -10q22 0 36 25t25 84h180q-23 -141 -43 -188q-53 -131 -201 -131q-97 0 -165 61t-96 61t-50 -30t-29 -78h-178q27 141 53 190q66 129 201 129zM743 473v115q0 141 -38 200q-39 60 -131 60t-130 -60q-39 -60 -38 -200
v-115q0 -139 38 -199q39 -59 130 -59t131 59q38 60 38 199zM1321 977q1 -111 -63 -192t-220 -167q4 -27 4 -63v-104q0 -252 -110 -363t-358 -111t-358 111t-110 363v159q0 252 110 364t357 111q197 1 306 -69t145 -219q63 63 63 139t-43 149h259q18 -55 18 -108z" />
    <glyph glyph-name="uni1EE2" unicode="&#x1ee2;" horiz-adv-x="1462" 
d="M528 -436v274h289v-274h-289zM924 586v291q0 199 -52 277t-187 77q-134 0 -186 -77t-53 -277v-291q0 -199 52 -277t187 -78t187 77t52 278zM1239 903v-344q0 -166 -28 -264q-29 -98 -99 -173t-170 -110t-262 -35t-270 41t-179 134q-100 127 -100 407v344q0 166 28 264
q29 98 99 173t170 110t286 35q389 0 492 -303q88 63 88 151t-43 154h258q18 -49 19 -105q0 -150 -121 -252q-61 -53 -174 -114l4 -37q2 -31 2 -76z" />
    <glyph glyph-name="uni1EE3" unicode="&#x1ee3;" horiz-adv-x="1265" 
d="M422 -436v274h289v-274h-289zM743 473v115q0 141 -38 200q-39 60 -131 60t-130 -60q-39 -60 -38 -200v-115q0 -139 38 -199q39 -59 130 -59t131 59q38 60 38 199zM1321 977q1 -111 -63 -192t-220 -167q4 -27 4 -63v-104q0 -252 -110 -363t-358 -111t-358 111t-110 363
v159q0 252 110 364t357 111q197 1 306 -69t145 -219q63 63 63 139t-43 149h259q18 -55 18 -108z" />
    <glyph glyph-name="uni1EE4" unicode="&#x1ee4;" horiz-adv-x="1396" 
d="M553 -436v274h289v-274h-289zM158 1462h315v-915q0 -160 29 -216q28 -56 72 -78t127 -22t128 26t70 84t25 206v915h315v-915q0 -166 -19 -252t-81 -163q-125 -155 -453 -155t-457 195q-41 61 -56 143t-15 232v915z" />
    <glyph glyph-name="uni1EE5" unicode="&#x1ee5;" horiz-adv-x="1150" 
d="M432 -436v274h289v-274h-289zM131 1061h299v-572q0 -141 32 -199t110 -58t110 62q33 64 33 216v551h299v-1061h-201l-39 88q-43 -59 -104 -85t-164 -26q-270 0 -344 205q-31 84 -31 273v606z" />
    <glyph glyph-name="uni1EE6" unicode="&#x1ee6;" horiz-adv-x="1396" 
d="M618 1575q0 98 10 130q8 32 38 71t30 57q0 35 -42 35t-119 -37l-48 164q125 39 225 39t162 -49q61 -49 62 -138q0 -45 -13 -69t-67 -82q-23 -28 -29 -48t-8 -73h-201zM158 1462h315v-915q0 -160 29 -216q28 -56 72 -78t127 -22t128 26t70 84t25 206v915h315v-915
q0 -166 -19 -252t-81 -163q-125 -155 -453 -155t-457 195q-41 61 -56 143t-15 232v915z" />
    <glyph glyph-name="uni1EE7" unicode="&#x1ee7;" horiz-adv-x="1150" 
d="M575 1438q0 35 -42 35t-119 -37l-49 161q119 41 223 41t166 -49q61 -49 61 -139q0 -43 -13 -68t-67 -82q-23 -27 -29 -48t-8 -74h-202q2 102 10 133t51 84q18 25 18 43zM131 1061h299v-572q0 -141 32 -199t110 -58t110 62q33 64 33 216v551h299v-1061h-201l-39 88
q-43 -59 -104 -85t-164 -26q-270 0 -344 205q-31 84 -31 273v606z" />
    <glyph glyph-name="uni1EE8" unicode="&#x1ee8;" horiz-adv-x="1552" 
d="M608 1587l170 324h334l-283 -324h-221zM158 1462h315v-915q0 -160 29 -216q28 -56 72 -78t127 -22t128 26t70 84t25 206v915h315v-319q84 39 119 84t35 119t-43 141h258q18 -53 18 -126q0 -152 -188 -284q-59 -39 -199 -112v-418q0 -166 -19 -252t-81 -163
q-125 -155 -453 -155t-457 195q-41 61 -56 143t-15 232v915z" />
    <glyph glyph-name="uni1EE9" unicode="&#x1ee9;" horiz-adv-x="1339" 
d="M479 1186l172 323h332l-283 -323h-221zM131 1061h299v-572q0 -141 32 -199t110 -58t112 62q33 64 33 216v551h299v-322q84 39 119 84t35 118t-44 144h258q18 -55 19 -108q0 -176 -189 -303q-57 -39 -198 -113v-561h-201l-39 88q-43 -59 -105 -85t-165 -26
q-270 0 -344 205q-31 84 -31 273v606z" />
    <glyph glyph-name="uni1EEA" unicode="&#x1eea;" horiz-adv-x="1552" 
d="M870 1587h-223l-280 324h331zM158 1462h315v-915q0 -160 29 -216q28 -56 72 -78t127 -22t128 26t70 84t25 206v915h315v-319q84 39 119 84t35 119t-43 141h258q18 -53 18 -126q0 -152 -188 -284q-59 -39 -199 -112v-418q0 -166 -19 -252t-81 -163q-125 -155 -453 -155
t-457 195q-41 61 -56 143t-15 232v915z" />
    <glyph glyph-name="uni1EEB" unicode="&#x1eeb;" horiz-adv-x="1339" 
d="M754 1186h-222l-282 323h334zM131 1061h299v-572q0 -141 32 -199t110 -58t112 62q33 64 33 216v551h299v-322q84 39 119 84t35 118t-44 144h258q18 -55 19 -108q0 -176 -189 -303q-57 -39 -198 -113v-561h-201l-39 88q-43 -59 -105 -85t-165 -26q-270 0 -344 205
q-31 84 -31 273v606z" />
    <glyph glyph-name="uni1EEC" unicode="&#x1eec;" horiz-adv-x="1552" 
d="M625 1575q0 98 9 130q8 32 38 71t30 57q0 35 -40 35t-121 -37l-47 164q126 39 226 39t161 -49t61 -138q0 -43 -13 -69t-67 -82q-23 -28 -29 -48t-8 -73h-200zM158 1462h315v-915q0 -160 29 -216q28 -56 72 -78t127 -22t128 26t70 84t25 206v915h315v-319q84 39 119 84
t35 119t-43 141h258q18 -53 18 -126q0 -152 -188 -284q-59 -39 -199 -112v-418q0 -166 -19 -252t-81 -163q-125 -155 -453 -155t-457 195q-41 61 -56 143t-15 232v915z" />
    <glyph glyph-name="uni1EED" unicode="&#x1eed;" horiz-adv-x="1339" 
d="M489 1178q0 98 10 131q9 33 39 72t29 57q0 35 -40 35t-121 -37l-48 161q118 41 222 41t165 -49t62 -139q0 -43 -13 -68t-67 -82q-23 -27 -29 -48t-8 -74h-201zM131 1061h299v-572q0 -141 32 -199t110 -58t112 62q33 64 33 216v551h299v-322q84 39 119 84t35 118t-44 144
h258q18 -55 19 -108q0 -176 -189 -303q-57 -39 -198 -113v-561h-201l-39 88q-43 -59 -105 -85t-165 -26q-270 0 -344 205q-31 84 -31 273v606z" />
    <glyph glyph-name="uni1EEE" unicode="&#x1eee;" horiz-adv-x="1552" 
d="M600 1911q92 0 162 -62q53 -43 67 -52t37 -9t37 24t25 84h178q-16 -133 -41 -188q-53 -131 -201 -131q-98 -1 -166 61t-96 62q-62 0 -78 -109h-178q25 131 53 191q63 129 201 129zM158 1462h315v-915q0 -160 29 -216q28 -56 72 -78t127 -22t128 26t70 84t25 206v915h315
v-319q84 39 119 84t35 119t-43 141h258q18 -53 18 -126q0 -152 -188 -284q-59 -39 -199 -112v-418q0 -166 -19 -252t-81 -163q-125 -155 -453 -155t-457 195q-41 61 -56 143t-15 232v915z" />
    <glyph glyph-name="uni1EEF" unicode="&#x1eef;" horiz-adv-x="1339" 
d="M457 1509q88 0 151 -52q64 -52 78 -61t33 -10q51 0 65 109h179q-16 -135 -41 -188q-53 -131 -201 -131q-99 0 -167 61t-96 61t-50 -30t-27 -78h-178q27 139 51 190q68 129 203 129zM131 1061h299v-572q0 -141 32 -199t110 -58t112 62q33 64 33 216v551h299v-322
q84 39 119 84t35 118t-44 144h258q18 -55 19 -108q0 -176 -189 -303q-57 -39 -198 -113v-561h-201l-39 88q-43 -59 -105 -85t-165 -26q-270 0 -344 205q-31 84 -31 273v606z" />
    <glyph glyph-name="uni1EF0" unicode="&#x1ef0;" horiz-adv-x="1552" 
d="M547 -436v274h289v-274h-289zM158 1462h315v-915q0 -160 29 -216q28 -56 72 -78t127 -22t128 26t70 84t25 206v915h315v-319q84 39 119 84t35 119t-43 141h258q18 -53 18 -126q0 -152 -188 -284q-59 -39 -199 -112v-418q0 -166 -19 -252t-81 -163q-125 -155 -453 -155
t-457 195q-41 61 -56 143t-15 232v915z" />
    <glyph glyph-name="uni1EF1" unicode="&#x1ef1;" horiz-adv-x="1339" 
d="M475 -436v274h289v-274h-289zM131 1061h299v-572q0 -141 32 -199t110 -58t112 62q33 64 33 216v551h299v-322q84 39 119 84t35 118t-44 144h258q18 -55 19 -108q0 -176 -189 -303q-57 -39 -198 -113v-561h-201l-39 88q-43 -59 -105 -85t-165 -26q-270 0 -344 205
q-31 84 -31 273v606z" />
    <glyph glyph-name="Ygrave" unicode="&#x1ef2;" horiz-adv-x="1122" 
d="M721 1587h-223l-281 324h332zM408 0v526l-451 936h334l274 -624l275 624h334l-451 -936v-526h-315z" />
    <glyph glyph-name="ygrave" unicode="&#x1ef3;" horiz-adv-x="1050" 
d="M684 1186h-223l-281 323h332zM92 -471v242q131 -3 172 29t86 165l21 62l-351 1034h302l204 -715l197 715h303l-369 -1118q-66 -188 -110 -255q-45 -66 -79 -90q-73 -50 -211 -64q-62 -5 -165 -5z" />
    <glyph glyph-name="uni1EF4" unicode="&#x1ef4;" horiz-adv-x="1122" 
d="M416 -436v274h289v-274h-289zM408 0v526l-451 936h334l274 -624l275 624h334l-451 -936v-526h-315z" />
    <glyph glyph-name="uni1EF5" unicode="&#x1ef5;" horiz-adv-x="1050" 
d="M731 -436v274h289v-274h-289zM92 -471v242q131 -3 172 29t86 165l21 62l-351 1034h302l204 -715l197 715h303l-369 -1118q-66 -188 -110 -255q-45 -66 -79 -90q-73 -50 -211 -64q-62 -5 -165 -5z" />
    <glyph glyph-name="uni1EF6" unicode="&#x1ef6;" horiz-adv-x="1122" 
d="M481 1575q0 98 9 129t51 86q18 27 18 43q0 35 -40 35t-122 -37l-47 164q124 39 224 39t162 -49t63 -138q1 -45 -13 -69t-52 -67t-44 -63t-8 -73h-201zM408 0v526l-451 936h334l274 -624l275 624h334l-451 -936v-526h-315z" />
    <glyph glyph-name="uni1EF7" unicode="&#x1ef7;" horiz-adv-x="1050" 
d="M647 1178h-203q2 102 11 133q8 31 51 84q18 27 18 43q0 35 -42 35t-120 -37l-49 161q119 41 223 41t165 -50q62 -50 63 -138q0 -43 -13 -68t-69 -82q-23 -29 -29 -49t-6 -73zM92 -471v242q131 -3 172 29t86 165l21 62l-351 1034h302l204 -715l197 715h303l-369 -1118
q-66 -188 -110 -255q-45 -66 -79 -90q-73 -50 -211 -64q-62 -5 -165 -5z" />
    <glyph glyph-name="uni1EF8" unicode="&#x1ef8;" horiz-adv-x="1122" 
d="M434 1911q92 0 162 -62q54 -43 68 -52t32 -9q51 0 66 108h178q-20 -141 -41 -188q-53 -131 -201 -131q-98 -1 -166 61t-96 62t-50 -30t-28 -79h-178q25 129 51 191q68 129 203 129zM408 0v526l-451 936h334l274 -624l275 624h334l-451 -936v-526h-315z" />
    <glyph glyph-name="uni1EF9" unicode="&#x1ef9;" horiz-adv-x="1050" 
d="M397 1509q89 0 153 -53t78 -61t34 -9q49 0 65 109h178q-20 -135 -41 -188q-53 -131 -200 -131q-100 0 -168 61t-96 61t-49 -30t-29 -78h-179q25 133 54 190q66 129 200 129zM92 -471v242q131 -3 172 29t86 165l21 62l-351 1034h302l204 -715l197 715h303l-369 -1118
q-66 -188 -110 -255q-45 -66 -79 -90q-73 -50 -211 -64q-62 -5 -165 -5z" />
    <glyph glyph-name="uni2002" unicode="&#x2002;" horiz-adv-x="1024" 
 />
    <glyph glyph-name="uni2003" unicode="&#x2003;" horiz-adv-x="2048" 
 />
    <glyph glyph-name="uni2004" unicode="&#x2004;" horiz-adv-x="681" 
 />
    <glyph glyph-name="uni2005" unicode="&#x2005;" horiz-adv-x="512" 
 />
    <glyph glyph-name="uni2006" unicode="&#x2006;" horiz-adv-x="342" 
 />
    <glyph glyph-name="uni2007" unicode="&#x2007;" 
 />
    <glyph glyph-name="uni2008" unicode="&#x2008;" horiz-adv-x="0" 
 />
    <glyph glyph-name="uni2009" unicode="&#x2009;" horiz-adv-x="409" 
 />
    <glyph glyph-name="uni200A" unicode="&#x200a;" horiz-adv-x="256" 
 />
    <glyph glyph-name="uni2011" unicode="&#x2011;" horiz-adv-x="948" 
d="M141 594v256h664v-256h-664z" />
    <glyph glyph-name="figuredash" unicode="&#x2012;" 
d="M119 594v256h868v-256h-868z" />
    <glyph glyph-name="endash" unicode="&#x2013;" 
d="M119 594v256h868v-256h-868z" />
    <glyph glyph-name="emdash" unicode="&#x2014;" 
d="M-14 594v256h1134v-256h-1134z" />
    <glyph glyph-name="afii00208" unicode="&#x2015;" 
d="M-14 594v256h1134v-256h-1134z" />
    <glyph glyph-name="underscoredbl" unicode="&#x2017;" horiz-adv-x="962" 
d="M-51 -268v153h1065v-153h-1065zM-51 -494v154h1065v-154h-1065z" />
    <glyph glyph-name="quoteleft" unicode="&#x2018;" horiz-adv-x="471" 
d="M424 1462l-66 -544h-311l123 544h254z" />
    <glyph glyph-name="quoteright" unicode="&#x2019;" horiz-adv-x="471" 
d="M47 918l66 544h311l-123 -544h-254z" />
    <glyph glyph-name="quotesinglbase" unicode="&#x201a;" horiz-adv-x="471" 
d="M47 -260l66 545h311l-123 -545h-254z" />
    <glyph glyph-name="quotedblleft" unicode="&#x201c;" horiz-adv-x="919" 
d="M424 1462l-66 -544h-311l123 544h254zM872 1462l-65 -544h-311l122 544h254z" />
    <glyph glyph-name="quotedblright" unicode="&#x201d;" horiz-adv-x="919" 
d="M496 918l65 544h311l-122 -544h-254zM47 918l66 544h311l-123 -544h-254z" />
    <glyph glyph-name="quotedblbase" unicode="&#x201e;" horiz-adv-x="919" 
d="M496 -260l65 545h311l-122 -545h-254zM47 -260l66 545h311l-123 -545h-254z" />
    <glyph glyph-name="dagger" unicode="&#x2020;" 
d="M399 791h-311v253h311v418h306v-418h313v-253h-313v-1098h-306v1098z" />
    <glyph glyph-name="daggerdbl" unicode="&#x2021;" 
d="M399 791h-311v253h311v418h306v-418h313v-253h-313v-220h284v-254h-284v-624h-306v624h-282v254h282v220z" />
    <glyph glyph-name="bullet" unicode="&#x2022;" 
d="M554 1104q167 0 281 -111q113 -111 113 -273t-114 -274q-114 -110 -281 -110q-168 0 -282 110q-113 110 -113 274t114 274t282 110z" />
    <glyph glyph-name="ellipsis" unicode="&#x2026;" horiz-adv-x="1814" 
d="M1356 0v287h315v-287h-315zM750 0v287h315v-287h-315zM145 0v287h316v-287h-316z" />
    <glyph glyph-name="perthousand" unicode="&#x2030;" horiz-adv-x="2818" 
d="M621 0l464 1462h277l-465 -1462h-276zM2501 352v82q0 104 -27 150t-87 45q-60 0 -87 -45t-27 -150v-82q0 -102 27 -147t87 -45t87 45t27 147zM2023 326v137q-1 101 17 159q57 189 348 189q209 0 297 -102q66 -78 65 -246v-137q0 -184 -82 -266t-287 -82q-204 0 -292 102
q-66 74 -66 246zM1663 352v82q0 106 -26 150t-87 45q-61 0 -88 -44t-26 -151v-82q0 -104 26 -148t88 -44q61 0 87 44t26 148zM1186 326v137q0 182 83 265t287 83t291 -102q66 -78 66 -246v-137q0 -184 -83 -266t-287 -82t-292 102q-65 74 -65 246zM547 1028v82
q0 104 -27 148t-88 44t-87 -44t-26 -148v-82q0 -106 26 -150t87 -44t88 45t27 149zM70 999v138q0 182 77 260q90 88 293 88t291 -103q66 -78 66 -245v-138q0 -182 -83 -265t-287 -83t-292 103q-65 73 -65 245z" />
    <glyph glyph-name="guilsinglleft" unicode="&#x2039;" horiz-adv-x="573" 
d="M360 604l170 -260l-186 -125l-303 385l303 385l186 -127z" />
    <glyph glyph-name="guilsinglright" unicode="&#x203a;" horiz-adv-x="573" 
d="M215 604l-170 258l184 127l306 -385l-306 -385l-184 125z" />
    <glyph glyph-name="uni203E" unicode="&#x203e;" horiz-adv-x="962" 
d="M-51 1649v202h1065v-202h-1065z" />
    <glyph glyph-name="fraction" unicode="&#x2044;" horiz-adv-x="389" 
d="M-141 0l465 1462h276l-465 -1462h-276z" />
    <glyph glyph-name="zerosuperior" unicode="&#x2070;" horiz-adv-x="741" 
d="M461 1139v178q-1 106 -21 151t-68 45t-68 -45t-21 -151v-178q0 -103 20 -149q21 -46 69 -46t68 46t21 149zM53 1124v209q0 182 74 265t251 83t257 -102q55 -78 55 -246v-209q0 -184 -74 -266t-250 -82q-177 0 -257 103q-56 77 -56 245z" />
    <glyph glyph-name="foursuperior" unicode="&#x2074;" horiz-adv-x="741" 
d="M416 791v133h-381v135l293 608h250l-275 -565h113v145h209v-145h82v-178h-82v-133h-209z" />
    <glyph glyph-name="fivesuperior" unicode="&#x2075;" horiz-adv-x="739" 
d="M649 1667v-182h-325l-13 -133q37 8 72 8q156 0 225 -66q70 -66 70 -222t-76 -226t-248 -70q-313 0 -313 264l223 27q12 -109 93 -109t81 107q0 67 -19 97t-73 30t-88 -49l-180 33l45 491h526z" />
    <glyph glyph-name="sixsuperior" unicode="&#x2076;" horiz-adv-x="741" 
d="M372 1206q-46 0 -66 -30q-19 -31 -19 -101q0 -71 19 -101q20 -30 66 -30t66 31t20 101t-20 100t-66 30zM432 1366q94 0 164 -45q52 -35 72 -90t20 -153t-17 -153q-46 -147 -298 -149q-178 0 -254 76q-61 59 -62 215q0 90 17 147q16 57 67 138l201 315h276l-202 -301h16z
" />
    <glyph glyph-name="sevensuperior" unicode="&#x2077;" horiz-adv-x="593" 
d="M12 1485v182h541v-133l-238 -743h-258l240 694h-285z" />
    <glyph glyph-name="eightsuperior" unicode="&#x2078;" horiz-adv-x="741" 
d="M373 1171q-51 -1 -74 -27t-23 -86t22 -87t73 -27t73 27t21 86q0 114 -92 114zM457 1420q0 106 -85 106t-85 -107t86 -106q84 1 84 107zM76 1437q0 123 69 184q70 60 227 60q156 0 226 -60t70 -180t-52 -184q78 -63 78 -207t-74 -210q-74 -64 -249 -64q-174 0 -249 65
t-75 212t78 204q-49 57 -49 180z" />
    <glyph glyph-name="ninesuperior" unicode="&#x2079;" horiz-adv-x="741" 
d="M369 1280q86 0 86 116t-86 115q-86 1 -86 -115t86 -116zM369 1679q174 0 252 -71q63 -61 63 -207q0 -88 -11 -131t-55 -115l-219 -364h-274l205 327q-156 4 -216 66t-60 215q0 154 70 217q71 63 245 63z" />
    <glyph glyph-name="zeroinferior" unicode="&#x2080;" horiz-adv-x="741" 
d="M461 143v179q-1 106 -21 151t-68 45t-68 -45t-21 -151v-179q0 -104 20 -149q21 -45 69 -45t68 45t21 149zM53 129v209q0 182 74 265t251 83t257 -102q55 -78 55 -246v-209q0 -184 -74 -266t-250 -82q-177 0 -257 102q-56 78 -56 246z" />
    <glyph glyph-name="oneinferior" unicode="&#x2081;" horiz-adv-x="581" 
d="M203 -205v658l-144 -52l-61 166l285 105h159v-877h-239z" />
    <glyph glyph-name="twoinferior" unicode="&#x2082;" horiz-adv-x="737" 
d="M61 -205v146l254 286q119 133 119 213q0 29 -20 47t-52 19q-84 0 -96 -113l-221 17q10 137 68 196q82 82 258 82q303 0 303 -256q0 -100 -62 -196q-31 -47 -133 -160l-90 -99h281v-182h-609z" />
    <glyph glyph-name="threeinferior" unicode="&#x2083;" horiz-adv-x="737" 
d="M225 180v154h86q49 0 79 26t30 63q0 39 -23 61t-57 22q-76 0 -94 -90l-213 16q8 127 67 180q80 74 252 74q307 0 307 -250q0 -121 -77 -176q102 -72 102 -209t-80 -204t-251 -67t-253 63q-82 62 -90 202l226 27q8 -57 34 -83t78 -26q96 0 96 94q0 123 -120 123h-99z" />
    <glyph glyph-name="fourinferior" unicode="&#x2084;" horiz-adv-x="741" 
d="M416 -205v133h-381v135l293 609h250l-275 -566h113v146h209v-146h82v-178h-82v-133h-209z" />
    <glyph glyph-name="fiveinferior" unicode="&#x2085;" horiz-adv-x="739" 
d="M649 672v-183h-325l-13 -133q37 8 72 9q156 1 225 -65q70 -66 70 -223t-76 -227t-248 -69q-313 0 -313 264l223 27q12 -109 93 -109t81 107q0 68 -19 98t-73 29q-54 0 -88 -50l-180 33l45 492h526z" />
    <glyph glyph-name="sixinferior" unicode="&#x2086;" horiz-adv-x="741" 
d="M372 211q-46 0 -66 -31q-20 -30 -19 -100q0 -70 19 -100q20 -30 66 -31q46 0 66 31q20 30 20 100t-20 100t-66 31zM688 82q0 -98 -17 -152q-46 -148 -298 -149q-178 0 -254 76q-61 59 -62 215q0 90 17 147q16 57 67 137l201 316h276l-202 -299l16 -2q94 0 164 -45
q52 -35 72 -90q20 -56 20 -154z" />
    <glyph glyph-name="seveninferior" unicode="&#x2087;" horiz-adv-x="593" 
d="M18 489v183h541v-133l-237 -744h-259l240 694h-285z" />
    <glyph glyph-name="eightinferior" unicode="&#x2088;" horiz-adv-x="741" 
d="M373 176q-51 0 -74 -26t-23 -88q0 -60 22 -87t73 -27t73 28q22 26 21 85q0 115 -92 115zM372 530q-85 0 -85 -106t85 -107q85 1 85 107t-85 106zM76 442q0 123 69 184q70 60 227 60q156 0 226 -60t70 -180t-52 -184q78 -63 78 -208q0 -146 -74 -210t-249 -64
q-174 0 -249 66q-75 64 -75 212t78 204q-49 57 -49 180z" />
    <glyph glyph-name="nineinferior" unicode="&#x2089;" horiz-adv-x="741" 
d="M455 402q0 116 -86 116t-86 -117t86 -116t86 117zM684 406q0 -88 -11 -132t-55 -114l-219 -365h-274l205 328q-156 4 -216 65t-60 215t70 219q71 64 245 64t252 -72q63 -61 63 -208z" />
    <glyph glyph-name="franc" unicode="&#x20a3;" horiz-adv-x="1626" 
d="M940 0v940h221l37 -72q100 94 210 94t224 -57l-125 -237q-66 57 -121 57q-82 0 -120 -79t-37 -255v-391h-289zM158 0v1462h772v-256h-467v-350h371v-256h-371v-600h-305z" />
    <glyph glyph-name="lira" unicode="&#x20a4;" 
d="M590 1237q-138 1 -138 -157q0 -84 66 -199h363v-166h-283q2 -4 11 -40t9 -48h263v-166h-267v-8l-2 -21q-14 -90 -96 -176h574v-256h-990v221q96 18 158 84q61 66 70 156h-258v166h227q-27 57 -45 88h-182v166h106q-35 96 -35 188q0 201 112 309t318 107q248 0 371 -137
q57 -63 109 -197l-250 -102q-47 104 -95 146t-116 42z" />
    <glyph glyph-name="peseta" unicode="&#x20a7;" 
d="M455 1061h280q-12 88 -58 126t-138 36h-84v-162zM455 895v-180h84q96 -2 141 39t57 141h-282zM156 895h-162v166h162v401h366q250 6 375 -91t141 -310h138v-166h-138q-12 -225 -137 -327t-379 -95h-61v-473h-305v895z" />
    <glyph glyph-name="uni20AB" unicode="&#x20ab;" 
d="M334 586v-109q0 -139 38 -201t122 -61q84 0 122 49t39 154v227q0 203 -161 203q-84 0 -122 -62t-38 -200zM655 1149h-282v182h282v131h299v-131h156v-182h-156v-1149h-229l-18 66q-8 -8 -17 -13q-86 -76 -254 -76q-213 0 -306 112t-93 366v153q0 250 93 364t300 113
q98 0 144 -20t81 -41v125zM53 -385v203h994v-203h-994z" />
    <glyph glyph-name="Euro" unicode="&#x20ac;" 
d="M139 616v91h-174l64 165h110v27q0 297 107 426q124 152 364 152q240 1 352 -105t119 -330l-288 -20q-18 201 -164 201q-94 0 -134 -75t-40 -257v-19h485l-66 -165h-419v-91h376l-63 -165h-307q12 -127 57 -179t148 -51q160 0 180 139l268 -34q-10 -184 -122 -272
t-337 -87q-487 0 -514 484h-174l64 165h108z" />
    <glyph glyph-name="uni20B4" unicode="&#x20b4;" 
d="M692 1080q0 172 -157 173q-121 0 -183 -118l-227 114q117 236 418 236q207 0 319 -108t111 -308q0 -123 -45 -225l108 -29l-43 -160l-172 45q-63 -45 -166 -82l306 -81l-43 -160l-508 135q-47 -57 -48 -133q0 -170 178 -170t257 115l233 -121q-129 -227 -487 -228
q-238 0 -359 115q-102 100 -102 311q0 59 4 83t29 106l-129 35l43 159l170 -45q33 31 151 86l-289 78l43 160l504 -133q84 60 84 150z" />
    <glyph glyph-name="uni2101" unicode="&#x2101;" horiz-adv-x="1931" 
d="M1512 889q140 0 218 -38q77 -38 128 -122l-187 -104q-59 86 -145 86q-41 1 -66 -19q-24 -20 -24 -57t34 -61t144 -50q112 -26 166 -59q92 -57 92 -201t-83 -212q-83 -66 -243 -66t-248 41t-143 131l191 106q34 -53 74 -76q40 -22 100 -22q122 1 120 82q0 39 -28 56
t-157 48q-130 31 -189 91q-60 60 -60 182t83 193t223 71zM553 883l-111 307l-110 -307h221zM860 705l242 757h241l-464 -1462h-242l186 586h-164l-53 143h-327l-52 -143h-254l369 876h201z" />
    <glyph glyph-name="afii61248" unicode="&#x2105;" horiz-adv-x="1933" 
d="M592 0l463 1462h243l-464 -1462h-242zM1634 383v39q0 117 -33 167q-34 50 -112 50t-112 -50t-34 -167v-39q0 -117 34 -167t112 -50t112 50q33 50 33 167zM1108 369v67q0 207 89 297t292 90t292 -91t89 -296v-67q0 -205 -89 -296t-291 -91t-292 90t-90 297zM430 635
q-365 0 -364 401v31q0 410 360 410q233 0 330 -179l-174 -96q-53 88 -142 88q-139 0 -139 -223v-29q0 -217 145 -217q97 0 150 88l174 -98q-100 -176 -340 -176z" />
    <glyph glyph-name="afii61289" unicode="&#x2113;" 
d="M823 1224q0 81 -45 81q-34 0 -58 -39q-69 -109 -126 -508q102 121 166 253q63 132 63 213zM526 200q0 -64 33 -63q19 -1 31 15t40 74t64 59q49 0 49 -62q0 -102 -88 -194q-70 -80 -172 -80q-141 0 -190 149q-23 68 -23 213q0 20 2 37q-70 -88 -89 -88t-33 28t-14 58t9 47
q10 16 49 59t95 117q61 367 149 596q123 326 330 326q92 0 150 -65t57 -169q1 -152 -105 -332t-301 -364l-12 -74q-31 -223 -31 -287z" />
    <glyph glyph-name="afii61352" unicode="&#x2116;" horiz-adv-x="2420" 
d="M1468 0v236h842v-236h-842zM2021 819v25q0 115 -29 161q-30 46 -102 46t-102 -46t-29 -161v-25q0 -117 30 -164q29 -47 101 -47t102 47q29 47 29 164zM1468 801v61q0 226 100 326t321 100t321 -100t100 -326v-61q0 -225 -99 -327t-321 -101q-222 -1 -322 101t-100 327z
M164 0v1462h305l518 -936v936h305v-1462h-305l-518 936v-936h-305z" />
    <glyph glyph-name="trademark" unicode="&#x2122;" horiz-adv-x="1816" 
d="M817 586v876h223l230 -430l229 430h223v-876h-231v450l-143 -266h-156l-143 266v-450h-232zM250 586v694h-252v182h739v-182h-248v-694h-239z" />
    <glyph glyph-name="uni2126" unicode="&#x2126;" horiz-adv-x="1368" 
d="M109 0v225h243v60q-233 115 -221 508v108q0 166 28 265q29 99 99 174t170 110t262 35t270 -41t179 -133q100 -127 100 -410v-108q10 -393 -221 -508v-60h244v-225h-488v451q158 39 152 344v82q0 201 -52 277t-188 77q-135 0 -188 -78t-54 -276v-82q-2 -160 34 -242
t118 -102v-451h-487z" />
    <glyph glyph-name="estimated" unicode="&#x212e;" horiz-adv-x="1228" 
d="M860 805v162q-10 51 -44 105t-78 78t-124 24t-136 -48t-91 -157v-164h473zM387 612v-200q29 -96 57 -136q57 -82 187 -81q94 0 164 57t98 158h213q-45 -190 -107 -271q-129 -164 -373 -164q-244 1 -392 187q-146 186 -146 513t145 521t392 195q159 0 279 -81
q120 -80 178 -226t61 -472h-756z" />
    <glyph glyph-name="onethird" unicode="&#x2153;" horiz-adv-x="1871" 
d="M459 0l465 1462h276l-465 -1462h-276zM1278 385v154h86q49 -1 79 25t30 64t-23 60t-57 23q-78 0 -93 -90l-215 16q10 129 68 180q80 74 252 74q307 0 307 -248q0 -123 -78 -178q102 -72 102 -209t-79 -204q-79 -66 -267 -66t-272 94q-45 49 -55 172l225 24q8 -56 34 -82
t79 -26q96 0 96 94q0 123 -121 123h-98zM266 586v657l-143 -51l-62 166l285 104h160v-876h-240z" />
    <glyph glyph-name="twothirds" unicode="&#x2154;" horiz-adv-x="1871" 
d="M567 0l465 1462h277l-465 -1462h-277zM1360 385v154h86q49 -1 79 25q29 26 29 64t-22 60t-57 23q-80 0 -95 -90l-213 16q8 127 68 180q80 74 252 74q307 0 307 -248q0 -123 -78 -178q102 -72 102 -209t-79 -204q-81 -66 -267 -66t-274 94q-43 49 -55 172l225 24
q16 -108 114 -108t97 94q0 123 -121 123h-98zM66 586v145l253 285q119 135 119 215q0 29 -20 47t-51 18q-84 0 -97 -112l-221 16q10 137 68 197q82 82 258 82q303 0 303 -256q0 -100 -62 -197q-31 -45 -133 -160l-90 -98h281v-182h-608z" />
    <glyph glyph-name="uni2155" unicode="&#x2155;" horiz-adv-x="1871" 
d="M461 0l465 1462h276l-465 -1462h-276zM1700 877v-183h-326l-12 -133q39 8 72 8q156 0 231 -69q63 -61 63 -218t-75 -227q-76 -69 -241 -69t-242 64t-78 200l223 26q14 -109 94 -108q80 0 80 106q1 68 -19 98t-73 30t-88 -50l-181 33l46 492h526zM268 586v657l-143 -51
l-62 166l285 104h160v-876h-240z" />
    <glyph glyph-name="uni2156" unicode="&#x2156;" horiz-adv-x="1871" 
d="M578 0l462 1462h277l-463 -1462h-276zM1757 877v-183h-325l-13 -133q37 8 70 8q158 0 233 -69q64 -61 64 -218t-76 -227q-76 -69 -241 -69t-241 64t-79 200l223 26q14 -109 94 -108q80 0 80 106q0 68 -19 98t-73 30t-90 -50l-178 33l45 492h526zM68 586v145l254 285
q119 135 118 215q0 29 -20 47t-51 18q-84 0 -97 -112l-221 16q10 137 68 197q82 82 258 82q303 0 303 -256q0 -100 -62 -197q-31 -45 -133 -160l-90 -98h281v-182h-608z" />
    <glyph glyph-name="uni2157" unicode="&#x2157;" horiz-adv-x="1871" 
d="M549 0l465 1462h276l-465 -1462h-276zM1735 877v-183h-326l-12 -133q37 8 71 8q156 0 232 -69q63 -61 63 -218q1 -157 -75 -227q-76 -69 -241 -69t-242 64t-79 200l224 26q12 -109 94 -108q80 0 80 106q0 68 -20 98t-73 30q-54 0 -88 -50l-180 33l45 492h527zM233 969
v153h86q49 0 79 26t30 64t-22 60q-23 23 -58 22q-76 0 -94 -90l-213 17q8 129 68 182q80 74 251 74q307 0 308 -250q0 -123 -78 -178q102 -72 102 -208q0 -270 -327 -270q-174 1 -256 63t-91 202l226 26q8 -57 34 -83t78 -25q96 0 97 94q0 121 -121 121h-99z" />
    <glyph glyph-name="uni2158" unicode="&#x2158;" horiz-adv-x="1871" 
d="M573 0l465 1462h277l-465 -1462h-277zM1753 877v-183h-326l-12 -133q37 8 72 8q156 0 231 -69q64 -61 64 -218t-76 -227q-76 -69 -241 -69t-241 64t-79 200l223 26q12 -109 94 -108q80 0 80 106q0 68 -19 98t-73 30t-88 -50l-180 33l45 492h526zM418 586v133h-381v135
l293 608h250l-275 -565h113v145h209v-145h82v-178h-82v-133h-209z" />
    <glyph glyph-name="uni2159" unicode="&#x2159;" horiz-adv-x="1871" 
d="M496 0l462 1462h279l-465 -1462h-276zM1499 285q-1 71 -21 101t-66 30t-65 -31t-19 -101t18 -100q20 -30 66 -30t67 30q20 31 20 101zM1403 -14q-168 0 -244 75q-61 59 -61 215q0 92 16 150t68 135l200 316h277l-203 -299l17 -3q94 0 154 -40q61 -40 81 -95t21 -155
q0 -176 -78 -238q-80 -61 -248 -61zM297 586v657l-143 -51l-62 166l285 104h160v-876h-240z" />
    <glyph glyph-name="uni215A" unicode="&#x215a;" horiz-adv-x="1871" 
d="M588 0l465 1462h276l-465 -1462h-276zM1544 285q0 71 -20 101t-67 30q-46 0 -65 -31q-20 -31 -20 -101t20 -100t66 -30q45 0 66 30q20 31 20 101zM1448 -14q-168 0 -244 75q-61 59 -61 218q0 90 16 146t68 136l200 316h277l-203 -299l17 -3q94 0 154 -40t80 -95t22 -155
q0 -176 -78 -238q-80 -61 -248 -61zM674 1462v-182h-326l-12 -133q47 8 72 8q156 1 225 -65t69 -223t-76 -227t-247 -69q-313 0 -313 265l223 26q12 -109 94 -108q80 0 80 106q1 68 -19 98t-74 29q-54 0 -87 -49l-181 33l45 491h527z" />
    <glyph glyph-name="oneeighth" unicode="&#x215b;" horiz-adv-x="1871" 
d="M477 0l465 1462h277l-465 -1462h-277zM1419 381q-51 0 -73 -27t-23 -87q0 -60 22 -87q23 -26 73 -26t73 26t22 86q0 115 -94 115zM1418 735q-85 -1 -85 -107t85 -106t85 106t-85 107zM1122 647q0 123 70 183t226 60t227 -60q69 -60 69 -180t-49 -183q78 -63 78 -208
t-75 -209t-250 -64t-250 63t-75 212t78 206q-49 57 -49 180zM285 586v657l-144 -51l-61 166l285 104h159v-876h-239z" />
    <glyph glyph-name="threeeighths" unicode="&#x215c;" horiz-adv-x="1871" 
d="M567 0l465 1462h277l-465 -1462h-277zM1483 381q-51 0 -74 -27t-23 -87t22 -87q22 -26 73 -26t73 26t21 86q0 115 -92 115zM1480 735q-85 -1 -85 -107t85 -106t85 106t-85 107zM1184 649q0 121 69 181q70 60 227 60q156 0 226 -60t70 -180t-50 -183q78 -61 78 -207
t-74 -210t-249 -64q-174 0 -249 63t-75 212t76 206q-49 61 -49 182zM252 969v153h86q49 0 79 26q29 26 29 64t-22 60q-23 23 -57 22q-76 0 -95 -90l-213 17q8 129 68 182q80 74 252 74q307 0 307 -250q0 -123 -78 -178q102 -72 102 -208t-79 -203q-80 -67 -251 -67
q-171 1 -253 63t-90 202l225 26q8 -57 34 -83t79 -25q96 0 96 94q0 121 -121 121h-98z" />
    <glyph glyph-name="fiveeighths" unicode="&#x215d;" horiz-adv-x="1871" 
d="M567 0l465 1462h277l-465 -1462h-277zM1577 267q-1 60 -23 87t-72 27t-73 -27t-23 -87t22 -87q22 -26 73 -26t73 26t23 87zM1482 735q-85 -1 -85 -107t85 -106t85 106t-85 107zM1186 646q0 122 68 183q69 61 227 61q157 0 227 -60t70 -180t-49 -183q77 -61 77 -207
t-74 -210t-250 -64q-175 0 -250 64t-75 212t78 205q-49 57 -49 179zM674 1462v-182h-326l-12 -133q47 8 72 8q156 1 225 -65t69 -223t-76 -227t-247 -69q-313 0 -313 265l223 26q12 -109 94 -108q80 0 80 106q1 68 -19 98t-74 29q-54 0 -87 -49l-181 33l45 491h527z" />
    <glyph glyph-name="seveneighths" unicode="&#x215e;" horiz-adv-x="1871" 
d="M498 0l463 1462h276l-463 -1462h-276zM1438 381q-51 0 -74 -27t-23 -87t22 -87q22 -26 73 -26q50 0 72 26t22 86q0 115 -92 115zM1438 735q-45 0 -66 -24q-20 -25 -20 -80q0 -109 84 -109t84 106t-82 107zM1141 647q0 123 69 183q70 60 226 60t226 -60t69 -180
q0 -120 -50 -183q78 -63 78 -208t-75 -209q-74 -64 -248 -64t-249 63t-75 212t78 206q-49 57 -49 180zM111 1280v182h581v-133l-278 -743h-258l280 694h-325z" />
    <glyph glyph-name="arrowleft" unicode="&#x2190;" horiz-adv-x="1638" 
d="M1522 594h-1028l327 -328l-182 -182l-559 584v108l559 584l182 -182l-327 -328h1028v-256z" />
    <glyph glyph-name="arrowup" unicode="&#x2191;" horiz-adv-x="1638" 
d="M682 0v1059l-328 -326l-182 180l584 560h108l584 -560l-182 -180l-326 326v-1059h-258z" />
    <glyph glyph-name="arrowright" unicode="&#x2192;" horiz-adv-x="1638" 
d="M117 594v256h1028l-328 328l182 182l560 -584v-108l-560 -584l-182 182l328 328h-1028z" />
    <glyph glyph-name="arrowdown" unicode="&#x2193;" horiz-adv-x="1638" 
d="M680 1462h258v-1059l328 326l182 -180l-584 -559h-110l-582 559l180 180l328 -326v1059z" />
    <glyph glyph-name="arrowboth" unicode="&#x2194;" horiz-adv-x="1638" 
d="M1210 594h-780l250 -250l-182 -182l-482 506v108l482 506l182 -180l-250 -252h780l-249 252l182 180l481 -506v-108l-481 -506l-182 182z" />
    <glyph glyph-name="arrowupdn" unicode="&#x2195;" horiz-adv-x="1638" 
d="M682 334v794l-250 -251l-182 182l506 481h108l506 -481l-182 -182l-250 251v-794l250 252l182 -183l-506 -481h-108l-506 481l182 183z" />
    <glyph glyph-name="uni2196" unicode="&#x2196;" horiz-adv-x="1638" 
d="M526 389h-258v803l99 98h802v-256h-462l729 -731l-181 -180l-729 731v-465z" />
    <glyph glyph-name="uni2197" unicode="&#x2197;" horiz-adv-x="1638" 
d="M469 1034v256h803l98 -98v-803h-258v463l-729 -729l-180 180l729 731h-463z" />
    <glyph glyph-name="uni2198" unicode="&#x2198;" horiz-adv-x="1638" 
d="M1114 1026h256v-803l-98 -98h-803v256h463l-729 731l180 180l731 -731v465z" />
    <glyph glyph-name="uni2199" unicode="&#x2199;" horiz-adv-x="1638" 
d="M1169 381v-256h-802l-99 98v803h258v-463l729 729l181 -180l-729 -731h462z" />
    <glyph glyph-name="partialdiff" unicode="&#x2202;" 
d="M729 471v84q0 141 -41 201t-135 61q-94 0 -135 -60t-41 -202v-84q0 -143 41 -203t135 -61q94 1 135 61t41 203zM88 451v124q0 242 101 356t317 113q90 0 143 -26q-63 123 -155 185t-250 91l37 191q352 -35 540 -266t197 -644v-124q0 -250 -108 -362t-356 -112t-356 110
q-110 110 -110 364z" />
    <glyph glyph-name="emptyset" unicode="&#x2205;" 
d="M565 408q121 0 205 86t84 228t-84 239l-272 -545q39 -8 67 -8zM244 731q0 -82 22 -135t78 -113l277 555l-91 13q-114 0 -200 -85t-86 -235zM1047 729q1 -221 -139 -363t-355 -143q-68 0 -139 19l-168 -340l-158 57l172 348q-209 147 -209 422q0 219 138 363t348 145
q67 0 165 -25l150 299l158 -57l-156 -313q193 -156 193 -412z" />
    <glyph glyph-name="Delta" unicode="&#x2206;" 
d="M819 244l-262 798l-264 -798h526zM1239 0h-1364l549 1462h264z" />
    <glyph glyph-name="product" unicode="&#x220f;" horiz-adv-x="1312" 
d="M156 -422v1884h1001v-1884h-303v1618h-395v-1618h-303z" />
    <glyph glyph-name="summation" unicode="&#x2211;" horiz-adv-x="1208" 
d="M86 -422v211l401 770l-376 682v221h991v-256h-617l367 -643l-360 -729h638v-256h-1044z" />
    <glyph glyph-name="minus" unicode="&#x2212;" 
d="M92 604v236h920v-236h-920z" />
    <glyph glyph-name="uni2215" unicode="&#x2215;" horiz-adv-x="389" 
d="M-141 0l465 1462h276l-465 -1462h-276z" />
    <glyph glyph-name="uni2218" unicode="&#x2218;" 
d="M553 989q-113 0 -189 -77q-76 -76 -77 -192t75 -193t190 -77t190 78q76 76 75 192q1 116 -75 192t-189 77zM553 1122q174 0 293 -116t119 -285q0 -170 -119 -287t-294 -117t-294 117t-119 287q0 169 120 285t294 116z" />
    <glyph glyph-name="uni2219" unicode="&#x2219;" horiz-adv-x="604" 
d="M145 580v286h316v-286h-316z" />
    <glyph glyph-name="radical" unicode="&#x221a;" 
d="M0 557v250h352l135 -399l363 1443h627v-202h-375l-445 -1649h-307l-217 557h-133z" />
    <glyph glyph-name="infinity" unicode="&#x221e;" horiz-adv-x="1671" 
d="M1197 569q63 0 105 41t42 108q0 68 -42 108t-112 40q-104 0 -227 -129l-21 -18l25 -23q71 -72 119 -100t111 -27zM479 866q-69 0 -111 -41t-42 -107t42 -108q42 -41 105 -41t109 26t120 101l23 23l-18 18q-127 129 -228 129zM452 358q-160 0 -258 96q-97 96 -98 263
q0 168 98 264t263 96q164 0 284 -90q33 -25 93 -92q70 76 108 102q114 80 274 80t258 -96t99 -264q0 -168 -97 -263q-96 -96 -262 -96t-288 91q-31 24 -92 92q-66 -76 -107 -103q-115 -80 -275 -80z" />
    <glyph glyph-name="integral" unicode="&#x222b;" horiz-adv-x="929" 
d="M334 293v737q0 301 28 400q55 195 275 194q102 0 221 -35l-53 -227q-53 23 -90 22q-59 0 -82 -49q-12 -33 -12 -217v-739q1 -193 -5 -267t-26 -137q-55 -190 -275 -190q-102 0 -219 33l54 229q132 -57 172 25q12 35 12 221z" />
    <glyph glyph-name="similar" unicode="&#x223c;" 
d="M368 899q108 1 213 -63q106 -64 150 -64q70 0 127 119l168 -51q-94 -289 -309 -289q-57 0 -101 16q-44 15 -120 63t-123 48q-76 0 -121 -131l-174 39q38 168 110 240t180 73z" />
    <glyph glyph-name="uni2243" unicode="&#x2243;" 
d="M383 1112q53 0 92 -12t124 -64t130 -53q72 0 127 121l168 -51q-92 -291 -309 -291q-57 0 -101 16t-118 64t-125 49q-76 0 -121 -131l-174 39q42 169 112 241t195 72zM127 420v225h848v-225h-848z" />
    <glyph glyph-name="approxequal" unicode="&#x2248;" 
d="M385 1112q53 0 92 -12t125 -64t129 -53q72 0 127 121l168 -51q-92 -291 -309 -291q-57 0 -101 16t-118 64t-125 49q-76 0 -121 -131l-174 39q42 169 112 241t195 72zM368 688q108 0 214 -64q107 -64 149 -63q72 0 127 119l168 -51q-47 -147 -122 -218t-187 -71
q-57 0 -101 16t-120 64t-123 47q-76 0 -121 -131l-174 39q38 169 110 241t180 72z" />
    <glyph glyph-name="notequal" unicode="&#x2260;" 
d="M129 420v225h256l72 154h-328v225h432l111 242l217 -101l-66 -141h154v-225h-256l-72 -154h328v-225h-432l-111 -242l-217 103l66 139h-154z" />
    <glyph glyph-name="lessequal" unicode="&#x2264;" 
d="M129 0v236h801v-236h-801zM461 786l469 -178v-270l-801 354v191l801 354v-272z" />
    <glyph glyph-name="greaterequal" unicode="&#x2265;" 
d="M176 0v236h801v-236h-801zM645 786l-469 179v272l801 -354v-191l-801 -354v270z" />
    <glyph glyph-name="dotmath" unicode="&#x22c5;" horiz-adv-x="604" 
d="M145 580v286h316v-286h-316z" />
    <glyph glyph-name="filledrect" unicode="&#x25ac;" 
d="M195 360v717h716v-717h-716z" />
    <glyph glyph-name="uni25B4" unicode="&#x25b4;" 
d="M117 348l436 871l436 -871h-872z" />
    <glyph glyph-name="uni25B8" unicode="&#x25b8;" 
d="M227 285v870l871 -436z" />
    <glyph glyph-name="uni25BE" unicode="&#x25be;" 
d="M117 1092h872l-436 -873z" />
    <glyph glyph-name="uni25C2" unicode="&#x25c2;" 
d="M879 285l-871 434l871 436v-870z" />
    <glyph glyph-name="lozenge" unicode="&#x25ca;" 
d="M311 727l242 -342l242 342l-242 342zM-35 727l588 791l588 -791l-588 -790z" />
    <glyph glyph-name="openbullet" unicode="&#x25e6;" 
d="M553 989q-113 0 -189 -77q-76 -76 -77 -192t75 -193t190 -77t190 78q76 76 75 192q1 116 -75 192t-189 77zM553 1122q174 0 293 -116t119 -285q0 -170 -119 -287t-294 -117t-294 117t-119 287q0 169 120 285t294 116z" />
    <glyph glyph-name="commaaccent" unicode="&#xf6c3;" horiz-adv-x="1024" 
d="M330 -498l100 373h283l-183 -373h-200z" />
    <glyph glyph-name="Acute" unicode="&#xf6c9;" horiz-adv-x="1024" 
d="M354 1587l172 324h332l-280 -324h-224z" />
    <glyph glyph-name="Caron" unicode="&#xf6ca;" horiz-adv-x="1024" 
d="M512 1747l111 156h278l-280 -320h-218l-282 320h278z" />
    <glyph glyph-name="Dieresis" unicode="&#xf6cb;" horiz-adv-x="1024" 
d="M588 1591v275h264v-275h-264zM172 1591v275h264v-275h-264z" />
    <glyph glyph-name="Grave" unicode="&#xf6ce;" horiz-adv-x="1024" 
d="M672 1587h-223l-281 324h332z" />
    <glyph glyph-name="Hungarumlaut" unicode="&#xf6cf;" horiz-adv-x="1024" 
d="M565 1587l135 324h314l-244 -324h-205zM201 1587l135 324h313l-241 -324h-207z" />
    <glyph glyph-name="Macron" unicode="&#xf6d0;" horiz-adv-x="1024" 
d="M180 1628v211h664v-211h-664z" />
    <glyph glyph-name="zerooldstyle" unicode="&#xf730;" horiz-adv-x="1116" 
d="M702 485v162q0 158 -32 215q-33 58 -117 58t-113 -56t-28 -217v-162q0 -158 28 -214t113 -56q84 0 117 57q32 57 32 213zM100 489v154q0 154 24 244q72 270 425 270q266 0 379 -145q86 -109 86 -369v-154q0 -155 -25 -243q-76 -270 -440 -269q-258 0 -367 146
q-82 106 -82 366z" />
    <glyph glyph-name="oneoldstyle" unicode="&#xf731;" horiz-adv-x="790" 
d="M281 0v809l-226 -92l-98 239l432 177h207v-1133h-315z" />
    <glyph glyph-name="twooldstyle" unicode="&#xf732;" horiz-adv-x="950" 
d="M0 0v190l322 287q117 101 186 191q70 90 70 142t-34 81t-93 29q-135 0 -162 -154l-283 61q35 170 144 250t305 80q426 0 426 -334q0 -139 -103 -258q-40 -47 -68 -73t-155 -136l-137 -118h479v-238h-897z" />
    <glyph glyph-name="threeoldstyle" unicode="&#xf733;" horiz-adv-x="983" 
d="M434 -100q176 0 176 214q0 96 -58 154q-58 59 -157 60h-149v241h129q199 0 198 172q0 178 -133 179q-111 0 -129 -146l-282 60q41 174 139 248t298 75q200 0 310 -101t109 -296q0 -115 -38 -186t-126 -123q113 -66 157 -143t44 -208q0 -438 -476 -438q-208 0 -316 68
t-155 225l291 100q18 -156 168 -155z" />
    <glyph glyph-name="fouroldstyle" unicode="&#xf734;" horiz-adv-x="985" 
d="M588 -315v315h-568v188l404 945h334l-408 -900h238v326h264v-326h127v-233h-127v-315h-264z" />
    <glyph glyph-name="fiveoldstyle" unicode="&#xf735;" horiz-adv-x="1001" 
d="M881 1133v-256h-459l-27 -285l21 4q74 20 127 20q205 0 301 -118q82 -100 82 -351t-101 -358q-115 -127 -360 -127q-195 0 -301 70t-150 223l291 100q16 -156 154 -155q82 0 119 55q36 55 36 184t-31 185q-32 55 -119 55t-136 -84l-232 47l64 791h721z" />
    <glyph glyph-name="sixoldstyle" unicode="&#xf736;" horiz-adv-x="1110" 
d="M705 466q0 142 -32 198t-116 55q-84 0 -117 -54q-32 -53 -32 -197t32 -199q33 -54 116 -54t116 55q33 54 33 196zM647 944q125 0 234 -80q75 -57 105 -147t30 -247t-26 -245q-73 -246 -433 -248q-258 0 -371 127q-90 96 -90 353q0 139 29 244t98 223l305 508h353
l-312 -490l9 -2l51 4h18z" />
    <glyph glyph-name="sevenoldstyle" unicode="&#xf737;" horiz-adv-x="854" 
d="M-12 877v256h807v-187l-387 -1261h-336l395 1192h-479z" />
    <glyph glyph-name="eightoldstyle" unicode="&#xf738;" horiz-adv-x="1136" 
d="M568 633q-91 0 -126 -43q-34 -43 -34 -165t34 -171t125 -49q90 0 126 49t36 170t-35 165t-126 44zM568 1227q-78 0 -106 -41q-28 -42 -28 -148t29 -147t105 -41t106 41q29 41 28 147q0 106 -28 148q-29 41 -106 41zM139 1062q1 198 103 295t325 97t327 -98t103 -296
q0 -198 -114 -288q83 -53 119 -132t36 -210q0 -240 -110 -346t-360 -106t-360 106t-110 346q0 131 36 210t120 132q-115 92 -115 290z" />
    <glyph glyph-name="nineoldstyle" unicode="&#xf739;" horiz-adv-x="1110" 
d="M559 920q-84 0 -117 -56q-32 -56 -32 -196q0 -141 31 -198q32 -56 116 -56t117 54t33 198t-32 198q-32 56 -116 56zM98 664q0 158 26 246q74 248 433 247q256 0 371 -127q90 -98 90 -354q0 -140 -28 -240t-99 -225l-305 -526h-353l314 508h-10q-59 -4 -68 -5
q-127 0 -236 80q-75 58 -105 148t-30 248z" />
    <glyph glyph-name="Dbreve" horiz-adv-x="1370" 
d="M637 1565q-248 0 -322 153q-24 52 -30 189h184q12 -76 50 -103q38 -26 128 -26t128 26t50 103h183q-4 -150 -43 -211q-80 -131 -328 -131zM479 250h137q178 -2 242 68q63 71 66 278v270q-2 207 -66 278t-242 68h-137v-962zM164 0v1462h510q297 4 435 -135t130 -436v-320
q8 -297 -130 -435t-435 -136h-510z" />
    <glyph glyph-name="ahungarumlaut" horiz-adv-x="1097" 
d="M602 1186l135 323h314l-244 -323h-205zM238 1186l135 323h313l-242 -323h-206zM668 453h-158q-82 0 -118 -30q-36 -29 -36 -99t35 -97t123 -27t121 36q33 35 33 131v86zM668 649v35q0 164 -156 164q-117 0 -199 -103l-204 144q137 197 436 197t385 -191q37 -82 37 -266
v-629h-234l-18 55q-92 -78 -284 -78q-191 0 -273 77q-82 76 -82 264t86 260t311 71h195z" />
    <glyph glyph-name="uni0204.sc" horiz-adv-x="1015" 
d="M487 1260h-204l-244 323h313zM852 1260h-207l-242 323h314zM139 0v1133h783v-238h-484v-205h410v-237h-410v-215h492v-238h-791z" />
    <glyph glyph-name="uni0206.sc" horiz-adv-x="1015" 
d="M550 1597q249 0 320 -153q25 -52 31 -189h-182q-14 76 -51 103q-37 26 -127 26t-128 -26t-51 -103h-184q8 150 43 211q80 131 329 131zM147 0v1133h785v-238h-486v-205h410v-237h-410v-215h494v-238h-793z" />
    <glyph glyph-name="uni0208.sc" horiz-adv-x="595" 
d="M246 1260h-205l-244 323h314zM610 1260h-207l-241 323h313zM147 0v1133h304v-1133h-304z" />
    <glyph glyph-name="uni020A.sc" horiz-adv-x="595" 
d="M308 1597q248 0 321 -153q24 -52 30 -189h-182q-14 76 -51 103q-37 26 -127 26t-128 -26t-50 -103h-184q8 150 43 211q80 131 328 131zM147 0v1133h304v-1133h-304z" />
    <glyph glyph-name="uni020C.sc" horiz-adv-x="1161" 
d="M512 1260h-205l-244 323h314zM877 1260h-207l-242 323h313zM729 473v186q0 143 -37 201t-128 60q-91 0 -128 -58t-37 -203v-186q0 -143 37 -201t128 -57q91 -1 128 57t37 201zM96 455v225q0 139 23 219q23 79 82 141t144 90t224 27q139 0 229 -33t150 -108
q84 -100 84 -336v-225q0 -139 -22 -221q-71 -258 -445 -257q-274 0 -385 140q-84 105 -84 338z" />
    <glyph glyph-name="uni020E.sc" horiz-adv-x="1161" 
d="M591 1597q249 0 320 -153q25 -52 31 -189h-182q-14 76 -51 103q-37 26 -127 26t-128 -26t-51 -103h-184q8 150 43 211q80 131 329 131zM745 473v186q0 143 -36 202q-37 59 -128 59t-128 -58t-37 -203v-186q0 -143 37 -201t128 -57q91 0 128 57q36 58 36 201zM113 455v225
q0 139 22 219q23 79 82 141t144 90t225 27q140 0 229 -33q90 -33 150 -108q84 -100 84 -336v-225q0 -139 -23 -221q-73 -257 -444 -257q-274 0 -385 140q-84 105 -84 338z" />
    <glyph glyph-name="uni0210.sc" horiz-adv-x="1124" 
d="M481 1260h-205l-243 323h313zM846 1260h-207l-242 323h314zM446 645h146q70 0 100 33t31 99q0 66 -32 94t-101 28h-144v-254zM451 432v-432h-304v1133h467q224 0 318 -77t94 -265q0 -139 -46 -211t-161 -107l268 -473h-346l-217 432h-73z" />
    <glyph glyph-name="uni0212.sc" horiz-adv-x="1124" 
d="M542 1597q248 0 320 -153q25 -52 31 -189h-182q-13 76 -51 103q-38 26 -128 26t-128 -26t-50 -103h-184q8 150 43 211q81 131 329 131zM446 645h146q70 0 100 32t31 99q0 67 -32 95t-101 28h-144v-254zM451 432v-432h-304v1133h467q224 0 318 -77t94 -265
q0 -139 -46 -211t-161 -107l268 -473h-346l-217 432h-73z" />
    <glyph glyph-name="uni0214.sc" horiz-adv-x="1189" 
d="M528 1260h-204l-244 323h313zM893 1260h-207l-242 323h314zM125 1133h303v-709q0 -119 33 -164t120 -45t119 45t33 164v709h303v-709q0 -131 -16 -199q-58 -248 -438 -248q-291 0 -398 150q-59 84 -59 297v709z" />
    <glyph glyph-name="uni0216.sc" horiz-adv-x="1189" 
d="M605 1597q249 0 321 -153q24 -52 30 -189h-182q-14 76 -51 103q-37 26 -127 26t-128 -26t-50 -103h-185q8 150 43 211q80 131 329 131zM139 1133h303v-709q0 -119 33 -164t119 -45t119 45t32 164v709h304v-709q-1 -131 -17 -199q-60 -248 -438 -248q-289 0 -395 150
q-59 84 -60 297v709z" />
    <glyph glyph-name="uni1E24.sc" horiz-adv-x="1187" 
d="M449 -436v274h288v-274h-288zM145 0v1133h304v-443h290v443h303v-1133h-303v453h-290v-453h-304z" />
    <glyph glyph-name="uni1E5A.sc" horiz-adv-x="1124" 
d="M434 -436v274h289v-274h-289zM446 645h146q70 0 100 32t31 99q0 67 -32 95t-101 28h-144v-254zM451 432v-432h-304v1133h467q224 0 318 -77t94 -265q0 -139 -46 -211t-161 -107l268 -473h-346l-217 432h-73z" />
    <glyph glyph-name="uni1E62.sc" horiz-adv-x="978" 
d="M344 -436v274h289v-274h-289zM477 215q162 0 162 111q0 58 -37 76q-38 18 -208 59t-249 119q-77 78 -77 238t105 249q105 90 289 90t288 -51t168 -164l-234 -139q-51 69 -91 93q-39 24 -101 24t-96 -28t-34 -76t44 -78t192 -64q147 -34 215 -76q121 -72 121 -260
q0 -360 -449 -361q-227 0 -358 86q-64 44 -123 140l242 145q45 -76 97 -104t134 -29z" />
    <glyph glyph-name="uni1E6C.sc" horiz-adv-x="927" 
d="M319 -436v274h289v-274h-289zM313 0v895h-307v238h918v-238h-308v-895h-303z" />
    <glyph glyph-name="uni1E92.sc" horiz-adv-x="989" 
d="M365 -436v274h288v-274h-288zM90 0v190l440 705h-417v238h774v-191l-441 -704h465v-238h-821z" />
    <glyph glyph-name="uni1E44.sc" horiz-adv-x="1241" 
d="M477 1264v274h289v-274h-289zM145 0v1133h291l363 -648v648h295v-1133h-269l-385 662v-662h-295z" />
    <glyph glyph-name="uni1E0C.sc" horiz-adv-x="1165" 
d="M395 -436v274h289v-274h-289zM449 233h79q125 -3 170 47t50 189v195q-4 139 -50 188t-170 47h-79v-666zM145 0v1133h430q252 4 367 -105t109 -346v-231q6 -238 -108 -346t-368 -105h-430z" />
    <glyph glyph-name="uni1E02.sc" horiz-adv-x="1095" 
d="M377 1264v274h289v-274h-289zM436 227h203q106 0 106 122t-106 122h-203v-244zM436 680h182q109 0 109 113t-109 112h-182v-225zM145 0v1133h484q209 0 302 -76q93 -77 93 -231t-82 -234q55 -54 78 -112t22 -154q0 -188 -114 -267q-84 -59 -279 -59h-504z" />
    <glyph glyph-name="idotaccent" horiz-adv-x="579" 
d="M139 0v1061h299v-1061h-299zM139 1198v281h299v-281h-299z" />
    <glyph glyph-name="one.fitted" horiz-adv-x="790" 
d="M281 0v1137l-226 -93l-98 240l432 178h207v-1462h-315z" />
    <glyph glyph-name="two.fitted" horiz-adv-x="1054" 
d="M18 0v203l410 491q111 132 158 226t47 178q0 133 -137 133q-100 0 -140 -84q-27 -51 -32 -111l-289 21q20 428 471 428q214 -1 326 -105t112 -284q0 -225 -167 -434q-28 -35 -154 -183l-193 -223h512v-256h-924z" />
    <glyph glyph-name="three.fitted" horiz-adv-x="1036" 
d="M477 231q168 0 168 199q0 98 -58 158t-157 61h-127v242h107q201 0 200 174q0 166 -139 166t-162 -156l-278 21q25 389 454 389q213 1 325 -103t112 -303q0 -113 -34 -183t-114 -124q102 -66 142 -144t40 -210q0 -440 -469 -440t-491 407l295 35q20 -188 186 -189z" />
    <glyph glyph-name="four.fitted" horiz-adv-x="1107" 
d="M629 0v250h-576v188l447 1024h331l-421 -962h219v327h280v-327h127v-250h-127v-250h-280z" />
    <glyph glyph-name="five.fitted" horiz-adv-x="1097" 
d="M944 1462v-256h-502l-24 -276l18 2q68 16 121 16q231 0 338 -123q94 -102 94 -357t-102 -364q-121 -127 -373 -127q-436 0 -457 408l295 35q20 -188 168 -189q82 -1 120 53t38 179t-37 181t-134 56t-159 -82l-229 48l63 796h762z" />
    <glyph glyph-name="six.fitted" horiz-adv-x="1122" 
d="M567 702q-85 0 -117 -51t-32 -184t33 -184t115 -51t116 50q33 52 33 184t-32 184t-116 52zM1026 471q0 -158 -26 -246q-73 -246 -433 -248q-258 0 -370 127q-90 96 -91 353q0 141 26 237t101 230l306 538h352l-311 -520h18l53 4q47 4 121 -21q176 -62 224 -207
q30 -89 30 -247z" />
    <glyph glyph-name="seven.fitted" horiz-adv-x="854" 
d="M-12 1206v256h807v-186l-387 -1276h-336l395 1206h-479z" />
    <glyph glyph-name="eight.fitted" horiz-adv-x="1155" 
d="M578 637q-92 0 -127 -44t-35 -159t35 -159t126 -44t127 44t35 158q0 114 -34 159q-35 45 -127 45zM577 874q77 0 107 41t29 145q1 104 -29 146q-30 41 -107 41t-107 -40q-30 -41 -30 -147t30 -146t107 -40zM1051 432q0 -240 -107 -340q-117 -115 -368 -115
q-250 1 -362 107t-112 348q0 131 32 210t106 134q-94 102 -94 305t102 303q104 100 330 100t327 -100q103 -100 103 -302t-97 -306q76 -55 108 -134t32 -210z" />
    <glyph glyph-name="nine.fitted" horiz-adv-x="1122" 
d="M555 1231q-80 0 -115 -47q-34 -47 -34 -161t34 -163t114 -49q79 0 114 49q34 49 34 161t-33 161q-34 49 -114 49zM510 569q-168 0 -268 66q-82 51 -115 139t-33 240t27 235q75 234 439 235t432 -248q22 -77 22 -211t-18 -208t-81 -192l-333 -625h-353l318 569h-37z" />
    <glyph glyph-name="zero.fitted" horiz-adv-x="1165" 
d="M739 578v307q1 199 -33 273t-124 73q-90 0 -124 -75t-34 -271v-307q0 -197 34 -272t124 -75t124 74q33 74 33 273zM115 551v360q0 299 100 426q63 78 149 113t222 35q137 0 228 -41t153 -131q82 -121 82 -402v-360q0 -297 -101 -426q-63 -78 -148 -113t-222 -35
q-136 0 -228 41t-153 132q-82 125 -82 401z" />
    <glyph glyph-name="sterling.fitted" horiz-adv-x="1140" 
d="M106 0v221q233 53 234 258q0 39 -14 90h-222v256h101q-57 133 -58 242q0 203 111 311q110 108 340 107q230 0 352 -137q57 -63 109 -197l-250 -102q-39 80 -64 114q-59 74 -135 74t-113 -37q-36 -38 -36 -102t17 -121t69 -152h344v-256h-266q10 -43 10 -73
q0 -147 -113 -240h576v-256h-992z" />
    <glyph glyph-name="dollar.fitted" horiz-adv-x="1226" 
d="M605 262q228 0 229 150q0 84 -62 120q-32 20 -62 30t-184 44q-223 52 -320 154t-97 278q0 344 358 406v223h307v-231q225 -43 322 -222l-234 -147q-94 135 -266 135q-88 0 -137 -37t-49 -109t58 -113q58 -42 246 -87t275 -102q145 -90 146 -318q0 -180 -87 -280
t-274 -133v-302h-307v295q-313 41 -422 248l240 152q92 -154 320 -154z" />
    <glyph glyph-name="cent.fitted" horiz-adv-x="1017" 
d="M420 16v254q-311 68 -301 504v55q-8 438 301 512v236h307v-242q160 -49 236 -194l-213 -119q-39 59 -78 83t-97 23q-168 0 -167 -270v-113q0 -264 176 -264q115 0 182 107l215 -121q-82 -145 -254 -193v-258h-307z" />
    <glyph glyph-name="Euro.fitted" horiz-adv-x="1185" 
d="M190 616v91h-174l64 165h110v27q0 297 107 426q123 152 363 152q240 1 353 -105q112 -106 120 -330l-289 -20q-18 201 -164 201q-94 0 -134 -75t-40 -257v-19h485l-65 -165h-420v-91h377l-64 -165h-307q12 -127 57 -179t148 -51q160 0 180 139l268 -34
q-10 -184 -122 -272t-336 -87q-487 0 -514 484h-175l64 165h108z" />
    <glyph glyph-name="yen.fitted" horiz-adv-x="1218" 
d="M451 0v274h-287v166h287v88h-287v166h209l-369 768h334l270 -618l271 618h333l-368 -768h209v-166h-287v-88h287v-166h-287v-274h-315z" />
    <glyph glyph-name="one.numerator" horiz-adv-x="741" 
d="M268 586v657l-143 -51l-62 166l285 104h160v-876h-240z" />
    <glyph glyph-name="two.numerator" horiz-adv-x="741" 
d="M66 586v145l253 285q119 135 119 215q0 29 -20 47t-51 18q-84 0 -97 -112l-221 16q10 137 68 197q82 82 258 82q303 0 303 -256q0 -100 -62 -197q-31 -45 -133 -160l-90 -98h281v-182h-608z" />
    <glyph glyph-name="three.numerator" horiz-adv-x="741" 
d="M229 969v153h86q49 0 79 26t30 64t-23 60q-23 23 -57 22q-76 0 -94 -90l-213 17q8 129 67 182q80 74 252 74q307 0 308 -250q0 -123 -78 -178q102 -72 102 -208t-80 -203t-251 -67q-171 1 -253 63t-90 202l226 26q8 -57 34 -83t78 -25q96 0 97 94q0 121 -121 121h-99z
" />
    <glyph glyph-name="four.numerator" horiz-adv-x="741" 
d="M416 586v133h-381v135l293 608h250l-275 -565h113v145h209v-145h82v-178h-82v-133h-209z" />
    <glyph glyph-name="five.numerator" horiz-adv-x="741" 
d="M651 1462v-182h-325l-13 -133q47 8 72 8q156 1 225 -65q70 -66 70 -223t-76 -227t-248 -69q-313 0 -313 265l223 26q12 -109 94 -108q80 0 80 106q0 68 -19 98t-73 29q-54 0 -88 -49l-180 33l45 491h526z" />
    <glyph glyph-name="six.numerator" horiz-adv-x="741" 
d="M372 1001q-46 0 -66 -30q-19 -31 -19 -101t20 -100q19 -30 65 -31q46 0 66 31q20 30 20 100t-20 100t-66 31zM688 872q0 -98 -17 -152q-46 -147 -298 -149q-178 0 -254 76q-61 59 -62 215q1 90 17 148t67 137l201 315h276l-202 -299l16 -2q94 0 164 -45q52 -35 72 -90
q20 -56 20 -154z" />
    <glyph glyph-name="seven.numerator" horiz-adv-x="741" 
d="M70 1280v182h581v-133l-278 -743h-258l280 694h-325z" />
    <glyph glyph-name="eight.numerator" horiz-adv-x="741" 
d="M373 967q-51 0 -74 -27t-23 -87t22 -87t73 -27t73 27t21 86q0 115 -92 115zM372 1321q-85 -1 -85 -107t85 -106t85 106t-85 107zM76 1233q0 123 69 183q70 60 227 60q156 0 226 -60t70 -180t-52 -183q78 -63 78 -208t-74 -209t-249 -65q-174 0 -249 65q-75 64 -75 212
t78 205q-49 57 -49 180z" />
    <glyph glyph-name="nine.numerator" horiz-adv-x="741" 
d="M455 1192q0 117 -86 117t-86 -117t86 -117t86 117zM369 1477q174 0 252 -72q63 -61 63 -209q0 -86 -11 -129t-55 -117l-219 -364h-274l205 327q-156 3 -216 65t-60 216t70 218q71 64 245 65z" />
    <glyph glyph-name="zero.numerator" horiz-adv-x="741" 
d="M459 934v178q-1 106 -21 152t-68 45q-48 0 -68 -45t-21 -152v-178q0 -104 20 -150q21 -46 69 -45q48 -1 68 45t21 150zM51 920v208q0 182 68 261q80 88 257 88t257 -103q55 -78 55 -246v-208q0 -184 -67 -261q-80 -88 -257 -88t-258 103q-55 78 -55 246z" />
    <glyph glyph-name="one.denominator" horiz-adv-x="741" 
d="M268 0v657l-143 -51l-62 166l285 105h160v-877h-240z" />
    <glyph glyph-name="two.denominator" horiz-adv-x="741" 
d="M66 0v145l253 287q119 133 119 213q0 29 -20 47t-51 19q-84 0 -97 -113l-221 16q10 137 68 197q82 82 258 82q303 0 303 -256q0 -100 -62 -197q-31 -47 -133 -159l-90 -99h281v-182h-608z" />
    <glyph glyph-name="three.denominator" horiz-adv-x="741" 
d="M229 385v154h86q49 -1 79 25t30 64t-23 60t-57 23q-76 0 -94 -90l-213 16q8 127 67 180q80 74 252 74q307 0 308 -250q0 -121 -78 -176q102 -72 102 -209t-80 -204q-80 -66 -251 -66t-253 63t-90 203l226 24q8 -56 34 -82t78 -26q96 0 97 94q0 123 -121 123h-99z" />
    <glyph glyph-name="four.denominator" horiz-adv-x="741" 
d="M416 0v133h-381v135l293 609h250l-275 -566h113v146h209v-146h82v-178h-82v-133h-209z" />
    <glyph glyph-name="five.denominator" horiz-adv-x="741" 
d="M651 877v-183h-325l-13 -133q37 8 72 8q156 0 231 -69q64 -61 64 -218t-76 -227t-248 -69q-313 0 -313 264l223 26q12 -109 94 -108q80 0 80 106q0 68 -19 98t-73 30t-88 -50l-180 33l45 492h526z" />
    <glyph glyph-name="six.denominator" horiz-adv-x="741" 
d="M372 416q-46 0 -66 -31t-19 -101q0 -70 19 -100q20 -30 66 -30t66 30t21 101q-1 71 -21 101t-66 30zM688 287q0 -99 -17 -153q-46 -148 -298 -148q-178 0 -254 75q-61 59 -62 215q1 90 17 148t67 137l201 316h276l-202 -299l16 -3q94 0 164 -45q52 -35 72 -90t20 -153z
" />
    <glyph glyph-name="seven.denominator" horiz-adv-x="741" 
d="M70 694v183h581v-134l-278 -743h-258l280 694h-325z" />
    <glyph glyph-name="eight.denominator" horiz-adv-x="741" 
d="M373 381q-51 0 -74 -27t-23 -87t22 -87q22 -26 73 -26t73 26t21 86q0 115 -92 115zM372 735q-85 -1 -85 -107t85 -106t85 106t-85 107zM76 647q0 123 69 183q70 60 227 60q156 0 226 -60t70 -180t-52 -183q78 -63 78 -208t-74 -209t-249 -64q-174 0 -249 64t-75 212
t78 205q-49 57 -49 180z" />
    <glyph glyph-name="nine.denominator" horiz-adv-x="741" 
d="M455 606q0 117 -86 117t-86 -117t86 -117t86 117zM369 891q174 0 252 -72q63 -61 63 -209q0 -88 -11 -131t-55 -114l-219 -365h-274l205 328q-156 4 -216 65t-60 215t70 218q71 64 245 65z" />
    <glyph glyph-name="zero.denominator" horiz-adv-x="741" 
d="M459 348v178q-1 106 -21 152t-68 45q-48 0 -68 -45t-21 -152v-178q0 -104 20 -149q21 -45 69 -45t68 45t21 149zM51 334v209q0 182 74 265t251 83t257 -103q55 -78 55 -245v-209q0 -184 -74 -266t-250 -82q-177 0 -258 102q-55 78 -55 246z" />
    <glyph glyph-name="oneone" horiz-adv-x="1871" 
d="M483 0l465 1462h277l-465 -1462h-277zM1337 0v657l-143 -51l-61 166l284 105h160v-877h-240zM289 586v657l-144 -51l-61 166l285 104h159v-876h-239z" />
    <glyph glyph-name="Dotaccent" horiz-adv-x="1024" 
d="M367 1591v275h288v-275h-288z" />
    <glyph glyph-name="Ring" horiz-adv-x="1024" 
d="M511 1913q-91 1 -91 -105t91 -106t91 106t-91 105zM511 2048q124 0 198 -66q73 -66 73 -174t-76 -174q-76 -68 -195 -68q-120 0 -196 68q-75 68 -75 176t74 174q74 64 197 64z" />
    <glyph glyph-name="Circumflex" horiz-adv-x="1024" 
d="M512 1745l-113 -156h-278l280 320h220l280 -320h-278z" />
    <glyph glyph-name="Breve" horiz-adv-x="1024" 
d="M502 1565q-248 0 -322 153q-24 52 -30 189h184q12 -76 50 -103q38 -26 128 -26t128 26t50 103h182q-4 -150 -43 -211q-79 -131 -327 -131z" />
    <glyph glyph-name="Tilde" horiz-adv-x="1024" 
d="M385 1911q91 -1 153 -53t76 -61t33 -9q51 0 66 108h180q-18 -131 -41 -188q-55 -131 -203 -131q-97 -1 -165 61t-97 62t-51 -30t-27 -79h-178q25 131 53 191q66 129 201 129z" />
    <glyph glyph-name="Cedilla" horiz-adv-x="1024" 
d="M330 -498l100 373h283l-183 -373h-200z" />
    <glyph glyph-name="Ogonek" horiz-adv-x="1024" 
d="M702 -291q57 0 127 25l33 -144q-102 -43 -231 -43q-129 -1 -204 49t-75 134t51 146t168 124h220q-176 -133 -177 -217q0 -74 88 -74z" />
    <glyph glyph-name="Commaaccent" horiz-adv-x="1024" 
d="M330 -498l100 373h283l-183 -373h-200z" />
    <glyph glyph-name="Comma.high" horiz-adv-x="333" 
d="M-8 905l71 596h281l-143 -596h-209z" />
    <glyph glyph-name="Croatumlaut" horiz-adv-x="1024" 
d="M459 1587h-205l-244 324h314zM823 1587h-207l-241 324h313z" />
    <glyph glyph-name="Croatbreve" horiz-adv-x="1024" 
d="M522 1927q248 0 320 -153q24 -54 30 -189h-182q-14 76 -51 103q-37 26 -127 26t-128 -26t-50 -103h-184q8 150 43 211q81 131 329 131z" />
    <glyph glyph-name="Cicumflexacute" horiz-adv-x="1024" 
d="M748 1765l141 267h307l-281 -324h-116l102 -119h-278l-111 158l-113 -158h-278l280 320h220z" />
    <glyph glyph-name="Ringacute" horiz-adv-x="1024" 
d="M401 1845l117 266h318l-258 -266h-177zM602 1570q0 106 -91 105q-91 0 -91 -105t90 -106q92 0 92 106zM513 1810q124 0 197 -66q72 -66 72 -172q0 -108 -76 -176t-195 -67q-120 0 -196 68q-75 69 -75 177t74 172q75 64 199 64z" />
    <glyph glyph-name="croatumlaut" horiz-adv-x="1024" 
d="M459 1186h-205l-244 323h314zM823 1186h-207l-241 323h313z" />
    <glyph glyph-name="croatbreve" horiz-adv-x="1024" 
d="M512 1313q-90 0 -128 -28t-50 -101h-184q8 150 43 211q81 131 329 131t320 -154q24 -51 30 -188h-182q-14 76 -51 102t-127 27z" />
    <glyph glyph-name="cicumflexacute" horiz-adv-x="1024" 
d="M748 1364l141 266h307l-281 -323h-116l102 -119h-278l-111 155l-113 -155h-278l280 319h220z" />
    <glyph glyph-name="ringacute" horiz-adv-x="1024" 
d="M401 1681l117 267h318l-258 -267h-177zM602 1406q0 106 -91 105q-91 0 -91 -105t90 -106q92 0 92 106zM511 1647q124 0 198 -66q73 -65 73 -173t-74 -176t-196 -67q-121 0 -197 68q-75 69 -75 177t74 172t197 65z" />
    <glyph glyph-name="Ohorn.sc" horiz-adv-x="1265" 
d="M745 473v186q0 143 -36 202q-37 59 -128 59t-128 -58t-37 -203v-186q0 -143 37 -201t128 -57q91 0 128 58q36 59 36 200zM1321 1049q0 -109 -61 -189t-211 -164v-241q0 -137 -24 -218t-77 -141q-120 -119 -380 -119t-371 140q-84 104 -84 338v225q0 139 22 219
q74 258 445 258q198 1 306 -67t144 -211q8 8 10 8q47 53 47 129t-43 141h259q18 -53 18 -108z" />
    <glyph glyph-name="Uhorn.sc" horiz-adv-x="1376" 
d="M139 1133h303v-709q0 -119 33 -164t119 -45t119 45t32 164v709h304v-322q85 39 119 84t34 119t-43 143h258q18 -55 19 -108q0 -176 -189 -304q-59 -39 -198 -112v-209q-1 -131 -17 -199q-60 -248 -438 -248q-289 0 -395 150q-59 84 -60 297v709z" />
    <glyph glyph-name="uni1EA0.sc" horiz-adv-x="1038" 
d="M375 -436v274h289v-274h-289zM647 426l-125 401l-125 -401h250zM711 203h-377l-62 -203h-331l428 1133h307l428 -1133h-334z" />
    </font>
</defs>
</svg>
