<?xml version="1.0" standalone="no"?>
<!DOCTYPE svg PUBLIC "-//W3C//DTD SVG 1.1//EN" "http://www.w3.org/Graphics/SVG/1.1/DTD/svg11.dtd" >
<svg xmlns="http://www.w3.org/2000/svg">
<metadata>
Created by FontPrep 20130207 at Fri May 26 16:13:13 2017
 By Lizzy Knight
Copyright 2016 by URW++ Design &#38; Development GmbH
</metadata>
<defs>
<font id="386fd3235bc467aded5d98fd924b700d" horiz-adv-x='1024' >
  <font-face 
    font-family="URWDINSemiCond-DemiItalic"
    font-weight="600"
    font-style="italic"
    font-stretch="normal"
    units-per-em="2048"
    panose-1="0 0 7 0 0 0 0 0 0 0"
    ascent="1462"
    descent="-586"
    x-height="1051"
    cap-height="1462"
    bbox="-354 -500 2355 2114"
    underline-thickness="165"
    underline-position="-125"
    slope="-10"
    unicode-range="U+0020-FB04"
  />
<missing-glyph horiz-adv-x="368" 
 />
    <glyph glyph-name="ff" unicode="ff" horiz-adv-x="1179" 
d="M786 862h-100l33 189h100l27 141q27 162 95 218q69 56 237 52h131l-31 -174h-57q-80 2 -107 -22t-43 -117l-18 -98h190l-33 -189h-190l-152 -862h-233zM225 862h-108l33 189h108l27 141q27 162 95 218q69 56 236 52h119l-30 -174h-46q-79 2 -107 -22t-42 -117l-18 -98
h141l-35 -189h-139l-152 -862h-233z" />
    <glyph glyph-name="fi" unicode="fi" horiz-adv-x="1107" 
d="M653 0l185 1051h233l-184 -1051h-234zM868 1219l45 254h234l-45 -254h-234zM225 862h-108l33 189h108l27 141q27 162 95 218q69 56 236 52h129l-28 -174h-58q-79 2 -107 -22t-42 -117l-18 -98h190l-33 -189h-190l-152 -862h-233z" />
    <glyph glyph-name="fl" unicode="fl" horiz-adv-x="1171" 
d="M942 284q0 -92 137 -91h25l-33 -193h-37q-184 0 -257 51t-72 178q0 84 24 226l178 1007h234l-189 -1063q-10 -71 -10 -115zM225 862h-108l33 189h108l27 141q27 162 95 218q69 56 236 52h129l-28 -174h-58q-79 2 -107 -22t-42 -117l-18 -98h190l-33 -189h-190l-152 -862
h-233z" />
    <glyph glyph-name="ffi" unicode="ffi" horiz-adv-x="1671" 
d="M786 862h-100l33 189h100l27 141q27 162 95 218q69 56 237 52h131l-31 -174h-57q-80 2 -107 -22t-43 -117l-18 -98h190l-33 -189h-190l-152 -862h-233zM1214 0l185 1051h233l-184 -1051h-234zM1430 1219l45 254h231l-43 -254h-233zM225 862h-108l33 189h108l27 141
q27 162 95 218q69 56 236 52h119l-30 -174h-46q-79 2 -107 -22t-42 -117l-18 -98h141l-35 -189h-139l-152 -862h-233z" />
    <glyph glyph-name="ffl" unicode="ffl" horiz-adv-x="1732" 
d="M786 862h-100l33 189h100l27 141q27 162 95 218q69 56 237 52h131l-31 -174h-57q-80 2 -107 -22t-43 -117l-18 -98h190l-33 -189h-190l-152 -862h-233zM1597 0q-184 0 -258 51t-73 178q0 84 26 226l178 1007h232l-186 -1063q-12 -75 -12 -117q-1 -91 136 -89h27l-35 -193
h-35zM225 862h-108l33 189h108l27 141q27 162 95 218q69 56 236 52h119l-30 -174h-46q-79 2 -107 -22t-42 -117l-18 -98h141l-35 -189h-139l-152 -862h-233z" />
    <glyph glyph-name=".notdef" horiz-adv-x="368" 
 />
    <glyph glyph-name=".null" horiz-adv-x="0" 
 />
    <glyph glyph-name="nonmarkingreturn" horiz-adv-x="681" 
 />
    <glyph glyph-name="space" unicode=" " horiz-adv-x="368" 
 />
    <glyph glyph-name="exclam" unicode="!" horiz-adv-x="598" 
d="M90 0l43 250h236l-43 -250h-236zM182 410l150 1052h264l-221 -1052h-193z" />
    <glyph glyph-name="quotedbl" unicode="&#x22;" horiz-adv-x="800" 
d="M539 883l84 579h243l-121 -579h-206zM180 883l84 579h244l-121 -579h-207z" />
    <glyph glyph-name="numbersign" unicode="#" horiz-adv-x="980" 
d="M414 596h159l60 211h-158zM219 596l62 211h-156l45 151h156l102 351h195l-105 -351h160l104 351h193l-103 -351h150l-43 -151h-152l-61 -211h149l-45 -152h-149l-100 -348h-195l102 348h-159l-103 -348h-192l100 348h-156l45 152h156z" />
    <glyph glyph-name="dollar" unicode="$" horiz-adv-x="983" 
d="M426 209q150 0 211 104q41 71 41 143t-28 104t-55 42q-25 10 -155 50t-202 134t-72 230q0 190 96 300t279 132l39 217h239l-43 -235q104 -27 156 -93t63 -184l-217 -59q-18 92 -54 127t-122 35t-143 -60t-57 -144t43 -124q45 -40 179 -82q134 -43 199 -98q96 -74 97 -232
q0 -102 -32 -198t-85 -158q-92 -109 -275 -140l-51 -294h-239l53 299q-143 31 -212 109t-75 218l219 62q7 -109 55 -157t148 -48z" />
    <glyph glyph-name="percent" unicode="%" horiz-adv-x="1697" 
d="M449 0l655 1462h217l-655 -1462h-217zM1341 633q-59 0 -90 -40t-47 -138l-24 -146q-10 -57 -11 -88q0 -92 88 -92q57 0 89 41q31 41 49 139l24 140q10 57 11 92q0 92 -89 92zM981 338l27 145q27 162 104 230q78 68 236 67q287 0 286 -215q0 -47 -14 -123l-27 -147
q-27 -166 -105 -240t-237 -73q-285 0 -284 221q0 43 14 135zM600 1243q0 92 -88 92q-59 0 -90 -40t-47 -140l-25 -145q-10 -47 -10 -88q0 -92 88 -93q57 -1 88 41t49 140l25 141q10 61 10 92zM518 1483q287 0 287 -215q0 -41 -14 -125l-27 -146q-28 -167 -104 -241t-240 -74
q-283 0 -283 221q1 41 15 137l26 146q27 154 96 221q84 76 244 76z" />
    <glyph glyph-name="ampersand" unicode="&#x26;" horiz-adv-x="1396" 
d="M772 264l-188 357q-119 -70 -170 -121q-100 -100 -101 -221q0 -139 162 -140q102 0 207 60q12 6 90 65zM911 1188q0 117 -120 117q-74 1 -121 -55q-48 -56 -48 -130t70 -217q219 121 219 285zM68 260q0 193 145 348q49 51 95 84t171 105q-90 189 -90 287q0 190 115 299
t284 109t263 -80q94 -81 94 -224q0 -264 -350 -455l149 -291q76 106 137 252h228q-111 -274 -252 -438l147 -256h-280l-50 94q-121 -84 -221 -120t-223 -35q-178 -1 -270 81t-92 240z" />
    <glyph glyph-name="quotesingle" unicode="'" horiz-adv-x="442" 
d="M180 883l84 579h244l-121 -579h-207z" />
    <glyph glyph-name="parenleft" unicode="(" horiz-adv-x="792" 
d="M217 416q0 338 136 668t374 587l152 -112q-412 -555 -412 -1168q-1 -270 108 -549l-172 -100q-186 336 -186 674z" />
    <glyph glyph-name="parenright" unicode=")" horiz-adv-x="792" 
d="M639 991q0 -335 -136 -665t-374 -584l-152 111q412 559 412 1167q1 266 -108 549l172 102q186 -346 186 -680z" />
    <glyph glyph-name="asterisk" unicode="*" horiz-adv-x="980" 
d="M580 1018l-191 -236l-160 150l222 215l-254 108l90 185l243 -142l37 297l221 -39l-65 -292l276 51l23 -205l-277 -14l136 -279l-203 -84z" />
    <glyph glyph-name="plus" unicode="+" horiz-adv-x="980" 
d="M98 639l33 186h311l60 344h203l-62 -344h311l-32 -186h-312l-59 -342h-203l62 342h-312z" />
    <glyph glyph-name="comma" unicode="," horiz-adv-x="514" 
d="M-92 -385l196 631h256l-241 -631h-211z" />
    <glyph glyph-name="hyphen" unicode="-" horiz-adv-x="813" 
d="M152 631l34 203h549l-35 -203h-548z" />
    <glyph glyph-name="period" unicode="." horiz-adv-x="516" 
d="M43 0l43 250h246l-43 -250h-246z" />
    <glyph glyph-name="slash" unicode="/" horiz-adv-x="706" 
d="M-72 -43l695 1548h229l-694 -1548h-230z" />
    <glyph glyph-name="zero" unicode="0" horiz-adv-x="980" 
d="M621 1282q-87 0 -135 -76t-83 -264l-73 -422q-23 -135 -23 -190q0 -150 125 -150q88 0 135 76t82 264l74 422q23 119 22 188q0 152 -124 152zM633 1483q352 0 352 -336q0 -84 -22 -219l-82 -465q-27 -143 -57 -220t-85 -137q-113 -127 -315 -126q-356 0 -356 335
q-1 85 22 220l84 464q44 252 148 368t311 116z" />
    <glyph glyph-name="one" unicode="1" horiz-adv-x="980" 
d="M299 0l211 1200l-205 -92l-67 184l401 170h164l-258 -1462h-246z" />
    <glyph glyph-name="two" unicode="2" horiz-adv-x="983" 
d="M723 1165q0 117 -113 117q-150 0 -204 -223l-226 10q45 213 153 313t282 100q356 2 356 -320q0 -230 -191 -453q-49 -57 -200 -220l-265 -286h486l-35 -203h-789l29 166l447 498q270 303 270 501z" />
    <glyph glyph-name="three" unicode="3" horiz-adv-x="983" 
d="M473 866q113 0 172 72q68 78 68 211t-123 133q-137 0 -193 -192l-221 10q78 383 430 383q172 0 264 -81t93 -233q0 -287 -213 -397q68 -54 96 -116t28 -156q0 -207 -100 -353q-119 -168 -371 -167q-184 0 -283 80t-100 229q0 27 7 92l231 16q-2 -27 -2 -55
q0 -162 147 -162q98 0 161 87q62 87 62 203t-44 160q-45 44 -144 44h-100l35 192h100z" />
    <glyph glyph-name="four" unicode="4" horiz-adv-x="980" 
d="M485 0l47 260h-512l27 150l584 1052h254l-555 -1003h237l62 358h221l-64 -358h117l-35 -199h-116l-45 -260h-222z" />
    <glyph glyph-name="five" unicode="5" horiz-adv-x="983" 
d="M588 928q145 0 224 -76t79 -207t-34 -273t-81 -214q-117 -178 -375 -178q-176 0 -270 78t-94 225q0 39 8 98l234 16q-6 -43 -7 -61q0 -156 138 -156q117 0 174 135q55 121 55 289q0 131 -125 131q-98 0 -180 -88l-170 37l186 778h656l-35 -202h-449l-90 -367l14 4l3 2
q84 29 139 29z" />
    <glyph glyph-name="six" unicode="6" horiz-adv-x="980" 
d="M535 739q-117 0 -162 -123q-25 -61 -43 -156t-19 -155q0 -129 121 -129t166 141q53 164 53 293q1 129 -116 129zM897 642q0 -126 -31 -262t-75 -214q-106 -186 -373 -186q-168 0 -260 80t-92 223q0 197 73 385q33 84 131 235l381 559h271l-375 -551l88 13q121 0 191 -78
t71 -204z" />
    <glyph glyph-name="seven" unicode="7" horiz-adv-x="980" 
d="M86 0l633 1260h-477l37 202h729l-27 -147l-616 -1315h-279z" />
    <glyph glyph-name="eight" unicode="8" horiz-adv-x="980" 
d="M653 546q0 126 -131 126t-176 -103q-20 -47 -38 -131t-17 -135q0 -127 134 -127t175 109q53 135 53 261zM631 1300q-115 0 -154 -100q-45 -126 -45 -238t115 -112t155 115q43 115 43 225q1 110 -114 110zM205 971q0 215 97 363t331 149q340 0 340 -297q0 -160 -66 -297
q-20 -41 -45 -66t-74 -53q104 -70 105 -242q0 -100 -29 -211t-73 -176q-106 -162 -361 -161q-381 0 -381 309q0 99 28 205t70 176t134 110q-25 25 -31 33q-45 51 -45 158z" />
    <glyph glyph-name="nine" unicode="9" horiz-adv-x="980" 
d="M621 1286q-115 0 -158 -106q-19 -50 -37 -136t-18 -141q0 -125 122 -125q115 0 160 119q54 131 54 260t-123 129zM430 596q-127 0 -198 74q-70 74 -70 197t31 251t73 197q106 168 363 168q174 0 267 -78q93 -77 93 -235t-67 -330q-31 -82 -115 -209l-418 -631h-270
l403 608q-61 -12 -92 -12z" />
    <glyph glyph-name="colon" unicode=":" horiz-adv-x="516" 
d="M184 801l43 250h246l-43 -250h-246zM43 0l43 250h246l-43 -250h-246z" />
    <glyph glyph-name="semicolon" unicode=";" horiz-adv-x="514" 
d="M211 801l43 250h246l-43 -250h-246zM-92 -385l196 631h256l-241 -631h-211z" />
    <glyph glyph-name="less" unicode="&#x3c;" horiz-adv-x="980" 
d="M389 733l426 -244l-37 -206l-647 391l25 137l784 391l-39 -225z" />
    <glyph glyph-name="equal" unicode="=" horiz-adv-x="980" 
d="M162 815l31 178h763l-32 -178h-762zM100 471l31 182h764l-31 -182h-764z" />
    <glyph glyph-name="greater" unicode="&#x3e;" horiz-adv-x="980" 
d="M670 750l-428 243l37 209l647 -391l-25 -137l-784 -391l39 223z" />
    <glyph glyph-name="question" unicode="?" horiz-adv-x="1019" 
d="M291 0l45 248h233l-43 -248h-235zM211 1057q107 426 469 426t362 -328q0 -166 -100 -297q-48 -62 -194 -180t-164 -225l-11 -50h-190l14 76q20 125 65 198q44 73 161 173q96 88 133 150t37 145q0 137 -129 137q-82 0 -134 -54t-96 -190z" />
    <glyph glyph-name="at" unicode="@" horiz-adv-x="1669" 
d="M954 903q-100 0 -184 -170t-84 -287q0 -68 57 -67q95 0 189 164t94 274q0 86 -72 86zM1102 424q0 -53 51 -53q117 0 210 164q93 165 93 369t-117 316t-331 111q-352 0 -566 -327q-80 -124 -128 -300t-48 -344q0 -428 510 -428q211 0 443 97l51 -144q-264 -111 -522 -110
q-334 0 -515 153q-162 139 -161 432q0 205 65 415q66 210 178 364q258 350 695 350q152 0 282 -47q353 -127 355 -518q0 -293 -158 -502t-379 -209q-158 0 -164 149q-70 -84 -126 -116t-142 -33q-86 0 -140 58t-55 161q0 190 129 402q143 227 340 227q74 0 112 -27t58 -96
l41 100h142l-168 -473q-35 -100 -35 -141z" />
    <glyph glyph-name="A" unicode="A" horiz-adv-x="1089" 
d="M725 494l-63 653l-293 -653h356zM741 295h-458l-133 -295h-269l717 1462h225l207 -1462h-262z" />
    <glyph glyph-name="B" unicode="B" horiz-adv-x="1140" 
d="M559 199q117 0 168 63q72 88 72 236q0 82 -35 116t-119 33h-227l-80 -448h221zM662 846q102 0 153 59q70 80 70 217q0 78 -35 110t-121 32h-203l-73 -418h209zM743 1462q225 0 309 -80t85 -225q-1 -145 -53 -245t-144 -150q61 -60 83 -114q21 -54 21 -158t-34 -208
q-34 -102 -94 -166q-58 -64 -131 -90t-191 -26h-535l258 1462h426z" />
    <glyph glyph-name="C" unicode="C" horiz-adv-x="1103" 
d="M696 1481q410 0 410 -324q0 -39 -8 -96l-228 -8q2 27 2 53q0 174 -163 174q-115 0 -174 -80t-95 -280l-67 -381q-20 -115 -21 -181q0 -178 168 -178q195 0 254 240l227 -14q-20 -106 -47 -166q-116 -259 -452 -260q-395 0 -396 350q0 94 25 231l74 412q27 157 59 237
t96 142q129 129 336 129z" />
    <glyph glyph-name="D" unicode="D" horiz-adv-x="1187" 
d="M907 1107q0 157 -225 157h-154l-188 -1065h154q152 -3 220 69t103 264l72 400q18 100 18 175zM702 1462q229 0 328 -71q125 -94 125 -275q0 -72 -22 -190l-80 -461q-35 -245 -167 -357t-376 -108h-451l258 1462h385z" />
    <glyph glyph-name="E" unicode="E" 
d="M61 0l258 1462h781l-35 -202h-537l-73 -420h454l-37 -203h-454l-76 -434h545l-37 -203h-789z" />
    <glyph glyph-name="F" unicode="F" horiz-adv-x="970" 
d="M61 0l258 1462h771l-35 -202h-525l-77 -431h440l-35 -202h-440l-111 -627h-246z" />
    <glyph glyph-name="G" unicode="G" horiz-adv-x="1165" 
d="M106 336q0 92 25 225l72 412q27 153 61 235t98 144q132 129 346 129q418 0 418 -328q0 -37 -8 -92l-227 -8q2 20 2 45q0 96 -41 139t-129 43q-123 0 -185 -80t-98 -280l-67 -381q-20 -117 -21 -179q0 -180 183 -180q117 0 183 72t93 231l23 121h-205l33 191h448l-53 -291
q-27 -152 -57 -230t-87 -141q-133 -154 -387 -153q-420 0 -420 356z" />
    <glyph glyph-name="H" unicode="H" horiz-adv-x="1202" 
d="M61 0l258 1462h246l-110 -622h405l111 622h246l-259 -1462h-245l112 637h-405l-113 -637h-246z" />
    <glyph glyph-name="I" unicode="I" horiz-adv-x="552" 
d="M61 0l258 1462h246l-258 -1462h-246z" />
    <glyph glyph-name="J" unicode="J" horiz-adv-x="839" 
d="M242 180q102 0 153 119q23 53 54 225l165 938h246l-172 -968q-35 -195 -49 -248t-53 -109q-100 -158 -330 -157q-119 0 -204 36t-165 117l168 160q85 -113 187 -113z" />
    <glyph glyph-name="K" unicode="K" horiz-adv-x="1089" 
d="M63 0l259 1462h243l-110 -633l526 633h276l-524 -600l291 -862h-272l-205 688l-150 -178l-90 -510h-244z" />
    <glyph glyph-name="L" unicode="L" horiz-adv-x="964" 
d="M61 0l258 1462h246l-223 -1259h545l-35 -203h-791z" />
    <glyph glyph-name="M" unicode="M" horiz-adv-x="1443" 
d="M61 0l258 1462h230l190 -841l486 841h231l-256 -1462h-235l168 958l-369 -649h-158l-139 649l-170 -958h-236z" />
    <glyph glyph-name="N" unicode="N" horiz-adv-x="1263" 
d="M61 0l258 1462h242l303 -1007l178 1007h234l-258 -1462h-236l-307 1012l-178 -1012h-236z" />
    <glyph glyph-name="O" unicode="O" horiz-adv-x="1187" 
d="M909 1106q0 176 -188 176q-121 0 -183 -76t-96 -268l-73 -414q-18 -104 -19 -168q0 -176 187 -176q123 0 184 76t96 268l72 414q20 117 20 168zM733 1483q422 0 422 -357q0 -72 -22 -202l-80 -459q-25 -139 -58 -216t-94 -138q-129 -131 -366 -131q-430 0 -431 356
q1 70 21 203l82 458q25 139 56 216q32 77 93 139q131 131 377 131z" />
    <glyph glyph-name="P" unicode="P" horiz-adv-x="1071" 
d="M598 737q135 0 190 84q76 113 76 273q0 92 -39 131t-133 39h-168l-92 -527h166zM694 1462q217 0 312 -73q109 -92 108 -265q0 -270 -129 -436q-63 -82 -152 -117t-237 -34h-195l-94 -537h-246l258 1462h375z" />
    <glyph glyph-name="Q" unicode="Q" horiz-adv-x="1187" 
d="M909 1106q0 176 -188 176q-121 0 -183 -76t-96 -268l-73 -414q-18 -104 -19 -168q0 -176 187 -176q80 0 125 27l-164 168l151 135l133 -137q18 63 35 151l72 414q20 117 20 168zM104 336q0 70 21 203l82 458q25 139 56 216q32 77 93 139q131 131 377 131q422 0 422 -357
q0 -72 -22 -202l-80 -459q-33 -182 -90 -279l98 -102l-150 -133l-92 94q-104 -66 -289 -65q-426 0 -426 356z" />
    <glyph glyph-name="R" unicode="R" horiz-adv-x="1138" 
d="M627 799q131 0 188 71q72 92 72 240q0 84 -41 119t-139 35h-181l-82 -465h183zM727 1462q219 0 315 -76t97 -239q0 -115 -33 -227t-86 -177q-80 -94 -203 -114l166 -629h-272l-136 608h-159l-107 -608h-246l259 1462h405z" />
    <glyph glyph-name="S" unicode="S" horiz-adv-x="1028" 
d="M440 178q162 0 222 111q43 76 43 159t-50 121q-25 17 -49 27t-137 47q-295 94 -295 354q0 207 117 346t355 139t329 -132q45 -63 53 -191l-219 -59q-10 82 -33 114q-45 70 -145 70t-158 -66q-57 -66 -57 -162t42 -134t194 -91q152 -51 224 -135q73 -84 72 -227
q0 -211 -110 -338q-129 -154 -407 -154t-374 140q-47 74 -55 209l221 61q11 -113 61 -161t156 -48z" />
    <glyph glyph-name="T" unicode="T" horiz-adv-x="950" 
d="M260 0l223 1260h-327l34 202h900l-35 -202h-326l-223 -1260h-246z" />
    <glyph glyph-name="U" unicode="U" horiz-adv-x="1210" 
d="M373 336q0 -156 178 -156q141 0 205 111q35 61 59 201l170 970h246l-178 -1013q-27 -145 -52 -210t-75 -120q-133 -139 -380 -139t-345 116q-74 86 -74 213q0 78 27 226l163 927h246l-172 -970q-18 -109 -18 -156z" />
    <glyph glyph-name="V" unicode="V" horiz-adv-x="1073" 
d="M336 0l-164 1462h240l90 -1097l479 1097h250l-680 -1462h-215z" />
    <glyph glyph-name="W" unicode="W" horiz-adv-x="1634" 
d="M254 0l-49 1462h241l-4 -1073l443 1073h186l64 -1073l374 1073h248l-565 -1462h-219l-68 1026l-430 -1026h-221z" />
    <glyph glyph-name="X" unicode="X" horiz-adv-x="1040" 
d="M430 782l-233 680h254l163 -491l306 491h266l-486 -731l250 -731h-252l-180 541l-340 -541h-266z" />
    <glyph glyph-name="Y" unicode="Y" horiz-adv-x="968" 
d="M272 0l90 520l-229 942h254l141 -671l379 671h264l-563 -942l-90 -520h-246z" />
    <glyph glyph-name="Z" unicode="Z" horiz-adv-x="970" 
d="M-23 0l27 150l723 1110h-489l34 202h768l-24 -149l-723 -1110h551l-35 -203h-832z" />
    <glyph glyph-name="bracketleft" unicode="[" horiz-adv-x="792" 
d="M133 -201l320 1813h409l-31 -172h-174l-258 -1469h172l-28 -172h-410z" />
    <glyph glyph-name="backslash" unicode="\" horiz-adv-x="706" 
d="M580 -43h-230l-149 1548h229z" />
    <glyph glyph-name="bracketright" unicode="]" horiz-adv-x="792" 
d="M725 1612l-319 -1813h-408l31 172h172l258 1469h-172l30 172h408z" />
    <glyph glyph-name="asciicircum" unicode="^" horiz-adv-x="980" 
d="M612 1190l-256 -420h-274l506 703h137l258 -703h-262z" />
    <glyph glyph-name="underscore" unicode="_" horiz-adv-x="827" 
d="M-201 -371l29 166h915l-28 -166h-916z" />
    <glyph glyph-name="grave" unicode="`" 
d="M758 1188h-168l-180 309h245z" />
    <glyph glyph-name="a" unicode="a" horiz-adv-x="956" 
d="M461 467q-109 0 -159 -54t-50 -159q0 -51 31 -73q31 -21 111 -21t119 37q38 37 56 139l25 131h-133zM639 770q0 113 -121 113q-63 0 -103 -30t-73 -105l-188 61q102 264 381 264q165 0 251 -71t86 -203q0 -61 -20 -183l-109 -616h-182l-8 49q-80 -70 -231 -69
q-303 0 -304 231q0 211 96 315t326 105h183l8 47q8 66 8 92z" />
    <glyph glyph-name="b" unicode="b" horiz-adv-x="1009" 
d="M700 739q0 139 -122 140q-82 -1 -130 -61t-71 -193l-35 -199q-12 -72 -12 -104q0 -150 131 -150q78 0 124 61q45 62 70 199l35 201q10 61 10 106zM656 1073q130 0 205 -73t75 -212q0 -84 -21 -192l-32 -195q-41 -231 -129 -326t-258 -95q-129 0 -201 51l-53 51l-29 -82
h-180l258 1462h233l-82 -463q84 74 214 74z" />
    <glyph glyph-name="c" unicode="c" horiz-adv-x="880" 
d="M78 293q0 78 20 188l27 158q37 221 119 313q102 121 284 121q182 -1 263 -67q80 -66 88 -215l-205 -46q-6 72 -35 105t-99 33q-70 1 -115 -61q-46 -62 -71 -201l-35 -197q-10 -66 -10 -115q0 -139 127 -139q61 0 100 30t68 101l195 -41q-68 -281 -381 -280
q-168 0 -254 80t-86 233z" />
    <glyph glyph-name="d" unicode="d" horiz-adv-x="1009" 
d="M432 174q158 0 201 252l35 199q12 72 12 108q0 147 -129 148q-77 -1 -125 -59t-68 -187l-34 -191q-12 -74 -13 -129q0 -141 121 -141zM76 270q0 92 20 203l35 201q39 215 127 307t254 92q76 0 121 -14t102 -60l80 463h234l-258 -1462h-179l-2 74q-88 -95 -237 -95
q-149 1 -223 71t-74 220z" />
    <glyph glyph-name="e" unicode="e" horiz-adv-x="985" 
d="M567 895q-84 0 -132 -53t-70 -168l-7 -35h332q14 80 15 117q0 139 -138 139zM309 309q0 -143 144 -143q133 0 192 135l191 -43q-54 -152 -148 -215t-262 -63q-346 0 -346 313q0 94 20 199l23 135q43 242 144 344t300 102q352 0 353 -311q0 -102 -37 -293h-553l-11 -63
q-10 -57 -10 -97z" />
    <glyph glyph-name="f" unicode="f" horiz-adv-x="618" 
d="M225 862h-108l33 189h108l27 141q27 162 95 218q69 56 236 52h129l-28 -174h-58q-79 2 -107 -22t-42 -117l-18 -98h190l-33 -189h-190l-152 -862h-233z" />
    <glyph glyph-name="g" unicode="g" horiz-adv-x="1011" 
d="M432 174q156 0 201 252l35 199q12 61 12 104q0 150 -129 150q-78 -1 -125 -59t-70 -185l-34 -199q-10 -55 -11 -119q0 -143 121 -143zM367 -20q-291 0 -291 290q0 86 20 205l35 199q39 215 125 307t251 92t253 -96l37 74h180l-186 -1059q-43 -246 -161 -360t-327 -113
q-155 0 -225 60t-80 200l205 49q10 -72 38 -98q27 -26 105 -27q159 0 207 264l12 76q-84 -63 -198 -63z" />
    <glyph glyph-name="h" unicode="h" horiz-adv-x="1015" 
d="M932 815q0 -80 -23 -211l-106 -604h-234l109 616q12 68 12 123q0 131 -115 131q-84 0 -131 -63t-73 -213l-105 -594h-233l258 1462h233l-80 -456q88 68 213 68t200 -70q75 -68 75 -189z" />
    <glyph glyph-name="i" unicode="i" horiz-adv-x="493" 
d="M37 0l184 1051h234l-185 -1051h-233zM252 1219l45 254h233l-45 -254h-233z" />
    <glyph glyph-name="j" unicode="j" horiz-adv-x="503" 
d="M260 1219l45 254h234l-45 -254h-234zM231 1051h234l-186 -1057q-45 -287 -149 -379t-374 -86l35 192q115 -3 171 57t83 216z" />
    <glyph glyph-name="k" unicode="k" horiz-adv-x="952" 
d="M39 0l258 1462h233l-157 -891l403 480h258l-397 -441l225 -610h-250l-149 449l-139 -162l-52 -287h-233z" />
    <glyph glyph-name="l" unicode="l" horiz-adv-x="555" 
d="M328 284q0 -92 137 -91h24l-32 -193h-37q-184 0 -257 51t-73 178q0 84 25 226l178 1007h233l-188 -1063q-10 -71 -10 -115z" />
    <glyph glyph-name="m" unicode="m" horiz-adv-x="1497" 
d="M637 1073q182 0 248 -119q89 119 239 119q293 0 291 -256q0 -63 -24 -213l-107 -604h-233l106 612q16 88 17 131q0 129 -105 129q-76 0 -119 -63t-71 -217l-105 -592h-233l108 610q14 78 15 135q0 127 -103 127q-78 0 -122 -64t-70 -222l-103 -586h-233l184 1051h176
l4 -80q94 102 240 102z" />
    <glyph glyph-name="n" unicode="n" horiz-adv-x="1015" 
d="M640 1073q146 -1 219 -67t73 -191q0 -86 -23 -211l-106 -604h-234l107 610q14 72 14 129q0 133 -117 133q-84 0 -131 -64t-73 -224l-103 -584h-233l184 1051h176l4 -82q97 104 243 104z" />
    <glyph glyph-name="o" unicode="o" horiz-adv-x="1001" 
d="M694 752q0 131 -135 131q-88 1 -134 -57t-69 -197l-37 -207q-14 -84 -14 -121q0 -131 135 -131q88 0 134 58t69 194l37 207q14 78 14 123zM565 1073q360 0 361 -303q0 -74 -19 -178l-37 -205q-39 -221 -138 -314t-298 -93q-360 0 -360 301q0 76 18 178l37 207
q39 219 139 313t297 94z" />
    <glyph glyph-name="p" unicode="p" horiz-adv-x="1009" 
d="M702 739q0 139 -120 140q-160 0 -205 -254l-35 -199q-10 -66 -10 -104q0 -150 127 -150q80 0 127 62q46 63 69 198l37 203q10 68 10 104zM639 1073q299 0 299 -287q0 -70 -20 -186l-35 -199q-39 -229 -127 -325t-256 -96q-127 0 -224 67l-90 -508h-233l266 1512h180
l13 -68q92 90 227 90z" />
    <glyph glyph-name="q" unicode="q" horiz-adv-x="1009" 
d="M430 174q158 0 203 252l35 199q12 68 12 108q0 147 -129 148q-77 -1 -125 -59t-68 -187l-36 -201q-10 -66 -11 -117q0 -143 119 -143zM377 -20q-301 0 -301 292q0 90 20 201l35 201q39 217 125 308t251 91t253 -94l37 72h180l-266 -1512h-234l88 504q-84 -63 -188 -63z
" />
    <glyph glyph-name="r" unicode="r" horiz-adv-x="704" 
d="M550 872q-65 0 -111 -84t-81 -278l-90 -510h-233l184 1051h180l15 -82q51 57 98 81t126 24t169 -64l-135 -195q-57 57 -122 57z" />
    <glyph glyph-name="s" unicode="s" horiz-adv-x="882" 
d="M369 168q90 0 142 44t52 108t-33 82q-34 18 -162 46t-188 88t-61 177q0 168 101 264t278 96q223 0 297 -112q33 -49 39 -152l-203 -49q-8 125 -129 125q-72 0 -116 -42q-44 -43 -44 -99t31 -78t110 -37q175 -35 239 -90t64 -174q0 -385 -428 -385q-252 0 -329 122
q-31 49 -39 158l209 43q8 -75 44 -105t126 -30z" />
    <glyph glyph-name="t" unicode="t" horiz-adv-x="626" 
d="M430 0q-178 0 -249 45t-70 158q0 70 28 239l74 420h-107l33 189h111l67 309h218l-54 -309h181l-33 -189h-183l-81 -467q-15 -83 -15 -121q-1 -83 125 -81h35l-35 -193h-45z" />
    <glyph glyph-name="u" unicode="u" horiz-adv-x="995" 
d="M324 307q0 -127 106 -127q80 0 123 65t72 222l102 584h234l-185 -1051h-166l-8 90q-51 -61 -106 -86t-140 -24q-130 0 -202 66t-72 169q0 102 27 244l104 592h233l-106 -598q-16 -102 -16 -146z" />
    <glyph glyph-name="v" unicode="v" horiz-adv-x="901" 
d="M246 0l-127 1051h231l56 -746l317 746h242l-496 -1051h-223z" />
    <glyph glyph-name="w" unicode="w" horiz-adv-x="1380" 
d="M215 0l-78 1051h234l14 -727l311 727h164l58 -727l268 727h241l-448 -1051h-201l-61 674l-301 -674h-201z" />
    <glyph glyph-name="x" unicode="x" horiz-adv-x="860" 
d="M305 545l-192 506h243l119 -318l211 318h264l-393 -525l201 -526h-244l-125 334l-221 -334h-264z" />
    <glyph glyph-name="y" unicode="y" horiz-adv-x="903" 
d="M242 6l-125 1045h229l62 -762l315 762h242l-531 -1160q-57 -123 -99 -189q-86 -134 -234 -161q-71 -12 -191 -12l35 192q111 0 153 32t101 157z" />
    <glyph glyph-name="z" unicode="z" horiz-adv-x="827" 
d="M-41 0l25 141l526 717h-363l35 193h645l-24 -144l-527 -714h426l-32 -193h-711z" />
    <glyph glyph-name="braceleft" unicode="{" horiz-adv-x="792" 
d="M506 612q0 -35 -27 -186l-35 -193q-23 -129 -22 -178q0 -96 115 -96h41l-29 -160h-90q-153 0 -217 46t-64 155q0 57 31 238l35 200q20 102 20 150q0 80 -100 80h-14l24 141h14q82 2 111 44t51 187l33 189q35 233 112 309t275 74h98l-26 -160h-41q-88 0 -124 -54t-69 -235
l-18 -114q-28 -160 -56 -216t-104 -96q76 -39 76 -125z" />
    <glyph glyph-name="bar" unicode="|" horiz-adv-x="980" 
d="M262 -201l320 1813h202l-319 -1813h-203z" />
    <glyph glyph-name="braceright" unicode="}" horiz-adv-x="792" 
d="M362 864q0 37 27 185l23 129q22 131 22 180t-26 72q-27 23 -86 22h-43l28 160h90q154 0 217 -46t64 -157q0 -70 -31 -235l-22 -138q-21 -114 -21 -152q-1 -75 101 -75h14l-25 -141h-14q-82 -2 -111 -44t-51 -190l-45 -252q-35 -233 -111 -309t-274 -74h-100l28 160h41
q88 1 123 55t68 234l31 178q27 162 54 216q28 54 105 95q-76 37 -76 127z" />
    <glyph glyph-name="asciitilde" unicode="~" horiz-adv-x="980" 
d="M383 893q90 0 177 -70t130 -69q68 0 133 129l127 -41q-59 -138 -129 -202t-162 -65q-51 -1 -86 17t-100 70t-106 53q-73 0 -136 -137l-133 32q59 154 127 218t158 65z" />
    <glyph glyph-name="uni00A0" unicode="&#xa0;" horiz-adv-x="368" 
 />
    <glyph glyph-name="exclamdown" unicode="&#xa1;" horiz-adv-x="598" 
d="M508 1044l-43 -249h-234l43 249h234zM416 635l-150 -1053h-264l221 1053h193z" />
    <glyph glyph-name="cent" unicode="&#xa2;" horiz-adv-x="983" 
d="M166 592q0 84 18 184l29 158q31 199 113 300t231 124l39 219h240l-43 -236q90 -29 131 -86t45 -163l-197 -50q-8 76 -38 108t-104 32t-121 -62q-48 -62 -73 -205l-35 -196q-10 -57 -10 -115q0 -143 129 -143q68 0 110 33t75 108l186 -47q-74 -229 -283 -266l-41 -234
h-239l43 244q-63 23 -83 33t-46 35q-76 78 -76 225z" />
    <glyph glyph-name="sterling" unicode="&#xa3;" horiz-adv-x="983" 
d="M293 551q0 27 -2 45h-191l35 203h109l-6 51q-18 113 -19 168q0 223 112 344t318 121q373 0 373 -348q0 -23 -2 -41l-219 -43v26q0 109 -36 159t-117 50t-132 -74t-51 -177t43 -236h299l-37 -203h-244q6 -252 -164 -393h527l-35 -203h-856l31 174q119 35 191 138t73 239z
" />
    <glyph glyph-name="currency" unicode="&#xa4;" horiz-adv-x="980" 
d="M729 679q-1 121 -57 193t-153 72t-153 -70t-56 -194t56 -194t153 -70t154 70q56 71 56 193zM924 681q0 -136 -70 -253l150 -166l-119 -108l-144 159q-102 -67 -223 -67t-221 67l-143 -159l-119 108l149 166q-70 113 -70 253t70 253l-149 166l119 108l143 -159
q98 65 221 65t223 -65l144 159l119 -108l-150 -166q70 -117 70 -253z" />
    <glyph glyph-name="yen" unicode="&#xa5;" horiz-adv-x="980" 
d="M276 0l52 291h-258l24 135h258l21 113h-260l24 135h203l-195 788h254l136 -671l372 671h264l-473 -788h203l-24 -135h-259l-20 -113h258l-22 -135h-261l-51 -291h-246z" />
    <glyph glyph-name="brokenbar" unicode="&#xa6;" horiz-adv-x="880" 
d="M236 0l94 539h225l-96 -539h-223zM393 899l101 563h223l-99 -563h-225z" />
    <glyph glyph-name="section" unicode="&#xa7;" horiz-adv-x="983" 
d="M688 618q0 57 -30 86t-142 78l-76 31l-8 -8q-99 -59 -98 -182q0 -53 33 -84t137 -76l76 -33l12 12l33 25q63 51 63 151zM364 -41q80 0 134 44q53 43 53 105t-31 91t-159 79q-129 50 -193 120q-64 71 -64 180q0 193 205 309q-72 88 -71 200q0 191 102 293t278 102t260 -60
q83 -60 95 -189l-209 -55l-6 16q-23 96 -117 96q-72 0 -117 -45t-45 -103q-1 -58 21 -88q22 -28 137 -73q285 -115 285 -305q0 -109 -68 -203q-39 -51 -141 -115q47 -40 64 -76t18 -94q0 -113 -62 -229q-100 -193 -379 -192q-176 -1 -266 65t-108 205l208 57q6 -12 7 -20
q23 -66 57 -90q32 -24 112 -25z" />
    <glyph glyph-name="dieresis" unicode="&#xa8;" 
d="M707 1198l43 246h208l-45 -246h-206zM348 1198l43 246h209l-45 -246h-207z" />
    <glyph glyph-name="copyright" unicode="&#xa9;" horiz-adv-x="1642" 
d="M823 1339q-249 0 -409 -170t-160 -437t161 -438t409 -171t407 171q160 171 160 435t-160 437t-408 173zM824 1497q324 0 536 -219t213 -549q0 -330 -213 -547t-539 -217q-327 0 -539 217t-212 552t213 544q217 219 541 219zM541 778q0 168 66 242q67 74 212 74t211 -52
t68 -165l-166 -5q-14 88 -101 89q-59 0 -83 -37t-25 -127v-131q0 -90 25 -127q26 -37 80 -37t79 20t33 70l168 -8q-2 -102 -51 -148q-70 -68 -227 -68q-158 0 -224 74t-65 242v94z" />
    <glyph glyph-name="ordfeminine" unicode="&#xaa;" horiz-adv-x="630" 
d="M408 1083q-121 0 -121 -122q0 -59 73 -60q94 0 109 86l16 96h-77zM508 1282q0 66 -66 66t-102 -66l-127 43q78 150 250 150q223 0 223 -162q0 -47 -14 -127l-70 -395h-141l2 38q-57 -51 -146 -51q-199 0 -198 172q0 131 68 186q69 54 233 54h76l8 47q4 29 4 45z" />
    <glyph glyph-name="guillemotleft" unicode="&#xab;" horiz-adv-x="868" 
d="M303 586l105 -258l-162 -80l-191 356l318 357l125 -117zM690 586l103 -258l-160 -80l-191 356l316 357l127 -117z" />
    <glyph glyph-name="logicalnot" unicode="&#xac;" horiz-adv-x="980" 
d="M117 639l33 186h743l-102 -583h-226l72 397h-520z" />
    <glyph glyph-name="uni00AD" unicode="&#xad;" horiz-adv-x="813" 
d="M152 631l34 203h549l-35 -203h-548z" />
    <glyph glyph-name="registered" unicode="&#xae;" horiz-adv-x="1355" 
d="M679 729q197 0 317 130t120 328q0 199 -122 327t-318 128t-317 -128q-119 -128 -119 -328q0 -199 122 -332q119 -125 317 -125zM680 1788q260 0 430 -173t170 -431t-171 -429t-431 -171t-431 171t-171 432t172 431t432 170zM610 1204h84q78 0 78 80t-80 80h-82v-160z
M614 1118v-217h-153v569h246q117 0 167 -40t50 -120q0 -82 -22 -118t-73 -57l119 -234h-164l-98 217h-72z" />
    <glyph glyph-name="macron" unicode="&#xaf;" 
d="M367 1243l30 170h545l-29 -170h-546z" />
    <glyph glyph-name="degree" unicode="&#xb0;" horiz-adv-x="768" 
d="M504 1372q-152 0 -152 -172t152 -172t151 172q1 172 -151 172zM505 1528q161 0 251 -87t90 -242t-90 -241t-252 -86t-252 86t-90 241t91 242t252 87z" />
    <glyph glyph-name="plusminus" unicode="&#xb1;" horiz-adv-x="980" 
d="M-10 25l33 186h823l-33 -186h-823zM102 659l33 187h311l58 334h203l-60 -334h311l-32 -187h-312l-59 -331h-201l60 331h-312z" />
    <glyph glyph-name="twosuperior" unicode="&#xb2;" horiz-adv-x="643" 
d="M559 1466q0 68 -63 68q-80 0 -117 -129l-172 8q31 141 102 205q72 63 203 63q242 0 242 -198q0 -115 -54 -193t-188 -211l-137 -139h282l-26 -149h-531l21 122l280 289q158 162 158 264z" />
    <glyph glyph-name="threesuperior" unicode="&#xb3;" horiz-adv-x="643" 
d="M424 1315q59 0 97 38t38 99q0 78 -72 78q-78 0 -108 -103l-170 9q29 127 98 184q70 57 197 57q246 0 246 -198q0 -158 -119 -226q69 -61 69 -177t-65 -197q-76 -100 -252 -101q-264 0 -264 187q0 4 4 65l178 12q-2 -16 -2 -30q0 -86 86 -86q57 0 92 43t35 114
q0 102 -113 103h-80l23 129h82z" />
    <glyph glyph-name="acute" unicode="&#xb4;" 
d="M504 1188l198 309h263l-287 -309h-174z" />
    <glyph glyph-name="mu" unicode="&#xb5;" horiz-adv-x="980" 
d="M426 174q80 0 126 70t75 233l100 567h225l-184 -1044h-152l-12 104q-47 -72 -94 -100t-125 -27q-78 0 -123 54l-88 -492h-225l266 1505h225l-104 -593q-16 -88 -17 -144q0 -133 107 -133z" />
    <glyph glyph-name="paragraph" unicode="&#xb6;" horiz-adv-x="1200" 
d="M381 676q-295 0 -295 293q0 129 55 249q103 226 326 242q31 2 158 2h546l-305 -1741h-221l275 1549h-177l-272 -1549h-219l168 955h-39z" />
    <glyph glyph-name="periodcentered" unicode="&#xb7;" horiz-adv-x="516" 
d="M150 608l43 248h245l-43 -248h-245z" />
    <glyph glyph-name="cedilla" unicode="&#xb8;" 
d="M188 -477l148 344h223l-213 -344h-158z" />
    <glyph glyph-name="onesuperior" unicode="&#xb9;" horiz-adv-x="575" 
d="M260 791l123 688l-137 -52l-41 136l270 104h129l-153 -876h-191z" />
    <glyph glyph-name="ordmasculine" unicode="&#xba;" horiz-adv-x="643" 
d="M506 1049l26 149q4 25 5 66q0 74 -74 73q-88 0 -113 -133l-26 -151q-6 -29 -7 -64q0 -74 74 -74q90 1 115 134zM152 1083l24 146q25 133 90 189q66 56 197 56t191 -46q60 -48 61 -148q0 -43 -13 -111l-24 -145q-26 -133 -92 -189t-199 -57q-248 0 -248 193q1 49 13 112z
" />
    <glyph glyph-name="guillemotright" unicode="&#xbb;" horiz-adv-x="868" 
d="M594 623l-102 256l159 82l193 -357l-318 -356l-125 117zM209 623l-105 256l162 82l191 -357l-318 -356l-125 117z" />
    <glyph glyph-name="onequarter" unicode="&#xbc;" horiz-adv-x="1660" 
d="M373 0l657 1462h215l-655 -1462h-217zM1200 0l25 150h-342l20 108l363 619h192l-342 -582h135l31 180h162l-31 -180h74l-27 -148h-74l-24 -147h-162zM281 586l122 688l-137 -51l-41 135l271 104h129l-154 -876h-190z" />
    <glyph glyph-name="onehalf" unicode="&#xbd;" horiz-adv-x="1636" 
d="M356 0l658 1462h215l-656 -1462h-217zM1354 676q0 66 -64 65q-82 0 -116 -127l-173 7q31 141 103 204t201 64q244 0 243 -199q0 -113 -63 -207q-39 -59 -178 -196l-138 -137h281l-25 -150h-530l20 123l281 289q158 164 158 264zM281 586l122 688l-137 -51l-41 135
l271 104h129l-154 -876h-190z" />
    <glyph glyph-name="threequarters" unicode="&#xbe;" horiz-adv-x="1636" 
d="M446 0l656 1462h217l-657 -1462h-216zM1237 0l27 150h-342l20 108l363 619h192l-342 -582h135l31 180h162l-31 -180h74l-27 -148h-74l-26 -147h-162zM395 1110q59 0 98 39q38 39 37 100q0 78 -71 78q-79 0 -109 -104l-170 8q31 129 101 186t194 58q246 0 246 -199
q0 -160 -119 -227q70 -61 70 -177t-66 -198q-76 -100 -252 -101q-264 0 -264 187q0 8 4 65l178 13q-2 -14 -2 -31q0 -86 86 -86q57 0 93 42q35 42 34 114q0 104 -112 104h-80l22 129h82z" />
    <glyph glyph-name="questiondown" unicode="&#xbf;" horiz-adv-x="1019" 
d="M745 1044l-43 -247h-235l45 247h233zM827 -12q-103 -426 -465 -426t-362 344q0 174 100 303q58 68 198 175t157 208l8 49h192l-14 -76q-20 -125 -64 -197q-45 -72 -155 -169q-110 -98 -137 -154q-39 -70 -39 -145q0 -137 127 -138q84 0 135 54t94 190z" />
    <glyph glyph-name="Agrave" unicode="&#xc0;" horiz-adv-x="1089" 
d="M827 1599h-168l-180 310h246zM725 494l-63 653l-293 -653h356zM741 295h-458l-133 -295h-269l717 1462h225l207 -1462h-262z" />
    <glyph glyph-name="Aacute" unicode="&#xc1;" horiz-adv-x="1089" 
d="M633 1602l198 307h263l-287 -307h-174zM725 494l-63 653l-293 -653h356zM741 295h-458l-133 -295h-269l717 1462h225l207 -1462h-262z" />
    <glyph glyph-name="Acircumflex" unicode="&#xc2;" horiz-adv-x="1089" 
d="M760 1767l-131 -159h-228l291 297h168l187 -297h-213zM725 494l-63 653l-293 -653h356zM741 295h-458l-133 -295h-269l717 1462h225l207 -1462h-262z" />
    <glyph glyph-name="Atilde" unicode="&#xc3;" horiz-adv-x="1089" 
d="M648 1896q81 0 143 -61q59 -63 83 -63t40 24q17 24 38 86h142q-44 -160 -94 -219t-140 -59t-142 62t-77 63q-55 0 -88 -111h-141q51 158 103 218t133 60zM725 494l-63 653l-293 -653h356zM741 295h-458l-133 -295h-269l717 1462h225l207 -1462h-262z" />
    <glyph glyph-name="Adieresis" unicode="&#xc4;" horiz-adv-x="1089" 
d="M811 1612l43 243h207l-43 -243h-207zM444 1612l43 243h209l-45 -243h-207zM725 494l-63 653l-293 -653h356zM741 295h-458l-133 -295h-269l717 1462h225l207 -1462h-262z" />
    <glyph glyph-name="Aring" unicode="&#xc5;" horiz-adv-x="1089" 
d="M782 1921q-53 0 -84 -41t-30 -111q0 -78 77 -77q51 0 82 41t31 110q0 78 -76 78zM778 2032q108 0 166 -54t60 -151q0 -98 -76 -172t-182 -74t-165 53t-59 155q0 103 74 173t182 70zM725 494l-63 653l-293 -653h356zM741 295h-458l-133 -295h-269l717 1462h225l207 -1462
h-262z" />
    <glyph glyph-name="AE" unicode="&#xc6;" horiz-adv-x="1689" 
d="M823 520l129 740h-20l-496 -740h387zM786 322h-483l-217 -322h-283l1033 1462h931l-34 -202h-539l-74 -420h455l-35 -203h-457l-75 -434h544l-34 -203h-787z" />
    <glyph glyph-name="Ccedilla" unicode="&#xc7;" horiz-adv-x="1103" 
d="M211 -477l147 344h224l-213 -344h-158zM696 1481q410 0 410 -324q0 -39 -8 -96l-228 -8q2 27 2 53q0 174 -163 174q-115 0 -174 -80t-95 -280l-67 -381q-20 -115 -21 -181q0 -178 168 -178q195 0 254 240l227 -14q-20 -106 -47 -166q-116 -259 -452 -260q-395 0 -396 350
q0 94 25 231l74 412q27 157 59 237t96 142q129 129 336 129z" />
    <glyph glyph-name="Egrave" unicode="&#xc8;" 
d="M860 1599h-168l-180 310h246zM61 0l258 1462h781l-35 -202h-537l-73 -420h454l-37 -203h-454l-76 -434h545l-37 -203h-789z" />
    <glyph glyph-name="Eacute" unicode="&#xc9;" 
d="M608 1602l199 307h262l-287 -307h-174zM61 0l258 1462h781l-35 -202h-537l-73 -420h454l-37 -203h-454l-76 -434h545l-37 -203h-789z" />
    <glyph glyph-name="Ecircumflex" unicode="&#xca;" 
d="M762 1767l-131 -159h-228l291 297h168l187 -297h-213zM61 0l258 1462h781l-35 -202h-537l-73 -420h454l-37 -203h-454l-76 -434h545l-37 -203h-789z" />
    <glyph glyph-name="Edieresis" unicode="&#xcb;" 
d="M811 1612l43 243h207l-43 -243h-207zM444 1612l43 243h209l-45 -243h-207zM61 0l258 1462h781l-35 -202h-537l-73 -420h454l-37 -203h-454l-76 -434h545l-37 -203h-789z" />
    <glyph glyph-name="Igrave" unicode="&#xcc;" horiz-adv-x="552" 
d="M578 1599h-168l-181 310h246zM61 0l258 1462h246l-258 -1462h-246z" />
    <glyph glyph-name="Iacute" unicode="&#xcd;" horiz-adv-x="552" 
d="M346 1602l199 307h262l-287 -307h-174zM57 0l258 1462h246l-258 -1462h-246z" />
    <glyph glyph-name="Icircumflex" unicode="&#xce;" horiz-adv-x="552" 
d="M504 1767l-131 -159h-228l291 297h168l187 -297h-213zM61 0l258 1462h246l-258 -1462h-246z" />
    <glyph glyph-name="Idieresis" unicode="&#xcf;" horiz-adv-x="552" 
d="M547 1612l43 243h207l-43 -243h-207zM180 1612l45 243h207l-43 -243h-209zM61 0l258 1462h246l-258 -1462h-246z" />
    <glyph glyph-name="Eth" unicode="&#xd0;" horiz-adv-x="1187" 
d="M907 1110q0 154 -225 154h-154l-75 -426h217l-35 -197h-217l-78 -442h154q152 -3 220 69t103 264l72 400q18 106 18 178zM700 1462q231 0 330 -71q125 -94 125 -275q0 -72 -22 -190l-80 -461q-35 -245 -168 -357t-375 -108h-451l113 641h-131l35 197h131l110 624h383z
" />
    <glyph glyph-name="Ntilde" unicode="&#xd1;" horiz-adv-x="1263" 
d="M742 1896q82 0 142 -62t84 -62t41 24t38 86h141q-45 -160 -94 -219q-50 -59 -140 -59t-145 67q-33 37 -46 47t-28 11q-55 0 -88 -111h-141q51 158 103 218q51 60 133 60zM61 0l258 1462h242l303 -1007l178 1007h234l-258 -1462h-236l-307 1012l-178 -1012h-236z" />
    <glyph glyph-name="Ograve" unicode="&#xd2;" horiz-adv-x="1187" 
d="M911 1599h-168l-180 310h246zM909 1106q0 176 -188 176q-121 0 -183 -76t-96 -268l-73 -414q-18 -104 -19 -168q0 -176 187 -176q123 0 184 76t96 268l72 414q20 117 20 168zM733 1483q422 0 422 -357q0 -72 -22 -202l-80 -459q-25 -139 -58 -216t-94 -138
q-129 -131 -366 -131q-430 0 -431 356q1 70 21 203l82 458q25 139 56 216q32 77 93 139q131 131 377 131z" />
    <glyph glyph-name="Oacute" unicode="&#xd3;" horiz-adv-x="1187" 
d="M657 1602l199 307h262l-287 -307h-174zM909 1106q0 176 -188 176q-121 0 -183 -76t-96 -268l-73 -414q-18 -104 -19 -168q0 -176 187 -176q123 0 184 76t96 268l72 414q20 117 20 168zM733 1483q422 0 422 -357q0 -72 -22 -202l-80 -459q-25 -139 -58 -216t-94 -138
q-129 -131 -366 -131q-430 0 -431 356q1 70 21 203l82 458q25 139 56 216q32 77 93 139q131 131 377 131z" />
    <glyph glyph-name="Ocircumflex" unicode="&#xd4;" horiz-adv-x="1187" 
d="M813 1767l-131 -159h-227l290 297h168l187 -297h-213zM909 1106q0 176 -188 176q-121 0 -183 -76t-96 -268l-73 -414q-18 -104 -19 -168q0 -176 187 -176q123 0 184 76t96 268l72 414q20 117 20 168zM733 1483q422 0 422 -357q0 -72 -22 -202l-80 -459q-25 -139 -58 -216
t-94 -138q-129 -131 -366 -131q-430 0 -431 356q1 70 21 203l82 458q25 139 56 216q32 77 93 139q131 131 377 131z" />
    <glyph glyph-name="Otilde" unicode="&#xd5;" horiz-adv-x="1187" 
d="M706 1896q82 0 141 -62q60 -62 84 -62t41 24t38 86h141q-45 -160 -94 -219t-139 -59t-142 62t-78 63q-55 0 -88 -111h-141q51 158 103 218t134 60zM909 1106q0 176 -188 176q-121 0 -183 -76t-96 -268l-73 -414q-18 -104 -19 -168q0 -176 187 -176q123 0 184 76t96 268
l72 414q20 117 20 168zM733 1483q422 0 422 -357q0 -72 -22 -202l-80 -459q-25 -139 -58 -216t-94 -138q-129 -131 -366 -131q-430 0 -431 356q1 70 21 203l82 458q25 139 56 216q32 77 93 139q131 131 377 131z" />
    <glyph glyph-name="Odieresis" unicode="&#xd6;" horiz-adv-x="1187" 
d="M864 1612l43 243h207l-43 -243h-207zM498 1612l43 243h209l-45 -243h-207zM909 1106q0 176 -188 176q-121 0 -183 -76t-96 -268l-73 -414q-18 -104 -19 -168q0 -176 187 -176q123 0 184 76t96 268l72 414q20 117 20 168zM733 1483q422 0 422 -357q0 -72 -22 -202
l-80 -459q-25 -139 -58 -216t-94 -138q-129 -131 -366 -131q-430 0 -431 356q1 70 21 203l82 458q25 139 56 216q32 77 93 139q131 131 377 131z" />
    <glyph glyph-name="multiply" unicode="&#xd7;" horiz-adv-x="980" 
d="M403 733l-225 275l154 131l225 -275l324 275l106 -131l-321 -275l225 -274l-154 -129l-225 272l-324 -272l-106 129z" />
    <glyph glyph-name="Oslash" unicode="&#xd8;" horiz-adv-x="1187" 
d="M717 1282q-117 0 -178 -76t-97 -268l-71 -403l512 677q-49 70 -166 70zM543 180q117 0 178 76t96 268l70 402l-508 -678q47 -68 164 -68zM1155 1122q0 -68 -22 -198l-80 -459q-25 -139 -58 -216q-115 -269 -465 -269q-199 0 -299 73l-77 -104l-146 102l115 152
q-36 136 4 336l80 458q25 139 57 216q116 270 469 270q193 0 297 -74l76 102l145 -102l-114 -152q18 -67 18 -135z" />
    <glyph glyph-name="Ugrave" unicode="&#xd9;" horiz-adv-x="1210" 
d="M924 1599h-168l-181 310h246zM373 336q0 -156 178 -156q141 0 205 111q35 61 59 201l170 970h246l-178 -1013q-27 -145 -52 -210t-75 -120q-133 -139 -380 -139t-345 116q-74 86 -74 213q0 78 27 226l163 927h246l-172 -970q-18 -109 -18 -156z" />
    <glyph glyph-name="Uacute" unicode="&#xda;" horiz-adv-x="1210" 
d="M674 1602l198 307h263l-287 -307h-174zM373 336q0 -156 178 -156q141 0 205 111q35 61 59 201l170 970h246l-178 -1013q-27 -145 -52 -210t-75 -120q-133 -139 -380 -139t-345 116q-74 86 -74 213q0 78 27 226l163 927h246l-172 -970q-18 -109 -18 -156z" />
    <glyph glyph-name="Ucircumflex" unicode="&#xdb;" horiz-adv-x="1210" 
d="M831 1767l-131 -159h-227l291 297h168l186 -297h-213zM373 336q0 -156 178 -156q141 0 205 111q35 61 59 201l170 970h246l-178 -1013q-27 -145 -52 -210t-75 -120q-133 -139 -380 -139t-345 116q-74 86 -74 213q0 78 27 226l163 927h246l-172 -970q-18 -109 -18 -156z
" />
    <glyph glyph-name="Udieresis" unicode="&#xdc;" horiz-adv-x="1210" 
d="M877 1612l43 243h206l-43 -243h-206zM510 1612l43 243h209l-45 -243h-207zM373 336q0 -156 178 -156q141 0 205 111q35 61 59 201l170 970h246l-178 -1013q-27 -145 -52 -210t-75 -120q-133 -139 -380 -139t-345 116q-74 86 -74 213q0 78 27 226l163 927h246l-172 -970
q-18 -109 -18 -156z" />
    <glyph glyph-name="Yacute" unicode="&#xdd;" horiz-adv-x="968" 
d="M575 1602l199 307h262l-286 -307h-175zM272 0l90 520l-229 942h254l141 -671l379 671h264l-563 -942l-90 -520h-246z" />
    <glyph glyph-name="Thorn" unicode="&#xde;" horiz-adv-x="1071" 
d="M559 510q135 0 191 84q76 117 75 278q0 90 -39 127t-133 37h-166l-94 -526h166zM655 1235q211 0 303 -70q117 -88 117 -268q0 -123 -35 -242t-96 -197t-151 -114q-90 -35 -238 -35h-193l-55 -309h-246l258 1462h246l-41 -227h131z" />
    <glyph glyph-name="germandbls" unicode="&#xdf;" horiz-adv-x="1017" 
d="M973 1204q0 -182 -131 -301q92 -78 92 -231q0 -76 -16 -168l-17 -88q-37 -230 -126 -322t-281 -94h-109l35 188h47q100 0 138 48t67 202l20 109q29 176 -14 212q-27 24 -105 23h-26l31 170h28q74 0 110 72t36 156q0 113 -123 112q-76 0 -113 -43t-55 -149l-195 -1100
h-233l198 1130q33 178 113 254q94 94 272 94t267 -71q90 -72 90 -203z" />
    <glyph glyph-name="agrave" unicode="&#xe0;" horiz-adv-x="956" 
d="M731 1188h-168l-180 309h246zM461 467q-109 0 -159 -54t-50 -159q0 -51 31 -73q31 -21 111 -21t119 37q38 37 56 139l25 131h-133zM639 770q0 113 -121 113q-63 0 -103 -30t-73 -105l-188 61q102 264 381 264q165 0 251 -71t86 -203q0 -61 -20 -183l-109 -616h-182l-8 49
q-80 -70 -231 -69q-303 0 -304 231q0 211 96 315t326 105h183l8 47q8 66 8 92z" />
    <glyph glyph-name="aacute" unicode="&#xe1;" horiz-adv-x="956" 
d="M487 1188l199 309h262l-286 -309h-175zM461 467q-109 0 -159 -54t-50 -159q0 -51 31 -73q31 -21 111 -21t119 37q38 37 56 139l25 131h-133zM639 770q0 113 -121 113q-63 0 -103 -30t-73 -105l-188 61q102 264 381 264q165 0 251 -71t86 -203q0 -61 -20 -183l-109 -616
h-182l-8 49q-80 -70 -231 -69q-303 0 -304 231q0 211 96 315t326 105h183l8 47q8 66 8 92z" />
    <glyph glyph-name="acircumflex" unicode="&#xe2;" horiz-adv-x="956" 
d="M627 1354l-131 -160h-228l291 297h168l186 -297h-213zM461 467q-109 0 -159 -54t-50 -159q0 -51 31 -73q31 -21 111 -21t119 37q38 37 56 139l25 131h-133zM639 770q0 113 -121 113q-63 0 -103 -30t-73 -105l-188 61q102 264 381 264q165 0 251 -71t86 -203
q0 -61 -20 -183l-109 -616h-182l-8 49q-80 -70 -231 -69q-303 0 -304 231q0 211 96 315t326 105h183l8 47q8 66 8 92z" />
    <glyph glyph-name="atilde" unicode="&#xe3;" horiz-adv-x="956" 
d="M735 1358q25 0 42 24t38 86h141q-31 -113 -59 -165q-61 -111 -161 -111t-158 68q-32 37 -46 47t-28 10q-55 0 -88 -111h-142q52 158 104 217t133 59t142 -61q57 -63 82 -63zM461 467q-109 0 -159 -54t-50 -159q0 -51 31 -73q31 -21 111 -21t119 37q38 37 56 139l25 131
h-133zM639 770q0 113 -121 113q-63 0 -103 -30t-73 -105l-188 61q102 264 381 264q165 0 251 -71t86 -203q0 -61 -20 -183l-109 -616h-182l-8 49q-80 -70 -231 -69q-303 0 -304 231q0 211 96 315t326 105h183l8 47q8 66 8 92z" />
    <glyph glyph-name="adieresis" unicode="&#xe4;" horiz-adv-x="956" 
d="M676 1198l43 246h209l-45 -246h-207zM317 1198l43 246h209l-45 -246h-207zM461 467q-109 0 -159 -54t-50 -159q0 -51 31 -73q31 -21 111 -21t119 37q38 37 56 139l25 131h-133zM639 770q0 113 -121 113q-63 0 -103 -30t-73 -105l-188 61q102 264 381 264q165 0 251 -71
t86 -203q0 -61 -20 -183l-109 -616h-182l-8 49q-80 -70 -231 -69q-303 0 -304 231q0 211 96 315t326 105h183l8 47q8 66 8 92z" />
    <glyph glyph-name="aring" unicode="&#xe5;" horiz-adv-x="956" 
d="M651 1509q-53 0 -84 -42t-30 -111q0 -76 77 -76q51 0 83 42t32 110q0 77 -78 77zM648 1620q108 0 166 -53q60 -53 60 -153t-76 -172t-182 -73q-108 -1 -166 53t-58 156t74 172t182 70zM461 467q-109 0 -159 -54t-50 -159q0 -51 31 -73q31 -21 111 -21t119 37
q38 37 56 139l25 131h-133zM639 770q0 113 -121 113q-63 0 -103 -30t-73 -105l-188 61q102 264 381 264q165 0 251 -71t86 -203q0 -61 -20 -183l-109 -616h-182l-8 49q-80 -70 -231 -69q-303 0 -304 231q0 211 96 315t326 105h183l8 47q8 66 8 92z" />
    <glyph glyph-name="ae" unicode="&#xe6;" horiz-adv-x="1486" 
d="M1206 756q0 139 -137 139q-164 0 -203 -221l-6 -35h332q14 80 14 117zM463 467q-113 0 -162 -54t-49 -161q0 -49 31 -71q31 -21 109 -21t120 40q41 40 59 142l23 125h-131zM530 1073q139 0 222 -55q23 -14 53 -60q59 64 121 90t159 25q336 0 336 -307q0 -104 -37 -297
h-555l-10 -63q-10 -51 -10 -97q0 -143 145 -143q133 0 191 135l190 -43q-51 -147 -143 -213q-92 -65 -228 -65t-204 30q-70 30 -115 101q-63 -76 -131 -104t-184 -27q-311 0 -312 229q0 94 28 183t73 140q90 98 321 99h183l8 47q8 70 8 90q0 115 -123 115q-78 0 -127 -52
q-4 -3 -55 -77l-178 59q104 260 374 260z" />
    <glyph glyph-name="ccedilla" unicode="&#xe7;" horiz-adv-x="880" 
d="M104 -477l148 344h223l-213 -344h-158zM78 293q0 78 20 188l27 158q37 221 119 313q102 121 284 121q182 -1 263 -67q80 -66 88 -215l-205 -46q-6 72 -35 105t-99 33q-70 1 -115 -61q-46 -62 -71 -201l-35 -197q-10 -66 -10 -115q0 -139 127 -139q61 0 100 30t68 101
l195 -41q-68 -281 -381 -280q-168 0 -254 80t-86 233z" />
    <glyph glyph-name="egrave" unicode="&#xe8;" horiz-adv-x="985" 
d="M739 1188h-168l-180 309h246zM567 895q-84 0 -132 -53t-70 -168l-7 -35h332q14 80 15 117q0 139 -138 139zM309 309q0 -143 144 -143q133 0 192 135l191 -43q-54 -152 -148 -215t-262 -63q-346 0 -346 313q0 94 20 199l23 135q43 242 144 344t300 102q352 0 353 -311
q0 -102 -37 -293h-553l-11 -63q-10 -57 -10 -97z" />
    <glyph glyph-name="eacute" unicode="&#xe9;" horiz-adv-x="985" 
d="M489 1188l199 309h262l-286 -309h-175zM567 895q-84 0 -132 -53t-70 -168l-7 -35h332q14 80 15 117q0 139 -138 139zM309 309q0 -143 144 -143q133 0 192 135l191 -43q-54 -152 -148 -215t-262 -63q-346 0 -346 313q0 94 20 199l23 135q43 242 144 344t300 102
q352 0 353 -311q0 -102 -37 -293h-553l-11 -63q-10 -57 -10 -97z" />
    <glyph glyph-name="ecircumflex" unicode="&#xea;" horiz-adv-x="985" 
d="M651 1354l-131 -160h-227l291 297h168l186 -297h-213zM567 895q-84 0 -132 -53t-70 -168l-7 -35h332q14 80 15 117q0 139 -138 139zM309 309q0 -143 144 -143q133 0 192 135l191 -43q-54 -152 -148 -215t-262 -63q-346 0 -346 313q0 94 20 199l23 135q43 242 144 344
t300 102q352 0 353 -311q0 -102 -37 -293h-553l-11 -63q-10 -57 -10 -97z" />
    <glyph glyph-name="edieresis" unicode="&#xeb;" horiz-adv-x="985" 
d="M696 1198l43 246h209l-45 -246h-207zM338 1198l43 246h209l-45 -246h-207zM567 895q-84 0 -132 -53t-70 -168l-7 -35h332q14 80 15 117q0 139 -138 139zM309 309q0 -143 144 -143q133 0 192 135l191 -43q-54 -152 -148 -215t-262 -63q-346 0 -346 313q0 94 20 199l23 135
q43 242 144 344t300 102q352 0 353 -311q0 -102 -37 -293h-553l-11 -63q-10 -57 -10 -97z" />
    <glyph glyph-name="igrave" unicode="&#xec;" horiz-adv-x="493" 
d="M473 1188h-168l-180 309h246zM37 0l184 1051h234l-185 -1051h-233z" />
    <glyph glyph-name="iacute" unicode="&#xed;" horiz-adv-x="493" 
d="M248 1188l198 309h263l-287 -309h-174zM33 0l184 1051h234l-185 -1051h-233z" />
    <glyph glyph-name="icircumflex" unicode="&#xee;" horiz-adv-x="493" 
d="M401 1354l-131 -160h-227l291 297h168l186 -297h-213zM37 0l184 1051h234l-185 -1051h-233z" />
    <glyph glyph-name="idieresis" unicode="&#xef;" horiz-adv-x="493" 
d="M440 1198l43 246h207l-43 -246h-207zM82 1198l43 246h209l-45 -246h-207zM37 0l184 1051h234l-185 -1051h-233z" />
    <glyph glyph-name="eth" unicode="&#xf0;" horiz-adv-x="1001" 
d="M688 721q0 133 -131 133q-86 0 -133 -58t-72 -198l-30 -170q-12 -63 -13 -125q0 -133 131 -133q86 0 134 60t73 198l29 166q12 61 12 127zM537 1044q94 0 145 -32q-8 51 -27 103q-18 52 -34 71l-199 -105l-60 105l154 82q-8 4 -35 24q-47 29 -98 37l57 158
q86 -10 144 -33t137 -74l168 88l61 -104l-135 -70q115 -164 115 -454q0 -133 -25 -265l-33 -194q-39 -215 -142 -308t-302 -93q-354 0 -354 294q0 74 18 170l35 201q37 205 135 302t275 97z" />
    <glyph glyph-name="ntilde" unicode="&#xf1;" horiz-adv-x="1015" 
d="M764 1358q25 0 42 24t38 86h141q-31 -113 -59 -165q-60 -111 -160 -111t-160 68q-33 37 -46 47t-28 10q-55 0 -88 -111h-141q51 158 103 217t134 59q81 0 142 -61q57 -63 82 -63zM640 1073q146 -1 219 -67t73 -191q0 -86 -23 -211l-106 -604h-234l107 610q14 72 14 129
q0 133 -117 133q-84 0 -131 -64t-73 -224l-103 -584h-233l184 1051h176l4 -82q97 104 243 104z" />
    <glyph glyph-name="ograve" unicode="&#xf2;" horiz-adv-x="1001" 
d="M745 1188h-167l-181 309h246zM694 752q0 131 -135 131q-88 1 -134 -57t-69 -197l-37 -207q-14 -84 -14 -121q0 -131 135 -131q88 0 134 58t69 194l37 207q14 78 14 123zM565 1073q360 0 361 -303q0 -74 -19 -178l-37 -205q-39 -221 -138 -314t-298 -93q-360 0 -360 301
q0 76 18 178l37 207q39 219 139 313t297 94z" />
    <glyph glyph-name="oacute" unicode="&#xf3;" horiz-adv-x="1001" 
d="M492 1188l198 309h262l-286 -309h-174zM694 752q0 131 -135 131q-88 1 -134 -57t-69 -197l-37 -207q-14 -84 -14 -121q0 -131 135 -131q88 0 134 58t69 194l37 207q14 78 14 123zM565 1073q360 0 361 -303q0 -74 -19 -178l-37 -205q-39 -221 -138 -314t-298 -93
q-360 0 -360 301q0 76 18 178l37 207q39 219 139 313t297 94z" />
    <glyph glyph-name="ocircumflex" unicode="&#xf4;" horiz-adv-x="1001" 
d="M653 1354l-131 -160h-227l291 297h168l186 -297h-213zM694 752q0 131 -135 131q-88 1 -134 -57t-69 -197l-37 -207q-14 -84 -14 -121q0 -131 135 -131q88 0 134 58t69 194l37 207q14 78 14 123zM565 1073q360 0 361 -303q0 -74 -19 -178l-37 -205q-39 -221 -138 -314
t-298 -93q-360 0 -360 301q0 76 18 178l37 207q39 219 139 313t297 94z" />
    <glyph glyph-name="otilde" unicode="&#xf5;" horiz-adv-x="1001" 
d="M762 1358q25 0 42 24t38 86h141q-31 -113 -59 -165q-60 -111 -160 -111t-160 68q-33 37 -46 47t-28 10q-55 0 -88 -111h-141q51 158 103 217t134 59t142 -61q57 -63 82 -63zM694 752q0 131 -135 131q-88 1 -134 -57t-69 -197l-37 -207q-14 -84 -14 -121q0 -131 135 -131
q88 0 134 58t69 194l37 207q14 78 14 123zM565 1073q360 0 361 -303q0 -74 -19 -178l-37 -205q-39 -221 -138 -314t-298 -93q-360 0 -360 301q0 76 18 178l37 207q39 219 139 313t297 94z" />
    <glyph glyph-name="odieresis" unicode="&#xf6;" horiz-adv-x="1001" 
d="M694 1198l43 246h209l-45 -246h-207zM336 1198l43 246h209l-45 -246h-207zM694 752q0 131 -135 131q-88 1 -134 -57t-69 -197l-37 -207q-14 -84 -14 -121q0 -131 135 -131q88 0 134 58t69 194l37 207q14 78 14 123zM565 1073q360 0 361 -303q0 -74 -19 -178l-37 -205
q-39 -221 -138 -314t-298 -93q-360 0 -360 301q0 76 18 178l37 207q39 219 139 313t297 94z" />
    <glyph glyph-name="divide" unicode="&#xf7;" horiz-adv-x="980" 
d="M463 963l37 215h211l-39 -215h-209zM344 289l37 215h209l-37 -215h-209zM98 639l33 186h823l-32 -186h-824z" />
    <glyph glyph-name="oslash" unicode="&#xf8;" horiz-adv-x="1001" 
d="M556 883q-83 1 -129 -57t-71 -197l-37 -207l-4 -25l355 443q-31 43 -114 43zM446 170q82 0 128 57t71 195l37 207l2 16l2 8l-354 -440q32 -43 114 -43zM928 780q0 -84 -19 -188l-37 -205q-39 -219 -139 -313q-101 -94 -279 -94t-266 55l-61 -76l-104 74l79 100
q-28 61 -28 139t18 187l37 205q39 221 139 315t278 94t267 -57l61 78l105 -76l-80 -98q29 -56 29 -140z" />
    <glyph glyph-name="ugrave" unicode="&#xf9;" horiz-adv-x="995" 
d="M741 1188h-168l-180 309h246zM324 307q0 -127 106 -127q80 0 123 65t72 222l102 584h234l-185 -1051h-166l-8 90q-51 -61 -106 -86t-140 -24q-130 0 -202 66t-72 169q0 102 27 244l104 592h233l-106 -598q-16 -102 -16 -146z" />
    <glyph glyph-name="uacute" unicode="&#xfa;" horiz-adv-x="995" 
d="M487 1188l199 309h262l-286 -309h-175zM324 307q0 -127 106 -127q80 0 123 65t72 222l102 584h234l-185 -1051h-166l-8 90q-51 -61 -106 -86t-140 -24q-130 0 -202 66t-72 169q0 102 27 244l104 592h233l-106 -598q-16 -102 -16 -146z" />
    <glyph glyph-name="ucircumflex" unicode="&#xfb;" horiz-adv-x="995" 
d="M647 1354l-131 -160h-227l291 297h168l186 -297h-213zM324 307q0 -127 106 -127q80 0 123 65t72 222l102 584h234l-185 -1051h-166l-8 90q-51 -61 -106 -86t-140 -24q-130 0 -202 66t-72 169q0 102 27 244l104 592h233l-106 -598q-16 -102 -16 -146z" />
    <glyph glyph-name="udieresis" unicode="&#xfc;" horiz-adv-x="995" 
d="M690 1198l43 246h209l-45 -246h-207zM332 1198l43 246h209l-45 -246h-207zM324 307q0 -127 106 -127q80 0 123 65t72 222l102 584h234l-185 -1051h-166l-8 90q-51 -61 -106 -86t-140 -24q-130 0 -202 66t-72 169q0 102 27 244l104 592h233l-106 -598q-16 -102 -16 -146z
" />
    <glyph glyph-name="yacute" unicode="&#xfd;" horiz-adv-x="903" 
d="M457 1188l198 309h263l-287 -309h-174zM242 6l-125 1045h229l62 -762l315 762h242l-531 -1160q-57 -123 -99 -189q-86 -134 -234 -161q-71 -12 -191 -12l35 192q111 0 153 32t101 157z" />
    <glyph glyph-name="thorn" unicode="&#xfe;" horiz-adv-x="1009" 
d="M702 739q0 139 -120 140q-160 0 -205 -254l-35 -199q-10 -61 -10 -102q0 -152 127 -152q80 0 127 62q46 63 69 198l37 203q10 68 10 104zM938 786q0 -76 -20 -186l-35 -199q-39 -229 -127 -325t-256 -96q-124 -1 -224 65l-90 -506h-233l340 1923h233l-82 -456
q86 68 195 67q299 0 299 -287z" />
    <glyph glyph-name="ydieresis" unicode="&#xff;" horiz-adv-x="903" 
d="M635 1198l43 246h209l-45 -246h-207zM276 1198l43 246h209l-45 -246h-207zM242 6l-125 1045h229l62 -762l315 762h242l-531 -1160q-57 -123 -99 -189q-86 -134 -234 -161q-71 -12 -191 -12l35 192q111 0 153 32t101 157z" />
    <glyph glyph-name="Amacron" unicode="&#x100;" horiz-adv-x="1089" 
d="M465 1655l29 170h546l-28 -170h-547zM725 494l-63 653l-293 -653h356zM741 295h-458l-133 -295h-269l717 1462h225l207 -1462h-262z" />
    <glyph glyph-name="amacron" unicode="&#x101;" horiz-adv-x="956" 
d="M319 1243l31 170h545l-29 -170h-547zM461 467q-109 0 -159 -54t-50 -159q0 -51 31 -73q31 -21 111 -21t119 37q38 37 56 139l25 131h-133zM639 770q0 113 -121 113q-63 0 -103 -30t-73 -105l-188 61q102 264 381 264q165 0 251 -71t86 -203q0 -61 -20 -183l-109 -616
h-182l-8 49q-80 -70 -231 -69q-303 0 -304 231q0 211 96 315t326 105h183l8 47q8 66 8 92z" />
    <glyph glyph-name="Abreve" unicode="&#x102;" horiz-adv-x="1089" 
d="M625 1853q0 -98 127 -98q76 0 114 31t62 112h149q-25 -174 -99 -244t-230 -69q-276 0 -277 203q0 36 10 110h146q-2 -35 -2 -45zM725 494l-63 653l-293 -653h356zM741 295h-458l-133 -295h-269l717 1462h225l207 -1462h-262z" />
    <glyph glyph-name="abreve" unicode="&#x103;" horiz-adv-x="956" 
d="M336 1374q0 39 10 111h146q-2 -25 -3 -43q0 -98 127 -99q76 0 113 30t64 112h149q-18 -131 -57 -189q-78 -123 -273 -122q-276 0 -276 200zM461 467q-109 0 -159 -54t-50 -159q0 -51 31 -73q31 -21 111 -21t119 37q38 37 56 139l25 131h-133zM639 770q0 113 -121 113
q-63 0 -103 -30t-73 -105l-188 61q102 264 381 264q165 0 251 -71t86 -203q0 -61 -20 -183l-109 -616h-182l-8 49q-80 -70 -231 -69q-303 0 -304 231q0 211 96 315t326 105h183l8 47q8 66 8 92z" />
    <glyph glyph-name="Aogonek" unicode="&#x104;" horiz-adv-x="1089" 
d="M725 494l-63 653l-293 -653h356zM903 -293q43 0 111 23l4 -119q-88 -37 -187 -37q-213 0 -213 156q0 76 65 148t173 122h-88l-27 295h-458l-133 -295h-269l717 1462h225l207 -1462q-115 -84 -156 -134t-40 -104q0 -55 69 -55z" />
    <glyph glyph-name="aogonek" unicode="&#x105;" horiz-adv-x="956" 
d="M461 467q-109 0 -159 -54t-50 -159q0 -51 31 -73q31 -21 111 -21t119 37q38 37 56 139l25 131h-133zM545 -238q0 -54 71 -55q41 0 111 23l2 -119q-86 -37 -184 -37q-215 0 -215 156q0 76 64 148t173 122h-6l-8 49q-80 -70 -231 -69q-303 0 -304 231q0 211 96 315t326 105
h183l8 47q8 66 8 92q0 113 -121 113q-63 0 -103 -30t-73 -105l-188 61q102 264 381 264q165 0 251 -71t86 -203q0 -61 -20 -183l-109 -616h-2l-4 -4q-111 -82 -151 -131t-41 -103z" />
    <glyph glyph-name="Cacute" unicode="&#x106;" horiz-adv-x="1103" 
d="M643 1602l199 307h262l-287 -307h-174zM696 1481q410 0 410 -324q0 -39 -8 -96l-228 -8q2 27 2 53q0 174 -163 174q-115 0 -174 -80t-95 -280l-67 -381q-20 -115 -21 -181q0 -178 168 -178q195 0 254 240l227 -14q-20 -106 -47 -166q-116 -259 -452 -260q-395 0 -396 350
q0 94 25 231l74 412q27 157 59 237t96 142q129 129 336 129z" />
    <glyph glyph-name="cacute" unicode="&#x107;" horiz-adv-x="880" 
d="M485 1188l199 309h262l-287 -309h-174zM78 293q0 78 20 188l27 158q37 221 119 313q102 121 284 121q182 -1 263 -67q80 -66 88 -215l-205 -46q-6 72 -35 105t-99 33q-70 1 -115 -61q-46 -62 -71 -201l-35 -197q-10 -66 -10 -115q0 -139 127 -139q61 0 100 30t68 101
l195 -41q-68 -281 -381 -280q-168 0 -254 80t-86 233z" />
    <glyph glyph-name="Ccircumflex" unicode="&#x108;" horiz-adv-x="1103" 
d="M791 1767l-132 -159h-227l291 297h168l186 -297h-213zM696 1481q410 0 410 -324q0 -39 -8 -96l-228 -8q2 27 2 53q0 174 -163 174q-115 0 -174 -80t-95 -280l-67 -381q-20 -115 -21 -181q0 -178 168 -178q195 0 254 240l227 -14q-20 -106 -47 -166q-116 -259 -452 -260
q-395 0 -396 350q0 94 25 231l74 412q27 157 59 237t96 142q129 129 336 129z" />
    <glyph glyph-name="ccircumflex" unicode="&#x109;" horiz-adv-x="880" 
d="M631 1354l-131 -160h-228l291 297h168l187 -297h-213zM78 293q0 78 20 188l27 158q37 221 119 313q102 121 284 121q182 -1 263 -67q80 -66 88 -215l-205 -46q-6 72 -35 105t-99 33q-70 1 -115 -61q-46 -62 -71 -201l-35 -197q-10 -66 -10 -115q0 -139 127 -139
q61 0 100 30t68 101l195 -41q-68 -281 -381 -280q-168 0 -254 80t-86 233z" />
    <glyph glyph-name="Cdotaccent" unicode="&#x10a;" horiz-adv-x="1103" 
d="M645 1610l43 245h225l-43 -245h-225zM696 1481q410 0 410 -324q0 -39 -8 -96l-228 -8q2 27 2 53q0 174 -163 174q-115 0 -174 -80t-95 -280l-67 -381q-20 -115 -21 -181q0 -178 168 -178q195 0 254 240l227 -14q-20 -106 -47 -166q-116 -259 -452 -260q-395 0 -396 350
q0 94 25 231l74 412q27 157 59 237t96 142q129 129 336 129z" />
    <glyph glyph-name="cdotaccent" unicode="&#x10b;" horiz-adv-x="880" 
d="M477 1198l43 246h225l-43 -246h-225zM78 293q0 78 20 188l27 158q37 221 119 313q102 121 284 121q182 -1 263 -67q80 -66 88 -215l-205 -46q-6 72 -35 105t-99 33q-70 1 -115 -61q-46 -62 -71 -201l-35 -197q-10 -66 -10 -115q0 -139 127 -139q61 0 100 30t68 101
l195 -41q-68 -281 -381 -280q-168 0 -254 80t-86 233z" />
    <glyph glyph-name="Ccaron" unicode="&#x10c;" horiz-adv-x="1103" 
d="M776 1739l129 159h230l-291 -296h-168l-187 296h213zM696 1481q410 0 410 -324q0 -39 -8 -96l-228 -8q2 27 2 53q0 174 -163 174q-115 0 -174 -80t-95 -280l-67 -381q-20 -115 -21 -181q0 -178 168 -178q195 0 254 240l227 -14q-20 -106 -47 -166q-116 -259 -452 -260
q-395 0 -396 350q0 94 25 231l74 412q27 157 59 237t96 142q129 129 336 129z" />
    <glyph glyph-name="ccaron" unicode="&#x10d;" horiz-adv-x="880" 
d="M616 1325l129 162h230l-291 -299h-168l-186 299h213zM78 293q0 78 20 188l27 158q37 221 119 313q102 121 284 121q182 -1 263 -67q80 -66 88 -215l-205 -46q-6 72 -35 105t-99 33q-70 1 -115 -61q-46 -62 -71 -201l-35 -197q-10 -66 -10 -115q0 -139 127 -139
q61 0 100 30t68 101l195 -41q-68 -281 -381 -280q-168 0 -254 80t-86 233z" />
    <glyph glyph-name="Dcaron" unicode="&#x10e;" horiz-adv-x="1187" 
d="M741 1739l129 159h230l-291 -296h-168l-186 296h213zM907 1107q0 157 -225 157h-154l-188 -1065h154q152 -3 220 69t103 264l72 400q18 100 18 175zM702 1462q229 0 328 -71q125 -94 125 -275q0 -72 -22 -190l-80 -461q-35 -245 -167 -357t-376 -108h-451l258 1462h385z
" />
    <glyph glyph-name="dcaron" unicode="&#x10f;" horiz-adv-x="1214" 
d="M1061 954l153 537h220l-209 -537h-164zM432 174q158 0 201 252l35 199q12 72 12 108q0 147 -129 148q-77 -1 -125 -59t-68 -187l-34 -191q-12 -74 -13 -129q0 -141 121 -141zM76 270q0 92 20 203l35 201q39 215 127 307t254 92q76 0 121 -14t102 -60l80 463h234
l-258 -1462h-179l-2 74q-88 -95 -237 -95q-149 1 -223 71t-74 220z" />
    <glyph glyph-name="Dcroat" unicode="&#x110;" horiz-adv-x="1187" 
d="M907 1110q0 154 -225 154h-154l-75 -426h217l-35 -197h-217l-78 -442h154q152 -3 220 69t103 264l72 400q18 106 18 178zM700 1462q231 0 330 -71q125 -94 125 -275q0 -72 -22 -190l-80 -461q-35 -245 -168 -357t-375 -108h-451l113 641h-131l35 197h131l110 624h383z
" />
    <glyph glyph-name="dcroat" unicode="&#x111;" horiz-adv-x="1009" 
d="M432 174q158 0 201 252l35 199q12 72 12 108q0 147 -129 148q-77 -1 -125 -59t-68 -187l-34 -191q-12 -74 -13 -129q0 -141 121 -141zM76 270q0 92 20 203l35 201q39 215 127 307t254 92q76 0 121 -14t102 -60l29 162h-254l29 162h252l24 139h234l-25 -139h133l-29 -162
h-133l-204 -1161h-179l-2 74q-88 -95 -237 -95q-149 1 -223 71t-74 220z" />
    <glyph glyph-name="Emacron" unicode="&#x112;" 
d="M459 1655l28 170h547l-28 -170h-547zM61 0l258 1462h781l-35 -202h-537l-73 -420h454l-37 -203h-454l-76 -434h545l-37 -203h-789z" />
    <glyph glyph-name="emacron" unicode="&#x113;" horiz-adv-x="985" 
d="M344 1243l31 170h545l-29 -170h-547zM567 895q-84 0 -132 -53t-70 -168l-7 -35h332q14 80 15 117q0 139 -138 139zM309 309q0 -143 144 -143q133 0 192 135l191 -43q-54 -152 -148 -215t-262 -63q-346 0 -346 313q0 94 20 199l23 135q43 242 144 344t300 102
q352 0 353 -311q0 -102 -37 -293h-553l-11 -63q-10 -57 -10 -97z" />
    <glyph glyph-name="Ebreve" unicode="&#x114;" 
d="M621 1853q0 -98 127 -98q76 0 114 31t62 112h149q-25 -174 -99 -244t-231 -69q-276 0 -276 203q0 36 10 110h146q-2 -35 -2 -45zM61 0l258 1462h781l-35 -202h-537l-73 -420h454l-37 -203h-454l-76 -434h545l-37 -203h-789z" />
    <glyph glyph-name="ebreve" unicode="&#x115;" horiz-adv-x="985" 
d="M500 1442q0 -98 127 -99q77 0 113 30t63 112h149q-18 -131 -57 -189q-78 -123 -272 -122q-276 0 -277 200q0 39 10 111h146q-2 -25 -2 -43zM567 895q-84 0 -132 -53t-70 -168l-7 -35h332q14 80 15 117q0 139 -138 139zM309 309q0 -143 144 -143q133 0 192 135l191 -43
q-54 -152 -148 -215t-262 -63q-346 0 -346 313q0 94 20 199l23 135q43 242 144 344t300 102q352 0 353 -311q0 -102 -37 -293h-553l-11 -63q-10 -57 -10 -97z" />
    <glyph glyph-name="Edotaccent" unicode="&#x116;" 
d="M621 1610l43 245h225l-43 -245h-225zM61 0l258 1462h781l-35 -202h-537l-73 -420h454l-37 -203h-454l-76 -434h545l-37 -203h-789z" />
    <glyph glyph-name="edotaccent" unicode="&#x117;" horiz-adv-x="985" 
d="M500 1198l43 246h225l-43 -246h-225zM567 895q-84 0 -132 -53t-70 -168l-7 -35h332q14 80 15 117q0 139 -138 139zM309 309q0 -143 144 -143q133 0 192 135l191 -43q-54 -152 -148 -215t-262 -63q-346 0 -346 313q0 94 20 199l23 135q43 242 144 344t300 102
q352 0 353 -311q0 -102 -37 -293h-553l-11 -63q-10 -57 -10 -97z" />
    <glyph glyph-name="Eogonek" unicode="&#x118;" 
d="M653 -240q0 -54 70 -53q43 0 111 23l4 -119q-88 -37 -187 -37q-213 0 -213 156q0 143 226 266l10 4h-613l258 1462h781l-35 -202h-537l-73 -420h454l-37 -203h-454l-76 -434h545l-37 -203q-118 -89 -158 -137q-39 -49 -39 -103z" />
    <glyph glyph-name="eogonek" unicode="&#x119;" horiz-adv-x="985" 
d="M567 895q-84 0 -132 -53t-70 -168l-7 -35h332q14 80 15 117q0 139 -138 139zM459 -236q0 -56 71 -57q45 0 111 23l4 -119q-88 -37 -186 -37q-215 0 -215 158q0 131 162 248q-170 8 -248 82t-78 231q0 94 20 199l23 135q43 242 144 344t300 102q352 0 353 -311
q0 -102 -37 -293h-553l-11 -63q-10 -57 -10 -97q0 -143 144 -143q133 0 192 135l191 -43q-64 -176 -185 -235l-12 -11q-100 -82 -140 -137t-40 -111z" />
    <glyph glyph-name="Ecaron" unicode="&#x11a;" 
d="M750 1739l129 159h229l-291 -296h-168l-186 296h213zM61 0l258 1462h781l-35 -202h-537l-73 -420h454l-37 -203h-454l-76 -434h545l-37 -203h-789z" />
    <glyph glyph-name="ecaron" unicode="&#x11b;" horiz-adv-x="985" 
d="M631 1325l129 162h229l-291 -299h-168l-186 299h213zM567 895q-84 0 -132 -53t-70 -168l-7 -35h332q14 80 15 117q0 139 -138 139zM309 309q0 -143 144 -143q133 0 192 135l191 -43q-54 -152 -148 -215t-262 -63q-346 0 -346 313q0 94 20 199l23 135q43 242 144 344
t300 102q352 0 353 -311q0 -102 -37 -293h-553l-11 -63q-10 -57 -10 -97z" />
    <glyph glyph-name="Gcircumflex" unicode="&#x11c;" horiz-adv-x="1165" 
d="M799 1767l-131 -159h-228l291 297h168l186 -297h-213zM106 336q0 92 25 225l72 412q27 153 61 235t98 144q132 129 346 129q418 0 418 -328q0 -37 -8 -92l-227 -8q2 20 2 45q0 96 -41 139t-129 43q-123 0 -185 -80t-98 -280l-67 -381q-20 -117 -21 -179q0 -180 183 -180
q117 0 183 72t93 231l23 121h-205l33 191h448l-53 -291q-27 -152 -57 -230t-87 -141q-133 -154 -387 -153q-420 0 -420 356z" />
    <glyph glyph-name="gcircumflex" unicode="&#x11d;" horiz-adv-x="1011" 
d="M662 1354l-132 -160h-227l291 297h168l186 -297h-213zM432 174q156 0 201 252l35 199q12 61 12 104q0 150 -129 150q-78 -1 -125 -59t-70 -185l-34 -199q-10 -55 -11 -119q0 -143 121 -143zM367 -20q-291 0 -291 290q0 86 20 205l35 199q39 215 125 307t251 92t253 -96
l37 74h180l-186 -1059q-43 -246 -161 -360t-327 -113q-155 0 -225 60t-80 200l205 49q10 -72 38 -98q27 -26 105 -27q159 0 207 264l12 76q-84 -63 -198 -63z" />
    <glyph glyph-name="Gbreve" unicode="&#x11e;" horiz-adv-x="1165" 
d="M653 1853q0 -98 127 -98q76 0 114 31t62 112h150q-24 -174 -98 -244t-232 -69q-276 0 -276 203q0 36 10 110h145q-2 -35 -2 -45zM106 336q0 92 25 225l72 412q27 153 61 235t98 144q132 129 346 129q418 0 418 -328q0 -37 -8 -92l-227 -8q2 20 2 45q0 96 -41 139t-129 43
q-123 0 -185 -80t-98 -280l-67 -381q-20 -117 -21 -179q0 -180 183 -180q117 0 183 72t93 231l23 121h-205l33 191h448l-53 -291q-27 -152 -57 -230t-87 -141q-133 -154 -387 -153q-420 0 -420 356z" />
    <glyph glyph-name="gbreve" unicode="&#x11f;" horiz-adv-x="1011" 
d="M379 1374q0 39 10 111h146q-2 -25 -3 -43q0 -98 127 -99q76 0 113 30t64 112h149q-18 -131 -57 -189q-78 -123 -273 -122q-276 0 -276 200zM432 174q156 0 201 252l35 199q12 61 12 104q0 150 -129 150q-78 -1 -125 -59t-70 -185l-34 -199q-10 -55 -11 -119
q0 -143 121 -143zM367 -20q-291 0 -291 290q0 86 20 205l35 199q39 215 125 307t251 92t253 -96l37 74h180l-186 -1059q-43 -246 -161 -360t-327 -113q-155 0 -225 60t-80 200l205 49q10 -72 38 -98q27 -26 105 -27q159 0 207 264l12 76q-84 -63 -198 -63z" />
    <glyph glyph-name="Gdotaccent" unicode="&#x120;" horiz-adv-x="1165" 
d="M653 1610l43 245h226l-43 -245h-226zM106 336q0 92 25 225l72 412q27 153 61 235t98 144q132 129 346 129q418 0 418 -328q0 -37 -8 -92l-227 -8q2 20 2 45q0 96 -41 139t-129 43q-123 0 -185 -80t-98 -280l-67 -381q-20 -117 -21 -179q0 -180 183 -180q117 0 183 72
t93 231l23 121h-205l33 191h448l-53 -291q-27 -152 -57 -230t-87 -141q-133 -154 -387 -153q-420 0 -420 356z" />
    <glyph glyph-name="gdotaccent" unicode="&#x121;" horiz-adv-x="1011" 
d="M532 1198l43 246h226l-43 -246h-226zM432 174q156 0 201 252l35 199q12 61 12 104q0 150 -129 150q-78 -1 -125 -59t-70 -185l-34 -199q-10 -55 -11 -119q0 -143 121 -143zM367 -20q-291 0 -291 290q0 86 20 205l35 199q39 215 125 307t251 92t253 -96l37 74h180
l-186 -1059q-43 -246 -161 -360t-327 -113q-155 0 -225 60t-80 200l205 49q10 -72 38 -98q27 -26 105 -27q159 0 207 264l12 76q-84 -63 -198 -63z" />
    <glyph glyph-name="Gcommaaccent" unicode="&#x122;" horiz-adv-x="1165" 
d="M242 -477l147 344h223l-213 -344h-157zM106 336q0 92 25 225l72 412q27 153 61 235t98 144q132 129 346 129q418 0 418 -328q0 -37 -8 -92l-227 -8q2 20 2 45q0 96 -41 139t-129 43q-123 0 -185 -80t-98 -280l-67 -381q-20 -117 -21 -179q0 -180 183 -180q117 0 183 72
t93 231l23 121h-205l33 191h448l-53 -291q-27 -152 -57 -230t-87 -141q-133 -154 -387 -153q-420 0 -420 356z" />
    <glyph glyph-name="gcommaaccent" unicode="&#x123;" horiz-adv-x="1011" 
d="M502 1188l286 309h173l-199 -309h-260zM432 174q156 0 201 252l35 199q12 61 12 104q0 150 -129 150q-78 -1 -125 -59t-70 -185l-34 -199q-10 -55 -11 -119q0 -143 121 -143zM367 -20q-291 0 -291 290q0 86 20 205l35 199q39 215 125 307t251 92t253 -96l37 74h180
l-186 -1059q-43 -246 -161 -360t-327 -113q-155 0 -225 60t-80 200l205 49q10 -72 38 -98q27 -26 105 -27q159 0 207 264l12 76q-84 -63 -198 -63z" />
    <glyph glyph-name="Hcircumflex" unicode="&#x124;" horiz-adv-x="1202" 
d="M827 1767l-131 -159h-227l291 297h168l186 -297h-213zM61 0l258 1462h246l-110 -622h405l111 622h246l-259 -1462h-245l112 637h-405l-113 -637h-246z" />
    <glyph glyph-name="hcircumflex" unicode="&#x125;" horiz-adv-x="1015" 
d="M520 1767l-131 -159h-227l291 297h168l186 -297h-213zM932 815q0 -80 -23 -211l-106 -604h-234l109 616q12 68 12 123q0 131 -115 131q-84 0 -131 -63t-73 -213l-105 -594h-233l258 1462h233l-80 -456q88 68 213 68t200 -70q75 -68 75 -189z" />
    <glyph glyph-name="Hbar" unicode="&#x126;" horiz-adv-x="1202" 
d="M455 840h405l31 176h-406zM61 0l179 1016h-131l30 176h133l47 270h246l-47 -270h404l49 270h246l-50 -270h133l-30 -176h-133l-179 -1016h-245l112 637h-405l-113 -637h-246z" />
    <glyph glyph-name="hbar" unicode="&#x127;" horiz-adv-x="1015" 
d="M932 815q0 -80 -23 -211l-106 -604h-234l109 616q12 70 12 121q0 133 -115 133q-84 0 -131 -63t-73 -213l-105 -594h-233l205 1161h-134l29 162h133l25 139h233l-24 -139h254l-29 -162h-254l-27 -155q90 68 214 68t199 -70q75 -68 75 -189z" />
    <glyph glyph-name="Itilde" unicode="&#x128;" horiz-adv-x="552" 
d="M390 1896q81 0 141 -62t84 -62t41 24t38 86h142q-44 -160 -94 -219t-140 -59t-142 62t-77 63q-55 0 -88 -111h-141q51 158 103 218t133 60zM61 0l258 1462h246l-258 -1462h-246z" />
    <glyph glyph-name="itilde" unicode="&#x129;" horiz-adv-x="493" 
d="M510 1358q25 0 42 24t38 86h141q-31 -113 -59 -165q-60 -111 -160 -111t-154 62t-79 63q-56 0 -89 -111h-141q51 158 103 217t134 59q81 0 142 -61q57 -63 82 -63zM37 0l184 1051h234l-185 -1051h-233z" />
    <glyph glyph-name="Imacron" unicode="&#x12a;" horiz-adv-x="552" 
d="M203 1655l28 170h547l-28 -170h-547zM61 0l258 1462h246l-258 -1462h-246z" />
    <glyph glyph-name="imacron" unicode="&#x12b;" horiz-adv-x="493" 
d="M98 1243l31 170h545l-29 -170h-547zM37 0l184 1051h234l-185 -1051h-233z" />
    <glyph glyph-name="Ibreve" unicode="&#x12c;" horiz-adv-x="552" 
d="M365 1853q0 -98 127 -98q76 0 114 31t62 112h149q-25 -174 -99 -244t-231 -69q-276 0 -276 203q0 36 10 110h146q-2 -35 -2 -45zM61 0l258 1462h246l-258 -1462h-246z" />
    <glyph glyph-name="ibreve" unicode="&#x12d;" horiz-adv-x="493" 
d="M260 1442q0 -98 127 -99q76 0 113 30t63 112h150q-18 -131 -58 -189q-78 -123 -272 -122q-276 0 -277 200q1 39 11 111h145q-2 -25 -2 -43zM37 0l184 1051h234l-185 -1051h-233z" />
    <glyph glyph-name="Iogonek" unicode="&#x12e;" horiz-adv-x="552" 
d="M113 -238q0 -54 67 -55q43 0 109 23l4 -119q-86 -37 -182 -37q-213 0 -213 158q0 150 233 268h-72l258 1462h246l-258 -1462l-12 -8q-100 -76 -140 -126t-40 -104z" />
    <glyph glyph-name="iogonek" unicode="&#x12f;" horiz-adv-x="493" 
d="M252 1219l45 254h233l-45 -254h-233zM78 -238q0 -56 67 -55q43 0 109 23l4 -119q-86 -37 -182 -37q-213 0 -213 158q0 76 61 146t172 122h-59l186 1051h234l-187 -1051q-112 -82 -152 -132t-40 -106z" />
    <glyph glyph-name="Idotaccent" unicode="&#x130;" horiz-adv-x="552" 
d="M354 1610l43 245h226l-43 -245h-226zM61 0l258 1462h246l-258 -1462h-246z" />
    <glyph glyph-name="dotlessi" unicode="&#x131;" horiz-adv-x="493" 
d="M37 0l184 1051h234l-185 -1051h-233z" />
    <glyph glyph-name="IJ" unicode="&#x132;" horiz-adv-x="1103" 
d="M422 -500q-109 0 -223 41l123 185q47 -25 88 -25q106 0 157 119q25 59 56 227l247 1415h246l-254 -1444q-28 -162 -50 -236q-86 -282 -390 -282zM61 0l258 1462h246l-258 -1462h-246z" />
    <glyph glyph-name="ij" unicode="&#x133;" horiz-adv-x="991" 
d="M721 1051h233l-186 -1057q-45 -287 -148 -379t-374 -86l35 192q115 -3 171 57t83 216zM750 1219l45 254h233l-45 -254h-233zM37 0l184 1051h234l-185 -1051h-233zM252 1219l45 254h233l-45 -254h-233z" />
    <glyph glyph-name="Jcircumflex" unicode="&#x134;" horiz-adv-x="839" 
d="M743 1767l-131 -159h-227l291 297h168l186 -297h-213zM242 180q102 0 153 119q23 53 54 225l165 938h246l-172 -968q-35 -195 -49 -248t-53 -109q-100 -158 -330 -157q-119 0 -204 36t-165 117l168 160q85 -113 187 -113z" />
    <glyph glyph-name="jcircumflex" unicode="&#x135;" horiz-adv-x="503" 
d="M399 1354l-131 -160h-227l291 297h168l186 -297h-213zM231 1051h234l-186 -1057q-45 -287 -149 -379t-374 -86l35 192q115 -3 171 57t83 216z" />
    <glyph glyph-name="Kcommaaccent" unicode="&#x136;" horiz-adv-x="1089" 
d="M246 -477l147 344h223l-213 -344h-157zM63 0l259 1462h243l-110 -633l526 633h276l-524 -600l291 -862h-272l-205 688l-150 -178l-90 -510h-244z" />
    <glyph glyph-name="kcommaaccent" unicode="&#x137;" horiz-adv-x="952" 
d="M158 -477l147 344h223l-213 -344h-157zM39 0l258 1462h233l-157 -891l403 480h258l-397 -441l225 -610h-250l-149 449l-139 -162l-52 -287h-233z" />
    <glyph glyph-name="kgreenlandic" unicode="&#x138;" horiz-adv-x="952" 
d="M39 0l184 1051h234l-84 -478l403 478h258l-397 -441l225 -610h-250l-149 449l-139 -162l-52 -287h-233z" />
    <glyph glyph-name="Lacute" unicode="&#x139;" horiz-adv-x="964" 
d="M393 1602l199 307h262l-287 -307h-174zM61 0l258 1462h246l-223 -1259h545l-35 -203h-791z" />
    <glyph glyph-name="lacute" unicode="&#x13a;" horiz-adv-x="555" 
d="M338 1602l199 309h262l-287 -309h-174zM328 284q0 -92 137 -91h24l-32 -193h-37q-184 0 -257 51t-73 178q0 84 25 226l178 1007h233l-188 -1063q-10 -71 -10 -115z" />
    <glyph glyph-name="Lcommaaccent" unicode="&#x13b;" horiz-adv-x="964" 
d="M195 -477l147 344h223l-213 -344h-157zM61 0l258 1462h246l-223 -1259h545l-35 -203h-791z" />
    <glyph glyph-name="lcommaaccent" unicode="&#x13c;" horiz-adv-x="555" 
d="M-51 -477l147 344h223l-213 -344h-157zM324 286q0 -95 135 -93h26l-32 -193h-37q-184 0 -257 51t-73 180q0 78 25 224l178 1007h233l-188 -1063q-10 -69 -10 -113z" />
    <glyph glyph-name="Lcaron" unicode="&#x13d;" horiz-adv-x="964" 
d="M633 954l153 537h220l-209 -537h-164zM61 0l258 1462h246l-223 -1259h545l-35 -203h-791z" />
    <glyph glyph-name="lcaron" unicode="&#x13e;" horiz-adv-x="712" 
d="M559 954l154 537h219l-209 -537h-164zM328 284q0 -92 137 -91h24l-32 -193h-37q-184 0 -257 51t-73 178q0 84 25 226l178 1007h233l-188 -1063q-10 -71 -10 -115z" />
    <glyph glyph-name="Ldot" unicode="&#x13f;" horiz-adv-x="964" 
d="M655 608l43 248h207l-43 -248h-207zM61 0l258 1462h246l-223 -1259h545l-35 -203h-791z" />
    <glyph glyph-name="ldot" unicode="&#x140;" horiz-adv-x="677" 
d="M494 608l45 248h206l-45 -248h-206zM328 284q0 -92 137 -91h24l-32 -193h-37q-184 0 -257 51t-73 178q0 84 25 226l178 1007h233l-188 -1063q-10 -71 -10 -115z" />
    <glyph glyph-name="Lslash" unicode="&#x141;" horiz-adv-x="964" 
d="M59 0l72 397l-137 -88l39 221l135 86l149 846h246l-121 -686l361 230l-39 -222l-361 -227l-61 -354h545l-37 -203h-791z" />
    <glyph glyph-name="lslash" unicode="&#x142;" horiz-adv-x="595" 
d="M350 286q0 -95 135 -93h27l-33 -193h-37q-184 0 -257 51t-72 178q0 74 12 140l25 149l-175 -108l41 227l172 108l127 717h234l-100 -567l223 139l-39 -227l-225 -139l-48 -269q-10 -69 -10 -113z" />
    <glyph glyph-name="Nacute" unicode="&#x143;" horiz-adv-x="1263" 
d="M721 1602l199 307h262l-287 -307h-174zM61 0l258 1462h242l303 -1007l178 1007h234l-258 -1462h-236l-307 1012l-178 -1012h-236z" />
    <glyph glyph-name="nacute" unicode="&#x144;" horiz-adv-x="1015" 
d="M510 1188l199 309h262l-287 -309h-174zM640 1073q146 -1 219 -67t73 -191q0 -86 -23 -211l-106 -604h-234l107 610q14 72 14 129q0 133 -117 133q-84 0 -131 -64t-73 -224l-103 -584h-233l184 1051h176l4 -82q97 104 243 104z" />
    <glyph glyph-name="Ncommaaccent" unicode="&#x145;" horiz-adv-x="1263" 
d="M303 -477l148 344h223l-213 -344h-158zM61 0l258 1462h242l303 -1007l178 1007h234l-258 -1462h-236l-307 1012l-178 -1012h-236z" />
    <glyph glyph-name="ncommaaccent" unicode="&#x146;" horiz-adv-x="1015" 
d="M176 -477l148 344h223l-213 -344h-158zM640 1073q146 -1 219 -67t73 -191q0 -86 -23 -211l-106 -604h-234l107 610q14 72 14 129q0 133 -117 133q-84 0 -131 -64t-73 -224l-103 -584h-233l184 1051h176l4 -82q97 104 243 104z" />
    <glyph glyph-name="Ncaron" unicode="&#x147;" horiz-adv-x="1263" 
d="M846 1739l129 159h229l-291 -296h-168l-186 296h213zM61 0l258 1462h242l303 -1007l178 1007h234l-258 -1462h-236l-307 1012l-178 -1012h-236z" />
    <glyph glyph-name="ncaron" unicode="&#x148;" horiz-adv-x="1015" 
d="M629 1325l129 162h229l-291 -299h-168l-186 299h213zM640 1073q146 -1 219 -67t73 -191q0 -86 -23 -211l-106 -604h-234l107 610q14 72 14 129q0 133 -117 133q-84 0 -131 -64t-73 -224l-103 -584h-233l184 1051h176l4 -82q97 104 243 104z" />
    <glyph glyph-name="napostrophe" unicode="&#x149;" horiz-adv-x="1173" 
d="M51 942l150 520h250l-195 -520h-205zM784 1073q146 -1 218 -67t73 -191q0 -80 -22 -211l-107 -604h-233l106 610q14 72 15 129q0 133 -117 133q-84 0 -131 -64t-74 -224l-102 -584h-234l184 1051h177l4 -82q97 104 243 104z" />
    <glyph glyph-name="Eng" unicode="&#x14a;" horiz-adv-x="1263" 
d="M61 0l258 1462h242l303 -1001l178 1001h234l-258 -1460q-45 -279 -153 -377t-363 -96l33 186q109 -7 167 53t82 201l7 43l-316 1000l-178 -1012h-236z" />
    <glyph glyph-name="eng" unicode="&#x14b;" horiz-adv-x="1015" 
d="M640 1073q146 -1 219 -67t73 -191q0 -86 -23 -211l-106 -602q-45 -281 -154 -378t-370 -95l34 195q115 -6 172 55t82 215l109 616q14 72 14 129q0 133 -117 133q-84 0 -131 -64t-73 -224l-103 -584h-233l184 1051h176l4 -82q97 104 243 104z" />
    <glyph glyph-name="Omacron" unicode="&#x14c;" horiz-adv-x="1187" 
d="M508 1655l29 170h546l-28 -170h-547zM909 1106q0 176 -188 176q-121 0 -183 -76t-96 -268l-73 -414q-18 -104 -19 -168q0 -176 187 -176q123 0 184 76t96 268l72 414q20 117 20 168zM733 1483q422 0 422 -357q0 -72 -22 -202l-80 -459q-25 -139 -58 -216t-94 -138
q-129 -131 -366 -131q-430 0 -431 356q1 70 21 203l82 458q25 139 56 216q32 77 93 139q131 131 377 131z" />
    <glyph glyph-name="omacron" unicode="&#x14d;" horiz-adv-x="1001" 
d="M348 1243l31 170h545l-29 -170h-547zM694 752q0 131 -135 131q-88 1 -134 -57t-69 -197l-37 -207q-14 -84 -14 -121q0 -131 135 -131q88 0 134 58t69 194l37 207q14 78 14 123zM565 1073q360 0 361 -303q0 -74 -19 -178l-37 -205q-39 -221 -138 -314t-298 -93
q-360 0 -360 301q0 76 18 178l37 207q39 219 139 313t297 94z" />
    <glyph glyph-name="Obreve" unicode="&#x14e;" horiz-adv-x="1187" 
d="M680 1853q0 -98 127 -98q76 0 114 31t62 112h150q-25 -174 -99 -244t-231 -69q-276 0 -277 203q1 36 11 110h145q-2 -35 -2 -45zM909 1106q0 176 -188 176q-121 0 -183 -76t-96 -268l-73 -414q-18 -104 -19 -168q0 -176 187 -176q123 0 184 76t96 268l72 414
q20 117 20 168zM733 1483q422 0 422 -357q0 -72 -22 -202l-80 -459q-25 -139 -58 -216t-94 -138q-129 -131 -366 -131q-430 0 -431 356q1 70 21 203l82 458q25 139 56 216q32 77 93 139q131 131 377 131z" />
    <glyph glyph-name="obreve" unicode="&#x14f;" horiz-adv-x="1001" 
d="M514 1442q0 -98 127 -99q76 0 113 30t63 112h150q-18 -131 -58 -189q-78 -123 -272 -122q-276 0 -277 200q1 39 11 111h145q-2 -25 -2 -43zM694 752q0 131 -135 131q-88 1 -134 -57t-69 -197l-37 -207q-14 -84 -14 -121q0 -131 135 -131q88 0 134 58t69 194l37 207
q14 78 14 123zM565 1073q360 0 361 -303q0 -74 -19 -178l-37 -205q-39 -221 -138 -314t-298 -93q-360 0 -360 301q0 76 18 178l37 207q39 219 139 313t297 94z" />
    <glyph glyph-name="Ohungarumlaut" unicode="&#x150;" horiz-adv-x="1187" 
d="M829 1602l170 307h236l-244 -307h-162zM532 1602l168 307h238l-244 -307h-162zM909 1106q0 176 -188 176q-121 0 -183 -76t-96 -268l-73 -414q-18 -104 -19 -168q0 -176 187 -176q123 0 184 76t96 268l72 414q20 117 20 168zM733 1483q422 0 422 -357q0 -72 -22 -202
l-80 -459q-25 -139 -58 -216t-94 -138q-129 -131 -366 -131q-430 0 -431 356q1 70 21 203l82 458q25 139 56 216q32 77 93 139q131 131 377 131z" />
    <glyph glyph-name="ohungarumlaut" unicode="&#x151;" horiz-adv-x="1001" 
d="M664 1188l170 309h235l-244 -309h-161zM367 1188l168 309h237l-244 -309h-161zM694 752q0 131 -135 131q-88 1 -134 -57t-69 -197l-37 -207q-14 -84 -14 -121q0 -131 135 -131q88 0 134 58t69 194l37 207q14 78 14 123zM565 1073q360 0 361 -303q0 -74 -19 -178l-37 -205
q-39 -221 -138 -314t-298 -93q-360 0 -360 301q0 76 18 178l37 207q39 219 139 313t297 94z" />
    <glyph glyph-name="OE" unicode="&#x152;" horiz-adv-x="1689" 
d="M541 180q119 0 183 78t99 262l72 414q18 98 18 168q0 180 -188 180q-121 0 -183 -77t-98 -265l-73 -420q-18 -115 -19 -162q0 -178 189 -178zM696 1483q174 0 258 -62q8 -6 58 -57l18 98h739l-36 -202h-537l-74 -420h455l-35 -203h-455l-77 -434h544l-36 -203h-746l16 96
q-68 -68 -131 -92t-168 -24q-186 0 -284 91t-99 261q0 78 23 203l82 462q41 248 143 355q123 131 342 131z" />
    <glyph glyph-name="oe" unicode="&#x153;" horiz-adv-x="1546" 
d="M1128 895q-162 0 -202 -221l-6 -35h331q14 78 15 117q0 139 -138 139zM696 741q0 141 -133 142q-86 1 -134 -59t-73 -195l-34 -207q-12 -68 -13 -117q0 -135 133 -135q86 0 135 59q47 60 70 193l37 207q12 80 12 112zM555 1073q115 0 185 -30t118 -95q57 68 122 96
t163 29q338 0 338 -309q0 -104 -37 -295h-553l-12 -63q-8 -66 -9 -97q0 -143 146 -143q131 0 190 135l191 -43q-53 -147 -145 -213q-92 -65 -225 -65q-134 0 -202 28t-112 98q-57 -70 -124 -98t-169 -28q-344 0 -344 296q0 72 18 183l35 205q41 219 139 314t287 95z" />
    <glyph glyph-name="Racute" unicode="&#x154;" horiz-adv-x="1138" 
d="M623 1602l198 307h262l-286 -307h-174zM627 799q131 0 188 71q72 92 72 240q0 84 -41 119t-139 35h-181l-82 -465h183zM727 1462q219 0 315 -76t97 -239q0 -115 -33 -227t-86 -177q-80 -94 -203 -114l166 -629h-272l-136 608h-159l-107 -608h-246l259 1462h405z" />
    <glyph glyph-name="racute" unicode="&#x155;" horiz-adv-x="704" 
d="M391 1188l199 309h262l-287 -309h-174zM550 872q-65 0 -111 -84t-81 -278l-90 -510h-233l184 1051h180l15 -82q51 57 98 81t126 24t169 -64l-135 -195q-57 57 -122 57z" />
    <glyph glyph-name="Rcommaaccent" unicode="&#x156;" horiz-adv-x="1138" 
d="M244 -477l147 344h223l-213 -344h-157zM627 799q131 0 188 71q72 92 72 240q0 84 -41 119t-139 35h-181l-82 -465h183zM727 1462q219 0 315 -76t97 -239q0 -115 -33 -227t-86 -177q-80 -94 -203 -114l166 -629h-272l-136 608h-159l-107 -608h-246l259 1462h405z" />
    <glyph glyph-name="rcommaaccent" unicode="&#x157;" horiz-adv-x="704" 
d="M-125 -477l148 344h223l-213 -344h-158zM550 872q-132 0 -194 -362l-90 -510h-233l186 1051h178l15 -82q51 57 98 81t127 24t170 -64l-135 -195q-57 57 -122 57z" />
    <glyph glyph-name="Rcaron" unicode="&#x158;" horiz-adv-x="1138" 
d="M729 1739l129 159h229l-290 -296h-168l-187 296h213zM627 799q131 0 188 71q72 92 72 240q0 84 -41 119t-139 35h-181l-82 -465h183zM727 1462q219 0 315 -76t97 -239q0 -115 -33 -227t-86 -177q-80 -94 -203 -114l166 -629h-272l-136 608h-159l-107 -608h-246l259 1462
h405z" />
    <glyph glyph-name="rcaron" unicode="&#x159;" horiz-adv-x="704" 
d="M518 1325l129 162h230l-291 -299h-168l-187 299h213zM550 872q-65 0 -111 -84t-81 -278l-90 -510h-233l184 1051h180l15 -82q51 57 98 81t126 24t169 -64l-135 -195q-57 57 -122 57z" />
    <glyph glyph-name="Sacute" unicode="&#x15a;" horiz-adv-x="1028" 
d="M578 1602l198 307h262l-286 -307h-174zM440 178q162 0 222 111q43 76 43 159t-50 121q-25 17 -49 27t-137 47q-295 94 -295 354q0 207 117 346t355 139t329 -132q45 -63 53 -191l-219 -59q-10 82 -33 114q-45 70 -145 70t-158 -66q-57 -66 -57 -162t42 -134t194 -91
q152 -51 224 -135q73 -84 72 -227q0 -211 -110 -338q-129 -154 -407 -154t-374 140q-47 74 -55 209l221 61q11 -113 61 -161t156 -48z" />
    <glyph glyph-name="sacute" unicode="&#x15b;" horiz-adv-x="882" 
d="M432 1188l199 309h262l-287 -309h-174zM369 168q90 0 142 44t52 108t-33 82q-34 18 -162 46t-188 88t-61 177q0 168 101 264t278 96q223 0 297 -112q33 -49 39 -152l-203 -49q-8 125 -129 125q-72 0 -116 -42q-44 -43 -44 -99t31 -78t110 -37q175 -35 239 -90t64 -174
q0 -385 -428 -385q-252 0 -329 122q-31 49 -39 158l209 43q8 -75 44 -105t126 -30z" />
    <glyph glyph-name="Scircumflex" unicode="&#x15c;" horiz-adv-x="1028" 
d="M725 1767l-131 -159h-227l290 297h168l187 -297h-213zM440 178q162 0 222 111q43 76 43 159t-50 121q-25 17 -49 27t-137 47q-295 94 -295 354q0 207 117 346t355 139t329 -132q45 -63 53 -191l-219 -59q-10 82 -33 114q-45 70 -145 70t-158 -66q-57 -66 -57 -162
t42 -134t194 -91q152 -51 224 -135q73 -84 72 -227q0 -211 -110 -338q-129 -154 -407 -154t-374 140q-47 74 -55 209l221 61q11 -113 61 -161t156 -48z" />
    <glyph glyph-name="scircumflex" unicode="&#x15d;" horiz-adv-x="882" 
d="M586 1354l-131 -160h-228l291 297h168l186 -297h-213zM369 168q90 0 142 44t52 108t-33 82q-34 18 -162 46t-188 88t-61 177q0 168 101 264t278 96q223 0 297 -112q33 -49 39 -152l-203 -49q-8 125 -129 125q-72 0 -116 -42q-44 -43 -44 -99t31 -78t110 -37
q175 -35 239 -90t64 -174q0 -385 -428 -385q-252 0 -329 122q-31 49 -39 158l209 43q8 -75 44 -105t126 -30z" />
    <glyph glyph-name="Scedilla" unicode="&#x15e;" horiz-adv-x="1028" 
d="M158 -477l147 344h223l-213 -344h-157zM440 178q162 0 222 111q43 76 43 159t-50 121q-25 17 -49 27t-137 47q-295 94 -295 354q0 207 117 346t355 139t329 -132q45 -63 53 -191l-219 -59q-10 82 -33 114q-45 70 -145 70t-158 -66q-57 -66 -57 -162t42 -134t194 -91
q152 -51 224 -135q73 -84 72 -227q0 -211 -110 -338q-129 -154 -407 -154t-374 140q-47 74 -55 209l221 61q11 -113 61 -161t156 -48z" />
    <glyph glyph-name="scedilla" unicode="&#x15f;" horiz-adv-x="882" 
d="M94 -477l148 344h223l-213 -344h-158zM369 168q90 0 142 44t52 108t-33 82q-34 18 -162 46t-188 88t-61 177q0 168 101 264t278 96q223 0 297 -112q33 -49 39 -152l-203 -49q-8 125 -129 125q-72 0 -116 -42q-44 -43 -44 -99t31 -78t110 -37q175 -35 239 -90t64 -174
q0 -385 -428 -385q-252 0 -329 122q-31 49 -39 158l209 43q8 -75 44 -105t126 -30z" />
    <glyph glyph-name="Scaron" unicode="&#x160;" horiz-adv-x="1028" 
d="M700 1739l129 159h230l-291 -296h-168l-186 296h213zM440 178q162 0 222 111q43 76 43 159t-50 121q-25 17 -49 27t-137 47q-295 94 -295 354q0 207 117 346t355 139t329 -132q45 -63 53 -191l-219 -59q-10 82 -33 114q-45 70 -145 70t-158 -66q-57 -66 -57 -162t42 -134
t194 -91q152 -51 224 -135q73 -84 72 -227q0 -211 -110 -338q-129 -154 -407 -154t-374 140q-47 74 -55 209l221 61q11 -113 61 -161t156 -48z" />
    <glyph glyph-name="scaron" unicode="&#x161;" horiz-adv-x="882" 
d="M565 1325l129 162h230l-291 -299h-168l-186 299h213zM369 168q90 0 142 44t52 108t-33 82q-34 18 -162 46t-188 88t-61 177q0 168 101 264t278 96q223 0 297 -112q33 -49 39 -152l-203 -49q-8 125 -129 125q-72 0 -116 -42q-44 -43 -44 -99t31 -78t110 -37
q175 -35 239 -90t64 -174q0 -385 -428 -385q-252 0 -329 122q-31 49 -39 158l209 43q8 -75 44 -105t126 -30z" />
    <glyph glyph-name="Tcommaaccent" unicode="&#x162;" horiz-adv-x="950" 
d="M109 -477l147 344h223l-213 -344h-157zM260 0l223 1260h-327l34 202h900l-35 -202h-326l-223 -1260h-246z" />
    <glyph glyph-name="tcommaaccent" unicode="&#x163;" horiz-adv-x="626" 
d="M-10 -477l147 344h223l-213 -344h-157zM432 0q-178 0 -249 45t-70 158q0 66 28 239l76 420h-108l32 189h111l67 309h218l-54 -309h181l-33 -189h-182l-82 -467q-15 -83 -15 -121q-1 -82 125 -81h35l-35 -193h-45z" />
    <glyph glyph-name="Tcaron" unicode="&#x164;" horiz-adv-x="950" 
d="M682 1739l129 159h229l-290 -296h-168l-187 296h213zM260 0l223 1260h-327l34 202h900l-35 -202h-326l-223 -1260h-246z" />
    <glyph glyph-name="tcaron" unicode="&#x165;" horiz-adv-x="782" 
d="M664 1143l127 446h219l-183 -446h-163zM430 0q-178 0 -249 45t-70 158q0 70 28 239l74 420h-107l33 189h111l67 309h218l-54 -309h181l-33 -189h-183l-81 -467q-15 -83 -15 -121q-1 -83 125 -81h35l-35 -193h-45z" />
    <glyph glyph-name="Tbar" unicode="&#x166;" horiz-adv-x="950" 
d="M262 0l113 641h-219l34 197h220l73 422h-327l37 202h899l-37 -202h-326l-74 -422h217l-34 -197h-217l-113 -641h-246z" />
    <glyph glyph-name="tbar" unicode="&#x167;" horiz-adv-x="630" 
d="M436 0q-182 0 -252 44t-69 159q0 70 20 178l31 172h-109l29 162h107l26 147h-106l32 189h107l70 309h219l-56 -309h183l-35 -189h-180l-27 -147h176l-27 -162h-178l-30 -184q-11 -53 -11 -93q-1 -85 125 -83h35l-35 -193h-45z" />
    <glyph glyph-name="Utilde" unicode="&#x168;" horiz-adv-x="1210" 
d="M720 1896q81 0 141 -62t84 -62t41 24t38 86h141q-45 -160 -94 -219t-138 -59t-143 62t-77 63q-55 0 -88 -111h-142q51 158 103 218t134 60zM373 336q0 -156 178 -156q141 0 205 111q35 61 59 201l170 970h246l-178 -1013q-27 -145 -52 -210t-75 -120q-133 -139 -380 -139
t-345 116q-74 86 -74 213q0 78 27 226l163 927h246l-172 -970q-18 -109 -18 -156z" />
    <glyph glyph-name="utilde" unicode="&#x169;" horiz-adv-x="995" 
d="M762 1358q25 0 42 24t38 86h141q-31 -113 -59 -165q-60 -111 -160 -111t-160 68q-33 37 -46 47t-28 10q-55 0 -88 -111h-141q51 158 103 217t134 59t142 -61q57 -63 82 -63zM324 307q0 -127 106 -127q80 0 123 65t72 222l102 584h234l-185 -1051h-166l-8 90
q-51 -61 -106 -86t-140 -24q-130 0 -202 66t-72 169q0 102 27 244l104 592h233l-106 -598q-16 -102 -16 -146z" />
    <glyph glyph-name="Umacron" unicode="&#x16a;" horiz-adv-x="1210" 
d="M526 1655l29 170h547l-29 -170h-547zM373 336q0 -156 178 -156q141 0 205 111q35 61 59 201l170 970h246l-178 -1013q-27 -145 -52 -210t-75 -120q-133 -139 -380 -139t-345 116q-74 86 -74 213q0 78 27 226l163 927h246l-172 -970q-18 -109 -18 -156z" />
    <glyph glyph-name="umacron" unicode="&#x16b;" horiz-adv-x="995" 
d="M346 1243l31 170h545l-29 -170h-547zM324 307q0 -127 106 -127q80 0 123 65t72 222l102 584h234l-185 -1051h-166l-8 90q-51 -61 -106 -86t-140 -24q-130 0 -202 66t-72 169q0 102 27 244l104 592h233l-106 -598q-16 -102 -16 -146z" />
    <glyph glyph-name="Ubreve" unicode="&#x16c;" horiz-adv-x="1210" 
d="M694 1853q0 -98 127 -98q76 0 114 31t62 112h150q-25 -174 -99 -244t-231 -69q-276 0 -276 203q0 36 10 110h145q-2 -35 -2 -45zM373 336q0 -156 178 -156q141 0 205 111q35 61 59 201l170 970h246l-178 -1013q-27 -145 -52 -210t-75 -120q-133 -139 -380 -139t-345 116
q-74 86 -74 213q0 78 27 226l163 927h246l-172 -970q-18 -109 -18 -156z" />
    <glyph glyph-name="ubreve" unicode="&#x16d;" horiz-adv-x="995" 
d="M504 1442q0 -98 127 -99q77 0 113 30t63 112h149q-18 -131 -57 -189q-78 -123 -272 -122q-276 0 -277 200q0 39 10 111h146q-2 -25 -2 -43zM324 307q0 -127 106 -127q80 0 123 65t72 222l102 584h234l-185 -1051h-166l-8 90q-51 -61 -106 -86t-140 -24q-130 0 -202 66
t-72 169q0 102 27 244l104 592h233l-106 -598q-16 -102 -16 -146z" />
    <glyph glyph-name="Uring" unicode="&#x16e;" horiz-adv-x="1210" 
d="M850 1921q-53 0 -84 -41t-31 -111q0 -78 78 -77q51 0 82 41t31 110q0 78 -76 78zM590 1789q0 103 74 173t182 70t166 -54t59 -151q0 -98 -76 -172t-182 -74t-165 53q-58 53 -58 155zM373 336q0 -156 178 -156q141 0 205 111q35 61 59 201l170 970h246l-178 -1013
q-27 -145 -52 -210t-75 -120q-133 -139 -380 -139t-345 116q-74 86 -74 213q0 78 27 226l163 927h246l-172 -970q-18 -109 -18 -156z" />
    <glyph glyph-name="uring" unicode="&#x16f;" horiz-adv-x="995" 
d="M670 1509q-53 0 -84 -42t-31 -111q0 -76 78 -76q51 0 83 42t32 110q0 77 -78 77zM666 1620q108 0 168 -53t59 -153q0 -100 -76 -172t-183 -73q-108 -1 -166 53t-58 156t74 172t182 70zM324 307q0 -127 106 -127q80 0 123 65t72 222l102 584h234l-185 -1051h-166l-8 90
q-51 -61 -106 -86t-140 -24q-130 0 -202 66t-72 169q0 102 27 244l104 592h233l-106 -598q-16 -102 -16 -146z" />
    <glyph glyph-name="Uhungarumlaut" unicode="&#x170;" horiz-adv-x="1210" 
d="M844 1602l170 307h235l-243 -307h-162zM547 1602l168 307h237l-243 -307h-162zM373 336q0 -156 178 -156q141 0 205 111q35 61 59 201l170 970h246l-178 -1013q-27 -145 -52 -210t-75 -120q-133 -139 -380 -139t-345 116q-74 86 -74 213q0 78 27 226l163 927h246
l-172 -970q-18 -109 -18 -156z" />
    <glyph glyph-name="uhungarumlaut" unicode="&#x171;" horiz-adv-x="995" 
d="M662 1188l169 309h236l-244 -309h-161zM365 1188l167 309h238l-244 -309h-161zM324 307q0 -127 106 -127q80 0 123 65t72 222l102 584h234l-185 -1051h-166l-8 90q-51 -61 -106 -86t-140 -24q-130 0 -202 66t-72 169q0 102 27 244l104 592h233l-106 -598
q-16 -102 -16 -146z" />
    <glyph glyph-name="Uogonek" unicode="&#x172;" horiz-adv-x="1210" 
d="M547 -238q0 -56 71 -55q43 0 111 23l4 -119q-88 -37 -186 -37q-215 0 -215 156q0 135 182 250q-182 6 -272 75q-115 92 -115 254q0 78 27 226l163 927h246l-172 -970q-18 -109 -18 -156q0 -156 178 -156q141 0 205 111q35 61 59 201l170 970h246l-178 -1013
q-27 -193 -101 -296t-219 -151q-102 -76 -144 -130t-42 -110z" />
    <glyph glyph-name="uogonek" unicode="&#x173;" horiz-adv-x="995" 
d="M649 -293q43 0 111 23l4 -119q-88 -37 -186 -37q-215 0 -216 156q0 119 144 215q66 45 104 59l-8 86q-51 -61 -106 -86t-140 -24q-130 0 -202 66t-72 169q0 102 27 244l104 592h233l-106 -598q-16 -102 -16 -146q0 -127 106 -127q80 0 123 65t72 222l102 584h234
l-185 -1051q-199 -139 -198 -238q0 -55 71 -55z" />
    <glyph glyph-name="Wcircumflex" unicode="&#x174;" horiz-adv-x="1634" 
d="M1036 1767l-131 -159h-227l291 297h168l186 -297h-213zM254 0l-49 1462h241l-4 -1073l443 1073h186l64 -1073l374 1073h248l-565 -1462h-219l-68 1026l-430 -1026h-221z" />
    <glyph glyph-name="wcircumflex" unicode="&#x175;" horiz-adv-x="1380" 
d="M834 1354l-132 -160h-227l291 297h168l186 -297h-213zM215 0l-78 1051h234l14 -727l311 727h164l58 -727l268 727h241l-448 -1051h-201l-61 674l-301 -674h-201z" />
    <glyph glyph-name="Ycircumflex" unicode="&#x176;" horiz-adv-x="968" 
d="M709 1767l-131 -159h-228l291 297h168l186 -297h-213zM272 0l90 520l-229 942h254l141 -671l379 671h264l-563 -942l-90 -520h-246z" />
    <glyph glyph-name="ycircumflex" unicode="&#x177;" horiz-adv-x="903" 
d="M596 1354l-131 -160h-227l290 297h168l187 -297h-213zM242 6l-125 1045h229l62 -762l315 762h242l-531 -1160q-57 -123 -99 -189q-86 -134 -234 -161q-71 -12 -191 -12l35 192q111 0 153 32t101 157z" />
    <glyph glyph-name="Ydieresis" unicode="&#x178;" horiz-adv-x="968" 
d="M756 1612l43 243h207l-43 -243h-207zM389 1612l43 243h209l-45 -243h-207zM272 0l90 520l-229 942h254l141 -671l379 671h264l-563 -942l-90 -520h-246z" />
    <glyph glyph-name="Zacute" unicode="&#x179;" horiz-adv-x="970" 
d="M573 1602l199 307h262l-286 -307h-175zM-23 0l27 150l723 1110h-489l34 202h768l-24 -149l-723 -1110h551l-35 -203h-832z" />
    <glyph glyph-name="zacute" unicode="&#x17a;" horiz-adv-x="827" 
d="M436 1188l199 309h262l-287 -309h-174zM-41 0l25 141l526 717h-363l35 193h645l-24 -144l-527 -714h426l-32 -193h-711z" />
    <glyph glyph-name="Zdotaccent" unicode="&#x17b;" horiz-adv-x="970" 
d="M573 1610l43 245h226l-43 -245h-226zM-23 0l27 150l723 1110h-489l34 202h768l-24 -149l-723 -1110h551l-35 -203h-832z" />
    <glyph glyph-name="zdotaccent" unicode="&#x17c;" horiz-adv-x="827" 
d="M428 1198l43 246h225l-43 -246h-225zM-41 0l25 141l526 717h-363l35 193h645l-24 -144l-527 -714h426l-32 -193h-711z" />
    <glyph glyph-name="Zcaron" unicode="&#x17d;" horiz-adv-x="970" 
d="M713 1739l129 159h229l-291 -296h-168l-186 296h213zM-23 0l27 150l723 1110h-489l34 202h768l-24 -149l-723 -1110h551l-35 -203h-832z" />
    <glyph glyph-name="zcaron" unicode="&#x17e;" horiz-adv-x="827" 
d="M557 1325l129 162h229l-290 -299h-168l-187 299h213zM-41 0l25 141l526 717h-363l35 193h645l-24 -144l-527 -714h426l-32 -193h-711z" />
    <glyph glyph-name="Ohorn" unicode="&#x1a0;" horiz-adv-x="1261" 
d="M909 1106q0 178 -188 178q-121 0 -183 -77t-96 -269l-73 -414q-18 -100 -19 -168q0 -176 187 -176q123 0 184 76t96 268l72 414q20 115 20 168zM1462 1427q0 -154 -116 -253q-63 -55 -197 -127l-2 -11l-2 -28q-8 -63 -12 -84l-80 -459q-25 -139 -58 -216t-94 -138
q-129 -131 -366 -131q-430 0 -431 356q0 70 21 203l82 458q25 139 57 216q116 270 469 270q193 0 295 -73t123 -224q123 88 123 215q0 35 -14 84h198q4 -27 4 -58z" />
    <glyph glyph-name="ohorn" unicode="&#x1a1;" horiz-adv-x="1089" 
d="M694 752q0 131 -135 131q-88 1 -133 -57t-70 -197l-37 -207q-14 -80 -14 -121q0 -131 135 -131q88 0 134 58t69 194l37 207q14 78 14 123zM434 -20q-360 0 -360 303q0 74 18 176l37 207q39 219 139 313t288 94t278 -72q88 -72 92 -221l10 11q90 88 90 194q0 35 -16 84
h200l4 -61q0 -113 -72 -201t-229 -170q-8 -48 -8 -57l-35 -193q-39 -221 -138 -314t-298 -93z" />
    <glyph glyph-name="Uhorn" unicode="&#x1af;" horiz-adv-x="1337" 
d="M373 336q0 -156 172 -156q80 0 128 26t83 86t59 200l170 970h246l-55 -313q100 55 143 113t43 141q0 35 -16 82h200q4 -57 4 -60q0 -160 -143 -274q-74 -59 -256 -150l-98 -552q-27 -145 -52 -209t-75 -121q-133 -139 -381 -139t-346 116q-72 84 -72 213q0 78 27 226
l161 927h246l-170 -970q-18 -109 -18 -156z" />
    <glyph glyph-name="uhorn" unicode="&#x1b0;" horiz-adv-x="1144" 
d="M324 305q0 -125 106 -125q80 0 123 65t72 222l102 584h234l-56 -320q186 96 187 254q0 35 -17 84h201q4 -57 4 -61q0 -132 -87 -224t-314 -202l-103 -582h-166l-8 90q-90 -110 -234 -110t-214 66q-72 66 -72 187q0 72 27 226l104 592h233l-106 -600q-16 -98 -16 -146z
" />
    <glyph glyph-name="uni01C4" unicode="&#x1c4;" horiz-adv-x="2109" 
d="M1116 0l25 150l725 1110h-492l37 202h768l-27 -149l-722 -1110h552l-36 -203h-830zM1849 1739l129 159h230l-291 -296h-168l-186 296h213zM907 1107q0 157 -225 157h-154l-188 -1065h154q152 -3 220 69t103 264l72 400q18 100 18 175zM702 1462q229 0 328 -71
q125 -94 125 -275q0 -72 -22 -190l-80 -461q-35 -245 -167 -357t-376 -108h-451l258 1462h385z" />
    <glyph glyph-name="uni01C5" unicode="&#x1c5;" horiz-adv-x="2017" 
d="M1147 0l24 141l527 717h-363l33 193h647l-24 -144l-527 -714h426l-35 -193h-708zM1745 1325l129 162h227l-291 -299h-168l-184 299h211zM907 1107q0 157 -225 157h-154l-188 -1065h154q152 -3 220 69t103 264l72 400q18 100 18 175zM702 1462q229 0 328 -71
q125 -94 125 -275q0 -72 -22 -190l-80 -461q-35 -245 -167 -357t-376 -108h-451l258 1462h385z" />
    <glyph glyph-name="uni01C6" unicode="&#x1c6;" horiz-adv-x="1839" 
d="M969 0l24 141l527 717h-363l35 193h645l-25 -144l-526 -714h426l-35 -193h-708zM1567 1325l129 162h227l-291 -299h-166l-186 299h213zM432 174q158 0 201 252l35 199q12 72 12 108q0 147 -129 148q-77 -1 -125 -59t-68 -187l-34 -191q-12 -74 -13 -129q0 -141 121 -141z
M76 270q0 92 20 203l35 201q39 215 127 307t254 92q76 0 121 -14t102 -60l80 463h234l-258 -1462h-179l-2 74q-88 -95 -237 -95q-149 1 -223 71t-74 220z" />
    <glyph glyph-name="uni01C7" unicode="&#x1c7;" horiz-adv-x="1517" 
d="M836 -500q-109 0 -224 41l123 185q43 -25 88 -25q109 0 156 119q27 59 55 227l250 1415h246l-254 -1444q-49 -276 -107 -360q-106 -158 -333 -158zM61 0l258 1462h246l-223 -1259h545l-35 -203h-791z" />
    <glyph glyph-name="uni01C8" unicode="&#x1c8;" horiz-adv-x="1468" 
d="M1196 1051h234l-187 -1057q-43 -287 -146 -379t-374 -86l33 192q115 -3 172 57t82 216zM1227 1219l45 254h233l-45 -254h-233zM61 0l258 1462h246l-223 -1259h545l-35 -203h-791z" />
    <glyph glyph-name="uni01C9" unicode="&#x1c9;" horiz-adv-x="1056" 
d="M786 1051h234l-186 -1057q-44 -287 -148 -379t-375 -86l35 192q115 -3 172 57t82 216zM815 1219l45 254h234l-45 -254h-234zM328 284q0 -92 137 -91h24l-32 -193h-37q-184 0 -257 51t-73 178q0 84 25 226l178 1007h233l-188 -1063q-10 -71 -10 -115z" />
    <glyph glyph-name="uni01CA" unicode="&#x1ca;" horiz-adv-x="1814" 
d="M1135 -500q-109 0 -226 41l123 185q47 -25 88 -25q106 0 158 119q25 59 55 227l250 1415h246l-256 -1444q-47 -274 -105 -360q-106 -158 -333 -158zM61 0l258 1462h242l303 -1007l178 1007h234l-258 -1462h-236l-307 1012l-178 -1012h-236z" />
    <glyph glyph-name="uni01CB" unicode="&#x1cb;" horiz-adv-x="1765" 
d="M1495 1051h234l-187 -1057q-45 -287 -148 -379t-374 -86l35 192q115 -3 172 57t82 216zM1526 1219l45 254h231l-43 -254h-233zM61 0l258 1462h242l303 -1007l178 1007h234l-258 -1462h-236l-307 1012l-178 -1012h-236z" />
    <glyph glyph-name="uni01CC" unicode="&#x1cc;" horiz-adv-x="1519" 
d="M1247 1051h234l-187 -1057q-45 -287 -148 -379t-374 -86l35 192q115 -3 172 57t82 216zM1276 1219l45 254h233l-45 -254h-233zM640 1073q146 -1 219 -67t73 -191q0 -86 -23 -211l-106 -604h-234l107 610q14 72 14 129q0 133 -117 133q-84 0 -131 -64t-73 -224l-103 -584
h-233l184 1051h176l4 -82q97 104 243 104z" />
    <glyph glyph-name="uni01CD" unicode="&#x1cd;" horiz-adv-x="1089" 
d="M743 1739l129 159h230l-291 -296h-168l-186 296h213zM725 494l-63 653l-293 -653h356zM741 295h-458l-133 -295h-269l717 1462h225l207 -1462h-262z" />
    <glyph glyph-name="uni01CE" unicode="&#x1ce;" horiz-adv-x="956" 
d="M610 1325l129 162h230l-291 -299h-168l-186 299h213zM461 467q-109 0 -159 -54t-50 -159q0 -51 31 -73q31 -21 111 -21t119 37q38 37 56 139l25 131h-133zM639 770q0 113 -121 113q-63 0 -103 -30t-73 -105l-188 61q102 264 381 264q165 0 251 -71t86 -203
q0 -61 -20 -183l-109 -616h-182l-8 49q-80 -70 -231 -69q-303 0 -304 231q0 211 96 315t326 105h183l8 47q8 66 8 92z" />
    <glyph glyph-name="uni01CF" unicode="&#x1cf;" horiz-adv-x="552" 
d="M483 1739l129 159h230l-291 -296h-168l-186 296h213zM61 0l258 1462h246l-258 -1462h-246z" />
    <glyph glyph-name="uni01D0" unicode="&#x1d0;" horiz-adv-x="493" 
d="M381 1325l129 162h227l-291 -299h-165l-187 299h213zM37 0l184 1051h234l-185 -1051h-233z" />
    <glyph glyph-name="uni01D1" unicode="&#x1d1;" horiz-adv-x="1187" 
d="M801 1739l129 159h227l-291 -296h-168l-184 296h211zM909 1106q0 176 -188 176q-121 0 -183 -76t-96 -268l-73 -414q-18 -104 -19 -168q0 -176 187 -176q123 0 184 76t96 268l72 414q20 117 20 168zM733 1483q422 0 422 -357q0 -72 -22 -202l-80 -459q-25 -139 -58 -216
t-94 -138q-129 -131 -366 -131q-430 0 -431 356q1 70 21 203l82 458q25 139 56 216q32 77 93 139q131 131 377 131z" />
    <glyph glyph-name="uni01D2" unicode="&#x1d2;" horiz-adv-x="1001" 
d="M633 1325l129 162h229l-291 -299h-168l-186 299h213zM694 752q0 131 -135 131q-88 1 -134 -57t-69 -197l-37 -207q-14 -84 -14 -121q0 -131 135 -131q88 0 134 58t69 194l37 207q14 78 14 123zM565 1073q360 0 361 -303q0 -74 -19 -178l-37 -205q-39 -221 -138 -314
t-298 -93q-360 0 -360 301q0 76 18 178l37 207q39 219 139 313t297 94z" />
    <glyph glyph-name="uni01D3" unicode="&#x1d3;" horiz-adv-x="1210" 
d="M807 1739l129 159h229l-291 -296h-167l-187 296h213zM373 336q0 -156 178 -156q141 0 205 111q35 61 59 201l170 970h246l-178 -1013q-27 -145 -52 -210t-75 -120q-133 -139 -380 -139t-345 116q-74 86 -74 213q0 78 27 226l163 927h246l-172 -970q-18 -109 -18 -156z
" />
    <glyph glyph-name="uni01D4" unicode="&#x1d4;" horiz-adv-x="995" 
d="M631 1325l129 162h229l-291 -299h-168l-186 299h213zM324 307q0 -127 106 -127q80 0 123 65t72 222l102 584h234l-185 -1051h-166l-8 90q-51 -61 -106 -86t-140 -24q-130 0 -202 66t-72 169q0 102 27 244l104 592h233l-106 -598q-16 -102 -16 -146z" />
    <glyph glyph-name="Gcaron" unicode="&#x1e6;" horiz-adv-x="1165" 
d="M778 1739l129 159h230l-291 -296h-168l-186 296h213zM106 336q0 92 25 225l72 412q27 153 61 235t98 144q132 129 346 129q418 0 418 -328q0 -37 -8 -92l-227 -8q2 20 2 45q0 96 -41 139t-129 43q-123 0 -185 -80t-98 -280l-67 -381q-20 -117 -21 -179q0 -180 183 -180
q117 0 183 72t93 231l23 121h-205l33 191h448l-53 -291q-27 -152 -57 -230t-87 -141q-133 -154 -387 -153q-420 0 -420 356z" />
    <glyph glyph-name="gcaron" unicode="&#x1e7;" horiz-adv-x="1011" 
d="M641 1325l129 162h229l-290 -299h-168l-187 299h213zM432 174q156 0 201 252l35 199q12 61 12 104q0 150 -129 150q-78 -1 -125 -59t-70 -185l-34 -199q-10 -55 -11 -119q0 -143 121 -143zM367 -20q-291 0 -291 290q0 86 20 205l35 199q39 215 125 307t251 92t253 -96
l37 74h180l-186 -1059q-43 -246 -161 -360t-327 -113q-155 0 -225 60t-80 200l205 49q10 -72 38 -98q27 -26 105 -27q159 0 207 264l12 76q-84 -63 -198 -63z" />
    <glyph glyph-name="uni01EA" unicode="&#x1ea;" horiz-adv-x="1187" 
d="M909 1106q0 176 -188 176q-121 0 -183 -76t-96 -268l-73 -414q-18 -100 -19 -168q0 -178 187 -178q123 0 185 76t95 270l72 414q20 117 20 168zM610 -291q41 0 109 21l4 -119q-88 -35 -188 -35t-156 40q-55 40 -55 114q0 135 176 243l8 7q-180 8 -262 63
q-141 90 -142 293q0 70 21 203l82 458q25 139 56 216q32 77 93 139q131 131 377 131q422 0 422 -357q1 -71 -22 -202l-80 -459q-29 -190 -107 -302t-215 -159q-193 -135 -192 -242q0 -53 71 -53z" />
    <glyph glyph-name="uni01EB" unicode="&#x1eb;" horiz-adv-x="1001" 
d="M694 752q0 131 -135 131q-88 1 -133 -57t-70 -197l-37 -207q-14 -84 -14 -121q0 -131 135 -131q88 0 134 58t69 194l37 207q14 78 14 123zM516 -291q41 0 111 21l2 -119q-85 -35 -187 -35t-157 40t-56 114q0 135 172 250q-167 8 -247 80t-80 221q0 76 18 178l37 207
q39 219 139 313t297 94q360 0 361 -303q-1 -74 -19 -178l-37 -205q-27 -158 -82 -245t-155 -130q-86 -61 -137 -129t-52 -121q0 -53 72 -53z" />
    <glyph glyph-name="uni01F1" unicode="&#x1f1;" horiz-adv-x="2109" 
d="M1116 0l25 150l725 1110h-492l37 202h768l-27 -149l-722 -1110h552l-36 -203h-830zM907 1107q0 157 -225 157h-154l-188 -1065h154q152 -3 220 69t103 264l72 400q18 100 18 175zM702 1462q229 0 328 -71q125 -94 125 -275q0 -72 -22 -190l-80 -461q-35 -245 -167 -357
t-376 -108h-451l258 1462h385z" />
    <glyph glyph-name="uni01F2" unicode="&#x1f2;" horiz-adv-x="2017" 
d="M1147 0l24 141l527 717h-363l33 193h647l-24 -144l-527 -714h426l-35 -193h-708zM907 1107q0 157 -225 157h-154l-188 -1065h154q152 -3 220 69t103 264l72 400q18 100 18 175zM702 1462q229 0 328 -71q125 -94 125 -275q0 -72 -22 -190l-80 -461q-35 -245 -167 -357
t-376 -108h-451l258 1462h385z" />
    <glyph glyph-name="uni01F3" unicode="&#x1f3;" horiz-adv-x="1839" 
d="M969 0l24 141l527 717h-363l35 193h645l-25 -144l-526 -714h426l-35 -193h-708zM432 174q158 0 201 252l35 199q12 72 12 108q0 147 -129 148q-77 -1 -125 -59t-68 -187l-34 -191q-12 -74 -13 -129q0 -141 121 -141zM76 270q0 92 20 203l35 201q39 215 127 307t254 92
q76 0 121 -14t102 -60l80 463h234l-258 -1462h-179l-2 74q-88 -95 -237 -95q-149 1 -223 71t-74 220z" />
    <glyph glyph-name="uni01F4" unicode="&#x1f4;" horiz-adv-x="1165" 
d="M645 1602l199 307h262l-287 -307h-174zM106 336q0 92 25 225l72 412q27 153 61 235t98 144q132 129 346 129q418 0 418 -328q0 -37 -8 -92l-227 -8q2 20 2 45q0 96 -41 139t-129 43q-123 0 -185 -80t-98 -280l-67 -381q-20 -117 -21 -179q0 -180 183 -180q117 0 183 72
t93 231l23 121h-205l33 191h448l-53 -291q-27 -152 -57 -230t-87 -141q-133 -154 -387 -153q-420 0 -420 356z" />
    <glyph glyph-name="uni01F5" unicode="&#x1f5;" horiz-adv-x="1011" 
d="M504 1188l198 309h263l-287 -309h-174zM432 174q156 0 201 252l35 199q12 61 12 104q0 150 -129 150q-78 -1 -125 -59t-70 -185l-34 -199q-10 -55 -11 -119q0 -143 121 -143zM367 -20q-291 0 -291 290q0 86 20 205l35 199q39 215 125 307t251 92t253 -96l37 74h180
l-186 -1059q-43 -246 -161 -360t-327 -113q-155 0 -225 60t-80 200l205 49q10 -72 38 -98q27 -26 105 -27q159 0 207 264l12 76q-84 -63 -198 -63z" />
    <glyph glyph-name="Aringacute" unicode="&#x1fa;" horiz-adv-x="1089" 
d="M680 1841l154 258h276l-279 -258h-151zM752 1692q-53 0 -84 -41t-31 -111q0 -76 78 -76q51 0 82 41t30 109q1 78 -75 78zM725 494l-63 653l-293 -653h356zM-119 0l684 1395q-73 59 -73 161t73 175q75 71 181 71t166 -52t61 -142q0 -150 -137 -228l194 -1380h-262l-27 295
h-458l-133 -295h-269z" />
    <glyph glyph-name="aringacute" unicode="&#x1fb;" horiz-adv-x="956" 
d="M590 1657l155 258h277l-281 -258h-151zM655 1481q-51 0 -82 -42t-30 -112q0 -76 78 -76q51 0 81 42t31 110q0 78 -78 78zM654 1591q108 0 166 -53t58 -151q0 -99 -75 -173q-77 -74 -183 -74t-164 54q-58 52 -58 154t73 172q75 70 183 71zM461 467q-109 0 -159 -54
t-50 -159q0 -51 31 -73q31 -21 111 -21t119 37q38 37 56 139l25 131h-133zM639 770q0 113 -121 113q-63 0 -103 -30t-73 -105l-188 61q102 264 381 264q165 0 251 -71t86 -203q0 -61 -20 -183l-109 -616h-182l-8 49q-80 -70 -231 -69q-303 0 -304 231q0 211 96 315t326 105
h183l8 47q8 66 8 92z" />
    <glyph glyph-name="AEacute" unicode="&#x1fc;" horiz-adv-x="1689" 
d="M1182 1602l198 307h262l-286 -307h-174zM823 520l129 740h-20l-496 -740h387zM786 322h-483l-217 -322h-283l1033 1462h931l-34 -202h-539l-74 -420h455l-35 -203h-457l-75 -434h544l-34 -203h-787z" />
    <glyph glyph-name="aeacute" unicode="&#x1fd;" horiz-adv-x="1486" 
d="M735 1188l199 309h262l-287 -309h-174zM1206 756q0 139 -137 139q-164 0 -203 -221l-6 -35h332q14 80 14 117zM463 467q-113 0 -162 -54t-49 -161q0 -49 31 -71q31 -21 109 -21t120 40q41 40 59 142l23 125h-131zM530 1073q139 0 222 -55q23 -14 53 -60q59 64 121 90
t159 25q336 0 336 -307q0 -104 -37 -297h-555l-10 -63q-10 -51 -10 -97q0 -143 145 -143q133 0 191 135l190 -43q-51 -147 -143 -213q-92 -65 -228 -65t-204 30q-70 30 -115 101q-63 -76 -131 -104t-184 -27q-311 0 -312 229q0 94 28 183t73 140q90 98 321 99h183l8 47
q8 70 8 90q0 115 -123 115q-78 0 -127 -52q-4 -3 -55 -77l-178 59q104 260 374 260z" />
    <glyph glyph-name="Oslashacute" unicode="&#x1fe;" horiz-adv-x="1187" 
d="M657 1602l199 307h262l-287 -307h-174zM717 1282q-117 0 -178 -76t-97 -268l-71 -403l512 677q-49 70 -166 70zM543 180q117 0 178 76t96 268l70 402l-508 -678q47 -68 164 -68zM1155 1122q0 -68 -22 -198l-80 -459q-25 -139 -58 -216q-115 -269 -465 -269
q-199 0 -299 73l-77 -104l-146 102l115 152q-36 136 4 336l80 458q25 139 57 216q116 270 469 270q193 0 297 -74l76 102l145 -102l-114 -152q18 -67 18 -135z" />
    <glyph glyph-name="oslashacute" unicode="&#x1ff;" horiz-adv-x="1001" 
d="M494 1188l198 309h262l-286 -309h-174zM556 883q-83 1 -129 -57t-71 -197l-37 -207l-4 -25l355 443q-31 43 -114 43zM446 170q82 0 128 57t71 195l37 207l2 16l2 8l-354 -440q32 -43 114 -43zM928 780q0 -84 -19 -188l-37 -205q-39 -219 -139 -313q-101 -94 -279 -94
t-266 55l-61 -76l-104 74l79 100q-28 61 -28 139t18 187l37 205q39 221 139 315t278 94t267 -57l61 78l105 -76l-80 -98q29 -56 29 -140z" />
    <glyph glyph-name="uni0200" unicode="&#x200;" horiz-adv-x="1089" 
d="M690 1599h-162l-135 310h236zM987 1599h-162l-135 310h238zM725 494l-63 653l-293 -653h356zM741 295h-458l-133 -295h-269l717 1462h225l207 -1462h-262z" />
    <glyph glyph-name="uni0201" unicode="&#x201;" horiz-adv-x="956" 
d="M541 1188h-162l-135 309h235zM838 1188h-162l-135 309h237zM444 467q-108 0 -158 -54t-50 -159q0 -51 30 -73q30 -21 112 -21q81 0 119 37t56 139l25 131h-134zM502 883q-64 0 -104 -30t-72 -105l-189 61q102 264 381 264q166 0 252 -71t86 -203q0 -61 -20 -183
l-109 -616h-182l-8 49q-80 -70 -232 -69q-303 0 -303 231q0 211 100 321q92 98 322 99h182l8 47q8 66 9 92q0 113 -121 113z" />
    <glyph glyph-name="uni0202" unicode="&#x202;" horiz-adv-x="1089" 
d="M891 1649q0 98 -127 98q-76 0 -114 -31t-62 -110h-150q27 174 100 242t230 69q276 0 276 -201q0 -38 -10 -110h-145q2 23 2 43zM725 494l-63 653l-293 -653h356zM741 295h-458l-133 -295h-269l717 1462h225l207 -1462h-262z" />
    <glyph glyph-name="uni0203" unicode="&#x203;" horiz-adv-x="956" 
d="M752 1237q0 98 -127 98q-76 -1 -114 -31t-62 -112h-150q25 174 98 244q74 70 232 69q276 0 276 -202q0 -41 -10 -111h-145q2 23 2 45zM461 467q-109 0 -159 -54t-50 -159q0 -51 31 -73q31 -21 111 -21t119 37q38 37 56 139l25 131h-133zM639 770q0 113 -121 113
q-63 0 -103 -30t-73 -105l-188 61q102 264 381 264q165 0 251 -71t86 -203q0 -61 -20 -183l-109 -616h-182l-8 49q-80 -70 -231 -69q-303 0 -304 231q0 211 96 315t326 105h183l8 47q8 66 8 92z" />
    <glyph glyph-name="uni0204" unicode="&#x204;" 
d="M670 1599h-162l-135 310h235zM967 1599h-162l-135 310h237zM35 0l258 1462h780l-35 -202h-536l-74 -420h455l-37 -203h-455l-76 -434h545l-37 -203h-788z" />
    <glyph glyph-name="uni0205" unicode="&#x205;" horiz-adv-x="985" 
d="M549 1188h-162l-135 309h235zM846 1188h-162l-135 309h237zM684 756q0 139 -137 139q-84 0 -132 -53t-71 -168l-6 -35h332q14 80 14 117zM289 309q0 -143 143 -143q133 0 193 135l190 -43q-55 -152 -148 -215t-261 -63q-346 0 -347 313q0 94 21 199l22 135
q42 242 144 344t301 102q352 0 352 -311q0 -102 -37 -293h-553l-10 -63q-10 -57 -10 -97z" />
    <glyph glyph-name="uni0206" unicode="&#x206;" 
d="M887 1649q0 98 -127 98q-76 0 -114 -31t-62 -110h-150q27 174 100 242t230 69q276 0 276 -201q0 -38 -10 -110h-145q2 23 2 43zM61 0l258 1462h781l-35 -202h-537l-73 -420h454l-37 -203h-454l-76 -434h545l-37 -203h-789z" />
    <glyph glyph-name="uni0207" unicode="&#x207;" horiz-adv-x="985" 
d="M766 1237q0 98 -127 98q-76 -1 -114 -31t-62 -112h-150q25 174 99 244t231 69q276 0 277 -202q-1 -41 -11 -111h-145q2 23 2 45zM567 895q-84 0 -132 -53t-70 -168l-7 -35h332q14 80 15 117q0 139 -138 139zM309 309q0 -143 144 -143q133 0 192 135l191 -43
q-54 -152 -148 -215t-262 -63q-346 0 -346 313q0 94 20 199l23 135q43 242 144 344t300 102q352 0 353 -311q0 -102 -37 -293h-553l-11 -63q-10 -57 -10 -97z" />
    <glyph glyph-name="uni0208" unicode="&#x208;" horiz-adv-x="552" 
d="M422 1599h-162l-135 310h235zM719 1599h-162l-135 310h237zM61 0l258 1462h246l-258 -1462h-246z" />
    <glyph glyph-name="uni0209" unicode="&#x209;" horiz-adv-x="493" 
d="M317 1188h-161l-136 309h236zM614 1188h-161l-136 309h238zM37 0l184 1051h234l-185 -1051h-233z" />
    <glyph glyph-name="uni020A" unicode="&#x20a;" horiz-adv-x="552" 
d="M623 1649q0 98 -127 98q-76 0 -114 -31t-63 -110h-149q28 174 100 242t230 69q276 0 276 -201q0 -38 -10 -110h-145q2 23 2 43zM61 0l258 1462h246l-258 -1462h-246z" />
    <glyph glyph-name="uni020B" unicode="&#x20b;" horiz-adv-x="491" 
d="M518 1237q0 98 -127 98q-75 -1 -113 -31t-63 -112h-149q25 174 98 244q74 70 231 69q276 0 277 -202q0 -41 -10 -111h-146q2 23 2 45zM37 0l184 1051h234l-185 -1051h-233z" />
    <glyph glyph-name="uni020C" unicode="&#x20c;" horiz-adv-x="1187" 
d="M737 1599h-162l-135 310h236zM1034 1599h-162l-135 310h238zM909 1106q0 176 -188 176q-121 0 -183 -76t-96 -268l-73 -414q-18 -104 -19 -168q0 -176 187 -176q123 0 184 76t96 268l72 414q20 117 20 168zM733 1483q422 0 422 -357q0 -72 -22 -202l-80 -459
q-25 -139 -58 -216t-94 -138q-129 -131 -366 -131q-430 0 -431 356q1 70 21 203l82 458q25 139 56 216q32 77 93 139q131 131 377 131z" />
    <glyph glyph-name="uni020D" unicode="&#x20d;" horiz-adv-x="1001" 
d="M551 1188h-162l-135 309h235zM848 1188h-162l-135 309h237zM539 883q-89 1 -135 -57t-68 -197l-37 -207q-14 -84 -14 -121q0 -131 135 -131q88 0 134 58t69 194l36 207q14 78 15 123q0 131 -135 131zM545 1073q360 0 360 -303q0 -74 -18 -178l-37 -205
q-39 -221 -138 -314t-298 -93q-360 0 -361 301q1 76 19 178l37 207q39 219 139 313t297 94z" />
    <glyph glyph-name="uni020E" unicode="&#x20e;" horiz-adv-x="1187" 
d="M938 1649q0 98 -127 98q-76 0 -114 -31t-62 -110h-150q27 174 100 242t230 69q276 0 277 -201q-1 -38 -11 -110h-145q2 23 2 43zM909 1106q0 176 -188 176q-121 0 -183 -76t-96 -268l-73 -414q-18 -104 -19 -168q0 -176 187 -176q123 0 184 76t96 268l72 414
q20 117 20 168zM733 1483q422 0 422 -357q0 -72 -22 -202l-80 -459q-25 -139 -58 -216t-94 -138q-129 -131 -366 -131q-430 0 -431 356q1 70 21 203l82 458q25 139 56 216q32 77 93 139q131 131 377 131z" />
    <glyph glyph-name="uni020F" unicode="&#x20f;" horiz-adv-x="1001" 
d="M772 1237q0 98 -127 98q-76 -1 -114 -31t-62 -112h-150q25 174 99 244t231 69q276 0 277 -202q-1 -41 -11 -111h-145q2 23 2 45zM694 752q0 131 -135 131q-88 1 -134 -57t-69 -197l-37 -207q-14 -84 -14 -121q0 -131 135 -131q88 0 134 58t69 194l37 207q14 78 14 123z
M565 1073q360 0 361 -303q0 -74 -19 -178l-37 -205q-39 -221 -138 -314t-298 -93q-360 0 -360 301q0 76 18 178l37 207q39 219 139 313t297 94z" />
    <glyph glyph-name="uni0210" unicode="&#x210;" horiz-adv-x="1138" 
d="M657 1599h-161l-136 310h236zM954 1599h-161l-136 310h238zM616 799q131 0 189 71q72 92 72 240q0 84 -41 119t-140 35h-180l-82 -465h182zM717 1462q219 0 315 -76t96 -239q0 -115 -32 -227q-74 -256 -289 -291l166 -629h-273l-135 608h-159l-107 -608h-246l258 1462
h406z" />
    <glyph glyph-name="uni0211" unicode="&#x211;" horiz-adv-x="704" 
d="M444 1188h-161l-136 309h236zM741 1188h-161l-136 309h238zM550 872q-65 0 -111 -84t-81 -278l-90 -510h-233l184 1051h180l15 -82q51 57 98 81t126 24t169 -64l-135 -195q-57 57 -122 57z" />
    <glyph glyph-name="uni0212" unicode="&#x212;" horiz-adv-x="1138" 
d="M881 1649q0 98 -127 98q-76 0 -114 -31t-62 -110h-150q28 174 100 242t230 69q276 0 276 -201q0 -38 -10 -110h-145q2 23 2 43zM627 799q131 0 188 71q72 92 72 240q0 84 -41 119t-139 35h-181l-82 -465h183zM727 1462q219 0 315 -76t97 -239q0 -115 -33 -227t-86 -177
q-80 -94 -203 -114l166 -629h-272l-136 608h-159l-107 -608h-246l259 1462h405z" />
    <glyph glyph-name="uni0213" unicode="&#x213;" horiz-adv-x="704" 
d="M664 1237q0 98 -127 98q-76 -1 -114 -31t-63 -112h-149q25 174 98 244q74 70 232 69q276 0 276 -202q0 -41 -10 -111h-145q2 23 2 45zM550 872q-65 0 -111 -84t-81 -278l-90 -510h-233l184 1051h180l15 -82q51 57 98 81t126 24t169 -64l-135 -195q-57 57 -122 57z" />
    <glyph glyph-name="uni0214" unicode="&#x214;" horiz-adv-x="1210" 
d="M752 1599h-162l-135 310h235zM1049 1599h-162l-135 310h237zM373 336q0 -156 178 -156q141 0 205 111q35 61 59 201l170 970h246l-178 -1013q-27 -145 -52 -210t-75 -120q-133 -139 -380 -139t-345 116q-74 86 -74 213q0 78 27 226l163 927h246l-172 -970
q-18 -109 -18 -156z" />
    <glyph glyph-name="uni0215" unicode="&#x215;" horiz-adv-x="995" 
d="M559 1188h-162l-135 309h236zM856 1188h-162l-135 309h238zM420 180q80 0 123 65t71 222l103 584h233l-184 -1051h-166l-8 90q-50 -61 -106 -86t-140 -24q-131 0 -203 66t-71 187q0 84 26 226l105 592h233l-106 -598q-16 -102 -17 -146q0 -127 107 -127z" />
    <glyph glyph-name="uni0216" unicode="&#x216;" horiz-adv-x="1210" 
d="M952 1649q0 98 -127 98q-75 0 -113 -31t-63 -110h-149q28 174 100 242t229 69q276 0 277 -201q0 -38 -10 -110h-146q2 23 2 43zM373 336q0 -156 178 -156q141 0 205 111q35 61 59 201l170 970h246l-178 -1013q-27 -145 -52 -210t-75 -120q-133 -139 -380 -139t-345 116
q-74 86 -74 213q0 78 27 226l163 927h246l-172 -970q-18 -109 -18 -156z" />
    <glyph glyph-name="uni0217" unicode="&#x217;" horiz-adv-x="995" 
d="M770 1237q0 98 -127 98q-76 -1 -114 -31t-62 -112h-150q25 174 99 244t231 69q276 0 277 -202q-1 -41 -11 -111h-145q2 23 2 45zM324 307q0 -127 106 -127q80 0 123 65t72 222l102 584h234l-185 -1051h-166l-8 90q-51 -61 -106 -86t-140 -24q-130 0 -202 66t-72 169
q0 102 27 244l104 592h233l-106 -598q-16 -102 -16 -146z" />
    <glyph glyph-name="Scommaaccent" unicode="&#x218;" horiz-adv-x="1028" 
d="M158 -477l147 344h223l-213 -344h-157zM440 178q162 0 222 111q43 76 43 159t-50 121q-25 17 -49 27t-137 47q-295 94 -295 354q0 207 117 346t355 139t329 -132q45 -63 53 -191l-219 -59q-10 82 -33 114q-45 70 -145 70t-158 -66q-57 -66 -57 -162t42 -134t194 -91
q152 -51 224 -135q73 -84 72 -227q0 -211 -110 -338q-129 -154 -407 -154t-374 140q-47 74 -55 209l221 61q11 -113 61 -161t156 -48z" />
    <glyph glyph-name="scommaaccent" unicode="&#x219;" horiz-adv-x="882" 
d="M86 -477l147 344h224l-213 -344h-158zM369 168q90 0 142 44t52 108t-33 82q-34 18 -162 46t-188 88t-61 177q0 168 101 264t278 96q223 0 297 -112q33 -49 39 -152l-203 -49q-8 125 -129 125q-72 0 -116 -42q-44 -43 -44 -99t31 -78t110 -37q175 -35 239 -90t64 -174
q0 -385 -428 -385q-252 0 -329 122q-31 49 -39 158l209 43q8 -75 44 -105t126 -30z" />
    <glyph glyph-name="uni021A" unicode="&#x21a;" horiz-adv-x="950" 
d="M109 -477l147 344h223l-213 -344h-157zM260 0l223 1260h-327l34 202h900l-35 -202h-326l-223 -1260h-246z" />
    <glyph glyph-name="uni021B" unicode="&#x21b;" horiz-adv-x="626" 
d="M-10 -477l147 344h223l-213 -344h-157zM432 0q-178 0 -249 45t-70 158q0 66 28 239l76 420h-108l32 189h111l67 309h218l-54 -309h181l-33 -189h-182l-82 -467q-15 -83 -15 -121q-1 -82 125 -81h35l-35 -193h-45z" />
    <glyph glyph-name="uni0226" unicode="&#x226;" horiz-adv-x="1089" 
d="M616 1610l43 245h226l-43 -245h-226zM725 494l-63 653l-293 -653h356zM741 295h-458l-133 -295h-269l717 1462h225l207 -1462h-262z" />
    <glyph glyph-name="uni0227" unicode="&#x227;" horiz-adv-x="956" 
d="M489 1198l43 246h226l-43 -246h-226zM461 467q-109 0 -159 -54t-50 -159q0 -51 31 -73q31 -21 111 -21t119 37q38 37 56 139l25 131h-133zM639 770q0 113 -121 113q-63 0 -103 -30t-73 -105l-188 61q102 264 381 264q165 0 251 -71t86 -203q0 -61 -20 -183l-109 -616
h-182l-8 49q-80 -70 -231 -69q-303 0 -304 231q0 211 96 315t326 105h183l8 47q8 66 8 92z" />
    <glyph glyph-name="uni0237" unicode="&#x237;" horiz-adv-x="503" 
d="M231 1051h234l-186 -1057q-45 -287 -149 -379t-374 -86l35 192q115 -3 171 57t83 216z" />
    <glyph glyph-name="afii57929" unicode="&#x2bc;" horiz-adv-x="389" 
d="M119 946l149 516h244l-195 -516h-198z" />
    <glyph glyph-name="uni02C0" unicode="&#x2c0;" 
d="M754 1839q0 31 -40 31t-124 -35l-17 141q111 37 187 37q186 0 186 -162q0 -49 -17 -77t-65 -68t-56 -60q-10 -20 -20 -65h-159q16 88 30 118q15 30 55 73t40 67z" />
    <glyph glyph-name="circumflex" unicode="&#x2c6;" 
d="M666 1354l-131 -160h-228l291 297h168l186 -297h-213z" />
    <glyph glyph-name="caron" unicode="&#x2c7;" 
d="M645 1325l129 162h230l-291 -299h-168l-187 299h213z" />
    <glyph glyph-name="uni02C9" unicode="&#x2c9;" 
d="M367 1243l30 170h545l-29 -170h-546z" />
    <glyph glyph-name="breve" unicode="&#x2d8;" 
d="M526 1442q0 -98 127 -99q76 0 113 30t63 112h150q-18 -131 -57 -189q-78 -123 -273 -122q-276 0 -276 200q0 39 10 111h145q-2 -25 -2 -43z" />
    <glyph glyph-name="dotaccent" unicode="&#x2d9;" 
d="M518 1198l43 246h225l-43 -246h-225z" />
    <glyph glyph-name="ring" unicode="&#x2da;" 
d="M684 1509q-53 0 -84 -42t-31 -111q0 -76 78 -76q51 0 83 42t32 110q0 77 -78 77zM680 1620q108 0 168 -53t59 -153q0 -100 -76 -172t-183 -73q-108 -1 -166 53t-58 156t74 172t182 70z" />
    <glyph glyph-name="ogonek" unicode="&#x2db;" 
d="M457 -236q0 -54 71 -55q41 0 111 21l2 -119q-86 -35 -184 -35q-215 0 -215 156q0 76 55 139t180 129h178q-117 -84 -157 -133t-41 -103z" />
    <glyph glyph-name="tilde" unicode="&#x2dc;" 
d="M776 1358q25 0 42 24t38 86h141q-31 -113 -59 -165q-60 -111 -160 -111t-154 62t-79 63q-55 0 -88 -111h-142q51 158 103 217t134 59q81 0 142 -61q57 -63 82 -63z" />
    <glyph glyph-name="hungarumlaut" unicode="&#x2dd;" 
d="M676 1188l170 309h235l-243 -309h-162zM379 1188l168 309h237l-243 -309h-162z" />
    <glyph glyph-name="uni0309" unicode="&#x309;" 
d="M680 1436q0 60 -164 -2l-16 139q104 37 186 37q186 0 186 -162q0 -49 -17 -77t-85 -85q-27 -27 -36 -44t-19 -64h-160q17 88 31 118t54 72q40 43 40 68z" />
    <glyph glyph-name="uni0312" unicode="&#x312;" 
d="M504 1188l287 309h172l-199 -309h-260z" />
    <glyph glyph-name="uni0313" unicode="&#x313;" horiz-adv-x="204" 
d="M51 954l154 537h219l-209 -537h-164z" />
    <glyph glyph-name="uni031B" unicode="&#x31b;" horiz-adv-x="204" 
d="M51 954l154 537h219l-209 -537h-164z" />
    <glyph glyph-name="uni0323" unicode="&#x323;" 
d="M231 -418l43 246h226l-43 -246h-226z" />
    <glyph glyph-name="uni037E" unicode="&#x37e;" horiz-adv-x="514" 
d="M211 801l43 250h246l-43 -250h-246zM-92 -385l196 631h256l-241 -631h-211z" />
    <glyph glyph-name="uni0387" unicode="&#x387;" horiz-adv-x="516" 
d="M150 608l43 248h245l-43 -248h-245z" />
    <glyph glyph-name="uni04D4" unicode="&#x4d4;" horiz-adv-x="1689" 
d="M823 520l129 740h-20l-496 -740h387zM786 322h-483l-217 -322h-283l1033 1462h931l-34 -202h-539l-74 -420h455l-35 -203h-457l-75 -434h544l-34 -203h-787z" />
    <glyph glyph-name="uni04D5" unicode="&#x4d5;" horiz-adv-x="1486" 
d="M1206 756q0 139 -137 139q-164 0 -203 -221l-6 -35h332q14 80 14 117zM463 467q-113 0 -162 -54t-49 -161q0 -49 31 -71q31 -21 109 -21t120 40q41 40 59 142l23 125h-131zM530 1073q139 0 222 -55q23 -14 53 -60q59 64 121 90t159 25q336 0 336 -307q0 -104 -37 -297
h-555l-10 -63q-10 -51 -10 -97q0 -143 145 -143q133 0 191 135l190 -43q-51 -147 -143 -213q-92 -65 -228 -65t-204 30q-70 30 -115 101q-63 -76 -131 -104t-184 -27q-311 0 -312 229q0 94 28 183t73 140q90 98 321 99h183l8 47q8 70 8 90q0 115 -123 115q-78 0 -127 -52
q-4 -3 -55 -77l-178 59q104 260 374 260z" />
    <glyph glyph-name="uni1E02" unicode="&#x1e02;" horiz-adv-x="1140" 
d="M621 1610l43 245h225l-43 -245h-225zM559 199q117 0 168 63q72 88 72 236q0 82 -35 116t-119 33h-227l-80 -448h221zM662 846q102 0 153 59q70 80 70 217q0 78 -35 110t-121 32h-203l-73 -418h209zM743 1462q225 0 309 -80t85 -225q-1 -145 -53 -245t-144 -150
q61 -60 83 -114q21 -54 21 -158t-34 -208q-34 -102 -94 -166q-58 -64 -131 -90t-191 -26h-535l258 1462h426z" />
    <glyph glyph-name="uni1E03" unicode="&#x1e03;" horiz-adv-x="1009" 
d="M653 1198l43 246h226l-43 -246h-226zM700 739q0 139 -122 140q-82 -1 -130 -61t-71 -193l-35 -199q-12 -72 -12 -104q0 -150 131 -150q78 0 124 61q45 62 70 199l35 201q10 61 10 106zM656 1073q130 0 205 -73t75 -212q0 -84 -21 -192l-32 -195q-41 -231 -129 -326
t-258 -95q-129 0 -201 51l-53 51l-29 -82h-180l258 1462h233l-82 -463q84 74 214 74z" />
    <glyph glyph-name="uni1E0C" unicode="&#x1e0c;" horiz-adv-x="1187" 
d="M270 -418l43 246h226l-43 -246h-226zM907 1107q0 157 -225 157h-154l-188 -1065h154q152 -3 220 69t103 264l72 400q18 100 18 175zM702 1462q229 0 328 -71q125 -94 125 -275q0 -72 -22 -190l-80 -461q-35 -245 -167 -357t-376 -108h-451l258 1462h385z" />
    <glyph glyph-name="uni1E0D" unicode="&#x1e0d;" horiz-adv-x="1009" 
d="M268 -418l43 246h226l-43 -246h-226zM432 174q158 0 201 252l35 199q12 72 12 108q0 147 -129 148q-77 -1 -125 -59t-68 -187l-34 -191q-12 -74 -13 -129q0 -141 121 -141zM76 270q0 92 20 203l35 201q39 215 127 307t254 92q76 0 121 -14t102 -60l80 463h234l-258 -1462
h-179l-2 74q-88 -95 -237 -95q-149 1 -223 71t-74 220z" />
    <glyph glyph-name="uni1E1E" unicode="&#x1e1e;" horiz-adv-x="970" 
d="M625 1610l43 245h225l-43 -245h-225zM61 0l258 1462h771l-35 -202h-525l-77 -431h440l-35 -202h-440l-111 -627h-246z" />
    <glyph glyph-name="uni1E1F" unicode="&#x1e1f;" horiz-adv-x="618" 
d="M457 1610l43 245h225l-43 -245h-225zM225 862h-108l33 189h108l27 141q27 162 95 218q69 56 236 52h129l-28 -174h-58q-79 2 -107 -22t-42 -117l-18 -98h190l-33 -189h-190l-152 -862h-233z" />
    <glyph glyph-name="uni1E24" unicode="&#x1e24;" horiz-adv-x="1202" 
d="M322 -418l43 246h225l-43 -246h-225zM61 0l258 1462h246l-110 -622h405l111 622h246l-259 -1462h-245l112 637h-405l-113 -637h-246z" />
    <glyph glyph-name="uni1E25" unicode="&#x1e25;" horiz-adv-x="1015" 
d="M227 -418l43 246h226l-43 -246h-226zM932 815q0 -80 -23 -211l-106 -604h-234l109 616q12 68 12 123q0 131 -115 131q-84 0 -131 -63t-73 -213l-105 -594h-233l258 1462h233l-80 -456q88 68 213 68t200 -70q75 -68 75 -189z" />
    <glyph glyph-name="uni1E44" unicode="&#x1e44;" horiz-adv-x="1263" 
d="M723 1610l43 245h225l-43 -245h-225zM61 0l258 1462h242l303 -1007l178 1007h234l-258 -1462h-236l-307 1012l-178 -1012h-236z" />
    <glyph glyph-name="uni1E45" unicode="&#x1e45;" horiz-adv-x="1015" 
d="M520 1198l43 246h225l-43 -246h-225zM640 1073q146 -1 219 -67t73 -191q0 -86 -23 -211l-106 -604h-234l107 610q14 72 14 129q0 133 -117 133q-84 0 -131 -64t-73 -224l-103 -584h-233l184 1051h176l4 -82q97 104 243 104z" />
    <glyph glyph-name="uni1E5A" unicode="&#x1e5a;" horiz-adv-x="1138" 
d="M291 -418l43 246h225l-43 -246h-225zM627 799q131 0 188 71q72 92 72 240q0 84 -41 119t-139 35h-181l-82 -465h183zM727 1462q219 0 315 -76t97 -239q0 -115 -33 -227t-86 -177q-80 -94 -203 -114l166 -629h-272l-136 608h-159l-107 -608h-246l259 1462h405z" />
    <glyph glyph-name="uni1E5B" unicode="&#x1e5b;" horiz-adv-x="704" 
d="M-37 -418l43 246h225l-43 -246h-225zM549 872q-66 0 -112 -84t-81 -278l-90 -510h-233l186 1051h178l15 -82q51 57 98 81t125 24t172 -64l-137 -195q-55 57 -121 57z" />
    <glyph glyph-name="uni1E62" unicode="&#x1e62;" horiz-adv-x="1028" 
d="M213 -418l43 246h225l-43 -246h-225zM440 178q162 0 222 111q43 76 43 159t-50 121q-25 17 -49 27t-137 47q-295 94 -295 354q0 207 117 346t355 139t329 -132q45 -63 53 -191l-219 -59q-10 82 -33 114q-45 70 -145 70t-158 -66q-57 -66 -57 -162t42 -134t194 -91
q152 -51 224 -135q73 -84 72 -227q0 -211 -110 -338q-129 -154 -407 -154t-374 140q-47 74 -55 209l221 61q11 -113 61 -161t156 -48z" />
    <glyph glyph-name="uni1E63" unicode="&#x1e63;" horiz-adv-x="882" 
d="M143 -418l43 246h226l-43 -246h-226zM369 168q90 0 142 44t52 108t-33 82q-34 18 -162 46t-188 88t-61 177q0 168 101 264t278 96q223 0 297 -112q33 -49 39 -152l-203 -49q-8 125 -129 125q-72 0 -116 -42q-44 -43 -44 -99t31 -78t110 -37q175 -35 239 -90t64 -174
q0 -385 -428 -385q-252 0 -329 122q-31 49 -39 158l209 43q8 -75 44 -105t126 -30z" />
    <glyph glyph-name="uni1E6C" unicode="&#x1e6c;" horiz-adv-x="950" 
d="M195 -418l43 246h225l-43 -246h-225zM260 0l223 1260h-327l34 202h900l-35 -202h-326l-223 -1260h-246z" />
    <glyph glyph-name="uni1E6D" unicode="&#x1e6d;" horiz-adv-x="626" 
d="M33 -418l43 246h225l-43 -246h-225zM430 0q-178 0 -249 45t-70 158q0 66 28 239l76 420h-109l33 189h111l67 309h218l-54 -309h181l-33 -189h-183l-81 -467q-15 -83 -15 -121q-1 -82 125 -81h35l-35 -193h-45z" />
    <glyph glyph-name="Wgrave" unicode="&#x1e80;" horiz-adv-x="1634" 
d="M1135 1599h-168l-181 310h246zM254 0l-49 1462h241l-4 -1073l443 1073h186l64 -1073l374 1073h248l-565 -1462h-219l-68 1026l-430 -1026h-221z" />
    <glyph glyph-name="wgrave" unicode="&#x1e81;" horiz-adv-x="1380" 
d="M936 1188h-168l-180 309h246zM215 0l-78 1051h234l14 -727l311 727h164l58 -727l268 727h241l-448 -1051h-201l-61 674l-301 -674h-201z" />
    <glyph glyph-name="Wacute" unicode="&#x1e82;" horiz-adv-x="1634" 
d="M881 1602l198 307h262l-286 -307h-174zM254 0l-49 1462h241l-4 -1073l443 1073h186l64 -1073l374 1073h248l-565 -1462h-219l-68 1026l-430 -1026h-221z" />
    <glyph glyph-name="wacute" unicode="&#x1e83;" horiz-adv-x="1380" 
d="M682 1188l199 309h262l-287 -309h-174zM215 0l-78 1051h234l14 -727l311 727h164l58 -727l268 727h241l-448 -1051h-201l-61 674l-301 -674h-201z" />
    <glyph glyph-name="Wdieresis" unicode="&#x1e84;" horiz-adv-x="1634" 
d="M1083 1612l43 243h207l-43 -243h-207zM717 1612l43 243h209l-45 -243h-207zM254 0l-49 1462h241l-4 -1073l443 1073h186l64 -1073l374 1073h248l-565 -1462h-219l-68 1026l-430 -1026h-221z" />
    <glyph glyph-name="wdieresis" unicode="&#x1e85;" horiz-adv-x="1380" 
d="M877 1198l43 246h208l-45 -246h-206zM518 1198l43 246h209l-45 -246h-207zM215 0l-78 1051h234l14 -727l311 727h164l58 -727l268 727h241l-448 -1051h-201l-61 674l-301 -674h-201z" />
    <glyph glyph-name="uni1E92" unicode="&#x1e92;" horiz-adv-x="970" 
d="M227 -418l43 246h226l-43 -246h-226zM-23 0l27 150l723 1110h-489l34 202h768l-24 -149l-723 -1110h551l-35 -203h-832z" />
    <glyph glyph-name="uni1E93" unicode="&#x1e93;" horiz-adv-x="827" 
d="M150 -418l43 246h225l-43 -246h-225zM-41 0l25 141l526 717h-363l35 193h645l-24 -144l-527 -714h426l-32 -193h-711z" />
    <glyph glyph-name="uni1EA0" unicode="&#x1ea0;" horiz-adv-x="1089" 
d="M317 -418l43 246h226l-43 -246h-226zM725 494l-63 653l-293 -653h356zM741 295h-458l-133 -295h-269l717 1462h225l207 -1462h-262z" />
    <glyph glyph-name="uni1EA1" unicode="&#x1ea1;" horiz-adv-x="956" 
d="M199 -418l43 246h225l-43 -246h-225zM461 467q-109 0 -159 -54t-50 -159q0 -51 31 -73q31 -21 111 -21t119 37q38 37 56 139l25 131h-133zM639 770q0 113 -121 113q-63 0 -103 -30t-73 -105l-188 61q102 264 381 264q165 0 251 -71t86 -203q0 -61 -20 -183l-109 -616
h-182l-8 49q-80 -70 -231 -69q-303 0 -304 231q0 211 96 315t326 105h183l8 47q8 66 8 92z" />
    <glyph glyph-name="uni1EA2" unicode="&#x1ea2;" horiz-adv-x="1089" 
d="M770 1839q0 31 -40 31t-124 -35l-16 141q111 37 186 37q186 0 187 -162q1 -49 -17 -77t-86 -84q-29 -26 -38 -46t-17 -63h-160q16 88 30 117q13 29 54 73t41 68zM725 494l-63 653l-293 -653h356zM741 295h-458l-133 -295h-269l717 1462h225l207 -1462h-262z" />
    <glyph glyph-name="uni1EA3" unicode="&#x1ea3;" horiz-adv-x="956" 
d="M659 1610q186 0 187 -162q0 -49 -18 -77t-64 -70q-48 -42 -58 -60t-18 -63h-158q14 88 28 118t56 72q40 43 39 68q0 65 -161 -2l-19 139q109 37 186 37zM461 467q-109 0 -159 -54t-50 -159q0 -51 31 -73q31 -21 111 -21t119 37q38 37 56 139l25 131h-133zM639 770
q0 113 -121 113q-63 0 -103 -30t-73 -105l-188 61q102 264 381 264q165 0 251 -71t86 -203q0 -61 -20 -183l-109 -616h-182l-8 49q-80 -70 -231 -69q-303 0 -304 231q0 211 96 315t326 105h183l8 47q8 66 8 92z" />
    <glyph glyph-name="uni1EA4" unicode="&#x1ea4;" horiz-adv-x="1089" 
d="M739 1671l-121 -112h-215l273 241h158l188 -241h-203zM684 1855l150 238h186l-207 -238h-129zM725 494l-63 653l-293 -653h356zM741 295h-458l-133 -295h-269l717 1462h225l207 -1462h-262z" />
    <glyph glyph-name="uni1EA5" unicode="&#x1ea5;" horiz-adv-x="956" 
d="M616 1260l-120 -113h-217l274 242h156l188 -242h-201zM561 1444l150 237h186l-209 -237h-127zM461 467q-109 0 -159 -54t-50 -159q0 -51 31 -73q31 -21 111 -21t119 37q38 37 56 139l25 131h-133zM639 770q0 113 -121 113q-63 0 -103 -30t-73 -105l-188 61
q102 264 381 264q165 0 251 -71t86 -203q0 -61 -20 -183l-109 -616h-182l-8 49q-80 -70 -231 -69q-303 0 -304 231q0 211 96 315t326 105h183l8 47q8 66 8 92z" />
    <glyph glyph-name="uni1EA6" unicode="&#x1ea6;" horiz-adv-x="1089" 
d="M739 1671l-121 -112h-215l273 241h158l188 -241h-203zM827 1855h-114l-138 238h173zM725 494l-63 653l-293 -653h356zM741 295h-458l-133 -295h-269l717 1462h225l207 -1462h-262z" />
    <glyph glyph-name="uni1EA7" unicode="&#x1ea7;" horiz-adv-x="956" 
d="M616 1260l-120 -113h-217l274 242h156l188 -242h-201zM702 1444h-114l-135 237h172zM461 467q-109 0 -159 -54t-50 -159q0 -51 31 -73q31 -21 111 -21t119 37q38 37 56 139l25 131h-133zM639 770q0 113 -121 113q-63 0 -103 -30t-73 -105l-188 61q102 264 381 264
q165 0 251 -71t86 -203q0 -61 -20 -183l-109 -616h-182l-8 49q-80 -70 -231 -69q-303 0 -304 231q0 211 96 315t326 105h183l8 47q8 66 8 92z" />
    <glyph glyph-name="uni1EA8" unicode="&#x1ea8;" horiz-adv-x="1089" 
d="M735 1665l-119 -106h-215l271 223h155l193 -223h-203zM766 1982q0 23 -26 23t-83 -25l-14 103q72 29 148 28q135 0 135 -110q0 -33 -12 -53t-50 -54q-37 -34 -43 -82h-137q8 51 19 75t47 61q16 20 16 34zM725 494l-63 653l-293 -653h356zM741 295h-458l-133 -295h-269
l717 1462h225l207 -1462h-262z" />
    <glyph glyph-name="uni1EA9" unicode="&#x1ea9;" horiz-adv-x="956" 
d="M612 1253l-118 -106h-218l271 223h158l190 -223h-201zM643 1569q0 48 -108 0l-17 102q74 29 150 29q135 0 135 -111q0 -33 -12 -53q-13 -20 -51 -55t-44 -80h-135q6 51 19 76q12 25 47 59q16 20 16 33zM461 467q-109 0 -159 -54t-50 -159q0 -51 31 -73q31 -21 111 -21
t119 37q38 37 56 139l25 131h-133zM639 770q0 113 -121 113q-63 0 -103 -30t-73 -105l-188 61q102 264 381 264q165 0 251 -71t86 -203q0 -61 -20 -183l-109 -616h-182l-8 49q-80 -70 -231 -69q-303 0 -304 231q0 211 96 315t326 105h183l8 47q8 66 8 92z" />
    <glyph glyph-name="uni1EAA" unicode="&#x1eaa;" horiz-adv-x="1089" 
d="M741 1671l-118 -112h-217l274 241h156l188 -241h-201zM702 2095q68 0 109 -47t49 -53t19 -6q39 0 67 94h117q-37 -131 -79 -180t-114 -49t-120 57q-29 35 -37 42t-21 7q-47 0 -76 -94h-116q43 131 88 180q46 49 114 49zM725 494l-63 653l-293 -653h356zM741 295h-458
l-133 -295h-269l717 1462h225l207 -1462h-262z" />
    <glyph glyph-name="uni1EAB" unicode="&#x1eab;" horiz-adv-x="956" 
d="M618 1260l-118 -113h-217l272 242h158l188 -242h-201zM568 1681q60 0 84 -15t81 -79q6 -10 23 -10q39 0 67 92h117q-39 -131 -80 -179t-113 -48t-120 55q-31 35 -39 42t-19 7q-42 0 -77 -92h-117q45 131 89 179t104 48zM461 467q-109 0 -159 -54t-50 -159q0 -51 31 -73
q31 -21 111 -21t119 37q38 37 56 139l25 131h-133zM639 770q0 113 -121 113q-63 0 -103 -30t-73 -105l-188 61q102 264 381 264q165 0 251 -71t86 -203q0 -61 -20 -183l-109 -616h-182l-8 49q-80 -70 -231 -69q-303 0 -304 231q0 211 96 315t326 105h183l8 47q8 66 8 92z
" />
    <glyph glyph-name="uni1EAC" unicode="&#x1eac;" horiz-adv-x="1089" 
d="M322 -418l43 246h225l-43 -246h-225zM741 1767l-129 -159h-227l291 297h166l186 -297h-211zM725 494l-63 653l-293 -653h356zM741 295h-458l-133 -295h-269l717 1462h225l207 -1462h-262z" />
    <glyph glyph-name="uni1EAD" unicode="&#x1ead;" horiz-adv-x="956" 
d="M219 -418l43 246h225l-43 -246h-225zM627 1354l-129 -160h-230l291 297h168l186 -297h-213zM461 467q-109 0 -159 -54t-50 -159q0 -51 31 -73q31 -21 111 -21t119 37q38 37 56 139l25 131h-133zM639 770q0 113 -121 113q-63 0 -103 -30t-73 -105l-188 61q102 264 381 264
q165 0 251 -71t86 -203q0 -61 -20 -183l-109 -616h-182l-8 49q-80 -70 -231 -69q-303 0 -304 231q0 211 96 315t326 105h183l8 47q8 66 8 92z" />
    <glyph glyph-name="uni1EAE" unicode="&#x1eae;" horiz-adv-x="1089" 
d="M612 1804q0 -94 127 -94q74 0 111 28t59 99h148q-19 -121 -63 -179t-106 -84t-165 -26q-256 0 -256 193q0 30 8 96h139q-2 -23 -2 -33zM684 1855l150 238h186l-207 -238h-129zM725 494l-63 653l-293 -653h356zM741 295h-458l-133 -295h-269l717 1462h225l207 -1462h-262z
" />
    <glyph glyph-name="uni1EAF" unicode="&#x1eaf;" horiz-adv-x="956" 
d="M489 1393q0 -94 127 -95q74 0 111 28t59 99h148q-18 -121 -62 -178q-82 -111 -272 -110q-256 0 -256 192q0 30 8 96h140l-3 -10v-22zM561 1444l150 237h186l-209 -237h-127zM461 467q-109 0 -159 -54t-50 -159q0 -51 31 -73q31 -21 111 -21t119 37q38 37 56 139l25 131
h-133zM639 770q0 113 -121 113q-63 0 -103 -30t-73 -105l-188 61q102 264 381 264q165 0 251 -71t86 -203q0 -61 -20 -183l-109 -616h-182l-8 49q-80 -70 -231 -69q-303 0 -304 231q0 211 96 315t326 105h183l8 47q8 66 8 92z" />
    <glyph glyph-name="uni1EB0" unicode="&#x1eb0;" horiz-adv-x="1089" 
d="M612 1804q0 -94 127 -94q74 0 111 28t59 99h148q-19 -121 -63 -179t-106 -84t-165 -26q-256 0 -256 193q0 30 8 96h139q-2 -23 -2 -33zM838 1855h-115l-137 238h172zM725 494l-63 653l-293 -653h356zM741 295h-458l-133 -295h-269l717 1462h225l207 -1462h-262z" />
    <glyph glyph-name="uni1EB1" unicode="&#x1eb1;" horiz-adv-x="956" 
d="M489 1393q0 -94 127 -95q74 0 111 28t59 99h148q-18 -121 -62 -178q-82 -111 -272 -110q-256 0 -256 192q0 30 8 96h140l-3 -10v-22zM713 1444h-115l-135 237h172zM461 467q-109 0 -159 -54t-50 -159q0 -51 31 -73q31 -21 111 -21t119 37q38 37 56 139l25 131h-133z
M639 770q0 113 -121 113q-63 0 -103 -30t-73 -105l-188 61q102 264 381 264q165 0 251 -71t86 -203q0 -61 -20 -183l-109 -616h-182l-8 49q-80 -70 -231 -69q-303 0 -304 231q0 211 96 315t326 105h183l8 47q8 66 8 92z" />
    <glyph glyph-name="uni1EB2" unicode="&#x1eb2;" horiz-adv-x="1089" 
d="M612 1804q0 -94 127 -94q74 0 111 28t59 99h148q-19 -121 -63 -179t-106 -84t-165 -26q-256 0 -256 193q0 30 8 96h139q-2 -23 -2 -33zM768 1982q0 25 -27 25t-82 -27l-14 103q76 31 148 31q135 0 135 -111q0 -35 -12 -57t-58 -62q-29 -29 -39 -80h-135q10 78 47 121
t37 57zM725 494l-63 653l-293 -653h356zM741 295h-458l-133 -295h-269l717 1462h225l207 -1462h-262z" />
    <glyph glyph-name="uni1EB3" unicode="&#x1eb3;" horiz-adv-x="956" 
d="M489 1393q0 -94 127 -95q74 0 111 28t59 99h148q-18 -121 -62 -178q-82 -111 -272 -110q-256 0 -256 192q0 30 8 96h140l-3 -10v-22zM645 1569q0 48 -108 0l-15 102q72 29 146 29q137 0 137 -111q0 -35 -13 -57t-59 -59q-25 -25 -37 -80h-135q9 55 19 77t49 62
q16 23 16 37zM461 467q-109 0 -159 -54t-50 -159q0 -51 31 -73q31 -21 111 -21t119 37q38 37 56 139l25 131h-133zM639 770q0 113 -121 113q-63 0 -103 -30t-73 -105l-188 61q102 264 381 264q165 0 251 -71t86 -203q0 -61 -20 -183l-109 -616h-182l-8 49q-80 -70 -231 -69
q-303 0 -304 231q0 211 96 315t326 105h183l8 47q8 66 8 92z" />
    <glyph glyph-name="uni1EB4" unicode="&#x1eb4;" horiz-adv-x="1089" 
d="M598 1786q0 -86 129 -86q72 0 107 24t57 91h137q-29 -121 -61 -162q-78 -100 -256 -101q-250 0 -250 181q0 33 8 82h131q-2 -14 -2 -29zM700 2107q68 0 109 -47t49 -53t19 -6q37 0 67 94h117q-29 -102 -53 -141q-48 -88 -130 -88t-130 57q-31 35 -39 42t-21 7
q-43 0 -76 -94h-116q43 127 89 178q47 51 115 51zM725 494l-63 653l-293 -653h356zM741 295h-458l-133 -295h-269l717 1462h225l207 -1462h-262z" />
    <glyph glyph-name="uni1EB5" unicode="&#x1eb5;" horiz-adv-x="956" 
d="M475 1374q0 -86 127 -86q72 0 108 25t58 90h135q-27 -119 -59 -162q-78 -100 -256 -100q-250 0 -250 180q0 33 8 82h131q-2 -20 -2 -29zM576 1696q70 0 110 -48t49 -54q8 -7 19 -7q37 0 65 96h119q-39 -133 -80 -182t-113 -49q-71 0 -111 46t-48 53t-21 8q-43 -1 -76 -93
h-116q45 130 89 180t114 50zM461 467q-109 0 -159 -54t-50 -159q0 -51 31 -73q31 -21 111 -21t119 37q38 37 56 139l25 131h-133zM639 770q0 113 -121 113q-63 0 -103 -30t-73 -105l-188 61q102 264 381 264q165 0 251 -71t86 -203q0 -61 -20 -183l-109 -616h-182l-8 49
q-80 -70 -231 -69q-303 0 -304 231q0 211 96 315t326 105h183l8 47q8 66 8 92z" />
    <glyph glyph-name="uni1EB6" unicode="&#x1eb6;" horiz-adv-x="1089" 
d="M319 -418l46 246h225l-43 -246h-228zM608 1853q0 -98 127 -98q76 0 114 31t60 112h150q-25 -174 -97 -244t-231 -69q-276 0 -276 203q0 34 10 110h145l-2 -18v-27zM725 494l-63 653l-293 -653h356zM741 295h-458l-133 -295h-269l717 1462h225l207 -1462h-262z" />
    <glyph glyph-name="uni1EB7" unicode="&#x1eb7;" horiz-adv-x="956" 
d="M209 -418l43 246h225l-43 -246h-225zM481 1442q0 -98 127 -99q78 0 114 30t62 112h150q-28 -174 -100 -243t-230 -68q-276 0 -276 202q0 39 10 109h145q-2 -23 -2 -43zM461 467q-109 0 -159 -54t-50 -159q0 -51 31 -73q31 -21 111 -21t119 37q38 37 56 139l25 131h-133z
M639 770q0 113 -121 113q-63 0 -103 -30t-73 -105l-188 61q102 264 381 264q165 0 251 -71t86 -203q0 -61 -20 -183l-109 -616h-182l-8 49q-80 -70 -231 -69q-303 0 -304 231q0 211 96 315t326 105h183l8 47q8 66 8 92z" />
    <glyph glyph-name="uni1EB8" unicode="&#x1eb8;" 
d="M334 -418l43 246h225l-43 -246h-225zM61 0l258 1462h781l-35 -202h-537l-73 -420h454l-37 -203h-454l-76 -434h545l-37 -203h-789z" />
    <glyph glyph-name="uni1EB9" unicode="&#x1eb9;" horiz-adv-x="985" 
d="M238 -418l43 246h225l-43 -246h-225zM567 895q-84 0 -132 -53t-70 -168l-7 -35h332q14 80 15 117q0 139 -138 139zM309 309q0 -143 144 -143q133 0 192 135l191 -43q-54 -152 -148 -215t-262 -63q-346 0 -346 313q0 94 20 199l23 135q43 242 144 344t300 102
q352 0 353 -311q0 -102 -37 -293h-553l-11 -63q-10 -57 -10 -97z" />
    <glyph glyph-name="uni1EBA" unicode="&#x1eba;" 
d="M758 1839q0 31 -41 31t-121 -35l-16 141q109 37 184 37q186 0 186 -162q0 -49 -17 -77t-65 -69q-48 -43 -57 -61q-10 -18 -18 -63h-158q16 90 30 119q13 29 53 72t40 67zM61 0l258 1462h781l-35 -202h-537l-73 -420h454l-37 -203h-454l-76 -434h545l-37 -203h-789z" />
    <glyph glyph-name="uni1EBB" unicode="&#x1ebb;" horiz-adv-x="985" 
d="M657 1610q186 0 187 -162q0 -49 -18 -77t-64 -69q-48 -41 -58 -60t-18 -64h-158q14 88 28 118t56 72q40 43 39 68q0 63 -162 -2l-18 139q109 37 186 37zM567 895q-84 0 -132 -53t-70 -168l-7 -35h332q14 80 15 117q0 139 -138 139zM309 309q0 -143 144 -143
q133 0 192 135l191 -43q-54 -152 -148 -215t-262 -63q-346 0 -346 313q0 94 20 199l23 135q43 242 144 344t300 102q352 0 353 -311q0 -102 -37 -293h-553l-11 -63q-10 -57 -10 -97z" />
    <glyph glyph-name="uni1EBC" unicode="&#x1ebc;" 
d="M640 1896q81 0 141 -62t84 -62t41 24t38 86h141q-45 -160 -94 -219t-139 -59t-145 67q-33 37 -47 47t-27 11q-55 0 -88 -111h-142q51 158 103 218t134 60zM61 0l258 1462h781l-35 -202h-537l-73 -420h454l-37 -203h-454l-76 -434h545l-37 -203h-789z" />
    <glyph glyph-name="uni1EBD" unicode="&#x1ebd;" horiz-adv-x="985" 
d="M758 1358q25 0 42 24t38 86h141q-31 -113 -59 -165q-60 -111 -160 -111t-154 62t-80 63q-55 0 -88 -111h-141q51 158 103 217t134 59t142 -61q57 -63 82 -63zM567 895q-84 0 -132 -53t-70 -168l-7 -35h332q14 80 15 117q0 139 -138 139zM309 309q0 -143 144 -143
q133 0 192 135l191 -43q-54 -152 -148 -215t-262 -63q-346 0 -346 313q0 94 20 199l23 135q43 242 144 344t300 102q352 0 353 -311q0 -102 -37 -293h-553l-11 -63q-10 -57 -10 -97z" />
    <glyph glyph-name="uni1EBE" unicode="&#x1ebe;" 
d="M743 1671l-120 -112h-215l272 241h158l188 -241h-203zM688 1855l150 238h186l-207 -238h-129zM61 0l258 1462h781l-35 -202h-537l-73 -420h454l-37 -203h-454l-76 -434h545l-37 -203h-789z" />
    <glyph glyph-name="uni1EBF" unicode="&#x1ebf;" horiz-adv-x="985" 
d="M631 1260l-121 -113h-215l272 242h156l188 -242h-200zM575 1444l150 237h186l-209 -237h-127zM567 895q-84 0 -132 -53t-70 -168l-7 -35h332q14 80 15 117q0 139 -138 139zM309 309q0 -143 144 -143q133 0 192 135l191 -43q-54 -152 -148 -215t-262 -63q-346 0 -346 313
q0 94 20 199l23 135q43 242 144 344t300 102q352 0 353 -311q0 -102 -37 -293h-553l-11 -63q-10 -57 -10 -97z" />
    <glyph glyph-name="uni1EC0" unicode="&#x1ec0;" 
d="M743 1671l-120 -112h-215l272 241h158l188 -241h-203zM831 1855h-114l-137 238h174zM61 0l258 1462h781l-35 -202h-537l-73 -420h454l-37 -203h-454l-76 -434h545l-37 -203h-789z" />
    <glyph glyph-name="uni1EC1" unicode="&#x1ec1;" horiz-adv-x="985" 
d="M631 1260l-121 -113h-215l272 242h158l186 -242h-200zM717 1444h-115l-135 237h172zM567 895q-84 0 -132 -53t-70 -168l-7 -35h332q14 80 15 117q0 139 -138 139zM309 309q0 -143 144 -143q133 0 192 135l191 -43q-54 -152 -148 -215t-262 -63q-346 0 -346 313
q0 94 20 199l23 135q43 242 144 344t300 102q352 0 353 -311q0 -102 -37 -293h-553l-11 -63q-10 -57 -10 -97z" />
    <glyph glyph-name="uni1EC2" unicode="&#x1ec2;" 
d="M741 1665l-120 -106h-215l270 223h155l193 -223h-203zM770 1980q0 25 -26 25t-82 -25l-15 103q72 29 148 28q135 0 135 -110q0 -33 -12 -53t-50 -54t-43 -82h-137q8 51 20 75q11 24 46 61q16 20 16 32zM61 0l258 1462h781l-35 -202h-537l-73 -420h454l-37 -203h-454
l-76 -434h545l-37 -203h-789z" />
    <glyph glyph-name="uni1EC3" unicode="&#x1ec3;" horiz-adv-x="985" 
d="M627 1253l-119 -106h-215l270 223h156l190 -223h-200zM657 1569q0 47 -108 0l-14 102q72 29 147 29q135 0 135 -111q0 -33 -12 -53t-51 -55t-41 -80h-138q6 51 19 76q12 25 47 59q16 20 16 33zM567 895q-84 0 -132 -53t-70 -168l-7 -35h332q14 80 15 117q0 139 -138 139z
M309 309q0 -143 144 -143q133 0 192 135l191 -43q-54 -152 -148 -215t-262 -63q-346 0 -346 313q0 94 20 199l23 135q43 242 144 344t300 102q352 0 353 -311q0 -102 -37 -293h-553l-11 -63q-10 -57 -10 -97z" />
    <glyph glyph-name="uni1EC4" unicode="&#x1ec4;" 
d="M748 1671l-121 -112h-217l274 241h156l188 -241h-201zM707 2095q69 0 109 -47t48 -53t21 -6q37 0 65 94h119q-39 -133 -80 -181t-113 -48t-122 57q-29 35 -37 42t-21 7q-46 0 -75 -94h-117q43 129 88 179t115 50zM61 0l258 1462h781l-35 -202h-537l-73 -420h454l-37 -203
h-454l-76 -434h545l-37 -203h-789z" />
    <glyph glyph-name="uni1EC5" unicode="&#x1ec5;" horiz-adv-x="985" 
d="M633 1260l-119 -113h-217l274 242h156l188 -242h-200zM596 1681q63 0 113 -51q35 -41 43 -47t18 -6q39 0 68 92h116q-39 -131 -80 -179q-40 -48 -112 -48t-113 46t-47 52t-18 6q-43 0 -76 -92h-119q35 100 60 139q59 88 147 88zM567 895q-84 0 -132 -53t-70 -168l-7 -35
h332q14 80 15 117q0 139 -138 139zM309 309q0 -143 144 -143q133 0 192 135l191 -43q-54 -152 -148 -215t-262 -63q-346 0 -346 313q0 94 20 199l23 135q43 242 144 344t300 102q352 0 353 -311q0 -102 -37 -293h-553l-11 -63q-10 -57 -10 -97z" />
    <glyph glyph-name="uni1EC6" unicode="&#x1ec6;" 
d="M330 -418l43 246h227l-45 -246h-225zM760 1767l-129 -159h-228l291 297h168l187 -297h-213zM61 0l258 1462h781l-35 -202h-537l-73 -420h454l-37 -203h-454l-76 -434h545l-37 -203h-789z" />
    <glyph glyph-name="uni1EC7" unicode="&#x1ec7;" horiz-adv-x="985" 
d="M233 -418l43 246h228l-45 -246h-226zM651 1354l-129 -160h-229l291 297h168l186 -297h-213zM567 895q-84 0 -132 -53t-70 -168l-7 -35h332q14 80 15 117q0 139 -138 139zM309 309q0 -143 144 -143q133 0 192 135l191 -43q-54 -152 -148 -215t-262 -63q-346 0 -346 313
q0 94 20 199l23 135q43 242 144 344t300 102q352 0 353 -311q0 -102 -37 -293h-553l-11 -63q-10 -57 -10 -97z" />
    <glyph glyph-name="uni1EC8" unicode="&#x1ec8;" horiz-adv-x="552" 
d="M506 1839q0 31 -41 31t-121 -35l-16 141q111 37 184 37q186 0 186 -162q0 -49 -17 -77t-65 -69q-48 -43 -57 -61q-10 -18 -18 -63h-158q16 90 30 119q13 29 53 72t40 67zM61 0l258 1462h246l-258 -1462h-246z" />
    <glyph glyph-name="uni1EC9" unicode="&#x1ec9;" horiz-adv-x="493" 
d="M408 1436q0 64 -162 -2l-19 139q109 37 187 37q186 0 186 -162q0 -49 -17 -77t-65 -69t-58 -60t-18 -64h-157q16 88 29 118q14 30 54 73q40 42 40 67zM37 0l184 1051h234l-185 -1051h-233z" />
    <glyph glyph-name="uni1ECA" unicode="&#x1eca;" horiz-adv-x="552" 
d="M-4 -418l43 246h225l-43 -246h-225zM61 0l256 1462h246l-256 -1462h-246z" />
    <glyph glyph-name="uni1ECB" unicode="&#x1ecb;" horiz-adv-x="493" 
d="M-33 -418l43 246h226l-43 -246h-226zM39 0l184 1051h234l-187 -1051h-231zM254 1219l43 254h233l-45 -254h-231z" />
    <glyph glyph-name="uni1ECC" unicode="&#x1ecc;" horiz-adv-x="1187" 
d="M313 -418l43 246h226l-43 -246h-226zM909 1106q0 176 -188 176q-121 0 -183 -76t-96 -268l-73 -414q-18 -104 -19 -168q0 -176 187 -176q123 0 184 76t96 268l72 414q20 117 20 168zM733 1483q422 0 422 -357q0 -72 -22 -202l-80 -459q-25 -139 -58 -216t-94 -138
q-129 -131 -366 -131q-430 0 -431 356q1 70 21 203l82 458q25 139 56 216q32 77 93 139q131 131 377 131z" />
    <glyph glyph-name="uni1ECD" unicode="&#x1ecd;" horiz-adv-x="1001" 
d="M219 -418l45 246h225l-45 -246h-225zM694 752q0 131 -135 131q-88 1 -134 -57t-69 -197l-37 -207q-14 -84 -14 -121q0 -131 135 -131q88 0 134 58t69 194l37 207q14 78 14 123zM565 1073q360 0 361 -303q0 -74 -19 -178l-37 -205q-39 -221 -138 -314t-298 -93
q-360 0 -360 301q0 76 18 178l37 207q39 219 139 313t297 94z" />
    <glyph glyph-name="uni1ECE" unicode="&#x1ece;" horiz-adv-x="1187" 
d="M787 1870q-40 0 -123 -35l-17 141q111 37 187 37q186 0 186 -162q0 -49 -18 -77t-84 -84q-28 -26 -38 -46t-18 -63h-160q16 88 30 117q12 29 54 73t41 68q0 31 -40 31zM909 1106q0 176 -188 176q-121 0 -183 -76t-96 -268l-73 -414q-18 -104 -19 -168q0 -176 187 -176
q123 0 184 76t96 268l72 414q20 117 20 168zM733 1483q422 0 422 -357q0 -72 -22 -202l-80 -459q-25 -139 -58 -216t-94 -138q-129 -131 -366 -131q-430 0 -431 356q1 70 21 203l82 458q25 139 56 216q32 77 93 139q131 131 377 131z" />
    <glyph glyph-name="uni1ECF" unicode="&#x1ecf;" horiz-adv-x="1001" 
d="M664 1610q186 0 186 -162q0 -49 -17 -77t-65 -70t-58 -60t-18 -63h-157q14 88 28 118q15 30 55 72q40 43 39 68q0 65 -161 -2l-19 139q109 37 187 37zM694 752q0 131 -135 131q-88 1 -134 -57t-69 -197l-37 -207q-14 -84 -14 -121q0 -131 135 -131q88 0 134 58t69 194
l37 207q14 78 14 123zM565 1073q360 0 361 -303q0 -74 -19 -178l-37 -205q-39 -221 -138 -314t-298 -93q-360 0 -360 301q0 76 18 178l37 207q39 219 139 313t297 94z" />
    <glyph glyph-name="uni1ED0" unicode="&#x1ed0;" horiz-adv-x="1187" 
d="M788 1671l-120 -112h-215l272 241h158l188 -241h-203zM733 1855l150 238h186l-207 -238h-129zM909 1106q0 176 -188 176q-121 0 -183 -76t-96 -268l-73 -414q-18 -104 -19 -168q0 -176 187 -176q123 0 184 76t96 268l72 414q20 117 20 168zM733 1483q422 0 422 -357
q0 -72 -22 -202l-80 -459q-25 -139 -58 -216t-94 -138q-129 -131 -366 -131q-430 0 -431 356q1 70 21 203l82 458q25 139 56 216q32 77 93 139q131 131 377 131z" />
    <glyph glyph-name="uni1ED1" unicode="&#x1ed1;" horiz-adv-x="1001" 
d="M629 1260l-121 -113h-215l272 242h156l190 -242h-202zM573 1444l150 237h186l-207 -237h-129zM694 752q0 131 -135 131q-88 1 -134 -57t-69 -197l-37 -207q-14 -84 -14 -121q0 -131 135 -131q88 0 134 58t69 194l37 207q14 78 14 123zM565 1073q360 0 361 -303
q0 -74 -19 -178l-37 -205q-39 -221 -138 -314t-298 -93q-360 0 -360 301q0 76 18 178l37 207q39 219 139 313t297 94z" />
    <glyph glyph-name="uni1ED2" unicode="&#x1ed2;" horiz-adv-x="1187" 
d="M788 1671l-120 -112h-215l272 241h158l188 -241h-203zM877 1855h-115l-137 238h172zM909 1106q0 176 -188 176q-121 0 -183 -76t-96 -268l-73 -414q-18 -104 -19 -168q0 -176 187 -176q123 0 184 76t96 268l72 414q20 117 20 168zM733 1483q422 0 422 -357
q0 -72 -22 -202l-80 -459q-25 -139 -58 -216t-94 -138q-129 -131 -366 -131q-430 0 -431 356q1 70 21 203l82 458q25 139 56 216q32 77 93 139q131 131 377 131z" />
    <glyph glyph-name="uni1ED3" unicode="&#x1ed3;" horiz-adv-x="1001" 
d="M629 1260l-121 -113h-215l272 242h158l186 -242h-200zM715 1444h-113l-137 237h172zM694 752q0 131 -135 131q-88 1 -134 -57t-69 -197l-37 -207q-14 -84 -14 -121q0 -131 135 -131q88 0 134 58t69 194l37 207q14 78 14 123zM565 1073q360 0 361 -303q0 -74 -19 -178
l-37 -205q-39 -221 -138 -314t-298 -93q-360 0 -360 301q0 76 18 178l37 207q39 219 139 313t297 94z" />
    <glyph glyph-name="uni1ED4" unicode="&#x1ed4;" horiz-adv-x="1187" 
d="M784 1665l-118 -106h-215l270 223h156l192 -223h-203zM815 1982q0 23 -26 23t-82 -25l-15 103q72 29 148 28q135 0 135 -110q0 -33 -12 -53q-11 -20 -49 -54t-44 -82h-137q8 51 20 75q11 24 46 61q16 20 16 34zM909 1106q0 176 -188 176q-121 0 -183 -76t-96 -268
l-73 -414q-18 -104 -19 -168q0 -176 187 -176q123 0 184 76t96 268l72 414q20 117 20 168zM733 1483q422 0 422 -357q0 -72 -22 -202l-80 -459q-25 -139 -58 -216t-94 -138q-129 -131 -366 -131q-430 0 -431 356q1 70 21 203l82 458q25 139 56 216q32 77 93 139
q131 131 377 131z" />
    <glyph glyph-name="uni1ED5" unicode="&#x1ed5;" horiz-adv-x="1001" 
d="M625 1253l-119 -106h-215l270 223h156l192 -223h-202zM655 1569q0 47 -108 0l-15 102q74 29 148 29q135 0 135 -111q0 -33 -12 -55t-58 -59q-28 -27 -34 -74h-138q6 49 18 74q11 25 48 61q16 20 16 33zM694 752q0 131 -135 131q-88 1 -134 -57t-69 -197l-37 -207
q-14 -84 -14 -121q0 -131 135 -131q88 0 134 58t69 194l37 207q14 78 14 123zM565 1073q360 0 361 -303q0 -74 -19 -178l-37 -205q-39 -221 -138 -314t-298 -93q-360 0 -360 301q0 76 18 178l37 207q39 219 139 313t297 94z" />
    <glyph glyph-name="uni1ED6" unicode="&#x1ed6;" horiz-adv-x="1187" 
d="M791 1671l-119 -112h-217l274 241h156l188 -241h-201zM750 2095q68 0 110 -47q41 -47 49 -53t19 -6q39 0 67 94h117q-37 -131 -79 -180q-41 -49 -113 -49t-121 57q-29 35 -37 42t-21 7q-46 0 -75 -94h-117q43 131 88 180t113 49zM909 1106q0 176 -188 176
q-121 0 -183 -76t-96 -268l-73 -414q-18 -104 -19 -168q0 -176 187 -176q123 0 184 76t96 268l72 414q20 117 20 168zM733 1483q422 0 422 -357q0 -72 -22 -202l-80 -459q-25 -139 -58 -216t-94 -138q-129 -131 -366 -131q-430 0 -431 356q1 70 21 203l82 458q25 139 56 216
q32 77 93 139q131 131 377 131z" />
    <glyph glyph-name="uni1ED7" unicode="&#x1ed7;" horiz-adv-x="1001" 
d="M625 1260l-119 -113h-217l274 242h156l188 -242h-200zM574 1681q60 0 84 -14q22 -14 81 -80q6 -10 25 -10q37 0 65 92h117q-39 -133 -79 -180q-41 -47 -113 -47t-113 46t-47 52t-19 6q-42 0 -75 -92h-119q45 131 89 179t104 48zM694 752q0 131 -135 131q-88 1 -134 -57
t-69 -197l-37 -207q-14 -84 -14 -121q0 -131 135 -131q88 0 134 58t69 194l37 207q14 78 14 123zM565 1073q360 0 361 -303q0 -74 -19 -178l-37 -205q-39 -221 -138 -314t-298 -93q-360 0 -360 301q0 76 18 178l37 207q39 219 139 313t297 94z" />
    <glyph glyph-name="uni1ED8" unicode="&#x1ed8;" horiz-adv-x="1187" 
d="M313 -418l43 246h226l-43 -246h-226zM797 1767l-129 -159h-228l291 297h166l186 -297h-211zM909 1106q0 176 -188 176q-121 0 -183 -76t-96 -268l-73 -414q-18 -104 -19 -168q0 -176 187 -176q123 0 184 76t96 268l72 414q20 117 20 168zM733 1483q422 0 422 -357
q0 -72 -22 -202l-80 -459q-25 -139 -58 -216t-94 -138q-129 -131 -366 -131q-430 0 -431 356q1 70 21 203l82 458q25 139 56 216q32 77 93 139q131 131 377 131z" />
    <glyph glyph-name="uni1ED9" unicode="&#x1ed9;" horiz-adv-x="1001" 
d="M219 -418l45 246h225l-45 -246h-225zM643 1354l-129 -160h-227l288 297h168l187 -297h-213zM694 752q0 131 -135 131q-88 1 -134 -57t-69 -197l-37 -207q-14 -84 -14 -121q0 -131 135 -131q88 0 134 58t69 194l37 207q14 78 14 123zM565 1073q360 0 361 -303
q0 -74 -19 -178l-37 -205q-39 -221 -138 -314t-298 -93q-360 0 -360 301q0 76 18 178l37 207q39 219 139 313t297 94z" />
    <glyph glyph-name="uni1EDA" unicode="&#x1eda;" horiz-adv-x="1261" 
d="M702 1602l199 307h262l-286 -307h-175zM909 1106q0 178 -188 178q-121 0 -183 -77t-96 -269l-73 -414q-18 -100 -19 -168q0 -176 187 -176q123 0 184 76t96 268l72 414q20 115 20 168zM1462 1427q0 -154 -116 -253q-63 -55 -197 -127l-2 -11l-2 -28q-8 -63 -12 -84
l-80 -459q-25 -139 -58 -216t-94 -138q-129 -131 -366 -131q-430 0 -431 356q0 70 21 203l82 458q25 139 57 216q116 270 469 270q193 0 295 -73t123 -224q123 88 123 215q0 35 -14 84h198q4 -27 4 -58z" />
    <glyph glyph-name="uni1EDB" unicode="&#x1edb;" horiz-adv-x="1089" 
d="M532 1188l199 309h262l-286 -309h-175zM694 752q0 131 -135 131q-88 1 -133 -57t-70 -197l-37 -207q-14 -80 -14 -121q0 -131 135 -131q88 0 134 58t69 194l37 207q14 78 14 123zM434 -20q-360 0 -360 303q0 74 18 176l37 207q39 219 139 313t288 94t278 -72
q88 -72 92 -221l10 11q90 88 90 194q0 35 -16 84h200l4 -61q0 -113 -72 -201t-229 -170q-8 -48 -8 -57l-35 -193q-39 -221 -138 -314t-298 -93z" />
    <glyph glyph-name="uni1EDC" unicode="&#x1edc;" horiz-adv-x="1261" 
d="M928 1599h-170l-180 310h245zM909 1106q0 178 -188 178q-121 0 -183 -77t-96 -269l-73 -414q-18 -100 -19 -168q0 -176 187 -176q123 0 184 76t96 268l72 414q20 115 20 168zM1462 1427q0 -154 -116 -253q-63 -55 -197 -127l-2 -11l-2 -28q-8 -63 -12 -84l-80 -459
q-25 -139 -58 -216t-94 -138q-129 -131 -366 -131q-430 0 -431 356q0 70 21 203l82 458q25 139 57 216q116 270 469 270q193 0 295 -73t123 -224q123 88 123 215q0 35 -14 84h198q4 -27 4 -58z" />
    <glyph glyph-name="uni1EDD" unicode="&#x1edd;" horiz-adv-x="1089" 
d="M764 1188h-170l-178 309h243zM694 752q0 131 -135 131q-88 1 -133 -57t-70 -197l-37 -207q-14 -80 -14 -121q0 -131 135 -131q88 0 134 58t69 194l37 207q14 78 14 123zM434 -20q-360 0 -360 303q0 74 18 176l37 207q39 219 139 313t288 94t278 -72q88 -72 92 -221l10 11
q90 88 90 194q0 35 -16 84h200l4 -61q0 -113 -72 -201t-229 -170q-8 -48 -8 -57l-35 -193q-39 -221 -138 -314t-298 -93z" />
    <glyph glyph-name="uni1EDE" unicode="&#x1ede;" horiz-adv-x="1261" 
d="M782 1870q-41 0 -120 -35l-17 141q111 37 184 37q186 0 187 -162q0 -49 -18 -77t-64 -69q-48 -43 -58 -61t-18 -63h-158q16 90 30 119t54 72t39 67q0 31 -41 31zM909 1106q0 178 -188 178q-121 0 -183 -77t-96 -269l-73 -414q-18 -100 -19 -168q0 -176 187 -176
q123 0 184 76t96 268l72 414q20 115 20 168zM1462 1427q0 -154 -116 -253q-63 -55 -197 -127l-2 -11l-2 -28q-8 -63 -12 -84l-80 -459q-25 -139 -58 -216t-94 -138q-129 -131 -366 -131q-430 0 -431 356q0 70 21 203l82 458q25 139 57 216q116 270 469 270q193 0 295 -73
t123 -224q123 88 123 215q0 35 -14 84h198q4 -27 4 -58z" />
    <glyph glyph-name="uni1EDF" unicode="&#x1edf;" horiz-adv-x="1089" 
d="M662 1610q186 0 186 -162q0 -49 -18 -77t-64 -69q-48 -41 -58 -60t-18 -64h-158q14 88 28 118t56 72q40 43 39 68q0 63 -161 -2l-19 139q109 37 187 37zM694 752q0 131 -135 131q-88 1 -133 -57t-70 -197l-37 -207q-14 -80 -14 -121q0 -131 135 -131q88 0 134 58t69 194
l37 207q14 78 14 123zM434 -20q-360 0 -360 303q0 74 18 176l37 207q39 219 139 313t288 94t278 -72q88 -72 92 -221l10 11q90 88 90 194q0 35 -16 84h200l4 -61q0 -113 -72 -201t-229 -170q-8 -48 -8 -57l-35 -193q-39 -221 -138 -314t-298 -93z" />
    <glyph glyph-name="uni1EE0" unicode="&#x1ee0;" horiz-adv-x="1261" 
d="M706 1896q82 0 141 -62q60 -62 84 -62t41 24t38 86h141q-45 -160 -94 -219t-139 -59t-142 62t-78 63q-55 0 -88 -111h-141q51 158 103 218t134 60zM909 1106q0 178 -188 178q-121 0 -183 -77t-96 -269l-73 -414q-18 -100 -19 -168q0 -176 187 -176q123 0 184 76t96 268
l72 414q20 115 20 168zM1462 1427q0 -154 -116 -253q-63 -55 -197 -127l-2 -11l-2 -28q-8 -63 -12 -84l-80 -459q-25 -139 -58 -216t-94 -138q-129 -131 -366 -131q-430 0 -431 356q0 70 21 203l82 458q25 139 57 216q116 270 469 270q193 0 295 -73t123 -224
q123 88 123 215q0 35 -14 84h198q4 -27 4 -58z" />
    <glyph glyph-name="uni1EE1" unicode="&#x1ee1;" horiz-adv-x="1089" 
d="M760 1358q21 0 38 24t38 86h141q-33 -111 -59 -165q-60 -111 -160 -111t-154 62t-80 63q-55 0 -88 -111h-141q49 156 102 216t135 60t142 -61q37 -41 51 -52t35 -11zM694 752q0 131 -135 131q-88 1 -133 -57t-70 -197l-37 -207q-14 -80 -14 -121q0 -131 135 -131
q88 0 134 58t69 194l37 207q14 78 14 123zM434 -20q-360 0 -360 303q0 74 18 176l37 207q39 219 139 313t288 94t278 -72q88 -72 92 -221l10 11q90 88 90 194q0 35 -16 84h200l4 -61q0 -113 -72 -201t-229 -170q-8 -48 -8 -57l-35 -193q-39 -221 -138 -314t-298 -93z" />
    <glyph glyph-name="uni1EE2" unicode="&#x1ee2;" horiz-adv-x="1261" 
d="M338 -418l43 246h225l-43 -246h-225zM909 1106q0 178 -188 178q-121 0 -183 -77t-96 -269l-73 -414q-18 -100 -19 -168q0 -176 187 -176q123 0 184 76t96 268l72 414q20 115 20 168zM1462 1427q0 -154 -116 -253q-63 -55 -197 -127l-2 -11l-2 -28q-8 -63 -12 -84
l-80 -459q-25 -139 -58 -216t-94 -138q-129 -131 -366 -131q-430 0 -431 356q0 70 21 203l82 458q25 139 57 216q116 270 469 270q193 0 295 -73t123 -224q123 88 123 215q0 35 -14 84h198q4 -27 4 -58z" />
    <glyph glyph-name="uni1EE3" unicode="&#x1ee3;" horiz-adv-x="1089" 
d="M233 -418l43 246h228l-45 -246h-226zM694 752q0 131 -135 131q-88 1 -133 -57t-70 -197l-37 -207q-14 -80 -14 -121q0 -131 135 -131q88 0 134 58t69 194l37 207q14 78 14 123zM434 -20q-360 0 -360 303q0 74 18 176l37 207q39 219 139 313t288 94t278 -72
q88 -72 92 -221l10 11q90 88 90 194q0 35 -16 84h200l4 -61q0 -113 -72 -201t-229 -170q-8 -48 -8 -57l-35 -193q-39 -221 -138 -314t-298 -93z" />
    <glyph glyph-name="uni1EE4" unicode="&#x1ee4;" horiz-adv-x="1210" 
d="M326 -418l45 246h225l-43 -246h-227zM373 336q0 -156 178 -156q141 0 205 111q35 61 59 201l170 970h246l-178 -1013q-27 -145 -52 -210t-75 -120q-133 -139 -380 -139t-345 116q-74 86 -74 213q0 78 27 226l163 927h246l-172 -970q-18 -109 -18 -156z" />
    <glyph glyph-name="uni1EE5" unicode="&#x1ee5;" horiz-adv-x="995" 
d="M217 -418l43 246h225l-43 -246h-225zM324 307q0 -127 106 -127q80 0 123 65t72 222l102 584h234l-185 -1051h-166l-8 90q-51 -61 -106 -86t-140 -24q-130 0 -202 66t-72 169q0 102 27 244l104 592h233l-106 -598q-16 -102 -16 -146z" />
    <glyph glyph-name="uni1EE6" unicode="&#x1ee6;" horiz-adv-x="1210" 
d="M836 1839q0 31 -41 31t-121 -35l-17 141q111 37 185 37q186 0 186 -162q0 -49 -17 -77t-65 -69q-48 -43 -58 -61t-18 -63h-157q16 90 29 119q14 29 54 72t40 67zM373 336q0 -156 178 -156q141 0 205 111q35 61 59 201l170 970h246l-178 -1013q-27 -145 -52 -210t-75 -120
q-133 -139 -380 -139t-345 116q-74 86 -74 213q0 78 27 226l163 927h246l-172 -970q-18 -109 -18 -156z" />
    <glyph glyph-name="uni1EE7" unicode="&#x1ee7;" horiz-adv-x="995" 
d="M645 1436q0 63 -162 -2l-18 139q109 37 186 37q186 0 187 -162q0 -49 -18 -77t-85 -85q-27 -27 -36 -44t-19 -64h-160q16 88 30 118t55 73q40 42 40 67zM324 307q0 -127 106 -127q80 0 123 65t72 222l102 584h234l-185 -1051h-166l-8 90q-51 -61 -106 -86t-140 -24
q-130 0 -202 66t-72 169q0 102 27 244l104 592h233l-106 -598q-16 -102 -16 -146z" />
    <glyph glyph-name="uni1EE8" unicode="&#x1ee8;" horiz-adv-x="1337" 
d="M729 1602l199 307h262l-287 -307h-174zM373 336q0 -156 172 -156q80 0 128 26t83 86t59 200l170 970h246l-55 -313q100 55 143 113t43 141q0 35 -16 82h200q4 -57 4 -60q0 -160 -143 -274q-74 -59 -256 -150l-98 -552q-27 -145 -52 -209t-75 -121q-133 -139 -381 -139
t-346 116q-72 84 -72 213q0 78 27 226l161 927h246l-170 -970q-18 -109 -18 -156z" />
    <glyph glyph-name="uni1EE9" unicode="&#x1ee9;" horiz-adv-x="1144" 
d="M543 1188l198 309h263l-287 -309h-174zM324 305q0 -125 106 -125q80 0 123 65t72 222l102 584h234l-56 -320q186 96 187 254q0 35 -17 84h201q4 -57 4 -61q0 -132 -87 -224t-314 -202l-103 -582h-166l-8 90q-90 -110 -234 -110t-214 66q-72 66 -72 187q0 72 27 226
l104 592h233l-106 -600q-16 -98 -16 -146z" />
    <glyph glyph-name="uni1EEA" unicode="&#x1eea;" horiz-adv-x="1337" 
d="M930 1599h-170l-178 310h243zM373 336q0 -156 172 -156q80 0 128 26t83 86t59 200l170 970h246l-55 -313q100 55 143 113t43 141q0 35 -16 82h200q4 -57 4 -60q0 -160 -143 -274q-74 -59 -256 -150l-98 -552q-27 -145 -52 -209t-75 -121q-133 -139 -381 -139t-346 116
q-72 84 -72 213q0 78 27 226l161 927h246l-170 -970q-18 -109 -18 -156z" />
    <glyph glyph-name="uni1EEB" unicode="&#x1eeb;" horiz-adv-x="1144" 
d="M719 1188h-170l-178 309h243zM324 305q0 -125 106 -125q80 0 123 65t72 222l102 584h234l-56 -320q186 96 187 254q0 35 -17 84h201q4 -57 4 -61q0 -132 -87 -224t-314 -202l-103 -582h-166l-8 90q-90 -110 -234 -110t-214 66q-72 66 -72 187q0 72 27 226l104 592h233
l-106 -600q-16 -98 -16 -146z" />
    <glyph glyph-name="uni1EEC" unicode="&#x1eec;" horiz-adv-x="1337" 
d="M844 1839q0 31 -44 31t-118 -35l-18 141q111 37 186 37q186 0 186 -162q0 -49 -17 -77t-65 -68t-56 -60q-9 -20 -19 -65h-158q16 90 30 119q13 29 53 72t40 67zM373 336q0 -156 172 -156q80 0 128 26t83 86t59 200l170 970h246l-55 -313q100 55 143 113t43 141
q0 35 -16 82h200q4 -57 4 -60q0 -160 -143 -274q-74 -59 -256 -150l-98 -552q-27 -145 -52 -209t-75 -121q-133 -139 -381 -139t-346 116q-72 84 -72 213q0 78 27 226l161 927h246l-170 -970q-18 -109 -18 -156z" />
    <glyph glyph-name="uni1EED" unicode="&#x1eed;" horiz-adv-x="1144" 
d="M670 1436q0 64 -164 -2l-17 139q104 37 187 37q186 0 186 -162q0 -49 -17 -77t-85 -85q-27 -25 -36 -43t-19 -65h-160q16 88 30 118q15 30 55 72q40 43 40 68zM324 305q0 -125 106 -125q80 0 123 65t72 222l102 584h234l-56 -320q186 96 187 254q0 35 -17 84h201
q4 -57 4 -61q0 -132 -87 -224t-314 -202l-103 -582h-166l-8 90q-90 -110 -234 -110t-214 66q-72 66 -72 187q0 72 27 226l104 592h233l-106 -600q-16 -98 -16 -146z" />
    <glyph glyph-name="uni1EEE" unicode="&#x1eee;" horiz-adv-x="1337" 
d="M721 1896q82 0 142 -62t84 -62t41 24t38 86h139q-43 -160 -92 -219t-138 -59t-149 67q-47 57 -73 58q-51 0 -88 -111h-140q51 158 103 218t133 60zM373 336q0 -156 172 -156q80 0 128 26t83 86t59 200l170 970h246l-55 -313q100 55 143 113t43 141q0 35 -16 82h200
q4 -57 4 -60q0 -160 -143 -274q-74 -59 -256 -150l-98 -552q-27 -145 -52 -209t-75 -121q-133 -139 -381 -139t-346 116q-72 84 -72 213q0 78 27 226l161 927h246l-170 -970q-18 -109 -18 -156z" />
    <glyph glyph-name="uni1EEF" unicode="&#x1eef;" horiz-adv-x="1144" 
d="M763 1358q22 0 39 24t38 86h139q-31 -113 -59 -165q-60 -111 -160 -111t-154 62t-80 63q-53 0 -88 -111h-139q49 156 101 216t134 60t132 -52q49 -52 62 -62t35 -10zM324 305q0 -125 106 -125q80 0 123 65t72 222l102 584h234l-56 -320q186 96 187 254q0 35 -17 84h201
q4 -57 4 -61q0 -132 -87 -224t-314 -202l-103 -582h-166l-8 90q-90 -110 -234 -110t-214 66q-72 66 -72 187q0 72 27 226l104 592h233l-106 -600q-16 -98 -16 -146z" />
    <glyph glyph-name="uni1EF0" unicode="&#x1ef0;" horiz-adv-x="1337" 
d="M348 -418l43 246h225l-43 -246h-225zM373 336q0 -156 172 -156q80 0 128 26t83 86t59 200l170 970h246l-55 -313q100 55 143 113t43 141q0 35 -16 82h200q4 -57 4 -60q0 -160 -143 -274q-74 -59 -256 -150l-98 -552q-27 -145 -52 -209t-75 -121q-133 -139 -381 -139
t-346 116q-72 84 -72 213q0 78 27 226l161 927h246l-170 -970q-18 -109 -18 -156z" />
    <glyph glyph-name="uni1EF1" unicode="&#x1ef1;" horiz-adv-x="1144" 
d="M248 -418l43 246h225l-43 -246h-225zM324 305q0 -125 106 -125q80 0 123 65t72 222l102 584h234l-56 -320q186 96 187 254q0 35 -17 84h201q4 -57 4 -61q0 -132 -87 -224t-314 -202l-103 -582h-166l-8 90q-90 -110 -234 -110t-214 66q-72 66 -72 187q0 72 27 226l104 592
h233l-106 -600q-16 -98 -16 -146z" />
    <glyph glyph-name="Ygrave" unicode="&#x1ef2;" horiz-adv-x="968" 
d="M801 1599h-168l-180 310h245zM272 0l90 520l-229 942h254l141 -671l379 671h264l-563 -942l-90 -520h-246z" />
    <glyph glyph-name="ygrave" unicode="&#x1ef3;" horiz-adv-x="903" 
d="M692 1188h-168l-180 309h246zM242 6l-125 1045h229l62 -762l315 762h242l-531 -1160q-57 -123 -99 -189q-86 -134 -234 -161q-71 -12 -191 -12l35 192q111 0 153 32t101 157z" />
    <glyph glyph-name="uni1EF4" unicode="&#x1ef4;" horiz-adv-x="968" 
d="M203 -418l45 246h225l-43 -246h-227zM272 0l90 520l-229 942h254l141 -671l379 671h264l-563 -942l-90 -520h-246z" />
    <glyph glyph-name="uni1EF5" unicode="&#x1ef5;" horiz-adv-x="903" 
d="M477 -418l43 246h225l-43 -246h-225zM242 6l-125 1045h229l62 -762l315 762h242l-531 -1160q-57 -123 -99 -189q-86 -134 -234 -161q-71 -12 -191 -12l35 192q111 0 153 32t101 157z" />
    <glyph glyph-name="uni1EF6" unicode="&#x1ef6;" horiz-adv-x="968" 
d="M661 1870q-41 0 -120 -35l-17 141q111 37 185 37q186 0 186 -162q0 -49 -17 -77q-16 -28 -64 -69q-48 -43 -58 -61t-19 -63h-157q16 90 29 119t53 72t40 67q0 31 -41 31zM272 0l90 520l-229 942h254l141 -671l379 671h264l-563 -942l-90 -520h-246z" />
    <glyph glyph-name="uni1EF7" unicode="&#x1ef7;" horiz-adv-x="903" 
d="M614 1610q186 0 187 -162q1 -49 -17 -77t-66 -69t-57 -60q-10 -19 -18 -64h-158q15 88 29 118t54 73q40 42 40 67q0 63 -162 -2l-18 139q109 37 186 37zM242 6l-125 1045h229l62 -762l315 762h242l-531 -1160q-57 -123 -99 -189q-86 -134 -234 -161q-71 -12 -191 -12
l35 192q111 0 153 32t101 157z" />
    <glyph glyph-name="uni1EF8" unicode="&#x1ef8;" horiz-adv-x="968" 
d="M585 1896q81 0 131 -51t64 -62t29 -11q47 0 80 110h141q-45 -160 -94 -219t-137 -59t-148 67q-33 39 -45 48t-32 9t-46 -29q-25 -30 -39 -81h-141q52 158 104 218t133 60zM272 0l90 520l-229 942h254l141 -671l379 671h264l-563 -942l-90 -520h-246z" />
    <glyph glyph-name="uni1EF9" unicode="&#x1ef9;" horiz-adv-x="903" 
d="M712 1358q22 0 38 24t36 86h142q-31 -113 -60 -165q-57 -111 -170 -111q-90 0 -149 68q-33 39 -45 48t-33 9t-45 -30t-39 -81h-141q51 158 103 217t134 59q81 0 131 -52t63 -62t35 -10zM242 6l-125 1045h229l62 -762l315 762h242l-531 -1160q-57 -123 -99 -189
q-86 -134 -234 -161q-71 -12 -191 -12l35 192q111 0 153 32t101 157z" />
    <glyph glyph-name="uni2002" unicode="&#x2002;" 
 />
    <glyph glyph-name="uni2003" unicode="&#x2003;" horiz-adv-x="2048" 
 />
    <glyph glyph-name="uni2004" unicode="&#x2004;" horiz-adv-x="681" 
 />
    <glyph glyph-name="uni2005" unicode="&#x2005;" horiz-adv-x="512" 
 />
    <glyph glyph-name="uni2006" unicode="&#x2006;" horiz-adv-x="342" 
 />
    <glyph glyph-name="uni2007" unicode="&#x2007;" horiz-adv-x="980" 
 />
    <glyph glyph-name="uni2008" unicode="&#x2008;" horiz-adv-x="0" 
 />
    <glyph glyph-name="uni2009" unicode="&#x2009;" horiz-adv-x="409" 
 />
    <glyph glyph-name="uni200A" unicode="&#x200a;" horiz-adv-x="256" 
 />
    <glyph glyph-name="uni2011" unicode="&#x2011;" horiz-adv-x="813" 
d="M152 631l34 203h549l-35 -203h-548z" />
    <glyph glyph-name="figuredash" unicode="&#x2012;" horiz-adv-x="980" 
d="M137 631l35 203h746l-35 -203h-746z" />
    <glyph glyph-name="endash" unicode="&#x2013;" horiz-adv-x="980" 
d="M137 631l35 203h746l-35 -203h-746z" />
    <glyph glyph-name="emdash" unicode="&#x2014;" horiz-adv-x="980" 
d="M25 631l34 203h969l-35 -203h-968z" />
    <glyph glyph-name="afii00208" unicode="&#x2015;" horiz-adv-x="980" 
d="M25 631l34 203h969l-35 -203h-968z" />
    <glyph glyph-name="underscoredbl" unicode="&#x2017;" horiz-adv-x="827" 
d="M-182 -266l22 127h916l-23 -127h-915zM-217 -467l22 127h916l-23 -127h-915z" />
    <glyph glyph-name="quoteleft" unicode="&#x2018;" horiz-adv-x="389" 
d="M512 1462l-150 -516h-243l194 516h199z" />
    <glyph glyph-name="quoteright" unicode="&#x2019;" horiz-adv-x="389" 
d="M119 946l149 516h244l-195 -516h-198z" />
    <glyph glyph-name="quotesinglbase" unicode="&#x201a;" horiz-adv-x="389" 
d="M-96 -272l149 516h244l-195 -516h-198z" />
    <glyph glyph-name="quotedblleft" unicode="&#x201c;" horiz-adv-x="761" 
d="M512 1462l-150 -516h-243l194 516h199zM883 1462l-148 -516h-243l194 516h197z" />
    <glyph glyph-name="quotedblright" unicode="&#x201d;" horiz-adv-x="761" 
d="M492 946l147 516h244l-195 -516h-196zM119 946l149 516h244l-195 -516h-198z" />
    <glyph glyph-name="quotedblbase" unicode="&#x201e;" horiz-adv-x="761" 
d="M276 -272l148 516h244l-195 -516h-197zM-96 -272l149 516h244l-195 -516h-198z" />
    <glyph glyph-name="dagger" unicode="&#x2020;" horiz-adv-x="980" 
d="M424 825h-283l35 201h283l78 436h237l-76 -436h283l-37 -201h-282l-201 -1138h-238z" />
    <glyph glyph-name="daggerdbl" unicode="&#x2021;" horiz-adv-x="980" 
d="M426 825h-283l35 201h283l76 436h239l-78 -436h283l-35 -201h-282l-48 -268h258l-34 -201h-258l-119 -669h-240l119 669h-258l35 201h260z" />
    <glyph glyph-name="bullet" unicode="&#x2022;" horiz-adv-x="980" 
d="M493 1083q155 0 260 -102t105 -254t-105 -254t-262 -102t-262 102q-104 101 -104 253t106 255q107 102 262 102z" />
    <glyph glyph-name="ellipsis" unicode="&#x2026;" horiz-adv-x="1546" 
d="M1073 0l45 250h246l-45 -250h-246zM559 0l43 250h246l-43 -250h-246zM43 0l43 250h246l-43 -250h-246z" />
    <glyph glyph-name="perthousand" unicode="&#x2030;" horiz-adv-x="2418" 
d="M449 0l655 1462h217l-655 -1462h-217zM2150 541q0 92 -88 92q-57 0 -88 -40t-47 -138l-26 -146q-8 -57 -9 -88q0 -92 88 -92q56 0 88 41t48 139l24 140q10 47 10 92zM2355 565q0 -53 -12 -123l-27 -147q-30 -166 -106 -240t-236 -73q-285 0 -284 219q0 61 14 137l27 145
q27 158 103 228t234 69q287 0 287 -215zM1341 633q-59 0 -90 -40t-47 -138l-24 -146q-10 -57 -11 -88q0 -92 88 -92q57 0 89 41q31 41 49 139l24 140q10 57 11 92q0 92 -89 92zM981 338l27 145q27 162 104 230q78 68 236 67q287 0 286 -215q0 -47 -14 -123l-27 -147
q-27 -166 -105 -240t-237 -73q-285 0 -284 221q0 43 14 135zM600 1243q0 92 -88 92q-59 0 -90 -40t-47 -140l-25 -145q-10 -47 -10 -88q0 -92 88 -93q57 -1 88 41t49 140l25 141q10 61 10 92zM518 1483q287 0 287 -215q0 -41 -14 -125l-27 -146q-28 -167 -104 -241t-240 -74
q-283 0 -283 221q1 41 15 137l26 146q27 154 96 221q84 76 244 76z" />
    <glyph glyph-name="guilsinglleft" unicode="&#x2039;" horiz-adv-x="483" 
d="M303 586l105 -258l-162 -80l-191 356l318 357l125 -117z" />
    <glyph glyph-name="guilsinglright" unicode="&#x203a;" horiz-adv-x="483" 
d="M207 621l-105 258l162 82l191 -357l-318 -356l-125 117z" />
    <glyph glyph-name="uni203E" unicode="&#x203e;" horiz-adv-x="827" 
d="M156 1653l28 166h916l-29 -166h-915z" />
    <glyph glyph-name="fraction" unicode="&#x2044;" horiz-adv-x="325" 
d="M-211 0l657 1462h216l-656 -1462h-217z" />
    <glyph glyph-name="zerosuperior" unicode="&#x2070;" horiz-adv-x="669" 
d="M514 1536q-51 0 -80 -42t-45 -142l-45 -246q-12 -76 -12 -98q0 -86 71 -86q51 0 80 42t45 142l45 246q12 74 13 102q0 82 -72 82zM770 1466q0 -49 -14 -129l-45 -254q-29 -165 -102 -235t-216 -70q-246 0 -246 211q1 57 15 131l45 254q29 166 101 236q73 70 207 70
q135 0 195 -53q60 -52 60 -161z" />
    <glyph glyph-name="foursuperior" unicode="&#x2074;" horiz-adv-x="667" 
d="M434 791l27 149h-342l18 109l365 618h192l-342 -582h133l33 181h162l-33 -181h74l-25 -147h-73l-27 -147h-162z" />
    <glyph glyph-name="fivesuperior" unicode="&#x2075;" horiz-adv-x="643" 
d="M131 965q0 6 4 67l178 12q-2 -20 -2 -34q0 -84 75 -84t106 80q22 68 22 138t-68 70q-57 0 -104 -51l-137 25l119 479h452l-26 -147h-293l-45 -181q49 14 88 15q100 0 153 -48q90 -81 32 -300q-22 -84 -52 -125q-74 -102 -250 -103q-252 0 -252 187z" />
    <glyph glyph-name="sixsuperior" unicode="&#x2076;" horiz-adv-x="667" 
d="M459 1221q-67 0 -97 -70t-30 -151t71 -80q68 0 98 70t30 151q0 80 -72 80zM547 1354q76 0 123 -49t47 -126t-22 -162t-50 -130q-74 -109 -254 -109q-246 0 -246 197q0 121 50 229q20 47 81 131l248 332h217l-239 -315h14q16 2 31 2z" />
    <glyph glyph-name="sevensuperior" unicode="&#x2077;" horiz-adv-x="587" 
d="M117 791l383 727h-299l24 149h500l-18 -108l-379 -768h-211z" />
    <glyph glyph-name="eightsuperior" unicode="&#x2078;" horiz-adv-x="667" 
d="M456 1178q-136 0 -134 -189q0 -69 76 -69t105 55q30 55 29 131q1 72 -76 72zM516 1546q-119 0 -119 -176q0 -66 71 -66t93 50q29 57 29 127q0 65 -74 65zM229 1372q0 131 60 211q70 96 237 96q234 0 234 -174t-103 -252q59 -45 60 -133q0 -160 -74 -251t-252 -91
q-256 0 -256 189q0 221 135 293q-41 45 -41 112z" />
    <glyph glyph-name="ninesuperior" unicode="&#x2079;" horiz-adv-x="667" 
d="M588 1462q0 76 -70 76t-94 -53q-33 -66 -33 -143t74 -76q63 0 92 55q31 65 31 141zM391 1135q-88 0 -137 45t-49 123q-1 77 21 157t53 123q74 96 247 96q248 0 248 -184q0 -113 -41 -213q-18 -47 -76 -127l-266 -364h-217l254 346q-18 -2 -37 -2z" />
    <glyph glyph-name="zeroinferior" unicode="&#x2080;" horiz-adv-x="669" 
d="M338 541q-51 0 -80 -42t-45 -143l-43 -245q-14 -76 -14 -99q0 -86 71 -86q51 0 80 42t45 143l45 245q12 70 13 103q0 82 -72 82zM339 684q135 0 195 -52t60 -161q0 -51 -14 -129l-45 -254q-29 -166 -102 -236t-216 -69q-246 0 -246 211q1 57 15 131l45 254
q29 165 101 235t207 70z" />
    <glyph glyph-name="oneinferior" unicode="&#x2081;" horiz-adv-x="575" 
d="M84 -205l123 688l-137 -51l-41 135l270 105h129l-154 -877h-190z" />
    <glyph glyph-name="twoinferior" unicode="&#x2082;" horiz-adv-x="643" 
d="M383 469q0 68 -64 68q-82 0 -116 -127l-172 6q31 141 102 205q72 63 201 63q244 0 244 -199q0 -141 -118 -278q-26 -29 -124 -125l-137 -137h282l-26 -150h-531l21 123l280 289q158 164 158 262z" />
    <glyph glyph-name="threeinferior" unicode="&#x2083;" horiz-adv-x="643" 
d="M248 319q59 0 97 39t38 101q0 78 -72 78q-80 0 -108 -105l-170 8q31 129 100 187q70 57 195 57q246 0 245 -199q0 -162 -118 -227q69 -61 69 -177t-65 -198q-76 -100 -252 -100q-264 0 -264 186q0 8 4 66l178 12q-2 -14 -2 -29q0 -88 86 -88q57 0 92 43t35 115
q0 102 -113 102h-80l23 129h82z" />
    <glyph glyph-name="fourinferior" unicode="&#x2084;" horiz-adv-x="667" 
d="M258 -205l27 150h-342l18 108l365 619h192l-342 -582h133l33 180h162l-33 -180h74l-25 -147h-74l-26 -148h-162z" />
    <glyph glyph-name="fiveinferior" unicode="&#x2085;" horiz-adv-x="643" 
d="M324 358q100 0 154 -47t54 -132t-22 -169t-51 -125q-78 -102 -252 -102q-252 0 -252 186q0 20 6 68l176 12q-2 -16 -2 -33q0 -86 76 -86t104 80q25 63 25 136t-68 73q-61 0 -106 -51l-137 25l118 479h453l-27 -148h-292l-45 -180q45 14 88 14z" />
    <glyph glyph-name="sixinferior" unicode="&#x2086;" horiz-adv-x="667" 
d="M283 225q-66 1 -97 -69q-30 -70 -30 -151t73 -81q66 0 96 71t30 151t-72 79zM371 358q76 0 123 -49t47 -126t-22 -161t-50 -131q-74 -109 -254 -108q-246 0 -246 197q0 125 49 229q23 51 82 131l248 332h217l-239 -316h14q14 2 31 2z" />
    <glyph glyph-name="seveninferior" unicode="&#x2087;" horiz-adv-x="587" 
d="M-55 -205l383 727h-299l24 150h500l-18 -109l-379 -768h-211z" />
    <glyph glyph-name="eightinferior" unicode="&#x2088;" horiz-adv-x="667" 
d="M279 182q-77 0 -105 -54t-29 -134q0 -70 76 -70t106 52t29 137q0 69 -77 69zM340 551q-119 0 -119 -176q0 -66 71 -66t93 49q29 53 29 127q0 66 -74 66zM53 377q0 131 60 211q70 96 237 96q233 0 234 -180q0 -168 -103 -246q59 -45 60 -133q0 -158 -73 -250t-253 -92
q-256 0 -256 188q0 219 135 293q-41 41 -41 113z" />
    <glyph glyph-name="nineinferior" unicode="&#x2089;" horiz-adv-x="667" 
d="M289 270q63 0 93 58t30 137q0 78 -70 78t-94 -54q-33 -67 -33 -143t74 -76zM215 139q-88 0 -137 45t-49 124t21 159q22 80 52 121q74 96 248 96q248 0 248 -184q0 -104 -30 -182t-87 -158l-266 -365h-217l254 346q-18 -2 -37 -2z" />
    <glyph glyph-name="franc" unicode="&#x20a3;" horiz-adv-x="1400" 
d="M1306 934q74 0 160 -53l-131 -189q-47 53 -96 53q-78 0 -128 -88t-85 -282l-68 -375h-225l162 913h172l12 -98q63 71 109 95q44 24 118 24zM51 0l258 1462h666l-37 -202h-426l-76 -431h342l-37 -202h-340l-110 -627h-240z" />
    <glyph glyph-name="lira" unicode="&#x20a4;" horiz-adv-x="983" 
d="M219 1001q0 238 111 360t323 122q369 0 369 -353q0 -20 -2 -36l-219 -43v20q0 113 -35 164t-116 51t-133 -73t-52 -168t22 -175h336l-24 -135h-273q8 -38 9 -114h245l-24 -136h-244l-2 -10q-20 -154 -148 -272h527l-35 -203h-856l31 174q94 27 165 113t91 198h-219
l24 136h197q-8 45 -25 114h-151l22 135h96l-4 33q-6 63 -6 98z" />
    <glyph glyph-name="peseta" unicode="&#x20a7;" horiz-adv-x="980" 
d="M461 928l-39 -226h84q96 -4 153 50t91 176h-289zM772 1108q0 88 -38 126t-126 38h-86l-39 -211h287q2 23 2 47zM602 1462q244 0 330 -100q78 -88 78 -248q0 -29 -2 -53h120l-24 -133h-115q-49 -222 -169 -322t-331 -96h-96l-90 -510h-240l164 928h-147l22 133h148l72 401
h280z" />
    <glyph glyph-name="uni20AB" unicode="&#x20ab;" horiz-adv-x="983" 
d="M387 174q158 0 201 252l37 199q10 72 10 108q0 147 -129 148q-78 -1 -124 -59t-69 -187l-34 -191q-12 -74 -13 -129q0 -141 121 -141zM467 1073q76 0 120 -14t103 -60l29 162h-254l29 162h254l24 139h232l-23 -139h131l-29 -162h-131l-204 -1161h-181l-2 74
q-88 -95 -237 -95q-150 1 -224 71t-73 220q0 86 20 203l35 201q39 215 127 307t254 92zM-84 -371l29 164h825l-29 -164h-825z" />
    <glyph glyph-name="Euro" unicode="&#x20ac;" horiz-adv-x="983" 
d="M692 1481q172 0 264 -79t93 -226q0 -49 -11 -115l-227 -8q6 49 6 71q0 156 -131 156q-94 0 -146 -80t-87 -268l-11 -62h447l-76 -135h-395l-21 -121h351l-74 -135h-299q-12 -90 -13 -141q0 -162 148 -162q162 0 207 182l223 -14q-76 -369 -450 -369t-375 342q0 63 14 162
h-156l74 135h105l20 121h-154l76 135h103l18 109q27 151 59 231t88 142q121 129 330 129z" />
    <glyph glyph-name="uni20B4" unicode="&#x20b4;" horiz-adv-x="983" 
d="M752 1159q0 131 -129 131q-117 0 -181 -131l-194 49q57 141 151 208t248 67t242 -87t88 -262t-111 -294l111 -35l-59 -129l-164 53q-66 -39 -211 -94l319 -103l-59 -129l-441 140q-86 -91 -86 -231t159 -140t233 137l194 -47q-58 -145 -164 -214t-278 -68
q-371 0 -371 311q0 193 94 321l-108 35l59 129l154 -49q63 37 102 51l105 43l-305 99l57 129l428 -136q117 94 117 246z" />
    <glyph glyph-name="uni2101" unicode="&#x2101;" horiz-adv-x="1636" 
d="M1224 133q68 0 101 53q27 39 27 78q0 40 -22 58t-116 49q-180 59 -180 221q0 127 79 212t235 85q205 0 260 -144l-160 -86q-35 84 -111 84q-49 -1 -80 -33t-31 -78t28 -69q26 -23 114 -53t132 -76q42 -47 42 -135q0 -151 -84 -231t-239 -80q-249 -1 -306 157l164 86
q18 -53 49 -75q30 -22 98 -23zM545 874l-45 363l-172 -363h217zM760 686l348 776h190l-655 -1462h-190l262 586h-135l-19 162h-295l-76 -162h-200l469 876h157z" />
    <glyph glyph-name="afii61248" unicode="&#x2105;" horiz-adv-x="1652" 
d="M420 0l657 1462h189l-656 -1462h-190zM1407 559q0 113 -111 113q-72 0 -112 -49t-62 -162l-20 -115q-10 -76 -10 -98q0 -111 110 -111q72 0 114 50t62 159l19 113q10 51 10 100zM920 365l24 135q31 172 115 248q85 76 239 76t225 -61q71 -60 70 -185q0 -49 -12 -136
l-25 -135q-30 -170 -114 -246q-84 -75 -240 -75t-226 60q-71 60 -71 185q1 62 15 134zM406 637q-131 0 -201 69t-70 197q0 53 15 144l12 67q35 188 119 276t233 87q201 0 266 -166l-151 -74q-35 88 -109 88t-114 -57t-64 -185l-12 -63q-10 -55 -11 -113q0 -119 105 -119
q88 0 151 86l132 -83q-109 -154 -301 -154z" />
    <glyph glyph-name="afii61289" unicode="&#x2113;" horiz-adv-x="952" 
d="M487 748q106 131 167 263q60 132 61 234q1 39 -13 63t-36 23q-58 0 -98 -132t-81 -451zM229 283v104q-84 -109 -112 -108q-14 0 -29 24q-14 25 -14 53t11 42t55 62t100 126q49 367 122 596q102 311 289 311q89 0 143 -63t54 -164q0 -319 -377 -697q-35 -281 -35 -365
t43 -85q23 0 37 17t41 77q29 59 61 59q45 0 46 -55q0 -98 -76 -180t-166 -82q-117 0 -164 111q-29 70 -29 217z" />
    <glyph glyph-name="afii61352" unicode="&#x2116;" horiz-adv-x="2072" 
d="M1176 0l32 186h707l-33 -186h-706zM1812 944q0 109 -100 109q-66 -1 -104 -51t-58 -164l-16 -86q-8 -49 -8 -109q0 -109 100 -108q66 0 103 50q36 50 59 167l14 86q10 51 10 106zM1718 1241q324 0 324 -274q0 -55 -17 -148l-18 -112q-33 -193 -124 -277t-263 -84
q-324 0 -324 272q1 60 15 150l20 113q33 193 124 277t263 83zM57 0l258 1462h242l303 -1007l178 1007h234l-258 -1462h-236l-307 1012l-178 -1012h-236z" />
    <glyph glyph-name="trademark" unicode="&#x2122;" horiz-adv-x="1556" 
d="M715 586l153 876h176l121 -477l291 477h176l-155 -876h-179l95 524l-199 -344h-131l-78 344l-92 -524h-178zM233 586l129 725h-219l27 151h623l-25 -151h-217l-129 -725h-189z" />
    <glyph glyph-name="uni2126" unicode="&#x2126;" horiz-adv-x="1179" 
d="M133 530q0 88 25 218l43 249q27 141 59 217q33 76 94 138q129 131 377 131q420 0 420 -357q0 -68 -23 -202l-45 -248q-55 -346 -278 -440l-10 -58h221l-31 -178h-412l66 371q82 23 131 105t76 241l39 221q20 125 20 168q0 176 -188 176q-121 0 -185 -77t-96 -267
l-39 -221q-23 -123 -22 -172q0 -139 108 -174l-65 -371h-412l31 178h221l12 68q-137 86 -137 284z" />
    <glyph glyph-name="estimated" unicode="&#x212e;" horiz-adv-x="1056" 
d="M754 784v199q-49 236 -219 236q-81 1 -131 -53t-85 -181v-201h435zM977 633h-658v-238q25 -100 52 -151q53 -96 170 -97q180 0 239 236h166q-37 -168 -90 -244q-120 -162 -326 -162q-206 1 -328 185t-122 513t123 521t334 193q135 0 237 -83q102 -84 152 -232t51 -441z
" />
    <glyph glyph-name="onethird" unicode="&#x2153;" horiz-adv-x="1636" 
d="M348 0l658 1462h215l-656 -1462h-217zM1206 524q59 0 97 39q37 39 36 101q0 78 -71 77q-76 0 -109 -104l-168 8q27 129 96 186q70 57 197 58q246 0 246 -199q0 -162 -117 -227q70 -61 70 -177t-66 -198q-76 -100 -252 -100q-264 0 -264 186q0 35 4 66l176 12v-31
q0 -86 86 -86q57 0 93 42q34 41 34 105t-27 89q-28 25 -87 24h-80l22 129h84zM272 586l123 688l-137 -51l-41 135l270 104h129l-153 -876h-191z" />
    <glyph glyph-name="twothirds" unicode="&#x2154;" horiz-adv-x="1609" 
d="M418 0l657 1462h217l-657 -1462h-217zM1262 524q59 0 97 39t38 101q0 78 -72 77q-78 0 -111 -104l-167 8q29 129 98 186q70 57 196 58q246 0 246 -199q0 -160 -119 -227q70 -61 70 -177t-65 -198q-76 -100 -252 -100q-264 0 -265 186q0 35 5 66l176 12v-31q0 -86 86 -86
q57 0 92 42t35 114q0 104 -113 104h-80l23 129h82zM719 1276q1 -114 -53 -192t-189 -212l-137 -137h283l-27 -149h-530l22 123l279 288q158 160 157 265q0 66 -63 65q-82 0 -117 -127l-172 6q31 141 103 205q73 63 202 64q242 0 242 -199z" />
    <glyph glyph-name="uni2155" unicode="&#x2155;" horiz-adv-x="1636" 
d="M342 0l655 1462h217l-657 -1462h-215zM1270 563q100 0 153 -48t53 -132t-21 -168q-22 -84 -52 -125q-78 -102 -252 -102q-252 0 -252 184q0 25 6 70l176 12q-2 -16 -2 -33q0 -86 77 -86t104 80q24 63 24 136t-67 73q-59 0 -107 -53l-137 26l119 480h454l-26 -148h-293
l-47 -180q51 14 90 14zM270 586l123 688l-137 -51l-41 135l270 104h129l-153 -876h-191z" />
    <glyph glyph-name="uni2156" unicode="&#x2156;" horiz-adv-x="1609" 
d="M422 0l657 1462h215l-655 -1462h-217zM1323 563q99 0 153 -48t54 -132t-22 -168t-52 -125q-78 -102 -252 -102q-252 0 -252 186q0 23 6 68l177 12q-2 -16 -2 -33q1 -86 77 -86t103 80q25 63 25 136t-68 73q-59 0 -107 -53l-137 26l119 480h452l-24 -148h-293l-47 -180
q43 14 90 14zM717 1276q1 -114 -53 -192t-189 -212l-137 -137h283l-27 -149h-531l23 123l279 288q158 160 157 265q0 66 -63 65q-82 0 -117 -127l-172 6q31 141 103 205q73 63 202 64q242 0 242 -199z" />
    <glyph glyph-name="uni2157" unicode="&#x2157;" horiz-adv-x="1609" 
d="M426 0l657 1462h215l-655 -1462h-217zM1323 563q101 0 155 -47t54 -132t-22 -169t-52 -125q-78 -102 -252 -102q-252 0 -252 186q0 23 7 68l176 12q-2 -16 -2 -33q-1 -86 75 -86t105 80q25 63 25 136t-68 73q-59 0 -107 -53l-137 26l119 480h452l-26 -148h-293l-45 -180
q51 14 88 14zM393 1110q59 0 97 39t38 100q0 78 -71 78q-79 0 -109 -104l-170 8q31 129 101 186t194 58q246 0 246 -199q0 -160 -119 -227q70 -61 70 -177t-66 -198q-76 -100 -252 -101q-264 0 -264 187q0 8 4 65l178 13q-2 -14 -2 -31q0 -86 86 -86q57 0 92 42t35 114
q0 104 -112 104h-80l22 129h82z" />
    <glyph glyph-name="uni2158" unicode="&#x2158;" horiz-adv-x="1636" 
d="M428 0l655 1462h217l-657 -1462h-215zM1329 563q99 0 153 -48t54 -132t-22 -168t-52 -125q-78 -102 -252 -102q-252 0 -252 184q0 20 7 70l176 12q-2 -16 -2 -33q0 -86 76 -86t104 80q25 63 25 136t-68 73q-59 0 -107 -53l-137 26l119 480h453l-25 -148h-293l-47 -180
q51 14 90 14zM397 586l27 149h-342l18 109l365 618h192l-342 -581h134l32 180h162l-33 -180h74l-25 -148h-73l-27 -147h-162z" />
    <glyph glyph-name="uni2159" unicode="&#x2159;" horiz-adv-x="1660" 
d="M365 0l657 1462h217l-657 -1462h-217zM1212 430q-66 0 -96 -70t-31 -150q0 -81 70 -81q69 0 99 71q30 70 30 150t-72 80zM1300 563q76 0 123 -49t47 -126t-22 -162t-49 -130q-72 -109 -254 -108q-246 0 -246 196q0 125 49 230q20 45 82 131l248 332h217l-240 -316h15
q14 2 30 2zM279 586l122 688l-137 -51l-41 135l271 104h129l-154 -876h-190z" />
    <glyph glyph-name="uni215A" unicode="&#x215a;" horiz-adv-x="1636" 
d="M451 0l657 1462h215l-655 -1462h-217zM1274 430q-66 0 -94 -61q-35 -78 -35 -159t74 -81q63 0 94 64q33 77 33 157t-72 80zM1362 563q76 0 123 -49t47 -126t-22 -162t-50 -130q-74 -109 -254 -108q-248 0 -248 196q0 125 50 230q20 45 84 131l247 332h217l-239 -316h14
q14 2 31 2zM475 1149q101 0 155 -47t54 -132t-22 -169t-52 -125q-78 -102 -252 -103q-252 0 -252 187q0 23 7 67l176 13q-2 -18 -2 -35q0 -84 76 -84t104 80q25 63 25 136t-66 73t-109 -54l-137 27l119 479h453l-27 -147h-293l-45 -180q51 14 88 14z" />
    <glyph glyph-name="oneeighth" unicode="&#x215b;" horiz-adv-x="1660" 
d="M332 0l655 1462h217l-657 -1462h-215zM1217 387q-134 0 -134 -188q0 -70 76 -70t106 55t29 133q0 70 -77 70zM1278 756q-119 0 -119 -176q0 -66 71 -66t93 49q29 53 29 127q0 66 -74 66zM991 582q0 127 64 217t233 90q234 0 234 -174t-103 -252q59 -45 60 -133
q0 -162 -74 -252t-252 -90q-256 0 -256 188q0 102 35 180t98 113q-39 41 -39 113zM268 586l123 688l-137 -51l-41 135l270 104h129l-153 -876h-191z" />
    <glyph glyph-name="threeeighths" unicode="&#x215c;" horiz-adv-x="1636" 
d="M414 0l657 1462h217l-657 -1462h-217zM1215 129q75 0 105 55t30 129t-77 74q-136 0 -134 -188q0 -70 76 -70zM1333 756q-119 0 -119 -176q0 -66 71 -66t93 49q29 57 29 125t-74 68zM1343 889q233 0 233 -174t-101 -252q59 -45 59 -133q0 -162 -72 -248q-74 -94 -252 -94
q-258 0 -258 188q0 219 135 293q-41 41 -40 113q1 127 65 217t231 90zM391 1110q59 0 97 39t38 100q0 78 -71 78q-79 0 -109 -104l-170 8q31 129 100 186q70 57 195 58q246 0 246 -199q0 -160 -119 -227q70 -61 70 -177t-66 -198q-76 -100 -252 -101q-264 0 -264 187
q0 8 4 65l178 13q-2 -14 -2 -31q0 -86 86 -86q57 0 92 42t35 114q0 104 -112 104h-80l22 129h82z" />
    <glyph glyph-name="fiveeighths" unicode="&#x215d;" horiz-adv-x="1636" 
d="M414 0l655 1462h217l-657 -1462h-215zM1350 317q0 70 -77 70q-136 0 -134 -188q0 -70 76 -70q135 0 135 188zM1333 756q-119 0 -119 -176q0 -66 71 -66t93 49q29 57 29 125t-74 68zM1343 889q233 0 233 -174t-101 -252q59 -45 59 -133q0 -162 -74 -252t-252 -90
q-256 0 -256 188q0 219 135 293q-41 45 -40 113q1 127 65 217t231 90zM467 1149q101 0 155 -47t54 -132t-22 -169t-52 -125q-78 -102 -252 -103q-252 0 -252 187q0 23 6 67l177 13q-2 -18 -2 -35q-1 -84 75 -84t105 80q25 63 25 136t-66 73q-65 0 -109 -54l-137 27l119 479
h452l-26 -147h-293l-45 -180q51 14 88 14z" />
    <glyph glyph-name="seveneighths" unicode="&#x215e;" horiz-adv-x="1660" 
d="M340 0l657 1462h215l-655 -1462h-217zM1224 387q-77 0 -106 -56t-28 -132q0 -70 76 -70t105 55q30 55 29 131q1 72 -76 72zM1284 756q-119 0 -119 -176q0 -66 71 -66t93 49q29 57 29 125t-74 68zM997 582q0 127 64 217t233 90q234 0 234 -176t-103 -250q59 -45 60 -133
q0 -160 -74 -251t-252 -91q-256 0 -256 188q0 219 133 293q-39 43 -39 113zM143 586l389 727h-303l27 149h504l-19 -108l-387 -768h-211z" />
    <glyph glyph-name="arrowleft" unicode="&#x2190;" horiz-adv-x="1638" 
d="M1507 631h-1087l352 -352l-143 -144l-535 553v88l535 555l143 -145l-352 -352h1087v-203z" />
    <glyph glyph-name="arrowup" unicode="&#x2191;" horiz-adv-x="1638" 
d="M698 0v1145l-352 -352l-143 143l553 537h88l553 -537l-144 -143l-352 352v-1145h-203z" />
    <glyph glyph-name="arrowright" unicode="&#x2192;" horiz-adv-x="1638" 
d="M131 631v203h1088l-353 352l144 145l534 -555v-88l-534 -553l-144 144l353 352h-1088z" />
    <glyph glyph-name="arrowdown" unicode="&#x2193;" horiz-adv-x="1638" 
d="M698 1462h203v-1145l352 353l144 -144l-553 -536h-88l-553 536l143 144l352 -353v1145z" />
    <glyph glyph-name="arrowboth" unicode="&#x2194;" horiz-adv-x="1638" 
d="M1270 631h-903l290 -291l-143 -143l-473 491v88l473 492l143 -144l-290 -290h903l-291 290l143 144l473 -492v-88l-473 -491l-143 143z" />
    <glyph glyph-name="arrowupdn" unicode="&#x2195;" horiz-adv-x="1638" 
d="M700 268v926l-290 -291l-144 144l492 473h88l491 -473l-143 -144l-291 291v-926l291 291l143 -143l-491 -473h-88l-492 473l144 143z" />
    <glyph glyph-name="uni2196" unicode="&#x2196;" horiz-adv-x="1638" 
d="M489 436h-202v768l78 78h768v-203h-500l774 -774l-141 -143l-777 774v-500z" />
    <glyph glyph-name="uni2197" unicode="&#x2197;" horiz-adv-x="1638" 
d="M506 1079v203h768l78 -78v-768h-203v500l-776 -774l-142 143l775 774h-500z" />
    <glyph glyph-name="uni2198" unicode="&#x2198;" horiz-adv-x="1638" 
d="M1151 1008h203v-768l-78 -78h-768v203h500l-775 774l142 145l776 -776v500z" />
    <glyph glyph-name="uni2199" unicode="&#x2199;" horiz-adv-x="1638" 
d="M1133 365v-203h-768l-78 78v768h202v-500l777 776l141 -145l-774 -774h500z" />
    <glyph glyph-name="partialdiff" unicode="&#x2202;" horiz-adv-x="980" 
d="M678 723q0 135 -129 135q-88 0 -136 -61t-73 -201l-31 -172q-12 -72 -12 -127q0 -135 129 -135q88 0 136 62t73 200l31 172q12 82 12 127zM520 1038q96 0 152 -41q-29 145 -101 223t-200 107l55 154q246 -39 354 -176q133 -166 133 -463q0 -123 -22 -252l-35 -197
q-41 -225 -139 -319t-297 -94q-352 0 -352 286q0 58 16 160l35 201q39 213 135 312t266 99z" />
    <glyph glyph-name="emptyset" unicode="&#x2205;" horiz-adv-x="980" 
d="M500 414q116 0 190 91t74 235t-86 245l-246 -561q35 -10 68 -10zM473 1067q-115 0 -189 -91t-75 -241q0 -150 100 -256l252 576q-53 12 -88 12zM489 264q-59 0 -116 17l-158 -367l-127 49l160 369q-201 135 -201 409q0 207 121 341t309 135q61 -1 141 -21l142 322
l125 -48l-144 -331q184 -137 185 -398q0 -211 -122 -344t-315 -133z" />
    <glyph glyph-name="Delta" unicode="&#x2206;" horiz-adv-x="980" 
d="M686 195l-84 931l-412 -931h496zM975 0h-1149l723 1462h213z" />
    <glyph glyph-name="product" unicode="&#x220f;" horiz-adv-x="1136" 
d="M-27 -422l332 1884h856l-334 -1884h-235l295 1675h-381l-297 -1675h-236z" />
    <glyph glyph-name="summation" unicode="&#x2211;" horiz-adv-x="1058" 
d="M-63 -422l28 166l498 827l-203 725l29 166h831l-35 -202h-557l197 -691l-457 -788h582l-37 -203h-876z" />
    <glyph glyph-name="minus" unicode="&#x2212;" horiz-adv-x="980" 
d="M98 639l33 186h823l-32 -186h-824z" />
    <glyph glyph-name="uni2215" unicode="&#x2215;" horiz-adv-x="325" 
d="M-211 0l657 1462h216l-656 -1462h-217z" />
    <glyph glyph-name="uni2218" unicode="&#x2218;" horiz-adv-x="980" 
d="M494 979q-108 0 -182 -72q-74 -73 -72 -181q0 -108 72 -180t178 -71q108 0 180 72q72 73 72 181t-71 180q-69 72 -177 71zM493 1098q161 0 269 -106t108 -265q0 -158 -108 -264q-108 -107 -272 -107q-162 0 -271 106t-109 265t112 265q110 106 271 106z" />
    <glyph glyph-name="uni2219" unicode="&#x2219;" horiz-adv-x="516" 
d="M150 608l43 248h245l-43 -248h-245z" />
    <glyph glyph-name="radical" unicode="&#x221a;" horiz-adv-x="980" 
d="M238 0l-82 582h-123l35 198h290l41 -463l584 1502h522l-28 -166h-324l-674 -1653h-241z" />
    <glyph glyph-name="infinity" unicode="&#x221e;" horiz-adv-x="1449" 
d="M1040 561q60 0 101 47t41 123t-41 122t-99 46t-105 -33q-46 -33 -110 -116l-16 -19l18 -22q76 -92 114 -120q37 -28 97 -28zM408 899q-58 0 -98 -46t-40 -122t40 -123t107 -47t126 57q18 16 78 91l18 22l-16 19q-66 84 -111 116q-46 32 -104 33zM401 393q-145 0 -229 90
t-84 247t84 247t228 90t243 -92q23 -18 82 -103l16 25q66 92 137 131t171 39q145 0 229 -90t84 -247t-84 -247t-228 -90t-245 92q-33 33 -80 103q-12 -16 -18 -27q-63 -90 -135 -129t-171 -39z" />
    <glyph glyph-name="integral" unicode="&#x222b;" horiz-adv-x="874" 
d="M340 236v876q0 258 27 348q47 162 227 162q76 0 176 -27l-41 -182q-47 20 -76 21q-57 0 -75 -60q-12 -37 -13 -196v-881q0 -262 -28 -348q-47 -162 -228 -162q-80 0 -174 27l41 182q41 -20 76 -21q57 0 76 58q12 37 12 203z" />
    <glyph glyph-name="similar" unicode="&#x223c;" horiz-adv-x="980" 
d="M383 893q90 0 177 -70t130 -69q68 0 133 129l127 -41q-59 -138 -129 -202t-162 -65q-51 -1 -86 17t-100 70t-106 53q-73 0 -136 -137l-133 32q59 154 127 218t158 65z" />
    <glyph glyph-name="uni2243" unicode="&#x2243;" horiz-adv-x="980" 
d="M725 936q70 0 133 127l127 -41q-59 -136 -129 -200t-162 -64q-51 0 -85 16t-100 70q-67 54 -107 53q-40 1 -72 -31t-66 -106l-131 31q59 153 127 219t166 65q47 0 82 -14q34 -13 104 -69t113 -56zM100 471l31 182h764l-31 -182h-764z" />
    <glyph glyph-name="approxequal" unicode="&#x2248;" horiz-adv-x="980" 
d="M723 936q68 0 135 127l125 -41q-59 -140 -128 -202t-163 -62q-51 0 -85 16t-101 70q-66 54 -106 53q-40 1 -72 -31t-64 -106l-133 31q59 153 127 219t158 66t177 -70t130 -70zM352 711q90 0 178 -69t129 -69q68 0 134 127l127 -41q-61 -139 -130 -201t-161 -63
q-51 1 -85 17t-118 82q-53 39 -90 38q-72 0 -135 -135l-133 31q57 150 126 216q68 66 158 67z" />
    <glyph glyph-name="notequal" unicode="&#x2260;" horiz-adv-x="980" 
d="M100 471l31 182h248l96 162h-313l31 178h387l141 242l160 -72l-97 -170h172l-32 -178h-246l-96 -162h313l-31 -182h-389l-139 -242l-160 74l96 168h-172z" />
    <glyph glyph-name="lessequal" unicode="&#x2264;" horiz-adv-x="980" 
d="M23 25l32 186h711l-33 -186h-710zM391 754l430 -230l-37 -207l-649 377l23 137l782 377l-39 -223z" />
    <glyph glyph-name="greaterequal" unicode="&#x2265;" horiz-adv-x="980" 
d="M72 25l32 186h711l-33 -186h-710zM674 770l-430 231l37 207l649 -377l-25 -137l-782 -377l39 224z" />
    <glyph glyph-name="dotmath" unicode="&#x22c5;" horiz-adv-x="516" 
d="M150 608l43 248h245l-43 -248h-245z" />
    <glyph glyph-name="filledrect" unicode="&#x25ac;" horiz-adv-x="980" 
d="M160 395v664h663v-664h-663z" />
    <glyph glyph-name="uni25B4" unicode="&#x25b4;" horiz-adv-x="980" 
d="M94 383l398 793l395 -793h-793z" />
    <glyph glyph-name="uni25B8" unicode="&#x25b8;" horiz-adv-x="980" 
d="M186 330v794l793 -397z" />
    <glyph glyph-name="uni25BE" unicode="&#x25be;" horiz-adv-x="980" 
d="M94 1071h793l-395 -792z" />
    <glyph glyph-name="uni25C2" unicode="&#x25c2;" horiz-adv-x="980" 
d="M797 330l-793 397l793 397v-794z" />
    <glyph glyph-name="lozenge" unicode="&#x25ca;" horiz-adv-x="980" 
d="M242 721l250 -410l247 410l-247 407zM-12 721l504 780l501 -780l-501 -782z" />
    <glyph glyph-name="openbullet" unicode="&#x25e6;" horiz-adv-x="980" 
d="M494 979q-108 0 -182 -72q-74 -73 -72 -181q0 -108 72 -180t178 -71q108 0 180 72q72 73 72 181t-71 180q-69 72 -177 71zM493 1098q161 0 269 -106t108 -265q0 -158 -108 -264q-108 -107 -272 -107q-162 0 -271 106t-109 265t112 265q110 106 271 106z" />
    <glyph glyph-name="commaaccent" unicode="&#xf6c3;" 
d="M188 -477l148 344h223l-213 -344h-158z" />
    <glyph glyph-name="Acute" unicode="&#xf6c9;" 
d="M575 1602l199 307h262l-286 -307h-175z" />
    <glyph glyph-name="Caron" unicode="&#xf6ca;" 
d="M719 1739l129 159h229l-291 -296h-168l-186 296h213z" />
    <glyph glyph-name="Dieresis" unicode="&#xf6cb;" 
d="M782 1612l43 243h207l-43 -243h-207zM416 1612l43 243h209l-45 -243h-207z" />
    <glyph glyph-name="Grave" unicode="&#xf6ce;" 
d="M829 1599h-167l-181 310h246z" />
    <glyph glyph-name="Hungarumlaut" unicode="&#xf6cf;" 
d="M750 1602l170 307h235l-244 -307h-161zM453 1602l168 307h237l-244 -307h-161z" />
    <glyph glyph-name="Macron" unicode="&#xf6d0;" 
d="M438 1655l29 170h547l-29 -170h-547z" />
    <glyph glyph-name="zerooldstyle" unicode="&#xf730;" horiz-adv-x="993" 
d="M569 950q-84 0 -127 -62t-71 -231l-35 -192q-20 -117 -21 -166q0 -125 121 -125q84 0 129 64t74 227l33 192q23 129 22 162q0 131 -125 131zM578 1143q354 0 354 -316q0 -66 -23 -198l-39 -213q-40 -233 -144 -335t-300 -101q-348 0 -348 313q-1 70 22 199l37 213
q43 233 137 327q109 111 304 111z" />
    <glyph glyph-name="oneoldstyle" unicode="&#xf731;" horiz-adv-x="665" 
d="M152 0l151 858l-199 -90l-73 182l401 170h164l-199 -1120h-245z" />
    <glyph glyph-name="twooldstyle" unicode="&#xf732;" horiz-adv-x="845" 
d="M592 848q0 100 -115 100q-72 0 -115 -39t-71 -127l-215 27q76 334 413 334q345 1 345 -279q0 -142 -89 -252q-45 -55 -85 -93t-181 -154l-198 -170h442l-35 -195h-764l29 160l377 334q150 132 206 208t56 146z" />
    <glyph glyph-name="threeoldstyle" unicode="&#xf733;" horiz-adv-x="892" 
d="M846 836q0 -275 -225 -390q79 -51 111 -112q32 -60 32 -154t-27 -187t-71 -155q-117 -166 -377 -166q-360 0 -365 314l230 41q2 -84 34 -122t101 -38q117 0 178 106q47 88 47 195q0 180 -201 180h-112l32 193h113q121 0 182 69q68 82 68 210t-107 128q-113 0 -159 -153
l-219 26q74 322 397 322q162 0 250 -80t88 -227z" />
    <glyph glyph-name="fouroldstyle" unicode="&#xf734;" horiz-adv-x="866" 
d="M381 -307l53 307h-516l27 150l553 970h254l-537 -927h254l63 356h213l-61 -356h131l-35 -193h-131l-53 -307h-215z" />
    <glyph glyph-name="fiveoldstyle" unicode="&#xf735;" horiz-adv-x="927" 
d="M500 594q139 0 214 -74q74 -74 74 -201t-32 -260t-76 -204q-117 -182 -377 -183q-174 0 -264 80t-94 234l229 41q0 -160 129 -160q68 0 112 36t77 115q47 123 47 255t-121 133q-90 0 -170 -89l-172 37l186 766h637l-35 -205h-430l-88 -356q82 35 154 35z" />
    <glyph glyph-name="sixoldstyle" unicode="&#xf736;" horiz-adv-x="978" 
d="M537 745q-117 0 -164 -124q-27 -66 -45 -162t-19 -158q0 -131 120 -131t167 137q23 63 40 157t17 150q1 131 -116 131zM897 648q0 -124 -31 -261t-71 -215q-106 -193 -371 -192q-174 0 -266 78t-92 227q0 203 81 393q37 84 123 209l375 543h270l-366 -517q63 10 84 11
q125 0 195 -76t69 -200z" />
    <glyph glyph-name="sevenoldstyle" unicode="&#xf737;" horiz-adv-x="727" 
d="M-106 -307l608 1225h-461l37 202h708l-24 -147l-592 -1280h-276z" />
    <glyph glyph-name="eightoldstyle" unicode="&#xf738;" horiz-adv-x="1001" 
d="M533 659q-130 0 -175 -100q-23 -47 -40 -129t-17 -137q0 -127 141 -127q119 0 166 104q20 45 38 128q17 83 18 139q-1 122 -131 122zM640 1270q-110 0 -153 -88q-16 -41 -31 -118t-16 -124q0 -109 113 -109t149 99q48 116 48 228t-110 112zM215 982q0 140 64 275
q94 193 354 193q342 0 342 -285q0 -299 -187 -403q113 -78 113 -236q0 -102 -29 -213t-73 -174q-106 -160 -359 -159q-381 0 -381 305q0 109 31 217t76 166q47 57 129 96q-80 78 -80 218z" />
    <glyph glyph-name="nineoldstyle" unicode="&#xf739;" horiz-adv-x="976" 
d="M552 952q-120 0 -167 -137q-57 -164 -57 -302t121 -138q113 0 159 125q27 68 45 164t19 157q0 131 -120 131zM346 197q-122 -1 -192 75t-70 201t31 262t71 215q50 90 148 142t223 51q174 0 266 -79t92 -228q0 -201 -81 -392q-29 -72 -125 -211l-375 -548h-271l367 524
q-53 -12 -84 -12z" />
    <glyph glyph-name="Dbreve" horiz-adv-x="1187" 
d="M614 1853q0 -98 127 -98q76 0 114 31t63 112h149q-25 -174 -99 -244t-231 -69q-276 0 -276 203q0 36 10 110h145q-2 -35 -2 -45zM907 1107q0 157 -225 157h-154l-188 -1065h154q152 -3 220 69t103 264l72 400q18 100 18 175zM702 1462q229 0 328 -71q125 -94 125 -275
q0 -72 -22 -190l-80 -461q-35 -245 -167 -357t-376 -108h-451l258 1462h385z" />
    <glyph glyph-name="ahungarumlaut" horiz-adv-x="956" 
d="M647 1188l170 309h236l-244 -309h-162zM350 1188l168 309h238l-244 -309h-162zM461 467q-109 0 -159 -54t-50 -159q0 -51 31 -73q31 -21 111 -21t119 37q38 37 56 139l25 131h-133zM639 770q0 113 -121 113q-63 0 -103 -30t-73 -105l-188 61q102 264 381 264
q165 0 251 -71t86 -203q0 -61 -20 -183l-109 -616h-182l-8 49q-80 -70 -231 -69q-303 0 -304 231q0 211 96 315t326 105h183l8 47q8 66 8 92z" />
    <glyph glyph-name="uni0204.sc" horiz-adv-x="872" 
d="M547 1255h-160l-135 310h235zM846 1255h-162l-135 310h237zM31 0l196 1122h666l-35 -192h-426l-47 -268h360l-32 -193h-363l-49 -276h434l-35 -193h-669z" />
    <glyph glyph-name="uni0206.sc" horiz-adv-x="872" 
d="M752 1303q0 100 -127 100q-76 0 -114 -31t-62 -112h-150q27 174 99 244t231 69q276 0 276 -203q0 -40 -10 -110h-145q2 23 2 43zM45 0l197 1122h665l-35 -192h-426l-47 -268h361l-33 -193h-362l-50 -276h435l-35 -193h-670z" />
    <glyph glyph-name="uni0208.sc" horiz-adv-x="512" 
d="M338 1255h-162l-135 310h235zM635 1255h-162l-135 310h237zM43 0l199 1120h237l-196 -1120h-240z" />
    <glyph glyph-name="uni020A.sc" horiz-adv-x="512" 
d="M541 1303q0 100 -127 100q-76 0 -114 -31t-62 -112h-150q28 174 100 244t230 69q276 0 276 -203q0 -40 -10 -110h-145q2 23 2 43zM45 0l197 1120h239l-198 -1120h-238z" />
    <glyph glyph-name="uni020C.sc" horiz-adv-x="1009" 
d="M559 1255h-160l-135 310h236zM858 1255h-162l-135 310h238zM680 819q0 129 -133 129q-84 0 -129 -56t-70 -196l-49 -270q-12 -86 -12 -135t34 -83q35 -34 109 -34t119 56q44 57 69 196l48 270q14 82 14 123zM410 -18q-362 0 -363 292q1 70 19 170l53 304q23 119 48 179
q92 213 390 214q362 0 363 -295q0 -66 -21 -170l-53 -303q-20 -115 -46 -176t-77 -111q-104 -104 -313 -104z" />
    <glyph glyph-name="uni020E.sc" horiz-adv-x="1009" 
d="M780 1303q0 100 -127 100q-75 0 -113 -31t-63 -112h-149q28 174 100 244t229 69q276 0 277 -203q0 -40 -10 -110h-146q2 23 2 43zM575 948q-84 0 -129 -56t-69 -196l-49 -270q-12 -86 -12 -135t33 -83q35 -34 109 -34t120 56q44 57 69 196l47 270q14 82 15 123
q0 129 -134 129zM948 846q0 -66 -20 -170l-54 -303q-20 -115 -46 -176q-92 -215 -390 -215q-362 0 -362 292q0 70 18 170l53 304q23 119 49 179q92 213 390 214q362 0 362 -295z" />
    <glyph glyph-name="uni0210.sc" horiz-adv-x="978" 
d="M532 1255h-159l-135 310h235zM831 1255h-161l-135 310h237zM496 627q188 0 188 204q0 55 -31 79t-104 24h-115l-55 -307h117zM559 1122q193 0 282 -60t89 -194q0 -195 -94 -295q-57 -66 -160 -88l151 -485h-270l-111 449h-94l-80 -449h-237l196 1122h328z" />
    <glyph glyph-name="uni0212.sc" horiz-adv-x="978" 
d="M621 1403q-76 0 -114 -31t-63 -112h-149q27 174 99 244t231 69q276 0 276 -203q0 -40 -10 -110h-146q2 23 3 43q0 100 -127 100zM506 627q188 0 188 204q0 55 -30 79q-31 24 -105 24h-115l-55 -307h117zM569 1122q193 0 282 -60t89 -194q0 -195 -94 -295
q-57 -66 -160 -88l152 -485h-271l-110 449h-95l-79 -449h-238l197 1122h327z" />
    <glyph glyph-name="uni0214.sc" horiz-adv-x="1036" 
d="M578 1255h-160l-135 310h235zM877 1255h-162l-135 310h237zM434 174q84 0 124 45t63 162l129 739h239l-137 -776q-20 -115 -40 -164t-62 -92q-106 -106 -326 -106q-174 0 -264 64t-90 187q0 47 20 170l127 717h238l-129 -735q-14 -74 -15 -102q0 -109 123 -109z" />
    <glyph glyph-name="uni0216.sc" horiz-adv-x="1036" 
d="M799 1303q0 100 -127 100q-76 0 -114 -31t-62 -112h-150q28 174 100 244t230 69q276 0 276 -203q0 -40 -10 -110h-145q2 23 2 43zM334 283q0 -109 123 -109q84 0 124 45t62 162l129 739h240l-138 -776q-20 -115 -39 -164t-63 -92q-106 -106 -326 -106q-174 0 -264 64
t-90 187q0 47 21 170l127 717h237l-129 -735q-14 -74 -14 -102z" />
    <glyph glyph-name="uni1E24.sc" horiz-adv-x="1038" 
d="M240 -418l43 246h225l-43 -246h-225zM45 0l197 1120h239l-82 -458h289l80 458h240l-199 -1120h-238l82 469h-286l-84 -469h-238z" />
    <glyph glyph-name="uni1E5A.sc" horiz-adv-x="978" 
d="M213 -418l43 246h225l-43 -246h-225zM506 627q188 0 188 204q0 55 -30 79q-31 24 -105 24h-115l-55 -307h117zM569 1122q193 0 282 -60t89 -194q0 -195 -94 -295q-57 -66 -160 -88l152 -485h-271l-110 449h-95l-79 -449h-238l197 1122h327z" />
    </font>
</defs>
</svg>
