<?xml version="1.0" standalone="no"?>
<!DOCTYPE svg PUBLIC "-//W3C//DTD SVG 1.1//EN" "http://www.w3.org/Graphics/SVG/1.1/DTD/svg11.dtd" >
<svg xmlns="http://www.w3.org/2000/svg">
<metadata>
Created by FontPrep 20130207 at Fri May 26 16:01:29 2017
 By Lizzy Knight
Copyright 2016 by URW++ Design &#38; Development GmbH
</metadata>
<defs>
<font id="0fe83c4ab2a9ce34144e532baf219d56" horiz-adv-x='1024' >
  <font-face 
    font-family="URWDINCond-DemiItalic"
    font-weight="600"
    font-style="italic"
    font-stretch="normal"
    units-per-em="2048"
    panose-1="0 0 7 0 0 0 0 0 0 0"
    ascent="1462"
    descent="-586"
    x-height="1051"
    cap-height="1462"
    bbox="-315 -500 2060 2105.03"
    underline-thickness="155"
    underline-position="-133"
    slope="-10"
    unicode-range="U+0020-FB04"
  />
<missing-glyph horiz-adv-x="327" 
 />
    <glyph glyph-name="ff" unicode="ff" horiz-adv-x="1015" 
d="M684 874h-82l31 177h82l26 147q25 156 88 212t213 52h113l-29 -162h-47q-71 2 -93 -24t-40 -127l-16 -98h157l-30 -177h-158l-156 -874h-213zM199 874h-97l31 177h96l27 147q27 158 89 213t212 51h107l-29 -162h-41q-70 2 -92 -24t-39 -127l-19 -98h115l-33 -177h-112
l-154 -874h-215z" />
    <glyph glyph-name="fi" unicode="fi" horiz-adv-x="954" 
d="M541 0l184 1051h215l-184 -1051h-215zM756 1223l45 247h213l-43 -247h-215zM199 874h-97l31 177h96l27 147q27 158 89 213t212 51h115l-29 -162h-49q-70 2 -92 -24t-39 -127l-19 -98h158l-31 -177h-157l-154 -874h-215z" />
    <glyph glyph-name="fl" unicode="fl" horiz-adv-x="1007" 
d="M811 274q0 -50 26 -72t87 -22h18l-31 -180h-28q-162 0 -227 48t-64 167q0 80 24 223l183 1024h213l-191 -1081q-10 -57 -10 -107zM199 874h-97l31 177h96l27 147q27 158 89 213t212 51h115l-29 -162h-49q-70 2 -92 -24t-39 -127l-19 -98h158l-31 -177h-157l-154 -874
h-215z" />
    <glyph glyph-name="ffi" unicode="ffi" horiz-adv-x="1437" 
d="M684 874h-82l31 177h82l26 147q25 156 88 212t213 52h113l-29 -162h-47q-71 2 -93 -24t-40 -127l-16 -98h157l-30 -177h-158l-156 -874h-213zM1026 0l184 1051h215l-186 -1051h-213zM1241 1223l43 247h215l-43 -247h-215zM199 874h-97l31 177h96l27 147q27 158 89 213
t212 51h107l-29 -162h-41q-70 2 -92 -24t-39 -127l-19 -98h115l-33 -177h-112l-154 -874h-215z" />
    <glyph glyph-name="ffl" unicode="ffl" horiz-adv-x="1490" 
d="M684 874h-82l31 177h82l26 147q25 156 88 212t213 52h113l-29 -162h-47q-71 2 -93 -24t-40 -127l-16 -98h157l-30 -177h-158l-156 -874h-213zM1366 0q-162 0 -226 47t-65 149q0 102 27 242l180 1024h213l-190 -1081q-11 -61 -11 -109q-1 -92 113 -92h18l-30 -180h-29z
M199 874h-97l31 177h96l27 147q27 158 89 213t212 51h107l-29 -162h-41q-70 2 -92 -24t-39 -127l-19 -98h115l-33 -177h-112l-154 -874h-215z" />
    <glyph glyph-name=".notdef" horiz-adv-x="327" 
 />
    <glyph glyph-name=".null" horiz-adv-x="0" 
 />
    <glyph glyph-name="nonmarkingreturn" horiz-adv-x="681" 
 />
    <glyph glyph-name="space" unicode=" " horiz-adv-x="327" 
 />
    <glyph glyph-name="exclam" unicode="!" horiz-adv-x="512" 
d="M57 0l41 240h217l-43 -240h-215zM147 406l154 1056h242l-219 -1056h-177z" />
    <glyph glyph-name="quotedbl" unicode="&#x22;" horiz-adv-x="688" 
d="M479 893l84 569h223l-116 -569h-191zM150 893l83 569h224l-117 -569h-190z" />
    <glyph glyph-name="numbersign" unicode="#" 
d="M369 594h137l57 219h-135zM193 594l59 219h-135l37 139h135l90 346h176l-90 -346h135l90 346h176l-90 -346h139l-38 -139h-138l-57 -219h137l-39 -141h-135l-92 -347h-176l92 347h-137l-92 -347h-177l93 347h-136l39 141h134z" />
    <glyph glyph-name="dollar" unicode="$" 
d="M244 328q0 -139 123 -140q111 0 159 119q39 93 39 177t-39 120q-16 18 -33 26t-100 42q-221 90 -221 327q0 183 87 307t228 140l39 219h222l-43 -240q160 -78 159 -262q0 -41 -10 -92h-207q4 41 4 82q0 119 -102 119q-80 0 -123 -82q-35 -74 -35 -149t33 -113
q32 -38 144 -86q112 -47 164 -115t52 -190q0 -219 -102 -373q-74 -111 -225 -144l-51 -294h-222l54 299q-205 59 -205 288q0 50 14 138h207q-10 -74 -10 -123z" />
    <glyph glyph-name="percent" unicode="%" horiz-adv-x="1470" 
d="M377 0l594 1462h196l-592 -1462h-198zM1231 547q0 70 -68 69q-45 0 -69 -34t-39 -121l-33 -187q-10 -59 -10 -84q0 -72 67 -71q45 -1 69 33t40 122l33 187q10 57 10 86zM1423 559q0 -47 -14 -119l-25 -143q-30 -174 -100 -244t-215 -69q-246 0 -246 206q1 48 17 138
l24 143q29 158 97 219t210 62q252 0 252 -193zM532 1278q0 70 -67 70q-45 0 -69 -34t-40 -124l-32 -184q-8 -66 -9 -88q0 -70 68 -70q45 0 69 34t40 124l32 184q8 53 8 88zM725 1288q0 -43 -12 -119l-27 -143q-30 -174 -100 -244t-213 -69q-246 0 -246 207q0 59 14 139
l27 143q29 158 95 219q67 61 210 62q252 0 252 -195z" />
    <glyph glyph-name="ampersand" unicode="&#x26;" horiz-adv-x="1165" 
d="M262 256q0 -134 135 -135q112 0 208 89q28 26 38 34l-164 377q-98 -68 -141 -127q-76 -104 -76 -238zM776 1214q0 106 -92 107q-66 0 -104 -61q-38 -60 -37 -148q0 -88 47 -215q186 119 186 317zM35 244q0 197 121 348q45 57 85 91t154 110q-66 215 -65 305
q0 174 100 286t250 111q150 0 230 -75q79 -75 79 -213t-83 -260t-236 -212l125 -299q57 115 106 252h207q-92 -268 -215 -444l113 -244h-248l-29 76q-102 -78 -183 -108t-192 -29q-319 0 -319 305z" />
    <glyph glyph-name="quotesingle" unicode="'" horiz-adv-x="358" 
d="M150 893l83 569h224l-117 -569h-190z" />
    <glyph glyph-name="parenleft" unicode="(" horiz-adv-x="671" 
d="M172 410q0 376 188 796q74 162 138 263q63 101 151 198l133 -98q-178 -248 -280 -589t-103 -679q0 -242 78 -463l-151 -94q-154 290 -154 666z" />
    <glyph glyph-name="parenright" unicode=")" horiz-adv-x="671" 
d="M338 1112q0 236 -78 461l150 94q156 -289 156 -665t-189 -795q-133 -295 -291 -463l-131 98q179 250 281 590t102 680z" />
    <glyph glyph-name="asterisk" unicode="*" 
d="M528 1055l-166 -226l-151 125l199 213l-222 103l82 162l209 -132l39 287l201 -35l-62 -284l240 53l23 -180l-242 -21l113 -268l-185 -66z" />
    <glyph glyph-name="plus" unicode="+" 
d="M96 653l31 168h264l55 318h185l-58 -318h265l-29 -168h-264l-58 -319h-182l55 319h-264z" />
    <glyph glyph-name="comma" unicode="," horiz-adv-x="434" 
d="M-111 -385l181 618h235l-221 -618h-195z" />
    <glyph glyph-name="hyphen" unicode="-" horiz-adv-x="669" 
d="M125 639l33 190h463l-33 -190h-463z" />
    <glyph glyph-name="period" unicode="." horiz-adv-x="436" 
d="M14 0l41 240h226l-41 -240h-226z" />
    <glyph glyph-name="slash" unicode="/" horiz-adv-x="589" 
d="M-86 -43l627 1548h211l-627 -1548h-211z" />
    <glyph glyph-name="zero" unicode="0" 
d="M668 1171q0 129 -105 129q-76 0 -116 -68t-72 -247l-88 -506q-23 -123 -23 -186q0 -131 105 -131q75 0 115 68t71 249l90 506q23 125 23 186zM573 1483q311 0 312 -305q0 -84 -23 -213l-96 -547q-22 -129 -50 -200q-93 -239 -358 -238q-311 0 -311 305q0 84 23 213
l96 546q23 129 50 200q94 239 357 239z" />
    <glyph glyph-name="one" unicode="1" 
d="M242 0l215 1214l-174 -90l-74 168l369 170h147l-258 -1462h-225z" />
    <glyph glyph-name="two" unicode="2" 
d="M639 1194q0 106 -90 106q-70 0 -109 -55t-65 -190h-209q25 188 92 280q104 147 303 148q145 0 226 -78t81 -215q0 -188 -98 -359q-53 -92 -262 -339l-252 -302h436l-33 -190h-696l29 162l397 491q250 307 250 541z" />
    <glyph glyph-name="three" unicode="3" 
d="M424 858q94 0 141 74q66 100 66 248q0 121 -103 120q-66 0 -100 -49t-59 -178h-207q23 184 86 270q102 139 293 140q151 0 235 -79t84 -219t-53 -254t-139 -161q102 -90 102 -250q0 -102 -28 -208t-70 -171q-109 -162 -326 -161q-158 0 -242 78t-84 229q0 51 15 125h207
q-8 -72 -9 -115q0 -135 119 -135q94 0 146 112q45 104 45 240q0 166 -137 166h-115l33 178h100z" />
    <glyph glyph-name="four" unicode="4" 
d="M408 0l47 262h-443l25 137l530 1063h230l-506 -1018h196l62 351h203l-62 -351h98l-32 -182h-99l-47 -262h-202z" />
    <glyph glyph-name="five" unicode="5" 
d="M524 918q260 0 260 -273q0 -109 -32 -257t-72 -220q-104 -188 -340 -188q-158 0 -241 78t-83 225q0 51 15 129h207q-8 -68 -9 -113q0 -137 112 -137t165 176q45 145 45 291q0 115 -98 114q-86 0 -150 -90l-158 35l172 774h586l-33 -190h-391l-86 -389q72 35 131 35z" />
    <glyph glyph-name="six" unicode="6" 
d="M573 635q0 117 -98 117t-141 -129q-22 -72 -44 -183t-22 -166q0 -117 103 -116q117 0 155 172q47 211 47 305zM344 -20q-129 0 -212 76t-83 210q0 82 23 201q22 119 54 205t116 221l348 569h246l-336 -557l10 2l31 8q6 2 32 3q103 0 161 -70t58 -188t-28 -256
q-29 -138 -71 -227t-131 -143t-218 -54z" />
    <glyph glyph-name="seven" unicode="7" 
d="M51 0l582 1272h-410l33 190h641l-25 -137l-565 -1325h-256z" />
    <glyph glyph-name="eight" unicode="8" 
d="M460 684q-112 0 -151 -113q-19 -51 -37 -151t-18 -148q0 -115 115 -114q109 0 147 110q20 54 38 152t17 149q1 115 -111 115zM563 1319q-98 0 -129 -105q-14 -49 -30 -140t-15 -134q0 -100 96 -100q102 0 136 114q45 158 45 265q0 47 -28 73t-75 27zM573 1483
q297 -1 297 -291q0 -146 -61 -297q-20 -47 -45 -73t-76 -54q96 -63 96 -233q0 -100 -28 -214t-68 -184q-96 -158 -317 -157q-336 0 -336 290q0 100 27 214q28 114 71 186t127 110l-12 11q-61 55 -62 167q0 217 87 371t300 154z" />
    <glyph glyph-name="nine" unicode="9" 
d="M669 1189q0 116 -102 116t-143 -109q-18 -53 -38 -162t-19 -157q0 -111 103 -111t146 135q53 172 53 288zM369 600q-104 0 -163 71q-58 71 -58 184t28 249q29 136 68 210q39 75 128 122t219 47t214 -75t84 -208q0 -182 -72 -375q-35 -88 -115 -213l-380 -612h-246
l377 618q-40 -18 -84 -18z" />
    <glyph glyph-name="colon" unicode=":" horiz-adv-x="436" 
d="M158 805l41 239h225l-41 -239h-225zM14 0l41 240h226l-41 -240h-226z" />
    <glyph glyph-name="semicolon" unicode=";" horiz-adv-x="434" 
d="M178 805l41 239h225l-41 -239h-225zM-111 -385l181 618h235l-221 -618h-195z" />
    <glyph glyph-name="less" unicode="&#x3c;" 
d="M340 737l367 -237l-33 -193l-553 379l20 115l686 379l-36 -205z" />
    <glyph glyph-name="equal" unicode="=" 
d="M152 817l28 162h660l-29 -162h-659zM94 494l29 168h659l-28 -168h-660z" />
    <glyph glyph-name="greater" unicode="&#x3e;" 
d="M598 752l-367 237l33 191l553 -379l-20 -115l-686 -379l36 207z" />
    <glyph glyph-name="question" unicode="?" horiz-adv-x="849" 
d="M217 0l43 240h215l-43 -240h-215zM666 1192q0 108 -105 106q-69 0 -107 -55t-63 -188h-207q23 164 72 248q104 178 322 178q158 0 240 -71t81 -206q0 -190 -94 -338q-43 -66 -180 -198q-66 -58 -95 -106t-38 -111l-11 -52h-174l15 80q20 121 57 192t130 169t125 171
t32 181z" />
    <glyph glyph-name="at" unicode="@" horiz-adv-x="1435" 
d="M600 434q0 -57 39 -57q78 0 159 175t81 292q-1 74 -50 76q-37 2 -79 -46t-76 -133q-74 -180 -74 -307zM944 414q0 -43 39 -43q109 0 182 153q41 82 68 198t27 208q0 199 -96 305t-275 106q-305 0 -492 -329q-76 -134 -122 -322t-46 -358q-1 -211 109 -303t298 -92t396 90
l43 -133q-240 -104 -444 -105q-285 0 -435 131t-151 410q0 207 63 428q62 221 166 379q229 352 619 352q254 0 401 -142t148 -389q0 -303 -144 -519t-346 -216q-145 0 -151 144q-63 -84 -111 -115t-115 -31q-159 0 -159 198t121 423t297 225q63 0 93 -29t40 -98l37 104h129
l-156 -481q-33 -106 -33 -149z" />
    <glyph glyph-name="A" unicode="A" horiz-adv-x="921" 
d="M600 485l-25 666l-262 -666h287zM608 303h-364l-119 -303h-244l645 1462h197l139 -1462h-244z" />
    <glyph glyph-name="B" unicode="B" horiz-adv-x="980" 
d="M426 182q119 0 164 68q70 104 69 264q0 80 -30 112q-31 32 -107 31h-145l-84 -475h133zM545 840q90 0 139 63q68 88 68 238q0 79 -32 109t-110 30h-125l-77 -440h137zM616 1462q209 0 289 -75t80 -224t-53 -255t-141 -144q96 -82 96 -254q0 -246 -119 -397
q-49 -61 -115 -87t-174 -26h-444l258 1462h323z" />
    <glyph glyph-name="C" unicode="C" horiz-adv-x="931" 
d="M418 -20q-168 0 -254 80t-86 231q0 78 22 219l93 522q25 137 53 210q29 73 80 126q104 113 280 113t264 -75t88 -212q0 -51 -14 -139h-207q8 66 8 100q0 143 -127 143q-88 0 -132 -68t-76 -253l-88 -494q-20 -117 -21 -180q0 -141 129 -141q88 0 137 64t76 206h215
q-33 -188 -100 -282q-119 -170 -340 -170z" />
    <glyph glyph-name="D" unicode="D" horiz-adv-x="1003" 
d="M416 182q115 0 166 60t84 231l90 516q14 86 14 158q0 133 -162 133h-125l-192 -1098h125zM598 1462q217 0 303 -65q98 -80 98 -236q0 -76 -18 -174l-104 -592q-31 -213 -142 -306t-327 -89h-375l258 1462h307z" />
    <glyph glyph-name="E" unicode="E" horiz-adv-x="862" 
d="M35 0l258 1462h663l-32 -190h-439l-77 -441h370l-33 -190h-372l-80 -451h446l-32 -190h-672z" />
    <glyph glyph-name="F" unicode="F" horiz-adv-x="823" 
d="M35 0l258 1462h655l-35 -190h-428l-79 -451h358l-33 -190h-358l-113 -631h-225z" />
    <glyph glyph-name="G" unicode="G" horiz-adv-x="978" 
d="M432 -20q-354 0 -354 315q0 74 22 215l93 522q25 139 53 211q29 72 82 125q113 113 291 113t267 -75t89 -212q0 -51 -14 -139h-207q8 63 8 98q0 145 -131 145q-94 0 -142 -69q-47 -70 -79 -252l-88 -494q-20 -125 -21 -174q0 -147 137 -147q94 0 147 69q52 70 81 232
l26 149h-160l31 176h383l-57 -317q-25 -143 -51 -217t-72 -131q-117 -143 -334 -143z" />
    <glyph glyph-name="H" unicode="H" horiz-adv-x="1015" 
d="M35 0l258 1462h225l-110 -631h313l110 631h226l-258 -1462h-226l115 641h-315l-113 -641h-225z" />
    <glyph glyph-name="I" unicode="I" horiz-adv-x="477" 
d="M35 0l258 1462h225l-258 -1462h-225z" />
    <glyph glyph-name="J" unicode="J" horiz-adv-x="692" 
d="M186 -20q-102 0 -174 32t-135 103l156 143q69 -96 145 -96t115 108q23 63 47 207l174 985h225l-180 -1022q-31 -178 -43 -224t-45 -95q-88 -141 -285 -141z" />
    <glyph glyph-name="K" unicode="K" horiz-adv-x="919" 
d="M37 0l258 1462h225l-108 -608l442 608h244l-465 -604l221 -858h-233l-158 692l-107 -157l-94 -535h-225z" />
    <glyph glyph-name="L" unicode="L" horiz-adv-x="821" 
d="M35 0l258 1462h225l-225 -1272h450l-32 -190h-676z" />
    <glyph glyph-name="M" unicode="M" horiz-adv-x="1220" 
d="M35 0l258 1462h211l125 -839l420 839h211l-259 -1462h-215l168 956l-311 -649h-141l-82 649l-170 -956h-215z" />
    <glyph glyph-name="N" unicode="N" horiz-adv-x="1064" 
d="M35 0l258 1462h223l201 -999l176 999h213l-258 -1462h-213l-211 1012l-178 -1012h-211z" />
    <glyph glyph-name="O" unicode="O" horiz-adv-x="1003" 
d="M778 1159q0 141 -145 141q-96 0 -144 -64q-47 -65 -77 -241l-95 -528q-18 -115 -18 -162q0 -143 145 -143q96 0 144 64q47 65 78 241l92 528q20 109 20 164zM637 1483q365 0 364 -316q0 -74 -20 -190l-100 -571q-23 -123 -49 -188q-94 -239 -392 -238q-186 0 -275 76
t-89 239q0 71 20 190l101 572q23 123 47 187q90 238 393 239z" />
    <glyph glyph-name="P" unicode="P" horiz-adv-x="905" 
d="M487 729q127 0 177 94q70 135 69 287q0 96 -33 133t-114 37h-107l-96 -551h104zM586 1462q199 0 278 -71q96 -84 97 -258q0 -121 -33 -241q-68 -246 -227 -312q-81 -35 -214 -35h-131l-96 -545h-225l258 1462h293z" />
    <glyph glyph-name="Q" unicode="Q" horiz-adv-x="1003" 
d="M778 1159q0 141 -145 141q-96 0 -144 -64q-47 -65 -77 -241l-95 -528q-18 -115 -18 -162q0 -143 145 -143q60 -1 105 28l-150 179l140 112l104 -125q12 49 23 111l92 528q20 109 20 164zM438 -20q-362 0 -362 315q0 72 20 190l101 572q23 123 47 187q91 238 393 239
q365 0 364 -316q0 -74 -20 -190l-100 -571q-31 -164 -74 -242l82 -96l-139 -113l-68 80q-90 -55 -244 -55z" />
    <glyph glyph-name="R" unicode="R" horiz-adv-x="962" 
d="M500 793q70 0 110 17t70 60q70 102 70 256q0 86 -35 120t-123 34h-111l-86 -487h105zM602 1462q209 0 287 -67q94 -82 94 -238q0 -111 -32 -227t-86 -186t-165 -107l123 -637h-250l-94 616h-108l-109 -616h-225l258 1462h307z" />
    <glyph glyph-name="S" unicode="S" horiz-adv-x="876" 
d="M582 458q0 89 -41 126q-25 20 -144 69q-238 98 -237 342q0 197 94 334q102 152 299 152q158 0 246 -82t88 -232q0 -39 -13 -112h-208q8 57 8 98q0 145 -117 145q-90 0 -132 -91t-42 -170t35 -119t125 -80q152 -63 207 -133t55 -201q0 -217 -98 -359q-113 -166 -338 -165
q-166 0 -258 80t-93 223q1 53 17 149h207q-10 -68 -11 -113q0 -158 142 -157q119 0 170 119q39 88 39 177z" />
    <glyph glyph-name="T" unicode="T" horiz-adv-x="768" 
d="M178 0l225 1272h-256l33 190h738l-33 -190h-256l-226 -1272h-225z" />
    <glyph glyph-name="U" unicode="U" horiz-adv-x="1021" 
d="M449 162q96 0 140 57t73 219l180 1024h225l-186 -1065q-23 -129 -45 -185t-64 -108q-111 -125 -328 -124q-352 0 -352 292q0 80 25 205l172 985h225l-180 -1024q-18 -106 -19 -143q0 -133 134 -133z" />
    <glyph glyph-name="V" unicode="V" horiz-adv-x="925" 
d="M270 0l-96 1462h221l35 -1095l422 1095h229l-612 -1462h-199z" />
    <glyph glyph-name="W" unicode="W" horiz-adv-x="1400" 
d="M188 0l13 1462h223l-49 -1054l401 1054h174l31 -1054l319 1054h226l-504 -1462h-201l-35 1020l-395 -1020h-203z" />
    <glyph glyph-name="X" unicode="X" horiz-adv-x="890" 
d="M367 782l-179 680h230l123 -491l262 491h239l-430 -733l191 -729h-230l-137 541l-289 -541h-239z" />
    <glyph glyph-name="Y" unicode="Y" horiz-adv-x="827" 
d="M211 0l92 514l-172 948h234l96 -671l332 671h241l-506 -948l-92 -514h-225z" />
    <glyph glyph-name="Z" unicode="Z" horiz-adv-x="792" 
d="M-57 0l20 123l649 1149h-403l33 190h655l-20 -123l-648 -1149h463l-33 -190h-716z" />
    <glyph glyph-name="bracketleft" unicode="[" horiz-adv-x="671" 
d="M86 -201l320 1813h356l-29 -160h-139l-264 -1493h141l-29 -160h-356z" />
    <glyph glyph-name="backslash" unicode="\" horiz-adv-x="589" 
d="M477 -43h-209l-82 1548h211z" />
    <glyph glyph-name="bracketright" unicode="]" horiz-adv-x="671" 
d="M649 1612l-319 -1813h-355l29 160h139l263 1493h-140l29 160h354z" />
    <glyph glyph-name="asciicircum" unicode="^" 
d="M555 1210l-225 -436h-242l447 699h124l201 -699h-235z" />
    <glyph glyph-name="underscore" unicode="_" horiz-adv-x="694" 
d="M-193 -367l27 156h768l-27 -156h-768z" />
    <glyph glyph-name="grave" unicode="`" horiz-adv-x="1024" 
d="M743 1190h-157l-150 303h217z" />
    <glyph glyph-name="a" unicode="a" horiz-adv-x="823" 
d="M418 473q-199 0 -199 -227q0 -92 107 -92q70 0 102 38t49 144l25 137h-84zM551 797q0 96 -94 96q-59 0 -91 -37t-47 -121h-198q27 174 110 255q84 81 238 81q291 0 291 -268q0 -78 -19 -187l-108 -616h-168l-4 51q-66 -71 -194 -71q-127 0 -197 59t-70 163t27 191
q27 88 69 135q86 98 289 99h143l9 47q14 78 14 123z" />
    <glyph glyph-name="b" unicode="b" horiz-adv-x="862" 
d="M594 776q0 109 -86 109q-127 0 -176 -262l-35 -193q-12 -70 -12 -129q0 -139 94 -139q112 -1 153 235l52 283q10 53 10 96zM809 817q0 -76 -23 -199l-41 -233q-35 -201 -88 -277t-107 -102t-133 -26t-126 20t-92 74l-27 -74h-164l258 1462h213l-80 -456q74 66 170 65
q240 0 240 -254z" />
    <glyph glyph-name="c" unicode="c" horiz-adv-x="780" 
d="M57 254q0 84 19 188l45 250q35 197 106 279q86 102 256 102q133 1 209 -69t76 -189q0 -29 -8 -96h-195q4 33 4 67q0 111 -90 111q-59 0 -93 -51t-56 -178l-49 -281q-14 -84 -15 -127q0 -102 88 -102q115 0 148 174h198q-23 -164 -75 -238q-86 -115 -279 -114
q-289 0 -289 274z" />
    <glyph glyph-name="d" unicode="d" horiz-adv-x="862" 
d="M360 166q123 0 170 264l35 193q12 68 13 127q0 139 -97 139q-57 -1 -92 -49t-55 -154l-45 -264q-14 -70 -15 -139q0 -117 86 -117zM307 -20q-248 0 -248 266q0 84 23 219l43 246q33 193 109 277t202 83q126 0 197 -65l80 456h215l-258 -1462h-166l-2 68q-49 -52 -89 -70
t-106 -18z" />
    <glyph glyph-name="e" unicode="e" horiz-adv-x="845" 
d="M598 793q0 104 -104 104q-70 0 -105 -46t-55 -163l-10 -51h254q20 111 20 156zM367 158q63 0 99 40t52 128h201q-23 -164 -80 -236q-88 -111 -283 -110q-297 0 -297 286q0 88 21 199l35 197q39 225 125 317t258 92q299 0 299 -283q0 -92 -41 -315h-461l-16 -94
q-10 -47 -11 -117q0 -104 99 -104z" />
    <glyph glyph-name="f" unicode="f" horiz-adv-x="530" 
d="M199 874h-97l31 177h96l27 147q27 158 89 213t212 51h115l-29 -162h-49q-70 2 -92 -24t-39 -127l-19 -98h158l-31 -177h-157l-154 -874h-215z" />
    <glyph glyph-name="g" unicode="g" horiz-adv-x="862" 
d="M358 166q125 0 172 264l33 193q14 74 15 127q0 139 -97 139q-112 0 -147 -203l-49 -283q-12 -61 -13 -122q0 -115 86 -115zM307 -20q-250 0 -250 266q0 78 25 219l43 246q35 193 109 277t208 83q133 0 213 -88l33 68h166l-199 -1127q-39 -221 -127 -313t-262 -92
q-130 0 -200 53t-70 152q0 51 12 114h191q-4 -31 -4 -59q0 -88 86 -88q68 0 102 52t59 189l19 101q-70 -53 -154 -53z" />
    <glyph glyph-name="h" unicode="h" horiz-adv-x="866" 
d="M582 1071q108 0 168 -59t61 -172q0 -72 -23 -203l-112 -637h-213l112 647q16 90 17 131q0 106 -88 107q-70 1 -108 -57t-62 -201l-111 -627h-215l258 1462h213l-78 -448q73 57 181 57z" />
    <glyph glyph-name="i" unicode="i" horiz-adv-x="428" 
d="M14 0l185 1051h215l-185 -1051h-215zM229 1223l45 247h213l-43 -247h-215z" />
    <glyph glyph-name="j" unicode="j" horiz-adv-x="436" 
d="M240 1223l43 247h215l-45 -247h-213zM209 1051h213l-189 -1078q-41 -270 -136 -360t-328 -84l30 180q97 -5 147 59t74 220z" />
    <glyph glyph-name="k" unicode="k" horiz-adv-x="825" 
d="M16 0l258 1462h213l-153 -878l346 467h225l-352 -439l176 -612h-225l-109 453l-110 -148l-54 -305h-215z" />
    <glyph glyph-name="l" unicode="l" horiz-adv-x="481" 
d="M285 274q-1 -50 25 -72t87 -22h19l-31 -180h-29q-162 0 -226 48t-64 167q0 80 24 223l182 1024h213l-190 -1081q-10 -57 -10 -107z" />
    <glyph glyph-name="m" unicode="m" horiz-adv-x="1286" 
d="M573 1071q166 0 213 -102q90 102 210 102q238 0 237 -231q0 -61 -25 -205l-110 -635h-215l114 647q16 98 17 135q0 106 -84 107q-62 0 -98 -56t-60 -196l-113 -637h-215l115 647q14 78 14 137q0 100 -77 101q-66 1 -102 -57t-62 -201l-109 -627h-215l185 1051h161l2 -76
q50 55 98 75t119 21z" />
    <glyph glyph-name="n" unicode="n" horiz-adv-x="866" 
d="M575 1071q115 0 175 -59q60 -58 61 -156q0 -98 -23 -221l-112 -635h-213l112 647q16 82 17 129q0 109 -90 109q-68 1 -106 -57t-64 -201l-109 -627h-215l185 1051h161l2 -76q52 55 100 75t119 21z" />
    <glyph glyph-name="o" unicode="o" horiz-adv-x="858" 
d="M594 786q0 106 -98 107q-72 0 -109 -49t-57 -174l-51 -289q-14 -84 -15 -117q0 -106 98 -106q70 0 107 49q36 49 59 174l52 289q14 84 14 116zM498 1071q305 0 305 -274q0 -70 -21 -185l-45 -254q-37 -206 -122 -292t-255 -86q-305 0 -305 274q1 75 19 184l45 254
q35 199 108 277q94 102 271 102z" />
    <glyph glyph-name="p" unicode="p" horiz-adv-x="862" 
d="M592 776q0 109 -86 109q-129 0 -174 -262l-35 -193q-14 -88 -14 -133q0 -135 94 -135q114 -1 155 235l52 289q8 61 8 90zM563 1071q244 0 244 -254q0 -84 -19 -186l-43 -246q-35 -201 -98 -289q-82 -117 -229 -116q-119 0 -191 57l-86 -498h-215l267 1512h165l11 -66
q80 86 194 86z" />
    <glyph glyph-name="q" unicode="q" horiz-adv-x="862" 
d="M358 166q125 0 170 264l35 193q12 68 12 127q0 139 -96 139q-57 -1 -92 -49t-53 -154l-51 -285q-10 -55 -11 -118q0 -117 86 -117zM305 -20q-248 0 -248 268q0 88 23 217l43 246q33 195 105 277t211 83q138 0 214 -90l35 70h164l-266 -1512h-213l86 492q-63 -51 -154 -51
z" />
    <glyph glyph-name="r" unicode="r" horiz-adv-x="610" 
d="M10 0l185 1051h163l15 -82q43 57 84 80t113 23t143 -62l-127 -181q-44 59 -100 59t-96 -86q-40 -87 -77 -292l-88 -510h-215z" />
    <glyph glyph-name="s" unicode="s" horiz-adv-x="765" 
d="M199 254q0 -96 120 -96q76 0 121 48t45 112t-24 84q-24 18 -138 54t-165 95t-52 168q0 164 90 258t235 94q146 -1 224 -65t78 -177q0 -39 -10 -86h-197q4 53 4 56q0 94 -92 94q-57 0 -93 -45q-36 -44 -36 -102t25 -82t121 -54q96 -29 143 -59q90 -55 90 -191
q0 -182 -98 -281t-264 -99t-248 64t-82 183q0 39 12 105h199q-8 -49 -8 -78z" />
    <glyph glyph-name="t" unicode="t" horiz-adv-x="544" 
d="M303 250q0 -68 96 -70h37l-30 -180h-58q-147 0 -208 38q-60 38 -60 132q0 57 33 246l80 458h-95l31 177h96l66 309h203l-56 -309h154l-31 -177h-153l-93 -524q-12 -68 -12 -100z" />
    <glyph glyph-name="u" unicode="u" horiz-adv-x="845" 
d="M352 166q63 0 99 57q35 57 61 203l111 625h213l-185 -1051h-159l-3 82q-49 -57 -94 -80t-110 -22q-113 0 -172 59t-59 153t24 224l110 635h215l-114 -648q-16 -90 -17 -137q0 -100 80 -100z" />
    <glyph glyph-name="v" unicode="v" horiz-adv-x="772" 
d="M190 0l-75 1051h213l14 -750l279 750h221l-445 -1051h-207z" />
    <glyph glyph-name="w" unicode="w" horiz-adv-x="1169" 
d="M158 0l-31 1051h217l-20 -715l276 715h152l24 -715l232 715h217l-400 -1051h-184l-31 680l-268 -680h-184z" />
    <glyph glyph-name="x" unicode="x" horiz-adv-x="724" 
d="M246 547l-150 504h223l93 -322l180 322h233l-348 -525l156 -526h-225l-95 338l-190 -338h-234z" />
    <glyph glyph-name="y" unicode="y" horiz-adv-x="774" 
d="M184 -4l-71 1055h213l16 -768l279 768h219l-475 -1176q-85 -213 -175 -279t-294 -67l30 180q98 0 134 31t87 156z" />
    <glyph glyph-name="z" unicode="z" horiz-adv-x="675" 
d="M-63 0l22 125l467 745h-299l31 181h555l-21 -125l-467 -746h357l-33 -180h-612z" />
    <glyph glyph-name="braceleft" unicode="{" horiz-adv-x="671" 
d="M442 627q0 -31 -30 -201l-37 -209q-20 -129 -21 -182q0 -88 84 -88h37l-26 -148h-76q-131 0 -188 42q-56 42 -56 143q0 61 31 245l37 205q23 127 23 167t-17 57q-16 17 -60 18h-12l23 129h12q63 2 88 46t51 196l31 182q35 233 101 308q67 75 237 75h94l-25 -148h-36
q-70 0 -100 -56q-29 -57 -64 -243l-21 -110q-26 -170 -50 -222t-89 -94q59 -35 59 -112z" />
    <glyph glyph-name="bar" unicode="|" 
d="M209 -201l319 1813h185l-320 -1813h-184z" />
    <glyph glyph-name="braceright" unicode="}" horiz-adv-x="671" 
d="M297 1464h-37l27 148h78q131 0 186 -42t55 -130t-31 -258l-24 -135q-21 -123 -21 -165t16 -60t60 -17h12l-22 -129h-14q-63 -2 -88 -46t-50 -196l-45 -252q-35 -233 -101 -309t-237 -74h-94l27 148h35q71 1 101 57t63 242l32 180q29 170 53 223t89 92q-59 33 -60 111
q0 37 29 203l24 139q20 119 21 182q0 88 -84 88z" />
    <glyph glyph-name="asciitilde" unicode="~" 
d="M352 889q76 0 148 -70t104 -69q51 0 111 129l112 -37q-55 -136 -113 -196t-139 -60q-41 0 -75 19t-84 69q-51 50 -82 51q-58 0 -111 -137l-119 28q95 273 248 273z" />
    <glyph glyph-name="uni00A0" unicode="&#xa0;" horiz-adv-x="327" 
 />
    <glyph glyph-name="exclamdown" unicode="&#xa1;" horiz-adv-x="512" 
d="M457 1040l-43 -239h-215l41 239h217zM365 635l-154 -1057h-242l219 1057h177z" />
    <glyph glyph-name="cent" unicode="&#xa2;" 
d="M674 1087q0 115 -99 115q-63 0 -97 -51t-56 -178l-49 -281q-14 -86 -15 -123q0 -106 97 -106q63 0 98 41t53 133h199q-17 -164 -81 -244t-192 -100l-38 -219h-220l41 231q-166 53 -165 258q0 80 18 185l45 249q29 178 97 269q69 90 194 106l35 205h219l-39 -223
q154 -57 153 -238q0 -33 -8 -92h-194q4 61 4 63z" />
    <glyph glyph-name="sterling" unicode="&#xa3;" 
d="M252 541q0 23 -2 51v12h-164l33 187h100q-23 141 -22 217q0 182 77 313q94 160 312 160q154 0 238 -79t83 -224q0 -43 -12 -123h-207q8 72 8 104q0 139 -102 139q-82 0 -126 -90t-44 -174t31 -243h256l-33 -187h-211q-2 -124 -43 -236t-111 -178h451l-33 -190h-749
l28 164q104 37 173 143t69 234z" />
    <glyph glyph-name="currency" unicode="&#xa4;" 
d="M643 678q0 124 -48 194t-134 70t-135 -69q-50 -69 -50 -193t50 -195q50 -69 134 -69q85 0 134 70t49 192zM819 679q0 -151 -61 -253l125 -150l-109 -100l-119 143q-88 -59 -194 -59t-197 59l-121 -143l-106 100l125 150q-62 96 -62 246t62 260l-125 149l106 101l121 -144
q88 60 196 60t195 -60l119 144l109 -101l-125 -149q61 -102 61 -253z" />
    <glyph glyph-name="yen" unicode="&#xa5;" 
d="M229 0l52 295h-224l23 129h223l21 117h-224l23 127h178l-149 794h233l90 -686l332 686h240l-429 -794h177l-23 -127h-223l-21 -117h224l-23 -129h-223l-51 -295h-226z" />
    <glyph glyph-name="brokenbar" unicode="&#xa6;" horiz-adv-x="739" 
d="M174 0l94 530h205l-92 -530h-207zM334 907l98 555h205l-96 -555h-207z" />
    <glyph glyph-name="section" unicode="&#xa7;" 
d="M295 623q0 -51 26 -80t109 -74l70 -35l14 15q12 10 35 31q23 22 39 66t16 91t-25 76q-26 29 -110 71l-70 37l-10 -10l-24 -20q-70 -59 -70 -168zM164 68q0 -61 29 -88t109 -27t128 48q49 49 49 121t-39 103q-18 19 -33 27t-118 51t-156 108t-53 163t45 167q45 68 166 150
q-76 78 -76 194q0 176 91 287t278 111q137 1 212 -59t74 -167q0 -31 -8 -98h-190v45q0 100 -97 101q-61 1 -99 -51t-38 -122t29 -97t141 -79t161 -112q50 -60 50 -158t-48 -173t-161 -148q92 -86 92 -207q0 -176 -108 -280t-309 -103q-319 0 -320 233q0 50 12 113h193
q-6 -33 -6 -53z" />
    <glyph glyph-name="dieresis" unicode="&#xa8;" horiz-adv-x="1024" 
d="M692 1200l41 238h191l-41 -238h-191zM379 1200l41 238h192l-43 -238h-190z" />
    <glyph glyph-name="copyright" unicode="&#xa9;" horiz-adv-x="1583" 
d="M792 113q242 0 396 174t154 443q0 268 -154 444q-153 176 -395 176t-397 -173q-154 -173 -154 -445t154 -445q154 -174 396 -174zM792 1495q314 0 517 -218t203 -548t-204 -546t-516 -216t-517 216q-203 216 -203 549t203 548t517 215zM549 682v98q0 168 56 241
q55 73 195 73t195 -84q31 -41 31 -133h-149q-5 49 -23 71t-59 21q-41 0 -59 -38t-19 -134v-131q0 -96 19 -134q18 -38 62 -38t62 20t25 72h153q-2 -104 -45 -150q-61 -68 -195 -68t-192 73q-57 73 -57 241z" />
    <glyph glyph-name="ordfeminine" unicode="&#xaa;" horiz-adv-x="534" 
d="M367 1092q-104 0 -105 -138q0 -51 53 -51q72 0 88 90l19 99h-55zM446 1305q0 51 -51 51q-31 0 -47 -14t-26 -54h-132q18 98 70 142t146 45q203 0 202 -150q0 -53 -16 -135l-68 -391h-131l2 39q-49 -51 -129 -52q-162 0 -162 154q0 131 70 197q66 55 195 55h59l10 47
q8 51 8 66z" />
    <glyph glyph-name="guillemotleft" unicode="&#xab;" horiz-adv-x="749" 
d="M270 586l78 -258l-145 -72l-158 348l281 348l112 -108zM606 586l78 -258l-145 -72l-156 348l279 348l114 -108z" />
    <glyph glyph-name="logicalnot" unicode="&#xac;" 
d="M119 653l31 168h634l-98 -553h-205l66 385h-428z" />
    <glyph glyph-name="uni00AD" unicode="&#xad;" horiz-adv-x="669" 
d="M125 639l33 190h463l-33 -190h-463z" />
    <glyph glyph-name="registered" unicode="&#xae;" horiz-adv-x="1245" 
d="M620 1647q-192 0 -308 -131t-116 -331t116 -331q114 -131 311 -131t311 132t115 332q0 200 -118 330q-119 130 -311 130zM625 1782q249 0 413 -171t164 -426t-165 -425t-415 -170t-414 169q-165 169 -165 427t166 427t416 169zM571 1206h60q63 0 63 82t-61 82h-62v-164z
M575 1122v-219h-141v565h213q100 0 144 -38q43 -39 43 -130q0 -129 -78 -163l100 -234h-149l-80 219h-52z" />
    <glyph glyph-name="macron" unicode="&#xaf;" horiz-adv-x="1024" 
d="M401 1245l27 160h477l-28 -160h-476z" />
    <glyph glyph-name="degree" unicode="&#xb0;" horiz-adv-x="659" 
d="M454 1397q-128 0 -128 -163t128 -163t128 163t-128 163zM454 1530q148 0 228 -79t80 -219t-81 -218t-227 -78t-228 78q-81 78 -81 220t81 219q80 77 228 77z" />
    <glyph glyph-name="plusminus" unicode="&#xb1;" 
d="M-8 53l31 168h710l-28 -168h-713zM98 653l29 168h264l58 318h182l-56 -318h265l-31 -168h-264l-56 -319h-184l57 319h-264z" />
    <glyph glyph-name="twosuperior" unicode="&#xb2;" horiz-adv-x="604" 
d="M467 1540q-39 0 -59 -29t-39 -110h-158q17 145 81 212t189 66q219 0 219 -190q0 -109 -61 -209q-33 -53 -170 -201l-135 -149h264l-25 -139h-481l21 116l254 287q152 174 151 289q0 57 -51 57z" />
    <glyph glyph-name="threesuperior" unicode="&#xb3;" horiz-adv-x="604" 
d="M385 1315q133 0 133 151q0 72 -61 72q-37 0 -57 -25t-33 -88h-158q17 131 79 191t174 61q112 0 170 -49t58 -139q0 -160 -108 -234q57 -57 57 -173q-1 -116 -65 -210q-64 -93 -216 -94q-231 0 -231 183q0 37 10 86h158q-6 -41 -6 -58q0 -72 67 -71q51 0 81 47t30 129
q0 96 -94 96h-76l22 125h66z" />
    <glyph glyph-name="acute" unicode="&#xb4;" horiz-adv-x="1024" 
d="M516 1190l178 303h236l-254 -303h-160z" />
    <glyph glyph-name="mu" unicode="&#xb5;" 
d="M285 268q0 -109 77 -108q63 0 101 65q37 66 65 221l105 594h207l-185 -1040h-137l-8 106q-45 -74 -83 -102t-98 -27q-60 0 -98 48l-84 -486h-206l264 1501h207l-109 -616q-18 -104 -18 -156z" />
    <glyph glyph-name="paragraph" unicode="&#xb6;" horiz-adv-x="1073" 
d="M338 680q-242 0 -242 278q0 131 50 255t126 184q70 51 164 63q23 2 129 2h494l-307 -1741h-201l276 1563h-151l-275 -1563h-202l170 959h-31z" />
    <glyph glyph-name="periodcentered" unicode="&#xb7;" horiz-adv-x="436" 
d="M121 616l41 238h225l-41 -238h-225z" />
    <glyph glyph-name="cedilla" unicode="&#xb8;" horiz-adv-x="1024" 
d="M207 -471l131 336h203l-191 -336h-143z" />
    <glyph glyph-name="onesuperior" unicode="&#xb9;" horiz-adv-x="604" 
d="M274 791l123 690l-118 -49l-50 127l256 108h119l-155 -876h-175z" />
    <glyph glyph-name="ordmasculine" unicode="&#xba;" horiz-adv-x="540" 
d="M467 1286q0 63 -55 64q-63 0 -86 -123l-33 -185q-6 -27 -6 -67q0 -63 55 -64q65 0 88 121l33 185q4 29 4 69zM629 1292q0 -35 -13 -118l-28 -160q-23 -123 -80 -175t-172 -53q-211 0 -211 179q0 50 12 120l29 160q20 125 78 177t171 52q112 0 163 -43q51 -44 51 -139z
" />
    <glyph glyph-name="guillemotright" unicode="&#xbb;" horiz-adv-x="749" 
d="M510 623l-78 258l146 71l157 -348l-280 -348l-113 109zM174 623l-80 258l148 71l155 -348l-278 -348l-115 109z" />
    <glyph glyph-name="onequarter" unicode="&#xbc;" horiz-adv-x="1488" 
d="M324 0l594 1462h196l-592 -1462h-198zM1057 0l26 154h-303l19 102l325 621h172l-307 -586h119l35 201h145l-37 -201h64l-25 -137h-61l-27 -154h-145zM250 586l123 690l-119 -49l-49 127l256 108h119l-156 -876h-174z" />
    <glyph glyph-name="onehalf" unicode="&#xbd;" horiz-adv-x="1488" 
d="M319 0l592 1462h199l-594 -1462h-197zM1176 887q219 0 219 -191q0 -146 -113 -279q-29 -34 -119 -128l-135 -150h264l-24 -139h-482l21 117l254 286q152 174 151 289q0 55 -51 56q-39 0 -61 -30t-37 -108h-158q18 145 83 211t188 66zM254 586l123 690l-119 -49l-49 127
l256 108h119l-156 -876h-174z" />
    <glyph glyph-name="threequarters" unicode="&#xbe;" horiz-adv-x="1488" 
d="M406 0l591 1462h197l-592 -1462h-196zM1104 0l26 154h-303l19 102l325 621h170l-305 -586h119l35 201h145l-37 -201h64l-25 -137h-63l-27 -154h-143zM354 1110q135 0 133 152q0 72 -61 71q-37 1 -57 -25t-33 -87h-158q16 131 78 191t176 60q112 0 170 -48q58 -50 57 -140
q0 -160 -108 -233q57 -57 57 -152q0 -139 -64 -232t-216 -94q-231 0 -232 183q0 37 10 86h156l-4 -58q0 -72 68 -71q51 0 81 47q29 48 29 114t-22 89q-23 23 -74 22h-74l23 125h65z" />
    <glyph glyph-name="questiondown" unicode="&#xbf;" horiz-adv-x="851" 
d="M651 1040l-41 -239h-217l43 239h215zM203 -141q0 -117 104 -117q68 0 108 56t62 188h207q-23 -164 -72 -248q-100 -178 -321 -178q-156 0 -239 70t-83 204q0 193 94 340q47 72 171 190t145 226l8 51h174l-14 -80q-19 -121 -57 -191t-132 -169q-94 -100 -124 -172
t-31 -170z" />
    <glyph glyph-name="Agrave" unicode="&#xc0;" horiz-adv-x="921" 
d="M719 1606h-158l-149 303h217zM600 485l-25 666l-262 -666h287zM608 303h-364l-119 -303h-244l645 1462h197l139 -1462h-244z" />
    <glyph glyph-name="Aacute" unicode="&#xc1;" horiz-adv-x="921" 
d="M561 1606l178 303h236l-254 -303h-160zM600 485l-25 666l-262 -666h287zM608 303h-364l-119 -303h-244l645 1462h197l139 -1462h-244z" />
    <glyph glyph-name="Acircumflex" unicode="&#xc2;" horiz-adv-x="921" 
d="M668 1774l-109 -162h-205l254 291h156l151 -291h-194zM600 485l-25 666l-262 -666h287zM608 303h-364l-119 -303h-244l645 1462h197l139 -1462h-244z" />
    <glyph glyph-name="Atilde" unicode="&#xc3;" horiz-adv-x="921" 
d="M581 1890q73 0 121 -63t66 -64q39 0 66 113h129q-33 -144 -79 -204t-126 -60t-127 67q-25 37 -36 48t-24 12q-42 0 -73 -113h-127q37 140 87 202t123 62zM600 485l-25 666l-262 -666h287zM608 303h-364l-119 -303h-244l645 1462h197l139 -1462h-244z" />
    <glyph glyph-name="Adieresis" unicode="&#xc4;" horiz-adv-x="921" 
d="M713 1618l41 235h192l-43 -235h-190zM393 1618l41 235h191l-41 -235h-191zM600 485l-25 666l-262 -666h287zM608 303h-364l-119 -303h-244l645 1462h197l139 -1462h-244z" />
    <glyph glyph-name="Aring" unicode="&#xc5;" horiz-adv-x="921" 
d="M657 1692q49 0 79 43t30 115t-70 73q-49 0 -79 -43q-29 -44 -29 -116t69 -72zM691 2028q99 0 153 -52t55 -149q0 -96 -71 -168t-169 -72t-151 52q-53 53 -53 151t68 168q69 70 168 70zM600 485l-25 666l-262 -666h287zM608 303h-364l-119 -303h-244l645 1462h197
l139 -1462h-244z" />
    <glyph glyph-name="AE" unicode="&#xc6;" horiz-adv-x="1421" 
d="M688 506l135 766h-24l-434 -766h323zM655 326h-393l-184 -326h-260l880 1462h820l-33 -190h-443l-77 -441h374l-32 -190h-375l-80 -451h448l-32 -190h-670z" />
    <glyph glyph-name="Ccedilla" unicode="&#xc7;" horiz-adv-x="931" 
d="M150 -471l131 336h202l-190 -336h-143zM418 -20q-168 0 -254 80t-86 231q0 78 22 219l93 522q25 137 53 210q29 73 80 126q104 113 280 113t264 -75t88 -212q0 -51 -14 -139h-207q8 66 8 100q0 143 -127 143q-88 0 -132 -68t-76 -253l-88 -494q-20 -117 -21 -180
q0 -141 129 -141q88 0 137 64t76 206h215q-33 -188 -100 -282q-119 -170 -340 -170z" />
    <glyph glyph-name="Egrave" unicode="&#xc8;" horiz-adv-x="862" 
d="M756 1606h-158l-149 303h217zM35 0l258 1462h663l-32 -190h-439l-77 -441h370l-33 -190h-372l-80 -451h446l-32 -190h-672z" />
    <glyph glyph-name="Eacute" unicode="&#xc9;" horiz-adv-x="862" 
d="M528 1606l179 303h235l-254 -303h-160zM35 0l258 1462h663l-32 -190h-439l-77 -441h370l-33 -190h-372l-80 -451h446l-32 -190h-672z" />
    <glyph glyph-name="Ecircumflex" unicode="&#xca;" horiz-adv-x="862" 
d="M676 1774l-109 -162h-205l254 291h156l152 -291h-195zM35 0l258 1462h663l-32 -190h-439l-77 -441h370l-33 -190h-372l-80 -451h446l-32 -190h-672z" />
    <glyph glyph-name="Edieresis" unicode="&#xcb;" horiz-adv-x="862" 
d="M705 1618l40 235h193l-43 -235h-190zM385 1618l41 235h190l-41 -235h-190zM35 0l258 1462h663l-32 -190h-439l-77 -441h370l-33 -190h-372l-80 -451h446l-32 -190h-672z" />
    <glyph glyph-name="Igrave" unicode="&#xcc;" horiz-adv-x="477" 
d="M526 1606h-157l-150 303h217zM35 0l258 1462h225l-258 -1462h-225z" />
    <glyph glyph-name="Iacute" unicode="&#xcd;" horiz-adv-x="477" 
d="M324 1606l178 303h235l-254 -303h-159zM33 0l258 1462h225l-258 -1462h-225z" />
    <glyph glyph-name="Icircumflex" unicode="&#xce;" horiz-adv-x="477" 
d="M465 1774l-109 -162h-204l254 291h155l152 -291h-195zM35 0l258 1462h225l-258 -1462h-225z" />
    <glyph glyph-name="Idieresis" unicode="&#xcf;" horiz-adv-x="477" 
d="M496 1618l43 235h190l-43 -235h-190zM176 1618l43 235h191l-43 -235h-191zM35 0l258 1462h225l-258 -1462h-225z" />
    <glyph glyph-name="Eth" unicode="&#xd0;" horiz-adv-x="1003" 
d="M416 182q115 0 166 60t84 231l90 516q14 80 14 158q0 133 -162 133h-125l-80 -451h166l-32 -182h-164l-82 -465h125zM598 1462q217 0 303 -65q98 -80 98 -234q0 -78 -18 -176l-104 -594q-31 -211 -143 -304t-326 -89h-375l114 647h-108l33 182h106l113 633h307z" />
    <glyph glyph-name="Ntilde" unicode="&#xd1;" horiz-adv-x="1064" 
d="M661 1890q73 0 121 -63t66 -64q39 0 65 113h129q-33 -143 -78 -204q-46 -60 -126 -60t-127 67q-25 37 -36 48t-24 12q-42 0 -73 -113h-127q37 140 87 202t123 62zM35 0l258 1462h223l201 -999l176 999h213l-258 -1462h-213l-211 1012l-178 -1012h-211z" />
    <glyph glyph-name="Ograve" unicode="&#xd2;" horiz-adv-x="1003" 
d="M807 1606h-158l-149 303h217zM778 1159q0 141 -145 141q-96 0 -144 -64q-47 -65 -77 -241l-95 -528q-18 -115 -18 -162q0 -143 145 -143q96 0 144 64q47 65 78 241l92 528q20 109 20 164zM637 1483q365 0 364 -316q0 -74 -20 -190l-100 -571q-23 -123 -49 -188
q-94 -239 -392 -238q-186 0 -275 76t-89 239q0 71 20 190l101 572q23 123 47 187q90 238 393 239z" />
    <glyph glyph-name="Oacute" unicode="&#xd3;" horiz-adv-x="1003" 
d="M580 1606l178 303h235l-254 -303h-159zM778 1159q0 141 -145 141q-96 0 -144 -64q-47 -65 -77 -241l-95 -528q-18 -115 -18 -162q0 -143 145 -143q96 0 144 64q47 65 78 241l92 528q20 109 20 164zM637 1483q365 0 364 -316q0 -74 -20 -190l-100 -571q-23 -123 -49 -188
q-94 -239 -392 -238q-186 0 -275 76t-89 239q0 71 20 190l101 572q23 123 47 187q90 238 393 239z" />
    <glyph glyph-name="Ocircumflex" unicode="&#xd4;" horiz-adv-x="1003" 
d="M713 1774l-109 -162h-205l254 291h156l152 -291h-195zM778 1159q0 141 -145 141q-96 0 -144 -64q-47 -65 -77 -241l-95 -528q-18 -115 -18 -162q0 -143 145 -143q96 0 144 64q47 65 78 241l92 528q20 109 20 164zM637 1483q365 0 364 -316q0 -74 -20 -190l-100 -571
q-23 -123 -49 -188q-94 -239 -392 -238q-186 0 -275 76t-89 239q0 71 20 190l101 572q23 123 47 187q90 238 393 239z" />
    <glyph glyph-name="Otilde" unicode="&#xd5;" horiz-adv-x="1003" 
d="M632 1890q73 0 121 -63t66 -64q39 0 66 113h129q-33 -144 -79 -204t-126 -60t-127 67q-25 37 -36 48t-23 12q-43 0 -74 -113h-127q37 140 87 202t123 62zM778 1159q0 141 -145 141q-96 0 -144 -64q-47 -65 -77 -241l-95 -528q-18 -115 -18 -162q0 -143 145 -143
q96 0 144 64q47 65 78 241l92 528q20 109 20 164zM637 1483q365 0 364 -316q0 -74 -20 -190l-100 -571q-23 -123 -49 -188q-94 -239 -392 -238q-186 0 -275 76t-89 239q0 71 20 190l101 572q23 123 47 187q90 238 393 239z" />
    <glyph glyph-name="Odieresis" unicode="&#xd6;" horiz-adv-x="1003" 
d="M758 1618l41 235h192l-43 -235h-190zM438 1618l41 235h191l-41 -235h-191zM778 1159q0 141 -145 141q-96 0 -144 -64q-47 -65 -77 -241l-95 -528q-18 -115 -18 -162q0 -143 145 -143q96 0 144 64q47 65 78 241l92 528q20 109 20 164zM637 1483q365 0 364 -316
q0 -74 -20 -190l-100 -571q-23 -123 -49 -188q-94 -239 -392 -238q-186 0 -275 76t-89 239q0 71 20 190l101 572q23 123 47 187q90 238 393 239z" />
    <glyph glyph-name="multiply" unicode="&#xd7;" 
d="M369 735l-213 258l141 121l213 -258l303 258l98 -121l-303 -258l213 -256l-141 -121l-213 258l-303 -258l-98 121z" />
    <glyph glyph-name="Oslash" unicode="&#xd8;" horiz-adv-x="1003" 
d="M336 569l430 654q-31 77 -130 77t-147 -64q-47 -65 -77 -241zM442 162q98 0 146 64q47 65 78 241l73 420l-428 -649q33 -76 131 -76zM1001 1155q0 -70 -20 -178l-100 -571q-23 -124 -47 -188q-92 -239 -392 -238q-170 0 -258 63l-57 -86l-139 84l100 152q-12 55 -12 119
t20 173l101 572q20 123 46 187q96 238 392 239q174 0 260 -66l55 84l140 -84l-99 -149q10 -43 10 -113z" />
    <glyph glyph-name="Ugrave" unicode="&#xd9;" horiz-adv-x="1021" 
d="M817 1606h-158l-149 303h217zM449 162q96 0 140 57t73 219l180 1024h225l-186 -1065q-23 -129 -45 -185t-64 -108q-111 -125 -328 -124q-352 0 -352 292q0 80 25 205l172 985h225l-180 -1024q-18 -106 -19 -143q0 -133 134 -133z" />
    <glyph glyph-name="Uacute" unicode="&#xda;" horiz-adv-x="1021" 
d="M588 1606l178 303h235l-253 -303h-160zM449 162q96 0 140 57t73 219l180 1024h225l-186 -1065q-23 -129 -45 -185t-64 -108q-111 -125 -328 -124q-352 0 -352 292q0 80 25 205l172 985h225l-180 -1024q-18 -106 -19 -143q0 -133 134 -133z" />
    <glyph glyph-name="Ucircumflex" unicode="&#xdb;" horiz-adv-x="1021" 
d="M733 1774l-108 -162h-205l254 291h155l152 -291h-195zM449 162q96 0 140 57t73 219l180 1024h225l-186 -1065q-23 -129 -45 -185t-64 -108q-111 -125 -328 -124q-352 0 -352 292q0 80 25 205l172 985h225l-180 -1024q-18 -106 -19 -143q0 -133 134 -133z" />
    <glyph glyph-name="Udieresis" unicode="&#xdc;" horiz-adv-x="1021" 
d="M768 1618l41 235h192l-43 -235h-190zM449 1618l40 235h191l-41 -235h-190zM449 162q96 0 140 57t73 219l180 1024h225l-186 -1065q-23 -129 -45 -185t-64 -108q-111 -125 -328 -124q-352 0 -352 292q0 80 25 205l172 985h225l-180 -1024q-18 -106 -19 -143
q0 -133 134 -133z" />
    <glyph glyph-name="Yacute" unicode="&#xdd;" horiz-adv-x="827" 
d="M516 1606l178 303h236l-254 -303h-160zM211 0l92 514l-172 948h234l96 -671l332 671h241l-506 -948l-92 -514h-225z" />
    <glyph glyph-name="Thorn" unicode="&#xde;" horiz-adv-x="905" 
d="M446 500q127 0 177 94q70 135 69 293q0 92 -33 128t-114 36h-105l-98 -551h104zM545 1233q188 0 268 -64q106 -84 107 -270q0 -117 -33 -235t-88 -199q-55 -80 -137 -115t-216 -35h-131l-55 -315h-225l258 1462h225l-41 -229h68z" />
    <glyph glyph-name="germandbls" unicode="&#xdf;" horiz-adv-x="864" 
d="M540 1479q148 0 228 -68t80 -190q0 -88 -34 -175t-87 -141q72 -70 72 -217q0 -70 -17 -172l-18 -106q-37 -228 -115 -318t-246 -92h-92l31 174h37q84 4 115 50t59 212l22 123q15 88 15 139q0 52 -20 72t-83 21h-22l29 159h24q55 0 90 83t35 177t-90 95q-55 0 -85 -39
t-46 -136l-199 -1130h-215l207 1169q27 160 92 228q85 82 233 82z" />
    <glyph glyph-name="agrave" unicode="&#xe0;" horiz-adv-x="823" 
d="M643 1190h-158l-149 303h217zM418 473q-199 0 -199 -227q0 -92 107 -92q70 0 102 38t49 144l25 137h-84zM551 797q0 96 -94 96q-59 0 -91 -37t-47 -121h-198q27 174 110 255q84 81 238 81q291 0 291 -268q0 -78 -19 -187l-108 -616h-168l-4 51q-66 -71 -194 -71
q-127 0 -197 59t-70 163t27 191q27 88 69 135q86 98 289 99h143l9 47q14 78 14 123z" />
    <glyph glyph-name="aacute" unicode="&#xe1;" horiz-adv-x="823" 
d="M426 1190l178 303h236l-254 -303h-160zM418 473q-199 0 -199 -227q0 -92 107 -92q70 0 102 38t49 144l25 137h-84zM551 797q0 96 -94 96q-59 0 -91 -37t-47 -121h-198q27 174 110 255q84 81 238 81q291 0 291 -268q0 -78 -19 -187l-108 -616h-168l-4 51q-66 -71 -194 -71
q-127 0 -197 59t-70 163t27 191q27 88 69 135q86 98 289 99h143l9 47q14 78 14 123z" />
    <glyph glyph-name="acircumflex" unicode="&#xe2;" horiz-adv-x="823" 
d="M555 1358l-109 -162h-204l254 291h155l152 -291h-195zM418 473q-199 0 -199 -227q0 -92 107 -92q70 0 102 38t49 144l25 137h-84zM551 797q0 96 -94 96q-59 0 -91 -37t-47 -121h-198q27 174 110 255q84 81 238 81q291 0 291 -268q0 -78 -19 -187l-108 -616h-168l-4 51
q-66 -71 -194 -71q-127 0 -197 59t-70 163t27 191q27 88 69 135q86 98 289 99h143l9 47q14 78 14 123z" />
    <glyph glyph-name="atilde" unicode="&#xe3;" horiz-adv-x="823" 
d="M647 1350q39 0 66 112h129q-33 -146 -79 -206t-126 -60t-127 68q-25 37 -36 48t-23 11q-43 0 -74 -113h-127q37 142 86 204t123 62t122 -62q48 -64 66 -64zM418 473q-199 0 -199 -227q0 -92 107 -92q70 0 102 38t49 144l25 137h-84zM551 797q0 96 -94 96q-59 0 -91 -37
t-47 -121h-198q27 174 110 255q84 81 238 81q291 0 291 -268q0 -78 -19 -187l-108 -616h-168l-4 51q-66 -71 -194 -71q-127 0 -197 59t-70 163t27 191q27 88 69 135q86 98 289 99h143l9 47q14 78 14 123z" />
    <glyph glyph-name="adieresis" unicode="&#xe4;" horiz-adv-x="823" 
d="M602 1200l41 238h191l-41 -238h-191zM289 1200l41 238h192l-43 -238h-190zM418 473q-199 0 -199 -227q0 -92 107 -92q70 0 102 38t49 144l25 137h-84zM551 797q0 96 -94 96q-59 0 -91 -37t-47 -121h-198q27 174 110 255q84 81 238 81q291 0 291 -268q0 -78 -19 -187
l-108 -616h-168l-4 51q-66 -71 -194 -71q-127 0 -197 59t-70 163t27 191q27 88 69 135q86 98 289 99h143l9 47q14 78 14 123z" />
    <glyph glyph-name="aring" unicode="&#xe5;" horiz-adv-x="823" 
d="M584 1507q-49 0 -79 -43q-30 -44 -30 -116t70 -72q49 0 79 43t30 115t-70 73zM552 1171q-210 1 -210 203q0 100 69 168q69 70 168 70t153 -52t54 -144t-66 -168q-66 -77 -168 -77zM418 473q-199 0 -199 -227q0 -92 107 -92q70 0 102 38t49 144l25 137h-84zM551 797
q0 96 -94 96q-59 0 -91 -37t-47 -121h-198q27 174 110 255q84 81 238 81q291 0 291 -268q0 -78 -19 -187l-108 -616h-168l-4 51q-66 -71 -194 -71q-127 0 -197 59t-70 163t27 191q27 88 69 135q86 98 289 99h143l9 47q14 78 14 123z" />
    <glyph glyph-name="ae" unicode="&#xe6;" horiz-adv-x="1269" 
d="M918 897q-70 0 -105 -46t-57 -163l-8 -51h253q20 104 21 154q0 106 -104 106zM420 473q-102 0 -150 -53q-51 -66 -51 -174q0 -94 107 -94q70 0 102 38t49 146l25 137h-82zM457 1071q166 0 241 -98q90 98 238 98q285 0 285 -278q0 -88 -43 -320h-461l-19 -92
q-12 -74 -12 -115q0 -109 100 -108q66 0 102 40t52 128h201q-27 -188 -106 -268t-251 -78q-172 0 -243 106q-98 -106 -267 -106q-274 0 -274 223q0 94 27 183t69 140q88 102 289 103h143l9 45q14 84 14 121q0 98 -90 98q-61 0 -93 -37t-49 -121h-198q25 150 80 221
q90 115 256 115z" />
    <glyph glyph-name="ccedilla" unicode="&#xe7;" horiz-adv-x="780" 
d="M70 -471l131 336h202l-190 -336h-143zM57 254q0 84 19 188l45 250q35 197 106 279q86 102 256 102q133 1 209 -69t76 -189q0 -29 -8 -96h-195q4 33 4 67q0 111 -90 111q-59 0 -93 -51t-56 -178l-49 -281q-14 -84 -15 -127q0 -102 88 -102q115 0 148 174h198
q-23 -164 -75 -238q-86 -115 -279 -114q-289 0 -289 274z" />
    <glyph glyph-name="egrave" unicode="&#xe8;" horiz-adv-x="845" 
d="M657 1190h-157l-150 303h217zM598 793q0 104 -104 104q-70 0 -105 -46t-55 -163l-10 -51h254q20 111 20 156zM367 158q63 0 99 40t52 128h201q-23 -164 -80 -236q-88 -111 -283 -110q-297 0 -297 286q0 88 21 199l35 197q39 225 125 317t258 92q299 0 299 -283
q0 -92 -41 -315h-461l-16 -94q-10 -47 -11 -117q0 -104 99 -104z" />
    <glyph glyph-name="eacute" unicode="&#xe9;" horiz-adv-x="845" 
d="M428 1190l178 303h236l-254 -303h-160zM598 793q0 104 -104 104q-70 0 -105 -46t-55 -163l-10 -51h254q20 111 20 156zM367 158q63 0 99 40t52 128h201q-23 -164 -80 -236q-88 -111 -283 -110q-297 0 -297 286q0 88 21 199l35 197q39 225 125 317t258 92q299 0 299 -283
q0 -92 -41 -315h-461l-16 -94q-10 -47 -11 -117q0 -104 99 -104z" />
    <glyph glyph-name="ecircumflex" unicode="&#xea;" horiz-adv-x="845" 
d="M578 1358l-109 -162h-205l254 291h156l151 -291h-194zM598 793q0 104 -104 104q-70 0 -105 -46t-55 -163l-10 -51h254q20 111 20 156zM367 158q63 0 99 40t52 128h201q-23 -164 -80 -236q-88 -111 -283 -110q-297 0 -297 286q0 88 21 199l35 197q39 225 125 317t258 92
q299 0 299 -283q0 -92 -41 -315h-461l-16 -94q-10 -47 -11 -117q0 -104 99 -104z" />
    <glyph glyph-name="edieresis" unicode="&#xeb;" horiz-adv-x="845" 
d="M612 1200l41 238h191l-41 -238h-191zM299 1200l41 238h192l-43 -238h-190zM598 793q0 104 -104 104q-70 0 -105 -46t-55 -163l-10 -51h254q20 111 20 156zM367 158q63 0 99 40t52 128h201q-23 -164 -80 -236q-88 -111 -283 -110q-297 0 -297 286q0 88 21 199l35 197
q39 225 125 317t258 92q299 0 299 -283q0 -92 -41 -315h-461l-16 -94q-10 -47 -11 -117q0 -104 99 -104z" />
    <glyph glyph-name="igrave" unicode="&#xec;" horiz-adv-x="428" 
d="M432 1190h-158l-149 303h217zM14 0l185 1051h215l-185 -1051h-215z" />
    <glyph glyph-name="iacute" unicode="&#xed;" horiz-adv-x="428" 
d="M227 1190l179 303h235l-254 -303h-160zM12 0l185 1051h215l-185 -1051h-215z" />
    <glyph glyph-name="icircumflex" unicode="&#xee;" horiz-adv-x="428" 
d="M365 1358l-109 -162h-205l254 291h156l151 -291h-194zM14 0l185 1051h215l-185 -1051h-215z" />
    <glyph glyph-name="idieresis" unicode="&#xef;" horiz-adv-x="428" 
d="M393 1200l43 238h191l-43 -238h-191zM82 1200l41 238h190l-41 -238h-190zM14 0l185 1051h215l-185 -1051h-215z" />
    <glyph glyph-name="eth" unicode="&#xf0;" horiz-adv-x="858" 
d="M530 389l45 248q10 82 11 125q0 111 -99 110q-67 0 -103 -52t-58 -183l-45 -248q-12 -76 -13 -123q0 -109 99 -108q67 0 105 52t58 179zM811 922q0 -162 -29 -316l-45 -260q-35 -201 -119 -284t-251 -82q-313 0 -314 264q1 72 19 166l47 272q33 188 104 268q84 98 230 99
q90 0 133 -35q-8 129 -45 178l-160 -92l-59 98l141 80q-8 8 -10 8q-45 45 -105 60l53 147q78 -10 128 -32t114 -72l135 77l60 -100l-111 -61q84 -139 84 -383z" />
    <glyph glyph-name="ntilde" unicode="&#xf1;" horiz-adv-x="866" 
d="M668 1350q39 0 65 112h129q-33 -146 -79 -206t-126 -60t-127 68q-25 37 -35 48q-11 11 -24 11q-43 0 -74 -113h-127q37 142 86 204t123 62t122 -62q48 -64 67 -64zM575 1071q115 0 175 -59q60 -58 61 -156q0 -98 -23 -221l-112 -635h-213l112 647q16 82 17 129
q0 109 -90 109q-68 1 -106 -57t-64 -201l-109 -627h-215l185 1051h161l2 -76q52 55 100 75t119 21z" />
    <glyph glyph-name="ograve" unicode="&#xf2;" horiz-adv-x="858" 
d="M662 1190h-158l-150 303h217zM594 786q0 106 -98 107q-72 0 -109 -49t-57 -174l-51 -289q-14 -84 -15 -117q0 -106 98 -106q70 0 107 49q36 49 59 174l52 289q14 84 14 116zM498 1071q305 0 305 -274q0 -70 -21 -185l-45 -254q-37 -206 -122 -292t-255 -86
q-305 0 -305 274q1 75 19 184l45 254q35 199 108 277q94 102 271 102z" />
    <glyph glyph-name="oacute" unicode="&#xf3;" horiz-adv-x="858" 
d="M432 1190l178 303h236l-254 -303h-160zM594 786q0 106 -98 107q-72 0 -109 -49t-57 -174l-51 -289q-14 -84 -15 -117q0 -106 98 -106q70 0 107 49q36 49 59 174l52 289q14 84 14 116zM498 1071q305 0 305 -274q0 -70 -21 -185l-45 -254q-37 -206 -122 -292t-255 -86
q-305 0 -305 274q1 75 19 184l45 254q35 199 108 277q94 102 271 102z" />
    <glyph glyph-name="ocircumflex" unicode="&#xf4;" horiz-adv-x="858" 
d="M578 1358l-109 -162h-205l254 291h156l151 -291h-194zM594 786q0 106 -98 107q-72 0 -109 -49t-57 -174l-51 -289q-14 -84 -15 -117q0 -106 98 -106q70 0 107 49q36 49 59 174l52 289q14 84 14 116zM498 1071q305 0 305 -274q0 -70 -21 -185l-45 -254q-37 -206 -122 -292
t-255 -86q-305 0 -305 274q1 75 19 184l45 254q35 199 108 277q94 102 271 102z" />
    <glyph glyph-name="otilde" unicode="&#xf5;" horiz-adv-x="858" 
d="M672 1350q39 0 65 112h129q-33 -146 -79 -206q-45 -60 -125 -60t-127 68q-25 37 -36 48t-24 11q-43 0 -74 -113h-127q37 142 86 204t123 62t122 -62q48 -64 67 -64zM594 786q0 106 -98 107q-72 0 -109 -49t-57 -174l-51 -289q-14 -84 -15 -117q0 -106 98 -106
q70 0 107 49q36 49 59 174l52 289q14 84 14 116zM498 1071q305 0 305 -274q0 -70 -21 -185l-45 -254q-37 -206 -122 -292t-255 -86q-305 0 -305 274q1 75 19 184l45 254q35 199 108 277q94 102 271 102z" />
    <glyph glyph-name="odieresis" unicode="&#xf6;" horiz-adv-x="858" 
d="M610 1200l41 238h191l-41 -238h-191zM297 1200l41 238h192l-43 -238h-190zM594 786q0 106 -98 107q-72 0 -109 -49t-57 -174l-51 -289q-14 -84 -15 -117q0 -106 98 -106q70 0 107 49q36 49 59 174l52 289q14 84 14 116zM498 1071q305 0 305 -274q0 -70 -21 -185l-45 -254
q-37 -206 -122 -292t-255 -86q-305 0 -305 274q1 75 19 184l45 254q35 199 108 277q94 102 271 102z" />
    <glyph glyph-name="divide" unicode="&#xf7;" 
d="M412 958l34 207h193l-35 -207h-192zM295 305l37 207h192l-37 -207h-192zM96 653l31 168h711l-29 -168h-713z" />
    <glyph glyph-name="oslash" unicode="&#xf8;" horiz-adv-x="858" 
d="M492 893q-68 0 -105 -49t-57 -174l-43 -244l297 418q-24 49 -92 49zM367 158q65 0 102 49t59 174l41 229l-290 -409q23 -43 88 -43zM362 -20q-129 0 -206 49l-52 -74l-102 70l74 102q-42 102 -2 311l45 254q35 199 108 277q94 102 271 102q131 0 209 -51l47 65l102 -67
l-70 -100q34 -111 -4 -306l-45 -254q-35 -197 -106 -278q-94 -100 -269 -100z" />
    <glyph glyph-name="ugrave" unicode="&#xf9;" horiz-adv-x="845" 
d="M655 1190h-157l-150 303h217zM352 166q63 0 99 57q35 57 61 203l111 625h213l-185 -1051h-159l-3 82q-49 -57 -94 -80t-110 -22q-113 0 -172 59t-59 153t24 224l110 635h215l-114 -648q-16 -90 -17 -137q0 -100 80 -100z" />
    <glyph glyph-name="uacute" unicode="&#xfa;" horiz-adv-x="845" 
d="M426 1190l178 303h236l-254 -303h-160zM352 166q63 0 99 57q35 57 61 203l111 625h213l-185 -1051h-159l-3 82q-49 -57 -94 -80t-110 -22q-113 0 -172 59t-59 153t24 224l110 635h215l-114 -648q-16 -90 -17 -137q0 -100 80 -100z" />
    <glyph glyph-name="ucircumflex" unicode="&#xfb;" horiz-adv-x="845" 
d="M571 1358l-108 -162h-205l254 291h156l151 -291h-194zM352 166q63 0 99 57q35 57 61 203l111 625h213l-185 -1051h-159l-3 82q-49 -57 -94 -80t-110 -22q-113 0 -172 59t-59 153t24 224l110 635h215l-114 -648q-16 -90 -17 -137q0 -100 80 -100z" />
    <glyph glyph-name="udieresis" unicode="&#xfc;" horiz-adv-x="845" 
d="M602 1200l41 238h191l-41 -238h-191zM289 1200l41 238h192l-43 -238h-190zM352 166q63 0 99 57q35 57 61 203l111 625h213l-185 -1051h-159l-3 82q-49 -57 -94 -80t-110 -22q-113 0 -172 59t-59 153t24 224l110 635h215l-114 -648q-16 -90 -17 -137q0 -100 80 -100z" />
    <glyph glyph-name="yacute" unicode="&#xfd;" horiz-adv-x="774" 
d="M401 1190l179 303h235l-254 -303h-160zM184 -4l-71 1055h213l16 -768l279 768h219l-475 -1176q-85 -213 -175 -279t-294 -67l30 180q98 0 134 31t87 156z" />
    <glyph glyph-name="thorn" unicode="&#xfe;" 
d="M592 776q0 109 -86 109q-129 0 -174 -262l-35 -193q-14 -88 -14 -129q0 -139 94 -139q114 -1 155 235l52 289q8 61 8 90zM563 1071q244 0 244 -254q0 -68 -19 -186l-43 -246q-41 -223 -115 -314t-216 -91q-97 0 -187 55l-86 -496h-215l340 1923h213l-80 -450
q68 59 164 59z" />
    <glyph glyph-name="ydieresis" unicode="&#xff;" horiz-adv-x="774" 
d="M559 1200l41 238h191l-41 -238h-191zM246 1200l41 238h192l-43 -238h-190zM184 -4l-71 1055h213l16 -768l279 768h219l-475 -1176q-85 -213 -175 -279t-294 -67l30 180q98 0 134 31t87 156z" />
    <glyph glyph-name="Amacron" unicode="&#x100;" horiz-adv-x="921" 
d="M408 1661l26 160h477l-28 -160h-475zM600 485l-25 666l-262 -666h287zM608 303h-364l-119 -303h-244l645 1462h197l139 -1462h-244z" />
    <glyph glyph-name="amacron" unicode="&#x101;" horiz-adv-x="823" 
d="M283 1245l26 160h477l-28 -160h-475zM418 473q-199 0 -199 -227q0 -92 107 -92q70 0 102 38t49 144l25 137h-84zM551 797q0 96 -94 96q-59 0 -91 -37t-47 -121h-198q27 174 110 255q84 81 238 81q291 0 291 -268q0 -78 -19 -187l-108 -616h-168l-4 51q-66 -71 -194 -71
q-127 0 -197 59t-70 163t27 191q27 88 69 135q86 98 289 99h143l9 47q14 78 14 123z" />
    <glyph glyph-name="Abreve" unicode="&#x102;" horiz-adv-x="921" 
d="M659 1749q63 0 97 32q33 32 55 115h139q-20 -168 -86 -236t-209 -67q-238 0 -237 176q0 43 12 127h133l-4 -53q0 -94 100 -94zM600 485l-25 666l-262 -666h287zM608 303h-364l-119 -303h-244l645 1462h197l139 -1462h-244z" />
    <glyph glyph-name="abreve" unicode="&#x103;" horiz-adv-x="823" 
d="M549 1331q63 0 95 31t56 117h140q-24 -170 -88 -237t-207 -66q-238 0 -238 176q0 45 12 127h134l-4 -54q0 -94 100 -94zM418 473q-199 0 -199 -227q0 -92 107 -92q70 0 102 38t49 144l25 137h-84zM551 797q0 96 -94 96q-59 0 -91 -37t-47 -121h-198q27 174 110 255
q84 81 238 81q291 0 291 -268q0 -78 -19 -187l-108 -616h-168l-4 51q-66 -71 -194 -71q-127 0 -197 59t-70 163t27 191q27 88 69 135q86 98 289 99h143l9 47q14 78 14 123z" />
    <glyph glyph-name="Aogonek" unicode="&#x104;" horiz-adv-x="921" 
d="M600 485l-25 666l-262 -666h287zM750 -289q41 0 92 21l4 -113q-82 -35 -168 -35q-186 0 -186 140q0 147 213 276h-87l-10 303h-364l-119 -303h-244l645 1462h197l139 -1462l-24 -20q-147 -127 -148 -220q0 -49 60 -49z" />
    <glyph glyph-name="aogonek" unicode="&#x105;" horiz-adv-x="823" 
d="M418 473q-199 0 -199 -227q0 -92 107 -92q70 0 102 38t49 144l25 137h-84zM461 -240q0 -49 59 -49q33 0 92 21l4 -113q-82 -35 -167 -35q-186 0 -187 140q0 141 213 276h-10l-4 51q-66 -71 -194 -71q-127 0 -197 59t-70 163t27 191q27 88 69 135q86 98 289 99h143l9 47
q14 78 14 123q0 96 -94 96q-59 0 -91 -37t-47 -121h-198q27 174 110 255q84 81 238 81q291 0 291 -268q-1 -78 -19 -187l-108 -616q-100 -84 -136 -135t-36 -105z" />
    <glyph glyph-name="Cacute" unicode="&#x106;" horiz-adv-x="931" 
d="M559 1606l178 303h236l-254 -303h-160zM418 -20q-168 0 -254 80t-86 231q0 78 22 219l93 522q25 137 53 210q29 73 80 126q104 113 280 113t264 -75t88 -212q0 -51 -14 -139h-207q8 66 8 100q0 143 -127 143q-88 0 -132 -68t-76 -253l-88 -494q-20 -117 -21 -180
q0 -141 129 -141q88 0 137 64t76 206h215q-33 -188 -100 -282q-119 -170 -340 -170z" />
    <glyph glyph-name="cacute" unicode="&#x107;" horiz-adv-x="780" 
d="M424 1190l178 303h236l-254 -303h-160zM57 254q0 84 19 188l45 250q35 197 106 279q86 102 256 102q133 1 209 -69t76 -189q0 -29 -8 -96h-195q4 33 4 67q0 111 -90 111q-59 0 -93 -51t-56 -178l-49 -281q-14 -84 -15 -127q0 -102 88 -102q115 0 148 174h198
q-23 -164 -75 -238q-86 -115 -279 -114q-289 0 -289 274z" />
    <glyph glyph-name="Ccircumflex" unicode="&#x108;" horiz-adv-x="931" 
d="M688 1774l-108 -162h-205l254 291h155l152 -291h-195zM418 -20q-168 0 -254 80t-86 231q0 78 22 219l93 522q25 137 53 210q29 73 80 126q104 113 280 113t264 -75t88 -212q0 -51 -14 -139h-207q8 66 8 100q0 143 -127 143q-88 0 -132 -68t-76 -253l-88 -494
q-20 -117 -21 -180q0 -141 129 -141q88 0 137 64t76 206h215q-33 -188 -100 -282q-119 -170 -340 -170z" />
    <glyph glyph-name="ccircumflex" unicode="&#x109;" horiz-adv-x="780" 
d="M551 1358l-109 -162h-204l254 291h155l152 -291h-195zM57 254q0 84 19 188l45 250q35 197 106 279q86 102 256 102q133 1 209 -69t76 -189q0 -29 -8 -96h-195q4 33 4 67q0 111 -90 111q-59 0 -93 -51t-56 -178l-49 -281q-14 -84 -15 -127q0 -102 88 -102q115 0 148 174
h198q-23 -164 -75 -238q-86 -115 -279 -114q-289 0 -289 274z" />
    <glyph glyph-name="Cdotaccent" unicode="&#x10a;" horiz-adv-x="931" 
d="M555 1612l43 239h205l-41 -239h-207zM418 -20q-168 0 -254 80t-86 231q0 78 22 219l93 522q25 137 53 210q29 73 80 126q104 113 280 113t264 -75t88 -212q0 -51 -14 -139h-207q8 66 8 100q0 143 -127 143q-88 0 -132 -68t-76 -253l-88 -494q-20 -117 -21 -180
q0 -141 129 -141q88 0 137 64t76 206h215q-33 -188 -100 -282q-119 -170 -340 -170z" />
    <glyph glyph-name="cdotaccent" unicode="&#x10b;" horiz-adv-x="780" 
d="M416 1198l43 240h205l-41 -240h-207zM57 254q0 84 19 188l45 250q35 197 106 279q86 102 256 102q133 1 209 -69t76 -189q0 -29 -8 -96h-195q4 33 4 67q0 111 -90 111q-59 0 -93 -51t-56 -178l-49 -281q-14 -84 -15 -127q0 -102 88 -102q115 0 148 174h198
q-23 -164 -75 -238q-86 -115 -279 -114q-289 0 -289 274z" />
    <glyph glyph-name="Ccaron" unicode="&#x10c;" horiz-adv-x="931" 
d="M680 1737l108 161h205l-254 -292h-155l-152 292h195zM418 -20q-168 0 -254 80t-86 231q0 78 22 219l93 522q25 137 53 210q29 73 80 126q104 113 280 113t264 -75t88 -212q0 -51 -14 -139h-207q8 66 8 100q0 143 -127 143q-88 0 -132 -68t-76 -253l-88 -494
q-20 -117 -21 -180q0 -141 129 -141q88 0 137 64t76 206h215q-33 -188 -100 -282q-119 -170 -340 -170z" />
    <glyph glyph-name="ccaron" unicode="&#x10d;" horiz-adv-x="780" 
d="M547 1321l108 162h205l-254 -293h-155l-152 293h195zM57 254q0 84 19 188l45 250q35 197 106 279q86 102 256 102q133 1 209 -69t76 -189q0 -29 -8 -96h-195q4 33 4 67q0 111 -90 111q-59 0 -93 -51t-56 -178l-49 -281q-14 -84 -15 -127q0 -102 88 -102q115 0 148 174
h198q-23 -164 -75 -238q-86 -115 -279 -114q-289 0 -289 274z" />
    <glyph glyph-name="Dcaron" unicode="&#x10e;" horiz-adv-x="1003" 
d="M649 1737l109 161h205l-254 -292h-156l-152 292h195zM416 182q115 0 166 60t84 231l90 516q14 86 14 158q0 133 -162 133h-125l-192 -1098h125zM598 1462q217 0 303 -65q98 -80 98 -236q0 -76 -18 -174l-104 -592q-31 -213 -142 -306t-327 -89h-375l258 1462h307z" />
    <glyph glyph-name="dcaron" unicode="&#x10f;" horiz-adv-x="1044" 
d="M918 969l143 518h201l-195 -518h-149zM360 166q123 0 170 264l35 193q12 68 13 127q0 139 -97 139q-57 -1 -92 -49t-55 -154l-45 -264q-14 -70 -15 -139q0 -117 86 -117zM307 -20q-248 0 -248 266q0 84 23 219l43 246q33 193 109 277t202 83q126 0 197 -65l80 456h215
l-258 -1462h-166l-2 68q-49 -52 -89 -70t-106 -18z" />
    <glyph glyph-name="Dcroat" unicode="&#x110;" horiz-adv-x="1003" 
d="M416 182q115 0 166 60t84 231l90 516q14 80 14 158q0 133 -162 133h-125l-80 -451h166l-32 -182h-164l-82 -465h125zM598 1462q217 0 303 -65q98 -80 98 -234q0 -78 -18 -176l-104 -594q-31 -211 -143 -304t-326 -89h-375l114 647h-108l33 182h106l113 633h307z" />
    <glyph glyph-name="dcroat" unicode="&#x111;" horiz-adv-x="862" 
d="M360 166q123 0 170 264l35 193q12 68 13 127q0 139 -97 139q-57 -1 -92 -49t-55 -154l-45 -264q-14 -70 -15 -139q0 -117 86 -117zM307 -20q-248 0 -248 266q0 84 23 219l43 246q33 193 109 277t200 83q126 0 199 -65l29 159h-216l27 156h215l25 141h215l-27 -141h107
l-27 -156h-107l-204 -1165h-166l-2 68q-49 -52 -89 -70t-106 -18z" />
    <glyph glyph-name="Emacron" unicode="&#x112;" horiz-adv-x="862" 
d="M414 1661l26 160h478l-29 -160h-475zM35 0l258 1462h663l-32 -190h-439l-77 -441h370l-33 -190h-372l-80 -451h446l-32 -190h-672z" />
    <glyph glyph-name="emacron" unicode="&#x113;" horiz-adv-x="845" 
d="M299 1245l27 160h477l-29 -160h-475zM598 793q0 104 -104 104q-70 0 -105 -46t-55 -163l-10 -51h254q20 111 20 156zM367 158q63 0 99 40t52 128h201q-23 -164 -80 -236q-88 -111 -283 -110q-297 0 -297 286q0 88 21 199l35 197q39 225 125 317t258 92q299 0 299 -283
q0 -92 -41 -315h-461l-16 -94q-10 -47 -11 -117q0 -104 99 -104z" />
    <glyph glyph-name="Ebreve" unicode="&#x114;" horiz-adv-x="862" 
d="M649 1749q63 0 96 32t56 115h139q-20 -168 -86 -236t-209 -67q-238 0 -237 176q0 43 12 127h133l-4 -53q0 -94 100 -94zM35 0l258 1462h663l-32 -190h-439l-77 -441h370l-33 -190h-372l-80 -451h446l-32 -190h-672z" />
    <glyph glyph-name="ebreve" unicode="&#x115;" horiz-adv-x="845" 
d="M551 1331q63 0 95 31t56 117h140q-24 -170 -88 -237t-207 -66q-238 0 -238 176q1 45 13 127h133l-4 -54q0 -94 100 -94zM598 793q0 104 -104 104q-70 0 -105 -46t-55 -163l-10 -51h254q20 111 20 156zM367 158q63 0 99 40t52 128h201q-23 -164 -80 -236
q-88 -111 -283 -110q-297 0 -297 286q0 88 21 199l35 197q39 225 125 317t258 92q299 0 299 -283q0 -92 -41 -315h-461l-16 -94q-10 -47 -11 -117q0 -104 99 -104z" />
    <glyph glyph-name="Edotaccent" unicode="&#x116;" horiz-adv-x="862" 
d="M547 1612l43 239h205l-41 -239h-207zM35 0l258 1462h663l-32 -190h-439l-77 -441h370l-33 -190h-372l-80 -451h446l-32 -190h-672z" />
    <glyph glyph-name="edotaccent" unicode="&#x117;" horiz-adv-x="845" 
d="M434 1198l43 240h205l-41 -240h-207zM598 793q0 104 -104 104q-70 0 -105 -46t-55 -163l-10 -51h254q20 111 20 156zM367 158q63 0 99 40t52 128h201q-23 -164 -80 -236q-88 -111 -283 -110q-297 0 -297 286q0 88 21 199l35 197q39 225 125 317t258 92q299 0 299 -283
q0 -92 -41 -315h-461l-16 -94q-10 -47 -11 -117q0 -104 99 -104z" />
    <glyph glyph-name="Eogonek" unicode="&#x118;" horiz-adv-x="862" 
d="M586 -289q51 0 102 21l4 -113q-82 -35 -168 -35q-188 0 -188 142t213 274h-514l258 1462h663l-32 -190h-439l-77 -441h370l-33 -190h-372l-80 -451h446l-32 -190q-101 -86 -137 -136t-36 -102t52 -51z" />
    <glyph glyph-name="eogonek" unicode="&#x119;" horiz-adv-x="845" 
d="M598 793q0 104 -104 104q-70 0 -105 -46t-55 -163l-10 -51h254q20 111 20 156zM362 -240q0 -49 60 -49q41 0 92 21l4 -113q-82 -35 -168 -35q-186 0 -186 142q0 127 158 256q-135 8 -199 77q-63 71 -63 183t20 223l35 197q39 225 125 317t258 92q299 0 299 -283
q0 -92 -41 -315h-461l-16 -94q-10 -72 -11 -119q0 -104 99 -104q63 0 99 40t52 130h201q-15 -139 -63 -214t-138 -108q-88 -82 -122 -135t-34 -109z" />
    <glyph glyph-name="Ecaron" unicode="&#x11a;" horiz-adv-x="862" 
d="M668 1737l108 161h205l-254 -292h-156l-151 292h194zM35 0l258 1462h663l-32 -190h-439l-77 -441h370l-33 -190h-372l-80 -451h446l-32 -190h-672z" />
    <glyph glyph-name="ecaron" unicode="&#x11b;" horiz-adv-x="845" 
d="M555 1321l109 162h204l-254 -293h-155l-152 293h195zM598 793q0 104 -104 104q-70 0 -105 -46t-55 -163l-10 -51h254q20 111 20 156zM367 158q63 0 99 40t52 128h201q-23 -164 -80 -236q-88 -111 -283 -110q-297 0 -297 286q0 88 21 199l35 197q39 225 125 317t258 92
q299 0 299 -283q0 -92 -41 -315h-461l-16 -94q-10 -47 -11 -117q0 -104 99 -104z" />
    <glyph glyph-name="Gcircumflex" unicode="&#x11c;" horiz-adv-x="978" 
d="M696 1774l-108 -162h-205l254 291h156l151 -291h-194zM432 -20q-354 0 -354 315q0 74 22 215l93 522q25 139 53 211q29 72 82 125q113 113 291 113t267 -75t89 -212q0 -51 -14 -139h-207q8 63 8 98q0 145 -131 145q-94 0 -142 -69q-47 -70 -79 -252l-88 -494
q-20 -125 -21 -174q0 -147 137 -147q94 0 147 69q52 70 81 232l26 149h-160l31 176h383l-57 -317q-25 -143 -51 -217t-72 -131q-117 -143 -334 -143z" />
    <glyph glyph-name="gcircumflex" unicode="&#x11d;" horiz-adv-x="862" 
d="M588 1358l-109 -162h-205l254 291h156l152 -291h-195zM358 166q125 0 172 264l33 193q14 74 15 127q0 139 -97 139q-112 0 -147 -203l-49 -283q-12 -61 -13 -122q0 -115 86 -115zM307 -20q-250 0 -250 266q0 78 25 219l43 246q35 193 109 277t208 83q133 0 213 -88l33 68
h166l-199 -1127q-39 -221 -127 -313t-262 -92q-130 0 -200 53t-70 152q0 51 12 114h191q-4 -31 -4 -59q0 -88 86 -88q68 0 102 52t59 189l19 101q-70 -53 -154 -53z" />
    <glyph glyph-name="Gbreve" unicode="&#x11e;" horiz-adv-x="978" 
d="M674 1749q63 0 96 32t55 115h140q-20 -168 -86 -236t-209 -67q-238 0 -238 176q0 43 12 127h134l-5 -53q0 -94 101 -94zM432 -20q-354 0 -354 315q0 74 22 215l93 522q25 139 53 211q29 72 82 125q113 113 291 113t267 -75t89 -212q0 -51 -14 -139h-207q8 63 8 98
q0 145 -131 145q-94 0 -142 -69q-47 -70 -79 -252l-88 -494q-20 -125 -21 -174q0 -147 137 -147q94 0 147 69q52 70 81 232l26 149h-160l31 176h383l-57 -317q-25 -143 -51 -217t-72 -131q-117 -143 -334 -143z" />
    <glyph glyph-name="gbreve" unicode="&#x11f;" horiz-adv-x="862" 
d="M575 1331q63 0 96 31q32 31 56 117h139q-24 -170 -88 -237t-207 -66q-238 0 -237 176q0 45 12 127h133l-4 -54q0 -94 100 -94zM358 166q125 0 172 264l33 193q14 74 15 127q0 139 -97 139q-112 0 -147 -203l-49 -283q-12 -61 -13 -122q0 -115 86 -115zM307 -20
q-250 0 -250 266q0 78 25 219l43 246q35 193 109 277t208 83q133 0 213 -88l33 68h166l-199 -1127q-39 -221 -127 -313t-262 -92q-130 0 -200 53t-70 152q0 51 12 114h191q-4 -31 -4 -59q0 -88 86 -88q68 0 102 52t59 189l19 101q-70 -53 -154 -53z" />
    <glyph glyph-name="Gdotaccent" unicode="&#x120;" horiz-adv-x="978" 
d="M565 1612l43 239h205l-41 -239h-207zM432 -20q-354 0 -354 315q0 74 22 215l93 522q25 139 53 211q29 72 82 125q113 113 291 113t267 -75t89 -212q0 -51 -14 -139h-207q8 63 8 98q0 145 -131 145q-94 0 -142 -69q-47 -70 -79 -252l-88 -494q-20 -125 -21 -174
q0 -147 137 -147q94 0 147 69q52 70 81 232l26 149h-160l31 176h383l-57 -317q-25 -143 -51 -217t-72 -131q-117 -143 -334 -143z" />
    <glyph glyph-name="gdotaccent" unicode="&#x121;" horiz-adv-x="862" 
d="M461 1198l43 240h205l-41 -240h-207zM358 166q125 0 172 264l33 193q14 74 15 127q0 139 -97 139q-112 0 -147 -203l-49 -283q-12 -61 -13 -122q0 -115 86 -115zM307 -20q-250 0 -250 266q0 78 25 219l43 246q35 193 109 277t208 83q133 0 213 -88l33 68h166l-199 -1127
q-39 -221 -127 -313t-262 -92q-130 0 -200 53t-70 152q0 51 12 114h191q-4 -31 -4 -59q0 -88 86 -88q68 0 102 52t59 189l19 101q-70 -53 -154 -53z" />
    <glyph glyph-name="Gcommaaccent" unicode="&#x122;" horiz-adv-x="978" 
d="M172 -471l131 336h203l-191 -336h-143zM432 -20q-354 0 -354 315q0 74 22 215l93 522q25 139 53 211q29 72 82 125q113 113 291 113t267 -75t89 -212q0 -51 -14 -139h-207q8 63 8 98q0 145 -131 145q-94 0 -142 -69q-47 -70 -79 -252l-88 -494q-20 -125 -21 -174
q0 -147 137 -147q94 0 147 69q52 70 81 232l26 149h-160l31 176h383l-57 -317q-25 -143 -51 -217t-72 -131q-117 -143 -334 -143z" />
    <glyph glyph-name="gcommaaccent" unicode="&#x123;" horiz-adv-x="862" 
d="M446 1190l256 303h158l-176 -303h-238zM358 166q125 0 172 264l33 193q14 74 15 127q0 139 -97 139q-112 0 -147 -203l-49 -283q-12 -61 -13 -122q0 -115 86 -115zM307 -20q-250 0 -250 266q0 78 25 219l43 246q35 193 109 277t208 83q133 0 213 -88l33 68h166
l-199 -1127q-39 -221 -127 -313t-262 -92q-130 0 -200 53t-70 152q0 51 12 114h191q-4 -31 -4 -59q0 -88 86 -88q68 0 102 52t59 189l19 101q-70 -53 -154 -53z" />
    <glyph glyph-name="Hcircumflex" unicode="&#x124;" horiz-adv-x="1015" 
d="M731 1774l-108 -162h-205l254 291h155l152 -291h-195zM35 0l258 1462h225l-110 -631h313l110 631h226l-258 -1462h-226l115 641h-315l-113 -641h-225z" />
    <glyph glyph-name="hcircumflex" unicode="&#x125;" horiz-adv-x="866" 
d="M469 1774l-109 -162h-204l254 291h155l152 -291h-195zM582 1071q108 0 168 -59t61 -172q0 -72 -23 -203l-112 -637h-213l112 647q16 90 17 131q0 106 -88 107q-70 1 -108 -57t-62 -201l-111 -627h-215l258 1462h213l-78 -448q73 57 181 57z" />
    <glyph glyph-name="Hbar" unicode="&#x126;" horiz-adv-x="1015" 
d="M408 831h313l31 185h-314zM35 0l178 1016h-113l29 162h113l51 284h225l-51 -284h313l51 284h226l-51 -284h114l-28 -162h-115l-178 -1016h-226l115 641h-315l-113 -641h-225z" />
    <glyph glyph-name="hbar" unicode="&#x127;" horiz-adv-x="866" 
d="M583 1071q110 0 170 -59t60 -172q0 -66 -25 -203l-112 -637h-213l112 647q18 90 19 129q0 109 -90 109q-70 1 -108 -57t-62 -201l-111 -627h-215l205 1165h-107l27 156h109l24 141h213l-24 -141h215l-27 -156h-215l-27 -151q72 57 182 57z" />
    <glyph glyph-name="Itilde" unicode="&#x128;" horiz-adv-x="477" 
d="M372 1890q73 0 121 -63t66 -64q39 0 66 113h129q-33 -144 -79 -204t-126 -60t-127 67q-25 37 -36 48t-24 12q-42 0 -73 -113h-127q37 140 87 202t123 62zM35 0l258 1462h225l-258 -1462h-225z" />
    <glyph glyph-name="itilde" unicode="&#x129;" horiz-adv-x="428" 
d="M459 1350q39 0 65 112h129q-33 -146 -79 -206t-126 -60t-126 68q-25 37 -36 48t-24 11q-43 0 -74 -113h-127q37 142 86 204t123 62t122 -62q48 -64 67 -64zM14 0l185 1051h215l-185 -1051h-215z" />
    <glyph glyph-name="Imacron" unicode="&#x12a;" horiz-adv-x="477" 
d="M203 1661l26 160h478l-29 -160h-475zM35 0l258 1462h225l-258 -1462h-225z" />
    <glyph glyph-name="imacron" unicode="&#x12b;" horiz-adv-x="428" 
d="M100 1245l27 160h477l-29 -160h-475zM14 0l185 1051h215l-185 -1051h-215z" />
    <glyph glyph-name="Ibreve" unicode="&#x12c;" horiz-adv-x="477" 
d="M451 1749q63 0 96 32t55 115h139q-20 -168 -86 -236t-209 -67q-238 0 -237 176q0 43 12 127h133l-4 -53q0 -94 101 -94zM35 0l258 1462h225l-258 -1462h-225z" />
    <glyph glyph-name="ibreve" unicode="&#x12d;" horiz-adv-x="428" 
d="M348 1331q63 0 95 31t57 117h139q-23 -170 -87 -237t-208 -66q-238 0 -238 176q1 45 13 127h133l-4 -54q0 -94 100 -94zM14 0l185 1051h215l-185 -1051h-215z" />
    <glyph glyph-name="Iogonek" unicode="&#x12e;" horiz-adv-x="477" 
d="M138 -289q50 0 104 21l2 -113q-78 -35 -168 -35q-186 0 -187 140q0 145 213 276h-67l258 1462h225l-258 -1462q-100 -86 -136 -136t-36 -102t50 -51z" />
    <glyph glyph-name="iogonek" unicode="&#x12f;" horiz-adv-x="428" 
d="M231 1223l43 247h215l-45 -247h-213zM57 -240q0 -49 60 -49q41 0 94 21l2 -113q-78 -35 -168 -35q-186 0 -186 140q0 147 213 276h-58l187 1051h213l-185 -1051q-100 -86 -136 -136t-36 -104z" />
    <glyph glyph-name="Idotaccent" unicode="&#x130;" horiz-adv-x="477" 
d="M328 1612l43 239h204l-40 -239h-207zM35 0l258 1462h225l-258 -1462h-225z" />
    <glyph glyph-name="dotlessi" unicode="&#x131;" horiz-adv-x="428" 
d="M14 0l185 1051h215l-185 -1051h-215z" />
    <glyph glyph-name="IJ" unicode="&#x132;" horiz-adv-x="956" 
d="M342 -315q84 0 123 108q18 47 47 205l258 1464h225l-262 -1493q-43 -246 -92 -325q-92 -143 -287 -144q-92 0 -190 35l112 170q33 -20 66 -20zM35 0l258 1462h225l-258 -1462h-225z" />
    <glyph glyph-name="ij" unicode="&#x133;" horiz-adv-x="854" 
d="M627 1051h215l-191 -1078q-41 -268 -136 -359t-329 -85l33 180q95 -5 145 59t74 220zM657 1223l43 247h215l-43 -247h-215zM14 0l185 1051h215l-185 -1051h-215zM229 1223l45 247h213l-43 -247h-215z" />
    <glyph glyph-name="Jcircumflex" unicode="&#x134;" horiz-adv-x="692" 
d="M641 1774l-109 -162h-204l254 291h155l152 -291h-195zM186 -20q-102 0 -174 32t-135 103l156 143q69 -96 145 -96t115 108q23 63 47 207l174 985h225l-180 -1022q-31 -178 -43 -224t-45 -95q-88 -141 -285 -141z" />
    <glyph glyph-name="jcircumflex" unicode="&#x135;" horiz-adv-x="436" 
d="M367 1358l-109 -162h-205l254 291h156l151 -291h-194zM205 1051h213l-189 -1078q-41 -270 -136 -360t-329 -84l31 180q97 -5 147 59t74 220z" />
    <glyph glyph-name="Kcommaaccent" unicode="&#x136;" horiz-adv-x="919" 
d="M195 -471l131 336h202l-190 -336h-143zM37 0l258 1462h225l-108 -608l442 608h244l-465 -604l221 -858h-233l-158 692l-107 -157l-94 -535h-225z" />
    <glyph glyph-name="kcommaaccent" unicode="&#x137;" horiz-adv-x="825" 
d="M106 -471l132 336h202l-190 -336h-144zM16 0l258 1462h213l-153 -878l346 467h225l-352 -439l176 -612h-225l-109 453l-110 -148l-54 -305h-215z" />
    <glyph glyph-name="kgreenlandic" unicode="&#x138;" horiz-adv-x="825" 
d="M16 0l185 1051h215l-82 -467l346 467h225l-352 -439l176 -612h-225l-109 453l-110 -148l-54 -305h-215z" />
    <glyph glyph-name="Lacute" unicode="&#x139;" horiz-adv-x="821" 
d="M356 1606l179 303h235l-254 -303h-160zM35 0l258 1462h225l-225 -1272h450l-32 -190h-676z" />
    <glyph glyph-name="lacute" unicode="&#x13a;" horiz-adv-x="481" 
d="M317 1606l179 303h235l-254 -303h-160zM285 274q-1 -50 25 -72t87 -22h19l-31 -180h-29q-162 0 -226 48t-64 167q0 80 24 223l182 1024h213l-190 -1081q-10 -57 -10 -107z" />
    <glyph glyph-name="Lcommaaccent" unicode="&#x13b;" horiz-adv-x="821" 
d="M137 -471l131 336h203l-190 -336h-144zM35 0l258 1462h225l-225 -1272h450l-32 -190h-676z" />
    <glyph glyph-name="lcommaaccent" unicode="&#x13c;" horiz-adv-x="481" 
d="M-66 -471l132 336h202l-190 -336h-144zM283 269q0 -89 112 -89h21l-33 -180h-27q-164 0 -228 48t-65 167q0 70 27 223l180 1024h215l-192 -1081q-10 -68 -10 -112z" />
    <glyph glyph-name="Lcaron" unicode="&#x13d;" horiz-adv-x="821" 
d="M563 969l144 518h200l-194 -518h-150zM35 0l258 1462h225l-225 -1272h450l-32 -190h-676z" />
    <glyph glyph-name="lcaron" unicode="&#x13e;" horiz-adv-x="641" 
d="M514 969l143 518h201l-194 -518h-150zM285 274q-1 -50 25 -72t87 -22h19l-31 -180h-29q-162 0 -226 48t-64 167q0 80 24 223l182 1024h213l-190 -1081q-10 -57 -10 -107z" />
    <glyph glyph-name="Ldot" unicode="&#x13f;" horiz-adv-x="821" 
d="M559 616l41 238h186l-41 -238h-186zM35 0l258 1462h225l-225 -1272h450l-32 -190h-676z" />
    <glyph glyph-name="ldot" unicode="&#x140;" horiz-adv-x="604" 
d="M436 616l43 238h187l-43 -238h-187zM285 274q-1 -50 25 -72t87 -22h19l-31 -180h-29q-162 0 -226 48t-64 167q0 80 24 223l182 1024h213l-190 -1081q-10 -57 -10 -107z" />
    <glyph glyph-name="Lslash" unicode="&#x141;" horiz-adv-x="821" 
d="M35 0l71 401l-114 -84l37 207l112 84l152 854h225l-121 -686l299 223l-37 -204l-299 -224l-67 -381h450l-32 -190h-676z" />
    <glyph glyph-name="lslash" unicode="&#x142;" horiz-adv-x="518" 
d="M303 274q0 -50 26 -72t87 -22h18l-31 -180h-28q-159 0 -225 47t-66 164q0 68 16 170l25 145l-145 -104l36 215l148 104l127 721h213l-98 -563l190 135l-39 -215l-190 -135l-54 -303q-10 -57 -10 -107z" />
    <glyph glyph-name="Nacute" unicode="&#x143;" horiz-adv-x="1064" 
d="M633 1606l178 303h236l-254 -303h-160zM35 0l258 1462h223l201 -999l176 999h213l-258 -1462h-213l-211 1012l-178 -1012h-211z" />
    <glyph glyph-name="nacute" unicode="&#x144;" horiz-adv-x="866" 
d="M436 1190l178 303h236l-254 -303h-160zM575 1071q115 0 175 -59q60 -58 61 -156q0 -98 -23 -221l-112 -635h-213l112 647q16 82 17 129q0 109 -90 109q-68 1 -106 -57t-64 -201l-109 -627h-215l185 1051h161l2 -76q52 55 100 75t119 21z" />
    <glyph glyph-name="Ncommaaccent" unicode="&#x145;" horiz-adv-x="1064" 
d="M221 -471l131 336h203l-190 -336h-144zM35 0l258 1462h223l201 -999l176 999h213l-258 -1462h-213l-211 1012l-178 -1012h-211z" />
    <glyph glyph-name="ncommaaccent" unicode="&#x146;" horiz-adv-x="866" 
d="M121 -471l131 336h203l-191 -336h-143zM575 1071q115 0 175 -59q60 -58 61 -156q0 -98 -23 -221l-112 -635h-213l112 647q16 82 17 129q0 109 -90 109q-68 1 -106 -57t-64 -201l-109 -627h-215l185 1051h161l2 -76q52 55 100 75t119 21z" />
    <glyph glyph-name="Ncaron" unicode="&#x147;" horiz-adv-x="1064" 
d="M745 1737l109 161h205l-254 -292h-156l-151 292h194zM35 0l258 1462h223l201 -999l176 999h213l-258 -1462h-213l-211 1012l-178 -1012h-211z" />
    <glyph glyph-name="ncaron" unicode="&#x148;" horiz-adv-x="866" 
d="M555 1321l109 162h204l-254 -293h-155l-152 293h195zM575 1071q115 0 175 -59q60 -58 61 -156q0 -98 -23 -221l-112 -635h-213l112 647q16 82 17 129q0 109 -90 109q-68 1 -106 -57t-64 -201l-109 -627h-215l185 1051h161l2 -76q52 55 100 75t119 21z" />
    <glyph glyph-name="napostrophe" unicode="&#x149;" horiz-adv-x="1013" 
d="M45 950l137 512h230l-179 -512h-188zM938 840q0 -63 -23 -205l-112 -635h-215l114 647q16 96 17 127q0 111 -90 111q-70 1 -107 -57t-63 -201l-111 -627h-213l184 1051h160l4 -76q53 53 101 75t118 21q116 0 176 -59t60 -172z" />
    <glyph glyph-name="Eng" unicode="&#x14a;" horiz-adv-x="1064" 
d="M35 0l258 1462h223l201 -999l176 999h213l-262 -1480q-41 -260 -139 -358t-318 -95l31 172q84 -6 135 55t74 201l8 43l-211 1012l-178 -1012h-211z" />
    <glyph glyph-name="eng" unicode="&#x14b;" horiz-adv-x="866" 
d="M575 1071q115 0 175 -59q60 -58 61 -156q0 -98 -23 -221l-110 -629q-45 -279 -144 -379t-327 -98l33 180q94 -6 145 59t76 220l114 659q16 82 17 129q0 109 -90 109q-68 1 -106 -57t-64 -201l-109 -627h-215l185 1051h161l2 -76q52 55 100 75t119 21z" />
    <glyph glyph-name="Omacron" unicode="&#x14c;" horiz-adv-x="1003" 
d="M442 1661l27 160h477l-28 -160h-476zM778 1159q0 141 -145 141q-96 0 -144 -64q-47 -65 -77 -241l-95 -528q-18 -115 -18 -162q0 -143 145 -143q96 0 144 64q47 65 78 241l92 528q20 109 20 164zM637 1483q365 0 364 -316q0 -74 -20 -190l-100 -571q-23 -123 -49 -188
q-94 -239 -392 -238q-186 0 -275 76t-89 239q0 71 20 190l101 572q23 123 47 187q90 238 393 239z" />
    <glyph glyph-name="omacron" unicode="&#x14d;" horiz-adv-x="858" 
d="M313 1245l27 160h477l-29 -160h-475zM594 786q0 106 -98 107q-72 0 -109 -49t-57 -174l-51 -289q-14 -84 -15 -117q0 -106 98 -106q70 0 107 49q36 49 59 174l52 289q14 84 14 116zM498 1071q305 0 305 -274q0 -70 -21 -185l-45 -254q-37 -206 -122 -292t-255 -86
q-305 0 -305 274q1 75 19 184l45 254q35 199 108 277q94 102 271 102z" />
    <glyph glyph-name="Obreve" unicode="&#x14e;" horiz-adv-x="1003" 
d="M713 1749q63 0 96 32t55 115h140q-20 -168 -86 -236t-209 -67q-238 0 -238 176q0 43 12 127h133l-4 -53q0 -94 101 -94zM778 1159q0 141 -145 141q-96 0 -144 -64q-47 -65 -77 -241l-95 -528q-18 -115 -18 -162q0 -143 145 -143q96 0 144 64q47 65 78 241l92 528
q20 109 20 164zM637 1483q365 0 364 -316q0 -74 -20 -190l-100 -571q-23 -123 -49 -188q-94 -239 -392 -238q-186 0 -275 76t-89 239q0 71 20 190l101 572q23 123 47 187q90 238 393 239z" />
    <glyph glyph-name="obreve" unicode="&#x14f;" horiz-adv-x="858" 
d="M567 1331q63 0 96 31q32 31 56 117h139q-24 -170 -88 -237t-207 -66q-238 0 -237 176q0 45 12 127h133l-4 -54q0 -94 100 -94zM594 786q0 106 -98 107q-72 0 -109 -49t-57 -174l-51 -289q-14 -84 -15 -117q0 -106 98 -106q70 0 107 49q36 49 59 174l52 289q14 84 14 116z
M498 1071q305 0 305 -274q0 -70 -21 -185l-45 -254q-37 -206 -122 -292t-255 -86q-305 0 -305 274q1 75 19 184l45 254q35 199 108 277q94 102 271 102z" />
    <glyph glyph-name="Ohungarumlaut" unicode="&#x150;" horiz-adv-x="1003" 
d="M729 1606l152 303h217l-221 -303h-148zM469 1606l152 303h215l-220 -303h-147zM778 1159q0 141 -145 141q-96 0 -144 -64q-47 -65 -77 -241l-95 -528q-18 -115 -18 -162q0 -143 145 -143q96 0 144 64q47 65 78 241l92 528q20 109 20 164zM637 1483q365 0 364 -316
q0 -74 -20 -190l-100 -571q-23 -123 -49 -188q-94 -239 -392 -238q-186 0 -275 76t-89 239q0 71 20 190l101 572q23 123 47 187q90 238 393 239z" />
    <glyph glyph-name="ohungarumlaut" unicode="&#x151;" horiz-adv-x="858" 
d="M584 1190l151 303h217l-221 -303h-147zM324 1190l151 303h215l-219 -303h-147zM594 786q0 106 -98 107q-72 0 -109 -49t-57 -174l-51 -289q-14 -84 -15 -117q0 -106 98 -106q70 0 107 49q36 49 59 174l52 289q14 84 14 116zM498 1071q305 0 305 -274q0 -70 -21 -185
l-45 -254q-37 -206 -122 -292t-255 -86q-305 0 -305 274q1 75 19 184l45 254q35 199 108 277q94 102 271 102z" />
    <glyph glyph-name="OE" unicode="&#x152;" horiz-adv-x="1409" 
d="M299 296q0 -54 37 -92q36 -36 118 -36t134 66q51 67 80 231l94 530q18 115 18 171t-37 92t-119 36t-134 -66q-49 -67 -78 -233l-95 -530q-18 -115 -18 -169zM398 -20q-158 0 -240 80t-82 231q0 70 22 194l101 570q35 211 116 305q101 123 291 123t264 -86l11 65h626
l-32 -190h-441l-78 -441h373l-33 -190h-372l-82 -451h448l-33 -190h-634l12 66q-80 -86 -237 -86z" />
    <glyph glyph-name="oe" unicode="&#x153;" horiz-adv-x="1312" 
d="M961 897q-70 0 -105 -45t-57 -164l-8 -51h253q20 102 21 156q0 104 -104 104zM592 784q0 109 -98 109q-70 0 -107 -49t-57 -174l-51 -291q-14 -82 -15 -115q0 -106 98 -106q72 0 108 49q35 49 58 172l52 291q12 63 12 114zM490 1071q177 0 249 -102q90 102 240 102
q285 0 285 -276q0 -88 -43 -322h-461l-17 -94q-14 -78 -14 -115q0 -106 100 -106q63 0 102 40q38 40 54 128h199q-23 -168 -80 -240q-84 -106 -261 -106t-253 104q-90 -104 -246 -104q-289 0 -289 270q1 71 19 182l45 256q37 203 106 281q88 102 265 102z" />
    <glyph glyph-name="Racute" unicode="&#x154;" horiz-adv-x="962" 
d="M551 1606l178 303h236l-254 -303h-160zM500 793q70 0 110 17t70 60q70 102 70 256q0 86 -35 120t-123 34h-111l-86 -487h105zM602 1462q209 0 287 -67q94 -82 94 -238q0 -111 -32 -227t-86 -186t-165 -107l123 -637h-250l-94 616h-108l-109 -616h-225l258 1462h307z" />
    <glyph glyph-name="racute" unicode="&#x155;" horiz-adv-x="610" 
d="M352 1190l178 303h236l-254 -303h-160zM10 0l185 1051h163l15 -82q43 57 84 80t113 23t143 -62l-127 -181q-44 59 -100 59t-96 -86q-40 -87 -77 -292l-88 -510h-215z" />
    <glyph glyph-name="Rcommaaccent" unicode="&#x156;" horiz-adv-x="962" 
d="M182 -471l131 336h203l-190 -336h-144zM500 793q70 0 110 17t70 60q70 102 70 256q0 86 -35 120t-123 34h-111l-86 -487h105zM602 1462q209 0 287 -67q94 -82 94 -238q0 -111 -32 -227t-86 -186t-165 -107l123 -637h-250l-94 616h-108l-109 -616h-225l258 1462h307z" />
    <glyph glyph-name="rcommaaccent" unicode="&#x157;" horiz-adv-x="610" 
d="M-131 -471l131 336h203l-191 -336h-143zM10 0l185 1051h163l13 -82q45 57 86 80t111 23t143 -62l-125 -181q-44 59 -100 59t-96 -85q-40 -86 -77 -293l-90 -510h-213z" />
    <glyph glyph-name="Rcaron" unicode="&#x158;" horiz-adv-x="962" 
d="M643 1737l109 161h204l-254 -292h-155l-152 292h195zM500 793q70 0 110 17t70 60q70 102 70 256q0 86 -35 120t-123 34h-111l-86 -487h105zM602 1462q209 0 287 -67q94 -82 94 -238q0 -111 -32 -227t-86 -186t-165 -107l123 -637h-250l-94 616h-108l-109 -616h-225
l258 1462h307z" />
    <glyph glyph-name="rcaron" unicode="&#x159;" horiz-adv-x="610" 
d="M463 1321l108 162h205l-254 -293h-155l-152 293h195zM10 0l185 1051h163l15 -82q43 57 84 80t113 23t143 -62l-127 -181q-44 59 -100 59t-96 -86q-40 -87 -77 -292l-88 -510h-215z" />
    <glyph glyph-name="Sacute" unicode="&#x15a;" horiz-adv-x="876" 
d="M516 1606l178 303h236l-254 -303h-160zM582 458q0 89 -41 126q-25 20 -144 69q-238 98 -237 342q0 197 94 334q102 152 299 152q158 0 246 -82t88 -232q0 -39 -13 -112h-208q8 57 8 98q0 145 -117 145q-90 0 -132 -91t-42 -170t35 -119t125 -80q152 -63 207 -133t55 -201
q0 -217 -98 -359q-113 -166 -338 -165q-166 0 -258 80t-93 223q1 53 17 149h207q-10 -68 -11 -113q0 -158 142 -157q119 0 170 119q39 88 39 177z" />
    <glyph glyph-name="sacute" unicode="&#x15b;" horiz-adv-x="765" 
d="M387 1190l178 303h236l-254 -303h-160zM199 254q0 -96 120 -96q76 0 121 48t45 112t-24 84q-24 18 -138 54t-165 95t-52 168q0 164 90 258t235 94q146 -1 224 -65t78 -177q0 -39 -10 -86h-197q4 53 4 56q0 94 -92 94q-57 0 -93 -45q-36 -44 -36 -102t25 -82t121 -54
q96 -29 143 -59q90 -55 90 -191q0 -182 -98 -281t-264 -99t-248 64t-82 183q0 39 12 105h199q-8 -49 -8 -78z" />
    <glyph glyph-name="Scircumflex" unicode="&#x15c;" horiz-adv-x="876" 
d="M635 1774l-109 -162h-204l253 291h156l152 -291h-195zM582 458q0 89 -41 126q-25 20 -144 69q-238 98 -237 342q0 197 94 334q102 152 299 152q158 0 246 -82t88 -232q0 -39 -13 -112h-208q8 57 8 98q0 145 -117 145q-90 0 -132 -91t-42 -170t35 -119t125 -80
q152 -63 207 -133t55 -201q0 -217 -98 -359q-113 -166 -338 -165q-166 0 -258 80t-93 223q1 53 17 149h207q-10 -68 -11 -113q0 -158 142 -157q119 0 170 119q39 88 39 177z" />
    <glyph glyph-name="scircumflex" unicode="&#x15d;" horiz-adv-x="765" 
d="M524 1358l-108 -162h-205l254 291h156l151 -291h-194zM199 254q0 -96 120 -96q76 0 121 48t45 112t-24 84q-24 18 -138 54t-165 95t-52 168q0 164 90 258t235 94q146 -1 224 -65t78 -177q0 -39 -10 -86h-197q4 53 4 56q0 94 -92 94q-57 0 -93 -45q-36 -44 -36 -102
t25 -82t121 -54q96 -29 143 -59q90 -55 90 -191q0 -182 -98 -281t-264 -99t-248 64t-82 183q0 39 12 105h199q-8 -49 -8 -78z" />
    <glyph glyph-name="Scedilla" unicode="&#x15e;" horiz-adv-x="876" 
d="M104 -471l132 336h202l-190 -336h-144zM582 458q0 89 -41 126q-25 20 -144 69q-238 98 -237 342q0 197 94 334q102 152 299 152q158 0 246 -82t88 -232q0 -39 -13 -112h-208q8 57 8 98q0 145 -117 145q-90 0 -132 -91t-42 -170t35 -119t125 -80q152 -63 207 -133t55 -201
q0 -217 -98 -359q-113 -166 -338 -165q-166 0 -258 80t-93 223q1 53 17 149h207q-10 -68 -11 -113q0 -158 142 -157q119 0 170 119q39 88 39 177z" />
    <glyph glyph-name="scedilla" unicode="&#x15f;" horiz-adv-x="765" 
d="M63 -471l132 336h202l-190 -336h-144zM199 254q0 -96 120 -96q76 0 121 48t45 112t-24 84q-24 18 -138 54t-165 95t-52 168q0 164 90 258t235 94q146 -1 224 -65t78 -177q0 -39 -10 -86h-197q4 53 4 56q0 94 -92 94q-57 0 -93 -45q-36 -44 -36 -102t25 -82t121 -54
q96 -29 143 -59q90 -55 90 -191q0 -182 -98 -281t-264 -99t-248 64t-82 183q0 39 12 105h199q-8 -49 -8 -78z" />
    <glyph glyph-name="Scaron" unicode="&#x160;" horiz-adv-x="876" 
d="M621 1737l108 161h205l-254 -292h-156l-151 292h194zM582 458q0 89 -41 126q-25 20 -144 69q-238 98 -237 342q0 197 94 334q102 152 299 152q158 0 246 -82t88 -232q0 -39 -13 -112h-208q8 57 8 98q0 145 -117 145q-90 0 -132 -91t-42 -170t35 -119t125 -80
q152 -63 207 -133t55 -201q0 -217 -98 -359q-113 -166 -338 -165q-166 0 -258 80t-93 223q1 53 17 149h207q-10 -68 -11 -113q0 -158 142 -157q119 0 170 119q39 88 39 177z" />
    <glyph glyph-name="scaron" unicode="&#x161;" horiz-adv-x="765" 
d="M510 1321l108 162h205l-254 -293h-155l-152 293h195zM199 254q0 -96 120 -96q76 0 121 48t45 112t-24 84q-24 18 -138 54t-165 95t-52 168q0 164 90 258t235 94q146 -1 224 -65t78 -177q0 -39 -10 -86h-197q4 53 4 56q0 94 -92 94q-57 0 -93 -45q-36 -44 -36 -102t25 -82
t121 -54q96 -29 143 -59q90 -55 90 -191q0 -182 -98 -281t-264 -99t-248 64t-82 183q0 39 12 105h199q-8 -49 -8 -78z" />
    <glyph glyph-name="Tcommaaccent" unicode="&#x162;" horiz-adv-x="768" 
d="M45 -471l131 336h203l-191 -336h-143zM180 0l226 1272h-256l32 190h738l-33 -190h-256l-225 -1272h-226z" />
    <glyph glyph-name="tcommaaccent" unicode="&#x163;" horiz-adv-x="544" 
d="M-33 -471l131 336h205l-192 -336h-144zM305 252q1 -35 21 -53t73 -19h39l-30 -180h-58q-147 0 -208 38q-60 38 -60 132q0 59 31 246l82 458h-97l31 177h96l68 309h201l-54 -309h154l-31 -177h-153l-93 -524q-12 -63 -12 -98z" />
    <glyph glyph-name="Tcaron" unicode="&#x164;" horiz-adv-x="768" 
d="M592 1737l108 161h205l-254 -292h-155l-152 292h195zM178 0l225 1272h-256l33 190h738l-33 -190h-256l-226 -1272h-225z" />
    <glyph glyph-name="tcaron" unicode="&#x165;" horiz-adv-x="706" 
d="M608 1106l113 426h201l-164 -426h-150zM303 250q0 -68 96 -70h37l-30 -180h-58q-147 0 -208 38q-60 38 -60 132q0 57 33 246l80 458h-95l31 177h96l66 309h203l-56 -309h154l-31 -177h-153l-93 -524q-12 -68 -12 -100z" />
    <glyph glyph-name="Tbar" unicode="&#x166;" horiz-adv-x="768" 
d="M178 0l115 649h-178l30 180h179l79 443h-256l33 190h738l-33 -190h-256l-80 -443h178l-31 -180h-178l-115 -649h-225z" />
    <glyph glyph-name="tbar" unicode="&#x167;" horiz-adv-x="544" 
d="M301 250q0 -69 94 -70h39l-31 -180h-57q-152 0 -210 38t-58 134q0 61 26 207l33 188h-96l27 152h96l26 155h-94l31 177h96l66 309h203l-56 -309h154l-31 -177h-153l-27 -155h143l-26 -152h-146l-37 -217q-12 -66 -12 -100z" />
    <glyph glyph-name="Utilde" unicode="&#x168;" horiz-adv-x="1021" 
d="M642 1890q73 0 121 -63t66 -64q39 0 66 113h129q-33 -144 -79 -204t-126 -60t-127 67q-25 37 -36 48t-23 12q-43 0 -74 -113h-127q37 140 87 202t123 62zM449 162q96 0 140 57t73 219l180 1024h225l-186 -1065q-23 -129 -45 -185t-64 -108q-111 -125 -328 -124
q-352 0 -352 292q0 80 25 205l172 985h225l-180 -1024q-18 -106 -19 -143q0 -133 134 -133z" />
    <glyph glyph-name="utilde" unicode="&#x169;" horiz-adv-x="845" 
d="M668 1350q39 0 65 112h129q-33 -146 -79 -206t-126 -60t-127 68q-25 37 -35 48q-11 11 -24 11q-43 0 -74 -113h-127q37 142 86 204t123 62t122 -62q48 -64 67 -64zM352 166q63 0 99 57q35 57 61 203l111 625h213l-185 -1051h-159l-3 82q-49 -57 -94 -80t-110 -22
q-113 0 -172 59t-59 153t24 224l110 635h215l-114 -648q-16 -90 -17 -137q0 -100 80 -100z" />
    <glyph glyph-name="Umacron" unicode="&#x16a;" horiz-adv-x="1021" 
d="M463 1661l26 160h478l-29 -160h-475zM449 162q96 0 140 57t73 219l180 1024h225l-186 -1065q-23 -129 -45 -185t-64 -108q-111 -125 -328 -124q-352 0 -352 292q0 80 25 205l172 985h225l-180 -1024q-18 -106 -19 -143q0 -133 134 -133z" />
    <glyph glyph-name="umacron" unicode="&#x16b;" horiz-adv-x="845" 
d="M307 1245l27 160h477l-29 -160h-475zM352 166q63 0 99 57q35 57 61 203l111 625h213l-185 -1051h-159l-3 82q-49 -57 -94 -80t-110 -22q-113 0 -172 59t-59 153t24 224l110 635h215l-114 -648q-16 -90 -17 -137q0 -100 80 -100z" />
    <glyph glyph-name="Ubreve" unicode="&#x16c;" horiz-adv-x="1021" 
d="M723 1749q63 0 96 32t55 115h140q-20 -168 -86 -236t-209 -67q-238 0 -238 176q1 43 13 127h133l-4 -53q0 -94 100 -94zM449 162q96 0 140 57t73 219l180 1024h225l-186 -1065q-23 -129 -45 -185t-64 -108q-111 -125 -328 -124q-352 0 -352 292q0 80 25 205l172 985h225
l-180 -1024q-18 -106 -19 -143q0 -133 134 -133z" />
    <glyph glyph-name="ubreve" unicode="&#x16d;" horiz-adv-x="845" 
d="M555 1331q63 0 95 31t57 117h139q-24 -170 -88 -237t-207 -66q-238 0 -238 176q1 45 13 127h133l-4 -54q0 -94 100 -94zM352 166q63 0 99 57q35 57 61 203l111 625h213l-185 -1051h-159l-3 82q-49 -57 -94 -80t-110 -22q-113 0 -172 59t-59 153t24 224l110 635h215
l-114 -648q-16 -90 -17 -137q0 -100 80 -100z" />
    <glyph glyph-name="Uring" unicode="&#x16e;" horiz-adv-x="1021" 
d="M756 1923q-49 0 -79 -43q-30 -42 -30 -96q1 -54 19 -73t59 -19t71 43t30 115t-70 73zM751 2028q99 0 153 -52t54 -149q0 -96 -70 -168t-169 -72q-98 0 -152 52q-53 53 -53 151t69 168t168 70zM449 162q96 0 140 57t73 219l180 1024h225l-186 -1065q-23 -129 -45 -185
t-64 -108q-111 -125 -328 -124q-352 0 -352 292q0 80 25 205l172 985h225l-180 -1024q-18 -106 -19 -143q0 -133 134 -133z" />
    <glyph glyph-name="uring" unicode="&#x16f;" horiz-adv-x="845" 
d="M485 1348q0 -72 70 -72q49 0 79 43t30 97t-18 72q-18 19 -60 19q-41 0 -71 -43q-30 -44 -30 -116zM562 1171q-103 -1 -156 51q-54 52 -54 152t69 168q69 70 168 70t153 -52t54 -144t-65 -168q-66 -77 -169 -77zM352 166q63 0 99 57q35 57 61 203l111 625h213l-185 -1051
h-159l-3 82q-49 -57 -94 -80t-110 -22q-113 0 -172 59t-59 153t24 224l110 635h215l-114 -648q-16 -90 -17 -137q0 -100 80 -100z" />
    <glyph glyph-name="Uhungarumlaut" unicode="&#x170;" horiz-adv-x="1021" 
d="M739 1606l152 303h217l-221 -303h-148zM479 1606l152 303h215l-219 -303h-148zM449 162q96 0 140 57t73 219l180 1024h225l-186 -1065q-23 -129 -45 -185t-64 -108q-111 -125 -328 -124q-352 0 -352 292q0 80 25 205l172 985h225l-180 -1024q-18 -106 -19 -143
q0 -133 134 -133z" />
    <glyph glyph-name="uhungarumlaut" unicode="&#x171;" horiz-adv-x="845" 
d="M578 1190l151 303h217l-221 -303h-147zM317 1190l152 303h215l-219 -303h-148zM352 166q63 0 99 57q35 57 61 203l111 625h213l-185 -1051h-159l-3 82q-49 -57 -94 -80t-110 -22q-113 0 -172 59t-59 153t24 224l110 635h215l-114 -648q-16 -90 -17 -137q0 -100 80 -100z
" />
    <glyph glyph-name="Uogonek" unicode="&#x172;" horiz-adv-x="1021" 
d="M501 -289q50 0 101 21l4 -113q-82 -35 -168 -35q-186 0 -186 140q0 131 172 256q-160 8 -234 65q-98 80 -98 227q0 80 25 205l172 985h225l-180 -1024q-18 -111 -19 -143q0 -131 134 -131q96 0 140 57t73 217l180 1024h225l-186 -1065q-25 -170 -85 -261t-180 -134
q-166 -138 -165 -242q0 -49 50 -49z" />
    <glyph glyph-name="uogonek" unicode="&#x173;" horiz-adv-x="845" 
d="M479 -240q0 -49 60 -49q41 0 94 21l2 -113q-78 -35 -168 -35q-186 0 -186 140q0 76 46 135t165 141l-3 82q-49 -57 -94 -80t-110 -22q-113 0 -172 59t-59 153t24 224l110 635h215l-114 -648q-16 -90 -17 -137q0 -100 80 -100q63 0 99 57q35 57 61 203l111 625h213
l-185 -1051q-172 -143 -172 -240z" />
    <glyph glyph-name="Wcircumflex" unicode="&#x174;" horiz-adv-x="1400" 
d="M922 1774l-109 -162h-205l254 291h156l151 -291h-194zM188 0l13 1462h223l-49 -1054l401 1054h174l31 -1054l319 1054h226l-504 -1462h-201l-35 1020l-395 -1020h-203z" />
    <glyph glyph-name="wcircumflex" unicode="&#x175;" horiz-adv-x="1169" 
d="M721 1358l-109 -162h-204l254 291h155l152 -291h-195zM158 0l-31 1051h217l-20 -715l276 715h152l24 -715l232 715h217l-400 -1051h-184l-31 680l-268 -680h-184z" />
    <glyph glyph-name="Ycircumflex" unicode="&#x176;" horiz-adv-x="827" 
d="M639 1774l-109 -162h-204l254 291h155l152 -291h-195zM211 0l92 514l-172 948h234l96 -671l332 671h241l-506 -948l-92 -514h-225z" />
    <glyph glyph-name="ycircumflex" unicode="&#x177;" horiz-adv-x="774" 
d="M528 1358l-108 -162h-205l254 291h156l151 -291h-194zM184 -4l-71 1055h213l16 -768l279 768h219l-475 -1176q-85 -213 -175 -279t-294 -67l30 180q98 0 134 31t87 156z" />
    <glyph glyph-name="Ydieresis" unicode="&#x178;" horiz-adv-x="827" 
d="M670 1618l41 235h192l-43 -235h-190zM350 1618l41 235h191l-41 -235h-191zM211 0l92 514l-172 948h234l96 -671l332 671h241l-506 -948l-92 -514h-225z" />
    <glyph glyph-name="Zacute" unicode="&#x179;" horiz-adv-x="792" 
d="M494 1606l178 303h235l-254 -303h-159zM-57 0l20 123l649 1149h-403l33 190h655l-20 -123l-648 -1149h463l-33 -190h-716z" />
    <glyph glyph-name="zacute" unicode="&#x17a;" horiz-adv-x="675" 
d="M373 1190l178 303h235l-254 -303h-159zM-63 0l22 125l467 745h-299l31 181h555l-21 -125l-467 -746h357l-33 -180h-612z" />
    <glyph glyph-name="Zdotaccent" unicode="&#x17b;" horiz-adv-x="792" 
d="M496 1612l43 239h204l-41 -239h-206zM-57 0l20 123l649 1149h-403l33 190h655l-20 -123l-648 -1149h463l-33 -190h-716z" />
    <glyph glyph-name="zdotaccent" unicode="&#x17c;" horiz-adv-x="675" 
d="M367 1198l43 240h204l-41 -240h-206zM-63 0l22 125l467 745h-299l31 181h555l-21 -125l-467 -746h357l-33 -180h-612z" />
    <glyph glyph-name="Zcaron" unicode="&#x17d;" horiz-adv-x="792" 
d="M616 1737l109 161h205l-254 -292h-156l-151 292h194zM-57 0l20 123l649 1149h-403l33 190h655l-20 -123l-648 -1149h463l-33 -190h-716z" />
    <glyph glyph-name="zcaron" unicode="&#x17e;" horiz-adv-x="675" 
d="M487 1321l109 162h205l-254 -293h-156l-151 293h194zM-63 0l22 125l467 745h-299l31 181h555l-21 -125l-467 -746h357l-33 -180h-612z" />
    <glyph glyph-name="Ohorn" unicode="&#x1a0;" horiz-adv-x="1075" 
d="M778 1159q0 141 -145 141q-96 0 -144 -64q-47 -65 -77 -241l-95 -528q-18 -115 -18 -162q0 -143 145 -143q96 0 144 64q47 65 78 241l92 528q20 104 20 164zM1272 1432q0 -145 -90 -242q-61 -61 -189 -133q-2 -10 -5 -36t-7 -44l-100 -571q-23 -123 -49 -188
q-94 -239 -392 -238q-365 0 -364 315q0 72 20 190l101 572q23 123 47 187q91 238 393 239q180 0 266 -70t96 -221q100 88 101 211q-1 41 -13 82h183q2 -29 2 -53z" />
    <glyph glyph-name="ohorn" unicode="&#x1a1;" horiz-adv-x="937" 
d="M594 788q0 106 -98 107q-72 0 -109 -50t-57 -175l-51 -289q-14 -80 -15 -117q0 -106 98 -106q70 0 107 49q36 49 59 174l52 289q14 82 14 118zM1057 1008q0 -219 -269 -365l-2 -6l-49 -279q-35 -206 -121 -292t-256 -86q-305 0 -305 274q0 80 19 184l45 254
q35 197 108 279q94 102 271 102q305 0 305 -270v-29q84 104 84 211q-1 27 -13 80h181q2 -31 2 -57z" />
    <glyph glyph-name="Uhorn" unicode="&#x1af;" horiz-adv-x="1142" 
d="M449 162q96 0 140 57t73 219l180 1024h225l-55 -311q166 106 166 256q0 33 -15 78h180q4 -31 5 -58q0 -156 -140 -276q-61 -53 -221 -139l-106 -615q-23 -129 -45 -185t-64 -108q-111 -125 -319 -124q-360 0 -361 292q0 80 25 205l172 985h225l-180 -1024
q-18 -113 -19 -145q0 -131 134 -131z" />
    <glyph glyph-name="uhorn" unicode="&#x1b0;" horiz-adv-x="989" 
d="M352 166q63 0 100 58q36 58 60 200l111 627h213l-56 -322q164 98 164 258q0 29 -14 78h182q2 -27 2 -55q0 -130 -79 -222t-279 -198l-105 -590h-159l-3 82q-51 -57 -95 -80t-109 -22q-111 0 -171 59t-60 153t22 224l112 635h215l-114 -648q-16 -92 -17 -139q0 -98 80 -98
z" />
    <glyph glyph-name="uni01C4" unicode="&#x1c4;" horiz-adv-x="1769" 
d="M918 0l20 123l649 1149h-403l33 190h655l-21 -123l-647 -1149h463l-33 -190h-716zM1589 1737l111 161h205l-254 -292h-156l-152 292h195zM416 182q115 0 166 60t84 231l90 516q14 86 14 158q0 133 -162 133h-125l-192 -1098h125zM598 1462q217 0 303 -65q98 -80 98 -236
q0 -76 -18 -174l-104 -592q-31 -213 -142 -306t-327 -89h-375l258 1462h307z" />
    <glyph glyph-name="uni01C5" unicode="&#x1c5;" horiz-adv-x="1677" 
d="M940 0l21 125l466 745h-299l33 181h555l-22 -125l-467 -746h356l-31 -180h-612zM1489 1321l108 162h205l-254 -293h-153l-154 293h195zM416 182q115 0 166 60t84 231l90 516q14 86 14 158q0 133 -162 133h-125l-192 -1098h125zM598 1462q217 0 303 -65q98 -80 98 -236
q0 -76 -18 -174l-104 -592q-31 -213 -142 -306t-327 -89h-375l258 1462h307z" />
    <glyph glyph-name="uni01C6" unicode="&#x1c6;" horiz-adv-x="1536" 
d="M799 0l22 125l467 745h-299l31 181h555l-21 -125l-467 -746h357l-33 -180h-612zM1348 1321l110 162h205l-254 -293h-156l-151 293h194zM360 166q123 0 170 264l35 193q12 68 13 127q0 139 -97 139q-57 -1 -92 -49t-55 -154l-45 -264q-14 -70 -15 -139q0 -117 86 -117z
M307 -20q-248 0 -248 266q0 84 23 219l43 246q33 193 109 277t202 83q126 0 197 -65l80 456h215l-258 -1462h-166l-2 68q-49 -52 -89 -70t-106 -18z" />
    <glyph glyph-name="uni01C7" unicode="&#x1c7;" horiz-adv-x="1298" 
d="M686 -315q82 0 123 108q20 61 47 205l258 1464h225l-264 -1493q-41 -248 -92 -325q-90 -143 -285 -144q-94 0 -190 35l113 170q31 -20 65 -20zM35 0l258 1462h225l-225 -1272h450l-32 -190h-676z" />
    <glyph glyph-name="uni01C8" unicode="&#x1c8;" horiz-adv-x="1257" 
d="M1030 1051h213l-188 -1078q-43 -270 -137 -360t-328 -84l31 180q96 -5 146 59t75 220zM1061 1223l43 247h213l-43 -247h-213zM35 0l258 1462h225l-225 -1272h450l-32 -190h-676z" />
    <glyph glyph-name="uni01C9" unicode="&#x1c9;" horiz-adv-x="915" 
d="M688 1051h215l-190 -1078q-41 -270 -135 -360t-328 -84l31 180q94 -3 144 59t77 220zM719 1223l43 247h215l-43 -247h-215zM285 274q-1 -50 25 -72t87 -22h19l-31 -180h-29q-162 0 -226 48t-64 167q0 80 24 223l182 1024h213l-190 -1081q-10 -57 -10 -107z" />
    <glyph glyph-name="uni01CA" unicode="&#x1ca;" horiz-adv-x="1542" 
d="M930 -315q82 0 123 108q20 61 47 205l258 1464h225l-264 -1493q-41 -246 -92 -325q-90 -143 -285 -144q-94 0 -190 35l112 170q31 -20 66 -20zM35 0l258 1462h223l201 -999l176 999h213l-258 -1462h-213l-211 1012l-178 -1012h-211z" />
    <glyph glyph-name="uni01CB" unicode="&#x1cb;" horiz-adv-x="1501" 
d="M1274 1051h213l-191 -1078q-41 -270 -135 -360t-327 -84l30 180q96 -5 146 59t75 220zM1305 1223l43 247h213l-43 -247h-213zM35 0l258 1462h223l201 -999l176 999h213l-258 -1462h-213l-211 1012l-178 -1012h-211z" />
    <glyph glyph-name="uni01CC" unicode="&#x1cc;" horiz-adv-x="1302" 
d="M1073 1051h215l-190 -1078q-41 -270 -136 -360t-329 -84l33 180q94 -3 144 59t75 220zM1104 1223l43 247h215l-45 -247h-213zM575 1071q115 0 175 -59q60 -58 61 -156q0 -98 -23 -221l-112 -635h-213l112 647q16 82 17 129q0 109 -90 109q-68 1 -106 -57t-64 -201
l-109 -627h-215l185 1051h161l2 -76q52 55 100 75t119 21z" />
    <glyph glyph-name="uni01CD" unicode="&#x1cd;" horiz-adv-x="921" 
d="M657 1737l109 161h205l-254 -292h-156l-151 292h194zM600 485l-25 666l-262 -666h287zM608 303h-364l-119 -303h-244l645 1462h197l139 -1462h-244z" />
    <glyph glyph-name="uni01CE" unicode="&#x1ce;" horiz-adv-x="823" 
d="M547 1321l108 162h205l-254 -293h-155l-152 293h195zM418 473q-199 0 -199 -227q0 -92 107 -92q70 0 102 38t49 144l25 137h-84zM551 797q0 96 -94 96q-59 0 -91 -37t-47 -121h-198q27 174 110 255q84 81 238 81q291 0 291 -268q0 -78 -19 -187l-108 -616h-168l-4 51
q-66 -71 -194 -71q-127 0 -197 59t-70 163t27 191q27 88 69 135q86 98 289 99h143l9 47q14 78 14 123z" />
    <glyph glyph-name="uni01CF" unicode="&#x1cf;" horiz-adv-x="477" 
d="M449 1737l108 161h205l-254 -292h-156l-151 292h194zM35 0l258 1462h225l-258 -1462h-225z" />
    <glyph glyph-name="uni01D0" unicode="&#x1d0;" horiz-adv-x="428" 
d="M348 1321l111 162h205l-254 -293h-156l-152 293h195zM14 0l185 1051h215l-185 -1051h-215z" />
    <glyph glyph-name="uni01D1" unicode="&#x1d1;" horiz-adv-x="1003" 
d="M711 1737l108 161h205l-254 -292h-156l-151 292h194zM778 1159q0 141 -145 141q-96 0 -144 -64q-47 -65 -77 -241l-95 -528q-18 -115 -18 -162q0 -143 145 -143q96 0 144 64q47 65 78 241l92 528q20 109 20 164zM637 1483q365 0 364 -316q0 -74 -20 -190l-100 -571
q-23 -123 -49 -188q-94 -239 -392 -238q-186 0 -275 76t-89 239q0 71 20 190l101 572q23 123 47 187q90 238 393 239z" />
    <glyph glyph-name="uni01D2" unicode="&#x1d2;" horiz-adv-x="858" 
d="M565 1321l109 162h205l-254 -293h-156l-152 293h195zM594 786q0 106 -98 107q-72 0 -109 -49t-57 -174l-51 -289q-14 -84 -15 -117q0 -106 98 -106q70 0 107 49q36 49 59 174l52 289q14 84 14 116zM498 1071q305 0 305 -274q0 -70 -21 -185l-45 -254q-37 -206 -122 -292
t-255 -86q-305 0 -305 274q1 75 19 184l45 254q35 199 108 277q94 102 271 102z" />
    <glyph glyph-name="uni01D3" unicode="&#x1d3;" horiz-adv-x="1021" 
d="M715 1737l108 161h205l-254 -292h-156l-151 292h195zM449 162q96 0 140 57t73 219l180 1024h225l-186 -1065q-23 -129 -45 -185t-64 -108q-111 -125 -328 -124q-352 0 -352 292q0 80 25 205l172 985h225l-180 -1024q-18 -106 -19 -143q0 -133 134 -133z" />
    <glyph glyph-name="uni01D4" unicode="&#x1d4;" horiz-adv-x="845" 
d="M559 1321l109 162h204l-254 -293h-155l-152 293h195zM352 166q63 0 99 57q35 57 61 203l111 625h213l-185 -1051h-159l-3 82q-49 -57 -94 -80t-110 -22q-113 0 -172 59t-59 153t24 224l110 635h215l-114 -648q-16 -90 -17 -137q0 -100 80 -100z" />
    <glyph glyph-name="Gcaron" unicode="&#x1e6;" horiz-adv-x="978" 
d="M680 1737l108 161h205l-254 -292h-155l-152 292h195zM432 -20q-354 0 -354 315q0 74 22 215l93 522q25 139 53 211q29 72 82 125q113 113 291 113t267 -75t89 -212q0 -51 -14 -139h-207q8 63 8 98q0 145 -131 145q-94 0 -142 -69q-47 -70 -79 -252l-88 -494
q-20 -125 -21 -174q0 -147 137 -147q94 0 147 69q52 70 81 232l26 149h-160l31 176h383l-57 -317q-25 -143 -51 -217t-72 -131q-117 -143 -334 -143z" />
    <glyph glyph-name="gcaron" unicode="&#x1e7;" horiz-adv-x="862" 
d="M561 1321l109 162h204l-253 -293h-156l-152 293h195zM358 166q125 0 172 264l33 193q14 74 15 127q0 139 -97 139q-112 0 -147 -203l-49 -283q-12 -61 -13 -122q0 -115 86 -115zM307 -20q-250 0 -250 266q0 78 25 219l43 246q35 193 109 277t208 83q133 0 213 -88l33 68
h166l-199 -1127q-39 -221 -127 -313t-262 -92q-130 0 -200 53t-70 152q0 51 12 114h191q-4 -31 -4 -59q0 -88 86 -88q68 0 102 52t59 189l19 101q-70 -53 -154 -53z" />
    <glyph glyph-name="uni01EA" unicode="&#x1ea;" horiz-adv-x="1003" 
d="M778 1159q0 141 -145 141q-96 0 -144 -64q-47 -65 -77 -241l-95 -528q-18 -115 -18 -162q0 -143 145 -143q96 0 144 64q47 65 78 241l92 528q20 109 20 164zM428 -416q-186 0 -186 138t174 258q-178 8 -259 82t-81 233q0 72 20 190l101 572q23 123 47 187q91 238 393 239
q365 0 364 -316q0 -73 -20 -190l-100 -571q-27 -174 -94 -272t-183 -134q-164 -135 -164 -240q0 -49 52 -49t102 21l2 -113q-78 -35 -168 -35z" />
    <glyph glyph-name="uni01EB" unicode="&#x1eb;" horiz-adv-x="858" 
d="M594 786q0 106 -98 107q-72 0 -109 -49t-57 -174l-51 -289q-14 -80 -15 -119q0 -106 98 -106q70 0 107 49q36 49 59 176l52 289q14 84 14 116zM369 -240q0 -49 50 -49t101 21l4 -113q-82 -35 -168 -35q-186 0 -186 140q0 127 162 256q-145 10 -211 76t-66 198
q0 76 19 184l45 254q35 199 108 277q94 102 271 102q305 0 305 -274q-1 -70 -21 -185l-45 -254q-23 -145 -69 -225t-129 -121q-170 -150 -170 -252z" />
    <glyph glyph-name="uni01F1" unicode="&#x1f1;" horiz-adv-x="1769" 
d="M918 0l20 123l649 1149h-403l33 190h655l-21 -123l-647 -1149h463l-33 -190h-716zM416 182q115 0 166 60t84 231l90 516q14 86 14 158q0 133 -162 133h-125l-192 -1098h125zM598 1462q217 0 303 -65q98 -80 98 -236q0 -76 -18 -174l-104 -592q-31 -213 -142 -306
t-327 -89h-375l258 1462h307z" />
    <glyph glyph-name="uni01F2" unicode="&#x1f2;" horiz-adv-x="1677" 
d="M940 0l21 125l466 745h-299l33 181h555l-22 -125l-467 -746h356l-31 -180h-612zM416 182q115 0 166 60t84 231l90 516q14 86 14 158q0 133 -162 133h-125l-192 -1098h125zM598 1462q217 0 303 -65q98 -80 98 -236q0 -76 -18 -174l-104 -592q-31 -213 -142 -306t-327 -89
h-375l258 1462h307z" />
    <glyph glyph-name="uni01F3" unicode="&#x1f3;" horiz-adv-x="1536" 
d="M799 0l22 125l467 745h-299l31 181h555l-21 -125l-467 -746h357l-33 -180h-612zM360 166q123 0 170 264l35 193q12 68 13 127q0 139 -97 139q-57 -1 -92 -49t-55 -154l-45 -264q-14 -70 -15 -139q0 -117 86 -117zM307 -20q-248 0 -248 266q0 84 23 219l43 246
q33 193 109 277t202 83q126 0 197 -65l80 456h215l-258 -1462h-166l-2 68q-49 -52 -89 -70t-106 -18z" />
    <glyph glyph-name="uni01F4" unicode="&#x1f4;" horiz-adv-x="978" 
d="M567 1606l178 303h236l-254 -303h-160zM432 -20q-354 0 -354 315q0 74 22 215l93 522q25 139 53 211q29 72 82 125q113 113 291 113t267 -75t89 -212q0 -51 -14 -139h-207q8 63 8 98q0 145 -131 145q-94 0 -142 -69q-47 -70 -79 -252l-88 -494q-20 -125 -21 -174
q0 -147 137 -147q94 0 147 69q52 70 81 232l26 149h-160l31 176h383l-57 -317q-25 -143 -51 -217t-72 -131q-117 -143 -334 -143z" />
    <glyph glyph-name="uni01F5" unicode="&#x1f5;" horiz-adv-x="862" 
d="M453 1190l178 303h235l-254 -303h-159zM358 166q125 0 172 264l33 193q14 74 15 127q0 139 -97 139q-112 0 -147 -203l-49 -283q-12 -61 -13 -122q0 -115 86 -115zM307 -20q-250 0 -250 266q0 78 25 219l43 246q35 193 109 277t208 83q133 0 213 -88l33 68h166
l-199 -1127q-39 -221 -127 -313t-262 -92q-130 0 -200 53t-70 152q0 51 12 114h191q-4 -31 -4 -59q0 -88 86 -88q68 0 102 52t59 189l19 101q-70 -53 -154 -53z" />
    <glyph glyph-name="Aringacute" unicode="&#x1fa;" horiz-adv-x="921" 
d="M596 1841l154 258h276l-281 -258h-149zM668 1696q-49 0 -79 -43t-30 -116t70 -73q49 0 79 43t30 116t-70 73zM600 485l-25 666l-262 -666h287zM426 1556q0 106 68 175t168 69t154 -52t54 -132t-39 -143t-100 -93l131 -1380h-244l-10 303h-364l-119 -303h-244l617 1397
q-72 53 -72 159z" />
    <glyph glyph-name="aringacute" unicode="&#x1fb;" horiz-adv-x="823" 
d="M512 1653l154 258h276l-280 -258h-150zM572 1479q-41 0 -71 -43t-30 -116t72 -73q47 0 77 44t29 114q0 74 -77 74zM338 1346q0 100 68 168t168 69q100 0 154 -52t54 -148t-70 -169q-71 -72 -169 -72t-152 53q-53 51 -53 151zM418 473q-199 0 -199 -227q0 -92 107 -92
q70 0 102 38t49 144l25 137h-84zM551 797q0 96 -94 96q-59 0 -91 -37t-47 -121h-198q27 174 110 255q84 81 238 81q291 0 291 -268q0 -78 -19 -187l-108 -616h-168l-4 51q-66 -71 -194 -71q-127 0 -197 59t-70 163t27 191q27 88 69 135q86 98 289 99h143l9 47q14 78 14 123z
" />
    <glyph glyph-name="AEacute" unicode="&#x1fc;" horiz-adv-x="1421" 
d="M1012 1606l178 303h235l-254 -303h-159zM688 506l135 766h-24l-434 -766h323zM655 326h-393l-184 -326h-260l880 1462h820l-33 -190h-443l-77 -441h374l-32 -190h-375l-80 -451h448l-32 -190h-670z" />
    <glyph glyph-name="aeacute" unicode="&#x1fd;" horiz-adv-x="1269" 
d="M639 1190l178 303h236l-254 -303h-160zM918 897q-70 0 -105 -46t-57 -163l-8 -51h253q20 104 21 154q0 106 -104 106zM420 473q-102 0 -150 -53q-51 -66 -51 -174q0 -94 107 -94q70 0 102 38t49 146l25 137h-82zM457 1071q166 0 241 -98q90 98 238 98q285 0 285 -278
q0 -88 -43 -320h-461l-19 -92q-12 -74 -12 -115q0 -109 100 -108q66 0 102 40t52 128h201q-27 -188 -106 -268t-251 -78q-172 0 -243 106q-98 -106 -267 -106q-274 0 -274 223q0 94 27 183t69 140q88 102 289 103h143l9 45q14 84 14 121q0 98 -90 98q-61 0 -93 -37t-49 -121
h-198q25 150 80 221q90 115 256 115z" />
    <glyph glyph-name="Oslashacute" unicode="&#x1fe;" horiz-adv-x="1003" 
d="M580 1606l178 303h235l-254 -303h-159zM336 569l430 654q-31 77 -130 77t-147 -64q-47 -65 -77 -241zM442 162q98 0 146 64q47 65 78 241l73 420l-428 -649q33 -76 131 -76zM1001 1155q0 -70 -20 -178l-100 -571q-23 -124 -47 -188q-92 -239 -392 -238q-170 0 -258 63
l-57 -86l-139 84l100 152q-12 55 -12 119t20 173l101 572q20 123 46 187q96 238 392 239q174 0 260 -66l55 84l140 -84l-99 -149q10 -43 10 -113z" />
    <glyph glyph-name="oslashacute" unicode="&#x1ff;" horiz-adv-x="858" 
d="M434 1190l178 303h236l-254 -303h-160zM492 893q-68 0 -105 -49t-57 -174l-43 -244l297 418q-24 49 -92 49zM367 158q65 0 102 49t59 174l41 229l-290 -409q23 -43 88 -43zM362 -20q-129 0 -206 49l-52 -74l-102 70l74 102q-42 102 -2 311l45 254q35 199 108 277
q94 102 271 102q131 0 209 -51l47 65l102 -67l-70 -100q34 -111 -4 -306l-45 -254q-35 -197 -106 -278q-94 -100 -269 -100z" />
    <glyph glyph-name="uni0200" unicode="&#x200;" horiz-adv-x="921" 
d="M614 1606h-147l-113 303h215zM874 1606h-147l-113 303h217zM600 485l-25 666l-262 -666h287zM608 303h-364l-119 -303h-244l645 1462h197l139 -1462h-244z" />
    <glyph glyph-name="uni0201" unicode="&#x201;" horiz-adv-x="823" 
d="M481 1190h-147l-113 303h215zM741 1190h-147l-113 303h217zM408 473q-199 0 -199 -227q0 -92 106 -92q70 0 102 38t50 144l25 137h-84zM446 893q-59 0 -91 -37t-46 -121h-198q27 174 110 255q84 81 238 81q291 0 291 -268q0 -78 -19 -187l-108 -616h-168l-4 51
q-66 -71 -194 -71t-198 59q-69 59 -69 163t26 191q27 88 70 135q86 98 289 99h143l8 47q14 78 15 123q0 96 -95 96z" />
    <glyph glyph-name="uni0202" unicode="&#x202;" horiz-adv-x="921" 
d="M784 1665q0 94 -102 94q-63 0 -96 -32t-56 -115h-137q20 168 86 236t209 67q238 0 238 -176q-1 -43 -13 -127h-135q6 43 6 53zM600 485l-25 666l-262 -666h287zM608 303h-364l-119 -303h-244l645 1462h197l139 -1462h-244z" />
    <glyph glyph-name="uni0203" unicode="&#x203;" horiz-adv-x="823" 
d="M559 1343q-63 1 -96 -31t-55 -116h-138q20 168 86 236t209 67q238 0 238 -176q0 -43 -12 -127h-136q6 43 7 53q0 94 -103 94zM418 473q-199 0 -199 -227q0 -92 107 -92q70 0 102 38t49 144l25 137h-84zM551 797q0 96 -94 96q-59 0 -91 -37t-47 -121h-198q27 174 110 255
q84 81 238 81q291 0 291 -268q0 -78 -19 -187l-108 -616h-168l-4 51q-66 -71 -194 -71q-127 0 -197 59t-70 163t27 191q27 88 69 135q86 98 289 99h143l9 47q14 78 14 123z" />
    <glyph glyph-name="uni0204" unicode="&#x204;" horiz-adv-x="862" 
d="M606 1606h-147l-113 303h215zM866 1606h-147l-113 303h217zM23 0l258 1462h663l-33 -190h-438l-78 -441h371l-33 -190h-373l-79 -451h446l-33 -190h-671z" />
    <glyph glyph-name="uni0205" unicode="&#x205;" horiz-adv-x="845" 
d="M498 1190h-148l-112 303h215zM758 1190h-148l-112 303h217zM487 897q-71 0 -105 -46t-54 -163l-11 -51h254q20 111 21 156q0 104 -105 104zM262 262q0 -104 98 -104q63 0 100 40q36 40 52 128h201q-23 -164 -80 -236q-88 -111 -283 -110q-297 0 -297 286q0 88 21 199
l35 197q39 225 124 317q86 92 259 92q299 0 299 -283q0 -92 -41 -315h-461l-17 -94q-10 -47 -10 -117z" />
    <glyph glyph-name="uni0206" unicode="&#x206;" horiz-adv-x="862" 
d="M770 1665q0 94 -102 94q-62 0 -96 -32t-56 -115h-137q20 168 86 236t209 67q238 0 237 -176q0 -43 -12 -127h-135q6 43 6 53zM35 0l258 1462h663l-32 -190h-439l-77 -441h370l-33 -190h-372l-80 -451h446l-32 -190h-672z" />
    <glyph glyph-name="uni0207" unicode="&#x207;" horiz-adv-x="845" 
d="M674 1249q0 94 -103 94q-63 1 -96 -31t-55 -116h-137q20 168 86 236t209 67q238 0 237 -176q0 -43 -12 -127h-135q6 43 6 53zM598 793q0 104 -104 104q-70 0 -105 -46t-55 -163l-10 -51h254q20 111 20 156zM367 158q63 0 99 40t52 128h201q-23 -164 -80 -236
q-88 -111 -283 -110q-297 0 -297 286q0 88 21 199l35 197q39 225 125 317t258 92q299 0 299 -283q0 -92 -41 -315h-461l-16 -94q-10 -47 -11 -117q0 -104 99 -104z" />
    <glyph glyph-name="uni0208" unicode="&#x208;" horiz-adv-x="477" 
d="M393 1606h-147l-113 303h215zM653 1606h-147l-113 303h217zM35 0l258 1462h225l-258 -1462h-225z" />
    <glyph glyph-name="uni0209" unicode="&#x209;" horiz-adv-x="428" 
d="M295 1190h-148l-112 303h215zM555 1190h-147l-113 303h217zM14 0l185 1051h215l-185 -1051h-215z" />
    <glyph glyph-name="uni020A" unicode="&#x20a;" horiz-adv-x="477" 
d="M563 1665q0 94 -102 94q-63 0 -96 -32t-56 -115h-137q20 168 86 236t209 67q238 0 238 -176q-1 -43 -13 -127h-135q6 43 6 53zM35 0l258 1462h225l-258 -1462h-225z" />
    <glyph glyph-name="uni020B" unicode="&#x20b;" horiz-adv-x="428" 
d="M465 1249q0 94 -103 94q-63 1 -96 -31t-55 -116h-137q20 168 86 236t209 67q238 0 237 -176q0 -43 -12 -127h-135q6 43 6 53zM14 0l185 1051h215l-185 -1051h-215z" />
    <glyph glyph-name="uni020C" unicode="&#x20c;" horiz-adv-x="1003" 
d="M655 1606h-147l-113 303h215zM915 1606h-147l-113 303h217zM778 1159q0 141 -145 141q-96 0 -144 -64q-47 -65 -77 -241l-95 -528q-18 -115 -18 -162q0 -143 145 -143q96 0 144 64q47 65 78 241l92 528q20 109 20 164zM637 1483q365 0 364 -316q0 -74 -20 -190l-100 -571
q-23 -123 -49 -188q-94 -239 -392 -238q-186 0 -275 76t-89 239q0 71 20 190l101 572q23 123 47 187q90 238 393 239z" />
    <glyph glyph-name="uni020D" unicode="&#x20d;" horiz-adv-x="858" 
d="M500 1190h-148l-112 303h215zM760 1190h-148l-112 303h217zM254 264q0 -106 98 -106q70 0 107 49q36 49 59 174l51 289q14 84 15 116q0 106 -99 107q-73 0 -109 -49t-57 -174l-51 -289q-14 -84 -14 -117zM487 1071q305 0 306 -274q0 -70 -21 -185l-45 -254
q-37 -206 -122 -292t-255 -86q-305 0 -305 274q0 75 18 184l46 254q35 199 108 277q94 102 270 102z" />
    <glyph glyph-name="uni020E" unicode="&#x20e;" horiz-adv-x="1003" 
d="M825 1665q0 94 -102 94q-63 0 -96 -32t-56 -115h-137q20 168 86 236t209 67q238 0 238 -176q-1 -43 -13 -127h-135q6 43 6 53zM778 1159q0 141 -145 141q-96 0 -144 -64q-47 -65 -77 -241l-95 -528q-18 -115 -18 -162q0 -143 145 -143q96 0 144 64q47 65 78 241l92 528
q20 109 20 164zM637 1483q365 0 364 -316q0 -74 -20 -190l-100 -571q-23 -123 -49 -188q-94 -239 -392 -238q-186 0 -275 76t-89 239q0 71 20 190l101 572q23 123 47 187q90 238 393 239z" />
    <glyph glyph-name="uni020F" unicode="&#x20f;" horiz-adv-x="858" 
d="M680 1249q0 94 -102 94q-63 0 -97 -31q-33 -32 -55 -116h-137q20 168 86 236t209 67q238 0 237 -176q0 -43 -12 -127h-135q6 43 6 53zM594 786q0 106 -98 107q-72 0 -109 -49t-57 -174l-51 -289q-14 -84 -15 -117q0 -106 98 -106q70 0 107 49q36 49 59 174l52 289
q14 84 14 116zM498 1071q305 0 305 -274q0 -70 -21 -185l-45 -254q-37 -206 -122 -292t-255 -86q-305 0 -305 274q1 75 19 184l45 254q35 199 108 277q94 102 271 102z" />
    <glyph glyph-name="uni0210" unicode="&#x210;" horiz-adv-x="962" 
d="M578 1606h-148l-113 303h215zM838 1606h-148l-112 303h217zM500 793q70 0 110 17t70 60q70 102 70 256q0 86 -35 120t-123 34h-111l-86 -487h105zM602 1462q209 0 287 -67q94 -82 94 -238q0 -111 -32 -227t-86 -186t-165 -107l123 -637h-250l-94 616h-108l-109 -616h-225
l258 1462h307z" />
    <glyph glyph-name="uni0211" unicode="&#x211;" horiz-adv-x="610" 
d="M403 1190h-147l-113 303h215zM664 1190h-148l-113 303h218zM10 0l185 1051h163l15 -82q43 57 84 80t113 23t143 -62l-127 -181q-44 59 -100 59t-96 -86q-40 -87 -77 -292l-88 -510h-215z" />
    <glyph glyph-name="uni0212" unicode="&#x212;" horiz-adv-x="962" 
d="M764 1665q0 94 -102 94q-62 0 -96 -32t-56 -115h-137q20 168 86 236t209 67q238 0 237 -176q0 -43 -12 -127h-135q6 43 6 53zM500 793q70 0 110 17t70 60q70 102 70 256q0 86 -35 120t-123 34h-111l-86 -487h105zM602 1462q209 0 287 -67q94 -82 94 -238q0 -111 -32 -227
t-86 -186t-165 -107l123 -637h-250l-94 616h-108l-109 -616h-225l258 1462h307z" />
    <glyph glyph-name="uni0213" unicode="&#x213;" horiz-adv-x="610" 
d="M588 1249q0 94 -103 94q-63 1 -96 -31t-55 -116h-137q20 168 86 236t209 67q238 0 237 -176q0 -43 -12 -127h-135q6 43 6 53zM10 0l185 1051h163l15 -82q43 57 84 80t113 23t143 -62l-127 -181q-44 59 -100 59t-96 -86q-40 -87 -77 -292l-88 -510h-215z" />
    <glyph glyph-name="uni0214" unicode="&#x214;" horiz-adv-x="1021" 
d="M666 1606h-148l-112 303h215zM926 1606h-148l-112 303h217zM449 162q96 0 140 57t73 219l180 1024h225l-186 -1065q-23 -129 -45 -185t-64 -108q-111 -125 -328 -124q-352 0 -352 292q0 80 25 205l172 985h225l-180 -1024q-18 -106 -19 -143q0 -133 134 -133z" />
    <glyph glyph-name="uni0215" unicode="&#x215;" horiz-adv-x="845" 
d="M502 1190h-148l-112 303h215zM762 1190h-148l-112 303h217zM350 166q63 0 99 57q35 57 61 203l111 625h213l-185 -1051h-160l-2 82q-49 -57 -94 -80t-110 -22q-113 0 -172 59t-59 153t24 224l110 635h215l-114 -648q-16 -90 -17 -137q0 -100 80 -100z" />
    <glyph glyph-name="uni0216" unicode="&#x216;" horiz-adv-x="1021" 
d="M731 1759q-63 0 -96 -32t-55 -115h-138q20 168 86 236t209 67q238 0 238 -176q0 -43 -12 -127h-136q6 43 7 53q0 94 -103 94zM449 162q96 0 140 57t73 219l180 1024h225l-186 -1065q-23 -129 -45 -185t-64 -108q-111 -125 -328 -124q-352 0 -352 292q0 80 25 205l172 985
h225l-180 -1024q-18 -106 -19 -143q0 -133 134 -133z" />
    <glyph glyph-name="uni0217" unicode="&#x217;" horiz-adv-x="845" 
d="M672 1249q0 94 -103 94q-63 1 -96 -31t-55 -116h-137q20 168 86 236t208 67q238 0 238 -176q0 -43 -12 -127h-135q6 43 6 53zM352 166q63 0 99 57q35 57 61 203l111 625h213l-185 -1051h-159l-3 82q-49 -57 -94 -80t-110 -22q-113 0 -172 59t-59 153t24 224l110 635h215
l-114 -648q-16 -90 -17 -137q0 -100 80 -100z" />
    <glyph glyph-name="Scommaaccent" unicode="&#x218;" horiz-adv-x="876" 
d="M96 -471l131 336h203l-190 -336h-144zM582 458q0 89 -41 126q-25 20 -144 69q-238 98 -237 342q0 197 94 334q102 152 299 152q158 0 246 -82t88 -232q0 -39 -13 -112h-208q8 57 8 98q0 145 -117 145q-90 0 -132 -91t-42 -170t35 -119t125 -80q152 -63 207 -133t55 -201
q0 -217 -98 -359q-113 -166 -338 -165q-166 0 -258 80t-93 223q1 53 17 149h207q-10 -68 -11 -113q0 -158 142 -157q119 0 170 119q39 88 39 177z" />
    <glyph glyph-name="scommaaccent" unicode="&#x219;" horiz-adv-x="765" 
d="M55 -471l131 336h203l-190 -336h-144zM199 254q0 -96 120 -96q76 0 121 48t45 112t-24 84q-24 18 -138 54t-165 95t-52 168q0 164 90 258t235 94q146 -1 224 -65t78 -177q0 -39 -10 -86h-197q4 53 4 56q0 94 -92 94q-57 0 -93 -45q-36 -44 -36 -102t25 -82t121 -54
q96 -29 143 -59q90 -55 90 -191q0 -182 -98 -281t-264 -99t-248 64t-82 183q0 39 12 105h199q-8 -49 -8 -78z" />
    <glyph glyph-name="uni021A" unicode="&#x21a;" horiz-adv-x="768" 
d="M45 -471l131 336h203l-191 -336h-143zM180 0l226 1272h-256l32 190h738l-33 -190h-256l-225 -1272h-226z" />
    <glyph glyph-name="uni021B" unicode="&#x21b;" horiz-adv-x="544" 
d="M-33 -471l131 336h205l-192 -336h-144zM305 252q1 -35 21 -53t73 -19h39l-30 -180h-58q-147 0 -208 38q-60 38 -60 132q0 59 31 246l82 458h-97l31 177h96l68 309h201l-54 -309h154l-31 -177h-153l-93 -524q-12 -63 -12 -98z" />
    <glyph glyph-name="uni0226" unicode="&#x226;" horiz-adv-x="921" 
d="M537 1612l43 239h204l-41 -239h-206zM600 485l-25 666l-262 -666h287zM608 303h-364l-119 -303h-244l645 1462h197l139 -1462h-244z" />
    <glyph glyph-name="uni0227" unicode="&#x227;" horiz-adv-x="823" 
d="M426 1198l43 240h205l-41 -240h-207zM418 473q-199 0 -199 -227q0 -92 107 -92q70 0 102 38t49 144l25 137h-84zM551 797q0 96 -94 96q-59 0 -91 -37t-47 -121h-198q27 174 110 255q84 81 238 81q291 0 291 -268q0 -78 -19 -187l-108 -616h-168l-4 51q-66 -71 -194 -71
q-127 0 -197 59t-70 163t27 191q27 88 69 135q86 98 289 99h143l9 47q14 78 14 123z" />
    <glyph glyph-name="uni0237" unicode="&#x237;" horiz-adv-x="436" 
d="M209 1051h213l-189 -1078q-41 -270 -136 -360t-328 -84l30 180q97 -5 147 59t74 220z" />
    <glyph glyph-name="afii57929" unicode="&#x2bc;" horiz-adv-x="337" 
d="M111 954l137 508h221l-176 -508h-182z" />
    <glyph glyph-name="uni02C0" unicode="&#x2c0;" horiz-adv-x="1024" 
d="M754 1839q0 31 -42 31t-122 -35l-17 141q111 37 185 37q184 0 184 -162q0 -49 -17 -77t-65 -68t-56 -60q-10 -20 -20 -65h-155q16 88 30 118q15 30 55 73t40 67z" />
    <glyph glyph-name="circumflex" unicode="&#x2c6;" horiz-adv-x="1024" 
d="M664 1358l-109 -162h-205l254 291h156l151 -291h-194z" />
    <glyph glyph-name="caron" unicode="&#x2c7;" horiz-adv-x="1024" 
d="M647 1321l109 162h205l-254 -293h-156l-152 293h195z" />
    <glyph glyph-name="uni02C9" unicode="&#x2c9;" horiz-adv-x="1024" 
d="M401 1245l27 160h477l-28 -160h-476z" />
    <glyph glyph-name="breve" unicode="&#x2d8;" horiz-adv-x="1024" 
d="M649 1331q63 0 95 31t57 117h139q-24 -170 -88 -237t-207 -66q-238 0 -237 176q0 45 12 127h133l-4 -54q0 -94 100 -94z" />
    <glyph glyph-name="dotaccent" unicode="&#x2d9;" horiz-adv-x="1024" 
d="M528 1198l43 240h205l-41 -240h-207z" />
    <glyph glyph-name="ring" unicode="&#x2da;" horiz-adv-x="1024" 
d="M647 1276q49 0 79 43t30 97t-18 72q-18 19 -60 19q-41 0 -71 -43q-29 -44 -29 -116t69 -72zM681 1612q99 0 153 -52t55 -144q0 -92 -66 -168q-66 -77 -169 -77q-103 -1 -156 51q-54 52 -54 152t69 168q69 70 168 70z" />
    <glyph glyph-name="ogonek" unicode="&#x2db;" horiz-adv-x="1024" 
d="M501 -289q50 0 103 21l2 -113q-78 -35 -168 -35q-186 0 -186 140q0 145 213 276h158q-101 -88 -137 -137t-36 -101t51 -51z" />
    <glyph glyph-name="tilde" unicode="&#x2dc;" horiz-adv-x="1024" 
d="M758 1350q39 0 65 112h129q-33 -146 -79 -206q-45 -60 -125 -60t-127 68q-25 37 -36 48t-24 11q-43 0 -74 -113h-127q37 142 86 204t123 62t122 -62q48 -64 67 -64z" />
    <glyph glyph-name="hungarumlaut" unicode="&#x2dd;" horiz-adv-x="1024" 
d="M666 1190l151 303h217l-221 -303h-147zM406 1190l151 303h215l-219 -303h-147z" />
    <glyph glyph-name="uni0309" unicode="&#x309;" horiz-adv-x="1024" 
d="M680 1436q0 64 -162 -2l-16 139q109 37 186 37q182 0 182 -162q0 -49 -17 -77t-65 -70t-56 -59q-9 -17 -19 -64h-156q15 90 29 118t54 72q40 43 40 68z" />
    <glyph glyph-name="uni0312" unicode="&#x312;" horiz-adv-x="1024" 
d="M516 1190l256 303h158l-176 -303h-238z" />
    <glyph glyph-name="uni0313" unicode="&#x313;" horiz-adv-x="182" 
d="M55 969l144 518h200l-194 -518h-150z" />
    <glyph glyph-name="uni031B" unicode="&#x31b;" horiz-adv-x="182" 
d="M55 969l144 518h200l-194 -518h-150z" />
    <glyph glyph-name="uni0323" unicode="&#x323;" horiz-adv-x="1024" 
d="M244 -416l43 240h205l-41 -240h-207z" />
    <glyph glyph-name="uni037E" unicode="&#x37e;" horiz-adv-x="434" 
d="M178 805l41 239h225l-41 -239h-225zM-111 -385l181 618h235l-221 -618h-195z" />
    <glyph glyph-name="uni0387" unicode="&#x387;" horiz-adv-x="436" 
d="M121 616l41 238h225l-41 -238h-225z" />
    <glyph glyph-name="uni04D4" unicode="&#x4d4;" horiz-adv-x="1421" 
d="M688 506l135 766h-24l-434 -766h323zM655 326h-393l-184 -326h-260l880 1462h820l-33 -190h-443l-77 -441h374l-32 -190h-375l-80 -451h448l-32 -190h-670z" />
    <glyph glyph-name="uni04D5" unicode="&#x4d5;" horiz-adv-x="1269" 
d="M918 897q-70 0 -105 -46t-57 -163l-8 -51h253q20 104 21 154q0 106 -104 106zM420 473q-102 0 -150 -53q-51 -66 -51 -174q0 -94 107 -94q70 0 102 38t49 146l25 137h-82zM457 1071q166 0 241 -98q90 98 238 98q285 0 285 -278q0 -88 -43 -320h-461l-19 -92
q-12 -74 -12 -115q0 -109 100 -108q66 0 102 40t52 128h201q-27 -188 -106 -268t-251 -78q-172 0 -243 106q-98 -106 -267 -106q-274 0 -274 223q0 94 27 183t69 140q88 102 289 103h143l9 45q14 84 14 121q0 98 -90 98q-61 0 -93 -37t-49 -121h-198q25 150 80 221
q90 115 256 115z" />
    <glyph glyph-name="uni1E02" unicode="&#x1e02;" horiz-adv-x="980" 
d="M553 1612l43 239h205l-41 -239h-207zM426 182q119 0 164 68q70 104 69 264q0 80 -30 112q-31 32 -107 31h-145l-84 -475h133zM545 840q90 0 139 63q68 88 68 238q0 79 -32 109t-110 30h-125l-77 -440h137zM616 1462q209 0 289 -75t80 -224t-53 -255t-141 -144
q96 -82 96 -254q0 -246 -119 -397q-49 -61 -115 -87t-174 -26h-444l258 1462h323z" />
    <glyph glyph-name="uni1E03" unicode="&#x1e03;" horiz-adv-x="862" 
d="M584 1198l43 240h204l-40 -240h-207zM594 776q0 109 -86 109q-127 0 -176 -262l-35 -193q-12 -70 -12 -129q0 -139 94 -139q112 -1 153 235l52 283q10 53 10 96zM809 817q0 -76 -23 -199l-41 -233q-35 -201 -88 -277t-107 -102t-133 -26t-126 20t-92 74l-27 -74h-164
l258 1462h213l-80 -456q74 66 170 65q240 0 240 -254z" />
    <glyph glyph-name="uni1E0C" unicode="&#x1e0c;" horiz-adv-x="1003" 
d="M195 -416l43 240h204l-41 -240h-206zM416 182q115 0 166 60t84 231l90 516q14 86 14 158q0 133 -162 133h-125l-192 -1098h125zM598 1462q217 0 303 -65q98 -80 98 -236q0 -76 -18 -174l-104 -592q-31 -213 -142 -306t-327 -89h-375l258 1462h307z" />
    <glyph glyph-name="uni1E0D" unicode="&#x1e0d;" horiz-adv-x="862" 
d="M197 -416l43 240h204l-41 -240h-206zM360 166q123 0 170 264l35 193q12 68 13 127q0 139 -97 139q-57 -1 -92 -49t-55 -154l-45 -264q-14 -70 -15 -139q0 -117 86 -117zM307 -20q-248 0 -248 266q0 84 23 219l43 246q33 193 109 277t202 83q126 0 197 -65l80 456h215
l-258 -1462h-166l-2 68q-49 -52 -89 -70t-106 -18z" />
    <glyph glyph-name="uni1E1E" unicode="&#x1e1e;" horiz-adv-x="823" 
d="M547 1612l43 239h205l-41 -239h-207zM35 0l258 1462h655l-35 -190h-428l-79 -451h358l-33 -190h-358l-113 -631h-225z" />
    <glyph glyph-name="uni1E1F" unicode="&#x1e1f;" horiz-adv-x="530" 
d="M420 1612l43 239h205l-41 -239h-207zM199 874h-97l31 177h96l27 147q27 158 89 213t212 51h115l-29 -162h-49q-70 2 -92 -24t-39 -127l-19 -98h158l-31 -177h-157l-154 -874h-215z" />
    <glyph glyph-name="uni1E24" unicode="&#x1e24;" horiz-adv-x="1015" 
d="M240 -416l43 240h204l-41 -240h-206zM35 0l258 1462h225l-110 -631h313l110 631h226l-258 -1462h-226l115 641h-315l-113 -641h-225z" />
    <glyph glyph-name="uni1E25" unicode="&#x1e25;" horiz-adv-x="866" 
d="M164 -416l43 240h205l-41 -240h-207zM582 1071q108 0 168 -59t61 -172q0 -72 -23 -203l-112 -637h-213l112 647q16 90 17 131q0 106 -88 107q-70 1 -108 -57t-62 -201l-111 -627h-215l258 1462h213l-78 -448q73 57 181 57z" />
    <glyph glyph-name="uni1E44" unicode="&#x1e44;" horiz-adv-x="1064" 
d="M629 1612l43 239h205l-41 -239h-207zM35 0l258 1462h223l201 -999l176 999h213l-258 -1462h-213l-211 1012l-178 -1012h-211z" />
    <glyph glyph-name="uni1E45" unicode="&#x1e45;" horiz-adv-x="866" 
d="M449 1198l43 240h204l-41 -240h-206zM575 1071q115 0 175 -59q60 -58 61 -156q0 -98 -23 -221l-112 -635h-213l112 647q16 82 17 129q0 109 -90 109q-68 1 -106 -57t-64 -201l-109 -627h-215l185 1051h161l2 -76q52 55 100 75t119 21z" />
    <glyph glyph-name="uni1E5A" unicode="&#x1e5a;" horiz-adv-x="962" 
d="M213 -416l43 240h205l-41 -240h-207zM500 793q70 0 110 17t70 60q70 102 70 256q0 86 -35 120t-123 34h-111l-86 -487h105zM602 1462q209 0 287 -67q94 -82 94 -238q0 -111 -32 -227t-86 -186t-165 -107l123 -637h-250l-94 616h-108l-109 -616h-225l258 1462h307z" />
    <glyph glyph-name="uni1E5B" unicode="&#x1e5b;" horiz-adv-x="610" 
d="M-59 -416l43 240h204l-43 -240h-204zM10 0l185 1051h163l13 -82q45 57 86 80t113 23t141 -62l-125 -181q-48 59 -102 59t-94 -85q-40 -86 -77 -293l-90 -510h-213z" />
    <glyph glyph-name="uni1E62" unicode="&#x1e62;" horiz-adv-x="876" 
d="M164 -416l43 240h205l-41 -240h-207zM582 458q0 89 -41 126q-25 20 -144 69q-238 98 -237 342q0 197 94 334q102 152 299 152q158 0 246 -82t88 -232q0 -39 -13 -112h-208q8 57 8 98q0 145 -117 145q-90 0 -132 -91t-42 -170t35 -119t125 -80q152 -63 207 -133t55 -201
q0 -217 -98 -359q-113 -166 -338 -165q-166 0 -258 80t-93 223q1 53 17 149h207q-10 -68 -11 -113q0 -158 142 -157q119 0 170 119q39 88 39 177z" />
    <glyph glyph-name="uni1E63" unicode="&#x1e63;" horiz-adv-x="765" 
d="M106 -416l44 240h204l-41 -240h-207zM199 254q0 -96 120 -96q76 0 121 48t45 112t-24 84q-24 18 -138 54t-165 95t-52 168q0 164 90 258t235 94q146 -1 224 -65t78 -177q0 -39 -10 -86h-197q4 53 4 56q0 94 -92 94q-57 0 -93 -45q-36 -44 -36 -102t25 -82t121 -54
q96 -29 143 -59q90 -55 90 -191q0 -182 -98 -281t-264 -99t-248 64t-82 183q0 39 12 105h199q-8 -49 -8 -78z" />
    <glyph glyph-name="uni1E6C" unicode="&#x1e6c;" horiz-adv-x="768" 
d="M115 -416l43 240h204l-40 -240h-207zM180 0l223 1272h-256l33 190h738l-33 -190h-256l-223 -1272h-226z" />
    <glyph glyph-name="uni1E6D" unicode="&#x1e6d;" horiz-adv-x="544" 
d="M4 -416l43 240h205l-41 -240h-207zM305 252q1 -35 21 -53t73 -19h39l-30 -180h-58q-147 0 -208 38q-60 38 -60 132q0 59 31 246l82 458h-97l31 177h96l68 309h201l-54 -309h154l-31 -177h-153l-93 -524q-12 -63 -12 -98z" />
    <glyph glyph-name="Wgrave" unicode="&#x1e80;" horiz-adv-x="1400" 
d="M1006 1606h-158l-150 303h217zM188 0l13 1462h223l-49 -1054l401 1054h174l31 -1054l319 1054h226l-504 -1462h-201l-35 1020l-395 -1020h-203z" />
    <glyph glyph-name="wgrave" unicode="&#x1e81;" horiz-adv-x="1169" 
d="M817 1190h-158l-149 303h217zM158 0l-31 1051h217l-20 -715l276 715h152l24 -715l232 715h217l-400 -1051h-184l-31 680l-268 -680h-184z" />
    <glyph glyph-name="Wacute" unicode="&#x1e82;" horiz-adv-x="1400" 
d="M778 1606l178 303h236l-254 -303h-160zM188 0l13 1462h223l-49 -1054l401 1054h174l31 -1054l319 1054h226l-504 -1462h-201l-35 1020l-395 -1020h-203z" />
    <glyph glyph-name="wacute" unicode="&#x1e83;" horiz-adv-x="1169" 
d="M588 1190l178 303h235l-253 -303h-160zM158 0l-31 1051h217l-20 -715l276 715h152l24 -715l232 715h217l-400 -1051h-184l-31 680l-268 -680h-184z" />
    <glyph glyph-name="Wdieresis" unicode="&#x1e84;" horiz-adv-x="1400" 
d="M954 1618l41 235h193l-43 -235h-191zM635 1618l41 235h190l-41 -235h-190zM188 0l13 1462h223l-49 -1054l401 1054h174l31 -1054l319 1054h226l-504 -1462h-201l-35 1020l-395 -1020h-203z" />
    <glyph glyph-name="wdieresis" unicode="&#x1e85;" horiz-adv-x="1169" 
d="M760 1200l41 238h190l-41 -238h-190zM446 1200l41 238h193l-43 -238h-191zM158 0l-31 1051h217l-20 -715l276 715h152l24 -715l232 715h217l-400 -1051h-184l-31 680l-268 -680h-184z" />
    <glyph glyph-name="uni1E92" unicode="&#x1e92;" horiz-adv-x="792" 
d="M139 -416l43 240h205l-41 -240h-207zM-57 0l20 123l649 1149h-403l33 190h655l-20 -123l-648 -1149h463l-33 -190h-716z" />
    <glyph glyph-name="uni1E93" unicode="&#x1e93;" horiz-adv-x="675" 
d="M76 -416l43 240h205l-41 -240h-207zM-63 0l22 125l467 745h-299l31 181h555l-21 -125l-467 -746h357l-33 -180h-612z" />
    <glyph glyph-name="uni1EA0" unicode="&#x1ea0;" horiz-adv-x="921" 
d="M223 -416l41 240h207l-43 -240h-205zM600 485l-25 666l-262 -666h287zM608 303h-364l-119 -303h-244l645 1462h197l139 -1462h-244z" />
    <glyph glyph-name="uni1EA1" unicode="&#x1ea1;" horiz-adv-x="823" 
d="M152 -416l43 240h204l-41 -240h-206zM418 473q-199 0 -199 -227q0 -92 107 -92q70 0 102 38t49 144l25 137h-84zM551 797q0 96 -94 96q-59 0 -91 -37t-47 -121h-198q27 174 110 255q84 81 238 81q291 0 291 -268q0 -78 -19 -187l-108 -616h-168l-4 51q-66 -71 -194 -71
q-127 0 -197 59t-70 163t27 191q27 88 69 135q86 98 289 99h143l9 47q14 78 14 123z" />
    <glyph glyph-name="uni1EA2" unicode="&#x1ea2;" horiz-adv-x="921" 
d="M686 1839q0 31 -42 31t-122 -35l-16 141q109 37 184 37q184 0 184 -162q0 -49 -17 -77t-65 -68t-56 -60q-9 -20 -19 -65h-156q16 90 31 119q14 29 54 72t40 67zM600 485l-25 666l-262 -666h287zM608 303h-364l-119 -303h-244l645 1462h197l139 -1462h-244z" />
    <glyph glyph-name="uni1EA3" unicode="&#x1ea3;" horiz-adv-x="823" 
d="M588 1436q0 62 -160 -2l-18 139q109 37 186 37q182 0 182 -160q0 -51 -17 -79t-65 -70t-57 -60q-10 -18 -18 -63h-156q17 88 31 118t53 72q39 43 39 68zM418 473q-199 0 -199 -227q0 -92 107 -92q70 0 102 38t49 144l25 137h-84zM551 797q0 96 -94 96q-59 0 -91 -37
t-47 -121h-198q27 174 110 255q84 81 238 81q291 0 291 -268q0 -78 -19 -187l-108 -616h-168l-4 51q-66 -71 -194 -71q-127 0 -197 59t-70 163t27 191q27 88 69 135q86 98 289 99h143l9 47q14 78 14 123z" />
    <glyph glyph-name="uni1EA4" unicode="&#x1ea4;" horiz-adv-x="921" 
d="M670 1671l-103 -112h-194l241 237h144l157 -237h-180zM625 1849l135 238h168l-189 -238h-114zM600 485l-25 666l-262 -666h287zM608 303h-364l-119 -303h-244l645 1462h197l139 -1462h-244z" />
    <glyph glyph-name="uni1EA5" unicode="&#x1ea5;" horiz-adv-x="823" 
d="M547 1257l-105 -112h-194l241 235h144l160 -235h-183zM502 1436l135 237h166l-187 -237h-114zM418 473q-199 0 -199 -227q0 -92 107 -92q70 0 102 38t49 144l25 137h-84zM551 797q0 96 -94 96q-59 0 -91 -37t-47 -121h-198q27 174 110 255q84 81 238 81q291 0 291 -268
q0 -78 -19 -187l-108 -616h-168l-4 51q-66 -71 -194 -71q-127 0 -197 59t-70 163t27 191q27 88 69 135q86 98 289 99h143l9 47q14 78 14 123z" />
    <glyph glyph-name="uni1EA6" unicode="&#x1ea6;" horiz-adv-x="921" 
d="M670 1671l-103 -112h-194l241 237h144l157 -237h-180zM750 1849h-103l-115 238h154zM600 485l-25 666l-262 -666h287zM608 303h-364l-119 -303h-244l645 1462h197l139 -1462h-244z" />
    <glyph glyph-name="uni1EA7" unicode="&#x1ea7;" horiz-adv-x="823" 
d="M547 1257l-105 -112h-194l244 235h143l158 -235h-183zM627 1436h-105l-114 237h155zM418 473q-199 0 -199 -227q0 -92 107 -92q70 0 102 38t49 144l25 137h-84zM551 797q0 96 -94 96q-59 0 -91 -37t-47 -121h-198q27 174 110 255q84 81 238 81q291 0 291 -268
q0 -78 -19 -187l-108 -616h-168l-4 51q-66 -71 -194 -71q-127 0 -197 59t-70 163t27 191q27 88 69 135q86 98 289 99h143l9 47q14 78 14 123z" />
    <glyph glyph-name="uni1EA8" unicode="&#x1ea8;" horiz-adv-x="921" 
d="M668 1667l-103 -108h-194l239 221h142l161 -221h-180zM677 2003q-21 0 -71 -25l-14 99q63 29 133 28q117 0 117 -104q0 -33 -12 -55t-45 -55q-34 -34 -40 -81h-122q8 70 43 111q33 41 32 57q0 25 -21 25zM600 485l-25 666l-262 -666h287zM608 303h-364l-119 -303h-244
l645 1462h197l139 -1462h-244z" />
    <glyph glyph-name="uni1EA9" unicode="&#x1ea9;" horiz-adv-x="823" 
d="M545 1253l-103 -108h-194l237 219h144l162 -219h-181zM600 1690q117 0 117 -105q0 -35 -11 -55t-44 -52t-39 -81h-123q8 73 41 109t32 59q0 23 -20 22q-25 0 -72 -22l-12 96q63 29 131 29zM418 473q-199 0 -199 -227q0 -92 107 -92q70 0 102 38t49 144l25 137h-84z
M551 797q0 96 -94 96q-59 0 -91 -37t-47 -121h-198q27 174 110 255q84 81 238 81q291 0 291 -268q0 -78 -19 -187l-108 -616h-168l-4 51q-66 -71 -194 -71q-127 0 -197 59t-70 163t27 191q27 88 69 135q86 98 289 99h143l9 47q14 78 14 123z" />
    <glyph glyph-name="uni1EAA" unicode="&#x1eaa;" horiz-adv-x="921" 
d="M672 1671l-103 -112h-194l241 237h144l158 -237h-181zM645 2087q61 0 94 -46t40 -54t18 -9q35 0 59 97h107q-33 -127 -71 -177t-102 -49q-64 0 -106 58q-41 49 -49 51q-35 0 -66 -94h-106q39 123 80 173t102 50zM600 485l-25 666l-262 -666h287zM608 303h-364l-119 -303
h-244l645 1462h197l139 -1462h-244z" />
    <glyph glyph-name="uni1EAB" unicode="&#x1eab;" horiz-adv-x="823" 
d="M549 1257l-103 -112h-194l242 235h141l160 -235h-183zM521 1675q60 0 102 -55q27 -41 33 -49t18 -8q33 0 59 98h105q-31 -125 -69 -175t-92 -50t-77 16t-65 80q-10 14 -23 14q-37 0 -66 -96h-106q41 127 81 176t100 49zM418 473q-199 0 -199 -227q0 -92 107 -92
q70 0 102 38t49 144l25 137h-84zM551 797q0 96 -94 96q-59 0 -91 -37t-47 -121h-198q27 174 110 255q84 81 238 81q291 0 291 -268q0 -78 -19 -187l-108 -616h-168l-4 51q-66 -71 -194 -71q-127 0 -197 59t-70 163t27 191q27 88 69 135q86 98 289 99h143l9 47q14 78 14 123z
" />
    <glyph glyph-name="uni1EAC" unicode="&#x1eac;" horiz-adv-x="921" 
d="M209 -416l43 240h205l-41 -240h-207zM668 1774l-109 -162h-205l254 291h154l153 -291h-194zM600 485l-25 666l-262 -666h287zM608 303h-364l-119 -303h-244l645 1462h197l139 -1462h-244z" />
    <glyph glyph-name="uni1EAD" unicode="&#x1ead;" horiz-adv-x="823" 
d="M156 -416l41 240h206l-43 -240h-204zM555 1358l-111 -162h-202l252 291h155l152 -291h-193zM418 473q-199 0 -199 -227q0 -92 107 -92q70 0 102 38t49 144l25 137h-84zM551 797q0 96 -94 96q-59 0 -91 -37t-47 -121h-198q27 174 110 255q84 81 238 81q291 0 291 -268
q0 -78 -19 -187l-108 -616h-168l-4 51q-66 -71 -194 -71q-127 0 -197 59t-70 163t27 191q27 88 69 135q86 98 289 99h143l9 47q14 78 14 123z" />
    <glyph glyph-name="uni1EAE" unicode="&#x1eae;" horiz-adv-x="921" 
d="M563 1790q0 -88 107 -88q82 0 114 47q18 25 35 82h135q-18 -115 -59 -172q-74 -109 -242 -109q-221 0 -221 183q0 32 8 98h125q-2 -14 -2 -41zM625 1849l135 238h166l-187 -238h-114zM600 485l-25 666l-262 -666h287zM608 303h-364l-119 -303h-244l645 1462h197
l139 -1462h-244z" />
    <glyph glyph-name="uni1EAF" unicode="&#x1eaf;" horiz-adv-x="823" 
d="M438 1378q0 -90 109 -90q78 0 115 47q20 31 34 82h133q-18 -121 -57 -172q-74 -109 -242 -108q-115 0 -169 44t-54 138q0 35 10 98h125q-4 -29 -4 -39zM502 1436l135 237h166l-187 -237h-114zM418 473q-199 0 -199 -227q0 -92 107 -92q70 0 102 38t49 144l25 137h-84z
M551 797q0 96 -94 96q-59 0 -91 -37t-47 -121h-198q27 174 110 255q84 81 238 81q291 0 291 -268q0 -78 -19 -187l-108 -616h-168l-4 51q-66 -71 -194 -71q-127 0 -197 59t-70 163t27 191q27 88 69 135q86 98 289 99h143l9 47q14 78 14 123z" />
    <glyph glyph-name="uni1EB0" unicode="&#x1eb0;" horiz-adv-x="921" 
d="M563 1790q0 -88 107 -88q82 0 114 47q18 25 35 82h135q-18 -115 -59 -172q-74 -109 -242 -109q-221 0 -221 183q0 32 8 98h125q-2 -14 -2 -41zM762 1849h-103l-114 238h155zM600 485l-25 666l-262 -666h287zM608 303h-364l-119 -303h-244l645 1462h197l139 -1462h-244z
" />
    <glyph glyph-name="uni1EB1" unicode="&#x1eb1;" horiz-adv-x="823" 
d="M438 1378q0 -90 109 -90q78 0 115 47q20 31 34 82h133q-18 -121 -57 -172q-74 -109 -242 -108q-115 0 -169 44t-54 138q0 35 10 98h125q-4 -29 -4 -39zM635 1436h-103l-114 237h155zM418 473q-199 0 -199 -227q0 -92 107 -92q70 0 102 38t49 144l25 137h-84zM551 797
q0 96 -94 96q-59 0 -91 -37t-47 -121h-198q27 174 110 255q84 81 238 81q291 0 291 -268q0 -78 -19 -187l-108 -616h-168l-4 51q-66 -71 -194 -71q-127 0 -197 59t-70 163t27 191q27 88 69 135q86 98 289 99h143l9 47q14 78 14 123z" />
    <glyph glyph-name="uni1EB2" unicode="&#x1eb2;" horiz-adv-x="921" 
d="M563 1790q0 -88 107 -88q82 0 114 47q18 25 35 82h135q-18 -115 -59 -172q-74 -109 -242 -109q-221 0 -221 183q0 32 8 98h125q-2 -14 -2 -41zM678 2003q-22 0 -70 -23l-14 97q63 29 133 28q117 0 117 -104q0 -35 -12 -59t-54 -62q-21 -25 -35 -80h-120q8 74 43 115
q34 41 34 65t-22 23zM600 485l-25 666l-262 -666h287zM608 303h-364l-119 -303h-244l645 1462h197l139 -1462h-244z" />
    <glyph glyph-name="uni1EB3" unicode="&#x1eb3;" horiz-adv-x="823" 
d="M438 1378q0 -90 109 -90q78 0 115 47q20 31 34 82h133q-18 -121 -57 -172q-74 -109 -242 -108q-115 0 -169 44t-54 138q0 35 10 98h125q-4 -29 -4 -39zM602 1690q117 0 117 -105q0 -35 -12 -59t-52 -62q-22 -27 -34 -80h-123q12 74 45 117t33 65t-21 22q-20 0 -72 -23
l-12 96q63 29 131 29zM418 473q-199 0 -199 -227q0 -92 107 -92q70 0 102 38t49 144l25 137h-84zM551 797q0 96 -94 96q-59 0 -91 -37t-47 -121h-198q27 174 110 255q84 81 238 81q291 0 291 -268q0 -78 -19 -187l-108 -616h-168l-4 51q-66 -71 -194 -71q-127 0 -197 59
t-70 163t27 191q27 88 69 135q86 98 289 99h143l9 47q14 78 14 123z" />
    <glyph glyph-name="uni1EB4" unicode="&#x1eb4;" horiz-adv-x="921" 
d="M549 1774q0 -82 108 -82q61 0 94 25q32 26 52 93h123q-27 -117 -56 -159q-70 -98 -229 -99q-215 0 -215 174q0 39 10 84h117q-4 -25 -4 -36zM643 2099q61 0 95 -47t41 -54t16 -7q35 0 59 96h107q-33 -127 -71 -176t-92 -49t-76 16t-67 78q-8 14 -22 14q-35 0 -66 -94
h-106q39 123 80 173t102 50zM600 485l-25 666l-262 -666h287zM608 303h-364l-119 -303h-244l645 1462h197l139 -1462h-244z" />
    <glyph glyph-name="uni1EB5" unicode="&#x1eb5;" horiz-adv-x="823" 
d="M426 1360q0 -84 109 -84q61 0 93 27t52 92h123q-25 -115 -55 -160q-72 -98 -230 -98q-215 0 -215 174q0 35 8 84h119q-4 -16 -4 -35zM519 1683q60 0 102 -53q27 -39 33 -47t18 -8q31 0 59 96h105q-33 -125 -71 -174t-91 -49t-76 16t-66 78q-10 14 -24 14t-34 -26t-32 -68
h-104q37 121 79 171t102 50zM418 473q-199 0 -199 -227q0 -92 107 -92q70 0 102 38t49 144l25 137h-84zM551 797q0 96 -94 96q-59 0 -91 -37t-47 -121h-198q27 174 110 255q84 81 238 81q291 0 291 -268q0 -78 -19 -187l-108 -616h-168l-4 51q-66 -71 -194 -71
q-127 0 -197 59t-70 163t27 191q27 88 69 135q86 98 289 99h143l9 47q14 78 14 123z" />
    <glyph glyph-name="uni1EB6" unicode="&#x1eb6;" horiz-adv-x="921" 
d="M219 -416l43 240h205l-41 -240h-207zM559 1843q0 -94 103 -94q63 0 96 32t55 115h137q-20 -168 -86 -236t-209 -67q-238 0 -237 179q0 42 12 124h135q-6 -43 -6 -53zM600 485l-25 666l-262 -666h287zM608 303h-364l-119 -303h-244l645 1462h197l139 -1462h-244z" />
    <glyph glyph-name="uni1EB7" unicode="&#x1eb7;" horiz-adv-x="823" 
d="M141 -416l43 240h205l-41 -240h-207zM549 1331q63 0 96 32t55 116h140q-24 -170 -88 -237t-207 -66q-238 0 -238 176q0 43 12 127h134l-4 -54q0 -94 100 -94zM418 473q-199 0 -199 -227q0 -92 107 -92q70 0 102 38t49 144l25 137h-84zM551 797q0 96 -94 96q-59 0 -91 -37
t-47 -121h-198q27 174 110 255q84 81 238 81q291 0 291 -268q0 -78 -19 -187l-108 -616h-168l-4 51q-66 -71 -194 -71q-127 0 -197 59t-70 163t27 191q27 88 69 135q86 98 289 99h143l9 47q14 78 14 123z" />
    <glyph glyph-name="uni1EB8" unicode="&#x1eb8;" horiz-adv-x="862" 
d="M242 -416l43 240h207l-43 -240h-207zM35 0l258 1462h663l-32 -190h-439l-77 -441h370l-33 -190h-372l-80 -451h446l-32 -190h-672z" />
    <glyph glyph-name="uni1EB9" unicode="&#x1eb9;" horiz-adv-x="845" 
d="M168 -416l41 240h207l-43 -240h-205zM598 793q0 104 -104 104q-70 0 -105 -46t-55 -163l-10 -51h254q20 111 20 156zM367 158q63 0 99 40t52 128h201q-23 -164 -80 -236q-88 -111 -283 -110q-297 0 -297 286q0 88 21 199l35 197q39 225 125 317t258 92q299 0 299 -283
q0 -92 -41 -315h-461l-16 -94q-10 -47 -11 -117q0 -104 99 -104z" />
    <glyph glyph-name="uni1EBA" unicode="&#x1eba;" horiz-adv-x="862" 
d="M682 1839q0 31 -41 31t-119 -35l-18 141q113 37 186 37q182 0 182 -162q0 -49 -17 -77t-65 -69q-48 -43 -57 -61q-10 -18 -18 -63h-154q14 88 29 118q14 30 65 85q27 33 27 55zM35 0l258 1462h663l-32 -190h-439l-77 -441h370l-33 -190h-372l-80 -451h446l-32 -190h-672z
" />
    <glyph glyph-name="uni1EBB" unicode="&#x1ebb;" horiz-adv-x="845" 
d="M578 1436q0 64 -162 -2l-17 139q104 37 187 37q182 0 182 -160q0 -51 -17 -79t-65 -69t-56 -59q-10 -18 -20 -65h-155q14 88 28 118q15 30 55 72q40 43 40 68zM598 793q0 104 -104 104q-70 0 -105 -46t-55 -163l-10 -51h254q20 111 20 156zM367 158q63 0 99 40t52 128
h201q-23 -164 -80 -236q-88 -111 -283 -110q-297 0 -297 286q0 88 21 199l35 197q39 225 125 317t258 92q299 0 299 -283q0 -92 -41 -315h-461l-16 -94q-10 -47 -11 -117q0 -104 99 -104z" />
    <glyph glyph-name="uni1EBC" unicode="&#x1ebc;" horiz-adv-x="862" 
d="M570 1890q73 0 121 -63t67 -64q39 0 65 113h129q-33 -144 -79 -204q-45 -60 -125 -60t-127 67q-25 37 -36 48t-24 12q-43 0 -74 -113h-127q37 140 87 202t123 62zM35 0l258 1462h663l-32 -190h-439l-77 -441h370l-33 -190h-372l-80 -451h446l-32 -190h-672z" />
    <glyph glyph-name="uni1EBD" unicode="&#x1ebd;" horiz-adv-x="845" 
d="M668 1350q39 0 65 112h129q-33 -146 -79 -206t-126 -60t-127 68q-25 37 -35 48q-11 11 -24 11q-43 0 -74 -113h-127q37 142 86 204t123 62t122 -62q48 -64 67 -64zM598 793q0 104 -104 104q-70 0 -105 -46t-55 -163l-10 -51h254q20 111 20 156zM367 158q63 0 99 40
t52 128h201q-23 -164 -80 -236q-88 -111 -283 -110q-297 0 -297 286q0 88 21 199l35 197q39 225 125 317t258 92q299 0 299 -283q0 -92 -41 -315h-461l-16 -94q-10 -47 -11 -117q0 -104 99 -104z" />
    <glyph glyph-name="uni1EBE" unicode="&#x1ebe;" horiz-adv-x="862" 
d="M664 1671l-105 -112h-194l241 237h144l159 -237h-182zM618 1849l136 238h166l-187 -238h-115zM35 0l258 1462h663l-32 -190h-439l-77 -441h370l-33 -190h-372l-80 -451h446l-32 -190h-672z" />
    <glyph glyph-name="uni1EBF" unicode="&#x1ebf;" horiz-adv-x="845" 
d="M559 1257l-104 -112h-195l242 235h143l160 -235h-182zM514 1436l135 237h166l-186 -237h-115zM598 793q0 104 -104 104q-70 0 -105 -46t-55 -163l-10 -51h254q20 111 20 156zM367 158q63 0 99 40t52 128h201q-23 -164 -80 -236q-88 -111 -283 -110q-297 0 -297 286
q0 88 21 199l35 197q39 225 125 317t258 92q299 0 299 -283q0 -92 -41 -315h-461l-16 -94q-10 -47 -11 -117q0 -104 99 -104z" />
    <glyph glyph-name="uni1EC0" unicode="&#x1ec0;" horiz-adv-x="862" 
d="M664 1671l-105 -112h-194l243 237h144l157 -237h-182zM743 1849h-104l-115 238h156zM35 0l258 1462h663l-32 -190h-439l-77 -441h370l-33 -190h-372l-80 -451h446l-32 -190h-672z" />
    <glyph glyph-name="uni1EC1" unicode="&#x1ec1;" horiz-adv-x="845" 
d="M559 1257l-104 -112h-195l244 235h143l158 -235h-182zM639 1436h-104l-115 237h155zM598 793q0 104 -104 104q-70 0 -105 -46t-55 -163l-10 -51h254q20 111 20 156zM367 158q63 0 99 40t52 128h201q-23 -164 -80 -236q-88 -111 -283 -110q-297 0 -297 286q0 88 21 199
l35 197q39 225 125 317t258 92q299 0 299 -283q0 -92 -41 -315h-461l-16 -94q-10 -47 -11 -117q0 -104 99 -104z" />
    <glyph glyph-name="uni1EC2" unicode="&#x1ec2;" horiz-adv-x="862" 
d="M662 1667l-103 -108h-194l237 221h143l162 -221h-180zM670 2003q-20 0 -72 -25l-12 99q63 29 131 28q117 0 117 -104q0 -33 -12 -55t-44 -54q-33 -33 -39 -82h-123q8 72 41 112t33 60t-20 21zM35 0l258 1462h663l-32 -190h-439l-77 -441h370l-33 -190h-372l-80 -451h446
l-32 -190h-672z" />
    <glyph glyph-name="uni1EC3" unicode="&#x1ec3;" horiz-adv-x="845" 
d="M557 1253l-102 -108h-195l238 219h143l162 -219h-180zM586 1565q0 44 -92 0l-13 96q63 29 131 29q117 0 117 -105q0 -33 -11 -53t-44 -55t-39 -80h-123q8 73 41 109t33 59zM598 793q0 104 -104 104q-70 0 -105 -46t-55 -163l-10 -51h254q20 111 20 156zM367 158
q63 0 99 40t52 128h201q-23 -164 -80 -236q-88 -111 -283 -110q-297 0 -297 286q0 88 21 199l35 197q39 225 125 317t258 92q299 0 299 -283q0 -92 -41 -315h-461l-16 -94q-10 -47 -11 -117q0 -104 99 -104z" />
    <glyph glyph-name="uni1EC4" unicode="&#x1ec4;" horiz-adv-x="862" 
d="M666 1671l-103 -112h-194l241 237h142l159 -237h-180zM639 2087q61 0 94 -46t40 -54t18 -9q31 0 59 97h104q-33 -127 -70 -177q-38 -49 -102 -49t-104 58q-27 37 -33 44t-16 7q-37 0 -68 -94h-104q39 123 80 173t102 50zM35 0l258 1462h663l-32 -190h-439l-77 -441h370
l-33 -190h-372l-80 -451h446l-32 -190h-672z" />
    <glyph glyph-name="uni1EC5" unicode="&#x1ec5;" horiz-adv-x="845" 
d="M561 1257l-102 -112h-195l242 235h141l160 -235h-182zM537 1675q57 0 98 -55q27 -41 34 -49t17 -8q33 0 59 98h105q-31 -125 -69 -175t-92 -50t-77 16t-65 80q-10 14 -23 14q-36 0 -65 -96h-107q31 100 54 137q53 88 131 88zM598 793q0 104 -104 104q-70 0 -105 -46
t-55 -163l-10 -51h254q20 111 20 156zM367 158q63 0 99 40t52 128h201q-23 -164 -80 -236q-88 -111 -283 -110q-297 0 -297 286q0 88 21 199l35 197q39 225 125 317t258 92q299 0 299 -283q0 -92 -41 -315h-461l-16 -94q-10 -47 -11 -117q0 -104 99 -104z" />
    <glyph glyph-name="uni1EC6" unicode="&#x1ec6;" horiz-adv-x="862" 
d="M242 -416l43 240h207l-43 -240h-207zM676 1774l-109 -162h-205l254 291h154l154 -291h-195zM35 0l258 1462h663l-32 -190h-439l-77 -441h370l-33 -190h-372l-80 -451h446l-32 -190h-672z" />
    <glyph glyph-name="uni1EC7" unicode="&#x1ec7;" horiz-adv-x="845" 
d="M168 -416l41 240h207l-43 -240h-205zM578 1358l-111 -162h-203l252 291h156l153 -291h-194zM598 793q0 104 -104 104q-70 0 -105 -46t-55 -163l-10 -51h254q20 111 20 156zM367 158q63 0 99 40t52 128h201q-23 -164 -80 -236q-88 -111 -283 -110q-297 0 -297 286
q0 88 21 199l35 197q39 225 125 317t258 92q299 0 299 -283q0 -92 -41 -315h-461l-16 -94q-10 -47 -11 -117q0 -104 99 -104z" />
    <glyph glyph-name="uni1EC8" unicode="&#x1ec8;" horiz-adv-x="477" 
d="M467 1839q0 31 -41 31t-121 -35l-18 141q111 37 184 37q184 0 184 -162q0 -49 -17 -77q-16 -28 -64 -69q-48 -43 -58 -61t-18 -63h-154q14 88 29 118q14 30 54 73t40 67zM35 0l258 1462h225l-258 -1462h-225z" />
    <glyph glyph-name="uni1EC9" unicode="&#x1ec9;" horiz-adv-x="428" 
d="M377 1436q0 64 -160 -2l-16 139q104 37 184 37q182 0 182 -162q0 -49 -17 -77t-83 -85q-27 -27 -37 -44t-20 -64h-154q14 88 28 118t54 72q39 43 39 68zM14 0l185 1051h215l-185 -1051h-215z" />
    <glyph glyph-name="uni1ECA" unicode="&#x1eca;" horiz-adv-x="477" 
d="M-31 -416l43 240h205l-43 -240h-205zM33 0l258 1462h225l-258 -1462h-225z" />
    <glyph glyph-name="uni1ECB" unicode="&#x1ecb;" horiz-adv-x="428" 
d="M-55 -416l43 240h205l-41 -240h-207zM14 0l187 1051h213l-185 -1051h-215zM229 1223l45 247h213l-43 -247h-215z" />
    <glyph glyph-name="uni1ECC" unicode="&#x1ecc;" horiz-adv-x="1003" 
d="M233 -416l41 240h207l-43 -240h-205zM778 1159q0 141 -145 141q-96 0 -144 -64q-47 -65 -77 -241l-95 -528q-18 -115 -18 -162q0 -143 145 -143q96 0 144 64q47 65 78 241l92 528q20 109 20 164zM637 1483q365 0 364 -316q0 -74 -20 -190l-100 -571q-23 -123 -49 -188
q-94 -239 -392 -238q-186 0 -275 76t-89 239q0 71 20 190l101 572q23 123 47 187q90 238 393 239z" />
    <glyph glyph-name="uni1ECD" unicode="&#x1ecd;" horiz-adv-x="858" 
d="M160 -416l43 240h205l-41 -240h-207zM594 786q0 106 -98 107q-72 0 -109 -49t-57 -174l-51 -289q-14 -84 -15 -117q0 -106 98 -106q70 0 107 49q36 49 59 174l52 289q14 84 14 116zM498 1071q305 0 305 -274q0 -70 -21 -185l-45 -254q-37 -206 -122 -292t-255 -86
q-305 0 -305 274q1 75 19 184l45 254q35 199 108 277q94 102 271 102z" />
    <glyph glyph-name="uni1ECE" unicode="&#x1ece;" horiz-adv-x="1003" 
d="M701 1870q-42 0 -121 -35l-17 141q109 37 185 37q184 0 184 -162q0 -49 -18 -77t-64 -68q-48 -40 -57 -60t-19 -65h-156q16 90 31 119t55 72t39 67q0 31 -42 31zM778 1159q0 141 -145 141q-96 0 -144 -64q-47 -65 -77 -241l-95 -528q-18 -115 -18 -162q0 -143 145 -143
q96 0 144 64q47 65 78 241l92 528q20 109 20 164zM637 1483q365 0 364 -316q0 -74 -20 -190l-100 -571q-23 -123 -49 -188q-94 -239 -392 -238q-186 0 -275 76t-89 239q0 71 20 190l101 572q23 123 47 187q90 238 393 239z" />
    <glyph glyph-name="uni1ECF" unicode="&#x1ecf;" horiz-adv-x="858" 
d="M596 1436q0 64 -160 -2l-18 139q109 37 186 37q182 0 182 -160q0 -51 -17 -79t-65 -70t-57 -60q-10 -18 -18 -63h-156q17 88 31 118t53 72q39 43 39 68zM594 786q0 106 -98 107q-72 0 -109 -49t-57 -174l-51 -289q-14 -84 -15 -117q0 -106 98 -106q70 0 107 49
q36 49 59 174l52 289q14 84 14 116zM498 1071q305 0 305 -274q0 -70 -21 -185l-45 -254q-37 -206 -122 -292t-255 -86q-305 0 -305 274q1 75 19 184l45 254q35 199 108 277q94 102 271 102z" />
    <glyph glyph-name="uni1ED0" unicode="&#x1ed0;" horiz-adv-x="1003" 
d="M705 1671l-103 -112h-194l241 237h142l159 -237h-182zM659 1849l136 238h166l-187 -238h-115zM778 1159q0 141 -145 141q-96 0 -144 -64q-47 -65 -77 -241l-95 -528q-18 -115 -18 -162q0 -143 145 -143q96 0 144 64q47 65 78 241l92 528q20 109 20 164zM637 1483
q365 0 364 -316q0 -74 -20 -190l-100 -571q-23 -123 -49 -188q-94 -239 -392 -238q-186 0 -275 76t-89 239q0 71 20 190l101 572q23 123 47 187q90 238 393 239z" />
    <glyph glyph-name="uni1ED1" unicode="&#x1ed1;" horiz-adv-x="858" 
d="M565 1257l-104 -112h-195l242 235h143l160 -235h-182zM520 1436l135 237h166l-186 -237h-115zM594 786q0 106 -98 107q-72 0 -109 -49t-57 -174l-51 -289q-14 -84 -15 -117q0 -106 98 -106q70 0 107 49q36 49 59 174l52 289q14 84 14 116zM498 1071q305 0 305 -274
q0 -70 -21 -185l-45 -254q-37 -206 -122 -292t-255 -86q-305 0 -305 274q1 75 19 184l45 254q35 199 108 277q94 102 271 102z" />
    <glyph glyph-name="uni1ED2" unicode="&#x1ed2;" horiz-adv-x="1003" 
d="M711 1671l-105 -112h-194l243 237h144l157 -237h-182zM791 1849h-105l-115 238h156zM778 1159q0 141 -145 141q-96 0 -144 -64q-47 -65 -77 -241l-95 -528q-18 -115 -18 -162q0 -143 145 -143q96 0 144 64q47 65 78 241l92 528q20 109 20 164zM637 1483q365 0 364 -316
q0 -74 -20 -190l-100 -571q-23 -123 -49 -188q-94 -239 -392 -238q-186 0 -275 76t-89 239q0 71 20 190l101 572q23 123 47 187q90 238 393 239z" />
    <glyph glyph-name="uni1ED3" unicode="&#x1ed3;" horiz-adv-x="858" 
d="M565 1257l-104 -112h-195l244 235h141l160 -235h-182zM645 1436h-104l-115 237h156zM594 786q0 106 -98 107q-72 0 -109 -49t-57 -174l-51 -289q-14 -84 -15 -117q0 -106 98 -106q70 0 107 49q36 49 59 174l52 289q14 84 14 116zM498 1071q305 0 305 -274q0 -70 -21 -185
l-45 -254q-37 -206 -122 -292t-255 -86q-305 0 -305 274q1 75 19 184l45 254q35 199 108 277q94 102 271 102z" />
    <glyph glyph-name="uni1ED4" unicode="&#x1ed4;" horiz-adv-x="1003" 
d="M709 1667l-103 -108h-194l237 221h144l161 -221h-180zM717 2003q-20 0 -72 -25l-12 99q63 29 131 28q117 0 117 -104q1 -33 -11 -55t-45 -54q-33 -33 -39 -82h-122q8 72 41 112t33 60t-21 21zM778 1159q0 141 -145 141q-96 0 -144 -64q-47 -65 -77 -241l-95 -528
q-18 -115 -18 -162q0 -143 145 -143q96 0 144 64q47 65 78 241l92 528q20 109 20 164zM637 1483q365 0 364 -316q0 -74 -20 -190l-100 -571q-23 -123 -49 -188q-94 -239 -392 -238q-186 0 -275 76t-89 239q0 71 20 190l101 572q23 123 47 187q90 238 393 239z" />
    <glyph glyph-name="uni1ED5" unicode="&#x1ed5;" horiz-adv-x="858" 
d="M563 1253l-102 -108h-195l238 219h143l162 -219h-180zM592 1565q0 44 -92 0l-13 96q59 29 131 29q117 0 117 -105q0 -33 -11 -53t-44 -53t-39 -82h-123q8 73 41 109t33 59zM594 786q0 106 -98 107q-72 0 -109 -49t-57 -174l-51 -289q-14 -84 -15 -117q0 -106 98 -106
q70 0 107 49q36 49 59 174l52 289q14 84 14 116zM498 1071q305 0 305 -274q0 -70 -21 -185l-45 -254q-37 -206 -122 -292t-255 -86q-305 0 -305 274q1 75 19 184l45 254q35 199 108 277q94 102 271 102z" />
    <glyph glyph-name="uni1ED6" unicode="&#x1ed6;" horiz-adv-x="1003" 
d="M713 1671l-103 -112h-194l241 237h142l159 -237h-180zM685 2087q62 0 95 -46t40 -54t18 -9q31 0 59 97h104q-33 -127 -69 -177q-37 -49 -103 -49t-104 58q-27 37 -33 44t-16 7q-37 0 -66 -94h-106q37 123 78 173t103 50zM778 1159q0 141 -145 141q-96 0 -144 -64
q-47 -65 -77 -241l-95 -528q-18 -115 -18 -162q0 -143 145 -143q96 0 144 64q47 65 78 241l92 528q20 109 20 164zM637 1483q365 0 364 -316q0 -74 -20 -190l-100 -571q-23 -123 -49 -188q-94 -239 -392 -238q-186 0 -275 76t-89 239q0 71 20 190l101 572q23 123 47 187
q90 238 393 239z" />
    <glyph glyph-name="uni1ED7" unicode="&#x1ed7;" horiz-adv-x="858" 
d="M567 1257l-104 -112h-195l244 235h141l160 -235h-182zM540 1675q60 0 101 -55q27 -41 34 -49t17 -8q33 0 60 98h104q-31 -125 -70 -175t-92 -50t-76 16t-65 80q-10 14 -23 14q-34 0 -67 -96h-105q41 127 81 176q41 49 101 49zM594 786q0 106 -98 107q-72 0 -109 -49
t-57 -174l-51 -289q-14 -84 -15 -117q0 -106 98 -106q70 0 107 49q36 49 59 174l52 289q14 84 14 116zM498 1071q305 0 305 -274q0 -70 -21 -185l-45 -254q-37 -206 -122 -292t-255 -86q-305 0 -305 274q1 75 19 184l45 254q35 199 108 277q94 102 271 102z" />
    <glyph glyph-name="uni1ED8" unicode="&#x1ed8;" horiz-adv-x="1003" 
d="M233 -416l41 240h207l-43 -240h-205zM713 1774l-109 -162h-205l254 291h156l152 -291h-195zM778 1159q0 141 -145 141q-96 0 -144 -64q-47 -65 -77 -241l-95 -528q-18 -115 -18 -162q0 -143 145 -143q96 0 144 64q47 65 78 241l92 528q20 109 20 164zM637 1483
q365 0 364 -316q0 -74 -20 -190l-100 -571q-23 -123 -49 -188q-94 -239 -392 -238q-186 0 -275 76t-89 239q0 71 20 190l101 572q23 123 47 187q90 238 393 239z" />
    <glyph glyph-name="uni1ED9" unicode="&#x1ed9;" horiz-adv-x="858" 
d="M160 -416l43 240h205l-41 -240h-207zM580 1358l-111 -162h-205l254 291h156l151 -291h-194zM594 786q0 106 -98 107q-72 0 -109 -49t-57 -174l-51 -289q-14 -84 -15 -117q0 -106 98 -106q70 0 107 49q36 49 59 174l52 289q14 84 14 116zM498 1071q305 0 305 -274
q0 -70 -21 -185l-45 -254q-37 -206 -122 -292t-255 -86q-305 0 -305 274q1 75 19 184l45 254q35 199 108 277q94 102 271 102z" />
    <glyph glyph-name="uni1EDA" unicode="&#x1eda;" horiz-adv-x="1075" 
d="M606 1606l178 303h238l-256 -303h-160zM778 1159q0 141 -145 141q-96 0 -144 -64q-47 -65 -77 -241l-95 -528q-18 -115 -18 -162q0 -143 145 -143q96 0 144 64q47 65 78 241l92 528q20 104 20 164zM1272 1432q0 -145 -90 -242q-61 -61 -189 -133q-2 -10 -5 -36t-7 -44
l-100 -571q-23 -123 -49 -188q-94 -239 -392 -238q-365 0 -364 315q0 72 20 190l101 572q23 123 47 187q91 238 393 239q180 0 266 -70t96 -221q100 88 101 211q-1 41 -13 82h183q2 -29 2 -53z" />
    <glyph glyph-name="uni1EDB" unicode="&#x1edb;" horiz-adv-x="937" 
d="M457 1190l176 303h237l-256 -303h-157zM594 788q0 106 -98 107q-72 0 -109 -50t-57 -175l-51 -289q-14 -80 -15 -117q0 -106 98 -106q70 0 107 49q36 49 59 174l52 289q14 82 14 118zM1057 1008q0 -219 -269 -365l-2 -6l-49 -279q-35 -206 -121 -292t-256 -86
q-305 0 -305 274q0 80 19 184l45 254q35 197 108 279q94 102 271 102q305 0 305 -270v-29q84 104 84 211q-1 27 -13 80h181q2 -31 2 -57z" />
    <glyph glyph-name="uni1EDC" unicode="&#x1edc;" horiz-adv-x="1075" 
d="M827 1606h-155l-152 303h217zM778 1159q0 141 -145 141q-96 0 -144 -64q-47 -65 -77 -241l-95 -528q-18 -115 -18 -162q0 -143 145 -143q96 0 144 64q47 65 78 241l92 528q20 104 20 164zM1272 1432q0 -145 -90 -242q-61 -61 -189 -133q-2 -10 -5 -36t-7 -44l-100 -571
q-23 -123 -49 -188q-94 -239 -392 -238q-365 0 -364 315q0 72 20 190l101 572q23 123 47 187q91 238 393 239q180 0 266 -70t96 -221q100 88 101 211q-1 41 -13 82h183q2 -29 2 -53z" />
    <glyph glyph-name="uni1EDD" unicode="&#x1edd;" horiz-adv-x="937" 
d="M672 1190h-158l-152 303h218zM594 788q0 106 -98 107q-72 0 -109 -50t-57 -175l-51 -289q-14 -80 -15 -117q0 -106 98 -106q70 0 107 49q36 49 59 174l52 289q14 82 14 118zM1057 1008q0 -219 -269 -365l-2 -6l-49 -279q-35 -206 -121 -292t-256 -86q-305 0 -305 274
q0 80 19 184l45 254q35 197 108 279q94 102 271 102q305 0 305 -270v-29q84 104 84 211q-1 27 -13 80h181q2 -31 2 -57z" />
    <glyph glyph-name="uni1EDE" unicode="&#x1ede;" horiz-adv-x="1075" 
d="M699 1870q-42 0 -121 -35l-17 141q109 37 184 37q184 0 185 -162q0 -49 -18 -77t-64 -68q-48 -40 -57 -60t-19 -65h-156q16 90 31 119t55 72t39 67q0 31 -42 31zM778 1159q0 141 -145 141q-96 0 -144 -64q-47 -65 -77 -241l-95 -528q-18 -115 -18 -162q0 -143 145 -143
q96 0 144 64q47 65 78 241l92 528q20 104 20 164zM1272 1432q0 -145 -90 -242q-61 -61 -189 -133q-2 -10 -5 -36t-7 -44l-100 -571q-23 -123 -49 -188q-94 -239 -392 -238q-365 0 -364 315q0 72 20 190l101 572q23 123 47 187q91 238 393 239q180 0 266 -70t96 -221
q100 88 101 211q-1 41 -13 82h183q2 -29 2 -53z" />
    <glyph glyph-name="uni1EDF" unicode="&#x1edf;" horiz-adv-x="937" 
d="M594 1436q0 64 -164 -2l-16 139q104 37 186 37q182 0 182 -160q0 -51 -17 -79t-65 -69t-56 -59q-9 -18 -19 -65h-156q17 88 31 118t54 72q40 43 40 68zM594 788q0 106 -98 107q-72 0 -109 -50t-57 -175l-51 -289q-14 -80 -15 -117q0 -106 98 -106q70 0 107 49
q36 49 59 174l52 289q14 82 14 118zM1057 1008q0 -219 -269 -365l-2 -6l-49 -279q-35 -206 -121 -292t-256 -86q-305 0 -305 274q0 80 19 184l45 254q35 197 108 279q94 102 271 102q305 0 305 -270v-29q84 104 84 211q-1 27 -13 80h181q2 -31 2 -57z" />
    <glyph glyph-name="uni1EE0" unicode="&#x1ee0;" horiz-adv-x="1075" 
d="M614 1890q72 0 121 -63t68 -64q39 0 65 113h129q-33 -143 -78 -204q-46 -60 -127 -60t-126 67q-25 37 -36 48t-26 12q-41 0 -72 -113h-126q39 140 87 202q49 62 121 62zM778 1159q0 141 -145 141q-96 0 -144 -64q-47 -65 -77 -241l-95 -528q-18 -115 -18 -162
q0 -143 145 -143q96 0 144 64q47 65 78 241l92 528q20 104 20 164zM1272 1432q0 -145 -90 -242q-61 -61 -189 -133q-2 -10 -5 -36t-7 -44l-100 -571q-23 -123 -49 -188q-94 -239 -392 -238q-365 0 -364 315q0 72 20 190l101 572q23 123 47 187q91 238 393 239q180 0 266 -70
t96 -221q100 88 101 211q-1 41 -13 82h183q2 -29 2 -53z" />
    <glyph glyph-name="uni1EE1" unicode="&#x1ee1;" horiz-adv-x="937" 
d="M668 1350q39 0 67 112h127q-29 -142 -77 -204t-128 -62t-125 68q-27 39 -36 49q-10 10 -25 10q-43 0 -72 -113h-127q37 142 86 204t122 62t122 -62q49 -64 66 -64zM594 788q0 106 -98 107q-72 0 -109 -50t-57 -175l-51 -289q-14 -80 -15 -117q0 -106 98 -106q70 0 107 49
q36 49 59 174l52 289q14 82 14 118zM1057 1008q0 -219 -269 -365l-2 -6l-49 -279q-35 -206 -121 -292t-256 -86q-305 0 -305 274q0 80 19 184l45 254q35 197 108 279q94 102 271 102q305 0 305 -270v-29q84 104 84 211q-1 27 -13 80h181q2 -31 2 -57z" />
    <glyph glyph-name="uni1EE2" unicode="&#x1ee2;" horiz-adv-x="1075" 
d="M254 -416l41 240h207l-43 -240h-205zM778 1159q0 141 -145 141q-96 0 -144 -64q-47 -65 -77 -241l-95 -528q-18 -115 -18 -162q0 -143 145 -143q96 0 144 64q47 65 78 241l92 528q20 104 20 164zM1272 1432q0 -145 -90 -242q-61 -61 -189 -133q-2 -10 -5 -36t-7 -44
l-100 -571q-23 -123 -49 -188q-94 -239 -392 -238q-365 0 -364 315q0 72 20 190l101 572q23 123 47 187q91 238 393 239q180 0 266 -70t96 -221q100 88 101 211q-1 41 -13 82h183q2 -29 2 -53z" />
    <glyph glyph-name="uni1EE3" unicode="&#x1ee3;" horiz-adv-x="937" 
d="M180 -416l41 240h207l-43 -240h-205zM594 788q0 106 -98 107q-72 0 -109 -50t-57 -175l-51 -289q-14 -80 -15 -117q0 -106 98 -106q70 0 107 49q36 49 59 174l52 289q14 82 14 118zM1057 1008q0 -219 -269 -365l-2 -6l-49 -279q-35 -206 -121 -292t-256 -86
q-305 0 -305 274q0 80 19 184l45 254q35 197 108 279q94 102 271 102q305 0 305 -270v-29q84 104 84 211q-1 27 -13 80h181q2 -31 2 -57z" />
    <glyph glyph-name="uni1EE4" unicode="&#x1ee4;" horiz-adv-x="1021" 
d="M252 -416l43 240h205l-41 -240h-207zM449 162q96 0 140 57t73 219l180 1024h225l-186 -1065q-23 -129 -45 -185t-64 -108q-111 -125 -328 -124q-352 0 -352 292q0 80 25 205l172 985h225l-180 -1024q-18 -106 -19 -143q0 -133 134 -133z" />
    <glyph glyph-name="uni1EE5" unicode="&#x1ee5;" horiz-adv-x="845" 
d="M168 -416l41 240h207l-43 -240h-205zM352 166q63 0 99 57q35 57 61 203l111 625h213l-185 -1051h-159l-3 82q-49 -57 -94 -80t-110 -22q-113 0 -172 59t-59 153t24 224l110 635h215l-114 -648q-16 -90 -17 -137q0 -100 80 -100z" />
    <glyph glyph-name="uni1EE6" unicode="&#x1ee6;" horiz-adv-x="1021" 
d="M705 1870q-40 0 -123 -35l-17 141q111 37 185 37q184 0 184 -162q0 -49 -18 -77t-64 -69t-56 -59t-20 -65h-155q16 88 29 117q12 29 54 73t41 68q0 31 -40 31zM449 162q96 0 140 57t73 219l180 1024h225l-186 -1065q-23 -129 -45 -185t-64 -108q-111 -125 -328 -124
q-352 0 -352 292q0 80 25 205l172 985h225l-180 -1024q-18 -106 -19 -143q0 -133 134 -133z" />
    <glyph glyph-name="uni1EE7" unicode="&#x1ee7;" horiz-adv-x="845" 
d="M586 1436q0 64 -160 -2l-18 139q109 37 186 37q182 0 182 -160q0 -51 -17 -79t-65 -70t-58 -60t-18 -63h-153q17 90 29 118t52 72q40 43 40 68zM352 166q63 0 99 57q35 57 61 203l111 625h213l-185 -1051h-159l-3 82q-49 -57 -94 -80t-110 -22q-113 0 -172 59t-59 153
t24 224l110 635h215l-114 -648q-16 -90 -17 -137q0 -100 80 -100z" />
    <glyph glyph-name="uni1EE8" unicode="&#x1ee8;" horiz-adv-x="1142" 
d="M631 1606l176 303h237l-256 -303h-157zM449 162q96 0 140 57t73 219l180 1024h225l-55 -311q166 106 166 256q0 33 -15 78h180q4 -31 5 -58q0 -156 -140 -276q-61 -53 -221 -139l-106 -615q-23 -129 -45 -185t-64 -108q-111 -125 -319 -124q-360 0 -361 292q0 80 25 205
l172 985h225l-180 -1024q-18 -113 -19 -145q0 -131 134 -131z" />
    <glyph glyph-name="uni1EE9" unicode="&#x1ee9;" horiz-adv-x="989" 
d="M467 1190l178 303h238l-256 -303h-160zM352 166q63 0 100 58q36 58 60 200l111 627h213l-56 -322q164 98 164 258q0 29 -14 78h182q2 -27 2 -55q0 -130 -79 -222t-279 -198l-105 -590h-159l-3 82q-51 -57 -95 -80t-109 -22q-111 0 -171 59t-60 153t22 224l112 635h215
l-114 -648q-16 -92 -17 -139q0 -98 80 -98z" />
    <glyph glyph-name="uni1EEA" unicode="&#x1eea;" horiz-adv-x="1142" 
d="M795 1606h-158l-150 303h215zM449 162q96 0 140 57t73 219l180 1024h225l-55 -311q166 106 166 256q0 33 -15 78h180q4 -31 5 -58q0 -156 -140 -276q-61 -53 -221 -139l-106 -615q-23 -129 -45 -185t-64 -108q-111 -125 -319 -124q-360 0 -361 292q0 80 25 205l172 985
h225l-180 -1024q-18 -113 -19 -145q0 -131 134 -131z" />
    <glyph glyph-name="uni1EEB" unicode="&#x1eeb;" horiz-adv-x="989" 
d="M641 1190h-158l-149 303h217zM352 166q63 0 100 58q36 58 60 200l111 627h213l-56 -322q164 98 164 258q0 29 -14 78h182q2 -27 2 -55q0 -130 -79 -222t-279 -198l-105 -590h-159l-3 82q-51 -57 -95 -80t-109 -22q-111 0 -171 59t-60 153t22 224l112 635h215l-114 -648
q-16 -92 -17 -139q0 -98 80 -98z" />
    <glyph glyph-name="uni1EEC" unicode="&#x1eec;" horiz-adv-x="1142" 
d="M704 1870q-41 0 -118 -35l-19 141q111 37 185 37q184 0 184 -162q0 -49 -17 -77t-65 -68t-56 -60q-10 -20 -20 -65h-155q16 88 30 119q13 31 53 73t39 66q0 31 -41 31zM449 162q96 0 140 57t73 219l180 1024h225l-55 -311q166 106 166 256q0 33 -15 78h180q4 -31 5 -58
q0 -156 -140 -276q-61 -53 -221 -139l-106 -615q-23 -129 -45 -185t-64 -108q-111 -125 -319 -124q-360 0 -361 292q0 80 25 205l172 985h225l-180 -1024q-18 -113 -19 -145q0 -131 134 -131z" />
    <glyph glyph-name="uni1EED" unicode="&#x1eed;" horiz-adv-x="989" 
d="M594 1436q0 64 -162 -2l-18 139q104 37 186 37q182 0 182 -160q0 -51 -17 -79t-65 -70t-57 -60q-10 -18 -18 -63h-156q17 88 31 118t54 72q40 43 40 68zM352 166q63 0 100 58q36 58 60 200l111 627h213l-56 -322q164 98 164 258q0 29 -14 78h182q2 -27 2 -55
q0 -130 -79 -222t-279 -198l-105 -590h-159l-3 82q-51 -57 -95 -80t-109 -22q-111 0 -171 59t-60 153t22 224l112 635h215l-114 -648q-16 -92 -17 -139q0 -98 80 -98z" />
    <glyph glyph-name="uni1EEE" unicode="&#x1eee;" horiz-adv-x="1142" 
d="M642 1890q73 0 121 -63t66 -64q37 0 68 113h127q-33 -144 -79 -204t-126 -60t-123 63t-63 64q-43 0 -74 -113h-127q37 140 87 202t123 62zM449 162q96 0 140 57t73 219l180 1024h225l-55 -311q166 106 166 256q0 33 -15 78h180q4 -31 5 -58q0 -156 -140 -276
q-61 -53 -221 -139l-106 -615q-23 -129 -45 -185t-64 -108q-111 -125 -319 -124q-360 0 -361 292q0 80 25 205l172 985h225l-180 -1024q-18 -113 -19 -145q0 -131 134 -131z" />
    <glyph glyph-name="uni1EEF" unicode="&#x1eef;" horiz-adv-x="989" 
d="M674 1350q37 0 65 112h129q-33 -143 -78 -205q-46 -61 -127 -61t-126 68q-25 37 -36 48t-26 11q-43 0 -72 -113h-127q40 142 88 204t120 62t122 -62q49 -64 68 -64zM352 166q63 0 100 58q36 58 60 200l111 627h213l-56 -322q164 98 164 258q0 29 -14 78h182q2 -27 2 -55
q0 -130 -79 -222t-279 -198l-105 -590h-159l-3 82q-51 -57 -95 -80t-109 -22q-111 0 -171 59t-60 153t22 224l112 635h215l-114 -648q-16 -92 -17 -139q0 -98 80 -98z" />
    <glyph glyph-name="uni1EF0" unicode="&#x1ef0;" horiz-adv-x="1142" 
d="M256 -416l43 240h205l-41 -240h-207zM449 162q96 0 140 57t73 219l180 1024h225l-55 -311q166 106 166 256q0 33 -15 78h180q4 -31 5 -58q0 -156 -140 -276q-61 -53 -221 -139l-106 -615q-23 -129 -45 -185t-64 -108q-111 -125 -319 -124q-360 0 -361 292q0 80 25 205
l172 985h225l-180 -1024q-18 -113 -19 -145q0 -131 134 -131z" />
    <glyph glyph-name="uni1EF1" unicode="&#x1ef1;" horiz-adv-x="989" 
d="M190 -416l43 240h205l-41 -240h-207zM352 166q63 0 100 58q36 58 60 200l111 627h213l-56 -322q164 98 164 258q0 29 -14 78h182q2 -27 2 -55q0 -130 -79 -222t-279 -198l-105 -590h-159l-3 82q-51 -57 -95 -80t-109 -22q-111 0 -171 59t-60 153t22 224l112 635h215
l-114 -648q-16 -92 -17 -139q0 -98 80 -98z" />
    <glyph glyph-name="Ygrave" unicode="&#x1ef2;" horiz-adv-x="827" 
d="M719 1606h-158l-149 303h217zM211 0l92 514l-172 948h234l96 -671l332 671h241l-506 -948l-92 -514h-225z" />
    <glyph glyph-name="ygrave" unicode="&#x1ef3;" horiz-adv-x="774" 
d="M592 1190h-158l-149 303h217zM184 -4l-71 1055h213l16 -768l279 768h219l-475 -1176q-85 -213 -175 -279t-294 -67l30 180q98 0 134 31t87 156z" />
    <glyph glyph-name="uni1EF4" unicode="&#x1ef4;" horiz-adv-x="827" 
d="M145 -416l41 240h207l-43 -240h-205zM211 0l92 514l-172 948h234l96 -671l332 671h241l-506 -948l-92 -514h-225z" />
    <glyph glyph-name="uni1EF5" unicode="&#x1ef5;" horiz-adv-x="774" 
d="M436 -416l43 240h205l-41 -240h-207zM184 -4l-71 1055h213l16 -768l279 768h219l-475 -1176q-85 -213 -175 -279t-294 -67l30 180q98 0 134 31t87 156z" />
    <glyph glyph-name="uni1EF6" unicode="&#x1ef6;" horiz-adv-x="827" 
d="M635 1839q0 31 -40 31t-120 -35l-16 141q111 37 184 37q182 0 182 -162q0 -49 -17 -77t-83 -84q-27 -26 -36 -44t-19 -65h-156q14 88 29 118q14 30 65 85q27 33 27 55zM211 0l92 514l-172 948h234l96 -671l332 671h241l-506 -948l-92 -514h-225z" />
    <glyph glyph-name="uni1EF7" unicode="&#x1ef7;" horiz-adv-x="774" 
d="M541 1436q0 63 -162 -2l-17 139q104 37 187 37q182 0 182 -162q0 -49 -17 -77q-16 -28 -64 -70t-58 -59t-19 -64h-155q16 90 29 118t53 72q40 43 41 68zM184 -4l-71 1055h213l16 -768l279 768h219l-475 -1176q-85 -213 -175 -279t-294 -67l30 180q98 0 134 31t87 156z
" />
    <glyph glyph-name="uni1EF8" unicode="&#x1ef8;" horiz-adv-x="827" 
d="M544 1890q73 0 122 -63t67 -64q39 0 66 113h127q-29 -140 -77 -202t-128 -62t-122 63t-64 64q-43 0 -72 -113h-127q39 140 87 202t121 62zM211 0l92 514l-172 948h234l96 -671l332 671h241l-506 -948l-92 -514h-225z" />
    <glyph glyph-name="uni1EF9" unicode="&#x1ef9;" horiz-adv-x="774" 
d="M633 1350q37 0 65 112h127q-31 -143 -76 -205q-46 -61 -127 -61t-126 68q-27 39 -37 49t-25 10q-43 0 -72 -113h-126q39 142 87 204q49 62 121 62t121 -62q49 -64 68 -64zM184 -4l-71 1055h213l16 -768l279 768h219l-475 -1176q-85 -213 -175 -279t-294 -67l30 180
q98 0 134 31t87 156z" />
    <glyph glyph-name="uni2002" unicode="&#x2002;" horiz-adv-x="1024" 
 />
    <glyph glyph-name="uni2003" unicode="&#x2003;" horiz-adv-x="2048" 
 />
    <glyph glyph-name="uni2004" unicode="&#x2004;" horiz-adv-x="681" 
 />
    <glyph glyph-name="uni2005" unicode="&#x2005;" horiz-adv-x="512" 
 />
    <glyph glyph-name="uni2006" unicode="&#x2006;" horiz-adv-x="342" 
 />
    <glyph glyph-name="uni2007" unicode="&#x2007;" 
 />
    <glyph glyph-name="uni2008" unicode="&#x2008;" horiz-adv-x="0" 
 />
    <glyph glyph-name="uni2009" unicode="&#x2009;" horiz-adv-x="409" 
 />
    <glyph glyph-name="uni200A" unicode="&#x200a;" horiz-adv-x="256" 
 />
    <glyph glyph-name="uni2011" unicode="&#x2011;" horiz-adv-x="669" 
d="M125 639l33 190h463l-33 -190h-463z" />
    <glyph glyph-name="figuredash" unicode="&#x2012;" 
d="M127 639l33 190h649l-33 -190h-649z" />
    <glyph glyph-name="endash" unicode="&#x2013;" 
d="M127 639l33 190h649l-33 -190h-649z" />
    <glyph glyph-name="emdash" unicode="&#x2014;" 
d="M43 639l33 190h817l-33 -190h-817z" />
    <glyph glyph-name="afii00208" unicode="&#x2015;" 
d="M43 639l33 190h817l-33 -190h-817z" />
    <glyph glyph-name="underscoredbl" unicode="&#x2017;" horiz-adv-x="694" 
d="M-174 -264l20 119h768l-20 -119h-768zM-209 -459l21 119h768l-21 -119h-768z" />
    <glyph glyph-name="quoteleft" unicode="&#x2018;" horiz-adv-x="337" 
d="M469 1462l-135 -508h-223l178 508h180z" />
    <glyph glyph-name="quoteright" unicode="&#x2019;" horiz-adv-x="337" 
d="M111 954l137 508h221l-176 -508h-182z" />
    <glyph glyph-name="quotesinglbase" unicode="&#x201a;" horiz-adv-x="337" 
d="M-106 -274l137 507h221l-176 -507h-182z" />
    <glyph glyph-name="quotedblleft" unicode="&#x201c;" horiz-adv-x="659" 
d="M469 1462l-135 -508h-223l178 508h180zM793 1462l-138 -508h-223l178 508h183z" />
    <glyph glyph-name="quotedblright" unicode="&#x201d;" horiz-adv-x="659" 
d="M432 954l137 508h224l-179 -508h-182zM111 954l137 508h221l-176 -508h-182z" />
    <glyph glyph-name="quotedblbase" unicode="&#x201e;" horiz-adv-x="659" 
d="M215 -274l137 507h223l-178 -507h-182zM-106 -274l137 507h221l-176 -507h-182z" />
    <glyph glyph-name="dagger" unicode="&#x2020;" 
d="M375 836h-244l33 184h244l77 442h222l-78 -442h243l-32 -184h-244l-203 -1151h-221z" />
    <glyph glyph-name="daggerdbl" unicode="&#x2021;" 
d="M377 836h-246l33 184h246l77 442h220l-78 -442h245l-32 -184h-246l-49 -281h223l-33 -184h-223l-121 -686h-219l121 686h-225l32 184h226z" />
    <glyph glyph-name="bullet" unicode="&#x2022;" 
d="M432 1069q150 0 251 -98q101 -97 101 -243t-101 -244t-252 -99q-151 0 -252 98q-101 97 -101 243t102 244t252 99z" />
    <glyph glyph-name="ellipsis" unicode="&#x2026;" horiz-adv-x="1308" 
d="M887 0l41 240h225l-41 -240h-225zM451 0l43 240h225l-43 -240h-225zM14 0l41 240h226l-41 -240h-226z" />
    <glyph glyph-name="perthousand" unicode="&#x2030;" horiz-adv-x="2109" 
d="M377 0l594 1462h196l-592 -1462h-198zM1868 547q0 70 -68 69q-44 0 -68 -32t-40 -123l-33 -187q-8 -61 -8 -86q0 -70 67 -69q45 -1 69 33t40 122l33 187q8 53 8 86zM2060 559q0 -45 -12 -119l-27 -143q-31 -174 -101 -244t-212 -69q-246 0 -246 206q1 60 15 138l26 143
q29 158 95 219q67 61 210 62q252 0 252 -193zM1231 547q0 70 -68 69q-45 0 -69 -34t-39 -121l-33 -187q-10 -59 -10 -84q0 -72 67 -71q45 -1 69 33t40 122l33 187q10 57 10 86zM1423 559q0 -47 -14 -119l-25 -143q-30 -174 -100 -244t-215 -69q-246 0 -246 206q1 48 17 138
l24 143q29 158 97 219t210 62q252 0 252 -193zM532 1278q0 70 -67 70q-45 0 -69 -34t-40 -124l-32 -184q-8 -66 -9 -88q0 -70 68 -70q45 0 69 34t40 124l32 184q8 53 8 88zM725 1288q0 -43 -12 -119l-27 -143q-30 -174 -100 -244t-213 -69q-246 0 -246 207q0 59 14 139
l27 143q29 158 95 219q67 61 210 62q252 0 252 -195z" />
    <glyph glyph-name="guilsinglleft" unicode="&#x2039;" horiz-adv-x="413" 
d="M270 586l78 -258l-145 -72l-158 348l281 348l112 -108z" />
    <glyph glyph-name="guilsinglright" unicode="&#x203a;" horiz-adv-x="413" 
d="M174 623l-80 258l148 71l155 -348l-278 -348l-115 109z" />
    <glyph glyph-name="uni203E" unicode="&#x203e;" horiz-adv-x="694" 
d="M164 1653l26 155h768l-26 -155h-768z" />
    <glyph glyph-name="fraction" unicode="&#x2044;" horiz-adv-x="280" 
d="M-195 0l592 1462h199l-594 -1462h-197z" />
    <glyph glyph-name="zerosuperior" unicode="&#x2070;" horiz-adv-x="604" 
d="M483 1540q-43 0 -67 -37t-41 -127l-51 -295q-12 -72 -13 -92q0 -72 62 -71q43 0 67 36t41 127l51 295q12 70 13 92q0 72 -62 72zM481 1679q123 0 178 -49t56 -153q0 -57 -15 -136l-51 -288q-27 -152 -90 -213q-63 -62 -185 -62t-177 49t-56 154q1 57 15 135l51 289
q27 152 89 213t185 61z" />
    <glyph glyph-name="foursuperior" unicode="&#x2074;" horiz-adv-x="604" 
d="M399 791l27 151h-303l18 102l326 623h170l-305 -588h117l36 203h146l-37 -203h63l-24 -137h-64l-26 -151h-144z" />
    <glyph glyph-name="fivesuperior" unicode="&#x2075;" horiz-adv-x="604" 
d="M649 1178q0 -66 -17 -149t-42 -126q-66 -125 -236 -125q-229 0 -229 185q0 43 10 84h156v-17q-4 -33 -4 -41q0 -72 69 -71q72 0 97 90q23 76 23 146t-52 69q-51 0 -94 -56l-127 25l106 475h408l-23 -139h-260l-45 -191q43 14 88 15q172 0 172 -174z" />
    <glyph glyph-name="sixsuperior" unicode="&#x2076;" horiz-adv-x="604" 
d="M426 1221q-59 0 -82 -64q-35 -96 -35 -180q0 -63 62 -64q59 0 80 62q35 96 34 182q0 64 -59 64zM504 1348q156 0 156 -173t-66 -285q-65 -112 -227 -112q-229 0 -230 191q1 117 33 195t94 167l232 336h198l-221 -319h31z" />
    <glyph glyph-name="sevensuperior" unicode="&#x2077;" horiz-adv-x="604" 
d="M141 791l363 737h-264l24 139h447l-19 -102l-352 -774h-199z" />
    <glyph glyph-name="eightsuperior" unicode="&#x2078;" horiz-adv-x="604" 
d="M422 1180q-66 0 -90 -52q-31 -74 -31 -155q-1 -59 65 -59t89 44q33 70 32 160q1 62 -65 62zM482 1554q-64 0 -81 -51q-27 -61 -26 -143q0 -55 62 -55t83 47q27 66 27 145q-1 57 -65 57zM702 1503q0 -195 -106 -250q59 -47 59 -137q1 -168 -67 -253t-221 -85
q-238 0 -238 185q0 53 16 121t40 107q24 40 79 71q-43 37 -43 110q0 119 51 211q59 96 215 96q215 0 215 -176z" />
    <glyph glyph-name="ninesuperior" unicode="&#x2079;" horiz-adv-x="604" 
d="M484 1546q-60 0 -81 -51q-33 -84 -32 -172q0 -59 59 -59t82 53q33 80 33 170q-1 59 -61 59zM362 1139q-78 0 -120 44t-43 122q0 77 20 157t51 123q63 94 217 94q229 0 230 -184q0 -123 -47 -227q-18 -41 -76 -125l-242 -352h-198l239 350q-14 -2 -31 -2z" />
    <glyph glyph-name="zeroinferior" unicode="&#x2080;" horiz-adv-x="604" 
d="M307 545q-43 0 -67 -37t-41 -127l-52 -295q-12 -66 -12 -92q0 -72 62 -72q43 0 67 37t41 127l51 295q12 72 13 92q0 72 -62 72zM306 684q122 0 177 -49t56 -154q0 -55 -15 -135l-51 -289q-27 -152 -90 -213t-185 -61t-178 49q-55 49 -55 154q1 57 15 135l51 289
q27 152 90 213t185 61z" />
    <glyph glyph-name="oneinferior" unicode="&#x2081;" horiz-adv-x="604" 
d="M98 -205l123 690l-119 -49l-49 129l256 107h119l-156 -877h-174z" />
    <glyph glyph-name="twoinferior" unicode="&#x2082;" horiz-adv-x="604" 
d="M342 485q0 57 -51 58q-39 0 -61 -30t-37 -107h-158q16 144 82 210t188 66q219 0 219 -190q0 -138 -113 -280q-28 -34 -118 -128l-135 -150h264l-25 -139h-481l21 117l253 287q152 174 152 286z" />
    <glyph glyph-name="threeinferior" unicode="&#x2083;" horiz-adv-x="604" 
d="M209 319q133 0 133 152q0 72 -61 72q-37 0 -57 -26t-34 -87h-157q17 132 79 192t174 60t170 -49t58 -139q0 -160 -108 -234q57 -57 57 -151q0 -139 -65 -233t-216 -93q-231 0 -231 182q0 37 10 86h156q-4 -33 -4 -57q0 -72 67 -72q51 0 81 47t30 113t-23 90
q-23 23 -73 23h-74l22 124h66z" />
    <glyph glyph-name="fourinferior" unicode="&#x2084;" horiz-adv-x="604" 
d="M223 -205l27 154h-303l18 102l326 621h170l-305 -586h116l37 201h146l-37 -201h63l-24 -137h-62l-28 -154h-144z" />
    <glyph glyph-name="fiveinferior" unicode="&#x2085;" horiz-adv-x="604" 
d="M301 356q172 0 172 -172q0 -68 -17 -150t-42 -126q-66 -125 -236 -125q-229 0 -229 184q0 43 10 84h156q-2 -37 -2 -57q0 -72 67 -72q72 0 99 90q20 82 20 149t-53 66q-49 0 -92 -55l-127 25l108 475h406l-23 -140h-260l-45 -190q43 14 88 14z" />
    <glyph glyph-name="sixinferior" unicode="&#x2086;" horiz-adv-x="604" 
d="M309 162q0 63 -58 63t-83 -63q-35 -96 -35 -182q-1 -62 59 -62t84 62q33 98 33 182zM330 352q74 0 114 -45t39 -129q0 -172 -65 -284t-228 -111q-229 0 -229 190q0 117 45 228q20 47 82 135l231 336h199l-221 -320h33z" />
    <glyph glyph-name="seveninferior" unicode="&#x2087;" horiz-adv-x="604" 
d="M-35 -205l363 737h-265l25 140h447l-19 -103l-352 -774h-199z" />
    <glyph glyph-name="eightinferior" unicode="&#x2088;" horiz-adv-x="604" 
d="M248 184q-66 0 -90 -51q-31 -74 -31 -156q-1 -59 65 -59t89 45q33 76 32 160q1 61 -65 61zM308 559q-64 0 -81 -51q-27 -61 -26 -143q0 -55 62 -55t83 46q27 80 27 146q-1 57 -65 57zM47 377q0 127 51 209q57 98 215 98q215 0 215 -176q0 -90 -28 -158t-78 -92
q59 -47 59 -137q0 -164 -67 -252q-68 -86 -224 -86q-236 0 -235 184q0 53 16 121t40 108t79 70q-43 33 -43 111z" />
    <glyph glyph-name="nineinferior" unicode="&#x2089;" horiz-adv-x="604" 
d="M310 549q-60 0 -81 -51q-33 -84 -32 -170q0 -60 59 -60t82 54q33 80 33 167q-1 60 -61 60zM188 143q-164 0 -163 172q0 72 20 151t51 124q63 94 217 94q229 0 230 -184q0 -113 -47 -228q-16 -41 -76 -125l-242 -352h-198l239 350q-14 -2 -31 -2z" />
    <glyph glyph-name="franc" unicode="&#x20a3;" horiz-adv-x="1212" 
d="M1150 918q62 0 134 -54l-121 -172q-37 51 -78 51q-61 0 -104 -90t-80 -291l-63 -362h-205l158 897h157l8 -96q56 69 94 93t100 24zM31 0l258 1462h590l-33 -190h-371l-80 -451h299l-32 -190h-300l-112 -631h-219z" />
    <glyph glyph-name="lira" unicode="&#x20a4;" 
d="M197 1004q0 188 79 317q98 160 320 160q150 0 230 -80t81 -225q0 -45 -12 -121h-207q10 74 10 123q0 121 -102 120q-84 0 -127 -86q-45 -96 -45 -185t18 -161h291l-22 -129h-244q6 -57 6 -84v-35h217l-22 -129h-213q-8 -79 -48 -161t-94 -138h451l-33 -190h-749l28 164
q96 37 160 125q63 88 74 200h-187l23 129h170q-2 37 -19 119h-131l23 129h84l-4 29l-2 23q-4 49 -4 86z" />
    <glyph glyph-name="peseta" unicode="&#x20a7;" 
d="M426 936l-41 -236h57q78 -6 130 52t83 184h-229zM680 1151q0 63 -30 99t-103 36h-60l-38 -225h227q4 27 4 90zM545 1462q195 0 273 -80t79 -249q0 -6 -4 -72h106l-22 -125h-103q-47 -221 -154 -320q-108 -98 -294 -94h-68l-92 -522h-219l164 936h-125l20 125h127l72 401
h240z" />
    <glyph glyph-name="uni20AB" unicode="&#x20ab;" 
d="M246 283q0 -117 86 -117q123 0 170 264l33 193q14 70 14 127q0 139 -96 139q-113 0 -148 -203l-47 -264q-12 -90 -12 -139zM279 -20q-248 0 -248 266q0 90 22 219l43 246q33 193 108 277t201 83q126 0 199 -65l27 159h-213l26 156h215l25 141h213l-25 -141h107l-27 -156
h-106l-207 -1165h-164l-2 68q-49 -52 -89 -70t-105 -18zM-80 -367l27 152h717l-27 -152h-717z" />
    <glyph glyph-name="Euro" unicode="&#x20ac;" 
d="M601 1483q161 0 243 -80t82 -227q0 -47 -15 -119h-206q10 84 10 119q0 125 -105 124q-74 0 -114 -70t-72 -251l-18 -102h382l-67 -129h-338l-23 -127h302l-70 -129h-254q-23 -139 -23 -205q0 -125 109 -125q72 0 112 47t60 158h209q-37 -199 -135 -293t-260 -94
q-322 0 -322 284q0 86 25 228h-131l67 129h86l23 127h-131l67 129h86l27 157q25 137 53 211q29 74 76 125q104 113 265 113z" />
    <glyph glyph-name="uni20B4" unicode="&#x20b4;" 
d="M584 1481q145 0 222 -75t77 -216q0 -203 -119 -348l106 -41l-57 -119l-156 57q-47 -31 -135 -69l-57 -29l287 -106l-58 -121l-368 137q-82 -98 -82 -256q0 -69 30 -101t106 -32q75 0 116 38t57 128h205q-29 -160 -92 -230q-102 -119 -304 -118q-162 0 -248 78t-87 221
q0 201 102 342l-88 32l57 121l135 -49q37 27 90 51t73 32q20 9 30 13l-252 92l57 121l334 -123q98 109 99 273q0 115 -103 114q-113 0 -137 -149h-207q47 332 367 332z" />
    <glyph glyph-name="uni2101" unicode="&#x2101;" horiz-adv-x="1390" 
d="M1130 267q0 37 -16 57t-90 53q-143 63 -143 205t77 224q78 81 205 81q176 0 213 -135l-145 -80q-25 80 -82 80q-39 0 -65 -36t-26 -84t19 -72q18 -24 89 -54t105 -78q34 -47 34 -129q0 -135 -70 -223t-211 -88q-221 -1 -260 153l149 80q14 -55 36 -77t63 -21q70 0 94 53
t24 91zM467 870l-23 377l-153 -377h176zM651 702l307 760h175l-594 -1462h-172l237 586h-119l-10 166h-235l-68 -166h-182l420 876h145z" />
    <glyph glyph-name="afii61248" unicode="&#x2105;" horiz-adv-x="1392" 
d="M336 0l594 1462h172l-592 -1462h-174zM1102 682q-53 0 -85 -43t-50 -141l-33 -187q-12 -63 -12 -94q0 -90 82 -90q55 0 87 43t50 141l30 181q10 51 11 100q0 90 -80 90zM1354 604q0 -55 -15 -129l-34 -205q-29 -152 -100 -218t-202 -66t-191 53t-60 166q0 49 14 129
l37 205q27 153 99 219t208 65q244 0 244 -219zM342 637q-106 0 -163 62q-56 62 -56 182q0 53 16 151l19 107q31 176 103 257q73 81 198 81q170 0 229 -154l-139 -76q-17 49 -37 69t-63 19q-86 0 -127 -233l-19 -96q-12 -82 -12 -129q0 -98 71 -99q38 0 62 16t65 72l115 -75
q-96 -154 -262 -154z" />
    <glyph glyph-name="afii61289" unicode="&#x2113;" horiz-adv-x="798" 
d="M606 1237q0 94 -53 94q-53 -1 -88 -131t-66 -452q207 272 207 489zM408 119q24 0 38 17q14 16 39 76t60 60q47 0 47 -61q0 -96 -73 -176t-161 -80q-141 0 -182 174q-16 66 -16 264q-90 -115 -117 -114q-16 0 -31 26q-14 27 -14 59t62 100t104 132q33 354 100 588
q92 309 273 309q90 0 146 -67t56 -175q0 -317 -352 -682l-6 -77q-19 -193 -19 -283t46 -90z" />
    <glyph glyph-name="afii61352" unicode="&#x2116;" horiz-adv-x="1746" 
d="M967 0l30 168h607l-29 -168h-608zM1526 961q0 92 -74 92q-49 0 -79 -47t-48 -154l-25 -139q-10 -47 -10 -109q0 -92 74 -92q51 0 80 46t47 155l25 139q10 61 10 109zM1460 1227q276 0 277 -250q0 -63 -17 -146l-28 -161q-31 -180 -108 -256t-228 -76q-274 0 -275 248
q1 53 15 147l28 162q33 178 110 255t226 77zM27 0l258 1462h223l201 -999l176 999h213l-258 -1462h-213l-211 1012l-178 -1012h-211z" />
    <glyph glyph-name="trademark" unicode="&#x2122;" horiz-adv-x="1308" 
d="M598 586l156 876h159l78 -491l252 491h162l-156 -876h-157l94 538l-166 -360h-127l-41 360l-94 -538h-160zM190 586l132 735h-183l25 141h532l-24 -141h-178l-129 -735h-175z" />
    <glyph glyph-name="uni2126" unicode="&#x2126;" horiz-adv-x="987" 
d="M618 1483q200 0 287 -78q88 -78 88 -240q0 -63 -22 -188l-62 -359q-29 -164 -83 -256t-148 -137l-10 -61h176l-29 -164h-350l59 346q66 26 104 98t64 220l58 331q20 115 20 173t-37 96q-37 36 -119 36t-133 -66q-49 -67 -80 -239l-57 -331q-20 -109 -20 -177
q0 -111 75 -141l-61 -346h-352l28 164h179l10 63q-102 76 -103 246q0 86 25 227l63 357q35 211 121 305q109 121 309 121z" />
    <glyph glyph-name="estimated" unicode="&#x212e;" horiz-adv-x="886" 
d="M623 778v211q-43 244 -172 244q-70 0 -110 -56t-65 -188v-211h347zM823 637h-547v-246q25 -143 66 -201t115 -59q137 0 190 244h152q-29 -164 -78 -236q-100 -162 -277 -162q-176 -1 -278 181t-102 515t102 523q104 190 283 190q115 0 201 -82t129 -234q44 -150 44 -433z
" />
    <glyph glyph-name="onethird" unicode="&#x2153;" horiz-adv-x="1488" 
d="M299 0l592 1462h199l-592 -1462h-199zM1057 524q70 0 98 35q37 51 37 120t-62 69q-39 0 -58 -25t-34 -88h-155q13 131 77 191t176 60t170 -48q58 -49 58 -140q0 -162 -111 -233q57 -57 58 -154q0 -137 -65 -230t-216 -93q-231 0 -231 182q0 35 10 86h158q-6 -43 -6 -59
q0 -70 67 -70q51 0 81 47t30 129q0 96 -95 96h-75l22 125h66zM236 586l122 690l-118 -49l-50 127l256 108h119l-155 -876h-174z" />
    <glyph glyph-name="twothirds" unicode="&#x2154;" horiz-adv-x="1488" 
d="M373 0l594 1462h196l-592 -1462h-198zM1114 524q133 0 133 152q0 72 -61 72q-38 0 -58 -26t-32 -87h-158q16 129 78 190t176 61q112 0 170 -48q58 -49 57 -140q0 -160 -108 -233q57 -57 57 -174t-64 -210t-217 -93q-231 0 -231 182q0 35 8 86h158q-4 -35 -4 -59
q0 -70 67 -70q51 0 81 47q30 48 30 114t-22 89q-23 23 -74 22h-74l21 125h67zM430 1333q-38 1 -60 -29t-38 -108h-158q18 145 82 211t188 66q219 0 220 -191q0 -136 -114 -280q-28 -34 -118 -128l-135 -149h264l-24 -139h-482l21 116l254 287q152 174 151 287q0 57 -51 57z
" />
    <glyph glyph-name="uni2155" unicode="&#x2155;" horiz-adv-x="1488" 
d="M311 0l592 1462h199l-594 -1462h-197zM1151 561q172 0 172 -174q0 -69 -17 -149t-42 -125q-66 -125 -236 -125q-229 0 -229 184q0 43 10 84h158q-6 -18 -6 -59q1 -70 71 -70t94 90q23 76 23 146t-53 69q-49 0 -92 -55l-127 22l108 478h408l-25 -140h-260l-43 -190
q43 14 86 14zM246 586l123 690l-119 -49l-49 127l256 108h118l-155 -876h-174z" />
    <glyph glyph-name="uni2156" unicode="&#x2156;" horiz-adv-x="1488" 
d="M373 0l594 1462h196l-592 -1462h-198zM1200 561q172 0 172 -172q0 -69 -17 -151t-42 -125q-66 -125 -236 -125q-229 0 -229 184q0 43 10 84h156v-16q-4 -37 -4 -43q0 -70 70 -70t95 85q24 85 23 153q0 68 -53 67q-51 0 -92 -55l-127 22l108 478h408l-25 -140h-260
l-43 -190q43 14 86 14zM430 1333q-38 1 -60 -29t-38 -108h-158q18 145 82 211t188 66q219 0 220 -191q0 -136 -114 -280q-28 -34 -118 -128l-135 -149h264l-24 -139h-482l21 116l254 287q152 174 151 287q0 57 -51 57z" />
    <glyph glyph-name="uni2157" unicode="&#x2157;" horiz-adv-x="1488" 
d="M375 0l594 1462h196l-592 -1462h-198zM1008 199q0 -72 70 -72t98 90q20 86 20 151t-53 64q-49 0 -92 -55l-127 22l108 478h408l-25 -140h-260l-43 -190q45 14 86 14q172 0 172 -172q0 -67 -17 -149t-42 -127q-68 -125 -236 -125q-229 0 -229 182q0 45 10 86h158
q-6 -48 -6 -57zM430 874q0 66 -22 89q-23 23 -74 22h-74l23 125h65q133 0 133 152q0 72 -61 71q-37 0 -58 -25q-20 -26 -32 -87h-158q16 131 78 191t176 60q112 0 170 -48q58 -50 57 -140q0 -160 -108 -233q57 -57 57 -152q0 -139 -64 -232t-216 -94q-231 0 -232 183
q0 37 10 86h156l-4 -58q0 -72 67 -71q51 0 81 47q30 48 30 114z" />
    <glyph glyph-name="uni2158" unicode="&#x2158;" horiz-adv-x="1488" 
d="M383 0l594 1462h197l-592 -1462h-199zM1206 561q172 0 172 -172q0 -67 -17 -149t-42 -127q-66 -125 -236 -125q-229 0 -229 184q0 43 10 84h156v-16q-4 -37 -4 -43q0 -70 70 -70t96 90q22 76 22 146t-53 69q-49 0 -92 -55l-127 22l106 478h408l-23 -140h-260l-43 -190
q43 14 86 14zM362 586l27 151h-303l18 103l326 622h170l-305 -588h117l37 203h145l-37 -203h64l-25 -137h-61l-29 -151h-144z" />
    <glyph glyph-name="uni2159" unicode="&#x2159;" horiz-adv-x="1488" 
d="M322 0l593 1462h197l-592 -1462h-198zM1079 430q-59 0 -82 -63q-35 -96 -34 -181q0 -63 60 -63t81 61q35 92 35 183q-1 63 -60 63zM1159 557q74 0 114 -45t40 -129q1 -172 -65 -284t-228 -111q-229 0 -229 190q0 117 45 228q20 47 82 135l233 336h199l-224 -320h33z
M252 586l123 690l-119 -49l-49 127l256 108h119l-156 -876h-174z" />
    <glyph glyph-name="uni215A" unicode="&#x215a;" horiz-adv-x="1488" 
d="M395 0l592 1462h199l-594 -1462h-197zM1192 367q0 63 -59 63t-82 -63q-35 -96 -35 -181q0 -63 59 -63t84 61q33 98 33 183zM1210 557q156 0 156 -173t-66 -285t-227 -111q-229 0 -229 190q0 117 45 228q20 47 82 135l231 336h199l-221 -320h30zM442 1147q172 0 172 -172
q0 -68 -17 -150t-42 -127q-66 -125 -236 -125q-229 0 -229 185q0 43 10 84h156q-2 -37 -2 -58q0 -72 68 -71q72 0 98 90q20 83 20 149t-52 66t-93 -55l-127 22l106 477h408l-23 -139h-260l-45 -190q47 14 88 14z" />
    <glyph glyph-name="oneeighth" unicode="&#x215b;" horiz-adv-x="1488" 
d="M297 0l592 1462h198l-593 -1462h-197zM1094 389q-66 0 -88 -51q-33 -70 -33 -156q0 -59 65 -59t88 45q33 80 33 160q1 61 -65 61zM1154 764q-64 0 -81 -51q-27 -61 -26 -144q0 -55 62 -55t83 47q27 68 27 146q-1 57 -65 57zM893 582q0 127 51 209q59 98 215 98
q215 0 215 -176q0 -196 -106 -250q59 -47 59 -137q0 -164 -67 -252q-68 -86 -224 -86q-236 0 -235 184q0 51 16 120q16 68 41 110t78 69q-43 37 -43 111zM231 586l123 690l-118 -49l-50 127l256 108h119l-155 -876h-175z" />
    <glyph glyph-name="threeeighths" unicode="&#x215c;" horiz-adv-x="1488" 
d="M373 0l592 1462h198l-594 -1462h-196zM1144 389q-66 0 -87 -51q-33 -70 -33 -156q0 -59 66 -59t88 45q33 80 32 160q0 61 -66 61zM1207 764q-110 0 -107 -195q0 -55 61 -55t82 47q27 68 27 146q-1 57 -63 57zM946 582q0 121 55 214t209 93q215 0 215 -176
q0 -195 -104 -250q57 -49 57 -137q0 -168 -68 -253t-223 -85q-236 0 -235 184q0 53 16 121q16 69 42 109t79 69q-43 37 -43 111zM430 874q0 66 -22 89q-23 23 -74 22h-74l23 125h65q133 0 133 152q0 72 -61 71q-37 0 -58 -25q-20 -26 -32 -87h-158q16 131 78 191t176 60
q112 0 170 -48q58 -50 57 -140q0 -160 -108 -233q57 -57 57 -152q0 -139 -64 -232t-216 -94q-231 0 -232 183q0 37 10 86h156l-4 -58q0 -72 67 -71q51 0 81 47q30 48 30 114z" />
    <glyph glyph-name="fiveeighths" unicode="&#x215d;" horiz-adv-x="1488" 
d="M373 0l592 1462h198l-594 -1462h-196zM1144 389q-66 0 -87 -51q-33 -70 -33 -156q0 -59 66 -59t88 45q33 80 32 160q0 61 -66 61zM1207 764q-62 0 -85 -58t-22 -135q0 -57 61 -57t82 47q27 68 27 146q-1 57 -63 57zM946 582q0 127 51 209q55 98 213 98q215 0 215 -176
q0 -109 -39 -183q-20 -43 -65 -67q57 -49 57 -137q0 -168 -68 -253t-223 -85q-236 0 -235 184q0 53 16 120q16 68 40 108t81 71q-43 37 -43 111zM440 1147q172 0 172 -172q0 -68 -17 -150t-42 -127q-66 -125 -236 -125q-229 0 -229 185q0 43 10 84h156q-2 -37 -2 -58
q0 -72 67 -71q72 0 99 90q20 83 20 149t-53 66t-92 -55l-127 22l106 477h408l-23 -139h-260l-45 -190q47 14 88 14z" />
    <glyph glyph-name="seveneighths" unicode="&#x215e;" horiz-adv-x="1488" 
d="M301 0l594 1462h197l-592 -1462h-199zM1153 328q1 61 -65 61t-91 -51q-31 -74 -30 -156q0 -59 65 -59t88 45q33 80 33 160zM1150 764q-62 0 -81 -51q-27 -61 -27 -144q0 -55 62 -55t82 47q27 68 26 146q0 57 -62 57zM889 582q0 121 55 214t209 93q215 0 215 -176
q0 -104 -39 -183q-18 -43 -65 -67q57 -49 57 -137q0 -164 -68 -251t-223 -87q-236 0 -235 184q0 51 16 119q16 69 40 109t81 71q-43 37 -43 111zM127 586l362 737h-264l25 139h446l-18 -102l-352 -774h-199z" />
    <glyph glyph-name="arrowleft" unicode="&#x2190;" horiz-adv-x="1638" 
d="M1501 643h-1100l361 -360l-131 -133l-529 546v80l529 547l131 -133l-361 -361h1100v-186z" />
    <glyph glyph-name="arrowup" unicode="&#x2191;" horiz-adv-x="1638" 
d="M707 0v1169l-361 -360l-131 133l545 526h82l544 -526l-131 -133l-360 360v-1169h-188z" />
    <glyph glyph-name="arrowright" unicode="&#x2192;" horiz-adv-x="1638" 
d="M139 643v186h1100l-360 361l131 133l528 -547v-80l-528 -546l-131 133l360 360h-1100z" />
    <glyph glyph-name="arrowdown" unicode="&#x2193;" horiz-adv-x="1638" 
d="M707 1462h188v-1169l360 360l131 -133l-544 -526h-82l-545 526l131 133l361 -360v1169z" />
    <glyph glyph-name="arrowboth" unicode="&#x2194;" horiz-adv-x="1638" 
d="M1290 643h-942l299 -299l-133 -131l-465 483v80l465 484l133 -132l-299 -299h942l-299 299l133 132l465 -484v-80l-465 -483l-133 131z" />
    <glyph glyph-name="arrowupdn" unicode="&#x2195;" horiz-adv-x="1638" 
d="M707 254v954l-299 -299l-132 133l484 465h80l483 -465l-131 -133l-299 299v-954l299 299l131 -133l-483 -465h-80l-484 465l132 133z" />
    <glyph glyph-name="uni2196" unicode="&#x2196;" horiz-adv-x="1638" 
d="M479 446h-186v756l74 74h755v-189h-512l785 -780l-133 -133l-783 782v-510z" />
    <glyph glyph-name="uni2197" unicode="&#x2197;" horiz-adv-x="1638" 
d="M516 1087v189h756l74 -74v-756h-187v508l-784 -780l-131 133l784 780h-512z" />
    <glyph glyph-name="uni2198" unicode="&#x2198;" horiz-adv-x="1638" 
d="M1159 1001h187v-755l-74 -74h-756v188h510l-782 781l131 133l784 -782v509z" />
    <glyph glyph-name="uni2199" unicode="&#x2199;" horiz-adv-x="1638" 
d="M1122 360v-188h-755l-74 74v755h188v-507l783 780l131 -133l-783 -781h510z" />
    <glyph glyph-name="partialdiff" unicode="&#x2202;" 
d="M365 150q66 0 102 53t59 180l45 252q12 82 13 125q0 109 -92 108q-66 0 -103 -53t-59 -180l-43 -252q-16 -88 -17 -127q0 -106 95 -106zM461 1036q82 0 121 -41q-29 295 -236 342l51 142q103 -18 163 -47t114 -86q129 -141 129 -422q0 -150 -25 -291l-45 -260
q-35 -199 -104 -283q-92 -111 -275 -110q-293 0 -293 245q1 64 17 152l47 272q35 199 117 293t219 94z" />
    <glyph glyph-name="emptyset" unicode="&#x2205;" 
d="M440 430q100 0 162 87t62 229t-74 239l-195 -551q20 -4 45 -4zM426 1063q-104 0 -166 -85t-61 -238q0 -153 86 -251l198 566q-31 8 -57 8zM821 748q-1 -205 -109 -331t-284 -126q-41 0 -80 8l-135 -381l-115 45l133 379q-90 58 -140 164t-50 239q0 207 107 332
q108 125 284 125q55 0 100 -14l117 330l115 -43l-119 -336q84 -59 130 -163t46 -228z" />
    <glyph glyph-name="Delta" unicode="&#x2206;" 
d="M567 180l-22 971l-365 -971h387zM831 0h-981l642 1462h202z" />
    <glyph glyph-name="product" unicode="&#x220f;" horiz-adv-x="1003" 
d="M-35 -422l332 1884h741l-331 -1884h-215l296 1692h-309l-299 -1692h-215z" />
    <glyph glyph-name="summation" unicode="&#x2211;" horiz-adv-x="931" 
d="M-55 -422l26 150l441 841l-144 736l27 157h692l-33 -190h-462l139 -701l-406 -802h486l-33 -191h-733z" />
    <glyph glyph-name="minus" unicode="&#x2212;" 
d="M96 653l31 168h711l-29 -168h-713z" />
    <glyph glyph-name="uni2215" unicode="&#x2215;" horiz-adv-x="280" 
d="M-195 0l592 1462h199l-594 -1462h-197z" />
    <glyph glyph-name="uni2218" unicode="&#x2218;" 
d="M430 965q-102 0 -170 -68t-68 -170t68 -170t170 -68t170 68t68 170t-68 170t-170 68zM431 1083q155 0 260 -102t105 -254t-104 -254q-106 -102 -263 -102t-261 102q-104 101 -104 253t106 254t261 103z" />
    <glyph glyph-name="uni2219" unicode="&#x2219;" horiz-adv-x="436" 
d="M121 616l41 238h225l-41 -238h-225z" />
    <glyph glyph-name="radical" unicode="&#x221a;" 
d="M195 0l-54 590h-96l31 182h254l12 -481l530 1517h451l-27 -155h-270l-612 -1653h-219z" />
    <glyph glyph-name="infinity" unicode="&#x221e;" horiz-adv-x="1280" 
d="M920 559q50 0 86 49q35 49 34 127q0 78 -34 126q-36 48 -90 48t-109 -57q-20 -20 -74 -98l-14 -21l16 -20q68 -96 102 -125q33 -29 83 -29zM364 909q-52 0 -88 -48t-34 -126q0 -78 34 -127t94 -49q58 0 107 59q12 14 39 52t29 43l16 20l-14 21q-55 78 -76 100
q-55 55 -107 55zM350 1065q129 0 219 -92q12 -12 72 -107q12 20 14 27q49 82 95 113q78 59 194 59t189 -88t73 -243q0 -154 -74 -242t-203 -88q-130 0 -218 92q-13 12 -70 104q-14 -16 -37 -59t-87 -90q-65 -47 -181 -47t-189 88t-73 242t73 243q74 88 203 88z" />
    <glyph glyph-name="integral" unicode="&#x222b;" horiz-adv-x="843" 
d="M328 1137q0 240 22 331q37 154 197 154q78 0 160 -25l-39 -167q-41 18 -64 18q-45 0 -57 -46t-12 -206v-924q0 -252 -23 -333q-41 -152 -199 -152q-75 0 -155 25l37 168q39 -18 73 -18t47 45q12 46 13 210v920z" />
    <glyph glyph-name="similar" unicode="&#x223c;" 
d="M352 889q76 0 148 -70t104 -69q51 0 111 129l112 -37q-55 -136 -113 -196t-139 -60q-41 0 -75 19t-84 69q-51 50 -82 51q-58 0 -111 -137l-119 28q95 273 248 273z" />
    <glyph glyph-name="uni2243" unicode="&#x2243;" 
d="M385 1055q41 -1 71 -15t74 -58t64 -56q18 -12 39 -13q53 0 110 131l113 -38q-52 -132 -112 -194t-140 -62q-41 0 -75 19t-85 71t-82 51q-55 0 -110 -139l-119 30q49 141 109 207t143 66zM94 494l29 168h659l-28 -168h-660z" />
    <glyph glyph-name="approxequal" unicode="&#x2248;" 
d="M381 1055q76 0 149 -72q46 -45 64 -57t39 -13q55 0 110 131l113 -38q-54 -136 -112 -196t-140 -60q-39 0 -73 19t-86 71t-80 51q-58 0 -111 -139l-121 30q51 143 111 208t137 65zM328 725q72 0 145 -72q47 -45 65 -56t37 -11q53 0 111 129l113 -39q-55 -138 -113 -196
t-139 -58q-41 0 -76 20t-85 70t-81 49q-57 0 -110 -139l-119 31q92 272 252 272z" />
    <glyph glyph-name="notequal" unicode="&#x2260;" 
d="M94 494l29 168h211l84 155h-266l28 162h326l127 242l151 -60l-94 -182h150l-29 -162h-211l-82 -155h264l-28 -168h-328l-125 -242l-151 59l94 183h-150z" />
    <glyph glyph-name="lessequal" unicode="&#x2264;" 
d="M23 53l30 168h606l-30 -168h-606zM340 737l369 -237l-35 -193l-553 379l20 115l686 379l-34 -205z" />
    <glyph glyph-name="greaterequal" unicode="&#x2265;" 
d="M66 53l30 168h606l-30 -168h-606zM598 752l-367 237l33 191l553 -379l-20 -115l-686 -379l36 207z" />
    <glyph glyph-name="dotmath" unicode="&#x22c5;" horiz-adv-x="436" 
d="M121 616l41 238h225l-41 -238h-225z" />
    <glyph glyph-name="filledrect" unicode="&#x25ac;" 
d="M113 408v636h637v-636h-637z" />
    <glyph glyph-name="uni25B4" unicode="&#x25b4;" 
d="M55 397l375 750l375 -750h-750z" />
    <glyph glyph-name="uni25B8" unicode="&#x25b8;" 
d="M139 352v750l748 -375z" />
    <glyph glyph-name="uni25BE" unicode="&#x25be;" 
d="M55 1057h750l-375 -748z" />
    <glyph glyph-name="uni25C2" unicode="&#x25c2;" 
d="M721 352l-748 375l748 375v-750z" />
    <glyph glyph-name="lozenge" unicode="&#x25ca;" 
d="M213 719l217 -418l217 418l-217 416zM-6 719l436 778l436 -778l-436 -778z" />
    <glyph glyph-name="openbullet" unicode="&#x25e6;" 
d="M430 965q-102 0 -170 -68t-68 -170t68 -170t170 -68t170 68t68 170t-68 170t-170 68zM431 1083q155 0 260 -102t105 -254t-104 -254q-106 -102 -263 -102t-261 102q-104 101 -104 253t106 254t261 103z" />
    <glyph glyph-name="commaaccent" unicode="&#xf6c3;" horiz-adv-x="1024" 
d="M207 -471l131 336h203l-191 -336h-143z" />
    <glyph glyph-name="Acute" unicode="&#xf6c9;" horiz-adv-x="1024" 
d="M590 1606l178 303h236l-254 -303h-160z" />
    <glyph glyph-name="Caron" unicode="&#xf6ca;" horiz-adv-x="1024" 
d="M721 1737l108 161h205l-254 -292h-155l-152 292h195z" />
    <glyph glyph-name="Dieresis" unicode="&#xf6cb;" horiz-adv-x="1024" 
d="M768 1618l41 235h192l-43 -235h-190zM449 1618l40 235h191l-41 -235h-190z" />
    <glyph glyph-name="Grave" unicode="&#xf6ce;" horiz-adv-x="1024" 
d="M817 1606h-158l-149 303h217z" />
    <glyph glyph-name="Hungarumlaut" unicode="&#xf6cf;" horiz-adv-x="1024" 
d="M739 1606l152 303h217l-221 -303h-148zM479 1606l152 303h215l-219 -303h-148z" />
    <glyph glyph-name="Macron" unicode="&#xf6d0;" horiz-adv-x="1024" 
d="M475 1661l27 160h477l-29 -160h-475z" />
    <glyph glyph-name="zerooldstyle" unicode="&#xf730;" horiz-adv-x="892" 
d="M627 840q0 119 -105 118q-76 0 -114 -62t-68 -230l-35 -207q-25 -127 -24 -178q0 -119 104 -119q74 0 113 62q38 63 69 233l35 207q25 139 25 176zM377 -20q-311 0 -311 296q-1 66 22 205l43 246q20 121 48 187q95 225 351 227q311 0 312 -299q0 -68 -23 -201l-45 -250
q-20 -119 -47 -185q-92 -226 -350 -226z" />
    <glyph glyph-name="oneoldstyle" unicode="&#xf731;" horiz-adv-x="577" 
d="M117 0l153 872l-176 -92l-71 170l368 170h148l-197 -1120h-225z" />
    <glyph glyph-name="twooldstyle" unicode="&#xf732;" horiz-adv-x="757" 
d="M543 858q0 98 -99 98q-68 0 -104 -41t-55 -135h-203q29 190 118 276q90 86 246 85q156 0 236 -66t80 -186q0 -158 -84 -275q-59 -82 -240 -247l-196 -185h393l-31 -182h-674l27 154l367 360q125 123 172 197t47 147z" />
    <glyph glyph-name="threeoldstyle" unicode="&#xf733;" horiz-adv-x="802" 
d="M307 535q125 0 176 71q66 92 66 222t-86 130q-53 0 -85 -38t-54 -123h-207q25 152 90 229q99 117 257 117t236 -76t78 -215q0 -138 -53 -244t-154 -159q119 -81 119 -271t-92 -334q-104 -164 -330 -163q-154 0 -234 63t-81 184q0 14 6 107h207q-2 -27 -2 -53
q0 -117 104 -117q94 0 144 100q50 101 49 203q0 102 -44 145t-138 43h-95l31 179h92z" />
    <glyph glyph-name="fouroldstyle" unicode="&#xf734;" horiz-adv-x="763" 
d="M313 -299l54 299h-461l24 137l516 983h232l-494 -938h213l64 350h203l-64 -350h113l-31 -182h-113l-53 -299h-203z" />
    <glyph glyph-name="fiveoldstyle" unicode="&#xf735;" horiz-adv-x="841" 
d="M453 588q125 0 191 -69t65 -187q0 -118 -30 -255q-30 -136 -71 -210q-102 -188 -346 -189q-147 0 -229 66t-82 184q0 14 6 107h207q-2 -27 -2 -53q0 -119 102 -119q113 0 168 157q47 131 47 273q0 121 -100 121q-82 0 -152 -88l-155 32l172 762h579l-32 -190h-385
l-89 -375q63 33 136 33z" />
    <glyph glyph-name="sixoldstyle" unicode="&#xf736;" horiz-adv-x="854" 
d="M479 752q-102 0 -145 -138q-64 -201 -64 -329t101 -127q106 0 147 145q20 72 39 178q18 106 18 154q0 117 -96 117zM349 -20q-134 0 -216 74t-82 208q0 207 80 408q25 63 113 207l342 553h245l-329 -525q45 12 78 13q102 0 158 -68t56 -179t-26 -251t-64 -234t-130 -150
t-225 -56z" />
    <glyph glyph-name="sevenoldstyle" unicode="&#xf737;" horiz-adv-x="616" 
d="M-115 -299l549 1229h-387l33 190h610l-22 -137l-529 -1282h-254z" />
    <glyph glyph-name="eightoldstyle" unicode="&#xf738;" horiz-adv-x="874" 
d="M465 670q-106 0 -148 -109q-20 -51 -38 -147q-19 -96 -19 -146t32 -81q32 -30 89 -29q100 0 143 108q18 50 36 146t18 148t-30 81t-83 29zM567 1284q-94 0 -127 -92q-16 -47 -31 -137t-16 -133q0 -96 97 -96t131 98q14 45 30 134q17 89 17 132q0 42 -27 68t-74 26z
M569 1450q147 0 225 -68t76 -198q0 -80 -20 -174t-56 -156t-102 -96q53 -41 76 -89t23 -139t-29 -209t-70 -188q-96 -154 -317 -153q-334 0 -334 284q0 109 31 228q32 119 74 177t118 93q-72 59 -71 184q0 176 63 314q84 190 313 190z" />
    <glyph glyph-name="nineoldstyle" unicode="&#xf739;" horiz-adv-x="851" 
d="M494 963q-109 0 -152 -146q-57 -207 -57 -328t98 -120q100 0 145 137q64 205 64 331t-98 126zM281 203q-102 0 -159 67q-56 68 -56 180t26 251q27 139 65 233t129 150q90 56 226 56t218 -74q82 -75 81 -208q0 -207 -80 -405q-27 -68 -115 -209l-342 -559h-245l331 532
q-45 -14 -79 -14z" />
    <glyph glyph-name="Dbreve" horiz-adv-x="1003" 
d="M641 1749q63 0 96 32t56 115h139q-20 -168 -86 -236t-209 -67q-238 0 -238 176q1 43 13 127h133l-4 -53q0 -94 100 -94zM416 182q115 0 166 60t84 231l90 516q14 86 14 158q0 133 -162 133h-125l-192 -1098h125zM598 1462q217 0 303 -65q98 -80 98 -236q0 -76 -18 -174
l-104 -592q-31 -213 -142 -306t-327 -89h-375l258 1462h307z" />
    <glyph glyph-name="ahungarumlaut" horiz-adv-x="823" 
d="M580 1190l151 303h217l-221 -303h-147zM319 1190l152 303h215l-219 -303h-148zM418 473q-199 0 -199 -227q0 -92 107 -92q70 0 102 38t49 144l25 137h-84zM551 797q0 96 -94 96q-59 0 -91 -37t-47 -121h-198q27 174 110 255q84 81 238 81q291 0 291 -268q0 -78 -19 -187
l-108 -616h-168l-4 51q-66 -71 -194 -71q-127 0 -197 59t-70 163t27 191q27 88 69 135q86 98 289 99h143l9 47q14 78 14 123z" />
    <glyph glyph-name="uni0204.sc" horiz-adv-x="743" 
d="M492 1257h-148l-113 304h215zM752 1257h-148l-112 304h217zM18 0l199 1122h574l-31 -180h-357l-49 -287h299l-30 -180h-301l-52 -295h363l-33 -180h-582z" />
    <glyph glyph-name="uni0206.sc" horiz-adv-x="743" 
d="M563 1411q-63 0 -96 -32t-55 -115h-138q20 168 86 236t209 67q238 0 238 -176q0 -41 -12 -127h-136q6 43 7 53q0 94 -103 94zM23 0l198 1122h574l-31 -180h-356l-50 -287h299l-30 -180h-301l-52 -295h363l-33 -180h-581z" />
    <glyph glyph-name="uni0208.sc" horiz-adv-x="444" 
d="M315 1257h-147l-113 304h215zM575 1257h-147l-113 304h217zM20 0l197 1120h221l-198 -1120h-220z" />
    <glyph glyph-name="uni020A.sc" horiz-adv-x="444" 
d="M485 1317q0 94 -102 94q-63 0 -96 -32t-56 -115h-137q20 168 86 236t209 67q238 0 238 -176q-1 -41 -13 -127h-135q6 43 6 53zM20 0l197 1120h221l-198 -1120h-220z" />
    <glyph glyph-name="uni020C.sc" horiz-adv-x="864" 
d="M508 1257h-148l-112 304h215zM768 1257h-147l-113 304h217zM254 265q0 -99 114 -99q58 0 92 48q33 48 56 171l62 350q14 80 14 123t-28 70q-28 26 -86 26t-94 -48t-56 -171l-62 -350q-12 -74 -12 -120zM811 874q0 -53 -18 -163l-68 -381q-33 -193 -117 -270
q-84 -76 -252 -76t-244 64t-77 200q0 60 18 162l66 381q18 100 40 153q80 192 335 193q317 0 317 -263z" />
    <glyph glyph-name="uni020E.sc" horiz-adv-x="864" 
d="M686 1317q0 94 -102 94q-62 0 -96 -32t-56 -115h-137q20 168 86 236t209 67q238 0 237 -176q0 -41 -12 -127h-135q6 43 6 53zM608 858q0 43 -27 70q-29 26 -87 26t-94 -48t-56 -171l-61 -350q-13 -74 -13 -120q0 -47 28 -73t86 -26t92 48q33 48 56 171l62 350
q14 80 14 123zM510 1137q319 0 317 -263q0 -53 -18 -163l-68 -381q-33 -193 -117 -270q-84 -76 -251 -76q-168 0 -245 64t-77 200q1 60 19 162l65 381q18 100 40 153q80 192 335 193z" />
    <glyph glyph-name="uni0210.sc" horiz-adv-x="841" 
d="M471 1257h-147l-113 304h215zM731 1257h-147l-113 304h217zM418 625q174 0 174 219q0 53 -27 77t-86 23h-73l-58 -319h70zM461 1122q184 0 264 -53q94 -59 94 -190q0 -297 -225 -390l121 -489h-246l-80 453h-67l-80 -453h-219l198 1122h240z" />
    <glyph glyph-name="uni0212.sc" horiz-adv-x="841" 
d="M653 1317q0 94 -102 94q-63 0 -96 -32t-56 -115h-137q20 168 86 236t209 67q238 0 238 -176q-1 -41 -13 -127h-135q6 43 6 53zM418 625q174 0 174 219q0 53 -27 77t-86 23h-73l-58 -319h70zM461 1122q184 0 264 -53q94 -59 94 -190q0 -297 -225 -390l121 -489h-246
l-80 453h-67l-80 -453h-219l198 1122h240z" />
    <glyph glyph-name="uni0214.sc" horiz-adv-x="886" 
d="M522 1257h-147l-113 304h215zM782 1257h-147l-113 304h217zM367 166q67 0 99 38t50 140l137 776h219l-143 -817q-19 -102 -35 -143t-55 -82q-92 -94 -277 -94q-313 0 -313 219q0 51 19 155l135 762h219l-135 -768q-14 -78 -15 -96q0 -90 95 -90z" />
    <glyph glyph-name="uni0216.sc" horiz-adv-x="886" 
d="M696 1317q0 94 -102 94q-63 0 -96 -32t-56 -115h-137q20 168 86 236t209 67q238 0 238 -176q-1 -41 -13 -127h-135q6 43 6 53zM287 256q0 -90 94 -90q67 0 99 38t50 140l138 776h219l-144 -817q-18 -102 -34 -143t-56 -82q-92 -94 -276 -94q-313 0 -314 219q0 51 19 155
l135 762h219l-135 -768q-14 -78 -14 -96z" />
    <glyph glyph-name="uni1E24.sc" horiz-adv-x="894" 
d="M178 -416l43 240h205l-41 -240h-207zM20 0l197 1120h221l-82 -465h230l82 465h221l-199 -1120h-219l84 475h-231l-84 -475h-220z" />
    <glyph glyph-name="uni1E5A.sc" horiz-adv-x="841" 
d="M162 -416l43 240h205l-41 -240h-207zM418 625q174 0 174 219q0 53 -27 77t-86 23h-73l-58 -319h70zM461 1122q184 0 264 -53q94 -59 94 -190q0 -297 -225 -390l121 -489h-246l-80 453h-67l-80 -453h-219l198 1122h240z" />
    <glyph glyph-name="uni1E62.sc" horiz-adv-x="743" 
d="M94 -416l43 240h205l-41 -240h-207zM201 268q0 -102 98 -102q86 0 123 80q27 54 27 110t-33 84q-20 14 -113 47q-203 70 -203 254q0 164 81 279t255 115q139 1 214 -63t75 -181q0 -49 -12 -111h-203q8 57 8 84q0 88 -78 88q-51 0 -86 -50t-35 -110t28 -86q28 -28 128 -64
q101 -36 147 -88t46 -153q0 -178 -82 -288q-94 -129 -293 -129q-143 0 -221 64t-78 181q0 41 14 127h203q-10 -51 -10 -88z" />
    <glyph glyph-name="uni1E6C.sc" horiz-adv-x="638" 
d="M51 -416l43 240h205l-43 -240h-205zM119 0l166 942h-209l30 180h637l-30 -180h-209l-166 -942h-219z" />
    <glyph glyph-name="uni1E92.sc" horiz-adv-x="669" 
d="M66 -416l43 240h204l-41 -240h-206zM-72 0l21 121l491 821h-311l33 180h567l-22 -121l-490 -821h363l-31 -180h-621z" />
    </font>
</defs>
</svg>
