<?xml version="1.0" encoding="UTF-8"?>
<svg xmlns="http://www.w3.org/2000/svg" xmlns:xlink="http://www.w3.org/1999/xlink" version="1.2" >
<font id="Baskerville URW Medium">
<font-face  font-family="Baskerville URW" units-per-em="1000" ascent="678" descent="-322" font-style="normal" font-weight="500" font-stretch="normal" cap-height="666" x-height="403" underline-position="-90" underline-thickness="58" />
<missing-glyph  horiz-adv-x="250" d="" />
<glyph glyph-name="NULL" d="" />
<glyph glyph-name="CR" unicode="&#xd;" horiz-adv-x="250" d="" />
<glyph glyph-name="space" unicode="&#x20;" horiz-adv-x="250" d="" />
<glyph glyph-name="exclam" unicode="&#x21;" horiz-adv-x="259" d="M139 200 L174 545 C178 585 178 587 178 602 C178 642 157 667 123 667 C88 667 67 643 67 601 C67 586 67 583 72 544 L106 200 L139 200 Z M122 113 C86 113 57 84 57 48 C57 13 86 -17 121 -17 C158 -17 187 12 187 48 C187 84 158 113 122 113 L122 113 Z " />
<glyph glyph-name="quotedbl" unicode="&#x22;" horiz-adv-x="385" d="M125 399 L156 667 L47 667 L78 399 L125 399 Z M308 399 L339 667 L229 667 L260 399 L308 399 Z " />
<glyph glyph-name="numbersign" unicode="&#x23;" horiz-adv-x="586" d="M391 229 L503 229 L510 274 L403 274 L429 407 L541 407 L549 452 L441 452 L489 667 L439 667 L391 452 L256 452 L304 667 L254 667 L206 452 L88 452 L80 407 L195 407 L168 274 L49 274 L41 229 L156 229 L105 0 L155 0 L206 229 L341 229 L290 0 L340 0 L391 229 Z M379 407 L353 274 L217 274 L244 407 L379 407 Z " />
<glyph glyph-name="dollar" unicode="&#x24;" horiz-adv-x="518" d="M269 -113 L269 -14 C392 -1 468 73 468 180 C468 227 451 270 421 300 C390 330 365 345 297 374 C288 378 273 384 269 386 L269 623 C325 617 359 590 367 546 C377 503 390 486 413 486 C433 486 450 504 450 526 C450 558 425 596 388 619 C352 641 317 652 269 654 L269 682 L235 682 L235 654 C126 643 59 579 59 485 C59 442 75 402 105 370 C127 348 157 329 211 305 C227 298 227 298 235 294 L235 18 C179 24 148 46 133 94 C122 127 111 138 90 138 C69 138 52 120 52 98 C52 40 136 -12 235 -15 L235 -113 L269 -113 Z M269 278 C280 273 282 272 306 260 C371 230 395 199 395 145 C395 78 343 25 269 18 L269 278 Z M235 400 L230 402 C151 436 125 464 125 516 C125 570 168 616 222 620 C231 621 231 621 235 622 L235 400 Z " />
<glyph glyph-name="percent" unicode="&#x25;" horiz-adv-x="706" d="M170 680 C134 680 103 669 81 647 C48 615 27 561 27 506 C27 400 80 335 167 335 C204 335 236 346 259 368 C290 397 310 452 310 508 C310 558 294 608 268 638 C244 667 212 680 170 680 L170 680 Z M170 652 C211 652 232 602 228 516 C222 391 210 359 169 359 C123 359 109 398 109 523 C109 611 128 652 170 652 L170 652 Z M204 0 L546 652 L502 652 L160 0 L204 0 Z M538 332 C502 332 470 320 448 299 C416 267 395 214 395 160 C395 54 448 -11 535 -11 C573 -11 604 0 627 22 C658 52 678 106 678 162 C678 210 662 261 636 290 C612 318 580 332 538 332 L538 332 Z M538 307 C579 307 600 258 596 171 C590 48 578 15 537 15 C494 15 478 54 478 162 C478 266 495 307 538 307 L538 307 Z " />
<glyph glyph-name="ampersand" unicode="&#x26;" horiz-adv-x="728" d="M684 98 C673 64 651 46 619 46 C577 46 541 73 494 140 C490 146 489 147 486 151 C503 174 517 198 531 228 C574 322 605 356 663 371 L663 404 L456 404 L456 371 C498 367 522 348 522 319 C522 286 499 232 463 182 C392 281 386 290 308 394 C395 438 438 487 438 540 C438 604 377 653 296 653 C210 653 147 595 147 515 C147 472 164 428 202 372 C86 300 42 244 42 166 C42 66 127 -15 233 -15 C295 -15 356 14 419 73 C468 15 523 -15 583 -15 C656 -15 706 26 718 98 L684 98 Z M223 341 C264 289 299 239 395 102 C362 67 324 48 287 48 C212 48 136 131 136 212 C136 258 168 306 223 341 L223 341 Z M286 423 C245 478 228 514 228 548 C228 589 257 618 297 618 C340 618 371 584 371 538 C371 494 346 460 286 423 L286 423 Z " />
<glyph glyph-name="quotesingle" unicode="&#x27;" horiz-adv-x="218" d="M134 399 L165 667 L52 667 L83 399 L134 399 Z " />
<glyph glyph-name="parenleft" unicode="&#x28;" horiz-adv-x="277" d="M271 -242 C168 -120 111 43 111 221 C111 395 167 557 268 675 L219 675 C121 557 64 391 64 219 C64 50 120 -114 223 -242 L271 -242 Z " />
<glyph glyph-name="parenright" unicode="&#x29;" horiz-adv-x="277" d="M53 -242 C155 -114 212 50 212 219 C212 391 154 560 57 675 L8 675 C110 555 165 395 165 222 C165 43 108 -121 5 -242 L53 -242 Z " />
<glyph glyph-name="asterisk" unicode="&#x2a;" horiz-adv-x="458" d="M357 468 C397 468 431 494 431 526 C431 553 411 575 385 575 C364 575 344 562 315 532 C279 494 266 483 240 469 C239 471 239 473 239 474 C239 496 249 535 265 577 C271 595 275 612 275 625 C275 652 252 674 225 674 C199 674 177 651 177 624 C177 608 185 578 198 545 C208 520 214 493 214 475 L214 469 C182 492 173 500 147 525 C108 566 96 574 72 574 C48 574 26 551 26 525 C26 490 56 469 109 467 C144 465 151 464 205 445 C192 432 163 419 121 407 C69 392 46 373 46 344 C46 317 69 296 98 296 C117 296 138 309 148 329 C169 373 197 411 219 428 C216 402 211 379 197 342 C185 308 181 291 181 274 C181 244 197 226 223 226 C251 226 271 251 271 288 C271 301 268 315 259 342 C247 379 241 403 239 428 C255 414 276 389 289 367 C320 311 335 296 361 296 C387 296 410 318 410 342 C410 372 385 393 331 409 C285 422 267 430 249 445 C272 456 315 468 334 469 C336 469 340 469 347 468 L357 468 Z " />
<glyph glyph-name="plus" unicode="&#x2b;" horiz-adv-x="500" d="M16 379 L16 321 L219 321 L219 125 L279 125 L279 321 L484 321 L484 379 L279 379 L279 576 L219 576 L219 379 L16 379 Z " />
<glyph glyph-name="comma" unicode="&#x2c;" horiz-adv-x="280" d="M57 -195 C154 -178 218 -104 218 -9 C218 61 180 112 128 112 C90 112 63 85 63 47 C63 13 88 -12 122 -12 C128 -12 132 -12 135 -11 C148 -7 148 -7 153 -7 C165 -7 173 -19 173 -36 C173 -92 125 -142 57 -159 L57 -195 Z " />
<glyph glyph-name="hyphen" unicode="&#x2d;" horiz-adv-x="325" d="M34 241 L34 184 L292 184 L292 241 L34 241 Z " />
<glyph glyph-name="period" unicode="&#x2e;" horiz-adv-x="280" d="M139 113 C103 113 74 84 74 48 C74 13 103 -17 138 -17 C175 -17 204 12 204 48 C204 84 175 113 139 113 L139 113 Z " />
<glyph glyph-name="slash" unicode="&#x2f;" horiz-adv-x="291" d="M249 668 L191 668 L-13 -239 L45 -239 L249 668 Z " />
<glyph glyph-name="zero" unicode="0" horiz-adv-x="518" d="M261 631 C299 631 329 609 346 570 C363 533 368 472 368 326 C368 239 368 239 367 219 C365 163 358 111 349 88 C332 43 301 20 260 20 C220 20 190 41 173 81 C156 118 151 175 151 312 C151 459 156 526 170 563 C186 608 217 631 261 631 L261 631 Z M259 666 C125 666 41 534 41 324 C41 226 56 155 92 92 C129 25 191 -15 256 -15 C329 -15 388 22 427 92 C463 156 478 226 478 328 C478 426 462 498 427 559 C388 628 329 666 259 666 L259 666 Z " />
<glyph glyph-name="one" unicode="1" horiz-adv-x="518" d="M131 591 L148 591 C207 591 217 575 217 488 L217 130 C214 44 209 35 157 33 L138 33 L138 0 L395 0 L395 33 L374 33 C320 35 314 46 315 135 L315 667 L283 667 C252 642 195 626 131 624 L131 591 Z " />
<glyph glyph-name="two" unicode="2" horiz-adv-x="518" d="M57 0 L359 0 C390 0 398 -4 398 -19 C398 -26 397 -31 396 -38 L394 -47 L427 -47 L454 73 L152 73 C179 97 215 132 277 196 C421 343 457 400 457 480 C457 532 443 572 413 604 C376 643 318 666 257 666 C148 666 60 594 60 505 C60 460 86 404 108 404 C123 404 168 433 168 444 C168 448 165 452 156 459 C136 476 124 501 124 528 C124 584 170 629 229 629 C303 629 347 573 347 479 C347 413 323 346 272 272 C215 190 128 94 57 36 L57 0 Z " />
<glyph glyph-name="three" unicode="3" horiz-adv-x="518" d="M97 125 C73 125 54 106 54 83 C54 29 128 -15 219 -15 C357 -15 459 77 459 200 C459 305 396 371 296 371 C295 371 289 370 279 369 C287 377 291 380 332 405 C401 446 438 495 438 545 C438 615 366 666 267 666 C160 666 75 601 75 519 C75 485 95 447 113 447 C119 447 127 449 137 454 C138 454 141 456 145 457 C163 464 173 471 173 475 C173 477 171 480 169 482 C148 504 142 517 142 541 C142 590 187 630 243 630 C298 630 332 591 332 529 C332 481 314 442 274 408 C254 391 227 371 212 361 C179 342 164 327 164 315 C164 304 173 294 183 294 C189 294 196 297 201 303 C232 333 244 339 267 339 C321 339 349 289 349 196 C349 144 341 103 325 76 C305 40 265 18 222 18 C182 18 158 36 144 76 C132 114 121 125 97 125 L97 125 Z " />
<glyph glyph-name="four" unicode="4" horiz-adv-x="518" d="M269 223 L269 133 C269 47 262 35 208 33 L188 33 L188 0 L444 0 L444 33 L430 33 C376 35 369 47 370 135 L370 223 L483 223 L495 306 L470 306 L466 296 C454 268 452 267 426 266 L370 266 L370 665 L320 665 L33 268 L33 223 L269 223 Z M269 266 L72 266 L269 540 L269 266 Z " />
<glyph glyph-name="five" unicode="5" horiz-adv-x="518" d="M138 337 C162 380 194 402 234 402 C269 402 302 383 319 353 C336 323 344 284 344 224 C344 89 299 19 214 19 C173 19 149 35 133 73 C115 115 103 127 81 127 C58 127 39 109 39 87 C39 32 116 -15 206 -15 C353 -15 454 82 454 225 C454 348 369 442 258 442 C210 442 171 424 137 386 L144 574 L319 574 C360 573 362 575 394 648 L395 652 L114 652 L101 337 L138 337 Z " />
<glyph glyph-name="six" unicode="6" horiz-adv-x="518" d="M163 373 C166 446 170 484 179 514 C202 591 242 630 299 630 C334 630 353 620 371 589 C387 562 400 552 420 552 C441 552 457 568 457 589 C457 630 395 666 322 666 C162 666 50 511 50 288 C50 103 137 -15 273 -15 C391 -15 480 79 480 204 C480 323 394 412 280 412 C234 412 200 396 163 357 L163 373 Z M265 377 C296 377 325 362 342 336 C364 303 371 270 371 202 C371 77 339 19 269 19 C199 19 158 96 158 225 C158 271 165 303 179 328 C198 359 229 377 265 377 L265 377 Z " />
<glyph glyph-name="seven" unicode="7" horiz-adv-x="518" d="M458 652 L185 652 C149 653 145 655 145 672 L116 672 L66 513 L99 513 C116 565 121 568 179 567 L396 567 L196 125 C190 112 185 103 183 98 C166 65 157 37 157 20 C157 1 177 -16 199 -16 C231 -16 251 12 278 96 L458 652 Z " />
<glyph glyph-name="eight" unicode="8" horiz-adv-x="518" d="M313 342 C405 365 456 421 456 502 C456 599 373 668 257 668 C142 668 62 600 62 502 C62 424 116 363 203 342 C100 323 42 260 42 168 C42 61 132 -15 259 -15 C388 -15 475 59 475 171 C475 264 414 328 313 342 L313 342 Z M257 635 C319 635 351 588 351 498 C351 404 320 358 255 358 C194 358 165 405 165 506 C165 589 198 635 257 635 L257 635 Z M257 324 C332 324 366 275 366 169 C366 66 332 18 258 18 C185 18 151 66 151 169 C151 274 185 324 257 324 L257 324 Z " />
<glyph glyph-name="nine" unicode="9" horiz-adv-x="518" d="M364 293 C364 227 355 156 341 116 C322 56 278 20 226 20 C191 20 171 31 153 61 C137 90 126 98 105 98 C83 98 67 83 67 62 C67 20 129 -16 201 -16 C271 -16 339 15 384 69 C441 136 475 247 475 363 C475 548 389 666 253 666 C135 666 45 572 45 448 C45 330 131 237 241 237 C277 237 311 249 334 268 C358 289 358 289 364 293 L364 293 Z M259 273 C226 273 196 292 178 323 C160 354 154 387 154 453 C154 519 160 556 177 585 C192 614 224 632 257 632 C326 632 367 560 367 439 C367 332 329 273 260 273 L259 273 Z " />
<glyph glyph-name="colon" unicode="&#x3a;" horiz-adv-x="280" d="M141 113 C105 113 76 84 76 48 C76 13 105 -17 140 -17 C177 -17 206 12 206 48 C206 84 177 113 141 113 L141 113 Z M141 426 C106 426 76 397 76 362 C76 325 105 296 141 296 C177 296 206 325 206 361 C206 397 177 426 141 426 L141 426 Z " />
<glyph glyph-name="semicolon" unicode="&#x3b;" horiz-adv-x="280" d="M57 -195 C154 -178 218 -104 218 -9 C218 61 180 112 128 112 C90 112 63 85 63 47 C63 13 88 -12 122 -12 C128 -12 132 -12 135 -11 C148 -7 148 -7 153 -7 C165 -7 173 -19 173 -36 C173 -92 125 -142 57 -159 L57 -195 Z M137 427 C101 427 72 398 72 362 C72 327 101 297 136 297 C173 297 202 326 202 361 C202 398 173 427 137 427 L137 427 Z " />
<glyph glyph-name="less" unicode="&#x3c;" horiz-adv-x="500" d="M459 623 L41 358 L41 351 L459 68 L459 201 L176 391 L459 573 L459 623 Z " />
<glyph glyph-name="equal" unicode="&#x3d;" horiz-adv-x="500" d="M16 451 L16 395 L484 395 L484 451 L16 451 Z M16 306 L16 249 L484 249 L484 306 L16 306 Z " />
<glyph glyph-name="greater" unicode="&#x3e;" horiz-adv-x="500" d="M41 68 L459 333 L459 341 L41 623 L41 490 L324 300 L41 118 L41 68 Z " />
<glyph glyph-name="question" unicode="&#x3f;" horiz-adv-x="427" d="M147 113 C111 113 82 84 82 48 C82 13 111 -17 146 -17 C183 -17 212 12 212 48 C212 84 183 113 147 113 L147 113 Z M129 198 L164 198 L164 340 C184 325 207 318 234 318 C317 318 380 386 380 478 C380 590 302 667 189 667 C112 667 45 628 45 583 C45 565 60 551 79 551 C98 551 110 561 119 585 C134 620 152 634 184 634 C241 634 277 581 277 494 C277 408 252 360 207 360 C187 360 172 369 159 390 L129 390 L129 198 Z " />
<glyph glyph-name="at" unicode="&#x40;" horiz-adv-x="778" d="M506 473 C482 508 453 525 416 525 C358 525 300 482 258 408 C231 362 218 314 218 268 C218 191 260 137 319 137 C349 137 379 150 408 177 L413 182 C423 191 427 195 446 220 C447 216 447 215 447 214 L447 211 C447 202 453 183 460 170 C471 151 492 139 515 139 C622 139 724 271 724 409 C724 568 601 681 427 681 C329 681 241 648 175 587 C99 518 55 419 55 320 C55 135 200 -13 381 -13 C449 -13 522 11 573 50 C596 67 615 84 652 121 L614 129 C575 96 565 88 550 78 C506 46 445 27 388 27 C232 27 102 157 102 312 C102 374 127 455 163 507 C220 592 319 643 427 643 C575 643 684 543 684 407 C684 344 661 280 622 233 C592 197 559 176 532 176 C515 176 502 191 502 212 C502 226 506 251 513 276 L578 518 C555 514 541 513 514 512 L506 473 Z M465 348 C464 346 463 344 462 338 C458 326 456 318 455 316 C445 283 434 256 422 237 C395 194 365 171 334 171 C303 171 281 198 281 237 C281 309 316 404 364 459 C382 481 408 493 432 493 C463 493 486 466 486 432 C486 423 480 392 475 379 L465 348 Z " />
<glyph glyph-name="A" unicode="A" horiz-adv-x="659" d="M673 0 L673 33 L667 34 C616 41 608 51 565 152 L347 677 L314 677 L103 163 C68 73 43 44 -5 34 L-13 33 L-13 0 L193 0 L193 33 L185 33 C149 33 121 56 121 85 C121 109 123 116 152 186 L167 223 L404 223 L445 125 C463 80 464 77 464 65 C464 43 444 33 395 33 L388 33 L388 0 L673 0 Z M391 257 L180 257 L285 513 L391 257 Z " />
<glyph glyph-name="B" unicode="B" horiz-adv-x="647" d="M34 666 L34 632 L45 632 C120 633 130 618 131 508 L131 161 C130 51 119 34 48 33 L29 33 L29 0 L319 0 C408 0 458 7 499 24 C563 51 603 110 603 179 C603 241 572 291 516 323 C484 341 446 351 388 357 C510 381 569 432 569 514 C569 563 543 608 501 633 C454 661 389 673 290 673 C261 673 261 673 154 669 L34 666 Z M253 337 C270 338 276 338 286 338 C421 338 468 296 468 178 C468 83 421 35 327 35 C263 35 253 54 253 180 L253 337 Z M253 373 L253 636 C264 637 268 637 282 637 C335 637 364 632 388 618 C420 599 436 562 436 505 C436 406 395 373 272 373 L253 373 Z " />
<glyph glyph-name="C" unicode="C" horiz-adv-x="731" d="M631 252 C623 207 609 167 586 128 C550 67 479 28 403 28 C329 28 263 66 227 131 C199 179 186 243 186 327 C186 530 261 641 398 641 C466 641 535 608 570 559 C598 521 616 476 628 413 L660 413 L654 664 L621 664 C617 635 610 612 597 587 C545 645 465 679 379 679 C292 679 216 651 158 599 C87 534 45 432 45 325 C45 127 182 -13 375 -13 C467 -13 544 19 600 82 C616 61 624 42 631 13 L663 13 L663 252 L631 252 Z " />
<glyph glyph-name="D" unicode="D" horiz-adv-x="779" d="M31 630 L46 630 C122 631 133 616 133 508 L133 161 C132 52 121 34 50 33 L29 33 L29 0 L305 0 C433 0 475 4 527 21 C657 64 733 178 733 327 C733 453 677 558 580 612 C503 655 411 673 269 673 C219 673 192 672 131 669 C77 666 59 665 31 664 L31 630 Z M255 637 C277 638 295 639 317 639 C388 639 428 630 469 607 C552 558 595 462 595 322 C595 233 575 160 538 110 C497 56 443 35 350 35 C300 35 275 45 264 70 C257 86 255 111 255 187 L255 637 Z " />
<glyph glyph-name="E" unicode="E" horiz-adv-x="641" d="M577 211 C543 81 490 33 385 35 L346 35 C261 33 249 51 248 173 L248 333 L318 333 C391 334 405 319 408 243 L408 235 L442 235 L442 463 L408 463 L407 445 C406 384 390 370 316 369 L248 369 L248 632 L351 632 C462 636 497 609 525 499 L558 499 L545 667 L38 667 L38 634 L48 634 C115 633 125 618 126 512 L126 161 C125 52 114 34 42 34 L29 34 L29 0 L600 0 L611 211 L577 211 Z " />
<glyph glyph-name="F" unicode="F" horiz-adv-x="573" d="M561 667 L31 667 L31 634 L43 634 C118 634 128 619 129 511 L129 160 C128 52 117 34 46 33 L29 33 L29 0 L356 0 L356 33 L336 33 C265 33 251 54 251 160 L251 332 L311 332 C373 332 390 319 398 268 L401 229 L436 229 L436 462 L401 462 L400 441 C394 381 378 368 311 367 L251 367 L251 632 L375 632 C470 637 511 602 532 497 L566 497 L561 667 Z " />
<glyph glyph-name="G" unicode="G" horiz-adv-x="776" d="M459 292 L459 258 L472 258 C533 258 548 243 551 181 L551 156 C551 124 547 104 536 88 C512 48 460 24 399 24 C325 24 261 59 228 118 C201 165 187 236 187 328 C187 422 200 490 228 542 C260 601 328 639 403 639 C517 639 600 562 623 434 L657 434 L655 661 L622 661 C619 632 613 611 601 588 C542 650 471 679 383 679 C297 679 220 650 161 596 C88 528 45 427 45 323 C45 129 187 -13 381 -13 C433 -13 470 -6 539 16 C582 30 624 38 654 38 C658 38 664 38 674 36 L674 130 C673 240 681 254 747 258 L755 258 L755 292 L459 292 Z " />
<glyph glyph-name="H" unicode="H" horiz-adv-x="819" d="M570 373 L249 373 L249 511 C250 619 260 634 335 634 L345 634 L345 667 L29 667 L29 634 L40 634 C115 634 125 620 126 511 L126 161 C126 54 113 34 43 33 L29 33 L29 0 L345 0 L345 33 L332 33 C262 33 249 54 249 161 L249 330 L570 330 L570 161 C570 54 557 33 487 33 L474 33 L474 0 L790 0 L790 33 L776 33 C706 34 693 54 693 161 L693 511 C694 620 704 634 779 634 L790 634 L790 667 L474 667 L474 634 L484 634 C559 634 569 619 570 511 L570 373 Z " />
<glyph glyph-name="I" unicode="I" horiz-adv-x="379" d="M29 634 L41 634 C117 634 127 620 128 511 L128 161 C127 52 116 34 45 33 L29 33 L29 0 L350 0 L350 33 L334 33 C262 34 251 52 250 161 L250 511 C251 620 261 634 337 634 L350 634 L350 667 L29 667 L29 634 Z " />
<glyph glyph-name="J" unicode="J" horiz-adv-x="381" d="M33 667 L33 634 L49 634 C125 634 135 620 136 511 L136 46 C136 -76 131 -110 109 -149 C88 -184 53 -204 10 -204 C-21 -204 -44 -192 -44 -176 C-44 -172 -42 -166 -40 -158 C-36 -149 -34 -140 -34 -133 C-34 -104 -60 -81 -92 -81 C-128 -81 -155 -107 -155 -141 C-155 -198 -89 -237 8 -237 C83 -237 145 -217 188 -178 C244 -129 259 -78 259 61 L259 511 C260 620 270 634 346 634 L359 634 L359 667 L33 667 Z " />
<glyph glyph-name="K" unicode="K" horiz-adv-x="765" d="M253 333 L253 511 C253 620 264 634 339 634 L351 634 L351 667 L35 667 L35 634 L43 634 C119 634 129 620 130 511 L130 161 C129 52 118 34 46 33 L29 33 L29 0 L345 0 L345 33 L336 33 C265 34 254 52 253 161 L253 285 L307 334 L474 145 C527 85 531 79 531 64 C531 43 507 33 453 33 L442 33 L442 0 L801 0 L801 33 L794 34 C734 36 710 53 622 153 L395 413 L495 506 C598 603 639 629 703 634 L710 634 L710 667 L443 667 L443 634 L449 634 C488 633 510 619 510 596 C510 576 492 552 448 511 L253 333 Z " />
<glyph glyph-name="L" unicode="L" horiz-adv-x="627" d="M614 205 L581 205 C547 75 497 32 390 35 L351 35 C261 36 251 48 252 151 L252 511 C253 620 263 634 339 634 L363 634 L363 667 L29 667 L29 634 L42 634 C118 634 129 620 129 511 L129 161 C128 52 117 34 45 33 L29 33 L29 0 L610 0 L614 205 Z " />
<glyph glyph-name="M" unicode="M" horiz-adv-x="964" d="M247 667 L22 667 L22 634 L36 634 C112 634 123 619 123 510 L123 199 C127 80 105 43 28 34 L22 33 L22 0 L261 0 L261 33 L256 34 C176 43 154 79 158 197 L158 572 L419 0 L447 0 L705 575 L705 161 C704 52 693 34 622 33 L602 33 L602 0 L936 0 L936 33 L911 33 C839 34 828 52 827 161 L827 511 C829 622 837 634 914 634 L935 634 L935 667 L709 667 L478 154 L247 667 Z " />
<glyph glyph-name="N" unicode="N" horiz-adv-x="771" d="M655 -14 L655 525 C652 596 675 623 745 633 L753 634 L753 667 L511 667 L511 634 L522 634 C595 627 619 601 618 530 L618 184 L232 667 L26 667 L26 634 L32 634 C108 634 120 617 124 504 L124 155 C124 98 123 87 116 75 C105 53 67 36 27 34 L22 33 L22 0 L271 0 L271 33 L262 33 C223 33 186 50 171 75 C163 90 162 93 161 155 L161 565 L620 -14 L655 -14 Z " />
<glyph glyph-name="O" unicode="O" horiz-adv-x="822" d="M417 679 C195 679 45 539 45 333 C45 129 195 -13 411 -13 C629 -13 778 128 778 334 C778 535 627 679 417 679 L417 679 Z M411 641 C488 641 556 604 589 543 C618 491 634 416 634 329 C634 130 558 25 414 25 C334 25 265 62 232 122 C204 173 189 247 189 338 C189 534 267 641 411 641 L411 641 Z " />
<glyph glyph-name="P" unicode="P" horiz-adv-x="607" d="M29 667 L29 634 L42 634 C118 634 128 620 129 511 L129 161 C128 52 117 34 46 33 L30 33 L30 0 L355 0 L355 33 L335 33 C263 34 252 52 251 161 L251 308 L328 308 C403 308 450 314 486 330 C550 357 588 417 588 490 C588 549 566 593 520 627 C474 661 414 673 297 673 C255 673 194 672 133 670 C90 668 59 667 46 667 L29 667 Z M251 344 L251 636 C263 637 271 637 288 637 C343 637 369 632 395 617 C433 596 455 548 455 488 C455 429 433 383 396 363 C369 348 346 344 294 344 L251 344 Z " />
<glyph glyph-name="Q" unicode="Q" horiz-adv-x="820" d="M534 4 C589 21 631 43 667 74 C737 135 778 231 778 333 C778 536 627 679 412 679 C196 679 45 537 45 334 C45 206 106 96 209 37 C262 7 338 -13 402 -13 C413 -13 424 -12 440 -11 L374 -49 C369 -51 361 -56 351 -61 C337 -69 321 -78 320 -78 C314 -82 310 -84 292 -95 C256 -113 243 -126 243 -141 C243 -154 252 -163 265 -163 C276 -163 288 -156 306 -139 C338 -108 363 -97 398 -97 C446 -97 503 -120 565 -164 C624 -207 624 -207 639 -216 C680 -238 721 -249 768 -249 C877 -249 948 -189 964 -85 L932 -85 C915 -127 877 -149 822 -149 C773 -149 730 -140 664 -115 C578 -83 491 -64 430 -64 C426 -64 420 -64 411 -66 L534 4 Z M410 641 C462 641 513 622 552 589 C605 543 634 451 634 332 C634 254 619 179 591 124 C585 111 573 96 556 80 C519 43 471 25 412 25 C344 25 281 54 250 98 C212 154 189 247 189 345 C189 419 206 497 233 545 C267 604 335 641 410 641 L410 641 Z " />
<glyph glyph-name="R" unicode="R" horiz-adv-x="711" d="M747 0 L747 33 L742 33 C681 36 641 68 565 173 C503 262 457 315 427 332 C541 356 598 411 598 498 C598 556 568 604 516 633 C468 660 389 674 289 674 C260 674 221 673 152 671 L32 667 L32 634 L44 634 C120 634 131 620 131 511 L131 161 C130 52 119 34 48 33 L29 33 L29 0 L362 0 L362 33 L337 33 C266 34 255 52 254 161 L254 312 L278 312 C325 316 344 298 429 166 C479 87 527 24 558 0 L747 0 Z M254 635 C271 636 279 636 293 636 C361 636 401 626 426 603 C452 578 465 541 465 493 C465 410 429 362 360 353 C331 350 295 348 254 348 L254 635 Z " />
<glyph glyph-name="S" unicode="S" horiz-adv-x="552" d="M57 9 L93 9 C98 35 104 53 115 70 C162 16 226 -13 298 -13 C421 -13 510 70 510 184 C510 235 491 283 458 318 C430 346 385 372 294 411 C186 458 148 494 148 550 C148 606 191 644 252 644 C332 644 396 584 420 485 L453 485 L453 667 L420 667 C415 641 412 632 397 613 C352 659 306 679 247 679 C140 679 60 603 60 502 C60 469 68 438 86 408 C107 369 154 335 231 299 C344 248 351 244 383 213 C402 195 414 166 414 139 C414 73 359 25 285 25 C224 25 170 56 135 113 C117 142 104 176 93 227 L57 227 L57 9 Z " />
<glyph glyph-name="T" unicode="T" horiz-adv-x="690" d="M50 497 C71 614 95 635 199 632 L283 632 L283 161 C282 52 271 34 200 33 L172 33 L172 0 L516 0 L516 33 L488 33 C417 34 406 52 405 161 L405 632 L495 632 C591 635 617 611 641 497 L674 497 L671 667 L18 667 L16 497 L50 497 Z " />
<glyph glyph-name="U" unicode="U" horiz-adv-x="775" d="M525 667 L525 634 L530 633 C604 628 626 601 625 512 L625 286 C625 197 623 175 611 145 C584 78 507 33 421 33 C340 33 279 69 256 131 C245 158 241 202 241 283 L241 511 C241 620 252 634 327 634 L340 634 L340 667 L19 667 L19 634 L31 634 C107 634 117 620 118 511 L118 289 L118 225 C119 169 128 133 149 98 C189 29 281 -13 389 -13 C499 -13 591 30 629 101 C650 139 662 191 662 245 L662 531 C663 597 684 623 748 633 L756 634 L756 667 L525 667 Z " />
<glyph glyph-name="V" unicode="V" horiz-adv-x="706" d="M383 -15 L582 457 C650 615 657 625 710 633 L719 634 L719 667 L505 667 L505 634 L513 633 C555 632 583 612 583 583 C583 564 572 526 553 480 L408 134 L234 529 C217 569 212 584 212 597 C212 623 234 634 291 634 L297 634 L297 667 L-13 667 L-13 634 L-5 633 L-4 633 L-2 633 C49 633 72 612 100 541 C106 525 111 514 113 509 L342 -15 L383 -15 Z " />
<glyph glyph-name="W" unicode="W" horiz-adv-x="939" d="M698 -15 L841 479 C877 604 894 630 942 633 L948 634 L948 667 L756 667 L756 634 L760 634 C801 633 824 611 824 573 C824 551 823 547 807 493 L715 167 L528 667 L485 667 L322 167 L211 525 C201 558 195 585 195 597 C195 619 214 631 254 633 L260 634 L260 667 L-8 667 L-8 634 L0 633 C49 632 62 614 93 507 L254 -15 L296 -15 L465 500 L658 -15 L698 -15 Z " />
<glyph glyph-name="X" unicode="X" horiz-adv-x="785" d="M741 667 L485 667 L485 634 L493 634 C541 634 564 623 564 600 C564 586 553 567 523 531 L416 402 L303 540 C276 573 266 591 266 606 C266 626 282 634 320 634 L328 634 L328 667 L13 667 L13 634 L18 634 C70 631 89 618 149 542 L169 517 L336 312 L212 169 C132 69 89 38 19 33 L13 33 L13 0 L283 0 L283 33 L274 33 L268 33 C231 33 206 52 206 79 C206 99 218 119 254 162 L359 284 L471 145 C505 104 516 85 516 70 C516 45 491 33 435 33 L429 33 L429 0 L785 0 L785 33 C719 35 703 47 607 166 L440 374 L548 504 C631 604 670 631 736 634 L741 634 L741 667 Z " />
<glyph glyph-name="Y" unicode="Y" horiz-adv-x="659" d="M-13 667 L-13 634 L-7 634 C42 629 53 619 107 527 L268 262 L268 161 C267 52 256 34 185 33 L174 33 L174 0 L483 0 L483 33 L473 33 C402 34 391 52 390 161 L390 270 L537 512 C588 599 616 625 665 633 L671 634 L671 667 L450 667 L450 634 L455 634 C498 634 524 614 524 582 C524 566 517 548 496 514 L376 312 L234 548 C215 579 210 590 210 601 C210 623 231 634 273 634 L279 634 L279 667 L-13 667 Z " />
<glyph glyph-name="Z" unicode="Z" horiz-adv-x="649" d="M32 0 L591 0 L610 181 L577 181 C530 54 501 33 368 35 L182 35 L591 637 L591 667 L74 667 L56 505 L88 505 L89 508 L91 516 C105 564 137 608 169 622 C187 630 199 632 269 632 L443 632 L32 26 L32 0 Z " />
<glyph glyph-name="bracketleft" unicode="&#x5b;" horiz-adv-x="374" d="M380 -235 L380 -202 L276 -202 C227 -202 218 -188 219 -118 L219 550 C218 620 227 634 276 634 L380 634 L380 667 L129 667 L129 -235 L380 -235 Z " />
<glyph glyph-name="backslash" unicode="&#x5c;" horiz-adv-x="500" d="M425 -107 L127 705 L75 705 L374 -107 L425 -107 Z " />
<glyph glyph-name="bracketright" unicode="&#x5d;" horiz-adv-x="374" d="M-6 -235 L245 -235 L245 667 L-6 667 L-6 634 L97 634 C147 634 156 620 155 550 L155 -118 C156 -188 147 -202 97 -202 L-6 -202 L-6 -235 Z " />
<glyph glyph-name="asciicircum" unicode="&#x5e;" horiz-adv-x="500" d="M528 282 L263 700 L255 700 L-27 282 L106 282 L296 565 L478 282 L528 282 Z " />
<glyph glyph-name="underscore" unicode="&#x5f;" horiz-adv-x="500" d="M16 -90 L16 -148 L484 -148 L484 -90 L16 -90 Z " />
<glyph glyph-name="grave" unicode="&#x60;" horiz-adv-x="500" d="M304 490 L210 655 L82 655 L82 651 L279 490 L304 490 Z " />
<glyph glyph-name="a" unicode="a" horiz-adv-x="503" d="M470 79 C465 53 452 38 434 38 C411 38 404 54 404 111 L404 282 C404 336 399 354 377 376 C349 405 305 419 241 419 C187 419 146 410 109 391 C76 373 54 346 54 321 C54 300 71 285 94 285 C121 285 137 301 143 332 C147 352 151 363 158 369 C169 379 195 386 219 386 C255 386 283 374 295 353 C302 340 304 326 304 294 L304 268 L246 245 C196 224 133 193 103 174 C58 145 39 117 39 78 C39 27 83 -10 144 -10 C193 -10 247 11 307 54 C321 11 351 -10 398 -10 C456 -10 493 24 496 79 L470 79 Z M304 234 L304 90 C263 56 228 38 200 38 C168 38 144 65 144 100 C144 151 181 184 280 224 L304 234 Z " />
<glyph glyph-name="b" unicode="b" horiz-adv-x="557" d="M13 620 L19 620 C68 619 79 601 79 525 L79 -14 L105 -14 C114 1 152 45 168 59 C205 9 253 -15 315 -15 C434 -15 520 77 520 204 C520 329 436 419 321 419 C269 419 227 402 179 362 L179 677 L170 679 C149 671 56 655 13 652 L13 620 Z M179 320 C217 360 254 379 295 379 C367 379 409 316 409 206 C409 89 364 22 286 22 C218 22 179 70 179 150 L179 320 Z " />
<glyph glyph-name="c" unicode="c" horiz-adv-x="453" d="M398 107 C379 52 338 23 278 23 C192 23 147 89 147 217 C147 330 186 386 265 386 C300 386 316 375 322 345 C331 304 344 290 372 290 C396 290 414 309 414 334 C414 382 350 419 268 419 C136 419 36 322 36 195 C36 72 126 -16 252 -16 C342 -16 404 25 429 100 L398 107 Z " />
<glyph glyph-name="d" unicode="d" horiz-adv-x="556" d="M545 35 L538 35 C486 36 478 48 478 134 L478 677 L467 678 C445 670 353 654 310 651 L310 619 L317 619 C370 617 376 607 378 520 L378 362 C341 398 287 419 234 419 C120 419 37 326 37 197 C37 77 118 -14 227 -14 C282 -14 332 9 381 56 C381 27 383 9 389 -14 C427 -6 482 0 545 1 L545 35 Z M378 98 C348 54 306 30 261 30 C189 30 148 94 148 207 C148 316 188 374 263 374 C302 374 338 358 378 323 L378 98 Z " />
<glyph glyph-name="e" unicode="e" horiz-adv-x="464" d="M393 95 C367 48 325 22 273 22 C192 22 148 89 148 210 C148 222 148 230 150 246 L429 246 C429 346 352 419 245 419 C125 419 37 326 37 200 C37 76 127 -16 250 -16 C328 -16 397 25 424 86 L393 95 Z M151 276 C156 316 161 333 174 352 C188 372 215 386 242 386 C290 386 321 350 321 292 C321 285 321 283 320 276 L151 276 Z " />
<glyph glyph-name="f" unicode="f" horiz-adv-x="306" d="M280 403 L194 403 L194 432 L194 483 C194 544 196 568 203 590 C214 624 239 645 266 645 C289 645 307 632 318 606 C339 562 350 551 377 551 C402 551 423 572 423 596 C423 643 364 678 285 678 C212 678 154 647 122 591 C101 554 94 515 94 432 L94 403 L17 403 L17 370 L94 370 L94 131 C94 46 86 34 33 33 L23 33 L23 0 L278 0 L278 33 L255 33 C202 34 196 44 194 131 L194 370 L280 370 L280 403 Z " />
<glyph glyph-name="g" unicode="g" horiz-adv-x="494" d="M245 46 C245 46 230 46 217 47 C203 48 192 48 187 48 C138 49 114 59 114 79 C114 105 145 118 214 120 C263 122 288 126 319 139 C376 163 410 213 410 272 C410 301 402 326 386 351 C399 366 410 372 421 372 C429 372 434 369 444 356 C453 343 461 338 472 338 C489 338 502 352 502 372 C502 398 482 416 453 416 C425 416 400 402 368 370 C334 402 286 419 230 419 C123 419 47 358 47 274 C47 214 87 159 148 134 C85 121 54 92 54 47 C54 -14 106 -40 237 -43 C309 -44 346 -50 369 -63 C390 -76 401 -96 401 -120 C401 -181 340 -217 240 -217 C147 -217 89 -183 89 -127 C89 -108 96 -89 112 -70 C100 -66 94 -65 86 -65 C53 -65 29 -92 29 -129 C29 -202 109 -248 237 -248 C380 -248 464 -190 464 -92 C464 -45 440 0 403 18 C372 35 315 46 265 46 L245 46 Z M227 386 C280 386 309 346 309 275 C309 195 282 154 229 154 C177 154 148 195 148 268 C148 344 176 386 227 386 L227 386 Z " />
<glyph glyph-name="h" unicode="h" horiz-adv-x="559" d="M24 618 L30 618 C80 616 91 601 90 534 L90 131 C88 42 83 35 30 33 L22 33 L22 0 L249 0 L249 33 L246 33 C195 36 190 44 190 131 L190 291 C219 343 257 371 301 371 C320 371 338 365 352 354 C368 340 375 313 375 264 L375 131 C375 44 370 36 320 33 L312 33 L312 0 L542 0 L542 33 L535 33 C483 34 478 43 476 131 L476 251 C476 309 472 336 459 360 C439 396 392 419 340 419 C280 419 231 393 190 340 L190 677 L181 677 C160 669 67 653 24 650 L24 618 Z " />
<glyph glyph-name="i" unicode="i" horiz-adv-x="277" d="M136 678 C102 678 73 649 73 615 C73 578 101 549 136 549 C172 549 200 578 200 614 C200 649 172 678 136 678 L136 678 Z M192 419 L183 419 C149 409 53 392 16 389 L16 357 L29 357 C82 357 91 342 92 262 L92 131 C90 45 84 34 31 33 L16 33 L16 0 L261 0 L261 33 L252 33 C201 34 194 45 192 131 L192 419 Z " />
<glyph glyph-name="j" unicode="j" horiz-adv-x="267" d="M203 419 L194 419 C158 409 98 398 27 389 L27 356 L40 356 C93 357 102 343 103 262 L103 -54 C103 -134 100 -156 86 -180 C74 -200 52 -214 29 -214 C10 -214 -6 -203 -14 -185 C-27 -151 -38 -141 -61 -141 C-84 -141 -102 -159 -102 -182 C-102 -220 -56 -247 8 -247 C87 -247 158 -208 184 -151 C199 -117 203 -87 203 -3 L203 419 Z M145 678 C110 678 81 649 81 615 C81 578 109 549 145 549 C180 549 208 578 208 614 C208 649 180 678 145 678 L145 678 Z " />
<glyph glyph-name="k" unicode="k" horiz-adv-x="508" d="M20 618 L25 618 C76 616 87 601 86 532 L86 131 C84 42 79 35 25 33 L14 33 L14 0 L243 0 L243 33 L239 33 C192 35 186 46 186 131 L186 184 L214 205 L305 95 C333 60 333 60 333 53 C333 40 319 33 293 33 L288 33 L288 0 L509 0 L509 33 L504 33 C478 37 462 49 418 102 L288 260 C309 276 312 278 330 293 C399 351 427 367 468 370 L472 370 L472 403 L288 403 L288 370 L295 370 C317 370 328 363 328 350 C328 342 324 334 315 325 C305 314 253 271 227 253 L186 224 L186 677 L177 677 C156 669 63 653 20 650 L20 618 Z " />
<glyph glyph-name="l" unicode="l" horiz-adv-x="274" d="M188 677 L179 677 C157 669 65 653 22 650 L22 618 L27 618 C78 616 89 601 88 532 L88 131 C86 43 80 34 27 33 L17 33 L17 0 L258 0 L258 33 L249 33 C196 34 188 46 188 131 L188 677 Z " />
<glyph glyph-name="m" unicode="m" horiz-adv-x="835" d="M25 356 L30 356 C81 355 88 344 90 259 L90 131 C90 45 83 34 30 33 L26 33 L26 0 L246 0 L246 33 L242 33 C195 36 190 45 190 131 L190 295 C193 298 193 298 215 323 C240 352 272 368 303 368 C326 368 348 356 359 338 C367 323 370 304 370 257 L370 131 C370 43 366 36 317 33 L312 33 L312 0 L525 0 L525 33 L522 33 C476 36 471 45 471 131 L471 289 C514 344 547 367 586 367 C633 367 652 340 652 273 L652 131 C652 43 648 36 599 33 L595 33 L595 0 L818 0 L818 33 L812 33 C760 35 755 42 753 131 L753 258 C753 325 751 337 737 363 C718 396 672 419 623 419 C565 419 520 394 466 332 C448 388 404 419 342 419 C285 419 234 392 191 340 L191 348 C191 374 187 392 178 415 L174 415 C144 406 89 396 25 389 L25 356 Z " />
<glyph glyph-name="n" unicode="n" horiz-adv-x="560" d="M27 356 L31 356 C83 354 90 344 92 259 L92 131 C91 45 84 34 31 33 L26 33 L26 0 L253 0 L253 33 L248 33 C197 35 192 44 192 131 L192 293 C229 345 266 370 308 370 C351 370 378 341 378 295 L378 131 C378 44 373 36 323 33 L315 33 L315 0 L544 0 L544 33 L538 33 C486 35 481 42 479 131 L479 262 C479 320 476 338 462 363 C442 397 399 419 351 419 C289 419 226 387 193 339 L193 348 C193 373 189 392 180 415 L176 415 C146 405 90 395 27 388 L27 356 Z " />
<glyph glyph-name="o" unicode="o" horiz-adv-x="524" d="M262 419 C132 419 37 327 37 200 C37 75 133 -16 266 -16 C391 -16 487 78 487 201 C487 327 392 419 262 419 L262 419 Z M262 385 C341 385 376 329 376 204 C376 72 342 17 262 17 C182 17 148 73 148 201 C148 330 182 385 262 385 L262 385 Z " />
<glyph glyph-name="p" unicode="p" horiz-adv-x="554" d="M156 419 C129 412 101 406 53 399 C18 393 13 392 5 391 L5 358 L16 358 C69 357 75 347 77 260 L77 -113 C76 -198 69 -210 16 -212 L5 -212 L5 -244 L247 -244 L247 -212 L238 -212 C185 -210 179 -200 177 -113 L177 43 C223 1 262 -16 314 -16 C432 -16 517 77 517 205 C517 329 436 419 325 419 C269 419 218 396 176 351 C176 379 173 398 167 419 L156 419 Z M177 308 C211 353 247 375 288 375 C362 375 406 312 406 205 C406 143 391 89 367 64 C345 40 314 26 284 26 C246 26 209 46 177 84 L177 308 Z " />
<glyph glyph-name="q" unicode="q" horiz-adv-x="543" d="M454 419 C428 392 409 376 388 361 C338 401 293 419 241 419 C126 419 38 322 38 195 C38 70 118 -16 235 -16 C287 -16 331 0 379 35 L379 -113 C377 -201 371 -210 318 -212 L303 -212 L303 -244 L549 -244 L549 -212 L540 -212 C487 -210 482 -201 479 -113 L479 419 L454 419 Z M379 73 C344 42 301 25 261 25 C189 25 149 87 149 196 C149 253 157 294 175 325 C193 356 228 377 264 377 C307 377 355 354 379 322 L379 73 Z " />
<glyph glyph-name="r" unicode="r" horiz-adv-x="402" d="M25 353 L33 353 C86 352 93 340 94 254 L94 131 C92 42 87 35 34 33 L25 33 L25 0 L268 0 L268 33 L256 33 C203 34 197 44 195 131 L195 194 C195 255 199 279 217 310 C236 342 261 362 282 362 C293 362 302 355 311 339 C327 311 336 303 355 303 C380 303 399 323 399 349 C399 388 366 419 324 419 C271 419 218 379 190 317 C189 359 184 393 174 419 C109 400 93 396 25 386 L25 353 Z " />
<glyph glyph-name="s" unicode="s" horiz-adv-x="377" d="M41 -12 L69 -12 C74 4 81 16 90 25 C92 24 94 23 98 19 C123 -2 163 -16 203 -16 C285 -16 343 37 343 112 C343 150 326 188 299 211 C275 231 263 237 197 259 C138 278 107 304 107 335 C107 365 137 389 175 389 C226 389 272 348 288 289 L315 289 L315 413 L289 413 C282 397 276 387 270 381 C233 407 201 419 167 419 C98 419 41 364 41 299 C41 267 56 238 87 212 C110 193 125 185 186 162 C245 140 272 114 272 79 C272 41 240 15 196 15 C135 15 92 51 70 121 L41 121 L41 -12 Z " />
<glyph glyph-name="t" unicode="t" horiz-adv-x="316" d="M300 370 L300 403 L179 403 L179 532 L151 532 C140 454 87 402 21 403 L21 370 L79 370 L79 140 C79 89 85 57 98 34 C116 3 151 -16 192 -16 C248 -16 295 12 316 59 L289 70 C272 42 254 30 231 30 C213 30 198 39 190 54 C181 70 179 84 179 138 L179 370 L300 370 Z " />
<glyph glyph-name="u" unicode="u" horiz-adv-x="548" d="M465 403 L296 403 L296 370 L304 370 C358 369 365 358 365 272 L365 159 C365 150 361 126 357 115 C341 69 294 34 248 34 C225 34 202 46 191 65 C185 76 182 94 182 129 L182 403 L18 403 L18 370 L23 370 C75 369 82 358 82 272 L82 129 C82 85 86 63 98 41 C118 7 163 -16 212 -16 C271 -16 325 14 365 70 C365 32 369 0 376 -16 L382 -16 C409 -7 475 1 528 0 L528 33 L525 33 C474 34 466 47 465 132 L465 403 Z " />
<glyph glyph-name="v" unicode="v" horiz-adv-x="479" d="M263 -13 L395 267 C429 343 448 367 477 370 L482 370 L482 403 L341 403 L341 370 L347 370 C370 369 387 358 387 343 C387 333 380 312 368 287 L274 83 L173 304 C162 328 157 342 157 349 C157 363 171 370 200 370 L206 370 L206 403 L-3 403 L-3 370 L2 370 C33 368 41 359 72 295 L214 -13 L263 -13 Z " />
<glyph glyph-name="w" unicode="w" horiz-adv-x="717" d="M522 -13 L643 287 C670 358 677 367 716 370 L719 370 L719 403 L573 403 L573 370 L581 370 C609 369 625 360 625 345 C625 339 625 338 614 307 L534 103 L413 403 L372 403 L250 103 L175 297 L166 320 C161 331 158 341 158 348 C158 363 173 370 205 370 L211 370 L211 403 L-2 403 L-2 370 L4 370 C39 368 43 364 70 297 L194 -13 L238 -13 L358 285 L479 -13 L522 -13 Z " />
<glyph glyph-name="x" unicode="x" horiz-adv-x="501" d="M468 370 L468 403 L305 403 L305 370 L309 370 C336 370 352 362 352 349 C352 344 345 334 329 316 L273 254 L213 326 C197 345 196 346 196 354 C196 365 206 370 229 370 L234 370 L234 403 L14 403 L14 370 L20 370 C45 371 62 358 115 296 L206 187 L126 100 C85 56 54 37 18 33 L11 33 L11 0 L184 0 L184 33 L175 33 C150 33 134 41 134 54 C134 60 140 68 159 89 L227 163 L295 80 C313 59 314 57 314 50 C314 39 301 33 277 33 L265 33 L265 0 L495 0 L495 33 L489 33 C463 37 446 50 408 93 L292 231 L365 308 C409 353 438 371 466 370 L468 370 Z " />
<glyph glyph-name="y" unicode="y" horiz-adv-x="483" d="M-5 403 L-5 371 L3 370 C34 369 42 361 71 304 L230 -12 L201 -85 C186 -121 174 -130 123 -148 C84 -162 67 -180 67 -207 C67 -231 86 -249 113 -249 C152 -249 180 -219 216 -134 L392 271 C424 347 438 364 476 370 L481 371 L481 403 L334 403 L334 371 L343 371 C371 370 384 362 384 346 C384 340 382 331 377 322 C371 308 365 295 364 293 L281 98 L178 306 C165 334 164 338 164 346 C164 360 177 369 200 370 L206 371 L206 403 L-5 403 Z " />
<glyph glyph-name="z" unicode="z" horiz-adv-x="446" d="M27 0 L402 0 L414 131 L383 131 C348 46 333 34 258 33 L155 33 L407 375 L407 403 L47 403 L40 287 L70 287 C99 361 110 372 152 370 L280 370 L27 24 L27 0 Z " />
<glyph glyph-name="braceleft" unicode="&#x7b;" horiz-adv-x="369" d="M57 205 C137 198 151 178 150 77 L150 -80 C151 -146 166 -185 200 -210 C225 -226 253 -230 341 -231 L364 -231 L364 -205 C272 -203 242 -172 239 -77 L239 100 C239 163 209 201 146 214 L146 215 L146 221 C209 235 239 272 239 335 L239 513 C242 607 272 638 364 641 L364 667 L341 667 C254 666 230 663 202 647 C166 622 151 584 150 515 L150 359 C151 257 137 238 57 231 L57 205 Z " />
<glyph glyph-name="bar" unicode="&#x7c;" horiz-adv-x="500" d="M212 667 L212 -167 L288 -167 L288 667 L212 667 Z " />
<glyph glyph-name="braceright" unicode="&#x7d;" horiz-adv-x="378" d="M321 231 C241 238 227 257 228 359 L228 515 C227 582 212 621 178 646 C153 662 125 666 37 667 L14 667 L14 641 C105 638 136 607 139 513 L139 335 C139 272 169 235 231 221 L231 220 L231 214 C169 201 138 163 139 100 L139 -77 C136 -171 105 -202 14 -205 L14 -231 L37 -231 C124 -230 148 -227 176 -211 C211 -186 227 -148 228 -80 L228 77 C227 178 241 198 321 205 L321 231 Z " />
<glyph glyph-name="asciitilde" unicode="&#x7e;" horiz-adv-x="667" d="M519 734 C492 701 463 684 433 684 C413 684 383 691 351 703 C316 716 284 724 263 724 C217 724 171 688 130 620 L148 608 C185 652 200 661 233 661 C257 661 282 655 337 634 C368 623 385 619 404 619 C453 619 503 658 537 722 L519 734 Z " />
<glyph glyph-name="uni00A0" unicode="&#xa0;" horiz-adv-x="250" d="" />
<glyph glyph-name="exclamdown" unicode="&#xa1;" horiz-adv-x="280" d="M123 232 L88 -111 C85 -143 84 -155 84 -169 C84 -209 105 -234 139 -234 C173 -234 194 -209 194 -169 C194 -155 193 -145 190 -112 L155 232 L123 232 Z M139 449 C103 449 74 420 74 384 C74 349 103 319 138 319 C175 319 204 348 204 384 C204 420 175 449 139 449 L139 449 Z " />
<glyph glyph-name="cent" unicode="&#xa2;" horiz-adv-x="518" d="M435 107 C415 53 369 21 313 21 C282 21 256 31 237 51 L337 375 C347 373 356 361 359 346 C365 306 380 290 409 290 C433 290 452 309 452 334 C452 371 411 402 347 415 L406 612 L374 612 L316 418 C307 419 302 419 294 419 C170 419 72 320 72 196 C72 104 115 37 193 6 L134 -189 L166 -189 L222 -3 C249 -13 267 -17 293 -17 C377 -17 442 27 466 99 L435 107 Z M212 77 C194 108 183 161 183 215 C183 326 222 385 296 385 L307 385 L212 77 Z " />
<glyph glyph-name="sterling" unicode="&#xa3;" horiz-adv-x="712" d="M27 198 L182 198 C162 121 149 78 133 37 C63 -7 23 -52 23 -88 C23 -107 41 -123 63 -123 C77 -123 89 -116 102 -100 C113 -88 141 -44 152 -20 C155 -13 159 -5 163 3 L166 9 C178 16 186 18 196 18 C222 18 244 4 289 -41 C348 -100 389 -122 441 -122 C543 -122 639 -32 639 63 C639 101 618 129 589 129 C568 129 551 113 551 94 C551 84 554 73 560 61 C574 29 576 24 576 11 C576 -30 538 -64 494 -64 C462 -64 433 -48 387 -3 C333 49 294 69 246 69 C226 69 212 66 191 57 C236 133 237 135 267 198 L448 198 L459 239 L284 239 C311 302 335 376 357 463 C393 600 403 633 423 667 C451 718 489 744 534 744 C566 744 590 731 608 703 C630 669 638 662 658 662 C679 662 696 679 696 701 C696 745 635 781 559 781 C443 781 352 705 287 553 C253 474 231 403 196 253 L194 248 C193 241 193 241 192 239 L39 239 L27 198 Z " />
<glyph glyph-name="currency" unicode="&#xa4;" horiz-adv-x="667" d="M49 97 L88 58 L183 153 C240 117 281 104 334 104 C385 104 427 118 482 154 L578 58 L617 97 L520 195 C557 253 569 290 569 339 C569 392 556 432 521 490 L619 588 L579 627 L482 530 C423 567 381 581 330 581 C278 581 227 564 181 531 L86 626 L47 587 L141 493 C104 431 92 392 92 340 C92 288 106 246 143 191 L49 97 Z M334 499 C420 499 489 428 489 340 C489 256 418 186 332 186 C245 186 175 256 175 342 C175 430 245 499 334 499 L334 499 Z " />
<glyph glyph-name="yen" unicode="&#xa5;" horiz-adv-x="504" d="M359 443 L217 443 L160 548 C143 580 139 590 139 601 C139 623 158 634 196 634 L200 634 L200 667 L-62 667 L-62 634 L-61 634 C-13 631 -5 623 46 527 L93 443 L-47 443 L-47 406 L113 406 L184 275 L-44 275 L-44 237 L191 237 L191 161 C191 52 181 34 117 33 L107 33 L107 0 L385 0 L385 33 L376 33 C311 34 301 52 301 161 L301 237 L536 237 L536 275 L306 275 L306 279 L376 406 L539 406 L539 443 L396 443 C484 608 497 624 553 634 L554 634 L554 667 L355 667 L355 634 L359 634 C399 634 424 614 424 584 C424 568 419 555 401 521 L359 443 Z M338 406 L288 312 L238 406 L338 406 Z " />
<glyph glyph-name="brokenbar" unicode="&#xa6;" horiz-adv-x="500" d="M212 667 L212 323 L288 323 L288 667 L212 667 Z M212 153 L212 -167 L288 -167 L288 153 L212 153 Z " />
<glyph glyph-name="section" unicode="&#xa7;" horiz-adv-x="437" d="M169 364 C129 359 116 355 97 345 C56 323 31 279 31 228 C31 152 72 94 189 6 C278 -61 303 -93 303 -139 C303 -181 269 -211 221 -211 C187 -211 160 -192 154 -164 C147 -130 147 -129 142 -120 C135 -104 123 -96 108 -96 C84 -96 67 -116 67 -142 C67 -198 130 -243 209 -243 C304 -243 368 -187 368 -103 C368 -45 337 7 270 62 C276 63 276 63 287 66 C315 72 320 74 335 82 C377 106 400 150 400 204 C400 243 388 278 362 314 C339 346 321 362 239 427 C156 492 127 528 127 568 C127 608 162 638 211 638 C255 638 276 619 285 571 C290 541 304 526 327 526 C351 526 369 545 369 570 C369 624 302 670 223 670 C130 670 63 613 63 533 C63 495 77 460 107 423 C121 406 126 401 169 364 L169 364 Z M168 336 C201 336 237 315 282 271 C323 232 343 195 343 162 C343 122 309 92 265 92 C229 92 201 108 153 156 C112 198 90 236 90 268 C90 307 124 336 168 336 L168 336 Z " />
<glyph glyph-name="dieresis" unicode="&#xa8;" horiz-adv-x="500" d="M153 627 C125 627 103 605 103 577 C103 550 126 527 152 527 C181 527 203 549 203 577 C203 605 181 627 153 627 L153 627 Z M343 627 C315 627 293 605 293 577 C293 550 315 527 342 527 C370 527 393 549 393 577 C393 605 371 627 343 627 L343 627 Z " />
<glyph glyph-name="copyright" unicode="&#xa9;" horiz-adv-x="804" d="M401 680 C210 680 55 525 55 334 C55 142 211 -13 402 -13 C590 -13 748 143 748 329 C748 526 596 680 401 680 L401 680 Z M401 644 C574 644 711 506 711 330 C711 163 570 24 401 24 C230 24 91 163 91 334 C91 505 230 644 401 644 L401 644 Z M535 293 C523 215 479 170 415 170 C342 170 300 229 300 332 C300 442 340 502 412 502 C477 502 522 456 534 377 L556 377 L552 520 L530 519 C527 499 526 495 519 479 C486 513 448 528 401 528 C296 528 221 446 221 332 C221 221 295 143 400 143 C449 143 489 159 521 193 C529 181 532 173 536 157 L557 157 L557 293 L535 293 Z " />
<glyph glyph-name="ordfeminine" unicode="&#xaa;" horiz-adv-x="314" d="M286 321 C283 303 276 295 266 295 C254 295 250 307 250 339 L250 447 C250 475 249 483 241 497 C228 521 195 535 152 535 C89 535 38 506 38 471 C38 457 49 446 64 446 C81 446 92 457 95 478 C99 502 110 510 138 510 C174 510 186 495 186 454 L186 440 L154 425 C60 385 29 358 29 318 C29 284 56 260 94 260 C122 260 153 273 189 299 C199 272 216 260 244 260 C281 260 305 283 306 321 L286 321 Z M186 414 L186 326 C164 305 143 294 127 294 C109 294 95 310 95 332 C95 360 118 384 165 405 L186 414 Z " />
<glyph glyph-name="guillemotleft" unicode="&#xab;" horiz-adv-x="504" d="M25 216 L212 15 L249 15 L147 216 L249 413 L212 413 L25 216 Z M254 216 L441 15 L477 15 L375 216 L477 413 L440 413 L254 216 Z " />
<glyph glyph-name="logicalnot" unicode="&#xac;" horiz-adv-x="500" d="M467 0 L467 266 L33 266 L33 212 L341 212 L341 0 L467 0 Z " />
<glyph glyph-name="uni00AD" unicode="&#xad;" horiz-adv-x="325" d="M34 241 L34 184 L292 184 L292 241 L34 241 Z " />
<glyph glyph-name="registered" unicode="&#xae;" horiz-adv-x="804" d="M401 680 C210 680 55 525 55 334 C55 142 211 -13 402 -13 C590 -13 748 143 748 329 C748 526 596 680 401 680 L401 680 Z M401 644 C574 644 711 506 711 330 C711 163 570 24 401 24 C230 24 91 163 91 334 C91 505 230 644 401 644 L401 644 Z M227 150 L410 150 L410 173 L394 173 C357 174 354 179 352 241 L352 322 L365 322 C385 324 401 307 442 243 C467 201 494 166 513 150 L617 150 L617 173 L612 173 C583 173 557 194 518 249 C485 298 473 313 449 334 C505 346 536 379 536 426 C536 493 480 525 361 525 C347 525 346 525 295 523 L229 521 L229 498 L238 498 C278 498 280 495 282 433 L282 241 C280 179 277 174 240 173 L227 173 L227 150 Z M352 499 C401 499 413 497 431 488 C450 479 461 454 461 422 C461 363 436 346 352 346 L352 499 Z " />
<glyph glyph-name="macron" unicode="&#xaf;" horiz-adv-x="354" d="M33 547 L321 547 L321 590 L33 590 L33 547 Z " />
<glyph glyph-name="degree" unicode="&#xb0;" horiz-adv-x="400" d="M203 686 C117 686 50 619 50 534 C50 448 116 381 200 381 C284 381 350 448 350 533 C350 619 286 686 203 686 L203 686 Z M202 629 C252 629 293 586 293 534 C293 480 252 438 200 438 C148 438 106 481 106 533 C106 587 148 629 202 629 L202 629 Z " />
<glyph glyph-name="plusminus" unicode="&#xb1;" horiz-adv-x="500" d="M16 379 L16 321 L219 321 L219 125 L279 125 L279 321 L484 321 L484 379 L279 379 L279 576 L219 576 L219 379 L16 379 Z M16 67 L16 9 L484 9 L484 67 L16 67 Z " />
<glyph glyph-name="twosuperior" unicode="&#xb2;" horiz-adv-x="333" d="M35 266 L230 266 C250 266 250 266 250 258 C250 255 250 253 249 250 L247 238 L277 238 L295 316 L109 316 C164 366 195 395 203 404 C279 481 296 509 296 559 C296 621 241 667 166 667 C94 667 37 623 37 568 C37 537 55 505 72 505 C84 505 114 524 114 532 C114 534 113 536 109 539 C93 553 87 565 87 581 C87 613 114 638 148 638 C191 638 218 606 218 556 C218 502 193 453 132 384 C99 347 70 319 35 292 L35 266 Z " />
<glyph glyph-name="threesuperior" unicode="&#xb3;" horiz-adv-x="333" d="M197 493 C263 533 284 557 284 593 C284 635 236 667 172 667 C102 667 46 627 46 577 C46 554 60 531 74 531 C88 531 117 544 117 551 C117 553 115 555 112 559 C101 570 97 578 97 590 C97 617 124 639 156 639 C188 639 208 618 208 583 C208 545 185 514 134 486 C112 474 102 464 102 456 C102 447 110 440 119 440 C126 440 130 442 140 452 C151 463 160 467 172 467 C202 467 219 438 219 385 C219 320 192 284 144 284 C120 284 108 293 99 316 C90 339 82 347 65 347 C47 347 33 334 33 319 C33 285 82 258 141 258 C231 258 297 314 297 390 C297 451 260 489 197 493 L197 493 Z " />
<glyph glyph-name="acute" unicode="&#xb4;" horiz-adv-x="500" d="M187 490 L212 490 L408 651 L408 655 L281 655 L187 490 Z " />
<glyph glyph-name="mu" unicode="&#xb5;" horiz-adv-x="576" d="M442 500 L353 500 L354 131 C318 80 284 58 242 58 C184 58 150 99 150 169 L150 500 L62 500 L62 20 C62 -1 58 -26 51 -56 C34 -118 33 -123 33 -147 C33 -190 54 -219 83 -219 C112 -219 132 -189 132 -145 C132 -124 129 -110 113 -53 C102 -17 101 -8 101 21 L101 33 C143 -3 165 -13 200 -13 C250 -13 301 18 354 80 C362 48 367 36 377 21 C392 0 419 -13 449 -13 C510 -13 553 31 567 108 L540 109 C536 71 515 41 492 41 C462 41 442 77 442 131 L442 500 Z " />
<glyph glyph-name="paragraph" unicode="&#xb6;" horiz-adv-x="590" d="M543 667 L291 667 C191 667 188 667 163 661 C93 644 48 584 48 509 C48 449 77 399 126 370 C153 354 188 347 234 347 C243 347 247 347 269 348 L269 0 L268 -22 L268 -26 L268 -27 C267 -56 259 -60 206 -61 L184 -61 L184 -89 L327 -89 L327 638 L409 638 L409 -89 L536 -89 L536 -61 L531 -61 L511 -61 C470 -61 467 -58 467 -3 L467 565 C469 638 469 638 526 640 L543 640 L543 667 Z M268 640 L268 379 L232 379 C174 379 136 429 136 505 C136 544 143 575 157 599 C173 628 196 640 239 640 L268 640 Z " />
<glyph glyph-name="periodcentered" unicode="&#xb7;" horiz-adv-x="280" d="M137 398 C101 398 72 369 72 333 C72 298 101 268 136 268 C173 268 202 297 202 333 C202 369 173 398 137 398 L137 398 Z " />
<glyph glyph-name="cedilla" unicode="&#xb8;" horiz-adv-x="500" d="M251 0 L227 0 C222 -40 217 -67 211 -98 C241 -100 259 -117 259 -143 C259 -170 240 -188 211 -188 C193 -188 180 -186 159 -178 C156 -192 156 -194 153 -206 C176 -214 194 -218 215 -218 C276 -218 318 -183 318 -133 C318 -89 290 -60 244 -54 L251 0 Z " />
<glyph glyph-name="onesuperior" unicode="&#xb9;" horiz-adv-x="333" d="M179 667 C161 652 124 642 81 642 L81 616 L105 616 C134 615 134 614 135 558 L135 347 C133 297 132 294 102 293 L85 293 L85 267 L257 267 L257 293 L239 293 C209 294 207 297 206 348 L206 667 L179 667 Z " />
<glyph glyph-name="ordmasculine" unicode="&#xba;" horiz-adv-x="326" d="M163 535 C86 535 28 476 28 398 C28 314 83 257 164 257 C241 257 298 316 298 396 C298 476 241 535 163 535 L163 535 Z M163 509 C209 509 228 474 228 389 C228 317 207 283 163 283 C117 283 98 317 98 399 C98 474 118 509 163 509 L163 509 Z " />
<glyph glyph-name="guillemotright" unicode="&#xbb;" horiz-adv-x="504" d="M476 216 L289 413 L252 413 L354 216 L252 15 L289 15 L476 216 Z M247 216 L61 413 L24 413 L125 216 L24 15 L60 15 L247 216 Z " />
<glyph glyph-name="onequarter" unicode="&#xbc;" horiz-adv-x="807" d="M178 667 C160 652 123 642 80 642 L80 616 L82 616 L92 616 L101 616 L104 616 C133 614 133 614 134 558 L134 347 C132 297 131 294 101 293 L84 293 L84 267 L256 267 L256 293 L238 293 C208 294 206 297 205 348 L205 667 L178 667 Z M262 0 L604 652 L560 652 L218 0 L262 0 Z M636 132 L636 82 C635 30 633 27 602 26 L585 26 L585 0 L756 0 L756 26 L742 26 C712 27 710 30 709 83 L709 132 L780 132 L788 189 L764 189 L761 182 C758 174 755 169 753 167 C751 165 742 164 728 164 L709 164 L709 399 L670 399 L487 163 L487 132 L636 132 Z M636 164 L525 164 L636 309 L636 164 Z " />
<glyph glyph-name="onehalf" unicode="&#xbd;" horiz-adv-x="827" d="M179 667 C161 652 124 642 81 642 L81 616 C102 616 112 616 116 615 C134 612 134 610 135 558 L135 347 C133 297 132 294 102 293 L85 293 L85 267 L257 267 L257 293 L239 293 C209 294 207 297 206 348 L206 667 L179 667 Z M262 0 L604 652 L560 652 L218 0 L262 0 Z M522 0 L717 0 C737 0 738 0 738 -7 C738 -9 738 -9 737 -13 L735 -28 L764 -28 L783 50 L597 50 C651 100 683 129 691 138 C767 215 784 243 784 292 C784 354 729 400 654 400 C581 400 524 356 524 301 C524 270 542 238 559 238 C565 238 573 241 578 245 C580 246 580 246 592 253 C598 257 602 262 602 265 C602 267 601 269 597 272 C581 286 574 298 574 314 C574 346 601 371 636 371 C679 371 706 339 706 289 C706 236 681 186 620 118 C587 81 557 53 522 26 L522 0 Z " />
<glyph glyph-name="threequarters" unicode="&#xbe;" horiz-adv-x="827" d="M197 493 C263 533 284 557 284 593 C284 635 236 667 172 667 C102 667 46 627 46 577 C46 554 60 531 74 531 C88 531 117 544 117 551 C117 553 115 555 112 559 C101 570 97 578 97 590 C97 617 124 639 156 639 C188 639 208 618 208 583 C208 545 185 514 134 486 C112 474 102 464 102 456 C102 447 110 440 119 440 C126 440 130 442 140 452 C151 463 160 467 172 467 C202 467 219 438 219 385 C219 320 192 284 144 284 C120 284 108 293 99 316 C90 339 82 347 65 347 C47 347 33 334 33 319 C33 285 82 258 141 258 C231 258 297 314 297 390 C297 451 260 489 197 493 L197 493 Z M284 0 L627 652 L583 652 L240 0 L284 0 Z M656 132 L656 82 C655 30 653 27 622 26 L605 26 L605 0 L776 0 L776 26 L762 26 C732 27 730 30 729 83 L729 132 L800 132 L808 189 L784 189 L781 182 C778 174 775 169 773 167 C771 165 763 164 748 164 L729 164 L729 399 L690 399 L507 163 L507 132 L656 132 Z M656 164 L545 164 L656 309 L656 164 Z " />
<glyph glyph-name="questiondown" unicode="&#xbf;" horiz-adv-x="427" d="M245 445 C209 445 180 416 180 380 C180 345 209 315 244 315 C281 315 310 344 310 380 C310 416 281 445 245 445 L245 445 Z M265 231 L230 231 L230 89 C209 104 187 111 161 111 C77 111 14 43 14 -48 C14 -97 31 -143 61 -179 C94 -217 143 -237 205 -237 C282 -237 349 -198 349 -154 C349 -136 334 -122 315 -122 C296 -122 284 -132 275 -155 C260 -191 242 -204 210 -204 C152 -204 117 -151 117 -64 C117 21 142 69 187 69 C207 69 222 60 235 39 L265 39 L265 231 Z " />
<glyph glyph-name="Agrave" unicode="&#xc0;" horiz-adv-x="659" d="M673 0 L673 33 L667 34 C616 41 608 51 565 152 L347 677 L314 677 L103 163 C68 73 43 44 -5 34 L-13 33 L-13 0 L193 0 L193 33 L185 33 C149 33 121 56 121 85 C121 109 123 116 152 186 L167 223 L404 223 L445 125 C463 80 464 77 464 65 C464 43 444 33 395 33 L388 33 L388 0 L673 0 Z M391 257 L180 257 L285 513 L391 257 Z M377 728 L403 728 L303 863 L143 863 L143 859 L377 728 Z " />
<glyph glyph-name="Aacute" unicode="&#xc1;" horiz-adv-x="659" d="M673 0 L673 33 L667 34 C616 41 608 51 565 152 L347 677 L314 677 L103 163 C68 73 43 44 -5 34 L-13 33 L-13 0 L193 0 L193 33 L185 33 C149 33 121 56 121 85 C121 109 123 116 152 186 L167 223 L404 223 L445 125 C463 80 464 77 464 65 C464 43 444 33 395 33 L388 33 L388 0 L673 0 Z M391 257 L180 257 L285 513 L391 257 Z M298 728 L324 728 L558 859 L558 863 L398 863 L298 728 Z " />
<glyph glyph-name="Acircumflex" unicode="&#xc2;" horiz-adv-x="659" d="M673 0 L673 33 L667 34 C616 41 608 51 565 152 L347 677 L314 677 L103 163 C68 73 43 44 -5 34 L-13 33 L-13 0 L193 0 L193 33 L185 33 C149 33 121 56 121 85 C121 109 123 116 152 186 L167 223 L404 223 L445 125 C463 80 464 77 464 65 C464 43 444 33 395 33 L388 33 L388 0 L673 0 Z M391 257 L180 257 L285 513 L391 257 Z M273 868 L157 727 L182 727 L319 810 L485 727 L510 727 L394 868 L273 868 Z " />
<glyph glyph-name="Atilde" unicode="&#xc3;" horiz-adv-x="659" d="M673 0 L673 33 L667 34 C616 41 608 51 565 152 L347 677 L314 677 L103 163 C68 73 43 44 -5 34 L-13 33 L-13 0 L193 0 L193 33 L185 33 C149 33 121 56 121 85 C121 109 123 116 152 186 L167 223 L404 223 L445 125 C463 80 464 77 464 65 C464 43 444 33 395 33 L388 33 L388 0 L673 0 Z M391 257 L180 257 L285 513 L391 257 Z M185 726 C185 730 186 736 189 745 C197 770 209 781 231 781 C245 781 264 775 290 763 C352 733 374 726 403 726 C462 726 498 774 498 851 L474 851 C470 817 453 794 431 794 C417 794 395 801 370 812 C318 837 277 850 254 850 C203 850 161 799 161 736 C161 735 161 730 162 726 L185 726 Z " />
<glyph glyph-name="Adieresis" unicode="&#xc4;" horiz-adv-x="659" d="M673 0 L673 33 L667 34 C616 41 608 51 565 152 L347 677 L314 677 L103 163 C68 73 43 44 -5 34 L-13 33 L-13 0 L193 0 L193 33 L185 33 C149 33 121 56 121 85 C121 109 123 116 152 186 L167 223 L404 223 L445 125 C463 80 464 77 464 65 C464 43 444 33 395 33 L388 33 L388 0 L673 0 Z M391 257 L180 257 L285 513 L391 257 Z M203 844 C170 844 144 818 144 785 C144 753 171 726 202 726 C236 726 262 752 262 785 C262 818 236 844 203 844 L203 844 Z M456 844 C424 844 397 818 397 786 C397 752 423 726 456 726 C488 726 515 753 515 785 C515 818 489 844 456 844 L456 844 Z " />
<glyph glyph-name="Aring" unicode="&#xc5;" horiz-adv-x="659" d="M103 163 C68 73 44 44 -5 34 L-13 33 L-13 0 L193 0 L193 33 L185 33 C149 33 121 56 121 85 C121 109 123 116 152 186 L167 223 L404 223 L445 125 C463 80 464 77 464 65 C464 43 444 33 395 33 L388 33 L388 0 L673 0 L673 33 L667 34 C616 41 608 51 565 152 L347 675 C396 684 431 726 431 775 C431 831 386 876 330 876 C274 876 229 831 229 775 C229 725 264 684 314 675 L103 163 Z M391 257 L180 257 L285 512 L391 257 Z M330 844 C368 844 399 813 399 775 C399 737 368 706 330 706 C291 706 261 737 261 776 C261 813 293 844 330 844 L330 844 Z " />
<glyph glyph-name="AE" unicode="&#xc6;" horiz-adv-x="900" d="M394 323 L394 161 C393 52 382 34 311 34 L297 34 L297 0 L867 0 L873 208 L841 208 C830 158 811 117 785 83 C759 48 726 36 654 35 L620 35 C530 35 516 52 517 165 L517 323 L592 323 C657 320 665 313 671 241 L672 228 L706 228 L706 455 L672 455 L672 448 C668 373 652 356 587 358 L517 358 L517 632 L646 632 C729 635 762 605 791 499 L825 499 L810 667 L243 667 L243 634 L262 634 C316 634 331 629 331 610 C331 599 325 586 303 540 L117 171 C70 80 31 40 -17 34 L-17 0 L192 0 L192 34 L188 34 C148 35 121 53 121 78 C121 93 130 119 145 149 L234 323 L394 323 Z M394 358 L252 358 L394 640 L394 358 Z " />
<glyph glyph-name="Ccedilla" unicode="&#xc7;" horiz-adv-x="731" d="M663 13 L663 253 L631 253 C623 207 609 167 586 128 C550 67 479 28 403 28 C329 28 263 66 227 131 C199 179 186 243 186 327 C186 530 261 641 398 641 C466 641 535 608 570 559 C598 521 616 476 628 413 L660 413 L654 664 L621 664 C617 635 610 612 597 587 C545 645 465 679 379 679 C292 679 216 651 158 599 C87 535 45 433 45 326 C45 134 170 -1 357 -12 C350 -54 345 -79 338 -109 C378 -111 402 -130 402 -159 C402 -189 376 -209 338 -209 C315 -209 296 -206 269 -198 C265 -213 264 -215 261 -228 C291 -238 316 -242 344 -242 C425 -242 481 -203 481 -148 C481 -99 445 -67 382 -60 C386 -33 387 -25 389 -12 C474 -9 549 24 600 82 C616 61 624 42 631 13 L663 13 Z " />
<glyph glyph-name="Egrave" unicode="&#xc8;" horiz-adv-x="641" d="M577 211 C543 81 490 33 385 35 L346 35 C261 33 249 51 248 173 L248 333 L318 333 C391 334 405 319 408 243 L408 235 L442 235 L442 463 L408 463 L407 445 C406 384 390 370 316 369 L248 369 L248 632 L351 632 C462 636 497 609 525 499 L558 499 L545 667 L38 667 L38 634 L48 634 C115 633 125 618 126 512 L126 161 C125 52 114 34 42 34 L29 34 L29 0 L600 0 L611 211 L577 211 Z M403 728 L429 728 L329 863 L169 863 L169 859 L403 728 Z " />
<glyph glyph-name="Eacute" unicode="&#xc9;" horiz-adv-x="641" d="M577 211 C543 81 490 33 385 35 L346 35 C261 33 249 51 248 173 L248 333 L318 333 C391 334 405 319 408 243 L408 235 L442 235 L442 463 L408 463 L407 445 C406 384 390 370 316 369 L248 369 L248 632 L351 632 C462 636 497 609 525 499 L558 499 L545 667 L38 667 L38 634 L48 634 C115 633 125 618 126 512 L126 161 C125 52 114 34 42 34 L29 34 L29 0 L600 0 L611 211 L577 211 Z M273 728 L300 728 L533 859 L533 863 L374 863 L273 728 Z " />
<glyph glyph-name="Ecircumflex" unicode="&#xca;" horiz-adv-x="641" d="M577 211 C543 81 490 33 385 35 L346 35 C261 33 249 51 248 173 L248 333 L318 333 C391 334 405 319 408 243 L408 235 L442 235 L442 463 L408 463 L407 445 C406 384 390 370 316 369 L248 369 L248 632 L351 632 C462 636 497 609 525 499 L558 499 L545 667 L38 667 L38 634 L48 634 C115 633 125 618 126 512 L126 161 C125 52 114 34 42 34 L29 34 L29 0 L600 0 L611 211 L577 211 Z M267 868 L151 727 L177 727 L314 810 L479 727 L505 727 L388 868 L267 868 Z " />
<glyph glyph-name="Edieresis" unicode="&#xcb;" horiz-adv-x="641" d="M577 211 C543 81 490 33 385 35 L346 35 C261 33 249 51 248 173 L248 333 L318 333 C391 334 405 319 408 243 L408 235 L442 235 L442 463 L408 463 L407 445 C406 384 390 370 316 369 L248 369 L248 632 L351 632 C462 636 497 609 525 499 L558 499 L545 667 L38 667 L38 634 L48 634 C115 633 125 618 126 512 L126 161 C125 52 114 34 42 34 L29 34 L29 0 L600 0 L611 211 L577 211 Z M200 844 C167 844 141 818 141 785 C141 753 168 726 199 726 C233 726 259 752 259 785 C259 818 233 844 200 844 L200 844 Z M453 844 C421 844 394 818 394 786 C394 752 420 726 453 726 C485 726 512 753 512 785 C512 818 486 844 453 844 L453 844 Z " />
<glyph glyph-name="Igrave" unicode="&#xcc;" horiz-adv-x="379" d="M29 634 L41 634 C117 634 127 620 128 511 L128 161 C127 52 116 34 45 33 L29 33 L29 0 L350 0 L350 33 L334 33 C262 34 251 52 250 161 L250 511 C251 620 261 634 337 634 L350 634 L350 667 L29 667 L29 634 Z M270 728 L297 728 L196 863 L37 863 L37 859 L270 728 Z " />
<glyph glyph-name="Iacute" unicode="&#xcd;" horiz-adv-x="379" d="M29 634 L41 634 C117 634 127 620 128 511 L128 161 C127 52 116 34 45 33 L29 33 L29 0 L350 0 L350 33 L334 33 C262 34 251 52 250 161 L250 511 C251 620 261 634 337 634 L350 634 L350 667 L29 667 L29 634 Z M160 728 L186 728 L420 859 L420 863 L260 863 L160 728 Z " />
<glyph glyph-name="Icircumflex" unicode="&#xce;" horiz-adv-x="379" d="M29 634 L41 634 C117 634 127 620 128 511 L128 161 C127 52 116 34 45 33 L29 33 L29 0 L350 0 L350 33 L334 33 C262 34 251 52 250 161 L250 511 C251 620 261 634 337 634 L350 634 L350 667 L29 667 L29 634 Z M137 868 L21 727 L46 727 L184 810 L349 727 L375 727 L258 868 L137 868 Z " />
<glyph glyph-name="Idieresis" unicode="&#xcf;" horiz-adv-x="379" d="M29 634 L41 634 C117 634 127 620 128 511 L128 161 C127 52 116 34 45 33 L29 33 L29 0 L350 0 L350 33 L334 33 C262 34 251 52 250 161 L250 511 C251 620 261 634 337 634 L350 634 L350 667 L29 667 L29 634 Z M80 844 C48 844 21 817 21 785 C21 753 48 726 79 726 C113 726 139 752 139 785 C139 818 113 844 80 844 L80 844 Z M298 844 C266 844 239 818 239 786 C239 753 265 726 298 726 C331 726 357 752 357 785 C357 818 331 844 298 844 L298 844 Z " />
<glyph glyph-name="Eth" unicode="&#xd0;" horiz-adv-x="781" d="M135 351 L28 351 L28 311 L135 311 L135 161 C134 52 123 34 52 33 L31 33 L31 0 L308 0 C436 0 478 4 530 21 C659 64 736 178 736 327 C736 453 680 558 583 612 C506 655 414 673 271 673 C222 673 194 672 134 669 C79 666 61 665 33 664 L33 630 L48 630 C124 631 135 616 135 507 L135 351 Z M257 351 L257 637 C279 638 298 639 319 639 C391 639 431 630 472 607 C555 558 598 462 598 321 C598 232 578 160 541 110 C500 56 446 35 352 35 C302 35 277 45 266 70 C259 86 257 111 257 186 L257 311 L415 311 L415 351 L257 351 Z " />
<glyph glyph-name="Ntilde" unicode="&#xd1;" horiz-adv-x="771" d="M655 -14 L655 525 C652 596 675 623 745 633 L753 634 L753 667 L511 667 L511 634 L522 634 C595 627 619 601 618 530 L618 184 L232 667 L26 667 L26 634 L32 634 C108 634 120 617 124 504 L124 155 C124 98 123 87 116 75 C105 53 67 36 27 34 L22 33 L22 0 L271 0 L271 33 L262 33 C223 33 186 50 171 75 C163 90 162 93 161 155 L161 565 L620 -14 L655 -14 Z M253 726 C253 730 254 736 257 745 C265 770 277 781 299 781 C313 781 332 775 358 763 C420 733 442 726 471 726 C526 726 566 774 566 841 L566 851 L542 851 C538 817 521 794 499 794 C485 794 462 801 438 812 C386 837 345 850 322 850 C271 850 229 799 229 736 L229 726 L253 726 Z " />
<glyph glyph-name="Ograve" unicode="&#xd2;" horiz-adv-x="822" d="M417 679 C195 679 45 539 45 333 C45 129 195 -13 411 -13 C629 -13 778 128 778 334 C778 535 627 679 417 679 L417 679 Z M411 641 C488 641 556 604 589 543 C618 491 634 416 634 329 C634 130 558 25 414 25 C334 25 265 62 232 122 C204 173 189 247 189 338 C189 534 267 641 411 641 L411 641 Z M467 728 L493 728 L393 863 L233 863 L233 859 L467 728 Z " />
<glyph glyph-name="Oacute" unicode="&#xd3;" horiz-adv-x="822" d="M417 679 C195 679 45 539 45 333 C45 129 195 -13 411 -13 C629 -13 778 128 778 334 C778 535 627 679 417 679 L417 679 Z M411 641 C488 641 556 604 589 543 C618 491 634 416 634 329 C634 130 558 25 414 25 C334 25 265 62 232 122 C204 173 189 247 189 338 C189 534 267 641 411 641 L411 641 Z M367 728 L393 728 L627 859 L627 863 L467 863 L367 728 Z " />
<glyph glyph-name="Ocircumflex" unicode="&#xd4;" horiz-adv-x="822" d="M417 679 C195 679 45 539 45 333 C45 129 195 -13 411 -13 C629 -13 778 128 778 334 C778 535 627 679 417 679 L417 679 Z M411 641 C488 641 556 604 589 543 C618 491 634 416 634 329 C634 130 558 25 414 25 C334 25 265 62 232 122 C204 173 189 247 189 338 C189 534 267 641 411 641 L411 641 Z M356 868 L240 727 L266 727 L403 810 L568 727 L594 727 L478 868 L356 868 Z " />
<glyph glyph-name="Otilde" unicode="&#xd5;" horiz-adv-x="822" d="M417 679 C195 679 45 539 45 333 C45 129 195 -13 411 -13 C629 -13 778 128 778 334 C778 535 627 679 417 679 L417 679 Z M411 641 C488 641 556 604 589 543 C618 491 634 416 634 329 C634 130 558 25 414 25 C334 25 265 62 232 122 C204 173 189 247 189 338 C189 534 267 641 411 641 L411 641 Z M273 726 C273 730 274 736 277 745 C285 770 297 781 319 781 C333 781 352 775 378 763 C440 733 462 726 491 726 C546 726 586 774 586 841 L586 851 L562 851 C558 817 541 794 519 794 C505 794 482 801 458 812 C406 837 365 850 342 850 C291 850 249 799 249 736 L249 726 L273 726 Z " />
<glyph glyph-name="Odieresis" unicode="&#xd6;" horiz-adv-x="822" d="M417 679 C195 679 45 539 45 333 C45 129 195 -13 411 -13 C629 -13 778 128 778 334 C778 535 627 679 417 679 L417 679 Z M411 641 C488 641 556 604 589 543 C618 491 634 416 634 329 C634 130 558 25 414 25 C334 25 265 62 232 122 C204 173 189 247 189 338 C189 534 267 641 411 641 L411 641 Z M285 844 C252 844 226 818 226 785 C226 753 253 726 284 726 C318 726 344 752 344 785 C344 818 318 844 285 844 L285 844 Z M538 844 C506 844 479 818 479 786 C479 752 505 726 538 726 C570 726 597 753 597 785 C597 818 571 844 538 844 L538 844 Z " />
<glyph glyph-name="multiply" unicode="&#xd7;" horiz-adv-x="500" d="M97 545 L55 504 L209 351 L54 197 L96 155 L251 310 L404 156 L445 197 L291 350 L446 504 L403 546 L249 391 L97 545 Z " />
<glyph glyph-name="Oslash" unicode="&#xd8;" horiz-adv-x="824" d="M665 594 L719 656 L693 679 L637 615 C569 658 496 679 409 679 C197 679 46 536 46 335 C46 227 87 134 165 68 L114 8 L139 -14 L192 48 C261 6 329 -13 414 -13 C629 -13 779 129 779 333 C779 439 740 529 665 594 L665 594 Z M601 521 C624 469 635 404 635 326 C635 198 605 114 542 65 C507 38 467 25 417 25 C341 25 290 49 243 106 L601 521 Z M225 137 C203 188 190 257 190 329 C190 437 216 533 257 577 C295 618 351 641 411 641 C486 641 547 610 584 553 L225 137 Z " />
<glyph glyph-name="Ugrave" unicode="&#xd9;" horiz-adv-x="775" d="M525 667 L525 634 L530 633 C604 628 626 601 625 512 L625 286 C625 197 623 175 611 145 C584 78 507 33 421 33 C340 33 279 69 256 131 C245 158 241 202 241 283 L241 511 C241 620 252 634 327 634 L340 634 L340 667 L19 667 L19 634 L31 634 C107 634 117 620 118 511 L118 289 L118 225 C119 169 128 133 149 98 C189 29 281 -13 389 -13 C499 -13 591 30 629 101 C650 139 662 191 662 245 L662 531 C663 597 684 623 748 633 L756 634 L756 667 L525 667 Z M462 728 L488 728 L388 863 L228 863 L228 859 L462 728 Z " />
<glyph glyph-name="Uacute" unicode="&#xda;" horiz-adv-x="775" d="M525 667 L525 634 L530 633 C604 628 626 601 625 512 L625 286 C625 197 623 175 611 145 C584 78 507 33 421 33 C340 33 279 69 256 131 C245 158 241 202 241 283 L241 511 C241 620 252 634 327 634 L340 634 L340 667 L19 667 L19 634 L31 634 C107 634 117 620 118 511 L118 289 L118 225 C119 169 128 133 149 98 C189 29 281 -13 389 -13 C499 -13 591 30 629 101 C650 139 662 191 662 245 L662 531 C663 597 684 623 748 633 L756 634 L756 667 L525 667 Z M357 728 L384 728 L617 859 L617 863 L458 863 L357 728 Z " />
<glyph glyph-name="Ucircumflex" unicode="&#xdb;" horiz-adv-x="775" d="M525 667 L525 634 L530 633 C604 628 626 601 625 512 L625 286 C625 197 623 175 611 145 C584 78 507 33 421 33 C340 33 279 69 256 131 C245 158 241 202 241 283 L241 511 C241 620 252 634 327 634 L340 634 L340 667 L19 667 L19 634 L31 634 C107 634 117 620 118 511 L118 289 L118 225 C119 169 128 133 149 98 C189 29 281 -13 389 -13 C499 -13 591 30 629 101 C650 139 662 191 662 245 L662 531 C663 597 684 623 748 633 L756 634 L756 667 L525 667 Z M347 868 L231 727 L256 727 L394 810 L559 727 L585 727 L468 868 L347 868 Z " />
<glyph glyph-name="Udieresis" unicode="&#xdc;" horiz-adv-x="775" d="M525 667 L525 634 L530 633 C604 628 626 601 625 512 L625 286 C625 197 623 175 611 145 C584 78 507 33 421 33 C340 33 279 69 256 131 C245 158 241 202 241 283 L241 511 C241 620 252 634 327 634 L340 634 L340 667 L19 667 L19 634 L31 634 C107 634 117 620 118 511 L118 289 L118 225 C119 169 128 133 149 98 C189 29 281 -13 389 -13 C499 -13 591 30 629 101 C650 139 662 191 662 245 L662 531 C663 597 684 623 748 633 L756 634 L756 667 L525 667 Z M286 844 C253 844 227 818 227 785 C227 753 254 726 285 726 C319 726 345 752 345 785 C345 818 319 844 286 844 L286 844 Z M539 844 C507 844 480 818 480 786 C480 752 506 726 539 726 C571 726 598 753 598 785 C598 818 572 844 539 844 L539 844 Z " />
<glyph glyph-name="Yacute" unicode="&#xdd;" horiz-adv-x="659" d="M-13 667 L-13 634 L-7 634 C42 629 53 619 107 527 L268 262 L268 161 C267 52 256 34 185 33 L174 33 L174 0 L483 0 L483 33 L473 33 C402 34 391 52 390 161 L390 270 L537 512 C588 599 616 625 665 633 L671 634 L671 667 L450 667 L450 634 L455 634 C498 634 524 614 524 582 C524 566 517 548 496 514 L376 312 L234 548 C215 579 210 590 210 601 C210 623 231 634 273 634 L279 634 L279 667 L-13 667 Z M320 728 L347 728 L580 859 L580 863 L421 863 L320 728 Z " />
<glyph glyph-name="Thorn" unicode="&#xde;" horiz-adv-x="614" d="M355 667 L29 667 L29 634 L42 634 C118 634 128 620 129 511 L129 161 C128 52 117 34 46 33 L30 33 L30 0 L355 0 L355 33 L335 33 C264 35 251 52 251 140 L251 151 L317 151 L328 151 C392 151 434 156 474 169 C543 191 588 256 588 334 C588 399 557 452 503 481 C451 508 400 517 289 517 C286 517 266 517 251 516 C251 616 263 632 335 634 L355 634 L355 667 Z M251 188 L251 480 C262 481 270 482 283 482 C342 482 368 478 394 463 C433 441 455 393 455 333 C455 273 433 227 396 207 C369 192 346 188 294 188 L251 188 Z " />
<glyph glyph-name="germandbls" unicode="&#xdf;" horiz-adv-x="558" d="M83 131 C83 45 77 34 23 33 L15 33 L15 0 L238 0 L238 33 L235 33 C188 35 184 43 184 128 L184 449 C184 546 184 553 193 582 C204 622 238 645 286 645 C353 645 387 600 387 511 C387 424 354 389 268 386 L268 354 L273 354 L287 354 L288 354 C337 354 375 329 394 286 C406 259 412 203 412 127 C412 59 397 26 367 26 C353 26 344 33 333 49 C320 69 313 75 301 75 C287 75 276 64 276 49 C276 17 311 -6 361 -6 C455 -6 522 70 522 179 C522 281 463 350 357 372 C444 395 493 449 493 521 C493 614 412 677 291 677 C229 677 182 661 146 629 C99 587 83 535 83 423 L83 131 Z " />
<glyph glyph-name="agrave" unicode="&#xe0;" horiz-adv-x="503" d="M470 79 C465 53 452 38 434 38 C411 38 404 54 404 111 L404 282 C404 336 399 354 377 376 C349 405 305 419 241 419 C187 419 146 410 109 391 C76 373 54 346 54 321 C54 300 71 285 94 285 C121 285 137 301 143 332 C147 352 151 363 158 369 C169 379 195 386 219 386 C255 386 283 374 295 353 C302 340 304 326 304 294 L304 268 L246 245 C196 224 133 193 103 174 C58 145 39 117 39 78 C39 27 83 -10 144 -10 C193 -10 247 11 307 54 C321 11 351 -10 398 -10 C456 -10 493 24 496 79 L470 79 Z M304 234 L304 90 C263 56 228 38 200 38 C168 38 144 65 144 100 C144 151 181 184 280 224 L304 234 Z M334 490 L240 655 L112 655 L112 651 L309 490 L334 490 Z " />
<glyph glyph-name="aacute" unicode="&#xe1;" horiz-adv-x="503" d="M470 79 C465 53 452 38 434 38 C411 38 404 54 404 111 L404 282 C404 336 399 354 377 376 C349 405 305 419 241 419 C187 419 146 410 109 391 C76 373 54 346 54 321 C54 300 71 285 94 285 C121 285 137 301 143 332 C147 352 151 363 158 369 C169 379 195 386 219 386 C255 386 283 374 295 353 C302 340 304 326 304 294 L304 268 L246 245 C196 224 133 193 103 174 C58 145 39 117 39 78 C39 27 83 -10 144 -10 C193 -10 247 11 307 54 C321 11 351 -10 398 -10 C456 -10 493 24 496 79 L470 79 Z M304 234 L304 90 C263 56 228 38 200 38 C168 38 144 65 144 100 C144 151 181 184 280 224 L304 234 Z M212 490 L237 490 L433 651 L433 655 L306 655 L212 490 Z " />
<glyph glyph-name="acircumflex" unicode="&#xe2;" horiz-adv-x="503" d="M470 79 C465 53 452 38 434 38 C411 38 404 54 404 111 L404 282 C404 336 399 354 377 376 C349 405 305 419 241 419 C187 419 146 410 109 391 C76 373 54 346 54 321 C54 300 71 285 94 285 C121 285 137 301 143 332 C147 352 151 363 158 369 C169 379 195 386 219 386 C255 386 283 374 295 353 C302 340 304 326 304 294 L304 268 L246 245 C196 224 133 193 103 174 C58 145 39 117 39 78 C39 27 83 -10 144 -10 C193 -10 247 11 307 54 C321 11 351 -10 398 -10 C456 -10 493 24 496 79 L470 79 Z M304 234 L304 90 C263 56 228 38 200 38 C168 38 144 65 144 100 C144 151 181 184 280 224 L304 234 Z M356 492 L384 492 L295 656 L217 656 L128 492 L155 492 L249 586 L356 492 Z " />
<glyph glyph-name="atilde" unicode="&#xe3;" horiz-adv-x="503" d="M470 79 C465 53 452 38 434 38 C411 38 404 54 404 111 L404 282 C404 336 399 354 377 376 C349 405 305 419 241 419 C187 419 146 410 109 391 C76 373 54 346 54 321 C54 300 71 285 94 285 C121 285 137 301 143 332 C147 352 151 363 158 369 C169 379 195 386 219 386 C255 386 283 374 295 353 C302 340 304 326 304 294 L304 268 L246 245 C196 224 133 193 103 174 C58 145 39 117 39 78 C39 27 83 -10 144 -10 C193 -10 247 11 307 54 C321 11 351 -10 398 -10 C456 -10 493 24 496 79 L470 79 Z M304 234 L304 90 C263 56 228 38 200 38 C168 38 144 65 144 100 C144 151 181 184 280 224 L304 234 Z M123 513 C127 551 143 571 170 571 C185 571 201 564 232 543 C264 522 287 513 311 513 C371 513 406 559 406 637 L383 637 C381 598 364 577 335 577 C321 577 307 582 284 598 C245 624 221 634 195 634 C136 634 101 589 101 513 L123 513 Z " />
<glyph glyph-name="adieresis" unicode="&#xe4;" horiz-adv-x="503" d="M470 79 C465 53 452 38 434 38 C411 38 404 54 404 111 L404 282 C404 336 399 354 377 376 C349 405 305 419 241 419 C187 419 146 410 109 391 C76 373 54 346 54 321 C54 300 71 285 94 285 C121 285 137 301 143 332 C147 352 151 363 158 369 C169 379 195 386 219 386 C255 386 283 374 295 353 C302 340 304 326 304 294 L304 268 L246 245 C196 224 133 193 103 174 C58 145 39 117 39 78 C39 27 83 -10 144 -10 C193 -10 247 11 307 54 C321 11 351 -10 398 -10 C456 -10 493 24 496 79 L470 79 Z M304 234 L304 90 C263 56 228 38 200 38 C168 38 144 65 144 100 C144 151 181 184 280 224 L304 234 Z M150 627 C122 627 100 605 100 577 C100 550 123 527 149 527 C178 527 200 549 200 577 C200 605 178 627 150 627 L150 627 Z M340 627 C312 627 290 605 290 577 C290 550 312 527 339 527 C367 527 390 549 390 577 C390 605 368 627 340 627 L340 627 Z " />
<glyph glyph-name="aring" unicode="&#xe5;" horiz-adv-x="503" d="M470 79 C465 53 452 38 434 38 C411 38 404 54 404 111 L404 282 C404 336 399 354 377 376 C349 405 305 419 241 419 C187 419 146 410 109 391 C76 373 54 346 54 321 C54 300 71 285 94 285 C121 285 137 301 143 332 C147 352 151 363 158 369 C169 379 195 386 219 386 C255 386 283 374 295 353 C302 340 304 326 304 294 L304 268 L246 245 C196 224 133 193 103 174 C58 145 39 117 39 78 C39 27 83 -10 144 -10 C193 -10 247 11 307 54 C321 11 351 -10 398 -10 C456 -10 493 24 496 79 L470 79 Z M304 234 L304 90 C263 56 228 38 200 38 C168 38 144 65 144 100 C144 151 181 184 280 224 L304 234 Z M250 667 C197 667 154 624 154 571 C154 519 197 475 249 475 C303 475 346 517 346 571 C346 624 303 667 250 667 L250 667 Z M250 636 C286 636 315 607 315 571 C315 535 286 506 250 506 C214 506 185 535 185 572 C185 607 215 636 250 636 L250 636 Z " />
<glyph glyph-name="ae" unicode="&#xe6;" horiz-adv-x="682" d="M607 95 C582 51 540 25 493 25 C415 25 377 91 377 225 L377 246 L646 246 C634 353 564 419 464 419 C419 419 383 406 352 378 C330 391 318 398 314 400 C291 412 253 419 217 419 C124 419 45 375 45 324 C45 304 62 289 86 289 C111 289 129 307 136 339 C139 356 141 360 146 366 C156 378 177 386 202 386 C232 386 255 375 265 357 C274 341 276 327 276 289 L276 266 C108 210 37 155 37 82 C37 29 85 -14 144 -14 C195 -14 248 16 296 72 C333 16 391 -14 463 -14 C543 -14 605 20 635 81 L607 95 Z M377 276 C382 345 413 386 461 386 C491 386 516 369 530 340 C536 326 539 308 541 276 L377 276 Z M276 98 C251 62 221 41 195 41 C162 41 137 70 137 109 C137 162 176 197 276 234 L276 98 Z " />
<glyph glyph-name="ccedilla" unicode="&#xe7;" horiz-adv-x="453" d="M398 107 C379 52 338 23 278 23 C232 23 195 42 177 76 C158 110 147 161 147 217 C147 330 186 386 265 386 C300 386 316 375 322 345 C331 304 344 290 372 290 C396 290 414 309 414 334 C414 382 350 419 268 419 C136 419 36 322 36 195 C36 78 116 -6 235 -15 C230 -50 226 -72 221 -98 C252 -100 269 -117 269 -143 C269 -170 250 -188 221 -188 C204 -188 190 -185 169 -178 C167 -191 166 -193 163 -206 C186 -214 204 -218 225 -218 C286 -218 328 -183 328 -133 C328 -89 301 -60 254 -54 L258 -24 C259 -21 259 -20 259 -16 C348 -12 407 29 429 100 L398 107 Z " />
<glyph glyph-name="egrave" unicode="&#xe8;" horiz-adv-x="464" d="M393 95 C367 48 325 22 273 22 C192 22 148 89 148 210 C148 222 148 230 150 246 L429 246 C429 346 352 419 245 419 C125 419 37 326 37 200 C37 76 127 -16 250 -16 C328 -16 397 25 424 86 L393 95 Z M151 276 C156 316 161 333 174 352 C188 372 215 386 242 386 C290 386 321 350 321 292 C321 285 321 283 320 276 L151 276 Z M328 490 L233 655 L105 655 L105 651 L302 490 L328 490 Z " />
<glyph glyph-name="eacute" unicode="&#xe9;" horiz-adv-x="464" d="M393 95 C367 48 325 22 273 22 C192 22 148 89 148 210 C148 222 148 230 150 246 L429 246 C429 346 352 419 245 419 C125 419 37 326 37 200 C37 76 127 -16 250 -16 C328 -16 397 25 424 86 L393 95 Z M151 276 C156 316 161 333 174 352 C188 372 215 386 242 386 C290 386 321 350 321 292 C321 285 321 283 320 276 L151 276 Z M220 490 L246 490 L441 651 L441 655 L315 655 L220 490 Z " />
<glyph glyph-name="ecircumflex" unicode="&#xea;" horiz-adv-x="464" d="M393 95 C367 48 325 22 273 22 C192 22 148 89 148 210 C148 222 148 230 150 246 L429 246 C429 346 352 419 245 419 C125 419 37 326 37 200 C37 76 127 -16 250 -16 C328 -16 397 25 424 86 L393 95 Z M151 276 C156 316 161 333 174 352 C188 372 215 386 242 386 C290 386 321 350 321 292 C321 285 321 283 320 276 L151 276 Z M358 492 L386 492 L296 656 L219 656 L130 492 L156 492 L251 586 L358 492 Z " />
<glyph glyph-name="edieresis" unicode="&#xeb;" horiz-adv-x="464" d="M393 95 C367 48 325 22 273 22 C192 22 148 89 148 210 C148 222 148 230 150 246 L429 246 C429 346 352 419 245 419 C125 419 37 326 37 200 C37 76 127 -16 250 -16 C328 -16 397 25 424 86 L393 95 Z M151 276 C156 316 161 333 174 352 C188 372 215 386 242 386 C290 386 321 350 321 292 C321 285 321 283 320 276 L151 276 Z M154 627 C126 627 104 605 104 577 C104 550 127 527 153 527 C182 527 204 549 204 577 C204 605 182 627 154 627 L154 627 Z M344 627 C316 627 294 605 294 577 C294 550 316 527 343 527 C371 527 394 549 394 577 C394 605 372 627 344 627 L344 627 Z " />
<glyph glyph-name="igrave" unicode="&#xec;" horiz-adv-x="277" d="M192 419 L183 419 C149 409 53 392 16 389 L16 357 L29 357 C82 357 91 342 92 262 L92 131 C90 45 84 34 31 33 L16 33 L16 0 L261 0 L261 33 L253 33 C201 34 194 45 192 131 L192 419 Z M218 490 L124 655 L-4 655 L-4 651 L193 490 L218 490 Z " />
<glyph glyph-name="iacute" unicode="&#xed;" horiz-adv-x="277" d="M192 419 L183 419 C149 409 53 392 16 389 L16 357 L29 357 C82 357 91 342 92 262 L92 131 C90 45 84 34 31 33 L16 33 L16 0 L261 0 L261 33 L252 33 C201 34 194 45 192 131 L192 419 Z M101 490 L126 490 L321 651 L321 655 L195 655 L101 490 Z " />
<glyph glyph-name="icircumflex" unicode="&#xee;" horiz-adv-x="277" d="M192 419 L183 419 C149 409 53 392 16 389 L16 357 L29 357 C82 357 91 342 92 262 L92 131 C90 45 84 34 31 33 L16 33 L16 0 L261 0 L261 33 L252 33 C201 34 194 45 192 131 L192 419 Z M245 492 L273 492 L183 656 L106 656 L17 492 L43 492 L137 586 L245 492 Z " />
<glyph glyph-name="idieresis" unicode="&#xef;" horiz-adv-x="277" d="M192 419 L183 419 C149 409 53 392 16 389 L16 357 L29 357 C82 357 91 342 92 262 L92 131 C90 45 84 34 31 33 L16 33 L16 0 L261 0 L261 33 L253 33 C201 34 194 45 192 131 L192 419 Z M62 627 C34 627 12 605 12 577 C12 550 35 527 61 527 C90 527 112 549 112 577 C112 605 90 627 62 627 L62 627 Z M225 627 C197 627 175 605 175 577 C175 550 197 527 224 527 C252 527 275 549 275 577 C275 605 253 627 225 627 L225 627 Z " />
<glyph glyph-name="eth" unicode="&#xf0;" horiz-adv-x="524" d="M140 629 C185 600 192 596 231 563 L110 500 L124 471 L256 540 C302 494 339 437 355 387 C326 413 302 421 259 421 C132 421 37 328 37 203 C37 77 131 -13 262 -13 C399 -13 488 82 488 227 C488 358 436 473 329 578 L426 629 L411 657 L303 601 C245 646 240 649 185 679 L140 629 Z M264 387 C302 387 335 368 354 333 C369 306 376 269 376 213 C376 147 369 107 353 77 C333 39 302 20 261 20 C186 20 148 80 148 201 C148 327 186 387 264 387 L264 387 Z " />
<glyph glyph-name="ntilde" unicode="&#xf1;" horiz-adv-x="560" d="M27 356 L31 356 C83 354 90 344 92 259 L92 131 C91 45 84 34 31 33 L26 33 L26 0 L253 0 L253 33 L248 33 C197 35 192 44 192 131 L192 293 C229 345 266 370 308 370 C351 370 378 341 378 295 L378 131 C378 44 373 36 323 33 L315 33 L315 0 L544 0 L544 33 L538 33 C486 35 481 42 479 131 L479 262 C479 320 476 338 462 363 C442 397 399 419 351 419 C289 419 226 387 193 339 L193 348 C193 373 189 392 180 415 L176 415 C146 405 90 395 27 388 L27 356 Z M155 513 C160 551 176 571 202 571 C217 571 233 564 265 543 C297 522 319 513 343 513 C403 513 438 559 438 637 L415 637 C414 598 397 577 368 577 C353 577 340 582 316 598 C277 624 253 634 227 634 C169 634 133 589 133 513 L155 513 Z " />
<glyph glyph-name="ograve" unicode="&#xf2;" horiz-adv-x="524" d="M262 419 C132 419 37 327 37 200 C37 75 133 -16 266 -16 C391 -16 487 78 487 201 C487 327 392 419 262 419 L262 419 Z M262 385 C341 385 376 329 376 204 C376 72 342 17 262 17 C182 17 148 73 148 201 C148 330 182 385 262 385 L262 385 Z M338 490 L244 655 L116 655 L116 651 L313 490 L338 490 Z " />
<glyph glyph-name="oacute" unicode="&#xf3;" horiz-adv-x="524" d="M262 419 C132 419 37 327 37 200 C37 75 133 -16 266 -16 C391 -16 487 78 487 201 C487 327 392 419 262 419 L262 419 Z M262 385 C341 385 376 329 376 204 C376 72 342 17 262 17 C182 17 148 73 148 201 C148 330 182 385 262 385 L262 385 Z M233 490 L258 490 L453 651 L453 655 L327 655 L233 490 Z " />
<glyph glyph-name="ocircumflex" unicode="&#xf4;" horiz-adv-x="524" d="M262 419 C132 419 37 327 37 200 C37 75 133 -16 266 -16 C391 -16 487 78 487 201 C487 327 392 419 262 419 L262 419 Z M262 385 C341 385 376 329 376 204 C376 72 342 17 262 17 C182 17 148 73 148 201 C148 330 182 385 262 385 L262 385 Z M371 492 L399 492 L309 656 L232 656 L143 492 L169 492 L263 586 L371 492 Z " />
<glyph glyph-name="otilde" unicode="&#xf5;" horiz-adv-x="524" d="M262 419 C132 419 37 327 37 200 C37 75 133 -16 266 -16 C391 -16 487 78 487 201 C487 327 392 419 262 419 L262 419 Z M262 385 C341 385 376 329 376 204 C376 72 342 17 262 17 C182 17 148 73 148 201 C148 330 182 385 262 385 L262 385 Z M133 513 C137 551 153 571 180 571 C195 571 211 564 243 543 C274 522 297 513 321 513 C381 513 416 559 416 637 L393 637 C391 598 375 577 345 577 C331 577 318 582 294 598 C255 624 231 634 205 634 C146 634 111 589 111 513 L133 513 Z " />
<glyph glyph-name="odieresis" unicode="&#xf6;" horiz-adv-x="524" d="M262 419 C132 419 37 327 37 200 C37 75 133 -16 266 -16 C391 -16 487 78 487 201 C487 327 392 419 262 419 L262 419 Z M262 385 C341 385 376 329 376 204 C376 72 342 17 262 17 C182 17 148 73 148 201 C148 330 182 385 262 385 L262 385 Z M167 627 C139 627 117 605 117 577 C117 550 140 527 166 527 C195 527 217 549 217 577 C217 605 195 627 167 627 L167 627 Z M357 627 C329 627 307 605 307 577 C307 550 329 527 356 527 C384 527 407 549 407 577 C407 605 385 627 357 627 L357 627 Z " />
<glyph glyph-name="divide" unicode="&#xf7;" horiz-adv-x="500" d="M16 379 L16 321 L484 321 L484 379 L16 379 Z M251 233 C215 233 186 204 186 168 C186 133 215 103 250 103 C287 103 316 132 316 168 C316 204 287 233 251 233 L251 233 Z M251 590 C216 590 186 561 186 526 C186 489 215 460 251 460 C287 460 316 489 316 525 C316 561 287 590 251 590 L251 590 Z " />
<glyph glyph-name="oslash" unicode="&#xf8;" horiz-adv-x="524" d="M101 43 L54 -11 L77 -32 L126 24 C164 -1 215 -16 262 -16 C392 -16 487 76 487 202 C487 268 465 320 418 362 L464 416 L440 436 L393 381 C350 408 311 419 261 419 C132 419 37 326 37 201 C37 137 59 85 101 44 L101 43 Z M157 108 C150 138 148 163 148 201 C148 329 182 385 262 385 C303 385 334 368 353 335 L157 108 Z M366 302 C374 267 376 243 376 203 C376 74 342 17 264 17 C220 17 188 36 169 74 L366 302 Z " />
<glyph glyph-name="ugrave" unicode="&#xf9;" horiz-adv-x="548" d="M465 403 L296 403 L296 370 L304 370 C358 369 365 358 365 272 L365 159 C365 150 361 126 357 115 C341 69 294 34 248 34 C225 34 202 46 191 65 C185 76 182 94 182 129 L182 403 L18 403 L18 370 L23 370 C75 369 82 358 82 272 L82 129 C82 85 86 63 98 41 C118 7 163 -16 212 -16 C271 -16 325 14 365 70 C365 32 369 0 376 -16 L382 -16 C409 -7 475 1 528 0 L528 33 L525 33 C474 34 466 47 465 132 L465 403 Z M366 490 L272 655 L143 655 L143 651 L341 490 L366 490 Z " />
<glyph glyph-name="uacute" unicode="&#xfa;" horiz-adv-x="548" d="M465 403 L296 403 L296 370 L304 370 C358 369 365 358 365 272 L365 159 C365 150 361 126 357 115 C341 69 294 34 248 34 C225 34 202 46 191 65 C185 76 182 94 182 129 L182 403 L18 403 L18 370 L23 370 C75 369 82 358 82 272 L82 129 C82 85 86 63 98 41 C118 7 163 -16 212 -16 C271 -16 325 14 365 70 C365 32 369 0 376 -16 L382 -16 C409 -7 475 1 528 0 L528 33 L525 33 C474 34 466 47 465 132 L465 403 Z M240 490 L265 490 L460 651 L460 655 L334 655 L240 490 Z " />
<glyph glyph-name="ucircumflex" unicode="&#xfb;" horiz-adv-x="548" d="M465 403 L296 403 L296 370 L304 370 C358 369 365 358 365 272 L365 159 C365 150 361 126 357 115 C341 69 294 34 248 34 C225 34 202 46 191 65 C185 76 182 94 182 129 L182 403 L18 403 L18 370 L23 370 C75 369 82 358 82 272 L82 129 C82 85 86 63 98 41 C118 7 163 -16 212 -16 C271 -16 325 14 365 70 C365 32 369 0 376 -16 L382 -16 C409 -7 475 1 528 0 L528 33 L525 33 C474 34 466 47 465 132 L465 403 Z M382 492 L409 492 L320 656 L243 656 L154 492 L180 492 L274 586 L382 492 Z " />
<glyph glyph-name="udieresis" unicode="&#xfc;" horiz-adv-x="548" d="M465 403 L296 403 L296 370 L304 370 C358 369 365 358 365 272 L365 159 C365 150 361 126 357 115 C341 69 294 34 248 34 C225 34 202 46 191 65 C185 76 182 94 182 129 L182 403 L18 403 L18 370 L23 370 C75 369 82 358 82 272 L82 129 C82 85 86 63 98 41 C118 7 163 -16 212 -16 C271 -16 325 14 365 70 C365 32 369 0 376 -16 L382 -16 C409 -7 475 1 528 0 L528 33 L525 33 C474 34 466 47 465 132 L465 403 Z M182 627 C154 627 132 605 132 577 C132 550 155 527 181 527 C210 527 232 549 232 577 C232 605 210 627 182 627 L182 627 Z M372 627 C344 627 322 605 322 577 C322 550 344 527 371 527 C399 527 422 549 422 577 C422 605 400 627 372 627 L372 627 Z " />
<glyph glyph-name="yacute" unicode="&#xfd;" horiz-adv-x="483" d="M-5 403 L-5 371 L3 370 C34 369 42 361 71 304 L230 -12 L201 -85 C186 -121 174 -130 123 -148 C84 -162 67 -180 67 -207 C67 -231 86 -249 113 -249 C152 -249 180 -219 216 -134 L392 271 C424 347 438 364 476 370 L481 371 L481 403 L334 403 L334 371 L343 371 C371 370 384 362 384 346 C384 340 382 331 377 322 C371 308 365 295 364 293 L281 98 L178 306 C165 334 164 338 164 346 C164 360 177 369 200 370 L206 371 L206 403 L-5 403 Z M211 490 L236 490 L432 651 L432 655 L305 655 L211 490 Z " />
<glyph glyph-name="thorn" unicode="&#xfe;" horiz-adv-x="554" d="M5 615 L16 615 C69 613 74 605 77 517 L77 -113 C76 -198 69 -210 16 -212 L5 -212 L5 -244 L247 -244 L247 -212 L238 -212 C185 -210 179 -201 177 -113 L177 43 C223 1 262 -16 314 -16 C432 -16 517 77 517 206 C517 329 436 419 325 419 C269 419 219 396 176 351 L176 677 L165 677 C123 666 81 658 31 652 C16 650 10 649 5 648 L5 615 Z M177 308 C211 354 247 375 288 375 C363 375 406 313 406 205 C406 153 398 114 382 85 C362 49 324 26 284 26 C246 26 209 46 177 84 L177 308 Z " />
<glyph glyph-name="ydieresis" unicode="&#xff;" horiz-adv-x="483" d="M-5 403 L-5 371 L3 370 C34 369 42 361 71 304 L230 -12 L201 -85 C186 -121 174 -130 123 -148 C84 -162 67 -180 67 -207 C67 -231 86 -249 113 -249 C152 -249 180 -219 216 -134 L392 271 C424 347 438 364 476 370 L481 371 L481 403 L334 403 L334 371 L343 371 C371 370 384 362 384 346 C384 340 382 331 377 322 C371 308 365 295 364 293 L281 98 L178 306 C165 334 164 338 164 346 C164 360 177 369 200 370 L206 371 L206 403 L-5 403 Z M162 627 C134 627 112 605 112 577 C112 550 135 527 161 527 C190 527 212 549 212 577 C212 605 190 627 162 627 L162 627 Z M352 627 C324 627 302 605 302 577 C302 550 324 527 351 527 C379 527 402 549 402 577 C402 605 380 627 352 627 L352 627 Z " />
<glyph glyph-name="Amacron" unicode="&#x100;" horiz-adv-x="659" d="M673 0 L673 33 L667 34 C616 41 608 51 565 152 L347 677 L314 677 L103 163 C68 73 43 44 -5 34 L-13 33 L-13 0 L193 0 L193 33 L185 33 C149 33 121 56 121 85 C121 109 123 116 152 186 L167 223 L404 223 L445 125 C463 80 464 77 464 65 C464 43 444 33 395 33 L388 33 L388 0 L673 0 Z M391 257 L180 257 L285 513 L391 257 Z M486 801 L165 801 L165 758 L486 758 L486 801 Z " />
<glyph glyph-name="amacron" unicode="&#x101;" horiz-adv-x="503" d="M470 79 C465 53 452 38 434 38 C411 38 404 54 404 111 L404 282 C404 336 399 354 377 376 C349 405 305 419 241 419 C187 419 146 410 109 391 C76 373 54 346 54 321 C54 300 71 285 94 285 C121 285 137 301 143 332 C147 352 151 363 158 369 C169 379 195 386 219 386 C255 386 283 374 295 353 C302 340 304 326 304 294 L304 268 L246 245 C196 224 133 193 103 174 C58 145 39 117 39 78 C39 27 83 -10 144 -10 C193 -10 247 11 307 54 C321 11 351 -10 398 -10 C456 -10 493 24 496 79 L470 79 Z M304 234 L304 90 C263 56 228 38 200 38 C168 38 144 65 144 100 C144 151 181 184 280 224 L304 234 Z M102 547 L389 547 L389 590 L102 590 L102 547 Z " />
<glyph glyph-name="Abreve" unicode="&#x102;" horiz-adv-x="659" d="M673 0 L673 33 L667 34 C616 41 608 51 565 152 L347 677 L314 677 L103 163 C68 73 43 44 -5 34 L-13 33 L-13 0 L193 0 L193 33 L185 33 C149 33 121 56 121 85 C121 109 123 116 152 186 L167 223 L404 223 L445 125 C463 80 464 77 464 65 C464 43 444 33 395 33 L388 33 L388 0 L673 0 Z M391 257 L180 257 L285 513 L391 257 Z M165 871 C187 775 252 715 335 715 C420 715 489 778 507 871 L478 871 C451 826 397 799 334 799 C273 799 229 821 194 871 L165 871 Z " />
<glyph glyph-name="abreve" unicode="&#x103;" horiz-adv-x="503" d="M470 79 C465 53 452 38 434 38 C411 38 404 54 404 111 L404 282 C404 336 399 354 377 376 C349 405 305 419 241 419 C187 419 146 410 109 391 C76 373 54 346 54 321 C54 300 71 285 94 285 C121 285 137 301 143 332 C147 352 151 363 158 369 C169 379 195 386 219 386 C255 386 283 374 295 353 C302 340 304 326 304 294 L304 268 L246 245 C196 224 133 193 103 174 C58 145 39 117 39 78 C39 27 83 -10 144 -10 C193 -10 247 11 307 54 C321 11 351 -10 398 -10 C456 -10 493 24 496 79 L470 79 Z M304 234 L304 90 C263 56 228 38 200 38 C168 38 144 65 144 100 C144 151 181 184 280 224 L304 234 Z M121 649 L121 648 C119 629 129 597 146 564 C169 523 210 499 256 499 C330 499 386 561 392 649 L370 649 C351 598 316 575 258 575 C197 575 158 600 143 649 L121 649 Z " />
<glyph glyph-name="Aogonek" unicode="&#x104;" horiz-adv-x="659" d="M673 0 L673 33 L667 34 C616 41 608 51 565 152 L347 677 L314 677 L103 163 C68 73 43 44 -5 34 L-13 33 L-13 0 L193 0 L193 33 L185 33 C149 33 121 56 121 85 C121 109 123 116 152 186 L167 223 L404 223 L445 125 C463 80 464 77 464 65 C464 43 444 33 395 33 L388 33 L388 0 L565 0 C515 -24 482 -68 482 -111 C482 -162 527 -200 589 -200 C625 -200 653 -190 692 -164 L681 -147 C658 -155 647 -157 631 -157 C590 -157 562 -128 562 -87 C562 -55 574 -30 605 0 L673 0 Z M391 257 L180 257 L285 513 L391 257 Z " />
<glyph glyph-name="aogonek" unicode="&#x105;" horiz-adv-x="503" d="M470 79 C465 53 452 38 434 38 C411 38 404 54 404 111 L404 282 C404 336 399 354 377 376 C349 405 305 419 241 419 C187 419 146 410 109 391 C76 373 54 346 54 321 C54 300 71 285 94 285 C121 285 137 301 143 332 C147 352 151 363 158 369 C169 379 195 386 219 386 C255 386 283 374 295 353 C302 340 304 326 304 294 L304 268 L246 245 C196 224 133 193 103 174 C58 145 39 117 39 78 C39 27 83 -10 144 -10 C193 -10 247 11 307 54 C317 21 339 0 373 -7 C334 -30 309 -70 309 -107 C309 -155 349 -191 402 -191 C434 -191 459 -182 493 -157 L483 -141 C462 -148 452 -150 439 -150 C405 -150 379 -122 379 -85 C379 -58 391 -31 411 -9 C461 -5 494 30 496 79 L470 79 Z M304 234 L304 90 C263 56 228 38 200 38 C168 38 144 65 144 100 C144 151 181 184 280 224 L304 234 Z " />
<glyph glyph-name="Cacute" unicode="&#x106;" horiz-adv-x="731" d="M631 252 C623 207 609 167 586 128 C550 67 479 28 403 28 C329 28 263 66 227 131 C199 179 186 243 186 327 C186 530 261 641 398 641 C466 641 535 608 570 559 C598 521 616 476 628 413 L660 413 L654 664 L621 664 C617 635 610 612 597 587 C545 645 465 679 379 679 C292 679 216 651 158 599 C87 534 45 432 45 325 C45 127 182 -13 375 -13 C467 -13 544 19 600 82 C616 61 624 42 631 13 L663 13 L663 252 L631 252 Z M333 728 L359 728 L593 859 L593 863 L433 863 L333 728 Z " />
<glyph glyph-name="cacute" unicode="&#x107;" horiz-adv-x="453" d="M398 107 C379 52 338 23 278 23 C192 23 147 89 147 217 C147 330 186 386 265 386 C300 386 316 375 322 345 C331 304 344 290 372 290 C396 290 414 309 414 334 C414 382 350 419 268 419 C136 419 36 322 36 195 C36 72 126 -16 252 -16 C342 -16 404 25 429 100 L398 107 Z M212 490 L237 490 L432 651 L432 655 L306 655 L212 490 Z " />
<glyph glyph-name="Ccircumflex" unicode="&#x108;" horiz-adv-x="731" d="M631 252 C623 207 609 167 586 128 C550 67 479 28 403 28 C329 28 263 66 227 131 C199 179 186 243 186 327 C186 530 261 641 398 641 C466 641 535 608 570 559 C598 521 616 476 628 413 L660 413 L654 664 L621 664 C617 635 610 612 597 587 C545 645 465 679 379 679 C292 679 216 651 158 599 C87 534 45 432 45 325 C45 127 182 -13 375 -13 C467 -13 544 19 600 82 C616 61 624 42 631 13 L663 13 L663 252 L631 252 Z M322 868 L206 727 L231 727 L369 810 L534 727 L560 727 L443 868 L322 868 Z " />
<glyph glyph-name="ccircumflex" unicode="&#x109;" horiz-adv-x="453" d="M398 107 C379 52 338 23 278 23 C192 23 147 89 147 217 C147 330 186 386 265 386 C300 386 316 375 322 345 C331 304 344 290 372 290 C396 290 414 309 414 334 C414 382 350 419 268 419 C136 419 36 322 36 195 C36 72 126 -16 252 -16 C342 -16 404 25 429 100 L398 107 Z M359 492 L387 492 L297 656 L220 656 L131 492 L157 492 L251 586 L359 492 Z " />
<glyph glyph-name="Cdotaccent" unicode="&#x10a;" horiz-adv-x="731" d="M631 252 C623 207 609 167 586 128 C550 67 479 28 403 28 C329 28 263 66 227 131 C199 179 186 243 186 327 C186 530 261 641 398 641 C466 641 535 608 570 559 C598 521 616 476 628 413 L660 413 L654 664 L621 664 C617 635 610 612 597 587 C545 645 465 679 379 679 C292 679 216 651 158 599 C87 534 45 432 45 325 C45 127 182 -13 375 -13 C467 -13 544 19 600 82 C616 61 624 42 631 13 L663 13 L663 252 L631 252 Z M388 846 C355 846 329 820 329 787 C329 755 356 728 387 728 C421 728 447 754 447 787 C447 820 421 846 388 846 L388 846 Z " />
<glyph glyph-name="cdotaccent" unicode="&#x10b;" horiz-adv-x="453" d="M398 107 C379 52 338 23 278 23 C192 23 147 89 147 217 C147 330 186 386 265 386 C300 386 316 375 322 345 C331 304 344 290 372 290 C396 290 414 309 414 334 C414 382 350 419 268 419 C136 419 36 322 36 195 C36 72 126 -16 252 -16 C342 -16 404 25 429 100 L398 107 Z M266 627 C238 627 216 605 216 577 C216 550 239 527 265 527 C294 527 316 549 316 577 C316 605 294 627 266 627 L266 627 Z " />
<glyph glyph-name="Ccaron" unicode="&#x10c;" horiz-adv-x="731" d="M631 252 C623 207 609 167 586 128 C550 67 479 28 403 28 C329 28 263 66 227 131 C199 179 186 243 186 327 C186 530 261 641 398 641 C466 641 535 608 570 559 C598 521 616 476 628 413 L660 413 L654 664 L621 664 C617 635 610 612 597 587 C545 645 465 679 379 679 C292 679 216 651 158 599 C87 534 45 432 45 325 C45 127 182 -13 375 -13 C467 -13 544 19 600 82 C616 61 624 42 631 13 L663 13 L663 252 L631 252 Z M444 727 L561 868 L536 868 L398 785 L233 868 L207 868 L323 727 L444 727 Z " />
<glyph glyph-name="ccaron" unicode="&#x10d;" horiz-adv-x="453" d="M398 107 C379 52 338 23 278 23 C192 23 147 89 147 217 C147 330 186 386 265 386 C300 386 316 375 322 345 C331 304 344 290 372 290 C396 290 414 309 414 334 C414 382 350 419 268 419 C136 419 36 322 36 195 C36 72 126 -16 252 -16 C342 -16 404 25 429 100 L398 107 Z M159 656 L132 656 L224 492 L301 492 L388 656 L360 656 L269 562 L159 656 Z " />
<glyph glyph-name="Dcaron" unicode="&#x10e;" horiz-adv-x="779" d="M31 630 L46 630 C122 631 133 616 133 508 L133 161 C132 52 121 34 50 33 L29 33 L29 0 L305 0 C433 0 475 4 527 21 C657 64 733 178 733 327 C733 453 677 558 580 612 C503 655 411 673 269 673 C219 673 192 672 131 669 C77 666 59 665 31 664 L31 630 Z M255 637 C277 638 295 639 317 639 C388 639 428 630 469 607 C552 558 595 462 595 322 C595 233 575 160 538 110 C497 56 443 35 350 35 C300 35 275 45 264 70 C257 86 255 111 255 187 L255 637 Z M414 727 L532 868 L506 868 L369 785 L204 868 L178 868 L293 727 L414 727 Z " />
<glyph glyph-name="dcaron" unicode="&#x10f;" horiz-adv-x="653" d="M545 35 L538 35 C486 36 478 48 478 134 L478 677 L467 678 C445 670 353 654 310 651 L310 619 L317 619 C370 617 376 607 378 520 L378 362 C341 398 287 419 234 419 C120 419 37 326 37 197 C37 77 118 -14 227 -14 C282 -14 332 9 381 56 C381 27 383 9 389 -14 C427 -6 482 0 545 1 L545 35 Z M378 98 C348 54 306 30 261 30 C189 30 148 94 148 207 C148 316 188 374 263 374 C302 374 338 358 378 323 L378 98 Z M532 447 C605 460 650 510 650 579 C650 637 619 677 574 677 C540 677 516 653 516 620 C516 590 537 568 565 568 C570 568 574 568 585 571 C590 572 591 572 593 572 C603 572 610 562 610 549 C610 516 580 489 532 478 L532 447 Z " />
<glyph glyph-name="Dcroat" unicode="&#x110;" horiz-adv-x="781" d="M135 351 L28 351 L28 311 L135 311 L135 161 C134 52 123 34 52 33 L31 33 L31 0 L308 0 C436 0 478 4 530 21 C659 64 736 178 736 327 C736 453 680 558 583 612 C506 655 414 673 271 673 C222 673 194 672 134 669 C79 666 61 665 33 664 L33 630 L48 630 C124 631 135 616 135 507 L135 351 Z M257 351 L257 637 C279 638 298 639 319 639 C391 639 431 630 472 607 C555 558 598 462 598 321 C598 232 578 160 541 110 C500 56 446 35 352 35 C302 35 277 45 266 70 C259 86 257 111 257 186 L257 311 L415 311 L415 351 L257 351 Z " />
<glyph glyph-name="dcroat" unicode="&#x111;" horiz-adv-x="556" d="M378 507 L378 362 C340 398 287 419 234 419 C120 419 37 326 37 197 C37 76 118 -14 227 -14 C282 -14 332 9 381 56 C381 27 383 9 389 -14 C427 -6 482 0 545 1 L545 35 L538 35 C486 36 478 48 478 134 L478 507 L545 507 L545 550 L478 550 L478 677 L467 678 C446 670 352 654 310 651 L310 619 L317 619 C364 617 372 609 377 555 L377 550 L191 550 L191 507 L378 507 Z M378 98 C348 54 306 30 261 30 C189 30 148 94 148 207 C148 316 188 374 263 374 C302 374 338 358 378 323 L378 98 Z " />
<glyph glyph-name="Emacron" unicode="&#x112;" horiz-adv-x="641" d="M577 211 C543 81 490 33 385 35 L346 35 C261 33 249 51 248 173 L248 333 L318 333 C391 334 405 319 408 243 L408 235 L442 235 L442 463 L408 463 L407 445 C406 384 390 370 316 369 L248 369 L248 632 L351 632 C462 636 497 609 525 499 L558 499 L545 667 L38 667 L38 634 L48 634 C115 633 125 618 126 512 L126 161 C125 52 114 34 42 34 L29 34 L29 0 L600 0 L611 211 L577 211 Z M481 801 L159 801 L159 758 L481 758 L481 801 Z " />
<glyph glyph-name="emacron" unicode="&#x113;" horiz-adv-x="464" d="M393 95 C367 48 325 22 273 22 C192 22 148 89 148 210 C148 222 148 230 150 246 L429 246 C429 346 352 419 245 419 C125 419 37 326 37 200 C37 76 127 -16 250 -16 C328 -16 397 25 424 86 L393 95 Z M151 276 C156 316 161 333 174 352 C188 372 215 386 242 386 C290 386 321 350 321 292 C321 285 321 283 320 276 L151 276 Z M95 547 L383 547 L383 590 L95 590 L95 547 Z " />
<glyph glyph-name="Ebreve" unicode="&#x114;" horiz-adv-x="641" d="M577 211 C543 81 490 33 385 35 L346 35 C261 33 249 51 248 173 L248 333 L318 333 C391 334 405 319 408 243 L408 235 L442 235 L442 463 L408 463 L407 445 C406 384 390 370 316 369 L248 369 L248 632 L351 632 C462 636 497 609 525 499 L558 499 L545 667 L38 667 L38 634 L48 634 C115 633 125 618 126 512 L126 161 C125 52 114 34 42 34 L29 34 L29 0 L600 0 L611 211 L577 211 Z M161 871 C183 775 249 715 332 715 C416 715 486 778 504 871 L474 871 C448 826 394 799 331 799 C270 799 226 821 191 871 L161 871 Z " />
<glyph glyph-name="ebreve" unicode="&#x115;" horiz-adv-x="464" d="M393 95 C367 48 325 22 273 22 C192 22 148 89 148 210 C148 222 148 230 150 246 L429 246 C429 346 352 419 245 419 C125 419 37 326 37 200 C37 76 127 -16 250 -16 C328 -16 397 25 424 86 L393 95 Z M151 276 C156 316 161 333 174 352 C188 372 215 386 242 386 C290 386 321 350 321 292 C321 285 321 283 320 276 L151 276 Z M115 649 C116 627 123 601 134 577 C157 527 199 499 250 499 C324 499 379 561 385 649 L363 649 C345 598 310 575 252 575 C190 575 152 600 137 649 L115 649 Z " />
<glyph glyph-name="Edotaccent" unicode="&#x116;" horiz-adv-x="641" d="M577 211 C543 81 490 33 385 35 L346 35 C261 33 249 51 248 173 L248 333 L318 333 C391 334 405 319 408 243 L408 235 L442 235 L442 463 L408 463 L407 445 C406 384 390 370 316 369 L248 369 L248 632 L351 632 C462 636 497 609 525 499 L558 499 L545 667 L38 667 L38 634 L48 634 C115 633 125 618 126 512 L126 161 C125 52 114 34 42 34 L29 34 L29 0 L600 0 L611 211 L577 211 Z M324 846 C291 846 265 820 265 787 C265 755 292 728 323 728 C357 728 383 754 383 787 C383 820 357 846 324 846 L324 846 Z " />
<glyph glyph-name="edotaccent" unicode="&#x117;" horiz-adv-x="464" d="M393 95 C367 48 325 22 273 22 C192 22 148 89 148 210 C148 222 148 230 150 246 L429 246 C429 346 352 419 245 419 C125 419 37 326 37 200 C37 76 127 -16 250 -16 C328 -16 397 25 424 86 L393 95 Z M151 276 C156 316 161 333 174 352 C188 372 215 386 242 386 C290 386 321 350 321 292 C321 285 321 283 320 276 L151 276 Z M258 627 C230 627 208 605 208 577 C208 550 231 527 257 527 C286 527 308 549 308 577 C308 605 286 627 258 627 L258 627 Z " />
<glyph glyph-name="Eogonek" unicode="&#x118;" horiz-adv-x="641" d="M600 0 L611 211 L577 211 C543 81 490 33 385 35 L346 35 C261 33 249 51 248 173 L248 333 L318 333 C391 334 405 319 408 243 L408 235 L442 235 L442 463 L408 463 L407 445 C406 384 390 370 316 369 L248 369 L248 632 L351 632 C462 636 497 609 525 499 L558 499 L545 667 L38 667 L38 634 L48 634 C115 633 125 618 126 512 L126 161 C125 52 114 34 42 34 L29 34 L29 0 L462 0 C411 -25 378 -69 378 -111 C378 -162 424 -200 485 -200 C521 -200 551 -190 589 -164 L578 -147 C555 -155 543 -157 527 -157 C487 -157 458 -128 458 -87 C458 -55 471 -30 502 0 L600 0 Z " />
<glyph glyph-name="eogonek" unicode="&#x119;" horiz-adv-x="464" d="M393 95 C367 48 325 22 273 22 C192 22 148 89 148 210 C148 222 148 230 150 246 L429 246 C429 346 352 419 245 419 C125 419 37 326 37 200 C37 76 127 -16 250 -16 C258 -16 262 -16 270 -15 C238 -39 218 -74 218 -107 C218 -155 258 -191 311 -191 C343 -191 368 -182 402 -157 L392 -141 C371 -148 362 -150 348 -150 C313 -150 288 -122 288 -83 C288 -53 300 -29 329 -1 C373 16 409 49 424 86 L393 95 Z M151 276 C156 316 161 333 174 352 C188 372 215 386 242 386 C290 386 321 350 321 292 C321 285 321 283 320 276 L151 276 Z " />
<glyph glyph-name="Ecaron" unicode="&#x11a;" horiz-adv-x="641" d="M577 211 C543 81 490 33 385 35 L346 35 C261 33 249 51 248 173 L248 333 L318 333 C391 334 405 319 408 243 L408 235 L442 235 L442 463 L408 463 L407 445 C406 384 390 370 316 369 L248 369 L248 632 L351 632 C462 636 497 609 525 499 L558 499 L545 667 L38 667 L38 634 L48 634 C115 633 125 618 126 512 L126 161 C125 52 114 34 42 34 L29 34 L29 0 L600 0 L611 211 L577 211 Z M393 727 L510 868 L485 868 L347 785 L182 868 L157 868 L272 727 L393 727 Z " />
<glyph glyph-name="ecaron" unicode="&#x11b;" horiz-adv-x="464" d="M393 95 C367 48 325 22 273 22 C192 22 148 89 148 210 C148 222 148 230 150 246 L429 246 C429 346 352 419 245 419 C125 419 37 326 37 200 C37 76 127 -16 250 -16 C328 -16 397 25 424 86 L393 95 Z M151 276 C156 316 161 333 174 352 C188 372 215 386 242 386 C290 386 321 350 321 292 C321 285 321 283 320 276 L151 276 Z M154 656 L128 656 L219 492 L297 492 L384 656 L356 656 L265 562 L154 656 Z " />
<glyph glyph-name="Gcircumflex" unicode="&#x11c;" horiz-adv-x="776" d="M459 292 L459 258 L472 258 C533 258 548 243 551 181 L551 156 C551 124 547 104 536 88 C512 48 460 24 399 24 C325 24 261 59 228 118 C201 165 187 236 187 328 C187 422 200 490 228 542 C260 601 328 639 403 639 C517 639 600 562 623 434 L657 434 L655 661 L622 661 C619 632 613 611 601 588 C542 650 471 679 383 679 C297 679 220 650 161 596 C88 528 45 427 45 323 C45 129 187 -13 381 -13 C433 -13 470 -6 539 16 C582 30 624 38 654 38 C658 38 664 38 674 36 L674 130 C673 240 681 254 747 258 L755 258 L755 292 L459 292 Z M339 868 L223 727 L248 727 L385 810 L551 727 L576 727 L460 868 L339 868 Z " />
<glyph glyph-name="gcircumflex" unicode="&#x11d;" horiz-adv-x="494" d="M245 46 C245 46 230 46 217 47 C203 48 192 48 187 48 C138 49 114 59 114 79 C114 105 145 118 214 120 C263 122 288 126 319 139 C376 163 410 213 410 272 C410 301 402 326 386 351 C399 366 410 372 421 372 C429 372 434 369 444 356 C453 343 461 338 472 338 C489 338 502 352 502 372 C502 398 482 416 453 416 C425 416 400 402 368 370 C334 402 286 419 230 419 C123 419 47 358 47 274 C47 214 87 159 148 134 C85 121 54 92 54 47 C54 -14 106 -40 237 -43 C309 -44 346 -50 369 -63 C390 -76 401 -96 401 -120 C401 -181 340 -217 240 -217 C147 -217 89 -183 89 -127 C89 -108 96 -89 112 -70 C100 -66 94 -65 86 -65 C53 -65 29 -92 29 -129 C29 -202 109 -248 237 -248 C380 -248 464 -190 464 -92 C464 -45 440 0 403 18 C372 35 315 46 265 46 L245 46 Z M227 386 C280 386 309 346 309 275 C309 195 282 154 229 154 C177 154 148 195 148 268 C148 344 176 386 227 386 L227 386 Z M337 492 L364 492 L275 656 L197 656 L108 492 L135 492 L229 586 L337 492 Z " />
<glyph glyph-name="Gbreve" unicode="&#x11e;" horiz-adv-x="776" d="M459 292 L459 258 L472 258 C533 258 548 243 551 181 L551 156 C551 124 547 104 536 88 C512 48 460 24 399 24 C325 24 261 59 228 118 C201 165 187 236 187 328 C187 422 200 490 228 542 C260 601 328 639 403 639 C517 639 600 562 623 434 L657 434 L655 661 L622 661 C619 632 613 611 601 588 C542 650 471 679 383 679 C297 679 220 650 161 596 C88 528 45 427 45 323 C45 129 187 -13 381 -13 C433 -13 470 -6 539 16 C582 30 624 38 654 38 C658 38 664 38 674 36 L674 130 C673 240 681 254 747 258 L755 258 L755 292 L459 292 Z M222 871 C244 775 310 715 393 715 C477 715 547 778 565 871 L535 871 C509 826 455 799 392 799 C330 799 287 821 252 871 L222 871 Z " />
<glyph glyph-name="gbreve" unicode="&#x11f;" horiz-adv-x="494" d="M245 46 C245 46 230 46 217 47 C203 48 192 48 187 48 C138 49 114 59 114 79 C114 105 145 118 214 120 C263 122 288 126 319 139 C376 163 410 213 410 272 C410 301 402 326 386 351 C399 366 410 372 421 372 C429 372 434 369 444 356 C453 343 461 338 472 338 C489 338 502 352 502 372 C502 398 482 416 453 416 C425 416 400 402 368 370 C334 402 286 419 230 419 C123 419 47 358 47 274 C47 214 87 159 148 134 C85 121 54 92 54 47 C54 -14 106 -40 237 -43 C309 -44 346 -50 369 -63 C390 -76 401 -96 401 -120 C401 -181 340 -217 240 -217 C147 -217 89 -183 89 -127 C89 -108 96 -89 112 -70 C100 -66 94 -65 86 -65 C53 -65 29 -92 29 -129 C29 -202 109 -248 237 -248 C380 -248 464 -190 464 -92 C464 -45 440 0 403 18 C372 35 315 46 265 46 L245 46 Z M227 386 C280 386 309 346 309 275 C309 195 282 154 229 154 C177 154 148 195 148 268 C148 344 176 386 227 386 L227 386 Z M108 649 C115 560 170 499 243 499 C317 499 372 561 378 649 L356 649 C338 598 302 575 245 575 C183 575 145 600 130 649 L108 649 Z " />
<glyph glyph-name="Gdotaccent" unicode="&#x120;" horiz-adv-x="776" d="M459 292 L459 258 L472 258 C533 258 548 243 551 181 L551 156 C551 124 547 104 536 88 C512 48 460 24 399 24 C325 24 261 59 228 118 C201 165 187 236 187 328 C187 422 200 490 228 542 C260 601 328 639 403 639 C517 639 600 562 623 434 L657 434 L655 661 L622 661 C619 632 613 611 601 588 C542 650 471 679 383 679 C297 679 220 650 161 596 C88 528 45 427 45 323 C45 129 187 -13 381 -13 C433 -13 470 -6 539 16 C582 30 624 38 654 38 C658 38 664 38 674 36 L674 130 C673 240 681 254 747 258 L755 258 L755 292 L459 292 Z M394 846 C361 846 335 820 335 787 C335 755 362 728 393 728 C427 728 453 754 453 787 C453 820 427 846 394 846 L394 846 Z " />
<glyph glyph-name="gdotaccent" unicode="&#x121;" horiz-adv-x="494" d="M245 46 C245 46 230 46 217 47 C203 48 192 48 187 48 C138 49 114 59 114 79 C114 105 145 118 214 120 C263 122 288 126 319 139 C376 163 410 213 410 272 C410 301 402 326 386 351 C399 366 410 372 421 372 C429 372 434 369 444 356 C453 343 461 338 472 338 C489 338 502 352 502 372 C502 398 482 416 453 416 C425 416 400 402 368 370 C334 402 286 419 230 419 C123 419 47 358 47 274 C47 214 87 159 148 134 C85 121 54 92 54 47 C54 -14 106 -40 237 -43 C309 -44 346 -50 369 -63 C390 -76 401 -96 401 -120 C401 -181 340 -217 240 -217 C147 -217 89 -183 89 -127 C89 -108 96 -89 112 -70 C100 -66 94 -65 86 -65 C53 -65 29 -92 29 -129 C29 -202 109 -248 237 -248 C380 -248 464 -190 464 -92 C464 -45 440 0 403 18 C372 35 315 46 265 46 L245 46 Z M227 386 C280 386 309 346 309 275 C309 195 282 154 229 154 C177 154 148 195 148 268 C148 344 176 386 227 386 L227 386 Z M242 627 C214 627 192 605 192 577 C192 550 215 527 241 527 C270 527 292 549 292 577 C292 605 270 627 242 627 L242 627 Z " />
<glyph glyph-name="Gcommaaccent" unicode="&#x122;" horiz-adv-x="776" d="M459 292 L459 258 L472 258 C533 258 548 243 551 181 L551 156 C551 124 547 104 536 88 C512 48 460 24 399 24 C325 24 261 59 228 118 C201 165 187 236 187 328 C187 422 200 490 228 542 C260 601 328 639 403 639 C517 639 600 562 623 434 L657 434 L655 661 L622 661 C619 632 613 611 601 588 C542 650 471 679 383 679 C297 679 220 650 161 596 C88 528 45 427 45 323 C45 129 187 -13 381 -13 C433 -13 470 -6 539 16 C582 30 624 38 654 38 C658 38 664 38 674 36 L674 130 C673 240 681 254 747 258 L755 258 L755 292 L459 292 Z M340 -304 C418 -291 466 -237 466 -164 C466 -102 433 -59 385 -59 C349 -59 323 -85 323 -121 C323 -152 346 -176 375 -176 C382 -176 384 -176 396 -173 C400 -171 403 -171 405 -171 C415 -171 423 -181 423 -196 C423 -231 390 -260 340 -271 L340 -304 Z " />
<glyph glyph-name="gcommaaccent" unicode="&#x123;" horiz-adv-x="494" d="M245 46 C245 46 230 46 217 47 C203 48 192 48 187 48 C138 49 114 59 114 79 C114 105 145 118 214 120 C263 122 288 126 319 139 C376 163 410 213 410 272 C410 301 402 326 386 351 C399 366 410 372 421 372 C429 372 434 369 444 356 C453 343 461 338 472 338 C489 338 502 352 502 372 C502 398 482 416 453 416 C425 416 400 402 368 370 C334 402 286 419 230 419 C123 419 47 358 47 274 C47 214 87 159 148 134 C85 121 54 92 54 47 C54 -14 106 -40 237 -43 C309 -44 346 -50 369 -63 C390 -76 401 -96 401 -120 C401 -181 340 -217 240 -217 C147 -217 89 -183 89 -127 C89 -108 96 -89 112 -70 C100 -66 94 -65 86 -65 C53 -65 29 -92 29 -129 C29 -202 109 -248 237 -248 C380 -248 464 -190 464 -92 C464 -45 440 0 403 18 C372 35 315 46 265 46 L245 46 Z M227 386 C280 386 309 346 309 275 C309 195 282 154 229 154 C177 154 148 195 148 268 C148 344 176 386 227 386 L227 386 Z M288 692 C214 679 169 629 169 560 C169 502 200 462 245 462 C279 462 303 486 303 519 C303 549 282 571 254 571 C249 571 245 571 234 568 C229 567 228 567 226 567 C216 567 209 577 209 590 C209 623 240 650 288 661 L288 692 Z " />
<glyph glyph-name="Hcircumflex" unicode="&#x124;" horiz-adv-x="819" d="M570 373 L249 373 L249 511 C250 619 260 634 335 634 L345 634 L345 667 L29 667 L29 634 L40 634 C115 634 125 620 126 511 L126 161 C126 54 113 34 43 33 L29 33 L29 0 L345 0 L345 33 L332 33 C262 33 249 54 249 161 L249 330 L570 330 L570 161 C570 54 557 33 487 33 L474 33 L474 0 L790 0 L790 33 L776 33 C706 34 693 54 693 161 L693 511 C694 620 704 634 779 634 L790 634 L790 667 L474 667 L474 634 L484 634 C559 634 569 619 570 511 L570 373 Z M357 868 L241 727 L266 727 L403 810 L568 727 L594 727 L478 868 L357 868 Z " />
<glyph glyph-name="hcircumflex" unicode="&#x125;" horiz-adv-x="453" d="M211 740 L239 740 L149 904 L72 904 L-17 740 L9 740 L103 834 L211 740 Z M24 618 L30 618 C80 616 91 601 90 534 L90 131 C88 42 83 35 30 33 L22 33 L22 0 L249 0 L249 33 L246 33 C195 36 190 44 190 131 L190 291 C219 343 257 371 301 371 C320 371 338 365 352 354 C368 340 375 313 375 264 L375 131 C375 44 370 36 320 33 L312 33 L312 0 L542 0 L542 33 L535 33 C483 34 478 43 476 131 L476 251 C476 309 472 336 459 360 C439 396 392 419 340 419 C280 419 231 393 190 340 L190 677 L181 677 C160 669 67 653 24 650 L24 618 Z " />
<glyph glyph-name="Hbar" unicode="&#x126;" horiz-adv-x="819" d="M570 480 L249 480 L249 511 C250 619 260 634 335 634 L345 634 L345 667 L29 667 L29 634 L40 634 C115 634 125 620 126 511 L126 480 L29 480 L29 437 L126 437 L126 161 C126 54 113 34 43 33 L29 33 L29 0 L345 0 L345 33 L332 33 C262 33 249 54 249 161 L249 330 L570 330 L570 161 C570 54 557 33 487 33 L474 33 L474 0 L790 0 L790 33 L776 33 C706 34 693 54 693 161 L693 437 L790 437 L790 480 L693 480 L693 511 C694 620 704 634 779 634 L790 634 L790 667 L474 667 L474 634 L484 634 C559 634 569 619 570 511 L570 480 Z M570 437 L570 373 L249 373 L249 437 L570 437 Z " />
<glyph glyph-name="hbar" unicode="&#x127;" horiz-adv-x="559" d="M190 550 L190 677 L181 677 C160 669 67 653 24 650 L24 618 L30 618 C76 617 89 602 90 550 L24 550 L24 507 L90 507 L90 131 C88 42 83 35 30 33 L22 33 L22 0 L249 0 L249 33 L246 33 C195 36 190 44 190 131 L190 291 C219 343 257 371 301 371 C320 371 338 365 352 354 C368 340 375 313 375 264 L375 131 C375 44 370 36 320 33 L312 33 L312 0 L542 0 L542 33 L535 33 C483 34 478 43 476 131 L476 251 C476 309 472 336 459 360 C439 395 392 419 340 419 C281 419 231 393 190 340 L190 507 L341 507 L341 550 L190 550 Z " />
<glyph glyph-name="Itilde" unicode="&#x128;" horiz-adv-x="453" d="M24 618 L30 618 C80 616 91 601 90 534 L90 131 C88 42 83 35 30 33 L22 33 L22 0 L249 0 L249 33 L246 33 C195 36 190 44 190 131 L190 291 C219 343 257 371 301 371 C320 371 338 365 352 354 C368 340 375 313 375 264 L375 131 C375 44 370 36 320 33 L312 33 L312 0 L542 0 L542 33 L535 33 C483 34 478 43 476 131 L476 251 C476 309 472 336 459 360 C439 396 392 419 340 419 C280 419 231 393 190 340 L190 677 L181 677 C160 669 67 653 24 650 L24 618 Z M-26 726 C-26 730 -25 736 -22 745 C-15 770 -2 781 20 781 C33 781 52 775 79 763 C141 733 163 726 192 726 C247 726 287 774 287 841 L287 851 L263 851 C259 817 242 794 220 794 C206 794 183 801 159 812 C107 837 66 850 43 850 C-8 850 -50 799 -50 736 L-50 726 L-26 726 Z " />
<glyph glyph-name="itilde" unicode="&#x129;" horiz-adv-x="277" d="M-41 520 C-41 524 -40 531 -37 539 C-30 565 -17 576 5 576 C19 576 38 570 64 557 C125 527 147 520 177 520 C232 520 272 568 272 635 L272 646 L248 646 C244 611 227 588 205 588 C191 588 168 595 144 607 C93 631 51 645 28 645 C-23 645 -65 594 -65 531 L-65 520 L-41 520 Z M191 419 L182 419 C148 409 52 392 15 389 L15 357 L28 357 C81 357 90 342 91 262 L91 131 C89 45 83 34 30 33 L15 33 L15 0 L260 0 L260 33 L252 33 C200 34 193 45 191 131 L191 419 Z " />
<glyph glyph-name="Imacron" unicode="&#x12a;" horiz-adv-x="379" d="M29 634 L41 634 C117 634 127 620 128 511 L128 161 C127 52 116 34 45 33 L29 33 L29 0 L350 0 L350 33 L334 33 C262 34 251 52 250 161 L250 511 C251 620 261 634 337 634 L350 634 L350 667 L29 667 L29 634 Z M351 801 L29 801 L29 758 L351 758 L351 801 Z " />
<glyph glyph-name="imacron" unicode="&#x12b;" horiz-adv-x="277" d="M192 419 L183 419 C149 409 53 392 16 389 L16 357 L29 357 C82 357 91 342 92 262 L92 131 C90 45 84 34 31 33 L16 33 L16 0 L261 0 L261 33 L253 33 C201 34 194 45 192 131 L192 419 Z M-5 547 L255 547 L255 590 L-5 590 L-5 547 Z " />
<glyph glyph-name="Ibreve" unicode="&#x12c;" horiz-adv-x="379" d="M29 634 L41 634 C117 634 127 620 128 511 L128 161 C127 52 116 34 45 33 L29 33 L29 0 L350 0 L350 33 L334 33 C262 34 251 52 250 161 L250 511 C251 620 261 634 337 634 L350 634 L350 667 L29 667 L29 634 Z M24 871 C46 775 112 715 194 715 C279 715 348 778 366 871 L337 871 C311 826 257 799 193 799 C132 799 89 821 54 871 L24 871 Z " />
<glyph glyph-name="ibreve" unicode="&#x12d;" horiz-adv-x="277" d="M191 419 L182 419 C148 409 52 392 15 389 L15 357 L28 357 C81 357 90 342 91 262 L91 131 C89 45 83 34 30 33 L15 33 L15 0 L260 0 L260 33 L252 33 C200 34 193 45 191 131 L191 419 Z M1 649 L1 648 C1 625 11 591 26 564 C50 523 90 499 136 499 C210 499 265 561 271 649 L249 649 C231 598 196 575 138 575 C76 575 38 600 23 649 L1 649 Z " />
<glyph glyph-name="Iogonek" unicode="&#x12e;" horiz-adv-x="379" d="M350 0 L350 33 L334 33 C262 34 251 52 250 161 L250 511 C251 620 261 634 337 634 L350 634 L350 667 L29 667 L29 634 L41 634 C117 634 127 620 128 511 L128 161 C127 52 116 34 45 33 L29 33 L29 0 L224 0 C174 -24 141 -69 141 -111 C141 -162 186 -200 248 -200 C284 -200 313 -190 352 -164 L341 -147 C317 -155 306 -157 290 -157 C249 -157 220 -128 220 -87 C220 -55 233 -29 265 0 L350 0 Z " />
<glyph glyph-name="iogonek" unicode="&#x12f;" horiz-adv-x="277" d="M261 0 L261 33 L252 33 C201 34 194 45 192 131 L192 419 L183 419 C149 409 53 392 16 389 L16 357 L29 357 C82 357 91 342 92 262 L92 131 C90 45 84 34 31 33 L16 33 L16 0 L163 0 C115 -25 86 -65 86 -107 C86 -155 126 -191 179 -191 C210 -191 236 -182 269 -157 L260 -141 C239 -148 229 -150 215 -150 C181 -150 156 -122 156 -84 C156 -52 168 -27 198 0 L261 0 Z M136 678 C102 678 73 649 73 615 C73 578 101 549 136 549 C172 549 200 578 200 614 C200 649 172 678 136 678 L136 678 Z " />
<glyph glyph-name="Idotaccent" unicode="&#x130;" horiz-adv-x="379" d="M29 634 L41 634 C117 634 127 620 128 511 L128 161 C127 52 116 34 45 33 L29 33 L29 0 L350 0 L350 33 L334 33 C262 34 251 52 250 161 L250 511 C251 620 261 634 337 634 L350 634 L350 667 L29 667 L29 634 Z M191 846 C158 846 132 820 132 787 C132 755 159 728 190 728 C224 728 250 754 250 787 C250 820 224 846 191 846 L191 846 Z " />
<glyph glyph-name="dotlessi" unicode="&#x131;" horiz-adv-x="277" d="M192 419 L183 419 C149 409 53 392 16 389 L16 357 L29 357 C82 357 91 342 92 262 L92 131 C90 45 84 34 31 33 L16 33 L16 0 L261 0 L261 33 L252 33 C201 34 194 45 192 131 L192 419 Z " />
<glyph glyph-name="IJ" unicode="&#x132;" horiz-adv-x="735" d="M29 634 L41 634 C117 634 127 620 128 511 L128 161 C127 52 116 34 45 33 L29 33 L29 0 L350 0 L350 33 L334 33 C262 34 251 52 250 161 L250 511 C251 620 261 634 337 634 L350 634 L350 667 L29 667 L29 634 Z M380 667 L380 634 L396 634 C472 634 482 620 483 511 L483 46 C483 -76 478 -110 456 -149 C435 -184 400 -204 357 -204 C326 -204 303 -192 303 -176 C303 -172 305 -166 307 -158 C311 -149 313 -140 313 -133 C313 -104 287 -81 255 -81 C219 -81 192 -107 192 -141 C192 -198 258 -237 355 -237 C430 -237 492 -217 535 -178 C591 -129 606 -78 606 61 L606 511 C607 620 617 634 693 634 L706 634 L706 667 L380 667 Z " />
<glyph glyph-name="ij" unicode="&#x133;" horiz-adv-x="507" d="M136 678 C102 678 73 649 73 615 C73 578 101 549 136 549 C172 549 200 578 200 614 C200 649 172 678 136 678 L136 678 Z M192 419 L183 419 C149 409 53 392 16 389 L16 357 L29 357 C82 357 91 342 92 262 L92 131 C90 45 84 34 31 33 L16 33 L16 0 L261 0 L261 33 L252 33 C201 34 194 45 192 131 L192 419 Z M443 419 L434 419 C398 409 338 398 267 389 L267 356 L280 356 C332 357 342 343 343 262 L343 -54 C343 -134 340 -156 326 -180 C314 -200 291 -214 269 -214 C250 -214 234 -203 226 -185 C213 -151 201 -141 179 -141 C156 -141 138 -159 138 -182 C138 -220 184 -247 248 -247 C327 -247 397 -208 424 -151 C439 -117 443 -87 443 -3 L443 419 Z M384 678 C350 678 321 649 321 615 C321 578 349 549 385 549 C420 549 448 578 448 614 C448 649 420 678 384 678 L384 678 Z " />
<glyph glyph-name="Jcircumflex" unicode="&#x134;" horiz-adv-x="381" d="M33 667 L33 634 L49 634 C125 634 135 620 136 511 L136 46 C136 -76 131 -110 109 -149 C88 -184 53 -204 10 -204 C-21 -204 -44 -192 -44 -176 C-44 -172 -42 -166 -40 -158 C-36 -149 -34 -140 -34 -133 C-34 -104 -60 -81 -92 -81 C-128 -81 -155 -107 -155 -141 C-155 -198 -89 -237 8 -237 C83 -237 145 -217 188 -178 C244 -129 259 -78 259 61 L259 511 C260 620 270 634 346 634 L359 634 L359 667 L33 667 Z M132 868 L16 727 L41 727 L178 810 L344 727 L369 727 L253 868 L132 868 Z " />
<glyph glyph-name="jcircumflex" unicode="&#x135;" horiz-adv-x="267" d="M64 688 L-52 547 L-27 547 L110 630 L276 547 L301 547 L185 688 L64 688 Z M203 419 L194 419 C158 409 98 398 27 389 L27 356 L40 356 C93 357 102 343 103 262 L103 -54 C103 -134 100 -156 86 -180 C74 -200 52 -214 29 -214 C10 -214 -6 -203 -14 -185 C-27 -151 -38 -141 -61 -141 C-84 -141 -102 -159 -102 -182 C-102 -220 -56 -247 8 -247 C87 -247 158 -208 184 -151 C199 -117 203 -87 203 -3 L203 419 Z " />
<glyph glyph-name="Kcommaaccent" unicode="&#x136;" horiz-adv-x="765" d="M253 333 L253 511 C253 620 264 634 339 634 L351 634 L351 667 L35 667 L35 634 L43 634 C119 634 129 620 130 511 L130 161 C129 52 118 34 46 33 L29 33 L29 0 L345 0 L345 33 L336 33 C265 34 254 52 253 161 L253 285 L307 334 L474 145 C527 85 531 79 531 64 C531 43 507 33 453 33 L442 33 L442 0 L801 0 L801 33 L794 34 C734 36 710 53 622 153 L395 413 L495 506 C598 603 639 629 703 634 L710 634 L710 667 L443 667 L443 634 L449 634 C488 633 510 619 510 596 C510 576 492 552 448 511 L253 333 Z M319 -304 C397 -291 445 -237 445 -164 C445 -102 412 -59 364 -59 C328 -59 302 -85 302 -121 C302 -152 325 -176 354 -176 C361 -176 363 -176 375 -173 C379 -171 382 -171 384 -171 C394 -171 402 -181 402 -196 C402 -231 370 -260 319 -271 L319 -304 Z " />
<glyph glyph-name="kcommaaccent" unicode="&#x137;" horiz-adv-x="508" d="M20 618 L25 618 C76 616 87 601 86 532 L86 131 C84 42 79 35 25 33 L14 33 L14 0 L243 0 L243 33 L239 33 C192 35 186 46 186 131 L186 184 L214 205 L305 95 C333 60 333 60 333 53 C333 40 319 33 293 33 L288 33 L288 0 L509 0 L509 33 L504 33 C478 37 462 49 418 102 L288 260 C309 276 312 278 330 293 C399 351 427 367 468 370 L472 370 L472 403 L288 403 L288 370 L295 370 C317 370 328 363 328 350 C328 342 324 334 315 325 C305 314 253 271 227 253 L186 224 L186 677 L177 677 C156 669 63 653 20 650 L20 618 Z M208 -289 C282 -277 327 -227 327 -157 C327 -99 296 -59 251 -59 C217 -59 193 -83 193 -117 C193 -146 214 -169 242 -169 C247 -169 253 -168 262 -166 C267 -164 268 -164 270 -164 C280 -164 287 -174 287 -187 C287 -220 256 -248 208 -258 L208 -289 Z " />
<glyph glyph-name="kgreenlandic" unicode="&#x138;" horiz-adv-x="530" d="M186 210 L186 403 L21 403 L21 370 L27 370 C78 369 85 357 86 272 L86 131 C84 42 79 35 25 33 L14 33 L14 0 L243 0 L243 33 L239 33 C192 35 186 46 186 131 L186 170 L229 200 L324 94 C349 66 353 61 353 53 C353 40 339 33 313 33 L308 33 L308 0 L529 0 L529 33 L524 33 C496 37 482 48 435 101 L301 254 C327 273 331 277 350 293 C420 352 446 367 488 370 L492 370 L492 403 L308 403 L308 370 L315 370 C337 370 348 363 348 350 C348 342 344 334 335 325 C325 314 272 271 247 253 L186 210 Z " />
<glyph glyph-name="Lacute" unicode="&#x139;" horiz-adv-x="627" d="M614 205 L581 205 C547 75 497 32 390 35 L351 35 C261 36 251 48 252 151 L252 511 C253 620 263 634 339 634 L363 634 L363 667 L29 667 L29 634 L42 634 C118 634 129 620 129 511 L129 161 C128 52 117 34 45 33 L29 33 L29 0 L610 0 L614 205 Z M182 728 L209 728 L442 859 L442 863 L283 863 L182 728 Z " />
<glyph glyph-name="lacute" unicode="&#x13a;" horiz-adv-x="274" d="M188 677 L179 677 C157 669 65 653 22 650 L22 618 L27 618 C78 616 89 601 88 532 L88 131 C86 43 80 34 27 33 L17 33 L17 0 L258 0 L258 33 L249 33 C196 34 188 46 188 131 L188 677 Z M99 728 L126 728 L359 859 L359 863 L200 863 L99 728 Z " />
<glyph glyph-name="Lcommaaccent" unicode="&#x13b;" horiz-adv-x="627" d="M614 205 L581 205 C547 75 497 32 390 35 L351 35 C261 36 251 48 252 151 L252 511 C253 620 263 634 339 634 L363 634 L363 667 L29 667 L29 634 L42 634 C118 634 129 620 129 511 L129 161 C128 52 117 34 45 33 L29 33 L29 0 L610 0 L614 205 Z M282 -304 C360 -291 408 -237 408 -164 C408 -102 375 -59 327 -59 C291 -59 265 -85 265 -121 C265 -152 288 -176 317 -176 C324 -176 326 -176 338 -173 C342 -171 345 -171 347 -171 C357 -171 365 -181 365 -196 C365 -231 333 -260 282 -271 L282 -304 Z " />
<glyph glyph-name="lcommaaccent" unicode="&#x13c;" horiz-adv-x="274" d="M188 677 L179 677 C157 669 65 653 22 650 L22 618 L27 618 C78 616 89 601 88 532 L88 131 C86 43 80 34 27 33 L17 33 L17 0 L258 0 L258 33 L249 33 C196 34 188 46 188 131 L188 677 Z M90 -289 C164 -277 209 -226 209 -157 C209 -99 178 -59 133 -59 C99 -59 75 -83 75 -117 C75 -146 96 -169 123 -169 C128 -169 135 -168 143 -166 C148 -164 150 -164 152 -164 C162 -164 169 -174 169 -187 C169 -220 138 -248 90 -258 L90 -289 Z " />
<glyph glyph-name="Lcaron" unicode="&#x13d;" horiz-adv-x="627" d="M614 205 L581 205 C547 75 497 32 390 35 L351 35 C261 36 251 48 252 151 L252 511 C253 620 263 634 339 634 L363 634 L363 667 L29 667 L29 634 L42 634 C118 634 129 620 129 511 L129 161 C128 52 117 34 45 33 L29 33 L29 0 L610 0 L614 205 Z M414 422 C492 435 540 489 540 562 C540 624 507 667 460 667 C424 667 398 641 398 605 C398 574 420 550 450 550 C456 550 458 550 470 553 C475 555 477 555 479 555 C490 555 497 545 497 531 C497 495 465 466 414 455 L414 422 Z " />
<glyph glyph-name="lcaron" unicode="&#x13e;" horiz-adv-x="358" d="M188 677 L179 677 C157 669 65 653 22 650 L22 618 L27 618 C78 616 89 601 88 532 L88 131 C86 43 80 34 27 33 L17 33 L17 0 L258 0 L258 33 L249 33 C196 34 188 46 188 131 L188 677 Z M239 447 C313 460 358 510 358 579 C358 637 327 677 282 677 C248 677 224 653 224 620 C224 590 245 568 272 568 C278 568 281 568 292 571 C297 572 299 572 301 572 C311 572 318 562 318 549 C318 516 287 489 239 478 L239 447 Z " />
<glyph glyph-name="Ldot" unicode="&#x13f;" horiz-adv-x="627" d="M614 205 L581 205 C547 75 497 32 390 35 L351 35 C261 36 251 48 252 151 L252 511 C253 620 263 634 339 634 L363 634 L363 667 L29 667 L29 634 L42 634 C118 634 129 620 129 511 L129 161 C128 52 117 34 45 33 L29 33 L29 0 L610 0 L614 205 Z M386 372 C358 372 336 350 336 322 C336 295 359 272 385 272 C414 272 436 294 436 322 C436 350 414 372 386 372 L386 372 Z " />
<glyph glyph-name="ldot" unicode="&#x140;" horiz-adv-x="333" d="M188 677 L179 677 C157 669 65 653 22 650 L22 618 L27 618 C78 616 89 601 88 532 L88 131 C86 43 80 34 27 33 L17 33 L17 0 L258 0 L258 33 L249 33 C196 34 188 46 188 131 L188 677 Z M283 383 C255 383 233 361 233 333 C233 306 255 283 282 283 C310 283 333 305 333 333 C333 361 310 383 283 383 L283 383 Z " />
<glyph glyph-name="Lslash" unicode="&#x141;" horiz-adv-x="627" d="M29 33 L29 0 L610 0 L614 205 L581 205 C548 77 497 31 389 35 L351 35 C260 37 251 48 252 151 L252 347 L381 446 L381 492 L252 393 L252 511 C253 620 263 634 338 634 L362 634 L362 667 L29 667 L29 634 L42 634 C118 634 129 620 129 511 L129 321 L36 250 L36 204 L129 275 L129 161 C128 52 117 34 46 33 L29 33 Z " />
<glyph glyph-name="lslash" unicode="&#x142;" horiz-adv-x="277" d="M187 383 L187 677 L178 677 C156 669 64 653 20 650 L20 618 L26 618 C77 616 88 601 87 532 L87 308 L16 256 L16 212 L87 264 L87 131 C85 42 80 35 26 33 L16 33 L16 0 L257 0 L257 33 L248 33 C195 34 187 46 187 131 L187 339 L260 394 L260 439 L187 383 Z " />
<glyph glyph-name="Nacute" unicode="&#x143;" horiz-adv-x="771" d="M655 -14 L655 525 C652 596 675 623 745 633 L753 634 L753 667 L511 667 L511 634 L522 634 C595 627 619 601 618 530 L618 184 L232 667 L26 667 L26 634 L32 634 C108 634 120 617 124 504 L124 155 C124 98 123 87 116 75 C105 53 67 36 27 34 L22 33 L22 0 L271 0 L271 33 L262 33 C223 33 186 50 171 75 C163 90 162 93 161 155 L161 565 L620 -14 L655 -14 Z M349 728 L375 728 L609 859 L609 863 L449 863 L349 728 Z " />
<glyph glyph-name="nacute" unicode="&#x144;" horiz-adv-x="560" d="M27 356 L31 356 C83 354 90 344 92 259 L92 131 C91 45 84 34 31 33 L26 33 L26 0 L253 0 L253 33 L248 33 C197 35 192 44 192 131 L192 293 C229 345 266 370 308 370 C351 370 378 341 378 295 L378 131 C378 44 373 36 323 33 L315 33 L315 0 L544 0 L544 33 L538 33 C486 35 481 42 479 131 L479 262 C479 320 476 338 462 363 C442 397 399 419 351 419 C289 419 226 387 193 339 L193 348 C193 373 189 392 180 415 L176 415 C146 405 90 395 27 388 L27 356 Z M243 490 L268 490 L463 651 L463 655 L337 655 L243 490 Z " />
<glyph glyph-name="Ncommaaccent" unicode="&#x145;" horiz-adv-x="771" d="M655 -14 L655 525 C652 596 675 623 745 633 L753 634 L753 667 L511 667 L511 634 L522 634 C595 627 619 601 618 530 L618 184 L232 667 L26 667 L26 634 L32 634 C108 634 120 617 124 504 L124 155 C124 98 123 87 116 75 C105 53 67 36 27 34 L22 33 L22 0 L271 0 L271 33 L262 33 C223 33 186 50 171 75 C163 90 162 93 161 155 L161 565 L620 -14 L655 -14 Z M308 -304 C386 -291 434 -237 434 -164 C434 -102 401 -59 353 -59 C317 -59 291 -85 291 -121 C291 -152 314 -176 343 -176 C350 -176 352 -176 364 -173 C368 -171 371 -171 373 -171 C383 -171 391 -181 391 -196 C391 -231 359 -260 308 -271 L308 -304 Z " />
<glyph glyph-name="ncommaaccent" unicode="&#x146;" horiz-adv-x="560" d="M27 356 L31 356 C83 354 90 344 92 259 L92 131 C91 45 84 34 31 33 L26 33 L26 0 L253 0 L253 33 L248 33 C197 35 192 44 192 131 L192 293 C229 345 266 370 308 370 C351 370 378 341 378 295 L378 131 C378 44 373 36 323 33 L315 33 L315 0 L544 0 L544 33 L538 33 C486 35 481 42 479 131 L479 262 C479 320 476 338 462 363 C442 397 399 419 351 419 C289 419 226 387 193 339 L193 348 C193 373 189 392 180 415 L176 415 C146 405 90 395 27 388 L27 356 Z M233 -289 C307 -277 352 -227 352 -157 C352 -99 321 -59 276 -59 C242 -59 218 -83 218 -117 C218 -146 239 -169 267 -169 C272 -169 278 -168 287 -166 C292 -164 293 -164 295 -164 C305 -164 312 -174 312 -187 C312 -220 281 -248 233 -258 L233 -289 Z " />
<glyph glyph-name="Ncaron" unicode="&#x147;" horiz-adv-x="771" d="M655 -14 L655 525 C652 596 675 623 745 633 L753 634 L753 667 L511 667 L511 634 L522 634 C595 627 619 601 618 530 L618 184 L232 667 L26 667 L26 634 L32 634 C108 634 120 617 124 504 L124 155 C124 98 123 87 116 75 C105 53 67 36 27 34 L22 33 L22 0 L271 0 L271 33 L262 33 C223 33 186 50 171 75 C163 90 162 93 161 155 L161 565 L620 -14 L655 -14 Z M454 727 L571 868 L546 868 L408 785 L243 868 L217 868 L332 727 L454 727 Z " />
<glyph glyph-name="ncaron" unicode="&#x148;" horiz-adv-x="560" d="M27 356 L31 356 C83 354 90 344 92 259 L92 131 C91 45 84 34 31 33 L26 33 L26 0 L253 0 L253 33 L248 33 C197 35 192 44 192 131 L192 293 C229 345 266 370 308 370 C351 370 378 341 378 295 L378 131 C378 44 373 36 323 33 L315 33 L315 0 L544 0 L544 33 L538 33 C486 35 481 42 479 131 L479 262 C479 320 476 338 462 363 C442 397 399 419 351 419 C289 419 226 387 193 339 L193 348 C193 373 189 392 180 415 L176 415 C146 405 90 395 27 388 L27 356 Z M187 656 L161 656 L252 492 L330 492 L416 656 L389 656 L297 562 L187 656 Z " />
<glyph glyph-name="napostrophe" unicode="&#x149;" horiz-adv-x="620" d="M87 356 L92 356 C143 354 150 344 152 259 L152 131 C152 45 145 34 92 33 L86 33 L86 0 L313 0 L313 33 L308 33 C257 35 252 44 252 131 L252 293 C289 345 326 370 368 370 C410 370 437 341 437 295 L437 131 C437 44 432 35 382 33 L374 33 L374 0 L603 0 L603 33 L597 33 C545 35 540 42 538 131 L538 262 C538 320 535 338 521 363 C501 397 458 419 411 419 C348 419 286 388 253 339 L253 348 C253 373 249 392 240 415 L236 415 C206 405 150 395 87 388 L87 356 Z M13 412 C21 412 39 417 56 424 C117 450 152 502 152 565 C152 623 119 665 74 665 C41 665 18 643 18 612 C18 584 40 564 69 564 C74 564 78 564 81 565 C93 568 93 568 96 568 C107 568 114 558 114 543 C114 497 72 455 13 441 L13 412 Z " />
<glyph glyph-name="Eng" unicode="&#x14a;" horiz-adv-x="730" d="M28 592 L34 592 C105 590 114 575 117 458 L117 161 C117 54 104 33 34 33 L20 33 L20 0 L336 0 L336 33 L323 33 C253 33 240 54 240 161 L240 494 C292 568 342 601 402 601 C468 601 511 560 511 497 L511 -83 C511 -190 498 -211 428 -211 L414 -211 L414 -244 L730 -244 L730 -211 L717 -211 C647 -211 634 -190 634 -83 L634 452 C634 531 630 557 610 590 C584 637 523 668 458 668 C373 668 287 624 241 558 C241 606 237 628 224 662 L217 662 C182 650 72 629 28 625 L28 592 Z " />
<glyph glyph-name="eng" unicode="&#x14b;" horiz-adv-x="550" d="M27 356 L31 356 C83 354 90 344 92 259 L92 131 C91 45 84 34 31 33 L26 33 L26 0 L253 0 L253 33 L248 33 C197 35 192 44 192 131 L192 293 C229 345 266 370 308 370 C351 370 378 341 378 295 L378 -113 C378 -200 373 -208 323 -211 L315 -211 L315 -244 L544 -244 L544 -211 L538 -211 C486 -209 481 -202 479 -113 L479 262 C479 320 476 338 462 363 C442 397 399 419 351 419 C289 419 226 387 193 339 L193 348 C193 373 189 392 180 415 L176 415 C146 405 90 395 27 388 L27 356 Z " />
<glyph glyph-name="Omacron" unicode="&#x14c;" horiz-adv-x="822" d="M417 679 C195 679 45 539 45 333 C45 129 195 -13 411 -13 C629 -13 778 128 778 334 C778 535 627 679 417 679 L417 679 Z M411 641 C488 641 556 604 589 543 C618 491 634 416 634 329 C634 130 558 25 414 25 C334 25 265 62 232 122 C204 173 189 247 189 338 C189 534 267 641 411 641 L411 641 Z M572 801 L251 801 L251 758 L572 758 L572 801 Z " />
<glyph glyph-name="omacron" unicode="&#x14d;" horiz-adv-x="524" d="M262 419 C132 419 37 327 37 200 C37 75 133 -16 266 -16 C391 -16 487 78 487 201 C487 327 392 419 262 419 L262 419 Z M262 385 C341 385 376 329 376 204 C376 72 342 17 262 17 C182 17 148 73 148 201 C148 330 182 385 262 385 L262 385 Z M118 547 L406 547 L406 590 L118 590 L118 547 Z " />
<glyph glyph-name="Obreve" unicode="&#x14e;" horiz-adv-x="822" d="M417 679 C195 679 45 539 45 333 C45 129 195 -13 411 -13 C629 -13 778 128 778 334 C778 535 627 679 417 679 L417 679 Z M411 641 C488 641 556 604 589 543 C618 491 634 416 634 329 C634 130 558 25 414 25 C334 25 265 62 232 122 C204 173 189 247 189 338 C189 534 267 641 411 641 L411 641 Z M234 871 C256 775 321 715 404 715 C488 715 558 778 576 871 L547 871 C520 826 466 799 403 799 C342 799 298 821 263 871 L234 871 Z " />
<glyph glyph-name="obreve" unicode="&#x14f;" horiz-adv-x="524" d="M90 655 C113 559 178 499 261 499 C345 499 415 562 433 655 L404 655 C377 610 323 583 260 583 C199 583 155 605 120 655 L90 655 Z M262 419 C132 419 37 327 37 200 C37 75 133 -16 266 -16 C391 -16 487 78 487 201 C487 327 392 419 262 419 L262 419 Z M262 385 C341 385 376 329 376 204 C376 72 342 17 262 17 C182 17 148 73 148 201 C148 330 182 385 262 385 L262 385 Z " />
<glyph glyph-name="Ohungarumlaut" unicode="&#x150;" horiz-adv-x="822" d="M417 679 C195 679 45 539 45 333 C45 129 195 -13 411 -13 C629 -13 778 128 778 334 C778 535 627 679 417 679 L417 679 Z M411 641 C488 641 556 604 589 543 C618 491 634 416 634 329 C634 130 558 25 414 25 C334 25 265 62 232 122 C204 173 189 247 189 338 C189 534 267 641 411 641 L411 641 Z M290 728 L316 728 L537 859 L537 863 L390 863 L290 728 Z M481 728 L507 728 L728 859 L728 863 L581 863 L481 728 Z " />
<glyph glyph-name="ohungarumlaut" unicode="&#x151;" horiz-adv-x="524" d="M262 419 C132 419 37 327 37 200 C37 75 133 -16 266 -16 C391 -16 487 78 487 201 C487 327 392 419 262 419 L262 419 Z M262 385 C341 385 376 329 376 204 C376 72 342 17 262 17 C182 17 148 73 148 201 C148 330 182 385 262 385 L262 385 Z M163 490 L188 490 L371 651 L371 655 L257 655 L163 490 Z M330 490 L356 490 L538 651 L538 655 L425 655 L330 490 Z " />
<glyph glyph-name="OE" unicode="&#x152;" horiz-adv-x="957" d="M931 213 L898 213 C883 147 856 92 827 65 C808 48 766 35 730 35 L719 35 L718 35 C704 35 701 35 685 36 L671 36 C591 38 587 44 588 176 L588 334 L656 334 C718 334 731 319 734 243 L734 235 L768 235 L768 468 L734 468 L734 460 C729 384 718 371 658 369 L588 369 L588 632 L704 632 C784 637 812 611 842 502 L876 502 L864 667 L532 667 L520 667 L462 668 C416 670 416 670 401 670 C300 670 213 640 156 587 C87 522 46 426 46 328 C46 207 104 101 202 44 C257 12 315 -2 392 -2 C402 -2 417 -2 436 -1 C484 0 501 0 559 0 L549 0 L920 0 L931 213 Z M466 177 C467 129 467 129 467 126 C467 93 461 70 450 58 C437 44 411 35 383 35 C261 35 187 150 187 339 C187 520 265 634 389 634 C421 634 449 624 457 609 C464 596 466 579 466 536 L466 177 Z " />
<glyph glyph-name="oe" unicode="&#x153;" horiz-adv-x="793" d="M722 96 C698 50 653 22 602 22 C519 22 470 87 470 197 C470 217 471 230 473 247 L758 247 L758 251 C758 341 673 419 574 419 C517 419 466 396 425 352 C384 394 324 419 261 419 C135 419 37 323 37 199 C37 76 132 -16 259 -16 C326 -16 383 9 426 57 C462 11 519 -16 580 -16 C653 -16 723 24 750 81 L722 96 Z M476 277 C484 344 519 386 568 386 C619 386 650 346 652 277 L476 277 Z M262 386 C301 386 337 367 354 337 C369 308 375 274 375 203 C375 144 371 111 359 83 C342 40 307 16 261 16 C226 16 196 30 179 55 C155 89 148 125 148 202 C148 329 183 386 262 386 L262 386 Z " />
<glyph glyph-name="Racute" unicode="&#x154;" horiz-adv-x="711" d="M747 0 L747 33 L742 33 C681 36 641 68 565 173 C503 262 457 315 427 332 C541 356 598 411 598 498 C598 556 568 604 516 633 C468 660 389 674 289 674 C260 674 221 673 152 671 L32 667 L32 634 L44 634 C120 634 131 620 131 511 L131 161 C130 52 119 34 48 33 L29 33 L29 0 L362 0 L362 33 L337 33 C266 34 255 52 254 161 L254 312 L278 312 C325 316 344 298 429 166 C479 87 527 24 558 0 L747 0 Z M254 635 C271 636 279 636 293 636 C361 636 401 626 426 603 C452 578 465 541 465 493 C465 410 429 362 360 353 C331 350 295 348 254 348 L254 635 Z M270 728 L296 728 L530 859 L530 863 L370 863 L270 728 Z " />
<glyph glyph-name="racute" unicode="&#x155;" horiz-adv-x="402" d="M25 353 L33 353 C86 352 93 340 94 254 L94 131 C92 42 87 35 34 33 L25 33 L25 0 L268 0 L268 33 L256 33 C203 34 197 44 195 131 L195 194 C195 255 199 279 217 310 C236 342 261 362 282 362 C293 362 302 355 311 339 C327 311 336 303 355 303 C380 303 399 323 399 349 C399 388 366 419 324 419 C271 419 218 379 190 317 C189 359 184 393 174 419 C109 400 93 396 25 386 L25 353 Z M182 490 L207 490 L403 651 L403 655 L276 655 L182 490 Z " />
<glyph glyph-name="Rcommaaccent" unicode="&#x156;" horiz-adv-x="711" d="M747 0 L747 33 L742 33 C681 36 641 68 565 173 C503 262 457 315 427 332 C541 356 598 411 598 498 C598 556 568 604 516 633 C468 660 389 674 289 674 C260 674 221 673 152 671 L32 667 L32 634 L44 634 C120 634 131 620 131 511 L131 161 C130 52 119 34 48 33 L29 33 L29 0 L362 0 L362 33 L337 33 C266 34 255 52 254 161 L254 312 L278 312 C325 316 344 298 429 166 C479 87 527 24 558 0 L747 0 Z M254 635 C271 636 279 636 293 636 C361 636 401 626 426 603 C452 578 465 541 465 493 C465 410 429 362 360 353 C331 350 295 348 254 348 L254 635 Z M288 -304 C366 -291 414 -237 414 -164 C414 -102 381 -59 333 -59 C297 -59 271 -85 271 -121 C271 -152 294 -176 323 -176 C330 -176 332 -176 344 -173 C348 -171 351 -171 353 -171 C363 -171 371 -181 371 -196 C371 -231 338 -260 288 -271 L288 -304 Z " />
<glyph glyph-name="rcommaaccent" unicode="&#x157;" horiz-adv-x="402" d="M25 353 L33 353 C86 352 93 340 94 254 L94 131 C92 42 87 35 34 33 L25 33 L25 0 L268 0 L268 33 L256 33 C203 34 197 44 195 131 L195 194 C195 255 199 279 217 310 C236 342 261 362 282 362 C293 362 302 355 311 339 C327 311 336 303 355 303 C380 303 399 323 399 349 C399 388 366 419 324 419 C271 419 218 379 190 317 C189 359 184 393 174 419 C109 400 93 396 25 386 L25 353 Z M103 -289 C177 -277 222 -226 222 -157 C222 -99 191 -59 146 -59 C112 -59 88 -83 88 -117 C88 -146 109 -169 136 -169 C141 -169 148 -168 156 -166 C161 -164 163 -164 165 -164 C175 -164 182 -174 182 -187 C182 -220 151 -248 103 -258 L103 -289 Z " />
<glyph glyph-name="Rcaron" unicode="&#x158;" horiz-adv-x="711" d="M747 0 L747 33 L742 33 C681 36 641 68 565 173 C503 262 457 315 427 332 C541 356 598 411 598 498 C598 556 568 604 516 633 C468 660 389 674 289 674 C260 674 221 673 152 671 L32 667 L32 634 L44 634 C120 634 131 620 131 511 L131 161 C130 52 119 34 48 33 L29 33 L29 0 L362 0 L362 33 L337 33 C266 34 255 52 254 161 L254 312 L278 312 C325 316 344 298 429 166 C479 87 527 24 558 0 L747 0 Z M254 635 C271 636 279 636 293 636 C361 636 401 626 426 603 C452 578 465 541 465 493 C465 410 429 362 360 353 C331 350 295 348 254 348 L254 635 Z M391 727 L509 868 L483 868 L346 785 L181 868 L155 868 L270 727 L391 727 Z " />
<glyph glyph-name="rcaron" unicode="&#x159;" horiz-adv-x="402" d="M25 353 L33 353 C86 352 93 340 94 254 L94 131 C92 42 87 35 34 33 L25 33 L25 0 L268 0 L268 33 L256 33 C203 34 197 44 195 131 L195 194 C195 255 199 279 217 310 C236 342 261 362 282 362 C293 362 302 355 311 339 C327 311 336 303 355 303 C380 303 399 323 399 349 C399 388 366 419 324 419 C271 419 218 379 190 317 C189 359 184 393 174 419 C109 400 93 396 25 386 L25 353 Z M108 656 L81 656 L173 492 L250 492 L337 656 L310 656 L218 562 L108 656 Z " />
<glyph glyph-name="Sacute" unicode="&#x15a;" horiz-adv-x="552" d="M57 9 L93 9 C98 35 104 53 115 70 C162 16 226 -13 298 -13 C421 -13 510 70 510 184 C510 235 491 283 458 318 C430 346 385 372 294 411 C186 458 148 494 148 550 C148 606 191 644 252 644 C332 644 396 584 420 485 L453 485 L453 667 L420 667 C415 641 412 632 397 613 C352 659 306 679 247 679 C140 679 60 603 60 502 C60 469 68 438 86 408 C107 369 154 335 231 299 C344 248 351 244 383 213 C402 195 414 166 414 139 C414 73 359 25 285 25 C224 25 170 56 135 113 C117 142 104 176 93 227 L57 227 L57 9 Z M222 728 L249 728 L482 859 L482 863 L323 863 L222 728 Z " />
<glyph glyph-name="sacute" unicode="&#x15b;" horiz-adv-x="377" d="M41 -12 L69 -12 C74 4 81 16 90 25 C92 24 94 23 98 19 C123 -2 163 -16 203 -16 C285 -16 343 37 343 112 C343 150 326 188 299 211 C275 231 263 237 197 259 C138 278 107 304 107 335 C107 365 137 389 175 389 C226 389 272 348 288 289 L315 289 L315 413 L289 413 C282 397 276 387 270 381 C233 407 201 419 167 419 C98 419 41 364 41 299 C41 267 56 238 87 212 C110 193 125 185 186 162 C245 140 272 114 272 79 C272 41 240 15 196 15 C135 15 92 51 70 121 L41 121 L41 -12 Z M160 490 L186 490 L381 651 L381 655 L254 655 L160 490 Z " />
<glyph glyph-name="Scircumflex" unicode="&#x15c;" horiz-adv-x="552" d="M57 9 L93 9 C98 35 104 53 115 70 C162 16 226 -13 298 -13 C421 -13 510 70 510 184 C510 235 491 283 458 318 C430 346 385 372 294 411 C186 458 148 494 148 550 C148 606 191 644 252 644 C332 644 396 584 420 485 L453 485 L453 667 L420 667 C415 641 412 632 397 613 C352 659 306 679 247 679 C140 679 60 603 60 502 C60 469 68 438 86 408 C107 369 154 335 231 299 C344 248 351 244 383 213 C402 195 414 166 414 139 C414 73 359 25 285 25 C224 25 170 56 135 113 C117 142 104 176 93 227 L57 227 L57 9 Z M233 868 L117 727 L142 727 L280 810 L445 727 L470 727 L354 868 L233 868 Z " />
<glyph glyph-name="scircumflex" unicode="&#x15d;" horiz-adv-x="377" d="M41 -12 L69 -12 C74 4 81 16 90 25 C92 24 94 23 98 19 C123 -2 163 -16 203 -16 C285 -16 343 37 343 112 C343 150 326 188 299 211 C275 231 263 237 197 259 C138 278 107 304 107 335 C107 365 137 389 175 389 C226 389 272 348 288 289 L315 289 L315 413 L289 413 C282 397 276 387 270 381 C233 407 201 419 167 419 C98 419 41 364 41 299 C41 267 56 238 87 212 C110 193 125 185 186 162 C245 140 272 114 272 79 C272 41 240 15 196 15 C135 15 92 51 70 121 L41 121 L41 -12 Z M300 492 L328 492 L239 656 L161 656 L72 492 L99 492 L193 586 L300 492 Z " />
<glyph glyph-name="Scedilla" unicode="&#x15e;" horiz-adv-x="552" d="M453 485 L453 667 L420 667 C415 641 412 632 397 613 C352 659 306 679 247 679 C140 679 60 603 60 502 C60 469 68 438 86 408 C107 369 154 335 231 299 C344 248 351 244 383 213 C402 195 414 166 414 139 C414 73 359 25 285 25 C224 25 170 56 135 113 C117 142 104 176 93 227 L57 227 L57 9 L93 9 C98 35 104 53 115 70 C152 25 208 -4 268 -11 C256 -77 254 -88 249 -109 C289 -111 313 -130 313 -159 C313 -189 287 -209 249 -209 C227 -209 207 -206 179 -198 C176 -213 175 -215 171 -228 C202 -238 227 -242 255 -242 C335 -242 392 -203 392 -148 C392 -99 356 -67 292 -60 C295 -46 297 -30 300 -12 C424 -10 510 70 510 184 C510 236 491 283 458 318 C430 346 385 372 294 411 C186 458 148 494 148 550 C148 606 191 644 252 644 C332 644 396 584 420 485 L453 485 Z " />
<glyph glyph-name="scedilla" unicode="&#x15f;" horiz-adv-x="377" d="M202 -16 C285 -16 343 36 343 112 C343 150 326 187 299 211 C275 231 263 237 197 259 C138 278 107 304 107 335 C107 365 137 389 175 389 C226 389 272 348 288 289 L315 289 L315 413 L289 413 C282 397 276 387 270 381 C233 407 201 419 167 419 C98 419 41 364 41 299 C41 267 56 238 87 212 C110 193 125 185 186 162 C245 140 272 114 272 79 C272 41 240 15 196 15 C135 15 92 51 70 121 L41 121 L41 -12 L69 -12 C74 4 81 16 90 25 C92 24 94 23 98 19 C117 3 147 -10 177 -14 C173 -50 169 -72 164 -98 C194 -100 212 -117 212 -143 C212 -170 193 -188 164 -188 C146 -188 132 -186 111 -178 C109 -192 108 -194 105 -206 C128 -214 147 -218 168 -218 C229 -218 271 -183 271 -133 C271 -89 243 -60 196 -54 L200 -26 L201 -21 L202 -16 Z " />
<glyph glyph-name="Scaron" unicode="&#x160;" horiz-adv-x="552" d="M57 9 L93 9 C98 35 104 53 115 70 C162 16 226 -13 298 -13 C421 -13 510 70 510 184 C510 235 491 283 458 318 C430 346 385 372 294 411 C186 458 148 494 148 550 C148 606 191 644 252 644 C332 644 396 584 420 485 L453 485 L453 667 L420 667 C415 641 412 632 397 613 C352 659 306 679 247 679 C140 679 60 603 60 502 C60 469 68 438 86 408 C107 369 154 335 231 299 C344 248 351 244 383 213 C402 195 414 166 414 139 C414 73 359 25 285 25 C224 25 170 56 135 113 C117 142 104 176 93 227 L57 227 L57 9 Z M333 727 L451 868 L425 868 L288 785 L123 868 L97 868 L212 727 L333 727 Z " />
<glyph glyph-name="scaron" unicode="&#x161;" horiz-adv-x="377" d="M41 -12 L69 -12 C74 4 81 16 90 25 C92 24 94 23 98 19 C123 -2 163 -16 203 -16 C285 -16 343 37 343 112 C343 150 326 188 299 211 C275 231 263 237 197 259 C138 278 107 304 107 335 C107 365 137 389 175 389 C226 389 272 348 288 289 L315 289 L315 413 L289 413 C282 397 276 387 270 381 C233 407 201 419 167 419 C98 419 41 364 41 299 C41 267 56 238 87 212 C110 193 125 185 186 162 C245 140 272 114 272 79 C272 41 240 15 196 15 C135 15 92 51 70 121 L41 121 L41 -12 Z M94 656 L68 656 L159 492 L237 492 L324 656 L296 656 L205 562 L94 656 Z " />
<glyph glyph-name="Tcommaaccent" unicode="&#x162;" horiz-adv-x="690" d="M50 497 C71 614 95 635 199 632 L283 632 L283 161 C282 52 271 34 200 33 L172 33 L172 0 L516 0 L516 33 L488 33 C417 34 406 52 405 161 L405 632 L495 632 C591 635 617 611 641 497 L674 497 L671 667 L18 667 L16 497 L50 497 Z M297 -304 C376 -291 424 -237 424 -164 C424 -102 391 -59 343 -59 C307 -59 281 -85 281 -121 C281 -152 303 -176 333 -176 C340 -176 342 -176 354 -173 C358 -171 361 -171 363 -171 C373 -171 381 -181 381 -196 C381 -231 348 -260 297 -271 L297 -304 Z " />
<glyph glyph-name="tcommaaccent" unicode="&#x163;" horiz-adv-x="316" d="M300 370 L300 403 L179 403 L179 532 L151 532 C140 454 87 402 21 403 L21 370 L79 370 L79 140 C79 89 85 57 98 34 C116 3 151 -16 192 -16 C248 -16 295 12 316 59 L289 70 C272 42 254 30 231 30 C213 30 198 39 190 54 C181 70 179 84 179 138 L179 370 L300 370 Z M119 -289 C193 -277 238 -226 238 -157 C238 -99 207 -59 162 -59 C128 -59 104 -83 104 -117 C104 -146 125 -169 153 -169 C158 -169 165 -168 173 -166 C178 -164 179 -164 181 -164 C191 -164 198 -174 198 -187 C198 -220 167 -248 119 -258 L119 -289 Z " />
<glyph glyph-name="Tcaron" unicode="&#x164;" horiz-adv-x="690" d="M50 497 C71 614 95 635 199 632 L283 632 L283 161 C282 52 271 34 200 33 L172 33 L172 0 L516 0 L516 33 L488 33 C417 34 406 52 405 161 L405 632 L495 632 C591 635 617 611 641 497 L674 497 L671 667 L18 667 L16 497 L50 497 Z M403 727 L520 868 L495 868 L357 785 L192 868 L167 868 L282 727 L403 727 Z " />
<glyph glyph-name="tcaron" unicode="&#x165;" horiz-adv-x="359" d="M300 370 L300 403 L179 403 L179 532 L151 532 C140 454 87 402 21 403 L21 370 L79 370 L79 140 C79 89 85 57 98 34 C116 3 151 -16 192 -16 C248 -16 295 12 316 59 L289 70 C272 42 254 30 231 30 C213 30 198 39 190 54 C181 70 179 84 179 138 L179 370 L300 370 Z M237 468 C310 481 355 531 355 600 C355 658 324 698 279 698 C245 698 221 674 221 640 C221 611 242 588 270 588 C275 588 282 589 290 591 C295 593 296 593 298 593 C308 593 315 583 315 570 C315 537 285 509 237 499 L237 468 Z " />
<glyph glyph-name="Tbar" unicode="&#x166;" horiz-adv-x="690" d="M405 377 L405 632 L496 632 C592 635 617 612 642 497 L675 497 L672 667 L18 667 L16 497 L49 497 C57 551 71 586 93 610 C113 627 136 632 199 632 L283 632 L283 377 L138 377 L138 344 L283 344 L283 161 C282 52 271 34 200 33 L172 33 L172 0 L516 0 L516 33 L489 33 C418 34 406 52 405 161 L405 344 L550 344 L550 377 L405 377 Z " />
<glyph glyph-name="tbar" unicode="&#x167;" horiz-adv-x="316" d="M179 329 L179 370 L301 370 L301 403 L179 403 L179 532 L151 532 C140 454 87 402 21 403 L21 370 L79 370 L79 329 L21 329 L21 296 L79 296 L79 140 C79 90 85 57 98 34 C116 3 151 -16 192 -16 C248 -16 296 13 316 59 L290 70 C272 42 255 30 231 30 C213 30 198 39 190 54 C181 70 179 84 179 138 L179 296 L301 296 L301 329 L179 329 Z " />
<glyph glyph-name="Utilde" unicode="&#x168;" horiz-adv-x="775" d="M525 667 L525 634 L530 633 C604 628 626 601 625 512 L625 286 C625 197 623 175 611 145 C584 78 507 33 421 33 C340 33 279 69 256 131 C245 158 241 202 241 283 L241 511 C241 620 252 634 327 634 L340 634 L340 667 L19 667 L19 634 L31 634 C107 634 117 620 118 511 L118 289 L118 225 C119 169 128 133 149 98 C189 29 281 -13 389 -13 C499 -13 591 30 629 101 C650 139 662 191 662 245 L662 531 C663 597 684 623 748 633 L756 634 L756 667 L525 667 Z M279 726 C279 730 280 736 283 745 C291 770 303 781 325 781 C339 781 358 775 384 763 C446 733 468 726 497 726 C556 726 593 775 592 851 L568 851 C564 817 547 794 525 794 C511 794 489 801 464 812 C412 837 371 850 348 850 C297 850 255 799 255 736 C255 735 255 730 256 726 L279 726 Z " />
<glyph glyph-name="utilde" unicode="&#x169;" horiz-adv-x="548" d="M465 403 L296 403 L296 370 L304 370 C358 369 365 358 365 272 L365 159 C365 150 361 126 357 115 C341 69 294 34 248 34 C225 34 202 46 191 65 C185 76 182 94 182 129 L182 403 L18 403 L18 370 L23 370 C75 369 82 358 82 272 L82 129 C82 85 86 63 98 41 C118 7 163 -16 212 -16 C271 -16 325 14 365 70 C365 32 369 0 376 -16 L382 -16 C409 -7 475 1 528 0 L528 33 L525 33 C474 34 466 47 465 132 L465 403 Z M150 513 C155 551 171 571 197 571 C212 571 228 564 260 543 C291 522 314 513 338 513 C398 513 433 559 433 637 L410 637 C409 598 392 577 363 577 C348 577 335 582 311 598 C272 624 248 634 222 634 C164 634 128 589 128 513 L150 513 Z " />
<glyph glyph-name="Umacron" unicode="&#x16a;" horiz-adv-x="775" d="M525 667 L525 634 L530 633 C604 628 626 601 625 512 L625 286 C625 197 623 175 611 145 C584 78 507 33 421 33 C340 33 279 69 256 131 C245 158 241 202 241 283 L241 511 C241 620 252 634 327 634 L340 634 L340 667 L19 667 L19 634 L31 634 C107 634 117 620 118 511 L118 289 L118 225 C119 169 128 133 149 98 C189 29 281 -13 389 -13 C499 -13 591 30 629 101 C650 139 662 191 662 245 L662 531 C663 597 684 623 748 633 L756 634 L756 667 L525 667 Z M563 801 L241 801 L241 758 L563 758 L563 801 Z " />
<glyph glyph-name="umacron" unicode="&#x16b;" horiz-adv-x="548" d="M465 403 L296 403 L296 370 L304 370 C358 369 365 358 365 272 L365 159 C365 150 361 126 357 115 C341 69 294 34 248 34 C225 34 202 46 191 65 C185 76 182 94 182 129 L182 403 L18 403 L18 370 L23 370 C75 369 82 358 82 272 L82 129 C82 85 86 63 98 41 C118 7 163 -16 212 -16 C271 -16 325 14 365 70 C365 32 369 0 376 -16 L382 -16 C409 -7 475 1 528 0 L528 33 L525 33 C474 34 466 47 465 132 L465 403 Z M136 547 L423 547 L423 590 L136 590 L136 547 Z " />
<glyph glyph-name="Ubreve" unicode="&#x16c;" horiz-adv-x="775" d="M525 667 L525 634 L530 633 C604 628 626 601 625 512 L625 286 C625 197 623 175 611 145 C584 78 507 33 421 33 C340 33 279 69 256 131 C245 158 241 202 241 283 L241 511 C241 620 252 634 327 634 L340 634 L340 667 L19 667 L19 634 L31 634 C107 634 117 620 118 511 L118 289 L118 225 C119 169 128 133 149 98 C189 29 281 -13 389 -13 C499 -13 591 30 629 101 C650 139 662 191 662 245 L662 531 C663 597 684 623 748 633 L756 634 L756 667 L525 667 Z M251 871 C273 775 338 715 421 715 C506 715 575 778 593 871 L564 871 C538 826 483 799 420 799 C359 799 315 821 280 871 L251 871 Z " />
<glyph glyph-name="ubreve" unicode="&#x16d;" horiz-adv-x="548" d="M465 403 L296 403 L296 370 L304 370 C358 369 365 358 365 272 L365 159 C365 150 361 126 357 115 C341 69 294 34 248 34 C225 34 202 46 191 65 C185 76 182 94 182 129 L182 403 L18 403 L18 370 L23 370 C75 369 82 358 82 272 L82 129 C82 85 86 63 98 41 C118 7 163 -16 212 -16 C271 -16 325 14 365 70 C365 32 369 0 376 -16 L382 -16 C409 -7 475 1 528 0 L528 33 L525 33 C474 34 466 47 465 132 L465 403 Z M147 649 C158 555 208 499 282 499 C356 499 411 561 417 649 L395 649 C377 598 341 575 284 575 C222 575 184 600 169 649 L147 649 Z " />
<glyph glyph-name="Uring" unicode="&#x16e;" horiz-adv-x="775" d="M525 667 L525 634 L530 633 C604 628 626 601 625 512 L625 286 C625 197 623 175 611 145 C584 78 507 33 421 33 C340 33 279 69 256 131 C245 158 241 202 241 283 L241 511 C241 620 252 634 327 634 L340 634 L340 667 L19 667 L19 634 L31 634 C107 634 117 620 118 511 L118 289 L118 225 C119 169 128 133 149 98 C189 29 281 -13 389 -13 C499 -13 591 30 629 101 C650 139 662 191 662 245 L662 531 C663 597 684 623 748 633 L756 634 L756 667 L525 667 Z M425 902 C369 902 324 857 324 801 C324 746 369 700 424 700 C481 700 526 745 526 801 C526 857 481 902 425 902 L425 902 Z M425 870 C463 870 494 839 494 801 C494 763 463 732 425 732 C386 732 356 763 356 802 C356 839 388 870 425 870 L425 870 Z " />
<glyph glyph-name="uring" unicode="&#x16f;" horiz-adv-x="548" d="M465 403 L296 403 L296 370 L304 370 C358 369 365 358 365 272 L365 159 C365 150 361 126 357 115 C341 69 294 34 248 34 C225 34 202 46 191 65 C185 76 182 94 182 129 L182 403 L18 403 L18 370 L23 370 C75 369 82 358 82 272 L82 129 C82 85 86 63 98 41 C118 7 163 -16 212 -16 C271 -16 325 14 365 70 C365 32 369 0 376 -16 L382 -16 C409 -7 475 1 528 0 L528 33 L525 33 C474 34 466 47 465 132 L465 403 Z M290 667 C237 667 194 624 194 571 C194 519 237 475 289 475 C343 475 386 517 386 571 C386 624 343 667 290 667 L290 667 Z M290 636 C326 636 355 607 355 571 C355 535 326 506 290 506 C254 506 225 535 225 572 C225 607 255 636 290 636 L290 636 Z " />
<glyph glyph-name="Uhungarumlaut" unicode="&#x170;" horiz-adv-x="775" d="M525 667 L525 634 L530 633 C604 628 626 601 625 512 L625 286 C625 197 623 175 611 145 C584 78 507 33 421 33 C340 33 279 69 256 131 C245 158 241 202 241 283 L241 511 C241 620 252 634 327 634 L340 634 L340 667 L19 667 L19 634 L31 634 C107 634 117 620 118 511 L118 289 L118 225 C119 169 128 133 149 98 C189 29 281 -13 389 -13 C499 -13 591 30 629 101 C650 139 662 191 662 245 L662 531 C663 597 684 623 748 633 L756 634 L756 667 L525 667 Z M283 728 L309 728 L530 859 L530 863 L383 863 L283 728 Z M474 728 L500 728 L721 859 L721 863 L574 863 L474 728 Z " />
<glyph glyph-name="uhungarumlaut" unicode="&#x171;" horiz-adv-x="548" d="M465 403 L296 403 L296 370 L304 370 C358 369 365 358 365 272 L365 159 C365 150 361 126 357 115 C341 69 294 34 248 34 C225 34 202 46 191 65 C185 76 182 94 182 129 L182 403 L18 403 L18 370 L23 370 C75 369 82 358 82 272 L82 129 C82 85 86 63 98 41 C118 7 163 -16 212 -16 C271 -16 325 14 365 70 C365 32 369 0 376 -16 L382 -16 C409 -7 475 1 528 0 L528 33 L525 33 C474 34 466 47 465 132 L465 403 Z M157 490 L182 490 L365 651 L365 655 L251 655 L157 490 Z M324 490 L350 490 L532 651 L532 655 L419 655 L324 490 Z " />
<glyph glyph-name="Uogonek" unicode="&#x172;" horiz-adv-x="775" d="M600 -147 C576 -155 565 -157 549 -157 C510 -157 480 -128 480 -89 C480 -48 509 -4 560 30 C627 70 660 140 662 245 L662 531 C663 597 684 623 748 633 L756 634 L756 667 L525 667 L525 634 L530 633 C604 628 626 601 625 512 L625 286 C625 197 623 175 611 145 C584 78 507 33 421 33 C340 33 279 69 256 131 C245 158 241 202 241 283 L241 511 C241 620 252 634 327 634 L340 634 L340 667 L19 667 L19 634 L31 634 C107 634 117 620 118 511 L118 289 L118 225 C119 170 128 133 149 98 C188 30 281 -13 388 -13 C420 -13 449 -9 481 -2 C432 -26 400 -70 400 -112 C400 -162 445 -200 507 -200 C543 -200 572 -190 611 -164 L600 -147 Z " />
<glyph glyph-name="uogonek" unicode="&#x173;" horiz-adv-x="548" d="M528 33 L525 33 C474 34 466 47 465 132 L465 403 L296 403 L296 370 L304 370 C358 369 365 358 365 272 L365 159 C365 150 361 126 357 115 C341 69 294 34 248 34 C225 34 202 46 191 65 C185 76 182 94 182 129 L182 403 L18 403 L18 370 L23 370 C75 369 82 358 82 272 L82 129 C82 85 86 63 98 41 C118 7 163 -16 212 -16 C271 -16 325 14 365 70 C365 32 369 0 376 -16 L382 -16 C394 -12 401 -11 413 -9 C375 -33 351 -71 351 -107 C351 -155 391 -191 444 -191 C476 -191 501 -181 535 -157 L525 -141 C504 -148 495 -150 481 -150 C447 -150 421 -122 421 -85 C421 -55 435 -26 460 -3 C488 0 505 0 528 0 L528 33 Z " />
<glyph glyph-name="Wcircumflex" unicode="&#x174;" horiz-adv-x="939" d="M698 -15 L841 479 C877 604 894 630 942 633 L948 634 L948 667 L756 667 L756 634 L760 634 C801 633 824 611 824 573 C824 551 823 547 807 493 L715 167 L528 667 L485 667 L322 167 L211 525 C201 558 195 585 195 597 C195 619 214 631 254 633 L260 634 L260 667 L-8 667 L-8 634 L0 633 C49 632 62 614 93 507 L254 -15 L296 -15 L465 500 L658 -15 L698 -15 Z M442 868 L326 727 L352 727 L489 810 L654 727 L680 727 L564 868 L442 868 Z " />
<glyph glyph-name="wcircumflex" unicode="&#x175;" horiz-adv-x="717" d="M522 -13 L643 287 C670 358 677 367 716 370 L719 370 L719 403 L573 403 L573 370 L581 370 C609 369 625 360 625 345 C625 339 625 338 614 307 L534 103 L413 403 L372 403 L250 103 L175 297 L166 320 C161 331 158 341 158 348 C158 363 173 370 205 370 L211 370 L211 403 L-2 403 L-2 370 L4 370 C39 368 43 364 70 297 L194 -13 L238 -13 L358 285 L479 -13 L522 -13 Z M497 492 L524 492 L435 656 L357 656 L268 492 L295 492 L389 586 L497 492 Z " />
<glyph glyph-name="Ycircumflex" unicode="&#x176;" horiz-adv-x="659" d="M-13 667 L-13 634 L-7 634 C42 629 53 619 107 527 L268 262 L268 161 C267 52 256 34 185 33 L174 33 L174 0 L483 0 L483 33 L473 33 C402 34 391 52 390 161 L390 270 L537 512 C588 599 616 625 665 633 L671 634 L671 667 L450 667 L450 634 L455 634 C498 634 524 614 524 582 C524 566 517 548 496 514 L376 312 L234 548 C215 579 210 590 210 601 C210 623 231 634 273 634 L279 634 L279 667 L-13 667 Z M287 868 L171 727 L196 727 L334 810 L499 727 L524 727 L408 868 L287 868 Z " />
<glyph glyph-name="ycircumflex" unicode="&#x177;" horiz-adv-x="483" d="M-5 403 L-5 371 L3 370 C34 369 42 361 71 304 L230 -12 L201 -85 C186 -121 174 -130 123 -148 C84 -162 67 -180 67 -207 C67 -231 86 -249 113 -249 C152 -249 180 -219 216 -134 L392 271 C424 347 438 364 476 370 L481 371 L481 403 L334 403 L334 371 L343 371 C371 370 384 362 384 346 C384 340 382 331 377 322 C371 308 365 295 364 293 L281 98 L178 306 C165 334 164 338 164 346 C164 360 177 369 200 370 L206 371 L206 403 L-5 403 Z M355 492 L383 492 L293 656 L216 656 L127 492 L153 492 L248 586 L355 492 Z " />
<glyph glyph-name="Ydieresis" unicode="&#x178;" horiz-adv-x="659" d="M-13 667 L-13 634 L-7 634 C42 629 53 619 107 527 L268 262 L268 161 C267 52 256 34 185 33 L174 33 L174 0 L483 0 L483 33 L473 33 C402 34 391 52 390 161 L390 270 L537 512 C588 599 616 625 665 633 L671 634 L671 667 L450 667 L450 634 L455 634 C498 634 524 614 524 582 C524 566 517 548 496 514 L376 312 L234 548 C215 579 210 590 210 601 C210 623 231 634 273 634 L279 634 L279 667 L-13 667 Z M222 844 C189 844 163 818 163 785 C163 753 190 726 221 726 C255 726 281 752 281 785 C281 818 255 844 222 844 L222 844 Z M475 844 C443 844 416 818 416 786 C416 752 442 726 475 726 C507 726 534 753 534 785 C534 818 508 844 475 844 L475 844 Z " />
<glyph glyph-name="Zacute" unicode="&#x179;" horiz-adv-x="649" d="M32 0 L591 0 L610 181 L577 181 C530 54 501 33 368 35 L182 35 L591 637 L591 667 L74 667 L56 505 L88 505 L89 508 L91 516 C105 564 137 608 169 622 C187 630 199 632 269 632 L443 632 L32 26 L32 0 Z M293 728 L320 728 L553 859 L553 863 L394 863 L293 728 Z " />
<glyph glyph-name="zacute" unicode="&#x17a;" horiz-adv-x="446" d="M27 0 L402 0 L414 131 L383 131 C348 46 333 34 258 33 L155 33 L407 375 L407 403 L47 403 L40 287 L70 287 C99 361 110 372 152 370 L280 370 L27 24 L27 0 Z M189 490 L214 490 L410 651 L410 655 L283 655 L189 490 Z " />
<glyph glyph-name="Zdotaccent" unicode="&#x17b;" horiz-adv-x="649" d="M32 0 L591 0 L610 181 L577 181 C530 54 501 33 368 35 L182 35 L591 637 L591 667 L74 667 L56 505 L88 505 L89 508 L91 516 C105 564 137 608 169 622 C187 630 199 632 269 632 L443 632 L32 26 L32 0 Z M340 846 C307 846 281 820 281 787 C281 755 308 728 339 728 C373 728 399 754 399 787 C399 820 373 846 340 846 L340 846 Z " />
<glyph glyph-name="zdotaccent" unicode="&#x17c;" horiz-adv-x="446" d="M27 0 L402 0 L414 131 L383 131 C348 46 333 34 258 33 L155 33 L407 375 L407 403 L47 403 L40 287 L70 287 C99 361 110 372 152 370 L280 370 L27 24 L27 0 Z M239 627 C211 627 189 605 189 577 C189 550 212 527 238 527 C267 527 289 549 289 577 C289 605 267 627 239 627 L239 627 Z " />
<glyph glyph-name="Zcaron" unicode="&#x17d;" horiz-adv-x="649" d="M32 0 L591 0 L610 181 L577 181 C530 54 501 33 368 35 L182 35 L591 637 L591 667 L74 667 L56 505 L88 505 L89 508 L91 516 C105 564 137 608 169 622 C187 630 199 632 269 632 L443 632 L32 26 L32 0 Z M400 727 L517 868 L492 868 L354 785 L190 868 L164 868 L279 727 L400 727 Z " />
<glyph glyph-name="zcaron" unicode="&#x17e;" horiz-adv-x="446" d="M27 0 L402 0 L414 131 L383 131 C348 46 333 34 258 33 L155 33 L407 375 L407 403 L47 403 L40 287 L70 287 C99 361 110 372 152 370 L280 370 L27 24 L27 0 Z M132 656 L105 656 L197 492 L274 492 L361 656 L333 656 L242 562 L132 656 Z " />
<glyph glyph-name="uni018F" unicode="&#x18f;" horiz-adv-x="820" d="M43 304 C64 201 89 141 127 99 C190 30 297 -13 408 -13 C626 -13 776 128 776 333 C776 537 625 679 408 679 C283 679 175 630 111 544 C87 511 68 475 63 453 L171 454 C176 481 196 515 227 550 C283 614 338 641 410 641 C487 641 554 604 587 543 C616 491 632 416 632 333 L632 303 L43 304 Z M629 267 C621 195 612 164 590 123 C557 60 492 25 411 25 C332 25 264 61 230 122 C208 161 200 192 192 267 L629 267 Z " />
<glyph glyph-name="florin" unicode="&#x192;" horiz-adv-x="515" d="M356 442 C363 488 368 522 370 552 C374 605 379 630 389 646 C398 661 413 670 428 670 C437 670 444 665 444 659 C444 656 442 650 439 644 C434 636 432 628 432 622 C432 605 449 590 468 590 C491 590 508 609 508 635 C508 670 478 694 434 694 C369 694 324 646 290 540 C258 454 250 447 180 443 L172 442 L163 400 L246 400 C244 391 244 390 241 379 C236 354 230 327 223 299 C184 129 177 93 163 -14 C152 -105 148 -123 132 -151 C120 -173 104 -187 90 -187 C83 -187 77 -183 76 -178 C76 -176 77 -174 79 -169 C83 -162 85 -155 85 -150 C85 -132 68 -117 48 -117 C24 -117 5 -138 5 -163 C5 -193 33 -217 68 -217 C98 -217 128 -204 155 -180 C198 -141 230 -75 266 50 C290 133 316 240 327 298 L331 317 L348 400 L431 400 L441 442 L356 442 Z " />
<glyph glyph-name="uni01CD" unicode="&#x1cd;" horiz-adv-x="659" d="M673 0 L673 33 L667 34 C616 41 608 51 565 152 L347 677 L314 677 L103 163 C68 73 43 44 -5 34 L-13 33 L-13 0 L193 0 L193 33 L185 33 C149 33 121 56 121 85 C121 109 123 116 152 186 L167 223 L404 223 L445 125 C463 80 464 77 464 65 C464 43 444 33 395 33 L388 33 L388 0 L673 0 Z M391 257 L180 257 L285 513 L391 257 Z M390 727 L507 868 L482 868 L344 785 L179 868 L154 868 L269 727 L390 727 Z " />
<glyph glyph-name="uni01CE" unicode="&#x1ce;" horiz-adv-x="503" d="M470 79 C465 53 452 38 434 38 C411 38 404 54 404 111 L404 282 C404 336 399 354 377 376 C349 405 305 419 241 419 C187 419 146 410 109 391 C76 373 54 346 54 321 C54 300 71 285 94 285 C121 285 137 301 143 332 C147 352 151 363 158 369 C169 379 195 386 219 386 C255 386 283 374 295 353 C302 340 304 326 304 294 L304 268 L246 245 C196 224 133 193 103 174 C58 145 39 117 39 78 C39 27 83 -10 144 -10 C193 -10 247 11 307 54 C321 11 351 -10 398 -10 C456 -10 493 24 496 79 L470 79 Z M304 234 L304 90 C263 56 228 38 200 38 C168 38 144 65 144 100 C144 151 181 184 280 224 L304 234 Z M150 656 L124 656 L215 492 L293 492 L380 656 L352 656 L261 562 L150 656 Z " />
<glyph glyph-name="uni01D1" unicode="&#x1d1;" horiz-adv-x="280" d="M123 468 L88 124 C85 93 84 80 84 66 C84 26 105 1 139 1 C173 1 194 26 194 66 C194 80 193 91 190 123 L155 468 L123 468 Z M139 685 C103 685 74 656 74 620 C74 585 103 555 138 555 C175 555 204 584 204 620 C204 656 175 685 139 685 L139 685 Z " />
<glyph glyph-name="uni01D2" unicode="&#x1d2;" horiz-adv-x="524" d="M262 419 C132 419 37 327 37 200 C37 75 133 -16 266 -16 C391 -16 487 78 487 201 C487 327 392 419 262 419 L262 419 Z M262 385 C341 385 376 329 376 204 C376 72 342 17 262 17 C182 17 148 73 148 201 C148 330 182 385 262 385 L262 385 Z M154 656 L127 656 L219 492 L296 492 L383 656 L356 656 L264 562 L154 656 Z " />
<glyph glyph-name="uni01D3" unicode="&#x1d3;" horiz-adv-x="775" d="M525 667 L525 634 L530 633 C604 628 626 601 625 512 L625 286 C625 197 623 175 611 145 C584 78 507 33 421 33 C340 33 279 69 256 131 C245 158 241 202 241 283 L241 511 C241 620 252 634 327 634 L340 634 L340 667 L19 667 L19 634 L31 634 C107 634 117 620 118 511 L118 289 L118 225 C119 169 128 133 149 98 C189 29 281 -13 389 -13 C499 -13 591 30 629 101 C650 139 662 191 662 245 L662 531 C663 597 684 623 748 633 L756 634 L756 667 L525 667 Z M467 727 L584 868 L558 868 L421 785 L256 868 L230 868 L345 727 L467 727 Z " />
<glyph glyph-name="uni01D4" unicode="&#x1d4;" horiz-adv-x="548" d="M465 403 L296 403 L296 370 L304 370 C358 369 365 358 365 272 L365 159 C365 150 361 126 357 115 C341 69 294 34 248 34 C225 34 202 46 191 65 C185 76 182 94 182 129 L182 403 L18 403 L18 370 L23 370 C75 369 82 358 82 272 L82 129 C82 85 86 63 98 41 C118 7 163 -16 212 -16 C271 -16 325 14 365 70 C365 32 369 0 376 -16 L382 -16 C409 -7 475 1 528 0 L528 33 L525 33 C474 34 466 47 465 132 L465 403 Z M182 656 L155 656 L247 492 L325 492 L411 656 L384 656 L292 562 L182 656 Z " />
<glyph glyph-name="uni01DD" unicode="&#x1dd;" horiz-adv-x="464" d="M72 308 C98 355 141 381 193 381 C274 381 318 314 318 193 C318 181 318 173 316 157 L37 157 C37 57 114 -16 220 -16 C341 -16 429 77 429 203 C429 327 339 419 216 419 C138 419 68 378 41 317 L72 308 Z M315 127 C310 87 305 70 292 51 C278 31 251 17 223 17 C175 17 144 53 144 111 C144 116 144 120 145 127 L315 127 Z " />
<glyph glyph-name="Gcaron" unicode="&#x1e6;" horiz-adv-x="776" d="M459 292 L459 258 L472 258 C533 258 548 243 551 181 L551 156 C551 124 547 104 536 88 C512 48 460 24 399 24 C325 24 261 59 228 118 C201 165 187 236 187 328 C187 422 200 490 228 542 C260 601 328 639 403 639 C517 639 600 562 623 434 L657 434 L655 661 L622 661 C619 632 613 611 601 588 C542 650 471 679 383 679 C297 679 220 650 161 596 C88 528 45 427 45 323 C45 129 187 -13 381 -13 C433 -13 470 -6 539 16 C582 30 624 38 654 38 C658 38 664 38 674 36 L674 130 C673 240 681 254 747 258 L755 258 L755 292 L459 292 Z M446 727 L563 868 L537 868 L400 785 L235 868 L209 868 L324 727 L446 727 Z " />
<glyph glyph-name="gcaron" unicode="&#x1e7;" horiz-adv-x="494" d="M245 46 C245 46 230 46 217 47 C203 48 192 48 187 48 C138 49 114 59 114 79 C114 105 145 118 214 120 C263 122 288 126 319 139 C376 163 410 213 410 272 C410 301 402 326 386 351 C399 366 410 372 421 372 C429 372 434 369 444 356 C453 343 461 338 472 338 C489 338 502 352 502 372 C502 398 482 416 453 416 C425 416 400 402 368 370 C334 402 286 419 230 419 C123 419 47 358 47 274 C47 214 87 159 148 134 C85 121 54 92 54 47 C54 -14 106 -40 237 -43 C309 -44 346 -50 369 -63 C390 -76 401 -96 401 -120 C401 -181 340 -217 240 -217 C147 -217 89 -183 89 -127 C89 -108 96 -89 112 -70 C100 -66 94 -65 86 -65 C53 -65 29 -92 29 -129 C29 -202 109 -248 237 -248 C380 -248 464 -190 464 -92 C464 -45 440 0 403 18 C372 35 315 46 265 46 L245 46 Z M227 386 C280 386 309 346 309 275 C309 195 282 154 229 154 C177 154 148 195 148 268 C148 344 176 386 227 386 L227 386 Z M139 656 L112 656 L204 492 L281 492 L368 656 L341 656 L249 562 L139 656 Z " />
<glyph glyph-name="uni01F4" unicode="&#x1f4;" horiz-adv-x="776" d="M459 292 L459 258 L472 258 C533 258 548 243 551 181 L551 156 C551 124 547 104 536 88 C512 48 460 24 399 24 C325 24 261 59 228 118 C201 165 187 236 187 328 C187 422 200 490 228 542 C260 601 328 639 403 639 C517 639 600 562 623 434 L657 434 L655 661 L622 661 C619 632 613 611 601 588 C542 650 471 679 383 679 C297 679 220 650 161 596 C88 528 45 427 45 323 C45 129 187 -13 381 -13 C433 -13 470 -6 539 16 C582 30 624 38 654 38 C658 38 664 38 674 36 L674 130 C673 240 681 254 747 258 L755 258 L755 292 L459 292 Z M345 728 L372 728 L605 859 L605 863 L446 863 L345 728 Z " />
<glyph glyph-name="uni01F5" unicode="&#x1f5;" horiz-adv-x="776" d="M245 46 C245 46 230 46 217 47 C203 48 192 48 187 48 C138 49 114 59 114 79 C114 105 145 118 214 120 C263 122 288 126 319 139 C376 163 410 213 410 272 C410 301 402 326 386 351 C399 366 410 372 421 372 C429 372 434 369 444 356 C453 343 461 338 472 338 C489 338 502 352 502 372 C502 398 482 416 453 416 C425 416 400 402 368 370 C334 402 286 419 230 419 C123 419 47 358 47 274 C47 214 87 159 148 134 C85 121 54 92 54 47 C54 -14 106 -40 237 -43 C309 -44 346 -50 369 -63 C390 -76 401 -96 401 -120 C401 -181 340 -217 240 -217 C147 -217 89 -183 89 -127 C89 -108 96 -89 112 -70 C100 -66 94 -65 86 -65 C53 -65 29 -92 29 -129 C29 -202 109 -248 237 -248 C380 -248 464 -190 464 -92 C464 -45 440 0 403 18 C372 35 315 46 265 46 L245 46 Z M227 386 C280 386 309 346 309 275 C309 195 282 154 229 154 C177 154 148 195 148 268 C148 344 176 386 227 386 L227 386 Z M187 490 L212 490 L407 651 L407 655 L281 655 L187 490 Z " />
<glyph glyph-name="Aringacute" unicode="&#x1fa;" horiz-adv-x="659" d="M673 0 L673 33 L667 34 C616 41 608 51 565 152 L347 677 L314 677 L103 163 C68 73 43 44 -5 34 L-13 33 L-13 0 L193 0 L193 33 L185 33 C149 33 121 56 121 85 C121 109 123 116 152 186 L167 223 L404 223 L445 125 C463 80 464 77 464 65 C464 43 444 33 395 33 L388 33 L388 0 L673 0 Z M391 257 L180 257 L285 513 L391 257 Z M327 914 C271 914 226 869 226 813 C226 758 271 712 326 712 C383 712 428 757 428 813 C428 869 383 914 327 914 L327 914 Z M327 882 C365 882 396 851 396 813 C396 775 365 744 327 744 C288 744 258 775 258 814 C258 851 290 882 327 882 L327 882 Z M182 907 L208 907 L442 1038 L442 1042 L282 1042 L182 907 Z " />
<glyph glyph-name="aringacute" unicode="&#x1fb;" horiz-adv-x="503" d="M240 702 C184 702 139 657 139 601 C139 546 184 500 239 500 C296 500 341 545 341 601 C341 657 296 702 240 702 L240 702 Z M240 670 C278 670 309 639 309 601 C309 563 278 532 240 532 C201 532 171 563 171 602 C171 639 203 670 240 670 L240 670 Z M95 695 L121 695 L355 826 L355 830 L196 830 L95 695 Z M470 79 C465 53 452 38 434 38 C411 38 404 54 404 111 L404 282 C404 336 399 354 377 376 C349 405 305 419 241 419 C187 419 146 410 109 391 C76 373 54 346 54 321 C54 300 71 285 94 285 C121 285 137 301 143 332 C147 352 151 363 158 369 C169 379 195 386 219 386 C255 386 283 374 295 353 C302 340 304 326 304 294 L304 268 L246 245 C196 224 133 193 103 174 C58 145 39 117 39 78 C39 27 83 -10 144 -10 C193 -10 247 11 307 54 C321 11 351 -10 398 -10 C456 -10 493 24 496 79 L470 79 Z M304 234 L304 90 C263 56 228 38 200 38 C168 38 144 65 144 100 C144 151 181 184 280 224 L304 234 Z " />
<glyph glyph-name="AEacute" unicode="&#x1fc;" horiz-adv-x="900" d="M394 323 L394 161 C393 52 382 34 311 34 L297 34 L297 0 L867 0 L873 208 L841 208 C830 158 811 117 785 83 C759 48 726 36 654 35 L620 35 C530 35 516 52 517 165 L517 323 L592 323 C657 320 665 313 671 241 L672 228 L706 228 L706 455 L672 455 L672 448 C668 373 652 356 587 358 L517 358 L517 632 L646 632 C729 635 762 605 791 499 L825 499 L810 667 L243 667 L243 634 L262 634 C316 634 331 629 331 610 C331 599 325 586 303 540 L117 171 C70 80 31 40 -17 34 L-17 0 L192 0 L192 34 L188 34 C148 35 121 53 121 78 C121 93 130 119 145 149 L234 323 L394 323 Z M394 358 L252 358 L394 640 L394 358 Z M478 728 L504 728 L738 859 L738 863 L578 863 L478 728 Z " />
<glyph glyph-name="aeacute" unicode="&#x1fd;" horiz-adv-x="682" d="M607 95 C582 51 540 25 493 25 C415 25 377 91 377 225 L377 246 L646 246 C634 353 564 419 464 419 C419 419 383 406 352 378 C330 391 318 398 314 400 C291 412 253 419 217 419 C124 419 45 375 45 324 C45 304 62 289 86 289 C111 289 129 307 136 339 C139 356 141 360 146 366 C156 378 177 386 202 386 C232 386 255 375 265 357 C274 341 276 327 276 289 L276 266 C108 210 37 155 37 82 C37 29 85 -14 144 -14 C195 -14 248 16 296 72 C333 16 391 -14 463 -14 C543 -14 605 20 635 81 L607 95 Z M377 276 C382 345 413 386 461 386 C491 386 516 369 530 340 C536 326 539 308 541 276 L377 276 Z M276 98 C251 62 221 41 195 41 C162 41 137 70 137 109 C137 162 176 197 276 234 L276 98 Z M315 490 L340 490 L535 651 L535 655 L409 655 L315 490 Z " />
<glyph glyph-name="Oslashacute" unicode="&#x1fe;" horiz-adv-x="824" d="M665 594 L719 656 L693 679 L637 615 C569 658 496 679 409 679 C197 679 46 536 46 335 C46 227 87 134 165 68 L114 8 L139 -14 L192 48 C261 6 329 -13 414 -13 C629 -13 779 129 779 333 C779 439 740 529 665 594 L665 594 Z M601 521 C624 469 635 404 635 326 C635 198 605 114 542 65 C507 38 467 25 417 25 C341 25 290 49 243 106 L601 521 Z M225 137 C203 188 190 257 190 329 C190 437 216 533 257 577 C295 618 351 641 411 641 C486 641 547 610 584 553 L225 137 Z M373 728 L400 728 L633 859 L633 863 L474 863 L373 728 Z " />
<glyph glyph-name="oslashacute" unicode="&#x1ff;" horiz-adv-x="524" d="M231 500 L258 500 L491 631 L491 635 L332 635 L231 500 Z M101 43 L54 -11 L77 -32 L126 24 C164 -1 215 -16 262 -16 C392 -16 487 76 487 202 C487 268 465 320 418 362 L464 416 L440 436 L393 381 C350 408 311 419 261 419 C132 419 37 326 37 201 C37 137 59 85 101 44 L101 43 Z M157 108 C150 138 148 163 148 201 C148 329 182 385 262 385 C303 385 334 368 353 335 L157 108 Z M366 302 C374 267 376 243 376 203 C376 74 342 17 264 17 C220 17 188 36 169 74 L366 302 Z " />
<glyph glyph-name="Scommaaccent" unicode="&#x218;" horiz-adv-x="552" d="M57 9 L93 9 C98 35 104 53 115 70 C162 16 226 -13 298 -13 C421 -13 510 70 510 184 C510 235 491 283 458 318 C430 346 385 372 294 411 C186 458 148 494 148 550 C148 606 191 644 252 644 C332 644 396 584 420 485 L453 485 L453 667 L420 667 C415 641 412 632 397 613 C352 659 306 679 247 679 C140 679 60 603 60 502 C60 469 68 438 86 408 C107 369 154 335 231 299 C344 248 351 244 383 213 C402 195 414 166 414 139 C414 73 359 25 285 25 C224 25 170 56 135 113 C117 142 104 176 93 227 L57 227 L57 9 Z M230 -304 C308 -291 356 -237 356 -164 C356 -102 323 -59 275 -59 C239 -59 213 -85 213 -121 C213 -152 236 -176 265 -176 C272 -176 274 -176 286 -173 C290 -171 293 -171 295 -171 C305 -171 313 -181 313 -196 C313 -231 280 -260 230 -271 L230 -304 Z " />
<glyph glyph-name="scommaaccent" unicode="&#x219;" horiz-adv-x="377" d="M41 -12 L69 -12 C74 4 81 16 90 25 C92 24 94 23 98 19 C123 -2 163 -16 203 -16 C285 -16 343 37 343 112 C343 150 326 188 299 211 C275 231 263 237 197 259 C138 278 107 304 107 335 C107 365 137 389 175 389 C226 389 272 348 288 289 L315 289 L315 413 L289 413 C282 397 276 387 270 381 C233 407 201 419 167 419 C98 419 41 364 41 299 C41 267 56 238 87 212 C110 193 125 185 186 162 C245 140 272 114 272 79 C272 41 240 15 196 15 C135 15 92 51 70 121 L41 121 L41 -12 Z M140 -289 C214 -277 259 -226 259 -157 C259 -99 228 -59 183 -59 C149 -59 125 -83 125 -117 C125 -146 146 -169 174 -169 C179 -169 186 -168 194 -166 C199 -164 200 -164 202 -164 C212 -164 219 -174 219 -187 C219 -220 188 -248 140 -258 L140 -289 Z " />
<glyph glyph-name="uni021A" unicode="&#x21a;" horiz-adv-x="690" d="M50 497 C71 614 95 635 199 632 L283 632 L283 161 C282 52 271 34 200 33 L172 33 L172 0 L516 0 L516 33 L488 33 C417 34 406 52 405 161 L405 632 L495 632 C591 635 617 611 641 497 L674 497 L671 667 L18 667 L16 497 L50 497 Z M297 -304 C376 -291 424 -237 424 -164 C424 -102 391 -59 343 -59 C307 -59 281 -85 281 -121 C281 -152 303 -176 333 -176 C340 -176 342 -176 354 -173 C358 -171 361 -171 363 -171 C373 -171 381 -181 381 -196 C381 -231 348 -260 297 -271 L297 -304 Z " />
<glyph glyph-name="uni021B" unicode="&#x21b;" horiz-adv-x="316" d="M300 370 L300 403 L179 403 L179 532 L151 532 C140 454 87 402 21 403 L21 370 L79 370 L79 140 C79 89 85 57 98 34 C116 3 151 -16 192 -16 C248 -16 295 12 316 59 L289 70 C272 42 254 30 231 30 C213 30 198 39 190 54 C181 70 179 84 179 138 L179 370 L300 370 Z M119 -289 C193 -277 238 -226 238 -157 C238 -99 207 -59 162 -59 C128 -59 104 -83 104 -117 C104 -146 125 -169 153 -169 C158 -169 165 -168 173 -166 C178 -164 179 -164 181 -164 C191 -164 198 -174 198 -187 C198 -220 167 -248 119 -258 L119 -289 Z " />
<glyph glyph-name="uni0226" unicode="&#x226;" horiz-adv-x="659" d="M673 0 L673 33 L667 34 C616 41 608 51 565 152 L347 677 L314 677 L103 163 C68 73 43 44 -5 34 L-13 33 L-13 0 L193 0 L193 33 L185 33 C149 33 121 56 121 85 C121 109 123 116 152 186 L167 223 L404 223 L445 125 C463 80 464 77 464 65 C464 43 444 33 395 33 L388 33 L388 0 L673 0 Z M391 257 L180 257 L285 513 L391 257 Z M329 846 C296 846 270 820 270 787 C270 755 297 728 328 728 C362 728 388 754 388 787 C388 820 362 846 329 846 L329 846 Z " />
<glyph glyph-name="uni0227" unicode="&#x227;" horiz-adv-x="503" d="M240 622 C207 622 181 596 181 563 C181 531 208 504 239 504 C273 504 299 530 299 563 C299 596 273 622 240 622 L240 622 Z M470 79 C465 53 452 38 434 38 C411 38 404 54 404 111 L404 282 C404 336 399 354 377 376 C349 405 305 419 241 419 C187 419 146 410 109 391 C76 373 54 346 54 321 C54 300 71 285 94 285 C121 285 137 301 143 332 C147 352 151 363 158 369 C169 379 195 386 219 386 C255 386 283 374 295 353 C302 340 304 326 304 294 L304 268 L246 245 C196 224 133 193 103 174 C58 145 39 117 39 78 C39 27 83 -10 144 -10 C193 -10 247 11 307 54 C321 11 351 -10 398 -10 C456 -10 493 24 496 79 L470 79 Z M304 234 L304 90 C263 56 228 38 200 38 C168 38 144 65 144 100 C144 151 181 184 280 224 L304 234 Z " />
<glyph glyph-name="uni0237" unicode="&#x237;" horiz-adv-x="267" d="M203 419 L194 419 C158 409 98 398 27 389 L27 356 L40 356 C93 357 102 343 103 262 L103 -54 C103 -134 100 -156 86 -180 C74 -200 52 -214 29 -214 C10 -214 -6 -203 -14 -185 C-27 -151 -38 -141 -61 -141 C-84 -141 -102 -159 -102 -182 C-102 -220 -56 -247 8 -247 C87 -247 158 -208 184 -151 C199 -117 203 -87 203 -3 L203 419 Z " />
<glyph glyph-name="afii57929" unicode="&#x2bc;" horiz-adv-x="280" d="M70 382 C163 395 220 458 220 548 C220 621 183 671 129 671 C92 671 64 644 64 608 C64 574 90 547 123 547 C129 547 137 548 145 550 C150 552 155 553 158 553 C169 553 176 541 176 523 C176 469 135 429 70 419 L70 382 Z " />
<glyph glyph-name="circumflex" unicode="&#x2c6;" horiz-adv-x="500" d="M350 492 L378 492 L288 656 L211 656 L122 492 L148 492 L242 586 L350 492 Z " />
<glyph glyph-name="caron" unicode="&#x2c7;" horiz-adv-x="500" d="M149 656 L122 656 L214 492 L291 492 L378 656 L351 656 L259 562 L149 656 Z " />
<glyph glyph-name="uni02C9" unicode="&#x2c9;" horiz-adv-x="354" d="M33 547 L321 547 L321 590 L33 590 L33 547 Z " />
<glyph glyph-name="breve" unicode="&#x2d8;" horiz-adv-x="500" d="M113 649 L113 648 C113 625 123 591 138 564 C162 523 202 499 248 499 C322 499 377 561 383 649 L361 649 C343 598 308 575 250 575 C188 575 150 600 135 649 L113 649 Z " />
<glyph glyph-name="dotaccent" unicode="&#x2d9;" horiz-adv-x="500" d="M250 627 C222 627 200 605 200 577 C200 550 223 527 249 527 C278 527 300 549 300 577 C300 605 278 627 250 627 L250 627 Z " />
<glyph glyph-name="ring" unicode="&#x2da;" horiz-adv-x="392" d="M196 667 C143 667 100 624 100 571 C100 519 143 475 195 475 C249 475 292 517 292 571 C292 624 249 667 196 667 L196 667 Z M196 636 C232 636 261 607 261 571 C261 535 232 506 196 506 C160 506 131 535 131 572 C131 607 161 636 196 636 L196 636 Z " />
<glyph glyph-name="ogonek" unicode="&#x2db;" horiz-adv-x="500" d="M312 7 C250 -21 219 -59 219 -107 C219 -155 259 -191 312 -191 C344 -191 369 -182 403 -157 L393 -141 C372 -148 362 -150 348 -150 C315 -150 289 -122 289 -84 C289 -49 303 -24 339 7 L312 7 Z " />
<glyph glyph-name="tilde" unicode="&#x2dc;" horiz-adv-x="500" d="M118 513 C123 551 139 571 165 571 C180 571 196 564 228 543 C259 522 282 513 306 513 C366 513 401 559 401 637 L378 637 C377 598 360 577 331 577 C316 577 303 582 279 598 C240 624 216 634 190 634 C132 634 96 589 96 513 L118 513 Z " />
<glyph glyph-name="hungarumlaut" unicode="&#x2dd;" horiz-adv-x="500" d="M128 490 L153 490 L336 651 L336 655 L222 655 L128 490 Z M295 490 L320 490 L503 651 L503 655 L389 655 L295 490 Z " />
<glyph glyph-name="pi" unicode="&#x3c0;" horiz-adv-x="599" d="M541 330 C552 370 556 385 560 394 L576 437 C577 439 579 447 583 458 L544 458 C523 404 519 403 384 403 L181 403 C98 405 89 400 29 310 C26 307 23 301 17 293 L45 280 C83 321 95 329 127 330 L164 330 L164 92 C164 58 150 36 129 36 C110 36 91 47 65 75 L43 55 C94 2 123 -16 162 -16 C178 -16 196 -9 210 3 C230 22 237 44 237 92 L237 330 L370 330 L370 166 L369 91 C369 38 373 5 381 -16 L387 -16 C414 -7 480 1 533 0 L533 33 L530 33 C479 34 471 47 470 132 L470 330 L541 330 Z " />
<glyph glyph-name="uni1E1E" unicode="&#x1e1e;" horiz-adv-x="573" d="M561 667 L31 667 L31 634 L43 634 C118 634 128 619 129 511 L129 160 C128 52 117 34 46 33 L29 33 L29 0 L356 0 L356 33 L336 33 C265 33 251 54 251 160 L251 332 L311 332 C373 332 390 319 398 268 L401 229 L436 229 L436 462 L401 462 L400 441 C394 381 378 368 311 367 L251 367 L251 632 L375 632 C470 637 511 602 532 497 L566 497 L561 667 Z M296 846 C263 846 237 820 237 787 C237 755 264 728 295 728 C329 728 355 754 355 787 C355 820 329 846 296 846 L296 846 Z " />
<glyph glyph-name="Wgrave" unicode="&#x1e80;" horiz-adv-x="939" d="M698 -15 L841 479 C877 604 894 630 942 633 L948 634 L948 667 L756 667 L756 634 L760 634 C801 633 824 611 824 573 C824 551 823 547 807 493 L715 167 L528 667 L485 667 L322 167 L211 525 C201 558 195 585 195 597 C195 619 214 631 254 633 L260 634 L260 667 L-8 667 L-8 634 L0 633 C49 632 62 614 93 507 L254 -15 L296 -15 L465 500 L658 -15 L698 -15 Z M507 728 L534 728 L433 863 L274 863 L274 859 L507 728 Z " />
<glyph glyph-name="wgrave" unicode="&#x1e81;" horiz-adv-x="717" d="M386 507 L412 507 L312 642 L152 642 L152 638 L386 507 Z M522 -13 L643 287 C670 358 677 367 716 370 L719 370 L719 403 L573 403 L573 370 L581 370 C609 369 625 360 625 345 C625 339 625 338 614 307 L534 103 L413 403 L372 403 L250 103 L175 297 L166 320 C161 331 158 341 158 348 C158 363 173 370 205 370 L211 370 L211 403 L-2 403 L-2 370 L4 370 C39 368 43 364 70 297 L194 -13 L238 -13 L358 285 L479 -13 L522 -13 Z " />
<glyph glyph-name="Wacute" unicode="&#x1e82;" horiz-adv-x="939" d="M698 -15 L841 479 C877 604 894 630 942 633 L948 634 L948 667 L756 667 L756 634 L760 634 C801 633 824 611 824 573 C824 551 823 547 807 493 L715 167 L528 667 L485 667 L322 167 L211 525 C201 558 195 585 195 597 C195 619 214 631 254 633 L260 634 L260 667 L-8 667 L-8 634 L0 633 C49 632 62 614 93 507 L254 -15 L296 -15 L465 500 L658 -15 L698 -15 Z M479 728 L506 728 L739 859 L739 863 L580 863 L479 728 Z " />
<glyph glyph-name="wacute" unicode="&#x1e83;" horiz-adv-x="717" d="M369 514 L396 514 L629 645 L629 649 L470 649 L369 514 Z M522 -13 L643 287 C670 358 677 367 716 370 L719 370 L719 403 L573 403 L573 370 L581 370 C609 369 625 360 625 345 C625 339 625 338 614 307 L534 103 L413 403 L372 403 L250 103 L175 297 L166 320 C161 331 158 341 158 348 C158 363 173 370 205 370 L211 370 L211 403 L-2 403 L-2 370 L4 370 C39 368 43 364 70 297 L194 -13 L238 -13 L358 285 L479 -13 L522 -13 Z " />
<glyph glyph-name="Wdieresis" unicode="&#x1e84;" horiz-adv-x="939" d="M698 -15 L841 479 C877 604 894 630 942 633 L948 634 L948 667 L756 667 L756 634 L760 634 C801 633 824 611 824 573 C824 551 823 547 807 493 L715 167 L528 667 L485 667 L322 167 L211 525 C201 558 195 585 195 597 C195 619 214 631 254 633 L260 634 L260 667 L-8 667 L-8 634 L0 633 C49 632 62 614 93 507 L254 -15 L296 -15 L465 500 L658 -15 L698 -15 Z M380 844 C347 844 321 818 321 785 C321 753 348 726 379 726 C413 726 439 752 439 785 C439 818 413 844 380 844 L380 844 Z M632 844 C600 844 573 818 573 786 C573 752 599 726 632 726 C664 726 691 753 691 785 C691 818 665 844 632 844 L632 844 Z " />
<glyph glyph-name="wdieresis" unicode="&#x1e85;" horiz-adv-x="717" d="M522 -13 L643 287 C670 358 677 367 716 370 L719 370 L719 403 L573 403 L573 370 L581 370 C609 369 625 360 625 345 C625 339 625 338 614 307 L534 103 L413 403 L372 403 L250 103 L175 297 L166 320 C161 331 158 341 158 348 C158 363 173 370 205 370 L211 370 L211 403 L-2 403 L-2 370 L4 370 C39 368 43 364 70 297 L194 -13 L238 -13 L358 285 L479 -13 L522 -13 Z M298 627 C270 627 248 605 248 577 C248 550 271 527 297 527 C326 527 348 549 348 577 C348 605 326 627 298 627 L298 627 Z M488 627 C460 627 438 605 438 577 C438 550 460 527 487 527 C515 527 538 549 538 577 C538 605 516 627 488 627 L488 627 Z " />
<glyph glyph-name="Ygrave" unicode="&#x1ef2;" horiz-adv-x="659" d="M-13 667 L-13 634 L-7 634 C42 629 53 619 107 527 L268 262 L268 161 C267 52 256 34 185 33 L174 33 L174 0 L483 0 L483 33 L473 33 C402 34 391 52 390 161 L390 270 L537 512 C588 599 616 625 665 633 L671 634 L671 667 L450 667 L450 634 L455 634 C498 634 524 614 524 582 C524 566 517 548 496 514 L376 312 L234 548 C215 579 210 590 210 601 C210 623 231 634 273 634 L279 634 L279 667 L-13 667 Z M382 728 L408 728 L308 863 L148 863 L148 859 L382 728 Z " />
<glyph glyph-name="ygrave" unicode="&#x1ef3;" horiz-adv-x="483" d="M266 523 L292 523 L192 658 L32 658 L32 654 L266 523 Z M-5 403 L-5 371 L3 370 C34 369 42 361 71 304 L230 -12 L201 -85 C186 -121 174 -130 123 -148 C84 -162 67 -180 67 -207 C67 -231 86 -249 113 -249 C152 -249 180 -219 216 -134 L392 271 C424 347 438 364 476 370 L481 371 L481 403 L334 403 L334 371 L343 371 C371 370 384 362 384 346 C384 340 382 331 377 322 C371 308 365 295 364 293 L281 98 L178 306 C165 334 164 338 164 346 C164 360 177 369 200 370 L206 371 L206 403 L-5 403 Z " />
<glyph glyph-name="uni2011" unicode="&#x2011;" horiz-adv-x="325" d="M34 241 L34 184 L292 184 L292 241 L34 241 Z " />
<glyph glyph-name="figuredash" unicode="&#x2012;" horiz-adv-x="555" d="M20 233 L20 197 L535 197 L535 233 L20 233 Z " />
<glyph glyph-name="endash" unicode="&#x2013;" horiz-adv-x="555" d="M20 233 L20 197 L535 197 L535 233 L20 233 Z " />
<glyph glyph-name="emdash" unicode="&#x2014;" horiz-adv-x="868" d="M20 233 L20 197 L848 197 L848 233 L20 233 Z " />
<glyph glyph-name="afii00208" unicode="&#x2015;" horiz-adv-x="868" d="M20 233 L20 197 L848 197 L848 233 L20 233 Z " />
<glyph glyph-name="underscoredbl" unicode="&#x2017;" horiz-adv-x="500" d="M0 -58 L0 -105 L500 -105 L500 -58 L0 -58 Z M0 -174 L0 -222 L500 -222 L500 -174 L0 -174 Z " />
<glyph glyph-name="quoteleft" unicode="&#x2018;" horiz-adv-x="280" d="M215 671 C123 659 65 595 65 504 C65 432 102 382 155 382 C193 382 221 409 221 445 C221 479 195 506 162 506 C155 506 148 505 140 503 C135 502 130 501 127 501 C116 501 109 513 109 531 C109 584 150 624 215 634 L215 671 Z " />
<glyph glyph-name="quoteright" unicode="&#x2019;" horiz-adv-x="249" d="M55 382 C148 395 205 458 205 548 C205 621 168 671 114 671 C77 671 49 644 49 608 C49 574 75 547 108 547 C114 547 122 548 130 550 C135 552 140 553 143 553 C154 553 161 541 161 523 C161 469 120 429 55 419 L55 382 Z " />
<glyph glyph-name="quotesinglbase" unicode="&#x201a;" horiz-adv-x="280" d="M70 -178 C162 -166 220 -101 220 -11 C220 62 183 112 129 112 C92 112 64 85 64 49 C64 15 90 -12 123 -12 C130 -12 137 -11 145 -9 C150 -8 155 -7 158 -7 C169 -7 176 -19 176 -37 C176 -90 135 -131 70 -141 L70 -178 Z " />
<glyph glyph-name="quotereversed" unicode="&#x201b;" horiz-adv-x="483" d="M266 523 L292 523 L192 658 L32 658 L32 654 L266 523 Z M-5 403 L-5 371 L3 370 C34 369 42 361 71 304 L230 -12 L201 -85 C186 -121 174 -130 123 -148 C84 -162 67 -180 67 -207 C67 -231 86 -249 113 -249 C152 -249 180 -219 216 -134 L392 271 C424 347 438 364 476 370 L481 371 L481 403 L334 403 L334 371 L343 371 C371 370 384 362 384 346 C384 340 382 331 377 322 C371 308 365 295 364 293 L281 98 L178 306 C165 334 164 338 164 346 C164 360 177 369 200 370 L206 371 L206 403 L-5 403 Z " />
<glyph glyph-name="quotedblleft" unicode="&#x201c;" horiz-adv-x="507" d="M213 671 C121 659 63 595 63 504 C63 432 100 382 153 382 C191 382 219 409 219 445 C219 479 193 506 160 506 C153 506 146 505 138 503 C133 502 128 501 125 501 C114 501 107 513 107 531 C107 584 148 624 213 634 L213 671 Z M451 671 C359 659 301 595 301 505 C301 432 338 382 392 382 C429 382 457 409 457 445 C457 479 431 506 398 506 C391 506 384 505 376 503 C371 502 366 501 363 501 C352 501 345 513 345 531 C345 584 386 624 451 634 L451 671 Z " />
<glyph glyph-name="quotedblright" unicode="&#x201d;" horiz-adv-x="507" d="M58 382 C151 395 208 458 208 548 C208 621 171 671 117 671 C80 671 52 644 52 608 C52 574 78 547 111 547 C117 547 125 548 133 550 C138 552 143 553 146 553 C157 553 164 541 164 523 C164 469 123 429 58 419 L58 382 Z M297 382 C390 395 447 458 447 548 C447 621 410 671 357 671 C319 671 291 644 291 608 C291 574 317 547 350 547 C356 547 364 548 372 550 C377 552 382 553 385 553 C396 553 403 541 403 523 C403 469 362 429 297 419 L297 382 Z " />
<glyph glyph-name="quotedblbase" unicode="&#x201e;" horiz-adv-x="507" d="M56 -177 C149 -164 206 -101 206 -11 C206 62 169 112 115 112 C78 112 50 85 50 49 C50 16 76 -12 108 -12 C114 -12 122 -11 131 -9 C135 -8 139 -7 140 -7 L142 -7 L144 -6 L145 -6 C155 -6 162 -19 162 -35 C162 -90 121 -130 56 -140 L56 -177 Z M295 -177 C388 -165 445 -101 445 -11 C445 62 408 112 354 112 C317 112 289 85 289 49 C289 16 316 -12 347 -12 C353 -12 361 -11 370 -9 C374 -8 378 -7 379 -7 L382 -7 L384 -6 C394 -6 401 -19 401 -35 C401 -90 360 -130 295 -140 L295 -177 Z " />
<glyph glyph-name="dagger" unicode="&#x2020;" horiz-adv-x="465" d="M248 -242 L248 -69 C247 -46 254 117 257 146 C264 241 264 242 264 267 C264 304 260 345 254 367 C251 379 250 385 249 405 C272 404 290 400 304 393 C349 373 360 370 383 370 C413 370 435 392 435 423 C435 452 413 474 383 474 C367 474 345 469 324 460 C284 444 273 441 248 439 C250 457 262 502 274 537 C285 571 288 587 288 607 C288 644 264 671 230 671 C195 671 172 645 172 607 C172 589 176 567 184 543 C186 537 188 531 189 525 L192 518 L199 496 C204 480 206 469 208 464 C209 455 210 451 212 439 C193 440 172 445 150 455 C109 471 98 474 79 474 C52 474 30 451 30 421 C30 393 52 371 82 371 C99 371 123 377 147 387 C174 398 188 402 212 405 C212 387 212 380 208 366 C201 343 197 305 197 274 C197 254 199 216 202 173 C204 134 206 101 206 80 L206 41 C206 35 207 16 208 -11 C211 -70 212 -138 212 -215 L212 -242 L248 -242 Z " />
<glyph glyph-name="daggerdbl" unicode="&#x2021;" horiz-adv-x="472" d="M254 257 C255 265 255 270 256 275 L258 285 L259 295 L261 310 C264 329 265 345 265 360 C265 390 261 415 251 445 C276 441 288 437 323 424 C344 416 365 411 381 411 C410 411 432 432 432 461 C432 490 411 511 380 511 C364 511 339 505 315 496 C283 485 265 479 251 478 C253 496 259 519 269 548 C284 591 286 600 286 620 C286 651 264 674 235 674 C205 674 182 651 182 622 C182 604 188 579 198 553 C211 519 218 494 219 478 C199 480 182 485 161 493 C117 510 110 512 88 512 C58 512 35 490 35 461 C35 433 58 410 86 410 C102 410 125 415 146 424 C172 434 188 438 219 445 C208 408 204 385 204 360 C204 346 206 329 210 309 C215 281 216 277 217 257 L254 257 Z M217 176 C215 144 213 118 211 105 C204 68 204 65 204 52 C204 30 208 11 219 -13 C203 -12 181 -6 153 5 C127 15 103 21 87 21 C59 21 36 -1 36 -29 C36 -57 58 -78 87 -78 C105 -78 114 -76 151 -63 C193 -49 207 -45 219 -45 C218 -59 211 -84 195 -124 C185 -150 181 -167 181 -183 C181 -218 204 -242 236 -242 C266 -242 288 -219 288 -187 C288 -170 284 -150 277 -129 C259 -79 256 -70 252 -45 C268 -46 284 -50 304 -57 C351 -74 361 -77 380 -77 C410 -77 433 -55 433 -26 C433 1 410 23 382 23 C369 23 351 19 331 12 C291 -3 280 -7 252 -13 C262 11 266 29 266 51 C266 63 265 79 262 94 C256 128 256 135 254 176 L217 176 Z " />
<glyph glyph-name="bullet" unicode="&#x2022;" horiz-adv-x="667" d="M334 479 C259 479 196 416 196 342 C196 263 257 200 333 200 C409 200 471 262 471 340 C471 417 410 479 334 479 L334 479 Z " />
<glyph glyph-name="ellipsis" unicode="&#x2026;" horiz-adv-x="1007" d="M170 113 C133 113 104 84 104 48 C104 12 133 -17 169 -17 C205 -17 234 12 234 48 C234 84 205 113 170 113 L170 113 Z M504 113 C467 113 438 84 438 48 C438 12 467 -17 503 -17 C539 -17 568 12 568 48 C568 84 539 113 504 113 L504 113 Z M838 113 C801 113 772 84 772 48 C772 12 801 -17 837 -17 C873 -17 902 12 902 48 C902 84 873 113 838 113 L838 113 Z " />
<glyph glyph-name="perthousand" unicode="&#x2030;" horiz-adv-x="1044" d="M172 678 C136 678 104 666 82 645 C50 613 29 560 29 506 C29 400 82 335 169 335 C207 335 238 346 261 368 C292 398 312 452 312 508 C312 557 296 607 270 636 C246 664 214 678 172 678 L172 678 Z M172 653 C213 653 234 604 230 517 C224 394 212 361 171 361 C128 361 112 400 112 508 C112 612 129 653 172 653 L172 653 Z M206 0 L548 652 L504 652 L162 0 L206 0 Z M540 332 C504 332 472 320 450 299 C418 267 397 214 397 160 C397 54 451 -11 537 -11 C575 -11 606 0 629 22 C660 52 680 106 680 162 C680 211 664 261 638 290 C614 318 582 332 540 332 L540 332 Z M540 307 C581 307 602 258 598 171 C593 48 580 15 539 15 C496 15 480 53 480 162 C480 266 497 307 540 307 L540 307 Z M874 332 C838 332 806 320 784 299 C752 267 731 214 731 160 C731 54 784 -11 871 -11 C909 -11 940 0 963 22 C994 52 1014 106 1014 162 C1014 211 998 261 972 290 C948 318 916 332 874 332 L874 332 Z M874 307 C915 307 936 257 932 170 C927 48 914 15 873 15 C830 15 814 54 814 162 C814 266 831 307 874 307 L874 307 Z " />
<glyph glyph-name="guilsinglleft" unicode="&#x2039;" horiz-adv-x="283" d="M30 216 L217 15 L253 15 L152 216 L253 413 L217 413 L30 216 Z " />
<glyph glyph-name="guilsinglright" unicode="&#x203a;" horiz-adv-x="283" d="M250 216 L64 413 L27 413 L128 216 L27 15 L63 15 L250 216 Z " />
<glyph glyph-name="uni203E" unicode="&#x203e;" horiz-adv-x="500" d="M0 864 L0 796 L500 796 L500 864 L0 864 Z " />
<glyph glyph-name="fraction" unicode="&#x2044;" horiz-adv-x="148" d="M-75 0 L267 652 L223 652 L-119 0 L-75 0 Z " />
<glyph glyph-name="franc" unicode="&#x20a3;" horiz-adv-x="785" d="M561 667 L31 667 L31 634 L43 634 C118 634 128 619 129 511 L129 160 C128 52 117 34 46 33 L29 33 L29 0 L356 0 L356 33 L336 33 C265 33 251 54 251 160 L251 332 L311 332 C373 332 390 319 398 268 L401 229 L436 229 L436 462 L401 462 L400 441 C394 381 378 368 311 367 L251 367 L251 632 L375 632 C470 637 511 602 532 497 L566 497 L561 667 Z M466 307 L473 307 C519 306 525 296 526 221 L526 114 C524 37 520 30 474 28 L467 28 L467 0 L678 0 L678 28 L667 28 C621 30 616 38 614 114 L614 169 C614 222 618 243 633 269 C650 298 671 315 689 315 C700 315 707 309 715 295 C728 271 737 264 753 264 C775 264 791 281 791 304 C791 338 762 365 727 365 C681 365 635 330 610 276 C609 312 605 341 596 365 C538 347 523 344 466 335 L466 307 Z " />
<glyph glyph-name="lira" unicode="&#x20a4;" horiz-adv-x="712" d="M205 293 C203 282 201 275 200 270 L196 253 L194 247 L193 241 L192 239 L39 239 L27 198 L182 198 C161 120 149 78 133 37 C58 -12 23 -51 23 -88 C23 -107 41 -123 63 -123 C77 -123 89 -116 102 -100 C113 -88 141 -44 152 -20 C155 -13 159 -5 163 3 L166 9 C178 16 186 18 196 18 C222 18 244 4 289 -41 C348 -100 389 -122 441 -122 C543 -122 639 -32 639 63 C639 101 618 129 589 129 C568 129 551 113 551 94 C551 84 554 73 560 61 C574 29 576 24 576 11 C576 -30 538 -64 494 -64 C462 -64 433 -48 387 -3 C333 49 294 69 246 69 C226 69 212 66 191 57 C235 131 238 136 267 198 L448 198 L459 239 L284 239 C296 267 298 274 305 293 L473 293 L485 334 L320 334 C334 379 345 415 357 463 C392 599 403 632 423 667 C451 718 489 744 534 744 C566 744 590 731 608 703 C630 669 638 662 658 662 C679 662 696 679 696 701 C696 745 635 781 559 781 C433 781 340 694 270 512 C249 456 231 397 215 334 L72 334 L60 293 L205 293 Z " />
<glyph glyph-name="peseta" unicode="&#x20a7;" horiz-adv-x="1003" d="M29 667 L29 634 L42 634 C118 634 128 620 129 511 L129 161 C128 52 117 34 46 33 L30 33 L30 0 L355 0 L355 33 L335 33 C263 34 252 52 251 161 L251 308 L328 308 C403 308 450 314 486 330 C550 357 588 417 588 490 C588 549 566 593 520 627 C474 661 414 673 297 673 C255 673 194 672 133 670 C90 668 59 667 46 667 L29 667 Z M251 344 L251 636 C263 637 271 637 288 637 C343 637 369 632 395 617 C433 596 455 548 455 488 C455 429 433 383 396 363 C369 348 346 344 294 344 L251 344 Z M733 291 L733 317 L637 317 L637 419 L615 419 C605 357 563 316 511 317 L511 291 L557 291 L557 108 C557 67 562 42 572 24 C587 -1 615 -16 648 -16 C692 -16 728 6 746 44 L724 53 C711 31 697 21 678 21 C664 21 652 28 645 40 C638 52 637 63 637 106 L637 291 L733 291 Z M764 -13 L786 -13 C790 0 796 9 803 16 C805 16 806 15 809 12 C828 -5 860 -16 892 -16 C957 -16 1003 26 1003 86 C1003 116 990 146 968 164 C949 181 939 185 887 203 C840 218 816 239 816 263 C816 287 839 306 870 306 C910 306 948 273 960 226 L981 226 L981 325 L961 325 C954 311 950 304 945 300 C915 321 890 330 864 330 C810 330 764 286 764 234 C764 209 776 186 800 166 C819 150 830 145 879 126 C926 108 947 88 947 60 C947 30 922 9 886 9 C839 9 805 38 787 93 L764 93 L764 -13 Z " />
<glyph glyph-name="Euro" unicode="&#x20ac;" horiz-adv-x="741" d="M58 271 C83 98 211 -13 385 -13 C477 -13 553 19 610 81 C625 61 634 41 640 13 L673 13 L673 252 L640 252 C633 206 619 167 596 127 C560 67 489 28 413 28 C328 28 257 76 223 158 C210 187 203 220 198 271 L467 271 L482 308 L196 308 L196 332 L490 332 L505 369 L197 369 C201 425 209 468 220 498 C252 591 318 641 408 641 C476 641 545 608 580 559 C608 521 625 476 638 413 L670 413 L664 664 L631 664 C627 635 620 612 607 587 C555 645 474 679 389 679 C208 679 80 559 57 369 L15 369 L0 332 L55 332 L55 329 L55 321 L55 308 L15 308 L0 271 L58 271 Z " />
<glyph glyph-name="uni2101" unicode="&#x2101;" horiz-adv-x="804" d="M411 260 L411 280 L408 280 C378 285 372 291 346 351 L215 667 L196 667 L69 358 C48 304 34 286 5 281 L0 280 L0 260 L123 260 L123 280 L119 280 C97 280 80 294 80 311 C80 325 81 330 99 372 L108 394 L250 394 L274 335 C285 308 286 306 286 299 C286 286 274 280 245 280 L240 280 L240 260 L411 260 Z M242 414 L116 414 L179 568 L242 414 Z M532 5 L554 5 C557 21 560 31 567 42 C595 9 633 -8 677 -8 C751 -8 804 41 804 111 C804 142 793 171 773 191 C756 208 729 223 675 247 C609 276 587 297 587 331 C587 364 613 387 649 387 C697 387 735 351 750 291 L770 291 L770 400 L750 400 C747 384 745 379 737 368 C709 396 682 408 647 408 C582 408 534 363 534 301 C534 248 563 214 637 180 C704 149 708 146 727 128 C739 117 746 99 746 83 C746 43 713 14 669 14 C610 14 571 55 554 137 L532 137 L532 5 Z M339 0 L681 652 L637 652 L295 0 L339 0 Z " />
<glyph glyph-name="afii61248" unicode="&#x2105;" horiz-adv-x="285" d="M144 311 C111 311 85 285 85 252 C85 220 112 193 143 193 C177 193 203 219 203 252 C203 285 177 311 144 311 L144 311 Z " />
<glyph glyph-name="afii61289" unicode="&#x2113;" horiz-adv-x="500" d="M249 269 C306 329 340 370 364 411 C402 475 425 545 425 598 C425 647 400 679 362 679 C317 679 278 638 247 559 C215 481 189 383 165 258 C155 246 125 214 115 206 C100 193 95 186 95 179 C95 171 102 163 109 163 C115 163 127 172 158 201 C149 119 148 102 148 74 C148 19 173 -14 215 -14 C243 -14 266 1 291 34 C307 56 317 79 317 94 C317 104 312 109 304 109 C296 109 291 105 285 91 C268 54 251 36 234 36 C222 36 216 44 216 61 C216 95 221 126 246 256 L249 269 Z M260 334 C281 449 302 541 321 594 C330 620 347 638 362 638 C376 638 385 620 385 593 C385 516 339 420 260 334 L260 334 Z " />
<glyph glyph-name="afii61352" unicode="&#x2116;" horiz-adv-x="1056" d="M655 -14 L655 525 C652 596 675 623 745 633 L753 634 L753 667 L511 667 L511 634 L522 634 C595 627 619 601 618 530 L618 184 L232 667 L26 667 L26 634 L32 634 C108 634 120 617 124 504 L124 155 C124 98 123 87 116 75 C105 53 67 36 27 34 L22 33 L22 0 L271 0 L271 33 L262 33 C223 33 186 50 171 75 C163 90 162 93 161 155 L161 565 L620 -14 L655 -14 Z M1065 119 L741 119 L741 71 L1065 71 L1065 119 Z M902 505 C811 505 741 434 741 340 C741 240 807 172 904 172 C997 172 1065 243 1065 339 C1065 435 996 505 902 505 L902 505 Z M903 469 C945 469 962 428 962 329 C962 248 943 208 903 208 C861 208 844 247 844 343 C844 429 863 469 903 469 L903 469 Z " />
<glyph glyph-name="uni2117" unicode="&#x2117;" horiz-adv-x="285" d="M127 787 C99 787 76 764 76 736 C76 707 98 684 126 684 C155 684 178 707 178 736 C178 764 155 787 127 787 L127 787 Z M171 580 L163 580 C137 572 59 558 30 556 L30 530 L40 530 C82 530 90 519 91 454 L91 350 C89 281 84 272 42 271 L30 271 L30 245 L226 245 L226 271 L219 271 C178 272 172 281 171 350 L171 580 Z " />
<glyph glyph-name="trademark" unicode="&#x2122;" horiz-adv-x="898" d="M352 567 L352 667 L15 667 L15 567 L33 567 C36 628 53 644 110 645 L144 645 L144 348 C143 310 140 306 105 305 L84 305 L84 287 L283 287 L283 305 L262 305 C227 306 224 310 223 348 L223 645 L257 645 C314 644 331 628 334 567 L352 567 Z M369 667 L369 649 C414 649 420 645 420 621 L420 346 C420 318 408 307 371 304 L371 287 L496 287 L496 304 C459 308 445 319 446 346 L446 622 L589 287 L602 287 L744 612 L744 346 C744 313 738 306 706 305 L691 305 L691 287 L871 287 L871 305 L857 305 C827 306 821 313 821 346 L821 608 C821 641 827 648 857 649 L873 649 L873 667 L742 667 L623 395 L509 667 L369 667 Z " />
<glyph glyph-name="uni2126" unicode="&#x2126;" horiz-adv-x="768" d="M326 0 L308 155 C230 199 180 288 180 382 C180 434 195 493 221 540 C257 605 317 642 385 642 C453 642 513 605 549 540 C575 493 590 434 590 382 C590 288 540 199 462 155 L444 0 L736 0 L736 153 L712 153 C704 108 684 90 643 90 L497 90 L500 128 C535 141 557 151 580 166 C657 215 702 296 702 382 C702 449 673 522 625 578 C564 648 480 686 385 686 C290 686 206 648 145 578 C97 522 68 449 68 382 C68 296 113 215 190 166 C213 151 235 141 270 128 L273 90 L127 90 C86 90 66 108 58 153 L34 153 L34 0 L326 0 Z " />
<glyph glyph-name="estimated" unicode="&#x212e;" horiz-adv-x="525" d="M503 248 C502 306 500 322 494 354 C472 458 387 524 274 524 C130 524 39 419 39 254 C39 90 127 -8 273 -8 C384 -8 457 43 488 144 L441 144 C409 74 354 40 274 40 C230 40 193 52 168 74 C150 90 141 107 129 145 L130 248 L503 248 Z M426 287 L132 287 L132 378 C166 450 203 476 274 476 C330 476 369 459 404 418 C415 404 419 397 426 377 L426 287 Z " />
<glyph glyph-name="partialdiff" unicode="&#x2202;" horiz-adv-x="494" d="M107 674 C152 697 184 706 219 706 C321 706 379 611 379 448 C379 418 377 395 372 346 C308 396 272 412 221 412 C172 412 131 394 95 355 C51 309 26 246 26 184 C26 76 109 -10 213 -10 C282 -10 341 22 383 84 C429 152 462 286 462 403 C462 519 428 611 360 681 C312 730 259 753 195 753 C156 753 122 746 66 725 L107 674 Z M366 312 C350 201 339 158 314 107 C288 54 245 21 201 21 C146 21 113 73 113 159 C113 273 180 367 261 367 C299 367 324 354 366 312 L366 312 Z " />
</font>
</svg>
