<?xml version="1.0" encoding="UTF-8"?>
<svg xmlns="http://www.w3.org/2000/svg" xmlns:xlink="http://www.w3.org/1999/xlink" version="1.2" >
<font id="Clarendon URW Narrow Bold">
<font-face  font-family="Clarendon URW Narrow" units-per-em="1000" ascent="667" descent="-333" font-style="normal" font-weight="700" font-stretch="semi-condensed" cap-height="667" x-height="469" underline-position="-53" underline-thickness="99" />
<missing-glyph  horiz-adv-x="250" d="" />
<glyph glyph-name="NULL" d="" />
<glyph glyph-name="CR" unicode="&#xd;" horiz-adv-x="250" d="" />
<glyph glyph-name="space" unicode="&#x20;" horiz-adv-x="250" d="" />
<glyph glyph-name="exclam" unicode="&#x21;" horiz-adv-x="307" d="M177 148 C134 148 98 111 98 64 C98 18 133 -19 178 -19 C222 -19 258 18 258 62 C258 111 223 148 177 148 L177 148 Z M222 209 C227 278 230 305 234 336 C235 340 240 373 249 422 C259 483 265 538 265 581 C265 618 260 636 243 657 C226 677 205 687 179 687 C124 687 89 643 89 573 C89 540 94 493 105 429 C113 380 119 346 120 339 C122 326 125 297 129 255 C130 249 132 232 134 209 L222 209 Z " />
<glyph glyph-name="quotedbl" unicode="&#x22;" horiz-adv-x="411" d="M157 399 L184 667 L27 667 L54 399 L157 399 Z M358 399 L385 667 L228 667 L254 399 L358 399 Z " />
<glyph glyph-name="numbersign" unicode="&#x23;" horiz-adv-x="599" d="M553 296 L456 296 L469 384 L565 384 L581 495 L485 495 L512 667 L391 667 L365 495 L277 495 L305 667 L186 667 L160 495 L64 495 L48 384 L145 384 L131 296 L34 296 L18 185 L115 185 L87 0 L204 0 L232 185 L319 185 L289 0 L412 0 L440 185 L537 185 L553 296 Z M349 384 L335 296 L250 296 L263 384 L349 384 Z " />
<glyph glyph-name="dollar" unicode="&#x24;" horiz-adv-x="599" d="M270 -109 L342 -109 L342 -1 C404 4 435 12 471 33 C529 67 561 122 561 189 C561 243 540 285 497 317 C465 341 430 353 342 374 L342 534 C385 532 395 529 428 512 C405 498 398 486 398 463 C398 424 428 397 470 397 C514 397 544 427 544 471 C544 506 526 538 491 562 C454 587 417 597 342 604 L342 671 L270 671 L270 605 C197 597 165 587 131 564 C79 528 51 476 51 417 C51 353 81 302 133 275 C166 258 203 246 270 231 L270 64 C198 67 189 69 147 94 C186 102 202 118 202 150 C202 190 169 221 126 221 C77 221 42 185 42 133 C42 77 83 32 153 11 C189 0 199 -1 270 -1 L270 -109 Z M270 391 C211 407 195 424 195 465 C195 507 216 527 270 535 L270 391 Z M342 212 C404 195 422 179 422 139 C422 97 399 75 342 65 L342 212 Z " />
<glyph glyph-name="percent" unicode="&#x25;" horiz-adv-x="906" d="M232 -17 L315 -17 L670 623 L587 623 L232 -17 Z M206 622 C100 622 28 545 28 433 C28 316 98 240 206 240 C313 240 384 317 384 431 C384 546 313 622 206 622 L206 622 Z M206 554 C247 554 264 517 264 430 C264 343 247 307 205 307 C165 307 148 345 148 433 C148 516 166 554 206 554 L206 554 Z M695 365 C590 365 517 288 517 177 C517 59 587 -17 695 -17 C802 -17 873 60 873 175 C873 289 802 365 695 365 L695 365 Z M695 297 C736 297 753 260 753 173 C753 87 736 50 695 50 C654 50 637 87 637 176 C637 259 655 297 695 297 L695 297 Z " />
<glyph glyph-name="ampersand" unicode="&#x26;" horiz-adv-x="840" d="M706 233 C706 185 704 160 699 140 C691 107 668 87 638 87 C617 87 599 99 565 134 C594 176 606 194 623 225 C661 298 661 298 675 310 C689 324 709 330 745 330 L754 330 L754 415 L484 415 L484 330 C494 331 500 331 507 331 C538 331 556 322 556 306 C556 283 539 254 502 212 C464 255 450 276 384 376 C459 430 486 473 486 536 C486 623 420 685 329 685 C234 685 163 615 163 521 C163 486 170 460 194 407 C135 380 108 361 80 325 C52 288 37 242 37 189 C37 61 127 -20 269 -20 C339 -20 384 -7 454 36 C519 -6 555 -20 601 -20 C664 -20 721 2 752 38 C782 73 794 117 794 192 L794 233 L706 233 Z M329 464 C311 501 304 527 304 551 C304 577 322 596 347 596 C372 596 388 576 388 546 C388 508 371 485 329 464 L329 464 Z M243 312 C307 205 347 146 386 107 C354 88 337 82 316 82 C253 82 202 141 202 213 C202 251 213 277 243 312 L243 312 Z " />
<glyph glyph-name="quotesingle" unicode="&#x27;" horiz-adv-x="215" d="M162 399 L189 667 L27 667 L54 399 L162 399 Z " />
<glyph glyph-name="parenleft" unicode="&#x28;" horiz-adv-x="382" d="M355 -110 C287 -86 259 -61 240 -9 C219 51 209 138 209 256 C209 357 217 426 236 484 C255 544 283 570 355 597 L355 682 C241 668 188 643 130 577 C59 496 28 397 28 249 C28 90 58 -7 132 -91 C194 -161 249 -187 355 -195 L355 -110 Z " />
<glyph glyph-name="parenright" unicode="&#x29;" horiz-adv-x="382" d="M28 -195 C126 -187 175 -167 234 -109 C320 -25 355 80 355 249 C355 339 344 409 321 465 C291 540 243 599 183 637 C144 661 106 672 28 682 L28 597 C100 570 128 544 147 484 C166 426 174 357 174 256 C174 138 164 51 143 -9 C124 -61 96 -86 28 -110 L28 -195 Z " />
<glyph glyph-name="asterisk" unicode="&#x2a;" horiz-adv-x="472" d="M226 486 C194 510 186 519 164 555 C136 599 127 607 102 607 C72 607 47 579 47 545 C47 527 56 511 70 502 C83 494 85 493 128 492 C166 489 186 484 216 468 C185 453 172 449 131 446 C93 443 86 442 74 436 C58 429 47 411 47 392 C47 358 72 329 102 329 C127 329 136 337 163 382 C187 420 199 433 227 450 C225 420 219 400 202 361 C182 318 182 318 182 301 C182 271 204 251 236 251 C268 251 291 273 291 302 C291 318 287 330 271 359 C253 394 250 407 245 451 C270 435 279 425 307 383 C340 332 344 328 369 328 C400 328 424 356 424 391 C424 412 416 427 400 436 C387 443 384 444 344 446 C305 448 285 453 254 469 C281 483 295 487 341 492 C386 495 386 495 398 501 C413 510 423 528 423 547 C423 579 398 608 369 608 C345 608 335 599 308 555 C285 518 272 504 244 487 C249 528 255 548 269 577 C290 619 290 619 290 634 C290 665 266 687 234 687 C203 687 181 666 181 636 C181 619 183 613 201 578 C217 546 223 525 226 486 L226 486 Z " />
<glyph glyph-name="plus" unicode="&#x2b;" horiz-adv-x="599" d="M78 376 L78 258 L239 258 L239 94 L360 94 L360 258 L521 258 L521 376 L360 376 L360 540 L239 540 L239 376 L78 376 Z " />
<glyph glyph-name="comma" unicode="&#x2c;" horiz-adv-x="269" d="M61 -144 C115 -133 140 -121 172 -93 C210 -59 232 -12 232 39 C232 102 194 145 139 145 C93 145 57 108 57 60 C57 17 86 -16 124 -16 C131 -16 139 -15 149 -14 C133 -62 117 -75 61 -88 L61 -144 Z " />
<glyph glyph-name="hyphen" unicode="&#x2d;" horiz-adv-x="266" d="M266 160 L266 309 L0 309 L0 160 L266 160 Z " />
<glyph glyph-name="period" unicode="&#x2e;" horiz-adv-x="302" d="M151 148 C107 148 71 111 71 66 C71 17 106 -20 151 -20 C195 -20 230 17 230 64 C230 110 195 148 151 148 L151 148 Z " />
<glyph glyph-name="slash" unicode="&#x2f;" horiz-adv-x="369" d="M86 -92 L330 686 L252 686 L9 -92 L86 -92 Z " />
<glyph glyph-name="zero" unicode="0" horiz-adv-x="599" d="M302 622 C220 622 151 590 98 527 C51 471 28 398 28 306 C28 205 49 138 98 78 C150 15 219 -17 302 -17 C384 -17 453 16 505 78 C553 137 575 207 575 303 C575 399 553 468 505 527 C452 590 384 622 302 622 L302 622 Z M302 535 C364 535 391 466 391 302 C391 139 364 70 302 70 C238 70 212 139 212 306 C212 465 239 535 302 535 L302 535 Z " />
<glyph glyph-name="one" unicode="1" horiz-adv-x="599" d="M104 0 L489 0 L489 83 L453 83 C391 84 387 89 387 154 L387 605 L259 605 C236 546 195 524 104 520 L104 439 L212 439 L212 159 C213 89 212 88 145 83 L104 83 L104 0 Z " />
<glyph glyph-name="two" unicode="2" horiz-adv-x="599" d="M120 0 C136 29 149 39 174 39 C196 39 221 32 261 15 C324 -13 344 -18 383 -18 C451 -18 507 12 530 61 C543 88 549 125 549 177 L549 213 L466 213 C465 152 451 128 414 128 C408 128 401 129 396 130 C301 151 301 151 267 151 C225 151 200 144 150 118 C189 167 214 182 301 209 C403 240 424 249 464 278 C510 312 535 362 535 421 C535 542 436 622 286 622 C145 622 39 538 39 427 C39 361 78 317 137 317 C188 317 225 352 225 400 C225 437 197 467 162 467 C155 467 143 465 130 462 C152 511 182 530 236 530 C301 530 344 493 344 436 C344 389 322 355 269 322 C145 245 138 240 102 200 C62 154 38 94 38 37 C38 26 38 17 40 0 L120 0 Z " />
<glyph glyph-name="three" unicode="3" horiz-adv-x="599" d="M246 275 C297 272 312 269 328 259 C351 244 365 214 365 180 C365 109 321 67 246 67 C202 67 180 74 146 99 C198 104 223 127 223 173 C223 219 186 255 139 255 C81 255 41 211 41 147 C41 100 65 55 109 24 C148 -5 201 -18 274 -18 C345 -18 407 -9 446 8 C514 38 555 100 555 173 C555 219 539 254 506 281 C483 301 462 311 411 327 C453 337 472 345 491 363 C517 387 532 423 532 462 C532 563 443 622 291 622 C221 622 170 609 129 582 C86 553 61 506 61 456 C61 399 94 364 147 364 C194 364 228 396 228 440 C228 465 217 488 200 498 C190 504 177 506 154 506 C183 531 206 540 244 540 C311 540 353 505 353 447 C353 416 339 389 316 376 C299 366 284 362 246 358 L246 275 Z " />
<glyph glyph-name="four" unicode="4" horiz-adv-x="599" d="M214 0 L565 0 L565 83 L542 83 C488 83 477 90 478 124 L478 184 L565 184 L565 271 L478 271 L478 605 L328 605 L38 279 L38 184 L308 184 L308 144 C310 90 306 87 238 83 L214 83 L214 0 Z M132 271 L310 466 L308 271 L132 271 Z " />
<glyph glyph-name="five" unicode="5" horiz-adv-x="599" d="M88 307 L179 307 C202 336 225 347 260 347 C324 347 362 298 362 215 C362 123 316 65 243 65 C213 65 192 73 157 97 C209 105 233 129 233 172 C233 221 197 255 147 255 C89 255 50 213 50 151 C50 50 143 -18 281 -18 C444 -18 552 75 552 215 C552 288 525 348 476 385 C428 420 372 438 308 438 C258 438 234 432 181 405 L184 492 C229 485 254 482 278 482 C354 482 422 499 468 530 C498 549 519 579 519 601 C519 614 512 620 500 620 L493 620 C381 601 381 601 323 601 C246 601 205 604 105 618 L88 307 Z " />
<glyph glyph-name="six" unicode="6" horiz-adv-x="599" d="M215 329 C219 420 224 449 240 481 C260 519 305 546 349 546 C362 546 374 543 397 536 C370 521 361 506 361 480 C361 435 394 405 443 405 C494 405 532 441 532 490 C532 569 452 622 332 622 C246 622 179 597 132 546 C75 486 42 389 42 285 C42 98 145 -18 312 -18 C456 -18 554 63 554 183 C554 259 526 313 470 344 C434 363 392 374 348 374 C299 374 267 363 215 329 L215 329 Z M303 290 C347 290 373 246 373 170 C373 102 347 62 303 62 C259 62 232 106 232 177 C232 244 261 290 303 290 L303 290 Z " />
<glyph glyph-name="seven" unicode="7" horiz-adv-x="599" d="M184 0 L357 0 C361 183 376 230 487 416 C544 513 552 536 552 590 L552 605 L479 605 C479 577 467 565 438 565 C424 565 411 569 372 587 C335 604 303 612 271 612 C215 612 183 593 137 532 L137 605 L47 605 L47 324 L137 324 C136 340 136 352 136 362 C136 432 164 469 216 469 C227 469 248 466 267 463 C302 455 320 453 338 453 C375 453 392 457 426 473 C398 436 389 425 317 351 C247 279 225 243 205 171 C192 124 184 72 184 30 L184 0 Z " />
<glyph glyph-name="eight" unicode="8" horiz-adv-x="599" d="M150 299 C74 271 37 225 37 159 C37 46 128 -17 290 -17 C383 -17 445 0 497 41 C544 77 566 123 566 183 C566 267 529 316 436 355 C508 389 534 420 534 474 C534 565 442 623 299 623 C232 623 174 608 136 581 C89 548 61 495 61 440 C61 379 87 339 150 299 L150 299 Z M223 255 C367 202 405 177 405 139 C405 89 362 61 288 61 C209 61 160 100 160 162 C160 202 176 226 223 255 L223 255 Z M362 390 C294 414 258 427 256 428 C228 441 216 458 216 482 C216 519 251 543 307 543 C372 543 410 515 410 468 C410 436 397 414 362 390 L362 390 Z " />
<glyph glyph-name="nine" unicode="9" horiz-adv-x="599" d="M379 275 C376 185 371 156 354 124 C334 85 289 58 245 58 C233 58 220 61 198 68 C225 84 234 98 234 124 C234 169 201 199 152 199 C101 199 63 164 63 115 C63 35 142 -17 263 -17 C349 -17 416 8 463 59 C520 118 553 215 553 319 C553 507 450 622 283 622 C139 622 41 541 41 422 C41 346 69 293 125 261 C161 242 203 231 246 231 C296 231 328 242 379 275 L379 275 Z M292 542 C336 542 363 498 363 428 C363 362 334 315 292 315 C248 315 222 359 222 434 C222 502 248 542 292 542 L292 542 Z " />
<glyph glyph-name="colon" unicode="&#x3a;" horiz-adv-x="302" d="M184 448 C140 448 104 411 104 366 C104 317 139 280 184 280 C228 280 263 317 263 364 C263 410 228 448 184 448 L184 448 Z M184 148 C140 148 104 111 104 66 C104 18 139 -19 184 -19 C228 -19 263 18 263 65 C263 111 228 148 184 148 L184 148 Z " />
<glyph glyph-name="semicolon" unicode="&#x3b;" horiz-adv-x="307" d="M174 448 C130 448 94 411 94 366 C94 317 129 280 174 280 C218 280 253 317 253 364 C253 410 218 448 174 448 L174 448 Z M93 -144 C147 -133 173 -121 204 -93 C242 -59 264 -12 264 39 C264 102 226 145 171 145 C125 145 89 108 89 60 C89 17 118 -16 156 -16 C163 -16 171 -15 181 -14 C165 -62 149 -75 93 -88 L93 -144 Z " />
<glyph glyph-name="less" unicode="&#x3c;" horiz-adv-x="475" d="M444 637 L32 404 L32 264 L444 30 L444 196 L200 333 L444 470 L444 637 Z " />
<glyph glyph-name="equal" unicode="&#x3d;" horiz-adv-x="599" d="M78 459 L78 348 L521 348 L521 459 L78 459 Z M78 286 L78 175 L521 175 L521 286 L78 286 Z " />
<glyph glyph-name="greater" unicode="&#x3e;" horiz-adv-x="475" d="M32 637 L32 470 L276 333 L32 196 L32 30 L444 264 L444 404 L32 637 Z " />
<glyph glyph-name="question" unicode="&#x3f;" horiz-adv-x="542" d="M227 211 L321 211 C330 264 339 277 396 318 C489 384 518 428 518 503 C518 611 425 687 292 687 C164 687 70 602 70 486 C70 414 110 361 164 361 C219 361 253 394 253 446 C253 491 226 520 186 520 C175 520 165 518 145 511 C150 559 189 592 240 592 C294 592 336 552 336 500 C336 466 321 424 295 385 C246 315 246 315 237 286 C230 267 227 251 227 230 L227 211 Z M274 148 C231 148 194 111 194 66 C194 18 229 -19 275 -19 C319 -19 354 18 354 65 C354 111 318 148 274 148 L274 148 Z " />
<glyph glyph-name="at" unicode="&#x40;" horiz-adv-x="702" d="M454 493 L447 454 C429 485 393 504 353 504 C264 504 186 410 186 302 C186 212 244 144 321 144 C369 144 414 168 439 207 C448 174 478 152 514 152 C596 152 671 263 671 385 C671 556 543 682 369 682 C180 682 32 526 32 328 C32 232 70 138 133 75 C193 15 272 -15 370 -15 C441 -15 511 -4 567 16 L548 95 C491 74 434 64 374 64 C291 64 232 87 188 135 C143 185 117 255 117 327 C117 483 229 603 373 603 C503 603 594 513 594 384 C594 306 554 224 517 224 C503 224 495 237 495 256 C495 264 496 269 502 300 L537 493 L454 493 Z M367 410 C402 410 426 381 426 338 C426 283 388 233 347 233 C311 233 286 262 286 305 C286 361 324 410 367 410 L367 410 Z " />
<glyph glyph-name="A" unicode="A" horiz-adv-x="675" d="M-14 0 L263 0 L263 87 L231 87 C192 87 180 92 180 110 C180 116 182 125 186 138 L209 214 L391 214 L416 132 C418 125 420 115 420 110 C420 93 406 87 363 87 L336 87 L336 0 L686 0 L686 87 L654 87 C615 88 604 98 588 149 L432 667 L244 667 L82 152 C65 97 57 90 8 87 L-14 87 L-14 0 Z M365 301 L237 301 L302 512 L365 301 Z " />
<glyph glyph-name="B" unicode="B" horiz-adv-x="698" d="M19 0 L381 0 C488 0 547 11 590 37 C634 64 661 118 661 181 C661 233 644 272 611 302 C584 325 559 336 499 352 C545 370 564 382 585 403 C614 432 629 469 629 510 C629 558 608 603 573 629 C536 656 484 667 391 667 L19 667 L19 580 L52 580 C100 579 106 573 106 522 L106 144 C106 94 100 88 52 87 L19 87 L19 0 Z M292 87 L292 305 L341 305 C425 305 464 271 464 198 C464 162 453 131 435 112 C417 94 390 87 342 87 L292 87 Z M292 389 L292 580 L338 580 C413 580 444 553 444 488 C444 419 411 389 334 389 L292 389 Z " />
<glyph glyph-name="C" unicode="C" horiz-adv-x="693" d="M552 258 C547 195 538 167 514 135 C488 98 452 80 407 80 C306 80 249 173 249 336 C249 495 307 589 405 589 C451 589 490 570 518 534 C543 501 553 471 560 404 L652 404 L652 675 L565 675 L546 622 C473 673 435 686 359 686 C265 686 191 656 129 592 C64 524 33 441 33 335 C33 225 66 137 131 71 C194 8 266 -19 373 -19 C489 -19 570 21 614 99 C638 142 648 183 652 258 L552 258 Z " />
<glyph glyph-name="D" unicode="D" horiz-adv-x="755" d="M19 0 L357 0 C487 0 562 20 624 72 C692 129 727 217 727 334 C727 450 692 538 624 595 C562 647 487 667 357 667 L19 667 L19 580 L52 580 C100 579 106 573 106 522 L106 145 C106 94 100 88 52 87 L19 87 L19 0 Z M292 87 L292 580 L352 580 C405 580 436 569 462 542 C493 508 511 434 511 335 C511 253 500 190 479 149 C458 110 413 87 357 87 L292 87 Z " />
<glyph glyph-name="E" unicode="E" horiz-adv-x="708" d="M19 0 L645 0 L645 275 L562 275 C545 118 513 86 377 87 L294 87 L294 301 L310 301 C381 303 391 290 396 191 L473 191 L473 495 L396 495 C394 408 380 390 310 390 L294 390 L294 580 L374 580 C516 582 541 560 562 413 L645 413 L645 667 L19 667 L19 580 L52 580 C102 579 109 573 108 522 L108 145 C109 94 102 88 52 87 L19 87 L19 0 Z " />
<glyph glyph-name="F" unicode="F" horiz-adv-x="651" d="M19 0 L387 0 L387 87 L349 87 C300 88 293 94 294 145 L294 301 C296 302 298 302 299 302 C320 304 342 299 353 289 C367 277 372 258 375 191 L454 191 L454 495 L375 495 C373 406 361 391 294 389 L294 580 L341 580 C487 584 515 555 530 394 L613 394 L613 667 L19 667 L19 580 L52 580 C102 579 109 573 108 522 L108 145 C109 94 102 88 52 87 L19 87 L19 0 Z " />
<glyph glyph-name="G" unicode="G" horiz-adv-x="736" d="M570 -7 L661 -7 L661 222 C662 258 670 266 702 266 L734 266 L734 353 L388 353 L388 266 L432 266 C471 265 475 260 475 215 L475 168 C475 134 472 116 463 105 C451 90 418 78 387 78 C340 78 299 102 281 141 C260 184 249 250 249 334 C249 505 296 587 394 587 C439 587 477 571 502 540 C526 510 537 478 547 405 L640 405 L640 673 L551 673 L534 625 C460 673 422 686 350 686 C162 686 33 539 33 324 C33 115 155 -20 347 -20 C421 -20 464 -6 546 44 L570 -7 Z " />
<glyph glyph-name="H" unicode="H" horiz-adv-x="778" d="M17 0 L364 0 L364 87 L347 87 C298 88 291 94 292 144 L292 301 L487 301 L487 144 C488 94 481 88 432 87 L415 87 L415 0 L762 0 L762 87 L729 87 C679 88 673 94 673 144 L673 522 C672 572 679 578 729 579 L762 579 L762 667 L415 667 L415 579 L432 579 C481 578 488 572 487 522 L487 391 L292 391 L292 522 C291 572 298 578 347 579 L364 579 L364 667 L17 667 L17 579 L50 579 C100 578 107 572 106 522 L106 144 C107 94 100 88 50 87 L17 87 L17 0 Z " />
<glyph glyph-name="I" unicode="I" horiz-adv-x="415" d="M21 0 L395 0 L395 87 L358 87 C309 88 302 94 303 144 L303 522 C302 572 309 578 358 579 L395 579 L395 667 L21 667 L21 579 L58 579 C107 578 114 572 113 522 L113 144 C114 94 107 88 58 87 L21 87 L21 0 Z " />
<glyph glyph-name="J" unicode="J" horiz-adv-x="575" d="M195 580 L233 580 C282 579 289 573 288 522 L288 224 C288 160 284 140 269 116 C253 91 224 77 191 77 C150 77 126 91 97 130 C113 126 130 123 140 123 C180 123 209 157 209 203 C209 257 170 295 117 295 C56 295 14 244 14 171 C14 57 107 -19 244 -19 C316 -19 379 2 418 38 C461 76 478 130 478 224 L478 522 C477 573 484 579 533 580 L565 580 L565 667 L195 667 L195 580 Z " />
<glyph glyph-name="K" unicode="K" horiz-adv-x="759" d="M19 0 L366 0 L366 87 L346 87 C297 88 291 94 291 145 L291 217 L386 308 L490 127 C494 119 497 112 497 107 C497 93 484 87 454 87 L426 87 L426 0 L767 0 L767 87 L740 87 C715 88 701 98 682 130 L512 423 L621 523 C670 568 688 578 718 579 L748 579 L748 667 L432 667 L432 579 L476 579 C501 579 512 574 512 563 C512 556 506 546 497 538 L291 346 L291 522 C291 572 297 579 346 579 L366 579 L366 667 L19 667 L19 579 L52 579 C102 579 109 572 108 522 L108 145 C109 94 102 88 52 87 L19 87 L19 0 Z " />
<glyph glyph-name="L" unicode="L" horiz-adv-x="651" d="M19 667 L19 580 L52 580 C102 579 109 573 108 522 L108 144 C109 94 102 88 52 87 L19 87 L19 0 L613 0 L613 272 L530 272 C516 112 487 83 341 87 L294 87 L294 522 C293 573 300 579 349 580 L387 580 L387 667 L19 667 Z " />
<glyph glyph-name="M" unicode="M" horiz-adv-x="925" d="M290 87 L273 87 C223 88 216 94 217 145 L217 562 L366 0 L494 0 L647 561 L647 145 C647 94 641 88 592 87 L575 87 L575 0 L907 0 L907 87 L876 87 C827 88 820 94 821 145 L821 522 C820 573 827 579 876 580 L907 580 L907 667 L577 667 L462 257 L351 667 L19 667 L19 580 L49 580 C100 579 107 572 106 522 L106 145 C107 94 100 88 49 87 L19 87 L19 0 L290 0 L290 87 Z " />
<glyph glyph-name="N" unicode="N" horiz-adv-x="774" d="M19 580 L52 580 C102 579 109 573 108 522 L108 145 C109 94 102 88 52 87 L19 87 L19 0 L312 0 L312 87 L277 87 C226 88 219 94 220 145 L220 496 L477 0 L674 0 L674 522 C673 573 680 579 731 580 L759 580 L759 667 L470 667 L470 580 L505 580 C556 579 563 573 562 522 L562 201 L322 667 L19 667 L19 580 Z " />
<glyph glyph-name="O" unicode="O" horiz-adv-x="774" d="M387 687 C276 687 194 657 129 594 C66 534 32 443 32 339 C32 223 63 138 129 73 C193 10 276 -20 388 -20 C608 -20 742 113 742 333 C742 554 609 687 387 687 L387 687 Z M387 595 C434 595 472 572 494 530 C517 488 526 430 526 333 C526 236 517 182 494 137 C473 95 435 72 387 72 C339 72 301 95 280 137 C257 182 248 236 248 338 C248 516 291 595 387 595 L387 595 Z " />
<glyph glyph-name="P" unicode="P" horiz-adv-x="689" d="M294 292 L410 292 C510 292 559 304 600 338 C639 369 660 419 660 478 C660 536 640 585 604 617 C564 653 510 667 410 667 L19 667 L19 579 L52 579 C102 579 109 572 108 522 L108 145 C109 94 102 88 52 87 L19 87 L19 0 L393 0 L393 87 L349 87 C300 88 293 94 294 145 L294 292 Z M294 379 L294 579 L350 579 C434 579 465 552 465 480 C465 406 434 379 350 379 L294 379 Z " />
<glyph glyph-name="Q" unicode="Q" horiz-adv-x="821" d="M761 176 C756 110 748 93 720 93 C704 93 693 100 677 122 C729 215 743 262 743 342 C743 443 709 531 646 594 C584 657 499 687 388 687 C277 687 193 657 130 594 C66 531 33 442 33 333 C33 119 168 -20 375 -20 C443 -20 487 -10 573 26 C629 -31 654 -46 694 -46 C738 -46 775 -21 796 22 C813 58 819 93 823 176 L761 176 Z M492 109 C447 76 421 66 383 66 C328 66 291 95 291 139 C291 175 317 201 352 201 C397 201 436 175 492 109 L492 109 Z M256 198 C249 268 247 302 247 340 C247 511 294 595 389 595 C482 595 526 512 526 335 C526 309 525 291 523 250 C458 301 425 316 377 316 C343 316 317 305 295 283 C276 263 267 243 256 198 L256 198 Z " />
<glyph glyph-name="R" unicode="R" horiz-adv-x="759" d="M382 87 L349 87 C300 88 293 94 294 145 L294 304 L368 304 C442 302 453 290 454 214 L454 151 C454 83 464 49 492 21 C519 -6 557 -19 607 -19 C713 -19 754 33 754 170 L754 185 L690 185 C689 116 687 106 678 92 C674 85 665 81 657 81 C638 81 631 99 631 153 L631 217 C628 304 604 333 519 350 C569 363 591 372 613 390 C646 417 664 457 664 503 C664 552 643 599 608 626 C570 655 520 667 436 667 L19 667 L19 579 L52 579 C102 579 109 572 108 522 L108 145 C109 94 102 88 52 87 L19 87 L19 0 L382 0 L382 87 Z M294 391 L294 579 L365 579 C410 579 429 574 445 558 C462 541 470 517 470 483 C470 413 443 391 358 391 L294 391 Z " />
<glyph glyph-name="S" unicode="S" horiz-adv-x="632" d="M117 -9 L142 40 C172 18 187 11 218 2 C261 -11 310 -19 345 -19 C372 -19 410 -14 443 -6 C487 5 514 18 541 42 C584 80 609 137 609 198 C609 265 583 321 534 358 C490 391 440 408 294 441 C229 455 208 473 208 511 C208 557 247 588 305 588 C349 588 398 573 426 551 C462 524 477 494 489 430 L576 430 L576 674 L497 674 L478 627 C416 670 371 683 288 683 C125 683 30 605 30 470 C30 439 36 411 48 386 C71 337 105 308 167 286 C208 271 272 253 317 244 C400 226 427 205 427 158 C427 109 384 78 316 78 C266 78 224 94 188 127 C151 160 138 187 125 253 L40 253 L40 -9 L117 -9 Z " />
<glyph glyph-name="T" unicode="T" horiz-adv-x="656" d="M636 667 L20 667 L20 410 L105 410 C107 532 145 580 236 578 L236 166 C236 106 235 101 222 95 C210 89 183 86 140 86 L140 0 L516 0 L516 86 C470 86 447 89 435 95 C421 102 420 107 420 167 L420 578 C511 580 549 532 551 410 L636 410 L636 667 Z " />
<glyph glyph-name="U" unicode="U" horiz-adv-x="726" d="M19 582 L43 583 C91 583 103 563 103 482 L103 189 C103 126 119 82 157 46 C204 2 269 -20 357 -20 C532 -20 626 56 626 197 L626 479 C627 558 627 558 637 570 C649 578 662 580 711 582 L711 667 L428 667 L428 582 L446 582 C510 582 518 570 518 479 L518 210 C518 157 512 136 492 113 C473 91 437 79 393 79 C360 79 335 87 317 105 C294 126 287 154 287 217 L287 485 C287 549 290 563 303 573 C312 579 328 583 346 583 C354 583 365 583 378 582 L378 667 L19 667 L19 582 Z " />
<glyph glyph-name="V" unicode="V" horiz-adv-x="679" d="M428 0 L580 484 C609 570 614 574 683 582 L683 667 L408 667 L408 582 C422 583 435 583 445 583 C475 583 492 573 492 555 C492 547 491 542 481 511 L373 170 L273 494 C262 532 260 541 260 555 C260 575 277 584 319 584 C326 584 336 583 349 582 L349 667 L-5 667 L-5 582 C60 576 71 568 91 503 L252 0 L428 0 Z " />
<glyph glyph-name="W" unicode="W" horiz-adv-x="920" d="M210 0 L384 0 L461 283 L536 0 L699 0 L831 505 C843 559 864 579 911 582 L911 667 L668 667 L668 582 C717 582 737 573 737 552 C737 547 735 534 731 520 L644 168 L564 523 C562 534 560 546 560 553 C560 574 571 582 600 582 L624 582 L624 667 L330 667 L330 582 C386 576 393 567 416 463 L330 168 L243 506 C233 546 233 546 233 554 C233 574 248 582 288 582 L288 667 L5 667 L5 582 C56 571 65 559 88 471 L210 0 Z " />
<glyph glyph-name="X" unicode="X" horiz-adv-x="722" d="M9 0 L302 0 L302 85 C294 84 284 84 281 84 C253 84 239 92 239 107 C239 118 245 131 259 149 L331 243 L398 146 C416 119 417 118 417 111 C417 90 404 85 352 85 L352 0 L706 0 L706 85 C698 84 689 84 683 84 C651 84 632 97 599 144 L447 360 L581 531 C608 568 635 581 684 581 L684 667 L407 667 L407 581 C449 581 465 575 465 557 C465 550 461 543 451 529 L376 436 L313 530 C303 545 300 552 300 559 C300 574 315 582 340 582 C344 582 351 582 358 581 L358 667 L24 667 L24 581 C67 579 83 570 113 530 L261 321 L122 140 C84 91 72 86 9 85 L9 0 Z " />
<glyph glyph-name="Y" unicode="Y" horiz-adv-x="736" d="M563 85 L521 85 C472 83 464 93 464 153 L464 275 L598 503 C635 567 653 579 712 582 L712 667 L443 667 L443 582 L453 582 C496 582 511 577 511 561 C511 551 507 539 500 527 L412 391 L336 512 C313 548 313 549 313 561 C313 574 328 582 354 582 L387 582 L387 667 L24 667 L24 582 C93 575 111 563 146 504 L279 275 L279 153 C279 93 271 83 223 85 L181 85 L181 0 L563 0 L563 85 Z " />
<glyph glyph-name="Z" unicode="Z" horiz-adv-x="613" d="M24 0 L594 0 L594 271 L500 271 C491 124 462 90 344 85 L231 85 L594 570 L594 667 L41 667 L41 414 L125 414 C133 541 167 577 278 577 L382 577 L24 91 L24 0 Z " />
<glyph glyph-name="bracketleft" unicode="&#x5b;" horiz-adv-x="382" d="M342 -182 L342 -92 L241 -92 L241 580 L342 580 L342 667 L75 667 L75 -182 L342 -182 Z " />
<glyph glyph-name="backslash" unicode="&#x5c;" horiz-adv-x="369" d="M282 -92 L359 -92 L117 686 L38 686 L282 -92 Z " />
<glyph glyph-name="bracketright" unicode="&#x5d;" horiz-adv-x="382" d="M38 -182 L304 -182 L304 667 L38 667 L38 580 L139 580 L139 -92 L38 -92 L38 -182 Z " />
<glyph glyph-name="asciicircum" unicode="&#x5e;" horiz-adv-x="475" d="M151 345 L238 559 L325 345 L465 345 L326 671 L150 671 L11 345 L151 345 Z " />
<glyph glyph-name="underscore" unicode="&#x5f;" horiz-adv-x="500" d="M0 -53 L0 -152 L500 -152 L500 -53 L0 -53 Z " />
<glyph glyph-name="grave" unicode="&#x60;" horiz-adv-x="489" d="M324 534 L181 686 C147 722 126 735 101 735 C69 735 44 711 44 679 C44 654 59 637 97 618 L266 534 L324 534 Z " />
<glyph glyph-name="a" unicode="a" horiz-adv-x="580" d="M569 173 L509 173 L509 132 C509 100 503 87 489 87 C476 87 469 103 469 132 L469 313 C469 390 463 413 438 436 C406 467 340 486 263 486 C130 486 48 437 48 358 C48 313 81 282 128 282 C170 282 203 310 203 344 C203 378 184 397 147 402 C171 418 187 422 219 422 C276 422 313 392 313 345 C313 319 301 296 281 285 C264 276 237 267 187 256 C110 239 95 234 70 213 C43 191 28 156 28 116 C28 35 83 -18 168 -18 C232 -18 273 1 322 54 C345 2 376 -17 437 -17 C482 -17 517 -3 541 23 C562 47 569 71 569 127 L569 173 Z M309 162 C309 111 287 82 249 82 C220 82 198 105 198 136 C198 144 200 153 203 159 C213 176 213 177 268 206 C274 209 291 220 309 231 L309 162 Z " />
<glyph glyph-name="b" unicode="b" horiz-adv-x="580" d="M219 55 C269 0 304 -18 364 -18 C482 -18 547 70 547 229 C547 386 477 484 366 484 C312 484 275 465 231 415 L231 667 L0 667 L0 586 L27 586 C61 586 68 579 68 539 L68 -2 L175 -2 L219 55 Z M300 392 C346 392 368 341 368 232 C368 121 346 69 300 69 C253 69 231 123 231 240 C231 342 254 392 300 392 L300 392 Z " />
<glyph glyph-name="c" unicode="c" horiz-adv-x="472" d="M352 165 C347 102 326 75 281 75 C225 75 199 128 199 242 C199 349 231 403 294 403 C319 403 332 397 354 375 C328 374 315 370 305 361 C290 348 281 326 281 302 C281 255 312 224 359 224 C418 224 455 263 455 325 C455 421 375 486 258 486 C114 486 24 390 24 236 C24 165 43 102 78 57 C117 7 175 -17 255 -17 C322 -17 371 2 405 41 C436 76 449 110 452 165 L352 165 Z " />
<glyph glyph-name="d" unicode="d" horiz-adv-x="585" d="M266 586 L299 586 C339 586 348 577 346 539 L346 415 C301 465 265 484 210 484 C98 484 28 386 28 229 C28 69 94 -18 216 -18 C280 -18 314 1 358 64 L358 0 L570 0 L570 79 L551 79 C517 79 512 86 511 126 L511 667 L266 667 L266 586 Z M277 392 C324 392 346 341 346 232 C346 121 324 69 277 69 C229 69 207 123 207 240 C207 342 230 392 277 392 L277 392 Z " />
<glyph glyph-name="e" unicode="e" horiz-adv-x="524" d="M380 159 C375 134 370 118 361 108 C344 89 315 77 285 77 C253 77 229 89 214 112 C199 135 194 159 193 214 L499 214 C498 296 497 302 481 343 C447 433 370 483 265 483 C120 483 28 386 28 233 C28 82 122 -17 266 -17 C387 -17 462 41 492 159 L380 159 Z M195 294 C198 335 201 351 210 366 C221 385 245 398 269 398 C292 398 313 386 325 367 C335 351 339 333 340 294 L195 294 Z " />
<glyph glyph-name="f" unicode="f" horiz-adv-x="358" d="M24 0 L332 0 L332 85 L306 85 C254 85 254 85 251 156 L251 386 L332 386 L332 469 L251 469 L251 532 C251 567 252 577 256 588 C262 605 281 618 300 618 C308 618 320 616 332 613 C305 598 297 585 297 560 C297 527 326 500 361 500 C401 500 429 531 429 574 C429 640 367 685 275 685 C210 685 152 661 121 621 C100 593 94 565 94 496 L94 469 L24 469 L24 386 L94 386 L94 155 C93 103 93 101 85 94 C78 88 66 85 44 85 L24 85 L24 0 Z " />
<glyph glyph-name="g" unicode="g" horiz-adv-x="609" d="M109 156 C55 128 36 104 36 61 C36 19 54 -8 102 -40 C49 -57 28 -79 28 -119 C28 -183 107 -216 257 -216 C353 -216 437 -204 470 -185 C512 -161 538 -115 538 -64 C538 -8 511 34 464 51 C426 65 426 65 310 65 C214 65 195 66 177 69 C153 74 141 85 141 102 C141 110 145 117 155 128 C199 115 219 111 249 111 C302 111 355 126 394 151 C439 181 466 236 466 298 C466 340 458 367 435 405 C459 427 475 437 489 437 C497 437 502 434 511 425 C493 404 487 392 487 374 C487 341 513 316 547 316 C586 316 611 345 611 389 C611 445 567 486 506 486 C470 486 447 476 405 441 C353 476 321 486 264 486 C132 486 53 415 53 296 C53 241 66 209 109 156 L109 156 Z M286 -66 C331 -66 373 -69 400 -74 C422 -78 433 -88 433 -103 C433 -123 423 -131 389 -139 C362 -145 331 -147 281 -147 C182 -147 136 -134 136 -105 C136 -92 148 -79 165 -75 C187 -70 235 -66 286 -66 L286 -66 Z M258 423 C291 423 302 391 302 298 C302 210 289 176 256 176 C227 176 213 215 213 295 C213 386 226 423 258 423 L258 423 Z " />
<glyph glyph-name="h" unicode="h" horiz-adv-x="623" d="M19 0 L298 0 L298 80 L289 80 C255 81 249 88 249 127 L249 270 C249 355 270 392 320 392 C361 392 381 364 381 308 L381 127 C380 88 374 81 340 80 L331 80 L331 0 L609 0 L609 80 L589 80 C554 81 547 88 547 127 L547 308 C547 384 539 415 515 441 C490 467 449 482 401 482 C336 482 296 462 241 402 L241 667 L19 667 L19 586 L41 586 C76 586 83 578 83 539 L83 127 C83 88 76 81 41 80 L19 80 L19 0 Z " />
<glyph glyph-name="i" unicode="i" horiz-adv-x="340" d="M167 673 C122 673 84 636 84 591 C84 544 120 507 167 507 C213 507 250 544 250 590 C250 636 212 673 167 673 L167 673 Z M24 387 L54 387 C94 385 97 381 96 328 L96 127 C96 88 90 81 52 80 L24 80 L24 0 L322 0 L322 80 L299 80 C265 81 261 86 260 127 L260 469 L24 469 L24 387 Z " />
<glyph glyph-name="j" unicode="j" horiz-adv-x="331" d="M269 467 L29 467 L29 386 L58 386 C97 386 105 377 104 328 L104 -76 C104 -109 102 -127 98 -136 C92 -146 81 -153 68 -153 C60 -153 47 -150 33 -145 C55 -128 62 -117 62 -97 C62 -62 38 -34 7 -34 C-32 -34 -61 -67 -61 -110 C-61 -174 -3 -217 83 -217 C175 -217 231 -189 256 -131 C268 -101 269 -96 269 -15 L269 467 Z M185 673 C140 673 102 636 102 591 C102 544 138 507 185 507 C231 507 268 544 268 590 C268 635 230 673 185 673 L185 673 Z " />
<glyph glyph-name="k" unicode="k" horiz-adv-x="627" d="M246 667 L19 667 L19 586 L42 586 C82 585 85 581 85 527 L85 128 C84 87 79 82 40 83 L19 83 L19 0 L288 0 L288 83 L280 83 C250 83 246 88 246 128 L246 150 L319 214 L371 121 C377 111 380 102 380 96 C380 85 375 83 337 83 L337 0 L613 0 L613 83 L600 82 C572 81 555 91 538 120 L432 306 L490 357 C516 381 530 386 565 386 L580 386 L580 469 L307 469 L307 386 C329 387 343 388 350 388 C370 388 378 385 378 377 C378 373 375 368 369 363 L246 256 L246 667 Z " />
<glyph glyph-name="l" unicode="l" horiz-adv-x="330" d="M247 667 L14 667 L14 587 L41 587 C78 587 82 581 83 528 L83 127 C83 88 77 81 39 81 L14 81 L14 0 L311 0 L311 81 L287 81 C251 82 247 86 247 127 L247 667 Z " />
<glyph glyph-name="m" unicode="m" horiz-adv-x="892" d="M19 0 L290 0 L290 80 C256 82 250 88 251 127 L251 283 C251 355 272 392 313 392 C350 392 366 367 366 308 L366 127 C367 92 356 81 318 80 L318 0 L576 0 L576 80 C535 82 530 88 531 133 L531 287 C531 355 553 392 594 392 C631 392 647 367 647 308 L647 127 C646 90 638 81 606 80 L606 0 L878 0 L878 80 L858 80 C817 81 811 87 812 127 L812 308 C812 378 803 413 779 442 C756 468 716 483 671 483 C610 483 568 461 521 406 C496 460 458 482 390 482 C322 482 289 465 238 403 L238 469 L19 469 L19 389 L42 389 C77 388 84 381 84 342 L84 127 C84 88 77 81 42 80 L19 80 L19 0 Z " />
<glyph glyph-name="n" unicode="n" horiz-adv-x="627" d="M19 0 L301 0 L301 80 L292 80 C258 81 252 88 251 127 L251 286 C251 354 276 392 322 392 C363 392 383 364 383 308 L383 127 C382 88 376 81 342 80 L333 80 L333 0 L611 0 L611 80 L591 80 C556 81 549 88 549 127 L549 308 C549 384 541 415 516 441 C492 467 449 482 402 482 C332 482 290 460 239 396 L239 469 L19 469 L19 389 L43 389 C78 388 85 381 85 342 L85 127 C85 88 78 81 43 80 L19 80 L19 0 Z " />
<glyph glyph-name="o" unicode="o" horiz-adv-x="561" d="M280 486 C122 486 22 390 22 238 C22 78 119 -17 281 -17 C440 -17 538 79 538 234 C538 390 440 486 280 486 L280 486 Z M280 401 C339 401 359 360 359 234 C359 109 339 68 280 68 C220 68 201 109 201 237 C201 360 221 401 280 401 L280 401 Z " />
<glyph glyph-name="p" unicode="p" horiz-adv-x="585" d="M14 389 L34 389 C69 388 76 381 76 342 L76 -86 C76 -126 69 -133 34 -133 L14 -133 L14 -214 L313 -214 L313 -133 L284 -133 C249 -133 243 -126 242 -86 L242 53 C285 2 322 -17 376 -17 C487 -17 556 81 556 237 C556 398 491 486 372 486 C313 486 281 468 230 405 L230 469 L14 469 L14 389 Z M309 398 C355 398 377 346 377 234 C377 125 356 74 310 74 C263 74 242 124 242 232 C242 343 264 398 309 398 L309 398 Z " />
<glyph glyph-name="q" unicode="q" horiz-adv-x="585" d="M570 -133 L550 -133 C515 -133 508 -126 508 -86 L508 342 C508 381 515 388 550 389 L570 389 L570 469 L354 469 L354 405 C306 466 272 486 212 486 C93 486 28 398 28 237 C28 81 97 -17 208 -17 C262 -17 299 2 343 53 L343 -86 C342 -126 336 -133 301 -133 L271 -133 L271 -214 L570 -214 L570 -133 Z M274 398 C321 398 343 344 343 228 C343 125 320 74 275 74 C228 74 207 125 207 234 C207 346 228 398 274 398 L274 398 Z " />
<glyph glyph-name="r" unicode="r" horiz-adv-x="476" d="M19 0 L331 0 L331 80 L295 80 C260 81 254 88 253 127 L253 276 C253 357 285 417 329 417 C337 417 344 415 356 409 C324 396 311 379 311 349 C311 309 341 278 380 278 C429 278 463 316 463 373 C463 438 420 482 357 482 C313 482 283 467 242 422 L242 469 L19 469 L19 388 L45 388 C80 388 87 381 87 342 L87 127 C87 88 80 81 45 80 L19 80 L19 0 Z " />
<glyph glyph-name="s" unicode="s" horiz-adv-x="524" d="M105 -5 L119 30 C195 -9 224 -17 278 -17 C402 -17 487 49 487 144 C487 191 464 231 424 258 C395 277 379 283 306 303 C222 326 207 335 207 363 C207 389 228 405 262 405 C285 405 314 398 334 387 C358 375 372 360 396 324 L464 324 L464 473 L396 473 L386 447 C325 478 294 486 239 486 C112 486 32 425 32 327 C32 286 47 251 77 225 C100 205 132 191 189 175 C276 150 279 149 291 142 C305 135 310 126 310 113 C310 84 288 69 244 69 C215 69 189 77 166 94 C141 112 130 128 112 170 L38 170 L38 -5 L105 -5 Z " />
<glyph glyph-name="t" unicode="t" horiz-adv-x="443" d="M82 388 L82 167 C82 91 86 70 106 39 C131 0 173 -19 235 -19 C292 -19 337 0 365 36 C387 64 393 90 393 152 L393 222 L313 222 L313 178 C313 97 305 74 277 74 C253 74 246 90 246 142 L246 388 L354 388 L354 469 L246 469 L246 652 L147 652 C138 534 98 474 24 463 L24 388 L82 388 Z " />
<glyph glyph-name="u" unicode="u" horiz-adv-x="627" d="M543 469 L320 469 L320 389 L331 389 C369 388 376 381 377 342 L377 190 C377 114 354 77 308 77 C268 77 249 104 249 161 L249 469 L14 469 L14 389 L37 389 C76 388 82 381 83 342 L83 161 C83 84 90 54 115 28 C140 2 182 -13 228 -13 C298 -13 341 10 389 73 L389 0 L606 0 L606 80 L583 80 C550 81 544 88 543 127 L543 469 Z " />
<glyph glyph-name="v" unicode="v" horiz-adv-x="552" d="M185 0 L356 0 L464 321 C484 378 491 386 526 387 L544 387 L544 469 L330 469 L330 386 L349 386 C375 386 386 380 386 366 C386 358 385 352 377 329 L305 111 L236 335 C232 350 229 361 229 366 C229 383 235 386 274 386 L291 386 L291 469 L9 469 L9 386 L15 386 C57 386 68 375 87 316 L185 0 Z " />
<glyph glyph-name="w" unicode="w" horiz-adv-x="821" d="M170 0 L335 0 L404 238 L473 0 L629 0 L727 327 C741 377 755 388 811 390 L811 469 L599 469 L599 390 C606 391 614 391 617 391 C640 391 648 386 648 372 C648 366 646 355 640 337 L578 112 L520 329 C515 350 513 360 513 367 C513 383 523 390 548 390 L565 390 L565 469 L308 469 L308 391 L325 391 C351 391 358 387 358 371 C358 364 355 353 345 319 L286 113 L230 323 C225 341 222 360 222 369 C222 383 232 391 250 391 L269 391 L269 469 L9 469 L9 390 C62 386 73 375 89 309 L170 0 Z " />
<glyph glyph-name="x" unicode="x" horiz-adv-x="618" d="M276 169 L319 116 C324 109 327 102 327 96 C327 85 313 79 287 79 L287 0 L605 0 L605 83 L592 83 C567 83 555 85 541 92 C516 106 461 163 392 248 L489 335 C545 383 556 388 602 391 L602 469 L374 469 L374 393 L385 393 C399 393 406 389 406 382 C406 377 403 372 392 359 L344 305 L307 357 C295 372 294 374 294 380 C294 389 302 393 318 393 L331 393 L331 469 L40 469 L40 391 C85 383 104 373 131 342 L232 231 L130 134 C84 91 67 83 21 83 L14 83 L14 0 L254 0 L254 79 L244 79 C224 79 212 84 212 94 C212 101 212 101 237 127 L276 169 Z " />
<glyph glyph-name="y" unicode="y" horiz-adv-x="561" d="M242 -33 C226 -79 217 -98 199 -118 C181 -140 156 -153 135 -153 C121 -153 109 -147 92 -130 L109 -130 C150 -130 174 -105 174 -64 C174 -22 144 6 100 6 C48 6 13 -32 13 -88 C13 -164 69 -216 150 -216 C231 -216 282 -166 331 -40 L474 327 C494 378 500 382 551 386 L551 469 L342 469 L342 386 L363 386 C390 386 397 383 397 370 C397 363 396 358 384 328 L323 166 L254 334 C245 356 243 362 243 370 C243 381 254 386 281 386 L303 386 L303 469 L17 469 L17 386 L43 386 C70 384 80 373 95 331 L242 -33 Z " />
<glyph glyph-name="z" unicode="z" horiz-adv-x="467" d="M24 0 L445 0 L445 207 L367 207 L367 193 C367 100 350 80 269 80 L205 80 L445 379 L445 469 L37 469 L37 271 L114 271 C116 378 126 390 214 388 L269 388 L24 90 L24 0 Z " />
<glyph glyph-name="braceleft" unicode="&#x7b;" horiz-adv-x="382" d="M259 494 C259 560 260 564 276 575 C287 582 300 584 336 584 C338 584 344 584 351 583 L351 667 C300 669 289 669 271 669 C190 669 158 662 132 639 C105 617 93 581 93 525 L93 364 C93 306 81 285 44 276 L44 196 C81 186 93 164 93 106 L93 -52 C93 -104 103 -139 125 -161 C152 -189 185 -197 264 -197 C288 -197 298 -197 351 -195 L351 -111 C344 -112 337 -112 334 -112 C302 -112 284 -109 275 -102 C260 -92 260 -88 259 -22 L259 111 C258 178 243 209 199 236 C245 264 257 290 259 361 L259 494 Z " />
<glyph glyph-name="bar" unicode="&#x7c;" horiz-adv-x="483" d="M158 667 L158 -167 L326 -167 L326 667 L158 667 Z " />
<glyph glyph-name="braceright" unicode="&#x7d;" horiz-adv-x="382" d="M124 -22 C124 -89 123 -92 107 -103 C96 -110 83 -112 47 -112 C44 -112 38 -112 31 -111 L31 -195 C82 -197 93 -197 112 -197 C193 -197 224 -190 251 -167 C278 -145 290 -109 290 -54 L290 108 C290 166 302 187 338 195 L338 276 C302 286 290 308 290 366 L290 524 C290 576 280 611 258 633 C231 661 198 669 119 669 C95 669 86 669 31 667 L31 583 C121 583 125 579 124 494 L124 361 C125 294 140 263 184 236 C138 208 126 182 124 111 L124 -22 Z " />
<glyph glyph-name="asciitilde" unicode="&#x7e;" horiz-adv-x="658" d="M169 545 C193 590 209 604 234 604 C248 604 263 600 289 590 C393 548 397 547 420 547 C460 547 497 567 526 603 C542 625 554 647 572 690 L492 758 C469 715 451 700 426 700 C413 700 398 704 378 712 C285 750 269 755 239 755 C174 755 127 711 88 613 L169 545 Z " />
<glyph glyph-name="uni00A0" unicode="&#xa0;" horiz-adv-x="250" d="" />
<glyph glyph-name="exclamdown" unicode="&#xa1;" horiz-adv-x="297" d="M104 257 C99 190 97 166 92 130 C91 129 88 107 77 44 C66 -18 60 -72 60 -115 C60 -152 65 -170 83 -191 C99 -211 120 -221 146 -221 C202 -221 237 -177 237 -107 C237 -74 232 -27 221 37 L212 91 C206 129 206 131 202 161 C200 177 197 209 192 257 L104 257 Z M148 486 C104 486 68 449 68 404 C68 356 103 318 149 318 C192 318 228 356 228 402 C228 449 193 486 148 486 L148 486 Z " />
<glyph glyph-name="cent" unicode="&#xa2;" horiz-adv-x="599" d="M412 163 C408 125 401 107 385 91 C371 77 351 69 331 69 C317 69 309 72 293 85 L366 238 C388 225 400 222 417 222 C478 222 516 261 516 324 C516 369 497 409 463 436 L518 547 L453 547 L413 466 C375 481 357 485 321 485 C262 485 211 472 175 447 C115 406 80 327 80 232 C80 131 119 52 190 8 L127 -122 L192 -122 L244 -12 C269 -17 285 -19 309 -19 C375 -19 428 1 465 40 C497 74 509 105 512 163 L412 163 Z M257 145 C256 202 256 206 256 222 C256 269 258 299 264 321 C277 373 311 404 353 404 C373 404 385 398 404 379 C365 370 354 359 337 308 L257 145 Z " />
<glyph glyph-name="sterling" unicode="&#xa3;" horiz-adv-x="599" d="M55 -15 C112 25 144 39 182 39 C213 39 219 37 309 5 C343 -7 379 -15 402 -15 C457 -15 505 16 528 66 C540 93 545 125 545 171 C545 178 545 192 544 208 L470 208 C467 143 456 122 424 122 C412 122 391 128 368 137 C322 155 305 160 284 160 C266 160 249 156 210 141 C204 139 192 135 179 130 C234 179 249 205 260 265 L369 265 L369 343 L255 343 C243 429 242 435 242 455 C242 511 279 545 339 545 C370 545 387 539 415 518 C384 499 373 482 373 453 C373 411 406 379 450 379 C499 379 533 415 533 468 C533 502 517 537 487 565 C448 601 384 621 304 621 C215 621 149 596 109 548 C82 516 67 473 67 433 C67 409 73 386 89 343 L24 343 L24 265 L110 265 C112 250 113 232 113 224 C113 175 92 144 24 93 L55 -15 Z " />
<glyph glyph-name="currency" unicode="&#xa4;" horiz-adv-x="684" d="M36 108 L117 23 L214 123 C262 96 302 84 346 84 C389 84 428 96 471 124 L567 22 L648 108 L551 210 C576 261 585 294 585 338 C585 386 574 424 547 473 L644 575 L563 660 L463 556 C414 582 384 591 342 591 C300 591 270 582 219 555 L118 662 L36 575 L136 471 C110 421 99 382 99 339 C99 296 111 250 133 210 L36 108 Z M344 450 C396 450 440 400 440 340 C440 279 396 229 342 229 C289 229 245 279 245 340 C245 401 288 450 344 450 L344 450 Z " />
<glyph glyph-name="yen" unicode="&#xa5;" horiz-adv-x="627" d="M229 176 L229 139 C229 84 222 75 179 77 L141 77 L141 0 L484 0 L484 77 L447 77 C404 75 397 84 397 139 L397 176 L542 176 L542 254 L400 254 L429 307 L551 307 L551 385 L473 385 L515 457 C550 514 568 526 625 528 L625 605 L368 605 L368 528 L380 528 C423 528 438 523 438 510 C438 499 434 487 428 479 L344 355 L280 464 C260 497 260 498 260 509 C260 521 273 528 297 528 L326 528 L326 605 L1 605 L1 528 C63 521 77 512 110 457 L152 385 L73 385 L73 307 L197 307 L226 254 L82 254 L82 176 L229 176 Z " />
<glyph glyph-name="brokenbar" unicode="&#xa6;" horiz-adv-x="483" d="M158 667 L158 311 L326 311 L326 667 L158 667 Z M158 153 L158 -167 L326 -167 L326 153 L158 153 Z " />
<glyph glyph-name="section" unicode="&#xa7;" horiz-adv-x="590" d="M196 -115 C224 -97 234 -80 234 -52 C234 -15 204 11 163 11 C120 11 90 -22 90 -70 C90 -153 171 -211 289 -211 C424 -211 508 -140 508 -26 C508 35 488 69 428 114 C498 153 528 197 528 263 C528 351 481 395 319 456 C236 488 236 488 221 503 C212 512 206 528 206 545 C206 590 244 620 302 620 C333 620 349 615 380 595 C361 578 355 568 355 549 C355 514 383 488 421 488 C461 488 491 521 491 565 C491 635 409 688 301 688 C180 688 94 618 94 519 C94 467 115 426 160 392 C96 362 61 310 61 245 C61 157 109 111 263 54 C370 15 394 -5 394 -55 C394 -107 347 -141 275 -141 C246 -141 228 -135 196 -115 L196 -115 Z M232 348 C249 348 303 329 347 307 C402 280 421 260 421 227 C421 186 389 152 353 155 C327 157 270 179 222 204 C184 225 165 248 165 274 C165 316 194 348 232 348 L232 348 Z " />
<glyph glyph-name="dieresis" unicode="&#xa8;" horiz-adv-x="483" d="M142 715 C100 715 63 679 63 638 C63 594 98 559 143 559 C186 559 219 593 219 636 C219 680 185 715 142 715 L142 715 Z M343 715 C301 715 264 679 264 638 C264 594 299 559 344 559 C387 559 420 593 420 636 C420 680 386 715 343 715 L343 715 Z " />
<glyph glyph-name="copyright" unicode="&#xa9;" horiz-adv-x="788" d="M501 294 C495 227 469 194 421 194 C366 194 335 244 335 334 C335 422 366 473 420 473 C471 473 499 439 505 370 L564 370 L564 528 L509 528 L499 500 C458 527 437 534 394 534 C283 534 205 452 205 334 C205 271 224 221 262 183 C298 147 340 132 402 132 C508 132 559 182 564 294 L501 294 Z M400 702 C194 702 32 539 32 332 C32 130 195 -36 395 -36 C595 -36 757 129 757 333 C757 534 595 702 400 702 L400 702 Z M399 633 C551 633 677 497 677 333 C677 167 550 33 395 33 C239 33 111 168 111 333 C111 501 238 633 399 633 L399 633 Z " />
<glyph glyph-name="ordfeminine" unicode="&#xaa;" horiz-adv-x="378" d="M371 437 L326 437 L326 410 C326 392 324 386 316 386 C310 386 307 394 307 410 L307 516 C307 563 303 577 286 592 C265 611 222 622 171 622 C84 622 31 592 31 543 C31 515 53 495 85 495 C114 495 136 513 136 535 C136 553 126 566 108 571 C117 575 127 577 142 577 C178 577 200 561 200 535 C200 508 186 499 122 486 C72 476 62 473 46 460 C28 447 18 425 18 400 C18 350 55 318 111 318 C151 318 178 329 209 358 C224 329 244 318 283 318 C313 318 336 326 352 343 C366 357 371 373 371 407 L371 437 Z M198 427 C198 399 185 383 163 383 C146 383 134 395 134 411 C134 422 141 432 152 438 L176 450 C179 452 188 457 198 463 L198 427 Z " />
<glyph glyph-name="guillemotleft" unicode="&#xab;" horiz-adv-x="462" d="M416 67 C365 198 361 209 361 237 C361 254 367 281 379 316 C389 345 399 376 409 406 L329 406 C261 310 231 258 231 234 C231 212 237 202 329 67 L416 67 Z M228 67 C175 199 172 209 172 237 C172 263 172 263 220 406 L140 406 C72 311 42 258 42 234 C42 212 48 203 140 67 L228 67 Z " />
<glyph glyph-name="logicalnot" unicode="&#xac;" horiz-adv-x="475" d="M281 0 L444 0 L444 294 L32 294 L32 147 L281 147 L281 0 Z " />
<glyph glyph-name="uni00AD" unicode="&#xad;" horiz-adv-x="266" d="M266 160 L266 309 L0 309 L0 160 L266 160 Z " />
<glyph glyph-name="registered" unicode="&#xae;" horiz-adv-x="788" d="M408 199 L386 199 C360 199 358 201 358 228 L358 313 L397 313 C438 312 442 307 443 267 L443 231 C443 163 471 132 533 132 C595 132 620 163 620 241 L620 254 L578 254 C576 203 574 195 562 195 C553 195 550 205 550 232 L550 268 C549 313 534 333 497 342 C546 357 569 384 569 428 C569 456 556 483 535 499 C514 516 484 523 436 523 L195 523 L195 467 L217 467 C243 467 245 465 245 438 L245 228 C245 201 243 199 217 199 L195 199 L195 143 L408 143 L408 199 Z M358 368 L358 467 L395 467 C438 467 452 454 452 417 C452 380 438 368 391 368 L358 368 Z M400 702 C194 702 32 539 32 332 C32 130 195 -36 395 -36 C595 -36 757 129 757 333 C757 534 595 702 400 702 L400 702 Z M399 633 C551 633 677 497 677 333 C677 167 550 33 395 33 C239 33 111 168 111 333 C111 501 238 633 399 633 L399 633 Z " />
<glyph glyph-name="macron" unicode="&#xaf;" horiz-adv-x="491" d="M88 585 L403 585 L403 672 L88 672 L88 585 Z " />
<glyph glyph-name="degree" unicode="&#xb0;" horiz-adv-x="400" d="M203 686 C117 686 50 619 50 534 C50 448 116 381 200 381 C284 381 350 448 350 533 C350 619 286 686 203 686 L203 686 Z M202 629 C252 629 293 586 293 534 C293 480 252 438 200 438 C148 438 106 481 106 533 C106 587 148 629 202 629 L202 629 Z " />
<glyph glyph-name="plusminus" unicode="&#xb1;" horiz-adv-x="549" d="M11 55 L11 0 L535 0 L535 55 L11 55 Z M302 662 L247 662 L247 423 L10 423 L10 368 L247 368 L247 129 L302 129 L302 368 L539 368 L539 423 L302 423 L302 662 Z " />
<glyph glyph-name="twosuperior" unicode="&#xb2;" horiz-adv-x="358" d="M73 267 C83 283 90 288 106 288 C119 288 134 284 158 275 C196 260 207 257 231 257 C272 257 306 274 319 301 C327 316 331 337 331 365 C331 369 331 377 330 386 L281 386 C280 352 272 339 250 339 C246 339 242 339 239 340 C182 351 182 351 162 351 C136 351 121 347 91 333 C114 360 130 369 182 384 C244 401 255 406 279 422 C307 442 322 470 322 503 C322 570 263 615 172 615 C89 615 25 568 25 506 C25 468 48 444 83 444 C114 444 136 464 136 490 C136 512 120 528 98 528 C94 528 87 527 79 525 C92 553 110 564 143 564 C181 564 207 543 207 511 C207 485 194 466 162 448 C88 404 84 401 62 379 C38 353 24 320 24 288 C24 282 24 276 25 267 L73 267 Z " />
<glyph glyph-name="threesuperior" unicode="&#xb3;" horiz-adv-x="359" d="M146 421 C176 419 186 417 195 412 C210 403 218 387 218 367 C218 327 191 304 146 304 C120 304 107 308 86 322 C117 325 132 338 132 364 C132 390 110 410 81 410 C47 410 23 385 23 350 C23 292 77 256 163 256 C206 256 243 261 266 271 C307 287 332 322 332 363 C332 408 308 432 245 450 C294 461 317 485 317 525 C317 582 264 615 172 615 C88 615 35 579 35 522 C35 490 55 470 86 470 C115 470 135 488 135 513 C135 539 122 550 91 550 C108 564 122 569 145 569 C185 569 210 549 210 517 C210 485 193 472 146 467 L146 421 Z " />
<glyph glyph-name="acute" unicode="&#xb4;" horiz-adv-x="489" d="M150 534 L208 534 L376 617 C413 636 429 654 429 679 C429 711 405 735 373 735 C347 735 328 723 293 686 L150 534 Z " />
<glyph glyph-name="mu" unicode="&#xb5;" horiz-adv-x="576" d="M442 500 L353 500 L354 131 C318 80 284 58 242 58 C184 58 150 99 150 169 L150 500 L62 500 L62 20 C62 -1 58 -26 51 -56 C34 -118 33 -123 33 -147 C33 -190 54 -219 83 -219 C112 -219 132 -189 132 -145 C132 -124 129 -110 113 -53 C102 -17 101 -8 101 21 L101 33 C143 -3 165 -13 200 -13 C250 -13 301 18 354 80 C362 48 367 36 377 21 C392 0 419 -13 449 -13 C510 -13 553 31 567 108 L540 109 C536 71 515 41 492 41 C462 41 442 77 442 131 L442 500 Z " />
<glyph glyph-name="paragraph" unicode="&#xb6;" horiz-adv-x="633" d="M205 -92 L315 -92 L315 567 L387 567 L387 -92 L497 -92 L497 567 L564 567 L564 667 L246 667 C188 667 135 657 104 640 C54 611 26 558 26 491 C26 390 94 321 193 321 L205 321 L205 -92 Z " />
<glyph glyph-name="periodcentered" unicode="&#xb7;" horiz-adv-x="302" d="M151 318 C107 318 71 281 71 236 C71 188 106 151 151 151 C195 151 230 188 230 235 C230 281 195 318 151 318 L151 318 Z " />
<glyph glyph-name="cedilla" unicode="&#xb8;" horiz-adv-x="475" d="M211 0 L211 -98 C222 -96 234 -94 240 -94 C265 -94 282 -109 282 -133 C282 -156 265 -171 240 -171 C207 -171 171 -158 128 -130 L105 -182 C180 -218 221 -230 266 -230 C334 -230 378 -193 378 -135 C378 -86 342 -49 296 -49 C285 -49 270 -50 255 -53 L255 0 L211 0 Z " />
<glyph glyph-name="onesuperior" unicode="&#xb9;" horiz-adv-x="359" d="M66 267 L297 267 L297 313 L275 313 C237 314 235 316 235 353 L235 605 L161 605 C146 572 121 560 66 558 L66 513 L133 513 L133 356 C134 317 133 316 91 313 L66 313 L66 267 Z " />
<glyph glyph-name="ordmasculine" unicode="&#xba;" horiz-adv-x="366" d="M183 622 C80 622 14 564 14 472 C14 376 77 318 183 318 C287 318 351 376 351 470 C351 564 287 622 183 622 L183 622 Z M182 565 C218 565 230 542 230 470 C230 398 219 375 182 375 C146 375 135 397 135 471 C135 542 147 565 182 565 L182 565 Z " />
<glyph glyph-name="guillemotright" unicode="&#xbb;" horiz-adv-x="462" d="M129 67 C222 202 228 212 228 234 C228 258 198 310 129 406 L49 406 C98 263 98 263 98 237 C98 209 94 198 42 67 L129 67 Z M318 67 C410 202 416 212 416 234 C416 258 387 309 318 406 L238 406 C286 263 286 263 286 237 C286 209 282 196 231 67 L318 67 Z " />
<glyph glyph-name="onequarter" unicode="&#xbc;" horiz-adv-x="873" d="M66 267 L297 267 L297 313 L275 313 C237 314 235 316 235 353 L235 605 L161 605 C146 572 121 560 66 558 L66 513 L133 513 L133 356 C134 317 133 316 91 313 L66 313 L66 267 Z M203 -17 L287 -17 L675 623 L596 623 L203 -17 Z M644 0 L854 0 L854 46 L840 46 C808 46 801 50 802 69 L802 103 L854 103 L854 152 L802 152 L802 339 L712 339 L538 157 L538 103 L700 103 L700 80 C701 50 699 49 659 46 L644 46 L644 0 Z M595 152 L701 261 L700 152 L595 152 Z " />
<glyph glyph-name="onehalf" unicode="&#xbd;" horiz-adv-x="873" d="M66 267 L297 267 L297 313 L275 313 C237 314 235 316 235 353 L235 605 L161 605 C146 572 121 560 66 558 L66 513 L133 513 L133 356 C134 317 133 316 91 313 L66 313 L66 267 Z M203 -17 L287 -17 L674 623 L596 623 L203 -17 Z M587 0 C596 16 604 21 619 21 C632 21 648 17 671 8 C710 -7 721 -10 745 -10 C785 -10 818 7 832 34 C842 52 844 71 844 119 L794 119 C794 84 785 72 763 72 C759 72 756 72 752 73 C696 84 696 84 675 84 C650 84 635 80 605 66 C628 93 643 102 695 117 C758 134 769 139 793 155 C821 175 836 203 836 236 C836 303 776 348 686 348 C602 348 538 301 538 239 C538 201 561 177 597 177 C628 177 650 197 650 223 C650 245 633 261 612 261 C608 261 601 260 593 258 C606 286 624 297 656 297 C695 297 721 276 721 244 C721 218 708 199 676 181 C602 138 598 134 576 112 C552 86 538 53 538 21 C538 13 538 10 539 0 L587 0 Z " />
<glyph glyph-name="threequarters" unicode="&#xbe;" horiz-adv-x="873" d="M146 421 C176 419 186 417 195 412 C210 403 218 387 218 367 C218 327 191 304 146 304 C120 304 107 308 86 322 C117 325 132 338 132 364 C132 390 110 410 81 410 C47 410 23 385 23 350 C23 292 77 256 163 256 C206 256 243 261 266 271 C307 287 332 322 332 363 C332 408 308 432 245 450 C294 461 317 485 317 525 C317 582 264 615 172 615 C88 615 35 579 35 522 C35 490 55 470 86 470 C115 470 135 488 135 513 C135 539 122 550 91 550 C108 564 122 569 145 569 C185 569 210 549 210 517 C210 485 193 472 146 467 L146 421 Z M203 -17 L287 -17 L675 623 L596 623 L203 -17 Z M644 0 L854 0 L854 46 L840 46 C808 46 801 50 802 69 L802 103 L854 103 L854 152 L802 152 L802 339 L712 339 L538 157 L538 103 L700 103 L700 80 C701 50 699 49 659 46 L644 46 L644 0 Z M595 152 L701 261 L700 152 L595 152 Z " />
<glyph glyph-name="questiondown" unicode="&#xbf;" horiz-adv-x="533" d="M285 486 C241 486 206 449 206 402 C206 356 242 318 286 318 C329 318 366 355 366 400 C366 449 331 486 285 486 L285 486 Z M239 255 C230 202 221 189 164 148 C71 83 42 38 42 -36 C42 -144 135 -220 268 -220 C395 -220 490 -135 490 -19 C490 52 450 105 396 105 C341 105 306 72 306 20 C306 -25 333 -54 373 -54 C385 -54 395 -52 415 -45 C409 -93 371 -125 320 -125 C266 -125 224 -85 224 -34 C224 1 239 43 265 81 C314 152 314 152 323 180 C330 200 333 215 333 237 C333 240 333 247 332 255 L239 255 Z " />
<glyph glyph-name="Agrave" unicode="&#xc0;" horiz-adv-x="675" d="M-14 0 L263 0 L263 87 L231 87 C192 87 180 92 180 110 C180 116 182 125 186 138 L209 214 L391 214 L416 132 C418 125 420 115 420 110 C420 93 406 87 363 87 L336 87 L336 0 L686 0 L686 87 L654 87 C615 88 604 98 588 149 L432 667 L244 667 L82 152 C65 97 57 90 8 87 L-14 87 L-14 0 Z M365 301 L237 301 L302 512 L365 301 Z M373 723 L431 723 L285 851 C262 871 247 879 230 879 C204 879 181 856 181 830 C181 808 198 788 227 777 L373 723 Z " />
<glyph glyph-name="Aacute" unicode="&#xc1;" horiz-adv-x="675" d="M-14 0 L263 0 L263 87 L231 87 C192 87 180 92 180 110 C180 116 182 125 186 138 L209 214 L391 214 L416 132 C418 125 420 115 420 110 C420 93 406 87 363 87 L336 87 L336 0 L686 0 L686 87 L654 87 C615 88 604 98 588 149 L432 667 L244 667 L82 152 C65 97 57 90 8 87 L-14 87 L-14 0 Z M365 301 L237 301 L302 512 L365 301 Z M293 723 L439 777 C467 788 484 808 484 830 C484 857 462 879 436 879 C418 879 404 872 381 851 L235 723 L293 723 Z " />
<glyph glyph-name="Acircumflex" unicode="&#xc2;" horiz-adv-x="675" d="M-14 0 L263 0 L263 87 L231 87 C192 87 180 92 180 110 C180 116 182 125 186 138 L209 214 L391 214 L416 132 C418 125 420 115 420 110 C420 93 406 87 363 87 L336 87 L336 0 L686 0 L686 87 L654 87 C615 88 604 98 588 149 L432 667 L244 667 L82 152 C65 97 57 90 8 87 L-14 87 L-14 0 Z M365 301 L237 301 L302 512 L365 301 Z M174 723 L223 723 L337 782 L451 723 L501 723 L399 869 L276 869 L174 723 Z " />
<glyph glyph-name="Atilde" unicode="&#xc3;" horiz-adv-x="675" d="M-14 0 L263 0 L263 87 L231 87 C192 87 180 92 180 110 C180 116 182 125 186 138 L209 214 L391 214 L416 132 C418 125 420 115 420 110 C420 93 406 87 363 87 L336 87 L336 0 L686 0 L686 87 L654 87 C615 88 604 98 588 149 L432 667 L244 667 L82 152 C65 97 57 90 8 87 L-14 87 L-14 0 Z M365 301 L237 301 L302 512 L365 301 Z M218 723 C226 752 240 766 262 766 C273 766 283 765 295 761 L353 746 C363 743 376 741 385 741 C414 741 439 752 458 774 C477 797 486 818 497 869 L457 869 C446 837 435 827 412 827 C405 827 397 828 389 830 L329 846 C317 849 304 851 290 851 C229 851 198 815 178 723 L218 723 Z " />
<glyph glyph-name="Adieresis" unicode="&#xc4;" horiz-adv-x="675" d="M-14 0 L263 0 L263 87 L231 87 C192 87 180 92 180 110 C180 116 182 125 186 138 L209 214 L391 214 L416 132 C418 125 420 115 420 110 C420 93 406 87 363 87 L336 87 L336 0 L686 0 L686 87 L654 87 C615 88 604 98 588 149 L432 667 L244 667 L82 152 C65 97 57 90 8 87 L-14 87 L-14 0 Z M365 301 L237 301 L302 512 L365 301 Z M241 878 C201 878 164 842 164 803 C164 760 198 726 241 726 C282 726 317 760 317 801 C317 842 281 878 241 878 L241 878 Z M439 878 C398 878 362 843 362 803 C362 760 396 726 439 726 C481 726 515 760 515 801 C515 842 480 878 439 878 L439 878 Z " />
<glyph glyph-name="Aring" unicode="&#xc5;" horiz-adv-x="675" d="M-14 0 L263 0 L263 87 L231 87 C192 87 180 92 180 110 C180 116 182 125 186 138 L209 214 L391 214 L416 132 C418 125 420 115 420 110 C420 93 406 87 363 87 L336 87 L336 0 L686 0 L686 87 L654 87 C615 88 604 98 588 149 L432 657 L244 657 L82 152 C64 97 57 90 8 87 L-14 87 L-14 0 Z M365 301 L237 301 L302 512 L365 301 Z M338 926 C275 926 223 876 223 816 C223 751 275 697 339 697 C399 697 452 751 452 813 C452 876 401 926 338 926 L338 926 Z M338 857 C363 857 384 836 384 811 C384 786 363 765 338 765 C312 765 291 786 291 812 C291 836 313 857 338 857 L338 857 Z " />
<glyph glyph-name="AE" unicode="&#xc6;" horiz-adv-x="1057" d="M347 0 L976 0 L976 275 L893 275 C875 119 843 86 707 87 L624 87 L624 300 L640 300 C711 303 721 290 726 191 L803 191 L803 495 L726 495 C724 408 710 390 640 389 L624 389 L624 580 L704 580 C846 583 872 560 893 413 L976 413 L976 667 L215 667 L215 580 L250 580 C289 580 305 573 305 557 C305 551 301 541 291 522 L97 152 C62 101 42 87 3 87 L-9 87 L-9 0 L286 0 L286 87 L254 87 C218 87 206 93 206 110 C206 118 210 128 220 148 L273 250 L440 250 L440 145 C441 94 434 88 385 87 L347 87 L347 0 Z M440 337 L317 337 L429 580 L440 580 L440 337 Z " />
<glyph glyph-name="Ccedilla" unicode="&#xc7;" horiz-adv-x="693" d="M366 -19 C550 -22 647 72 652 258 L553 258 C547 195 538 167 514 135 C488 98 451 80 406 80 C306 80 249 173 249 336 C249 495 307 589 405 589 C451 589 490 570 518 534 C543 501 553 471 560 404 L652 404 L652 675 L565 675 L547 622 C473 673 435 686 359 686 C265 686 191 655 129 591 C64 524 33 441 33 334 C33 205 80 102 170 37 C214 5 255 -10 322 -17 L322 -101 C333 -99 345 -97 351 -97 C376 -97 393 -112 393 -135 C393 -156 376 -171 351 -171 C319 -171 282 -157 239 -130 L216 -182 C289 -217 332 -230 377 -230 C445 -230 491 -193 491 -137 C491 -90 454 -52 408 -52 C396 -52 382 -53 366 -56 L366 -19 Z " />
<glyph glyph-name="Egrave" unicode="&#xc8;" horiz-adv-x="708" d="M19 0 L645 0 L645 275 L562 275 C545 118 513 86 377 87 L294 87 L294 301 L310 301 C381 303 391 290 396 191 L473 191 L473 495 L396 495 C394 408 380 390 310 390 L294 390 L294 580 L374 580 C516 582 541 560 562 413 L645 413 L645 667 L19 667 L19 580 L52 580 C102 579 109 573 108 522 L108 145 C109 94 102 88 52 87 L19 87 L19 0 Z M387 723 L444 723 L298 851 C275 872 261 879 243 879 C218 879 195 856 195 830 C195 808 212 788 241 777 L387 723 Z " />
<glyph glyph-name="Eacute" unicode="&#xc9;" horiz-adv-x="708" d="M19 0 L645 0 L645 275 L562 275 C545 118 513 86 377 87 L294 87 L294 301 L310 301 C381 303 391 290 396 191 L473 191 L473 495 L396 495 C394 408 380 390 310 390 L294 390 L294 580 L374 580 C516 582 541 560 562 413 L645 413 L645 667 L19 667 L19 580 L52 580 C102 579 109 573 108 522 L108 145 C109 94 102 88 52 87 L19 87 L19 0 Z M319 723 L465 777 C493 788 510 808 510 830 C510 857 488 879 462 879 C444 879 430 872 407 851 L261 723 L319 723 Z " />
<glyph glyph-name="Ecircumflex" unicode="&#xca;" horiz-adv-x="708" d="M19 0 L645 0 L645 275 L562 275 C545 118 513 86 377 87 L294 87 L294 301 L310 301 C381 303 391 290 396 191 L473 191 L473 495 L396 495 C394 408 380 390 310 390 L294 390 L294 580 L374 580 C516 582 541 560 562 413 L645 413 L645 667 L19 667 L19 580 L52 580 C102 579 109 573 108 522 L108 145 C109 94 102 88 52 87 L19 87 L19 0 Z M191 723 L240 723 L354 782 L468 723 L517 723 L415 869 L292 869 L191 723 Z " />
<glyph glyph-name="Edieresis" unicode="&#xcb;" horiz-adv-x="708" d="M19 0 L645 0 L645 275 L562 275 C545 118 513 86 377 87 L294 87 L294 301 L310 301 C381 303 391 290 396 191 L473 191 L473 495 L396 495 C394 408 380 390 310 390 L294 390 L294 580 L374 580 C516 582 541 560 562 413 L645 413 L645 667 L19 667 L19 580 L52 580 C102 579 109 573 108 522 L108 145 C109 94 102 88 52 87 L19 87 L19 0 Z M256 878 C215 878 179 842 179 803 C179 760 213 726 256 726 C297 726 332 760 332 801 C332 842 296 878 256 878 L256 878 Z M454 878 C413 878 377 842 377 803 C377 760 411 726 454 726 C496 726 530 760 530 801 C530 842 495 878 454 878 L454 878 Z " />
<glyph glyph-name="Igrave" unicode="&#xcc;" horiz-adv-x="415" d="M21 0 L395 0 L395 87 L358 87 C309 88 302 94 303 144 L303 522 C302 572 309 578 358 579 L395 579 L395 667 L21 667 L21 579 L58 579 C107 578 114 572 113 522 L113 144 C114 94 107 88 58 87 L21 87 L21 0 Z M241 723 L298 723 L152 851 C129 872 115 879 98 879 C72 879 49 856 49 830 C49 808 66 788 95 777 L241 723 Z " />
<glyph glyph-name="Iacute" unicode="&#xcd;" horiz-adv-x="415" d="M21 0 L395 0 L395 87 L358 87 C309 88 302 94 303 144 L303 522 C302 572 309 578 358 579 L395 579 L395 667 L21 667 L21 579 L58 579 C107 578 114 572 113 522 L113 144 C114 94 107 88 58 87 L21 87 L21 0 Z M173 723 L319 777 C347 788 364 808 364 830 C364 857 342 879 316 879 C298 879 284 872 261 851 L115 723 L173 723 Z " />
<glyph glyph-name="Icircumflex" unicode="&#xce;" horiz-adv-x="415" d="M21 0 L395 0 L395 87 L358 87 C309 88 302 94 303 144 L303 522 C302 572 309 578 358 579 L395 579 L395 667 L21 667 L21 579 L58 579 C107 578 114 572 113 522 L113 144 C114 94 107 88 58 87 L21 87 L21 0 Z M45 723 L94 723 L208 782 L322 723 L371 723 L269 869 L146 869 L45 723 Z " />
<glyph glyph-name="Idieresis" unicode="&#xcf;" horiz-adv-x="415" d="M21 0 L395 0 L395 87 L358 87 C309 88 302 94 303 144 L303 522 C302 572 309 578 358 579 L395 579 L395 667 L21 667 L21 579 L58 579 C107 578 114 572 113 522 L113 144 C114 94 107 88 58 87 L21 87 L21 0 Z M114 878 C73 878 37 842 37 803 C37 760 71 726 114 726 C155 726 190 760 190 801 C190 842 154 878 114 878 L114 878 Z M303 878 C262 878 226 842 226 803 C226 760 260 726 303 726 C345 726 379 760 379 801 C379 842 344 878 303 878 L303 878 Z " />
<glyph glyph-name="Eth" unicode="&#xd0;" horiz-adv-x="759" d="M21 0 L359 0 C488 0 564 20 626 72 C694 129 729 218 729 334 C729 450 694 538 626 595 C564 647 489 667 359 667 L21 667 L21 580 L54 580 C104 579 111 573 110 522 L110 387 L5 387 L5 307 L110 307 L110 145 C111 94 104 88 54 87 L21 87 L21 0 Z M296 87 L296 307 L412 307 L412 387 L296 387 L296 580 L354 580 C407 580 438 569 464 542 C495 508 513 434 513 336 C513 254 502 190 481 150 C460 110 415 87 358 87 L296 87 Z " />
<glyph glyph-name="Ntilde" unicode="&#xd1;" horiz-adv-x="774" d="M19 580 L52 580 C102 579 109 573 108 522 L108 145 C109 94 102 88 52 87 L19 87 L19 0 L312 0 L312 87 L277 87 C226 88 219 94 220 145 L220 496 L477 0 L674 0 L674 522 C673 573 680 579 731 580 L759 580 L759 667 L470 667 L470 580 L505 580 C556 579 563 573 562 522 L562 201 L322 667 L19 667 L19 580 Z M267 723 C276 752 290 766 312 766 C322 766 332 765 344 761 L402 746 C413 743 426 741 435 741 C463 741 488 752 507 774 C527 797 536 818 547 869 L507 869 C495 837 485 827 461 827 C455 827 446 828 438 830 L379 846 C366 849 353 851 340 851 C278 851 247 815 227 723 L267 723 Z " />
<glyph glyph-name="Ograve" unicode="&#xd2;" horiz-adv-x="774" d="M387 687 C276 687 194 657 129 594 C66 534 32 443 32 339 C32 223 63 138 129 73 C193 10 276 -20 388 -20 C608 -20 742 113 742 333 C742 554 609 687 387 687 L387 687 Z M387 595 C434 595 472 572 494 530 C517 488 526 430 526 333 C526 236 517 182 494 137 C473 95 435 72 387 72 C339 72 301 95 280 137 C257 182 248 236 248 338 C248 516 291 595 387 595 L387 595 Z M420 723 L477 723 L331 851 C309 872 294 879 277 879 C251 879 228 856 228 830 C228 808 245 788 274 777 L420 723 Z " />
<glyph glyph-name="Oacute" unicode="&#xd3;" horiz-adv-x="774" d="M387 687 C276 687 194 657 129 594 C66 534 32 443 32 339 C32 223 63 138 129 73 C193 10 276 -20 388 -20 C608 -20 742 113 742 333 C742 554 609 687 387 687 L387 687 Z M387 595 C434 595 472 572 494 530 C517 488 526 430 526 333 C526 236 517 182 494 137 C473 95 435 72 387 72 C339 72 301 95 280 137 C257 182 248 236 248 338 C248 516 291 595 387 595 L387 595 Z M352 723 L498 777 C526 788 543 808 543 830 C543 857 521 879 495 879 C478 879 464 872 440 851 L295 723 L352 723 Z " />
<glyph glyph-name="Ocircumflex" unicode="&#xd4;" horiz-adv-x="774" d="M387 687 C276 687 194 657 129 594 C66 534 32 443 32 339 C32 223 63 138 129 73 C193 10 276 -20 388 -20 C608 -20 742 113 742 333 C742 554 609 687 387 687 L387 687 Z M387 595 C434 595 472 572 494 530 C517 488 526 430 526 333 C526 236 517 182 494 137 C473 95 435 72 387 72 C339 72 301 95 280 137 C257 182 248 236 248 338 C248 516 291 595 387 595 L387 595 Z M224 723 L273 723 L387 782 L501 723 L550 723 L448 869 L326 869 L224 723 Z " />
<glyph glyph-name="Otilde" unicode="&#xd5;" horiz-adv-x="774" d="M387 687 C276 687 194 657 129 594 C66 534 32 443 32 339 C32 223 63 138 129 73 C193 10 276 -20 388 -20 C608 -20 742 113 742 333 C742 554 609 687 387 687 L387 687 Z M387 595 C434 595 472 572 494 530 C517 488 526 430 526 333 C526 236 517 182 494 137 C473 95 435 72 387 72 C339 72 301 95 280 137 C257 182 248 236 248 338 C248 516 291 595 387 595 L387 595 Z M267 723 C276 752 290 766 312 766 C322 766 332 765 344 761 L402 746 C413 743 426 741 435 741 C463 741 488 752 507 774 C527 797 536 818 547 869 L507 869 C495 837 485 827 462 827 C455 827 447 828 439 830 L379 846 C366 849 353 851 340 851 C279 851 247 815 227 723 L267 723 Z " />
<glyph glyph-name="Odieresis" unicode="&#xd6;" horiz-adv-x="774" d="M388 687 C277 687 195 657 130 594 C67 534 33 443 33 339 C33 223 64 138 130 73 C194 10 277 -20 389 -20 C609 -20 743 113 743 333 C743 554 610 687 388 687 L388 687 Z M388 595 C435 595 473 572 495 530 C518 488 527 430 527 333 C527 236 518 182 495 137 C474 95 436 72 388 72 C340 72 302 95 281 137 C258 182 249 236 249 338 C249 516 292 595 388 595 L388 595 Z M296 878 C255 878 219 842 219 803 C219 760 253 726 296 726 C337 726 372 760 372 801 C372 842 336 878 296 878 L296 878 Z M495 878 C454 878 418 842 418 803 C418 760 452 726 495 726 C537 726 571 760 571 801 C571 842 536 878 495 878 L495 878 Z " />
<glyph glyph-name="multiply" unicode="&#xd7;" horiz-adv-x="599" d="M85 175 L164 91 L299 233 L434 91 L514 175 L379 317 L514 459 L434 542 L299 400 L164 542 L85 459 L220 317 L85 175 Z " />
<glyph glyph-name="Oslash" unicode="&#xd8;" horiz-adv-x="774" d="M681 698 L611 624 C549 668 480 687 386 687 C166 687 32 554 32 334 C32 234 58 156 111 92 L45 23 L95 -32 L165 42 C225 0 295 -20 388 -20 C608 -20 742 113 742 333 C742 432 717 510 665 573 L732 645 L681 698 Z M252 243 C249 276 248 305 248 339 C248 516 291 595 387 595 C443 595 479 569 503 510 L252 243 Z M522 422 C525 393 526 369 526 331 C526 151 484 72 387 72 C332 72 296 97 271 155 L522 422 Z " />
<glyph glyph-name="Ugrave" unicode="&#xd9;" horiz-adv-x="726" d="M19 582 L43 583 C91 583 103 563 103 482 L103 189 C103 126 119 82 157 46 C204 2 269 -20 357 -20 C532 -20 626 56 626 197 L626 479 C627 558 627 558 637 570 C649 578 662 580 711 582 L711 667 L428 667 L428 582 L446 582 C510 582 518 570 518 479 L518 210 C518 157 512 136 492 113 C473 91 437 79 393 79 C360 79 335 87 317 105 C294 126 287 154 287 217 L287 485 C287 549 290 563 303 573 C312 579 328 583 346 583 C354 583 365 583 378 582 L378 667 L19 667 L19 582 Z M396 723 L453 723 L308 851 C285 872 270 879 253 879 C227 879 204 856 204 830 C204 808 221 788 250 777 L396 723 Z " />
<glyph glyph-name="Uacute" unicode="&#xda;" horiz-adv-x="726" d="M19 582 L43 583 C91 583 103 563 103 482 L103 189 C103 126 119 82 157 46 C204 2 269 -20 357 -20 C532 -20 626 56 626 197 L626 479 C627 558 627 558 637 570 C649 578 662 580 711 582 L711 667 L428 667 L428 582 L446 582 C510 582 518 570 518 479 L518 210 C518 157 512 136 492 113 C473 91 437 79 393 79 C360 79 335 87 317 105 C294 126 287 154 287 217 L287 485 C287 549 290 563 303 573 C312 579 328 583 346 583 C354 583 365 583 378 582 L378 667 L19 667 L19 582 Z M328 723 L474 777 C503 788 520 808 520 830 C520 857 498 879 471 879 C454 879 440 872 417 851 L271 723 L328 723 Z " />
<glyph glyph-name="Ucircumflex" unicode="&#xdb;" horiz-adv-x="726" d="M19 582 L43 583 C91 583 103 563 103 482 L103 189 C103 126 119 82 157 46 C204 2 269 -20 357 -20 C532 -20 626 56 626 197 L626 479 C627 558 627 558 637 570 C649 578 662 580 711 582 L711 667 L428 667 L428 582 L446 582 C510 582 518 570 518 479 L518 210 C518 157 512 136 492 113 C473 91 437 79 393 79 C360 79 335 87 317 105 C294 126 287 154 287 217 L287 485 C287 549 290 563 303 573 C312 579 328 583 346 583 C354 583 365 583 378 582 L378 667 L19 667 L19 582 Z M213 723 L262 723 L376 782 L490 723 L539 723 L437 869 L315 869 L213 723 Z " />
<glyph glyph-name="Udieresis" unicode="&#xdc;" horiz-adv-x="726" d="M19 582 L43 583 C91 583 103 563 103 482 L103 189 C103 126 119 82 157 46 C204 2 269 -20 357 -20 C532 -20 626 56 626 197 L626 479 C627 558 627 558 637 570 C649 578 662 580 711 582 L711 667 L428 667 L428 582 L446 582 C510 582 518 570 518 479 L518 210 C518 157 512 136 492 113 C473 91 437 79 393 79 C360 79 335 87 317 105 C294 126 287 154 287 217 L287 485 C287 549 290 563 303 573 C312 579 328 583 346 583 C354 583 365 583 378 582 L378 667 L19 667 L19 582 Z M296 878 C256 878 219 842 219 803 C219 760 253 726 296 726 C337 726 372 760 372 801 C372 842 336 878 296 878 L296 878 Z M495 878 C454 878 418 843 418 803 C418 760 452 726 495 726 C537 726 571 760 571 801 C571 842 536 878 495 878 L495 878 Z " />
<glyph glyph-name="Yacute" unicode="&#xdd;" horiz-adv-x="736" d="M563 85 L521 85 C472 83 464 93 464 153 L464 275 L598 503 C635 567 653 579 712 582 L712 667 L443 667 L443 582 L453 582 C496 582 511 577 511 561 C511 551 507 539 500 527 L412 391 L336 512 C313 548 313 549 313 561 C313 574 328 582 354 582 L387 582 L387 667 L24 667 L24 582 C93 575 111 563 146 504 L279 275 L279 153 C279 93 271 83 223 85 L181 85 L181 0 L563 0 L563 85 Z M333 723 L479 777 C508 788 525 808 525 830 C525 857 503 879 476 879 C459 879 445 872 422 851 L276 723 L333 723 Z " />
<glyph glyph-name="Thorn" unicode="&#xde;" horiz-adv-x="689" d="M19 0 L393 0 L393 87 L347 87 C295 88 288 94 289 144 L289 152 L410 152 C510 152 559 164 600 198 C639 229 660 279 660 339 C660 397 640 446 604 478 C564 514 510 528 410 528 L289 528 L289 536 C290 573 299 580 347 580 L393 580 L393 667 L19 667 L19 580 L54 580 C102 580 112 572 112 536 L112 144 C113 94 106 88 54 87 L19 87 L19 0 Z M289 239 L289 440 L348 440 C433 440 465 413 465 340 C465 266 434 239 348 239 L289 239 Z " />
<glyph glyph-name="germandbls" unicode="&#xdf;" horiz-adv-x="590" d="M19 0 L243 0 L243 488 C243 556 246 572 259 589 C268 600 285 608 301 608 C337 608 359 580 359 535 C359 506 351 480 339 464 C328 452 314 446 285 444 L285 363 L295 363 C330 363 357 347 370 320 C379 298 383 261 383 185 C383 84 381 72 362 72 C350 72 343 86 343 112 L343 175 L271 175 L271 113 C271 31 312 -13 388 -13 C486 -13 554 79 554 212 C554 276 536 327 501 362 C479 385 457 396 406 411 C443 423 466 434 481 448 C505 471 519 506 519 544 C519 636 443 687 307 687 C224 687 167 667 127 623 C92 585 82 546 82 450 L82 161 C83 88 82 86 19 84 L19 0 Z " />
<glyph glyph-name="agrave" unicode="&#xe0;" horiz-adv-x="580" d="M569 173 L509 173 L509 132 C509 100 503 87 489 87 C476 87 469 103 469 132 L469 313 C469 390 463 413 438 436 C406 467 340 486 263 486 C130 486 48 437 48 358 C48 313 81 282 128 282 C170 282 203 310 203 344 C203 378 184 397 147 402 C171 418 187 422 219 422 C276 422 313 392 313 345 C313 319 301 296 281 285 C264 276 237 267 187 256 C110 239 95 234 70 213 C43 191 28 156 28 116 C28 35 83 -18 168 -18 C232 -18 273 1 322 54 C345 2 376 -17 437 -17 C482 -17 517 -3 541 23 C562 47 569 71 569 127 L569 173 Z M309 162 C309 111 287 82 249 82 C220 82 198 105 198 136 C198 144 200 153 203 159 C213 176 213 177 268 206 C274 209 291 220 309 231 L309 162 Z M369 534 L226 686 C192 722 171 735 147 735 C115 735 90 711 90 679 C90 654 105 637 143 618 L311 534 L369 534 Z " />
<glyph glyph-name="aacute" unicode="&#xe1;" horiz-adv-x="580" d="M569 173 L509 173 L509 132 C509 100 503 87 489 87 C476 87 469 103 469 132 L469 313 C469 390 463 413 438 436 C406 467 340 486 263 486 C130 486 48 437 48 358 C48 313 81 282 128 282 C170 282 203 310 203 344 C203 378 184 397 147 402 C171 418 187 422 219 422 C276 422 313 392 313 345 C313 319 301 296 281 285 C264 276 237 267 187 256 C110 239 95 234 70 213 C43 191 28 156 28 116 C28 35 83 -18 168 -18 C232 -18 273 1 322 54 C345 2 376 -17 437 -17 C482 -17 517 -3 541 23 C562 47 569 71 569 127 L569 173 Z M309 162 C309 111 287 82 249 82 C220 82 198 105 198 136 C198 144 200 153 203 159 C213 176 213 177 268 206 C274 209 291 220 309 231 L309 162 Z M176 534 L234 534 L402 617 C439 636 455 654 455 679 C455 711 431 735 399 735 C374 735 354 723 319 686 L176 534 Z " />
<glyph glyph-name="acircumflex" unicode="&#xe2;" horiz-adv-x="580" d="M569 173 L509 173 L509 132 C509 100 503 87 489 87 C476 87 469 103 469 132 L469 313 C469 390 463 413 438 436 C406 467 340 486 263 486 C130 486 48 437 48 358 C48 313 81 282 128 282 C170 282 203 310 203 344 C203 378 184 397 147 402 C171 418 187 422 219 422 C276 422 313 392 313 345 C313 319 301 296 281 285 C264 276 237 267 187 256 C110 239 95 234 70 213 C43 191 28 156 28 116 C28 35 83 -18 168 -18 C232 -18 273 1 322 54 C345 2 376 -17 437 -17 C482 -17 517 -3 541 23 C562 47 569 71 569 127 L569 173 Z M309 162 C309 111 287 82 249 82 C220 82 198 105 198 136 C198 144 200 153 203 159 C213 176 213 177 268 206 C274 209 291 220 309 231 L309 162 Z M112 534 L164 534 L277 622 L391 534 L442 534 L325 724 L230 724 L112 534 Z " />
<glyph glyph-name="atilde" unicode="&#xe3;" horiz-adv-x="580" d="M569 173 L509 173 L509 132 C509 100 503 87 489 87 C476 87 469 103 469 132 L469 313 C469 390 463 413 438 436 C406 467 340 486 263 486 C130 486 48 437 48 358 C48 313 81 282 128 282 C170 282 203 310 203 344 C203 378 184 397 147 402 C171 418 187 422 219 422 C276 422 313 392 313 345 C313 319 301 296 281 285 C264 276 237 267 187 256 C110 239 95 234 70 213 C43 191 28 156 28 116 C28 35 83 -18 168 -18 C232 -18 273 1 322 54 C345 2 376 -17 437 -17 C482 -17 517 -3 541 23 C562 47 569 71 569 127 L569 173 Z M309 162 C309 111 287 82 249 82 C220 82 198 105 198 136 C198 144 200 153 203 159 C213 176 213 177 268 206 C274 209 291 220 309 231 L309 162 Z M146 549 C154 582 169 597 193 597 C204 597 214 596 226 592 L286 576 C298 573 310 571 321 571 C351 571 378 583 397 605 C416 629 425 651 439 708 L396 708 C384 672 373 661 349 661 C342 661 333 662 324 664 L262 681 C249 684 235 686 222 686 C158 686 125 649 103 549 L146 549 Z " />
<glyph glyph-name="adieresis" unicode="&#xe4;" horiz-adv-x="580" d="M569 173 L509 173 L509 132 C509 100 503 87 489 87 C476 87 469 103 469 132 L469 313 C469 390 463 413 438 436 C406 467 340 486 263 486 C130 486 48 437 48 358 C48 313 81 282 128 282 C170 282 203 310 203 344 C203 378 184 397 147 402 C171 418 187 422 219 422 C276 422 313 392 313 345 C313 319 301 296 281 285 C264 276 237 267 187 256 C110 239 95 234 70 213 C43 191 28 156 28 116 C28 35 83 -18 168 -18 C232 -18 273 1 322 54 C345 2 376 -17 437 -17 C482 -17 517 -3 541 23 C562 47 569 71 569 127 L569 173 Z M309 162 C309 111 287 82 249 82 C220 82 198 105 198 136 C198 144 200 153 203 159 C213 176 213 177 268 206 C274 209 291 220 309 231 L309 162 Z M180 715 C138 715 101 679 101 638 C101 594 136 559 181 559 C224 559 257 593 257 636 C257 680 223 715 180 715 L180 715 Z M381 715 C339 715 302 679 302 638 C302 594 337 559 382 559 C425 559 458 593 458 636 C458 680 424 715 381 715 L381 715 Z " />
<glyph glyph-name="aring" unicode="&#xe5;" horiz-adv-x="580" d="M569 173 L509 173 L509 132 C509 100 503 87 489 87 C476 87 469 103 469 132 L469 313 C469 390 463 413 438 436 C406 467 340 486 263 486 C130 486 48 437 48 358 C48 313 81 282 128 282 C170 282 203 310 203 344 C203 378 184 397 147 402 C171 418 187 422 219 422 C276 422 313 392 313 345 C313 319 301 296 281 285 C264 276 237 267 187 256 C110 239 95 234 70 213 C43 191 28 156 28 116 C28 35 83 -18 168 -18 C232 -18 273 1 322 54 C345 2 376 -17 437 -17 C482 -17 517 -3 541 23 C562 47 569 71 569 127 L569 173 Z M309 162 C309 111 287 82 249 82 C220 82 198 105 198 136 C198 144 200 153 203 159 C213 176 213 177 268 206 C274 209 291 220 309 231 L309 162 Z M269 792 C195 792 132 731 132 658 C132 580 192 519 270 519 C344 519 405 581 405 655 C405 730 343 792 269 792 L269 792 Z M268 716 C301 716 329 688 329 655 C329 622 302 595 269 595 C234 595 208 621 208 656 C208 689 236 716 268 716 L268 716 Z " />
<glyph glyph-name="ae" unicode="&#xe6;" horiz-adv-x="783" d="M638 159 C632 135 626 119 618 109 C603 89 574 77 543 77 C511 77 487 89 472 112 C457 135 452 159 451 214 L757 214 C756 298 752 321 728 369 C692 443 621 485 532 485 C476 485 444 473 395 434 C357 471 314 486 250 486 C133 486 47 432 47 359 C47 314 81 282 128 282 C171 282 204 309 204 344 C204 377 185 397 148 402 C172 417 189 421 220 421 C279 421 316 391 316 344 C316 318 304 295 284 284 C267 275 240 267 189 256 C111 239 95 233 70 213 C43 191 28 156 28 116 C28 34 84 -18 172 -18 C241 -18 290 6 349 68 C409 4 453 -17 529 -17 C592 -17 649 4 687 41 C715 68 730 95 751 159 L638 159 Z M454 294 C458 335 460 350 467 364 C478 384 503 399 529 399 C553 399 575 387 586 367 C596 350 599 333 599 294 L454 294 Z M311 162 C311 112 288 83 249 83 C219 83 197 106 197 137 C197 145 199 154 203 160 C212 177 213 177 269 207 C275 210 292 220 311 232 L311 162 Z " />
<glyph glyph-name="ccedilla" unicode="&#xe7;" horiz-adv-x="472" d="M251 -17 C369 -22 448 50 451 165 L353 165 C347 101 326 74 281 74 C225 74 199 127 199 241 C199 349 231 403 294 403 C319 403 333 397 354 375 C328 374 316 370 305 361 C291 348 282 326 282 302 C282 255 313 224 360 224 C418 224 455 263 455 325 C455 421 375 486 258 486 C114 486 24 390 24 236 C24 150 53 74 103 31 C132 6 158 -6 207 -14 L207 -98 C218 -96 230 -94 236 -94 C262 -94 278 -109 278 -133 C278 -156 261 -171 236 -171 C204 -171 167 -158 124 -130 L101 -182 C176 -218 217 -230 262 -230 C330 -230 374 -193 374 -135 C374 -86 339 -49 293 -49 C281 -49 267 -50 251 -53 L251 -17 Z " />
<glyph glyph-name="egrave" unicode="&#xe8;" horiz-adv-x="524" d="M380 159 C375 134 370 118 361 108 C344 89 315 77 285 77 C253 77 229 89 214 112 C199 135 194 159 193 214 L499 214 C498 296 497 302 481 343 C447 433 370 483 265 483 C120 483 28 386 28 233 C28 82 122 -17 266 -17 C387 -17 462 41 492 159 L380 159 Z M195 294 C198 335 201 351 210 366 C221 385 245 398 269 398 C292 398 313 386 325 367 C335 351 339 333 340 294 L195 294 Z M344 534 L201 686 C167 722 146 735 122 735 C90 735 65 711 65 679 C65 654 80 636 118 618 L286 534 L344 534 Z " />
<glyph glyph-name="eacute" unicode="&#xe9;" horiz-adv-x="524" d="M380 159 C375 134 370 118 361 108 C344 89 315 77 285 77 C253 77 229 89 214 112 C199 135 194 159 193 214 L499 214 C498 296 497 302 481 343 C447 433 370 483 265 483 C120 483 28 386 28 233 C28 82 122 -17 266 -17 C387 -17 462 41 492 159 L380 159 Z M195 294 C198 335 201 351 210 366 C221 385 245 398 269 398 C292 398 313 386 325 367 C335 351 339 333 340 294 L195 294 Z M167 534 L225 534 L393 617 C430 636 446 654 446 679 C446 711 422 735 390 735 C364 735 344 723 310 686 L167 534 Z " />
<glyph glyph-name="ecircumflex" unicode="&#xea;" horiz-adv-x="524" d="M380 159 C375 134 370 118 361 108 C344 89 315 77 285 77 C253 77 229 89 214 112 C199 135 194 159 193 214 L499 214 C498 296 497 302 481 343 C447 433 370 483 265 483 C120 483 28 386 28 233 C28 82 122 -17 266 -17 C387 -17 462 41 492 159 L380 159 Z M195 294 C198 335 201 351 210 366 C221 385 245 398 269 398 C292 398 313 386 325 367 C335 351 339 333 340 294 L195 294 Z M96 534 L148 534 L261 622 L375 534 L427 534 L309 724 L214 724 L96 534 Z " />
<glyph glyph-name="edieresis" unicode="&#xeb;" horiz-adv-x="524" d="M380 159 C375 134 370 118 361 108 C344 89 315 77 285 77 C253 77 229 89 214 112 C199 135 194 159 193 214 L499 214 C498 296 497 302 481 343 C447 433 370 483 265 483 C120 483 28 386 28 233 C28 82 122 -17 266 -17 C387 -17 462 41 492 159 L380 159 Z M195 294 C198 335 201 351 210 366 C221 385 245 398 269 398 C292 398 313 386 325 367 C335 351 339 333 340 294 L195 294 Z M162 715 C120 715 83 679 83 638 C83 594 118 559 163 559 C206 559 239 593 239 636 C239 680 205 715 162 715 L162 715 Z M363 715 C321 715 284 679 284 638 C284 594 319 559 364 559 C407 559 440 593 440 636 C440 680 406 715 363 715 L363 715 Z " />
<glyph glyph-name="igrave" unicode="&#xec;" horiz-adv-x="340" d="M24 387 L54 387 C94 385 97 381 96 328 L96 127 C96 88 90 81 52 80 L24 80 L24 0 L322 0 L322 80 L299 80 C265 81 261 86 260 127 L260 469 L24 469 L24 387 Z M254 536 L153 684 C128 720 112 731 86 731 C56 731 34 710 34 683 C34 661 48 642 81 620 L205 536 L254 536 Z " />
<glyph glyph-name="iacute" unicode="&#xed;" horiz-adv-x="340" d="M64 536 L113 536 L237 620 C270 642 284 661 284 683 C284 710 262 731 232 731 C206 731 190 720 165 684 L64 536 Z M24 387 L54 387 C94 385 97 381 96 328 L96 127 C96 88 90 81 52 80 L24 80 L24 0 L322 0 L322 80 L299 80 C265 81 261 86 260 127 L260 469 L24 469 L24 387 Z " />
<glyph glyph-name="icircumflex" unicode="&#xee;" horiz-adv-x="347" d="M19 535 L69 535 L167 625 L266 535 L316 535 L215 720 L120 720 L19 535 Z M31 387 L61 387 C101 385 104 381 103 328 L103 127 C103 88 97 81 59 80 L31 80 L31 0 L329 0 L329 80 L306 80 C272 81 268 86 267 127 L267 469 L31 469 L31 387 Z " />
<glyph glyph-name="idieresis" unicode="&#xef;" horiz-adv-x="347" d="M28 387 L58 387 C98 385 101 381 100 328 L100 127 C100 88 94 81 56 80 L28 80 L28 0 L326 0 L326 80 L303 80 C269 81 265 86 264 127 L264 469 L28 469 L28 387 Z M71 715 C29 715 -8 679 -8 638 C-8 594 27 559 72 559 C115 559 148 593 148 636 C148 680 114 715 71 715 L71 715 Z M262 715 C220 715 183 679 183 638 C183 594 218 559 263 559 C306 559 339 593 339 636 C339 680 305 715 262 715 L262 715 Z " />
<glyph glyph-name="eth" unicode="&#xf0;" horiz-adv-x="571" d="M186 667 C201 646 202 644 229 603 L157 573 L183 511 L261 545 C281 513 294 491 301 480 C289 483 281 484 268 484 C207 484 145 461 103 422 C56 378 32 315 32 235 C32 154 56 91 103 48 C149 6 216 -17 290 -17 C448 -17 548 80 548 233 C548 316 524 380 462 462 C437 494 415 521 358 587 L425 615 L399 676 L311 641 L298 654 L285 667 L186 667 Z M290 402 C349 402 369 361 369 235 C369 109 349 68 290 68 C230 68 211 109 211 237 C211 360 231 402 290 402 L290 402 Z " />
<glyph glyph-name="ntilde" unicode="&#xf1;" horiz-adv-x="627" d="M19 0 L301 0 L301 80 L292 80 C258 81 252 88 251 127 L251 286 C251 354 276 392 322 392 C363 392 383 364 383 308 L383 127 C382 88 376 81 342 80 L333 80 L333 0 L611 0 L611 80 L591 80 C556 81 549 88 549 127 L549 308 C549 384 541 415 516 441 C492 467 449 482 402 482 C332 482 290 460 239 396 L239 469 L19 469 L19 389 L43 389 C78 388 85 381 85 342 L85 127 C85 88 78 81 43 80 L19 80 L19 0 Z M189 549 C197 582 212 597 236 597 C247 597 257 596 269 592 L329 576 C341 573 353 571 364 571 C394 571 421 583 440 605 C459 629 468 651 482 708 L439 708 C427 672 416 661 392 661 C385 661 376 662 367 664 L305 681 C292 684 278 686 265 686 C201 686 168 649 146 549 L189 549 Z " />
<glyph glyph-name="ograve" unicode="&#xf2;" horiz-adv-x="561" d="M280 486 C122 486 22 390 22 238 C22 78 119 -17 281 -17 C440 -17 538 79 538 234 C538 390 440 486 280 486 L280 486 Z M280 401 C339 401 359 360 359 234 C359 109 339 68 280 68 C220 68 201 109 201 237 C201 360 221 401 280 401 L280 401 Z M360 534 L217 686 C183 722 162 735 137 735 C105 735 80 711 80 679 C80 654 95 637 133 618 L301 534 L360 534 Z " />
<glyph glyph-name="oacute" unicode="&#xf3;" horiz-adv-x="561" d="M280 486 C122 486 22 390 22 238 C22 78 119 -17 281 -17 C440 -17 538 79 538 234 C538 390 440 486 280 486 L280 486 Z M280 401 C339 401 359 360 359 234 C359 109 339 68 280 68 C220 68 201 109 201 237 C201 360 221 401 280 401 L280 401 Z M185 534 L244 534 L411 617 C449 636 465 654 465 679 C465 711 441 735 409 735 C383 735 363 723 328 686 L185 534 Z " />
<glyph glyph-name="ocircumflex" unicode="&#xf4;" horiz-adv-x="561" d="M280 486 C122 486 22 390 22 238 C22 78 119 -17 281 -17 C440 -17 538 79 538 234 C538 390 440 486 280 486 L280 486 Z M280 401 C339 401 359 360 359 234 C359 109 339 68 280 68 C220 68 201 109 201 237 C201 360 221 401 280 401 L280 401 Z M115 534 L167 534 L280 622 L394 534 L445 534 L328 724 L233 724 L115 534 Z " />
<glyph glyph-name="otilde" unicode="&#xf5;" horiz-adv-x="561" d="M280 486 C122 486 22 390 22 238 C22 78 119 -17 281 -17 C440 -17 538 79 538 234 C538 390 440 486 280 486 L280 486 Z M280 401 C339 401 359 360 359 234 C359 109 339 68 280 68 C220 68 201 109 201 237 C201 360 221 401 280 401 L280 401 Z M155 549 C164 582 178 597 202 597 C213 597 223 596 236 592 L296 576 C307 573 319 571 330 571 C360 571 387 583 406 605 C425 629 435 651 448 708 L406 708 C393 672 382 661 358 661 C351 661 342 662 334 664 L272 681 C258 684 245 686 231 686 C167 686 135 649 112 549 L155 549 Z " />
<glyph glyph-name="odieresis" unicode="&#xf6;" horiz-adv-x="561" d="M282 486 C124 486 24 390 24 238 C24 78 121 -17 283 -17 C442 -17 540 79 540 234 C540 390 442 486 282 486 L282 486 Z M282 401 C341 401 361 360 361 234 C361 109 341 68 282 68 C222 68 203 109 203 237 C203 360 223 401 282 401 L282 401 Z M189 715 C147 715 110 679 110 638 C110 594 145 559 190 559 C233 559 266 593 266 636 C266 680 232 715 189 715 L189 715 Z M390 715 C348 715 311 679 311 638 C311 594 346 559 391 559 C434 559 467 593 467 636 C467 680 433 715 390 715 L390 715 Z " />
<glyph glyph-name="divide" unicode="&#xf7;" horiz-adv-x="549" d="M273 126 C239 126 211 99 211 64 C211 30 238 2 273 2 C306 2 334 30 334 64 C334 98 306 126 273 126 L273 126 Z M273 525 C239 525 211 498 211 463 C211 429 238 401 273 401 C306 401 334 429 334 463 C334 497 306 525 273 525 L273 525 Z M10 294 L10 239 L536 239 L536 294 L10 294 Z " />
<glyph glyph-name="oslash" unicode="&#xf8;" horiz-adv-x="561" d="M483 505 L431 448 C389 473 338 486 279 486 C121 486 22 390 22 235 C22 164 40 110 78 64 L26 8 L69 -41 L128 22 C172 -5 221 -17 281 -17 C439 -17 538 79 538 234 C538 303 520 359 484 403 L533 455 L483 505 Z M202 199 C201 215 201 225 201 237 C201 360 221 401 281 401 C314 401 334 387 346 356 L202 199 Z M358 268 C359 254 359 248 359 234 C359 108 339 68 279 68 C246 68 226 82 214 114 L358 268 Z " />
<glyph glyph-name="ugrave" unicode="&#xf9;" horiz-adv-x="627" d="M543 469 L320 469 L320 389 L331 389 C369 388 376 381 377 342 L377 190 C377 114 354 77 308 77 C268 77 249 104 249 161 L249 469 L14 469 L14 389 L37 389 C76 388 82 381 83 342 L83 161 C83 84 90 54 115 28 C140 2 182 -13 228 -13 C298 -13 341 10 389 73 L389 0 L606 0 L606 80 L583 80 C550 81 544 88 543 127 L543 469 Z M393 534 L250 686 C216 722 195 735 170 735 C138 735 113 711 113 679 C113 654 128 637 167 618 L335 534 L393 534 Z " />
<glyph glyph-name="uacute" unicode="&#xfa;" horiz-adv-x="627" d="M543 469 L320 469 L320 389 L331 389 C369 388 376 381 377 342 L377 190 C377 114 354 77 308 77 C268 77 249 104 249 161 L249 469 L14 469 L14 389 L37 389 C76 388 82 381 83 342 L83 161 C83 84 90 54 115 28 C140 2 182 -13 228 -13 C298 -13 341 10 389 73 L389 0 L606 0 L606 80 L583 80 C550 81 544 88 543 127 L543 469 Z M213 534 L271 534 L439 617 C476 636 492 654 492 679 C492 711 468 735 436 735 C410 735 390 723 355 686 L213 534 Z " />
<glyph glyph-name="ucircumflex" unicode="&#xfb;" horiz-adv-x="627" d="M543 469 L320 469 L320 389 L331 389 C369 388 376 381 377 342 L377 190 C377 114 354 77 308 77 C268 77 249 104 249 161 L249 469 L14 469 L14 389 L37 389 C76 388 82 381 83 342 L83 161 C83 84 90 54 115 28 C140 2 182 -13 228 -13 C298 -13 341 10 389 73 L389 0 L606 0 L606 80 L583 80 C550 81 544 88 543 127 L543 469 Z M148 534 L200 534 L313 622 L427 534 L479 534 L361 724 L266 724 L148 534 Z " />
<glyph glyph-name="udieresis" unicode="&#xfc;" horiz-adv-x="627" d="M543 469 L320 469 L320 389 L331 389 C369 388 376 381 377 342 L377 190 C377 114 354 77 308 77 C268 77 249 104 249 161 L249 469 L14 469 L14 389 L37 389 C76 388 82 381 83 342 L83 161 C83 84 90 54 115 28 C140 2 182 -13 228 -13 C298 -13 341 10 389 73 L389 0 L606 0 L606 80 L583 80 C550 81 544 88 543 127 L543 469 Z M215 715 C173 715 136 679 136 638 C136 594 171 559 216 559 C259 559 292 593 292 636 C292 680 258 715 215 715 L215 715 Z M417 715 C375 715 338 679 338 638 C338 594 373 559 418 559 C461 559 494 593 494 636 C494 680 460 715 417 715 L417 715 Z " />
<glyph glyph-name="yacute" unicode="&#xfd;" horiz-adv-x="561" d="M242 -33 C226 -79 217 -98 199 -118 C181 -140 156 -153 135 -153 C121 -153 109 -147 92 -130 L109 -130 C150 -130 174 -105 174 -64 C174 -22 144 6 100 6 C48 6 13 -32 13 -88 C13 -164 69 -216 150 -216 C231 -216 282 -166 331 -40 L474 327 C494 378 500 382 551 386 L551 469 L342 469 L342 386 L363 386 C390 386 397 383 397 370 C397 363 396 358 384 328 L323 166 L254 334 C245 356 243 362 243 370 C243 381 254 386 281 386 L303 386 L303 469 L17 469 L17 386 L43 386 C70 384 80 373 95 331 L242 -33 Z M186 534 L244 534 L412 617 C449 636 465 654 465 679 C465 711 441 735 409 735 C383 735 363 723 329 686 L186 534 Z " />
<glyph glyph-name="thorn" unicode="&#xfe;" horiz-adv-x="585" d="M14 586 L34 586 C69 586 76 579 76 539 L76 -86 C76 -126 69 -133 34 -133 L14 -133 L14 -214 L313 -214 L313 -133 L284 -133 C249 -133 243 -126 242 -86 L242 53 C285 2 322 -17 376 -17 C487 -17 556 81 556 237 C556 398 492 486 375 486 C317 486 284 468 242 413 L242 667 L14 667 L14 586 Z M309 398 C355 398 377 346 377 234 C377 125 356 74 310 74 C263 74 242 124 242 232 C242 343 264 398 309 398 L309 398 Z " />
<glyph glyph-name="ydieresis" unicode="&#xff;" horiz-adv-x="561" d="M242 -33 C226 -79 217 -98 199 -118 C181 -140 156 -153 135 -153 C121 -153 109 -147 92 -130 L109 -130 C150 -130 174 -105 174 -64 C174 -22 144 6 100 6 C48 6 13 -32 13 -88 C13 -164 69 -216 150 -216 C231 -216 282 -166 331 -40 L474 327 C494 378 500 382 551 386 L551 469 L342 469 L342 386 L363 386 C390 386 397 383 397 370 C397 363 396 358 384 328 L323 166 L254 334 C245 356 243 362 243 370 C243 381 254 386 281 386 L303 386 L303 469 L17 469 L17 386 L43 386 C70 384 80 373 95 331 L242 -33 Z M187 715 C145 715 108 679 108 638 C108 594 143 559 188 559 C231 559 264 593 264 636 C264 680 230 715 187 715 L187 715 Z M388 715 C346 715 309 679 309 638 C309 594 344 559 389 559 C432 559 465 593 465 636 C465 680 431 715 388 715 L388 715 Z " />
<glyph glyph-name="Amacron" unicode="&#x100;" horiz-adv-x="675" d="M-14 0 L263 0 L263 87 L231 87 C192 87 180 92 180 110 C180 116 182 125 186 138 L209 214 L391 214 L416 132 C418 125 420 115 420 110 C420 93 406 87 363 87 L336 87 L336 0 L686 0 L686 87 L654 87 C615 88 604 98 588 149 L432 667 L244 667 L82 152 C65 97 57 90 8 87 L-14 87 L-14 0 Z M365 301 L237 301 L302 512 L365 301 Z M184 754 L491 754 L491 838 L184 838 L184 754 Z " />
<glyph glyph-name="amacron" unicode="&#x101;" horiz-adv-x="580" d="M569 173 L509 173 L509 132 C509 100 503 87 489 87 C476 87 469 103 469 132 L469 313 C469 390 463 413 438 436 C406 467 340 486 263 486 C130 486 48 437 48 358 C48 313 81 282 128 282 C170 282 203 310 203 344 C203 378 184 397 147 402 C171 418 187 422 219 422 C276 422 313 392 313 345 C313 319 301 296 281 285 C264 276 237 267 187 256 C110 239 95 234 70 213 C43 191 28 156 28 116 C28 35 83 -18 168 -18 C232 -18 273 1 322 54 C345 2 376 -17 437 -17 C482 -17 517 -3 541 23 C562 47 569 71 569 127 L569 173 Z M309 162 C309 111 287 82 249 82 C220 82 198 105 198 136 C198 144 200 153 203 159 C213 176 213 177 268 206 C274 209 291 220 309 231 L309 162 Z M132 585 L448 585 L448 672 L132 672 L132 585 Z " />
<glyph glyph-name="Abreve" unicode="&#x102;" horiz-adv-x="675" d="M-14 0 L263 0 L263 87 L231 87 C192 87 180 92 180 110 C180 116 182 125 186 138 L209 214 L391 214 L416 132 C418 125 420 115 420 110 C420 93 406 87 363 87 L336 87 L336 0 L686 0 L686 87 L654 87 C615 88 604 98 588 149 L432 667 L244 667 L82 152 C65 97 57 90 8 87 L-14 87 L-14 0 Z M365 301 L237 301 L302 512 L365 301 Z M171 869 C183 816 194 793 217 769 C246 740 289 723 337 723 C385 723 429 740 459 769 C482 793 493 816 504 869 L456 869 C446 846 438 836 420 828 C399 819 371 814 338 814 C267 814 237 828 219 869 L171 869 Z " />
<glyph glyph-name="abreve" unicode="&#x103;" horiz-adv-x="580" d="M569 173 L509 173 L509 132 C509 100 503 87 489 87 C476 87 469 103 469 132 L469 313 C469 390 463 413 438 436 C406 467 340 486 263 486 C130 486 48 437 48 358 C48 313 81 282 128 282 C170 282 203 310 203 344 C203 378 184 397 147 402 C171 418 187 422 219 422 C276 422 313 392 313 345 C313 319 301 296 281 285 C264 276 237 267 187 256 C110 239 95 234 70 213 C43 191 28 156 28 116 C28 35 83 -18 168 -18 C232 -18 273 1 322 54 C345 2 376 -17 437 -17 C482 -17 517 -3 541 23 C562 47 569 71 569 127 L569 173 Z M309 162 C309 111 287 82 249 82 C220 82 198 105 198 136 C198 144 200 153 203 159 C213 176 213 177 268 206 C274 209 291 220 309 231 L309 162 Z M122 708 C134 649 145 623 169 598 C199 567 242 550 290 550 C337 550 382 568 411 598 C435 622 446 649 457 708 L409 708 C400 680 390 668 373 660 C353 650 323 645 290 645 C257 645 226 650 207 660 C190 668 181 680 170 708 L122 708 Z " />
<glyph glyph-name="Aogonek" unicode="&#x104;" horiz-adv-x="675" d="M686 0 L686 87 L654 87 C615 88 604 98 588 149 L432 667 L244 667 L82 152 C65 97 57 90 8 87 L-14 87 L-14 0 L263 0 L263 87 L231 87 C191 87 180 92 180 111 C180 117 182 125 186 138 L209 214 L391 214 L416 132 C418 125 420 115 420 109 C420 93 405 87 363 87 L336 87 L336 0 L611 0 C537 -51 497 -106 497 -159 C497 -208 529 -238 582 -238 C633 -238 669 -209 698 -146 L681 -135 C661 -165 652 -171 631 -171 C605 -171 590 -152 590 -118 C590 -76 606 -45 649 0 L686 0 Z M365 301 L237 301 L302 512 L365 301 Z " />
<glyph glyph-name="aogonek" unicode="&#x105;" horiz-adv-x="580" d="M569 173 L509 173 L509 132 C509 100 503 87 490 87 C476 87 469 102 469 132 L469 313 C469 390 463 413 438 436 C406 467 340 486 263 486 C129 486 48 437 48 357 C48 313 81 282 128 282 C170 282 203 310 203 345 C203 377 184 397 147 402 C171 418 187 422 220 422 C276 422 313 392 313 345 C313 319 301 296 281 285 C264 276 237 267 187 256 C110 239 95 234 70 213 C43 191 28 156 28 116 C28 34 83 -18 169 -18 C232 -18 273 1 322 54 C343 4 368 -12 430 -17 C370 -65 340 -112 340 -159 C340 -208 372 -238 423 -238 C473 -238 509 -209 538 -146 L521 -136 C500 -166 492 -172 471 -172 C446 -172 431 -153 431 -119 C431 -99 437 -76 449 -52 C460 -29 467 -23 496 -8 C557 24 568 46 569 127 L569 173 Z M309 162 C309 111 287 82 249 82 C220 82 198 105 198 136 C198 144 200 153 203 159 C213 176 213 177 268 206 C274 209 291 220 309 231 L309 162 Z " />
<glyph glyph-name="Cacute" unicode="&#x106;" horiz-adv-x="693" d="M552 258 C547 195 538 167 514 135 C488 98 452 80 407 80 C306 80 249 173 249 336 C249 495 307 589 405 589 C451 589 490 570 518 534 C543 501 553 471 560 404 L652 404 L652 675 L565 675 L546 622 C473 673 435 686 359 686 C265 686 191 656 129 592 C64 524 33 441 33 335 C33 225 66 137 131 71 C194 8 266 -19 373 -19 C489 -19 570 21 614 99 C638 142 648 183 652 258 L552 258 Z M311 723 L457 777 C486 788 503 808 503 830 C503 857 481 879 455 879 C437 879 423 872 400 851 L254 723 L311 723 Z " />
<glyph glyph-name="cacute" unicode="&#x107;" horiz-adv-x="472" d="M352 165 C347 102 326 75 281 75 C225 75 199 128 199 242 C199 349 231 403 294 403 C319 403 332 397 354 375 C328 374 315 370 305 361 C290 348 281 326 281 302 C281 255 312 224 359 224 C418 224 455 263 455 325 C455 421 375 486 258 486 C114 486 24 390 24 236 C24 165 43 102 78 57 C117 7 175 -17 255 -17 C322 -17 371 2 405 41 C436 76 449 110 452 165 L352 165 Z M142 534 L200 534 L368 617 C405 636 421 654 421 679 C421 711 397 735 365 735 C339 735 319 723 285 686 L142 534 Z " />
<glyph glyph-name="Ccaron" unicode="&#x10c;" horiz-adv-x="693" d="M552 258 C547 195 538 167 514 135 C488 98 452 80 407 80 C306 80 249 173 249 336 C249 495 307 589 405 589 C451 589 490 570 518 534 C543 501 553 471 560 404 L652 404 L652 675 L565 675 L546 622 C473 673 435 686 359 686 C265 686 191 656 129 592 C64 524 33 441 33 335 C33 225 66 137 131 71 C194 8 266 -19 373 -19 C489 -19 570 21 614 99 C638 142 648 183 652 258 L552 258 Z M183 869 L285 723 L408 723 L510 869 L461 869 L347 810 L233 869 L183 869 Z " />
<glyph glyph-name="ccaron" unicode="&#x10d;" horiz-adv-x="472" d="M352 165 C347 102 326 75 281 75 C225 75 199 128 199 242 C199 349 231 403 294 403 C319 403 332 397 354 375 C328 374 315 370 305 361 C290 348 281 326 281 302 C281 255 312 224 359 224 C418 224 455 263 455 325 C455 421 375 486 258 486 C114 486 24 390 24 236 C24 165 43 102 78 57 C117 7 175 -17 255 -17 C322 -17 371 2 405 41 C436 76 449 110 452 165 L352 165 Z M71 724 L189 534 L284 534 L402 724 L350 724 L236 636 L123 724 L71 724 Z " />
<glyph glyph-name="Dcaron" unicode="&#x10e;" horiz-adv-x="755" d="M19 0 L357 0 C487 0 562 20 624 72 C692 129 727 217 727 334 C727 450 692 538 624 595 C562 647 487 667 357 667 L19 667 L19 580 L52 580 C100 579 106 573 106 522 L106 145 C106 94 100 88 52 87 L19 87 L19 0 Z M292 87 L292 580 L352 580 C405 580 436 569 462 542 C493 508 511 434 511 335 C511 253 500 190 479 149 C458 110 413 87 357 87 L292 87 Z M104 869 L206 723 L329 723 L431 869 L381 869 L267 810 L153 869 L104 869 Z " />
<glyph glyph-name="dcaron" unicode="&#x10f;" horiz-adv-x="585" d="M266 586 L299 586 C339 586 348 577 346 539 L346 415 C301 465 265 484 210 484 C98 484 28 386 28 229 C28 69 94 -18 216 -18 C280 -18 314 1 358 64 L358 0 L570 0 L570 79 L551 79 C517 79 512 86 511 126 L511 667 L266 667 L266 586 Z M277 392 C324 392 346 341 346 232 C346 121 324 69 277 69 C229 69 207 123 207 240 C207 342 230 392 277 392 L277 392 Z M600 438 C642 443 668 453 692 474 C719 500 736 540 736 582 C736 638 701 676 651 676 C609 676 580 647 580 605 C580 568 604 545 642 545 C650 545 656 546 670 550 C668 512 645 492 600 485 L600 438 Z " />
<glyph glyph-name="Dcroat" unicode="&#x110;" horiz-adv-x="759" d="M21 0 L359 0 C488 0 564 20 626 72 C694 129 729 218 729 334 C729 450 694 538 626 595 C564 647 489 667 359 667 L21 667 L21 580 L54 580 C104 579 111 573 110 522 L110 387 L5 387 L5 307 L110 307 L110 145 C111 94 104 88 54 87 L21 87 L21 0 Z M296 87 L296 307 L412 307 L412 387 L296 387 L296 580 L354 580 C407 580 438 569 464 542 C495 508 513 434 513 336 C513 254 502 190 481 150 C460 110 415 87 358 87 L296 87 Z " />
<glyph glyph-name="dcroat" unicode="&#x111;" horiz-adv-x="585" d="M511 575 L511 667 L266 667 L266 587 L299 587 C321 586 331 583 339 575 L216 575 L216 497 L346 497 L346 415 C301 466 264 485 210 485 C98 485 28 386 28 230 C28 69 94 -18 216 -18 C280 -18 314 1 358 64 L358 0 L570 0 L570 79 L551 79 C517 79 512 86 511 126 L511 497 L561 497 L561 575 L511 575 Z M277 393 C324 393 346 342 346 233 C346 121 324 69 277 69 C229 69 207 123 207 240 C207 343 230 393 277 393 L277 393 Z " />
<glyph glyph-name="Emacron" unicode="&#x112;" horiz-adv-x="708" d="M19 0 L645 0 L645 275 L562 275 C545 118 513 86 377 87 L294 87 L294 301 L310 301 C381 303 391 290 396 191 L473 191 L473 495 L396 495 C394 408 380 390 310 390 L294 390 L294 580 L374 580 C516 582 541 560 562 413 L645 413 L645 667 L19 667 L19 580 L52 580 C102 579 109 573 108 522 L108 145 C109 94 102 88 52 87 L19 87 L19 0 Z M201 754 L507 754 L507 838 L201 838 L201 754 Z " />
<glyph glyph-name="emacron" unicode="&#x113;" horiz-adv-x="524" d="M380 159 C375 134 370 118 361 108 C344 89 315 77 285 77 C253 77 229 89 214 112 C199 135 194 159 193 214 L499 214 C498 296 497 302 481 343 C447 433 370 483 265 483 C120 483 28 386 28 233 C28 82 122 -17 266 -17 C387 -17 462 41 492 159 L380 159 Z M195 294 C198 335 201 351 210 366 C221 385 245 398 269 398 C292 398 313 386 325 367 C335 351 339 333 340 294 L195 294 Z M104 585 L419 585 L419 672 L104 672 L104 585 Z " />
<glyph glyph-name="Edotaccent" unicode="&#x116;" horiz-adv-x="708" d="M19 0 L645 0 L645 275 L562 275 C545 118 513 86 377 87 L294 87 L294 301 L310 301 C381 303 391 290 396 191 L473 191 L473 495 L396 495 C394 408 380 390 310 390 L294 390 L294 580 L374 580 C516 582 541 560 562 413 L645 413 L645 667 L19 667 L19 580 L52 580 C102 579 109 573 108 522 L108 145 C109 94 102 88 52 87 L19 87 L19 0 Z M354 866 C315 866 279 831 279 793 C279 751 313 717 354 717 C394 717 428 751 428 791 C428 831 393 866 354 866 L354 866 Z " />
<glyph glyph-name="edotaccent" unicode="&#x117;" horiz-adv-x="524" d="M380 159 C375 134 370 118 361 108 C344 89 315 77 285 77 C253 77 229 89 214 112 C199 135 194 159 193 214 L499 214 C498 296 497 302 481 343 C447 433 370 483 265 483 C120 483 28 386 28 233 C28 82 122 -17 266 -17 C387 -17 462 41 492 159 L380 159 Z M195 294 C198 335 201 351 210 366 C221 385 245 398 269 398 C292 398 313 386 325 367 C335 351 339 333 340 294 L195 294 Z M262 707 C222 707 184 671 184 631 C184 588 219 553 263 553 C305 553 338 587 338 629 C338 672 304 707 262 707 L262 707 Z " />
<glyph glyph-name="Eogonek" unicode="&#x118;" horiz-adv-x="708" d="M645 0 L645 275 L562 275 C545 118 513 86 377 87 L294 87 L294 301 L310 301 C381 303 391 290 396 191 L473 191 L473 495 L396 495 C394 408 380 390 310 390 L294 390 L294 580 L374 580 C516 582 541 560 562 413 L645 413 L645 667 L19 667 L19 580 L52 580 C102 579 109 573 108 522 L108 145 C109 94 102 88 52 87 L19 87 L19 0 L566 0 C496 -51 461 -102 461 -153 C461 -202 493 -232 546 -232 C596 -232 631 -204 661 -140 L644 -129 C624 -158 614 -165 594 -165 C568 -165 554 -146 554 -112 C554 -73 572 -35 606 0 L645 0 Z " />
<glyph glyph-name="eogonek" unicode="&#x119;" horiz-adv-x="524" d="M380 159 C375 134 370 118 361 108 C344 89 315 77 285 77 C253 77 229 89 214 112 C199 135 194 159 193 214 L499 214 C498 292 497 303 481 343 C447 433 370 483 265 483 C120 483 28 386 28 233 C28 90 111 -6 243 -16 C188 -63 162 -105 162 -151 C162 -200 194 -230 246 -230 C296 -230 333 -200 361 -138 L344 -128 C324 -157 315 -163 294 -163 C268 -163 253 -144 253 -111 C253 -62 276 -39 359 -2 C432 29 471 76 492 159 L380 159 Z M195 294 C198 335 201 351 210 366 C221 385 245 398 269 398 C292 398 313 386 325 367 C335 351 339 333 340 294 L195 294 Z " />
<glyph glyph-name="Ecaron" unicode="&#x11a;" horiz-adv-x="708" d="M19 0 L645 0 L645 275 L562 275 C545 118 513 86 377 87 L294 87 L294 301 L310 301 C381 303 391 290 396 191 L473 191 L473 495 L396 495 C394 408 380 390 310 390 L294 390 L294 580 L374 580 C516 582 541 560 562 413 L645 413 L645 667 L19 667 L19 580 L52 580 C102 579 109 573 108 522 L108 145 C109 94 102 88 52 87 L19 87 L19 0 Z M191 869 L293 723 L415 723 L517 869 L468 869 L354 810 L240 869 L191 869 Z " />
<glyph glyph-name="ecaron" unicode="&#x11b;" horiz-adv-x="524" d="M380 159 C375 134 370 118 361 108 C344 89 315 77 285 77 C253 77 229 89 214 112 C199 135 194 159 193 214 L499 214 C498 296 497 302 481 343 C447 433 370 483 265 483 C120 483 28 386 28 233 C28 82 122 -17 266 -17 C387 -17 462 41 492 159 L380 159 Z M195 294 C198 335 201 351 210 366 C221 385 245 398 269 398 C292 398 313 386 325 367 C335 351 339 333 340 294 L195 294 Z M96 724 L214 534 L309 534 L427 724 L375 724 L261 636 L148 724 L96 724 Z " />
<glyph glyph-name="Gbreve" unicode="&#x11e;" horiz-adv-x="736" d="M570 -7 L661 -7 L661 222 C662 258 670 266 702 266 L734 266 L734 353 L388 353 L388 266 L432 266 C471 265 475 260 475 215 L475 168 C475 134 472 116 463 105 C451 90 418 78 387 78 C340 78 299 102 281 141 C260 184 249 250 249 334 C249 505 296 587 394 587 C439 587 477 571 502 540 C526 510 537 478 547 405 L640 405 L640 673 L551 673 L534 625 C460 673 422 686 350 686 C162 686 33 539 33 324 C33 115 155 -20 347 -20 C421 -20 464 -6 546 44 L570 -7 Z M157 869 C169 816 180 793 203 769 C233 740 276 723 323 723 C371 723 415 740 445 769 C468 793 479 816 490 869 L442 869 C432 846 424 836 407 828 C386 819 357 814 324 814 C253 814 223 828 205 869 L157 869 Z " />
<glyph glyph-name="gbreve" unicode="&#x11f;" horiz-adv-x="609" d="M109 156 C55 128 36 104 36 61 C36 19 54 -8 102 -40 C49 -57 28 -79 28 -119 C28 -183 107 -216 257 -216 C353 -216 437 -204 470 -185 C512 -161 538 -115 538 -64 C538 -8 511 34 464 51 C426 65 426 65 310 65 C214 65 195 66 177 69 C153 74 141 85 141 102 C141 110 145 117 155 128 C199 115 219 111 249 111 C302 111 355 126 394 151 C439 181 466 236 466 298 C466 340 458 367 435 405 C459 427 475 437 489 437 C497 437 502 434 511 425 C493 404 487 392 487 374 C487 341 513 316 547 316 C586 316 611 345 611 389 C611 445 567 486 506 486 C470 486 447 476 405 441 C353 476 321 486 264 486 C132 486 53 415 53 296 C53 241 66 209 109 156 L109 156 Z M286 -66 C331 -66 373 -69 400 -74 C422 -78 433 -88 433 -103 C433 -123 423 -131 389 -139 C362 -145 331 -147 281 -147 C182 -147 136 -134 136 -105 C136 -92 148 -79 165 -75 C187 -70 235 -66 286 -66 L286 -66 Z M258 423 C291 423 302 391 302 298 C302 210 289 176 256 176 C227 176 213 215 213 295 C213 386 226 423 258 423 L258 423 Z M104 708 C116 649 127 623 151 598 C181 567 224 550 272 550 C319 550 364 568 393 598 C417 622 428 649 440 708 L392 708 C382 680 373 668 355 660 C335 650 305 645 272 645 C239 645 209 650 189 660 C173 668 163 680 152 708 L104 708 Z " />
<glyph glyph-name="Gcommaaccent" unicode="&#x122;" horiz-adv-x="736" d="M570 -7 L661 -7 L661 222 C662 258 670 266 702 266 L734 266 L734 353 L388 353 L388 266 L432 266 C471 265 475 260 475 215 L475 168 C475 134 472 116 463 105 C451 90 418 78 387 78 C340 78 299 102 281 141 C260 184 249 250 249 334 C249 505 296 587 394 587 C439 587 477 571 502 540 C526 510 537 478 547 405 L640 405 L640 673 L551 673 L534 625 C460 673 422 686 350 686 C162 686 33 539 33 324 C33 115 155 -20 347 -20 C421 -20 464 -6 546 44 L570 -7 Z M310 -291 C353 -286 378 -276 401 -254 C430 -229 446 -189 446 -146 C446 -91 411 -53 361 -53 C319 -53 290 -82 290 -124 C290 -161 314 -184 352 -184 C360 -184 367 -183 380 -179 C378 -217 355 -237 310 -244 L310 -291 Z " />
<glyph glyph-name="gcommaaccent" unicode="&#x123;" horiz-adv-x="609" d="M109 156 C55 128 36 104 36 61 C36 19 54 -8 102 -40 C49 -57 28 -79 28 -119 C28 -183 107 -216 257 -216 C353 -216 437 -204 470 -185 C512 -161 538 -115 538 -64 C538 -8 511 34 464 51 C426 65 426 65 310 65 C214 65 195 66 177 69 C153 74 141 85 141 102 C141 110 145 117 155 128 C199 115 219 111 249 111 C302 111 355 126 394 151 C439 181 466 236 466 298 C466 340 458 367 435 405 C459 427 475 437 489 437 C497 437 502 434 511 425 C493 404 487 392 487 374 C487 341 513 316 547 316 C586 316 611 345 611 389 C611 445 567 486 506 486 C470 486 447 476 405 441 C353 476 321 486 264 486 C132 486 53 415 53 296 C53 241 66 209 109 156 L109 156 Z M286 -66 C331 -66 373 -69 400 -74 C422 -78 433 -88 433 -103 C433 -123 423 -131 389 -139 C362 -145 331 -147 281 -147 C182 -147 136 -134 136 -105 C136 -92 148 -79 165 -75 C187 -70 235 -66 286 -66 L286 -66 Z M258 423 C291 423 302 391 302 298 C302 210 289 176 256 176 C227 176 213 215 213 295 C213 386 226 423 258 423 L258 423 Z M331 764 C289 759 263 748 239 727 C212 702 195 661 195 619 C195 564 230 526 280 526 C322 526 351 555 351 597 C351 634 327 657 289 657 C281 657 274 656 261 652 C263 689 286 710 331 716 L331 764 Z " />
<glyph glyph-name="Imacron" unicode="&#x12a;" horiz-adv-x="415" d="M21 0 L395 0 L395 87 L358 87 C309 88 302 94 303 144 L303 522 C302 572 309 578 358 579 L395 579 L395 667 L21 667 L21 579 L58 579 C107 578 114 572 113 522 L113 144 C114 94 107 88 58 87 L21 87 L21 0 Z M55 754 L361 754 L361 838 L55 838 L55 754 Z " />
<glyph glyph-name="imacron" unicode="&#x12b;" horiz-adv-x="340" d="M23 387 L53 387 C94 385 97 381 96 328 L96 127 C96 88 90 81 52 80 L23 80 L23 0 L322 0 L322 80 L299 80 C265 81 261 86 260 127 L260 469 L23 469 L23 387 Z M12 585 L327 585 L327 672 L12 672 L12 585 Z " />
<glyph glyph-name="Iogonek" unicode="&#x12e;" horiz-adv-x="415" d="M395 0 L395 87 L358 87 C309 88 302 94 303 144 L303 522 C302 572 309 578 358 579 L395 579 L395 667 L21 667 L21 579 L58 579 C107 578 114 572 113 522 L113 144 C114 94 107 88 58 87 L21 87 L21 0 L305 0 C234 -52 201 -101 201 -152 C201 -201 233 -231 286 -231 C337 -231 372 -203 401 -139 L384 -128 C364 -157 355 -164 334 -164 C308 -164 294 -145 294 -111 C294 -73 312 -35 345 0 L395 0 Z " />
<glyph glyph-name="iogonek" unicode="&#x12f;" horiz-adv-x="341" d="M322 0 L322 80 L299 80 C265 81 261 86 260 127 L260 469 L24 469 L24 387 L54 387 C94 385 97 381 96 328 L96 127 C96 88 90 81 52 80 L24 80 L24 0 L274 0 C201 -56 171 -100 171 -151 C171 -200 203 -230 256 -230 C306 -230 342 -201 371 -138 L354 -128 C334 -157 325 -163 305 -163 C279 -163 265 -144 265 -110 C265 -71 280 -37 315 0 L322 0 Z M167 673 C121 673 84 636 84 589 C84 544 121 507 167 507 C213 507 250 544 250 590 C250 635 212 673 167 673 L167 673 Z " />
<glyph glyph-name="Idotaccent" unicode="&#x130;" horiz-adv-x="415" d="M21 0 L395 0 L395 87 L358 87 C309 88 302 94 303 144 L303 522 C302 572 309 578 358 579 L395 579 L395 667 L21 667 L21 579 L58 579 C107 578 114 572 113 522 L113 144 C114 94 107 88 58 87 L21 87 L21 0 Z M208 866 C169 866 133 831 133 793 C133 751 167 717 208 717 C248 717 282 751 282 791 C282 831 247 866 208 866 L208 866 Z " />
<glyph glyph-name="dotlessi" unicode="&#x131;" horiz-adv-x="340" d="M24 387 L54 387 C94 385 97 381 96 328 L96 127 C96 88 90 81 52 80 L24 80 L24 0 L322 0 L322 80 L299 80 C265 81 261 86 260 127 L260 469 L24 469 L24 387 Z " />
<glyph glyph-name="Kcommaaccent" unicode="&#x136;" horiz-adv-x="759" d="M19 0 L366 0 L366 87 L346 87 C297 88 291 94 291 145 L291 217 L386 308 L490 127 C494 119 497 112 497 107 C497 93 484 87 454 87 L426 87 L426 0 L767 0 L767 87 L740 87 C715 88 701 98 682 130 L512 423 L621 523 C670 568 688 578 718 579 L748 579 L748 667 L432 667 L432 579 L476 579 C501 579 512 574 512 563 C512 556 506 546 497 538 L291 346 L291 522 C291 572 297 579 346 579 L366 579 L366 667 L19 667 L19 579 L52 579 C102 579 109 572 108 522 L108 145 C109 94 102 88 52 87 L19 87 L19 0 Z M322 -291 C365 -286 390 -276 413 -254 C442 -229 458 -189 458 -146 C458 -91 423 -53 373 -53 C331 -53 302 -82 302 -124 C302 -161 326 -184 364 -184 C372 -184 379 -183 392 -179 C390 -217 367 -237 322 -244 L322 -291 Z " />
<glyph glyph-name="kcommaaccent" unicode="&#x137;" horiz-adv-x="627" d="M246 667 L19 667 L19 586 L42 586 C82 585 85 581 85 527 L85 128 C84 87 79 82 40 83 L19 83 L19 0 L288 0 L288 83 L280 83 C250 83 246 88 246 128 L246 150 L319 214 L371 121 C377 111 380 102 380 96 C380 85 375 83 337 83 L337 0 L613 0 L613 83 L600 82 C572 81 555 91 538 120 L432 306 L490 357 C516 381 530 386 565 386 L580 386 L580 469 L307 469 L307 386 C329 387 343 388 350 388 C370 388 378 385 378 377 C378 373 375 368 369 363 L246 256 L246 667 Z M256 -291 C299 -286 324 -276 347 -254 C376 -229 392 -189 392 -146 C392 -91 357 -53 307 -53 C265 -53 236 -82 236 -124 C236 -161 260 -184 298 -184 C306 -184 313 -183 326 -179 C324 -217 301 -237 256 -244 L256 -291 Z " />
<glyph glyph-name="Lacute" unicode="&#x139;" horiz-adv-x="651" d="M19 667 L19 580 L52 580 C102 579 109 573 108 522 L108 144 C109 94 102 88 52 87 L19 87 L19 0 L613 0 L613 272 L530 272 C516 112 487 83 341 87 L294 87 L294 522 C293 573 300 579 349 580 L387 580 L387 667 L19 667 Z M290 723 L436 777 C465 788 482 808 482 830 C482 857 460 879 434 879 C416 879 402 872 379 851 L233 723 L290 723 Z " />
<glyph glyph-name="lacute" unicode="&#x13a;" horiz-adv-x="330" d="M247 667 L14 667 L14 587 L41 587 C78 587 82 581 83 528 L83 127 C83 88 77 81 39 81 L14 81 L14 0 L311 0 L311 81 L287 81 C251 82 247 86 247 127 L247 667 Z M145 719 L203 719 L371 802 C408 821 424 839 424 864 C424 896 400 920 368 920 C343 920 323 908 288 871 L145 719 Z " />
<glyph glyph-name="Lcommaaccent" unicode="&#x13b;" horiz-adv-x="651" d="M19 667 L19 580 L52 580 C102 579 109 573 108 522 L108 144 C109 94 102 88 52 87 L19 87 L19 0 L613 0 L613 272 L530 272 C516 112 487 83 341 87 L294 87 L294 522 C293 573 300 579 349 580 L387 580 L387 667 L19 667 Z M267 -291 C310 -286 335 -276 358 -254 C387 -229 403 -189 403 -146 C403 -91 368 -53 318 -53 C276 -53 247 -82 247 -124 C247 -161 271 -184 309 -184 C317 -184 324 -183 337 -179 C335 -217 312 -237 267 -244 L267 -291 Z " />
<glyph glyph-name="lcommaaccent" unicode="&#x13c;" horiz-adv-x="330" d="M247 667 L14 667 L14 587 L41 587 C78 587 82 581 83 528 L83 127 C83 88 77 81 39 81 L14 81 L14 0 L311 0 L311 81 L287 81 C251 82 247 86 247 127 L247 667 Z M107 -291 C150 -286 175 -276 198 -254 C227 -229 243 -189 243 -146 C243 -91 208 -53 158 -53 C116 -53 87 -82 87 -124 C87 -161 111 -184 149 -184 C157 -184 164 -183 177 -179 C175 -217 152 -237 107 -244 L107 -291 Z " />
<glyph glyph-name="Lcaron" unicode="&#x13d;" horiz-adv-x="651" d="M19 667 L19 580 L52 580 C102 579 109 573 108 522 L108 144 C109 94 102 88 52 87 L19 87 L19 0 L613 0 L613 272 L530 272 C516 112 487 83 341 87 L294 87 L294 522 C293 573 300 579 349 580 L387 580 L387 667 L19 667 Z M454 443 C494 447 519 458 541 479 C567 505 583 545 583 587 C583 642 550 680 503 680 C463 680 435 651 435 609 C435 573 457 550 494 550 C502 550 508 551 520 554 C518 517 497 496 454 490 L454 443 Z " />
<glyph glyph-name="lcaron" unicode="&#x13e;" horiz-adv-x="330" d="M247 667 L14 667 L14 587 L41 587 C78 587 82 581 83 528 L83 127 C83 88 77 81 39 81 L14 81 L14 0 L311 0 L311 81 L287 81 C251 82 247 86 247 127 L247 667 Z M347 449 C389 454 415 464 439 486 C466 511 483 551 483 593 C483 649 448 687 398 687 C356 687 327 658 327 616 C327 579 351 556 389 556 C397 556 404 557 417 561 C415 523 392 503 347 496 L347 449 Z " />
<glyph glyph-name="Lslash" unicode="&#x141;" horiz-adv-x="656" d="M21 667 L21 580 L54 580 C103 579 110 573 109 522 L109 326 L5 249 L5 157 L109 235 L109 144 C109 94 103 88 54 87 L21 87 L21 0 L614 0 L614 272 L531 272 C516 111 488 84 343 87 L295 87 L295 310 L437 415 L437 507 L295 402 L295 522 C294 573 301 579 351 580 L389 580 L389 667 L21 667 Z " />
<glyph glyph-name="lslash" unicode="&#x142;" horiz-adv-x="340" d="M253 667 L20 667 L20 587 L47 587 C84 587 88 581 89 528 L89 341 L0 280 L0 206 L89 267 L89 127 C89 88 83 81 45 81 L20 81 L20 0 L317 0 L317 81 L293 81 C257 82 253 87 253 127 L253 335 L338 396 L338 470 L253 409 L253 667 Z " />
<glyph glyph-name="Nacute" unicode="&#x143;" horiz-adv-x="774" d="M19 580 L52 580 C102 579 109 573 108 522 L108 145 C109 94 102 88 52 87 L19 87 L19 0 L312 0 L312 87 L277 87 C226 88 219 94 220 145 L220 496 L477 0 L674 0 L674 522 C673 573 680 579 731 580 L759 580 L759 667 L470 667 L470 580 L505 580 C556 579 563 573 562 522 L562 201 L322 667 L19 667 L19 580 Z M352 723 L498 777 C526 788 543 808 543 830 C543 857 521 879 495 879 C477 879 463 872 440 851 L294 723 L352 723 Z " />
<glyph glyph-name="nacute" unicode="&#x144;" horiz-adv-x="627" d="M19 0 L301 0 L301 80 L292 80 C258 81 252 88 251 127 L251 286 C251 354 276 392 322 392 C363 392 383 364 383 308 L383 127 C382 88 376 81 342 80 L333 80 L333 0 L611 0 L611 80 L591 80 C556 81 549 88 549 127 L549 308 C549 384 541 415 516 441 C492 467 449 482 402 482 C332 482 290 460 239 396 L239 469 L19 469 L19 389 L43 389 C78 388 85 381 85 342 L85 127 C85 88 78 81 43 80 L19 80 L19 0 Z M219 534 L277 534 L445 617 C482 636 498 654 498 679 C498 711 474 735 442 735 C417 735 397 723 362 686 L219 534 Z " />
<glyph glyph-name="Ncommaaccent" unicode="&#x145;" horiz-adv-x="774" d="M19 580 L52 580 C102 579 109 573 108 522 L108 145 C109 94 102 88 52 87 L19 87 L19 0 L312 0 L312 87 L277 87 C226 88 219 94 220 145 L220 496 L477 0 L674 0 L674 522 C673 573 680 579 731 580 L759 580 L759 667 L470 667 L470 580 L505 580 C556 579 563 573 562 522 L562 201 L322 667 L19 667 L19 580 Z M329 -291 C372 -286 397 -276 420 -254 C449 -229 465 -189 465 -146 C465 -91 430 -53 380 -53 C338 -53 309 -82 309 -124 C309 -161 333 -184 371 -184 C379 -184 386 -183 399 -179 C397 -217 374 -237 329 -244 L329 -291 Z " />
<glyph glyph-name="ncommaaccent" unicode="&#x146;" horiz-adv-x="627" d="M19 0 L301 0 L301 80 L292 80 C258 81 252 88 251 127 L251 286 C251 354 276 392 322 392 C363 392 383 364 383 308 L383 127 C382 88 376 81 342 80 L333 80 L333 0 L611 0 L611 80 L591 80 C556 81 549 88 549 127 L549 308 C549 384 541 415 516 441 C492 467 449 482 402 482 C332 482 290 460 239 396 L239 469 L19 469 L19 389 L43 389 C78 388 85 381 85 342 L85 127 C85 88 78 81 43 80 L19 80 L19 0 Z M256 -291 C299 -286 324 -276 347 -254 C376 -229 392 -189 392 -146 C392 -91 357 -53 307 -53 C265 -53 236 -82 236 -124 C236 -161 260 -184 298 -184 C306 -184 313 -183 326 -179 C324 -217 301 -237 256 -244 L256 -291 Z " />
<glyph glyph-name="Ncaron" unicode="&#x147;" horiz-adv-x="774" d="M19 580 L52 580 C102 579 109 573 108 522 L108 145 C109 94 102 88 52 87 L19 87 L19 0 L312 0 L312 87 L277 87 C226 88 219 94 220 145 L220 496 L477 0 L674 0 L674 522 C673 573 680 579 731 580 L759 580 L759 667 L470 667 L470 580 L505 580 C556 579 563 573 562 522 L562 201 L322 667 L19 667 L19 580 Z M224 869 L326 723 L448 723 L550 869 L501 869 L387 810 L273 869 L224 869 Z " />
<glyph glyph-name="ncaron" unicode="&#x148;" horiz-adv-x="627" d="M19 0 L301 0 L301 80 L292 80 C258 81 252 88 251 127 L251 286 C251 354 276 392 322 392 C363 392 383 364 383 308 L383 127 C382 88 376 81 342 80 L333 80 L333 0 L611 0 L611 80 L591 80 C556 81 549 88 549 127 L549 308 C549 384 541 415 516 441 C492 467 449 482 402 482 C332 482 290 460 239 396 L239 469 L19 469 L19 389 L43 389 C78 388 85 381 85 342 L85 127 C85 88 78 81 43 80 L19 80 L19 0 Z M149 724 L266 534 L362 534 L479 724 L427 724 L314 636 L200 724 L149 724 Z " />
<glyph glyph-name="Omacron" unicode="&#x14c;" horiz-adv-x="774" d="M387 687 C276 687 194 657 129 594 C66 534 32 443 32 339 C32 223 63 138 129 73 C193 10 276 -20 388 -20 C608 -20 742 113 742 333 C742 554 609 687 387 687 L387 687 Z M387 595 C434 595 472 572 494 530 C517 488 526 430 526 333 C526 236 517 182 494 137 C473 95 435 72 387 72 C339 72 301 95 280 137 C257 182 248 236 248 338 C248 516 291 595 387 595 L387 595 Z M234 754 L540 754 L540 838 L234 838 L234 754 Z " />
<glyph glyph-name="omacron" unicode="&#x14d;" horiz-adv-x="561" d="M280 486 C122 486 22 390 22 238 C22 78 119 -17 281 -17 C440 -17 538 79 538 234 C538 390 440 486 280 486 L280 486 Z M280 401 C339 401 359 360 359 234 C359 109 339 68 280 68 C220 68 201 109 201 237 C201 360 221 401 280 401 L280 401 Z M122 585 L438 585 L438 672 L122 672 L122 585 Z " />
<glyph glyph-name="Ohungarumlaut" unicode="&#x150;" horiz-adv-x="774" d="M387 687 C276 687 194 657 129 594 C66 534 32 443 32 339 C32 223 63 138 129 73 C193 10 276 -20 388 -20 C608 -20 742 113 742 333 C742 554 609 687 387 687 L387 687 Z M387 595 C434 595 472 572 494 530 C517 488 526 430 526 333 C526 236 517 182 494 137 C473 95 435 72 387 72 C339 72 301 95 280 137 C257 182 248 236 248 338 C248 516 291 595 387 595 L387 595 Z M317 721 L417 789 C436 803 446 817 446 834 C446 857 425 877 401 877 C382 877 367 866 350 838 L277 721 L317 721 Z M446 721 L574 787 C600 800 611 813 611 833 C611 855 589 877 567 877 C549 877 535 868 514 845 L405 721 L446 721 Z " />
<glyph glyph-name="ohungarumlaut" unicode="&#x151;" horiz-adv-x="561" d="M280 486 C122 486 22 390 22 238 C22 78 119 -17 281 -17 C440 -17 538 79 538 234 C538 390 440 486 280 486 L280 486 Z M280 401 C339 401 359 360 359 234 C359 109 339 68 280 68 C220 68 201 109 201 237 C201 360 221 401 280 401 L280 401 Z M170 535 L216 535 L331 637 C350 654 362 674 362 690 C362 716 341 737 315 737 C286 737 272 724 245 674 L170 535 Z M297 535 L344 535 L492 632 C520 650 533 667 533 686 C533 713 512 735 485 735 C458 735 446 726 412 683 L297 535 Z " />
<glyph glyph-name="OE" unicode="&#x152;" horiz-adv-x="1127" d="M1071 275 L988 275 C971 119 939 86 804 87 L722 87 L722 301 L738 301 C808 303 818 290 822 191 L899 191 L899 495 L822 495 C820 407 807 391 738 390 L722 390 L722 580 L801 580 C942 583 967 560 988 413 L1071 413 L1071 667 L626 667 L385 687 C167 687 33 552 33 333 C33 115 167 -20 384 -20 C413 -20 450 -18 482 -14 C596 -1 605 -1 649 0 L1071 0 L1071 275 Z M537 248 C537 171 529 129 509 106 C490 85 450 71 406 71 C296 71 249 149 249 333 C249 518 296 596 406 596 C449 596 490 582 509 560 C529 538 537 496 537 419 L537 248 Z " />
<glyph glyph-name="oe" unicode="&#x153;" horiz-adv-x="868" d="M722 159 C717 134 711 119 703 108 C688 88 659 76 628 76 C596 76 572 88 557 111 C542 135 537 159 535 214 L842 214 C842 288 840 303 824 344 C790 434 715 484 615 484 C552 484 510 466 455 414 C407 467 364 485 287 485 C121 485 24 393 24 234 C24 81 122 -17 275 -17 C352 -17 404 4 454 54 C502 1 544 -18 613 -18 C676 -18 731 2 771 39 C801 67 816 95 835 159 L722 159 Z M286 401 C349 401 370 359 370 234 C370 109 349 68 287 68 C223 68 203 109 203 237 C203 359 224 401 286 401 L286 401 Z M538 294 C541 335 544 350 551 364 C561 384 587 399 612 399 C634 399 654 388 666 369 C676 352 680 334 682 294 L538 294 Z " />
<glyph glyph-name="Racute" unicode="&#x154;" horiz-adv-x="759" d="M382 87 L349 87 C300 88 293 94 294 145 L294 304 L368 304 C442 302 453 290 454 214 L454 151 C454 83 464 49 492 21 C519 -6 557 -19 607 -19 C713 -19 754 33 754 170 L754 185 L690 185 C689 116 687 106 678 92 C674 85 665 81 657 81 C638 81 631 99 631 153 L631 217 C628 304 604 333 519 350 C569 363 591 372 613 390 C646 417 664 457 664 503 C664 552 643 599 608 626 C570 655 520 667 436 667 L19 667 L19 579 L52 579 C102 579 109 572 108 522 L108 145 C109 94 102 88 52 87 L19 87 L19 0 L382 0 L382 87 Z M294 391 L294 579 L365 579 C410 579 429 574 445 558 C462 541 470 517 470 483 C470 413 443 391 358 391 L294 391 Z M251 723 L397 777 C426 788 443 808 443 830 C443 857 421 879 394 879 C377 879 363 872 340 851 L194 723 L251 723 Z " />
<glyph glyph-name="racute" unicode="&#x155;" horiz-adv-x="476" d="M19 0 L331 0 L331 80 L295 80 C260 81 254 88 253 127 L253 276 C253 357 285 417 329 417 C337 417 344 415 356 409 C324 396 311 379 311 349 C311 309 341 278 380 278 C429 278 463 316 463 373 C463 438 420 482 357 482 C313 482 283 467 242 422 L242 469 L19 469 L19 388 L45 388 C80 388 87 381 87 342 L87 127 C87 88 80 81 45 80 L19 80 L19 0 Z M144 534 L202 534 L370 617 C407 636 423 654 423 679 C423 711 399 735 367 735 C341 735 321 723 287 686 L144 534 Z " />
<glyph glyph-name="Rcommaaccent" unicode="&#x156;" horiz-adv-x="759" d="M382 87 L349 87 C300 88 293 94 294 145 L294 304 L368 304 C442 302 453 290 454 214 L454 151 C454 83 464 49 492 21 C519 -6 557 -19 607 -19 C713 -19 754 33 754 170 L754 185 L690 185 C689 116 687 106 678 92 C674 85 665 81 657 81 C638 81 631 99 631 153 L631 217 C628 304 604 333 519 350 C569 363 591 372 613 390 C646 417 664 457 664 503 C664 552 643 599 608 626 C570 655 520 667 436 667 L19 667 L19 579 L52 579 C102 579 109 572 108 522 L108 145 C109 94 102 88 52 87 L19 87 L19 0 L382 0 L382 87 Z M294 391 L294 579 L365 579 C410 579 429 574 445 558 C462 541 470 517 470 483 C470 413 443 391 358 391 L294 391 Z M322 -291 C365 -286 390 -276 413 -254 C442 -229 458 -189 458 -146 C458 -91 423 -53 373 -53 C331 -53 302 -82 302 -124 C302 -161 326 -184 364 -184 C372 -184 379 -183 392 -179 C390 -217 367 -237 322 -244 L322 -291 Z " />
<glyph glyph-name="rcommaaccent" unicode="&#x157;" horiz-adv-x="476" d="M19 0 L331 0 L331 80 L295 80 C260 81 254 88 253 127 L253 276 C253 357 285 417 329 417 C337 417 344 415 356 409 C324 396 311 379 311 349 C311 309 341 278 380 278 C429 278 463 316 463 373 C463 438 420 482 357 482 C313 482 283 467 242 422 L242 469 L19 469 L19 388 L45 388 C80 388 87 381 87 342 L87 127 C87 88 80 81 45 80 L19 80 L19 0 Z M112 -291 C155 -286 180 -276 203 -254 C232 -229 248 -189 248 -146 C248 -91 213 -53 163 -53 C121 -53 92 -82 92 -124 C92 -161 116 -184 154 -184 C162 -184 169 -183 182 -179 C180 -217 157 -237 112 -244 L112 -291 Z " />
<glyph glyph-name="Rcaron" unicode="&#x158;" horiz-adv-x="759" d="M382 87 L349 87 C300 88 293 94 294 145 L294 304 L368 304 C442 302 453 290 454 214 L454 151 C454 83 464 49 492 21 C519 -6 557 -19 607 -19 C713 -19 754 33 754 170 L754 185 L690 185 C689 116 687 106 678 92 C674 85 665 81 657 81 C638 81 631 99 631 153 L631 217 C628 304 604 333 519 350 C569 363 591 372 613 390 C646 417 664 457 664 503 C664 552 643 599 608 626 C570 655 520 667 436 667 L19 667 L19 579 L52 579 C102 579 109 572 108 522 L108 145 C109 94 102 88 52 87 L19 87 L19 0 L382 0 L382 87 Z M294 391 L294 579 L365 579 C410 579 429 574 445 558 C462 541 470 517 470 483 C470 413 443 391 358 391 L294 391 Z M134 869 L235 723 L358 723 L460 869 L411 869 L297 810 L183 869 L134 869 Z " />
<glyph glyph-name="rcaron" unicode="&#x159;" horiz-adv-x="476" d="M19 0 L331 0 L331 80 L295 80 C260 81 254 88 253 127 L253 276 C253 357 285 417 329 417 C337 417 344 415 356 409 C324 396 311 379 311 349 C311 309 341 278 380 278 C429 278 463 316 463 373 C463 438 420 482 357 482 C313 482 283 467 242 422 L242 469 L19 469 L19 388 L45 388 C80 388 87 381 87 342 L87 127 C87 88 80 81 45 80 L19 80 L19 0 Z M73 724 L191 534 L286 534 L404 724 L352 724 L238 636 L125 724 L73 724 Z " />
<glyph glyph-name="Sacute" unicode="&#x15a;" horiz-adv-x="632" d="M117 -9 L142 40 C172 18 187 11 218 2 C261 -11 310 -19 345 -19 C372 -19 410 -14 443 -6 C487 5 514 18 541 42 C584 80 609 137 609 198 C609 265 583 321 534 358 C490 391 440 408 294 441 C229 455 208 473 208 511 C208 557 247 588 305 588 C349 588 398 573 426 551 C462 524 477 494 489 430 L576 430 L576 674 L497 674 L478 627 C416 670 371 683 288 683 C125 683 30 605 30 470 C30 439 36 411 48 386 C71 337 105 308 167 286 C208 271 272 253 317 244 C400 226 427 205 427 158 C427 109 384 78 316 78 C266 78 224 94 188 127 C151 160 138 187 125 253 L40 253 L40 -9 L117 -9 Z M281 723 L427 777 C455 788 472 808 472 830 C472 857 450 879 424 879 C407 879 393 872 369 851 L224 723 L281 723 Z " />
<glyph glyph-name="sacute" unicode="&#x15b;" horiz-adv-x="524" d="M105 -5 L119 30 C195 -9 224 -17 278 -17 C402 -17 487 49 487 144 C487 191 464 231 424 258 C395 277 379 283 306 303 C222 326 207 335 207 363 C207 389 228 405 262 405 C285 405 314 398 334 387 C358 375 372 360 396 324 L464 324 L464 473 L396 473 L386 447 C325 478 294 486 239 486 C112 486 32 425 32 327 C32 286 47 251 77 225 C100 205 132 191 189 175 C276 150 279 149 291 142 C305 135 310 126 310 113 C310 84 288 69 244 69 C215 69 189 77 166 94 C141 112 130 128 112 170 L38 170 L38 -5 L105 -5 Z M167 534 L225 534 L393 617 C430 636 446 654 446 679 C446 711 422 735 390 735 C365 735 345 723 310 686 L167 534 Z " />
<glyph glyph-name="Scedilla" unicode="&#x15e;" horiz-adv-x="632" d="M335 -19 L338 -19 C404 -18 470 -3 508 18 C571 54 609 121 609 198 C609 265 583 321 534 358 C490 391 440 408 294 441 C229 455 208 473 208 511 C208 557 246 588 305 588 C348 588 397 573 426 551 C462 524 477 494 488 430 L576 430 L576 674 L497 674 L478 627 C416 670 370 683 287 683 C125 683 30 605 30 470 C30 439 36 411 48 386 C71 337 105 308 167 286 C209 271 272 253 317 244 C400 226 427 205 427 158 C427 109 384 78 315 78 C266 78 223 94 188 127 C151 160 138 187 125 253 L40 253 L40 -9 L117 -9 L142 40 C179 11 216 -2 291 -15 L291 -101 C302 -98 314 -97 320 -97 C345 -97 362 -112 362 -135 C362 -156 345 -171 321 -171 C288 -171 252 -158 209 -130 L185 -182 C260 -218 301 -230 347 -230 C414 -230 460 -193 460 -137 C460 -90 423 -52 377 -52 C364 -52 351 -53 335 -55 L335 -19 Z " />
<glyph glyph-name="scedilla" unicode="&#x15f;" horiz-adv-x="524" d="M279 -17 C402 -18 487 48 487 144 C487 190 464 231 424 258 C395 277 380 283 307 303 C223 325 208 335 208 363 C208 389 229 405 263 405 C285 405 314 398 335 387 C358 375 373 360 396 324 L464 324 L464 473 L396 473 L386 447 C325 478 294 486 240 486 C112 486 32 425 32 327 C32 286 48 251 78 225 C100 205 133 191 190 175 C305 143 311 139 311 113 C311 84 288 69 245 69 C216 69 190 77 167 94 C142 112 130 128 113 170 L38 170 L38 -5 L105 -5 L119 30 C176 1 199 -8 235 -14 L235 -98 C246 -96 258 -94 264 -94 C290 -94 306 -109 306 -133 C306 -156 290 -171 265 -171 C232 -171 195 -158 152 -130 L129 -182 C203 -218 245 -230 291 -230 C358 -230 402 -193 402 -135 C402 -86 367 -49 321 -49 C310 -49 294 -50 279 -53 L279 -17 Z " />
<glyph glyph-name="Scaron" unicode="&#x160;" horiz-adv-x="632" d="M117 -9 L142 40 C172 18 187 11 218 2 C261 -11 310 -19 345 -19 C372 -19 410 -14 443 -6 C487 5 514 18 541 42 C584 80 609 137 609 198 C609 265 583 321 534 358 C490 391 440 408 294 441 C229 455 208 473 208 511 C208 557 247 588 305 588 C349 588 398 573 426 551 C462 524 477 494 489 430 L576 430 L576 674 L497 674 L478 627 C416 670 371 683 288 683 C125 683 30 605 30 470 C30 439 36 411 48 386 C71 337 105 308 167 286 C208 271 272 253 317 244 C400 226 427 205 427 158 C427 109 384 78 316 78 C266 78 224 94 188 127 C151 160 138 187 125 253 L40 253 L40 -9 L117 -9 Z M153 869 L255 723 L377 723 L479 869 L430 869 L316 810 L202 869 L153 869 Z " />
<glyph glyph-name="scaron" unicode="&#x161;" horiz-adv-x="524" d="M105 -5 L119 30 C195 -9 224 -17 278 -17 C402 -17 487 49 487 144 C487 191 464 231 424 258 C395 277 379 283 306 303 C222 326 207 335 207 363 C207 389 228 405 262 405 C285 405 314 398 334 387 C358 375 372 360 396 324 L464 324 L464 473 L396 473 L386 447 C325 478 294 486 239 486 C112 486 32 425 32 327 C32 286 47 251 77 225 C100 205 132 191 189 175 C276 150 279 149 291 142 C305 135 310 126 310 113 C310 84 288 69 244 69 C215 69 189 77 166 94 C141 112 130 128 112 170 L38 170 L38 -5 L105 -5 Z M84 724 L202 534 L297 534 L414 724 L363 724 L249 636 L136 724 L84 724 Z " />
<glyph glyph-name="Tcommaaccent" unicode="&#x162;" horiz-adv-x="656" d="M636 667 L20 667 L20 410 L105 410 C107 532 145 580 236 578 L236 166 C236 106 235 101 222 95 C210 89 183 86 140 86 L140 0 L516 0 L516 86 C470 86 447 89 435 95 C421 102 420 107 420 167 L420 578 C511 580 549 532 551 410 L636 410 L636 667 Z M270 -291 C313 -286 338 -276 361 -254 C390 -229 406 -189 406 -146 C406 -91 371 -53 321 -53 C279 -53 250 -82 250 -124 C250 -161 274 -184 312 -184 C320 -184 327 -183 340 -179 C338 -217 315 -237 270 -244 L270 -291 Z " />
<glyph glyph-name="tcommaaccent" unicode="&#x163;" horiz-adv-x="443" d="M82 388 L82 167 C82 91 86 70 106 39 C131 0 173 -19 235 -19 C292 -19 337 0 365 36 C387 64 393 90 393 152 L393 222 L313 222 L313 178 C313 97 305 74 277 74 C253 74 246 90 246 142 L246 388 L354 388 L354 469 L246 469 L246 652 L147 652 C138 534 98 474 24 463 L24 388 L82 388 Z M164 -291 C207 -286 232 -276 255 -254 C284 -229 300 -189 300 -146 C300 -91 265 -53 215 -53 C173 -53 144 -82 144 -124 C144 -161 168 -184 206 -184 C214 -184 221 -183 234 -179 C232 -217 209 -237 164 -244 L164 -291 Z " />
<glyph glyph-name="Tcaron" unicode="&#x164;" horiz-adv-x="656" d="M636 667 L20 667 L20 410 L105 410 C107 532 145 580 236 578 L236 166 C236 106 235 101 222 95 C210 89 183 86 140 86 L140 0 L516 0 L516 86 C470 86 447 89 435 95 C421 102 420 107 420 167 L420 578 C511 580 549 532 551 410 L636 410 L636 667 Z M165 869 L267 723 L389 723 L491 869 L442 869 L328 810 L214 869 L165 869 Z " />
<glyph glyph-name="tcaron" unicode="&#x165;" horiz-adv-x="443" d="M82 388 L82 167 C82 91 86 70 106 39 C131 0 173 -19 235 -19 C292 -19 337 0 365 36 C387 64 393 90 393 152 L393 222 L313 222 L313 178 C313 97 305 74 277 74 C253 74 246 90 246 142 L246 388 L354 388 L354 469 L246 469 L246 652 L147 652 C138 534 98 474 24 463 L24 388 L82 388 Z M345 525 C387 529 413 540 437 561 C464 587 481 627 481 669 C481 724 446 762 396 762 C354 762 325 733 325 691 C325 655 349 632 387 632 C395 632 401 633 415 636 C413 599 390 578 345 572 L345 525 Z " />
<glyph glyph-name="Umacron" unicode="&#x16a;" horiz-adv-x="726" d="M19 582 L43 583 C91 583 103 563 103 482 L103 189 C103 126 119 82 157 46 C204 2 269 -20 357 -20 C532 -20 626 56 626 197 L626 479 C627 558 627 558 637 570 C649 578 662 580 711 582 L711 667 L428 667 L428 582 L446 582 C510 582 518 570 518 479 L518 210 C518 157 512 136 492 113 C473 91 437 79 393 79 C360 79 335 87 317 105 C294 126 287 154 287 217 L287 485 C287 549 290 563 303 573 C312 579 328 583 346 583 C354 583 365 583 378 582 L378 667 L19 667 L19 582 Z M210 754 L517 754 L517 838 L210 838 L210 754 Z " />
<glyph glyph-name="umacron" unicode="&#x16b;" horiz-adv-x="627" d="M543 469 L320 469 L320 389 L331 389 C369 388 376 381 377 342 L377 190 C377 114 354 77 308 77 C268 77 249 104 249 161 L249 469 L14 469 L14 389 L37 389 C76 388 82 381 83 342 L83 161 C83 84 90 54 115 28 C140 2 182 -13 228 -13 C298 -13 341 10 389 73 L389 0 L606 0 L606 80 L583 80 C550 81 544 88 543 127 L543 469 Z M156 585 L471 585 L471 672 L156 672 L156 585 Z " />
<glyph glyph-name="Uring" unicode="&#x16e;" horiz-adv-x="726" d="M19 582 L43 583 C91 583 103 563 103 482 L103 189 C103 126 119 82 157 46 C204 2 269 -20 357 -20 C532 -20 626 56 626 197 L626 479 C627 558 627 558 637 570 C649 578 662 580 711 582 L711 667 L428 667 L428 582 L446 582 C510 582 518 570 518 479 L518 210 C518 157 512 136 492 113 C473 91 437 79 393 79 C360 79 335 87 317 105 C294 126 287 154 287 217 L287 485 C287 549 290 563 303 573 C312 579 328 583 346 583 C354 583 365 583 378 582 L378 667 L19 667 L19 582 Z M386 926 C323 926 271 876 271 816 C271 751 323 697 387 697 C447 697 500 751 500 813 C500 876 449 926 386 926 L386 926 Z M386 857 C411 857 432 836 432 811 C432 786 411 765 386 765 C360 765 339 786 339 812 C339 836 361 857 386 857 L386 857 Z " />
<glyph glyph-name="uring" unicode="&#x16f;" horiz-adv-x="627" d="M543 469 L320 469 L320 389 L331 389 C369 388 376 381 377 342 L377 190 C377 114 354 77 308 77 C268 77 249 104 249 161 L249 469 L14 469 L14 389 L37 389 C76 388 82 381 83 342 L83 161 C83 84 90 54 115 28 C140 2 182 -13 228 -13 C298 -13 341 10 389 73 L389 0 L606 0 L606 80 L583 80 C550 81 544 88 543 127 L543 469 Z M293 792 C219 792 156 731 156 658 C156 580 216 519 294 519 C368 519 429 581 429 655 C429 730 367 792 293 792 L293 792 Z M292 716 C325 716 353 688 353 655 C353 622 326 595 293 595 C258 595 232 621 232 656 C232 689 260 716 292 716 L292 716 Z " />
<glyph glyph-name="Uhungarumlaut" unicode="&#x170;" horiz-adv-x="726" d="M19 582 L43 583 C91 583 103 563 103 482 L103 189 C103 126 119 82 157 46 C204 2 269 -20 357 -20 C532 -20 626 56 626 197 L626 479 C627 558 627 558 637 570 C649 578 662 580 711 582 L711 667 L428 667 L428 582 L446 582 C510 582 518 570 518 479 L518 210 C518 157 512 136 492 113 C473 91 437 79 393 79 C360 79 335 87 317 105 C294 126 287 154 287 217 L287 485 C287 549 290 563 303 573 C312 579 328 583 346 583 C354 583 365 583 378 582 L378 667 L19 667 L19 582 Z M293 721 L393 789 C412 803 422 818 422 834 C422 857 401 877 378 877 C358 877 343 866 326 838 L253 721 L293 721 Z M422 721 L550 787 C576 800 587 813 587 833 C587 855 565 877 543 877 C525 877 511 868 490 845 L382 721 L422 721 Z " />
<glyph glyph-name="uhungarumlaut" unicode="&#x171;" horiz-adv-x="627" d="M543 469 L320 469 L320 389 L331 389 C369 388 376 381 377 342 L377 190 C377 114 354 77 308 77 C268 77 249 104 249 161 L249 469 L14 469 L14 389 L37 389 C76 388 82 381 83 342 L83 161 C83 84 90 54 115 28 C140 2 182 -13 228 -13 C298 -13 341 10 389 73 L389 0 L606 0 L606 80 L583 80 C550 81 544 88 543 127 L543 469 Z M203 535 L250 535 L364 637 C385 655 396 674 396 690 C396 716 375 737 348 737 C320 737 305 724 278 674 L203 535 Z M331 535 L377 535 L526 632 C554 650 567 667 567 686 C567 713 545 735 519 735 C492 735 479 726 445 683 L331 535 Z " />
<glyph glyph-name="Uogonek" unicode="&#x172;" horiz-adv-x="726" d="M711 667 L428 667 L428 582 L449 582 C509 582 518 569 518 479 L518 210 C518 156 512 135 492 112 C473 90 437 78 392 78 C360 78 335 87 317 104 C294 125 287 153 287 217 L287 485 C287 549 290 563 303 573 C312 579 329 583 349 583 C356 583 365 583 378 582 L378 667 L19 667 L19 582 L46 583 C91 583 103 561 103 482 L103 188 C103 125 119 82 157 46 C203 2 269 -21 354 -21 C371 -21 391 -20 415 -17 C366 -62 347 -98 347 -140 C347 -189 379 -219 431 -219 C483 -219 518 -191 548 -127 L531 -116 C511 -145 501 -152 481 -152 C455 -152 440 -133 440 -101 C440 -73 458 -41 485 -21 C508 -3 531 14 555 32 C573 46 589 64 600 86 C616 114 626 158 626 197 L626 479 C627 558 627 558 637 569 C649 578 662 580 711 582 L711 667 Z " />
<glyph glyph-name="uogonek" unicode="&#x173;" horiz-adv-x="627" d="M526 0 C457 -50 421 -102 421 -153 C421 -202 453 -232 505 -232 C555 -232 592 -203 620 -140 L603 -130 C583 -159 574 -165 553 -165 C527 -165 513 -146 513 -112 C513 -73 530 -36 566 0 L606 0 L606 80 L583 80 C550 81 544 88 543 127 L543 469 L320 469 L320 389 L331 389 C369 388 376 381 377 342 L377 190 C377 114 354 77 308 77 C268 77 249 104 249 161 L249 469 L14 469 L14 389 L37 389 C76 388 82 381 83 342 L83 161 C83 84 90 54 115 28 C140 2 182 -13 228 -13 C298 -13 341 10 389 73 L389 0 L526 0 Z " />
<glyph glyph-name="Ydieresis" unicode="&#x178;" horiz-adv-x="736" d="M563 85 L521 85 C472 83 464 93 464 153 L464 275 L598 503 C635 567 653 579 712 582 L712 667 L443 667 L443 582 L453 582 C496 582 511 577 511 561 C511 551 507 539 500 527 L412 391 L336 512 C313 548 313 549 313 561 C313 574 328 582 354 582 L387 582 L387 667 L24 667 L24 582 C93 575 111 563 146 504 L279 275 L279 153 C279 93 271 83 223 85 L181 85 L181 0 L563 0 L563 85 Z M270 878 C229 878 193 842 193 803 C193 760 227 726 270 726 C311 726 346 760 346 801 C346 842 310 878 270 878 L270 878 Z M468 878 C427 878 391 842 391 803 C391 760 425 726 468 726 C510 726 544 760 544 801 C544 842 509 878 468 878 L468 878 Z " />
<glyph glyph-name="Zacute" unicode="&#x179;" horiz-adv-x="613" d="M24 0 L594 0 L594 271 L500 271 C491 124 462 90 344 85 L231 85 L594 570 L594 667 L41 667 L41 414 L125 414 C133 541 167 577 278 577 L382 577 L24 91 L24 0 Z M272 723 L418 777 C446 788 463 808 463 830 C463 857 441 879 415 879 C398 879 384 872 360 851 L215 723 L272 723 Z " />
<glyph glyph-name="zacute" unicode="&#x17a;" horiz-adv-x="467" d="M24 0 L445 0 L445 207 L367 207 L367 193 C367 100 350 80 269 80 L205 80 L445 379 L445 469 L37 469 L37 271 L114 271 C116 378 126 390 214 388 L269 388 L24 90 L24 0 Z M139 534 L197 534 L365 617 C403 636 419 654 419 679 C419 711 395 735 363 735 C337 735 317 723 282 686 L139 534 Z " />
<glyph glyph-name="Zdotaccent" unicode="&#x17b;" horiz-adv-x="613" d="M24 0 L594 0 L594 271 L500 271 C491 124 462 90 344 85 L231 85 L594 570 L594 667 L41 667 L41 414 L125 414 C133 541 167 577 278 577 L382 577 L24 91 L24 0 Z M308 866 C269 866 233 831 233 793 C233 751 267 717 308 717 C348 717 382 751 382 791 C382 831 347 866 308 866 L308 866 Z " />
<glyph glyph-name="zdotaccent" unicode="&#x17c;" horiz-adv-x="467" d="M24 0 L445 0 L445 207 L367 207 L367 193 C367 100 350 80 269 80 L205 80 L445 379 L445 469 L37 469 L37 271 L114 271 C116 378 126 390 214 388 L269 388 L24 90 L24 0 Z M235 707 C195 707 157 671 157 631 C157 588 192 553 236 553 C278 553 311 587 311 629 C311 672 277 707 235 707 L235 707 Z " />
<glyph glyph-name="Zcaron" unicode="&#x17d;" horiz-adv-x="613" d="M24 0 L594 0 L594 271 L500 271 C491 124 462 90 344 85 L231 85 L594 570 L594 667 L41 667 L41 414 L125 414 C133 541 167 577 278 577 L382 577 L24 91 L24 0 Z M144 869 L246 723 L368 723 L470 869 L421 869 L307 810 L193 869 L144 869 Z " />
<glyph glyph-name="zcaron" unicode="&#x17e;" horiz-adv-x="467" d="M24 0 L445 0 L445 207 L367 207 L367 193 C367 100 350 80 269 80 L205 80 L445 379 L445 469 L37 469 L37 271 L114 271 C116 378 126 390 214 388 L269 388 L24 90 L24 0 Z M69 724 L186 534 L282 534 L399 724 L347 724 L234 636 L120 724 L69 724 Z " />
<glyph glyph-name="florin" unicode="&#x192;" horiz-adv-x="626" d="M396 386 L477 386 L490 469 L409 469 L418 532 C424 568 426 577 431 588 C440 605 461 618 480 618 C488 618 499 616 511 613 C480 596 468 579 468 552 C468 522 491 500 524 500 C568 500 604 539 604 588 C604 648 551 685 465 685 C401 685 339 661 303 621 C278 594 267 564 257 496 L253 469 L183 469 L171 386 L241 386 L180 -19 C174 -54 172 -63 166 -74 C158 -91 137 -104 118 -104 C110 -104 99 -103 87 -100 C118 -83 130 -66 130 -38 C130 -8 107 14 74 14 C30 14 -6 -26 -6 -74 C-6 -133 48 -171 133 -171 C196 -171 258 -147 294 -107 C320 -80 330 -51 341 17 L396 386 Z " />
<glyph glyph-name="uni01D3" unicode="&#x1d3;" horiz-adv-x="726" d="M19 582 L43 583 C91 583 103 563 103 482 L103 189 C103 126 119 82 157 46 C204 2 269 -20 357 -20 C532 -20 626 56 626 197 L626 479 C627 558 627 558 637 570 C649 578 662 580 711 582 L711 667 L428 667 L428 582 L446 582 C510 582 518 570 518 479 L518 210 C518 157 512 136 492 113 C473 91 437 79 393 79 C360 79 335 87 317 105 C294 126 287 154 287 217 L287 485 C287 549 290 563 303 573 C312 579 328 583 346 583 C354 583 365 583 378 582 L378 667 L19 667 L19 582 Z M200 869 L302 723 L425 723 L527 869 L477 869 L363 810 L249 869 L200 869 Z " />
<glyph glyph-name="Scommaaccent" unicode="&#x218;" horiz-adv-x="632" d="M117 -9 L142 40 C172 18 187 11 218 2 C261 -11 310 -19 345 -19 C372 -19 410 -14 443 -6 C487 5 514 18 541 42 C584 80 609 137 609 198 C609 265 583 321 534 358 C490 391 440 408 294 441 C229 455 208 473 208 511 C208 557 247 588 305 588 C349 588 398 573 426 551 C462 524 477 494 489 430 L576 430 L576 674 L497 674 L478 627 C416 670 371 683 288 683 C125 683 30 605 30 470 C30 439 36 411 48 386 C71 337 105 308 167 286 C208 271 272 253 317 244 C400 226 427 205 427 158 C427 109 384 78 316 78 C266 78 224 94 188 127 C151 160 138 187 125 253 L40 253 L40 -9 L117 -9 Z M264 -291 C307 -286 332 -276 355 -254 C384 -229 400 -189 400 -146 C400 -91 365 -53 315 -53 C273 -53 244 -82 244 -124 C244 -161 268 -184 306 -184 C314 -184 321 -183 334 -179 C332 -217 309 -237 264 -244 L264 -291 Z " />
<glyph glyph-name="scommaaccent" unicode="&#x219;" horiz-adv-x="524" d="M105 -5 L119 30 C195 -9 224 -17 278 -17 C402 -17 487 49 487 144 C487 191 464 231 424 258 C395 277 379 283 306 303 C222 326 207 335 207 363 C207 389 228 405 262 405 C285 405 314 398 334 387 C358 375 372 360 396 324 L464 324 L464 473 L396 473 L386 447 C325 478 294 486 239 486 C112 486 32 425 32 327 C32 286 47 251 77 225 C100 205 132 191 189 175 C276 150 279 149 291 142 C305 135 310 126 310 113 C310 84 288 69 244 69 C215 69 189 77 166 94 C141 112 130 128 112 170 L38 170 L38 -5 L105 -5 Z M204 -291 C247 -286 272 -276 295 -254 C324 -229 340 -189 340 -146 C340 -91 305 -53 255 -53 C213 -53 184 -82 184 -124 C184 -161 208 -184 246 -184 C254 -184 261 -183 274 -179 C272 -217 249 -237 204 -244 L204 -291 Z " />
<glyph glyph-name="uni021A" unicode="&#x21a;" horiz-adv-x="656" d="M636 667 L20 667 L20 410 L105 410 C107 532 145 580 236 578 L236 166 C236 106 235 101 222 95 C210 89 183 86 140 86 L140 0 L516 0 L516 86 C470 86 447 89 435 95 C421 102 420 107 420 167 L420 578 C511 580 549 532 551 410 L636 410 L636 667 Z M270 -291 C313 -286 338 -276 361 -254 C390 -229 406 -189 406 -146 C406 -91 371 -53 321 -53 C279 -53 250 -82 250 -124 C250 -161 274 -184 312 -184 C320 -184 327 -183 340 -179 C338 -217 315 -237 270 -244 L270 -291 Z " />
<glyph glyph-name="uni021B" unicode="&#x21b;" horiz-adv-x="443" d="M82 388 L82 167 C82 91 86 70 106 39 C131 0 173 -19 235 -19 C292 -19 337 0 365 36 C387 64 393 90 393 152 L393 222 L313 222 L313 178 C313 97 305 74 277 74 C253 74 246 90 246 142 L246 388 L354 388 L354 469 L246 469 L246 652 L147 652 C138 534 98 474 24 463 L24 388 L82 388 Z M164 -291 C207 -286 232 -276 255 -254 C284 -229 300 -189 300 -146 C300 -91 265 -53 215 -53 C173 -53 144 -82 144 -124 C144 -161 168 -184 206 -184 C214 -184 221 -183 234 -179 C232 -217 209 -237 164 -244 L164 -291 Z " />
<glyph glyph-name="afii57929" unicode="&#x2bc;" horiz-adv-x="245" d="M41 400 C94 412 120 423 152 452 C190 485 212 533 212 584 C212 647 174 690 119 690 C73 690 37 653 37 605 C37 562 66 529 104 529 C111 529 119 530 129 531 C113 482 97 469 41 457 L41 400 Z " />
<glyph glyph-name="circumflex" unicode="&#x2c6;" horiz-adv-x="492" d="M81 534 L133 534 L246 622 L360 534 L411 534 L294 724 L199 724 L81 534 Z " />
<glyph glyph-name="caron" unicode="&#x2c7;" horiz-adv-x="492" d="M81 724 L199 534 L294 534 L411 724 L360 724 L246 636 L133 724 L81 724 Z " />
<glyph glyph-name="uni02C9" unicode="&#x2c9;" horiz-adv-x="491" d="M88 585 L403 585 L403 672 L88 672 L88 585 Z " />
<glyph glyph-name="breve" unicode="&#x2d8;" horiz-adv-x="492" d="M78 708 C90 649 101 623 125 598 C154 567 198 550 245 550 C293 550 338 568 367 598 C390 622 402 649 413 708 L365 708 C356 680 346 668 329 660 C308 650 279 645 246 645 C212 645 182 650 163 660 C146 668 137 680 126 708 L78 708 Z " />
<glyph glyph-name="dotaccent" unicode="&#x2d9;" horiz-adv-x="483" d="M242 707 C202 707 164 671 164 631 C164 588 199 553 243 553 C285 553 318 587 318 629 C318 672 284 707 242 707 L242 707 Z " />
<glyph glyph-name="ring" unicode="&#x2da;" horiz-adv-x="489" d="M224 792 C150 792 87 731 87 658 C87 580 147 519 225 519 C299 519 360 581 360 655 C360 730 298 792 224 792 L224 792 Z M223 716 C256 716 284 688 284 655 C284 622 257 595 224 595 C189 595 163 621 163 656 C163 689 191 716 223 716 L223 716 Z " />
<glyph glyph-name="ogonek" unicode="&#x2db;" horiz-adv-x="475" d="M277 25 C182 -36 138 -91 138 -151 C138 -200 170 -230 221 -230 C271 -230 309 -200 337 -138 L320 -128 C300 -156 290 -163 269 -163 C243 -163 229 -144 229 -110 C229 -80 242 -44 263 -19 C273 -7 280 0 305 25 L277 25 Z " />
<glyph glyph-name="tilde" unicode="&#x2dc;" horiz-adv-x="492" d="M121 549 C130 582 144 597 168 597 C179 597 189 596 201 592 L262 576 C273 573 285 571 296 571 C326 571 353 583 372 605 C391 629 401 651 414 708 L372 708 C359 672 348 661 324 661 C317 661 308 662 300 664 L238 681 C224 684 210 686 197 686 C133 686 100 649 78 549 L121 549 Z " />
<glyph glyph-name="hungarumlaut" unicode="&#x2dd;" horiz-adv-x="486" d="M133 535 L179 535 L294 637 C314 654 325 674 325 690 C325 716 304 737 278 737 C249 737 235 724 208 674 L133 535 Z M260 535 L307 535 L455 632 C483 650 496 667 496 686 C496 713 475 735 448 735 C421 735 409 726 375 683 L260 535 Z " />
<glyph glyph-name="uni2011" unicode="&#x2011;" horiz-adv-x="266" d="M266 160 L266 309 L0 309 L0 160 L266 160 Z " />
<glyph glyph-name="figuredash" unicode="&#x2012;" horiz-adv-x="522" d="M25 180 L497 180 L497 289 L25 289 L25 180 Z " />
<glyph glyph-name="endash" unicode="&#x2013;" horiz-adv-x="522" d="M25 180 L497 180 L497 289 L25 289 L25 180 Z " />
<glyph glyph-name="emdash" unicode="&#x2014;" horiz-adv-x="720" d="M0 180 L720 180 L720 289 L0 289 L0 180 Z " />
<glyph glyph-name="afii00208" unicode="&#x2015;" horiz-adv-x="720" d="M0 180 L720 180 L720 289 L0 289 L0 180 Z " />
<glyph glyph-name="quoteleft" unicode="&#x2018;" horiz-adv-x="245" d="M208 687 C154 675 129 663 97 635 C59 601 37 554 37 503 C37 440 75 397 130 397 C176 397 212 434 212 482 C212 525 183 558 145 558 C138 558 130 557 120 556 C137 605 152 618 208 630 L208 687 Z " />
<glyph glyph-name="quoteright" unicode="&#x2019;" horiz-adv-x="245" d="M41 400 C94 412 120 423 152 452 C190 485 212 533 212 584 C212 647 174 690 119 690 C73 690 37 653 37 605 C37 562 66 529 104 529 C111 529 119 530 129 531 C113 482 97 469 41 457 L41 400 Z " />
<glyph glyph-name="quotesinglbase" unicode="&#x201a;" horiz-adv-x="245" d="M41 -144 C94 -133 120 -121 152 -93 C190 -59 212 -12 212 39 C212 102 174 145 119 145 C73 145 37 108 37 60 C37 17 66 -16 104 -16 C110 -16 119 -15 129 -14 C113 -62 97 -75 41 -88 L41 -144 Z " />
<glyph glyph-name="quotedblleft" unicode="&#x201c;" horiz-adv-x="467" d="M427 687 C373 675 348 663 316 635 C278 601 256 554 256 503 C256 440 294 397 349 397 C395 397 431 434 431 482 C431 525 402 558 364 558 C357 558 348 557 339 556 C355 605 371 618 427 630 L427 687 Z M208 687 C154 675 129 663 97 635 C59 601 37 554 37 503 C37 440 75 397 130 397 C176 397 212 434 212 482 C212 525 183 558 145 558 C138 558 130 557 120 556 C137 605 152 618 208 630 L208 687 Z " />
<glyph glyph-name="quotedblright" unicode="&#x201d;" horiz-adv-x="467" d="M260 400 C314 412 339 424 371 452 C409 486 431 533 431 584 C431 647 393 690 338 690 C292 690 256 653 256 605 C256 562 285 529 322 529 C330 529 338 530 348 531 C332 482 316 469 260 457 L260 400 Z M41 400 C94 412 120 423 152 452 C190 485 212 533 212 584 C212 647 174 690 119 690 C73 690 37 653 37 605 C37 562 66 529 104 529 C111 529 119 530 129 531 C113 482 97 469 41 457 L41 400 Z " />
<glyph glyph-name="quotedblbase" unicode="&#x201e;" horiz-adv-x="467" d="M41 -142 C95 -130 120 -118 152 -90 C190 -56 212 -9 212 42 C212 105 174 148 119 148 C73 148 37 111 37 63 C37 20 66 -13 104 -13 C111 -13 119 -12 129 -11 C113 -60 97 -73 41 -85 L41 -142 Z M260 -142 C314 -130 340 -118 371 -90 C409 -56 431 -9 431 42 C431 105 393 148 338 148 C292 148 256 111 256 63 C256 20 285 -13 323 -13 C330 -13 338 -12 348 -11 C332 -60 316 -73 260 -85 L260 -142 Z " />
<glyph glyph-name="dagger" unicode="&#x2020;" horiz-adv-x="580" d="M263 412 C247 415 244 416 210 431 C178 445 150 453 134 453 C93 453 66 426 66 384 C66 342 90 316 128 316 C152 316 176 322 215 340 C241 352 247 354 263 358 C264 345 264 335 264 328 C264 283 253 175 235 33 C228 -23 225 -60 225 -88 C225 -164 245 -198 289 -198 C311 -198 334 -186 344 -169 C354 -153 358 -128 358 -89 C358 -60 355 -25 348 33 C330 174 319 284 319 328 C319 334 319 344 320 358 C336 354 342 351 368 340 C407 322 431 316 455 316 C493 316 517 342 517 384 C517 426 490 453 449 453 C433 453 404 445 373 431 C339 416 336 415 320 412 C322 447 325 461 335 501 C356 577 358 586 358 615 C358 664 337 688 294 688 C247 688 226 665 226 614 C226 596 229 574 233 558 C259 461 260 458 263 412 L263 412 Z " />
<glyph glyph-name="daggerdbl" unicode="&#x2021;" horiz-adv-x="580" d="M203 376 L216 380 C230 385 240 387 264 389 C257 324 246 290 218 244 C247 196 257 163 264 98 C235 101 223 104 203 111 C143 134 140 135 117 135 C82 135 57 108 57 70 C57 33 83 7 120 7 C135 7 144 9 182 23 C211 34 223 36 261 42 C256 10 253 -3 245 -29 C223 -99 222 -102 222 -128 C222 -173 247 -199 290 -199 C334 -199 360 -174 360 -132 C360 -117 357 -99 352 -83 C342 -49 336 -29 333 -22 C327 0 325 9 320 43 C363 34 381 29 400 23 C449 6 449 6 462 6 C498 6 524 32 524 69 C524 110 501 134 462 134 C440 134 428 131 386 114 C355 102 347 100 316 100 C325 164 337 202 361 244 C337 285 325 323 316 387 C347 387 355 386 386 374 C428 357 441 354 462 354 C501 354 524 378 524 418 C524 454 498 481 464 481 C454 481 445 479 436 477 C378 457 378 457 320 444 C326 483 328 492 338 526 C359 593 360 598 360 619 C360 662 334 687 290 687 C247 687 222 661 222 616 C222 599 225 578 231 560 C234 552 236 543 239 534 C244 519 247 508 249 501 C254 483 256 473 261 445 C223 451 212 453 182 464 C145 478 135 481 120 481 C83 481 57 454 57 418 C57 379 82 352 117 352 C131 352 150 356 165 361 L203 376 Z " />
<glyph glyph-name="bullet" unicode="&#x2022;" horiz-adv-x="633" d="M318 480 C244 480 186 418 186 340 C186 263 244 200 317 200 C389 200 447 263 447 340 C447 417 389 480 318 480 L318 480 Z " />
<glyph glyph-name="ellipsis" unicode="&#x2026;" horiz-adv-x="906" d="M151 148 C107 148 71 111 71 66 C71 17 106 -20 151 -20 C195 -20 230 17 230 64 C230 110 195 148 151 148 L151 148 Z M453 148 C409 148 373 111 373 66 C373 17 408 -20 453 -20 C497 -20 532 17 532 64 C532 110 497 148 453 148 L453 148 Z M755 148 C711 148 675 111 675 66 C675 17 710 -20 755 -20 C799 -20 834 17 834 64 C834 110 799 148 755 148 L755 148 Z " />
<glyph glyph-name="perthousand" unicode="&#x2030;" horiz-adv-x="1314" d="M206 622 C100 622 28 545 28 433 C28 316 98 240 206 240 C313 240 384 317 384 431 C384 546 313 622 206 622 L206 622 Z M206 554 C247 554 264 517 264 430 C264 343 247 307 205 307 C165 307 148 345 148 433 C148 516 166 554 206 554 L206 554 Z M695 365 C590 365 517 288 517 177 C517 59 587 -17 695 -17 C802 -17 873 60 873 175 C873 289 802 365 695 365 L695 365 Z M695 297 C736 297 753 260 753 173 C753 87 736 50 695 50 C654 50 637 87 637 176 C637 259 655 297 695 297 L695 297 Z M1103 365 C998 365 925 288 925 177 C925 59 995 -17 1103 -17 C1210 -17 1281 60 1281 175 C1281 289 1210 365 1103 365 L1103 365 Z M1103 297 C1144 297 1161 260 1161 173 C1161 87 1144 50 1103 50 C1062 50 1045 87 1045 175 C1045 259 1063 297 1103 297 L1103 297 Z M232 -17 L315 -17 L670 623 L587 623 L232 -17 Z " />
<glyph glyph-name="guilsinglleft" unicode="&#x2039;" horiz-adv-x="274" d="M228 67 C175 199 172 209 172 237 C172 263 172 263 220 406 L140 406 C72 311 42 258 42 234 C42 212 48 203 140 67 L228 67 Z " />
<glyph glyph-name="guilsinglright" unicode="&#x203a;" horiz-adv-x="274" d="M129 67 C222 202 228 212 228 234 C228 258 198 310 129 406 L49 406 C98 263 98 263 98 237 C98 209 94 198 42 67 L129 67 Z " />
<glyph glyph-name="uni203E" unicode="&#x203e;" horiz-adv-x="499" d="M0 787 L0 688 L500 688 L500 787 L0 787 Z " />
<glyph glyph-name="fraction" unicode="&#x2044;" horiz-adv-x="156" d="M-156 -17 L-72 -17 L316 623 L237 623 L-156 -17 Z " />
<glyph glyph-name="Euro" unicode="&#x20ac;" horiz-adv-x="749" d="M107 355 C106 348 106 342 106 336 C106 326 106 320 107 311 L59 311 L28 234 L117 234 C125 195 137 166 154 136 C216 31 310 -19 446 -19 C562 -19 643 21 687 99 C711 142 721 183 724 258 L625 258 C619 195 611 167 587 135 C561 98 524 80 480 80 C402 80 351 133 331 234 L461 234 L492 311 L323 311 C322 320 322 326 322 335 C322 342 322 347 323 355 L511 355 L542 432 L331 432 C349 533 402 589 478 589 C524 589 563 570 591 534 C616 501 625 471 632 404 L725 404 L725 675 L638 675 L619 622 C546 673 508 686 432 686 C319 686 230 640 167 549 C142 513 126 475 116 432 L59 432 L28 355 L107 355 Z " />
<glyph glyph-name="uni2117" unicode="&#x2117;" horiz-adv-x="311" d="M151 473 C112 473 79 447 79 416 C79 383 111 357 152 357 C191 357 224 383 224 415 C224 447 191 473 151 473 L151 473 Z M19 272 L47 272 C85 271 87 269 86 231 L86 90 C86 62 80 57 45 57 L19 57 L19 0 L295 0 L295 57 L274 57 C242 57 238 61 237 90 L237 330 L19 330 L19 272 Z " />
<glyph glyph-name="trademark" unicode="&#x2122;" horiz-adv-x="992" d="M400 667 L12 667 L12 516 L66 516 C67 584 90 610 149 610 L149 383 C149 351 149 349 141 346 C131 343 108 342 80 341 L80 287 L332 287 L332 341 C295 342 275 344 272 349 C268 353 268 355 268 384 L268 610 C323 610 345 584 346 516 L400 516 L400 667 Z M599 343 L585 343 C555 343 553 345 553 371 L553 583 L641 287 L724 287 L814 584 L814 371 C814 345 812 343 783 343 L769 343 L769 287 L981 287 L981 343 L959 343 C930 343 928 345 928 371 L928 583 C928 609 930 611 959 611 L981 611 L981 667 L771 667 L702 445 L636 667 L424 667 L424 611 L446 611 C476 611 478 609 478 583 L478 371 C478 345 476 343 446 343 L424 343 L424 287 L599 287 L599 343 Z " />
<glyph glyph-name="uni2126" unicode="&#x2126;" horiz-adv-x="768" d="M326 0 L308 155 C230 199 180 288 180 382 C180 434 195 493 221 540 C257 605 317 642 385 642 C453 642 513 605 549 540 C575 493 590 434 590 382 C590 288 540 199 462 155 L444 0 L736 0 L736 153 L712 153 C704 108 684 90 643 90 L497 90 L500 128 C535 141 557 151 580 166 C657 215 702 296 702 382 C702 449 673 522 625 578 C564 648 480 686 385 686 C290 686 206 648 145 578 C97 522 68 449 68 382 C68 296 113 215 190 166 C213 151 235 141 270 128 L273 90 L127 90 C86 90 66 108 58 153 L34 153 L34 0 L326 0 Z " />
<glyph glyph-name="partialdiff" unicode="&#x2202;" horiz-adv-x="494" d="M107 674 C152 697 184 706 219 706 C321 706 379 611 379 447 C379 418 377 394 372 346 C308 396 272 412 221 412 C172 412 131 394 95 355 C51 309 26 246 26 184 C26 76 109 -10 213 -10 C282 -10 341 22 383 84 C429 152 462 286 462 403 C462 519 428 611 360 681 C312 730 259 753 195 753 C155 753 122 746 66 725 L107 674 Z M366 312 C350 201 340 158 314 107 C288 54 245 21 201 21 C146 21 113 73 113 159 C113 273 180 367 261 367 C299 367 324 354 366 312 L366 312 Z " />
<glyph glyph-name="Delta" unicode="&#x2206;" horiz-adv-x="612" d="M6 0 L608 0 L327 688 L6 0 Z M77 51 L290 509 L479 51 L77 51 Z " />
<glyph glyph-name="product" unicode="&#x220f;" horiz-adv-x="823" d="M25 -124 L315 -124 L315 -98 L312 -98 C242 -94 221 -67 224 18 L224 594 C224 656 228 677 242 690 C260 707 272 708 413 708 C556 708 568 707 586 690 C600 677 604 656 604 594 L604 18 C607 -67 586 -94 516 -98 L513 -98 L513 -124 L803 -124 L803 -98 L800 -98 C730 -94 709 -67 712 18 L712 609 C709 694 730 721 800 725 L803 725 L803 751 L25 751 L25 725 L28 725 C98 721 119 694 116 609 L116 18 C119 -67 98 -94 28 -98 L25 -98 L25 -124 Z " />
<glyph glyph-name="summation" unicode="&#x2211;" horiz-adv-x="713" d="M176 711 L444 711 C560 710 590 688 606 587 L632 587 L622 752 L23 752 L256 285 L14 -123 L641 -123 L695 87 L669 87 C639 7 605 -12 491 -11 L163 -11 L364 341 L176 711 Z " />
<glyph glyph-name="minus" unicode="&#x2212;" horiz-adv-x="599" d="M78 376 L78 258 L521 258 L521 376 L78 376 Z " />
<glyph glyph-name="uni2215" unicode="&#x2215;" horiz-adv-x="156" d="M-156 -17 L-72 -17 L316 623 L237 623 L-156 -17 Z " />
<glyph glyph-name="uni2219" unicode="&#x2219;" horiz-adv-x="302" d="M151 318 C107 318 71 281 71 236 C71 188 106 151 151 151 C195 151 230 188 230 235 C230 281 195 318 151 318 L151 318 Z " />
<glyph glyph-name="radical" unicode="&#x221a;" horiz-adv-x="549" d="M363 -35 L515 908 L480 913 L353 123 L156 520 L10 449 L26 414 L121 461 L363 -35 Z " />
<glyph glyph-name="infinity" unicode="&#x221e;" horiz-adv-x="713" d="M357 227 C415 156 485 115 548 115 C631 115 688 176 688 266 C688 354 629 414 543 414 C476 414 412 376 357 303 C300 375 234 414 171 414 C86 414 26 351 26 263 C26 176 84 115 167 115 C224 115 281 142 327 192 L357 227 Z M391 264 C434 325 493 362 546 362 C600 362 638 321 638 264 C638 205 603 167 549 167 C495 167 461 188 391 264 L391 264 Z M324 266 C275 203 216 167 163 167 C111 167 76 207 76 266 C76 323 113 362 167 362 C218 362 258 337 324 266 L324 266 Z " />
<glyph glyph-name="integral" unicode="&#x222b;" horiz-adv-x="274" d="M180 576 C180 653 179 691 176 746 C174 774 173 800 173 815 C173 855 184 878 202 878 C208 878 213 876 215 872 C232 845 239 839 256 839 C276 839 291 853 291 871 C291 898 267 916 231 916 C186 916 152 887 138 838 C123 784 113 682 113 577 L113 232 C113 160 114 124 117 63 C119 34 120 4 120 -12 C120 -47 108 -70 89 -70 C81 -70 74 -65 68 -52 C59 -35 51 -30 37 -30 C17 -30 2 -44 2 -63 C2 -89 26 -107 62 -107 C107 -107 141 -78 155 -29 C170 25 180 126 180 232 L180 576 Z " />
<glyph glyph-name="approxequal" unicode="&#x2248;" horiz-adv-x="549" d="M489 251 C444 199 423 187 384 187 C365 187 354 190 285 211 C212 234 188 239 160 239 C101 239 54 211 14 155 L57 121 C103 174 120 184 159 184 C180 184 180 184 271 157 C350 133 354 132 385 132 C449 132 496 160 527 217 L489 251 Z M489 408 C444 356 423 344 384 344 C365 344 354 347 285 368 C212 391 188 396 160 396 C101 396 54 369 14 312 L57 278 C103 331 120 341 159 341 C180 341 180 341 271 314 C350 290 354 289 385 289 C449 289 496 318 527 375 L489 408 Z " />
<glyph glyph-name="notequal" unicode="&#x2260;" horiz-adv-x="549" d="M187 142 L115 -1 L161 -25 L246 142 L540 142 L540 197 L273 197 L344 336 L540 336 L540 391 L371 391 L439 525 L392 549 L312 391 L15 391 L15 336 L285 336 L215 197 L15 197 L15 142 L187 142 Z " />
<glyph glyph-name="lessequal" unicode="&#x2264;" horiz-adv-x="549" d="M526 55 L29 55 L29 0 L526 0 L526 55 Z M526 639 L29 405 L29 350 L526 117 L526 179 L108 378 L526 577 L526 639 Z " />
<glyph glyph-name="greaterequal" unicode="&#x2265;" horiz-adv-x="549" d="M526 55 L29 55 L29 0 L526 0 L526 55 Z M29 639 L29 577 L447 378 L29 179 L29 117 L526 350 L526 405 L29 639 Z " />
<glyph glyph-name="lozenge" unicode="&#x25ca;" horiz-adv-x="494" d="M209 0 L269 -1 L466 374 L277 740 L214 740 L18 377 L209 0 Z M240 58 L81 376 L245 683 L402 373 L240 58 Z " />
<glyph glyph-name="fi" unicode="&#xfb01;" horiz-adv-x="632" d="M19 0 L299 0 L299 78 C246 79 240 86 241 145 L241 386 L349 386 C386 388 394 376 393 323 L393 140 C394 86 388 80 336 78 L336 0 L613 0 L613 78 L605 78 C557 78 551 86 551 142 L551 469 L242 469 C243 538 245 556 257 577 C271 602 301 615 340 615 C363 615 374 612 393 603 C379 588 375 579 375 563 C375 520 404 495 453 495 C503 495 538 527 538 572 C538 642 457 684 324 684 C218 684 147 658 114 606 C91 572 87 548 87 469 L19 469 L19 386 L87 386 L87 134 C87 88 80 83 19 78 L19 0 Z " />
<glyph glyph-name="fl" unicode="&#xfb02;" horiz-adv-x="632" d="M19 0 L299 0 L299 78 C247 79 240 86 241 140 L241 386 L320 386 L320 469 L241 469 C241 538 244 555 256 576 C270 601 300 614 339 614 C359 614 371 611 390 603 C376 588 372 577 372 559 C372 540 377 526 392 510 L392 140 C392 85 390 83 337 78 L337 0 L613 0 L613 78 C555 79 550 84 551 142 L551 668 L455 667 C387 682 354 686 310 686 C216 686 153 662 118 612 C92 576 87 551 87 469 L19 469 L19 386 L87 386 L87 134 C87 88 80 83 19 78 L19 0 Z " />
</font>
</svg>
