<?xml version="1.0" encoding="UTF-8"?>
<svg xmlns="http://www.w3.org/2000/svg" xmlns:xlink="http://www.w3.org/1999/xlink" version="1.2" >
<font id="Baskerville URW">
<font-face  font-family="Baskerville URW" units-per-em="1000" ascent="677" descent="-323" font-style="normal" font-weight="400" font-stretch="normal" cap-height="667" x-height="403" underline-position="-88" underline-thickness="42" />
<missing-glyph  horiz-adv-x="250" d="" />
<glyph glyph-name="NULL" d="" />
<glyph glyph-name="CR" unicode="&#xd;" horiz-adv-x="250" d="" />
<glyph glyph-name="space" unicode="&#x20;" horiz-adv-x="250" d="" />
<glyph glyph-name="exclam" unicode="&#x21;" horiz-adv-x="220" d="M110 190 L139 539 C143 577 143 584 143 599 C143 635 125 661 99 661 C74 661 56 635 56 600 C56 585 57 572 60 539 L89 190 L110 190 Z M99 90 C70 90 46 66 46 38 C46 8 70 -16 99 -16 C128 -16 152 8 152 37 C152 66 128 90 99 90 L99 90 Z " />
<glyph glyph-name="quotedbl" unicode="&#x22;" horiz-adv-x="330" d="M108 399 L129 667 L53 667 L74 399 L108 399 Z M257 399 L277 667 L202 667 L222 399 L257 399 Z " />
<glyph glyph-name="numbersign" unicode="&#x23;" horiz-adv-x="592" d="M394 229 L508 229 L514 264 L402 264 L429 416 L543 416 L549 451 L437 451 L479 667 L441 667 L399 451 L245 451 L287 667 L249 667 L208 451 L88 451 L83 416 L200 416 L173 264 L53 264 L47 229 L165 229 L120 0 L158 0 L202 229 L356 229 L312 0 L350 0 L394 229 Z M365 264 L210 264 L237 416 L391 416 L365 264 Z " />
<glyph glyph-name="dollar" unicode="&#x24;" horiz-adv-x="503" d="M235 -103 L258 -103 L258 -15 C378 -3 452 69 452 174 C452 223 436 264 405 294 C375 323 350 337 279 366 C274 368 267 370 258 374 L258 638 C323 632 366 599 372 549 C378 517 378 517 384 508 C389 500 400 494 409 494 C425 494 437 509 437 528 C437 563 404 606 359 630 C329 646 297 655 258 657 L258 685 L235 685 L235 657 C128 651 58 587 58 495 C58 438 86 388 134 357 C156 343 172 335 235 308 L235 6 C170 8 128 36 115 88 C110 111 110 111 106 117 C100 126 90 132 81 132 C65 132 52 117 52 98 C52 70 83 33 126 10 C157 -7 192 -15 235 -16 L235 -103 Z M258 298 L266 294 C334 264 340 261 354 251 C385 228 402 193 402 152 C402 98 378 58 328 29 C302 14 283 8 258 6 L258 298 Z M235 384 C186 405 181 407 164 417 C123 440 102 473 102 514 C102 586 151 632 235 637 L235 384 Z " />
<glyph glyph-name="percent" unicode="&#x25;" horiz-adv-x="664" d="M160 680 C125 680 95 667 74 643 C45 611 27 558 27 505 C27 400 77 336 158 336 C241 336 293 403 293 508 C293 614 242 680 160 680 L160 680 Z M160 660 C207 660 225 619 225 511 C225 401 205 350 161 350 C134 350 112 368 104 398 C98 421 95 457 95 515 C95 617 114 660 160 660 L160 660 Z M176 0 L519 644 L488 644 L146 0 L176 0 Z M505 331 C470 331 440 319 419 295 C390 263 372 211 372 158 C372 55 422 -10 503 -10 C586 -10 638 57 638 162 C638 267 587 331 505 331 L505 331 Z M505 314 C552 314 570 273 570 166 C570 57 550 8 505 8 C479 8 457 26 449 55 C443 78 440 113 440 169 C440 271 459 314 505 314 L505 314 Z " />
<glyph glyph-name="ampersand" unicode="&#x26;" horiz-adv-x="703" d="M429 403 L429 380 C480 375 506 352 506 315 C506 279 481 217 446 168 C372 272 360 288 280 397 C381 449 422 492 422 545 C422 605 360 653 283 653 C207 653 145 594 145 520 C145 479 165 428 203 376 C74 290 40 247 40 167 C40 65 123 -16 227 -16 C292 -16 352 15 410 80 C461 15 516 -16 578 -16 C639 -16 686 19 701 74 L678 74 C662 46 637 30 607 30 C556 30 525 54 460 146 C473 162 490 194 503 225 C541 322 576 362 640 380 L640 403 L429 403 Z M217 356 C273 282 314 223 396 100 C358 57 313 33 269 33 C190 33 110 118 110 201 C110 257 148 312 217 356 L217 356 Z M267 416 C221 481 207 512 207 547 C207 595 240 629 285 629 C333 629 365 593 365 540 C365 494 336 457 267 416 L267 416 Z " />
<glyph glyph-name="quotesingle" unicode="&#x27;" horiz-adv-x="190" d="M113 399 L134 667 L56 667 L77 399 L113 399 Z " />
<glyph glyph-name="parenleft" unicode="&#x28;" horiz-adv-x="241" d="M246 -240 C143 -134 79 44 79 224 C79 331 101 433 142 522 C171 585 207 639 241 673 L207 673 C181 644 154 603 127 552 C75 451 48 341 48 225 C48 54 106 -111 212 -240 L246 -240 Z " />
<glyph glyph-name="parenright" unicode="&#x29;" horiz-adv-x="241" d="M28 -240 C134 -111 192 54 192 225 C192 333 168 440 122 533 C94 590 62 640 33 673 L-1 673 C30 642 61 597 88 542 C137 446 161 339 161 224 C161 44 96 -137 -6 -240 L28 -240 Z " />
<glyph glyph-name="asterisk" unicode="&#x2a;" horiz-adv-x="420" d="M163 513 L144 532 C106 577 93 586 69 586 C48 586 30 569 30 549 C30 535 38 522 51 512 C65 501 73 498 107 492 C143 485 163 479 197 462 C183 452 149 442 108 436 C53 427 28 408 28 377 C28 355 45 340 69 340 C92 340 106 349 129 378 C161 417 177 433 203 450 C200 414 194 389 183 358 C171 322 170 320 170 306 C170 278 188 256 211 256 C234 256 252 278 252 307 C252 317 250 326 245 339 C226 386 223 401 218 450 C235 438 259 415 283 387 C313 354 336 340 358 340 C379 340 396 355 396 375 C396 406 368 427 314 437 C267 445 249 450 226 462 C252 475 285 486 320 492 C377 503 396 518 396 550 C396 572 380 587 358 587 C335 587 317 575 283 536 C257 505 244 493 218 474 C221 516 227 541 240 577 C251 610 251 610 251 621 C251 649 233 671 208 671 C185 671 169 650 169 620 C169 608 171 599 178 577 C193 531 197 516 203 474 C201 477 199 478 198 479 C196 481 190 486 182 495 L163 513 Z " />
<glyph glyph-name="plus" unicode="&#x2b;" horiz-adv-x="500" d="M23 362 L23 320 L228 320 L228 127 L272 127 L272 320 L477 320 L477 362 L272 362 L272 554 L228 554 L228 362 L23 362 Z " />
<glyph glyph-name="comma" unicode="&#x2c;" horiz-adv-x="252" d="M55 -192 C140 -170 196 -101 196 -19 C196 43 162 90 118 90 C88 90 67 68 67 38 C67 10 88 -10 118 -10 C124 -10 124 -10 136 -6 C139 -5 142 -4 144 -4 C157 -3 165 -17 165 -37 C165 -94 120 -147 55 -167 L55 -192 Z " />
<glyph glyph-name="hyphen" unicode="&#x2d;" horiz-adv-x="315" d="M35 233 L35 186 L276 186 L276 233 L35 233 Z " />
<glyph glyph-name="period" unicode="&#x2e;" horiz-adv-x="252" d="M125 90 C96 90 72 66 72 38 C72 8 96 -16 125 -16 C154 -16 178 8 178 37 C178 66 154 90 125 90 L125 90 Z " />
<glyph glyph-name="slash" unicode="&#x2f;" horiz-adv-x="262" d="M21 -225 L213 656 L182 656 L-11 -225 L21 -225 Z " />
<glyph glyph-name="zero" unicode="0" horiz-adv-x="503" d="M254 661 C127 661 43 527 43 327 C43 117 125 -16 254 -16 C382 -16 465 117 465 323 C465 528 382 661 254 661 L254 661 Z M254 637 C309 637 350 601 365 541 C378 489 383 426 383 323 C383 219 378 154 365 104 C350 44 309 8 254 8 C199 8 158 44 143 104 C130 155 125 219 125 326 C125 425 131 492 143 541 C158 602 199 637 254 637 L254 637 Z " />
<glyph glyph-name="one" unicode="1" horiz-adv-x="503" d="M269 661 C248 641 194 626 144 627 L144 604 L165 604 C224 602 227 597 225 489 L225 138 L225 107 C225 90 225 79 224 75 C224 56 223 50 218 42 C209 27 195 22 165 23 L149 23 L149 0 L370 0 L370 23 L351 23 C292 24 289 30 291 138 L291 661 L269 661 Z " />
<glyph glyph-name="two" unicode="2" horiz-adv-x="503" d="M57 0 L346 0 C384 0 388 -2 388 -19 C388 -24 387 -33 384 -43 L383 -51 L406 -51 L434 59 L122 59 C154 86 221 150 279 209 C409 341 442 395 442 478 C442 586 363 661 250 661 C146 661 63 589 63 498 C63 448 93 391 120 391 C134 391 164 418 164 431 C164 436 163 436 149 446 C123 464 109 491 109 521 C109 585 160 635 226 635 C310 635 360 575 360 473 C360 396 328 324 253 232 C188 152 114 76 57 30 L57 0 Z " />
<glyph glyph-name="three" unicode="3" horiz-adv-x="503" d="M259 358 C267 364 267 364 280 373 C340 413 340 413 349 421 C400 462 423 499 423 540 C423 611 355 661 261 661 C161 661 85 599 85 518 C85 481 106 444 127 444 C140 444 167 458 167 465 C167 467 166 469 163 472 C139 496 133 509 133 537 C133 593 183 638 245 638 C304 638 341 597 341 532 C341 491 328 454 303 427 C284 406 263 389 214 355 C169 324 163 319 163 309 C163 300 170 293 178 293 C183 293 187 295 192 300 C224 332 240 341 267 341 C325 341 363 282 363 192 C363 73 313 6 224 6 C179 6 150 27 137 69 C127 103 119 111 99 111 C81 111 67 96 67 77 C67 29 144 -16 227 -16 C355 -16 445 69 445 189 C445 292 383 362 290 362 C278 362 272 361 259 358 L259 358 Z " />
<glyph glyph-name="four" unicode="4" horiz-adv-x="503" d="M275 221 L275 138 C276 29 274 24 215 23 L198 23 L198 0 L413 0 L413 23 L405 23 C346 24 343 30 345 138 L345 221 L472 221 L483 298 L461 298 L457 287 C444 251 443 250 390 251 L345 251 L345 661 L314 661 L33 251 L33 221 L275 221 Z M275 251 L61 251 L275 564 L275 251 Z " />
<glyph glyph-name="five" unicode="5" horiz-adv-x="503" d="M133 338 C157 384 196 410 239 410 C265 410 289 400 309 382 C343 351 358 301 358 221 C358 147 345 95 319 61 C290 24 254 5 209 5 C161 5 137 22 121 66 C106 108 99 116 77 116 C59 116 45 102 45 85 C45 66 59 43 83 24 C116 -3 156 -16 207 -16 C348 -16 440 79 440 223 C440 345 360 439 254 439 C205 439 170 420 133 375 L141 579 L313 579 C345 577 350 582 377 644 L122 644 L107 338 L133 338 Z " />
<glyph glyph-name="six" unicode="6" horiz-adv-x="503" d="M133 334 C133 334 135 379 135 386 C137 462 141 488 156 532 C178 598 227 636 288 636 C329 636 351 623 368 590 C382 564 391 557 410 557 C427 557 438 568 438 585 C438 625 373 661 302 661 C154 661 49 509 49 293 C49 105 133 -16 264 -16 C377 -16 464 76 464 196 C464 313 377 407 270 407 C219 407 174 383 133 334 L133 334 Z M258 381 C290 381 322 367 344 344 C371 315 382 276 382 208 C382 136 372 86 351 56 C330 25 297 7 259 7 C180 7 131 85 131 213 C131 317 179 381 258 381 L258 381 Z " />
<glyph glyph-name="seven" unicode="7" horiz-adv-x="503" d="M76 525 L98 525 C114 573 122 580 162 579 L183 579 L393 579 L195 119 C195 118 190 107 180 86 C174 73 170 63 168 59 C158 37 155 25 155 14 C155 -3 167 -16 184 -16 C213 -16 227 7 260 106 L436 644 L181 644 C140 645 137 645 135 660 L117 660 L76 525 Z " />
<glyph glyph-name="eight" unicode="8" horiz-adv-x="503" d="M294 336 C386 357 438 415 438 498 C438 591 357 661 250 661 C143 661 65 592 65 498 C65 420 119 357 203 336 C104 316 44 251 44 162 C44 60 132 -16 249 -16 C373 -16 458 57 458 164 C458 255 391 325 294 336 L294 336 Z M248 640 C280 640 309 627 328 606 C350 580 359 549 359 494 C359 397 321 347 246 347 C177 347 142 399 142 501 C142 591 180 640 248 640 L248 640 Z M246 323 C281 323 316 311 337 292 C363 268 376 226 376 162 C376 111 368 74 351 50 C332 23 292 6 248 6 C210 6 176 21 155 46 C134 72 126 104 126 159 C126 268 166 323 246 323 L246 323 Z " />
<glyph glyph-name="nine" unicode="9" horiz-adv-x="503" d="M374 311 C374 221 366 159 351 113 C329 48 280 9 219 9 C179 9 155 22 139 55 C125 80 116 88 97 88 C80 88 69 77 69 60 C69 20 134 -16 205 -16 C353 -16 458 136 458 352 C458 540 374 661 243 661 C130 661 43 569 43 449 C43 333 130 238 237 238 C288 238 333 262 374 311 L374 311 Z M248 638 C327 638 376 560 376 432 C376 328 327 264 249 264 C216 264 185 277 163 302 C136 330 125 368 125 437 C125 510 135 559 156 589 C177 620 210 638 248 638 L248 638 Z " />
<glyph glyph-name="colon" unicode="&#x3a;" horiz-adv-x="252" d="M127 90 C98 90 74 66 74 38 C74 8 98 -16 127 -16 C156 -16 180 8 180 37 C180 66 156 90 127 90 L127 90 Z M127 431 C98 431 74 407 74 379 C74 349 97 325 127 325 C156 325 180 349 180 378 C180 407 156 431 127 431 L127 431 Z " />
<glyph glyph-name="semicolon" unicode="&#x3b;" horiz-adv-x="252" d="M55 -192 C140 -170 196 -101 196 -19 C196 43 162 90 118 90 C88 90 67 68 67 38 C67 10 88 -10 118 -10 C124 -10 124 -10 136 -6 C139 -5 142 -4 144 -4 C157 -3 165 -17 165 -37 C165 -94 120 -147 55 -167 L55 -192 Z M126 431 C97 431 73 407 73 379 C73 349 96 325 126 325 C155 325 179 349 179 378 C179 407 155 431 126 431 L126 431 Z " />
<glyph glyph-name="less" unicode="&#x3c;" horiz-adv-x="500" d="M457 612 L43 346 L43 340 L457 63 L457 162 L144 371 L457 575 L457 612 Z " />
<glyph glyph-name="equal" unicode="&#x3d;" horiz-adv-x="500" d="M23 432 L23 391 L477 391 L477 432 L23 432 Z M23 291 L23 250 L477 250 L477 291 L23 291 Z " />
<glyph glyph-name="greater" unicode="&#x3e;" horiz-adv-x="500" d="M43 63 L457 330 L457 336 L43 612 L43 514 L356 305 L43 101 L43 63 Z " />
<glyph glyph-name="question" unicode="&#x3f;" horiz-adv-x="399" d="M133 90 C104 90 80 66 80 38 C80 8 103 -16 133 -16 C162 -16 186 8 186 37 C186 66 162 90 133 90 L133 90 Z M143 187 L143 354 C163 336 187 327 215 327 C292 327 348 392 348 479 C348 520 335 561 311 596 C282 638 235 661 177 661 C108 661 47 628 47 591 C47 576 57 566 71 566 C84 566 94 573 102 591 C118 625 138 639 172 639 C234 639 272 588 272 504 C272 409 245 356 196 356 C174 356 158 367 143 393 L121 393 L121 187 L143 187 Z " />
<glyph glyph-name="at" unicode="&#x40;" horiz-adv-x="774" d="M596 106 C560 80 547 71 527 59 C482 32 427 17 376 17 C311 17 245 41 196 82 C133 134 91 222 91 300 C91 378 133 488 184 545 C245 613 338 653 437 653 C588 653 691 556 691 413 C691 343 667 275 623 223 C594 188 563 169 536 169 C513 169 500 186 500 217 C500 229 505 264 511 286 L567 520 C548 515 538 514 517 513 L510 469 C486 507 459 524 421 524 C329 524 229 388 229 262 C229 186 265 136 319 136 C367 136 413 170 457 238 L457 225 C457 173 483 138 522 138 C625 138 724 275 724 419 C724 578 608 684 433 684 C352 684 277 663 215 622 C114 555 48 433 48 313 C48 130 189 -15 367 -15 C457 -15 524 13 622 95 L596 106 Z M479 368 C464 311 452 278 434 247 C403 192 370 165 334 165 C301 165 278 196 278 241 C278 294 297 358 329 414 C361 471 395 498 434 498 C469 498 493 469 493 427 C493 425 492 421 491 418 L479 368 Z " />
<glyph glyph-name="A" unicode="A" horiz-adv-x="661" d="M421 245 L472 122 C495 70 495 70 495 58 C495 31 477 23 421 23 L413 23 L413 0 L675 0 L675 23 L669 23 C614 33 608 40 564 146 L341 677 L322 677 L129 213 L105 156 C67 57 49 36 -4 24 L-13 23 L-13 0 L185 0 L185 23 L177 23 C139 23 112 48 112 84 C112 107 117 124 151 203 L168 245 L421 245 Z M413 268 L177 268 L295 552 L413 268 Z " />
<glyph glyph-name="B" unicode="B" horiz-adv-x="627" d="M37 667 L37 644 L50 644 C135 646 142 636 140 498 L140 173 C142 36 134 23 55 23 L30 23 L30 0 L291 0 C401 0 450 8 493 31 C548 61 581 118 581 182 C581 285 502 348 356 359 C481 377 545 431 545 515 C545 575 512 621 451 647 C409 665 349 674 272 674 C246 674 246 674 147 670 L37 667 Z M236 344 C258 345 259 345 273 345 C420 345 475 300 475 182 C475 78 421 23 317 23 C271 23 250 34 243 61 C238 79 236 111 236 196 L236 344 Z M236 368 L236 648 C251 650 260 650 275 650 C325 650 357 645 378 636 C422 615 441 576 441 509 C441 405 392 368 257 368 L236 368 Z " />
<glyph glyph-name="C" unicode="C" horiz-adv-x="725" d="M632 250 C622 167 579 87 528 55 C487 30 440 16 395 16 C252 16 160 137 160 325 C160 531 246 654 390 654 C467 654 541 618 580 560 C605 524 622 475 632 414 L653 414 L647 667 L626 667 C623 639 613 605 600 581 C550 641 463 679 374 679 C181 679 47 533 47 321 C47 124 180 -12 375 -12 C466 -12 541 21 600 87 C614 70 628 40 632 17 L653 17 L653 250 L632 250 Z " />
<glyph glyph-name="D" unicode="D" horiz-adv-x="770" d="M33 639 L52 639 C137 641 144 631 142 495 L142 173 C144 36 136 23 57 23 L30 23 L30 0 L325 0 C450 0 482 4 544 29 C660 76 723 182 723 328 C723 461 669 564 569 623 C509 658 432 674 322 674 C286 674 246 673 170 669 C106 665 75 664 33 662 L33 639 Z M238 648 C268 649 291 650 320 650 C409 650 459 637 507 600 C577 548 616 447 616 320 C616 211 586 127 530 77 C485 37 435 23 343 23 C282 23 262 28 251 48 C239 68 238 80 238 202 L238 648 Z " />
<glyph glyph-name="E" unicode="E" horiz-adv-x="626" d="M573 207 C538 73 480 19 373 23 L323 23 C231 22 226 30 226 183 L226 340 L299 340 C380 342 395 327 397 244 L397 235 L420 235 L420 464 L397 464 L397 456 C398 379 381 364 297 364 L226 364 L226 644 L318 644 C450 648 485 622 513 500 L536 500 L520 667 L44 667 L44 644 L52 644 C125 644 132 631 130 500 L130 173 C132 36 124 24 44 23 L30 23 L30 0 L582 0 L596 207 L573 207 Z " />
<glyph glyph-name="F" unicode="F" horiz-adv-x="560" d="M547 667 L33 667 L33 644 L45 644 C130 646 136 636 135 501 L135 174 C136 36 129 23 50 23 L29 23 L29 0 L339 0 L339 23 L316 23 C236 23 229 36 231 174 L231 340 L293 340 C369 343 392 320 393 239 L393 229 L418 229 L418 464 L393 464 L393 458 C393 382 371 360 293 362 L231 362 L231 644 L361 644 C467 651 511 613 530 501 L553 501 L547 667 Z " />
<glyph glyph-name="G" unicode="G" horiz-adv-x="770" d="M460 285 L460 261 L476 261 C543 264 558 249 559 178 L559 152 C559 104 544 71 510 47 C478 24 437 12 394 12 C333 12 270 39 232 80 C183 133 159 218 159 337 C159 446 178 523 217 572 C259 625 324 656 394 656 C516 656 606 569 626 432 L649 432 L649 655 L626 655 C623 629 614 600 605 581 C546 648 474 680 384 680 C290 680 209 647 149 586 C87 521 47 418 47 321 C47 129 188 -12 380 -12 C435 -12 471 -5 535 20 C576 35 609 43 634 43 C641 43 646 43 655 41 L655 112 C653 248 661 261 740 261 L747 261 L747 285 L460 285 Z " />
<glyph glyph-name="H" unicode="H" horiz-adv-x="802" d="M577 334 L577 173 C578 36 571 23 492 23 L469 23 L469 0 L773 0 L773 23 L758 23 C679 23 672 36 673 173 L673 500 C671 636 678 646 763 644 L773 644 L773 667 L469 667 L469 644 L487 644 C572 646 579 636 577 500 L577 368 L228 368 L228 500 C227 636 233 646 318 644 L330 644 L330 667 L30 667 L30 644 L42 644 C127 646 134 636 132 500 L132 173 C134 36 126 23 47 23 L30 23 L30 0 L330 0 L330 23 L313 23 C234 23 227 36 228 173 L228 334 L577 334 Z " />
<glyph glyph-name="I" unicode="I" horiz-adv-x="365" d="M30 644 L44 644 C129 646 136 636 134 501 L134 173 C136 36 128 23 49 23 L30 23 L30 0 L334 0 L334 23 L315 23 C236 23 229 36 230 173 L230 501 C228 636 235 646 320 644 L334 644 L334 667 L30 667 L30 644 Z " />
<glyph glyph-name="J" unicode="J" horiz-adv-x="369" d="M35 667 L35 644 L51 644 C136 646 143 636 141 501 L141 65 C141 -55 139 -79 128 -113 C107 -177 56 -215 -8 -215 C-47 -215 -73 -202 -73 -181 C-73 -176 -72 -174 -67 -164 C-63 -155 -61 -146 -61 -138 C-61 -110 -83 -89 -112 -89 C-140 -89 -162 -113 -162 -143 C-162 -199 -98 -238 -6 -238 C105 -238 187 -190 220 -105 C236 -65 239 -40 239 65 L239 501 C237 636 244 646 329 644 L345 644 L345 667 L35 667 Z " />
<glyph glyph-name="K" unicode="K" horiz-adv-x="747" d="M231 327 L231 501 C229 636 235 646 321 644 L333 644 L333 667 L38 667 L38 644 L45 644 C130 646 136 636 135 501 L135 173 C136 36 129 23 50 23 L29 23 L29 0 L328 0 L328 23 L315 23 C236 23 229 36 231 173 L231 295 L278 337 L467 147 C519 94 538 71 538 55 C538 31 516 23 454 23 L441 23 L441 0 L787 0 L787 23 L780 23 C713 30 710 32 597 146 L348 399 L469 511 C576 614 615 639 679 644 L685 644 L685 667 L434 667 L434 644 L439 644 C482 643 505 629 505 602 C505 581 488 559 434 511 L231 327 Z " />
<glyph glyph-name="L" unicode="L" horiz-adv-x="614" d="M601 197 L578 197 C539 57 495 18 381 23 L331 23 C234 24 228 32 231 152 L231 501 C229 636 235 646 320 644 L350 644 L350 667 L30 667 L30 644 L45 644 C130 646 136 636 135 501 L135 174 C136 36 129 24 50 23 L30 23 L30 0 L596 0 L601 197 Z " />
<glyph glyph-name="M" unicode="M" horiz-adv-x="945" d="M467 115 L223 667 L20 667 L20 644 L38 644 C123 646 130 636 128 501 L128 211 C132 72 112 35 26 23 L20 23 L20 0 L258 0 L258 23 L253 23 C212 26 182 43 166 73 C152 100 151 115 151 208 L151 598 L417 0 L440 0 L704 598 L704 173 C705 36 698 23 619 23 L596 23 L596 0 L915 0 L915 23 L885 23 C805 23 798 36 800 173 L800 501 C798 636 805 646 890 644 L915 644 L915 667 L710 667 L467 115 Z " />
<glyph glyph-name="N" unicode="N" horiz-adv-x="765" d="M623 -15 L644 -15 L644 537 C640 608 663 635 740 644 L748 644 L748 667 L506 667 L506 644 L519 644 C599 638 623 615 620 544 L620 145 L225 667 L28 667 L28 644 L34 644 C119 646 126 636 127 501 L127 147 C127 87 126 77 119 64 C109 43 72 27 31 23 L20 23 L20 0 L269 0 L269 23 L261 23 C183 26 150 52 152 108 L151 147 L151 610 L623 -15 Z " />
<glyph glyph-name="O" unicode="O" horiz-adv-x="819" d="M406 679 C197 679 47 538 47 342 C47 129 192 -12 410 -12 C627 -12 773 128 773 335 C773 437 734 530 667 589 C602 645 505 679 406 679 L406 679 Z M409 654 C475 654 534 632 577 591 C630 541 660 449 660 333 C660 127 572 13 413 13 C337 13 277 36 233 81 C187 129 160 222 160 337 C160 434 185 527 225 575 C266 625 333 654 409 654 L409 654 Z " />
<glyph glyph-name="P" unicode="P" horiz-adv-x="576" d="M228 314 L301 314 C392 314 439 322 475 343 C526 372 556 428 556 493 C556 559 531 604 476 637 C431 664 376 674 269 674 C223 674 216 674 113 670 L30 667 L30 644 L42 644 C127 646 134 636 132 501 L132 173 C133 36 126 23 47 23 L30 23 L30 0 L335 0 L335 23 L313 23 C234 23 226 36 228 173 L228 314 Z M228 338 L228 648 C244 649 254 650 275 650 C340 650 373 642 401 620 C433 595 452 547 452 490 C452 434 433 391 397 365 C368 344 341 338 276 338 L228 338 Z " />
<glyph glyph-name="Q" unicode="Q" horiz-adv-x="817" d="M370 -62 C362 -66 356 -69 334 -81 C321 -87 310 -93 291 -103 C247 -125 244 -128 244 -142 C244 -152 251 -158 261 -158 C271 -158 278 -154 302 -133 C337 -104 358 -96 395 -96 C451 -96 505 -117 591 -171 C683 -230 723 -245 789 -245 C889 -245 956 -189 970 -93 L949 -93 C938 -138 904 -159 844 -159 C805 -159 748 -148 700 -131 C563 -85 507 -73 422 -73 C412 -73 406 -73 393 -74 L540 7 C575 19 587 23 608 35 C712 92 773 203 773 334 C773 437 734 530 667 589 C603 645 505 679 406 679 C195 679 47 538 47 337 C47 129 194 -12 410 -12 C430 -12 442 -11 460 -10 L370 -62 Z M409 654 C475 654 534 632 577 591 C630 541 660 449 660 333 C660 127 572 13 413 13 C337 13 277 36 233 81 C187 129 160 222 160 337 C160 434 185 527 225 575 C266 625 333 654 409 654 L409 654 Z " />
<glyph glyph-name="R" unicode="R" horiz-adv-x="696" d="M736 0 L736 23 L731 23 C662 23 611 60 532 167 C461 264 416 315 380 335 C499 349 570 413 570 504 C570 559 544 603 491 635 C445 664 379 677 282 677 C256 677 185 675 130 672 L34 667 L34 644 L46 644 C131 646 138 636 136 501 L136 173 C138 36 130 23 51 23 L30 23 L30 0 L349 0 L349 23 L317 23 C238 23 230 36 232 173 L232 322 L259 322 C296 325 316 306 411 175 C469 90 526 21 557 0 L736 0 Z M232 344 L232 650 C251 651 262 652 275 652 C330 652 369 646 396 632 C439 612 462 564 462 497 C462 393 410 347 289 345 L243 345 L232 344 Z " />
<glyph glyph-name="S" unicode="S" horiz-adv-x="545" d="M58 7 L82 7 C88 34 96 56 107 72 C155 16 217 -12 290 -12 C415 -12 499 66 499 181 C499 236 479 284 442 318 C416 343 390 357 287 403 C223 431 195 447 173 466 C143 492 128 520 128 553 C128 614 175 656 242 656 C328 656 393 595 420 492 L441 492 L441 667 L420 667 C418 647 409 626 394 608 C345 660 303 679 240 679 C138 679 63 609 63 513 C63 468 81 422 111 389 C136 362 178 337 247 308 C335 270 352 261 377 241 C410 215 428 180 428 142 C428 67 365 12 281 12 C177 12 110 83 82 221 L58 221 L58 7 Z " />
<glyph glyph-name="T" unicode="T" horiz-adv-x="687" d="M39 506 C64 628 88 649 197 644 L296 644 L296 174 C298 36 290 24 211 23 L177 23 L177 0 L509 0 L509 23 L477 23 C398 24 391 36 392 174 L392 644 L499 644 C600 649 626 624 649 506 L671 506 L667 667 L21 667 L17 506 L39 506 Z " />
<glyph glyph-name="U" unicode="U" horiz-adv-x="775" d="M532 667 L532 644 L537 644 C617 637 636 612 633 513 L633 286 C633 177 630 156 609 119 C576 59 499 22 411 22 C336 22 274 52 246 100 C224 138 221 162 221 291 L221 501 C219 636 226 646 311 644 L324 644 L324 667 L20 667 L20 644 L35 644 C120 646 127 636 125 501 L125 293 C125 214 125 214 126 202 C128 149 137 118 158 86 C199 24 284 -12 387 -12 C498 -12 584 27 626 95 C653 139 657 163 657 282 L657 504 C653 605 670 632 745 644 L755 644 L755 667 L532 667 Z " />
<glyph glyph-name="V" unicode="V" horiz-adv-x="701" d="M377 -16 L574 455 L597 506 C638 612 658 636 708 644 L715 644 L715 667 L511 667 L511 644 L521 644 C566 643 591 622 591 585 C591 566 580 530 552 465 L399 97 L207 540 C185 589 184 593 184 607 C184 635 204 644 268 644 L274 644 L274 667 L-13 667 L-13 644 L-3 644 C51 641 72 624 96 564 C105 541 114 519 116 515 L346 -16 L377 -16 Z " />
<glyph glyph-name="W" unicode="W" horiz-adv-x="938" d="M688 -16 L834 486 C871 613 888 640 939 644 L944 644 L944 667 L762 667 L762 644 L766 644 C810 644 832 622 832 580 C832 557 831 551 811 486 L709 132 L513 667 L486 667 L312 132 L193 520 C173 583 172 588 172 603 C172 630 187 640 237 644 L243 644 L243 667 L-7 667 L-7 644 L0 644 C53 642 67 623 101 503 L262 -16 L285 -16 L463 534 L666 -16 L688 -16 Z " />
<glyph glyph-name="X" unicode="X" horiz-adv-x="776" d="M417 370 L522 503 C605 608 656 645 716 645 L719 645 L726 645 L726 667 L476 667 L476 645 L484 645 C538 645 562 633 562 607 C562 591 559 586 512 527 L401 388 L278 537 C235 589 230 597 230 614 C230 637 245 645 286 645 L295 645 L295 667 L11 667 L11 645 L17 645 C63 642 85 628 135 564 C139 558 150 546 166 527 L341 315 L230 181 C142 64 98 32 18 23 L11 23 L11 0 L269 0 L269 23 L265 23 C216 24 192 41 192 73 C192 94 192 94 252 171 L357 298 L476 151 C526 90 532 80 532 62 C532 34 508 23 448 23 L442 23 L442 0 L773 0 L773 23 L765 23 C706 25 693 35 590 160 L417 370 Z " />
<glyph glyph-name="Y" unicode="Y" horiz-adv-x="655" d="M366 292 L207 555 C184 593 182 598 182 610 C182 633 204 644 252 644 L257 644 L257 667 L-13 667 L-13 644 L-6 644 C45 640 51 635 114 529 L281 256 L281 173 C282 36 275 23 196 23 L185 23 L185 0 L470 0 L470 23 L460 23 C381 23 374 36 376 173 L376 262 L525 511 C579 605 606 631 662 643 L669 644 L669 667 L451 667 L451 644 L456 644 C501 644 530 623 530 589 C530 569 525 559 498 512 L366 292 Z " />
<glyph glyph-name="Z" unicode="Z" horiz-adv-x="633" d="M31 0 L570 0 L592 173 L570 173 C520 39 494 21 352 23 L149 23 L575 644 L575 667 L79 667 L58 513 L79 513 C88 550 113 595 136 619 C163 643 170 645 254 644 L461 644 L31 18 L31 0 Z " />
<glyph glyph-name="bracketleft" unicode="&#x5b;" horiz-adv-x="346" d="M365 -235 L365 -212 L251 -212 C199 -212 192 -201 194 -117 L194 549 C192 633 199 644 251 644 L365 644 L365 667 L131 667 L131 -235 L365 -235 Z " />
<glyph glyph-name="backslash" unicode="&#x5c;" horiz-adv-x="500" d="M424 -97 L115 723 L75 723 L384 -97 L424 -97 Z " />
<glyph glyph-name="bracketright" unicode="&#x5d;" horiz-adv-x="346" d="M-20 -235 L214 -235 L214 667 L-20 667 L-20 644 L94 644 C146 644 153 633 151 549 L151 -117 C153 -201 146 -212 94 -212 L-20 -212 L-20 -235 Z " />
<glyph glyph-name="asciicircum" unicode="&#x5e;" horiz-adv-x="500" d="M525 286 L259 700 L252 700 L-24 286 L75 286 L284 599 L488 286 L525 286 Z " />
<glyph glyph-name="underscore" unicode="&#x5f;" horiz-adv-x="500" d="M23 -88 L23 -130 L477 -130 L477 -88 L23 -88 Z " />
<glyph glyph-name="grave" unicode="&#x60;" horiz-adv-x="500" d="M302 493 L196 657 L96 657 L286 493 L302 493 Z " />
<glyph glyph-name="a" unicode="a" horiz-adv-x="472" d="M444 74 C439 43 424 26 403 26 C391 26 381 33 376 47 C372 58 372 58 372 115 L372 278 C372 327 370 340 358 360 C333 399 287 419 219 419 C164 419 121 407 90 383 C68 365 55 345 55 327 C55 310 67 298 85 298 C106 298 121 314 125 343 C129 364 130 367 138 376 C149 390 177 398 209 398 C249 398 279 383 293 355 C300 341 301 330 301 289 L301 269 L225 238 C93 184 39 136 39 76 C39 26 81 -10 139 -10 C183 -10 232 11 301 60 C310 12 335 -10 379 -10 C429 -10 460 22 462 74 L444 74 Z M301 246 L301 87 C253 48 209 26 179 26 C145 26 121 54 121 95 C121 147 164 190 247 224 L301 246 Z " />
<glyph glyph-name="b" unicode="b" horiz-adv-x="526" d="M97 -16 C106 4 133 44 149 58 C181 7 223 -16 284 -16 C403 -16 489 76 489 204 C489 329 406 419 291 419 C242 419 196 399 149 358 L149 677 L138 677 C122 668 44 655 13 656 L13 633 L20 633 C72 632 80 617 78 523 L78 -16 L97 -16 Z M149 329 C192 372 234 393 279 393 C360 393 407 325 407 208 C407 83 355 7 269 7 C222 7 179 34 160 76 C150 98 150 101 149 171 L149 329 Z " />
<glyph glyph-name="c" unicode="c" horiz-adv-x="431" d="M386 98 C369 41 325 10 262 10 C218 10 179 28 157 59 C134 94 119 153 119 215 C119 336 163 396 251 396 C294 396 311 385 317 351 C324 317 334 307 359 307 C377 307 390 321 390 341 C390 382 324 419 250 419 C130 419 37 323 37 197 C37 73 123 -16 241 -16 C327 -16 385 24 408 98 L386 98 Z " />
<glyph glyph-name="d" unicode="d" horiz-adv-x="525" d="M379 360 C339 397 285 419 233 419 C121 419 37 325 37 199 C37 79 122 -16 229 -16 C284 -16 333 7 384 57 C383 52 383 47 383 46 C383 22 385 3 389 -16 C426 -9 480 -4 516 -3 L516 19 L510 19 C451 21 448 26 450 135 L450 677 L440 677 C401 665 345 656 309 656 L309 633 L319 633 C378 631 381 626 379 518 L379 360 Z M379 84 C344 38 299 13 251 13 C169 13 119 85 119 203 C119 322 165 388 248 388 C293 388 332 371 379 331 L379 84 Z " />
<glyph glyph-name="e" unicode="e" horiz-adv-x="438" d="M401 266 C398 354 326 419 233 419 C121 419 37 325 37 198 C37 76 123 -16 237 -16 C315 -16 380 26 401 90 L378 90 C354 38 309 10 251 10 C209 10 174 29 151 63 C131 94 119 150 119 217 C119 230 119 241 121 266 L401 266 Z M123 286 C128 322 133 337 144 353 C164 381 195 398 230 398 C282 398 317 361 317 307 C317 300 317 295 315 286 L123 286 Z " />
<glyph glyph-name="f" unicode="f" horiz-adv-x="275" d="M247 403 L163 403 L163 434 C163 560 163 562 172 592 C183 630 214 655 250 655 C277 655 295 642 312 611 C329 581 341 571 360 571 C378 571 393 586 393 603 C393 643 334 677 265 677 C205 677 160 654 126 605 C98 563 92 535 92 439 L92 403 L17 403 L17 380 L92 380 L92 138 C93 29 91 24 32 23 L26 23 L26 0 L244 0 L244 23 L223 23 C164 24 161 30 163 138 L163 380 L247 380 L247 403 Z " />
<glyph glyph-name="g" unicode="g" horiz-adv-x="472" d="M345 368 C314 400 266 419 214 419 C123 419 50 354 50 272 C50 215 82 166 144 129 C86 119 54 90 54 48 C54 -5 100 -27 222 -32 C291 -35 310 -38 336 -49 C369 -63 386 -89 386 -125 C386 -188 327 -228 234 -228 C135 -228 72 -189 72 -128 C72 -103 81 -82 103 -57 C97 -55 94 -55 89 -55 C52 -55 28 -81 28 -123 C28 -197 110 -248 231 -248 C358 -248 436 -193 436 -103 C436 -59 415 -20 381 3 C351 22 309 31 231 35 C158 39 147 40 131 44 C105 50 94 58 94 73 C94 100 126 113 198 116 C249 117 275 123 305 139 C354 164 383 213 383 270 C383 300 374 328 357 355 C372 371 387 380 399 380 C409 380 412 377 422 362 C429 349 439 342 450 342 C466 342 479 356 479 374 C479 397 458 415 429 415 C401 415 372 399 345 368 L345 368 Z M214 396 C246 396 276 378 292 349 C302 331 307 304 307 267 C307 184 274 138 216 138 C156 138 124 182 124 264 C124 349 156 396 214 396 L214 396 Z " />
<glyph glyph-name="h" unicode="h" horiz-adv-x="535" d="M165 677 L155 677 C137 667 60 655 27 656 L27 633 L34 633 C85 633 96 616 94 540 L94 138 L94 107 C94 90 94 80 93 75 C93 56 92 50 87 42 C78 28 64 22 34 23 L24 23 L24 0 L229 0 L229 23 L225 23 C166 24 163 30 165 138 L165 300 C194 357 238 389 287 389 C319 389 345 377 360 355 C371 338 375 315 375 259 L375 138 C376 29 374 24 315 23 L306 23 L306 0 L514 0 L514 23 L506 23 C447 24 444 30 446 138 L446 249 C446 316 442 343 428 365 C406 400 363 419 311 419 C253 419 206 393 165 337 L165 677 Z " />
<glyph glyph-name="i" unicode="i" horiz-adv-x="252" d="M119 677 C91 677 68 654 68 626 C68 596 91 573 119 573 C147 573 170 596 170 625 C170 654 147 677 119 677 L119 677 Z M163 419 L152 419 C133 411 61 397 16 393 L16 370 L29 370 C87 371 92 363 92 260 L92 138 L92 107 C92 90 92 80 91 75 C91 56 90 50 85 42 C76 27 62 22 32 23 L16 23 L16 0 L233 0 L233 23 L223 23 C164 24 161 30 163 138 L163 419 Z " />
<glyph glyph-name="j" unicode="j" horiz-adv-x="238" d="M170 419 L159 419 C140 411 68 397 24 393 L24 370 L37 370 C94 371 99 362 99 261 L99 -50 C99 -122 97 -144 90 -166 C78 -203 47 -226 10 -226 C-13 -226 -31 -214 -40 -192 C-53 -162 -62 -154 -79 -154 C-97 -154 -110 -168 -110 -187 C-110 -222 -65 -248 -4 -248 C85 -248 145 -200 164 -114 C169 -89 170 -79 170 -14 L170 419 Z M124 677 C96 677 73 654 73 626 C73 596 96 573 124 573 C152 573 175 596 175 625 C175 654 152 677 124 677 L124 677 Z " />
<glyph glyph-name="k" unicode="k" horiz-adv-x="461" d="M266 403 L266 380 L274 380 C294 380 304 373 304 358 C304 348 299 338 286 324 C275 312 225 269 201 253 L159 223 L159 677 L148 677 C132 668 54 655 23 656 L23 633 L30 633 C79 633 90 616 88 542 L88 138 L88 107 C88 90 88 80 87 75 C87 56 85 50 81 42 C72 28 58 22 28 23 L13 23 L13 0 L218 0 L218 23 L215 23 C160 25 157 31 159 138 L159 196 L180 212 L283 92 C312 58 316 53 316 44 C316 30 301 24 271 23 L266 23 L266 0 L467 0 L467 23 L462 23 C433 27 415 40 377 85 L234 253 L265 277 C271 282 294 302 308 314 C357 358 390 377 424 380 L428 380 L428 403 L266 403 Z " />
<glyph glyph-name="l" unicode="l" horiz-adv-x="248" d="M161 677 L151 677 C133 667 56 655 23 656 L23 633 L30 633 C82 633 92 616 90 537 L90 138 L90 107 C90 90 90 79 89 75 C89 56 88 50 83 42 C75 28 60 22 30 23 L17 23 L17 0 L233 0 L233 23 L221 23 C162 24 159 30 161 138 L161 677 Z " />
<glyph glyph-name="m" unicode="m" horiz-adv-x="810" d="M143 419 C121 411 61 399 28 397 L28 374 L33 374 C92 372 94 367 93 259 L93 138 C94 29 92 24 33 23 L28 23 L28 0 L225 0 L225 23 L220 23 C164 25 161 31 163 138 L163 306 C186 331 199 345 203 349 C230 372 261 385 289 385 C321 385 348 370 361 345 C370 326 372 313 372 250 L372 138 C373 29 371 24 312 23 L306 23 L306 0 L501 0 L501 23 L498 23 C444 25 441 31 443 138 L443 297 C488 357 527 384 571 384 C599 384 622 374 635 356 C648 340 651 323 651 272 L651 138 C652 29 650 25 591 23 L587 23 L587 0 L788 0 L788 23 L781 23 C723 24 720 30 722 138 L722 259 C722 335 719 350 701 374 C681 401 639 419 596 419 C538 419 498 396 440 329 C423 388 381 419 316 419 C257 419 209 392 163 334 C163 368 158 395 148 419 L143 419 Z " />
<glyph glyph-name="n" unicode="n" horiz-adv-x="535" d="M138 419 C96 407 70 401 28 396 L28 374 L35 374 C94 372 96 367 95 258 L95 138 C96 29 94 24 35 23 L28 23 L28 0 L231 0 L231 23 L225 23 C166 24 163 30 165 138 L165 303 C204 360 246 388 294 388 C325 388 350 375 363 353 C374 335 376 326 376 268 L376 138 L375 85 L375 75 C374 56 373 50 369 42 C360 27 346 22 316 23 L306 23 L306 0 L513 0 L513 23 L506 23 C448 24 445 30 447 138 L447 264 C447 328 444 343 430 367 C410 400 370 419 320 419 C264 419 211 391 165 336 C164 362 157 406 152 419 L138 419 Z " />
<glyph glyph-name="o" unicode="o" horiz-adv-x="503" d="M252 419 C131 419 37 326 37 205 C37 133 64 71 111 32 C146 3 203 -16 252 -16 C375 -16 466 76 466 201 C466 326 374 419 252 419 L252 419 Z M252 396 C342 396 384 333 384 198 C384 66 343 6 251 6 C159 6 119 66 119 201 C119 333 162 396 252 396 L252 396 Z " />
<glyph glyph-name="p" unicode="p" horiz-adv-x="522" d="M125 419 C76 407 31 398 2 395 L2 372 L16 372 C75 370 78 365 76 256 L76 -110 C77 -219 75 -224 16 -225 L2 -225 L2 -248 L213 -248 L213 -225 L207 -225 C148 -224 145 -218 147 -110 L147 44 C193 0 230 -16 283 -16 C402 -16 486 76 486 207 C486 331 405 419 291 419 C238 419 188 396 147 353 C148 371 143 405 138 419 L125 419 Z M147 321 C186 369 223 390 269 390 C297 390 323 381 346 362 C386 331 404 282 404 209 C404 139 389 86 360 54 C334 26 300 10 266 10 C222 10 184 31 147 76 L147 321 Z " />
<glyph glyph-name="q" unicode="q" horiz-adv-x="520" d="M432 419 C414 396 393 377 377 367 C317 407 285 419 238 419 C125 419 36 320 36 195 C36 71 116 -16 232 -16 C282 -16 328 0 377 34 L377 -110 C378 -219 376 -224 317 -225 L301 -225 L301 -248 L519 -248 L519 -225 L508 -225 C449 -224 446 -218 448 -110 L448 419 L432 419 Z M377 58 C341 28 290 9 249 9 C164 9 118 73 118 189 C118 260 132 313 158 345 C181 373 217 389 254 389 C295 389 340 370 377 336 L377 58 Z " />
<glyph glyph-name="r" unicode="r" horiz-adv-x="365" d="M28 368 L38 368 C97 366 100 360 98 252 L98 138 C99 29 97 24 38 23 L28 23 L28 0 L242 0 L242 23 L228 23 C170 24 167 30 169 138 L169 210 C169 278 173 297 195 331 C215 361 246 384 266 384 C278 384 286 377 292 359 C302 333 312 323 330 323 C348 323 363 338 363 358 C363 391 331 419 294 419 C243 419 189 376 165 316 C164 359 158 396 149 419 C108 406 54 393 28 390 L28 368 Z " />
<glyph glyph-name="s" unicode="s" horiz-adv-x="336" d="M41 -13 L60 -13 C64 1 76 25 82 29 C117 -5 140 -16 180 -16 C251 -16 302 33 302 102 C302 136 290 169 269 191 C249 212 230 224 181 246 C145 263 127 272 116 281 C97 297 86 317 86 336 C86 370 115 397 152 397 C200 397 243 353 257 288 L275 288 L275 412 L257 412 C249 393 242 381 238 377 C213 405 185 419 150 419 C91 419 42 369 42 307 C42 284 50 260 65 240 C83 217 102 204 155 178 C200 156 215 147 226 136 C244 119 253 99 253 77 C253 35 223 5 179 5 C150 5 120 18 99 41 C83 58 72 81 60 119 L41 119 L41 -13 Z " />
<glyph glyph-name="t" unicode="t" horiz-adv-x="294" d="M277 380 L277 403 L155 403 L155 529 L139 529 C130 457 83 404 26 403 L26 380 L84 380 L84 152 C84 76 86 57 99 34 C115 4 150 -16 187 -16 C232 -16 272 9 292 49 L277 58 C258 31 239 18 215 18 C194 18 174 30 165 50 C157 65 155 84 155 137 L155 380 L277 380 Z " />
<glyph glyph-name="u" unicode="u" horiz-adv-x="524" d="M437 403 L297 403 L297 380 L307 380 C366 379 369 373 367 265 L367 174 C367 116 362 98 336 68 C309 36 271 17 236 17 C210 17 185 29 172 47 C161 63 159 76 159 124 L159 403 L22 403 L22 380 L28 380 C87 379 90 373 88 265 L88 128 C88 85 92 60 103 40 C122 7 167 -16 213 -16 C273 -16 330 19 367 78 C368 33 373 2 384 -16 L390 -16 C415 -5 447 -1 499 0 L499 23 L495 23 C438 25 435 31 437 139 L437 403 Z " />
<glyph glyph-name="v" unicode="v" horiz-adv-x="462" d="M245 -16 L375 272 C408 350 424 371 456 379 L465 380 L465 403 L329 403 L329 380 L337 380 C363 379 378 366 378 346 C378 332 375 322 355 278 L257 60 L148 304 C130 344 129 347 129 357 C129 374 141 380 174 380 L181 380 L181 403 L-1 403 L-1 380 L4 380 C38 377 47 367 73 307 L216 -16 L245 -16 Z " />
<glyph glyph-name="w" unicode="w" horiz-adv-x="682" d="M483 -16 L608 304 C632 369 637 375 673 380 L681 380 L681 403 L550 403 L550 380 L560 380 C587 379 600 370 600 354 C600 348 600 348 586 310 L497 82 L376 403 L357 403 L232 82 L151 298 C133 340 131 346 131 356 C131 373 145 380 178 380 L185 380 L185 403 L1 403 L1 380 L8 380 C37 379 50 369 61 337 C64 331 69 316 74 304 L197 -16 L219 -16 L341 304 L461 -16 L483 -16 Z " />
<glyph glyph-name="x" unicode="x" horiz-adv-x="482" d="M270 229 L350 320 C393 365 417 379 447 380 L450 380 L450 403 L290 403 L290 380 L294 380 C324 380 344 370 344 355 C344 349 339 342 322 321 L256 245 L186 332 C168 353 167 354 167 362 C167 375 178 380 203 380 L208 380 L208 403 L18 403 L18 380 L25 380 C58 378 71 368 122 305 L211 193 L128 94 C88 45 58 26 20 23 L13 23 L13 0 L179 0 L179 23 L173 22 C146 22 124 33 124 47 C124 54 129 61 151 87 L225 175 L305 76 C325 52 327 49 327 42 C327 30 305 21 281 22 L277 23 L277 0 L478 0 L478 23 L473 23 C441 25 420 40 383 87 L270 229 Z " />
<glyph glyph-name="y" unicode="y" horiz-adv-x="461" d="M261 76 L150 312 C131 353 131 353 131 360 C131 373 144 379 175 380 L180 380 L180 403 L-5 403 L-5 380 L3 380 C39 378 48 369 73 315 L225 -10 L187 -106 C172 -140 167 -144 127 -162 C90 -179 76 -195 76 -219 C76 -236 89 -248 108 -248 C141 -248 163 -221 196 -141 L376 292 C403 362 416 376 457 380 L462 380 L462 403 L320 403 L320 380 L328 380 C356 380 375 369 375 355 C375 347 375 347 354 300 L261 76 Z " />
<glyph glyph-name="z" unicode="z" horiz-adv-x="423" d="M26 0 L377 0 L389 128 L369 128 C328 31 316 21 226 23 L116 23 L381 385 L381 403 L44 403 L38 291 L56 291 C83 367 101 384 147 380 L293 380 L26 16 L26 0 Z " />
<glyph glyph-name="braceleft" unicode="&#x7b;" horiz-adv-x="346" d="M52 207 C142 199 156 180 153 65 L153 -80 C153 -154 171 -196 213 -218 C237 -228 254 -230 333 -231 L351 -231 L351 -207 C252 -207 219 -177 214 -85 L214 106 C214 165 186 204 139 215 L139 221 C187 232 213 271 214 330 L214 521 C219 613 252 643 351 643 L351 667 L333 666 C253 666 237 664 213 654 C171 632 153 590 153 515 L153 370 C156 256 142 236 52 228 L52 207 Z " />
<glyph glyph-name="bar" unicode="&#x7c;" horiz-adv-x="500" d="M224 667 L224 -167 L277 -167 L277 667 L224 667 Z " />
<glyph glyph-name="braceright" unicode="&#x7d;" horiz-adv-x="358" d="M305 228 C215 236 201 256 204 370 L204 515 C204 590 186 632 144 654 C120 664 104 666 24 666 L6 667 L6 643 C105 643 138 613 143 521 L143 330 C144 271 170 232 218 221 L218 215 C171 204 143 165 143 106 L143 -85 C138 -177 105 -207 6 -207 L6 -231 L24 -231 C103 -230 120 -228 144 -218 C186 -196 204 -154 204 -80 L204 65 C201 180 215 200 305 207 L305 228 Z " />
<glyph glyph-name="asciitilde" unicode="&#x7e;" horiz-adv-x="667" d="M530 734 C500 697 468 679 431 679 C411 679 394 683 352 697 C301 715 283 719 261 719 C210 719 161 685 123 623 L137 614 C178 663 193 672 228 672 C254 672 275 667 345 643 C379 632 391 629 408 629 C456 629 512 668 544 725 L530 734 Z " />
<glyph glyph-name="uni00A0" unicode="&#xa0;" horiz-adv-x="250" d="" />
<glyph glyph-name="exclamdown" unicode="&#xa1;" horiz-adv-x="252" d="M112 243 L83 -105 C79 -144 79 -151 79 -165 C79 -202 97 -227 123 -227 C148 -227 166 -202 166 -167 C166 -151 165 -142 162 -105 L133 243 L112 243 Z M123 450 C94 450 70 426 70 398 C70 368 93 344 123 344 C152 344 176 368 176 397 C176 426 152 450 123 450 L123 450 Z " />
<glyph glyph-name="cent" unicode="&#xa2;" horiz-adv-x="503" d="M185 4 C219 -11 243 -16 276 -16 C362 -16 421 24 443 98 L421 98 C404 41 360 10 298 10 C258 10 225 23 201 48 L321 391 C336 387 348 372 352 351 C359 317 369 306 394 306 C412 306 425 320 425 340 C425 373 389 401 330 414 L399 612 L378 612 L310 417 C297 419 289 419 283 419 C164 419 72 322 72 197 C72 118 108 49 167 13 L96 -189 L118 -189 L185 4 Z M185 68 C166 101 154 155 154 213 C154 335 197 396 285 396 C291 396 295 396 302 395 L185 68 Z " />
<glyph glyph-name="sterling" unicode="&#xa3;" horiz-adv-x="703" d="M34 221 L26 198 L184 198 L178 176 C153 90 143 58 133 30 C68 -12 21 -65 21 -98 C21 -113 33 -124 48 -124 C72 -124 104 -87 133 -27 L148 5 L152 14 C164 20 173 23 184 23 C212 23 237 8 282 -40 C340 -101 380 -123 433 -123 C526 -123 618 -34 618 56 C618 93 600 120 576 120 C560 120 546 108 546 93 C546 84 548 77 555 66 C569 44 574 30 574 12 C574 -35 526 -77 473 -77 C440 -77 416 -64 373 -23 C312 36 276 55 226 55 C204 55 188 51 170 43 L175 51 C203 102 220 135 227 149 C235 166 242 180 250 198 L435 198 L443 221 L260 221 C296 307 321 377 357 500 C394 626 406 654 436 694 C466 733 508 756 548 756 C585 756 612 742 629 715 C648 684 654 679 670 679 C685 679 696 691 696 708 C696 749 639 781 567 781 C494 781 428 744 370 671 C320 607 265 481 222 332 C210 287 200 254 191 221 L34 221 Z " />
<glyph glyph-name="currency" unicode="&#xa4;" horiz-adv-x="667" d="M65 102 L93 73 L185 165 C243 126 280 113 332 113 C385 113 425 127 481 166 L574 74 L603 102 L509 196 C549 256 561 289 561 342 C561 394 549 429 510 489 L604 583 L575 611 L482 519 C422 560 385 573 333 573 C278 573 229 555 182 519 L91 611 L62 582 L153 491 C116 430 102 388 102 338 C102 286 116 248 155 193 L65 102 Z M332 516 C429 516 505 439 505 340 C505 247 427 170 332 170 C237 170 159 247 159 343 C159 438 237 516 332 516 L332 516 Z " />
<glyph glyph-name="yen" unicode="&#xa5;" horiz-adv-x="493" d="M352 424 L209 424 L138 555 C117 592 115 598 115 610 C115 633 135 644 178 644 L183 644 L183 667 L-60 667 L-60 644 C-9 642 -4 637 54 528 L111 424 L-54 424 L-54 395 L127 395 L193 276 L-54 276 L-54 247 L204 247 L204 173 C205 36 199 23 128 23 L118 23 L118 0 L374 0 L374 23 L365 23 C294 23 288 36 289 173 L289 247 L547 247 L547 276 L296 276 L361 395 L547 395 L547 424 L376 424 L424 511 C473 607 499 635 553 644 L553 667 L357 667 L357 644 L361 644 C402 644 428 623 428 589 C428 569 425 560 399 512 L352 424 Z M336 395 L281 292 L224 395 L336 395 Z " />
<glyph glyph-name="brokenbar" unicode="&#xa6;" horiz-adv-x="500" d="M224 667 L224 333 L277 333 L277 667 L224 667 Z M224 153 L224 -167 L277 -167 L277 153 L224 153 Z " />
<glyph glyph-name="section" unicode="&#xa7;" horiz-adv-x="399" d="M184 357 C175 359 170 360 162 360 C88 360 34 304 34 227 C34 191 46 155 68 119 C89 86 112 64 168 18 C262 -58 287 -91 287 -142 C287 -189 252 -221 200 -221 C158 -221 138 -203 132 -158 C128 -125 120 -113 100 -113 C82 -113 70 -128 70 -150 C70 -201 125 -242 193 -242 C277 -242 330 -190 330 -110 C330 -70 316 -35 285 3 C271 20 271 20 219 68 C226 66 229 66 235 66 C307 66 361 124 361 202 C361 237 351 268 328 304 C307 337 294 351 215 419 C137 487 108 528 108 570 C108 615 144 646 195 646 C241 646 264 626 266 586 C267 558 281 541 301 541 C318 541 330 555 330 575 C330 625 271 667 201 667 C122 667 65 614 65 542 C65 494 92 442 139 399 L177 364 L184 357 Z M165 339 C201 339 227 324 265 283 C305 239 324 202 324 167 C324 120 285 86 233 86 C194 86 168 101 127 149 C91 190 74 226 74 260 C74 307 111 339 165 339 L165 339 Z " />
<glyph glyph-name="dieresis" unicode="&#xa8;" horiz-adv-x="500" d="M159 622 C136 622 118 604 118 582 C118 559 136 541 159 541 C181 541 199 559 199 582 C199 604 181 622 159 622 L159 622 Z M339 622 C316 622 298 604 298 582 C298 559 316 541 339 541 C361 541 379 559 379 582 C379 604 361 622 339 622 L339 622 Z " />
<glyph glyph-name="copyright" unicode="&#xa9;" horiz-adv-x="804" d="M402 680 C210 680 55 525 55 334 C55 144 210 -13 397 -13 C593 -13 748 140 748 334 C748 525 593 680 402 680 L402 680 Z M402 649 C575 649 717 508 717 334 C717 157 576 18 398 18 C227 18 86 161 86 334 C86 508 227 649 402 649 L402 649 Z M540 294 C529 211 483 165 413 165 C336 165 287 230 287 331 C287 443 333 509 410 509 C479 509 527 463 539 385 L539 383 L540 378 L558 378 L555 523 L537 523 C535 507 531 492 525 479 C491 513 449 530 401 530 C293 530 218 448 218 330 C218 219 293 143 402 143 C452 143 491 160 525 196 C533 184 538 173 540 159 L558 159 L558 294 L540 294 Z " />
<glyph glyph-name="ordfeminine" unicode="&#xaa;" horiz-adv-x="295" d="M268 317 C264 297 257 287 245 287 C239 287 234 291 231 299 C229 305 229 305 229 341 L229 444 C229 475 227 484 220 497 C206 522 178 535 137 535 C83 535 38 507 38 474 C38 463 46 454 58 454 C71 454 81 465 83 484 C87 508 99 517 131 517 C154 517 171 508 178 491 C182 482 183 476 183 451 L183 440 L139 420 C60 386 28 355 28 316 C28 284 54 260 89 260 C115 260 143 273 183 303 C191 272 204 260 231 260 C262 260 281 281 282 317 L268 317 Z M183 421 L183 324 C156 301 130 287 113 287 C93 287 80 304 80 328 C80 360 105 387 154 408 L183 421 Z " />
<glyph glyph-name="guillemotleft" unicode="&#xab;" horiz-adv-x="472" d="M33 215 L215 23 L243 23 L128 215 L243 403 L215 403 L33 215 Z M243 215 L426 23 L452 23 L338 215 L452 403 L426 403 L243 215 Z " />
<glyph glyph-name="logicalnot" unicode="&#xac;" horiz-adv-x="500" d="M373 0 L465 0 L465 267 L36 267 L36 227 L373 227 L373 0 Z " />
<glyph glyph-name="uni00AD" unicode="&#xad;" horiz-adv-x="315" d="M35 233 L35 186 L276 186 L276 233 L35 233 Z " />
<glyph glyph-name="registered" unicode="&#xae;" horiz-adv-x="804" d="M402 680 C210 680 55 525 55 334 C55 144 210 -13 397 -13 C593 -13 748 140 748 334 C748 525 593 680 402 680 L402 680 Z M402 649 C575 649 717 508 717 334 C717 157 576 18 398 18 C227 18 86 161 86 334 C86 508 227 649 402 649 L402 649 Z M228 150 L410 150 L410 169 L389 169 C348 169 345 174 346 249 L346 327 L357 327 C376 329 387 319 438 248 C472 199 502 162 520 150 L623 150 L623 169 L617 169 C580 170 553 189 510 247 C471 300 461 312 434 335 C498 348 532 381 532 430 C532 494 475 529 371 529 C356 529 320 528 286 526 L230 523 L230 504 L240 504 C285 505 287 502 286 429 L286 249 C287 174 284 170 243 169 L228 169 L228 150 Z M346 346 L346 507 C356 508 359 508 367 508 C439 508 466 486 466 427 C466 366 441 347 356 346 L346 346 Z " />
<glyph glyph-name="macron" unicode="&#xaf;" horiz-adv-x="334" d="M33 565 L301 565 L301 588 L33 588 L33 565 Z " />
<glyph glyph-name="degree" unicode="&#xb0;" horiz-adv-x="400" d="M203 686 C117 686 50 619 50 534 C50 448 116 381 200 381 C284 381 350 448 350 533 C350 619 286 686 203 686 L203 686 Z M202 629 C252 629 293 586 293 534 C293 480 252 438 200 438 C148 438 106 481 106 533 C106 587 148 629 202 629 L202 629 Z " />
<glyph glyph-name="plusminus" unicode="&#xb1;" horiz-adv-x="500" d="M23 362 L23 320 L228 320 L228 127 L272 127 L272 320 L477 320 L477 362 L272 362 L272 554 L228 554 L228 362 L23 362 Z M23 51 L23 9 L477 9 L477 51 L23 51 Z " />
<glyph glyph-name="twosuperior" unicode="&#xb2;" horiz-adv-x="317" d="M31 266 L218 266 C239 266 239 266 239 257 C239 253 239 253 236 244 L236 236 L259 236 L279 308 L87 308 C132 347 169 380 202 413 C265 475 283 506 283 552 C283 617 231 663 158 663 C89 663 35 619 35 563 C35 531 56 497 75 497 C87 497 108 514 108 524 C108 527 106 530 102 532 C82 545 74 558 74 577 C74 613 104 641 143 641 C193 641 222 607 222 549 C222 504 202 463 156 409 C115 363 71 320 31 289 L31 266 Z " />
<glyph glyph-name="threesuperior" unicode="&#xb3;" horiz-adv-x="317" d="M178 487 C248 530 270 554 270 589 C270 632 225 663 163 663 C98 663 48 625 48 575 C48 552 63 529 79 529 C91 529 109 539 109 545 C109 547 108 549 105 551 C92 563 88 571 88 587 C88 618 117 643 154 643 C188 643 209 621 209 584 C209 542 194 523 131 483 C101 464 97 460 97 452 C97 446 103 440 111 440 C116 440 119 441 123 445 C144 465 152 469 168 469 C202 469 224 435 224 384 C224 316 194 277 141 277 C114 277 98 288 90 312 C84 333 77 339 62 339 C48 339 37 329 37 316 C37 286 87 258 143 258 C226 258 285 310 285 382 C285 447 244 487 178 487 L178 487 Z " />
<glyph glyph-name="acute" unicode="&#xb4;" horiz-adv-x="500" d="M187 493 L203 493 L391 657 L293 657 L187 493 Z " />
<glyph glyph-name="mu" unicode="&#xb5;" horiz-adv-x="576" d="M442 500 L353 500 L354 131 C318 80 284 58 242 58 C184 58 150 99 150 169 L150 500 L62 500 L62 20 C62 -1 58 -26 51 -56 C34 -118 33 -123 33 -147 C33 -190 54 -219 83 -219 C112 -219 132 -189 132 -145 C132 -124 129 -110 113 -53 C102 -17 101 -8 101 21 L101 33 C143 -3 165 -13 200 -13 C250 -13 301 18 354 80 C362 48 367 36 377 21 C392 0 419 -13 449 -13 C510 -13 553 31 567 108 L540 109 C536 71 515 41 492 41 C462 41 442 77 442 131 L442 500 Z " />
<glyph glyph-name="paragraph" unicode="&#xb6;" horiz-adv-x="553" d="M519 667 L285 667 C172 667 168 666 133 652 C79 630 45 575 45 510 C45 462 64 418 96 390 C128 361 159 351 214 351 L260 351 L260 -1 C259 -66 256 -69 195 -70 L174 -70 L174 -93 L302 -93 L302 643 L395 643 L395 -93 L515 -93 L515 -70 L493 -70 C441 -70 437 -66 438 -3 L438 567 C438 638 443 644 500 644 L519 644 L519 667 Z M259 644 L259 379 L217 379 C148 379 106 427 106 507 C106 602 142 644 223 644 L259 644 Z " />
<glyph glyph-name="periodcentered" unicode="&#xb7;" horiz-adv-x="273" d="M135 387 C106 387 82 363 82 335 C82 305 105 281 135 281 C164 281 188 305 188 334 C188 363 164 387 135 387 L135 387 Z " />
<glyph glyph-name="cedilla" unicode="&#xb8;" horiz-adv-x="500" d="M203 -96 C237 -99 255 -116 255 -146 C255 -176 233 -198 201 -198 C190 -198 183 -197 167 -193 L162 -212 C182 -217 198 -219 212 -219 C266 -219 309 -182 309 -135 C309 -93 279 -65 226 -59 L234 0 L219 0 L203 -96 Z " />
<glyph glyph-name="onesuperior" unicode="&#xb9;" horiz-adv-x="317" d="M168 663 C153 651 121 643 86 643 L86 623 L104 623 C137 623 138 621 137 558 L137 352 C138 288 137 288 104 287 L89 287 L89 267 L238 267 L238 287 L221 287 C188 288 187 289 188 352 L188 663 L168 663 Z " />
<glyph glyph-name="ordmasculine" unicode="&#xba;" horiz-adv-x="314" d="M158 535 C85 535 29 475 29 398 C29 316 82 257 158 257 C232 257 286 316 286 396 C286 475 231 535 158 535 L158 535 Z M158 517 C210 517 234 478 234 395 C234 312 210 275 157 275 C104 275 81 312 81 397 C81 478 106 517 158 517 L158 517 Z " />
<glyph glyph-name="guillemotright" unicode="&#xbb;" horiz-adv-x="472" d="M443 215 L260 403 L233 403 L348 215 L233 23 L260 23 L443 215 Z M233 215 L50 403 L24 403 L137 215 L24 23 L50 23 L233 215 Z " />
<glyph glyph-name="onequarter" unicode="&#xbc;" horiz-adv-x="787" d="M168 663 C153 651 121 643 86 643 L86 623 L104 623 C137 623 138 621 137 558 L137 352 C138 288 137 288 104 287 L89 287 L89 267 L238 267 L238 287 L221 287 C188 288 187 289 188 352 L188 663 L168 663 Z M247 0 L589 644 L559 644 L217 0 L247 0 Z M627 131 L627 85 C628 22 627 21 594 20 L579 20 L579 0 L724 0 L724 20 L714 20 C681 21 680 22 681 85 L681 131 L760 131 L769 183 L746 183 L743 175 C738 163 738 161 735 158 C730 155 730 155 705 155 L681 155 L681 396 L654 396 L475 152 L475 131 L627 131 Z M627 155 L504 155 L627 323 L627 155 Z " />
<glyph glyph-name="onehalf" unicode="&#xbd;" horiz-adv-x="787" d="M168 663 C153 651 121 643 86 643 L86 623 L104 623 C137 623 138 621 137 558 L137 352 C138 288 137 288 104 287 L89 287 L89 267 L238 267 L238 287 L221 287 C188 288 187 289 188 352 L188 663 L168 663 Z M227 0 L569 644 L539 644 L197 0 L227 0 Z M491 0 L678 0 C699 0 699 0 699 -9 C699 -13 699 -13 696 -22 L696 -30 L719 -30 L739 42 L547 42 C591 80 629 115 662 147 C725 209 743 240 743 286 C743 351 691 397 617 397 C549 397 494 353 494 297 C494 265 515 231 534 231 C546 231 567 248 567 258 C567 261 565 264 561 266 C541 279 533 292 533 311 C533 347 563 375 602 375 C653 375 682 341 682 283 C682 238 663 197 616 143 C575 96 531 54 491 23 L491 0 Z " />
<glyph glyph-name="threequarters" unicode="&#xbe;" horiz-adv-x="787" d="M178 487 C248 530 270 554 270 589 C270 632 225 663 163 663 C98 663 48 625 48 575 C48 552 63 529 79 529 C91 529 109 539 109 545 C109 547 108 549 105 551 C92 563 88 571 88 587 C88 618 117 643 154 643 C188 643 209 621 209 584 C209 542 194 523 131 483 C101 464 97 460 97 452 C97 446 103 440 111 440 C116 440 119 441 123 445 C144 465 152 469 168 469 C202 469 224 435 224 384 C224 316 194 277 141 277 C114 277 98 288 90 312 C84 333 77 339 62 339 C48 339 37 329 37 316 C37 286 87 258 143 258 C226 258 285 310 285 382 C285 447 244 487 178 487 L178 487 Z M254 0 L596 644 L566 644 L223 0 L254 0 Z M627 131 L627 85 C628 22 627 21 594 20 L579 20 L579 0 L724 0 L724 20 L714 20 C681 21 680 22 681 85 L681 131 L760 131 L769 183 L746 183 L743 175 C738 163 738 161 735 158 C730 155 730 155 705 155 L681 155 L681 396 L654 396 L475 152 L475 131 L627 131 Z M627 155 L504 155 L627 323 L627 155 Z " />
<glyph glyph-name="questiondown" unicode="&#xbf;" horiz-adv-x="399" d="M222 446 C193 446 169 422 169 394 C169 364 193 340 222 340 C251 340 275 364 275 393 C275 422 251 446 222 446 L222 446 Z M214 243 L214 76 C194 94 171 103 142 103 C65 103 9 38 9 -49 C9 -90 22 -131 46 -166 C75 -208 122 -231 180 -231 C249 -231 310 -198 310 -161 C310 -146 300 -136 287 -136 C272 -136 263 -143 255 -161 C239 -196 220 -209 185 -209 C123 -209 85 -158 85 -75 C85 21 112 74 161 74 C183 74 200 63 214 37 L236 37 L236 243 L214 243 Z " />
<glyph glyph-name="Agrave" unicode="&#xc0;" horiz-adv-x="661" d="M421 245 L472 122 C495 70 495 70 495 58 C495 31 477 23 421 23 L413 23 L413 0 L675 0 L675 23 L669 23 C614 33 608 40 564 146 L341 677 L322 677 L129 213 L105 156 C67 57 49 36 -4 24 L-13 23 L-13 0 L185 0 L185 23 L177 23 C139 23 112 48 112 84 C112 107 117 124 151 203 L168 245 L421 245 Z M413 268 L177 268 L295 552 L413 268 Z M297 847 L158 847 L378 724 L398 724 L297 847 Z " />
<glyph glyph-name="Aacute" unicode="&#xc1;" horiz-adv-x="661" d="M421 245 L472 122 C495 70 495 70 495 58 C495 31 477 23 421 23 L413 23 L413 0 L675 0 L675 23 L669 23 C614 33 608 40 564 146 L341 677 L322 677 L129 213 L105 156 C67 57 49 36 -4 24 L-13 23 L-13 0 L185 0 L185 23 L177 23 C139 23 112 48 112 84 C112 107 117 124 151 203 L168 245 L421 245 Z M413 268 L177 268 L295 552 L413 268 Z M398 847 L296 724 L316 724 L537 847 L398 847 Z " />
<glyph glyph-name="Acircumflex" unicode="&#xc2;" horiz-adv-x="661" d="M421 245 L472 122 C495 70 495 70 495 58 C495 31 477 23 421 23 L413 23 L413 0 L675 0 L675 23 L669 23 C614 33 608 40 564 146 L341 677 L322 677 L129 213 L105 156 C67 57 49 36 -4 24 L-13 23 L-13 0 L185 0 L185 23 L177 23 C139 23 112 48 112 84 C112 107 117 124 151 203 L168 245 L421 245 Z M413 268 L177 268 L295 552 L413 268 Z M291 856 L167 725 L186 725 L314 802 L480 725 L499 725 L376 856 L291 856 Z " />
<glyph glyph-name="Atilde" unicode="&#xc3;" horiz-adv-x="661" d="M421 245 L472 122 C495 70 495 70 495 58 C495 31 477 23 421 23 L413 23 L413 0 L675 0 L675 23 L669 23 C614 33 608 40 564 146 L341 677 L322 677 L129 213 L105 156 C67 57 49 36 -4 24 L-13 23 L-13 0 L185 0 L185 23 L177 23 C139 23 112 48 112 84 C112 107 117 124 151 203 L168 245 L421 245 Z M413 268 L177 268 L295 552 L413 268 Z M182 724 C189 765 203 782 231 782 C249 782 265 776 314 753 C357 733 381 725 405 725 C457 725 493 772 494 840 L479 840 C475 803 457 780 431 780 C418 780 401 785 381 794 C303 830 281 838 258 838 C207 838 168 789 168 724 L182 724 Z " />
<glyph glyph-name="Adieresis" unicode="&#xc4;" horiz-adv-x="661" d="M421 245 L472 122 C495 70 495 70 495 58 C495 31 477 23 421 23 L413 23 L413 0 L675 0 L675 23 L669 23 C614 33 608 40 564 146 L341 677 L322 677 L129 213 L105 156 C67 57 49 36 -4 24 L-13 23 L-13 0 L185 0 L185 23 L177 23 C139 23 112 48 112 84 C112 107 117 124 151 203 L168 245 L421 245 Z M413 268 L177 268 L295 552 L413 268 Z M209 827 C182 827 159 805 159 778 C159 749 181 727 209 727 C237 727 259 750 259 777 C259 805 237 827 209 827 L209 827 Z M453 827 C426 827 403 805 403 778 C403 749 425 727 453 727 C480 727 503 750 503 777 C503 805 481 827 453 827 L453 827 Z " />
<glyph glyph-name="Aring" unicode="&#xc5;" horiz-adv-x="661" d="M129 213 L105 156 C67 57 49 36 -4 24 L-13 23 L-13 0 L185 0 L185 23 L177 23 C139 23 112 48 112 84 C112 107 117 124 151 203 L168 245 L421 245 L472 122 C495 70 495 70 495 58 C495 31 477 23 421 23 L413 23 L413 0 L675 0 L675 23 L669 23 C614 33 608 40 564 146 L351 653 C395 664 425 700 425 745 C425 796 383 838 331 838 C279 838 237 796 237 745 C237 700 268 663 312 653 L129 213 Z M413 268 L177 268 L295 552 L413 268 Z M331 813 C369 813 399 782 399 745 C399 707 368 676 331 676 C293 676 263 707 263 745 C263 782 294 813 331 813 L331 813 Z " />
<glyph glyph-name="AE" unicode="&#xc6;" horiz-adv-x="873" d="M389 326 L389 173 C390 36 383 24 304 23 L289 23 L289 0 L838 0 L846 202 L825 202 C789 60 744 19 630 23 L585 23 C489 23 483 32 485 170 L485 326 L563 326 C633 327 649 309 650 232 L650 223 L673 223 L673 452 L650 452 L650 446 C648 365 631 347 561 349 L485 349 L485 644 L611 644 C705 647 739 616 767 502 L791 502 L774 667 L253 667 L253 644 L268 644 C328 644 342 640 342 620 C342 610 342 610 311 547 L125 167 C80 76 36 31 -13 23 L-13 0 L197 0 L197 23 L194 23 C142 26 118 44 118 78 C118 94 124 110 144 152 L230 326 L389 326 Z M389 349 L241 349 L389 648 L389 349 Z " />
<glyph glyph-name="Ccedilla" unicode="&#xc7;" horiz-adv-x="725" d="M388 -12 C470 -11 545 25 600 87 C614 70 628 40 632 17 L653 17 L653 250 L632 250 C622 167 579 87 528 55 C487 30 440 16 395 16 C252 16 160 137 160 325 C160 531 246 654 390 654 C467 654 541 618 580 560 C605 524 622 475 632 414 L653 414 L647 667 L626 667 C623 639 613 605 600 581 C550 641 463 679 374 679 C181 679 47 533 47 321 C47 126 172 -5 367 -12 L348 -107 C393 -110 417 -129 417 -162 C417 -196 387 -220 345 -220 C324 -220 305 -217 279 -209 L271 -229 C301 -238 334 -243 359 -243 C427 -243 480 -203 480 -152 C480 -104 443 -73 379 -66 L388 -12 Z " />
<glyph glyph-name="Egrave" unicode="&#xc8;" horiz-adv-x="626" d="M573 207 C538 73 480 19 373 23 L323 23 C231 22 226 30 226 183 L226 340 L299 340 C380 342 395 327 397 244 L397 235 L420 235 L420 464 L397 464 L397 456 C398 379 381 364 297 364 L226 364 L226 644 L318 644 C450 648 485 622 513 500 L536 500 L520 667 L44 667 L44 644 L52 644 C125 644 132 631 130 500 L130 173 C132 36 124 24 44 23 L30 23 L30 0 L582 0 L596 207 L573 207 Z M304 847 L165 847 L386 724 L405 724 L304 847 Z " />
<glyph glyph-name="Eacute" unicode="&#xc9;" horiz-adv-x="626" d="M573 207 C538 73 480 19 373 23 L323 23 C231 22 226 30 226 183 L226 340 L299 340 C380 342 395 327 397 244 L397 235 L420 235 L420 464 L397 464 L397 456 C398 379 381 364 297 364 L226 364 L226 644 L318 644 C450 648 485 622 513 500 L536 500 L520 667 L44 667 L44 644 L52 644 C125 644 132 631 130 500 L130 173 C132 36 124 24 44 23 L30 23 L30 0 L582 0 L596 207 L573 207 Z M371 847 L270 724 L290 724 L510 847 L371 847 Z " />
<glyph glyph-name="Ecircumflex" unicode="&#xca;" horiz-adv-x="626" d="M573 207 C538 73 480 19 373 23 L323 23 C231 22 226 30 226 183 L226 340 L299 340 C380 342 395 327 397 244 L397 235 L420 235 L420 464 L397 464 L397 456 C398 379 381 364 297 364 L226 364 L226 644 L318 644 C450 648 485 622 513 500 L536 500 L520 667 L44 667 L44 644 L52 644 C125 644 132 631 130 500 L130 173 C132 36 124 24 44 23 L30 23 L30 0 L582 0 L596 207 L573 207 Z M278 856 L153 725 L172 725 L300 802 L466 725 L485 725 L362 856 L278 856 Z " />
<glyph glyph-name="Edieresis" unicode="&#xcb;" horiz-adv-x="626" d="M573 207 C538 73 480 19 373 23 L323 23 C231 22 226 30 226 183 L226 340 L299 340 C380 342 395 327 397 244 L397 235 L420 235 L420 464 L397 464 L397 456 C398 379 381 364 297 364 L226 364 L226 644 L318 644 C450 648 485 622 513 500 L536 500 L520 667 L44 667 L44 644 L52 644 C125 644 132 631 130 500 L130 173 C132 36 124 24 44 23 L30 23 L30 0 L582 0 L596 207 L573 207 Z M191 827 C164 827 141 805 141 778 C141 749 163 727 191 727 C219 727 241 750 241 777 C241 805 219 827 191 827 L191 827 Z M435 827 C408 827 385 805 385 778 C385 749 407 727 435 727 C462 727 485 750 485 777 C485 805 463 827 435 827 L435 827 Z " />
<glyph glyph-name="Igrave" unicode="&#xcc;" horiz-adv-x="365" d="M30 644 L44 644 C129 646 136 636 134 501 L134 173 C136 36 128 23 49 23 L30 23 L30 0 L334 0 L334 23 L315 23 C236 23 229 36 230 173 L230 501 C228 636 235 646 320 644 L334 644 L334 667 L30 667 L30 644 Z M182 847 L43 847 L263 724 L283 724 L182 847 Z " />
<glyph glyph-name="Iacute" unicode="&#xcd;" horiz-adv-x="365" d="M30 644 L44 644 C129 646 136 636 134 501 L134 173 C136 36 128 23 49 23 L30 23 L30 0 L334 0 L334 23 L315 23 C236 23 229 36 230 173 L230 501 C228 636 235 646 320 644 L334 644 L334 667 L30 667 L30 644 Z M255 847 L154 724 L174 724 L394 847 L255 847 Z " />
<glyph glyph-name="Icircumflex" unicode="&#xce;" horiz-adv-x="365" d="M31 644 L45 644 C130 646 137 636 135 501 L135 173 C137 36 129 23 50 23 L31 23 L31 0 L335 0 L335 23 L316 23 C237 23 230 36 231 173 L231 501 C229 636 236 646 321 644 L335 644 L335 667 L31 667 L31 644 Z M145 856 L21 725 L40 725 L168 802 L334 725 L353 725 L230 856 L145 856 Z " />
<glyph glyph-name="Idieresis" unicode="&#xcf;" horiz-adv-x="365" d="M30 644 L44 644 C129 646 136 636 134 501 L134 173 C136 36 128 23 49 23 L30 23 L30 0 L334 0 L334 23 L315 23 C236 23 229 36 230 173 L230 501 C228 636 235 646 320 644 L334 644 L334 667 L30 667 L30 644 Z M77 827 C50 827 27 805 27 778 C27 749 49 727 77 727 C105 727 127 750 127 777 C127 805 105 827 77 827 L77 827 Z M288 827 C261 827 238 805 238 778 C238 749 260 727 288 727 C315 727 338 750 338 777 C338 805 316 827 288 827 L288 827 Z " />
<glyph glyph-name="Eth" unicode="&#xd0;" horiz-adv-x="771" d="M144 317 L144 173 C145 36 138 23 59 23 L31 23 L31 0 L327 0 C452 0 484 4 546 29 C661 76 725 182 725 328 C725 461 671 564 570 623 C511 658 434 674 327 674 C277 674 266 674 64 663 L34 662 L34 639 L54 639 C139 641 145 631 144 495 L144 344 L30 344 L30 317 L144 317 Z M240 317 L409 317 L409 344 L240 344 L240 648 C268 649 289 650 322 650 C410 650 460 637 508 600 C578 548 618 447 618 319 C618 211 588 127 531 77 C487 37 437 23 345 23 C284 23 264 28 252 48 C241 68 240 80 240 202 L240 317 Z " />
<glyph glyph-name="Ntilde" unicode="&#xd1;" horiz-adv-x="765" d="M623 -15 L644 -15 L644 537 C640 608 663 635 740 644 L748 644 L748 667 L506 667 L506 644 L519 644 C599 638 623 615 620 544 L620 145 L225 667 L28 667 L28 644 L34 644 C119 646 126 636 127 501 L127 147 C127 87 126 77 119 64 C109 43 72 27 31 23 L20 23 L20 0 L269 0 L269 23 L261 23 C183 26 150 52 152 108 L151 147 L151 610 L623 -15 Z M243 724 C250 765 265 782 293 782 C310 782 327 776 376 753 C418 733 443 725 466 725 C519 725 555 772 556 840 L540 840 C536 803 518 780 492 780 C479 780 462 785 443 794 C365 830 342 838 320 838 C269 838 230 789 229 724 L243 724 Z " />
<glyph glyph-name="Ograve" unicode="&#xd2;" horiz-adv-x="819" d="M406 679 C197 679 47 538 47 342 C47 129 192 -12 410 -12 C627 -12 773 128 773 335 C773 437 734 530 667 589 C602 645 505 679 406 679 L406 679 Z M409 654 C475 654 534 632 577 591 C630 541 660 449 660 333 C660 127 572 13 413 13 C337 13 277 36 233 81 C187 129 160 222 160 337 C160 434 185 527 225 575 C266 625 333 654 409 654 L409 654 Z M384 847 L245 847 L465 724 L485 724 L384 847 Z " />
<glyph glyph-name="Oacute" unicode="&#xd3;" horiz-adv-x="819" d="M406 679 C197 679 47 538 47 342 C47 129 192 -12 410 -12 C627 -12 773 128 773 335 C773 437 734 530 667 589 C602 645 505 679 406 679 L406 679 Z M409 654 C475 654 534 632 577 591 C630 541 660 449 660 333 C660 127 572 13 413 13 C337 13 277 36 233 81 C187 129 160 222 160 337 C160 434 185 527 225 575 C266 625 333 654 409 654 L409 654 Z M464 847 L362 724 L382 724 L603 847 L464 847 Z " />
<glyph glyph-name="Ocircumflex" unicode="&#xd4;" horiz-adv-x="819" d="M406 679 C197 679 47 538 47 342 C47 129 192 -12 410 -12 C627 -12 773 128 773 335 C773 437 734 530 667 589 C602 645 505 679 406 679 L406 679 Z M409 654 C475 654 534 632 577 591 C630 541 660 449 660 333 C660 127 572 13 413 13 C337 13 277 36 233 81 C187 129 160 222 160 337 C160 434 185 527 225 575 C266 625 333 654 409 654 L409 654 Z M368 856 L244 725 L262 725 L391 802 L556 725 L576 725 L453 856 L368 856 Z " />
<glyph glyph-name="Otilde" unicode="&#xd5;" horiz-adv-x="819" d="M406 679 C197 679 47 538 47 342 C47 129 192 -12 410 -12 C627 -12 773 128 773 335 C773 437 734 530 667 589 C602 645 505 679 406 679 L406 679 Z M409 654 C475 654 534 632 577 591 C630 541 660 449 660 333 C660 127 572 13 413 13 C337 13 277 36 233 81 C187 129 160 222 160 337 C160 434 185 527 225 575 C266 625 333 654 409 654 L409 654 Z M263 724 C270 765 284 782 312 782 C330 782 346 776 395 753 C438 733 462 725 485 725 C538 725 574 772 575 840 L560 840 C556 803 538 780 512 780 C499 780 482 785 462 794 C384 830 361 838 339 838 C288 838 249 789 249 724 L263 724 Z " />
<glyph glyph-name="Odieresis" unicode="&#xd6;" horiz-adv-x="819" d="M406 679 C197 679 47 538 47 342 C47 129 192 -12 410 -12 C627 -12 773 128 773 335 C773 437 734 530 667 589 C602 645 505 679 406 679 L406 679 Z M409 654 C475 654 534 632 577 591 C630 541 660 449 660 333 C660 127 572 13 413 13 C337 13 277 36 233 81 C187 129 160 222 160 337 C160 434 185 527 225 575 C266 625 333 654 409 654 L409 654 Z M288 827 C261 827 238 805 238 778 C238 749 260 727 288 727 C316 727 338 750 338 777 C338 805 316 827 288 827 L288 827 Z M532 827 C505 827 482 805 482 778 C482 749 504 727 532 727 C559 727 582 750 582 777 C582 805 560 827 532 827 L532 827 Z " />
<glyph glyph-name="multiply" unicode="&#xd7;" horiz-adv-x="500" d="M92 529 L62 499 L220 341 L61 182 L91 152 L250 311 L409 152 L438 182 L280 340 L439 499 L408 530 L250 370 L92 529 Z " />
<glyph glyph-name="Oslash" unicode="&#xd8;" horiz-adv-x="819" d="M189 51 C249 10 326 -12 410 -12 C627 -12 773 128 773 335 C773 443 733 534 658 597 L714 663 L696 678 L639 611 C572 655 490 679 406 679 C195 679 47 538 47 337 C47 223 90 128 171 64 L117 0 L134 -14 L189 51 Z M210 110 C178 162 160 245 160 333 C160 434 185 526 225 575 C266 625 333 654 409 654 C489 654 554 624 600 566 L210 110 Z M614 545 C644 490 660 419 660 334 C660 127 573 13 413 13 C331 13 268 39 224 91 L614 545 Z " />
<glyph glyph-name="Ugrave" unicode="&#xd9;" horiz-adv-x="775" d="M532 667 L532 644 L537 644 C617 637 636 612 633 513 L633 286 C633 177 630 156 609 119 C576 59 499 22 411 22 C336 22 274 52 246 100 C224 138 221 162 221 291 L221 501 C219 636 226 646 311 644 L324 644 L324 667 L20 667 L20 644 L35 644 C120 646 127 636 125 501 L125 293 C125 214 125 214 126 202 C128 149 137 118 158 86 C199 24 284 -12 387 -12 C498 -12 584 27 626 95 C653 139 657 163 657 282 L657 504 C653 605 670 632 745 644 L755 644 L755 667 L532 667 Z M383 847 L244 847 L464 724 L484 724 L383 847 Z " />
<glyph glyph-name="Uacute" unicode="&#xda;" horiz-adv-x="775" d="M532 667 L532 644 L537 644 C617 637 636 612 633 513 L633 286 C633 177 630 156 609 119 C576 59 499 22 411 22 C336 22 274 52 246 100 C224 138 221 162 221 291 L221 501 C219 636 226 646 311 644 L324 644 L324 667 L20 667 L20 644 L35 644 C120 646 127 636 125 501 L125 293 C125 214 125 214 126 202 C128 149 137 118 158 86 C199 24 284 -12 387 -12 C498 -12 584 27 626 95 C653 139 657 163 657 282 L657 504 C653 605 670 632 745 644 L755 644 L755 667 L532 667 Z M462 847 L361 724 L381 724 L601 847 L462 847 Z " />
<glyph glyph-name="Ucircumflex" unicode="&#xdb;" horiz-adv-x="775" d="M532 667 L532 644 L537 644 C617 637 636 612 633 513 L633 286 C633 177 630 156 609 119 C576 59 499 22 411 22 C336 22 274 52 246 100 C224 138 221 162 221 291 L221 501 C219 636 226 646 311 644 L324 644 L324 667 L20 667 L20 644 L35 644 C120 646 127 636 125 501 L125 293 C125 214 125 214 126 202 C128 149 137 118 158 86 C199 24 284 -12 387 -12 C498 -12 584 27 626 95 C653 139 657 163 657 282 L657 504 C653 605 670 632 745 644 L755 644 L755 667 L532 667 Z M367 856 L242 725 L261 725 L389 802 L555 725 L574 725 L451 856 L367 856 Z " />
<glyph glyph-name="Udieresis" unicode="&#xdc;" horiz-adv-x="775" d="M532 667 L532 644 L537 644 C617 637 636 612 633 513 L633 286 C633 177 630 156 609 119 C576 59 499 22 411 22 C336 22 274 52 246 100 C224 138 221 162 221 291 L221 501 C219 636 226 646 311 644 L324 644 L324 667 L20 667 L20 644 L35 644 C120 646 127 636 125 501 L125 293 C125 214 125 214 126 202 C128 149 137 118 158 86 C199 24 284 -12 387 -12 C498 -12 584 27 626 95 C653 139 657 163 657 282 L657 504 C653 605 670 632 745 644 L755 644 L755 667 L532 667 Z M284 827 C257 827 234 805 234 778 C234 749 256 727 284 727 C312 727 334 750 334 777 C334 805 312 827 284 827 L284 827 Z M529 827 C502 827 479 805 479 778 C479 749 501 727 529 727 C556 727 579 750 579 777 C579 805 557 827 529 827 L529 827 Z " />
<glyph glyph-name="Yacute" unicode="&#xdd;" horiz-adv-x="655" d="M366 292 L207 555 C184 593 182 598 182 610 C182 633 204 644 252 644 L257 644 L257 667 L-13 667 L-13 644 L-6 644 C45 640 51 635 114 529 L281 256 L281 173 C282 36 275 23 196 23 L185 23 L185 0 L470 0 L470 23 L460 23 C381 23 374 36 376 173 L376 262 L525 511 C579 605 606 631 662 643 L669 644 L669 667 L451 667 L451 644 L456 644 C501 644 530 623 530 589 C530 569 525 559 498 512 L366 292 Z M405 847 L303 724 L323 724 L544 847 L405 847 Z " />
<glyph glyph-name="Thorn" unicode="&#xde;" horiz-adv-x="583" d="M335 667 L30 667 L30 644 L42 644 C127 646 134 636 132 501 L132 174 C133 36 126 23 47 23 L30 23 L30 0 L335 0 L335 23 L313 23 C239 23 228 38 228 141 L228 154 L301 154 C392 154 439 162 475 183 C526 212 556 268 556 332 C556 411 513 470 437 494 C388 510 355 513 228 513 L228 524 C227 628 239 645 313 644 L335 644 L335 667 Z M228 179 L228 488 C244 490 254 490 275 490 C340 490 373 482 401 460 C433 435 452 387 452 330 C452 275 433 231 397 206 C368 185 341 179 276 179 L228 179 Z " />
<glyph glyph-name="germandbls" unicode="&#xdf;" horiz-adv-x="526" d="M85 138 C86 29 84 24 25 23 L15 23 L15 0 L216 0 L216 23 L213 23 C157 25 154 30 156 138 L156 418 C156 544 156 549 166 583 C178 630 217 656 272 656 C343 656 381 606 381 512 C381 423 342 380 263 380 C259 380 256 380 248 381 L248 359 L274 359 C296 359 318 355 336 347 C389 323 408 270 408 145 C408 56 393 19 357 19 C344 19 335 24 322 39 C304 60 296 65 283 65 C269 65 258 54 258 40 C258 14 289 -5 330 -5 C425 -5 490 70 490 179 C490 284 432 354 328 372 C365 383 387 393 406 408 C442 437 463 480 463 524 C463 613 386 677 277 677 C210 677 154 649 119 599 C91 557 85 526 85 418 L85 138 Z " />
<glyph glyph-name="agrave" unicode="&#xe0;" horiz-adv-x="472" d="M444 74 C439 43 424 26 403 26 C391 26 381 33 376 47 C372 58 372 58 372 115 L372 278 C372 327 370 340 358 360 C333 399 287 419 219 419 C164 419 121 407 90 383 C68 365 55 345 55 327 C55 310 67 298 85 298 C106 298 121 314 125 343 C129 364 130 367 138 376 C149 390 177 398 209 398 C249 398 279 383 293 355 C300 341 301 330 301 289 L301 269 L225 238 C93 184 39 136 39 76 C39 26 81 -10 139 -10 C183 -10 232 11 301 60 C310 12 335 -10 379 -10 C429 -10 460 22 462 74 L444 74 Z M301 246 L301 87 C253 48 209 26 179 26 C145 26 121 54 121 95 C121 147 164 190 247 224 L301 246 Z M315 493 L209 657 L109 657 L299 493 L315 493 Z " />
<glyph glyph-name="aacute" unicode="&#xe1;" horiz-adv-x="472" d="M444 74 C439 43 424 26 403 26 C391 26 381 33 376 47 C372 58 372 58 372 115 L372 278 C372 327 370 340 358 360 C333 399 287 419 219 419 C164 419 121 407 90 383 C68 365 55 345 55 327 C55 310 67 298 85 298 C106 298 121 314 125 343 C129 364 130 367 138 376 C149 390 177 398 209 398 C249 398 279 383 293 355 C300 341 301 330 301 289 L301 269 L225 238 C93 184 39 136 39 76 C39 26 81 -10 139 -10 C183 -10 232 11 301 60 C310 12 335 -10 379 -10 C429 -10 460 22 462 74 L444 74 Z M301 246 L301 87 C253 48 209 26 179 26 C145 26 121 54 121 95 C121 147 164 190 247 224 L301 246 Z M212 493 L229 493 L416 657 L318 657 L212 493 Z " />
<glyph glyph-name="acircumflex" unicode="&#xe2;" horiz-adv-x="472" d="M444 74 C439 43 424 26 403 26 C391 26 381 33 376 47 C372 58 372 58 372 115 L372 278 C372 327 370 340 358 360 C333 399 287 419 219 419 C164 419 121 407 90 383 C68 365 55 345 55 327 C55 310 67 298 85 298 C106 298 121 314 125 343 C129 364 130 367 138 376 C149 390 177 398 209 398 C249 398 279 383 293 355 C300 341 301 330 301 289 L301 269 L225 238 C93 184 39 136 39 76 C39 26 81 -10 139 -10 C183 -10 232 11 301 60 C310 12 335 -10 379 -10 C429 -10 460 22 462 74 L444 74 Z M301 246 L301 87 C253 48 209 26 179 26 C145 26 121 54 121 95 C121 147 164 190 247 224 L301 246 Z M228 596 L336 496 L355 496 L263 661 L213 661 L125 496 L144 496 L228 596 Z " />
<glyph glyph-name="atilde" unicode="&#xe3;" horiz-adv-x="472" d="M444 74 C439 43 424 26 403 26 C391 26 381 33 376 47 C372 58 372 58 372 115 L372 278 C372 327 370 340 358 360 C333 399 287 419 219 419 C164 419 121 407 90 383 C68 365 55 345 55 327 C55 310 67 298 85 298 C106 298 121 314 125 343 C129 364 130 367 138 376 C149 390 177 398 209 398 C249 398 279 383 293 355 C300 341 301 330 301 289 L301 269 L225 238 C93 184 39 136 39 76 C39 26 81 -10 139 -10 C183 -10 232 11 301 60 C310 12 335 -10 379 -10 C429 -10 460 22 462 74 L444 74 Z M301 246 L301 87 C253 48 209 26 179 26 C145 26 121 54 121 95 C121 147 164 190 247 224 L301 246 Z M104 524 C107 568 125 592 153 592 C165 592 177 587 193 574 C249 530 264 523 296 523 C327 523 353 536 370 560 C385 579 390 601 390 639 L376 639 C375 595 357 570 326 570 C310 570 299 576 271 597 C225 633 211 639 183 639 C126 639 88 592 89 524 L104 524 Z " />
<glyph glyph-name="adieresis" unicode="&#xe4;" horiz-adv-x="472" d="M444 74 C439 43 424 26 403 26 C391 26 381 33 376 47 C372 58 372 58 372 115 L372 278 C372 327 370 340 358 360 C333 399 287 419 219 419 C164 419 121 407 90 383 C68 365 55 345 55 327 C55 310 67 298 85 298 C106 298 121 314 125 343 C129 364 130 367 138 376 C149 390 177 398 209 398 C249 398 279 383 293 355 C300 341 301 330 301 289 L301 269 L225 238 C93 184 39 136 39 76 C39 26 81 -10 139 -10 C183 -10 232 11 301 60 C310 12 335 -10 379 -10 C429 -10 460 22 462 74 L444 74 Z M301 246 L301 87 C253 48 209 26 179 26 C145 26 121 54 121 95 C121 147 164 190 247 224 L301 246 Z M134 622 C111 622 93 604 93 582 C93 559 111 541 134 541 C156 541 174 559 174 582 C174 604 156 622 134 622 L134 622 Z M315 622 C292 622 274 604 274 582 C274 559 292 541 315 541 C337 541 355 559 355 582 C355 604 337 622 315 622 L315 622 Z " />
<glyph glyph-name="aring" unicode="&#xe5;" horiz-adv-x="472" d="M444 74 C439 43 424 26 403 26 C391 26 381 33 376 47 C372 58 372 58 372 115 L372 278 C372 327 370 340 358 360 C333 399 287 419 219 419 C164 419 121 407 90 383 C68 365 55 345 55 327 C55 310 67 298 85 298 C106 298 121 314 125 343 C129 364 130 367 138 376 C149 390 177 398 209 398 C249 398 279 383 293 355 C300 341 301 330 301 289 L301 269 L225 238 C93 184 39 136 39 76 C39 26 81 -10 139 -10 C183 -10 232 11 301 60 C310 12 335 -10 379 -10 C429 -10 460 22 462 74 L444 74 Z M301 246 L301 87 C253 48 209 26 179 26 C145 26 121 54 121 95 C121 147 164 190 247 224 L301 246 Z M236 668 C187 668 147 628 147 580 C147 530 187 490 236 490 C285 490 325 530 325 579 C325 628 285 668 236 668 L236 668 Z M236 640 C270 640 297 613 297 579 C297 545 270 518 236 518 C202 518 175 545 175 580 C175 613 203 640 236 640 L236 640 Z " />
<glyph glyph-name="ae" unicode="&#xe6;" horiz-adv-x="644" d="M607 266 C592 364 531 419 439 419 C389 419 356 405 322 370 C282 405 245 419 195 419 C118 419 44 376 44 331 C44 314 56 303 75 303 C96 303 110 320 118 354 C125 385 146 398 189 398 C218 398 241 388 253 370 C263 355 266 335 266 287 L266 266 C225 252 159 224 130 208 C70 176 37 131 37 82 C37 29 84 -16 139 -16 C187 -16 237 17 278 78 C309 17 365 -16 438 -16 C515 -16 573 20 599 82 L581 90 C556 39 513 11 459 11 C414 11 377 37 358 80 C344 115 337 166 337 240 L337 266 L607 266 Z M337 287 C341 323 347 342 360 359 C379 384 405 397 434 397 C489 397 521 359 524 287 L337 287 Z M266 99 C238 55 205 29 176 29 C138 29 111 61 111 107 C111 167 157 208 266 245 L266 99 Z " />
<glyph glyph-name="ccedilla" unicode="&#xe7;" horiz-adv-x="431" d="M243 -16 C331 -13 388 26 408 98 L386 98 C369 41 325 10 262 10 C218 10 179 28 157 59 C134 94 119 153 119 215 C119 336 163 396 251 396 C294 396 311 385 317 351 C324 317 334 307 359 307 C377 307 390 321 390 341 C390 382 324 419 250 419 C130 419 37 323 37 197 C37 79 113 -7 227 -16 L214 -96 C247 -99 265 -116 265 -146 C265 -176 243 -198 211 -198 C200 -198 193 -197 177 -193 L172 -212 C192 -217 208 -219 222 -219 C276 -219 319 -182 319 -135 C319 -93 289 -65 237 -59 L243 -16 Z " />
<glyph glyph-name="egrave" unicode="&#xe8;" horiz-adv-x="438" d="M401 266 C398 354 326 419 233 419 C121 419 37 325 37 198 C37 76 123 -16 237 -16 C315 -16 380 26 401 90 L378 90 C354 38 309 10 251 10 C209 10 174 29 151 63 C131 94 119 150 119 217 C119 230 119 241 121 266 L401 266 Z M123 286 C128 322 133 337 144 353 C164 381 195 398 230 398 C282 398 317 361 317 307 C317 300 317 295 315 286 L123 286 Z M307 493 L201 657 L101 657 L291 493 L307 493 Z " />
<glyph glyph-name="eacute" unicode="&#xe9;" horiz-adv-x="438" d="M401 266 C398 354 326 419 233 419 C121 419 37 325 37 198 C37 76 123 -16 237 -16 C315 -16 380 26 401 90 L378 90 C354 38 309 10 251 10 C209 10 174 29 151 63 C131 94 119 150 119 217 C119 230 119 241 121 266 L401 266 Z M123 286 C128 322 133 337 144 353 C164 381 195 398 230 398 C282 398 317 361 317 307 C317 300 317 295 315 286 L123 286 Z M202 493 L219 493 L406 657 L308 657 L202 493 Z " />
<glyph glyph-name="ecircumflex" unicode="&#xea;" horiz-adv-x="438" d="M401 266 C398 354 326 419 233 419 C121 419 37 325 37 198 C37 76 123 -16 237 -16 C315 -16 380 26 401 90 L378 90 C354 38 309 10 251 10 C209 10 174 29 151 63 C131 94 119 150 119 217 C119 230 119 241 121 266 L401 266 Z M123 286 C128 322 133 337 144 353 C164 381 195 398 230 398 C282 398 317 361 317 307 C317 300 317 295 315 286 L123 286 Z M230 596 L338 496 L358 496 L265 661 L216 661 L127 496 L146 496 L230 596 Z " />
<glyph glyph-name="edieresis" unicode="&#xeb;" horiz-adv-x="438" d="M401 266 C398 354 326 419 233 419 C121 419 37 325 37 198 C37 76 123 -16 237 -16 C315 -16 380 26 401 90 L378 90 C354 38 309 10 251 10 C209 10 174 29 151 63 C131 94 119 150 119 217 C119 230 119 241 121 266 L401 266 Z M123 286 C128 322 133 337 144 353 C164 381 195 398 230 398 C282 398 317 361 317 307 C317 300 317 295 315 286 L123 286 Z M149 622 C126 622 108 604 108 582 C108 559 126 541 149 541 C171 541 189 559 189 582 C189 604 171 622 149 622 L149 622 Z M330 622 C307 622 289 604 289 582 C289 559 307 541 330 541 C352 541 370 559 370 582 C370 604 352 622 330 622 L330 622 Z " />
<glyph glyph-name="igrave" unicode="&#xec;" horiz-adv-x="252" d="M163 419 L152 419 C133 411 60 397 16 393 L16 370 L29 370 C87 371 92 363 92 260 L92 138 L92 107 C92 90 92 80 91 75 C91 56 90 50 85 42 C76 27 62 22 32 23 L16 23 L16 0 L233 0 L233 23 L223 23 C164 24 161 30 163 138 L163 419 Z M182 493 L76 657 L-24 657 L166 493 L182 493 Z " />
<glyph glyph-name="iacute" unicode="&#xed;" horiz-adv-x="252" d="M163 419 L152 419 C133 411 61 397 16 393 L16 370 L29 370 C87 371 92 363 92 260 L92 138 L92 107 C92 90 92 80 91 75 C91 56 90 50 85 42 C76 27 62 22 32 23 L16 23 L16 0 L233 0 L233 23 L223 23 C164 24 161 30 163 138 L163 419 Z M97 493 L113 493 L301 657 L203 657 L97 493 Z " />
<glyph glyph-name="icircumflex" unicode="&#xee;" horiz-adv-x="252" d="M163 419 L152 419 C133 411 60 397 16 393 L16 370 L29 370 C87 371 92 363 92 260 L92 138 L92 107 C92 90 92 80 91 75 C91 56 90 50 85 42 C76 27 62 22 32 23 L16 23 L16 0 L233 0 L233 23 L223 23 C164 24 161 30 163 138 L163 419 Z M118 596 L226 496 L246 496 L153 661 L104 661 L15 496 L34 496 L118 596 Z " />
<glyph glyph-name="idieresis" unicode="&#xef;" horiz-adv-x="252" d="M163 419 L152 419 C133 411 60 397 16 393 L16 370 L29 370 C87 371 92 363 92 260 L92 138 L92 107 C92 90 92 80 91 75 C91 56 90 50 85 42 C76 27 62 22 32 23 L16 23 L16 0 L233 0 L233 23 L223 23 C164 24 161 30 163 138 L163 419 Z M46 622 C23 622 5 604 5 582 C5 559 23 541 46 541 C68 541 86 559 86 582 C86 604 68 622 46 622 L46 622 Z M200 622 C177 622 159 604 159 582 C159 559 177 541 200 541 C222 541 240 559 240 582 C240 604 222 622 200 622 L200 622 Z " />
<glyph glyph-name="eth" unicode="&#xf0;" horiz-adv-x="503" d="M130 641 C181 609 188 604 231 567 L96 496 L106 476 L249 550 C305 494 343 436 363 377 C330 410 298 422 250 422 C129 422 37 327 37 202 C37 79 128 -12 252 -12 C300 -12 345 3 383 32 C439 75 467 136 467 216 C467 351 412 474 305 580 L415 638 L404 656 L288 596 C263 615 245 630 229 641 C209 656 196 664 168 679 L130 641 Z M251 400 C283 400 317 388 338 369 C371 339 384 293 384 209 C384 117 367 64 329 35 C311 20 277 10 249 10 C162 10 118 75 118 201 C118 332 163 400 251 400 L251 400 Z " />
<glyph glyph-name="ntilde" unicode="&#xf1;" horiz-adv-x="535" d="M138 419 C96 407 70 401 28 396 L28 374 L35 374 C94 372 96 367 95 258 L95 138 C96 29 94 24 35 23 L28 23 L28 0 L231 0 L231 23 L225 23 C166 24 163 30 165 138 L165 303 C204 360 246 388 294 388 C325 388 350 375 363 353 C374 335 376 326 376 268 L376 138 L375 85 L375 75 C374 56 373 50 369 42 C360 27 346 22 316 23 L306 23 L306 0 L513 0 L513 23 L506 23 C448 24 445 30 447 138 L447 264 C447 328 444 343 430 367 C410 400 370 419 320 419 C264 419 211 391 165 336 C164 362 157 406 152 419 L138 419 Z M134 524 C137 568 155 592 184 592 C195 592 207 587 224 574 C280 530 294 523 327 523 C357 523 383 536 401 560 C415 579 420 601 421 639 L406 639 C405 595 387 570 357 570 C341 570 329 576 301 597 C255 633 242 639 213 639 C157 639 119 592 119 524 L134 524 Z " />
<glyph glyph-name="ograve" unicode="&#xf2;" horiz-adv-x="503" d="M252 419 C131 419 37 326 37 205 C37 133 64 71 111 32 C146 3 203 -16 252 -16 C375 -16 466 76 466 201 C466 326 374 419 252 419 L252 419 Z M252 396 C342 396 384 333 384 198 C384 66 343 6 251 6 C159 6 119 66 119 201 C119 333 162 396 252 396 L252 396 Z M323 493 L217 657 L116 657 L306 493 L323 493 Z " />
<glyph glyph-name="oacute" unicode="&#xf3;" horiz-adv-x="503" d="M252 419 C131 419 37 326 37 205 C37 133 64 71 111 32 C146 3 203 -16 252 -16 C375 -16 466 76 466 201 C466 326 374 419 252 419 L252 419 Z M252 396 C342 396 384 333 384 198 C384 66 343 6 251 6 C159 6 119 66 119 201 C119 333 162 396 252 396 L252 396 Z M224 493 L240 493 L428 657 L330 657 L224 493 Z " />
<glyph glyph-name="ocircumflex" unicode="&#xf4;" horiz-adv-x="503" d="M252 419 C131 419 37 326 37 205 C37 133 64 71 111 32 C146 3 203 -16 252 -16 C375 -16 466 76 466 201 C466 326 374 419 252 419 L252 419 Z M252 396 C342 396 384 333 384 198 C384 66 343 6 251 6 C159 6 119 66 119 201 C119 333 162 396 252 396 L252 396 Z M252 596 L360 496 L380 496 L287 661 L238 661 L149 496 L168 496 L252 596 Z " />
<glyph glyph-name="otilde" unicode="&#xf5;" horiz-adv-x="503" d="M252 419 C131 419 37 326 37 205 C37 133 64 71 111 32 C146 3 203 -16 252 -16 C375 -16 466 76 466 201 C466 326 374 419 252 419 L252 419 Z M252 396 C342 396 384 333 384 198 C384 66 343 6 251 6 C159 6 119 66 119 201 C119 333 162 396 252 396 L252 396 Z M119 524 C123 568 140 592 169 592 C181 592 192 587 209 574 C265 530 279 523 312 523 C342 523 369 536 386 560 C400 579 406 601 406 639 L392 639 C390 595 373 570 342 570 C326 570 314 576 286 597 C240 633 227 639 199 639 C142 639 104 592 105 524 L119 524 Z " />
<glyph glyph-name="odieresis" unicode="&#xf6;" horiz-adv-x="503" d="M252 419 C131 419 37 326 37 205 C37 133 64 71 111 32 C146 3 203 -16 252 -16 C375 -16 466 76 466 201 C466 326 374 419 252 419 L252 419 Z M252 396 C342 396 384 333 384 198 C384 66 343 6 251 6 C159 6 119 66 119 201 C119 333 162 396 252 396 L252 396 Z M171 622 C148 622 130 604 130 582 C130 559 148 541 171 541 C193 541 211 559 211 582 C211 604 193 622 171 622 L171 622 Z M351 622 C328 622 310 604 310 582 C310 559 328 541 351 541 C373 541 391 559 391 582 C391 604 373 622 351 622 L351 622 Z " />
<glyph glyph-name="divide" unicode="&#xf7;" horiz-adv-x="500" d="M23 362 L23 320 L477 320 L477 362 L23 362 Z M251 214 C222 214 198 190 198 162 C198 132 222 108 251 108 C280 108 304 132 304 161 C304 190 280 214 251 214 L251 214 Z M251 568 C222 568 198 544 198 516 C198 486 221 462 251 462 C280 462 304 486 304 515 C304 544 280 568 251 568 L251 568 Z " />
<glyph glyph-name="oslash" unicode="&#xf8;" horiz-adv-x="503" d="M46 -16 L61 -29 L113 31 C150 2 203 -16 252 -16 C376 -16 466 76 466 202 C466 266 444 318 398 363 L448 420 L432 433 L383 376 C341 406 302 419 252 419 C129 419 37 326 37 202 C37 141 60 80 98 44 L46 -16 Z M134 86 C124 112 119 152 119 199 C119 333 161 396 252 396 C297 396 336 377 356 344 L134 86 Z M365 324 C377 294 384 249 384 198 C384 66 343 6 252 6 C201 6 166 25 143 65 L365 324 Z " />
<glyph glyph-name="ugrave" unicode="&#xf9;" horiz-adv-x="524" d="M437 403 L297 403 L297 380 L307 380 C366 379 369 373 367 265 L367 174 C367 116 362 98 336 68 C309 36 271 17 236 17 C210 17 185 29 172 47 C161 63 159 76 159 124 L159 403 L22 403 L22 380 L28 380 C87 379 90 373 88 265 L88 128 C88 85 92 60 103 40 C122 7 167 -16 213 -16 C273 -16 330 19 367 78 C368 33 373 2 384 -16 L390 -16 C415 -5 447 -1 499 0 L499 23 L495 23 C438 25 435 31 437 139 L437 403 Z M332 493 L226 657 L125 657 L315 493 L332 493 Z " />
<glyph glyph-name="uacute" unicode="&#xfa;" horiz-adv-x="524" d="M437 403 L297 403 L297 380 L307 380 C366 379 369 373 367 265 L367 174 C367 116 362 98 336 68 C309 36 271 17 236 17 C210 17 185 29 172 47 C161 63 159 76 159 124 L159 403 L22 403 L22 380 L28 380 C87 379 90 373 88 265 L88 128 C88 85 92 60 103 40 C122 7 167 -16 213 -16 C273 -16 330 19 367 78 C368 33 373 2 384 -16 L390 -16 C415 -5 447 -1 499 0 L499 23 L495 23 C438 25 435 31 437 139 L437 403 Z M235 493 L251 493 L439 657 L341 657 L235 493 Z " />
<glyph glyph-name="ucircumflex" unicode="&#xfb;" horiz-adv-x="524" d="M437 403 L297 403 L297 380 L307 380 C366 379 369 373 367 265 L367 174 C367 116 362 98 336 68 C309 36 271 17 236 17 C210 17 185 29 172 47 C161 63 159 76 159 124 L159 403 L22 403 L22 380 L28 380 C87 379 90 373 88 265 L88 128 C88 85 92 60 103 40 C122 7 167 -16 213 -16 C273 -16 330 19 367 78 C368 33 373 2 384 -16 L390 -16 C415 -5 447 -1 499 0 L499 23 L495 23 C438 25 435 31 437 139 L437 403 Z M257 596 L365 496 L384 496 L292 661 L242 661 L154 496 L173 496 L257 596 Z " />
<glyph glyph-name="udieresis" unicode="&#xfc;" horiz-adv-x="524" d="M437 403 L297 403 L297 380 L307 380 C366 379 369 373 367 265 L367 174 C367 116 362 98 336 68 C309 36 271 17 236 17 C210 17 185 29 172 47 C161 63 159 76 159 124 L159 403 L22 403 L22 380 L28 380 C87 379 90 373 88 265 L88 128 C88 85 92 60 103 40 C122 7 167 -16 213 -16 C273 -16 330 19 367 78 C368 33 373 2 384 -16 L390 -16 C415 -5 447 -1 499 0 L499 23 L495 23 C438 25 435 31 437 139 L437 403 Z M176 622 C153 622 135 604 135 582 C135 559 153 541 176 541 C198 541 216 559 216 582 C216 604 198 622 176 622 L176 622 Z M356 622 C333 622 315 604 315 582 C315 559 333 541 356 541 C378 541 396 559 396 582 C396 604 378 622 356 622 L356 622 Z " />
<glyph glyph-name="yacute" unicode="&#xfd;" horiz-adv-x="461" d="M261 76 L150 312 C131 353 131 353 131 360 C131 373 144 379 175 380 L180 380 L180 403 L-5 403 L-5 380 L3 380 C39 378 48 369 73 315 L225 -10 L187 -106 C172 -140 167 -144 127 -162 C90 -179 76 -195 76 -219 C76 -236 89 -248 108 -248 C141 -248 163 -221 196 -141 L376 292 C403 362 416 376 457 380 L462 380 L462 403 L320 403 L320 380 L328 380 C356 380 375 369 375 355 C375 347 375 347 354 300 L261 76 Z M211 493 L228 493 L415 657 L317 657 L211 493 Z " />
<glyph glyph-name="thorn" unicode="&#xfe;" horiz-adv-x="522" d="M134 677 C91 664 29 653 2 652 L2 629 L16 629 C75 628 78 622 76 514 L76 -110 C77 -219 75 -224 16 -225 L2 -225 L2 -248 L213 -248 L213 -225 L207 -225 C148 -224 145 -218 147 -110 L147 44 C193 0 230 -16 283 -16 C402 -16 486 76 486 207 C486 331 405 419 291 419 C238 419 188 396 147 353 L147 677 L134 677 Z M147 321 C186 369 223 390 269 390 C297 390 323 381 346 362 C386 331 404 282 404 209 C404 139 389 86 360 54 C334 26 300 10 266 10 C222 10 184 31 147 76 L147 321 Z " />
<glyph glyph-name="ydieresis" unicode="&#xff;" horiz-adv-x="461" d="M261 76 L150 312 C131 353 131 353 131 360 C131 373 144 379 175 380 L180 380 L180 403 L-5 403 L-5 380 L3 380 C39 378 48 369 73 315 L225 -10 L187 -106 C172 -140 167 -144 127 -162 C90 -179 76 -195 76 -219 C76 -236 89 -248 108 -248 C141 -248 163 -221 196 -141 L376 292 C403 362 416 376 457 380 L462 380 L462 403 L320 403 L320 380 L328 380 C356 380 375 369 375 355 C375 347 375 347 354 300 L261 76 Z M156 622 C133 622 115 604 115 582 C115 559 133 541 156 541 C178 541 196 559 196 582 C196 604 178 622 156 622 L156 622 Z M336 622 C313 622 295 604 295 582 C295 559 313 541 336 541 C358 541 376 559 376 582 C376 604 358 622 336 622 L336 622 Z " />
<glyph glyph-name="Amacron" unicode="&#x100;" horiz-adv-x="661" d="M421 245 L472 122 C495 70 495 70 495 58 C495 31 477 23 421 23 L413 23 L413 0 L675 0 L675 23 L669 23 C614 33 608 40 564 146 L341 677 L322 677 L129 213 L105 156 C67 57 49 36 -4 24 L-13 23 L-13 0 L185 0 L185 23 L177 23 C139 23 112 48 112 84 C112 107 117 124 151 203 L168 245 L421 245 Z M413 268 L177 268 L295 552 L413 268 Z M172 792 L172 764 L490 764 L490 792 L172 792 Z " />
<glyph glyph-name="amacron" unicode="&#x101;" horiz-adv-x="472" d="M444 74 C439 43 424 26 403 26 C391 26 381 33 376 47 C372 58 372 58 372 115 L372 278 C372 327 370 340 358 360 C333 399 287 419 219 419 C164 419 121 407 90 383 C68 365 55 345 55 327 C55 310 67 298 85 298 C106 298 121 314 125 343 C129 364 130 367 138 376 C149 390 177 398 209 398 C249 398 279 383 293 355 C300 341 301 330 301 289 L301 269 L225 238 C93 184 39 136 39 76 C39 26 81 -10 139 -10 C183 -10 232 11 301 60 C310 12 335 -10 379 -10 C429 -10 460 22 462 74 L444 74 Z M301 246 L301 87 C253 48 209 26 179 26 C145 26 121 54 121 95 C121 147 164 190 247 224 L301 246 Z M98 565 L365 565 L365 588 L98 588 L98 565 Z " />
<glyph glyph-name="Abreve" unicode="&#x102;" horiz-adv-x="661" d="M421 245 L472 122 C495 70 495 70 495 58 C495 31 477 23 421 23 L413 23 L413 0 L675 0 L675 23 L669 23 C614 33 608 40 564 146 L341 677 L322 677 L129 213 L105 156 C67 57 49 36 -4 24 L-13 23 L-13 0 L185 0 L185 23 L177 23 C139 23 112 48 112 84 C112 107 117 124 151 203 L168 245 L421 245 Z M413 268 L177 268 L295 552 L413 268 Z M177 868 C194 774 252 717 328 717 C409 717 474 780 486 868 L472 868 C445 823 388 794 330 794 C272 794 229 817 190 868 L177 868 Z " />
<glyph glyph-name="abreve" unicode="&#x103;" horiz-adv-x="472" d="M444 74 C439 43 424 26 403 26 C391 26 381 33 376 47 C372 58 372 58 372 115 L372 278 C372 327 370 340 358 360 C333 399 287 419 219 419 C164 419 121 407 90 383 C68 365 55 345 55 327 C55 310 67 298 85 298 C106 298 121 314 125 343 C129 364 130 367 138 376 C149 390 177 398 209 398 C249 398 279 383 293 355 C300 341 301 330 301 289 L301 269 L225 238 C93 184 39 136 39 76 C39 26 81 -10 139 -10 C183 -10 232 11 301 60 C310 12 335 -10 379 -10 C429 -10 460 22 462 74 L444 74 Z M301 246 L301 87 C253 48 209 26 179 26 C145 26 121 54 121 95 C121 147 164 190 247 224 L301 246 Z M110 651 C120 564 169 510 238 510 C306 510 357 565 365 651 L349 651 C330 602 297 580 241 580 C177 580 141 602 126 651 L110 651 Z " />
<glyph glyph-name="Aogonek" unicode="&#x104;" horiz-adv-x="661" d="M675 0 L675 23 L669 23 C614 33 608 40 564 146 L341 677 L322 677 L129 213 L105 156 C67 57 49 36 -4 24 L-13 23 L-13 0 L185 0 L185 23 L177 23 C139 23 112 48 112 84 C112 107 117 124 151 203 L168 245 L421 245 L472 122 C495 70 495 70 495 58 C495 31 477 23 421 23 L413 23 L413 0 L570 0 C525 -22 495 -63 495 -102 C495 -149 537 -184 593 -184 C627 -184 653 -175 689 -151 L679 -135 C657 -143 647 -145 632 -145 C593 -145 565 -118 565 -81 C565 -51 579 -24 607 0 L675 0 Z M413 268 L177 268 L295 552 L413 268 Z " />
<glyph glyph-name="aogonek" unicode="&#x105;" horiz-adv-x="472" d="M444 74 C439 43 424 26 403 26 C391 26 381 33 376 47 C372 58 372 58 372 115 L372 278 C372 327 370 340 358 360 C333 399 287 419 219 419 C164 419 121 407 90 383 C68 365 55 345 55 327 C55 310 67 298 85 298 C106 298 121 314 125 343 C129 364 130 367 138 376 C149 390 177 398 209 398 C249 398 279 383 293 355 C300 341 301 330 301 289 L301 269 L225 238 C93 184 39 136 39 76 C39 26 81 -10 139 -10 C183 -10 232 11 301 60 C308 20 325 0 359 -8 C328 -29 309 -62 309 -93 C309 -136 344 -168 392 -168 C420 -168 442 -160 472 -138 L464 -124 C445 -130 436 -132 424 -132 C392 -132 368 -107 368 -73 C368 -50 377 -28 394 -9 C435 -3 460 27 462 74 L444 74 Z M301 246 L301 87 C253 48 209 26 179 26 C145 26 121 54 121 95 C121 147 164 190 247 224 L301 246 Z " />
<glyph glyph-name="Cacute" unicode="&#x106;" horiz-adv-x="725" d="M632 250 C622 167 579 87 528 55 C487 30 440 16 395 16 C252 16 160 137 160 325 C160 531 246 654 390 654 C467 654 541 618 580 560 C605 524 622 475 632 414 L653 414 L647 667 L626 667 C623 639 613 605 600 581 C550 641 463 679 374 679 C181 679 47 533 47 321 C47 124 180 -12 375 -12 C466 -12 541 21 600 87 C614 70 628 40 632 17 L653 17 L653 250 L632 250 Z M429 847 L328 724 L348 724 L568 847 L429 847 Z " />
<glyph glyph-name="cacute" unicode="&#x107;" horiz-adv-x="431" d="M386 98 C369 41 325 10 262 10 C218 10 179 28 157 59 C134 94 119 153 119 215 C119 336 163 396 251 396 C294 396 311 385 317 351 C324 317 334 307 359 307 C377 307 390 321 390 341 C390 382 324 419 250 419 C130 419 37 323 37 197 C37 73 123 -16 241 -16 C327 -16 385 24 408 98 L386 98 Z M203 493 L220 493 L407 657 L309 657 L203 493 Z " />
<glyph glyph-name="Ccircumflex" unicode="&#x108;" horiz-adv-x="725" d="M632 250 C622 167 579 87 528 55 C487 30 440 16 395 16 C252 16 160 137 160 325 C160 531 246 654 390 654 C467 654 541 618 580 560 C605 524 622 475 632 414 L653 414 L647 667 L626 667 C623 639 613 605 600 581 C550 641 463 679 374 679 C181 679 47 533 47 321 C47 124 180 -12 375 -12 C466 -12 541 21 600 87 C614 70 628 40 632 17 L653 17 L653 250 L632 250 Z M337 856 L213 725 L232 725 L360 802 L526 725 L545 725 L422 856 L337 856 Z " />
<glyph glyph-name="ccircumflex" unicode="&#x109;" horiz-adv-x="431" d="M386 98 C369 41 325 10 262 10 C218 10 179 28 157 59 C134 94 119 153 119 215 C119 336 163 396 251 396 C294 396 311 385 317 351 C324 317 334 307 359 307 C377 307 390 321 390 341 C390 382 324 419 250 419 C130 419 37 323 37 197 C37 73 123 -16 241 -16 C327 -16 385 24 408 98 L386 98 Z M249 596 L357 496 L377 496 L284 661 L234 661 L146 496 L165 496 L249 596 Z " />
<glyph glyph-name="Cdotaccent" unicode="&#x10a;" horiz-adv-x="725" d="M632 250 C622 167 579 87 528 55 C487 30 440 16 395 16 C252 16 160 137 160 325 C160 531 246 654 390 654 C467 654 541 618 580 560 C605 524 622 475 632 414 L653 414 L647 667 L626 667 C623 639 613 605 600 581 C550 641 463 679 374 679 C181 679 47 533 47 321 C47 124 180 -12 375 -12 C466 -12 541 21 600 87 C614 70 628 40 632 17 L653 17 L653 250 L632 250 Z M379 827 C352 827 329 805 329 778 C329 749 351 727 379 727 C407 727 429 750 429 777 C429 805 407 827 379 827 L379 827 Z " />
<glyph glyph-name="cdotaccent" unicode="&#x10b;" horiz-adv-x="431" d="M386 98 C369 41 325 10 262 10 C218 10 179 28 157 59 C134 94 119 153 119 215 C119 336 163 396 251 396 C294 396 311 385 317 351 C324 317 334 307 359 307 C377 307 390 321 390 341 C390 382 324 419 250 419 C130 419 37 323 37 197 C37 73 123 -16 241 -16 C327 -16 385 24 408 98 L386 98 Z M250 622 C227 622 209 604 209 582 C209 559 227 541 250 541 C272 541 290 559 290 582 C290 604 272 622 250 622 L250 622 Z " />
<glyph glyph-name="Ccaron" unicode="&#x10c;" horiz-adv-x="725" d="M632 250 C622 167 579 87 528 55 C487 30 440 16 395 16 C252 16 160 137 160 325 C160 531 246 654 390 654 C467 654 541 618 580 560 C605 524 622 475 632 414 L653 414 L647 667 L626 667 C623 639 613 605 600 581 C550 641 463 679 374 679 C181 679 47 533 47 321 C47 124 180 -12 375 -12 C466 -12 541 21 600 87 C614 70 628 40 632 17 L653 17 L653 250 L632 250 Z M425 725 L549 856 L531 856 L403 779 L237 856 L217 856 L340 725 L425 725 Z " />
<glyph glyph-name="ccaron" unicode="&#x10d;" horiz-adv-x="431" d="M386 98 C369 41 325 10 262 10 C218 10 179 28 157 59 C134 94 119 153 119 215 C119 336 163 396 251 396 C294 396 311 385 317 351 C324 317 334 307 359 307 C377 307 390 321 390 341 C390 382 324 419 250 419 C130 419 37 323 37 197 C37 73 123 -16 241 -16 C327 -16 385 24 408 98 L386 98 Z M262 557 L154 657 L134 657 L227 492 L276 492 L365 657 L345 657 L262 557 Z " />
<glyph glyph-name="Dcaron" unicode="&#x10e;" horiz-adv-x="770" d="M33 639 L52 639 C137 641 144 631 142 495 L142 173 C144 36 136 23 57 23 L30 23 L30 0 L325 0 C450 0 482 4 544 29 C660 76 723 182 723 328 C723 461 669 564 569 623 C509 658 432 674 322 674 C286 674 246 673 170 669 C106 665 75 664 33 662 L33 639 Z M238 648 C268 649 291 650 320 650 C409 650 459 637 507 600 C577 548 616 447 616 320 C616 211 586 127 530 77 C485 37 435 23 343 23 C282 23 262 28 251 48 C239 68 238 80 238 202 L238 648 Z M404 725 L528 856 L509 856 L381 779 L215 856 L196 856 L319 725 L404 725 Z " />
<glyph glyph-name="dcaron" unicode="&#x10f;" horiz-adv-x="619" d="M379 360 C339 397 285 419 233 419 C121 419 37 325 37 199 C37 79 122 -16 229 -16 C284 -16 333 7 384 57 C383 52 383 47 383 46 C383 22 385 3 389 -16 C426 -9 480 -4 516 -3 L516 19 L510 19 C451 21 448 26 450 135 L450 677 L440 677 C401 665 345 656 309 656 L309 633 L319 633 C378 631 381 626 379 518 L379 360 Z M379 84 C344 38 299 13 251 13 C169 13 119 85 119 203 C119 322 165 388 248 388 C293 388 332 371 379 331 L379 84 Z M509 465 C574 479 613 525 613 585 C613 639 583 677 541 677 C512 677 492 658 492 629 C492 603 512 585 539 585 C543 585 546 585 549 586 C561 590 561 590 565 590 C576 590 582 581 582 565 C582 529 554 499 509 487 L509 465 Z " />
<glyph glyph-name="Dcroat" unicode="&#x110;" horiz-adv-x="771" d="M144 317 L144 173 C145 36 138 23 59 23 L31 23 L31 0 L327 0 C452 0 484 4 546 29 C661 76 725 182 725 328 C725 461 671 564 570 623 C511 658 434 674 327 674 C277 674 266 674 64 663 L34 662 L34 639 L54 639 C139 641 145 631 144 495 L144 344 L30 344 L30 317 L144 317 Z M240 317 L409 317 L409 344 L240 344 L240 648 C268 649 289 650 322 650 C410 650 460 637 508 600 C578 548 618 447 618 319 C618 211 588 127 531 77 C487 37 437 23 345 23 C284 23 264 28 252 48 C241 68 240 80 240 202 L240 317 Z " />
<glyph glyph-name="dcroat" unicode="&#x111;" horiz-adv-x="525" d="M379 518 L379 360 C338 397 285 419 233 419 C120 419 37 325 37 199 C37 79 122 -16 229 -16 C284 -16 333 7 384 57 C383 52 383 47 383 46 C383 22 385 3 389 -16 C428 -9 477 -4 516 -3 L516 19 L510 19 C451 21 448 26 450 135 L450 518 L516 518 L516 541 L450 541 L450 677 L440 677 C400 665 345 656 309 656 L309 633 L319 633 C374 632 380 622 379 541 L186 541 L186 518 L379 518 Z M379 84 C344 38 299 13 251 13 C169 13 119 85 119 203 C119 322 165 388 248 388 C293 388 332 371 379 331 L379 84 Z " />
<glyph glyph-name="Emacron" unicode="&#x112;" horiz-adv-x="626" d="M573 207 C538 73 480 19 373 23 L323 23 C231 22 226 30 226 183 L226 340 L299 340 C380 342 395 327 397 244 L397 235 L420 235 L420 464 L397 464 L397 456 C398 379 381 364 297 364 L226 364 L226 644 L318 644 C450 648 485 622 513 500 L536 500 L520 667 L44 667 L44 644 L52 644 C125 644 132 631 130 500 L130 173 C132 36 124 24 44 23 L30 23 L30 0 L582 0 L596 207 L573 207 Z M152 792 L152 764 L470 764 L470 792 L152 792 Z " />
<glyph glyph-name="emacron" unicode="&#x113;" horiz-adv-x="438" d="M401 266 C398 354 326 419 233 419 C121 419 37 325 37 198 C37 76 123 -16 237 -16 C315 -16 380 26 401 90 L378 90 C354 38 309 10 251 10 C209 10 174 29 151 63 C131 94 119 150 119 217 C119 230 119 241 121 266 L401 266 Z M123 286 C128 322 133 337 144 353 C164 381 195 398 230 398 C282 398 317 361 317 307 C317 300 317 295 315 286 L123 286 Z M98 565 L366 565 L366 588 L98 588 L98 565 Z " />
<glyph glyph-name="Ebreve" unicode="&#x114;" horiz-adv-x="626" d="M573 207 C538 73 480 19 373 23 L323 23 C231 22 226 30 226 183 L226 340 L299 340 C380 342 395 327 397 244 L397 235 L420 235 L420 464 L397 464 L397 456 C398 379 381 364 297 364 L226 364 L226 644 L318 644 C450 648 485 622 513 500 L536 500 L520 667 L44 667 L44 644 L52 644 C125 644 132 631 130 500 L130 173 C132 36 124 24 44 23 L30 23 L30 0 L582 0 L596 207 L573 207 Z M168 868 C185 774 242 717 319 717 C399 717 465 780 476 868 L463 868 C436 823 379 794 321 794 C263 794 219 817 181 868 L168 868 Z " />
<glyph glyph-name="ebreve" unicode="&#x115;" horiz-adv-x="438" d="M401 266 C398 354 326 419 233 419 C121 419 37 325 37 198 C37 76 123 -16 237 -16 C315 -16 380 26 401 90 L378 90 C354 38 309 10 251 10 C209 10 174 29 151 63 C131 94 119 150 119 217 C119 230 119 241 121 266 L401 266 Z M123 286 C128 322 133 337 144 353 C164 381 195 398 230 398 C282 398 317 361 317 307 C317 300 317 295 315 286 L123 286 Z M109 651 C118 564 167 510 236 510 C304 510 355 565 363 651 L347 651 C328 602 295 580 239 580 C175 580 139 602 124 651 L109 651 Z " />
<glyph glyph-name="Edotaccent" unicode="&#x116;" horiz-adv-x="626" d="M573 207 C538 73 480 19 373 23 L323 23 C231 22 226 30 226 183 L226 340 L299 340 C380 342 395 327 397 244 L397 235 L420 235 L420 464 L397 464 L397 456 C398 379 381 364 297 364 L226 364 L226 644 L318 644 C450 648 485 622 513 500 L536 500 L520 667 L44 667 L44 644 L52 644 C125 644 132 631 130 500 L130 173 C132 36 124 24 44 23 L30 23 L30 0 L582 0 L596 207 L573 207 Z M317 827 C290 827 267 805 267 778 C267 749 289 727 317 727 C345 727 367 750 367 777 C367 805 345 827 317 827 L317 827 Z " />
<glyph glyph-name="edotaccent" unicode="&#x117;" horiz-adv-x="438" d="M401 266 C398 354 326 419 233 419 C121 419 37 325 37 198 C37 76 123 -16 237 -16 C315 -16 380 26 401 90 L378 90 C354 38 309 10 251 10 C209 10 174 29 151 63 C131 94 119 150 119 217 C119 230 119 241 121 266 L401 266 Z M123 286 C128 322 133 337 144 353 C164 381 195 398 230 398 C282 398 317 361 317 307 C317 300 317 295 315 286 L123 286 Z M241 622 C218 622 200 604 200 582 C200 559 218 541 241 541 C263 541 281 559 281 582 C281 604 263 622 241 622 L241 622 Z " />
<glyph glyph-name="Eogonek" unicode="&#x118;" horiz-adv-x="626" d="M582 0 L596 207 L573 207 C538 73 480 19 373 23 L323 23 C231 22 226 30 226 183 L226 340 L299 340 C380 342 395 327 397 244 L397 235 L420 235 L420 464 L397 464 L397 456 C398 379 381 364 297 364 L226 364 L226 644 L318 644 C450 648 485 622 513 500 L536 500 L520 667 L44 667 L44 644 L52 644 C125 644 132 631 130 500 L130 173 C132 36 124 24 44 23 L30 23 L30 0 L460 0 C414 -23 384 -63 384 -102 C384 -149 426 -184 483 -184 C516 -184 543 -175 579 -151 L568 -135 C547 -143 536 -145 521 -145 C483 -145 454 -118 454 -81 C454 -51 468 -25 497 0 L582 0 Z " />
<glyph glyph-name="eogonek" unicode="&#x119;" horiz-adv-x="438" d="M378 90 C354 38 309 10 251 10 C209 10 174 29 151 63 C131 94 119 150 119 217 C119 230 119 241 121 266 L401 266 C398 354 326 419 233 419 C121 419 37 325 37 198 C37 76 123 -16 237 -16 C250 -16 260 -15 273 -13 C246 -34 230 -65 230 -93 C230 -136 265 -168 312 -168 C340 -168 362 -160 392 -138 L384 -124 C366 -130 357 -132 344 -132 C312 -132 288 -107 288 -73 C288 -43 300 -20 333 8 C367 28 391 56 401 90 L378 90 Z M123 286 C128 322 133 337 144 353 C164 381 195 398 230 398 C282 398 317 361 317 307 C317 300 317 295 315 286 L123 286 Z " />
<glyph glyph-name="Ecaron" unicode="&#x11a;" horiz-adv-x="626" d="M573 207 C538 73 480 19 373 23 L323 23 C231 22 226 30 226 183 L226 340 L299 340 C380 342 395 327 397 244 L397 235 L420 235 L420 464 L397 464 L397 456 C398 379 381 364 297 364 L226 364 L226 644 L318 644 C450 648 485 622 513 500 L536 500 L520 667 L44 667 L44 644 L52 644 C125 644 132 631 130 500 L130 173 C132 36 124 24 44 23 L30 23 L30 0 L582 0 L596 207 L573 207 Z M359 725 L483 856 L465 856 L336 779 L171 856 L151 856 L274 725 L359 725 Z " />
<glyph glyph-name="ecaron" unicode="&#x11b;" horiz-adv-x="438" d="M401 266 C398 354 326 419 233 419 C121 419 37 325 37 198 C37 76 123 -16 237 -16 C315 -16 380 26 401 90 L378 90 C354 38 309 10 251 10 C209 10 174 29 151 63 C131 94 119 150 119 217 C119 230 119 241 121 266 L401 266 Z M123 286 C128 322 133 337 144 353 C164 381 195 398 230 398 C282 398 317 361 317 307 C317 300 317 295 315 286 L123 286 Z M248 557 L140 657 L120 657 L213 492 L262 492 L351 657 L332 657 L248 557 Z " />
<glyph glyph-name="Gcircumflex" unicode="&#x11c;" horiz-adv-x="770" d="M460 285 L460 261 L476 261 C543 264 558 249 559 178 L559 152 C559 104 544 71 510 47 C478 24 437 12 394 12 C333 12 270 39 232 80 C183 133 159 218 159 337 C159 446 178 523 217 572 C259 625 324 656 394 656 C516 656 606 569 626 432 L649 432 L649 655 L626 655 C623 629 614 600 605 581 C546 648 474 680 384 680 C290 680 209 647 149 586 C87 521 47 418 47 321 C47 129 188 -12 380 -12 C435 -12 471 -5 535 20 C576 35 609 43 634 43 C641 43 646 43 655 41 L655 112 C653 248 661 261 740 261 L747 261 L747 285 L460 285 Z M355 856 L231 725 L250 725 L378 802 L544 725 L563 725 L440 856 L355 856 Z " />
<glyph glyph-name="gcircumflex" unicode="&#x11d;" horiz-adv-x="472" d="M345 368 C314 400 266 419 214 419 C123 419 50 354 50 272 C50 215 82 166 144 129 C86 119 54 90 54 48 C54 -5 100 -27 222 -32 C291 -35 310 -38 336 -49 C369 -63 386 -89 386 -125 C386 -188 327 -228 234 -228 C135 -228 72 -189 72 -128 C72 -103 81 -82 103 -57 C97 -55 94 -55 89 -55 C52 -55 28 -81 28 -123 C28 -197 110 -248 231 -248 C358 -248 436 -193 436 -103 C436 -59 415 -20 381 3 C351 22 309 31 231 35 C158 39 147 40 131 44 C105 50 94 58 94 73 C94 100 126 113 198 116 C249 117 275 123 305 139 C354 164 383 213 383 270 C383 300 374 328 357 355 C372 371 387 380 399 380 C409 380 412 377 422 362 C429 349 439 342 450 342 C466 342 479 356 479 374 C479 397 458 415 429 415 C401 415 372 399 345 368 L345 368 Z M214 396 C246 396 276 378 292 349 C302 331 307 304 307 267 C307 184 274 138 216 138 C156 138 124 182 124 264 C124 349 156 396 214 396 L214 396 Z M212 596 L320 496 L339 496 L247 661 L197 661 L108 496 L128 496 L212 596 Z " />
<glyph glyph-name="Gbreve" unicode="&#x11e;" horiz-adv-x="770" d="M460 285 L460 261 L476 261 C543 264 558 249 559 178 L559 152 C559 104 544 71 510 47 C478 24 437 12 394 12 C333 12 270 39 232 80 C183 133 159 218 159 337 C159 446 178 523 217 572 C259 625 324 656 394 656 C516 656 606 569 626 432 L649 432 L649 655 L626 655 C623 629 614 600 605 581 C546 648 474 680 384 680 C290 680 209 647 149 586 C87 521 47 418 47 321 C47 129 188 -12 380 -12 C435 -12 471 -5 535 20 C576 35 609 43 634 43 C641 43 646 43 655 41 L655 112 C653 248 661 261 740 261 L747 261 L747 285 L460 285 Z M244 868 C261 774 318 717 394 717 C475 717 541 780 552 868 L539 868 C511 823 454 794 397 794 C339 794 295 817 257 868 L244 868 Z " />
<glyph glyph-name="gbreve" unicode="&#x11f;" horiz-adv-x="472" d="M345 368 C314 400 266 419 214 419 C123 419 50 354 50 272 C50 215 82 166 144 129 C86 119 54 90 54 48 C54 -5 100 -27 222 -32 C291 -35 310 -38 336 -49 C369 -63 386 -89 386 -125 C386 -188 327 -228 234 -228 C135 -228 72 -189 72 -128 C72 -103 81 -82 103 -57 C97 -55 94 -55 89 -55 C52 -55 28 -81 28 -123 C28 -197 110 -248 231 -248 C358 -248 436 -193 436 -103 C436 -59 415 -20 381 3 C351 22 309 31 231 35 C158 39 147 40 131 44 C105 50 94 58 94 73 C94 100 126 113 198 116 C249 117 275 123 305 139 C354 164 383 213 383 270 C383 300 374 328 357 355 C372 371 387 380 399 380 C409 380 412 377 422 362 C429 349 439 342 450 342 C466 342 479 356 479 374 C479 397 458 415 429 415 C401 415 372 399 345 368 L345 368 Z M214 396 C246 396 276 378 292 349 C302 331 307 304 307 267 C307 184 274 138 216 138 C156 138 124 182 124 264 C124 349 156 396 214 396 L214 396 Z M96 651 C106 564 155 510 224 510 C292 510 343 565 351 651 L335 651 C316 602 283 580 227 580 C163 580 127 602 112 651 L96 651 Z " />
<glyph glyph-name="Gdotaccent" unicode="&#x120;" horiz-adv-x="770" d="M460 285 L460 261 L476 261 C543 264 558 249 559 178 L559 152 C559 104 544 71 510 47 C478 24 437 12 394 12 C333 12 270 39 232 80 C183 133 159 218 159 337 C159 446 178 523 217 572 C259 625 324 656 394 656 C516 656 606 569 626 432 L649 432 L649 655 L626 655 C623 629 614 600 605 581 C546 648 474 680 384 680 C290 680 209 647 149 586 C87 521 47 418 47 321 C47 129 188 -12 380 -12 C435 -12 471 -5 535 20 C576 35 609 43 634 43 C641 43 646 43 655 41 L655 112 C653 248 661 261 740 261 L747 261 L747 285 L460 285 Z M391 827 C364 827 341 805 341 778 C341 749 363 727 391 727 C419 727 441 750 441 777 C441 805 419 827 391 827 L391 827 Z " />
<glyph glyph-name="gdotaccent" unicode="&#x121;" horiz-adv-x="472" d="M345 368 C314 400 266 419 214 419 C123 419 50 354 50 272 C50 215 82 166 144 129 C86 119 54 90 54 48 C54 -5 100 -27 222 -32 C291 -35 310 -38 336 -49 C369 -63 386 -89 386 -125 C386 -188 327 -228 234 -228 C135 -228 72 -189 72 -128 C72 -103 81 -82 103 -57 C97 -55 94 -55 89 -55 C52 -55 28 -81 28 -123 C28 -197 110 -248 231 -248 C358 -248 436 -193 436 -103 C436 -59 415 -20 381 3 C351 22 309 31 231 35 C158 39 147 40 131 44 C105 50 94 58 94 73 C94 100 126 113 198 116 C249 117 275 123 305 139 C354 164 383 213 383 270 C383 300 374 328 357 355 C372 371 387 380 399 380 C409 380 412 377 422 362 C429 349 439 342 450 342 C466 342 479 356 479 374 C479 397 458 415 429 415 C401 415 372 399 345 368 L345 368 Z M214 396 C246 396 276 378 292 349 C302 331 307 304 307 267 C307 184 274 138 216 138 C156 138 124 182 124 264 C124 349 156 396 214 396 L214 396 Z M229 622 C206 622 188 604 188 582 C188 559 206 541 229 541 C251 541 269 559 269 582 C269 604 251 622 229 622 L229 622 Z " />
<glyph glyph-name="Gcommaaccent" unicode="&#x122;" horiz-adv-x="770" d="M460 285 L460 261 L476 261 C543 264 558 249 559 178 L559 152 C559 104 544 71 510 47 C478 24 437 12 394 12 C333 12 270 39 232 80 C183 133 159 218 159 337 C159 446 178 523 217 572 C259 625 324 656 394 656 C516 656 606 569 626 432 L649 432 L649 655 L626 655 C623 629 614 600 605 581 C546 648 474 680 384 680 C290 680 209 647 149 586 C87 521 47 418 47 321 C47 129 188 -12 380 -12 C435 -12 471 -5 535 20 C576 35 609 43 634 43 C641 43 646 43 655 41 L655 112 C653 248 661 261 740 261 L747 261 L747 285 L460 285 Z M335 -286 C403 -271 445 -222 445 -157 C445 -100 413 -59 369 -59 C338 -59 317 -79 317 -110 C317 -138 338 -157 367 -157 C371 -157 374 -157 377 -156 C390 -152 390 -152 394 -152 C405 -152 412 -162 412 -179 C412 -218 382 -249 335 -262 L335 -286 Z " />
<glyph glyph-name="gcommaaccent" unicode="&#x123;" horiz-adv-x="472" d="M345 368 C314 400 266 419 214 419 C123 419 50 354 50 272 C50 215 82 166 144 129 C86 119 54 90 54 48 C54 -5 100 -27 222 -32 C291 -35 310 -38 336 -49 C369 -63 386 -89 386 -125 C386 -188 327 -228 234 -228 C135 -228 72 -189 72 -128 C72 -103 81 -82 103 -57 C97 -55 94 -55 89 -55 C52 -55 28 -81 28 -123 C28 -197 110 -248 231 -248 C358 -248 436 -193 436 -103 C436 -59 415 -20 381 3 C351 22 309 31 231 35 C158 39 147 40 131 44 C105 50 94 58 94 73 C94 100 126 113 198 116 C249 117 275 123 305 139 C354 164 383 213 383 270 C383 300 374 328 357 355 C372 371 387 380 399 380 C409 380 412 377 422 362 C429 349 439 342 450 342 C466 342 479 356 479 374 C479 397 458 415 429 415 C401 415 372 399 345 368 L345 368 Z M214 396 C246 396 276 378 292 349 C302 331 307 304 307 267 C307 184 274 138 216 138 C156 138 124 182 124 264 C124 349 156 396 214 396 L214 396 Z M268 674 C203 660 164 614 164 554 C164 500 194 462 236 462 C265 462 285 481 285 510 C285 536 266 554 238 554 C234 554 231 554 228 553 C216 549 216 549 212 549 C201 549 195 558 195 574 C195 610 223 640 268 652 L268 674 Z " />
<glyph glyph-name="Hcircumflex" unicode="&#x124;" horiz-adv-x="802" d="M577 334 L577 173 C578 36 571 23 492 23 L469 23 L469 0 L773 0 L773 23 L758 23 C679 23 672 36 673 173 L673 500 C671 636 678 646 763 644 L773 644 L773 667 L469 667 L469 644 L487 644 C572 646 579 636 577 500 L577 368 L228 368 L228 500 C227 636 233 646 318 644 L330 644 L330 667 L30 667 L30 644 L42 644 C127 646 134 636 132 500 L132 173 C134 36 126 23 47 23 L30 23 L30 0 L330 0 L330 23 L313 23 C234 23 227 36 228 173 L228 334 L577 334 Z M359 856 L235 725 L254 725 L382 802 L548 725 L567 725 L444 856 L359 856 Z " />
<glyph glyph-name="hcircumflex" unicode="&#x125;" horiz-adv-x="535" d="M95 831 L203 731 L223 731 L130 896 L81 896 L-8 731 L11 731 L95 831 Z M165 677 L155 677 C137 667 60 655 27 656 L27 633 L34 633 C85 633 96 616 94 540 L94 138 L94 107 C94 90 94 80 93 75 C93 56 92 50 87 42 C78 28 64 22 34 23 L24 23 L24 0 L228 0 L228 23 L225 23 C166 24 163 30 165 138 L165 300 C194 357 238 389 286 389 C318 389 344 377 359 355 C370 338 374 316 374 259 L374 138 C375 29 373 25 314 23 L305 23 L305 0 L513 0 L513 23 L505 23 C446 24 443 30 445 138 L445 249 C445 316 441 343 427 365 C405 400 362 419 310 419 C253 419 206 392 165 337 L165 677 Z " />
<glyph glyph-name="Hbar" unicode="&#x126;" horiz-adv-x="802" d="M132 442 L132 173 C134 36 126 23 47 23 L30 23 L30 0 L330 0 L330 23 L313 23 C234 23 227 36 228 173 L228 334 L577 334 L577 173 C578 36 571 23 492 23 L469 23 L469 0 L773 0 L773 23 L758 23 C679 23 672 36 673 173 L673 442 L773 442 L773 470 L673 470 L673 501 C671 636 678 646 763 644 L773 644 L773 667 L469 667 L469 644 L487 644 C572 646 579 636 577 501 L577 470 L228 470 L228 501 C227 636 233 646 318 644 L330 644 L330 667 L30 667 L30 644 L42 644 C127 646 134 636 132 501 L132 470 L30 470 L30 442 L132 442 Z M228 442 L577 442 L577 368 L228 368 L228 442 Z " />
<glyph glyph-name="hbar" unicode="&#x127;" horiz-adv-x="535" d="M94 518 L94 138 C95 29 93 24 34 23 L24 23 L24 0 L229 0 L229 23 L225 23 C166 24 163 30 165 138 L165 300 C194 357 238 389 287 389 C319 389 345 377 360 355 C371 338 375 315 375 259 L375 138 C376 29 374 24 315 23 L306 23 L306 0 L514 0 L514 23 L506 23 C447 24 444 30 446 138 L446 249 C446 316 442 343 428 366 C406 400 364 419 311 419 C253 419 206 393 165 337 L165 518 L314 518 L314 541 L165 541 L165 677 L155 677 C136 667 59 655 27 656 L27 633 L34 633 C85 632 95 616 94 541 L27 541 L27 518 L94 518 Z " />
<glyph glyph-name="Itilde" unicode="&#x128;" horiz-adv-x="535" d="M165 677 L155 677 C137 667 60 655 27 656 L27 633 L34 633 C85 633 96 616 94 540 L94 138 L94 107 C94 90 94 80 93 75 C93 56 92 50 87 42 C78 28 64 22 34 23 L24 23 L24 0 L229 0 L229 23 L225 23 C166 24 163 30 165 138 L165 300 C194 357 238 389 287 389 C319 389 345 377 360 355 C371 338 375 315 375 259 L375 138 C376 29 374 24 315 23 L306 23 L306 0 L514 0 L514 23 L506 23 C447 24 444 30 446 138 L446 249 C446 316 442 343 428 365 C406 400 363 419 311 419 C253 419 206 393 165 337 L165 677 Z M-17 724 C-10 765 4 782 33 782 C50 782 67 776 116 753 C158 733 182 725 206 725 C258 725 294 772 295 840 L280 840 C276 803 258 780 232 780 C219 780 202 785 182 794 C104 830 82 838 59 838 C8 838 -31 789 -31 724 L-17 724 Z " />
<glyph glyph-name="itilde" unicode="&#x129;" horiz-adv-x="252" d="M-41 481 C-34 522 -20 539 9 539 C26 539 43 533 92 510 C134 490 158 482 182 482 C234 482 270 529 271 597 L256 597 C252 560 234 537 208 537 C195 537 178 542 158 551 C80 587 58 595 35 595 C-16 595 -55 546 -55 481 L-41 481 Z M163 419 L152 419 C133 411 60 397 16 393 L16 370 L29 370 C87 371 92 363 92 260 L92 138 L92 107 C92 90 92 80 91 75 C91 56 90 50 85 42 C76 27 62 22 32 23 L16 23 L16 0 L233 0 L233 23 L223 23 C164 24 161 30 163 138 L163 419 Z " />
<glyph glyph-name="Imacron" unicode="&#x12a;" horiz-adv-x="365" d="M30 644 L44 644 C129 646 136 636 134 501 L134 173 C136 36 128 23 49 23 L30 23 L30 0 L334 0 L334 23 L315 23 C236 23 229 36 230 173 L230 501 C228 636 235 646 320 644 L334 644 L334 667 L30 667 L30 644 Z M23 792 L23 764 L341 764 L341 792 L23 792 Z " />
<glyph glyph-name="imacron" unicode="&#x12b;" horiz-adv-x="252" d="M163 419 L152 419 C133 411 60 397 16 393 L16 370 L29 370 C87 371 92 363 92 260 L92 138 L92 107 C92 90 92 80 91 75 C91 56 90 50 85 42 C76 27 62 22 32 23 L16 23 L16 0 L233 0 L233 23 L223 23 C164 24 161 30 163 138 L163 419 Z M-10 565 L235 565 L235 588 L-10 588 L-10 565 Z " />
<glyph glyph-name="Ibreve" unicode="&#x12c;" horiz-adv-x="365" d="M30 644 L44 644 C129 646 136 636 134 501 L134 173 C136 36 128 23 49 23 L30 23 L30 0 L334 0 L334 23 L315 23 C236 23 229 36 230 173 L230 501 C228 636 235 646 320 644 L334 644 L334 667 L30 667 L30 644 Z M44 868 C61 774 118 717 194 717 C275 717 341 780 352 868 L339 868 C311 823 255 794 197 794 C139 794 95 817 57 868 L44 868 Z " />
<glyph glyph-name="ibreve" unicode="&#x12d;" horiz-adv-x="252" d="M162 419 L151 419 C132 411 59 397 15 393 L15 370 L28 370 C86 371 91 363 91 260 L91 138 L91 107 C91 90 91 80 90 75 C90 56 89 50 84 42 C75 27 61 22 31 23 L15 23 L15 0 L232 0 L232 23 L222 23 C163 24 160 30 162 138 L162 419 Z M-4 651 C5 564 54 510 123 510 C192 510 242 565 251 651 L235 651 C216 602 182 580 126 580 C62 580 27 602 12 651 L-4 651 Z " />
<glyph glyph-name="Iogonek" unicode="&#x12e;" horiz-adv-x="365" d="M334 0 L334 23 L315 23 C236 23 229 36 230 173 L230 501 C228 636 235 646 320 644 L334 644 L334 667 L30 667 L30 644 L44 644 C129 646 136 636 134 501 L134 173 C136 36 128 23 49 23 L30 23 L30 0 L222 0 C176 -23 146 -63 146 -102 C146 -149 188 -184 244 -184 C278 -184 305 -175 340 -151 L330 -135 C309 -143 298 -145 283 -145 C245 -145 216 -118 216 -81 C216 -51 230 -25 259 0 L334 0 Z " />
<glyph glyph-name="iogonek" unicode="&#x12f;" horiz-adv-x="252" d="M233 0 L233 23 L223 23 C164 24 161 30 163 138 L163 419 L152 419 C133 411 61 397 16 393 L16 370 L29 370 C87 371 92 363 92 260 L92 138 L92 107 C92 90 92 80 91 75 C91 56 90 50 85 42 C76 27 62 22 32 23 L16 23 L16 0 L140 0 C102 -21 78 -57 78 -93 C78 -136 113 -168 161 -168 C189 -168 211 -160 241 -138 L233 -124 C214 -130 205 -132 193 -132 C160 -132 136 -107 136 -73 C136 -47 148 -22 172 0 L233 0 Z M119 677 C91 677 68 654 68 626 C68 596 91 573 119 573 C147 573 170 596 170 625 C170 654 147 677 119 677 L119 677 Z " />
<glyph glyph-name="Idotaccent" unicode="&#x130;" horiz-adv-x="365" d="M30 644 L44 644 C129 646 136 636 134 501 L134 173 C136 36 128 23 49 23 L30 23 L30 0 L334 0 L334 23 L315 23 C236 23 229 36 230 173 L230 501 C228 636 235 646 320 644 L334 644 L334 667 L30 667 L30 644 Z M189 827 C162 827 139 805 139 778 C139 749 161 727 189 727 C217 727 239 750 239 777 C239 805 217 827 189 827 L189 827 Z " />
<glyph glyph-name="dotlessi" unicode="&#x131;" horiz-adv-x="252" d="M163 419 L152 419 C133 411 61 397 16 393 L16 370 L29 370 C87 371 92 363 92 260 L92 138 L92 107 C92 90 92 80 91 75 C91 56 90 50 85 42 C76 27 62 22 32 23 L16 23 L16 0 L233 0 L233 23 L223 23 C164 24 161 30 163 138 L163 419 Z " />
<glyph glyph-name="IJ" unicode="&#x132;" horiz-adv-x="708" d="M30 644 L44 644 C129 646 136 636 134 501 L134 173 C136 36 128 23 49 23 L30 23 L30 0 L334 0 L334 23 L315 23 C236 23 229 36 230 173 L230 501 C228 636 235 646 320 644 L334 644 L334 667 L30 667 L30 644 Z M375 667 L375 644 L391 644 C476 646 483 636 481 501 L481 65 C481 -55 479 -79 468 -113 C447 -177 396 -215 332 -215 C293 -215 267 -202 267 -181 C267 -176 268 -174 273 -164 C277 -155 279 -146 279 -138 C279 -110 257 -89 228 -89 C200 -89 178 -113 178 -143 C178 -199 242 -238 334 -238 C445 -238 527 -190 560 -105 C576 -65 579 -40 579 65 L579 501 C577 636 584 646 669 644 L685 644 L685 667 L375 667 Z " />
<glyph glyph-name="ij" unicode="&#x133;" horiz-adv-x="456" d="M119 677 C91 677 68 654 68 626 C68 596 91 573 119 573 C147 573 170 596 170 625 C170 654 147 677 119 677 L119 677 Z M163 419 L152 419 C133 411 61 397 16 393 L16 370 L29 370 C87 371 92 363 92 260 L92 138 L92 107 C92 90 92 80 91 75 C91 56 90 50 85 42 C76 27 62 22 32 23 L16 23 L16 0 L233 0 L233 23 L223 23 C164 24 161 30 163 138 L163 419 Z M387 419 L376 419 C357 411 285 397 241 393 L241 370 L254 370 C311 371 316 362 316 261 L316 -50 C316 -122 314 -144 307 -166 C295 -203 264 -226 227 -226 C204 -226 186 -214 177 -192 C164 -162 155 -154 138 -154 C120 -154 107 -168 107 -187 C107 -222 152 -248 213 -248 C302 -248 362 -200 381 -114 C386 -89 387 -79 387 -14 L387 419 Z M341 677 C313 677 290 654 290 626 C290 596 313 573 341 573 C369 573 392 596 392 625 C392 654 369 677 341 677 L341 677 Z " />
<glyph glyph-name="Jcircumflex" unicode="&#x134;" horiz-adv-x="369" d="M35 667 L35 644 L51 644 C136 646 143 636 141 501 L141 65 C141 -55 139 -79 128 -113 C107 -177 56 -215 -8 -215 C-47 -215 -73 -202 -73 -181 C-73 -176 -72 -174 -67 -164 C-63 -155 -61 -146 -61 -138 C-61 -110 -83 -89 -112 -89 C-140 -89 -162 -113 -162 -143 C-162 -199 -98 -238 -6 -238 C105 -238 187 -190 220 -105 C236 -65 239 -40 239 65 L239 501 C237 636 244 646 329 644 L345 644 L345 667 L35 667 Z M150 856 L25 725 L44 725 L172 802 L338 725 L357 725 L234 856 L150 856 Z " />
<glyph glyph-name="jcircumflex" unicode="&#x135;" horiz-adv-x="238" d="M83 646 L-41 515 L-22 515 L106 592 L272 515 L291 515 L168 646 L83 646 Z M170 419 L159 419 C140 411 68 397 24 393 L24 370 L37 370 C94 371 99 362 99 261 L99 -50 C99 -122 97 -144 90 -166 C78 -203 47 -226 10 -226 C-13 -226 -31 -214 -40 -192 C-53 -162 -62 -154 -79 -154 C-97 -154 -110 -168 -110 -187 C-110 -222 -65 -248 -4 -248 C85 -248 145 -200 164 -114 C169 -89 170 -79 170 -14 L170 419 Z " />
<glyph glyph-name="Kcommaaccent" unicode="&#x136;" horiz-adv-x="747" d="M231 327 L231 501 C229 636 235 646 321 644 L333 644 L333 667 L38 667 L38 644 L45 644 C130 646 136 636 135 501 L135 173 C136 36 129 23 50 23 L29 23 L29 0 L328 0 L328 23 L315 23 C236 23 229 36 231 173 L231 295 L278 337 L467 147 C519 94 538 71 538 55 C538 31 516 23 454 23 L441 23 L441 0 L787 0 L787 23 L780 23 C713 30 710 32 597 146 L348 399 L469 511 C576 614 615 639 679 644 L685 644 L685 667 L434 667 L434 644 L439 644 C482 643 505 629 505 602 C505 581 488 559 434 511 L231 327 Z M314 -286 C383 -270 425 -222 425 -157 C425 -100 393 -59 348 -59 C317 -59 296 -79 296 -110 C296 -138 316 -157 346 -157 C350 -157 354 -157 356 -156 C369 -152 369 -152 374 -152 C385 -152 392 -162 392 -179 C392 -218 362 -249 314 -262 L314 -286 Z " />
<glyph glyph-name="kcommaaccent" unicode="&#x137;" horiz-adv-x="461" d="M266 403 L266 380 L274 380 C294 380 304 373 304 358 C304 348 299 338 286 324 C275 312 225 269 201 253 L159 223 L159 677 L148 677 C132 668 54 655 23 656 L23 633 L30 633 C79 633 90 616 88 542 L88 138 L88 107 C88 90 88 80 87 75 C87 56 85 50 81 42 C72 28 58 22 28 23 L13 23 L13 0 L218 0 L218 23 L215 23 C160 25 157 31 159 138 L159 196 L180 212 L283 92 C312 58 316 53 316 44 C316 30 301 24 271 23 L266 23 L266 0 L467 0 L467 23 L462 23 C433 27 415 40 377 85 L234 253 L265 277 C271 282 294 302 308 314 C357 358 390 377 424 380 L428 380 L428 403 L266 403 Z M186 -271 C251 -257 290 -211 290 -150 C290 -97 260 -59 219 -59 C190 -59 170 -78 170 -107 C170 -133 189 -151 217 -151 C220 -151 224 -151 226 -150 C238 -146 238 -146 242 -146 C253 -146 259 -156 259 -171 C259 -207 231 -237 186 -248 L186 -271 Z " />
<glyph glyph-name="kgreenlandic" unicode="&#x138;" horiz-adv-x="461" d="M22 380 L28 380 C86 379 89 372 88 275 L88 138 C89 29 87 24 28 23 L13 23 L13 0 L218 0 L218 23 L215 23 C160 25 157 31 159 138 L159 186 L192 212 L287 92 C310 63 316 53 316 44 C316 30 302 24 271 23 L266 23 L266 0 L467 0 L467 23 L462 23 C434 27 413 42 377 85 L246 253 L277 277 C283 282 306 302 320 314 C369 358 402 377 436 380 L440 380 L440 403 L278 403 L278 380 L286 380 C306 380 316 373 316 358 C316 338 284 305 213 253 L159 213 L159 403 L22 403 L22 380 Z " />
<glyph glyph-name="Lacute" unicode="&#x139;" horiz-adv-x="614" d="M601 197 L578 197 C539 57 495 18 381 23 L331 23 C234 24 228 32 231 152 L231 501 C229 636 235 646 320 644 L350 644 L350 667 L30 667 L30 644 L45 644 C130 646 136 636 135 501 L135 174 C136 36 129 24 50 23 L30 23 L30 0 L596 0 L601 197 Z M283 847 L182 724 L202 724 L422 847 L283 847 Z " />
<glyph glyph-name="lacute" unicode="&#x13a;" horiz-adv-x="248" d="M161 677 L151 677 C133 667 56 655 23 656 L23 633 L30 633 C82 633 92 616 90 537 L90 138 L90 107 C90 90 90 79 89 75 C89 56 88 50 83 42 C75 28 60 22 30 23 L17 23 L17 0 L233 0 L233 23 L221 23 C162 24 159 30 161 138 L161 677 Z M191 847 L90 724 L110 724 L330 847 L191 847 Z " />
<glyph glyph-name="Lcommaaccent" unicode="&#x13b;" horiz-adv-x="614" d="M601 197 L578 197 C539 57 495 18 381 23 L331 23 C234 24 228 32 231 152 L231 501 C229 636 235 646 320 644 L350 644 L350 667 L30 667 L30 644 L45 644 C130 646 136 636 135 501 L135 174 C136 36 129 24 50 23 L30 23 L30 0 L596 0 L601 197 Z M284 -286 C353 -271 395 -222 395 -157 C395 -100 362 -59 318 -59 C287 -59 266 -79 266 -110 C266 -138 286 -157 316 -157 C320 -157 324 -157 326 -156 C339 -152 339 -152 343 -152 C355 -152 362 -162 362 -179 C362 -218 332 -249 284 -262 L284 -286 Z " />
<glyph glyph-name="lcommaaccent" unicode="&#x13c;" horiz-adv-x="248" d="M161 677 L151 677 C133 667 56 655 23 656 L23 633 L30 633 C82 633 92 616 90 537 L90 138 L90 107 C90 90 90 79 89 75 C89 56 88 50 83 42 C75 28 60 22 30 23 L17 23 L17 0 L233 0 L233 23 L221 23 C162 24 159 30 161 138 L161 677 Z M86 -271 C151 -257 190 -211 190 -150 C190 -97 160 -59 118 -59 C89 -59 69 -78 69 -107 C69 -133 88 -151 116 -151 C120 -151 123 -151 126 -150 C138 -146 138 -146 142 -146 C153 -146 159 -155 159 -171 C159 -207 131 -237 86 -248 L86 -271 Z " />
<glyph glyph-name="Lcaron" unicode="&#x13d;" horiz-adv-x="614" d="M601 197 L578 197 C539 57 495 18 381 23 L331 23 C234 24 228 32 231 152 L231 501 C229 636 235 646 320 644 L350 644 L350 667 L30 667 L30 644 L45 644 C130 646 136 636 135 501 L135 174 C136 36 129 24 50 23 L30 23 L30 0 L596 0 L601 197 Z M395 440 C465 456 507 504 507 569 C507 626 474 667 430 667 C399 667 378 647 378 616 C378 588 398 569 428 569 C432 569 436 569 438 570 C451 574 451 574 455 574 C467 574 474 564 474 547 C474 508 444 477 395 465 L395 440 Z " />
<glyph glyph-name="lcaron" unicode="&#x13e;" horiz-adv-x="316" d="M161 677 L151 677 C133 667 56 655 23 656 L23 633 L30 633 C82 633 92 616 90 537 L90 138 L90 107 C90 90 90 79 89 75 C89 56 88 50 83 42 C75 28 60 22 30 23 L17 23 L17 0 L233 0 L233 23 L221 23 C162 24 159 30 161 138 L161 677 Z M212 465 C277 479 316 525 316 585 C316 638 286 677 245 677 C216 677 196 658 196 629 C196 603 215 585 243 585 C246 585 250 585 252 586 C264 590 264 590 268 590 C279 590 285 580 285 565 C285 529 257 499 212 487 L212 465 Z " />
<glyph glyph-name="Ldot" unicode="&#x13f;" horiz-adv-x="614" d="M601 197 L578 197 C539 57 495 18 381 23 L331 23 C234 24 228 32 231 152 L231 501 C229 636 235 646 320 644 L350 644 L350 667 L30 667 L30 644 L45 644 C130 646 136 636 135 501 L135 174 C136 36 129 24 50 23 L30 23 L30 0 L596 0 L601 197 Z M372 361 C350 361 332 343 332 321 C332 298 350 280 372 280 C394 280 413 298 413 321 C413 343 395 361 372 361 L372 361 Z " />
<glyph glyph-name="ldot" unicode="&#x140;" horiz-adv-x="285" d="M161 677 L151 677 C133 667 56 655 23 656 L23 633 L30 633 C82 633 92 616 90 537 L90 138 L90 107 C90 90 90 79 89 75 C89 56 88 50 83 42 C75 28 60 22 30 23 L17 23 L17 0 L233 0 L233 23 L221 23 C162 24 159 30 161 138 L161 677 Z M245 366 C222 366 204 348 204 326 C204 303 222 285 245 285 C267 285 285 303 285 326 C285 348 267 366 245 366 L245 366 Z " />
<glyph glyph-name="Lslash" unicode="&#x141;" horiz-adv-x="614" d="M135 290 L135 174 C136 36 129 24 50 23 L30 23 L30 0 L596 0 L601 197 L578 197 C540 59 493 18 381 23 L331 23 C234 24 229 32 231 152 L231 356 L364 466 L364 501 L231 392 L231 501 C229 636 236 646 320 644 L350 644 L350 667 L30 667 L30 644 L45 644 C130 646 137 636 135 501 L135 326 L37 246 L37 210 L135 290 Z " />
<glyph glyph-name="lslash" unicode="&#x142;" horiz-adv-x="249" d="M161 354 L161 677 L151 677 C134 667 56 655 24 656 L24 633 L31 633 C82 633 92 616 90 537 L90 313 L17 258 L17 222 L90 278 L90 138 C90 101 90 79 89 75 C89 56 88 50 83 42 C75 28 60 22 31 23 L17 23 L17 0 L232 0 L232 23 L220 23 C162 24 159 30 161 138 L161 318 L232 372 L232 408 L161 354 Z " />
<glyph glyph-name="Nacute" unicode="&#x143;" horiz-adv-x="765" d="M623 -15 L644 -15 L644 537 C640 608 663 635 740 644 L748 644 L748 667 L506 667 L506 644 L519 644 C599 638 623 615 620 544 L620 145 L225 667 L28 667 L28 644 L34 644 C119 646 126 636 127 501 L127 147 C127 87 126 77 119 64 C109 43 72 27 31 23 L20 23 L20 0 L269 0 L269 23 L261 23 C183 26 150 52 152 108 L151 147 L151 610 L623 -15 Z M453 847 L351 724 L371 724 L592 847 L453 847 Z " />
<glyph glyph-name="nacute" unicode="&#x144;" horiz-adv-x="535" d="M138 419 C96 407 70 401 28 396 L28 374 L35 374 C94 372 96 367 95 258 L95 138 C96 29 94 24 35 23 L28 23 L28 0 L231 0 L231 23 L225 23 C166 24 163 30 165 138 L165 303 C204 360 246 388 294 388 C325 388 350 375 363 353 C374 335 376 326 376 268 L376 138 L375 85 L375 75 C374 56 373 50 369 42 C360 27 346 22 316 23 L306 23 L306 0 L513 0 L513 23 L506 23 C448 24 445 30 447 138 L447 264 C447 328 444 343 430 367 C410 400 370 419 320 419 C264 419 211 391 165 336 C164 362 157 406 152 419 L138 419 Z M226 493 L242 493 L430 657 L332 657 L226 493 Z " />
<glyph glyph-name="Ncommaaccent" unicode="&#x145;" horiz-adv-x="765" d="M623 -15 L644 -15 L644 537 C640 608 663 635 740 644 L748 644 L748 667 L506 667 L506 644 L519 644 C599 638 623 615 620 544 L620 145 L225 667 L28 667 L28 644 L34 644 C119 646 126 636 127 501 L127 147 C127 87 126 77 119 64 C109 43 72 27 31 23 L20 23 L20 0 L269 0 L269 23 L261 23 C183 26 150 52 152 108 L151 147 L151 610 L623 -15 Z M313 -286 C382 -270 424 -222 424 -157 C424 -100 392 -59 348 -59 C316 -59 295 -79 295 -110 C295 -138 316 -157 345 -157 C349 -157 353 -157 355 -156 C369 -152 369 -152 373 -152 C384 -152 391 -162 391 -179 C391 -218 361 -249 313 -262 L313 -286 Z " />
<glyph glyph-name="ncommaaccent" unicode="&#x146;" horiz-adv-x="535" d="M138 419 C96 407 70 401 28 396 L28 374 L35 374 C94 372 96 367 95 258 L95 138 C96 29 94 24 35 23 L28 23 L28 0 L231 0 L231 23 L225 23 C166 24 163 30 165 138 L165 303 C204 360 246 388 294 388 C325 388 350 375 363 353 C374 335 376 326 376 268 L376 138 L375 85 L375 75 C374 56 373 50 369 42 C360 27 346 22 316 23 L306 23 L306 0 L513 0 L513 23 L506 23 C448 24 445 30 447 138 L447 264 C447 328 444 343 430 367 C410 400 370 419 320 419 C264 419 211 391 165 336 C164 362 157 406 152 419 L138 419 Z M223 -271 C288 -257 327 -211 327 -150 C327 -97 297 -59 256 -59 C226 -59 207 -78 207 -107 C207 -133 226 -151 253 -151 C257 -151 260 -151 263 -150 C275 -146 275 -146 279 -146 C289 -146 296 -156 296 -171 C296 -207 268 -237 223 -248 L223 -271 Z " />
<glyph glyph-name="Ncaron" unicode="&#x147;" horiz-adv-x="765" d="M623 -15 L644 -15 L644 537 C640 608 663 635 740 644 L748 644 L748 667 L506 667 L506 644 L519 644 C599 638 623 615 620 544 L620 145 L225 667 L28 667 L28 644 L34 644 C119 646 126 636 127 501 L127 147 C127 87 126 77 119 64 C109 43 72 27 31 23 L20 23 L20 0 L269 0 L269 23 L261 23 C183 26 150 52 152 108 L151 147 L151 610 L623 -15 Z M436 725 L560 856 L542 856 L414 779 L248 856 L229 856 L351 725 L436 725 Z " />
<glyph glyph-name="ncaron" unicode="&#x148;" horiz-adv-x="535" d="M138 419 C96 407 70 401 28 396 L28 374 L35 374 C94 372 96 367 95 258 L95 138 C96 29 94 24 35 23 L28 23 L28 0 L231 0 L231 23 L225 23 C166 24 163 30 165 138 L165 303 C204 360 246 388 294 388 C325 388 350 375 363 353 C374 335 376 326 376 268 L376 138 L375 85 L375 75 C374 56 373 50 369 42 C360 27 346 22 316 23 L306 23 L306 0 L513 0 L513 23 L506 23 C448 24 445 30 447 138 L447 264 C447 328 444 343 430 367 C410 400 370 419 320 419 C264 419 211 391 165 336 C164 362 157 406 152 419 L138 419 Z M288 557 L181 657 L161 657 L254 492 L303 492 L392 657 L372 657 L288 557 Z " />
<glyph glyph-name="napostrophe" unicode="&#x149;" horiz-adv-x="654" d="M258 419 C215 407 189 401 147 396 L147 374 L154 374 C213 372 216 367 214 258 L214 138 C215 29 213 24 154 23 L147 23 L147 0 L351 0 L351 23 L345 23 C285 24 282 30 284 138 L284 303 C323 360 366 388 414 388 C445 388 470 375 484 353 C495 335 496 326 496 268 L496 138 C496 101 496 80 495 75 C495 56 494 50 489 42 C480 27 466 22 436 23 L426 23 L426 0 L633 0 L633 23 L627 23 C568 24 565 30 567 138 L567 264 C567 328 565 343 550 367 C530 400 490 419 440 419 C383 419 330 391 284 336 C284 362 277 406 271 419 L258 419 Z M27 399 C112 421 168 489 168 571 C168 633 134 680 90 680 C60 680 39 659 39 628 C39 601 60 581 90 581 C96 581 96 581 108 584 C111 585 114 586 116 586 C129 586 137 574 137 554 C137 497 92 444 27 424 L27 399 Z " />
<glyph glyph-name="Eng" unicode="&#x14a;" horiz-adv-x="688" d="M180 668 C119 651 86 644 28 637 L28 615 L38 615 C79 615 99 608 110 588 C119 570 120 564 120 456 L120 181 C120 73 119 66 110 49 C98 29 79 22 38 23 L28 23 L28 0 L307 0 L307 23 L299 23 C257 22 237 29 225 49 C216 67 216 74 216 181 L216 508 C271 588 328 626 394 626 C436 626 471 608 490 578 C505 553 507 540 507 461 L507 -67 C506 -118 506 -147 506 -154 C505 -179 503 -188 497 -199 C485 -219 466 -226 424 -225 L411 -225 L411 -248 L694 -248 L694 -225 L686 -225 C645 -226 625 -219 613 -199 C604 -181 604 -174 604 -67 L604 456 C604 544 600 564 580 597 C553 642 498 668 430 668 C352 668 279 629 216 554 C216 588 206 651 198 668 L180 668 Z " />
<glyph glyph-name="eng" unicode="&#x14b;" horiz-adv-x="513" d="M138 419 C96 407 70 401 28 396 L28 374 L35 374 C94 372 96 367 95 258 L95 138 C96 29 94 24 35 23 L28 23 L28 0 L231 0 L231 23 L225 23 C166 24 163 30 165 138 L165 303 C204 360 246 388 294 388 C325 388 350 375 363 353 C374 335 376 326 376 268 L376 -110 L376 -141 C375 -158 375 -169 375 -173 C375 -192 373 -198 369 -206 C360 -221 346 -226 316 -225 L306 -225 L306 -248 L513 -248 L513 -225 L506 -225 C448 -224 445 -218 447 -110 L447 264 C447 328 444 343 430 367 C410 400 370 419 320 419 C264 419 211 391 165 336 C164 362 157 406 152 419 L138 419 Z " />
<glyph glyph-name="Omacron" unicode="&#x14c;" horiz-adv-x="819" d="M406 679 C197 679 47 538 47 342 C47 129 192 -12 410 -12 C627 -12 773 128 773 335 C773 437 734 530 667 589 C602 645 505 679 406 679 L406 679 Z M409 654 C475 654 534 632 577 591 C630 541 660 449 660 333 C660 127 572 13 413 13 C337 13 277 36 233 81 C187 129 160 222 160 337 C160 434 185 527 225 575 C266 625 333 654 409 654 L409 654 Z M251 792 L251 764 L569 764 L569 792 L251 792 Z " />
<glyph glyph-name="omacron" unicode="&#x14d;" horiz-adv-x="503" d="M252 419 C131 419 37 326 37 205 C37 133 64 71 111 32 C146 3 203 -16 252 -16 C375 -16 466 76 466 201 C466 326 374 419 252 419 L252 419 Z M252 396 C342 396 384 333 384 198 C384 66 343 6 251 6 C159 6 119 66 119 201 C119 333 162 396 252 396 L252 396 Z M118 565 L385 565 L385 588 L118 588 L118 565 Z " />
<glyph glyph-name="Obreve" unicode="&#x14e;" horiz-adv-x="815" d="M406 679 C197 679 47 538 47 342 C47 129 192 -12 410 -12 C627 -12 773 128 773 335 C773 437 734 530 667 589 C602 645 505 679 406 679 L406 679 Z M409 654 C475 654 534 632 577 591 C630 541 660 449 660 333 C660 127 572 13 413 13 C337 13 277 36 233 81 C187 129 160 222 160 337 C160 434 185 527 225 575 C266 625 333 654 409 654 L409 654 Z M260 868 C277 774 334 717 411 717 C491 717 557 780 569 868 L555 868 C528 823 471 794 413 794 C355 794 312 817 273 868 L260 868 Z " />
<glyph glyph-name="obreve" unicode="&#x14f;" horiz-adv-x="503" d="M102 652 C119 559 176 502 253 502 C333 502 399 565 410 652 L397 652 C370 608 313 579 255 579 C197 579 153 602 115 652 L102 652 Z M252 419 C131 419 37 326 37 205 C37 133 64 71 111 32 C146 3 203 -16 252 -16 C375 -16 466 76 466 201 C466 326 374 419 252 419 L252 419 Z M252 396 C342 396 384 333 384 198 C384 66 343 6 251 6 C159 6 119 66 119 201 C119 333 162 396 252 396 L252 396 Z " />
<glyph glyph-name="Ohungarumlaut" unicode="&#x150;" horiz-adv-x="819" d="M406 679 C197 679 47 538 47 342 C47 129 192 -12 410 -12 C627 -12 773 128 773 335 C773 437 734 530 667 589 C602 645 505 679 406 679 L406 679 Z M409 654 C475 654 534 632 577 591 C630 541 660 449 660 333 C660 127 572 13 413 13 C337 13 277 36 233 81 C187 129 160 222 160 337 C160 434 185 527 225 575 C266 625 333 654 409 654 L409 654 Z M387 847 L286 724 L306 724 L526 847 L387 847 Z M565 847 L464 724 L484 724 L704 847 L565 847 Z " />
<glyph glyph-name="ohungarumlaut" unicode="&#x151;" horiz-adv-x="503" d="M252 419 C131 419 37 326 37 205 C37 133 64 71 111 32 C146 3 203 -16 252 -16 C375 -16 466 76 466 201 C466 326 374 419 252 419 L252 419 Z M252 396 C342 396 384 333 384 198 C384 66 343 6 251 6 C159 6 119 66 119 201 C119 333 162 396 252 396 L252 396 Z M152 493 L168 493 L356 657 L258 657 L152 493 Z M312 493 L329 493 L516 657 L418 657 L312 493 Z " />
<glyph glyph-name="OE" unicode="&#x152;" horiz-adv-x="936" d="M910 210 L888 210 C879 163 854 100 829 68 C805 35 775 24 704 23 L652 23 C561 22 556 31 556 187 L556 341 L630 341 C697 343 712 325 712 241 L712 235 L736 235 L736 471 L712 471 L712 464 C712 383 695 363 631 364 L556 364 L556 644 L682 644 C764 650 796 618 822 507 L845 507 L832 667 L538 667 L472 668 C409 671 409 671 392 671 C332 671 283 661 236 639 C122 586 47 462 47 326 C47 228 90 132 159 74 C222 20 292 -4 382 -4 L440 -3 C467 -1 485 -1 491 -1 C499 0 516 0 534 0 L576 0 L896 0 L910 210 Z M460 181 L461 115 C461 81 458 67 447 52 C433 32 404 20 369 20 C240 20 160 143 160 340 C160 525 245 647 376 647 C407 647 435 639 447 627 C459 615 460 607 460 540 L460 181 Z " />
<glyph glyph-name="oe" unicode="&#x153;" horiz-adv-x="786" d="M749 268 C733 360 666 419 578 419 C519 419 468 394 424 343 C382 391 319 419 253 419 C134 419 37 321 37 200 C37 77 129 -16 250 -16 C320 -16 383 14 424 67 C459 16 520 -16 584 -16 C657 -16 723 25 744 84 L725 91 C703 41 655 10 598 10 C507 10 451 82 451 198 C451 220 453 248 456 268 L749 268 Z M460 288 C476 358 515 397 568 397 C625 397 662 355 663 288 L460 288 Z M250 397 C299 397 341 374 360 338 C377 305 382 272 382 202 C382 137 375 96 359 67 C337 27 298 5 249 5 C210 5 177 19 156 44 C129 76 119 117 119 189 C119 267 129 318 152 348 C175 380 209 397 250 397 L250 397 Z " />
<glyph glyph-name="Racute" unicode="&#x154;" horiz-adv-x="696" d="M736 0 L736 23 L731 23 C662 23 611 60 532 167 C461 264 416 315 380 335 C499 349 570 413 570 504 C570 559 544 603 491 635 C445 664 379 677 282 677 C256 677 185 675 130 672 L34 667 L34 644 L46 644 C131 646 138 636 136 501 L136 173 C138 36 130 23 51 23 L30 23 L30 0 L349 0 L349 23 L317 23 C238 23 230 36 232 173 L232 322 L259 322 C296 325 316 306 411 175 C469 90 526 21 557 0 L736 0 Z M232 344 L232 650 C251 651 262 652 275 652 C330 652 369 646 396 632 C439 612 462 564 462 497 C462 393 410 347 289 345 L243 345 L232 344 Z M364 847 L262 724 L282 724 L503 847 L364 847 Z " />
<glyph glyph-name="racute" unicode="&#x155;" horiz-adv-x="365" d="M28 368 L38 368 C97 366 100 360 98 252 L98 138 C99 29 97 24 38 23 L28 23 L28 0 L242 0 L242 23 L228 23 C170 24 167 30 169 138 L169 210 C169 278 173 297 195 331 C215 361 246 384 266 384 C278 384 286 377 292 359 C302 333 312 323 330 323 C348 323 363 338 363 358 C363 391 331 419 294 419 C243 419 189 376 165 316 C164 359 158 396 149 419 C108 406 54 393 28 390 L28 368 Z M157 493 L173 493 L361 657 L263 657 L157 493 Z " />
<glyph glyph-name="Rcommaaccent" unicode="&#x156;" horiz-adv-x="696" d="M736 0 L736 23 L731 23 C662 23 611 60 532 167 C461 264 416 315 380 335 C499 349 570 413 570 504 C570 559 544 603 491 635 C445 664 379 677 282 677 C256 677 185 675 130 672 L34 667 L34 644 L46 644 C131 646 138 636 136 501 L136 173 C138 36 130 23 51 23 L30 23 L30 0 L349 0 L349 23 L317 23 C238 23 230 36 232 173 L232 322 L259 322 C296 325 316 306 411 175 C469 90 526 21 557 0 L736 0 Z M232 344 L232 650 C251 651 262 652 275 652 C330 652 369 646 396 632 C439 612 462 564 462 497 C462 393 410 347 289 345 L243 345 L232 344 Z M293 -286 C362 -271 404 -222 404 -157 C404 -100 372 -59 328 -59 C296 -59 275 -79 275 -110 C275 -138 296 -157 325 -157 C329 -157 333 -157 335 -156 C349 -152 349 -152 353 -152 C364 -152 371 -162 371 -179 C371 -218 341 -249 293 -262 L293 -286 Z " />
<glyph glyph-name="rcommaaccent" unicode="&#x157;" horiz-adv-x="365" d="M28 368 L38 368 C97 366 100 360 98 252 L98 138 C99 29 97 24 38 23 L28 23 L28 0 L242 0 L242 23 L228 23 C170 24 167 30 169 138 L169 210 C169 278 173 297 195 331 C215 361 246 384 266 384 C278 384 286 377 292 359 C302 333 312 323 330 323 C348 323 363 338 363 358 C363 391 331 419 294 419 C243 419 189 376 165 316 C164 359 158 396 149 419 C108 406 54 393 28 390 L28 368 Z M102 -271 C166 -257 206 -211 206 -150 C206 -97 176 -59 134 -59 C105 -59 85 -78 85 -107 C85 -133 104 -151 132 -151 C136 -151 139 -151 141 -150 C154 -146 154 -146 158 -146 C168 -146 175 -155 175 -171 C175 -207 146 -237 102 -248 L102 -271 Z " />
<glyph glyph-name="Rcaron" unicode="&#x158;" horiz-adv-x="696" d="M736 0 L736 23 L731 23 C662 23 611 60 532 167 C461 264 416 315 380 335 C499 349 570 413 570 504 C570 559 544 603 491 635 C445 664 379 677 282 677 C256 677 185 675 130 672 L34 667 L34 644 L46 644 C131 646 138 636 136 501 L136 173 C138 36 130 23 51 23 L30 23 L30 0 L349 0 L349 23 L317 23 C238 23 230 36 232 173 L232 322 L259 322 C296 325 316 306 411 175 C469 90 526 21 557 0 L736 0 Z M232 344 L232 650 C251 651 262 652 275 652 C330 652 369 646 396 632 C439 612 462 564 462 497 C462 393 410 347 289 345 L243 345 L232 344 Z M356 725 L480 856 L461 856 L333 779 L167 856 L148 856 L271 725 L356 725 Z " />
<glyph glyph-name="rcaron" unicode="&#x159;" horiz-adv-x="365" d="M28 368 L38 368 C97 366 100 360 98 252 L98 138 C99 29 97 24 38 23 L28 23 L28 0 L242 0 L242 23 L228 23 C170 24 167 30 169 138 L169 210 C169 278 173 297 195 331 C215 361 246 384 266 384 C278 384 286 377 292 359 C302 333 312 323 330 323 C348 323 363 338 363 358 C363 391 331 419 294 419 C243 419 189 376 165 316 C164 359 158 396 149 419 C108 406 54 393 28 390 L28 368 Z M211 557 L103 657 L83 657 L176 492 L225 492 L314 657 L295 657 L211 557 Z " />
<glyph glyph-name="Sacute" unicode="&#x15a;" horiz-adv-x="545" d="M58 7 L82 7 C88 34 96 56 107 72 C155 16 217 -12 290 -12 C415 -12 499 66 499 181 C499 236 479 284 442 318 C416 343 390 357 287 403 C223 431 195 447 173 466 C143 492 128 520 128 553 C128 614 175 656 242 656 C328 656 393 595 420 492 L441 492 L441 667 L420 667 C418 647 409 626 394 608 C345 660 303 679 240 679 C138 679 63 609 63 513 C63 468 81 422 111 389 C136 362 178 337 247 308 C335 270 352 261 377 241 C410 215 428 180 428 142 C428 67 365 12 281 12 C177 12 110 83 82 221 L58 221 L58 7 Z M324 847 L223 724 L243 724 L463 847 L324 847 Z " />
<glyph glyph-name="sacute" unicode="&#x15b;" horiz-adv-x="336" d="M41 -13 L60 -13 C64 1 76 25 82 29 C117 -5 140 -16 180 -16 C251 -16 302 33 302 102 C302 136 290 169 269 191 C249 212 230 224 181 246 C145 263 127 272 116 281 C97 297 86 317 86 336 C86 370 115 397 152 397 C200 397 243 353 257 288 L275 288 L275 412 L257 412 C249 393 242 381 238 377 C213 405 185 419 150 419 C91 419 42 369 42 307 C42 284 50 260 65 240 C83 217 102 204 155 178 C200 156 215 147 226 136 C244 119 253 99 253 77 C253 35 223 5 179 5 C150 5 120 18 99 41 C83 58 72 81 60 119 L41 119 L41 -13 Z M123 493 L140 493 L327 657 L229 657 L123 493 Z " />
<glyph glyph-name="Scircumflex" unicode="&#x15c;" horiz-adv-x="545" d="M58 7 L82 7 C88 34 96 56 107 72 C155 16 217 -12 290 -12 C415 -12 499 66 499 181 C499 236 479 284 442 318 C416 343 390 357 287 403 C223 431 195 447 173 466 C143 492 128 520 128 553 C128 614 175 656 242 656 C328 656 393 595 420 492 L441 492 L441 667 L420 667 C418 647 409 626 394 608 C345 660 303 679 240 679 C138 679 63 609 63 513 C63 468 81 422 111 389 C136 362 178 337 247 308 C335 270 352 261 377 241 C410 215 428 180 428 142 C428 67 365 12 281 12 C177 12 110 83 82 221 L58 221 L58 7 Z M239 856 L115 725 L133 725 L262 802 L427 725 L447 725 L324 856 L239 856 Z " />
<glyph glyph-name="scircumflex" unicode="&#x15d;" horiz-adv-x="336" d="M41 -13 L60 -13 C64 1 76 25 82 29 C117 -5 140 -16 180 -16 C251 -16 302 33 302 102 C302 136 290 169 269 191 C249 212 230 224 181 246 C145 263 127 272 116 281 C97 297 86 317 86 336 C86 370 115 397 152 397 C200 397 243 353 257 288 L275 288 L275 412 L257 412 C249 393 242 381 238 377 C213 405 185 419 150 419 C91 419 42 369 42 307 C42 284 50 260 65 240 C83 217 102 204 155 178 C200 156 215 147 226 136 C244 119 253 99 253 77 C253 35 223 5 179 5 C150 5 120 18 99 41 C83 58 72 81 60 119 L41 119 L41 -13 Z M168 596 L276 496 L296 496 L203 661 L154 661 L65 496 L84 496 L168 596 Z " />
<glyph glyph-name="Scedilla" unicode="&#x15e;" horiz-adv-x="545" d="M285 -12 C334 -10 372 -2 400 12 C462 43 499 106 499 181 C499 236 479 284 442 318 C416 343 390 357 287 403 C223 431 195 447 173 466 C143 492 128 520 128 553 C128 614 175 656 242 656 C328 656 393 595 420 492 L441 492 L441 667 L420 667 C418 647 409 626 394 608 C345 660 303 679 240 679 C138 679 63 609 63 513 C63 468 81 422 111 389 C136 362 178 337 247 308 C335 270 352 261 377 241 C410 215 428 180 428 142 C428 67 365 12 281 12 C177 12 110 83 82 221 L58 221 L58 7 L82 7 C88 34 96 56 107 72 C146 25 203 -6 264 -11 L245 -107 C290 -110 314 -129 314 -162 C314 -196 284 -220 242 -220 C221 -220 202 -217 176 -209 L168 -229 C198 -238 231 -243 256 -243 C324 -243 377 -203 377 -152 C377 -104 340 -73 276 -66 L285 -12 Z " />
<glyph glyph-name="scedilla" unicode="&#x15f;" horiz-adv-x="336" d="M179 -16 C252 -15 302 33 302 102 C302 136 290 169 269 191 C249 212 230 224 181 246 C145 263 127 272 116 281 C97 297 86 317 86 336 C86 370 115 397 152 397 C200 397 243 353 257 288 L275 288 L275 412 L257 412 C249 393 242 381 238 377 C213 405 185 419 150 419 C91 419 42 369 42 307 C42 284 50 260 65 240 C83 217 102 204 155 178 C200 156 215 147 226 136 C244 119 253 99 253 77 C253 35 223 5 179 5 C150 5 120 18 99 41 C83 58 72 81 60 119 L41 119 L41 -13 L60 -13 C64 1 76 25 82 29 C112 0 130 -11 163 -15 L150 -96 C184 -99 202 -116 202 -146 C202 -176 180 -198 148 -198 C137 -198 130 -197 114 -193 L109 -212 C129 -217 145 -219 159 -219 C213 -219 256 -182 256 -135 C256 -93 226 -65 174 -59 L179 -16 Z " />
<glyph glyph-name="Scaron" unicode="&#x160;" horiz-adv-x="545" d="M58 7 L82 7 C88 34 96 56 107 72 C155 16 217 -12 290 -12 C415 -12 499 66 499 181 C499 236 479 284 442 318 C416 343 390 357 287 403 C223 431 195 447 173 466 C143 492 128 520 128 553 C128 614 175 656 242 656 C328 656 393 595 420 492 L441 492 L441 667 L420 667 C418 647 409 626 394 608 C345 660 303 679 240 679 C138 679 63 609 63 513 C63 468 81 422 111 389 C136 362 178 337 247 308 C335 270 352 261 377 241 C410 215 428 180 428 142 C428 67 365 12 281 12 C177 12 110 83 82 221 L58 221 L58 7 Z M310 725 L434 856 L415 856 L287 779 L121 856 L102 856 L225 725 L310 725 Z " />
<glyph glyph-name="scaron" unicode="&#x161;" horiz-adv-x="336" d="M41 -13 L60 -13 C64 1 76 25 82 29 C117 -5 140 -16 180 -16 C251 -16 302 33 302 102 C302 136 290 169 269 191 C249 212 230 224 181 246 C145 263 127 272 116 281 C97 297 86 317 86 336 C86 370 115 397 152 397 C200 397 243 353 257 288 L275 288 L275 412 L257 412 C249 393 242 381 238 377 C213 405 185 419 150 419 C91 419 42 369 42 307 C42 284 50 260 65 240 C83 217 102 204 155 178 C200 156 215 147 226 136 C244 119 253 99 253 77 C253 35 223 5 179 5 C150 5 120 18 99 41 C83 58 72 81 60 119 L41 119 L41 -13 Z M179 557 L72 657 L52 657 L145 492 L194 492 L283 657 L263 657 L179 557 Z " />
<glyph glyph-name="Tcommaaccent" unicode="&#x162;" horiz-adv-x="687" d="M39 506 C64 628 88 649 197 644 L296 644 L296 174 C298 36 290 24 211 23 L177 23 L177 0 L509 0 L509 23 L477 23 C398 24 391 36 392 174 L392 644 L499 644 C600 649 626 624 649 506 L671 506 L667 667 L21 667 L17 506 L39 506 Z M307 -286 C375 -271 417 -222 417 -157 C417 -100 385 -59 341 -59 C310 -59 289 -79 289 -110 C289 -138 310 -157 339 -157 C343 -157 346 -157 349 -156 C362 -152 362 -152 366 -152 C377 -152 384 -162 384 -179 C384 -218 354 -249 307 -262 L307 -286 Z " />
<glyph glyph-name="tcommaaccent" unicode="&#x163;" horiz-adv-x="294" d="M277 380 L277 403 L155 403 L155 529 L139 529 C130 457 83 404 26 403 L26 380 L84 380 L84 152 C84 76 86 57 99 34 C115 4 150 -16 187 -16 C232 -16 272 9 292 49 L277 58 C258 31 239 18 215 18 C194 18 174 30 165 50 C157 65 155 84 155 137 L155 380 L277 380 Z M135 -271 C200 -257 239 -211 239 -150 C239 -97 209 -59 167 -59 C138 -59 118 -78 118 -107 C118 -133 137 -151 165 -151 C169 -151 172 -151 175 -150 C187 -146 187 -146 191 -146 C202 -146 208 -155 208 -171 C208 -207 180 -237 135 -248 L135 -271 Z " />
<glyph glyph-name="Tcaron" unicode="&#x164;" horiz-adv-x="687" d="M39 506 C64 628 88 649 197 644 L296 644 L296 174 C298 36 290 24 211 23 L177 23 L177 0 L509 0 L509 23 L477 23 C398 24 391 36 392 174 L392 644 L499 644 C600 649 626 624 649 506 L671 506 L667 667 L21 667 L17 506 L39 506 Z M388 725 L512 856 L493 856 L365 779 L199 856 L180 856 L303 725 L388 725 Z " />
<glyph glyph-name="tcaron" unicode="&#x165;" horiz-adv-x="315" d="M277 380 L277 403 L155 403 L155 529 L139 529 C130 457 83 404 26 403 L26 380 L84 380 L84 152 C84 76 86 57 99 34 C115 4 150 -16 187 -16 C232 -16 272 9 292 49 L277 58 C258 31 239 18 215 18 C194 18 174 30 165 50 C157 65 155 84 155 137 L155 380 L277 380 Z M205 465 C269 479 308 525 308 585 C308 638 278 677 237 677 C208 677 188 658 188 629 C188 603 207 585 235 585 C238 585 242 585 244 586 C256 590 256 590 260 590 C271 590 277 580 277 565 C277 529 249 499 205 487 L205 465 Z " />
<glyph glyph-name="Tbar" unicode="&#x166;" horiz-adv-x="687" d="M392 372 L392 644 L499 644 C600 649 626 624 649 506 L671 506 L667 667 L21 667 L17 506 L39 506 C63 627 88 649 197 644 L296 644 L296 372 L139 372 L139 349 L296 349 L296 173 C298 36 290 24 211 23 L177 23 L177 0 L509 0 L509 23 L477 23 C398 24 391 36 392 173 L392 349 L547 349 L547 372 L392 372 Z " />
<glyph glyph-name="tbar" unicode="&#x167;" horiz-adv-x="294" d="M155 318 L155 380 L277 380 L277 403 L155 403 L155 529 L139 529 C130 457 83 404 26 403 L26 380 L84 380 L84 318 L26 318 L26 295 L84 295 L84 152 C84 76 86 57 99 34 C115 4 150 -16 187 -16 C232 -16 272 9 292 49 L277 58 C257 30 239 18 215 18 C194 18 174 30 165 49 C157 65 155 84 155 136 L155 295 L277 295 L277 318 L155 318 Z " />
<glyph glyph-name="Utilde" unicode="&#x168;" horiz-adv-x="775" d="M532 667 L532 644 L537 644 C617 637 636 612 633 513 L633 286 C633 177 630 156 609 119 C576 59 499 22 411 22 C336 22 274 52 246 100 C224 138 221 162 221 291 L221 501 C219 636 226 646 311 644 L324 644 L324 667 L20 667 L20 644 L35 644 C120 646 127 636 125 501 L125 293 C125 214 125 214 126 202 C128 149 137 118 158 86 C199 24 284 -12 387 -12 C498 -12 584 27 626 95 C653 139 657 163 657 282 L657 504 C653 605 670 632 745 644 L755 644 L755 667 L532 667 Z M293 724 C300 765 314 782 342 782 C360 782 376 776 425 753 C467 733 492 725 515 725 C568 725 604 772 605 840 L590 840 C586 803 568 780 541 780 C528 780 512 785 492 794 C414 830 391 838 369 838 C318 838 279 789 279 724 L293 724 Z " />
<glyph glyph-name="utilde" unicode="&#x169;" horiz-adv-x="524" d="M437 403 L297 403 L297 380 L307 380 C366 379 369 373 367 265 L367 174 C367 116 362 98 336 68 C309 36 271 17 236 17 C210 17 185 29 172 47 C161 63 159 76 159 124 L159 403 L22 403 L22 380 L28 380 C87 379 90 373 88 265 L88 128 C88 85 92 60 103 40 C122 7 167 -16 213 -16 C273 -16 330 19 367 78 C368 33 373 2 384 -16 L390 -16 C415 -5 447 -1 499 0 L499 23 L495 23 C438 25 435 31 437 139 L437 403 Z M133 524 C136 568 153 592 182 592 C194 592 206 587 222 574 C278 530 292 523 325 523 C356 523 382 536 399 560 C414 579 419 601 419 639 L405 639 C404 595 386 570 355 570 C339 570 328 576 300 597 C254 633 240 639 212 639 C155 639 117 592 118 524 L133 524 Z " />
<glyph glyph-name="Umacron" unicode="&#x16a;" horiz-adv-x="775" d="M532 667 L532 644 L537 644 C617 637 636 612 633 513 L633 286 C633 177 630 156 609 119 C576 59 499 22 411 22 C336 22 274 52 246 100 C224 138 221 162 221 291 L221 501 C219 636 226 646 311 644 L324 644 L324 667 L20 667 L20 644 L35 644 C120 646 127 636 125 501 L125 293 C125 214 125 214 126 202 C128 149 137 118 158 86 C199 24 284 -12 387 -12 C498 -12 584 27 626 95 C653 139 657 163 657 282 L657 504 C653 605 670 632 745 644 L755 644 L755 667 L532 667 Z M243 792 L243 764 L561 764 L561 792 L243 792 Z " />
<glyph glyph-name="umacron" unicode="&#x16b;" horiz-adv-x="524" d="M437 403 L297 403 L297 380 L307 380 C366 379 369 373 367 265 L367 174 C367 116 362 98 336 68 C309 36 271 17 236 17 C210 17 185 29 172 47 C161 63 159 76 159 124 L159 403 L22 403 L22 380 L28 380 C87 379 90 373 88 265 L88 128 C88 85 92 60 103 40 C122 7 167 -16 213 -16 C273 -16 330 19 367 78 C368 33 373 2 384 -16 L390 -16 C415 -5 447 -1 499 0 L499 23 L495 23 C438 25 435 31 437 139 L437 403 Z M127 565 L394 565 L394 588 L127 588 L127 565 Z " />
<glyph glyph-name="Ubreve" unicode="&#x16c;" horiz-adv-x="775" d="M532 667 L532 644 L537 644 C617 637 636 612 633 513 L633 286 C633 177 630 156 609 119 C576 59 499 22 411 22 C336 22 274 52 246 100 C224 138 221 162 221 291 L221 501 C219 636 226 646 311 644 L324 644 L324 667 L20 667 L20 644 L35 644 C120 646 127 636 125 501 L125 293 C125 214 125 214 126 202 C128 149 137 118 158 86 C199 24 284 -12 387 -12 C498 -12 584 27 626 95 C653 139 657 163 657 282 L657 504 C653 605 670 632 745 644 L755 644 L755 667 L532 667 Z M270 868 C287 774 344 717 420 717 C501 717 567 780 578 868 L565 868 C537 823 480 794 423 794 C364 794 321 817 282 868 L270 868 Z " />
<glyph glyph-name="ubreve" unicode="&#x16d;" horiz-adv-x="524" d="M437 403 L297 403 L297 380 L307 380 C366 379 369 373 367 265 L367 174 C367 116 362 98 336 68 C309 36 271 17 236 17 C210 17 185 29 172 47 C161 63 159 76 159 124 L159 403 L22 403 L22 380 L28 380 C87 379 90 373 88 265 L88 128 C88 85 92 60 103 40 C122 7 167 -16 213 -16 C273 -16 330 19 367 78 C368 33 373 2 384 -16 L390 -16 C415 -5 447 -1 499 0 L499 23 L495 23 C438 25 435 31 437 139 L437 403 Z M137 651 C146 564 195 510 264 510 C333 510 383 565 392 651 L376 651 C357 602 323 580 267 580 C204 580 168 602 153 651 L137 651 Z " />
<glyph glyph-name="Uring" unicode="&#x16e;" horiz-adv-x="775" d="M532 667 L532 644 L537 644 C617 637 636 612 633 513 L633 286 C633 177 630 156 609 119 C576 59 499 22 411 22 C336 22 274 52 246 100 C224 138 221 162 221 291 L221 501 C219 636 226 646 311 644 L324 644 L324 667 L20 667 L20 644 L35 644 C120 646 127 636 125 501 L125 293 C125 214 125 214 126 202 C128 149 137 118 158 86 C199 24 284 -12 387 -12 C498 -12 584 27 626 95 C653 139 657 163 657 282 L657 504 C653 605 670 632 745 644 L755 644 L755 667 L532 667 Z M417 893 C366 893 323 851 323 800 C323 747 364 705 417 705 C468 705 510 747 510 799 C510 851 468 893 417 893 L417 893 Z M416 868 C454 868 484 837 484 799 C484 761 454 730 417 730 C379 730 349 761 349 800 C349 837 380 868 416 868 L416 868 Z " />
<glyph glyph-name="uring" unicode="&#x16f;" horiz-adv-x="524" d="M437 403 L297 403 L297 380 L307 380 C366 379 369 373 367 265 L367 174 C367 116 362 98 336 68 C309 36 271 17 236 17 C210 17 185 29 172 47 C161 63 159 76 159 124 L159 403 L22 403 L22 380 L28 380 C87 379 90 373 88 265 L88 128 C88 85 92 60 103 40 C122 7 167 -16 213 -16 C273 -16 330 19 367 78 C368 33 373 2 384 -16 L390 -16 C415 -5 447 -1 499 0 L499 23 L495 23 C438 25 435 31 437 139 L437 403 Z M273 668 C224 668 184 628 184 580 C184 530 224 490 273 490 C322 490 362 530 362 579 C362 628 322 668 273 668 L273 668 Z M273 640 C307 640 334 613 334 579 C334 545 307 518 273 518 C239 518 212 545 212 580 C212 613 240 640 273 640 L273 640 Z " />
<glyph glyph-name="Uhungarumlaut" unicode="&#x170;" horiz-adv-x="775" d="M532 667 L532 644 L537 644 C617 637 636 612 633 513 L633 286 C633 177 630 156 609 119 C576 59 499 22 411 22 C336 22 274 52 246 100 C224 138 221 162 221 291 L221 501 C219 636 226 646 311 644 L324 644 L324 667 L20 667 L20 644 L35 644 C120 646 127 636 125 501 L125 293 C125 214 125 214 126 202 C128 149 137 118 158 86 C199 24 284 -12 387 -12 C498 -12 584 27 626 95 C653 139 657 163 657 282 L657 504 C653 605 670 632 745 644 L755 644 L755 667 L532 667 Z M382 847 L280 724 L300 724 L520 847 L382 847 Z M559 847 L458 724 L478 724 L698 847 L559 847 Z " />
<glyph glyph-name="uhungarumlaut" unicode="&#x171;" horiz-adv-x="524" d="M437 403 L297 403 L297 380 L307 380 C366 379 369 373 367 265 L367 174 C367 116 362 98 336 68 C309 36 271 17 236 17 C210 17 185 29 172 47 C161 63 159 76 159 124 L159 403 L22 403 L22 380 L28 380 C87 379 90 373 88 265 L88 128 C88 85 92 60 103 40 C122 7 167 -16 213 -16 C273 -16 330 19 367 78 C368 33 373 2 384 -16 L390 -16 C415 -5 447 -1 499 0 L499 23 L495 23 C438 25 435 31 437 139 L437 403 Z M155 493 L171 493 L359 657 L261 657 L155 493 Z M315 493 L331 493 L519 657 L421 657 L315 493 Z " />
<glyph glyph-name="Uogonek" unicode="&#x172;" horiz-adv-x="775" d="M603 -135 C582 -143 571 -145 556 -145 C518 -145 489 -118 489 -82 C489 -49 507 -20 551 18 C645 93 659 130 657 282 L657 504 C653 605 670 632 745 644 L755 644 L755 667 L532 667 L532 644 L537 644 C617 637 636 612 633 513 L633 286 C633 177 630 156 609 119 C576 59 499 22 411 22 C336 22 274 52 246 100 C224 138 221 162 221 291 L221 501 C219 636 226 646 311 644 L324 644 L324 667 L20 667 L20 644 L35 644 C120 646 127 636 125 501 L125 293 C125 214 125 214 126 202 C128 149 137 118 158 86 C199 25 284 -12 386 -12 C428 -12 464 -7 500 3 C446 -27 419 -61 419 -102 C419 -149 460 -184 517 -184 C551 -184 578 -175 613 -151 L603 -135 Z " />
<glyph glyph-name="uogonek" unicode="&#x173;" horiz-adv-x="524" d="M499 23 L495 23 C438 25 435 31 437 139 L437 403 L297 403 L297 380 L307 380 C366 379 369 373 367 265 L367 174 C367 116 362 98 336 68 C309 36 271 17 236 17 C210 17 185 29 172 47 C161 63 159 76 159 124 L159 403 L22 403 L22 380 L28 380 C87 379 90 373 88 265 L88 128 C88 85 92 60 103 40 C122 7 167 -16 213 -16 C273 -16 330 19 367 78 C368 33 373 2 384 -16 L390 -16 C399 -12 405 -10 415 -8 C385 -30 366 -62 366 -93 C366 -136 401 -168 448 -168 C476 -168 498 -160 528 -138 L520 -124 C501 -130 492 -132 480 -132 C448 -132 424 -107 424 -73 C424 -48 436 -22 457 -2 C471 -1 480 0 499 0 L499 23 Z " />
<glyph glyph-name="Wcircumflex" unicode="&#x174;" horiz-adv-x="938" d="M688 -16 L834 486 C871 613 888 640 939 644 L944 644 L944 667 L762 667 L762 644 L766 644 C810 644 832 622 832 580 C832 557 831 551 811 486 L709 132 L513 667 L486 667 L312 132 L193 520 C173 583 172 588 172 603 C172 630 187 640 237 644 L243 644 L243 667 L-7 667 L-7 644 L0 644 C53 642 67 623 101 503 L262 -16 L285 -16 L463 534 L666 -16 L688 -16 Z M460 856 L336 725 L355 725 L483 802 L649 725 L668 725 L545 856 L460 856 Z " />
<glyph glyph-name="wcircumflex" unicode="&#x175;" horiz-adv-x="682" d="M483 -16 L608 304 C632 369 637 375 673 380 L681 380 L681 403 L550 403 L550 380 L560 380 C587 379 600 370 600 354 C600 348 600 348 586 310 L497 82 L376 403 L357 403 L232 82 L151 298 C133 340 131 346 131 356 C131 373 145 380 178 380 L185 380 L185 403 L1 403 L1 380 L8 380 C37 379 50 369 61 337 C64 331 69 316 74 304 L197 -16 L219 -16 L341 304 L461 -16 L483 -16 Z M360 596 L468 496 L487 496 L395 661 L345 661 L257 496 L276 496 L360 596 Z " />
<glyph glyph-name="Ycircumflex" unicode="&#x176;" horiz-adv-x="655" d="M366 292 L207 555 C184 593 182 598 182 610 C182 633 204 644 252 644 L257 644 L257 667 L-13 667 L-13 644 L-6 644 C45 640 51 635 114 529 L281 256 L281 173 C282 36 275 23 196 23 L185 23 L185 0 L470 0 L470 23 L460 23 C381 23 374 36 376 173 L376 262 L525 511 C579 605 606 631 662 643 L669 644 L669 667 L451 667 L451 644 L456 644 C501 644 530 623 530 589 C530 569 525 559 498 512 L366 292 Z M300 856 L176 725 L195 725 L323 802 L489 725 L508 725 L385 856 L300 856 Z " />
<glyph glyph-name="ycircumflex" unicode="&#x177;" horiz-adv-x="461" d="M261 76 L150 312 C131 353 131 353 131 360 C131 373 144 379 175 380 L180 380 L180 403 L-5 403 L-5 380 L3 380 C39 378 48 369 73 315 L225 -10 L187 -106 C172 -140 167 -144 127 -162 C90 -179 76 -195 76 -219 C76 -236 89 -248 108 -248 C141 -248 163 -221 196 -141 L376 292 C403 362 416 376 457 380 L462 380 L462 403 L320 403 L320 380 L328 380 C356 380 375 369 375 355 C375 347 375 347 354 300 L261 76 Z M231 596 L339 496 L358 496 L266 661 L216 661 L128 496 L147 496 L231 596 Z " />
<glyph glyph-name="Ydieresis" unicode="&#x178;" horiz-adv-x="655" d="M366 292 L207 555 C184 593 182 598 182 610 C182 633 204 644 252 644 L257 644 L257 667 L-13 667 L-13 644 L-6 644 C45 640 51 635 114 529 L281 256 L281 173 C282 36 275 23 196 23 L185 23 L185 0 L470 0 L470 23 L460 23 C381 23 374 36 376 173 L376 262 L525 511 C579 605 606 631 662 643 L669 644 L669 667 L451 667 L451 644 L456 644 C501 644 530 623 530 589 C530 569 525 559 498 512 L366 292 Z M221 827 C193 827 171 805 171 778 C171 749 193 727 221 727 C248 727 271 750 271 777 C271 805 248 827 221 827 L221 827 Z M465 827 C437 827 415 805 415 778 C415 749 437 727 465 727 C492 727 515 750 515 777 C515 805 492 827 465 827 L465 827 Z " />
<glyph glyph-name="Zacute" unicode="&#x179;" horiz-adv-x="633" d="M31 0 L570 0 L592 173 L570 173 C520 39 494 21 352 23 L149 23 L575 644 L575 667 L79 667 L58 513 L79 513 C88 550 113 595 136 619 C163 643 170 645 254 644 L461 644 L31 18 L31 0 Z M391 847 L290 724 L309 724 L530 847 L391 847 Z " />
<glyph glyph-name="zacute" unicode="&#x17a;" horiz-adv-x="423" d="M26 0 L377 0 L389 128 L369 128 C328 31 316 21 226 23 L116 23 L381 385 L381 403 L44 403 L38 291 L56 291 C83 367 101 384 147 380 L293 380 L26 16 L26 0 Z M180 493 L196 493 L384 657 L286 657 L180 493 Z " />
<glyph glyph-name="Zdotaccent" unicode="&#x17b;" horiz-adv-x="633" d="M31 0 L570 0 L592 173 L570 173 C520 39 494 21 352 23 L149 23 L575 644 L575 667 L79 667 L58 513 L79 513 C88 550 113 595 136 619 C163 643 170 645 254 644 L461 644 L31 18 L31 0 Z M337 827 C310 827 287 805 287 778 C287 749 309 727 337 727 C365 727 387 750 387 777 C387 805 365 827 337 827 L337 827 Z " />
<glyph glyph-name="zdotaccent" unicode="&#x17c;" horiz-adv-x="423" d="M26 0 L377 0 L389 128 L369 128 C328 31 316 21 226 23 L116 23 L381 385 L381 403 L44 403 L38 291 L56 291 C83 367 101 384 147 380 L293 380 L26 16 L26 0 Z M227 622 C204 622 186 604 186 582 C186 559 204 541 227 541 C249 541 267 559 267 582 C267 604 249 622 227 622 L227 622 Z " />
<glyph glyph-name="Zcaron" unicode="&#x17d;" horiz-adv-x="633" d="M31 0 L570 0 L592 173 L570 173 C520 39 494 21 352 23 L149 23 L575 644 L575 667 L79 667 L58 513 L79 513 C88 550 113 595 136 619 C163 643 170 645 254 644 L461 644 L31 18 L31 0 Z M377 725 L501 856 L482 856 L354 779 L188 856 L169 856 L292 725 L377 725 Z " />
<glyph glyph-name="zcaron" unicode="&#x17e;" horiz-adv-x="423" d="M26 0 L377 0 L389 128 L369 128 C328 31 316 21 226 23 L116 23 L381 385 L381 403 L44 403 L38 291 L56 291 C83 367 101 384 147 380 L293 380 L26 16 L26 0 Z M232 557 L124 657 L104 657 L197 492 L246 492 L335 657 L316 657 L232 557 Z " />
<glyph glyph-name="uni018F" unicode="&#x18f;" horiz-adv-x="819" d="M46 308 C67 186 92 133 153 79 C219 20 308 -12 409 -12 C626 -12 772 127 772 335 C772 438 733 530 666 589 C602 645 504 679 406 679 C288 679 182 632 118 552 C94 522 76 491 75 478 L154 478 C162 509 185 544 220 577 C274 629 336 654 408 654 C475 654 532 633 576 591 C630 540 659 450 659 332 L659 308 L46 308 Z M657 285 C652 220 638 166 616 125 C577 53 503 13 412 13 C317 13 241 52 203 120 C180 162 171 202 162 285 L657 285 Z " />
<glyph glyph-name="florin" unicode="&#x192;" horiz-adv-x="500" d="M342 441 C363 572 376 635 384 649 C395 666 411 676 427 676 C437 676 444 671 444 664 C444 660 443 657 439 650 C436 643 434 637 434 632 C434 617 449 604 465 604 C485 604 499 621 499 643 C499 676 470 700 430 700 C406 700 385 692 363 676 C335 654 314 615 286 532 C256 450 251 445 182 442 L172 441 L164 408 L253 408 L248 388 L196 176 C135 -122 135 -122 115 -153 C101 -175 85 -187 70 -187 C62 -187 57 -183 57 -178 C57 -175 59 -171 62 -167 C68 -157 69 -154 69 -149 C69 -133 53 -119 36 -119 C14 -119 -3 -139 -3 -164 C-3 -195 23 -217 58 -217 C83 -217 106 -208 132 -188 C174 -155 212 -80 242 25 C285 179 319 320 336 408 L424 408 L432 441 L342 441 Z " />
<glyph glyph-name="uni01CD" unicode="&#x1cd;" horiz-adv-x="661" d="M421 245 L472 122 C495 70 495 70 495 58 C495 31 477 23 421 23 L413 23 L413 0 L675 0 L675 23 L669 23 C614 33 608 40 564 146 L341 677 L322 677 L129 213 L105 156 C67 57 49 36 -4 24 L-13 23 L-13 0 L185 0 L185 23 L177 23 C139 23 112 48 112 84 C112 107 117 124 151 203 L168 245 L421 245 Z M413 268 L177 268 L295 552 L413 268 Z M373 725 L497 856 L478 856 L350 779 L184 856 L165 856 L288 725 L373 725 Z " />
<glyph glyph-name="uni01CE" unicode="&#x1ce;" horiz-adv-x="472" d="M444 74 C439 43 424 26 403 26 C391 26 381 33 376 47 C372 58 372 58 372 115 L372 278 C372 327 370 340 358 360 C333 399 287 419 219 419 C164 419 121 407 90 383 C68 365 55 345 55 327 C55 310 67 298 85 298 C106 298 121 314 125 343 C129 364 130 367 138 376 C149 390 177 398 209 398 C249 398 279 383 293 355 C300 341 301 330 301 289 L301 269 L225 238 C93 184 39 136 39 76 C39 26 81 -10 139 -10 C183 -10 232 11 301 60 C310 12 335 -10 379 -10 C429 -10 460 22 462 74 L444 74 Z M301 246 L301 87 C253 48 209 26 179 26 C145 26 121 54 121 95 C121 147 164 190 247 224 L301 246 Z M252 557 L144 657 L124 657 L217 492 L266 492 L355 657 L336 657 L252 557 Z " />
<glyph glyph-name="uni01D1" unicode="&#x1d1;" horiz-adv-x="220" d="M110 454 L89 454 L60 106 C57 72 56 60 56 45 C56 10 74 -16 99 -16 C125 -16 143 10 143 46 C143 61 143 68 139 106 L110 454 Z M99 661 C70 661 46 637 46 607 C46 579 70 555 99 555 C128 555 152 579 152 608 C152 637 128 661 99 661 L99 661 Z " />
<glyph glyph-name="uni01D2" unicode="&#x1d2;" horiz-adv-x="503" d="M252 419 C131 419 37 326 37 205 C37 133 64 71 111 32 C146 3 203 -16 252 -16 C375 -16 466 76 466 201 C466 326 374 419 252 419 L252 419 Z M252 396 C342 396 384 333 384 198 C384 66 343 6 251 6 C159 6 119 66 119 201 C119 333 162 396 252 396 L252 396 Z M262 557 L154 657 L134 657 L227 492 L277 492 L365 657 L346 657 L262 557 Z " />
<glyph glyph-name="uni01D3" unicode="&#x1d3;" horiz-adv-x="775" d="M532 667 L532 644 L537 644 C617 637 636 612 633 513 L633 286 C633 177 630 156 609 119 C576 59 499 22 411 22 C336 22 274 52 246 100 C224 138 221 162 221 291 L221 501 C219 636 226 646 311 644 L324 644 L324 667 L20 667 L20 644 L35 644 C120 646 127 636 125 501 L125 293 C125 214 125 214 126 202 C128 149 137 118 158 86 C199 24 284 -12 387 -12 C498 -12 584 27 626 95 C653 139 657 163 657 282 L657 504 C653 605 670 632 745 644 L755 644 L755 667 L532 667 Z M461 725 L585 856 L566 856 L438 779 L272 856 L253 856 L376 725 L461 725 Z " />
<glyph glyph-name="uni01D4" unicode="&#x1d4;" horiz-adv-x="524" d="M437 403 L297 403 L297 380 L307 380 C366 379 369 373 367 265 L367 174 C367 116 362 98 336 68 C309 36 271 17 236 17 C210 17 185 29 172 47 C161 63 159 76 159 124 L159 403 L22 403 L22 380 L28 380 C87 379 90 373 88 265 L88 128 C88 85 92 60 103 40 C122 7 167 -16 213 -16 C273 -16 330 19 367 78 C368 33 373 2 384 -16 L390 -16 C415 -5 447 -1 499 0 L499 23 L495 23 C438 25 435 31 437 139 L437 403 Z M279 557 L171 657 L151 657 L244 492 L293 492 L382 657 L363 657 L279 557 Z " />
<glyph glyph-name="uni01DD" unicode="&#x1dd;" horiz-adv-x="438" d="M37 136 C41 48 112 -16 205 -16 C318 -16 401 77 401 204 C401 327 315 419 201 419 C123 419 58 377 37 312 L61 312 C85 365 129 393 188 393 C229 393 264 374 287 339 C307 309 319 253 319 185 C319 172 319 163 318 136 L37 136 Z M316 116 C310 80 305 65 294 49 C275 21 244 5 209 5 C157 5 122 41 122 95 C122 103 122 107 123 116 L316 116 Z " />
<glyph glyph-name="Gcaron" unicode="&#x1e6;" horiz-adv-x="770" d="M460 285 L460 261 L476 261 C543 264 558 249 559 178 L559 152 C559 104 544 71 510 47 C478 24 437 12 394 12 C333 12 270 39 232 80 C183 133 159 218 159 337 C159 446 178 523 217 572 C259 625 324 656 394 656 C516 656 606 569 626 432 L649 432 L649 655 L626 655 C623 629 614 600 605 581 C546 648 474 680 384 680 C290 680 209 647 149 586 C87 521 47 418 47 321 C47 129 188 -12 380 -12 C435 -12 471 -5 535 20 C576 35 609 43 634 43 C641 43 646 43 655 41 L655 112 C653 248 661 261 740 261 L747 261 L747 285 L460 285 Z M433 725 L557 856 L538 856 L410 779 L244 856 L225 856 L348 725 L433 725 Z " />
<glyph glyph-name="gcaron" unicode="&#x1e7;" horiz-adv-x="472" d="M345 368 C314 400 266 419 214 419 C123 419 50 354 50 272 C50 215 82 166 144 129 C86 119 54 90 54 48 C54 -5 100 -27 222 -32 C291 -35 310 -38 336 -49 C369 -63 386 -89 386 -125 C386 -188 327 -228 234 -228 C135 -228 72 -189 72 -128 C72 -103 81 -82 103 -57 C97 -55 94 -55 89 -55 C52 -55 28 -81 28 -123 C28 -197 110 -248 231 -248 C358 -248 436 -193 436 -103 C436 -59 415 -20 381 3 C351 22 309 31 231 35 C158 39 147 40 131 44 C105 50 94 58 94 73 C94 100 126 113 198 116 C249 117 275 123 305 139 C354 164 383 213 383 270 C383 300 374 328 357 355 C372 371 387 380 399 380 C409 380 412 377 422 362 C429 349 439 342 450 342 C466 342 479 356 479 374 C479 397 458 415 429 415 C401 415 372 399 345 368 L345 368 Z M214 396 C246 396 276 378 292 349 C302 331 307 304 307 267 C307 184 274 138 216 138 C156 138 124 182 124 264 C124 349 156 396 214 396 L214 396 Z M238 557 L130 657 L110 657 L203 492 L252 492 L341 657 L322 657 L238 557 Z " />
<glyph glyph-name="uni01F4" unicode="&#x1f4;" horiz-adv-x="772" d="M460 285 L460 261 L476 261 C543 264 558 249 559 178 L559 152 C559 104 544 71 510 47 C478 24 437 12 394 12 C333 12 270 39 232 80 C183 133 159 218 159 337 C159 446 178 523 217 572 C259 625 324 656 394 656 C516 656 606 569 626 432 L649 432 L649 655 L626 655 C623 629 614 600 605 581 C546 648 474 680 384 680 C290 680 209 647 149 586 C87 521 47 418 47 321 C47 129 188 -12 380 -12 C435 -12 471 -5 535 20 C576 35 609 43 634 43 C641 43 646 43 655 41 L655 112 C653 248 661 261 740 261 L747 261 L747 285 L460 285 Z M462 847 L361 724 L381 724 L601 847 L462 847 Z " />
<glyph glyph-name="uni01F5" unicode="&#x1f5;" horiz-adv-x="472" d="M345 368 C314 400 266 419 214 419 C123 419 50 354 50 272 C50 215 82 166 144 129 C86 119 54 90 54 48 C54 -5 100 -27 222 -32 C291 -35 310 -38 336 -49 C369 -63 386 -89 386 -125 C386 -188 327 -228 234 -228 C135 -228 72 -189 72 -128 C72 -103 81 -82 103 -57 C97 -55 94 -55 89 -55 C52 -55 28 -81 28 -123 C28 -197 110 -248 231 -248 C358 -248 436 -193 436 -103 C436 -59 415 -20 381 3 C351 22 309 31 231 35 C158 39 147 40 131 44 C105 50 94 58 94 73 C94 100 126 113 198 116 C249 117 275 123 305 139 C354 164 383 213 383 270 C383 300 374 328 357 355 C372 371 387 380 399 380 C409 380 412 377 422 362 C429 349 439 342 450 342 C466 342 479 356 479 374 C479 397 458 415 429 415 C401 415 372 399 345 368 L345 368 Z M214 396 C246 396 276 378 292 349 C302 331 307 304 307 267 C307 184 274 138 216 138 C156 138 124 182 124 264 C124 349 156 396 214 396 L214 396 Z M194 493 L210 493 L398 657 L300 657 L194 493 Z " />
<glyph glyph-name="Aringacute" unicode="&#x1fa;" horiz-adv-x="661" d="M421 245 L472 122 C495 70 495 70 495 58 C495 31 477 23 421 23 L413 23 L413 0 L675 0 L675 23 L669 23 C614 33 608 40 564 146 L341 677 L322 677 L129 213 L105 156 C67 57 49 36 -4 24 L-13 23 L-13 0 L185 0 L185 23 L177 23 C139 23 112 48 112 84 C112 107 117 124 151 203 L168 245 L421 245 Z M413 268 L177 268 L295 552 L413 268 Z M327 893 C276 893 233 851 233 800 C233 747 274 705 327 705 C378 705 420 747 420 799 C420 851 378 893 327 893 L327 893 Z M326 868 C364 868 394 837 394 799 C394 761 364 730 327 730 C289 730 259 761 259 800 C259 837 290 868 326 868 L326 868 Z M306 1009 L205 886 L224 886 L445 1009 L306 1009 Z " />
<glyph glyph-name="aringacute" unicode="&#x1fb;" horiz-adv-x="472" d="M212 671 C161 671 118 629 118 579 C118 526 159 484 212 484 C263 484 305 526 305 578 C305 629 263 671 212 671 L212 671 Z M211 646 C249 646 279 615 279 578 C279 540 249 509 212 509 C174 509 144 540 144 578 C144 615 175 646 211 646 L211 646 Z M191 787 L90 665 L109 665 L330 787 L191 787 Z M444 74 C439 43 424 26 403 26 C391 26 381 33 376 47 C372 58 372 58 372 115 L372 278 C372 327 370 340 358 360 C333 399 287 419 219 419 C164 419 121 407 90 383 C68 365 55 345 55 327 C55 310 67 298 85 298 C106 298 121 314 125 343 C129 364 130 367 138 376 C149 390 177 398 209 398 C249 398 279 383 293 355 C300 341 301 330 301 289 L301 269 L225 238 C93 184 39 136 39 76 C39 26 81 -10 139 -10 C183 -10 232 11 301 60 C310 12 335 -10 379 -10 C429 -10 460 22 462 74 L444 74 Z M301 246 L301 87 C253 48 209 26 179 26 C145 26 121 54 121 95 C121 147 164 190 247 224 L301 246 Z " />
<glyph glyph-name="AEacute" unicode="&#x1fc;" horiz-adv-x="873" d="M389 326 L389 173 C390 36 383 24 304 23 L289 23 L289 0 L838 0 L846 202 L825 202 C789 60 744 19 630 23 L585 23 C489 23 483 32 485 170 L485 326 L563 326 C633 327 649 309 650 232 L650 223 L673 223 L673 452 L650 452 L650 446 C648 365 631 347 561 349 L485 349 L485 644 L611 644 C705 647 739 616 767 502 L791 502 L774 667 L253 667 L253 644 L268 644 C328 644 342 640 342 620 C342 610 342 610 311 547 L125 167 C80 76 36 31 -13 23 L-13 0 L197 0 L197 23 L194 23 C142 26 118 44 118 78 C118 94 124 110 144 152 L230 326 L389 326 Z M389 349 L241 349 L389 648 L389 349 Z M589 847 L487 724 L507 724 L728 847 L589 847 Z " />
<glyph glyph-name="aeacute" unicode="&#x1fd;" horiz-adv-x="873" d="M607 266 C592 364 531 419 439 419 C389 419 356 405 322 370 C282 405 245 419 195 419 C118 419 44 376 44 331 C44 314 56 303 75 303 C96 303 110 320 118 354 C125 385 146 398 189 398 C218 398 241 388 253 370 C263 355 266 335 266 287 L266 266 C225 252 159 224 130 208 C70 176 37 131 37 82 C37 29 84 -16 139 -16 C187 -16 237 17 278 78 C309 17 365 -16 438 -16 C515 -16 573 20 599 82 L581 90 C556 39 513 11 459 11 C414 11 377 37 358 80 C344 115 337 166 337 240 L337 266 L607 266 Z M337 287 C341 323 347 342 360 359 C379 384 405 397 434 397 C489 397 521 359 524 287 L337 287 Z M266 99 C238 55 205 29 176 29 C138 29 111 61 111 107 C111 167 157 208 266 245 L266 99 Z M404 623 L303 500 L323 500 L543 623 L404 623 Z " />
<glyph glyph-name="Oslashacute" unicode="&#x1fe;" horiz-adv-x="819" d="M189 51 C249 10 326 -12 410 -12 C627 -12 773 128 773 335 C773 443 733 534 658 597 L714 663 L696 678 L639 611 C572 655 490 679 406 679 C195 679 47 538 47 337 C47 223 90 128 171 64 L117 0 L134 -14 L189 51 Z M210 110 C178 162 160 245 160 333 C160 434 185 526 225 575 C266 625 333 654 409 654 C489 654 554 624 600 566 L210 110 Z M614 545 C644 490 660 419 660 334 C660 127 573 13 413 13 C331 13 268 39 224 91 L614 545 Z M476 847 L375 724 L395 724 L615 847 L476 847 Z " />
<glyph glyph-name="oslashacute" unicode="&#x1ff;" horiz-adv-x="503" d="M333 618 L232 495 L252 495 L472 618 L333 618 Z M46 -16 L61 -29 L113 31 C150 2 203 -16 252 -16 C376 -16 466 76 466 202 C466 266 444 318 398 363 L448 420 L432 433 L383 376 C341 406 302 419 252 419 C129 419 37 326 37 202 C37 141 60 80 98 44 L46 -16 Z M134 86 C124 112 119 152 119 199 C119 333 161 396 252 396 C297 396 336 377 356 344 L134 86 Z M365 324 C377 294 384 249 384 198 C384 66 343 6 252 6 C201 6 166 25 143 65 L365 324 Z " />
<glyph glyph-name="Scommaaccent" unicode="&#x218;" horiz-adv-x="545" d="M58 7 L82 7 C88 34 96 56 107 72 C155 16 217 -12 290 -12 C415 -12 499 66 499 181 C499 236 479 284 442 318 C416 343 390 357 287 403 C223 431 195 447 173 466 C143 492 128 520 128 553 C128 614 175 656 242 656 C328 656 393 595 420 492 L441 492 L441 667 L420 667 C418 647 409 626 394 608 C345 660 303 679 240 679 C138 679 63 609 63 513 C63 468 81 422 111 389 C136 362 178 337 247 308 C335 270 352 261 377 241 C410 215 428 180 428 142 C428 67 365 12 281 12 C177 12 110 83 82 221 L58 221 L58 7 Z M243 -286 C312 -271 354 -222 354 -157 C354 -100 322 -59 278 -59 C246 -59 225 -79 225 -110 C225 -138 246 -157 275 -157 C279 -157 283 -157 285 -156 C299 -152 299 -152 303 -152 C314 -152 321 -162 321 -179 C321 -218 291 -249 243 -262 L243 -286 Z " />
<glyph glyph-name="scommaaccent" unicode="&#x219;" horiz-adv-x="336" d="M41 -13 L60 -13 C64 1 76 25 82 29 C117 -5 140 -16 180 -16 C251 -16 302 33 302 102 C302 136 290 169 269 191 C249 212 230 224 181 246 C145 263 127 272 116 281 C97 297 86 317 86 336 C86 370 115 397 152 397 C200 397 243 353 257 288 L275 288 L275 412 L257 412 C249 393 242 381 238 377 C213 405 185 419 150 419 C91 419 42 369 42 307 C42 284 50 260 65 240 C83 217 102 204 155 178 C200 156 215 147 226 136 C244 119 253 99 253 77 C253 35 223 5 179 5 C150 5 120 18 99 41 C83 58 72 81 60 119 L41 119 L41 -13 Z M135 -271 C200 -257 239 -211 239 -150 C239 -97 209 -59 168 -59 C139 -59 119 -78 119 -107 C119 -133 138 -151 166 -151 C169 -151 173 -151 175 -150 C187 -146 187 -146 191 -146 C202 -146 208 -156 208 -171 C208 -207 180 -237 135 -248 L135 -271 Z " />
<glyph glyph-name="uni021A" unicode="&#x21a;" horiz-adv-x="687" d="M39 506 C64 628 88 649 197 644 L296 644 L296 174 C298 36 290 24 211 23 L177 23 L177 0 L509 0 L509 23 L477 23 C398 24 391 36 392 174 L392 644 L499 644 C600 649 626 624 649 506 L671 506 L667 667 L21 667 L17 506 L39 506 Z M307 -286 C375 -271 417 -222 417 -157 C417 -100 385 -59 341 -59 C310 -59 289 -79 289 -110 C289 -138 310 -157 339 -157 C343 -157 346 -157 349 -156 C362 -152 362 -152 366 -152 C377 -152 384 -162 384 -179 C384 -218 354 -249 307 -262 L307 -286 Z " />
<glyph glyph-name="uni021B" unicode="&#x21b;" horiz-adv-x="294" d="M277 380 L277 403 L155 403 L155 529 L139 529 C130 457 83 404 26 403 L26 380 L84 380 L84 152 C84 76 86 57 99 34 C115 4 150 -16 187 -16 C232 -16 272 9 292 49 L277 58 C258 31 239 18 215 18 C194 18 174 30 165 50 C157 65 155 84 155 137 L155 380 L277 380 Z M135 -271 C200 -257 239 -211 239 -150 C239 -97 209 -59 167 -59 C138 -59 118 -78 118 -107 C118 -133 137 -151 165 -151 C169 -151 172 -151 175 -150 C187 -146 187 -146 191 -146 C202 -146 208 -155 208 -171 C208 -207 180 -237 135 -248 L135 -271 Z " />
<glyph glyph-name="uni0226" unicode="&#x226;" horiz-adv-x="661" d="M421 245 L472 122 C495 70 495 70 495 58 C495 31 477 23 421 23 L413 23 L413 0 L675 0 L675 23 L669 23 C614 33 608 40 564 146 L341 677 L322 677 L129 213 L105 156 C67 57 49 36 -4 24 L-13 23 L-13 0 L185 0 L185 23 L177 23 C139 23 112 48 112 84 C112 107 117 124 151 203 L168 245 L421 245 Z M413 268 L177 268 L295 552 L413 268 Z M330 827 C303 827 280 805 280 778 C280 749 302 727 330 727 C358 727 380 750 380 777 C380 805 358 827 330 827 L330 827 Z " />
<glyph glyph-name="uni0227" unicode="&#x227;" horiz-adv-x="472" d="M227 604 C200 604 177 582 177 555 C177 526 199 504 227 504 C255 504 277 527 277 554 C277 582 255 604 227 604 L227 604 Z M444 74 C439 43 424 26 403 26 C391 26 381 33 376 47 C372 58 372 58 372 115 L372 278 C372 327 370 340 358 360 C333 399 287 419 219 419 C164 419 121 407 90 383 C68 365 55 345 55 327 C55 310 67 298 85 298 C106 298 121 314 125 343 C129 364 130 367 138 376 C149 390 177 398 209 398 C249 398 279 383 293 355 C300 341 301 330 301 289 L301 269 L225 238 C93 184 39 136 39 76 C39 26 81 -10 139 -10 C183 -10 232 11 301 60 C310 12 335 -10 379 -10 C429 -10 460 22 462 74 L444 74 Z M301 246 L301 87 C253 48 209 26 179 26 C145 26 121 54 121 95 C121 147 164 190 247 224 L301 246 Z " />
<glyph glyph-name="uni0237" unicode="&#x237;" horiz-adv-x="238" d="M170 419 L159 419 C140 411 68 397 24 393 L24 370 L37 370 C94 371 99 362 99 261 L99 -50 C99 -122 97 -144 90 -166 C78 -203 47 -226 10 -226 C-13 -226 -31 -214 -40 -192 C-53 -162 -62 -154 -79 -154 C-97 -154 -110 -168 -110 -187 C-110 -222 -65 -248 -4 -248 C85 -248 145 -200 164 -114 C169 -89 170 -79 170 -14 L170 419 Z " />
<glyph glyph-name="afii57929" unicode="&#x2bc;" horiz-adv-x="252" d="M70 409 C151 427 195 480 195 559 C195 621 162 667 117 667 C88 667 65 645 65 618 C65 590 88 568 117 568 C124 568 128 569 137 571 C141 572 144 573 147 573 C159 573 165 562 165 542 C165 485 133 448 70 435 L70 409 Z " />
<glyph glyph-name="circumflex" unicode="&#x2c6;" horiz-adv-x="500" d="M238 596 L346 496 L366 496 L273 661 L224 661 L135 496 L154 496 L238 596 Z " />
<glyph glyph-name="caron" unicode="&#x2c7;" horiz-adv-x="500" d="M262 557 L154 657 L134 657 L227 492 L276 492 L365 657 L346 657 L262 557 Z " />
<glyph glyph-name="uni02C9" unicode="&#x2c9;" horiz-adv-x="334" d="M33 565 L301 565 L301 588 L33 588 L33 565 Z " />
<glyph glyph-name="breve" unicode="&#x2d8;" horiz-adv-x="500" d="M123 651 C132 564 181 510 250 510 C319 510 369 565 378 651 L362 651 C343 602 309 580 253 580 C189 580 154 602 139 651 L123 651 Z " />
<glyph glyph-name="dotaccent" unicode="&#x2d9;" horiz-adv-x="500" d="M251 622 C228 622 210 604 210 582 C210 559 228 541 251 541 C273 541 291 559 291 582 C291 604 273 622 251 622 L251 622 Z " />
<glyph glyph-name="ring" unicode="&#x2da;" horiz-adv-x="500" d="M250 668 C201 668 161 628 161 580 C161 530 201 490 250 490 C299 490 339 530 339 579 C339 628 299 668 250 668 L250 668 Z M250 640 C284 640 311 613 311 579 C311 545 284 518 250 518 C216 518 189 545 189 580 C189 613 217 640 250 640 L250 640 Z " />
<glyph glyph-name="ogonek" unicode="&#x2db;" horiz-adv-x="500" d="M318 8 C267 -16 240 -51 240 -93 C240 -136 275 -168 322 -168 C350 -168 372 -160 402 -138 L394 -124 C376 -130 367 -132 354 -132 C322 -132 298 -107 298 -73 C298 -43 311 -20 343 8 L318 8 Z " />
<glyph glyph-name="tilde" unicode="&#x2dc;" horiz-adv-x="500" d="M115 524 C118 568 135 592 164 592 C176 592 188 587 204 574 C260 530 274 523 307 523 C338 523 364 536 381 560 C396 579 401 601 401 639 L387 639 C386 595 368 570 337 570 C321 570 310 576 282 597 C236 633 222 639 194 639 C137 639 99 592 100 524 L115 524 Z " />
<glyph glyph-name="hungarumlaut" unicode="&#x2dd;" horiz-adv-x="500" d="M140 493 L156 493 L344 657 L246 657 L140 493 Z M300 493 L316 493 L504 657 L406 657 L300 493 Z " />
<glyph glyph-name="pi" unicode="&#x3c0;" horiz-adv-x="587" d="M522 350 C526 374 529 388 536 407 L548 442 C549 444 551 450 553 459 L534 459 C515 404 512 403 392 403 L189 403 C121 405 111 400 75 357 L51 325 C51 324 46 318 40 310 L56 303 C95 342 108 349 141 350 L170 350 L170 99 C170 63 156 41 135 41 C116 41 96 50 70 73 L57 62 C85 15 122 -13 157 -13 C173 -13 188 -6 200 7 C217 27 223 49 223 99 L223 350 L370 350 L370 174 C369 31 370 19 386 -16 L392 -16 C418 -5 450 -1 501 0 L501 23 L497 23 C441 25 438 31 440 139 L440 350 L522 350 Z " />
<glyph glyph-name="uni1E1E" unicode="&#x1e1e;" horiz-adv-x="560" d="M547 667 L33 667 L33 644 L45 644 C130 646 136 636 135 501 L135 174 C136 36 129 23 50 23 L29 23 L29 0 L339 0 L339 23 L316 23 C236 23 229 36 231 174 L231 340 L293 340 C369 343 392 320 393 239 L393 229 L418 229 L418 464 L393 464 L393 458 C393 382 371 360 293 362 L231 362 L231 644 L361 644 C467 651 511 613 530 501 L553 501 L547 667 Z M292 827 C264 827 242 805 242 778 C242 749 264 727 292 727 C319 727 342 750 342 777 C342 805 319 827 292 827 L292 827 Z " />
<glyph glyph-name="Wgrave" unicode="&#x1e80;" horiz-adv-x="938" d="M688 -16 L834 486 C871 613 888 640 939 644 L944 644 L944 667 L762 667 L762 644 L766 644 C810 644 832 622 832 580 C832 557 831 551 811 486 L709 132 L513 667 L486 667 L312 132 L193 520 C173 583 172 588 172 603 C172 630 187 640 237 644 L243 644 L243 667 L-7 667 L-7 644 L0 644 C53 642 67 623 101 503 L262 -16 L285 -16 L463 534 L666 -16 L688 -16 Z M429 847 L290 847 L510 724 L530 724 L429 847 Z " />
<glyph glyph-name="wgrave" unicode="&#x1e81;" horiz-adv-x="682" d="M271 606 L132 606 L353 483 L372 483 L271 606 Z M483 -16 L608 304 C632 369 637 375 673 380 L681 380 L681 403 L550 403 L550 380 L560 380 C587 379 600 370 600 354 C600 348 600 348 586 310 L497 82 L376 403 L357 403 L232 82 L151 298 C133 340 131 346 131 356 C131 373 145 380 178 380 L185 380 L185 403 L1 403 L1 380 L8 380 C37 379 50 369 61 337 C64 331 69 316 74 304 L197 -16 L219 -16 L341 304 L461 -16 L483 -16 Z " />
<glyph glyph-name="Wacute" unicode="&#x1e82;" horiz-adv-x="938" d="M688 -16 L834 486 C871 613 888 640 939 644 L944 644 L944 667 L762 667 L762 644 L766 644 C810 644 832 622 832 580 C832 557 831 551 811 486 L709 132 L513 667 L486 667 L312 132 L193 520 C173 583 172 588 172 603 C172 630 187 640 237 644 L243 644 L243 667 L-7 667 L-7 644 L0 644 C53 642 67 623 101 503 L262 -16 L285 -16 L463 534 L666 -16 L688 -16 Z M585 847 L483 724 L503 724 L724 847 L585 847 Z " />
<glyph glyph-name="wacute" unicode="&#x1e83;" horiz-adv-x="682" d="M452 618 L350 495 L370 495 L590 618 L452 618 Z M483 -16 L608 304 C632 369 637 375 673 380 L681 380 L681 403 L550 403 L550 380 L560 380 C587 379 600 370 600 354 C600 348 600 348 586 310 L497 82 L376 403 L357 403 L232 82 L151 298 C133 340 131 346 131 356 C131 373 145 380 178 380 L185 380 L185 403 L1 403 L1 380 L8 380 C37 379 50 369 61 337 C64 331 69 316 74 304 L197 -16 L219 -16 L341 304 L461 -16 L483 -16 Z " />
<glyph glyph-name="Wdieresis" unicode="&#x1e84;" horiz-adv-x="938" d="M688 -16 L834 486 C871 613 888 640 939 644 L944 644 L944 667 L762 667 L762 644 L766 644 C810 644 832 622 832 580 C832 557 831 551 811 486 L709 132 L513 667 L486 667 L312 132 L193 520 C173 583 172 588 172 603 C172 630 187 640 237 644 L243 644 L243 667 L-7 667 L-7 644 L0 644 C53 642 67 623 101 503 L262 -16 L285 -16 L463 534 L666 -16 L688 -16 Z M374 827 C347 827 324 805 324 778 C324 749 346 727 374 727 C402 727 424 750 424 777 C424 805 402 827 374 827 L374 827 Z M618 827 C591 827 568 805 568 778 C568 749 590 727 618 727 C645 727 668 750 668 777 C668 805 646 827 618 827 L618 827 Z " />
<glyph glyph-name="wdieresis" unicode="&#x1e85;" horiz-adv-x="682" d="M483 -16 L608 304 C632 369 637 375 673 380 L681 380 L681 403 L550 403 L550 380 L560 380 C587 379 600 370 600 354 C600 348 600 348 586 310 L497 82 L376 403 L357 403 L232 82 L151 298 C133 340 131 346 131 356 C131 373 145 380 178 380 L185 380 L185 403 L1 403 L1 380 L8 380 C37 379 50 369 61 337 C64 331 69 316 74 304 L197 -16 L219 -16 L341 304 L461 -16 L483 -16 Z M286 622 C263 622 245 604 245 582 C245 559 263 541 286 541 C308 541 326 559 326 582 C326 604 308 622 286 622 L286 622 Z M466 622 C443 622 425 604 425 582 C425 559 443 541 466 541 C488 541 506 559 506 582 C506 604 488 622 466 622 L466 622 Z " />
<glyph glyph-name="Ygrave" unicode="&#x1ef2;" horiz-adv-x="655" d="M366 292 L207 555 C184 593 182 598 182 610 C182 633 204 644 252 644 L257 644 L257 667 L-13 667 L-13 644 L-6 644 C45 640 51 635 114 529 L281 256 L281 173 C282 36 275 23 196 23 L185 23 L185 0 L470 0 L470 23 L460 23 C381 23 374 36 376 173 L376 262 L525 511 C579 605 606 631 662 643 L669 644 L669 667 L451 667 L451 644 L456 644 C501 644 530 623 530 589 C530 569 525 559 498 512 L366 292 Z M274 847 L135 847 L355 724 L375 724 L274 847 Z " />
<glyph glyph-name="ygrave" unicode="&#x1ef3;" horiz-adv-x="461" d="M170 635 L31 635 L251 512 L271 512 L170 635 Z M261 76 L150 312 C131 353 131 353 131 360 C131 373 144 379 175 380 L180 380 L180 403 L-5 403 L-5 380 L3 380 C39 378 48 369 73 315 L225 -10 L187 -106 C172 -140 167 -144 127 -162 C90 -179 76 -195 76 -219 C76 -236 89 -248 108 -248 C141 -248 163 -221 196 -141 L376 292 C403 362 416 376 457 380 L462 380 L462 403 L320 403 L320 380 L328 380 C356 380 375 369 375 355 C375 347 375 347 354 300 L261 76 Z " />
<glyph glyph-name="uni2011" unicode="&#x2011;" horiz-adv-x="315" d="M35 233 L35 186 L276 186 L276 233 L35 233 Z " />
<glyph glyph-name="figuredash" unicode="&#x2012;" horiz-adv-x="555" d="M20 223 L20 200 L535 200 L535 223 L20 223 Z " />
<glyph glyph-name="endash" unicode="&#x2013;" horiz-adv-x="555" d="M20 223 L20 200 L535 200 L535 223 L20 223 Z " />
<glyph glyph-name="emdash" unicode="&#x2014;" horiz-adv-x="859" d="M20 223 L20 200 L839 200 L839 223 L20 223 Z " />
<glyph glyph-name="afii00208" unicode="&#x2015;" horiz-adv-x="859" d="M20 223 L20 200 L839 200 L839 223 L20 223 Z " />
<glyph glyph-name="underscoredbl" unicode="&#x2017;" horiz-adv-x="500" d="M0 -58 L0 -105 L500 -105 L500 -58 L0 -58 Z M0 -174 L0 -222 L500 -222 L500 -174 L0 -174 Z " />
<glyph glyph-name="quoteleft" unicode="&#x2018;" horiz-adv-x="252" d="M190 667 C110 650 65 596 65 517 C65 455 98 409 143 409 C172 409 195 431 195 458 C195 486 172 508 143 508 C136 508 132 507 123 505 C119 504 116 503 113 503 C101 503 95 514 95 534 C95 591 129 629 190 641 L190 667 Z " />
<glyph glyph-name="quoteright" unicode="&#x2019;" horiz-adv-x="220" d="M54 409 C135 427 179 480 179 559 C179 621 146 667 101 667 C72 667 49 645 49 618 C49 590 72 568 101 568 C108 568 112 569 121 571 C125 572 128 573 131 573 C143 573 149 562 149 542 C149 485 117 448 54 435 L54 409 Z " />
<glyph glyph-name="quotesinglbase" unicode="&#x201a;" horiz-adv-x="252" d="M70 -168 C150 -151 195 -98 195 -19 C195 43 162 89 117 89 C88 89 65 67 65 40 C65 12 88 -10 117 -10 C124 -10 128 -9 137 -7 C141 -6 144 -5 147 -5 C159 -5 165 -16 165 -36 C165 -93 132 -130 70 -143 L70 -168 Z " />
<glyph glyph-name="quotereversed" unicode="&#x201b;" horiz-adv-x="461" d="M170 635 L31 635 L251 512 L271 512 L170 635 Z M261 76 L150 312 C131 353 131 353 131 360 C131 373 144 379 175 380 L180 380 L180 403 L-5 403 L-5 380 L3 380 C39 378 48 369 73 315 L225 -10 L187 -106 C172 -140 167 -144 127 -162 C90 -179 76 -195 76 -219 C76 -236 89 -248 108 -248 C141 -248 163 -221 196 -141 L376 292 C403 362 416 376 457 380 L462 380 L462 403 L320 403 L320 380 L328 380 C356 380 375 369 375 355 C375 347 375 347 354 300 L261 76 Z " />
<glyph glyph-name="quotedblleft" unicode="&#x201c;" horiz-adv-x="461" d="M189 667 C109 650 64 596 64 517 C64 455 97 409 142 409 C171 409 194 431 194 458 C194 486 171 508 142 508 C135 508 131 507 122 505 C118 504 115 503 112 503 C100 503 94 514 94 534 C94 591 128 629 189 641 L189 667 Z M412 667 C331 650 286 596 286 517 C286 455 320 409 365 409 C394 409 417 431 417 458 C417 486 394 508 364 508 C358 508 354 507 344 505 C340 504 337 503 334 503 C322 503 316 514 316 534 C316 591 350 629 412 641 L412 667 Z " />
<glyph glyph-name="quotedblright" unicode="&#x201d;" horiz-adv-x="461" d="M54 409 C135 427 179 480 179 559 C179 621 146 667 101 667 C72 667 49 645 49 618 C49 590 72 568 101 568 C108 568 112 569 121 571 C125 572 128 573 131 573 C143 573 149 562 149 542 C149 485 117 448 54 435 L54 409 Z M277 409 C358 428 402 480 402 559 C402 621 369 667 323 667 C294 667 271 645 271 618 C271 590 294 568 324 568 C330 568 334 569 344 571 C348 572 351 573 354 573 C366 573 372 562 372 542 C372 485 339 448 277 435 L277 409 Z " />
<glyph glyph-name="quotedblbase" unicode="&#x201e;" horiz-adv-x="461" d="M54 -168 C134 -151 179 -97 179 -18 C179 44 146 90 101 90 C72 90 49 68 49 41 C49 13 72 -9 101 -9 C108 -9 111 -8 121 -6 C125 -5 128 -4 131 -4 C143 -4 149 -15 149 -35 C149 -92 116 -130 54 -142 L54 -168 Z M277 -168 C357 -151 402 -97 402 -18 C402 44 369 90 323 90 C294 90 271 68 271 41 C271 13 294 -9 324 -9 C330 -9 333 -8 344 -6 C347 -5 351 -4 354 -4 C366 -4 372 -15 372 -35 C372 -92 338 -130 277 -142 L277 -168 Z " />
<glyph glyph-name="dagger" unicode="&#x2020;" horiz-adv-x="430" d="M221 -240 L221 -20 C221 -12 221 11 222 36 L225 111 L228 174 C232 256 232 256 232 279 C232 311 230 346 226 374 L224 386 C222 395 222 395 222 402 C221 409 221 412 221 423 C252 422 269 419 285 412 C322 393 328 391 348 391 C376 391 396 409 396 434 C396 458 376 475 347 475 C335 475 322 472 305 465 C266 450 246 445 221 445 C223 482 231 515 246 554 C255 578 258 589 258 606 C258 642 238 667 209 667 C179 667 160 645 160 609 C160 590 163 577 172 552 C191 497 196 479 197 445 C165 447 157 449 120 463 C97 472 89 474 76 474 C50 474 30 456 30 432 C30 409 50 392 78 392 C92 392 103 395 122 403 L146 412 C154 416 162 418 170 420 C176 421 181 421 197 423 C197 409 196 399 194 378 C188 339 186 310 186 279 C186 261 187 239 191 176 C196 88 197 65 197 -22 L197 -240 L221 -240 Z " />
<glyph glyph-name="daggerdbl" unicode="&#x2021;" horiz-adv-x="430" d="M224 259 C224 268 224 268 227 290 C231 334 232 354 232 377 C232 408 229 430 222 463 C235 463 252 459 276 451 C316 437 325 434 341 434 C369 434 388 449 388 473 C388 496 370 510 341 510 C324 510 310 507 287 499 C258 488 240 484 222 483 C224 504 230 530 241 562 C253 598 255 606 255 621 C255 650 236 672 213 672 C188 672 170 651 170 622 C170 607 173 594 184 566 C197 530 205 498 204 483 C180 485 164 488 135 499 C108 509 98 512 82 512 C55 512 35 495 35 472 C35 449 55 432 83 432 C95 432 113 436 133 444 C161 455 165 456 204 463 C196 426 194 404 194 372 C194 356 196 334 199 313 C202 292 203 278 204 259 L224 259 Z M204 175 C203 129 203 112 200 94 C193 51 193 47 193 31 C193 7 196 -12 204 -31 C188 -31 166 -25 127 -11 C106 -3 97 -1 84 -1 C56 -1 36 -17 36 -40 C36 -63 54 -78 84 -78 C95 -78 102 -77 121 -71 C162 -57 166 -56 174 -54 C184 -51 192 -50 204 -49 C204 -67 197 -91 180 -138 C172 -160 169 -173 169 -187 C169 -217 189 -240 215 -240 C239 -240 257 -217 257 -187 C257 -174 253 -154 248 -137 C234 -99 225 -65 224 -49 C246 -50 256 -52 285 -62 C321 -74 327 -76 341 -76 C369 -76 390 -59 390 -37 C390 -16 370 1 344 1 C335 1 323 -2 307 -8 C273 -20 241 -29 224 -31 C231 -11 234 8 234 33 C234 46 233 64 231 75 C227 106 225 129 224 175 L204 175 Z " />
<glyph glyph-name="bullet" unicode="&#x2022;" horiz-adv-x="667" d="M336 479 C258 479 196 417 196 339 C196 263 258 200 334 200 C410 200 471 262 471 340 C471 416 410 479 336 479 L336 479 Z " />
<glyph glyph-name="ellipsis" unicode="&#x2026;" horiz-adv-x="1007" d="M171 90 C141 90 117 67 117 37 C117 8 141 -16 170 -16 C199 -16 223 8 223 37 C223 66 199 90 171 90 L171 90 Z M505 90 C475 90 451 67 451 37 C451 8 475 -16 504 -16 C533 -16 557 8 557 37 C557 66 533 90 505 90 L505 90 Z M839 90 C809 90 785 67 785 37 C785 8 809 -16 838 -16 C867 -16 891 8 891 37 C891 66 867 90 839 90 L839 90 Z " />
<glyph glyph-name="perthousand" unicode="&#x2030;" horiz-adv-x="984" d="M160 677 C125 677 95 665 74 641 C45 609 27 557 27 504 C27 401 77 336 158 336 C241 336 293 403 293 508 C293 613 242 677 160 677 L160 677 Z M160 660 C207 660 225 619 225 512 C225 403 205 354 160 354 C134 354 112 372 104 401 C98 424 95 459 95 515 C95 617 114 660 160 660 L160 660 Z M176 0 L519 644 L488 644 L146 0 L176 0 Z M505 331 C470 331 440 319 419 295 C390 263 372 211 372 158 C372 55 422 -10 503 -10 C586 -10 638 57 638 162 C638 267 587 331 505 331 L505 331 Z M505 314 C552 314 570 273 570 166 C570 57 550 8 505 8 C479 8 457 26 449 55 C443 78 440 113 440 169 C440 271 459 314 505 314 L505 314 Z M824 331 C789 331 759 319 738 295 C709 263 691 211 691 158 C691 55 741 -10 822 -10 C905 -10 957 57 957 162 C957 267 906 331 824 331 L824 331 Z M824 314 C871 314 889 273 889 166 C889 57 869 8 824 8 C798 8 776 26 768 55 C762 78 759 113 759 169 C759 271 778 314 824 314 L824 314 Z " />
<glyph glyph-name="guilsinglleft" unicode="&#x2039;" horiz-adv-x="273" d="M34 215 L216 23 L243 23 L129 215 L243 403 L216 403 L34 215 Z " />
<glyph glyph-name="guilsinglright" unicode="&#x203a;" horiz-adv-x="273" d="M238 215 L55 403 L29 403 L142 215 L29 23 L55 23 L238 215 Z " />
<glyph glyph-name="uni203E" unicode="&#x203e;" horiz-adv-x="500" d="M0 864 L0 796 L500 796 L500 864 L0 864 Z " />
<glyph glyph-name="fraction" unicode="&#x2044;" horiz-adv-x="132" d="M-90 0 L252 644 L222 644 L-120 0 L-90 0 Z " />
<glyph glyph-name="franc" unicode="&#x20a3;" horiz-adv-x="712" d="M547 667 L33 667 L33 644 L45 644 C130 646 136 636 135 501 L135 174 C136 36 129 23 50 23 L29 23 L29 0 L339 0 L339 23 L316 23 C236 23 229 36 231 174 L231 340 L293 340 C369 343 392 320 393 239 L393 229 L418 229 L418 464 L393 464 L393 458 C393 382 371 360 293 362 L231 362 L231 644 L361 644 C467 651 511 613 530 501 L553 501 L547 667 Z M432 322 L440 322 C492 320 494 316 493 221 L493 121 C494 26 492 21 440 20 L432 20 L432 0 L619 0 L619 20 L607 20 C556 21 553 26 555 121 L555 184 C555 243 559 260 578 289 C596 316 622 336 640 336 C651 336 658 330 663 315 C671 292 680 283 696 283 C712 283 725 296 725 313 C725 342 697 367 664 367 C620 367 572 329 551 277 C550 316 546 346 537 367 C501 355 457 345 432 342 L432 322 Z " />
<glyph glyph-name="lira" unicode="&#x20a4;" horiz-adv-x="703" d="M184 198 C155 95 144 60 133 30 C68 -12 21 -65 21 -98 C21 -113 33 -124 48 -124 C72 -124 104 -87 133 -27 L148 5 L152 14 C164 20 173 23 184 23 C212 23 237 8 282 -40 C340 -101 380 -123 434 -123 C526 -123 618 -34 618 56 C618 93 600 120 576 120 C560 120 546 108 546 93 C546 84 548 77 555 66 C569 44 574 30 574 12 C574 -35 526 -77 473 -77 C440 -77 416 -64 373 -23 C312 36 276 55 226 55 C204 55 188 51 170 43 C172 47 182 65 212 118 C223 140 234 161 250 198 L435 198 L443 221 L260 221 C274 254 280 269 292 301 L471 301 L480 324 L301 324 C318 372 335 424 357 500 C395 627 406 655 436 694 C467 733 508 756 548 756 C585 756 612 742 629 715 C648 684 654 679 670 679 C685 679 696 691 696 708 C696 749 639 781 567 781 C466 781 378 710 312 575 C285 518 242 403 222 332 L221 328 L220 324 L70 324 L62 301 L214 301 L200 253 L194 232 C193 227 193 227 191 221 L34 221 L26 198 L184 198 Z " />
<glyph glyph-name="peseta" unicode="&#x20a7;" horiz-adv-x="903" d="M228 314 L301 314 C392 314 439 322 475 343 C526 372 556 428 556 493 C556 559 531 604 476 637 C431 664 376 674 269 674 C223 674 216 674 113 670 L30 667 L30 644 L42 644 C127 646 134 636 132 501 L132 173 C133 36 126 23 47 23 L30 23 L30 0 L335 0 L335 23 L313 23 C234 23 226 36 228 173 L228 314 Z M228 338 L228 648 C244 649 254 650 275 650 C340 650 373 642 401 620 C433 595 452 547 452 490 C452 434 433 391 397 365 C368 344 341 338 276 338 L228 338 Z M668 291 L668 308 L574 308 L574 405 L562 405 C554 349 518 309 474 308 L474 291 L519 291 L519 114 C519 56 521 41 531 23 C543 -1 570 -16 599 -16 C634 -16 665 3 680 35 L668 42 C653 20 639 10 620 10 C604 10 589 20 581 35 C576 47 574 61 574 102 L574 291 L668 291 Z M701 -13 L716 -13 C719 -3 728 16 732 19 C760 -8 778 -16 808 -16 C863 -16 903 22 903 75 C903 127 880 154 810 186 C753 212 736 228 736 256 C736 282 758 303 787 303 C824 303 856 270 868 218 L882 218 L882 315 L868 315 C861 298 857 291 853 287 C835 309 813 320 786 320 C740 320 702 281 702 233 C702 191 725 165 790 133 C851 104 866 88 866 56 C866 23 843 0 809 0 C764 0 733 30 716 89 L701 89 L701 -13 Z " />
<glyph glyph-name="Euro" unicode="&#x20ac;" horiz-adv-x="504" d="M188 381 C199 558 248 655 327 655 C366 655 407 629 430 589 C450 555 459 527 471 457 L497 457 L493 667 L472 667 C469 639 463 611 455 589 C422 645 362 680 299 680 C178 680 96 569 77 381 L19 381 L7 352 L75 352 C74 341 74 331 74 324 C74 305 74 300 75 288 L19 288 L7 259 L77 259 C96 89 183 -13 309 -13 C388 -13 457 27 497 95 L497 145 C475 97 456 69 435 52 C405 29 369 15 336 15 C256 15 201 105 189 259 L373 259 L386 288 L187 288 L187 329 L187 352 L415 352 L427 381 L188 381 Z " />
<glyph glyph-name="uni2101" unicode="&#x2101;" horiz-adv-x="912" d="M355 0 L702 652 L662 652 L316 0 L355 0 Z M258 407 L288 336 C301 306 301 305 301 299 C301 285 292 281 260 281 L252 281 L252 260 L417 260 L417 281 L410 282 C379 287 376 291 350 353 L215 674 L198 674 L81 393 L67 359 C44 301 35 289 5 282 L-4 281 L-4 260 L123 260 L123 281 L114 281 C93 281 79 295 79 314 C79 328 82 337 102 384 L111 407 L258 407 Z M250 429 L120 429 L185 585 L250 429 Z M600 4 L622 4 C625 21 629 32 634 41 C666 8 700 -7 744 -7 C821 -7 873 41 873 113 C873 147 861 177 838 198 C822 213 804 223 743 250 C671 282 650 301 650 336 C650 371 676 394 714 394 C762 394 803 358 816 304 L816 301 L818 295 L838 295 L838 408 L817 408 C816 395 814 387 806 375 C776 405 751 416 713 416 C650 416 603 372 603 312 C603 255 634 221 716 186 C769 163 779 158 794 146 C813 131 823 112 823 90 C823 47 787 16 739 16 C677 16 638 58 622 141 L600 141 L600 4 Z " />
<glyph glyph-name="afii61248" unicode="&#x2105;" horiz-adv-x="252" d="M125 256 C96 256 72 232 72 204 C72 174 96 150 125 150 C154 150 178 174 178 203 C178 232 154 256 125 256 L125 256 Z " />
<glyph glyph-name="afii61289" unicode="&#x2113;" horiz-adv-x="500" d="M249 269 C306 329 340 370 364 411 C402 475 425 545 425 598 C425 647 400 679 362 679 C317 679 278 638 247 559 C215 481 189 383 165 258 C155 246 125 214 115 206 C100 193 95 186 95 179 C95 171 102 163 109 163 C115 163 127 172 158 201 C149 119 148 102 148 74 C148 19 173 -14 215 -14 C243 -14 266 1 291 34 C307 56 317 79 317 94 C317 104 312 109 304 109 C296 109 291 105 285 91 C268 54 251 36 234 36 C222 36 216 44 216 61 C216 95 221 126 246 256 L249 269 Z M260 334 C281 449 302 541 321 594 C330 620 347 638 362 638 C376 638 385 620 385 593 C385 516 339 420 260 334 L260 334 Z " />
<glyph glyph-name="afii61352" unicode="&#x2116;" horiz-adv-x="1027" d="M887 506 C794 506 728 435 728 336 C728 242 796 171 887 171 C978 171 1045 242 1045 338 C1045 435 978 506 887 506 L887 506 Z M623 -15 L644 -15 L644 537 C640 608 663 635 740 644 L748 644 L748 667 L506 667 L506 644 L519 644 C599 638 623 615 620 544 L620 145 L225 667 L28 667 L28 644 L34 644 C119 646 126 636 127 501 L127 147 C127 87 126 77 119 64 C109 43 72 27 31 23 L20 23 L20 0 L269 0 L269 23 L261 23 C183 26 150 52 152 108 L151 147 L151 610 L623 -15 Z M887 478 C932 478 954 433 954 338 C954 242 933 199 887 199 C840 199 820 241 820 339 C820 433 842 478 887 478 L887 478 Z M1045 105 L728 105 L728 70 L1045 70 L1045 105 Z " />
<glyph glyph-name="uni2117" unicode="&#x2117;" horiz-adv-x="252" d="M109 780 C87 780 68 761 68 739 C68 715 86 696 110 696 C132 696 151 715 151 738 C151 761 132 780 109 780 L109 780 Z M145 571 L136 571 C122 565 61 553 26 550 L26 532 L37 532 C84 533 88 526 88 443 L88 344 C89 255 87 252 39 250 L26 250 L26 232 L201 232 L201 250 L193 250 C146 252 143 256 145 344 L145 571 Z " />
<glyph glyph-name="trademark" unicode="&#x2122;" horiz-adv-x="859" d="M85 287 L270 287 L270 304 L245 304 C212 304 206 310 207 348 L207 647 L245 647 C304 647 320 630 322 568 L339 568 L339 667 L16 667 L16 568 L34 568 C35 630 51 647 110 647 L149 647 L149 348 C150 310 145 304 111 304 L85 304 L85 287 Z M358 667 L358 650 C402 649 410 645 409 621 L409 345 C410 318 396 306 360 304 L360 287 L481 287 L481 304 C445 307 430 319 431 346 L431 631 L576 287 L586 287 L729 621 L729 345 C730 314 722 305 691 304 L676 304 L676 287 L835 287 L835 304 L821 304 C792 304 784 314 785 345 L785 609 C784 640 792 650 821 650 L837 650 L837 667 L728 667 L600 369 L476 667 L358 667 Z " />
<glyph glyph-name="uni2126" unicode="&#x2126;" horiz-adv-x="768" d="M326 0 L308 155 C230 199 180 288 180 382 C180 434 195 493 221 540 C257 605 317 642 385 642 C453 642 513 605 549 540 C575 493 590 434 590 382 C590 288 540 199 462 155 L444 0 L736 0 L736 153 L712 153 C704 108 684 90 643 90 L497 90 L500 128 C535 141 557 151 580 166 C657 215 702 296 702 382 C702 449 673 522 625 578 C564 648 480 686 385 686 C290 686 206 648 145 578 C97 522 68 449 68 382 C68 296 113 215 190 166 C213 151 235 141 270 128 L273 90 L127 90 C86 90 66 108 58 153 L34 153 L34 0 L326 0 Z " />
<glyph glyph-name="estimated" unicode="&#x212e;" horiz-adv-x="513" d="M494 248 C493 311 492 322 485 355 C464 459 378 525 265 525 C121 525 29 420 29 255 C29 90 117 -9 263 -9 C376 -9 449 43 480 145 L431 145 C398 73 345 40 265 40 C221 40 184 52 159 75 C141 91 132 107 121 145 L121 248 L494 248 Z M416 288 L123 288 L123 378 C157 450 194 476 265 476 C321 476 359 459 394 418 C405 404 409 397 416 378 L416 288 Z " />
</font>
</svg>
