<?xml version="1.0" encoding="UTF-8"?>
<svg xmlns="http://www.w3.org/2000/svg" xmlns:xlink="http://www.w3.org/1999/xlink" version="1.2" >
<font id="Baskerville URW Narrow Bold">
<font-face  font-family="Baskerville URW Narrow" units-per-em="1000" ascent="678" descent="-322" font-style="normal" font-weight="700" font-stretch="semi-condensed" cap-height="666" x-height="403" underline-position="-92" underline-thickness="73" />
<missing-glyph  horiz-adv-x="250" d="" />
<glyph glyph-name="NULL" d="" />
<glyph glyph-name="CR" unicode="&#xd;" horiz-adv-x="250" d="" />
<glyph glyph-name="space" unicode="&#x20;" horiz-adv-x="250" d="" />
<glyph glyph-name="exclam" unicode="&#x21;" horiz-adv-x="282" d="M158 210 L197 551 C199 576 201 597 201 609 C201 649 178 673 139 673 C97 673 74 650 74 609 C74 598 76 574 79 549 L117 210 L158 210 Z M137 136 C97 136 64 102 64 59 C64 18 97 -17 136 -17 C177 -17 210 17 210 60 C210 102 177 136 137 136 L137 136 Z " />
<glyph glyph-name="quotedbl" unicode="&#x22;" horiz-adv-x="416" d="M135 399 L174 667 L39 667 L77 399 L135 399 Z M339 399 L378 667 L243 667 L281 399 L339 399 Z " />
<glyph glyph-name="numbersign" unicode="&#x23;" horiz-adv-x="551" d="M367 227 L471 227 L480 283 L381 283 L407 397 L511 397 L520 453 L421 453 L472 667 L414 667 L363 453 L251 453 L302 667 L245 667 L193 453 L82 453 L73 397 L179 397 L153 283 L41 283 L32 227 L139 227 L84 0 L142 0 L197 227 L308 227 L254 0 L312 0 L367 227 Z M348 397 L323 283 L212 283 L237 397 L348 397 Z " />
<glyph glyph-name="dollar" unicode="&#x24;" horiz-adv-x="505" d="M266 -123 L266 -13 C383 -1 458 77 458 185 C458 272 410 331 300 381 C274 393 274 393 266 397 L266 609 C311 601 334 582 343 542 C356 497 372 478 396 478 C419 478 439 500 439 525 C439 591 361 648 266 652 L266 680 L221 680 L221 650 C178 644 149 634 122 614 C82 585 56 531 56 476 C56 423 78 375 121 339 C141 322 156 313 205 289 C212 286 217 283 221 281 L221 31 C179 38 156 58 142 100 C130 132 117 144 94 144 C69 144 50 123 50 97 C50 38 120 -8 221 -15 L221 -123 L266 -123 Z M266 259 C269 257 273 255 274 254 C275 254 286 247 297 241 C345 214 364 185 364 139 C364 80 327 39 266 30 L266 259 Z M221 416 L188 433 C155 455 138 483 138 518 C138 562 168 599 208 605 L215 606 C216 606 218 607 221 608 L221 416 Z " />
<glyph glyph-name="percent" unicode="&#x25;" horiz-adv-x="709" d="M170 680 C135 680 103 669 81 648 C48 616 27 560 27 505 C27 399 81 334 167 334 C204 334 236 345 259 366 C290 395 311 451 311 507 C311 558 294 609 268 639 C244 667 212 680 170 680 L170 680 Z M170 646 C201 646 215 605 215 517 C215 411 201 366 169 366 C134 366 123 404 123 521 C123 606 138 646 169 646 L170 646 Z M219 0 L545 660 L490 660 L165 0 L219 0 Z M541 333 C506 333 474 322 452 301 C419 269 398 214 398 159 C398 53 452 -12 539 -12 C576 -12 607 -1 630 20 C661 49 682 105 682 161 C682 211 665 263 639 292 C615 320 583 333 541 333 L541 333 Z M541 300 C572 300 586 259 586 172 C586 67 572 22 541 22 C505 22 494 59 494 176 C494 260 509 300 540 300 L541 300 Z " />
<glyph glyph-name="ampersand" unicode="&#x26;" horiz-adv-x="714" d="M187 372 L189 368 C84 301 41 242 41 165 C41 66 123 -15 223 -15 C283 -15 337 10 401 67 C448 13 500 -14 556 -14 C603 -14 650 8 672 41 C686 63 693 86 697 121 L655 121 C647 79 629 61 596 61 C562 61 530 85 490 143 C486 149 485 150 480 157 C503 188 513 204 538 254 C579 328 603 352 651 363 L651 406 L452 406 L452 363 C486 360 505 345 505 320 L505 319 C504 317 504 317 504 316 L504 315 L504 314 C505 294 480 239 451 196 C388 287 369 314 314 391 C386 431 425 482 425 537 C425 606 368 654 288 654 C199 654 140 596 140 510 C140 470 153 429 182 379 L187 372 Z M214 327 C259 265 291 218 370 103 C345 76 316 62 286 62 C222 62 157 144 157 223 C157 260 178 297 214 327 L214 327 Z M288 431 C248 484 232 518 232 549 C232 584 257 609 292 609 C332 609 361 577 361 535 C361 495 340 466 288 431 L288 431 Z " />
<glyph glyph-name="quotesingle" unicode="&#x27;" horiz-adv-x="232" d="M147 399 L185 667 L46 667 L85 399 L147 399 Z " />
<glyph glyph-name="parenleft" unicode="&#x28;" horiz-adv-x="295" d="M282 -243 C193 -130 140 44 140 220 C140 393 185 541 280 677 L221 677 C128 557 76 392 76 218 C76 46 135 -138 222 -243 L282 -243 Z " />
<glyph glyph-name="parenright" unicode="&#x29;" horiz-adv-x="295" d="M73 -243 C162 -135 220 46 220 218 C220 391 169 553 75 677 L16 677 C112 536 156 393 156 220 C156 45 103 -130 14 -243 L73 -243 Z " />
<glyph glyph-name="asterisk" unicode="&#x2a;" horiz-adv-x="472" d="M206 428 C195 413 169 396 130 378 C82 357 63 337 63 309 C63 279 91 252 123 252 C152 252 170 272 184 320 C199 369 216 397 234 406 C245 402 266 372 276 347 C301 272 316 252 346 252 C377 252 405 279 405 309 C405 338 385 358 333 381 C295 398 277 410 262 428 C281 438 313 446 334 446 C340 446 347 446 358 444 C366 443 373 443 380 443 C417 443 446 469 446 503 C446 536 422 564 394 564 C375 564 356 553 332 528 C294 489 279 477 251 464 C250 469 250 472 250 474 C250 494 257 524 269 555 C284 594 287 607 287 624 C287 653 264 676 233 676 C203 676 179 653 179 624 C179 607 187 578 200 547 C211 521 217 496 217 476 C217 474 217 470 216 464 C198 469 174 488 146 516 C114 550 96 561 75 561 C48 561 24 533 24 502 C24 466 53 442 96 442 C101 442 105 442 109 443 C133 445 133 445 136 445 C156 444 192 436 206 428 L206 428 Z " />
<glyph glyph-name="plus" unicode="&#x2b;" horiz-adv-x="475" d="M9 396 L9 323 L199 323 L199 123 L275 123 L275 323 L467 323 L467 396 L275 396 L275 596 L199 596 L199 396 L9 396 Z " />
<glyph glyph-name="comma" unicode="&#x2c;" horiz-adv-x="292" d="M56 -197 C159 -187 228 -108 228 -1 C228 79 189 133 131 133 C88 133 57 101 57 55 C57 15 84 -15 119 -15 C124 -15 130 -14 136 -13 C148 -10 148 -10 151 -10 C162 -10 170 -21 170 -36 C170 -91 123 -138 56 -150 L56 -197 Z " />
<glyph glyph-name="hyphen" unicode="&#x2d;" horiz-adv-x="319" d="M30 247 L30 182 L290 182 L290 247 L30 247 Z " />
<glyph glyph-name="period" unicode="&#x2e;" horiz-adv-x="292" d="M145 136 C105 136 72 102 72 59 C72 18 105 -17 144 -17 C185 -17 218 17 218 60 C218 102 185 136 145 136 L145 136 Z " />
<glyph glyph-name="slash" unicode="&#x2f;" horiz-adv-x="302" d="M270 681 L190 681 L-14 -253 L65 -253 L270 681 Z " />
<glyph glyph-name="zero" unicode="0" horiz-adv-x="505" d="M252 672 C180 672 117 629 80 554 C51 497 37 420 37 325 C37 223 53 150 89 87 C125 23 186 -15 251 -15 C320 -15 377 21 417 90 C452 151 467 225 467 331 C467 436 452 507 416 569 C378 635 319 672 252 672 L252 672 Z M334 246 C334 148 327 95 310 65 C298 44 277 31 254 31 C224 31 203 49 190 88 C178 125 171 208 171 331 C171 432 177 522 186 556 C198 603 220 627 253 627 C276 627 297 614 309 593 C326 563 333 509 333 413 L333 388 L333 329 L333 270 C334 262 334 257 334 255 L334 246 Z " />
<glyph glyph-name="one" unicode="1" horiz-adv-x="505" d="M112 579 L125 579 C183 578 196 561 195 488 L195 122 C192 58 183 44 140 44 L120 44 L120 0 L398 0 L398 44 L378 44 C332 45 323 59 324 131 L324 672 L282 672 C233 638 188 625 112 622 L112 579 Z " />
<glyph glyph-name="two" unicode="2" horiz-adv-x="505" d="M54 0 L352 0 C379 0 388 -5 388 -19 C388 -23 388 -28 387 -33 L385 -42 L385 -44 L425 -44 L450 86 L172 86 C205 119 234 150 285 208 C419 359 448 409 448 487 C448 597 368 672 250 672 C142 672 54 601 54 514 C54 470 75 415 92 416 C99 416 111 421 126 430 C127 431 129 432 132 433 C149 442 156 449 156 457 L156 458 L156 459 L156 461 C155 466 154 470 152 474 C141 491 136 511 136 531 C136 584 171 624 219 624 C274 624 311 572 311 495 C311 406 280 322 207 216 C165 154 115 98 54 41 L54 0 Z " />
<glyph glyph-name="three" unicode="3" horiz-adv-x="505" d="M295 380 C294 380 293 381 293 381 C293 386 306 396 325 404 C382 431 431 497 431 548 C431 621 361 672 262 672 C151 672 63 605 63 520 C63 482 80 451 100 451 C108 451 108 451 125 460 L135 464 C160 475 171 482 171 486 C171 489 169 492 166 498 C152 519 148 529 148 546 C148 589 184 625 228 625 C273 625 302 588 302 530 C302 488 294 464 269 435 C241 403 219 382 199 367 C168 346 157 333 157 321 C157 307 167 294 178 294 C186 294 193 299 207 314 C221 331 235 338 251 338 C293 338 313 295 313 210 C313 146 306 107 291 80 C273 49 240 29 205 29 C173 29 154 45 142 82 C128 125 115 138 89 138 C62 138 40 114 40 86 C40 28 108 -15 199 -15 C342 -15 449 82 449 213 C449 312 391 381 307 381 C304 381 301 381 298 380 L295 380 Z " />
<glyph glyph-name="four" unicode="4" horiz-adv-x="505" d="M248 226 L248 129 C249 61 238 45 191 44 L171 44 L171 0 L451 0 L451 44 L433 44 C387 45 377 62 378 132 L378 226 L470 226 L482 314 L456 314 L452 304 C442 282 440 281 419 281 L415 281 L407 281 L406 281 L393 281 L378 281 L378 669 L311 669 L32 285 L32 226 L248 226 Z M248 281 L81 281 L248 518 L248 281 L248 281 Z " />
<glyph glyph-name="five" unicode="5" horiz-adv-x="505" d="M137 337 C158 377 181 395 215 395 C244 395 271 380 285 356 C301 328 307 291 307 226 C307 94 273 30 204 30 C171 30 149 46 134 79 C114 126 103 137 79 137 C54 137 32 114 32 87 C32 31 107 -15 199 -15 C342 -15 445 85 445 226 C445 352 362 445 249 445 C204 445 166 429 135 397 L140 570 L309 570 L321 570 L322 570 L326 570 L327 570 C352 568 363 582 393 660 L102 660 L90 337 L137 337 Z " />
<glyph glyph-name="six" unicode="6" horiz-adv-x="505" d="M180 379 C180 529 225 624 295 624 C322 624 339 614 355 587 C374 557 388 546 408 546 C433 546 453 567 453 593 C453 637 396 672 326 672 C160 672 46 514 46 284 C46 102 132 -15 266 -15 C383 -15 471 81 471 209 C471 331 394 416 282 416 C238 416 211 406 180 379 L180 379 Z M258 373 C281 373 304 360 315 341 C335 307 341 268 341 180 C341 79 316 30 264 30 C205 30 177 99 177 245 C177 327 206 373 258 373 L258 373 Z " />
<glyph glyph-name="seven" unicode="7" horiz-adv-x="505" d="M456 660 L180 660 C155 660 147 664 147 676 C147 679 147 680 148 683 L109 683 L54 503 C61 502 69 502 74 502 C80 502 81 502 89 504 C96 506 96 506 97 510 C108 548 119 556 158 556 L160 556 L167 556 L378 556 L187 131 L184 125 L178 112 C176 106 173 99 169 91 C158 68 152 46 152 31 C152 6 176 -15 203 -15 C238 -15 260 13 282 86 L456 660 Z " />
<glyph glyph-name="eight" unicode="8" horiz-adv-x="505" d="M315 349 C404 373 450 427 450 506 C450 605 370 674 254 674 C135 674 57 607 57 506 C57 427 107 369 194 349 C92 330 39 270 39 174 C39 125 54 83 83 51 C120 11 186 -15 254 -15 C384 -15 468 60 468 177 C468 272 415 332 315 349 L315 349 Z M253 631 C298 631 320 586 320 497 C320 411 297 368 253 368 C208 368 186 411 186 499 C186 588 208 631 253 631 L253 631 Z M253 324 C308 324 333 277 333 177 C333 75 308 29 253 29 C198 29 174 78 174 191 C174 278 201 324 253 324 L253 324 Z " />
<glyph glyph-name="nine" unicode="9" horiz-adv-x="505" d="M336 277 C330 179 328 160 315 119 C298 64 263 32 220 32 C193 32 176 42 159 69 C140 100 129 108 107 108 C81 108 62 88 62 63 C62 19 118 -15 188 -15 C355 -15 466 140 466 375 C466 557 382 672 250 672 C131 672 44 577 44 448 C44 325 125 235 236 235 C265 235 288 242 308 257 L336 277 Z M338 439 C338 334 311 283 255 283 C233 283 210 297 199 317 C181 350 175 388 175 470 C175 537 180 568 195 594 C206 615 229 628 253 628 C283 628 303 612 315 579 C328 544 338 491 338 459 L338 441 L338 439 Z " />
<glyph glyph-name="colon" unicode="&#x3a;" horiz-adv-x="292" d="M147 136 C107 136 74 102 74 59 C74 18 107 -17 146 -17 C187 -17 220 17 220 60 C220 102 187 136 147 136 L147 136 Z M147 423 C107 423 74 388 74 347 C74 303 106 269 147 269 C187 269 220 304 220 346 C220 389 187 423 147 423 L147 423 Z " />
<glyph glyph-name="semicolon" unicode="&#x3b;" horiz-adv-x="292" d="M56 -197 C159 -187 228 -108 228 -1 C228 79 189 133 131 133 C88 133 57 101 57 55 C57 15 84 -15 119 -15 C124 -15 130 -14 136 -13 C148 -10 148 -10 151 -10 C162 -10 170 -21 170 -36 C170 -91 123 -138 56 -150 L56 -197 Z M141 423 C101 423 68 389 68 346 C68 304 101 269 140 269 C181 269 214 303 214 346 C214 389 181 423 141 423 L141 423 Z " />
<glyph glyph-name="less" unicode="&#x3c;" horiz-adv-x="475" d="M437 633 L37 369 L37 361 L437 73 L437 239 L197 411 L437 571 L437 633 Z " />
<glyph glyph-name="equal" unicode="&#x3d;" horiz-adv-x="489" d="M9 471 L9 400 L480 400 L480 471 L9 471 Z M16 320 L16 249 L474 249 L474 320 L16 320 Z " />
<glyph glyph-name="greater" unicode="&#x3e;" horiz-adv-x="475" d="M37 73 L437 337 L437 346 L37 633 L37 468 L277 296 L37 136 L37 73 Z " />
<glyph glyph-name="question" unicode="&#x3f;" horiz-adv-x="431" d="M153 136 C113 136 81 102 81 59 C81 18 114 -17 152 -17 C194 -17 226 17 226 60 C226 102 194 136 153 136 L153 136 Z M129 209 L177 209 L177 326 C198 314 217 309 240 309 C326 309 389 381 389 478 C389 595 310 673 193 673 C110 673 41 628 41 575 C41 554 60 536 81 536 C102 536 116 549 124 575 C137 615 152 629 180 629 C230 629 259 574 259 479 C259 405 239 363 203 363 C188 363 177 371 167 387 L129 387 L129 209 Z " />
<glyph glyph-name="at" unicode="&#x40;" horiz-adv-x="744" d="M477 477 C453 510 426 525 390 525 C351 525 320 511 286 477 C231 423 198 343 198 266 C198 194 244 137 303 137 C329 137 354 147 380 168 L384 172 C391 178 395 182 414 203 L416 199 L416 198 C416 192 424 176 432 165 C446 148 463 140 484 140 C588 140 688 268 688 401 C688 560 564 679 397 679 C207 679 55 523 55 326 C55 139 198 -12 375 -12 C449 -12 526 17 577 65 C601 87 619 107 648 146 L600 150 C574 122 562 109 544 95 C500 57 440 35 381 35 C230 35 105 165 105 322 C105 396 134 479 178 533 C231 596 313 634 398 634 C537 634 642 532 642 397 C642 338 620 277 583 233 C555 201 527 182 504 182 C491 182 480 195 480 211 C480 214 480 218 481 221 C482 224 482 224 482 228 C485 245 486 250 490 266 L560 515 C534 512 518 512 486 511 L477 477 Z M429 329 C428 327 428 325 427 320 C423 309 422 303 421 301 C412 271 403 247 393 231 C371 195 346 175 321 175 C294 175 274 199 274 230 C274 282 303 374 340 440 C357 470 384 488 410 488 C436 488 457 464 457 434 C457 426 452 402 448 389 L429 329 Z " />
<glyph glyph-name="A" unicode="A" horiz-adv-x="624" d="M636 0 L636 44 L631 44 C585 50 572 65 535 157 L332 678 L290 678 L105 197 L95 170 C64 86 36 51 -6 44 L-13 44 L-13 0 L189 0 L189 44 L182 44 C146 44 122 63 122 91 C122 107 126 122 144 170 L156 202 L367 202 L396 128 C406 101 412 81 412 73 C412 53 392 44 350 44 L344 44 L344 0 L636 0 Z M350 247 L173 247 L260 475 L350 247 Z " />
<glyph glyph-name="B" unicode="B" horiz-adv-x="633" d="M29 665 L29 621 L37 621 C97 622 111 602 112 518 L112 149 C112 66 96 44 39 44 L27 44 L27 0 L333 0 C421 0 468 9 514 33 C563 60 595 116 595 177 C595 275 528 337 401 356 C513 384 565 433 565 512 C565 564 538 610 494 635 C449 661 390 672 292 672 C261 672 261 672 150 668 L29 665 Z M260 331 L279 331 C343 331 371 324 394 302 C420 277 432 238 432 175 C432 138 427 114 416 94 C399 65 364 47 322 47 C271 47 260 67 260 166 L260 331 Z M260 378 L260 625 C267 626 273 626 281 626 C318 626 342 622 360 611 C390 594 405 557 405 501 C405 445 390 410 359 392 C340 381 321 378 280 378 L269 378 L260 378 Z " />
<glyph glyph-name="C" unicode="C" horiz-adv-x="699" d="M599 254 C586 183 553 115 517 86 C481 57 437 40 394 40 C334 40 278 72 248 124 C221 170 209 234 209 328 C209 527 270 628 390 628 C444 628 501 601 532 561 C561 523 580 476 594 412 L634 412 L628 661 L587 661 C587 660 587 659 586 657 C584 638 577 618 566 593 C514 650 444 679 361 679 C177 679 41 529 41 326 C41 130 175 -13 359 -13 C444 -13 519 19 571 76 C585 58 592 39 599 10 L640 10 L640 254 L599 254 Z " />
<glyph glyph-name="D" unicode="D" horiz-adv-x="748" d="M28 622 L38 622 C98 623 113 602 113 519 L113 149 C113 65 97 44 40 44 L27 44 L27 0 L274 0 C437 0 494 9 555 43 C651 98 707 203 707 329 C707 453 652 557 559 611 C485 653 383 672 230 672 C207 672 189 672 157 671 C132 671 127 671 89 669 C57 667 46 666 28 665 L28 622 Z M261 626 C277 627 285 627 298 627 C371 627 415 613 456 577 C511 529 539 444 539 326 C539 185 498 90 427 65 C393 53 360 47 334 47 C273 47 261 68 261 171 L261 626 Z " />
<glyph glyph-name="E" unicode="E" horiz-adv-x="623" d="M553 215 C521 89 476 45 379 47 L353 47 C277 50 258 74 261 164 L261 327 L323 327 C384 326 398 311 399 243 L399 235 L441 235 L441 462 L399 462 L399 455 C397 389 384 376 321 374 L261 374 L261 621 L367 621 C455 622 483 597 510 496 L552 496 L541 667 L31 667 L31 624 L41 624 C96 625 113 601 113 521 L113 149 C112 66 96 43 38 44 L27 44 L27 0 L587 0 L595 215 L553 215 Z " />
<glyph glyph-name="F" unicode="F" horiz-adv-x="556" d="M544 667 L27 667 L27 624 L38 624 C99 625 113 606 114 521 L114 149 C113 65 98 44 39 44 L27 44 L27 0 L352 0 L352 44 L337 44 C279 43 261 68 262 149 L262 326 L312 326 C369 325 382 311 387 237 L387 230 L430 230 L430 461 L387 461 L387 454 C381 388 369 374 313 373 L262 373 L262 621 L367 621 C428 620 447 614 466 588 C486 562 499 532 506 494 L549 494 L544 667 Z " />
<glyph glyph-name="G" unicode="G" horiz-adv-x="743" d="M436 300 L436 256 L446 256 C499 252 513 238 516 186 L516 161 C516 121 511 103 493 81 C468 52 431 37 386 37 C327 37 278 64 251 111 C224 157 212 221 212 318 C212 417 226 496 252 542 C281 594 335 625 397 625 C494 625 564 557 591 436 L633 436 L630 667 L587 667 C585 639 579 618 568 595 C511 653 445 680 366 680 C285 680 212 652 156 599 C84 531 41 429 41 325 C41 131 179 -13 365 -13 C412 -13 447 -7 518 13 C565 27 608 34 641 34 C644 34 650 34 660 32 L660 149 C660 235 665 246 716 255 L724 256 L724 300 L436 300 Z " />
<glyph glyph-name="H" unicode="H" horiz-adv-x="794" d="M535 325 L535 149 C535 67 518 43 461 44 L452 28 L452 0 L767 0 L767 44 L757 44 C700 43 684 66 683 149 L683 521 C684 604 698 624 759 623 L767 623 L767 667 L452 667 L452 623 L460 623 C519 624 534 605 535 521 L535 377 L259 377 L259 521 C260 605 274 624 335 623 L342 623 L342 667 L27 667 L27 623 L35 623 C95 624 110 604 111 521 L111 149 C112 69 94 43 37 44 L27 44 L27 0 L342 0 L342 44 L333 44 C276 43 259 67 259 149 L259 325 L535 325 Z " />
<glyph glyph-name="I" unicode="I" horiz-adv-x="373" d="M27 623 L36 623 C98 624 111 605 112 521 L112 149 C111 66 96 44 38 44 L27 44 L27 0 L347 0 L347 44 L335 44 C275 44 261 65 260 149 L260 521 C261 606 274 624 336 623 L347 623 L347 667 L27 667 L27 623 Z " />
<glyph glyph-name="J" unicode="J" horiz-adv-x="374" d="M29 667 L29 623 L44 623 C106 624 120 605 121 521 L121 27 C121 -85 116 -118 95 -156 C82 -180 58 -194 30 -194 C6 -194 -8 -185 -8 -169 L-9 -157 C-11 -154 -11 -151 -11 -148 C-11 -146 -11 -144 -10 -141 C-9 -133 -8 -127 -8 -125 C-8 -98 -37 -74 -70 -74 C-111 -74 -141 -102 -141 -141 C-141 -199 -75 -238 22 -238 C120 -238 199 -200 236 -135 C261 -90 269 -45 269 57 L269 521 C270 605 283 624 345 623 L355 623 L355 667 L29 667 Z " />
<glyph glyph-name="K" unicode="K" horiz-adv-x="742" d="M262 339 L262 521 C263 605 276 624 338 623 L348 623 L348 667 L30 667 L30 623 L38 623 C100 624 113 606 114 521 L114 149 C113 66 98 44 40 44 L27 44 L27 0 L342 0 L342 44 L336 44 C278 44 263 65 262 149 L262 274 L317 330 L456 144 C459 140 460 137 461 136 C462 134 468 127 474 119 C490 101 498 85 498 74 C498 53 476 44 428 44 L421 44 L421 0 L773 0 L773 44 L767 44 C710 44 676 70 613 160 L418 426 L494 501 C587 593 630 619 689 623 L696 623 L696 667 L429 667 L429 623 L435 623 C469 623 489 611 489 590 C489 570 475 548 437 511 L262 339 Z " />
<glyph glyph-name="L" unicode="L" horiz-adv-x="607" d="M595 213 L554 213 C522 89 478 47 376 47 L352 47 C272 49 259 63 261 151 L261 521 C262 605 275 624 338 623 L355 623 L355 667 L27 667 L27 623 L37 623 C99 624 112 605 113 521 L113 148 C112 65 98 44 39 44 L27 44 L27 0 L591 0 L595 213 Z " />
<glyph glyph-name="M" unicode="M" horiz-adv-x="934" d="M261 667 L22 667 L22 623 L31 623 C95 625 114 601 114 519 L114 189 C118 89 95 51 27 44 L22 44 L22 0 L256 0 L256 44 L251 44 C181 51 158 87 161 186 L161 546 L402 0 L433 0 L666 552 L666 149 C666 65 651 44 592 44 L577 44 L577 0 L907 0 L907 44 L888 44 C829 44 814 65 814 149 L814 521 C816 608 827 623 890 623 L906 623 L906 667 L668 667 L466 190 L261 667 Z " />
<glyph glyph-name="N" unicode="N" horiz-adv-x="739" d="M629 -12 L629 513 C627 585 647 611 710 623 L718 623 L718 667 L483 667 L483 623 L491 623 C555 618 580 588 579 517 L579 221 L226 667 L22 667 L22 623 L27 623 C90 623 108 599 112 507 L112 162 C112 108 111 98 103 84 C90 62 58 45 26 44 L22 44 L22 0 L258 0 L258 44 L251 44 L248 44 C218 44 187 60 172 84 C164 100 163 105 162 163 L162 522 L580 -12 L629 -12 Z " />
<glyph glyph-name="O" unicode="O" horiz-adv-x="784" d="M398 679 C282 679 188 640 123 564 C70 503 41 420 41 331 C41 129 185 -13 391 -13 C598 -13 743 129 743 332 C743 534 598 679 398 679 L398 679 Z M392 628 C508 628 569 525 569 331 C569 136 511 38 394 38 C333 38 284 68 252 125 C228 169 215 247 215 351 C215 445 239 536 275 576 C306 610 346 628 392 628 L392 628 Z " />
<glyph glyph-name="P" unicode="P" horiz-adv-x="606" d="M27 667 L27 623 L41 623 C103 624 116 605 117 521 L117 148 C116 65 102 44 43 44 L30 44 L30 0 L355 0 L355 44 L339 44 C281 44 266 65 265 148 L265 301 L317 301 L337 301 C414 301 461 310 504 334 C555 361 587 420 587 486 C587 551 557 607 506 636 C456 664 411 673 314 673 C267 673 205 672 120 670 L75 668 L27 667 Z M265 349 L265 625 L283 626 L287 626 C311 626 336 623 347 620 C399 607 427 559 427 484 C427 426 408 382 375 364 C356 353 336 349 299 349 L265 349 Z " />
<glyph glyph-name="Q" unicode="Q" horiz-adv-x="783" d="M502 1 C652 44 743 169 743 331 C743 422 712 506 656 570 C592 642 502 679 393 679 C187 679 41 535 41 331 C41 204 102 91 203 34 C252 6 323 -13 379 -13 C386 -13 392 -13 400 -12 L360 -36 C317 -62 296 -75 295 -76 C241 -111 230 -122 230 -142 C230 -157 241 -169 255 -169 C267 -169 279 -162 295 -145 C327 -111 348 -100 381 -100 C421 -100 468 -121 512 -159 C569 -207 569 -207 583 -216 C622 -242 662 -253 711 -253 C821 -253 894 -189 910 -78 L869 -78 C848 -118 808 -139 755 -139 C727 -139 673 -130 653 -122 C582 -93 582 -93 566 -88 C509 -69 450 -57 419 -57 L408 -57 L502 1 Z M390 628 C428 628 464 614 495 586 C543 544 569 455 569 332 C569 140 508 38 393 38 C313 38 257 87 236 178 C223 235 215 299 215 354 C215 448 239 536 276 575 C308 610 347 628 390 628 L390 628 Z " />
<glyph glyph-name="R" unicode="R" horiz-adv-x="688" d="M719 0 L719 44 L713 44 C674 40 619 90 566 179 C524 252 479 309 448 329 C546 357 593 411 593 494 C593 553 564 604 514 633 C467 660 388 672 257 672 C235 672 233 672 202 671 L191 670 C70 669 66 669 47 668 L28 667 L28 623 L40 623 C102 624 115 605 116 521 L116 149 C115 65 100 44 41 44 L27 44 L27 0 L356 0 L356 44 L339 44 C279 44 265 65 264 149 L264 303 L269 303 L279 303 C340 303 351 293 426 158 C465 86 504 27 531 0 L719 0 Z M264 351 L264 621 C276 622 284 622 295 622 C364 622 397 609 418 573 C430 551 436 523 436 488 C436 429 419 387 386 368 C365 356 334 351 282 351 L277 351 L264 351 Z " />
<glyph glyph-name="S" unicode="S" horiz-adv-x="531" d="M53 10 L98 10 C102 35 108 53 116 67 C159 16 221 -13 289 -13 C407 -13 495 73 495 189 C495 242 476 291 442 327 C414 357 365 387 290 420 C199 461 164 496 164 547 C164 597 200 632 252 632 C321 632 377 573 400 478 L441 478 L441 667 L399 667 L398 664 L397 657 C394 641 389 630 380 617 C341 658 294 679 240 679 C135 679 54 598 54 491 C54 443 71 397 101 364 C129 333 167 309 260 262 C342 221 375 185 375 136 C375 79 330 37 270 37 C218 37 171 66 139 119 C121 147 110 179 98 233 L53 233 L53 10 Z " />
<glyph glyph-name="T" unicode="T" horiz-adv-x="659" d="M56 487 C62 531 73 565 90 590 C102 611 130 619 189 620 L254 620 L254 149 C253 65 238 44 179 44 L159 44 L159 0 L497 0 L497 44 L476 44 C418 44 402 65 402 149 L402 620 L470 620 C523 619 548 611 562 591 C580 566 593 531 601 487 L643 487 L642 667 L15 667 L14 487 L56 487 Z " />
<glyph glyph-name="U" unicode="U" horiz-adv-x="736" d="M485 667 L485 623 L490 623 C555 621 583 587 582 511 L582 286 C582 203 579 175 568 149 C540 84 477 44 404 44 C346 44 296 70 271 114 C252 149 246 186 246 275 L246 521 C247 605 261 624 323 623 L334 623 L334 667 L17 667 L17 623 L26 623 C88 624 103 604 104 521 L104 285 L104 254 C103 182 112 142 136 100 C178 29 265 -13 369 -13 C441 -13 511 10 556 49 C605 91 632 167 632 260 L632 284 L632 501 L632 519 C630 584 652 612 713 623 L719 623 L719 667 L485 667 Z " />
<glyph glyph-name="V" unicode="V" horiz-adv-x="674" d="M365 -14 L556 458 C612 596 629 620 675 623 L681 623 L687 623 L687 667 L467 667 L467 623 L473 623 C514 623 542 604 542 577 C542 559 534 530 520 495 L390 170 L245 520 C232 551 225 577 225 591 C225 612 250 623 294 623 L300 623 L300 667 L-13 667 L-13 623 L-7 623 C48 621 61 609 97 520 C99 514 102 508 104 503 L319 -14 L365 -14 Z " />
<glyph glyph-name="W" unicode="W" horiz-adv-x="894" d="M672 -14 L803 472 C835 593 852 620 895 623 L898 623 L903 623 L903 667 L711 667 L711 623 L715 623 C749 623 774 601 774 570 C774 553 770 529 762 500 L683 201 L514 667 L457 667 L313 201 L216 529 C208 555 204 577 204 590 C204 610 222 622 256 623 L261 623 L261 667 L-10 667 L-10 623 L-5 623 L-2 623 C42 621 51 608 80 511 L233 -14 L291 -14 L442 468 L616 -14 L672 -14 Z " />
<glyph glyph-name="X" unicode="X" horiz-adv-x="754" d="M717 667 L470 667 L470 623 L477 623 C518 623 538 613 538 592 C538 579 528 559 509 536 L409 415 L312 544 C294 568 286 584 286 596 C286 616 300 623 336 623 L343 623 L343 667 L15 667 L15 623 L20 623 C74 622 92 609 156 522 L166 509 L316 310 L187 159 C119 74 79 46 21 44 L16 44 L16 0 L283 0 L283 44 L277 44 L271 44 C234 43 210 60 210 87 C210 104 220 123 246 154 L345 272 L444 141 C467 110 476 93 476 80 C476 55 454 44 401 44 L396 44 L396 0 L758 0 L758 44 L757 44 L754 44 L750 44 C739 44 712 51 697 58 C673 71 646 100 592 172 L439 378 L544 505 C620 597 650 617 715 623 L717 630 L717 667 Z " />
<glyph glyph-name="Y" unicode="Y" horiz-adv-x="629" d="M-12 667 L-12 623 L-6 623 C39 618 50 607 96 526 L240 267 L240 149 C239 66 224 44 166 44 L156 44 L156 0 L472 0 L472 44 L463 44 C404 44 389 66 389 149 L389 277 L513 497 L517 504 C576 601 590 615 636 623 L641 623 L641 667 L427 667 L427 623 L432 623 C469 623 493 606 493 578 C493 564 485 540 471 515 L370 332 L247 541 C230 569 225 581 225 592 C225 613 243 623 280 623 L285 623 L285 667 L-12 667 Z " />
<glyph glyph-name="Z" unicode="Z" horiz-adv-x="631" d="M31 0 L581 0 L596 190 L554 190 C513 69 482 46 365 47 L203 47 L577 630 L577 667 L65 667 L51 497 L91 497 C122 601 156 625 270 621 L405 621 L31 35 L31 0 Z " />
<glyph glyph-name="bracketleft" unicode="&#x5b;" horiz-adv-x="382" d="M374 -235 L374 -192 L289 -192 C249 -192 236 -177 237 -129 L237 -118 L237 -78 C237 248 238 429 240 466 C241 503 249 569 254 594 C261 619 267 624 289 624 L374 624 L374 667 L121 667 L121 -235 L374 -235 Z " />
<glyph glyph-name="backslash" unicode="&#x5c;" horiz-adv-x="475" d="M405 -116 L131 687 L71 687 L345 -116 L405 -116 Z " />
<glyph glyph-name="bracketright" unicode="&#x5d;" horiz-adv-x="382" d="M7 -235 L260 -235 L260 667 L7 667 L7 624 L92 624 C133 624 145 609 144 558 L144 550 L144 511 C144 184 143 2 142 -35 C140 -79 133 -137 127 -162 C119 -187 115 -191 92 -192 L7 -192 L7 -235 Z " />
<glyph glyph-name="asciicircum" unicode="&#x5e;" horiz-adv-x="475" d="M503 279 L252 700 L244 700 L-29 279 L128 279 L292 532 L444 279 L503 279 Z " />
<glyph glyph-name="underscore" unicode="&#x5f;" horiz-adv-x="499" d="M9 -92 L9 -165 L491 -165 L491 -92 L9 -92 Z " />
<glyph glyph-name="grave" unicode="&#x60;" horiz-adv-x="487" d="M304 488 L224 649 L71 649 L71 642 L270 488 L304 488 Z " />
<glyph glyph-name="a" unicode="a" horiz-adv-x="507" d="M471 84 C467 62 456 49 441 49 C423 49 415 66 415 108 L415 287 C415 337 410 355 389 377 C362 405 317 419 250 419 C135 419 50 375 50 316 C50 290 70 272 97 272 C127 272 144 288 150 323 C153 342 158 355 165 360 C175 369 197 375 217 375 C238 375 259 369 271 359 C282 350 288 330 288 298 L288 267 L250 252 L229 243 C143 209 72 166 54 137 C42 118 36 99 36 80 C36 26 78 -10 141 -10 C191 -10 241 9 294 49 C311 10 346 -10 394 -10 C459 -10 499 25 502 84 L471 84 Z M288 223 L288 93 C259 64 234 50 212 50 C185 50 164 74 164 106 C164 128 173 148 190 166 C215 190 224 196 286 222 L288 223 Z " />
<glyph glyph-name="b" unicode="b" horiz-adv-x="558" d="M12 649 L12 606 L16 606 C59 605 71 588 71 526 L71 -12 L105 -12 C116 1 126 11 141 24 C146 29 151 34 169 50 C173 54 174 55 180 60 C219 11 268 -13 328 -13 C442 -13 523 78 523 205 C523 329 443 419 332 419 C284 419 244 403 200 365 L200 678 L193 678 C166 669 138 665 100 662 C90 662 81 660 22 650 L12 649 Z M200 311 C232 348 261 365 294 365 C353 365 384 308 384 201 C384 96 348 37 285 37 C256 37 228 52 216 75 C208 90 200 118 200 131 L200 311 Z " />
<glyph glyph-name="c" unicode="c" horiz-adv-x="450" d="M389 116 C371 63 334 36 283 36 C207 36 172 95 172 221 C172 323 205 376 268 376 C296 376 309 366 314 340 C324 292 339 274 369 274 C396 274 416 297 416 327 C416 381 356 419 270 419 C134 419 33 323 33 193 C33 71 122 -16 248 -16 C338 -16 402 26 428 101 L389 116 Z " />
<glyph glyph-name="d" unicode="d" horiz-adv-x="556" d="M545 50 L539 50 C495 51 485 66 485 133 L485 678 L478 678 C470 676 465 675 463 675 C447 672 432 669 417 666 C396 662 358 656 306 649 C299 648 298 648 292 647 L292 605 L297 605 C342 604 354 588 356 522 L356 364 C324 399 274 419 222 419 C110 419 35 330 35 197 C35 72 107 -12 212 -12 C265 -12 304 6 358 56 L358 50 C358 26 361 10 368 -12 C411 -2 474 4 545 6 L545 50 Z M356 111 C333 70 298 47 261 47 C205 47 174 103 174 205 C174 310 204 361 267 361 C297 361 323 347 356 315 L356 111 Z " />
<glyph glyph-name="e" unicode="e" horiz-adv-x="465" d="M387 100 C363 58 323 34 281 34 C209 34 169 93 169 197 C169 206 169 215 171 227 L432 227 L432 234 C432 343 354 419 244 419 C123 419 35 328 35 202 C35 76 125 -16 247 -16 C323 -16 392 22 424 81 L387 100 Z M171 266 C175 313 179 331 192 351 C202 365 223 376 242 376 C285 376 310 339 310 277 C310 274 310 270 309 266 L171 266 Z " />
<glyph glyph-name="f" unicode="f" horiz-adv-x="320" d="M297 403 L214 403 L214 430 L214 484 C214 559 218 585 231 609 C240 624 254 634 269 634 C289 634 302 621 312 592 C326 550 345 532 374 532 C405 532 430 558 430 590 C430 642 373 678 291 678 C212 678 150 647 119 591 C97 552 90 512 90 424 L90 403 L16 403 L16 360 L90 360 L90 125 C90 61 77 42 32 42 L19 42 L19 0 L296 0 L296 42 L273 42 C227 43 216 58 214 125 L214 360 L297 360 L297 403 Z " />
<glyph glyph-name="g" unicode="g" horiz-adv-x="490" d="M115 -83 C99 -77 91 -75 81 -75 C53 -75 29 -102 29 -136 C29 -169 49 -201 82 -220 C115 -239 168 -249 233 -249 C382 -249 467 -188 467 -82 C467 8 406 56 291 56 L254 55 L249 55 L226 55 C213 56 204 56 199 56 C153 56 132 64 132 84 C132 109 161 123 221 124 C343 126 414 182 414 274 C414 301 408 324 394 348 C404 360 412 365 421 365 C429 365 434 362 443 351 C452 339 460 335 470 335 C488 335 500 350 500 372 C500 400 482 418 454 418 C428 418 406 406 372 373 C336 405 293 419 235 419 C120 419 44 362 44 275 C44 213 84 160 145 139 C82 123 52 93 52 44 C52 -22 113 -57 224 -54 C259 -53 265 -53 269 -53 C353 -53 391 -73 391 -118 C391 -173 332 -208 241 -208 C154 -208 105 -179 105 -127 C105 -113 108 -100 113 -88 L115 -83 Z M229 376 C267 376 289 341 289 277 C289 207 268 169 230 169 C190 169 170 206 170 280 C170 339 192 376 229 376 L229 376 Z " />
<glyph glyph-name="h" unicode="h" horiz-adv-x="554" d="M201 678 C185 672 132 663 106 661 L103 660 L83 657 C75 656 61 654 20 645 L20 603 L24 603 C70 601 78 590 79 528 L79 125 C77 55 69 44 24 42 L19 42 L19 0 L257 0 L257 42 L254 42 C216 45 210 55 208 125 L208 282 C209 284 209 284 211 286 C215 297 248 332 262 343 C273 351 282 354 296 354 C336 354 353 329 353 268 L353 125 C351 56 346 46 309 43 L303 42 L303 0 L542 0 L542 42 L537 42 C494 43 486 56 484 125 L484 253 C484 309 479 337 465 361 C445 396 399 419 350 419 C295 419 247 394 208 344 L208 678 L201 678 Z " />
<glyph glyph-name="i" unicode="i" horiz-adv-x="286" d="M146 678 C105 678 71 644 71 603 C71 559 104 525 147 525 C188 525 222 559 222 601 C222 644 189 678 146 678 L146 678 Z M213 419 L206 419 C175 411 53 389 15 386 L15 343 L26 343 C73 344 86 326 86 263 L86 125 C84 57 74 43 27 42 L15 42 L15 0 L274 0 L274 42 L268 42 C224 43 215 56 213 125 L213 419 Z " />
<glyph glyph-name="j" unicode="j" horiz-adv-x="284" d="M225 419 L218 419 C175 410 131 402 21 385 L21 343 L35 343 C81 344 96 324 96 263 L96 -58 C96 -135 93 -154 80 -178 C72 -193 56 -203 42 -203 C26 -203 13 -193 8 -178 C-6 -141 -18 -129 -43 -129 C-70 -129 -90 -150 -90 -179 C-90 -220 -45 -248 21 -248 C99 -248 169 -213 201 -158 C218 -127 225 -82 225 7 L225 419 Z M157 678 C115 678 81 644 81 603 C81 559 114 525 157 525 C198 525 232 559 232 602 C232 644 198 678 157 678 L157 678 Z " />
<glyph glyph-name="k" unicode="k" horiz-adv-x="521" d="M290 403 L290 361 L295 361 C318 361 329 354 329 342 C329 339 328 335 327 334 C326 333 326 332 326 332 L326 331 L326 330 C325 330 325 329 323 328 C322 327 321 326 320 324 C319 323 313 317 307 312 L280 289 L255 269 L206 224 L206 678 L199 678 C182 672 133 663 105 661 C99 660 92 659 84 658 C76 657 56 653 25 647 L18 645 L18 603 L23 603 C68 601 76 590 77 529 L77 125 C75 55 68 44 23 42 L14 42 L14 0 L254 0 L254 42 L251 42 C214 45 208 56 206 125 L206 173 L236 198 L307 97 C322 77 327 68 327 62 C327 50 316 43 295 42 L292 42 L292 0 L519 0 L519 42 L515 43 C496 43 475 62 431 119 L322 267 C333 275 336 277 345 285 C403 336 452 363 487 361 L490 361 L490 403 L290 403 Z " />
<glyph glyph-name="l" unicode="l" horiz-adv-x="281" d="M206 678 L199 678 C178 672 91 656 18 645 L18 603 L26 603 C69 601 76 591 77 527 L77 125 C75 53 69 44 26 42 L16 42 L16 0 L265 0 L265 42 L259 42 C215 43 206 57 206 125 L206 678 Z " />
<glyph glyph-name="m" unicode="m" horiz-adv-x="816" d="M21 338 L24 338 C67 338 77 323 80 259 L80 125 C78 55 70 44 25 42 L22 42 L22 0 L254 0 L254 42 L250 42 C216 45 210 56 209 125 L209 284 C212 288 214 291 221 299 C250 335 273 351 298 351 C335 351 350 325 350 264 L350 125 C349 55 344 47 308 43 L303 42 L303 0 L523 0 L523 42 L520 42 C485 45 480 57 478 125 L478 280 C513 330 539 351 569 351 C604 351 620 327 620 274 L620 125 C618 55 614 47 577 43 L574 42 L574 0 L804 0 L804 42 L799 42 C757 43 749 56 747 125 L747 258 C747 322 745 336 730 363 C710 396 666 419 619 419 C564 419 517 392 471 335 C453 389 409 419 351 419 C298 419 249 393 210 345 L211 349 L211 351 C210 375 207 393 200 412 L195 412 C173 405 150 401 114 396 C99 394 84 392 21 381 L21 338 Z " />
<glyph glyph-name="n" unicode="n" horiz-adv-x="555" d="M193 412 C165 405 140 399 115 396 C94 393 75 390 21 380 L21 338 L25 338 C68 338 78 323 81 259 L81 125 C79 55 71 44 26 42 L22 42 L22 0 L260 0 L260 42 L258 42 C218 45 212 55 210 125 L210 283 C242 332 271 353 303 353 C335 353 355 328 355 288 L355 272 L355 125 C354 55 348 45 305 42 L305 0 L543 0 L543 42 L539 42 C496 43 488 55 486 125 L486 260 C486 315 482 337 468 362 C448 397 404 419 356 419 C302 419 251 393 212 346 C210 375 207 396 201 412 L193 412 Z " />
<glyph glyph-name="o" unicode="o" horiz-adv-x="517" d="M257 419 C127 419 35 328 35 199 C35 143 54 91 87 55 C127 12 192 -16 254 -16 C388 -16 482 73 482 201 C482 329 389 419 257 419 L257 419 Z M258 375 C319 375 343 324 343 196 C343 80 317 27 260 27 C242 27 226 33 212 44 C189 64 174 128 174 207 C174 275 186 334 205 352 C221 368 238 375 258 375 L258 375 Z " />
<glyph glyph-name="p" unicode="p" horiz-adv-x="556" d="M179 419 C150 412 123 406 92 402 C75 399 70 398 15 389 L7 387 L7 345 L14 345 C59 344 68 331 70 263 L70 -116 C68 -185 59 -198 14 -199 L7 -199 L7 -241 L267 -241 L267 -199 L256 -199 C211 -198 201 -184 199 -116 L199 42 C243 1 282 -16 330 -16 C440 -16 521 78 521 205 C521 329 445 419 340 419 C288 419 238 395 197 350 C196 380 193 400 187 419 L179 419 Z M199 295 C226 339 256 361 291 361 C350 361 382 305 382 202 C382 150 375 113 359 86 C345 60 315 42 286 42 C256 42 225 59 199 92 L199 295 Z " />
<glyph glyph-name="q" unicode="q" horiz-adv-x="538" d="M452 419 C417 389 396 371 374 355 C327 399 281 419 229 419 C117 419 35 326 35 199 C35 69 109 -16 223 -16 C272 -16 311 -1 356 36 L356 -116 C354 -184 345 -198 300 -199 L287 -199 L287 -241 L548 -241 L548 -199 L542 -199 C496 -198 487 -185 485 -116 L485 419 L452 419 Z M356 87 C327 56 294 40 261 40 C205 40 174 97 174 199 C174 260 181 296 197 325 C211 350 237 365 263 365 C299 365 333 345 356 309 L356 87 Z " />
<glyph glyph-name="r" unicode="r" horiz-adv-x="416" d="M21 339 L27 339 C71 337 80 324 82 256 L82 125 C80 55 72 43 28 42 L22 42 L22 0 L278 0 L278 42 L268 42 C222 43 213 56 211 125 L211 178 C211 244 217 272 236 306 C250 328 266 340 282 340 C294 340 303 334 314 319 C333 292 342 285 361 285 C390 285 411 309 411 343 C411 387 379 419 336 419 C285 419 235 380 205 317 C204 359 199 392 190 419 C97 397 55 387 21 381 L21 339 Z " />
<glyph glyph-name="s" unicode="s" horiz-adv-x="396" d="M39 -12 L73 -12 C78 2 84 12 92 20 C97 19 97 18 103 15 C136 -6 172 -16 210 -16 C301 -16 362 39 362 121 C362 161 345 201 318 224 C293 244 281 249 203 272 C151 287 124 308 124 335 C124 362 151 382 188 382 C241 382 286 346 302 291 L335 291 L335 414 L304 414 C297 400 291 392 285 386 C247 407 205 420 176 420 C99 420 38 363 38 292 C38 235 80 188 154 164 C232 138 233 137 253 120 C263 111 270 96 270 81 C270 48 239 25 195 25 C138 25 95 60 76 122 L39 122 L39 -12 Z " />
<glyph glyph-name="t" unicode="t" horiz-adv-x="320" d="M308 359 L308 403 L194 403 L194 534 L156 534 C143 456 90 402 24 402 C23 402 19 402 15 403 L15 359 L70 359 L70 127 C70 33 110 -16 189 -16 C251 -16 301 15 322 68 L287 82 C272 53 257 41 236 41 C222 41 211 47 204 59 C196 74 194 86 194 139 L194 359 L308 359 Z " />
<glyph glyph-name="u" unicode="u" horiz-adv-x="543" d="M471 403 L285 403 L285 361 L290 361 C333 359 340 349 342 279 L342 145 C342 141 335 118 331 109 C315 75 282 51 252 51 C218 51 202 78 202 134 L202 403 L13 403 L13 361 L17 361 C60 360 71 345 73 279 L73 130 C73 81 84 42 103 22 C127 -2 163 -16 200 -16 C254 -16 303 11 342 63 L342 54 L342 49 C342 42 342 38 343 34 L344 11 L345 7 L345 -1 C346 -5 346 -8 346 -8 C346 -10 347 -12 348 -16 L353 -16 C380 -8 471 1 528 0 L528 42 L525 42 C482 43 473 57 471 125 L471 403 Z " />
<glyph glyph-name="v" unicode="v" horiz-adv-x="471" d="M266 -10 L392 263 C429 344 439 356 471 361 L475 361 L475 403 L330 403 L330 361 L335 361 C356 360 372 350 372 338 C372 329 367 314 359 296 L274 106 L187 303 C180 321 175 335 175 341 C175 353 190 361 214 361 L219 361 L219 403 L-4 403 L-4 361 L0 361 C28 360 36 350 68 284 L202 -10 L266 -10 Z " />
<glyph glyph-name="w" unicode="w" horiz-adv-x="714" d="M528 -11 L640 271 C669 347 677 358 715 361 L717 361 L717 403 L560 403 L560 361 L566 361 C596 360 614 351 614 336 C614 329 614 328 605 304 L536 124 L423 403 L365 403 L253 124 L187 297 C174 332 174 332 174 341 C174 354 189 361 218 361 L223 361 L223 403 L-5 403 L-5 361 L0 361 C32 359 37 354 63 291 L181 -11 L243 -11 L354 268 L467 -11 L528 -11 Z " />
<glyph glyph-name="x" unicode="x" horiz-adv-x="493" d="M463 361 L463 403 L306 403 L306 361 L309 361 C332 360 344 355 344 344 C344 338 337 327 321 310 L277 263 L229 320 C217 335 214 340 214 346 C214 356 223 361 243 361 L248 361 L248 403 L12 403 L12 361 L15 361 C36 359 58 342 106 287 L196 181 L121 105 C82 67 47 47 15 43 L9 42 L9 0 L184 0 L184 42 L182 42 L175 42 L170 42 C152 42 140 49 140 59 C140 66 146 75 158 87 L163 91 L219 152 L274 84 C288 66 289 65 289 59 C289 48 273 41 249 42 L243 42 L243 0 L487 0 L487 42 L482 43 C461 47 446 60 412 100 L300 233 L363 298 L377 310 C418 348 435 359 460 361 L463 361 Z " />
<glyph glyph-name="y" unicode="y" horiz-adv-x="478" d="M-5 403 L-5 361 L2 360 C29 358 39 347 65 293 L224 -15 L205 -65 C186 -107 172 -117 113 -135 C73 -147 55 -166 55 -196 C55 -227 79 -250 111 -250 C150 -250 182 -220 211 -155 C220 -136 225 -123 227 -120 L231 -112 L385 251 C396 275 397 276 408 301 C427 342 443 357 468 360 L475 361 L475 403 L325 403 L325 361 L331 361 L333 361 L336 361 L337 361 C352 361 370 348 370 336 C370 330 368 322 364 313 C359 302 354 292 352 286 L282 118 L195 301 C188 316 184 329 184 338 C184 353 192 359 213 361 L219 361 L219 403 L-5 403 Z " />
<glyph glyph-name="z" unicode="z" horiz-adv-x="445" d="M27 0 L405 0 L417 134 L377 134 C347 58 331 44 275 43 L184 43 L410 366 L410 403 L48 403 L40 283 L80 283 C108 353 115 361 150 360 L255 360 L27 33 L27 0 Z " />
<glyph glyph-name="braceleft" unicode="&#x7b;" horiz-adv-x="372" d="M58 202 C121 196 134 177 135 87 L135 -80 C137 -145 148 -174 181 -204 C203 -226 234 -232 331 -232 L357 -232 L357 -204 C280 -202 251 -166 251 -70 L251 94 C252 162 220 198 143 214 L143 216 L143 221 C220 237 252 273 251 340 L251 505 C251 600 280 636 357 638 L357 667 L331 667 C246 665 199 657 184 642 C152 618 136 577 135 515 L135 348 C134 257 121 239 58 233 L58 202 Z " />
<glyph glyph-name="bar" unicode="&#x7c;" horiz-adv-x="479" d="M191 667 L191 -167 L287 -167 L287 667 L191 667 Z " />
<glyph glyph-name="braceright" unicode="&#x7d;" horiz-adv-x="377" d="M319 233 C255 239 243 257 242 348 L242 515 C235 640 198 669 46 667 L20 667 L20 638 C97 636 125 600 126 505 L126 340 C124 273 156 237 234 221 L234 219 L234 214 C157 198 124 162 126 94 L126 -70 C125 -165 97 -202 20 -204 L20 -232 L46 -232 C132 -230 177 -223 193 -208 C224 -184 241 -142 242 -80 L242 87 C243 177 255 196 319 202 L319 233 Z " />
<glyph glyph-name="asciitilde" unicode="&#x7e;" horiz-adv-x="653" d="M501 734 C477 705 450 689 426 689 C403 689 375 695 343 708 C309 721 280 728 259 728 C215 728 171 691 129 617 L151 604 C184 642 198 650 229 650 C252 650 273 645 321 626 C353 614 371 610 390 610 C440 610 487 649 523 720 L501 734 Z " />
<glyph glyph-name="uni00A0" unicode="&#xa0;" horiz-adv-x="250" d="" />
<glyph glyph-name="exclamdown" unicode="&#xa1;" horiz-adv-x="292" d="M126 221 L88 -118 C85 -142 83 -166 83 -178 C83 -218 106 -242 146 -242 C185 -242 209 -217 209 -177 C209 -161 208 -143 205 -120 L167 221 L126 221 Z M146 448 C106 448 73 414 73 372 C73 330 106 295 145 295 C186 295 219 329 219 372 C219 414 186 448 146 448 L146 448 Z " />
<glyph glyph-name="cent" unicode="&#xa2;" horiz-adv-x="505" d="M425 115 C405 66 360 34 309 34 C289 34 270 41 258 53 L333 360 C340 359 346 351 347 342 C352 295 369 274 402 274 C431 274 453 298 453 327 C453 370 410 405 345 415 L392 613 L352 613 L306 418 C301 419 299 419 294 419 C256 419 195 401 167 382 C102 337 68 272 68 194 C68 132 92 72 131 38 C150 22 172 9 206 -5 L161 -190 L201 -190 L244 -12 C266 -16 274 -17 286 -17 C320 -17 369 -3 395 13 C429 35 450 61 464 101 L425 115 Z M225 86 C211 117 203 169 203 221 C203 318 235 374 291 375 L296 375 L225 86 Z " />
<glyph glyph-name="sterling" unicode="&#xa3;" horiz-adv-x="683" d="M26 198 L170 198 C154 128 142 87 126 44 C57 -2 23 -41 23 -77 C23 -101 46 -121 73 -121 C83 -121 95 -116 104 -108 C120 -93 120 -93 150 -35 L161 -14 L167 1 L169 5 C181 11 188 13 197 13 C219 13 238 0 281 -42 C340 -102 376 -121 430 -121 C531 -121 626 -29 626 69 C626 109 602 138 571 138 C546 138 527 119 527 93 C527 79 530 63 536 47 C545 19 546 17 546 5 C546 -25 517 -52 485 -52 C455 -52 427 -34 379 15 C333 62 294 83 252 83 C235 83 222 80 201 71 C227 114 248 153 268 198 L436 198 L451 257 L292 257 C312 302 335 383 356 487 C381 610 388 636 406 671 C428 713 455 733 491 733 C520 733 538 722 557 691 C581 655 592 646 613 646 C639 646 660 668 660 695 C660 743 598 781 518 781 C368 781 260 642 208 379 C201 343 194 308 186 272 L185 263 C184 260 184 259 183 257 L41 257 L26 198 Z " />
<glyph glyph-name="currency" unicode="&#xa4;" horiz-adv-x="633" d="M32 93 L79 43 L172 141 C226 107 264 95 316 95 C367 95 407 108 459 142 L553 44 L600 93 L504 194 C536 250 547 288 547 342 C547 394 536 433 505 491 L602 593 L555 642 L459 542 C401 577 364 589 315 589 C263 589 212 573 171 543 L78 641 L31 592 L123 494 C91 436 79 393 79 342 C79 290 93 245 124 190 L32 93 Z M315 483 C387 483 444 420 444 340 C444 264 386 201 315 201 C244 201 186 264 186 342 C186 420 244 483 315 483 L315 483 Z " />
<glyph glyph-name="yen" unicode="&#xa5;" horiz-adv-x="488" d="M347 461 L214 461 L173 541 C159 569 154 582 154 594 C154 613 171 623 202 623 L207 623 L207 667 L-60 667 L-60 623 L-57 623 C-16 620 -9 612 37 526 L71 461 L-37 461 L-37 415 L94 415 L164 274 L-32 274 L-32 228 L167 228 L167 148 C167 63 155 45 100 44 L91 44 L91 0 L376 0 L376 44 L368 44 C313 45 301 63 301 148 L301 228 L500 228 L500 274 L301 274 L301 281 L370 415 L505 415 L505 461 L394 461 C463 596 481 618 526 623 L528 623 L528 667 L335 667 L335 623 L339 623 C373 623 399 606 399 583 C399 569 393 550 382 529 L347 461 Z M325 415 L282 332 L238 415 L325 415 Z " />
<glyph glyph-name="brokenbar" unicode="&#xa6;" horiz-adv-x="479" d="M191 667 L191 314 L287 314 L287 667 L191 667 Z M191 153 L191 -167 L287 -167 L287 153 L191 153 Z " />
<glyph glyph-name="section" unicode="&#xa7;" horiz-adv-x="452" d="M149 367 C117 361 100 355 83 343 C48 319 27 276 27 228 C27 147 66 94 197 -6 C277 -67 299 -96 299 -137 C299 -174 268 -202 227 -202 C195 -202 171 -183 163 -152 C154 -114 153 -112 146 -102 C137 -88 123 -80 109 -80 C82 -80 61 -104 61 -135 C61 -196 128 -245 213 -245 C315 -245 386 -184 386 -96 C386 -40 357 14 302 58 C346 73 352 75 368 88 C401 114 418 154 418 204 C418 248 405 287 377 324 C355 355 336 372 254 434 C168 499 144 528 144 566 C144 603 176 631 218 631 C242 631 263 621 274 602 C280 592 283 585 290 556 C298 525 312 511 336 511 C365 511 387 535 387 566 C387 625 317 674 233 674 C132 674 59 611 59 525 C59 467 85 421 149 367 L149 367 Z M165 333 C193 333 238 305 283 260 C322 221 341 187 341 156 C341 123 314 96 281 96 C251 96 223 113 172 162 C127 205 104 244 104 275 C104 306 132 333 165 333 L165 333 Z " />
<glyph glyph-name="dieresis" unicode="&#xa8;" horiz-adv-x="386" d="M93 633 C60 633 33 606 33 573 C33 541 60 513 92 513 C126 513 153 539 153 573 C153 606 126 633 93 633 L93 633 Z M293 633 C260 633 233 606 233 573 C233 540 260 513 292 513 C326 513 353 540 353 573 C353 606 326 633 293 633 L293 633 Z " />
<glyph glyph-name="copyright" unicode="&#xa9;" horiz-adv-x="764" d="M381 680 C199 680 52 525 52 334 C52 142 200 -13 382 -13 C561 -13 711 142 711 328 C711 526 567 680 381 680 L381 680 Z M383 638 C449 638 519 610 569 564 C635 503 669 423 669 328 C669 166 538 29 382 29 C223 29 94 165 94 334 C94 503 222 638 383 638 L383 638 Z M505 293 C493 218 454 174 399 174 C369 174 340 191 324 218 C309 245 303 279 303 331 C303 440 334 495 397 495 C451 495 493 448 503 377 L526 377 L523 516 L499 516 C496 498 494 494 489 480 C457 512 425 526 382 526 C284 526 213 444 213 331 C213 221 283 142 380 142 C425 142 463 159 492 191 C499 179 502 170 505 155 L529 155 L529 293 L505 293 Z " />
<glyph glyph-name="ordfeminine" unicode="&#xaa;" horiz-adv-x="315" d="M288 325 C285 310 279 304 271 304 C260 304 256 314 256 337 L256 450 C256 478 250 499 239 511 C224 526 191 536 157 536 C89 536 35 506 35 468 C35 451 48 438 65 438 C84 438 95 450 99 473 C102 497 112 505 136 505 C165 505 175 493 175 457 L175 440 L155 430 C148 427 140 424 131 420 C93 403 63 384 44 366 C34 355 27 336 27 319 C27 284 53 260 90 260 C121 260 156 274 178 294 L180 296 C192 272 212 261 242 261 C284 261 309 285 311 325 L288 325 Z M175 407 L175 327 C159 310 145 301 133 301 C118 301 106 316 106 335 C106 362 126 385 162 401 L175 407 Z " />
<glyph glyph-name="guillemotleft" unicode="&#xab;" horiz-adv-x="508" d="M16 216 L198 8 L242 8 L156 216 L241 423 L197 423 L16 216 Z M250 216 L432 8 L476 8 L390 216 L475 423 L431 423 L250 216 Z " />
<glyph glyph-name="logicalnot" unicode="&#xac;" horiz-adv-x="475" d="M446 0 L446 267 L28 267 L28 199 L287 199 L287 0 L446 0 Z " />
<glyph glyph-name="uni00AD" unicode="&#xad;" horiz-adv-x="319" d="M30 247 L30 182 L290 182 L290 247 L30 247 Z " />
<glyph glyph-name="registered" unicode="&#xae;" horiz-adv-x="764" d="M381 680 C199 680 52 525 52 334 C52 142 200 -13 382 -13 C561 -13 711 142 711 328 C711 526 567 680 381 680 L381 680 Z M383 638 C449 638 519 610 569 564 C635 503 669 423 669 328 C669 166 538 29 382 29 C223 29 94 165 94 334 C94 503 222 638 383 638 L383 638 Z M215 150 L389 150 L389 177 L379 177 C348 178 342 186 341 233 L341 317 L345 317 L349 317 C374 318 387 306 419 248 C442 202 465 164 479 150 L580 150 L580 177 L575 177 C554 176 527 201 498 251 C475 292 460 312 439 332 C486 345 513 378 513 423 C513 457 497 487 469 503 C445 517 407 523 347 523 C328 523 313 523 287 521 L216 520 L216 493 L224 493 C256 492 260 486 262 438 L262 233 C261 186 255 178 224 177 L215 177 L215 150 Z M341 346 L341 491 C348 492 357 492 360 492 C409 492 429 471 429 419 C429 365 409 346 352 346 L349 346 L341 346 Z " />
<glyph glyph-name="macron" unicode="&#xaf;" horiz-adv-x="361" d="M33 541 L327 541 L327 590 L33 590 L33 541 Z " />
<glyph glyph-name="degree" unicode="&#xb0;" horiz-adv-x="400" d="M203 686 C117 686 50 619 50 534 C50 448 116 381 200 381 C284 381 350 448 350 533 C350 619 286 686 203 686 L203 686 Z M202 629 C252 629 293 586 293 534 C293 480 252 438 200 438 C148 438 106 481 106 533 C106 587 148 629 202 629 L202 629 Z " />
<glyph glyph-name="plusminus" unicode="&#xb1;" horiz-adv-x="475" d="M9 396 L9 323 L199 323 L199 123 L275 123 L275 323 L467 323 L467 396 L275 396 L275 596 L199 596 L199 396 L9 396 Z M9 75 L9 2 L467 2 L467 75 L9 75 Z " />
<glyph glyph-name="twosuperior" unicode="&#xb2;" horiz-adv-x="331" d="M36 266 L228 266 C247 266 247 266 247 255 C247 253 247 251 246 250 C245 247 244 245 244 245 L244 241 L278 241 L295 324 L124 324 C174 375 203 405 210 413 C279 490 293 515 293 561 C293 624 239 670 164 670 C91 670 36 627 36 569 C36 538 50 511 67 511 C72 511 75 512 79 516 L88 519 L91 521 L94 522 C104 525 114 534 114 540 C114 541 113 543 111 545 C101 555 97 564 97 577 C97 609 118 635 145 635 C177 635 198 605 198 560 C198 481 144 392 36 295 L36 266 Z " />
<glyph glyph-name="threesuperior" unicode="&#xb3;" horiz-adv-x="330" d="M203 499 C262 535 282 560 282 595 C282 638 235 670 171 670 C100 670 42 629 42 578 C42 556 54 533 66 533 C82 533 118 550 118 558 C118 559 117 561 114 565 C108 574 105 582 105 592 C105 616 125 635 150 635 C175 635 191 615 191 584 C191 545 171 515 127 488 C109 477 101 468 101 459 C101 449 109 440 118 440 C125 440 130 443 139 453 C148 463 154 466 164 466 C186 466 198 442 198 394 C198 326 176 291 135 291 C116 291 106 299 99 320 C90 346 80 355 62 355 C43 355 27 340 27 321 C27 285 72 258 131 258 C225 258 293 317 293 397 C293 456 263 490 203 499 L203 499 Z " />
<glyph glyph-name="acute" unicode="&#xb4;" horiz-adv-x="487" d="M178 488 L212 488 L410 642 L410 649 L258 649 L178 488 Z " />
<glyph glyph-name="mu" unicode="&#xb5;" horiz-adv-x="576" d="M442 500 L353 500 L354 131 C318 80 284 58 242 58 C184 58 150 99 150 169 L150 500 L62 500 L62 20 C62 -1 58 -26 51 -56 C34 -118 33 -123 33 -147 C33 -190 54 -219 83 -219 C112 -219 132 -189 132 -145 C132 -124 129 -110 113 -53 C102 -17 101 -8 101 21 L101 33 C143 -3 165 -13 200 -13 C250 -13 301 18 354 80 C362 48 367 36 377 21 C392 0 419 -13 449 -13 C510 -13 553 31 567 108 L540 109 C536 71 515 41 492 41 C462 41 442 77 442 131 L442 500 Z " />
<glyph glyph-name="paragraph" unicode="&#xb6;" horiz-adv-x="594" d="M537 667 L278 667 C184 667 181 667 158 661 C90 643 46 583 46 506 C46 406 117 344 231 344 L251 344 L260 344 L260 2 L260 -19 L260 -24 C260 -48 252 -52 204 -52 L184 -52 L184 -84 L333 -84 L333 633 L398 633 L398 -84 L527 -84 L527 -52 L515 -52 C494 -52 479 -50 477 -47 C473 -45 471 -29 471 -2 L471 563 C471 598 475 623 480 627 C483 632 501 635 523 635 L537 635 L537 667 Z M260 635 L260 380 L232 380 C189 380 160 432 160 507 C160 551 172 598 189 617 C199 629 215 635 238 635 L260 635 Z " />
<glyph glyph-name="periodcentered" unicode="&#xb7;" horiz-adv-x="272" d="M131 410 C91 410 58 376 58 333 C58 291 91 256 130 256 C171 256 204 290 204 333 C204 376 171 410 131 410 L131 410 Z " />
<glyph glyph-name="cedilla" unicode="&#xb8;" horiz-adv-x="475" d="M214 0 C208 -52 204 -75 198 -100 C223 -102 238 -118 238 -142 C238 -165 224 -179 199 -179 C183 -179 169 -176 149 -169 C146 -187 146 -189 143 -205 C163 -213 180 -217 201 -217 C266 -217 308 -182 308 -129 C308 -84 282 -55 238 -49 C242 -26 242 -22 245 0 L214 0 Z " />
<glyph glyph-name="onesuperior" unicode="&#xb9;" horiz-adv-x="331" d="M72 609 L74 609 L86 609 L88 609 L96 609 L101 609 L104 609 L106 609 C123 610 127 601 127 558 L127 343 C126 304 123 300 99 300 L83 300 L83 267 L261 267 L261 300 L245 300 C221 300 218 305 217 344 L217 670 L184 670 C160 652 121 641 72 640 L72 609 Z " />
<glyph glyph-name="ordmasculine" unicode="&#xba;" horiz-adv-x="321" d="M160 536 C86 536 26 477 26 405 C26 362 49 304 74 286 C100 267 130 257 161 257 C239 257 295 316 295 397 C295 478 239 536 160 536 L160 536 Z M208 388 C208 325 191 290 161 290 C127 290 114 323 114 407 C114 470 130 503 161 503 C193 503 208 469 208 396 L208 388 Z " />
<glyph glyph-name="guillemotright" unicode="&#xbb;" horiz-adv-x="508" d="M483 216 L302 423 L257 423 L343 216 L257 8 L301 8 L483 216 Z M248 216 L67 423 L23 423 L109 216 L23 8 L67 8 L248 216 Z " />
<glyph glyph-name="onequarter" unicode="&#xbc;" horiz-adv-x="822" d="M184 670 C160 652 121 641 72 640 L72 609 L74 609 L84 609 L86 609 L94 609 L99 609 L101 609 L103 609 L106 609 C124 609 127 601 127 558 L127 343 C126 305 122 300 97 300 L81 300 L81 267 L263 267 L263 300 L246 300 C222 300 218 305 217 344 L217 670 L184 670 Z M302 0 L626 660 L572 660 L248 0 L302 0 Z M647 133 L647 80 C646 39 641 33 615 33 L599 33 L599 0 L783 0 L783 33 L768 33 C742 33 739 39 738 81 L738 133 L795 133 L803 195 L780 195 L778 189 C772 175 769 173 751 172 L738 172 L738 402 L689 402 L511 172 L511 133 L647 133 Z M647 172 L554 172 L647 297 L647 172 Z " />
<glyph glyph-name="onehalf" unicode="&#xbd;" horiz-adv-x="822" d="M184 670 C160 652 121 641 72 640 L72 609 L74 609 L84 609 L86 609 L94 609 L99 609 L101 609 L103 609 L106 609 C124 609 127 601 127 558 L127 343 C126 305 122 300 97 300 L81 300 L81 267 L263 267 L263 300 L246 300 C222 300 218 305 217 344 L217 670 L184 670 Z M283 0 L607 660 L553 660 L229 0 L283 0 Z M526 0 L717 0 C735 0 736 0 736 -9 C736 -11 736 -11 734 -16 L733 -25 L733 -26 L767 -26 L784 58 L614 58 C650 92 697 142 730 182 C771 232 782 255 782 295 C782 357 728 403 654 403 C582 403 527 360 527 303 C527 276 541 245 554 245 C557 245 562 246 567 249 C570 251 573 252 574 253 C589 258 595 263 595 269 C595 270 595 270 593 273 C589 281 587 287 587 299 L587 307 L587 308 C587 341 608 368 634 368 C666 368 687 338 687 293 C687 214 633 125 526 29 L526 0 Z " />
<glyph glyph-name="threequarters" unicode="&#xbe;" horiz-adv-x="822" d="M203 499 C262 535 282 560 282 595 C282 638 235 670 171 670 C100 670 42 629 42 578 C42 556 54 533 66 533 C82 533 118 550 118 558 C118 559 117 561 114 565 C108 574 105 582 105 592 C105 616 125 635 150 635 C175 635 191 615 191 584 C191 545 171 515 127 488 C109 477 101 468 101 459 C101 449 109 440 118 440 C125 440 130 443 139 453 C148 463 154 466 164 466 C186 466 198 442 198 394 C198 326 176 291 135 291 C116 291 106 299 99 320 C90 346 80 355 62 355 C43 355 27 340 27 321 C27 285 72 258 131 258 C225 258 293 317 293 397 C293 456 263 490 203 499 L203 499 Z M298 0 L623 660 L569 660 L243 0 L298 0 Z M647 133 L647 80 C646 39 641 33 615 33 L598 33 L598 0 L784 0 L784 33 L769 33 C743 33 739 39 738 81 L738 133 L796 133 L804 195 L780 195 L778 189 C772 174 770 173 751 172 L738 172 L738 402 L689 402 L510 172 L510 133 L647 133 Z M647 172 L553 172 L647 297 L647 172 Z " />
<glyph glyph-name="questiondown" unicode="&#xbf;" horiz-adv-x="431" d="M253 445 C213 445 181 411 181 369 C181 327 213 292 252 292 C292 292 325 326 325 368 C325 411 293 445 253 445 L253 445 Z M278 219 L230 219 L230 102 C209 114 190 119 167 119 C81 119 17 47 17 -50 C17 -166 96 -245 214 -245 C296 -245 366 -200 366 -147 C366 -126 347 -108 325 -108 C305 -108 291 -121 282 -147 C270 -187 255 -201 226 -201 C176 -201 147 -146 147 -50 C147 23 167 65 203 65 C219 65 230 58 240 41 L278 41 L278 219 Z " />
<glyph glyph-name="Agrave" unicode="&#xc0;" horiz-adv-x="624" d="M636 0 L636 44 L631 44 C585 50 572 65 535 157 L332 678 L290 678 L105 197 L95 170 C64 86 36 51 -6 44 L-13 44 L-13 0 L189 0 L189 44 L182 44 C146 44 122 63 122 91 C122 107 126 122 144 170 L156 202 L367 202 L396 128 C406 101 412 81 412 73 C412 53 392 44 350 44 L344 44 L344 0 L636 0 Z M350 247 L173 247 L260 475 L350 247 Z M362 729 L395 729 L295 877 L115 877 L115 869 L362 729 Z " />
<glyph glyph-name="Aacute" unicode="&#xc1;" horiz-adv-x="624" d="M636 0 L636 44 L631 44 C585 50 572 65 535 157 L332 678 L290 678 L105 197 L95 170 C64 86 36 51 -6 44 L-13 44 L-13 0 L189 0 L189 44 L182 44 C146 44 122 63 122 91 C122 107 126 122 144 170 L156 202 L367 202 L396 128 C406 101 412 81 412 73 C412 53 392 44 350 44 L344 44 L344 0 L636 0 Z M350 247 L173 247 L260 475 L350 247 Z M275 729 L308 729 L554 869 L554 877 L375 877 L275 729 Z " />
<glyph glyph-name="Acircumflex" unicode="&#xc2;" horiz-adv-x="624" d="M636 0 L636 44 L631 44 C585 50 572 65 535 157 L332 678 L290 678 L105 197 L95 170 C64 86 36 51 -6 44 L-13 44 L-13 0 L189 0 L189 44 L182 44 C146 44 122 63 122 91 C122 107 126 122 144 170 L156 202 L367 202 L396 128 C406 101 412 81 412 73 C412 53 392 44 350 44 L344 44 L344 0 L636 0 Z M350 247 L173 247 L260 475 L350 247 Z M234 879 L125 729 L157 729 L303 817 L468 729 L500 729 L390 879 L234 879 Z " />
<glyph glyph-name="Atilde" unicode="&#xc3;" horiz-adv-x="624" d="M636 0 L636 44 L631 44 C585 50 572 65 535 157 L332 678 L290 678 L105 197 L95 170 C64 86 36 51 -6 44 L-13 44 L-13 0 L189 0 L189 44 L182 44 C146 44 122 63 122 91 C122 107 126 122 144 170 L156 202 L367 202 L396 128 C406 101 412 81 412 73 C412 53 392 44 350 44 L344 44 L344 0 L636 0 Z M350 247 L173 247 L260 475 L350 247 Z M170 726 L170 729 C169 755 190 779 214 779 C228 779 245 773 275 758 C323 734 358 724 389 724 C444 724 485 775 485 845 L485 861 L453 861 C448 826 433 805 413 805 C396 805 371 813 343 828 C302 849 264 861 236 861 C178 861 138 812 138 740 L138 726 L170 726 Z " />
<glyph glyph-name="Adieresis" unicode="&#xc4;" horiz-adv-x="624" d="M636 0 L636 44 L631 44 C585 50 572 65 535 157 L332 678 L290 678 L105 197 L95 170 C64 86 36 51 -6 44 L-13 44 L-13 0 L189 0 L189 44 L182 44 C146 44 122 63 122 91 C122 107 126 122 144 170 L156 202 L367 202 L396 128 C406 101 412 81 412 73 C412 53 392 44 350 44 L344 44 L344 0 L636 0 Z M350 247 L173 247 L260 475 L350 247 Z M184 861 C146 861 116 831 116 793 C116 756 147 725 183 725 C221 725 252 755 252 793 C252 831 222 861 184 861 L184 861 Z M436 861 C399 861 368 831 368 794 C368 755 398 725 436 725 C474 725 504 756 504 793 C504 831 474 861 436 861 L436 861 Z " />
<glyph glyph-name="Aring" unicode="&#xc5;" horiz-adv-x="624" d="M105 197 L95 170 C64 86 36 51 -6 44 L-13 44 L-13 0 L189 0 L189 44 L182 44 C146 44 122 63 122 91 C122 107 126 122 144 170 L156 202 L367 202 L396 128 C406 101 412 81 412 73 C412 53 392 44 350 44 L344 44 L344 0 L636 0 L636 44 L631 44 C585 50 572 65 535 157 L344 646 C390 663 418 701 418 747 C418 806 370 854 311 854 C252 854 204 806 204 747 C204 701 232 663 278 646 L105 197 Z M350 247 L173 247 L260 475 L350 247 Z M311 815 C348 815 379 785 379 748 C379 710 348 680 310 680 C273 680 243 710 243 748 C243 785 274 815 311 815 L311 815 Z " />
<glyph glyph-name="AE" unicode="&#xc6;" horiz-adv-x="880" d="M378 322 L378 148 C377 65 363 44 304 44 L292 44 L292 0 L850 0 L855 213 L814 213 C782 87 741 45 646 47 L623 47 C542 47 525 66 526 158 L526 322 L593 322 C645 320 653 311 659 249 C660 245 660 242 660 240 L661 235 L661 232 L702 232 L702 457 L661 457 L660 451 C655 381 642 366 587 368 L526 368 L526 621 L648 621 C717 624 744 597 773 496 L815 496 L803 667 L226 667 L226 625 L247 625 C288 625 306 618 306 602 C306 590 297 565 282 534 L107 175 C63 86 25 47 -19 44 L-19 0 L185 0 L185 44 L180 44 C148 44 124 61 124 83 C124 98 131 119 144 143 L145 146 L229 322 L378 322 Z M378 368 L253 368 L378 633 L378 368 Z " />
<glyph glyph-name="Ccedilla" unicode="&#xc7;" horiz-adv-x="699" d="M640 10 L640 254 L599 254 C586 183 553 115 517 86 C481 57 437 40 394 40 C334 40 278 72 248 124 C221 170 209 234 209 328 C209 527 270 628 390 628 C444 628 501 601 532 561 C561 523 580 476 594 412 L634 412 L628 661 L587 661 C587 660 587 659 586 657 C584 638 577 618 566 593 C514 650 444 679 361 679 C177 679 41 529 41 326 C41 138 160 2 336 -12 C329 -63 325 -85 318 -111 C350 -113 369 -131 369 -157 C369 -183 350 -199 318 -199 C296 -199 278 -196 251 -188 C248 -208 248 -210 244 -228 C270 -238 292 -242 321 -242 C407 -242 463 -203 463 -144 C463 -94 429 -60 371 -54 C375 -28 376 -20 377 -12 C456 -8 525 24 571 76 C585 58 592 39 599 10 L640 10 Z " />
<glyph glyph-name="Egrave" unicode="&#xc8;" horiz-adv-x="623" d="M553 215 C521 89 476 45 379 47 L353 47 C277 50 258 74 261 164 L261 327 L323 327 C384 326 398 311 399 243 L399 235 L441 235 L441 462 L399 462 L399 455 C397 389 384 376 321 374 L261 374 L261 621 L367 621 C455 622 483 597 510 496 L552 496 L541 667 L31 667 L31 624 L41 624 C96 625 113 601 113 521 L113 149 C112 66 96 43 38 44 L27 44 L27 0 L587 0 L595 215 L553 215 Z M384 729 L417 729 L317 877 L138 877 L138 869 L384 729 Z " />
<glyph glyph-name="Eacute" unicode="&#xc9;" horiz-adv-x="623" d="M553 215 C521 89 476 45 379 47 L353 47 C277 50 258 74 261 164 L261 327 L323 327 C384 326 398 311 399 243 L399 235 L441 235 L441 462 L399 462 L399 455 C397 389 384 376 321 374 L261 374 L261 621 L367 621 C455 622 483 597 510 496 L552 496 L541 667 L31 667 L31 624 L41 624 C96 625 113 601 113 521 L113 149 C112 66 96 43 38 44 L27 44 L27 0 L587 0 L595 215 L553 215 Z M254 729 L287 729 L533 869 L533 877 L353 877 L254 729 Z " />
<glyph glyph-name="Ecircumflex" unicode="&#xca;" horiz-adv-x="623" d="M553 215 C521 89 476 45 379 47 L353 47 C277 50 258 74 261 164 L261 327 L323 327 C384 326 398 311 399 243 L399 235 L441 235 L441 462 L399 462 L399 455 C397 389 384 376 321 374 L261 374 L261 621 L367 621 C455 622 483 597 510 496 L552 496 L541 667 L31 667 L31 624 L41 624 C96 625 113 601 113 521 L113 149 C112 66 96 43 38 44 L27 44 L27 0 L587 0 L595 215 L553 215 Z M237 879 L129 729 L161 729 L307 817 L471 729 L503 729 L393 879 L237 879 Z " />
<glyph glyph-name="Edieresis" unicode="&#xcb;" horiz-adv-x="623" d="M553 215 C521 89 476 45 379 47 L353 47 C277 50 258 74 261 164 L261 327 L323 327 C384 326 398 311 399 243 L399 235 L441 235 L441 462 L399 462 L399 455 C397 389 384 376 321 374 L261 374 L261 621 L367 621 C455 622 483 597 510 496 L552 496 L541 667 L31 667 L31 624 L41 624 C96 625 113 601 113 521 L113 149 C112 66 96 43 38 44 L27 44 L27 0 L587 0 L595 215 L553 215 Z M185 861 C147 861 117 831 117 793 C117 756 148 725 184 725 C222 725 253 755 253 793 C253 831 223 861 185 861 L185 861 Z M437 861 C400 861 369 831 369 794 C369 755 399 725 437 725 C475 725 505 756 505 793 C505 831 475 861 437 861 L437 861 Z " />
<glyph glyph-name="Igrave" unicode="&#xcc;" horiz-adv-x="373" d="M27 623 L36 623 C98 624 111 605 112 521 L112 149 C111 66 96 44 38 44 L27 44 L27 0 L347 0 L347 44 L335 44 C275 44 261 65 260 149 L260 521 C261 606 274 624 336 623 L347 623 L347 667 L27 667 L27 623 Z M281 729 L314 729 L214 877 L35 877 L35 869 L281 729 Z " />
<glyph glyph-name="Iacute" unicode="&#xcd;" horiz-adv-x="373" d="M27 623 L36 623 C98 624 111 605 112 521 L112 149 C111 66 96 44 38 44 L27 44 L27 0 L347 0 L347 44 L335 44 C275 44 261 65 260 149 L260 521 C261 606 274 624 336 623 L347 623 L347 667 L27 667 L27 623 Z M134 729 L167 729 L413 869 L413 877 L234 877 L134 729 Z " />
<glyph glyph-name="Icircumflex" unicode="&#xce;" horiz-adv-x="373" d="M27 623 L36 623 C99 624 112 605 113 521 L113 149 C112 66 97 44 38 44 L27 44 L27 0 L347 0 L347 44 L335 44 C276 44 262 65 261 149 L261 521 C262 606 275 624 336 623 L347 623 L347 667 L27 667 L27 623 Z M113 879 L5 729 L37 729 L183 817 L348 729 L379 729 L269 879 L113 879 Z " />
<glyph glyph-name="Idieresis" unicode="&#xcf;" horiz-adv-x="373" d="M27 623 L36 623 C98 624 111 605 112 521 L112 149 C111 66 96 44 38 44 L27 44 L27 0 L347 0 L347 44 L335 44 C275 44 261 65 260 149 L260 521 C261 606 274 624 336 623 L347 623 L347 667 L27 667 L27 623 Z M79 861 C41 861 11 831 11 793 C11 756 42 725 78 725 C117 725 147 755 147 793 C147 831 117 861 79 861 L79 861 Z M293 861 C256 861 225 830 225 794 C225 756 255 725 292 725 C331 725 361 755 361 793 C361 831 331 861 293 861 L293 861 Z " />
<glyph glyph-name="Eth" unicode="&#xd0;" horiz-adv-x="751" d="M115 358 L24 358 L24 306 L115 306 L115 149 C115 65 100 44 42 44 L29 44 L29 0 L276 0 C439 0 495 9 556 43 C652 98 708 203 708 329 C708 453 653 557 560 611 C487 653 385 672 232 672 C209 672 191 672 159 671 C134 671 129 671 91 669 C61 667 48 666 30 665 L30 622 L40 622 C100 623 115 603 115 519 L115 358 Z M263 358 L263 626 C279 627 287 627 300 627 C372 627 416 613 457 577 C512 529 540 444 540 325 C540 185 499 90 429 65 C395 53 362 47 336 47 C275 47 263 68 263 171 L263 306 L398 306 L398 358 L263 358 Z " />
<glyph glyph-name="Ntilde" unicode="&#xd1;" horiz-adv-x="739" d="M629 -12 L629 513 C627 585 647 611 710 623 L718 623 L718 667 L483 667 L483 623 L491 623 C555 618 580 588 579 517 L579 221 L226 667 L22 667 L22 623 L27 623 C90 623 108 599 112 507 L112 162 C112 108 111 98 103 84 C90 62 58 45 26 44 L22 44 L22 0 L258 0 L258 44 L251 44 L248 44 C218 44 187 60 172 84 C164 100 163 105 162 163 L162 522 L580 -12 L629 -12 Z M243 726 L243 729 C243 757 262 779 287 779 C301 779 318 773 348 758 C396 734 431 724 462 724 C517 724 558 775 558 845 L558 861 L526 861 C521 826 506 805 485 805 C469 805 444 813 416 828 C375 849 337 861 309 861 C251 861 211 812 211 740 L211 726 L243 726 Z " />
<glyph glyph-name="Ograve" unicode="&#xd2;" horiz-adv-x="784" d="M398 679 C282 679 188 640 123 564 C70 503 41 420 41 331 C41 129 185 -13 391 -13 C598 -13 743 129 743 332 C743 534 598 679 398 679 L398 679 Z M392 628 C508 628 569 525 569 331 C569 136 511 38 394 38 C333 38 284 68 252 125 C228 169 215 247 215 351 C215 445 239 536 275 576 C306 610 346 628 392 628 L392 628 Z M476 729 L509 729 L409 877 L229 877 L229 869 L476 729 Z " />
<glyph glyph-name="Oacute" unicode="&#xd3;" horiz-adv-x="784" d="M398 679 C282 679 188 640 123 564 C70 503 41 420 41 331 C41 129 185 -13 391 -13 C598 -13 743 129 743 332 C743 534 598 679 398 679 L398 679 Z M392 628 C508 628 569 525 569 331 C569 136 511 38 394 38 C333 38 284 68 252 125 C228 169 215 247 215 351 C215 445 239 536 275 576 C306 610 346 628 392 628 L392 628 Z M339 729 L372 729 L618 869 L618 877 L439 877 L339 729 Z " />
<glyph glyph-name="Ocircumflex" unicode="&#xd4;" horiz-adv-x="784" d="M398 679 C282 679 188 640 123 564 C70 503 41 420 41 331 C41 129 185 -13 391 -13 C598 -13 743 129 743 332 C743 534 598 679 398 679 L398 679 Z M392 628 C508 628 569 525 569 331 C569 136 511 38 394 38 C333 38 284 68 252 125 C228 169 215 247 215 351 C215 445 239 536 275 576 C306 610 346 628 392 628 L392 628 Z M322 879 L214 729 L246 729 L392 817 L557 729 L589 729 L479 879 L322 879 Z " />
<glyph glyph-name="Otilde" unicode="&#xd5;" horiz-adv-x="784" d="M398 679 C282 679 188 640 123 564 C70 503 41 420 41 331 C41 129 185 -13 391 -13 C598 -13 743 129 743 332 C743 534 598 679 398 679 L398 679 Z M392 628 C508 628 569 525 569 331 C569 136 511 38 394 38 C333 38 284 68 252 125 C228 169 215 247 215 351 C215 445 239 536 275 576 C306 610 346 628 392 628 L392 628 Z M257 726 L257 729 C257 757 276 779 301 779 C315 779 332 773 362 758 C410 734 445 724 476 724 C531 724 572 775 572 845 L572 861 L540 861 C535 826 520 805 499 805 C483 805 458 813 430 828 C389 849 351 861 323 861 C265 861 225 812 225 740 L225 726 L257 726 Z " />
<glyph glyph-name="Odieresis" unicode="&#xd6;" horiz-adv-x="784" d="M398 679 C282 679 188 640 123 564 C70 503 41 420 41 331 C41 129 185 -13 391 -13 C598 -13 743 129 743 332 C743 534 598 679 398 679 L398 679 Z M392 628 C508 628 569 525 569 331 C569 136 511 38 394 38 C333 38 284 68 252 125 C228 169 215 247 215 351 C215 445 239 536 275 576 C306 610 346 628 392 628 L392 628 Z M266 861 C228 861 198 831 198 793 C198 756 229 725 265 725 C303 725 334 755 334 793 C334 831 304 861 266 861 L266 861 Z M518 861 C481 861 450 831 450 794 C450 755 480 725 518 725 C556 725 586 756 586 793 C586 831 556 861 518 861 L518 861 Z " />
<glyph glyph-name="multiply" unicode="&#xd7;" horiz-adv-x="475" d="M96 560 L47 508 L188 361 L45 211 L96 157 L238 308 L379 159 L429 210 L287 359 L430 508 L379 562 L237 412 L96 560 Z " />
<glyph glyph-name="Oslash" unicode="&#xd8;" horiz-adv-x="787" d="M686 650 L656 679 L605 618 C543 659 473 679 393 679 C189 679 43 535 43 333 C43 228 80 139 152 72 L152 71 L105 15 L137 -13 L186 45 C246 7 317 -13 395 -13 C600 -13 745 130 745 331 C745 435 708 524 638 591 L686 650 Z M553 488 C566 438 571 390 571 328 C571 136 512 38 396 38 C334 38 287 68 253 127 L553 488 Z M236 172 C223 220 217 277 217 344 C217 443 241 536 277 576 C307 609 350 628 395 628 C459 628 505 598 536 535 L236 172 Z " />
<glyph glyph-name="Ugrave" unicode="&#xd9;" horiz-adv-x="736" d="M485 667 L485 623 L490 623 C555 621 583 587 582 511 L582 286 C582 203 579 175 568 149 C540 84 477 44 404 44 C346 44 296 70 271 114 C252 149 246 186 246 275 L246 521 C247 605 261 624 323 623 L334 623 L334 667 L17 667 L17 623 L26 623 C88 624 103 604 104 521 L104 285 L104 254 C103 182 112 142 136 100 C178 29 265 -13 369 -13 C441 -13 511 10 556 49 C605 91 632 167 632 260 L632 284 L632 501 L632 519 C630 584 652 612 713 623 L719 623 L719 667 L485 667 Z M439 729 L472 729 L372 877 L193 877 L193 869 L439 729 Z " />
<glyph glyph-name="Uacute" unicode="&#xda;" horiz-adv-x="736" d="M485 667 L485 623 L490 623 C555 621 583 587 582 511 L582 286 C582 203 579 175 568 149 C540 84 477 44 404 44 C346 44 296 70 271 114 C252 149 246 186 246 275 L246 521 C247 605 261 624 323 623 L334 623 L334 667 L17 667 L17 623 L26 623 C88 624 103 604 104 521 L104 285 L104 254 C103 182 112 142 136 100 C178 29 265 -13 369 -13 C441 -13 511 10 556 49 C605 91 632 167 632 260 L632 284 L632 501 L632 519 C630 584 652 612 713 623 L719 623 L719 667 L485 667 Z M321 729 L354 729 L600 869 L600 877 L421 877 L321 729 Z " />
<glyph glyph-name="Ucircumflex" unicode="&#xdb;" horiz-adv-x="736" d="M485 667 L485 623 L490 623 C555 621 583 587 582 511 L582 286 C582 203 579 175 568 149 C540 84 477 44 404 44 C346 44 296 70 271 114 C252 149 246 186 246 275 L246 521 C247 605 261 624 323 623 L334 623 L334 667 L17 667 L17 623 L26 623 C88 624 103 604 104 521 L104 285 L104 254 C103 182 112 142 136 100 C178 29 265 -13 369 -13 C441 -13 511 10 556 49 C605 91 632 167 632 260 L632 284 L632 501 L632 519 C630 584 652 612 713 623 L719 623 L719 667 L485 667 Z M309 879 L200 729 L232 729 L378 817 L543 729 L575 729 L465 879 L309 879 Z " />
<glyph glyph-name="Udieresis" unicode="&#xdc;" horiz-adv-x="736" d="M485 667 L485 623 L490 623 C555 621 583 587 582 511 L582 286 C582 203 579 175 568 149 C540 84 477 44 404 44 C346 44 296 70 271 114 C252 149 246 186 246 275 L246 521 C247 605 261 624 323 623 L334 623 L334 667 L17 667 L17 623 L26 623 C88 624 103 604 104 521 L104 285 L104 254 C103 182 112 142 136 100 C178 29 265 -13 369 -13 C441 -13 511 10 556 49 C605 91 632 167 632 260 L632 284 L632 501 L632 519 C630 584 652 612 713 623 L719 623 L719 667 L485 667 Z M263 861 C225 861 195 831 195 793 C195 756 226 725 262 725 C300 725 331 755 331 793 C331 831 301 861 263 861 L263 861 Z M515 861 C478 861 447 831 447 794 C447 755 477 725 515 725 C553 725 583 756 583 793 C583 831 553 861 515 861 L515 861 Z " />
<glyph glyph-name="Yacute" unicode="&#xdd;" horiz-adv-x="629" d="M-12 667 L-12 623 L-6 623 C39 618 50 607 96 526 L240 267 L240 149 C239 66 224 44 166 44 L156 44 L156 0 L472 0 L472 44 L463 44 C404 44 389 66 389 149 L389 277 L513 497 L517 504 C576 601 590 615 636 623 L641 623 L641 667 L427 667 L427 623 L432 623 C469 623 493 606 493 578 C493 564 485 540 471 515 L370 332 L247 541 C230 569 225 581 225 592 C225 613 243 623 280 623 L285 623 L285 667 L-12 667 Z M301 729 L334 729 L580 869 L580 877 L401 877 L301 729 Z " />
<glyph glyph-name="Thorn" unicode="&#xde;" horiz-adv-x="612" d="M355 667 L27 667 L27 623 L41 623 C103 624 116 605 117 521 L117 149 C116 65 102 44 43 44 L30 44 L30 0 L355 0 L355 44 L339 44 C278 46 264 63 265 138 L265 148 L317 148 L337 148 C413 148 461 157 504 181 C555 208 587 267 587 333 C587 398 557 454 506 483 C456 511 405 520 300 520 C297 520 279 520 265 519 C264 604 277 621 339 623 L355 623 L355 667 Z M265 196 L265 472 C272 473 277 473 286 473 C331 473 352 469 373 457 C407 438 427 391 427 332 C427 291 415 249 397 227 C379 207 344 196 299 196 L265 196 Z " />
<glyph glyph-name="germandbls" unicode="&#xdf;" horiz-adv-x="560" d="M74 125 C74 57 66 44 20 42 L15 42 L15 0 L247 0 L247 42 L243 42 C209 45 204 53 203 118 L203 479 C203 541 206 572 212 590 C224 619 249 635 284 635 C339 635 367 594 367 512 C367 451 350 412 319 400 C302 393 287 390 273 390 L273 348 L274 348 L278 348 C364 343 389 291 388 118 L388 114 C388 60 376 32 352 32 C339 32 331 40 324 58 C315 80 312 84 301 84 C289 84 279 72 279 57 C279 19 316 -8 367 -8 C460 -8 525 68 525 176 C525 277 469 346 365 371 C448 393 496 447 496 519 C496 616 415 678 287 678 C220 678 172 663 136 630 C91 590 74 534 74 427 L74 125 Z " />
<glyph glyph-name="agrave" unicode="&#xe0;" horiz-adv-x="507" d="M471 84 C467 62 456 49 441 49 C423 49 415 66 415 108 L415 287 C415 337 410 355 389 377 C362 405 317 419 250 419 C135 419 50 375 50 316 C50 290 70 272 97 272 C127 272 144 288 150 323 C153 342 158 355 165 360 C175 369 197 375 217 375 C238 375 259 369 271 359 C282 350 288 330 288 298 L288 267 L250 252 L229 243 C143 209 72 166 54 137 C42 118 36 99 36 80 C36 26 78 -10 141 -10 C191 -10 241 9 294 49 C311 10 346 -10 394 -10 C459 -10 499 25 502 84 L471 84 Z M288 223 L288 93 C259 64 234 50 212 50 C185 50 164 74 164 106 C164 128 173 148 190 166 C215 190 224 196 286 222 L288 223 Z M348 488 L268 649 L115 649 L115 642 L315 488 L348 488 Z " />
<glyph glyph-name="aacute" unicode="&#xe1;" horiz-adv-x="507" d="M471 84 C467 62 456 49 441 49 C423 49 415 66 415 108 L415 287 C415 337 410 355 389 377 C362 405 317 419 250 419 C135 419 50 375 50 316 C50 290 70 272 97 272 C127 272 144 288 150 323 C153 342 158 355 165 360 C175 369 197 375 217 375 C238 375 259 369 271 359 C282 350 288 330 288 298 L288 267 L250 252 L229 243 C143 209 72 166 54 137 C42 118 36 99 36 80 C36 26 78 -10 141 -10 C191 -10 241 9 294 49 C311 10 346 -10 394 -10 C459 -10 499 25 502 84 L471 84 Z M288 223 L288 93 C259 64 234 50 212 50 C185 50 164 74 164 106 C164 128 173 148 190 166 C215 190 224 196 286 222 L288 223 Z M231 488 L265 488 L463 642 L463 649 L311 649 L231 488 Z " />
<glyph glyph-name="acircumflex" unicode="&#xe2;" horiz-adv-x="507" d="M471 84 C467 62 456 49 441 49 C423 49 415 66 415 108 L415 287 C415 337 410 355 389 377 C362 405 317 419 250 419 C135 419 50 375 50 316 C50 290 70 272 97 272 C127 272 144 288 150 323 C153 342 158 355 165 360 C175 369 197 375 217 375 C238 375 259 369 271 359 C282 350 288 330 288 298 L288 267 L250 252 L229 243 C143 209 72 166 54 137 C42 118 36 99 36 80 C36 26 78 -10 141 -10 C191 -10 241 9 294 49 C311 10 346 -10 394 -10 C459 -10 499 25 502 84 L471 84 Z M288 223 L288 93 C259 64 234 50 212 50 C185 50 164 74 164 106 C164 128 173 148 190 166 C215 190 224 196 286 222 L288 223 Z M367 489 L403 489 L316 652 L212 652 L123 489 L156 489 L260 578 L367 489 Z " />
<glyph glyph-name="atilde" unicode="&#xe3;" horiz-adv-x="507" d="M471 84 C467 62 456 49 441 49 C423 49 415 66 415 108 L415 287 C415 337 410 355 389 377 C362 405 317 419 250 419 C135 419 50 375 50 316 C50 290 70 272 97 272 C127 272 144 288 150 323 C153 342 158 355 165 360 C175 369 197 375 217 375 C238 375 259 369 271 359 C282 350 288 330 288 298 L288 267 L250 252 L229 243 C143 209 72 166 54 137 C42 118 36 99 36 80 C36 26 78 -10 141 -10 C191 -10 241 9 294 49 C311 10 346 -10 394 -10 C459 -10 499 25 502 84 L471 84 Z M288 223 L288 93 C259 64 234 50 212 50 C185 50 164 74 164 106 C164 128 173 148 190 166 C215 190 224 196 286 222 L288 223 Z M146 503 C152 535 166 550 191 550 C207 550 223 544 257 526 C290 509 310 503 331 503 C389 503 431 558 426 629 C426 630 426 633 425 635 L395 635 C393 600 377 582 349 582 C336 582 324 586 302 598 C258 622 236 629 210 629 C181 629 149 611 136 588 C123 566 117 541 117 503 L146 503 Z " />
<glyph glyph-name="adieresis" unicode="&#xe4;" horiz-adv-x="507" d="M471 84 C467 62 456 49 441 49 C423 49 415 66 415 108 L415 287 C415 337 410 355 389 377 C362 405 317 419 250 419 C135 419 50 375 50 316 C50 290 70 272 97 272 C127 272 144 288 150 323 C153 342 158 355 165 360 C175 369 197 375 217 375 C238 375 259 369 271 359 C282 350 288 330 288 298 L288 267 L250 252 L229 243 C143 209 72 166 54 137 C42 118 36 99 36 80 C36 26 78 -10 141 -10 C191 -10 241 9 294 49 C311 10 346 -10 394 -10 C459 -10 499 25 502 84 L471 84 Z M288 223 L288 93 C259 64 234 50 212 50 C185 50 164 74 164 106 C164 128 173 148 190 166 C215 190 224 196 286 222 L288 223 Z M159 633 C126 633 99 606 99 573 C99 541 126 513 158 513 C192 513 219 539 219 573 C219 606 192 633 159 633 L159 633 Z M359 633 C326 633 299 606 299 573 C299 540 326 513 358 513 C392 513 419 540 419 573 C419 606 392 633 359 633 L359 633 Z " />
<glyph glyph-name="aring" unicode="&#xe5;" horiz-adv-x="507" d="M471 84 C467 62 456 49 441 49 C423 49 415 66 415 108 L415 287 C415 337 410 355 389 377 C362 405 317 419 250 419 C135 419 50 375 50 316 C50 290 70 272 97 272 C127 272 144 288 150 323 C153 342 158 355 165 360 C175 369 197 375 217 375 C238 375 259 369 271 359 C282 350 288 330 288 298 L288 267 L250 252 L229 243 C143 209 72 166 54 137 C42 118 36 99 36 80 C36 26 78 -10 141 -10 C191 -10 241 9 294 49 C311 10 346 -10 394 -10 C459 -10 499 25 502 84 L471 84 Z M288 223 L288 93 C259 64 234 50 212 50 C185 50 164 74 164 106 C164 128 173 148 190 166 C215 190 224 196 286 222 L288 223 Z M267 682 C208 682 160 634 160 575 C160 518 208 469 265 469 C325 469 373 516 373 576 C373 634 325 682 267 682 L267 682 Z M266 643 C304 643 334 613 334 576 C334 538 303 508 266 508 C229 508 199 538 199 576 C199 613 230 643 266 643 L266 643 Z " />
<glyph glyph-name="ae" unicode="&#xe6;" horiz-adv-x="682" d="M602 99 C577 61 539 39 498 39 C477 39 457 46 441 60 C413 83 396 140 396 210 L396 226 L649 226 C640 346 570 419 465 419 C425 419 392 408 362 386 C361 387 354 390 341 396 C304 414 276 419 226 419 C123 419 43 374 43 317 C43 293 63 275 91 275 C120 275 140 294 145 326 C150 349 150 349 155 356 C164 368 184 376 206 376 C232 376 252 366 262 349 C270 335 272 324 272 291 L272 266 C190 235 120 202 93 181 C55 152 35 118 35 83 C35 30 82 -11 142 -11 C192 -11 248 17 299 67 C339 16 396 -11 466 -11 C543 -11 605 22 637 79 L602 99 Z M396 266 C398 335 423 376 464 376 C487 376 508 361 520 334 C526 320 528 305 530 266 L396 266 Z M272 96 C253 70 228 53 207 53 C180 53 159 78 159 112 C159 156 190 187 272 222 L272 96 Z " />
<glyph glyph-name="ccedilla" unicode="&#xe7;" horiz-adv-x="450" d="M389 116 C370 63 334 36 283 36 C207 36 172 95 172 221 C172 323 205 376 268 376 C296 376 309 366 314 340 C324 292 339 274 369 274 C396 274 416 297 416 327 C416 381 355 419 270 419 C134 419 33 323 33 194 C33 78 112 -6 230 -15 C224 -58 221 -77 216 -100 C241 -102 255 -117 255 -142 C255 -165 241 -179 217 -179 C200 -179 187 -176 166 -169 C164 -186 164 -189 161 -205 C180 -213 198 -217 218 -217 C283 -217 325 -182 325 -129 C325 -84 300 -55 256 -49 C258 -33 259 -30 261 -15 C346 -10 405 31 428 101 L389 116 Z " />
<glyph glyph-name="egrave" unicode="&#xe8;" horiz-adv-x="465" d="M387 100 C363 58 323 34 281 34 C209 34 169 93 169 197 C169 206 169 215 171 227 L432 227 L432 234 C432 343 354 419 244 419 C123 419 35 328 35 202 C35 76 125 -16 247 -16 C323 -16 392 22 424 81 L387 100 Z M171 266 C175 313 179 331 192 351 C202 365 223 376 242 376 C285 376 310 339 310 277 C310 274 310 270 309 266 L171 266 Z M334 488 L254 649 L101 649 L101 642 L300 488 L334 488 Z " />
<glyph glyph-name="eacute" unicode="&#xe9;" horiz-adv-x="465" d="M387 100 C363 58 323 34 281 34 C209 34 169 93 169 197 C169 206 169 215 171 227 L432 227 L432 234 C432 343 354 419 244 419 C123 419 35 328 35 202 C35 76 125 -16 247 -16 C323 -16 392 22 424 81 L387 100 Z M171 266 C175 313 179 331 192 351 C202 365 223 376 242 376 C285 376 310 339 310 277 C310 274 310 270 309 266 L171 266 Z M221 488 L254 488 L453 642 L453 649 L301 649 L221 488 Z " />
<glyph glyph-name="ecircumflex" unicode="&#xea;" horiz-adv-x="465" d="M387 100 C363 58 323 34 281 34 C209 34 169 93 169 197 C169 206 169 215 171 227 L432 227 L432 234 C432 343 354 419 244 419 C123 419 35 328 35 202 C35 76 125 -16 247 -16 C323 -16 392 22 424 81 L387 100 Z M171 266 C175 313 179 331 192 351 C202 365 223 376 242 376 C285 376 310 339 310 277 C310 274 310 270 309 266 L171 266 Z M355 489 L390 489 L304 652 L200 652 L110 489 L143 489 L247 578 L355 489 Z " />
<glyph glyph-name="edieresis" unicode="&#xeb;" horiz-adv-x="465" d="M387 100 C363 58 323 34 281 34 C209 34 169 93 169 197 C169 206 169 215 171 227 L432 227 L432 234 C432 343 354 419 244 419 C123 419 35 328 35 202 C35 76 125 -16 247 -16 C323 -16 392 22 424 81 L387 100 Z M171 266 C175 313 179 331 192 351 C202 365 223 376 242 376 C285 376 310 339 310 277 C310 274 310 270 309 266 L171 266 Z M157 633 C124 633 97 606 97 573 C97 541 124 513 156 513 C190 513 217 539 217 573 C217 606 190 633 157 633 L157 633 Z M357 633 C324 633 297 606 297 573 C297 540 324 513 356 513 C390 513 417 540 417 573 C417 606 390 633 357 633 L357 633 Z " />
<glyph glyph-name="igrave" unicode="&#xec;" horiz-adv-x="286" d="M213 419 L206 419 C175 411 53 389 15 386 L15 343 L26 343 C73 344 86 326 86 263 L86 125 C84 57 74 43 27 42 L15 42 L15 0 L274 0 L274 42 L268 42 C224 43 215 56 213 125 L213 419 Z M236 488 L156 649 L3 649 L3 642 L202 488 L236 488 Z " />
<glyph glyph-name="iacute" unicode="&#xed;" horiz-adv-x="286" d="M213 419 L206 419 C175 411 53 389 15 386 L15 343 L26 343 C73 344 86 326 86 263 L86 125 C84 57 74 43 27 42 L15 42 L15 0 L274 0 L274 42 L268 42 C224 43 215 56 213 125 L213 419 Z M106 488 L140 488 L338 642 L338 649 L187 649 L106 488 Z " />
<glyph glyph-name="icircumflex" unicode="&#xee;" horiz-adv-x="286" d="M214 419 L207 419 C176 411 54 389 16 386 L16 343 L27 343 C74 344 87 326 87 263 L87 125 C85 57 75 43 28 42 L16 42 L16 0 L274 0 L274 42 L268 42 C225 43 216 56 214 125 L214 419 Z M250 489 L285 489 L199 652 L94 652 L5 489 L38 489 L142 578 L250 489 Z " />
<glyph glyph-name="idieresis" unicode="&#xef;" horiz-adv-x="286" d="M214 419 L207 419 C176 411 54 389 16 386 L16 343 L27 343 C74 344 87 326 87 263 L87 125 C85 57 75 43 28 42 L16 42 L16 0 L274 0 L274 42 L268 42 C225 43 216 56 214 125 L214 419 Z M63 633 C30 633 3 606 3 573 C3 541 30 513 62 513 C96 513 123 539 123 573 C123 606 96 633 63 633 L63 633 Z M227 633 C194 633 167 606 167 573 C167 540 194 513 226 513 C260 513 287 540 287 573 C287 606 260 633 227 633 L227 633 Z " />
<glyph glyph-name="eth" unicode="&#xf0;" horiz-adv-x="516" d="M142 616 C180 592 185 588 218 560 L116 504 L134 466 L250 529 C284 493 317 438 330 396 C306 413 288 419 252 419 C127 419 35 327 35 202 C35 75 127 -14 258 -14 C397 -14 482 80 482 235 C482 363 435 473 335 576 L415 620 L396 657 L302 606 C266 635 235 655 191 678 L142 616 Z M260 374 C314 374 342 318 342 211 C342 137 336 102 316 68 C300 40 285 30 257 30 C203 30 174 87 174 196 C174 255 184 315 198 337 C213 362 234 374 260 374 L260 374 Z " />
<glyph glyph-name="ntilde" unicode="&#xf1;" horiz-adv-x="555" d="M193 412 C165 405 140 399 115 396 C94 393 75 390 21 380 L21 338 L25 338 C68 338 78 323 81 259 L81 125 C79 55 71 44 26 42 L22 42 L22 0 L260 0 L260 42 L258 42 C218 45 212 55 210 125 L210 283 C242 332 271 353 303 353 C335 353 355 328 355 288 L355 272 L355 125 C354 55 348 45 305 42 L305 0 L543 0 L543 42 L539 42 C496 43 488 55 486 125 L486 260 C486 315 482 337 468 362 C448 397 404 419 356 419 C302 419 251 393 212 346 C210 375 207 396 201 412 L193 412 Z M164 503 C169 535 183 550 208 550 C224 550 240 544 274 526 C307 509 327 503 348 503 C407 503 443 551 443 629 L443 635 L412 635 C410 600 394 582 367 582 C353 582 341 586 319 598 C275 622 253 629 227 629 C198 629 166 611 153 588 C140 566 135 541 134 503 L164 503 Z " />
<glyph glyph-name="ograve" unicode="&#xf2;" horiz-adv-x="517" d="M257 419 C127 419 35 328 35 199 C35 143 54 91 87 55 C127 12 192 -16 254 -16 C388 -16 482 73 482 201 C482 329 389 419 257 419 L257 419 Z M258 375 C319 375 343 324 343 196 C343 80 317 27 260 27 C242 27 226 33 212 44 C189 64 174 128 174 207 C174 275 186 334 205 352 C221 368 238 375 258 375 L258 375 Z M330 488 L249 649 L96 649 L96 642 L296 488 L330 488 Z " />
<glyph glyph-name="oacute" unicode="&#xf3;" horiz-adv-x="517" d="M257 419 C127 419 35 328 35 199 C35 143 54 91 87 55 C127 12 192 -16 254 -16 C388 -16 482 73 482 201 C482 329 389 419 257 419 L257 419 Z M258 375 C319 375 343 324 343 196 C343 80 317 27 260 27 C242 27 226 33 212 44 C189 64 174 128 174 207 C174 275 186 334 205 352 C221 368 238 375 258 375 L258 375 Z M229 488 L263 488 L461 642 L461 649 L309 649 L229 488 Z " />
<glyph glyph-name="ocircumflex" unicode="&#xf4;" horiz-adv-x="517" d="M257 419 C127 419 35 328 35 199 C35 143 54 91 87 55 C127 12 192 -16 254 -16 C388 -16 482 73 482 201 C482 329 389 419 257 419 L257 419 Z M258 375 C319 375 343 324 343 196 C343 80 317 27 260 27 C242 27 226 33 212 44 C189 64 174 128 174 207 C174 275 186 334 205 352 C221 368 238 375 258 375 L258 375 Z M372 489 L407 489 L321 652 L216 652 L127 489 L160 489 L264 578 L372 489 Z " />
<glyph glyph-name="otilde" unicode="&#xf5;" horiz-adv-x="517" d="M257 419 C127 419 35 328 35 199 C35 143 54 91 87 55 C127 12 192 -16 254 -16 C388 -16 482 73 482 201 C482 329 389 419 257 419 L257 419 Z M258 375 C319 375 343 324 343 196 C343 80 317 27 260 27 C242 27 226 33 212 44 C189 64 174 128 174 207 C174 275 186 334 205 352 C221 368 238 375 258 375 L258 375 Z M138 503 C144 535 158 550 182 550 C198 550 214 544 249 526 C282 509 301 503 322 503 C382 503 415 548 417 635 L387 635 C384 600 369 582 341 582 C328 582 316 586 293 598 C250 622 227 629 202 629 C173 629 141 611 127 588 C114 566 109 541 109 503 L138 503 Z " />
<glyph glyph-name="odieresis" unicode="&#xf6;" horiz-adv-x="517" d="M257 419 C127 419 35 328 35 199 C35 143 54 91 87 55 C127 12 192 -16 254 -16 C388 -16 482 73 482 201 C482 329 389 419 257 419 L257 419 Z M258 375 C319 375 343 324 343 196 C343 80 317 27 260 27 C242 27 226 33 212 44 C189 64 174 128 174 207 C174 275 186 334 205 352 C221 368 238 375 258 375 L258 375 Z M165 633 C132 633 105 606 105 573 C105 541 132 513 164 513 C198 513 225 539 225 573 C225 606 198 633 165 633 L165 633 Z M365 633 C332 633 305 606 305 573 C305 540 332 513 364 513 C398 513 425 540 425 573 C425 606 398 633 365 633 L365 633 Z " />
<glyph glyph-name="divide" unicode="&#xf7;" horiz-adv-x="475" d="M9 396 L9 323 L467 323 L467 396 L9 396 Z M233 248 C193 248 160 213 160 171 C160 129 193 94 232 94 C273 94 306 128 306 171 C306 214 273 248 233 248 L233 248 Z M233 622 C193 622 160 588 160 547 C160 503 192 469 233 469 C273 469 306 503 306 546 C306 588 273 622 233 622 L233 622 Z " />
<glyph glyph-name="oslash" unicode="&#xf8;" horiz-adv-x="517" d="M99 43 L58 -7 L88 -35 L132 18 C173 -5 212 -16 258 -16 C389 -16 482 75 482 202 C482 269 461 320 415 362 L456 411 L426 439 L382 386 C341 409 302 419 257 419 C127 419 35 327 35 200 C35 135 56 82 99 43 L99 43 Z M178 139 C175 164 174 186 174 211 C174 323 201 375 258 375 C292 375 316 357 329 322 L178 139 Z M339 270 C342 241 343 222 343 196 C343 80 317 27 260 27 C234 27 210 40 199 60 C196 66 194 71 189 87 L339 270 Z " />
<glyph glyph-name="ugrave" unicode="&#xf9;" horiz-adv-x="543" d="M471 403 L285 403 L285 361 L290 361 C333 359 340 349 342 279 L342 145 C342 141 335 118 331 109 C315 75 282 51 252 51 C218 51 202 78 202 134 L202 403 L13 403 L13 361 L17 361 C60 360 71 345 73 279 L73 130 C73 81 84 42 103 22 C127 -2 163 -16 200 -16 C254 -16 303 11 342 63 L342 54 L342 49 C342 42 342 38 343 34 L344 11 L345 7 L345 -1 C346 -5 346 -8 346 -8 C346 -10 347 -12 348 -16 L353 -16 C380 -8 471 1 528 0 L528 42 L525 42 C482 43 473 57 471 125 L471 403 Z M356 488 L276 649 L123 649 L123 642 L322 488 L356 488 Z " />
<glyph glyph-name="uacute" unicode="&#xfa;" horiz-adv-x="543" d="M471 403 L285 403 L285 361 L290 361 C333 359 340 349 342 279 L342 145 C342 141 335 118 331 109 C315 75 282 51 252 51 C218 51 202 78 202 134 L202 403 L13 403 L13 361 L17 361 C60 360 71 345 73 279 L73 130 C73 81 84 42 103 22 C127 -2 163 -16 200 -16 C254 -16 303 11 342 63 L342 54 L342 49 C342 42 342 38 343 34 L344 11 L345 7 L345 -1 C346 -5 346 -8 346 -8 C346 -10 347 -12 348 -16 L353 -16 C380 -8 471 1 528 0 L528 42 L525 42 C482 43 473 57 471 125 L471 403 Z M230 488 L264 488 L462 642 L462 649 L311 649 L230 488 Z " />
<glyph glyph-name="ucircumflex" unicode="&#xfb;" horiz-adv-x="543" d="M471 403 L285 403 L285 361 L290 361 C333 359 340 349 342 279 L342 145 C342 141 335 118 331 109 C315 75 282 51 252 51 C218 51 202 78 202 134 L202 403 L13 403 L13 361 L17 361 C60 360 71 345 73 279 L73 130 C73 81 84 42 103 22 C127 -2 163 -16 200 -16 C254 -16 303 11 342 63 L342 54 L342 49 C342 42 342 38 343 34 L344 11 L345 7 L345 -1 C346 -5 346 -8 346 -8 C346 -10 347 -12 348 -16 L353 -16 C380 -8 471 1 528 0 L528 42 L525 42 C482 43 473 57 471 125 L471 403 Z M382 489 L417 489 L331 652 L226 652 L137 489 L170 489 L274 578 L382 489 Z " />
<glyph glyph-name="udieresis" unicode="&#xfc;" horiz-adv-x="543" d="M471 403 L285 403 L285 361 L290 361 C333 359 340 349 342 279 L342 145 C342 141 335 118 331 109 C315 75 282 51 252 51 C218 51 202 78 202 134 L202 403 L13 403 L13 361 L17 361 C60 360 71 345 73 279 L73 130 C73 81 84 42 103 22 C127 -2 163 -16 200 -16 C254 -16 303 11 342 63 L342 54 L342 49 C342 42 342 38 343 34 L344 11 L345 7 L345 -1 C346 -5 346 -8 346 -8 C346 -10 347 -12 348 -16 L353 -16 C380 -8 471 1 528 0 L528 42 L525 42 C482 43 473 57 471 125 L471 403 Z M173 633 C140 633 113 606 113 573 C113 541 140 513 172 513 C206 513 233 539 233 573 C233 606 206 633 173 633 L173 633 Z M373 633 C340 633 313 606 313 573 C313 540 340 513 372 513 C406 513 433 540 433 573 C433 606 406 633 373 633 L373 633 Z " />
<glyph glyph-name="yacute" unicode="&#xfd;" horiz-adv-x="478" d="M-5 403 L-5 361 L2 360 C29 358 39 347 65 293 L224 -15 L205 -65 C186 -107 172 -117 113 -135 C73 -147 55 -166 55 -196 C55 -227 79 -250 111 -250 C150 -250 182 -220 211 -155 C220 -136 225 -123 227 -120 L231 -112 L385 251 C396 275 397 276 408 301 C427 342 443 357 468 360 L475 361 L475 403 L325 403 L325 361 L331 361 L333 361 L336 361 L337 361 C352 361 370 348 370 336 C370 330 368 322 364 313 C359 302 354 292 352 286 L282 118 L195 301 C188 316 184 329 184 338 C184 353 192 359 213 361 L219 361 L219 403 L-5 403 Z M218 488 L252 488 L450 642 L450 649 L298 649 L218 488 Z " />
<glyph glyph-name="thorn" unicode="&#xfe;" horiz-adv-x="556" d="M7 602 L14 602 C59 601 68 588 70 520 L70 -116 C68 -185 59 -198 14 -199 L7 -199 L7 -241 L267 -241 L267 -199 L256 -199 C211 -198 201 -184 199 -116 L199 42 C243 1 282 -16 330 -16 C440 -16 521 78 521 205 C521 329 445 419 340 419 C287 419 239 396 197 350 L197 678 L189 678 C169 672 72 653 49 651 C28 648 18 647 7 644 L7 602 Z M199 295 C226 340 256 361 291 361 C347 361 382 304 382 212 L382 208 L382 196 C382 143 376 113 361 87 C345 59 316 42 288 42 C256 42 226 59 199 92 L199 295 Z " />
<glyph glyph-name="ydieresis" unicode="&#xff;" horiz-adv-x="478" d="M-5 403 L-5 361 L2 360 C29 358 39 347 65 293 L224 -15 L205 -65 C186 -107 172 -117 113 -135 C73 -147 55 -166 55 -196 C55 -227 79 -250 111 -250 C150 -250 182 -220 211 -155 C220 -136 225 -123 227 -120 L231 -112 L385 251 C396 275 397 276 408 301 C427 342 443 357 468 360 L475 361 L475 403 L325 403 L325 361 L331 361 L333 361 L336 361 L337 361 C352 361 370 348 370 336 C370 330 368 322 364 313 C359 302 354 292 352 286 L282 118 L195 301 C188 316 184 329 184 338 C184 353 192 359 213 361 L219 361 L219 403 L-5 403 Z M161 633 C128 633 101 606 101 573 C101 541 128 513 160 513 C194 513 221 539 221 573 C221 606 194 633 161 633 L161 633 Z M361 633 C328 633 301 606 301 573 C301 540 328 513 360 513 C394 513 421 540 421 573 C421 606 394 633 361 633 L361 633 Z " />
<glyph glyph-name="Amacron" unicode="&#x100;" horiz-adv-x="624" d="M636 0 L636 44 L631 44 C585 50 572 65 535 157 L332 678 L290 678 L105 197 L95 170 C64 86 36 51 -6 44 L-13 44 L-13 0 L189 0 L189 44 L182 44 C146 44 122 63 122 91 C122 107 126 122 144 170 L156 202 L367 202 L396 128 C406 101 412 81 412 73 C412 53 392 44 350 44 L344 44 L344 0 L636 0 Z M350 247 L173 247 L260 475 L350 247 Z M154 810 L154 758 L469 758 L469 810 L154 810 Z " />
<glyph glyph-name="amacron" unicode="&#x101;" horiz-adv-x="507" d="M471 84 C467 62 456 49 441 49 C423 49 415 66 415 108 L415 287 C415 337 410 355 389 377 C362 405 317 419 250 419 C135 419 50 375 50 316 C50 290 70 272 97 272 C127 272 144 288 150 323 C153 342 158 355 165 360 C175 369 197 375 217 375 C238 375 259 369 271 359 C282 350 288 330 288 298 L288 267 L250 252 L229 243 C143 209 72 166 54 137 C42 118 36 99 36 80 C36 26 78 -10 141 -10 C191 -10 241 9 294 49 C311 10 346 -10 394 -10 C459 -10 499 25 502 84 L471 84 Z M288 223 L288 93 C259 64 234 50 212 50 C185 50 164 74 164 106 C164 128 173 148 190 166 C215 190 224 196 286 222 L288 223 Z M103 541 L397 541 L397 590 L103 590 L103 541 Z " />
<glyph glyph-name="Abreve" unicode="&#x102;" horiz-adv-x="624" d="M636 0 L636 44 L631 44 C585 50 572 65 535 157 L332 678 L290 678 L105 197 L95 170 C64 86 36 51 -6 44 L-13 44 L-13 0 L189 0 L189 44 L182 44 C146 44 122 63 122 91 C122 107 126 122 144 170 L156 202 L367 202 L396 128 C406 101 412 81 412 73 C412 53 392 44 350 44 L344 44 L344 0 L636 0 Z M350 247 L173 247 L260 475 L350 247 Z M127 880 C154 782 227 720 316 720 C405 720 478 783 502 880 L458 880 C432 835 381 810 315 810 C248 810 204 832 173 880 L127 880 Z " />
<glyph glyph-name="abreve" unicode="&#x103;" horiz-adv-x="507" d="M471 84 C467 62 456 49 441 49 C423 49 415 66 415 108 L415 287 C415 337 410 355 389 377 C362 405 317 419 250 419 C135 419 50 375 50 316 C50 290 70 272 97 272 C127 272 144 288 150 323 C153 342 158 355 165 360 C175 369 197 375 217 375 C238 375 259 369 271 359 C282 350 288 330 288 298 L288 267 L250 252 L229 243 C143 209 72 166 54 137 C42 118 36 99 36 80 C36 26 78 -10 141 -10 C191 -10 241 9 294 49 C311 10 346 -10 394 -10 C459 -10 499 25 502 84 L471 84 Z M288 223 L288 93 C259 64 234 50 212 50 C185 50 164 74 164 106 C164 128 173 148 190 166 C215 190 224 196 286 222 L288 223 Z M127 648 L127 645 C125 611 142 568 170 536 C198 504 229 489 270 489 C349 489 408 556 413 648 L385 648 C367 596 330 571 272 571 C211 571 171 598 155 648 L127 648 Z " />
<glyph glyph-name="Aogonek" unicode="&#x104;" horiz-adv-x="624" d="M636 0 L636 44 L631 44 C585 50 572 65 535 157 L332 678 L290 678 L105 197 L95 170 C64 86 36 51 -6 44 L-13 44 L-13 0 L189 0 L189 44 L182 44 C146 44 122 63 122 91 C122 107 126 122 144 170 L156 202 L367 202 L396 128 C406 101 412 81 412 73 C412 53 392 44 350 44 L344 44 L344 0 L530 0 C479 -25 444 -72 444 -117 C444 -170 490 -209 552 -209 C588 -209 615 -199 653 -171 L640 -150 C622 -159 613 -162 599 -162 C563 -162 537 -132 537 -89 C537 -57 548 -28 571 0 L636 0 Z M350 247 L173 247 L260 475 L350 247 Z " />
<glyph glyph-name="aogonek" unicode="&#x105;" horiz-adv-x="507" d="M471 84 C467 63 456 50 441 50 C423 50 415 67 415 108 L415 287 C415 337 410 355 389 377 C362 405 317 419 250 419 C135 419 50 375 50 316 C50 290 70 272 97 272 C127 272 144 288 150 323 C153 342 158 355 165 360 C175 369 197 375 217 375 C238 375 259 369 271 359 C282 350 288 330 288 298 L288 267 L250 252 L229 243 C143 209 72 166 54 137 C42 118 36 99 36 80 C36 26 78 -10 141 -10 C191 -10 241 9 294 49 C307 18 332 -1 371 -8 C335 -32 312 -70 312 -107 C312 -156 351 -192 404 -192 C434 -192 457 -183 490 -158 L479 -137 C465 -145 457 -147 446 -147 C415 -147 394 -120 394 -80 C394 -54 401 -29 414 -8 C469 0 500 33 502 84 L471 84 Z M288 223 L288 93 C259 64 234 50 212 50 C185 50 164 74 164 106 C164 128 173 148 190 166 C215 190 224 196 286 222 L288 223 Z " />
<glyph glyph-name="Cacute" unicode="&#x106;" horiz-adv-x="699" d="M599 254 C586 183 553 115 517 86 C481 57 437 40 394 40 C334 40 278 72 248 124 C221 170 209 234 209 328 C209 527 270 628 390 628 C444 628 501 601 532 561 C561 523 580 476 594 412 L634 412 L628 661 L587 661 C587 660 587 659 586 657 C584 638 577 618 566 593 C514 650 444 679 361 679 C177 679 41 529 41 326 C41 130 175 -13 359 -13 C444 -13 519 19 571 76 C585 58 592 39 599 10 L640 10 L640 254 L599 254 Z M310 729 L343 729 L589 869 L589 877 L410 877 L310 729 Z " />
<glyph glyph-name="cacute" unicode="&#x107;" horiz-adv-x="450" d="M389 116 C371 63 334 36 283 36 C207 36 172 95 172 221 C172 323 205 376 268 376 C296 376 309 366 314 340 C324 292 339 274 369 274 C396 274 416 297 416 327 C416 381 356 419 270 419 C134 419 33 323 33 193 C33 71 122 -16 248 -16 C338 -16 402 26 428 101 L389 116 Z M222 488 L255 488 L454 642 L454 649 L302 649 L222 488 Z " />
<glyph glyph-name="Ccircumflex" unicode="&#x108;" horiz-adv-x="699" d="M599 254 C586 183 553 115 517 86 C481 57 437 40 394 40 C334 40 278 72 248 124 C221 170 209 234 209 328 C209 527 270 628 390 628 C444 628 501 601 532 561 C561 523 580 476 594 412 L634 412 L628 661 L587 661 C587 660 587 659 586 657 C584 638 577 618 566 593 C514 650 444 679 361 679 C177 679 41 529 41 326 C41 130 175 -13 359 -13 C444 -13 519 19 571 76 C585 58 592 39 599 10 L640 10 L640 254 L599 254 Z M296 879 L188 729 L219 729 L366 817 L530 729 L562 729 L452 879 L296 879 Z " />
<glyph glyph-name="Cdotaccent" unicode="&#x10a;" horiz-adv-x="699" d="M599 254 C586 183 553 115 517 86 C481 57 437 40 394 40 C334 40 278 72 248 124 C221 170 209 234 209 328 C209 527 270 628 390 628 C444 628 501 601 532 561 C561 523 580 476 594 412 L634 412 L628 661 L587 661 C587 660 587 659 586 657 C584 638 577 618 566 593 C514 650 444 679 361 679 C177 679 41 529 41 326 C41 130 175 -13 359 -13 C444 -13 519 19 571 76 C585 58 592 39 599 10 L640 10 L640 254 L599 254 Z M366 861 C328 861 298 831 298 793 C298 756 329 725 365 725 C403 725 434 755 434 793 C434 831 404 861 366 861 L366 861 Z " />
<glyph glyph-name="cdotaccent" unicode="&#x10b;" horiz-adv-x="450" d="M389 116 C371 63 334 36 283 36 C207 36 172 95 172 221 C172 323 205 376 268 376 C296 376 309 366 314 340 C324 292 339 274 369 274 C396 274 416 297 416 327 C416 381 356 419 270 419 C134 419 33 323 33 193 C33 71 122 -16 248 -16 C338 -16 402 26 428 101 L389 116 Z M270 633 C237 633 210 606 210 573 C210 541 237 513 269 513 C303 513 330 539 330 573 C330 606 303 633 270 633 L270 633 Z " />
<glyph glyph-name="Ccaron" unicode="&#x10c;" horiz-adv-x="699" d="M599 254 C586 183 553 115 517 86 C481 57 437 40 394 40 C334 40 278 72 248 124 C221 170 209 234 209 328 C209 527 270 628 390 628 C444 628 501 601 532 561 C561 523 580 476 594 412 L634 412 L628 661 L587 661 C587 660 587 659 586 657 C584 638 577 618 566 593 C514 650 444 679 361 679 C177 679 41 529 41 326 C41 130 175 -13 359 -13 C444 -13 519 19 571 76 C585 58 592 39 599 10 L640 10 L640 254 L599 254 Z M446 729 L556 879 L525 879 L378 791 L214 879 L182 879 L290 729 L446 729 Z " />
<glyph glyph-name="ccaron" unicode="&#x10d;" horiz-adv-x="450" d="M389 116 C371 63 334 36 283 36 C207 36 172 95 172 221 C172 323 205 376 268 376 C296 376 309 366 314 340 C324 292 339 274 369 274 C396 274 416 297 416 327 C416 381 356 419 270 419 C134 419 33 323 33 193 C33 71 122 -16 248 -16 C338 -16 402 26 428 101 L389 116 Z M155 655 L122 655 L212 491 L317 491 L402 655 L367 655 L267 566 L155 655 Z " />
<glyph glyph-name="Dcaron" unicode="&#x10e;" horiz-adv-x="748" d="M28 622 L38 622 C98 623 113 602 113 519 L113 149 C113 65 97 44 40 44 L27 44 L27 0 L274 0 C437 0 494 9 555 43 C651 98 707 203 707 329 C707 453 652 557 559 611 C485 653 383 672 230 672 C207 672 189 672 157 671 C132 671 127 671 89 669 C57 667 46 666 28 665 L28 622 Z M261 626 C277 627 285 627 298 627 C371 627 415 613 456 577 C511 529 539 444 539 326 C539 185 498 90 427 65 C393 53 360 47 334 47 C273 47 261 68 261 171 L261 626 Z M418 729 L528 879 L497 879 L350 791 L186 879 L154 879 L262 729 L418 729 Z " />
<glyph glyph-name="dcaron" unicode="&#x10f;" horiz-adv-x="677" d="M545 50 L539 50 C495 51 485 66 485 133 L485 678 L478 678 C470 676 465 675 463 675 C447 672 432 669 417 666 C396 662 358 656 306 649 C299 648 298 648 292 647 L292 605 L297 605 C342 604 354 588 356 522 L356 364 C324 399 274 419 222 419 C110 419 35 330 35 197 C35 72 107 -12 212 -12 C265 -12 304 6 358 56 L358 50 C358 26 361 10 368 -12 C411 -2 474 4 545 6 L545 50 Z M356 111 C333 70 298 47 261 47 C205 47 174 103 174 205 C174 310 204 361 267 361 C297 361 323 347 356 315 L356 111 Z M525 434 C614 442 671 498 671 576 C671 637 638 678 589 678 C549 678 520 651 520 614 C520 582 544 556 575 556 C579 556 585 557 590 558 C603 561 603 561 606 561 C614 561 621 552 621 541 C621 507 580 479 525 473 L525 434 Z " />
<glyph glyph-name="Dcroat" unicode="&#x110;" horiz-adv-x="751" d="M115 358 L24 358 L24 306 L115 306 L115 149 C115 65 100 44 42 44 L29 44 L29 0 L276 0 C439 0 495 9 556 43 C652 98 708 203 708 329 C708 453 653 557 560 611 C487 653 385 672 232 672 C209 672 191 672 159 671 C134 671 129 671 91 669 C61 667 48 666 30 665 L30 622 L40 622 C100 623 115 603 115 519 L115 358 Z M263 358 L263 626 C279 627 287 627 300 627 C372 627 416 613 457 577 C512 529 540 444 540 325 C540 185 499 90 429 65 C395 53 362 47 336 47 C275 47 263 68 263 171 L263 306 L398 306 L398 358 L263 358 Z " />
<glyph glyph-name="dcroat" unicode="&#x111;" horiz-adv-x="556" d="M356 491 L356 364 C324 399 275 419 222 419 C110 419 35 330 35 197 C35 72 107 -12 212 -12 C266 -12 305 6 358 56 L358 50 C358 26 361 10 368 -12 C411 -2 474 4 545 6 L545 50 L539 50 C495 51 485 66 485 133 L485 491 L545 491 L545 535 L485 535 L485 678 L478 678 C470 676 465 675 463 675 C447 672 432 669 417 666 C395 662 357 656 306 649 C299 648 298 648 292 647 L292 604 L297 604 C340 603 350 591 356 535 L218 535 L218 491 L356 491 Z M356 111 C332 70 299 47 261 47 C205 47 174 103 174 205 C174 310 204 361 267 361 C297 361 324 347 356 315 L356 111 Z " />
<glyph glyph-name="Emacron" unicode="&#x112;" horiz-adv-x="623" d="M553 215 C521 89 476 45 379 47 L353 47 C277 50 258 74 261 164 L261 327 L323 327 C384 326 398 311 399 243 L399 235 L441 235 L441 462 L399 462 L399 455 C397 389 384 376 321 374 L261 374 L261 621 L367 621 C455 622 483 597 510 496 L552 496 L541 667 L31 667 L31 624 L41 624 C96 625 113 601 113 521 L113 149 C112 66 96 43 38 44 L27 44 L27 0 L587 0 L595 215 L553 215 Z M158 810 L158 758 L473 758 L473 810 L158 810 Z " />
<glyph glyph-name="emacron" unicode="&#x113;" horiz-adv-x="465" d="M387 100 C363 58 323 34 281 34 C209 34 169 93 169 197 C169 206 169 215 171 227 L432 227 L432 234 C432 343 354 419 244 419 C123 419 35 328 35 202 C35 76 125 -16 247 -16 C323 -16 392 22 424 81 L387 100 Z M171 266 C175 313 179 331 192 351 C202 365 223 376 242 376 C285 376 310 339 310 277 C310 274 310 270 309 266 L171 266 Z M99 541 L393 541 L393 590 L99 590 L99 541 Z " />
<glyph glyph-name="Ebreve" unicode="&#x114;" horiz-adv-x="623" d="M553 215 C521 89 476 45 379 47 L353 47 C277 50 258 74 261 164 L261 327 L323 327 C384 326 398 311 399 243 L399 235 L441 235 L441 462 L399 462 L399 455 C397 389 384 376 321 374 L261 374 L261 621 L367 621 C455 622 483 597 510 496 L552 496 L541 667 L31 667 L31 624 L41 624 C96 625 113 601 113 521 L113 149 C112 66 96 43 38 44 L27 44 L27 0 L587 0 L595 215 L553 215 Z M139 880 C166 782 239 720 328 720 C416 720 489 783 514 880 L469 880 C443 835 392 810 326 810 C260 810 216 832 185 880 L139 880 Z " />
<glyph glyph-name="ebreve" unicode="&#x115;" horiz-adv-x="465" d="M387 100 C363 58 323 34 281 34 C209 34 169 93 169 197 C169 206 169 215 171 227 L432 227 L432 234 C432 343 354 419 244 419 C123 419 35 328 35 202 C35 76 125 -16 247 -16 C323 -16 392 22 424 81 L387 100 Z M171 266 C175 313 179 331 192 351 C202 365 223 376 242 376 C285 376 310 339 310 277 C310 274 310 270 309 266 L171 266 Z M111 648 C114 558 176 489 253 489 C332 489 392 556 396 648 L369 648 C351 596 314 571 256 571 C195 571 154 598 139 648 L111 648 Z " />
<glyph glyph-name="Edotaccent" unicode="&#x116;" horiz-adv-x="623" d="M553 215 C521 89 476 45 379 47 L353 47 C277 50 258 74 261 164 L261 327 L323 327 C384 326 398 311 399 243 L399 235 L441 235 L441 462 L399 462 L399 455 C397 389 384 376 321 374 L261 374 L261 621 L367 621 C455 622 483 597 510 496 L552 496 L541 667 L31 667 L31 624 L41 624 C96 625 113 601 113 521 L113 149 C112 66 96 43 38 44 L27 44 L27 0 L587 0 L595 215 L553 215 Z M315 861 C277 861 247 831 247 793 C247 756 278 725 314 725 C352 725 383 755 383 793 C383 831 353 861 315 861 L315 861 Z " />
<glyph glyph-name="edotaccent" unicode="&#x117;" horiz-adv-x="465" d="M387 100 C363 58 323 34 281 34 C209 34 169 93 169 197 C169 206 169 215 171 227 L432 227 L432 234 C432 343 354 419 244 419 C123 419 35 328 35 202 C35 76 125 -16 247 -16 C323 -16 392 22 424 81 L387 100 Z M171 266 C175 313 179 331 192 351 C202 365 223 376 242 376 C285 376 310 339 310 277 C310 274 310 270 309 266 L171 266 Z M253 633 C220 633 193 606 193 573 C193 541 220 513 252 513 C286 513 313 539 313 573 C313 606 286 633 253 633 L253 633 Z " />
<glyph glyph-name="Eogonek" unicode="&#x118;" horiz-adv-x="623" d="M587 0 L595 215 L553 215 C521 89 476 45 379 47 L353 47 C277 50 258 74 261 164 L261 327 L323 327 C384 326 398 311 399 243 L399 235 L441 235 L441 462 L399 462 L399 455 C397 389 384 376 321 374 L261 374 L261 621 L367 621 C455 622 483 597 510 496 L552 496 L541 667 L31 667 L31 624 L41 624 C96 625 113 601 113 521 L113 149 C112 66 96 43 38 44 L27 44 L27 0 L458 0 C407 -25 372 -72 372 -117 C372 -170 418 -209 480 -209 C516 -209 543 -199 581 -171 L568 -150 C550 -159 541 -162 527 -162 C491 -162 465 -132 465 -89 C465 -57 476 -28 499 0 L587 0 Z " />
<glyph glyph-name="eogonek" unicode="&#x119;" horiz-adv-x="465" d="M387 100 C363 58 323 34 281 34 C209 34 169 93 169 197 C169 206 169 215 171 227 L432 227 L432 234 C432 343 354 419 244 419 C123 419 35 328 35 202 C35 76 125 -16 247 -16 C255 -16 259 -16 266 -15 C235 -40 217 -74 217 -107 C217 -156 257 -192 309 -192 C340 -192 363 -183 395 -158 L385 -137 C370 -145 362 -147 352 -147 C320 -147 299 -120 299 -81 C299 -52 307 -27 324 -2 C371 16 405 45 424 81 L387 100 Z M171 266 C175 313 179 331 192 351 C202 365 223 376 242 376 C285 376 310 339 310 277 C310 274 310 270 309 266 L171 266 Z " />
<glyph glyph-name="Ecaron" unicode="&#x11a;" horiz-adv-x="623" d="M553 215 C521 89 476 45 379 47 L353 47 C277 50 258 74 261 164 L261 327 L323 327 C384 326 398 311 399 243 L399 235 L441 235 L441 462 L399 462 L399 455 C397 389 384 376 321 374 L261 374 L261 621 L367 621 C455 622 483 597 510 496 L552 496 L541 667 L31 667 L31 624 L41 624 C96 625 113 601 113 521 L113 149 C112 66 96 43 38 44 L27 44 L27 0 L587 0 L595 215 L553 215 Z M396 729 L506 879 L474 879 L328 791 L163 879 L131 879 L239 729 L396 729 Z " />
<glyph glyph-name="ecaron" unicode="&#x11b;" horiz-adv-x="465" d="M387 100 C363 58 323 34 281 34 C209 34 169 93 169 197 C169 206 169 215 171 227 L432 227 L432 234 C432 343 354 419 244 419 C123 419 35 328 35 202 C35 76 125 -16 247 -16 C323 -16 392 22 424 81 L387 100 Z M171 266 C175 313 179 331 192 351 C202 365 223 376 242 376 C285 376 310 339 310 277 C310 274 310 270 309 266 L171 266 Z M143 655 L110 655 L201 491 L305 491 L390 655 L355 655 L256 566 L143 655 Z " />
<glyph glyph-name="Gcircumflex" unicode="&#x11c;" horiz-adv-x="743" d="M436 300 L436 256 L446 256 C499 252 513 238 516 186 L516 161 C516 121 511 103 493 81 C468 52 431 37 386 37 C327 37 278 64 251 111 C224 157 212 221 212 318 C212 417 226 496 252 542 C281 594 335 625 397 625 C494 625 564 557 591 436 L633 436 L630 667 L587 667 C585 639 579 618 568 595 C511 653 445 680 366 680 C285 680 212 652 156 599 C84 531 41 429 41 325 C41 131 179 -13 365 -13 C412 -13 447 -7 518 13 C565 27 608 34 641 34 C644 34 650 34 660 32 L660 149 C660 235 665 246 716 255 L724 256 L724 300 L436 300 Z M315 879 L207 729 L239 729 L385 817 L549 729 L581 729 L471 879 L315 879 Z " />
<glyph glyph-name="gcircumflex" unicode="&#x11d;" horiz-adv-x="490" d="M115 -83 C99 -77 91 -75 81 -75 C53 -75 29 -102 29 -136 C29 -169 49 -201 82 -220 C115 -239 168 -249 233 -249 C382 -249 467 -188 467 -82 C467 8 406 56 291 56 L254 55 L249 55 L226 55 C213 56 204 56 199 56 C153 56 132 64 132 84 C132 109 161 123 221 124 C343 126 414 182 414 274 C414 301 408 324 394 348 C404 360 412 365 421 365 C429 365 434 362 443 351 C452 339 460 335 470 335 C488 335 500 350 500 372 C500 400 482 418 454 418 C428 418 406 406 372 373 C336 405 293 419 235 419 C120 419 44 362 44 275 C44 213 84 160 145 139 C82 123 52 93 52 44 C52 -22 113 -57 224 -54 C259 -53 265 -53 269 -53 C353 -53 391 -73 391 -118 C391 -173 332 -208 241 -208 C154 -208 105 -179 105 -127 C105 -113 108 -100 113 -88 L115 -83 Z M229 376 C267 376 289 341 289 277 C289 207 268 169 230 169 C190 169 170 206 170 280 C170 339 192 376 229 376 L229 376 Z M350 489 L386 489 L299 652 L195 652 L106 489 L139 489 L243 578 L350 489 Z " />
<glyph glyph-name="Gbreve" unicode="&#x11e;" horiz-adv-x="743" d="M436 300 L436 256 L446 256 C499 252 513 238 516 186 L516 161 C516 121 511 103 493 81 C468 52 431 37 386 37 C327 37 278 64 251 111 C224 157 212 221 212 318 C212 417 226 496 252 542 C281 594 335 625 397 625 C494 625 564 557 591 436 L633 436 L630 667 L587 667 C585 639 579 618 568 595 C511 653 445 680 366 680 C285 680 212 652 156 599 C84 531 41 429 41 325 C41 131 179 -13 365 -13 C412 -13 447 -7 518 13 C565 27 608 34 641 34 C644 34 650 34 660 32 L660 149 C660 235 665 246 716 255 L724 256 L724 300 L436 300 Z M192 880 C219 782 292 720 381 720 C469 720 542 783 567 880 L522 880 C496 835 445 810 379 810 C313 810 268 832 237 880 L192 880 Z " />
<glyph glyph-name="gbreve" unicode="&#x11f;" horiz-adv-x="490" d="M115 -83 C99 -77 91 -75 81 -75 C53 -75 29 -102 29 -136 C29 -169 49 -201 82 -220 C115 -239 168 -249 233 -249 C382 -249 467 -188 467 -82 C467 8 406 56 291 56 L254 55 L249 55 L226 55 C213 56 204 56 199 56 C153 56 132 64 132 84 C132 109 161 123 221 124 C343 126 414 182 414 274 C414 301 408 324 394 348 C404 360 412 365 421 365 C429 365 434 362 443 351 C452 339 460 335 470 335 C488 335 500 350 500 372 C500 400 482 418 454 418 C428 418 406 406 372 373 C336 405 293 419 235 419 C120 419 44 362 44 275 C44 213 84 160 145 139 C82 123 52 93 52 44 C52 -22 113 -57 224 -54 C259 -53 265 -53 269 -53 C353 -53 391 -73 391 -118 C391 -173 332 -208 241 -208 C154 -208 105 -179 105 -127 C105 -113 108 -100 113 -88 L115 -83 Z M229 376 C267 376 289 341 289 277 C289 207 268 169 230 169 C190 169 170 206 170 280 C170 339 192 376 229 376 L229 376 Z M93 648 L93 645 C91 611 108 568 136 536 C164 504 195 489 236 489 C315 489 374 556 379 648 L351 648 C333 596 296 571 238 571 C177 571 137 598 121 648 L93 648 Z " />
<glyph glyph-name="Gdotaccent" unicode="&#x120;" horiz-adv-x="743" d="M436 300 L436 256 L446 256 C499 252 513 238 516 186 L516 161 C516 121 511 103 493 81 C468 52 431 37 386 37 C327 37 278 64 251 111 C224 157 212 221 212 318 C212 417 226 496 252 542 C281 594 335 625 397 625 C494 625 564 557 591 436 L633 436 L630 667 L587 667 C585 639 579 618 568 595 C511 653 445 680 366 680 C285 680 212 652 156 599 C84 531 41 429 41 325 C41 131 179 -13 365 -13 C412 -13 447 -7 518 13 C565 27 608 34 641 34 C644 34 650 34 660 32 L660 149 C660 235 665 246 716 255 L724 256 L724 300 L436 300 Z M376 861 C338 861 308 831 308 793 C308 756 339 725 375 725 C413 725 444 755 444 793 C444 831 414 861 376 861 L376 861 Z " />
<glyph glyph-name="gdotaccent" unicode="&#x121;" horiz-adv-x="490" d="M115 -83 C99 -77 91 -75 81 -75 C53 -75 29 -102 29 -136 C29 -169 49 -201 82 -220 C115 -239 168 -249 233 -249 C382 -249 467 -188 467 -82 C467 8 406 56 291 56 L254 55 L249 55 L226 55 C213 56 204 56 199 56 C153 56 132 64 132 84 C132 109 161 123 221 124 C343 126 414 182 414 274 C414 301 408 324 394 348 C404 360 412 365 421 365 C429 365 434 362 443 351 C452 339 460 335 470 335 C488 335 500 350 500 372 C500 400 482 418 454 418 C428 418 406 406 372 373 C336 405 293 419 235 419 C120 419 44 362 44 275 C44 213 84 160 145 139 C82 123 52 93 52 44 C52 -22 113 -57 224 -54 C259 -53 265 -53 269 -53 C353 -53 391 -73 391 -118 C391 -173 332 -208 241 -208 C154 -208 105 -179 105 -127 C105 -113 108 -100 113 -88 L115 -83 Z M229 376 C267 376 289 341 289 277 C289 207 268 169 230 169 C190 169 170 206 170 280 C170 339 192 376 229 376 L229 376 Z M237 633 C204 633 177 606 177 573 C177 541 204 513 236 513 C270 513 297 539 297 573 C297 606 270 633 237 633 L237 633 Z " />
<glyph glyph-name="Gcommaaccent" unicode="&#x122;" horiz-adv-x="743" d="M436 300 L436 256 L446 256 C499 252 513 238 516 186 L516 161 C516 121 511 103 493 81 C468 52 431 37 386 37 C327 37 278 64 251 111 C224 157 212 221 212 318 C212 417 226 496 252 542 C281 594 335 625 397 625 C494 625 564 557 591 436 L633 436 L630 667 L587 667 C585 639 579 618 568 595 C511 653 445 680 366 680 C285 680 212 652 156 599 C84 531 41 429 41 325 C41 131 179 -13 365 -13 C412 -13 447 -7 518 13 C565 27 608 34 641 34 C644 34 650 34 660 32 L660 149 C660 235 665 246 716 255 L724 256 L724 300 L436 300 Z M293 -327 C390 -318 453 -257 453 -171 C453 -104 417 -59 362 -59 C318 -59 287 -89 287 -130 C287 -166 314 -194 347 -194 C352 -194 358 -193 364 -192 C379 -188 379 -188 381 -188 C391 -188 398 -198 398 -210 C398 -247 354 -277 293 -284 L293 -327 Z " />
<glyph glyph-name="gcommaaccent" unicode="&#x123;" horiz-adv-x="490" d="M115 -83 C99 -77 91 -75 81 -75 C53 -75 29 -102 29 -136 C29 -169 49 -201 82 -220 C115 -239 168 -249 233 -249 C382 -249 467 -188 467 -82 C467 8 406 56 291 56 L254 55 L249 55 L226 55 C213 56 204 56 199 56 C153 56 132 64 132 84 C132 109 161 123 221 124 C343 126 414 182 414 274 C414 301 408 324 394 348 C404 360 412 365 421 365 C429 365 434 362 443 351 C452 339 460 335 470 335 C488 335 500 350 500 372 C500 400 482 418 454 418 C428 418 406 406 372 373 C336 405 293 419 235 419 C120 419 44 362 44 275 C44 213 84 160 145 139 C82 123 52 93 52 44 C52 -22 113 -57 224 -54 C259 -53 265 -53 269 -53 C353 -53 391 -73 391 -118 C391 -173 332 -208 241 -208 C154 -208 105 -179 105 -127 C105 -113 108 -100 113 -88 L115 -83 Z M229 376 C267 376 289 341 289 277 C289 207 268 169 230 169 C190 169 170 206 170 280 C170 339 192 376 229 376 L229 376 Z M311 707 C222 699 165 644 165 565 C165 504 198 463 247 463 C287 463 316 490 316 528 C316 560 292 586 261 586 C255 586 252 585 238 582 C234 580 232 580 230 580 C222 580 215 589 215 601 C215 634 256 662 311 668 L311 707 Z " />
<glyph glyph-name="Hcircumflex" unicode="&#x124;" horiz-adv-x="794" d="M535 325 L535 149 C535 67 518 43 461 44 L452 28 L452 0 L767 0 L767 44 L757 44 C700 43 684 66 683 149 L683 521 C684 604 698 624 759 623 L767 623 L767 667 L452 667 L452 623 L460 623 C519 624 534 605 535 521 L535 377 L259 377 L259 521 C260 605 274 624 335 623 L342 623 L342 667 L27 667 L27 623 L35 623 C95 624 110 604 111 521 L111 149 C112 69 94 43 37 44 L27 44 L27 0 L342 0 L342 44 L333 44 C276 43 259 67 259 149 L259 325 L535 325 Z M323 879 L215 729 L247 729 L393 817 L557 729 L589 729 L479 879 L323 879 Z " />
<glyph glyph-name="Hbar" unicode="&#x126;" horiz-adv-x="794" d="M111 426 L111 149 C112 69 94 43 37 44 L27 44 L27 0 L342 0 L342 44 L333 44 C276 43 259 67 259 149 L259 325 L535 325 L535 149 C535 67 518 43 461 44 L452 28 L452 0 L767 0 L767 44 L757 44 C700 43 684 66 683 149 L683 426 L754 426 L754 478 L683 478 L683 521 C684 605 698 624 759 623 L767 623 L767 667 L452 667 L452 623 L460 623 C519 624 534 605 535 521 L535 478 L259 478 L259 521 C260 605 274 624 335 623 L342 623 L342 667 L27 667 L27 623 L35 623 C95 625 110 604 111 521 L111 478 L42 478 L42 426 L111 426 Z M259 426 L535 426 L535 377 L259 377 L259 426 Z " />
<glyph glyph-name="hbar" unicode="&#x127;" horiz-adv-x="554" d="M208 535 L208 678 L201 678 C185 672 132 663 106 661 L103 660 L83 657 C75 656 61 654 20 645 L20 603 L24 603 C68 601 77 590 79 538 L79 535 L20 535 L20 491 L79 491 L79 125 C77 55 69 44 24 42 L19 42 L19 0 L257 0 L257 42 L254 42 C216 45 210 55 208 125 L208 282 C209 284 209 284 211 286 C215 297 248 332 262 343 C273 351 282 354 296 354 C337 354 353 330 353 268 L353 125 C352 56 346 46 309 43 L303 42 L303 0 L542 0 L542 42 L537 42 C494 43 486 56 484 125 L484 253 C484 309 479 337 465 361 C445 396 399 419 350 419 C295 419 247 394 208 344 L208 491 L352 491 L352 535 L208 535 Z " />
<glyph glyph-name="Imacron" unicode="&#x12a;" horiz-adv-x="373" d="M27 623 L36 623 C98 624 111 605 112 521 L112 149 C111 66 96 44 38 44 L27 44 L27 0 L347 0 L347 44 L335 44 C275 44 261 65 260 149 L260 521 C261 606 274 624 336 623 L347 623 L347 667 L27 667 L27 623 Z M29 810 L29 758 L344 758 L344 810 L29 810 Z " />
<glyph glyph-name="imacron" unicode="&#x12b;" horiz-adv-x="286" d="M214 419 L207 419 C176 411 54 389 16 386 L16 343 L27 343 C74 344 87 326 87 263 L87 125 C85 57 75 43 28 42 L16 42 L16 0 L274 0 L274 42 L268 42 C225 43 216 56 214 125 L214 419 Z M-2 541 L265 541 L265 590 L-2 590 L-2 541 Z " />
<glyph glyph-name="ibreve" unicode="&#x12d;" horiz-adv-x="286" d="M213 419 L206 419 C175 411 53 389 15 386 L15 343 L26 343 C73 344 86 326 86 263 L86 125 C84 57 74 43 27 42 L15 42 L15 0 L274 0 L274 42 L268 42 C224 43 215 56 213 125 L213 419 Z M-1 648 L-1 645 C-1 608 15 567 42 536 C69 504 101 489 142 489 C220 489 280 556 284 648 L257 648 C239 596 202 571 144 571 C83 571 43 598 27 648 L-1 648 Z " />
<glyph glyph-name="Iogonek" unicode="&#x12e;" horiz-adv-x="373" d="M347 0 L347 44 L335 44 C275 44 261 65 260 149 L260 521 C261 606 274 624 336 623 L347 623 L347 667 L27 667 L27 623 L36 623 C98 624 111 605 112 521 L112 149 C111 66 96 44 38 44 L27 44 L27 0 L229 0 C178 -25 143 -72 143 -117 C143 -170 189 -209 251 -209 C287 -209 315 -199 352 -171 L339 -150 C322 -159 312 -162 298 -162 C262 -162 236 -132 236 -89 C236 -56 246 -29 270 0 L347 0 Z " />
<glyph glyph-name="iogonek" unicode="&#x12f;" horiz-adv-x="286" d="M274 0 L274 42 L268 42 C224 43 215 56 213 125 L213 419 L206 419 C175 411 53 389 15 386 L15 343 L26 343 C73 344 86 326 86 263 L86 125 C84 57 74 43 27 42 L15 42 L15 0 L169 0 C124 -24 96 -65 96 -107 C96 -156 136 -192 189 -192 C219 -192 242 -183 275 -158 L264 -137 C250 -145 242 -147 231 -147 C200 -147 178 -120 178 -81 C178 -53 188 -24 205 0 L274 0 Z M146 678 C105 678 71 644 71 603 C71 559 104 525 147 525 C188 525 222 559 222 601 C222 644 189 678 146 678 L146 678 Z " />
<glyph glyph-name="Idotaccent" unicode="&#x130;" horiz-adv-x="373" d="M27 623 L36 623 C98 624 111 605 112 521 L112 149 C111 66 96 44 38 44 L27 44 L27 0 L347 0 L347 44 L335 44 C275 44 261 65 260 149 L260 521 C261 606 274 624 336 623 L347 623 L347 667 L27 667 L27 623 Z M191 861 C153 861 123 831 123 793 C123 756 154 725 190 725 C228 725 259 755 259 793 C259 831 229 861 191 861 L191 861 Z " />
<glyph glyph-name="dotlessi" unicode="&#x131;" horiz-adv-x="286" d="M213 419 L206 419 C175 411 53 389 15 386 L15 343 L26 343 C73 344 86 326 86 263 L86 125 C84 57 74 43 27 42 L15 42 L15 0 L274 0 L274 42 L268 42 C224 43 215 56 213 125 L213 419 Z " />
<glyph glyph-name="Kcommaaccent" unicode="&#x136;" horiz-adv-x="742" d="M262 339 L262 521 C263 605 276 624 338 623 L348 623 L348 667 L30 667 L30 623 L38 623 C100 624 113 606 114 521 L114 149 C113 66 98 44 40 44 L27 44 L27 0 L342 0 L342 44 L336 44 C278 44 263 65 262 149 L262 274 L317 330 L456 144 C459 140 460 137 461 136 C462 134 468 127 474 119 C490 101 498 85 498 74 C498 53 476 44 428 44 L421 44 L421 0 L773 0 L773 44 L767 44 C710 44 676 70 613 160 L418 426 L494 501 C587 593 630 619 689 623 L696 623 L696 667 L429 667 L429 623 L435 623 C469 623 489 611 489 590 C489 570 475 548 437 511 L262 339 Z M287 -327 C384 -318 447 -257 447 -171 C447 -104 411 -59 356 -59 C312 -59 281 -89 281 -130 C281 -166 308 -194 341 -194 C346 -194 352 -193 358 -192 C373 -188 373 -188 375 -188 C385 -188 392 -198 392 -210 C392 -247 348 -277 287 -284 L287 -327 Z " />
<glyph glyph-name="kcommaaccent" unicode="&#x137;" horiz-adv-x="521" d="M290 403 L290 361 L295 361 C318 361 329 354 329 342 C329 339 328 335 327 334 C326 333 326 332 326 332 L326 331 L326 330 C325 330 325 329 323 328 C322 327 321 326 320 324 C319 323 313 317 307 312 L280 289 L255 269 L206 224 L206 678 L199 678 C182 672 133 663 105 661 C99 660 92 659 84 658 C76 657 56 653 25 647 L18 645 L18 603 L23 603 C68 601 76 590 77 529 L77 125 C75 55 68 44 23 42 L14 42 L14 0 L254 0 L254 42 L251 42 C214 45 208 56 206 125 L206 173 L236 198 L307 97 C322 77 327 68 327 62 C327 50 316 43 295 42 L292 42 L292 0 L519 0 L519 42 L515 43 C496 43 475 62 431 119 L322 267 C333 275 336 277 345 285 C403 336 452 363 487 361 L490 361 L490 403 L290 403 Z M196 -303 C285 -295 342 -239 342 -161 C342 -100 309 -59 260 -59 C220 -59 191 -86 191 -124 C191 -156 215 -182 246 -182 C252 -182 255 -181 269 -178 C273 -176 275 -176 277 -176 C285 -176 292 -185 292 -197 C292 -230 251 -258 196 -264 L196 -303 Z " />
<glyph glyph-name="Lacute" unicode="&#x139;" horiz-adv-x="607" d="M595 213 L554 213 C522 89 478 47 376 47 L352 47 C272 49 259 63 261 151 L261 521 C262 605 275 624 338 623 L355 623 L355 667 L27 667 L27 623 L37 623 C99 624 112 605 113 521 L113 148 C112 65 98 44 39 44 L27 44 L27 0 L591 0 L595 213 Z M178 729 L211 729 L457 869 L457 877 L278 877 L178 729 Z " />
<glyph glyph-name="lacute" unicode="&#x13a;" horiz-adv-x="281" d="M206 678 L199 678 C178 672 91 656 18 645 L18 603 L26 603 C69 601 76 591 77 527 L77 125 C75 53 69 44 26 42 L16 42 L16 0 L265 0 L265 42 L259 42 C215 43 206 57 206 125 L206 678 Z M87 729 L120 729 L366 869 L366 877 L187 877 L87 729 Z " />
<glyph glyph-name="Lcommaaccent" unicode="&#x13b;" horiz-adv-x="607" d="M595 213 L554 213 C522 89 478 47 376 47 L352 47 C272 49 259 63 261 151 L261 521 C262 605 275 624 338 623 L355 623 L355 667 L27 667 L27 623 L37 623 C99 624 112 605 113 521 L113 148 C112 65 98 44 39 44 L27 44 L27 0 L591 0 L595 213 Z M238 -327 C335 -318 398 -257 398 -171 C398 -104 362 -59 307 -59 C263 -59 232 -89 232 -130 C232 -166 259 -194 292 -194 C297 -194 303 -193 309 -192 C324 -188 324 -188 326 -188 C336 -188 343 -198 343 -210 C343 -247 299 -277 238 -284 L238 -327 Z " />
<glyph glyph-name="lcommaaccent" unicode="&#x13c;" horiz-adv-x="281" d="M206 678 L199 678 C178 672 91 656 18 645 L18 603 L26 603 C69 601 76 591 77 527 L77 125 C75 53 69 44 26 42 L16 42 L16 0 L265 0 L265 42 L259 42 C215 43 206 57 206 125 L206 678 Z M74 -303 C163 -295 220 -239 220 -161 C220 -100 187 -59 138 -59 C98 -59 69 -86 69 -124 C69 -156 93 -182 124 -182 C130 -182 133 -181 147 -178 C151 -176 153 -176 155 -176 C163 -176 170 -185 170 -197 C170 -230 129 -258 74 -264 L74 -303 Z " />
<glyph glyph-name="Lcaron" unicode="&#x13d;" horiz-adv-x="607" d="M595 213 L554 213 C522 89 478 47 376 47 L352 47 C272 49 259 63 261 151 L261 521 C262 605 275 624 338 623 L355 623 L355 667 L27 667 L27 623 L37 623 C99 624 112 605 113 521 L113 148 C112 65 98 44 39 44 L27 44 L27 0 L591 0 L595 213 Z M393 399 C490 408 553 469 553 555 C553 622 517 667 462 667 C418 667 387 638 387 596 C387 561 414 533 447 533 C452 533 458 534 464 535 C479 538 479 538 481 538 C491 538 498 528 498 516 C498 480 454 449 393 442 L393 399 Z " />
<glyph glyph-name="lcaron" unicode="&#x13e;" horiz-adv-x="397" d="M206 678 L199 678 C178 672 91 656 18 645 L18 603 L26 603 C69 601 76 591 77 527 L77 125 C75 53 69 44 26 42 L16 42 L16 0 L265 0 L265 42 L259 42 C215 43 206 57 206 125 L206 678 Z M248 434 C337 442 394 498 394 576 C394 637 361 678 312 678 C272 678 243 651 243 614 C243 582 267 556 298 556 C302 556 308 557 313 558 C326 561 326 561 329 561 C337 561 344 552 344 541 C344 507 303 479 248 473 L248 434 Z " />
<glyph glyph-name="Ldot" unicode="&#x13f;" horiz-adv-x="607" d="M595 213 L554 213 C522 89 478 47 376 47 L352 47 C272 49 259 63 261 151 L261 521 C262 605 275 624 338 623 L355 623 L355 667 L27 667 L27 623 L37 623 C99 624 112 605 113 521 L113 148 C112 65 98 44 39 44 L27 44 L27 0 L591 0 L595 213 Z M393 380 C360 380 333 353 333 320 C333 288 360 260 392 260 C426 260 453 286 453 320 C453 353 426 380 393 380 L393 380 Z " />
<glyph glyph-name="ldot" unicode="&#x140;" horiz-adv-x="357" d="M206 678 L199 678 C178 672 91 656 18 645 L18 603 L26 603 C69 601 76 591 77 527 L77 125 C75 53 69 44 26 42 L16 42 L16 0 L265 0 L265 42 L259 42 C215 43 206 57 206 125 L206 678 Z M311 393 C278 393 251 366 251 333 C251 301 278 273 310 273 C344 273 371 299 371 333 C371 366 344 393 311 393 L311 393 Z " />
<glyph glyph-name="Lslash" unicode="&#x141;" horiz-adv-x="607" d="M27 44 L27 0 L591 0 L595 213 L554 213 C524 92 476 47 376 47 L352 47 C272 49 259 63 261 151 L261 339 L377 427 L377 482 L261 395 L261 521 C262 605 275 624 338 623 L355 623 L355 667 L27 667 L27 623 L38 623 C99 624 112 605 113 521 L113 284 L33 222 L33 166 L113 228 L113 148 C112 65 98 44 39 44 L27 44 Z " />
<glyph glyph-name="lslash" unicode="&#x142;" horiz-adv-x="288" d="M207 392 L207 678 L200 678 C177 671 95 656 19 645 L19 603 L27 603 C70 601 77 591 78 527 L78 282 L17 232 L17 179 L78 230 L78 125 C76 54 70 44 27 42 L17 42 L17 0 L266 0 L266 42 L260 42 C217 43 209 56 207 125 L207 340 L271 394 L271 448 L207 392 Z " />
<glyph glyph-name="Nacute" unicode="&#x143;" horiz-adv-x="739" d="M629 -12 L629 513 C627 585 647 611 710 623 L718 623 L718 667 L483 667 L483 623 L491 623 C555 618 580 588 579 517 L579 221 L226 667 L22 667 L22 623 L27 623 C90 623 108 599 112 507 L112 162 C112 108 111 98 103 84 C90 62 58 45 26 44 L22 44 L22 0 L258 0 L258 44 L251 44 L248 44 C218 44 187 60 172 84 C164 100 163 105 162 163 L162 522 L580 -12 L629 -12 Z M336 729 L369 729 L615 869 L615 877 L435 877 L336 729 Z " />
<glyph glyph-name="nacute" unicode="&#x144;" horiz-adv-x="555" d="M193 412 C165 405 140 399 115 396 C94 393 75 390 21 380 L21 338 L25 338 C68 338 78 323 81 259 L81 125 C79 55 71 44 26 42 L22 42 L22 0 L260 0 L260 42 L258 42 C218 45 212 55 210 125 L210 283 C242 332 271 353 303 353 C335 353 355 328 355 288 L355 272 L355 125 C354 55 348 45 305 42 L305 0 L543 0 L543 42 L539 42 C496 43 488 55 486 125 L486 260 C486 315 482 337 468 362 C448 397 404 419 356 419 C302 419 251 393 212 346 C210 375 207 396 201 412 L193 412 Z M242 488 L276 488 L474 642 L474 649 L322 649 L242 488 Z " />
<glyph glyph-name="Ncommaaccent" unicode="&#x145;" horiz-adv-x="739" d="M629 -12 L629 513 C627 585 647 611 710 623 L718 623 L718 667 L483 667 L483 623 L491 623 C555 618 580 588 579 517 L579 221 L226 667 L22 667 L22 623 L27 623 C90 623 108 599 112 507 L112 162 C112 108 111 98 103 84 C90 62 58 45 26 44 L22 44 L22 0 L258 0 L258 44 L251 44 L248 44 C218 44 187 60 172 84 C164 100 163 105 162 163 L162 522 L580 -12 L629 -12 Z M293 -327 C390 -318 453 -257 453 -171 C453 -104 417 -59 362 -59 C318 -59 287 -89 287 -130 C287 -166 314 -194 347 -194 C352 -194 358 -193 364 -192 C379 -188 379 -188 381 -188 C391 -188 398 -198 398 -210 C398 -247 354 -277 293 -284 L293 -327 Z " />
<glyph glyph-name="ncommaaccent" unicode="&#x146;" horiz-adv-x="555" d="M193 412 C165 405 140 399 115 396 C94 393 75 390 21 380 L21 338 L25 338 C68 338 78 323 81 259 L81 125 C79 55 71 44 26 42 L22 42 L22 0 L260 0 L260 42 L258 42 C218 45 212 55 210 125 L210 283 C242 332 271 353 303 353 C335 353 355 328 355 288 L355 272 L355 125 C354 55 348 45 305 42 L305 0 L543 0 L543 42 L539 42 C496 43 488 55 486 125 L486 260 C486 315 482 337 468 362 C448 397 404 419 356 419 C302 419 251 393 212 346 C210 375 207 396 201 412 L193 412 Z M214 -303 C303 -295 360 -239 360 -161 C360 -100 327 -59 278 -59 C238 -59 209 -86 209 -124 C209 -156 233 -182 264 -182 C270 -182 273 -181 287 -178 C291 -176 293 -176 295 -176 C303 -176 310 -185 310 -197 C310 -230 269 -258 214 -264 L214 -303 Z " />
<glyph glyph-name="Ncaron" unicode="&#x147;" horiz-adv-x="739" d="M629 -12 L629 513 C627 585 647 611 710 623 L718 623 L718 667 L483 667 L483 623 L491 623 C555 618 580 588 579 517 L579 221 L226 667 L22 667 L22 623 L27 623 C90 623 108 599 112 507 L112 162 C112 108 111 98 103 84 C90 62 58 45 26 44 L22 44 L22 0 L258 0 L258 44 L251 44 L248 44 C218 44 187 60 172 84 C164 100 163 105 162 163 L162 522 L580 -12 L629 -12 Z M459 729 L569 879 L537 879 L391 791 L227 879 L195 879 L302 729 L459 729 Z " />
<glyph glyph-name="ncaron" unicode="&#x148;" horiz-adv-x="555" d="M193 412 C165 405 140 399 115 396 C94 393 75 390 21 380 L21 338 L25 338 C68 338 78 323 81 259 L81 125 C79 55 71 44 26 42 L22 42 L22 0 L260 0 L260 42 L258 42 C218 45 212 55 210 125 L210 283 C242 332 271 353 303 353 C335 353 355 328 355 288 L355 272 L355 125 C354 55 348 45 305 42 L305 0 L543 0 L543 42 L539 42 C496 43 488 55 486 125 L486 260 C486 315 482 337 468 362 C448 397 404 419 356 419 C302 419 251 393 212 346 C210 375 207 396 201 412 L193 412 Z M182 655 L148 655 L239 491 L343 491 L428 655 L393 655 L294 566 L182 655 Z " />
<glyph glyph-name="Omacron" unicode="&#x14c;" horiz-adv-x="784" d="M398 679 C282 679 188 640 123 564 C70 503 41 420 41 331 C41 129 185 -13 391 -13 C598 -13 743 129 743 332 C743 534 598 679 398 679 L398 679 Z M392 628 C508 628 569 525 569 331 C569 136 511 38 394 38 C333 38 284 68 252 125 C228 169 215 247 215 351 C215 445 239 536 275 576 C306 610 346 628 392 628 L392 628 Z M235 810 L235 758 L550 758 L550 810 L235 810 Z " />
<glyph glyph-name="omacron" unicode="&#x14d;" horiz-adv-x="517" d="M257 419 C127 419 35 328 35 199 C35 143 54 91 87 55 C127 12 192 -16 254 -16 C388 -16 482 73 482 201 C482 329 389 419 257 419 L257 419 Z M258 375 C319 375 343 324 343 196 C343 80 317 27 260 27 C242 27 226 33 212 44 C189 64 174 128 174 207 C174 275 186 334 205 352 C221 368 238 375 258 375 L258 375 Z M107 541 L401 541 L401 590 L107 590 L107 541 Z " />
<glyph glyph-name="Ohungarumlaut" unicode="&#x150;" horiz-adv-x="784" d="M398 679 C282 679 188 640 123 564 C70 503 41 420 41 331 C41 129 185 -13 391 -13 C598 -13 743 129 743 332 C743 534 598 679 398 679 L398 679 Z M392 628 C508 628 569 525 569 331 C569 136 511 38 394 38 C333 38 284 68 252 125 C228 169 215 247 215 351 C215 445 239 536 275 576 C306 610 346 628 392 628 L392 628 Z M276 729 L309 729 L530 869 L530 877 L376 877 L276 729 Z M469 729 L502 729 L724 869 L724 877 L569 877 L469 729 Z " />
<glyph glyph-name="ohungarumlaut" unicode="&#x151;" horiz-adv-x="517" d="M257 419 C127 419 35 328 35 199 C35 143 54 91 87 55 C127 12 192 -16 254 -16 C388 -16 482 73 482 201 C482 329 389 419 257 419 L257 419 Z M258 375 C319 375 343 324 343 196 C343 80 317 27 260 27 C242 27 226 33 212 44 C189 64 174 128 174 207 C174 275 186 334 205 352 C221 368 238 375 258 375 L258 375 Z M155 488 L189 488 L363 642 L363 649 L236 649 L155 488 Z M321 488 L355 488 L528 642 L528 649 L401 649 L321 488 Z " />
<glyph glyph-name="OE" unicode="&#x152;" horiz-adv-x="929" d="M904 216 L863 216 C848 150 823 99 795 75 C776 58 738 46 707 46 L701 46 L699 46 L683 47 L671 48 L659 48 C597 51 594 56 595 166 L595 326 L653 326 C704 325 714 313 719 244 L719 235 L760 235 L760 465 L719 465 L719 456 C714 388 704 374 655 373 L595 373 L595 621 L692 621 C766 625 789 602 819 497 L862 497 L851 667 L501 667 L480 667 L431 667 C401 669 401 669 388 669 C286 669 203 642 150 590 C83 525 43 427 43 328 C43 243 73 160 124 100 C180 34 269 -1 378 -1 L412 -1 C430 0 450 0 450 0 L484 0 L518 0 L499 0 L897 0 L904 216 Z M447 132 C447 99 444 82 436 70 C426 57 402 47 377 47 C343 47 313 60 284 85 C239 127 211 221 211 333 C211 511 275 621 380 621 C400 621 419 615 430 606 C442 597 447 573 447 532 L447 132 Z " />
<glyph glyph-name="oe" unicode="&#x153;" horiz-adv-x="760" d="M683 100 C659 58 618 33 575 33 C504 33 463 93 463 197 C463 207 464 216 465 227 L727 227 C728 338 649 419 542 419 C489 419 445 400 406 360 C364 399 311 419 254 419 C129 419 35 324 35 199 C35 75 128 -16 254 -16 C314 -16 365 5 406 47 C441 7 491 -16 546 -16 C616 -16 686 23 717 78 L683 100 Z M467 267 C470 335 497 376 539 376 C582 376 605 339 608 267 L467 267 Z M260 375 C289 375 317 359 329 335 C344 306 348 275 348 197 C348 142 344 110 335 84 C322 46 296 26 260 26 C197 26 172 79 172 213 C172 324 200 375 260 375 L260 375 Z " />
<glyph glyph-name="Racute" unicode="&#x154;" horiz-adv-x="688" d="M719 0 L719 44 L713 44 C674 40 619 90 566 179 C524 252 479 309 448 329 C546 357 593 411 593 494 C593 553 564 604 514 633 C467 660 388 672 257 672 C235 672 233 672 202 671 L191 670 C70 669 66 669 47 668 L28 667 L28 623 L40 623 C102 624 115 605 116 521 L116 149 C115 65 100 44 41 44 L27 44 L27 0 L356 0 L356 44 L339 44 C279 44 265 65 264 149 L264 303 L269 303 L279 303 C340 303 351 293 426 158 C465 86 504 27 531 0 L719 0 Z M264 351 L264 621 C276 622 284 622 295 622 C364 622 397 609 418 573 C430 551 436 523 436 488 C436 429 419 387 386 368 C365 356 334 351 282 351 L277 351 L264 351 Z M261 729 L294 729 L540 869 L540 877 L361 877 L261 729 Z " />
<glyph glyph-name="racute" unicode="&#x155;" horiz-adv-x="416" d="M21 339 L27 339 C71 337 80 324 82 256 L82 125 C80 55 72 43 28 42 L22 42 L22 0 L278 0 L278 42 L268 42 C222 43 213 56 211 125 L211 178 C211 244 217 272 236 306 C250 328 266 340 282 340 C294 340 303 334 314 319 C333 292 342 285 361 285 C390 285 411 309 411 343 C411 387 379 419 336 419 C285 419 235 380 205 317 C204 359 199 392 190 419 C97 397 55 387 21 381 L21 339 Z M184 488 L218 488 L416 642 L416 649 L265 649 L184 488 Z " />
<glyph glyph-name="Rcommaaccent" unicode="&#x156;" horiz-adv-x="688" d="M719 0 L719 44 L713 44 C674 40 619 90 566 179 C524 252 479 309 448 329 C546 357 593 411 593 494 C593 553 564 604 514 633 C467 660 388 672 257 672 C235 672 233 672 202 671 L191 670 C70 669 66 669 47 668 L28 667 L28 623 L40 623 C102 624 115 605 116 521 L116 149 C115 65 100 44 41 44 L27 44 L27 0 L356 0 L356 44 L339 44 C279 44 265 65 264 149 L264 303 L269 303 L279 303 C340 303 351 293 426 158 C465 86 504 27 531 0 L719 0 Z M264 351 L264 621 C276 622 284 622 295 622 C364 622 397 609 418 573 C430 551 436 523 436 488 C436 429 419 387 386 368 C365 356 334 351 282 351 L277 351 L264 351 Z M260 -327 C357 -318 420 -257 420 -171 C420 -104 384 -59 329 -59 C285 -59 254 -89 254 -130 C254 -166 281 -194 314 -194 C319 -194 325 -193 331 -192 C346 -188 346 -188 348 -188 C358 -188 365 -198 365 -210 C365 -247 321 -277 260 -284 L260 -327 Z " />
<glyph glyph-name="rcommaaccent" unicode="&#x157;" horiz-adv-x="416" d="M21 339 L27 339 C71 337 80 324 82 256 L82 125 C80 55 72 43 28 42 L22 42 L22 0 L278 0 L278 42 L268 42 C222 43 213 56 211 125 L211 178 C211 244 217 272 236 306 C250 328 266 340 282 340 C294 340 303 334 314 319 C333 292 342 285 361 285 C390 285 411 309 411 343 C411 387 379 419 336 419 C285 419 235 380 205 317 C204 359 199 392 190 419 C97 397 55 387 21 381 L21 339 Z M81 -303 C170 -295 227 -239 227 -161 C227 -100 194 -59 145 -59 C105 -59 76 -86 76 -124 C76 -156 100 -182 131 -182 C137 -182 140 -181 154 -178 C158 -176 160 -176 162 -176 C170 -176 177 -185 177 -197 C177 -230 136 -258 81 -264 L81 -303 Z " />
<glyph glyph-name="Rcaron" unicode="&#x158;" horiz-adv-x="688" d="M719 0 L719 44 L713 44 C674 40 619 90 566 179 C524 252 479 309 448 329 C546 357 593 411 593 494 C593 553 564 604 514 633 C467 660 388 672 257 672 C235 672 233 672 202 671 L191 670 C70 669 66 669 47 668 L28 667 L28 623 L40 623 C102 624 115 605 116 521 L116 149 C115 65 100 44 41 44 L27 44 L27 0 L356 0 L356 44 L339 44 C279 44 265 65 264 149 L264 303 L269 303 L279 303 C340 303 351 293 426 158 C465 86 504 27 531 0 L719 0 Z M264 351 L264 621 C276 622 284 622 295 622 C364 622 397 609 418 573 C430 551 436 523 436 488 C436 429 419 387 386 368 C365 356 334 351 282 351 L277 351 L264 351 Z M392 729 L503 879 L471 879 L324 791 L160 879 L128 879 L236 729 L392 729 Z " />
<glyph glyph-name="rcaron" unicode="&#x159;" horiz-adv-x="416" d="M21 339 L27 339 C71 337 80 324 82 256 L82 125 C80 55 72 43 28 42 L22 42 L22 0 L278 0 L278 42 L268 42 C222 43 213 56 211 125 L211 178 C211 244 217 272 236 306 C250 328 266 340 282 340 C294 340 303 334 314 319 C333 292 342 285 361 285 C390 285 411 309 411 343 C411 387 379 419 336 419 C285 419 235 380 205 317 C204 359 199 392 190 419 C97 397 55 387 21 381 L21 339 Z M105 655 L72 655 L162 491 L267 491 L352 655 L317 655 L217 566 L105 655 Z " />
<glyph glyph-name="Sacute" unicode="&#x15a;" horiz-adv-x="531" d="M53 10 L98 10 C102 35 108 53 116 67 C159 16 221 -13 289 -13 C407 -13 495 73 495 189 C495 242 476 291 442 327 C414 357 365 387 290 420 C199 461 164 496 164 547 C164 597 200 632 252 632 C321 632 377 573 400 478 L441 478 L441 667 L399 667 L398 664 L397 657 C394 641 389 630 380 617 C341 658 294 679 240 679 C135 679 54 598 54 491 C54 443 71 397 101 364 C129 333 167 309 260 262 C342 221 375 185 375 136 C375 79 330 37 270 37 C218 37 171 66 139 119 C121 147 110 179 98 233 L53 233 L53 10 Z M200 729 L233 729 L479 869 L479 877 L300 877 L200 729 Z " />
<glyph glyph-name="sacute" unicode="&#x15b;" horiz-adv-x="396" d="M39 -12 L73 -12 C78 2 84 12 92 20 C97 19 97 18 103 15 C136 -6 172 -16 210 -16 C301 -16 362 39 362 121 C362 161 345 201 318 224 C293 244 281 249 203 272 C151 287 124 308 124 335 C124 362 151 382 188 382 C241 382 286 346 302 291 L335 291 L335 414 L304 414 C297 400 291 392 285 386 C247 407 205 420 176 420 C99 420 38 363 38 292 C38 235 80 188 154 164 C232 138 233 137 253 120 C263 111 270 96 270 81 C270 48 239 25 195 25 C138 25 95 60 76 122 L39 122 L39 -12 Z M160 488 L194 488 L392 642 L392 649 L240 649 L160 488 Z " />
<glyph glyph-name="Scircumflex" unicode="&#x15c;" horiz-adv-x="531" d="M53 10 L98 10 C102 35 108 53 116 67 C159 16 221 -13 289 -13 C407 -13 495 73 495 189 C495 242 476 291 442 327 C414 357 365 387 290 420 C199 461 164 496 164 547 C164 597 200 632 252 632 C321 632 377 573 400 478 L441 478 L441 667 L399 667 L398 664 L397 657 C394 641 389 630 380 617 C341 658 294 679 240 679 C135 679 54 598 54 491 C54 443 71 397 101 364 C129 333 167 309 260 262 C342 221 375 185 375 136 C375 79 330 37 270 37 C218 37 171 66 139 119 C121 147 110 179 98 233 L53 233 L53 10 Z M200 879 L92 729 L124 729 L270 817 L434 729 L466 729 L356 879 L200 879 Z " />
<glyph glyph-name="scircumflex" unicode="&#x15d;" horiz-adv-x="396" d="M39 -12 L73 -12 C78 2 84 12 92 20 C97 19 97 18 103 15 C136 -6 172 -16 210 -16 C301 -16 362 39 362 121 C362 161 345 201 318 224 C293 244 281 249 203 272 C151 287 124 308 124 335 C124 362 151 382 188 382 C241 382 286 346 302 291 L335 291 L335 414 L304 414 C297 400 291 392 285 386 C247 407 205 420 176 420 C99 420 38 363 38 292 C38 235 80 188 154 164 C232 138 233 137 253 120 C263 111 270 96 270 81 C270 48 239 25 195 25 C138 25 95 60 76 122 L39 122 L39 -12 Z M313 489 L348 489 L262 652 L158 652 L68 489 L102 489 L206 578 L313 489 Z " />
<glyph glyph-name="Scedilla" unicode="&#x15e;" horiz-adv-x="531" d="M441 478 L441 667 L399 667 L398 664 L397 657 C394 641 389 630 380 617 C341 658 294 679 240 679 C135 679 54 598 54 491 C54 443 71 397 101 364 C129 333 167 309 260 262 C342 221 375 185 375 136 C375 79 330 37 270 37 C218 37 171 66 139 119 C121 147 110 179 98 233 L53 233 L53 10 L98 10 C102 35 108 53 116 67 C147 29 190 3 241 -8 C234 -58 228 -89 222 -112 C253 -114 273 -131 273 -157 C273 -183 254 -199 222 -199 C199 -199 182 -196 155 -188 C152 -208 152 -210 148 -228 C174 -238 197 -242 225 -242 C311 -242 367 -203 367 -144 C367 -94 333 -61 275 -55 C279 -28 280 -20 281 -13 C407 -13 495 70 495 189 C495 242 476 291 442 327 C414 357 365 387 290 420 C199 461 164 496 164 547 C164 597 200 632 252 632 C321 632 377 573 400 478 L441 478 Z " />
<glyph glyph-name="scedilla" unicode="&#x15f;" horiz-adv-x="396" d="M335 291 L335 414 L304 414 C297 400 291 392 285 386 C247 407 205 420 176 420 C99 420 38 363 38 292 C38 235 80 188 154 164 C232 138 233 137 253 120 C263 111 270 96 270 81 C270 48 239 25 195 25 C138 25 95 60 76 122 L39 122 L39 -12 L73 -12 C78 2 84 12 92 20 C97 19 97 18 103 15 C128 -1 150 -9 178 -14 C173 -58 170 -77 165 -100 C189 -102 204 -117 204 -142 C204 -165 190 -179 165 -179 C148 -179 135 -176 115 -169 C113 -187 112 -189 109 -205 C129 -214 146 -217 167 -217 C232 -217 274 -182 274 -129 C274 -84 249 -55 205 -49 L208 -22 C209 -19 209 -19 209 -16 C301 -16 362 39 362 121 C362 161 345 201 318 224 C293 244 281 249 203 272 C151 287 124 308 124 335 C124 362 151 382 188 382 C241 382 286 346 302 291 L335 291 Z " />
<glyph glyph-name="Scaron" unicode="&#x160;" horiz-adv-x="531" d="M53 10 L98 10 C102 35 108 53 116 67 C159 16 221 -13 289 -13 C407 -13 495 73 495 189 C495 242 476 291 442 327 C414 357 365 387 290 420 C199 461 164 496 164 547 C164 597 200 632 252 632 C321 632 377 573 400 478 L441 478 L441 667 L399 667 L398 664 L397 657 C394 641 389 630 380 617 C341 658 294 679 240 679 C135 679 54 598 54 491 C54 443 71 397 101 364 C129 333 167 309 260 262 C342 221 375 185 375 136 C375 79 330 37 270 37 C218 37 171 66 139 119 C121 147 110 179 98 233 L53 233 L53 10 Z M340 729 L450 879 L418 879 L272 791 L107 879 L75 879 L183 729 L340 729 Z " />
<glyph glyph-name="scaron" unicode="&#x161;" horiz-adv-x="396" d="M39 -12 L73 -12 C78 2 84 12 92 20 C97 19 97 18 103 15 C136 -6 172 -16 210 -16 C301 -16 362 39 362 121 C362 161 345 201 318 224 C293 244 281 249 203 272 C151 287 124 308 124 335 C124 362 151 382 188 382 C241 382 286 346 302 291 L335 291 L335 414 L304 414 C297 400 291 392 285 386 C247 407 205 420 176 420 C99 420 38 363 38 292 C38 235 80 188 154 164 C232 138 233 137 253 120 C263 111 270 96 270 81 C270 48 239 25 195 25 C138 25 95 60 76 122 L39 122 L39 -12 Z M91 655 L58 655 L148 491 L253 491 L338 655 L303 655 L203 566 L91 655 Z " />
<glyph glyph-name="Tcommaaccent" unicode="&#x162;" horiz-adv-x="659" d="M56 487 C62 531 73 565 90 590 C102 611 130 619 189 620 L254 620 L254 149 C253 65 238 44 179 44 L159 44 L159 0 L497 0 L497 44 L476 44 C418 44 402 65 402 149 L402 620 L470 620 C523 619 548 611 562 591 C580 566 593 531 601 487 L643 487 L642 667 L15 667 L14 487 L56 487 Z M252 -327 C349 -318 412 -257 412 -171 C412 -104 375 -59 321 -59 C277 -59 246 -89 246 -130 C246 -166 272 -194 306 -194 C311 -194 317 -193 323 -192 C337 -188 337 -188 340 -188 C349 -188 357 -198 357 -210 C357 -247 313 -277 252 -284 L252 -327 Z " />
<glyph glyph-name="tcommaaccent" unicode="&#x163;" horiz-adv-x="320" d="M308 359 L308 403 L194 403 L194 534 L156 534 C143 456 90 402 24 402 C23 402 19 402 15 403 L15 359 L70 359 L70 127 C70 33 110 -16 189 -16 C251 -16 301 15 322 68 L287 82 C272 53 257 41 236 41 C222 41 211 47 204 59 C196 74 194 86 194 139 L194 359 L308 359 Z M105 -303 C194 -295 251 -239 251 -161 C251 -100 218 -59 169 -59 C129 -59 100 -86 100 -124 C100 -156 124 -182 155 -182 C161 -182 164 -181 178 -178 C182 -176 184 -176 186 -176 C194 -176 201 -185 201 -197 C201 -230 160 -258 105 -264 L105 -303 Z " />
<glyph glyph-name="Tcaron" unicode="&#x164;" horiz-adv-x="659" d="M56 487 C62 531 73 565 90 590 C102 611 130 619 189 620 L254 620 L254 149 C253 65 238 44 179 44 L159 44 L159 0 L497 0 L497 44 L476 44 C418 44 402 65 402 149 L402 620 L470 620 C523 619 548 611 562 591 C580 566 593 531 601 487 L643 487 L642 667 L15 667 L14 487 L56 487 Z M405 729 L515 879 L483 879 L337 791 L172 879 L140 879 L248 729 L405 729 Z " />
<glyph glyph-name="tcaron" unicode="&#x165;" horiz-adv-x="394" d="M308 359 L308 403 L194 403 L194 534 L156 534 C143 456 90 402 24 402 C23 402 19 402 15 403 L15 359 L70 359 L70 127 C70 33 110 -16 189 -16 C251 -16 301 15 322 68 L287 82 C272 53 257 41 236 41 C222 41 211 47 204 59 C196 74 194 86 194 139 L194 359 L308 359 Z M245 472 C334 480 391 535 391 614 C391 675 358 716 309 716 C269 716 240 689 240 651 C240 619 264 593 295 593 C301 593 304 594 318 597 C322 599 324 599 326 599 C334 599 341 590 341 578 C341 545 300 517 245 511 L245 472 Z " />
<glyph glyph-name="utilde" unicode="&#x169;" horiz-adv-x="543" d="M471 403 L285 403 L285 361 L290 361 C333 359 340 349 342 279 L342 145 C342 141 335 118 331 109 C315 75 282 51 252 51 C218 51 202 78 202 134 L202 403 L13 403 L13 361 L17 361 C60 360 71 345 73 279 L73 130 C73 81 84 42 103 22 C127 -2 163 -16 200 -16 C254 -16 303 11 342 63 L342 54 L342 49 C342 42 342 38 343 34 L344 11 L345 7 L345 -1 C346 -5 346 -8 346 -8 C346 -10 347 -12 348 -16 L353 -16 C380 -8 471 1 528 0 L528 42 L525 42 C482 43 473 57 471 125 L471 403 Z M158 503 C164 535 178 550 203 550 C219 550 235 544 269 526 C302 509 322 503 343 503 C401 503 442 557 438 629 L438 635 L407 635 C405 600 389 582 361 582 C348 582 336 586 314 598 C270 622 248 629 222 629 C193 629 161 611 148 588 C135 566 129 541 129 503 L158 503 Z " />
<glyph glyph-name="Umacron" unicode="&#x16a;" horiz-adv-x="736" d="M485 667 L485 623 L490 623 C555 621 583 587 582 511 L582 286 C582 203 579 175 568 149 C540 84 477 44 404 44 C346 44 296 70 271 114 C252 149 246 186 246 275 L246 521 C247 605 261 624 323 623 L334 623 L334 667 L17 667 L17 623 L26 623 C88 624 103 604 104 521 L104 285 L104 254 C103 182 112 142 136 100 C178 29 265 -13 369 -13 C441 -13 511 10 556 49 C605 91 632 167 632 260 L632 284 L632 501 L632 519 C630 584 652 612 713 623 L719 623 L719 667 L485 667 Z M223 810 L223 758 L538 758 L538 810 L223 810 Z " />
<glyph glyph-name="umacron" unicode="&#x16b;" horiz-adv-x="543" d="M471 403 L285 403 L285 361 L290 361 C333 359 340 349 342 279 L342 145 C342 141 335 118 331 109 C315 75 282 51 252 51 C218 51 202 78 202 134 L202 403 L13 403 L13 361 L17 361 C60 360 71 345 73 279 L73 130 C73 81 84 42 103 22 C127 -2 163 -16 200 -16 C254 -16 303 11 342 63 L342 54 L342 49 C342 42 342 38 343 34 L344 11 L345 7 L345 -1 C346 -5 346 -8 346 -8 C346 -10 347 -12 348 -16 L353 -16 C380 -8 471 1 528 0 L528 42 L525 42 C482 43 473 57 471 125 L471 403 Z M128 541 L422 541 L422 590 L128 590 L128 541 Z " />
<glyph glyph-name="ubreve" unicode="&#x16d;" horiz-adv-x="543" d="M471 403 L285 403 L285 361 L290 361 C333 359 340 349 342 279 L342 145 C342 141 335 118 331 109 C315 75 282 51 252 51 C218 51 202 78 202 134 L202 403 L13 403 L13 361 L17 361 C60 360 71 345 73 279 L73 130 C73 81 84 42 103 22 C127 -2 163 -16 200 -16 C254 -16 303 11 342 63 L342 54 L342 49 C342 42 342 38 343 34 L344 11 L345 7 L345 -1 C346 -5 346 -8 346 -8 C346 -10 347 -12 348 -16 L353 -16 C380 -8 471 1 528 0 L528 42 L525 42 C482 43 473 57 471 125 L471 403 Z M131 648 L131 645 C131 607 147 567 174 536 C201 504 233 489 274 489 C352 489 412 556 416 648 L389 648 C371 596 334 571 276 571 C215 571 175 598 159 648 L131 648 Z " />
<glyph glyph-name="Uring" unicode="&#x16e;" horiz-adv-x="736" d="M485 667 L485 623 L490 623 C555 621 583 587 582 511 L582 286 C582 203 579 175 568 149 C540 84 477 44 404 44 C346 44 296 70 271 114 C252 149 246 186 246 275 L246 521 C247 605 261 624 323 623 L334 623 L334 667 L17 667 L17 623 L26 623 C88 624 103 604 104 521 L104 285 L104 254 C103 182 112 142 136 100 C178 29 265 -13 369 -13 C441 -13 511 10 556 49 C605 91 632 167 632 260 L632 284 L632 501 L632 519 C630 584 652 612 713 623 L719 623 L719 667 L485 667 Z M393 911 C334 911 286 863 286 804 C286 746 334 697 391 697 C451 697 499 744 499 804 C499 863 451 911 393 911 L393 911 Z M392 872 C430 872 460 842 460 804 C460 767 429 736 392 736 C355 736 325 767 325 805 C325 841 356 872 392 872 L392 872 Z " />
<glyph glyph-name="uring" unicode="&#x16f;" horiz-adv-x="543" d="M471 403 L285 403 L285 361 L290 361 C333 359 340 349 342 279 L342 145 C342 141 335 118 331 109 C315 75 282 51 252 51 C218 51 202 78 202 134 L202 403 L13 403 L13 361 L17 361 C60 360 71 345 73 279 L73 130 C73 81 84 42 103 22 C127 -2 163 -16 200 -16 C254 -16 303 11 342 63 L342 54 L342 49 C342 42 342 38 343 34 L344 11 L345 7 L345 -1 C346 -5 346 -8 346 -8 C346 -10 347 -12 348 -16 L353 -16 C380 -8 471 1 528 0 L528 42 L525 42 C482 43 473 57 471 125 L471 403 Z M281 682 C222 682 174 634 174 575 C174 518 222 469 279 469 C340 469 388 516 388 576 C388 634 340 682 281 682 L281 682 Z M281 643 C318 643 349 613 349 576 C349 538 318 508 280 508 C243 508 213 538 213 576 C213 613 244 643 281 643 L281 643 Z " />
<glyph glyph-name="Uhungarumlaut" unicode="&#x170;" horiz-adv-x="736" d="M485 667 L485 623 L490 623 C555 621 583 587 582 511 L582 286 C582 203 579 175 568 149 C540 84 477 44 404 44 C346 44 296 70 271 114 C252 149 246 186 246 275 L246 521 C247 605 261 624 323 623 L334 623 L334 667 L17 667 L17 623 L26 623 C88 624 103 604 104 521 L104 285 L104 254 C103 182 112 142 136 100 C178 29 265 -13 369 -13 C441 -13 511 10 556 49 C605 91 632 167 632 260 L632 284 L632 501 L632 519 C630 584 652 612 713 623 L719 623 L719 667 L485 667 Z M241 729 L274 729 L495 869 L495 877 L341 877 L241 729 Z M435 729 L468 729 L689 869 L689 877 L535 877 L435 729 Z " />
<glyph glyph-name="uhungarumlaut" unicode="&#x171;" horiz-adv-x="543" d="M471 403 L285 403 L285 361 L290 361 C333 359 340 349 342 279 L342 145 C342 141 335 118 331 109 C315 75 282 51 252 51 C218 51 202 78 202 134 L202 403 L13 403 L13 361 L17 361 C60 360 71 345 73 279 L73 130 C73 81 84 42 103 22 C127 -2 163 -16 200 -16 C254 -16 303 11 342 63 L342 54 L342 49 C342 42 342 38 343 34 L344 11 L345 7 L345 -1 C346 -5 346 -8 346 -8 C346 -10 347 -12 348 -16 L353 -16 C380 -8 471 1 528 0 L528 42 L525 42 C482 43 473 57 471 125 L471 403 Z M149 488 L182 488 L356 642 L356 649 L229 649 L149 488 Z M314 488 L348 488 L521 642 L521 649 L394 649 L314 488 Z " />
<glyph glyph-name="Uogonek" unicode="&#x172;" horiz-adv-x="736" d="M577 -150 C559 -159 550 -162 536 -162 C500 -162 474 -132 474 -91 C474 -43 496 -5 551 43 C601 82 630 158 632 260 L632 501 L632 519 C630 584 652 612 713 623 L719 623 L719 667 L485 667 L485 623 L490 623 C555 621 583 587 582 511 L582 286 C582 203 579 175 568 149 C540 84 477 44 404 44 C346 44 296 70 271 114 C252 149 246 186 246 275 L246 521 C247 605 261 624 323 623 L334 623 L334 667 L17 667 L17 623 L26 623 C88 624 103 604 104 521 L104 285 L104 254 C103 182 112 142 136 100 C177 30 264 -13 365 -13 C405 -13 440 -7 477 5 C417 -22 381 -68 381 -117 C381 -169 427 -209 489 -209 C525 -209 552 -199 590 -171 L577 -150 Z " />
<glyph glyph-name="uogonek" unicode="&#x173;" horiz-adv-x="543" d="M528 42 L525 42 C482 43 473 57 471 125 L471 403 L285 403 L285 361 L290 361 C333 359 340 349 342 279 L342 145 C342 141 335 118 331 109 C315 75 282 51 252 51 C218 51 202 78 202 134 L202 403 L13 403 L13 361 L17 361 C60 360 71 345 73 279 L73 130 C73 81 84 42 103 22 C127 -2 163 -16 200 -16 C254 -16 303 11 342 63 L342 54 L342 49 C342 42 342 38 343 34 L344 11 L345 7 L345 -1 C346 -5 346 -8 346 -8 C346 -10 347 -12 348 -16 L353 -16 C366 -12 377 -11 415 -6 C376 -32 353 -69 353 -107 C353 -156 392 -192 445 -192 C476 -192 498 -183 531 -158 L520 -137 C506 -145 498 -147 488 -147 C456 -147 435 -120 435 -80 C435 -51 442 -30 460 -2 C479 0 497 0 528 0 L528 42 Z " />
<glyph glyph-name="Wcircumflex" unicode="&#x174;" horiz-adv-x="894" d="M672 -14 L803 472 C835 593 852 620 895 623 L898 623 L903 623 L903 667 L711 667 L711 623 L715 623 C749 623 774 601 774 570 C774 553 770 529 762 500 L683 201 L514 667 L457 667 L313 201 L216 529 C208 555 204 577 204 590 C204 610 222 622 256 623 L261 623 L261 667 L-10 667 L-10 623 L-5 623 L-2 623 C42 621 51 608 80 511 L233 -14 L291 -14 L442 468 L616 -14 L672 -14 Z M409 879 L300 729 L332 729 L478 817 L643 729 L675 729 L565 879 L409 879 Z " />
<glyph glyph-name="Ycircumflex" unicode="&#x176;" horiz-adv-x="629" d="M-12 667 L-12 623 L-6 623 C39 618 50 607 96 526 L240 267 L240 149 C239 66 224 44 166 44 L156 44 L156 0 L472 0 L472 44 L463 44 C404 44 389 66 389 149 L389 277 L513 497 L517 504 C576 601 590 615 636 623 L641 623 L641 667 L427 667 L427 623 L432 623 C469 623 493 606 493 578 C493 564 485 540 471 515 L370 332 L247 541 C230 569 225 581 225 592 C225 613 243 623 280 623 L285 623 L285 667 L-12 667 Z M257 879 L149 729 L181 729 L327 817 L492 729 L524 729 L414 879 L257 879 Z " />
<glyph glyph-name="ycircumflex" unicode="&#x177;" horiz-adv-x="478" d="M-5 403 L-5 361 L2 360 C29 358 39 347 65 293 L224 -15 L205 -65 C186 -107 172 -117 113 -135 C73 -147 55 -166 55 -196 C55 -227 79 -250 111 -250 C150 -250 182 -220 211 -155 C220 -136 225 -123 227 -120 L231 -112 L385 251 C396 275 397 276 408 301 C427 342 443 357 468 360 L475 361 L475 403 L325 403 L325 361 L331 361 L333 361 L336 361 L337 361 C352 361 370 348 370 336 C370 330 368 322 364 313 C359 302 354 292 352 286 L282 118 L195 301 C188 316 184 329 184 338 C184 353 192 359 213 361 L219 361 L219 403 L-5 403 Z M359 489 L394 489 L308 652 L203 652 L114 489 L147 489 L251 578 L359 489 Z " />
<glyph glyph-name="Ydieresis" unicode="&#x178;" horiz-adv-x="629" d="M-12 667 L-12 623 L-6 623 C39 618 50 607 96 526 L240 267 L240 149 C239 66 224 44 166 44 L156 44 L156 0 L472 0 L472 44 L463 44 C404 44 389 66 389 149 L389 277 L513 497 L517 504 C576 601 590 615 636 623 L641 623 L641 667 L427 667 L427 623 L432 623 C469 623 493 606 493 578 C493 564 485 540 471 515 L370 332 L247 541 C230 569 225 581 225 592 C225 613 243 623 280 623 L285 623 L285 667 L-12 667 Z M203 861 C165 861 135 831 135 793 C135 756 166 725 202 725 C240 725 271 755 271 793 C271 831 241 861 203 861 L203 861 Z M455 861 C418 861 387 831 387 794 C387 755 417 725 455 725 C493 725 523 756 523 793 C523 831 493 861 455 861 L455 861 Z " />
<glyph glyph-name="Zacute" unicode="&#x179;" horiz-adv-x="631" d="M31 0 L581 0 L596 190 L554 190 C513 69 482 46 365 47 L203 47 L577 630 L577 667 L65 667 L51 497 L91 497 C122 601 156 625 270 621 L405 621 L31 35 L31 0 Z M294 729 L327 729 L573 869 L573 877 L394 877 L294 729 Z " />
<glyph glyph-name="zacute" unicode="&#x17a;" horiz-adv-x="445" d="M27 0 L405 0 L417 134 L377 134 C347 58 331 44 275 43 L184 43 L410 366 L410 403 L48 403 L40 283 L80 283 C108 353 115 361 150 360 L255 360 L27 33 L27 0 Z M196 488 L230 488 L428 642 L428 649 L276 649 L196 488 Z " />
<glyph glyph-name="Zdotaccent" unicode="&#x17b;" horiz-adv-x="631" d="M31 0 L581 0 L596 190 L554 190 C513 69 482 46 365 47 L203 47 L577 630 L577 667 L65 667 L51 497 L91 497 C122 601 156 625 270 621 L405 621 L31 35 L31 0 Z M339 861 C301 861 271 831 271 793 C271 756 302 725 338 725 C376 725 407 755 407 793 C407 831 377 861 339 861 L339 861 Z " />
<glyph glyph-name="zdotaccent" unicode="&#x17c;" horiz-adv-x="445" d="M27 0 L405 0 L417 134 L377 134 C347 58 331 44 275 43 L184 43 L410 366 L410 403 L48 403 L40 283 L80 283 C108 353 115 361 150 360 L255 360 L27 33 L27 0 Z M243 633 C210 633 183 606 183 573 C183 541 210 513 242 513 C276 513 303 539 303 573 C303 606 276 633 243 633 L243 633 Z " />
<glyph glyph-name="Zcaron" unicode="&#x17d;" horiz-adv-x="631" d="M31 0 L581 0 L596 190 L554 190 C513 69 482 46 365 47 L203 47 L577 630 L577 667 L65 667 L51 497 L91 497 C122 601 156 625 270 621 L405 621 L31 35 L31 0 Z M406 729 L517 879 L485 879 L338 791 L174 879 L142 879 L250 729 L406 729 Z " />
<glyph glyph-name="zcaron" unicode="&#x17e;" horiz-adv-x="445" d="M27 0 L405 0 L417 134 L377 134 C347 58 331 44 275 43 L184 43 L410 366 L410 403 L48 403 L40 283 L80 283 C108 353 115 361 150 360 L255 360 L27 33 L27 0 Z M130 655 L96 655 L187 491 L291 491 L376 655 L341 655 L242 566 L130 655 Z " />
<glyph glyph-name="florin" unicode="&#x192;" horiz-adv-x="503" d="M349 444 C355 481 357 509 358 551 C358 602 361 626 371 643 C378 656 391 665 404 665 C411 665 417 660 417 655 C417 651 416 645 413 639 C410 630 408 620 408 614 C408 594 424 577 445 577 C471 577 489 598 489 627 C489 664 460 688 415 688 C352 688 310 646 278 548 C244 456 237 449 168 444 L163 444 L153 393 L226 393 L224 386 L222 376 L209 309 C205 289 200 264 193 233 C172 137 159 55 151 -38 C146 -123 142 -146 129 -168 C123 -179 112 -187 104 -187 C97 -187 91 -182 91 -177 C91 -176 91 -174 92 -172 C94 -166 95 -161 95 -157 L95 -156 C95 -130 80 -114 55 -114 C31 -114 11 -135 11 -161 C11 -193 40 -217 77 -217 C116 -217 156 -193 187 -150 C237 -81 274 35 307 222 L309 230 L340 393 L416 393 L425 444 L349 444 Z " />
<glyph glyph-name="uni01CD" unicode="&#x1cd;" horiz-adv-x="624" d="M636 0 L636 44 L631 44 C585 50 572 65 535 157 L332 678 L290 678 L105 197 L95 170 C64 86 36 51 -6 44 L-13 44 L-13 0 L189 0 L189 44 L182 44 C146 44 122 63 122 91 C122 107 126 122 144 170 L156 202 L367 202 L396 128 C406 101 412 81 412 73 C412 53 392 44 350 44 L344 44 L344 0 L636 0 Z M350 247 L173 247 L260 475 L350 247 Z M390 729 L500 879 L469 879 L322 791 L158 879 L126 879 L234 729 L390 729 Z " />
<glyph glyph-name="uni01CE" unicode="&#x1ce;" horiz-adv-x="507" d="M471 84 C467 62 456 49 441 49 C423 49 415 66 415 108 L415 287 C415 337 410 355 389 377 C362 405 317 419 250 419 C135 419 50 375 50 316 C50 290 70 272 97 272 C127 272 144 288 150 323 C153 342 158 355 165 360 C175 369 197 375 217 375 C238 375 259 369 271 359 C282 350 288 330 288 298 L288 267 L250 252 L229 243 C143 209 72 166 54 137 C42 118 36 99 36 80 C36 26 78 -10 141 -10 C191 -10 241 9 294 49 C311 10 346 -10 394 -10 C459 -10 499 25 502 84 L471 84 Z M288 223 L288 93 C259 64 234 50 212 50 C185 50 164 74 164 106 C164 128 173 148 190 166 C215 190 224 196 286 222 L288 223 Z M156 655 L123 655 L213 491 L318 491 L403 655 L367 655 L268 566 L156 655 Z " />
<glyph glyph-name="uni01D3" unicode="&#x1d3;" horiz-adv-x="736" d="M485 667 L485 623 L490 623 C555 621 583 587 582 511 L582 286 C582 203 579 175 568 149 C540 84 477 44 404 44 C346 44 296 70 271 114 C252 149 246 186 246 275 L246 521 C247 605 261 624 323 623 L334 623 L334 667 L17 667 L17 623 L26 623 C88 624 103 604 104 521 L104 285 L104 254 C103 182 112 142 136 100 C178 29 265 -13 369 -13 C441 -13 511 10 556 49 C605 91 632 167 632 260 L632 284 L632 501 L632 519 C630 584 652 612 713 623 L719 623 L719 667 L485 667 Z M467 729 L578 879 L546 879 L399 791 L235 879 L203 879 L311 729 L467 729 Z " />
<glyph glyph-name="uni01D4" unicode="&#x1d4;" horiz-adv-x="543" d="M471 403 L285 403 L285 361 L290 361 C333 359 340 349 342 279 L342 145 C342 141 335 118 331 109 C315 75 282 51 252 51 C218 51 202 78 202 134 L202 403 L13 403 L13 361 L17 361 C60 360 71 345 73 279 L73 130 C73 81 84 42 103 22 C127 -2 163 -16 200 -16 C254 -16 303 11 342 63 L342 54 L342 49 C342 42 342 38 343 34 L344 11 L345 7 L345 -1 C346 -5 346 -8 346 -8 C346 -10 347 -12 348 -16 L353 -16 C380 -8 471 1 528 0 L528 42 L525 42 C482 43 473 57 471 125 L471 403 Z M181 655 L147 655 L238 491 L342 491 L427 655 L392 655 L293 566 L181 655 Z " />
<glyph glyph-name="Gcaron" unicode="&#x1e6;" horiz-adv-x="743" d="M436 300 L436 256 L446 256 C499 252 513 238 516 186 L516 161 C516 121 511 103 493 81 C468 52 431 37 386 37 C327 37 278 64 251 111 C224 157 212 221 212 318 C212 417 226 496 252 542 C281 594 335 625 397 625 C494 625 564 557 591 436 L633 436 L630 667 L587 667 C585 639 579 618 568 595 C511 653 445 680 366 680 C285 680 212 652 156 599 C84 531 41 429 41 325 C41 131 179 -13 365 -13 C412 -13 447 -7 518 13 C565 27 608 34 641 34 C644 34 650 34 660 32 L660 149 C660 235 665 246 716 255 L724 256 L724 300 L436 300 Z M455 729 L565 879 L533 879 L387 791 L223 879 L191 879 L298 729 L455 729 Z " />
<glyph glyph-name="gcaron" unicode="&#x1e7;" horiz-adv-x="490" d="M115 -83 C99 -77 91 -75 81 -75 C53 -75 29 -102 29 -136 C29 -169 49 -201 82 -220 C115 -239 168 -249 233 -249 C382 -249 467 -188 467 -82 C467 8 406 56 291 56 L254 55 L249 55 L226 55 C213 56 204 56 199 56 C153 56 132 64 132 84 C132 109 161 123 221 124 C343 126 414 182 414 274 C414 301 408 324 394 348 C404 360 412 365 421 365 C429 365 434 362 443 351 C452 339 460 335 470 335 C488 335 500 350 500 372 C500 400 482 418 454 418 C428 418 406 406 372 373 C336 405 293 419 235 419 C120 419 44 362 44 275 C44 213 84 160 145 139 C82 123 52 93 52 44 C52 -22 113 -57 224 -54 C259 -53 265 -53 269 -53 C353 -53 391 -73 391 -118 C391 -173 332 -208 241 -208 C154 -208 105 -179 105 -127 C105 -113 108 -100 113 -88 L115 -83 Z M229 376 C267 376 289 341 289 277 C289 207 268 169 230 169 C190 169 170 206 170 280 C170 339 192 376 229 376 L229 376 Z M130 655 L97 655 L188 491 L292 491 L377 655 L342 655 L243 566 L130 655 Z " />
<glyph glyph-name="Scommaaccent" unicode="&#x218;" horiz-adv-x="531" d="M53 10 L98 10 C102 35 108 53 116 67 C159 16 221 -13 289 -13 C407 -13 495 73 495 189 C495 242 476 291 442 327 C414 357 365 387 290 420 C199 461 164 496 164 547 C164 597 200 632 252 632 C321 632 377 573 400 478 L441 478 L441 667 L399 667 L398 664 L397 657 C394 641 389 630 380 617 C341 658 294 679 240 679 C135 679 54 598 54 491 C54 443 71 397 101 364 C129 333 167 309 260 262 C342 221 375 185 375 136 C375 79 330 37 270 37 C218 37 171 66 139 119 C121 147 110 179 98 233 L53 233 L53 10 Z M193 -327 C290 -318 353 -257 353 -171 C353 -104 317 -59 262 -59 C218 -59 187 -89 187 -130 C187 -166 214 -194 247 -194 C252 -194 258 -193 264 -192 C279 -188 279 -188 281 -188 C291 -188 298 -198 298 -210 C298 -247 254 -277 193 -284 L193 -327 Z " />
<glyph glyph-name="scommaaccent" unicode="&#x219;" horiz-adv-x="396" d="M39 -12 L73 -12 C78 2 84 12 92 20 C97 19 97 18 103 15 C136 -6 172 -16 210 -16 C301 -16 362 39 362 121 C362 161 345 201 318 224 C293 244 281 249 203 272 C151 287 124 308 124 335 C124 362 151 382 188 382 C241 382 286 346 302 291 L335 291 L335 414 L304 414 C297 400 291 392 285 386 C247 407 205 420 176 420 C99 420 38 363 38 292 C38 235 80 188 154 164 C232 138 233 137 253 120 C263 111 270 96 270 81 C270 48 239 25 195 25 C138 25 95 60 76 122 L39 122 L39 -12 Z M136 -303 C225 -295 282 -239 282 -161 C282 -100 249 -59 200 -59 C160 -59 131 -86 131 -124 C131 -156 155 -182 186 -182 C192 -182 195 -181 209 -178 C213 -176 215 -176 217 -176 C225 -176 232 -185 232 -197 C232 -230 191 -258 136 -264 L136 -303 Z " />
<glyph glyph-name="uni021A" unicode="&#x21a;" horiz-adv-x="659" d="M56 487 C62 531 73 565 90 590 C102 611 130 619 189 620 L254 620 L254 149 C253 65 238 44 179 44 L159 44 L159 0 L497 0 L497 44 L476 44 C418 44 402 65 402 149 L402 620 L470 620 C523 619 548 611 562 591 C580 566 593 531 601 487 L643 487 L642 667 L15 667 L14 487 L56 487 Z M252 -327 C349 -318 412 -257 412 -171 C412 -104 375 -59 321 -59 C277 -59 246 -89 246 -130 C246 -166 272 -194 306 -194 C311 -194 317 -193 323 -192 C337 -188 337 -188 340 -188 C349 -188 357 -198 357 -210 C357 -247 313 -277 252 -284 L252 -327 Z " />
<glyph glyph-name="uni021B" unicode="&#x21b;" horiz-adv-x="320" d="M308 359 L308 403 L194 403 L194 534 L156 534 C143 456 90 402 24 402 C23 402 19 402 15 403 L15 359 L70 359 L70 127 C70 33 110 -16 189 -16 C251 -16 301 15 322 68 L287 82 C272 53 257 41 236 41 C222 41 211 47 204 59 C196 74 194 86 194 139 L194 359 L308 359 Z M105 -303 C194 -295 251 -239 251 -161 C251 -100 218 -59 169 -59 C129 -59 100 -86 100 -124 C100 -156 124 -182 155 -182 C161 -182 164 -181 178 -178 C182 -176 184 -176 186 -176 C194 -176 201 -185 201 -197 C201 -230 160 -258 105 -264 L105 -303 Z " />
<glyph glyph-name="afii57929" unicode="&#x2bc;" horiz-adv-x="295" d="M68 355 C169 363 236 437 236 541 C236 622 197 675 137 675 C93 675 61 643 61 598 C61 558 89 527 126 527 C132 527 139 528 145 530 C152 532 157 533 160 533 C170 533 178 521 178 506 C178 453 133 411 68 403 L68 355 Z " />
<glyph glyph-name="circumflex" unicode="&#x2c6;" horiz-adv-x="489" d="M350 489 L385 489 L299 652 L194 652 L105 489 L138 489 L242 578 L350 489 Z " />
<glyph glyph-name="caron" unicode="&#x2c7;" horiz-adv-x="489" d="M137 655 L104 655 L195 491 L299 491 L384 655 L349 655 L250 566 L137 655 Z " />
<glyph glyph-name="uni02C9" unicode="&#x2c9;" horiz-adv-x="361" d="M33 541 L327 541 L327 590 L33 590 L33 541 Z " />
<glyph glyph-name="breve" unicode="&#x2d8;" horiz-adv-x="489" d="M99 648 L99 645 C99 608 115 567 142 536 C169 504 201 489 242 489 C320 489 380 556 384 648 L357 648 C339 596 302 571 244 571 C183 571 143 598 127 648 L99 648 Z " />
<glyph glyph-name="dotaccent" unicode="&#x2d9;" horiz-adv-x="481" d="M241 633 C208 633 181 606 181 573 C181 541 208 513 240 513 C274 513 301 539 301 573 C301 606 274 633 241 633 L241 633 Z " />
<glyph glyph-name="ring" unicode="&#x2da;" horiz-adv-x="500" d="M248 682 C189 682 141 634 141 575 C141 518 189 469 246 469 C306 469 354 516 354 576 C354 634 306 682 248 682 L248 682 Z M247 643 C285 643 315 613 315 576 C315 538 284 508 247 508 C210 508 180 538 180 576 C180 613 211 643 247 643 L247 643 Z " />
<glyph glyph-name="ogonek" unicode="&#x2db;" horiz-adv-x="500" d="M326 8 C268 -20 238 -59 238 -107 C238 -156 277 -192 330 -192 C361 -192 383 -183 416 -158 L405 -137 C391 -145 383 -147 373 -147 C341 -147 320 -120 320 -80 C320 -48 328 -25 352 8 L326 8 Z " />
<glyph glyph-name="tilde" unicode="&#x2dc;" horiz-adv-x="490" d="M118 503 C124 535 138 550 162 550 C178 550 194 544 229 526 C262 509 281 503 302 503 C362 503 392 544 397 635 L367 635 C365 600 349 582 321 582 C308 582 296 586 274 598 C230 622 208 629 182 629 C153 629 121 611 108 588 C95 566 89 541 89 503 L118 503 Z " />
<glyph glyph-name="hungarumlaut" unicode="&#x2dd;" horiz-adv-x="485" d="M110 488 L144 488 L317 642 L317 649 L190 649 L110 488 Z M276 488 L309 488 L483 642 L483 649 L356 649 L276 488 Z " />
<glyph glyph-name="Wdieresis" unicode="&#x1e84;" horiz-adv-x="894" d="M672 -14 L803 472 C835 593 852 620 895 623 L898 623 L903 623 L903 667 L711 667 L711 623 L715 623 C749 623 774 601 774 570 C774 553 770 529 762 500 L683 201 L514 667 L457 667 L313 201 L216 529 C208 555 204 577 204 590 C204 610 222 622 256 623 L261 623 L261 667 L-10 667 L-10 623 L-5 623 L-2 623 C42 621 51 608 80 511 L233 -14 L291 -14 L442 468 L616 -14 L672 -14 Z M359 861 C321 861 291 831 291 793 C291 756 322 725 358 725 C396 725 427 755 427 793 C427 831 397 861 359 861 L359 861 Z M611 861 C574 861 543 831 543 794 C543 755 573 725 611 725 C649 725 679 756 679 793 C679 831 649 861 611 861 L611 861 Z " />
<glyph glyph-name="uni2011" unicode="&#x2011;" horiz-adv-x="319" d="M30 247 L30 182 L290 182 L290 247 L30 247 Z " />
<glyph glyph-name="figuredash" unicode="&#x2012;" horiz-adv-x="528" d="M19 243 L19 193 L509 193 L509 243 L19 243 Z " />
<glyph glyph-name="endash" unicode="&#x2013;" horiz-adv-x="528" d="M19 243 L19 193 L509 193 L509 243 L19 243 Z " />
<glyph glyph-name="emdash" unicode="&#x2014;" horiz-adv-x="833" d="M19 243 L19 193 L814 193 L814 243 L19 243 Z " />
<glyph glyph-name="afii00208" unicode="&#x2015;" horiz-adv-x="833" d="M19 243 L19 193 L814 193 L814 243 L19 243 Z " />
<glyph glyph-name="quoteleft" unicode="&#x2018;" horiz-adv-x="295" d="M231 675 C129 667 63 594 63 489 C63 409 102 355 162 355 C206 355 238 387 238 432 C238 472 210 503 173 503 C167 503 160 502 154 500 C147 498 142 497 139 497 C129 497 121 509 121 525 C121 578 166 620 231 627 L231 675 Z " />
<glyph glyph-name="quoteright" unicode="&#x2019;" horiz-adv-x="265" d="M53 355 C154 363 221 437 221 541 C221 622 182 675 122 675 C78 675 46 643 46 598 C46 558 74 527 111 527 C117 527 124 528 130 530 C137 532 142 533 145 533 C155 533 163 521 163 506 C163 453 118 411 53 403 L53 355 Z " />
<glyph glyph-name="quotesinglbase" unicode="&#x201a;" horiz-adv-x="292" d="M68 -186 C167 -179 233 -105 233 -1 C233 80 194 133 136 133 C92 133 61 101 61 56 C61 16 89 -15 124 -15 C130 -15 137 -14 143 -12 C150 -10 155 -9 158 -9 C167 -9 175 -21 175 -37 C175 -89 132 -130 68 -139 L68 -186 Z " />
<glyph glyph-name="quotedblleft" unicode="&#x201c;" horiz-adv-x="527" d="M227 675 C125 667 59 594 59 489 C59 409 98 355 158 355 C202 355 234 387 234 432 C234 472 206 503 169 503 C163 503 156 502 150 500 C143 498 138 497 135 497 C125 497 117 509 117 525 C117 578 162 620 227 627 L227 675 Z M468 675 C366 667 300 594 300 489 C300 409 339 355 399 355 C443 355 475 387 475 432 C475 472 447 503 410 503 C404 503 397 502 391 500 C384 498 379 497 376 497 C366 497 358 509 358 525 C358 578 403 620 468 627 L468 675 Z " />
<glyph glyph-name="quotedblright" unicode="&#x201d;" horiz-adv-x="527" d="M59 355 C160 363 227 437 227 541 C227 622 188 675 128 675 C84 675 52 643 52 598 C52 558 80 527 117 527 C123 527 130 528 136 530 C143 532 148 533 151 533 C161 533 169 521 169 506 C169 453 124 411 59 403 L59 355 Z M302 355 C403 363 470 436 470 540 C470 622 431 675 371 675 C327 675 295 643 295 598 C295 558 323 527 360 527 C366 527 373 528 379 530 C386 532 391 533 394 533 C404 533 412 521 412 505 C412 453 367 411 302 403 L302 355 Z " />
<glyph glyph-name="quotedblbase" unicode="&#x201e;" horiz-adv-x="524" d="M55 -186 C155 -178 220 -105 220 -1 C220 80 181 133 123 133 C79 133 48 101 48 56 C48 17 76 -15 109 -15 C115 -15 122 -14 130 -12 C134 -11 139 -10 139 -10 L143 -10 C146 -9 146 -9 147 -9 C156 -10 162 -20 162 -35 C162 -89 119 -131 55 -139 L55 -186 Z M298 -186 C398 -178 463 -105 463 -1 C463 80 424 133 366 133 C322 133 291 101 291 56 C291 17 319 -15 352 -15 C358 -15 365 -14 373 -12 C377 -11 381 -10 382 -10 C385 -10 386 -10 387 -9 L391 -8 C397 -7 405 -22 405 -34 C405 -89 362 -131 298 -139 L298 -186 Z " />
<glyph glyph-name="dagger" unicode="&#x2020;" horiz-adv-x="475" d="M263 -243 L263 -118 C262 -85 270 98 273 119 C282 226 282 227 282 254 C282 297 276 346 269 365 C266 373 266 374 266 388 C282 385 296 381 310 375 C360 353 373 349 397 349 C429 349 452 375 452 411 C452 448 429 473 397 473 C378 473 352 466 327 455 C294 440 284 437 263 433 L265 440 L267 447 C268 449 269 455 271 461 L273 469 C277 481 279 489 279 490 C280 495 281 499 285 511 C297 549 303 579 303 601 C303 646 278 675 239 675 C200 675 176 646 176 599 C176 575 181 550 193 512 C197 498 198 496 200 490 C204 474 207 466 206 466 L212 447 L214 441 L216 433 C195 435 185 439 148 456 C123 467 99 473 82 473 C52 473 30 447 30 411 C30 375 52 350 85 350 C104 350 134 358 164 371 C185 381 198 385 216 388 C216 375 216 374 211 363 C203 342 197 298 197 255 C197 238 197 223 199 209 L201 170 C203 152 203 137 203 123 L203 104 C203 95 205 74 207 44 C213 -21 216 -99 216 -190 L216 -243 L263 -243 Z " />
<glyph glyph-name="daggerdbl" unicode="&#x2021;" horiz-adv-x="488" d="M271 255 C272 266 273 274 274 279 C280 306 283 330 283 349 C283 375 278 398 266 427 C288 421 305 415 316 411 C363 391 375 388 397 388 C430 388 453 414 453 450 C453 488 429 512 393 512 C375 512 356 507 325 494 C293 480 283 477 266 473 C268 489 274 509 282 534 C300 585 302 594 302 619 C302 653 279 677 245 677 C208 677 185 653 185 615 C185 595 190 574 203 541 C215 508 222 486 223 473 C209 475 195 480 178 487 C123 509 114 512 90 512 C58 512 34 485 34 450 C34 415 58 388 88 388 C105 388 128 393 153 403 C185 416 203 422 223 427 C210 393 205 371 205 350 C205 338 207 323 211 307 C217 279 217 277 219 255 L271 255 Z M219 178 C217 156 215 137 211 117 C207 95 205 80 205 72 C205 53 210 34 223 5 C211 7 193 12 171 21 C120 41 111 44 88 44 C58 44 34 17 34 -18 C34 -54 58 -79 92 -79 C110 -79 130 -73 173 -56 C194 -47 211 -42 223 -40 C222 -53 215 -75 202 -111 C190 -141 185 -162 185 -181 C185 -221 209 -245 246 -245 C280 -245 303 -221 303 -186 C303 -167 299 -145 291 -122 C274 -73 272 -66 267 -40 C279 -42 301 -50 331 -62 C355 -73 379 -79 396 -79 C429 -79 453 -52 453 -16 C453 19 430 45 398 45 C382 45 361 40 339 31 C310 19 300 15 267 5 C279 31 284 50 284 73 C284 82 282 97 279 114 C274 139 272 154 271 178 L219 178 Z " />
<glyph glyph-name="bullet" unicode="&#x2022;" horiz-adv-x="633" d="M317 480 C245 480 186 417 186 340 C186 264 245 200 315 200 C389 200 447 262 447 340 C447 418 389 480 317 480 L317 480 Z " />
<glyph glyph-name="ellipsis" unicode="&#x2026;" horiz-adv-x="957" d="M159 136 C119 136 86 102 86 61 C86 17 118 -17 159 -17 C199 -17 232 17 232 60 C232 102 199 136 159 136 L159 136 Z M476 136 C436 136 403 102 403 61 C403 17 435 -17 476 -17 C516 -17 549 17 549 60 C549 102 516 136 476 136 L476 136 Z M794 136 C753 136 720 102 720 59 C720 17 753 -17 793 -17 C833 -17 866 17 866 60 C866 101 833 136 794 136 L794 136 Z " />
<glyph glyph-name="perthousand" unicode="&#x2030;" horiz-adv-x="1047" d="M174 679 C138 679 106 667 84 647 C51 615 30 560 30 505 C30 400 84 334 170 334 C207 334 239 345 262 366 C293 395 314 451 314 507 C314 557 297 609 271 638 C247 666 215 679 174 679 L174 679 Z M173 646 C204 646 218 605 218 517 C218 413 204 368 172 368 C137 368 126 405 126 521 C126 606 141 646 172 646 L173 646 Z M222 0 L548 660 L493 660 L168 0 L222 0 Z M544 333 C509 333 477 322 455 301 C422 269 401 214 401 159 C401 53 455 -12 542 -12 C578 -12 610 -1 633 20 C664 49 685 105 685 161 C685 211 668 263 642 292 C618 320 586 333 544 333 L544 333 Z M544 300 C575 300 589 259 589 172 C589 67 575 22 543 22 C508 22 497 59 497 175 C497 260 512 300 543 300 L544 300 Z M876 333 C840 333 808 322 786 301 C753 269 732 214 732 159 C732 53 786 -12 873 -12 C910 -12 942 -1 964 20 C996 49 1017 105 1017 162 C1017 212 1000 263 974 292 C950 320 918 333 876 333 L876 333 Z M875 300 C906 300 921 259 921 171 C921 67 907 22 875 22 C839 22 828 59 828 176 C828 260 843 300 874 300 L875 300 Z " />
<glyph glyph-name="guilsinglleft" unicode="&#x2039;" horiz-adv-x="279" d="M26 216 L208 8 L251 8 L166 216 L251 423 L207 423 L26 216 Z " />
<glyph glyph-name="guilsinglright" unicode="&#x203a;" horiz-adv-x="279" d="M249 216 L68 423 L24 423 L110 216 L24 8 L68 8 L249 216 Z " />
<glyph glyph-name="uni203E" unicode="&#x203e;" horiz-adv-x="500" d="M0 847 L0 807 L500 807 L500 847 L0 847 Z " />
<glyph glyph-name="fraction" unicode="&#x2044;" horiz-adv-x="155" d="M-58 0 L267 660 L212 660 L-113 0 L-58 0 Z " />
<glyph glyph-name="franc" unicode="&#x20a3;" horiz-adv-x="788" d="M544 667 L27 667 L27 624 L38 624 C99 625 113 606 114 521 L114 149 C113 65 98 44 39 44 L27 44 L27 0 L352 0 L352 44 L337 44 C279 43 261 68 262 149 L262 326 L312 326 C369 325 382 311 387 237 L387 230 L430 230 L430 461 L387 461 L387 454 C381 388 369 374 313 373 L262 373 L262 621 L367 621 C428 620 447 614 466 588 C486 562 499 532 506 494 L549 494 L544 667 Z M470 289 L474 289 C515 288 523 276 525 214 L525 112 C523 50 516 39 475 38 L470 38 L470 0 L702 0 L702 38 L693 38 C652 39 644 51 642 112 L642 144 C642 203 647 229 665 259 C677 279 691 290 706 290 C716 290 725 284 734 271 C752 246 760 240 777 240 C803 240 822 262 822 293 C822 332 793 362 755 362 C708 362 665 328 637 270 C636 307 631 337 623 361 C553 345 508 335 470 327 L470 289 Z " />
<glyph glyph-name="Euro" unicode="&#x20ac;" horiz-adv-x="734" d="M267 381 C277 545 337 628 446 628 C500 628 558 601 588 561 C617 523 636 476 650 412 L690 412 L684 661 L643 661 C643 660 643 659 642 657 C640 638 633 618 622 593 C570 650 500 679 417 679 C251 679 126 561 101 381 L56 381 L37 335 L97 335 L97 332 L97 324 C97 320 97 315 98 307 L56 307 L37 261 L103 261 C132 93 254 -13 415 -13 C500 -13 575 18 627 76 C641 58 648 39 655 10 L696 10 L696 254 L655 254 C642 183 609 115 574 86 C537 57 493 40 451 40 C378 40 318 83 290 155 C278 184 272 216 268 261 L478 261 L496 307 L266 307 L265 335 L508 335 L527 381 L267 381 Z " />
<glyph glyph-name="trademark" unicode="&#x2122;" horiz-adv-x="889" d="M346 565 L346 667 L13 667 L13 565 L31 565 C35 624 52 642 104 643 L130 643 L130 348 C129 312 125 307 95 305 L79 305 L79 287 L280 287 L280 305 L264 305 C234 307 230 312 229 348 L229 643 L255 643 C307 643 325 624 328 565 L346 565 Z M361 667 L361 649 C402 648 408 644 408 620 L408 347 C408 318 397 308 362 305 L362 287 L485 287 L485 305 C449 309 438 319 438 347 L438 613 L570 287 L585 287 L717 603 L717 347 C717 313 712 307 682 305 L669 305 L669 287 L859 287 L859 305 L846 305 C819 307 814 313 814 347 L814 607 C814 641 819 647 846 649 L861 649 L861 667 L715 667 L612 420 L513 667 L361 667 Z " />
<glyph glyph-name="uni2126" unicode="&#x2126;" horiz-adv-x="768" d="M326 0 L308 155 C230 199 180 288 180 382 C180 434 195 493 221 540 C257 605 317 642 385 642 C453 642 513 605 549 540 C575 493 590 434 590 382 C590 288 540 199 462 155 L444 0 L736 0 L736 153 L712 153 C704 108 684 90 643 90 L497 90 L500 128 C535 141 557 151 580 166 C657 215 702 296 702 382 C702 449 673 522 625 578 C564 648 480 686 385 686 C290 686 206 648 145 578 C97 522 68 449 68 382 C68 296 113 215 190 166 C213 151 235 141 270 128 L273 90 L127 90 C86 90 66 108 58 153 L34 153 L34 0 L326 0 Z " />
<glyph glyph-name="partialdiff" unicode="&#x2202;" horiz-adv-x="494" d="M107 674 C152 697 184 706 219 706 C321 706 379 611 379 448 C379 418 377 395 372 346 C308 396 272 412 221 412 C172 412 131 394 95 355 C51 309 26 246 26 184 C26 76 109 -10 213 -10 C282 -10 341 22 383 84 C429 152 462 286 462 403 C462 519 428 611 360 681 C312 730 259 753 195 753 C156 753 122 746 66 725 L107 674 Z M366 312 C350 201 339 158 314 107 C288 54 245 21 201 21 C146 21 113 73 113 159 C113 273 180 367 261 367 C299 367 324 354 366 312 L366 312 Z " />
<glyph glyph-name="Delta" unicode="&#x2206;" horiz-adv-x="612" d="M6 0 L608 0 L327 688 L6 0 Z M77 51 L290 509 L479 51 L77 51 Z " />
<glyph glyph-name="product" unicode="&#x220f;" horiz-adv-x="823" d="M25 -124 L315 -124 L315 -98 L312 -98 C242 -94 221 -67 224 18 L224 594 C224 656 228 677 242 690 C260 707 272 708 413 708 C556 708 568 707 586 690 C600 677 604 656 604 594 L604 18 C607 -67 586 -94 516 -98 L513 -98 L513 -124 L803 -124 L803 -98 L800 -98 C730 -94 709 -67 712 18 L712 609 C709 694 730 721 800 725 L803 725 L803 751 L25 751 L25 725 L28 725 C98 721 119 694 116 609 L116 18 C119 -67 98 -94 28 -98 L25 -98 L25 -124 Z " />
<glyph glyph-name="summation" unicode="&#x2211;" horiz-adv-x="713" d="M176 711 L444 711 C560 710 590 688 606 587 L632 587 L622 752 L23 752 L256 285 L14 -123 L641 -123 L695 87 L669 87 C639 7 605 -12 491 -11 L163 -11 L364 341 L176 711 Z " />
<glyph glyph-name="minus" unicode="&#x2212;" horiz-adv-x="475" d="M9 396 L9 323 L467 323 L467 396 L9 396 Z " />
<glyph glyph-name="uni2215" unicode="&#x2215;" horiz-adv-x="155" d="M-58 0 L267 660 L212 660 L-113 0 L-58 0 Z " />
<glyph glyph-name="uni2219" unicode="&#x2219;" horiz-adv-x="272" d="M131 410 C91 410 58 376 58 333 C58 291 91 256 130 256 C171 256 204 290 204 333 C204 376 171 410 131 410 L131 410 Z " />
<glyph glyph-name="radical" unicode="&#x221a;" horiz-adv-x="549" d="M363 -35 L515 908 L480 913 L353 123 L156 520 L10 449 L26 414 L121 461 L363 -35 Z " />
<glyph glyph-name="infinity" unicode="&#x221e;" horiz-adv-x="713" d="M357 303 C300 375 234 414 171 414 C86 414 26 351 26 263 C26 176 84 115 167 115 C224 115 282 143 327 192 C335 201 340 207 357 228 C415 156 485 115 548 115 C631 115 688 176 688 266 C688 354 629 414 543 414 C476 414 412 376 357 303 L357 303 Z M391 265 C434 325 493 362 546 362 C600 362 638 321 638 264 C638 205 603 167 549 167 C495 167 461 188 391 265 L391 265 Z M324 266 C275 203 216 167 163 167 C111 167 76 207 76 266 C76 323 113 362 167 362 C218 362 259 337 324 266 L324 266 Z " />
<glyph glyph-name="integral" unicode="&#x222b;" horiz-adv-x="274" d="M180 576 C180 653 179 691 176 746 C174 774 173 800 173 815 C173 855 184 878 202 878 C208 878 213 876 215 872 C232 845 239 839 256 839 C276 839 291 853 291 871 C291 898 267 916 231 916 C186 916 152 887 138 838 C123 784 113 682 113 577 L113 232 C113 160 114 124 117 63 C119 34 120 4 120 -12 C120 -47 108 -70 89 -70 C81 -70 74 -65 68 -52 C59 -35 51 -30 37 -30 C17 -30 2 -44 2 -63 C2 -89 26 -107 62 -107 C107 -107 141 -78 155 -29 C170 25 180 126 180 232 L180 576 Z " />
<glyph glyph-name="approxequal" unicode="&#x2248;" horiz-adv-x="549" d="M489 251 C444 199 423 187 384 187 C365 187 354 190 285 211 C212 234 188 239 160 239 C101 239 54 211 14 155 L57 121 C103 174 120 184 159 184 C180 184 180 184 271 157 C350 133 354 132 385 132 C449 132 496 160 527 217 L489 251 Z M489 408 C443 356 424 344 384 344 C365 344 354 347 285 369 C212 392 188 397 160 397 C101 397 54 369 14 312 L57 279 C104 332 119 342 159 342 C181 342 181 342 271 315 C351 290 354 289 385 289 C449 289 496 318 527 375 L489 408 Z " />
<glyph glyph-name="notequal" unicode="&#x2260;" horiz-adv-x="549" d="M187 142 L115 -1 L161 -25 L246 142 L540 142 L540 197 L273 197 L344 336 L540 336 L540 391 L371 391 L439 525 L392 549 L312 391 L15 391 L15 336 L285 336 L215 197 L15 197 L15 142 L187 142 Z " />
<glyph glyph-name="lessequal" unicode="&#x2264;" horiz-adv-x="549" d="M526 55 L29 55 L29 0 L526 0 L526 55 Z M526 639 L29 405 L29 350 L526 117 L526 179 L108 378 L526 577 L526 639 Z " />
<glyph glyph-name="greaterequal" unicode="&#x2265;" horiz-adv-x="549" d="M526 55 L29 55 L29 0 L526 0 L526 55 Z M29 639 L29 577 L447 378 L29 179 L29 117 L526 350 L526 405 L29 639 Z " />
<glyph glyph-name="lozenge" unicode="&#x25ca;" horiz-adv-x="494" d="M209 0 L269 -1 L466 374 L277 740 L214 740 L18 377 L209 0 Z M240 58 L81 376 L245 683 L402 373 L240 58 Z " />
<glyph glyph-name="fi" unicode="&#xfb01;" horiz-adv-x="581" d="M13 360 L85 360 L85 124 C85 60 72 42 27 42 L17 42 L17 0 L271 0 L271 42 L267 42 C222 43 212 57 209 124 L209 360 L311 360 C367 359 374 351 377 288 L377 124 C375 54 368 43 325 42 L319 42 L319 0 L572 0 L572 42 L563 42 C518 43 508 57 506 124 L506 416 L498 416 C466 408 406 403 329 403 L209 403 L209 467 C209 541 213 572 226 594 C239 619 269 634 302 634 C338 634 357 620 373 583 C391 543 406 530 434 530 C465 530 492 557 492 588 C492 612 475 636 444 653 C416 670 373 678 318 678 C210 678 130 634 105 560 C92 522 85 479 85 438 L85 403 L13 403 L13 360 Z " />
<glyph glyph-name="fl" unicode="&#xfb02;" horiz-adv-x="581" d="M86 403 L14 403 L14 360 L86 360 L86 124 C86 60 73 42 28 42 L18 42 L18 0 L272 0 L272 42 L268 42 C223 43 213 57 210 124 L210 360 L376 360 L376 124 C374 54 367 44 324 42 L319 42 L319 0 L572 0 L572 42 L563 42 C518 43 508 57 506 124 L506 678 L500 678 L494 677 L495 677 C447 667 439 666 414 664 C388 673 354 678 318 678 C253 678 199 663 161 634 C109 595 86 532 86 429 L86 403 Z M210 403 L210 474 C210 538 215 572 228 594 C242 618 269 633 300 633 C333 633 352 620 370 585 C372 580 374 577 376 575 L376 403 L210 403 Z " />
</font>
</svg>
