<?xml version="1.0" encoding="UTF-8"?>
<svg xmlns="http://www.w3.org/2000/svg" xmlns:xlink="http://www.w3.org/1999/xlink" version="1.2" >
<font id="Bodoni URW Narrow Extra Bold">
<font-face  font-family="Bodoni URW Narrow" units-per-em="1000" ascent="680" descent="-320" font-style="normal" font-weight="800" font-stretch="semi-condensed" cap-height="667" x-height="407" underline-position="-94" underline-thickness="98" />
<missing-glyph  horiz-adv-x="238" d="" />
<glyph glyph-name="NULL" d="" />
<glyph glyph-name="CR" unicode="&#xd;" horiz-adv-x="250" d="" />
<glyph glyph-name="space" unicode="&#x20;" horiz-adv-x="238" d="" />
<glyph glyph-name="exclam" unicode="&#x21;" horiz-adv-x="298" d="M147 162 C86 162 38 124 38 76 C38 28 87 -10 150 -10 C212 -10 260 26 260 74 C260 125 212 162 147 162 L147 162 Z M164 196 L230 515 C241 576 241 579 241 594 C241 641 202 674 148 674 C87 674 50 639 50 581 C50 564 52 552 60 515 L130 196 L164 196 Z " />
<glyph glyph-name="quotedbl" unicode="&#x22;" horiz-adv-x="495" d="M160 399 L213 667 L30 667 L83 399 L160 399 Z M411 399 L465 667 L282 667 L334 399 L411 399 Z " />
<glyph glyph-name="numbersign" unicode="&#x23;" horiz-adv-x="633" d="M401 250 L528 250 L528 291 L407 291 L420 394 L549 394 L549 436 L426 436 L456 670 L417 670 L385 436 L283 436 L314 670 L272 670 L241 436 L106 436 L106 394 L236 394 L222 291 L84 291 L84 250 L216 250 L184 0 L225 0 L258 250 L361 250 L328 0 L367 0 L401 250 Z M380 394 L366 291 L263 291 L277 394 L380 394 Z " />
<glyph glyph-name="dollar" unicode="&#x24;" horiz-adv-x="633" d="M313 22 C294 17 282 16 260 16 C227 16 201 20 164 29 C210 46 230 72 230 114 C230 168 190 209 139 209 C88 209 48 166 48 113 C48 34 138 -10 297 -10 L313 -10 L313 -81 L332 -81 L332 -9 C485 -3 585 83 585 209 C585 248 574 288 553 321 C529 359 495 387 426 426 C395 443 354 466 332 478 L332 645 C355 651 371 653 394 653 C428 653 448 650 483 637 C425 631 398 605 398 552 C398 497 436 458 490 458 C541 458 579 498 579 552 C579 630 502 677 373 677 C361 677 347 677 332 676 L332 744 L313 744 L313 673 C162 651 76 569 76 448 C76 382 101 330 157 281 C184 258 184 258 300 196 L306 192 L313 189 L313 22 Z M332 178 C383 149 398 131 398 100 C398 70 377 46 332 28 L332 178 Z M313 488 C267 515 249 537 249 568 C249 598 272 624 313 640 L313 488 Z " />
<glyph glyph-name="percent" unicode="&#x25;" horiz-adv-x="779" d="M192 678 C92 678 15 580 15 452 C15 391 37 326 71 285 C101 249 142 230 191 230 C294 230 368 320 368 448 C368 581 294 678 192 678 L192 678 Z M165 618 C165 645 172 655 192 655 C211 655 218 645 218 618 L218 289 C218 262 211 252 192 252 C172 252 165 262 165 289 L165 618 Z M275 0 L538 667 L512 667 L250 0 L275 0 Z M589 437 C491 437 414 338 414 211 C414 150 436 85 470 44 C500 8 541 -11 589 -11 C692 -11 766 80 766 207 C766 341 692 437 589 437 L589 437 Z M564 377 C564 405 571 414 590 414 C609 414 616 404 616 377 L616 48 C616 21 609 11 590 11 C571 11 564 21 564 48 L564 377 Z " />
<glyph glyph-name="ampersand" unicode="&#x26;" horiz-adv-x="852" d="M810 167 C810 104 802 84 777 84 C764 84 753 93 742 112 L667 240 C711 277 728 316 727 378 L811 378 L811 401 L626 401 L626 378 L699 378 L699 370 L699 366 C698 319 686 290 654 263 L534 469 C588 495 618 532 618 575 C618 639 562 680 472 680 C408 680 342 658 299 623 C262 593 244 553 244 502 C244 478 247 462 257 435 C102 381 25 298 25 186 C25 72 109 -13 222 -13 C308 -13 384 10 470 61 C514 8 564 -13 646 -13 C697 -13 753 1 785 23 C804 37 818 56 826 81 C832 102 833 108 833 167 L810 167 Z M458 81 C439 69 426 65 409 65 C375 65 355 82 323 138 L228 306 C219 322 214 339 214 356 C214 381 229 397 267 413 L458 81 Z M520 496 C491 543 483 562 483 584 C483 614 503 635 531 635 C563 635 589 608 589 574 C589 540 565 513 520 496 L520 496 Z " />
<glyph glyph-name="quotesingle" unicode="&#x27;" horiz-adv-x="271" d="M177 399 L231 667 L41 667 L94 399 L177 399 Z " />
<glyph glyph-name="parenleft" unicode="&#x28;" horiz-adv-x="345" d="M326 -253 C303 -237 286 -224 275 -215 L275 661 C286 672 294 678 302 683 L320 696 L326 700 L316 715 C274 687 250 668 225 645 C112 539 38 373 38 223 C38 74 112 -93 225 -198 C250 -221 274 -240 316 -269 L326 -253 Z " />
<glyph glyph-name="parenright" unicode="&#x29;" horiz-adv-x="345" d="M29 -269 C70 -241 95 -221 120 -198 C233 -92 307 73 307 223 C307 373 233 539 120 645 C95 668 70 687 29 715 L19 700 C42 684 59 671 70 661 L70 -215 C59 -225 51 -231 43 -236 C37 -241 31 -245 25 -249 L19 -253 L29 -269 Z " />
<glyph glyph-name="asterisk" unicode="&#x2a;" horiz-adv-x="476" d="M93 378 C86 376 82 372 82 367 C82 361 89 355 110 346 C111 345 115 343 120 341 C112 315 109 300 109 286 C109 275 114 268 122 268 C134 268 150 277 178 300 C193 280 202 272 211 272 C216 272 219 276 218 282 L218 292 L218 315 C218 354 225 393 240 445 C258 389 266 347 266 304 L266 296 L265 289 L265 284 C265 277 268 272 272 272 C280 272 290 281 306 303 C332 282 349 272 361 272 C369 272 375 279 375 290 C375 306 373 315 362 347 C387 357 399 366 399 373 C399 377 394 381 388 383 L382 384 C340 395 281 427 252 455 C311 456 355 450 393 435 L402 432 C405 430 408 430 412 430 C416 430 419 433 419 437 C419 447 412 461 400 478 C429 500 445 518 445 529 C445 540 426 549 400 549 L377 548 C374 583 371 592 362 592 C358 592 355 589 352 585 L349 579 C321 535 290 501 246 470 C260 524 279 565 310 610 L315 616 C317 619 318 622 318 625 C318 631 315 633 307 633 C297 633 289 632 271 626 C257 671 248 687 236 687 C224 687 214 670 201 624 C185 628 176 630 170 630 C161 630 155 626 155 620 C155 618 156 617 160 611 L165 604 C196 564 216 523 231 469 C182 504 163 523 127 574 L121 582 C117 588 114 590 111 590 C102 590 98 576 97 543 L83 543 C50 543 31 535 31 522 C31 512 44 497 65 481 L77 472 C65 453 61 443 61 431 C61 426 63 424 66 424 C69 424 73 425 77 427 L83 430 C120 445 150 450 227 454 C194 423 143 393 102 380 L93 378 Z " />
<glyph glyph-name="plus" unicode="&#x2b;" horiz-adv-x="633" d="M539 356 L337 356 L337 581 L297 581 L297 356 L95 356 L95 313 L297 313 L297 88 L337 88 L337 313 L539 313 L539 356 Z " />
<glyph glyph-name="comma" unicode="&#x2c;" horiz-adv-x="307" d="M71 -87 C125 -86 161 -82 184 -73 C233 -55 269 3 269 65 C269 131 222 175 151 175 C88 175 39 137 39 88 C39 41 89 0 148 0 C182 0 210 11 232 32 C218 -39 180 -61 71 -63 L71 -87 Z " />
<glyph glyph-name="hyphen" unicode="&#x2d;" horiz-adv-x="272" d="M272 151 L272 324 L0 324 L0 151 L272 151 Z " />
<glyph glyph-name="period" unicode="&#x2e;" horiz-adv-x="299" d="M149 167 C88 167 38 127 38 78 C38 28 89 -13 152 -13 C215 -13 261 23 261 72 C261 126 213 167 149 167 L149 167 Z " />
<glyph glyph-name="slash" unicode="&#x2f;" horiz-adv-x="190" d="M-31 -227 L243 680 L217 680 L-56 -227 L-31 -227 Z " />
<glyph glyph-name="zero" unicode="0" horiz-adv-x="633" d="M316 683 C156 683 29 527 29 330 C29 237 63 139 117 75 C168 15 235 -16 316 -16 C386 -16 449 8 498 53 C562 112 604 219 604 324 C604 434 573 527 513 592 C461 651 390 683 316 683 L316 683 Z M273 594 C273 639 286 657 318 657 C349 657 362 639 362 594 L362 72 C362 27 349 9 318 9 C286 9 273 27 273 72 L273 594 Z " />
<glyph glyph-name="one" unicode="1" horiz-adv-x="633" d="M502 0 L502 23 L427 23 L427 687 C353 646 302 634 194 633 L130 633 L130 610 L207 610 L207 23 L130 23 L130 0 L502 0 Z " />
<glyph glyph-name="two" unicode="2" horiz-adv-x="633" d="M45 -19 C75 8 102 19 138 19 C179 19 220 13 296 -3 C322 -8 344 -11 361 -11 C411 -11 465 14 495 53 C533 101 564 155 595 231 L574 245 C550 199 532 190 465 190 C437 190 368 194 322 199 C300 202 280 203 266 203 C244 203 229 199 207 187 C227 207 249 216 310 231 C487 271 572 344 572 456 C572 598 460 683 274 683 C203 683 152 670 108 640 C61 607 31 558 31 512 C31 454 78 406 134 406 C189 406 231 451 231 511 C231 568 195 606 140 606 C127 606 118 604 101 599 C131 634 166 651 209 651 C253 651 293 630 313 596 C326 573 332 538 332 484 C332 357 300 289 209 221 C93 141 52 89 25 -6 L45 -19 Z " />
<glyph glyph-name="three" unicode="3" horiz-adv-x="633" d="M329 437 C327 398 316 387 284 387 L225 387 L225 359 L275 359 C318 358 327 349 329 305 L329 97 C329 37 307 13 251 13 C203 13 152 26 127 46 C117 53 112 60 104 74 C128 58 140 53 160 53 C209 53 243 91 243 143 C243 199 204 240 152 240 C97 240 54 194 54 135 C54 94 74 57 113 28 C151 -2 208 -16 286 -16 C388 -16 477 8 517 47 C557 85 579 135 579 185 C579 244 548 302 500 334 C462 359 432 368 378 373 C445 377 474 385 506 407 C536 428 555 469 555 515 C555 621 465 683 311 683 C162 683 79 635 79 549 C79 495 116 456 167 456 C220 456 259 495 259 549 C259 604 225 638 169 638 C193 651 222 657 258 657 C309 657 329 636 329 580 L329 437 Z " />
<glyph glyph-name="four" unicode="4" horiz-adv-x="633" d="M598 0 L598 23 L531 23 L531 163 L598 163 L598 186 L531 186 L531 667 L345 667 L17 163 L309 163 L309 23 L221 23 L221 0 L598 0 Z M309 186 L63 186 L309 565 L309 186 Z " />
<glyph glyph-name="five" unicode="5" horiz-adv-x="633" d="M152 377 C194 405 226 417 258 417 C296 417 314 396 314 351 L314 94 C314 70 312 58 306 48 C293 25 263 13 221 13 C187 13 165 19 141 34 C201 36 231 65 231 122 C231 180 195 219 144 219 C89 219 50 178 50 119 C50 33 125 -16 256 -16 C348 -16 442 12 491 55 C534 93 557 149 557 217 C557 309 523 371 448 414 C408 437 364 448 311 448 C261 448 226 441 180 421 L188 501 L301 501 C461 496 538 549 571 687 C509 673 446 667 363 667 C290 667 240 671 183 680 L152 377 Z " />
<glyph glyph-name="six" unicode="6" horiz-adv-x="633" d="M276 555 C276 595 277 604 286 620 C299 644 331 658 371 658 C387 658 396 656 414 649 C375 633 357 606 357 564 C357 506 395 466 451 466 C507 466 541 501 541 558 C541 636 475 684 368 684 C170 684 30 533 30 322 C30 126 153 -16 324 -16 C385 -16 450 0 498 28 C564 66 604 138 604 216 C604 331 518 420 408 420 C363 420 324 409 276 383 L276 555 Z M276 360 C305 374 316 378 328 378 C352 378 365 357 365 317 L365 58 C365 30 348 13 320 13 C292 13 277 30 277 60 L276 360 Z " />
<glyph glyph-name="seven" unicode="7" horiz-adv-x="633" d="M590 678 C567 664 538 657 500 657 C481 657 452 660 420 665 C354 677 297 683 261 683 C201 683 136 666 99 641 L99 664 L99 678 L99 684 L77 684 C79 667 79 659 79 643 C79 571 66 502 39 429 L62 429 C86 483 105 497 156 497 C166 497 180 497 193 496 C221 495 239 494 250 494 C312 494 393 508 430 526 C469 544 489 559 515 586 C486 541 464 516 408 463 C320 379 251 300 227 257 C198 203 184 155 184 106 C184 35 235 -16 307 -16 C353 -16 396 7 415 41 C439 83 443 108 444 205 C440 385 505 574 600 660 L590 678 Z " />
<glyph glyph-name="eight" unicode="8" horiz-adv-x="633" d="M408 386 C518 401 570 447 570 527 C570 631 483 683 308 683 C230 683 175 671 131 646 C87 621 59 573 59 523 C59 486 75 451 102 428 C131 404 156 394 216 381 C155 373 126 363 93 337 C49 304 25 253 25 192 C25 121 58 61 112 30 C163 1 236 -16 312 -16 C400 -16 489 13 542 58 C586 96 609 146 609 207 C609 265 585 316 545 344 C510 369 479 378 408 386 L408 386 Z M275 608 C275 644 286 657 316 657 C345 657 358 642 358 608 L358 448 C358 414 345 399 316 399 C286 399 275 412 275 448 L275 608 Z M275 329 C275 365 286 378 316 378 C345 378 358 363 358 329 L358 56 C358 22 345 7 316 7 C286 7 275 20 275 56 L275 329 Z " />
<glyph glyph-name="nine" unicode="9" horiz-adv-x="633" d="M363 113 C363 81 357 58 344 45 C325 26 286 13 246 13 C217 13 197 17 168 30 C204 43 223 72 223 112 C223 168 186 208 135 208 C82 208 42 168 42 114 C42 34 119 -16 242 -16 C348 -16 459 33 522 107 C572 167 600 252 600 344 C600 459 557 560 482 624 C434 665 380 683 309 683 C227 683 152 659 107 618 C61 576 34 516 34 454 C34 333 124 251 256 251 C299 251 316 255 363 278 L363 113 Z M362 306 C343 291 325 283 308 283 C285 283 275 304 275 351 L275 583 C275 637 287 657 320 657 C348 657 363 634 363 589 L362 306 Z " />
<glyph glyph-name="colon" unicode="&#x3a;" horiz-adv-x="299" d="M149 167 C88 167 38 127 38 78 C38 28 89 -13 152 -13 C215 -13 261 23 261 72 C261 126 213 167 149 167 L149 167 Z M149 420 C88 420 38 380 38 331 C38 281 89 240 152 240 C215 240 261 276 261 325 C261 379 213 420 149 420 L149 420 Z " />
<glyph glyph-name="semicolon" unicode="&#x3b;" horiz-adv-x="307" d="M71 -87 C125 -86 161 -82 184 -73 C233 -54 269 3 269 65 C269 131 222 175 151 175 C88 175 39 137 39 88 C39 41 89 0 148 0 C182 0 211 11 233 32 C218 -39 181 -61 71 -63 L71 -87 Z M149 420 C88 420 38 380 38 331 C38 281 89 240 152 240 C215 240 261 276 261 325 C261 379 213 420 149 420 L149 420 Z " />
<glyph glyph-name="less" unicode="&#x3c;" horiz-adv-x="475" d="M441 649 L35 387 L35 377 L441 81 L441 298 L244 441 L441 568 L441 649 Z " />
<glyph glyph-name="equal" unicode="&#x3d;" horiz-adv-x="633" d="M539 416 L95 416 L95 373 L539 373 L539 416 Z M539 295 L95 295 L95 252 L539 252 L539 295 Z " />
<glyph glyph-name="greater" unicode="&#x3e;" horiz-adv-x="475" d="M35 81 L441 343 L441 353 L35 649 L35 433 L232 289 L35 163 L35 81 Z " />
<glyph glyph-name="question" unicode="&#x3f;" horiz-adv-x="451" d="M173 139 C117 139 72 107 72 67 C72 23 116 -10 174 -10 C230 -10 274 22 274 61 C274 104 229 139 173 139 L173 139 Z M160 154 L185 188 C248 193 290 205 331 231 C388 269 426 344 426 420 C426 557 313 674 181 674 C96 674 19 601 19 521 C19 465 54 427 106 427 C157 427 191 461 191 511 C191 562 156 599 107 599 C92 599 83 597 68 590 C97 629 127 647 164 647 C234 647 296 571 296 486 C296 404 237 353 138 349 L160 154 Z " />
<glyph glyph-name="at" unicode="&#x40;" horiz-adv-x="704" d="M427 519 L420 496 C405 523 389 533 363 533 C255 533 146 388 146 245 C146 181 183 133 233 133 C271 133 307 155 346 201 C357 153 379 133 417 133 C463 133 523 162 572 207 C638 269 675 351 675 435 C675 577 558 684 404 684 C204 684 28 496 28 281 C28 108 151 -17 321 -17 C465 -17 600 62 658 180 L626 180 C583 87 446 10 324 10 C173 10 66 121 66 277 C66 480 223 656 403 656 C537 656 646 559 646 440 C646 373 620 304 577 253 C547 218 511 193 492 193 C484 193 478 199 478 206 C478 213 480 223 484 235 L571 519 L427 519 Z M358 296 C346 254 345 250 343 227 C318 198 298 183 287 183 C280 183 275 191 275 201 C275 211 279 230 284 248 L342 436 C355 476 368 495 384 495 C392 495 399 488 411 466 L358 296 Z " />
<glyph glyph-name="A" unicode="A" horiz-adv-x="743" d="M739 0 L739 23 L704 23 L491 667 L274 667 L107 174 C69 80 35 30 3 23 L3 0 L250 0 L250 23 C217 24 200 28 182 39 C152 57 134 97 134 144 C134 164 136 180 143 205 L363 205 L423 23 L351 23 L351 0 L739 0 Z M356 228 L150 228 L253 539 L356 228 Z " />
<glyph glyph-name="B" unicode="B" horiz-adv-x="792" d="M22 0 L549 0 C618 0 652 7 688 27 C739 56 766 106 766 174 C766 234 746 278 703 312 C671 338 647 345 594 347 C644 350 668 356 691 374 C726 400 746 447 746 501 C746 565 717 621 672 647 C646 662 618 667 554 667 L22 667 L22 644 L102 644 L102 23 L22 23 L22 0 Z M373 23 L373 326 L411 326 C467 324 474 318 475 261 L475 85 C474 30 468 25 416 23 L373 23 Z M373 348 L373 644 L413 644 C466 643 473 632 475 555 L475 417 C474 361 464 350 416 348 L373 348 Z " />
<glyph glyph-name="C" unicode="C" horiz-adv-x="665" d="M599 133 C538 50 472 10 398 10 C344 10 322 41 322 117 L322 557 C322 631 338 657 383 657 C456 657 534 599 573 517 C588 484 594 458 595 412 L617 412 L617 687 L521 631 C466 673 426 687 360 687 C164 687 29 543 29 335 C29 128 169 -20 365 -20 C472 -20 544 19 621 117 L599 133 Z " />
<glyph glyph-name="D" unicode="D" horiz-adv-x="820" d="M22 0 L520 0 C586 0 639 21 683 64 C751 132 792 236 792 338 C792 427 761 514 708 580 C658 641 596 667 499 667 L22 667 L22 644 L96 644 L96 23 L22 23 L22 0 Z M368 23 L368 644 L416 644 C478 644 487 632 487 549 L487 118 C488 45 470 23 406 23 L368 23 Z " />
<glyph glyph-name="E" unicode="E" horiz-adv-x="709" d="M652 0 L652 246 L631 246 C614 116 507 25 368 23 L368 331 L387 331 C453 331 502 265 499 179 L519 179 L519 511 L499 511 C501 417 459 357 388 355 L368 355 L368 644 C505 652 597 581 610 457 L631 457 L631 667 L22 667 L22 644 L96 644 L96 23 L22 23 L22 0 L652 0 Z " />
<glyph glyph-name="F" unicode="F" horiz-adv-x="687" d="M452 0 L452 23 L368 23 L368 318 C461 319 495 281 499 169 L521 169 L521 501 L499 501 C502 395 456 340 368 341 L368 644 L412 644 C524 649 602 581 620 460 L642 460 L642 667 L22 667 L22 644 L96 644 L96 23 L22 23 L22 0 L452 0 Z " />
<glyph glyph-name="G" unicode="G" horiz-adv-x="746" d="M723 277 L723 300 L388 300 L388 277 L436 277 L436 93 C436 39 417 10 382 10 C348 10 333 33 333 83 L333 562 C333 634 351 657 407 657 C480 657 550 614 597 540 C620 504 628 476 629 427 L650 427 L650 687 L556 631 C492 674 449 687 376 687 C279 687 194 658 138 605 C70 540 28 436 28 330 C28 123 172 -20 380 -20 C474 -20 545 1 606 46 L678 -32 L678 277 L723 277 Z " />
<glyph glyph-name="H" unicode="H" horiz-adv-x="848" d="M826 0 L826 23 L752 23 L752 644 L826 644 L826 667 L431 667 L431 644 L479 644 L479 359 L368 359 L368 644 L416 644 L416 667 L22 667 L22 644 L96 644 L96 23 L22 23 L22 0 L416 0 L416 23 L368 23 L368 336 L479 336 L479 23 L431 23 L431 0 L826 0 Z " />
<glyph glyph-name="I" unicode="I" horiz-adv-x="469" d="M446 0 L446 23 L372 23 L372 644 L446 644 L446 667 L22 667 L22 644 L96 644 L96 23 L22 23 L22 0 L446 0 Z " />
<glyph glyph-name="J" unicode="J" horiz-adv-x="621" d="M602 644 L602 667 L165 667 L165 644 L255 644 L255 141 C255 100 250 75 240 56 C224 29 194 11 164 11 C131 11 96 27 75 52 C89 49 96 48 105 48 C165 48 207 90 207 150 C207 206 170 246 119 246 C61 246 16 198 16 137 C16 46 94 -20 201 -20 C308 -20 414 3 459 35 C511 73 528 113 528 197 L528 644 L602 644 Z " />
<glyph glyph-name="K" unicode="K" horiz-adv-x="856" d="M849 0 L849 23 L818 23 L575 510 L610 542 C725 630 756 645 818 644 L818 667 L482 667 L482 644 C518 644 536 641 554 632 C570 624 582 602 582 580 C582 556 571 540 534 510 L368 377 L368 644 L446 644 L446 667 L22 667 L22 644 L96 644 L96 23 L22 23 L22 0 L441 0 L441 23 L368 23 L368 345 L529 23 L464 23 L464 0 L849 0 Z " />
<glyph glyph-name="L" unicode="L" horiz-adv-x="681" d="M643 250 L620 250 C618 139 505 38 368 23 L368 644 L450 644 L450 667 L22 667 L22 644 L96 644 L96 23 L22 23 L22 0 L643 0 L643 250 Z " />
<glyph glyph-name="M" unicode="M" horiz-adv-x="994" d="M972 0 L972 23 L898 23 L898 644 L972 644 L972 667 L637 667 L515 335 L386 667 L29 667 L29 644 L91 644 L112 604 L112 203 C113 97 71 20 13 23 L13 0 L257 0 L257 24 L247 24 C210 24 187 36 170 65 C149 98 139 152 139 219 L139 573 L353 0 L415 0 L626 573 L626 23 L547 23 L547 0 L972 0 Z " />
<glyph glyph-name="N" unicode="N" horiz-adv-x="780" d="M668 0 L668 457 C667 571 707 645 768 644 L768 667 L514 667 L514 644 L536 644 C607 645 640 585 643 449 L643 295 L379 667 L13 667 L13 644 L72 644 L114 582 L114 192 C112 89 72 22 13 23 L13 0 L258 0 L258 23 C180 23 140 90 140 228 L140 545 L514 0 L668 0 Z " />
<glyph glyph-name="O" unicode="O" horiz-adv-x="764" d="M383 687 C166 687 28 552 28 340 C28 229 56 149 120 83 C186 15 274 -20 383 -20 C528 -20 621 30 687 144 C719 200 736 264 736 333 C736 553 602 687 383 687 L383 687 Z M331 601 C331 644 348 666 382 666 C416 666 433 644 433 601 L433 68 C433 21 417 1 382 1 C347 1 331 21 331 68 L331 601 Z " />
<glyph glyph-name="P" unicode="P" horiz-adv-x="771" d="M455 0 L455 23 L368 23 L368 268 L480 268 C565 268 622 278 660 300 C713 331 746 398 746 476 C746 542 722 602 682 635 C654 658 614 667 539 667 L22 667 L22 644 L96 644 L96 23 L22 23 L22 0 L455 0 Z M368 292 L368 644 L403 644 C459 643 465 634 469 541 L469 366 C469 316 447 291 404 291 L400 291 L376 292 L368 292 Z " />
<glyph glyph-name="Q" unicode="Q" horiz-adv-x="765" d="M654 -197 C638 -199 631 -199 618 -199 C550 -199 518 -177 496 -115 C483 -80 477 -47 477 -11 C633 18 737 156 737 337 C737 551 600 687 384 687 C163 687 28 555 28 338 C28 222 62 138 137 68 C188 22 243 -4 315 -15 C319 -170 401 -238 584 -238 C609 -238 626 -237 654 -234 L654 -197 Z M333 601 C333 647 348 666 383 666 C418 666 433 647 433 601 L433 63 C433 20 417 1 383 1 C349 1 333 20 333 63 L333 601 Z " />
<glyph glyph-name="R" unicode="R" horiz-adv-x="821" d="M770 118 C764 87 760 78 749 78 C737 78 732 87 732 110 C732 116 733 142 734 155 C735 182 736 208 736 215 C736 288 711 320 632 351 C707 383 741 432 741 510 C741 570 716 622 676 644 C645 660 606 667 543 667 L22 667 L22 644 L96 644 L96 23 L22 23 L22 0 L432 0 L432 23 L368 23 L368 339 C382 340 389 340 396 340 C454 340 468 327 469 275 C470 110 472 95 497 55 C525 7 575 -14 656 -14 C739 -14 774 19 792 112 L770 118 Z M368 363 L368 644 L400 644 C456 643 467 633 469 575 L469 434 C466 377 450 364 384 363 L368 363 Z " />
<glyph glyph-name="S" unicode="S" horiz-adv-x="602" d="M553 456 L553 687 L465 631 C406 671 359 687 299 687 C158 687 54 587 54 453 C54 358 110 285 232 217 C360 146 377 131 377 88 C377 41 335 9 272 9 C214 9 161 36 110 93 C71 138 56 182 56 254 L32 254 L32 -17 L117 43 C177 -4 223 -21 283 -21 C340 -21 408 -3 459 25 C527 64 565 133 565 220 C565 273 547 325 519 355 C487 389 409 444 344 479 C254 527 231 548 231 585 C231 630 263 660 311 660 C366 660 420 639 464 600 C510 560 528 521 529 456 L553 456 Z " />
<glyph glyph-name="T" unicode="T" horiz-adv-x="702" d="M573 0 L573 23 L488 23 L488 644 C579 611 652 524 663 435 L685 435 L685 667 L17 667 L17 435 L39 435 C59 534 118 604 216 644 L216 23 L131 23 L131 0 L573 0 Z " />
<glyph glyph-name="U" unicode="U" horiz-adv-x="731" d="M719 667 L478 667 L478 644 C559 646 594 584 594 437 L594 180 C594 132 582 96 556 71 C524 38 477 18 432 18 C413 18 395 24 384 33 C371 44 365 67 365 110 L365 644 L432 644 L432 667 L19 667 L19 644 L93 644 L93 176 C93 100 111 67 170 32 C227 0 311 -20 395 -20 C530 -20 619 56 619 170 L619 467 C620 575 658 644 719 644 L719 667 Z " />
<glyph glyph-name="V" unicode="V" horiz-adv-x="726" d="M726 667 L510 667 L510 644 C533 644 545 641 558 633 C579 620 593 589 593 558 C593 533 586 500 574 469 L478 230 L337 644 L398 644 L398 667 L0 667 L0 644 L50 644 L265 0 L409 0 L605 475 C641 565 686 627 726 644 L726 667 Z " />
<glyph glyph-name="W" unicode="W" horiz-adv-x="1113" d="M1113 667 L897 667 L897 644 C924 642 935 639 946 633 C966 622 979 590 979 555 C979 529 973 499 962 472 L865 230 L734 644 L786 644 L786 667 L401 667 L401 644 L447 644 L541 348 L481 214 L336 644 L382 644 L382 667 L0 667 L0 644 L49 644 L264 0 L414 0 L553 312 L652 0 L798 0 L989 469 C1031 568 1067 619 1113 644 L1113 667 Z " />
<glyph glyph-name="X" unicode="X" horiz-adv-x="773" d="M766 0 L766 23 L714 23 L526 397 L654 552 C709 620 736 642 766 644 L766 667 L535 667 L535 644 C566 643 576 642 588 635 C601 627 610 606 610 584 C610 554 597 522 572 493 L514 423 L403 644 L470 644 L470 667 L39 667 L39 644 L96 644 L271 292 L159 145 C103 71 51 30 6 23 L6 0 L248 0 L248 23 C205 27 179 53 179 92 C179 117 190 142 215 176 L284 266 L406 23 L330 23 L330 0 L766 0 Z " />
<glyph glyph-name="Y" unicode="Y" horiz-adv-x="726" d="M725 667 L510 667 L510 644 C538 643 549 640 561 633 C577 624 591 597 591 574 C591 550 582 519 566 489 L497 358 L350 644 L418 644 L418 667 L0 667 L0 644 L40 644 L238 260 L238 23 L159 23 L159 0 L595 0 L595 23 L510 23 L510 328 L601 500 C645 582 683 625 725 644 L725 667 Z " />
<glyph glyph-name="Z" unicode="Z" horiz-adv-x="696" d="M648 285 L625 285 C622 217 585 147 520 85 C472 39 432 23 365 23 L353 23 L659 667 L72 667 L72 415 L94 415 C97 495 125 550 188 601 C226 632 261 642 341 644 L38 0 L648 0 L648 285 Z " />
<glyph glyph-name="bracketleft" unicode="&#x5b;" horiz-adv-x="349" d="M355 -253 L355 -233 L278 -233 L278 680 L355 680 L355 700 L44 700 L44 -253 L355 -253 Z " />
<glyph glyph-name="backslash" unicode="&#x5c;" horiz-adv-x="190" d="M220 -227 L246 -227 L-28 680 L-53 680 L220 -227 Z " />
<glyph glyph-name="bracketright" unicode="&#x5d;" horiz-adv-x="349" d="M-6 -253 L305 -253 L305 700 L-6 700 L-6 680 L71 680 L71 -233 L-6 -233 L-6 -253 Z " />
<glyph glyph-name="asciicircum" unicode="&#x5e;" horiz-adv-x="475" d="M507 273 L258 700 L249 700 L-33 273 L173 273 L309 480 L430 273 L507 273 Z " />
<glyph glyph-name="underscore" unicode="&#x5f;" horiz-adv-x="475" d="M-1 -93 L-1 -191 L477 -191 L477 -93 L-1 -93 Z " />
<glyph glyph-name="grave" unicode="&#x60;" horiz-adv-x="475" d="M270 483 L236 623 L78 623 L78 596 L239 483 L270 483 Z " />
<glyph glyph-name="a" unicode="a" horiz-adv-x="586" d="M559 88 C536 53 536 53 530 53 C525 53 523 61 523 78 L523 267 C523 312 519 329 504 350 C472 394 384 420 265 420 C142 420 79 386 79 319 C79 272 112 240 160 240 C207 240 237 271 237 319 C237 357 221 379 186 390 C201 395 209 397 225 397 C263 397 290 386 302 365 C308 354 310 342 310 313 L310 213 C274 226 242 231 200 231 C152 231 118 224 87 207 C49 186 25 147 25 107 C25 38 92 -13 183 -13 C232 -13 266 -2 315 31 C348 -2 376 -13 422 -13 C494 -13 549 20 577 78 L559 88 Z M310 48 C284 32 271 27 258 27 C239 27 229 41 229 68 L229 161 C229 191 239 204 261 204 C276 204 289 201 310 192 L310 48 Z " />
<glyph glyph-name="b" unicode="b" horiz-adv-x="611" d="M284 34 C319 1 354 -13 400 -13 C509 -13 592 81 592 205 C592 263 572 321 538 363 C506 401 465 420 413 420 C376 420 349 414 284 390 L284 680 C252 672 203 667 147 667 L6 667 L6 647 L69 647 L69 20 L6 20 L6 0 L203 0 C235 0 257 -4 284 -13 L284 34 Z M284 365 C298 375 311 380 325 380 C350 380 361 361 361 315 L361 70 C361 45 354 34 337 34 C320 34 302 43 284 62 L284 365 Z " />
<glyph glyph-name="c" unicode="c" horiz-adv-x="475" d="M432 95 C396 43 350 15 302 15 C261 15 248 34 248 95 L248 338 C248 386 260 399 304 399 C336 399 360 391 379 374 C367 377 361 378 355 378 C318 378 289 344 289 300 C289 256 321 224 367 224 C412 224 443 256 443 304 C443 375 380 420 281 420 C129 420 19 327 19 198 C19 123 58 56 122 19 C159 -3 206 -13 264 -13 C351 -13 407 16 450 85 L432 95 Z " />
<glyph glyph-name="d" unicode="d" horiz-adv-x="612" d="M328 -13 C362 -4 391 0 423 0 L606 0 L606 20 L543 20 L543 680 C491 671 451 667 421 667 L264 667 L264 647 L328 647 L328 388 C276 411 237 420 193 420 C92 420 19 331 19 207 C19 144 38 88 72 51 C108 12 160 -13 207 -13 C248 -13 287 2 328 34 L328 -13 Z M328 62 C307 43 288 33 272 33 C257 33 249 48 249 78 L249 326 C249 360 262 380 283 380 C292 380 306 376 321 368 L328 365 L328 62 Z " />
<glyph glyph-name="e" unicode="e" horiz-adv-x="516" d="M474 131 C430 68 356 20 302 20 C282 20 266 29 257 47 C249 62 246 80 246 121 L246 209 L497 209 C480 334 390 420 275 420 C129 420 19 325 19 198 C19 77 126 -13 270 -13 C355 -13 432 32 489 114 L474 131 Z M334 230 L246 230 L246 348 C246 384 261 401 291 401 C321 401 334 385 334 347 L334 230 Z " />
<glyph glyph-name="f" unicode="f" horiz-adv-x="364" d="M353 393 L353 413 L300 413 C262 413 248 416 230 426 C189 450 161 500 161 551 C161 611 200 665 243 665 C247 665 250 664 256 661 C215 646 191 611 191 568 C191 519 226 485 276 485 C328 485 363 521 363 573 C363 637 312 684 243 684 C183 684 126 650 95 595 C77 562 69 528 69 478 L69 413 L6 413 L6 393 L69 393 L69 20 L6 20 L6 0 L354 0 L354 20 L284 20 L284 393 L353 393 Z " />
<glyph glyph-name="g" unicode="g" horiz-adv-x="547" d="M293 85 L202 84 C156 84 134 93 134 111 C134 122 141 132 157 141 C199 128 231 123 278 123 C422 123 510 176 510 264 C510 335 456 383 344 410 C352 442 366 462 388 476 C386 469 385 465 385 458 C385 427 405 407 436 407 C468 407 491 431 491 463 C491 496 468 518 435 518 C388 518 343 475 326 413 C300 418 282 420 256 420 C117 420 32 362 32 268 C32 211 57 182 136 147 C69 109 38 67 38 13 C38 -13 45 -32 64 -56 C47 -81 40 -98 40 -117 C40 -186 125 -232 250 -232 C414 -232 516 -163 516 -54 C516 37 455 85 338 85 L293 85 Z M311 189 C311 154 298 138 271 138 C245 138 233 154 233 187 L233 354 C233 385 247 401 274 401 C299 401 311 386 311 355 L311 189 Z M77 -68 C102 -88 128 -96 166 -96 C182 -96 197 -96 216 -95 C243 -94 297 -92 307 -92 C372 -92 399 -107 399 -142 C399 -185 349 -210 265 -210 C150 -210 68 -165 68 -102 C68 -91 70 -82 77 -68 L77 -68 Z " />
<glyph glyph-name="h" unicode="h" horiz-adv-x="650" d="M643 0 L643 20 L580 20 L580 275 C580 329 570 368 552 386 C531 407 493 420 454 420 C395 420 340 403 284 368 L284 680 C248 671 214 667 169 667 L6 667 L6 644 L69 644 L69 20 L6 20 L6 0 L316 0 L316 20 L284 20 L284 344 C303 359 319 367 333 367 C355 367 365 349 365 314 L365 20 L334 20 L334 0 L643 0 Z " />
<glyph glyph-name="i" unicode="i" horiz-adv-x="355" d="M347 0 L347 20 L284 20 L284 426 C246 417 209 413 165 413 L6 413 L6 393 L69 393 L69 20 L6 20 L6 0 L347 0 Z M177 674 C113 674 67 640 67 592 C67 542 110 509 174 509 C243 509 286 541 286 592 C286 640 240 674 177 674 L177 674 Z " />
<glyph glyph-name="j" unicode="j" horiz-adv-x="358" d="M288 426 C273 420 210 414 166 413 L10 413 L10 393 L73 393 L73 0 C115 -1 125 -2 139 -7 C187 -22 215 -62 215 -113 C215 -166 185 -200 136 -202 C168 -184 184 -157 184 -121 C184 -70 150 -35 101 -35 C49 -35 12 -74 12 -128 C12 -187 57 -227 123 -227 C180 -227 234 -198 260 -154 C279 -123 288 -71 288 0 L288 426 Z M181 674 C117 674 71 640 71 592 C71 542 114 509 178 509 C247 509 290 541 290 592 C290 640 244 674 181 674 L181 674 Z " />
<glyph glyph-name="k" unicode="k" horiz-adv-x="672" d="M668 0 L668 20 L650 20 L458 363 C489 387 505 393 541 393 L578 393 L578 413 L410 413 L410 393 L422 393 C440 393 447 390 447 382 C447 375 441 368 422 354 L284 252 L284 680 C249 671 217 667 175 667 L6 667 L6 647 L69 647 L69 20 L6 20 L6 0 L347 0 L347 20 L284 20 L284 235 L404 20 L367 20 L367 0 L668 0 Z " />
<glyph glyph-name="l" unicode="l" horiz-adv-x="355" d="M347 0 L347 20 L284 20 L284 680 C259 672 225 667 187 667 L6 667 L6 647 L69 647 L69 20 L6 20 L6 0 L347 0 Z " />
<glyph glyph-name="m" unicode="m" horiz-adv-x="941" d="M934 0 L934 20 L871 20 L871 283 C871 324 861 357 842 376 C816 403 771 420 724 420 C669 420 624 401 571 355 C533 401 496 420 442 420 C387 420 339 401 284 356 L284 426 C251 418 207 413 158 413 L6 413 L6 393 L69 393 L69 20 L6 20 L6 0 L317 0 L317 20 L284 20 L284 331 C303 352 319 361 334 361 C353 361 360 348 360 315 L360 20 L330 20 L330 0 L608 0 L608 20 L575 20 L575 331 C592 352 609 362 628 362 C650 362 656 350 656 309 L656 20 L623 20 L623 0 L934 0 Z " />
<glyph glyph-name="n" unicode="n" horiz-adv-x="652" d="M645 0 L645 20 L582 20 L582 287 C582 321 577 344 567 361 C545 398 500 420 446 420 C390 420 337 400 284 359 L284 426 C243 417 211 413 188 413 L6 413 L6 393 L69 393 L69 20 L6 20 L6 0 L317 0 L317 20 L284 20 L284 334 C306 355 322 363 336 363 C356 363 367 345 367 311 L367 20 L334 20 L334 0 L645 0 Z " />
<glyph glyph-name="o" unicode="o" horiz-adv-x="581" d="M288 420 C128 420 19 330 19 198 C19 123 51 67 118 29 C165 2 226 -13 292 -13 C374 -13 457 13 502 51 C541 86 563 138 563 194 C563 333 458 420 288 420 L288 420 Z M335 70 C335 26 322 8 290 8 C258 8 247 24 247 70 L247 335 C247 385 259 402 292 402 C324 402 335 386 335 338 L335 70 Z " />
<glyph glyph-name="p" unicode="p" horiz-adv-x="612" d="M284 44 C306 29 319 20 323 18 C350 1 385 -9 415 -9 C516 -9 593 85 593 208 C593 329 518 420 417 420 C378 420 347 410 284 376 L284 426 C241 417 202 413 166 413 L6 413 L6 393 L69 393 L69 -207 L6 -207 L6 -227 L348 -227 L348 -207 L284 -207 L284 44 Z M284 352 C302 368 321 377 338 377 C358 377 369 359 369 324 L369 101 C369 59 360 43 337 43 C320 43 305 50 284 69 L284 352 Z " />
<glyph glyph-name="q" unicode="q" horiz-adv-x="611" d="M326 -207 L262 -207 L262 -227 L604 -227 L604 -207 L541 -207 L541 393 L604 393 L604 413 L446 413 C403 413 365 417 326 426 L326 373 C280 404 233 420 189 420 C93 420 19 326 19 203 C19 78 93 -13 196 -13 C239 -13 278 3 326 41 L326 -207 Z M326 66 C310 50 292 41 274 41 C251 41 241 59 241 98 L241 311 C241 351 253 373 275 373 C289 373 306 365 326 349 L326 66 Z " />
<glyph glyph-name="r" unicode="r" horiz-adv-x="495" d="M347 0 L347 20 L284 20 L284 258 C289 288 307 320 325 335 C323 325 322 321 322 313 C322 267 355 234 401 234 C449 234 487 276 487 330 C487 381 457 416 412 416 C365 416 329 387 284 313 L284 426 C253 418 211 413 165 413 L6 413 L6 393 L69 393 L69 20 L6 20 L6 0 L347 0 Z " />
<glyph glyph-name="s" unicode="s" horiz-adv-x="481" d="M428 247 L428 423 L356 378 C301 409 265 420 217 420 C112 420 36 355 36 266 C36 193 104 136 245 88 C275 78 285 68 285 49 C285 26 270 14 242 14 C195 14 138 32 107 57 C73 85 56 119 53 167 L32 167 L32 -17 L95 33 C139 3 200 -14 264 -14 C376 -14 449 43 449 130 C449 175 433 209 398 234 C362 259 347 268 275 304 C199 346 197 348 197 365 C197 384 210 394 233 394 C278 394 332 374 362 345 C389 319 404 288 408 247 L428 247 Z " />
<glyph glyph-name="t" unicode="t" horiz-adv-x="377" d="M344 152 C326 92 312 70 291 70 C283 70 275 73 273 78 C269 84 269 84 269 122 L269 393 L332 393 L332 413 L269 413 L269 616 L247 616 C221 519 102 419 6 413 L6 393 L54 393 L54 104 C54 28 96 -7 188 -7 C250 -7 294 13 324 55 C338 75 348 98 364 146 L344 152 Z " />
<glyph glyph-name="u" unicode="u" horiz-adv-x="635" d="M350 0 L628 0 L628 20 L565 20 L565 426 C531 417 499 413 460 413 L295 413 L295 393 L350 393 L350 80 C332 62 313 52 298 52 C279 52 272 68 272 108 L272 426 C234 417 199 413 165 413 L6 413 L6 393 L57 393 L57 102 C57 68 65 40 81 23 C101 1 142 -13 184 -13 C242 -13 293 7 350 53 L350 0 Z " />
<glyph glyph-name="v" unicode="v" horiz-adv-x="496" d="M499 413 L332 413 L332 393 C375 391 396 371 396 333 C396 319 392 300 386 282 L346 169 L254 393 L305 393 L305 413 L-3 413 L-3 393 L27 393 L188 0 L305 0 L415 295 C442 360 461 383 499 393 L499 413 Z " />
<glyph glyph-name="w" unicode="w" horiz-adv-x="800" d="M803 413 L638 413 L638 393 C678 390 700 367 700 329 C700 316 697 302 692 287 L648 170 L557 393 L609 393 L609 413 L303 413 L303 393 L331 393 L379 270 L342 170 L252 393 L285 393 L285 413 L-3 413 L-3 393 L26 393 L184 0 L303 0 L393 238 L489 0 L609 0 L718 283 C748 359 764 379 803 393 L803 413 Z " />
<glyph glyph-name="x" unicode="x" horiz-adv-x="526" d="M523 0 L523 20 L497 20 L361 270 L434 352 C464 383 481 391 523 393 L523 413 L350 413 L350 393 C384 393 398 385 398 366 C398 351 395 345 373 320 L350 293 L295 393 L326 393 L326 413 L3 413 L3 393 L50 393 L170 166 L98 89 C68 57 22 24 3 20 L3 0 L160 0 L160 20 C129 22 118 30 118 51 C118 67 126 84 141 101 L181 144 L250 20 L212 20 L212 0 L523 0 Z " />
<glyph glyph-name="y" unicode="y" horiz-adv-x="490" d="M493 413 L330 413 L330 393 C372 388 390 373 390 343 C390 328 385 308 375 290 L353 244 L273 393 L313 393 L313 413 L0 413 L0 393 L25 393 L236 4 L178 -115 C168 -65 133 -34 86 -34 C35 -34 -4 -77 -4 -133 C-4 -188 34 -228 87 -228 C132 -228 164 -201 195 -137 L409 308 C436 366 456 386 493 393 L493 413 Z " />
<glyph glyph-name="z" unicode="z" horiz-adv-x="499" d="M480 0 L480 178 L458 178 C457 92 377 23 276 20 L480 413 L37 413 L37 233 L59 233 C71 331 135 392 228 392 L19 0 L480 0 Z " />
<glyph glyph-name="braceleft" unicode="&#x7b;" horiz-adv-x="374" d="M14 213 L29 213 C71 212 86 190 86 130 C88 -5 143 -120 246 -202 C292 -238 331 -263 350 -269 L359 -254 C331 -241 316 -231 291 -209 L291 -23 C292 114 287 132 233 175 C200 199 161 213 99 221 L99 226 C161 234 200 247 233 272 C287 315 292 333 291 470 L291 655 C316 678 331 688 359 701 L350 715 C331 709 292 684 246 649 C143 567 88 451 86 317 C86 257 71 235 29 233 L14 233 L14 213 Z " />
<glyph glyph-name="bar" unicode="&#x7c;" horiz-adv-x="475" d="M175 667 L175 -167 L300 -167 L300 667 L175 667 Z " />
<glyph glyph-name="braceright" unicode="&#x7d;" horiz-adv-x="374" d="M360 233 L345 233 C302 235 288 256 288 317 C286 452 230 567 128 649 C82 684 42 709 23 715 L15 701 C43 688 58 678 83 655 L83 470 C82 333 87 315 140 272 C174 247 213 234 275 226 L275 221 C213 213 174 199 140 175 C87 132 82 114 83 -23 L83 -209 C58 -231 43 -241 15 -254 L23 -269 C42 -263 82 -238 128 -202 C230 -120 286 -5 288 130 C288 190 302 212 345 213 L360 213 L360 233 Z " />
<glyph glyph-name="asciitilde" unicode="&#x7e;" horiz-adv-x="475" d="M417 370 L401 381 C385 366 373 360 360 360 C345 360 319 366 290 377 C254 390 226 396 200 396 C158 396 133 380 59 302 L77 287 C92 301 102 307 111 307 C123 307 143 301 167 290 C196 277 226 270 257 270 C289 270 322 281 350 300 C368 312 379 324 408 359 L417 370 Z " />
<glyph glyph-name="uni00A0" unicode="&#xa0;" horiz-adv-x="238" d="" />
<glyph glyph-name="exclamdown" unicode="&#xa1;" horiz-adv-x="298" d="M148 420 C86 420 38 383 38 337 C38 285 86 248 151 248 C212 248 260 286 260 334 C260 382 211 420 148 420 L148 420 Z M134 214 L68 -105 C56 -165 56 -168 56 -183 C56 -230 95 -263 150 -263 C209 -263 248 -228 248 -175 C248 -160 244 -133 238 -105 L168 214 L134 214 Z " />
<glyph glyph-name="cent" unicode="&#xa2;" horiz-adv-x="633" d="M336 154 C426 153 487 184 529 251 L511 261 C473 207 430 181 377 181 C341 181 328 202 328 261 L328 500 C328 554 336 564 381 564 C415 564 435 558 458 541 C448 543 443 544 437 544 C396 544 368 513 368 467 C368 421 399 390 445 390 C490 390 522 424 522 472 C522 543 458 587 356 587 C349 587 345 587 336 586 L336 667 L317 667 L317 584 C272 577 259 574 236 564 C152 527 99 449 99 362 C99 280 146 207 223 172 C250 160 266 157 317 154 L317 72 L336 72 L336 154 Z " />
<glyph glyph-name="sterling" unicode="&#xa3;" horiz-adv-x="633" d="M600 144 C596 115 590 98 578 79 C549 37 489 10 420 10 C376 10 346 19 302 43 C351 88 370 153 380 305 L493 305 L493 325 L380 325 C380 358 380 389 379 390 C377 464 377 464 377 482 C377 614 400 656 471 656 C491 656 505 653 527 643 C468 633 437 599 437 544 C437 490 475 449 527 449 C581 449 619 491 619 550 C619 635 552 683 435 683 C315 683 230 645 188 571 C161 524 151 474 151 381 L151 325 L67 325 L67 305 L151 305 L151 280 L151 234 C151 172 147 133 139 108 C114 120 96 125 78 125 C43 125 15 94 15 56 C15 10 51 -16 117 -16 C181 -16 237 -1 282 29 C378 -54 426 -80 485 -80 C570 -80 622 3 625 144 L600 144 Z M132 80 C123 46 106 30 81 30 C59 30 45 42 45 60 C45 81 60 97 80 97 C97 97 111 92 132 80 L132 80 Z " />
<glyph glyph-name="currency" unicode="&#xa4;" horiz-adv-x="633" d="M63 118 L93 87 L179 178 C226 142 268 126 317 126 C367 126 413 144 455 180 L543 87 L572 118 L484 211 C519 258 534 301 534 353 C534 406 519 450 484 497 L571 588 L542 619 L454 528 C409 566 367 582 316 582 C265 582 224 566 177 528 L90 619 L61 588 L148 496 C114 450 99 406 99 354 C99 301 116 254 150 209 L63 118 Z M259 496 C259 539 278 561 316 561 C355 561 374 539 374 496 L374 214 C374 167 357 147 316 147 C276 147 259 167 259 214 L259 496 Z " />
<glyph glyph-name="yen" unicode="&#xa5;" horiz-adv-x="633" d="M437 23 L437 307 L624 307 L624 330 L438 330 L482 427 L624 427 L624 450 L493 450 L516 500 C556 577 598 626 640 644 L640 667 L424 667 L424 644 C452 643 463 640 475 633 C492 623 505 597 505 572 C505 546 502 536 480 489 L424 358 L289 644 L345 644 L345 667 L-8 667 L-8 644 L32 644 L125 450 L8 450 L8 427 L136 427 L183 330 L8 330 L8 307 L194 307 L217 260 L217 23 L141 23 L141 0 L522 0 L522 23 L437 23 Z " />
<glyph glyph-name="brokenbar" unicode="&#xa6;" horiz-adv-x="475" d="M175 667 L175 299 L300 299 L300 667 L175 667 Z M175 153 L175 -167 L300 -167 L300 153 L175 153 Z " />
<glyph glyph-name="section" unicode="&#xa7;" horiz-adv-x="540" d="M417 93 C481 154 503 197 503 257 C503 305 484 347 451 376 C431 393 369 424 293 456 C215 488 202 495 180 516 C166 529 158 546 158 562 C158 616 225 666 298 666 C337 666 377 652 400 629 C409 620 414 610 417 589 C400 610 385 617 357 617 C307 617 274 586 274 540 C274 495 309 462 357 462 C410 462 447 503 447 562 C447 637 387 687 295 687 C178 687 87 596 87 479 C87 432 99 397 127 362 C67 313 36 255 36 194 C36 149 57 100 89 71 C120 44 173 15 240 -10 C314 -38 379 -73 393 -92 C401 -102 405 -113 405 -125 C405 -182 344 -224 263 -224 C223 -224 181 -212 155 -193 C142 -184 136 -176 128 -157 C145 -171 161 -177 181 -177 C225 -177 257 -144 257 -99 C257 -54 225 -22 179 -22 C127 -22 92 -61 92 -117 C92 -197 157 -247 260 -247 C390 -247 480 -163 480 -41 C480 19 461 59 417 93 L417 93 Z M397 105 C363 124 350 130 306 149 C112 231 95 241 95 277 C95 304 103 316 141 346 C185 319 203 310 279 276 C430 211 442 203 442 174 C442 151 428 129 397 105 L397 105 Z " />
<glyph glyph-name="dieresis" unicode="&#xa8;" horiz-adv-x="475" d="M345 646 C291 646 252 612 252 564 C252 517 292 484 349 484 C400 484 436 517 436 564 C436 613 399 646 345 646 L345 646 Z M131 647 C79 647 39 612 39 566 C39 520 79 486 133 486 C187 486 223 518 223 566 C223 614 186 647 131 647 L131 647 Z " />
<glyph glyph-name="copyright" unicode="&#xa9;" horiz-adv-x="716" d="M359 680 C176 680 29 525 29 333 C29 145 177 -13 354 -13 C541 -13 688 140 688 334 C688 526 541 680 359 680 L359 680 Z M358 654 C524 654 658 511 658 334 C658 155 524 13 354 13 C194 13 59 159 59 333 C59 511 193 654 358 654 L358 654 Z M508 220 C469 170 430 146 385 146 C352 146 340 163 340 206 L340 465 C340 506 349 520 374 520 C442 520 501 455 503 376 L524 376 L524 548 L461 513 C428 536 401 545 360 545 C236 545 151 459 151 334 C151 210 240 121 363 121 C432 121 478 145 528 207 L508 220 Z " />
<glyph glyph-name="ordfeminine" unicode="&#xaa;" horiz-adv-x="376" d="M359 343 L16 343 L16 308 L359 308 L359 343 Z M348 480 C340 466 334 458 332 459 C329 460 328 463 328 468 L328 580 C328 609 323 624 310 637 C286 660 233 674 164 674 C87 674 46 652 46 611 C46 585 65 567 94 567 C124 567 144 586 144 614 C144 631 137 641 120 650 L145 654 L146 654 C183 651 194 640 193 607 L193 546 C174 552 151 555 126 555 C55 555 12 528 12 484 C12 442 55 410 112 410 C142 410 170 418 199 435 C219 416 235 410 262 410 C309 410 344 431 362 470 L348 480 Z M193 452 C177 444 167 441 157 441 C147 441 141 449 141 462 L141 510 C141 526 146 532 160 532 C171 532 181 530 193 526 L193 452 Z " />
<glyph glyph-name="guillemotleft" unicode="&#xab;" horiz-adv-x="518" d="M486 55 L354 208 L486 361 L344 361 L210 208 L341 55 L486 55 Z M298 55 L164 208 L298 361 L153 361 L19 208 L153 55 L298 55 Z " />
<glyph glyph-name="logicalnot" unicode="&#xac;" horiz-adv-x="475" d="M251 0 L450 0 L450 267 L24 267 L24 178 L251 178 L251 0 Z " />
<glyph glyph-name="uni00AD" unicode="&#xad;" horiz-adv-x="272" d="M272 151 L272 324 L0 324 L0 151 L272 151 Z " />
<glyph glyph-name="registered" unicode="&#xae;" horiz-adv-x="716" d="M359 680 C176 680 29 525 29 333 C29 145 177 -13 354 -13 C541 -13 688 140 688 334 C688 526 541 680 359 680 L359 680 Z M358 654 C524 654 658 511 658 334 C658 155 524 13 354 13 C194 13 59 159 59 333 C59 511 193 654 358 654 L358 654 Z M560 210 C558 194 554 186 550 186 C545 186 543 192 543 203 C543 209 543 218 544 224 C547 252 547 252 547 261 C547 306 533 326 491 343 C530 361 550 393 550 438 C550 464 542 489 528 506 C513 524 482 533 436 533 L163 533 L163 513 L199 513 L199 153 L163 153 L163 133 L373 133 L373 153 L335 153 L335 333 C395 334 396 333 396 270 C397 218 398 202 402 187 C414 144 442 125 493 125 C546 125 567 145 579 206 L560 210 Z M335 354 L335 513 L351 513 C390 512 396 507 398 472 L398 396 C396 361 387 354 342 354 L335 354 Z " />
<glyph glyph-name="macron" unicode="&#xaf;" horiz-adv-x="368" d="M335 602 L33 602 L33 530 L335 530 L335 602 Z " />
<glyph glyph-name="degree" unicode="&#xb0;" horiz-adv-x="400" d="M203 686 C117 686 50 619 50 534 C50 448 116 381 200 381 C284 381 350 448 350 533 C350 619 286 686 203 686 L203 686 Z M202 629 C252 629 293 586 293 534 C293 480 252 438 200 438 C148 438 106 481 106 533 C106 587 148 629 202 629 L202 629 Z " />
<glyph glyph-name="plusminus" unicode="&#xb1;" horiz-adv-x="633" d="M539 356 L337 356 L337 581 L297 581 L297 356 L95 356 L95 313 L297 313 L297 88 L337 88 L337 313 L539 313 L539 356 Z M539 43 L95 43 L95 1 L539 1 L539 43 Z " />
<glyph glyph-name="twosuperior" unicode="&#xb2;" horiz-adv-x="412" d="M38 255 C58 272 73 278 94 278 C115 278 153 273 193 266 C209 263 223 261 234 261 C295 261 337 302 384 408 L364 420 C348 386 340 382 294 382 C281 382 256 383 240 385 C217 387 203 388 198 388 C183 390 177 390 156 390 C169 395 173 396 197 401 C315 427 368 470 368 540 C368 624 296 676 180 676 C133 676 99 667 71 646 C45 627 29 600 29 574 C29 539 58 510 93 510 C128 510 154 537 154 572 C154 605 131 631 101 631 C96 631 90 631 83 630 C103 645 118 651 140 651 C160 651 179 644 193 633 C208 619 215 595 215 554 C215 483 194 442 139 404 C65 355 37 323 21 265 L38 255 Z " />
<glyph glyph-name="threesuperior" unicode="&#xb3;" horiz-adv-x="412" d="M212 532 C210 507 205 502 185 502 L151 502 L151 479 L179 479 C206 478 211 473 212 446 L212 327 C212 294 198 280 165 280 C131 280 103 289 85 304 C95 301 100 300 107 300 C138 300 160 322 160 355 C160 388 136 412 103 412 C68 412 41 385 41 350 C41 293 97 257 186 257 C252 257 309 272 334 297 C358 320 372 349 372 378 C372 405 360 433 341 453 C324 470 308 478 271 490 C333 502 357 526 357 575 C357 639 299 676 199 676 C110 676 57 646 57 595 C57 563 80 540 112 540 C146 540 170 563 170 595 C170 622 156 640 127 648 C144 652 154 654 169 654 C201 654 212 643 212 612 L212 532 Z " />
<glyph glyph-name="acute" unicode="&#xb4;" horiz-adv-x="475" d="M205 483 L237 483 L397 596 L397 623 L239 623 L205 483 Z " />
<glyph glyph-name="mu" unicode="&#xb5;" horiz-adv-x="576" d="M442 500 L353 500 L354 131 C318 80 284 58 242 58 C184 58 150 99 150 169 L150 500 L62 500 L62 20 C62 -1 58 -26 51 -56 C34 -118 33 -123 33 -147 C33 -190 54 -219 83 -219 C112 -219 132 -189 132 -145 C132 -124 129 -111 113 -53 C102 -17 101 -8 101 21 L101 33 C143 -3 165 -13 200 -13 C250 -13 301 18 354 80 C362 48 367 36 377 21 C392 0 419 -13 449 -13 C510 -13 553 31 567 108 L540 109 C536 71 515 41 492 41 C462 41 442 77 442 131 L442 500 Z " />
<glyph glyph-name="paragraph" unicode="&#xb6;" horiz-adv-x="781" d="M762 700 L234 700 C175 700 153 696 125 679 C62 641 25 560 25 459 C25 390 45 328 82 285 C119 240 155 227 241 227 L283 227 L283 -233 L208 -233 L208 -253 L453 -253 L453 680 L516 680 L516 -253 L762 -253 L762 -233 L686 -233 L686 680 L762 680 L762 700 Z M284 251 L258 251 C230 252 216 288 217 355 L217 576 C216 643 230 679 258 680 L284 680 L284 251 Z " />
<glyph glyph-name="periodcentered" unicode="&#xb7;" horiz-adv-x="299" d="M149 296 C88 296 38 256 38 207 C38 157 89 116 152 116 C215 116 261 152 261 201 C261 255 213 296 149 296 L149 296 Z " />
<glyph glyph-name="cedilla" unicode="&#xb8;" horiz-adv-x="475" d="M233 0 L180 -83 L191 -94 C199 -88 204 -86 213 -86 C233 -86 247 -101 247 -124 C247 -154 226 -172 190 -172 C167 -172 148 -168 122 -158 L114 -175 C155 -193 184 -199 236 -199 C318 -199 360 -173 360 -123 C360 -82 325 -55 271 -55 C252 -55 238 -57 215 -65 L257 0 L233 0 Z " />
<glyph glyph-name="onesuperior" unicode="&#xb9;" horiz-adv-x="412" d="M324 266 L324 287 L278 287 L278 682 C229 655 198 648 130 647 L86 647 L86 627 L134 627 L134 287 L86 287 L86 266 L324 266 Z " />
<glyph glyph-name="ordmasculine" unicode="&#xba;" horiz-adv-x="376" d="M360 343 L17 343 L17 308 L360 308 L360 343 Z M191 674 C85 674 16 621 16 539 C16 461 84 410 189 410 C294 410 361 459 361 536 C361 620 294 674 191 674 L191 674 Z M215 463 C215 438 208 429 187 429 C168 429 162 438 162 463 L162 620 C162 647 169 657 189 657 C209 657 215 649 215 622 L215 463 Z " />
<glyph glyph-name="guillemotright" unicode="&#xbb;" horiz-adv-x="518" d="M32 361 L165 208 L32 55 L175 55 L308 208 L178 361 L32 361 Z M221 361 L355 208 L221 55 L366 55 L499 208 L366 361 L221 361 Z " />
<glyph glyph-name="onequarter" unicode="&#xbc;" horiz-adv-x="898" d="M324 266 L324 287 L278 287 L278 682 C229 655 198 648 130 647 L86 647 L86 627 L134 627 L134 287 L86 287 L86 266 L324 266 Z M272 -13 L654 680 L626 680 L244 -13 L272 -13 Z M870 0 L870 21 L829 21 L829 96 L870 96 L870 117 L829 117 L829 400 L708 400 L500 96 L684 96 L684 21 L629 21 L629 0 L870 0 Z M684 117 L539 117 L684 328 L684 117 Z " />
<glyph glyph-name="onehalf" unicode="&#xbd;" horiz-adv-x="898" d="M324 266 L324 287 L278 287 L278 682 C229 655 198 648 130 647 L86 647 L86 627 L134 627 L134 287 L86 287 L86 266 L324 266 Z M272 -13 L654 680 L626 680 L244 -13 L272 -13 Z M524 -12 C544 5 558 11 584 11 C604 11 625 9 646 5 C701 -7 703 -7 720 -7 C781 -7 823 35 869 141 L850 152 C833 119 826 115 779 115 C765 115 741 116 726 118 C673 122 673 122 641 123 C655 128 658 129 683 134 C800 160 854 203 854 272 C854 357 782 409 666 409 C618 409 585 400 556 379 C531 360 515 332 515 307 C515 271 544 242 579 242 C614 242 640 269 640 305 C640 338 616 364 586 364 C582 364 576 363 569 362 C589 378 604 384 626 384 C646 384 664 377 678 366 C694 352 701 328 701 287 C701 216 680 175 625 137 C551 89 523 56 507 -2 L524 -12 Z " />
<glyph glyph-name="threequarters" unicode="&#xbe;" horiz-adv-x="898" d="M212 532 C211 507 207 502 186 502 L152 502 L152 479 L180 479 C208 478 211 474 212 446 L212 327 C212 291 201 280 166 280 C132 280 104 289 86 304 C96 301 101 300 108 300 C139 300 161 322 161 355 C161 388 137 412 104 412 C69 412 42 385 42 350 C42 293 98 257 187 257 C251 257 309 272 335 296 C359 318 372 348 372 378 C372 406 361 434 342 453 C325 470 309 478 272 490 C333 502 358 526 358 575 C358 638 299 676 200 676 C110 676 58 646 58 595 C58 563 81 540 113 540 C147 540 171 563 171 595 C171 622 157 640 128 648 C145 652 155 654 170 654 C202 654 212 644 212 612 L212 532 Z M272 -13 L654 680 L626 680 L244 -13 L272 -13 Z M871 0 L871 21 L829 21 L829 96 L871 96 L871 117 L829 117 L829 400 L708 400 L500 96 L684 96 L684 21 L629 21 L629 0 L871 0 Z M684 117 L539 117 L684 328 L684 117 Z " />
<glyph glyph-name="questiondown" unicode="&#xbf;" horiz-adv-x="451" d="M271 420 C216 420 171 388 171 348 C171 304 216 270 273 270 C328 270 373 303 373 343 C373 386 329 420 271 420 L271 420 Z M284 256 L260 221 C196 217 154 204 114 178 C57 141 19 66 19 -11 C19 -147 132 -264 264 -264 C349 -264 426 -191 426 -112 C426 -55 391 -18 339 -18 C288 -18 254 -52 254 -102 C254 -153 289 -190 338 -190 C352 -190 362 -188 377 -180 C348 -220 318 -237 281 -237 C211 -237 149 -161 149 -76 C149 6 207 57 307 60 L284 256 Z " />
<glyph glyph-name="Agrave" unicode="&#xc0;" horiz-adv-x="743" d="M457 716 L421 856 L255 856 L255 829 L432 716 L457 716 Z M739 0 L739 23 L704 23 L491 667 L274 667 L107 174 C69 80 35 30 3 23 L3 0 L250 0 L250 23 C217 24 200 28 182 39 C152 57 134 97 134 144 C134 164 136 180 143 205 L363 205 L423 23 L351 23 L351 0 L739 0 Z M356 228 L150 228 L253 539 L356 228 Z " />
<glyph glyph-name="Aacute" unicode="&#xc1;" horiz-adv-x="743" d="M319 716 L344 716 L521 829 L521 856 L355 856 L319 716 Z M739 0 L739 23 L704 23 L491 667 L274 667 L107 174 C69 80 35 30 3 23 L3 0 L250 0 L250 23 C217 24 200 28 182 39 C152 57 134 97 134 144 C134 164 136 180 143 205 L363 205 L423 23 L351 23 L351 0 L739 0 Z M356 228 L150 228 L253 539 L356 228 Z " />
<glyph glyph-name="Acircumflex" unicode="&#xc2;" horiz-adv-x="743" d="M566 758 C504 782 457 823 438 869 L329 869 C311 823 264 782 201 758 L210 728 C270 733 323 749 384 780 C445 749 498 733 557 728 L566 758 Z M739 0 L739 23 L704 23 L491 667 L274 667 L107 174 C69 80 35 30 3 23 L3 0 L250 0 L250 23 C217 24 200 28 182 39 C152 57 134 97 134 144 C134 164 136 180 143 205 L363 205 L423 23 L351 23 L351 0 L739 0 Z M356 228 L150 228 L253 539 L356 228 Z " />
<glyph glyph-name="Atilde" unicode="&#xc3;" horiz-adv-x="743" d="M571 839 L555 850 C540 835 528 829 514 829 C499 829 473 835 444 846 C408 859 380 865 355 865 C312 865 288 849 213 771 L231 756 C246 770 256 776 266 776 C277 776 298 770 322 759 C351 746 381 739 411 739 C443 739 476 750 504 769 C522 781 532 791 562 828 L571 839 Z M739 0 L739 23 L704 23 L491 667 L274 667 L107 174 C69 80 35 30 3 23 L3 0 L250 0 L250 23 C217 24 200 28 182 39 C152 57 134 97 134 144 C134 164 136 180 143 205 L363 205 L423 23 L351 23 L351 0 L739 0 Z M356 228 L150 228 L253 539 L356 228 Z " />
<glyph glyph-name="Adieresis" unicode="&#xc4;" horiz-adv-x="743" d="M500 886 C447 886 408 852 408 805 C408 757 448 724 505 724 C556 724 592 756 592 804 C592 853 555 886 500 886 L500 886 Z M242 887 C190 887 150 852 150 806 C150 760 190 725 244 725 C298 725 334 757 334 805 C334 854 297 887 242 887 L242 887 Z M739 0 L739 23 L704 23 L491 667 L274 667 L107 174 C69 80 35 30 3 23 L3 0 L250 0 L250 23 C217 24 200 28 182 39 C152 57 134 97 134 144 C134 164 136 180 143 205 L363 205 L423 23 L351 23 L351 0 L739 0 Z M356 228 L150 228 L253 539 L356 228 Z " />
<glyph glyph-name="Aring" unicode="&#xc5;" horiz-adv-x="743" d="M384 906 C309 906 254 866 254 811 C254 755 305 718 384 718 C462 718 514 755 514 810 C514 866 460 906 384 906 L384 906 Z M384 877 C443 877 486 849 486 811 C486 772 445 747 384 747 C322 747 282 772 282 811 C282 849 325 877 384 877 L384 877 Z M739 0 L739 23 L704 23 L491 667 L274 667 L107 174 C69 80 35 30 3 23 L3 0 L250 0 L250 23 C217 24 200 28 182 39 C152 57 134 97 134 144 C134 164 136 180 143 205 L363 205 L423 23 L351 23 L351 0 L739 0 Z M356 228 L150 228 L253 539 L356 228 Z " />
<glyph glyph-name="AE" unicode="&#xc6;" horiz-adv-x="1033" d="M977 0 L977 249 L957 249 C939 166 922 134 875 91 C818 44 789 33 693 23 L693 333 C777 335 825 280 824 180 L846 180 L846 511 L824 511 C820 401 784 358 693 355 L693 643 C835 647 913 587 935 457 L957 457 L957 667 L363 667 L363 644 L439 644 L131 170 C91 103 29 37 -6 23 L-6 0 L203 0 L203 23 C157 29 128 56 128 94 C128 113 138 136 162 173 L182 205 L435 205 L435 23 L360 23 L360 0 L977 0 Z M435 230 L198 230 L435 594 L435 230 Z " />
<glyph glyph-name="Ccedilla" unicode="&#xc7;" horiz-adv-x="665" d="M332 -19 C347 -20 354 -20 363 -20 C472 -20 544 18 621 117 L599 133 C538 50 472 10 398 10 C344 10 322 41 322 117 L322 557 C322 631 338 657 383 657 C456 657 534 599 573 517 C588 484 594 458 595 412 L617 412 L617 687 L521 631 C466 673 426 687 360 687 C164 687 29 543 29 334 C29 151 140 11 308 -16 L263 -83 L274 -94 C283 -88 289 -86 298 -86 C320 -86 334 -101 334 -124 C334 -154 312 -172 274 -172 C249 -172 230 -168 202 -158 L194 -175 C237 -193 267 -199 323 -199 C369 -199 395 -194 417 -181 C440 -169 453 -147 453 -123 C453 -82 416 -55 359 -55 C339 -55 324 -57 300 -65 L332 -19 Z " />
<glyph glyph-name="Egrave" unicode="&#xc8;" horiz-adv-x="709" d="M425 716 L389 856 L223 856 L223 829 L400 716 L425 716 Z M652 0 L652 246 L631 246 C614 116 507 25 368 23 L368 331 L387 331 C453 331 502 265 499 179 L519 179 L519 511 L499 511 C501 417 459 357 388 355 L368 355 L368 644 C505 652 597 581 610 457 L631 457 L631 667 L22 667 L22 644 L96 644 L96 23 L22 23 L22 0 L652 0 Z " />
<glyph glyph-name="Eacute" unicode="&#xc9;" horiz-adv-x="709" d="M310 716 L335 716 L512 829 L512 856 L346 856 L310 716 Z M652 0 L652 246 L631 246 C614 116 507 25 368 23 L368 331 L387 331 C453 331 502 265 499 179 L519 179 L519 511 L499 511 C501 417 459 357 388 355 L368 355 L368 644 C505 652 597 581 610 457 L631 457 L631 667 L22 667 L22 644 L96 644 L96 23 L22 23 L22 0 L652 0 Z " />
<glyph glyph-name="Ecircumflex" unicode="&#xca;" horiz-adv-x="709" d="M539 758 C476 782 429 823 411 869 L302 869 C284 823 237 782 174 758 L183 728 C242 733 296 749 356 780 C418 749 471 733 530 728 L539 758 Z M652 0 L652 246 L631 246 C614 116 507 25 368 23 L368 331 L387 331 C453 331 502 265 499 179 L519 179 L519 511 L499 511 C501 417 459 357 388 355 L368 355 L368 644 C505 652 597 581 610 457 L631 457 L631 667 L22 667 L22 644 L96 644 L96 23 L22 23 L22 0 L652 0 Z " />
<glyph glyph-name="Edieresis" unicode="&#xcb;" horiz-adv-x="709" d="M485 886 C430 886 391 853 391 804 C391 757 431 724 488 724 C539 724 575 757 575 804 C575 852 538 886 485 886 L485 886 Z M225 887 C173 887 133 852 133 806 C133 760 173 725 227 725 C281 725 317 757 317 806 C317 854 280 887 225 887 L225 887 Z M652 0 L652 246 L631 246 C614 116 507 25 368 23 L368 331 L387 331 C453 331 502 265 499 179 L519 179 L519 511 L499 511 C501 417 459 357 388 355 L368 355 L368 644 C505 652 597 581 610 457 L631 457 L631 667 L22 667 L22 644 L96 644 L96 23 L22 23 L22 0 L652 0 Z " />
<glyph glyph-name="Igrave" unicode="&#xcc;" horiz-adv-x="469" d="M446 0 L446 23 L372 23 L372 644 L446 644 L446 667 L22 667 L22 644 L96 644 L96 23 L22 23 L22 0 L446 0 Z M308 716 L272 856 L106 856 L106 829 L282 716 L308 716 Z " />
<glyph glyph-name="Iacute" unicode="&#xcd;" horiz-adv-x="469" d="M446 0 L446 23 L372 23 L372 644 L446 644 L446 667 L22 667 L22 644 L96 644 L96 23 L22 23 L22 0 L446 0 Z M182 716 L207 716 L384 829 L384 856 L218 856 L182 716 Z " />
<glyph glyph-name="Icircumflex" unicode="&#xce;" horiz-adv-x="469" d="M446 0 L446 23 L372 23 L372 644 L446 644 L446 667 L22 667 L22 644 L96 644 L96 23 L22 23 L22 0 L446 0 Z M421 758 C359 782 311 823 293 869 L184 869 C166 823 118 782 56 758 L65 728 C125 733 178 749 238 780 C300 749 353 733 412 728 L421 758 Z " />
<glyph glyph-name="Idieresis" unicode="&#xcf;" horiz-adv-x="469" d="M446 0 L446 23 L372 23 L372 644 L446 644 L446 667 L22 667 L22 644 L96 644 L96 23 L22 23 L22 0 L446 0 Z M338 886 C288 886 252 852 252 804 C252 757 289 724 342 724 C390 724 423 756 423 804 C423 853 389 886 338 886 L338 886 Z M130 887 C82 887 45 851 45 806 C45 759 82 725 133 725 C182 725 216 758 216 805 C216 854 181 887 130 887 L130 887 Z " />
<glyph glyph-name="Eth" unicode="&#xd0;" horiz-adv-x="820" d="M22 340 L96 340 L96 23 L22 23 L22 0 L520 0 C586 0 639 21 683 64 C751 132 792 236 792 338 C792 426 761 514 708 580 C658 641 596 667 499 667 L22 667 L22 644 L96 644 L96 363 L22 363 L22 340 Z M368 363 L368 644 L416 644 C478 644 487 632 487 549 L487 118 C488 45 470 23 406 23 L368 23 L368 340 L426 340 L426 363 L368 363 Z " />
<glyph glyph-name="Ntilde" unicode="&#xd1;" horiz-adv-x="780" d="M562 850 C546 835 534 829 521 829 C506 829 480 835 451 846 C415 859 386 865 361 865 C318 865 294 849 220 771 L237 756 C253 770 263 776 272 776 C284 776 304 770 328 759 C357 746 387 739 417 739 C449 739 482 750 511 769 C529 781 540 792 569 828 C572 832 575 835 577 839 L562 850 Z M668 0 L668 457 C667 571 707 645 768 644 L768 667 L514 667 L514 644 L536 644 C607 645 640 585 643 449 L643 295 L379 667 L13 667 L13 644 L72 644 L114 582 L114 192 C112 89 72 22 13 23 L13 0 L258 0 L258 23 C180 23 140 90 140 228 L140 545 L514 0 L668 0 Z " />
<glyph glyph-name="Ograve" unicode="&#xd2;" horiz-adv-x="764" d="M426 716 L391 856 L224 856 L224 829 L401 716 L426 716 Z M383 687 C166 687 28 552 28 340 C28 229 56 149 120 83 C186 15 274 -20 383 -20 C528 -20 621 30 687 144 C719 200 736 264 736 333 C736 553 602 687 383 687 L383 687 Z M331 601 C331 644 348 666 382 666 C416 666 433 644 433 601 L433 68 C433 21 417 1 382 1 C347 1 331 21 331 68 L331 601 Z " />
<glyph glyph-name="Oacute" unicode="&#xd3;" horiz-adv-x="764" d="M357 716 L383 716 L559 829 L559 856 L393 856 L357 716 Z M383 687 C166 687 28 552 28 340 C28 229 56 149 120 83 C186 15 274 -20 383 -20 C528 -20 621 30 687 144 C719 200 736 264 736 333 C736 553 602 687 383 687 L383 687 Z M331 601 C331 644 348 666 382 666 C416 666 433 644 433 601 L433 68 C433 21 417 1 382 1 C347 1 331 21 331 68 L331 601 Z " />
<glyph glyph-name="Ocircumflex" unicode="&#xd4;" horiz-adv-x="764" d="M565 758 C503 782 456 823 437 869 L328 869 C310 823 263 782 200 758 L209 728 C269 733 322 749 382 780 C444 749 497 733 556 728 L565 758 Z M383 687 C166 687 28 552 28 340 C28 229 56 149 120 83 C186 15 274 -20 383 -20 C528 -20 621 30 687 144 C719 200 736 264 736 333 C736 553 602 687 383 687 L383 687 Z M331 601 C331 644 348 666 382 666 C416 666 433 644 433 601 L433 68 C433 21 417 1 382 1 C347 1 331 21 331 68 L331 601 Z " />
<glyph glyph-name="Otilde" unicode="&#xd5;" horiz-adv-x="764" d="M561 839 L546 850 C530 835 518 829 505 829 C490 829 463 835 435 846 C398 859 370 865 345 865 C302 865 278 849 204 771 L221 756 C236 770 246 776 256 776 C268 776 288 770 312 759 C341 746 371 739 401 739 C433 739 466 750 494 769 C513 781 524 793 553 828 L561 839 Z M383 687 C166 687 28 552 28 340 C28 229 56 149 120 83 C186 15 274 -20 383 -20 C528 -20 621 30 687 144 C719 200 736 264 736 333 C736 553 602 687 383 687 L383 687 Z M331 601 C331 644 348 666 382 666 C416 666 433 644 433 601 L433 68 C433 21 417 1 382 1 C347 1 331 21 331 68 L331 601 Z " />
<glyph glyph-name="Odieresis" unicode="&#xd6;" horiz-adv-x="764" d="M512 886 C458 886 420 852 420 805 C420 757 460 724 516 724 C568 724 603 756 603 804 C603 853 567 886 512 886 L512 886 Z M253 887 C202 887 162 852 162 806 C162 760 202 725 255 725 C309 725 345 757 345 805 C345 854 308 887 253 887 L253 887 Z M383 687 C166 687 28 552 28 340 C28 229 56 149 120 83 C186 15 274 -20 383 -20 C528 -20 621 30 687 144 C719 200 736 264 736 333 C736 553 602 687 383 687 L383 687 Z M331 601 C331 644 348 666 382 666 C416 666 433 644 433 601 L433 68 C433 21 417 1 382 1 C347 1 331 21 331 68 L331 601 Z " />
<glyph glyph-name="multiply" unicode="&#xd7;" horiz-adv-x="633" d="M469 524 L316 364 L156 533 L128 503 L288 334 L137 175 L165 145 L317 304 L477 136 L505 165 L345 334 L497 494 L469 524 Z " />
<glyph glyph-name="Oslash" unicode="&#xd8;" horiz-adv-x="764" d="M49 58 L104 101 C173 19 263 -20 383 -20 C527 -20 621 31 687 144 C720 200 736 264 736 335 C736 414 716 488 678 548 L729 587 L715 608 L664 568 C602 645 505 687 385 687 C165 687 28 552 28 337 C28 249 48 180 89 121 L34 79 L49 58 Z M433 396 L332 303 L332 601 C332 644 349 666 382 666 C416 666 433 644 433 601 L433 396 Z M332 271 L433 364 L433 68 C433 21 418 1 382 1 C347 1 332 21 332 68 L332 271 Z " />
<glyph glyph-name="Ugrave" unicode="&#xd9;" horiz-adv-x="731" d="M462 716 L427 856 L260 856 L260 829 L437 716 L462 716 Z M719 667 L478 667 L478 644 C559 646 594 584 594 437 L594 180 C594 132 582 96 556 71 C524 38 477 18 432 18 C413 18 395 24 384 33 C371 44 365 67 365 110 L365 644 L432 644 L432 667 L19 667 L19 644 L93 644 L93 176 C93 100 111 67 170 32 C227 0 311 -20 395 -20 C530 -20 619 56 619 170 L619 467 C620 575 658 644 719 644 L719 667 Z " />
<glyph glyph-name="Uacute" unicode="&#xda;" horiz-adv-x="731" d="M362 716 L387 716 L564 829 L564 856 L398 856 L362 716 Z M719 667 L478 667 L478 644 C559 646 594 584 594 437 L594 180 C594 132 582 96 556 71 C524 38 477 18 432 18 C413 18 395 24 384 33 C371 44 365 67 365 110 L365 644 L432 644 L432 667 L19 667 L19 644 L93 644 L93 176 C93 100 111 67 170 32 C227 0 311 -20 395 -20 C530 -20 619 56 619 170 L619 467 C620 575 658 644 719 644 L719 667 Z " />
<glyph glyph-name="Ucircumflex" unicode="&#xdb;" horiz-adv-x="731" d="M578 758 C515 782 469 822 450 869 L341 869 C322 823 275 782 213 758 L222 728 C281 733 335 749 395 780 C456 749 509 733 569 728 L578 758 Z M719 667 L478 667 L478 644 C559 646 594 584 594 437 L594 180 C594 132 582 96 556 71 C524 38 477 18 432 18 C413 18 395 24 384 33 C371 44 365 67 365 110 L365 644 L432 644 L432 667 L19 667 L19 644 L93 644 L93 176 C93 100 111 67 170 32 C227 0 311 -20 395 -20 C530 -20 619 56 619 170 L619 467 C620 575 658 644 719 644 L719 667 Z " />
<glyph glyph-name="Udieresis" unicode="&#xdc;" horiz-adv-x="731" d="M525 886 C471 886 432 852 432 805 C432 757 472 724 529 724 C580 724 616 756 616 804 C616 853 579 886 525 886 L525 886 Z M266 887 C215 887 175 852 175 806 C175 760 215 725 268 725 C322 725 358 757 358 805 C358 854 321 887 266 887 L266 887 Z M719 667 L478 667 L478 644 C559 646 594 584 594 437 L594 180 C594 132 582 96 556 71 C524 38 477 18 432 18 C413 18 395 24 384 33 C371 44 365 67 365 110 L365 644 L432 644 L432 667 L19 667 L19 644 L93 644 L93 176 C93 100 111 67 170 32 C227 0 311 -20 395 -20 C530 -20 619 56 619 170 L619 467 C620 575 658 644 719 644 L719 667 Z " />
<glyph glyph-name="Yacute" unicode="&#xdd;" horiz-adv-x="726" d="M382 716 L407 716 L584 829 L584 856 L418 856 L382 716 Z M725 667 L510 667 L510 644 C538 643 549 640 561 633 C577 624 591 597 591 574 C591 550 582 519 566 489 L497 358 L350 644 L418 644 L418 667 L0 667 L0 644 L40 644 L238 260 L238 23 L159 23 L159 0 L595 0 L595 23 L510 23 L510 328 L601 500 C645 582 683 625 725 644 L725 667 Z " />
<glyph glyph-name="Thorn" unicode="&#xde;" horiz-adv-x="771" d="M444 0 L444 23 L368 23 L368 182 L480 182 C565 182 622 192 660 214 C713 245 746 312 746 391 C746 462 714 531 670 557 C641 573 613 578 540 580 L368 580 L368 644 L444 644 L444 667 L22 667 L22 644 L96 644 L96 23 L22 23 L22 0 L444 0 Z M368 206 L368 557 L403 557 C459 556 465 546 469 455 L469 280 C469 230 447 205 404 205 L400 205 L376 206 L368 206 Z " />
<glyph glyph-name="germandbls" unicode="&#xdf;" horiz-adv-x="651" d="M315 0 C355 -7 381 -10 412 -10 C540 -10 632 78 632 200 C632 261 607 315 565 345 C529 371 495 381 419 385 C482 392 510 401 536 422 C565 445 583 485 583 528 C583 627 501 684 360 684 C229 684 140 648 101 580 C75 535 69 502 69 397 L69 20 L6 20 L6 0 L284 0 L284 598 C284 645 299 666 333 666 C364 666 377 649 377 608 L377 471 C375 404 366 393 315 391 L315 371 C366 372 376 360 377 300 L377 88 C375 40 364 27 315 17 L315 0 Z " />
<glyph glyph-name="agrave" unicode="&#xe0;" horiz-adv-x="586" d="M393 483 L359 623 L201 623 L201 596 L362 483 L393 483 Z M559 88 C536 53 536 53 530 53 C525 53 523 61 523 78 L523 267 C523 312 519 329 504 350 C472 394 384 420 265 420 C142 420 79 386 79 319 C79 272 112 240 160 240 C207 240 237 271 237 319 C237 357 221 379 186 390 C201 395 209 397 225 397 C263 397 290 386 302 365 C308 354 310 342 310 313 L310 213 C274 226 242 231 200 231 C152 231 118 224 87 207 C49 186 25 147 25 107 C25 38 92 -13 183 -13 C232 -13 266 -2 315 31 C348 -2 376 -13 422 -13 C494 -13 549 20 577 78 L559 88 Z M310 48 C284 32 271 27 258 27 C239 27 229 41 229 68 L229 161 C229 191 239 204 261 204 C276 204 289 201 310 192 L310 48 Z " />
<glyph glyph-name="aacute" unicode="&#xe1;" horiz-adv-x="586" d="M271 483 L302 483 L463 596 L463 623 L305 623 L271 483 Z M559 88 C536 53 536 53 530 53 C525 53 523 61 523 78 L523 267 C523 312 519 329 504 350 C472 394 384 420 265 420 C142 420 79 386 79 319 C79 272 112 240 160 240 C207 240 237 271 237 319 C237 357 221 379 186 390 C201 395 209 397 225 397 C263 397 290 386 302 365 C308 354 310 342 310 313 L310 213 C274 226 242 231 200 231 C152 231 118 224 87 207 C49 186 25 147 25 107 C25 38 92 -13 183 -13 C232 -13 266 -2 315 31 C348 -2 376 -13 422 -13 C494 -13 549 20 577 78 L559 88 Z M310 48 C284 32 271 27 258 27 C239 27 229 41 229 68 L229 161 C229 191 239 204 261 204 C276 204 289 201 310 192 L310 48 Z " />
<glyph glyph-name="acircumflex" unicode="&#xe2;" horiz-adv-x="586" d="M477 525 C418 549 373 590 356 636 L252 636 C234 589 190 549 130 525 L138 495 C195 500 245 516 304 547 C361 516 412 500 469 495 L477 525 Z M559 88 C536 53 536 53 530 53 C525 53 523 61 523 78 L523 267 C523 312 519 329 504 350 C472 394 384 420 265 420 C142 420 79 386 79 319 C79 272 112 240 160 240 C207 240 237 271 237 319 C237 357 221 379 186 390 C201 395 209 397 225 397 C263 397 290 386 302 365 C308 354 310 342 310 313 L310 213 C274 226 242 231 200 231 C152 231 118 224 87 207 C49 186 25 147 25 107 C25 38 92 -13 183 -13 C232 -13 266 -2 315 31 C348 -2 376 -13 422 -13 C494 -13 549 20 577 78 L559 88 Z M310 48 C284 32 271 27 258 27 C239 27 229 41 229 68 L229 161 C229 191 239 204 261 204 C276 204 289 201 310 192 L310 48 Z " />
<glyph glyph-name="atilde" unicode="&#xe3;" horiz-adv-x="586" d="M480 606 L465 617 C451 601 439 595 426 595 C412 595 387 601 360 612 C326 626 298 632 274 632 C233 632 210 616 140 538 L156 523 C171 537 180 543 190 543 C201 543 220 536 243 525 C270 512 299 505 328 505 C358 505 389 515 416 535 C434 547 445 560 472 595 L480 606 Z M559 88 C536 53 536 53 530 53 C525 53 523 61 523 78 L523 267 C523 312 519 329 504 350 C472 394 384 420 265 420 C142 420 79 386 79 319 C79 272 112 240 160 240 C207 240 237 271 237 319 C237 357 221 379 186 390 C201 395 209 397 225 397 C263 397 290 386 302 365 C308 354 310 342 310 313 L310 213 C274 226 242 231 200 231 C152 231 118 224 87 207 C49 186 25 147 25 107 C25 38 92 -13 183 -13 C232 -13 266 -2 315 31 C348 -2 376 -13 422 -13 C494 -13 549 20 577 78 L559 88 Z M310 48 C284 32 271 27 258 27 C239 27 229 41 229 68 L229 161 C229 191 239 204 261 204 C276 204 289 201 310 192 L310 48 Z " />
<glyph glyph-name="adieresis" unicode="&#xe4;" horiz-adv-x="586" d="M414 646 C360 646 321 612 321 565 C321 517 361 484 418 484 C470 484 505 516 505 564 C505 613 468 646 414 646 L414 646 Z M186 647 C135 647 95 612 95 566 C95 520 135 486 188 486 C242 486 278 518 278 566 C278 614 241 647 186 647 L186 647 Z M559 88 C536 53 536 53 530 53 C525 53 523 61 523 78 L523 267 C523 312 519 329 504 350 C472 394 384 420 265 420 C142 420 79 386 79 319 C79 272 112 240 160 240 C207 240 237 271 237 319 C237 357 221 379 186 390 C201 395 209 397 225 397 C263 397 290 386 302 365 C308 354 310 342 310 313 L310 213 C274 226 242 231 200 231 C152 231 118 224 87 207 C49 186 25 147 25 107 C25 38 92 -13 183 -13 C232 -13 266 -2 315 31 C348 -2 376 -13 422 -13 C494 -13 549 20 577 78 L559 88 Z M310 48 C284 32 271 27 258 27 C239 27 229 41 229 68 L229 161 C229 191 239 204 261 204 C276 204 289 201 310 192 L310 48 Z " />
<glyph glyph-name="aring" unicode="&#xe5;" horiz-adv-x="586" d="M310 672 C247 672 196 632 196 581 C196 531 246 490 308 490 C370 490 420 531 420 581 C420 631 370 672 310 672 L310 672 Z M309 645 C353 645 391 616 391 581 C391 546 354 517 307 517 C261 517 224 546 224 581 C224 617 261 645 309 645 L309 645 Z M559 88 C536 53 536 53 530 53 C525 53 523 61 523 78 L523 267 C523 312 519 329 504 350 C472 394 384 420 265 420 C142 420 79 386 79 319 C79 272 112 240 160 240 C207 240 237 271 237 319 C237 357 221 379 186 390 C201 395 209 397 225 397 C263 397 290 386 302 365 C308 354 310 342 310 313 L310 213 C274 226 242 231 200 231 C152 231 118 224 87 207 C49 186 25 147 25 107 C25 38 92 -13 183 -13 C232 -13 266 -2 315 31 C348 -2 376 -13 422 -13 C494 -13 549 20 577 78 L559 88 Z M310 48 C284 32 271 27 258 27 C239 27 229 41 229 68 L229 161 C229 191 239 204 261 204 C276 204 289 201 310 192 L310 48 Z " />
<glyph glyph-name="ae" unicode="&#xe6;" horiz-adv-x="789" d="M747 130 C703 66 629 18 574 18 C555 18 537 28 528 45 C520 59 518 68 518 101 L518 207 L770 207 C746 340 661 420 544 420 C506 420 476 414 432 398 C375 413 318 420 258 420 C142 420 78 384 78 319 C78 273 109 240 154 240 C199 240 230 272 230 320 C230 356 217 376 183 391 C199 396 208 398 223 398 C261 398 288 387 298 368 C306 353 308 338 308 298 L308 214 C264 225 232 229 196 229 C91 229 25 182 25 107 C25 37 90 -13 181 -13 C221 -13 261 -1 288 18 C302 28 312 37 336 61 C385 11 447 -13 528 -13 C610 -13 655 4 713 56 C736 76 747 89 762 112 L747 130 Z M608 227 L518 227 L518 337 C518 381 531 399 564 399 C595 399 608 381 608 339 L608 227 Z M227 157 C227 190 236 204 258 204 C273 204 285 201 308 191 L308 142 C309 108 312 94 324 78 C293 40 275 27 255 27 C235 27 227 42 227 78 L227 157 Z " />
<glyph glyph-name="ccedilla" unicode="&#xe7;" horiz-adv-x="475" d="M249 -13 L262 -13 L266 -13 C350 -13 407 17 450 85 L432 95 C396 43 350 15 302 15 C261 15 248 34 248 95 L248 338 C248 386 260 399 304 399 C336 399 360 391 379 374 C367 377 361 378 355 378 C318 378 289 344 289 300 C289 256 321 224 367 224 C412 224 443 256 443 304 C443 375 380 420 281 420 C129 420 19 327 19 198 C19 83 100 1 226 -12 L180 -83 L191 -94 C200 -88 205 -86 214 -86 C234 -86 248 -102 248 -124 C248 -154 226 -172 190 -172 C167 -172 148 -168 122 -158 L114 -175 C155 -193 184 -199 237 -199 C319 -199 361 -173 361 -123 C361 -82 326 -55 272 -55 C252 -55 239 -57 216 -65 L249 -13 Z " />
<glyph glyph-name="egrave" unicode="&#xe8;" horiz-adv-x="516" d="M327 483 L292 623 L134 623 L134 596 L295 483 L327 483 Z M474 131 C430 68 356 20 302 20 C282 20 266 29 257 47 C249 62 246 80 246 121 L246 209 L497 209 C480 334 390 420 275 420 C129 420 19 325 19 198 C19 77 126 -13 270 -13 C355 -13 432 32 489 114 L474 131 Z M334 230 L246 230 L246 348 C246 384 261 401 291 401 C321 401 334 385 334 347 L334 230 Z " />
<glyph glyph-name="eacute" unicode="&#xe9;" horiz-adv-x="516" d="M240 483 L272 483 L432 596 L432 623 L274 623 L240 483 Z M474 131 C430 68 356 20 302 20 C282 20 266 29 257 47 C249 62 246 80 246 121 L246 209 L497 209 C480 334 390 420 275 420 C129 420 19 325 19 198 C19 77 126 -13 270 -13 C355 -13 432 32 489 114 L474 131 Z M334 230 L246 230 L246 348 C246 384 261 401 291 401 C321 401 334 385 334 347 L334 230 Z " />
<glyph glyph-name="ecircumflex" unicode="&#xea;" horiz-adv-x="516" d="M438 525 C378 549 334 590 316 636 L212 636 C194 589 150 549 91 525 L99 495 C155 500 206 516 264 547 C322 516 373 500 430 495 L438 525 Z M474 131 C430 68 356 20 302 20 C282 20 266 29 257 47 C249 62 246 80 246 121 L246 209 L497 209 C480 334 390 420 275 420 C129 420 19 325 19 198 C19 77 126 -13 270 -13 C355 -13 432 32 489 114 L474 131 Z M334 230 L246 230 L246 348 C246 384 261 401 291 401 C321 401 334 385 334 347 L334 230 Z " />
<glyph glyph-name="edieresis" unicode="&#xeb;" horiz-adv-x="516" d="M385 646 C331 646 293 612 293 565 C293 517 333 484 389 484 C441 484 476 516 476 564 C476 613 440 646 385 646 L385 646 Z M157 647 C106 647 66 612 66 566 C66 520 106 486 159 486 C213 486 249 518 249 566 C249 614 212 647 157 647 L157 647 Z M474 131 C430 68 356 20 302 20 C282 20 266 29 257 47 C249 62 246 80 246 121 L246 209 L497 209 C480 334 390 420 275 420 C129 420 19 325 19 198 C19 77 126 -13 270 -13 C355 -13 432 32 489 114 L474 131 Z M334 230 L246 230 L246 348 C246 384 261 401 291 401 C321 401 334 385 334 347 L334 230 Z " />
<glyph glyph-name="igrave" unicode="&#xec;" horiz-adv-x="355" d="M347 0 L347 20 L284 20 L284 426 C246 417 209 413 165 413 L6 413 L6 393 L69 393 L69 20 L6 20 L6 0 L347 0 Z M258 483 L224 623 L66 623 L66 596 L227 483 L258 483 Z " />
<glyph glyph-name="iacute" unicode="&#xed;" horiz-adv-x="355" d="M347 0 L347 20 L284 20 L284 426 C246 417 209 413 165 413 L6 413 L6 393 L69 393 L69 20 L6 20 L6 0 L347 0 Z M163 483 L195 483 L356 596 L356 623 L197 623 L163 483 Z " />
<glyph glyph-name="icircumflex" unicode="&#xee;" horiz-adv-x="355" d="M348 0 L348 20 L285 20 L285 426 C247 417 210 413 166 413 L7 413 L7 393 L70 393 L70 20 L7 20 L7 0 L348 0 Z M352 525 C292 549 247 590 230 636 L126 636 C108 590 64 549 4 525 L13 495 C69 500 120 516 178 547 C236 516 286 500 343 495 L352 525 Z " />
<glyph glyph-name="idieresis" unicode="&#xef;" horiz-adv-x="355" d="M348 0 L348 20 L285 20 L285 426 C247 417 210 413 166 413 L7 413 L7 393 L70 393 L70 20 L7 20 L7 0 L348 0 Z M273 646 C226 646 192 612 192 565 C192 518 227 484 275 484 C321 484 351 516 351 564 C351 613 320 646 273 646 L273 646 Z M85 647 C39 647 5 612 5 566 C5 520 40 486 87 486 C133 486 164 519 164 566 C164 614 132 647 85 647 L85 647 Z " />
<glyph glyph-name="eth" unicode="&#xf0;" horiz-adv-x="582" d="M170 504 L179 490 L265 551 L269 543 C289 502 301 476 305 466 C311 449 315 436 320 418 C309 420 305 420 294 420 C127 420 19 333 19 197 C19 123 52 67 117 29 C165 2 226 -13 292 -13 C376 -13 458 12 502 52 C541 87 564 138 564 189 C564 273 524 371 455 456 C419 500 379 540 319 593 L404 655 L394 670 L304 606 C288 621 272 634 266 638 C251 649 237 659 222 669 L214 675 L198 663 C210 647 218 635 232 610 C248 582 249 580 256 569 L170 504 Z M335 70 C335 26 322 8 289 8 C257 8 246 23 246 70 L246 335 C246 385 258 402 292 402 C324 402 335 386 335 338 L335 70 Z " />
<glyph glyph-name="ntilde" unicode="&#xf1;" horiz-adv-x="652" d="M502 606 L487 617 C473 602 461 595 448 595 C434 595 409 601 381 612 C348 626 320 632 296 632 C255 632 232 616 162 538 L178 523 C193 537 202 543 211 543 C222 543 242 536 265 525 C292 512 321 505 350 505 C380 505 411 515 438 535 C456 547 466 558 494 595 L502 606 Z M645 0 L645 20 L582 20 L582 287 C582 321 577 344 567 361 C545 398 500 420 446 420 C390 420 337 400 284 359 L284 426 C243 417 211 413 188 413 L6 413 L6 393 L69 393 L69 20 L6 20 L6 0 L317 0 L317 20 L284 20 L284 334 C306 355 322 363 336 363 C356 363 367 345 367 311 L367 20 L334 20 L334 0 L645 0 Z " />
<glyph glyph-name="ograve" unicode="&#xf2;" horiz-adv-x="581" d="M353 483 L319 623 L161 623 L161 596 L321 483 L353 483 Z M288 420 C128 420 19 330 19 198 C19 123 51 67 118 29 C165 2 226 -13 292 -13 C374 -13 457 13 502 51 C541 86 563 138 563 194 C563 333 458 420 288 420 L288 420 Z M335 70 C335 26 322 8 290 8 C258 8 247 24 247 70 L247 335 C247 385 259 402 292 402 C324 402 335 386 335 338 L335 70 Z " />
<glyph glyph-name="oacute" unicode="&#xf3;" horiz-adv-x="581" d="M271 483 L302 483 L463 596 L463 623 L305 623 L271 483 Z M288 420 C128 420 19 330 19 198 C19 123 51 67 118 29 C165 2 226 -13 292 -13 C374 -13 457 13 502 51 C541 86 563 138 563 194 C563 333 458 420 288 420 L288 420 Z M335 70 C335 26 322 8 290 8 C258 8 247 24 247 70 L247 335 C247 385 259 402 292 402 C324 402 335 386 335 338 L335 70 Z " />
<glyph glyph-name="ocircumflex" unicode="&#xf4;" horiz-adv-x="581" d="M469 525 C409 549 365 589 347 636 L243 636 C226 590 181 549 121 525 L130 495 C187 500 237 516 295 547 C353 516 404 500 460 495 L469 525 Z M288 420 C128 420 19 330 19 198 C19 123 51 67 118 29 C165 2 226 -13 292 -13 C374 -13 457 13 502 51 C541 86 563 138 563 194 C563 333 458 420 288 420 L288 420 Z M335 70 C335 26 322 8 290 8 C258 8 247 24 247 70 L247 335 C247 385 259 402 292 402 C324 402 335 386 335 338 L335 70 Z " />
<glyph glyph-name="otilde" unicode="&#xf5;" horiz-adv-x="581" d="M451 617 C435 601 424 595 411 595 C397 595 372 601 345 612 C311 626 283 632 259 632 C219 632 194 615 125 538 L142 523 C156 537 166 543 175 543 C186 543 205 536 228 525 C255 512 284 505 313 505 C343 505 374 515 401 535 C419 547 429 558 457 595 C460 599 463 602 465 606 L451 617 Z M288 420 C128 420 19 330 19 198 C19 123 51 67 118 29 C165 2 226 -13 292 -13 C374 -13 457 13 502 51 C541 86 563 138 563 194 C563 333 458 420 288 420 L288 420 Z M335 70 C335 26 322 8 290 8 C258 8 247 24 247 70 L247 335 C247 385 259 402 292 402 C324 402 335 386 335 338 L335 70 Z " />
<glyph glyph-name="odieresis" unicode="&#xf6;" horiz-adv-x="581" d="M414 646 C360 646 321 612 321 565 C321 517 361 484 418 484 C469 484 505 517 505 564 C505 613 468 646 414 646 L414 646 Z M186 647 C134 647 94 612 94 566 C94 520 134 486 188 486 C242 486 278 518 278 566 C278 614 241 647 186 647 L186 647 Z M288 420 C128 420 19 330 19 198 C19 123 51 67 118 29 C165 2 226 -13 292 -13 C374 -13 457 13 502 51 C541 86 563 138 563 194 C563 333 458 420 288 420 L288 420 Z M335 70 C335 26 322 8 290 8 C258 8 247 24 247 70 L247 335 C247 385 259 402 292 402 C324 402 335 386 335 338 L335 70 Z " />
<glyph glyph-name="divide" unicode="&#xf7;" horiz-adv-x="633" d="M539 356 L95 356 L95 313 L539 313 L539 356 Z M317 214 C267 214 226 181 226 142 C226 100 268 67 319 67 C370 67 408 97 408 137 C408 181 369 214 317 214 L317 214 Z M317 609 C267 609 226 577 226 537 C226 496 268 463 319 463 C370 463 408 492 408 532 C408 576 369 609 317 609 L317 609 Z " />
<glyph glyph-name="oslash" unicode="&#xf8;" horiz-adv-x="581" d="M38 14 L49 -1 L101 39 C150 5 218 -13 293 -13 C374 -13 457 13 501 51 C541 86 563 137 563 196 C563 256 541 310 502 348 L553 387 L541 403 L486 361 C439 398 365 420 289 420 C127 420 19 331 19 197 C19 136 41 87 85 51 L38 14 Z M247 176 L247 335 C247 385 259 402 292 402 C324 402 335 386 335 338 L335 244 L247 176 Z M335 219 L335 70 C335 26 322 8 290 8 C258 8 247 24 247 70 L247 151 L335 219 Z " />
<glyph glyph-name="ugrave" unicode="&#xf9;" horiz-adv-x="635" d="M406 483 L372 623 L214 623 L214 596 L375 483 L406 483 Z M350 0 L628 0 L628 20 L565 20 L565 426 C531 417 499 413 460 413 L295 413 L295 393 L350 393 L350 80 C332 62 313 52 298 52 C279 52 272 68 272 108 L272 426 C234 417 199 413 165 413 L6 413 L6 393 L57 393 L57 102 C57 68 65 40 81 23 C101 1 142 -13 184 -13 C242 -13 293 7 350 53 L350 0 Z " />
<glyph glyph-name="uacute" unicode="&#xfa;" horiz-adv-x="635" d="M301 483 L332 483 L493 596 L493 623 L335 623 L301 483 Z M350 0 L628 0 L628 20 L565 20 L565 426 C531 417 499 413 460 413 L295 413 L295 393 L350 393 L350 80 C332 62 313 52 298 52 C279 52 272 68 272 108 L272 426 C234 417 199 413 165 413 L6 413 L6 393 L57 393 L57 102 C57 68 65 40 81 23 C101 1 142 -13 184 -13 C242 -13 293 7 350 53 L350 0 Z " />
<glyph glyph-name="ucircumflex" unicode="&#xfb;" horiz-adv-x="635" d="M495 525 C435 549 390 590 373 636 L269 636 C251 589 207 549 147 525 L156 495 C212 500 263 516 321 547 C379 516 429 500 486 495 L495 525 Z M350 0 L628 0 L628 20 L565 20 L565 426 C531 417 499 413 460 413 L295 413 L295 393 L350 393 L350 80 C332 62 313 52 298 52 C279 52 272 68 272 108 L272 426 C234 417 199 413 165 413 L6 413 L6 393 L57 393 L57 102 C57 68 65 40 81 23 C101 1 142 -13 184 -13 C242 -13 293 7 350 53 L350 0 Z " />
<glyph glyph-name="udieresis" unicode="&#xfc;" horiz-adv-x="635" d="M438 646 C383 646 345 612 345 565 C345 517 385 484 441 484 C493 484 529 517 529 564 C529 613 492 646 438 646 L438 646 Z M209 647 C157 647 118 612 118 566 C118 520 158 486 212 486 C265 486 302 518 302 566 C302 614 264 647 209 647 L209 647 Z M350 0 L628 0 L628 20 L565 20 L565 426 C531 417 499 413 460 413 L295 413 L295 393 L350 393 L350 80 C332 62 313 52 298 52 C279 52 272 68 272 108 L272 426 C234 417 199 413 165 413 L6 413 L6 393 L57 393 L57 102 C57 68 65 40 81 23 C101 1 142 -13 184 -13 C242 -13 293 7 350 53 L350 0 Z " />
<glyph glyph-name="yacute" unicode="&#xfd;" horiz-adv-x="490" d="M239 483 L271 483 L432 596 L432 623 L273 623 L239 483 Z M493 413 L330 413 L330 393 C372 388 390 373 390 343 C390 328 385 308 375 290 L353 244 L273 393 L313 393 L313 413 L0 413 L0 393 L25 393 L236 4 L178 -115 C168 -65 133 -34 86 -34 C35 -34 -4 -77 -4 -133 C-4 -188 34 -228 87 -228 C132 -228 164 -201 195 -137 L409 308 C436 366 456 386 493 393 L493 413 Z " />
<glyph glyph-name="thorn" unicode="&#xfe;" horiz-adv-x="612" d="M284 44 C306 29 319 20 323 18 C350 1 385 -9 415 -9 C516 -9 593 85 593 208 C593 329 518 420 417 420 C378 420 347 410 284 376 L284 680 C241 671 202 667 166 667 L6 667 L6 647 L69 647 L69 -207 L6 -207 L6 -227 L348 -227 L348 -207 L284 -207 L284 44 Z M284 352 C302 368 321 377 338 377 C358 377 369 359 369 324 L369 101 C369 59 360 43 337 43 C320 43 305 50 284 69 L284 352 Z " />
<glyph glyph-name="ydieresis" unicode="&#xff;" horiz-adv-x="490" d="M384 646 C329 646 290 613 290 565 C290 517 330 484 387 484 C438 484 474 517 474 564 C474 612 437 646 384 646 L384 646 Z M155 647 C103 647 63 612 63 566 C63 520 103 486 157 486 C211 486 247 518 247 566 C247 614 210 647 155 647 L155 647 Z M493 413 L330 413 L330 393 C372 388 390 373 390 343 C390 328 385 308 375 290 L353 244 L273 393 L313 393 L313 413 L0 413 L0 393 L25 393 L236 4 L178 -115 C168 -65 133 -34 86 -34 C35 -34 -4 -77 -4 -133 C-4 -188 34 -228 87 -228 C132 -228 164 -201 195 -137 L409 308 C436 366 456 386 493 393 L493 413 Z " />
<glyph glyph-name="Amacron" unicode="&#x100;" horiz-adv-x="743" d="M739 0 L739 23 L704 23 L491 667 L274 667 L107 174 C69 80 35 30 3 23 L3 0 L250 0 L250 23 C217 24 200 28 182 39 C152 57 134 97 134 144 C134 164 136 180 143 205 L363 205 L423 23 L351 23 L351 0 L739 0 Z M356 228 L150 228 L253 539 L356 228 Z M546 828 L209 828 L209 756 L546 756 L546 828 Z " />
<glyph glyph-name="amacron" unicode="&#x101;" horiz-adv-x="586" d="M559 88 C536 53 536 53 530 53 C525 53 523 61 523 78 L523 267 C523 312 519 329 504 350 C472 394 384 420 265 420 C142 420 79 386 79 319 C79 272 112 240 160 240 C207 240 237 271 237 319 C237 357 221 379 186 390 C201 395 209 397 225 397 C263 397 290 386 302 365 C308 354 310 342 310 313 L310 213 C274 226 242 231 200 231 C152 231 118 224 87 207 C49 186 25 147 25 107 C25 38 92 -13 183 -13 C232 -13 266 -2 315 31 C348 -2 376 -13 422 -13 C494 -13 549 20 577 78 L559 88 Z M310 48 C284 32 271 27 258 27 C239 27 229 41 229 68 L229 161 C229 191 239 204 261 204 C276 204 289 201 310 192 L310 48 Z M452 602 L150 602 L150 530 L452 530 L452 602 Z " />
<glyph glyph-name="Abreve" unicode="&#x102;" horiz-adv-x="743" d="M739 0 L739 23 L704 23 L491 667 L274 667 L107 174 C69 80 35 30 3 23 L3 0 L250 0 L250 23 C217 24 200 28 182 39 C152 57 134 97 134 144 C134 164 136 180 143 205 L363 205 L423 23 L351 23 L351 0 L739 0 Z M356 228 L150 228 L253 539 L356 228 Z M515 878 C512 863 508 857 500 851 C482 837 438 830 376 830 C319 830 276 840 261 857 C257 862 255 867 252 878 L231 878 C239 776 277 742 384 742 C490 742 528 776 537 878 L515 878 Z " />
<glyph glyph-name="abreve" unicode="&#x103;" horiz-adv-x="586" d="M559 88 C536 53 536 53 530 53 C525 53 523 61 523 78 L523 267 C523 312 519 329 504 350 C472 394 384 420 265 420 C142 420 79 386 79 319 C79 272 112 240 160 240 C207 240 237 271 237 319 C237 357 221 379 186 390 C201 395 209 397 225 397 C263 397 290 386 302 365 C308 354 310 342 310 313 L310 213 C274 226 242 231 200 231 C152 231 118 224 87 207 C49 186 25 147 25 107 C25 38 92 -13 183 -13 C232 -13 266 -2 315 31 C348 -2 376 -13 422 -13 C494 -13 549 20 577 78 L559 88 Z M310 48 C284 32 271 27 258 27 C239 27 229 41 229 68 L229 161 C229 191 239 204 261 204 C276 204 289 201 310 192 L310 48 Z M439 638 C436 627 434 621 429 616 C416 600 372 590 314 590 C255 590 211 600 198 616 C193 621 191 627 188 638 L168 638 C176 536 212 502 314 502 C415 502 452 537 459 638 L439 638 Z " />
<glyph glyph-name="Aogonek" unicode="&#x104;" horiz-adv-x="743" d="M739 0 L739 23 L704 23 L491 667 L274 667 L107 174 C69 80 35 30 3 23 L3 0 L250 0 L250 23 C217 24 200 28 182 39 C152 57 134 97 134 144 C134 164 136 180 143 205 L363 205 L423 23 L351 23 L351 0 L671 0 C571 -25 522 -60 522 -106 C522 -149 568 -180 631 -180 C660 -180 673 -177 716 -163 L716 -146 C651 -145 620 -127 620 -90 C620 -54 641 -33 708 0 L739 0 Z M356 228 L150 228 L253 539 L356 228 Z " />
<glyph glyph-name="aogonek" unicode="&#x105;" horiz-adv-x="586" d="M559 88 C536 53 536 53 530 53 C525 53 523 61 523 78 L523 267 C523 312 519 329 504 350 C472 394 384 420 265 420 C142 420 79 386 79 319 C79 272 112 240 160 240 C207 240 237 271 237 319 C237 357 221 379 186 390 C201 395 209 397 225 397 C263 397 290 386 302 365 C308 354 310 342 310 313 L310 213 C274 226 242 231 200 231 C152 231 118 224 87 207 C49 186 25 147 25 107 C25 38 92 -13 183 -13 C232 -13 266 -2 315 31 C349 -2 376 -13 422 -13 L437 -13 C379 -31 348 -63 348 -105 C348 -154 387 -180 459 -180 C483 -180 501 -178 537 -171 L537 -150 C472 -145 447 -128 447 -88 C447 -60 460 -39 497 -7 C509 4 509 4 518 12 C544 28 565 51 577 78 L559 88 Z M310 48 C284 32 271 27 258 27 C239 27 229 41 229 68 L229 161 C229 191 239 204 261 204 C276 204 289 201 310 192 L310 48 Z " />
<glyph glyph-name="Cacute" unicode="&#x106;" horiz-adv-x="665" d="M599 133 C538 50 472 10 398 10 C344 10 322 41 322 117 L322 557 C322 631 338 657 383 657 C456 657 534 599 573 517 C588 484 594 458 595 412 L617 412 L617 687 L521 631 C466 673 426 687 360 687 C164 687 29 543 29 335 C29 128 169 -20 365 -20 C472 -20 544 19 621 117 L599 133 Z M300 716 L325 716 L502 829 L502 856 L336 856 L300 716 Z " />
<glyph glyph-name="cacute" unicode="&#x107;" horiz-adv-x="475" d="M432 95 C396 43 350 15 302 15 C261 15 248 34 248 95 L248 338 C248 386 260 399 304 399 C336 399 360 391 379 374 C367 377 361 378 355 378 C318 378 289 344 289 300 C289 256 321 224 367 224 C412 224 443 256 443 304 C443 375 380 420 281 420 C129 420 19 327 19 198 C19 123 58 56 122 19 C159 -3 206 -13 264 -13 C351 -13 407 16 450 85 L432 95 Z M214 483 L246 483 L406 596 L406 623 L248 623 L214 483 Z " />
<glyph glyph-name="Ccircumflex" unicode="&#x108;" horiz-adv-x="665" d="M599 133 C538 50 472 10 398 10 C344 10 322 41 322 117 L322 557 C322 631 338 657 383 657 C456 657 534 599 573 517 C588 484 594 458 595 412 L617 412 L617 687 L521 631 C466 673 426 687 360 687 C164 687 29 543 29 335 C29 128 169 -20 365 -20 C472 -20 544 19 621 117 L599 133 Z M558 758 C496 782 449 823 430 869 L321 869 C303 823 256 782 193 758 L202 728 C262 733 315 749 376 780 C437 749 490 733 549 728 L558 758 Z " />
<glyph glyph-name="Cdotaccent" unicode="&#x10a;" horiz-adv-x="665" d="M599 133 C538 50 472 10 398 10 C344 10 322 41 322 117 L322 557 C322 631 338 657 383 657 C456 657 534 599 573 517 C588 484 594 458 595 412 L617 412 L617 687 L521 631 C466 673 426 687 360 687 C164 687 29 543 29 335 C29 128 169 -20 365 -20 C472 -20 544 19 621 117 L599 133 Z M352 887 C301 887 261 852 261 806 C261 760 301 725 354 725 C408 725 444 757 444 806 C444 854 407 887 352 887 L352 887 Z " />
<glyph glyph-name="cdotaccent" unicode="&#x10b;" horiz-adv-x="475" d="M432 95 C396 43 350 15 302 15 C261 15 248 34 248 95 L248 338 C248 386 260 399 304 399 C336 399 360 391 379 374 C367 377 361 378 355 378 C318 378 289 344 289 300 C289 256 321 224 367 224 C412 224 443 256 443 304 C443 375 380 420 281 420 C129 420 19 327 19 198 C19 123 58 56 122 19 C159 -3 206 -13 264 -13 C351 -13 407 16 450 85 L432 95 Z M256 647 C204 647 164 612 164 566 C164 520 204 486 258 486 C312 486 348 518 348 566 C348 614 311 647 256 647 L256 647 Z " />
<glyph glyph-name="Ccaron" unicode="&#x10c;" horiz-adv-x="665" d="M599 133 C538 50 472 10 398 10 C344 10 322 41 322 117 L322 557 C322 631 338 657 383 657 C456 657 534 599 573 517 C588 484 594 458 595 412 L617 412 L617 687 L521 631 C466 673 426 687 360 687 C164 687 29 543 29 335 C29 128 169 -20 365 -20 C472 -20 544 19 621 117 L599 133 Z M166 849 C228 825 276 784 294 738 L403 738 C421 784 468 825 531 849 L522 879 C463 874 410 858 348 827 C288 858 235 874 175 879 L166 849 Z " />
<glyph glyph-name="ccaron" unicode="&#x10d;" horiz-adv-x="475" d="M432 95 C396 43 350 15 302 15 C261 15 248 34 248 95 L248 338 C248 386 260 399 304 399 C336 399 360 391 379 374 C367 377 361 378 355 378 C318 378 289 344 289 300 C289 256 321 224 367 224 C412 224 443 256 443 304 C443 375 380 420 281 420 C129 420 19 327 19 198 C19 123 58 56 122 19 C159 -3 206 -13 264 -13 C351 -13 407 16 450 85 L432 95 Z M79 606 C139 582 184 541 201 495 L305 495 C323 541 367 582 427 606 L419 636 C362 631 311 615 253 584 C196 615 145 631 88 636 L79 606 Z " />
<glyph glyph-name="Dcaron" unicode="&#x10e;" horiz-adv-x="820" d="M22 0 L520 0 C586 0 639 21 683 64 C751 132 792 236 792 338 C792 427 761 514 708 580 C658 641 596 667 499 667 L22 667 L22 644 L96 644 L96 23 L22 23 L22 0 Z M368 23 L368 644 L416 644 C478 644 487 632 487 549 L487 118 C488 45 470 23 406 23 L368 23 Z M189 849 C251 825 298 784 316 738 L426 738 C444 784 491 825 554 849 L545 879 C485 874 432 858 371 827 C311 858 257 874 198 879 L189 849 Z " />
<glyph glyph-name="dcaron" unicode="&#x10f;" horiz-adv-x="783" d="M327 -13 C361 -4 390 0 422 0 L605 0 L605 20 L542 20 L542 680 C490 671 450 667 420 667 L264 667 L264 647 L327 647 L327 388 C275 411 237 420 193 420 C92 420 19 331 19 207 C19 144 38 88 72 51 C108 12 160 -13 207 -13 C248 -13 286 2 327 34 L327 -13 Z M327 62 C306 43 287 33 272 33 C257 33 249 48 249 78 L249 326 C249 360 262 380 283 380 C291 380 305 376 320 368 L327 365 L327 62 Z M606 454 C653 455 684 459 703 466 C746 482 777 532 777 586 C777 642 736 680 675 680 C621 680 579 647 579 606 C579 565 623 530 673 530 C702 530 727 539 745 557 C733 497 700 479 606 478 L606 454 Z " />
<glyph glyph-name="Dcroat" unicode="&#x110;" horiz-adv-x="820" d="M22 340 L96 340 L96 23 L22 23 L22 0 L520 0 C586 0 639 21 683 64 C751 132 792 236 792 338 C792 426 761 514 708 580 C658 641 596 667 499 667 L22 667 L22 644 L96 644 L96 363 L22 363 L22 340 Z M368 363 L368 644 L416 644 C478 644 487 632 487 549 L487 118 C488 45 470 23 406 23 L368 23 L368 340 L426 340 L426 363 L368 363 Z " />
<glyph glyph-name="dcroat" unicode="&#x111;" horiz-adv-x="612" d="M328 534 L328 388 C276 411 237 420 193 420 C92 420 19 331 19 207 C19 144 38 88 72 51 C108 12 160 -13 207 -13 C248 -13 287 2 328 34 L328 -13 C362 -4 391 0 423 0 L606 0 L606 20 L543 20 L543 534 L606 534 L606 557 L543 557 L543 680 C491 671 451 667 421 667 L264 667 L264 647 L328 647 L328 557 L163 557 L163 534 L328 534 Z M328 62 C307 43 288 33 272 33 C257 33 249 48 249 78 L249 326 C249 360 262 380 283 380 C292 380 306 376 321 368 L328 365 L328 62 Z " />
<glyph glyph-name="Emacron" unicode="&#x112;" horiz-adv-x="709" d="M652 0 L652 246 L631 246 C614 116 507 25 368 23 L368 331 L387 331 C453 331 502 265 499 179 L519 179 L519 511 L499 511 C501 417 459 357 388 355 L368 355 L368 644 C505 652 597 581 610 457 L631 457 L631 667 L22 667 L22 644 L96 644 L96 23 L22 23 L22 0 L652 0 Z M520 828 L183 828 L183 756 L520 756 L520 828 Z " />
<glyph glyph-name="emacron" unicode="&#x113;" horiz-adv-x="516" d="M474 131 C430 68 356 20 302 20 C282 20 266 29 257 47 C249 62 246 80 246 121 L246 209 L497 209 C480 334 390 420 275 420 C129 420 19 325 19 198 C19 77 126 -13 270 -13 C355 -13 432 32 489 114 L474 131 Z M334 230 L246 230 L246 348 C246 384 261 401 291 401 C321 401 334 385 334 347 L334 230 Z M417 602 L115 602 L115 530 L417 530 L417 602 Z " />
<glyph glyph-name="Ebreve" unicode="&#x114;" horiz-adv-x="709" d="M652 0 L652 246 L631 246 C614 116 507 25 368 23 L368 331 L387 331 C453 331 502 265 499 179 L519 179 L519 511 L499 511 C501 417 459 357 388 355 L368 355 L368 644 C505 652 597 581 610 457 L631 457 L631 667 L22 667 L22 644 L96 644 L96 23 L22 23 L22 0 L652 0 Z M496 878 C492 863 489 857 480 851 C462 837 419 830 356 830 C300 830 256 840 242 857 C237 862 235 867 233 878 L211 878 C219 776 258 742 364 742 C471 742 509 776 517 878 L496 878 Z " />
<glyph glyph-name="ebreve" unicode="&#x115;" horiz-adv-x="516" d="M474 131 C430 68 356 20 302 20 C282 20 266 29 257 47 C249 62 246 80 246 121 L246 209 L497 209 C480 334 390 420 275 420 C129 420 19 325 19 198 C19 77 126 -13 270 -13 C355 -13 432 32 489 114 L474 131 Z M334 230 L246 230 L246 348 C246 384 261 401 291 401 C321 401 334 385 334 347 L334 230 Z M400 638 C398 627 395 621 391 616 C377 600 334 590 275 590 C217 590 172 600 159 616 C154 621 152 627 149 638 L129 638 C137 536 173 502 275 502 C376 502 413 537 420 638 L400 638 Z " />
<glyph glyph-name="Edotaccent" unicode="&#x116;" horiz-adv-x="709" d="M652 0 L652 246 L631 246 C614 116 507 25 368 23 L368 331 L387 331 C453 331 502 265 499 179 L519 179 L519 511 L499 511 C501 417 459 357 388 355 L368 355 L368 644 C505 652 597 581 610 457 L631 457 L631 667 L22 667 L22 644 L96 644 L96 23 L22 23 L22 0 L652 0 Z M349 887 C298 887 258 852 258 806 C258 760 298 725 351 725 C405 725 441 757 441 806 C441 854 404 887 349 887 L349 887 Z " />
<glyph glyph-name="edotaccent" unicode="&#x117;" horiz-adv-x="516" d="M474 131 C430 68 356 20 302 20 C282 20 266 29 257 47 C249 62 246 80 246 121 L246 209 L497 209 C480 334 390 420 275 420 C129 420 19 325 19 198 C19 77 126 -13 270 -13 C355 -13 432 32 489 114 L474 131 Z M334 230 L246 230 L246 348 C246 384 261 401 291 401 C321 401 334 385 334 347 L334 230 Z M271 647 C220 647 180 612 180 566 C180 520 220 486 273 486 C327 486 363 518 363 566 C363 614 326 647 271 647 L271 647 Z " />
<glyph glyph-name="Eogonek" unicode="&#x118;" horiz-adv-x="709" d="M652 0 L652 246 L631 246 C614 116 507 25 368 23 L368 331 L387 331 C453 331 502 265 499 179 L519 179 L519 511 L499 511 C501 417 459 357 388 355 L368 355 L368 644 C505 652 597 581 610 457 L631 457 L631 667 L22 667 L22 644 L96 644 L96 23 L22 23 L22 0 L607 0 C506 -25 457 -60 457 -106 C457 -149 503 -180 566 -180 C595 -180 606 -178 652 -163 L652 -146 C587 -145 555 -127 555 -90 C555 -55 578 -31 644 0 L652 0 Z " />
<glyph glyph-name="eogonek" unicode="&#x119;" horiz-adv-x="516" d="M474 131 C430 68 356 20 302 20 C282 20 266 29 257 47 C249 62 246 80 246 121 L246 209 L497 209 C480 334 390 420 275 420 C129 420 19 325 19 198 C19 77 126 -13 269 -13 C280 -13 290 -13 303 -11 C242 -29 209 -62 209 -105 C209 -154 248 -180 320 -180 C343 -180 361 -178 397 -171 L397 -150 C332 -145 308 -128 308 -88 C308 -54 324 -33 384 15 C421 36 466 79 489 114 L474 131 Z M334 230 L246 230 L246 348 C246 384 261 401 291 401 C321 401 334 385 334 347 L334 230 Z " />
<glyph glyph-name="Ecaron" unicode="&#x11a;" horiz-adv-x="709" d="M652 0 L652 246 L631 246 C614 116 507 25 368 23 L368 331 L387 331 C453 331 502 265 499 179 L519 179 L519 511 L499 511 C501 417 459 357 388 355 L368 355 L368 644 C505 652 597 581 610 457 L631 457 L631 667 L22 667 L22 644 L96 644 L96 23 L22 23 L22 0 L652 0 Z M171 849 C234 825 281 784 299 738 L408 738 C427 784 474 825 536 849 L527 879 C468 874 415 858 354 827 C293 858 240 874 180 879 L171 849 Z " />
<glyph glyph-name="ecaron" unicode="&#x11b;" horiz-adv-x="516" d="M474 131 C430 68 356 20 302 20 C282 20 266 29 257 47 C249 62 246 80 246 121 L246 209 L497 209 C480 334 390 420 275 420 C129 420 19 325 19 198 C19 77 126 -13 270 -13 C355 -13 432 32 489 114 L474 131 Z M334 230 L246 230 L246 348 C246 384 261 401 291 401 C321 401 334 385 334 347 L334 230 Z M95 606 C154 582 199 541 216 495 L321 495 C338 541 383 582 442 606 L434 636 C377 631 326 615 269 584 C211 615 160 631 103 636 L95 606 Z " />
<glyph glyph-name="Gcircumflex" unicode="&#x11c;" horiz-adv-x="746" d="M723 277 L723 300 L388 300 L388 277 L436 277 L436 93 C436 39 417 10 382 10 C348 10 333 33 333 83 L333 562 C333 634 351 657 407 657 C480 657 550 614 597 540 C620 504 628 476 629 427 L650 427 L650 687 L556 631 C492 674 449 687 376 687 C279 687 194 658 138 605 C70 540 28 436 28 330 C28 123 172 -20 380 -20 C474 -20 545 1 606 46 L678 -32 L678 277 L723 277 Z M567 758 C504 782 457 823 439 869 L329 869 C311 823 264 782 202 758 L211 728 C270 733 324 749 384 780 C445 749 498 733 558 728 L567 758 Z " />
<glyph glyph-name="gcircumflex" unicode="&#x11d;" horiz-adv-x="547" d="M293 85 L202 84 C156 84 134 93 134 111 C134 122 141 132 157 141 C199 128 231 123 278 123 C422 123 510 176 510 264 C510 335 456 383 344 410 C352 442 366 462 388 476 C386 469 385 465 385 458 C385 427 405 407 436 407 C468 407 491 431 491 463 C491 493 471 515 441 518 L443 525 C384 549 339 590 322 636 L217 636 C200 589 156 549 96 525 L105 494 C161 500 211 516 269 547 C312 524 347 511 386 502 C357 482 335 450 326 413 C300 418 282 420 256 420 C117 420 32 362 32 268 C32 211 57 182 136 147 C69 109 38 67 38 13 C38 -13 45 -32 64 -56 C47 -81 40 -98 40 -117 C40 -186 125 -232 250 -232 C414 -232 516 -163 516 -54 C516 37 455 85 338 85 L293 85 Z M311 189 C311 154 298 138 271 138 C245 138 233 154 233 187 L233 354 C233 385 247 401 274 401 C299 401 311 386 311 355 L311 189 Z M77 -68 C102 -88 128 -96 166 -96 C182 -96 197 -96 216 -95 C243 -94 297 -92 307 -92 C372 -92 399 -107 399 -142 C399 -185 349 -210 265 -210 C150 -210 68 -165 68 -102 C68 -91 70 -82 77 -68 L77 -68 Z " />
<glyph glyph-name="Gbreve" unicode="&#x11e;" horiz-adv-x="746" d="M723 277 L723 300 L388 300 L388 277 L436 277 L436 93 C436 39 417 10 382 10 C348 10 333 33 333 83 L333 562 C333 634 351 657 407 657 C480 657 550 614 597 540 C620 504 628 476 629 427 L650 427 L650 687 L556 631 C492 674 449 687 376 687 C279 687 194 658 138 605 C70 540 28 436 28 330 C28 123 172 -20 380 -20 C474 -20 545 1 606 46 L678 -32 L678 277 L723 277 Z M507 878 C504 863 500 857 492 851 C474 837 430 830 368 830 C311 830 268 840 253 857 C249 862 247 867 244 878 L223 878 C231 776 269 742 376 742 C482 742 520 776 529 878 L507 878 Z " />
<glyph glyph-name="gbreve" unicode="&#x11f;" horiz-adv-x="547" d="M293 85 L202 84 C156 84 134 93 134 111 C134 122 141 132 157 141 C199 128 231 123 278 123 C422 123 510 176 510 264 C510 335 456 383 344 410 C352 442 366 462 388 476 C386 469 385 465 385 458 C385 427 405 407 436 407 C468 407 491 431 491 463 C491 496 468 518 435 518 C388 518 343 475 326 413 C300 418 282 420 256 420 C117 420 32 362 32 268 C32 211 57 182 136 147 C69 109 38 67 38 13 C38 -13 45 -32 64 -56 C47 -81 40 -98 40 -117 C40 -186 125 -232 250 -232 C414 -232 516 -163 516 -54 C516 37 455 85 338 85 L293 85 Z M311 189 C311 154 298 138 271 138 C245 138 233 154 233 187 L233 354 C233 385 247 401 274 401 C299 401 311 386 311 355 L311 189 Z M77 -68 C102 -88 128 -96 166 -96 C182 -96 197 -96 216 -95 C243 -94 297 -92 307 -92 C372 -92 399 -107 399 -142 C399 -185 349 -210 265 -210 C150 -210 68 -165 68 -102 C68 -91 70 -82 77 -68 L77 -68 Z M400 638 C397 627 395 621 390 616 C376 600 333 590 275 590 C216 590 172 600 158 616 C154 621 151 627 149 638 L129 638 C136 536 173 502 274 502 C375 502 412 537 420 638 L400 638 Z " />
<glyph glyph-name="Gdotaccent" unicode="&#x120;" horiz-adv-x="746" d="M723 277 L723 300 L388 300 L388 277 L436 277 L436 93 C436 39 417 10 382 10 C348 10 333 33 333 83 L333 562 C333 634 351 657 407 657 C480 657 550 614 597 540 C620 504 628 476 629 427 L650 427 L650 687 L556 631 C492 674 449 687 376 687 C279 687 194 658 138 605 C70 540 28 436 28 330 C28 123 172 -20 380 -20 C474 -20 545 1 606 46 L678 -32 L678 277 L723 277 Z M376 887 C324 887 284 852 284 806 C284 760 324 725 378 725 C432 725 468 757 468 806 C468 854 431 887 376 887 L376 887 Z " />
<glyph glyph-name="gdotaccent" unicode="&#x121;" horiz-adv-x="547" d="M293 85 L202 84 C156 84 134 93 134 111 C134 122 141 132 157 141 C199 128 231 123 278 123 C422 123 510 176 510 264 C510 335 456 383 344 410 C352 442 366 462 388 476 C386 469 385 465 385 458 C385 427 405 407 436 407 C468 407 491 431 491 463 C491 496 468 518 435 518 C388 518 343 475 326 413 C300 418 282 420 256 420 C117 420 32 362 32 268 C32 211 57 182 136 147 C69 109 38 67 38 13 C38 -13 45 -32 64 -56 C47 -81 40 -98 40 -117 C40 -186 125 -232 250 -232 C414 -232 516 -163 516 -54 C516 37 455 85 338 85 L293 85 Z M311 189 C311 154 298 138 271 138 C245 138 233 154 233 187 L233 354 C233 385 247 401 274 401 C299 401 311 386 311 355 L311 189 Z M77 -68 C102 -88 128 -96 166 -96 C182 -96 197 -96 216 -95 C243 -94 297 -92 307 -92 C372 -92 399 -107 399 -142 C399 -185 349 -210 265 -210 C150 -210 68 -165 68 -102 C68 -91 70 -82 77 -68 L77 -68 Z M275 647 C223 647 183 612 183 566 C183 520 223 486 277 486 C331 486 367 518 367 566 C367 614 330 647 275 647 L275 647 Z " />
<glyph glyph-name="Gcommaaccent" unicode="&#x122;" horiz-adv-x="746" d="M723 277 L723 300 L388 300 L388 277 L436 277 L436 93 C436 39 417 10 382 10 C348 10 333 33 333 83 L333 562 C333 634 351 657 407 657 C480 657 550 614 597 540 C620 504 628 476 629 427 L650 427 L650 687 L556 631 C492 674 449 687 376 687 C279 687 194 658 138 605 C70 540 28 436 28 330 C28 123 172 -20 380 -20 C474 -20 545 1 606 46 L678 -32 L678 277 L723 277 Z M297 -289 C347 -288 380 -284 401 -276 C446 -259 479 -206 479 -149 C479 -88 436 -48 371 -48 C313 -48 268 -83 268 -128 C268 -171 314 -209 368 -209 C399 -209 425 -199 445 -179 C432 -245 398 -265 297 -266 L297 -289 Z " />
<glyph glyph-name="gcommaaccent" unicode="&#x123;" horiz-adv-x="547" d="M293 85 L202 84 C156 84 134 93 134 111 C134 122 141 132 157 141 C199 128 231 123 278 123 C422 123 510 176 510 264 C510 335 456 383 344 410 C352 442 366 462 388 476 C386 469 385 465 385 458 C385 427 405 407 436 407 C468 407 491 431 491 463 C491 496 468 518 435 518 C388 518 343 475 326 413 C300 418 282 420 256 420 C117 420 32 362 32 268 C32 211 57 182 136 147 C69 109 38 67 38 13 C38 -13 45 -32 64 -56 C47 -81 40 -98 40 -117 C40 -186 125 -232 250 -232 C414 -232 516 -163 516 -54 C516 37 455 85 338 85 L293 85 Z M311 189 C311 154 298 138 271 138 C245 138 233 154 233 187 L233 354 C233 385 247 401 274 401 C299 401 311 386 311 355 L311 189 Z M77 -68 C102 -88 128 -96 166 -96 C182 -96 197 -96 216 -95 C243 -94 297 -92 307 -92 C372 -92 399 -107 399 -142 C399 -185 349 -210 265 -210 C150 -210 68 -165 68 -102 C68 -91 70 -82 77 -68 L77 -68 Z M343 697 C296 696 265 692 246 685 C203 669 172 619 172 566 C172 509 213 471 274 471 C328 471 371 504 371 546 C371 587 327 622 277 622 C248 622 223 612 204 594 C217 654 249 673 343 674 L343 697 Z " />
<glyph glyph-name="Hcircumflex" unicode="&#x124;" horiz-adv-x="848" d="M826 0 L826 23 L752 23 L752 644 L826 644 L826 667 L431 667 L431 644 L479 644 L479 359 L368 359 L368 644 L416 644 L416 667 L22 667 L22 644 L96 644 L96 23 L22 23 L22 0 L416 0 L416 23 L368 23 L368 336 L479 336 L479 23 L431 23 L431 0 L826 0 Z M606 758 C544 782 497 823 479 869 L369 869 C351 823 304 782 241 758 L250 728 C310 733 364 749 424 780 C485 749 538 733 597 728 L606 758 Z " />
<glyph glyph-name="Hbar" unicode="&#x126;" horiz-adv-x="848" d="M96 481 L96 23 L22 23 L22 0 L416 0 L416 23 L368 23 L368 336 L479 336 L479 23 L431 23 L431 0 L826 0 L826 23 L752 23 L752 481 L820 481 L820 504 L752 504 L752 644 L826 644 L826 667 L431 667 L431 644 L479 644 L479 504 L368 504 L368 644 L416 644 L416 667 L22 667 L22 644 L96 644 L96 504 L28 504 L28 481 L96 481 Z M368 481 L479 481 L479 359 L368 359 L368 481 Z " />
<glyph glyph-name="hbar" unicode="&#x127;" horiz-adv-x="650" d="M69 534 L69 20 L6 20 L6 0 L316 0 L316 20 L284 20 L284 344 C303 359 319 367 334 367 C355 367 366 350 366 314 L366 20 L335 20 L335 0 L644 0 L644 20 L581 20 L581 275 C581 329 571 368 553 386 C532 407 494 420 455 420 C397 420 340 403 284 368 L284 534 L428 534 L428 557 L284 557 L284 680 C248 671 214 667 169 667 L6 667 L6 644 L69 644 L69 557 L6 557 L6 534 L69 534 Z " />
<glyph glyph-name="Imacron" unicode="&#x12a;" horiz-adv-x="469" d="M446 0 L446 23 L372 23 L372 644 L446 644 L446 667 L22 667 L22 644 L96 644 L96 23 L22 23 L22 0 L446 0 Z M402 828 L66 828 L66 756 L402 756 L402 828 Z " />
<glyph glyph-name="imacron" unicode="&#x12b;" horiz-adv-x="355" d="M347 0 L347 20 L284 20 L284 426 C246 417 209 413 165 413 L6 413 L6 393 L69 393 L69 20 L6 20 L6 0 L347 0 Z M328 602 L26 602 L26 530 L328 530 L328 602 Z " />
<glyph glyph-name="ibreve" unicode="&#x12d;" horiz-adv-x="355" d="M347 0 L347 20 L284 20 L284 426 C246 417 209 413 165 413 L6 413 L6 393 L69 393 L69 20 L6 20 L6 0 L347 0 Z M302 638 C300 627 298 621 293 616 C279 600 236 590 178 590 C119 590 75 600 61 616 C57 621 54 627 52 638 L32 638 C39 536 76 502 177 502 C278 502 315 537 323 638 L302 638 Z " />
<glyph glyph-name="Iogonek" unicode="&#x12e;" horiz-adv-x="469" d="M446 0 L446 23 L372 23 L372 644 L446 644 L446 667 L22 667 L22 644 L96 644 L96 23 L22 23 L22 0 L334 0 C234 -25 185 -60 185 -106 C185 -149 231 -180 294 -180 C323 -180 336 -177 379 -163 L379 -146 C315 -145 283 -127 283 -90 C283 -54 304 -33 371 0 L446 0 Z " />
<glyph glyph-name="iogonek" unicode="&#x12f;" horiz-adv-x="355" d="M347 0 L347 20 L284 20 L284 426 C246 417 209 413 165 413 L6 413 L6 393 L69 393 L69 20 L6 20 L6 0 L261 0 C164 -22 123 -53 123 -105 C123 -154 162 -180 234 -180 C258 -180 275 -178 312 -171 L312 -150 C247 -145 222 -128 222 -89 C222 -55 241 -26 282 0 L347 0 Z M177 674 C113 674 67 640 67 592 C67 542 110 509 174 509 C243 509 286 541 286 592 C286 640 240 674 177 674 L177 674 Z " />
<glyph glyph-name="Idotaccent" unicode="&#x130;" horiz-adv-x="469" d="M446 0 L446 23 L372 23 L372 644 L446 644 L446 667 L22 667 L22 644 L96 644 L96 23 L22 23 L22 0 L446 0 Z M236 887 C184 887 144 852 144 806 C144 760 184 725 238 725 C292 725 328 757 328 806 C328 854 291 887 236 887 L236 887 Z " />
<glyph glyph-name="dotlessi" unicode="&#x131;" horiz-adv-x="355" d="M347 0 L347 20 L284 20 L284 426 C246 417 209 413 165 413 L6 413 L6 393 L69 393 L69 20 L6 20 L6 0 L347 0 Z " />
<glyph glyph-name="Kcommaaccent" unicode="&#x136;" horiz-adv-x="856" d="M849 0 L849 23 L818 23 L575 510 L610 542 C725 630 756 645 818 644 L818 667 L482 667 L482 644 C518 644 536 641 554 632 C570 624 582 602 582 580 C582 556 571 540 534 510 L368 377 L368 644 L446 644 L446 667 L22 667 L22 644 L96 644 L96 23 L22 23 L22 0 L441 0 L441 23 L368 23 L368 345 L529 23 L464 23 L464 0 L849 0 Z M353 -289 C403 -288 436 -284 456 -276 C502 -259 535 -205 535 -149 C535 -88 492 -48 427 -48 C369 -48 324 -83 324 -128 C324 -171 370 -209 424 -209 C454 -209 481 -199 501 -179 C488 -245 453 -265 353 -266 L353 -289 Z " />
<glyph glyph-name="kcommaaccent" unicode="&#x137;" horiz-adv-x="672" d="M668 0 L668 20 L650 20 L458 363 C489 387 505 393 541 393 L578 393 L578 413 L410 413 L410 393 L422 393 C440 393 447 390 447 382 C447 375 441 368 422 354 L284 252 L284 680 C249 671 217 667 175 667 L6 667 L6 647 L69 647 L69 20 L6 20 L6 0 L347 0 L347 20 L284 20 L284 235 L404 20 L367 20 L367 0 L668 0 Z M276 -274 C323 -273 354 -269 373 -262 C416 -246 447 -196 447 -143 C447 -86 406 -48 345 -48 C291 -48 248 -81 248 -123 C248 -164 292 -199 342 -199 C371 -199 396 -189 415 -171 C403 -231 370 -250 276 -251 L276 -274 Z " />
<glyph glyph-name="Lacute" unicode="&#x139;" horiz-adv-x="681" d="M643 250 L620 250 C618 139 505 38 368 23 L368 644 L450 644 L450 667 L22 667 L22 644 L96 644 L96 23 L22 23 L22 0 L643 0 L643 250 Z M205 716 L230 716 L407 829 L407 856 L241 856 L205 716 Z " />
<glyph glyph-name="lacute" unicode="&#x13a;" horiz-adv-x="355" d="M347 0 L347 20 L284 20 L284 680 C259 672 225 667 187 667 L6 667 L6 647 L69 647 L69 20 L6 20 L6 0 L347 0 Z M152 716 L177 716 L354 829 L354 856 L188 856 L152 716 Z " />
<glyph glyph-name="Lcommaaccent" unicode="&#x13b;" horiz-adv-x="681" d="M643 250 L620 250 C618 139 505 38 368 23 L368 644 L450 644 L450 667 L22 667 L22 644 L96 644 L96 23 L22 23 L22 0 L643 0 L643 250 Z M267 -289 C316 -288 349 -284 370 -276 C415 -259 448 -206 448 -149 C448 -88 405 -48 340 -48 C282 -48 237 -83 237 -128 C237 -171 283 -209 337 -209 C368 -209 395 -199 415 -179 C401 -245 367 -265 267 -266 L267 -289 Z " />
<glyph glyph-name="lcommaaccent" unicode="&#x13c;" horiz-adv-x="355" d="M347 0 L347 20 L284 20 L284 680 C259 672 225 667 187 667 L6 667 L6 647 L69 647 L69 20 L6 20 L6 0 L347 0 Z M111 -274 C158 -273 189 -269 208 -262 C251 -246 282 -196 282 -143 C282 -86 241 -48 180 -48 C126 -48 84 -81 84 -123 C84 -164 128 -199 178 -199 C207 -199 232 -190 250 -171 C238 -231 205 -250 111 -251 L111 -274 Z " />
<glyph glyph-name="Lcaron" unicode="&#x13d;" horiz-adv-x="681" d="M643 250 L620 250 C618 139 505 38 368 23 L368 644 L450 644 L450 667 L22 667 L22 644 L96 644 L96 23 L22 23 L22 0 L643 0 L643 250 Z M491 426 C541 427 574 431 595 439 C640 456 673 509 673 566 C673 627 630 667 565 667 C507 667 462 632 462 587 C462 544 508 506 562 506 C593 506 620 516 639 536 C626 470 592 450 491 449 L491 426 Z " />
<glyph glyph-name="lcaron" unicode="&#x13e;" horiz-adv-x="525" d="M347 0 L347 20 L284 20 L284 680 C259 672 225 667 187 667 L6 667 L6 647 L69 647 L69 20 L6 20 L6 0 L347 0 Z M347 454 C394 455 425 459 444 466 C487 482 518 533 518 586 C518 642 477 680 416 680 C362 680 319 647 319 606 C319 565 363 530 413 530 C442 530 467 539 486 557 C474 497 441 479 347 478 L347 454 Z " />
<glyph glyph-name="Ldot" unicode="&#x13f;" horiz-adv-x="681" d="M643 250 L620 250 C618 139 505 38 368 23 L368 644 L450 644 L450 667 L22 667 L22 644 L96 644 L96 23 L22 23 L22 0 L643 0 L643 250 Z M510 421 C458 421 418 386 418 340 C418 294 458 260 512 260 C566 260 602 292 602 340 C602 388 565 421 510 421 L510 421 Z " />
<glyph glyph-name="ldot" unicode="&#x140;" horiz-adv-x="496" d="M347 0 L347 20 L284 20 L284 680 C259 672 225 667 187 667 L6 667 L6 647 L69 647 L69 20 L6 20 L6 0 L347 0 Z M417 421 C366 421 326 386 326 340 C326 294 366 260 419 260 C473 260 509 292 509 340 C509 388 472 421 417 421 L417 421 Z " />
<glyph glyph-name="Lslash" unicode="&#x141;" horiz-adv-x="681" d="M22 209 L96 251 L96 23 L22 23 L22 0 L643 0 L643 250 L620 250 C618 139 505 38 368 23 L368 409 L485 477 L485 502 L368 435 L368 644 L450 644 L450 667 L22 667 L22 644 L96 644 L96 277 L22 235 L22 209 Z " />
<glyph glyph-name="lslash" unicode="&#x142;" horiz-adv-x="355" d="M6 229 L69 292 L69 20 L6 20 L6 0 L347 0 L347 20 L284 20 L284 468 L347 531 L347 557 L284 495 L284 680 C259 672 225 667 187 667 L6 667 L6 647 L69 647 L69 318 L6 255 L6 229 Z " />
<glyph glyph-name="Nacute" unicode="&#x143;" horiz-adv-x="780" d="M668 0 L668 457 C667 571 707 645 768 644 L768 667 L514 667 L514 644 L536 644 C607 645 640 585 643 449 L643 295 L379 667 L13 667 L13 644 L72 644 L114 582 L114 192 C112 89 72 22 13 23 L13 0 L258 0 L258 23 C180 23 140 90 140 228 L140 545 L514 0 L668 0 Z M371 716 L397 716 L574 829 L574 856 L407 856 L371 716 Z " />
<glyph glyph-name="nacute" unicode="&#x144;" horiz-adv-x="652" d="M645 0 L645 20 L582 20 L582 287 C582 321 577 344 567 361 C545 398 500 420 446 420 C390 420 337 400 284 359 L284 426 C243 417 211 413 188 413 L6 413 L6 393 L69 393 L69 20 L6 20 L6 0 L317 0 L317 20 L284 20 L284 334 C306 355 322 363 336 363 C356 363 367 345 367 311 L367 20 L334 20 L334 0 L645 0 Z M303 483 L335 483 L496 596 L496 623 L337 623 L303 483 Z " />
<glyph glyph-name="Ncommaaccent" unicode="&#x145;" horiz-adv-x="780" d="M668 0 L668 457 C667 571 707 645 768 644 L768 667 L514 667 L514 644 L536 644 C607 645 640 585 643 449 L643 295 L379 667 L13 667 L13 644 L72 644 L114 582 L114 192 C112 89 72 22 13 23 L13 0 L258 0 L258 23 C180 23 140 90 140 228 L140 545 L514 0 L668 0 Z M316 -289 C366 -288 399 -284 419 -276 C465 -259 498 -206 498 -149 C498 -88 454 -48 389 -48 C332 -48 287 -83 287 -128 C287 -171 333 -209 386 -209 C417 -209 444 -199 464 -179 C450 -245 416 -265 316 -266 L316 -289 Z " />
<glyph glyph-name="ncommaaccent" unicode="&#x146;" horiz-adv-x="652" d="M645 0 L645 20 L582 20 L582 287 C582 321 577 344 567 361 C545 398 500 420 446 420 C390 420 337 400 284 359 L284 426 C243 417 211 413 188 413 L6 413 L6 393 L69 393 L69 20 L6 20 L6 0 L317 0 L317 20 L284 20 L284 334 C306 355 322 363 336 363 C356 363 367 345 367 311 L367 20 L334 20 L334 0 L645 0 Z M256 -274 C303 -273 334 -269 353 -262 C396 -246 427 -196 427 -143 C427 -86 386 -48 325 -48 C271 -48 228 -81 228 -123 C228 -164 272 -199 322 -199 C351 -199 376 -189 395 -171 C382 -231 350 -250 256 -251 L256 -274 Z " />
<glyph glyph-name="Ncaron" unicode="&#x147;" horiz-adv-x="780" d="M668 0 L668 457 C667 571 707 645 768 644 L768 667 L514 667 L514 644 L536 644 C607 645 640 585 643 449 L643 295 L379 667 L13 667 L13 644 L72 644 L114 582 L114 192 C112 89 72 22 13 23 L13 0 L258 0 L258 23 C180 23 140 90 140 228 L140 545 L514 0 L668 0 Z M220 849 C283 825 330 784 348 738 L457 738 C476 784 523 825 585 849 L576 879 C517 874 464 858 403 827 C342 858 289 874 229 879 L220 849 Z " />
<glyph glyph-name="ncaron" unicode="&#x148;" horiz-adv-x="652" d="M645 0 L645 20 L582 20 L582 287 C582 321 577 344 567 361 C545 398 500 420 446 420 C390 420 337 400 284 359 L284 426 C243 417 211 413 188 413 L6 413 L6 393 L69 393 L69 20 L6 20 L6 0 L317 0 L317 20 L284 20 L284 334 C306 355 322 363 336 363 C356 363 367 345 367 311 L367 20 L334 20 L334 0 L645 0 Z M158 606 C218 582 262 541 280 495 L384 495 C401 541 446 582 506 606 L497 636 C441 631 390 615 332 584 C274 615 223 631 167 636 L158 606 Z " />
<glyph glyph-name="Omacron" unicode="&#x14c;" horiz-adv-x="764" d="M383 687 C166 687 28 552 28 340 C28 229 56 149 120 83 C186 15 274 -20 383 -20 C528 -20 621 30 687 144 C719 200 736 264 736 333 C736 553 602 687 383 687 L383 687 Z M331 601 C331 644 348 666 382 666 C416 666 433 644 433 601 L433 68 C433 21 417 1 382 1 C347 1 331 21 331 68 L331 601 Z M550 828 L214 828 L214 756 L550 756 L550 828 Z " />
<glyph glyph-name="omacron" unicode="&#x14d;" horiz-adv-x="581" d="M288 420 C128 420 19 330 19 198 C19 123 51 67 118 29 C165 2 226 -13 292 -13 C374 -13 457 13 502 51 C541 86 563 138 563 194 C563 333 458 420 288 420 L288 420 Z M335 70 C335 26 322 8 290 8 C258 8 247 24 247 70 L247 335 C247 385 259 402 292 402 C324 402 335 386 335 338 L335 70 Z M442 602 L140 602 L140 530 L442 530 L442 602 Z " />
<glyph glyph-name="Ohungarumlaut" unicode="&#x150;" horiz-adv-x="764" d="M383 687 C166 687 28 552 28 340 C28 229 56 149 120 83 C186 15 274 -20 383 -20 C528 -20 621 30 687 144 C719 200 736 264 736 333 C736 553 602 687 383 687 L383 687 Z M331 601 C331 644 348 666 382 666 C416 666 433 644 433 601 L433 68 C433 21 417 1 382 1 C347 1 331 21 331 68 L331 601 Z M269 717 L291 718 L454 836 L454 859 L296 859 L269 717 Z M446 717 L468 718 L631 836 L631 859 L473 859 L446 717 Z " />
<glyph glyph-name="ohungarumlaut" unicode="&#x151;" horiz-adv-x="581" d="M288 420 C128 420 19 330 19 198 C19 123 51 67 118 29 C165 2 226 -13 292 -13 C374 -13 457 13 502 51 C541 86 563 138 563 194 C563 333 458 420 288 420 L288 420 Z M335 70 C335 26 322 8 290 8 C258 8 247 24 247 70 L247 335 C247 385 259 402 292 402 C324 402 335 386 335 338 L335 70 Z M188 483 L209 484 L364 602 L364 625 L214 625 L188 483 Z M361 483 L383 484 L546 602 L546 625 L388 625 L361 483 Z " />
<glyph glyph-name="OE" unicode="&#x152;" horiz-adv-x="1027" d="M970 0 L970 245 L949 245 C929 110 839 33 689 24 L689 331 C772 333 821 276 818 179 L840 179 L840 509 L818 509 L818 496 C818 437 796 391 758 369 C738 358 720 354 689 354 L689 642 C825 650 918 577 929 455 L949 455 L949 667 L505 667 C459 681 424 687 379 687 C282 687 194 657 135 603 C68 541 28 443 28 341 C28 246 61 154 119 88 C181 17 269 -20 377 -20 C423 -20 462 -14 512 0 L970 0 Z M328 590 C328 644 343 666 379 666 C414 666 429 644 429 590 L429 77 C429 23 414 1 379 1 C343 1 328 23 328 77 L328 590 Z " />
<glyph glyph-name="oe" unicode="&#x153;" horiz-adv-x="818" d="M775 129 C732 68 653 19 598 19 C582 19 566 29 557 44 C548 60 546 73 546 112 L546 207 L798 207 C773 342 691 420 572 420 C527 420 491 411 440 388 C386 411 345 420 290 420 C133 420 19 330 19 204 C19 131 55 71 123 32 C173 4 234 -13 290 -13 C339 -13 388 -3 440 19 C482 -4 515 -13 561 -13 C650 -13 736 34 790 112 L775 129 Z M635 228 L546 228 L546 339 C546 376 562 397 590 397 C620 397 635 378 635 339 L635 228 Z M336 67 C336 23 323 4 293 4 C262 4 248 23 248 66 L248 339 C248 380 264 401 294 401 C323 401 336 382 336 338 L336 67 Z " />
<glyph glyph-name="Racute" unicode="&#x154;" horiz-adv-x="821" d="M770 118 C764 87 760 78 749 78 C737 78 732 87 732 110 C732 116 733 142 734 155 C735 182 736 208 736 215 C736 288 711 320 632 351 C707 383 741 432 741 510 C741 570 716 622 676 644 C645 660 606 667 543 667 L22 667 L22 644 L96 644 L96 23 L22 23 L22 0 L432 0 L432 23 L368 23 L368 339 C382 340 389 340 396 340 C454 340 468 327 469 275 C470 110 472 95 497 55 C525 7 575 -14 656 -14 C739 -14 774 19 792 112 L770 118 Z M368 363 L368 644 L400 644 C456 643 467 633 469 575 L469 434 C466 377 450 364 384 363 L368 363 Z M342 716 L367 716 L544 829 L544 856 L378 856 L342 716 Z " />
<glyph glyph-name="racute" unicode="&#x155;" horiz-adv-x="495" d="M347 0 L347 20 L284 20 L284 258 C289 288 307 320 325 335 C323 325 322 321 322 313 C322 267 355 234 401 234 C449 234 487 276 487 330 C487 381 457 416 412 416 C365 416 329 387 284 313 L284 426 C253 418 211 413 165 413 L6 413 L6 393 L69 393 L69 20 L6 20 L6 0 L347 0 Z M223 483 L254 483 L415 596 L415 623 L257 623 L223 483 Z " />
<glyph glyph-name="Rcommaaccent" unicode="&#x156;" horiz-adv-x="821" d="M770 118 C764 87 760 78 749 78 C737 78 732 87 732 110 C732 116 733 142 734 155 C735 182 736 208 736 215 C736 288 711 320 632 351 C707 383 741 432 741 510 C741 570 716 622 676 644 C645 660 606 667 543 667 L22 667 L22 644 L96 644 L96 23 L22 23 L22 0 L432 0 L432 23 L368 23 L368 339 C382 340 389 340 396 340 C454 340 468 327 469 275 C470 110 472 95 497 55 C525 7 575 -14 656 -14 C739 -14 774 19 792 112 L770 118 Z M368 363 L368 644 L400 644 C456 643 467 633 469 575 L469 434 C466 377 450 364 384 363 L368 363 Z M345 -289 C395 -288 428 -284 449 -276 C494 -259 527 -205 527 -149 C527 -88 484 -48 419 -48 C361 -48 316 -83 316 -128 C316 -171 362 -209 416 -209 C447 -209 473 -199 493 -179 C480 -245 446 -265 345 -266 L345 -289 Z " />
<glyph glyph-name="rcommaaccent" unicode="&#x157;" horiz-adv-x="495" d="M347 0 L347 20 L284 20 L284 258 C289 288 307 320 325 335 C323 325 322 321 322 313 C322 267 355 234 401 234 C449 234 487 276 487 330 C487 381 457 416 412 416 C365 416 329 387 284 313 L284 426 C253 418 211 413 165 413 L6 413 L6 393 L69 393 L69 20 L6 20 L6 0 L347 0 Z M114 -274 C161 -273 192 -269 211 -262 C254 -246 285 -196 285 -143 C285 -86 244 -48 183 -48 C129 -48 87 -81 87 -123 C87 -164 130 -199 181 -199 C210 -199 235 -189 253 -171 C241 -231 208 -250 114 -251 L114 -274 Z " />
<glyph glyph-name="Rcaron" unicode="&#x158;" horiz-adv-x="821" d="M770 118 C764 87 760 78 749 78 C737 78 732 87 732 110 C732 116 733 142 734 155 C735 182 736 208 736 215 C736 288 711 320 632 351 C707 383 741 432 741 510 C741 570 716 622 676 644 C645 660 606 667 543 667 L22 667 L22 644 L96 644 L96 23 L22 23 L22 0 L432 0 L432 23 L368 23 L368 339 C382 340 389 340 396 340 C454 340 468 327 469 275 C470 110 472 95 497 55 C525 7 575 -14 656 -14 C739 -14 774 19 792 112 L770 118 Z M368 363 L368 644 L400 644 C456 643 467 633 469 575 L469 434 C466 377 450 364 384 363 L368 363 Z M214 849 C276 825 324 784 342 738 L451 738 C470 784 517 825 579 849 L570 879 C511 874 458 858 397 827 C336 858 283 874 223 879 L214 849 Z " />
<glyph glyph-name="rcaron" unicode="&#x159;" horiz-adv-x="495" d="M347 0 L347 20 L284 20 L284 258 C289 288 307 320 325 335 C323 325 322 321 322 313 C322 267 355 234 401 234 C449 234 487 276 487 330 C487 381 457 416 412 416 C365 416 329 387 284 313 L284 426 C253 418 211 413 165 413 L6 413 L6 393 L69 393 L69 20 L6 20 L6 0 L347 0 Z M86 606 C146 582 190 541 208 495 L312 495 C329 541 374 582 433 606 L425 636 C368 631 317 615 260 584 C202 615 151 631 94 636 L86 606 Z " />
<glyph glyph-name="Sacute" unicode="&#x15a;" horiz-adv-x="602" d="M553 456 L553 687 L465 631 C406 671 359 687 299 687 C158 687 54 587 54 453 C54 358 110 285 232 217 C360 146 377 131 377 88 C377 41 335 9 272 9 C214 9 161 36 110 93 C71 138 56 182 56 254 L32 254 L32 -17 L117 43 C177 -4 223 -21 283 -21 C340 -21 408 -3 459 25 C527 64 565 133 565 220 C565 273 547 325 519 355 C487 389 409 444 344 479 C254 527 231 548 231 585 C231 630 263 660 311 660 C366 660 420 639 464 600 C510 560 528 521 529 456 L553 456 Z M263 716 L288 716 L465 829 L465 856 L299 856 L263 716 Z " />
<glyph glyph-name="sacute" unicode="&#x15b;" horiz-adv-x="481" d="M428 247 L428 423 L356 378 C301 409 265 420 217 420 C112 420 36 355 36 266 C36 193 104 136 245 88 C275 78 285 68 285 49 C285 26 270 14 242 14 C195 14 138 32 107 57 C73 85 56 119 53 167 L32 167 L32 -17 L95 33 C139 3 200 -14 264 -14 C376 -14 449 43 449 130 C449 175 433 209 398 234 C362 259 347 268 275 304 C199 346 197 348 197 365 C197 384 210 394 233 394 C278 394 332 374 362 345 C389 319 404 288 408 247 L428 247 Z M212 483 L244 483 L405 596 L405 623 L246 623 L212 483 Z " />
<glyph glyph-name="Scircumflex" unicode="&#x15c;" horiz-adv-x="602" d="M553 456 L553 687 L465 631 C406 671 359 687 299 687 C158 687 54 587 54 453 C54 358 110 285 232 217 C360 146 377 131 377 88 C377 41 335 9 272 9 C214 9 161 36 110 93 C71 138 56 182 56 254 L32 254 L32 -17 L117 43 C177 -4 223 -21 283 -21 C340 -21 408 -3 459 25 C527 64 565 133 565 220 C565 273 547 325 519 355 C487 389 409 444 344 479 C254 527 231 548 231 585 C231 630 263 660 311 660 C366 660 420 639 464 600 C510 560 528 521 529 456 L553 456 Z M496 758 C433 782 386 823 368 869 L258 869 C240 823 193 782 131 758 L140 728 C199 733 253 749 313 780 C374 749 427 733 487 728 L496 758 Z " />
<glyph glyph-name="scircumflex" unicode="&#x15d;" horiz-adv-x="481" d="M428 247 L428 423 L356 378 C301 409 265 420 217 420 C112 420 36 355 36 266 C36 193 104 136 245 88 C275 78 285 68 285 49 C285 26 270 14 242 14 C195 14 138 32 107 57 C73 85 56 119 53 167 L32 167 L32 -17 L95 33 C139 3 200 -14 264 -14 C376 -14 449 43 449 130 C449 175 433 209 398 234 C362 259 347 268 275 304 C199 346 197 348 197 365 C197 384 210 394 233 394 C278 394 332 374 362 345 C389 319 404 288 408 247 L428 247 Z M425 525 C365 549 321 590 303 636 L199 636 C182 590 137 549 78 525 L86 495 C143 500 194 516 251 547 C309 516 360 500 417 495 L425 525 Z " />
<glyph glyph-name="Scedilla" unicode="&#x15e;" horiz-adv-x="602" d="M286 -21 C318 -20 352 -15 386 -4 C505 31 565 106 565 220 C565 273 547 325 519 355 C487 389 409 445 344 479 C254 527 231 549 231 585 C231 630 263 660 311 660 C366 660 420 639 464 600 C510 560 528 521 529 456 L553 456 L553 687 L465 631 C406 671 359 687 299 687 C158 687 54 587 54 453 C54 359 110 285 232 218 C333 162 336 160 361 133 C371 122 377 106 377 89 C377 42 335 10 272 10 C214 10 161 37 110 94 C71 138 56 182 56 254 L32 254 L32 -17 L117 43 C169 3 209 -15 261 -20 L219 -83 L230 -94 C239 -88 244 -86 253 -86 C275 -86 289 -101 289 -124 C289 -154 267 -172 229 -172 C205 -172 185 -168 158 -158 L150 -175 C193 -193 223 -199 279 -199 C325 -199 351 -194 373 -181 C396 -168 409 -147 409 -123 C409 -82 372 -55 315 -55 C294 -55 280 -57 256 -65 L286 -21 Z " />
<glyph glyph-name="scedilla" unicode="&#x15f;" horiz-adv-x="481" d="M252 -13 C257 -14 262 -14 266 -14 C376 -14 449 43 449 130 C449 175 433 209 398 234 C362 259 347 268 275 304 C199 346 197 348 197 365 C197 384 210 394 233 394 C278 394 332 374 362 345 C389 319 404 288 408 247 L428 247 L428 423 L356 378 C301 409 265 420 217 420 C112 420 36 355 36 266 C36 193 104 136 245 88 C275 78 285 68 285 49 C285 26 270 14 242 14 C195 14 138 32 107 57 C73 85 56 119 53 167 L32 167 L32 -17 L95 33 C127 10 171 -5 229 -12 L183 -83 L194 -94 C203 -88 208 -86 217 -86 C237 -86 251 -102 251 -124 C251 -154 230 -172 194 -172 C170 -172 152 -168 125 -158 L117 -175 C158 -193 187 -199 240 -199 C322 -199 364 -173 364 -123 C364 -82 329 -55 275 -55 C255 -55 242 -57 219 -65 L252 -13 Z " />
<glyph glyph-name="Scaron" unicode="&#x160;" horiz-adv-x="602" d="M119 849 C182 825 228 784 247 738 L356 738 C375 785 421 825 484 849 L475 879 C416 874 362 858 302 827 C241 858 187 874 128 879 L119 849 Z M553 456 L553 687 L465 631 C406 671 359 687 299 687 C158 687 54 587 54 453 C54 358 110 285 232 217 C360 146 377 131 377 88 C377 41 335 9 272 9 C214 9 161 36 110 93 C71 138 56 182 56 254 L32 254 L32 -17 L117 43 C177 -4 223 -21 283 -21 C340 -21 408 -3 459 25 C527 64 565 133 565 220 C565 273 547 325 519 355 C487 389 409 444 344 479 C254 527 231 548 231 585 C231 630 263 660 311 660 C366 660 420 639 464 600 C510 560 528 521 529 456 L553 456 Z " />
<glyph glyph-name="scaron" unicode="&#x161;" horiz-adv-x="481" d="M71 606 C130 582 175 541 193 495 L297 495 C315 542 359 582 419 606 L410 636 C354 631 303 615 245 584 C187 615 136 631 80 636 L71 606 Z M428 247 L428 423 L356 378 C301 409 265 420 217 420 C112 420 36 355 36 266 C36 193 104 136 245 88 C275 78 285 68 285 49 C285 26 270 14 242 14 C195 14 138 32 107 57 C73 85 56 119 53 167 L32 167 L32 -17 L95 33 C139 3 200 -14 264 -14 C376 -14 449 43 449 130 C449 175 433 209 398 234 C362 259 347 268 275 304 C199 346 197 348 197 365 C197 384 210 394 233 394 C278 394 332 374 362 345 C389 319 404 288 408 247 L428 247 Z " />
<glyph glyph-name="Tcommaaccent" unicode="&#x162;" horiz-adv-x="702" d="M573 0 L573 23 L488 23 L488 644 C579 611 652 524 663 435 L685 435 L685 667 L17 667 L17 435 L39 435 C59 534 118 604 216 644 L216 23 L131 23 L131 0 L573 0 Z M279 -289 C329 -288 362 -284 382 -276 C428 -259 461 -205 461 -149 C461 -88 417 -48 352 -48 C295 -48 249 -83 249 -128 C249 -171 295 -209 349 -209 C380 -209 407 -199 427 -179 C413 -245 379 -265 279 -266 L279 -289 Z " />
<glyph glyph-name="tcommaaccent" unicode="&#x163;" horiz-adv-x="377" d="M344 152 C326 92 312 70 291 70 C283 70 275 73 273 78 C269 84 269 84 269 122 L269 393 L332 393 L332 413 L269 413 L269 616 L247 616 C221 519 102 419 6 413 L6 393 L54 393 L54 104 C54 28 96 -7 188 -7 C250 -7 294 13 324 55 C338 75 348 98 364 146 L344 152 Z M98 -274 C145 -273 176 -269 195 -262 C238 -246 269 -196 269 -143 C269 -86 228 -48 167 -48 C113 -48 71 -81 71 -123 C71 -164 115 -199 165 -199 C194 -199 219 -190 237 -171 C225 -231 192 -250 98 -251 L98 -274 Z " />
<glyph glyph-name="Tcaron" unicode="&#x164;" horiz-adv-x="702" d="M573 0 L573 23 L488 23 L488 644 C579 611 652 524 663 435 L685 435 L685 667 L17 667 L17 435 L39 435 C59 534 118 604 216 644 L216 23 L131 23 L131 0 L573 0 Z M177 849 C239 825 287 784 305 738 L414 738 C433 784 480 825 542 849 L533 879 C474 874 421 858 360 827 C299 858 246 874 186 879 L177 849 Z " />
<glyph glyph-name="tcaron" unicode="&#x165;" horiz-adv-x="501" d="M344 152 C326 92 312 70 291 70 C283 70 275 73 273 78 C269 84 269 84 269 122 L269 393 L332 393 L332 413 L269 413 L269 616 L247 616 C221 519 102 419 6 413 L6 393 L54 393 L54 104 C54 28 96 -7 188 -7 C250 -7 294 13 324 55 C338 75 348 98 364 146 L344 152 Z M323 481 C370 482 401 486 420 493 C463 509 494 559 494 613 C494 669 453 707 392 707 C338 707 296 674 296 633 C296 592 340 557 390 557 C419 557 444 566 462 584 C450 524 417 506 323 505 L323 481 Z " />
<glyph glyph-name="utilde" unicode="&#x169;" horiz-adv-x="635" d="M350 0 L628 0 L628 20 L565 20 L565 426 C531 417 499 413 460 413 L295 413 L295 393 L350 393 L350 80 C332 62 313 52 298 52 C279 52 272 68 272 108 L272 426 C234 417 199 413 165 413 L6 413 L6 393 L57 393 L57 102 C57 68 65 40 81 23 C101 1 142 -13 184 -13 C242 -13 293 7 350 53 L350 0 Z M480 617 C466 601 454 595 441 595 C427 595 402 601 375 612 C341 626 313 632 289 632 C249 632 225 616 155 538 L172 523 C186 537 196 543 205 543 C216 543 235 536 258 525 C285 512 314 505 343 505 C373 505 404 515 431 535 C449 547 460 560 487 595 C490 599 493 602 495 606 L480 617 Z " />
<glyph glyph-name="Umacron" unicode="&#x16a;" horiz-adv-x="731" d="M719 667 L478 667 L478 644 C559 646 594 584 594 437 L594 180 C594 132 582 96 556 71 C524 38 477 18 432 18 C413 18 395 24 384 33 C371 44 365 67 365 110 L365 644 L432 644 L432 667 L19 667 L19 644 L93 644 L93 176 C93 100 111 67 170 32 C227 0 311 -20 395 -20 C530 -20 619 56 619 170 L619 467 C620 575 658 644 719 644 L719 667 Z M550 828 L213 828 L213 756 L550 756 L550 828 Z " />
<glyph glyph-name="umacron" unicode="&#x16b;" horiz-adv-x="635" d="M350 0 L628 0 L628 20 L565 20 L565 426 C531 417 499 413 460 413 L295 413 L295 393 L350 393 L350 80 C332 62 313 52 298 52 C279 52 272 68 272 108 L272 426 C234 417 199 413 165 413 L6 413 L6 393 L57 393 L57 102 C57 68 65 40 81 23 C101 1 142 -13 184 -13 C242 -13 293 7 350 53 L350 0 Z M468 602 L166 602 L166 530 L468 530 L468 602 Z " />
<glyph glyph-name="ubreve" unicode="&#x16d;" horiz-adv-x="635" d="M350 0 L628 0 L628 20 L565 20 L565 426 C531 417 499 413 460 413 L295 413 L295 393 L350 393 L350 80 C332 62 313 52 298 52 C279 52 272 68 272 108 L272 426 C234 417 199 413 165 413 L6 413 L6 393 L57 393 L57 102 C57 68 65 40 81 23 C101 1 142 -13 184 -13 C242 -13 293 7 350 53 L350 0 Z M442 638 C440 627 437 621 433 616 C419 600 375 590 317 590 C258 590 214 600 201 616 C196 621 194 627 191 638 L171 638 C179 536 215 502 317 502 C418 502 455 537 462 638 L442 638 Z " />
<glyph glyph-name="Uring" unicode="&#x16e;" horiz-adv-x="731" d="M719 667 L478 667 L478 644 C559 646 594 584 594 437 L594 180 C594 132 582 96 556 71 C524 38 477 18 432 18 C413 18 395 24 384 33 C371 44 365 67 365 110 L365 644 L432 644 L432 667 L19 667 L19 644 L93 644 L93 176 C93 100 111 67 170 32 C227 0 311 -20 395 -20 C530 -20 619 56 619 170 L619 467 C620 575 658 644 719 644 L719 667 Z M394 906 C319 906 264 866 264 811 C264 755 315 718 395 718 C472 718 524 755 524 810 C524 866 470 906 394 906 L394 906 Z M394 877 C453 877 496 849 496 811 C496 772 455 747 394 747 C332 747 292 772 292 811 C292 849 335 877 394 877 L394 877 Z " />
<glyph glyph-name="uring" unicode="&#x16f;" horiz-adv-x="635" d="M350 0 L628 0 L628 20 L565 20 L565 426 C531 417 499 413 460 413 L295 413 L295 393 L350 393 L350 80 C332 62 313 52 298 52 C279 52 272 68 272 108 L272 426 C234 417 199 413 165 413 L6 413 L6 393 L57 393 L57 102 C57 68 65 40 81 23 C101 1 142 -13 184 -13 C242 -13 293 7 350 53 L350 0 Z M327 672 C264 672 214 632 214 581 C214 531 264 490 325 490 C387 490 437 531 437 581 C437 631 387 672 327 672 L327 672 Z M326 645 C370 645 408 616 408 581 C408 546 370 517 325 517 C279 517 242 546 242 581 C242 617 279 645 326 645 L326 645 Z " />
<glyph glyph-name="Uhungarumlaut" unicode="&#x170;" horiz-adv-x="731" d="M719 667 L478 667 L478 644 C559 646 594 584 594 437 L594 180 C594 132 582 96 556 71 C524 38 477 18 432 18 C413 18 395 24 384 33 C371 44 365 67 365 110 L365 644 L432 644 L432 667 L19 667 L19 644 L93 644 L93 176 C93 100 111 67 170 32 C227 0 311 -20 395 -20 C530 -20 619 56 619 170 L619 467 C620 575 658 644 719 644 L719 667 Z M278 717 L300 718 L464 836 L464 859 L306 859 L278 717 Z M456 717 L478 718 L641 836 L641 859 L483 859 L456 717 Z " />
<glyph glyph-name="uhungarumlaut" unicode="&#x171;" horiz-adv-x="635" d="M350 0 L628 0 L628 20 L565 20 L565 426 C531 417 499 413 460 413 L295 413 L295 393 L350 393 L350 80 C332 62 313 52 298 52 C279 52 272 68 272 108 L272 426 C234 417 199 413 165 413 L6 413 L6 393 L57 393 L57 102 C57 68 65 40 81 23 C101 1 142 -13 184 -13 C242 -13 293 7 350 53 L350 0 Z M189 483 L210 484 L365 602 L365 625 L215 625 L189 483 Z M361 483 L383 484 L547 602 L547 625 L389 625 L361 483 Z " />
<glyph glyph-name="Uogonek" unicode="&#x172;" horiz-adv-x="731" d="M546 -146 C481 -145 449 -127 449 -90 C449 -60 462 -44 536 14 C593 55 617 101 619 170 L619 467 C620 575 658 644 719 644 L719 667 L478 667 L478 644 C559 646 594 584 594 437 L594 180 C594 132 582 96 556 71 C524 38 477 18 432 18 C413 18 395 24 384 33 C371 44 365 67 365 110 L365 644 L432 644 L432 667 L19 667 L19 644 L93 644 L93 176 C93 100 111 67 170 32 C227 -1 311 -20 396 -20 C411 -20 427 -19 443 -17 C385 -38 351 -71 351 -106 C351 -149 397 -180 460 -180 C490 -180 502 -178 546 -163 L546 -146 Z " />
<glyph glyph-name="uogonek" unicode="&#x173;" horiz-adv-x="635" d="M628 0 L628 20 L565 20 L565 426 C531 417 499 413 460 413 L295 413 L295 393 L350 393 L350 80 C332 62 313 52 298 52 C279 52 272 68 272 108 L272 426 C234 417 199 413 165 413 L6 413 L6 393 L57 393 L57 102 C57 68 65 40 81 23 C101 1 142 -13 184 -13 C242 -13 293 7 350 53 L350 0 L544 0 C447 -22 407 -53 407 -105 C407 -154 445 -180 518 -180 C542 -180 559 -178 595 -171 L595 -150 C531 -145 506 -128 506 -89 C506 -55 525 -26 565 0 L628 0 Z " />
<glyph glyph-name="Wcircumflex" unicode="&#x174;" horiz-adv-x="1113" d="M1113 667 L897 667 L897 644 C924 642 935 639 946 633 C966 622 979 590 979 555 C979 529 973 499 962 472 L865 230 L734 644 L786 644 L786 667 L401 667 L401 644 L447 644 L541 348 L481 214 L336 644 L382 644 L382 667 L0 667 L0 644 L49 644 L264 0 L414 0 L553 312 L652 0 L798 0 L989 469 C1031 568 1067 619 1113 644 L1113 667 Z M766 758 C704 782 657 823 639 869 L529 869 C511 823 464 782 401 758 L410 728 C470 733 524 749 584 780 C645 749 698 733 757 728 L766 758 Z " />
<glyph glyph-name="Ycircumflex" unicode="&#x176;" horiz-adv-x="726" d="M725 667 L510 667 L510 644 C538 643 549 640 561 633 C577 624 591 597 591 574 C591 550 582 519 566 489 L497 358 L350 644 L418 644 L418 667 L0 667 L0 644 L40 644 L238 260 L238 23 L159 23 L159 0 L595 0 L595 23 L510 23 L510 328 L601 500 C645 582 683 625 725 644 L725 667 Z M564 758 C502 782 455 823 436 869 L327 869 C309 823 262 782 199 758 L208 728 C268 733 321 749 382 780 C443 749 496 733 555 728 L564 758 Z " />
<glyph glyph-name="ycircumflex" unicode="&#x177;" horiz-adv-x="490" d="M493 413 L330 413 L330 393 C372 388 390 373 390 343 C390 328 385 308 375 290 L353 244 L273 393 L313 393 L313 413 L0 413 L0 393 L25 393 L236 4 L178 -115 C168 -65 133 -34 86 -34 C35 -34 -4 -77 -4 -133 C-4 -188 34 -228 87 -228 C132 -228 164 -201 195 -137 L409 308 C436 366 456 386 493 393 L493 413 Z M429 525 C369 549 325 590 307 636 L203 636 C185 590 141 549 81 525 L90 495 C146 500 197 516 255 547 C313 516 364 500 420 495 L429 525 Z " />
<glyph glyph-name="Ydieresis" unicode="&#x178;" horiz-adv-x="726" d="M531 886 C477 886 438 852 438 805 C438 757 478 724 535 724 C586 724 622 757 622 804 C622 853 585 886 531 886 L531 886 Z M272 887 C220 887 180 852 180 806 C180 760 220 725 274 725 C328 725 364 757 364 805 C364 854 327 887 272 887 L272 887 Z M725 667 L510 667 L510 644 C538 643 549 640 561 633 C577 624 591 597 591 574 C591 550 582 519 566 489 L497 358 L350 644 L418 644 L418 667 L0 667 L0 644 L40 644 L238 260 L238 23 L159 23 L159 0 L595 0 L595 23 L510 23 L510 328 L601 500 C645 582 683 625 725 644 L725 667 Z " />
<glyph glyph-name="Zacute" unicode="&#x179;" horiz-adv-x="696" d="M648 285 L625 285 C622 217 585 147 520 85 C472 39 432 23 365 23 L353 23 L659 667 L72 667 L72 415 L94 415 C97 495 125 550 188 601 C226 632 261 642 341 644 L38 0 L648 0 L648 285 Z M348 716 L374 716 L550 829 L550 856 L384 856 L348 716 Z " />
<glyph glyph-name="zacute" unicode="&#x17a;" horiz-adv-x="499" d="M480 0 L480 178 L458 178 C457 92 377 23 276 20 L480 413 L37 413 L37 233 L59 233 C71 331 135 392 228 392 L19 0 L480 0 Z M240 483 L271 483 L432 596 L432 623 L274 623 L240 483 Z " />
<glyph glyph-name="Zdotaccent" unicode="&#x17b;" horiz-adv-x="696" d="M648 285 L625 285 C622 217 585 147 520 85 C472 39 432 23 365 23 L353 23 L659 667 L72 667 L72 415 L94 415 C97 495 125 550 188 601 C226 632 261 642 341 644 L38 0 L648 0 L648 285 Z M382 887 C330 887 290 852 290 806 C290 760 330 725 384 725 C438 725 474 757 474 806 C474 854 437 887 382 887 L382 887 Z " />
<glyph glyph-name="zdotaccent" unicode="&#x17c;" horiz-adv-x="499" d="M480 0 L480 178 L458 178 C457 92 377 23 276 20 L480 413 L37 413 L37 233 L59 233 C71 331 135 392 228 392 L19 0 L480 0 Z M269 647 C218 647 178 612 178 566 C178 520 218 486 271 486 C325 486 361 518 361 566 C361 614 324 647 269 647 L269 647 Z " />
<glyph glyph-name="Zcaron" unicode="&#x17d;" horiz-adv-x="696" d="M197 849 C259 825 307 784 325 738 L434 738 C453 784 500 825 562 849 L553 879 C494 874 441 858 380 827 C319 858 266 874 206 879 L197 849 Z M648 285 L625 285 C622 217 585 147 520 85 C472 39 432 23 365 23 L353 23 L659 667 L72 667 L72 415 L94 415 C97 495 125 550 188 601 C226 632 261 642 341 644 L38 0 L648 0 L648 285 Z " />
<glyph glyph-name="zcaron" unicode="&#x17e;" horiz-adv-x="499" d="M103 606 C163 582 207 541 225 495 L329 495 C347 542 391 582 451 606 L442 636 C386 631 335 615 277 584 C219 615 168 631 112 636 L103 606 Z M480 0 L480 178 L458 178 C457 92 377 23 276 20 L480 413 L37 413 L37 233 L59 233 C71 331 135 392 228 392 L19 0 L480 0 Z " />
<glyph glyph-name="florin" unicode="&#x192;" horiz-adv-x="633" d="M312 -227 L417 393 L489 393 L492 413 L455 413 C374 413 316 473 316 557 C316 612 345 653 385 653 C386 653 390 653 394 652 C363 637 349 616 349 584 C349 531 395 484 447 484 C489 484 523 519 523 562 C523 624 466 671 391 671 C295 671 224 603 206 493 L192 413 L136 413 L132 393 L189 393 L85 -227 L312 -227 Z " />
<glyph glyph-name="uni01CD" unicode="&#x1cd;" horiz-adv-x="743" d="M739 0 L739 23 L704 23 L491 667 L274 667 L107 174 C69 80 35 30 3 23 L3 0 L250 0 L250 23 C217 24 200 28 182 39 C152 57 134 97 134 144 C134 164 136 180 143 205 L363 205 L423 23 L351 23 L351 0 L739 0 Z M356 228 L150 228 L253 539 L356 228 Z M201 849 C264 825 311 784 329 738 L438 738 C457 784 504 825 566 849 L557 879 C498 874 445 858 384 827 C323 858 270 874 210 879 L201 849 Z " />
<glyph glyph-name="uni01CE" unicode="&#x1ce;" horiz-adv-x="586" d="M559 88 C536 53 536 53 530 53 C525 53 523 61 523 78 L523 267 C523 312 519 329 504 350 C472 394 384 420 265 420 C142 420 79 386 79 319 C79 272 112 240 160 240 C207 240 237 271 237 319 C237 357 221 379 186 390 C201 395 209 397 225 397 C263 397 290 386 302 365 C308 354 310 342 310 313 L310 213 C274 226 242 231 200 231 C152 231 118 224 87 207 C49 186 25 147 25 107 C25 38 92 -13 183 -13 C232 -13 266 -2 315 31 C348 -2 376 -13 422 -13 C494 -13 549 20 577 78 L559 88 Z M310 48 C284 32 271 27 258 27 C239 27 229 41 229 68 L229 161 C229 191 239 204 261 204 C276 204 289 201 310 192 L310 48 Z M136 606 C195 582 240 541 257 495 L361 495 C379 541 423 582 483 606 L475 636 C418 631 367 615 309 584 C252 615 201 631 144 636 L136 606 Z " />
<glyph glyph-name="uni01D3" unicode="&#x1d3;" horiz-adv-x="731" d="M719 667 L478 667 L478 644 C559 646 594 584 594 437 L594 180 C594 132 582 96 556 71 C524 38 477 18 432 18 C413 18 395 24 384 33 C371 44 365 67 365 110 L365 644 L432 644 L432 667 L19 667 L19 644 L93 644 L93 176 C93 100 111 67 170 32 C227 0 311 -20 395 -20 C530 -20 619 56 619 170 L619 467 C620 575 658 644 719 644 L719 667 Z M212 849 C274 825 321 784 339 738 L449 738 C467 784 514 825 577 849 L568 879 C508 874 455 858 394 827 C334 858 280 874 221 879 L212 849 Z " />
<glyph glyph-name="uni01D4" unicode="&#x1d4;" horiz-adv-x="635" d="M350 0 L628 0 L628 20 L565 20 L565 426 C531 417 499 413 460 413 L295 413 L295 393 L350 393 L350 80 C332 62 313 52 298 52 C279 52 272 68 272 108 L272 426 C234 417 199 413 165 413 L6 413 L6 393 L57 393 L57 102 C57 68 65 40 81 23 C101 1 142 -13 184 -13 C242 -13 293 7 350 53 L350 0 Z M151 606 C211 582 256 541 273 495 L377 495 C395 541 439 582 499 606 L490 636 C434 631 383 615 325 584 C267 615 217 631 160 636 L151 606 Z " />
<glyph glyph-name="Gcaron" unicode="&#x1e6;" horiz-adv-x="746" d="M723 277 L723 300 L388 300 L388 277 L436 277 L436 93 C436 39 417 10 382 10 C348 10 333 33 333 83 L333 562 C333 634 351 657 407 657 C480 657 550 614 597 540 C620 504 628 476 629 427 L650 427 L650 687 L556 631 C492 674 449 687 376 687 C279 687 194 658 138 605 C70 540 28 436 28 330 C28 123 172 -20 380 -20 C474 -20 545 1 606 46 L678 -32 L678 277 L723 277 Z M193 849 C256 825 303 784 321 738 L430 738 C449 784 496 825 558 849 L549 879 C490 874 437 858 376 827 C315 858 262 874 202 879 L193 849 Z " />
<glyph glyph-name="gcaron" unicode="&#x1e7;" horiz-adv-x="547" d="M293 85 L202 84 C156 84 134 93 134 111 C134 122 141 132 157 141 C199 128 231 123 278 123 C422 123 510 176 510 264 C510 335 456 383 344 410 C352 442 366 462 388 476 C386 469 385 465 385 458 C385 427 405 407 436 407 C468 407 491 431 491 463 C491 496 468 518 435 518 C388 518 343 475 326 413 C300 418 282 420 256 420 C117 420 32 362 32 268 C32 211 57 182 136 147 C69 109 38 67 38 13 C38 -13 45 -32 64 -56 C47 -81 40 -98 40 -117 C40 -186 125 -232 250 -232 C414 -232 516 -163 516 -54 C516 37 455 85 338 85 L293 85 Z M311 189 C311 154 298 138 271 138 C245 138 233 154 233 187 L233 354 C233 385 247 401 274 401 C299 401 311 386 311 355 L311 189 Z M77 -68 C102 -88 128 -96 166 -96 C182 -96 197 -96 216 -95 C243 -94 297 -92 307 -92 C372 -92 399 -107 399 -142 C399 -185 349 -210 265 -210 C150 -210 68 -165 68 -102 C68 -91 70 -82 77 -68 L77 -68 Z M96 606 C156 582 200 541 218 495 L322 495 C339 541 384 582 444 606 L435 636 C379 631 328 615 270 584 C212 615 161 631 105 636 L96 606 Z " />
<glyph glyph-name="Scommaaccent" unicode="&#x218;" horiz-adv-x="602" d="M553 456 L553 687 L465 631 C406 671 359 687 299 687 C158 687 54 587 54 453 C54 358 110 285 232 217 C360 146 377 131 377 88 C377 41 335 9 272 9 C214 9 161 36 110 93 C71 138 56 182 56 254 L32 254 L32 -17 L117 43 C177 -4 223 -21 283 -21 C340 -21 408 -3 459 25 C527 64 565 133 565 220 C565 273 547 325 519 355 C487 389 409 444 344 479 C254 527 231 548 231 585 C231 630 263 660 311 660 C366 660 420 639 464 600 C510 560 528 521 529 456 L553 456 Z M224 -289 C274 -288 307 -284 327 -276 C373 -259 406 -206 406 -149 C406 -88 363 -48 298 -48 C240 -48 195 -83 195 -128 C195 -171 241 -209 295 -209 C326 -209 352 -199 372 -179 C359 -245 325 -265 224 -266 L224 -289 Z " />
<glyph glyph-name="scommaaccent" unicode="&#x219;" horiz-adv-x="481" d="M428 247 L428 423 L356 378 C301 409 265 420 217 420 C112 420 36 355 36 266 C36 193 104 136 245 88 C275 78 285 68 285 49 C285 26 270 14 242 14 C195 14 138 32 107 57 C73 85 56 119 53 167 L32 167 L32 -17 L95 33 C139 3 200 -14 264 -14 C376 -14 449 43 449 130 C449 175 433 209 398 234 C362 259 347 268 275 304 C199 346 197 348 197 365 C197 384 210 394 233 394 C278 394 332 374 362 345 C389 319 404 288 408 247 L428 247 Z M175 -274 C222 -273 253 -269 272 -262 C315 -246 346 -196 346 -143 C346 -86 305 -48 244 -48 C190 -48 147 -81 147 -123 C147 -164 191 -199 241 -199 C271 -199 296 -189 314 -171 C302 -231 269 -250 175 -251 L175 -274 Z " />
<glyph glyph-name="uni021A" unicode="&#x21a;" horiz-adv-x="702" d="M573 0 L573 23 L488 23 L488 644 C579 611 652 524 663 435 L685 435 L685 667 L17 667 L17 435 L39 435 C59 534 118 604 216 644 L216 23 L131 23 L131 0 L573 0 Z M279 -289 C329 -288 362 -284 382 -276 C428 -259 461 -205 461 -149 C461 -88 417 -48 352 -48 C295 -48 249 -83 249 -128 C249 -171 295 -209 349 -209 C380 -209 407 -199 427 -179 C413 -245 379 -265 279 -266 L279 -289 Z " />
<glyph glyph-name="uni021B" unicode="&#x21b;" horiz-adv-x="377" d="M344 152 C326 92 312 70 291 70 C283 70 275 73 273 78 C269 84 269 84 269 122 L269 393 L332 393 L332 413 L269 413 L269 616 L247 616 C221 519 102 419 6 413 L6 393 L54 393 L54 104 C54 28 96 -7 188 -7 C250 -7 294 13 324 55 C338 75 348 98 364 146 L344 152 Z M98 -274 C145 -273 176 -269 195 -262 C238 -246 269 -196 269 -143 C269 -86 228 -48 167 -48 C113 -48 71 -81 71 -123 C71 -164 115 -199 165 -199 C194 -199 219 -190 237 -171 C225 -231 192 -250 98 -251 L98 -274 Z " />
<glyph glyph-name="circumflex" unicode="&#x2c6;" horiz-adv-x="475" d="M412 525 C352 549 307 590 290 636 L186 636 C168 590 124 549 64 525 L73 495 C129 500 180 516 238 547 C296 516 346 500 403 495 L412 525 Z " />
<glyph glyph-name="caron" unicode="&#x2c7;" horiz-adv-x="475" d="M64 606 C124 582 168 541 186 495 L290 495 C307 541 352 582 412 606 L403 636 C346 631 296 615 238 584 C180 615 129 631 73 636 L64 606 Z " />
<glyph glyph-name="uni02C9" unicode="&#x2c9;" horiz-adv-x="368" d="M335 602 L33 602 L33 530 L335 530 L335 602 Z " />
<glyph glyph-name="breve" unicode="&#x2d8;" horiz-adv-x="475" d="M363 638 C360 627 358 621 353 616 C340 600 296 590 238 590 C179 590 135 600 122 616 C117 621 115 627 112 638 L92 638 C100 536 136 502 238 502 C339 502 376 537 383 638 L363 638 Z " />
<glyph glyph-name="dotaccent" unicode="&#x2d9;" horiz-adv-x="475" d="M239 647 C187 647 147 612 147 566 C147 520 187 486 241 486 C295 486 331 518 331 566 C331 614 294 647 239 647 L239 647 Z " />
<glyph glyph-name="ring" unicode="&#x2da;" horiz-adv-x="475" d="M240 672 C176 672 126 632 126 581 C126 531 176 490 238 490 C300 490 350 531 350 581 C350 631 300 672 240 672 L240 672 Z M239 645 C283 645 321 616 321 581 C321 546 284 517 237 517 C191 517 154 546 154 581 C154 617 191 645 239 645 L239 645 Z " />
<glyph glyph-name="ogonek" unicode="&#x2db;" horiz-adv-x="475" d="M314 0 C216 -22 176 -53 176 -105 C176 -154 215 -180 287 -180 C311 -180 328 -178 365 -171 L365 -150 C300 -145 275 -128 275 -89 C275 -55 295 -25 336 1 L314 0 Z " />
<glyph glyph-name="tilde" unicode="&#x2dc;" horiz-adv-x="475" d="M408 606 L393 617 C378 601 366 595 354 595 C339 595 314 601 287 612 C253 626 226 632 202 632 C161 632 138 616 67 538 L84 523 C98 537 108 543 117 543 C128 543 148 536 170 525 C198 512 226 505 255 505 C286 505 316 515 343 535 C361 547 373 560 399 595 L408 606 Z " />
<glyph glyph-name="hungarumlaut" unicode="&#x2dd;" horiz-adv-x="475" d="M143 483 L164 484 L319 602 L319 625 L169 625 L143 483 Z M316 483 L338 484 L501 602 L501 625 L343 625 L316 483 Z " />
<glyph glyph-name="Wdieresis" unicode="&#x1e84;" horiz-adv-x="1113" d="M1113 667 L897 667 L897 644 C924 642 935 639 946 633 C966 622 979 590 979 555 C979 529 973 499 962 472 L865 230 L734 644 L786 644 L786 667 L401 667 L401 644 L447 644 L541 348 L481 214 L336 644 L382 644 L382 667 L0 667 L0 644 L49 644 L264 0 L414 0 L553 312 L652 0 L798 0 L989 469 C1031 568 1067 619 1113 644 L1113 667 Z M707 886 C651 886 613 853 613 804 C613 757 653 724 709 724 C761 724 796 757 796 804 C796 853 760 886 707 886 L707 886 Z M446 887 C395 887 355 852 355 806 C355 760 395 725 448 725 C502 725 538 757 538 806 C538 854 501 887 446 887 L446 887 Z " />
<glyph glyph-name="uni2011" unicode="&#x2011;" horiz-adv-x="272" d="M272 151 L272 324 L0 324 L0 151 L272 151 Z " />
<glyph glyph-name="figuredash" unicode="&#x2012;" horiz-adv-x="633" d="M573 171 L573 304 L60 304 L60 171 L573 171 Z " />
<glyph glyph-name="endash" unicode="&#x2013;" horiz-adv-x="633" d="M573 171 L573 304 L60 304 L60 171 L573 171 Z " />
<glyph glyph-name="emdash" unicode="&#x2014;" horiz-adv-x="798" d="M0 171 L798 171 L798 304 L0 304 L0 171 Z " />
<glyph glyph-name="afii00208" unicode="&#x2015;" horiz-adv-x="798" d="M0 171 L798 171 L798 304 L0 304 L0 171 Z " />
<glyph glyph-name="quoteleft" unicode="&#x2018;" horiz-adv-x="304" d="M235 662 L236 687 C170 686 134 679 105 662 C63 637 38 590 38 536 C38 468 83 426 155 426 C219 426 266 463 266 512 C266 560 219 600 163 600 C129 600 98 589 73 568 C77 628 129 662 217 662 L235 662 Z " />
<glyph glyph-name="quoteright" unicode="&#x2019;" horiz-adv-x="304" d="M69 425 C134 426 170 433 198 450 C241 475 266 522 266 577 C266 645 221 687 149 687 C85 687 38 650 38 600 C38 553 85 513 141 513 C175 513 206 524 231 544 C227 485 175 450 92 450 C90 450 78 450 69 451 L69 425 Z " />
<glyph glyph-name="quotesinglbase" unicode="&#x201a;" horiz-adv-x="304" d="M69 -87 C135 -86 170 -79 199 -62 C241 -37 266 10 266 64 C266 132 221 174 149 174 C85 174 38 137 38 88 C38 40 85 1 141 1 C175 1 206 12 231 32 C224 -33 171 -63 69 -61 L69 -87 Z " />
<glyph glyph-name="quotedblleft" unicode="&#x201c;" horiz-adv-x="547" d="M235 662 L236 687 C170 686 134 679 105 662 C63 637 38 590 38 536 C38 468 83 426 155 426 C219 426 266 463 266 512 C266 560 219 600 163 600 C129 600 98 589 73 568 C77 628 129 662 217 662 L235 662 Z M478 662 L479 687 C413 686 377 679 348 662 C306 637 281 590 281 536 C281 468 326 426 398 426 C462 426 509 463 509 513 C509 560 462 600 406 600 C372 600 342 589 316 568 C320 628 372 662 460 662 L478 662 Z " />
<glyph glyph-name="quotedblright" unicode="&#x201d;" horiz-adv-x="547" d="M69 425 C134 426 170 433 198 450 C241 475 266 522 266 577 C266 645 221 687 149 687 C85 687 38 650 38 600 C38 553 85 513 141 513 C175 513 206 524 231 544 C227 485 175 450 92 450 C90 450 78 450 69 451 L69 425 Z M312 425 C377 426 413 433 442 450 C484 475 509 523 509 577 C509 645 464 687 392 687 C328 687 281 650 281 600 C281 552 328 513 387 513 C418 513 450 524 474 544 C470 485 418 450 335 450 C333 450 321 450 312 451 L312 425 Z " />
<glyph glyph-name="quotedblbase" unicode="&#x201e;" horiz-adv-x="547" d="M69 -87 C135 -86 170 -79 199 -62 C241 -37 266 10 266 64 C266 132 221 174 149 174 C85 174 38 137 38 88 C38 40 85 1 141 1 C175 1 206 12 231 32 C224 -33 171 -63 69 -61 L69 -87 Z M312 -87 C377 -86 413 -79 442 -62 C484 -37 509 10 509 64 C509 132 464 174 392 174 C328 174 281 137 281 88 C281 40 328 1 387 1 C418 1 450 12 474 32 C467 -33 415 -63 312 -61 L312 -87 Z " />
<glyph glyph-name="dagger" unicode="&#x2020;" horiz-adv-x="644" d="M432 573 C437 581 439 587 439 591 C439 600 432 608 424 608 C417 608 401 604 384 598 C383 598 379 596 375 595 C349 669 338 687 321 687 C304 687 289 661 268 595 C237 607 235 608 224 608 C215 608 207 601 207 592 C207 587 209 580 214 573 L222 559 C260 498 301 403 311 350 C267 360 177 413 138 450 L128 460 C121 466 114 470 107 470 C100 470 94 463 94 453 C94 444 97 427 101 406 C102 405 103 400 104 395 C39 370 19 357 19 339 C19 322 39 309 104 284 C97 255 94 236 94 228 C94 217 100 209 109 209 C114 209 120 212 130 222 L141 233 C185 273 272 322 312 329 C294 153 263 19 210 -117 L203 -133 C199 -146 196 -155 196 -159 C196 -165 204 -173 211 -173 C221 -173 238 -167 260 -157 C262 -157 265 -155 269 -154 C298 -232 306 -247 323 -247 C336 -247 350 -222 375 -154 C405 -167 424 -173 431 -173 C439 -173 447 -165 447 -159 C447 -154 444 -145 439 -133 L432 -117 C382 10 347 166 332 329 C382 317 461 273 506 233 L517 222 C524 216 531 212 537 212 C544 212 551 220 551 229 C551 236 547 254 540 284 C597 306 625 324 625 339 C625 355 608 367 540 395 C548 425 551 442 551 451 C551 461 545 469 537 469 C530 469 522 466 516 460 L501 445 C472 414 372 357 334 350 C342 401 380 490 423 559 L432 573 Z " />
<glyph glyph-name="daggerdbl" unicode="&#x2021;" horiz-adv-x="644" d="M431 573 C437 582 439 587 439 592 C439 600 432 608 424 608 C416 608 401 604 384 598 C382 598 379 596 375 595 C348 669 337 687 322 687 C307 687 291 661 273 608 C273 606 271 601 269 595 C242 604 225 608 219 608 C211 608 204 601 204 592 C204 587 206 582 212 573 L220 559 C259 498 299 405 311 349 C255 359 171 391 144 413 L128 425 C117 433 112 435 108 435 C99 435 92 427 92 418 C92 412 96 397 102 379 C102 378 102 376 103 374 C37 356 21 350 21 338 C21 328 47 317 103 303 C97 282 93 266 93 260 C93 252 100 244 107 244 C111 244 111 244 126 254 L140 262 C169 287 239 314 311 328 L299 219 L311 112 C239 126 169 153 140 178 L126 186 C111 196 111 196 107 196 C100 196 93 188 93 180 C93 173 97 155 103 137 C47 123 21 112 21 102 C21 90 31 86 103 66 C96 41 92 26 92 22 C92 13 99 5 107 5 C112 5 116 7 128 15 L144 27 C171 50 254 82 311 91 C300 38 261 -54 220 -119 L212 -133 C206 -142 204 -147 204 -151 C204 -160 211 -168 219 -168 C227 -168 242 -164 259 -158 C261 -158 264 -156 269 -155 C295 -229 306 -247 322 -247 C336 -247 351 -222 370 -168 C370 -166 372 -161 375 -155 C401 -164 418 -168 424 -168 C432 -168 439 -160 439 -152 C439 -147 437 -142 432 -133 L423 -119 C384 -58 344 35 332 91 C387 82 473 49 499 27 L515 15 C527 7 531 5 536 5 C544 5 551 13 551 22 C551 30 550 35 540 66 C610 85 622 91 622 102 C622 112 597 123 540 137 C547 163 550 174 550 180 C550 188 543 196 536 196 C533 196 533 196 517 186 L503 178 C474 153 404 126 332 112 L344 219 L332 328 C403 314 474 287 503 262 L517 254 C532 244 532 244 536 244 C543 244 550 252 550 260 C550 267 546 282 540 303 C595 317 622 328 622 338 C622 350 607 356 540 374 C547 399 551 414 551 418 C551 427 544 435 536 435 C531 435 527 433 516 425 L499 413 C472 391 389 359 332 349 C343 402 382 494 423 559 L431 573 Z " />
<glyph glyph-name="bullet" unicode="&#x2022;" horiz-adv-x="633" d="M319 480 C244 480 186 418 186 340 C186 263 245 200 317 200 C389 200 447 263 447 340 C447 416 389 480 319 480 L319 480 Z " />
<glyph glyph-name="ellipsis" unicode="&#x2026;" horiz-adv-x="897" d="M149 167 C88 167 38 127 38 78 C38 28 89 -13 152 -13 C215 -13 261 23 261 72 C261 126 213 167 149 167 L149 167 Z M448 167 C387 167 337 127 337 78 C337 28 388 -13 451 -13 C514 -13 560 23 560 72 C560 126 512 167 448 167 L448 167 Z M747 167 C686 167 636 127 636 78 C636 28 687 -13 750 -13 C813 -13 859 23 859 72 C859 126 811 167 747 167 L747 167 Z " />
<glyph glyph-name="perthousand" unicode="&#x2030;" horiz-adv-x="1163" d="M192 678 C92 678 15 580 15 452 C15 391 37 326 71 285 C101 249 142 230 191 230 C294 230 368 320 368 448 C368 581 294 678 192 678 L192 678 Z M165 618 C165 645 172 655 192 655 C211 655 218 645 218 618 L218 289 C218 262 211 252 192 252 C172 252 165 262 165 289 L165 618 Z M275 0 L538 667 L512 667 L250 0 L275 0 Z M589 437 C491 437 414 338 414 211 C414 150 436 85 470 44 C500 8 541 -11 589 -11 C692 -11 766 80 766 207 C766 341 692 437 589 437 L589 437 Z M564 377 C564 405 571 414 590 414 C609 414 616 404 616 377 L616 48 C616 21 609 11 590 11 C571 11 564 21 564 48 L564 377 Z M974 437 C876 437 799 338 799 211 C799 150 821 85 855 44 C885 8 926 -11 974 -11 C1077 -11 1151 80 1151 207 C1151 341 1077 437 974 437 L974 437 Z M949 377 C949 404 956 414 975 414 C994 414 1001 405 1001 377 L1001 48 C1001 21 994 11 975 11 C956 11 949 21 949 48 L949 377 Z " />
<glyph glyph-name="guilsinglleft" unicode="&#x2039;" horiz-adv-x="329" d="M298 55 L164 208 L298 361 L153 361 L19 208 L153 55 L298 55 Z " />
<glyph glyph-name="guilsinglright" unicode="&#x203a;" horiz-adv-x="329" d="M32 361 L166 208 L32 55 L177 55 L311 208 L177 361 L32 361 Z " />
<glyph glyph-name="uni203E" unicode="&#x203e;" horiz-adv-x="500" d="M0 847 L0 807 L500 807 L500 847 L0 847 Z " />
<glyph glyph-name="fraction" unicode="&#x2044;" horiz-adv-x="75" d="M-139 -13 L243 680 L215 680 L-167 -13 L-139 -13 Z " />
<glyph glyph-name="franc" unicode="&#x20a3;" horiz-adv-x="1022" d="M452 0 L452 23 L368 23 L368 318 C461 319 495 281 499 169 L521 169 L521 501 L499 501 C502 395 456 340 368 341 L368 644 L412 644 C524 649 602 581 620 460 L642 460 L642 667 L22 667 L22 644 L96 644 L96 23 L22 23 L22 0 L452 0 Z M902 0 L902 20 L839 20 L839 216 C844 246 862 278 880 293 C878 283 877 279 877 271 C877 225 910 192 956 192 C1004 192 1042 234 1042 288 C1042 339 1012 374 967 374 C920 374 884 345 839 271 L839 384 C808 376 766 371 720 371 L561 371 L561 351 L624 351 L624 20 L561 20 L561 0 L902 0 Z " />
<glyph glyph-name="Euro" unicode="&#x20ac;" horiz-adv-x="699" d="M77 343 L77 334 L77 330 L77 326 L78 323 L37 323 L29 303 L79 303 C94 110 228 -20 414 -20 C521 -20 594 19 670 117 L648 133 C587 51 520 10 446 10 C392 10 370 41 370 117 L370 303 L511 303 L519 323 L370 323 L370 343 L527 343 L535 363 L370 363 L370 557 C370 632 386 657 432 657 C505 657 582 599 622 516 C637 484 643 458 644 411 L666 411 L666 687 L570 631 C516 673 474 687 409 687 C222 687 94 562 78 363 L37 363 L29 343 L77 343 Z " />
<glyph glyph-name="trademark" unicode="&#x2122;" horiz-adv-x="1008" d="M340 287 L340 307 L292 307 L292 646 C346 623 380 583 388 531 L408 531 L408 667 L6 667 L6 531 L26 531 C39 588 66 620 123 645 L123 307 L74 307 L74 287 L340 287 Z M998 287 L998 307 L953 307 L953 647 L998 647 L998 667 L793 667 L723 488 L650 667 L433 667 L433 647 L471 647 L482 627 L482 404 C483 346 458 303 426 307 L424 307 L424 287 L575 287 L575 307 L570 307 C549 307 538 311 529 320 C513 338 505 369 505 412 L505 591 L625 287 L667 287 L785 590 L785 307 L739 307 L739 287 L998 287 Z " />
<glyph glyph-name="uni2126" unicode="&#x2126;" horiz-adv-x="768" d="M326 0 L308 155 C230 199 180 288 180 382 C180 434 195 493 221 540 C257 605 317 642 385 642 C453 642 513 605 549 540 C575 493 590 434 590 382 C590 288 540 199 462 155 L444 0 L736 0 L736 153 L712 153 C704 108 684 90 643 90 L497 90 L500 128 C535 141 557 151 580 166 C657 215 702 296 702 382 C702 449 673 522 625 578 C564 648 480 686 385 686 C290 686 206 648 145 578 C97 522 68 449 68 382 C68 296 113 215 190 166 C213 151 235 141 270 128 L273 90 L127 90 C86 90 66 108 58 153 L34 153 L34 0 L326 0 Z " />
<glyph glyph-name="partialdiff" unicode="&#x2202;" horiz-adv-x="494" d="M107 673 C152 697 184 706 219 706 C321 706 379 611 379 447 C379 418 377 394 372 346 C308 396 272 412 221 412 C172 412 131 394 95 355 C51 309 26 246 26 184 C26 76 109 -10 213 -10 C282 -10 341 22 383 84 C429 152 462 286 462 402 C462 519 429 610 360 681 C312 730 259 753 195 753 C156 753 121 745 66 724 L107 673 Z M366 312 C350 200 340 158 314 106 C288 54 244 21 201 21 C146 21 113 73 113 159 C113 273 180 367 261 367 C299 367 324 354 366 312 L366 312 Z " />
<glyph glyph-name="Delta" unicode="&#x2206;" horiz-adv-x="612" d="M6 0 L608 0 L327 688 L6 0 Z M77 51 L290 509 L479 51 L77 51 Z " />
<glyph glyph-name="product" unicode="&#x220f;" horiz-adv-x="823" d="M25 -124 L315 -124 L315 -98 L312 -98 C242 -94 221 -67 224 18 L224 594 C224 656 228 677 242 690 C260 707 272 708 413 708 C556 708 568 707 586 690 C600 677 604 656 604 594 L604 18 C607 -67 586 -94 516 -98 L513 -98 L513 -124 L803 -124 L803 -98 L800 -98 C730 -94 709 -67 712 18 L712 609 C709 694 730 721 800 725 L803 725 L803 751 L25 751 L25 725 L28 725 C98 721 119 694 116 609 L116 18 C119 -67 98 -94 28 -98 L25 -98 L25 -124 Z " />
<glyph glyph-name="summation" unicode="&#x2211;" horiz-adv-x="713" d="M176 711 L444 711 C560 710 590 688 606 587 L632 587 L622 752 L23 752 L256 285 L14 -123 L641 -123 L695 87 L669 87 C639 7 605 -12 491 -11 L163 -11 L364 341 L176 711 Z " />
<glyph glyph-name="minus" unicode="&#x2212;" horiz-adv-x="633" d="M539 356 L95 356 L95 313 L539 313 L539 356 Z " />
<glyph glyph-name="uni2215" unicode="&#x2215;" horiz-adv-x="75" d="M-139 -13 L243 680 L215 680 L-167 -13 L-139 -13 Z " />
<glyph glyph-name="uni2219" unicode="&#x2219;" horiz-adv-x="299" d="M149 296 C88 296 38 256 38 207 C38 157 89 116 152 116 C215 116 261 152 261 201 C261 255 213 296 149 296 L149 296 Z " />
<glyph glyph-name="radical" unicode="&#x221a;" horiz-adv-x="549" d="M363 -35 L515 908 L480 913 L353 123 L156 520 L10 449 L26 414 L121 461 L363 -35 Z " />
<glyph glyph-name="infinity" unicode="&#x221e;" horiz-adv-x="713" d="M357 302 C299 375 234 414 171 414 C86 414 26 351 26 263 C26 176 84 115 167 115 C224 115 281 142 327 192 C334 200 340 206 357 227 C416 155 485 114 548 114 C631 114 688 175 688 265 C688 354 629 414 543 414 C476 414 412 376 357 302 L357 302 Z M391 264 C434 325 493 362 546 362 C600 362 638 321 638 264 C638 204 603 166 549 166 C496 166 460 188 391 264 L391 264 Z M324 266 C276 204 216 167 163 167 C111 167 76 207 76 266 C76 323 113 362 167 362 C218 362 257 338 324 266 L324 266 Z " />
<glyph glyph-name="integral" unicode="&#x222b;" horiz-adv-x="274" d="M180 576 C180 653 179 691 176 746 C174 774 173 800 173 815 C173 855 184 878 202 878 C208 878 213 876 215 872 C232 845 239 839 256 839 C276 839 291 853 291 871 C291 898 267 916 231 916 C186 916 152 887 138 838 C123 784 113 682 113 577 L113 232 C113 160 114 124 117 63 C119 34 120 4 120 -12 C120 -47 108 -70 89 -70 C81 -70 74 -65 68 -52 C59 -35 51 -30 37 -30 C17 -30 2 -44 2 -63 C2 -89 26 -107 62 -107 C107 -107 141 -78 155 -29 C170 25 180 126 180 232 L180 576 Z " />
<glyph glyph-name="approxequal" unicode="&#x2248;" horiz-adv-x="549" d="M489 251 C444 199 423 187 384 187 C365 187 354 190 285 211 C212 234 188 239 160 239 C101 239 54 211 14 155 L57 121 C103 174 120 184 159 184 C180 184 180 184 271 157 C350 133 354 132 385 132 C449 132 496 160 527 217 L489 251 Z M489 408 C443 356 423 344 384 344 C365 344 354 347 285 368 C212 391 188 396 160 396 C101 396 54 369 14 312 L57 278 C103 331 119 341 159 341 C180 341 180 341 271 314 C350 290 354 289 385 289 C449 289 496 317 527 374 L489 408 Z " />
<glyph glyph-name="notequal" unicode="&#x2260;" horiz-adv-x="549" d="M187 142 L115 -1 L161 -25 L246 142 L540 142 L540 197 L273 197 L344 336 L540 336 L540 391 L371 391 L439 525 L392 549 L312 391 L15 391 L15 336 L285 336 L215 197 L15 197 L15 142 L187 142 Z " />
<glyph glyph-name="lessequal" unicode="&#x2264;" horiz-adv-x="549" d="M526 55 L29 55 L29 0 L526 0 L526 55 Z M526 639 L29 405 L29 350 L526 117 L526 179 L108 378 L526 577 L526 639 Z " />
<glyph glyph-name="greaterequal" unicode="&#x2265;" horiz-adv-x="549" d="M526 55 L29 55 L29 0 L526 0 L526 55 Z M29 639 L29 577 L447 378 L29 179 L29 117 L526 350 L526 405 L29 639 Z " />
<glyph glyph-name="lozenge" unicode="&#x25ca;" horiz-adv-x="494" d="M209 0 L269 -1 L466 374 L277 740 L214 740 L18 377 L209 0 Z M240 58 L81 376 L245 683 L402 373 L240 58 Z " />
<glyph glyph-name="fi" unicode="&#xfb01;" horiz-adv-x="698" d="M691 20 L628 20 L628 426 C591 417 555 413 509 413 L300 413 C262 413 248 416 230 426 C189 450 161 499 161 550 C161 610 200 664 243 664 C247 664 250 663 256 660 C215 645 191 610 191 567 C191 518 226 484 276 484 C328 484 363 520 363 572 C363 636 312 683 242 683 C183 683 126 649 95 594 C77 561 69 527 69 477 L69 413 L6 413 L6 393 L69 393 L69 20 L6 20 L6 0 L344 0 L344 20 L284 20 L284 393 L413 393 L413 20 L361 20 L361 0 L691 0 L691 20 Z M520 674 C456 674 410 640 410 592 C410 542 453 509 517 509 C586 509 629 541 629 592 C629 640 583 674 520 674 L520 674 Z " />
<glyph glyph-name="fl" unicode="&#xfb02;" horiz-adv-x="698" d="M354 393 L353 413 L300 413 C262 413 248 416 230 426 C189 450 161 499 161 550 C161 610 200 664 243 664 C247 664 250 663 256 660 C215 645 191 610 191 567 C191 518 226 484 276 484 C328 484 363 520 363 572 C363 636 312 683 243 683 C183 683 126 649 95 594 C77 561 69 527 69 477 L69 413 L6 413 L6 393 L69 393 L69 20 L6 20 L6 0 L344 0 L344 20 L284 20 L284 393 L354 393 Z M691 0 L691 20 L628 20 L628 680 C603 672 569 667 531 667 L363 667 L363 647 L413 647 L413 20 L362 20 L362 0 L691 0 Z " />
</font>
</svg>
