<?xml version="1.0" encoding="UTF-8"?>
<svg xmlns="http://www.w3.org/2000/svg" xmlns:xlink="http://www.w3.org/1999/xlink" version="1.2" >
<font id="Baskerville URW Extra Narrow Bold">
<font-face  font-family="Baskerville URW Extra Narrow" units-per-em="1000" ascent="678" descent="-322" font-style="normal" font-weight="700" font-stretch="semi-condensed" cap-height="666" x-height="403" underline-position="-92" underline-thickness="73" />
<missing-glyph  horiz-adv-x="250" d="" />
<glyph glyph-name="NULL" d="" />
<glyph glyph-name="CR" unicode="&#xd;" horiz-adv-x="250" d="" />
<glyph glyph-name="space" unicode="&#x20;" horiz-adv-x="250" d="" />
<glyph glyph-name="exclam" unicode="&#x21;" horiz-adv-x="267" d="M149 210 L186 551 C188 576 190 599 190 608 C190 649 168 673 131 673 C92 673 70 650 70 608 C70 594 72 572 74 549 L110 210 L149 210 Z M129 136 C91 136 60 102 60 59 C60 18 91 -17 128 -17 C167 -17 198 17 198 60 C198 102 167 136 129 136 L129 136 Z " />
<glyph glyph-name="quotedbl" unicode="&#x22;" horiz-adv-x="394" d="M128 399 L165 667 L37 667 L73 399 L128 399 Z M321 399 L358 667 L230 667 L266 399 L321 399 Z " />
<glyph glyph-name="numbersign" unicode="&#x23;" horiz-adv-x="522" d="M348 227 L447 227 L455 283 L362 283 L386 397 L485 397 L493 453 L400 453 L448 667 L393 667 L344 453 L239 453 L287 667 L232 667 L184 453 L78 453 L70 397 L170 397 L146 283 L40 283 L31 227 L132 227 L81 0 L136 0 L187 227 L293 227 L241 0 L297 0 L348 227 Z M330 397 L307 283 L201 283 L225 397 L330 397 Z " />
<glyph glyph-name="dollar" unicode="&#x24;" horiz-adv-x="478" d="M253 -123 L253 -13 C363 -1 434 77 434 185 C434 271 388 331 285 381 L261 393 L253 397 L253 609 C295 602 317 581 326 542 C337 498 352 478 375 478 C396 478 415 500 415 525 C415 591 341 648 253 652 L253 680 L209 680 L209 650 C170 644 145 635 121 618 C79 589 53 534 53 476 C53 397 93 341 180 296 C189 291 199 286 209 281 L208 31 C169 38 147 58 134 100 C123 132 110 144 89 144 C65 144 47 123 47 97 C47 38 113 -8 208 -15 L208 -123 L253 -123 Z M253 259 C256 257 259 255 260 254 C267 250 273 246 280 241 C323 214 340 185 340 138 C340 80 306 38 253 30 L253 259 Z M209 416 C191 425 181 431 178 433 C145 455 129 483 129 518 C129 562 157 599 196 605 C199 605 202 606 202 606 C203 606 206 607 208 608 L209 416 Z " />
<glyph glyph-name="percent" unicode="&#x25;" horiz-adv-x="672" d="M161 680 C128 680 99 669 78 649 C46 618 25 561 25 506 C25 399 76 334 159 334 C193 334 222 345 243 365 C274 394 294 450 294 507 C294 558 277 611 252 641 C229 667 199 680 161 680 L161 680 Z M160 645 C185 645 198 603 198 518 C198 411 187 366 160 366 C130 366 121 403 121 522 C121 606 133 645 160 645 L160 645 Z M207 0 L515 660 L464 660 L156 0 L207 0 Z M512 333 C479 333 450 322 429 302 C397 271 376 215 376 160 C376 53 427 -12 510 -12 C544 -12 574 -1 595 19 C626 48 646 105 646 162 C646 212 630 264 604 293 C581 320 552 333 512 333 L512 333 Z M511 300 C537 300 550 258 550 173 C550 67 538 22 511 22 C481 22 472 58 472 177 C472 261 484 300 511 300 L511 300 Z " />
<glyph glyph-name="ampersand" unicode="&#x26;" horiz-adv-x="676" d="M362 288 C340 322 317 357 294 391 C362 430 398 482 398 539 C398 606 344 654 269 654 C187 654 131 596 131 510 C131 469 145 425 172 378 C175 373 175 372 177 368 C79 300 39 242 39 165 C39 66 116 -15 209 -15 C265 -15 316 10 376 67 C421 13 470 -14 525 -14 C570 -14 614 7 635 40 C650 62 657 85 660 121 L620 121 C612 80 594 61 564 61 C530 61 499 85 460 143 C456 149 455 150 450 157 C472 187 483 205 508 254 C547 328 570 351 617 363 L617 406 L423 406 L423 363 C455 361 472 346 474 319 L474 318 C476 298 454 245 422 196 L362 288 Z M347 103 C325 77 298 62 271 62 C214 62 155 144 155 224 C155 259 172 297 201 327 C208 317 230 283 269 224 C299 178 324 139 347 103 L347 103 Z M272 431 C233 483 216 518 216 549 C216 584 241 609 276 609 C316 609 345 577 345 535 C345 495 324 465 272 431 L272 431 Z " />
<glyph glyph-name="quotesingle" unicode="&#x27;" horiz-adv-x="220" d="M140 399 L176 667 L44 667 L81 399 L140 399 Z " />
<glyph glyph-name="parenleft" unicode="&#x28;" horiz-adv-x="280" d="M267 -243 C186 -132 136 45 136 220 C136 393 178 542 265 677 L209 677 C122 558 72 392 72 218 C72 46 127 -137 211 -243 L267 -243 Z " />
<glyph glyph-name="parenright" unicode="&#x29;" horiz-adv-x="280" d="M69 -243 C153 -136 208 46 208 218 C208 392 159 557 71 677 L15 677 C101 544 144 393 144 220 C144 45 94 -132 13 -243 L69 -243 Z " />
<glyph glyph-name="asterisk" unicode="&#x2a;" horiz-adv-x="447" d="M205 464 C188 470 165 488 139 516 C108 550 92 561 71 561 C46 561 23 533 23 502 C23 466 50 442 90 442 C96 442 99 442 103 443 C125 445 125 445 128 445 C144 445 182 436 195 428 C185 414 161 397 123 378 C78 357 60 337 60 309 C60 279 87 252 117 252 C144 252 161 273 175 320 C189 369 204 396 222 406 C233 401 252 373 262 347 C286 272 300 252 328 252 C357 252 384 279 384 309 C384 338 365 358 316 381 C280 398 263 410 248 428 C267 438 297 446 316 446 C322 446 329 446 339 444 C347 443 354 443 360 443 C395 443 422 469 422 503 C422 536 400 564 373 564 C355 564 338 553 314 528 C280 490 263 475 238 464 C237 468 237 471 237 474 C237 494 244 524 255 555 C269 595 272 606 272 624 C272 653 250 676 221 676 C193 676 170 653 170 624 C170 608 177 579 189 547 C199 521 205 494 205 476 L205 464 Z " />
<glyph glyph-name="plus" unicode="&#x2b;" horiz-adv-x="450" d="M8 396 L8 323 L186 323 L186 123 L262 123 L262 323 L441 323 L441 396 L262 396 L262 596 L186 596 L186 396 L8 396 Z " />
<glyph glyph-name="comma" unicode="&#x2c;" horiz-adv-x="277" d="M53 -197 C151 -187 216 -108 216 -1 C216 79 179 133 124 133 C82 133 53 101 53 55 C53 15 78 -15 111 -15 C116 -15 122 -14 128 -12 C134 -11 138 -10 142 -10 C151 -10 158 -21 158 -36 C158 -91 114 -138 53 -150 L53 -197 Z " />
<glyph glyph-name="hyphen" unicode="&#x2d;" horiz-adv-x="302" d="M29 247 L29 182 L275 182 L275 247 L29 247 Z " />
<glyph glyph-name="period" unicode="&#x2e;" horiz-adv-x="277" d="M137 136 C99 136 68 102 68 59 C68 18 99 -17 136 -17 C175 -17 206 17 206 60 C206 102 175 136 137 136 L137 136 Z " />
<glyph glyph-name="slash" unicode="&#x2f;" horiz-adv-x="286" d="M256 681 L181 681 L-13 -253 L62 -253 L256 681 Z " />
<glyph glyph-name="zero" unicode="0" horiz-adv-x="478" d="M238 672 C171 672 112 630 76 557 C48 500 34 422 34 325 C34 222 49 150 84 86 C118 24 176 -15 236 -15 C308 -15 366 27 404 107 C431 164 443 234 443 331 C443 438 428 508 393 571 C358 635 301 672 238 672 L238 672 Z M312 270 L312 256 C312 173 307 110 299 85 C288 51 265 31 240 31 C214 31 194 50 182 88 C170 126 165 199 165 331 C165 443 170 519 178 556 C189 602 211 627 240 627 C293 627 318 552 313 410 C312 392 312 361 312 319 L312 270 Z " />
<glyph glyph-name="one" unicode="1" horiz-adv-x="478" d="M106 579 L118 579 C171 578 182 562 181 488 L181 122 C179 58 170 44 131 44 L113 44 L113 0 L377 0 L377 44 L359 44 C317 46 309 59 310 131 L310 672 L268 672 C222 639 179 626 106 622 L106 579 Z " />
<glyph glyph-name="two" unicode="2" horiz-adv-x="478" d="M51 0 L333 0 C359 0 369 -5 368 -20 C368 -21 367 -26 366 -33 L365 -42 L364 -44 L402 -44 L426 86 L163 86 C187 111 216 145 269 208 C396 358 424 409 424 486 C424 597 349 672 237 672 C134 672 51 601 51 513 C51 467 71 416 89 416 C93 416 100 419 108 424 L109 425 C132 441 138 446 139 452 L140 457 L141 459 C142 463 143 465 143 467 C143 469 143 469 142 473 L142 474 C134 500 133 507 133 526 C133 583 163 624 206 624 C254 624 287 571 287 493 C287 400 253 308 177 195 C136 134 96 86 51 41 L51 0 Z " />
<glyph glyph-name="three" unicode="3" horiz-adv-x="478" d="M282 381 C281 380 280 380 279 380 C278 380 278 380 278 381 C278 387 285 392 308 405 C366 436 408 497 408 549 C408 621 342 672 248 672 C143 672 60 605 60 520 C60 483 76 451 95 451 C100 451 104 452 107 454 L119 460 C119 460 124 462 128 464 C148 473 162 482 162 487 C162 490 161 492 155 501 C149 511 145 530 145 546 C145 590 176 625 215 625 C254 625 279 587 279 530 C279 468 248 414 186 367 C160 347 149 334 149 320 C149 307 158 294 168 294 C176 294 179 297 193 314 C207 331 218 338 233 338 C271 338 289 293 289 196 C289 143 282 104 266 77 C250 47 220 29 189 29 C160 29 142 46 131 82 C118 124 107 138 83 138 C59 138 38 114 38 86 C38 28 102 -15 190 -15 C324 -15 425 83 425 213 C425 315 370 381 285 381 L282 381 Z " />
<glyph glyph-name="four" unicode="4" horiz-adv-x="478" d="M232 226 L232 129 C233 61 223 45 179 44 L161 44 L161 0 L427 0 L427 44 L411 44 C370 45 361 62 362 132 L362 226 L446 226 L457 314 L433 314 L429 304 C420 282 418 281 399 281 L395 281 L388 281 L376 281 L362 281 L362 669 L295 669 L30 285 L30 226 L232 226 Z M232 281 L76 281 L232 518 L232 281 Z " />
<glyph glyph-name="five" unicode="5" horiz-adv-x="478" d="M130 337 C148 377 170 395 200 395 C258 395 283 343 283 224 C283 95 251 30 188 30 C158 30 137 46 124 79 C105 125 95 137 73 137 C50 137 30 114 30 88 C30 31 101 -15 188 -15 C324 -15 421 85 421 228 C421 352 342 445 236 445 C193 445 157 429 127 397 L132 570 L293 570 C337 568 339 570 372 660 L96 660 L85 337 L130 337 Z " />
<glyph glyph-name="six" unicode="6" horiz-adv-x="478" d="M169 379 C169 528 212 624 279 624 C305 624 321 614 337 587 C354 557 367 546 386 546 C410 546 429 567 429 593 C429 637 375 672 308 672 C150 672 40 514 40 284 C40 103 123 -15 251 -15 C363 -15 446 80 446 209 C446 292 418 351 361 388 C331 407 296 418 265 418 C230 418 198 405 169 379 L169 379 Z M244 373 C264 373 285 362 295 346 C315 314 322 273 322 186 C322 78 300 30 249 30 C193 30 168 97 168 245 C168 327 195 373 244 373 L244 373 Z " />
<glyph glyph-name="seven" unicode="7" horiz-adv-x="478" d="M432 660 L170 660 C147 660 139 664 139 676 C139 678 139 680 140 683 L103 683 L51 503 L68 503 C90 503 90 503 92 511 C104 549 113 556 150 556 L152 556 L158 556 L358 556 L171 118 C146 60 144 52 144 31 C144 6 166 -15 193 -15 C226 -15 246 13 267 86 L432 660 Z " />
<glyph glyph-name="eight" unicode="8" horiz-adv-x="478" d="M299 349 C383 373 427 427 427 506 C427 606 351 674 240 674 C128 674 54 607 54 506 C54 427 101 369 184 349 C87 330 37 270 37 175 C37 61 118 -15 241 -15 C363 -15 443 61 443 177 C443 272 392 332 299 349 L299 349 Z M240 631 C276 631 297 583 297 498 C297 414 277 368 240 368 C203 368 183 415 183 500 C183 552 188 581 200 603 C211 621 225 631 240 631 L240 631 Z M240 324 C259 324 276 313 289 291 C302 270 308 230 308 171 C308 77 285 29 240 29 C194 29 172 79 172 181 C172 273 196 324 240 324 L240 324 Z " />
<glyph glyph-name="nine" unicode="9" horiz-adv-x="478" d="M319 277 C314 183 311 160 299 119 C283 64 249 32 208 32 C183 32 167 43 151 69 C133 99 122 108 101 108 C78 108 59 88 59 63 C59 19 112 -15 179 -15 C337 -15 442 141 442 373 C442 557 363 672 237 672 C125 672 42 577 42 449 C42 325 119 235 225 235 C251 235 273 242 292 257 C312 272 312 272 319 277 L319 277 Z M318 440 C318 334 294 283 243 283 C222 283 201 297 191 317 C174 350 169 388 169 471 C169 537 174 568 188 595 C198 615 219 628 241 628 C291 628 318 563 318 441 L318 440 Z " />
<glyph glyph-name="colon" unicode="&#x3a;" horiz-adv-x="277" d="M139 136 C101 136 70 102 70 59 C70 18 101 -17 138 -17 C177 -17 208 17 208 60 C208 102 177 136 139 136 L139 136 Z M139 423 C102 423 70 388 70 347 C70 304 100 269 139 269 C177 269 208 304 208 346 C208 389 177 423 139 423 L139 423 Z " />
<glyph glyph-name="semicolon" unicode="&#x3b;" horiz-adv-x="277" d="M53 -197 C151 -187 216 -108 216 -1 C216 79 179 133 124 133 C82 133 53 101 53 55 C53 15 78 -15 111 -15 C116 -15 122 -14 128 -12 C134 -11 138 -10 142 -10 C151 -10 158 -21 158 -36 C158 -91 114 -138 53 -150 L53 -197 Z M134 423 C96 423 65 389 65 346 C65 304 96 269 133 269 C172 269 203 303 203 345 C203 389 173 423 134 423 L134 423 Z " />
<glyph glyph-name="less" unicode="&#x3c;" horiz-adv-x="450" d="M414 633 L35 369 L35 361 L414 73 L414 239 L186 411 L414 571 L414 633 Z " />
<glyph glyph-name="equal" unicode="&#x3d;" horiz-adv-x="477" d="M8 471 L8 400 L469 400 L469 471 L8 471 Z M21 320 L21 249 L455 249 L455 320 L21 320 Z " />
<glyph glyph-name="greater" unicode="&#x3e;" horiz-adv-x="450" d="M35 73 L414 337 L414 346 L35 633 L35 468 L263 296 L35 136 L35 73 Z " />
<glyph glyph-name="question" unicode="&#x3f;" horiz-adv-x="409" d="M145 136 C107 136 77 102 77 59 C77 18 108 -17 144 -17 C183 -17 213 17 213 60 C213 102 183 136 145 136 L145 136 Z M121 209 L169 209 L169 326 C188 314 207 309 228 309 C309 309 369 381 369 478 C369 594 294 673 184 673 C104 673 38 629 38 575 C38 554 55 536 75 536 C93 536 106 548 113 572 C126 617 138 629 166 629 C212 629 239 574 239 479 C239 406 221 363 190 363 C178 363 167 371 159 387 L121 387 L121 209 Z " />
<glyph glyph-name="at" unicode="&#x40;" horiz-adv-x="705" d="M455 477 C432 510 406 525 372 525 C336 525 307 511 275 478 C222 424 190 343 190 266 C190 194 234 137 290 137 C320 137 362 161 385 191 C392 201 393 203 394 203 C395 203 396 201 396 199 L396 198 C396 191 406 173 415 162 C427 147 442 140 460 140 C559 140 654 267 654 401 C654 560 536 679 378 679 C196 679 51 522 51 326 C51 139 188 -12 357 -12 C427 -12 501 17 549 65 C572 87 589 108 616 146 L571 150 C547 122 535 110 519 95 C477 57 420 35 364 35 C220 35 101 165 101 323 C101 396 126 474 169 530 C217 594 298 634 378 634 C509 634 608 532 608 397 C608 337 586 274 550 230 C526 199 501 182 481 182 C468 182 459 194 459 211 C459 216 460 223 461 230 C462 236 462 240 463 244 C465 255 466 263 467 266 L533 515 C508 512 493 512 463 511 L455 477 Z M409 329 C408 327 408 325 407 320 C404 308 402 301 402 301 C394 270 385 246 376 230 C355 194 332 175 309 175 C284 175 267 199 267 235 C267 294 289 371 323 434 C342 468 367 488 392 488 C416 488 435 464 435 434 C435 426 431 400 427 389 L409 329 Z " />
<glyph glyph-name="A" unicode="A" horiz-adv-x="591" d="M603 0 L603 44 L598 44 C555 50 543 66 507 157 L316 678 L275 678 L90 170 C62 87 34 50 -6 44 L-12 44 L-12 0 L180 0 L180 44 L173 44 C139 44 116 63 116 91 C116 107 120 121 138 170 L149 202 L348 202 L376 128 C385 102 391 82 391 73 C391 53 372 44 333 44 L327 44 L327 0 L603 0 Z M333 247 L165 247 L247 475 L333 247 Z " />
<glyph glyph-name="B" unicode="B" horiz-adv-x="600" d="M27 665 L27 621 L35 621 C88 622 101 602 101 518 L101 149 C101 65 88 44 36 44 L25 44 L25 0 L317 0 C397 0 441 8 483 30 C532 57 563 114 563 177 C563 276 500 337 381 356 C486 383 535 433 535 512 C535 565 509 611 464 637 C422 662 365 672 275 672 C245 672 245 672 139 668 L27 665 Z M249 331 L266 331 C321 331 344 325 363 306 C389 280 400 241 400 175 C400 135 395 110 384 90 C368 63 337 47 303 47 C257 47 249 66 249 166 L249 331 Z M249 378 L249 625 C256 626 261 626 268 626 C347 626 375 594 375 501 C375 455 367 426 349 405 C330 384 312 378 257 378 L254 378 L249 378 Z " />
<glyph glyph-name="C" unicode="C" horiz-adv-x="662" d="M567 254 C555 182 524 114 490 84 C458 57 416 40 378 40 C326 40 274 70 247 117 C219 166 207 229 207 328 C207 527 263 628 374 628 C470 628 535 554 562 412 L601 412 L595 661 L556 661 C555 659 555 658 554 654 C553 637 547 618 536 593 C485 650 421 679 342 679 C268 679 201 653 150 605 C81 540 39 435 39 326 C39 130 166 -13 340 -13 C421 -13 492 19 541 76 C553 58 561 39 567 10 L606 10 L606 254 L567 254 Z " />
<glyph glyph-name="D" unicode="D" horiz-adv-x="709" d="M26 622 L36 622 C89 623 102 603 102 519 L102 149 C102 65 89 44 37 44 L25 44 L25 0 L261 0 C411 0 465 8 520 40 C615 94 669 200 669 329 C669 457 614 563 520 616 C452 654 356 672 218 672 C196 672 179 672 149 671 C125 671 120 671 84 669 C54 667 43 666 26 665 L26 622 Z M250 626 C263 627 274 627 286 627 C348 627 385 615 421 582 C474 534 501 447 501 326 C501 182 463 87 397 64 C366 53 337 47 317 47 C261 47 250 67 250 171 L250 626 Z " />
<glyph glyph-name="E" unicode="E" horiz-adv-x="590" d="M523 215 C493 89 450 45 360 47 L336 47 C265 46 249 69 251 164 L251 327 L309 327 C365 326 378 310 379 243 L379 235 L417 235 L417 462 L379 462 L379 455 C377 390 365 375 307 374 L251 374 L251 621 L348 621 C431 623 458 597 483 496 L523 496 L512 667 L29 667 L29 624 L38 624 C88 626 103 601 103 521 L103 149 C103 66 88 43 36 44 L25 44 L25 0 L556 0 L563 215 L523 215 Z " />
<glyph glyph-name="F" unicode="F" horiz-adv-x="527" d="M515 667 L25 667 L25 624 L35 624 C90 625 102 606 103 521 L103 149 C103 65 90 44 36 44 L25 44 L25 0 L333 0 L333 44 L319 44 C266 43 250 68 251 149 L251 326 L297 326 C349 325 361 310 366 237 L366 230 L407 230 L407 461 L366 461 L366 454 C361 388 349 374 297 373 L251 373 L251 621 L347 621 C404 620 422 614 440 590 C460 563 472 533 479 494 L520 494 L515 667 Z " />
<glyph glyph-name="G" unicode="G" horiz-adv-x="704" d="M413 300 L413 256 L422 256 C473 252 487 238 489 186 L489 161 C489 85 443 37 368 37 C317 37 274 62 249 105 C222 153 210 216 210 319 C210 423 223 499 249 546 C277 597 324 625 380 625 C470 625 535 556 559 436 L601 436 L598 667 L556 667 C553 639 548 618 537 595 C482 653 421 680 346 680 C272 680 204 653 153 604 C82 535 39 431 39 325 C39 131 171 -13 347 -13 C392 -13 425 -7 492 13 C536 26 578 34 608 34 C613 34 618 34 628 32 L628 149 C628 236 632 246 679 255 L686 256 L686 300 L413 300 Z " />
<glyph glyph-name="H" unicode="H" horiz-adv-x="752" d="M503 325 L503 149 C503 66 488 43 436 44 L427 29 L427 0 L726 0 L726 44 L717 44 C665 44 651 66 651 149 L651 521 C651 605 664 624 719 623 L726 623 L726 667 L427 667 L427 623 L434 623 C489 625 502 605 503 521 L503 377 L249 377 L249 521 C249 604 262 624 317 623 L323 623 L323 667 L25 667 L25 623 L32 623 C87 625 101 604 101 521 L101 149 C102 68 86 43 34 44 L25 44 L25 0 L323 0 L323 44 L315 44 C264 43 249 66 249 149 L249 325 L503 325 Z " />
<glyph glyph-name="I" unicode="I" horiz-adv-x="354" d="M25 623 L33 623 C89 624 101 606 102 521 L102 149 C102 66 88 44 35 44 L25 44 L25 0 L328 0 L328 44 L317 44 C263 44 250 65 250 149 L250 521 C250 606 263 624 318 623 L328 623 L328 667 L25 667 L25 623 Z " />
<glyph glyph-name="J" unicode="J" horiz-adv-x="354" d="M27 667 L27 623 L41 623 C97 624 110 605 110 521 L110 27 C110 -87 106 -118 86 -157 C74 -181 53 -194 28 -194 C13 -194 -4 -188 -8 -181 C-11 -177 -12 -172 -12 -159 C-12 -156 -12 -149 -11 -143 L-11 -135 C-11 -98 -34 -74 -69 -74 C-106 -74 -134 -103 -134 -141 C-134 -198 -71 -238 20 -238 C116 -238 190 -201 226 -136 C251 -91 258 -46 258 57 L258 521 C258 606 271 624 327 623 L336 623 L336 667 L27 667 Z " />
<glyph glyph-name="K" unicode="K" horiz-adv-x="703" d="M252 339 L252 521 C252 605 265 624 320 623 L329 623 L329 667 L28 667 L28 623 L36 623 C91 624 103 606 104 521 L104 149 C104 66 90 44 37 44 L25 44 L25 0 L324 0 L324 44 L319 44 C266 44 252 66 252 149 L252 274 L301 330 L432 144 L436 136 C437 135 443 127 448 119 C463 101 471 85 471 74 C471 53 450 44 405 44 L398 44 L398 0 L731 0 L731 44 L726 44 C672 44 640 70 579 160 L395 426 L467 501 C557 594 594 618 652 623 L658 623 L658 667 L406 667 L406 623 L412 623 C445 623 463 611 463 589 C463 570 450 550 414 511 L252 339 Z " />
<glyph glyph-name="L" unicode="L" horiz-adv-x="575" d="M562 213 L524 213 C494 90 450 47 355 47 L332 47 C261 48 249 63 251 151 L251 521 C251 606 264 624 319 623 L335 623 L335 667 L25 667 L25 623 L34 623 C90 624 103 606 103 521 L103 148 C103 65 90 44 36 44 L25 44 L25 0 L559 0 L562 213 Z " />
<glyph glyph-name="M" unicode="M" horiz-adv-x="885" d="M254 667 L21 667 L21 623 L30 623 C90 625 110 599 110 519 L110 189 C114 89 92 51 26 44 L21 44 L21 0 L249 0 L249 44 L245 44 C177 51 153 89 157 186 L157 546 L385 0 L414 0 L628 552 L628 149 C628 65 615 44 563 44 L549 44 L549 0 L859 0 L859 44 L842 44 C789 45 776 65 776 149 L776 521 C777 608 788 624 844 623 L858 623 L858 667 L630 667 L445 190 L254 667 Z " />
<glyph glyph-name="N" unicode="N" horiz-adv-x="700" d="M594 -12 L594 513 C592 585 611 611 673 623 L680 623 L680 667 L451 667 L451 623 L459 623 C521 619 546 587 544 517 L544 221 L214 667 L21 667 L21 623 L26 623 C84 623 101 599 105 507 L105 162 C105 106 104 97 96 83 C84 61 53 45 25 44 L21 44 L21 0 L243 0 L243 44 L233 44 C209 43 179 60 166 82 C156 99 156 104 155 163 L155 522 L545 -12 L594 -12 Z " />
<glyph glyph-name="O" unicode="O" horiz-adv-x="743" d="M377 679 C286 679 206 651 148 598 C79 534 39 438 39 335 C39 129 175 -13 371 -13 C567 -13 704 129 704 332 C704 533 566 679 377 679 L377 679 Z M372 628 C420 628 460 602 488 554 C515 507 530 423 530 323 C530 136 476 38 373 38 C321 38 279 65 249 119 C226 162 213 242 213 346 C213 526 270 628 372 628 L372 628 Z " />
<glyph glyph-name="P" unicode="P" horiz-adv-x="574" d="M25 667 L25 623 L38 623 C93 624 106 605 106 521 L106 148 C106 65 93 44 39 44 L28 44 L28 0 L336 0 L336 44 L321 44 C268 44 254 66 254 148 L254 301 L320 301 C392 301 433 309 473 330 C524 358 556 417 556 486 C556 554 525 611 472 640 C425 665 384 673 295 673 C255 673 141 671 86 669 L25 667 Z M254 349 L254 625 L271 625 C295 625 313 623 324 621 C370 608 396 559 396 484 C396 424 378 379 346 361 C330 352 314 349 285 349 L254 349 Z " />
<glyph glyph-name="Q" unicode="Q" horiz-adv-x="742" d="M476 1 C617 44 704 169 704 332 C704 534 566 679 372 679 C177 679 39 535 39 332 C39 201 99 87 198 31 C243 4 308 -13 359 -13 C365 -13 371 -13 379 -12 L341 -36 C222 -113 218 -116 218 -142 C218 -157 229 -169 242 -169 C253 -169 264 -162 279 -145 C310 -111 330 -100 361 -100 C399 -100 443 -121 485 -159 C538 -206 538 -206 552 -216 C589 -241 627 -253 674 -253 C778 -253 847 -189 862 -78 L824 -78 C804 -117 766 -139 716 -139 C690 -139 638 -130 618 -122 C552 -93 552 -93 536 -88 C483 -70 426 -57 397 -57 L386 -57 L476 1 Z M370 628 C417 628 462 599 490 551 C515 507 530 424 530 331 C530 141 475 38 374 38 C301 38 252 87 232 178 C220 235 213 300 213 353 C213 524 272 628 370 628 L370 628 Z " />
<glyph glyph-name="R" unicode="R" horiz-adv-x="652" d="M681 0 L681 44 L676 44 C629 47 599 76 536 179 C473 281 454 306 423 329 C516 358 561 411 561 494 C561 555 531 608 479 637 C436 661 359 672 238 672 L219 672 C91 670 86 670 65 669 L26 667 L26 623 L37 623 C93 624 106 605 106 521 L106 149 C106 66 92 44 38 44 L25 44 L25 0 L336 0 L336 44 L320 44 C267 44 254 65 254 149 L254 303 L259 303 C323 306 329 301 404 158 C443 83 482 20 502 0 L681 0 Z M254 351 L254 621 C265 622 271 622 280 622 C338 622 366 610 385 578 C398 554 404 527 404 488 C404 427 387 385 355 366 C337 356 310 351 269 351 L265 351 L254 351 Z " />
<glyph glyph-name="S" unicode="S" horiz-adv-x="503" d="M51 10 L94 10 C98 35 103 53 111 67 C151 16 210 -13 275 -13 C387 -13 470 73 470 189 C470 243 452 293 418 330 C394 357 354 383 279 420 C190 465 162 495 162 548 C162 597 195 632 243 632 C307 632 359 573 380 478 L419 478 L419 667 L379 667 C374 639 372 634 361 617 C324 658 280 679 228 679 C128 679 52 598 52 491 C52 442 69 395 98 362 C124 332 155 311 244 262 C320 221 350 185 350 136 C350 79 309 37 253 37 C206 37 163 65 133 116 C116 145 105 178 94 233 L51 233 L51 10 Z " />
<glyph glyph-name="T" unicode="T" horiz-adv-x="624" d="M53 487 C70 599 89 620 177 620 L236 620 L236 149 C236 65 222 44 169 44 L150 44 L150 0 L471 0 L471 44 L452 44 C398 44 384 65 384 149 L384 620 L447 620 C527 621 548 598 570 487 L610 487 L609 667 L14 667 L13 487 L53 487 Z " />
<glyph glyph-name="U" unicode="U" horiz-adv-x="698" d="M452 667 L452 623 L457 623 C519 621 547 586 546 511 L546 286 C546 201 543 174 532 148 C505 84 447 44 380 44 C327 44 282 69 258 110 C238 145 232 183 232 275 L232 521 C232 604 247 624 304 623 L314 623 L314 667 L16 667 L16 623 L24 623 C81 624 96 603 97 521 L96 254 C96 169 108 122 140 80 C185 20 258 -13 346 -13 C413 -13 477 9 520 46 C569 88 596 165 596 260 L596 519 C594 584 615 611 675 623 L681 623 L681 667 L452 667 Z " />
<glyph glyph-name="V" unicode="V" horiz-adv-x="639" d="M343 -14 L524 458 C576 593 596 621 639 623 L646 623 L651 623 L651 667 L436 667 L436 623 L442 623 C482 623 509 604 509 575 C509 560 501 529 488 495 L365 170 L231 520 C219 551 212 578 212 590 C212 612 234 623 277 623 L283 623 L283 667 L-12 667 L-12 623 L-6 623 C47 620 57 610 92 520 C94 514 96 508 98 503 L301 -14 L343 -14 Z " />
<glyph glyph-name="W" unicode="W" horiz-adv-x="847" d="M637 -14 L761 472 C792 592 808 620 849 623 L856 623 L856 667 L674 667 L674 623 L678 623 C711 623 734 601 734 568 C734 554 729 527 723 500 L647 201 L487 667 L434 667 L297 201 L205 529 C198 553 194 577 194 588 C194 611 210 622 243 623 L248 623 L248 667 L-9 667 L-9 623 L-2 623 C40 621 49 608 76 511 L222 -14 L276 -14 L419 468 L584 -14 L637 -14 Z " />
<glyph glyph-name="X" unicode="X" horiz-adv-x="714" d="M679 667 L445 667 L445 623 L452 623 C490 623 509 613 509 592 C509 579 499 559 482 536 L388 415 L296 544 C279 567 271 584 271 597 C271 616 284 623 318 623 L325 623 L325 667 L14 667 L14 623 L19 623 C70 622 87 608 147 522 L157 509 L299 310 L177 159 C113 74 74 46 20 44 L15 44 L15 0 L268 0 L268 44 L256 44 C220 44 198 60 198 86 C198 104 207 121 233 153 L327 272 L421 140 C441 112 450 93 450 79 C450 54 430 44 380 44 L375 44 L375 0 L718 0 L718 44 L713 44 C698 44 676 50 661 57 C638 70 613 98 561 172 L416 378 L515 505 C588 598 616 618 679 623 L679 667 Z " />
<glyph glyph-name="Y" unicode="Y" horiz-adv-x="596" d="M-11 667 L-11 623 L-6 623 C38 618 49 606 91 526 L224 267 L224 149 C224 66 210 44 157 44 L148 44 L148 0 L448 0 L448 44 L439 44 C386 44 373 65 373 149 L373 277 L486 497 C536 590 562 618 602 623 L607 623 L607 667 L405 667 L405 623 L410 623 C447 623 468 606 468 576 C468 560 463 546 447 515 L354 332 L233 541 C219 567 213 581 213 592 C213 613 231 623 265 623 L270 623 L270 667 L-11 667 Z " />
<glyph glyph-name="Z" unicode="Z" horiz-adv-x="598" d="M30 0 L551 0 L565 190 L525 190 C487 69 456 45 346 47 L193 47 L547 630 L547 667 L62 667 L49 497 L87 497 C116 601 148 625 256 621 L384 621 L30 35 L30 0 Z " />
<glyph glyph-name="bracketleft" unicode="&#x5b;" horiz-adv-x="362" d="M355 -235 L355 -192 L278 -192 C240 -192 230 -178 231 -128 L231 -101 L231 533 L231 560 C230 610 240 624 278 624 L355 624 L355 667 L115 667 L115 -235 L355 -235 Z " />
<glyph glyph-name="backslash" unicode="&#x5c;" horiz-adv-x="450" d="M383 -116 L124 687 L67 687 L327 -116 L383 -116 Z " />
<glyph glyph-name="bracketright" unicode="&#x5d;" horiz-adv-x="362" d="M7 -235 L247 -235 L247 667 L7 667 L7 624 L84 624 C122 624 132 610 131 560 L131 533 L131 -101 L131 -128 C132 -178 122 -192 84 -192 L7 -192 L7 -235 Z " />
<glyph glyph-name="asciicircum" unicode="&#x5e;" horiz-adv-x="450" d="M477 279 L240 700 L232 700 L-27 279 L122 279 L277 532 L421 279 L477 279 Z " />
<glyph glyph-name="underscore" unicode="&#x5f;" horiz-adv-x="498" d="M8 -92 L8 -165 L490 -165 L490 -92 L8 -92 Z " />
<glyph glyph-name="grave" unicode="&#x60;" horiz-adv-x="473" d="M300 488 L220 649 L67 649 L67 642 L266 488 L300 488 Z " />
<glyph glyph-name="a" unicode="a" horiz-adv-x="480" d="M446 84 C443 62 433 49 418 49 C400 49 394 64 394 108 L394 287 C394 339 389 356 368 378 C341 406 299 419 236 419 C127 419 46 375 46 315 C46 290 64 272 90 272 C117 272 133 289 139 323 C142 342 146 354 153 360 C163 369 183 375 202 375 C250 375 268 354 268 298 L268 267 L232 252 C75 181 33 145 33 80 C33 26 73 -10 131 -10 C178 -10 226 10 274 49 C291 10 324 -10 371 -10 C434 -10 473 25 475 84 L446 84 Z M268 223 L268 93 C243 65 220 50 202 50 C178 50 161 74 161 106 C161 146 194 188 242 211 L268 223 Z " />
<glyph glyph-name="b" unicode="b" horiz-adv-x="529" d="M192 678 L185 678 C174 674 149 670 91 662 C88 662 57 657 12 649 L12 606 L16 606 C54 605 63 589 63 526 L63 -12 L96 -12 C111 4 123 15 135 26 C144 34 153 43 162 52 C165 54 167 56 172 60 C208 11 255 -13 312 -13 C419 -13 496 78 496 203 C496 329 421 419 316 419 C271 419 233 402 192 365 L192 678 Z M192 311 C219 347 247 365 276 365 C328 365 357 307 357 204 C357 95 326 37 268 37 C238 37 214 54 202 83 C197 94 192 121 192 131 L192 311 Z " />
<glyph glyph-name="c" unicode="c" horiz-adv-x="426" d="M368 116 C352 64 318 36 271 36 C203 36 170 94 170 215 C170 323 199 376 258 376 C284 376 296 366 301 340 C310 292 323 274 351 274 C376 274 394 297 394 328 C394 381 336 419 255 419 C126 419 31 323 31 193 C31 71 116 -16 235 -16 C319 -16 381 26 405 101 L368 116 Z " />
<glyph glyph-name="d" unicode="d" horiz-adv-x="526" d="M516 50 L511 50 C473 51 465 65 465 133 L465 678 L458 678 C414 669 390 665 273 647 L273 605 L278 605 C320 605 335 584 336 522 L336 364 C305 398 257 419 209 419 C104 419 33 329 33 197 C33 145 41 109 61 74 C93 18 141 -12 200 -12 C251 -12 298 12 337 56 L337 50 C337 27 340 10 347 -12 C389 -3 448 4 516 6 L516 50 Z M336 111 C315 70 284 47 250 47 C200 47 172 104 172 206 C172 309 199 361 254 361 C281 361 306 347 336 315 L336 111 Z " />
<glyph glyph-name="e" unicode="e" horiz-adv-x="440" d="M409 227 C410 342 338 419 230 419 C116 419 33 327 33 202 C33 76 118 -16 235 -16 C306 -16 372 23 401 81 L367 100 C343 58 307 34 267 34 C200 34 162 93 162 196 C162 207 162 215 164 227 L409 227 Z M293 266 L164 266 C170 345 188 376 229 376 C269 376 293 339 293 276 L293 266 Z " />
<glyph glyph-name="f" unicode="f" horiz-adv-x="303" d="M281 403 L204 403 L204 430 L204 484 C204 558 207 585 220 609 C228 624 241 634 255 634 C275 634 286 621 298 584 C309 549 328 532 354 532 C383 532 407 558 407 590 C407 642 353 678 275 678 C203 678 144 648 114 595 C91 555 84 515 84 424 L84 403 L15 403 L15 360 L84 360 L84 125 C84 62 71 42 30 42 L18 42 L18 0 L280 0 L280 42 L259 42 C217 42 204 61 204 125 L204 360 L281 360 L281 403 Z " />
<glyph glyph-name="g" unicode="g" horiz-adv-x="464" d="M269 -52 C336 -52 366 -72 366 -117 C366 -173 312 -208 227 -208 C171 -208 129 -191 112 -162 C106 -152 104 -143 104 -125 C104 -109 105 -101 107 -87 C108 -85 108 -85 108 -83 C94 -77 86 -75 76 -75 C49 -75 27 -102 27 -136 C27 -171 48 -203 82 -223 C112 -240 162 -249 221 -249 C361 -249 442 -188 442 -82 C442 10 385 56 272 56 L243 55 L239 55 L217 55 C205 56 193 56 192 56 C148 56 129 64 129 84 C129 109 155 122 212 124 C260 125 298 134 326 151 C368 177 392 222 392 275 C392 302 386 324 373 348 C383 360 390 365 398 365 C406 365 410 362 419 351 C428 339 435 335 445 335 C461 335 473 350 473 372 C473 400 455 418 429 418 C405 418 385 406 352 373 C318 405 277 419 222 419 C113 419 41 362 41 276 C41 213 79 160 137 139 C77 123 49 93 49 44 C49 -22 101 -53 211 -53 C215 -53 234 -53 246 -52 L269 -52 Z M216 376 C248 376 267 339 267 278 C267 207 250 169 218 169 C184 169 167 206 167 280 C167 339 186 376 216 376 L216 376 Z " />
<glyph glyph-name="h" unicode="h" horiz-adv-x="525" d="M19 603 L23 603 C64 601 71 590 72 528 L72 125 C70 54 64 44 23 42 L18 42 L18 0 L243 0 L243 42 L240 42 C207 45 202 56 201 125 L201 282 C202 284 203 285 204 286 L206 291 C225 330 253 354 280 354 C316 354 331 328 331 268 L331 125 C330 56 325 46 292 43 L287 42 L287 0 L513 0 L513 42 L508 42 C471 43 464 56 462 125 L462 253 C462 310 457 337 444 362 C425 396 381 419 335 419 C282 419 237 393 201 344 L201 678 L194 678 C181 673 152 668 103 661 C77 657 52 652 19 645 L19 603 Z " />
<glyph glyph-name="i" unicode="i" horiz-adv-x="271" d="M139 678 C98 678 64 644 64 603 C64 559 97 525 140 525 C181 525 215 559 215 601 C215 644 182 678 139 678 L139 678 Z M15 343 L25 343 C68 344 81 325 81 263 L81 125 C79 58 69 43 26 42 L15 42 L15 0 L260 0 L260 42 L255 42 C214 43 207 55 205 125 L205 419 L198 419 C169 411 52 389 15 386 L15 343 Z " />
<glyph glyph-name="j" unicode="j" horiz-adv-x="274" d="M216 419 L209 419 C167 410 117 401 14 385 L14 343 L27 343 C71 344 88 322 87 263 L87 -58 C87 -136 85 -154 72 -178 C64 -193 49 -203 36 -203 C22 -203 9 -193 5 -178 C-8 -141 -19 -129 -42 -129 C-66 -129 -85 -150 -85 -178 C-85 -220 -42 -248 22 -248 C95 -248 160 -214 191 -160 C210 -129 216 -85 216 7 L216 419 Z M150 678 C108 678 74 644 74 603 C74 559 107 525 150 525 C191 525 225 559 225 602 C225 644 191 678 150 678 L150 678 Z " />
<glyph glyph-name="k" unicode="k" horiz-adv-x="489" d="M268 403 L268 361 L273 361 C295 361 307 354 307 343 C307 334 304 329 274 300 L198 224 L198 678 L191 678 C177 673 157 669 133 665 C108 661 83 657 58 654 L44 651 C34 649 30 648 17 645 L17 603 L24 603 C61 601 68 591 69 529 L69 125 C67 53 62 44 23 42 L13 42 L13 0 L239 0 L239 42 L236 42 C204 45 199 56 198 125 L198 173 L222 198 L287 97 C300 78 304 69 304 62 C304 50 294 43 275 42 L272 42 L272 0 L488 0 L488 42 L485 43 C464 44 444 62 403 119 L301 267 C313 276 315 277 319 282 C328 290 336 297 343 303 C400 347 424 359 461 361 L464 361 L464 403 L268 403 Z " />
<glyph glyph-name="l" unicode="l" horiz-adv-x="262" d="M16 603 L28 603 C63 601 68 592 69 527 L69 125 C67 50 64 44 28 42 L15 42 L15 0 L246 0 L246 42 L240 42 C203 44 198 53 198 125 L198 678 L191 678 C167 671 91 657 16 645 L16 603 Z " />
<glyph glyph-name="m" unicode="m" horiz-adv-x="773" d="M20 338 L23 338 C61 338 70 323 72 259 L72 125 C70 54 64 44 23 42 L21 42 L21 0 L241 0 L241 42 L238 42 C208 45 202 57 201 125 L201 284 C246 341 259 351 284 351 C317 351 330 326 330 264 L330 125 C329 55 325 46 294 43 L289 42 L289 0 L497 0 L497 42 L494 42 C463 45 457 57 456 125 L456 280 C487 330 512 351 540 351 C572 351 587 327 587 274 L587 125 C586 55 582 47 549 43 L546 42 L546 0 L762 0 L762 42 L758 42 C720 43 713 55 711 125 L711 258 C711 322 708 337 693 365 C675 397 633 419 589 419 C537 419 492 392 449 335 C432 388 390 419 335 419 C286 419 240 393 203 345 L203 351 C203 372 200 389 192 412 L187 412 C174 407 147 402 103 395 C89 393 58 388 20 381 L20 338 Z " />
<glyph glyph-name="n" unicode="n" horiz-adv-x="526" d="M20 338 L24 338 C62 338 71 323 73 259 L73 125 C71 54 65 44 24 42 L21 42 L21 0 L246 0 L246 42 C209 44 202 56 202 125 L202 283 C232 332 256 353 286 353 C314 353 333 327 333 288 L333 125 C332 55 327 46 289 42 L289 0 L515 0 L515 42 L511 42 C473 43 466 55 464 125 L464 260 C464 316 460 338 446 363 C427 397 386 419 341 419 C290 419 241 393 203 346 C202 375 199 396 193 412 L185 412 C164 406 144 402 104 395 C41 384 34 383 20 380 L20 338 Z " />
<glyph glyph-name="o" unicode="o" horiz-adv-x="490" d="M33 200 C33 138 54 82 90 45 C127 8 188 -16 245 -16 C368 -16 457 75 457 203 C457 329 368 419 243 419 C122 419 33 327 33 203 L33 200 Z M245 375 C266 375 285 362 298 340 C311 317 318 268 318 197 C318 80 295 27 246 27 C194 27 172 82 172 214 C172 321 197 375 245 375 L245 375 Z " />
<glyph glyph-name="p" unicode="p" horiz-adv-x="527" d="M7 387 L7 345 L13 345 C53 344 61 331 63 263 L63 -116 C61 -187 55 -197 13 -199 L7 -199 L7 -241 L253 -241 L253 -199 L243 -199 C202 -198 194 -184 192 -116 L192 42 C234 1 269 -16 314 -16 C417 -16 493 78 493 205 C493 328 421 419 324 419 C275 419 228 395 190 350 C189 386 187 395 180 419 L172 419 C151 413 128 408 83 401 C64 397 51 395 45 394 C35 392 25 390 15 389 L7 387 Z M192 295 C216 339 243 361 273 361 C325 361 354 303 354 203 C354 149 347 112 333 84 C319 59 294 42 269 42 C242 42 215 60 192 92 L192 295 Z " />
<glyph glyph-name="q" unicode="q" horiz-adv-x="510" d="M430 419 C395 389 374 371 352 355 C308 398 263 419 215 419 C110 419 33 326 33 197 C33 69 103 -16 209 -16 C254 -16 292 -1 334 36 L334 -116 C332 -185 324 -198 283 -199 L271 -199 L271 -241 L519 -241 L519 -199 L513 -199 C473 -198 465 -185 463 -116 L463 419 L430 419 Z M334 87 C309 57 278 40 251 40 C223 40 202 56 190 86 C178 119 172 154 172 199 C172 310 199 365 253 365 C283 365 317 341 334 309 L334 87 Z " />
<glyph glyph-name="r" unicode="r" horiz-adv-x="394" d="M20 339 L25 339 C65 338 72 325 74 256 L74 125 C72 54 66 44 26 42 L21 42 L21 0 L264 0 L264 42 L255 42 C213 43 205 56 203 125 L203 178 C203 246 209 275 229 309 C241 329 256 340 271 340 C281 340 290 334 300 319 C317 292 326 285 344 285 C370 285 390 310 390 343 C390 386 360 419 320 419 C272 419 225 380 197 317 C196 359 191 392 182 419 C91 396 52 387 20 381 L20 339 Z " />
<glyph glyph-name="s" unicode="s" horiz-adv-x="375" d="M37 -12 L69 -12 C74 2 80 12 88 20 C92 19 93 18 98 15 C129 -6 163 -16 199 -16 C285 -16 343 39 343 121 C343 164 326 204 298 228 C276 246 271 248 195 272 C146 287 122 308 122 335 C122 361 147 382 180 382 C230 382 272 346 286 291 L318 291 L318 414 L288 414 C282 401 277 392 271 386 C235 407 194 420 167 420 C94 420 36 363 36 292 C36 236 76 188 143 164 C214 138 214 138 233 122 C244 112 251 97 251 82 C251 48 223 25 182 25 C129 25 89 61 72 122 L37 122 L37 -12 Z " />
<glyph glyph-name="t" unicode="t" horiz-adv-x="303" d="M292 359 L292 403 L184 403 L184 534 L147 534 C136 456 84 402 22 402 C22 402 18 402 14 403 L14 359 L65 359 L65 127 C65 33 103 -16 178 -16 C238 -16 286 16 306 68 L272 82 C258 53 244 41 223 41 C210 41 200 47 194 58 C185 73 184 85 184 139 L184 359 L292 359 Z " />
<glyph glyph-name="u" unicode="u" horiz-adv-x="514" d="M452 403 L275 403 L275 361 L280 361 C317 359 322 351 323 279 L323 145 C323 141 317 116 314 110 C301 77 270 51 245 51 C231 51 217 60 209 73 C202 85 200 100 200 134 L200 403 L13 403 L13 361 L16 361 C57 361 70 340 71 279 L71 130 C71 88 76 60 88 40 C108 5 146 -16 190 -16 C240 -16 287 12 323 63 L323 56 L323 53 C323 44 323 39 324 35 L325 11 L326 7 L327 -7 L327 -8 C327 -10 328 -12 329 -16 L334 -16 C359 -8 448 1 501 0 L501 42 L498 42 C461 43 454 56 452 125 L452 403 Z " />
<glyph glyph-name="v" unicode="v" horiz-adv-x="447" d="M249 -10 L369 263 C406 343 416 356 446 361 L450 361 L450 403 L309 403 L309 361 L314 361 C334 360 349 350 349 337 C349 328 345 313 337 296 L257 106 L176 303 C166 328 165 331 165 340 C165 354 178 361 201 361 L206 361 L206 403 L-4 403 L-4 361 L0 361 C26 360 34 350 64 284 L190 -10 L249 -10 Z " />
<glyph glyph-name="w" unicode="w" horiz-adv-x="676" d="M495 -11 L605 271 C633 347 641 358 678 361 L680 361 L680 403 L526 403 L526 361 L531 361 C561 360 578 351 578 335 C578 330 577 328 570 304 L503 124 L398 403 L344 403 L239 124 L177 297 C166 330 165 332 165 340 C165 354 179 361 207 361 L211 361 L211 403 L-4 403 L-4 361 L1 361 C31 359 36 353 60 291 L172 -11 L230 -11 L333 268 L439 -11 L495 -11 Z " />
<glyph glyph-name="x" unicode="x" horiz-adv-x="467" d="M439 361 L439 403 L291 403 L291 361 L294 361 C317 360 327 355 327 344 C327 338 320 327 305 310 L263 262 L219 320 C206 336 204 340 204 346 C204 356 212 361 232 361 L236 361 L236 403 L14 403 L14 361 C35 359 53 344 102 287 L191 181 L117 105 C77 65 43 45 8 42 L8 0 L179 0 L179 42 L177 42 C151 41 137 47 137 59 C137 67 140 71 157 91 L209 152 L261 84 C274 66 275 65 275 59 C275 49 261 42 239 42 L237 42 L232 42 L232 0 L462 0 L462 42 L457 43 C437 47 423 59 391 100 L285 233 L358 310 C390 344 416 361 437 361 L439 361 Z " />
<glyph glyph-name="y" unicode="y" horiz-adv-x="453" d="M-5 403 L-5 361 L2 360 C27 358 37 347 61 293 L212 -15 L193 -65 C175 -107 164 -116 107 -135 C69 -147 52 -166 52 -196 C52 -227 74 -250 105 -250 C148 -250 177 -214 218 -112 L362 251 C405 348 410 355 443 360 L450 361 L450 403 L303 403 L303 361 L309 361 L311 361 L314 361 C329 362 346 348 346 336 C346 330 344 321 340 313 C336 303 332 294 329 285 L264 118 L184 301 C177 316 174 329 174 338 C174 353 182 359 201 360 L207 361 L207 403 L-5 403 Z " />
<glyph glyph-name="z" unicode="z" horiz-adv-x="422" d="M25 0 L383 0 L394 134 L357 134 C329 60 312 43 260 43 L173 43 L388 366 L388 403 L45 403 L37 283 L75 283 C101 353 109 361 141 360 L241 360 L25 33 L25 0 Z " />
<glyph glyph-name="braceleft" unicode="&#x7b;" horiz-adv-x="352" d="M55 202 C112 196 124 177 125 87 L125 -80 C132 -206 168 -235 314 -232 L338 -232 L338 -204 C268 -202 241 -165 241 -70 L241 94 C242 162 210 198 133 214 L133 216 L133 221 C209 237 242 273 241 340 L241 505 C241 599 268 636 338 638 L338 667 L314 667 C230 665 188 658 173 643 C142 620 126 577 125 515 L125 348 C124 258 112 238 55 233 L55 202 Z " />
<glyph glyph-name="bar" unicode="&#x7c;" horiz-adv-x="457" d="M181 667 L181 -167 L276 -167 L276 667 L181 667 Z " />
<glyph glyph-name="braceright" unicode="&#x7d;" horiz-adv-x="357" d="M302 233 C245 238 233 258 232 348 L232 515 C225 641 189 669 43 667 L19 667 L19 638 C89 636 116 599 116 505 L116 340 C114 273 147 237 224 221 L224 219 L224 214 C147 198 115 162 116 94 L116 -70 C116 -165 89 -202 19 -204 L19 -232 L43 -232 C127 -230 169 -223 184 -208 C215 -185 231 -142 232 -80 L232 87 C233 177 244 196 302 202 L302 233 Z " />
<glyph glyph-name="asciitilde" unicode="&#x7e;" horiz-adv-x="640" d="M495 734 C471 704 445 689 418 689 C397 689 368 696 337 708 C304 721 274 728 253 728 C209 728 166 692 123 617 L145 604 C178 642 192 650 223 650 C246 650 267 645 315 626 C347 614 365 610 384 610 C434 610 481 649 517 720 L495 734 Z " />
<glyph glyph-name="uni00A0" unicode="&#xa0;" horiz-adv-x="250" d="" />
<glyph glyph-name="exclamdown" unicode="&#xa1;" horiz-adv-x="277" d="M119 221 L83 -118 C80 -140 79 -161 79 -177 C79 -218 101 -242 139 -242 C176 -242 198 -217 198 -177 C198 -163 197 -143 194 -120 L158 221 L119 221 Z M138 448 C100 448 69 414 69 371 C69 330 100 295 137 295 C176 295 207 329 207 372 C207 414 176 448 138 448 L138 448 Z " />
<glyph glyph-name="cent" unicode="&#xa2;" horiz-adv-x="478" d="M372 613 L334 613 L290 418 C286 419 284 419 279 419 C245 419 189 402 163 385 C99 340 65 274 65 194 C65 130 89 69 127 34 C146 17 167 5 198 -5 L153 -190 L191 -190 L231 -10 C252 -15 262 -16 276 -16 C353 -16 416 29 440 101 L403 115 C385 66 342 34 293 34 C275 34 258 41 245 53 L316 360 C326 357 329 349 331 329 C334 296 355 274 382 274 C409 274 430 298 430 327 C430 370 389 405 327 415 L372 613 Z M214 86 C203 114 197 166 197 219 C197 318 226 374 277 375 L281 375 L214 86 Z " />
<glyph glyph-name="sterling" unicode="&#xa3;" horiz-adv-x="647" d="M25 198 L161 198 C146 130 136 89 120 44 C54 -2 22 -41 22 -77 C22 -101 43 -121 69 -121 C80 -121 91 -116 99 -108 C114 -93 114 -93 142 -35 L152 -14 C155 -9 157 -4 159 1 L161 5 C171 11 178 13 187 13 C207 13 225 0 266 -42 C322 -101 357 -121 406 -121 C503 -121 593 -29 593 69 C593 109 571 138 541 138 C516 138 499 119 499 91 C499 79 501 67 508 38 C511 25 513 13 513 6 C513 -25 486 -52 456 -52 C428 -52 401 -33 357 15 C314 62 277 83 239 83 C223 83 210 80 190 71 C216 116 236 155 254 198 L414 198 L427 257 L276 257 C295 303 323 409 338 487 C361 610 368 636 385 671 C406 713 431 733 465 733 C492 733 511 721 528 691 C548 657 560 646 581 646 C605 646 625 668 625 695 C625 743 567 781 492 781 C387 781 302 707 250 569 C217 481 213 463 176 269 L175 263 L174 257 L39 257 L25 198 Z " />
<glyph glyph-name="currency" unicode="&#xa4;" horiz-adv-x="600" d="M31 93 L75 43 L164 141 C215 107 251 95 300 95 C348 95 386 108 436 142 L525 44 L569 93 L478 194 C508 250 519 288 519 342 C519 394 508 433 479 491 L571 593 L526 642 L435 542 C381 577 345 589 299 589 C250 589 202 573 163 543 L74 641 L30 592 L117 494 C87 436 75 394 75 342 C75 290 88 245 118 190 L31 93 Z M299 483 C365 483 416 420 416 340 C416 264 363 201 299 201 C235 201 182 264 182 342 C182 420 235 483 299 483 L299 483 Z " />
<glyph glyph-name="yen" unicode="&#xa5;" horiz-adv-x="462" d="M329 461 L201 461 L163 541 C146 579 145 580 145 594 C145 613 162 623 191 623 L196 623 L196 667 L-57 667 L-57 623 L-54 623 C-15 620 -8 612 35 526 L67 461 L-35 461 L-35 415 L89 415 L153 274 L-30 274 L-30 228 L155 228 L155 148 C155 63 144 45 94 44 L86 44 L86 0 L356 0 L356 44 L348 44 C299 44 289 63 289 148 L289 228 L473 228 L473 274 L286 274 L286 281 L350 415 L478 415 L478 461 L373 461 C439 597 454 618 498 623 L500 623 L500 667 L317 667 L317 623 L321 623 C354 623 378 606 378 582 C378 570 372 550 362 529 L329 461 Z M308 415 L268 332 L225 415 L308 415 Z " />
<glyph glyph-name="brokenbar" unicode="&#xa6;" horiz-adv-x="457" d="M181 667 L181 314 L276 314 L276 667 L181 667 Z M181 153 L181 -167 L276 -167 L276 153 L181 153 Z " />
<glyph glyph-name="section" unicode="&#xa7;" horiz-adv-x="428" d="M142 367 C65 352 26 305 26 228 C26 147 62 94 184 -6 C259 -68 279 -96 279 -137 C279 -174 250 -202 212 -202 C182 -202 160 -183 153 -152 C145 -114 144 -112 138 -102 C130 -88 117 -80 104 -80 C79 -80 59 -104 59 -135 C59 -196 122 -245 203 -245 C299 -245 366 -184 366 -96 C366 -40 338 14 287 58 C327 72 333 75 349 88 C380 114 396 154 396 204 C396 248 384 288 358 324 C337 355 318 373 243 434 C163 499 141 528 141 566 C141 603 171 631 210 631 C233 631 252 621 262 602 C268 593 270 584 277 556 C284 525 297 511 320 511 C347 511 367 535 367 566 C367 625 301 674 221 674 C126 674 56 611 56 525 C56 467 81 421 142 367 L142 367 Z M158 333 C184 333 225 305 266 260 C302 221 319 187 319 156 C319 123 295 96 265 96 C237 96 211 113 165 162 C124 205 103 244 103 275 C103 306 128 333 158 333 L158 333 Z " />
<glyph glyph-name="dieresis" unicode="&#xa8;" horiz-adv-x="376" d="M93 633 C60 633 33 606 33 573 C33 540 60 513 92 513 C126 513 153 539 153 573 C153 606 127 633 93 633 L93 633 Z M283 633 C250 633 223 606 223 573 C223 540 250 513 282 513 C316 513 343 540 343 573 C343 606 316 633 283 633 L283 633 Z " />
<glyph glyph-name="copyright" unicode="&#xa9;" horiz-adv-x="723" d="M362 680 C190 680 50 525 50 334 C50 143 190 -13 362 -13 C532 -13 674 143 674 328 C674 526 537 680 362 680 L362 680 Z M364 638 C513 638 632 501 632 328 C632 166 509 29 362 29 C213 29 92 166 92 334 C92 503 212 638 364 638 L364 638 Z M479 293 C468 217 432 174 382 174 C355 174 329 190 315 214 C300 241 293 276 293 331 C293 440 322 495 379 495 C428 495 468 448 476 380 L477 379 L477 377 L499 377 L496 516 L474 516 C471 502 469 492 464 480 C434 512 404 526 363 526 C271 526 203 443 203 331 C203 222 270 142 361 142 C404 142 439 158 467 191 C474 179 477 170 479 155 L502 155 L502 293 L479 293 Z " />
<glyph glyph-name="ordfeminine" unicode="&#xaa;" horiz-adv-x="299" d="M274 325 C271 311 266 304 258 304 C248 304 244 314 244 337 L244 450 C244 511 216 536 150 536 C84 536 34 507 34 468 C34 451 46 438 62 438 C80 438 90 450 93 473 C96 497 105 505 129 505 C155 505 165 492 165 457 L165 440 L146 430 C50 384 27 362 27 319 C27 284 51 260 87 260 C114 260 145 273 167 293 L170 296 C181 273 201 261 229 261 C269 261 294 285 295 325 L274 325 Z M165 407 L165 327 C151 310 139 301 128 301 C116 301 106 316 106 335 C106 361 125 388 153 401 L165 407 Z " />
<glyph glyph-name="guillemotleft" unicode="&#xab;" horiz-adv-x="481" d="M15 216 L187 8 L229 8 L147 216 L228 423 L186 423 L15 216 Z M237 216 L409 8 L450 8 L369 216 L450 423 L408 423 L237 216 Z " />
<glyph glyph-name="logicalnot" unicode="&#xac;" horiz-adv-x="450" d="M423 0 L423 267 L27 267 L27 199 L264 199 L264 0 L423 0 Z " />
<glyph glyph-name="uni00AD" unicode="&#xad;" horiz-adv-x="302" d="M29 247 L29 182 L275 182 L275 247 L29 247 Z " />
<glyph glyph-name="registered" unicode="&#xae;" horiz-adv-x="723" d="M362 680 C190 680 50 525 50 334 C50 143 190 -13 362 -13 C532 -13 674 143 674 328 C674 526 537 680 362 680 L362 680 Z M364 638 C513 638 632 501 632 328 C632 166 509 29 362 29 C213 29 92 166 92 334 C92 503 212 638 364 638 L364 638 Z M205 150 L370 150 L370 177 L360 177 C332 178 327 185 326 233 L326 317 L328 317 C353 320 372 303 394 258 C427 191 441 166 455 150 L550 150 L550 177 L546 177 C526 176 500 202 473 251 C450 292 437 312 416 332 C461 345 487 378 487 423 C487 460 468 491 437 507 C416 516 372 522 316 522 C302 522 302 522 272 521 L206 520 L206 493 L212 493 C242 492 245 487 247 438 L247 233 C246 186 241 178 213 177 L205 177 L205 150 Z M326 346 L326 491 C331 492 339 492 340 492 C386 492 403 472 403 419 C403 366 384 346 336 346 L333 346 L326 346 Z " />
<glyph glyph-name="macron" unicode="&#xaf;" horiz-adv-x="350" d="M33 541 L317 541 L317 590 L33 590 L33 541 Z " />
<glyph glyph-name="degree" unicode="&#xb0;" horiz-adv-x="400" d="M203 686 C117 686 50 619 50 534 C50 448 116 381 200 381 C284 381 350 448 350 533 C350 619 286 686 203 686 L203 686 Z M202 629 C252 629 293 586 293 534 C293 480 252 438 200 438 C148 438 106 481 106 533 C106 587 148 629 202 629 L202 629 Z " />
<glyph glyph-name="plusminus" unicode="&#xb1;" horiz-adv-x="450" d="M8 396 L8 323 L186 323 L186 123 L262 123 L262 323 L441 323 L441 396 L262 396 L262 596 L186 596 L186 396 L8 396 Z M8 75 L8 2 L441 2 L441 75 L8 75 Z " />
<glyph glyph-name="twosuperior" unicode="&#xb2;" horiz-adv-x="313" d="M34 266 L216 266 C234 266 234 266 234 256 C234 253 234 250 233 249 C232 246 231 244 231 244 L231 240 L263 240 L279 324 L117 324 C163 373 190 403 198 412 C264 489 278 515 278 562 C278 624 226 670 156 670 C86 670 34 627 34 570 C34 544 48 512 59 512 C61 512 90 522 94 524 C102 528 108 535 108 541 C108 543 107 544 106 545 C99 550 95 561 95 574 C95 609 113 635 136 635 C163 635 183 604 183 561 C183 481 134 393 34 295 L34 266 Z " />
<glyph glyph-name="threesuperior" unicode="&#xb3;" horiz-adv-x="313" d="M193 499 C248 535 268 560 268 595 C268 638 224 670 163 670 C95 670 40 629 40 578 C40 555 52 533 64 533 C78 533 113 550 113 557 C113 559 112 562 111 564 C105 574 103 582 103 592 C103 616 120 635 142 635 C163 635 177 614 177 582 C177 545 159 516 120 488 C103 477 96 468 96 459 C96 449 103 440 111 440 C117 440 122 443 129 453 C138 462 144 466 152 466 C173 466 183 441 183 385 C183 324 163 291 124 291 C108 291 99 299 92 320 C83 345 74 355 58 355 C41 355 26 340 26 321 C26 285 69 258 125 258 C213 258 278 317 278 397 C278 456 249 491 193 499 L193 499 Z " />
<glyph glyph-name="acute" unicode="&#xb4;" horiz-adv-x="473" d="M169 488 L203 488 L401 642 L401 649 L249 649 L169 488 Z " />
<glyph glyph-name="mu" unicode="&#xb5;" horiz-adv-x="576" d="M442 500 L353 500 L354 131 C318 80 284 58 242 58 C184 58 150 99 150 169 L150 500 L62 500 L62 20 C62 -1 58 -26 51 -56 C34 -118 33 -123 33 -147 C33 -190 54 -219 83 -219 C112 -219 132 -189 132 -145 C132 -124 129 -110 113 -53 C102 -17 101 -8 101 21 L101 33 C143 -3 165 -13 200 -13 C250 -13 301 18 354 80 C362 48 367 36 377 21 C392 0 419 -13 449 -13 C510 -13 553 31 567 108 L540 109 C536 71 515 41 492 41 C462 41 442 77 442 131 L442 500 Z " />
<glyph glyph-name="paragraph" unicode="&#xb6;" horiz-adv-x="563" d="M508 667 L263 667 C175 667 172 667 151 661 C86 644 44 583 44 507 C44 456 62 413 95 383 C124 356 163 344 218 344 L236 344 L245 344 L245 2 L245 -24 L245 -25 C245 -48 237 -52 193 -52 L175 -52 L175 -84 L318 -84 L318 633 L375 633 L375 -84 L499 -84 L499 -52 L484 -52 L472 -52 L466 -51 C449 -50 448 -48 448 -2 L448 563 C448 633 450 635 496 635 L508 635 L508 667 Z M245 635 L245 380 L219 380 C184 380 158 434 158 507 C158 552 169 599 184 618 C194 630 206 635 225 635 L245 635 Z " />
<glyph glyph-name="periodcentered" unicode="&#xb7;" horiz-adv-x="258" d="M124 410 C86 410 55 375 55 333 C55 291 86 256 123 256 C162 256 193 290 193 333 C193 376 162 410 124 410 L124 410 Z " />
<glyph glyph-name="cedilla" unicode="&#xb8;" horiz-adv-x="450" d="M202 0 C195 -59 192 -78 188 -100 C209 -102 221 -118 221 -141 C221 -165 208 -179 186 -179 C171 -179 159 -176 140 -169 C138 -187 138 -189 135 -205 C154 -214 170 -217 190 -217 C251 -217 291 -182 291 -129 C291 -84 267 -55 225 -49 C228 -26 229 -22 231 0 L202 0 Z " />
<glyph glyph-name="onesuperior" unicode="&#xb9;" horiz-adv-x="313" d="M69 609 L93 609 L104 609 C119 609 122 602 122 558 L122 343 C121 302 120 300 99 300 L86 300 L86 267 L247 267 L247 300 L235 300 C214 301 213 302 212 344 L212 670 L179 670 C155 652 118 641 69 640 L69 609 Z " />
<glyph glyph-name="ordmasculine" unicode="&#xba;" horiz-adv-x="305" d="M152 536 C79 536 25 477 25 398 C25 314 77 257 153 257 C227 257 280 316 280 397 C280 478 227 536 152 536 L152 536 Z M153 503 C179 503 192 468 192 402 C192 322 181 290 153 290 C124 290 112 323 112 400 C112 467 126 503 153 503 L153 503 Z " />
<glyph glyph-name="guillemotright" unicode="&#xbb;" horiz-adv-x="481" d="M457 216 L286 423 L244 423 L325 216 L244 8 L285 8 L457 216 Z M235 216 L64 423 L22 423 L103 216 L22 8 L63 8 L235 216 Z " />
<glyph glyph-name="onequarter" unicode="&#xbc;" horiz-adv-x="779" d="M69 609 L88 609 L102 609 C119 609 122 602 122 558 L122 343 C121 305 118 300 95 300 L81 300 L81 267 L253 267 L253 300 L238 300 C215 300 213 304 212 344 L212 670 L179 670 C155 652 118 641 69 640 L69 609 Z M289 0 L594 660 L544 660 L238 0 L289 0 Z M612 133 L612 80 C611 38 608 33 584 33 L569 33 L569 0 L743 0 L743 33 L730 33 C707 33 704 38 703 81 L703 133 L755 133 L762 195 L741 195 L740 191 C735 175 732 173 715 172 L703 172 L703 402 L654 402 L487 172 L487 133 L612 133 Z M612 172 L527 172 L612 297 L612 172 Z " />
<glyph glyph-name="onehalf" unicode="&#xbd;" horiz-adv-x="779" d="M69 609 L88 609 L102 609 C119 609 122 602 122 558 L122 343 C121 305 118 300 95 300 L81 300 L81 267 L253 267 L253 300 L238 300 C215 300 213 304 212 344 L212 670 L179 670 C155 652 118 641 69 640 L69 609 Z M271 0 L577 660 L526 660 L221 0 L271 0 Z M500 0 L682 0 C700 0 700 0 700 -10 C700 -13 700 -15 699 -17 C698 -20 697 -22 697 -22 L697 -26 L730 -26 L746 58 L584 58 C630 107 657 136 664 145 C730 222 744 249 744 295 C744 357 693 403 622 403 C553 403 501 360 501 303 C501 277 515 245 526 245 C528 245 557 255 560 257 C568 261 574 268 574 274 C574 276 573 277 572 278 C566 283 562 294 562 307 C562 342 579 368 603 368 C630 368 649 337 649 294 C649 215 599 125 500 29 L500 0 Z " />
<glyph glyph-name="threequarters" unicode="&#xbe;" horiz-adv-x="779" d="M193 499 C248 535 268 560 268 595 C268 638 224 670 163 670 C95 670 40 629 40 578 C40 555 52 533 64 533 C78 533 113 550 113 557 C113 559 112 562 111 564 C105 574 103 582 103 592 C103 616 120 635 142 635 C163 635 177 614 177 582 C177 545 159 516 120 488 C103 477 96 468 96 459 C96 449 103 440 111 440 C117 440 122 443 129 453 C138 462 144 466 152 466 C173 466 183 441 183 385 C183 324 163 291 124 291 C108 291 99 299 92 320 C83 345 74 355 58 355 C41 355 26 340 26 321 C26 285 69 258 125 258 C213 258 278 317 278 397 C278 456 249 491 193 499 L193 499 Z M282 0 L591 660 L539 660 L231 0 L282 0 Z M611 133 L611 80 C610 38 607 33 582 33 L567 33 L567 0 L743 0 L743 33 L729 33 C706 33 703 38 702 81 L702 133 L755 133 L762 195 L740 195 L739 191 C734 175 731 173 714 172 L702 172 L702 402 L653 402 L484 172 L484 133 L611 133 Z M611 172 L525 172 L611 297 L611 172 Z " />
<glyph glyph-name="questiondown" unicode="&#xbf;" horiz-adv-x="409" d="M239 445 C201 445 171 411 171 369 C171 327 202 292 238 292 C276 292 307 326 307 368 C307 411 277 445 239 445 L239 445 Z M264 219 L216 219 L216 102 C197 114 178 119 157 119 C76 119 16 47 16 -50 C16 -166 91 -245 201 -245 C281 -245 347 -201 347 -148 C347 -126 330 -108 310 -108 C292 -108 279 -120 272 -144 C263 -172 261 -177 255 -186 C248 -194 232 -201 219 -201 C173 -201 146 -146 146 -50 C146 23 164 65 195 65 C207 65 217 57 226 41 L264 41 L264 219 Z " />
<glyph glyph-name="Agrave" unicode="&#xc0;" horiz-adv-x="591" d="M603 0 L603 44 L598 44 C555 50 543 66 507 157 L316 678 L275 678 L90 170 C62 87 34 50 -6 44 L-12 44 L-12 0 L180 0 L180 44 L173 44 C139 44 116 63 116 91 C116 107 120 121 138 170 L149 202 L348 202 L376 128 C385 102 391 82 391 73 C391 53 372 44 333 44 L327 44 L327 0 L603 0 Z M333 247 L165 247 L247 475 L333 247 Z M348 729 L381 729 L282 877 L102 877 L102 869 L348 729 Z " />
<glyph glyph-name="Aacute" unicode="&#xc1;" horiz-adv-x="591" d="M603 0 L603 44 L598 44 C555 50 543 66 507 157 L316 678 L275 678 L90 170 C62 87 34 50 -6 44 L-12 44 L-12 0 L180 0 L180 44 L173 44 C139 44 116 63 116 91 C116 107 120 121 138 170 L149 202 L348 202 L376 128 C385 102 391 82 391 73 C391 53 372 44 333 44 L327 44 L327 0 L603 0 Z M333 247 L165 247 L247 475 L333 247 Z M252 729 L285 729 L531 869 L531 877 L352 877 L252 729 Z " />
<glyph glyph-name="Acircumflex" unicode="&#xc2;" horiz-adv-x="591" d="M603 0 L603 44 L598 44 C555 50 543 66 507 157 L316 678 L275 678 L90 170 C62 87 34 50 -6 44 L-12 44 L-12 0 L180 0 L180 44 L173 44 C139 44 116 63 116 91 C116 107 120 121 138 170 L149 202 L348 202 L376 128 C385 102 391 82 391 73 C391 53 372 44 333 44 L327 44 L327 0 L603 0 Z M333 247 L165 247 L247 475 L333 247 Z M217 879 L109 729 L141 729 L287 817 L452 729 L483 729 L373 879 L217 879 Z " />
<glyph glyph-name="Atilde" unicode="&#xc3;" horiz-adv-x="591" d="M603 0 L603 44 L598 44 C555 50 543 66 507 157 L316 678 L275 678 L90 170 C62 87 34 50 -6 44 L-12 44 L-12 0 L180 0 L180 44 L173 44 C139 44 116 63 116 91 C116 107 120 121 138 170 L149 202 L348 202 L376 128 C385 102 391 82 391 73 C391 53 372 44 333 44 L327 44 L327 0 L603 0 Z M333 247 L165 247 L247 475 L333 247 Z M155 726 L155 729 C155 757 174 779 198 779 C212 779 229 773 258 758 C305 734 339 724 370 724 C424 724 464 775 464 845 C464 847 464 854 463 861 L432 861 C427 826 412 805 392 805 C376 805 351 813 324 828 C284 849 247 861 220 861 C162 861 123 812 123 740 C123 739 123 731 124 726 L155 726 Z " />
<glyph glyph-name="Adieresis" unicode="&#xc4;" horiz-adv-x="591" d="M603 0 L603 44 L598 44 C555 50 543 66 507 157 L316 678 L275 678 L90 170 C62 87 34 50 -6 44 L-12 44 L-12 0 L180 0 L180 44 L173 44 C139 44 116 63 116 91 C116 107 120 121 138 170 L149 202 L348 202 L376 128 C385 102 391 82 391 73 C391 53 372 44 333 44 L327 44 L327 0 L603 0 Z M333 247 L165 247 L247 475 L333 247 Z M177 862 C139 862 109 832 109 794 C109 757 140 726 176 726 C215 726 245 756 245 794 C245 832 215 862 177 862 L177 862 Z M419 862 C382 862 351 832 351 795 C351 756 381 726 419 726 C456 726 487 757 487 794 C487 832 457 862 419 862 L419 862 Z " />
<glyph glyph-name="Aring" unicode="&#xc5;" horiz-adv-x="591" d="M90 170 C62 87 34 50 -6 44 L-12 44 L-12 0 L180 0 L180 44 L173 44 C139 44 116 63 116 91 C116 107 120 121 138 170 L149 202 L348 202 L376 128 C385 102 391 82 391 73 C391 53 372 44 333 44 L327 44 L327 0 L603 0 L603 44 L598 44 C555 50 543 66 507 157 L327 647 C372 662 400 702 400 747 C400 806 352 854 294 854 C235 854 187 806 187 747 C187 700 218 659 264 645 L90 170 Z M333 247 L165 247 L247 475 L333 247 Z M293 815 C331 815 361 785 361 748 C361 710 330 680 293 680 C256 680 226 710 226 748 C226 785 257 815 293 815 L293 815 Z " />
<glyph glyph-name="AE" unicode="&#xc6;" horiz-adv-x="834" d="M356 322 L356 148 C356 65 343 44 290 44 L279 44 L279 0 L806 0 L811 213 L772 213 C743 88 702 45 614 47 L594 47 C518 47 503 66 504 158 L504 322 L566 322 C613 321 621 311 627 249 L628 232 L666 232 L666 457 L628 457 L628 451 C623 381 611 366 560 368 L504 368 L504 621 L616 621 C680 624 706 597 733 496 L773 496 L762 667 L216 667 L216 625 L236 625 C276 625 292 618 292 602 C292 590 284 565 270 534 L105 175 C64 89 23 46 -18 44 L-18 0 L181 0 L181 44 L176 44 C145 44 122 61 122 83 C122 94 128 115 139 140 L219 322 L356 322 Z M356 368 L242 368 L356 633 L356 368 Z " />
<glyph glyph-name="Ccedilla" unicode="&#xc7;" horiz-adv-x="662" d="M606 10 L606 254 L567 254 C555 182 524 114 490 84 C458 57 416 40 378 40 C326 40 274 70 247 117 C219 166 207 229 207 328 C207 527 263 628 374 628 C470 628 535 554 562 412 L601 412 L595 661 L556 661 C555 659 555 658 554 654 C553 637 547 618 536 593 C485 650 421 679 342 679 C268 679 201 653 150 605 C81 540 39 435 39 326 C39 137 156 -3 322 -12 C317 -55 312 -82 304 -111 C332 -114 348 -131 348 -157 C348 -183 331 -199 301 -199 C282 -199 266 -196 241 -188 C239 -207 238 -210 234 -228 C259 -238 280 -242 307 -242 C388 -242 442 -203 442 -144 C442 -94 409 -60 354 -54 C358 -30 360 -21 361 -12 C434 -7 499 25 541 76 C553 58 561 39 567 10 L606 10 Z " />
<glyph glyph-name="Egrave" unicode="&#xc8;" horiz-adv-x="590" d="M523 215 C493 89 450 45 360 47 L336 47 C265 46 249 69 251 164 L251 327 L309 327 C365 326 378 310 379 243 L379 235 L417 235 L417 462 L379 462 L379 455 C377 390 365 375 307 374 L251 374 L251 621 L348 621 C431 623 458 597 483 496 L523 496 L512 667 L29 667 L29 624 L38 624 C88 626 103 601 103 521 L103 149 C103 66 88 43 36 44 L25 44 L25 0 L556 0 L563 215 L523 215 Z M374 729 L407 729 L307 877 L128 877 L128 869 L374 729 Z " />
<glyph glyph-name="Eacute" unicode="&#xc9;" horiz-adv-x="590" d="M523 215 C493 89 450 45 360 47 L336 47 C265 46 249 69 251 164 L251 327 L309 327 C365 326 378 310 379 243 L379 235 L417 235 L417 462 L379 462 L379 455 C377 390 365 375 307 374 L251 374 L251 621 L348 621 C431 623 458 597 483 496 L523 496 L512 667 L29 667 L29 624 L38 624 C88 626 103 601 103 521 L103 149 C103 66 88 43 36 44 L25 44 L25 0 L556 0 L563 215 L523 215 Z M244 729 L277 729 L523 869 L523 877 L344 877 L244 729 Z " />
<glyph glyph-name="Ecircumflex" unicode="&#xca;" horiz-adv-x="590" d="M523 215 C493 89 450 45 360 47 L336 47 C265 46 249 69 251 164 L251 327 L309 327 C365 326 378 310 379 243 L379 235 L417 235 L417 462 L379 462 L379 455 C377 390 365 375 307 374 L251 374 L251 621 L348 621 C431 623 458 597 483 496 L523 496 L512 667 L29 667 L29 624 L38 624 C88 626 103 601 103 521 L103 149 C103 66 88 43 36 44 L25 44 L25 0 L556 0 L563 215 L523 215 Z M224 879 L116 729 L148 729 L294 817 L458 729 L490 729 L380 879 L224 879 Z " />
<glyph glyph-name="Edieresis" unicode="&#xcb;" horiz-adv-x="590" d="M523 215 C493 89 450 45 360 47 L336 47 C265 46 249 69 251 164 L251 327 L309 327 C365 326 378 310 379 243 L379 235 L417 235 L417 462 L379 462 L379 455 C377 390 365 375 307 374 L251 374 L251 621 L348 621 C431 623 458 597 483 496 L523 496 L512 667 L29 667 L29 624 L38 624 C88 626 103 601 103 521 L103 149 C103 66 88 43 36 44 L25 44 L25 0 L556 0 L563 215 L523 215 Z M173 862 C135 862 105 832 105 794 C105 757 136 726 172 726 C211 726 241 756 241 794 C241 832 211 862 173 862 L173 862 Z M415 862 C378 862 347 832 347 795 C347 756 377 726 415 726 C452 726 483 757 483 794 C483 832 453 862 415 862 L415 862 Z " />
<glyph glyph-name="Igrave" unicode="&#xcc;" horiz-adv-x="354" d="M25 623 L33 623 C89 624 101 606 102 521 L102 149 C102 66 88 44 35 44 L25 44 L25 0 L328 0 L328 44 L317 44 C263 44 250 65 250 149 L250 521 C250 606 263 624 318 623 L328 623 L328 667 L25 667 L25 623 Z M271 729 L304 729 L204 877 L25 877 L25 869 L271 729 Z " />
<glyph glyph-name="Iacute" unicode="&#xcd;" horiz-adv-x="354" d="M25 623 L33 623 C89 624 101 606 102 521 L102 149 C102 66 88 44 35 44 L25 44 L25 0 L328 0 L328 44 L317 44 C263 44 250 65 250 149 L250 521 C250 606 263 624 318 623 L328 623 L328 667 L25 667 L25 623 Z M145 729 L178 729 L424 869 L424 877 L245 877 L145 729 Z " />
<glyph glyph-name="Icircumflex" unicode="&#xce;" horiz-adv-x="354" d="M25 623 L33 623 C89 624 101 606 102 521 L102 149 C102 66 88 44 35 44 L25 44 L25 0 L328 0 L328 44 L317 44 C263 44 250 65 250 149 L250 521 C250 606 263 624 318 623 L328 623 L328 667 L25 667 L25 623 Z M102 879 L-6 729 L26 729 L172 817 L337 729 L368 729 L258 879 L102 879 Z " />
<glyph glyph-name="Idieresis" unicode="&#xcf;" horiz-adv-x="354" d="M26 623 L34 623 C89 624 101 606 102 521 L102 149 C102 66 89 44 36 44 L26 44 L26 0 L328 0 L328 44 L317 44 C263 44 250 65 250 149 L250 521 C250 606 263 624 318 623 L328 623 L328 667 L26 667 L26 623 Z M75 862 C37 862 7 832 7 794 C7 757 38 726 74 726 C113 726 143 756 143 794 C143 832 113 862 75 862 L75 862 Z M278 862 C241 862 210 831 210 795 C210 756 240 726 278 726 C316 726 346 756 346 794 C346 832 316 862 278 862 L278 862 Z " />
<glyph glyph-name="Eth" unicode="&#xd0;" horiz-adv-x="711" d="M104 306 L104 149 C104 65 91 44 40 44 L28 44 L28 0 L263 0 C414 0 468 8 523 40 C618 94 672 200 672 329 C672 457 617 563 523 616 C455 654 359 672 220 672 C198 672 181 672 151 671 C127 671 122 671 87 669 C56 667 45 666 29 665 L29 622 L38 622 C92 623 104 603 104 519 L104 358 L23 358 L23 306 L104 306 Z M252 306 L378 306 L378 358 L252 358 L252 626 C266 627 276 627 288 627 C351 627 387 615 424 582 C477 534 504 447 504 326 C504 182 466 87 399 64 C369 53 340 47 319 47 C263 47 252 67 252 171 L252 306 Z " />
<glyph glyph-name="Ntilde" unicode="&#xd1;" horiz-adv-x="700" d="M594 -12 L594 513 C592 585 611 611 673 623 L680 623 L680 667 L451 667 L451 623 L459 623 C521 619 546 587 544 517 L544 221 L214 667 L21 667 L21 623 L26 623 C84 623 101 599 105 507 L105 162 C105 106 104 97 96 83 C84 61 53 45 25 44 L21 44 L21 0 L243 0 L243 44 L233 44 C209 43 179 60 166 82 C156 99 156 104 155 163 L155 522 L545 -12 L594 -12 Z M214 726 L214 729 C214 757 233 779 257 779 C271 779 288 773 317 758 C364 734 398 724 429 724 C483 724 523 775 523 845 C523 847 523 854 522 861 L491 861 C487 826 472 805 451 805 C435 805 410 813 383 828 C343 849 306 861 279 861 C221 861 182 812 182 740 C182 739 182 731 183 726 L214 726 Z " />
<glyph glyph-name="Ograve" unicode="&#xd2;" horiz-adv-x="743" d="M377 679 C286 679 206 651 148 598 C79 534 39 438 39 335 C39 129 175 -13 371 -13 C567 -13 704 129 704 332 C704 533 566 679 377 679 L377 679 Z M372 628 C420 628 460 602 488 554 C515 507 530 423 530 323 C530 136 476 38 373 38 C321 38 279 65 249 119 C226 162 213 242 213 346 C213 526 270 628 372 628 L372 628 Z M435 729 L468 729 L368 877 L189 877 L189 869 L435 729 Z " />
<glyph glyph-name="Oacute" unicode="&#xd3;" horiz-adv-x="743" d="M377 679 C286 679 206 651 148 598 C79 534 39 438 39 335 C39 129 175 -13 371 -13 C567 -13 704 129 704 332 C704 533 566 679 377 679 L377 679 Z M372 628 C420 628 460 602 488 554 C515 507 530 423 530 323 C530 136 476 38 373 38 C321 38 279 65 249 119 C226 162 213 242 213 346 C213 526 270 628 372 628 L372 628 Z M315 729 L348 729 L595 869 L595 877 L415 877 L315 729 Z " />
<glyph glyph-name="Ocircumflex" unicode="&#xd4;" horiz-adv-x="743" d="M377 679 C286 679 206 651 148 598 C79 534 39 438 39 335 C39 129 175 -13 371 -13 C567 -13 704 129 704 332 C704 533 566 679 377 679 L377 679 Z M372 628 C420 628 460 602 488 554 C515 507 530 423 530 323 C530 136 476 38 373 38 C321 38 279 65 249 119 C226 162 213 242 213 346 C213 526 270 628 372 628 L372 628 Z M297 879 L189 729 L221 729 L367 817 L532 729 L564 729 L454 879 L297 879 Z " />
<glyph glyph-name="Otilde" unicode="&#xd5;" horiz-adv-x="743" d="M377 679 C286 679 206 651 148 598 C79 534 39 438 39 335 C39 129 175 -13 371 -13 C567 -13 704 129 704 332 C704 533 566 679 377 679 L377 679 Z M372 628 C420 628 460 602 488 554 C515 507 530 423 530 323 C530 136 476 38 373 38 C321 38 279 65 249 119 C226 162 213 242 213 346 C213 526 270 628 372 628 L372 628 Z M233 726 L233 729 C233 757 252 779 276 779 C290 779 307 773 336 758 C383 734 417 724 448 724 C502 724 542 775 542 845 C542 847 542 854 541 861 L510 861 C506 826 491 805 470 805 C454 805 429 813 402 828 C362 849 325 861 298 861 C240 861 201 812 201 740 C201 739 201 731 202 726 L233 726 Z " />
<glyph glyph-name="Odieresis" unicode="&#xd6;" horiz-adv-x="743" d="M377 679 C286 679 206 651 148 598 C79 534 39 438 39 335 C39 129 175 -13 371 -13 C567 -13 704 129 704 332 C704 533 566 679 377 679 L377 679 Z M372 628 C420 628 460 602 488 554 C515 507 530 423 530 323 C530 136 476 38 373 38 C321 38 279 65 249 119 C226 162 213 242 213 346 C213 526 270 628 372 628 L372 628 Z M251 862 C213 862 183 832 183 794 C183 757 214 726 250 726 C289 726 319 756 319 794 C319 832 289 862 251 862 L251 862 Z M493 862 C456 862 425 832 425 795 C425 756 455 726 493 726 C530 726 561 757 561 794 C561 832 531 862 493 862 L493 862 Z " />
<glyph glyph-name="multiply" unicode="&#xd7;" horiz-adv-x="450" d="M92 560 L45 508 L179 361 L43 211 L91 157 L226 308 L360 159 L407 210 L272 359 L408 508 L359 562 L225 412 L92 560 Z " />
<glyph glyph-name="Oslash" unicode="&#xd8;" horiz-adv-x="746" d="M650 650 L620 679 L572 618 C511 660 450 679 372 679 C178 679 40 535 40 333 C40 229 77 137 144 72 L99 15 L129 -13 L175 46 C234 6 297 -13 373 -13 C567 -13 705 130 705 331 C705 434 669 526 603 591 L650 650 Z M516 480 C526 431 531 383 531 327 C531 136 478 38 374 38 C317 38 273 70 244 133 L516 480 Z M229 180 C219 229 214 281 214 341 C214 526 270 628 373 628 C431 628 472 597 502 529 L229 180 Z " />
<glyph glyph-name="Ugrave" unicode="&#xd9;" horiz-adv-x="698" d="M452 667 L452 623 L457 623 C519 621 547 586 546 511 L546 286 C546 201 543 174 532 148 C505 84 447 44 380 44 C327 44 282 69 258 110 C238 145 232 183 232 275 L232 521 C232 604 247 624 304 623 L314 623 L314 667 L16 667 L16 623 L24 623 C81 624 96 603 97 521 L96 254 C96 169 108 122 140 80 C185 20 258 -13 346 -13 C413 -13 477 9 520 46 C569 88 596 165 596 260 L596 519 C594 584 615 611 675 623 L681 623 L681 667 L452 667 Z M433 729 L466 729 L366 877 L187 877 L187 869 L433 729 Z " />
<glyph glyph-name="Uacute" unicode="&#xda;" horiz-adv-x="698" d="M452 667 L452 623 L457 623 C519 621 547 586 546 511 L546 286 C546 201 543 174 532 148 C505 84 447 44 380 44 C327 44 282 69 258 110 C238 145 232 183 232 275 L232 521 C232 604 247 624 304 623 L314 623 L314 667 L16 667 L16 623 L24 623 C81 624 96 603 97 521 L96 254 C96 169 108 122 140 80 C185 20 258 -13 346 -13 C413 -13 477 9 520 46 C569 88 596 165 596 260 L596 519 C594 584 615 611 675 623 L681 623 L681 667 L452 667 Z M305 729 L338 729 L584 869 L584 877 L405 877 L305 729 Z " />
<glyph glyph-name="Ucircumflex" unicode="&#xdb;" horiz-adv-x="698" d="M452 667 L452 623 L457 623 C519 621 547 586 546 511 L546 286 C546 201 543 174 532 148 C505 84 447 44 380 44 C327 44 282 69 258 110 C238 145 232 183 232 275 L232 521 C232 604 247 624 304 623 L314 623 L314 667 L16 667 L16 623 L24 623 C81 624 96 603 97 521 L96 254 C96 169 108 122 140 80 C185 20 258 -13 346 -13 C413 -13 477 9 520 46 C569 88 596 165 596 260 L596 519 C594 584 615 611 675 623 L681 623 L681 667 L452 667 Z M283 879 L174 729 L206 729 L352 817 L517 729 L549 729 L439 879 L283 879 Z " />
<glyph glyph-name="Udieresis" unicode="&#xdc;" horiz-adv-x="698" d="M452 667 L452 623 L457 623 C519 621 547 586 546 511 L546 286 C546 201 543 174 532 148 C505 84 447 44 380 44 C327 44 282 69 258 110 C238 145 232 183 232 275 L232 521 C232 604 247 624 304 623 L314 623 L314 667 L16 667 L16 623 L24 623 C81 624 96 603 97 521 L96 254 C96 169 108 122 140 80 C185 20 258 -13 346 -13 C413 -13 477 9 520 46 C569 88 596 165 596 260 L596 519 C594 584 615 611 675 623 L681 623 L681 667 L452 667 Z M242 862 C204 862 174 832 174 794 C174 757 205 726 241 726 C280 726 310 756 310 794 C310 832 280 862 242 862 L242 862 Z M485 862 C448 862 417 832 417 795 C417 756 447 726 485 726 C522 726 553 757 553 794 C553 832 523 862 485 862 L485 862 Z " />
<glyph glyph-name="Yacute" unicode="&#xdd;" horiz-adv-x="596" d="M-11 667 L-11 623 L-6 623 C38 618 49 606 91 526 L224 267 L224 149 C224 66 210 44 157 44 L148 44 L148 0 L448 0 L448 44 L439 44 C386 44 373 65 373 149 L373 277 L486 497 C536 590 562 618 602 623 L607 623 L607 667 L405 667 L405 623 L410 623 C447 623 468 606 468 576 C468 560 463 546 447 515 L354 332 L233 541 C219 567 213 581 213 592 C213 613 231 623 265 623 L270 623 L270 667 L-11 667 Z M265 729 L298 729 L544 869 L544 877 L365 877 L265 729 Z " />
<glyph glyph-name="Thorn" unicode="&#xde;" horiz-adv-x="580" d="M336 667 L25 667 L25 623 L38 623 C93 624 106 605 106 521 L106 149 C106 65 93 44 39 44 L28 44 L28 0 L336 0 L336 44 L321 44 C264 46 253 63 254 148 L320 148 C392 148 433 156 473 178 C524 205 556 264 556 333 C556 402 525 460 471 488 C424 513 382 520 280 520 C279 520 265 520 254 519 C253 605 264 621 321 623 L336 623 L336 667 Z M254 196 L254 471 C262 473 268 473 275 473 C310 473 327 470 344 461 C377 442 396 394 396 331 C396 288 384 244 365 223 C350 205 322 196 285 196 L254 196 Z " />
<glyph glyph-name="germandbls" unicode="&#xdf;" horiz-adv-x="530" d="M67 125 C67 56 60 44 19 42 L14 42 L14 0 L233 0 L233 42 L230 42 C201 45 197 53 196 118 L196 479 C196 543 198 573 204 590 C214 620 236 635 267 635 C316 635 341 593 341 512 C341 430 313 389 259 390 L259 348 L261 348 L270 348 L271 348 C336 341 361 285 361 148 L361 117 C362 63 351 32 330 32 C318 32 311 40 305 58 C297 80 294 84 284 84 C273 84 265 72 265 57 C265 19 300 -8 348 -8 C436 -8 498 68 498 176 C498 277 444 346 346 371 C425 393 470 448 470 519 C470 616 392 678 271 678 C208 678 162 663 128 632 C84 592 67 535 67 427 L67 125 Z " />
<glyph glyph-name="agrave" unicode="&#xe0;" horiz-adv-x="480" d="M446 84 C443 62 433 49 418 49 C400 49 394 64 394 108 L394 287 C394 339 389 356 368 378 C341 406 299 419 236 419 C127 419 46 375 46 315 C46 290 64 272 90 272 C117 272 133 289 139 323 C142 342 146 354 153 360 C163 369 183 375 202 375 C250 375 268 354 268 298 L268 267 L232 252 C75 181 33 145 33 80 C33 26 73 -10 131 -10 C178 -10 226 10 274 49 C291 10 324 -10 371 -10 C434 -10 473 25 475 84 L446 84 Z M268 223 L268 93 C243 65 220 50 202 50 C178 50 161 74 161 106 C161 146 194 188 242 211 L268 223 Z M331 488 L251 649 L98 649 L98 642 L297 488 L331 488 Z " />
<glyph glyph-name="aacute" unicode="&#xe1;" horiz-adv-x="480" d="M446 84 C443 62 433 49 418 49 C400 49 394 64 394 108 L394 287 C394 339 389 356 368 378 C341 406 299 419 236 419 C127 419 46 375 46 315 C46 290 64 272 90 272 C117 272 133 289 139 323 C142 342 146 354 153 360 C163 369 183 375 202 375 C250 375 268 354 268 298 L268 267 L232 252 C75 181 33 145 33 80 C33 26 73 -10 131 -10 C178 -10 226 10 274 49 C291 10 324 -10 371 -10 C434 -10 473 25 475 84 L446 84 Z M268 223 L268 93 C243 65 220 50 202 50 C178 50 161 74 161 106 C161 146 194 188 242 211 L268 223 Z M208 488 L242 488 L440 642 L440 649 L288 649 L208 488 Z " />
<glyph glyph-name="acircumflex" unicode="&#xe2;" horiz-adv-x="480" d="M446 84 C443 62 433 49 418 49 C400 49 394 64 394 108 L394 287 C394 339 389 356 368 378 C341 406 299 419 236 419 C127 419 46 375 46 315 C46 290 64 272 90 272 C117 272 133 289 139 323 C142 342 146 354 153 360 C163 369 183 375 202 375 C250 375 268 354 268 298 L268 267 L232 252 C75 181 33 145 33 80 C33 26 73 -10 131 -10 C178 -10 226 10 274 49 C291 10 324 -10 371 -10 C434 -10 473 25 475 84 L446 84 Z M268 223 L268 93 C243 65 220 50 202 50 C178 50 161 74 161 106 C161 146 194 188 242 211 L268 223 Z M351 489 L386 489 L300 652 L196 652 L106 489 L139 489 L243 578 L351 489 Z " />
<glyph glyph-name="atilde" unicode="&#xe3;" horiz-adv-x="480" d="M446 84 C443 62 433 49 418 49 C400 49 394 64 394 108 L394 287 C394 339 389 356 368 378 C341 406 299 419 236 419 C127 419 46 375 46 315 C46 290 64 272 90 272 C117 272 133 289 139 323 C142 342 146 354 153 360 C163 369 183 375 202 375 C250 375 268 354 268 298 L268 267 L232 252 C75 181 33 145 33 80 C33 26 73 -10 131 -10 C178 -10 226 10 274 49 C291 10 324 -10 371 -10 C434 -10 473 25 475 84 L446 84 Z M268 223 L268 93 C243 65 220 50 202 50 C178 50 161 74 161 106 C161 146 194 188 242 211 L268 223 Z M120 503 C125 535 139 550 164 550 C180 550 196 544 230 526 C264 509 283 503 304 503 C363 503 399 551 399 629 L399 635 L368 635 C366 600 350 582 322 582 C309 582 297 586 275 598 C231 621 209 629 184 629 C154 629 121 611 108 587 C96 564 90 540 90 503 L120 503 Z " />
<glyph glyph-name="adieresis" unicode="&#xe4;" horiz-adv-x="480" d="M446 84 C443 62 433 49 418 49 C400 49 394 64 394 108 L394 287 C394 339 389 356 368 378 C341 406 299 419 236 419 C127 419 46 375 46 315 C46 290 64 272 90 272 C117 272 133 289 139 323 C142 342 146 354 153 360 C163 369 183 375 202 375 C250 375 268 354 268 298 L268 267 L232 252 C75 181 33 145 33 80 C33 26 73 -10 131 -10 C178 -10 226 10 274 49 C291 10 324 -10 371 -10 C434 -10 473 25 475 84 L446 84 Z M268 223 L268 93 C243 65 220 50 202 50 C178 50 161 74 161 106 C161 146 194 188 242 211 L268 223 Z M150 633 C117 633 90 606 90 573 C90 540 117 513 149 513 C183 513 210 539 210 573 C210 606 184 633 150 633 L150 633 Z M339 633 C306 633 279 606 279 573 C279 540 306 513 338 513 C372 513 399 540 399 573 C399 606 372 633 339 633 L339 633 Z " />
<glyph glyph-name="aring" unicode="&#xe5;" horiz-adv-x="480" d="M446 84 C443 62 433 49 418 49 C400 49 394 64 394 108 L394 287 C394 339 389 356 368 378 C341 406 299 419 236 419 C127 419 46 375 46 315 C46 290 64 272 90 272 C117 272 133 289 139 323 C142 342 146 354 153 360 C163 369 183 375 202 375 C250 375 268 354 268 298 L268 267 L232 252 C75 181 33 145 33 80 C33 26 73 -10 131 -10 C178 -10 226 10 274 49 C291 10 324 -10 371 -10 C434 -10 473 25 475 84 L446 84 Z M268 223 L268 93 C243 65 220 50 202 50 C178 50 161 74 161 106 C161 146 194 188 242 211 L268 223 Z M251 682 C192 682 144 634 144 575 C144 518 192 469 249 469 C309 469 357 516 357 576 C357 634 309 682 251 682 L251 682 Z M250 643 C288 643 318 613 318 576 C318 538 287 508 250 508 C213 508 183 538 183 576 C183 613 214 643 250 643 L250 643 Z " />
<glyph glyph-name="ae" unicode="&#xe6;" horiz-adv-x="646" d="M570 99 C546 61 510 39 471 39 C409 39 374 101 374 210 L374 226 L614 226 C606 345 539 419 440 419 C402 419 371 408 343 386 C340 388 333 391 322 396 C287 414 261 419 214 419 C116 419 40 374 40 317 C40 293 60 275 86 275 C113 275 132 294 137 326 C141 350 141 350 147 357 C155 369 174 376 194 376 C240 376 257 353 257 291 L257 266 C180 235 114 203 89 182 C52 152 33 118 33 82 C33 30 78 -11 134 -11 C181 -11 234 17 283 67 C321 16 375 -11 440 -11 C513 -11 573 22 603 79 L570 99 Z M374 266 C376 335 400 376 438 376 C461 376 480 361 491 335 C498 320 500 304 501 266 L374 266 Z M257 96 C241 70 218 53 199 53 C175 53 157 78 157 112 C157 156 186 188 257 222 L257 96 Z " />
<glyph glyph-name="ccedilla" unicode="&#xe7;" horiz-adv-x="426" d="M368 116 C352 64 318 36 271 36 C203 36 170 94 170 215 C170 323 199 376 258 376 C284 376 296 366 301 340 C310 292 323 274 351 274 C376 274 394 297 394 328 C394 381 336 419 255 419 C126 419 31 323 31 193 C31 76 109 -9 223 -15 C217 -64 214 -80 210 -100 C231 -102 244 -117 244 -141 C244 -165 231 -179 209 -179 C194 -179 181 -176 163 -169 C161 -186 160 -189 158 -205 C176 -213 193 -217 213 -217 C274 -217 314 -182 314 -129 C314 -84 290 -54 248 -49 C250 -30 251 -24 252 -15 C331 -8 384 33 405 101 L368 116 Z " />
<glyph glyph-name="egrave" unicode="&#xe8;" horiz-adv-x="440" d="M409 227 C410 342 338 419 230 419 C116 419 33 327 33 202 C33 76 118 -16 235 -16 C306 -16 372 23 401 81 L367 100 C343 58 307 34 267 34 C200 34 162 93 162 196 C162 207 162 215 164 227 L409 227 Z M293 266 L164 266 C170 345 188 376 229 376 C269 376 293 339 293 276 L293 266 Z M320 488 L240 649 L87 649 L87 642 L286 488 L320 488 Z " />
<glyph glyph-name="eacute" unicode="&#xe9;" horiz-adv-x="440" d="M409 227 C410 342 338 419 230 419 C116 419 33 327 33 202 C33 76 118 -16 235 -16 C306 -16 372 23 401 81 L367 100 C343 58 307 34 267 34 C200 34 162 93 162 196 C162 207 162 215 164 227 L409 227 Z M293 266 L164 266 C170 345 188 376 229 376 C269 376 293 339 293 276 L293 266 Z M195 488 L229 488 L427 642 L427 649 L275 649 L195 488 Z " />
<glyph glyph-name="ecircumflex" unicode="&#xea;" horiz-adv-x="440" d="M409 227 C410 342 338 419 230 419 C116 419 33 327 33 202 C33 76 118 -16 235 -16 C306 -16 372 23 401 81 L367 100 C343 58 307 34 267 34 C200 34 162 93 162 196 C162 207 162 215 164 227 L409 227 Z M293 266 L164 266 C170 345 188 376 229 376 C269 376 293 339 293 276 L293 266 Z M345 489 L380 489 L294 652 L189 652 L100 489 L133 489 L237 578 L345 489 Z " />
<glyph glyph-name="edieresis" unicode="&#xeb;" horiz-adv-x="440" d="M409 227 C410 342 338 419 230 419 C116 419 33 327 33 202 C33 76 118 -16 235 -16 C306 -16 372 23 401 81 L367 100 C343 58 307 34 267 34 C200 34 162 93 162 196 C162 207 162 215 164 227 L409 227 Z M293 266 L164 266 C170 345 188 376 229 376 C269 376 293 339 293 276 L293 266 Z M147 633 C114 633 87 606 87 573 C87 540 114 513 146 513 C180 513 207 539 207 573 C207 606 181 633 147 633 L147 633 Z M337 633 C304 633 277 606 277 573 C277 540 304 513 336 513 C370 513 397 540 397 573 C397 606 370 633 337 633 L337 633 Z " />
<glyph glyph-name="igrave" unicode="&#xec;" horiz-adv-x="271" d="M15 343 L25 343 C68 344 81 325 81 263 L81 125 C79 58 69 43 26 42 L15 42 L15 0 L260 0 L260 42 L255 42 C214 43 207 55 205 125 L205 419 L198 419 C169 411 52 389 15 386 L15 343 Z M228 488 L148 649 L-5 649 L-5 642 L194 488 L228 488 Z " />
<glyph glyph-name="iacute" unicode="&#xed;" horiz-adv-x="271" d="M15 343 L25 343 C68 344 81 325 81 263 L81 125 C79 58 69 43 26 42 L15 42 L15 0 L260 0 L260 42 L255 42 C214 43 207 55 205 125 L205 419 L198 419 C169 411 52 389 15 386 L15 343 Z M97 488 L131 488 L329 642 L329 649 L177 649 L97 488 Z " />
<glyph glyph-name="icircumflex" unicode="&#xee;" horiz-adv-x="271" d="M14 343 L25 343 C68 344 81 325 81 263 L81 125 C79 58 69 43 26 42 L14 42 L14 0 L259 0 L259 42 L254 42 C214 43 207 55 205 125 L205 419 L198 419 C169 411 51 389 14 386 L14 343 Z M244 489 L279 489 L193 652 L88 652 L-1 489 L32 489 L136 578 L244 489 Z " />
<glyph glyph-name="idieresis" unicode="&#xef;" horiz-adv-x="271" d="M14 343 L24 343 C67 344 80 325 80 263 L80 125 C78 58 68 43 25 42 L14 42 L14 0 L259 0 L259 42 L254 42 C213 43 206 55 204 125 L204 419 L197 419 C168 411 51 389 14 386 L14 343 Z M61 633 C28 633 1 606 1 573 C1 540 28 513 60 513 C94 513 121 539 121 573 C121 606 95 633 61 633 L61 633 Z M216 633 C183 633 156 606 156 573 C156 540 183 513 215 513 C249 513 276 540 276 573 C276 606 249 633 216 633 L216 633 Z " />
<glyph glyph-name="eth" unicode="&#xf0;" horiz-adv-x="489" d="M134 616 C170 592 176 588 207 560 L110 504 L127 466 L237 529 C269 493 301 437 312 396 C290 414 274 419 242 419 C121 419 33 328 33 202 C33 75 120 -14 245 -14 C376 -14 456 80 456 235 C456 363 411 473 317 576 L393 620 L375 657 L286 606 C252 635 222 655 180 678 L134 616 Z M247 374 C292 374 316 316 316 210 C316 131 310 97 288 60 C276 37 265 30 244 30 C195 30 172 85 172 200 C172 316 197 374 247 374 L247 374 Z " />
<glyph glyph-name="ntilde" unicode="&#xf1;" horiz-adv-x="526" d="M20 338 L24 338 C62 338 71 323 73 259 L73 125 C71 54 65 44 24 42 L21 42 L21 0 L246 0 L246 42 C209 44 202 56 202 125 L202 283 C232 332 256 353 286 353 C314 353 333 327 333 288 L333 125 C332 57 328 47 294 43 L289 42 L289 0 L515 0 L515 42 L511 42 C473 43 466 55 464 125 L464 260 C464 316 460 338 446 363 C427 397 386 419 341 419 C290 419 241 393 203 346 C202 375 199 396 193 412 L185 412 C164 406 144 402 104 395 C41 384 34 383 20 380 L20 338 Z M145 503 C151 535 165 550 189 550 C205 550 221 544 255 526 C289 509 308 503 329 503 C388 503 424 551 424 629 L424 635 L394 635 C391 600 375 582 348 582 C334 582 322 586 300 598 C256 621 234 629 209 629 C179 629 147 611 133 587 C121 564 116 540 115 503 L145 503 Z " />
<glyph glyph-name="ograve" unicode="&#xf2;" horiz-adv-x="490" d="M33 200 C33 138 54 82 90 45 C127 8 188 -16 245 -16 C368 -16 457 75 457 203 C457 329 368 419 243 419 C122 419 33 327 33 203 L33 200 Z M245 375 C266 375 285 362 298 340 C311 317 318 268 318 197 C318 80 295 27 246 27 C194 27 172 82 172 214 C172 321 197 375 245 375 L245 375 Z M342 488 L262 649 L109 649 L109 642 L308 488 L342 488 Z " />
<glyph glyph-name="oacute" unicode="&#xf3;" horiz-adv-x="490" d="M33 200 C33 138 54 82 90 45 C127 8 188 -16 245 -16 C368 -16 457 75 457 203 C457 329 368 419 243 419 C122 419 33 327 33 203 L33 200 Z M245 375 C266 375 285 362 298 340 C311 317 318 268 318 197 C318 80 295 27 246 27 C194 27 172 82 172 214 C172 321 197 375 245 375 L245 375 Z M204 488 L238 488 L436 642 L436 649 L284 649 L204 488 Z " />
<glyph glyph-name="ocircumflex" unicode="&#xf4;" horiz-adv-x="490" d="M33 200 C33 138 54 82 90 45 C127 8 188 -16 245 -16 C368 -16 457 75 457 203 C457 329 368 419 243 419 C122 419 33 327 33 203 L33 200 Z M245 375 C266 375 285 362 298 340 C311 317 318 268 318 197 C318 80 295 27 246 27 C194 27 172 82 172 214 C172 321 197 375 245 375 L245 375 Z M358 489 L393 489 L307 652 L202 652 L113 489 L146 489 L250 578 L358 489 Z " />
<glyph glyph-name="otilde" unicode="&#xf5;" horiz-adv-x="490" d="M33 200 C33 138 54 82 90 45 C127 8 188 -16 245 -16 C368 -16 457 75 457 203 C457 329 368 419 243 419 C122 419 33 327 33 203 L33 200 Z M245 375 C266 375 285 362 298 340 C311 317 318 268 318 197 C318 80 295 27 246 27 C194 27 172 82 172 214 C172 321 197 375 245 375 L245 375 Z M129 503 C134 535 148 550 173 550 C189 550 205 544 239 526 C273 509 292 503 313 503 C372 503 408 551 408 629 L408 635 L377 635 C375 600 359 582 332 582 C318 582 306 586 284 598 C240 621 218 629 193 629 C163 629 130 611 117 587 C105 564 100 540 99 503 L129 503 Z " />
<glyph glyph-name="odieresis" unicode="&#xf6;" horiz-adv-x="490" d="M33 200 C33 138 54 82 90 45 C127 8 188 -16 245 -16 C368 -16 457 75 457 203 C457 329 368 419 243 419 C122 419 33 327 33 203 L33 200 Z M245 375 C266 375 285 362 298 340 C311 317 318 268 318 197 C318 80 295 27 246 27 C194 27 172 82 172 214 C172 321 197 375 245 375 L245 375 Z M152 633 C119 633 92 606 92 573 C92 540 119 513 151 513 C185 513 212 539 212 573 C212 606 186 633 152 633 L152 633 Z M342 633 C309 633 282 606 282 573 C282 540 309 513 341 513 C375 513 402 540 402 573 C402 606 375 633 342 633 L342 633 Z " />
<glyph glyph-name="divide" unicode="&#xf7;" horiz-adv-x="450" d="M8 396 L8 323 L441 323 L441 396 L8 396 Z M224 248 C186 248 155 213 155 171 C155 129 186 94 223 94 C262 94 293 128 293 171 C293 214 262 248 224 248 L224 248 Z M224 622 C187 622 155 588 155 547 C155 503 186 469 224 469 C262 469 293 503 293 545 C293 588 262 622 224 622 L224 622 Z " />
<glyph glyph-name="oslash" unicode="&#xf8;" horiz-adv-x="490" d="M362 386 C324 409 287 419 244 419 C122 419 33 328 33 203 L33 200 C34 135 55 80 93 42 L54 -7 L83 -35 L125 18 C164 -5 203 -16 246 -16 C368 -16 457 76 457 202 C457 269 436 321 393 362 L432 411 L403 439 L362 386 Z M174 146 C173 175 172 192 172 213 C172 321 196 375 245 375 C273 375 298 351 307 316 L174 146 Z M315 262 C317 236 318 217 318 194 C318 80 295 27 245 27 C214 27 195 46 182 92 L315 262 Z " />
<glyph glyph-name="ugrave" unicode="&#xf9;" horiz-adv-x="514" d="M452 403 L275 403 L275 361 L280 361 C317 359 322 351 323 279 L323 145 C323 141 317 116 314 110 C301 77 270 51 245 51 C231 51 217 60 209 73 C202 85 200 100 200 134 L200 403 L13 403 L13 361 L16 361 C57 361 70 340 71 279 L71 130 C71 88 76 60 88 40 C108 5 146 -16 190 -16 C240 -16 287 12 323 63 L323 56 L323 53 C323 44 323 39 324 35 L325 11 L326 7 L327 -7 L327 -8 C327 -10 328 -12 329 -16 L334 -16 C359 -8 448 1 501 0 L501 42 L498 42 C461 43 454 56 452 125 L452 403 Z M348 488 L267 649 L115 649 L115 642 L314 488 L348 488 Z " />
<glyph glyph-name="uacute" unicode="&#xfa;" horiz-adv-x="514" d="M452 403 L275 403 L275 361 L280 361 C317 359 322 351 323 279 L323 145 C323 141 317 116 314 110 C301 77 270 51 245 51 C231 51 217 60 209 73 C202 85 200 100 200 134 L200 403 L13 403 L13 361 L16 361 C57 361 70 340 71 279 L71 130 C71 88 76 60 88 40 C108 5 146 -16 190 -16 C240 -16 287 12 323 63 L323 56 L323 53 C323 44 323 39 324 35 L325 11 L326 7 L327 -7 L327 -8 C327 -10 328 -12 329 -16 L334 -16 C359 -8 448 1 501 0 L501 42 L498 42 C461 43 454 56 452 125 L452 403 Z M231 488 L265 488 L463 642 L463 649 L311 649 L231 488 Z " />
<glyph glyph-name="ucircumflex" unicode="&#xfb;" horiz-adv-x="514" d="M452 403 L275 403 L275 361 L280 361 C317 359 322 351 323 279 L323 145 C323 141 317 116 314 110 C301 77 270 51 245 51 C231 51 217 60 209 73 C202 85 200 100 200 134 L200 403 L13 403 L13 361 L16 361 C57 361 70 340 71 279 L71 130 C71 88 76 60 88 40 C108 5 146 -16 190 -16 C240 -16 287 12 323 63 L323 56 L323 53 C323 44 323 39 324 35 L325 11 L326 7 L327 -7 L327 -8 C327 -10 328 -12 329 -16 L334 -16 C359 -8 448 1 501 0 L501 42 L498 42 C461 43 454 56 452 125 L452 403 Z M376 489 L412 489 L325 652 L221 652 L132 489 L165 489 L269 578 L376 489 Z " />
<glyph glyph-name="udieresis" unicode="&#xfc;" horiz-adv-x="514" d="M452 403 L275 403 L275 361 L280 361 C317 359 322 351 323 279 L323 145 C323 141 317 116 314 110 C301 77 270 51 245 51 C231 51 217 60 209 73 C202 85 200 100 200 134 L200 403 L13 403 L13 361 L16 361 C57 361 70 340 71 279 L71 130 C71 88 76 60 88 40 C108 5 146 -16 190 -16 C240 -16 287 12 323 63 L323 56 L323 53 C323 44 323 39 324 35 L325 11 L326 7 L327 -7 L327 -8 C327 -10 328 -12 329 -16 L334 -16 C359 -8 448 1 501 0 L501 42 L498 42 C461 43 454 56 452 125 L452 403 Z M173 633 C140 633 113 606 113 573 C113 540 140 513 172 513 C206 513 233 539 233 573 C233 606 207 633 173 633 L173 633 Z M363 633 C330 633 303 606 303 573 C303 540 330 513 362 513 C396 513 423 540 423 573 C423 606 396 633 363 633 L363 633 Z " />
<glyph glyph-name="yacute" unicode="&#xfd;" horiz-adv-x="453" d="M-5 403 L-5 361 L2 360 C27 358 37 347 61 293 L212 -15 L193 -65 C175 -107 164 -116 107 -135 C69 -147 52 -166 52 -196 C52 -227 74 -250 105 -250 C148 -250 177 -214 218 -112 L362 251 L382 291 C404 346 412 355 443 360 L450 361 L450 403 L303 403 L303 361 L309 361 L311 361 L314 361 C329 362 346 348 346 336 C346 330 344 321 340 313 C336 303 332 294 329 285 L264 118 L184 301 C177 317 174 329 174 339 C174 353 182 359 201 360 L207 361 L207 403 L-5 403 Z M209 488 L243 488 L441 642 L441 649 L289 649 L209 488 Z " />
<glyph glyph-name="thorn" unicode="&#xfe;" horiz-adv-x="527" d="M7 602 L13 602 C54 601 61 589 63 520 L63 -116 C61 -186 55 -197 13 -199 L7 -199 L7 -241 L253 -241 L253 -199 L243 -199 C202 -198 194 -184 192 -116 L192 42 C233 1 269 -16 314 -16 C417 -16 493 78 493 205 C493 329 421 419 324 419 C275 419 229 396 190 350 L190 678 L182 678 C162 672 77 655 47 651 C26 648 13 646 7 644 L7 602 Z M192 295 C216 340 243 361 274 361 C324 361 354 303 354 206 C354 162 351 130 345 110 C331 69 303 42 270 42 C243 42 216 59 192 92 L192 295 Z " />
<glyph glyph-name="ydieresis" unicode="&#xff;" horiz-adv-x="453" d="M-5 403 L-5 361 L2 360 C27 358 37 347 61 293 L212 -15 L193 -65 C175 -107 164 -116 107 -135 C69 -147 52 -166 52 -196 C52 -227 74 -250 105 -250 C148 -250 177 -214 218 -112 L362 251 C363 254 366 260 371 270 C372 272 381 290 393 317 C407 347 418 357 443 360 L450 361 L450 403 L303 403 L303 361 L309 361 L311 361 L314 361 C329 362 346 348 346 336 C346 330 344 321 340 313 C336 303 332 294 329 285 L264 118 L184 301 C177 317 174 329 174 339 C174 353 182 359 201 360 L207 361 L207 403 L-5 403 Z M147 633 C114 633 87 606 87 573 C87 540 114 513 146 513 C180 513 207 539 207 573 C207 606 181 633 147 633 L147 633 Z M337 633 C304 633 277 606 277 573 C277 540 304 513 336 513 C370 513 397 540 397 573 C397 606 370 633 337 633 L337 633 Z " />
<glyph glyph-name="Amacron" unicode="&#x100;" horiz-adv-x="591" d="M603 0 L603 44 L598 44 C555 50 543 66 507 157 L316 678 L275 678 L90 170 C62 87 34 50 -6 44 L-12 44 L-12 0 L180 0 L180 44 L173 44 C139 44 116 63 116 91 C116 107 120 121 138 170 L149 202 L348 202 L376 128 C385 102 391 82 391 73 C391 53 372 44 333 44 L327 44 L327 0 L603 0 Z M333 247 L165 247 L247 475 L333 247 Z M138 810 L138 758 L445 758 L445 810 L138 810 Z " />
<glyph glyph-name="amacron" unicode="&#x101;" horiz-adv-x="480" d="M446 84 C443 62 433 49 418 49 C400 49 394 64 394 108 L394 287 C394 339 389 356 368 378 C341 406 299 419 236 419 C127 419 46 375 46 315 C46 290 64 272 90 272 C117 272 133 289 139 323 C142 342 146 354 153 360 C163 369 183 375 202 375 C250 375 268 354 268 298 L268 267 L232 252 C75 181 33 145 33 80 C33 26 73 -10 131 -10 C178 -10 226 10 274 49 C291 10 324 -10 371 -10 C434 -10 473 25 475 84 L446 84 Z M268 223 L268 93 C243 65 220 50 202 50 C178 50 161 74 161 106 C161 146 194 188 242 211 L268 223 Z M94 541 L378 541 L378 590 L94 590 L94 541 Z " />
<glyph glyph-name="Abreve" unicode="&#x102;" horiz-adv-x="591" d="M603 0 L603 44 L598 44 C555 50 543 66 507 157 L316 678 L275 678 L90 170 C62 87 34 50 -6 44 L-12 44 L-12 0 L180 0 L180 44 L173 44 C139 44 116 63 116 91 C116 107 120 121 138 170 L149 202 L348 202 L376 128 C385 102 391 82 391 73 C391 53 372 44 333 44 L327 44 L327 0 L603 0 Z M333 247 L165 247 L247 475 L333 247 Z M109 880 C136 782 209 720 298 720 C386 720 459 783 484 880 L439 880 C413 835 362 810 296 810 C230 810 185 832 154 880 L109 880 Z " />
<glyph glyph-name="abreve" unicode="&#x103;" horiz-adv-x="480" d="M446 84 C443 62 433 49 418 49 C400 49 394 64 394 108 L394 287 C394 339 389 356 368 378 C341 406 299 419 236 419 C127 419 46 375 46 315 C46 290 64 272 90 272 C117 272 133 289 139 323 C142 342 146 354 153 360 C163 369 183 375 202 375 C250 375 268 354 268 298 L268 267 L232 252 C75 181 33 145 33 80 C33 26 73 -10 131 -10 C178 -10 226 10 274 49 C291 10 324 -10 371 -10 C434 -10 473 25 475 84 L446 84 Z M268 223 L268 93 C243 65 220 50 202 50 C178 50 161 74 161 106 C161 146 194 188 242 211 L268 223 Z M103 648 C106 558 168 489 246 489 C324 489 384 556 388 648 L361 648 C343 596 306 571 248 571 C187 571 146 598 131 648 L103 648 Z " />
<glyph glyph-name="Aogonek" unicode="&#x104;" horiz-adv-x="591" d="M603 0 L603 44 L598 44 C555 50 543 66 507 157 L316 678 L275 678 L90 170 C62 87 34 50 -6 44 L-12 44 L-12 0 L180 0 L180 44 L173 44 C139 44 116 63 116 91 C116 107 120 121 138 170 L149 202 L348 202 L376 128 C385 102 391 82 391 73 C391 53 372 44 333 44 L327 44 L327 0 L491 0 C442 -25 410 -72 410 -117 C410 -170 454 -209 512 -209 C546 -209 572 -199 607 -171 L595 -150 C579 -159 570 -162 558 -162 C525 -162 502 -132 502 -89 C502 -56 511 -29 531 0 L603 0 Z M333 247 L165 247 L247 475 L333 247 Z " />
<glyph glyph-name="aogonek" unicode="&#x105;" horiz-adv-x="480" d="M446 84 C443 63 433 50 418 50 C400 50 394 65 394 108 L394 287 C394 339 389 356 368 378 C341 406 299 419 236 419 C127 419 46 375 46 315 C46 290 64 272 90 272 C117 272 133 289 139 323 C142 342 146 354 153 360 C163 369 183 375 202 375 C250 375 268 354 268 298 L268 267 L232 252 C75 181 33 145 33 80 C33 26 73 -10 131 -10 C178 -10 226 10 274 49 C287 16 318 -5 358 -9 C325 -35 305 -71 305 -107 C305 -156 342 -192 391 -192 C419 -192 441 -183 471 -158 L461 -137 C448 -145 442 -147 432 -147 C405 -147 388 -122 388 -81 C388 -54 393 -30 404 -6 C448 5 474 39 475 84 L446 84 Z M268 223 L268 93 C243 65 220 50 202 50 C178 50 161 74 161 106 C161 146 194 188 242 211 L268 223 Z " />
<glyph glyph-name="Cacute" unicode="&#x106;" horiz-adv-x="662" d="M567 254 C555 182 524 114 490 84 C458 57 416 40 378 40 C326 40 274 70 247 117 C219 166 207 229 207 328 C207 527 263 628 374 628 C470 628 535 554 562 412 L601 412 L595 661 L556 661 C555 659 555 658 554 654 C553 637 547 618 536 593 C485 650 421 679 342 679 C268 679 201 653 150 605 C81 540 39 435 39 326 C39 130 166 -13 340 -13 C421 -13 492 19 541 76 C553 58 561 39 567 10 L606 10 L606 254 L567 254 Z M294 729 L327 729 L573 869 L573 877 L394 877 L294 729 Z " />
<glyph glyph-name="cacute" unicode="&#x107;" horiz-adv-x="426" d="M368 116 C352 64 318 36 271 36 C203 36 170 94 170 215 C170 323 199 376 258 376 C284 376 296 366 301 340 C310 292 323 274 351 274 C376 274 394 297 394 328 C394 381 336 419 255 419 C126 419 31 323 31 193 C31 71 116 -16 235 -16 C319 -16 381 26 405 101 L368 116 Z M186 488 L219 488 L418 642 L418 649 L266 649 L186 488 Z " />
<glyph glyph-name="Ccircumflex" unicode="&#x108;" horiz-adv-x="662" d="M567 254 C555 182 524 114 490 84 C458 57 416 40 378 40 C326 40 274 70 247 117 C219 166 207 229 207 328 C207 527 263 628 374 628 C470 628 535 554 562 412 L601 412 L595 661 L556 661 C555 659 555 658 554 654 C553 637 547 618 536 593 C485 650 421 679 342 679 C268 679 201 653 150 605 C81 540 39 435 39 326 C39 130 166 -13 340 -13 C421 -13 492 19 541 76 C553 58 561 39 567 10 L606 10 L606 254 L567 254 Z M280 879 L172 729 L204 729 L350 817 L514 729 L546 729 L436 879 L280 879 Z " />
<glyph glyph-name="Cdotaccent" unicode="&#x10a;" horiz-adv-x="662" d="M567 254 C555 182 524 114 490 84 C458 57 416 40 378 40 C326 40 274 70 247 117 C219 166 207 229 207 328 C207 527 263 628 374 628 C470 628 535 554 562 412 L601 412 L595 661 L556 661 C555 659 555 658 554 654 C553 637 547 618 536 593 C485 650 421 679 342 679 C268 679 201 653 150 605 C81 540 39 435 39 326 C39 130 166 -13 340 -13 C421 -13 492 19 541 76 C553 58 561 39 567 10 L606 10 L606 254 L567 254 Z M348 862 C310 862 280 832 280 794 C280 757 311 726 347 726 C386 726 416 756 416 794 C416 832 386 862 348 862 L348 862 Z " />
<glyph glyph-name="cdotaccent" unicode="&#x10b;" horiz-adv-x="426" d="M368 116 C352 64 318 36 271 36 C203 36 170 94 170 215 C170 323 199 376 258 376 C284 376 296 366 301 340 C310 292 323 274 351 274 C376 274 394 297 394 328 C394 381 336 419 255 419 C126 419 31 323 31 193 C31 71 116 -16 235 -16 C319 -16 381 26 405 101 L368 116 Z M252 633 C219 633 192 606 192 573 C192 540 219 513 251 513 C285 513 312 539 312 573 C312 606 286 633 252 633 L252 633 Z " />
<glyph glyph-name="Ccaron" unicode="&#x10c;" horiz-adv-x="662" d="M567 254 C555 182 524 114 490 84 C458 57 416 40 378 40 C326 40 274 70 247 117 C219 166 207 229 207 328 C207 527 263 628 374 628 C470 628 535 554 562 412 L601 412 L595 661 L556 661 C555 659 555 658 554 654 C553 637 547 618 536 593 C485 650 421 679 342 679 C268 679 201 653 150 605 C81 540 39 435 39 326 C39 130 166 -13 340 -13 C421 -13 492 19 541 76 C553 58 561 39 567 10 L606 10 L606 254 L567 254 Z M424 729 L535 879 L503 879 L356 791 L192 879 L160 879 L268 729 L424 729 Z " />
<glyph glyph-name="ccaron" unicode="&#x10d;" horiz-adv-x="426" d="M368 116 C352 64 318 36 271 36 C203 36 170 94 170 215 C170 323 199 376 258 376 C284 376 296 366 301 340 C310 292 323 274 351 274 C376 274 394 297 394 328 C394 381 336 419 255 419 C126 419 31 323 31 193 C31 71 116 -16 235 -16 C319 -16 381 26 405 101 L368 116 Z M132 655 L99 655 L189 491 L294 491 L379 655 L344 655 L244 566 L132 655 Z " />
<glyph glyph-name="Dcaron" unicode="&#x10e;" horiz-adv-x="709" d="M26 622 L36 622 C89 623 102 603 102 519 L102 149 C102 65 89 44 37 44 L25 44 L25 0 L261 0 C411 0 465 8 520 40 C615 94 669 200 669 329 C669 457 614 563 520 616 C452 654 356 672 218 672 C196 672 179 672 149 671 C125 671 120 671 84 669 C54 667 43 666 26 665 L26 622 Z M250 626 C263 627 274 627 286 627 C348 627 385 615 421 582 C474 534 501 447 501 326 C501 182 463 87 397 64 C366 53 337 47 317 47 C261 47 250 67 250 171 L250 626 Z M398 729 L509 879 L477 879 L330 791 L166 879 L134 879 L242 729 L398 729 Z " />
<glyph glyph-name="dcaron" unicode="&#x10f;" horiz-adv-x="652" d="M516 50 L511 50 C472 51 464 65 464 133 L464 678 L457 678 C422 670 339 656 287 649 C279 648 279 648 273 647 L273 605 L278 605 C320 605 334 584 335 522 L335 364 C304 399 258 419 209 419 C104 419 33 329 33 197 C33 145 41 109 61 74 C93 18 141 -12 200 -12 C250 -12 285 6 337 56 L337 50 C337 27 340 10 347 -12 C388 -2 448 4 516 6 L516 50 Z M335 111 C311 67 284 47 250 47 C200 47 172 104 172 206 C172 309 199 361 254 361 C281 361 305 347 335 315 L335 111 Z M507 439 C535 441 554 447 581 464 C623 490 645 528 645 578 C645 637 612 678 563 678 C525 678 498 653 498 619 C498 589 521 566 550 566 C555 566 560 567 565 568 C577 570 577 570 580 570 C590 570 597 561 597 548 C597 514 559 483 507 474 L507 439 Z " />
<glyph glyph-name="Dcroat" unicode="&#x110;" horiz-adv-x="711" d="M104 306 L104 149 C104 65 91 44 40 44 L28 44 L28 0 L263 0 C414 0 468 8 523 40 C618 94 672 200 672 329 C672 457 617 563 523 616 C455 654 359 672 220 672 C198 672 181 672 151 671 C127 671 122 671 87 669 C56 667 45 666 29 665 L29 622 L38 622 C92 623 104 603 104 519 L104 358 L23 358 L23 306 L104 306 Z M252 306 L378 306 L378 358 L252 358 L252 626 C266 627 276 627 288 627 C351 627 387 615 424 582 C477 534 504 447 504 326 C504 182 466 87 399 64 C369 53 340 47 319 47 C263 47 252 67 252 171 L252 306 Z " />
<glyph glyph-name="dcroat" unicode="&#x111;" horiz-adv-x="526" d="M336 490 L336 364 C305 399 258 419 209 419 C104 419 33 330 33 197 C33 145 41 110 61 74 C93 18 141 -12 200 -12 C251 -12 298 12 337 56 L337 50 C337 27 340 10 347 -12 C389 -3 448 4 516 6 L516 50 L511 50 C473 51 465 65 465 133 L465 490 L516 490 L516 535 L465 535 L465 678 L458 678 C423 670 341 656 273 647 L273 604 L278 604 C317 605 333 586 336 535 L187 535 L187 490 L336 490 Z M336 111 C315 70 283 47 250 47 C200 47 172 105 172 206 C172 310 199 362 254 362 C281 362 306 348 336 315 L336 111 Z " />
<glyph glyph-name="Emacron" unicode="&#x112;" horiz-adv-x="590" d="M523 215 C493 89 450 45 360 47 L336 47 C265 46 249 69 251 164 L251 327 L309 327 C365 326 378 310 379 243 L379 235 L417 235 L417 462 L379 462 L379 455 C377 390 365 375 307 374 L251 374 L251 621 L348 621 C431 623 458 597 483 496 L523 496 L512 667 L29 667 L29 624 L38 624 C88 626 103 601 103 521 L103 149 C103 66 88 43 36 44 L25 44 L25 0 L556 0 L563 215 L523 215 Z M145 810 L145 758 L452 758 L452 810 L145 810 Z " />
<glyph glyph-name="emacron" unicode="&#x113;" horiz-adv-x="440" d="M409 227 C410 342 338 419 230 419 C116 419 33 327 33 202 C33 76 118 -16 235 -16 C306 -16 372 23 401 81 L367 100 C343 58 307 34 267 34 C200 34 162 93 162 196 C162 207 162 215 164 227 L409 227 Z M293 266 L164 266 C170 345 188 376 229 376 C269 376 293 339 293 276 L293 266 Z M86 541 L369 541 L369 590 L86 590 L86 541 Z " />
<glyph glyph-name="Ebreve" unicode="&#x114;" horiz-adv-x="590" d="M523 215 C493 89 450 45 360 47 L336 47 C265 46 249 69 251 164 L251 327 L309 327 C365 326 378 310 379 243 L379 235 L417 235 L417 462 L379 462 L379 455 C377 390 365 375 307 374 L251 374 L251 621 L348 621 C431 623 458 597 483 496 L523 496 L512 667 L29 667 L29 624 L38 624 C88 626 103 601 103 521 L103 149 C103 66 88 43 36 44 L25 44 L25 0 L556 0 L563 215 L523 215 Z M113 880 C141 782 214 720 302 720 C391 720 464 783 488 880 L444 880 C418 835 367 810 301 810 C234 810 190 832 159 880 L113 880 Z " />
<glyph glyph-name="ebreve" unicode="&#x115;" horiz-adv-x="440" d="M409 227 C410 342 338 419 230 419 C116 419 33 327 33 202 C33 76 118 -16 235 -16 C306 -16 372 23 401 81 L367 100 C343 58 307 34 267 34 C200 34 162 93 162 196 C162 207 162 215 164 227 L409 227 Z M293 266 L164 266 C170 345 188 376 229 376 C269 376 293 339 293 276 L293 266 Z M92 648 L92 645 C92 607 108 567 136 535 C163 504 195 489 235 489 C313 489 373 556 377 648 L350 648 C332 596 295 571 237 571 C176 571 136 598 120 648 L92 648 Z " />
<glyph glyph-name="Edotaccent" unicode="&#x116;" horiz-adv-x="590" d="M523 215 C493 89 450 45 360 47 L336 47 C265 46 249 69 251 164 L251 327 L309 327 C365 326 378 310 379 243 L379 235 L417 235 L417 462 L379 462 L379 455 C377 390 365 375 307 374 L251 374 L251 621 L348 621 C431 623 458 597 483 496 L523 496 L512 667 L29 667 L29 624 L38 624 C88 626 103 601 103 521 L103 149 C103 66 88 43 36 44 L25 44 L25 0 L556 0 L563 215 L523 215 Z M302 862 C264 862 234 832 234 794 C234 757 265 726 301 726 C340 726 370 756 370 794 C370 832 340 862 302 862 L302 862 Z " />
<glyph glyph-name="edotaccent" unicode="&#x117;" horiz-adv-x="440" d="M409 227 C410 342 338 419 230 419 C116 419 33 327 33 202 C33 76 118 -16 235 -16 C306 -16 372 23 401 81 L367 100 C343 58 307 34 267 34 C200 34 162 93 162 196 C162 207 162 215 164 227 L409 227 Z M293 266 L164 266 C170 345 188 376 229 376 C269 376 293 339 293 276 L293 266 Z M238 633 C205 633 178 606 178 573 C178 540 205 513 237 513 C271 513 298 539 298 573 C298 606 272 633 238 633 L238 633 Z " />
<glyph glyph-name="Eogonek" unicode="&#x118;" horiz-adv-x="590" d="M556 0 L563 215 L523 215 C493 89 450 45 360 47 L336 47 C265 46 249 69 251 164 L251 327 L309 327 C365 326 378 310 379 243 L379 235 L417 235 L417 462 L379 462 L379 455 C377 390 365 375 307 374 L251 374 L251 621 L348 621 C431 623 458 597 483 496 L523 496 L512 667 L29 667 L29 624 L38 624 C88 626 103 601 103 521 L103 149 C103 66 88 43 36 44 L25 44 L25 0 L442 0 C393 -26 361 -72 361 -117 C361 -170 405 -209 464 -209 C498 -209 524 -199 559 -171 L547 -150 C531 -159 522 -162 510 -162 C476 -162 453 -132 453 -89 C453 -55 461 -32 482 0 L556 0 Z " />
<glyph glyph-name="eogonek" unicode="&#x119;" horiz-adv-x="440" d="M367 100 C343 58 307 34 267 34 C200 34 162 93 162 196 C162 207 162 215 164 227 L409 227 C410 342 338 419 230 419 C116 419 33 327 33 202 C33 76 118 -16 236 -16 C246 -16 254 -15 264 -14 C235 -38 217 -74 217 -107 C217 -156 254 -192 303 -192 C331 -192 352 -183 383 -158 L373 -137 C360 -145 353 -147 344 -147 C317 -147 300 -122 300 -81 C300 -51 307 -24 321 4 C354 20 388 52 401 81 L367 100 Z M293 266 L164 266 C170 345 188 376 229 376 C269 376 293 339 293 276 L293 266 Z " />
<glyph glyph-name="Ecaron" unicode="&#x11a;" horiz-adv-x="590" d="M523 215 C493 89 450 45 360 47 L336 47 C265 46 249 69 251 164 L251 327 L309 327 C365 326 378 310 379 243 L379 235 L417 235 L417 462 L379 462 L379 455 C377 390 365 375 307 374 L251 374 L251 621 L348 621 C431 623 458 597 483 496 L523 496 L512 667 L29 667 L29 624 L38 624 C88 626 103 601 103 521 L103 149 C103 66 88 43 36 44 L25 44 L25 0 L556 0 L563 215 L523 215 Z M375 729 L485 879 L453 879 L307 791 L143 879 L111 879 L218 729 L375 729 Z " />
<glyph glyph-name="ecaron" unicode="&#x11b;" horiz-adv-x="440" d="M409 227 C410 342 338 419 230 419 C116 419 33 327 33 202 C33 76 118 -16 235 -16 C306 -16 372 23 401 81 L367 100 C343 58 307 34 267 34 C200 34 162 93 162 196 C162 207 162 215 164 227 L409 227 Z M293 266 L164 266 C170 345 188 376 229 376 C269 376 293 339 293 276 L293 266 Z M129 655 L96 655 L186 491 L291 491 L376 655 L340 655 L241 566 L129 655 Z " />
<glyph glyph-name="Gcircumflex" unicode="&#x11c;" horiz-adv-x="704" d="M413 300 L413 256 L422 256 C473 252 487 238 489 186 L489 161 C489 85 443 37 368 37 C317 37 274 62 249 105 C222 153 210 216 210 319 C210 423 223 499 249 546 C277 597 324 625 380 625 C470 625 535 556 559 436 L601 436 L598 667 L556 667 C553 639 548 618 537 595 C482 653 421 680 346 680 C272 680 204 653 153 604 C82 535 39 431 39 325 C39 131 171 -13 347 -13 C392 -13 425 -7 492 13 C536 26 578 34 608 34 C613 34 618 34 628 32 L628 149 C628 236 632 246 679 255 L686 256 L686 300 L413 300 Z M295 879 L187 729 L218 729 L364 817 L529 729 L561 729 L451 879 L295 879 Z " />
<glyph glyph-name="gcircumflex" unicode="&#x11d;" horiz-adv-x="464" d="M269 -52 C336 -52 366 -72 366 -117 C366 -173 312 -208 227 -208 C171 -208 129 -191 112 -162 C106 -152 104 -143 104 -126 C104 -113 105 -98 107 -87 L108 -85 L108 -83 C94 -77 86 -75 76 -75 C49 -75 27 -102 27 -136 C27 -171 48 -203 82 -223 C112 -240 162 -249 221 -249 C361 -249 442 -188 442 -82 C442 10 385 56 272 56 L243 55 L239 55 L217 55 C205 56 193 56 192 56 C148 56 129 64 129 84 C129 109 155 122 212 124 C260 125 298 134 326 151 C368 177 392 222 392 275 C392 302 386 324 373 348 C383 360 390 365 398 365 C406 365 410 362 419 351 C428 339 435 335 445 335 C461 335 473 350 473 372 C473 400 455 418 429 418 C405 418 385 406 352 373 C318 405 277 419 222 419 C113 419 41 362 41 276 C41 213 79 160 137 139 C77 123 49 93 49 44 C49 -22 101 -53 211 -53 C215 -53 234 -53 246 -52 L269 -52 Z M216 376 C248 376 267 339 267 278 C267 207 250 169 218 169 C184 169 167 206 167 280 C167 339 186 376 216 376 L216 376 Z M330 489 L365 489 L278 652 L174 652 L85 489 L118 489 L222 578 L330 489 Z " />
<glyph glyph-name="Gbreve" unicode="&#x11e;" horiz-adv-x="704" d="M413 300 L413 256 L422 256 C473 252 487 238 489 186 L489 161 C489 85 443 37 368 37 C317 37 274 62 249 105 C222 153 210 216 210 319 C210 423 223 499 249 546 C277 597 324 625 380 625 C470 625 535 556 559 436 L601 436 L598 667 L556 667 C553 639 548 618 537 595 C482 653 421 680 346 680 C272 680 204 653 153 604 C82 535 39 431 39 325 C39 131 171 -13 347 -13 C392 -13 425 -7 492 13 C536 26 578 34 608 34 C613 34 618 34 628 32 L628 149 C628 236 632 246 679 255 L686 256 L686 300 L413 300 Z M174 880 C201 782 274 720 363 720 C451 720 524 783 549 880 L504 880 C478 835 427 810 361 810 C295 810 250 832 219 880 L174 880 Z " />
<glyph glyph-name="gbreve" unicode="&#x11f;" horiz-adv-x="464" d="M269 -52 C336 -52 366 -72 366 -117 C366 -173 312 -208 227 -208 C171 -208 129 -191 112 -162 C106 -152 104 -143 104 -126 C104 -113 105 -98 107 -87 L108 -85 L108 -83 C94 -77 86 -75 76 -75 C49 -75 27 -102 27 -136 C27 -171 48 -203 82 -223 C112 -240 162 -249 221 -249 C361 -249 442 -188 442 -82 C442 10 385 56 272 56 L243 55 L239 55 L217 55 C205 56 193 56 192 56 C148 56 129 64 129 84 C129 109 155 122 212 124 C260 125 298 134 326 151 C368 177 392 222 392 275 C392 302 386 324 373 348 C383 360 390 365 398 365 C406 365 410 362 419 351 C428 339 435 335 445 335 C461 335 473 350 473 372 C473 400 455 418 429 418 C405 418 385 406 352 373 C318 405 277 419 222 419 C113 419 41 362 41 276 C41 213 79 160 137 139 C77 123 49 93 49 44 C49 -22 101 -53 211 -53 C215 -53 234 -53 246 -52 L269 -52 Z M216 376 C248 376 267 339 267 278 C267 207 250 169 218 169 C184 169 167 206 167 280 C167 339 186 376 216 376 L216 376 Z M90 648 C99 551 154 489 232 489 C311 489 370 556 375 648 L347 648 C329 596 293 571 235 571 C174 571 133 598 118 648 L90 648 Z " />
<glyph glyph-name="Gdotaccent" unicode="&#x120;" horiz-adv-x="704" d="M413 300 L413 256 L422 256 C473 252 487 238 489 186 L489 161 C489 85 443 37 368 37 C317 37 274 62 249 105 C222 153 210 216 210 319 C210 423 223 499 249 546 C277 597 324 625 380 625 C470 625 535 556 559 436 L601 436 L598 667 L556 667 C553 639 548 618 537 595 C482 653 421 680 346 680 C272 680 204 653 153 604 C82 535 39 431 39 325 C39 131 171 -13 347 -13 C392 -13 425 -7 492 13 C536 26 578 34 608 34 C613 34 618 34 628 32 L628 149 C628 236 632 246 679 255 L686 256 L686 300 L413 300 Z M356 862 C318 862 288 832 288 794 C288 757 319 726 355 726 C394 726 424 756 424 794 C424 832 394 862 356 862 L356 862 Z " />
<glyph glyph-name="gdotaccent" unicode="&#x121;" horiz-adv-x="464" d="M269 -52 C336 -52 366 -72 366 -117 C366 -173 312 -208 227 -208 C171 -208 129 -191 112 -162 C106 -152 104 -143 104 -126 C104 -113 105 -98 107 -87 L108 -85 L108 -83 C94 -77 86 -75 76 -75 C49 -75 27 -102 27 -136 C27 -171 48 -203 82 -223 C112 -240 162 -249 221 -249 C361 -249 442 -188 442 -82 C442 10 385 56 272 56 L243 55 L239 55 L217 55 C205 56 193 56 192 56 C148 56 129 64 129 84 C129 109 155 122 212 124 C260 125 298 134 326 151 C368 177 392 222 392 275 C392 302 386 324 373 348 C383 360 390 365 398 365 C406 365 410 362 419 351 C428 339 435 335 445 335 C461 335 473 350 473 372 C473 400 455 418 429 418 C405 418 385 406 352 373 C318 405 277 419 222 419 C113 419 41 362 41 276 C41 213 79 160 137 139 C77 123 49 93 49 44 C49 -22 101 -53 211 -53 C215 -53 234 -53 246 -52 L269 -52 Z M216 376 C248 376 267 339 267 278 C267 207 250 169 218 169 C184 169 167 206 167 280 C167 339 186 376 216 376 L216 376 Z M227 633 C194 633 167 606 167 573 C167 540 194 513 226 513 C260 513 287 539 287 573 C287 606 261 633 227 633 L227 633 Z " />
<glyph glyph-name="Gcommaaccent" unicode="&#x122;" horiz-adv-x="704" d="M413 300 L413 256 L422 256 C473 252 487 238 489 186 L489 161 C489 85 443 37 368 37 C317 37 274 62 249 105 C222 153 210 216 210 319 C210 423 223 499 249 546 C277 597 324 625 380 625 C470 625 535 556 559 436 L601 436 L598 667 L556 667 C553 639 548 618 537 595 C482 653 421 680 346 680 C272 680 204 653 153 604 C82 535 39 431 39 325 C39 131 171 -13 347 -13 C392 -13 425 -7 492 13 C536 26 578 34 608 34 C613 34 618 34 628 32 L628 149 C628 236 632 246 679 255 L686 256 L686 300 L413 300 Z M283 -327 C376 -318 437 -257 437 -172 C437 -104 403 -59 350 -59 C308 -59 278 -89 278 -130 C278 -166 304 -194 336 -194 C342 -194 345 -193 360 -190 C364 -188 366 -188 368 -188 C377 -188 384 -198 384 -211 C384 -247 342 -277 283 -284 L283 -327 Z " />
<glyph glyph-name="gcommaaccent" unicode="&#x123;" horiz-adv-x="464" d="M269 -52 C336 -52 366 -72 366 -117 C366 -173 312 -208 227 -208 C171 -208 129 -191 112 -162 C106 -152 104 -143 104 -126 C104 -113 105 -98 107 -87 L108 -85 L108 -83 C94 -77 86 -75 76 -75 C49 -75 27 -102 27 -136 C27 -171 48 -203 82 -223 C112 -240 162 -249 221 -249 C361 -249 442 -188 442 -82 C442 10 385 56 272 56 L243 55 L239 55 L217 55 C205 56 193 56 192 56 C148 56 129 64 129 84 C129 109 155 122 212 124 C260 125 298 134 326 151 C368 177 392 222 392 275 C392 302 386 324 373 348 C383 360 390 365 398 365 C406 365 410 362 419 351 C428 339 435 335 445 335 C461 335 473 350 473 372 C473 400 455 418 429 418 C405 418 385 406 352 373 C318 405 277 419 222 419 C113 419 41 362 41 276 C41 213 79 160 137 139 C77 123 49 93 49 44 C49 -22 101 -53 211 -53 C215 -53 234 -53 246 -52 L269 -52 Z M216 376 C248 376 267 339 267 278 C267 207 250 169 218 169 C184 169 167 206 167 280 C167 339 186 376 216 376 L216 376 Z M288 697 C260 695 241 688 214 672 C172 646 150 608 150 558 C150 499 183 458 232 458 C270 458 297 483 297 517 C297 547 274 570 245 570 C240 570 235 569 230 568 C218 566 218 566 215 566 C205 566 198 575 198 588 C198 622 236 653 288 662 L288 697 Z " />
<glyph glyph-name="Hcircumflex" unicode="&#x124;" horiz-adv-x="752" d="M503 325 L503 149 C503 66 488 43 436 44 L427 29 L427 0 L726 0 L726 44 L717 44 C665 44 651 66 651 149 L651 521 C651 605 664 624 719 623 L726 623 L726 667 L427 667 L427 623 L434 623 C489 625 502 605 503 521 L503 377 L249 377 L249 521 C249 604 262 624 317 623 L323 623 L323 667 L25 667 L25 623 L32 623 C87 625 101 604 101 521 L101 149 C102 68 86 43 34 44 L25 44 L25 0 L323 0 L323 44 L315 44 C264 43 249 66 249 149 L249 325 L503 325 Z M301 879 L193 729 L225 729 L371 817 L536 729 L568 729 L458 879 L301 879 Z " />
<glyph glyph-name="Hbar" unicode="&#x126;" horiz-adv-x="752" d="M101 426 L101 149 C102 68 86 43 34 44 L25 44 L25 0 L323 0 L323 44 L315 44 C264 43 249 66 249 149 L249 325 L503 325 L503 149 C503 66 488 43 436 44 L427 29 L427 0 L726 0 L726 44 L718 44 C665 44 651 66 651 149 L651 426 L708 426 L708 478 L651 478 L651 521 C651 605 664 624 719 623 L726 623 L726 667 L427 667 L427 623 L434 623 C489 625 502 605 503 521 L503 478 L249 478 L249 521 C249 605 262 624 317 623 L323 623 L323 667 L25 667 L25 623 L33 623 C87 625 101 604 101 521 L101 478 L46 478 L46 426 L101 426 Z M249 426 L503 426 L503 377 L249 377 L249 426 Z " />
<glyph glyph-name="hbar" unicode="&#x127;" horiz-adv-x="525" d="M201 535 L201 678 L194 678 C180 673 160 669 136 665 C83 657 53 652 46 651 C36 649 32 648 19 645 L19 603 L23 603 C62 601 70 591 72 538 L72 535 L19 535 L19 490 L72 490 L72 125 C70 54 64 44 23 42 L18 42 L18 0 L243 0 L243 42 L240 42 C207 45 202 56 201 125 L201 282 C202 284 203 285 204 286 L206 291 C225 330 253 354 280 354 C316 354 331 328 331 268 L331 125 C330 56 325 46 292 43 L287 42 L287 0 L513 0 L513 42 L508 42 C471 43 464 56 462 125 L462 253 C462 310 457 337 444 362 C425 396 382 419 335 419 C282 419 237 394 201 344 L201 490 L374 490 L374 535 L201 535 Z " />
<glyph glyph-name="Imacron" unicode="&#x12a;" horiz-adv-x="354" d="M25 623 L33 623 C89 624 101 606 102 521 L102 149 C102 66 88 44 35 44 L25 44 L25 0 L328 0 L328 44 L317 44 C263 44 250 65 250 149 L250 521 C250 606 263 624 318 623 L328 623 L328 667 L25 667 L25 623 Z M23 810 L23 758 L330 758 L330 810 L23 810 Z " />
<glyph glyph-name="imacron" unicode="&#x12b;" horiz-adv-x="271" d="M14 343 L25 343 C68 344 81 325 81 263 L81 125 C79 58 69 43 26 42 L14 42 L14 0 L259 0 L259 42 L254 42 C214 43 207 55 205 125 L205 419 L198 419 C169 411 51 389 14 386 L14 343 Z M-5 541 L249 541 L249 590 L-5 590 L-5 541 Z " />
<glyph glyph-name="ibreve" unicode="&#x12d;" horiz-adv-x="271" d="M14 343 L24 343 C67 344 80 325 80 263 L80 125 C78 58 68 43 25 42 L14 42 L14 0 L259 0 L259 42 L254 42 C213 43 206 55 204 125 L204 419 L197 419 C168 411 51 389 14 386 L14 343 Z M-9 648 L-9 645 C-9 608 7 566 35 535 C61 504 94 489 134 489 C212 489 272 556 276 648 L249 648 C231 596 194 571 136 571 C75 571 35 598 19 648 L-9 648 Z " />
<glyph glyph-name="Iogonek" unicode="&#x12e;" horiz-adv-x="354" d="M328 0 L328 44 L317 44 C263 44 250 65 250 149 L250 521 C250 606 263 624 318 623 L328 623 L328 667 L25 667 L25 623 L33 623 C89 624 101 606 102 521 L102 149 C102 66 88 44 35 44 L25 44 L25 0 L208 0 C159 -25 126 -72 126 -117 C126 -170 170 -209 229 -209 C263 -209 289 -199 325 -171 L313 -150 C296 -159 287 -162 275 -162 C241 -162 218 -132 218 -89 C218 -56 227 -29 248 0 L328 0 Z " />
<glyph glyph-name="iogonek" unicode="&#x12f;" horiz-adv-x="271" d="M260 0 L260 42 L255 42 C214 43 207 55 205 125 L205 419 L198 419 C169 411 52 389 15 386 L15 343 L25 343 C68 344 81 325 81 263 L81 125 C79 58 69 43 26 42 L15 42 L15 0 L168 0 C127 -25 102 -66 102 -107 C102 -156 139 -192 188 -192 C216 -192 238 -183 268 -158 L258 -137 C245 -145 238 -147 229 -147 C202 -147 185 -122 185 -81 C185 -51 190 -27 203 0 L260 0 Z M139 678 C98 678 64 644 64 603 C64 559 97 525 140 525 C181 525 215 559 215 601 C215 644 182 678 139 678 L139 678 Z " />
<glyph glyph-name="Idotaccent" unicode="&#x130;" horiz-adv-x="354" d="M25 623 L33 623 C89 624 101 606 102 521 L102 149 C102 66 88 44 35 44 L25 44 L25 0 L328 0 L328 44 L317 44 C263 44 250 65 250 149 L250 521 C250 606 263 624 318 623 L328 623 L328 667 L25 667 L25 623 Z M176 862 C138 862 108 832 108 794 C108 757 139 726 175 726 C214 726 244 756 244 794 C244 832 214 862 176 862 L176 862 Z " />
<glyph glyph-name="dotlessi" unicode="&#x131;" horiz-adv-x="271" d="M15 343 L25 343 C68 344 81 325 81 263 L81 125 C79 58 69 43 26 42 L15 42 L15 0 L260 0 L260 42 L255 42 C214 43 207 55 205 125 L205 419 L198 419 C169 411 52 389 15 386 L15 343 Z " />
<glyph glyph-name="Kcommaaccent" unicode="&#x136;" horiz-adv-x="703" d="M252 339 L252 521 C252 605 265 624 320 623 L329 623 L329 667 L28 667 L28 623 L36 623 C91 624 103 606 104 521 L104 149 C104 66 90 44 37 44 L25 44 L25 0 L324 0 L324 44 L319 44 C266 44 252 66 252 149 L252 274 L301 330 L432 144 L436 136 C437 135 443 127 448 119 C463 101 471 85 471 74 C471 53 450 44 405 44 L398 44 L398 0 L731 0 L731 44 L726 44 C672 44 640 70 579 160 L395 426 L467 501 C557 594 594 618 652 623 L658 623 L658 667 L406 667 L406 623 L412 623 C445 623 463 611 463 589 C463 570 450 550 414 511 L252 339 Z M271 -327 C364 -318 425 -257 425 -172 C425 -104 391 -59 338 -59 C296 -59 266 -89 266 -130 C266 -166 292 -194 324 -194 C330 -194 333 -193 348 -190 C352 -188 354 -188 356 -188 C365 -188 372 -198 372 -211 C372 -247 330 -277 271 -284 L271 -327 Z " />
<glyph glyph-name="kcommaaccent" unicode="&#x137;" horiz-adv-x="489" d="M268 403 L268 361 L273 361 C295 361 307 354 307 343 C307 334 304 329 274 300 L198 224 L198 678 L191 678 C177 673 157 669 133 665 C108 661 83 657 58 654 L44 651 C34 649 30 648 17 645 L17 603 L24 603 C61 601 68 591 69 529 L69 125 C67 53 62 44 23 42 L13 42 L13 0 L239 0 L239 42 L236 42 C204 45 199 56 198 125 L198 173 L222 198 L287 97 C300 78 304 69 304 62 C304 50 294 43 275 42 L272 42 L272 0 L488 0 L488 42 L485 43 C464 44 444 62 403 119 L301 267 C388 342 416 359 461 361 L464 361 L464 403 L268 403 Z M185 -301 C213 -299 232 -293 259 -277 C301 -251 323 -212 323 -162 C323 -103 290 -62 241 -62 C203 -62 176 -87 176 -121 C176 -151 199 -174 228 -174 C233 -174 238 -173 243 -172 C255 -170 255 -170 258 -170 C268 -170 275 -179 275 -192 C275 -226 237 -257 185 -266 L185 -301 Z " />
<glyph glyph-name="Lacute" unicode="&#x139;" horiz-adv-x="575" d="M562 213 L524 213 C494 90 450 47 355 47 L332 47 C261 48 249 63 251 151 L251 521 C251 606 264 624 319 623 L335 623 L335 667 L25 667 L25 623 L34 623 C90 624 103 606 103 521 L103 148 C103 65 90 44 36 44 L25 44 L25 0 L559 0 L562 213 Z M160 729 L193 729 L439 869 L439 877 L260 877 L160 729 Z " />
<glyph glyph-name="lacute" unicode="&#x13a;" horiz-adv-x="262" d="M16 603 L28 603 C63 601 68 592 69 527 L69 125 C67 50 64 44 28 42 L15 42 L15 0 L246 0 L246 42 L240 42 C203 44 198 53 198 125 L198 678 L191 678 C170 671 82 655 16 645 L16 603 Z M87 729 L120 729 L366 869 L366 877 L187 877 L87 729 Z " />
<glyph glyph-name="Lcommaaccent" unicode="&#x13b;" horiz-adv-x="575" d="M562 213 L524 213 C494 90 450 47 355 47 L332 47 C261 48 249 63 251 151 L251 521 C251 606 264 624 319 623 L335 623 L335 667 L25 667 L25 623 L34 623 C90 624 103 606 103 521 L103 148 C103 65 90 44 36 44 L25 44 L25 0 L559 0 L562 213 Z M229 -327 C322 -318 383 -257 383 -172 C383 -104 349 -59 296 -59 C254 -59 224 -89 224 -130 C224 -166 250 -194 282 -194 C288 -194 291 -193 306 -190 C310 -188 312 -188 314 -188 C323 -188 330 -198 330 -211 C330 -247 288 -277 229 -284 L229 -327 Z " />
<glyph glyph-name="lcommaaccent" unicode="&#x13c;" horiz-adv-x="262" d="M16 603 L28 603 C63 601 68 592 69 527 L69 125 C67 50 64 44 28 42 L15 42 L15 0 L246 0 L246 42 L240 42 C203 44 198 53 198 125 L198 678 L191 678 C167 671 91 657 16 645 L16 603 Z M76 -301 C104 -299 123 -293 150 -277 C192 -251 214 -212 214 -162 C214 -103 181 -62 132 -62 C94 -62 67 -87 67 -121 C67 -151 90 -174 119 -174 C124 -174 129 -173 134 -172 C146 -170 146 -170 149 -170 C159 -170 166 -179 166 -192 C166 -226 128 -257 76 -266 L76 -301 Z " />
<glyph glyph-name="Lcaron" unicode="&#x13d;" horiz-adv-x="575" d="M562 213 L524 213 C494 90 450 47 355 47 L332 47 C261 48 249 63 251 151 L251 521 C251 606 264 624 319 623 L335 623 L335 667 L25 667 L25 623 L34 623 C90 624 103 606 103 521 L103 148 C103 65 90 44 36 44 L25 44 L25 0 L559 0 L562 213 Z M366 399 C459 408 520 469 520 554 C520 622 486 667 433 667 C391 667 361 637 361 596 C361 561 387 533 419 533 C423 533 429 534 435 535 C449 538 449 538 451 538 C460 538 467 528 467 516 C467 480 425 449 366 442 L366 399 Z " />
<glyph glyph-name="lcaron" unicode="&#x13e;" horiz-adv-x="387" d="M16 603 L28 603 C63 601 68 592 69 527 L69 125 C67 50 64 44 28 42 L15 42 L15 0 L246 0 L246 42 L240 42 C203 44 198 53 198 125 L198 678 L191 678 C170 671 82 655 16 645 L16 603 Z M242 439 C270 441 289 447 316 464 C358 490 380 528 380 578 C380 637 347 678 298 678 C260 678 233 653 233 619 C233 589 256 566 285 566 C290 566 295 567 300 568 C312 570 312 570 315 570 C325 570 332 561 332 548 C332 514 294 483 242 474 L242 439 Z " />
<glyph glyph-name="Ldot" unicode="&#x13f;" horiz-adv-x="575" d="M562 213 L524 213 C494 90 450 47 355 47 L332 47 C261 48 249 63 251 151 L251 521 C251 606 264 624 319 623 L335 623 L335 667 L25 667 L25 623 L34 623 C90 624 103 606 103 521 L103 148 C103 65 90 44 36 44 L25 44 L25 0 L559 0 L562 213 Z M374 383 C341 383 314 356 314 323 C314 290 341 263 373 263 C407 263 434 289 434 323 C434 356 408 383 374 383 L374 383 Z " />
<glyph glyph-name="ldot" unicode="&#x140;" horiz-adv-x="345" d="M16 603 L28 603 C63 601 68 592 69 527 L69 125 C67 50 64 44 28 42 L15 42 L15 0 L246 0 L246 42 L240 42 C203 44 198 53 198 125 L198 678 L191 678 C170 671 82 655 16 645 L16 603 Z M299 395 C266 395 239 368 239 335 C239 302 266 275 298 275 C332 275 359 301 359 335 C359 368 333 395 299 395 L299 395 Z " />
<glyph glyph-name="Lslash" unicode="&#x141;" horiz-adv-x="575" d="M25 44 L25 0 L559 0 L562 213 L523 213 C497 93 449 46 355 47 L332 47 C261 48 249 63 251 151 L251 339 L356 427 L356 482 L251 395 L251 521 C251 606 264 624 319 623 L335 623 L335 667 L25 667 L25 623 L35 623 C91 624 103 606 103 521 L103 274 L31 212 L31 156 L103 218 L103 148 C103 65 90 44 37 44 L25 44 Z " />
<glyph glyph-name="lslash" unicode="&#x142;" horiz-adv-x="260" d="M18 603 L29 603 C64 601 69 592 70 527 L70 282 L17 232 L17 179 L70 230 L70 125 C69 50 65 44 29 42 L17 42 L17 0 L248 0 L248 42 L242 42 C204 44 201 52 199 125 L199 355 L252 405 L252 458 L199 407 L199 678 L192 678 C171 672 92 657 18 645 L18 603 Z " />
<glyph glyph-name="Nacute" unicode="&#x143;" horiz-adv-x="700" d="M594 -12 L594 513 C592 585 611 611 673 623 L680 623 L680 667 L451 667 L451 623 L459 623 C521 619 546 587 544 517 L544 221 L214 667 L21 667 L21 623 L26 623 C84 623 101 599 105 507 L105 162 C105 106 104 97 96 83 C84 61 53 45 25 44 L21 44 L21 0 L243 0 L243 44 L233 44 C209 43 179 60 166 82 C156 99 156 104 155 163 L155 522 L545 -12 L594 -12 Z M303 729 L336 729 L582 869 L582 877 L403 877 L303 729 Z " />
<glyph glyph-name="nacute" unicode="&#x144;" horiz-adv-x="526" d="M20 338 L24 338 C62 338 71 323 73 259 L73 125 C71 54 65 44 24 42 L21 42 L21 0 L246 0 L246 42 C209 44 202 56 202 125 L202 283 C232 332 256 353 286 353 C314 353 333 327 333 288 L333 125 C332 57 328 47 294 43 L289 42 L289 0 L515 0 L515 42 L511 42 C473 43 466 55 464 125 L464 260 C464 316 460 338 446 363 C427 397 386 419 341 419 C290 419 241 393 203 346 C202 375 199 396 193 412 L185 412 C164 406 144 402 104 395 C41 384 34 383 20 380 L20 338 Z M231 488 L265 488 L463 642 L463 649 L311 649 L231 488 Z " />
<glyph glyph-name="Ncommaaccent" unicode="&#x145;" horiz-adv-x="700" d="M594 -12 L594 513 C592 585 611 611 673 623 L680 623 L680 667 L451 667 L451 623 L459 623 C521 619 546 587 544 517 L544 221 L214 667 L21 667 L21 623 L26 623 C84 623 101 599 105 507 L105 162 C105 106 104 97 96 83 C84 61 53 45 25 44 L21 44 L21 0 L243 0 L243 44 L233 44 C209 43 179 60 166 82 C156 99 156 104 155 163 L155 522 L545 -12 L594 -12 Z M277 -327 C370 -318 431 -257 431 -172 C431 -104 397 -59 344 -59 C302 -59 272 -89 272 -130 C272 -166 298 -194 330 -194 C336 -194 339 -193 354 -190 C358 -188 360 -188 362 -188 C371 -188 378 -198 378 -211 C378 -247 336 -277 277 -284 L277 -327 Z " />
<glyph glyph-name="ncommaaccent" unicode="&#x146;" horiz-adv-x="526" d="M20 338 L24 338 C62 338 71 323 73 259 L73 125 C71 54 65 44 24 42 L21 42 L21 0 L246 0 L246 42 C209 44 202 56 202 125 L202 283 C232 332 256 353 286 353 C314 353 333 327 333 288 L333 125 C332 57 328 47 294 43 L289 42 L289 0 L515 0 L515 42 L511 42 C473 43 466 55 464 125 L464 260 C464 316 460 338 446 363 C427 397 386 419 341 419 C290 419 241 393 203 346 C202 375 199 396 193 412 L185 412 C164 406 144 402 104 395 C41 384 34 383 20 380 L20 338 Z M204 -301 C232 -299 251 -293 278 -277 C320 -251 342 -212 342 -162 C342 -103 309 -62 260 -62 C222 -62 195 -87 195 -121 C195 -151 218 -174 247 -174 C252 -174 257 -173 262 -172 C274 -170 274 -170 277 -170 C287 -170 294 -179 294 -192 C294 -226 256 -257 204 -266 L204 -301 Z " />
<glyph glyph-name="Ncaron" unicode="&#x147;" horiz-adv-x="700" d="M594 -12 L594 513 C592 585 611 611 673 623 L680 623 L680 667 L451 667 L451 623 L459 623 C521 619 546 587 544 517 L544 221 L214 667 L21 667 L21 623 L26 623 C84 623 101 599 105 507 L105 162 C105 106 104 97 96 83 C84 61 53 45 25 44 L21 44 L21 0 L243 0 L243 44 L233 44 C209 43 179 60 166 82 C156 99 156 104 155 163 L155 522 L545 -12 L594 -12 Z M431 729 L542 879 L510 879 L363 791 L199 879 L167 879 L275 729 L431 729 Z " />
<glyph glyph-name="ncaron" unicode="&#x148;" horiz-adv-x="526" d="M20 338 L24 338 C62 338 71 323 73 259 L73 125 C71 54 65 44 24 42 L21 42 L21 0 L246 0 L246 42 C209 44 202 56 202 125 L202 283 C232 332 256 353 286 353 C314 353 333 327 333 288 L333 125 C332 57 328 47 294 43 L289 42 L289 0 L515 0 L515 42 L511 42 C473 43 466 55 464 125 L464 260 C464 316 460 338 446 363 C427 397 386 419 341 419 C290 419 241 393 203 346 C202 375 199 396 193 412 L185 412 C164 406 144 402 104 395 C41 384 34 383 20 380 L20 338 Z M169 655 L136 655 L226 491 L331 491 L416 655 L380 655 L281 566 L169 655 Z " />
<glyph glyph-name="Omacron" unicode="&#x14c;" horiz-adv-x="743" d="M377 679 C286 679 206 651 148 598 C79 534 39 438 39 335 C39 129 175 -13 371 -13 C567 -13 704 129 704 332 C704 533 566 679 377 679 L377 679 Z M372 628 C420 628 460 602 488 554 C515 507 530 423 530 323 C530 136 476 38 373 38 C321 38 279 65 249 119 C226 162 213 242 213 346 C213 526 270 628 372 628 L372 628 Z M218 810 L218 758 L525 758 L525 810 L218 810 Z " />
<glyph glyph-name="omacron" unicode="&#x14d;" horiz-adv-x="490" d="M33 200 C33 138 54 82 90 45 C127 8 188 -16 245 -16 C368 -16 457 75 457 203 C457 329 368 419 243 419 C122 419 33 327 33 203 L33 200 Z M245 375 C266 375 285 362 298 340 C311 317 318 268 318 197 C318 80 295 27 246 27 C194 27 172 82 172 214 C172 321 197 375 245 375 L245 375 Z M105 541 L389 541 L389 590 L105 590 L105 541 Z " />
<glyph glyph-name="Ohungarumlaut" unicode="&#x150;" horiz-adv-x="743" d="M377 679 C286 679 206 651 148 598 C79 534 39 438 39 335 C39 129 175 -13 371 -13 C567 -13 704 129 704 332 C704 533 566 679 377 679 L377 679 Z M372 628 C420 628 460 602 488 554 C515 507 530 423 530 323 C530 136 476 38 373 38 C321 38 279 65 249 119 C226 162 213 242 213 346 C213 526 270 628 372 628 L372 628 Z M249 729 L282 729 L504 869 L504 877 L349 877 L249 729 Z M433 729 L466 729 L687 869 L687 877 L533 877 L433 729 Z " />
<glyph glyph-name="ohungarumlaut" unicode="&#x151;" horiz-adv-x="490" d="M33 200 C33 138 54 82 90 45 C127 8 188 -16 245 -16 C368 -16 457 75 457 203 C457 329 368 419 243 419 C122 419 33 327 33 203 L33 200 Z M245 375 C266 375 285 362 298 340 C311 317 318 268 318 197 C318 80 295 27 246 27 C194 27 172 82 172 214 C172 321 197 375 245 375 L245 375 Z M150 488 L183 488 L357 642 L357 649 L230 649 L150 488 Z M306 488 L340 488 L514 642 L514 649 L387 649 L306 488 Z " />
<glyph glyph-name="OE" unicode="&#x152;" horiz-adv-x="880" d="M856 216 L817 216 C803 149 779 97 753 74 C735 58 700 46 672 46 L666 46 L665 46 L650 47 L639 48 L628 48 C571 51 568 56 569 166 L569 326 L622 326 C669 325 678 312 683 244 L683 235 L720 235 L720 465 L683 465 L683 456 C678 388 668 374 624 373 L569 373 L569 620 L658 620 C726 624 748 601 776 497 L816 497 L806 667 L455 667 L409 667 C381 669 379 669 369 669 C274 669 197 643 145 593 C80 530 40 430 40 328 C40 239 71 152 123 93 C178 31 257 -1 357 -1 C363 -1 378 -1 390 0 C441 1 441 1 451 1 L473 0 L849 0 L856 216 Z M421 132 C421 95 418 73 412 64 C405 55 382 47 360 47 C265 47 208 153 208 331 C208 509 266 620 360 620 C383 620 404 611 411 599 C418 587 421 568 421 531 L421 132 Z " />
<glyph glyph-name="oe" unicode="&#x153;" horiz-adv-x="720" d="M647 100 C623 58 585 33 545 33 C478 33 438 93 438 195 C438 206 439 216 440 227 L689 227 C690 338 615 419 513 419 C463 419 422 400 384 360 C344 399 294 419 240 419 C122 419 33 324 33 199 C33 76 122 -16 241 -16 C297 -16 346 5 385 47 C417 7 465 -16 518 -16 C583 -16 651 24 679 78 L647 100 Z M442 267 C445 335 471 376 511 376 C551 376 573 339 576 267 L442 267 Z M248 375 C275 375 298 358 312 329 C323 305 327 270 327 197 C327 140 324 109 315 83 C303 46 279 26 248 26 C191 26 168 80 168 211 C168 323 193 375 248 375 L248 375 Z " />
<glyph glyph-name="Racute" unicode="&#x154;" horiz-adv-x="652" d="M681 0 L681 44 L676 44 C629 47 599 76 536 179 C473 281 454 306 423 329 C516 358 561 411 561 494 C561 555 531 608 479 637 C436 661 359 672 238 672 L219 672 C91 670 86 670 65 669 L26 667 L26 623 L37 623 C93 624 106 605 106 521 L106 149 C106 66 92 44 38 44 L25 44 L25 0 L336 0 L336 44 L320 44 C267 44 254 65 254 149 L254 303 C324 306 327 303 404 158 C443 83 482 20 502 0 L681 0 Z M254 351 L254 621 C265 622 271 622 280 622 C338 622 366 610 385 578 C398 554 404 527 404 488 C404 427 387 385 355 366 C337 356 310 351 269 351 L265 351 L254 351 Z M244 729 L277 729 L523 869 L523 877 L344 877 L244 729 Z " />
<glyph glyph-name="racute" unicode="&#x155;" horiz-adv-x="394" d="M20 339 L25 339 C65 338 72 325 74 256 L74 125 C72 54 66 44 26 42 L21 42 L21 0 L264 0 L264 42 L255 42 C213 43 205 56 203 125 L203 178 C203 246 209 275 229 309 C241 329 256 340 271 340 C281 340 290 334 300 319 C317 292 326 285 344 285 C370 285 390 310 390 343 C390 386 360 419 320 419 C272 419 225 380 197 317 C196 359 191 392 182 419 C91 396 52 387 20 381 L20 339 Z M181 488 L215 488 L413 642 L413 649 L261 649 L181 488 Z " />
<glyph glyph-name="Rcommaaccent" unicode="&#x156;" horiz-adv-x="652" d="M681 0 L681 44 L676 44 C629 47 599 76 536 179 C473 281 454 306 423 329 C516 358 561 411 561 494 C561 555 531 608 479 637 C436 661 359 672 238 672 L219 672 C91 670 86 670 65 669 L26 667 L26 623 L37 623 C93 624 106 605 106 521 L106 149 C106 66 92 44 38 44 L25 44 L25 0 L336 0 L336 44 L320 44 C267 44 254 65 254 149 L254 303 C324 306 327 303 404 158 C443 83 482 20 502 0 L681 0 Z M254 351 L254 621 C265 622 271 622 280 622 C338 622 366 610 385 578 C398 554 404 527 404 488 C404 427 387 385 355 366 C337 356 310 351 269 351 L265 351 L254 351 Z M259 -327 C352 -318 413 -257 413 -172 C413 -104 379 -59 326 -59 C284 -59 254 -89 254 -130 C254 -166 280 -194 312 -194 C318 -194 321 -193 336 -190 C340 -188 342 -188 344 -188 C353 -188 360 -198 360 -211 C360 -247 318 -277 259 -284 L259 -327 Z " />
<glyph glyph-name="rcommaaccent" unicode="&#x157;" horiz-adv-x="394" d="M20 339 L25 339 C65 338 72 325 74 256 L74 125 C72 54 66 44 26 42 L21 42 L21 0 L264 0 L264 42 L255 42 C213 43 205 56 203 125 L203 178 C203 246 209 275 229 309 C241 329 256 340 271 340 C281 340 290 334 300 319 C317 292 326 285 344 285 C370 285 390 310 390 343 C390 386 360 419 320 419 C272 419 225 380 197 317 C196 359 191 392 182 419 C91 396 52 387 20 381 L20 339 Z M81 -301 C109 -299 128 -293 155 -277 C197 -251 219 -212 219 -162 C219 -103 186 -62 137 -62 C99 -62 72 -87 72 -121 C72 -151 95 -174 124 -174 C129 -174 134 -173 139 -172 C151 -170 151 -170 154 -170 C164 -170 171 -179 171 -192 C171 -226 133 -257 81 -266 L81 -301 Z " />
<glyph glyph-name="Rcaron" unicode="&#x158;" horiz-adv-x="652" d="M681 0 L681 44 L676 44 C629 47 599 76 536 179 C473 281 454 306 423 329 C516 358 561 411 561 494 C561 555 531 608 479 637 C436 661 359 672 238 672 L219 672 C91 670 86 670 65 669 L26 667 L26 623 L37 623 C93 624 106 605 106 521 L106 149 C106 66 92 44 38 44 L25 44 L25 0 L336 0 L336 44 L320 44 C267 44 254 65 254 149 L254 303 C324 306 327 303 404 158 C443 83 482 20 502 0 L681 0 Z M254 351 L254 621 C265 622 271 622 280 622 C338 622 366 610 385 578 C398 554 404 527 404 488 C404 427 387 385 355 366 C337 356 310 351 269 351 L265 351 L254 351 Z M368 729 L479 879 L447 879 L300 791 L136 879 L104 879 L212 729 L368 729 Z " />
<glyph glyph-name="rcaron" unicode="&#x159;" horiz-adv-x="394" d="M20 339 L25 339 C65 338 72 325 74 256 L74 125 C72 54 66 44 26 42 L21 42 L21 0 L264 0 L264 42 L255 42 C213 43 205 56 203 125 L203 178 C203 246 209 275 229 309 C241 329 256 340 271 340 C281 340 290 334 300 319 C317 292 326 285 344 285 C370 285 390 310 390 343 C390 386 360 419 320 419 C272 419 225 380 197 317 C196 359 191 392 182 419 C91 396 52 387 20 381 L20 339 Z M98 655 L65 655 L155 491 L260 491 L345 655 L310 655 L210 566 L98 655 Z " />
<glyph glyph-name="Sacute" unicode="&#x15a;" horiz-adv-x="503" d="M51 10 L94 10 C98 35 103 53 111 67 C151 16 210 -13 275 -13 C387 -13 470 73 470 189 C470 243 452 293 418 330 C394 357 354 383 279 420 C190 465 162 495 162 548 C162 597 195 632 243 632 C307 632 359 573 380 478 L419 478 L419 667 L379 667 C374 639 372 634 361 617 C324 658 280 679 228 679 C128 679 52 598 52 491 C52 442 69 395 98 362 C124 332 155 311 244 262 C320 221 350 185 350 136 C350 79 309 37 253 37 C206 37 163 65 133 116 C116 145 105 178 94 233 L51 233 L51 10 Z M191 729 L224 729 L470 869 L470 877 L291 877 L191 729 Z " />
<glyph glyph-name="sacute" unicode="&#x15b;" horiz-adv-x="375" d="M37 -12 L69 -12 C74 2 80 12 88 20 C92 19 93 18 98 15 C129 -6 163 -16 199 -16 C285 -16 343 39 343 121 C343 164 326 204 298 228 C276 246 271 248 195 272 C146 287 122 308 122 335 C122 361 147 382 180 382 C230 382 272 346 286 291 L318 291 L318 414 L288 414 C282 401 277 392 271 386 C235 407 194 420 167 420 C94 420 36 363 36 292 C36 236 76 188 143 164 C214 138 214 138 233 122 C244 112 251 97 251 82 C251 48 223 25 182 25 C129 25 89 61 72 122 L37 122 L37 -12 Z M151 488 L185 488 L383 642 L383 649 L231 649 L151 488 Z " />
<glyph glyph-name="Scircumflex" unicode="&#x15c;" horiz-adv-x="503" d="M51 10 L94 10 C98 35 103 53 111 67 C151 16 210 -13 275 -13 C387 -13 470 73 470 189 C470 243 452 293 418 330 C394 357 354 383 279 420 C190 465 162 495 162 548 C162 597 195 632 243 632 C307 632 359 573 380 478 L419 478 L419 667 L379 667 C374 639 372 634 361 617 C324 658 280 679 228 679 C128 679 52 598 52 491 C52 442 69 395 98 362 C124 332 155 311 244 262 C320 221 350 185 350 136 C350 79 309 37 253 37 C206 37 163 65 133 116 C116 145 105 178 94 233 L51 233 L51 10 Z M186 879 L78 729 L110 729 L256 817 L420 729 L452 729 L342 879 L186 879 Z " />
<glyph glyph-name="scircumflex" unicode="&#x15d;" horiz-adv-x="375" d="M37 -12 L69 -12 C74 2 80 12 88 20 C92 19 93 18 98 15 C129 -6 163 -16 199 -16 C285 -16 343 39 343 121 C343 164 326 204 298 228 C276 246 271 248 195 272 C146 287 122 308 122 335 C122 361 147 382 180 382 C230 382 272 346 286 291 L318 291 L318 414 L288 414 C282 401 277 392 271 386 C235 407 194 420 167 420 C94 420 36 363 36 292 C36 236 76 188 143 164 C214 138 214 138 233 122 C244 112 251 97 251 82 C251 48 223 25 182 25 C129 25 89 61 72 122 L37 122 L37 -12 Z M305 489 L340 489 L254 652 L149 652 L60 489 L93 489 L197 578 L305 489 Z " />
<glyph glyph-name="Scedilla" unicode="&#x15e;" horiz-adv-x="503" d="M280 -13 C391 -9 470 75 470 189 C470 243 452 293 418 330 C394 357 354 383 279 420 C190 465 162 495 162 548 C162 597 195 632 243 632 C307 632 359 573 380 478 L419 478 L419 667 L379 667 C374 639 372 634 361 617 C324 658 280 679 228 679 C128 679 52 598 52 491 C52 442 69 395 98 362 C124 332 155 311 244 262 C320 221 350 185 350 136 C350 79 309 37 253 37 C206 37 163 65 133 116 C116 145 105 178 94 233 L51 233 L51 10 L94 10 C98 35 103 53 111 67 C141 27 191 -3 241 -10 C236 -55 231 -82 223 -112 C251 -114 268 -131 268 -157 C268 -183 250 -199 221 -199 C201 -199 185 -196 160 -188 C158 -208 157 -210 153 -228 C178 -238 200 -242 227 -242 C308 -242 362 -203 362 -144 C362 -94 329 -60 274 -55 L280 -13 Z " />
<glyph glyph-name="scedilla" unicode="&#x15f;" horiz-adv-x="375" d="M203 -16 C289 -13 343 40 343 121 C343 164 326 204 298 227 C276 246 271 248 195 272 C146 287 122 308 122 335 C122 361 147 382 180 382 C230 382 272 346 286 291 L318 291 L318 414 L288 414 C282 401 277 392 271 386 C235 407 194 420 167 420 C94 420 36 363 36 292 C36 236 76 188 143 164 C214 138 214 138 233 122 C244 112 251 97 251 82 C251 48 223 25 182 25 C129 25 89 61 72 122 L37 122 L37 -12 L69 -12 C74 2 80 12 88 20 C92 19 93 18 98 15 C121 -1 146 -10 174 -14 C168 -64 165 -80 161 -100 C181 -102 193 -118 193 -141 C193 -165 180 -179 158 -179 C144 -179 132 -176 113 -169 C111 -187 111 -189 108 -205 C127 -213 143 -217 163 -217 C224 -217 264 -182 264 -129 C264 -84 240 -55 199 -49 C201 -33 201 -29 202 -19 L203 -16 Z " />
<glyph glyph-name="Scaron" unicode="&#x160;" horiz-adv-x="503" d="M51 10 L94 10 C98 35 103 53 111 67 C151 16 210 -13 275 -13 C387 -13 470 73 470 189 C470 243 452 293 418 330 C394 357 354 383 279 420 C190 465 162 495 162 548 C162 597 195 632 243 632 C307 632 359 573 380 478 L419 478 L419 667 L379 667 C374 639 372 634 361 617 C324 658 280 679 228 679 C128 679 52 598 52 491 C52 442 69 395 98 362 C124 332 155 311 244 262 C320 221 350 185 350 136 C350 79 309 37 253 37 C206 37 163 65 133 116 C116 145 105 178 94 233 L51 233 L51 10 Z M330 729 L441 879 L409 879 L262 791 L98 879 L66 879 L174 729 L330 729 Z " />
<glyph glyph-name="scaron" unicode="&#x161;" horiz-adv-x="375" d="M37 -12 L69 -12 C74 2 80 12 88 20 C92 19 93 18 98 15 C129 -6 163 -16 199 -16 C285 -16 343 39 343 121 C343 164 326 204 298 228 C276 246 271 248 195 272 C146 287 122 308 122 335 C122 361 147 382 180 382 C230 382 272 346 286 291 L318 291 L318 414 L288 414 C282 401 277 392 271 386 C235 407 194 420 167 420 C94 420 36 363 36 292 C36 236 76 188 143 164 C214 138 214 138 233 122 C244 112 251 97 251 82 C251 48 223 25 182 25 C129 25 89 61 72 122 L37 122 L37 -12 Z M89 655 L56 655 L146 491 L251 491 L336 655 L301 655 L201 566 L89 655 Z " />
<glyph glyph-name="Tcommaaccent" unicode="&#x162;" horiz-adv-x="624" d="M53 487 C70 599 89 620 177 620 L236 620 L236 149 C236 65 222 44 169 44 L150 44 L150 0 L471 0 L471 44 L452 44 C398 44 384 65 384 149 L384 620 L447 620 C527 621 548 598 570 487 L610 487 L609 667 L14 667 L13 487 L53 487 Z M240 -327 C333 -318 394 -257 394 -172 C394 -104 360 -59 307 -59 C265 -59 235 -89 235 -130 C235 -166 261 -194 293 -194 C299 -194 302 -193 317 -190 C321 -188 323 -188 325 -188 C334 -188 341 -198 341 -211 C341 -247 299 -277 240 -284 L240 -327 Z " />
<glyph glyph-name="tcommaaccent" unicode="&#x163;" horiz-adv-x="303" d="M292 359 L292 403 L184 403 L184 534 L147 534 C136 456 84 402 22 402 C22 402 18 402 14 403 L14 359 L65 359 L65 127 C65 33 103 -16 178 -16 C238 -16 286 16 306 68 L272 82 C258 53 244 41 223 41 C210 41 200 47 194 58 C185 73 184 85 184 139 L184 359 L292 359 Z M101 -301 C129 -299 148 -293 175 -277 C217 -251 239 -212 239 -162 C239 -103 206 -62 157 -62 C119 -62 92 -87 92 -121 C92 -151 115 -174 144 -174 C149 -174 154 -173 159 -172 C171 -170 171 -170 174 -170 C184 -170 191 -179 191 -192 C191 -226 153 -257 101 -266 L101 -301 Z " />
<glyph glyph-name="Tcaron" unicode="&#x164;" horiz-adv-x="624" d="M53 487 C70 599 89 620 177 620 L236 620 L236 149 C236 65 222 44 169 44 L150 44 L150 0 L471 0 L471 44 L452 44 C398 44 384 65 384 149 L384 620 L447 620 C527 621 548 598 570 487 L610 487 L609 667 L14 667 L13 487 L53 487 Z M388 729 L498 879 L466 879 L320 791 L156 879 L124 879 L231 729 L388 729 Z " />
<glyph glyph-name="tcaron" unicode="&#x165;" horiz-adv-x="376" d="M292 359 L292 403 L184 403 L184 534 L147 534 C136 456 84 402 22 402 C22 402 18 402 14 403 L14 359 L65 359 L65 127 C65 33 103 -16 178 -16 C238 -16 286 16 306 68 L272 82 C258 53 244 41 223 41 C210 41 200 47 194 58 C185 73 184 85 184 139 L184 359 L292 359 Z M231 470 C259 472 278 479 305 495 C347 521 369 559 369 609 C369 668 336 709 287 709 C249 709 222 684 222 650 C222 620 245 597 274 597 C279 597 284 598 289 599 C301 601 301 601 304 601 C314 601 321 592 321 579 C321 545 283 514 231 505 L231 470 Z " />
<glyph glyph-name="utilde" unicode="&#x169;" horiz-adv-x="514" d="M452 403 L275 403 L275 361 L280 361 C317 359 322 351 323 279 L323 145 C323 141 317 116 314 110 C301 77 270 51 245 51 C231 51 217 60 209 73 C202 85 200 100 200 134 L200 403 L13 403 L13 361 L16 361 C57 361 70 340 71 279 L71 130 C71 88 76 60 88 40 C108 5 146 -16 190 -16 C240 -16 287 12 323 63 L323 56 L323 53 C323 44 323 39 324 35 L325 11 L326 7 L327 -7 L327 -8 C327 -10 328 -12 329 -16 L334 -16 C359 -8 448 1 501 0 L501 42 L498 42 C461 43 454 56 452 125 L452 403 Z M145 503 C151 535 165 550 189 550 C205 550 221 544 256 526 C289 509 308 503 329 503 C390 503 423 550 424 635 L394 635 C391 600 376 582 348 582 C335 582 323 586 300 598 C257 621 234 629 209 629 C179 629 147 611 133 587 C121 564 116 540 116 503 L145 503 Z " />
<glyph glyph-name="Umacron" unicode="&#x16a;" horiz-adv-x="698" d="M452 667 L452 623 L457 623 C519 621 547 586 546 511 L546 286 C546 201 543 174 532 148 C505 84 447 44 380 44 C327 44 282 69 258 110 C238 145 232 183 232 275 L232 521 C232 604 247 624 304 623 L314 623 L314 667 L16 667 L16 623 L24 623 C81 624 96 603 97 521 L96 254 C96 169 108 122 140 80 C185 20 258 -13 346 -13 C413 -13 477 9 520 46 C569 88 596 165 596 260 L596 519 C594 584 615 611 675 623 L681 623 L681 667 L452 667 Z M203 810 L203 758 L510 758 L510 810 L203 810 Z " />
<glyph glyph-name="umacron" unicode="&#x16b;" horiz-adv-x="514" d="M452 403 L275 403 L275 361 L280 361 C317 359 322 351 323 279 L323 145 C323 141 317 116 314 110 C301 77 270 51 245 51 C231 51 217 60 209 73 C202 85 200 100 200 134 L200 403 L13 403 L13 361 L16 361 C57 361 70 340 71 279 L71 130 C71 88 76 60 88 40 C108 5 146 -16 190 -16 C240 -16 287 12 323 63 L323 56 L323 53 C323 44 323 39 324 35 L325 11 L326 7 L327 -7 L327 -8 C327 -10 328 -12 329 -16 L334 -16 C359 -8 448 1 501 0 L501 42 L498 42 C461 43 454 56 452 125 L452 403 Z M124 541 L407 541 L407 590 L124 590 L124 541 Z " />
<glyph glyph-name="ubreve" unicode="&#x16d;" horiz-adv-x="514" d="M452 403 L275 403 L275 361 L280 361 C317 359 322 351 323 279 L323 145 C323 141 317 116 314 110 C301 77 270 51 245 51 C231 51 217 60 209 73 C202 85 200 100 200 134 L200 403 L13 403 L13 361 L16 361 C57 361 70 340 71 279 L71 130 C71 88 76 60 88 40 C108 5 146 -16 190 -16 C240 -16 287 12 323 63 L323 56 L323 53 C323 23 326 -4 329 -16 L334 -16 C359 -8 448 1 501 0 L501 42 L498 42 C461 43 454 56 452 125 L452 403 Z M118 648 C125 553 183 489 260 489 C339 489 399 556 403 648 L375 648 C357 596 321 571 263 571 C202 571 161 598 146 648 L118 648 Z " />
<glyph glyph-name="Uring" unicode="&#x16e;" horiz-adv-x="698" d="M452 667 L452 623 L457 623 C519 621 547 586 546 511 L546 286 C546 201 543 174 532 148 C505 84 447 44 380 44 C327 44 282 69 258 110 C238 145 232 183 232 275 L232 521 C232 604 247 624 304 623 L314 623 L314 667 L16 667 L16 623 L24 623 C81 624 96 603 97 521 L96 254 C96 169 108 122 140 80 C185 20 258 -13 346 -13 C413 -13 477 9 520 46 C569 88 596 165 596 260 L596 519 C594 584 615 611 675 623 L681 623 L681 667 L452 667 Z M373 911 C314 911 266 863 266 804 C266 746 314 697 371 697 C432 697 480 744 480 804 C480 863 432 911 373 911 L373 911 Z M373 872 C410 872 441 842 441 804 C441 767 410 736 372 736 C335 736 305 767 305 805 C305 841 336 872 373 872 L373 872 Z " />
<glyph glyph-name="uring" unicode="&#x16f;" horiz-adv-x="514" d="M452 403 L275 403 L275 361 L280 361 C317 359 322 351 323 279 L323 145 C323 141 317 116 314 110 C301 77 270 51 245 51 C231 51 217 60 209 73 C202 85 200 100 200 134 L200 403 L13 403 L13 361 L16 361 C57 361 70 340 71 279 L71 130 C71 88 76 60 88 40 C108 5 146 -16 190 -16 C240 -16 287 12 323 63 L323 56 L323 53 C323 44 323 39 324 35 L325 11 L326 7 L327 -7 L327 -8 C327 -10 328 -12 329 -16 L334 -16 C359 -8 448 1 501 0 L501 42 L498 42 C461 43 454 56 452 125 L452 403 Z M276 682 C217 682 169 634 169 575 C169 518 217 469 274 469 C334 469 382 516 382 576 C382 634 334 682 276 682 L276 682 Z M275 643 C313 643 343 613 343 576 C343 538 312 508 275 508 C238 508 208 538 208 576 C208 613 239 643 275 643 L275 643 Z " />
<glyph glyph-name="Uhungarumlaut" unicode="&#x170;" horiz-adv-x="698" d="M452 667 L452 623 L457 623 C519 621 547 586 546 511 L546 286 C546 201 543 174 532 148 C505 84 447 44 380 44 C327 44 282 69 258 110 C238 145 232 183 232 275 L232 521 C232 604 247 624 304 623 L314 623 L314 667 L16 667 L16 623 L24 623 C81 624 96 603 97 521 L96 254 C96 169 108 122 140 80 C185 20 258 -13 346 -13 C413 -13 477 9 520 46 C569 88 596 165 596 260 L596 519 C594 584 615 611 675 623 L681 623 L681 667 L452 667 Z M237 729 L270 729 L491 869 L491 877 L336 877 L237 729 Z M420 729 L453 729 L674 869 L674 877 L520 877 L420 729 Z " />
<glyph glyph-name="uhungarumlaut" unicode="&#x171;" horiz-adv-x="514" d="M452 403 L275 403 L275 361 L280 361 C317 359 322 351 323 279 L323 145 C323 141 317 116 314 110 C301 77 270 51 245 51 C231 51 217 60 209 73 C202 85 200 100 200 134 L200 403 L13 403 L13 361 L16 361 C57 361 70 340 71 279 L71 130 C71 88 76 60 88 40 C108 5 146 -16 190 -16 C240 -16 287 12 323 63 L323 56 L323 53 C323 44 323 39 324 35 L325 11 L326 7 L327 -7 L327 -8 C327 -10 328 -12 329 -16 L334 -16 C359 -8 448 1 501 0 L501 42 L498 42 C461 43 454 56 452 125 L452 403 Z M153 488 L187 488 L361 642 L361 649 L233 649 L153 488 Z M310 488 L344 488 L517 642 L517 649 L390 649 L310 488 Z " />
<glyph glyph-name="Uogonek" unicode="&#x172;" horiz-adv-x="698" d="M596 519 C594 584 615 611 675 623 L681 623 L681 667 L452 667 L452 623 L457 623 C519 621 547 586 546 511 L546 286 C546 201 543 174 532 148 C505 84 447 44 380 44 C327 44 282 69 258 110 C238 145 232 183 232 275 L232 521 C232 604 247 624 304 623 L314 623 L314 667 L16 667 L16 623 L24 623 C81 624 96 603 97 521 L96 254 C96 169 108 122 140 80 C185 20 257 -13 344 -13 C382 -13 416 -7 450 5 C389 -32 361 -69 361 -116 C361 -170 404 -209 464 -209 C497 -209 524 -199 559 -171 L547 -150 C531 -159 522 -162 510 -162 C476 -162 453 -132 453 -90 C453 -42 471 -5 521 46 C567 84 595 164 596 260 L596 519 Z " />
<glyph glyph-name="uogonek" unicode="&#x173;" horiz-adv-x="514" d="M437 -2 C462 0 478 0 501 0 L501 42 L498 42 C461 43 454 56 452 125 L452 403 L275 403 L275 361 L280 361 C317 359 322 351 323 279 L323 145 C323 141 317 116 314 110 C301 77 270 51 245 51 C231 51 217 60 209 73 C202 85 200 100 200 134 L200 403 L13 403 L13 361 L16 361 C57 361 70 340 71 279 L71 130 C71 88 76 60 88 40 C108 5 146 -16 190 -16 C240 -16 287 12 323 63 L323 56 L323 53 C323 44 323 39 324 35 L325 11 L326 7 L327 -7 L327 -8 C327 -10 328 -12 329 -16 L334 -16 C347 -12 359 -10 393 -6 C357 -32 336 -69 336 -107 C336 -156 373 -192 422 -192 C450 -192 471 -183 501 -158 L491 -137 C479 -145 472 -147 463 -147 C436 -147 419 -122 419 -81 C419 -54 424 -30 433 -10 L436 -4 L437 -2 Z " />
<glyph glyph-name="Wcircumflex" unicode="&#x174;" horiz-adv-x="847" d="M637 -14 L761 472 C792 592 808 620 849 623 L856 623 L856 667 L674 667 L674 623 L678 623 C711 623 734 601 734 568 C734 554 729 527 723 500 L647 201 L487 667 L434 667 L297 201 L205 529 C198 553 194 577 194 588 C194 611 210 622 243 623 L248 623 L248 667 L-9 667 L-9 623 L-2 623 C40 621 49 608 76 511 L222 -14 L276 -14 L419 468 L584 -14 L637 -14 Z M379 879 L271 729 L303 729 L449 817 L613 729 L645 729 L535 879 L379 879 Z " />
<glyph glyph-name="Ycircumflex" unicode="&#x176;" horiz-adv-x="596" d="M-11 667 L-11 623 L-6 623 C38 618 49 606 91 526 L224 267 L224 149 C224 66 210 44 157 44 L148 44 L148 0 L448 0 L448 44 L439 44 C386 44 373 65 373 149 L373 277 L486 497 C536 590 562 618 602 623 L607 623 L607 667 L405 667 L405 623 L410 623 C447 623 468 606 468 576 C468 560 463 546 447 515 L354 332 L233 541 C219 567 213 581 213 592 C213 613 231 623 265 623 L270 623 L270 667 L-11 667 Z M239 879 L131 729 L162 729 L308 817 L473 729 L505 729 L395 879 L239 879 Z " />
<glyph glyph-name="ycircumflex" unicode="&#x177;" horiz-adv-x="453" d="M-5 403 L-5 361 L2 360 C27 358 37 347 61 293 L212 -15 L193 -65 C175 -107 164 -116 107 -135 C69 -147 52 -166 52 -196 C52 -227 74 -250 105 -250 C148 -250 177 -214 218 -112 L362 251 C363 254 366 260 371 270 C372 272 381 290 393 317 C407 347 418 357 443 360 L450 361 L450 403 L303 403 L303 361 L309 361 L311 361 L314 361 C329 362 346 348 346 336 C346 330 344 321 340 313 C336 303 332 294 329 285 L264 118 L184 301 C177 317 174 329 174 339 C174 353 182 359 201 360 L207 361 L207 403 L-5 403 Z M342 489 L377 489 L291 652 L186 652 L97 489 L130 489 L234 578 L342 489 Z " />
<glyph glyph-name="Ydieresis" unicode="&#x178;" horiz-adv-x="596" d="M-11 667 L-11 623 L-6 623 C38 618 49 606 91 526 L224 267 L224 149 C224 66 210 44 157 44 L148 44 L148 0 L448 0 L448 44 L439 44 C386 44 373 65 373 149 L373 277 L486 497 C536 590 562 618 602 623 L607 623 L607 667 L405 667 L405 623 L410 623 C447 623 468 606 468 576 C468 560 463 546 447 515 L354 332 L233 541 C219 567 213 581 213 592 C213 613 231 623 265 623 L270 623 L270 667 L-11 667 Z M190 862 C152 862 122 832 122 794 C122 757 153 726 189 726 C228 726 258 756 258 794 C258 832 228 862 190 862 L190 862 Z M432 862 C395 862 364 832 364 795 C364 756 394 726 432 726 C469 726 500 757 500 794 C500 832 470 862 432 862 L432 862 Z " />
<glyph glyph-name="Zacute" unicode="&#x179;" horiz-adv-x="598" d="M30 0 L551 0 L565 190 L525 190 C487 69 456 45 346 47 L193 47 L547 630 L547 667 L62 667 L49 497 L87 497 C116 601 148 625 256 621 L384 621 L30 35 L30 0 Z M264 729 L297 729 L543 869 L543 877 L364 877 L264 729 Z " />
<glyph glyph-name="zacute" unicode="&#x17a;" horiz-adv-x="422" d="M25 0 L383 0 L394 134 L357 134 C329 60 312 43 260 43 L173 43 L388 366 L388 403 L45 403 L37 283 L75 283 C101 353 109 361 141 360 L241 360 L25 33 L25 0 Z M192 488 L225 488 L424 642 L424 649 L272 649 L192 488 Z " />
<glyph glyph-name="Zdotaccent" unicode="&#x17b;" horiz-adv-x="598" d="M30 0 L551 0 L565 190 L525 190 C487 69 456 45 346 47 L193 47 L547 630 L547 667 L62 667 L49 497 L87 497 C116 601 148 625 256 621 L384 621 L30 35 L30 0 Z M314 862 C276 862 246 832 246 794 C246 757 277 726 313 726 C352 726 382 756 382 794 C382 832 352 862 314 862 L314 862 Z " />
<glyph glyph-name="zdotaccent" unicode="&#x17c;" horiz-adv-x="422" d="M25 0 L383 0 L394 134 L357 134 C329 60 312 43 260 43 L173 43 L388 366 L388 403 L45 403 L37 283 L75 283 C101 353 109 361 141 360 L241 360 L25 33 L25 0 Z M235 633 C202 633 175 606 175 573 C175 540 202 513 234 513 C268 513 295 539 295 573 C295 606 268 633 235 633 L235 633 Z " />
<glyph glyph-name="Zcaron" unicode="&#x17d;" horiz-adv-x="598" d="M30 0 L551 0 L565 190 L525 190 C487 69 456 45 346 47 L193 47 L547 630 L547 667 L62 667 L49 497 L87 497 C116 601 148 625 256 621 L384 621 L30 35 L30 0 Z M391 729 L501 879 L469 879 L323 791 L159 879 L127 879 L234 729 L391 729 Z " />
<glyph glyph-name="zcaron" unicode="&#x17e;" horiz-adv-x="422" d="M25 0 L383 0 L394 134 L357 134 C329 60 312 43 260 43 L173 43 L388 366 L388 403 L45 403 L37 283 L75 283 C101 353 109 361 141 360 L241 360 L25 33 L25 0 Z M121 655 L88 655 L179 491 L283 491 L368 655 L333 655 L234 566 L121 655 Z " />
<glyph glyph-name="florin" unicode="&#x192;" horiz-adv-x="477" d="M331 444 C337 482 339 511 339 544 L339 554 C339 604 343 627 352 645 C359 657 370 665 380 665 C387 665 392 661 392 654 C392 650 391 645 390 639 C388 630 387 622 387 616 C387 594 402 577 422 577 C446 577 464 598 464 627 C464 664 436 688 393 688 C334 688 294 644 264 548 C233 457 224 448 160 444 L155 444 L146 393 L214 393 L213 383 C201 321 196 291 192 275 C153 77 147 41 142 -37 C139 -82 131 -148 127 -162 C123 -175 111 -187 102 -187 C98 -187 91 -182 91 -179 L92 -171 C92 -170 92 -166 91 -160 L91 -152 C89 -128 76 -114 53 -114 C30 -114 11 -135 11 -161 C11 -193 39 -217 74 -217 C132 -217 191 -154 225 -57 C249 15 270 105 293 230 L323 393 L394 393 L404 444 L331 444 Z " />
<glyph glyph-name="uni01CD" unicode="&#x1cd;" horiz-adv-x="591" d="M603 0 L603 44 L598 44 C555 50 543 66 507 157 L316 678 L275 678 L90 170 C62 87 34 50 -6 44 L-12 44 L-12 0 L180 0 L180 44 L173 44 C139 44 116 63 116 91 C116 107 120 121 138 170 L149 202 L348 202 L376 128 C385 102 391 82 391 73 C391 53 372 44 333 44 L327 44 L327 0 L603 0 Z M333 247 L165 247 L247 475 L333 247 Z M372 729 L482 879 L451 879 L304 791 L140 879 L108 879 L216 729 L372 729 Z " />
<glyph glyph-name="uni01CE" unicode="&#x1ce;" horiz-adv-x="480" d="M446 84 C443 62 433 49 418 49 C400 49 394 64 394 108 L394 287 C394 339 389 356 368 378 C341 406 299 419 236 419 C127 419 46 375 46 315 C46 290 64 272 90 272 C117 272 133 289 139 323 C142 342 146 354 153 360 C163 369 183 375 202 375 C250 375 268 354 268 298 L268 267 L232 252 C75 181 33 145 33 80 C33 26 73 -10 131 -10 C178 -10 226 10 274 49 C291 10 324 -10 371 -10 C434 -10 473 25 475 84 L446 84 Z M268 223 L268 93 C243 65 220 50 202 50 C178 50 161 74 161 106 C161 146 194 188 242 211 L268 223 Z M139 655 L106 655 L197 491 L301 491 L386 655 L351 655 L252 566 L139 655 Z " />
<glyph glyph-name="uni01D3" unicode="&#x1d3;" horiz-adv-x="698" d="M452 667 L452 623 L457 623 C519 621 547 586 546 511 L546 286 C546 201 543 174 532 148 C505 84 447 44 380 44 C327 44 282 69 258 110 C238 145 232 183 232 275 L232 521 C232 604 247 624 304 623 L314 623 L314 667 L16 667 L16 623 L24 623 C81 624 96 603 97 521 L96 254 C96 169 108 122 140 80 C185 20 258 -13 346 -13 C413 -13 477 9 520 46 C569 88 596 165 596 260 L596 519 C594 584 615 611 675 623 L681 623 L681 667 L452 667 Z M448 729 L558 879 L527 879 L380 791 L216 879 L184 879 L292 729 L448 729 Z " />
<glyph glyph-name="uni01D4" unicode="&#x1d4;" horiz-adv-x="514" d="M452 403 L275 403 L275 361 L280 361 C317 359 322 351 323 279 L323 145 C323 141 317 116 314 110 C301 77 270 51 245 51 C231 51 217 60 209 73 C202 85 200 100 200 134 L200 403 L13 403 L13 361 L16 361 C57 361 70 340 71 279 L71 130 C71 88 76 60 88 40 C108 5 146 -16 190 -16 C240 -16 287 12 323 63 L323 56 L323 53 C323 44 323 39 324 35 L325 11 L326 7 L327 -7 L327 -8 C327 -10 328 -12 329 -16 L334 -16 C359 -8 448 1 501 0 L501 42 L498 42 C461 43 454 56 452 125 L452 403 Z M163 655 L129 655 L220 491 L325 491 L409 655 L374 655 L275 566 L163 655 Z " />
<glyph glyph-name="Gcaron" unicode="&#x1e6;" horiz-adv-x="704" d="M413 300 L413 256 L422 256 C473 252 487 238 489 186 L489 161 C489 85 443 37 368 37 C317 37 274 62 249 105 C222 153 210 216 210 319 C210 423 223 499 249 546 C277 597 324 625 380 625 C470 625 535 556 559 436 L601 436 L598 667 L556 667 C553 639 548 618 537 595 C482 653 421 680 346 680 C272 680 204 653 153 604 C82 535 39 431 39 325 C39 131 171 -13 347 -13 C392 -13 425 -7 492 13 C536 26 578 34 608 34 C613 34 618 34 628 32 L628 149 C628 236 632 246 679 255 L686 256 L686 300 L413 300 Z M433 729 L543 879 L512 879 L365 791 L201 879 L169 879 L277 729 L433 729 Z " />
<glyph glyph-name="gcaron" unicode="&#x1e7;" horiz-adv-x="464" d="M269 -52 C336 -52 366 -72 366 -117 C366 -173 312 -208 227 -208 C171 -208 129 -191 112 -162 C106 -152 104 -143 104 -126 C104 -113 105 -98 107 -87 L108 -85 L108 -83 C94 -77 86 -75 76 -75 C49 -75 27 -102 27 -136 C27 -171 48 -203 82 -223 C112 -240 162 -249 221 -249 C361 -249 442 -188 442 -82 C442 10 385 56 272 56 L243 55 L239 55 L217 55 C205 56 193 56 192 56 C148 56 129 64 129 84 C129 109 155 122 212 124 C260 125 298 134 326 151 C368 177 392 222 392 275 C392 302 386 324 373 348 C383 360 390 365 398 365 C406 365 410 362 419 351 C428 339 435 335 445 335 C461 335 473 350 473 372 C473 400 455 418 429 418 C405 418 385 406 352 373 C318 405 277 419 222 419 C113 419 41 362 41 276 C41 213 79 160 137 139 C77 123 49 93 49 44 C49 -22 101 -53 211 -53 C215 -53 234 -53 246 -52 L269 -52 Z M216 376 C248 376 267 339 267 278 C267 207 250 169 218 169 C184 169 167 206 167 280 C167 339 186 376 216 376 L216 376 Z M120 655 L87 655 L177 491 L282 491 L367 655 L332 655 L232 566 L120 655 Z " />
<glyph glyph-name="Scommaaccent" unicode="&#x218;" horiz-adv-x="503" d="M51 10 L94 10 C98 35 103 53 111 67 C151 16 210 -13 275 -13 C387 -13 470 73 470 189 C470 243 452 293 418 330 C394 357 354 383 279 420 C190 465 162 495 162 548 C162 597 195 632 243 632 C307 632 359 573 380 478 L419 478 L419 667 L379 667 C374 639 372 634 361 617 C324 658 280 679 228 679 C128 679 52 598 52 491 C52 442 69 395 98 362 C124 332 155 311 244 262 C320 221 350 185 350 136 C350 79 309 37 253 37 C206 37 163 65 133 116 C116 145 105 178 94 233 L51 233 L51 10 Z M183 -327 C276 -318 337 -257 337 -172 C337 -104 303 -59 250 -59 C208 -59 178 -89 178 -130 C178 -166 204 -194 236 -194 C242 -194 245 -193 260 -190 C264 -188 266 -188 268 -188 C277 -188 284 -198 284 -211 C284 -247 242 -277 183 -284 L183 -327 Z " />
<glyph glyph-name="scommaaccent" unicode="&#x219;" horiz-adv-x="375" d="M37 -12 L69 -12 C74 2 80 12 88 20 C92 19 93 18 98 15 C129 -6 163 -16 199 -16 C285 -16 343 39 343 121 C343 164 326 204 298 228 C276 246 271 248 195 272 C146 287 122 308 122 335 C122 361 147 382 180 382 C230 382 272 346 286 291 L318 291 L318 414 L288 414 C282 401 277 392 271 386 C235 407 194 420 167 420 C94 420 36 363 36 292 C36 236 76 188 143 164 C214 138 214 138 233 122 C244 112 251 97 251 82 C251 48 223 25 182 25 C129 25 89 61 72 122 L37 122 L37 -12 Z M124 -301 C152 -299 171 -293 198 -277 C240 -251 262 -212 262 -162 C262 -103 229 -62 180 -62 C142 -62 115 -87 115 -121 C115 -151 138 -174 167 -174 C172 -174 177 -173 182 -172 C194 -170 194 -170 197 -170 C207 -170 214 -179 214 -192 C214 -226 176 -257 124 -266 L124 -301 Z " />
<glyph glyph-name="uni021A" unicode="&#x21a;" horiz-adv-x="624" d="M53 487 C70 599 89 620 177 620 L236 620 L236 149 C236 65 222 44 169 44 L150 44 L150 0 L471 0 L471 44 L452 44 C398 44 384 65 384 149 L384 620 L447 620 C527 621 548 598 570 487 L610 487 L609 667 L14 667 L13 487 L53 487 Z M240 -327 C333 -318 394 -257 394 -172 C394 -104 360 -59 307 -59 C265 -59 235 -89 235 -130 C235 -166 261 -194 293 -194 C299 -194 302 -193 317 -190 C321 -188 323 -188 325 -188 C334 -188 341 -198 341 -211 C341 -247 299 -277 240 -284 L240 -327 Z " />
<glyph glyph-name="uni021B" unicode="&#x21b;" horiz-adv-x="303" d="M292 359 L292 403 L184 403 L184 534 L147 534 C136 456 84 402 22 402 C22 402 18 402 14 403 L14 359 L65 359 L65 127 C65 33 103 -16 178 -16 C238 -16 286 16 306 68 L272 82 C258 53 244 41 223 41 C210 41 200 47 194 58 C185 73 184 85 184 139 L184 359 L292 359 Z M101 -301 C129 -299 148 -293 175 -277 C217 -251 239 -212 239 -162 C239 -103 206 -62 157 -62 C119 -62 92 -87 92 -121 C92 -151 115 -174 144 -174 C149 -174 154 -173 159 -172 C171 -170 171 -170 174 -170 C184 -170 191 -179 191 -192 C191 -226 153 -257 101 -266 L101 -301 Z " />
<glyph glyph-name="afii57929" unicode="&#x2bc;" horiz-adv-x="283" d="M65 355 C162 363 227 436 227 541 C227 622 189 675 131 675 C89 675 58 643 58 598 C58 558 85 527 120 527 C126 527 132 528 138 530 C144 532 149 533 152 533 C162 533 169 521 169 505 C169 452 127 411 65 403 L65 355 Z " />
<glyph glyph-name="circumflex" unicode="&#x2c6;" horiz-adv-x="478" d="M344 489 L379 489 L293 652 L188 652 L99 489 L132 489 L236 578 L344 489 Z " />
<glyph glyph-name="caron" unicode="&#x2c7;" horiz-adv-x="478" d="M132 655 L99 655 L190 491 L294 491 L379 655 L344 655 L245 566 L132 655 Z " />
<glyph glyph-name="uni02C9" unicode="&#x2c9;" horiz-adv-x="350" d="M33 541 L317 541 L317 590 L33 590 L33 541 Z " />
<glyph glyph-name="breve" unicode="&#x2d8;" horiz-adv-x="479" d="M94 648 L94 645 C94 608 110 566 138 535 C164 504 197 489 237 489 C315 489 375 556 379 648 L352 648 C334 596 297 571 239 571 C178 571 138 598 122 648 L94 648 Z " />
<glyph glyph-name="dotaccent" unicode="&#x2d9;" horiz-adv-x="462" d="M231 633 C198 633 171 606 171 573 C171 540 198 513 230 513 C264 513 291 539 291 573 C291 606 265 633 231 633 L231 633 Z " />
<glyph glyph-name="ring" unicode="&#x2da;" horiz-adv-x="500" d="M248 682 C189 682 141 634 141 575 C141 518 189 469 246 469 C306 469 354 516 354 576 C354 634 306 682 248 682 L248 682 Z M247 643 C285 643 315 613 315 576 C315 538 284 508 247 508 C210 508 180 538 180 576 C180 613 211 643 247 643 L247 643 Z " />
<glyph glyph-name="ogonek" unicode="&#x2db;" horiz-adv-x="500" d="M320 8 C266 -20 238 -60 238 -107 C238 -156 275 -192 324 -192 C352 -192 373 -183 404 -158 L394 -137 C381 -145 374 -147 365 -147 C338 -147 321 -122 321 -81 C321 -48 327 -25 344 8 L320 8 Z " />
<glyph glyph-name="tilde" unicode="&#x2dc;" horiz-adv-x="481" d="M113 503 C119 535 133 550 157 550 C173 550 189 544 224 526 C257 509 276 503 297 503 C335 503 363 523 380 560 C387 576 390 592 392 635 L362 635 C360 600 344 582 316 582 C303 582 291 586 269 598 C225 621 203 629 177 629 C147 629 115 611 102 587 C89 564 84 540 84 503 L113 503 Z " />
<glyph glyph-name="hungarumlaut" unicode="&#x2dd;" horiz-adv-x="471" d="M104 488 L138 488 L311 642 L311 649 L184 649 L104 488 Z M261 488 L295 488 L468 642 L468 649 L341 649 L261 488 Z " />
<glyph glyph-name="Wdieresis" unicode="&#x1e84;" horiz-adv-x="847" d="M637 -14 L761 472 C792 592 808 620 849 623 L856 623 L856 667 L674 667 L674 623 L678 623 C711 623 734 601 734 568 C734 554 729 527 723 500 L647 201 L487 667 L434 667 L297 201 L205 529 C198 553 194 577 194 588 C194 611 210 622 243 623 L248 623 L248 667 L-9 667 L-9 623 L-2 623 C40 621 49 608 76 511 L222 -14 L276 -14 L419 468 L584 -14 L637 -14 Z M338 862 C300 862 270 832 270 794 C270 757 301 726 337 726 C376 726 406 756 406 794 C406 832 376 862 338 862 L338 862 Z M581 862 C544 862 513 832 513 795 C513 756 543 726 581 726 C618 726 649 757 649 794 C649 832 619 862 581 862 L581 862 Z " />
<glyph glyph-name="uni2011" unicode="&#x2011;" horiz-adv-x="302" d="M29 247 L29 182 L275 182 L275 247 L29 247 Z " />
<glyph glyph-name="figuredash" unicode="&#x2012;" horiz-adv-x="500" d="M18 243 L18 193 L482 193 L482 243 L18 243 Z " />
<glyph glyph-name="endash" unicode="&#x2013;" horiz-adv-x="500" d="M18 243 L18 193 L482 193 L482 243 L18 243 Z " />
<glyph glyph-name="emdash" unicode="&#x2014;" horiz-adv-x="789" d="M18 243 L18 193 L771 193 L771 243 L18 243 Z " />
<glyph glyph-name="afii00208" unicode="&#x2015;" horiz-adv-x="789" d="M18 243 L18 193 L771 193 L771 243 L18 243 Z " />
<glyph glyph-name="quoteleft" unicode="&#x2018;" horiz-adv-x="283" d="M222 675 C124 667 60 594 60 490 C60 409 98 355 156 355 C198 355 229 388 229 432 C229 472 202 503 167 503 C161 503 155 502 149 500 C143 498 138 497 135 497 C125 497 118 509 118 525 C118 578 160 619 222 627 L222 675 Z " />
<glyph glyph-name="quoteright" unicode="&#x2019;" horiz-adv-x="254" d="M51 355 C148 363 213 436 213 541 C213 622 175 675 117 675 C75 675 44 643 44 598 C44 558 71 527 106 527 C112 527 118 528 124 530 C130 532 135 533 138 533 C148 533 155 521 155 505 C155 452 113 411 51 403 L51 355 Z " />
<glyph glyph-name="quotesinglbase" unicode="&#x201a;" horiz-adv-x="277" d="M65 -186 C159 -179 221 -105 221 -1 C221 79 184 133 129 133 C88 133 58 101 58 56 C58 16 84 -15 116 -15 C122 -15 128 -14 134 -12 C140 -10 144 -9 147 -9 C156 -9 163 -21 163 -37 C163 -89 123 -130 65 -139 L65 -186 Z " />
<glyph glyph-name="quotedblleft" unicode="&#x201c;" horiz-adv-x="503" d="M218 675 C120 667 56 594 56 490 C56 409 94 355 152 355 C194 355 225 388 225 432 C225 472 198 503 163 503 C157 503 151 502 145 500 C139 498 134 497 131 497 C121 497 114 509 114 525 C114 578 156 619 218 627 L218 675 Z M446 675 C348 667 284 594 284 490 C284 409 322 355 379 355 C422 355 453 387 453 432 C453 472 426 503 391 503 C385 503 379 502 373 500 C367 498 362 497 359 497 C349 497 342 509 342 525 C342 578 384 619 446 627 L446 675 Z " />
<glyph glyph-name="quotedblright" unicode="&#x201d;" horiz-adv-x="503" d="M56 355 C153 363 218 436 218 541 C218 622 180 675 122 675 C80 675 49 643 49 598 C49 558 76 527 111 527 C117 527 123 528 129 530 C135 532 140 533 143 533 C153 533 160 521 160 505 C160 452 118 411 56 403 L56 355 Z M286 355 C384 363 448 436 448 541 C448 621 410 675 352 675 C310 675 279 643 279 598 C279 558 306 527 341 527 C347 527 353 528 359 530 C365 532 370 533 373 533 C383 533 390 521 390 505 C390 452 348 411 286 403 L286 355 Z " />
<glyph glyph-name="quotedblbase" unicode="&#x201e;" horiz-adv-x="497" d="M53 -186 C147 -178 209 -105 209 -1 C209 79 172 133 117 133 C76 133 46 101 46 56 C46 17 72 -15 103 -15 C108 -15 114 -14 122 -12 C125 -11 129 -10 130 -10 C132 -10 134 -9 134 -9 L137 -8 C145 -8 151 -20 151 -35 C151 -89 111 -131 53 -139 L53 -186 Z M282 -186 C376 -178 438 -105 438 -2 C438 79 401 133 346 133 C305 133 275 101 275 56 C275 17 301 -15 332 -15 C336 -15 343 -14 351 -12 C354 -11 358 -10 359 -10 C361 -10 363 -9 363 -9 L366 -8 C373 -8 380 -21 380 -35 C380 -89 341 -131 282 -139 L282 -186 Z " />
<glyph glyph-name="dagger" unicode="&#x2020;" horiz-adv-x="450" d="M250 -243 L250 -118 C250 -86 257 99 260 119 C268 225 268 226 268 254 C268 297 263 345 256 365 C253 373 253 375 253 388 C268 385 281 381 294 375 C342 353 354 349 377 349 C407 349 428 375 428 411 C428 448 407 473 376 473 C359 473 334 466 310 455 C279 440 270 437 250 433 C251 438 252 440 252 442 L258 461 L260 469 L265 490 C267 495 268 499 271 511 C283 550 288 579 288 600 C288 646 264 675 226 675 C188 675 165 646 165 599 C165 574 169 555 181 512 C184 501 186 496 187 490 L193 469 L195 463 C198 450 201 440 203 433 C184 435 174 439 139 456 C116 467 93 473 77 473 C49 473 28 447 28 411 C28 375 49 350 80 350 C98 350 126 358 154 371 C174 381 186 385 203 388 C203 375 203 374 198 363 C191 342 185 298 185 256 C185 239 186 224 187 209 L189 170 C190 153 191 137 191 123 L191 104 C191 95 192 74 195 44 C200 -19 203 -97 203 -190 L203 -243 L250 -243 Z " />
<glyph glyph-name="daggerdbl" unicode="&#x2021;" horiz-adv-x="462" d="M256 255 C257 265 258 273 259 279 C265 306 268 330 268 349 C268 374 263 397 252 427 C272 421 288 415 299 411 C343 391 355 388 375 388 C406 388 428 414 428 450 C428 488 406 512 371 512 C355 512 337 507 308 494 C278 480 268 477 252 473 C254 488 259 509 267 534 C284 585 286 594 286 619 C286 653 264 677 232 677 C197 677 175 653 175 615 C175 596 180 574 192 541 C203 508 210 486 211 473 C198 475 185 480 168 487 C116 509 107 512 85 512 C55 512 32 485 32 450 C32 415 54 388 83 388 C99 388 121 394 144 403 C176 417 191 422 211 427 C199 392 194 370 194 349 C194 338 196 323 199 307 C205 279 206 276 207 255 L256 255 Z M207 178 C206 157 204 138 200 117 C196 95 194 80 194 73 C194 54 199 34 211 5 C200 7 183 12 162 21 C114 41 105 44 83 44 C55 44 32 17 32 -18 C32 -54 54 -79 87 -79 C104 -79 123 -73 164 -56 C184 -47 200 -42 211 -40 C210 -54 203 -76 191 -111 C180 -142 175 -162 175 -182 C175 -221 197 -245 233 -245 C265 -245 287 -221 287 -186 C287 -167 283 -144 276 -122 C259 -73 257 -65 252 -40 C265 -42 285 -50 313 -62 C336 -73 359 -79 375 -79 C406 -79 429 -52 429 -16 C429 19 407 45 377 45 C362 45 342 40 321 31 C294 19 284 16 252 5 C264 31 269 51 269 73 C269 82 267 96 264 114 C259 140 257 156 256 178 L207 178 Z " />
<glyph glyph-name="bullet" unicode="&#x2022;" horiz-adv-x="600" d="M300 480 C232 480 176 417 176 342 C176 263 231 200 300 200 C368 200 423 263 423 340 C423 418 368 480 300 480 L300 480 Z " />
<glyph glyph-name="ellipsis" unicode="&#x2026;" horiz-adv-x="906" d="M151 136 C112 136 81 102 81 59 C81 17 112 -17 150 -17 C188 -17 219 17 219 60 C219 101 188 136 151 136 L151 136 Z M452 136 C412 136 381 102 381 60 C381 17 412 -17 451 -17 C489 -17 520 17 520 60 C520 101 489 136 452 136 L452 136 Z M752 136 C713 136 682 102 682 59 C682 17 713 -17 751 -17 C789 -17 820 17 820 60 C820 101 789 136 752 136 L752 136 Z " />
<glyph glyph-name="perthousand" unicode="&#x2030;" horiz-adv-x="992" d="M164 679 C130 679 101 668 81 648 C49 617 28 561 28 506 C28 399 79 334 162 334 C196 334 225 345 246 365 C277 394 297 451 297 508 C297 558 281 610 256 639 C233 666 203 679 164 679 L164 679 Z M163 646 C188 646 201 604 201 519 C201 413 190 368 163 368 C133 368 124 404 124 523 C124 607 136 646 163 646 L163 646 Z M210 0 L519 660 L467 660 L159 0 L210 0 Z M515 333 C482 333 453 322 432 302 C400 271 379 215 379 160 C379 53 430 -12 513 -12 C547 -12 577 -1 598 19 C629 48 649 105 649 162 C649 212 633 264 607 293 C584 320 554 333 515 333 L515 333 Z M514 300 C540 300 553 258 553 173 C553 67 541 22 514 22 C484 22 475 59 475 176 C475 262 487 300 514 300 L514 300 Z M829 333 C796 333 766 322 746 302 C714 271 693 215 693 160 C693 53 744 -12 827 -12 C861 -12 891 -1 912 19 C943 48 963 105 963 162 C963 212 947 264 921 293 C899 320 869 333 829 333 L829 333 Z M828 300 C854 300 867 258 867 173 C867 67 855 22 828 22 C798 22 789 58 789 177 C789 261 801 300 828 300 L828 300 Z " />
<glyph glyph-name="guilsinglleft" unicode="&#x2039;" horiz-adv-x="264" d="M24 216 L196 8 L237 8 L156 216 L237 423 L195 423 L24 216 Z " />
<glyph glyph-name="guilsinglright" unicode="&#x203a;" horiz-adv-x="264" d="M236 216 L65 423 L23 423 L104 216 L23 8 L64 8 L236 216 Z " />
<glyph glyph-name="uni203E" unicode="&#x203e;" horiz-adv-x="500" d="M0 847 L0 807 L500 807 L500 847 L0 847 Z " />
<glyph glyph-name="fraction" unicode="&#x2044;" horiz-adv-x="147" d="M-55 0 L253 660 L201 660 L-107 0 L-55 0 Z " />
<glyph glyph-name="franc" unicode="&#x20a3;" horiz-adv-x="770" d="M515 667 L25 667 L25 624 L35 624 C90 625 102 606 103 521 L103 149 C103 65 90 44 36 44 L25 44 L25 0 L333 0 L333 44 L319 44 C266 43 250 68 251 149 L251 326 L297 326 C349 325 361 310 366 237 L366 230 L407 230 L407 461 L366 461 L366 454 C361 388 349 374 297 373 L251 373 L251 621 L347 621 C404 620 422 614 440 590 C460 563 472 533 479 494 L520 494 L515 667 Z M450 293 L455 293 C491 292 498 280 500 217 L500 115 C498 50 493 40 456 39 L451 39 L451 0 L674 0 L674 39 L666 39 C628 40 621 52 619 115 L619 145 C619 208 624 234 643 265 C653 284 667 294 680 294 C690 294 698 288 707 274 C723 250 731 243 747 243 C772 243 790 266 790 297 C790 337 763 367 726 367 C682 367 640 332 614 273 C613 311 608 341 599 367 C514 345 479 337 450 331 L450 293 Z " />
<glyph glyph-name="Euro" unicode="&#x20ac;" horiz-adv-x="694" d="M261 381 C264 433 270 473 279 503 C305 584 356 628 426 628 C522 628 587 554 614 412 L653 412 L647 661 L608 661 C607 659 607 658 606 654 C605 637 599 618 588 593 C537 650 473 679 394 679 C237 679 120 563 94 381 L52 381 L34 335 L91 335 L91 332 L91 324 L91 307 L52 307 L34 261 L96 261 C126 91 239 -13 392 -13 C473 -13 544 19 593 76 C605 58 613 39 619 10 L658 10 L658 254 L619 254 C607 182 576 114 542 84 C510 57 468 40 430 40 C365 40 310 81 283 150 C272 180 265 212 262 261 L452 261 L469 307 L259 307 L259 335 L480 335 L498 381 L261 381 Z " />
<glyph glyph-name="trademark" unicode="&#x2122;" horiz-adv-x="842" d="M329 565 L329 667 L13 667 L13 565 L30 565 C33 623 50 643 97 643 L121 643 L121 348 C120 312 116 307 90 305 L75 305 L75 287 L266 287 L266 305 L252 305 C224 307 220 312 220 348 L220 643 L244 643 C292 643 309 623 312 565 L329 565 Z M342 667 L342 649 C380 648 386 644 386 620 L386 347 C386 318 376 308 343 305 L343 287 L460 287 L460 305 C427 309 416 319 416 347 L416 613 L541 287 L555 287 L677 603 L677 347 C677 314 672 307 646 305 L634 305 L634 287 L814 287 L814 305 L803 305 C779 307 774 313 774 347 L774 607 C774 641 779 647 803 649 L816 649 L816 667 L675 667 L580 420 L486 667 L342 667 Z " />
<glyph glyph-name="uni2126" unicode="&#x2126;" horiz-adv-x="768" d="M326 0 L308 155 C230 199 180 288 180 382 C180 434 195 493 221 540 C257 605 317 642 385 642 C453 642 513 605 549 540 C575 493 590 434 590 382 C590 288 540 199 462 155 L444 0 L736 0 L736 153 L712 153 C704 108 684 90 643 90 L497 90 L500 128 C535 141 557 151 580 166 C657 215 702 296 702 382 C702 449 673 522 625 578 C564 648 480 686 385 686 C290 686 206 648 145 578 C97 522 68 449 68 382 C68 296 113 215 190 166 C213 151 235 141 270 128 L273 90 L127 90 C86 90 66 108 58 153 L34 153 L34 0 L326 0 Z " />
<glyph glyph-name="partialdiff" unicode="&#x2202;" horiz-adv-x="494" d="M107 674 C152 697 184 706 219 706 C321 706 379 611 379 448 C379 418 377 395 372 346 C308 396 272 412 221 412 C172 412 131 394 95 355 C51 309 26 246 26 184 C26 76 109 -10 213 -10 C282 -10 341 22 383 84 C429 152 462 286 462 403 C462 519 428 611 360 681 C312 730 259 753 195 753 C156 753 122 746 66 725 L107 674 Z M366 312 C350 201 339 158 314 107 C288 54 245 21 201 21 C146 21 113 73 113 159 C113 273 180 367 261 367 C299 367 324 354 366 312 L366 312 Z " />
<glyph glyph-name="Delta" unicode="&#x2206;" horiz-adv-x="612" d="M6 0 L608 0 L327 688 L6 0 Z M77 51 L290 509 L479 51 L77 51 Z " />
<glyph glyph-name="product" unicode="&#x220f;" horiz-adv-x="823" d="M25 -124 L315 -124 L315 -98 L312 -98 C242 -94 221 -67 224 18 L224 594 C224 656 228 677 242 690 C260 707 272 708 413 708 C556 708 568 707 586 690 C600 677 604 656 604 594 L604 18 C607 -67 586 -94 516 -98 L513 -98 L513 -124 L803 -124 L803 -98 L800 -98 C730 -94 709 -67 712 18 L712 609 C709 694 730 721 800 725 L803 725 L803 751 L25 751 L25 725 L28 725 C98 721 119 694 116 609 L116 18 C119 -67 98 -94 28 -98 L25 -98 L25 -124 Z " />
<glyph glyph-name="summation" unicode="&#x2211;" horiz-adv-x="713" d="M176 711 L444 711 C560 710 590 688 606 587 L632 587 L622 752 L23 752 L256 285 L14 -123 L641 -123 L695 87 L669 87 C639 7 605 -12 491 -11 L163 -11 L364 341 L176 711 Z " />
<glyph glyph-name="minus" unicode="&#x2212;" horiz-adv-x="450" d="M8 396 L8 323 L442 323 L442 396 L8 396 Z " />
<glyph glyph-name="uni2215" unicode="&#x2215;" horiz-adv-x="147" d="M-55 0 L253 660 L201 660 L-107 0 L-55 0 Z " />
<glyph glyph-name="uni2219" unicode="&#x2219;" horiz-adv-x="258" d="M124 410 C86 410 55 375 55 333 C55 291 86 256 123 256 C162 256 193 290 193 333 C193 376 162 410 124 410 L124 410 Z " />
<glyph glyph-name="radical" unicode="&#x221a;" horiz-adv-x="549" d="M363 -35 L515 908 L480 913 L353 123 L156 520 L10 449 L26 414 L121 461 L363 -35 Z " />
<glyph glyph-name="infinity" unicode="&#x221e;" horiz-adv-x="713" d="M357 303 C300 375 234 414 171 414 C86 414 26 351 26 263 C26 176 84 115 167 115 C224 115 282 143 327 192 C335 201 340 207 357 228 C415 156 485 115 548 115 C631 115 688 176 688 266 C688 354 629 414 543 414 C476 414 412 376 357 303 L357 303 Z M391 265 C434 325 493 362 546 362 C600 362 638 321 638 264 C638 205 603 167 549 167 C495 167 461 188 391 265 L391 265 Z M324 266 C275 203 216 167 163 167 C111 167 76 207 76 266 C76 323 113 362 167 362 C218 362 259 337 324 266 L324 266 Z " />
<glyph glyph-name="integral" unicode="&#x222b;" horiz-adv-x="274" d="M180 576 C180 653 179 691 176 746 C174 774 173 800 173 815 C173 855 184 878 202 878 C208 878 213 876 215 872 C232 845 239 839 256 839 C276 839 291 853 291 871 C291 898 267 916 231 916 C186 916 152 887 138 838 C123 784 113 682 113 577 L113 232 C113 160 114 124 117 63 C119 34 120 4 120 -12 C120 -47 108 -70 89 -70 C81 -70 74 -65 68 -52 C59 -35 51 -30 37 -30 C17 -30 2 -44 2 -63 C2 -89 26 -107 62 -107 C107 -107 141 -78 155 -29 C170 25 180 126 180 232 L180 576 Z " />
<glyph glyph-name="approxequal" unicode="&#x2248;" horiz-adv-x="549" d="M489 251 C444 199 423 187 384 187 C365 187 354 190 285 211 C212 234 188 239 160 239 C101 239 54 211 14 155 L57 121 C103 174 120 184 159 184 C180 184 180 184 271 157 C350 133 354 132 385 132 C449 132 496 160 527 217 L489 251 Z M489 408 C443 356 424 344 384 344 C365 344 354 347 285 369 C212 392 188 397 160 397 C101 397 54 369 14 312 L57 279 C104 332 119 342 159 342 C181 342 181 342 271 315 C351 290 354 289 385 289 C449 289 496 318 527 375 L489 408 Z " />
<glyph glyph-name="notequal" unicode="&#x2260;" horiz-adv-x="549" d="M187 142 L115 -1 L161 -25 L246 142 L540 142 L540 197 L273 197 L344 336 L540 336 L540 391 L371 391 L439 525 L392 549 L312 391 L15 391 L15 336 L285 336 L215 197 L15 197 L15 142 L187 142 Z " />
<glyph glyph-name="lessequal" unicode="&#x2264;" horiz-adv-x="549" d="M526 55 L29 55 L29 0 L526 0 L526 55 Z M526 639 L29 405 L29 350 L526 117 L526 179 L108 378 L526 577 L526 639 Z " />
<glyph glyph-name="greaterequal" unicode="&#x2265;" horiz-adv-x="549" d="M526 55 L29 55 L29 0 L526 0 L526 55 Z M29 639 L29 577 L447 378 L29 179 L29 117 L526 350 L526 405 L29 639 Z " />
<glyph glyph-name="lozenge" unicode="&#x25ca;" horiz-adv-x="494" d="M209 0 L269 -1 L466 374 L277 740 L214 740 L18 377 L209 0 Z M240 58 L81 376 L245 683 L402 373 L240 58 Z " />
<glyph glyph-name="fi" unicode="&#xfb01;" horiz-adv-x="550" d="M12 360 L79 360 L79 124 C79 61 67 42 25 42 L16 42 L16 0 L256 0 L256 42 L252 42 C212 42 201 59 199 124 L199 360 L294 360 C345 359 350 352 353 288 L353 124 C351 53 346 44 307 42 L302 42 L302 0 L541 0 L541 42 L533 42 C493 43 484 57 482 124 L482 416 L474 416 C443 408 384 403 310 403 L199 403 L199 467 C199 543 203 573 215 596 C229 619 256 634 287 634 C321 634 339 621 354 583 C371 544 386 530 412 530 C442 530 468 557 468 588 C468 613 450 637 420 655 C394 670 353 678 303 678 C233 678 185 662 144 626 C98 586 79 531 79 438 L79 403 L12 403 L12 360 Z " />
<glyph glyph-name="fl" unicode="&#xfb02;" horiz-adv-x="550" d="M81 403 L13 403 L13 360 L81 360 L81 124 C81 61 68 42 26 42 L17 42 L17 0 L257 0 L257 42 L254 42 C214 42 203 59 201 124 L201 360 L353 360 L353 124 C351 53 346 44 307 42 L302 42 L302 0 L541 0 L541 42 L533 42 C494 43 485 57 483 124 L483 678 L477 678 C471 677 469 677 458 674 C429 668 414 666 391 664 C366 673 334 678 299 678 C223 678 162 653 126 608 C96 570 81 511 81 429 L81 403 Z M201 403 L201 474 C201 541 206 574 218 596 C231 619 255 633 283 633 C313 633 331 619 347 585 C349 580 351 577 353 575 L353 403 L201 403 Z " />
</font>
</svg>
