<?xml version="1.0" encoding="UTF-8"?>
<svg xmlns="http://www.w3.org/2000/svg" xmlns:xlink="http://www.w3.org/1999/xlink" version="1.2" >
<font id="Basilia Black">
<font-face  font-family="Basilia" units-per-em="1000" ascent="669" descent="-331" font-style="normal" font-weight="900" font-stretch="normal" cap-height="667" x-height="420" underline-position="-86" underline-thickness="57" />
<missing-glyph  horiz-adv-x="250" d="" />
<glyph glyph-name="NULL" d="" />
<glyph glyph-name="CR" unicode="&#xd;" horiz-adv-x="250" d="" />
<glyph glyph-name="space" unicode="&#x20;" horiz-adv-x="250" d="" />
<glyph glyph-name="exclam" unicode="&#x21;" horiz-adv-x="399" d="M215 221 L215 231 C215 266 222 300 239 338 C273 419 273 419 279 436 C296 483 305 528 305 567 C305 642 270 680 199 680 C126 680 91 643 91 564 C91 520 102 474 129 411 L157 342 C168 318 175 296 176 285 C179 275 180 253 181 221 L215 221 Z M198 189 C133 189 91 150 91 89 C91 27 133 -13 198 -13 C261 -13 304 26 304 85 C304 147 262 189 198 189 L198 189 Z " />
<glyph glyph-name="quotedbl" unicode="&#x22;" horiz-adv-x="325" d="M79 733 C47 733 21 707 21 676 C21 657 21 657 37 547 C46 485 56 467 79 467 C95 467 108 483 113 509 C121 551 140 663 140 670 C140 707 114 733 79 733 L79 733 Z M236 733 C204 733 178 707 178 676 C178 657 178 657 194 547 C203 485 213 467 236 467 C252 467 265 483 270 509 C278 551 297 663 297 670 C297 707 271 733 236 733 L236 733 Z " />
<glyph glyph-name="numbersign" unicode="&#x23;" horiz-adv-x="588" d="M290 0 L365 0 L394 207 L500 207 L510 280 L405 280 L425 428 L531 428 L541 501 L436 501 L465 708 L390 708 L361 501 L246 501 L275 708 L200 708 L171 501 L65 501 L55 428 L160 428 L140 280 L34 280 L24 207 L129 207 L100 0 L175 0 L204 207 L319 207 L290 0 Z M330 280 L215 280 L235 428 L350 428 L330 280 Z " />
<glyph glyph-name="dollar" unicode="&#x24;" horiz-adv-x="594" d="M252 -107 L289 -107 L289 -15 C354 -12 386 -6 428 11 C515 44 566 116 566 206 C566 305 508 371 383 416 L326 437 L326 659 C430 664 501 589 507 470 L537 468 C536 506 535 528 535 545 C535 555 535 581 536 625 L536 656 C500 658 496 658 432 670 C385 678 367 681 326 683 L326 780 L289 780 L289 684 C219 678 184 670 141 649 C76 617 36 551 36 475 C36 411 64 355 114 318 C143 296 150 293 211 269 L252 254 L252 9 C144 9 76 84 70 211 L40 211 C41 171 41 149 41 119 C41 87 41 77 40 14 C62 14 67 13 139 -2 C179 -10 206 -13 252 -15 L252 -107 Z M289 450 L277 456 C228 482 208 510 208 552 C208 601 234 633 289 654 L289 450 Z M289 239 C317 228 334 219 346 209 C374 187 390 155 390 121 C390 91 378 63 356 43 C339 27 323 20 289 12 L289 239 Z " />
<glyph glyph-name="percent" unicode="&#x25;" horiz-adv-x="939" d="M231 680 C99 680 23 612 23 493 C23 375 98 306 227 306 C354 306 432 376 432 490 C432 610 358 680 231 680 L231 680 Z M228 658 C271 658 287 612 287 489 C287 379 269 328 229 328 C186 328 168 377 168 499 C168 614 185 658 228 658 L228 658 Z M650 721 L597 742 L274 -78 L327 -100 L650 721 Z M711 361 C579 361 503 293 503 174 C503 56 578 -13 707 -13 C834 -13 912 57 912 171 C912 291 838 361 711 361 L711 361 Z M708 339 C751 339 767 293 767 170 C767 60 749 9 709 9 C666 9 648 58 648 180 C648 295 665 339 708 339 L708 339 Z " />
<glyph glyph-name="ampersand" unicode="&#x26;" horiz-adv-x="871" d="M782 381 C740 379 707 378 686 378 C664 378 631 379 588 381 L588 358 L672 358 C666 295 650 237 625 187 C566 244 546 264 525 285 C502 308 479 331 455 354 L428 381 C476 395 497 405 521 424 C558 452 580 495 580 537 C580 628 499 680 357 680 C293 680 244 671 204 652 C152 628 118 577 118 523 C118 463 142 415 207 342 C151 326 128 316 99 296 C56 268 32 223 32 171 C32 55 135 -13 311 -13 C395 -13 445 0 510 37 L555 -4 C666 -2 673 -2 722 -2 C771 -2 801 -2 870 -4 L870 20 C814 21 793 31 723 95 L643 168 C670 216 689 279 702 358 L782 358 L782 381 Z M381 426 C316 489 294 527 294 576 C294 624 319 657 355 657 C397 657 424 614 424 547 C424 491 412 459 381 426 L381 426 Z M253 290 C307 231 445 94 491 55 C458 31 413 17 373 17 C287 17 228 91 228 197 C228 241 235 269 253 290 L253 290 Z " />
<glyph glyph-name="quotesingle" unicode="&#x27;" horiz-adv-x="190" d="M79 733 C47 733 21 707 21 676 C21 657 21 657 37 547 C46 485 56 467 79 467 C95 467 108 483 113 509 C121 551 140 663 140 670 C140 707 114 733 79 733 L79 733 Z " />
<glyph glyph-name="parenleft" unicode="&#x28;" horiz-adv-x="400" d="M343 734 C139 593 64 465 64 259 C64 51 140 -77 351 -226 L363 -205 C271 -134 256 -62 256 304 C256 577 273 646 356 713 L343 734 Z " />
<glyph glyph-name="parenright" unicode="&#x29;" horiz-adv-x="400" d="M57 -226 C261 -86 336 42 336 248 C336 456 260 585 49 734 L37 713 C129 641 144 569 144 204 C144 -70 127 -139 44 -206 L57 -226 Z " />
<glyph glyph-name="asterisk" unicode="&#x2a;" horiz-adv-x="470" d="M220 476 C206 460 201 455 177 445 C139 429 127 424 118 417 C100 403 90 385 90 367 C90 336 122 306 154 306 C192 306 212 339 217 408 C220 442 222 447 234 465 C247 450 250 444 252 413 C257 340 277 306 314 306 C349 306 379 334 379 366 C379 396 356 418 302 440 C267 455 262 458 250 476 C262 479 270 481 275 481 C283 481 296 478 315 473 C331 469 350 466 363 466 C403 466 428 487 428 520 C428 555 403 584 373 584 C346 584 324 570 296 535 C273 507 269 504 243 493 C244 522 245 525 264 555 C283 586 291 606 291 628 C291 659 269 680 234 680 C198 680 176 660 176 626 C176 602 183 585 208 546 C223 522 225 516 225 494 C207 500 202 504 184 526 C146 572 123 589 97 589 C67 589 41 558 41 521 C41 491 69 469 107 469 C121 469 138 471 157 476 C174 480 185 482 195 482 C199 482 208 480 220 476 L220 476 Z " />
<glyph glyph-name="plus" unicode="&#x2b;" horiz-adv-x="480" d="M180 235 L33 235 L33 150 L180 150 L180 0 L264 0 L264 150 L409 150 L409 235 L264 235 L264 382 L180 382 L180 235 Z " />
<glyph glyph-name="comma" unicode="&#x2c;" horiz-adv-x="296" d="M54 -213 C111 -179 139 -155 176 -108 C227 -43 255 25 255 85 C255 146 210 189 147 189 C82 189 41 151 41 91 C41 38 61 12 122 -12 C151 -23 161 -34 161 -53 C161 -94 117 -146 45 -192 L54 -213 Z " />
<glyph glyph-name="hyphen" unicode="&#x2d;" horiz-adv-x="249" d="M0 272 L0 203 L249 203 L249 272 L0 272 Z " />
<glyph glyph-name="period" unicode="&#x2e;" horiz-adv-x="296" d="M147 189 C82 189 40 150 40 89 C40 27 82 -13 147 -13 C210 -13 253 26 253 85 C253 147 211 189 147 189 L147 189 Z " />
<glyph glyph-name="slash" unicode="&#x2f;" horiz-adv-x="269" d="M323 733 L271 754 L-54 -67 L-1 -88 L323 733 Z " />
<glyph glyph-name="zero" unicode="0" horiz-adv-x="590" d="M300 675 C120 675 30 562 30 338 C30 238 52 143 88 91 C132 26 203 -8 290 -8 C468 -8 561 104 561 318 C561 555 474 675 300 675 L300 675 Z M296 654 C348 654 361 588 361 315 C361 75 348 14 298 14 C245 14 231 85 231 354 C231 591 245 654 296 654 L296 654 Z " />
<glyph glyph-name="one" unicode="1" horiz-adv-x="590" d="M119 22 L119 -2 C203 1 265 2 309 2 C346 2 410 1 488 -2 L488 22 L404 22 L404 673 L351 673 C199 617 119 589 41 564 L50 538 L213 597 L213 22 L119 22 Z " />
<glyph glyph-name="two" unicode="2" horiz-adv-x="590" d="M529 238 C529 166 502 144 417 145 L139 145 C152 214 185 238 335 292 C422 323 446 335 480 359 C525 391 549 439 549 496 C549 614 463 675 295 675 C225 675 160 664 124 647 C70 621 41 575 41 517 C41 458 74 429 140 429 C202 429 234 457 234 510 C234 523 232 541 229 558 C226 576 224 594 224 604 C224 633 244 652 273 652 C322 652 348 608 348 522 C348 412 319 363 202 279 C71 191 31 124 34 -2 C89 -1 104 -1 165 1 C200 2 235 2 244 2 L340 2 C347 2 382 2 418 1 L452 0 C490 -1 506 -1 555 -2 C553 41 552 63 552 102 C552 149 553 180 555 238 L529 238 Z " />
<glyph glyph-name="three" unicode="3" horiz-adv-x="590" d="M204 329 C215 331 229 332 235 332 C305 332 341 278 341 171 C341 69 310 15 253 15 C222 15 204 33 204 63 C204 74 205 89 208 104 C210 122 212 141 212 152 C212 210 177 245 117 245 C54 245 20 211 20 148 C20 44 105 -8 271 -8 C450 -8 543 53 543 169 C543 283 475 335 317 342 C374 347 399 352 433 366 C498 392 532 441 532 509 C532 618 444 675 272 675 C114 675 31 625 31 530 C31 466 62 436 129 436 C189 436 220 465 220 522 C220 536 219 548 217 563 C215 580 214 596 214 606 C214 635 232 654 259 654 C307 654 334 602 334 510 C334 412 296 361 225 361 C219 361 212 361 204 362 L204 329 Z " />
<glyph glyph-name="four" unicode="4" horiz-adv-x="592" d="M193 22 L193 -2 C274 1 331 2 376 2 C409 2 469 1 542 -2 L542 22 L472 22 L472 143 L574 143 L574 255 L472 255 L472 679 L396 679 L2 240 L2 143 L281 143 L281 22 L193 22 Z M288 255 L51 255 L288 520 L288 255 Z " />
<glyph glyph-name="five" unicode="5" horiz-adv-x="591" d="M516 440 C514 486 514 508 514 574 C514 618 514 632 516 669 C424 668 410 667 379 666 C352 665 334 665 327 665 L283 665 C279 665 257 666 153 668 L100 669 L94 604 L86 507 L77 408 L71 340 C113 358 154 366 202 366 C302 366 346 309 346 182 C346 74 317 14 264 14 C238 14 220 31 220 57 C220 66 222 85 226 105 C229 121 231 138 231 151 C231 208 196 239 132 239 C71 239 36 204 36 144 C36 45 120 -8 276 -8 C454 -8 548 62 548 195 C548 329 448 400 257 400 C197 400 158 396 100 382 L113 529 L383 529 C472 528 489 513 487 440 L516 440 Z " />
<glyph glyph-name="six" unicode="6" horiz-adv-x="591" d="M230 388 C230 551 269 654 331 654 C352 654 369 639 369 620 C369 614 366 598 362 579 C359 567 358 556 358 544 C358 486 389 459 453 459 C516 459 550 488 550 543 C550 629 479 675 350 675 C239 675 154 644 107 587 C60 530 32 430 32 317 C32 207 56 122 102 69 C146 18 218 -8 312 -8 C474 -8 568 75 568 218 C568 333 490 410 373 410 C303 410 262 388 232 332 L230 388 Z M306 369 C347 369 368 311 368 199 C368 80 344 15 300 15 C257 15 234 77 234 190 C234 302 261 369 306 369 L306 369 Z " />
<glyph glyph-name="seven" unicode="7" horiz-adv-x="589" d="M77 429 C79 506 105 527 197 524 L465 524 C329 420 161 171 110 0 L328 0 C417 307 462 425 566 624 L566 669 L513 668 C496 668 466 667 429 666 C393 665 354 665 351 665 L259 665 C232 665 227 665 149 667 C111 668 99 668 49 669 C49 651 49 635 50 631 L51 562 C49 464 49 464 49 457 L49 429 L77 429 Z " />
<glyph glyph-name="eight" unicode="8" horiz-adv-x="591" d="M423 395 C458 407 478 416 494 429 C526 455 545 493 545 532 C545 621 457 675 311 675 C142 675 45 604 45 480 C45 401 82 345 162 301 C119 286 102 278 82 264 C49 240 28 197 28 154 C28 52 125 -8 290 -8 C462 -8 566 70 566 201 C566 252 549 298 516 334 C494 357 471 372 423 395 L423 395 Z M370 417 C265 458 229 494 229 557 C229 613 267 655 317 655 C377 655 417 606 417 532 C417 480 405 450 370 417 L370 417 Z M299 239 C348 216 376 176 376 127 C376 64 331 16 271 16 C204 16 162 69 162 152 C162 210 178 249 213 278 L299 239 Z " />
<glyph glyph-name="nine" unicode="9" horiz-adv-x="590" d="M355 338 C357 307 358 280 358 267 C358 201 352 139 340 93 C327 43 295 12 257 12 C230 12 209 30 210 51 C211 63 213 78 217 97 C221 113 223 129 223 144 C223 197 186 229 125 229 C61 229 26 197 26 138 C26 45 108 -9 250 -9 C357 -9 438 22 485 80 C532 139 557 231 557 347 C557 444 538 522 502 576 C458 640 375 675 266 675 C116 675 21 592 21 460 C21 343 100 264 216 264 C281 264 320 285 355 338 L355 338 Z M285 652 C330 652 355 586 355 470 C355 368 326 304 280 304 C235 304 215 359 215 478 C215 590 240 652 285 652 L285 652 Z " />
<glyph glyph-name="colon" unicode="&#x3a;" horiz-adv-x="296" d="M147 189 C82 189 40 150 40 89 C40 27 82 -13 147 -13 C210 -13 253 26 253 85 C253 147 211 189 147 189 L147 189 Z M147 430 C82 430 40 391 40 330 C40 268 82 228 147 228 C210 228 253 267 253 326 C253 388 211 430 147 430 L147 430 Z " />
<glyph glyph-name="semicolon" unicode="&#x3b;" horiz-adv-x="296" d="M147 430 C82 430 40 391 40 330 C40 268 82 228 147 228 C210 228 253 267 253 326 C253 388 211 430 147 430 L147 430 Z M54 -213 C110 -180 138 -155 175 -108 C226 -43 254 25 254 85 C254 146 210 189 147 189 C82 189 41 151 41 91 C41 38 61 12 122 -12 C151 -23 161 -34 161 -53 C161 -94 117 -146 44 -192 L54 -213 Z " />
<glyph glyph-name="equal" unicode="&#x3d;" horiz-adv-x="480" d="M409 178 L33 178 L33 93 L409 93 L409 178 Z M409 328 L34 328 L34 243 L409 243 L409 328 Z " />
<glyph glyph-name="question" unicode="&#x3f;" horiz-adv-x="574" d="M256 215 C255 220 255 228 255 230 C255 282 282 317 344 343 L400 366 C490 404 529 451 529 521 C529 625 442 680 281 680 C124 680 41 628 41 530 C41 468 72 438 137 438 C203 438 232 469 232 539 C232 551 231 561 230 568 C224 605 224 605 224 613 C224 640 241 658 267 658 C306 658 326 621 326 548 C326 492 314 448 290 409 L273 383 C240 333 227 293 227 247 C227 237 227 230 229 215 L256 215 Z M238 189 C173 189 131 150 131 89 C131 27 173 -13 238 -13 C301 -13 344 26 344 85 C344 147 302 189 238 189 L238 189 Z " />
<glyph glyph-name="at" unicode="&#x40;" horiz-adv-x="810" d="M435 404 C274 398 225 373 225 297 C225 239 262 209 333 209 C399 209 427 227 444 280 C444 230 465 211 518 211 C635 211 739 326 739 456 C739 532 706 607 654 648 C590 698 505 727 420 727 C320 727 234 689 167 615 C106 548 69 448 69 348 C69 261 102 172 159 105 C223 30 312 -9 417 -9 C489 -9 549 6 651 49 L637 80 C556 43 504 30 433 30 C249 30 114 167 114 355 C114 553 238 691 416 691 C578 691 702 583 702 443 C702 354 642 260 586 260 C572 260 566 269 566 291 L567 404 C568 451 560 477 540 496 C517 517 453 533 394 533 C304 533 248 505 248 459 C248 429 264 415 299 415 C342 415 364 427 364 450 L364 453 C360 475 360 475 360 478 C360 486 362 497 364 501 C369 509 385 518 397 518 C408 518 421 511 426 501 C432 490 433 486 434 445 L435 404 Z M435 388 C433 369 433 369 433 333 C433 271 419 242 389 242 C367 242 363 254 363 321 C363 369 383 388 435 388 L435 388 Z " />
<glyph glyph-name="A" unicode="A" horiz-adv-x="714" d="M359 673 L322 673 L109 167 C78 93 66 69 36 22 L-1 22 L-1 -2 C33 1 62 2 77 2 C99 2 126 1 165 -2 L165 22 L94 22 C94 46 107 91 134 158 L160 220 L359 220 L451 22 L382 22 L382 -2 C457 1 514 2 551 2 C588 2 645 1 718 -2 L718 22 L670 22 L359 673 Z M171 245 L254 443 L347 245 L171 245 Z " />
<glyph glyph-name="B" unicode="B" horiz-adv-x="664" d="M415 348 C548 357 611 408 611 507 C611 560 585 606 540 631 C492 658 428 668 311 668 C293 668 254 668 199 667 L152 667 C100 667 89 667 12 669 L12 645 L79 645 L79 22 L12 22 L12 -2 C77 -1 87 -1 194 -1 C405 -1 433 -1 473 6 C574 24 630 84 630 174 C630 278 560 332 415 340 L415 348 Z M276 353 L276 645 L296 645 C337 645 359 638 377 621 C399 599 410 558 410 500 C410 394 379 353 298 353 L276 353 Z M276 22 L276 329 L295 329 C337 329 357 325 376 311 C407 289 423 243 423 176 C423 113 410 68 383 44 C364 26 347 22 297 22 L276 22 Z " />
<glyph glyph-name="C" unicode="C" horiz-adv-x="680" d="M624 457 C623 501 622 535 622 557 C622 579 623 612 624 656 L610 656 C596 657 572 660 540 666 C492 675 442 680 394 680 C270 680 168 642 112 576 C64 519 39 437 39 336 C39 224 69 134 127 75 C184 16 275 -13 403 -13 C456 -13 489 -9 551 4 C596 14 604 15 632 17 C630 73 629 122 629 144 C629 178 629 189 630 228 L600 228 C586 83 531 13 430 13 C393 13 356 26 332 49 C274 101 247 193 247 339 C247 467 265 550 306 604 C331 637 376 659 422 659 C485 659 539 623 569 561 C583 530 589 507 594 457 L624 457 Z " />
<glyph glyph-name="D" unicode="D" horiz-adv-x="783" d="M18 645 L86 645 L86 22 L18 22 L18 -2 C70 0 97 0 129 0 L323 -2 C454 -2 523 10 594 46 C693 97 742 192 742 336 C742 461 701 556 625 606 C554 653 481 668 326 668 L161 666 C113 666 92 666 18 669 L18 645 Z M282 22 L282 645 L315 645 C400 645 438 632 473 591 C514 543 534 459 534 329 C534 206 514 123 474 77 C439 37 396 22 313 22 L282 22 Z " />
<glyph glyph-name="E" unicode="E" horiz-adv-x="627" d="M576 486 L575 517 L575 577 L576 644 L576 669 L522 668 C506 668 475 667 438 666 C402 665 364 665 360 665 L227 665 C200 665 193 665 116 667 C78 668 66 668 17 669 L17 645 L85 645 L85 22 L17 22 L17 -2 C72 -1 85 -1 147 1 C183 2 218 2 227 2 L372 2 C379 2 415 2 450 1 L484 0 C522 -1 538 -1 588 -2 C586 60 586 70 586 96 C586 125 586 138 588 191 L559 191 C552 68 502 22 372 22 L280 22 L280 332 L311 332 C405 333 449 296 450 217 L476 217 C474 295 473 337 473 342 C473 349 474 382 475 427 L476 467 L450 467 C447 389 403 354 309 356 L280 356 L280 645 L377 645 C488 648 541 598 546 486 L576 486 Z " />
<glyph glyph-name="F" unicode="F" horiz-adv-x="575" d="M560 477 C559 522 559 547 559 588 C559 624 559 637 560 669 L507 668 C490 668 460 667 423 666 C387 665 348 665 345 665 L224 665 C197 665 191 665 114 667 C74 668 65 668 14 669 L14 645 L84 645 L84 22 L14 22 L14 -2 C93 1 155 2 193 2 C236 2 297 1 380 -2 L380 22 L280 22 L280 322 L311 322 C399 322 432 292 436 209 L463 209 C460 280 459 304 460 320 L462 428 C463 432 463 443 463 458 L436 458 C434 381 396 346 312 345 L280 345 L280 645 L358 645 C474 643 523 596 530 477 L560 477 Z " />
<glyph glyph-name="G" unicode="G" horiz-adv-x="766" d="M684 456 C682 524 682 534 682 560 C682 587 682 608 684 650 C640 652 635 652 583 663 C526 674 470 680 416 680 C168 680 39 563 39 337 C39 227 69 141 130 79 C191 16 277 -13 400 -13 C461 -13 482 -11 593 5 C636 11 658 13 684 13 L702 13 L702 260 L767 260 L767 283 C654 281 632 281 615 281 L484 283 L437 283 L437 260 L511 260 L511 28 C476 15 445 9 413 9 C299 9 247 110 247 335 C247 439 259 502 291 558 C327 623 383 656 459 656 C530 656 589 625 620 571 C638 539 645 514 653 456 L684 456 Z " />
<glyph glyph-name="H" unicode="H" horiz-adv-x="768" d="M280 329 L486 329 L486 22 L419 22 L419 -2 C493 1 548 2 586 2 C620 2 676 1 748 -2 L748 22 L682 22 L682 645 L748 645 L748 669 C675 666 619 665 582 665 C547 665 491 666 419 669 L419 645 L486 645 L486 352 L280 352 L280 645 L345 645 L345 669 C273 666 217 665 180 665 C145 665 89 666 17 669 L17 645 L84 645 L84 22 L17 22 L17 -2 C90 1 146 2 184 2 C218 2 274 1 345 -2 L345 22 L280 22 L280 329 Z " />
<glyph glyph-name="I" unicode="I" horiz-adv-x="355" d="M280 645 L345 645 L345 669 C273 666 217 665 180 665 C145 665 89 666 17 669 L17 645 L84 645 L84 22 L17 22 L17 -2 C90 1 146 2 183 2 C218 2 274 1 345 -2 L345 22 L280 22 L280 645 Z " />
<glyph glyph-name="J" unicode="J" horiz-adv-x="486" d="M4 204 C6 130 7 113 7 99 C7 73 6 53 4 6 C29 6 33 5 67 -1 C116 -10 142 -13 175 -13 C246 -13 304 3 344 34 C386 67 403 111 403 194 L403 645 L468 645 L468 669 C395 666 338 665 302 665 C265 665 209 666 135 669 L135 645 L208 645 L208 133 C208 47 186 10 135 10 C73 10 40 73 33 204 L4 204 Z " />
<glyph glyph-name="K" unicode="K" horiz-adv-x="763" d="M429 458 L531 555 C572 594 606 623 639 645 L701 645 L701 669 C658 666 624 665 602 665 C579 665 546 666 501 669 L501 645 L569 645 C557 625 548 615 501 565 L276 350 L276 645 L343 645 L343 669 C270 666 214 665 178 665 C142 665 87 666 15 669 L15 645 L81 645 L81 22 L15 22 L15 -2 C89 1 143 2 181 2 C216 2 272 1 343 -2 L343 22 L276 22 L276 339 L480 22 L416 22 L416 -2 C493 1 553 2 591 2 C631 2 691 1 770 -2 L770 22 L714 22 L429 458 Z " />
<glyph glyph-name="L" unicode="L" horiz-adv-x="575" d="M537 207 C530 68 482 22 349 22 L276 22 L276 645 L344 645 L344 669 C271 666 215 665 178 665 C143 665 87 666 15 669 L15 645 L81 645 L81 22 L15 22 L15 -2 C70 -1 84 -1 145 1 C182 2 216 2 225 2 L352 2 C359 2 395 2 430 1 L464 0 C502 -1 518 -1 568 -2 C565 29 564 42 564 70 C564 115 565 159 568 207 L537 207 Z " />
<glyph glyph-name="M" unicode="M" horiz-adv-x="927" d="M354 -2 L388 -2 L637 634 L647 22 L578 22 L578 -2 C652 1 709 2 746 2 C782 2 839 1 912 -2 L912 22 L843 22 L834 645 L903 645 L903 669 C837 666 791 665 754 665 C729 665 681 666 623 669 L462 260 L302 669 C243 666 193 665 167 665 C128 665 81 666 12 669 L12 645 L79 645 L73 191 C72 125 66 60 60 22 L-1 22 L-1 -2 C36 1 65 2 83 2 C103 2 131 1 169 -2 L169 22 L111 22 C102 78 99 108 99 169 L99 191 L105 645 L354 -2 Z " />
<glyph glyph-name="N" unicode="N" horiz-adv-x="731" d="M590 -7 L655 -7 L655 477 C656 542 660 599 669 645 L730 645 L730 669 C691 666 660 665 642 665 C620 665 590 666 549 669 L549 645 L614 645 C622 605 626 557 628 477 L628 266 L304 669 C246 666 195 665 172 665 C126 665 80 666 7 669 L7 645 L74 645 L74 192 C73 121 69 69 61 22 L0 22 L0 -2 C39 1 69 2 88 2 C108 2 137 1 176 -2 L176 22 L115 22 C105 83 101 125 101 192 L101 610 L590 -7 Z " />
<glyph glyph-name="O" unicode="O" horiz-adv-x="802" d="M396 684 C294 684 211 659 148 609 C73 550 37 461 37 333 C37 108 166 -17 399 -17 C632 -17 760 105 760 328 C760 562 635 684 396 684 L396 684 Z M395 662 C455 662 506 622 527 558 C545 502 554 428 554 334 C554 255 545 176 531 122 C511 49 462 6 398 6 C291 6 243 106 243 327 C243 445 256 535 281 584 C307 635 346 662 395 662 L395 662 Z " />
<glyph glyph-name="P" unicode="P" horiz-adv-x="643" d="M272 298 L344 298 C528 298 623 362 623 487 C623 551 593 605 543 633 C495 659 442 668 336 668 L145 666 C93 666 75 666 9 669 L9 645 L77 645 L77 22 L9 22 L9 -2 C87 1 148 2 186 2 C227 2 287 1 367 -2 L367 22 L272 22 L272 298 Z M272 322 L272 645 L293 645 C342 645 369 636 388 614 C411 587 421 547 421 482 C421 364 389 322 302 322 L272 322 Z " />
<glyph glyph-name="Q" unicode="Q" horiz-adv-x="801" d="M706 -188 L686 -188 C633 -188 606 -169 564 -104 L506 -8 C580 10 619 28 659 64 C725 123 760 213 760 326 C760 433 729 528 674 584 C613 647 509 684 392 684 C290 684 204 657 142 604 C73 546 38 457 38 337 C38 232 63 152 114 93 C162 36 220 6 319 -12 L384 -116 C434 -196 464 -211 572 -211 L706 -211 L706 -188 Z M397 662 C450 662 498 628 520 575 C544 518 554 447 554 332 C554 108 506 6 399 6 C291 6 243 106 243 334 C243 434 253 513 273 569 C294 626 341 662 397 662 L397 662 Z " />
<glyph glyph-name="R" unicode="R" horiz-adv-x="696" d="M703 22 C636 20 632 25 620 115 C609 226 607 233 594 257 C571 302 517 324 434 324 L403 324 L403 335 C544 345 615 400 615 499 C615 554 585 606 539 632 C493 658 442 667 342 667 L171 666 C165 666 112 667 14 669 L14 645 L78 645 L78 22 L14 22 L14 -2 C88 1 143 2 181 2 C216 2 273 1 344 -2 L344 22 L274 22 L274 311 L306 311 C397 307 409 288 422 131 C427 70 432 42 448 -2 C512 1 551 2 591 2 C610 2 654 1 703 -2 L703 22 Z M274 335 L274 645 L300 645 C383 645 413 604 413 491 C413 434 406 400 389 374 C372 350 340 335 306 335 L274 335 Z " />
<glyph glyph-name="S" unicode="S" horiz-adv-x="591" d="M40 211 C41 170 42 140 42 117 C42 96 41 60 40 15 C66 14 73 13 112 6 C183 -9 225 -14 273 -14 C455 -14 565 69 565 207 C565 304 505 372 379 417 L326 436 C240 466 208 498 208 552 C208 615 259 659 333 659 C395 659 445 632 475 582 C494 549 501 523 505 468 L536 468 C535 512 535 551 535 570 L535 655 C500 657 485 658 454 664 C366 680 351 682 303 682 C138 682 36 603 36 475 C36 381 91 313 200 273 L264 249 C354 216 389 180 389 123 C389 55 335 9 256 9 C144 9 83 76 70 211 L40 211 Z " />
<glyph glyph-name="T" unicode="T" horiz-adv-x="645" d="M41 461 C42 524 48 554 63 582 C88 624 132 646 196 646 C201 646 212 646 223 645 L223 22 L156 22 L156 -2 C230 1 286 2 324 2 C359 2 415 1 487 -2 L487 22 L418 22 L418 645 C429 646 436 646 443 646 C489 646 532 629 556 603 C582 573 593 535 594 461 L627 461 C625 507 625 542 625 565 C625 588 625 623 627 669 L573 668 C557 668 526 667 489 666 C453 665 415 665 411 665 L220 665 C192 665 188 665 110 667 C72 668 60 668 10 669 C11 623 12 588 12 564 C12 542 11 507 10 461 L41 461 Z " />
<glyph glyph-name="U" unicode="U" horiz-adv-x="714" d="M717 669 C676 666 644 665 624 665 C603 665 571 666 529 669 L529 645 L598 645 C606 599 610 547 611 492 L611 263 C611 107 543 15 429 15 C376 15 326 40 304 78 C284 112 277 153 277 234 L277 645 L343 645 L343 669 C270 666 214 665 177 665 C141 665 86 666 13 669 L13 645 L81 645 L81 285 C81 188 96 130 135 80 C182 20 266 -13 372 -13 C552 -13 640 77 640 263 L640 492 C640 558 644 603 651 645 L717 645 L717 669 Z " />
<glyph glyph-name="V" unicode="V" horiz-adv-x="698" d="M332 -7 L368 -7 L581 499 C618 585 635 619 656 645 L699 645 L699 669 C663 666 633 665 616 665 C595 665 566 666 526 669 L526 645 L598 645 C597 623 583 578 555 507 L440 231 L265 645 L332 645 L332 669 C258 666 202 665 165 665 C128 665 71 666 -3 669 L-3 645 L52 645 L332 -7 Z " />
<glyph glyph-name="W" unicode="W" horiz-adv-x="1078" d="M536 425 L711 -7 L754 -7 L945 468 C978 548 1006 604 1032 645 L1077 645 L1077 669 C1038 666 1005 665 988 665 C963 665 932 666 887 669 L887 645 L971 645 C964 600 950 555 919 474 L824 233 L645 673 L607 673 L432 233 L264 645 L335 645 L335 669 C261 666 203 665 167 665 C129 665 72 666 -2 669 L-2 645 L53 645 L320 -7 L362 -7 L536 425 Z " />
<glyph glyph-name="X" unicode="X" horiz-adv-x="715" d="M24 645 L80 645 L273 306 L139 123 C101 72 81 50 52 22 L2 22 L2 -2 C41 1 74 2 92 2 C115 2 146 1 190 -2 L190 22 L117 22 C131 58 147 86 190 149 L286 280 L431 22 L358 22 L358 -2 C435 1 496 2 534 2 C575 2 635 1 714 -2 L714 22 L658 22 L444 400 L548 543 C581 586 611 620 638 645 L688 645 L688 669 C650 666 618 665 601 665 C577 665 546 666 503 669 L503 645 L574 645 C563 616 555 603 511 537 L431 425 L304 645 L378 645 L378 669 C302 666 241 665 204 665 C163 665 104 666 24 669 L24 645 Z " />
<glyph glyph-name="Y" unicode="Y" horiz-adv-x="661" d="M427 303 L538 513 C575 582 593 610 621 645 L663 645 L663 669 C626 666 594 665 578 665 C552 665 522 666 478 669 L478 645 L565 645 C556 615 546 588 528 552 L427 353 L273 645 L352 645 L352 669 C275 666 215 665 178 665 C137 665 77 666 -2 669 L-2 645 L52 645 L232 303 L232 22 L164 22 L164 -2 C238 1 294 2 332 2 C368 2 424 1 496 -2 L496 22 L427 22 L427 303 Z " />
<glyph glyph-name="Z" unicode="Z" horiz-adv-x="593" d="M14 -2 C69 -1 84 -1 145 1 C180 2 215 2 224 2 L359 2 C365 2 401 2 437 1 L470 0 C508 -1 525 -1 574 -2 C572 59 572 71 572 95 C572 117 572 130 574 193 L544 193 C541 62 483 18 323 22 L229 22 L564 645 L564 669 L511 668 C495 668 464 667 427 666 C391 665 352 665 349 665 L234 665 C207 665 202 665 124 667 C86 668 74 668 24 669 C25 632 25 577 25 573 C25 547 25 540 24 488 L53 488 C58 596 114 645 229 645 L348 645 L14 22 L14 -2 Z " />
<glyph glyph-name="bracketleft" unicode="&#x5b;" horiz-adv-x="364" d="M264 698 L335 698 L335 722 C250 720 232 720 202 720 C169 720 143 721 85 722 L85 -215 C102 -216 110 -216 116 -216 L213 -214 C232 -214 251 -214 299 -215 L335 -215 L335 -192 L264 -192 L264 698 Z " />
<glyph glyph-name="bracketright" unicode="&#x5d;" horiz-adv-x="364" d="M102 -191 L31 -191 L31 -215 C116 -213 134 -213 164 -213 C197 -213 223 -214 281 -215 L281 722 C264 723 256 723 250 723 L153 721 C134 721 115 721 67 722 L31 722 L31 699 L102 699 L102 -191 Z " />
<glyph glyph-name="grave" unicode="&#x60;" horiz-adv-x="391" d="M311 452 L325 468 L293 538 C277 574 255 605 229 632 C200 661 172 673 135 673 C94 673 67 652 67 621 C67 594 89 573 153 538 L311 452 Z " />
<glyph glyph-name="a" unicode="a" horiz-adv-x="558" d="M314 256 C243 253 199 249 164 243 C67 225 25 185 25 111 C25 33 82 -13 180 -13 C226 -13 265 -1 290 20 C308 36 317 53 328 92 C327 54 327 42 327 32 L327 -2 C379 1 413 2 445 2 C462 2 499 1 542 -2 L542 18 L496 18 L496 256 C496 323 486 358 459 384 C426 416 358 433 267 433 C131 433 56 397 56 332 C56 292 85 271 139 271 C189 271 215 289 215 323 C215 330 214 340 213 351 C212 358 211 365 211 370 C211 396 229 412 257 412 C300 412 314 388 314 315 L314 256 Z M314 233 C314 160 312 111 308 93 C299 54 280 32 255 32 C227 32 215 57 215 119 C215 158 220 185 231 202 C247 226 265 233 314 233 L314 233 Z " />
<glyph glyph-name="b" unicode="b" horiz-adv-x="591" d="M237 669 C186 666 147 665 121 665 C96 665 57 666 6 669 L6 648 L56 648 L56 18 L6 18 L6 -2 C61 1 98 2 129 2 C150 2 190 1 237 -2 L237 26 C237 44 235 59 230 91 C258 19 300 -10 376 -10 C494 -10 562 70 562 208 C562 350 494 430 373 430 C330 430 295 419 268 397 C248 381 240 367 230 333 C237 399 237 400 237 457 L237 669 Z M316 398 C356 396 372 343 372 217 C372 77 357 25 317 25 C289 25 266 47 249 90 C238 118 233 157 233 221 C233 271 237 302 248 333 C261 373 289 399 316 398 L316 398 Z " />
<glyph glyph-name="c" unicode="c" horiz-adv-x="488" d="M458 116 C428 48 383 14 323 14 C288 14 255 35 241 67 C225 102 218 148 218 221 C218 347 239 413 280 413 C299 413 312 400 312 381 C312 372 310 358 307 344 C304 328 302 312 302 302 C302 258 334 234 392 234 C452 234 480 258 480 308 C480 387 406 430 273 430 C111 430 27 355 27 212 C27 68 112 -10 270 -10 C337 -10 393 6 431 37 C453 55 464 71 478 107 L458 116 Z " />
<glyph glyph-name="d" unicode="d" horiz-adv-x="591" d="M351 -5 C405 0 442 2 473 2 C494 2 533 -1 580 -5 L580 18 L531 18 L531 669 C480 666 440 665 415 665 C389 665 350 666 298 669 L298 648 L351 648 L351 458 C352 383 353 377 357 342 C343 376 333 391 311 406 C285 424 251 434 213 434 C94 434 26 353 26 214 C26 72 95 -10 213 -10 C258 -10 298 4 323 28 C336 41 343 53 357 83 C352 55 351 44 351 23 L351 -5 Z M273 399 C294 399 315 384 329 359 C349 322 356 280 356 204 C356 135 348 94 328 61 C312 36 295 24 275 24 C233 24 217 76 217 219 C217 352 232 399 273 399 L273 399 Z " />
<glyph glyph-name="e" unicode="e" horiz-adv-x="540" d="M515 214 C513 277 504 311 477 347 C438 403 366 433 271 433 C194 433 129 413 91 379 C49 341 25 280 25 211 C25 138 47 81 89 45 C133 8 203 -13 280 -13 C350 -13 414 5 452 36 C475 55 489 73 506 108 L484 119 C453 50 395 12 321 12 C243 12 213 60 213 183 L213 214 L515 214 Z M325 236 L214 236 L214 255 C214 302 221 360 228 379 C237 403 251 414 271 414 C309 414 324 372 325 266 L325 254 L325 236 Z " />
<glyph glyph-name="f" unicode="f" horiz-adv-x="381" d="M54 393 L54 18 L3 18 L3 -2 C68 1 120 2 151 2 C188 2 238 1 308 -2 L308 18 L235 18 L235 393 L321 393 L321 414 L235 414 L235 452 C235 480 232 507 224 553 C220 573 218 590 218 603 C218 635 236 660 260 660 C277 660 289 648 289 631 C289 620 287 607 284 592 C281 577 279 559 279 549 C279 508 306 484 351 484 C401 484 426 511 426 562 C426 640 368 680 254 680 C115 680 54 625 54 498 L54 414 L-11 414 L-11 393 L54 393 Z " />
<glyph glyph-name="g" unicode="g" horiz-adv-x="540" d="M522 421 L345 421 C306 428 286 430 252 430 C186 430 140 420 101 397 C62 372 37 327 37 279 C37 213 71 169 141 145 C81 114 56 81 56 32 C56 3 64 -17 85 -41 C29 -63 7 -85 7 -121 C7 -192 85 -229 231 -229 C424 -229 528 -173 528 -68 C528 -17 498 25 450 40 C421 49 377 55 326 57 L245 61 C160 65 138 73 138 102 C138 119 148 129 172 138 C202 132 226 130 265 130 C325 130 375 138 406 152 C456 176 483 221 483 279 C483 325 468 355 431 383 L522 383 L522 421 Z M260 411 C301 411 316 374 316 277 C316 190 298 150 261 150 C221 150 204 187 204 271 C204 369 221 411 260 411 L260 411 Z M325 -87 C406 -89 435 -101 435 -131 C435 -173 360 -202 256 -202 C151 -202 84 -162 84 -100 C84 -79 89 -67 103 -57 C141 -77 159 -81 235 -84 L325 -87 Z " />
<glyph glyph-name="h" unicode="h" horiz-adv-x="595" d="M240 669 C189 666 149 665 124 665 C98 665 59 666 8 669 L8 648 L57 648 L57 18 L8 18 L8 -2 C69 1 116 2 147 2 C178 2 225 1 286 -2 L286 18 L240 18 L240 236 C240 338 266 393 314 393 C344 393 355 367 355 293 L355 18 L310 18 L310 -2 C371 1 419 2 449 2 C480 2 528 1 589 -2 L589 18 L539 18 L539 247 C539 316 533 343 513 373 C488 410 441 430 379 430 C333 430 296 419 271 400 C253 385 243 369 228 331 C237 383 240 413 240 469 L240 669 Z " />
<glyph glyph-name="i" unicode="i" horiz-adv-x="314" d="M247 422 C195 419 156 418 129 418 C104 418 65 419 14 422 L14 402 L66 402 L66 18 L14 18 L14 -2 C76 1 123 2 154 2 C185 2 233 1 296 -2 L296 18 L247 18 L247 422 Z M155 675 C90 675 48 637 48 578 C48 519 90 484 161 484 C226 484 265 519 265 576 C265 639 225 675 155 675 L155 675 Z " />
<glyph glyph-name="j" unicode="j" horiz-adv-x="435" d="M373 422 C321 419 282 418 255 418 C230 418 191 419 140 422 L140 402 L191 402 L191 32 C191 -2 196 -75 199 -93 C204 -128 207 -157 207 -169 C207 -197 187 -220 164 -220 C147 -220 136 -210 136 -194 C136 -187 138 -169 143 -144 C146 -129 147 -115 147 -104 C147 -65 122 -43 80 -43 C30 -43 3 -70 3 -121 C3 -200 59 -240 168 -240 C243 -240 299 -223 331 -191 C363 -158 373 -121 373 -26 L373 422 Z M280 675 C215 675 173 637 173 578 C173 519 215 484 286 484 C351 484 390 519 390 576 C390 639 350 675 280 675 L280 675 Z " />
<glyph glyph-name="k" unicode="k" horiz-adv-x="592" d="M392 332 L420 354 C457 384 459 385 498 402 L550 402 L550 422 C509 419 477 418 457 418 C435 418 403 419 360 422 L360 402 L428 402 C413 378 410 375 385 354 L243 233 L243 669 C192 666 153 665 127 665 C101 665 62 666 11 669 L11 648 L62 648 L62 18 L11 18 L11 -2 C73 1 121 2 151 2 C184 2 232 1 295 -2 L295 18 L243 18 L243 225 L360 -2 C412 1 452 2 478 2 C503 2 543 1 595 -2 L595 18 L558 18 L392 332 Z " />
<glyph glyph-name="l" unicode="l" horiz-adv-x="314" d="M247 669 C196 666 157 665 131 665 C105 665 66 666 15 669 L15 648 L65 648 L65 18 L15 18 L15 -2 C77 1 125 2 155 2 C187 2 235 1 298 -2 L298 18 L247 18 L247 669 Z " />
<glyph glyph-name="m" unicode="m" horiz-adv-x="872" d="M230 422 C180 419 144 418 117 418 C96 418 59 419 13 422 L13 402 L63 402 L63 18 L13 18 L13 -2 C73 1 119 2 149 2 C178 2 224 1 284 -2 L284 18 L243 18 L243 234 C243 300 249 339 265 364 C277 384 294 395 310 395 C340 395 348 374 348 293 L348 18 L307 18 L307 -2 C366 1 410 2 441 2 C468 2 513 1 570 -2 L570 18 L528 18 L528 234 C528 277 532 312 540 339 C549 370 574 394 598 394 C610 394 622 386 626 375 C632 363 633 347 633 286 L633 18 L592 18 L592 -2 C652 1 698 2 729 2 C758 2 804 1 864 -2 L864 18 L812 18 L812 281 C812 336 804 364 781 388 C756 415 712 430 660 430 C618 430 585 421 560 402 C537 385 526 367 516 329 C512 362 505 377 487 393 C460 417 421 430 374 430 C334 430 300 420 273 402 C252 386 241 368 230 329 L230 422 Z " />
<glyph glyph-name="n" unicode="n" horiz-adv-x="596" d="M226 422 C176 419 140 418 113 418 C92 418 55 419 9 422 L9 402 L58 402 L58 18 L9 18 L9 -2 C70 1 117 2 147 2 C178 2 225 1 286 -2 L286 18 L241 18 L241 230 C241 288 246 324 259 352 C270 377 293 394 314 394 C326 394 339 387 344 377 C352 364 355 340 355 293 L355 18 L310 18 L310 -2 C371 1 418 2 449 2 C480 2 527 1 589 -2 L589 18 L538 18 L538 269 C538 325 530 356 508 382 C480 413 435 430 378 430 C333 430 298 420 272 399 C248 379 236 356 226 305 L226 422 Z " />
<glyph glyph-name="o" unicode="o" horiz-adv-x="574" d="M288 433 C119 433 28 355 28 210 C28 67 120 -13 285 -13 C447 -13 542 68 542 207 C542 351 450 433 288 433 L288 433 Z M284 413 C332 413 351 356 351 205 C351 63 332 7 285 7 C238 7 218 68 218 216 C218 288 224 348 233 372 C243 399 261 413 284 413 L284 413 Z " />
<glyph glyph-name="p" unicode="p" horiz-adv-x="593" d="M10 402 L60 402 L60 -208 L10 -208 L10 -228 C73 -226 121 -225 153 -225 C184 -225 232 -226 294 -228 L294 -208 L240 -208 L240 -34 C240 16 239 28 234 79 C247 45 257 32 281 16 C309 -1 340 -10 377 -10 C496 -10 565 70 565 208 C565 348 496 430 378 430 C341 430 307 421 282 404 C261 390 249 373 231 335 C240 375 240 378 240 422 C188 419 150 418 123 418 C99 418 60 419 10 422 L10 402 Z M317 396 C359 396 374 342 374 196 C374 73 358 22 320 22 C299 22 281 34 265 58 C246 87 235 142 235 215 C235 297 247 345 277 377 C289 389 304 396 317 396 L317 396 Z " />
<glyph glyph-name="q" unicode="q" horiz-adv-x="591" d="M533 402 L580 402 L580 422 C529 419 491 418 464 418 C440 418 401 419 352 422 L352 394 C352 376 353 364 358 334 C342 370 331 385 315 398 C290 418 251 430 211 430 C93 430 26 348 26 207 C26 64 94 -15 218 -15 C257 -15 285 -7 312 13 C336 30 345 44 358 81 C353 36 352 17 352 -18 L352 -208 L302 -208 L302 -228 C364 -226 411 -225 443 -225 C473 -225 520 -226 580 -228 L580 -208 L533 -208 L533 402 Z M271 395 C293 395 313 380 330 351 C348 320 356 275 356 206 C356 124 343 71 315 40 C304 28 288 21 274 21 C233 21 217 73 217 209 C217 339 233 395 271 395 L271 395 Z " />
<glyph glyph-name="r" unicode="r" horiz-adv-x="487" d="M232 422 C187 419 149 418 130 418 C100 418 65 419 13 422 L13 402 L62 402 L62 18 L13 18 L13 -2 C77 1 129 2 159 2 C195 2 246 1 314 -2 L314 18 L245 18 L245 233 C245 327 268 387 305 387 C316 387 326 377 326 366 C326 358 325 350 323 339 C321 329 320 318 320 308 C320 264 347 240 399 240 C453 240 480 268 480 326 C480 391 438 430 369 430 C325 430 286 414 263 386 C247 367 240 349 232 307 L232 344 L232 371 L232 422 Z " />
<glyph glyph-name="s" unicode="s" horiz-adv-x="435" d="M18 143 L19 79 L17 30 L17 9 C43 9 50 8 94 0 C141 -9 174 -13 212 -13 C339 -13 414 45 414 142 C414 217 371 262 274 288 L226 301 C175 315 154 331 154 358 C154 389 188 410 238 410 C279 410 315 397 339 372 C360 351 369 330 371 291 L395 291 L395 309 L394 356 C394 366 394 366 395 412 C384 413 373 414 369 414 C367 415 350 418 325 422 C289 429 247 433 214 433 C92 433 16 374 16 280 C16 240 31 206 61 180 C83 161 98 154 154 139 L203 126 C240 116 244 115 255 107 C268 98 275 83 275 68 C275 32 243 12 187 12 C94 12 46 55 41 143 L18 143 Z " />
<glyph glyph-name="t" unicode="t" horiz-adv-x="349" d="M237 568 L211 568 C202 468 134 421 -1 420 L-1 400 L55 400 L55 156 C55 91 61 62 82 36 C106 6 149 -10 204 -10 C292 -10 340 29 351 109 L332 109 C323 56 303 29 273 29 C248 29 237 50 237 98 L237 400 L343 400 L343 420 L237 420 L237 568 Z " />
<glyph glyph-name="u" unicode="u" horiz-adv-x="593" d="M527 422 C475 419 436 418 409 418 C384 418 345 419 294 422 L294 402 L344 402 L344 174 C344 77 321 27 277 27 C249 27 240 48 240 116 L240 422 C188 419 149 418 122 418 C97 418 58 419 7 422 L7 402 L59 402 L59 166 C59 101 66 70 87 42 C112 9 157 -10 213 -10 C289 -10 333 19 355 85 L355 30 L355 -2 C403 1 441 2 464 2 C490 2 528 1 578 -2 L578 18 L527 18 L527 422 Z " />
<glyph glyph-name="v" unicode="v" horiz-adv-x="486" d="M213 -7 L270 -7 L398 282 C420 331 434 359 460 402 L490 402 L490 422 C462 419 438 418 426 418 C408 418 386 419 353 422 L353 402 L413 402 C402 363 383 304 376 289 L327 177 L225 402 L284 402 L284 422 C220 419 171 418 138 418 C107 418 58 419 -5 422 L-5 402 L24 402 L213 -7 Z " />
<glyph glyph-name="w" unicode="w" horiz-adv-x="768" d="M213 -7 L275 -7 L379 242 L484 -7 L550 -7 L659 261 C685 323 704 360 730 402 L769 402 L769 422 C740 420 715 418 703 418 C682 418 659 419 624 422 L624 402 L682 402 C679 376 672 354 648 290 L601 170 L496 422 L429 422 L330 176 L237 402 L297 402 L297 422 C231 419 181 418 147 418 C115 418 64 419 0 422 L0 402 L42 402 L213 -7 Z " />
<glyph glyph-name="x" unicode="x" horiz-adv-x="521" d="M332 268 L368 314 C404 358 423 378 453 402 L497 402 L497 422 C463 419 437 418 420 418 C402 418 376 419 341 422 L341 402 L398 402 C387 376 375 357 352 326 L321 286 L252 402 L298 402 L298 422 C237 419 186 418 159 418 C119 418 71 419 1 422 L1 402 L40 402 L180 171 L134 114 C99 72 73 45 40 18 L1 18 L1 -2 C34 1 60 2 76 2 C95 2 120 1 155 -2 L155 18 L101 18 C111 44 123 62 155 106 L191 153 L273 18 L227 18 L227 -2 C290 1 340 2 370 2 C405 2 454 1 520 -2 L520 18 L487 18 L332 268 Z " />
<glyph glyph-name="y" unicode="y" horiz-adv-x="487" d="M231 -42 L221 -66 C211 -87 195 -102 181 -102 C171 -102 159 -100 148 -95 C111 -82 104 -80 84 -80 C35 -80 2 -110 2 -156 C2 -202 38 -234 90 -234 C119 -234 147 -224 168 -206 C185 -192 193 -179 210 -141 L392 271 C418 329 435 363 460 402 L491 402 L491 422 C462 419 439 418 425 418 C408 418 385 419 354 422 L354 402 L409 402 C401 359 386 311 365 263 L328 178 L227 402 L283 402 L283 422 C220 419 171 418 140 418 C108 418 59 419 -5 422 L-5 402 L25 402 L231 -42 Z " />
<glyph glyph-name="z" unicode="z" horiz-adv-x="435" d="M407 422 C314 421 298 420 269 419 L225 418 L194 418 C180 419 152 419 70 421 L17 422 C20 364 20 354 20 343 C20 330 20 319 17 274 L43 274 C46 364 82 399 169 397 L210 397 L17 20 L17 -2 C103 -1 108 -1 148 1 L200 2 L230 2 C238 2 263 1 365 -1 L419 -2 C418 47 418 55 418 70 L418 92 L418 125 L419 148 L394 148 C385 48 351 18 249 20 L210 20 L407 397 L407 422 Z " />
<glyph glyph-name="uni00A0" unicode="&#xa0;" horiz-adv-x="250" d="" />
<glyph glyph-name="exclamdown" unicode="&#xa1;" horiz-adv-x="399" d="M182 195 C183 191 183 186 183 185 C183 149 176 116 159 78 C125 -3 125 -3 119 -20 C102 -67 93 -112 93 -150 C93 -226 128 -264 199 -264 C272 -264 307 -227 307 -148 C307 -104 296 -58 269 5 C260 28 250 51 240 74 C230 99 223 121 221 131 C219 141 218 163 217 195 L182 195 Z M200 430 C137 430 94 391 94 332 C94 270 136 228 200 228 C264 228 306 267 306 328 C306 390 264 430 200 430 L200 430 Z " />
<glyph glyph-name="cent" unicode="&#xa2;" horiz-adv-x="590" d="M305 37 L339 37 L339 149 C437 153 507 197 528 269 L509 278 C497 252 491 241 479 227 C453 196 414 176 380 176 C372 176 357 179 339 183 L339 573 C356 567 361 559 361 542 C361 533 360 523 359 514 C355 493 353 471 353 463 C353 419 384 396 442 396 C501 396 530 421 530 472 C530 521 499 559 445 578 C414 589 391 593 339 594 L339 705 L305 705 L305 595 C232 589 196 579 157 553 C107 519 78 455 78 374 C78 277 114 209 185 176 C220 159 248 153 305 148 L305 37 Z M305 208 C277 253 269 290 269 383 C269 429 272 469 279 505 C285 533 290 544 305 564 L305 208 Z " />
<glyph glyph-name="sterling" unicode="&#xa3;" horiz-adv-x="594" d="M-1 -2 C55 -1 68 -1 130 1 C166 2 200 2 209 2 L368 2 C374 2 410 2 446 1 L479 0 C517 -1 534 -1 583 -2 C580 41 580 59 580 117 C580 177 580 194 583 237 L556 237 C555 159 538 146 440 145 L183 145 C259 176 299 244 304 353 L455 353 L455 377 L304 377 L304 517 C304 610 326 656 371 656 C393 656 407 640 407 616 C407 610 405 593 401 574 C398 561 397 547 397 535 C397 480 430 452 494 452 C555 452 587 482 587 539 C587 630 517 680 387 680 C202 680 114 592 114 405 L114 377 L7 377 L7 353 L114 353 L114 291 C116 93 82 15 -1 22 L-1 -2 Z " />
<glyph glyph-name="currency" unicode="&#xa4;" horiz-adv-x="430" d="M224 359 C260 359 288 326 288 283 C288 238 261 205 225 205 C187 205 160 237 160 282 C160 327 187 359 224 359 L224 359 Z M118 455 L43 380 L84 343 C72 314 69 301 69 281 C69 259 73 244 88 213 L42 171 L116 97 L163 149 C190 140 203 138 225 138 C246 138 257 140 281 147 L324 100 L399 174 L361 208 C378 239 382 253 382 277 C382 301 378 316 364 348 L401 382 L327 456 L289 413 C263 423 250 425 230 425 C206 425 191 422 158 411 L118 455 Z " />
<glyph glyph-name="yen" unicode="&#xa5;" horiz-adv-x="662" d="M429 308 L498 432 L634 432 L634 457 L511 457 L540 513 C578 584 589 601 622 645 L666 645 L666 669 C628 666 596 665 580 665 C554 665 524 666 479 669 L479 645 L565 645 C559 617 550 593 531 552 L429 354 L274 645 L354 645 L354 669 C278 666 217 665 180 665 C139 665 79 666 0 669 L0 645 L54 645 L152 457 L27 457 L27 432 L166 432 L233 308 L89 308 L89 282 L233 282 L233 22 L166 22 L166 -2 C240 1 296 2 334 2 C369 2 425 1 498 -2 L498 22 L429 22 L429 282 L581 282 L581 308 L429 308 Z " />
<glyph glyph-name="section" unicode="&#xa7;" horiz-adv-x="590" d="M331 -64 C374 -93 394 -119 394 -149 C394 -186 361 -210 312 -210 C270 -210 241 -191 241 -163 C241 -156 243 -144 247 -131 C250 -117 252 -105 252 -95 C252 -55 215 -31 154 -31 C92 -31 60 -57 60 -106 C60 -185 143 -233 282 -233 C423 -233 508 -168 508 -59 C508 -2 487 38 434 79 C463 94 479 103 493 116 C526 146 544 187 544 231 C544 293 508 348 436 396 L263 512 C217 543 201 564 201 595 C201 631 239 659 289 659 C325 659 351 643 351 621 C351 614 349 601 346 588 C342 574 340 559 340 550 C340 506 375 481 435 481 C496 481 527 506 527 556 C527 632 444 681 316 681 C177 681 93 613 93 501 C93 443 113 405 165 363 C135 351 120 343 105 330 C70 300 49 256 49 210 C49 151 80 103 149 58 L331 -64 Z M220 223 C171 256 153 278 153 307 C153 329 162 343 184 352 L373 228 C420 198 443 168 443 138 C443 118 435 105 417 95 L220 223 Z " />
<glyph glyph-name="dieresis" unicode="&#xa8;" horiz-adv-x="546" d="M150 621 C98 621 67 592 67 543 C67 496 100 466 152 466 C200 466 233 497 233 542 C233 589 200 621 150 621 L150 621 Z M397 621 C345 621 314 592 314 543 C314 496 346 466 398 466 C446 466 479 497 479 542 C479 589 446 621 397 621 L397 621 Z " />
<glyph glyph-name="copyright" unicode="&#xa9;" horiz-adv-x="826" d="M411 751 C194 751 20 579 20 363 C20 149 194 -24 408 -24 C619 -24 796 150 796 357 C796 577 625 751 411 751 L411 751 Z M562 436 C561 465 561 488 561 502 C561 517 561 538 562 567 L553 567 C544 567 528 570 507 574 C475 580 443 583 410 583 C256 583 176 505 176 355 C176 282 196 222 234 183 C272 144 332 125 417 125 C451 125 473 128 514 137 C544 143 549 144 568 145 C566 182 565 212 565 229 C565 243 565 260 566 285 L546 285 C537 188 501 142 434 142 C355 142 313 217 313 357 C313 500 351 569 429 569 C493 569 534 522 543 436 L562 436 Z M408 691 C586 691 736 544 736 369 C736 184 591 36 411 36 C227 36 80 181 80 364 C80 545 226 691 408 691 L408 691 Z " />
<glyph glyph-name="ordfeminine" unicode="&#xaa;" horiz-adv-x="430" d="M70 374 C128 413 160 442 196 492 C236 548 260 610 260 660 C260 720 215 764 152 764 C95 764 55 726 55 671 C55 622 77 593 136 565 C159 554 167 544 167 527 C167 487 124 434 59 395 L70 374 Z " />
<glyph glyph-name="guillemotleft" unicode="&#xab;" horiz-adv-x="538" d="M490 -8 L508 2 L440 207 L508 416 L490 426 L248 207 L490 -8 Z M263 -8 L281 2 L213 207 L281 416 L263 426 L21 207 L263 -8 Z " />
<glyph glyph-name="uni00AD" unicode="&#xad;" horiz-adv-x="249" d="M0 272 L0 203 L249 203 L249 272 L0 272 Z " />
<glyph glyph-name="registered" unicode="&#xae;" horiz-adv-x="826" d="M411 751 C194 751 20 579 20 363 C20 149 194 -24 408 -24 C619 -24 796 150 796 357 C796 577 625 751 411 751 L411 751 Z M408 691 C586 691 736 544 736 369 C736 184 591 36 411 36 C227 36 80 181 80 364 C80 545 226 691 408 691 L408 691 Z M630 164 C584 162 583 164 574 262 C567 331 538 355 461 355 C458 355 449 355 441 354 L441 361 C531 368 575 402 575 465 C575 499 556 532 527 548 C499 564 466 570 403 570 L265 570 C240 571 236 571 197 572 L197 557 L237 557 L237 164 L197 164 L197 149 C243 150 278 151 302 151 C324 151 359 150 404 149 L404 164 L360 164 L360 346 L380 346 C437 344 445 332 453 233 C456 195 460 177 470 149 C510 151 534 152 559 152 C572 152 599 151 630 149 L630 164 Z M360 361 L360 557 L376 557 C429 557 448 531 448 460 C448 392 427 361 380 361 L360 361 Z " />
<glyph glyph-name="macron" unicode="&#xaf;" horiz-adv-x="480" d="M67 585 L67 516 L414 516 L414 585 L67 585 Z " />
<glyph glyph-name="degree" unicode="&#xb0;" horiz-adv-x="588" d="M290 0 L365 0 L394 207 L500 207 L510 280 L405 280 L425 428 L531 428 L541 501 L436 501 L465 708 L390 708 L361 501 L246 501 L275 708 L200 708 L171 501 L65 501 L55 428 L160 428 L140 280 L34 280 L24 207 L129 207 L100 0 L175 0 L204 207 L319 207 L290 0 Z M330 280 L215 280 L235 428 L350 428 L330 280 Z " />
<glyph glyph-name="plusminus" unicode="&#xb1;" horiz-adv-x="480" d="M409 138 L33 138 L33 53 L409 53 L409 138 Z M180 415 L33 415 L33 330 L180 330 L180 182 L264 182 L264 330 L409 330 L409 415 L264 415 L264 563 L180 563 L180 415 Z " />
<glyph glyph-name="twosuperior" unicode="&#xb2;" horiz-adv-x="424" d="M367 413 C368 370 352 357 293 358 L106 358 C115 394 138 408 238 439 C299 458 315 464 339 479 C371 498 388 528 388 562 C388 635 327 672 206 672 C92 672 31 639 31 577 C31 539 55 520 102 520 C148 520 171 538 171 572 C171 580 170 590 168 601 C165 611 164 621 164 627 C164 642 176 652 194 652 C226 652 242 627 242 579 C242 514 223 487 143 437 C78 397 56 378 40 344 C30 324 26 304 26 280 L26 265 L66 265 C76 266 84 266 119 266 C144 267 168 267 174 267 L241 267 L352 265 L393 265 C391 293 390 306 390 330 C390 358 391 377 393 413 L367 413 Z " />
<glyph glyph-name="threesuperior" unicode="&#xb3;" horiz-adv-x="424" d="M146 461 L171 462 C217 462 240 431 240 370 C240 312 220 282 183 282 C164 282 153 291 153 307 C153 314 154 322 155 331 C157 341 158 352 158 359 C158 396 132 418 90 418 C44 418 19 397 19 357 C19 294 78 262 195 262 C321 262 386 299 386 371 C386 431 353 459 266 473 C316 482 338 492 357 513 C371 527 379 549 379 570 C379 637 317 672 197 672 C84 672 26 641 26 581 C26 543 50 524 97 524 C141 524 164 543 164 579 C164 586 163 595 162 603 C160 613 159 623 159 628 C159 643 170 653 186 653 C217 653 235 624 235 572 C235 515 211 486 164 486 C160 486 152 486 146 487 L146 461 Z " />
<glyph glyph-name="acute" unicode="&#xb4;" horiz-adv-x="391" d="M81 452 L238 538 C303 573 325 594 325 621 C325 652 298 673 256 673 C220 673 192 661 163 632 C137 605 115 574 99 538 L67 468 L81 452 Z " />
<glyph glyph-name="paragraph" unicode="&#xb6;" horiz-adv-x="528" d="M330 633 L330 -90 L492 -90 L492 673 L277 673 C222 673 178 665 151 651 C101 625 75 579 75 521 C75 425 147 359 250 359 L258 359 L267 360 L267 -89 L293 -89 L293 633 L330 633 Z " />
<glyph glyph-name="periodcentered" unicode="&#xb7;" horiz-adv-x="296" d="M148 355 C83 355 41 316 41 255 C41 193 83 153 148 153 C211 153 254 192 254 251 C254 313 212 355 148 355 L148 355 Z " />
<glyph glyph-name="cedilla" unicode="&#xb8;" horiz-adv-x="488" d="M344 -37 L194 -112 C141 -138 124 -155 124 -181 C124 -212 156 -236 198 -236 C248 -236 284 -206 319 -135 L360 -53 L344 -37 Z " />
<glyph glyph-name="onesuperior" unicode="&#xb9;" horiz-adv-x="424" d="M87 286 L87 266 C146 267 190 268 221 268 C247 268 292 267 348 266 L348 286 L290 286 L290 671 L249 671 C212 658 85 619 32 605 L41 583 L152 618 L152 286 L87 286 Z " />
<glyph glyph-name="ordmasculine" unicode="&#xba;" horiz-adv-x="430" d="M16 299 L16 239 L363 239 L363 299 L16 299 Z M192 612 C91 612 36 565 36 478 C36 392 91 344 190 344 C288 344 345 393 345 476 C345 563 290 612 192 612 L192 612 Z M190 600 C220 600 231 566 231 474 C231 389 220 356 191 356 C162 356 150 393 150 482 C150 569 161 600 190 600 L190 600 Z " />
<glyph glyph-name="guillemotright" unicode="&#xbb;" horiz-adv-x="538" d="M48 426 L30 416 L98 211 L30 2 L48 -8 L290 211 L48 426 Z M275 426 L257 416 L325 211 L257 2 L275 -8 L517 211 L275 426 Z " />
<glyph glyph-name="onequarter" unicode="&#xbc;" horiz-adv-x="939" d="M649 721 L597 742 L273 -78 L326 -100 L649 721 Z M87 286 L87 266 C146 267 190 268 221 268 C247 268 292 267 348 266 L348 286 L290 286 L290 671 L249 671 C212 658 85 619 32 605 L41 583 L152 618 L152 286 L87 286 Z M631 20 L631 0 C688 1 728 2 759 2 C783 2 826 1 878 0 L878 20 L830 20 L830 85 L900 85 L900 158 L830 158 L830 408 L773 408 L499 147 L499 85 L692 85 L692 20 L631 20 Z M696 158 L544 158 L696 303 L696 158 Z " />
<glyph glyph-name="onehalf" unicode="&#xbd;" horiz-adv-x="939" d="M649 721 L597 742 L273 -78 L326 -100 L649 721 Z M87 286 L87 266 C146 267 190 268 221 268 C247 268 292 267 348 266 L348 286 L290 286 L290 671 L249 671 C212 658 85 619 32 605 L41 583 L152 618 L152 286 L87 286 Z M898 147 C899 104 883 91 824 92 L637 92 C646 128 669 142 769 172 C829 191 846 198 870 212 C901 232 919 261 919 296 C919 369 858 405 737 405 C623 405 562 372 562 310 C562 272 585 253 633 253 C678 253 702 271 702 305 C702 313 700 323 698 334 C696 344 695 354 695 360 C695 375 706 385 725 385 C756 385 773 360 773 312 C773 248 753 220 674 171 C608 131 587 112 571 78 C561 58 557 38 557 14 L557 -1 L597 0 C681 1 683 1 705 1 L771 1 L825 1 L883 0 L923 -1 C921 27 921 39 921 64 C921 91 921 111 923 147 L898 147 Z " />
<glyph glyph-name="threequarters" unicode="&#xbe;" horiz-adv-x="939" d="M651 721 L598 742 L274 -78 L327 -100 L651 721 Z M631 20 L631 0 C688 1 728 2 760 2 C784 2 826 1 879 0 L879 20 L830 20 L830 85 L901 85 L901 158 L830 158 L830 408 L773 408 L499 147 L499 85 L692 85 L692 20 L631 20 Z M696 158 L544 158 L696 303 L696 158 Z M146 461 L171 462 C217 462 240 431 240 370 C240 312 220 282 183 282 C164 282 153 291 153 307 C153 314 154 322 155 331 C157 341 158 352 158 359 C158 396 132 418 90 418 C44 418 19 397 19 357 C19 294 78 262 195 262 C321 262 386 299 386 371 C386 431 353 459 266 473 C316 482 338 492 357 513 C371 527 379 549 379 570 C379 637 317 672 197 672 C84 672 26 641 26 581 C26 543 50 524 97 524 C141 524 164 543 164 579 C164 586 163 595 162 603 C160 613 159 623 159 628 C159 643 170 653 186 653 C217 653 235 624 235 572 C235 515 211 486 164 486 C160 486 152 486 146 487 L146 461 Z " />
<glyph glyph-name="questiondown" unicode="&#xbf;" horiz-adv-x="574" d="M318 202 C319 197 319 189 319 187 C319 135 292 100 230 74 L174 51 C84 13 45 -34 45 -104 C45 -208 132 -263 293 -263 C450 -263 533 -211 533 -113 C533 -51 502 -21 437 -21 C371 -21 342 -52 342 -122 C342 -134 343 -144 344 -151 C350 -188 350 -188 350 -196 C350 -223 333 -241 307 -241 C268 -241 248 -204 248 -131 C248 -75 260 -31 284 8 L301 34 C334 84 347 124 347 170 C347 180 347 187 345 202 L318 202 Z M336 430 C273 430 230 391 230 332 C230 270 273 228 336 228 C401 228 443 267 443 328 C443 390 401 430 336 430 L336 430 Z " />
<glyph glyph-name="Agrave" unicode="&#xc0;" horiz-adv-x="714" d="M359 673 L322 673 L109 167 C78 93 66 69 36 22 L-1 22 L-1 -2 C33 1 62 2 77 2 C99 2 126 1 165 -2 L165 22 L94 22 C94 46 107 91 134 158 L160 220 L359 220 L451 22 L382 22 L382 -2 C457 1 514 2 551 2 C588 2 645 1 718 -2 L718 22 L670 22 L359 673 Z M171 245 L254 443 L347 245 L171 245 Z M493 725 L503 742 L452 793 C388 859 323 897 276 897 C237 897 210 873 210 838 C210 798 239 778 318 761 L493 725 Z " />
<glyph glyph-name="Aacute" unicode="&#xc1;" horiz-adv-x="714" d="M359 673 L322 673 L109 167 C78 93 66 69 36 22 L-1 22 L-1 -2 C33 1 62 2 77 2 C99 2 126 1 165 -2 L165 22 L94 22 C94 46 107 91 134 158 L160 220 L359 220 L451 22 L382 22 L382 -2 C457 1 514 2 551 2 C588 2 645 1 718 -2 L718 22 L670 22 L359 673 Z M171 245 L254 443 L347 245 L171 245 Z M221 725 L396 761 C475 778 504 798 504 838 C504 873 477 897 438 897 C391 897 326 859 262 793 L211 742 L221 725 Z " />
<glyph glyph-name="Acircumflex" unicode="&#xc2;" horiz-adv-x="714" d="M359 673 L322 673 L109 167 C78 93 66 69 36 22 L-1 22 L-1 -2 C33 1 62 2 77 2 C99 2 126 1 165 -2 L165 22 L94 22 C94 46 107 91 134 158 L160 220 L359 220 L451 22 L382 22 L382 -2 C457 1 514 2 551 2 C588 2 645 1 718 -2 L718 22 L670 22 L359 673 Z M171 245 L254 443 L347 245 L171 245 Z M549 749 L374 899 L345 899 L165 749 L176 726 L358 763 L539 726 L549 749 Z " />
<glyph glyph-name="Atilde" unicode="&#xc3;" horiz-adv-x="714" d="M359 673 L322 673 L109 167 C78 93 66 69 36 22 L-1 22 L-1 -2 C33 1 62 2 77 2 C99 2 126 1 165 -2 L165 22 L94 22 C94 46 107 91 134 158 L160 220 L359 220 L451 22 L382 22 L382 -2 C457 1 514 2 551 2 C588 2 645 1 718 -2 L718 22 L670 22 L359 673 Z M171 245 L254 443 L347 245 L171 245 Z M527 891 C522 852 507 835 477 835 C455 835 439 840 396 859 L368 871 C336 885 311 891 288 891 C210 891 164 831 162 725 L188 725 C192 764 207 780 238 780 C259 780 279 775 314 759 L354 742 C382 730 406 724 427 724 C502 724 546 782 552 891 L527 891 Z " />
<glyph glyph-name="Adieresis" unicode="&#xc4;" horiz-adv-x="714" d="M359 673 L322 673 L109 167 C78 93 66 69 36 22 L-1 22 L-1 -2 C33 1 62 2 77 2 C99 2 126 1 165 -2 L165 22 L94 22 C94 46 107 91 134 158 L160 220 L359 220 L451 22 L382 22 L382 -2 C457 1 514 2 551 2 C588 2 645 1 718 -2 L718 22 L670 22 L359 673 Z M171 245 L254 443 L347 245 L171 245 Z M214 887 C162 887 131 858 131 809 C131 762 163 732 215 732 C263 732 296 763 296 808 C296 855 263 887 214 887 L214 887 Z M461 887 C409 887 378 858 378 809 C378 762 410 732 462 732 C510 732 543 763 543 808 C543 855 510 887 461 887 L461 887 Z " />
<glyph glyph-name="Aring" unicode="&#xc5;" horiz-adv-x="714" d="M359 673 L322 673 L109 167 C78 93 66 69 36 22 L-1 22 L-1 -2 C33 1 62 2 77 2 C99 2 126 1 165 -2 L165 22 L94 22 C94 46 107 91 134 158 L160 220 L359 220 L451 22 L382 22 L382 -2 C457 1 514 2 551 2 C588 2 645 1 718 -2 L718 22 L670 22 L359 673 Z M171 245 L254 443 L347 245 L171 245 Z M335 910 C280 910 235 863 235 808 C235 754 283 707 339 707 C392 707 438 752 438 804 C438 861 390 910 335 910 L335 910 Z M336 871 C369 871 398 840 398 806 C398 774 370 746 338 746 C304 746 275 775 275 808 C275 842 303 871 336 871 L336 871 Z " />
<glyph glyph-name="AE" unicode="&#xc6;" horiz-adv-x="939" d="M0 -2 C40 1 72 2 90 2 C114 2 146 1 189 -2 L189 21 L90 21 C96 55 102 72 129 135 L169 221 L434 221 L467 21 L381 21 L381 -2 L415 -2 L481 -2 L545 -2 L715 -2 L789 -2 L867 -2 L901 -2 C900 35 900 50 900 97 C900 141 900 156 901 191 L872 191 C866 73 817 21 711 21 L665 21 L612 332 L637 332 C725 331 762 299 763 221 L792 221 C791 262 790 278 789 341 L791 435 C791 438 791 453 792 469 L763 469 C758 389 722 356 635 355 L612 355 L564 645 L678 645 C804 647 854 603 860 486 L889 486 C888 528 888 548 888 588 C888 621 888 638 889 669 L836 668 C819 668 789 667 752 666 C716 665 677 665 674 665 L469 665 C441 665 437 665 358 667 C321 668 308 668 259 669 L259 645 L339 645 L103 145 C71 79 56 54 29 21 L0 21 L0 -2 Z M180 246 L368 645 L431 246 L180 246 Z " />
<glyph glyph-name="Ccedilla" unicode="&#xc7;" horiz-adv-x="680" d="M624 457 C623 501 622 535 622 557 C622 579 623 612 624 656 L610 656 C596 657 572 660 540 666 C492 675 442 680 394 680 C270 680 168 642 112 576 C64 519 39 437 39 336 C39 224 69 134 127 75 C184 16 275 -13 403 -13 C456 -13 489 -9 551 4 C596 14 604 15 632 17 C630 73 629 122 629 144 C629 178 629 189 630 228 L600 228 C586 83 531 13 430 13 C393 13 356 26 332 49 C274 101 247 193 247 339 C247 467 265 550 306 604 C331 637 376 659 422 659 C485 659 539 623 569 561 C583 530 589 507 594 457 L624 457 Z M426 -37 L273 -111 C224 -135 206 -153 206 -179 C206 -211 237 -234 281 -234 C331 -234 363 -207 399 -138 L443 -52 L426 -37 Z " />
<glyph glyph-name="Egrave" unicode="&#xc8;" horiz-adv-x="627" d="M576 486 L575 517 L575 577 L576 644 L576 669 L522 668 C506 668 475 667 438 666 C402 665 364 665 360 665 L227 665 C200 665 193 665 116 667 C78 668 66 668 17 669 L17 645 L85 645 L85 22 L17 22 L17 -2 C72 -1 85 -1 147 1 C183 2 218 2 227 2 L372 2 C379 2 415 2 450 1 L484 0 C522 -1 538 -1 588 -2 C586 60 586 70 586 96 C586 125 586 138 588 191 L559 191 C552 68 502 22 372 22 L280 22 L280 332 L311 332 C405 333 449 296 450 217 L476 217 C474 295 473 337 473 342 C473 349 474 382 475 427 L476 467 L450 467 C447 389 403 354 309 356 L280 356 L280 645 L377 645 C488 648 541 598 546 486 L576 486 Z M450 725 L459 742 L409 793 C344 859 280 897 233 897 C194 897 167 873 167 838 C167 798 196 778 274 761 L450 725 Z " />
<glyph glyph-name="Eacute" unicode="&#xc9;" horiz-adv-x="627" d="M576 486 L575 517 L575 577 L576 644 L576 669 L522 668 C506 668 475 667 438 666 C402 665 364 665 360 665 L227 665 C200 665 193 665 116 667 C78 668 66 668 17 669 L17 645 L85 645 L85 22 L17 22 L17 -2 C72 -1 85 -1 147 1 C183 2 218 2 227 2 L372 2 C379 2 415 2 450 1 L484 0 C522 -1 538 -1 588 -2 C586 60 586 70 586 96 C586 125 586 138 588 191 L559 191 C552 68 502 22 372 22 L280 22 L280 332 L311 332 C405 333 449 296 450 217 L476 217 C474 295 473 337 473 342 C473 349 474 382 475 427 L476 467 L450 467 C447 389 403 354 309 356 L280 356 L280 645 L377 645 C488 648 541 598 546 486 L576 486 Z M177 725 L353 761 C431 778 460 798 460 838 C460 873 433 897 394 897 C347 897 283 859 218 793 L167 742 L177 725 Z " />
<glyph glyph-name="Ecircumflex" unicode="&#xca;" horiz-adv-x="627" d="M576 486 L575 517 L575 577 L576 644 L576 669 L522 668 C506 668 475 667 438 666 C402 665 364 665 360 665 L227 665 C200 665 193 665 116 667 C78 668 66 668 17 669 L17 645 L85 645 L85 22 L17 22 L17 -2 C72 -1 85 -1 147 1 C183 2 218 2 227 2 L372 2 C379 2 415 2 450 1 L484 0 C522 -1 538 -1 588 -2 C586 60 586 70 586 96 C586 125 586 138 588 191 L559 191 C552 68 502 22 372 22 L280 22 L280 332 L311 332 C405 333 449 296 450 217 L476 217 C474 295 473 337 473 342 C473 349 474 382 475 427 L476 467 L450 467 C447 389 403 354 309 356 L280 356 L280 645 L377 645 C488 648 541 598 546 486 L576 486 Z M505 749 L330 899 L301 899 L122 749 L133 726 L315 763 L495 726 L505 749 Z " />
<glyph glyph-name="Edieresis" unicode="&#xcb;" horiz-adv-x="627" d="M576 486 L575 517 L575 577 L576 644 L576 669 L522 668 C506 668 475 667 438 666 C402 665 364 665 360 665 L227 665 C200 665 193 665 116 667 C78 668 66 668 17 669 L17 645 L85 645 L85 22 L17 22 L17 -2 C72 -1 85 -1 147 1 C183 2 218 2 227 2 L372 2 C379 2 415 2 450 1 L484 0 C522 -1 538 -1 588 -2 C586 60 586 70 586 96 C586 125 586 138 588 191 L559 191 C552 68 502 22 372 22 L280 22 L280 332 L311 332 C405 333 449 296 450 217 L476 217 C474 295 473 337 473 342 C473 349 474 382 475 427 L476 467 L450 467 C447 389 403 354 309 356 L280 356 L280 645 L377 645 C488 648 541 598 546 486 L576 486 Z M190 887 C138 887 107 858 107 809 C107 762 140 732 192 732 C240 732 273 763 273 808 C273 855 240 887 190 887 L190 887 Z M437 887 C385 887 354 858 354 809 C354 762 386 732 438 732 C486 732 519 763 519 808 C519 855 486 887 437 887 L437 887 Z " />
<glyph glyph-name="Igrave" unicode="&#xcc;" horiz-adv-x="355" d="M280 645 L345 645 L345 669 C273 666 217 665 180 665 C145 665 89 666 17 669 L17 645 L84 645 L84 22 L17 22 L17 -2 C90 1 146 2 183 2 C218 2 274 1 345 -2 L345 22 L280 22 L280 645 Z M314 725 L323 742 L273 793 C208 859 143 897 96 897 C57 897 30 873 30 838 C30 798 58 778 138 761 L314 725 Z " />
<glyph glyph-name="Iacute" unicode="&#xcd;" horiz-adv-x="355" d="M280 645 L345 645 L345 669 C273 666 217 665 180 665 C145 665 89 666 17 669 L17 645 L84 645 L84 22 L17 22 L17 -2 C90 1 146 2 183 2 C218 2 274 1 345 -2 L345 22 L280 22 L280 645 Z M41 725 L217 761 C295 778 324 798 324 838 C324 873 297 897 258 897 C211 897 147 859 82 793 L31 742 L41 725 Z " />
<glyph glyph-name="Icircumflex" unicode="&#xce;" horiz-adv-x="355" d="M280 645 L345 645 L345 669 C273 666 217 665 180 665 C145 665 89 666 17 669 L17 645 L84 645 L84 22 L17 22 L17 -2 C90 1 146 2 183 2 C218 2 274 1 345 -2 L345 22 L280 22 L280 645 Z M369 749 L194 899 L165 899 L-15 749 L-4 726 L178 763 L358 726 L369 749 Z " />
<glyph glyph-name="Idieresis" unicode="&#xcf;" horiz-adv-x="355" d="M280 645 L345 645 L345 669 C273 666 217 665 180 665 C145 665 89 666 17 669 L17 645 L84 645 L84 22 L17 22 L17 -2 C90 1 146 2 183 2 C218 2 274 1 345 -2 L345 22 L280 22 L280 645 Z M82 887 C38 887 12 858 12 809 C12 762 40 732 84 732 C125 732 153 763 153 808 C153 856 125 887 82 887 L82 887 Z M272 887 C228 887 202 858 202 809 C202 762 230 732 274 732 C314 732 342 763 342 808 C342 856 314 887 272 887 L272 887 Z " />
<glyph glyph-name="Eth" unicode="&#xd0;" horiz-adv-x="783" d="M17 645 L86 645 L86 349 L17 349 L17 328 L86 328 L86 22 L17 22 L17 -2 C117 0 122 0 149 0 L328 -2 C452 -2 525 11 595 46 C694 96 742 191 742 336 C742 459 701 553 626 605 C556 652 483 667 322 667 L182 666 L154 666 C95 666 79 666 17 669 L17 645 Z M282 22 L282 328 L423 328 L423 349 L282 349 L282 645 L315 645 C400 645 439 632 473 591 C515 541 535 458 535 334 C535 208 515 123 473 76 C439 36 396 22 312 22 L282 22 Z " />
<glyph glyph-name="Ntilde" unicode="&#xd1;" horiz-adv-x="731" d="M590 -7 L655 -7 L655 477 C656 542 660 599 669 645 L730 645 L730 669 C691 666 660 665 642 665 C620 665 590 666 549 669 L549 645 L614 645 C622 605 626 557 628 477 L628 266 L304 669 C246 666 195 665 172 665 C126 665 80 666 7 669 L7 645 L74 645 L74 192 C73 121 69 69 61 22 L0 22 L0 -2 C39 1 69 2 88 2 C108 2 137 1 176 -2 L176 22 L115 22 C105 83 101 125 101 192 L101 610 L590 -7 Z M535 891 C531 852 515 835 486 835 C463 835 447 840 404 859 L377 871 C345 885 320 891 297 891 C219 891 173 831 170 725 L196 725 C201 764 215 780 247 780 C267 780 287 775 323 759 L362 742 C391 730 414 724 435 724 C510 724 554 782 561 891 L535 891 Z " />
<glyph glyph-name="Ograve" unicode="&#xd2;" horiz-adv-x="802" d="M396 684 C294 684 211 659 148 609 C73 550 37 461 37 333 C37 108 166 -17 399 -17 C632 -17 760 105 760 328 C760 562 635 684 396 684 L396 684 Z M395 662 C455 662 506 622 527 558 C545 502 554 428 554 334 C554 255 545 176 531 122 C511 49 462 6 398 6 C291 6 243 106 243 327 C243 445 256 535 281 584 C307 635 346 662 395 662 L395 662 Z M537 725 L547 742 L496 793 C431 859 367 897 320 897 C281 897 254 873 254 838 C254 798 283 778 361 761 L537 725 Z " />
<glyph glyph-name="Oacute" unicode="&#xd3;" horiz-adv-x="802" d="M396 684 C294 684 211 659 148 609 C73 550 37 461 37 333 C37 108 166 -17 399 -17 C632 -17 760 105 760 328 C760 562 635 684 396 684 L396 684 Z M395 662 C455 662 506 622 527 558 C545 502 554 428 554 334 C554 255 545 176 531 122 C511 49 462 6 398 6 C291 6 243 106 243 327 C243 445 256 535 281 584 C307 635 346 662 395 662 L395 662 Z M264 725 L440 761 C518 778 547 798 547 838 C547 873 520 897 481 897 C434 897 370 859 305 793 L255 742 L264 725 Z " />
<glyph glyph-name="Ocircumflex" unicode="&#xd4;" horiz-adv-x="802" d="M396 684 C294 684 211 659 148 609 C73 550 37 461 37 333 C37 108 166 -17 399 -17 C632 -17 760 105 760 328 C760 562 635 684 396 684 L396 684 Z M395 662 C455 662 506 622 527 558 C545 502 554 428 554 334 C554 255 545 176 531 122 C511 49 462 6 398 6 C291 6 243 106 243 327 C243 445 256 535 281 584 C307 635 346 662 395 662 L395 662 Z M592 749 L418 899 L389 899 L209 749 L220 726 L402 763 L582 726 L592 749 Z " />
<glyph glyph-name="Otilde" unicode="&#xd5;" horiz-adv-x="802" d="M396 684 C294 684 211 659 148 609 C73 550 37 461 37 333 C37 108 166 -17 399 -17 C632 -17 760 105 760 328 C760 562 635 684 396 684 L396 684 Z M395 662 C455 662 506 622 527 558 C545 502 554 428 554 334 C554 255 545 176 531 122 C511 49 462 6 398 6 C291 6 243 106 243 327 C243 445 256 535 281 584 C307 635 346 662 395 662 L395 662 Z M570 891 C566 852 550 835 521 835 C498 835 482 840 439 859 L412 871 C380 885 355 891 332 891 C254 891 208 831 205 725 L231 725 C236 764 251 780 282 780 C303 780 323 775 358 759 L397 742 C426 730 449 724 470 724 C545 724 589 782 596 891 L570 891 Z " />
<glyph glyph-name="Odieresis" unicode="&#xd6;" horiz-adv-x="802" d="M396 684 C294 684 211 659 148 609 C73 550 37 461 37 333 C37 108 166 -17 399 -17 C632 -17 760 105 760 328 C760 562 635 684 396 684 L396 684 Z M395 662 C455 662 506 622 527 558 C545 502 554 428 554 334 C554 255 545 176 531 122 C511 49 462 6 398 6 C291 6 243 106 243 327 C243 445 256 535 281 584 C307 635 346 662 395 662 L395 662 Z M277 887 C225 887 194 858 194 809 C194 762 227 732 279 732 C327 732 360 763 360 808 C360 855 327 887 277 887 L277 887 Z M524 887 C472 887 441 858 441 809 C441 762 473 732 525 732 C573 732 606 763 606 808 C606 855 573 887 524 887 L524 887 Z " />
<glyph glyph-name="multiply" unicode="&#xd7;" horiz-adv-x="480" d="M222 251 L118 355 L58 295 L162 191 L57 85 L116 26 L221 132 L324 29 L384 89 L281 191 L386 296 L327 355 L222 251 Z " />
<glyph glyph-name="Oslash" unicode="&#xd8;" horiz-adv-x="809" d="M174 -69 L206 -86 L252 5 C300 -11 339 -17 402 -17 C511 -17 599 11 662 65 C728 122 762 212 762 331 C762 433 736 518 686 576 C658 610 630 630 578 655 L621 740 L588 756 L544 667 C490 681 449 686 397 686 C281 686 184 652 122 588 C67 532 38 444 38 335 C38 236 63 154 111 96 C139 63 166 43 216 18 L174 -69 Z M270 118 C249 194 244 237 244 326 C244 560 291 664 398 664 C443 664 472 648 508 603 L270 118 Z M528 560 C550 490 556 441 556 334 C556 109 507 6 400 6 C352 6 320 24 288 72 L528 560 Z " />
<glyph glyph-name="Ugrave" unicode="&#xd9;" horiz-adv-x="714" d="M717 669 C676 666 644 665 624 665 C603 665 571 666 529 669 L529 645 L598 645 C606 599 610 547 611 492 L611 263 C611 107 543 15 429 15 C376 15 326 40 304 78 C284 112 277 153 277 234 L277 645 L343 645 L343 669 C270 666 214 665 177 665 C141 665 86 666 13 669 L13 645 L81 645 L81 285 C81 188 96 130 135 80 C182 20 266 -13 372 -13 C552 -13 640 77 640 263 L640 492 C640 558 644 603 651 645 L717 645 L717 669 Z M543 725 L553 742 L502 793 C437 859 372 897 326 897 C287 897 260 873 260 838 C260 798 288 778 367 761 L543 725 Z " />
<glyph glyph-name="Uacute" unicode="&#xda;" horiz-adv-x="714" d="M717 669 C676 666 644 665 624 665 C603 665 571 666 529 669 L529 645 L598 645 C606 599 610 547 611 492 L611 263 C611 107 543 15 429 15 C376 15 326 40 304 78 C284 112 277 153 277 234 L277 645 L343 645 L343 669 C270 666 214 665 177 665 C141 665 86 666 13 669 L13 645 L81 645 L81 285 C81 188 96 130 135 80 C182 20 266 -13 372 -13 C552 -13 640 77 640 263 L640 492 C640 558 644 603 651 645 L717 645 L717 669 Z M274 725 L450 761 C529 778 558 798 558 838 C558 873 530 897 492 897 C445 897 380 859 315 793 L265 742 L274 725 Z " />
<glyph glyph-name="Ucircumflex" unicode="&#xdb;" horiz-adv-x="714" d="M717 669 C676 666 644 665 624 665 C603 665 571 666 529 669 L529 645 L598 645 C606 599 610 547 611 492 L611 263 C611 107 543 15 429 15 C376 15 326 40 304 78 C284 112 277 153 277 234 L277 645 L343 645 L343 669 C270 666 214 665 177 665 C141 665 86 666 13 669 L13 645 L81 645 L81 285 C81 188 96 130 135 80 C182 20 266 -13 372 -13 C552 -13 640 77 640 263 L640 492 C640 558 644 603 651 645 L717 645 L717 669 Z M563 749 L388 899 L359 899 L179 749 L191 726 L373 763 L553 726 L563 749 Z " />
<glyph glyph-name="Udieresis" unicode="&#xdc;" horiz-adv-x="714" d="M717 669 C676 666 644 665 624 665 C603 665 571 666 529 669 L529 645 L598 645 C606 599 610 547 611 492 L611 263 C611 107 543 15 429 15 C376 15 326 40 304 78 C284 112 277 153 277 234 L277 645 L343 645 L343 669 C270 666 214 665 177 665 C141 665 86 666 13 669 L13 645 L81 645 L81 285 C81 188 96 130 135 80 C182 20 266 -13 372 -13 C552 -13 640 77 640 263 L640 492 C640 558 644 603 651 645 L717 645 L717 669 Z M276 887 C224 887 194 858 194 809 C194 762 226 732 278 732 C326 732 359 763 359 808 C359 855 326 887 276 887 L276 887 Z M523 887 C470 887 440 858 440 809 C440 762 472 732 524 732 C572 732 606 763 606 808 C606 855 573 887 523 887 L523 887 Z " />
<glyph glyph-name="Yacute" unicode="&#xdd;" horiz-adv-x="661" d="M427 303 L538 513 C575 582 593 610 621 645 L663 645 L663 669 C626 666 594 665 578 665 C552 665 522 666 478 669 L478 645 L565 645 C556 615 546 588 528 552 L427 353 L273 645 L352 645 L352 669 C275 666 215 665 178 665 C137 665 77 666 -2 669 L-2 645 L52 645 L232 303 L232 22 L164 22 L164 -2 C238 1 294 2 332 2 C368 2 424 1 496 -2 L496 22 L427 22 L427 303 Z M259 725 L435 761 C515 778 543 798 543 838 C543 873 516 897 477 897 C430 897 365 859 300 793 L250 742 L259 725 Z " />
<glyph glyph-name="Thorn" unicode="&#xde;" horiz-adv-x="643" d="M280 645 L345 645 L345 669 C273 666 217 665 180 665 C145 665 89 666 17 669 L17 645 L84 645 L84 22 L17 22 L17 -2 C90 1 146 2 183 2 C218 2 274 1 345 -2 L345 22 L280 22 L280 214 L344 214 C528 214 623 278 623 403 C623 467 593 522 543 549 C496 575 442 584 339 584 C335 584 334 584 280 583 L280 645 Z M280 238 L280 561 L292 561 C342 561 369 553 388 531 C411 504 421 463 421 398 C421 281 389 238 302 238 L280 238 Z " />
<glyph glyph-name="germandbls" unicode="&#xdf;" horiz-adv-x="607" d="M293 127 C295 81 295 75 295 66 L294 14 C294 12 294 3 293 -7 C305 -6 313 -6 319 -6 C327 -6 340 -7 356 -8 C378 -10 400 -11 414 -11 C521 -11 595 57 595 155 C595 227 556 280 474 320 L421 346 C393 360 376 377 376 392 C376 405 387 417 406 425 L437 439 C494 463 519 495 519 544 C519 635 452 680 315 680 C232 680 168 663 126 630 C79 593 62 541 62 439 L62 18 L11 18 L11 -2 C66 1 104 2 135 2 C156 2 196 1 244 -2 L244 537 C244 628 258 657 303 657 C349 657 371 618 371 538 C371 493 363 463 345 439 L319 403 C296 373 286 343 286 307 C286 239 311 198 372 165 L413 143 C451 123 471 98 471 71 C471 35 442 10 400 10 C357 10 331 30 322 72 C319 86 319 87 319 127 L293 127 Z " />
<glyph glyph-name="agrave" unicode="&#xe0;" horiz-adv-x="558" d="M314 256 C243 253 199 249 164 243 C67 225 25 185 25 111 C25 33 82 -13 180 -13 C226 -13 265 -1 290 20 C308 36 317 53 328 92 C327 54 327 42 327 32 L327 -2 C379 1 413 2 445 2 C462 2 499 1 542 -2 L542 18 L496 18 L496 256 C496 323 486 358 459 384 C426 416 358 433 267 433 C131 433 56 397 56 332 C56 292 85 271 139 271 C189 271 215 289 215 323 C215 330 214 340 213 351 C212 358 211 365 211 370 C211 396 229 412 257 412 C300 412 314 388 314 315 L314 256 Z M314 233 C314 160 312 111 308 93 C299 54 280 32 255 32 C227 32 215 57 215 119 C215 158 220 185 231 202 C247 226 265 233 314 233 L314 233 Z M394 452 L408 468 L376 538 C359 574 338 605 312 632 C282 661 255 673 218 673 C177 673 150 652 150 621 C150 594 172 573 236 538 L394 452 Z " />
<glyph glyph-name="aacute" unicode="&#xe1;" horiz-adv-x="558" d="M314 256 C243 253 199 249 164 243 C67 225 25 185 25 111 C25 33 82 -13 180 -13 C226 -13 265 -1 290 20 C308 36 317 53 328 92 C327 54 327 42 327 32 L327 -2 C379 1 413 2 445 2 C462 2 499 1 542 -2 L542 18 L496 18 L496 256 C496 323 486 358 459 384 C426 416 358 433 267 433 C131 433 56 397 56 332 C56 292 85 271 139 271 C189 271 215 289 215 323 C215 330 214 340 213 351 C212 358 211 365 211 370 C211 396 229 412 257 412 C300 412 314 388 314 315 L314 256 Z M314 233 C314 160 312 111 308 93 C299 54 280 32 255 32 C227 32 215 57 215 119 C215 158 220 185 231 202 C247 226 265 233 314 233 L314 233 Z M163 452 L321 538 C387 573 408 594 408 621 C408 652 381 673 339 673 C303 673 275 661 246 632 C219 605 198 574 181 538 L150 468 L163 452 Z " />
<glyph glyph-name="acircumflex" unicode="&#xe2;" horiz-adv-x="558" d="M314 256 C243 253 199 249 164 243 C67 225 25 185 25 111 C25 33 82 -13 180 -13 C226 -13 265 -1 290 20 C308 36 317 53 328 92 C327 54 327 42 327 32 L327 -2 C379 1 413 2 445 2 C462 2 499 1 542 -2 L542 18 L496 18 L496 256 C496 323 486 358 459 384 C426 416 358 433 267 433 C131 433 56 397 56 332 C56 292 85 271 139 271 C189 271 215 289 215 323 C215 330 214 340 213 351 C212 358 211 365 211 370 C211 396 229 412 257 412 C300 412 314 388 314 315 L314 256 Z M314 233 C314 160 312 111 308 93 C299 54 280 32 255 32 C227 32 215 57 215 119 C215 158 220 185 231 202 C247 226 265 233 314 233 L314 233 Z M294 672 L265 672 L93 471 L107 454 L280 523 L449 454 L464 471 L294 672 Z " />
<glyph glyph-name="atilde" unicode="&#xe3;" horiz-adv-x="558" d="M314 256 C243 253 199 249 164 243 C67 225 25 185 25 111 C25 33 82 -13 180 -13 C226 -13 265 -1 290 20 C308 36 317 53 328 92 C327 54 327 42 327 32 L327 -2 C379 1 413 2 445 2 C462 2 499 1 542 -2 L542 18 L496 18 L496 256 C496 323 486 358 459 384 C426 416 358 433 267 433 C131 433 56 397 56 332 C56 292 85 271 139 271 C189 271 215 289 215 323 C215 330 214 340 213 351 C212 358 211 365 211 370 C211 396 229 412 257 412 C300 412 314 388 314 315 L314 256 Z M314 233 C314 160 312 111 308 93 C299 54 280 32 255 32 C227 32 215 57 215 119 C215 158 220 185 231 202 C247 226 265 233 314 233 L314 233 Z M461 639 C458 585 438 559 402 559 C380 559 356 567 328 585 L289 608 C256 629 224 639 194 639 C118 639 70 566 70 450 L95 450 C98 505 115 529 154 529 C179 529 200 521 239 496 L279 471 C301 457 329 449 357 449 C404 449 440 471 460 513 C476 545 487 592 487 624 C487 627 487 631 486 639 L461 639 Z " />
<glyph glyph-name="adieresis" unicode="&#xe4;" horiz-adv-x="558" d="M314 256 C243 253 199 249 164 243 C67 225 25 185 25 111 C25 33 82 -13 180 -13 C226 -13 265 -1 290 20 C308 36 317 53 328 92 C327 54 327 42 327 32 L327 -2 C379 1 413 2 445 2 C462 2 499 1 542 -2 L542 18 L496 18 L496 256 C496 323 486 358 459 384 C426 416 358 433 267 433 C131 433 56 397 56 332 C56 292 85 271 139 271 C189 271 215 289 215 323 C215 330 214 340 213 351 C212 358 211 365 211 370 C211 396 229 412 257 412 C300 412 314 388 314 315 L314 256 Z M314 233 C314 160 312 111 308 93 C299 54 280 32 255 32 C227 32 215 57 215 119 C215 158 220 185 231 202 C247 226 265 233 314 233 L314 233 Z M143 621 C91 621 60 592 60 543 C60 496 93 466 145 466 C193 466 226 497 226 542 C226 589 193 621 143 621 L143 621 Z M390 621 C338 621 307 592 307 543 C307 496 339 466 391 466 C439 466 472 497 472 542 C472 589 439 621 390 621 L390 621 Z " />
<glyph glyph-name="aring" unicode="&#xe5;" horiz-adv-x="558" d="M314 256 C243 253 199 249 164 243 C67 225 25 185 25 111 C25 33 82 -13 180 -13 C226 -13 265 -1 290 20 C308 36 317 53 328 92 C327 54 327 42 327 32 L327 -2 C379 1 413 2 445 2 C462 2 499 1 542 -2 L542 18 L496 18 L496 256 C496 323 486 358 459 384 C426 416 358 433 267 433 C131 433 56 397 56 332 C56 292 85 271 139 271 C189 271 215 289 215 323 C215 330 214 340 213 351 C212 358 211 365 211 370 C211 396 229 412 257 412 C300 412 314 388 314 315 L314 256 Z M314 233 C314 160 312 111 308 93 C299 54 280 32 255 32 C227 32 215 57 215 119 C215 158 220 185 231 202 C247 226 265 233 314 233 L314 233 Z M271 653 C222 653 180 610 180 559 C180 510 224 467 276 467 C324 467 366 508 366 556 C366 608 322 653 271 653 L271 653 Z M272 617 C303 617 330 589 330 557 C330 528 305 503 275 503 C243 503 216 529 216 560 C216 591 242 617 272 617 L272 617 Z " />
<glyph glyph-name="ae" unicode="&#xe6;" horiz-adv-x="818" d="M796 224 C792 287 782 321 756 354 C718 402 650 430 568 430 C500 430 464 419 426 385 C386 419 346 430 266 430 C131 430 53 392 53 327 C53 287 81 266 138 266 C186 266 216 285 216 316 C216 320 215 330 212 341 C211 348 210 356 210 362 C210 392 227 409 259 409 C309 409 323 381 323 274 L323 248 C264 248 220 245 168 239 C68 226 23 188 23 117 C23 30 90 -10 234 -10 C275 -10 315 -5 343 3 C371 11 382 19 408 44 C450 5 495 -10 574 -10 C634 -10 690 5 727 30 C757 51 771 69 790 111 L769 121 C755 91 747 78 731 64 C697 32 651 14 606 14 C567 14 536 30 519 58 C505 84 499 117 499 180 L499 224 L796 224 Z M324 182 C324 54 305 6 257 6 C225 6 212 35 212 104 C212 152 216 177 228 194 C242 214 268 225 299 225 C305 225 314 225 324 224 L324 182 Z M500 242 C504 374 516 409 557 409 C596 409 611 368 611 263 C611 260 611 251 610 242 L500 242 Z " />
<glyph glyph-name="ccedilla" unicode="&#xe7;" horiz-adv-x="488" d="M458 116 C428 48 383 14 323 14 C288 14 255 35 241 67 C225 102 218 148 218 221 C218 347 239 413 280 413 C299 413 312 400 312 381 C312 372 310 358 307 344 C304 328 302 312 302 302 C302 258 334 234 392 234 C452 234 480 258 480 308 C480 387 406 430 273 430 C111 430 27 355 27 212 C27 68 112 -10 270 -10 C337 -10 393 6 431 37 C453 55 464 71 478 107 L458 116 Z M344 -37 L194 -112 C141 -138 124 -155 124 -181 C124 -212 156 -236 197 -236 C248 -236 283 -206 319 -135 L360 -53 L344 -37 Z " />
<glyph glyph-name="egrave" unicode="&#xe8;" horiz-adv-x="540" d="M515 214 C513 277 504 311 477 347 C438 403 366 433 271 433 C194 433 129 413 91 379 C49 341 25 280 25 211 C25 138 47 81 89 45 C133 8 203 -13 280 -13 C350 -13 414 5 452 36 C475 55 489 73 506 108 L484 119 C453 50 395 12 321 12 C243 12 213 60 213 183 L213 214 L515 214 Z M325 236 L214 236 L214 255 C214 302 221 360 228 379 C237 403 251 414 271 414 C309 414 324 372 325 266 L325 254 L325 236 Z M386 452 L399 468 L368 538 C351 574 330 605 303 632 C274 661 246 673 210 673 C168 673 141 652 141 621 C141 594 162 574 228 538 L386 452 Z " />
<glyph glyph-name="eacute" unicode="&#xe9;" horiz-adv-x="540" d="M515 214 C513 277 504 311 477 347 C438 403 366 433 271 433 C194 433 129 413 91 379 C49 341 25 280 25 211 C25 138 47 81 89 45 C133 8 203 -13 280 -13 C350 -13 414 5 452 36 C475 55 489 73 506 108 L484 119 C453 50 395 12 321 12 C243 12 213 60 213 183 L213 214 L515 214 Z M325 236 L214 236 L214 255 C214 302 221 360 228 379 C237 403 251 414 271 414 C309 414 324 372 325 266 L325 254 L325 236 Z M155 452 L313 538 C377 573 399 594 399 621 C399 652 372 673 331 673 C294 673 266 661 237 632 C211 605 190 574 173 538 L142 468 L155 452 Z " />
<glyph glyph-name="ecircumflex" unicode="&#xea;" horiz-adv-x="540" d="M515 214 C513 277 504 311 477 347 C438 403 366 433 271 433 C194 433 129 413 91 379 C49 341 25 280 25 211 C25 138 47 81 89 45 C133 8 203 -13 280 -13 C350 -13 414 5 452 36 C475 55 489 73 506 108 L484 119 C453 50 395 12 321 12 C243 12 213 60 213 183 L213 214 L515 214 Z M325 236 L214 236 L214 255 C214 302 221 360 228 379 C237 403 251 414 271 414 C309 414 324 372 325 266 L325 254 L325 236 Z M286 672 L257 672 L85 471 L99 454 L271 523 L441 454 L456 471 L286 672 Z " />
<glyph glyph-name="edieresis" unicode="&#xeb;" horiz-adv-x="540" d="M515 214 C513 277 504 311 477 347 C438 403 366 433 271 433 C194 433 129 413 91 379 C49 341 25 280 25 211 C25 138 47 81 89 45 C133 8 203 -13 280 -13 C350 -13 414 5 452 36 C475 55 489 73 506 108 L484 119 C453 50 395 12 321 12 C243 12 213 60 213 183 L213 214 L515 214 Z M325 236 L214 236 L214 255 C214 302 221 360 228 379 C237 403 251 414 271 414 C309 414 324 372 325 266 L325 254 L325 236 Z M147 621 C95 621 64 592 64 543 C64 496 97 466 149 466 C197 466 230 497 230 542 C230 589 197 621 147 621 L147 621 Z M394 621 C342 621 311 592 311 543 C311 496 344 466 396 466 C444 466 477 497 477 542 C477 589 444 621 394 621 L394 621 Z " />
<glyph glyph-name="igrave" unicode="&#xec;" horiz-adv-x="314" d="M247 422 C195 419 156 418 129 418 C104 418 65 419 14 422 L14 402 L66 402 L66 18 L14 18 L14 -2 C76 1 123 2 154 2 C185 2 233 1 296 -2 L296 18 L247 18 L247 422 Z M273 452 L286 468 L255 538 C238 574 217 605 190 632 C161 661 133 673 97 673 C55 673 28 652 28 621 C28 594 49 573 115 538 L273 452 Z " />
<glyph glyph-name="iacute" unicode="&#xed;" horiz-adv-x="314" d="M247 422 C195 419 156 418 129 418 C104 418 65 419 14 422 L14 402 L66 402 L66 18 L14 18 L14 -2 C76 1 123 2 154 2 C185 2 233 1 296 -2 L296 18 L247 18 L247 422 Z M42 452 L200 538 C264 573 286 594 286 621 C286 652 259 673 218 673 C181 673 154 661 124 632 C98 605 77 574 60 538 L28 468 L42 452 Z " />
<glyph glyph-name="icircumflex" unicode="&#xee;" horiz-adv-x="314" d="M247 422 C195 419 156 418 129 418 C104 418 64 419 14 422 L14 402 L66 402 L66 18 L14 18 L14 -2 C75 1 123 2 154 2 C185 2 233 1 296 -2 L296 18 L247 18 L247 422 Z M172 672 L143 672 L-29 471 L-15 454 L158 523 L327 454 L342 471 L172 672 Z " />
<glyph glyph-name="idieresis" unicode="&#xef;" horiz-adv-x="314" d="M247 422 C195 419 156 418 129 418 C104 418 64 419 14 422 L14 402 L66 402 L66 18 L14 18 L14 -2 C75 1 123 2 154 2 C185 2 233 1 296 -2 L296 18 L247 18 L247 422 Z M62 621 C18 621 -8 592 -8 543 C-8 496 20 466 64 466 C105 466 133 497 133 542 C133 590 105 621 62 621 L62 621 Z M252 621 C208 621 182 592 182 543 C182 496 210 466 254 466 C294 466 322 497 322 542 C322 590 294 621 252 621 L252 621 Z " />
<glyph glyph-name="eth" unicode="&#xf0;" horiz-adv-x="576" d="M494 639 L486 657 L396 615 C360 654 320 687 254 733 L241 712 C286 679 312 639 326 583 L227 537 L236 518 L331 562 C337 533 339 513 344 429 C321 432 301 433 281 433 C119 433 28 352 28 207 C28 67 121 -13 284 -13 C363 -13 429 7 474 43 C520 82 542 142 542 233 C542 387 505 492 411 600 L494 639 Z M284 413 C333 413 352 356 352 205 C352 63 333 7 286 7 C238 7 218 68 218 216 C218 288 224 348 233 372 C244 399 261 413 284 413 L284 413 Z " />
<glyph glyph-name="ntilde" unicode="&#xf1;" horiz-adv-x="596" d="M226 422 C176 419 140 418 113 418 C92 418 55 419 9 422 L9 402 L58 402 L58 18 L9 18 L9 -2 C70 1 117 2 147 2 C178 2 225 1 286 -2 L286 18 L241 18 L241 230 C241 288 246 324 259 352 C270 377 293 394 314 394 C326 394 339 387 344 377 C352 364 355 340 355 293 L355 18 L310 18 L310 -2 C371 1 418 2 449 2 C480 2 527 1 589 -2 L589 18 L538 18 L538 269 C538 325 530 356 508 382 C480 413 435 430 378 430 C333 430 298 420 272 399 C248 379 236 356 226 305 L226 422 Z M481 639 C477 585 458 559 421 559 C399 559 375 567 347 585 L309 608 C275 629 244 639 213 639 C137 639 90 566 89 450 L115 450 C117 505 135 529 174 529 C198 529 219 521 258 496 L298 471 C320 457 349 449 377 449 C424 449 460 471 480 513 C496 547 507 592 507 624 C507 626 507 631 506 639 L481 639 Z " />
<glyph glyph-name="ograve" unicode="&#xf2;" horiz-adv-x="574" d="M288 433 C119 433 28 355 28 210 C28 67 120 -13 285 -13 C447 -13 542 68 542 207 C542 351 450 433 288 433 L288 433 Z M284 413 C332 413 351 356 351 205 C351 63 332 7 285 7 C238 7 218 68 218 216 C218 288 224 348 233 372 C243 399 261 413 284 413 L284 413 Z M403 452 L416 468 L385 538 C368 574 347 605 320 632 C291 661 263 673 227 673 C185 673 158 652 158 621 C158 594 179 574 245 538 L403 452 Z " />
<glyph glyph-name="oacute" unicode="&#xf3;" horiz-adv-x="574" d="M288 433 C119 433 28 355 28 210 C28 67 120 -13 285 -13 C447 -13 542 68 542 207 C542 351 450 433 288 433 L288 433 Z M284 413 C332 413 351 356 351 205 C351 63 332 7 285 7 C238 7 218 68 218 216 C218 288 224 348 233 372 C243 399 261 413 284 413 L284 413 Z M172 452 L330 538 C394 573 416 594 416 621 C416 652 389 673 348 673 C311 673 283 661 254 632 C228 605 207 574 190 538 L159 468 L172 452 Z " />
<glyph glyph-name="ocircumflex" unicode="&#xf4;" horiz-adv-x="574" d="M288 433 C119 433 28 355 28 210 C28 67 120 -13 285 -13 C447 -13 542 68 542 207 C542 351 450 433 288 433 L288 433 Z M284 413 C332 413 351 356 351 205 C351 63 332 7 285 7 C238 7 218 68 218 216 C218 288 224 348 233 372 C243 399 261 413 284 413 L284 413 Z M303 672 L274 672 L102 471 L116 454 L288 523 L458 454 L473 471 L303 672 Z " />
<glyph glyph-name="otilde" unicode="&#xf5;" horiz-adv-x="574" d="M288 433 C119 433 28 355 28 210 C28 67 120 -13 285 -13 C447 -13 542 68 542 207 C542 351 450 433 288 433 L288 433 Z M284 413 C332 413 351 356 351 205 C351 63 332 7 285 7 C238 7 218 68 218 216 C218 288 224 348 233 372 C243 399 261 413 284 413 L284 413 Z M470 639 C466 585 447 559 410 559 C388 559 364 567 337 585 L298 608 C265 629 233 639 202 639 C127 639 79 566 79 450 L104 450 C107 505 124 529 163 529 C188 529 208 521 248 496 L288 471 C310 457 338 449 366 449 C413 449 449 471 469 513 C485 546 496 592 496 624 C496 627 496 631 495 639 L470 639 Z " />
<glyph glyph-name="odieresis" unicode="&#xf6;" horiz-adv-x="574" d="M288 433 C119 433 28 355 28 210 C28 67 120 -13 285 -13 C447 -13 542 68 542 207 C542 351 450 433 288 433 L288 433 Z M284 413 C332 413 351 356 351 205 C351 63 332 7 285 7 C238 7 218 68 218 216 C218 288 224 348 233 372 C243 399 261 413 284 413 L284 413 Z M164 621 C112 621 81 592 81 543 C81 496 113 466 165 466 C213 466 246 497 246 542 C246 589 213 621 164 621 L164 621 Z M410 621 C358 621 327 592 327 543 C327 496 360 466 412 466 C460 466 493 497 493 542 C493 589 460 621 410 621 L410 621 Z " />
<glyph glyph-name="divide" unicode="&#xf7;" horiz-adv-x="480" d="M217 90 C170 90 140 61 140 16 C140 -31 170 -59 221 -59 C270 -59 300 -31 300 14 C300 64 272 90 217 90 L217 90 Z M224 445 C174 445 144 417 144 371 C144 324 174 296 224 296 C272 296 303 324 303 367 C303 415 272 445 224 445 L224 445 Z M409 235 L33 235 L33 150 L409 150 L409 235 Z " />
<glyph glyph-name="oslash" unicode="&#xf8;" horiz-adv-x="574" d="M121 -100 L151 -115 L202 -6 C234 -13 248 -14 276 -14 C451 -14 543 65 543 215 C543 274 524 326 490 362 C467 386 445 399 400 416 L448 516 L419 531 L368 424 C332 432 314 434 284 434 C120 434 28 355 28 212 C28 150 47 94 80 58 C103 33 126 19 170 3 L121 -100 Z M224 113 C220 150 219 168 219 196 C219 362 234 412 284 412 C310 412 324 399 337 364 L224 113 Z M348 309 C351 265 352 244 352 210 C352 62 334 6 287 6 C260 6 243 22 233 56 L348 309 Z " />
<glyph glyph-name="ugrave" unicode="&#xf9;" horiz-adv-x="593" d="M527 422 C475 419 436 418 409 418 C384 418 345 419 294 422 L294 402 L344 402 L344 174 C344 77 321 27 277 27 C249 27 240 48 240 116 L240 422 C188 419 149 418 122 418 C97 418 58 419 7 422 L7 402 L59 402 L59 166 C59 101 66 70 87 42 C112 9 157 -10 213 -10 C289 -10 333 19 355 85 L355 30 L355 -2 C403 1 441 2 464 2 C490 2 528 1 578 -2 L578 18 L527 18 L527 422 Z M412 452 L426 468 L394 538 C378 574 356 605 330 632 C301 661 273 673 236 673 C195 673 168 652 168 621 C168 594 190 573 254 538 L412 452 Z " />
<glyph glyph-name="uacute" unicode="&#xfa;" horiz-adv-x="593" d="M527 422 C475 419 436 418 409 418 C384 418 345 419 294 422 L294 402 L344 402 L344 174 C344 77 321 27 277 27 C249 27 240 48 240 116 L240 422 C188 419 149 418 122 418 C97 418 58 419 7 422 L7 402 L59 402 L59 166 C59 101 66 70 87 42 C112 9 157 -10 213 -10 C289 -10 333 19 355 85 L355 30 L355 -2 C403 1 441 2 464 2 C490 2 528 1 578 -2 L578 18 L527 18 L527 422 Z M181 452 L339 538 C405 573 426 594 426 621 C426 652 399 673 357 673 C321 673 293 661 264 632 C237 605 216 574 200 538 L168 468 L181 452 Z " />
<glyph glyph-name="ucircumflex" unicode="&#xfb;" horiz-adv-x="593" d="M527 422 C475 419 436 418 409 418 C384 418 345 419 294 422 L294 402 L344 402 L344 174 C344 77 321 27 277 27 C249 27 240 48 240 116 L240 422 C188 419 149 418 122 418 C97 418 58 419 7 422 L7 402 L59 402 L59 166 C59 101 66 70 87 42 C112 9 157 -10 213 -10 C289 -10 333 19 355 85 L355 30 L355 -2 C403 1 441 2 464 2 C490 2 528 1 578 -2 L578 18 L527 18 L527 422 Z M312 672 L283 672 L111 471 L125 454 L298 523 L468 454 L482 471 L312 672 Z " />
<glyph glyph-name="udieresis" unicode="&#xfc;" horiz-adv-x="593" d="M527 422 C475 419 436 418 409 418 C384 418 345 419 294 422 L294 402 L344 402 L344 174 C344 77 321 27 277 27 C249 27 240 48 240 116 L240 422 C188 419 149 418 122 418 C97 418 58 419 7 422 L7 402 L59 402 L59 166 C59 101 66 70 87 42 C112 9 157 -10 213 -10 C289 -10 333 19 355 85 L355 30 L355 -2 C403 1 441 2 464 2 C490 2 528 1 578 -2 L578 18 L527 18 L527 422 Z M171 621 C119 621 88 592 88 543 C88 496 120 466 172 466 C220 466 253 497 253 542 C253 589 220 621 171 621 L171 621 Z M417 621 C365 621 334 592 334 543 C334 496 367 466 419 466 C467 466 500 497 500 542 C500 589 467 621 417 621 L417 621 Z " />
<glyph glyph-name="yacute" unicode="&#xfd;" horiz-adv-x="487" d="M231 -42 L221 -66 C211 -87 195 -102 181 -102 C171 -102 159 -100 148 -95 C111 -82 104 -80 84 -80 C35 -80 2 -110 2 -156 C2 -202 38 -234 90 -234 C119 -234 147 -224 168 -206 C185 -192 193 -179 210 -141 L392 271 C418 329 435 363 460 402 L491 402 L491 422 C462 419 439 418 425 418 C408 418 385 419 354 422 L354 402 L409 402 C401 359 386 311 365 263 L328 178 L227 402 L283 402 L283 422 C220 419 171 418 140 418 C108 418 59 419 -5 422 L-5 402 L25 402 L231 -42 Z M183 459 L341 545 C405 580 427 601 427 628 C427 659 400 680 359 680 C322 680 294 668 265 639 C239 612 217 581 201 545 L169 475 L183 459 Z " />
<glyph glyph-name="thorn" unicode="&#xfe;" horiz-adv-x="593" d="M240 669 C189 666 150 665 125 665 C100 665 61 666 10 669 L10 648 L60 648 L60 -208 L10 -208 L10 -228 C73 -226 121 -225 153 -225 C183 -225 232 -226 294 -228 L294 -208 L240 -208 L240 64 C260 17 311 -10 377 -10 C496 -10 565 70 565 208 C565 348 496 430 378 430 C311 430 267 405 240 354 L240 669 Z M240 289 C249 353 280 396 318 396 C358 396 374 342 374 202 C374 73 359 22 319 22 C279 22 250 64 240 136 L240 289 Z " />
<glyph glyph-name="ydieresis" unicode="&#xff;" horiz-adv-x="487" d="M231 -42 L221 -66 C211 -87 195 -102 181 -102 C171 -102 159 -100 148 -95 C111 -82 104 -80 84 -80 C35 -80 2 -110 2 -156 C2 -202 38 -234 90 -234 C119 -234 147 -224 168 -206 C185 -192 193 -179 210 -141 L392 271 C418 329 435 363 460 402 L491 402 L491 422 C462 419 439 418 425 418 C408 418 385 419 354 422 L354 402 L409 402 C401 359 386 311 365 263 L328 178 L227 402 L283 402 L283 422 C220 419 171 418 140 418 C108 418 59 419 -5 422 L-5 402 L25 402 L231 -42 Z M120 621 C68 621 37 592 37 543 C37 496 70 466 122 466 C170 466 203 497 203 542 C203 589 170 621 120 621 L120 621 Z M367 621 C315 621 284 592 284 543 C284 496 317 466 369 466 C417 466 450 497 450 542 C450 589 417 621 367 621 L367 621 Z " />
<glyph glyph-name="Amacron" unicode="&#x100;" horiz-adv-x="714" d="M359 673 L322 673 L109 167 C78 93 66 69 36 22 L-1 22 L-1 -2 C33 1 62 2 77 2 C99 2 126 1 165 -2 L165 22 L94 22 C94 46 107 91 134 158 L160 220 L359 220 L451 22 L382 22 L382 -2 C457 1 514 2 551 2 C588 2 645 1 718 -2 L718 22 L670 22 L359 673 Z M171 245 L254 443 L347 245 L171 245 Z M184 802 L184 733 L530 733 L530 802 L184 802 Z " />
<glyph glyph-name="amacron" unicode="&#x101;" horiz-adv-x="558" d="M314 256 C243 253 199 249 164 243 C67 225 25 185 25 111 C25 33 82 -13 180 -13 C226 -13 265 -1 290 20 C308 36 317 53 328 92 C327 54 327 42 327 32 L327 -2 C379 1 413 2 445 2 C462 2 499 1 542 -2 L542 18 L496 18 L496 256 C496 323 486 358 459 384 C426 416 358 433 267 433 C131 433 56 397 56 332 C56 292 85 271 139 271 C189 271 215 289 215 323 C215 330 214 340 213 351 C212 358 211 365 211 370 C211 396 229 412 257 412 C300 412 314 388 314 315 L314 256 Z M314 233 C314 160 312 111 308 93 C299 54 280 32 255 32 C227 32 215 57 215 119 C215 158 220 185 231 202 C247 226 265 233 314 233 L314 233 Z M105 585 L105 516 L452 516 L452 585 L105 585 Z " />
<glyph glyph-name="Abreve" unicode="&#x102;" horiz-adv-x="714" d="M359 673 L322 673 L109 167 C78 93 66 69 36 22 L-1 22 L-1 -2 C33 1 62 2 77 2 C99 2 126 1 165 -2 L165 22 L94 22 C94 46 107 91 134 158 L160 220 L359 220 L451 22 L382 22 L382 -2 C457 1 514 2 551 2 C588 2 645 1 718 -2 L718 22 L670 22 L359 673 Z M171 245 L254 443 L347 245 L171 245 Z M465 913 C449 851 411 825 336 825 C257 825 219 850 202 913 L183 913 C188 863 195 838 212 806 C240 756 284 727 334 727 C416 727 473 798 484 913 L465 913 Z " />
<glyph glyph-name="abreve" unicode="&#x103;" horiz-adv-x="558" d="M314 256 C243 253 199 249 164 243 C67 225 25 185 25 111 C25 33 82 -13 180 -13 C226 -13 265 -1 290 20 C308 36 317 53 328 92 C327 54 327 42 327 32 L327 -2 C379 1 413 2 445 2 C462 2 499 1 542 -2 L542 18 L496 18 L496 256 C496 323 486 358 459 384 C426 416 358 433 267 433 C131 433 56 397 56 332 C56 292 85 271 139 271 C189 271 215 289 215 323 C215 330 214 340 213 351 C212 358 211 365 211 370 C211 396 229 412 257 412 C300 412 314 388 314 315 L314 256 Z M314 233 C314 160 312 111 308 93 C299 54 280 32 255 32 C227 32 215 57 215 119 C215 158 220 185 231 202 C247 226 265 233 314 233 L314 233 Z M460 667 C447 589 405 559 308 559 C214 559 171 590 160 667 L143 667 C149 543 212 468 311 468 C410 468 476 547 477 667 L460 667 Z " />
<glyph glyph-name="Aogonek" unicode="&#x104;" horiz-adv-x="714" d="M359 673 L322 673 L109 167 C78 93 66 69 36 22 L-1 22 L-1 -2 C33 1 62 2 77 2 C99 2 126 1 165 -2 L165 22 L94 22 C94 46 107 91 134 158 L160 220 L359 220 L451 22 L382 22 L382 -2 C457 1 514 2 551 2 C588 2 645 1 718 -2 L718 22 L670 22 L359 673 Z M171 245 L254 443 L347 245 L171 245 Z M629 -20 L560 -175 C547 -204 541 -224 541 -240 C541 -267 562 -287 589 -287 C611 -287 635 -275 655 -255 C673 -236 682 -212 682 -178 C682 -160 679 -141 673 -114 L652 -20 L629 -20 Z " />
<glyph glyph-name="aogonek" unicode="&#x105;" horiz-adv-x="558" d="M314 256 C243 253 199 249 164 243 C67 225 25 185 25 111 C25 33 82 -13 180 -13 C226 -13 265 -1 290 20 C308 36 317 53 328 92 C327 54 327 42 327 32 L327 -2 C379 1 413 2 445 2 C462 2 499 1 542 -2 L542 18 L496 18 L496 256 C496 323 486 358 459 384 C426 416 358 433 267 433 C131 433 56 397 56 332 C56 292 85 271 139 271 C189 271 215 289 215 323 C215 330 214 340 213 351 C212 358 211 365 211 370 C211 396 229 412 257 412 C300 412 314 388 314 315 L314 256 Z M314 233 C314 160 312 111 308 93 C299 54 280 32 255 32 C227 32 215 57 215 119 C215 158 220 185 231 202 C247 226 265 233 314 233 L314 233 Z M461 -24 L392 -178 C379 -209 373 -228 373 -243 C373 -270 394 -290 421 -290 C443 -290 467 -278 487 -258 C505 -239 514 -215 514 -182 C514 -163 511 -144 505 -118 L484 -24 L461 -24 Z " />
<glyph glyph-name="Cacute" unicode="&#x106;" horiz-adv-x="680" d="M624 457 C623 501 622 535 622 557 C622 579 623 612 624 656 L610 656 C596 657 572 660 540 666 C492 675 442 680 394 680 C270 680 168 642 112 576 C64 519 39 437 39 336 C39 224 69 134 127 75 C184 16 275 -13 403 -13 C456 -13 489 -9 551 4 C596 14 604 15 632 17 C630 73 629 122 629 144 C629 178 629 189 630 228 L600 228 C586 83 531 13 430 13 C393 13 356 26 332 49 C274 101 247 193 247 339 C247 467 265 550 306 604 C331 637 376 659 422 659 C485 659 539 623 569 561 C583 530 589 507 594 457 L624 457 Z M204 725 L379 761 C458 778 487 798 487 838 C487 873 460 897 421 897 C374 897 309 859 245 793 L194 742 L204 725 Z " />
<glyph glyph-name="cacute" unicode="&#x107;" horiz-adv-x="488" d="M458 116 C428 48 383 14 323 14 C288 14 255 35 241 67 C225 102 218 148 218 221 C218 347 239 413 280 413 C299 413 312 400 312 381 C312 372 310 358 307 344 C304 328 302 312 302 302 C302 258 334 234 392 234 C452 234 480 258 480 308 C480 387 406 430 273 430 C111 430 27 355 27 212 C27 68 112 -10 270 -10 C337 -10 393 6 431 37 C453 55 464 71 478 107 L458 116 Z M170 452 L328 538 C394 573 415 594 415 621 C415 652 388 673 346 673 C310 673 282 661 253 632 C226 605 205 574 189 538 L157 468 L170 452 Z " />
<glyph glyph-name="Ccaron" unicode="&#x10c;" horiz-adv-x="680" d="M624 457 C623 501 622 535 622 557 C622 579 623 612 624 656 L610 656 C596 657 572 660 540 666 C492 675 442 680 394 680 C270 680 168 642 112 576 C64 519 39 437 39 336 C39 224 69 134 127 75 C184 16 275 -13 403 -13 C456 -13 489 -9 551 4 C596 14 604 15 632 17 C630 73 629 122 629 144 C629 178 629 189 630 228 L600 228 C586 83 531 13 430 13 C393 13 356 26 332 49 C274 101 247 193 247 339 C247 467 265 550 306 604 C331 637 376 659 422 659 C485 659 539 623 569 561 C583 530 589 507 594 457 L624 457 Z M148 875 L323 726 L352 726 L532 875 L521 899 L339 862 L158 899 L148 875 Z " />
<glyph glyph-name="ccaron" unicode="&#x10d;" horiz-adv-x="488" d="M458 116 C428 48 383 14 323 14 C288 14 255 35 241 67 C225 102 218 148 218 221 C218 347 239 413 280 413 C299 413 312 400 312 381 C312 372 310 358 307 344 C304 328 302 312 302 302 C302 258 334 234 392 234 C452 234 480 258 480 308 C480 387 406 430 273 430 C111 430 27 355 27 212 C27 68 112 -10 270 -10 C337 -10 393 6 431 37 C453 55 464 71 478 107 L458 116 Z M228 454 L257 454 L429 655 L415 672 L242 603 L73 672 L58 655 L228 454 Z " />
<glyph glyph-name="Dcaron" unicode="&#x10e;" horiz-adv-x="783" d="M18 645 L86 645 L86 22 L18 22 L18 -2 C70 0 97 0 129 0 L323 -2 C454 -2 523 10 594 46 C693 97 742 192 742 336 C742 461 701 556 625 606 C554 653 481 668 326 668 L161 666 C113 666 92 666 18 669 L18 645 Z M282 22 L282 645 L315 645 C400 645 438 632 473 591 C514 543 534 459 534 329 C534 206 514 123 474 77 C439 37 396 22 313 22 L282 22 Z M114 875 L289 726 L318 726 L497 875 L486 899 L304 862 L124 899 L114 875 Z " />
<glyph glyph-name="dcaron" unicode="&#x10f;" horiz-adv-x="763" d="M351 -5 C405 0 442 2 473 2 C494 2 533 -1 580 -5 L580 18 L531 18 L531 669 C480 666 440 665 415 665 C389 665 350 666 298 669 L298 648 L351 648 L351 458 C352 383 353 377 357 342 C343 376 333 391 311 406 C285 424 251 434 213 434 C94 434 26 353 26 214 C26 72 95 -10 213 -10 C258 -10 298 4 323 28 C336 41 343 53 357 83 C352 55 351 44 351 23 L351 -5 Z M273 399 C294 399 315 384 329 359 C349 322 356 280 356 204 C356 135 348 94 328 61 C312 36 295 24 275 24 C233 24 217 76 217 219 C217 352 232 399 273 399 L273 399 Z M588 302 C646 340 678 370 713 419 C753 476 777 538 777 588 C777 648 732 692 669 692 C612 692 572 654 572 599 C572 550 595 521 654 493 C677 482 685 472 685 455 C685 414 642 362 576 322 L588 302 Z " />
<glyph glyph-name="Dcroat" unicode="&#x110;" horiz-adv-x="783" d="M17 645 L86 645 L86 349 L17 349 L17 328 L86 328 L86 22 L17 22 L17 -2 C117 0 122 0 149 0 L328 -2 C452 -2 525 11 595 46 C694 96 742 191 742 336 C742 459 701 553 626 605 C556 652 483 667 322 667 L182 666 L154 666 C95 666 79 666 17 669 L17 645 Z M282 22 L282 328 L423 328 L423 349 L282 349 L282 645 L315 645 C400 645 439 632 473 591 C515 541 535 458 535 334 C535 208 515 123 473 76 C439 36 396 22 312 22 L282 22 Z " />
<glyph glyph-name="dcroat" unicode="&#x111;" horiz-adv-x="593" d="M353 -5 C407 0 444 2 475 2 C495 2 535 -1 581 -5 L581 18 L533 18 L533 526 L581 526 L581 547 L533 547 L533 669 C482 666 442 665 417 665 C391 665 352 666 300 669 L300 648 L353 648 L353 547 L216 547 L216 526 L353 526 L353 458 C354 399 355 377 359 341 C345 376 335 390 314 405 C287 424 253 434 215 434 C97 434 28 353 28 213 C28 72 97 -10 216 -10 C261 -10 300 4 325 29 C337 41 345 54 359 84 C354 54 353 41 353 23 L353 -5 Z M273 398 C295 398 317 383 330 358 C349 322 357 277 357 202 C357 94 326 24 277 24 C256 24 240 40 233 65 C224 97 218 177 218 264 C218 352 237 398 273 398 L273 398 Z " />
<glyph glyph-name="Emacron" unicode="&#x112;" horiz-adv-x="627" d="M576 486 L575 517 L575 577 L576 644 L576 669 L522 668 C506 668 475 667 438 666 C402 665 364 665 360 665 L227 665 C200 665 193 665 116 667 C78 668 66 668 17 669 L17 645 L85 645 L85 22 L17 22 L17 -2 C72 -1 85 -1 147 1 C183 2 218 2 227 2 L372 2 C379 2 415 2 450 1 L484 0 C522 -1 538 -1 588 -2 C586 60 586 70 586 96 C586 125 586 138 588 191 L559 191 C552 68 502 22 372 22 L280 22 L280 332 L311 332 C405 333 449 296 450 217 L476 217 C474 295 473 337 473 342 C473 349 474 382 475 427 L476 467 L450 467 C447 389 403 354 309 356 L280 356 L280 645 L377 645 C488 648 541 598 546 486 L576 486 Z M133 802 L133 733 L480 733 L480 802 L133 802 Z " />
<glyph glyph-name="emacron" unicode="&#x113;" horiz-adv-x="540" d="M515 214 C513 277 504 311 477 347 C438 403 366 433 271 433 C194 433 129 413 91 379 C49 341 25 280 25 211 C25 138 47 81 89 45 C133 8 203 -13 280 -13 C350 -13 414 5 452 36 C475 55 489 73 506 108 L484 119 C453 50 395 12 321 12 C243 12 213 60 213 183 L213 214 L515 214 Z M325 236 L214 236 L214 255 C214 302 221 360 228 379 C237 403 251 414 271 414 C309 414 324 372 325 266 L325 254 L325 236 Z M97 585 L97 516 L444 516 L444 585 L97 585 Z " />
<glyph glyph-name="Edotaccent" unicode="&#x116;" horiz-adv-x="627" d="M576 486 L575 517 L575 577 L576 644 L576 669 L522 668 C506 668 475 667 438 666 C402 665 364 665 360 665 L227 665 C200 665 193 665 116 667 C78 668 66 668 17 669 L17 645 L85 645 L85 22 L17 22 L17 -2 C72 -1 85 -1 147 1 C183 2 218 2 227 2 L372 2 C379 2 415 2 450 1 L484 0 C522 -1 538 -1 588 -2 C586 60 586 70 586 96 C586 125 586 138 588 191 L559 191 C552 68 502 22 372 22 L280 22 L280 332 L311 332 C405 333 449 296 450 217 L476 217 C474 295 473 337 473 342 C473 349 474 382 475 427 L476 467 L450 467 C447 389 403 354 309 356 L280 356 L280 645 L377 645 C488 648 541 598 546 486 L576 486 Z M299 887 C247 887 216 858 216 809 C216 762 249 732 301 732 C349 732 382 763 382 808 C382 855 349 887 299 887 L299 887 Z " />
<glyph glyph-name="edotaccent" unicode="&#x117;" horiz-adv-x="540" d="M515 214 C513 277 504 311 477 347 C438 403 366 433 271 433 C194 433 129 413 91 379 C49 341 25 280 25 211 C25 138 47 81 89 45 C133 8 203 -13 280 -13 C350 -13 414 5 452 36 C475 55 489 73 506 108 L484 119 C453 50 395 12 321 12 C243 12 213 60 213 183 L213 214 L515 214 Z M325 236 L214 236 L214 255 C214 302 221 360 228 379 C237 403 251 414 271 414 C309 414 324 372 325 266 L325 254 L325 236 Z M271 621 C219 621 188 592 188 543 C188 496 220 466 272 466 C320 466 353 497 353 542 C353 589 320 621 271 621 L271 621 Z " />
<glyph glyph-name="Eogonek" unicode="&#x118;" horiz-adv-x="627" d="M576 486 L575 517 L575 577 L576 644 L576 669 L522 668 C506 668 475 667 438 666 C402 665 364 665 360 665 L227 665 C200 665 193 665 116 667 C78 668 66 668 17 669 L17 645 L85 645 L85 22 L17 22 L17 -2 C72 -1 85 -1 147 1 C183 2 218 2 227 2 L372 2 C379 2 415 2 450 1 L484 0 C522 -1 538 -1 588 -2 C586 60 586 70 586 96 C586 125 586 138 588 191 L559 191 C552 68 502 22 372 22 L280 22 L280 332 L311 332 C405 333 449 296 450 217 L476 217 C474 295 473 337 473 342 C473 349 474 382 475 427 L476 467 L450 467 C447 389 403 354 309 356 L280 356 L280 645 L377 645 C488 648 541 598 546 486 L576 486 Z M514 -24 L445 -178 C433 -205 426 -228 426 -243 C426 -270 447 -290 474 -290 C496 -290 519 -278 539 -258 C558 -239 566 -215 566 -182 C566 -163 563 -142 558 -118 L536 -24 L514 -24 Z " />
<glyph glyph-name="eogonek" unicode="&#x119;" horiz-adv-x="540" d="M515 214 C513 277 504 311 477 347 C438 403 366 433 271 433 C194 433 129 413 91 379 C49 341 25 280 25 211 C25 138 47 81 89 45 C133 8 203 -13 280 -13 C350 -13 414 5 452 36 C475 55 489 73 506 108 L484 119 C453 50 395 12 321 12 C243 12 213 60 213 183 L213 214 L515 214 Z M325 236 L214 236 L214 255 C214 302 221 360 228 379 C237 403 251 414 271 414 C309 414 324 372 325 266 L325 254 L325 236 Z M263 -29 L194 -184 C181 -214 175 -234 175 -249 C175 -276 196 -296 223 -296 C245 -296 269 -284 289 -264 C307 -245 316 -221 316 -188 C316 -170 313 -150 307 -124 L286 -30 L263 -29 Z " />
<glyph glyph-name="Ecaron" unicode="&#x11a;" horiz-adv-x="627" d="M576 486 L575 517 L575 577 L576 644 L576 669 L522 668 C506 668 475 667 438 666 C402 665 364 665 360 665 L227 665 C200 665 193 665 116 667 C78 668 66 668 17 669 L17 645 L85 645 L85 22 L17 22 L17 -2 C72 -1 85 -1 147 1 C183 2 218 2 227 2 L372 2 C379 2 415 2 450 1 L484 0 C522 -1 538 -1 588 -2 C586 60 586 70 586 96 C586 125 586 138 588 191 L559 191 C552 68 502 22 372 22 L280 22 L280 332 L311 332 C405 333 449 296 450 217 L476 217 C474 295 473 337 473 342 C473 349 474 382 475 427 L476 467 L450 467 C447 389 403 354 309 356 L280 356 L280 645 L377 645 C488 648 541 598 546 486 L576 486 Z M84 875 L259 726 L288 726 L468 875 L457 899 L275 862 L95 899 L84 875 Z " />
<glyph glyph-name="ecaron" unicode="&#x11b;" horiz-adv-x="540" d="M515 214 C513 277 504 311 477 347 C438 403 366 433 271 433 C194 433 129 413 91 379 C49 341 25 280 25 211 C25 138 47 81 89 45 C133 8 203 -13 280 -13 C350 -13 414 5 452 36 C475 55 489 73 506 108 L484 119 C453 50 395 12 321 12 C243 12 213 60 213 183 L213 214 L515 214 Z M325 236 L214 236 L214 255 C214 302 221 360 228 379 C237 403 251 414 271 414 C309 414 324 372 325 266 L325 254 L325 236 Z M255 487 L284 487 L456 688 L442 705 L269 637 L100 705 L85 688 L255 487 Z " />
<glyph glyph-name="Gbreve" unicode="&#x11e;" horiz-adv-x="766" d="M684 456 C682 524 682 534 682 560 C682 587 682 608 684 650 C640 652 635 652 583 663 C526 674 470 680 416 680 C168 680 39 563 39 337 C39 227 69 141 130 79 C191 16 277 -13 400 -13 C461 -13 482 -11 593 5 C636 11 658 13 684 13 L702 13 L702 260 L767 260 L767 283 C654 281 632 281 615 281 L484 283 L437 283 L437 260 L511 260 L511 28 C476 15 445 9 413 9 C299 9 247 110 247 335 C247 439 259 502 291 558 C327 623 383 656 459 656 C530 656 589 625 620 571 C638 539 645 514 653 456 L684 456 Z M514 894 C498 832 459 806 385 806 C306 806 268 831 251 894 L232 894 C237 844 244 819 261 787 C289 737 333 708 383 708 C464 708 522 779 533 894 L514 894 Z " />
<glyph glyph-name="gbreve" unicode="&#x11f;" horiz-adv-x="540" d="M522 421 L345 421 C306 428 286 430 252 430 C186 430 140 420 101 397 C62 372 37 327 37 279 C37 213 71 169 141 145 C81 114 56 81 56 32 C56 3 64 -17 85 -41 C29 -63 7 -85 7 -121 C7 -192 85 -229 231 -229 C424 -229 528 -173 528 -68 C528 -17 498 25 450 40 C421 49 377 55 326 57 L245 61 C160 65 138 73 138 102 C138 119 148 129 172 138 C202 132 226 130 265 130 C325 130 375 138 406 152 C456 176 483 221 483 279 C483 325 468 355 431 383 L522 383 L522 421 Z M260 411 C301 411 316 374 316 277 C316 190 298 150 261 150 C221 150 204 187 204 271 C204 369 221 411 260 411 L260 411 Z M325 -87 C406 -89 435 -101 435 -131 C435 -173 360 -202 256 -202 C151 -202 84 -162 84 -100 C84 -79 89 -67 103 -57 C141 -77 159 -81 235 -84 L325 -87 Z M409 667 C396 589 353 559 257 559 C162 559 119 590 108 667 L91 667 C97 543 160 468 259 468 C359 468 425 547 425 667 L409 667 Z " />
<glyph glyph-name="Gcommaaccent" unicode="&#x122;" horiz-adv-x="766" d="M684 456 C682 524 682 534 682 560 C682 587 682 608 684 650 C640 652 635 652 583 663 C526 674 470 680 416 680 C168 680 39 563 39 337 C39 227 69 141 130 79 C191 16 277 -13 400 -13 C461 -13 482 -11 593 5 C636 11 658 13 684 13 L702 13 L702 260 L767 260 L767 283 C654 281 632 281 615 281 L484 283 L437 283 L437 260 L511 260 L511 28 C476 15 445 9 413 9 C299 9 247 110 247 335 C247 439 259 502 291 558 C327 623 383 656 459 656 C530 656 589 625 620 571 C638 539 645 514 653 456 L684 456 Z M312 -469 C370 -431 402 -401 437 -352 C477 -295 501 -233 501 -183 C501 -123 456 -79 393 -79 C336 -79 296 -117 296 -172 C296 -221 319 -250 378 -278 C401 -289 409 -299 409 -317 C409 -357 366 -409 300 -449 L312 -469 Z " />
<glyph glyph-name="gcommaaccent" unicode="&#x123;" horiz-adv-x="540" d="M522 421 L345 421 C306 428 286 430 252 430 C186 430 140 420 101 397 C62 372 37 327 37 279 C37 213 71 169 141 145 C81 114 56 81 56 32 C56 3 64 -17 85 -41 C29 -63 7 -85 7 -121 C7 -192 85 -229 231 -229 C424 -229 528 -173 528 -68 C528 -17 498 25 450 40 C421 49 377 55 326 57 L245 61 C160 65 138 73 138 102 C138 119 148 129 172 138 C202 132 226 130 265 130 C325 130 375 138 406 152 C456 176 483 221 483 279 C483 325 468 355 431 383 L522 383 L522 421 Z M260 411 C301 411 316 374 316 277 C316 190 298 150 261 150 C221 150 204 187 204 271 C204 369 221 411 260 411 L260 411 Z M325 -87 C406 -89 435 -101 435 -131 C435 -173 360 -202 256 -202 C151 -202 84 -162 84 -100 C84 -79 89 -67 103 -57 C141 -77 159 -81 235 -84 L325 -87 Z M340 911 C282 873 250 843 215 794 C175 737 151 675 151 625 C151 565 196 521 259 521 C316 521 356 559 356 614 C356 663 333 692 274 720 C251 731 243 741 243 758 C243 798 286 851 352 891 L340 911 Z " />
<glyph glyph-name="Imacron" unicode="&#x12a;" horiz-adv-x="355" d="M280 645 L345 645 L345 669 C273 666 217 665 180 665 C145 665 89 666 17 669 L17 645 L84 645 L84 22 L17 22 L17 -2 C90 1 146 2 183 2 C218 2 274 1 345 -2 L345 22 L280 22 L280 645 Z M4 802 L4 733 L351 733 L351 802 L4 802 Z " />
<glyph glyph-name="imacron" unicode="&#x12b;" horiz-adv-x="314" d="M247 422 C195 419 156 418 129 418 C104 418 64 419 14 422 L14 402 L66 402 L66 18 L14 18 L14 -2 C75 1 123 2 154 2 C185 2 233 1 296 -2 L296 18 L247 18 L247 422 Z M-16 585 L-16 516 L331 516 L331 585 L-16 585 Z " />
<glyph glyph-name="Iogonek" unicode="&#x12e;" horiz-adv-x="355" d="M280 645 L345 645 L345 669 C273 666 217 665 180 665 C145 665 89 666 17 669 L17 645 L84 645 L84 22 L17 22 L17 -2 C90 1 146 2 183 2 C218 2 274 1 345 -2 L345 22 L280 22 L280 645 Z M233 -20 L164 -175 C151 -202 145 -224 145 -240 C145 -267 166 -287 193 -287 C215 -287 239 -275 259 -255 C277 -236 286 -212 286 -178 C286 -160 284 -143 277 -114 L255 -20 L233 -20 Z " />
<glyph glyph-name="iogonek" unicode="&#x12f;" horiz-adv-x="314" d="M247 422 C195 419 156 418 129 418 C104 418 65 419 14 422 L14 402 L66 402 L66 18 L14 18 L14 -2 C76 1 123 2 154 2 C185 2 233 1 296 -2 L296 18 L247 18 L247 422 Z M155 675 C90 675 48 637 48 578 C48 519 90 484 161 484 C226 484 265 519 265 576 C265 639 225 675 155 675 L155 675 Z M175 -24 L106 -178 C93 -207 87 -228 87 -243 C87 -270 108 -290 135 -290 C157 -290 181 -278 201 -258 C219 -239 228 -215 228 -182 C228 -164 225 -146 219 -118 L197 -24 L175 -24 Z " />
<glyph glyph-name="Idotaccent" unicode="&#x130;" horiz-adv-x="355" d="M280 645 L345 645 L345 669 C273 666 217 665 180 665 C145 665 89 666 17 669 L17 645 L84 645 L84 22 L17 22 L17 -2 C90 1 146 2 183 2 C218 2 274 1 345 -2 L345 22 L280 22 L280 645 Z M177 887 C125 887 94 858 94 809 C94 762 127 732 179 732 C227 732 260 763 260 808 C260 855 227 887 177 887 L177 887 Z " />
<glyph glyph-name="dotlessi" unicode="&#x131;" horiz-adv-x="314" d="M247 422 C195 419 156 418 129 418 C104 418 65 419 14 422 L14 402 L66 402 L66 18 L14 18 L14 -2 C76 1 123 2 154 2 C185 2 233 1 296 -2 L296 18 L247 18 L247 422 Z " />
<glyph glyph-name="Kcommaaccent" unicode="&#x136;" horiz-adv-x="763" d="M429 458 L531 555 C572 594 606 623 639 645 L701 645 L701 669 C658 666 624 665 602 665 C579 665 546 666 501 669 L501 645 L569 645 C557 625 548 615 501 565 L276 350 L276 645 L343 645 L343 669 C270 666 214 665 178 665 C142 665 87 666 15 669 L15 645 L81 645 L81 22 L15 22 L15 -2 C89 1 143 2 181 2 C216 2 272 1 343 -2 L343 22 L276 22 L276 339 L480 22 L416 22 L416 -2 C493 1 553 2 591 2 C631 2 691 1 770 -2 L770 22 L714 22 L429 458 Z M296 -469 C354 -431 386 -401 421 -352 C461 -295 485 -233 485 -183 C485 -123 440 -79 377 -79 C320 -79 280 -117 280 -172 C280 -221 303 -250 362 -278 C385 -289 393 -299 393 -317 C393 -357 350 -410 284 -449 L296 -469 Z " />
<glyph glyph-name="kcommaaccent" unicode="&#x137;" horiz-adv-x="592" d="M392 332 L420 354 C457 384 459 385 498 402 L550 402 L550 422 C509 419 477 418 457 418 C435 418 403 419 360 422 L360 402 L428 402 C413 378 410 375 385 354 L243 233 L243 669 C192 666 153 665 127 665 C101 665 62 666 11 669 L11 648 L62 648 L62 18 L11 18 L11 -2 C73 1 121 2 151 2 C184 2 232 1 295 -2 L295 18 L243 18 L243 225 L360 -2 C412 1 452 2 478 2 C503 2 543 1 595 -2 L595 18 L558 18 L392 332 Z M151 -469 C209 -431 241 -401 276 -352 C316 -295 340 -233 340 -183 C340 -123 295 -79 233 -79 C176 -79 136 -118 136 -172 C136 -221 158 -250 217 -278 C240 -289 248 -299 248 -317 C248 -357 205 -409 140 -449 L151 -469 Z " />
<glyph glyph-name="Lacute" unicode="&#x139;" horiz-adv-x="575" d="M537 207 C530 68 482 22 349 22 L276 22 L276 645 L344 645 L344 669 C271 666 215 665 178 665 C143 665 87 666 15 669 L15 645 L81 645 L81 22 L15 22 L15 -2 C70 -1 84 -1 145 1 C182 2 216 2 225 2 L352 2 C359 2 395 2 430 1 L464 0 C502 -1 518 -1 568 -2 C565 29 564 42 564 70 C564 115 565 159 568 207 L537 207 Z M235 725 L411 761 C491 778 519 798 519 838 C519 873 492 897 453 897 C406 897 341 859 277 793 L226 742 L235 725 Z " />
<glyph glyph-name="lacute" unicode="&#x13a;" horiz-adv-x="314" d="M247 669 C196 666 157 665 131 665 C105 665 66 666 15 669 L15 648 L65 648 L65 18 L15 18 L15 -2 C77 1 125 2 155 2 C187 2 235 1 298 -2 L298 18 L247 18 L247 669 Z M151 724 L309 809 C374 845 396 866 396 893 C396 924 369 945 327 945 C291 945 263 933 234 903 C207 877 186 846 169 809 L138 739 L151 724 Z " />
<glyph glyph-name="Lcommaaccent" unicode="&#x13b;" horiz-adv-x="575" d="M537 207 C530 68 482 22 349 22 L276 22 L276 645 L344 645 L344 669 C271 666 215 665 178 665 C143 665 87 666 15 669 L15 645 L81 645 L81 22 L15 22 L15 -2 C70 -1 84 -1 145 1 C182 2 216 2 225 2 L352 2 C359 2 395 2 430 1 L464 0 C502 -1 518 -1 568 -2 C565 29 564 42 564 70 C564 115 565 159 568 207 L537 207 Z M143 -469 C201 -431 233 -401 268 -352 C308 -295 332 -233 332 -183 C332 -123 287 -79 224 -79 C167 -79 127 -117 127 -172 C127 -221 150 -250 209 -278 C232 -289 240 -299 240 -317 C240 -357 197 -409 131 -449 L143 -469 Z " />
<glyph glyph-name="lcommaaccent" unicode="&#x13c;" horiz-adv-x="314" d="M247 669 C196 666 157 665 131 665 C105 665 66 666 15 669 L15 648 L65 648 L65 18 L15 18 L15 -2 C77 1 125 2 155 2 C187 2 235 1 298 -2 L298 18 L247 18 L247 669 Z M67 -469 C125 -431 157 -401 192 -352 C232 -296 256 -233 256 -183 C256 -123 211 -79 149 -79 C92 -79 52 -118 52 -172 C52 -221 74 -250 133 -278 C156 -289 164 -299 164 -317 C164 -357 121 -409 56 -449 L67 -469 Z " />
<glyph glyph-name="Lcaron" unicode="&#x13d;" horiz-adv-x="575" d="M537 207 C530 68 482 22 349 22 L276 22 L276 645 L344 645 L344 669 C271 666 215 665 178 665 C143 665 87 666 15 669 L15 645 L81 645 L81 22 L15 22 L15 -2 C70 -1 84 -1 145 1 C182 2 216 2 225 2 L352 2 C359 2 395 2 430 1 L464 0 C502 -1 518 -1 568 -2 C565 29 564 42 564 70 C564 115 565 159 568 207 L537 207 Z M414 315 C472 353 504 383 540 432 C580 489 604 551 604 601 C604 661 559 705 496 705 C439 705 399 667 399 612 C399 563 422 534 480 506 C503 495 511 485 511 468 C511 427 468 375 403 335 L414 315 Z " />
<glyph glyph-name="lcaron" unicode="&#x13e;" horiz-adv-x="314" d="M247 669 C196 666 157 665 131 665 C105 665 66 666 15 669 L15 648 L65 648 L65 18 L15 18 L15 -2 C77 1 125 2 155 2 C187 2 235 1 298 -2 L298 18 L247 18 L247 669 Z M307 312 C366 350 397 380 433 429 C473 486 497 548 497 598 C497 658 452 702 389 702 C332 702 292 664 292 609 C292 560 315 531 373 503 C396 492 404 482 404 465 C404 424 361 372 296 332 L307 312 Z " />
<glyph glyph-name="Lslash" unicode="&#x141;" horiz-adv-x="576" d="M537 207 C532 71 480 20 349 22 L276 22 L276 357 L440 482 L440 517 L276 393 L276 645 L343 645 L343 669 C270 666 215 665 178 665 C142 665 86 666 14 669 L14 645 L81 645 L81 249 L14 197 L14 163 L81 214 L81 22 L14 22 L14 -2 C70 -1 83 -1 144 1 C180 2 215 2 224 2 L352 2 C359 2 395 2 430 1 L464 0 C502 -1 518 -1 568 -2 C565 35 564 49 564 93 C564 146 565 169 568 207 L537 207 Z " />
<glyph glyph-name="lslash" unicode="&#x142;" horiz-adv-x="315" d="M247 669 C195 666 156 665 130 665 C105 665 65 666 14 669 L14 648 L64 648 L64 291 L14 254 L14 227 L64 264 L64 18 L14 18 L14 -2 C76 1 125 2 155 2 C188 2 236 1 300 -2 L300 18 L247 18 L247 400 L300 441 L300 469 L247 427 L247 669 Z " />
<glyph glyph-name="Nacute" unicode="&#x143;" horiz-adv-x="731" d="M590 -7 L655 -7 L655 477 C656 542 660 599 669 645 L730 645 L730 669 C691 666 660 665 642 665 C620 665 590 666 549 669 L549 645 L614 645 C622 605 626 557 628 477 L628 266 L304 669 C246 666 195 665 172 665 C126 665 80 666 7 669 L7 645 L74 645 L74 192 C73 121 69 69 61 22 L0 22 L0 -2 C39 1 69 2 88 2 C108 2 137 1 176 -2 L176 22 L115 22 C105 83 101 125 101 192 L101 610 L590 -7 Z M229 725 L405 761 C483 778 512 798 512 838 C512 873 485 897 446 897 C399 897 335 859 270 793 L219 742 L229 725 Z " />
<glyph glyph-name="nacute" unicode="&#x144;" horiz-adv-x="596" d="M226 422 C176 419 140 418 113 418 C92 418 55 419 9 422 L9 402 L58 402 L58 18 L9 18 L9 -2 C70 1 117 2 147 2 C178 2 225 1 286 -2 L286 18 L241 18 L241 230 C241 288 246 324 259 352 C270 377 293 394 314 394 C326 394 339 387 344 377 C352 364 355 340 355 293 L355 18 L310 18 L310 -2 C371 1 418 2 449 2 C480 2 527 1 589 -2 L589 18 L538 18 L538 269 C538 325 530 356 508 382 C480 413 435 430 378 430 C333 430 298 420 272 399 C248 379 236 356 226 305 L226 422 Z M183 452 L340 538 C405 573 427 594 427 621 C427 652 400 673 359 673 C322 673 294 661 265 632 C239 605 217 574 201 538 L169 468 L183 452 Z " />
<glyph glyph-name="Ncommaaccent" unicode="&#x145;" horiz-adv-x="731" d="M590 -7 L655 -7 L655 477 C656 542 660 599 669 645 L730 645 L730 669 C691 666 660 665 642 665 C620 665 590 666 549 669 L549 645 L614 645 C622 605 626 557 628 477 L628 266 L304 669 C246 666 195 665 172 665 C126 665 80 666 7 669 L7 645 L74 645 L74 192 C73 121 69 69 61 22 L0 22 L0 -2 C39 1 69 2 88 2 C108 2 137 1 176 -2 L176 22 L115 22 C105 83 101 125 101 192 L101 610 L590 -7 Z M248 -469 C306 -431 338 -401 374 -352 C414 -295 438 -233 438 -183 C438 -123 392 -79 330 -79 C273 -79 233 -117 233 -172 C233 -221 255 -250 314 -278 C337 -289 345 -299 345 -317 C345 -357 302 -410 237 -449 L248 -469 Z " />
<glyph glyph-name="ncommaaccent" unicode="&#x146;" horiz-adv-x="596" d="M226 422 C176 419 140 418 113 418 C92 418 55 419 9 422 L9 402 L58 402 L58 18 L9 18 L9 -2 C70 1 117 2 147 2 C178 2 225 1 286 -2 L286 18 L241 18 L241 230 C241 288 246 324 259 352 C270 377 293 394 314 394 C326 394 339 387 344 377 C352 364 355 340 355 293 L355 18 L310 18 L310 -2 C371 1 418 2 449 2 C480 2 527 1 589 -2 L589 18 L538 18 L538 269 C538 325 530 356 508 382 C480 413 435 430 378 430 C333 430 298 420 272 399 C248 379 236 356 226 305 L226 422 Z M209 -469 C268 -431 299 -401 335 -352 C375 -295 399 -233 399 -183 C399 -123 354 -79 291 -79 C234 -79 194 -117 194 -172 C194 -221 216 -250 275 -278 C298 -289 306 -299 306 -317 C306 -357 263 -409 198 -449 L209 -469 Z " />
<glyph glyph-name="Ncaron" unicode="&#x147;" horiz-adv-x="731" d="M590 -7 L655 -7 L655 477 C656 542 660 599 669 645 L730 645 L730 669 C691 666 660 665 642 665 C620 665 590 666 549 669 L549 645 L614 645 C622 605 626 557 628 477 L628 266 L304 669 C246 666 195 665 172 665 C126 665 80 666 7 669 L7 645 L74 645 L74 192 C73 121 69 69 61 22 L0 22 L0 -2 C39 1 69 2 88 2 C108 2 137 1 176 -2 L176 22 L115 22 C105 83 101 125 101 192 L101 610 L590 -7 Z M174 875 L348 726 L378 726 L557 875 L546 899 L364 862 L184 899 L174 875 Z " />
<glyph glyph-name="ncaron" unicode="&#x148;" horiz-adv-x="596" d="M226 422 C176 419 140 418 113 418 C92 418 55 419 9 422 L9 402 L58 402 L58 18 L9 18 L9 -2 C70 1 117 2 147 2 C178 2 225 1 286 -2 L286 18 L241 18 L241 230 C241 288 246 324 259 352 C270 377 293 394 314 394 C326 394 339 387 344 377 C352 364 355 340 355 293 L355 18 L310 18 L310 -2 C371 1 418 2 449 2 C480 2 527 1 589 -2 L589 18 L538 18 L538 269 C538 325 530 356 508 382 C480 413 435 430 378 430 C333 430 298 420 272 399 C248 379 236 356 226 305 L226 422 Z M283 454 L312 454 L484 655 L469 672 L297 603 L127 672 L112 655 L283 454 Z " />
<glyph glyph-name="Omacron" unicode="&#x14c;" horiz-adv-x="802" d="M396 684 C294 684 211 659 148 609 C73 550 37 461 37 333 C37 108 166 -17 399 -17 C632 -17 760 105 760 328 C760 562 635 684 396 684 L396 684 Z M395 662 C455 662 506 622 527 558 C545 502 554 428 554 334 C554 255 545 176 531 122 C511 49 462 6 398 6 C291 6 243 106 243 327 C243 445 256 535 281 584 C307 635 346 662 395 662 L395 662 Z M227 802 L227 733 L574 733 L574 802 L227 802 Z " />
<glyph glyph-name="omacron" unicode="&#x14d;" horiz-adv-x="574" d="M288 433 C119 433 28 355 28 210 C28 67 120 -13 285 -13 C447 -13 542 68 542 207 C542 351 450 433 288 433 L288 433 Z M284 413 C332 413 351 356 351 205 C351 63 332 7 285 7 C238 7 218 68 218 216 C218 288 224 348 233 372 C243 399 261 413 284 413 L284 413 Z M114 585 L114 516 L461 516 L461 585 L114 585 Z " />
<glyph glyph-name="Ohungarumlaut" unicode="&#x150;" horiz-adv-x="802" d="M396 684 C294 684 211 659 148 609 C73 550 37 461 37 333 C37 108 166 -17 399 -17 C632 -17 760 105 760 328 C760 562 635 684 396 684 L396 684 Z M395 662 C455 662 506 622 527 558 C545 502 554 428 554 334 C554 255 545 176 531 122 C511 49 462 6 398 6 C291 6 243 106 243 327 C243 445 256 535 281 584 C307 635 346 662 395 662 L395 662 Z M184 725 L360 761 C438 778 467 798 467 838 C467 873 440 897 401 897 C354 897 290 859 225 793 L174 742 L184 725 Z M484 725 L660 761 C738 778 767 798 767 838 C767 873 740 897 701 897 C654 897 590 859 525 793 L474 742 L484 725 Z " />
<glyph glyph-name="ohungarumlaut" unicode="&#x151;" horiz-adv-x="574" d="M288 433 C119 433 28 355 28 210 C28 67 120 -13 285 -13 C447 -13 542 68 542 207 C542 351 450 433 288 433 L288 433 Z M284 413 C332 413 351 356 351 205 C351 63 332 7 285 7 C238 7 218 68 218 216 C218 288 224 348 233 372 C243 399 261 413 284 413 L284 413 Z M136 452 L294 538 C358 573 380 594 380 621 C380 652 353 673 312 673 C275 673 247 661 218 632 C192 605 171 574 154 538 L122 468 L136 452 Z M403 452 L560 538 C625 573 647 594 647 621 C647 652 620 673 579 673 C542 673 514 661 485 632 C459 605 437 574 421 538 L389 468 L403 452 Z " />
<glyph glyph-name="OE" unicode="&#x152;" horiz-adv-x="1010" d="M964 487 C962 534 961 569 961 612 C961 637 961 647 964 672 C910 670 872 669 835 669 L740 669 L590 669 L399 673 C278 673 199 649 134 592 C69 534 38 452 38 339 C38 114 163 -6 396 -6 C412 -6 453 -5 497 -4 C530 -3 562 -2 594 -2 L765 -2 L854 -2 C871 -2 902 -3 938 -4 L974 -5 C973 31 972 49 972 74 L972 94 L973 171 L973 192 L945 192 C940 72 883 20 761 22 L688 22 L688 334 L718 334 C798 331 836 292 834 217 L863 217 C861 279 860 308 860 344 C860 373 860 395 862 471 L835 471 C832 396 792 358 715 356 L688 356 L688 646 L739 646 C874 646 930 601 935 487 L964 487 Z M494 22 C472 18 463 17 442 17 C296 17 245 102 245 345 C245 456 256 518 285 571 C315 624 367 651 438 651 C455 651 468 650 494 644 L494 22 Z " />
<glyph glyph-name="oe" unicode="&#x153;" horiz-adv-x="852" d="M826 210 C824 271 816 302 793 337 C755 397 681 430 587 430 C555 430 521 426 495 420 C469 413 458 407 433 386 C390 419 352 430 278 430 C122 430 28 350 28 217 C28 137 55 74 104 39 C147 7 210 -10 279 -10 C355 -10 393 2 433 39 C484 3 526 -10 597 -10 C658 -10 715 5 754 31 C785 52 800 70 819 111 L799 121 C765 53 709 17 637 17 C593 17 562 33 544 66 C529 93 524 130 524 210 L826 210 Z M283 410 C331 410 348 354 348 200 C348 60 332 11 285 11 C238 11 218 71 218 218 C218 358 236 410 283 410 L283 410 Z M638 231 L524 231 C525 361 542 411 586 411 C625 411 638 372 638 256 L638 231 Z " />
<glyph glyph-name="Racute" unicode="&#x154;" horiz-adv-x="696" d="M703 22 C636 20 632 25 620 115 C609 226 607 233 594 257 C571 302 517 324 434 324 L403 324 L403 335 C544 345 615 400 615 499 C615 554 585 606 539 632 C493 658 442 667 342 667 L171 666 C165 666 112 667 14 669 L14 645 L78 645 L78 22 L14 22 L14 -2 C88 1 143 2 181 2 C216 2 273 1 344 -2 L344 22 L274 22 L274 311 L306 311 C397 307 409 288 422 131 C427 70 432 42 448 -2 C512 1 551 2 591 2 C610 2 654 1 703 -2 L703 22 Z M274 335 L274 645 L300 645 C383 645 413 604 413 491 C413 434 406 400 389 374 C372 350 340 335 306 335 L274 335 Z M182 725 L357 761 C436 778 465 798 465 838 C465 873 438 897 399 897 C352 897 287 859 223 793 L172 742 L182 725 Z " />
<glyph glyph-name="racute" unicode="&#x155;" horiz-adv-x="487" d="M232 422 C187 419 149 418 130 418 C100 418 65 419 13 422 L13 402 L62 402 L62 18 L13 18 L13 -2 C77 1 129 2 159 2 C195 2 246 1 314 -2 L314 18 L245 18 L245 233 C245 327 268 387 305 387 C316 387 326 377 326 366 C326 358 325 350 323 339 C321 329 320 318 320 308 C320 264 347 240 399 240 C453 240 480 268 480 326 C480 391 438 430 369 430 C325 430 286 414 263 386 C247 367 240 349 232 307 L232 344 L232 371 L232 422 Z M128 452 L286 538 C351 573 373 594 373 621 C373 652 346 673 304 673 C267 673 240 661 211 632 C184 605 163 574 146 538 L115 468 L128 452 Z " />
<glyph glyph-name="Rcommaaccent" unicode="&#x156;" horiz-adv-x="696" d="M703 22 C636 20 632 25 620 115 C609 226 607 233 594 257 C571 302 517 324 434 324 L403 324 L403 335 C544 345 615 400 615 499 C615 554 585 606 539 632 C493 658 442 667 342 667 L171 666 C165 666 112 667 14 669 L14 645 L78 645 L78 22 L14 22 L14 -2 C88 1 143 2 181 2 C216 2 273 1 344 -2 L344 22 L274 22 L274 311 L306 311 C397 307 409 288 422 131 C427 70 432 42 448 -2 C512 1 551 2 591 2 C610 2 654 1 703 -2 L703 22 Z M274 335 L274 645 L300 645 C383 645 413 604 413 491 C413 434 406 400 389 374 C372 350 340 335 306 335 L274 335 Z M273 -469 C331 -431 363 -401 399 -352 C439 -295 463 -233 463 -183 C463 -123 418 -79 355 -79 C298 -79 258 -117 258 -172 C258 -221 280 -250 339 -278 C362 -289 370 -299 370 -317 C370 -357 327 -410 262 -449 L273 -469 Z " />
<glyph glyph-name="rcommaaccent" unicode="&#x157;" horiz-adv-x="487" d="M232 422 C187 419 149 418 130 418 C100 418 65 419 13 422 L13 402 L62 402 L62 18 L13 18 L13 -2 C77 1 129 2 159 2 C195 2 246 1 314 -2 L314 18 L245 18 L245 233 C245 327 268 387 305 387 C316 387 326 377 326 366 C326 358 325 350 323 339 C321 329 320 318 320 308 C320 264 347 240 399 240 C453 240 480 268 480 326 C480 391 438 430 369 430 C325 430 286 414 263 386 C247 367 240 349 232 307 L232 344 L232 371 L232 422 Z M63 -469 C121 -431 153 -401 189 -352 C229 -295 253 -233 253 -183 C253 -123 207 -79 145 -79 C88 -79 48 -117 48 -172 C48 -221 70 -250 129 -278 C152 -289 160 -299 160 -317 C160 -357 117 -409 52 -449 L63 -469 Z " />
<glyph glyph-name="Rcaron" unicode="&#x158;" horiz-adv-x="696" d="M703 22 C636 20 632 25 620 115 C609 226 607 233 594 257 C571 302 517 324 434 324 L403 324 L403 335 C544 345 615 400 615 499 C615 554 585 606 539 632 C493 658 442 667 342 667 L171 666 C165 666 112 667 14 669 L14 645 L78 645 L78 22 L14 22 L14 -2 C88 1 143 2 181 2 C216 2 273 1 344 -2 L344 22 L274 22 L274 311 L306 311 C397 307 409 288 422 131 C427 70 432 42 448 -2 C512 1 551 2 591 2 C610 2 654 1 703 -2 L703 22 Z M274 335 L274 645 L300 645 C383 645 413 604 413 491 C413 434 406 400 389 374 C372 350 340 335 306 335 L274 335 Z M88 875 L263 726 L292 726 L472 875 L461 899 L279 862 L99 899 L88 875 Z " />
<glyph glyph-name="rcaron" unicode="&#x159;" horiz-adv-x="487" d="M232 422 C187 419 149 418 130 418 C100 418 65 419 13 422 L13 402 L62 402 L62 18 L13 18 L13 -2 C77 1 129 2 159 2 C195 2 246 1 314 -2 L314 18 L245 18 L245 233 C245 327 268 387 305 387 C316 387 326 377 326 366 C326 358 325 350 323 339 C321 329 320 318 320 308 C320 264 347 240 399 240 C453 240 480 268 480 326 C480 391 438 430 369 430 C325 430 286 414 263 386 C247 367 240 349 232 307 L232 344 L232 371 L232 422 Z M228 454 L257 454 L429 655 L415 672 L243 603 L73 672 L58 655 L228 454 Z " />
<glyph glyph-name="Sacute" unicode="&#x15a;" horiz-adv-x="591" d="M40 211 C41 170 42 140 42 117 C42 96 41 60 40 15 C66 14 73 13 112 6 C183 -9 225 -14 273 -14 C455 -14 565 69 565 207 C565 304 505 372 379 417 L326 436 C240 466 208 498 208 552 C208 615 259 659 333 659 C395 659 445 632 475 582 C494 549 501 523 505 468 L536 468 C535 512 535 551 535 570 L535 655 C500 657 485 658 454 664 C366 680 351 682 303 682 C138 682 36 603 36 475 C36 381 91 313 200 273 L264 249 C354 216 389 180 389 123 C389 55 335 9 256 9 C144 9 83 76 70 211 L40 211 Z M159 725 L335 761 C415 778 443 798 443 838 C443 873 416 897 377 897 C330 897 265 859 201 793 L150 742 L159 725 Z " />
<glyph glyph-name="sacute" unicode="&#x15b;" horiz-adv-x="435" d="M18 143 L19 79 L17 30 L17 9 C43 9 50 8 94 0 C141 -9 174 -13 212 -13 C339 -13 414 45 414 142 C414 217 371 262 274 288 L226 301 C175 315 154 331 154 358 C154 389 188 410 238 410 C279 410 315 397 339 372 C360 351 369 330 371 291 L395 291 L395 309 L394 356 C394 366 394 366 395 412 C384 413 373 414 369 414 C367 415 350 418 325 422 C289 429 247 433 214 433 C92 433 16 374 16 280 C16 240 31 206 61 180 C83 161 98 154 154 139 L203 126 C240 116 244 115 255 107 C268 98 275 83 275 68 C275 32 243 12 187 12 C94 12 46 55 41 143 L18 143 Z M119 452 L277 538 C341 573 363 594 363 621 C363 652 336 673 295 673 C258 673 231 661 201 632 C175 605 154 574 137 538 L106 468 L119 452 Z " />
<glyph glyph-name="Scedilla" unicode="&#x15e;" horiz-adv-x="591" d="M40 211 C41 170 42 140 42 117 C42 96 41 60 40 15 C66 14 73 13 112 6 C183 -9 225 -14 273 -14 C455 -14 565 69 565 207 C565 304 505 372 379 417 L326 436 C240 466 208 498 208 552 C208 615 259 659 333 659 C395 659 445 632 475 582 C494 549 501 523 505 468 L536 468 C535 512 535 551 535 570 L535 655 C500 657 485 658 454 664 C366 680 351 682 303 682 C138 682 36 603 36 475 C36 381 91 313 200 273 L264 249 C354 216 389 180 389 123 C389 55 335 9 256 9 C144 9 83 76 70 211 L40 211 Z M325 -48 L173 -122 C123 -146 105 -164 105 -190 C105 -222 137 -245 181 -245 C230 -245 263 -218 299 -149 L342 -63 L325 -48 Z " />
<glyph glyph-name="scedilla" unicode="&#x15f;" horiz-adv-x="435" d="M18 143 L19 79 L17 30 L17 9 C43 9 50 8 94 0 C141 -9 174 -13 212 -13 C339 -13 414 45 414 142 C414 217 371 262 274 288 L226 301 C175 315 154 331 154 358 C154 389 188 410 238 410 C279 410 315 397 339 372 C360 351 369 330 371 291 L395 291 L395 309 L394 356 C394 366 394 366 395 412 C384 413 373 414 369 414 C367 415 350 418 325 422 C289 429 247 433 214 433 C92 433 16 374 16 280 C16 240 31 206 61 180 C83 161 98 154 154 139 L203 126 C240 116 244 115 255 107 C268 98 275 83 275 68 C275 32 243 12 187 12 C94 12 46 55 41 143 L18 143 Z M262 -36 L112 -111 C59 -138 42 -155 42 -181 C42 -212 74 -236 115 -236 C165 -236 201 -206 237 -134 L277 -53 L262 -36 Z " />
<glyph glyph-name="Scaron" unicode="&#x160;" horiz-adv-x="591" d="M40 211 C41 170 42 140 42 117 C42 96 41 60 40 15 C66 14 73 13 112 6 C183 -9 225 -14 273 -14 C455 -14 565 69 565 207 C565 304 505 372 379 417 L326 436 C240 466 208 498 208 552 C208 615 259 659 333 659 C395 659 445 632 475 582 C494 549 501 523 505 468 L536 468 C535 512 535 551 535 570 L535 655 C500 657 485 658 454 664 C366 680 351 682 303 682 C138 682 36 603 36 475 C36 381 91 313 200 273 L264 249 C354 216 389 180 389 123 C389 55 335 9 256 9 C144 9 83 76 70 211 L40 211 Z M104 875 L279 726 L308 726 L488 875 L477 899 L295 862 L114 899 L104 875 Z " />
<glyph glyph-name="scaron" unicode="&#x161;" horiz-adv-x="435" d="M18 143 L19 79 L17 30 L17 9 C43 9 50 8 94 0 C141 -9 174 -13 212 -13 C339 -13 414 45 414 142 C414 217 371 262 274 288 L226 301 C175 315 154 331 154 358 C154 389 188 410 239 410 C279 410 316 397 340 372 C361 352 369 330 371 291 L395 291 L395 309 L394 356 C394 365 394 365 396 412 C384 413 373 414 369 414 C367 415 350 418 325 422 C289 429 247 433 214 433 C92 433 16 374 16 280 C16 240 31 206 61 180 C83 161 98 154 154 139 L204 126 C239 117 244 115 255 107 C268 98 275 83 275 68 C275 32 243 12 187 12 C94 12 46 55 42 143 L18 143 Z M185 480 L215 480 L386 682 L372 699 L200 630 L30 699 L15 682 L185 480 Z " />
<glyph glyph-name="Tcommaaccent" unicode="&#x162;" horiz-adv-x="645" d="M41 461 C42 524 48 554 63 582 C88 624 132 646 196 646 C201 646 212 646 223 645 L223 22 L156 22 L156 -2 C230 1 286 2 324 2 C359 2 415 1 487 -2 L487 22 L418 22 L418 645 C429 646 436 646 443 646 C489 646 532 629 556 603 C582 573 593 535 594 461 L627 461 C625 507 625 542 625 565 C625 588 625 623 627 669 L573 668 C557 668 526 667 489 666 C453 665 415 665 411 665 L220 665 C192 665 188 665 110 667 C72 668 60 668 10 669 C11 623 12 588 12 564 C12 542 11 507 10 461 L41 461 Z M230 -469 C288 -431 320 -401 355 -352 C396 -295 420 -233 420 -183 C420 -123 374 -79 312 -79 C255 -79 215 -117 215 -172 C215 -221 237 -250 297 -278 C320 -289 328 -299 328 -317 C328 -357 284 -410 219 -449 L230 -469 Z " />
<glyph glyph-name="tcommaaccent" unicode="&#x163;" horiz-adv-x="349" d="M237 568 L211 568 C202 468 134 421 -1 420 L-1 400 L55 400 L55 156 C55 91 61 62 82 36 C106 6 149 -10 204 -10 C292 -10 340 29 351 109 L332 109 C323 56 303 29 273 29 C248 29 237 50 237 98 L237 400 L343 400 L343 420 L237 420 L237 568 Z M72 -469 C130 -431 162 -401 197 -352 C237 -296 261 -233 261 -183 C261 -123 216 -79 154 -79 C97 -79 57 -118 57 -172 C57 -221 79 -250 138 -278 C161 -289 169 -299 169 -317 C169 -357 126 -410 61 -449 L72 -469 Z " />
<glyph glyph-name="Tcaron" unicode="&#x164;" horiz-adv-x="645" d="M41 461 C42 524 48 554 63 582 C88 624 132 646 196 646 C201 646 212 646 223 645 L223 22 L156 22 L156 -2 C230 1 286 2 324 2 C359 2 415 1 487 -2 L487 22 L418 22 L418 645 C429 646 436 646 443 646 C489 646 532 629 556 603 C582 573 593 535 594 461 L627 461 C625 507 625 542 625 565 C625 588 625 623 627 669 L573 668 C557 668 526 667 489 666 C453 665 415 665 411 665 L220 665 C192 665 188 665 110 667 C72 668 60 668 10 669 C11 623 12 588 12 564 C12 542 11 507 10 461 L41 461 Z M131 875 L305 726 L335 726 L514 875 L503 899 L321 862 L141 899 L131 875 Z " />
<glyph glyph-name="tcaron" unicode="&#x165;" horiz-adv-x="349" d="M237 568 L211 568 C202 468 134 421 -1 420 L-1 400 L55 400 L55 156 C55 91 61 62 82 36 C106 6 149 -10 204 -10 C292 -10 340 29 351 109 L332 109 C323 56 303 29 273 29 C248 29 237 50 237 98 L237 400 L343 400 L343 420 L237 420 L237 568 Z M293 468 C351 506 383 536 419 585 C459 641 483 704 483 754 C483 814 438 858 375 858 C318 858 278 820 278 765 C278 716 300 687 359 659 C382 648 390 638 390 620 C390 580 347 527 282 488 L293 468 Z " />
<glyph glyph-name="Umacron" unicode="&#x16a;" horiz-adv-x="714" d="M717 669 C676 666 644 665 624 665 C603 665 571 666 529 669 L529 645 L598 645 C606 599 610 547 611 492 L611 263 C611 107 543 15 429 15 C376 15 326 40 304 78 C284 112 277 153 277 234 L277 645 L343 645 L343 669 C270 666 214 665 177 665 C141 665 86 666 13 669 L13 645 L81 645 L81 285 C81 188 96 130 135 80 C182 20 266 -13 372 -13 C552 -13 640 77 640 263 L640 492 C640 558 644 603 651 645 L717 645 L717 669 Z M211 802 L211 733 L558 733 L558 802 L211 802 Z " />
<glyph glyph-name="umacron" unicode="&#x16b;" horiz-adv-x="593" d="M527 422 C475 419 436 418 409 418 C384 418 345 419 294 422 L294 402 L344 402 L344 174 C344 77 321 27 277 27 C249 27 240 48 240 116 L240 422 C188 419 149 418 122 418 C97 418 58 419 7 422 L7 402 L59 402 L59 166 C59 101 66 70 87 42 C112 9 157 -10 213 -10 C289 -10 333 19 355 85 L355 30 L355 -2 C403 1 441 2 464 2 C490 2 528 1 578 -2 L578 18 L527 18 L527 422 Z M123 585 L123 516 L470 516 L470 585 L123 585 Z " />
<glyph glyph-name="Uring" unicode="&#x16e;" horiz-adv-x="714" d="M717 669 C676 666 644 665 624 665 C603 665 571 666 529 669 L529 645 L598 645 C606 599 610 547 611 492 L611 263 C611 107 543 15 429 15 C376 15 326 40 304 78 C284 112 277 153 277 234 L277 645 L343 645 L343 669 C270 666 214 665 177 665 C141 665 86 666 13 669 L13 645 L81 645 L81 285 C81 188 96 130 135 80 C182 20 266 -13 372 -13 C552 -13 640 77 640 263 L640 492 C640 558 644 603 651 645 L717 645 L717 669 Z M354 910 C300 910 255 863 255 808 C255 754 303 707 359 707 C412 707 458 752 458 804 C458 861 409 910 354 910 L354 910 Z M355 871 C388 871 418 840 418 806 C418 774 390 746 358 746 C324 746 295 775 295 808 C295 842 322 871 355 871 L355 871 Z " />
<glyph glyph-name="uring" unicode="&#x16f;" horiz-adv-x="593" d="M527 422 C475 419 436 418 409 418 C384 418 345 419 294 422 L294 402 L344 402 L344 174 C344 77 321 27 277 27 C249 27 240 48 240 116 L240 422 C188 419 149 418 122 418 C97 418 58 419 7 422 L7 402 L59 402 L59 166 C59 101 66 70 87 42 C112 9 157 -10 213 -10 C289 -10 333 19 355 85 L355 30 L355 -2 C403 1 441 2 464 2 C490 2 528 1 578 -2 L578 18 L527 18 L527 422 Z M295 653 C246 653 204 610 204 559 C204 510 248 467 300 467 C348 467 390 508 390 556 C390 608 346 653 295 653 L295 653 Z M296 617 C327 617 354 589 354 557 C354 528 329 503 299 503 C267 503 240 529 240 560 C240 591 266 617 296 617 L296 617 Z " />
<glyph glyph-name="Uhungarumlaut" unicode="&#x170;" horiz-adv-x="714" d="M717 669 C676 666 644 665 624 665 C603 665 571 666 529 669 L529 645 L598 645 C606 599 610 547 611 492 L611 263 C611 107 543 15 429 15 C376 15 326 40 304 78 C284 112 277 153 277 234 L277 645 L343 645 L343 669 C270 666 214 665 177 665 C141 665 86 666 13 669 L13 645 L81 645 L81 285 C81 188 96 130 135 80 C182 20 266 -13 372 -13 C552 -13 640 77 640 263 L640 492 C640 558 644 603 651 645 L717 645 L717 669 Z M162 725 L337 761 C416 778 445 798 445 838 C445 873 417 897 379 897 C332 897 268 859 203 793 L152 742 L162 725 Z M462 725 L637 761 C716 778 745 798 745 838 C745 873 717 897 679 897 C632 897 568 859 503 793 L452 742 L462 725 Z " />
<glyph glyph-name="uhungarumlaut" unicode="&#x171;" horiz-adv-x="593" d="M527 422 C475 419 436 418 409 418 C384 418 345 419 294 422 L294 402 L344 402 L344 174 C344 77 321 27 277 27 C249 27 240 48 240 116 L240 422 C188 419 149 418 122 418 C97 418 58 419 7 422 L7 402 L59 402 L59 166 C59 101 66 70 87 42 C112 9 157 -10 213 -10 C289 -10 333 19 355 85 L355 30 L355 -2 C403 1 441 2 464 2 C490 2 528 1 578 -2 L578 18 L527 18 L527 422 Z M100 452 L258 538 C322 573 344 594 344 621 C344 652 317 673 276 673 C239 673 211 661 182 632 C156 605 134 574 118 538 L86 468 L100 452 Z M367 452 L524 538 C589 573 611 594 611 621 C611 652 584 673 542 673 C506 673 478 661 449 632 C423 605 401 574 385 538 L353 468 L367 452 Z " />
<glyph glyph-name="Uogonek" unicode="&#x172;" horiz-adv-x="714" d="M717 669 C676 666 644 665 624 665 C603 665 571 666 529 669 L529 645 L598 645 C606 599 610 547 611 492 L611 263 C611 107 543 15 429 15 C376 15 326 40 304 78 C284 112 277 153 277 234 L277 645 L343 645 L343 669 C270 666 214 665 177 665 C141 665 86 666 13 669 L13 645 L81 645 L81 285 C81 188 96 130 135 80 C182 20 266 -13 372 -13 C552 -13 640 77 640 263 L640 492 C640 558 644 603 651 645 L717 645 L717 669 Z M461 -24 L391 -178 C379 -207 373 -228 373 -243 C373 -270 393 -290 421 -290 C443 -290 466 -278 486 -258 C505 -239 514 -215 514 -182 C514 -164 511 -146 505 -118 L483 -24 L461 -24 Z " />
<glyph glyph-name="uogonek" unicode="&#x173;" horiz-adv-x="593" d="M527 422 C475 419 436 418 409 418 C384 418 345 419 294 422 L294 402 L344 402 L344 174 C344 77 321 27 277 27 C249 27 240 48 240 116 L240 422 C188 419 149 418 122 418 C97 418 58 419 7 422 L7 402 L59 402 L59 166 C59 101 66 70 87 42 C112 9 157 -10 213 -10 C289 -10 333 19 355 85 L355 30 L355 -2 C403 1 441 2 464 2 C490 2 528 1 578 -2 L578 18 L527 18 L527 422 Z M495 -24 L426 -178 C413 -206 407 -228 407 -243 C407 -270 428 -290 455 -290 C477 -290 501 -278 521 -258 C539 -239 548 -215 548 -182 C548 -164 546 -147 539 -118 L517 -24 L495 -24 Z " />
<glyph glyph-name="Ydieresis" unicode="&#x178;" horiz-adv-x="661" d="M427 303 L538 513 C575 582 593 610 621 645 L663 645 L663 669 C626 666 594 665 578 665 C552 665 522 666 478 669 L478 645 L565 645 C556 615 546 588 528 552 L427 353 L273 645 L352 645 L352 669 C275 666 215 665 178 665 C137 665 77 666 -2 669 L-2 645 L52 645 L232 303 L232 22 L164 22 L164 -2 C238 1 294 2 332 2 C368 2 424 1 496 -2 L496 22 L427 22 L427 303 Z M207 887 C155 887 124 858 124 809 C124 762 157 732 209 732 C257 732 290 763 290 808 C290 855 257 887 207 887 L207 887 Z M454 887 C402 887 371 858 371 809 C371 762 403 732 455 732 C503 732 536 763 536 808 C536 855 503 887 454 887 L454 887 Z " />
<glyph glyph-name="Zacute" unicode="&#x179;" horiz-adv-x="593" d="M14 -2 C69 -1 84 -1 145 1 C180 2 215 2 224 2 L359 2 C365 2 401 2 437 1 L470 0 C508 -1 525 -1 574 -2 C572 59 572 71 572 95 C572 117 572 130 574 193 L544 193 C541 62 483 18 323 22 L229 22 L564 645 L564 669 L511 668 C495 668 464 667 427 666 C391 665 352 665 349 665 L234 665 C207 665 202 665 124 667 C86 668 74 668 24 669 C25 632 25 577 25 573 C25 547 25 540 24 488 L53 488 C58 596 114 645 229 645 L348 645 L14 22 L14 -2 Z M223 725 L399 761 C479 778 507 798 507 838 C507 873 480 897 441 897 C394 897 329 859 265 793 L214 742 L223 725 Z " />
<glyph glyph-name="zacute" unicode="&#x17a;" horiz-adv-x="435" d="M407 422 C314 421 298 420 269 419 L225 418 L194 418 C180 419 152 419 70 421 L17 422 C20 364 20 354 20 343 C20 330 20 319 17 274 L43 274 C46 364 82 399 169 397 L210 397 L17 20 L17 -2 C103 -1 108 -1 148 1 L200 2 L230 2 C238 2 263 1 365 -1 L419 -2 C418 47 418 55 418 70 L418 92 L418 125 L419 148 L394 148 C385 48 351 18 249 20 L210 20 L407 397 L407 422 Z M170 452 L328 538 C392 573 414 594 414 621 C414 652 387 673 346 673 C309 673 281 661 252 632 C226 605 205 574 188 538 L156 468 L170 452 Z " />
<glyph glyph-name="Zdotaccent" unicode="&#x17b;" horiz-adv-x="593" d="M14 -2 C69 -1 84 -1 145 1 C180 2 215 2 224 2 L359 2 C365 2 401 2 437 1 L470 0 C508 -1 525 -1 574 -2 C572 59 572 71 572 95 C572 117 572 130 574 193 L544 193 C541 62 483 18 323 22 L229 22 L564 645 L564 669 L511 668 C495 668 464 667 427 666 C391 665 352 665 349 665 L234 665 C207 665 202 665 124 667 C86 668 74 668 24 669 C25 632 25 577 25 573 C25 547 25 540 24 488 L53 488 C58 596 114 645 229 645 L348 645 L14 22 L14 -2 Z M297 887 C245 887 214 858 214 809 C214 762 246 732 298 732 C346 732 379 763 379 808 C379 855 346 887 297 887 L297 887 Z " />
<glyph glyph-name="zdotaccent" unicode="&#x17c;" horiz-adv-x="435" d="M407 422 C314 421 298 420 269 419 L225 418 L194 418 C180 419 152 419 70 421 L17 422 C20 364 20 354 20 343 C20 330 20 319 17 274 L43 274 C46 364 82 399 169 397 L210 397 L17 20 L17 -2 C103 -1 108 -1 148 1 L200 2 L230 2 C238 2 263 1 365 -1 L419 -2 C418 47 418 55 418 70 L418 92 L418 125 L419 148 L394 148 C385 48 351 18 249 20 L210 20 L407 397 L407 422 Z M217 621 C165 621 134 592 134 543 C134 496 167 466 219 466 C267 466 300 497 300 542 C300 589 267 621 217 621 L217 621 Z " />
<glyph glyph-name="Zcaron" unicode="&#x17d;" horiz-adv-x="593" d="M14 -2 C69 -1 84 -1 145 1 C180 2 215 2 224 2 L359 2 C365 2 401 2 437 1 L470 0 C508 -1 525 -1 574 -2 C572 59 572 71 572 95 C572 117 572 130 574 193 L544 193 C541 62 483 18 323 22 L229 22 L564 645 L564 669 L511 668 C495 668 464 667 427 666 C391 665 352 665 349 665 L234 665 C207 665 202 665 124 667 C86 668 74 668 24 669 C25 632 25 577 25 573 C25 547 25 540 24 488 L53 488 C58 596 114 645 229 645 L348 645 L14 22 L14 -2 Z M87 875 L262 726 L291 726 L471 875 L460 899 L278 862 L97 899 L87 875 Z " />
<glyph glyph-name="zcaron" unicode="&#x17e;" horiz-adv-x="435" d="M407 422 C314 421 298 420 269 419 L225 418 L194 418 C180 419 152 419 70 421 L17 422 C20 364 20 354 20 343 C20 330 20 319 17 274 L43 274 C46 364 82 399 169 397 L210 397 L17 20 L17 -2 C103 -1 108 -1 148 1 L200 2 L230 2 C238 2 263 1 365 -1 L419 -2 C418 47 418 55 418 70 L418 92 L418 125 L419 148 L394 148 C385 48 351 18 249 20 L210 20 L407 397 L407 422 Z M202 454 L231 454 L403 655 L389 672 L216 603 L46 672 L32 655 L202 454 Z " />
<glyph glyph-name="florin" unicode="&#x192;" horiz-adv-x="420" d="M268 377 L372 377 L377 400 L272 400 L284 477 C289 507 293 558 293 588 C293 662 293 662 301 683 C307 702 323 715 340 715 C354 715 365 705 365 693 C365 685 362 671 356 655 C352 643 350 629 350 618 C350 578 379 554 429 554 C482 554 514 584 514 633 C514 698 461 734 366 734 C214 734 135 660 106 491 L91 400 L4 400 L0 377 L87 377 L56 184 C47 131 38 58 33 -9 C24 -121 24 -121 12 -142 C7 -151 -4 -158 -15 -158 C-30 -158 -42 -146 -42 -132 C-42 -130 -42 -128 -41 -127 C-29 -77 -29 -77 -29 -67 C-29 -28 -57 -4 -105 -4 C-158 -4 -193 -35 -193 -83 C-193 -143 -136 -180 -44 -180 C53 -180 125 -147 164 -85 C192 -40 205 6 225 125 L268 377 Z " />
<glyph glyph-name="uni01D3" unicode="&#x1d3;" horiz-adv-x="714" d="M717 669 C676 666 644 665 624 665 C603 665 571 666 529 669 L529 645 L598 645 C606 599 610 547 611 492 L611 263 C611 107 543 15 429 15 C376 15 326 40 304 78 C284 112 277 153 277 234 L277 645 L343 645 L343 669 C270 666 214 665 177 665 C141 665 86 666 13 669 L13 645 L81 645 L81 285 C81 188 96 130 135 80 C182 20 266 -13 372 -13 C552 -13 640 77 640 263 L640 492 C640 558 644 603 651 645 L717 645 L717 669 Z M209 875 L384 726 L413 726 L592 875 L581 899 L399 862 L219 899 L209 875 Z " />
<glyph glyph-name="Scommaaccent" unicode="&#x218;" horiz-adv-x="591" d="M40 211 C41 170 42 140 42 117 C42 96 41 60 40 15 C66 14 73 13 112 6 C183 -9 225 -14 273 -14 C455 -14 565 69 565 207 C565 304 505 372 379 417 L326 436 C240 466 208 498 208 552 C208 615 259 659 333 659 C395 659 445 632 475 582 C494 549 501 523 505 468 L536 468 C535 512 535 551 535 570 L535 655 C500 657 485 658 454 664 C366 680 351 682 303 682 C138 682 36 603 36 475 C36 381 91 313 200 273 L264 249 C354 216 389 180 389 123 C389 55 335 9 256 9 C144 9 83 76 70 211 L40 211 Z M163 -469 C221 -431 253 -401 288 -352 C328 -295 352 -233 352 -183 C352 -123 307 -79 244 -79 C187 -79 147 -117 147 -172 C147 -221 170 -250 229 -278 C252 -289 260 -299 260 -317 C260 -357 217 -410 151 -449 L163 -469 Z " />
<glyph glyph-name="scommaaccent" unicode="&#x219;" horiz-adv-x="435" d="M18 143 L19 79 L17 30 L17 9 C43 9 50 8 94 0 C141 -9 174 -13 212 -13 C339 -13 414 45 414 142 C414 217 371 262 274 288 L226 301 C175 315 154 331 154 358 C154 389 188 410 238 410 C279 410 315 397 339 372 C360 351 369 330 371 291 L395 291 L395 309 L394 356 C394 366 394 366 395 412 C384 413 373 414 369 414 C367 415 350 418 325 422 C289 429 247 433 214 433 C92 433 16 374 16 280 C16 240 31 206 61 180 C83 161 98 154 154 139 L203 126 C240 116 244 115 255 107 C268 98 275 83 275 68 C275 32 243 12 187 12 C94 12 46 55 41 143 L18 143 Z M114 -469 C172 -431 204 -401 240 -352 C280 -295 304 -233 304 -183 C304 -123 259 -79 196 -79 C139 -79 99 -117 99 -172 C99 -221 121 -250 180 -278 C203 -289 211 -299 211 -317 C211 -357 168 -410 103 -449 L114 -469 Z " />
<glyph glyph-name="uni021A" unicode="&#x21a;" horiz-adv-x="645" d="M41 461 C42 524 48 554 63 582 C88 624 132 646 196 646 C201 646 212 646 223 645 L223 22 L156 22 L156 -2 C230 1 286 2 324 2 C359 2 415 1 487 -2 L487 22 L418 22 L418 645 C429 646 436 646 443 646 C489 646 532 629 556 603 C582 573 593 535 594 461 L627 461 C625 507 625 542 625 565 C625 588 625 623 627 669 L573 668 C557 668 526 667 489 666 C453 665 415 665 411 665 L220 665 C192 665 188 665 110 667 C72 668 60 668 10 669 C11 623 12 588 12 564 C12 542 11 507 10 461 L41 461 Z M230 -469 C288 -431 320 -401 355 -352 C396 -295 420 -233 420 -183 C420 -123 374 -79 312 -79 C255 -79 215 -117 215 -172 C215 -221 237 -250 297 -278 C320 -289 328 -299 328 -317 C328 -357 284 -410 219 -449 L230 -469 Z " />
<glyph glyph-name="uni021B" unicode="&#x21b;" horiz-adv-x="349" d="M237 568 L211 568 C202 468 134 421 -1 420 L-1 400 L55 400 L55 156 C55 91 61 62 82 36 C106 6 149 -10 204 -10 C292 -10 340 29 351 109 L332 109 C323 56 303 29 273 29 C248 29 237 50 237 98 L237 400 L343 400 L343 420 L237 420 L237 568 Z M72 -469 C130 -431 162 -401 197 -352 C237 -296 261 -233 261 -183 C261 -123 216 -79 154 -79 C97 -79 57 -118 57 -172 C57 -221 79 -250 138 -278 C161 -289 169 -299 169 -317 C169 -357 126 -410 61 -449 L72 -469 Z " />
<glyph glyph-name="afii57929" unicode="&#x2bc;" horiz-adv-x="270" d="M43 290 C101 329 133 358 169 408 C209 464 233 526 233 576 C233 636 188 680 125 680 C68 680 28 642 28 587 C28 538 50 509 109 481 C132 470 140 460 140 443 C140 403 97 350 32 311 L43 290 Z " />
<glyph glyph-name="circumflex" unicode="&#x2c6;" horiz-adv-x="505" d="M268 672 L239 672 L67 471 L81 454 L254 523 L423 454 L438 471 L268 672 Z " />
<glyph glyph-name="caron" unicode="&#x2c7;" horiz-adv-x="505" d="M237 454 L267 454 L438 655 L424 672 L252 603 L82 672 L67 655 L237 454 Z " />
<glyph glyph-name="uni02C9" unicode="&#x2c9;" horiz-adv-x="480" d="M67 585 L67 516 L414 516 L414 585 L67 585 Z " />
<glyph glyph-name="breve" unicode="&#x2d8;" horiz-adv-x="437" d="M399 667 C387 589 344 559 247 559 C153 559 110 590 99 667 L82 667 C88 543 151 468 250 468 C350 468 416 547 416 667 L399 667 Z " />
<glyph glyph-name="dotaccent" unicode="&#x2d9;" horiz-adv-x="299" d="M150 621 C98 621 67 592 67 543 C67 496 100 466 152 466 C200 466 233 497 233 542 C233 589 200 621 150 621 L150 621 Z " />
<glyph glyph-name="ring" unicode="&#x2da;" horiz-adv-x="319" d="M158 653 C109 653 67 610 67 559 C67 510 111 467 163 467 C211 467 253 508 253 556 C253 608 209 653 158 653 L158 653 Z M159 617 C190 617 217 589 217 557 C217 528 192 503 162 503 C130 503 103 529 103 560 C103 591 129 617 159 617 L159 617 Z " />
<glyph glyph-name="ogonek" unicode="&#x2db;" horiz-adv-x="370" d="M175 -24 L106 -178 C93 -207 87 -228 87 -243 C87 -270 108 -290 135 -290 C157 -290 181 -278 201 -258 C219 -239 228 -215 228 -182 C228 -164 225 -146 219 -118 L197 -24 L175 -24 Z " />
<glyph glyph-name="tilde" unicode="&#x2dc;" horiz-adv-x="551" d="M458 639 C455 585 435 559 399 559 C377 559 353 567 325 585 L286 608 C253 629 221 639 191 639 C115 639 67 566 67 450 L92 450 C95 505 113 529 151 529 C176 529 197 521 236 496 L276 471 C298 457 326 449 354 449 C401 449 437 471 457 513 C473 545 484 592 484 624 C484 627 484 632 483 639 L458 639 Z " />
<glyph glyph-name="hungarumlaut" unicode="&#x2dd;" horiz-adv-x="658" d="M81 452 L238 538 C303 573 325 594 325 621 C325 652 298 673 256 673 C220 673 192 661 163 632 C137 605 115 574 99 538 L67 468 L81 452 Z M347 452 L505 538 C571 574 592 594 592 621 C592 652 565 673 523 673 C487 673 459 661 430 632 C403 605 382 574 365 538 L334 468 L347 452 Z " />
<glyph glyph-name="uni2011" unicode="&#x2011;" horiz-adv-x="249" d="M0 272 L0 203 L249 203 L249 272 L0 272 Z " />
<glyph glyph-name="figuredash" unicode="&#x2012;" horiz-adv-x="589" d="M30 272 L30 203 L561 203 L561 272 L30 272 Z " />
<glyph glyph-name="endash" unicode="&#x2013;" horiz-adv-x="589" d="M30 272 L30 203 L561 203 L561 272 L30 272 Z " />
<glyph glyph-name="emdash" unicode="&#x2014;" horiz-adv-x="748" d="M0 272 L0 203 L748 203 L748 272 L0 272 Z " />
<glyph glyph-name="afii00208" unicode="&#x2015;" horiz-adv-x="748" d="M0 272 L0 203 L748 203 L748 272 L0 272 Z " />
<glyph glyph-name="quoteleft" unicode="&#x2018;" horiz-adv-x="270" d="M227 680 C169 642 137 612 102 563 C62 507 38 444 38 394 C38 334 83 290 146 290 C203 290 243 328 243 383 C243 432 220 461 161 489 C138 500 130 510 130 527 C130 568 173 620 239 660 L227 680 Z " />
<glyph glyph-name="quoteright" unicode="&#x2019;" horiz-adv-x="430" d="M70 374 C128 413 160 442 196 492 C236 548 260 610 260 660 C260 720 215 764 152 764 C95 764 55 726 55 671 C55 622 77 593 136 565 C159 554 167 544 167 527 C167 487 124 434 59 395 L70 374 Z " />
<glyph glyph-name="quotesinglbase" unicode="&#x201a;" horiz-adv-x="430" d="M70 -307 C128 -269 160 -239 196 -190 C236 -134 260 -71 260 -21 C260 39 215 83 152 83 C95 83 55 45 55 -10 C55 -59 78 -88 136 -116 C159 -127 167 -137 167 -154 C167 -195 124 -247 59 -287 L70 -307 Z " />
<glyph glyph-name="quotedblleft" unicode="&#x201c;" horiz-adv-x="503" d="M461 680 C403 642 371 612 335 563 C295 506 271 444 271 394 C271 334 316 290 379 290 C436 290 476 328 476 383 C476 432 453 461 395 489 C372 500 364 510 364 527 C364 568 407 620 472 660 L461 680 Z M227 680 C169 642 137 612 102 563 C62 507 38 444 38 394 C38 334 83 290 146 290 C203 290 243 328 243 383 C243 432 220 461 161 489 C138 500 130 510 130 527 C130 568 173 620 239 660 L227 680 Z " />
<glyph glyph-name="quotedblright" unicode="&#x201d;" horiz-adv-x="503" d="M43 290 C101 329 133 358 169 408 C209 464 233 526 233 576 C233 636 188 680 125 680 C68 680 28 642 28 587 C28 538 50 509 109 481 C132 470 140 460 140 443 C140 403 97 350 32 311 L43 290 Z M277 290 C335 329 367 358 402 408 C442 464 466 526 466 576 C466 636 421 680 358 680 C301 680 261 642 261 587 C261 538 284 509 343 481 C366 470 374 460 374 443 C374 403 331 350 265 311 L277 290 Z " />
<glyph glyph-name="quotedblbase" unicode="&#x201e;" horiz-adv-x="503" d="M43 -210 C101 -171 133 -142 169 -92 C209 -36 233 26 233 76 C233 136 188 180 125 180 C68 180 28 142 28 87 C28 38 50 9 109 -19 C132 -30 140 -40 140 -57 C140 -97 97 -150 32 -189 L43 -210 Z M277 -210 C335 -171 367 -142 402 -92 C442 -36 466 26 466 76 C466 136 421 180 358 180 C301 180 261 142 261 87 C261 38 284 9 343 -19 C366 -30 374 -40 374 -57 C374 -97 331 -150 265 -189 L277 -210 Z " />
<glyph glyph-name="dagger" unicode="&#x2020;" horiz-adv-x="592" d="M283 404 C283 364 277 340 255 290 C193 156 189 145 189 97 C189 27 227 -13 293 -13 C359 -13 397 27 397 96 C397 133 387 170 366 216 C312 330 307 345 303 404 C321 405 331 399 357 376 C403 335 434 319 473 319 C529 319 565 356 565 413 C565 471 530 509 476 509 C445 509 414 496 386 473 C336 429 328 424 311 424 C310 424 307 424 303 425 C303 443 307 450 329 474 C373 522 389 554 389 595 C389 646 351 680 293 680 C231 680 193 646 193 592 C193 553 209 522 254 477 C280 450 283 444 284 425 C266 425 255 430 229 451 C198 478 198 478 188 484 C162 500 131 510 107 510 C56 510 22 472 22 415 C22 356 56 319 111 319 C142 319 169 331 200 357 C253 402 257 405 273 405 C276 405 279 405 283 404 L283 404 Z " />
<glyph glyph-name="daggerdbl" unicode="&#x2021;" horiz-adv-x="594" d="M272 461 C255 461 243 467 212 493 C171 526 143 539 109 539 C61 539 30 506 30 453 C30 398 61 363 112 363 C146 363 176 376 212 406 C249 437 257 441 287 441 C281 392 247 356 195 345 C250 329 284 291 286 242 C259 243 251 247 214 279 C177 310 147 323 111 323 C58 323 24 288 24 234 C24 179 57 144 109 144 C145 144 177 158 214 190 C250 221 258 224 286 224 C284 207 282 205 268 189 C219 137 203 108 203 69 C203 19 241 -13 299 -13 C356 -13 393 20 393 70 C393 108 381 129 328 184 C312 202 310 205 306 223 C334 223 340 220 381 188 C422 157 452 144 486 144 C536 144 570 180 570 234 C570 287 536 322 483 322 C451 322 421 310 386 284 C335 245 333 244 306 243 C309 292 340 328 393 343 C339 362 310 394 305 441 C333 441 339 438 366 418 C421 373 443 363 480 363 C527 363 559 398 559 452 C559 505 528 538 476 538 C445 538 417 526 382 498 C340 464 334 461 318 461 C315 461 311 461 306 462 C309 476 310 478 327 495 C361 529 382 570 382 602 C382 648 345 680 293 680 C240 680 206 650 206 604 C206 566 225 532 268 491 C282 477 283 476 285 461 L272 461 Z " />
<glyph glyph-name="ellipsis" unicode="&#x2026;" horiz-adv-x="773" d="M147 189 C82 189 40 150 40 89 C40 27 82 -13 147 -13 C210 -13 253 26 253 85 C253 147 211 189 147 189 L147 189 Z M390 188 C326 188 284 149 284 88 C284 26 326 -14 390 -14 C453 -14 496 25 496 84 C496 146 454 188 390 188 L390 188 Z M643 188 C579 188 537 149 537 88 C537 26 579 -14 643 -14 C706 -14 749 25 749 84 C749 146 707 188 643 188 L643 188 Z " />
<glyph glyph-name="perthousand" unicode="&#x2030;" horiz-adv-x="1391" d="M231 680 C99 680 23 612 23 493 C23 375 98 306 227 306 C354 306 432 376 432 490 C432 610 358 680 231 680 L231 680 Z M228 658 C271 658 287 612 287 489 C287 379 269 328 229 328 C186 328 168 377 168 499 C168 614 185 658 228 658 L228 658 Z M650 721 L597 742 L274 -78 L327 -100 L650 721 Z M711 361 C579 361 503 293 503 174 C503 56 578 -13 707 -13 C834 -13 912 57 912 171 C912 291 838 361 711 361 L711 361 Z M708 339 C751 339 767 293 767 170 C767 60 749 9 709 9 C666 9 648 58 648 180 C648 295 665 339 708 339 L708 339 Z M1162 359 C1030 359 954 291 954 172 C954 53 1029 -16 1158 -16 C1285 -16 1363 54 1363 168 C1363 289 1289 359 1162 359 L1162 359 Z M1159 337 C1202 337 1218 291 1218 168 C1218 57 1200 6 1160 6 C1117 6 1099 55 1099 178 C1099 292 1116 337 1159 337 L1159 337 Z " />
<glyph glyph-name="guilsinglleft" unicode="&#x2039;" horiz-adv-x="311" d="M263 -8 L281 2 L213 207 L281 416 L263 426 L21 207 L263 -8 Z " />
<glyph glyph-name="guilsinglright" unicode="&#x203a;" horiz-adv-x="311" d="M48 426 L30 416 L98 211 L30 2 L48 -8 L290 211 L48 426 Z " />
<glyph glyph-name="fraction" unicode="&#x2044;" horiz-adv-x="270" d="M324 733 L272 754 L-53 -67 L0 -88 L324 733 Z " />
<glyph glyph-name="Euro" unicode="&#x20ac;" horiz-adv-x="680" d="M249 400 C254 470 261 508 271 538 C298 616 351 659 422 659 C485 659 539 623 568 561 C583 530 589 507 594 457 L624 457 C623 501 622 535 622 557 C622 579 623 612 624 656 L610 656 C596 657 572 660 540 666 C492 675 443 680 393 680 C251 680 144 633 90 545 C65 506 50 460 43 400 L-20 400 L-24 379 L41 379 C39 362 39 348 39 331 L-20 331 L-24 310 L39 310 C42 239 59 173 88 126 C145 31 243 -13 403 -13 C455 -13 489 -9 551 4 C596 14 603 15 632 17 C630 73 628 118 628 144 C628 165 628 191 629 228 L600 228 C586 82 531 13 430 13 C316 13 251 118 247 310 L415 310 L419 331 L247 331 C247 349 247 361 248 379 L432 379 L436 400 L249 400 Z " />
<glyph glyph-name="uni2101" unicode="&#x2101;" horiz-adv-x="1134" d="M249 671 L220 671 L72 370 C50 325 43 314 23 286 L-4 286 L-4 265 C21 267 42 268 53 268 C69 268 89 267 117 265 L117 286 L68 286 C68 297 79 327 95 362 L113 397 L245 397 L306 286 L260 286 L260 265 C313 267 354 268 380 268 C406 268 447 267 499 265 L499 286 L464 286 L249 671 Z M123 418 L175 524 L234 418 L123 418 Z M792 733 L740 754 L415 -67 L468 -88 L792 733 Z M697 131 C698 105 698 88 698 73 C698 60 697 37 696 9 C717 9 722 8 750 4 C801 -5 826 -8 861 -8 C988 -8 1066 42 1066 124 C1066 184 1025 225 935 252 L898 264 C841 281 819 299 819 328 C819 364 853 389 903 389 C973 389 1012 350 1018 276 L1046 276 C1045 304 1045 326 1045 339 C1045 352 1045 369 1046 393 C1019 394 1008 395 986 398 C925 408 916 409 882 409 C765 409 694 362 694 284 C694 226 733 186 810 161 L854 147 C915 128 938 108 938 76 C938 37 903 12 849 12 C773 12 732 51 724 131 L697 131 Z " />
<glyph glyph-name="trademark" unicode="&#x2122;" horiz-adv-x="993" d="M38 563 C38 601 42 619 51 636 C66 661 92 674 131 674 L147 674 L147 299 L107 299 L107 285 C151 286 185 287 207 287 C228 287 262 286 305 285 L305 299 L264 299 L264 674 L279 674 C341 674 368 641 369 563 L389 563 C388 591 388 612 388 626 C388 639 388 660 389 687 L357 687 L307 686 C285 685 262 685 260 685 L145 685 C109 686 94 686 51 687 L19 687 L20 625 L19 563 L38 563 Z M622 285 L643 285 L793 667 L798 299 L757 299 L757 285 C802 286 835 287 858 287 C880 287 914 286 957 285 L957 299 L916 299 L910 673 L952 673 L952 687 C912 686 885 685 863 685 C848 685 819 686 784 687 L688 442 L591 687 C556 686 526 685 511 685 C487 685 459 686 418 687 L418 673 L458 673 L454 400 C453 361 450 321 446 299 L410 299 L410 285 C432 286 449 287 460 287 C472 287 489 286 512 285 L512 299 L477 299 C471 335 470 350 470 387 L470 400 L473 673 L622 285 Z " />
<glyph glyph-name="minus" unicode="&#x2212;" horiz-adv-x="480" d="M409 235 L33 235 L33 150 L409 150 L409 235 Z " />
<glyph glyph-name="uni2215" unicode="&#x2215;" horiz-adv-x="270" d="M324 733 L272 754 L-53 -67 L0 -88 L324 733 Z " />
<glyph glyph-name="uni2219" unicode="&#x2219;" horiz-adv-x="296" d="M148 355 C83 355 41 316 41 255 C41 193 83 153 148 153 C211 153 254 192 254 251 C254 313 212 355 148 355 L148 355 Z " />
<glyph glyph-name="fi" unicode="&#xfb01;" horiz-adv-x="590" d="M9 18 L9 -2 C70 1 116 2 146 2 C176 2 223 1 283 -2 L283 18 L240 18 L240 400 L347 400 L347 18 L304 18 L304 -2 C364 1 411 2 441 2 C472 2 518 1 579 -2 L579 18 L529 18 L529 420 L240 420 L240 590 C240 635 261 660 299 660 C324 660 342 643 342 620 C342 618 341 605 339 587 C338 582 338 577 338 570 C338 510 367 484 435 484 C500 484 537 514 537 568 C537 641 462 680 322 680 C134 680 58 619 58 470 L58 420 L-6 420 L-6 400 L58 400 L58 18 L9 18 Z " />
<glyph glyph-name="fl" unicode="&#xfb02;" horiz-adv-x="592" d="M12 18 L12 -2 C72 1 119 2 149 2 C179 2 225 1 286 -2 L286 18 L243 18 L243 400 L331 400 L331 420 L243 420 L243 574 C243 612 245 627 253 639 C262 654 283 664 302 664 C339 664 352 644 352 587 L352 18 L307 18 L307 -2 C368 1 416 2 446 2 C477 2 524 1 585 -2 L585 18 L533 18 L533 670 C514 669 501 669 489 669 C465 669 441 670 421 671 C293 680 293 680 262 680 C191 680 138 664 105 631 C75 601 61 554 61 479 L61 420 L-5 420 L-5 400 L61 400 L61 18 L12 18 Z " />
</font>
</svg>
