<?xml version="1.0" standalone="no"?>
<!DOCTYPE svg PUBLIC "-//W3C//DTD SVG 1.1//EN" "http://www.w3.org/Graphics/SVG/1.1/DTD/svg11.dtd" >
<svg xmlns="http://www.w3.org/2000/svg">
<metadata></metadata>
<defs>
<font id="muriza_basicthin" horiz-adv-x="1040" >
<font-face units-per-em="2048" ascent="1589" descent="-459" />
<missing-glyph horiz-adv-x="528" />
<glyph horiz-adv-x="0" />
<glyph horiz-adv-x="682" />
<glyph unicode=" "  horiz-adv-x="528" />
<glyph unicode="&#x09;" horiz-adv-x="528" />
<glyph unicode="&#xa0;" horiz-adv-x="528" />
<glyph unicode="!" horiz-adv-x="540" d="M217 35q0 22 15 36.5t38 14.5t37.5 -14.5t14.5 -36.5q0 -23 -14.5 -37t-37.5 -14t-38 14t-15 37zM242 1352h55l-6 -1067h-43z" />
<glyph unicode="&#x22;" horiz-adv-x="788" d="M205 1352h51l-4 -342h-43zM532 1352h54l-4 -342h-43z" />
<glyph unicode="#" horiz-adv-x="1095" d="M78 401v41h223l59 394h-254v43h261l55 362h49l-55 -362h340l55 362h49l-55 -362h213v-43h-219l-60 -394h252v-41h-258l-59 -401h-49l59 401h-340l-59 -401h-49l59 401h-217zM350 442h340l60 394h-340z" />
<glyph unicode="$" d="M178 100v285h49v-262q102 -51 258 -51q324 0 324 247q0 46 -12.5 82.5t-30.5 61t-51 47.5t-61.5 37.5t-73.5 35.5q-5 2 -7 3l-112 53q-51 23 -83.5 40.5t-69.5 44.5t-58 55t-35 68.5t-14 88.5q0 125 82 195t215 79v275h47v-273q154 0 266 -69v-285h-45v266 q-98 45 -219 45q-135 0 -215 -58.5t-80 -172.5q0 -42 12.5 -76t30.5 -58t52.5 -47.5t63 -38.5t78.5 -38l107 -51q46 -21 71 -33.5t61.5 -34t56 -42t40 -49t29 -64.5t8.5 -80q0 -141 -87 -212.5t-230 -82.5v-279h-47v277h-13q-178 0 -307 71z" />
<glyph unicode="%" horiz-adv-x="1660" d="M98 946q0 207 65.5 311.5t184.5 104.5q121 0 187.5 -104t66.5 -312q0 -209 -66.5 -313.5t-187.5 -104.5q-119 0 -184.5 104.5t-65.5 313.5zM147 946q0 -195 53 -287t148 -92q205 0 205 379q0 377 -205 377q-95 0 -148 -91.5t-53 -285.5zM561 0l246 676l242 676h51 l-248 -676l-242 -676h-49zM1061 406q0 208 66 311.5t186 103.5t186 -103.5t66 -311.5q0 -209 -66 -313.5t-186 -104.5t-186 104.5t-66 313.5zM1110 406q0 -195 54 -287t149 -92q203 0 203 379q0 376 -203 376q-95 0 -149 -91.5t-54 -284.5z" />
<glyph unicode="&#x26;" horiz-adv-x="1161" d="M92 315q0 64 17.5 117.5t58.5 105.5t84 92.5t119 102.5q-82 106 -123 188t-41 175q0 131 78.5 201.5t197.5 70.5q112 0 173 -64.5t61 -175.5q0 -56 -14.5 -100.5t-54 -93.5t-83.5 -90.5t-129 -112.5q4 -4 4 -6l381 -473q93 181 64 428h225v-41h-174q17 -250 -84 -426 l66 -82q45 -56 74.5 -76t68.5 -20q13 0 59 4v-39q-36 -8 -67 -8q-53 0 -89.5 24.5t-89.5 87.5l-51 64q-66 -89 -161.5 -136.5t-210.5 -47.5q-159 0 -259 85.5t-100 245.5zM143 317q0 -140 85 -216t223 -76q107 0 195 47t147 135l-390 483l-6 8q-59 -50 -90.5 -78.5 t-68.5 -68.5t-54 -72t-29 -73.5t-12 -88.5zM258 1102q0 -80 38.5 -160.5t111.5 -175.5q73 59 112 94.5t78.5 82t55.5 91.5t16 99q0 88 -48 141t-137 53q-97 0 -162 -60.5t-65 -164.5z" />
<glyph unicode="'" horiz-adv-x="460" d="M205 1352h51l-4 -342h-43z" />
<glyph unicode="(" horiz-adv-x="575" d="M164 567q0 314 83 553t206 389l30 -22q-117 -151 -192.5 -394t-75.5 -524q0 -283 75.5 -525.5t192.5 -393.5l-30 -25q-124 151 -206.5 389t-82.5 553z" />
<glyph unicode=")" horiz-adv-x="575" d="M92 -350q117 150 192.5 392.5t75.5 526.5q0 283 -75.5 525.5t-192.5 392.5l31 22q124 -149 206.5 -388t82.5 -554t-82.5 -553t-206.5 -389z" />
<glyph unicode="*" horiz-adv-x="925" d="M119 1120v41l311 -2l-156 271l33 18l156 -270l155 270l33 -18l-155 -271l311 2v-41l-311 2l155 -270l-33 -18l-155 270l-156 -270l-33 18l156 270z" />
<glyph unicode="+" d="M115 559v43h383v387h47v-387h379v-43h-379v-391h-47v391h-383z" />
<glyph unicode="," horiz-adv-x="387" d="M96 -244q68 20 112 73t44 116q0 39 -19 71q-10 -30 -43 -30q-22 0 -35.5 14.5t-13.5 36.5t14.5 35.5t37.5 13.5q39 0 70.5 -38t31.5 -101q0 -79 -52.5 -141.5t-136.5 -84.5z" />
<glyph unicode="-" horiz-adv-x="509" d="M80 481v45h350v-45h-350z" />
<glyph unicode="." horiz-adv-x="387" d="M143 35q0 22 14.5 36.5t37.5 14.5q22 0 35.5 -14.5t13.5 -36.5q0 -23 -13.5 -37t-35.5 -14q-23 0 -37.5 14t-14.5 37z" />
<glyph unicode="/" horiz-adv-x="831" d="M88 -74l604 1499h51l-604 -1499h-51z" />
<glyph unicode="0" horiz-adv-x="1034" d="M139 676q0 348 98.5 520t280.5 172q181 0 280 -172.5t99 -519.5q0 -346 -99 -519t-280 -173q-182 0 -280.5 172.5t-98.5 519.5zM193 676q0 -332 85 -490.5t240 -158.5t240.5 158.5t85.5 490.5q0 333 -85.5 491t-240.5 158t-240 -158t-85 -491z" />
<glyph unicode="1" horiz-adv-x="851" d="M80 1206v39l344 107h43v-1309h303v-43h-676v43h320v1251z" />
<glyph unicode="2" horiz-adv-x="917" d="M104 0v37l428 573q94 126 136.5 217t42.5 193q0 152 -84.5 228.5t-223.5 76.5q-109 0 -225 -53v-252h-49v272q133 76 281 76q160 0 258 -91t98 -259q0 -113 -47.5 -211t-145.5 -225l-403 -537h573v211h48v-256h-687z" />
<glyph unicode="3" horiz-adv-x="878" d="M88 139l31 29q105 -137 280 -137q140 0 230 88.5t90 230.5q0 143 -87.5 236.5t-238.5 93.5h-92v43h35q164 0 250 86t86 229q0 137 -75 212t-208 75q-108 0 -221 -53v-250h-49v270q128 76 272 76q150 0 242 -85t92 -243q0 -129 -61 -215t-175 -118q134 -26 209.5 -122 t75.5 -235q0 -169 -107.5 -267.5t-267.5 -98.5q-101 0 -180 41.5t-131 113.5z" />
<glyph unicode="4" horiz-adv-x="966" d="M49 293v33l567 1026h48h24v-1016h217v-43h-217v-250h174v-43h-434v43h209v250h-588zM106 336h533v940v22q-9 -12 -14 -22z" />
<glyph unicode="5" horiz-adv-x="925" d="M135 139l29 29q112 -137 274 -137q147 0 238.5 101t91.5 269q0 159 -83.5 259t-215.5 100q-78 0 -142.5 -38.5t-101.5 -107.5h-39v738h572v-49h-527v-621q39 58 104 90.5t144 32.5q151 0 246.5 -112.5t95.5 -295.5q0 -193 -108 -303t-271 -110q-194 0 -307 155z" />
<glyph unicode="6" horiz-adv-x="980" d="M139 657q0 349 115 530t313 181q155 0 248 -106l-27 -29q-82 88 -217 88q-176 0 -277 -163t-101 -494q0 -115 6 -168q23 131 113.5 211.5t215.5 80.5q147 0 249 -108.5t102 -294.5q0 -182 -100 -291.5t-251 -109.5q-118 0 -200.5 69t-122.5 176q-66 160 -66 428zM223 395 q0 -154 86.5 -260t218.5 -106q124 0 209.5 94.5t85.5 261.5q0 165 -86.5 260.5t-212.5 95.5q-128 0 -214.5 -96t-86.5 -250z" />
<glyph unicode="7" horiz-adv-x="876" d="M88 1026v326h733v-37l-522 -1315h-55l524 1305h-631v-279h-49z" />
<glyph unicode="8" horiz-adv-x="940" d="M106 346q0 132 70 226.5t189 125.5q-107 30 -170.5 116t-63.5 216q0 160 99 249t239 89q141 0 240.5 -89t99.5 -249q0 -130 -63.5 -216t-170.5 -116q120 -31 190.5 -125.5t70.5 -226.5q0 -86 -31.5 -156.5t-83.5 -114.5t-117 -67.5t-135 -23.5q-69 0 -133.5 23.5 t-116 67.5t-82.5 114.5t-31 156.5zM160 348q0 -145 89.5 -233t221.5 -88q129 0 219 88t90 233q0 142 -86.5 235t-222.5 93t-223.5 -93t-87.5 -235zM182 1026q0 -139 82.5 -223t204.5 -84q123 0 205 84t82 223q0 140 -82.5 219.5t-204.5 79.5q-121 0 -204 -80t-83 -219z" />
<glyph unicode="9" horiz-adv-x="980" d="M104 967q0 182 99 291.5t250 109.5q118 0 200.5 -70t124.5 -178q64 -158 64 -426q0 -348 -115 -529t-313 -181q-155 0 -248 106l27 29q82 -88 217 -88q176 0 277 163t101 494q0 115 -6 168q-23 -131 -113.5 -212t-215.5 -81q-146 0 -247.5 109t-101.5 295zM158 967 q0 -165 87 -262t212 -97q128 0 214.5 97t86.5 251t-86.5 260.5t-218.5 106.5q-123 0 -209 -94.5t-86 -261.5z" />
<glyph unicode=":" horiz-adv-x="387" d="M143 35q0 22 14.5 36.5t37.5 14.5q22 0 35.5 -14.5t13.5 -36.5q0 -23 -13.5 -37t-35.5 -14q-23 0 -37.5 14t-14.5 37zM143 889q0 22 14.5 36.5t37.5 14.5q22 0 35.5 -14.5t13.5 -36.5q0 -23 -13.5 -38t-35.5 -15q-23 0 -37.5 15t-14.5 38z" />
<glyph unicode=";" horiz-adv-x="387" d="M96 -244q68 20 112 73t44 116q0 39 -19 71q-10 -30 -43 -30q-22 0 -35.5 14.5t-13.5 36.5t14.5 35.5t37.5 13.5q39 0 70.5 -38t31.5 -101q0 -79 -52.5 -141.5t-136.5 -84.5zM143 889q0 22 14.5 36.5t37.5 14.5q22 0 35.5 -14.5t13.5 -36.5q0 -23 -13.5 -38t-35.5 -15 q-23 0 -37.5 15t-14.5 38z" />
<glyph unicode="&#x3c;" d="M111 565v33l786 328v-45l-715 -301l715 -299v-48z" />
<glyph unicode="=" d="M133 369v43h772v-43h-772zM133 748v43h772v-43h-772z" />
<glyph unicode="&#x3e;" d="M143 233v48l715 299l-715 301v45l785 -328v-33z" />
<glyph unicode="?" horiz-adv-x="819" d="M119 971v319q131 78 284 78q148 0 243 -82t95 -229q0 -47 -12.5 -91t-28.5 -75.5t-51 -73.5t-58 -65.5t-73 -71.5q-95 -90 -127.5 -155t-32.5 -179v-61h-47q-2 23 -2 69q0 119 34.5 188.5t135.5 168.5q98 93 129 133q78 99 78 213q0 128 -80 198t-209 70q-128 0 -229 -55 v-299h-49zM285 35q0 22 14 36.5t37 14.5t38 -14.5t15 -36.5q0 -23 -15 -37t-38 -14t-37 14t-14 37z" />
<glyph unicode="@" horiz-adv-x="1665" d="M127 463q0 165 57.5 308.5t157 244t237.5 158t295 57.5q203 0 360 -93t239.5 -251.5t82.5 -354.5q0 -216 -96.5 -344.5t-245.5 -128.5q-85 0 -130.5 42.5t-47.5 111.5v20q-18 -78 -79.5 -126t-155.5 -48q-98 0 -157.5 54.5t-59.5 148.5q0 102 74 154.5t198 52.5h176v137 q0 107 -51.5 161t-140.5 54q-124 0 -199 -100l-25 27q34 55 94.5 86.5t135.5 31.5q108 0 169.5 -66t61.5 -190v-379q0 -63 36.5 -97t105.5 -34q130 0 212 116t82 314q0 188 -76 337.5t-222 237t-338 87.5q-149 0 -279.5 -54t-224 -148.5t-147.5 -230.5t-54 -294 q0 -161 56 -298t151 -229t221 -143t266 -51q68 0 166 16v-36q-81 -19 -164 -19q-151 0 -286 54.5t-236 151t-160 240t-59 312.5zM633 262q0 -75 46 -117.5t128 -42.5q106 0 165.5 72t59.5 197v59h-170q-105 0 -167 -41.5t-62 -126.5z" />
<glyph unicode="A" horiz-adv-x="1216" d="M20 0v43h146l409 1309h66l410 -1309h145v-43h-401v43h204l-131 416h-524l-129 -416h201v-43h-396zM358 504h496l-236 753l-12 41q-1 -7 -5.5 -22t-6.5 -21z" />
<glyph unicode="B" horiz-adv-x="1114" d="M94 0v43h197v1266h-197v43h484q180 0 282.5 -87.5t102.5 -248.5q0 -127 -64.5 -207.5t-183.5 -110.5q141 -24 219 -112t78 -232q0 -170 -105.5 -260.5t-290.5 -93.5h-522zM342 43h262q172 0 263 81.5t91 229.5q0 152 -93 236t-259 84h-264v-631zM342 717h229 q159 0 248.5 78.5t89.5 220.5q0 137 -87.5 215t-252.5 78h-227v-592z" />
<glyph unicode="C" horiz-adv-x="1009" d="M127 680q0 180 36.5 315t101.5 215t149 119t186 39q157 0 283 -78v-321h-52v301q-104 55 -227 55q-73 0 -135.5 -21.5t-116 -69.5t-91 -121.5t-58.5 -182.5t-21 -246q0 -167 31 -294t87 -204.5t128.5 -116t159.5 -38.5q175 0 303 162l31 -29q-140 -180 -338 -180 q-207 0 -332 177t-125 519z" />
<glyph unicode="D" horiz-adv-x="1177" d="M94 0v43h197v1266h-197v43h422q117 0 212.5 -40.5t168 -121t112.5 -211.5t40 -303q0 -171 -40 -302t-112.5 -212t-168.5 -121.5t-212 -40.5h-422zM344 43h164q225 0 355 156t130 477q0 323 -130 478t-355 155h-164v-1266z" />
<glyph unicode="E" horiz-adv-x="1087" d="M94 0v43h197v1266h-197v43h842v-314h-49v271h-543v-592h385v-43h-385v-631h565v287h49v-330h-864z" />
<glyph unicode="F" d="M94 0v43h197v1266h-197v43h832v-314h-49v271h-533v-604h379v-43h-379v-619h234v-43h-484z" />
<glyph unicode="G" horiz-adv-x="1134" d="M127 676q0 182 36.5 317.5t103 216t152 119.5t189.5 39q164 0 291 -78v-321h-49v301q-113 55 -238 55q-95 0 -171.5 -35t-135.5 -109.5t-91 -201t-32 -299.5q0 -141 22 -253t60 -186t92 -123t115 -70t131 -21q135 0 252 65v445h-248v43h447v-43h-150v-463 q-139 -90 -305 -90q-103 0 -187 40t-148.5 121.5t-100 216.5t-35.5 314z" />
<glyph unicode="H" horiz-adv-x="1357" d="M94 0v43h197v1266h-197v43h447v-43h-197v-592h672v592h-197v43h445v-43h-195v-1266h195v-43h-445v43h197v633h-672v-633h197v-43h-447z" />
<glyph unicode="I" horiz-adv-x="634" d="M94 0v43h197v1266h-197v43h447v-43h-197v-1266h197v-43h-447z" />
<glyph unicode="J" horiz-adv-x="630" d="M-63 -340q73 0 133.5 19t111 60.5t79 116.5t28.5 179v1274h-246v43h494v-43h-195v-1274q0 -111 -30.5 -193t-86 -130.5t-127.5 -71.5t-161 -23v43z" />
<glyph unicode="K" horiz-adv-x="1234" d="M94 0v43h197v1266h-197v43h445v-43h-195v-1266h195v-43h-445zM393 694l584 615h-236v43h451v-43h-156l-577 -609l590 -657h176v-43h-453v43h209z" />
<glyph unicode="L" horiz-adv-x="1009" d="M94 0v43h197v1266h-197v43h498v-43h-248v-1266h547v287h49v-330h-846z" />
<glyph unicode="M" horiz-adv-x="1597" d="M96 0v43h195v1266h-195v43h260h19l405 -1231q12 -41 21 -66q10 30 18 64l404 1233h34h246v-43h-196v-1266h196v-43h-426v43h178v1266q-5 -12 -12 -37l-416 -1272h-61l-420 1272q-1 4 -3 11t-3.5 11.5t-3.5 8.5v-1260h180v-43h-420z" />
<glyph unicode="N" horiz-adv-x="1357" d="M96 0v43h195v1266h-195v43h275l624 -1221l29 -65v1243h-199v43h439v-43h-195v-1309h-63l-641 1241q-5 13 -15 35t-14 31v-1264h199v-43h-439z" />
<glyph unicode="O" horiz-adv-x="1116" d="M127 676q0 179 32.5 313.5t91 216.5t136 122t172.5 40q197 0 312.5 -170.5t115.5 -521.5q0 -349 -116 -520.5t-312 -171.5q-197 0 -314.5 172t-117.5 520zM182 676q0 -170 28.5 -297t80.5 -202.5t119 -112.5t149 -37t149 37t118 112.5t79.5 202.5t28.5 297t-28.5 297 t-79.5 202.5t-118 112.5t-149 37t-149 -37t-119 -112.5t-80.5 -202.5t-28.5 -297z" />
<glyph unicode="P" horiz-adv-x="1079" d="M94 1309v43h488q197 0 307 -95t110 -272t-109.5 -273t-307.5 -96h-238v-571h244v-41h-492v41h195v1264h-197zM344 659h231q179 0 275 86.5t96 239.5t-96 238.5t-275 85.5h-231v-650z" />
<glyph unicode="Q" horiz-adv-x="1116" d="M127 676q0 179 32.5 313.5t91 216.5t136 122t172.5 40q197 0 312.5 -170.5t115.5 -521.5q0 -305 -89 -474.5t-245 -207.5q128 -125 223.5 -181.5t186.5 -56.5q44 0 94 13v-39q-44 -17 -100 -17q-104 0 -210 65t-247 206h-41q-197 0 -314.5 172t-117.5 520zM182 676 q0 -170 28.5 -297t80.5 -202.5t119 -112.5t149 -37t149 37t118 112.5t79.5 202.5t28.5 297t-28.5 297t-79.5 202.5t-118 112.5t-149 37t-149 -37t-119 -112.5t-80.5 -202.5t-28.5 -297z" />
<glyph unicode="R" horiz-adv-x="1177" d="M94 1307v43h494q195 0 304 -93t109 -262q0 -155 -90.5 -247t-253.5 -107l291 -489q37 -63 71 -89t81 -26q15 0 61 4v-41q-36 -8 -71 -8q-62 0 -105 32t-88 109l-295 504h-14h-242v-592h217v-41h-467v41h197v1262h-199zM346 680h238q176 0 270 84t94 231t-95 229.5 t-273 82.5h-234v-627z" />
<glyph unicode="S" horiz-adv-x="964" d="M123 63v324h51v-303q127 -57 275 -57q73 0 135 16.5t112 51t78.5 93.5t28.5 138q0 53 -13.5 96t-34 73.5t-56.5 58.5t-69 47t-83 42l-119 57q-65 31 -112 63t-88 74.5t-62 97.5t-21 122q0 154 102 233.5t265 79.5q161 0 293 -76v-325h-49v305q-120 53 -242 53 q-142 0 -228.5 -68.5t-86.5 -197.5q0 -112 66 -183t188 -130l120 -58q69 -33 112.5 -60.5t86.5 -69.5t63.5 -98.5t20.5 -129.5q0 -90 -32 -158.5t-89 -109t-129 -60.5t-157 -20q-187 0 -326 79z" />
<glyph unicode="T" d="M63 1034v318h914v-318h-49v275h-379v-1266h246v-43h-545v43h246v1266h-381v-275h-52z" />
<glyph unicode="U" horiz-adv-x="1318" d="M78 1309v43h446v-43h-196v-926q0 -175 93 -265.5t245 -90.5t242.5 90t90.5 266v926h-198v43h440v-43h-197v-930q0 -188 -103 -291.5t-277 -103.5q-175 0 -282.5 104t-107.5 291v930h-196z" />
<glyph unicode="V" horiz-adv-x="1234" d="M20 1309v43h431v-43h-218l375 -1219l13 -37q1 6 6 20t6 19l373 1217h-215v43h423v-43h-161l-406 -1309h-61l-406 1309h-160z" />
<glyph unicode="W" horiz-adv-x="1847" d="M37 1309v43h430v-43h-217l315 -1211q0 -4 4 -28l6 28l318 1254h63l314 -1254q2 -6 6 -28l6 28l317 1211h-219v43h428v-43h-161l-342 -1309h-60l-313 1229l-10 49q-2 -10 -5.5 -23.5t-5.5 -23.5l-313 -1231h-59l-342 1309h-160z" />
<glyph unicode="X" horiz-adv-x="1286" d="M51 0v45h160l397 660l-364 604h-162v43h442v-43h-221l342 -564l344 564h-225v43h438v-43h-160l-370 -609l397 -655h164v-45h-442v45h217l-371 614l-371 -614h221v-45h-436z" />
<glyph unicode="Y" horiz-adv-x="1226" d="M18 1309v43h422v-43h-211l369 -660q3 -5 9 -17.5t9 -17.5q4 9 21 35l367 660h-209v43h415v-43h-153l-416 -742v-524h246v-43h-543v43h246v522l-418 744h-154z" />
<glyph unicode="Z" horiz-adv-x="1038" d="M119 0v35l702 1274h-614v-271h-47v314h721v-35l-703 -1276h688v289h49v-330h-796z" />
<glyph unicode="[" horiz-adv-x="577" d="M213 -356v1849h303v-39h-256v-1771h256v-39h-303z" />
<glyph unicode="\" horiz-adv-x="831" d="M88 1425h51l604 -1499h-51z" />
<glyph unicode="]" horiz-adv-x="577" d="M61 -317h254v1771h-254v39h301v-1849h-301v39z" />
<glyph unicode="^" horiz-adv-x="931" d="M86 772l363 596h32l363 -596h-51l-328 531l-328 -531h-51z" />
<glyph unicode="_" horiz-adv-x="931" d="M80 -178h772v-41h-772v41z" />
<glyph unicode="`" horiz-adv-x="374" d="M55 1425q0 11 13 11h38l213 -357h-43l-206 320q-15 20 -15 26z" />
<glyph unicode="a" horiz-adv-x="862" d="M88 233q0 126 84.5 189t226.5 63h205v154q0 124 -60.5 189t-164.5 65q-138 0 -227 -121l-25 29q38 63 106 101t154 38q122 0 193 -76t71 -219v-477q0 -133 113 -133q17 0 57 4v-39q-36 -8 -71 -8q-69 0 -106 43.5t-38 126.5v26q-17 -92 -88.5 -148t-175.5 -56 q-114 0 -184 67.5t-70 181.5zM137 236q0 -95 57 -152t154 -57q120 0 188 82t68 219v116h-196q-125 0 -198 -51t-73 -157z" />
<glyph unicode="b" horiz-adv-x="991" d="M72 0v41h172v1343h-172v41h221v-737q22 119 91.5 185.5t178.5 66.5q145 0 233.5 -118.5t88.5 -360.5t-88.5 -359.5t-235.5 -117.5q-110 0 -180 67t-92 189v-240h-217zM293 461q0 -434 264 -434q125 0 201 106t76 328t-76 328t-201 106q-44 0 -81 -12.5t-71.5 -43.5 t-58.5 -79t-38.5 -124.5t-14.5 -174.5z" />
<glyph unicode="c" horiz-adv-x="778" d="M106 463q0 240 96 358.5t253 118.5q123 0 211 -59v-236h-48v217q-72 35 -157 35q-137 0 -220 -105.5t-83 -326.5t79.5 -328.5t206.5 -107.5q69 0 126.5 32.5t95.5 83.5l28 -28q-93 -133 -252 -133q-152 0 -244 120.5t-92 358.5z" />
<glyph unicode="d" horiz-adv-x="960" d="M109 461q0 242 87 360.5t232 118.5q110 0 179 -66t91 -186v696h-170v41h222v-1257q0 -133 110 -133q14 0 60 4v-39q-36 -8 -72 -8q-70 0 -108 43.5t-38 126.5v74q-22 -121 -92 -186.5t-180 -65.5q-146 0 -233.5 117.5t-87.5 359.5zM158 461q0 -223 75.5 -328.5 t200.5 -105.5q57 0 102.5 21.5t83 69.5t58 135t20.5 208q0 98 -14.5 174.5t-38.5 124.5t-58.5 79t-71.5 43.5t-81 12.5q-125 0 -200.5 -106t-75.5 -328z" />
<glyph unicode="e" horiz-adv-x="821" d="M106 467q0 234 86 353.5t222 119.5q126 0 207 -101t81 -294q0 -44 -4 -84h-542q3 -221 82 -326.5t208 -105.5q138 0 222 116l26 -28q-87 -133 -252 -133q-153 0 -244.5 120t-91.5 363zM158 502h495v45q0 177 -68 263.5t-171 86.5q-108 0 -179 -98t-77 -297z" />
<glyph unicode="f" horiz-adv-x="583" d="M72 0v41h172v840h-172v41h172v227q0 150 64 221.5t196 71.5q71 0 121 -17v-41q-52 17 -115 17q-113 0 -165 -61t-52 -193v-225h260v-41h-260v-840h239v-41h-460z" />
<glyph unicode="g" horiz-adv-x="847" d="M74 -143q0 72 38.5 114t110.5 74q-61 39 -61 111q0 54 34.5 89.5t84.5 43.5q-71 37 -113.5 116.5t-42.5 196.5q0 165 81.5 250.5t207.5 85.5q46 0 96 -16h82q64 0 91.5 25.5t27.5 76.5q0 12 -3 30t-3 19h43q8 -24 8 -57q0 -63 -40 -97t-112 -34h-31q123 -79 123 -283 q0 -167 -80.5 -255.5t-203.5 -88.5h-95q-46 0 -77 -25t-31 -69q0 -47 34 -72.5t95 -25.5h203q127 0 189.5 -50.5t62.5 -144.5q0 -123 -100.5 -187.5t-264.5 -64.5q-163 0 -258.5 62.5t-95.5 175.5zM121 -139q0 -92 81.5 -146.5t231.5 -54.5q141 0 225 51.5t84 155.5 q0 76 -48 113.5t-156 37.5h-205q-40 0 -70 9q-70 -27 -106.5 -65.5t-36.5 -100.5zM176 600q0 -149 65 -225t171 -76q105 0 170 76.5t65 226.5q0 147 -64.5 221t-170.5 74q-107 0 -171.5 -74t-64.5 -223z" />
<glyph unicode="h" horiz-adv-x="1030" d="M72 0v41h172v1343h-172v41h221v-692q14 87 83 147t177 60q121 0 192.5 -78.5t71.5 -228.5v-592h170v-41h-371v41h152v584q0 130 -60.5 199t-164.5 69q-117 0 -183.5 -82.5t-66.5 -214.5v-555h151v-41h-372z" />
<glyph unicode="i" horiz-adv-x="489" d="M72 0v41h172v840h-172v41h221v-881h156v-41h-377zM205 1253q0 20 14.5 33.5t36.5 13.5q20 0 33.5 -13.5t13.5 -33.5q0 -22 -13.5 -35.5t-33.5 -13.5q-22 0 -36.5 13.5t-14.5 35.5z" />
<glyph unicode="j" horiz-adv-x="460" d="M-18 -322q42 -10 81 -10q70 0 116 43t46 135v1035h-172v41h221v-1078q0 -108 -55.5 -162.5t-148.5 -54.5q-42 0 -88 11v40zM188 1253q0 20 14 33.5t36 13.5t35.5 -13.5t13.5 -33.5q0 -22 -13.5 -35.5t-35.5 -13.5t-36 13.5t-14 35.5z" />
<glyph unicode="k" horiz-adv-x="950" d="M72 0v41h172v1343h-172v41h221v-1384h135v-41h-356zM336 483l375 398h-152v41h330v-41h-121l-373 -394l303 -358q44 -54 75 -74t71 -20q19 0 59 4v-39q-36 -8 -67 -8q-54 0 -90.5 24t-90.5 86z" />
<glyph unicode="l" horiz-adv-x="489" d="M35 1384v41h221v-1255q0 -71 30.5 -103t94.5 -32q18 0 68 4v-39q-36 -8 -78 -8q-164 0 -164 174v1218h-172z" />
<glyph unicode="m" horiz-adv-x="1554" d="M72 0v41h172v840h-172v41h217v-205q15 91 85 157t177 66q101 0 170.5 -57.5t87.5 -169.5q23 99 93 163t177 64q119 0 191.5 -80.5t72.5 -228.5v-590h168v-41h-366v41h149v582q0 131 -60.5 200.5t-162.5 69.5q-119 0 -186.5 -87t-67.5 -226v-539h166v-41h-367v41h152v582 q0 132 -60 201t-163 69q-119 0 -185.5 -88t-66.5 -223v-541h151v-41h-372z" />
<glyph unicode="n" horiz-adv-x="1030" d="M72 0v41h172v840h-172v41h217v-207q16 95 86.5 160t179.5 65q118 0 190 -79t72 -228v-592h170v-41h-371v41h152v584q0 131 -59.5 199.5t-161.5 68.5q-120 0 -187 -88.5t-67 -224.5v-539h151v-41h-372z" />
<glyph unicode="o" horiz-adv-x="868" d="M106 461q0 240 90.5 359.5t237.5 119.5t237.5 -119.5t90.5 -359.5q0 -239 -90.5 -358t-237.5 -119t-237.5 119t-90.5 358zM158 461q0 -223 75.5 -329.5t200.5 -106.5q123 0 200 107t77 329t-77 329t-200 107q-125 0 -200.5 -106.5t-75.5 -329.5z" />
<glyph unicode="p" horiz-adv-x="960" d="M41 -322h170v1203h-170v41h217v-240q22 123 92 190.5t182 67.5q145 0 232.5 -118.5t87.5 -360.5t-87.5 -359.5t-232.5 -117.5q-111 0 -179.5 65t-90.5 184v-555h187v-40h-408v40zM262 461q0 -434 264 -434q125 0 200 106t75 328t-75 328t-200 106q-44 0 -81 -12.5 t-71.5 -43.5t-58.5 -79t-38.5 -124.5t-14.5 -174.5z" />
<glyph unicode="q" horiz-adv-x="960" d="M109 461q0 242 87.5 360.5t233.5 118.5q111 0 180.5 -67.5t91.5 -190.5v240h216v-41h-168v-1203h168v-40h-408v40h188v555q-22 -119 -90.5 -184t-179.5 -65q-145 0 -232 117.5t-87 359.5zM158 461q0 -222 75.5 -328t200.5 -106q264 0 264 434q0 98 -14.5 174.5 t-38.5 124.5t-58.5 79t-71.5 43.5t-81 12.5q-125 0 -200.5 -106t-75.5 -328z" />
<glyph unicode="r" horiz-adv-x="688" d="M72 0v41h166v840h-166v41h213v-234q14 96 99.5 170t203.5 74q13 0 27.5 -1t17.5 -1v-47h-35q-139 0 -224 -92.5t-85 -239.5v-510h235v-41h-452z" />
<glyph unicode="s" horiz-adv-x="784" d="M121 41v217h47v-197q98 -36 205 -36q69 0 123 18t90.5 64t36.5 116q0 82 -45.5 128t-135.5 83l-88 39q-106 44 -160.5 97.5t-54.5 144.5q0 109 76 167t195 58q118 0 223 -59v-211h-49v192q-78 35 -170 35q-101 0 -163.5 -45.5t-62.5 -132.5q0 -72 46 -117.5t135 -83.5 l86 -37q54 -22 90.5 -43t67.5 -50.5t46 -69.5t15 -91q0 -123 -84.5 -183t-216.5 -60q-146 0 -252 57z" />
<glyph unicode="t" horiz-adv-x="638" d="M41 881v41h170l4 278h47v-278h316v-41h-316v-619q0 -122 49 -175.5t158 -53.5q65 0 127 12v-41q-57 -14 -135 -14q-128 0 -189 64.5t-61 203.5v623h-170z" />
<glyph unicode="u" horiz-adv-x="997" d="M41 881v41h221v-625q0 -131 60.5 -199.5t160.5 -68.5q119 0 186.5 88.5t67.5 222.5v541h-168v41h217v-754q0 -133 111 -133q19 0 59 4v-39q-36 -8 -71 -8q-69 0 -106.5 43.5t-37.5 126.5v41q-16 -92 -86.5 -155.5t-179.5 -63.5q-119 0 -191.5 78t-72.5 227v592h-170z" />
<glyph unicode="v" horiz-adv-x="909" d="M23 881v41h323v-41h-164l269 -805q5 -19 8 -27q5 22 8 27l264 805h-162v41h316v-41h-109l-295 -881h-53l-297 881h-108z" />
<glyph unicode="w" horiz-adv-x="1445" d="M29 881v41h323v-41h-166l242 -809l4 -21q1 6 3 12l3 9l252 850h53l256 -850q0 -1 5 -21l6 21l237 809h-129v41h299v-41h-127l-262 -881h-55l-254 842l-6 18l-6 -18l-252 -842h-56l-264 881h-106z" />
<glyph unicode="x" horiz-adv-x="1021" d="M55 0v41h129l297 436l-272 404h-129v41h352v-41h-164l246 -369l250 369h-170v41h346v-41h-129l-270 -400l297 -440h129v-41h-346v41h157l-270 405l-272 -405h163v-41h-344z" />
<glyph unicode="y" horiz-adv-x="907" d="M23 881v41h323v-41h-164l269 -820q3 -17 8 -26l6 26l268 820h-164v41h316v-41h-109l-350 -1071q-32 -96 -84.5 -139.5t-132.5 -43.5q-50 0 -84 11v38q46 -8 80 -8q128 0 182 156l47 139l-303 918h-108z" />
<glyph unicode="z" horiz-adv-x="788" d="M92 0v37l516 844h-440v-197h-49v238h549v-37l-516 -844h497v217h45v-258h-602z" />
<glyph unicode="{" horiz-adv-x="638" d="M25 567v33v8h20q54 0 91.5 7t71.5 27.5t51 63t17 107.5v389q0 293 279 293q5 0 12 -1t11 -1v-39q-57 0 -100 -11.5t-79.5 -38.5t-55.5 -78.5t-19 -125.5v-391q0 -181 -150 -221q150 -40 150 -219v-432q0 -74 19 -125.5t55.5 -78.5t79.5 -38.5t100 -11.5v-39q-4 0 -11 -1 t-12 -1q-279 0 -279 292v431q0 64 -17 105.5t-51 62t-71.5 27.5t-91.5 7h-20z" />
<glyph unicode="|" horiz-adv-x="528" d="M242 -190v1691h45v-1691h-45z" />
<glyph unicode="}" horiz-adv-x="638" d="M61 -317q120 0 187 55.5t67 198.5v432q0 179 150 219q-150 40 -150 221v391q0 143 -67 198.5t-187 55.5v39l21 2q280 0 280 -293v-389q0 -65 17 -107.5t51 -63t71.5 -27.5t92.5 -7h20v-35v-6h-20q-55 0 -92.5 -7t-71.5 -27.5t-51 -62t-17 -105.5v-431q0 -83 -21.5 -141.5 t-61.5 -90.5t-88 -46t-109 -14l-21 2v39z" />
<glyph unicode="~" d="M117 520q15 75 67 122.5t125 47.5q80 0 187 -69l75 -46q33 -21 50 -30.5t48.5 -20t59.5 -10.5q59 0 98.5 36.5t57.5 100.5l37 -12q-15 -75 -66.5 -122.5t-124.5 -47.5q-35 0 -72.5 13t-57.5 24.5t-56 34.5l-76 45q-92 61 -158 61q-60 0 -99.5 -37.5t-55.5 -101.5z" />
<glyph unicode="&#xa1;" horiz-adv-x="540" d="M217 889q0 22 15 36.5t38 14.5t37.5 -14.5t14.5 -36.5q0 -23 -14.5 -38t-37.5 -15t-38 15t-15 38zM242 -362l6 1001h43l6 -1001h-55z" />
<glyph unicode="&#xa2;" d="M221 618q0 223 83 340.5t222 133.5v278h47v-276q123 0 209 -58v-235h-49v219q-73 31 -155 31q-139 0 -222.5 -104t-83.5 -326q0 -221 80 -329t209 -108q70 0 127 32.5t94 86.5l25 -29q-80 -127 -234 -135v-274h-47v274q-139 13 -222 134t-83 345z" />
<glyph unicode="&#xa3;" d="M133 494v41h262q-17 40 -51 101t-57.5 104t-42.5 104t-19 119q0 137 92 215.5t236 78.5q75 0 133.5 -23t95 -63t58 -87.5t30.5 -104.5l-43 -8q-21 108 -86.5 175.5t-187.5 67.5t-199.5 -66.5t-77.5 -186.5q0 -71 28.5 -141t77.5 -153.5t69 -131.5h278v-41h-262 q22 -64 22 -132q0 -105 -56.5 -188t-158.5 -129h586v217h49v-262h-721v41q120 47 184 130.5t64 190.5q0 64 -22 132h-281z" />
<glyph unicode="&#xa4;" d="M74 274l196 197q-75 91 -75 221q0 128 73 217l-194 195l32 33l195 -195q92 82 221 82q128 0 219 -82l193 195l33 -33l-193 -195q74 -90 74 -217q0 -129 -76 -221l195 -197l-33 -32l-197 194q-91 -78 -215 -78q-130 0 -219 80l-197 -196zM242 692q0 -128 80.5 -209.5 t199.5 -81.5q118 0 197.5 81.5t79.5 209.5t-79.5 208.5t-197.5 80.5q-119 0 -199.5 -80.5t-80.5 -208.5z" />
<glyph unicode="&#xa5;" d="M33 1200v41h366v-41h-194l297 -543q6 -8 12.5 -20.5t7.5 -13.5q1 2 19 34l299 543h-193v41h361v-41h-117l-332 -598h354v-43h-368v-233h368v-43h-368v-242h239v-41h-526v41h238v242h-369v43h369v233h-369v43h356l-331 598h-119z" />
<glyph unicode="&#xa6;" horiz-adv-x="528" d="M242 -190v563h45v-563h-45zM242 938v563h45v-563h-45z" />
<glyph unicode="&#xa7;" horiz-adv-x="966" d="M109 674q0 44 12 83t29 66.5t45.5 54.5t51.5 43t56 37q-92 79 -92 199q0 123 85.5 186.5t219.5 63.5q153 0 266 -68v-284h-45v266q-100 43 -219 43q-118 0 -187 -52.5t-69 -152.5q0 -49 16.5 -88.5t49.5 -70t69.5 -52.5t87.5 -45l113 -53q128 -59 195 -133.5t67 -184.5 q0 -54 -16.5 -99.5t-47 -79.5t-61 -57t-71.5 -46q92 -82 92 -201q0 -122 -86 -186t-219 -64q-154 0 -267 68v283h47v-265q100 -43 218 -43q117 0 186.5 53.5t69.5 153.5q0 91 -57.5 148.5t-164.5 105.5l-114 53q-128 61 -194 134.5t-66 183.5zM158 680q0 -96 60.5 -163 t174.5 -118l115 -55q68 -29 127 -72q38 25 63.5 45.5t54 52t42.5 71.5t14 87q0 95 -60 160t-176 119l-114 55q-86 42 -127 72q-38 -25 -63.5 -45.5t-54 -52t-42.5 -70.5t-14 -86z" />
<glyph unicode="&#xa8;" horiz-adv-x="505" d="M55 1257q0 20 14.5 34t34.5 14q18 0 32 -14t14 -34t-14 -33.5t-32 -13.5q-20 0 -34.5 13.5t-14.5 33.5zM358 1257q0 21 13.5 34.5t34.5 13.5q19 0 32 -14t13 -34t-13 -33.5t-32 -13.5q-22 0 -35 13t-13 34z" />
<glyph unicode="&#xa9;" horiz-adv-x="1646" d="M127 678q0 187 93.5 346.5t254 252.5t348.5 93q187 0 347 -93t253 -252.5t93 -346.5t-93 -347t-253 -253.5t-347 -93.5q-188 0 -348.5 93.5t-254 253.5t-93.5 347zM170 678q0 -179 88.5 -330t238.5 -238t326 -87q131 0 251 51.5t207.5 138.5t139.5 209t52 256 q0 133 -52 254t-139.5 208.5t-207.5 139t-251 51.5q-175 0 -325.5 -87t-239 -237.5t-88.5 -328.5zM592 684q0 167 71 249.5t193 82.5q97 0 154 -41v-176h-41v162q-46 18 -107 18q-225 0 -225 -291q0 -152 57.5 -226.5t155.5 -74.5q91 0 158 76l22 -25q-70 -94 -184 -94 q-118 0 -186 89t-68 251z" />
<glyph unicode="&#xaa;" horiz-adv-x="565" d="M68 451v41h446v-41h-446zM86 834q0 77 51 115t139 38h115v86q0 144 -129 144q-78 0 -135 -66l-21 23q54 83 166 83q76 0 120 -45t44 -133v-284q0 -74 64 -74q19 0 35 2v-37q-20 -4 -46 -4q-89 0 -92 98v17q-10 -54 -52 -84.5t-103 -30.5q-71 0 -113.5 41t-42.5 111z M131 838q0 -54 31.5 -85.5t87.5 -31.5q66 0 103.5 46t37.5 122v63h-108q-152 0 -152 -114z" />
<glyph unicode="&#xab;" horiz-adv-x="823" d="M104 506l244 328l35 -23l-217 -305l217 -307l-35 -23zM414 506l245 328l33 -23l-217 -305l217 -307l-33 -23z" />
<glyph unicode="&#xac;" d="M115 559v43h735v-432h-47v389h-688z" />
<glyph unicode="&#xad;" horiz-adv-x="509" d="M80 481v45h350v-45h-350z" />
<glyph unicode="&#xae;" horiz-adv-x="1097" d="M102 1001q0 185 130.5 316t314.5 131q122 0 225 -60t163 -163t60 -224q0 -186 -131 -316t-317 -130q-185 0 -315 130t-130 316zM139 1001q0 -170 119.5 -291.5t288.5 -121.5t289 121.5t120 291.5t-120 291t-289 121t-288.5 -121t-119.5 -291zM387 801v28h59v349h-59v30 h164q61 0 95 -27.5t34 -82.5q0 -92 -88 -111l78 -133q17 -29 47 -29h18v-26q-10 -4 -26 -4q-47 0 -70 45l-86 143h-2h-68v-154h58v-28h-154zM483 1014h68q47 0 69.5 23t22.5 59q0 82 -94 82h-66v-164z" />
<glyph unicode="&#xaf;" horiz-adv-x="475" d="M55 1217v45h363v-45h-363z" />
<glyph unicode="&#xb0;" horiz-adv-x="636" d="M86 1194q0 99 68.5 163t164.5 64t163 -64t67 -163q0 -100 -67.5 -165.5t-162.5 -65.5q-96 0 -164.5 66t-68.5 165zM133 1194q0 -85 53 -136.5t133 -51.5q79 0 132 52t53 136q0 85 -53 135.5t-132 50.5q-80 0 -133 -50.5t-53 -135.5z" />
<glyph unicode="&#xb1;" d="M133 0v43h772v-43h-772zM133 594v43h365v303h47v-303h360v-43h-360v-307h-47v307h-365z" />
<glyph unicode="&#xb2;" horiz-adv-x="620" d="M76 774v33l274 336q59 72 86 125t27 112q0 88 -53.5 132t-137.5 44q-70 0 -137 -26v-197h-45v213q79 49 189 49q105 0 169 -55.5t64 -159.5q0 -69 -31 -129t-94 -135l-246 -299h389v-43h-454z" />
<glyph unicode="&#xb3;" horiz-adv-x="595" d="M63 858l23 29q75 -82 184 -82q92 0 148.5 50t56.5 134q0 80 -55.5 132.5t-151.5 52.5h-63v38h26q105 0 159 49t54 132q0 76 -46 119.5t-132 43.5q-61 0 -137 -26v-164h-45v182q79 47 186 47q102 0 163 -53.5t61 -148.5q0 -74 -38 -124.5t-110 -72.5q85 -15 131.5 -70.5 t46.5 -138.5q0 -104 -71.5 -164.5t-176.5 -60.5q-138 0 -213 96z" />
<glyph unicode="&#xb4;" horiz-adv-x="374" d="M55 1079l211 357h41q12 0 12 -11q0 -4 -14 -26l-207 -320h-43z" />
<glyph unicode="&#xb5;" horiz-adv-x="960" d="M184 -307l4 307v922h50v-625q0 -131 59 -199.5t158 -68.5q115 0 180 88.5t65 222.5v582h52v-754q0 -133 106 -133q21 0 57 4v-39q-32 -8 -67 -8q-68 0 -105.5 43.5t-37.5 126.5v41q-14 -91 -83.5 -155t-172.5 -64q-155 0 -213 145v-491h-52v55z" />
<glyph unicode="&#xb6;" horiz-adv-x="1175" d="M78 985q0 176 109 271.5t302 95.5h592v-43h-192v-1336q0 -179 -85 -266.5t-226 -89.5h-11v45h13q113 0 186.5 75.5t73.5 235.5v1336h-222v-1309h-51v616h-78q-194 0 -302.5 96t-108.5 273z" />
<glyph unicode="&#xb7;" horiz-adv-x="387" d="M143 504q0 22 14.5 36.5t37.5 14.5q22 0 35.5 -14.5t13.5 -36.5q0 -23 -13.5 -37t-35.5 -14q-23 0 -37.5 14t-14.5 37z" />
<glyph unicode="&#xb8;" horiz-adv-x="419" d="M55 -324q53 -16 107 -16q68 0 110.5 33t42.5 84q0 98 -155 98l6 133h37v-102q73 -3 117.5 -34.5t44.5 -92.5q0 -71 -55 -115.5t-146 -44.5q-60 0 -109 19v38z" />
<glyph unicode="&#xb9;" horiz-adv-x="559" d="M57 1489v35l226 61h34v-772h183v-39h-426v39h196v721z" />
<glyph unicode="&#xba;" horiz-adv-x="555" d="M76 973q0 143 56 215t147 72q90 0 146 -72t56 -215q0 -145 -56 -218t-146 -73q-91 0 -147 72.5t-56 218.5zM92 451v41h369v-41h-369zM123 971q0 -130 42 -191t114 -61q71 0 113 61t42 191t-42 191t-113 61q-72 0 -114 -61t-42 -191z" />
<glyph unicode="&#xbb;" horiz-adv-x="823" d="M129 199l219 307l-219 305l37 23l244 -328l-244 -330zM440 199l219 307l-219 305l35 23l246 -328l-246 -330z" />
<glyph unicode="&#xbc;" horiz-adv-x="1466" d="M57 1255v35l226 62h34v-772h183v-39h-426v39h196v720zM477 0l246 676l244 676h49l-248 -676l-242 -676h-49zM854 154v30l358 627h48h20v-616h137v-41h-137v-154h-47v154h-379zM907 195h328v546v23q-8 -11 -10 -21z" />
<glyph unicode="&#xbd;" horiz-adv-x="1554" d="M57 1255v35l226 62h34v-772h183v-39h-426v39h196v720zM477 0l246 676l244 676h49l-248 -676l-242 -676h-49zM1010 0v33l274 336q59 72 86 125t27 112q0 88 -53 132t-138 44q-70 0 -137 -26v-197h-45v213q79 49 190 49q104 0 168 -55.5t64 -159.5q0 -69 -31 -129t-94 -135 l-244 -299h387v-43h-454z" />
<glyph unicode="&#xbe;" horiz-adv-x="1484" d="M63 625l23 28q75 -82 184 -82q92 0 148.5 50.5t56.5 134.5q0 79 -55 131.5t-152 52.5h-63v39h26q105 0 159 48.5t54 131.5q0 76 -46 120t-132 44q-58 0 -137 -27v-163h-45v182q79 47 186 47q101 0 162.5 -54t61.5 -149q0 -74 -38 -124t-110 -72q85 -15 131.5 -70.5 t46.5 -138.5q0 -104 -71.5 -165t-176.5 -61q-137 0 -213 97zM496 0l245 676l244 676h49l-248 -676l-241 -676h-49zM872 154v30l359 627h47h20v-616h138v-41h-138v-154h-47v154h-379zM926 195h327v546v23q-8 -11 -10 -21z" />
<glyph unicode="&#xbf;" horiz-adv-x="819" d="M78 -74q0 43 11 81t25 66t48.5 67t59 62.5t77.5 73.5q45 41 64 60t44 48.5t33.5 54t15.5 59t7 80.5v61h47v-68q0 -77 -17.5 -128t-49.5 -89t-105 -106q-7 -7 -38 -36t-37.5 -35.5t-30.5 -31t-30 -33.5t-22.5 -30.5t-21 -35.5t-13 -35t-10.5 -41.5t-2 -43.5 q0 -125 80.5 -194.5t206.5 -69.5q131 0 229 55v299h51v-319q-131 -78 -286 -78q-147 0 -241.5 81t-94.5 226zM434 889q0 22 15 36.5t38 14.5q22 0 37 -14.5t15 -36.5q0 -23 -15 -38t-37 -15q-23 0 -38 15t-15 38z" />
<glyph unicode="&#xc0;" horiz-adv-x="1216" d="M20 0v43h146l409 1309h66l410 -1309h145v-43h-401v43h204l-131 416h-524l-129 -416h201v-43h-396zM358 504h496l-236 753l-12 41q-1 -7 -5.5 -22t-6.5 -21zM414 1751q0 10 12 10h39l174 -262h-43l-162 217q-20 29 -20 35z" />
<glyph unicode="&#xc1;" horiz-adv-x="1216" d="M20 0v43h146l409 1309h66l410 -1309h145v-43h-401v43h204l-131 416h-524l-129 -416h201v-43h-396zM358 504h496l-236 753l-12 41q-1 -7 -5.5 -22t-6.5 -21zM578 1499l176 262h37q12 0 12 -10q0 -5 -21 -35l-161 -217h-43z" />
<glyph unicode="&#xc2;" horiz-adv-x="1216" d="M20 0v43h146l409 1309h66l410 -1309h145v-43h-401v43h204l-131 416h-524l-129 -416h201v-43h-396zM330 1499l262 262h39l260 -262h-49l-232 217l-231 -217h-49zM358 504h496l-236 753l-12 41q-1 -7 -5.5 -22t-6.5 -21z" />
<glyph unicode="&#xc3;" horiz-adv-x="1216" d="M20 0v43h146l409 1309h66l410 -1309h145v-43h-401v43h204l-131 416h-524l-129 -416h201v-43h-396zM332 1567q0 65 32.5 110t92.5 45q64 0 137 -69l45 -45q64 -64 113 -64q88 0 88 119v33h39q4 -28 4 -43q0 -65 -32.5 -109.5t-94.5 -44.5q-38 0 -69.5 18t-68.5 54l-45 43 q-32 32 -57 47.5t-55 15.5q-42 0 -65 -31.5t-23 -86.5v-33h-39q-2 14 -2 41zM358 504h496l-236 753l-12 41q-1 -7 -5.5 -22t-6.5 -21z" />
<glyph unicode="&#xc4;" horiz-adv-x="1216" d="M20 0v43h146l409 1309h66l410 -1309h145v-43h-401v43h204l-131 416h-524l-129 -416h201v-43h-396zM358 504h496l-236 753l-12 41q-1 -7 -5.5 -22t-6.5 -21zM391 1579q0 20 14.5 33.5t34.5 13.5q18 0 31.5 -13.5t13.5 -33.5t-13.5 -33.5t-31.5 -13.5q-20 0 -34.5 13.5 t-14.5 33.5zM731 1579q0 20 13.5 33.5t33.5 13.5q19 0 32 -13.5t13 -33.5t-13 -33.5t-32 -13.5q-20 0 -33.5 13.5t-13.5 33.5z" />
<glyph unicode="&#xc5;" horiz-adv-x="1216" d="M20 0v43h146l409 1309h66l410 -1309h145v-43h-401v43h204l-131 416h-524l-129 -416h201v-43h-396zM358 504h496l-236 753l-12 41q-1 -7 -5.5 -22t-6.5 -21zM428 1622q0 75 53.5 127.5t128.5 52.5t128 -52.5t53 -127.5t-53 -126.5t-128 -51.5t-128.5 51.5t-53.5 126.5z M471 1622q0 -59 41 -98t98 -39t97.5 39t40.5 98t-41 99t-97 40q-57 0 -98 -40t-41 -99z" />
<glyph unicode="&#xc6;" horiz-adv-x="1679" d="M0 0v43h145l584 1266h-235v43h1034v-314h-49v271h-656l105 -592h385v-43h-379l110 -631h457v287h49v-330h-772v43h213l-73 416h-531l-190 -416h200v-43h-397zM408 504h501l-137 792q-3 -6 -8.5 -19.5t-9.5 -21.5z" />
<glyph unicode="&#xc7;" horiz-adv-x="1009" d="M127 680q0 180 36.5 315t101.5 215t149 119t186 39q157 0 283 -78v-321h-52v301q-104 55 -227 55q-73 0 -135.5 -21.5t-116 -69.5t-91 -121.5t-58.5 -182.5t-21 -246q0 -167 31 -294t87 -204.5t128.5 -116t159.5 -38.5q175 0 303 162l31 -29q-137 -180 -334 -180v-78 q73 -3 117.5 -34.5t44.5 -92.5q0 -71 -55 -115.5t-146 -44.5q-60 0 -109 19v38q53 -16 107 -16q68 0 110.5 33t42.5 84q0 98 -155 98l4 109q-192 14 -307 191t-115 505z" />
<glyph unicode="&#xc8;" horiz-adv-x="1087" d="M94 0v43h197v1266h-197v43h842v-314h-49v271h-543v-592h385v-43h-385v-631h565v287h49v-330h-864zM387 1751q0 10 12 10h39l174 -262h-43l-161 217q-21 30 -21 35z" />
<glyph unicode="&#xc9;" horiz-adv-x="1087" d="M94 0v43h197v1266h-197v43h842v-314h-49v271h-543v-592h385v-43h-385v-631h565v287h49v-330h-864zM551 1499l176 262h37q12 0 12 -10q0 -6 -20 -35l-162 -217h-43z" />
<glyph unicode="&#xca;" horiz-adv-x="1087" d="M94 0v43h197v1266h-197v43h842v-314h-49v271h-543v-592h385v-43h-385v-631h565v287h49v-330h-864zM303 1499l262 262h39l260 -262h-49l-231 217l-232 -217h-49z" />
<glyph unicode="&#xcb;" horiz-adv-x="1087" d="M94 0v43h197v1266h-197v43h842v-314h-49v271h-543v-592h385v-43h-385v-631h565v287h49v-330h-864zM365 1579q0 20 14.5 33.5t34.5 13.5q18 0 31.5 -13.5t13.5 -33.5t-13.5 -33.5t-31.5 -13.5q-20 0 -34.5 13.5t-14.5 33.5zM705 1579q0 20 13.5 33.5t33.5 13.5 q19 0 32 -13.5t13 -33.5t-13 -33.5t-32 -13.5q-20 0 -33.5 13.5t-13.5 33.5z" />
<glyph unicode="&#xcc;" horiz-adv-x="634" d="M94 0v43h197v1266h-197v43h447v-43h-197v-1266h197v-43h-447zM123 1751q0 10 12 10h39l174 -262h-43l-162 217q-20 29 -20 35z" />
<glyph unicode="&#xcd;" horiz-adv-x="634" d="M94 0v43h197v1266h-197v43h447v-43h-197v-1266h197v-43h-447zM285 1499l176 262h37q12 0 12 -10q0 -5 -21 -35l-161 -217h-43z" />
<glyph unicode="&#xce;" horiz-adv-x="634" d="M37 1499l262 262h39l260 -262h-49l-232 217l-231 -217h-49zM94 0v43h197v1266h-197v43h447v-43h-197v-1266h197v-43h-447z" />
<glyph unicode="&#xcf;" horiz-adv-x="634" d="M94 0v43h197v1266h-197v43h447v-43h-197v-1266h197v-43h-447zM100 1579q0 20 14.5 33.5t35.5 13.5q18 0 31.5 -13.5t13.5 -33.5t-13.5 -33.5t-31.5 -13.5q-21 0 -35.5 13.5t-14.5 33.5zM440 1579q0 20 13.5 33.5t33.5 13.5q19 0 32 -13.5t13 -33.5t-13 -33.5t-32 -13.5 q-20 0 -33.5 13.5t-13.5 33.5z" />
<glyph unicode="&#xd0;" horiz-adv-x="1177" d="M94 0v43h197v633h-197v41h197v592h-197v43h422q117 0 212.5 -40.5t168 -121t112.5 -211.5t40 -303q0 -171 -40 -302t-112.5 -212t-168.5 -121.5t-212 -40.5h-422zM344 43h164q225 0 355 156t130 477q0 323 -130 478t-355 155h-164v-592h320v-41h-320v-633z" />
<glyph unicode="&#xd1;" horiz-adv-x="1357" d="M96 0v43h195v1266h-195v43h275l624 -1221l29 -65v1243h-199v43h439v-43h-195v-1309h-63l-641 1241q-5 13 -15 35t-14 31v-1264h199v-43h-439zM395 1567q0 65 32.5 110t92.5 45q64 0 137 -69l45 -45q64 -64 113 -64q88 0 88 119v33h39q4 -28 4 -43q0 -65 -32.5 -109.5 t-94.5 -44.5q-38 0 -68.5 18t-68.5 54l-45 43q-63 63 -113 63q-42 0 -65 -31.5t-23 -86.5v-33h-39q-2 14 -2 41z" />
<glyph unicode="&#xd2;" horiz-adv-x="1116" d="M127 676q0 179 32.5 313.5t91 216.5t136 122t172.5 40q197 0 312.5 -170.5t115.5 -521.5q0 -349 -116 -520.5t-312 -171.5q-197 0 -314.5 172t-117.5 520zM182 676q0 -170 28.5 -297t80.5 -202.5t119 -112.5t149 -37t149 37t118 112.5t79.5 202.5t28.5 297t-28.5 297 t-79.5 202.5t-118 112.5t-149 37t-149 -37t-119 -112.5t-80.5 -202.5t-28.5 -297zM365 1751q0 10 12 10h39l174 -262h-43l-162 217q-20 29 -20 35z" />
<glyph unicode="&#xd3;" horiz-adv-x="1116" d="M127 676q0 179 32.5 313.5t91 216.5t136 122t172.5 40q197 0 312.5 -170.5t115.5 -521.5q0 -349 -116 -520.5t-312 -171.5q-197 0 -314.5 172t-117.5 520zM182 676q0 -170 28.5 -297t80.5 -202.5t119 -112.5t149 -37t149 37t118 112.5t79.5 202.5t28.5 297t-28.5 297 t-79.5 202.5t-118 112.5t-149 37t-149 -37t-119 -112.5t-80.5 -202.5t-28.5 -297zM526 1499l176 262h37q13 0 13 -10q0 -5 -21 -35l-162 -217h-43z" />
<glyph unicode="&#xd4;" horiz-adv-x="1116" d="M127 676q0 179 32.5 313.5t91 216.5t136 122t172.5 40q197 0 312.5 -170.5t115.5 -521.5q0 -349 -116 -520.5t-312 -171.5q-197 0 -314.5 172t-117.5 520zM182 676q0 -170 28.5 -297t80.5 -202.5t119 -112.5t149 -37t149 37t118 112.5t79.5 202.5t28.5 297t-28.5 297 t-79.5 202.5t-118 112.5t-149 37t-149 -37t-119 -112.5t-80.5 -202.5t-28.5 -297zM279 1499l262 262h39l260 -262h-49l-232 217l-231 -217h-49z" />
<glyph unicode="&#xd5;" horiz-adv-x="1116" d="M127 676q0 179 32.5 313.5t91 216.5t136 122t172.5 40q197 0 312.5 -170.5t115.5 -521.5q0 -349 -116 -520.5t-312 -171.5q-197 0 -314.5 172t-117.5 520zM182 676q0 -170 28.5 -297t80.5 -202.5t119 -112.5t149 -37t149 37t118 112.5t79.5 202.5t28.5 297t-28.5 297 t-79.5 202.5t-118 112.5t-149 37t-149 -37t-119 -112.5t-80.5 -202.5t-28.5 -297zM283 1567q0 65 32.5 110t92.5 45q64 0 137 -69l45 -45q64 -64 112 -64q44 0 66.5 31.5t22.5 87.5v33h38q5 -35 5 -43q0 -65 -32.5 -109.5t-94.5 -44.5q-38 0 -69.5 18t-68.5 54l-45 43 q-32 32 -57 47.5t-55 15.5q-42 0 -65 -31.5t-23 -86.5v-33h-39q-2 14 -2 41z" />
<glyph unicode="&#xd6;" horiz-adv-x="1116" d="M127 676q0 179 32.5 313.5t91 216.5t136 122t172.5 40q197 0 312.5 -170.5t115.5 -521.5q0 -349 -116 -520.5t-312 -171.5q-197 0 -314.5 172t-117.5 520zM182 676q0 -170 28.5 -297t80.5 -202.5t119 -112.5t149 -37t149 37t118 112.5t79.5 202.5t28.5 297t-28.5 297 t-79.5 202.5t-118 112.5t-149 37t-149 -37t-119 -112.5t-80.5 -202.5t-28.5 -297zM342 1579q0 20 14.5 33.5t34.5 13.5q18 0 31.5 -13.5t13.5 -33.5t-13.5 -33.5t-31.5 -13.5q-20 0 -34.5 13.5t-14.5 33.5zM682 1579q0 20 13.5 33.5t33.5 13.5q19 0 32 -13.5t13 -33.5 t-13 -33.5t-32 -13.5q-20 0 -33.5 13.5t-13.5 33.5z" />
<glyph unicode="&#xd7;" d="M178 887l31 31l313 -310l305 310l29 -31l-305 -309l311 -310l-31 -28l-309 309l-311 -309l-31 28l312 310z" />
<glyph unicode="&#xd8;" horiz-adv-x="1116" d="M63 -59l160 249q-96 184 -96 486q0 179 32.5 313.5t91 216.5t136 122t172.5 40q196 0 307 -162l148 232l39 -27l-160 -250q94 -180 94 -485q0 -349 -116 -521.5t-312 -172.5q-195 0 -309 165l-148 -233zM180 676q0 -275 74 -436l582 917q-98 168 -279 168q-82 0 -149 -37 t-119 -112.5t-80.5 -202.5t-28.5 -297zM279 193q101 -166 278 -166q172 0 274.5 158.5t102.5 490.5q0 273 -74 434z" />
<glyph unicode="&#xd9;" horiz-adv-x="1318" d="M78 1309v43h446v-43h-196v-926q0 -175 93 -265.5t245 -90.5t242.5 90t90.5 266v926h-198v43h440v-43h-197v-930q0 -188 -103 -291.5t-277 -103.5q-175 0 -282.5 104t-107.5 291v930h-196zM471 1751q0 10 12 10h39l174 -262h-43l-161 217q-21 30 -21 35z" />
<glyph unicode="&#xda;" horiz-adv-x="1318" d="M78 1309v43h446v-43h-196v-926q0 -175 93 -265.5t245 -90.5t242.5 90t90.5 266v926h-198v43h440v-43h-197v-930q0 -188 -103 -291.5t-277 -103.5q-175 0 -282.5 104t-107.5 291v930h-196zM635 1499l176 262h37q12 0 12 -10q0 -6 -20 -35l-162 -217h-43z" />
<glyph unicode="&#xdb;" horiz-adv-x="1318" d="M78 1309v43h446v-43h-196v-926q0 -175 93 -265.5t245 -90.5t242.5 90t90.5 266v926h-198v43h440v-43h-197v-930q0 -188 -103 -291.5t-277 -103.5q-175 0 -282.5 104t-107.5 291v930h-196zM385 1499l262 262h39l260 -262h-49l-231 217l-232 -217h-49z" />
<glyph unicode="&#xdc;" horiz-adv-x="1318" d="M78 1309v43h446v-43h-196v-926q0 -175 93 -265.5t245 -90.5t242.5 90t90.5 266v926h-198v43h440v-43h-197v-930q0 -188 -103 -291.5t-277 -103.5q-175 0 -282.5 104t-107.5 291v930h-196zM449 1579q0 20 14.5 33.5t34.5 13.5q18 0 31.5 -13.5t13.5 -33.5t-13.5 -33.5 t-31.5 -13.5q-20 0 -34.5 13.5t-14.5 33.5zM788 1579q0 20 14 33.5t34 13.5q19 0 32 -13.5t13 -33.5t-13 -33.5t-32 -13.5q-20 0 -34 13.5t-14 33.5z" />
<glyph unicode="&#xdd;" horiz-adv-x="1226" d="M18 1309v43h422v-43h-211l369 -660q3 -5 9 -17.5t9 -17.5q4 9 21 35l367 660h-209v43h415v-43h-153l-416 -742v-524h246v-43h-543v43h246v522l-418 744h-154zM584 1499l176 262h37q12 0 12 -10q0 -5 -21 -35l-161 -217h-43z" />
<glyph unicode="&#xde;" horiz-adv-x="1077" d="M94 -4v43h197v1270h-197v43h492v-43h-242v-252h238q197 0 307 -93.5t110 -269.5q0 -177 -109.5 -272.5t-307.5 -95.5h-238v-287h242v-43h-492zM344 369h231q179 0 274 85t95 238q0 152 -95.5 237t-273.5 85h-231v-645z" />
<glyph unicode="&#xdf;" horiz-adv-x="983" d="M72 0v41h172v840h-172v41h172v202q0 150 72.5 234t197.5 84q127 0 202 -85t75 -233q0 -119 -48.5 -198.5t-126.5 -112.5q120 -32 191.5 -139t71.5 -283q0 -192 -87.5 -296.5t-230.5 -104.5q-64 0 -125 18v41q57 -16 119 -16q123 0 197.5 91t74.5 267q0 193 -90 296.5 t-221 103.5h-8v40h6q95 0 160 77.5t65 215.5q0 129 -59.5 203t-165.5 74q-103 0 -162 -71.5t-59 -205.5v-1124h-221z" />
<glyph unicode="&#xe0;" horiz-adv-x="862" d="M88 233q0 126 84.5 189t226.5 63h205v154q0 124 -60.5 189t-164.5 65q-138 0 -227 -121l-25 29q38 63 106 101t154 38q122 0 193 -76t71 -219v-477q0 -133 113 -133q17 0 57 4v-39q-36 -8 -71 -8q-69 0 -106 43.5t-38 126.5v26q-17 -92 -88.5 -148t-175.5 -56 q-114 0 -184 67.5t-70 181.5zM137 236q0 -95 57 -152t154 -57q120 0 188 82t68 219v116h-196q-125 0 -198 -51t-73 -157zM160 1425q0 11 12 11h39l213 -357h-43l-207 320q-14 19 -14 26z" />
<glyph unicode="&#xe1;" horiz-adv-x="862" d="M88 233q0 126 84.5 189t226.5 63h205v154q0 124 -60.5 189t-164.5 65q-138 0 -227 -121l-25 29q38 63 106 101t154 38q122 0 193 -76t71 -219v-477q0 -133 113 -133q17 0 57 4v-39q-36 -8 -71 -8q-69 0 -106 43.5t-38 126.5v26q-17 -92 -88.5 -148t-175.5 -56 q-114 0 -184 67.5t-70 181.5zM137 236q0 -95 57 -152t154 -57q120 0 188 82t68 219v116h-196q-125 0 -198 -51t-73 -157zM354 1079l211 357h41q12 0 12 -11q0 -4 -14 -26l-207 -320h-43z" />
<glyph unicode="&#xe2;" horiz-adv-x="862" d="M88 233q0 126 84.5 189t226.5 63h205v154q0 124 -60.5 189t-164.5 65q-138 0 -227 -121l-25 29q38 63 106 101t154 38q122 0 193 -76t71 -219v-477q0 -133 113 -133q17 0 57 4v-39q-36 -8 -71 -8q-69 0 -106 43.5t-38 126.5v26q-17 -92 -88.5 -148t-175.5 -56 q-114 0 -184 67.5t-70 181.5zM125 1079l244 357h39l241 -357h-47l-215 305l-217 -305h-45zM137 236q0 -95 57 -152t154 -57q120 0 188 82t68 219v116h-196q-125 0 -198 -51t-73 -157z" />
<glyph unicode="&#xe3;" horiz-adv-x="862" d="M88 233q0 126 84.5 189t226.5 63h205v154q0 124 -60.5 189t-164.5 65q-138 0 -227 -121l-25 29q38 63 106 101t154 38q122 0 193 -76t71 -219v-477q0 -133 113 -133q17 0 57 4v-39q-36 -8 -71 -8q-69 0 -106 43.5t-38 126.5v26q-17 -92 -88.5 -148t-175.5 -56 q-114 0 -184 67.5t-70 181.5zM129 1206q0 66 32 111t91 45q34 0 61 -17.5t62 -52.5l45 -45q30 -34 49.5 -47.5t46.5 -13.5q40 0 62 31.5t22 85.5v34h39q4 -28 4 -43q0 -65 -32.5 -109t-90.5 -44q-36 0 -64 17.5t-61 51.5l-43 45q-23 24 -34.5 34.5t-28 19t-35.5 8.5 q-40 0 -62 -31.5t-22 -85.5v-35h-39q-2 16 -2 41zM137 236q0 -95 57 -152t154 -57q120 0 188 82t68 219v116h-196q-125 0 -198 -51t-73 -157z" />
<glyph unicode="&#xe4;" horiz-adv-x="862" d="M88 233q0 126 84.5 189t226.5 63h205v154q0 124 -60.5 189t-164.5 65q-138 0 -227 -121l-25 29q38 63 106 101t154 38q122 0 193 -76t71 -219v-477q0 -133 113 -133q17 0 57 4v-39q-36 -8 -71 -8q-69 0 -106 43.5t-38 126.5v26q-17 -92 -88.5 -148t-175.5 -56 q-114 0 -184 67.5t-70 181.5zM137 236q0 -95 57 -152t154 -57q120 0 188 82t68 219v116h-196q-125 0 -198 -51t-73 -157zM186 1257q0 20 15 34t35 14q18 0 31.5 -14t13.5 -34t-13.5 -33.5t-31.5 -13.5q-21 0 -35.5 13.5t-14.5 33.5zM489 1257q0 21 13.5 34.5t34.5 13.5 q19 0 32 -14t13 -34t-13 -33.5t-32 -13.5q-21 0 -34.5 13t-13.5 34z" />
<glyph unicode="&#xe5;" horiz-adv-x="862" d="M88 233q0 126 84.5 189t226.5 63h205v154q0 124 -60.5 189t-164.5 65q-138 0 -227 -121l-25 29q38 63 106 101t154 38q122 0 193 -76t71 -219v-477q0 -133 113 -133q17 0 57 4v-39q-36 -8 -71 -8q-69 0 -106 43.5t-38 126.5v26q-17 -92 -88.5 -148t-175.5 -56 q-114 0 -184 67.5t-70 181.5zM137 236q0 -95 57 -152t154 -57q120 0 188 82t68 219v116h-196q-125 0 -198 -51t-73 -157zM205 1257q0 76 53.5 128.5t128.5 52.5t127.5 -52.5t52.5 -128.5q0 -74 -52.5 -126t-127.5 -52t-128.5 52.5t-53.5 125.5zM248 1257q0 -59 41 -98 t98 -39t97 39t40 98t-40.5 99.5t-96.5 40.5t-97.5 -40.5t-41.5 -99.5z" />
<glyph unicode="&#xe6;" horiz-adv-x="1316" d="M88 236q0 128 85.5 193t225.5 65h205v145q0 124 -60.5 189t-164.5 65q-138 0 -227 -121l-25 29q38 63 106 101t154 38q104 0 173.5 -59t86.5 -170q34 115 103.5 172t160.5 57q125 0 206 -101t81 -294q0 -52 -4 -92h-543q3 -216 82.5 -320t208.5 -104q137 0 221 116 l27 -28q-93 -133 -252 -133q-107 0 -188.5 63t-118.5 189q-21 -114 -95 -183t-192 -69q-116 0 -186 68t-70 184zM137 240q0 -97 56.5 -155t154.5 -58q120 0 188 82t68 219v125h-196q-126 0 -198.5 -52.5t-72.5 -160.5zM653 494h494q0 8 1 26t1 29q0 174 -69 261t-171 87 q-112 0 -182 -106t-74 -297z" />
<glyph unicode="&#xe7;" horiz-adv-x="778" d="M106 463q0 240 96 358.5t253 118.5q123 0 211 -59v-236h-48v217q-72 35 -157 35q-137 0 -220 -105.5t-83 -326.5t79.5 -328.5t206.5 -107.5q69 0 126.5 32.5t95.5 83.5l28 -28q-90 -130 -243 -133v-78q72 -3 116.5 -34.5t44.5 -92.5q0 -71 -54.5 -115.5t-145.5 -44.5 q-60 0 -109 19v38q53 -16 107 -16q68 0 110.5 33t42.5 84q0 98 -155 98l4 109q-139 11 -222.5 132t-83.5 347z" />
<glyph unicode="&#xe8;" horiz-adv-x="821" d="M106 467q0 234 86 353.5t222 119.5q126 0 207 -101t81 -294q0 -44 -4 -84h-542q3 -221 82 -326.5t208 -105.5q138 0 222 116l26 -28q-87 -133 -252 -133q-153 0 -244.5 120t-91.5 363zM158 502h495v45q0 177 -68 263.5t-171 86.5q-108 0 -179 -98t-77 -297zM195 1425 q0 11 12 11h39l213 -357h-43l-207 320q-14 19 -14 26z" />
<glyph unicode="&#xe9;" horiz-adv-x="821" d="M106 467q0 234 86 353.5t222 119.5q126 0 207 -101t81 -294q0 -44 -4 -84h-542q3 -221 82 -326.5t208 -105.5q138 0 222 116l26 -28q-87 -133 -252 -133q-153 0 -244.5 120t-91.5 363zM158 502h495v45q0 177 -68 263.5t-171 86.5q-108 0 -179 -98t-77 -297zM391 1079 l211 357h41q12 0 12 -11q0 -4 -14 -26l-207 -320h-43z" />
<glyph unicode="&#xea;" horiz-adv-x="821" d="M106 467q0 234 86 353.5t222 119.5q126 0 207 -101t81 -294q0 -44 -4 -84h-542q3 -221 82 -326.5t208 -105.5q138 0 222 116l26 -28q-87 -133 -252 -133q-153 0 -244.5 120t-91.5 363zM158 502h495v45q0 177 -68 263.5t-171 86.5q-108 0 -179 -98t-77 -297zM160 1079 l243 357h39l242 -357h-47l-215 305l-217 -305h-45z" />
<glyph unicode="&#xeb;" horiz-adv-x="821" d="M106 467q0 234 86 353.5t222 119.5q126 0 207 -101t81 -294q0 -44 -4 -84h-542q3 -221 82 -326.5t208 -105.5q138 0 222 116l26 -28q-87 -133 -252 -133q-153 0 -244.5 120t-91.5 363zM158 502h495v45q0 177 -68 263.5t-171 86.5q-108 0 -179 -98t-77 -297zM223 1257 q0 20 14.5 34t34.5 14q18 0 31.5 -14t13.5 -34t-13.5 -33.5t-31.5 -13.5q-20 0 -34.5 13.5t-14.5 33.5zM526 1257q0 21 13 34.5t34 13.5q19 0 32 -14t13 -34t-13 -33.5t-32 -13.5q-21 0 -34 13t-13 34z" />
<glyph unicode="&#xec;" horiz-adv-x="489" d="M61 1425q0 11 13 11h37l172 -357h-43l-162 312q-2 6 -6.5 13.5l-7.5 12.5t-3 8zM72 0v41h172v840h-172v41h221v-881h156v-41h-377z" />
<glyph unicode="&#xed;" horiz-adv-x="489" d="M72 0v41h172v840h-172v41h221v-881h156v-41h-377zM231 1079l172 357h39q11 0 11 -11q0 -4 -17 -34l-162 -312h-43z" />
<glyph unicode="&#xee;" horiz-adv-x="489" d="M-6 1079l244 357h38l242 -357h-47l-215 305l-215 -305h-47zM72 0v41h172v840h-172v41h221v-881h156v-41h-377z" />
<glyph unicode="&#xef;" horiz-adv-x="489" d="M72 0v41h172v840h-172v41h221v-881h156v-41h-377zM74 1257q0 20 14.5 34t34.5 14q19 0 32 -14t13 -34t-13 -33.5t-32 -13.5q-20 0 -34.5 13.5t-14.5 33.5zM340 1257q0 21 13 34.5t34 13.5q20 0 32.5 -13.5t12.5 -34.5q0 -20 -12.5 -33.5t-32.5 -13.5q-21 0 -34 13t-13 34 z" />
<glyph unicode="&#xf0;" horiz-adv-x="868" d="M106 442q0 226 91 342.5t235 116.5q98 0 167.5 -54.5t102.5 -160.5q-53 350 -301 574l-213 -142l-22 33l203 135q-78 67 -185 123l27 33q108 -52 199 -129l192 129l23 -33l-185 -123q320 -288 320 -807q0 -274 -101 -393q-80 -102 -225 -102q-146 0 -237 116t-91 342z M158 442q0 -211 75.5 -314t198.5 -103q125 0 202 103t77 314t-77 314.5t-202 103.5q-123 0 -198.5 -104t-75.5 -314z" />
<glyph unicode="&#xf1;" horiz-adv-x="1030" d="M72 0v41h172v840h-172v41h217v-207q16 95 86.5 160t179.5 65q118 0 190 -79t72 -228v-592h170v-41h-371v41h152v584q0 131 -59.5 199.5t-161.5 68.5q-120 0 -187 -88.5t-67 -224.5v-539h151v-41h-372zM264 1206q0 66 32 111t91 45q34 0 61 -17.5t62 -52.5l45 -45 q30 -34 49.5 -47.5t46.5 -13.5q40 0 62 31.5t22 85.5v34h39q4 -28 4 -43q0 -65 -32.5 -109t-90.5 -44q-36 0 -64 17.5t-61 51.5l-43 45q-23 24 -34.5 34.5t-28 19t-35.5 8.5q-40 0 -62 -31.5t-22 -85.5v-35h-39q-2 16 -2 41z" />
<glyph unicode="&#xf2;" horiz-adv-x="868" d="M106 461q0 240 90.5 359.5t237.5 119.5t237.5 -119.5t90.5 -359.5q0 -239 -90.5 -358t-237.5 -119t-237.5 119t-90.5 358zM158 461q0 -223 75.5 -329.5t200.5 -106.5q123 0 200 107t77 329t-77 329t-200 107q-125 0 -200.5 -106.5t-75.5 -329.5zM207 1425q0 11 12 11h39 l213 -357h-43l-207 320q-14 19 -14 26z" />
<glyph unicode="&#xf3;" horiz-adv-x="868" d="M106 461q0 240 90.5 359.5t237.5 119.5t237.5 -119.5t90.5 -359.5q0 -239 -90.5 -358t-237.5 -119t-237.5 119t-90.5 358zM158 461q0 -223 75.5 -329.5t200.5 -106.5q123 0 200 107t77 329t-77 329t-200 107q-125 0 -200.5 -106.5t-75.5 -329.5zM403 1079l211 357h41 q13 0 13 -11q0 -2 -15 -26l-207 -320h-43z" />
<glyph unicode="&#xf4;" horiz-adv-x="868" d="M106 461q0 240 90.5 359.5t237.5 119.5t237.5 -119.5t90.5 -359.5q0 -239 -90.5 -358t-237.5 -119t-237.5 119t-90.5 358zM158 461q0 -223 75.5 -329.5t200.5 -106.5q123 0 200 107t77 329t-77 329t-200 107q-125 0 -200.5 -106.5t-75.5 -329.5zM172 1079l244 357h39 l241 -357h-47l-215 305l-217 -305h-45z" />
<glyph unicode="&#xf5;" horiz-adv-x="868" d="M106 461q0 240 90.5 359.5t237.5 119.5t237.5 -119.5t90.5 -359.5q0 -239 -90.5 -358t-237.5 -119t-237.5 119t-90.5 358zM158 461q0 -223 75.5 -329.5t200.5 -106.5q123 0 200 107t77 329t-77 329t-200 107q-125 0 -200.5 -106.5t-75.5 -329.5zM176 1206q0 66 32 111 t91 45q34 0 61 -17.5t62 -52.5l45 -45q30 -34 49.5 -47.5t46.5 -13.5q40 0 62 31.5t22 85.5v34h39q4 -28 4 -43q0 -65 -32.5 -109t-90.5 -44q-36 0 -64 17.5t-61 51.5l-43 45q-23 24 -34.5 34.5t-28 19t-35.5 8.5q-40 0 -62 -31.5t-22 -85.5v-35h-39q-2 16 -2 41z" />
<glyph unicode="&#xf6;" horiz-adv-x="868" d="M106 461q0 240 90.5 359.5t237.5 119.5t237.5 -119.5t90.5 -359.5q0 -239 -90.5 -358t-237.5 -119t-237.5 119t-90.5 358zM158 461q0 -223 75.5 -329.5t200.5 -106.5q123 0 200 107t77 329t-77 329t-200 107q-125 0 -200.5 -106.5t-75.5 -329.5zM236 1257q0 20 14.5 34 t34.5 14q18 0 31.5 -14t13.5 -34t-13.5 -33.5t-31.5 -13.5q-20 0 -34.5 13.5t-14.5 33.5zM539 1257q0 21 13 34.5t34 13.5q19 0 32 -14t13 -34t-13 -33.5t-32 -13.5q-21 0 -34 13t-13 34z" />
<glyph unicode="&#xf7;" d="M123 559v43h809v-43h-809zM475 274q0 22 15 37t38 15q22 0 36 -15t14 -37t-14 -36.5t-36 -14.5q-23 0 -38 14.5t-15 36.5zM475 889q0 21 15 35t38 14q22 0 36 -14t14 -35q0 -23 -14 -38t-36 -15q-23 0 -38 15t-15 38z" />
<glyph unicode="&#xf8;" horiz-adv-x="888" d="M49 -63l139 194q-71 120 -71 330q0 241 89.5 360t237.5 119q144 0 232 -113l129 181l33 -25l-140 -190q74 -128 74 -332q0 -122 -25.5 -215t-70.5 -149.5t-103.5 -84.5t-128.5 -28q-145 0 -231 108l-131 -178zM166 461q0 -177 53 -289l426 616q-70 109 -201 109 q-125 0 -201.5 -106.5t-76.5 -329.5zM242 135q69 -110 202 -110q125 0 201 106t76 330q0 182 -51 287z" />
<glyph unicode="&#xf9;" horiz-adv-x="997" d="M41 881v41h221v-625q0 -131 60.5 -199.5t160.5 -68.5q119 0 186.5 88.5t67.5 222.5v541h-168v41h217v-754q0 -133 111 -133q19 0 59 4v-39q-36 -8 -71 -8q-69 0 -106.5 43.5t-37.5 126.5v41q-16 -92 -86.5 -155.5t-179.5 -63.5q-119 0 -191.5 78t-72.5 227v592h-170z M272 1425q0 11 13 11h39l213 -357h-43l-207 320q-15 20 -15 26z" />
<glyph unicode="&#xfa;" horiz-adv-x="997" d="M41 881v41h221v-625q0 -131 60.5 -199.5t160.5 -68.5q119 0 186.5 88.5t67.5 222.5v541h-168v41h217v-754q0 -133 111 -133q19 0 59 4v-39q-36 -8 -71 -8q-69 0 -106.5 43.5t-37.5 126.5v41q-16 -92 -86.5 -155.5t-179.5 -63.5q-119 0 -191.5 78t-72.5 227v592h-170z M442 1079l211 357h39q15 0 15 -11q0 -2 -15 -26l-207 -320h-43z" />
<glyph unicode="&#xfb;" horiz-adv-x="997" d="M41 881v41h221v-625q0 -131 60.5 -199.5t160.5 -68.5q119 0 186.5 88.5t67.5 222.5v541h-168v41h217v-754q0 -133 111 -133q19 0 59 4v-39q-36 -8 -71 -8q-69 0 -106.5 43.5t-37.5 126.5v41q-16 -92 -86.5 -155.5t-179.5 -63.5q-119 0 -191.5 78t-72.5 227v592h-170z M238 1079l243 357h39l242 -357h-47l-215 305l-217 -305h-45z" />
<glyph unicode="&#xfc;" horiz-adv-x="997" d="M41 881v41h221v-625q0 -131 60.5 -199.5t160.5 -68.5q119 0 186.5 88.5t67.5 222.5v541h-168v41h217v-754q0 -133 111 -133q19 0 59 4v-39q-36 -8 -71 -8q-69 0 -106.5 43.5t-37.5 126.5v41q-16 -92 -86.5 -155.5t-179.5 -63.5q-119 0 -191.5 78t-72.5 227v592h-170z M299 1257q0 20 14.5 34t34.5 14q18 0 31.5 -14t13.5 -34t-13.5 -33.5t-31.5 -13.5q-20 0 -34.5 13.5t-14.5 33.5zM602 1257q0 21 13 34.5t34 13.5q19 0 32 -14t13 -34t-13 -33.5t-32 -13.5q-21 0 -34 13t-13 34z" />
<glyph unicode="&#xfd;" horiz-adv-x="907" d="M23 881v41h323v-41h-164l269 -820q3 -17 8 -26l6 26l268 820h-164v41h316v-41h-109l-350 -1071q-32 -96 -84.5 -139.5t-132.5 -43.5q-50 0 -84 11v38q46 -8 80 -8q128 0 182 156l47 139l-303 918h-108zM426 1079l211 357h41q12 0 12 -11q0 -4 -14 -26l-207 -320h-43z" />
<glyph unicode="&#xfe;" horiz-adv-x="954" d="M35 -322h172v1706h-172v41h221v-735q24 118 93 184t177 66q145 0 233.5 -118.5t88.5 -360.5q0 -241 -89 -359t-233 -118q-109 0 -178.5 65.5t-91.5 183.5v-555h186v-40h-407v40zM256 461q0 -434 264 -434q125 0 201 106t76 328t-76 328t-201 106q-44 0 -81 -12.5 t-71.5 -43.5t-58.5 -79t-38.5 -124.5t-14.5 -174.5z" />
<glyph unicode="&#xff;" horiz-adv-x="907" d="M23 881v41h323v-41h-164l269 -820q3 -17 8 -26l6 26l268 820h-164v41h316v-41h-109l-350 -1071q-32 -96 -84.5 -139.5t-132.5 -43.5q-50 0 -84 11v38q46 -8 80 -8q128 0 182 156l47 139l-303 918h-108zM258 1257q0 20 14.5 34t34.5 14q18 0 31.5 -14t13.5 -34 t-13.5 -33.5t-31.5 -13.5q-20 0 -34.5 13.5t-14.5 33.5zM561 1257q0 21 13 34.5t34 13.5q19 0 32 -14t13 -34t-13 -33.5t-32 -13.5q-21 0 -34 13t-13 34z" />
<glyph unicode="&#x152;" horiz-adv-x="1613" d="M127 674q0 694 504 694q81 0 182 -16h647v-314h-49v271h-545v-592h385v-43h-385v-631h568v287h49v-330h-670q-101 -16 -182 -16q-504 0 -504 690zM182 674q0 -148 23 -261.5t62.5 -186t97.5 -118t122 -63.5t142 -18q72 0 184 16v1266q-112 16 -184 16q-78 0 -142 -18.5 t-122 -64.5t-97.5 -119t-62.5 -187t-23 -262z" />
<glyph unicode="&#x153;" horiz-adv-x="1425" d="M106 461q0 240 90.5 359.5t237.5 119.5q113 0 191.5 -70t109.5 -213q30 142 104 212.5t179 70.5q126 0 207.5 -101t81.5 -294q0 -44 -4 -84h-541q1 -113 23.5 -198t62 -135t90 -74.5t111.5 -24.5q139 0 223 116l26 -28q-93 -133 -254 -133q-116 0 -196 70.5t-113 215.5 q-30 -144 -109 -215t-192 -71q-147 0 -237.5 119t-90.5 358zM158 461q0 -223 75 -329.5t199 -106.5q125 0 202 107t77 329t-77 329t-202 107q-124 0 -199 -107t-75 -329zM762 502h495v45q0 178 -67.5 264t-171.5 86q-109 0 -179.5 -97.5t-76.5 -297.5z" />
<glyph unicode="&#x178;" horiz-adv-x="1226" d="M18 1309v43h422v-43h-211l369 -660q3 -5 9 -17.5t9 -17.5q4 9 21 35l367 660h-209v43h415v-43h-153l-416 -742v-524h246v-43h-543v43h246v522l-418 744h-154zM397 1579q0 20 14.5 33.5t34.5 13.5q18 0 32 -13.5t14 -33.5t-14 -33.5t-32 -13.5q-20 0 -34.5 13.5 t-14.5 33.5zM737 1579q0 20 13.5 33.5t33.5 13.5q19 0 32 -13.5t13 -33.5t-13 -33.5t-32 -13.5q-20 0 -33.5 13.5t-13.5 33.5z" />
<glyph unicode="&#x2c6;" horiz-adv-x="634" d="M55 1079l244 357h39l242 -357h-48l-215 303l-217 -303h-45z" />
<glyph unicode="&#x2dc;" horiz-adv-x="624" d="M55 1206q0 66 32 111t91 45q34 0 61 -17.5t62 -52.5l45 -45q30 -34 49.5 -47.5t46.5 -13.5q40 0 62 31.5t22 85.5v34h39q4 -28 4 -43q0 -65 -32.5 -109t-90.5 -44q-36 0 -63.5 17t-60.5 52l-43 45q-33 34 -52.5 48t-46.5 14q-40 0 -62 -31.5t-22 -85.5v-35h-39 q-2 16 -2 41z" />
<glyph unicode="&#x2000;" horiz-adv-x="901" />
<glyph unicode="&#x2001;" horiz-adv-x="1802" />
<glyph unicode="&#x2002;" horiz-adv-x="901" />
<glyph unicode="&#x2003;" horiz-adv-x="1802" />
<glyph unicode="&#x2004;" horiz-adv-x="600" />
<glyph unicode="&#x2005;" horiz-adv-x="450" />
<glyph unicode="&#x2006;" horiz-adv-x="300" />
<glyph unicode="&#x2007;" horiz-adv-x="300" />
<glyph unicode="&#x2008;" horiz-adv-x="225" />
<glyph unicode="&#x2009;" horiz-adv-x="360" />
<glyph unicode="&#x200a;" horiz-adv-x="100" />
<glyph unicode="&#x2010;" horiz-adv-x="509" d="M80 481v45h350v-45h-350z" />
<glyph unicode="&#x2011;" horiz-adv-x="509" d="M80 481v45h350v-45h-350z" />
<glyph unicode="&#x2012;" horiz-adv-x="509" d="M80 481v45h350v-45h-350z" />
<glyph unicode="&#x2013;" horiz-adv-x="931" d="M80 483v41h772v-41h-772z" />
<glyph unicode="&#x2014;" horiz-adv-x="1863" d="M80 483v41h1704v-41h-1704z" />
<glyph unicode="&#x2018;" horiz-adv-x="468" d="M137 1171q0 81 52 142.5t137 91.5l10 -31q-73 -32 -115.5 -83t-42.5 -117q0 -40 23 -78q11 28 43 28q22 0 35.5 -13.5t13.5 -35.5q0 -21 -14 -35t-35 -14q-39 0 -73 39.5t-34 105.5z" />
<glyph unicode="&#x2019;" horiz-adv-x="468" d="M133 1040q73 32 115.5 83t42.5 116q0 45 -23 80q-11 -29 -43 -29q-22 0 -34.5 13.5t-12.5 35.5q0 23 13 36.5t34 13.5q39 0 73 -40.5t34 -107.5q0 -79 -52 -140t-137 -91z" />
<glyph unicode="&#x201a;" horiz-adv-x="468" d="M133 -262q73 32 115.5 83t42.5 116q0 41 -23 79q-10 -28 -43 -28q-22 0 -34.5 13t-12.5 36q0 22 13.5 35.5t33.5 13.5q39 0 73 -39.5t34 -105.5q0 -81 -52.5 -143t-136.5 -91z" />
<glyph unicode="&#x201c;" horiz-adv-x="798" d="M137 1171q0 81 52 142.5t137 91.5l10 -31q-73 -32 -115.5 -83t-42.5 -117q0 -40 23 -78q11 28 43 28q22 0 35.5 -13.5t13.5 -35.5q0 -21 -14 -35t-35 -14q-39 0 -73 39.5t-34 105.5zM467 1171q0 81 51.5 142.5t136.5 91.5l11 -31q-73 -32 -115.5 -83t-42.5 -117 q0 -41 22 -78q10 28 43 28q22 0 35 -13.5t13 -35.5q0 -21 -13.5 -35t-34.5 -14q-39 0 -72.5 39.5t-33.5 105.5z" />
<glyph unicode="&#x201d;" horiz-adv-x="798" d="M133 1040q73 32 115.5 83t42.5 116q0 45 -23 80q-11 -29 -43 -29q-22 0 -34.5 13.5t-12.5 35.5q0 23 13 36.5t34 13.5q39 0 73 -40.5t34 -107.5q0 -79 -52 -140t-137 -91zM461 1040q73 33 116.5 83.5t43.5 115.5q0 45 -23 80q-11 -29 -43 -29q-22 0 -35.5 13.5 t-13.5 35.5q0 23 13.5 36.5t35.5 13.5q39 0 73 -40.5t34 -107.5q0 -79 -52 -140t-137 -91z" />
<glyph unicode="&#x201e;" horiz-adv-x="798" d="M133 -262q73 32 115.5 83t42.5 116q0 41 -23 79q-10 -28 -43 -28q-22 0 -34.5 13t-12.5 36q0 22 13.5 35.5t33.5 13.5q39 0 73 -39.5t34 -105.5q0 -81 -52.5 -143t-136.5 -91zM461 -262q73 33 116.5 83.5t43.5 115.5q0 41 -23 79q-10 -28 -43 -28q-22 0 -35.5 13 t-13.5 36q0 22 13.5 35.5t35.5 13.5q39 0 73 -39.5t34 -105.5q0 -81 -52.5 -143t-136.5 -91z" />
<glyph unicode="&#x2022;" horiz-adv-x="819" d="M143 502q0 110 78.5 188t188.5 78t188 -78t78 -188t-78 -188t-188 -78t-188.5 78t-78.5 188z" />
<glyph unicode="&#x2026;" horiz-adv-x="1044" d="M143 35q0 22 14.5 36.5t37.5 14.5q22 0 35.5 -14.5t13.5 -36.5q0 -23 -13.5 -37t-35.5 -14q-23 0 -37.5 14t-14.5 37zM471 35q0 22 14.5 36.5t36.5 14.5q23 0 37 -14.5t14 -36.5q0 -23 -14 -37t-37 -14q-22 0 -36.5 14t-14.5 37zM801 35q0 22 13.5 36.5t35.5 14.5 q23 0 37 -14.5t14 -36.5q0 -23 -14 -37t-37 -14q-22 0 -35.5 14t-13.5 37z" />
<glyph unicode="&#x202f;" horiz-adv-x="360" />
<glyph unicode="&#x2039;" horiz-adv-x="514" d="M104 506l244 328l35 -23l-217 -305l217 -307l-35 -23z" />
<glyph unicode="&#x203a;" horiz-adv-x="514" d="M129 199l219 307l-219 305l37 23l244 -328l-244 -330z" />
<glyph unicode="&#x205f;" horiz-adv-x="450" />
<glyph unicode="&#x20ac;" d="M33 459v43h162q-7 72 -7 129q0 21 5 104h-160v43h164q31 239 154.5 359t305.5 120q159 0 277 -75v-285h-47v266q-102 51 -225 51q-165 0 -274.5 -107.5t-137.5 -328.5h442v-43h-446q-4 -33 -4 -104q0 -67 6 -129h444v-43h-440q33 -210 138 -320t251 -110q177 0 303 159 l27 -28q-133 -176 -332 -176q-171 0 -288 123t-150 352h-168z" />
<glyph unicode="&#x2122;" horiz-adv-x="1130" d="M47 1227v125h385v-125h-35v96h-137v-455h88v-30h-217v30h88v455h-137v-96h-35zM485 838v30h72v453h-72v31h133l144 -426q9 -25 12 -49q9 34 14 47l142 428h26h107v-31h-70v-453h70v-30h-170v30h61v451l-6 -25l-153 -456h-43l-156 456l-6 23v-449h65v-30h-170z" />
<glyph unicode="&#x25fc;" horiz-adv-x="921" d="M0 0v922h922v-922h-922z" />
</font>
</defs>
</svg>
