<?xml version="1.0" encoding="UTF-8"?>
<svg xmlns="http://www.w3.org/2000/svg" xmlns:xlink="http://www.w3.org/1999/xlink" version="1.2" >
<font id="Bodoni URW Extra Narrow">
<font-face  font-family="Bodoni URW Extra Narrow" units-per-em="1000" ascent="667" descent="-333" font-style="normal" font-weight="400" font-stretch="semi-condensed" cap-height="667" x-height="393" underline-position="-89" underline-thickness="53" />
<missing-glyph  horiz-adv-x="250" d="" />
<glyph glyph-name="NULL" d="" />
<glyph glyph-name="CR" unicode="&#xd;" horiz-adv-x="250" d="" />
<glyph glyph-name="space" unicode="&#x20;" horiz-adv-x="250" d="" />
<glyph glyph-name="exclam" unicode="&#x21;" horiz-adv-x="238" d="M129 197 C132 318 139 390 158 501 C170 566 172 582 172 609 C172 650 152 677 121 677 C91 677 69 648 69 607 C69 589 72 567 85 493 C104 395 110 330 112 197 L129 197 Z M120 110 C90 110 66 84 66 51 C66 19 89 -7 118 -7 C148 -7 172 19 172 51 C172 83 148 110 120 110 L120 110 Z " />
<glyph glyph-name="quotedbl" unicode="&#x22;" horiz-adv-x="266" d="M86 412 L112 576 C115 594 116 606 116 617 C116 653 99 677 73 677 C50 677 33 652 33 617 C33 607 35 590 37 576 L62 412 L86 412 Z M203 412 L229 576 C232 599 233 606 233 617 C233 653 216 677 190 677 C167 677 150 652 150 617 C150 608 152 586 153 576 L179 412 L203 412 Z " />
<glyph glyph-name="numbersign" unicode="&#x23;" horiz-adv-x="450" d="M189 442 L215 647 L150 647 L124 442 L44 442 L44 415 L121 415 L99 240 L18 240 L18 213 L95 213 L68 0 L134 0 L161 213 L260 213 L233 0 L298 0 L325 213 L405 213 L405 240 L328 240 L351 415 L431 415 L430 442 L354 442 L380 647 L315 647 L289 442 L189 442 Z M186 415 L285 415 L263 240 L164 240 L186 415 Z " />
<glyph glyph-name="dollar" unicode="&#x24;" horiz-adv-x="450" d="M242 638 C296 634 317 615 313 570 C313 514 331 484 364 484 C388 484 405 505 405 537 C405 606 337 658 242 661 L242 744 L208 744 L208 661 C166 653 143 644 119 625 C76 591 49 535 49 479 C49 439 63 398 89 368 C108 344 122 334 188 296 C196 291 202 288 208 284 L208 12 C182 12 157 24 142 43 C131 55 126 74 126 100 L126 112 C127 129 128 141 128 143 C128 179 108 207 81 207 C54 207 33 177 33 139 C33 64 108 -1 208 -11 L208 -101 L242 -101 L242 -11 C282 -6 304 3 329 21 C377 58 409 124 409 190 C409 243 390 285 352 317 C330 335 300 354 242 386 L242 638 Z M215 403 C176 425 170 429 154 441 C125 462 108 496 108 529 C108 586 151 629 215 636 L215 403 Z M242 267 C319 219 340 191 340 137 C340 71 303 24 242 13 L242 267 Z " />
<glyph glyph-name="percent" unicode="&#x25;" horiz-adv-x="622" d="M149 653 C79 653 23 579 23 487 C23 394 79 320 149 320 C218 320 275 394 275 484 C275 579 220 653 149 653 L149 653 Z M149 635 C163 635 177 627 184 613 C193 595 196 561 196 484 C196 418 193 382 186 364 C179 348 165 338 149 338 C135 338 121 347 114 360 C105 378 102 413 102 486 C102 555 105 590 112 609 C119 625 133 635 149 635 L149 635 Z M438 647 L157 0 L183 0 L464 647 L438 647 Z M473 327 C403 327 347 253 347 161 C347 68 403 -6 473 -6 C542 -6 599 68 599 158 C599 253 544 327 473 327 L473 327 Z M473 309 C487 309 501 301 508 287 C517 269 520 235 520 158 C520 92 517 56 510 38 C503 22 489 12 473 12 C459 12 445 21 438 34 C429 52 426 87 426 160 C426 229 429 264 436 283 C443 299 457 309 473 309 L473 309 Z " />
<glyph glyph-name="ampersand" unicode="&#x26;" horiz-adv-x="538" d="M257 343 C326 368 368 413 368 463 C368 516 319 553 250 553 C173 553 120 513 120 454 C120 426 133 397 179 323 C75 267 32 213 32 138 C32 51 96 -13 183 -13 C238 -13 275 4 333 56 L366 0 L512 0 L512 20 L446 20 L385 123 C420 171 441 241 446 323 L518 323 L518 343 L350 343 L350 323 L427 323 C425 253 404 178 375 140 L257 343 Z M248 357 C242 369 242 369 237 378 C220 410 220 410 217 417 C201 449 195 470 195 488 C195 517 214 533 250 533 C285 533 298 514 298 465 C298 411 284 381 248 357 L248 357 Z M325 73 C296 42 266 24 240 24 C210 24 183 41 162 73 C134 117 114 173 114 208 C114 245 137 274 189 305 L325 73 Z " />
<glyph glyph-name="quotesingle" unicode="&#x27;" horiz-adv-x="149" d="M86 412 L112 576 C115 594 116 606 116 617 C116 653 99 677 73 677 C50 677 33 652 33 617 C33 607 35 590 37 576 L62 412 L86 412 Z " />
<glyph glyph-name="parenleft" unicode="&#x28;" horiz-adv-x="242" d="M214 -173 C177 -92 169 -73 155 -19 C132 68 122 151 122 244 C122 397 150 520 215 658 L193 674 C79 505 32 377 32 238 C32 107 85 -35 192 -186 L214 -173 Z " />
<glyph glyph-name="parenright" unicode="&#x29;" horiz-adv-x="242" d="M51 -186 C156 -36 210 107 210 238 C210 377 163 505 49 674 L27 658 C93 519 120 397 120 244 C120 151 109 67 87 -19 C73 -73 64 -95 28 -173 L51 -186 Z " />
<glyph glyph-name="asterisk" unicode="&#x2a;" horiz-adv-x="450" d="M242 475 L245 485 L291 489 C370 496 390 505 390 535 C390 556 376 572 358 572 C346 572 333 566 306 546 C299 541 291 535 283 530 L241 500 L233 506 L244 556 C251 592 257 626 257 639 C257 662 244 677 224 677 C205 677 191 661 191 639 C191 625 192 618 206 560 L218 506 L211 500 L171 527 C127 557 104 569 91 569 C74 569 60 552 60 532 C60 504 78 493 129 490 C143 489 153 489 156 489 L206 485 L209 475 L174 441 C127 397 112 377 112 359 C112 340 128 323 145 323 C165 323 176 337 192 385 L202 413 L221 465 L230 465 L248 418 C276 343 288 325 309 325 C326 325 342 342 342 361 C342 379 333 392 302 420 C295 425 287 433 281 439 L242 475 Z " />
<glyph glyph-name="plus" unicode="&#x2b;" horiz-adv-x="450" d="M209 306 L209 130 L244 130 L244 306 L408 306 L408 341 L244 341 L244 517 L209 517 L209 341 L42 341 L42 306 L209 306 Z " />
<glyph glyph-name="comma" unicode="&#x2c;" horiz-adv-x="214" d="M87 -151 C146 -100 176 -42 176 17 C176 74 145 113 100 113 C65 113 38 86 38 51 C38 20 57 -2 85 -2 C110 -2 128 19 128 46 C128 48 128 52 127 57 C142 45 148 29 148 6 C148 -41 124 -85 73 -131 L87 -151 Z " />
<glyph glyph-name="hyphen" unicode="&#x2d;" horiz-adv-x="174" d="M0 234 L0 168 L174 168 L174 234 L0 234 Z " />
<glyph glyph-name="period" unicode="&#x2e;" horiz-adv-x="214" d="M108 110 C78 110 54 84 54 51 C54 19 77 -7 106 -7 C136 -7 160 19 160 51 C160 83 136 110 108 110 L108 110 Z " />
<glyph glyph-name="slash" unicode="&#x2f;" horiz-adv-x="364" d="M-38 -180 L14 -180 L334 667 L283 667 L-38 -180 Z " />
<glyph glyph-name="zero" unicode="0" horiz-adv-x="450" d="M225 657 C119 657 34 508 34 324 C34 139 119 -10 225 -10 C330 -10 416 139 416 319 C416 428 393 514 345 582 C310 632 270 657 225 657 L225 657 Z M225 637 C251 637 275 618 287 588 C303 551 309 479 309 318 C309 180 304 106 291 68 C279 32 254 10 225 10 C199 10 175 29 163 59 C147 97 141 168 141 324 C141 468 146 540 159 579 C171 615 196 637 225 637 L225 637 Z " />
<glyph glyph-name="one" unicode="1" horiz-adv-x="450" d="M190 20 L109 20 L109 0 L373 0 L373 20 L283 20 L283 654 L109 643 L109 622 L168 625 L180 625 C188 625 190 620 190 600 L190 20 Z " />
<glyph glyph-name="two" unicode="2" horiz-adv-x="450" d="M389 177 L372 177 C360 82 357 79 292 80 L94 80 C235 237 307 317 308 318 C366 391 389 441 389 495 C389 588 317 657 221 657 C128 657 58 594 58 509 C58 454 85 415 122 415 C147 415 168 436 168 461 C168 486 149 506 124 506 C118 506 115 505 103 501 C98 500 95 499 93 499 C85 499 80 509 80 523 C80 578 130 629 183 629 C248 629 290 562 290 459 C290 395 275 352 235 293 C209 256 166 204 35 48 L35 0 L384 0 L389 177 Z " />
<glyph glyph-name="three" unicode="3" horiz-adv-x="450" d="M113 338 C179 337 194 335 221 323 C270 300 289 257 289 170 C289 67 252 10 184 10 C147 10 105 39 105 63 C105 67 106 70 111 74 C122 85 130 103 130 121 C130 147 113 166 90 166 C64 166 44 141 44 110 C44 44 112 -10 195 -10 C309 -10 396 73 396 181 C396 280 331 339 211 351 C304 371 364 435 364 514 C364 596 299 657 213 657 C136 657 77 610 77 550 C77 521 95 497 118 497 C139 497 156 517 156 540 C156 558 150 573 139 585 C135 589 134 591 134 595 C134 616 165 637 197 637 C243 637 265 599 265 520 C265 450 252 408 222 384 C201 367 183 363 113 360 L113 338 Z " />
<glyph glyph-name="four" unicode="4" horiz-adv-x="450" d="M233 173 L233 20 L143 20 L143 0 L395 0 L395 20 L326 20 L326 173 L396 173 L396 98 L419 98 L419 274 L396 274 L396 200 L326 200 L326 653 L275 653 L21 212 L21 173 L233 173 Z M233 200 L40 200 L233 543 L233 200 Z " />
<glyph glyph-name="five" unicode="5" horiz-adv-x="450" d="M124 567 L267 567 C324 567 333 570 343 585 C355 606 362 635 364 674 L349 674 C339 648 337 646 316 647 L171 647 C110 648 105 644 102 594 L89 330 C113 353 145 366 177 366 C206 366 237 353 256 331 C283 303 295 259 295 196 C295 78 257 10 191 10 C153 10 101 39 101 60 C101 64 103 67 108 70 C121 80 133 105 133 126 C133 149 115 169 95 169 C68 169 48 143 48 108 C48 43 115 -10 198 -10 C311 -10 401 80 401 192 C401 303 314 386 199 386 C169 386 149 382 114 368 L124 567 Z " />
<glyph glyph-name="six" unicode="6" horiz-adv-x="450" d="M372 686 C280 665 211 629 156 573 C80 497 36 381 36 257 C36 97 114 -10 230 -10 C334 -10 419 92 419 218 C419 337 344 429 245 429 C204 429 172 415 144 384 C161 545 232 632 372 663 L372 686 Z M234 409 C292 409 314 353 314 205 C314 63 292 10 233 10 C170 10 144 71 144 220 C144 302 153 347 174 378 C188 397 211 409 234 409 L234 409 Z " />
<glyph glyph-name="seven" unicode="7" horiz-adv-x="450" d="M35 469 L54 464 C83 562 88 568 147 567 L366 567 C357 544 336 493 303 416 C214 212 213 210 196 161 C179 114 171 76 171 49 C171 11 191 -14 223 -14 C252 -14 272 12 272 49 C272 62 271 70 265 95 C258 127 255 146 255 164 C255 210 272 264 331 409 C352 460 368 501 379 529 C394 568 410 605 414 612 C423 629 425 635 425 640 C425 645 422 647 411 647 L79 647 L35 469 Z " />
<glyph glyph-name="eight" unicode="8" horiz-adv-x="450" d="M265 339 C349 361 398 416 398 492 C398 586 324 657 225 657 C126 657 52 586 52 492 C52 417 101 361 186 339 C87 315 33 254 33 166 C33 67 117 -10 226 -10 C334 -10 418 67 418 166 C418 254 364 315 265 339 L265 339 Z M227 637 C273 637 298 586 298 495 C298 407 272 356 227 356 C183 356 157 407 157 497 C157 586 183 637 227 637 L227 637 Z M225 328 C280 328 309 273 309 167 C309 66 279 10 225 10 C170 10 141 66 141 169 C141 272 170 328 225 328 L225 328 Z " />
<glyph glyph-name="nine" unicode="9" horiz-adv-x="450" d="M70 -43 C173 -22 231 9 293 76 C370 160 414 276 414 395 C414 547 336 657 228 657 C121 657 32 551 32 423 C32 309 113 212 208 212 C248 212 276 227 306 264 C277 85 210 2 74 -21 L70 -43 Z M224 637 C283 637 307 579 307 434 C307 363 300 317 284 281 C270 251 243 232 215 232 C185 232 163 250 151 286 C141 312 138 354 138 439 C138 579 163 637 224 637 L224 637 Z " />
<glyph glyph-name="colon" unicode="&#x3a;" horiz-adv-x="215" d="M108 396 C78 396 54 370 54 337 C54 305 77 279 106 279 C136 279 160 305 160 337 C160 369 136 396 108 396 L108 396 Z M109 110 C79 110 55 84 55 51 C55 19 78 -7 107 -7 C137 -7 161 19 161 51 C161 83 137 110 109 110 L109 110 Z " />
<glyph glyph-name="semicolon" unicode="&#x3b;" horiz-adv-x="214" d="M102 400 C72 400 48 374 48 341 C48 309 71 283 100 283 C130 283 154 309 154 341 C154 373 130 400 102 400 L102 400 Z M87 -151 C146 -100 176 -42 176 17 C176 74 145 113 101 113 C65 113 38 86 38 51 C38 20 57 -2 85 -2 C110 -2 128 19 128 46 C128 48 128 52 127 57 C142 45 148 29 148 6 C148 -41 124 -85 73 -131 L87 -151 Z " />
<glyph glyph-name="less" unicode="&#x3c;" horiz-adv-x="450" d="M410 605 L40 338 L40 332 L410 60 L410 134 L108 357 L410 577 L410 605 Z " />
<glyph glyph-name="equal" unicode="&#x3d;" horiz-adv-x="450" d="M42 393 L42 358 L408 358 L408 393 L42 393 Z M42 288 L42 253 L408 253 L408 288 L42 288 Z " />
<glyph glyph-name="greater" unicode="&#x3e;" horiz-adv-x="450" d="M40 60 L410 327 L410 332 L40 605 L40 531 L342 308 L40 88 L40 60 Z " />
<glyph glyph-name="question" unicode="&#x3f;" horiz-adv-x="335" d="M130 200 C135 274 142 287 205 341 C245 374 251 379 266 400 C292 434 304 472 304 516 C304 609 244 677 162 677 C89 677 28 619 28 549 C28 514 46 489 71 489 C91 489 107 507 107 531 C107 548 99 567 89 574 C73 585 70 589 70 597 C70 626 119 657 165 657 C217 657 257 619 257 570 C257 538 241 509 201 468 C133 399 112 347 112 249 C112 230 113 217 115 192 L130 200 Z M129 110 C100 110 75 84 75 51 C75 19 98 -7 128 -7 C158 -7 182 19 182 51 C182 83 158 110 129 110 L129 110 Z " />
<glyph glyph-name="at" unicode="&#x40;" horiz-adv-x="616" d="M506 96 C451 43 390 16 322 16 C171 16 50 154 50 326 C50 498 170 635 321 635 C456 635 567 523 567 386 C567 325 547 268 511 225 C483 193 447 169 424 169 C410 169 403 178 403 196 C403 212 407 240 416 280 L462 492 L396 492 L386 447 C374 482 350 501 318 501 C235 501 152 390 152 281 C152 205 195 149 252 149 C288 149 315 168 343 214 C346 168 369 143 409 143 C453 143 505 173 542 220 C580 267 598 321 598 385 C598 542 476 664 321 664 C153 664 18 513 18 325 C18 137 152 -13 321 -13 C409 -13 481 22 543 96 L506 96 Z M331 483 C357 483 375 455 375 413 C375 380 355 290 337 236 C321 192 296 166 267 166 C240 166 223 192 223 232 C223 289 247 386 274 437 C289 465 311 483 331 483 L331 483 Z " />
<glyph glyph-name="A" unicode="A" horiz-adv-x="528" d="M309 215 L368 20 L290 20 L290 0 L534 0 L534 20 L470 20 L276 667 L250 667 L46 20 L3 20 L3 0 L149 0 L149 20 L71 20 L129 215 L309 215 Z M304 235 L135 235 L220 512 L304 235 Z " />
<glyph glyph-name="B" unicode="B" horiz-adv-x="550" d="M102 20 L29 20 L29 0 L252 0 C363 0 407 10 448 44 C488 78 509 123 509 175 C509 276 446 338 333 349 C433 372 485 425 485 506 C485 552 466 594 432 621 C388 657 343 667 236 667 L29 667 L29 647 L102 647 L102 20 Z M209 647 L233 647 C299 647 322 641 344 618 C365 596 376 554 376 499 C376 398 340 357 253 357 C243 357 236 357 209 358 L209 647 Z M209 20 L209 337 C230 339 244 339 256 339 C355 339 389 297 389 176 C389 115 379 74 356 49 C337 27 314 20 261 20 L209 20 Z " />
<glyph glyph-name="C" unicode="C" horiz-adv-x="526" d="M487 189 L474 189 C438 71 383 13 305 13 C257 13 214 36 191 75 C171 110 164 169 164 305 C164 452 172 538 191 577 C214 627 257 654 313 654 C393 654 451 595 474 491 L487 491 L487 667 L474 667 L443 620 C399 657 351 677 303 677 C252 677 196 653 151 613 C79 549 38 446 38 332 C38 144 154 -10 295 -10 C346 -10 391 8 443 48 L474 0 L487 0 L487 189 Z " />
<glyph glyph-name="D" unicode="D" horiz-adv-x="608" d="M102 20 L29 20 L29 0 L251 0 C362 0 402 10 451 51 C528 116 571 218 571 338 C571 445 536 535 469 601 C415 654 371 667 242 667 L29 667 L29 647 L102 647 L102 20 Z M209 20 L209 647 L244 647 C289 647 306 646 320 644 C358 637 387 620 405 594 C435 551 444 494 444 348 C444 240 440 174 430 129 C420 85 392 50 356 34 C328 22 316 20 249 20 L209 20 Z " />
<glyph glyph-name="E" unicode="E" horiz-adv-x="526" d="M104 20 L29 20 L29 0 L476 0 L493 208 L481 208 C443 49 411 13 317 20 L211 20 L211 328 L238 328 C286 328 308 317 320 288 C328 268 330 255 333 196 L346 196 L346 471 L333 471 C332 368 314 346 227 348 L211 347 L211 647 L275 647 C392 652 429 619 456 484 L468 484 L462 667 L29 667 L29 647 L104 647 L104 20 Z " />
<glyph glyph-name="F" unicode="F" horiz-adv-x="481" d="M104 20 L29 20 L29 0 L275 0 L275 20 L211 20 L211 328 L238 328 C286 328 307 317 319 288 C327 268 329 255 332 196 L345 196 L345 471 L332 471 C331 368 313 346 227 348 L211 347 L211 647 L259 647 C368 648 378 646 413 604 C436 574 447 542 458 481 L470 481 L458 667 L29 667 L29 647 L104 647 L104 20 Z " />
<glyph glyph-name="G" unicode="G" horiz-adv-x="573" d="M475 667 L463 667 L433 627 C386 661 344 677 301 677 C157 677 38 521 38 333 C38 145 153 -10 293 -10 C366 -10 444 36 480 99 C497 129 505 160 507 213 L564 213 L564 233 L310 233 L310 213 L400 213 C400 153 396 121 389 95 C373 44 335 13 289 13 C242 13 202 44 186 91 C171 133 165 206 165 335 C165 470 175 556 196 594 C217 631 257 654 302 654 C386 654 442 591 466 468 L480 468 L475 667 Z " />
<glyph glyph-name="H" unicode="H" horiz-adv-x="640" d="M430 331 L430 20 L366 20 L366 0 L612 0 L612 20 L537 20 L537 647 L612 647 L612 667 L366 667 L366 647 L430 647 L430 351 L211 351 L211 647 L275 647 L275 667 L29 667 L29 647 L104 647 L104 20 L29 20 L29 0 L275 0 L275 20 L211 20 L211 331 L430 331 Z " />
<glyph glyph-name="I" unicode="I" horiz-adv-x="314" d="M104 20 L29 20 L29 0 L286 0 L286 20 L211 20 L211 647 L286 647 L286 667 L29 667 L29 647 L104 647 L104 20 Z " />
<glyph glyph-name="J" unicode="J" horiz-adv-x="348" d="M161 647 L161 105 C161 19 160 7 154 -14 C145 -40 126 -59 108 -59 C97 -59 87 -50 87 -41 C87 -38 87 -37 88 -33 C93 -12 94 -5 94 7 C94 36 76 58 53 58 C27 58 6 34 6 2 C6 -44 49 -80 104 -80 C154 -80 210 -45 239 6 C260 41 268 80 268 148 L268 647 L332 647 L332 667 L86 667 L86 647 L161 647 Z " />
<glyph glyph-name="K" unicode="K" horiz-adv-x="588" d="M104 20 L29 20 L29 0 L275 0 L275 20 L211 20 L211 647 L275 647 L275 667 L29 667 L29 647 L104 647 L104 20 Z M286 407 L478 647 L554 647 L554 667 L362 667 L362 647 L450 647 L209 348 L429 20 L351 20 L351 0 L588 0 L588 20 L545 20 L286 407 Z " />
<glyph glyph-name="L" unicode="L" horiz-adv-x="513" d="M104 20 L29 20 L29 0 L477 0 L493 206 L481 206 C448 50 415 15 307 20 L211 20 L211 647 L275 647 L275 667 L29 667 L29 647 L104 647 L104 20 Z " />
<glyph glyph-name="M" unicode="M" horiz-adv-x="689" d="M98 20 L23 20 L23 0 L194 0 L194 20 L121 20 L121 637 L295 0 L318 0 L478 630 L478 20 L414 20 L414 0 L660 0 L660 20 L585 20 L585 647 L660 647 L660 667 L469 667 L344 175 L210 667 L23 667 L23 647 L98 647 L98 20 Z " />
<glyph glyph-name="N" unicode="N" horiz-adv-x="601" d="M98 20 L23 20 L23 0 L194 0 L194 20 L121 20 L121 628 L484 0 L507 0 L507 647 L582 647 L582 667 L411 667 L411 647 L484 647 L484 196 C459 246 433 292 386 374 L211 667 L23 667 L23 647 L98 647 L98 20 Z " />
<glyph glyph-name="O" unicode="O" horiz-adv-x="598" d="M299 677 C158 677 38 519 38 334 C38 148 158 -10 300 -10 C365 -10 428 22 473 79 C528 148 561 242 561 329 C561 520 443 677 299 677 L299 677 Z M300 654 C343 654 380 632 403 594 C426 554 434 488 434 329 C434 192 427 122 408 83 C387 39 347 13 300 13 C256 13 219 35 197 73 C173 112 165 180 165 333 C165 474 172 544 191 583 C212 628 252 654 300 654 L300 654 Z " />
<glyph glyph-name="P" unicode="P" horiz-adv-x="520" d="M104 20 L29 20 L29 0 L275 0 L275 20 L211 20 L211 322 L264 322 C352 322 395 332 435 361 C479 393 503 440 503 495 C503 544 485 585 451 617 C407 657 368 667 262 667 L29 667 L29 647 L104 647 L104 20 Z M211 342 L211 647 L263 647 C361 647 383 619 383 491 C383 430 374 392 356 369 C339 349 316 342 264 342 L211 342 Z " />
<glyph glyph-name="Q" unicode="Q" horiz-adv-x="598" d="M526 -204 C457 -201 427 -194 399 -174 C364 -149 348 -101 348 -24 C348 -20 348 -10 349 0 C386 9 410 22 442 50 C520 116 561 213 561 328 C561 518 443 677 302 677 C242 677 180 646 131 593 C71 527 38 437 38 337 C38 228 77 130 146 63 C176 33 204 17 251 0 C250 -158 321 -214 526 -218 L526 -204 Z M300 654 C350 654 385 632 408 586 C427 547 434 476 434 331 C434 208 427 131 414 95 C392 40 354 13 300 13 C249 13 214 35 191 82 C172 120 165 191 165 334 C165 459 172 536 185 572 C207 627 244 654 300 654 L300 654 Z " />
<glyph glyph-name="R" unicode="R" horiz-adv-x="574" d="M104 20 L29 20 L29 0 L275 0 L275 20 L211 20 L211 346 L239 346 C302 346 330 336 350 307 C366 285 371 257 373 195 C374 117 377 96 391 65 C410 23 451 -4 494 -4 C514 -4 534 1 556 12 L550 30 C531 21 523 19 515 19 C488 19 474 45 474 96 C474 99 474 111 475 125 L475 154 C475 264 414 338 310 353 C422 362 493 424 493 515 C493 565 473 605 433 633 C393 661 360 667 243 667 L29 667 L29 647 L104 647 L104 20 Z M211 368 L211 647 L242 647 C300 647 322 641 343 621 C366 598 379 558 379 507 C379 455 366 414 343 393 C323 374 295 368 239 368 L211 368 Z " />
<glyph glyph-name="S" unicode="S" horiz-adv-x="448" d="M376 677 L363 677 L332 636 C293 664 258 677 219 677 C126 677 54 589 54 474 C54 425 68 384 95 355 C118 330 143 318 216 296 C284 276 300 270 317 255 C343 233 357 198 357 156 C357 71 305 13 229 13 C174 13 127 40 95 90 C75 120 65 150 58 206 L44 206 L44 0 L63 0 L96 48 C140 8 181 -10 231 -10 C335 -10 410 85 410 217 C410 279 392 330 358 364 C335 389 317 397 246 419 C188 436 161 446 145 456 C119 473 107 498 107 534 C107 604 156 654 222 654 C265 654 304 633 330 595 C349 569 357 545 362 501 L376 501 L376 677 Z " />
<glyph glyph-name="T" unicode="T" horiz-adv-x="533" d="M212 20 L128 20 L128 0 L405 0 L405 20 L321 20 L321 647 L358 647 C415 648 432 641 458 605 C485 563 501 520 510 456 L524 456 L517 667 L15 667 L9 456 L22 456 C33 520 49 564 77 605 C104 641 122 648 181 647 L212 647 L212 20 Z " />
<glyph glyph-name="U" unicode="U" horiz-adv-x="578" d="M466 647 L466 265 C466 155 464 132 449 94 C427 41 387 13 331 13 C283 13 243 34 222 70 C200 107 198 124 198 265 L198 647 L262 647 L262 667 L16 667 L16 647 L91 647 L91 265 C91 133 100 94 137 53 C174 14 237 -10 306 -10 C376 -10 429 15 457 61 C484 106 489 137 489 265 L489 647 L562 647 L562 667 L391 667 L391 647 L466 647 Z " />
<glyph glyph-name="V" unicode="V" horiz-adv-x="524" d="M467 647 L527 647 L527 667 L358 667 L358 647 L446 647 L301 158 L152 647 L235 647 L235 667 L-4 667 L-4 647 L50 647 L256 -10 L275 -10 L467 647 Z " />
<glyph glyph-name="W" unicode="W" horiz-adv-x="720" d="M672 647 L720 647 L720 667 L567 667 L567 647 L648 647 L508 151 L418 442 L482 647 L536 647 L536 667 L-2 667 L-2 647 L47 647 L253 -10 L273 -10 L368 287 L463 -10 L482 -10 L672 647 Z M464 647 L406 482 L348 647 L464 647 Z M253 647 L357 326 L301 151 L148 647 L253 647 Z " />
<glyph glyph-name="X" unicode="X" horiz-adv-x="536" d="M236 282 L372 20 L295 20 L295 0 L536 0 L536 20 L485 20 L295 388 L442 647 L505 647 L505 667 L334 667 L334 647 L417 647 L282 410 L157 647 L241 647 L241 667 L3 667 L3 647 L45 647 L224 305 L65 20 L3 20 L3 0 L174 0 L174 20 L90 20 L236 282 Z " />
<glyph glyph-name="Y" unicode="Y" horiz-adv-x="520" d="M213 20 L129 20 L129 0 L393 0 L393 20 L320 20 L320 316 C322 321 323 325 324 327 L328 344 C338 375 339 377 342 384 L464 647 L527 647 L527 667 L351 667 L351 647 L441 647 L309 356 C307 362 305 366 303 371 L295 384 L149 647 L225 647 L225 667 L-8 667 L-8 647 L38 647 L213 316 L213 20 Z " />
<glyph glyph-name="Z" unicode="Z" horiz-adv-x="492" d="M23 0 L451 0 L468 210 L456 210 C437 120 421 82 391 49 C365 23 354 20 274 20 L120 20 L477 667 L61 667 L44 463 L56 463 C91 614 126 654 218 647 L357 647 L23 44 L23 0 Z " />
<glyph glyph-name="bracketleft" unicode="&#x5b;" horiz-adv-x="242" d="M54 -180 L237 -180 L237 -160 L141 -160 L141 647 L237 647 L237 667 L54 667 L54 -180 Z " />
<glyph glyph-name="backslash" unicode="&#x5c;" horiz-adv-x="364" d="M403 -180 L83 667 L31 667 L352 -180 L403 -180 Z " />
<glyph glyph-name="bracketright" unicode="&#x5d;" horiz-adv-x="242" d="M188 667 L5 667 L5 647 L110 647 L110 -160 L5 -160 L5 -180 L188 -180 L188 667 Z " />
<glyph glyph-name="asciicircum" unicode="&#x5e;" horiz-adv-x="450" d="M474 284 L235 700 L228 700 L-24 284 L85 284 L262 577 L432 284 L474 284 Z " />
<glyph glyph-name="underscore" unicode="&#x5f;" horiz-adv-x="496" d="M16 -89 L16 -142 L480 -142 L480 -89 L16 -89 Z " />
<glyph glyph-name="grave" unicode="&#x60;" horiz-adv-x="468" d="M189 616 L114 616 C108 616 105 614 105 608 C105 605 107 602 110 599 L276 463 L286 473 L189 616 Z " />
<glyph glyph-name="a" unicode="a" horiz-adv-x="398" d="M372 35 C357 20 355 19 346 19 C328 19 328 19 328 135 L328 245 C328 332 327 338 307 361 C285 387 245 403 200 403 C124 403 57 356 57 303 C57 277 73 259 94 259 C115 259 130 277 130 304 C130 313 129 320 124 333 C123 338 122 340 122 343 C122 364 154 386 183 386 C202 386 219 378 228 365 C237 353 238 343 238 286 L238 217 C179 216 144 209 112 195 C61 171 33 132 33 83 C33 28 70 -10 125 -10 C172 -10 212 18 238 68 C244 17 271 -10 317 -10 C342 -10 361 -2 382 20 L372 35 Z M238 180 C238 129 234 99 226 79 C213 50 193 34 170 34 C140 34 122 59 122 101 C122 133 134 159 157 177 C176 192 196 198 238 200 L238 180 Z " />
<glyph glyph-name="b" unicode="b" horiz-adv-x="447" d="M73 20 L15 20 L15 0 L163 0 L163 68 C188 13 218 -10 264 -10 C345 -10 415 87 415 200 C415 312 349 403 268 403 C220 403 183 374 163 322 L163 667 L15 667 L15 647 L73 647 L73 20 Z M248 380 C279 380 301 351 305 308 C307 287 308 240 308 183 C308 95 307 74 299 53 C291 30 270 13 251 13 C197 13 161 87 161 199 C161 304 198 380 248 380 L248 380 Z " />
<glyph glyph-name="c" unicode="c" horiz-adv-x="367" d="M329 127 C309 53 269 13 216 13 C191 13 169 24 156 45 C142 65 138 95 138 167 C138 255 144 314 154 339 C166 366 187 380 216 380 C243 380 271 364 271 348 C271 346 271 345 269 342 C261 327 256 310 256 296 C256 268 273 248 296 248 C322 248 339 269 339 300 C339 356 281 403 213 403 C115 403 32 307 32 194 C32 85 112 -10 205 -10 C274 -10 321 34 352 127 L329 127 Z " />
<glyph glyph-name="d" unicode="d" horiz-adv-x="444" d="M369 667 L228 667 L228 647 L279 647 L279 322 C251 378 219 403 175 403 C97 403 32 310 32 198 C32 84 98 -10 178 -10 C223 -10 260 21 279 76 L279 0 L429 0 L429 20 L369 20 L369 667 Z M194 380 C242 380 277 303 277 197 C277 91 242 13 194 13 C175 13 158 28 148 52 C141 72 139 94 139 182 C139 290 142 329 152 348 C161 368 177 380 194 380 L194 380 Z " />
<glyph glyph-name="e" unicode="e" horiz-adv-x="382" d="M359 229 C356 271 350 295 335 322 C306 373 257 403 201 403 C111 403 32 307 32 197 C32 87 114 -10 206 -10 C278 -10 338 48 352 132 L331 132 C314 57 272 13 217 13 C185 13 160 30 147 59 C138 79 136 106 136 186 L136 229 L359 229 Z M136 249 C137 323 137 323 146 344 C155 366 178 380 205 380 C232 380 251 366 259 341 C264 323 265 318 266 249 L136 249 Z " />
<glyph glyph-name="f" unicode="f" horiz-adv-x="274" d="M178 373 L251 373 L251 393 L178 393 L178 528 C178 607 178 612 185 629 C193 647 205 657 221 657 C230 657 237 655 243 650 C233 637 228 623 228 608 C228 584 243 565 263 565 C283 565 299 586 299 611 C299 647 263 677 221 677 C183 677 148 656 123 620 C97 583 88 546 88 474 L88 393 L28 393 L28 373 L88 373 L88 20 L28 20 L28 0 L243 0 L243 20 L178 20 L178 373 Z " />
<glyph glyph-name="g" unicode="g" horiz-adv-x="395" d="M244 22 L196 21 C135 20 135 20 126 20 C81 20 66 29 66 57 C66 83 85 111 123 139 C147 127 163 123 190 123 C276 123 336 179 336 260 C336 292 327 322 307 350 C319 363 322 366 328 366 C333 366 336 361 338 350 C342 330 352 320 368 320 C387 320 401 337 401 358 C401 385 384 403 359 403 C338 403 320 392 295 362 C269 389 235 403 192 403 C111 403 50 342 50 263 C50 218 67 183 106 149 C52 110 26 69 26 23 C26 -20 47 -51 84 -64 C44 -82 23 -113 23 -152 C23 -218 95 -272 185 -272 C298 -272 375 -195 375 -83 C375 -43 364 -13 342 5 C325 18 310 22 271 22 L244 22 Z M193 383 C214 383 226 377 233 363 C239 351 241 333 241 273 C241 209 239 184 232 169 C225 153 211 144 192 144 C156 144 145 165 145 237 C145 365 151 383 193 383 L193 383 Z M97 -64 C119 -67 128 -67 153 -67 C165 -67 238 -66 258 -65 C283 -64 302 -64 306 -64 C347 -64 362 -75 362 -106 C362 -186 285 -247 185 -247 C112 -247 63 -204 63 -142 C63 -112 73 -89 97 -64 L97 -64 Z " />
<glyph glyph-name="h" unicode="h" horiz-adv-x="475" d="M75 20 L15 20 L15 0 L210 0 L210 20 L165 20 L165 165 C165 239 168 273 179 303 C194 347 228 374 266 374 C286 374 302 366 310 352 C318 338 319 327 319 258 L319 20 L265 20 L265 0 L460 0 L460 20 L409 20 L409 258 C409 328 406 345 390 366 C372 390 339 403 298 403 C238 403 196 378 165 322 L165 667 L15 667 L15 647 L75 647 L75 20 Z " />
<glyph glyph-name="i" unicode="i" horiz-adv-x="243" d="M78 20 L27 20 L27 0 L228 0 L228 20 L168 20 L168 393 L27 393 L27 373 L78 373 L78 20 Z M124 654 C93 654 69 630 69 598 C69 565 93 540 124 540 C155 540 180 565 180 597 C180 629 155 654 124 654 L124 654 Z " />
<glyph glyph-name="j" unicode="j" horiz-adv-x="225" d="M74 373 L74 -144 C74 -195 74 -207 71 -218 C67 -238 58 -250 46 -250 C37 -250 33 -244 32 -232 C32 -226 31 -221 31 -221 L29 -210 C28 -208 27 -203 27 -195 C26 -170 13 -155 -8 -155 C-30 -155 -45 -173 -45 -201 C-45 -241 -8 -271 40 -271 C81 -271 120 -247 142 -208 C159 -178 164 -146 164 -61 L164 393 L15 393 L15 373 L74 373 Z M117 654 C85 654 62 630 62 598 C62 565 86 540 117 540 C148 540 173 565 173 597 C173 629 148 654 117 654 L117 654 Z " />
<glyph glyph-name="k" unicode="k" horiz-adv-x="440" d="M156 667 L15 667 L15 647 L66 647 L66 20 L15 20 L15 0 L216 0 L216 20 L156 20 L156 667 Z M233 252 L346 373 L409 373 L409 393 L227 393 L227 373 L315 373 L165 210 L294 20 L249 20 L249 0 L442 0 L442 20 L401 20 L233 252 Z " />
<glyph glyph-name="l" unicode="l" horiz-adv-x="231" d="M66 20 L15 20 L15 0 L216 0 L216 20 L156 20 L156 667 L15 667 L15 647 L66 647 L66 20 Z " />
<glyph glyph-name="m" unicode="m" horiz-adv-x="687" d="M87 20 L27 20 L27 0 L222 0 L222 20 L177 20 L177 128 C177 244 181 293 191 321 C202 349 232 370 261 370 C277 370 292 361 299 348 C306 334 308 314 308 266 L308 20 L254 20 L254 0 L443 0 L443 20 L398 20 L398 128 C398 284 398 290 413 322 C426 353 454 373 482 373 C495 373 508 367 516 359 C527 345 529 333 529 266 L529 20 L475 20 L475 0 L670 0 L670 20 L619 20 L619 266 C619 320 614 345 601 365 C585 388 552 403 515 403 C461 403 421 382 392 337 C378 381 346 403 294 403 C246 403 209 384 177 343 L177 393 L27 393 L27 373 L87 373 L87 20 Z " />
<glyph glyph-name="n" unicode="n" horiz-adv-x="473" d="M87 20 L27 20 L27 0 L222 0 L222 20 L177 20 L177 139 C177 263 181 304 197 333 C209 356 234 373 255 373 C271 373 284 364 294 348 C305 328 308 293 308 174 L308 20 L263 20 L263 0 L458 0 L458 20 L398 20 L398 242 C398 316 394 339 374 364 C356 387 321 403 285 403 C240 403 206 384 177 341 L177 393 L27 393 L27 373 L87 373 L87 20 Z " />
<glyph glyph-name="o" unicode="o" horiz-adv-x="427" d="M214 403 C113 403 32 310 32 197 C32 82 113 -10 214 -10 C314 -10 396 82 396 194 C396 311 316 403 214 403 L214 403 Z M214 380 C244 380 264 369 277 344 C288 323 289 311 289 195 C289 91 288 75 280 56 C269 27 247 13 214 13 C184 13 164 24 151 49 C140 70 139 82 139 197 C139 302 140 318 148 337 C159 366 181 380 214 380 L214 380 Z " />
<glyph glyph-name="p" unicode="p" horiz-adv-x="445" d="M75 -247 L15 -247 L15 -267 L225 -267 L225 -247 L165 -247 L165 78 C189 18 221 -10 267 -10 C345 -10 413 89 413 204 C413 314 349 403 271 403 C224 403 188 375 165 320 L165 393 L15 393 L15 373 L75 373 L75 -247 Z M252 380 C270 380 284 371 294 352 C303 333 306 301 306 206 C306 127 303 80 296 58 C287 27 273 13 252 13 C200 13 167 86 167 201 C167 307 201 380 252 380 L252 380 Z " />
<glyph glyph-name="q" unicode="q" horiz-adv-x="446" d="M371 373 L431 373 L431 393 L281 393 L281 321 C261 371 220 403 178 403 C97 403 32 313 32 201 C32 85 100 -10 183 -10 C225 -10 262 21 281 73 L281 -247 L221 -247 L221 -267 L431 -267 L431 -247 L371 -247 L371 373 Z M196 380 C211 380 226 372 240 356 C268 326 279 278 279 190 C279 121 272 86 253 53 C238 28 217 13 197 13 C173 13 154 32 146 64 C141 83 139 112 139 173 C139 271 141 313 148 337 C155 362 175 380 196 380 L196 380 Z " />
<glyph glyph-name="r" unicode="r" horiz-adv-x="334" d="M87 20 L27 20 L27 0 L237 0 L237 20 L177 20 L177 113 C177 229 186 286 211 337 C218 352 228 362 234 362 C241 362 242 358 243 341 C244 312 259 294 281 294 C304 294 322 316 322 345 C322 379 300 403 269 403 C230 403 200 369 177 298 L177 393 L27 393 L27 373 L87 373 L87 20 Z " />
<glyph glyph-name="s" unicode="s" horiz-adv-x="307" d="M262 398 L248 398 L234 366 C204 393 180 403 148 403 C86 403 41 351 41 281 C41 247 51 216 67 196 C85 174 106 164 161 154 C224 142 244 127 244 89 C244 46 209 13 164 13 C130 13 100 31 81 61 C69 83 59 109 50 150 L37 150 L40 0 L50 0 L71 32 C106 1 131 -10 166 -10 C232 -10 281 47 281 124 C281 156 273 186 258 205 C239 231 217 243 161 254 C94 267 75 280 75 311 C75 349 109 380 151 380 C202 380 243 340 251 280 L265 280 L262 398 Z " />
<glyph glyph-name="t" unicode="t" horiz-adv-x="262" d="M156 546 L140 546 C119 476 79 423 20 387 L20 373 L66 373 L66 119 C66 57 68 47 84 26 C102 2 130 -10 165 -10 C222 -10 256 19 265 75 L246 75 C239 37 224 21 197 21 C182 21 169 28 163 40 C157 50 156 59 156 89 L156 373 L246 373 L246 393 L156 393 L156 546 Z " />
<glyph glyph-name="u" unicode="u" horiz-adv-x="477" d="M395 393 L254 393 L254 373 L305 373 L305 233 C305 124 301 91 284 60 C269 31 241 13 210 13 C192 13 176 19 168 30 C158 44 156 62 156 160 L156 393 L15 393 L15 373 L66 373 L66 160 C66 76 71 52 94 26 C114 3 148 -10 188 -10 C242 -10 280 11 305 55 L305 0 L455 0 L455 20 L395 20 L395 393 Z " />
<glyph glyph-name="v" unicode="v" horiz-adv-x="370" d="M336 373 L371 373 L371 393 L243 393 L243 373 L312 373 L218 104 L124 373 L189 373 L189 393 L-2 393 L-2 373 L36 373 L173 -10 L205 -10 L336 373 Z " />
<glyph glyph-name="w" unicode="w" horiz-adv-x="547" d="M506 373 L549 373 L549 393 L413 393 L413 373 L483 373 L413 114 L321 393 L289 393 L212 114 L128 373 L187 373 L187 393 L-2 393 L-2 373 L39 373 L172 -10 L200 -10 L276 266 L372 -10 L400 -10 L506 373 Z " />
<glyph glyph-name="x" unicode="x" horiz-adv-x="395" d="M222 233 L319 373 L380 373 L380 393 L234 393 L234 373 L292 373 L211 254 L139 373 L192 373 L192 393 L3 393 L3 373 L44 373 L162 181 L52 20 L3 20 L3 0 L147 0 L147 20 L78 20 L173 161 L260 20 L222 20 L222 0 L392 0 L392 20 L355 20 L222 233 Z " />
<glyph glyph-name="y" unicode="y" horiz-adv-x="369" d="M335 373 L370 373 L370 393 L240 393 L240 373 L310 373 L226 117 L126 373 L190 373 L190 393 L-2 393 L-2 373 L36 373 L190 0 L139 -148 C123 -196 120 -201 110 -201 C105 -201 103 -199 97 -190 C88 -176 76 -169 59 -169 C34 -169 16 -189 16 -216 C16 -244 38 -265 67 -265 C108 -265 133 -235 159 -159 L335 373 Z " />
<glyph glyph-name="z" unicode="z" horiz-adv-x="360" d="M341 393 L51 393 L51 240 L63 240 C92 357 109 375 187 373 L234 373 L18 0 L328 0 L329 167 L317 167 C289 37 274 20 192 20 L121 20 L341 393 Z " />
<glyph glyph-name="braceleft" unicode="&#x7b;" horiz-adv-x="242" d="M3 249 C47 246 54 228 54 127 L54 2 C55 -96 56 -109 73 -137 C97 -170 122 -178 203 -179 L220 -180 L220 -160 C188 -159 171 -151 156 -127 C144 -105 144 -104 139 -25 L139 130 C141 207 117 246 61 256 L61 260 C85 264 103 274 117 291 C135 315 136 321 140 390 L140 513 C139 609 160 644 220 647 L220 667 C195 666 168 665 165 665 C130 664 113 660 96 647 C65 620 54 582 54 503 L54 375 C53 288 43 267 3 266 L3 249 Z " />
<glyph glyph-name="bar" unicode="&#x7c;" horiz-adv-x="450" d="M195 667 L195 -167 L256 -167 L256 667 L195 667 Z " />
<glyph glyph-name="braceright" unicode="&#x7d;" horiz-adv-x="242" d="M220 266 C180 267 171 288 170 375 L170 503 C170 632 138 669 30 666 C26 666 15 666 3 667 L3 647 C63 644 84 609 84 513 L84 390 C81 308 102 273 162 260 L162 256 C106 246 82 207 84 130 L84 -25 C83 -126 63 -158 3 -160 L3 -180 C92 -178 104 -176 133 -155 C165 -124 169 -109 170 2 L170 127 C169 228 176 246 220 249 L220 266 Z " />
<glyph glyph-name="asciitilde" unicode="&#x7e;" horiz-adv-x="483" d="M390 375 C369 348 360 342 337 342 C320 342 299 345 284 351 L240 366 C213 375 203 377 184 377 C135 377 102 353 77 300 L92 291 C109 316 123 324 153 324 C170 324 187 321 207 314 L250 300 C274 292 288 289 301 289 C342 289 376 314 405 366 L390 375 Z " />
<glyph glyph-name="uni00A0" unicode="&#xa0;" horiz-adv-x="250" d="" />
<glyph glyph-name="exclamdown" unicode="&#xa1;" horiz-adv-x="239" d="M110 210 C108 93 100 14 81 -94 C69 -160 67 -174 67 -202 C67 -243 87 -270 118 -270 C149 -270 171 -241 171 -201 C171 -182 169 -165 154 -86 C135 15 129 76 127 210 L110 210 Z M121 413 C91 413 67 387 67 355 C67 323 91 296 119 296 C149 296 173 323 173 355 C173 387 150 413 121 413 L121 413 Z " />
<glyph glyph-name="cent" unicode="&#xa2;" horiz-adv-x="450" d="M259 524 C283 522 306 506 306 491 C306 489 305 487 303 482 C297 471 292 451 292 437 C292 410 310 389 333 389 C358 389 375 411 375 441 C375 494 327 536 259 542 L259 630 L231 630 L231 542 C140 534 67 442 67 337 C67 229 136 142 231 131 L231 36 L259 36 L259 132 C319 138 371 194 388 268 L365 268 C347 200 311 161 259 153 L259 524 Z M231 152 C183 164 170 195 170 298 C170 464 182 510 231 522 L231 152 Z " />
<glyph glyph-name="sterling" unicode="&#xa3;" horiz-adv-x="450" d="M239 296 C232 311 228 318 214 342 C170 419 157 458 157 511 C157 597 201 656 265 656 C311 656 346 625 346 584 C346 577 344 572 339 566 C326 550 321 538 321 521 C321 492 340 471 365 471 C397 471 421 501 421 540 C421 613 347 677 261 677 C156 677 65 588 65 485 C65 445 78 409 105 371 C118 354 123 346 162 296 L52 296 L52 263 L185 263 C214 219 222 195 222 154 C222 144 222 142 221 116 C165 138 143 143 108 143 C48 143 7 113 7 69 C7 25 46 -6 102 -6 C145 -6 171 4 220 38 C266 2 301 -13 336 -13 C415 -13 460 54 460 171 L435 171 C436 97 408 54 361 54 C338 54 310 66 250 103 C260 136 264 164 264 193 C264 219 261 238 251 263 L373 263 L373 296 L239 296 Z M194 56 C169 33 140 21 107 21 C70 21 41 42 41 68 C41 90 59 106 84 106 C110 106 148 89 194 56 L194 56 Z " />
<glyph glyph-name="currency" unicode="&#xa4;" horiz-adv-x="450" d="M343 481 C308 512 269 528 225 528 C181 528 144 513 108 481 L48 547 L27 523 L87 457 C59 419 44 375 44 327 C44 279 58 235 87 196 L27 130 L48 106 L108 173 C142 141 182 125 225 125 C268 125 310 142 343 173 L402 106 L424 130 L364 196 C392 235 407 279 407 327 C407 375 393 417 364 457 L424 523 L402 547 L343 481 Z M226 462 C290 462 341 401 341 325 C341 251 289 191 224 191 C162 191 110 253 110 326 C110 402 162 462 226 462 L226 462 Z " />
<glyph glyph-name="yen" unicode="&#xa5;" horiz-adv-x="450" d="M182 304 L182 20 L109 20 L109 0 L339 0 L339 20 L275 20 L275 304 L390 304 L390 324 L279 324 L318 433 L427 433 L427 453 L325 453 L388 627 L443 627 L443 647 L289 647 L289 627 L366 627 L263 339 L142 627 L208 627 L208 647 L5 647 L5 627 L45 627 L119 453 L21 453 L21 433 L128 433 L175 324 L58 324 L58 304 L182 304 Z " />
<glyph glyph-name="brokenbar" unicode="&#xa6;" horiz-adv-x="450" d="M195 667 L195 326 L256 326 L256 667 L195 667 Z M195 153 L195 -167 L256 -167 L256 153 L195 153 Z " />
<glyph glyph-name="section" unicode="&#xa7;" horiz-adv-x="450" d="M315 117 C374 142 404 192 404 262 C404 302 393 333 369 356 C348 377 326 392 251 435 C183 475 173 482 157 494 C135 512 124 535 124 565 C124 621 166 657 231 657 C278 657 307 642 331 607 C295 599 275 578 275 546 C275 520 296 499 321 499 C353 499 377 527 377 563 C377 626 312 677 232 677 C137 677 73 613 73 518 C73 466 93 429 138 393 C82 374 48 322 48 254 C48 210 62 176 89 152 C108 135 126 124 201 80 C328 5 343 -9 343 -61 C343 -127 290 -170 208 -170 C152 -170 106 -148 83 -110 C88 -111 92 -111 95 -111 C127 -111 154 -81 154 -44 C154 -11 134 13 105 13 C73 13 46 -18 46 -56 C46 -133 114 -190 206 -190 C320 -190 401 -122 401 -24 C401 32 380 67 315 117 L315 117 Z M153 379 C169 379 181 375 214 357 C256 335 290 314 318 294 C347 273 362 247 362 215 C362 171 332 134 297 134 C284 134 267 140 244 153 C210 173 157 205 138 217 C102 241 88 267 88 311 C88 343 122 379 153 379 L153 379 Z " />
<glyph glyph-name="dieresis" unicode="&#xa8;" horiz-adv-x="460" d="M149 591 C120 591 96 568 96 541 C96 512 118 490 147 490 C176 490 199 512 199 540 C199 568 176 591 149 591 L149 591 Z M313 591 C284 591 262 569 262 541 C262 512 284 490 314 490 C344 490 365 510 365 539 C365 568 342 591 313 591 L313 591 Z " />
<glyph glyph-name="copyright" unicode="&#xa9;" horiz-adv-x="699" d="M473 256 L460 256 C439 191 407 158 362 158 C333 158 309 171 296 191 C284 210 280 242 280 317 C280 399 285 446 296 468 C309 494 334 509 366 509 C413 509 447 477 460 418 L473 418 L473 523 L460 523 L443 498 C418 518 388 529 359 529 C270 529 197 440 197 333 C197 226 268 138 354 138 C385 138 412 147 443 169 L460 143 L473 143 L473 256 Z M350 677 C178 677 38 523 38 333 C38 147 178 -10 345 -10 C521 -10 662 141 662 331 C662 524 524 677 350 677 L350 677 Z M350 644 C501 644 622 505 622 331 C622 160 499 23 346 23 C200 23 78 165 78 333 C78 505 200 644 350 644 L350 644 Z " />
<glyph glyph-name="ordfeminine" unicode="&#xaa;" horiz-adv-x="315" d="M279 330 L25 330 L25 297 L279 297 L279 330 Z M281 429 C267 417 267 417 261 417 C249 417 249 417 249 492 L249 566 C249 625 248 629 233 645 C216 663 186 674 151 674 C93 674 42 641 42 604 C42 586 55 572 74 572 C91 572 104 586 104 603 C104 612 101 619 95 625 C93 629 92 630 92 632 C92 644 119 658 140 658 C155 658 168 653 175 645 C182 637 183 631 183 593 L183 550 C79 547 23 515 23 458 C23 419 53 393 98 393 C132 393 166 411 184 440 C190 410 211 393 242 393 C261 393 275 399 292 415 L281 429 Z M185 523 C185 499 183 479 179 466 C172 444 152 428 129 428 C105 428 91 443 91 470 C91 510 122 530 185 533 L185 523 Z " />
<glyph glyph-name="guillemotleft" unicode="&#xab;" horiz-adv-x="344" d="M39 198 L139 94 L196 94 L95 198 L196 304 L142 304 L39 198 Z M142 198 L242 94 L299 94 L198 198 L299 304 L246 304 L142 198 Z " />
<glyph glyph-name="logicalnot" unicode="&#xac;" horiz-adv-x="450" d="M304 0 L419 0 L419 267 L30 267 L30 217 L304 217 L304 0 Z " />
<glyph glyph-name="uni00AD" unicode="&#xad;" horiz-adv-x="174" d="M0 234 L0 168 L174 168 L174 234 L0 234 Z " />
<glyph glyph-name="registered" unicode="&#xae;" horiz-adv-x="699" d="M239 161 L194 161 L194 143 L348 143 L348 161 L310 161 L310 336 C316 337 323 337 324 337 C386 337 399 323 401 256 C402 211 404 199 413 181 C424 157 450 141 476 141 C490 141 502 144 518 151 L511 167 C498 162 493 161 489 161 C480 161 473 167 470 177 C467 184 467 191 467 217 C469 285 445 323 387 343 C448 356 479 387 479 434 C479 464 466 487 441 503 C416 520 397 523 326 523 L194 523 L194 505 L239 505 L239 161 Z M310 355 L310 505 L326 505 C359 505 372 502 384 491 C397 479 404 458 404 430 C404 373 385 355 324 355 L310 355 Z M350 677 C178 677 38 523 38 333 C38 147 178 -10 345 -10 C521 -10 662 141 662 331 C662 524 524 677 350 677 L350 677 Z M350 644 C501 644 622 505 622 331 C622 160 499 23 346 23 C200 23 78 165 78 333 C78 505 200 644 350 644 L350 644 Z " />
<glyph glyph-name="macron" unicode="&#xaf;" horiz-adv-x="333" d="M33 544 L33 510 L299 510 L299 544 L33 544 Z " />
<glyph glyph-name="degree" unicode="&#xb0;" horiz-adv-x="400" d="M203 686 C117 686 50 619 50 534 C50 448 116 380 200 380 C284 380 350 447 350 533 C350 619 286 686 203 686 L203 686 Z M202 629 C252 629 293 586 293 533 C293 479 252 437 200 437 C148 437 106 480 106 532 C106 587 148 629 202 629 L202 629 Z " />
<glyph glyph-name="plusminus" unicode="&#xb1;" horiz-adv-x="450" d="M209 306 L209 130 L244 130 L244 306 L408 306 L408 341 L244 341 L244 517 L209 517 L209 341 L42 341 L42 306 L209 306 Z M42 31 L408 31 L408 66 L42 66 L42 31 Z " />
<glyph glyph-name="twosuperior" unicode="&#xb2;" horiz-adv-x="298" d="M255 369 L239 369 C231 312 231 311 191 312 L74 312 C160 401 204 446 204 447 C242 491 257 522 257 554 C257 611 209 653 146 653 C85 653 40 614 40 562 C40 528 58 503 84 503 C101 503 116 517 116 534 C116 551 103 564 85 564 C81 564 78 563 69 560 C68 559 67 559 66 559 C63 559 61 564 61 570 C61 601 90 630 122 630 C159 630 183 592 183 533 C183 496 174 471 149 437 C134 415 110 388 26 291 L26 258 L251 258 L255 369 Z " />
<glyph glyph-name="threesuperior" unicode="&#xb3;" horiz-adv-x="299" d="M75 458 C119 458 127 457 143 449 C172 437 183 412 183 362 C183 303 162 271 123 271 C103 271 77 287 77 298 C77 300 78 301 81 304 C88 312 92 322 92 334 C92 350 80 363 64 363 C46 363 32 347 32 327 C32 286 76 253 131 253 C205 253 262 303 262 369 C262 423 230 455 160 470 C216 492 242 523 242 566 C242 615 199 653 142 653 C92 653 53 624 53 587 C53 567 66 552 82 552 C97 552 109 565 109 582 C109 591 105 602 100 608 C95 612 95 613 95 614 C95 624 114 635 131 635 C156 635 168 614 168 569 C168 528 160 505 143 491 C130 481 120 479 75 478 L75 458 Z " />
<glyph glyph-name="acute" unicode="&#xb4;" horiz-adv-x="468" d="M280 616 L183 473 L192 463 L359 599 C362 602 364 605 364 608 C364 614 361 616 355 616 L280 616 Z " />
<glyph glyph-name="mu" unicode="&#xb5;" horiz-adv-x="576" d="M442 500 L353 500 L354 131 C318 80 284 58 242 58 C184 58 150 99 150 169 L150 500 L62 500 L62 20 C62 -1 58 -26 51 -56 C34 -118 33 -123 33 -147 C33 -190 54 -219 83 -219 C112 -219 132 -189 132 -145 C132 -124 129 -110 113 -53 C102 -17 101 -8 101 21 L101 33 C143 -3 165 -13 200 -13 C250 -13 301 18 354 80 C362 48 367 36 377 21 C392 0 419 -13 449 -13 C510 -13 553 31 567 108 L540 109 C536 71 515 41 492 41 C462 41 442 77 442 131 L442 500 Z " />
<glyph glyph-name="paragraph" unicode="&#xb6;" horiz-adv-x="450" d="M201 -160 L137 -160 L137 -180 L418 -180 L418 -160 L375 -160 L375 647 L418 647 L418 667 L198 667 C156 667 120 658 94 640 C52 611 25 550 25 486 C25 380 89 308 183 308 L201 308 L201 -160 Z M252 -160 L252 647 L325 647 L325 -160 L252 -160 Z " />
<glyph glyph-name="periodcentered" unicode="&#xb7;" horiz-adv-x="214" d="M108 259 C78 259 54 233 54 200 C54 168 77 142 106 142 C136 142 160 168 160 200 C160 232 136 259 108 259 L108 259 Z " />
<glyph glyph-name="cedilla" unicode="&#xb8;" horiz-adv-x="450" d="M255 0 L237 -60 C267 -75 276 -88 276 -117 C276 -145 262 -162 238 -162 C222 -162 209 -154 207 -142 L206 -136 C205 -133 205 -130 204 -126 C202 -106 197 -98 186 -98 C178 -98 172 -106 172 -118 C172 -152 206 -178 253 -178 C305 -178 344 -147 344 -106 C344 -74 314 -52 271 -52 L258 -52 L273 0 L255 0 Z " />
<glyph glyph-name="onesuperior" unicode="&#xb9;" horiz-adv-x="298" d="M121 278 L71 278 L71 259 L248 259 L248 278 L192 278 L192 651 L71 644 L71 626 L110 627 L115 627 L119 627 C120 626 120 626 120 623 L121 616 L121 278 Z " />
<glyph glyph-name="ordmasculine" unicode="&#xba;" horiz-adv-x="325" d="M290 330 L36 330 L36 297 L290 297 L290 330 Z M163 674 C85 674 23 611 23 534 C23 456 85 393 163 393 C240 393 303 456 303 532 C303 612 242 674 163 674 L163 674 Z M162 653 C188 653 204 646 215 631 C224 617 225 610 225 533 C225 463 224 453 218 441 C208 423 190 414 163 414 C138 414 122 421 111 436 C102 450 101 457 101 534 C101 604 102 614 108 626 C118 644 136 653 162 653 L162 653 Z " />
<glyph glyph-name="guillemotright" unicode="&#xbb;" horiz-adv-x="344" d="M305 200 L205 304 L148 304 L250 200 L148 94 L202 94 L305 200 Z M202 200 L102 304 L45 304 L146 200 L45 94 L98 94 L202 200 Z " />
<glyph glyph-name="onequarter" unicode="&#xbc;" horiz-adv-x="682" d="M121 278 L71 278 L71 259 L248 259 L248 278 L192 278 L192 651 L71 644 L71 626 L110 627 L115 627 L119 627 C120 626 120 626 120 623 L121 616 L121 278 Z M481 647 L199 0 L226 0 L507 647 L481 647 Z M535 102 L535 19 L478 19 L478 0 L648 0 L648 19 L606 19 L606 102 L638 102 L638 58 L659 58 L659 168 L638 168 L638 124 L606 124 L606 392 L563 392 L401 129 L401 102 L535 102 Z M535 124 L422 124 L535 313 L535 124 Z " />
<glyph glyph-name="onehalf" unicode="&#xbd;" horiz-adv-x="682" d="M121 278 L71 278 L71 259 L248 259 L248 278 L192 278 L192 651 L71 644 L71 626 L110 627 L115 627 L119 627 C120 626 120 626 120 623 L121 616 L121 278 Z M469 647 L187 0 L214 0 L495 647 L469 647 Z M640 111 L623 111 C616 54 615 53 575 54 L458 54 C545 143 588 188 589 189 C626 232 642 263 642 295 C642 352 594 394 530 394 C470 394 425 355 425 304 C425 270 443 245 468 245 C485 245 500 259 500 275 C500 292 487 305 470 305 C466 305 464 305 458 303 C452 301 452 301 451 301 C448 301 446 306 446 311 C446 342 475 371 506 371 C544 371 568 333 568 274 C568 237 559 213 534 178 C519 157 496 130 410 33 L410 0 L636 0 L640 111 Z " />
<glyph glyph-name="threequarters" unicode="&#xbe;" horiz-adv-x="682" d="M75 458 C119 458 127 457 143 449 C172 437 183 412 183 362 C183 303 162 271 123 271 C103 271 77 287 77 298 C77 300 78 301 81 304 C88 312 92 322 92 334 C92 350 80 363 64 363 C46 363 32 347 32 327 C32 286 76 253 131 253 C205 253 262 303 262 369 C262 423 230 455 160 470 C216 492 242 523 242 566 C242 615 199 653 142 653 C92 653 53 624 53 587 C53 567 66 552 82 552 C97 552 109 565 109 582 C109 591 105 602 100 608 C95 612 95 613 95 614 C95 624 114 635 131 635 C156 635 168 614 168 569 C168 528 160 505 143 491 C130 481 120 479 75 478 L75 458 Z M487 647 L206 0 L232 0 L513 647 L487 647 Z M535 102 L535 19 L478 19 L478 0 L648 0 L648 19 L606 19 L606 102 L637 102 L637 58 L658 58 L658 168 L637 168 L637 124 L606 124 L606 392 L563 392 L402 129 L402 102 L535 102 Z M535 124 L422 124 L535 313 L535 124 Z " />
<glyph glyph-name="questiondown" unicode="&#xbf;" horiz-adv-x="335" d="M205 207 C201 133 194 119 131 66 C91 33 85 27 70 7 C45 -27 32 -66 32 -109 C32 -202 92 -270 174 -270 C247 -270 308 -212 308 -142 C308 -107 290 -82 265 -82 C245 -82 229 -100 229 -124 C229 -141 237 -160 247 -167 C262 -178 266 -182 266 -190 C266 -219 217 -250 171 -250 C119 -250 79 -212 79 -163 C79 -131 95 -102 135 -61 C203 8 224 60 224 158 C224 177 223 190 220 215 L205 207 Z M208 413 C178 413 154 387 154 355 C154 324 178 297 206 297 C236 297 260 323 260 355 C260 388 237 413 208 413 L208 413 Z " />
<glyph glyph-name="Agrave" unicode="&#xc0;" horiz-adv-x="528" d="M202 837 L102 837 C90 837 86 834 86 826 C86 820 90 817 101 812 L333 720 L340 732 L202 837 Z M309 215 L368 20 L290 20 L290 0 L534 0 L534 20 L470 20 L276 667 L250 667 L46 20 L3 20 L3 0 L149 0 L149 20 L71 20 L129 215 L309 215 Z M304 235 L135 235 L220 512 L304 235 Z " />
<glyph glyph-name="Aacute" unicode="&#xc1;" horiz-adv-x="528" d="M357 837 L219 732 L226 720 L458 812 C469 817 473 821 473 826 C473 834 469 837 457 837 L357 837 Z M309 215 L368 20 L290 20 L290 0 L534 0 L534 20 L470 20 L276 667 L250 667 L46 20 L3 20 L3 0 L149 0 L149 20 L71 20 L129 215 L309 215 Z M304 235 L135 235 L220 512 L304 235 Z " />
<glyph glyph-name="Acircumflex" unicode="&#xc2;" horiz-adv-x="528" d="M262 843 L96 732 L102 720 L262 769 L423 720 L429 732 L262 843 Z M309 215 L368 20 L290 20 L290 0 L534 0 L534 20 L470 20 L276 667 L250 667 L46 20 L3 20 L3 0 L149 0 L149 20 L71 20 L129 215 L309 215 Z M304 235 L135 235 L220 512 L304 235 Z " />
<glyph glyph-name="Atilde" unicode="&#xc3;" horiz-adv-x="528" d="M419 819 C398 791 389 785 366 785 C350 785 329 789 313 794 L269 809 C244 818 232 820 213 820 C164 820 131 796 106 744 L121 734 C138 759 152 767 182 767 C199 767 217 764 236 758 L279 743 C305 735 317 732 330 732 C371 732 405 757 434 810 L419 819 Z M309 215 L368 20 L290 20 L290 0 L534 0 L534 20 L470 20 L276 667 L250 667 L46 20 L3 20 L3 0 L149 0 L149 20 L71 20 L129 215 L309 215 Z M304 235 L135 235 L220 512 L304 235 Z " />
<glyph glyph-name="Adieresis" unicode="&#xc4;" horiz-adv-x="528" d="M168 830 C140 830 116 806 116 778 C116 749 139 727 168 727 C198 727 220 750 220 779 C220 807 196 830 168 830 L168 830 Z M357 830 C329 830 305 806 305 778 C305 749 328 727 357 727 C387 727 409 750 409 779 C409 807 385 830 357 830 L357 830 Z M309 215 L368 20 L290 20 L290 0 L534 0 L534 20 L470 20 L276 667 L250 667 L46 20 L3 20 L3 0 L149 0 L149 20 L71 20 L129 215 L309 215 Z M304 235 L135 235 L220 512 L304 235 Z " />
<glyph glyph-name="Aring" unicode="&#xc5;" horiz-adv-x="528" d="M263 859 C220 859 187 825 187 782 C187 740 220 707 263 707 C305 707 338 740 338 781 C338 825 305 859 263 859 L263 859 Z M263 831 C287 831 308 808 308 783 C308 757 287 735 262 735 C238 735 217 757 217 783 C217 809 238 831 263 831 L263 831 Z M309 215 L368 20 L290 20 L290 0 L534 0 L534 20 L470 20 L276 667 L250 667 L46 20 L3 20 L3 0 L149 0 L149 20 L71 20 L129 215 L309 215 Z M304 235 L135 235 L220 512 L304 235 Z " />
<glyph glyph-name="AE" unicode="&#xc6;" horiz-adv-x="768" d="M346 209 L346 20 L271 20 L271 0 L717 0 L735 208 L723 208 C684 49 652 13 559 20 L453 20 L453 327 C466 328 472 328 480 328 C528 328 550 317 561 288 C569 267 571 255 574 196 L585 196 L585 471 L574 471 C573 367 555 346 469 347 L453 347 L453 647 L517 647 C633 652 670 619 697 484 L709 484 L703 667 L235 667 L235 647 L324 647 L51 20 L-19 20 L-19 0 L165 0 L165 20 L76 20 L158 209 L346 209 Z M346 229 L165 229 L346 640 L346 229 Z " />
<glyph glyph-name="Ccedilla" unicode="&#xc7;" horiz-adv-x="526" d="M298 -10 C350 -8 398 12 443 48 L474 0 L487 0 L487 189 L474 189 C438 71 383 13 305 13 C257 13 214 36 191 75 C171 110 164 169 164 305 C164 452 172 538 191 577 C214 627 257 654 313 654 C393 654 451 595 474 491 L487 491 L487 667 L474 667 L443 620 C399 657 351 677 303 677 C252 677 196 653 151 613 C79 549 38 446 38 332 C38 209 87 97 168 36 C202 10 233 -3 280 -10 L265 -61 C295 -76 305 -90 305 -118 C305 -147 291 -164 266 -164 C249 -164 236 -156 234 -144 L233 -138 L231 -129 C229 -108 224 -100 213 -100 C204 -100 198 -108 198 -120 C198 -155 233 -181 281 -181 C334 -181 374 -150 374 -108 C374 -75 344 -53 300 -53 L286 -53 L298 -10 Z " />
<glyph glyph-name="Egrave" unicode="&#xc8;" horiz-adv-x="526" d="M237 837 L136 837 C124 837 120 834 120 826 C120 821 124 817 135 812 L367 720 L375 732 L237 837 Z M104 20 L29 20 L29 0 L476 0 L493 208 L481 208 C443 49 411 13 317 20 L211 20 L211 328 L238 328 C286 328 308 317 320 288 C328 268 330 255 333 196 L346 196 L346 471 L333 471 C332 368 314 346 227 348 L211 347 L211 647 L275 647 C392 652 429 619 456 484 L468 484 L462 667 L29 667 L29 647 L104 647 L104 20 Z " />
<glyph glyph-name="Eacute" unicode="&#xc9;" horiz-adv-x="526" d="M340 837 L202 732 L210 720 L442 812 C453 817 457 820 457 826 C457 834 453 837 441 837 L340 837 Z M104 20 L29 20 L29 0 L476 0 L493 208 L481 208 C443 49 411 13 317 20 L211 20 L211 328 L238 328 C286 328 308 317 320 288 C328 268 330 255 333 196 L346 196 L346 471 L333 471 C332 368 314 346 227 348 L211 347 L211 647 L275 647 C392 652 429 619 456 484 L468 484 L462 667 L29 667 L29 647 L104 647 L104 20 Z " />
<glyph glyph-name="Ecircumflex" unicode="&#xca;" horiz-adv-x="526" d="M272 843 L105 732 L111 720 L272 769 L433 720 L438 732 L272 843 Z M104 20 L29 20 L29 0 L476 0 L493 208 L481 208 C443 49 411 13 317 20 L211 20 L211 328 L238 328 C286 328 308 317 320 288 C328 268 330 255 333 196 L346 196 L346 471 L333 471 C332 368 314 346 227 348 L211 347 L211 647 L275 647 C392 652 429 619 456 484 L468 484 L462 667 L29 667 L29 647 L104 647 L104 20 Z " />
<glyph glyph-name="Edieresis" unicode="&#xcb;" horiz-adv-x="526" d="M179 830 C151 830 127 806 127 778 C127 749 150 727 179 727 C209 727 231 750 231 779 C231 807 207 830 179 830 L179 830 Z M368 830 C340 830 316 806 316 778 C316 749 339 727 368 727 C398 727 420 750 420 779 C420 807 396 830 368 830 L368 830 Z M104 20 L29 20 L29 0 L476 0 L493 208 L481 208 C443 49 411 13 317 20 L211 20 L211 328 L238 328 C286 328 308 317 320 288 C328 268 330 255 333 196 L346 196 L346 471 L333 471 C332 368 314 346 227 348 L211 347 L211 647 L275 647 C392 652 429 619 456 484 L468 484 L462 667 L29 667 L29 647 L104 647 L104 20 Z " />
<glyph glyph-name="Igrave" unicode="&#xcc;" horiz-adv-x="314" d="M103 20 L28 20 L28 0 L285 0 L285 20 L210 20 L210 647 L285 647 L285 667 L28 667 L28 647 L103 647 L103 20 Z M129 837 L29 837 C17 837 13 834 13 826 C13 821 17 816 28 812 L260 720 L267 732 L129 837 Z " />
<glyph glyph-name="Iacute" unicode="&#xcd;" horiz-adv-x="314" d="M104 20 L29 20 L29 0 L286 0 L286 20 L211 20 L211 647 L286 647 L286 667 L29 667 L29 647 L104 647 L104 20 Z M244 837 L106 732 L113 720 L345 812 C356 816 360 821 360 826 C360 834 356 837 344 837 L244 837 Z " />
<glyph glyph-name="Icircumflex" unicode="&#xce;" horiz-adv-x="314" d="M103 20 L28 20 L28 0 L285 0 L285 20 L210 20 L210 647 L285 647 L285 667 L28 667 L28 647 L103 647 L103 20 Z M157 843 L-10 732 L-4 720 L157 769 L317 720 L323 732 L157 843 Z " />
<glyph glyph-name="Idieresis" unicode="&#xcf;" horiz-adv-x="314" d="M103 20 L28 20 L28 0 L285 0 L285 20 L210 20 L210 647 L285 647 L285 667 L28 667 L28 647 L103 647 L103 20 Z M79 830 C51 830 27 806 27 778 C27 749 50 727 79 727 C109 727 131 750 131 779 C131 807 107 830 79 830 L79 830 Z M234 830 C206 830 182 806 182 778 C182 749 205 727 234 727 C264 727 286 750 286 779 C286 807 262 830 234 830 L234 830 Z " />
<glyph glyph-name="Eth" unicode="&#xd0;" horiz-adv-x="608" d="M102 351 L29 351 L29 331 L102 331 L102 20 L29 20 L29 0 L251 0 C362 0 402 10 451 51 C528 116 571 219 571 338 C571 445 536 535 469 601 C415 654 371 667 242 667 L29 667 L29 647 L102 647 L102 351 Z M209 351 L209 647 L244 647 C289 647 306 646 320 644 C358 637 387 620 405 594 C435 551 444 494 444 348 C444 240 440 174 430 129 C420 86 392 50 356 34 C328 22 316 20 249 20 L209 20 L209 331 L323 331 L323 351 L209 351 Z " />
<glyph glyph-name="Ntilde" unicode="&#xd1;" horiz-adv-x="601" d="M466 819 C445 791 436 785 413 785 C397 785 376 789 360 794 L316 809 C291 818 279 820 260 820 C211 820 178 796 153 744 L167 734 C185 759 199 767 229 767 C246 767 264 764 283 758 L326 743 C352 735 364 732 377 732 C418 732 452 757 481 810 L466 819 Z M98 20 L23 20 L23 0 L194 0 L194 20 L121 20 L121 628 L484 0 L507 0 L507 647 L582 647 L582 667 L411 667 L411 647 L484 647 L484 196 C459 246 433 292 386 374 L211 667 L23 667 L23 647 L98 647 L98 20 Z " />
<glyph glyph-name="Ograve" unicode="&#xd2;" horiz-adv-x="598" d="M256 837 L156 837 C144 837 140 834 140 826 C140 820 144 816 155 812 L387 720 L394 732 L256 837 Z M299 677 C158 677 38 519 38 334 C38 148 158 -10 300 -10 C365 -10 428 22 473 79 C528 148 561 242 561 329 C561 520 443 677 299 677 L299 677 Z M300 654 C343 654 380 632 403 594 C426 554 434 488 434 329 C434 192 427 122 408 83 C387 39 347 13 300 13 C256 13 219 35 197 73 C173 112 165 180 165 333 C165 474 172 544 191 583 C212 628 252 654 300 654 L300 654 Z " />
<glyph glyph-name="Oacute" unicode="&#xd3;" horiz-adv-x="598" d="M376 837 L238 732 L245 720 L477 812 C488 816 492 821 492 826 C492 834 488 837 476 837 L376 837 Z M299 677 C158 677 38 519 38 334 C38 148 158 -10 300 -10 C365 -10 428 22 473 79 C528 148 561 242 561 329 C561 520 443 677 299 677 L299 677 Z M300 654 C343 654 380 632 403 594 C426 554 434 488 434 329 C434 192 427 122 408 83 C387 39 347 13 300 13 C256 13 219 35 197 73 C173 112 165 180 165 333 C165 474 172 544 191 583 C212 628 252 654 300 654 L300 654 Z " />
<glyph glyph-name="Ocircumflex" unicode="&#xd4;" horiz-adv-x="598" d="M299 843 L133 732 L139 720 L299 769 L460 720 L466 732 L299 843 Z M299 677 C158 677 38 519 38 334 C38 148 158 -10 300 -10 C365 -10 428 22 473 79 C528 148 561 242 561 329 C561 520 443 677 299 677 L299 677 Z M300 654 C343 654 380 632 403 594 C426 554 434 488 434 329 C434 192 427 122 408 83 C387 39 347 13 300 13 C256 13 219 35 197 73 C173 112 165 180 165 333 C165 474 172 544 191 583 C212 628 252 654 300 654 L300 654 Z " />
<glyph glyph-name="Otilde" unicode="&#xd5;" horiz-adv-x="598" d="M454 819 C434 791 424 785 401 785 C385 785 364 789 348 794 L305 809 C279 818 267 820 248 820 C199 820 166 796 141 744 L156 734 C173 759 188 767 217 767 C235 767 252 764 271 758 L314 743 C340 735 352 732 365 732 C406 732 440 757 469 810 L454 819 Z M299 677 C158 677 38 519 38 334 C38 148 158 -10 300 -10 C365 -10 428 22 473 79 C528 148 561 242 561 329 C561 520 443 677 299 677 L299 677 Z M300 654 C343 654 380 632 403 594 C426 554 434 488 434 329 C434 192 427 122 408 83 C387 39 347 13 300 13 C256 13 219 35 197 73 C173 112 165 180 165 333 C165 474 172 544 191 583 C212 628 252 654 300 654 L300 654 Z " />
<glyph glyph-name="Odieresis" unicode="&#xd6;" horiz-adv-x="598" d="M205 830 C177 830 153 806 153 778 C153 749 176 727 205 727 C235 727 257 750 257 779 C257 807 233 830 205 830 L205 830 Z M394 830 C366 830 342 806 342 778 C342 749 365 727 394 727 C424 727 446 750 446 779 C446 807 422 830 394 830 L394 830 Z M299 677 C158 677 38 519 38 334 C38 148 158 -10 300 -10 C365 -10 428 22 473 79 C528 148 561 242 561 329 C561 520 443 677 299 677 L299 677 Z M300 654 C343 654 380 632 403 594 C426 554 434 488 434 329 C434 192 427 122 408 83 C387 39 347 13 300 13 C256 13 219 35 197 73 C173 112 165 180 165 333 C165 474 172 544 191 583 C212 628 252 654 300 654 L300 654 Z " />
<glyph glyph-name="multiply" unicode="&#xd7;" horiz-adv-x="450" d="M225 298 L356 153 L379 178 L248 323 L379 469 L356 494 L225 348 L95 494 L72 469 L203 323 L72 178 L95 153 L225 298 Z " />
<glyph glyph-name="Oslash" unicode="&#xd8;" horiz-adv-x="598" d="M513 663 L497 675 L456 607 C409 654 357 677 299 677 C158 677 38 519 38 333 C38 238 72 144 131 73 L85 -2 L100 -14 L144 58 C191 12 242 -10 300 -10 C441 -10 561 148 561 334 C561 428 528 521 470 592 L513 663 Z M425 520 C431 480 434 424 434 334 C434 192 427 122 408 83 C387 39 347 13 299 13 C240 13 196 51 180 116 L425 520 Z M174 144 C168 184 165 241 165 332 C165 474 172 544 191 583 C212 628 252 654 299 654 C360 654 403 616 420 548 L174 144 Z " />
<glyph glyph-name="Ugrave" unicode="&#xd9;" horiz-adv-x="578" d="M262 837 L162 837 C150 837 146 834 146 826 C146 820 150 816 161 812 L393 720 L400 732 L262 837 Z M466 647 L466 265 C466 155 464 132 449 94 C427 41 387 13 331 13 C283 13 243 34 222 70 C200 107 198 124 198 265 L198 647 L262 647 L262 667 L16 667 L16 647 L91 647 L91 265 C91 133 100 94 137 53 C174 14 237 -10 306 -10 C376 -10 429 15 457 61 C484 106 489 137 489 265 L489 647 L562 647 L562 667 L391 667 L391 647 L466 647 Z " />
<glyph glyph-name="Uacute" unicode="&#xda;" horiz-adv-x="578" d="M388 837 L250 732 L257 720 L489 812 C500 817 504 820 504 826 C504 834 500 837 488 837 L388 837 Z M466 647 L466 265 C466 155 464 132 449 94 C427 41 387 13 331 13 C283 13 243 34 222 70 C200 107 198 124 198 265 L198 647 L262 647 L262 667 L16 667 L16 647 L91 647 L91 265 C91 133 100 94 137 53 C174 14 237 -10 306 -10 C376 -10 429 15 457 61 C484 106 489 137 489 265 L489 647 L562 647 L562 667 L391 667 L391 647 L466 647 Z " />
<glyph glyph-name="Ucircumflex" unicode="&#xdb;" horiz-adv-x="578" d="M310 843 L143 732 L149 720 L310 769 L471 720 L476 732 L310 843 Z M466 647 L466 265 C466 155 464 132 449 94 C427 41 387 13 331 13 C283 13 243 34 222 70 C200 107 198 124 198 265 L198 647 L262 647 L262 667 L16 667 L16 647 L91 647 L91 265 C91 133 100 94 137 53 C174 14 237 -10 306 -10 C376 -10 429 15 457 61 C484 106 489 137 489 265 L489 647 L562 647 L562 667 L391 667 L391 647 L466 647 Z " />
<glyph glyph-name="Udieresis" unicode="&#xdc;" horiz-adv-x="578" d="M215 830 C187 830 163 806 163 778 C163 749 186 727 215 727 C245 727 267 750 267 779 C267 807 243 830 215 830 L215 830 Z M404 830 C376 830 352 806 352 778 C352 749 375 727 404 727 C434 727 456 750 456 779 C456 807 432 830 404 830 L404 830 Z M466 647 L466 265 C466 155 464 132 449 94 C427 41 387 13 331 13 C283 13 243 34 222 70 C200 107 198 124 198 265 L198 647 L262 647 L262 667 L16 667 L16 647 L91 647 L91 265 C91 133 100 94 137 53 C174 14 237 -10 306 -10 C376 -10 429 15 457 61 C484 106 489 137 489 265 L489 647 L562 647 L562 667 L391 667 L391 647 L466 647 Z " />
<glyph glyph-name="Yacute" unicode="&#xdd;" horiz-adv-x="520" d="M362 837 L224 732 L232 720 L464 812 C475 817 479 821 479 826 C479 834 475 837 463 837 L362 837 Z M213 20 L129 20 L129 0 L393 0 L393 20 L320 20 L320 316 C322 321 323 325 324 327 L328 344 C338 375 339 377 342 384 L464 647 L527 647 L527 667 L351 667 L351 647 L441 647 L309 356 C307 362 305 366 303 371 L295 384 L149 647 L225 647 L225 667 L-8 667 L-8 647 L38 647 L213 316 L213 20 Z " />
<glyph glyph-name="Thorn" unicode="&#xde;" horiz-adv-x="526" d="M104 20 L29 20 L29 0 L286 0 L286 20 L211 20 L211 203 L264 203 C352 203 395 213 435 242 C479 274 503 321 503 376 C503 425 485 466 451 498 C407 538 368 548 262 548 L211 548 L211 647 L286 647 L286 667 L29 667 L29 647 L104 647 L104 20 Z M211 223 L211 528 L263 528 C361 528 383 500 383 372 C383 311 374 273 356 250 C339 230 316 223 264 223 L211 223 Z " />
<glyph glyph-name="germandbls" unicode="&#xdf;" horiz-adv-x="445" d="M75 20 L15 20 L15 0 L198 0 L198 20 L165 20 L165 208 C165 277 171 309 191 337 C205 358 236 374 260 374 C288 374 306 352 306 316 C306 272 279 244 235 244 C233 244 229 244 224 245 L224 225 C261 224 271 223 283 216 C308 203 324 160 324 108 C324 51 311 13 291 13 C281 13 273 21 273 31 C273 34 273 36 276 41 C280 50 283 63 283 74 C283 97 268 115 248 115 C226 115 211 97 211 70 C211 24 249 -10 299 -10 C361 -10 415 46 415 111 C415 179 363 227 282 233 C355 238 398 270 398 320 C398 371 360 403 299 403 C238 403 186 375 165 330 L165 423 C165 525 170 574 185 615 C194 639 212 657 229 657 C239 657 245 650 245 638 C245 636 245 632 244 627 C243 610 243 606 243 600 C243 577 258 562 280 562 C303 562 321 582 321 608 C321 648 286 677 240 677 C188 677 132 634 102 570 C80 523 75 486 75 384 L75 20 Z " />
<glyph glyph-name="agrave" unicode="&#xe0;" horiz-adv-x="398" d="M186 616 L111 616 C105 616 102 614 102 608 C102 605 104 602 107 599 L274 463 L283 473 L186 616 Z M372 35 C357 20 355 19 346 19 C328 19 328 19 328 135 L328 245 C328 332 327 338 307 361 C285 387 245 403 200 403 C124 403 57 356 57 303 C57 277 73 259 94 259 C115 259 130 277 130 304 C130 313 129 320 124 333 C123 338 122 340 122 343 C122 364 154 386 183 386 C202 386 219 378 228 365 C237 353 238 343 238 286 L238 217 C179 216 144 209 112 195 C61 171 33 132 33 83 C33 28 70 -10 125 -10 C172 -10 212 18 238 68 C244 17 271 -10 317 -10 C342 -10 361 -2 382 20 L372 35 Z M238 180 C238 129 234 99 226 79 C213 50 193 34 170 34 C140 34 122 59 122 101 C122 133 134 159 157 177 C176 192 196 198 238 200 L238 180 Z " />
<glyph glyph-name="aacute" unicode="&#xe1;" horiz-adv-x="398" d="M265 616 L169 473 L178 463 L344 599 C347 602 349 605 349 608 C349 614 346 616 340 616 L265 616 Z M372 35 C357 20 355 19 346 19 C328 19 328 19 328 135 L328 245 C328 332 327 338 307 361 C285 387 245 403 200 403 C124 403 57 356 57 303 C57 277 73 259 94 259 C115 259 130 277 130 304 C130 313 129 320 124 333 C123 338 122 340 122 343 C122 364 154 386 183 386 C202 386 219 378 228 365 C237 353 238 343 238 286 L238 217 C179 216 144 209 112 195 C61 171 33 132 33 83 C33 28 70 -10 125 -10 C172 -10 212 18 238 68 C244 17 271 -10 317 -10 C342 -10 361 -2 382 20 L372 35 Z M238 180 C238 129 234 99 226 79 C213 50 193 34 170 34 C140 34 122 59 122 101 C122 133 134 159 157 177 C176 192 196 198 238 200 L238 180 Z " />
<glyph glyph-name="acircumflex" unicode="&#xe2;" horiz-adv-x="398" d="M203 536 L338 463 L346 473 L203 620 L59 474 L67 464 L203 536 Z M372 35 C357 20 355 19 346 19 C328 19 328 19 328 135 L328 245 C328 332 327 338 307 361 C285 387 245 403 200 403 C124 403 57 356 57 303 C57 277 73 259 94 259 C115 259 130 277 130 304 C130 313 129 320 124 333 C123 338 122 340 122 343 C122 364 154 386 183 386 C202 386 219 378 228 365 C237 353 238 343 238 286 L238 217 C179 216 144 209 112 195 C61 171 33 132 33 83 C33 28 70 -10 125 -10 C172 -10 212 18 238 68 C244 17 271 -10 317 -10 C342 -10 361 -2 382 20 L372 35 Z M238 180 C238 129 234 99 226 79 C213 50 193 34 170 34 C140 34 122 59 122 101 C122 133 134 159 157 177 C176 192 196 198 238 200 L238 180 Z " />
<glyph glyph-name="atilde" unicode="&#xe3;" horiz-adv-x="398" d="M346 580 C327 552 320 548 297 548 C283 548 266 551 251 556 L207 571 C181 580 170 582 153 582 C108 582 86 564 60 506 L73 498 C88 523 98 530 121 530 C137 530 154 527 174 520 L216 507 C237 500 257 496 271 496 C306 496 331 518 359 572 L346 580 Z M372 35 C357 20 355 19 346 19 C328 19 328 19 328 135 L328 245 C328 332 327 338 307 361 C285 387 245 403 200 403 C124 403 57 356 57 303 C57 277 73 259 94 259 C115 259 130 277 130 304 C130 313 129 320 124 333 C123 338 122 340 122 343 C122 364 154 386 183 386 C202 386 219 378 228 365 C237 353 238 343 238 286 L238 217 C179 216 144 209 112 195 C61 171 33 132 33 83 C33 28 70 -10 125 -10 C172 -10 212 18 238 68 C244 17 271 -10 317 -10 C342 -10 361 -2 382 20 L372 35 Z M238 180 C238 129 234 99 226 79 C213 50 193 34 170 34 C140 34 122 59 122 101 C122 133 134 159 157 177 C176 192 196 198 238 200 L238 180 Z " />
<glyph glyph-name="adieresis" unicode="&#xe4;" horiz-adv-x="398" d="M126 591 C97 591 73 568 73 541 C73 512 95 490 124 490 C153 490 176 512 176 540 C176 568 153 591 126 591 L126 591 Z M289 591 C260 591 238 569 238 541 C238 512 260 490 290 490 C320 490 341 510 341 539 C341 568 318 591 289 591 L289 591 Z M372 35 C357 20 355 19 346 19 C328 19 328 19 328 135 L328 245 C328 332 327 338 307 361 C285 387 245 403 200 403 C124 403 57 356 57 303 C57 277 73 259 94 259 C115 259 130 277 130 304 C130 313 129 320 124 333 C123 338 122 340 122 343 C122 364 154 386 183 386 C202 386 219 378 228 365 C237 353 238 343 238 286 L238 217 C179 216 144 209 112 195 C61 171 33 132 33 83 C33 28 70 -10 125 -10 C172 -10 212 18 238 68 C244 17 271 -10 317 -10 C342 -10 361 -2 382 20 L372 35 Z M238 180 C238 129 234 99 226 79 C213 50 193 34 170 34 C140 34 122 59 122 101 C122 133 134 159 157 177 C176 192 196 198 238 200 L238 180 Z " />
<glyph glyph-name="aring" unicode="&#xe5;" horiz-adv-x="398" d="M206 615 C163 615 129 581 129 538 C129 496 162 463 205 463 C248 463 281 496 281 537 C281 581 248 615 206 615 L206 615 Z M206 587 C229 587 251 564 251 539 C251 513 229 491 205 491 C180 491 159 513 159 539 C159 565 180 587 206 587 L206 587 Z M372 35 C357 20 355 19 346 19 C328 19 328 19 328 135 L328 245 C328 332 327 338 307 361 C285 387 245 403 200 403 C124 403 57 356 57 303 C57 277 73 259 94 259 C115 259 130 277 130 304 C130 313 129 320 124 333 C123 338 122 340 122 343 C122 364 154 386 183 386 C202 386 219 378 228 365 C237 353 238 343 238 286 L238 217 C179 216 144 209 112 195 C61 171 33 132 33 83 C33 28 70 -10 125 -10 C172 -10 212 18 238 68 C244 17 271 -10 317 -10 C342 -10 361 -2 382 20 L372 35 Z M238 180 C238 129 234 99 226 79 C213 50 193 34 170 34 C140 34 122 59 122 101 C122 133 134 159 157 177 C176 192 196 198 238 200 L238 180 Z " />
<glyph glyph-name="ae" unicode="&#xe6;" horiz-adv-x="564" d="M540 228 C534 276 526 305 509 332 C483 376 435 403 382 403 C342 403 319 392 291 359 C263 390 233 403 191 403 C121 403 57 354 57 300 C57 275 72 257 93 257 C115 257 130 275 130 300 C130 311 129 316 123 334 C122 339 121 342 121 344 C121 361 154 379 184 379 C203 379 221 367 225 351 C229 340 231 301 231 242 L231 218 C112 217 33 163 33 82 C33 28 70 -10 124 -10 C155 -10 186 1 208 21 C224 35 233 49 247 87 C281 26 335 -10 392 -10 C461 -10 515 44 533 133 L513 133 C502 96 494 79 482 63 C460 32 427 13 398 13 C373 13 348 28 336 50 C325 70 320 102 320 153 L319 203 L319 228 L540 228 Z M319 248 L319 283 C319 321 320 332 327 347 C336 366 358 379 380 379 C414 379 437 358 441 323 C444 306 444 296 445 248 L319 248 Z M231 172 C231 133 229 99 225 84 C217 54 200 35 180 35 C156 35 140 61 140 101 C140 159 170 191 230 200 L231 172 Z " />
<glyph glyph-name="ccedilla" unicode="&#xe7;" horiz-adv-x="367" d="M204 -10 C274 -10 324 37 352 127 L329 127 C309 53 269 13 216 13 C191 13 169 24 156 45 C142 65 138 95 138 167 C138 255 144 314 154 339 C166 366 187 380 216 380 C243 380 271 364 271 348 C271 346 271 345 269 342 C261 327 256 310 256 296 C256 268 273 248 296 248 C322 248 339 269 339 300 C339 356 281 403 213 403 C115 403 32 307 32 194 C32 93 99 4 187 -9 L171 -60 C201 -75 210 -88 210 -117 C210 -145 196 -162 172 -162 C156 -162 143 -154 141 -142 L140 -136 C139 -133 139 -130 138 -126 C136 -106 131 -98 120 -98 C112 -98 106 -106 106 -118 C106 -152 140 -178 187 -178 C239 -178 278 -147 278 -106 C278 -74 248 -52 205 -52 L192 -52 L204 -10 Z " />
<glyph glyph-name="egrave" unicode="&#xe8;" horiz-adv-x="382" d="M169 616 L94 616 C88 616 85 614 85 608 C85 605 86 602 90 599 L257 463 L266 473 L169 616 Z M359 229 C356 271 350 295 335 322 C306 373 257 403 201 403 C111 403 32 307 32 197 C32 87 114 -10 206 -10 C278 -10 338 48 352 132 L331 132 C314 57 272 13 217 13 C185 13 160 30 147 59 C138 79 136 106 136 186 L136 229 L359 229 Z M136 249 C137 323 137 323 146 344 C155 366 178 380 205 380 C232 380 251 366 259 341 C264 323 265 318 266 249 L136 249 Z " />
<glyph glyph-name="eacute" unicode="&#xe9;" horiz-adv-x="382" d="M282 616 L185 473 L194 463 L361 599 C364 602 366 605 366 608 C366 614 363 616 357 616 L282 616 Z M359 229 C356 271 350 295 335 322 C306 373 257 403 201 403 C111 403 32 307 32 197 C32 87 114 -10 206 -10 C278 -10 338 48 352 132 L331 132 C314 57 272 13 217 13 C185 13 160 30 147 59 C138 79 136 106 136 186 L136 229 L359 229 Z M136 249 C137 323 137 323 146 344 C155 366 178 380 205 380 C232 380 251 366 259 341 C264 323 265 318 266 249 L136 249 Z " />
<glyph glyph-name="ecircumflex" unicode="&#xea;" horiz-adv-x="382" d="M206 536 L341 463 L349 473 L206 620 L62 474 L70 464 L206 536 Z M359 229 C356 271 350 295 335 322 C306 373 257 403 201 403 C111 403 32 307 32 197 C32 87 114 -10 206 -10 C278 -10 338 48 352 132 L331 132 C314 57 272 13 217 13 C185 13 160 30 147 59 C138 79 136 106 136 186 L136 229 L359 229 Z M136 249 C137 323 137 323 146 344 C155 366 178 380 205 380 C232 380 251 366 259 341 C264 323 265 318 266 249 L136 249 Z " />
<glyph glyph-name="edieresis" unicode="&#xeb;" horiz-adv-x="382" d="M127 591 C98 591 74 568 74 541 C74 512 96 490 125 490 C154 490 177 512 177 540 C177 568 154 591 127 591 L127 591 Z M290 591 C261 591 239 569 239 541 C239 512 261 490 291 490 C321 490 342 510 342 539 C342 568 319 591 290 591 L290 591 Z M359 229 C356 271 350 295 335 322 C306 373 257 403 201 403 C111 403 32 307 32 197 C32 87 114 -10 206 -10 C278 -10 338 48 352 132 L331 132 C314 57 272 13 217 13 C185 13 160 30 147 59 C138 79 136 106 136 186 L136 229 L359 229 Z M136 249 C137 323 137 323 146 344 C155 366 178 380 205 380 C232 380 251 366 259 341 C264 323 265 318 266 249 L136 249 Z " />
<glyph glyph-name="igrave" unicode="&#xec;" horiz-adv-x="243" d="M78 20 L27 20 L27 0 L228 0 L228 20 L168 20 L168 393 L27 393 L27 373 L78 373 L78 20 Z M91 616 L16 616 C10 616 7 614 7 608 C7 605 9 602 12 599 L178 463 L188 473 L91 616 Z " />
<glyph glyph-name="iacute" unicode="&#xed;" horiz-adv-x="243" d="M78 20 L27 20 L27 0 L228 0 L228 20 L168 20 L168 393 L27 393 L27 373 L78 373 L78 20 Z M184 616 L87 473 L96 463 L263 599 C266 602 268 605 268 608 C268 614 265 616 259 616 L184 616 Z " />
<glyph glyph-name="icircumflex" unicode="&#xee;" horiz-adv-x="243" d="M78 20 L27 20 L27 0 L228 0 L228 20 L168 20 L168 393 L27 393 L27 373 L78 373 L78 20 Z M121 536 L257 463 L265 473 L121 620 L-22 474 L-14 464 L121 536 Z " />
<glyph glyph-name="idieresis" unicode="&#xef;" horiz-adv-x="243" d="M78 20 L27 20 L27 0 L228 0 L228 20 L168 20 L168 393 L27 393 L27 373 L78 373 L78 20 Z M55 591 C26 591 2 568 2 541 C2 512 24 490 53 490 C82 490 105 512 105 540 C105 568 82 591 55 591 L55 591 Z M189 591 C160 591 138 569 138 541 C138 512 160 490 190 490 C220 490 241 510 241 539 C241 568 218 591 189 591 L189 591 Z " />
<glyph glyph-name="eth" unicode="&#xf0;" horiz-adv-x="427" d="M135 541 L145 524 L214 578 C252 515 270 465 286 388 C255 399 239 403 214 403 C113 403 32 311 32 197 C32 83 114 -10 215 -10 C319 -10 396 82 396 207 C396 332 345 455 236 594 L306 649 L295 665 L224 610 C198 641 170 669 140 695 L130 682 C159 652 170 639 203 595 L135 541 Z M214 380 C244 380 264 369 277 344 C288 323 289 311 289 195 C289 91 288 75 280 56 C269 27 247 13 214 13 C184 13 164 24 151 49 C140 70 139 82 139 197 C139 302 140 318 148 337 C159 366 181 380 214 380 L214 380 Z " />
<glyph glyph-name="ntilde" unicode="&#xf1;" horiz-adv-x="473" d="M381 580 C361 552 355 548 332 548 C318 548 301 551 286 556 L242 571 C216 580 205 582 187 582 C142 582 121 564 95 506 L108 498 C122 523 132 530 156 530 C172 530 189 527 209 520 L251 507 C271 500 292 496 305 496 C341 496 366 518 394 572 L381 580 Z M87 20 L27 20 L27 0 L222 0 L222 20 L177 20 L177 139 C177 263 181 304 197 333 C209 356 234 373 255 373 C271 373 284 364 294 348 C305 328 308 293 308 174 L308 20 L263 20 L263 0 L458 0 L458 20 L398 20 L398 242 C398 316 394 339 374 364 C356 387 321 403 285 403 C240 403 206 384 177 341 L177 393 L27 393 L27 373 L87 373 L87 20 Z " />
<glyph glyph-name="ograve" unicode="&#xf2;" horiz-adv-x="427" d="M188 616 L113 616 C107 616 104 614 104 608 C104 605 106 602 109 599 L276 463 L285 473 L188 616 Z M214 403 C113 403 32 310 32 197 C32 82 113 -10 214 -10 C314 -10 396 82 396 194 C396 311 316 403 214 403 L214 403 Z M214 380 C244 380 264 369 277 344 C288 323 289 311 289 195 C289 91 288 75 280 56 C269 27 247 13 214 13 C184 13 164 24 151 49 C140 70 139 82 139 197 C139 302 140 318 148 337 C159 366 181 380 214 380 L214 380 Z " />
<glyph glyph-name="oacute" unicode="&#xf3;" horiz-adv-x="427" d="M287 616 L190 473 L199 463 L366 599 C370 602 371 605 371 608 C371 614 368 616 362 616 L287 616 Z M214 403 C113 403 32 310 32 197 C32 82 113 -10 214 -10 C314 -10 396 82 396 194 C396 311 316 403 214 403 L214 403 Z M214 380 C244 380 264 369 277 344 C288 323 289 311 289 195 C289 91 288 75 280 56 C269 27 247 13 214 13 C184 13 164 24 151 49 C140 70 139 82 139 197 C139 302 140 318 148 337 C159 366 181 380 214 380 L214 380 Z " />
<glyph glyph-name="ocircumflex" unicode="&#xf4;" horiz-adv-x="427" d="M223 536 L358 463 L366 473 L223 620 L79 474 L87 464 L223 536 Z M214 403 C113 403 32 310 32 197 C32 82 113 -10 214 -10 C314 -10 396 82 396 194 C396 311 316 403 214 403 L214 403 Z M214 380 C244 380 264 369 277 344 C288 323 289 311 289 195 C289 91 288 75 280 56 C269 27 247 13 214 13 C184 13 164 24 151 49 C140 70 139 82 139 197 C139 302 140 318 148 337 C159 366 181 380 214 380 L214 380 Z " />
<glyph glyph-name="otilde" unicode="&#xf5;" horiz-adv-x="427" d="M361 580 C341 552 335 548 312 548 C298 548 281 551 266 556 L222 571 C196 580 184 582 167 582 C122 582 100 564 75 506 L87 498 C102 523 112 530 136 530 C152 530 169 527 188 520 L231 507 C251 500 272 496 285 496 C321 496 346 518 374 572 L361 580 Z M214 403 C113 403 32 310 32 197 C32 82 113 -10 214 -10 C314 -10 396 82 396 194 C396 311 316 403 214 403 L214 403 Z M214 380 C244 380 264 369 277 344 C288 323 289 311 289 195 C289 91 288 75 280 56 C269 27 247 13 214 13 C184 13 164 24 151 49 C140 70 139 82 139 197 C139 302 140 318 148 337 C159 366 181 380 214 380 L214 380 Z " />
<glyph glyph-name="odieresis" unicode="&#xf6;" horiz-adv-x="427" d="M141 591 C112 591 88 568 88 541 C88 512 110 490 139 490 C168 490 191 512 191 540 C191 568 168 591 141 591 L141 591 Z M305 591 C276 591 254 569 254 541 C254 512 276 490 306 490 C336 490 357 510 357 539 C357 568 334 591 305 591 L305 591 Z M214 403 C113 403 32 310 32 197 C32 82 113 -10 214 -10 C314 -10 396 82 396 194 C396 311 316 403 214 403 L214 403 Z M214 380 C244 380 264 369 277 344 C288 323 289 311 289 195 C289 91 288 75 280 56 C269 27 247 13 214 13 C184 13 164 24 151 49 C140 70 139 82 139 197 C139 302 140 318 148 337 C159 366 181 380 214 380 L214 380 Z " />
<glyph glyph-name="divide" unicode="&#xf7;" horiz-adv-x="450" d="M42 306 L408 306 L408 341 L42 341 L42 306 Z M226 537 C196 537 171 511 171 478 C171 446 194 420 224 420 C254 420 278 446 278 478 C278 510 254 537 226 537 L226 537 Z M227 228 C197 228 172 202 172 169 C172 137 195 111 225 111 C255 111 279 137 279 169 C279 201 255 228 227 228 L227 228 Z " />
<glyph glyph-name="oslash" unicode="&#xf8;" horiz-adv-x="427" d="M368 395 L354 406 L322 363 C290 390 255 403 214 403 C113 403 32 311 32 197 C32 138 52 88 91 44 L60 1 L72 -12 L104 32 C136 4 173 -10 214 -10 C315 -10 396 82 396 196 C396 256 376 307 335 351 L368 395 Z M289 286 L289 272 L289 249 L289 204 C289 94 288 75 280 56 C268 27 247 13 214 13 C171 13 147 36 141 83 L289 286 Z M139 110 L139 121 L139 198 C139 298 140 319 148 337 C160 366 181 380 214 380 C256 380 280 358 287 313 L139 110 Z " />
<glyph glyph-name="ugrave" unicode="&#xf9;" horiz-adv-x="477" d="M205 616 L130 616 C124 616 121 614 121 608 C121 605 122 603 126 599 L293 463 L302 473 L205 616 Z M395 393 L254 393 L254 373 L305 373 L305 233 C305 124 301 91 284 60 C269 31 241 13 210 13 C192 13 176 19 168 30 C158 44 156 62 156 160 L156 393 L15 393 L15 373 L66 373 L66 160 C66 76 71 52 94 26 C114 3 148 -10 188 -10 C242 -10 280 11 305 55 L305 0 L455 0 L455 20 L395 20 L395 393 Z " />
<glyph glyph-name="uacute" unicode="&#xfa;" horiz-adv-x="477" d="M301 616 L204 473 L213 463 L380 599 C383 602 385 605 385 608 C385 614 382 616 376 616 L301 616 Z M395 393 L254 393 L254 373 L305 373 L305 233 C305 124 301 91 284 60 C269 31 241 13 210 13 C192 13 176 19 168 30 C158 44 156 62 156 160 L156 393 L15 393 L15 373 L66 373 L66 160 C66 76 71 52 94 26 C114 3 148 -10 188 -10 C242 -10 280 11 305 55 L305 0 L455 0 L455 20 L395 20 L395 393 Z " />
<glyph glyph-name="ucircumflex" unicode="&#xfb;" horiz-adv-x="477" d="M237 536 L373 463 L381 473 L237 620 L94 474 L102 464 L237 536 Z M395 393 L254 393 L254 373 L305 373 L305 233 C305 124 301 91 284 60 C269 31 241 13 210 13 C192 13 176 19 168 30 C158 44 156 62 156 160 L156 393 L15 393 L15 373 L66 373 L66 160 C66 76 71 52 94 26 C114 3 148 -10 188 -10 C242 -10 280 11 305 55 L305 0 L455 0 L455 20 L395 20 L395 393 Z " />
<glyph glyph-name="udieresis" unicode="&#xfc;" horiz-adv-x="477" d="M157 591 C128 591 104 568 104 541 C104 512 126 490 155 490 C184 490 207 512 207 540 C207 568 184 591 157 591 L157 591 Z M321 591 C292 591 270 569 270 541 C270 512 292 490 322 490 C352 490 373 510 373 539 C373 568 350 591 321 591 L321 591 Z M395 393 L254 393 L254 373 L305 373 L305 233 C305 124 301 91 284 60 C269 31 241 13 210 13 C192 13 176 19 168 30 C158 44 156 62 156 160 L156 393 L15 393 L15 373 L66 373 L66 160 C66 76 71 52 94 26 C114 3 148 -10 188 -10 C242 -10 280 11 305 55 L305 0 L455 0 L455 20 L395 20 L395 393 Z " />
<glyph glyph-name="yacute" unicode="&#xfd;" horiz-adv-x="369" d="M273 616 L176 473 L186 463 L352 599 C355 602 357 605 357 608 C357 614 354 616 348 616 L273 616 Z M335 373 L370 373 L370 393 L240 393 L240 373 L310 373 L226 117 L126 373 L190 373 L190 393 L-2 393 L-2 373 L36 373 L190 0 L139 -148 C123 -196 120 -201 110 -201 C105 -201 103 -199 97 -190 C88 -176 76 -169 59 -169 C34 -169 16 -189 16 -216 C16 -244 38 -265 67 -265 C108 -265 133 -235 159 -159 L335 373 Z " />
<glyph glyph-name="thorn" unicode="&#xfe;" horiz-adv-x="445" d="M75 -247 L15 -247 L15 -267 L225 -267 L225 -247 L165 -247 L165 78 C189 18 221 -10 267 -10 C345 -10 413 89 413 204 C413 314 349 403 271 403 C224 403 188 375 165 320 L165 667 L15 667 L15 647 L75 647 L75 -247 Z M252 380 C270 380 284 371 294 352 C303 333 306 301 306 206 C306 127 303 80 296 58 C287 27 273 13 252 13 C200 13 167 86 167 201 C167 307 201 380 252 380 L252 380 Z " />
<glyph glyph-name="ydieresis" unicode="&#xff;" horiz-adv-x="369" d="M121 591 C92 591 68 568 68 541 C68 512 90 490 119 490 C148 490 171 512 171 540 C171 568 148 591 121 591 L121 591 Z M285 591 C256 591 234 569 234 541 C234 512 256 490 286 490 C316 490 337 510 337 539 C337 568 314 591 285 591 L285 591 Z M335 373 L370 373 L370 393 L240 393 L240 373 L310 373 L226 117 L126 373 L190 373 L190 393 L-2 393 L-2 373 L36 373 L190 0 L139 -148 C123 -196 120 -201 110 -201 C105 -201 103 -199 97 -190 C88 -176 76 -169 59 -169 C34 -169 16 -189 16 -216 C16 -244 38 -265 67 -265 C108 -265 133 -235 159 -159 L335 373 Z " />
<glyph glyph-name="Amacron" unicode="&#x100;" horiz-adv-x="528" d="M309 215 L368 20 L290 20 L290 0 L534 0 L534 20 L470 20 L276 667 L250 667 L46 20 L3 20 L3 0 L149 0 L149 20 L71 20 L129 215 L309 215 Z M304 235 L135 235 L220 512 L304 235 Z M110 785 L110 750 L410 750 L410 785 L110 785 Z " />
<glyph glyph-name="amacron" unicode="&#x101;" horiz-adv-x="398" d="M372 35 C357 20 355 19 346 19 C328 19 328 19 328 135 L328 245 C328 332 327 338 307 361 C285 387 245 403 200 403 C124 403 57 356 57 303 C57 277 73 259 94 259 C115 259 130 277 130 304 C130 313 129 320 124 333 C123 338 122 340 122 343 C122 364 154 386 183 386 C202 386 219 378 228 365 C237 353 238 343 238 286 L238 217 C179 216 144 209 112 195 C61 171 33 132 33 83 C33 28 70 -10 125 -10 C172 -10 212 18 238 68 C244 17 271 -10 317 -10 C342 -10 361 -2 382 20 L372 35 Z M238 180 C238 129 234 99 226 79 C213 50 193 34 170 34 C140 34 122 59 122 101 C122 133 134 159 157 177 C176 192 196 198 238 200 L238 180 Z M73 544 L73 510 L339 510 L339 544 L73 544 Z " />
<glyph glyph-name="Abreve" unicode="&#x102;" horiz-adv-x="528" d="M309 215 L368 20 L290 20 L290 0 L534 0 L534 20 L470 20 L276 667 L250 667 L46 20 L3 20 L3 0 L149 0 L149 20 L71 20 L129 215 L309 215 Z M304 235 L135 235 L220 512 L304 235 Z M122 843 C133 765 183 723 268 723 C353 723 403 764 415 843 L401 843 C389 819 379 808 360 798 C341 787 301 779 268 779 C240 779 201 786 182 795 C160 805 148 817 136 843 L122 843 Z " />
<glyph glyph-name="abreve" unicode="&#x103;" horiz-adv-x="398" d="M372 35 C357 20 355 19 346 19 C328 19 328 19 328 135 L328 245 C328 332 327 338 307 361 C285 387 245 403 200 403 C124 403 57 356 57 303 C57 277 73 259 94 259 C115 259 130 277 130 304 C130 313 129 320 124 333 C123 338 122 340 122 343 C122 364 154 386 183 386 C202 386 219 378 228 365 C237 353 238 343 238 286 L238 217 C179 216 144 209 112 195 C61 171 33 132 33 83 C33 28 70 -10 125 -10 C172 -10 212 18 238 68 C244 17 271 -10 317 -10 C342 -10 361 -2 382 20 L372 35 Z M238 180 C238 129 234 99 226 79 C213 50 193 34 170 34 C140 34 122 59 122 101 C122 133 134 159 157 177 C176 192 196 198 238 200 L238 180 Z M327 613 C308 559 264 528 206 528 C148 528 105 559 89 613 L76 613 C80 526 133 467 207 467 C284 467 336 525 340 613 L327 613 Z " />
<glyph glyph-name="Aogonek" unicode="&#x104;" horiz-adv-x="528" d="M534 0 L534 20 L470 20 L276 667 L250 667 L46 20 L3 20 L3 0 L149 0 L149 20 L71 20 L129 215 L309 215 L368 20 L290 20 L290 0 L451 0 C391 -27 366 -57 366 -100 C366 -140 394 -165 440 -165 C466 -165 489 -158 515 -144 L515 -127 C498 -134 489 -136 476 -136 C445 -136 428 -118 428 -86 C428 -55 444 -29 480 0 L534 0 Z M304 235 L135 235 L220 512 L304 235 Z " />
<glyph glyph-name="aogonek" unicode="&#x105;" horiz-adv-x="398" d="M372 35 C357 20 355 19 346 19 C328 19 328 19 328 135 L328 245 C328 332 327 338 307 361 C285 387 245 403 200 403 C124 403 57 356 57 303 C57 277 73 259 94 259 C115 259 130 277 130 304 C130 313 129 320 124 333 C123 338 122 340 122 343 C122 364 154 386 183 386 C202 386 219 378 228 365 C237 353 238 343 238 286 L238 217 C179 216 144 209 112 195 C61 171 33 132 33 83 C33 28 70 -10 125 -10 C172 -10 212 18 238 68 C242 23 265 -3 306 -9 C265 -31 242 -62 242 -98 C242 -137 270 -162 314 -162 C340 -162 363 -156 388 -141 L388 -124 C373 -131 362 -133 350 -133 C319 -133 302 -115 302 -84 C302 -55 317 -29 349 -4 C362 1 368 6 382 20 L372 35 Z M238 180 C238 129 234 99 226 79 C213 50 193 34 170 34 C140 34 122 59 122 101 C122 133 134 159 157 177 C176 192 196 198 238 200 L238 180 Z " />
<glyph glyph-name="Cacute" unicode="&#x106;" horiz-adv-x="526" d="M487 189 L474 189 C438 71 383 13 305 13 C257 13 214 36 191 75 C171 110 164 169 164 305 C164 452 172 538 191 577 C214 627 257 654 313 654 C393 654 451 595 474 491 L487 491 L487 667 L474 667 L443 620 C399 657 351 677 303 677 C252 677 196 653 151 613 C79 549 38 446 38 332 C38 144 154 -10 295 -10 C346 -10 391 8 443 48 L474 0 L487 0 L487 189 Z M387 837 L249 732 L256 720 L488 812 C499 816 503 820 503 826 C503 834 499 837 487 837 L387 837 Z " />
<glyph glyph-name="cacute" unicode="&#x107;" horiz-adv-x="367" d="M329 127 C309 53 269 13 216 13 C191 13 169 24 156 45 C142 65 138 95 138 167 C138 255 144 314 154 339 C166 366 187 380 216 380 C243 380 271 364 271 348 C271 346 271 345 269 342 C261 327 256 310 256 296 C256 268 273 248 296 248 C322 248 339 269 339 300 C339 356 281 403 213 403 C115 403 32 307 32 194 C32 85 112 -10 205 -10 C274 -10 321 34 352 127 L329 127 Z M265 616 L168 473 L178 463 L344 599 C347 602 349 605 349 608 C349 614 346 616 340 616 L265 616 Z " />
<glyph glyph-name="Ccircumflex" unicode="&#x108;" horiz-adv-x="526" d="M487 189 L474 189 C438 71 383 13 305 13 C257 13 214 36 191 75 C171 110 164 169 164 305 C164 452 172 538 191 577 C214 627 257 654 313 654 C393 654 451 595 474 491 L487 491 L487 667 L474 667 L443 620 C399 657 351 677 303 677 C252 677 196 653 151 613 C79 549 38 446 38 332 C38 144 154 -10 295 -10 C346 -10 391 8 443 48 L474 0 L487 0 L487 189 Z M305 843 L138 732 L144 720 L305 769 L466 720 L471 732 L305 843 Z " />
<glyph glyph-name="Cdotaccent" unicode="&#x10a;" horiz-adv-x="526" d="M487 189 L474 189 C438 71 383 13 305 13 C257 13 214 36 191 75 C171 110 164 169 164 305 C164 452 172 538 191 577 C214 627 257 654 313 654 C393 654 451 595 474 491 L487 491 L487 667 L474 667 L443 620 C399 657 351 677 303 677 C252 677 196 653 151 613 C79 549 38 446 38 332 C38 144 154 -10 295 -10 C346 -10 391 8 443 48 L474 0 L487 0 L487 189 Z M307 832 C278 832 254 808 254 779 C254 750 277 727 307 727 C337 727 360 750 360 780 C360 808 336 832 307 832 L307 832 Z " />
<glyph glyph-name="cdotaccent" unicode="&#x10b;" horiz-adv-x="367" d="M329 127 C309 53 269 13 216 13 C191 13 169 24 156 45 C142 65 138 95 138 167 C138 255 144 314 154 339 C166 366 187 380 216 380 C243 380 271 364 271 348 C271 346 271 345 269 342 C261 327 256 310 256 296 C256 268 273 248 296 248 C322 248 339 269 339 300 C339 356 281 403 213 403 C115 403 32 307 32 194 C32 85 112 -10 205 -10 C274 -10 321 34 352 127 L329 127 Z M220 592 C191 592 168 570 168 542 C168 512 190 490 220 490 C251 490 272 510 272 540 C272 569 249 592 220 592 L220 592 Z " />
<glyph glyph-name="Ccaron" unicode="&#x10c;" horiz-adv-x="526" d="M487 189 L474 189 C438 71 383 13 305 13 C257 13 214 36 191 75 C171 110 164 169 164 305 C164 452 172 538 191 577 C214 627 257 654 313 654 C393 654 451 595 474 491 L487 491 L487 667 L474 667 L443 620 C399 657 351 677 303 677 C252 677 196 653 151 613 C79 549 38 446 38 332 C38 144 154 -10 295 -10 C346 -10 391 8 443 48 L474 0 L487 0 L487 189 Z M307 720 L474 832 L468 843 L307 795 L146 843 L140 832 L307 720 Z " />
<glyph glyph-name="ccaron" unicode="&#x10d;" horiz-adv-x="367" d="M329 127 C309 53 269 13 216 13 C191 13 169 24 156 45 C142 65 138 95 138 167 C138 255 144 314 154 339 C166 366 187 380 216 380 C243 380 271 364 271 348 C271 346 271 345 269 342 C261 327 256 310 256 296 C256 268 273 248 296 248 C322 248 339 269 339 300 C339 356 281 403 213 403 C115 403 32 307 32 194 C32 85 112 -10 205 -10 C274 -10 321 34 352 127 L329 127 Z M217 547 L82 620 L74 610 L217 463 L361 610 L353 620 L217 547 Z " />
<glyph glyph-name="Dcaron" unicode="&#x10e;" horiz-adv-x="608" d="M102 20 L29 20 L29 0 L251 0 C362 0 402 10 451 51 C528 116 571 218 571 338 C571 445 536 535 469 601 C415 654 371 667 242 667 L29 667 L29 647 L102 647 L102 20 Z M209 20 L209 647 L244 647 C289 647 306 646 320 644 C358 637 387 620 405 594 C435 551 444 494 444 348 C444 240 440 174 430 129 C420 85 392 50 356 34 C328 22 316 20 249 20 L209 20 Z M285 720 L452 832 L446 843 L285 795 L124 843 L119 832 L285 720 Z " />
<glyph glyph-name="dcaron" unicode="&#x10f;" horiz-adv-x="522" d="M369 667 L228 667 L228 647 L279 647 L279 322 C251 378 219 403 175 403 C97 403 32 310 32 198 C32 84 98 -10 178 -10 C223 -10 260 21 279 76 L279 0 L429 0 L429 20 L369 20 L369 667 Z M194 380 C242 380 277 303 277 197 C277 91 242 13 194 13 C175 13 158 28 148 52 C141 72 139 94 139 182 C139 290 142 329 152 348 C161 368 177 380 194 380 L194 380 Z M448 457 C496 495 520 539 520 584 C520 633 493 667 454 667 C423 667 400 643 400 612 C400 586 417 566 440 566 C462 566 478 584 478 609 C478 610 478 614 477 618 C488 608 494 594 494 575 C494 540 475 509 433 475 L448 457 Z " />
<glyph glyph-name="Dcroat" unicode="&#x110;" horiz-adv-x="608" d="M102 351 L29 351 L29 331 L102 331 L102 20 L29 20 L29 0 L251 0 C362 0 402 10 451 51 C528 116 571 219 571 338 C571 445 536 535 469 601 C415 654 371 667 242 667 L29 667 L29 647 L102 647 L102 351 Z M209 351 L209 647 L244 647 C289 647 306 646 320 644 C358 637 387 620 405 594 C435 551 444 494 444 348 C444 240 440 174 430 129 C420 86 392 50 356 34 C328 22 316 20 249 20 L209 20 L209 331 L323 331 L323 351 L209 351 Z " />
<glyph glyph-name="dcroat" unicode="&#x111;" horiz-adv-x="444" d="M369 558 L369 667 L228 667 L228 647 L279 647 L279 558 L139 558 L139 538 L279 538 L279 322 C251 378 219 403 175 403 C97 403 32 310 32 198 C32 84 98 -10 178 -10 C223 -10 260 21 279 76 L279 0 L429 0 L429 20 L369 20 L369 538 L429 538 L429 558 L369 558 Z M194 379 C242 379 277 302 277 197 C277 91 242 13 194 13 C175 13 158 28 148 52 C141 72 139 94 139 182 C139 290 142 328 152 348 C161 367 177 379 194 379 L194 379 Z " />
<glyph glyph-name="Emacron" unicode="&#x112;" horiz-adv-x="526" d="M104 20 L29 20 L29 0 L476 0 L493 208 L481 208 C443 49 411 13 317 20 L211 20 L211 328 L238 328 C286 328 308 317 320 288 C328 268 330 255 333 196 L346 196 L346 471 L333 471 C332 368 314 346 227 348 L211 347 L211 647 L275 647 C392 652 429 619 456 484 L468 484 L462 667 L29 667 L29 647 L104 647 L104 20 Z M122 785 L122 750 L422 750 L422 785 L122 785 Z " />
<glyph glyph-name="emacron" unicode="&#x113;" horiz-adv-x="382" d="M359 229 C356 271 350 295 335 322 C306 373 257 403 201 403 C111 403 32 307 32 197 C32 87 114 -10 206 -10 C278 -10 338 48 352 132 L331 132 C314 57 272 13 217 13 C185 13 160 30 147 59 C138 79 136 106 136 186 L136 229 L359 229 Z M136 249 C137 323 137 323 146 344 C155 366 178 380 205 380 C232 380 251 366 259 341 C264 323 265 318 266 249 L136 249 Z M69 544 L69 510 L335 510 L335 544 L69 544 Z " />
<glyph glyph-name="Ebreve" unicode="&#x114;" horiz-adv-x="526" d="M104 20 L29 20 L29 0 L476 0 L493 208 L481 208 C443 49 411 13 317 20 L211 20 L211 328 L238 328 C286 328 308 317 320 288 C328 268 330 255 333 196 L346 196 L346 471 L333 471 C332 368 314 346 227 348 L211 347 L211 647 L275 647 C392 652 429 619 456 484 L468 484 L462 667 L29 667 L29 647 L104 647 L104 20 Z M125 843 C136 765 187 723 272 723 C356 723 406 764 418 843 L404 843 C392 819 382 808 364 798 C344 787 304 779 272 779 C243 779 204 786 186 795 C163 805 152 817 139 843 L125 843 Z " />
<glyph glyph-name="ebreve" unicode="&#x115;" horiz-adv-x="382" d="M359 229 C356 271 350 295 335 322 C306 373 257 403 201 403 C111 403 32 307 32 197 C32 87 114 -10 206 -10 C278 -10 338 48 352 132 L331 132 C314 57 272 13 217 13 C185 13 160 30 147 59 C138 79 136 106 136 186 L136 229 L359 229 Z M136 249 C137 323 137 323 146 344 C155 366 178 380 205 380 C232 380 251 366 259 341 C264 323 265 318 266 249 L136 249 Z M329 613 C310 559 267 528 209 528 C150 528 107 559 91 613 L79 613 C83 526 135 467 210 467 C286 467 338 525 342 613 L329 613 Z " />
<glyph glyph-name="Edotaccent" unicode="&#x116;" horiz-adv-x="526" d="M104 20 L29 20 L29 0 L476 0 L493 208 L481 208 C443 49 411 13 317 20 L211 20 L211 328 L238 328 C286 328 308 317 320 288 C328 268 330 255 333 196 L346 196 L346 471 L333 471 C332 368 314 346 227 348 L211 347 L211 647 L275 647 C392 652 429 619 456 484 L468 484 L462 667 L29 667 L29 647 L104 647 L104 20 Z M278 832 C249 832 225 808 225 779 C225 750 248 727 278 727 C308 727 331 750 331 780 C331 808 307 832 278 832 L278 832 Z " />
<glyph glyph-name="edotaccent" unicode="&#x117;" horiz-adv-x="382" d="M359 229 C356 271 350 295 335 322 C306 373 257 403 201 403 C111 403 32 307 32 197 C32 87 114 -10 206 -10 C278 -10 338 48 352 132 L331 132 C314 57 272 13 217 13 C185 13 160 30 147 59 C138 79 136 106 136 186 L136 229 L359 229 Z M136 249 C137 323 137 323 146 344 C155 366 178 380 205 380 C232 380 251 366 259 341 C264 323 265 318 266 249 L136 249 Z M206 592 C177 592 154 570 154 542 C154 512 176 490 206 490 C237 490 258 510 258 540 C258 569 235 592 206 592 L206 592 Z " />
<glyph glyph-name="Eogonek" unicode="&#x118;" horiz-adv-x="526" d="M476 0 L493 208 L481 208 C443 49 411 13 317 20 L211 20 L211 328 L238 328 C286 328 308 317 320 288 C328 268 330 255 333 196 L346 196 L346 471 L333 471 C332 368 314 346 227 348 L211 347 L211 647 L275 647 C392 652 429 619 456 484 L468 484 L462 667 L29 667 L29 647 L104 647 L104 20 L29 20 L29 0 L406 0 C346 -28 321 -57 321 -100 C321 -140 349 -165 395 -165 C421 -165 444 -158 470 -144 L470 -127 C453 -134 444 -136 431 -136 C400 -136 383 -118 383 -86 C383 -55 399 -29 435 0 L476 0 Z " />
<glyph glyph-name="eogonek" unicode="&#x119;" horiz-adv-x="383" d="M313 -124 C298 -131 287 -133 275 -133 C244 -133 227 -115 227 -85 C227 -54 239 -33 280 9 C327 55 345 85 352 132 L331 132 C314 57 272 13 217 13 C185 13 160 30 147 59 C138 79 136 106 136 186 L136 229 L359 229 C356 271 350 295 335 322 C306 373 257 403 201 403 C111 403 32 307 32 197 C32 87 114 -10 206 -10 C214 -10 220 -9 229 -8 C189 -30 167 -62 167 -98 C167 -137 195 -162 239 -162 C265 -162 287 -156 313 -141 L313 -124 Z M136 249 C137 323 137 323 146 344 C155 366 178 380 205 380 C232 380 251 366 259 341 C264 323 265 318 266 249 L136 249 Z " />
<glyph glyph-name="Ecaron" unicode="&#x11a;" horiz-adv-x="526" d="M104 20 L29 20 L29 0 L476 0 L493 208 L481 208 C443 49 411 13 317 20 L211 20 L211 328 L238 328 C286 328 308 317 320 288 C328 268 330 255 333 196 L346 196 L346 471 L333 471 C332 368 314 346 227 348 L211 347 L211 647 L275 647 C392 652 429 619 456 484 L468 484 L462 667 L29 667 L29 647 L104 647 L104 20 Z M276 720 L442 832 L437 843 L276 795 L115 843 L109 832 L276 720 Z " />
<glyph glyph-name="ecaron" unicode="&#x11b;" horiz-adv-x="382" d="M359 229 C356 271 350 295 335 322 C306 373 257 403 201 403 C111 403 32 307 32 197 C32 87 114 -10 206 -10 C278 -10 338 48 352 132 L331 132 C314 57 272 13 217 13 C185 13 160 30 147 59 C138 79 136 106 136 186 L136 229 L359 229 Z M136 249 C137 323 137 323 146 344 C155 366 178 380 205 380 C232 380 251 366 259 341 C264 323 265 318 266 249 L136 249 Z M210 547 L75 620 L67 610 L210 463 L354 610 L346 620 L210 547 Z " />
<glyph glyph-name="Gcircumflex" unicode="&#x11c;" horiz-adv-x="573" d="M475 667 L463 667 L433 627 C386 661 344 677 301 677 C157 677 38 521 38 333 C38 145 153 -10 293 -10 C366 -10 444 36 480 99 C497 129 505 160 507 213 L564 213 L564 233 L310 233 L310 213 L400 213 C400 153 396 121 389 95 C373 44 335 13 289 13 C242 13 202 44 186 91 C171 133 165 206 165 335 C165 470 175 556 196 594 C217 631 257 654 302 654 C386 654 442 591 466 468 L480 468 L475 667 Z M301 843 L134 732 L140 720 L301 769 L462 720 L468 732 L301 843 Z " />
<glyph glyph-name="gcircumflex" unicode="&#x11d;" horiz-adv-x="395" d="M244 22 L196 21 C135 20 135 20 126 20 C81 20 66 29 66 57 C66 83 85 111 123 139 C147 127 163 123 190 123 C276 123 336 179 336 260 C336 292 327 322 307 350 C319 363 322 366 328 366 C333 366 336 361 338 350 C342 330 352 320 368 320 C387 320 401 337 401 358 C401 385 384 403 359 403 C338 403 320 392 295 362 C269 389 235 403 192 403 C111 403 50 342 50 263 C50 218 67 183 106 149 C52 110 26 69 26 23 C26 -20 47 -51 84 -64 C44 -82 23 -113 23 -152 C23 -218 95 -272 185 -272 C298 -272 375 -195 375 -83 C375 -43 364 -13 342 5 C325 18 310 22 271 22 L244 22 Z M193 383 C214 383 226 377 233 363 C239 351 241 333 241 273 C241 209 239 184 232 169 C225 153 211 144 192 144 C156 144 145 165 145 237 C145 365 151 383 193 383 L193 383 Z M97 -64 C119 -67 128 -67 153 -67 C165 -67 238 -66 258 -65 C283 -64 302 -64 306 -64 C347 -64 362 -75 362 -106 C362 -186 285 -247 185 -247 C112 -247 63 -204 63 -142 C63 -112 73 -89 97 -64 L97 -64 Z M199 536 L335 463 L343 473 L199 620 L56 474 L64 464 L199 536 Z " />
<glyph glyph-name="Gbreve" unicode="&#x11e;" horiz-adv-x="573" d="M475 667 L463 667 L433 627 C386 661 344 677 301 677 C157 677 38 521 38 333 C38 145 153 -10 293 -10 C366 -10 444 36 480 99 C497 129 505 160 507 213 L564 213 L564 233 L310 233 L310 213 L400 213 C400 153 396 121 389 95 C373 44 335 13 289 13 C242 13 202 44 186 91 C171 133 165 206 165 335 C165 470 175 556 196 594 C217 631 257 654 302 654 C386 654 442 591 466 468 L480 468 L475 667 Z M146 843 C157 765 208 723 293 723 C378 723 427 764 439 843 L425 843 C413 819 404 808 385 798 C365 787 325 779 293 779 C264 779 226 786 207 795 C184 805 173 817 160 843 L146 843 Z " />
<glyph glyph-name="gbreve" unicode="&#x11f;" horiz-adv-x="395" d="M244 22 L196 21 C135 20 135 20 126 20 C81 20 66 29 66 57 C66 83 85 111 123 139 C147 127 163 123 190 123 C276 123 336 179 336 260 C336 292 327 322 307 350 C319 363 322 366 328 366 C333 366 336 361 338 350 C342 330 352 320 368 320 C387 320 401 337 401 358 C401 385 384 403 359 403 C338 403 320 392 295 362 C269 389 235 403 192 403 C111 403 50 342 50 263 C50 218 67 183 106 149 C52 110 26 69 26 23 C26 -20 47 -51 84 -64 C44 -82 23 -113 23 -152 C23 -218 95 -272 185 -272 C298 -272 375 -195 375 -83 C375 -43 364 -13 342 5 C325 18 310 22 271 22 L244 22 Z M193 383 C214 383 226 377 233 363 C239 351 241 333 241 273 C241 209 239 184 232 169 C225 153 211 144 192 144 C156 144 145 165 145 237 C145 365 151 383 193 383 L193 383 Z M97 -64 C119 -67 128 -67 153 -67 C165 -67 238 -66 258 -65 C283 -64 302 -64 306 -64 C347 -64 362 -75 362 -106 C362 -186 285 -247 185 -247 C112 -247 63 -204 63 -142 C63 -112 73 -89 97 -64 L97 -64 Z M318 613 C299 559 256 528 198 528 C139 528 97 559 81 613 L68 613 C72 526 124 467 199 467 C275 467 328 525 331 613 L318 613 Z " />
<glyph glyph-name="Gdotaccent" unicode="&#x120;" horiz-adv-x="573" d="M475 667 L463 667 L433 627 C386 661 344 677 301 677 C157 677 38 521 38 333 C38 145 153 -10 293 -10 C366 -10 444 36 480 99 C497 129 505 160 507 213 L564 213 L564 233 L310 233 L310 213 L400 213 C400 153 396 121 389 95 C373 44 335 13 289 13 C242 13 202 44 186 91 C171 133 165 206 165 335 C165 470 175 556 196 594 C217 631 257 654 302 654 C386 654 442 591 466 468 L480 468 L475 667 Z M293 832 C264 832 240 808 240 779 C240 750 263 727 293 727 C323 727 346 750 346 780 C346 808 322 832 293 832 L293 832 Z " />
<glyph glyph-name="gdotaccent" unicode="&#x121;" horiz-adv-x="395" d="M244 22 L196 21 C135 20 135 20 126 20 C81 20 66 29 66 57 C66 83 85 111 123 139 C147 127 163 123 190 123 C276 123 336 179 336 260 C336 292 327 322 307 350 C319 363 322 366 328 366 C333 366 336 361 338 350 C342 330 352 320 368 320 C387 320 401 337 401 358 C401 385 384 403 359 403 C338 403 320 392 295 362 C269 389 235 403 192 403 C111 403 50 342 50 263 C50 218 67 183 106 149 C52 110 26 69 26 23 C26 -20 47 -51 84 -64 C44 -82 23 -113 23 -152 C23 -218 95 -272 185 -272 C298 -272 375 -195 375 -83 C375 -43 364 -13 342 5 C325 18 310 22 271 22 L244 22 Z M193 383 C214 383 226 377 233 363 C239 351 241 333 241 273 C241 209 239 184 232 169 C225 153 211 144 192 144 C156 144 145 165 145 237 C145 365 151 383 193 383 L193 383 Z M97 -64 C119 -67 128 -67 153 -67 C165 -67 238 -66 258 -65 C283 -64 302 -64 306 -64 C347 -64 362 -75 362 -106 C362 -186 285 -247 185 -247 C112 -247 63 -204 63 -142 C63 -112 73 -89 97 -64 L97 -64 Z M202 592 C173 592 150 570 150 542 C150 512 172 490 202 490 C233 490 254 510 254 540 C254 569 231 592 202 592 L202 592 Z " />
<glyph glyph-name="Gcommaaccent" unicode="&#x122;" horiz-adv-x="573" d="M475 667 L463 667 L433 627 C386 661 344 677 301 677 C157 677 38 521 38 333 C38 145 153 -10 293 -10 C366 -10 444 36 480 99 C497 129 505 160 507 213 L564 213 L564 233 L310 233 L310 213 L400 213 C400 153 396 121 389 95 C373 44 335 13 289 13 C242 13 202 44 186 91 C171 133 165 206 165 335 C165 470 175 556 196 594 C217 631 257 654 302 654 C386 654 442 591 466 468 L480 468 L475 667 Z M280 -258 C328 -218 353 -173 353 -126 C353 -76 325 -40 285 -40 C253 -40 229 -65 229 -97 C229 -124 247 -145 271 -145 C293 -145 310 -126 310 -101 C310 -99 310 -96 309 -91 C322 -101 328 -116 328 -136 C328 -172 308 -204 264 -239 L280 -258 Z " />
<glyph glyph-name="gcommaaccent" unicode="&#x123;" horiz-adv-x="395" d="M244 22 L196 21 C135 20 135 20 126 20 C81 20 66 29 66 57 C66 83 85 111 123 139 C147 127 163 123 190 123 C276 123 336 179 336 260 C336 292 327 322 307 350 C319 363 322 366 328 366 C333 366 336 361 338 350 C342 330 352 320 368 320 C387 320 401 337 401 358 C401 385 384 403 359 403 C338 403 320 392 295 362 C269 389 235 403 192 403 C111 403 50 342 50 263 C50 218 67 183 106 149 C52 110 26 69 26 23 C26 -20 47 -51 84 -64 C44 -82 23 -113 23 -152 C23 -218 95 -272 185 -272 C298 -272 375 -195 375 -83 C375 -43 364 -13 342 5 C325 18 310 22 271 22 L244 22 Z M193 383 C214 383 226 377 233 363 C239 351 241 333 241 273 C241 209 239 184 232 169 C225 153 211 144 192 144 C156 144 145 165 145 237 C145 365 151 383 193 383 L193 383 Z M97 -64 C119 -67 128 -67 153 -67 C165 -67 238 -66 258 -65 C283 -64 302 -64 306 -64 C347 -64 362 -75 362 -106 C362 -186 285 -247 185 -247 C112 -247 63 -204 63 -142 C63 -112 73 -89 97 -64 L97 -64 Z M215 659 C168 620 144 577 144 531 C144 482 171 448 210 448 C241 448 264 472 264 503 C264 529 246 549 223 549 C201 549 185 531 185 507 C185 505 185 502 186 498 C175 508 170 522 170 541 C170 576 189 607 230 641 L215 659 Z " />
<glyph glyph-name="Hcircumflex" unicode="&#x124;" horiz-adv-x="640" d="M430 331 L430 20 L366 20 L366 0 L612 0 L612 20 L537 20 L537 647 L612 647 L612 667 L366 667 L366 647 L430 647 L430 351 L211 351 L211 647 L275 647 L275 667 L29 667 L29 647 L104 647 L104 20 L29 20 L29 0 L275 0 L275 20 L211 20 L211 331 L430 331 Z M321 843 L154 732 L160 720 L321 769 L481 720 L487 732 L321 843 Z " />
<glyph glyph-name="Hbar" unicode="&#x126;" horiz-adv-x="640" d="M104 478 L104 20 L29 20 L29 0 L275 0 L275 20 L211 20 L211 331 L430 331 L430 20 L366 20 L366 0 L612 0 L612 20 L537 20 L537 478 L601 478 L601 498 L537 498 L537 647 L612 647 L612 667 L366 667 L366 647 L430 647 L430 498 L211 498 L211 647 L275 647 L275 667 L29 667 L29 647 L104 647 L104 498 L38 498 L38 478 L104 478 Z M211 478 L430 478 L430 351 L211 351 L211 478 Z " />
<glyph glyph-name="hbar" unicode="&#x127;" horiz-adv-x="475" d="M75 538 L75 20 L15 20 L15 0 L210 0 L210 20 L165 20 L165 165 C165 239 168 273 179 303 C194 347 228 374 266 374 C286 374 302 366 310 352 C318 338 319 327 319 258 L319 20 L265 20 L265 0 L460 0 L460 20 L409 20 L409 258 C409 328 406 345 390 366 C372 390 339 403 298 403 C238 403 196 378 165 322 L165 538 L324 538 L324 558 L165 558 L165 667 L15 667 L15 647 L75 647 L75 558 L16 558 L16 538 L75 538 Z " />
<glyph glyph-name="Imacron" unicode="&#x12a;" horiz-adv-x="314" d="M104 20 L29 20 L29 0 L286 0 L286 20 L211 20 L211 647 L286 647 L286 667 L29 667 L29 647 L104 647 L104 20 Z M17 785 L17 750 L297 750 L297 785 L17 785 Z " />
<glyph glyph-name="imacron" unicode="&#x12b;" horiz-adv-x="243" d="M78 20 L27 20 L27 0 L228 0 L228 20 L168 20 L168 393 L27 393 L27 373 L78 373 L78 20 Z M-6 544 L-6 510 L224 510 L224 544 L-6 544 Z " />
<glyph glyph-name="ibreve" unicode="&#x12d;" horiz-adv-x="243" d="M78 20 L27 20 L27 0 L228 0 L228 20 L168 20 L168 393 L27 393 L27 373 L78 373 L78 20 Z M247 613 C228 559 184 528 126 528 C68 528 25 559 9 613 L-4 613 C0 526 53 467 127 467 C204 467 256 525 259 613 L247 613 Z " />
<glyph glyph-name="Iogonek" unicode="&#x12e;" horiz-adv-x="314" d="M286 0 L286 20 L211 20 L211 647 L286 647 L286 667 L29 667 L29 647 L104 647 L104 20 L29 20 L29 0 L195 0 C135 -28 110 -57 110 -100 C110 -140 138 -165 184 -165 C210 -165 233 -158 259 -144 L259 -127 C242 -134 233 -136 220 -136 C190 -136 172 -118 172 -86 C172 -55 188 -29 224 0 L286 0 Z " />
<glyph glyph-name="iogonek" unicode="&#x12f;" horiz-adv-x="243" d="M228 0 L228 20 L168 20 L168 393 L27 393 L27 373 L78 373 L78 20 L27 20 L27 0 L155 0 C97 -27 72 -56 72 -98 C72 -137 100 -162 144 -162 C170 -162 192 -156 218 -141 L218 -124 C202 -131 192 -133 179 -133 C149 -133 132 -115 132 -84 C132 -54 147 -29 183 0 L228 0 Z M124 654 C93 654 69 630 69 598 C69 565 93 540 124 540 C155 540 180 565 180 597 C180 629 155 654 124 654 L124 654 Z " />
<glyph glyph-name="Idotaccent" unicode="&#x130;" horiz-adv-x="314" d="M104 20 L29 20 L29 0 L286 0 L286 20 L211 20 L211 647 L286 647 L286 667 L29 667 L29 647 L104 647 L104 20 Z M157 832 C128 832 104 808 104 779 C104 750 127 727 157 727 C187 727 210 750 210 780 C210 808 186 832 157 832 L157 832 Z " />
<glyph glyph-name="dotlessi" unicode="&#x131;" horiz-adv-x="243" d="M78 20 L27 20 L27 0 L228 0 L228 20 L168 20 L168 393 L27 393 L27 373 L78 373 L78 20 Z " />
<glyph glyph-name="Kcommaaccent" unicode="&#x136;" horiz-adv-x="588" d="M104 20 L29 20 L29 0 L275 0 L275 20 L211 20 L211 647 L275 647 L275 667 L29 667 L29 647 L104 647 L104 20 Z M286 407 L478 647 L554 647 L554 667 L362 667 L362 647 L450 647 L209 348 L429 20 L351 20 L351 0 L588 0 L588 20 L545 20 L286 407 Z M291 -258 C340 -217 365 -173 365 -126 C365 -76 337 -40 297 -40 C265 -40 241 -65 241 -97 C241 -124 259 -145 283 -145 C305 -145 322 -126 322 -101 C322 -99 322 -96 321 -91 C334 -102 340 -116 340 -136 C340 -172 320 -204 276 -239 L291 -258 Z " />
<glyph glyph-name="kcommaaccent" unicode="&#x137;" horiz-adv-x="440" d="M156 667 L15 667 L15 647 L66 647 L66 20 L15 20 L15 0 L216 0 L216 20 L156 20 L156 667 Z M233 252 L346 373 L409 373 L409 393 L227 393 L227 373 L315 373 L165 210 L294 20 L249 20 L249 0 L442 0 L442 20 L401 20 L233 252 Z M211 -250 C258 -212 282 -168 282 -123 C282 -74 255 -40 216 -40 C185 -40 162 -64 162 -95 C162 -121 179 -141 202 -141 C224 -141 240 -123 240 -99 L240 -90 C251 -100 256 -113 256 -133 C256 -168 237 -199 195 -232 L211 -250 Z " />
<glyph glyph-name="Lacute" unicode="&#x139;" horiz-adv-x="513" d="M104 20 L29 20 L29 0 L477 0 L493 206 L481 206 C448 50 415 15 307 20 L211 20 L211 647 L275 647 L275 667 L29 667 L29 647 L104 647 L104 20 Z M286 837 L148 732 L156 720 L388 812 C399 817 403 820 403 826 C403 834 399 837 387 837 L286 837 Z " />
<glyph glyph-name="lacute" unicode="&#x13a;" horiz-adv-x="231" d="M66 20 L15 20 L15 0 L216 0 L216 20 L156 20 L156 667 L15 667 L15 647 L66 647 L66 20 Z M194 837 L56 732 L63 720 L295 812 C306 817 310 820 310 826 C310 834 306 837 294 837 L194 837 Z " />
<glyph glyph-name="Lcommaaccent" unicode="&#x13b;" horiz-adv-x="513" d="M104 20 L29 20 L29 0 L477 0 L493 206 L481 206 C448 50 415 15 307 20 L211 20 L211 647 L275 647 L275 667 L29 667 L29 647 L104 647 L104 20 Z M256 -258 C305 -218 330 -173 330 -126 C330 -76 302 -40 262 -40 C230 -40 206 -65 206 -97 C206 -124 224 -145 247 -145 C270 -145 286 -126 286 -101 L286 -91 C299 -102 305 -116 305 -136 C305 -172 285 -204 241 -239 L256 -258 Z " />
<glyph glyph-name="lcommaaccent" unicode="&#x13c;" horiz-adv-x="231" d="M66 20 L15 20 L15 0 L216 0 L216 20 L156 20 L156 667 L15 667 L15 647 L66 647 L66 20 Z M104 -250 C151 -212 175 -168 175 -123 C175 -74 148 -40 110 -40 C79 -40 56 -64 56 -95 C56 -121 73 -141 96 -141 C118 -141 134 -123 134 -99 C134 -97 134 -94 133 -90 C144 -100 149 -113 149 -133 C149 -168 130 -199 89 -232 L104 -250 Z " />
<glyph glyph-name="Lcaron" unicode="&#x13d;" horiz-adv-x="513" d="M104 20 L29 20 L29 0 L477 0 L493 206 L481 206 C448 50 415 15 307 20 L211 20 L211 647 L275 647 L275 667 L29 667 L29 647 L104 647 L104 20 Z M353 450 C401 490 426 534 426 581 C426 632 398 667 358 667 C326 667 302 643 302 610 C302 584 320 563 344 563 C366 563 383 581 383 607 C383 609 383 612 382 616 C395 605 401 591 401 571 C401 535 381 503 338 468 L353 450 Z " />
<glyph glyph-name="lcaron" unicode="&#x13e;" horiz-adv-x="313" d="M66 20 L15 20 L15 0 L216 0 L216 20 L156 20 L156 667 L15 667 L15 647 L66 647 L66 20 Z M239 457 C286 495 310 539 310 584 C310 633 283 667 244 667 C213 667 190 643 190 612 C190 586 207 566 230 566 C252 566 268 584 268 609 L268 618 C279 608 284 594 284 575 C284 540 265 509 223 475 L239 457 Z " />
<glyph glyph-name="Ldot" unicode="&#x13f;" horiz-adv-x="513" d="M104 20 L29 20 L29 0 L477 0 L493 206 L481 206 C448 50 415 15 307 20 L211 20 L211 647 L275 647 L275 667 L29 667 L29 647 L104 647 L104 20 Z M326 371 C297 371 274 349 274 321 C274 291 296 269 326 269 C357 269 378 289 378 319 C378 348 355 371 326 371 L326 371 Z " />
<glyph glyph-name="ldot" unicode="&#x140;" horiz-adv-x="289" d="M66 20 L15 20 L15 0 L216 0 L216 20 L156 20 L156 667 L15 667 L15 647 L66 647 L66 20 Z M250 369 C221 369 198 347 198 319 C198 289 220 267 250 267 C281 267 302 287 302 317 C302 346 279 369 250 369 L250 369 Z " />
<glyph glyph-name="Lslash" unicode="&#x141;" horiz-adv-x="513" d="M104 271 L29 201 L29 176 L104 246 L104 20 L29 20 L29 0 L477 0 L493 206 L481 206 C448 50 415 15 307 20 L211 20 L211 344 L341 465 L341 490 L211 369 L211 647 L275 647 L275 667 L29 667 L29 647 L104 647 L104 271 Z " />
<glyph glyph-name="lslash" unicode="&#x142;" horiz-adv-x="231" d="M75 326 L15 275 L15 249 L75 301 L75 20 L15 20 L15 0 L216 0 L216 20 L165 20 L165 377 L216 422 L216 447 L165 403 L165 667 L15 667 L15 647 L75 647 L75 326 Z " />
<glyph glyph-name="Nacute" unicode="&#x143;" horiz-adv-x="601" d="M98 20 L23 20 L23 0 L194 0 L194 20 L121 20 L121 628 L484 0 L507 0 L507 647 L582 647 L582 667 L411 667 L411 647 L484 647 L484 196 C459 246 433 292 386 374 L211 667 L23 667 L23 647 L98 647 L98 20 Z M393 837 L255 732 L263 720 L495 812 C506 817 510 820 510 826 C510 834 506 837 494 837 L393 837 Z " />
<glyph glyph-name="nacute" unicode="&#x144;" horiz-adv-x="473" d="M87 20 L27 20 L27 0 L222 0 L222 20 L177 20 L177 139 C177 263 181 304 197 333 C209 356 234 373 255 373 C271 373 284 364 294 348 C305 328 308 293 308 174 L308 20 L263 20 L263 0 L458 0 L458 20 L398 20 L398 242 C398 316 394 339 374 364 C356 387 321 403 285 403 C240 403 206 384 177 341 L177 393 L27 393 L27 373 L87 373 L87 20 Z M297 616 L200 473 L209 463 L376 599 C379 602 381 605 381 608 C381 614 378 616 372 616 L297 616 Z " />
<glyph glyph-name="Ncommaaccent" unicode="&#x145;" horiz-adv-x="601" d="M98 20 L23 20 L23 0 L194 0 L194 20 L121 20 L121 628 L484 0 L507 0 L507 647 L582 647 L582 667 L411 667 L411 647 L484 647 L484 196 C459 246 433 292 386 374 L211 667 L23 667 L23 647 L98 647 L98 20 Z M298 -258 C346 -217 371 -173 371 -126 C371 -76 343 -40 303 -40 C271 -40 247 -65 247 -97 C247 -124 265 -145 289 -145 C311 -145 328 -126 328 -101 L328 -91 C340 -102 346 -116 346 -136 C346 -172 326 -204 283 -239 L298 -258 Z " />
<glyph glyph-name="ncommaaccent" unicode="&#x146;" horiz-adv-x="473" d="M87 20 L27 20 L27 0 L222 0 L222 20 L177 20 L177 139 C177 263 181 304 197 333 C209 356 234 373 255 373 C271 373 284 364 294 348 C305 328 308 293 308 174 L308 20 L263 20 L263 0 L458 0 L458 20 L398 20 L398 242 C398 316 394 339 374 364 C356 387 321 403 285 403 C240 403 206 384 177 341 L177 393 L27 393 L27 373 L87 373 L87 20 Z M232 -250 C278 -212 303 -168 303 -123 C303 -74 276 -40 237 -40 C206 -40 183 -64 183 -95 C183 -121 200 -141 223 -141 C245 -141 261 -123 261 -99 C261 -97 261 -94 260 -90 C272 -100 277 -113 277 -133 C277 -168 258 -199 216 -232 L232 -250 Z " />
<glyph glyph-name="Ncaron" unicode="&#x147;" horiz-adv-x="601" d="M98 20 L23 20 L23 0 L194 0 L194 20 L121 20 L121 628 L484 0 L507 0 L507 647 L582 647 L582 667 L411 667 L411 647 L484 647 L484 196 C459 246 433 292 386 374 L211 667 L23 667 L23 647 L98 647 L98 20 Z M313 720 L480 832 L474 843 L313 795 L152 843 L146 832 L313 720 Z " />
<glyph glyph-name="ncaron" unicode="&#x148;" horiz-adv-x="473" d="M87 20 L27 20 L27 0 L222 0 L222 20 L177 20 L177 139 C177 263 181 304 197 333 C209 356 234 373 255 373 C271 373 284 364 294 348 C305 328 308 293 308 174 L308 20 L263 20 L263 0 L458 0 L458 20 L398 20 L398 242 C398 316 394 339 374 364 C356 387 321 403 285 403 C240 403 206 384 177 341 L177 393 L27 393 L27 373 L87 373 L87 20 Z M247 547 L112 620 L104 610 L247 463 L390 610 L382 620 L247 547 Z " />
<glyph glyph-name="Omacron" unicode="&#x14c;" horiz-adv-x="598" d="M299 677 C158 677 38 519 38 334 C38 148 158 -10 300 -10 C365 -10 428 22 473 79 C528 148 561 242 561 329 C561 520 443 677 299 677 L299 677 Z M300 654 C343 654 380 632 403 594 C426 554 434 488 434 329 C434 192 427 122 408 83 C387 39 347 13 300 13 C256 13 219 35 197 73 C173 112 165 180 165 333 C165 474 172 544 191 583 C212 628 252 654 300 654 L300 654 Z M149 785 L149 750 L449 750 L449 785 L149 785 Z " />
<glyph glyph-name="omacron" unicode="&#x14d;" horiz-adv-x="427" d="M214 403 C113 403 32 310 32 197 C32 82 113 -10 214 -10 C314 -10 396 82 396 194 C396 311 316 403 214 403 L214 403 Z M214 380 C244 380 264 369 277 344 C288 323 289 311 289 195 C289 91 288 75 280 56 C269 27 247 13 214 13 C184 13 164 24 151 49 C140 70 139 82 139 197 C139 302 140 318 148 337 C159 366 181 380 214 380 L214 380 Z M81 544 L81 510 L347 510 L347 544 L81 544 Z " />
<glyph glyph-name="Ohungarumlaut" unicode="&#x150;" horiz-adv-x="598" d="M299 677 C158 677 38 519 38 334 C38 148 158 -10 300 -10 C365 -10 428 22 473 79 C528 148 561 242 561 329 C561 520 443 677 299 677 L299 677 Z M300 654 C343 654 380 632 403 594 C426 554 434 488 434 329 C434 192 427 122 408 83 C387 39 347 13 300 13 C256 13 219 35 197 73 C173 112 165 180 165 333 C165 474 172 544 191 583 C212 628 252 654 300 654 L300 654 Z M480 837 L367 732 L374 720 L560 812 C573 818 575 820 575 827 C575 835 571 837 559 837 L480 837 Z M327 837 L215 732 L222 720 L407 812 C420 818 422 820 422 827 C422 835 418 837 406 837 L327 837 Z " />
<glyph glyph-name="ohungarumlaut" unicode="&#x151;" horiz-adv-x="427" d="M214 403 C113 403 32 310 32 197 C32 82 113 -10 214 -10 C314 -10 396 82 396 194 C396 311 316 403 214 403 L214 403 Z M214 380 C244 380 264 369 277 344 C288 323 289 311 289 195 C289 91 288 75 280 56 C269 27 247 13 214 13 C184 13 164 24 151 49 C140 70 139 82 139 197 C139 302 140 318 148 337 C159 366 181 380 214 380 L214 380 Z M360 616 L263 473 L272 463 L432 599 C435 602 437 605 437 608 C437 614 434 616 428 616 L360 616 Z M234 616 L138 473 L147 463 L307 599 C311 603 312 605 312 608 C312 614 309 616 303 616 L234 616 Z " />
<glyph glyph-name="OE" unicode="&#x152;" horiz-adv-x="828" d="M764 667 L398 667 C370 675 353 677 326 677 C162 677 38 529 38 332 C38 228 74 133 139 66 C188 15 248 -10 321 -10 C348 -10 366 -8 398 0 L778 0 L796 208 L784 208 C745 49 713 13 619 20 L513 20 L513 328 L541 328 C588 328 610 317 622 288 C630 267 632 255 635 196 L646 196 L646 471 L635 471 C634 368 616 346 529 348 L513 347 L513 647 L578 647 C694 652 731 619 758 484 L770 484 L764 667 Z M406 29 C373 17 353 13 323 13 C267 13 226 33 200 74 C175 115 165 185 165 326 C165 479 174 549 196 586 C223 629 272 654 329 654 C355 654 374 650 406 639 L406 29 Z " />
<glyph glyph-name="oe" unicode="&#x153;" horiz-adv-x="629" d="M605 227 C603 270 596 294 580 323 C553 372 502 403 449 403 C404 403 370 383 336 337 C302 380 258 403 210 403 C115 403 32 305 32 191 C32 83 113 -10 205 -10 C255 -10 296 12 331 58 C364 13 407 -10 458 -10 C533 -10 588 44 605 135 L581 135 C563 56 521 13 461 13 C425 13 400 28 388 57 C378 80 375 115 375 189 L375 227 L605 227 Z M375 247 L375 271 C375 315 379 339 391 354 C402 369 424 379 447 379 C470 379 489 370 500 352 C511 337 512 327 512 271 C512 268 512 258 513 247 L375 247 Z M212 379 C241 379 264 364 276 338 C285 318 287 291 287 200 C287 105 286 82 281 65 C272 32 247 13 213 13 C177 13 151 36 144 75 C139 102 138 139 138 243 C138 303 141 324 150 343 C162 366 184 379 212 379 L212 379 Z " />
<glyph glyph-name="Racute" unicode="&#x154;" horiz-adv-x="574" d="M104 20 L29 20 L29 0 L275 0 L275 20 L211 20 L211 346 L239 346 C302 346 330 336 350 307 C366 285 371 257 373 195 C374 117 377 96 391 65 C410 23 451 -4 494 -4 C514 -4 534 1 556 12 L550 30 C531 21 523 19 515 19 C488 19 474 45 474 96 C474 99 474 111 475 125 L475 154 C475 264 414 338 310 353 C422 362 493 424 493 515 C493 565 473 605 433 633 C393 661 360 667 243 667 L29 667 L29 647 L104 647 L104 20 Z M211 368 L211 647 L242 647 C300 647 322 641 343 621 C366 598 379 558 379 507 C379 455 366 414 343 393 C323 374 295 368 239 368 L211 368 Z M339 837 L201 732 L208 720 L441 812 C451 816 455 821 455 826 C455 834 451 837 440 837 L339 837 Z " />
<glyph glyph-name="racute" unicode="&#x155;" horiz-adv-x="334" d="M87 20 L27 20 L27 0 L237 0 L237 20 L177 20 L177 113 C177 229 186 286 211 337 C218 352 228 362 234 362 C241 362 242 358 243 341 C244 312 259 294 281 294 C304 294 322 316 322 345 C322 379 300 403 269 403 C230 403 200 369 177 298 L177 393 L27 393 L27 373 L87 373 L87 20 Z M254 616 L157 473 L166 463 L333 599 C337 602 338 605 338 608 C338 614 335 616 329 616 L254 616 Z " />
<glyph glyph-name="Rcommaaccent" unicode="&#x156;" horiz-adv-x="574" d="M104 20 L29 20 L29 0 L275 0 L275 20 L211 20 L211 346 L239 346 C302 346 330 336 350 307 C366 285 371 257 373 195 C374 117 377 96 391 65 C410 23 451 -4 494 -4 C514 -4 534 1 556 12 L550 30 C531 21 523 19 515 19 C488 19 474 45 474 96 C474 99 474 111 475 125 L475 154 C475 264 414 338 310 353 C422 362 493 424 493 515 C493 565 473 605 433 633 C393 661 360 667 243 667 L29 667 L29 647 L104 647 L104 20 Z M211 368 L211 647 L242 647 C300 647 322 641 343 621 C366 598 379 558 379 507 C379 455 366 414 343 393 C323 374 295 368 239 368 L211 368 Z M288 -258 C336 -217 361 -173 361 -126 C361 -76 333 -40 293 -40 C261 -40 237 -65 237 -97 C237 -124 255 -145 279 -145 C301 -145 318 -126 318 -101 L318 -91 C330 -102 336 -116 336 -136 C336 -172 316 -204 273 -239 L288 -258 Z " />
<glyph glyph-name="rcommaaccent" unicode="&#x157;" horiz-adv-x="334" d="M87 20 L27 20 L27 0 L237 0 L237 20 L177 20 L177 113 C177 229 186 286 211 337 C218 352 228 362 234 362 C241 362 242 358 243 341 C244 312 259 294 281 294 C304 294 322 316 322 345 C322 379 300 403 269 403 C230 403 200 369 177 298 L177 393 L27 393 L27 373 L87 373 L87 20 Z M126 -250 C172 -212 197 -168 197 -123 C197 -74 170 -40 131 -40 C100 -40 77 -64 77 -95 C77 -121 94 -141 117 -141 C139 -141 155 -123 155 -99 C155 -97 155 -94 154 -90 C166 -99 171 -113 171 -133 C171 -168 152 -199 110 -232 L126 -250 Z " />
<glyph glyph-name="Rcaron" unicode="&#x158;" horiz-adv-x="574" d="M104 20 L29 20 L29 0 L275 0 L275 20 L211 20 L211 346 L239 346 C302 346 330 336 350 307 C366 285 371 257 373 195 C374 117 377 96 391 65 C410 23 451 -4 494 -4 C514 -4 534 1 556 12 L550 30 C531 21 523 19 515 19 C488 19 474 45 474 96 C474 99 474 111 475 125 L475 154 C475 264 414 338 310 353 C422 362 493 424 493 515 C493 565 473 605 433 633 C393 661 360 667 243 667 L29 667 L29 647 L104 647 L104 20 Z M211 368 L211 647 L242 647 C300 647 322 641 343 621 C366 598 379 558 379 507 C379 455 366 414 343 393 C323 374 295 368 239 368 L211 368 Z M274 720 L440 832 L434 843 L274 795 L113 843 L107 832 L274 720 Z " />
<glyph glyph-name="rcaron" unicode="&#x159;" horiz-adv-x="334" d="M87 20 L27 20 L27 0 L237 0 L237 20 L177 20 L177 113 C177 229 186 286 211 337 C218 352 228 362 234 362 C241 362 242 358 243 341 C244 312 259 294 281 294 C304 294 322 316 322 345 C322 379 300 403 269 403 C230 403 200 369 177 298 L177 393 L27 393 L27 373 L87 373 L87 20 Z M194 547 L58 620 L50 610 L194 463 L337 610 L329 620 L194 547 Z " />
<glyph glyph-name="Sacute" unicode="&#x15a;" horiz-adv-x="448" d="M376 677 L363 677 L332 636 C293 664 258 677 219 677 C126 677 54 589 54 474 C54 425 68 384 95 355 C118 330 143 318 216 296 C284 276 300 270 317 255 C343 233 357 198 357 156 C357 71 305 13 229 13 C174 13 127 40 95 90 C75 120 65 150 58 206 L44 206 L44 0 L63 0 L96 48 C140 8 181 -10 231 -10 C335 -10 410 85 410 217 C410 279 392 330 358 364 C335 389 317 397 246 419 C188 436 161 446 145 456 C119 473 107 498 107 534 C107 604 156 654 222 654 C265 654 304 633 330 595 C349 569 357 545 362 501 L376 501 L376 677 Z M307 837 L169 732 L176 720 L409 812 C419 816 423 821 423 826 C423 834 419 837 408 837 L307 837 Z " />
<glyph glyph-name="sacute" unicode="&#x15b;" horiz-adv-x="307" d="M262 398 L248 398 L234 366 C204 393 180 403 148 403 C86 403 41 351 41 281 C41 247 51 216 67 196 C85 174 106 164 161 154 C224 142 244 127 244 89 C244 46 209 13 164 13 C130 13 100 31 81 61 C69 83 59 109 50 150 L37 150 L40 0 L50 0 L71 32 C106 1 131 -10 166 -10 C232 -10 281 47 281 124 C281 156 273 186 258 205 C239 231 217 243 161 254 C94 267 75 280 75 311 C75 349 109 380 151 380 C202 380 243 340 251 280 L265 280 L262 398 Z M226 616 L129 473 L138 463 L305 599 C308 602 310 605 310 608 C310 614 307 616 301 616 L226 616 Z " />
<glyph glyph-name="Scircumflex" unicode="&#x15c;" horiz-adv-x="448" d="M376 677 L363 677 L332 636 C293 664 258 677 219 677 C126 677 54 589 54 474 C54 425 68 384 95 355 C118 330 143 318 216 296 C284 276 300 270 317 255 C343 233 357 198 357 156 C357 71 305 13 229 13 C174 13 127 40 95 90 C75 120 65 150 58 206 L44 206 L44 0 L63 0 L96 48 C140 8 181 -10 231 -10 C335 -10 410 85 410 217 C410 279 392 330 358 364 C335 389 317 397 246 419 C188 436 161 446 145 456 C119 473 107 498 107 534 C107 604 156 654 222 654 C265 654 304 633 330 595 C349 569 357 545 362 501 L376 501 L376 677 Z M227 843 L60 732 L66 720 L227 769 L388 720 L394 732 L227 843 Z " />
<glyph glyph-name="scircumflex" unicode="&#x15d;" horiz-adv-x="307" d="M262 398 L248 398 L234 366 C203 393 180 403 147 403 C86 403 41 351 41 281 C41 247 51 216 67 196 C85 174 106 164 161 154 C224 142 244 127 244 89 C244 46 209 13 164 13 C130 13 100 31 81 61 C69 83 59 109 50 150 L37 150 L40 0 L50 0 L71 32 C106 1 131 -10 166 -10 C232 -10 281 47 281 124 C281 156 273 186 258 205 C239 231 217 243 161 254 C94 267 75 280 75 311 C75 349 109 380 151 380 C202 380 242 340 251 280 L265 280 L262 398 Z M165 536 L301 463 L309 473 L165 620 L22 474 L30 464 L165 536 Z " />
<glyph glyph-name="Scedilla" unicode="&#x15e;" horiz-adv-x="448" d="M237 -10 C338 -6 410 88 410 217 C410 279 392 330 358 364 C335 389 317 397 246 419 C188 436 161 446 145 456 C119 473 107 498 107 534 C107 604 156 654 222 654 C265 654 304 633 330 595 C349 569 357 545 362 501 L376 501 L376 677 L363 677 L332 636 C293 664 258 677 219 677 C126 677 54 589 54 474 C54 425 68 384 95 355 C118 330 143 318 216 296 C284 276 300 270 317 255 C343 233 357 198 357 156 C357 71 305 13 229 13 C174 13 127 40 95 90 C75 120 65 150 58 206 L44 206 L44 0 L63 0 L96 48 C133 13 173 -6 219 -10 L203 -61 C233 -76 243 -90 243 -118 C243 -147 229 -164 204 -164 C188 -164 174 -156 173 -144 L171 -138 L170 -129 C168 -108 163 -100 152 -100 C143 -100 137 -108 137 -120 C137 -155 172 -181 219 -181 C272 -181 312 -150 312 -108 C312 -75 282 -53 238 -53 L224 -53 L237 -10 Z " />
<glyph glyph-name="scedilla" unicode="&#x15f;" horiz-adv-x="307" d="M169 -10 C234 -8 281 48 281 124 C281 156 273 186 258 205 C239 231 217 243 161 254 C94 267 75 280 75 311 C75 349 109 380 151 380 C202 380 243 340 251 280 L265 280 L262 398 L248 398 L234 366 C204 393 180 403 148 403 C86 403 41 351 41 281 C41 247 51 216 67 196 C85 174 106 164 161 154 C224 142 244 127 244 89 C244 46 209 13 164 13 C130 13 100 31 81 61 C69 83 59 109 50 150 L37 150 L40 0 L50 0 L71 32 C99 7 123 -6 151 -9 L136 -60 C166 -75 175 -88 175 -117 C175 -145 161 -162 137 -162 C121 -162 108 -154 106 -142 L105 -136 C104 -133 104 -130 103 -126 C101 -106 96 -98 85 -98 C77 -98 71 -106 71 -118 C71 -152 105 -178 152 -178 C204 -178 243 -147 243 -106 C243 -74 213 -52 170 -52 L157 -52 L169 -10 Z " />
<glyph glyph-name="Scaron" unicode="&#x160;" horiz-adv-x="448" d="M229 720 L396 832 L390 843 L229 795 L68 843 L62 832 L229 720 Z M376 677 L363 677 L332 636 C293 664 258 677 219 677 C126 677 54 589 54 474 C54 425 68 384 95 355 C118 330 143 318 216 296 C284 276 300 270 317 255 C343 233 357 198 357 156 C357 71 305 13 229 13 C174 13 127 40 95 90 C75 120 65 150 58 206 L44 206 L44 0 L63 0 L96 48 C140 8 181 -10 231 -10 C335 -10 410 85 410 217 C410 279 392 330 358 364 C335 389 317 397 246 419 C188 436 161 446 145 456 C119 473 107 498 107 534 C107 604 156 654 222 654 C265 654 304 633 330 595 C349 569 357 545 362 501 L376 501 L376 677 Z " />
<glyph glyph-name="scaron" unicode="&#x161;" horiz-adv-x="307" d="M262 398 L248 398 L234 366 C203 393 180 403 147 403 C86 403 41 351 41 281 C41 247 51 216 67 196 C85 174 106 164 161 154 C224 142 244 127 244 89 C244 46 209 13 164 13 C130 13 100 31 81 61 C69 83 59 109 50 150 L37 150 L40 0 L50 0 L71 32 C106 1 131 -10 166 -10 C232 -10 281 47 281 124 C281 156 273 186 258 205 C239 231 217 243 161 254 C94 267 75 280 75 311 C75 349 109 380 151 380 C202 380 242 340 251 280 L265 280 L262 398 Z M165 547 L30 620 L22 610 L165 463 L309 610 L301 620 L165 547 Z " />
<glyph glyph-name="Tcommaaccent" unicode="&#x162;" horiz-adv-x="533" d="M212 20 L128 20 L128 0 L405 0 L405 20 L321 20 L321 647 L358 647 C415 648 432 641 458 605 C485 563 501 520 510 456 L524 456 L517 667 L15 667 L9 456 L22 456 C33 520 49 564 77 605 C104 641 122 648 181 647 L212 647 L212 20 Z M262 -258 C310 -217 335 -173 335 -126 C335 -76 307 -40 267 -40 C235 -40 211 -65 211 -97 C211 -124 229 -145 253 -145 C275 -145 292 -126 292 -101 L292 -91 C304 -102 310 -116 310 -136 C310 -172 290 -204 247 -239 L262 -258 Z " />
<glyph glyph-name="tcommaaccent" unicode="&#x163;" horiz-adv-x="262" d="M156 546 L140 546 C119 476 79 423 20 387 L20 373 L66 373 L66 119 C66 57 68 47 84 26 C102 2 130 -10 165 -10 C222 -10 256 19 265 75 L246 75 C239 37 224 21 197 21 C182 21 169 28 163 40 C157 50 156 59 156 89 L156 373 L246 373 L246 393 L156 393 L156 546 Z M131 -250 C177 -212 202 -168 202 -123 C202 -74 174 -40 136 -40 C105 -40 82 -64 82 -95 C82 -121 99 -141 122 -141 C145 -141 161 -123 161 -99 L160 -90 C170 -99 176 -113 176 -133 C176 -168 157 -198 115 -232 L131 -250 Z " />
<glyph glyph-name="Tcaron" unicode="&#x164;" horiz-adv-x="533" d="M212 20 L128 20 L128 0 L405 0 L405 20 L321 20 L321 647 L358 647 C415 648 432 641 458 605 C485 563 501 520 510 456 L524 456 L517 667 L15 667 L9 456 L22 456 C33 520 49 564 77 605 C104 641 122 648 181 647 L212 647 L212 20 Z M266 720 L433 832 L427 843 L266 795 L106 843 L100 832 L266 720 Z " />
<glyph glyph-name="tcaron" unicode="&#x165;" horiz-adv-x="300" d="M156 546 L140 546 C119 476 79 423 20 387 L20 373 L66 373 L66 119 C66 57 68 47 84 26 C102 2 130 -10 165 -10 C222 -10 256 19 265 75 L246 75 C239 37 224 21 197 21 C182 21 169 28 163 40 C157 50 156 59 156 89 L156 373 L246 373 L246 393 L156 393 L156 546 Z M221 457 C268 495 293 539 293 584 C293 633 265 667 227 667 C196 667 173 643 173 612 C173 586 190 566 213 566 C235 566 251 584 251 609 L250 618 C261 608 267 594 267 575 C267 540 247 508 205 475 L221 457 Z " />
<glyph glyph-name="utilde" unicode="&#x169;" horiz-adv-x="477" d="M395 393 L254 393 L254 373 L305 373 L305 233 C305 124 301 91 284 60 C269 31 241 13 210 13 C192 13 176 19 168 30 C158 44 156 62 156 160 L156 393 L15 393 L15 373 L66 373 L66 160 C66 76 71 52 94 26 C114 3 148 -10 188 -10 C242 -10 280 11 305 55 L305 0 L455 0 L455 20 L395 20 L395 393 Z M374 580 C354 552 348 548 325 548 C311 548 294 551 279 556 L235 571 C209 580 197 582 180 582 C135 582 113 564 88 506 L100 498 C115 523 125 530 149 530 C165 530 182 527 201 520 L244 507 C264 500 285 496 298 496 C334 496 359 518 387 572 L374 580 Z " />
<glyph glyph-name="Umacron" unicode="&#x16a;" horiz-adv-x="578" d="M466 647 L466 265 C466 155 464 132 449 94 C427 41 387 13 331 13 C283 13 243 34 222 70 C200 107 198 124 198 265 L198 647 L262 647 L262 667 L16 667 L16 647 L91 647 L91 265 C91 133 100 94 137 53 C174 14 237 -10 306 -10 C376 -10 429 15 457 61 C484 106 489 137 489 265 L489 647 L562 647 L562 667 L391 667 L391 647 L466 647 Z M152 785 L152 750 L452 750 L452 785 L152 785 Z " />
<glyph glyph-name="umacron" unicode="&#x16b;" horiz-adv-x="477" d="M395 393 L254 393 L254 373 L305 373 L305 233 C305 124 301 91 284 60 C269 31 241 13 210 13 C192 13 176 19 168 30 C158 44 156 62 156 160 L156 393 L15 393 L15 373 L66 373 L66 160 C66 76 71 52 94 26 C114 3 148 -10 188 -10 C242 -10 280 11 305 55 L305 0 L455 0 L455 20 L395 20 L395 393 Z M102 544 L102 510 L368 510 L368 544 L102 544 Z " />
<glyph glyph-name="ubreve" unicode="&#x16d;" horiz-adv-x="477" d="M395 393 L254 393 L254 373 L305 373 L305 233 C305 124 301 91 284 60 C269 31 241 13 210 13 C192 13 176 19 168 30 C158 44 156 62 156 160 L156 393 L15 393 L15 373 L66 373 L66 160 C66 76 71 52 94 26 C114 3 148 -10 188 -10 C242 -10 280 11 305 55 L305 0 L455 0 L455 20 L395 20 L395 393 Z M348 613 C329 559 285 528 227 528 C169 528 126 559 110 613 L97 613 C101 526 154 467 228 467 C305 467 357 525 361 613 L348 613 Z " />
<glyph glyph-name="Uring" unicode="&#x16e;" horiz-adv-x="578" d="M466 647 L466 265 C466 155 464 132 449 94 C427 41 387 13 331 13 C283 13 243 34 222 70 C200 107 198 124 198 265 L198 647 L262 647 L262 667 L16 667 L16 647 L91 647 L91 265 C91 133 100 94 137 53 C174 14 237 -10 306 -10 C376 -10 429 15 457 61 C484 106 489 137 489 265 L489 647 L562 647 L562 667 L391 667 L391 647 L466 647 Z M313 859 C270 859 236 825 236 782 C236 740 269 707 312 707 C355 707 388 739 388 781 C388 825 355 859 313 859 L313 859 Z M313 831 C336 831 358 808 358 783 C358 757 336 735 312 735 C287 735 266 757 266 783 C266 809 288 831 313 831 L313 831 Z " />
<glyph glyph-name="uring" unicode="&#x16f;" horiz-adv-x="477" d="M395 393 L254 393 L254 373 L305 373 L305 233 C305 124 301 91 284 60 C269 31 241 13 210 13 C192 13 176 19 168 30 C158 44 156 62 156 160 L156 393 L15 393 L15 373 L66 373 L66 160 C66 76 71 52 94 26 C114 3 148 -10 188 -10 C242 -10 280 11 305 55 L305 0 L455 0 L455 20 L395 20 L395 393 Z M241 615 C198 615 164 581 164 538 C164 496 197 463 240 463 C283 463 316 495 316 537 C316 581 283 615 241 615 L241 615 Z M241 587 C264 587 286 564 286 539 C286 513 264 491 240 491 C215 491 194 513 194 539 C194 565 216 587 241 587 L241 587 Z " />
<glyph glyph-name="Uhungarumlaut" unicode="&#x170;" horiz-adv-x="578" d="M466 647 L466 265 C466 155 464 132 449 94 C427 41 387 13 331 13 C283 13 243 34 222 70 C200 107 198 124 198 265 L198 647 L262 647 L262 667 L16 667 L16 647 L91 647 L91 265 C91 133 100 94 137 53 C174 14 237 -10 306 -10 C376 -10 429 15 457 61 C484 106 489 137 489 265 L489 647 L562 647 L562 667 L391 667 L391 647 L466 647 Z M475 837 L363 732 L370 720 L556 812 C568 818 570 820 570 827 C570 835 566 837 555 837 L475 837 Z M323 837 L210 732 L218 720 L403 812 C416 818 418 820 418 827 C418 835 414 837 402 837 L323 837 Z " />
<glyph glyph-name="uhungarumlaut" unicode="&#x171;" horiz-adv-x="477" d="M395 393 L254 393 L254 373 L305 373 L305 233 C305 124 301 91 284 60 C269 31 241 13 210 13 C192 13 176 19 168 30 C158 44 156 62 156 160 L156 393 L15 393 L15 373 L66 373 L66 160 C66 76 71 52 94 26 C114 3 148 -10 188 -10 C242 -10 280 11 305 55 L305 0 L455 0 L455 20 L395 20 L395 393 Z M368 616 L272 473 L281 463 L441 599 C445 603 446 605 446 608 C446 614 443 616 437 616 L368 616 Z M243 616 L146 473 L155 463 L315 599 C319 602 320 605 320 608 C320 614 317 616 311 616 L243 616 Z " />
<glyph glyph-name="Uogonek" unicode="&#x172;" horiz-adv-x="578" d="M437 -127 C420 -134 411 -136 398 -136 C368 -136 350 -118 350 -87 C350 -56 365 -31 404 5 C478 67 491 107 489 265 L489 647 L562 647 L562 667 L391 667 L391 647 L466 647 L466 265 C466 155 464 132 449 94 C427 41 387 13 331 13 C283 13 243 34 222 70 C200 107 198 124 198 265 L198 647 L262 647 L262 667 L16 667 L16 647 L91 647 L91 265 C91 133 100 94 137 53 C173 14 237 -10 305 -10 C326 -10 346 -8 366 -3 C349 -12 338 -18 334 -21 C305 -41 288 -70 288 -100 C288 -140 316 -165 362 -165 C388 -165 411 -159 437 -144 L437 -127 Z " />
<glyph glyph-name="uogonek" unicode="&#x173;" horiz-adv-x="477" d="M455 0 L455 20 L395 20 L395 393 L254 393 L254 373 L305 373 L305 233 C305 124 301 91 284 60 C269 31 241 13 210 13 C192 13 176 19 168 30 C158 44 156 62 156 160 L156 393 L15 393 L15 373 L66 373 L66 160 C66 76 71 52 94 26 C114 3 148 -10 188 -10 C242 -10 280 11 305 55 L305 0 L374 0 C316 -26 291 -56 291 -98 C291 -137 319 -162 363 -162 C389 -162 411 -156 436 -141 L436 -124 C421 -131 411 -133 398 -133 C368 -133 351 -115 351 -84 C351 -54 366 -28 402 0 L455 0 Z " />
<glyph glyph-name="Wcircumflex" unicode="&#x174;" horiz-adv-x="720" d="M672 647 L720 647 L720 667 L567 667 L567 647 L648 647 L508 151 L418 442 L482 647 L536 647 L536 667 L-2 667 L-2 647 L47 647 L253 -10 L273 -10 L368 287 L463 -10 L482 -10 L672 647 Z M464 647 L406 482 L348 647 L464 647 Z M253 647 L357 326 L301 151 L148 647 L253 647 Z M376 843 L209 732 L215 720 L376 769 L537 720 L542 732 L376 843 Z " />
<glyph glyph-name="Ycircumflex" unicode="&#x176;" horiz-adv-x="520" d="M213 20 L129 20 L129 0 L393 0 L393 20 L320 20 L320 316 C322 321 323 325 324 327 L328 344 C338 375 339 377 342 384 L464 647 L527 647 L527 667 L351 667 L351 647 L441 647 L309 356 C307 362 305 366 303 371 L295 384 L149 647 L225 647 L225 667 L-8 667 L-8 647 L38 647 L213 316 L213 20 Z M261 843 L95 732 L100 720 L261 769 L422 720 L428 732 L261 843 Z " />
<glyph glyph-name="ycircumflex" unicode="&#x177;" horiz-adv-x="369" d="M335 373 L370 373 L370 393 L240 393 L240 373 L310 373 L226 117 L126 373 L190 373 L190 393 L-2 393 L-2 373 L36 373 L190 0 L139 -148 C123 -196 120 -201 110 -201 C105 -201 103 -199 97 -190 C88 -176 76 -169 59 -169 C34 -169 16 -189 16 -216 C16 -244 38 -265 67 -265 C108 -265 133 -235 159 -159 L335 373 Z M193 536 L328 463 L336 473 L193 620 L49 474 L57 464 L193 536 Z " />
<glyph glyph-name="Ydieresis" unicode="&#x178;" horiz-adv-x="520" d="M179 830 C150 830 127 806 127 778 C127 749 150 727 179 727 C208 727 231 750 231 779 C231 807 207 830 179 830 L179 830 Z M368 830 C339 830 316 806 316 778 C316 749 339 727 368 727 C397 727 420 750 420 779 C420 807 396 830 368 830 L368 830 Z M213 20 L129 20 L129 0 L393 0 L393 20 L320 20 L320 316 C322 321 323 325 324 327 L328 344 C338 375 339 377 342 384 L464 647 L527 647 L527 667 L351 667 L351 647 L441 647 L309 356 C307 362 305 366 303 371 L295 384 L149 647 L225 647 L225 667 L-8 667 L-8 647 L38 647 L213 316 L213 20 Z " />
<glyph glyph-name="Zacute" unicode="&#x179;" horiz-adv-x="492" d="M23 0 L451 0 L468 210 L456 210 C437 120 421 82 391 49 C365 23 354 20 274 20 L120 20 L477 667 L61 667 L44 463 L56 463 C91 614 126 654 218 647 L357 647 L23 44 L23 0 Z M343 837 L205 732 L212 720 L444 812 C455 816 459 820 459 826 C459 834 455 837 443 837 L343 837 Z " />
<glyph glyph-name="zacute" unicode="&#x17a;" horiz-adv-x="360" d="M341 393 L51 393 L51 240 L63 240 C92 357 109 375 187 373 L234 373 L18 0 L328 0 L329 167 L317 167 C289 37 274 20 192 20 L121 20 L341 393 Z M259 616 L162 473 L171 463 L338 599 C341 602 343 605 343 608 C343 614 340 616 334 616 L259 616 Z " />
<glyph glyph-name="Zdotaccent" unicode="&#x17b;" horiz-adv-x="492" d="M23 0 L451 0 L468 210 L456 210 C437 120 421 82 391 49 C365 23 354 20 274 20 L120 20 L477 667 L61 667 L44 463 L56 463 C91 614 126 654 218 647 L357 647 L23 44 L23 0 Z M275 832 C246 832 222 808 222 779 C222 750 245 727 275 727 C305 727 328 750 328 780 C328 808 304 832 275 832 L275 832 Z " />
<glyph glyph-name="zdotaccent" unicode="&#x17c;" horiz-adv-x="360" d="M341 393 L51 393 L51 240 L63 240 C92 357 109 375 187 373 L234 373 L18 0 L328 0 L329 167 L317 167 C289 37 274 20 192 20 L121 20 L341 393 Z M199 592 C170 592 147 570 147 542 C147 512 169 490 199 490 C230 490 251 510 251 540 C251 569 228 592 199 592 L199 592 Z " />
<glyph glyph-name="Zcaron" unicode="&#x17d;" horiz-adv-x="492" d="M274 720 L441 832 L435 843 L274 795 L114 843 L108 832 L274 720 Z M23 0 L451 0 L468 210 L456 210 C437 120 421 82 391 49 C365 23 354 20 274 20 L120 20 L477 667 L61 667 L44 463 L56 463 C91 614 126 654 218 647 L357 647 L23 44 L23 0 Z " />
<glyph glyph-name="zcaron" unicode="&#x17e;" horiz-adv-x="360" d="M204 547 L69 620 L61 610 L204 463 L348 610 L340 620 L204 547 Z M341 393 L51 393 L51 240 L63 240 C92 357 109 375 187 373 L234 373 L18 0 L328 0 L329 167 L317 167 C289 37 274 20 192 20 L121 20 L341 393 Z " />
<glyph glyph-name="florin" unicode="&#x192;" horiz-adv-x="450" d="M180 317 L116 -48 C91 -188 88 -201 69 -226 C57 -242 44 -250 29 -250 C16 -250 7 -245 7 -238 C7 -236 8 -234 9 -229 C11 -219 12 -215 12 -209 C12 -189 0 -176 -18 -176 C-36 -176 -49 -192 -49 -214 C-49 -244 -20 -267 19 -267 C67 -267 113 -232 144 -174 C177 -113 191 -65 213 62 L258 317 L340 317 L343 337 L261 337 L281 449 C302 571 314 606 344 641 C354 653 368 660 382 660 C389 660 393 656 393 650 C393 645 392 643 389 640 C381 633 378 626 378 615 C378 595 392 580 411 580 C434 580 451 599 451 623 C451 655 425 677 387 677 C338 677 289 642 255 584 C220 523 207 478 183 337 L104 337 L100 317 L180 317 Z " />
<glyph glyph-name="uni01CD" unicode="&#x1cd;" horiz-adv-x="528" d="M309 215 L368 20 L290 20 L290 0 L534 0 L534 20 L470 20 L276 667 L250 667 L46 20 L3 20 L3 0 L149 0 L149 20 L71 20 L129 215 L309 215 Z M304 235 L135 235 L220 512 L304 235 Z M264 720 L431 832 L425 843 L264 795 L103 843 L97 832 L264 720 Z " />
<glyph glyph-name="uni01CE" unicode="&#x1ce;" horiz-adv-x="398" d="M372 35 C357 20 355 19 346 19 C328 19 328 19 328 135 L328 245 C328 332 327 338 307 361 C285 387 245 403 200 403 C124 403 57 356 57 303 C57 277 73 259 94 259 C115 259 130 277 130 304 C130 313 129 320 124 333 C123 338 122 340 122 343 C122 364 154 386 183 386 C202 386 219 378 228 365 C237 353 238 343 238 286 L238 217 C179 216 144 209 112 195 C61 171 33 132 33 83 C33 28 70 -10 125 -10 C172 -10 212 18 238 68 C244 17 271 -10 317 -10 C342 -10 361 -2 382 20 L372 35 Z M238 180 C238 129 234 99 226 79 C213 50 193 34 170 34 C140 34 122 59 122 101 C122 133 134 159 157 177 C176 192 196 198 238 200 L238 180 Z M212 547 L77 620 L69 610 L212 463 L355 610 L348 620 L212 547 Z " />
<glyph glyph-name="uni01D3" unicode="&#x1d3;" horiz-adv-x="578" d="M466 647 L466 265 C466 155 464 132 449 94 C427 41 387 13 331 13 C283 13 243 34 222 70 C200 107 198 124 198 265 L198 647 L262 647 L262 667 L16 667 L16 647 L91 647 L91 265 C91 133 100 94 137 53 C174 14 237 -10 306 -10 C376 -10 429 15 457 61 C484 106 489 137 489 265 L489 647 L562 647 L562 667 L391 667 L391 647 L466 647 Z M312 720 L479 832 L473 843 L312 795 L151 843 L145 832 L312 720 Z " />
<glyph glyph-name="uni01D4" unicode="&#x1d4;" horiz-adv-x="477" d="M395 393 L254 393 L254 373 L305 373 L305 233 C305 124 301 91 284 60 C269 31 241 13 210 13 C192 13 176 19 168 30 C158 44 156 62 156 160 L156 393 L15 393 L15 373 L66 373 L66 160 C66 76 71 52 94 26 C114 3 148 -10 188 -10 C242 -10 280 11 305 55 L305 0 L455 0 L455 20 L395 20 L395 393 Z M242 547 L106 620 L98 610 L242 463 L385 610 L377 620 L242 547 Z " />
<glyph glyph-name="Gcaron" unicode="&#x1e6;" horiz-adv-x="573" d="M475 667 L463 667 L433 627 C386 661 344 677 301 677 C157 677 38 521 38 333 C38 145 153 -10 293 -10 C366 -10 444 36 480 99 C497 129 505 160 507 213 L564 213 L564 233 L310 233 L310 213 L400 213 C400 153 396 121 389 95 C373 44 335 13 289 13 C242 13 202 44 186 91 C171 133 165 206 165 335 C165 470 175 556 196 594 C217 631 257 654 302 654 C386 654 442 591 466 468 L480 468 L475 667 Z M297 720 L464 832 L458 843 L297 795 L136 843 L130 832 L297 720 Z " />
<glyph glyph-name="gcaron" unicode="&#x1e7;" horiz-adv-x="395" d="M244 22 L196 21 C135 20 135 20 126 20 C81 20 66 29 66 57 C66 83 85 111 123 139 C147 127 163 123 190 123 C276 123 336 179 336 260 C336 292 327 322 307 350 C319 363 322 366 328 366 C333 366 336 361 338 350 C342 330 352 320 368 320 C387 320 401 337 401 358 C401 385 384 403 359 403 C338 403 320 392 295 362 C269 389 235 403 192 403 C111 403 50 342 50 263 C50 218 67 183 106 149 C52 110 26 69 26 23 C26 -20 47 -51 84 -64 C44 -82 23 -113 23 -152 C23 -218 95 -272 185 -272 C298 -272 375 -195 375 -83 C375 -43 364 -13 342 5 C325 18 310 22 271 22 L244 22 Z M193 383 C214 383 226 377 233 363 C239 351 241 333 241 273 C241 209 239 184 232 169 C225 153 211 144 192 144 C156 144 145 165 145 237 C145 365 151 383 193 383 L193 383 Z M97 -64 C119 -67 128 -67 153 -67 C165 -67 238 -66 258 -65 C283 -64 302 -64 306 -64 C347 -64 362 -75 362 -106 C362 -186 285 -247 185 -247 C112 -247 63 -204 63 -142 C63 -112 73 -89 97 -64 L97 -64 Z M202 547 L66 620 L58 610 L202 463 L345 610 L337 620 L202 547 Z " />
<glyph glyph-name="Scommaaccent" unicode="&#x218;" horiz-adv-x="448" d="M376 677 L363 677 L332 636 C293 664 258 677 219 677 C126 677 54 589 54 474 C54 425 68 384 95 355 C118 330 143 318 216 296 C284 276 300 270 317 255 C343 233 357 198 357 156 C357 71 305 13 229 13 C174 13 127 40 95 90 C75 120 65 150 58 206 L44 206 L44 0 L63 0 L96 48 C140 8 181 -10 231 -10 C335 -10 410 85 410 217 C410 279 392 330 358 364 C335 389 317 397 246 419 C188 436 161 446 145 456 C119 473 107 498 107 534 C107 604 156 654 222 654 C265 654 304 633 330 595 C349 569 357 545 362 501 L376 501 L376 677 Z M214 -258 C262 -217 287 -173 287 -126 C287 -76 259 -40 219 -40 C187 -40 163 -65 163 -97 C163 -124 181 -145 205 -145 C227 -145 244 -126 244 -101 L244 -91 C256 -102 262 -116 262 -136 C262 -172 242 -204 199 -239 L214 -258 Z " />
<glyph glyph-name="scommaaccent" unicode="&#x219;" horiz-adv-x="307" d="M262 398 L248 398 L234 366 C204 393 180 403 148 403 C86 403 41 351 41 281 C41 247 51 216 67 196 C85 174 106 164 161 154 C224 142 244 127 244 89 C244 46 209 13 164 13 C130 13 100 31 81 61 C69 83 59 109 50 150 L37 150 L40 0 L50 0 L71 32 C106 1 131 -10 166 -10 C232 -10 281 47 281 124 C281 156 273 186 258 205 C239 231 217 243 161 254 C94 267 75 280 75 311 C75 349 109 380 151 380 C202 380 243 340 251 280 L265 280 L262 398 Z M142 -250 C188 -212 213 -168 213 -123 C213 -74 186 -40 147 -40 C116 -40 93 -64 93 -95 C93 -121 110 -141 133 -141 C155 -141 171 -123 171 -99 C171 -97 171 -94 170 -90 C182 -99 187 -113 187 -133 C187 -168 168 -199 126 -232 L142 -250 Z " />
<glyph glyph-name="uni021A" unicode="&#x21a;" horiz-adv-x="533" d="M212 20 L128 20 L128 0 L405 0 L405 20 L321 20 L321 647 L358 647 C415 648 432 641 458 605 C485 563 501 520 510 456 L524 456 L517 667 L15 667 L9 456 L22 456 C33 520 49 564 77 605 C104 641 122 648 181 647 L212 647 L212 20 Z M262 -258 C310 -217 335 -173 335 -126 C335 -76 307 -40 267 -40 C235 -40 211 -65 211 -97 C211 -124 229 -145 253 -145 C275 -145 292 -126 292 -101 L292 -91 C304 -102 310 -116 310 -136 C310 -172 290 -204 247 -239 L262 -258 Z " />
<glyph glyph-name="uni021B" unicode="&#x21b;" horiz-adv-x="262" d="M156 546 L140 546 C119 476 79 423 20 387 L20 373 L66 373 L66 119 C66 57 68 47 84 26 C102 2 130 -10 165 -10 C222 -10 256 19 265 75 L246 75 C239 37 224 21 197 21 C182 21 169 28 163 40 C157 50 156 59 156 89 L156 373 L246 373 L246 393 L156 393 L156 546 Z M131 -250 C177 -212 202 -168 202 -123 C202 -74 174 -40 136 -40 C105 -40 82 -64 82 -95 C82 -121 99 -141 122 -141 C145 -141 161 -123 161 -99 L160 -90 C170 -99 176 -113 176 -133 C176 -168 157 -198 115 -232 L131 -250 Z " />
<glyph glyph-name="circumflex" unicode="&#x2c6;" horiz-adv-x="479" d="M239 536 L375 463 L383 473 L239 620 L96 474 L104 464 L239 536 Z " />
<glyph glyph-name="caron" unicode="&#x2c7;" horiz-adv-x="479" d="M239 547 L104 620 L96 610 L239 463 L383 610 L375 620 L239 547 Z " />
<glyph glyph-name="uni02C9" unicode="&#x2c9;" horiz-adv-x="333" d="M33 544 L33 510 L299 510 L299 544 L33 544 Z " />
<glyph glyph-name="breve" unicode="&#x2d8;" horiz-adv-x="476" d="M358 613 C339 559 295 528 237 528 C179 528 136 559 120 613 L107 613 C111 526 164 467 238 467 C315 467 367 525 370 613 L358 613 Z " />
<glyph glyph-name="dotaccent" unicode="&#x2d9;" horiz-adv-x="460" d="M230 592 C201 592 178 570 178 542 C178 512 200 490 230 490 C261 490 282 510 282 540 C282 569 259 592 230 592 L230 592 Z " />
<glyph glyph-name="ring" unicode="&#x2da;" horiz-adv-x="465" d="M221 615 C178 615 145 581 145 538 C145 496 178 463 221 463 C263 463 296 496 296 537 C296 581 263 615 221 615 L221 615 Z M221 587 C245 587 266 564 266 539 C266 513 245 491 220 491 C196 491 175 513 175 539 C175 565 196 587 221 587 L221 587 Z " />
<glyph glyph-name="ogonek" unicode="&#x2db;" horiz-adv-x="450" d="M349 0 C291 -26 266 -56 266 -98 C266 -137 294 -162 338 -162 C364 -162 386 -156 412 -141 L412 -124 C397 -131 386 -133 373 -133 C343 -133 326 -115 326 -84 C326 -54 341 -29 377 0 L349 0 Z " />
<glyph glyph-name="tilde" unicode="&#x2dc;" horiz-adv-x="480" d="M376 580 C356 552 350 548 327 548 C313 548 296 551 281 556 L237 571 C211 580 200 582 182 582 C137 582 116 564 90 506 L103 498 C117 523 127 530 151 530 C167 530 184 527 204 520 L246 507 C266 500 287 496 300 496 C336 496 361 518 389 572 L376 580 Z " />
<glyph glyph-name="hungarumlaut" unicode="&#x2dd;" horiz-adv-x="467" d="M360 616 L263 473 L273 463 L433 599 C435 602 437 605 437 608 C437 614 434 616 429 616 L360 616 Z M235 616 L138 473 L147 463 L307 599 C311 602 312 605 312 608 C312 614 309 616 303 616 L235 616 Z " />
<glyph glyph-name="Wdieresis" unicode="&#x1e84;" horiz-adv-x="720" d="M672 647 L720 647 L720 667 L567 667 L567 647 L648 647 L508 151 L418 442 L482 647 L536 647 L536 667 L-2 667 L-2 647 L47 647 L253 -10 L273 -10 L368 287 L463 -10 L482 -10 L672 647 Z M464 647 L406 482 L348 647 L464 647 Z M253 647 L357 326 L301 151 L148 647 L253 647 Z M275 830 C247 830 223 806 223 778 C223 749 246 727 275 727 C305 727 327 750 327 779 C327 807 303 830 275 830 L275 830 Z M464 830 C436 830 412 806 412 778 C412 749 435 727 464 727 C494 727 516 750 516 779 C516 807 492 830 464 830 L464 830 Z " />
<glyph glyph-name="uni2011" unicode="&#x2011;" horiz-adv-x="174" d="M0 234 L0 168 L174 168 L174 234 L0 234 Z " />
<glyph glyph-name="figuredash" unicode="&#x2012;" horiz-adv-x="450" d="M34 234 L34 168 L416 168 L416 234 L34 234 Z " />
<glyph glyph-name="endash" unicode="&#x2013;" horiz-adv-x="450" d="M34 234 L34 168 L416 168 L416 234 L34 234 Z " />
<glyph glyph-name="emdash" unicode="&#x2014;" horiz-adv-x="523" d="M0 234 L0 168 L523 168 L523 234 L0 234 Z " />
<glyph glyph-name="afii00208" unicode="&#x2015;" horiz-adv-x="523" d="M0 234 L0 168 L523 168 L523 234 L0 234 Z " />
<glyph glyph-name="quoteleft" unicode="&#x2018;" horiz-adv-x="237" d="M141 677 C76 626 42 568 42 509 C42 452 76 412 125 412 C165 412 195 439 195 475 C195 506 174 528 143 528 C115 528 95 507 95 479 C95 477 95 473 96 469 C78 480 70 496 70 519 C70 566 97 610 157 656 L141 677 Z " />
<glyph glyph-name="quoteright" unicode="&#x2019;" horiz-adv-x="237" d="M96 412 C161 463 195 521 195 581 C195 638 161 677 111 677 C72 677 42 650 42 614 C42 583 63 561 94 561 C122 561 142 582 142 610 C142 612 142 616 141 620 C159 609 167 593 167 570 C167 544 155 513 134 483 C121 466 111 457 80 432 L96 412 Z " />
<glyph glyph-name="quotesinglbase" unicode="&#x201a;" horiz-adv-x="222" d="M91 -151 C149 -100 180 -42 180 18 C180 75 149 114 104 114 C69 114 42 87 42 51 C42 20 61 -2 89 -2 C114 -2 132 19 132 47 C132 48 132 52 131 57 C146 45 152 29 152 6 C152 -41 128 -85 77 -131 L91 -151 Z " />
<glyph glyph-name="quotedblleft" unicode="&#x201c;" horiz-adv-x="427" d="M330 677 C265 625 232 568 232 509 C232 451 266 412 316 412 C355 412 385 439 385 475 C385 506 363 528 333 528 C306 528 285 507 285 479 C285 477 285 473 286 469 C268 480 260 496 260 519 C260 545 272 576 293 605 C306 623 316 632 346 656 L330 677 Z M141 677 C76 625 42 568 42 509 C42 451 76 412 126 412 C165 412 195 439 195 475 C195 506 174 528 143 528 C115 528 95 507 95 479 C95 477 95 473 96 468 C78 480 70 496 70 519 C70 545 82 576 103 605 C116 623 126 632 157 656 L141 677 Z " />
<glyph glyph-name="quotedblright" unicode="&#x201d;" horiz-adv-x="427" d="M96 412 C161 463 195 521 195 580 C195 637 161 677 111 677 C72 677 42 650 42 614 C42 583 63 561 94 561 C121 561 142 582 142 610 C142 612 142 616 141 620 C159 608 167 593 167 570 C167 543 155 513 134 483 C121 466 111 456 80 432 L96 412 Z M286 412 C351 463 385 521 385 581 C385 638 351 677 301 677 C262 677 232 650 232 614 C232 583 253 561 284 561 C312 561 332 582 332 610 C332 612 332 616 331 620 C349 609 357 593 357 570 C357 544 345 513 324 483 C311 466 301 456 270 432 L286 412 Z " />
<glyph glyph-name="quotedblbase" unicode="&#x201e;" horiz-adv-x="411" d="M91 -151 C149 -100 180 -42 180 17 C180 75 149 114 104 114 C69 114 42 87 42 51 C42 20 61 -2 89 -2 C113 -2 132 19 132 46 C132 48 132 52 131 57 C146 45 152 30 152 7 C152 -41 128 -84 77 -131 L91 -151 Z M281 -151 C339 -99 370 -42 370 18 C370 75 339 114 294 114 C259 114 232 87 232 51 C232 20 251 -2 279 -2 C304 -2 322 19 322 47 C322 48 322 52 321 57 C335 45 342 29 342 6 C342 -41 318 -84 266 -131 L281 -151 Z " />
<glyph glyph-name="dagger" unicode="&#x2020;" horiz-adv-x="450" d="M218 369 C211 301 209 278 205 245 C180 44 175 -12 175 -82 C175 -133 179 -156 193 -173 C200 -183 213 -190 225 -190 C259 -190 275 -156 275 -82 C275 -35 268 57 260 126 C249 213 243 265 241 281 C237 315 237 317 233 369 L325 336 C370 319 378 317 397 317 C428 317 449 339 449 370 C449 398 428 420 401 420 C392 420 380 418 367 415 C290 395 289 394 233 381 C239 413 240 420 248 458 C274 590 274 590 274 617 C274 654 255 677 225 677 C195 677 176 654 176 617 C176 595 179 574 191 513 C204 452 211 414 217 381 C172 392 160 395 123 404 C63 420 63 420 49 420 C22 420 1 398 1 370 C1 339 22 317 53 317 C72 317 80 319 125 336 C131 338 143 343 162 350 C172 353 181 356 190 359 L218 369 Z " />
<glyph glyph-name="daggerdbl" unicode="&#x2021;" horiz-adv-x="450" d="M218 407 C215 353 207 311 185 248 C207 186 216 143 218 89 C189 96 173 100 123 112 C63 128 63 128 49 128 C22 128 1 106 1 78 C1 47 22 25 53 25 C72 25 81 28 125 44 C138 49 144 51 190 67 L217 77 C215 65 212 52 212 51 L203 11 C182 -75 179 -90 179 -122 C179 -164 198 -190 229 -190 C257 -190 275 -164 275 -124 C275 -97 271 -72 260 -31 L253 -4 C248 12 248 15 245 29 C243 39 240 55 235 76 L260 67 C306 51 311 50 325 44 C368 28 379 25 398 25 C428 25 449 47 449 78 C449 106 428 128 401 128 C392 128 380 126 367 123 C295 104 277 100 236 90 C236 137 248 193 268 248 C248 302 236 360 236 406 L260 397 C306 381 311 380 325 374 C368 358 379 355 398 355 C428 355 449 377 449 408 C449 436 428 458 401 458 C392 458 380 456 367 453 C294 434 284 431 235 420 C237 430 239 440 240 444 C241 446 244 457 248 473 C266 535 275 581 275 610 C275 651 257 677 229 677 C198 677 179 651 179 609 C179 580 188 532 203 476 C206 466 209 456 212 445 C212 442 215 433 217 420 C197 424 190 426 179 428 C171 430 152 435 123 442 C63 458 63 458 49 458 C22 458 1 436 1 408 C1 377 22 355 53 355 C72 355 81 358 125 374 C138 379 144 381 190 397 L218 407 Z " />
<glyph glyph-name="bullet" unicode="&#x2022;" horiz-adv-x="600" d="M301 480 C231 480 176 418 176 340 C176 262 231 200 300 200 C368 200 423 263 423 340 C423 417 368 480 301 480 L301 480 Z " />
<glyph glyph-name="ellipsis" unicode="&#x2026;" horiz-adv-x="643" d="M108 110 C78 110 54 84 54 51 C54 19 77 -7 106 -7 C136 -7 160 19 160 51 C160 83 136 110 108 110 L108 110 Z M322 110 C292 110 268 84 268 51 C268 19 291 -7 320 -7 C350 -7 374 19 374 51 C374 83 350 110 322 110 L322 110 Z M537 110 C507 110 482 84 482 51 C482 19 505 -7 535 -7 C565 -7 589 19 589 51 C589 83 565 110 537 110 L537 110 Z " />
<glyph glyph-name="perthousand" unicode="&#x2030;" horiz-adv-x="921" d="M149 653 C79 653 23 579 23 487 C23 394 79 320 149 320 C218 320 275 394 275 484 C275 579 220 653 149 653 L149 653 Z M149 635 C163 635 177 627 184 613 C193 595 196 561 196 484 C196 418 193 382 186 364 C179 348 165 338 149 338 C135 338 121 347 114 360 C105 378 102 413 102 486 C102 555 105 590 112 609 C119 625 133 635 149 635 L149 635 Z M438 647 L157 0 L183 0 L464 647 L438 647 Z M473 327 C403 327 347 253 347 161 C347 68 403 -6 473 -6 C542 -6 599 68 599 158 C599 253 544 327 473 327 L473 327 Z M473 309 C487 309 501 301 508 287 C517 269 520 235 520 158 C520 92 517 56 510 38 C503 22 489 12 473 12 C459 12 445 21 438 34 C429 52 426 87 426 160 C426 229 429 264 436 283 C443 299 457 309 473 309 L473 309 Z M771 327 C701 327 645 253 645 161 C645 68 701 -6 771 -6 C840 -6 897 68 897 158 C897 253 842 327 771 327 L771 327 Z M771 309 C785 309 799 300 806 287 C815 269 818 235 818 158 C818 92 815 56 808 38 C801 22 787 12 771 12 C757 12 743 21 736 34 C727 52 724 87 724 160 C724 229 727 264 734 283 C741 299 755 309 771 309 L771 309 Z " />
<glyph glyph-name="guilsinglleft" unicode="&#x2039;" horiz-adv-x="241" d="M39 198 L139 94 L196 94 L95 198 L196 304 L142 304 L39 198 Z " />
<glyph glyph-name="guilsinglright" unicode="&#x203a;" horiz-adv-x="241" d="M202 200 L102 304 L45 304 L146 200 L45 94 L98 94 L202 200 Z " />
<glyph glyph-name="uni203E" unicode="&#x203e;" horiz-adv-x="500" d="M0 847 L0 807 L500 807 L500 847 L0 847 Z " />
<glyph glyph-name="fraction" unicode="&#x2044;" horiz-adv-x="85" d="M170 647 L-111 0 L-85 0 L196 647 L170 647 Z " />
<glyph glyph-name="franc" unicode="&#x20a3;" horiz-adv-x="664" d="M104 20 L29 20 L29 0 L275 0 L275 20 L211 20 L211 328 L238 328 C286 328 307 317 319 288 C327 268 329 255 332 196 L345 196 L345 471 L332 471 C331 368 313 346 227 348 L211 347 L211 647 L259 647 C368 648 378 646 413 604 C436 574 447 542 458 481 L470 481 L458 667 L29 667 L29 647 L104 647 L104 20 Z M443 20 L383 20 L383 0 L593 0 L593 20 L533 20 L533 84 C533 200 542 257 567 308 C574 323 584 333 590 333 C597 333 598 329 599 312 C600 283 615 265 637 265 C660 265 678 287 678 316 C678 350 656 374 625 374 C586 374 556 340 533 269 L533 364 L383 364 L383 344 L443 344 L443 20 Z " />
<glyph glyph-name="Euro" unicode="&#x20ac;" horiz-adv-x="567" d="M211 381 C212 455 218 512 227 550 C242 614 293 654 358 654 C439 654 497 595 519 491 L533 491 L533 667 L519 667 L489 620 C445 657 396 677 348 677 C281 677 209 637 159 573 C120 523 95 458 86 381 L46 381 L34 349 L84 349 L84 346 L84 333 L84 317 L46 317 L34 285 L86 285 C102 118 213 -10 341 -10 C392 -10 437 8 489 48 L519 0 L533 0 L533 189 L519 189 C484 71 428 13 351 13 C289 13 238 51 224 108 C214 147 210 201 210 285 L387 285 L399 317 L210 317 L210 320 L210 339 L210 346 L210 349 L411 349 L423 381 L211 381 Z " />
<glyph glyph-name="trademark" unicode="&#x2122;" horiz-adv-x="759" d="M138 306 L88 306 L88 287 L252 287 L252 306 L210 306 L210 648 L222 648 C269 653 294 622 308 541 L323 541 L319 667 L22 667 L18 541 L33 541 C47 621 74 653 123 648 L138 648 L138 306 Z M386 306 L342 306 L342 287 L450 287 L450 306 L408 306 L408 621 L504 287 L522 287 L610 617 L610 306 L573 306 L573 287 L725 287 L725 306 L681 306 L681 648 L725 648 L725 667 L605 667 L535 402 L459 667 L342 667 L342 648 L386 648 L386 306 Z " />
<glyph glyph-name="uni2126" unicode="&#x2126;" horiz-adv-x="768" d="M326 0 L308 155 C230 199 180 288 180 382 C180 434 195 493 221 540 C257 605 317 642 385 642 C453 642 513 605 549 540 C575 493 590 434 590 382 C590 288 540 199 462 155 L444 0 L736 0 L736 153 L712 153 C704 108 684 90 643 90 L497 90 L500 128 C535 141 557 151 580 166 C657 215 702 296 702 382 C702 449 673 522 625 578 C564 648 480 686 385 686 C290 686 206 648 145 578 C97 522 68 449 68 382 C68 296 113 215 190 166 C213 151 235 141 270 128 L273 90 L127 90 C86 90 66 108 58 153 L34 153 L34 0 L326 0 Z " />
<glyph glyph-name="partialdiff" unicode="&#x2202;" horiz-adv-x="494" d="M107 673 C152 697 184 706 219 706 C321 706 379 611 379 447 C379 418 377 394 372 346 C308 396 272 412 221 412 C172 412 131 394 95 355 C51 309 26 246 26 184 C26 76 109 -10 213 -10 C282 -10 341 22 383 84 C429 152 462 286 462 402 C462 519 429 610 360 681 C312 730 259 753 195 753 C156 753 121 745 66 724 L107 673 Z M366 312 C350 201 340 158 314 106 C288 54 245 21 201 21 C146 21 113 73 113 159 C113 273 180 367 261 367 C299 367 324 354 366 312 L366 312 Z " />
<glyph glyph-name="Delta" unicode="&#x2206;" horiz-adv-x="612" d="M6 0 L608 0 L327 688 L6 0 Z M77 51 L290 509 L479 51 L77 51 Z " />
<glyph glyph-name="product" unicode="&#x220f;" horiz-adv-x="823" d="M25 -124 L315 -124 L315 -98 L312 -98 C242 -94 221 -67 224 18 L224 594 C224 656 228 677 242 690 C260 707 272 708 413 708 C556 708 568 707 586 690 C600 677 604 656 604 594 L604 18 C607 -67 586 -94 516 -98 L513 -98 L513 -124 L803 -124 L803 -98 L800 -98 C730 -94 709 -67 712 18 L712 609 C709 694 730 721 800 725 L803 725 L803 751 L25 751 L25 725 L28 725 C98 721 119 694 116 609 L116 18 C119 -67 98 -94 28 -98 L25 -98 L25 -124 Z " />
<glyph glyph-name="summation" unicode="&#x2211;" horiz-adv-x="713" d="M176 711 L444 711 C560 710 590 688 606 587 L632 587 L622 752 L23 752 L256 285 L14 -123 L641 -123 L695 87 L669 87 C639 7 605 -12 491 -11 L163 -11 L364 341 L176 711 Z " />
<glyph glyph-name="minus" unicode="&#x2212;" horiz-adv-x="450" d="M42 341 L42 306 L408 306 L408 341 L42 341 Z " />
<glyph glyph-name="uni2215" unicode="&#x2215;" horiz-adv-x="85" d="M170 647 L-111 0 L-85 0 L196 647 L170 647 Z " />
<glyph glyph-name="uni2219" unicode="&#x2219;" horiz-adv-x="214" d="M108 259 C78 259 54 233 54 200 C54 168 77 142 106 142 C136 142 160 168 160 200 C160 232 136 259 108 259 L108 259 Z " />
<glyph glyph-name="radical" unicode="&#x221a;" horiz-adv-x="549" d="M363 -35 L515 908 L480 913 L353 123 L156 520 L10 449 L26 414 L121 461 L363 -35 Z " />
<glyph glyph-name="infinity" unicode="&#x221e;" horiz-adv-x="713" d="M357 227 C415 156 485 115 548 115 C631 115 688 176 688 266 C688 354 629 414 543 414 C476 414 412 376 357 303 C300 375 234 414 171 414 C86 414 26 351 26 263 C26 176 84 115 167 115 C224 115 281 142 327 192 L357 227 Z M391 264 C434 325 493 362 546 362 C600 362 638 321 638 264 C638 205 603 167 549 167 C495 167 461 188 391 264 L391 264 Z M324 266 C275 203 216 167 163 167 C111 167 76 207 76 266 C76 323 113 362 167 362 C218 362 258 337 324 266 L324 266 Z " />
<glyph glyph-name="integral" unicode="&#x222b;" horiz-adv-x="274" d="M180 576 C180 653 179 691 176 746 C174 774 173 800 173 815 C173 855 184 878 202 878 C208 878 213 876 215 872 C232 845 239 839 256 839 C276 839 291 853 291 871 C291 898 267 916 231 916 C186 916 152 887 138 838 C123 784 113 682 113 577 L113 232 C113 160 114 124 117 63 C119 34 120 4 120 -12 C120 -47 108 -70 89 -70 C81 -70 74 -65 68 -52 C59 -35 51 -30 37 -30 C17 -30 2 -44 2 -63 C2 -89 26 -107 62 -107 C107 -107 141 -78 155 -29 C170 25 180 126 180 232 L180 576 Z " />
<glyph glyph-name="approxequal" unicode="&#x2248;" horiz-adv-x="549" d="M489 251 C444 199 423 187 384 187 C365 187 354 190 285 211 C212 234 188 239 160 239 C101 239 54 211 14 155 L57 121 C103 174 120 184 159 184 C180 184 180 184 271 157 C350 133 354 132 385 132 C449 132 496 160 527 217 L489 251 Z M489 408 C443 356 423 344 384 344 C365 344 354 347 285 368 C212 391 188 396 160 396 C101 396 54 369 14 312 L57 278 C103 331 119 341 159 341 C180 341 180 341 271 314 C350 290 354 289 385 289 C449 289 496 317 527 374 L489 408 Z " />
<glyph glyph-name="notequal" unicode="&#x2260;" horiz-adv-x="549" d="M187 142 L115 -1 L161 -25 L246 142 L540 142 L540 197 L273 197 L344 336 L540 336 L540 391 L371 391 L439 525 L392 549 L312 391 L15 391 L15 336 L285 336 L215 197 L15 197 L15 142 L187 142 Z " />
<glyph glyph-name="lessequal" unicode="&#x2264;" horiz-adv-x="549" d="M526 55 L29 55 L29 0 L526 0 L526 55 Z M526 639 L29 405 L29 350 L526 117 L526 179 L108 378 L526 577 L526 639 Z " />
<glyph glyph-name="greaterequal" unicode="&#x2265;" horiz-adv-x="549" d="M526 55 L29 55 L29 0 L526 0 L526 55 Z M29 639 L29 577 L447 378 L29 179 L29 117 L526 350 L526 405 L29 639 Z " />
<glyph glyph-name="lozenge" unicode="&#x25ca;" horiz-adv-x="494" d="M209 0 L269 -1 L466 374 L277 740 L214 740 L18 377 L209 0 Z M240 58 L81 376 L245 683 L402 373 L240 58 Z " />
<glyph glyph-name="fi" unicode="&#xfb01;" horiz-adv-x="465" d="M390 393 L178 393 L178 528 C178 605 179 612 189 628 C201 648 224 659 255 659 C279 659 297 654 317 640 C302 625 296 611 296 591 C296 560 318 537 348 537 C377 537 398 560 398 593 C398 644 341 680 259 680 C201 680 158 661 128 622 C98 585 88 546 88 474 L88 393 L28 393 L28 373 L88 373 L88 20 L28 20 L28 0 L223 0 L223 20 L178 20 L178 373 L300 373 L300 20 L255 20 L255 0 L450 0 L450 20 L390 20 L390 393 Z " />
<glyph glyph-name="fl" unicode="&#xfb02;" horiz-adv-x="465" d="M178 20 L178 373 L251 373 L251 393 L178 393 L178 528 C178 605 179 612 189 628 C201 648 221 659 244 659 C271 659 287 647 295 622 C299 608 300 604 300 547 L300 20 L255 20 L255 0 L450 0 L450 20 L390 20 L390 680 L309 673 C275 679 268 680 251 680 C197 680 155 661 126 622 C98 585 88 546 88 474 L88 393 L28 393 L28 373 L88 373 L88 20 L28 20 L28 0 L223 0 L223 20 L178 20 Z " />
</font>
</svg>
