<?xml version="1.0" encoding="UTF-8"?>
<svg xmlns="http://www.w3.org/2000/svg" xmlns:xlink="http://www.w3.org/1999/xlink" version="1.2" >
<font id="Futura Outline P Extra Bold">
<font-face  font-family="Futura Outline P" units-per-em="1000" ascent="726" descent="-274" font-style="normal" font-weight="800" font-stretch="normal" cap-height="667" x-height="477" underline-position="-3" underline-thickness="150" />
<missing-glyph  horiz-adv-x="250" d="" />
<glyph glyph-name="NULL" d="" />
<glyph glyph-name="CR" unicode="&#xd;" horiz-adv-x="250" d="" />
<glyph glyph-name="space" unicode="&#x20;" horiz-adv-x="250" d="" />
<glyph glyph-name="exclam" unicode="&#x21;" horiz-adv-x="340" d="M57 192 C47 168 43 152 43 131 C43 52 107 -13 185 -13 C265 -13 329 51 329 131 C329 156 325 173 312 199 L312 707 L57 707 L57 192 Z M77 687 L292 687 L292 226 C264 257 227 273 185 273 C142 273 105 256 77 222 L77 687 Z M185 254 C254 254 309 199 309 131 C309 62 254 7 185 7 C117 7 63 63 63 132 C63 198 119 254 185 254 L185 254 Z " />
<glyph glyph-name="quotedbl" unicode="&#x22;" horiz-adv-x="337" d="M323 667 L13 667 L39 372 L167 372 L168 387 L169 372 L297 372 L323 667 Z M146 647 L159 507 L148 392 L57 392 L35 647 L146 647 Z M279 392 L188 392 L165 647 L302 647 L279 392 Z " />
<glyph glyph-name="numbersign" unicode="&#x23;" horiz-adv-x="523" d="M306 373 L238 373 L230 307 L298 307 L306 373 Z M283 353 L280 327 L253 327 L256 353 L283 353 Z M499 327 L418 327 L421 353 L517 353 L517 489 L438 489 L460 667 L322 667 L300 489 L273 489 L295 667 L158 667 L136 489 L28 489 L28 353 L120 353 L116 327 L7 327 L7 191 L99 191 L76 0 L212 0 L236 191 L263 191 L239 0 L377 0 L401 191 L499 191 L499 327 Z M479 307 L479 211 L383 211 L360 20 L262 20 L286 211 L218 211 L194 20 L99 20 L122 211 L27 211 L27 307 L134 307 L142 373 L48 373 L48 469 L154 469 L176 647 L272 647 L250 469 L318 469 L340 647 L437 647 L415 469 L497 469 L497 373 L403 373 L395 307 L479 307 Z " />
<glyph glyph-name="dollar" unicode="&#x24;" horiz-adv-x="568" d="M2 87 C75 38 139 14 209 7 L209 -109 L360 -109 L360 10 C421 23 451 36 487 68 C532 110 558 169 558 231 C558 350 487 417 340 436 L289 443 C265 446 258 450 258 460 C258 474 273 482 300 482 C328 482 364 475 391 464 C408 457 408 457 453 427 L530 612 C465 647 424 661 364 668 L364 767 L205 767 L205 661 C168 651 152 645 131 632 C67 591 28 522 28 449 C28 380 63 318 119 287 C149 271 186 259 234 250 L291 241 C312 237 323 230 323 219 C323 205 304 197 269 197 C229 197 189 210 149 235 C129 247 126 250 80 288 L2 87 Z M89 255 C156 199 208 177 268 177 C317 177 344 192 344 219 C344 240 326 255 294 260 L237 270 C191 278 156 289 128 305 C79 332 48 387 48 449 C48 546 115 623 219 643 L225 645 L225 747 L344 747 L344 650 C405 645 450 631 505 602 L444 459 C398 488 352 502 300 502 C262 502 238 486 238 460 C238 438 251 428 286 423 L337 416 C406 407 450 391 484 362 C518 333 538 285 538 231 C538 121 461 42 340 27 L340 -89 L229 -89 L229 26 C165 27 94 51 26 95 L89 255 Z " />
<glyph glyph-name="percent" unicode="&#x25;" horiz-adv-x="831" d="M607 233 C582 233 564 212 564 184 C564 155 580 136 605 136 C631 136 648 156 648 186 C648 214 631 233 607 233 L607 233 Z M607 213 C620 213 628 203 628 186 C628 167 619 156 605 156 C591 156 584 166 584 184 C584 201 594 213 607 213 L607 213 Z M229 537 C205 537 187 516 187 487 C187 458 203 439 227 439 C253 439 270 459 270 489 C270 518 254 537 229 537 L229 537 Z M229 517 C242 517 250 507 250 489 C250 470 242 459 228 459 C214 459 207 469 207 487 C207 504 217 517 229 517 L229 517 Z M390 147 C408 49 489 -9 606 -9 C733 -9 821 70 821 183 C821 295 734 373 607 373 C567 373 532 367 493 352 L638 638 L528 693 L441 521 C422 618 343 676 228 676 C92 676 9 605 9 489 C9 372 96 294 228 294 C268 294 302 301 337 316 L192 29 L302 -26 L390 147 Z M462 335 C414 303 389 255 387 187 L293 1 L219 38 L371 337 C415 371 441 422 443 480 L537 666 L611 629 L462 335 Z M605 353 C723 353 801 285 801 181 C801 79 721 11 602 11 C484 11 406 81 406 186 C406 291 480 353 605 353 L605 353 Z M228 656 C346 656 424 588 424 484 C424 382 344 314 225 314 C107 314 29 384 29 489 C29 594 103 656 228 656 L228 656 Z " />
<glyph glyph-name="ampersand" unicode="&#x26;" horiz-adv-x="830" d="M279 266 C247 245 238 233 238 213 C238 182 263 162 299 162 C317 162 323 164 364 181 L279 266 Z M328 188 C315 183 309 182 299 182 C274 182 258 194 258 212 C258 223 262 229 276 240 L328 188 Z M361 429 C393 447 408 465 408 486 C408 507 390 526 370 526 C346 526 327 507 327 482 C327 462 338 445 361 429 L361 429 Z M362 453 C353 461 347 474 347 482 C347 496 357 506 370 506 C380 506 388 496 388 486 C388 476 379 464 362 453 L362 453 Z M513 0 L827 0 L666 153 C670 156 675 159 680 162 C710 183 714 186 727 197 C739 207 739 207 762 227 L619 391 C555 316 553 315 523 292 L494 321 C561 352 604 415 604 484 C604 546 567 604 505 641 C461 666 419 677 359 677 C287 677 233 663 189 634 C136 599 106 543 106 483 C106 442 119 411 152 374 C58 347 9 288 9 205 C9 138 43 76 104 35 C149 5 203 -9 278 -9 C358 -9 408 4 476 44 L513 0 Z M522 20 L480 70 C404 24 360 11 278 11 C214 11 167 21 129 43 C66 79 29 139 29 205 C29 260 52 301 101 331 C124 346 139 351 191 364 C140 413 126 438 126 483 C126 537 153 585 200 617 C241 645 290 657 358 657 C415 657 454 648 495 624 C551 591 584 539 584 484 C584 437 559 390 520 359 C503 347 494 342 459 329 L521 266 C563 296 568 301 619 361 L734 229 C705 203 703 202 669 179 C663 175 655 169 647 164 C642 161 638 158 634 155 L777 20 L522 20 Z " />
<glyph glyph-name="quotesingle" unicode="&#x27;" horiz-adv-x="207" d="M167 372 L193 667 L13 667 L39 372 L167 372 Z M148 392 L57 392 L35 647 L171 647 L148 392 Z " />
<glyph glyph-name="parenleft" unicode="&#x28;" horiz-adv-x="332" d="M139 780 C128 754 128 754 127 753 C72 644 72 644 53 585 C30 508 19 436 19 352 C19 226 47 91 93 -10 C115 -60 131 -94 139 -114 L329 -3 C304 62 297 82 290 106 C268 177 254 274 254 351 C254 424 267 506 290 572 C299 599 299 599 330 670 L139 780 Z M148 752 L304 661 C252 540 234 460 234 351 C234 288 244 206 260 141 C269 103 277 78 304 6 L149 -85 L145 -77 C90 43 90 43 72 107 C50 187 39 267 39 352 C39 469 65 586 111 677 L145 744 L148 752 Z " />
<glyph glyph-name="parenright" unicode="&#x29;" horiz-adv-x="332" d="M192 -113 C193 -110 197 -103 205 -87 C260 22 260 23 279 82 C302 158 313 231 313 316 C313 441 286 573 239 677 C210 741 195 775 193 780 L3 670 C20 624 35 583 41 561 C63 489 77 393 77 316 C77 242 64 160 42 95 C34 72 30 62 2 -3 L192 -113 Z M27 6 C79 125 97 206 97 316 C97 432 77 530 27 661 L183 752 L187 743 C242 623 242 623 259 560 C282 480 293 399 293 315 C293 198 267 80 221 -10 C198 -55 185 -80 183 -85 L27 6 Z " />
<glyph glyph-name="asterisk" unicode="&#x2a;" horiz-adv-x="424" d="M145 631 L58 669 L11 525 L104 504 L41 433 L163 344 L212 426 L260 344 L382 433 L320 504 L412 525 L366 669 L278 631 L287 726 L136 726 L145 631 Z M168 600 L158 706 L265 706 L255 600 L354 642 L387 540 L283 516 L353 436 L266 373 L212 465 L157 373 L70 436 L141 516 L37 540 L70 642 L168 600 Z " />
<glyph glyph-name="plus" unicode="&#x2b;" horiz-adv-x="522" d="M7 253 L175 253 L175 92 L348 92 L348 253 L515 253 L515 426 L348 426 L348 588 L175 588 L175 426 L7 426 L7 253 Z M27 273 L27 406 L195 406 L195 568 L328 568 L328 406 L495 406 L495 273 L328 273 L328 112 L195 112 L195 273 L27 273 Z " />
<glyph glyph-name="comma" unicode="&#x2c;" horiz-adv-x="322" d="M156 -152 L322 195 L65 195 L-47 -152 L156 -152 Z M143 -132 L-19 -132 L80 175 L290 175 L143 -132 Z " />
<glyph glyph-name="hyphen" unicode="&#x2d;" horiz-adv-x="360" d="M13 142 L346 142 L346 348 L13 348 L13 142 Z M33 162 L33 328 L326 328 L326 162 L33 162 Z " />
<glyph glyph-name="period" unicode="&#x2e;" horiz-adv-x="306" d="M152 274 C74 274 9 209 9 132 C9 52 73 -13 152 -13 C232 -13 296 51 296 131 C296 210 232 274 152 274 L152 274 Z M152 254 C221 254 276 199 276 131 C276 62 221 7 152 7 C84 7 29 63 29 132 C29 198 85 254 152 254 L152 254 Z " />
<glyph glyph-name="slash" unicode="&#x2f;" horiz-adv-x="527" d="M323 726 L2 -63 L202 -63 L524 726 L323 726 Z M337 706 L494 706 L189 -43 L32 -43 L337 706 Z " />
<glyph glyph-name="zero" unicode="0" horiz-adv-x="654" d="M327 475 C277 475 242 417 242 333 C242 249 273 200 326 200 C380 200 411 248 411 330 C411 416 377 475 327 475 L327 475 Z M327 455 C364 455 391 403 391 331 C391 260 368 220 326 220 C285 220 262 261 262 333 C262 404 289 455 327 455 L327 455 Z M330 676 C134 676 9 542 9 332 C9 239 31 167 78 107 C138 30 222 -9 327 -9 C414 -9 485 17 544 72 C612 135 645 218 645 325 C645 536 519 676 330 676 L330 676 Z M330 656 C508 656 625 524 625 325 C625 232 599 159 545 102 C488 41 416 11 327 11 C236 11 164 41 108 102 C54 160 29 234 29 331 C29 531 145 656 330 656 L330 656 Z " />
<glyph glyph-name="one" unicode="1" horiz-adv-x="392" d="M104 0 L366 0 L366 668 L7 656 L7 422 L104 429 L104 0 Z M124 20 L124 450 L27 443 L27 637 L346 647 L346 20 L124 20 Z " />
<glyph glyph-name="two" unicode="2" horiz-adv-x="698" d="M691 0 L691 229 L541 220 C634 273 683 348 683 436 C683 502 655 561 601 607 C546 654 480 676 394 676 C245 676 138 611 104 500 C97 475 94 453 86 375 L345 375 C349 442 355 455 385 455 C406 455 421 441 421 421 C421 390 375 332 295 260 L121 106 C103 90 75 64 63 55 C43 36 22 18 2 0 L691 0 Z M671 20 L54 20 C62 28 127 85 134 91 L308 245 C395 323 441 383 441 421 C441 452 417 475 385 475 C346 475 329 451 326 395 L108 395 C116 475 122 502 141 537 C184 613 276 656 394 656 C475 656 537 635 588 592 C637 550 663 496 663 436 C663 362 621 292 549 247 C526 233 510 225 447 193 L671 208 L671 20 Z " />
<glyph glyph-name="three" unicode="3" horiz-adv-x="632" d="M2 246 C8 170 16 143 43 103 C92 31 190 -9 318 -9 C395 -9 466 6 511 30 C579 68 623 138 623 210 C623 276 589 332 535 357 C576 388 596 428 596 478 C596 534 566 586 513 625 C466 660 402 677 317 677 C194 677 109 640 64 566 C41 529 36 514 26 433 L273 433 L273 447 C273 478 286 492 312 492 C334 492 349 477 349 455 C349 430 331 413 307 413 C303 413 299 413 295 414 L284 415 C284 416 278 416 273 417 L273 276 C298 282 307 283 318 283 C348 283 372 259 372 229 C372 199 348 175 317 175 C297 175 278 184 268 198 C261 209 259 215 258 246 L2 246 Z M239 226 C241 201 246 190 260 177 C275 163 296 155 317 155 C359 155 392 188 392 229 C392 269 359 303 319 303 C313 303 303 302 293 300 L293 394 C299 393 305 393 309 393 C342 393 369 421 369 456 C369 489 345 512 312 512 C276 512 254 490 253 453 L49 453 C57 515 70 549 100 582 C145 632 217 657 317 657 C391 657 448 644 490 617 C544 582 576 531 576 478 C576 421 544 376 491 357 C490 357 486 356 482 354 C517 343 525 340 537 334 C575 313 603 262 603 210 C603 152 570 92 517 57 C473 28 401 11 318 11 C226 11 144 34 96 74 C51 111 31 151 24 226 L239 226 Z " />
<glyph glyph-name="four" unicode="4" horiz-adv-x="657" d="M349 306 L349 469 L227 306 L349 306 Z M329 326 L267 326 L329 409 L329 326 Z M573 0 L567 125 L651 119 L651 333 L572 327 L572 667 L275 667 L7 309 L7 120 L327 126 L319 0 L573 0 Z M552 20 L340 20 L348 147 L27 140 L27 302 L285 647 L552 647 L552 306 L631 311 L631 140 L546 147 L552 20 Z " />
<glyph glyph-name="five" unicode="5" horiz-adv-x="603" d="M92 667 L32 261 C120 289 163 297 219 297 C285 297 330 273 330 239 C330 209 289 185 236 185 C181 185 122 202 31 244 L2 49 C70 16 191 -10 273 -10 C351 -10 435 15 495 55 C555 96 593 165 593 234 C593 353 494 440 359 440 C326 440 304 436 275 427 L282 463 L554 463 L554 667 L92 667 Z M109 647 L534 647 L534 483 L265 483 L247 390 C277 411 311 420 358 420 C483 420 573 342 573 235 C573 172 539 109 484 72 C427 34 347 10 273 10 C204 10 74 36 24 61 L47 214 C108 185 183 165 234 165 C301 165 350 196 350 239 C350 286 298 317 220 317 C167 317 130 311 57 290 L109 647 Z " />
<glyph glyph-name="six" unicode="6" horiz-adv-x="652" d="M322 348 C279 348 243 311 243 265 C243 220 277 185 323 185 C371 185 406 218 406 263 C406 310 369 348 322 348 L322 348 Z M322 328 C358 328 386 299 386 263 C386 230 360 205 323 205 C288 205 263 230 263 265 C263 300 290 328 322 328 L322 328 Z M266 667 L113 510 C45 440 8 358 8 277 C8 204 41 127 93 77 C149 22 234 -9 326 -9 C510 -9 642 104 642 262 C642 391 552 493 437 493 C434 493 428 493 421 492 L620 667 L266 667 Z M275 647 L567 647 L356 462 C398 470 420 473 437 473 C541 473 622 380 622 262 C622 115 499 11 326 11 C239 11 159 40 107 91 C59 138 28 210 28 277 C28 353 63 430 127 496 L275 647 Z " />
<glyph glyph-name="seven" unicode="7" horiz-adv-x="680" d="M299 0 L678 667 L18 667 L18 429 L266 437 L5 0 L299 0 Z M287 20 L40 20 L302 458 L38 450 L38 647 L644 647 L287 20 Z " />
<glyph glyph-name="eight" unicode="8" horiz-adv-x="630" d="M315 504 C287 504 264 481 264 453 C264 426 287 403 315 403 C343 403 366 425 366 454 C366 481 343 504 315 504 L315 504 Z M315 484 C332 484 346 470 346 453 C346 436 332 423 315 423 C298 423 284 437 284 453 C284 470 298 484 315 484 L315 484 Z M316 287 C280 287 250 258 250 222 C250 187 280 157 316 157 C353 157 382 186 382 222 C382 258 353 287 316 287 L316 287 Z M316 267 C342 267 362 247 362 222 C362 197 341 177 316 177 C291 177 270 198 270 222 C270 247 291 267 316 267 L316 267 Z M526 347 C575 373 600 415 600 469 C600 535 559 601 496 636 C449 662 387 676 316 676 C147 676 29 592 29 472 C29 416 55 372 104 344 C76 330 63 321 50 308 C25 280 9 239 9 199 C9 132 54 65 121 31 C175 4 239 -9 318 -9 C399 -9 461 5 515 35 C581 72 620 135 620 202 C620 244 605 284 577 313 C564 326 553 334 526 347 L526 347 Z M151 347 C119 358 108 363 92 376 C65 399 49 434 49 473 C49 581 159 656 316 656 C383 656 441 643 486 619 C543 587 580 528 580 469 C580 422 557 385 514 363 C502 357 498 355 465 344 C506 334 517 330 533 322 C575 298 600 254 600 202 C600 142 564 86 505 52 C454 24 395 11 318 11 C242 11 181 23 130 49 C69 79 29 140 29 199 C29 245 51 288 85 311 C103 323 116 329 160 344 L151 347 Z " />
<glyph glyph-name="nine" unicode="9" horiz-adv-x="655" d="M330 477 C287 477 251 442 251 398 C251 354 287 318 330 318 C374 318 409 353 409 398 C409 442 374 477 330 477 L330 477 Z M330 457 C363 457 389 431 389 398 C389 364 363 338 330 338 C298 338 271 365 271 398 C271 431 297 457 330 457 L330 457 Z M388 0 L547 167 C613 237 645 311 645 396 C645 567 517 677 319 677 C135 677 9 568 9 408 C9 309 57 227 136 194 C167 181 195 174 225 171 L31 0 L388 0 Z M379 20 L84 20 L282 194 C255 192 246 191 237 191 C185 191 116 219 86 252 C50 290 29 349 29 409 C29 557 146 657 319 657 C506 657 625 556 625 396 C625 316 595 247 532 181 L379 20 Z " />
<glyph glyph-name="colon" unicode="&#x3a;" horiz-adv-x="332" d="M85 239 C52 208 36 172 36 131 C36 51 100 -13 180 -13 C259 -13 323 52 323 131 C323 170 306 208 274 239 C305 266 323 306 323 346 C323 425 259 490 181 490 C100 490 36 426 36 346 C36 305 53 267 85 239 L85 239 Z M258 250 C235 266 210 273 180 273 C151 273 127 266 102 250 C71 277 56 308 56 346 C56 415 111 470 180 470 C248 470 303 414 303 346 C303 310 287 276 258 250 L258 250 Z M180 254 C248 254 303 198 303 129 C303 63 247 7 181 7 C111 7 56 62 56 131 C56 199 111 254 180 254 L180 254 Z " />
<glyph glyph-name="semicolon" unicode="&#x3b;" horiz-adv-x="348" d="M156 -152 L322 195 L65 195 L-47 -152 L156 -152 Z M143 -132 L-19 -132 L80 175 L290 175 L143 -132 Z M193 490 C116 490 51 425 51 348 C51 268 115 203 194 203 C274 203 338 267 338 347 C338 426 274 490 193 490 L193 490 Z M194 470 C263 470 318 415 318 346 C318 278 263 223 194 223 C126 223 71 279 71 348 C71 414 127 470 194 470 L194 470 Z " />
<glyph glyph-name="less" unicode="&#x3c;" horiz-adv-x="514" d="M481 682 L34 429 L34 248 L481 -5 L481 229 L295 338 L481 446 L481 682 Z M454 636 L454 462 L242 338 L454 214 L454 41 L61 264 L61 414 L454 636 Z " />
<glyph glyph-name="equal" unicode="&#x3d;" horiz-adv-x="522" d="M7 358 L515 358 L515 499 L7 499 L7 358 Z M27 378 L27 479 L495 479 L495 378 L27 378 Z M7 180 L515 180 L515 322 L7 322 L7 180 Z M27 200 L27 302 L495 302 L495 200 L27 200 Z " />
<glyph glyph-name="greater" unicode="&#x3e;" horiz-adv-x="514" d="M33 -4 L481 248 L481 429 L33 682 L33 448 L219 339 L33 231 L33 -4 Z M60 41 L60 215 L272 339 L60 463 L60 636 L454 413 L454 263 L60 41 Z " />
<glyph glyph-name="question" unicode="&#x3f;" horiz-adv-x="562" d="M198 248 C160 219 138 176 138 131 C138 52 202 -13 281 -13 C361 -13 425 51 425 131 C425 177 404 218 365 247 C483 276 552 357 552 468 C552 540 520 614 470 657 C425 694 354 717 281 717 C166 717 71 659 28 561 C16 533 13 517 9 457 L257 457 C258 465 259 472 259 474 C262 498 271 510 286 510 C301 510 309 501 309 485 C309 455 286 434 253 434 C240 434 240 434 192 449 L192 249 L198 248 Z M212 266 L212 422 C231 416 241 414 253 414 C297 414 329 443 329 485 C329 512 312 530 286 530 C260 530 244 512 239 477 L30 477 C34 520 38 538 52 564 C95 649 178 697 281 697 C350 697 416 676 457 641 C502 603 532 534 532 468 C532 359 456 279 336 262 C315 270 300 273 280 273 C260 273 246 270 227 263 L212 266 Z M281 254 C350 254 405 199 405 131 C405 62 350 7 281 7 C213 7 158 63 158 132 C158 198 214 254 281 254 L281 254 Z " />
<glyph glyph-name="at" unicode="&#x40;" horiz-adv-x="688" d="M404 367 C410 386 414 404 414 417 C414 444 397 464 374 464 C342 464 310 436 288 388 C268 345 253 291 253 263 C253 227 270 205 296 205 C332 205 358 235 382 304 L404 367 Z M363 310 C342 251 322 225 296 225 C281 225 273 239 273 263 C273 288 287 338 306 380 C324 419 350 444 373 444 C385 444 394 433 394 416 C394 406 391 390 385 373 L363 310 Z M547 160 C476 98 434 79 364 79 C219 79 104 195 104 343 C104 489 215 602 359 602 C436 602 500 571 546 510 L435 510 L430 496 C401 517 372 526 338 526 C232 526 131 416 131 301 C131 214 192 149 275 149 C307 149 327 156 373 183 C393 163 419 153 448 153 C489 153 541 172 580 201 C642 247 678 319 678 397 C678 557 534 688 360 688 C164 688 9 535 9 342 C9 147 166 -9 361 -9 C441 -9 514 17 579 70 C584 74 587 76 606 93 L547 160 Z M577 95 C509 37 441 11 361 11 C177 11 29 158 29 342 C29 524 175 668 360 668 C523 668 658 546 658 397 C658 326 625 259 568 217 C532 191 485 173 448 173 C427 173 402 182 390 194 C388 196 385 199 378 209 C320 174 306 169 275 169 C203 169 151 225 151 301 C151 405 243 506 338 506 C368 506 402 494 422 477 L438 461 L449 490 L540 490 L467 262 C466 258 465 253 463 248 C460 241 458 234 458 231 C458 219 470 208 482 208 C504 208 540 232 563 262 C591 297 608 345 608 390 C608 517 495 622 359 622 C204 622 84 500 84 343 C84 184 208 59 364 59 C433 59 486 80 545 131 L577 95 Z M560 488 C582 447 588 425 588 391 C588 340 566 288 530 256 C514 241 492 228 484 228 C482 228 481 228 480 230 L479 231 L478 231 C481 241 481 241 486 256 L560 488 Z " />
<glyph glyph-name="A" unicode="A" horiz-adv-x="752" d="M324 243 L425 243 L375 453 L324 243 Z M350 263 L375 367 L399 263 L350 263 Z M299 79 L448 79 L469 0 L749 0 L512 667 L233 667 L2 0 L282 0 L299 79 Z M283 99 L266 20 L30 20 L247 647 L498 647 L721 20 L484 20 L463 99 L283 99 Z " />
<glyph glyph-name="B" unicode="B" horiz-adv-x="608" d="M249 404 L289 404 C325 404 348 423 348 454 C348 486 329 501 289 501 L249 501 L249 404 Z M269 424 L269 481 L289 481 C318 481 328 474 328 454 C328 435 314 424 289 424 L269 424 Z M249 166 L299 166 C345 166 372 186 372 221 C372 256 346 277 302 277 L249 277 L249 166 Z M269 186 L269 257 L302 257 C334 257 352 244 352 221 C352 198 334 186 299 186 L269 186 Z M23 667 L23 0 L362 0 C443 0 513 25 552 68 C583 102 601 148 601 193 C601 260 573 306 508 346 C549 374 571 420 571 477 C571 522 556 563 528 596 C489 643 418 667 317 667 L23 667 Z M43 647 L317 647 C399 647 466 629 500 598 C533 567 551 524 551 477 C551 425 529 381 492 359 C482 353 482 353 454 344 C482 336 484 336 496 329 C550 301 581 251 581 193 C581 160 570 127 550 98 C515 48 449 20 362 20 L43 20 L43 647 Z " />
<glyph glyph-name="C" unicode="C" horiz-adv-x="552" d="M536 308 C483 261 483 261 472 253 C449 237 416 227 389 227 C325 227 276 274 276 335 C276 394 324 440 384 440 C413 440 448 426 478 404 C486 399 486 399 536 356 L528 647 C466 668 420 676 354 676 C161 676 9 522 9 327 C9 138 158 -10 349 -10 C394 -10 471 0 501 10 C507 12 508 13 528 21 L536 308 Z M508 35 C475 21 405 10 348 10 C169 10 29 150 29 327 C29 511 172 656 354 656 C409 656 464 648 508 633 L514 401 C466 442 427 460 384 460 C313 460 256 405 256 335 C256 263 314 207 389 207 C434 207 470 223 514 262 L508 35 Z " />
<glyph glyph-name="D" unicode="D" horiz-adv-x="676" d="M265 207 L300 207 C372 207 423 259 423 331 C423 408 374 459 300 459 L265 459 L265 207 Z M285 227 L285 439 L300 439 C363 439 403 397 403 331 C403 270 361 227 300 227 L285 227 Z M23 0 L341 0 C425 0 505 30 567 85 C635 145 666 222 666 328 C666 539 522 667 284 667 L23 667 L23 0 Z M43 20 L43 647 L284 647 C511 647 646 528 646 328 C646 242 624 176 579 126 C521 59 432 20 341 20 L43 20 Z " />
<glyph glyph-name="E" unicode="E" horiz-adv-x="504" d="M23 0 L490 0 L490 207 L287 207 L287 234 L466 234 L466 434 L287 434 L287 460 L484 460 L484 667 L23 667 L23 0 Z M43 20 L43 647 L464 647 L464 480 L267 480 L267 414 L446 414 L446 254 L267 254 L267 187 L470 187 L470 20 L43 20 Z " />
<glyph glyph-name="F" unicode="F" horiz-adv-x="491" d="M23 0 L287 0 L287 222 L456 222 L456 422 L287 422 L287 453 L480 453 L480 667 L23 667 L23 0 Z M43 20 L43 647 L460 647 L460 473 L267 473 L267 402 L436 402 L436 242 L267 242 L267 20 L43 20 Z " />
<glyph glyph-name="G" unicode="G" horiz-adv-x="744" d="M491 407 L712 489 C681 546 677 551 642 582 C568 646 482 677 376 677 C159 677 9 536 9 331 C9 130 158 -10 371 -10 C547 -10 694 96 726 244 C733 276 736 320 738 407 L491 407 Z M348 407 L348 223 L439 223 C414 206 401 202 378 202 C316 202 275 250 275 322 C275 396 321 450 385 450 C421 450 438 441 460 407 L348 407 Z M368 387 L717 387 C715 306 711 261 701 229 C662 98 529 10 371 10 C169 10 29 142 29 331 C29 525 170 657 376 657 C462 657 533 636 595 593 C639 563 663 537 683 500 L474 422 C451 456 426 470 385 470 C310 470 255 407 255 322 C255 239 305 182 378 182 C417 182 455 201 468 227 C469 231 470 234 473 243 L368 243 L368 387 Z " />
<glyph glyph-name="H" unicode="H" horiz-adv-x="664" d="M23 0 L278 0 L278 220 L385 220 L385 0 L640 0 L640 667 L385 667 L385 453 L278 453 L278 667 L23 667 L23 0 Z M43 20 L43 647 L258 647 L258 433 L405 433 L405 647 L620 647 L620 20 L405 20 L405 240 L258 240 L258 20 L43 20 Z " />
<glyph glyph-name="I" unicode="I" horiz-adv-x="311" d="M23 0 L287 0 L287 667 L23 667 L23 0 Z M43 20 L43 647 L267 647 L267 20 L43 20 Z " />
<glyph glyph-name="J" unicode="J" horiz-adv-x="464" d="M184 667 L184 264 C184 237 176 223 161 223 C149 223 138 231 132 245 C129 252 129 252 109 321 L2 71 C27 53 30 51 39 45 C90 12 156 -9 212 -9 C343 -9 444 88 444 214 L444 667 L184 667 Z M204 647 L424 647 L424 214 C424 99 332 11 212 11 C150 11 87 33 27 78 L105 262 C110 246 113 239 116 233 C125 215 143 203 161 203 C188 203 204 225 204 264 L204 647 Z " />
<glyph glyph-name="K" unicode="K" horiz-adv-x="711" d="M23 0 L278 0 L278 212 L399 0 L708 0 L477 342 L686 667 L394 667 L278 449 L278 667 L23 667 L23 0 Z M43 20 L43 647 L258 647 L258 369 L406 647 L649 647 L453 342 L670 20 L411 20 L258 288 L258 20 L43 20 Z " />
<glyph glyph-name="L" unicode="L" horiz-adv-x="492" d="M23 0 L481 0 L481 237 L287 237 L287 667 L23 667 L23 0 Z M43 20 L43 647 L267 647 L267 217 L461 217 L461 20 L43 20 Z " />
<glyph glyph-name="M" unicode="M" horiz-adv-x="902" d="M2 0 L260 0 L287 267 L369 0 L528 0 L615 270 L643 0 L899 0 L790 667 L528 667 L452 392 L373 667 L110 667 L2 0 Z M26 20 L127 647 L358 647 L452 319 L543 647 L773 647 L876 20 L661 20 L625 366 L513 20 L383 20 L278 367 L242 20 L26 20 Z " />
<glyph glyph-name="N" unicode="N" horiz-adv-x="714" d="M23 0 L277 0 L274 271 L444 0 L690 0 L690 667 L436 667 L439 386 L269 667 L23 667 L23 0 Z M43 20 L43 647 L258 647 L460 312 L456 647 L670 647 L670 20 L455 20 L253 342 L257 20 L43 20 Z " />
<glyph glyph-name="O" unicode="O" horiz-adv-x="752" d="M377 459 C307 459 256 406 256 335 C256 260 305 208 377 208 C448 208 496 258 496 332 C496 406 446 459 377 459 L377 459 Z M376 439 C435 439 476 395 476 332 C476 269 437 228 377 228 C316 228 276 271 276 335 C276 395 318 439 376 439 L376 439 Z M378 677 C283 677 189 646 128 594 C53 531 9 436 9 339 C9 134 157 -10 368 -10 C587 -10 742 132 742 333 C742 535 592 677 378 677 L378 677 Z M379 657 C581 657 722 524 722 333 C722 143 576 10 368 10 C169 10 29 145 29 339 C29 417 60 495 115 554 C179 622 269 657 379 657 L379 657 Z " />
<glyph glyph-name="P" unicode="P" horiz-adv-x="618" d="M261 364 L304 364 C346 364 373 388 373 424 C373 459 348 480 307 480 L261 480 L261 364 Z M281 384 L281 460 L307 460 C337 460 353 447 353 424 C353 399 335 384 304 384 L281 384 Z M23 0 L281 0 L281 191 L391 191 C521 191 611 284 611 419 C611 568 505 667 344 667 L23 667 L23 0 Z M43 20 L43 647 L344 647 C494 647 591 557 591 419 C591 295 510 211 391 211 L261 211 L261 20 L43 20 Z " />
<glyph glyph-name="Q" unicode="Q" horiz-adv-x="760" d="M490 296 C494 317 494 321 494 333 C494 408 445 460 373 460 C304 460 256 410 256 338 C256 262 305 207 373 207 C386 207 386 207 404 212 L350 270 L490 296 Z M311 282 L362 228 C309 235 276 278 276 338 C276 399 315 440 373 440 C433 440 474 397 474 333 C474 326 474 322 473 313 L311 282 Z M687 142 C725 202 741 257 741 330 C741 537 595 676 378 676 C160 676 9 534 9 330 C9 132 158 -10 366 -10 C426 -10 479 -1 527 17 L572 -60 L788 31 L687 142 Z M754 38 L580 -35 L536 42 C477 18 433 10 366 10 C169 10 29 142 29 330 C29 523 172 656 378 656 C584 656 721 526 721 331 C721 254 707 210 662 140 L754 38 Z " />
<glyph glyph-name="R" unicode="R" horiz-adv-x="666" d="M261 365 L296 365 C334 365 359 387 359 421 C359 455 336 480 304 480 L261 480 L261 365 Z M281 385 L281 460 L304 460 C325 460 339 445 339 421 C339 398 323 385 295 385 L281 385 Z M23 0 L281 0 L281 150 L358 0 L664 0 L492 259 C510 267 519 271 528 278 C572 309 596 364 596 432 C596 518 559 584 487 628 C441 656 397 667 326 667 L23 667 L23 0 Z M43 20 L43 647 L326 647 C394 647 434 637 476 611 C543 570 576 511 576 432 C576 349 542 296 475 275 L460 270 L627 20 L370 20 L261 233 L261 20 L43 20 Z " />
<glyph glyph-name="S" unicode="S" horiz-adv-x="567" d="M2 57 C35 41 38 40 48 35 C111 9 198 -9 268 -9 C436 -9 557 93 557 233 C557 335 496 405 387 429 L314 445 C298 448 291 452 291 457 C291 467 305 474 325 474 C371 474 393 465 466 417 L540 613 C454 661 404 676 321 676 C153 676 28 571 28 429 C28 333 92 263 197 244 L263 232 C285 228 291 224 291 215 C291 204 274 195 251 195 C212 195 163 212 128 239 L86 271 L2 57 Z M95 239 L116 223 C154 194 207 175 252 175 C286 175 311 192 311 215 C311 235 298 246 267 252 L200 264 C105 281 48 343 48 430 C48 560 165 656 321 656 C394 656 450 641 515 604 L456 448 C405 481 368 494 325 494 C293 494 271 479 271 457 C271 441 283 431 309 425 L383 409 C483 387 537 326 537 233 C537 104 424 11 268 11 C186 11 105 30 27 67 L95 239 Z " />
<glyph glyph-name="T" unicode="T" horiz-adv-x="530" d="M137 0 L396 0 L396 427 L524 427 L524 667 L7 667 L7 427 L137 427 L137 0 Z M157 20 L157 447 L27 447 L27 647 L504 647 L504 447 L376 447 L376 20 L157 20 Z " />
<glyph glyph-name="U" unicode="U" horiz-adv-x="660" d="M20 667 L20 250 C20 173 51 101 103 60 C157 16 241 -9 335 -9 C524 -9 640 95 640 266 L640 667 L378 667 L378 288 C378 237 367 222 331 222 C297 222 282 242 282 288 L282 667 L20 667 Z M40 647 L262 647 L262 288 C262 231 285 202 331 202 C379 202 398 226 398 288 L398 647 L620 647 L620 266 C620 107 513 11 335 11 C245 11 166 34 115 75 C68 113 40 179 40 250 L40 647 Z " />
<glyph glyph-name="V" unicode="V" horiz-adv-x="742" d="M2 667 L261 0 L481 0 L739 667 L462 667 L372 353 L280 667 L2 667 Z M31 647 L265 647 L372 281 L477 647 L710 647 L468 20 L274 20 L31 647 Z " />
<glyph glyph-name="W" unicode="W" horiz-adv-x="1049" d="M2 667 L236 0 L456 0 L523 262 L585 0 L811 0 L1046 667 L770 667 L700 374 L625 667 L422 667 L347 369 L278 667 L2 667 Z M30 647 L262 647 L347 284 L438 647 L609 647 L701 291 L785 647 L1018 647 L797 20 L601 20 L524 346 L441 20 L250 20 L30 647 Z " />
<glyph glyph-name="X" unicode="X" horiz-adv-x="772" d="M24 667 L234 354 L2 0 L305 0 L385 149 L465 0 L769 0 L532 354 L741 667 L440 667 L384 552 L325 667 L24 667 Z M61 647 L313 647 L384 507 L452 647 L704 647 L508 354 L731 20 L477 20 L385 191 L293 20 L39 20 L258 354 L61 647 Z " />
<glyph glyph-name="Y" unicode="Y" horiz-adv-x="727" d="M2 667 L236 285 L236 0 L496 0 L496 285 L725 667 L426 667 L367 533 L303 667 L2 667 Z M38 647 L290 647 L368 484 L439 647 L690 647 L476 290 L476 20 L256 20 L256 290 L38 647 Z " />
<glyph glyph-name="Z" unicode="Z" horiz-adv-x="698" d="M71 667 L71 442 L278 442 L2 0 L665 0 L665 229 L438 229 L706 667 L71 667 Z M91 647 L671 647 L402 209 L645 209 L645 20 L38 20 L314 462 L91 462 L91 647 Z " />
<glyph glyph-name="bracketleft" unicode="&#x5b;" horiz-adv-x="362" d="M247 60 L247 607 L357 607 L357 726 L23 726 L23 -60 L357 -60 L357 60 L247 60 Z M227 40 L337 40 L337 -40 L43 -40 L43 706 L337 706 L337 627 L227 627 L227 40 Z " />
<glyph glyph-name="backslash" unicode="&#x5c;" horiz-adv-x="527" d="M203 726 L2 726 L324 -63 L524 -63 L203 726 Z M189 706 L494 -43 L337 -43 L32 706 L189 706 Z " />
<glyph glyph-name="bracketright" unicode="&#x5d;" horiz-adv-x="362" d="M116 607 L116 60 L5 60 L5 -60 L339 -60 L339 726 L5 726 L5 607 L116 607 Z M136 627 L25 627 L25 706 L319 706 L319 -40 L25 -40 L25 40 L136 40 L136 627 Z " />
<glyph glyph-name="asciicircum" unicode="&#x5e;" horiz-adv-x="487" d="M191 313 L244 463 L296 313 L505 313 L362 672 L125 672 L-18 313 L191 313 Z M173 340 L21 340 L143 645 L344 645 L466 340 L315 340 L244 543 L173 340 Z " />
<glyph glyph-name="underscore" unicode="&#x5f;" horiz-adv-x="510" d="M0 -2 L0 -153 L510 -153 L510 -2 L0 -2 Z M27 -29 L483 -29 L483 -126 L27 -126 L27 -29 Z " />
<glyph glyph-name="grave" unicode="&#x60;" horiz-adv-x="500" d="M216 744 L73 654 L238 510 L347 578 L216 744 Z M212 717 L318 583 L240 535 L107 652 L212 717 Z " />
<glyph glyph-name="a" unicode="a" horiz-adv-x="601" d="M298 305 C263 305 237 277 237 239 C237 203 263 174 296 174 C330 174 358 204 358 241 C358 278 333 305 298 305 L298 305 Z M298 285 C322 285 338 267 338 241 C338 215 319 194 296 194 C274 194 257 214 257 239 C257 266 274 285 298 285 L298 285 Z M330 477 L330 458 C292 482 265 490 225 490 C101 490 9 382 9 237 C9 93 98 -13 218 -13 C261 -13 291 -3 331 25 L331 0 L577 0 L577 477 L330 477 Z M350 457 L557 457 L557 20 L351 20 L351 67 C300 22 267 7 219 7 C109 7 29 104 29 237 C29 370 113 470 224 470 C260 470 300 457 323 438 C329 433 334 429 350 412 L350 457 Z " />
<glyph glyph-name="b" unicode="b" horiz-adv-x="599" d="M304 311 C267 311 242 283 242 242 C242 198 266 170 302 170 C337 170 365 201 365 241 C365 280 338 311 304 311 L304 311 Z M304 291 C327 291 345 269 345 241 C345 212 326 190 302 190 C277 190 262 210 262 241 C262 272 278 291 304 291 L304 291 Z M23 726 L23 0 L262 0 L262 35 C302 1 339 -13 387 -13 C504 -13 589 90 589 234 C589 290 576 342 551 384 C512 449 445 490 381 490 C343 490 314 479 273 449 L273 726 L23 726 Z M43 706 L253 706 L253 395 C267 415 270 419 276 425 C300 450 347 470 384 470 C433 470 485 440 521 392 C552 350 569 296 569 234 C569 102 493 7 387 7 C342 7 292 28 267 58 C261 66 257 72 242 96 L242 20 L43 20 L43 706 Z " />
<glyph glyph-name="c" unicode="c" horiz-adv-x="423" d="M402 16 L412 224 C379 197 343 182 313 182 C277 182 252 207 252 241 C252 275 276 298 312 298 C341 298 364 289 409 258 L409 462 C351 482 307 490 253 490 C201 490 146 471 103 438 C42 391 9 321 9 237 C9 86 114 -13 272 -13 C318 -13 350 -7 391 11 L402 16 Z M383 29 C342 12 316 7 272 7 C125 7 29 98 29 237 C29 305 52 363 95 405 C137 445 197 470 253 470 C297 470 349 461 389 447 L389 295 C360 312 338 318 312 318 C265 318 232 286 232 241 C232 195 266 162 313 162 C339 162 360 168 390 185 L383 29 Z " />
<glyph glyph-name="d" unicode="d" horiz-adv-x="599" d="M294 316 C258 316 233 287 233 246 C233 204 259 172 294 172 C329 172 354 201 354 242 C354 285 329 316 294 316 L294 316 Z M294 296 C317 296 334 274 334 242 C334 213 318 192 294 192 C271 192 253 215 253 246 C253 276 269 296 294 296 L294 296 Z M326 726 L326 447 C287 478 254 490 212 490 C97 490 9 380 9 237 C9 96 95 -13 207 -13 C252 -13 290 2 333 37 L333 0 L576 0 L576 726 L326 726 Z M346 706 L556 706 L556 20 L353 20 L353 99 C350 94 347 90 347 89 C333 66 329 60 321 53 C290 25 245 7 206 7 C106 7 29 107 29 237 C29 369 108 470 211 470 C266 470 307 448 346 396 L346 706 Z " />
<glyph glyph-name="e" unicode="e" horiz-adv-x="581" d="M348 289 C344 333 325 356 291 356 C271 356 253 344 245 327 C241 317 240 309 239 289 L348 289 Z M262 309 C264 326 275 336 291 336 C308 336 320 326 323 309 L262 309 Z M322 175 C315 151 307 143 290 143 C267 143 259 157 257 193 L571 193 C572 210 572 218 572 225 C572 269 562 308 541 348 C490 443 407 490 286 490 C124 490 9 384 9 235 C9 86 123 -13 293 -13 C390 -13 469 21 525 88 C545 113 552 126 567 175 L322 175 Z M539 155 C530 127 515 104 490 80 C438 31 375 7 294 7 C134 7 29 98 29 235 C29 373 135 470 286 470 C399 470 476 428 523 339 C543 301 552 267 552 225 C552 223 552 218 551 213 L237 213 C237 184 238 174 241 163 C247 138 265 123 289 123 C312 123 328 133 336 155 L539 155 Z " />
<glyph glyph-name="f" unicode="f" horiz-adv-x="394" d="M66 0 L315 0 L315 272 L385 272 L385 477 L312 477 L312 499 C312 514 324 525 340 525 C346 525 352 523 365 518 C369 516 376 514 385 510 L385 721 C342 729 307 733 270 733 C141 733 66 656 66 524 L66 477 L7 477 L7 272 L66 272 L66 0 Z M86 20 L86 292 L27 292 L27 457 L86 457 L86 524 C86 647 152 713 275 713 C303 713 325 711 365 704 L365 539 C355 544 349 545 340 545 C313 545 292 525 292 499 L292 457 L365 457 L365 292 L295 292 L295 20 L86 20 Z " />
<glyph glyph-name="g" unicode="g" horiz-adv-x="597" d="M298 305 C261 305 233 276 233 239 C233 201 261 173 297 173 C333 173 357 198 357 237 C357 277 333 305 298 305 L298 305 Z M297 285 C321 285 337 266 337 237 C337 209 322 193 297 193 C272 193 253 212 253 239 C253 265 272 285 297 285 L297 285 Z M25 -170 L77 -188 C128 -207 199 -218 260 -218 C447 -218 573 -117 573 33 L573 477 L330 477 L330 446 C289 480 263 490 218 490 C157 490 105 464 66 414 C30 367 9 303 9 240 C9 101 100 -8 216 -8 C259 -8 297 5 330 32 L330 25 C330 -12 290 -46 248 -46 C225 -46 197 -41 167 -31 C143 -23 134 -18 107 2 L85 19 L25 -170 Z M49 -157 L95 -14 C142 -48 193 -66 248 -66 C302 -66 350 -23 350 25 L350 94 C338 71 336 68 332 62 C311 33 262 12 216 12 C166 12 123 32 89 71 C51 115 29 177 29 240 C29 368 111 470 214 470 C260 470 303 451 328 419 C334 411 336 408 350 389 L350 457 L553 457 L553 33 C553 -106 436 -198 260 -198 C200 -198 133 -187 84 -170 L49 -157 Z " />
<glyph glyph-name="h" unicode="h" horiz-adv-x="580" d="M23 0 L273 0 L273 257 C273 272 283 283 297 283 C308 283 314 274 314 257 L314 0 L559 0 L559 301 C559 361 543 408 512 441 C482 472 440 490 395 490 C348 490 310 473 273 435 L273 726 L23 726 L23 0 Z M43 20 L43 706 L253 706 L253 383 C272 405 280 415 292 427 C320 455 356 470 395 470 C434 470 472 454 498 427 C525 398 539 356 539 301 L539 20 L334 20 L334 257 C334 285 319 303 297 303 C272 303 253 283 253 257 L253 20 L43 20 Z " />
<glyph glyph-name="i" unicode="i" horiz-adv-x="295" d="M23 0 L273 0 L273 477 L23 477 L23 0 Z M43 20 L43 457 L253 457 L253 20 L43 20 Z M144 740 C65 740 11 690 11 617 C11 546 67 497 149 497 C185 497 212 504 234 520 C264 542 283 579 283 616 C283 691 228 740 144 740 L144 740 Z M144 720 C216 720 263 679 263 616 C263 556 218 517 149 517 C78 517 31 557 31 617 C31 680 76 720 144 720 L144 720 Z " />
<glyph glyph-name="j" unicode="j" horiz-adv-x="295" d="M23 -184 L273 -184 L273 477 L23 477 L23 -184 Z M43 -164 L43 457 L253 457 L253 -164 L43 -164 Z M144 740 C65 740 11 690 11 617 C11 546 67 497 149 497 C185 497 212 504 234 520 C264 542 283 579 283 616 C283 691 228 740 144 740 L144 740 Z M144 720 C216 720 263 679 263 616 C263 556 218 517 149 517 C78 517 31 557 31 617 C31 680 76 720 144 720 L144 720 Z " />
<glyph glyph-name="k" unicode="k" horiz-adv-x="642" d="M23 0 L273 0 L273 120 L342 0 L640 0 L457 246 L632 477 L336 477 L273 360 L273 726 L23 726 L23 0 Z M43 20 L43 706 L253 706 L253 281 L348 457 L592 457 L432 246 L600 20 L354 20 L253 194 L253 20 L43 20 Z " />
<glyph glyph-name="l" unicode="l" horiz-adv-x="296" d="M23 0 L273 0 L273 726 L23 726 L23 0 Z M43 20 L43 706 L253 706 L253 20 L43 20 Z " />
<glyph glyph-name="m" unicode="m" horiz-adv-x="830" d="M23 0 L266 0 L266 253 C266 275 271 285 283 285 C291 285 295 279 295 266 L295 0 L537 0 L537 261 C537 275 544 285 554 285 C562 285 567 276 567 261 L567 0 L810 0 L810 304 C810 415 741 490 639 490 C577 490 537 467 503 411 C473 464 431 490 374 490 C329 490 296 477 260 443 L260 477 L23 477 L23 0 Z M43 20 L43 457 L240 457 L240 369 C243 376 246 382 246 384 C270 441 313 470 373 470 C415 470 453 451 474 420 C483 407 490 394 502 367 C540 445 573 470 639 470 C730 470 790 404 790 304 L790 20 L587 20 L587 261 C587 287 574 305 554 305 C533 305 517 286 517 261 L517 20 L315 20 L315 266 C315 291 303 305 283 305 C259 305 246 287 246 253 L246 20 L43 20 Z " />
<glyph glyph-name="n" unicode="n" horiz-adv-x="583" d="M23 0 L273 0 L273 248 C273 276 279 285 296 285 C311 285 314 278 314 248 L314 0 L563 0 L563 301 C563 356 549 401 523 431 C490 468 441 490 392 490 C341 490 310 477 268 436 L268 477 L23 477 L23 0 Z M43 20 L43 457 L248 457 L248 382 C250 385 251 386 254 389 C284 424 284 424 289 429 C317 456 352 470 392 470 C430 470 467 456 496 429 C528 401 543 359 543 301 L543 20 L334 20 L334 248 C334 290 324 305 296 305 C266 305 253 287 253 248 L253 20 L43 20 Z " />
<glyph glyph-name="o" unicode="o" horiz-adv-x="594" d="M297 305 C260 305 233 277 233 238 C233 200 260 172 296 172 C335 172 360 198 360 237 C360 278 334 305 297 305 L297 305 Z M297 285 C323 285 340 266 340 237 C340 209 324 192 296 192 C271 192 253 211 253 238 C253 266 271 285 297 285 L297 285 Z M297 490 C126 490 9 387 9 237 C9 93 129 -13 292 -13 C467 -13 584 86 584 234 C584 387 469 490 297 490 L297 490 Z M297 470 C457 470 564 376 564 234 C564 98 456 7 292 7 C140 7 29 104 29 237 C29 377 136 470 297 470 L297 470 Z " />
<glyph glyph-name="p" unicode="p" horiz-adv-x="599" d="M302 307 C266 307 242 278 242 236 C242 195 267 166 302 166 C338 166 365 195 365 235 C365 276 337 307 302 307 L302 307 Z M302 287 C326 287 345 265 345 235 C345 207 327 186 302 186 C278 186 262 206 262 236 C262 267 277 287 302 287 L302 287 Z M23 -184 L273 -184 L273 27 C315 -2 343 -13 381 -13 C438 -13 497 20 537 73 C571 118 589 177 589 243 C589 387 505 490 387 490 C339 490 302 476 262 442 L262 477 L23 477 L23 -184 Z M43 -164 L43 457 L242 457 L242 381 C256 404 260 410 267 419 C292 449 342 470 387 470 C493 470 569 375 569 243 C569 190 557 142 533 103 C498 45 439 7 384 7 C347 7 300 27 276 52 C270 58 267 62 253 82 L253 -164 L43 -164 Z " />
<glyph glyph-name="q" unicode="q" horiz-adv-x="601" d="M296 305 C260 305 233 273 233 231 C233 191 259 161 293 161 C330 161 356 191 356 234 C356 276 331 305 296 305 L296 305 Z M296 285 C320 285 336 265 336 234 C336 202 319 181 294 181 C270 181 253 202 253 231 C253 262 271 285 296 285 L296 285 Z M328 -184 L578 -184 L578 477 L334 477 L334 440 C294 475 257 490 210 490 C95 490 9 382 9 239 C9 97 98 -13 213 -13 C255 -13 288 -1 328 30 L328 -184 Z M348 -164 L348 83 C332 63 327 57 322 51 C296 25 251 7 213 7 C109 7 29 109 29 239 C29 370 107 470 208 470 C253 470 304 447 331 415 C338 406 344 398 354 378 L354 457 L558 457 L558 -164 L348 -164 Z " />
<glyph glyph-name="r" unicode="r" horiz-adv-x="430" d="M23 0 L273 0 L273 198 C273 236 300 260 340 260 C362 260 362 260 425 223 L425 495 C338 496 308 488 274 454 L274 477 L23 477 L23 0 Z M43 20 L43 457 L254 457 L254 395 C256 398 258 401 260 403 C303 464 323 474 405 475 L405 258 C374 276 363 280 341 280 C289 280 253 247 253 198 L253 20 L43 20 Z " />
<glyph glyph-name="s" unicode="s" horiz-adv-x="467" d="M2 45 C116 -2 158 -13 229 -13 C364 -13 460 61 460 167 C460 241 418 285 328 304 C267 316 267 316 267 326 C267 334 273 339 283 339 C309 339 345 325 390 299 L455 443 C423 459 420 461 411 464 C375 479 311 490 261 490 C129 490 36 419 36 319 C36 266 61 227 109 204 C133 193 163 185 187 183 C212 181 219 177 219 165 C219 156 211 149 199 149 C187 149 159 158 134 169 C117 177 114 179 72 207 L2 45 Z M81 177 C124 148 172 129 201 129 C223 129 239 144 239 165 C239 189 227 198 190 202 C103 212 56 253 56 320 C56 408 141 470 261 470 C325 470 381 458 429 433 L380 327 C337 350 309 359 283 359 C261 359 247 346 247 324 C247 307 256 299 281 293 C332 283 332 283 345 279 C410 261 440 226 440 167 C440 73 353 7 229 7 C166 7 114 20 28 56 L81 177 Z " />
<glyph glyph-name="t" unicode="t" horiz-adv-x="389" d="M61 0 L310 0 L310 273 L383 273 L383 477 L310 477 L310 634 L61 634 L61 477 L7 477 L7 273 L61 273 L61 0 Z M81 20 L81 293 L27 293 L27 457 L81 457 L81 614 L290 614 L290 457 L363 457 L363 293 L290 293 L290 20 L81 20 Z " />
<glyph glyph-name="u" unicode="u" horiz-adv-x="579" d="M20 477 L20 198 C20 151 37 105 67 73 C119 19 200 -13 288 -13 C351 -13 414 5 464 36 C528 77 559 132 559 205 L559 477 L309 477 L309 220 C309 202 302 192 289 192 C276 192 270 200 270 220 L270 477 L20 477 Z M40 457 L250 457 L250 220 C250 189 264 172 288 172 C313 172 329 191 329 220 L329 457 L539 457 L539 205 C539 147 518 102 474 68 C426 29 357 7 288 7 C206 7 129 37 82 87 C55 115 40 156 40 198 L40 457 Z " />
<glyph glyph-name="v" unicode="v" horiz-adv-x="641" d="M2 477 L212 0 L431 0 L639 477 L368 477 L321 317 L273 477 L2 477 Z M33 457 L258 457 L321 247 L383 457 L608 457 L418 20 L225 20 L33 457 Z " />
<glyph glyph-name="w" unicode="w" horiz-adv-x="877" d="M2 477 L196 0 L398 0 L439 149 L478 0 L677 0 L874 477 L608 477 L568 299 L522 477 L354 477 L310 300 L268 477 L2 477 Z M32 457 L252 457 L310 214 L369 457 L506 457 L569 214 L624 457 L844 457 L664 20 L493 20 L439 225 L382 20 L210 20 L32 457 Z " />
<glyph glyph-name="x" unicode="x" horiz-adv-x="692" d="M21 477 L202 248 L2 0 L308 0 L349 76 L390 0 L689 0 L495 248 L677 477 L384 477 L349 407 L314 477 L21 477 Z M62 457 L302 457 L349 362 L396 457 L635 457 L470 248 L648 20 L402 20 L349 118 L296 20 L44 20 L228 248 L62 457 Z " />
<glyph glyph-name="y" unicode="y" horiz-adv-x="647" d="M2 477 L200 61 L77 -184 L344 -184 L644 477 L378 477 L325 285 L275 477 L2 477 Z M34 457 L259 457 L324 207 L393 457 L613 457 L331 -164 L109 -164 L223 61 L34 457 Z " />
<glyph glyph-name="z" unicode="z" horiz-adv-x="519" d="M505 0 L505 201 L359 201 L516 432 L516 477 L24 477 L24 277 L151 277 L2 52 L2 0 L505 0 Z M485 20 L22 20 L22 46 L188 297 L44 297 L44 457 L496 457 L496 438 L321 181 L485 181 L485 20 Z " />
<glyph glyph-name="braceleft" unicode="&#x7b;" horiz-adv-x="362" d="M263 533 C263 582 264 582 321 582 C326 582 326 582 358 581 L358 724 C296 725 256 726 220 726 C106 726 59 681 59 573 L59 459 C59 426 48 410 23 404 L7 401 L7 269 C14 268 21 266 23 266 C50 260 59 244 59 201 L59 88 C59 32 72 -6 98 -31 C129 -59 161 -67 241 -67 C253 -67 267 -67 279 -66 L310 -65 L338 -64 L358 -63 L358 79 C336 78 328 78 322 78 C264 78 263 79 263 127 L263 210 C263 269 250 304 218 330 C251 358 263 391 263 450 L263 533 Z M243 127 C243 65 252 58 322 58 L338 58 L338 -44 L309 -45 C260 -47 259 -47 240 -47 C171 -47 145 -41 118 -21 C91 -1 79 33 79 88 L79 201 C79 254 65 277 27 285 L27 385 C63 392 79 416 79 459 L79 573 C79 670 117 706 220 706 C246 706 287 705 338 704 L338 602 L321 602 C252 602 243 594 243 533 L243 450 C243 407 234 375 217 357 C210 349 207 346 184 330 C216 309 222 302 232 281 C239 264 243 238 243 210 L243 127 Z " />
<glyph glyph-name="bar" unicode="&#x7c;" horiz-adv-x="528" d="M148 667 L148 -156 L380 -156 L380 667 L148 667 Z M175 640 L353 640 L353 -129 L175 -129 L175 640 Z " />
<glyph glyph-name="braceright" unicode="&#x7d;" horiz-adv-x="362" d="M100 127 C100 78 99 78 42 78 C38 78 38 78 5 79 L5 -63 C73 -65 105 -66 143 -66 C257 -66 304 -21 304 88 L304 201 C304 235 315 251 340 256 L356 260 L356 391 C349 393 342 394 340 394 C313 400 304 416 304 459 L304 573 C304 628 291 666 265 691 C234 719 202 727 122 727 C108 727 95 727 84 726 L53 725 L25 724 L5 724 L5 581 C25 582 33 582 41 582 C99 582 100 582 100 533 L100 450 C100 392 113 356 145 330 C112 302 100 269 100 210 L100 127 Z M120 533 C120 595 111 602 41 602 L25 602 L25 704 L54 705 C101 707 101 707 122 707 C191 707 218 701 245 681 C272 661 284 627 284 573 L284 459 C284 407 298 383 336 375 L336 276 C300 268 284 244 284 201 L284 88 C284 -9 245 -46 146 -46 C111 -46 69 -45 25 -44 L25 58 L42 58 C111 58 120 66 120 127 L120 210 C120 253 129 285 146 304 C153 311 154 313 179 330 C132 362 120 386 120 450 L120 533 Z " />
<glyph glyph-name="asciitilde" unicode="&#x7e;" horiz-adv-x="686" d="M210 488 C215 497 221 507 226 517 C238 540 247 549 257 549 C265 549 270 548 311 532 C384 505 396 502 422 502 C470 502 512 525 545 570 C563 594 570 609 596 673 L475 775 C454 734 454 734 449 728 C443 719 436 714 428 714 C423 714 416 716 406 719 C302 758 290 761 263 761 C201 761 154 726 116 652 C107 634 107 634 90 590 L210 488 Z M122 598 C158 692 201 734 263 734 C281 734 292 732 324 720 C365 706 365 706 397 694 C409 689 420 687 428 687 C450 687 465 700 483 733 L564 665 C541 611 529 589 506 565 C483 542 453 529 422 529 C401 529 378 536 320 558 C279 573 270 576 256 576 C235 576 219 562 202 529 L122 598 Z " />
<glyph glyph-name="uni00A0" unicode="&#xa0;" horiz-adv-x="250" d="" />
<glyph glyph-name="exclamdown" unicode="&#xa1;" horiz-adv-x="340" d="M282 516 C292 539 296 555 296 576 C296 655 232 720 154 720 C73 720 9 656 9 576 C9 551 13 534 26 508 L26 0 L282 0 L282 516 Z M262 20 L46 20 L46 482 C73 451 111 434 154 434 C197 434 233 451 262 485 L262 20 Z M153 700 C221 700 276 644 276 575 C276 509 220 453 153 453 C84 453 29 508 29 577 C29 645 84 700 153 700 L153 700 Z " />
<glyph glyph-name="cent" unicode="&#xa2;" horiz-adv-x="418" d="M188 4 L320 4 L320 108 C349 114 359 116 401 129 L404 343 C390 332 376 322 372 319 C348 301 325 291 305 291 C274 291 253 314 253 349 C253 380 274 401 304 401 C328 401 342 395 375 373 C386 365 388 364 404 353 L398 564 C357 576 355 577 320 582 L320 671 L188 671 L188 579 C76 546 9 458 9 346 C9 225 75 137 188 109 L188 4 Z M208 24 L208 126 L200 127 C181 130 161 136 139 148 C69 186 29 258 29 346 C29 455 99 540 208 563 L208 651 L300 651 L300 564 C340 559 351 557 378 549 L383 392 C345 416 331 421 304 421 C262 421 233 392 233 349 C233 303 263 271 305 271 C329 271 356 282 384 302 L382 144 C359 137 331 130 315 127 L307 126 L300 125 L300 24 L208 24 Z " />
<glyph glyph-name="sterling" unicode="&#xa3;" horiz-adv-x="583" d="M497 208 C450 174 437 168 408 168 C390 168 369 173 342 183 C353 206 357 218 361 237 L493 237 L493 389 L368 389 C367 395 367 402 367 403 L364 418 L360 448 C359 456 358 466 358 471 C358 492 368 506 382 506 C389 506 396 503 398 499 C400 494 401 489 403 449 L579 484 C573 561 567 582 540 614 C504 657 446 680 373 680 C239 680 148 601 148 484 C148 462 150 444 159 389 L83 389 L83 237 L156 237 C151 219 148 211 143 198 C101 191 86 185 2 147 L63 -14 C83 -6 99 0 118 7 C149 19 164 23 183 23 C193 23 202 22 210 20 L280 1 C304 -6 350 -12 372 -12 C431 -12 488 9 576 61 L497 208 Z M550 68 C484 29 421 8 372 8 C351 8 308 14 285 20 L215 39 C206 42 195 43 183 43 C156 43 151 42 74 12 L27 136 C101 170 108 172 157 181 C168 206 171 215 182 257 L103 257 L103 369 L182 369 C168 459 168 461 168 484 C168 590 250 660 373 660 C425 660 469 648 500 625 C538 596 552 565 558 500 L422 473 C420 499 418 506 411 514 C404 522 393 526 382 526 C356 526 338 503 338 471 C338 465 339 455 340 445 L344 415 C348 391 348 391 348 381 L348 377 L348 369 L473 369 L473 257 L343 257 C339 224 337 216 313 170 C328 167 331 166 334 165 C372 151 387 148 408 148 C436 148 460 157 491 179 L550 68 Z " />
<glyph glyph-name="currency" unicode="&#xa4;" horiz-adv-x="697" d="M351 427 C300 427 261 388 261 338 C261 289 301 249 349 249 C398 249 438 289 438 339 C438 387 398 427 351 427 L351 427 Z M350 407 C387 407 418 376 418 339 C418 300 387 269 349 269 C312 269 281 300 281 338 C281 377 311 407 350 407 L350 407 Z M2 119 L123 -2 L226 100 C269 79 304 70 349 70 C393 70 423 77 472 100 L575 -2 L695 120 L591 223 C609 260 617 296 617 337 C617 380 607 421 587 459 L690 563 L570 684 L462 577 C425 594 388 602 348 602 C308 602 273 594 234 576 L125 685 L3 563 L110 457 C92 421 81 376 81 337 C81 299 89 264 106 223 L2 119 Z M30 119 L130 219 C111 256 101 298 101 337 C101 379 111 415 134 461 L31 563 L125 657 L230 552 C275 574 306 582 348 582 C391 582 423 574 466 553 L570 655 L662 563 L562 463 C586 420 597 382 597 337 C597 294 589 263 567 219 L666 119 L575 26 L476 125 C431 100 394 90 348 90 C302 90 272 98 222 125 L123 27 L30 119 Z " />
<glyph glyph-name="yen" unicode="&#xa5;" horiz-adv-x="700" d="M2 667 L118 465 L42 465 L42 319 L202 319 L222 285 L222 272 L42 272 L42 126 L222 126 L222 0 L482 0 L482 126 L658 126 L658 272 L482 272 L482 285 L501 319 L658 319 L658 465 L584 465 L698 667 L398 667 L352 530 L303 667 L2 667 Z M36 647 L289 647 L353 468 L412 647 L664 647 L549 445 L638 445 L638 339 L490 339 L462 290 L462 252 L638 252 L638 146 L462 146 L462 20 L242 20 L242 146 L62 146 L62 252 L242 252 L242 290 L214 339 L62 339 L62 445 L153 445 L36 647 Z " />
<glyph glyph-name="brokenbar" unicode="&#xa6;" horiz-adv-x="528" d="M148 667 L148 284 L380 284 L380 667 L148 667 Z M175 640 L353 640 L353 311 L175 311 L175 640 Z M148 185 L148 -156 L380 -156 L380 185 L148 185 Z M175 158 L353 158 L353 -129 L175 -129 L175 158 Z " />
<glyph glyph-name="section" unicode="&#xa7;" horiz-adv-x="510" d="M258 392 C225 392 198 367 198 336 C198 304 224 279 257 279 C290 279 316 304 316 336 C316 366 290 392 258 392 L258 392 Z M258 372 C279 372 296 355 296 336 C296 315 278 299 257 299 C235 299 218 315 218 336 C218 356 235 372 258 372 L258 372 Z M9 130 C14 70 16 62 31 34 C66 -32 142 -66 254 -66 C403 -66 482 -6 482 106 C482 154 470 184 435 221 C482 258 502 297 502 350 C502 408 475 455 426 483 C401 498 374 509 330 521 C233 547 229 549 229 569 C229 584 243 592 268 592 C289 592 300 586 305 571 C308 563 308 563 313 530 L499 530 C492 594 489 603 473 634 C438 700 372 732 272 732 C122 732 30 667 30 561 C30 514 43 485 78 451 C34 413 16 374 16 320 C16 237 63 184 160 158 C282 127 282 127 282 101 C282 82 271 73 247 73 C227 73 214 80 209 92 C206 99 206 99 200 130 L9 130 Z M183 110 C190 69 209 53 247 53 C282 53 302 71 302 101 C302 121 294 136 278 145 C265 152 256 155 200 169 C143 183 129 188 109 199 C60 224 36 265 36 320 C36 377 57 413 113 450 C67 482 50 511 50 561 C50 655 133 712 272 712 C397 712 465 659 476 550 L330 550 C324 596 308 612 268 612 C231 612 209 596 209 569 C209 542 225 529 279 514 C361 491 361 491 384 482 C451 455 482 412 482 350 C482 295 460 260 401 222 C446 188 462 158 462 106 C462 5 392 -46 254 -46 C114 -46 40 6 31 110 L183 110 Z " />
<glyph glyph-name="dieresis" unicode="&#xa8;" horiz-adv-x="500" d="M158 704 C108 704 68 664 68 614 C68 565 109 524 157 524 C208 524 248 564 248 614 C248 664 208 704 158 704 L158 704 Z M158 684 C197 684 228 653 228 614 C228 575 197 544 157 544 C120 544 88 576 88 614 C88 653 119 684 158 684 L158 684 Z M342 704 C292 704 252 664 252 614 C252 565 292 524 341 524 C391 524 431 564 431 614 C431 664 391 704 342 704 L342 704 Z M342 684 C380 684 411 653 411 614 C411 575 380 544 341 544 C303 544 272 576 272 614 C272 653 303 684 342 684 L342 684 Z " />
<glyph glyph-name="copyright" unicode="&#xa9;" horiz-adv-x="759" d="M519 143 L523 329 C456 287 453 285 423 285 C392 285 369 306 369 335 C369 361 392 382 421 382 C443 382 461 375 495 354 C505 348 509 346 523 337 L519 525 C508 529 503 530 498 532 C472 540 432 546 397 546 C276 546 178 450 178 330 C178 213 274 121 396 121 C438 121 481 128 507 138 L519 143 Z M499 157 C476 147 435 141 396 141 C285 141 198 224 198 330 C198 440 287 526 399 526 C431 526 467 521 492 513 L499 510 L502 373 C468 395 447 402 420 402 C381 402 349 372 349 335 C349 295 381 265 424 265 C452 265 471 272 502 292 L499 157 Z M383 598 C237 598 122 481 122 333 C122 187 238 68 380 68 C521 68 636 187 636 333 C636 478 521 598 383 598 L383 598 Z M383 578 C510 578 616 467 616 333 C616 198 510 88 380 88 C249 88 142 198 142 333 C142 470 248 578 383 578 L383 578 Z M385 681 C188 681 33 528 33 333 C33 142 189 -14 380 -14 C570 -14 725 141 725 333 C725 523 571 681 385 681 L385 681 Z M384 661 C559 661 705 512 705 333 C705 153 559 6 380 6 C200 6 53 153 53 333 C53 517 199 661 384 661 L384 661 Z " />
<glyph glyph-name="ordfeminine" unicode="&#xaa;" horiz-adv-x="400" d="M201 442 C180 442 165 427 165 406 C165 386 180 370 200 370 C220 370 236 387 236 407 C236 427 221 442 201 442 L201 442 Z M201 422 C210 422 216 416 216 407 C216 398 209 390 200 390 C191 390 185 397 185 406 C185 416 191 422 201 422 L201 422 Z M208 550 C182 561 169 564 152 564 C72 564 9 494 9 404 C9 314 69 246 150 246 C175 246 186 249 207 262 L207 253 L387 253 L387 557 L208 557 L208 550 Z M229 503 L229 514 C228 521 228 526 228 528 L228 537 L367 537 L367 273 L228 273 L230 306 C197 275 179 266 149 266 C81 266 29 326 29 404 C29 481 83 544 149 544 C174 544 212 529 221 516 L229 503 Z " />
<glyph glyph-name="guillemotleft" unicode="&#xab;" horiz-adv-x="420" d="M255 398 L159 465 L3 245 L159 18 L256 86 L303 18 L417 99 L319 245 L418 384 L303 465 L255 398 Z M164 46 L27 245 L164 437 L246 379 L151 245 L246 104 L164 46 Z M308 46 L171 245 L308 437 L390 379 L294 245 L390 104 L308 46 Z " />
<glyph glyph-name="logicalnot" unicode="&#xac;" horiz-adv-x="514" d="M255 0 L481 0 L481 322 L33 322 L33 116 L255 116 L255 0 Z M282 27 L282 143 L60 143 L60 295 L454 295 L454 27 L282 27 Z " />
<glyph glyph-name="uni00AD" unicode="&#xad;" horiz-adv-x="360" d="M13 142 L346 142 L346 348 L13 348 L13 142 Z M33 162 L33 328 L326 328 L326 162 L33 162 Z " />
<glyph glyph-name="registered" unicode="&#xae;" horiz-adv-x="759" d="M339 348 L354 348 C377 348 391 360 391 379 C391 398 378 411 359 411 L339 411 L339 348 Z M359 391 C367 391 371 387 371 379 C371 372 368 370 359 368 L359 391 Z M383 598 C237 598 122 481 122 333 C122 188 238 69 379 69 C520 69 635 188 635 333 C635 478 520 598 383 598 L383 598 Z M198 176 C160 224 142 275 142 334 C142 392 160 444 198 491 L198 176 Z M227 521 C273 559 323 578 380 578 C509 578 615 468 615 333 C615 276 597 224 562 178 L480 288 C515 304 534 339 534 385 C534 435 511 473 466 499 C439 515 412 521 370 521 L227 521 Z M531 146 C485 108 435 89 379 89 C323 89 273 108 227 146 L358 146 L358 187 L380 146 L531 146 Z M218 166 L218 501 L370 501 C459 501 514 457 514 385 C514 343 499 318 465 303 L449 296 L546 166 L392 166 L338 268 L338 166 L218 166 Z M385 681 C188 681 33 528 33 333 C33 142 189 -14 380 -14 C570 -14 725 141 725 333 C725 523 571 681 385 681 L385 681 Z M384 661 C559 661 705 512 705 333 C705 153 559 6 380 6 C200 6 53 153 53 333 C53 517 199 661 384 661 L384 661 Z " />
<glyph glyph-name="macron" unicode="&#xaf;" horiz-adv-x="500" d="M72 517 L428 517 L428 652 L72 652 L72 517 Z M92 537 L92 632 L408 632 L408 537 L92 537 Z " />
<glyph glyph-name="degree" unicode="&#xb0;" horiz-adv-x="534" d="M266 591 C235 591 209 565 209 534 C209 502 234 476 266 476 C297 476 323 502 323 534 C323 565 298 591 266 591 L266 591 Z M266 571 C287 571 303 554 303 534 C303 513 286 496 266 496 C246 496 229 513 229 534 C229 554 246 571 266 571 L266 571 Z M266 676 C188 676 123 612 123 535 C123 454 186 390 267 390 C346 390 410 454 410 533 C410 612 346 676 266 676 L266 676 Z M266 656 C335 656 390 601 390 533 C390 465 335 410 267 410 C198 410 143 465 143 535 C143 601 199 656 266 656 L266 656 Z " />
<glyph glyph-name="plusminus" unicode="&#xb1;" horiz-adv-x="522" d="M348 173 L348 253 L515 253 L515 426 L348 426 L348 588 L175 588 L175 426 L7 426 L7 253 L175 253 L175 173 L7 173 L7 0 L515 0 L515 173 L348 173 Z M27 273 L27 406 L195 406 L195 568 L328 568 L328 406 L495 406 L495 273 L328 273 L328 112 L195 112 L195 273 L27 273 Z M27 20 L27 153 L176 153 L176 93 L347 93 L347 153 L495 153 L495 20 L27 20 Z " />
<glyph glyph-name="twosuperior" unicode="&#xb2;" horiz-adv-x="482" d="M450 253 L450 403 L374 403 C422 437 444 474 444 522 C444 609 362 673 251 673 C151 673 80 632 57 563 C52 546 50 537 44 478 L225 478 C228 523 229 526 245 526 C256 526 263 520 263 512 C263 497 232 461 183 421 L70 328 C42 305 15 283 -22 253 L450 253 Z M430 273 L34 273 C50 286 66 300 83 313 L196 406 C253 452 283 489 283 512 C283 532 267 546 245 546 C220 546 208 532 206 498 L66 498 C72 546 76 562 88 582 C115 627 174 653 251 653 C351 653 424 598 424 522 C424 481 400 442 358 417 C345 409 334 403 295 383 L430 383 L430 273 Z " />
<glyph glyph-name="threesuperior" unicode="&#xb3;" horiz-adv-x="455" d="M17 410 C19 365 27 341 46 315 C78 272 144 247 229 247 C279 247 327 256 357 271 C403 294 433 340 433 386 C433 424 416 455 382 476 C406 498 415 518 415 546 C415 582 395 616 358 641 C326 663 285 673 227 673 C158 673 106 657 74 627 C48 603 38 578 33 529 L205 529 C205 550 211 558 226 558 C239 558 247 550 247 537 C247 519 237 513 208 513 L201 513 L201 427 C211 429 217 430 224 430 C247 430 262 417 262 398 C262 382 247 367 229 367 C204 367 194 380 194 410 L17 410 Z M174 390 C177 364 198 347 228 347 C258 347 282 371 282 400 C282 427 258 450 230 450 L221 450 L221 494 C248 494 267 512 267 537 C267 560 249 578 225 578 C205 578 189 566 186 548 L56 548 C67 618 125 653 227 653 C276 653 312 645 340 629 C375 608 395 578 395 546 C395 523 384 502 365 487 C356 481 356 481 330 473 C355 466 359 465 369 460 C396 446 413 418 413 386 C413 351 391 315 358 294 C329 277 282 267 229 267 C157 267 98 286 68 318 C49 339 42 356 39 390 L174 390 Z " />
<glyph glyph-name="acute" unicode="&#xb4;" horiz-adv-x="500" d="M291 744 L160 578 L269 510 L434 654 L291 744 Z M295 717 L401 652 L267 535 L189 583 L295 717 Z " />
<glyph glyph-name="mu" unicode="&#xb5;" horiz-adv-x="635" d="M259 -6 C285 -11 298 -13 319 -13 C381 -13 441 4 492 37 C556 77 587 132 587 205 L587 477 L337 477 L337 220 C337 202 330 192 317 192 C303 192 298 200 298 220 L298 477 L48 477 L48 -184 L303 -184 L259 -6 Z M277 -164 L68 -164 L68 457 L278 457 L278 220 C278 189 292 172 317 172 C341 172 357 191 357 220 L357 457 L567 457 L567 205 C567 147 546 102 502 68 C453 29 386 7 319 7 C285 7 273 9 230 24 L277 -164 Z " />
<glyph glyph-name="paragraph" unicode="&#xb6;" horiz-adv-x="487" d="M170 -87 L464 -87 L464 667 L226 667 C170 667 119 657 89 640 C38 611 9 556 9 488 C9 388 68 325 170 317 L170 -87 Z M190 -67 L190 338 C183 337 179 337 175 337 C88 337 29 398 29 488 C29 543 50 588 87 615 C116 636 165 647 226 647 L444 647 L444 -67 L327 -67 L327 526 L308 526 L308 -67 L190 -67 Z " />
<glyph glyph-name="periodcentered" unicode="&#xb7;" horiz-adv-x="306" d="M152 392 C74 392 9 327 9 250 C9 170 73 105 152 105 C232 105 296 169 296 249 C296 328 232 392 152 392 L152 392 Z M152 372 C221 372 276 317 276 249 C276 180 221 125 152 125 C84 125 29 181 29 250 C29 316 85 372 152 372 L152 372 Z " />
<glyph glyph-name="cedilla" unicode="&#xb8;" horiz-adv-x="500" d="M249 -198 L402 -46 L296 44 L138 -102 L249 -198 Z M248 -170 L168 -101 L296 18 L372 -47 L248 -170 Z " />
<glyph glyph-name="onesuperior" unicode="&#xb9;" horiz-adv-x="462" d="M162 253 L344 253 L344 668 L99 660 L99 506 L162 510 L162 253 Z M182 273 L182 531 L119 527 L119 641 L324 647 L324 273 L182 273 Z " />
<glyph glyph-name="ordmasculine" unicode="&#xba;" horiz-adv-x="388" d="M194 442 C172 442 156 426 156 405 C156 384 172 368 193 368 C216 368 231 382 231 405 C231 427 216 442 194 442 L194 442 Z M194 422 C205 422 211 416 211 405 C211 393 205 388 194 388 C183 388 176 395 176 405 C176 415 183 422 194 422 L194 422 Z M194 564 C84 564 9 499 9 404 C9 313 86 246 191 246 C303 246 378 309 378 403 C378 499 303 564 194 564 L194 564 Z M193 544 C292 544 358 488 358 403 C358 321 291 266 192 266 C97 266 29 324 29 404 C29 488 95 544 193 544 L193 544 Z " />
<glyph glyph-name="guillemotright" unicode="&#xbb;" horiz-adv-x="420" d="M164 86 L261 18 L417 245 L261 465 L165 398 L117 465 L2 384 L101 245 L2 99 L117 18 L164 86 Z M256 46 L174 104 L269 245 L174 379 L256 437 L392 245 L256 46 Z M112 46 L30 104 L125 245 L30 379 L112 437 L248 245 L112 46 Z " />
<glyph glyph-name="onequarter" unicode="&#xbc;" horiz-adv-x="859" d="M640 189 L643 292 L558 186 L640 189 Z M621 208 L601 208 L621 233 L621 208 Z M351 295 L351 667 L106 660 L106 505 L169 509 L169 253 L330 253 L216 26 L315 -24 L411 167 L411 72 L619 75 L613 0 L791 0 L787 75 L842 71 L842 213 L790 210 L790 413 L588 413 L446 237 L648 640 L549 690 L351 295 Z M189 273 L189 531 L126 527 L126 640 L331 646 L331 273 L189 273 Z M243 35 L558 663 L621 631 L306 3 L243 35 Z M770 20 L635 20 L640 96 L431 92 L431 187 L598 393 L770 393 L770 189 L822 192 L822 92 L766 96 L770 20 Z " />
<glyph glyph-name="onehalf" unicode="&#xbd;" horiz-adv-x="860" d="M440 225 L597 225 C599 269 601 273 617 273 C628 273 635 267 635 260 C635 244 603 207 555 168 L442 75 C407 47 407 47 349 0 L822 0 L822 150 L746 150 C794 185 816 221 816 268 C816 355 734 419 622 419 C587 419 565 416 530 405 L648 641 L549 690 L351 295 L351 667 L106 660 L106 505 L169 510 L169 253 L330 253 L216 26 L315 -24 L440 225 Z M500 390 C442 358 422 317 418 226 L306 3 L243 35 L558 664 L621 632 L500 390 Z M802 20 L405 20 C411 25 428 39 454 60 L568 153 C624 199 655 236 655 260 C655 279 639 293 617 293 C592 293 579 277 578 245 L438 245 C443 292 447 308 460 328 C487 373 546 399 623 399 C723 399 796 344 796 268 C796 227 772 190 730 164 C718 156 717 156 667 130 L802 130 L802 20 Z M189 273 L189 531 L126 527 L126 640 L331 646 L331 273 L189 273 Z " />
<glyph glyph-name="threequarters" unicode="&#xbe;" horiz-adv-x="857" d="M638 189 L641 292 L556 186 L638 189 Z M619 208 L599 208 L619 233 L619 208 Z M423 445 C409 462 406 466 390 476 C413 498 423 518 423 546 C423 582 403 616 366 641 C334 663 292 673 234 673 C165 673 113 657 81 627 C55 603 45 578 40 529 L212 529 C212 550 218 558 233 558 C246 558 254 550 254 537 C254 519 244 513 215 513 L208 513 L208 427 C218 429 223 430 231 430 C254 430 269 417 269 398 C269 382 254 367 236 367 C211 367 201 380 201 410 L24 410 C26 365 34 341 53 315 C85 272 151 247 236 247 C270 247 298 250 329 258 L213 26 L312 -24 L409 170 L409 72 L617 75 L611 0 L789 0 L785 75 L840 71 L840 213 L788 210 L788 413 L586 413 L441 234 L645 641 L546 691 L423 445 Z M555 664 L618 632 L303 3 L240 35 L356 268 C410 293 441 336 441 386 C441 398 440 406 434 422 L555 664 Z M768 20 L633 20 L638 96 L429 92 L429 187 L596 393 L768 393 L768 189 L820 192 L820 92 L764 96 L768 20 Z M181 390 C184 364 205 347 235 347 C265 347 289 370 289 400 C289 427 265 450 237 450 L228 450 L228 494 C255 494 274 512 274 537 C274 560 256 578 232 578 C212 578 196 566 193 548 L63 548 C74 618 132 653 235 653 C284 653 320 645 348 629 C383 608 403 578 403 546 C403 523 392 502 372 487 C363 481 363 481 337 473 C364 466 366 465 376 460 C404 446 421 418 421 386 C421 351 399 315 365 294 C337 277 290 267 236 267 C165 267 105 286 76 318 C56 339 49 356 46 390 L181 390 Z " />
<glyph glyph-name="questiondown" unicode="&#xbf;" horiz-adv-x="562" d="M363 456 C401 485 423 528 423 573 C423 652 359 717 281 717 C200 717 136 653 136 573 C136 527 157 486 196 457 C78 428 9 347 9 236 C9 164 41 90 91 47 C136 10 207 -13 280 -13 C395 -13 490 45 533 143 C545 171 547 183 552 247 L305 247 C303 239 302 232 302 230 C299 206 290 194 275 194 C260 194 252 203 252 219 C252 250 274 270 308 270 C321 270 321 270 369 255 L369 455 L363 456 Z M349 438 L349 282 C330 288 320 290 308 290 C264 290 232 261 232 219 C232 192 249 174 275 174 C301 174 317 192 322 227 L531 227 C527 185 523 166 509 140 C466 55 383 7 280 7 C211 7 145 28 104 63 C59 101 29 170 29 236 C29 345 105 425 225 442 C246 434 260 431 281 431 C301 431 315 434 334 441 L349 438 Z M280 697 C348 697 403 641 403 572 C403 506 347 450 281 450 C211 450 156 505 156 574 C156 642 211 697 280 697 L280 697 Z " />
<glyph glyph-name="Agrave" unicode="&#xc0;" horiz-adv-x="752" d="M324 243 L425 243 L375 453 L324 243 Z M350 263 L375 367 L399 263 L350 263 Z M214 613 L2 0 L282 0 L299 79 L448 79 L469 0 L749 0 L512 667 L376 667 L319 724 L146 666 L214 613 Z M438 577 L336 543 L187 659 L314 702 L438 577 Z M231 600 L332 522 L473 568 L395 647 L497 647 L721 20 L484 20 L463 99 L283 99 L266 20 L30 20 L231 600 Z " />
<glyph glyph-name="Aacute" unicode="&#xc1;" horiz-adv-x="752" d="M324 243 L425 243 L375 453 L324 243 Z M350 263 L375 367 L399 263 L350 263 Z M374 667 L233 667 L2 0 L282 0 L299 79 L448 79 L469 0 L749 0 L532 609 L605 666 L431 724 L374 667 Z M313 577 L437 702 L564 659 L415 543 L313 577 Z M356 647 L278 568 L419 522 L515 597 L721 20 L484 20 L463 99 L283 99 L266 20 L30 20 L247 647 L356 647 Z " />
<glyph glyph-name="Acircumflex" unicode="&#xc2;" horiz-adv-x="752" d="M324 243 L425 243 L375 453 L324 243 Z M350 263 L375 367 L399 263 L350 263 Z M186 532 L2 0 L282 0 L299 79 L448 79 L469 0 L749 0 L563 523 L591 649 L376 721 L160 649 L186 532 Z M204 543 L184 636 L376 700 L568 636 L547 543 L376 604 L204 543 Z M204 523 L376 583 L541 525 L721 20 L484 20 L463 99 L283 99 L266 20 L30 20 L204 523 Z " />
<glyph glyph-name="Atilde" unicode="&#xc3;" horiz-adv-x="752" d="M324 243 L425 243 L375 453 L324 243 Z M350 263 L375 367 L399 263 L350 263 Z M195 558 L2 0 L282 0 L299 79 L448 79 L469 0 L749 0 L540 587 C554 601 564 613 575 630 L601 672 L472 709 C469 705 467 701 464 696 C450 675 445 671 433 671 C424 671 409 675 392 682 L370 692 C353 699 336 702 317 702 C275 702 235 682 198 642 C181 624 180 624 152 575 L195 558 Z M181 585 C217 647 266 682 317 682 C334 682 348 679 362 673 L384 664 C404 655 421 651 433 651 C453 651 462 658 480 685 L570 660 L558 641 C525 588 477 558 423 558 C412 558 402 559 396 561 L337 583 C327 586 317 588 310 588 C292 588 282 580 265 552 L181 585 Z M214 551 L275 527 C288 559 296 569 311 569 C316 569 323 567 330 565 L390 543 C398 540 409 539 424 539 C463 539 489 548 523 574 L721 20 L484 20 L463 99 L283 99 L266 20 L30 20 L214 551 Z " />
<glyph glyph-name="Adieresis" unicode="&#xc4;" horiz-adv-x="752" d="M324 243 L425 243 L375 453 L324 243 Z M350 263 L375 367 L399 263 L350 263 Z M2 0 L282 0 L299 79 L448 79 L469 0 L749 0 L551 556 C574 580 582 599 582 628 C582 683 538 727 483 727 C442 727 412 707 392 667 L347 667 C327 706 296 727 255 727 C200 727 156 683 156 628 C156 597 168 572 193 551 L2 0 Z M255 707 C299 707 334 672 334 628 C334 584 299 549 254 549 C212 549 176 585 176 628 C176 672 211 707 255 707 L255 707 Z M483 707 C527 707 562 672 562 628 C562 584 527 549 482 549 C440 549 404 585 404 628 C404 672 439 707 483 707 L483 707 Z M210 541 C227 533 239 530 255 530 C308 530 353 574 353 626 C353 631 352 638 351 647 L387 647 C386 638 385 630 385 626 C385 574 430 530 484 530 C502 530 514 533 534 544 L721 20 L484 20 L463 99 L283 99 L266 20 L30 20 L210 541 Z " />
<glyph glyph-name="Aring" unicode="&#xc5;" horiz-adv-x="752" d="M375 682 C354 682 336 664 336 642 C336 621 354 603 375 603 C397 603 414 621 414 643 C414 664 397 682 375 682 L375 682 Z M375 662 C385 662 394 653 394 643 C394 632 385 623 375 623 C365 623 356 632 356 643 C356 653 365 662 375 662 L375 662 Z M324 243 L425 243 L375 453 L324 243 Z M350 263 L375 367 L399 263 L350 263 Z M251 717 L2 0 L282 0 L299 79 L448 79 L469 0 L749 0 L501 697 L500 693 C477 738 435 761 375 761 C319 761 276 739 254 699 L251 717 Z M375 741 C445 741 490 703 490 642 C490 582 443 542 373 542 C307 542 261 584 261 643 C261 703 305 741 375 741 L375 741 Z M242 631 C246 608 249 598 256 585 C279 546 322 523 374 523 C443 523 497 562 507 619 L721 20 L484 20 L463 99 L283 99 L266 20 L30 20 L242 631 Z " />
<glyph glyph-name="AE" unicode="&#xc6;" horiz-adv-x="939" d="M323 243 L425 243 L373 438 L323 243 Z M349 263 L373 359 L399 263 L349 263 Z M2 0 L281 0 L300 79 L447 79 L468 0 L936 0 L864 207 L674 207 L665 234 L853 234 L783 434 L593 434 L584 460 L773 460 L704 667 L234 667 L2 0 Z M30 20 L248 647 L689 647 L745 480 L556 480 L579 414 L768 414 L824 254 L637 254 L660 187 L850 187 L908 20 L484 20 L462 99 L285 99 L265 20 L30 20 Z " />
<glyph glyph-name="Ccedilla" unicode="&#xc7;" horiz-adv-x="552" d="M216 -145 L347 -145 L420 -5 L433 -3 C486 5 496 7 528 21 L536 308 C484 262 484 262 472 253 C449 237 416 227 389 227 C325 227 276 274 276 335 C276 394 324 440 384 440 C413 440 448 427 478 404 C486 398 486 398 536 356 L528 647 C466 668 420 676 354 676 C161 676 9 522 9 327 C9 170 112 38 263 1 L216 -145 Z M444 45 L279 45 L270 20 C125 56 29 178 29 327 C29 511 172 656 354 656 C409 656 464 648 508 633 L514 401 C467 442 426 460 384 460 C313 460 256 405 256 335 C256 263 314 207 389 207 C434 207 470 223 514 262 L508 35 C492 27 474 23 430 17 L444 45 Z M335 -125 L243 -125 L292 26 L413 26 L335 -125 Z " />
<glyph glyph-name="Egrave" unicode="&#xc8;" horiz-adv-x="504" d="M256 667 L199 724 L28 667 L23 667 L23 0 L490 0 L490 207 L287 207 L287 234 L466 234 L466 434 L287 434 L287 460 L484 460 L484 667 L256 667 Z M51 647 L211 522 L353 568 L274 647 L464 647 L464 480 L267 480 L267 414 L446 414 L446 254 L267 254 L267 187 L470 187 L470 20 L43 20 L43 647 L51 647 Z M317 577 L215 543 L67 659 L193 702 L317 577 Z " />
<glyph glyph-name="Eacute" unicode="&#xc9;" horiz-adv-x="504" d="M482 667 L311 724 L254 667 L23 667 L23 0 L490 0 L490 207 L287 207 L287 234 L466 234 L466 434 L287 434 L287 460 L484 460 L484 667 L482 667 Z M235 647 L157 568 L298 522 L459 647 L464 647 L464 480 L267 480 L267 414 L446 414 L446 254 L267 254 L267 187 L470 187 L470 20 L43 20 L43 647 L235 647 Z M192 577 L316 702 L443 659 L295 543 L192 577 Z " />
<glyph glyph-name="Ecircumflex" unicode="&#xca;" horiz-adv-x="504" d="M91 667 L23 667 L23 0 L490 0 L490 207 L287 207 L287 234 L466 234 L466 434 L287 434 L287 460 L484 460 L484 667 L418 667 L254 722 L91 667 Z M43 631 L68 517 L254 583 L440 517 L464 623 L464 480 L267 480 L267 414 L446 414 L446 254 L267 254 L267 187 L470 187 L470 20 L43 20 L43 631 Z M83 544 L62 636 L254 701 L446 636 L426 544 L254 604 L83 544 Z " />
<glyph glyph-name="Edieresis" unicode="&#xcb;" horiz-adv-x="504" d="M239 667 C219 707 188 727 148 727 C107 727 76 707 56 667 L23 667 L23 0 L490 0 L490 207 L287 207 L287 234 L466 234 L466 434 L287 434 L287 460 L484 460 L484 667 L450 667 C430 707 400 727 359 727 C319 727 288 707 268 667 L239 667 Z M51 647 C50 638 49 630 49 626 C49 574 95 530 147 530 C201 530 246 574 246 626 C246 630 245 638 244 647 L263 647 C262 638 261 630 261 626 C261 574 306 530 359 530 C412 530 457 574 457 626 C457 631 456 638 455 647 L464 647 L464 480 L267 480 L267 414 L446 414 L446 254 L267 254 L267 187 L470 187 L470 20 L43 20 L43 647 L51 647 Z M148 707 C192 707 227 672 227 628 C227 584 192 549 147 549 C104 549 68 585 68 628 C68 672 103 707 148 707 L148 707 Z M359 707 C403 707 438 672 438 628 C438 584 403 549 358 549 C316 549 280 585 280 628 C280 672 315 707 359 707 L359 707 Z " />
<glyph glyph-name="Igrave" unicode="&#xcc;" horiz-adv-x="311" d="M23 610 L23 0 L287 0 L287 667 L176 667 L115 744 L-28 655 L23 610 Z M191 647 L267 647 L267 20 L43 20 L43 594 L138 511 L244 579 L191 647 Z M111 717 L216 584 L139 535 L6 652 L111 717 Z " />
<glyph glyph-name="Iacute" unicode="&#xcd;" horiz-adv-x="311" d="M287 610 L338 655 L195 744 L134 667 L23 667 L23 0 L287 0 L287 610 Z M119 647 L66 579 L172 511 L267 594 L267 20 L43 20 L43 647 L119 647 Z M199 717 L304 652 L171 535 L94 584 L199 717 Z " />
<glyph glyph-name="Icircumflex" unicode="&#xce;" horiz-adv-x="311" d="M287 536 L311 527 L341 659 L155 722 L-30 659 L-1 527 L23 536 L23 0 L287 0 L287 536 Z M43 544 L155 584 L267 544 L267 20 L43 20 L43 544 Z M155 700 L317 646 L297 554 L155 604 L14 554 L-7 646 L155 700 Z " />
<glyph glyph-name="Idieresis" unicode="&#xcf;" horiz-adv-x="308" d="M286 555 C306 576 313 594 313 619 C313 670 272 710 222 710 C196 710 172 700 154 680 C135 700 113 710 86 710 C36 710 -5 670 -5 619 C-5 594 3 576 22 555 L22 0 L286 0 L286 555 Z M266 20 L42 20 L42 542 C59 533 70 530 86 530 C113 530 133 539 154 561 C174 539 195 530 223 530 C239 530 249 533 266 542 L266 20 Z M165 577 C173 592 176 603 176 620 C176 636 173 647 165 662 C181 681 199 690 222 690 C261 690 293 659 293 620 C293 581 261 549 222 549 C200 549 181 558 165 577 L165 577 Z M86 690 C125 690 157 659 157 620 C157 580 125 549 85 549 C47 549 15 581 15 619 C15 659 47 690 86 690 L86 690 Z " />
<glyph glyph-name="Eth" unicode="&#xd0;" horiz-adv-x="733" d="M80 410 L23 410 L23 269 L80 269 L80 0 L398 0 C481 0 562 30 624 85 C692 145 723 221 723 328 C723 539 579 667 341 667 L80 667 L80 410 Z M342 269 L411 269 L411 410 L342 410 L342 439 L357 439 C419 439 460 397 460 331 C460 270 418 227 357 227 L342 227 L342 269 Z M100 270 L322 270 L322 207 L357 207 C429 207 480 259 480 331 C480 408 431 459 357 459 L322 459 L322 409 L100 409 L100 647 L341 647 C568 647 703 528 703 328 C703 241 682 176 636 125 C578 59 489 20 398 20 L100 20 L100 270 Z M43 289 L43 390 L391 390 L391 289 L43 289 Z " />
<glyph glyph-name="Ntilde" unicode="&#xd1;" horiz-adv-x="714" d="M579 667 L582 672 L453 709 L445 696 C431 675 426 671 414 671 C405 671 390 675 373 682 L351 692 C334 699 317 702 298 702 C265 702 240 693 205 667 L23 667 L23 0 L277 0 L274 271 L444 0 L690 0 L690 667 L579 667 Z M337 554 L370 542 C379 540 391 538 406 538 C417 538 424 539 437 541 L439 386 L337 554 Z M185 647 C165 627 156 614 135 575 L256 527 C270 560 278 569 293 569 C297 569 300 568 307 566 L460 312 L457 547 C495 561 529 589 555 631 L565 647 L670 647 L670 20 L455 20 L253 342 L257 20 L43 20 L43 647 L185 647 Z M162 585 C198 647 247 682 298 682 C315 682 329 679 343 673 L365 664 C386 655 402 651 414 651 C433 651 444 658 461 685 L551 660 L539 641 C506 587 458 558 404 558 C393 558 383 559 377 561 L318 583 C308 586 298 588 291 588 C273 588 262 579 246 552 L162 585 Z " />
<glyph glyph-name="Ograve" unicode="&#xd2;" horiz-adv-x="752" d="M377 459 C307 459 256 406 256 335 C256 260 305 208 377 208 C448 208 496 258 496 332 C496 406 446 459 377 459 L377 459 Z M376 439 C435 439 476 395 476 332 C476 269 437 228 377 228 C316 228 276 271 276 335 C276 395 318 439 376 439 L376 439 Z M188 633 C162 618 154 613 143 606 C62 550 9 442 9 332 C9 237 46 150 114 85 C179 23 266 -9 370 -9 C587 -9 742 133 742 333 C742 514 613 656 434 673 C420 674 393 676 366 677 L319 724 L146 666 L188 633 Z M438 576 L336 543 L187 659 L314 701 L438 576 Z M332 521 L473 568 L386 656 C453 653 487 647 531 628 C651 576 722 466 722 333 C722 144 576 11 370 11 C287 11 214 33 159 73 C77 134 29 229 29 332 C29 407 54 480 100 537 C128 573 150 590 206 620 L332 521 Z " />
<glyph glyph-name="Oacute" unicode="&#xd3;" horiz-adv-x="752" d="M377 459 C307 459 256 406 256 335 C256 260 305 208 377 208 C448 208 496 258 496 332 C496 406 446 459 377 459 L377 459 Z M376 439 C435 439 476 395 476 332 C476 269 437 228 377 228 C316 228 276 271 276 335 C276 395 318 439 376 439 L376 439 Z M385 677 C338 674 332 674 310 671 C136 650 9 508 9 333 C9 134 160 -9 370 -9 C587 -9 742 133 742 333 C742 464 677 575 565 634 L605 666 L431 724 L385 677 Z M313 576 L437 701 L564 659 L415 543 L313 576 Z M278 568 L419 521 L546 621 C656 569 722 460 722 333 C722 144 576 11 370 11 C171 11 29 145 29 333 C29 456 94 562 201 617 C250 642 287 651 365 656 L278 568 Z " />
<glyph glyph-name="Ocircumflex" unicode="&#xd4;" horiz-adv-x="752" d="M377 459 C307 459 256 406 256 335 C256 260 305 208 377 208 C448 208 496 258 496 332 C496 406 446 459 377 459 L377 459 Z M376 439 C435 439 476 395 476 332 C476 269 437 228 377 228 C316 228 276 271 276 335 C276 395 318 439 376 439 L376 439 Z M166 622 C142 605 131 597 121 588 C52 529 9 431 9 332 C9 237 46 150 114 85 C179 23 266 -9 370 -9 C587 -9 742 133 742 332 C742 434 699 532 629 591 C620 598 610 606 585 623 L591 649 L376 722 L160 649 L166 622 Z M204 543 L184 636 L376 700 L568 636 L547 543 L376 604 L204 543 Z M190 518 L376 584 L561 518 L580 603 C613 580 627 568 643 549 C693 492 722 413 722 332 C722 144 576 11 370 11 C287 11 214 33 159 74 C77 134 29 229 29 332 C29 403 52 473 93 529 C114 558 131 573 172 601 L190 518 Z " />
<glyph glyph-name="Otilde" unicode="&#xd5;" horiz-adv-x="752" d="M377 459 C307 459 256 406 256 335 C256 260 305 208 377 208 C448 208 496 258 496 332 C496 406 446 459 377 459 L377 459 Z M376 439 C435 439 476 395 476 332 C476 269 437 228 377 228 C316 228 276 271 276 335 C276 395 318 439 376 439 L376 439 Z M472 709 C470 705 467 701 464 696 C450 675 445 671 433 671 C424 671 409 675 392 682 L370 692 C354 699 336 702 317 702 C271 702 238 684 189 634 C75 574 9 465 9 332 C9 237 46 150 114 85 C179 23 266 -9 370 -9 C587 -9 742 133 742 333 C742 460 681 569 575 629 L601 672 L472 709 Z M181 585 C217 647 266 682 317 682 C334 682 348 679 362 673 L384 664 C405 655 421 651 433 651 C453 651 462 658 481 685 L570 660 L558 641 C526 588 477 558 423 558 C412 558 402 559 396 561 L337 583 C327 586 318 588 310 588 C292 588 282 579 265 552 L181 585 Z M275 527 C288 559 297 569 311 569 C316 569 323 567 330 565 L390 543 C398 540 410 539 425 539 C478 539 525 565 562 613 C663 557 722 454 722 333 C722 144 576 11 370 11 C287 11 214 33 159 74 C77 134 29 229 29 332 C29 399 50 466 87 521 C106 548 124 566 167 598 C160 586 159 585 154 575 L275 527 Z " />
<glyph glyph-name="Odieresis" unicode="&#xd6;" horiz-adv-x="752" d="M377 459 C307 459 256 406 256 335 C256 260 305 208 377 208 C448 208 496 258 496 332 C496 406 446 459 377 459 L377 459 Z M376 439 C435 439 476 395 476 332 C476 269 437 228 377 228 C316 228 276 271 276 335 C276 395 318 439 376 439 L376 439 Z M589 628 C591 680 545 727 490 727 C453 727 422 709 403 676 C388 677 383 677 380 677 C372 677 361 677 349 676 C330 709 299 727 262 727 C204 727 163 683 163 620 C137 601 126 593 118 586 C51 528 9 429 9 332 C9 237 46 150 114 85 C179 23 266 -9 370 -9 C587 -9 742 133 742 332 C742 433 700 530 632 589 C623 597 613 604 589 622 L589 628 Z M262 707 C306 707 341 672 341 628 C341 584 306 549 261 549 C219 549 183 585 183 628 C183 672 218 707 262 707 L262 707 Z M490 707 C534 707 569 672 569 628 C569 584 534 549 489 549 C446 549 410 585 410 628 C410 672 445 707 490 707 L490 707 Z M168 599 C182 557 219 530 262 530 C316 530 360 574 360 629 C360 639 359 645 356 656 C364 657 370 657 381 657 C384 657 389 657 396 656 C392 645 391 639 391 629 C391 574 435 530 489 530 C533 530 570 558 584 601 C615 578 629 566 645 548 C694 491 722 413 722 332 C722 144 576 11 370 11 C287 11 214 33 159 74 C77 134 29 229 29 332 C29 402 52 472 92 528 C113 556 128 571 168 599 L168 599 Z " />
<glyph glyph-name="multiply" unicode="&#xd7;" horiz-adv-x="537" d="M23 467 L151 340 L23 212 L141 94 L268 222 L396 94 L514 212 L386 340 L514 467 L396 585 L268 458 L141 585 L23 467 Z M51 467 L141 557 L268 429 L396 557 L486 467 L358 340 L486 212 L396 123 L268 250 L141 123 L51 212 L179 340 L51 467 Z " />
<glyph glyph-name="Oslash" unicode="&#xd8;" horiz-adv-x="763" d="M382 459 C312 459 261 406 261 335 C261 260 310 208 382 208 C453 208 501 258 501 332 C501 406 451 459 382 459 L382 459 Z M381 439 C440 439 481 395 481 332 C481 269 442 228 382 228 C321 228 281 271 281 335 C281 395 323 439 381 439 L381 439 Z M777 597 L677 707 L589 625 C522 662 463 677 382 677 C170 677 15 533 15 335 C15 267 33 204 71 142 L-15 62 L84 -46 L176 40 C243 5 298 -9 378 -9 C594 -9 748 134 748 336 C748 406 737 443 695 521 L777 597 Z M676 678 L749 598 L587 447 L513 527 L676 678 Z M247 133 L85 -17 L13 61 L175 212 L247 133 Z M487 528 L585 421 L679 508 C717 440 728 401 728 336 C728 145 583 11 378 11 C305 11 248 25 191 55 L274 132 L176 239 L86 155 C52 212 35 270 35 335 C35 522 180 657 382 657 C455 657 518 642 574 610 L487 528 Z " />
<glyph glyph-name="Ugrave" unicode="&#xd9;" horiz-adv-x="660" d="M378 620 L274 724 L103 667 L20 667 L20 250 C20 173 51 101 103 60 C157 16 241 -9 335 -9 C524 -9 640 95 640 266 L640 667 L378 667 L378 620 Z M282 524 L286 521 L378 551 L378 288 C378 237 367 222 331 222 C297 222 282 242 282 288 L282 524 Z M126 647 L262 540 L262 288 C262 231 285 202 331 202 C379 202 398 226 398 288 L398 558 L428 568 L398 598 L398 647 L620 647 L620 266 C620 107 513 11 335 11 C245 11 166 34 115 75 C68 113 40 179 40 250 L40 647 L126 647 Z M393 577 L290 543 L142 659 L268 702 L393 577 Z " />
<glyph glyph-name="Uacute" unicode="&#xda;" horiz-adv-x="660" d="M557 667 L386 724 L282 620 L282 667 L20 667 L20 250 C20 173 51 101 103 60 C157 16 241 -9 335 -9 C524 -9 640 95 640 266 L640 667 L557 667 Z M282 551 L374 521 L378 524 L378 288 C378 237 367 222 331 222 C297 222 282 242 282 288 L282 551 Z M262 599 L232 568 L262 558 L262 288 C262 231 285 202 331 202 C379 202 398 226 398 288 L398 541 L534 647 L620 647 L620 266 C620 107 513 11 335 11 C245 11 166 34 115 75 C68 113 40 179 40 250 L40 647 L262 647 L262 599 Z M267 577 L392 702 L518 659 L370 543 L267 577 Z " />
<glyph glyph-name="Ucircumflex" unicode="&#xdb;" horiz-adv-x="660" d="M134 656 L132 667 L20 667 L20 250 C20 173 51 101 103 60 C157 16 241 -9 335 -9 C524 -9 640 95 640 266 L640 667 L528 667 L526 656 L330 722 L134 656 Z M282 566 L330 583 L378 566 L378 288 C378 237 367 222 331 222 C297 222 282 242 282 288 L282 566 Z M116 647 L145 518 L262 560 L262 288 C262 231 285 202 331 202 C379 202 398 226 398 288 L398 560 L516 518 L544 647 L620 647 L620 266 C620 107 513 11 335 11 C245 11 166 34 115 75 C68 113 40 179 40 250 L40 647 L116 647 Z M158 544 L138 636 L330 701 L522 636 L502 544 L330 604 L158 544 Z " />
<glyph glyph-name="Udieresis" unicode="&#xdc;" horiz-adv-x="660" d="M282 554 C304 574 315 599 315 628 C315 683 271 727 216 727 C175 727 144 707 125 667 L20 667 L20 250 C20 173 51 101 103 60 C157 16 241 -9 335 -9 C524 -9 640 95 640 266 L640 667 L535 667 C516 707 485 727 444 727 C389 727 345 683 345 628 C345 599 356 574 378 554 L378 288 C378 237 367 222 331 222 C297 222 282 242 282 288 L282 554 Z M120 647 C119 638 118 630 118 626 C118 574 163 530 216 530 C233 530 244 533 262 542 L262 288 C262 231 285 202 331 202 C379 202 398 226 398 288 L398 542 C416 533 427 530 444 530 C497 530 542 574 542 626 C542 630 541 638 540 647 L620 647 L620 266 C620 107 513 11 335 11 C245 11 166 34 115 75 C68 113 40 179 40 250 L40 647 L120 647 Z M216 707 C260 707 295 672 295 628 C295 584 260 549 215 549 C173 549 137 585 137 628 C137 672 172 707 216 707 L216 707 Z M444 707 C488 707 523 672 523 628 C523 584 488 549 443 549 C401 549 365 585 365 628 C365 672 400 707 444 707 L444 707 Z " />
<glyph glyph-name="Yacute" unicode="&#xdd;" horiz-adv-x="727" d="M590 667 L420 724 L322 627 L303 667 L2 667 L236 285 L236 0 L496 0 L496 285 L725 667 L590 667 Z M308 610 L266 568 L340 544 L368 484 L387 528 L407 522 L567 647 L690 647 L476 290 L476 20 L256 20 L256 290 L38 647 L290 647 L308 610 Z M301 577 L425 702 L552 659 L403 543 L301 577 Z " />
<glyph glyph-name="Thorn" unicode="&#xde;" horiz-adv-x="618" d="M261 281 L304 281 C345 281 373 305 373 341 C373 376 348 397 307 397 L261 397 L261 281 Z M281 301 L281 377 L307 377 C337 377 353 364 353 341 C353 316 334 301 304 301 L281 301 Z M23 0 L281 0 L281 108 L391 108 C521 108 611 201 611 336 C611 485 505 584 344 584 L281 584 L281 667 L23 667 L23 0 Z M43 20 L43 647 L261 647 L261 564 L344 564 C494 564 591 474 591 336 C591 212 510 128 391 128 L261 128 L261 20 L43 20 Z " />
<glyph glyph-name="germandbls" unicode="&#xdf;" horiz-adv-x="605" d="M23 1 L273 1 L273 443 C273 485 273 489 278 501 C284 513 293 519 308 519 C326 519 339 508 339 493 C339 476 328 466 308 465 C305 465 298 465 289 464 L289 311 L307 309 C336 306 343 289 343 225 C343 182 332 163 305 157 C302 157 296 156 289 154 L289 2 C317 0 327 0 340 0 C407 0 472 19 518 52 C567 88 596 150 596 223 C596 309 560 376 493 414 C531 445 547 484 547 542 C547 586 531 628 500 662 C459 708 380 737 295 737 C216 737 122 706 79 665 C38 626 23 575 23 470 L23 1 Z M43 21 L43 470 C43 564 54 609 85 643 C123 684 216 717 295 717 C366 717 437 695 474 661 C508 629 527 587 527 542 C527 479 511 450 454 410 C482 398 491 393 504 385 C548 352 576 290 576 223 C576 156 551 100 506 68 C464 38 402 20 340 20 C331 20 323 20 309 21 L309 138 C347 146 363 172 363 225 C363 300 350 324 309 329 L309 445 C340 447 359 465 359 493 C359 519 337 539 308 539 C285 539 269 528 260 509 C254 493 253 488 253 443 L253 21 L43 21 Z " />
<glyph glyph-name="agrave" unicode="&#xe0;" horiz-adv-x="601" d="M269 712 L126 623 L291 478 L400 547 L269 712 Z M265 686 L370 552 L293 503 L159 620 L265 686 Z M298 305 C263 305 237 277 237 239 C237 203 263 174 296 174 C330 174 358 204 358 241 C358 278 333 305 298 305 L298 305 Z M298 285 C322 285 338 267 338 241 C338 215 319 194 296 194 C274 194 257 214 257 239 C257 266 274 285 298 285 L298 285 Z M330 477 L330 458 C292 482 265 490 225 490 C101 490 9 382 9 237 C9 93 98 -13 218 -13 C261 -13 291 -3 331 25 L331 0 L577 0 L577 477 L330 477 Z M350 457 L557 457 L557 20 L351 20 L351 67 C300 22 267 7 219 7 C109 7 29 104 29 237 C29 370 113 470 224 470 C260 470 300 457 323 438 C329 433 334 429 350 412 L350 457 Z " />
<glyph glyph-name="aacute" unicode="&#xe1;" horiz-adv-x="601" d="M342 712 L212 547 L320 478 L485 623 L342 712 Z M347 686 L452 620 L318 503 L241 552 L347 686 Z M298 305 C263 305 237 277 237 239 C237 203 263 174 296 174 C330 174 358 204 358 241 C358 278 333 305 298 305 L298 305 Z M298 285 C322 285 338 267 338 241 C338 215 319 194 296 194 C274 194 257 214 257 239 C257 266 274 285 298 285 L298 285 Z M330 477 L330 458 C292 482 265 490 225 490 C101 490 9 382 9 237 C9 93 98 -13 218 -13 C261 -13 291 -3 331 25 L331 0 L577 0 L577 477 L330 477 Z M350 457 L557 457 L557 20 L351 20 L351 67 C300 22 267 7 219 7 C109 7 29 104 29 237 C29 370 113 470 224 470 C260 470 300 457 323 438 C329 433 334 429 350 412 L350 457 Z " />
<glyph glyph-name="acircumflex" unicode="&#xe2;" horiz-adv-x="601" d="M298 305 C263 305 237 277 237 239 C237 203 263 174 296 174 C330 174 358 204 358 241 C358 278 333 305 298 305 L298 305 Z M298 285 C322 285 338 267 338 241 C338 215 319 194 296 194 C274 194 257 214 257 239 C257 266 274 285 298 285 L298 285 Z M330 477 L330 458 C292 482 265 490 225 490 C101 490 9 382 9 237 C9 93 98 -13 218 -13 C261 -13 291 -3 331 25 L331 0 L577 0 L577 477 L330 477 Z M350 457 L557 457 L557 20 L351 20 L351 67 C300 22 267 7 219 7 C109 7 29 104 29 237 C29 370 113 470 224 470 C260 470 300 457 323 438 C329 433 334 429 350 412 L350 457 Z M158 479 L304 548 L451 479 L510 592 L304 701 L98 592 L158 479 Z M167 505 L125 584 L304 678 L483 584 L442 505 L304 570 L167 505 Z " />
<glyph glyph-name="atilde" unicode="&#xe3;" horiz-adv-x="601" d="M193 489 C220 529 224 532 236 532 C240 532 243 531 256 526 L317 501 C330 496 349 493 366 493 C401 493 426 504 457 534 C481 556 484 561 513 611 L401 662 C371 626 368 624 358 624 C352 624 341 628 331 633 L300 650 C289 656 262 661 244 661 C208 661 171 644 139 613 C125 599 122 595 92 553 L193 489 Z M121 559 C159 614 199 641 244 641 C259 641 282 637 290 632 L322 615 C334 608 348 604 359 604 C375 604 382 609 407 637 L485 602 C451 544 411 513 366 513 C351 513 335 516 324 520 L263 544 C247 551 243 552 236 552 C219 552 205 542 188 516 L121 559 Z M298 305 C263 305 237 277 237 239 C237 203 263 174 296 174 C330 174 358 204 358 241 C358 278 333 305 298 305 L298 305 Z M298 285 C322 285 338 267 338 241 C338 215 319 194 296 194 C274 194 257 214 257 239 C257 266 274 285 298 285 L298 285 Z M330 477 L330 458 C292 482 265 490 225 490 C101 490 9 382 9 237 C9 93 98 -13 218 -13 C261 -13 291 -3 331 25 L331 0 L577 0 L577 477 L330 477 Z M350 457 L557 457 L557 20 L351 20 L351 67 C300 22 267 7 219 7 C109 7 29 104 29 237 C29 370 113 470 224 470 C260 470 300 457 323 438 C329 433 334 429 350 412 L350 457 Z " />
<glyph glyph-name="adieresis" unicode="&#xe4;" horiz-adv-x="601" d="M220 672 C170 672 130 632 130 582 C130 533 170 492 219 492 C270 492 310 532 310 582 C310 632 270 672 220 672 L220 672 Z M220 652 C259 652 290 621 290 582 C290 543 259 512 219 512 C182 512 150 544 150 582 C150 621 181 652 220 652 L220 652 Z M404 672 C354 672 314 632 314 582 C314 533 354 492 403 492 C454 492 494 532 494 582 C494 632 454 672 404 672 L404 672 Z M404 652 C443 652 474 621 474 582 C474 543 443 512 403 512 C365 512 334 544 334 582 C334 621 365 652 404 652 L404 652 Z M298 305 C263 305 237 277 237 239 C237 203 263 174 296 174 C330 174 358 204 358 241 C358 278 333 305 298 305 L298 305 Z M298 285 C322 285 338 267 338 241 C338 215 319 194 296 194 C274 194 257 214 257 239 C257 266 274 285 298 285 L298 285 Z M330 477 L330 458 C292 482 265 490 225 490 C101 490 9 382 9 237 C9 93 98 -13 218 -13 C261 -13 291 -3 331 25 L331 0 L577 0 L577 477 L330 477 Z M350 457 L557 457 L557 20 L351 20 L351 67 C300 22 267 7 219 7 C109 7 29 104 29 237 C29 370 113 470 224 470 C260 470 300 457 323 438 C329 433 334 429 350 412 L350 457 Z " />
<glyph glyph-name="aring" unicode="&#xe5;" horiz-adv-x="601" d="M303 642 C280 642 262 624 262 602 C262 580 280 561 302 561 C325 561 343 579 343 602 C343 624 325 642 303 642 L303 642 Z M303 622 C314 622 323 613 323 602 C323 590 314 581 302 581 C291 581 282 590 282 601 C282 613 291 622 303 622 L303 622 Z M301 712 C227 712 178 668 178 602 C178 537 229 490 300 490 C375 490 427 535 427 601 C427 668 377 712 301 712 L301 712 Z M301 692 C366 692 407 657 407 601 C407 547 364 510 300 510 C240 510 198 548 198 602 C198 657 238 692 301 692 L301 692 Z M298 305 C263 305 237 277 237 239 C237 203 263 174 296 174 C330 174 358 204 358 241 C358 278 333 305 298 305 L298 305 Z M298 285 C322 285 338 267 338 241 C338 215 319 194 296 194 C274 194 257 214 257 239 C257 266 274 285 298 285 L298 285 Z M330 477 L330 458 C292 482 265 490 225 490 C101 490 9 382 9 237 C9 93 98 -13 218 -13 C261 -13 291 -3 331 25 L331 0 L577 0 L577 477 L330 477 Z M350 457 L557 457 L557 20 L351 20 L351 67 C300 22 267 7 219 7 C109 7 29 104 29 237 C29 370 113 470 224 470 C260 470 300 457 323 438 C329 433 334 429 350 412 L350 457 Z " />
<glyph glyph-name="ae" unicode="&#xe6;" horiz-adv-x="953" d="M306 211 C251 211 221 194 221 161 C221 131 250 114 300 114 C361 114 408 137 408 167 C408 193 367 211 306 211 L306 211 Z M306 191 C350 191 388 179 388 166 C388 151 343 134 300 134 C263 134 241 144 241 161 C241 181 263 191 306 191 L306 191 Z M719 289 C715 333 696 356 662 356 C642 356 624 344 616 327 C612 317 611 309 610 289 L719 289 Z M632 309 C635 326 645 336 662 336 C679 336 691 326 694 309 L632 309 Z M27 308 C156 350 188 357 250 357 C301 357 332 342 338 314 C293 325 265 329 225 329 C92 329 9 265 9 162 C9 58 101 -13 235 -13 C317 -13 385 9 454 58 C507 12 580 -13 662 -13 C752 -13 838 23 890 84 C913 110 921 125 936 177 L689 177 C686 154 679 147 660 147 C637 147 627 161 627 196 L943 196 C942 247 941 261 936 285 C908 413 802 490 657 490 C575 490 521 470 456 418 C401 473 354 490 256 490 C181 490 164 487 27 452 L27 308 Z M47 436 C153 464 189 470 256 470 C328 470 378 457 413 430 C425 421 433 414 454 390 C525 450 574 470 654 470 C775 470 862 419 903 324 C917 291 921 266 923 216 L607 216 L607 200 C607 151 624 127 660 127 C683 127 700 138 705 157 L909 157 C896 120 882 100 854 75 C802 31 735 7 662 7 C598 7 527 28 485 59 C478 64 471 69 455 84 C433 68 424 62 415 56 C364 25 300 7 235 7 C112 7 29 69 29 162 C29 253 103 309 225 309 C271 309 290 306 360 287 C359 310 359 310 357 320 C349 356 310 377 251 377 C193 377 141 366 47 336 L47 436 Z " />
<glyph glyph-name="ccedilla" unicode="&#xe7;" horiz-adv-x="424" d="M117 -145 L248 -145 L318 -10 C354 -3 361 -1 382 7 C389 10 396 13 402 16 L413 246 L409 242 L409 462 C351 482 307 490 253 490 C201 490 146 471 103 438 C42 391 9 321 9 237 C9 125 66 40 165 5 L117 -145 Z M404 238 C386 224 386 224 379 219 C354 200 334 192 309 192 C283 192 262 213 262 241 C262 269 282 288 311 288 C340 288 345 285 404 238 L404 238 Z M345 45 L179 45 L172 23 C81 56 29 133 29 237 C29 305 52 363 95 405 C137 445 196 470 253 470 C297 470 351 461 389 447 L389 276 C360 299 339 308 311 308 C271 308 242 280 242 241 C242 202 272 172 309 172 C339 172 362 181 391 203 L383 29 C361 20 350 16 328 12 L345 45 Z M236 -125 L144 -125 L193 26 L314 26 L236 -125 Z " />
<glyph glyph-name="egrave" unicode="&#xe8;" horiz-adv-x="581" d="M348 289 C344 333 325 356 291 356 C271 356 253 344 245 327 C241 317 240 309 239 289 L348 289 Z M262 309 C264 326 275 336 291 336 C308 336 320 326 323 309 L262 309 Z M388 547 L257 712 L114 623 L267 489 C112 480 9 377 9 234 C9 86 123 -13 293 -13 C390 -13 469 21 525 88 C545 113 552 126 567 175 L322 175 C315 151 307 143 290 143 C267 143 259 157 257 193 L571 193 C572 210 572 218 572 225 C572 286 551 344 510 395 C460 457 396 485 296 489 L388 547 Z M539 155 C530 127 515 104 490 80 C438 31 375 7 294 7 C134 7 29 98 29 235 C29 373 135 470 286 470 C399 470 476 428 523 339 C543 301 552 267 552 225 C552 223 552 218 551 213 L237 213 C237 184 238 174 241 163 C247 138 265 123 289 123 C312 123 328 133 336 155 L539 155 Z M252 686 L358 552 L281 503 L147 620 L252 686 Z " />
<glyph glyph-name="eacute" unicode="&#xe9;" horiz-adv-x="581" d="M348 289 C344 333 325 356 291 356 C271 356 253 344 245 327 C241 317 240 309 239 289 L348 289 Z M262 309 C264 326 275 336 291 336 C308 336 320 326 323 309 L262 309 Z M473 623 L330 712 L199 547 L290 490 C125 491 9 385 9 234 C9 86 123 -13 293 -13 C390 -13 469 21 525 88 C545 113 552 126 567 175 L322 175 C315 151 307 143 290 143 C267 143 259 157 257 193 L571 193 C572 210 572 218 572 225 C572 286 551 344 510 395 C464 452 407 479 319 488 L473 623 Z M539 155 C530 127 515 104 490 80 C438 31 375 7 294 7 C134 7 29 98 29 235 C29 373 135 470 286 470 C399 470 476 428 523 339 C543 301 552 267 552 225 C552 223 552 218 551 213 L237 213 C237 184 238 174 241 163 C247 138 265 123 289 123 C312 123 328 133 336 155 L539 155 Z M334 686 L440 620 L306 503 L229 552 L334 686 Z " />
<glyph glyph-name="ecircumflex" unicode="&#xea;" horiz-adv-x="581" d="M348 289 C344 333 325 356 291 356 C271 356 253 344 245 327 C241 317 240 309 239 289 L348 289 Z M262 309 C264 326 275 336 291 336 C308 336 320 326 323 309 L262 309 Z M322 175 C315 151 307 143 290 143 C267 143 259 157 257 193 L571 193 C572 210 572 218 572 225 C572 269 562 308 541 348 C490 443 407 490 286 490 C124 490 9 384 9 235 C9 86 123 -13 293 -13 C390 -13 469 21 525 88 C545 113 552 126 567 175 L322 175 Z M539 155 C530 127 515 104 490 80 C438 31 375 7 294 7 C134 7 29 98 29 235 C29 373 135 470 286 470 C399 470 476 428 523 339 C543 301 552 267 552 225 C552 223 552 218 551 213 L237 213 C237 184 238 174 241 163 C247 138 265 123 289 123 C312 123 328 133 336 155 L539 155 Z M104 485 L290 551 L476 485 L506 618 L290 690 L75 618 L104 485 Z M119 512 L98 605 L290 669 L482 605 L462 512 L290 572 L119 512 Z " />
<glyph glyph-name="edieresis" unicode="&#xeb;" horiz-adv-x="581" d="M348 289 C344 333 325 356 291 356 C271 356 253 344 245 327 C241 317 240 309 239 289 L348 289 Z M262 309 C264 326 275 336 291 336 C308 336 320 326 323 309 L262 309 Z M322 175 C315 151 307 143 290 143 C267 143 259 157 257 193 L571 193 C572 210 572 218 572 225 C572 269 562 308 541 348 C490 443 407 490 286 490 C124 490 9 384 9 235 C9 86 123 -13 293 -13 C390 -13 469 21 525 88 C545 113 552 126 567 175 L322 175 Z M539 155 C530 127 515 104 490 80 C438 31 375 7 294 7 C134 7 29 98 29 235 C29 373 135 470 286 470 C399 470 476 428 523 339 C543 301 552 267 552 225 C552 223 552 218 551 213 L237 213 C237 184 238 174 241 163 C247 138 265 123 289 123 C312 123 328 133 336 155 L539 155 Z M198 672 C148 672 108 632 108 582 C108 533 148 492 197 492 C248 492 288 532 288 582 C288 632 248 672 198 672 L198 672 Z M198 652 C237 652 268 621 268 582 C268 543 237 512 197 512 C159 512 128 544 128 582 C128 621 159 652 198 652 L198 652 Z M382 672 C332 672 292 632 292 582 C292 533 332 492 381 492 C432 492 472 532 472 582 C472 632 432 672 382 672 L382 672 Z M382 652 C421 652 452 621 452 582 C452 543 421 512 381 512 C344 512 312 544 312 582 C312 621 343 652 382 652 L382 652 Z " />
<glyph glyph-name="igrave" unicode="&#xec;" horiz-adv-x="305" d="M33 0 L283 0 L283 477 L33 477 L33 0 Z M53 20 L53 457 L263 457 L263 20 L53 20 Z M124 712 L-19 623 L146 478 L255 547 L124 712 Z M120 686 L226 552 L148 503 L15 620 L120 686 Z " />
<glyph glyph-name="iacute" unicode="&#xed;" horiz-adv-x="305" d="M23 0 L273 0 L273 477 L23 477 L23 0 Z M43 20 L43 457 L253 457 L253 20 L43 20 Z M187 712 L57 547 L165 478 L331 623 L187 712 Z M192 686 L297 620 L163 503 L86 552 L192 686 Z " />
<glyph glyph-name="icircumflex" unicode="&#xee;" horiz-adv-x="301" d="M26 0 L276 0 L276 477 L26 477 L26 0 Z M46 20 L46 457 L256 457 L256 20 L46 20 Z M153 701 L-44 598 L16 485 L152 548 L286 483 L346 596 L153 701 Z M152 678 L319 588 L278 509 L153 570 L25 511 L-17 590 L152 678 Z " />
<glyph glyph-name="idieresis" unicode="&#xef;" horiz-adv-x="294" d="M23 0 L272 0 L272 477 L23 477 L23 0 Z M43 20 L43 457 L252 457 L252 20 L43 20 Z M148 643 C128 659 112 665 89 665 C42 665 3 626 3 578 C3 531 42 492 89 492 C111 492 128 498 148 515 C166 499 183 492 206 492 C253 492 292 531 292 579 C292 626 253 665 206 665 C183 665 166 659 148 643 L148 643 Z M160 530 C172 549 175 560 175 579 C175 597 172 608 160 627 C175 640 188 645 205 645 C242 645 272 615 272 578 C272 542 242 512 206 512 C188 512 174 518 160 530 L160 530 Z M90 645 C126 645 156 615 156 579 C156 541 126 512 89 512 C53 512 23 542 23 578 C23 615 53 645 90 645 L90 645 Z " />
<glyph glyph-name="eth" unicode="&#xf0;" horiz-adv-x="598" d="M299 306 C262 306 235 277 235 239 C235 200 261 172 297 172 C336 172 361 198 361 238 C361 278 336 306 299 306 L299 306 Z M299 286 C324 286 341 267 341 238 C341 209 325 192 298 192 C272 192 255 211 255 239 C255 267 273 286 299 286 L299 286 Z M74 590 L28 561 L90 445 L215 524 C238 505 247 496 262 476 C206 470 177 462 141 445 C58 406 12 332 12 238 C12 92 131 -13 299 -13 C374 -13 451 12 503 53 C559 96 589 165 589 247 C589 391 511 533 381 627 L447 669 L371 778 L243 697 C177 713 127 721 69 725 L9 601 C21 599 32 597 35 597 C41 595 47 594 48 594 L61 592 L74 590 Z M99 605 C90 607 86 608 80 609 C71 611 61 612 51 614 C49 614 45 615 38 616 L81 704 C121 702 172 693 220 682 L99 605 Z M366 751 L419 675 L97 473 L54 554 L366 751 Z M361 616 C491 525 569 387 569 247 C569 171 541 108 491 68 C442 30 370 7 299 7 C142 7 32 103 32 238 C32 366 128 452 275 457 L287 457 L297 457 C277 493 261 512 233 536 L361 616 Z " />
<glyph glyph-name="ntilde" unicode="&#xf1;" horiz-adv-x="583" d="M23 0 L273 0 L273 248 C273 276 279 285 296 285 C311 285 314 278 314 248 L314 0 L563 0 L563 301 C563 356 549 401 523 431 C490 468 441 490 392 490 C341 490 310 477 268 436 L268 477 L23 477 L23 0 Z M43 20 L43 457 L248 457 L248 382 C250 385 251 386 254 389 C284 424 284 424 289 429 C317 456 352 470 392 470 C430 470 467 456 496 429 C528 401 543 359 543 301 L543 20 L334 20 L334 248 C334 290 324 305 296 305 C266 305 253 287 253 248 L253 20 L43 20 Z M183 489 C187 494 191 500 194 505 C209 525 217 532 227 532 C230 532 233 531 246 526 L308 501 C321 496 339 493 357 493 C391 493 416 504 448 534 C472 556 474 559 503 611 L392 662 C361 626 359 624 349 624 C342 624 331 628 322 633 L291 650 C280 656 253 661 234 661 C199 661 162 644 130 613 C115 599 113 596 83 553 L183 489 Z M111 559 C149 614 190 641 235 641 C250 641 273 637 281 632 L312 615 C325 608 339 604 349 604 C365 604 373 610 397 637 L475 602 C442 544 401 513 356 513 C342 513 325 516 315 520 L254 544 C238 551 233 552 227 552 C209 552 196 542 178 516 L111 559 Z " />
<glyph glyph-name="ograve" unicode="&#xf2;" horiz-adv-x="594" d="M297 305 C260 305 233 277 233 238 C233 200 260 172 296 172 C335 172 360 198 360 237 C360 278 334 305 297 305 L297 305 Z M297 285 C323 285 340 266 340 237 C340 209 324 192 296 192 C271 192 253 211 253 238 C253 266 271 285 297 285 L297 285 Z M394 547 L263 712 L120 623 L273 489 C113 479 9 380 9 238 C9 91 128 -13 296 -13 C467 -13 584 88 584 235 C584 333 529 421 443 460 C401 479 358 488 303 490 L394 547 Z M259 686 L364 552 L287 503 L153 620 L259 686 Z M297 470 C457 470 564 376 564 234 C564 98 456 7 292 7 C140 7 29 104 29 237 C29 377 136 470 297 470 L297 470 Z " />
<glyph glyph-name="oacute" unicode="&#xf3;" horiz-adv-x="594" d="M297 305 C260 305 233 277 233 238 C233 200 260 172 296 172 C335 172 360 198 360 237 C360 278 334 305 297 305 L297 305 Z M297 285 C323 285 340 266 340 237 C340 209 324 192 296 192 C271 192 253 211 253 238 C253 266 271 285 297 285 L297 285 Z M479 623 L336 712 L205 547 L296 490 C124 489 9 388 9 238 C9 91 128 -13 296 -13 C467 -13 584 88 584 235 C584 333 529 421 443 460 C408 476 373 485 326 489 L479 623 Z M341 686 L446 620 L312 503 L235 552 L341 686 Z M297 470 C457 470 564 376 564 234 C564 98 456 7 292 7 C140 7 29 104 29 237 C29 377 136 470 297 470 L297 470 Z " />
<glyph glyph-name="ocircumflex" unicode="&#xf4;" horiz-adv-x="594" d="M150 479 L298 548 L443 477 L502 590 L298 701 L90 592 L150 479 Z M159 505 L117 584 L298 678 L476 582 L435 504 L298 570 L159 505 Z M297 305 C260 305 233 277 233 238 C233 200 260 172 296 172 C335 172 360 198 360 237 C360 278 334 305 297 305 L297 305 Z M297 285 C323 285 340 266 340 237 C340 209 324 192 296 192 C271 192 253 211 253 238 C253 266 271 285 297 285 L297 285 Z M297 490 C126 490 9 387 9 237 C9 93 129 -13 292 -13 C467 -13 584 86 584 234 C584 387 469 490 297 490 L297 490 Z M297 470 C457 470 564 376 564 234 C564 98 456 7 292 7 C140 7 29 104 29 237 C29 377 136 470 297 470 L297 470 Z " />
<glyph glyph-name="otilde" unicode="&#xf5;" horiz-adv-x="594" d="M187 489 L198 505 C212 525 220 532 230 532 C233 532 237 531 250 526 L311 501 C324 496 343 493 360 493 C395 493 420 504 451 534 C475 556 477 559 507 611 L395 662 C365 626 362 624 352 624 C346 624 335 628 325 633 L294 650 C283 656 256 661 238 661 C202 661 166 644 133 613 C119 599 116 596 86 553 L187 489 Z M115 559 C153 614 193 641 238 641 C253 641 276 637 284 632 L316 615 C328 608 342 604 353 604 C369 604 377 610 401 637 L478 602 C445 544 405 513 360 513 C345 513 329 516 318 520 L257 544 C241 551 237 552 230 552 C213 552 199 542 181 516 L115 559 Z M297 305 C260 305 233 277 233 238 C233 200 260 172 296 172 C335 172 360 198 360 237 C360 278 334 305 297 305 L297 305 Z M297 285 C323 285 340 266 340 237 C340 209 324 192 296 192 C271 192 253 211 253 238 C253 266 271 285 297 285 L297 285 Z M297 490 C126 490 9 387 9 237 C9 93 129 -13 292 -13 C467 -13 584 86 584 234 C584 387 469 490 297 490 L297 490 Z M297 470 C457 470 564 376 564 234 C564 98 456 7 292 7 C140 7 29 104 29 237 C29 377 136 470 297 470 L297 470 Z " />
<glyph glyph-name="odieresis" unicode="&#xf6;" horiz-adv-x="594" d="M205 672 C155 672 115 632 115 582 C115 533 155 492 204 492 C255 492 295 532 295 582 C295 632 255 672 205 672 L205 672 Z M205 652 C244 652 275 621 275 582 C275 543 244 512 204 512 C166 512 135 544 135 582 C135 621 166 652 205 652 L205 652 Z M388 672 C338 672 298 632 298 582 C298 533 338 492 387 492 C438 492 478 532 478 582 C478 632 438 672 388 672 L388 672 Z M388 652 C427 652 458 621 458 582 C458 543 427 512 387 512 C350 512 318 544 318 582 C318 621 349 652 388 652 L388 652 Z M297 305 C260 305 233 277 233 238 C233 200 260 172 296 172 C335 172 360 198 360 237 C360 278 334 305 297 305 L297 305 Z M297 285 C323 285 340 266 340 237 C340 209 324 192 296 192 C271 192 253 211 253 238 C253 266 271 285 297 285 L297 285 Z M297 490 C126 490 9 387 9 237 C9 93 129 -13 292 -13 C467 -13 584 86 584 234 C584 387 469 490 297 490 L297 490 Z M297 470 C457 470 564 376 564 234 C564 98 456 7 292 7 C140 7 29 104 29 237 C29 377 136 470 297 470 L297 470 Z " />
<glyph glyph-name="divide" unicode="&#xf7;" horiz-adv-x="522" d="M359 420 C373 441 379 462 379 486 C379 551 326 604 260 604 C196 604 143 551 143 486 C143 463 149 443 163 420 L7 420 L7 260 L163 260 C149 237 143 217 143 194 C143 129 196 76 260 76 C326 76 379 129 379 194 C379 218 373 239 359 260 L515 260 L515 420 L359 420 Z M181 400 C204 378 229 368 260 368 C291 368 317 378 341 400 L495 400 L495 280 L341 280 C317 302 291 312 260 312 C229 312 205 302 181 280 L27 280 L27 400 L181 400 Z M260 293 C315 293 359 249 359 195 C359 140 315 96 261 96 C206 96 163 140 163 196 C163 249 207 293 260 293 L260 293 Z M260 584 C315 584 359 540 359 485 C359 431 315 387 261 387 C206 387 163 431 163 487 C163 539 208 584 260 584 L260 584 Z " />
<glyph glyph-name="oslash" unicode="&#xf8;" horiz-adv-x="604" d="M303 305 C266 305 239 277 239 238 C239 200 266 172 302 172 C341 172 366 198 366 237 C366 278 340 305 303 305 L303 305 Z M303 285 C329 285 346 266 346 237 C346 209 330 192 302 192 C277 192 259 211 259 238 C259 266 277 285 303 285 L303 285 Z M450 460 C384 485 358 490 304 490 C131 490 15 388 15 237 C15 189 25 153 50 111 L-22 49 L71 -56 L156 18 C224 -8 248 -13 302 -13 C473 -13 590 88 590 235 C590 284 579 323 555 365 L627 428 L536 535 L450 460 Z M406 395 L534 507 L599 430 L471 319 L406 395 Z M73 -28 L6 47 L135 159 L201 84 L73 -28 Z M228 82 L137 186 L66 124 C44 160 35 194 35 237 C35 377 143 470 303 470 C352 470 381 464 434 445 L379 397 L469 292 L539 353 C560 316 570 279 570 235 C570 99 462 7 302 7 C254 7 225 13 172 33 L228 82 Z " />
<glyph glyph-name="ugrave" unicode="&#xf9;" horiz-adv-x="579" d="M20 477 L20 198 C20 151 37 105 67 73 C119 19 200 -13 288 -13 C351 -13 414 5 464 36 C528 77 559 132 559 205 L559 477 L309 477 L309 220 C309 202 302 192 289 192 C276 192 270 200 270 220 L270 477 L20 477 Z M40 457 L250 457 L250 220 C250 189 264 172 288 172 C313 172 329 191 329 220 L329 457 L539 457 L539 205 C539 147 518 102 474 68 C426 29 357 7 288 7 C206 7 129 37 82 87 C55 115 40 156 40 198 L40 457 Z M256 712 L113 623 L278 478 L387 547 L256 712 Z M251 686 L357 552 L280 503 L146 620 L251 686 Z " />
<glyph glyph-name="uacute" unicode="&#xfa;" horiz-adv-x="579" d="M20 477 L20 198 C20 151 37 105 67 73 C119 19 200 -13 288 -13 C351 -13 414 5 464 36 C528 77 559 132 559 205 L559 477 L309 477 L309 220 C309 202 302 192 289 192 C276 192 270 200 270 220 L270 477 L20 477 Z M40 457 L250 457 L250 220 C250 189 264 172 288 172 C313 172 329 191 329 220 L329 457 L539 457 L539 205 C539 147 518 102 474 68 C426 29 357 7 288 7 C206 7 129 37 82 87 C55 115 40 156 40 198 L40 457 Z M329 712 L198 547 L307 478 L472 623 L329 712 Z M334 686 L439 620 L305 503 L228 552 L334 686 Z " />
<glyph glyph-name="ucircumflex" unicode="&#xfb;" horiz-adv-x="579" d="M20 477 L20 198 C20 151 37 105 67 73 C119 19 200 -13 288 -13 C351 -13 414 5 464 36 C528 77 559 132 559 205 L559 477 L309 477 L309 220 C309 202 302 192 289 192 C276 192 270 200 270 220 L270 477 L20 477 Z M40 457 L250 457 L250 220 C250 189 264 172 288 172 C313 172 329 191 329 220 L329 457 L539 457 L539 205 C539 147 518 102 474 68 C426 29 357 7 288 7 C206 7 129 37 82 87 C55 115 40 156 40 198 L40 457 Z M143 479 L289 548 L436 479 L495 592 L289 701 L83 592 L143 479 Z M152 505 L111 584 L290 678 L469 584 L427 505 L290 570 L152 505 Z " />
<glyph glyph-name="udieresis" unicode="&#xfc;" horiz-adv-x="579" d="M20 477 L20 198 C20 151 37 105 67 73 C119 19 200 -13 288 -13 C351 -13 414 5 464 36 C528 77 559 132 559 205 L559 477 L309 477 L309 220 C309 202 302 192 289 192 C276 192 270 200 270 220 L270 477 L20 477 Z M40 457 L250 457 L250 220 C250 189 264 172 288 172 C313 172 329 191 329 220 L329 457 L539 457 L539 205 C539 147 518 102 474 68 C426 29 357 7 288 7 C206 7 129 37 82 87 C55 115 40 156 40 198 L40 457 Z M198 672 C148 672 108 632 108 582 C108 533 148 492 197 492 C248 492 288 532 288 582 C288 632 248 672 198 672 L198 672 Z M198 652 C237 652 268 621 268 582 C268 543 237 512 197 512 C160 512 128 544 128 582 C128 621 159 652 198 652 L198 652 Z M381 672 C331 672 291 632 291 582 C291 533 331 492 380 492 C431 492 471 532 471 582 C471 632 431 672 381 672 L381 672 Z M381 652 C420 652 451 621 451 582 C451 543 420 512 380 512 C342 512 311 544 311 582 C311 621 342 652 381 652 L381 652 Z " />
<glyph glyph-name="yacute" unicode="&#xfd;" horiz-adv-x="647" d="M2 477 L200 61 L77 -184 L344 -184 L644 477 L378 477 L325 285 L275 477 L2 477 Z M34 457 L259 457 L324 207 L393 457 L613 457 L331 -164 L109 -164 L223 61 L34 457 Z M363 712 L232 547 L341 478 L506 623 L363 712 Z M368 686 L473 620 L339 503 L262 552 L368 686 Z " />
<glyph glyph-name="thorn" unicode="&#xfe;" horiz-adv-x="599" d="M302 307 C266 307 242 278 242 236 C242 195 267 166 302 166 C338 166 365 195 365 235 C365 276 337 307 302 307 L302 307 Z M302 287 C326 287 345 265 345 235 C345 207 327 186 302 186 C278 186 262 206 262 236 C262 267 277 287 302 287 L302 287 Z M23 726 L23 -184 L273 -184 L273 27 C315 -2 343 -13 381 -13 C438 -13 497 20 537 73 C571 118 589 177 589 243 C589 387 504 490 387 490 C341 490 303 477 273 450 L273 726 L23 726 Z M43 706 L252 706 L252 397 C263 413 264 415 267 419 C292 449 342 470 387 470 C493 470 569 375 569 243 C569 190 557 142 533 103 C498 45 439 7 384 7 C347 7 300 27 276 52 C270 58 267 62 253 82 L253 -164 L43 -164 L43 706 Z " />
<glyph glyph-name="ydieresis" unicode="&#xff;" horiz-adv-x="647" d="M2 477 L200 61 L77 -184 L344 -184 L644 477 L378 477 L325 285 L275 477 L2 477 Z M34 457 L259 457 L324 207 L393 457 L613 457 L331 -164 L109 -164 L223 61 L34 457 Z M232 672 C182 672 142 632 142 582 C142 533 182 492 231 492 C282 492 322 532 322 582 C322 632 282 672 232 672 L232 672 Z M232 652 C271 652 302 621 302 582 C302 543 271 512 231 512 C193 512 162 544 162 582 C162 621 193 652 232 652 L232 652 Z M415 672 C365 672 325 632 325 582 C325 533 365 492 414 492 C465 492 505 532 505 582 C505 632 465 672 415 672 L415 672 Z M415 652 C454 652 485 621 485 582 C485 543 454 512 414 512 C377 512 345 544 345 582 C345 621 376 652 415 652 L415 652 Z " />
<glyph glyph-name="Amacron" unicode="&#x100;" horiz-adv-x="752" d="M324 243 L425 243 L375 453 L324 243 Z M350 263 L375 367 L399 263 L350 263 Z M556 541 L585 541 L585 676 L166 676 L166 541 L190 541 L2 0 L282 0 L299 79 L447 79 L468 0 L749 0 L556 541 Z M186 561 L186 656 L565 656 L565 561 L186 561 Z M211 542 L534 542 L720 20 L484 20 L463 99 L283 99 L266 20 L30 20 L211 542 Z " />
<glyph glyph-name="amacron" unicode="&#x101;" horiz-adv-x="601" d="M125 517 L481 517 L481 652 L125 652 L125 517 Z M145 537 L145 632 L461 632 L461 537 L145 537 Z M298 305 C263 305 237 277 237 239 C237 203 263 174 296 174 C330 174 358 204 358 241 C358 278 333 305 298 305 L298 305 Z M298 285 C322 285 338 267 338 241 C338 215 319 194 296 194 C274 194 257 214 257 239 C257 266 274 285 298 285 L298 285 Z M330 477 L330 458 C292 482 265 490 225 490 C101 490 9 382 9 237 C9 93 98 -13 218 -13 C261 -13 291 -3 331 25 L331 0 L577 0 L577 477 L330 477 Z M350 457 L557 457 L557 20 L351 20 L351 67 C300 22 267 7 219 7 C109 7 29 104 29 237 C29 370 113 470 224 470 C260 470 300 457 323 438 C329 433 334 429 350 412 L350 457 Z " />
<glyph glyph-name="Abreve" unicode="&#x102;" horiz-adv-x="752" d="M324 243 L425 243 L375 453 L324 243 Z M350 263 L375 367 L399 263 L350 263 Z M536 598 C567 631 578 658 588 715 L471 715 C462 699 459 694 455 689 C440 669 417 660 382 660 C331 660 301 674 287 704 L281 715 L165 715 C168 666 179 639 210 601 L2 0 L282 0 L299 79 L448 79 L469 0 L749 0 L536 598 Z M269 695 C287 658 324 640 382 640 C433 640 459 654 483 695 L564 695 C548 612 470 552 376 552 C279 552 194 616 187 695 L269 695 Z M226 587 C265 553 320 533 376 533 C428 533 479 551 520 585 L721 20 L484 20 L463 99 L283 99 L266 20 L30 20 L226 587 Z " />
<glyph glyph-name="abreve" unicode="&#x103;" horiz-adv-x="601" d="M109 672 C120 605 123 596 146 565 C179 520 241 492 304 492 C376 492 439 527 472 586 C488 614 489 617 495 672 L386 672 C376 646 376 646 370 639 C360 627 337 621 304 621 C257 621 228 634 223 656 C223 659 222 665 220 672 L109 672 Z M204 652 C211 619 246 601 303 601 C361 601 385 614 399 652 L473 652 C463 570 393 512 304 512 C260 512 210 530 182 556 C154 581 140 609 132 652 L204 652 Z M298 305 C263 305 237 277 237 239 C237 203 263 174 296 174 C330 174 358 204 358 241 C358 278 333 305 298 305 L298 305 Z M298 285 C322 285 338 267 338 241 C338 215 319 194 296 194 C274 194 257 214 257 239 C257 266 274 285 298 285 L298 285 Z M330 477 L330 458 C292 482 265 490 225 490 C101 490 9 382 9 237 C9 93 98 -13 218 -13 C261 -13 291 -3 331 25 L331 0 L577 0 L577 477 L330 477 Z M350 457 L557 457 L557 20 L351 20 L351 67 C300 22 267 7 219 7 C109 7 29 104 29 237 C29 370 113 470 224 470 C260 470 300 457 323 438 C329 433 334 429 350 412 L350 457 Z " />
<glyph glyph-name="Aogonek" unicode="&#x104;" horiz-adv-x="751" d="M324 243 L425 243 L375 453 L324 243 Z M350 263 L375 367 L399 263 L350 263 Z M548 1 L667 -132 L781 -25 L747 8 L512 667 L233 667 L2 0 L282 0 L299 79 L448 79 L469 0 L547 0 L548 1 Z M752 -25 L669 -103 L562 17 L635 86 L752 -25 Z M715 36 L635 113 L539 20 L484 20 L463 99 L283 99 L266 20 L30 20 L247 647 L497 647 L715 36 Z " />
<glyph glyph-name="aogonek" unicode="&#x105;" horiz-adv-x="607" d="M298 305 C263 305 237 277 237 239 C237 203 263 174 296 174 C330 174 358 204 358 241 C358 278 333 305 298 305 L298 305 Z M298 285 C322 285 338 267 338 241 C338 215 319 194 296 194 C274 194 257 214 257 239 C257 266 274 285 298 285 L298 285 Z M383 2 L521 -134 L631 -38 L577 12 L577 477 L330 477 L330 458 C292 482 265 490 225 490 C101 490 9 382 9 237 C9 93 98 -13 218 -13 C261 -13 291 -3 331 25 L331 0 L381 0 L383 2 Z M601 -37 L521 -107 L397 17 L473 81 L601 -37 Z M557 30 L473 107 L373 20 L351 20 L351 67 C300 22 267 7 219 7 C109 7 29 104 29 237 C29 370 113 470 224 470 C260 470 300 457 323 438 C329 433 334 429 350 412 L350 457 L557 457 L557 30 Z " />
<glyph glyph-name="Cacute" unicode="&#x106;" horiz-adv-x="567" d="M529 613 L596 666 L423 724 L375 677 C293 675 274 672 227 653 C96 602 9 471 9 327 C9 138 158 -10 349 -10 C393 -10 471 0 501 10 C507 12 508 13 528 21 L536 308 C483 261 483 261 472 253 C449 237 416 227 389 227 C325 227 276 274 276 335 C276 394 324 440 384 440 C413 440 448 427 478 404 C486 399 486 399 536 356 L529 613 Z M269 568 L410 522 L509 599 L514 401 C466 442 427 460 384 460 C313 460 256 405 256 335 C256 263 314 207 389 207 C434 207 470 223 514 262 L508 35 C475 21 405 10 348 10 C169 10 29 150 29 328 C29 438 84 542 174 603 C229 640 279 655 357 656 L269 568 Z M304 577 L428 701 L555 659 L406 543 L304 577 Z " />
<glyph glyph-name="cacute" unicode="&#x107;" horiz-adv-x="423" d="M448 623 L304 712 L174 547 L265 489 C260 490 255 490 254 490 C199 490 150 473 103 438 C41 390 9 322 9 237 C9 86 114 -13 272 -13 C318 -13 350 -7 391 11 C394 13 398 14 402 16 L412 224 C379 197 343 182 313 182 C277 182 252 207 252 241 C252 275 276 298 312 298 C341 298 364 289 409 258 L409 462 C371 475 346 481 293 488 L448 623 Z M383 29 C342 12 316 7 272 7 C125 7 29 98 29 237 C29 305 52 363 95 405 C137 445 197 470 253 470 C297 470 349 461 389 447 L389 295 C360 312 338 318 312 318 C265 318 232 286 232 241 C232 195 266 162 313 162 C339 162 360 168 390 185 L383 29 Z M309 686 L414 620 L280 503 L203 552 L309 686 Z " />
<glyph glyph-name="cdotaccent" unicode="&#x10b;" horiz-adv-x="424" d="M403 16 L413 224 C380 197 344 182 314 182 C278 182 253 207 253 241 C253 275 277 298 313 298 C342 298 365 289 410 258 L410 462 C352 482 308 490 254 490 C202 490 147 471 104 438 C43 391 10 321 10 237 C10 86 115 -13 273 -13 C319 -13 351 -7 392 11 L403 16 Z M384 29 C343 12 317 7 273 7 C126 7 30 98 30 237 C30 305 53 363 96 405 C138 445 198 470 254 470 C298 470 350 461 390 447 L390 295 C361 312 339 318 313 318 C266 318 233 286 233 241 C233 195 267 162 314 162 C340 162 361 168 391 185 L384 29 Z M255 672 C205 672 165 632 165 582 C165 533 205 492 254 492 C305 492 345 532 345 582 C345 632 305 672 255 672 L255 672 Z M255 652 C294 652 325 621 325 582 C325 543 294 512 254 512 C217 512 185 544 185 582 C185 621 216 652 255 652 L255 652 Z " />
<glyph glyph-name="Ccaron" unicode="&#x10c;" horiz-adv-x="552" d="M530 582 L563 594 L534 726 L348 661 L162 726 L133 597 C53 527 9 432 9 328 C9 138 158 -10 349 -10 C393 -10 471 0 501 10 C507 12 508 13 528 21 L536 308 C483 261 483 261 472 253 C449 237 416 227 389 227 C325 227 276 274 276 335 C276 394 324 440 384 440 C413 440 448 427 478 404 C486 399 486 399 536 356 L530 582 Z M348 523 L510 577 L514 401 C466 442 427 460 384 460 C313 460 256 405 256 335 C256 263 314 207 389 207 C434 207 470 223 514 262 L508 35 C475 21 405 10 348 10 C169 10 29 150 29 328 C29 429 75 525 153 588 L348 523 Z M176 700 L348 639 L519 700 L540 607 L348 543 L156 607 L176 700 Z " />
<glyph glyph-name="ccaron" unicode="&#x10d;" horiz-adv-x="423" d="M220 487 C91 465 9 368 9 237 C9 86 114 -13 272 -13 C318 -13 350 -7 391 11 L402 16 L412 224 C379 197 343 182 313 182 C277 182 252 207 252 241 C252 275 276 298 312 298 C341 298 364 289 409 258 L409 462 C364 479 304 490 251 490 L441 589 L381 702 L233 633 L88 704 L29 591 L220 487 Z M383 29 C342 12 316 7 272 7 C125 7 29 98 29 237 C29 305 52 363 95 405 C137 445 197 470 253 470 C297 470 349 461 389 447 L389 295 C360 312 338 318 312 318 C265 318 232 286 232 241 C232 195 266 162 313 162 C339 162 360 168 390 185 L383 29 Z M372 676 L414 597 L233 503 L56 599 L97 677 L233 610 L372 676 Z " />
<glyph glyph-name="Dcaron" unicode="&#x10e;" horiz-adv-x="676" d="M265 207 L300 207 C372 207 423 259 423 331 C423 408 374 459 300 459 L265 459 L265 207 Z M285 227 L285 439 L300 439 C363 439 403 397 403 331 C403 270 361 227 300 227 L285 227 Z M491 726 L305 661 L119 726 L106 667 L23 667 L23 0 L341 0 C425 0 505 30 567 85 C635 146 666 221 666 327 C666 455 618 547 517 612 L491 726 Z M134 700 L305 640 L476 700 L497 607 L305 543 L113 607 L134 700 Z M102 647 L91 595 L305 523 L511 592 C601 534 646 445 646 327 C646 242 624 176 579 126 C521 59 432 20 341 20 L43 20 L43 647 L102 647 Z " />
<glyph glyph-name="dcaron" unicode="&#x10f;" horiz-adv-x="606" d="M294 316 C258 316 233 287 233 246 C233 204 259 172 294 172 C329 172 354 201 354 242 C354 285 329 316 294 316 L294 316 Z M294 296 C317 296 334 274 334 242 C334 213 318 192 294 192 C271 192 253 215 253 246 C253 276 269 296 294 296 L294 296 Z M661 726 L326 726 L326 447 C287 478 254 490 212 490 C97 490 9 380 9 237 C9 96 95 -13 207 -13 C252 -13 290 2 333 37 L333 0 L576 0 L576 563 L661 726 Z M550 555 L458 555 L507 706 L628 706 L550 555 Z M487 706 L432 536 L556 536 L556 20 L353 20 L353 99 C350 94 347 90 347 89 C333 66 329 60 321 53 C290 25 245 7 206 7 C106 7 29 107 29 237 C29 369 108 470 211 470 C266 470 307 448 346 396 L346 706 L487 706 Z " />
<glyph glyph-name="Dcroat" unicode="&#x110;" horiz-adv-x="733" d="M80 410 L23 410 L23 269 L80 269 L80 0 L398 0 C481 0 562 30 624 85 C692 145 723 221 723 328 C723 539 579 667 341 667 L80 667 L80 410 Z M342 269 L411 269 L411 410 L342 410 L342 439 L357 439 C419 439 460 397 460 331 C460 270 418 227 357 227 L342 227 L342 269 Z M100 270 L322 270 L322 207 L357 207 C429 207 480 259 480 331 C480 408 431 459 357 459 L322 459 L322 409 L100 409 L100 647 L341 647 C568 647 703 528 703 328 C703 241 682 176 636 125 C578 59 489 20 398 20 L100 20 L100 270 Z M43 289 L43 390 L391 390 L391 289 L43 289 Z " />
<glyph glyph-name="dcroat" unicode="&#x111;" horiz-adv-x="598" d="M294 316 C258 316 233 287 233 246 C233 204 259 172 294 172 C329 172 354 201 354 242 C354 285 329 316 294 316 L294 316 Z M294 296 C317 296 334 274 334 242 C334 213 318 192 294 192 C271 192 253 215 253 246 C253 276 269 296 294 296 L294 296 Z M326 657 L209 657 L209 518 L326 518 L326 447 C287 477 255 489 212 489 C97 489 9 380 9 237 C9 95 95 -13 207 -13 C252 -13 290 2 333 37 L333 0 L576 0 L576 518 L608 518 L608 657 L576 657 L576 726 L326 726 L326 657 Z M556 656 L346 656 L346 706 L556 706 L556 656 Z M588 637 L588 538 L229 538 L229 637 L588 637 Z M556 519 L556 20 L353 20 L353 99 C350 94 347 90 347 89 C333 66 329 60 321 53 C290 25 245 7 206 7 C106 7 29 107 29 237 C29 368 108 469 211 469 C266 469 307 447 346 396 L346 519 L556 519 Z " />
<glyph glyph-name="Emacron" unicode="&#x112;" horiz-adv-x="504" d="M452 667 L452 676 L55 676 L55 667 L23 667 L23 0 L490 0 L490 207 L287 207 L287 234 L466 234 L466 434 L287 434 L287 460 L484 460 L484 667 L452 667 Z M56 647 L56 542 L451 542 L451 647 L464 647 L464 480 L267 480 L267 414 L446 414 L446 254 L267 254 L267 187 L470 187 L470 20 L43 20 L43 647 L56 647 Z M75 561 L75 656 L432 656 L432 561 L75 561 Z " />
<glyph glyph-name="emacron" unicode="&#x113;" horiz-adv-x="581" d="M348 289 C344 333 325 356 291 356 C271 356 253 344 245 327 C241 317 240 309 239 289 L348 289 Z M262 309 C264 326 275 336 291 336 C308 336 320 326 323 309 L262 309 Z M322 175 C315 151 307 143 290 143 C267 143 259 157 257 193 L571 193 C572 210 572 218 572 225 C572 269 562 308 541 348 C490 443 407 490 286 490 C124 490 9 384 9 235 C9 86 123 -13 293 -13 C390 -13 469 21 525 88 C545 113 552 126 567 175 L322 175 Z M539 155 C530 127 515 104 490 80 C438 31 375 7 294 7 C134 7 29 98 29 235 C29 373 135 470 286 470 C399 470 476 428 523 339 C543 301 552 267 552 225 C552 223 552 218 551 213 L237 213 C237 184 238 174 241 163 C247 138 265 123 289 123 C312 123 328 133 336 155 L539 155 Z M112 517 L468 517 L468 652 L112 652 L112 517 Z M132 537 L132 632 L448 632 L448 537 L132 537 Z " />
<glyph glyph-name="Ebreve" unicode="&#x114;" horiz-adv-x="504" d="M456 667 C461 683 461 686 466 715 L349 715 C338 695 338 694 334 689 C319 669 296 660 260 660 C210 660 179 674 165 704 L160 715 L44 715 C45 700 46 691 46 690 C47 683 48 679 51 667 L23 667 L23 0 L490 0 L490 207 L287 207 L287 234 L466 234 L466 434 L287 434 L287 460 L484 460 L484 667 L456 667 Z M60 647 C96 575 167 533 254 533 C338 533 414 578 447 647 L464 647 L464 480 L267 480 L267 414 L446 414 L446 254 L267 254 L267 187 L470 187 L470 20 L43 20 L43 647 L60 647 Z M147 695 C165 658 202 640 260 640 C312 640 338 654 361 695 L442 695 C427 612 348 552 254 552 C158 552 73 616 66 695 L147 695 Z " />
<glyph glyph-name="ebreve" unicode="&#x115;" horiz-adv-x="581" d="M348 289 C344 333 325 356 291 356 C271 356 253 344 245 327 C241 317 240 309 239 289 L348 289 Z M262 309 C264 326 275 336 291 336 C308 336 320 326 323 309 L262 309 Z M322 175 C315 151 307 143 290 143 C267 143 259 157 257 193 L571 193 C572 210 572 218 572 225 C572 269 562 308 541 348 C490 443 407 490 286 490 C124 490 9 384 9 235 C9 86 123 -13 293 -13 C390 -13 469 21 525 88 C545 113 552 126 567 175 L322 175 Z M539 155 C530 127 515 104 490 80 C438 31 375 7 294 7 C134 7 29 98 29 235 C29 373 135 470 286 470 C399 470 476 428 523 339 C543 301 552 267 552 225 C552 223 552 218 551 213 L237 213 C237 184 238 174 241 163 C247 138 265 123 289 123 C312 123 328 133 336 155 L539 155 Z M97 672 C108 605 111 596 134 565 C167 520 228 492 291 492 C364 492 427 527 460 586 C476 614 477 617 483 672 L373 672 C363 646 363 646 357 639 C348 627 325 621 291 621 C245 621 215 634 211 656 C211 659 209 665 208 672 L97 672 Z M192 652 C199 619 234 601 291 601 C348 601 373 614 387 652 L460 652 C451 570 381 512 291 512 C247 512 198 530 169 556 C141 581 127 609 120 652 L192 652 Z " />
<glyph glyph-name="Edotaccent" unicode="&#x116;" horiz-adv-x="504" d="M346 667 C326 707 296 727 255 727 C214 727 183 707 164 667 L23 667 L23 0 L490 0 L490 207 L287 207 L287 234 L466 234 L466 434 L287 434 L287 460 L484 460 L484 667 L346 667 Z M159 647 C158 638 157 630 157 626 C157 574 202 530 255 530 C308 530 353 574 353 626 C353 630 352 638 351 647 L464 647 L464 480 L267 480 L267 414 L446 414 L446 254 L267 254 L267 187 L470 187 L470 20 L43 20 L43 647 L159 647 Z M255 707 C299 707 334 672 334 628 C334 584 299 549 254 549 C212 549 176 585 176 628 C176 672 211 707 255 707 L255 707 Z " />
<glyph glyph-name="edotaccent" unicode="&#x117;" horiz-adv-x="581" d="M348 289 C344 333 325 356 291 356 C271 356 253 344 245 327 C241 317 240 309 239 289 L348 289 Z M262 309 C264 326 275 336 291 336 C308 336 320 326 323 309 L262 309 Z M322 175 C315 151 307 143 290 143 C267 143 259 157 257 193 L571 193 C572 210 572 218 572 225 C572 269 562 308 541 348 C490 443 407 490 286 490 C124 490 9 384 9 235 C9 86 123 -13 293 -13 C390 -13 469 21 525 88 C545 113 552 126 567 175 L322 175 Z M539 155 C530 127 515 104 490 80 C438 31 375 7 294 7 C134 7 29 98 29 235 C29 373 135 470 286 470 C399 470 476 428 523 339 C543 301 552 267 552 225 C552 223 552 218 551 213 L237 213 C237 184 238 174 241 163 C247 138 265 123 289 123 C312 123 328 133 336 155 L539 155 Z M290 672 C240 672 200 632 200 582 C200 533 240 492 289 492 C340 492 380 532 380 582 C380 632 340 672 290 672 L290 672 Z M290 652 C329 652 360 621 360 582 C360 543 329 512 289 512 C252 512 220 544 220 582 C220 621 251 652 290 652 L290 652 Z " />
<glyph glyph-name="Eogonek" unicode="&#x118;" horiz-adv-x="510" d="M296 1 L415 -132 L529 -25 L490 12 L490 207 L287 207 L287 234 L466 234 L466 434 L287 434 L287 460 L484 460 L484 667 L23 667 L23 0 L295 0 L296 1 Z M470 29 L383 113 L287 20 L43 20 L43 647 L464 647 L464 480 L267 480 L267 414 L446 414 L446 254 L267 254 L267 187 L470 187 L470 29 Z M500 -25 L417 -103 L310 17 L383 86 L500 -25 Z " />
<glyph glyph-name="eogonek" unicode="&#x119;" horiz-adv-x="581" d="M348 289 C344 333 325 356 291 356 C271 356 253 344 245 327 C241 317 240 309 239 289 L348 289 Z M262 309 C264 326 275 336 291 336 C308 336 320 326 323 309 L262 309 Z M468 37 C525 78 549 112 567 175 L322 175 C315 151 307 143 290 143 C267 143 259 157 257 193 L571 193 C572 210 572 218 572 225 C572 269 562 308 541 348 C490 443 407 490 286 490 C124 490 9 384 9 235 C9 86 123 -13 294 -13 C301 -13 305 -13 315 -12 L438 -134 L549 -38 L468 37 Z M391 108 L285 18 L295 7 C135 7 29 97 29 235 C29 373 135 470 286 470 C399 470 476 428 523 339 C543 301 552 267 552 225 C552 223 552 218 551 213 L237 213 C237 184 238 174 241 163 C247 138 265 123 289 123 C312 123 328 133 336 155 L539 155 C529 120 496 79 453 51 L391 108 Z M390 81 L519 -37 L439 -107 L315 17 L390 81 Z " />
<glyph glyph-name="Ecaron" unicode="&#x11a;" horiz-adv-x="504" d="M23 0 L490 0 L490 207 L287 207 L287 234 L466 234 L466 434 L287 434 L287 460 L479 460 L484 437 L484 667 L454 667 L441 726 L255 661 L69 726 L56 667 L23 667 L23 0 Z M52 647 L43 605 L43 647 L52 647 Z M43 594 L255 523 L464 593 L464 480 L267 480 L267 414 L446 414 L446 254 L267 254 L267 187 L470 187 L470 20 L43 20 L43 594 Z M464 619 L458 647 L464 647 L464 619 Z M84 700 L255 640 L426 700 L447 607 L255 543 L63 607 L84 700 Z " />
<glyph glyph-name="ecaron" unicode="&#x11b;" horiz-adv-x="581" d="M348 289 C344 333 325 356 291 356 C271 356 253 344 245 327 C241 317 240 309 239 289 L348 289 Z M262 309 C264 326 275 336 291 336 C308 336 320 326 323 309 L262 309 Z M496 589 L436 702 L289 633 L143 704 L84 591 L272 489 C115 482 9 379 9 234 C9 86 123 -13 293 -13 C390 -13 469 21 525 88 C545 113 552 126 567 175 L322 175 C315 151 307 143 290 143 C267 143 259 157 257 193 L571 193 C572 210 572 218 572 225 C572 286 551 344 510 395 C461 455 400 483 305 489 L496 589 Z M539 155 C530 127 515 104 490 80 C438 31 375 7 294 7 C134 7 29 98 29 235 C29 373 135 470 286 470 C399 470 476 428 523 339 C543 301 552 267 552 225 C552 223 552 218 551 213 L237 213 C237 184 238 174 241 163 C247 138 265 123 289 123 C312 123 328 133 336 155 L539 155 Z M428 676 L469 597 L288 503 L111 599 L152 677 L288 610 L428 676 Z " />
<glyph glyph-name="Gbreve" unicode="&#x11e;" horiz-adv-x="744" d="M469 715 C457 695 457 694 453 689 C438 669 415 660 380 660 C329 660 298 674 284 704 C283 707 281 711 279 715 L163 715 C166 672 169 663 185 634 C74 575 9 463 9 331 C9 130 158 -10 371 -10 C547 -10 694 96 726 244 C733 276 736 320 738 407 L491 407 L712 489 C681 553 638 595 562 636 C575 662 577 669 585 715 L469 715 Z M348 407 L348 223 L439 223 C414 206 401 202 378 202 C316 202 275 250 275 322 C275 397 321 450 385 450 C421 450 438 441 460 407 L348 407 Z M474 422 C451 456 426 470 385 470 C310 470 255 407 255 322 C255 239 305 182 378 182 C417 182 455 201 468 227 C469 231 470 234 473 243 L368 243 L368 387 L717 387 C715 306 711 261 701 229 C662 98 529 10 371 10 C169 10 29 142 29 331 C29 457 91 563 197 617 C236 564 301 533 373 533 C444 533 511 566 550 619 C609 591 664 541 683 500 L474 422 Z M266 695 C284 658 321 640 379 640 C431 640 456 654 480 695 L561 695 C545 611 468 552 373 552 C277 552 192 616 185 695 L266 695 Z " />
<glyph glyph-name="gbreve" unicode="&#x11f;" horiz-adv-x="597" d="M107 672 C118 605 121 596 144 565 C177 520 239 492 302 492 C333 492 370 501 401 517 C432 533 452 553 470 586 C486 614 487 619 493 672 L384 672 C382 666 380 661 379 659 C368 630 350 621 302 621 C255 621 226 634 222 656 C221 659 220 665 218 672 L107 672 Z M202 652 C209 619 244 601 302 601 C359 601 383 614 398 652 L471 652 C462 570 391 512 302 512 C258 512 208 530 180 556 C152 581 138 608 131 652 L202 652 Z M298 305 C261 305 233 276 233 239 C233 201 261 173 297 173 C334 173 357 198 357 237 C357 277 333 305 298 305 L298 305 Z M297 285 C321 285 337 266 337 237 C337 209 322 193 297 193 C272 193 253 212 253 239 C253 265 272 285 297 285 L297 285 Z M25 -170 L77 -188 C128 -207 199 -218 260 -218 C447 -218 573 -117 573 33 L573 477 L330 477 L330 446 C289 480 263 490 218 490 C157 490 105 464 66 414 C30 367 9 303 9 240 C9 101 100 -8 216 -8 C259 -8 297 5 330 32 L330 25 C330 -12 290 -46 248 -46 C225 -46 197 -41 167 -31 C143 -23 134 -18 107 2 L85 19 L25 -170 Z M49 -157 L95 -14 C142 -48 193 -66 248 -66 C302 -66 350 -23 350 25 L350 94 C338 71 336 68 332 62 C311 33 262 12 216 12 C166 12 123 32 89 71 C51 115 29 177 29 240 C29 368 111 470 214 470 C260 470 303 451 328 419 C334 411 336 408 350 389 L350 457 L553 457 L553 33 C553 -106 436 -198 260 -198 C200 -198 133 -187 84 -170 L49 -157 Z " />
<glyph glyph-name="Gcommaaccent" unicode="&#x122;" horiz-adv-x="744" d="M235 -145 L366 -145 L439 -5 C542 16 597 46 660 114 C724 196 734 233 738 407 L491 407 L712 489 C680 547 678 551 642 582 C568 646 482 677 376 677 C159 677 9 536 9 331 C9 162 116 32 282 0 L235 -145 Z M348 407 L348 223 L439 223 C414 206 401 202 378 202 C316 202 275 250 275 322 C275 397 321 450 385 450 C421 450 438 441 460 407 L348 407 Z M464 45 L298 45 L289 19 C128 51 29 170 29 331 C29 525 170 657 376 657 C462 657 533 636 595 593 C639 563 663 537 683 500 L474 422 C451 456 426 470 385 470 C310 470 255 407 255 322 C255 239 305 182 378 182 C417 182 455 201 468 227 C469 231 470 234 473 243 L368 243 L368 387 L717 387 C714 253 707 221 668 158 C615 82 546 37 450 18 L464 45 Z M354 -125 L262 -125 L312 26 L432 26 L354 -125 Z " />
<glyph glyph-name="gcommaaccent" unicode="&#x123;" horiz-adv-x="597" d="M276 685 L177 494 L364 494 L426 685 L276 685 Z M288 665 L399 665 L350 514 L210 514 L288 665 Z M298 305 C261 305 233 276 233 239 C233 201 261 173 297 173 C334 173 357 198 357 237 C357 277 333 305 298 305 L298 305 Z M297 285 C321 285 337 266 337 237 C337 209 322 193 297 193 C272 193 253 212 253 239 C253 265 272 285 297 285 L297 285 Z M25 -170 L77 -188 C128 -207 199 -218 260 -218 C447 -218 573 -117 573 33 L573 477 L330 477 L330 446 C289 480 263 490 218 490 C157 490 105 464 66 414 C30 367 9 303 9 240 C9 101 100 -8 216 -8 C259 -8 297 5 330 32 L330 25 C330 -12 290 -46 248 -46 C225 -46 197 -41 167 -31 C143 -23 134 -18 107 2 L85 19 L25 -170 Z M49 -157 L95 -14 C142 -48 193 -66 248 -66 C302 -66 350 -23 350 25 L350 94 C338 71 336 68 332 62 C311 33 262 12 216 12 C166 12 123 32 89 71 C51 115 29 177 29 240 C29 368 111 470 214 470 C260 470 303 451 328 419 C334 411 336 408 350 389 L350 457 L553 457 L553 33 C553 -106 436 -198 260 -198 C200 -198 133 -187 84 -170 L49 -157 Z " />
<glyph glyph-name="Imacron" unicode="&#x12a;" horiz-adv-x="307" d="M286 541 L319 541 L319 676 L-12 676 L-12 541 L22 541 L22 0 L286 0 L286 541 Z M42 542 L266 542 L266 20 L42 20 L42 542 Z M8 561 L8 656 L299 656 L299 561 L8 561 Z " />
<glyph glyph-name="imacron" unicode="&#x12b;" horiz-adv-x="295" d="M22 0 L272 0 L272 477 L22 477 L22 0 Z M42 20 L42 457 L252 457 L252 20 L42 20 Z M10 517 L284 517 L284 652 L10 652 L10 517 Z M30 537 L30 632 L264 632 L264 537 L30 537 Z " />
<glyph glyph-name="Iogonek" unicode="&#x12e;" horiz-adv-x="317" d="M287 12 L287 667 L23 667 L23 0 L92 0 L93 1 L212 -132 L326 -25 L287 12 Z M43 647 L267 647 L267 29 L180 113 L84 20 L43 20 L43 647 Z M297 -25 L213 -103 L106 17 L180 87 L297 -25 Z " />
<glyph glyph-name="iogonek" unicode="&#x12f;" horiz-adv-x="302" d="M276 9 L276 477 L26 477 L26 0 L81 0 L216 -134 L327 -38 L276 9 Z M256 28 L169 108 L66 20 L46 20 L46 457 L256 457 L256 28 Z M169 81 L297 -37 L217 -107 L93 17 L169 81 Z M147 740 C68 740 14 690 14 617 C14 546 70 497 152 497 C188 497 215 504 237 520 C267 542 286 579 286 616 C286 691 231 740 147 740 L147 740 Z M147 720 C219 720 266 679 266 616 C266 556 221 517 152 517 C81 517 34 557 34 617 C34 680 79 720 147 720 L147 720 Z " />
<glyph glyph-name="Idotaccent" unicode="&#x130;" horiz-adv-x="311" d="M246 667 C227 707 196 727 155 727 C114 727 84 707 64 667 L23 667 L23 0 L287 0 L287 667 L246 667 Z M59 647 C58 638 57 630 57 626 C57 574 102 530 155 530 C208 530 253 574 253 626 C253 630 252 638 251 647 L267 647 L267 20 L43 20 L43 647 L59 647 Z M155 707 C199 707 234 672 234 628 C234 584 199 549 154 549 C112 549 76 585 76 628 C76 672 111 707 155 707 L155 707 Z " />
<glyph glyph-name="dotlessi" unicode="&#x131;" horiz-adv-x="296" d="M23 0 L273 0 L273 477 L23 477 L23 0 Z M43 20 L43 457 L253 457 L253 20 L43 20 Z " />
<glyph glyph-name="Kcommaaccent" unicode="&#x136;" horiz-adv-x="711" d="M225 0 L178 -145 L310 -145 L392 13 L399 0 L708 0 L477 342 L686 667 L394 667 L278 449 L278 667 L23 667 L23 0 L225 0 Z M278 46 L278 212 L373 46 L278 46 Z M258 288 L258 45 L241 45 L233 20 L43 20 L43 647 L258 647 L258 369 L406 647 L649 647 L453 342 L670 20 L411 20 L258 288 Z M297 -125 L206 -125 L255 26 L376 26 L297 -125 Z " />
<glyph glyph-name="kcommaaccent" unicode="&#x137;" horiz-adv-x="642" d="M210 0 L163 -145 L294 -145 L369 0 L640 0 L457 245 L632 477 L336 477 L273 360 L273 726 L23 726 L23 0 L210 0 Z M316 46 L273 46 L273 119 L316 46 Z M379 20 L392 45 L339 45 L253 194 L253 45 L226 45 L218 20 L43 20 L43 706 L253 706 L253 281 L348 457 L592 457 L432 246 L600 20 L379 20 Z M282 -125 L190 -125 L240 26 L361 26 L282 -125 Z " />
<glyph glyph-name="Lacute" unicode="&#x139;" horiz-adv-x="492" d="M287 533 L457 666 L283 724 L226 667 L23 667 L23 0 L481 0 L481 237 L287 237 L287 533 Z M208 647 L130 568 L267 523 L267 217 L461 217 L461 20 L43 20 L43 647 L208 647 Z M165 577 L289 702 L416 659 L267 543 L165 577 Z " />
<glyph glyph-name="lacute" unicode="&#x13a;" horiz-adv-x="310" d="M226 716 L236 726 L23 726 L23 0 L273 0 L273 584 L378 665 L226 716 Z M188 706 L50 568 L192 521 L253 569 L253 20 L43 20 L43 706 L188 706 Z M85 576 L209 701 L336 658 L188 542 L85 576 Z " />
<glyph glyph-name="Lcommaaccent" unicode="&#x13b;" horiz-adv-x="492" d="M161 0 L114 -145 L245 -145 L320 0 L481 0 L481 237 L287 237 L287 667 L23 667 L23 0 L161 0 Z M329 20 L342 45 L176 45 L168 20 L43 20 L43 647 L267 647 L267 217 L461 217 L461 20 L329 20 Z M233 -125 L141 -125 L190 26 L311 26 L233 -125 Z " />
<glyph glyph-name="lcommaaccent" unicode="&#x13c;" horiz-adv-x="302" d="M63 0 L16 -145 L147 -145 L222 0 L279 0 L279 726 L30 726 L30 0 L63 0 Z M232 20 L245 45 L79 45 L71 20 L50 20 L50 706 L259 706 L259 20 L232 20 Z M135 -125 L44 -125 L93 26 L214 26 L135 -125 Z " />
<glyph glyph-name="Lcaron" unicode="&#x13d;" horiz-adv-x="503" d="M287 519 L287 667 L23 667 L23 0 L481 0 L481 237 L287 237 L287 475 L404 475 L503 667 L335 667 L287 519 Z M43 20 L43 647 L267 647 L267 217 L461 217 L461 20 L43 20 Z M392 495 L300 495 L349 647 L471 647 L392 495 Z " />
<glyph glyph-name="lcaron" unicode="&#x13e;" horiz-adv-x="303" d="M358 726 L23 726 L23 0 L273 0 L273 563 L358 726 Z M184 706 L129 536 L253 536 L253 20 L43 20 L43 706 L184 706 Z M247 555 L155 555 L204 706 L325 706 L247 555 Z " />
<glyph glyph-name="Lslash" unicode="&#x141;" horiz-adv-x="517" d="M312 334 L407 388 L407 565 L312 510 L312 667 L47 667 L47 357 L0 329 L0 156 L47 183 L47 0 L505 0 L505 237 L312 237 L312 334 Z M67 195 L292 324 L292 217 L485 217 L485 20 L67 20 L67 195 Z M292 497 L67 367 L67 647 L292 647 L292 497 Z M20 190 L20 318 L387 530 L387 400 L20 190 Z " />
<glyph glyph-name="lslash" unicode="&#x142;" horiz-adv-x="331" d="M290 351 L318 366 L318 542 L290 527 L290 726 L41 726 L41 392 L13 377 L13 201 L41 216 L41 0 L290 0 L290 351 Z M61 228 L270 342 L270 20 L61 20 L61 228 Z M270 515 L61 402 L61 706 L270 706 L270 515 Z M298 378 L33 235 L33 365 L298 509 L298 378 Z " />
<glyph glyph-name="Nacute" unicode="&#x143;" horiz-adv-x="714" d="M583 667 L412 724 L302 613 L269 667 L23 667 L23 0 L277 0 L274 271 L444 0 L690 0 L690 667 L583 667 Z M347 538 L400 521 L437 550 L439 386 L347 538 Z M288 598 L259 568 L317 549 L460 312 L457 566 L560 647 L670 647 L670 20 L455 20 L253 342 L257 20 L43 20 L43 647 L258 647 L288 598 Z M294 577 L418 702 L545 659 L396 543 L294 577 Z " />
<glyph glyph-name="nacute" unicode="&#x144;" horiz-adv-x="583" d="M23 0 L273 0 L273 248 C273 276 279 285 296 285 C311 285 314 278 314 248 L314 0 L563 0 L563 301 C563 356 549 401 523 431 C490 468 441 490 392 490 C341 490 310 477 268 436 L268 477 L23 477 L23 0 Z M43 20 L43 457 L248 457 L248 382 C250 385 251 386 254 389 C284 424 284 424 289 429 C317 456 352 470 392 470 C430 470 467 456 496 429 C528 401 543 359 543 301 L543 20 L334 20 L334 248 C334 290 324 305 296 305 C266 305 253 287 253 248 L253 20 L43 20 Z M333 712 L202 547 L311 478 L476 623 L333 712 Z M337 686 L443 620 L309 503 L232 552 L337 686 Z " />
<glyph glyph-name="Ncommaaccent" unicode="&#x145;" horiz-adv-x="714" d="M265 0 L218 -145 L349 -145 L433 17 L444 0 L690 0 L690 667 L436 667 L439 385 L269 667 L23 667 L23 0 L265 0 Z M276 34 L274 271 L415 46 L280 46 L276 34 Z M253 341 L257 20 L43 20 L43 647 L258 647 L460 312 L456 647 L670 647 L670 20 L455 20 L253 341 Z M337 -125 L246 -125 L295 26 L416 26 L337 -125 Z " />
<glyph glyph-name="ncommaaccent" unicode="&#x146;" horiz-adv-x="583" d="M202 0 L155 -145 L286 -145 L362 0 L563 0 L563 301 C563 356 549 401 523 431 C490 468 441 490 392 490 C341 490 310 477 268 436 L268 477 L23 477 L23 0 L202 0 Z M314 46 L273 46 L273 247 C273 276 279 285 296 285 C311 285 314 278 314 247 L314 46 Z M371 20 L384 45 L334 45 L334 247 C334 290 324 305 296 305 C266 305 253 287 253 247 L253 45 L218 45 L209 20 L43 20 L43 457 L248 457 L248 382 L254 389 C284 424 284 424 289 429 C317 456 352 470 392 470 C430 470 467 456 496 429 C528 401 543 359 543 301 L543 20 L371 20 Z M274 -125 L182 -125 L231 26 L353 26 L274 -125 Z " />
<glyph glyph-name="Ncaron" unicode="&#x147;" horiz-adv-x="714" d="M556 667 L542 726 L357 661 L171 726 L157 667 L23 667 L23 0 L277 0 L274 271 L444 0 L690 0 L690 667 L556 667 Z M357 522 L437 549 L439 386 L357 522 Z M154 647 L142 595 L327 532 L460 312 L457 556 L571 595 L559 647 L670 647 L670 20 L455 20 L253 342 L257 20 L43 20 L43 647 L154 647 Z M185 700 L357 640 L528 700 L549 607 L357 543 L165 607 L185 700 Z " />
<glyph glyph-name="ncaron" unicode="&#x148;" horiz-adv-x="583" d="M23 0 L273 0 L273 248 C273 276 279 285 296 285 C311 285 314 278 314 248 L314 0 L563 0 L563 301 C563 356 549 401 523 431 C490 468 441 490 392 490 C341 490 310 477 268 436 L268 477 L23 477 L23 0 Z M43 20 L43 457 L248 457 L248 382 C250 385 251 386 254 389 C284 424 284 424 289 429 C317 456 352 470 392 470 C430 470 467 456 496 429 C528 401 543 359 543 301 L543 20 L334 20 L334 248 C334 290 324 305 296 305 C266 305 253 287 253 248 L253 20 L43 20 Z M439 702 L292 633 L146 704 L87 591 L291 480 L499 589 L439 702 Z M431 676 L472 597 L291 503 L114 599 L155 677 L291 610 L431 676 Z " />
<glyph glyph-name="Omacron" unicode="&#x14c;" horiz-adv-x="752" d="M377 459 C307 459 256 406 256 335 C256 260 305 208 377 208 C448 208 496 258 496 332 C496 406 446 459 377 459 L377 459 Z M376 439 C435 439 476 395 476 332 C476 269 437 228 377 228 C316 228 276 271 276 335 C276 395 318 439 376 439 L376 439 Z M166 622 C136 600 127 593 118 585 C51 527 9 429 9 332 C9 237 46 150 114 85 C179 23 266 -9 370 -9 C586 -9 742 133 742 332 C742 432 700 530 631 589 C622 597 614 603 585 623 L585 676 L166 676 L166 622 Z M186 561 L186 656 L565 656 L565 561 L186 561 Z M167 542 L584 542 L584 599 C615 577 628 566 644 548 C694 491 722 412 722 332 C722 144 575 11 370 11 C287 11 214 33 159 73 C77 133 29 229 29 332 C29 402 52 472 93 528 C113 555 128 570 167 598 L167 542 Z " />
<glyph glyph-name="omacron" unicode="&#x14d;" horiz-adv-x="594" d="M118 530 L475 530 L475 646 L118 646 L118 530 Z M138 550 L138 626 L455 626 L455 550 L138 550 Z M297 305 C260 305 233 277 233 238 C233 200 260 172 296 172 C335 172 360 198 360 237 C360 278 334 305 297 305 L297 305 Z M297 285 C323 285 340 266 340 237 C340 209 324 192 296 192 C271 192 253 211 253 238 C253 266 271 285 297 285 L297 285 Z M297 490 C126 490 9 387 9 237 C9 93 129 -13 292 -13 C467 -13 584 86 584 234 C584 387 469 490 297 490 L297 490 Z M297 470 C457 470 564 376 564 234 C564 98 456 7 292 7 C140 7 29 104 29 237 C29 377 136 470 297 470 L297 470 Z " />
<glyph glyph-name="Ohungarumlaut" unicode="&#x150;" horiz-adv-x="752" d="M377 459 C307 459 256 406 256 335 C256 260 305 208 377 208 C448 208 496 258 496 332 C496 406 446 459 377 459 L377 459 Z M376 439 C435 439 476 395 476 332 C476 269 437 228 377 228 C316 228 276 271 276 335 C276 395 318 439 376 439 L376 439 Z M450 689 L359 724 L308 672 C259 660 259 660 251 658 C106 617 9 486 9 333 C9 134 160 -9 370 -9 C587 -9 742 133 742 332 C742 455 685 562 585 623 L639 665 L486 724 L450 689 Z M470 680 L491 701 L599 659 L450 543 L387 568 L510 664 L470 680 Z M240 576 L364 701 L472 659 L324 543 L240 576 Z M370 554 L453 521 L567 610 C664 555 722 452 722 333 C722 144 576 11 370 11 C171 11 29 145 29 333 C29 456 94 563 201 617 C227 630 245 637 283 646 L207 569 L327 521 L370 554 Z " />
<glyph glyph-name="ohungarumlaut" unicode="&#x151;" horiz-adv-x="594" d="M297 305 C260 305 233 277 233 238 C233 200 260 172 296 172 C335 172 360 198 360 237 C360 278 334 305 297 305 L297 305 Z M297 285 C323 285 340 266 340 237 C340 209 324 192 296 192 C271 192 253 211 253 238 C253 266 271 285 297 285 L297 285 Z M335 659 L252 713 L138 547 L229 484 C93 459 9 365 9 238 C9 91 128 -13 296 -13 C467 -13 584 88 584 235 C584 364 500 459 365 484 L509 623 L372 713 L335 659 Z M345 487 C325 489 313 490 296 490 C279 490 267 489 247 487 L288 526 L345 487 Z M302 541 L387 623 L351 647 L377 685 L477 620 L356 503 L302 541 Z M257 685 L357 620 L236 503 L166 552 L257 685 Z M297 470 C457 470 564 376 564 234 C564 98 456 7 292 7 C140 7 29 104 29 237 C29 377 136 470 297 470 L297 470 Z " />
<glyph glyph-name="OE" unicode="&#x152;" horiz-adv-x="974" d="M382 457 C313 457 262 403 262 331 C262 263 314 210 381 210 C451 210 498 259 498 333 C498 410 454 457 382 457 L382 457 Z M382 437 C443 437 478 399 478 334 C478 270 440 230 381 230 C325 230 282 274 282 331 C282 392 324 437 382 437 L382 437 Z M495 610 C446 655 387 677 317 677 C146 677 9 523 9 332 C9 142 145 -10 315 -10 C382 -10 454 15 495 53 L495 0 L960 0 L960 207 L757 207 L757 234 L936 234 L936 434 L757 434 L757 460 L952 460 L952 667 L495 667 L495 610 Z M515 647 L932 647 L932 480 L737 480 L737 414 L916 414 L916 254 L737 254 L737 187 L940 187 L940 20 L515 20 L515 106 C488 73 476 62 462 52 C420 26 365 10 315 10 C156 10 29 153 29 332 C29 512 157 657 317 657 C379 657 444 633 480 597 C487 589 495 580 515 552 L515 647 Z " />
<glyph glyph-name="oe" unicode="&#x153;" horiz-adv-x="886" d="M298 307 C261 307 233 277 233 240 C233 202 261 172 297 172 C334 172 362 201 362 240 C362 278 334 307 298 307 L298 307 Z M298 287 C322 287 342 266 342 240 C342 213 323 192 297 192 C273 192 253 213 253 240 C253 266 273 287 298 287 L298 287 Z M653 294 C650 338 631 361 597 361 C577 361 559 349 551 332 C547 322 546 314 545 294 L653 294 Z M567 314 C570 331 580 341 597 341 C614 341 626 331 629 314 L567 314 Z M624 177 C623 153 616 145 595 145 C569 145 561 158 561 197 L876 197 C874 258 871 280 858 319 C824 421 726 491 615 491 C552 491 492 471 445 434 C403 468 339 490 277 490 C222 490 157 470 114 441 C49 396 9 318 9 235 C9 95 120 -13 263 -13 C325 -13 388 7 438 42 C482 5 533 -13 597 -13 C688 -13 766 19 821 80 C847 108 851 116 870 177 L624 177 Z M541 217 L541 193 C541 148 559 125 596 125 C621 125 637 137 641 157 L843 157 C813 66 715 7 597 7 C529 7 474 29 440 70 C398 31 330 7 263 7 C131 7 29 106 29 235 C29 311 66 383 125 424 C165 451 227 470 277 470 C345 470 408 445 444 406 C485 447 549 471 615 471 C695 471 766 434 811 369 C839 328 853 279 855 217 L541 217 Z " />
<glyph glyph-name="Racute" unicode="&#x154;" horiz-adv-x="666" d="M261 365 L296 365 C334 365 359 387 359 421 C359 455 336 480 304 480 L261 480 L261 365 Z M281 385 L281 460 L304 460 C325 460 339 445 339 421 C339 398 323 385 295 385 L281 385 Z M281 667 L23 667 L23 0 L281 0 L281 150 L358 0 L664 0 L492 259 C510 267 519 271 528 278 C572 309 596 364 596 432 C596 522 553 593 474 636 L512 666 L338 724 L281 667 Z M220 577 L344 702 L471 659 L322 543 L220 577 Z M263 647 L185 568 L326 522 L456 623 C533 586 576 518 576 432 C576 349 541 295 475 275 C465 272 465 272 460 270 L627 20 L370 20 L261 233 L261 20 L43 20 L43 647 L263 647 Z " />
<glyph glyph-name="racute" unicode="&#x155;" horiz-adv-x="430" d="M23 0 L273 0 L273 198 C273 236 300 260 340 260 C362 260 362 260 425 223 L425 495 C338 496 308 488 274 454 L274 477 L23 477 L23 0 Z M43 20 L43 457 L254 457 L254 395 C256 398 258 401 260 403 C303 464 323 474 405 475 L405 258 C374 276 363 280 341 280 C289 280 253 247 253 198 L253 20 L43 20 Z M244 712 L113 547 L222 478 L387 623 L244 712 Z M249 686 L354 620 L220 503 L143 552 L249 686 Z " />
<glyph glyph-name="Rcommaaccent" unicode="&#x156;" horiz-adv-x="666" d="M261 365 L296 365 C334 365 359 387 359 421 C359 455 336 480 304 480 L261 480 L261 365 Z M281 385 L281 460 L304 460 C325 460 339 445 339 421 C339 398 323 385 295 385 L281 385 Z M223 0 L176 -145 L307 -145 L382 0 L664 0 L492 259 C510 267 519 271 528 277 C572 309 596 364 596 432 C596 518 559 584 487 628 C441 656 397 667 326 667 L23 667 L23 0 L223 0 Z M281 46 L281 150 L334 46 L281 46 Z M295 -125 L203 -125 L253 26 L373 26 L295 -125 Z M392 20 L405 45 L357 45 L261 233 L261 45 L239 45 L231 20 L43 20 L43 647 L326 647 C394 647 434 637 476 611 C543 570 576 511 576 432 C576 349 542 295 475 275 L460 270 L627 20 L392 20 Z " />
<glyph glyph-name="rcommaaccent" unicode="&#x157;" horiz-adv-x="430" d="M260 25 L273 25 L273 198 C273 236 300 260 340 260 C362 260 364 259 425 222 L425 495 C338 496 308 488 274 454 L274 477 L23 477 L23 0 L88 0 L41 -145 L172 -145 L260 25 Z M253 45 L104 45 L96 20 L43 20 L43 457 L254 457 L254 395 C256 398 258 401 260 403 C303 464 323 474 405 475 L405 258 C374 276 363 280 341 280 C289 280 253 246 253 198 L253 45 Z M160 -125 L68 -125 L118 26 L239 26 L160 -125 Z " />
<glyph glyph-name="Rcaron" unicode="&#x158;" horiz-adv-x="666" d="M261 365 L296 365 C334 365 359 387 359 421 C359 455 336 480 304 480 L261 480 L261 365 Z M281 385 L281 460 L304 460 C325 460 339 445 339 421 C339 398 323 385 295 385 L281 385 Z M469 726 L283 661 L96 726 L83 667 L23 667 L23 0 L281 0 L281 150 L358 0 L664 0 L492 259 C510 267 519 271 528 278 C572 309 596 364 596 432 C596 503 571 560 523 602 C520 604 509 613 490 628 L469 726 Z M111 700 L283 640 L454 700 L475 607 L283 543 L90 607 L111 700 Z M80 647 L68 595 L283 523 L497 595 L496 598 C554 551 576 505 576 432 C576 349 541 296 475 275 C469 273 464 271 460 270 L627 20 L370 20 L261 233 L261 20 L43 20 L43 647 L80 647 Z " />
<glyph glyph-name="rcaron" unicode="&#x159;" horiz-adv-x="440" d="M28 0 L278 0 L278 198 C278 235 306 260 346 260 C368 260 368 260 431 223 L431 495 C344 496 314 488 280 454 L280 477 L28 477 L28 0 Z M48 20 L48 457 L260 457 L260 395 C305 463 328 475 411 475 L411 258 C380 276 369 280 347 280 C295 280 258 246 258 198 L258 20 L48 20 Z M375 702 L227 633 L82 704 L23 591 L227 480 L435 589 L375 702 Z M366 676 L408 597 L227 503 L50 599 L91 677 L227 610 L366 676 Z " />
<glyph glyph-name="Sacute" unicode="&#x15a;" horiz-adv-x="567" d="M537 666 L363 724 L316 677 C277 674 277 674 269 673 C129 656 28 554 28 430 C28 333 92 263 197 244 L263 232 C285 228 291 224 291 215 C291 204 274 195 252 195 C212 195 163 212 128 239 L86 271 L2 57 C34 42 37 40 48 35 C111 9 198 -9 268 -9 C436 -9 557 93 557 233 C557 335 497 405 387 429 L314 445 C298 448 291 452 291 457 C291 467 305 474 325 474 C371 474 393 465 466 417 L541 614 C511 630 510 630 498 636 L537 666 Z M209 568 L351 522 L480 623 C491 617 497 614 516 604 L456 448 C404 481 368 494 325 494 C292 494 271 479 271 457 C271 441 283 431 309 425 L383 409 C483 387 537 326 537 233 C537 104 424 11 268 11 C186 11 105 30 27 67 L95 239 L116 223 C154 194 207 175 252 175 C286 175 311 192 311 215 C311 235 298 246 267 252 L200 264 C105 281 48 343 48 430 C48 526 115 609 218 641 C243 649 261 652 296 655 L209 568 Z M245 577 L369 701 L495 659 L347 543 L245 577 Z " />
<glyph glyph-name="sacute" unicode="&#x15b;" horiz-adv-x="468" d="M235 489 C113 478 36 412 36 319 C36 266 61 227 109 204 C133 193 163 185 187 183 C212 181 219 177 219 165 C219 156 211 149 199 149 C187 149 159 158 134 169 C117 177 114 179 72 207 L2 45 C116 -2 158 -13 229 -13 C364 -13 460 61 460 167 C460 241 418 285 328 304 C267 316 267 316 267 326 C267 334 273 339 283 339 C309 339 345 325 390 299 L455 443 C397 474 346 487 264 490 L417 623 L274 712 L143 547 L235 489 Z M81 177 C124 148 172 129 201 129 C223 129 239 144 239 165 C239 189 227 198 190 202 C103 212 56 253 56 320 C56 408 141 470 261 470 C325 470 381 458 429 433 L380 327 C337 350 309 359 283 359 C261 359 247 346 247 324 C247 307 256 299 281 293 C332 283 332 283 345 279 C410 261 440 226 440 167 C440 73 353 7 229 7 C166 7 114 20 28 56 L81 177 Z M278 686 L384 620 L250 503 L172 552 L278 686 Z " />
<glyph glyph-name="scircumflex" unicode="&#x15d;" horiz-adv-x="468" d="M2 45 C116 -2 158 -13 229 -13 C364 -13 460 61 460 167 C460 241 418 285 328 304 C267 316 267 316 267 326 C267 334 273 339 283 339 C309 339 345 325 390 299 L455 443 C423 459 420 461 411 464 C375 479 311 490 261 490 C129 490 36 419 36 319 C36 266 61 227 109 204 C133 193 163 185 187 183 C212 181 219 177 219 165 C219 156 211 149 199 149 C187 149 159 158 134 169 C117 177 114 179 72 207 L2 45 Z M81 177 C124 148 172 129 201 129 C223 129 239 144 239 165 C239 189 227 198 190 202 C103 212 56 253 56 320 C56 408 141 470 261 470 C325 470 381 458 429 433 L380 327 C337 350 309 359 283 359 C261 359 247 346 247 324 C247 307 256 299 281 293 C332 283 332 283 345 279 C410 261 440 226 440 167 C440 73 353 7 229 7 C166 7 114 20 28 56 L81 177 Z M110 479 L257 548 L403 479 L463 592 L257 701 L51 592 L110 479 Z M119 505 L78 584 L257 678 L436 584 L395 505 L257 570 L119 505 Z " />
<glyph glyph-name="Scedilla" unicode="&#x15e;" horiz-adv-x="567" d="M144 -145 L275 -145 L350 -1 L384 9 C492 45 557 128 557 233 C557 335 496 405 387 429 L314 445 C298 448 291 452 291 457 C291 467 305 474 325 474 C371 474 392 465 466 417 L540 613 C454 661 404 676 321 676 C153 676 28 571 28 429 C28 333 92 263 197 244 L263 232 C285 228 291 224 291 215 C291 204 274 195 252 195 C212 195 162 213 128 239 L86 271 L2 57 C68 23 115 8 190 -4 L144 -145 Z M372 45 L206 45 L197 16 C130 25 78 41 27 67 L95 239 L116 223 C153 194 207 175 252 175 C286 175 311 192 311 215 C311 235 298 246 267 252 L200 264 C105 281 48 343 48 430 C48 560 165 656 321 656 C394 656 449 641 515 604 L456 448 C405 481 368 494 325 494 C292 494 271 479 271 457 C271 441 283 431 309 425 L383 409 C483 387 537 325 537 233 C537 131 473 55 361 23 L372 45 Z M263 -125 L171 -125 L220 26 L341 26 L263 -125 Z " />
<glyph glyph-name="scedilla" unicode="&#x15f;" horiz-adv-x="468" d="M299 -5 C401 18 460 81 460 167 C460 241 418 285 328 304 C267 316 267 316 267 326 C267 334 273 339 283 339 C308 339 345 325 390 299 L455 443 C423 459 419 461 411 464 C375 479 311 490 261 490 C129 490 36 419 36 319 C36 266 61 227 109 204 C133 193 163 185 187 183 C212 181 219 177 219 165 C219 156 211 149 199 149 C187 149 159 158 134 169 C117 177 115 178 72 207 L2 44 C78 13 97 6 141 -3 L95 -145 L227 -145 L299 -5 Z M326 46 L158 46 L148 16 C111 23 86 31 28 55 L81 177 C125 148 172 129 201 129 C223 129 239 144 239 165 C239 189 227 198 190 202 C103 212 56 253 56 320 C56 408 141 470 261 470 C325 470 382 458 429 433 L380 327 C337 350 309 359 283 359 C261 359 247 346 247 324 C247 307 256 299 281 293 C332 283 332 283 345 279 C410 261 440 226 440 167 C440 95 395 44 311 18 L326 46 Z M215 -125 L123 -125 L172 26 L293 26 L215 -125 Z " />
<glyph glyph-name="Scaron" unicode="&#x160;" horiz-adv-x="567" d="M518 614 L493 726 L307 661 L121 726 L92 594 L97 592 C52 547 28 491 28 430 C28 333 92 263 197 244 L263 232 C285 228 291 224 291 215 C291 204 274 195 252 195 C212 195 163 212 128 239 L86 271 L2 57 C34 42 37 40 48 35 C111 9 198 -9 268 -9 C436 -9 557 93 557 233 C557 335 497 405 387 429 L314 445 C298 448 291 452 291 457 C291 467 305 474 325 474 C371 474 393 465 466 417 L544 623 L518 614 Z M307 523 L510 591 L456 448 C404 481 368 494 325 494 C292 494 271 479 271 457 C271 441 283 431 309 425 L383 409 C483 387 537 326 537 233 C537 104 424 11 268 11 C186 11 105 30 27 67 L95 239 L116 223 C154 194 207 175 252 175 C286 175 311 192 311 215 C311 235 298 246 267 252 L200 264 C105 281 48 343 48 430 C48 489 73 544 119 586 L307 523 Z M136 700 L307 639 L479 700 L499 607 L307 543 L115 607 L136 700 Z " />
<glyph glyph-name="scaron" unicode="&#x161;" horiz-adv-x="472" d="M242 489 C118 480 39 413 39 319 C39 266 64 227 112 204 C136 193 166 185 190 183 C215 181 222 177 222 165 C222 156 214 149 202 149 C190 149 162 158 137 169 C120 177 117 179 75 207 L5 45 C119 -2 161 -13 232 -13 C367 -13 463 61 463 167 C463 241 421 285 331 304 C270 316 270 316 270 326 C270 334 276 339 286 339 C312 339 348 325 393 299 L458 443 C401 474 356 485 275 489 L466 589 L406 702 L258 633 L113 704 L54 591 L242 489 Z M84 177 C127 148 175 129 204 129 C226 129 242 144 242 165 C242 189 230 198 193 202 C106 212 59 253 59 320 C59 408 144 470 264 470 C328 470 384 458 432 433 L383 327 C340 350 312 359 286 359 C264 359 250 346 250 324 C250 307 259 299 284 293 C335 283 335 283 348 279 C413 261 443 226 443 167 C443 73 356 7 232 7 C169 7 117 20 31 56 L84 177 Z M397 676 L439 597 L258 503 L81 599 L121 677 L258 610 L397 676 Z " />
<glyph glyph-name="Tcommaaccent" unicode="&#x162;" horiz-adv-x="530" d="M187 0 L140 -145 L271 -145 L346 0 L396 0 L396 427 L524 427 L524 667 L7 667 L7 427 L137 427 L137 0 L187 0 Z M355 20 L368 45 L203 45 L194 20 L157 20 L157 447 L27 447 L27 647 L504 647 L504 447 L376 447 L376 20 L355 20 Z M259 -125 L167 -125 L216 26 L337 26 L259 -125 Z " />
<glyph glyph-name="tcommaaccent" unicode="&#x163;" horiz-adv-x="389" d="M99 0 L52 -145 L183 -145 L258 0 L310 0 L310 273 L383 273 L383 477 L310 477 L310 634 L61 634 L61 477 L7 477 L7 273 L61 273 L61 0 L99 0 Z M267 20 L280 45 L115 45 L107 20 L81 20 L81 293 L27 293 L27 457 L81 457 L81 614 L290 614 L290 457 L363 457 L363 293 L290 293 L290 20 L267 20 Z M171 -125 L80 -125 L129 26 L249 26 L171 -125 Z " />
<glyph glyph-name="Tcaron" unicode="&#x164;" horiz-adv-x="530" d="M465 667 L451 726 L265 661 L79 726 L66 667 L7 667 L7 427 L137 427 L137 0 L396 0 L396 427 L524 427 L524 667 L465 667 Z M63 647 L51 595 L265 523 L480 595 L468 647 L504 647 L504 447 L376 447 L376 20 L157 20 L157 447 L27 447 L27 647 L63 647 Z M94 700 L265 640 L437 700 L457 607 L265 543 L73 607 L94 700 Z " />
<glyph glyph-name="tcaron" unicode="&#x165;" horiz-adv-x="400" d="M310 538 L408 726 L240 726 L210 634 L61 634 L61 477 L7 477 L7 273 L61 273 L61 0 L310 0 L310 273 L383 273 L383 477 L310 477 L310 538 Z M205 614 L179 536 L290 536 L290 457 L363 457 L363 293 L290 293 L290 20 L81 20 L81 293 L27 293 L27 457 L81 457 L81 614 L205 614 Z M297 555 L205 555 L254 706 L375 706 L297 555 Z " />
<glyph glyph-name="Umacron" unicode="&#x16a;" horiz-adv-x="660" d="M540 667 L540 676 L120 676 L120 667 L20 667 L20 250 C20 173 51 101 103 60 C157 16 241 -9 335 -9 C524 -9 640 95 640 266 L640 667 L540 667 Z M282 541 L378 541 L378 288 C378 237 367 222 331 222 C297 222 282 242 282 288 L282 541 Z M121 647 L121 542 L262 542 L262 288 C262 231 285 202 331 202 C379 202 398 226 398 288 L398 542 L539 542 L539 647 L620 647 L620 266 C620 107 513 11 335 11 C245 11 166 34 115 75 C68 113 40 179 40 250 L40 647 L121 647 Z M140 561 L140 656 L520 656 L520 561 L140 561 Z " />
<glyph glyph-name="umacron" unicode="&#x16b;" horiz-adv-x="579" d="M20 477 L20 198 C20 151 37 105 67 73 C119 19 200 -13 288 -13 C351 -13 414 5 464 36 C528 77 559 132 559 205 L559 477 L309 477 L309 220 C309 202 302 192 289 192 C276 192 270 200 270 220 L270 477 L20 477 Z M40 457 L250 457 L250 220 C250 189 264 172 288 172 C313 172 329 191 329 220 L329 457 L539 457 L539 205 C539 147 518 102 474 68 C426 29 357 7 288 7 C206 7 129 37 82 87 C55 115 40 156 40 198 L40 457 Z M111 530 L468 530 L468 646 L111 646 L111 530 Z M131 550 L131 626 L448 626 L448 550 L131 550 Z " />
<glyph glyph-name="Uring" unicode="&#x16e;" horiz-adv-x="660" d="M330 682 C308 682 290 664 290 642 C290 621 308 603 329 603 C351 603 369 621 369 643 C369 664 351 682 330 682 L330 682 Z M330 662 C340 662 349 653 349 643 C349 632 340 623 329 623 C319 623 310 632 310 643 C310 653 319 662 330 662 L330 662 Z M463 667 C450 728 402 762 329 762 C257 762 209 727 197 667 L20 667 L20 250 C20 173 51 101 103 60 C157 16 241 -9 335 -9 C524 -9 640 95 640 266 L640 667 L463 667 Z M282 529 C303 524 312 522 329 522 C346 522 357 524 378 530 L378 288 C378 237 367 222 331 222 C297 222 282 242 282 288 L282 529 Z M196 647 C195 598 219 558 262 538 L262 288 C262 231 285 202 331 202 C379 202 398 226 398 288 L398 539 C442 560 466 598 464 647 L620 647 L620 266 C620 107 513 11 335 11 C245 11 166 34 115 75 C68 113 40 179 40 250 L40 647 L196 647 Z M329 742 C400 742 445 704 445 642 C445 582 398 542 327 542 C261 542 215 584 215 644 C215 704 259 742 329 742 L329 742 Z " />
<glyph glyph-name="uring" unicode="&#x16f;" horiz-adv-x="579" d="M20 477 L20 198 C20 151 37 105 67 73 C119 19 200 -13 288 -13 C351 -13 414 5 464 36 C528 77 559 132 559 205 L559 477 L309 477 L309 220 C309 202 302 192 289 192 C276 192 270 200 270 220 L270 477 L20 477 Z M40 457 L250 457 L250 220 C250 189 264 172 288 172 C313 172 329 191 329 220 L329 457 L539 457 L539 205 C539 147 518 102 474 68 C426 29 357 7 288 7 C206 7 129 37 82 87 C55 115 40 156 40 198 L40 457 Z M290 642 C267 642 249 624 249 602 C249 579 267 561 289 561 C312 561 330 579 330 602 C330 624 312 642 290 642 L290 642 Z M290 622 C301 622 310 613 310 602 C310 590 301 581 289 581 C278 581 269 590 269 601 C269 613 278 622 290 622 L290 622 Z M288 712 C214 712 165 668 165 602 C165 537 216 490 286 490 C362 490 414 535 414 601 C414 668 364 712 288 712 L288 712 Z M288 692 C353 692 394 657 394 601 C394 547 351 510 287 510 C227 510 185 548 185 602 C185 657 225 692 288 692 L288 692 Z " />
<glyph glyph-name="Uhungarumlaut" unicode="&#x170;" horiz-adv-x="660" d="M588 667 L440 725 L405 689 L314 725 L256 667 L20 667 L20 250 C20 173 51 101 103 60 C157 16 241 -9 335 -9 C524 -9 640 95 640 266 L640 667 L588 667 Z M282 520 L324 553 L378 532 L378 288 C378 237 367 222 331 222 C297 222 282 242 282 288 L282 520 Z M238 647 L161 570 L262 529 L262 288 C262 231 285 202 331 202 C379 202 398 226 398 288 L398 525 L408 521 L569 647 L620 647 L620 266 C620 107 513 11 335 11 C245 11 166 34 115 75 C68 113 40 179 40 250 L40 647 L238 647 Z M425 680 L445 701 L553 659 L405 543 L342 568 L465 665 L425 680 Z M195 576 L319 701 L427 659 L278 543 L195 576 Z " />
<glyph glyph-name="uhungarumlaut" unicode="&#x171;" horiz-adv-x="579" d="M20 477 L20 198 C20 151 37 105 67 73 C119 19 200 -13 288 -13 C351 -13 414 5 464 36 C528 77 559 132 559 205 L559 477 L309 477 L309 220 C309 202 302 192 289 192 C276 192 270 200 270 220 L270 477 L20 477 Z M40 457 L250 457 L250 220 C250 189 264 172 288 172 C313 172 329 191 329 220 L329 457 L539 457 L539 205 C539 147 518 102 474 68 C426 29 357 7 288 7 C206 7 129 37 82 87 C55 115 40 156 40 198 L40 457 Z M328 659 L245 713 L131 547 L231 478 L281 526 L351 478 L502 623 L365 713 L328 659 Z M295 541 L380 623 L344 647 L370 685 L470 620 L349 503 L295 541 Z M250 685 L350 620 L229 503 L159 552 L250 685 Z " />
<glyph glyph-name="Uogonek" unicode="&#x172;" horiz-adv-x="660" d="M511 -132 L624 -25 L544 52 C605 98 640 176 640 266 L640 667 L378 667 L378 288 C378 237 367 222 331 222 C297 222 282 242 282 288 L282 667 L20 667 L20 250 C20 173 51 101 103 60 C157 16 241 -9 335 -9 C356 -9 363 -9 398 -5 L511 -132 Z M478 113 L378 18 L383 13 C361 11 352 11 335 11 C245 11 166 34 115 75 C68 113 40 179 40 250 L40 647 L262 647 L262 288 C262 231 285 202 331 202 C379 202 398 226 398 288 L398 647 L620 647 L620 266 C620 179 590 112 528 65 L478 113 Z M595 -25 L512 -103 L405 17 L478 87 L595 -25 Z " />
<glyph glyph-name="uogonek" unicode="&#x173;" horiz-adv-x="579" d="M437 -134 L548 -38 L466 38 C529 79 559 132 559 205 L559 477 L309 477 L309 220 C309 202 302 192 289 192 C276 192 270 200 270 220 L270 477 L20 477 L20 198 C20 150 37 105 67 73 C119 19 200 -13 286 -13 C291 -13 300 -13 314 -12 L437 -134 Z M390 107 L286 18 L296 7 L286 7 C205 7 131 36 82 87 C56 114 40 156 40 198 L40 457 L250 457 L250 220 C250 189 264 172 288 172 C313 172 329 191 329 220 L329 457 L539 457 L539 205 C539 138 511 89 450 51 L390 107 Z M518 -37 L438 -107 L314 17 L390 81 L518 -37 Z " />
<glyph glyph-name="Ydieresis" unicode="&#x178;" horiz-adv-x="727" d="M341 588 C347 606 349 614 349 627 C349 683 305 727 250 727 C209 727 178 707 159 667 L2 667 L236 285 L236 0 L496 0 L496 285 L725 667 L569 667 C549 707 519 727 478 727 C423 727 379 683 379 628 C379 611 382 599 389 583 L367 533 L341 588 Z M154 647 C153 638 152 630 152 626 C152 574 197 530 250 530 C281 530 307 543 328 569 L368 484 L403 565 C422 542 449 530 478 530 C531 530 576 574 576 626 C576 630 575 638 574 647 L690 647 L476 290 L476 20 L256 20 L256 290 L38 647 L154 647 Z M250 707 C294 707 329 672 329 628 C329 584 294 549 249 549 C207 549 171 585 171 628 C171 672 206 707 250 707 L250 707 Z M478 707 C522 707 557 672 557 628 C557 584 522 549 477 549 C435 549 399 585 399 628 C399 672 434 707 478 707 L478 707 Z " />
<glyph glyph-name="Zacute" unicode="&#x179;" horiz-adv-x="698" d="M581 667 L410 724 L353 667 L71 667 L71 442 L278 442 L2 0 L665 0 L665 229 L438 229 L706 667 L581 667 Z M335 647 L257 568 L398 522 L558 647 L671 647 L402 209 L645 209 L645 20 L38 20 L314 462 L91 462 L91 647 L335 647 Z M292 577 L416 702 L542 659 L394 543 L292 577 Z " />
<glyph glyph-name="zacute" unicode="&#x17a;" horiz-adv-x="519" d="M505 0 L505 201 L359 201 L516 432 L516 477 L24 477 L24 277 L151 277 L2 52 L2 0 L505 0 Z M485 20 L22 20 L22 46 L188 297 L44 297 L44 457 L496 457 L496 438 L321 181 L485 181 L485 20 Z M324 712 L193 547 L302 478 L467 623 L324 712 Z M329 686 L434 620 L300 503 L223 552 L329 686 Z " />
<glyph glyph-name="Zdotaccent" unicode="&#x17b;" horiz-adv-x="698" d="M446 667 C426 707 395 727 355 727 C314 727 283 707 263 667 L71 667 L71 442 L278 442 L2 0 L665 0 L665 229 L438 229 L706 667 L446 667 Z M258 647 C257 638 256 630 256 626 C256 574 301 530 354 530 C407 530 452 574 452 626 C452 631 451 638 450 647 L671 647 L402 209 L645 209 L645 20 L38 20 L314 462 L91 462 L91 647 L258 647 Z M354 707 C398 707 433 672 433 628 C433 584 398 549 353 549 C311 549 275 585 275 628 C275 672 310 707 354 707 L354 707 Z " />
<glyph glyph-name="zdotaccent" unicode="&#x17c;" horiz-adv-x="519" d="M505 0 L505 201 L359 201 L516 432 L516 477 L24 477 L24 277 L151 277 L2 52 L2 0 L505 0 Z M485 20 L22 20 L22 46 L188 297 L44 297 L44 457 L496 457 L496 438 L321 181 L485 181 L485 20 Z M259 672 C209 672 169 632 169 582 C169 533 209 492 258 492 C309 492 349 532 349 582 C349 632 309 672 259 672 L259 672 Z M259 652 C298 652 329 621 329 582 C329 543 298 512 258 512 C220 512 189 544 189 582 C189 621 220 652 259 652 L259 652 Z " />
<glyph glyph-name="Zcaron" unicode="&#x17d;" horiz-adv-x="698" d="M553 667 L540 726 L354 661 L169 726 L155 667 L71 667 L71 442 L278 442 L2 0 L665 0 L665 229 L438 229 L706 667 L553 667 Z M152 647 L140 595 L354 523 L569 595 L557 647 L671 647 L402 209 L645 209 L645 20 L38 20 L314 462 L91 462 L91 647 L152 647 Z M183 700 L354 640 L526 700 L546 607 L354 543 L163 607 L183 700 Z " />
<glyph glyph-name="zcaron" unicode="&#x17e;" horiz-adv-x="519" d="M505 0 L505 201 L359 201 L516 432 L516 477 L24 477 L24 277 L151 277 L2 52 L2 0 L505 0 Z M485 20 L22 20 L22 46 L188 297 L44 297 L44 457 L496 457 L496 438 L321 181 L485 181 L485 20 Z M412 702 L264 633 L118 704 L60 591 L264 480 L472 589 L412 702 Z M403 676 L444 597 L264 503 L86 599 L127 677 L264 610 L403 676 Z " />
<glyph glyph-name="florin" unicode="&#x192;" horiz-adv-x="524" d="M2 -118 C48 -126 55 -127 84 -127 C147 -127 197 -118 231 -101 C298 -68 339 -3 354 94 L387 304 L453 304 L479 457 L413 457 L420 505 C423 522 431 530 443 530 C451 530 455 528 460 522 L488 494 L522 696 C456 725 431 731 384 731 C296 731 221 660 204 562 L187 457 L129 457 L103 304 L160 304 L130 127 C123 87 105 73 60 73 L33 73 L2 -118 Z M50 53 C113 52 142 72 150 123 L183 324 L127 324 L146 437 L204 437 L224 559 C239 648 306 711 385 711 C423 711 457 703 499 684 L475 536 C465 546 456 550 443 550 C421 550 405 535 401 508 L389 437 L455 437 L436 324 L370 324 L335 97 C312 -49 240 -107 83 -107 C60 -107 49 -106 25 -102 L50 53 Z " />
<glyph glyph-name="uni01D3" unicode="&#x1d3;" horiz-adv-x="660" d="M529 667 L516 726 L330 661 L144 726 L131 667 L20 667 L20 250 C20 173 51 101 103 60 C157 16 241 -9 335 -9 C524 -9 640 95 640 266 L640 667 L529 667 Z M282 538 L330 522 L378 538 L378 288 C378 237 367 222 331 222 C297 222 282 242 282 288 L282 538 Z M127 647 L116 595 L262 545 L262 288 C262 231 285 202 331 202 C379 202 398 226 398 288 L398 545 L545 595 L533 647 L620 647 L620 266 C620 107 513 11 335 11 C245 11 166 34 115 75 C68 113 40 179 40 250 L40 647 L127 647 Z M158 700 L330 640 L502 700 L522 607 L330 543 L138 607 L158 700 Z " />
<glyph glyph-name="uni01D4" unicode="&#x1d4;" horiz-adv-x="579" d="M20 477 L20 198 C20 151 37 105 67 73 C119 19 200 -13 288 -13 C351 -13 414 5 464 36 C528 77 559 132 559 205 L559 477 L309 477 L309 220 C309 202 302 192 289 192 C276 192 270 200 270 220 L270 477 L20 477 Z M40 457 L250 457 L250 220 C250 189 264 172 288 172 C313 172 329 191 329 220 L329 457 L539 457 L539 205 C539 147 518 102 474 68 C426 29 357 7 288 7 C206 7 129 37 82 87 C55 115 40 156 40 198 L40 457 Z M436 702 L288 633 L142 704 L84 591 L288 480 L495 589 L436 702 Z M427 676 L468 597 L288 503 L110 599 L151 677 L288 610 L427 676 Z " />
<glyph glyph-name="Scommaaccent" unicode="&#x218;" horiz-adv-x="567" d="M144 -145 L275 -145 L350 -1 L384 9 C492 45 557 128 557 233 C557 335 496 405 387 429 L314 445 C298 448 291 452 291 457 C291 467 305 474 325 474 C371 474 392 465 466 417 L540 613 C454 661 404 676 321 676 C153 676 28 571 28 429 C28 333 92 263 197 244 L263 232 C285 228 291 224 291 215 C291 204 274 195 252 195 C212 195 162 213 128 239 L86 271 L2 57 C68 23 115 8 190 -4 L144 -145 Z M372 45 L206 45 L197 16 C130 25 78 41 27 67 L95 239 L116 223 C153 194 207 175 252 175 C286 175 311 192 311 215 C311 235 298 246 267 252 L200 264 C105 281 48 343 48 430 C48 560 165 656 321 656 C394 656 449 641 515 604 L456 448 C405 481 368 494 325 494 C292 494 271 479 271 457 C271 441 283 431 309 425 L383 409 C483 387 537 325 537 233 C537 131 473 55 361 23 L372 45 Z M263 -125 L171 -125 L220 26 L341 26 L263 -125 Z " />
<glyph glyph-name="scommaaccent" unicode="&#x219;" horiz-adv-x="468" d="M299 -5 C401 18 460 81 460 167 C460 241 418 285 328 304 C267 316 267 316 267 326 C267 334 273 339 283 339 C308 339 345 325 390 299 L455 443 C423 459 419 461 411 464 C375 479 311 490 261 490 C129 490 36 419 36 319 C36 266 61 227 109 204 C133 193 163 185 187 183 C212 181 219 177 219 165 C219 156 211 149 199 149 C187 149 159 158 134 169 C117 177 115 178 72 207 L2 44 C78 13 97 6 141 -3 L95 -145 L227 -145 L299 -5 Z M326 46 L158 46 L148 16 C111 23 86 31 28 55 L81 177 C125 148 172 129 201 129 C223 129 239 144 239 165 C239 189 227 198 190 202 C103 212 56 253 56 320 C56 408 141 470 261 470 C325 470 382 458 429 433 L380 327 C337 350 309 359 283 359 C261 359 247 346 247 324 C247 307 256 299 281 293 C332 283 332 283 345 279 C410 261 440 226 440 167 C440 95 395 44 311 18 L326 46 Z M215 -125 L123 -125 L172 26 L293 26 L215 -125 Z " />
<glyph glyph-name="uni021A" unicode="&#x21a;" horiz-adv-x="530" d="M187 0 L140 -145 L271 -145 L346 0 L396 0 L396 427 L524 427 L524 667 L7 667 L7 427 L137 427 L137 0 L187 0 Z M355 20 L368 45 L203 45 L194 20 L157 20 L157 447 L27 447 L27 647 L504 647 L504 447 L376 447 L376 20 L355 20 Z M259 -125 L167 -125 L216 26 L337 26 L259 -125 Z " />
<glyph glyph-name="uni021B" unicode="&#x21b;" horiz-adv-x="389" d="M99 0 L52 -145 L183 -145 L258 0 L310 0 L310 273 L383 273 L383 477 L310 477 L310 634 L61 634 L61 477 L7 477 L7 273 L61 273 L61 0 L99 0 Z M267 20 L280 45 L115 45 L107 20 L81 20 L81 293 L27 293 L27 457 L81 457 L81 614 L290 614 L290 457 L363 457 L363 293 L290 293 L290 20 L267 20 Z M171 -125 L80 -125 L129 26 L249 26 L171 -125 Z " />
<glyph glyph-name="circumflex" unicode="&#x2c6;" horiz-adv-x="500" d="M104 511 L250 580 L396 511 L456 624 L250 732 L44 624 L104 511 Z M112 537 L71 615 L250 709 L429 615 L388 537 L250 602 L112 537 Z " />
<glyph glyph-name="caron" unicode="&#x2c7;" horiz-adv-x="500" d="M396 733 L248 664 L103 735 L44 622 L248 512 L456 620 L396 733 Z M387 707 L429 629 L248 534 L71 631 L112 709 L248 642 L387 707 Z " />
<glyph glyph-name="uni02C9" unicode="&#x2c9;" horiz-adv-x="500" d="M72 517 L428 517 L428 652 L72 652 L72 517 Z M92 537 L92 632 L408 632 L408 537 L92 537 Z " />
<glyph glyph-name="breve" unicode="&#x2d8;" horiz-adv-x="500" d="M57 703 C67 639 72 627 94 597 C127 552 189 524 252 524 C283 524 320 533 351 549 C382 565 402 585 420 618 C436 646 438 652 443 703 L334 703 L329 690 C318 662 300 653 252 653 C205 653 176 666 171 687 C171 690 170 696 168 703 L57 703 Z M152 683 C160 651 195 633 251 633 C308 633 332 645 347 683 L421 683 C418 654 410 636 392 610 C364 571 308 544 252 544 C208 544 158 562 130 587 C102 612 88 640 81 683 L152 683 Z " />
<glyph glyph-name="dotaccent" unicode="&#x2d9;" horiz-adv-x="500" d="M250 704 C200 704 160 664 160 614 C160 565 201 524 249 524 C300 524 340 564 340 614 C340 664 300 704 250 704 L250 704 Z M250 684 C289 684 320 653 320 614 C320 575 289 544 249 544 C212 544 180 576 180 614 C180 653 211 684 250 684 L250 684 Z " />
<glyph glyph-name="ring" unicode="&#x2da;" horiz-adv-x="500" d="M250 674 C227 674 209 656 209 634 C209 612 227 593 249 593 C272 593 290 611 290 634 C290 656 272 674 250 674 L250 674 Z M250 654 C261 654 270 645 270 634 C270 622 261 613 249 613 C238 613 229 623 229 634 C229 645 238 654 250 654 L250 654 Z M249 744 C174 744 125 700 125 634 C125 569 176 522 247 522 C323 522 375 567 375 633 C375 700 325 744 249 744 L249 744 Z M249 724 C314 724 355 689 355 633 C355 579 312 542 247 542 C187 542 145 580 145 634 C145 689 185 724 249 724 L249 724 Z " />
<glyph glyph-name="ogonek" unicode="&#x2db;" horiz-adv-x="500" d="M357 44 L251 -46 L404 -198 L515 -102 L357 44 Z M356 18 L485 -101 L405 -170 L281 -47 L356 18 Z " />
<glyph glyph-name="tilde" unicode="&#x2dc;" horiz-adv-x="500" d="M141 521 C145 527 148 531 152 536 C165 556 174 563 184 563 C188 563 194 561 203 558 L265 533 C277 528 296 525 313 525 C348 525 374 536 405 566 C429 588 431 592 460 643 L349 693 C316 655 316 655 306 655 C300 655 290 659 279 664 L248 681 C236 688 210 693 192 693 C156 693 119 676 87 645 C72 631 70 628 40 585 L141 521 Z M68 590 C107 646 147 673 191 673 C207 673 230 668 238 664 L270 647 C284 639 296 635 306 635 C322 635 331 641 355 669 L432 634 C399 576 358 545 314 545 C299 545 282 548 272 552 L211 576 C199 581 191 583 184 583 C166 583 153 573 135 548 L68 590 Z " />
<glyph glyph-name="hungarumlaut" unicode="&#x2dd;" horiz-adv-x="500" d="M288 690 L205 744 L91 578 L191 509 L241 557 L311 509 L462 655 L325 744 L288 690 Z M255 572 L341 654 L304 678 L330 717 L430 652 L309 535 L255 572 Z M210 717 L310 652 L189 535 L119 583 L210 717 Z " />
<glyph glyph-name="uni2011" unicode="&#x2011;" horiz-adv-x="360" d="M13 142 L346 142 L346 348 L13 348 L13 142 Z M33 162 L33 328 L326 328 L326 162 L33 162 Z " />
<glyph glyph-name="figuredash" unicode="&#x2012;" horiz-adv-x="663" d="M13 142 L649 142 L649 348 L13 348 L13 142 Z M33 162 L33 328 L629 328 L629 162 L33 162 Z " />
<glyph glyph-name="endash" unicode="&#x2013;" horiz-adv-x="663" d="M13 142 L649 142 L649 348 L13 348 L13 142 Z M33 162 L33 328 L629 328 L629 162 L33 162 Z " />
<glyph glyph-name="emdash" unicode="&#x2014;" horiz-adv-x="814" d="M13 142 L800 142 L800 348 L13 348 L13 142 Z M33 162 L33 328 L780 328 L780 162 L33 162 Z " />
<glyph glyph-name="afii00208" unicode="&#x2015;" horiz-adv-x="814" d="M13 142 L800 142 L800 348 L13 348 L13 142 Z M33 162 L33 328 L780 328 L780 162 L33 162 Z " />
<glyph glyph-name="quoteleft" unicode="&#x2018;" horiz-adv-x="373" d="M168 667 L2 320 L258 320 L371 667 L168 667 Z M180 647 L343 647 L243 340 L34 340 L180 647 Z " />
<glyph glyph-name="quoteright" unicode="&#x2019;" horiz-adv-x="373" d="M205 320 L371 667 L114 667 L2 320 L205 320 Z M192 340 L30 340 L129 647 L339 647 L192 340 Z " />
<glyph glyph-name="quotesinglbase" unicode="&#x201a;" horiz-adv-x="363" d="M205 -152 L360 195 L114 195 L2 -152 L205 -152 Z M192 -132 L30 -132 L129 175 L329 175 L192 -132 Z " />
<glyph glyph-name="quotedblleft" unicode="&#x201c;" horiz-adv-x="545" d="M2 320 L429 320 L542 667 L157 667 L2 320 Z M352 647 L514 647 L415 340 L253 340 L352 647 Z M170 647 L333 647 L233 340 L33 340 L170 647 Z " />
<glyph glyph-name="quotedblright" unicode="&#x201d;" horiz-adv-x="542" d="M539 667 L114 667 L2 320 L384 320 L539 667 Z M192 340 L29 340 L129 647 L329 647 L192 340 Z M371 340 L209 340 L349 647 L509 647 L371 340 Z " />
<glyph glyph-name="quotedblbase" unicode="&#x201e;" horiz-adv-x="545" d="M541 195 L116 195 L4 -152 L386 -152 L541 195 Z M194 -132 L31 -132 L131 175 L331 175 L194 -132 Z M373 -132 L211 -132 L351 175 L511 175 L373 -132 Z " />
<glyph glyph-name="dagger" unicode="&#x2020;" horiz-adv-x="568" d="M171 -60 L396 -60 L396 380 L558 380 L558 580 L396 580 L396 726 L171 726 L171 580 L9 580 L9 380 L171 380 L171 -60 Z M191 -40 L191 400 L29 400 L29 560 L191 560 L191 706 L376 706 L376 560 L538 560 L538 400 L376 400 L376 -40 L191 -40 Z " />
<glyph glyph-name="daggerdbl" unicode="&#x2021;" horiz-adv-x="555" d="M165 399 L165 266 L9 266 L9 66 L165 66 L165 -60 L390 -60 L390 66 L545 66 L545 266 L390 266 L390 399 L545 399 L545 599 L390 599 L390 726 L165 726 L165 599 L9 599 L9 399 L165 399 Z M185 419 L29 419 L29 579 L185 579 L185 706 L370 706 L370 579 L525 579 L525 419 L370 419 L370 246 L525 246 L525 86 L370 86 L370 -40 L185 -40 L185 86 L29 86 L29 246 L185 246 L185 419 Z " />
<glyph glyph-name="bullet" unicode="&#x2022;" horiz-adv-x="667" d="M337 477 C258 477 196 416 196 338 C196 262 259 200 335 200 C411 200 473 262 473 339 C473 414 411 477 337 477 L337 477 Z " />
<glyph glyph-name="ellipsis" unicode="&#x2026;" horiz-adv-x="847" d="M288 177 C266 237 214 274 151 274 C73 274 9 209 9 131 C9 52 73 -13 152 -13 C214 -13 266 24 288 85 C310 24 361 -13 422 -13 C485 -13 537 24 559 85 C581 24 632 -13 693 -13 C774 -13 838 51 838 131 C838 210 774 274 693 274 C632 274 581 238 559 177 C538 237 485 274 422 274 C361 274 310 237 288 177 L288 177 Z M152 254 C221 254 276 199 276 131 C276 62 221 7 152 7 C84 7 29 63 29 132 C29 198 85 254 152 254 L152 254 Z M423 254 C492 254 547 199 547 131 C547 62 492 7 423 7 C355 7 300 63 300 132 C300 198 356 254 423 254 L423 254 Z M694 254 C763 254 818 199 818 131 C818 62 763 7 694 7 C626 7 571 63 571 132 C571 198 627 254 694 254 L694 254 Z " />
<glyph glyph-name="perthousand" unicode="&#x2030;" horiz-adv-x="1211" d="M229 537 C205 537 187 516 187 487 C187 458 203 439 227 439 C253 439 270 459 270 489 C270 518 254 537 229 537 L229 537 Z M229 517 C242 517 250 507 250 489 C250 470 242 459 228 459 C214 459 207 469 207 487 C207 504 217 517 229 517 L229 517 Z M986 233 C962 233 944 212 944 184 C944 155 960 136 984 136 C1010 136 1027 156 1027 186 C1027 214 1011 233 986 233 L986 233 Z M986 213 C999 213 1007 203 1007 186 C1007 167 999 156 984 156 C971 156 964 166 964 184 C964 200 974 213 986 213 L986 213 Z M607 233 C582 233 564 212 564 184 C564 155 580 136 605 136 C631 136 648 156 648 186 C648 214 631 233 607 233 L607 233 Z M607 213 C620 213 628 203 628 186 C628 167 619 156 605 156 C591 156 584 166 584 184 C584 201 594 213 607 213 L607 213 Z M390 147 C408 49 489 -9 606 -9 C691 -9 756 23 793 82 C831 24 900 -9 987 -9 C1113 -9 1201 70 1201 183 C1201 296 1114 373 986 373 C896 373 829 343 792 285 C753 343 690 373 607 373 C567 373 532 367 493 352 L638 638 L528 693 L441 521 C422 618 343 676 228 676 C92 676 9 605 9 489 C9 372 96 294 228 294 C268 294 302 301 337 316 L192 29 L302 -26 L390 147 Z M462 335 C414 303 389 255 387 187 L293 1 L219 38 L371 337 C415 371 441 422 443 480 L537 666 L611 629 L462 335 Z M228 656 C346 656 424 588 424 484 C424 382 344 314 225 314 C107 314 29 384 29 489 C29 594 103 656 228 656 L228 656 Z M985 353 C1103 353 1181 285 1181 181 C1181 79 1101 11 982 11 C864 11 786 81 786 186 C786 291 860 353 985 353 L985 353 Z M782 263 C771 237 767 214 767 185 C767 155 772 131 783 104 C751 44 689 11 607 11 C485 11 406 79 406 184 C406 291 480 353 606 353 C689 353 748 323 782 263 L782 263 Z " />
<glyph glyph-name="guilsinglleft" unicode="&#x2039;" horiz-adv-x="277" d="M159 18 L274 99 L175 245 L274 384 L159 465 L3 245 L159 18 Z M164 46 L27 245 L164 437 L246 379 L151 245 L246 104 L164 46 Z " />
<glyph glyph-name="guilsinglright" unicode="&#x203a;" horiz-adv-x="277" d="M117 18 L273 245 L117 465 L2 384 L101 245 L2 99 L117 18 Z M112 46 L30 104 L125 245 L30 379 L112 437 L248 245 L112 46 Z " />
<glyph glyph-name="fraction" unicode="&#x2044;" horiz-adv-x="141" d="M-145 26 L-46 -24 L286 641 L188 691 L-145 26 Z M-118 35 L197 664 L260 632 L-55 3 L-118 35 Z " />
<glyph glyph-name="franc" unicode="&#x20a3;" horiz-adv-x="921" d="M23 0 L287 0 L287 222 L456 222 L456 422 L287 422 L287 453 L480 453 L480 667 L23 667 L23 0 Z M43 20 L43 647 L460 647 L460 473 L267 473 L267 402 L436 402 L436 242 L267 242 L267 20 L43 20 Z M514 0 L764 0 L764 198 C764 235 792 260 832 260 C853 260 853 260 916 223 L916 495 C829 496 800 488 766 454 L766 477 L514 477 L514 0 Z M534 20 L534 457 L746 457 L746 395 C791 463 814 475 896 475 L896 258 C865 276 854 280 832 280 C781 280 744 246 744 198 L744 20 L534 20 Z " />
<glyph glyph-name="peseta" unicode="&#x20a7;" horiz-adv-x="1062" d="M261 364 L304 364 C346 364 373 388 373 424 C373 459 348 480 307 480 L261 480 L261 364 Z M281 384 L281 460 L307 460 C337 460 353 447 353 424 C353 399 335 384 304 384 L281 384 Z M608 454 C588 589 491 667 344 667 L23 667 L23 0 L281 0 L281 191 L477 191 L477 0 L675 0 L675 191 L712 191 C719 176 725 167 736 158 L677 33 C773 -2 806 -9 863 -9 C974 -9 1052 45 1052 122 C1052 163 1037 187 998 210 L1050 318 C1018 332 1018 332 1010 335 C981 345 930 353 889 353 C817 353 760 331 726 289 L726 344 L675 344 L675 454 L608 454 Z M485 211 C561 242 610 323 610 416 C610 418 610 426 609 434 L655 434 L655 324 L706 324 L706 211 L655 211 L655 20 L497 20 L497 211 L485 211 Z M746 132 L767 121 C786 110 824 99 842 99 C860 99 873 108 873 120 C873 130 864 138 852 140 L813 145 C761 152 726 185 726 226 C726 289 793 333 890 333 C941 333 986 324 1023 308 L984 227 C954 245 929 253 906 253 C888 253 877 245 877 233 C877 223 884 218 905 214 L940 208 C1003 196 1032 169 1032 122 C1032 57 962 11 863 11 C813 11 772 20 704 45 L746 132 Z M43 20 L43 647 L344 647 C493 647 591 556 591 418 C591 295 510 211 391 211 L261 211 L261 20 L43 20 Z " />
<glyph glyph-name="Euro" unicode="&#x20ac;" horiz-adv-x="706" d="M7 362 L104 362 C103 350 103 344 103 334 C103 326 103 319 104 305 L33 305 L8 246 L114 246 C157 89 293 -16 453 -16 C533 -16 605 10 675 65 L675 148 C618 80 539 43 451 43 C326 43 210 128 175 246 L561 246 L586 305 L163 305 C162 318 162 323 162 334 C162 344 162 350 163 362 L609 362 L634 421 L175 421 C212 541 325 624 452 624 C539 624 616 588 675 519 L700 579 C627 649 546 683 453 683 C293 683 157 578 114 421 L32 421 L7 362 Z " />
<glyph glyph-name="afii61248" unicode="&#x2105;" horiz-adv-x="536" d="M267 461 C204 461 150 407 150 344 C150 277 202 224 268 224 C333 224 386 277 386 343 C386 408 333 461 267 461 L267 461 Z M267 441 C322 441 366 397 366 343 C366 288 322 244 268 244 C213 244 170 288 170 344 C170 396 214 441 267 441 L267 441 Z " />
<glyph glyph-name="trademark" unicode="&#x2122;" horiz-adv-x="788" d="M319 633 L319 667 L7 667 L7 506 L78 510 L78 272 L249 272 L249 510 L299 507 L263 272 L433 272 L441 360 L467 272 L579 272 L608 366 L617 272 L786 272 L724 667 L555 667 L525 554 L494 667 L324 667 L319 633 Z M98 292 L98 531 L27 527 L27 647 L299 647 L299 527 L229 531 L229 292 L98 292 Z M286 292 L341 647 L479 647 L525 476 L570 647 L707 647 L763 292 L635 292 L618 468 L564 292 L482 292 L431 465 L414 292 L286 292 Z " />
<glyph glyph-name="uni2126" unicode="&#x2126;" horiz-adv-x="669" d="M27 0 L327 0 L327 186 C296 202 296 202 285 211 C260 236 246 282 246 342 C246 427 282 485 335 485 C388 485 424 428 424 342 C424 263 403 215 358 194 C353 192 348 189 343 186 L343 0 L643 0 L643 207 L582 207 C628 254 647 303 647 372 C647 546 509 684 335 684 C161 684 23 546 23 373 C23 303 42 254 88 207 L27 207 L27 0 Z M54 27 L54 180 L172 180 C128 208 123 212 108 225 C70 261 50 311 50 373 C50 531 176 657 335 657 C494 657 620 532 620 372 C620 311 600 261 563 226 C548 213 543 209 498 180 L616 180 L616 27 L370 27 L370 170 C425 196 451 252 451 342 C451 444 404 512 335 512 C266 512 219 443 219 343 C219 252 245 196 300 170 L300 27 L54 27 Z " />
<glyph glyph-name="partialdiff" unicode="&#x2202;" horiz-adv-x="511" d="M249 300 C208 300 176 266 176 224 C176 182 208 148 248 148 C288 148 320 182 320 224 C320 266 288 300 249 300 L249 300 Z M249 273 C273 273 293 251 293 224 C293 197 273 175 248 175 C223 175 203 197 203 224 C203 251 223 273 249 273 L249 273 Z M31 484 C125 481 180 470 233 444 C223 445 213 445 209 445 C92 445 2 354 2 235 C2 94 101 -7 240 -7 C399 -7 495 101 495 281 C495 477 379 606 163 649 C127 656 127 656 58 663 L31 484 Z M80 634 C332 611 468 487 468 281 C468 116 384 20 240 20 C186 20 140 35 105 64 C58 103 29 168 29 235 C29 341 107 419 213 419 C237 419 262 416 278 410 C290 406 290 406 325 379 C294 440 288 447 240 471 C194 493 131 506 62 509 L80 634 Z " />
<glyph glyph-name="emptyset" unicode="&#x2205;" horiz-adv-x="618" d="M439 667 L392 578 C362 588 340 592 311 592 C175 592 67 485 67 349 C67 267 103 200 175 147 L114 25 L162 0 L225 123 C248 112 271 107 304 107 C443 107 552 214 552 350 C552 432 514 501 439 554 L487 642 L439 667 Z M416 502 C465 472 496 412 496 349 C496 247 412 164 309 164 C290 164 275 166 251 172 L416 502 Z M200 198 C149 239 123 290 123 350 C123 452 208 535 312 535 C332 535 345 533 366 527 L200 198 Z " />
<glyph glyph-name="Delta" unicode="&#x2206;" horiz-adv-x="690" d="M147 77 L541 77 L344 580 L147 77 Z M186 104 L344 507 L502 104 L186 104 Z M27 0 L662 0 L394 667 L293 667 L27 0 Z M66 27 L311 640 L376 640 L622 27 L66 27 Z " />
<glyph glyph-name="product" unicode="&#x220f;" horiz-adv-x="700" d="M23 745 L23 541 L78 541 L78 -31 L23 -31 L23 -235 L677 -235 L677 -31 L623 -31 L623 541 L677 541 L677 745 L23 745 Z M304 -31 L304 541 L397 541 L397 -31 L304 -31 Z M50 718 L650 718 L650 568 L596 568 L596 -58 L650 -58 L650 -208 L376 -208 L376 -58 L424 -58 L424 568 L277 568 L277 -58 L323 -58 L323 -208 L50 -208 L50 -58 L105 -58 L105 568 L50 568 L50 718 Z " />
<glyph glyph-name="summation" unicode="&#x2211;" horiz-adv-x="670" d="M617 745 L14 745 L14 584 L226 270 L14 -74 L14 -235 L626 -235 L626 41 L459 41 L452 -72 L221 -72 L430 271 L223 582 L444 582 L456 472 L617 472 L617 745 Z M590 718 L590 499 L480 499 L468 609 L173 609 L398 271 L174 -99 L477 -99 L484 14 L599 14 L599 -208 L41 -208 L41 -82 L258 271 L41 592 L41 718 L590 718 Z " />
<glyph glyph-name="minus" unicode="&#x2212;" horiz-adv-x="522" d="M7 253 L515 253 L515 426 L7 426 L7 253 Z M27 273 L27 406 L495 406 L495 273 L27 273 Z " />
<glyph glyph-name="uni2219" unicode="&#x2219;" horiz-adv-x="306" d="M152 392 C74 392 9 327 9 250 C9 170 73 105 152 105 C232 105 296 169 296 249 C296 328 232 392 152 392 L152 392 Z M152 372 C221 372 276 317 276 249 C276 180 221 125 152 125 C84 125 29 181 29 250 C29 316 85 372 152 372 L152 372 Z " />
<glyph glyph-name="radical" unicode="&#x221a;" horiz-adv-x="667" d="M667 817 L356 817 L245 294 L227 404 L0 404 L0 216 L92 216 L133 0 L378 0 L520 628 L667 628 L667 817 Z M640 790 L640 655 L499 655 L357 27 L155 27 L114 243 L27 243 L27 377 L205 377 L242 149 L378 790 L640 790 Z " />
<glyph glyph-name="infinity" unicode="&#x221e;" horiz-adv-x="669" d="M387 339 C389 336 390 334 391 334 C414 302 435 289 459 289 C489 289 512 311 512 339 C512 367 488 389 459 389 C433 389 414 376 387 339 L387 339 Z M421 339 C434 355 446 362 459 362 C473 362 485 352 485 339 C485 326 474 316 459 316 C446 316 435 323 421 339 L421 339 Z M282 339 C254 377 237 389 210 389 C180 389 157 367 157 339 C157 312 181 289 210 289 C233 289 256 304 276 330 L282 339 Z M249 339 C235 323 223 316 210 316 C196 316 184 327 184 339 C184 352 196 362 210 362 C223 362 234 355 249 339 L249 339 Z M337 230 C383 185 427 165 480 165 C579 165 652 239 652 339 C652 440 579 512 478 512 C424 512 378 492 332 448 C283 494 243 512 190 512 C90 512 17 439 17 339 C17 238 90 165 190 165 C246 165 285 183 337 230 L337 230 Z M338 269 C287 214 245 192 191 192 C105 192 44 253 44 339 C44 424 105 485 190 485 C244 485 276 468 332 410 C381 463 423 485 478 485 C564 485 625 425 625 339 C625 253 564 192 480 192 C425 192 389 212 338 269 L338 269 Z " />
<glyph glyph-name="integral" unicode="&#x222b;" horiz-adv-x="517" d="M11 -222 C30 -225 42 -227 47 -228 C78 -233 100 -235 126 -235 C194 -235 242 -222 283 -191 C330 -157 356 -113 368 -50 C374 -18 374 -18 374 139 L374 470 C374 501 374 507 377 514 C383 527 394 533 412 533 C424 533 424 533 471 519 L507 732 C435 744 423 745 389 745 C329 745 281 733 244 709 C200 681 165 634 154 587 C142 539 142 539 142 376 L142 101 C142 5 142 5 139 -4 C134 -16 121 -23 104 -23 C96 -23 90 -22 75 -18 C71 -16 56 -12 46 -9 L11 -222 Z M42 -200 L68 -43 C85 -48 94 -50 104 -50 C130 -50 151 -38 161 -19 C169 -4 169 -4 169 101 L169 376 L169 478 C169 556 181 603 211 642 C250 694 306 718 389 718 C416 718 436 716 476 710 L450 554 C433 558 424 560 412 560 C385 560 366 550 355 529 C348 517 347 508 347 470 L347 139 C347 19 347 4 346 -9 C343 -46 335 -82 323 -105 C287 -174 222 -208 128 -208 C104 -208 81 -206 60 -203 L48 -201 L42 -200 Z " />
<glyph glyph-name="approxequal" unicode="&#x2248;" horiz-adv-x="520" d="M116 326 C71 302 38 256 7 169 L126 85 C135 96 141 104 142 106 C153 122 163 129 173 129 C183 129 194 126 228 113 C290 89 314 83 340 83 C388 83 429 106 463 151 C480 175 486 187 514 255 L404 333 C452 359 477 395 514 489 L394 574 C389 566 383 559 379 553 C366 536 358 530 346 530 C340 530 333 532 323 535 C221 571 209 575 181 575 C119 575 71 540 34 467 C25 450 24 447 7 403 L116 326 Z M383 324 C366 300 359 295 346 295 C340 295 333 297 323 300 C223 337 208 341 180 341 C165 341 155 339 138 335 C155 358 161 363 173 363 C183 363 193 360 228 347 C289 324 315 317 340 317 C356 317 366 319 383 324 L383 324 Z M39 413 C76 507 119 548 181 548 C199 548 211 545 242 535 L314 510 C327 505 337 503 346 503 C367 503 382 512 400 537 L481 480 C441 382 402 344 340 344 C318 344 292 351 238 372 C200 387 188 390 173 390 C153 390 137 379 120 356 L39 413 Z M39 179 C76 273 119 314 181 314 C199 314 211 311 242 301 C282 286 282 286 314 275 C326 270 337 268 346 268 C368 268 382 277 401 303 L481 246 C441 148 402 110 340 110 C318 110 294 117 238 138 C198 153 188 156 172 156 C153 156 137 145 120 122 L39 179 Z " />
<glyph glyph-name="notequal" unicode="&#x2260;" horiz-adv-x="522" d="M298 499 L7 499 L7 358 L180 358 L150 322 L7 322 L7 180 L31 180 L21 168 L134 73 L224 180 L515 180 L515 322 L342 322 L372 358 L515 358 L515 499 L491 499 L501 511 L388 606 L298 499 Z M308 479 L391 578 L473 509 L448 479 L495 479 L495 378 L363 378 L299 302 L495 302 L495 200 L214 200 L132 101 L49 170 L74 200 L27 200 L27 302 L159 302 L223 378 L27 378 L27 479 L308 479 Z " />
<glyph glyph-name="lessequal" unicode="&#x2264;" horiz-adv-x="514" d="M481 181 L481 403 L348 435 L481 467 L481 688 L34 528 L34 342 L409 207 L34 207 L34 0 L481 0 L481 181 Z M454 650 L454 488 L234 434 L454 382 L454 219 L61 361 L61 509 L454 650 Z M454 180 L454 27 L61 27 L61 180 L454 180 Z " />
<glyph glyph-name="greaterequal" unicode="&#x2265;" horiz-adv-x="514" d="M105 207 L481 342 L481 528 L33 688 L33 467 L166 435 L33 403 L33 181 L33 0 L481 0 L481 207 L105 207 Z M60 219 L60 382 L280 434 L60 488 L60 650 L454 509 L454 361 L60 219 Z M60 27 L60 180 L454 180 L454 27 L60 27 Z " />
<glyph glyph-name="fi" unicode="&#xfb01;" horiz-adv-x="689" d="M66 0 L315 0 L315 272 L385 272 L385 477 L312 477 L312 499 C312 514 324 525 340 525 C346 525 352 523 365 518 C369 516 376 514 385 510 L385 721 C342 729 307 733 270 733 C141 733 66 656 66 524 L66 477 L7 477 L7 272 L66 272 L66 0 Z M86 20 L86 292 L27 292 L27 457 L86 457 L86 524 C86 647 152 713 275 713 C303 713 325 711 365 704 L365 539 C355 544 349 545 340 545 C313 545 292 525 292 499 L292 457 L365 457 L365 292 L295 292 L295 20 L86 20 Z M417 0 L667 0 L667 477 L417 477 L417 0 Z M437 20 L437 457 L647 457 L647 20 L437 20 Z M538 740 C459 740 405 690 405 617 C405 546 461 497 543 497 C579 497 606 504 628 520 C658 542 677 579 677 616 C677 691 622 740 538 740 L538 740 Z M538 720 C610 720 657 679 657 616 C657 556 612 517 543 517 C472 517 425 557 425 617 C425 680 470 720 538 720 L538 720 Z " />
<glyph glyph-name="fl" unicode="&#xfb02;" horiz-adv-x="690" d="M66 0 L315 0 L315 272 L385 272 L385 477 L312 477 L312 499 C312 514 324 525 340 525 C346 525 352 523 365 518 C369 516 376 514 385 510 L385 721 C342 729 307 733 270 733 C141 733 66 656 66 524 L66 477 L7 477 L7 272 L66 272 L66 0 Z M86 20 L86 292 L27 292 L27 457 L86 457 L86 524 C86 647 152 713 275 713 C303 713 325 711 365 704 L365 539 C355 544 349 545 340 545 C313 545 292 525 292 499 L292 457 L365 457 L365 292 L295 292 L295 20 L86 20 Z M418 0 L667 0 L667 726 L418 726 L418 0 Z M438 20 L438 706 L647 706 L647 20 L438 20 Z " />
</font>
</svg>
