<?xml version="1.0" encoding="UTF-8"?>
<svg xmlns="http://www.w3.org/2000/svg" xmlns:xlink="http://www.w3.org/1999/xlink" version="1.2" >
<font id="Baskerville URW Extra Narrow">
<font-face  font-family="Baskerville URW Extra Narrow" units-per-em="1000" ascent="677" descent="-323" font-style="normal" font-weight="400" font-stretch="semi-condensed" cap-height="667" x-height="403" underline-position="-88" underline-thickness="42" />
<missing-glyph  horiz-adv-x="250" d="" />
<glyph glyph-name="NULL" d="" />
<glyph glyph-name="CR" unicode="&#xd;" horiz-adv-x="250" d="" />
<glyph glyph-name="space" unicode="&#x20;" horiz-adv-x="250" d="" />
<glyph glyph-name="exclam" unicode="&#x21;" horiz-adv-x="198" d="M99 190 L126 539 C128 575 129 584 129 599 C129 635 113 661 90 661 C67 661 51 635 51 600 C51 586 52 570 54 539 L80 190 L99 190 Z M90 90 C64 90 42 66 42 38 C42 8 63 -16 90 -16 C116 -16 137 8 137 37 C137 66 116 90 90 90 L90 90 Z " />
<glyph glyph-name="quotedbl" unicode="&#x22;" horiz-adv-x="297" d="M97 399 L116 667 L48 667 L67 399 L97 399 Z M231 399 L250 667 L182 667 L200 399 L231 399 Z " />
<glyph glyph-name="numbersign" unicode="&#x23;" horiz-adv-x="532" d="M355 229 L458 229 L463 264 L363 264 L387 416 L489 416 L495 451 L394 451 L432 667 L398 667 L360 451 L221 451 L259 667 L225 667 L188 451 L80 451 L75 416 L180 416 L156 264 L48 264 L43 229 L149 229 L109 0 L143 0 L183 229 L321 229 L282 0 L316 0 L355 229 Z M329 264 L190 264 L214 416 L353 416 L329 264 Z " />
<glyph glyph-name="dollar" unicode="&#x24;" horiz-adv-x="453" d="M209 -103 L232 -103 L232 -15 C340 -3 406 69 406 174 C406 223 391 264 364 294 C337 323 315 337 250 366 C245 368 238 371 232 374 L232 638 C291 632 329 599 335 549 C340 517 340 517 345 508 C350 500 360 494 368 494 C382 494 393 509 393 528 C393 563 363 606 323 630 C296 646 267 655 232 657 L232 685 L210 685 L210 657 C115 651 52 587 52 496 C52 438 76 389 120 357 C138 344 146 339 210 308 L209 6 C151 8 114 36 102 88 C98 111 98 111 94 117 C89 126 80 132 72 132 C57 132 46 117 46 98 C46 70 74 33 112 10 C140 -7 171 -15 209 -16 L209 -103 Z M232 298 L239 294 C298 264 303 261 315 251 C342 227 356 193 356 152 C356 98 335 58 292 29 C270 14 254 8 232 6 L232 298 Z M210 384 C175 402 155 413 149 417 C114 440 96 472 96 514 C96 586 138 631 210 637 L210 384 Z " />
<glyph glyph-name="percent" unicode="&#x25;" horiz-adv-x="598" d="M146 680 C112 680 86 668 66 643 C40 611 24 558 24 505 C24 400 69 336 142 336 C216 336 263 403 263 508 C263 613 217 680 146 680 L146 680 Z M143 660 C181 660 195 620 195 510 C195 400 179 350 144 350 C129 350 117 358 108 375 C96 395 92 432 92 514 C92 616 107 660 143 660 L143 660 Z M159 0 L467 644 L439 644 L131 0 L159 0 Z M456 331 C422 331 396 319 376 295 C350 263 334 211 334 158 C334 54 379 -10 452 -10 C527 -10 574 57 574 162 C574 265 528 331 456 331 L456 331 Z M454 314 C492 314 506 274 506 165 C506 57 490 8 455 8 C440 8 428 16 418 32 C406 52 402 87 402 169 C402 270 418 314 454 314 L454 314 Z " />
<glyph glyph-name="ampersand" unicode="&#x26;" horiz-adv-x="632" d="M386 403 L386 380 C432 375 455 352 455 315 C455 279 433 218 401 168 C335 272 325 288 252 397 C342 448 380 492 380 545 C380 605 324 653 255 653 C186 653 130 594 130 520 C130 479 149 428 183 376 C67 291 36 247 36 167 C36 65 110 -16 204 -16 C262 -16 316 16 369 80 C416 15 464 -16 521 -16 C575 -16 617 19 631 74 L611 74 C596 46 573 30 547 30 C500 30 472 54 414 146 C426 162 441 193 453 225 C487 323 518 362 576 380 L576 403 L386 403 Z M196 356 C244 284 288 214 356 100 C324 57 284 33 245 33 C176 33 106 118 106 201 C106 257 138 312 196 356 L196 356 Z M238 416 C193 479 178 512 178 547 C178 595 211 629 256 629 C304 629 336 593 336 540 C336 494 307 456 238 416 L238 416 Z " />
<glyph glyph-name="quotesingle" unicode="&#x27;" horiz-adv-x="171" d="M101 399 L120 667 L50 667 L69 399 L101 399 Z " />
<glyph glyph-name="parenleft" unicode="&#x28;" horiz-adv-x="217" d="M221 -241 C131 -135 74 44 74 224 C74 397 127 564 217 674 L186 674 C93 546 43 389 43 225 C43 54 96 -113 191 -241 L221 -241 Z " />
<glyph glyph-name="parenright" unicode="&#x29;" horiz-adv-x="217" d="M26 -241 C120 -113 173 54 173 225 C173 389 123 546 30 674 L0 674 C90 561 142 397 142 224 C142 44 84 -138 -5 -241 L26 -241 Z " />
<glyph glyph-name="asterisk" unicode="&#x2a;" horiz-adv-x="378" d="M178 479 C176 481 171 486 163 495 C158 501 152 507 146 513 C138 522 130 531 129 532 C94 577 83 586 62 586 C42 586 26 569 26 549 C26 519 47 502 95 492 C128 485 148 478 177 462 C164 452 134 442 97 436 C48 427 25 408 25 377 C25 355 40 340 62 340 C82 340 95 349 116 378 C144 417 159 432 183 450 C180 413 175 392 165 358 C153 321 153 320 153 307 C153 278 169 256 190 256 C210 256 226 278 226 307 C226 317 224 326 220 339 C203 386 200 402 196 450 C212 437 233 415 255 387 C282 354 302 340 322 340 C341 340 356 355 356 375 C356 406 331 427 282 437 C240 445 224 450 203 462 C227 475 257 486 287 492 C338 503 356 518 356 550 C356 571 342 587 322 587 C301 587 285 575 255 536 C231 505 220 493 196 474 C198 515 204 541 216 577 C225 610 225 610 225 620 C225 650 209 671 186 671 C166 671 151 650 151 620 C151 608 153 600 159 577 C173 532 178 513 183 474 L178 479 Z " />
<glyph glyph-name="plus" unicode="&#x2b;" horiz-adv-x="450" d="M21 362 L21 320 L203 320 L203 127 L247 127 L247 320 L429 320 L429 362 L247 362 L247 554 L203 554 L203 362 L21 362 Z " />
<glyph glyph-name="comma" unicode="&#x2c;" horiz-adv-x="226" d="M49 -192 C126 -169 176 -101 176 -19 C176 43 145 90 105 90 C78 90 59 68 59 38 C59 10 77 -10 104 -10 C109 -10 110 -10 119 -6 C122 -5 125 -4 127 -4 C138 -4 145 -16 145 -37 C145 -94 106 -147 49 -167 L49 -192 Z " />
<glyph glyph-name="hyphen" unicode="&#x2d;" horiz-adv-x="283" d="M32 233 L32 186 L249 186 L249 233 L32 233 Z " />
<glyph glyph-name="period" unicode="&#x2e;" horiz-adv-x="227" d="M113 90 C87 90 65 66 65 38 C65 8 86 -16 113 -16 C139 -16 160 8 160 37 C160 66 139 90 113 90 L113 90 Z " />
<glyph glyph-name="slash" unicode="&#x2f;" horiz-adv-x="236" d="M19 -225 L192 656 L164 656 L-10 -225 L19 -225 Z " />
<glyph glyph-name="zero" unicode="0" horiz-adv-x="453" d="M228 661 C114 661 38 527 38 327 C38 117 112 -16 228 -16 C343 -16 418 117 418 323 C418 528 343 661 228 661 L228 661 Z M228 637 C274 637 309 601 321 541 C332 488 336 426 336 323 C336 219 332 155 321 104 C308 44 274 8 228 8 C182 8 148 44 135 104 C124 155 120 219 120 326 C120 425 125 491 135 541 C148 601 182 637 228 637 L228 637 Z " />
<glyph glyph-name="one" unicode="1" horiz-adv-x="453" d="M244 661 C224 641 175 626 130 627 L130 604 L148 604 C199 602 201 597 200 489 L200 138 C201 29 199 24 148 23 L135 23 L135 0 L333 0 L333 23 L317 23 C267 24 264 30 266 138 L266 661 L244 661 Z " />
<glyph glyph-name="two" unicode="2" horiz-adv-x="453" d="M52 0 L313 0 C347 0 350 -2 350 -19 C350 -23 348 -34 347 -43 L345 -51 L366 -51 L391 59 L110 59 C137 84 201 152 251 209 C369 341 398 395 398 478 C398 586 327 661 225 661 C131 661 57 589 57 498 C57 448 84 391 108 391 C121 391 148 418 148 431 C148 436 147 437 136 446 C115 464 103 491 103 520 C103 585 146 635 203 635 C273 635 316 575 316 475 C316 395 289 326 223 232 C166 152 101 76 52 30 L52 0 Z " />
<glyph glyph-name="three" unicode="3" horiz-adv-x="453" d="M233 358 C240 364 240 364 252 373 C305 413 305 413 314 421 C359 462 380 499 380 540 C380 611 319 661 234 661 C144 661 76 599 76 518 C76 481 95 444 114 444 C126 444 150 458 150 465 C150 467 149 469 147 472 C128 497 124 509 124 536 C124 593 165 638 218 638 C268 638 298 597 298 532 C298 491 287 454 266 427 C250 406 232 389 189 355 C151 324 146 319 146 309 C146 300 152 293 158 293 C163 293 166 295 171 300 C199 332 212 341 235 341 C285 341 318 283 318 193 C318 73 274 6 197 6 C158 6 132 28 121 69 C112 103 106 111 88 111 C72 111 60 96 60 77 C60 29 129 -16 204 -16 C319 -16 400 69 400 189 C400 292 344 362 261 362 C250 362 245 361 233 358 L233 358 Z " />
<glyph glyph-name="four" unicode="4" horiz-adv-x="453" d="M244 221 L244 138 C245 29 243 24 193 23 L178 23 L178 0 L372 0 L372 23 L365 23 C315 24 313 30 314 138 L314 221 L425 221 L435 298 L415 298 L412 287 C400 251 399 250 352 251 L314 251 L314 661 L283 661 L30 251 L30 221 L244 221 Z M244 251 L55 251 L244 564 L244 251 Z " />
<glyph glyph-name="five" unicode="5" horiz-adv-x="453" d="M119 338 C141 385 173 410 211 410 C233 410 253 400 271 381 C300 351 313 300 313 222 C313 147 302 95 280 61 C254 24 222 5 183 5 C141 5 120 22 106 66 C94 107 87 116 68 116 C52 116 40 102 40 85 C40 66 53 43 74 24 C103 -3 139 -16 186 -16 C312 -16 395 79 395 223 C395 345 323 439 228 439 C184 439 152 421 119 375 L126 579 L281 579 C310 577 314 582 339 644 L109 644 L96 338 L119 338 Z " />
<glyph glyph-name="six" unicode="6" horiz-adv-x="453" d="M120 334 C120 421 126 487 140 532 C160 598 204 636 259 636 C295 636 315 623 331 590 C343 564 351 557 368 557 C383 557 393 568 393 585 C393 625 335 661 270 661 C134 661 37 508 37 293 C37 105 115 -16 237 -16 C339 -16 417 76 417 196 C417 312 339 407 242 407 C196 407 156 383 120 334 L120 334 Z M232 381 C259 381 285 367 304 343 C326 315 335 276 335 208 C335 136 327 86 310 56 C292 24 264 7 233 7 C167 7 126 85 126 213 C126 317 166 381 232 381 L232 381 Z " />
<glyph glyph-name="seven" unicode="7" horiz-adv-x="453" d="M68 525 L88 525 C102 573 110 580 145 579 L164 579 L353 579 L175 119 C174 115 169 104 162 86 C157 74 152 63 150 59 C142 38 139 25 139 14 C139 -3 150 -16 165 -16 C191 -16 204 8 233 106 L392 644 L163 644 C125 645 123 645 121 660 L105 660 L68 525 Z " />
<glyph glyph-name="eight" unicode="8" horiz-adv-x="453" d="M265 336 C348 357 394 415 394 498 C394 591 321 661 225 661 C129 661 59 592 59 498 C59 420 107 357 184 336 C94 316 40 251 40 162 C40 60 119 -16 225 -16 C337 -16 413 57 413 164 C413 255 353 325 265 336 L265 336 Z M223 640 C283 640 315 590 315 494 C315 397 284 347 222 347 C165 347 136 399 136 501 C136 591 167 640 223 640 L223 640 Z M222 323 C252 323 281 311 299 291 C320 268 331 225 331 162 C331 112 324 74 310 50 C294 23 261 6 224 6 C192 6 164 21 146 47 C129 72 122 105 122 160 C122 268 156 323 222 323 L222 323 Z " />
<glyph glyph-name="nine" unicode="9" horiz-adv-x="453" d="M336 311 C336 220 330 160 316 113 C297 48 252 9 197 9 C161 9 141 22 125 55 C114 80 105 88 88 88 C73 88 63 77 63 60 C63 20 121 -16 186 -16 C319 -16 413 136 413 352 C413 540 337 661 219 661 C117 661 39 569 39 449 C39 333 117 238 214 238 C260 238 300 262 336 311 L336 311 Z M224 638 C290 638 331 560 331 432 C331 328 290 264 224 264 C197 264 171 278 152 302 C130 330 121 369 121 437 C121 510 129 558 147 589 C164 620 192 638 224 638 L224 638 Z " />
<glyph glyph-name="colon" unicode="&#x3a;" horiz-adv-x="227" d="M115 90 C89 90 67 66 67 38 C67 8 88 -16 115 -16 C141 -16 162 8 162 37 C162 66 141 90 115 90 L115 90 Z M115 431 C89 431 67 407 67 379 C67 349 88 325 115 325 C141 325 162 349 162 378 C162 407 141 431 115 431 L115 431 Z " />
<glyph glyph-name="semicolon" unicode="&#x3b;" horiz-adv-x="226" d="M49 -192 C126 -169 176 -101 176 -19 C176 43 145 90 105 90 C78 90 59 68 59 38 C59 10 77 -10 104 -10 C109 -10 110 -10 119 -6 C122 -5 125 -4 127 -4 C138 -4 145 -16 145 -37 C145 -94 106 -147 49 -167 L49 -192 Z M113 431 C87 431 65 407 65 379 C65 349 86 325 113 325 C139 325 160 349 160 378 C160 407 139 431 113 431 L113 431 Z " />
<glyph glyph-name="less" unicode="&#x3c;" horiz-adv-x="450" d="M411 612 L39 346 L39 340 L411 63 L411 162 L129 371 L411 575 L411 612 Z " />
<glyph glyph-name="equal" unicode="&#x3d;" horiz-adv-x="450" d="M21 432 L21 391 L430 391 L430 432 L21 432 Z M21 291 L21 250 L430 250 L430 291 L21 291 Z " />
<glyph glyph-name="greater" unicode="&#x3e;" horiz-adv-x="450" d="M39 63 L411 330 L411 336 L39 612 L39 514 L321 305 L39 101 L39 63 Z " />
<glyph glyph-name="question" unicode="&#x3f;" horiz-adv-x="359" d="M120 90 C94 90 73 66 73 38 C73 8 94 -16 120 -16 C146 -16 167 8 167 37 C167 66 146 90 120 90 L120 90 Z M130 187 L130 354 C148 336 169 327 195 327 C263 327 313 392 313 479 C313 520 301 561 279 596 C253 638 211 661 159 661 C97 661 42 628 42 591 C42 576 50 566 62 566 C74 566 83 574 90 591 C103 625 121 639 150 639 C204 639 237 588 237 504 C237 408 215 356 174 356 C156 356 142 367 130 393 L108 393 L108 187 L130 187 Z " />
<glyph glyph-name="at" unicode="&#x40;" horiz-adv-x="696" d="M536 106 C452 37 408 17 341 17 C283 17 224 41 180 82 C124 134 87 221 87 300 C87 377 124 489 169 545 C223 613 306 653 394 653 C528 653 619 556 619 413 C619 296 549 169 485 169 C464 169 454 186 454 218 C454 230 458 279 460 286 L510 520 C493 515 484 514 466 513 L459 469 C437 507 413 524 379 524 C296 524 206 388 206 262 C206 186 238 136 287 136 C331 136 372 170 412 238 C411 232 411 228 411 225 C411 173 434 138 469 138 C563 138 652 275 652 419 C652 578 547 684 390 684 C317 684 247 662 195 622 C102 552 44 432 44 313 C44 130 171 -15 330 -15 C412 -15 471 13 559 95 L536 106 Z M431 368 C412 291 409 281 392 247 C364 192 335 165 304 165 C274 165 255 196 255 243 C255 294 272 358 299 414 C327 471 357 498 391 498 C422 498 443 469 443 427 C443 423 443 421 442 418 L431 368 Z " />
<glyph glyph-name="A" unicode="A" horiz-adv-x="595" d="M379 245 L425 122 C445 70 445 70 445 58 C445 31 429 23 379 23 L371 23 L371 0 L607 0 L607 23 L602 23 C552 33 547 40 508 146 L307 677 L290 677 L115 213 L94 156 C60 57 44 36 -4 24 L-12 23 L-12 0 L166 0 L166 23 L159 23 C125 23 101 48 101 83 C101 107 107 128 135 203 L151 245 L379 245 Z M371 268 L159 268 L265 552 L371 268 Z " />
<glyph glyph-name="B" unicode="B" horiz-adv-x="565" d="M34 667 L34 644 L44 644 C116 646 121 636 120 498 L120 173 C121 36 115 23 49 23 L27 23 L27 0 L265 0 C363 0 407 8 445 31 C493 61 523 118 523 182 C523 285 452 348 323 359 C434 377 491 430 491 515 C491 621 408 674 242 674 C217 674 217 674 127 670 L34 667 Z M216 344 C231 345 237 345 247 345 C370 345 417 300 417 184 C417 78 372 23 284 23 C246 23 228 34 221 61 C217 79 216 112 216 196 L216 344 Z M216 368 L216 648 C229 650 236 650 248 650 C290 650 317 645 335 635 C371 615 387 576 387 509 C387 405 346 368 233 368 L216 368 Z " />
<glyph glyph-name="C" unicode="C" horiz-adv-x="653" d="M568 250 C559 166 522 87 477 55 C442 30 400 16 361 16 C236 16 155 137 155 325 C155 531 230 654 357 654 C424 654 489 617 523 560 C544 524 559 476 568 414 L587 414 L582 667 L562 667 C560 639 551 606 539 581 C494 641 416 679 336 679 C246 679 165 639 116 571 C69 504 42 415 42 321 C42 124 162 -12 337 -12 C419 -12 486 21 539 87 C552 70 564 41 568 17 L587 17 L587 250 L568 250 Z " />
<glyph glyph-name="D" unicode="D" horiz-adv-x="693" d="M30 639 L46 639 C118 641 123 631 122 495 L122 173 C123 36 117 23 50 23 L27 23 L27 0 L296 0 C353 0 362 0 374 1 C416 4 457 14 492 30 C595 76 651 182 651 328 C651 460 602 564 513 623 C459 658 389 674 290 674 C258 674 222 673 153 669 C94 665 67 664 30 662 L30 639 Z M218 648 C244 649 264 650 289 650 C366 650 408 637 451 600 C510 547 544 447 544 320 C544 212 518 128 470 78 C432 37 389 23 308 23 C256 23 239 29 229 48 C219 69 218 81 218 202 L218 648 Z " />
<glyph glyph-name="E" unicode="E" horiz-adv-x="564" d="M516 207 C484 72 433 19 337 23 L293 23 C212 22 208 30 208 183 L208 340 L272 340 C343 342 356 327 358 244 L358 235 L378 235 L378 464 L358 464 L358 456 C359 379 344 364 270 364 L208 364 L208 644 L289 644 C405 648 437 622 461 500 L482 500 L468 667 L39 667 L39 644 L46 644 C107 644 113 631 112 500 L112 173 C113 37 107 24 39 23 L27 23 L27 0 L524 0 L536 207 L516 207 Z " />
<glyph glyph-name="F" unicode="F" horiz-adv-x="504" d="M492 667 L29 667 L29 644 L39 644 C112 646 117 636 116 501 L116 174 C117 36 111 23 44 23 L26 23 L26 0 L305 0 L305 23 L285 23 C217 23 211 36 212 174 L212 340 L266 340 C332 343 352 320 354 239 L354 229 L376 229 L376 464 L354 464 L354 458 C353 382 334 360 266 362 L212 362 L212 644 L324 644 C420 651 459 613 477 501 L497 501 L492 667 Z " />
<glyph glyph-name="G" unicode="G" horiz-adv-x="693" d="M414 285 L414 261 L428 261 C489 264 502 249 503 178 L503 152 C503 104 490 71 460 47 C433 25 397 12 359 12 C306 12 249 39 217 80 C175 134 154 218 154 337 C154 446 171 523 204 572 C241 625 298 656 360 656 C467 656 546 569 563 432 L584 432 L584 655 L563 655 C560 629 553 601 544 581 C491 648 426 680 345 680 C260 680 184 646 134 586 C76 517 42 418 42 321 C42 129 169 -12 342 -12 C391 -12 424 -5 481 20 C518 35 548 43 570 43 C577 43 581 43 589 41 L589 112 C588 248 594 261 665 261 L672 261 L672 285 L414 285 Z " />
<glyph glyph-name="H" unicode="H" horiz-adv-x="722" d="M514 334 L514 173 C515 36 509 23 442 23 L422 23 L422 0 L695 0 L695 23 L682 23 C615 23 609 36 610 173 L610 500 C609 636 614 646 687 644 L695 644 L695 667 L422 667 L422 644 L437 644 C510 646 515 636 514 500 L514 368 L210 368 L210 500 C209 636 214 646 286 644 L297 644 L297 667 L27 667 L27 644 L37 644 C110 646 115 636 114 500 L114 173 C115 36 109 23 42 23 L27 23 L27 0 L297 0 L297 23 L282 23 C215 23 209 36 210 173 L210 334 L514 334 Z " />
<glyph glyph-name="I" unicode="I" horiz-adv-x="328" d="M27 644 L39 644 C112 646 117 636 116 501 L116 173 C117 36 111 23 44 23 L27 23 L27 0 L301 0 L301 23 L285 23 C217 23 211 36 212 173 L212 501 C211 636 216 646 289 644 L301 644 L301 667 L27 667 L27 644 Z " />
<glyph glyph-name="J" unicode="J" horiz-adv-x="332" d="M32 667 L32 644 L45 644 C118 646 123 636 122 501 L122 65 C122 -54 120 -80 111 -113 C93 -178 52 -215 -2 -215 C-36 -215 -56 -202 -56 -179 L-56 -173 C-55 -151 -55 -148 -55 -142 C-55 -110 -73 -89 -101 -89 C-126 -89 -146 -113 -146 -143 C-146 -199 -88 -238 -3 -238 C98 -238 174 -189 203 -105 C218 -63 220 -39 220 65 L220 501 C219 636 224 646 297 644 L311 644 L311 667 L32 667 Z " />
<glyph glyph-name="K" unicode="K" horiz-adv-x="673" d="M212 327 L212 501 C211 636 216 646 288 644 L299 644 L299 667 L34 667 L34 644 L39 644 C112 646 117 636 116 501 L116 173 C117 36 111 23 44 23 L26 23 L26 0 L295 0 L295 23 L284 23 C217 23 211 36 212 173 L212 295 L252 337 L420 147 C468 93 483 71 483 55 C483 31 464 23 408 23 L397 23 L397 0 L708 0 L708 23 L701 23 C641 30 639 32 537 146 L312 399 L421 511 C518 614 554 639 611 644 L616 644 L616 667 L390 667 L390 644 L395 644 C434 643 454 629 454 602 C454 581 444 566 390 511 L212 327 Z " />
<glyph glyph-name="L" unicode="L" horiz-adv-x="553" d="M541 197 L520 197 C485 57 445 18 343 23 L298 23 C215 24 210 32 212 152 L212 501 C211 636 216 646 289 644 L315 644 L315 667 L27 667 L27 644 L39 644 C112 646 117 636 116 501 L116 174 C117 36 111 24 44 23 L27 23 L27 0 L536 0 L541 197 Z " />
<glyph glyph-name="M" unicode="M" horiz-adv-x="851" d="M421 115 L201 667 L18 667 L18 644 L34 644 C110 646 115 636 114 501 L114 211 C118 72 100 35 24 23 L18 23 L18 0 L232 0 L232 23 L228 23 C150 35 133 70 137 208 L137 598 L375 0 L396 0 L629 598 L629 173 C630 36 624 23 556 23 L536 23 L536 0 L823 0 L823 23 L798 23 C730 23 724 36 725 173 L725 501 C724 636 729 646 802 644 L823 644 L823 667 L635 667 L421 115 Z " />
<glyph glyph-name="N" unicode="N" horiz-adv-x="688" d="M560 -15 L581 -15 L581 537 C578 609 598 635 666 644 L674 644 L674 667 L456 667 L456 644 L467 644 C539 638 559 615 557 544 L557 145 L203 667 L25 667 L25 644 L30 644 C106 646 112 636 113 501 L113 147 C113 87 112 77 106 64 C97 43 64 26 28 23 L18 23 L18 0 L242 0 L242 23 L235 23 C166 26 136 52 138 108 L137 147 L137 610 L560 -15 Z " />
<glyph glyph-name="O" unicode="O" horiz-adv-x="737" d="M365 679 C279 679 199 647 138 589 C77 531 42 440 42 342 C42 129 172 -12 369 -12 C563 -12 695 128 695 335 C695 437 660 530 600 589 C542 645 454 679 365 679 L365 679 Z M368 654 C424 654 475 632 512 591 C557 541 582 449 582 334 C582 127 507 13 371 13 C306 13 255 36 217 81 C178 129 155 223 155 337 C155 433 177 527 210 575 C245 625 302 654 368 654 L368 654 Z " />
<glyph glyph-name="P" unicode="P" horiz-adv-x="519" d="M210 314 L273 314 C355 314 396 322 428 343 C474 373 500 428 500 494 C500 558 477 604 427 637 C387 664 336 674 240 674 C197 674 191 674 98 670 L27 667 L27 644 L37 644 C110 646 115 636 114 501 L114 173 C115 36 109 23 42 23 L27 23 L27 0 L301 0 L301 23 L282 23 C215 23 209 36 210 173 L210 314 Z M210 338 L210 648 C223 649 232 650 250 650 C303 650 331 642 354 620 C380 595 396 546 396 490 C396 435 380 390 351 365 C327 344 305 338 251 338 L210 338 Z " />
<glyph glyph-name="Q" unicode="Q" horiz-adv-x="735" d="M332 -62 C329 -64 320 -69 310 -75 L285 -90 L262 -103 C223 -125 220 -128 220 -142 C220 -152 226 -158 236 -158 C244 -158 251 -153 273 -133 C303 -104 322 -96 356 -96 C406 -96 455 -117 532 -171 C615 -230 651 -245 710 -245 C800 -245 860 -189 873 -93 L854 -93 C843 -138 813 -159 759 -159 C725 -159 673 -148 629 -131 C507 -85 456 -73 379 -73 C371 -73 365 -73 353 -74 L486 7 C516 18 528 24 547 35 C640 92 695 203 695 334 C695 437 661 529 600 589 C543 645 454 679 365 679 C175 679 42 538 42 337 C42 129 174 -12 369 -12 C387 -12 397 -11 414 -10 L332 -62 Z M368 654 C424 654 475 632 512 591 C557 541 582 449 582 334 C582 127 507 13 371 13 C306 13 255 36 217 81 C178 129 155 223 155 337 C155 433 177 527 210 575 C245 625 302 654 368 654 L368 654 Z " />
<glyph glyph-name="R" unicode="R" horiz-adv-x="627" d="M663 0 L663 23 L658 23 C596 23 550 61 479 167 C416 264 374 316 342 335 C449 349 513 413 513 504 C513 559 489 603 441 635 C399 664 339 677 251 677 C228 677 154 674 113 672 L31 667 L31 644 L41 644 C114 646 119 636 118 501 L118 173 C119 36 113 23 46 23 L27 23 L27 0 L314 0 L314 23 L287 23 C219 23 212 36 214 173 L214 322 L237 322 C271 325 287 307 372 175 C424 89 474 21 501 0 L663 0 Z M214 344 L214 650 C229 651 238 652 250 652 C362 652 405 609 405 497 C405 393 362 347 261 345 L223 345 L214 344 Z " />
<glyph glyph-name="S" unicode="S" horiz-adv-x="491" d="M52 7 L74 7 C79 35 86 56 96 72 C139 17 195 -12 261 -12 C373 -12 449 66 449 181 C449 235 432 284 399 318 C376 342 353 357 262 403 C154 458 122 492 122 553 C122 614 163 656 222 656 C297 656 355 595 378 492 L397 492 L397 667 L378 667 C376 646 368 625 355 608 C311 660 273 679 216 679 C124 679 57 609 57 513 C57 468 73 422 99 389 C121 362 158 337 219 308 C296 270 311 261 333 241 C362 215 378 180 378 142 C378 67 323 12 249 12 C157 12 98 83 74 221 L52 221 L52 7 Z " />
<glyph glyph-name="T" unicode="T" horiz-adv-x="618" d="M35 506 C56 628 78 649 176 644 L261 644 L261 173 C262 36 256 23 188 23 L158 23 L158 0 L458 0 L458 23 L430 23 C362 23 356 36 357 173 L357 644 L449 644 C539 649 563 624 584 506 L603 506 L600 667 L18 667 L15 506 L35 506 Z " />
<glyph glyph-name="U" unicode="U" horiz-adv-x="697" d="M478 667 L478 644 L483 644 C554 637 570 612 568 513 L568 286 C568 178 565 156 547 119 C517 59 450 22 371 22 C306 22 250 52 226 100 C207 139 204 162 204 291 L204 501 C202 636 208 646 281 644 L292 644 L292 667 L18 667 L18 644 L31 644 C104 646 109 636 108 501 L108 293 L108 202 C111 149 119 118 138 86 C176 24 252 -12 347 -12 C447 -12 526 27 564 96 C588 139 592 163 592 282 L592 504 C588 604 604 632 670 644 L679 644 L679 667 L478 667 Z " />
<glyph glyph-name="V" unicode="V" horiz-adv-x="631" d="M339 -16 L517 455 L537 506 C574 612 592 635 637 644 L643 644 L643 667 L460 667 L460 644 L468 644 C509 643 532 622 532 586 C532 566 523 533 497 465 L358 97 L186 540 C165 593 165 593 165 607 C165 635 183 644 241 644 L246 644 L246 667 L-12 667 L-12 644 L-3 644 C46 641 65 624 86 564 C94 541 103 517 104 515 L311 -16 L339 -16 Z " />
<glyph glyph-name="W" unicode="W" horiz-adv-x="844" d="M619 -16 L751 486 C784 613 800 640 846 644 L850 644 L850 667 L686 667 L686 644 L690 644 C729 644 749 622 749 580 C749 556 748 552 730 486 L639 132 L462 667 L438 667 L281 132 L174 520 C156 582 155 588 155 603 C155 630 169 640 213 644 L219 644 L219 667 L-6 667 L-6 644 L1 644 C48 642 60 623 91 503 L236 -16 L257 -16 L417 534 L600 -16 L619 -16 Z " />
<glyph glyph-name="X" unicode="X" horiz-adv-x="698" d="M376 370 L470 503 C545 607 591 645 644 645 L648 645 L654 645 L654 667 L428 667 L428 645 L436 645 C485 645 506 633 506 607 C506 591 503 586 461 527 L361 388 L251 537 C211 589 207 597 207 614 C207 637 220 645 257 645 L266 645 L266 667 L10 667 L10 645 L15 645 C57 642 76 628 121 564 C129 553 139 541 149 527 L307 315 L207 181 C127 64 88 32 16 23 L10 23 L10 0 L242 0 L242 23 L238 23 C195 24 173 41 173 73 C173 94 173 94 227 171 L321 298 L428 151 C473 90 479 80 479 62 C479 34 457 23 403 23 L398 23 L398 0 L695 0 L695 23 L689 23 C636 25 624 35 531 160 L376 370 Z " />
<glyph glyph-name="Y" unicode="Y" horiz-adv-x="590" d="M333 292 L185 555 C168 587 163 598 163 610 C163 633 183 644 226 644 L231 644 L231 667 L-12 667 L-12 644 L-6 644 C39 641 46 634 102 529 L247 256 L247 173 C248 36 242 23 175 23 L166 23 L166 0 L422 0 L422 23 L414 23 C347 23 341 36 342 173 L342 262 L472 511 C519 603 545 632 595 643 L601 644 L601 667 L405 667 L405 644 L410 644 C451 644 476 623 476 589 C476 569 473 560 447 512 L333 292 Z " />
<glyph glyph-name="Z" unicode="Z" horiz-adv-x="570" d="M28 0 L513 0 L533 173 L513 173 C468 39 445 21 317 23 L134 23 L517 644 L517 667 L71 667 L52 513 L71 513 C79 549 101 595 123 619 C147 643 153 645 229 644 L415 644 L28 18 L28 0 Z " />
<glyph glyph-name="bracketleft" unicode="&#x5b;" horiz-adv-x="312" d="M329 -235 L329 -212 L230 -212 C185 -212 179 -201 181 -117 L181 549 C179 633 185 644 230 644 L329 644 L329 667 L118 667 L118 -235 L329 -235 Z " />
<glyph glyph-name="backslash" unicode="&#x5c;" horiz-adv-x="450" d="M383 -97 L104 723 L68 723 L347 -97 L383 -97 Z " />
<glyph glyph-name="bracketright" unicode="&#x5d;" horiz-adv-x="311" d="M-18 -235 L193 -235 L193 667 L-18 667 L-18 644 L81 644 C126 644 132 633 130 549 L130 -117 C132 -201 126 -212 81 -212 L-18 -212 L-18 -235 Z " />
<glyph glyph-name="asciicircum" unicode="&#x5e;" horiz-adv-x="450" d="M472 286 L233 700 L227 700 L-22 286 L67 286 L255 599 L439 286 L472 286 Z " />
<glyph glyph-name="underscore" unicode="&#x5f;" horiz-adv-x="496" d="M21 -88 L21 -130 L475 -130 L475 -88 L21 -88 Z " />
<glyph glyph-name="grave" unicode="&#x60;" horiz-adv-x="471" d="M293 493 L187 657 L87 657 L277 493 L293 493 Z " />
<glyph glyph-name="a" unicode="a" horiz-adv-x="425" d="M400 74 C395 43 382 26 363 26 C352 26 343 33 339 47 C335 58 335 58 335 115 L335 278 C335 327 333 340 322 360 C300 399 259 419 197 419 C147 419 108 407 80 383 C61 365 49 345 49 327 C49 310 60 298 76 298 C95 298 108 314 112 343 C116 364 117 368 123 376 C134 389 159 398 188 398 C224 398 251 383 264 355 C270 341 271 330 271 289 L271 269 L202 238 C84 184 35 136 35 76 C35 26 73 -10 125 -10 C165 -10 208 11 271 60 C279 12 301 -10 342 -10 C386 -10 414 21 416 74 L400 74 Z M271 246 L271 87 C230 48 193 26 167 26 C137 26 117 54 117 95 C117 146 156 194 222 224 L271 246 Z " />
<glyph glyph-name="b" unicode="b" horiz-adv-x="473" d="M85 -16 C94 4 122 44 137 58 C165 7 203 -16 257 -16 C364 -16 440 76 440 204 C440 329 366 419 264 419 C220 419 179 399 137 358 L137 677 L127 677 C111 668 40 655 12 656 L12 633 L17 633 C61 632 68 617 66 523 L66 -16 L85 -16 Z M137 329 C174 372 210 393 248 393 C317 393 358 325 358 209 C358 83 314 7 240 7 C200 7 163 34 147 76 C138 98 138 102 137 171 L137 329 Z " />
<glyph glyph-name="c" unicode="c" horiz-adv-x="388" d="M347 98 C332 41 294 10 240 10 C201 10 166 29 148 59 C128 95 115 154 115 215 C115 336 153 396 230 396 C267 396 282 385 288 351 C294 317 302 307 324 307 C339 307 351 321 351 341 C351 382 292 419 225 419 C116 419 33 323 33 197 C33 73 110 -16 217 -16 C294 -16 347 24 367 98 L347 98 Z " />
<glyph glyph-name="d" unicode="d" horiz-adv-x="473" d="M337 360 C301 397 253 419 207 419 C107 419 32 325 32 199 C32 79 108 -16 203 -16 C252 -16 297 7 342 57 C341 52 341 47 341 46 C341 22 343 3 347 -16 C381 -9 431 -4 464 -3 L464 19 L459 19 C409 21 407 26 408 135 L408 677 L398 677 C362 665 311 656 278 656 L278 633 L286 633 C336 631 338 626 337 518 L337 360 Z M337 84 C308 39 268 13 227 13 C157 13 114 85 114 203 C114 322 154 388 224 388 C264 388 296 372 337 331 L337 84 Z " />
<glyph glyph-name="e" unicode="e" horiz-adv-x="394" d="M361 266 C358 354 293 419 209 419 C108 419 33 325 33 198 C33 76 110 -16 213 -16 C283 -16 342 26 361 90 L340 90 C319 38 280 10 229 10 C156 10 115 81 115 209 C115 224 116 236 118 266 L361 266 Z M119 286 C124 322 127 337 136 353 C152 382 178 398 207 398 C253 398 285 361 285 307 C285 300 285 295 283 286 L119 286 Z " />
<glyph glyph-name="f" unicode="f" horiz-adv-x="247" d="M222 403 L150 403 L150 434 C150 560 150 562 158 592 C168 630 195 655 227 655 C251 655 267 642 282 611 C296 582 307 571 324 571 C340 571 353 586 353 603 C353 643 299 677 236 677 C182 677 140 653 110 605 C84 563 79 536 79 439 L79 403 L15 403 L15 380 L79 380 L79 138 C80 30 78 24 29 23 L23 23 L23 0 L219 0 L219 23 L201 23 C151 24 149 30 150 138 L150 380 L222 380 L222 403 Z " />
<glyph glyph-name="g" unicode="g" horiz-adv-x="425" d="M311 368 C283 400 239 419 193 419 C111 419 45 354 45 272 C45 215 74 166 130 129 C77 119 49 90 49 48 C49 -5 89 -27 198 -32 C262 -36 275 -38 299 -49 C328 -63 343 -89 343 -126 C343 -188 292 -228 211 -228 C124 -228 70 -189 70 -127 C70 -103 77 -81 94 -57 C88 -55 86 -55 81 -55 C47 -55 26 -81 26 -122 C26 -197 99 -248 208 -248 C322 -248 393 -193 393 -104 C393 -59 375 -20 344 2 C317 22 280 31 211 35 C155 39 146 39 132 42 C103 46 89 57 89 74 C89 100 118 113 181 116 C227 117 249 123 276 139 C319 164 345 213 345 270 C345 300 338 327 322 355 C336 371 349 380 360 380 C369 380 372 377 380 362 C387 349 396 342 405 342 C421 342 432 356 432 374 C432 397 413 415 387 415 C362 415 336 399 311 368 L311 368 Z M193 396 C214 396 236 384 249 363 C263 342 269 314 269 268 C269 184 243 138 194 138 C146 138 119 182 119 264 C119 349 145 396 193 396 L193 396 Z " />
<glyph glyph-name="h" unicode="h" horiz-adv-x="481" d="M152 677 L141 677 C125 667 54 655 24 656 L24 633 L30 633 C73 633 82 616 81 540 L81 138 C82 29 80 25 30 23 L21 23 L21 0 L205 0 L205 23 L202 23 C153 24 150 30 152 138 L152 300 C177 357 215 389 257 389 C284 389 307 377 320 355 C330 338 333 315 333 259 L333 138 C334 29 332 25 282 23 L274 23 L274 0 L461 0 L461 23 L454 23 C405 24 402 29 404 138 L404 249 C404 316 400 343 387 365 C368 399 329 419 282 419 C231 419 189 392 152 337 L152 677 Z " />
<glyph glyph-name="i" unicode="i" horiz-adv-x="227" d="M106 677 C78 677 55 654 55 626 C55 596 78 573 106 573 C134 573 157 596 157 625 C157 654 134 677 106 677 L106 677 Z M150 419 L139 419 C121 411 55 397 14 393 L14 370 L25 370 C75 371 79 363 79 260 L79 138 C80 29 78 25 28 23 L14 23 L14 0 L209 0 L209 23 L201 23 C151 24 149 30 150 138 L150 419 Z " />
<glyph glyph-name="j" unicode="j" horiz-adv-x="221" d="M156 419 L145 419 C128 411 61 397 21 393 L21 370 L32 370 C81 371 85 362 85 261 L85 -50 C85 -122 84 -144 77 -166 C67 -203 39 -226 6 -226 C-14 -226 -30 -214 -38 -192 C-50 -162 -57 -154 -73 -154 C-88 -154 -100 -168 -100 -187 C-100 -222 -59 -248 -3 -248 C50 -248 98 -224 124 -184 C150 -146 156 -111 156 -14 L156 419 Z M113 677 C85 677 62 654 62 626 C62 596 85 573 113 573 C141 573 164 596 164 625 C164 654 141 677 113 677 L113 677 Z " />
<glyph glyph-name="k" unicode="k" horiz-adv-x="415" d="M240 403 L240 380 L247 380 C265 380 274 372 274 358 C274 338 248 308 183 253 L147 223 L147 677 L136 677 C121 668 49 655 21 656 L21 633 L27 633 C68 633 77 616 76 542 L76 138 C77 29 75 25 26 23 L12 23 L12 0 L196 0 L196 23 L194 23 C148 25 146 31 147 138 L147 196 L165 212 L255 92 C285 53 285 53 285 44 C285 30 272 24 244 23 L240 23 L240 0 L421 0 L421 23 L416 23 C390 27 374 40 340 85 L211 253 L239 277 L278 314 C321 358 351 377 382 380 L386 380 L386 403 L240 403 Z " />
<glyph glyph-name="l" unicode="l" horiz-adv-x="223" d="M148 677 L138 677 C122 667 50 655 21 656 L21 633 L26 633 C70 633 79 616 77 537 L77 138 C78 29 76 25 27 23 L15 23 L15 0 L209 0 L209 23 L199 23 C149 24 147 30 148 138 L148 677 Z " />
<glyph glyph-name="m" unicode="m" horiz-adv-x="729" d="M131 419 C109 411 56 399 25 397 L25 374 L29 374 C79 372 81 368 80 259 L80 138 C81 29 79 24 29 23 L25 23 L25 0 L202 0 L202 23 L198 23 C151 25 148 31 150 138 L150 306 C169 330 181 345 185 349 C208 372 235 385 259 385 C287 385 310 370 321 345 C329 326 331 313 331 250 L331 138 C332 29 330 24 280 23 L275 23 L275 0 L451 0 L451 23 L448 23 C403 25 400 31 402 138 L402 297 C441 358 475 384 513 384 C537 384 557 374 569 356 C579 340 582 323 582 272 L582 138 C583 29 581 24 531 23 L528 23 L528 0 L709 0 L709 23 L703 23 C654 24 651 29 653 138 L653 259 C653 335 650 350 634 374 C616 401 578 419 539 419 C487 419 451 396 399 329 C384 388 346 419 287 419 C234 419 191 392 150 334 C150 368 146 395 135 419 L131 419 Z " />
<glyph glyph-name="n" unicode="n" horiz-adv-x="481" d="M125 419 C87 407 62 401 25 396 L25 374 L31 374 C81 372 83 367 82 258 L82 138 C83 29 81 24 31 23 L25 23 L25 0 L208 0 L208 23 L203 23 C153 24 150 30 152 138 L152 303 C185 360 222 388 264 388 C290 388 312 375 324 353 C333 335 335 326 335 268 L335 138 C336 29 334 24 284 23 L276 23 L276 0 L461 0 L461 23 L456 23 C407 24 404 30 406 138 L406 264 C406 328 403 343 390 367 C373 400 336 419 292 419 C241 419 193 391 152 336 C151 362 144 406 138 419 L125 419 Z " />
<glyph glyph-name="o" unicode="o" horiz-adv-x="452" d="M226 419 C117 419 33 326 33 205 C33 133 57 71 100 32 C132 3 182 -16 226 -16 C338 -16 419 76 419 202 C419 326 336 419 226 419 L226 419 Z M226 396 C302 396 337 333 337 198 C337 66 302 6 226 6 C149 6 115 66 115 201 C115 333 151 396 226 396 L226 396 Z " />
<glyph glyph-name="p" unicode="p" horiz-adv-x="470" d="M113 419 C69 407 28 398 1 395 L1 372 L13 372 C63 370 65 365 64 256 L64 -110 C65 -219 63 -224 13 -225 L1 -225 L1 -248 L191 -248 L191 -225 L185 -225 C136 -224 134 -219 135 -110 L135 44 C176 0 208 -16 256 -16 C362 -16 436 76 436 207 C436 331 364 419 263 419 C216 419 171 396 135 353 C136 371 131 405 126 419 L113 419 Z M135 321 C168 369 200 390 239 390 C263 390 285 381 305 362 C338 331 354 282 354 209 C354 140 341 86 316 54 C294 26 265 10 236 10 C199 10 167 30 135 76 L135 321 Z " />
<glyph glyph-name="q" unicode="q" horiz-adv-x="468" d="M391 419 C373 396 352 377 336 367 C283 407 254 419 212 419 C170 419 124 397 91 361 C53 319 33 262 33 195 C33 71 104 -16 207 -16 C251 -16 293 0 336 34 L336 -110 C337 -219 335 -224 285 -225 L271 -225 L271 -248 L467 -248 L467 -225 L458 -225 C408 -224 406 -219 407 -110 L407 419 L391 419 Z M336 58 C305 28 261 9 227 9 C155 9 115 73 115 189 C115 318 156 389 231 389 C266 389 304 370 336 336 L336 58 Z " />
<glyph glyph-name="r" unicode="r" horiz-adv-x="328" d="M25 368 L33 368 C83 366 85 361 84 252 L84 138 C85 29 83 24 33 23 L25 23 L25 0 L217 0 L217 23 L206 23 C156 24 154 29 155 138 L155 210 C155 278 159 297 178 331 C196 361 223 384 241 384 C252 384 259 377 264 359 C272 333 281 323 297 323 C313 323 326 338 326 358 C326 391 298 419 265 419 C220 419 172 376 151 316 C150 359 144 396 135 419 C98 406 50 393 25 390 L25 368 Z " />
<glyph glyph-name="s" unicode="s" horiz-adv-x="302" d="M37 -13 L54 -13 C58 1 69 25 74 29 C106 -5 127 -16 163 -16 C227 -16 273 33 273 103 C273 136 262 169 244 191 C226 212 210 224 166 246 C101 280 82 300 82 336 C82 370 107 397 140 397 C182 397 219 352 232 288 L248 288 L248 412 L232 412 C224 393 218 381 214 377 C192 405 167 419 136 419 C82 419 38 369 38 307 C38 252 64 219 138 178 C177 156 191 147 201 136 C216 119 224 99 224 77 C224 34 197 5 159 5 C109 5 74 44 54 119 L37 119 L37 -13 Z " />
<glyph glyph-name="t" unicode="t" horiz-adv-x="264" d="M250 380 L250 403 L144 403 L144 529 L128 529 C120 456 77 404 24 403 L24 380 L73 380 L73 152 C73 77 75 57 87 34 C101 4 134 -16 168 -16 C209 -16 246 9 264 49 L250 58 C234 31 217 18 196 18 C178 18 161 30 152 50 C146 65 144 84 144 137 L144 380 L250 380 Z " />
<glyph glyph-name="u" unicode="u" horiz-adv-x="472" d="M397 403 L267 403 L267 380 L276 380 C326 379 328 373 327 265 L327 174 C327 116 323 99 300 68 C277 36 244 17 214 17 C191 17 170 29 158 48 C149 62 147 77 147 124 L147 403 L20 403 L20 380 L25 380 C75 379 77 373 76 265 L76 128 C76 85 80 60 90 40 C107 7 147 -16 189 -16 C242 -16 294 19 327 78 C328 33 333 2 344 -16 L350 -16 C373 -5 402 -1 449 0 L449 23 L446 23 C398 25 396 30 397 139 L397 403 Z " />
<glyph glyph-name="v" unicode="v" horiz-adv-x="415" d="M220 -16 L337 272 C368 350 382 371 410 379 L418 380 L418 403 L296 403 L296 380 L303 380 C326 379 340 366 340 346 C340 332 336 320 319 278 L231 60 L133 304 C117 344 116 347 116 357 C116 374 127 380 157 380 L163 380 L163 403 L-1 403 L-1 380 L4 380 C34 377 42 367 65 307 L194 -16 L220 -16 Z " />
<glyph glyph-name="w" unicode="w" horiz-adv-x="614" d="M435 -16 L547 304 C569 369 573 375 605 380 L613 380 L613 403 L495 403 L495 380 L504 380 C528 379 540 370 540 354 C540 348 540 348 527 310 L448 82 L338 403 L321 403 L209 82 L136 298 C120 340 118 345 118 355 C117 372 131 380 160 380 L166 380 L166 403 L1 403 L1 380 L8 380 C41 377 44 372 67 304 L177 -16 L197 -16 L307 304 L415 -16 L435 -16 Z " />
<glyph glyph-name="x" unicode="x" horiz-adv-x="434" d="M242 229 L314 320 C353 365 374 379 402 380 L404 380 L404 403 L260 403 L260 380 L264 380 C290 380 309 370 309 355 C309 349 305 343 289 321 L230 245 L166 332 C151 352 150 354 150 362 C150 375 160 380 182 380 L187 380 L187 403 L16 403 L16 380 L22 380 C52 378 63 368 109 305 L189 193 L114 94 C78 45 52 26 17 23 L11 23 L11 0 L160 0 L160 23 L155 22 C131 22 111 33 111 47 C111 54 116 62 135 87 L202 175 L274 76 C293 51 294 49 294 41 C294 30 274 21 252 22 L249 23 L249 0 L430 0 L430 23 L425 23 C396 25 377 40 344 87 L242 229 Z " />
<glyph glyph-name="y" unicode="y" horiz-adv-x="415" d="M235 76 L135 312 C118 353 118 353 118 360 C118 373 130 379 157 380 L161 380 L161 403 L-5 403 L-5 380 L3 380 C35 378 43 369 66 315 L202 -10 L168 -106 C155 -140 150 -144 114 -162 C81 -179 68 -195 68 -219 C68 -236 79 -248 96 -248 C126 -248 146 -221 176 -141 L337 292 C362 362 374 376 411 380 L415 380 L415 403 L288 403 L288 380 L295 380 C320 380 337 369 337 355 C337 347 337 347 318 300 L235 76 Z " />
<glyph glyph-name="z" unicode="z" horiz-adv-x="381" d="M23 0 L339 0 L349 128 L332 128 C295 31 283 21 203 23 L104 23 L343 385 L343 403 L40 403 L34 291 L50 291 C74 367 90 384 131 380 L263 380 L23 16 L23 0 Z " />
<glyph glyph-name="braceleft" unicode="&#x7b;" horiz-adv-x="311" d="M47 207 C126 200 138 180 135 65 L135 -80 C135 -154 151 -196 190 -218 C212 -228 228 -230 301 -231 L316 -231 L316 -207 C230 -207 200 -177 196 -85 L196 106 C196 165 169 204 123 215 L123 221 C169 232 195 270 196 330 L196 521 C200 613 230 643 316 643 L316 667 L301 666 C227 666 212 664 190 654 C151 632 135 590 135 515 L135 370 C138 256 126 236 47 228 L47 207 Z " />
<glyph glyph-name="bar" unicode="&#x7c;" horiz-adv-x="450" d="M201 667 L201 -167 L248 -167 L248 667 L201 667 Z " />
<glyph glyph-name="braceright" unicode="&#x7d;" horiz-adv-x="322" d="M275 228 C197 236 184 256 187 370 L187 515 C187 590 171 632 132 654 C110 664 95 666 21 666 L6 667 L6 643 C93 643 122 613 126 521 L126 330 C127 270 153 232 199 221 L199 215 C153 204 126 165 126 106 L126 -85 C122 -177 92 -207 6 -207 L6 -231 L21 -231 C94 -230 110 -228 132 -218 C171 -196 187 -154 187 -80 L187 65 C184 180 196 200 275 207 L275 228 Z " />
<glyph glyph-name="asciitilde" unicode="&#x7e;" horiz-adv-x="642" d="M518 734 C488 697 456 679 419 679 C399 679 382 683 340 697 C289 715 271 719 249 719 C198 719 149 685 111 623 L125 614 C166 663 181 672 216 672 C242 672 263 667 333 643 C367 632 379 629 396 629 C444 629 500 668 532 725 L518 734 Z " />
<glyph glyph-name="uni00A0" unicode="&#xa0;" horiz-adv-x="250" d="" />
<glyph glyph-name="exclamdown" unicode="&#xa1;" horiz-adv-x="227" d="M101 243 L75 -105 C72 -143 71 -151 71 -165 C71 -202 87 -227 110 -227 C133 -227 149 -201 149 -165 C149 -151 148 -139 146 -105 L120 243 L101 243 Z M111 449 C85 449 63 425 63 397 C63 368 84 344 111 344 C137 344 158 368 158 397 C158 426 137 449 111 449 L111 449 Z " />
<glyph glyph-name="cent" unicode="&#xa2;" horiz-adv-x="453" d="M167 4 C198 -11 219 -16 249 -16 C326 -16 379 24 399 98 L379 98 C364 42 324 10 268 10 C233 10 203 23 181 48 L290 391 C303 387 313 373 317 351 C324 316 332 306 355 306 C371 306 383 320 383 340 C383 373 351 401 297 414 L360 612 L340 612 L279 417 C267 419 260 419 255 419 C148 419 65 322 65 197 C65 118 97 49 151 13 L87 -189 L106 -189 L167 4 Z M167 68 C155 101 147 155 147 209 C147 336 183 396 258 396 C263 396 266 396 272 395 L167 68 Z " />
<glyph glyph-name="sterling" unicode="&#xa3;" horiz-adv-x="633" d="M30 221 L24 198 L166 198 L160 176 C140 98 129 56 120 30 C60 -12 19 -65 19 -98 C19 -113 29 -124 44 -124 C65 -124 94 -87 120 -27 L133 5 L137 14 C148 20 156 23 165 23 C191 23 213 8 254 -40 C306 -101 342 -123 390 -123 C473 -123 556 -34 556 56 C556 93 540 120 519 120 C504 120 492 108 492 93 C492 84 494 77 498 66 C509 43 512 30 512 13 C512 -35 470 -77 422 -77 C393 -77 371 -64 333 -23 C279 36 248 55 203 55 C183 55 169 51 153 43 C166 68 178 94 191 118 C194 125 205 150 225 198 L392 198 L399 221 L234 221 C269 313 288 374 322 500 C356 627 365 653 393 694 C419 732 458 756 494 756 C527 756 551 742 567 715 C584 684 589 679 603 679 C617 679 627 691 627 708 C627 749 575 781 511 781 C445 781 385 744 334 671 C288 607 238 479 200 332 C182 261 173 223 172 221 L30 221 Z " />
<glyph glyph-name="currency" unicode="&#xa4;" horiz-adv-x="600" d="M58 102 L84 73 L167 165 C219 126 252 113 299 113 C347 113 383 127 433 166 L517 74 L543 102 L458 196 C495 257 505 289 505 342 C505 394 494 429 460 489 L544 583 L518 611 L434 519 C380 560 347 573 300 573 C251 573 206 555 164 519 L82 611 L56 582 L138 491 C104 429 92 388 92 338 C92 286 105 248 140 193 L58 102 Z M299 516 C383 516 449 439 449 340 C449 247 381 170 299 170 C216 170 149 247 149 343 C149 438 216 516 299 516 L299 516 Z " />
<glyph glyph-name="yen" unicode="&#xa5;" horiz-adv-x="444" d="M317 424 L184 424 L124 555 C104 597 104 597 104 610 C104 633 122 644 160 644 L165 644 L165 667 L-54 667 L-54 644 C-8 642 -3 637 49 528 L101 424 L-49 424 L-49 395 L115 395 L172 276 L-49 276 L-49 247 L180 247 L180 173 C181 36 175 23 115 23 L107 23 L107 0 L336 0 L336 23 L329 23 C269 23 263 36 265 173 L265 247 L493 247 L493 276 L271 276 L325 395 L493 395 L493 424 L339 424 L381 511 C426 607 450 635 498 644 L498 667 L322 667 L322 644 L325 644 C362 644 386 623 386 589 C386 569 383 561 359 512 L317 424 Z M304 395 L256 292 L200 395 L304 395 Z " />
<glyph glyph-name="brokenbar" unicode="&#xa6;" horiz-adv-x="450" d="M201 667 L201 333 L248 333 L248 667 L201 667 Z M201 153 L201 -167 L248 -167 L248 153 L201 153 Z " />
<glyph glyph-name="section" unicode="&#xa7;" horiz-adv-x="359" d="M165 357 C157 359 152 360 145 360 C79 360 30 304 30 227 C30 153 62 98 149 18 C232 -57 254 -91 254 -142 C254 -189 223 -221 177 -221 C140 -221 123 -203 118 -158 C114 -125 107 -113 89 -113 C74 -113 63 -128 63 -150 C63 -201 112 -242 174 -242 C249 -242 297 -190 297 -110 C297 -50 276 -12 204 60 C201 62 199 65 196 68 C202 66 205 66 211 66 C276 66 324 124 324 203 C324 237 315 269 295 304 C277 337 264 351 195 419 C127 487 101 528 101 570 C101 615 132 646 178 646 C217 646 238 626 239 586 C241 558 253 541 270 541 C286 541 296 555 296 575 C296 625 243 667 180 667 C110 667 58 614 58 542 C58 494 82 442 125 399 L158 364 L165 357 Z M149 339 C180 339 203 324 236 283 C270 240 287 202 287 167 C287 120 254 86 208 86 C174 86 152 101 116 149 C85 190 70 226 70 260 C70 307 102 339 149 339 L149 339 Z " />
<glyph glyph-name="dieresis" unicode="&#xa8;" horiz-adv-x="312" d="M74 622 C51 622 33 604 33 582 C33 559 51 541 74 541 C96 541 114 559 114 582 C114 604 96 622 74 622 L74 622 Z M238 622 C215 622 197 604 197 582 C197 559 215 541 238 541 C260 541 278 559 278 582 C278 604 260 622 238 622 L238 622 Z " />
<glyph glyph-name="copyright" unicode="&#xa9;" horiz-adv-x="723" d="M362 680 C190 680 50 525 50 334 C50 144 190 -13 358 -13 C535 -13 674 140 674 334 C674 525 534 680 362 680 L362 680 Z M362 649 C517 649 643 508 643 334 C643 157 518 18 359 18 C207 18 81 161 81 334 C81 508 207 649 362 649 L362 649 Z M486 294 C476 211 436 165 375 165 C308 165 265 230 265 331 C265 443 305 509 373 509 C433 509 476 461 485 385 L485 383 C485 383 486 380 486 378 L502 378 L499 523 L483 523 C481 507 478 491 472 479 C442 513 404 530 361 530 C264 530 196 448 196 330 C196 219 263 143 361 143 C407 143 442 160 473 196 C480 184 484 173 486 159 L502 159 L502 294 L486 294 Z " />
<glyph glyph-name="ordfeminine" unicode="&#xaa;" horiz-adv-x="266" d="M241 317 C238 298 231 287 221 287 C215 287 211 291 208 299 C206 305 206 305 206 341 L206 444 C206 474 205 484 198 496 C185 522 160 535 123 535 C75 535 34 507 34 474 C34 462 41 454 52 454 C64 454 73 465 75 484 C78 508 89 517 118 517 C139 517 154 508 161 491 C164 482 165 476 165 451 L165 440 L126 420 C55 386 26 355 26 316 C26 284 49 260 81 260 C102 260 130 273 158 297 C160 298 164 302 165 303 C172 272 184 260 208 260 C234 260 254 283 254 311 L254 312 L254 317 L241 317 Z M165 421 L165 324 C142 301 120 287 105 287 C89 287 78 304 78 328 C78 360 101 390 139 408 L165 421 Z " />
<glyph glyph-name="guillemotleft" unicode="&#xab;" horiz-adv-x="425" d="M30 215 L194 23 L219 23 L116 215 L219 403 L194 403 L30 215 Z M219 215 L383 23 L407 23 L305 215 L407 403 L383 403 L219 215 Z " />
<glyph glyph-name="logicalnot" unicode="&#xac;" horiz-adv-x="450" d="M326 0 L418 0 L418 267 L32 267 L32 227 L326 227 L326 0 Z " />
<glyph glyph-name="uni00AD" unicode="&#xad;" horiz-adv-x="283" d="M32 233 L32 186 L249 186 L249 233 L32 233 Z " />
<glyph glyph-name="registered" unicode="&#xae;" horiz-adv-x="723" d="M362 680 C190 680 50 525 50 334 C50 144 190 -13 358 -13 C535 -13 674 140 674 334 C674 525 534 680 362 680 L362 680 Z M362 649 C517 649 643 508 643 334 C643 157 518 18 359 18 C207 18 81 161 81 334 C81 508 207 649 362 649 L362 649 Z M205 150 L370 150 L370 169 L352 169 C317 170 314 174 315 249 L315 327 L325 327 C342 329 350 319 396 248 C426 198 453 163 469 150 L561 150 L561 169 L556 169 C523 170 499 189 460 247 C425 299 415 313 391 335 C449 348 479 381 479 430 C479 494 427 529 332 529 C319 529 280 527 255 526 L208 523 L208 504 L216 504 C254 505 256 502 255 429 L255 249 C255 174 253 170 218 169 L205 169 L205 150 Z M315 346 L315 507 C323 508 326 508 332 508 C391 508 413 486 413 427 C413 366 392 347 323 346 L315 346 Z " />
<glyph glyph-name="macron" unicode="&#xaf;" horiz-adv-x="315" d="M33 565 L282 565 L282 588 L33 588 L33 565 Z " />
<glyph glyph-name="degree" unicode="&#xb0;" horiz-adv-x="400" d="M203 686 C117 686 50 619 50 534 C50 448 116 381 200 381 C284 381 350 448 350 533 C350 619 286 686 203 686 L203 686 Z M202 629 C252 629 293 586 293 534 C293 480 252 438 200 438 C148 438 106 481 106 533 C106 587 148 629 202 629 L202 629 Z " />
<glyph glyph-name="plusminus" unicode="&#xb1;" horiz-adv-x="450" d="M21 362 L21 320 L203 320 L203 127 L247 127 L247 320 L429 320 L429 362 L247 362 L247 554 L203 554 L203 362 L21 362 Z M21 51 L21 9 L429 9 L429 51 L21 51 Z " />
<glyph glyph-name="twosuperior" unicode="&#xb2;" horiz-adv-x="285" d="M28 266 L196 266 C215 266 215 266 215 257 C215 253 215 253 213 244 L213 236 L234 236 L251 308 L78 308 C121 349 153 381 182 413 C239 475 255 506 255 552 C255 617 208 663 142 663 C80 663 31 619 31 563 C31 531 50 497 67 497 C78 497 97 514 97 524 C97 527 95 530 92 532 C76 545 70 558 70 577 C70 613 95 641 128 641 C169 641 194 607 194 550 C194 504 177 463 137 409 C101 363 63 320 28 289 L28 266 Z " />
<glyph glyph-name="threesuperior" unicode="&#xb3;" horiz-adv-x="285" d="M161 487 C225 530 244 554 244 589 C244 632 204 663 148 663 C89 663 44 625 44 576 C44 552 58 529 72 529 C83 529 99 539 99 545 C99 546 98 549 96 551 C86 564 84 571 84 587 C84 618 108 643 138 643 C166 643 183 621 183 584 C183 547 169 522 133 495 C88 461 88 461 88 452 C88 446 93 440 100 440 C104 440 107 441 110 445 C128 465 134 469 148 469 C177 469 196 436 196 385 C196 316 170 277 124 277 C101 277 87 288 80 312 C74 333 69 339 55 339 C43 339 34 329 34 316 C34 286 79 258 129 258 C204 258 257 310 257 382 C257 447 220 487 161 487 L161 487 Z " />
<glyph glyph-name="acute" unicode="&#xb4;" horiz-adv-x="471" d="M168 493 L184 493 L372 657 L274 657 L168 493 Z " />
<glyph glyph-name="mu" unicode="&#xb5;" horiz-adv-x="576" d="M442 500 L353 500 L354 131 C318 80 284 58 242 58 C184 58 150 99 150 169 L150 500 L62 500 L62 20 C62 -1 58 -26 51 -56 C34 -118 33 -123 33 -147 C33 -190 54 -219 83 -219 C112 -219 132 -189 132 -145 C132 -124 129 -110 113 -53 C102 -17 101 -8 101 21 L101 33 C143 -3 165 -13 200 -13 C250 -13 301 18 354 80 C362 48 367 36 377 21 C392 0 419 -13 449 -13 C510 -13 553 31 567 108 L540 109 C536 71 515 41 492 41 C462 41 442 77 442 131 L442 500 Z " />
<glyph glyph-name="paragraph" unicode="&#xb6;" horiz-adv-x="498" d="M468 667 L257 667 C157 667 152 666 121 652 C72 630 42 575 42 510 C42 462 58 419 87 390 C115 361 143 351 192 351 L232 351 L232 -1 C233 -65 229 -70 176 -70 L157 -70 L157 -93 L274 -93 L274 643 L354 643 L354 -93 L464 -93 L464 -70 L445 -70 C399 -70 396 -65 397 -3 L397 567 C397 638 401 644 451 644 L468 644 L468 667 Z M232 644 L232 379 L195 379 C138 379 103 427 103 506 C103 602 133 644 201 644 L232 644 Z " />
<glyph glyph-name="periodcentered" unicode="&#xb7;" horiz-adv-x="246" d="M122 386 C96 386 74 362 74 334 C74 305 95 281 122 281 C148 281 169 305 169 334 C169 363 148 386 122 386 L122 386 Z " />
<glyph glyph-name="cedilla" unicode="&#xb8;" horiz-adv-x="450" d="M193 -96 C220 -99 235 -116 235 -145 C235 -176 216 -198 189 -198 C175 -198 163 -195 146 -188 L141 -206 C161 -214 184 -219 201 -219 C246 -219 282 -183 282 -138 C282 -94 257 -66 214 -59 L221 0 L207 0 L193 -96 Z " />
<glyph glyph-name="onesuperior" unicode="&#xb9;" horiz-adv-x="285" d="M151 663 C138 651 108 643 77 643 L77 623 L92 623 C120 623 121 621 120 558 L120 352 C120 288 120 288 92 287 L80 287 L80 267 L213 267 L213 287 L199 287 C171 288 170 289 171 352 L171 663 L151 663 Z " />
<glyph glyph-name="ordmasculine" unicode="&#xba;" horiz-adv-x="282" d="M142 535 C77 535 26 475 26 398 C26 316 74 257 142 257 C208 257 257 316 257 396 C257 475 207 535 142 535 L142 535 Z M142 517 C185 517 205 478 205 394 C205 312 185 275 141 275 C97 275 78 312 78 397 C78 478 98 517 142 517 L142 517 Z " />
<glyph glyph-name="guillemotright" unicode="&#xbb;" horiz-adv-x="425" d="M399 215 L235 403 L210 403 L313 215 L210 23 L235 23 L399 215 Z M210 215 L46 403 L22 403 L124 215 L22 23 L46 23 L210 215 Z " />
<glyph glyph-name="onequarter" unicode="&#xbc;" horiz-adv-x="708" d="M151 663 C138 651 108 643 77 643 L77 623 L92 623 C120 623 121 621 120 558 L120 352 C120 288 120 288 92 287 L80 287 L80 267 L213 267 L213 287 L199 287 C171 288 170 289 171 352 L171 663 L151 663 Z M222 0 L530 644 L503 644 L195 0 L222 0 Z M562 131 L562 85 C563 22 562 21 534 20 L521 20 L521 0 L652 0 L652 20 L644 20 C616 21 615 22 616 85 L616 131 L685 131 L692 183 L672 183 L669 175 C665 162 664 162 662 158 C658 155 658 155 636 155 L616 155 L616 396 L589 396 L428 152 L428 131 L562 131 Z M562 155 L454 155 L562 323 L562 155 Z " />
<glyph glyph-name="onehalf" unicode="&#xbd;" horiz-adv-x="708" d="M151 663 C138 651 108 643 77 643 L77 623 L92 623 C120 623 121 621 120 558 L120 352 C120 288 120 288 92 287 L80 287 L80 267 L213 267 L213 287 L199 287 C171 288 170 289 171 352 L171 663 L151 663 Z M204 0 L512 644 L485 644 L177 0 L204 0 Z M441 0 L610 0 C629 0 629 0 629 -9 C629 -13 629 -13 626 -22 L626 -30 L647 -30 L665 42 L492 42 C533 81 566 115 595 147 C652 209 668 240 668 286 C668 351 621 397 555 397 C494 397 445 353 445 297 C445 265 463 231 481 231 C491 231 510 248 510 258 C510 261 508 264 506 266 C490 279 484 292 484 311 C484 347 509 375 541 375 C582 375 607 341 607 284 C607 238 590 197 550 143 C514 96 476 54 441 23 L441 0 Z " />
<glyph glyph-name="threequarters" unicode="&#xbe;" horiz-adv-x="708" d="M161 487 C225 530 244 554 244 589 C244 632 204 663 148 663 C89 663 44 625 44 576 C44 552 58 529 72 529 C83 529 99 539 99 545 C99 546 98 549 96 551 C86 564 84 571 84 587 C84 618 108 643 138 643 C166 643 183 621 183 584 C183 547 169 522 133 495 C88 461 88 461 88 452 C88 446 93 440 100 440 C104 440 107 441 110 445 C128 465 134 469 148 469 C177 469 196 436 196 385 C196 316 170 277 124 277 C101 277 87 288 80 312 C74 333 69 339 55 339 C43 339 34 329 34 316 C34 286 79 258 129 258 C204 258 257 310 257 382 C257 447 220 487 161 487 L161 487 Z M229 0 L537 644 L510 644 L202 0 L229 0 Z M562 131 L562 85 C563 22 562 21 534 20 L521 20 L521 0 L652 0 L652 20 L644 20 C616 21 615 22 616 85 L616 131 L685 131 L692 183 L672 183 L669 175 C665 162 664 162 662 158 C658 155 658 155 636 155 L616 155 L616 396 L589 396 L428 152 L428 131 L562 131 Z M562 155 L454 155 L562 323 L562 155 Z " />
<glyph glyph-name="questiondown" unicode="&#xbf;" horiz-adv-x="359" d="M199 445 C173 445 152 421 152 393 C152 364 173 340 199 340 C225 340 246 364 246 393 C246 422 225 445 199 445 L199 445 Z M191 243 L191 76 C173 94 152 103 126 103 C58 103 8 38 8 -49 C8 -90 20 -131 42 -166 C68 -209 110 -231 162 -231 C224 -231 279 -198 279 -161 C279 -146 271 -136 259 -136 C247 -136 238 -143 231 -161 C217 -196 201 -209 171 -209 C117 -209 84 -158 84 -75 C84 21 106 74 147 74 C166 74 179 62 191 37 L213 37 L213 243 L191 243 Z " />
<glyph glyph-name="Agrave" unicode="&#xc0;" horiz-adv-x="595" d="M379 245 L425 122 C445 70 445 70 445 58 C445 31 429 23 379 23 L371 23 L371 0 L607 0 L607 23 L602 23 C552 33 547 40 508 146 L307 677 L290 677 L115 213 L94 156 C60 57 44 36 -4 24 L-12 23 L-12 0 L166 0 L166 23 L159 23 C125 23 101 48 101 83 C101 107 107 128 135 203 L151 245 L379 245 Z M371 268 L159 268 L265 552 L371 268 Z M269 847 L130 847 L350 724 L370 724 L269 847 Z " />
<glyph glyph-name="Aacute" unicode="&#xc1;" horiz-adv-x="595" d="M379 245 L425 122 C445 70 445 70 445 58 C445 31 429 23 379 23 L371 23 L371 0 L607 0 L607 23 L602 23 C552 33 547 40 508 146 L307 677 L290 677 L115 213 L94 156 C60 57 44 36 -4 24 L-12 23 L-12 0 L166 0 L166 23 L159 23 C125 23 101 48 101 83 C101 107 107 128 135 203 L151 245 L379 245 Z M371 268 L159 268 L265 552 L371 268 Z M363 847 L261 724 L281 724 L502 847 L363 847 Z " />
<glyph glyph-name="Acircumflex" unicode="&#xc2;" horiz-adv-x="595" d="M379 245 L425 122 C445 70 445 70 445 58 C445 31 429 23 379 23 L371 23 L371 0 L607 0 L607 23 L602 23 C552 33 547 40 508 146 L307 677 L290 677 L115 213 L94 156 C60 57 44 36 -4 24 L-12 23 L-12 0 L166 0 L166 23 L159 23 C125 23 101 48 101 83 C101 107 107 128 135 203 L151 245 L379 245 Z M371 268 L159 268 L265 552 L371 268 Z M261 856 L137 725 L155 725 L284 802 L449 725 L469 725 L346 856 L261 856 Z " />
<glyph glyph-name="Atilde" unicode="&#xc3;" horiz-adv-x="595" d="M379 245 L425 122 C445 70 445 70 445 58 C445 31 429 23 379 23 L371 23 L371 0 L607 0 L607 23 L602 23 C552 33 547 40 508 146 L307 677 L290 677 L115 213 L94 156 C60 57 44 36 -4 24 L-12 23 L-12 0 L166 0 L166 23 L159 23 C125 23 101 48 101 83 C101 107 107 128 135 203 L151 245 L379 245 Z M371 268 L159 268 L265 552 L371 268 Z M156 725 C162 766 176 783 204 783 C220 783 246 774 285 754 C324 734 351 726 374 726 C426 726 460 772 462 841 L447 841 C443 804 425 781 401 781 C382 781 353 791 323 808 C288 828 254 839 228 839 C180 839 142 788 142 725 L156 725 Z " />
<glyph glyph-name="Adieresis" unicode="&#xc4;" horiz-adv-x="595" d="M379 245 L425 122 C445 70 445 70 445 58 C445 31 429 23 379 23 L371 23 L371 0 L607 0 L607 23 L602 23 C552 33 547 40 508 146 L307 677 L290 677 L115 213 L94 156 C60 57 44 36 -4 24 L-12 23 L-12 0 L166 0 L166 23 L159 23 C125 23 101 48 101 83 C101 107 107 128 135 203 L151 245 L379 245 Z M371 268 L159 268 L265 552 L371 268 Z M193 826 C166 826 143 804 143 777 C143 748 165 726 193 726 C221 726 243 749 243 776 C243 804 221 826 193 826 L193 826 Z M403 826 C376 826 353 804 353 777 C353 748 375 726 403 726 C430 726 453 749 453 776 C453 804 431 826 403 826 L403 826 Z " />
<glyph glyph-name="Aring" unicode="&#xc5;" horiz-adv-x="595" d="M115 213 L94 156 C60 57 44 36 -4 24 L-12 23 L-12 0 L166 0 L166 23 L159 23 C125 23 101 48 101 83 C101 107 107 128 135 203 L151 245 L379 245 L425 122 C445 70 445 70 445 58 C445 31 429 23 379 23 L371 23 L371 0 L607 0 L607 23 L602 23 C552 33 547 40 508 146 L315 655 C361 665 391 702 391 747 C391 798 349 840 298 840 C246 840 204 798 204 747 C204 701 236 663 281 654 L115 213 Z M371 268 L159 268 L265 552 L371 268 Z M297 815 C335 815 365 785 365 747 C365 710 335 679 298 679 C260 679 230 709 230 748 C230 785 261 815 297 815 L297 815 Z " />
<glyph glyph-name="AE" unicode="&#xc6;" horiz-adv-x="785" d="M345 326 L345 173 C346 36 340 24 273 23 L260 23 L260 0 L754 0 L761 202 L742 202 C710 60 670 19 568 23 L528 23 C445 23 439 32 441 170 L441 326 L509 326 C570 327 584 309 585 232 L585 223 L605 223 L605 452 L585 452 L585 446 C583 365 568 347 507 349 L441 349 L441 644 L551 644 C634 647 665 616 690 502 L711 502 L696 667 L228 667 L228 644 L241 644 C293 644 305 640 305 620 C305 610 305 610 279 547 L113 167 C71 75 33 31 -12 23 L-12 0 L177 0 L177 23 L174 23 C128 26 106 44 106 78 C106 94 111 111 130 152 L207 326 L345 326 Z M345 349 L217 349 L345 648 L345 349 Z " />
<glyph glyph-name="Ccedilla" unicode="&#xc7;" horiz-adv-x="653" d="M344 -12 C420 -12 489 24 539 87 C552 70 564 41 568 17 L587 17 L587 250 L568 250 C559 166 522 87 477 55 C442 30 400 16 361 16 C236 16 155 137 155 325 C155 531 230 654 357 654 C424 654 489 617 523 560 C544 524 559 476 568 414 L587 414 L582 667 L562 667 C560 639 551 606 539 581 C494 641 416 679 336 679 C246 679 165 639 116 571 C69 504 42 415 42 321 C42 128 156 -6 325 -12 L309 -107 C345 -110 365 -129 365 -162 C365 -196 340 -220 303 -220 C285 -220 269 -217 247 -209 L240 -229 C267 -238 296 -243 319 -243 C380 -243 428 -203 428 -152 C428 -104 394 -73 337 -66 L344 -12 Z " />
<glyph glyph-name="Egrave" unicode="&#xc8;" horiz-adv-x="564" d="M516 207 C484 72 433 19 337 23 L293 23 C212 22 208 30 208 183 L208 340 L272 340 C343 342 356 327 358 244 L358 235 L378 235 L378 464 L358 464 L358 456 C359 379 344 364 270 364 L208 364 L208 644 L289 644 C405 648 437 622 461 500 L482 500 L468 667 L39 667 L39 644 L46 644 C107 644 113 631 112 500 L112 173 C113 37 107 24 39 23 L27 23 L27 0 L524 0 L536 207 L516 207 Z M287 847 L148 847 L368 724 L388 724 L287 847 Z " />
<glyph glyph-name="Eacute" unicode="&#xc9;" horiz-adv-x="564" d="M516 207 C484 72 433 19 337 23 L293 23 C212 22 208 30 208 183 L208 340 L272 340 C343 342 356 327 358 244 L358 235 L378 235 L378 464 L358 464 L358 456 C359 379 344 364 270 364 L208 364 L208 644 L289 644 C405 648 437 622 461 500 L482 500 L468 667 L39 667 L39 644 L46 644 C107 644 113 631 112 500 L112 173 C113 37 107 24 39 23 L27 23 L27 0 L524 0 L536 207 L516 207 Z M334 847 L233 724 L253 724 L473 847 L334 847 Z " />
<glyph glyph-name="Ecircumflex" unicode="&#xca;" horiz-adv-x="564" d="M516 207 C484 72 433 19 337 23 L293 23 C212 22 208 30 208 183 L208 340 L272 340 C343 342 356 327 358 244 L358 235 L378 235 L378 464 L358 464 L358 456 C359 379 344 364 270 364 L208 364 L208 644 L289 644 C405 648 437 622 461 500 L482 500 L468 667 L39 667 L39 644 L46 644 C107 644 113 631 112 500 L112 173 C113 37 107 24 39 23 L27 23 L27 0 L524 0 L536 207 L516 207 Z M243 856 L119 725 L138 725 L266 802 L432 725 L451 725 L328 856 L243 856 Z " />
<glyph glyph-name="Edieresis" unicode="&#xcb;" horiz-adv-x="564" d="M516 207 C484 72 433 19 337 23 L293 23 C212 22 208 30 208 183 L208 340 L272 340 C343 342 356 327 358 244 L358 235 L378 235 L378 464 L358 464 L358 456 C359 379 344 364 270 364 L208 364 L208 644 L289 644 C405 648 437 622 461 500 L482 500 L468 667 L39 667 L39 644 L46 644 C107 644 113 631 112 500 L112 173 C113 37 107 24 39 23 L27 23 L27 0 L524 0 L536 207 L516 207 Z M177 826 C150 826 127 804 127 777 C127 748 149 726 177 726 C205 726 227 749 227 776 C227 804 205 826 177 826 L177 826 Z M387 826 C360 826 337 804 337 777 C337 748 359 726 387 726 C414 726 437 749 437 776 C437 804 415 826 387 826 L387 826 Z " />
<glyph glyph-name="Igrave" unicode="&#xcc;" horiz-adv-x="328" d="M27 644 L39 644 C112 646 117 636 116 501 L116 173 C117 36 111 23 44 23 L27 23 L27 0 L301 0 L301 23 L285 23 C217 23 211 36 212 173 L212 501 C211 636 216 646 289 644 L301 644 L301 667 L27 667 L27 644 Z M154 847 L15 847 L235 724 L255 724 L154 847 Z " />
<glyph glyph-name="Iacute" unicode="&#xcd;" horiz-adv-x="328" d="M27 644 L39 644 C112 646 117 636 116 501 L116 173 C117 36 111 23 44 23 L27 23 L27 0 L301 0 L301 23 L285 23 C217 23 211 36 212 173 L212 501 C211 636 216 646 289 644 L301 644 L301 667 L27 667 L27 644 Z M223 847 L122 724 L141 724 L362 847 L223 847 Z " />
<glyph glyph-name="Icircumflex" unicode="&#xce;" horiz-adv-x="328" d="M27 644 L39 644 C112 646 117 636 116 501 L116 173 C117 36 111 23 44 23 L27 23 L27 0 L301 0 L301 23 L285 23 C217 23 211 36 212 173 L212 501 C211 636 216 646 289 644 L301 644 L301 667 L27 667 L27 644 Z M127 856 L3 725 L22 725 L150 802 L316 725 L335 725 L212 856 L127 856 Z " />
<glyph glyph-name="Idieresis" unicode="&#xcf;" horiz-adv-x="328" d="M28 644 L40 644 C113 646 118 636 117 501 L117 173 C118 36 112 23 45 23 L28 23 L28 0 L302 0 L302 23 L286 23 C218 23 212 36 213 173 L213 501 C212 636 217 646 290 644 L302 644 L302 667 L28 667 L28 644 Z M70 826 C43 826 20 804 20 777 C20 748 42 726 70 726 C98 726 120 749 120 776 C120 804 98 826 70 826 L70 826 Z M260 826 C233 826 210 804 210 777 C210 748 232 726 260 726 C287 726 310 749 310 776 C310 804 288 826 260 826 L260 826 Z " />
<glyph glyph-name="Eth" unicode="&#xd0;" horiz-adv-x="694" d="M124 317 L124 173 C125 37 119 23 51 23 L28 23 L28 0 L296 0 C353 0 362 0 374 1 C416 4 458 14 493 30 C595 76 652 182 652 328 C652 460 603 564 514 623 C460 658 390 674 294 674 C249 674 239 674 57 663 L30 662 L30 639 L47 639 C120 641 125 630 124 495 L124 344 L27 344 L27 317 L124 317 Z M220 317 L368 317 L368 344 L220 344 L220 648 C244 649 263 650 291 650 C367 650 410 637 452 600 C511 547 545 446 545 319 C545 212 519 128 471 78 C433 37 390 23 310 23 C258 23 241 29 231 48 C221 68 220 81 220 202 L220 317 Z " />
<glyph glyph-name="Ntilde" unicode="&#xd1;" horiz-adv-x="688" d="M560 -15 L581 -15 L581 537 C578 609 598 635 666 644 L674 644 L674 667 L456 667 L456 644 L467 644 C539 638 559 615 557 544 L557 145 L203 667 L25 667 L25 644 L30 644 C106 646 112 636 113 501 L113 147 C113 87 112 77 106 64 C97 43 64 26 28 23 L18 23 L18 0 L242 0 L242 23 L235 23 C166 26 136 52 138 108 L137 147 L137 610 L560 -15 Z M210 725 C217 766 231 783 258 783 C274 783 301 774 340 754 C378 734 405 726 429 726 C480 726 515 772 516 841 L501 841 C497 804 479 781 455 781 C436 781 407 791 378 808 C343 828 308 839 282 839 C235 839 196 788 196 725 L210 725 Z " />
<glyph glyph-name="Ograve" unicode="&#xd2;" horiz-adv-x="737" d="M365 679 C279 679 199 647 138 589 C77 531 42 440 42 342 C42 129 172 -12 369 -12 C563 -12 695 128 695 335 C695 437 660 530 600 589 C542 645 454 679 365 679 L365 679 Z M368 654 C424 654 475 632 512 591 C557 541 582 449 582 334 C582 127 507 13 371 13 C306 13 255 36 217 81 C178 129 155 223 155 337 C155 433 177 527 210 575 C245 625 302 654 368 654 L368 654 Z M352 847 L213 847 L434 724 L453 724 L352 847 Z " />
<glyph glyph-name="Oacute" unicode="&#xd3;" horiz-adv-x="737" d="M365 679 C279 679 199 647 138 589 C77 531 42 440 42 342 C42 129 172 -12 369 -12 C563 -12 695 128 695 335 C695 437 660 530 600 589 C542 645 454 679 365 679 L365 679 Z M368 654 C424 654 475 632 512 591 C557 541 582 449 582 334 C582 127 507 13 371 13 C306 13 255 36 217 81 C178 129 155 223 155 337 C155 433 177 527 210 575 C245 625 302 654 368 654 L368 654 Z M427 847 L326 724 L346 724 L566 847 L427 847 Z " />
<glyph glyph-name="Ocircumflex" unicode="&#xd4;" horiz-adv-x="737" d="M365 679 C279 679 199 647 138 589 C77 531 42 440 42 342 C42 129 172 -12 369 -12 C563 -12 695 128 695 335 C695 437 660 530 600 589 C542 645 454 679 365 679 L365 679 Z M368 654 C424 654 475 632 512 591 C557 541 582 449 582 334 C582 127 507 13 371 13 C306 13 255 36 217 81 C178 129 155 223 155 337 C155 433 177 527 210 575 C245 625 302 654 368 654 L368 654 Z M336 856 L212 725 L231 725 L359 802 L525 725 L544 725 L421 856 L336 856 Z " />
<glyph glyph-name="Otilde" unicode="&#xd5;" horiz-adv-x="737" d="M365 679 C279 679 199 647 138 589 C77 531 42 440 42 342 C42 129 172 -12 369 -12 C563 -12 695 128 695 335 C695 437 660 530 600 589 C542 645 454 679 365 679 L365 679 Z M368 654 C424 654 475 632 512 591 C557 541 582 449 582 334 C582 127 507 13 371 13 C306 13 255 36 217 81 C178 129 155 223 155 337 C155 433 177 527 210 575 C245 625 302 654 368 654 L368 654 Z M226 725 C233 766 247 783 275 783 C291 783 317 774 356 754 C395 734 422 726 445 726 C496 726 531 772 532 841 L518 841 C514 804 496 781 472 781 C453 781 424 791 394 808 C359 828 325 839 299 839 C251 839 213 788 213 725 L226 725 Z " />
<glyph glyph-name="Odieresis" unicode="&#xd6;" horiz-adv-x="737" d="M365 679 C279 679 199 647 138 589 C77 531 42 440 42 342 C42 129 172 -12 369 -12 C563 -12 695 128 695 335 C695 437 660 530 600 589 C542 645 454 679 365 679 L365 679 Z M368 654 C424 654 475 632 512 591 C557 541 582 449 582 334 C582 127 507 13 371 13 C306 13 255 36 217 81 C178 129 155 223 155 337 C155 433 177 527 210 575 C245 625 302 654 368 654 L368 654 Z M264 826 C237 826 214 804 214 777 C214 748 236 726 264 726 C292 726 314 749 314 776 C314 804 292 826 264 826 L264 826 Z M474 826 C447 826 424 804 424 777 C424 748 446 726 474 726 C501 726 524 749 524 776 C524 804 502 826 474 826 L474 826 Z " />
<glyph glyph-name="multiply" unicode="&#xd7;" horiz-adv-x="450" d="M83 529 L56 499 L198 341 L55 182 L82 152 L225 311 L368 152 L395 182 L252 340 L395 499 L368 530 L225 370 L83 529 Z " />
<glyph glyph-name="Oslash" unicode="&#xd8;" horiz-adv-x="737" d="M105 0 L120 -14 L170 51 C228 9 293 -12 368 -12 C563 -12 695 128 695 335 C695 442 656 540 592 597 L643 663 L626 678 L574 611 C514 655 441 679 365 679 C175 679 42 538 42 337 C42 223 80 129 154 64 L105 0 Z M194 116 C170 169 155 249 155 332 C155 433 176 525 210 575 C245 625 302 654 368 654 C438 654 499 620 535 560 L194 116 Z M546 538 C570 484 582 415 582 335 C582 127 507 13 371 13 C299 13 243 41 205 96 L546 538 Z " />
<glyph glyph-name="Ugrave" unicode="&#xd9;" horiz-adv-x="697" d="M478 667 L478 644 L483 644 C554 637 570 612 568 513 L568 286 C568 178 565 156 547 119 C517 59 450 22 371 22 C306 22 250 52 226 100 C207 139 204 162 204 291 L204 501 C202 636 208 646 281 644 L292 644 L292 667 L18 667 L18 644 L31 644 C104 646 109 636 108 501 L108 293 L108 202 C111 149 119 118 138 86 C176 24 252 -12 347 -12 C447 -12 526 27 564 96 C588 139 592 163 592 282 L592 504 C588 604 604 632 670 644 L679 644 L679 667 L478 667 Z M362 847 L223 847 L443 724 L463 724 L362 847 Z " />
<glyph glyph-name="Uacute" unicode="&#xda;" horiz-adv-x="697" d="M478 667 L478 644 L483 644 C554 637 570 612 568 513 L568 286 C568 178 565 156 547 119 C517 59 450 22 371 22 C306 22 250 52 226 100 C207 139 204 162 204 291 L204 501 C202 636 208 646 281 644 L292 644 L292 667 L18 667 L18 644 L31 644 C104 646 109 636 108 501 L108 293 L108 202 C111 149 119 118 138 86 C176 24 252 -12 347 -12 C447 -12 526 27 564 96 C588 139 592 163 592 282 L592 504 C588 604 604 632 670 644 L679 644 L679 667 L478 667 Z M437 847 L335 724 L355 724 L576 847 L437 847 Z " />
<glyph glyph-name="Ucircumflex" unicode="&#xdb;" horiz-adv-x="697" d="M478 667 L478 644 L483 644 C554 637 570 612 568 513 L568 286 C568 178 565 156 547 119 C517 59 450 22 371 22 C306 22 250 52 226 100 C207 139 204 162 204 291 L204 501 C202 636 208 646 281 644 L292 644 L292 667 L18 667 L18 644 L31 644 C104 646 109 636 108 501 L108 293 L108 202 C111 149 119 118 138 86 C176 24 252 -12 347 -12 C447 -12 526 27 564 96 C588 139 592 163 592 282 L592 504 C588 604 604 632 670 644 L679 644 L679 667 L478 667 Z M333 856 L209 725 L227 725 L356 802 L521 725 L541 725 L418 856 L333 856 Z " />
<glyph glyph-name="Udieresis" unicode="&#xdc;" horiz-adv-x="697" d="M478 667 L478 644 L483 644 C554 637 570 612 568 513 L568 286 C568 178 565 156 547 119 C517 59 450 22 371 22 C306 22 250 52 226 100 C207 139 204 162 204 291 L204 501 C202 636 208 646 281 644 L292 644 L292 667 L18 667 L18 644 L31 644 C104 646 109 636 108 501 L108 293 L108 202 C111 149 119 118 138 86 C176 24 252 -12 347 -12 C447 -12 526 27 564 96 C588 139 592 163 592 282 L592 504 C588 604 604 632 670 644 L679 644 L679 667 L478 667 Z M265 826 C238 826 215 804 215 777 C215 748 237 726 265 726 C292 726 315 749 315 776 C315 804 293 826 265 826 L265 826 Z M475 826 C448 826 425 804 425 777 C425 748 447 726 475 726 C502 726 525 749 525 776 C525 804 502 826 475 826 L475 826 Z " />
<glyph glyph-name="Yacute" unicode="&#xdd;" horiz-adv-x="590" d="M333 292 L185 555 C168 587 163 598 163 610 C163 633 183 644 226 644 L231 644 L231 667 L-12 667 L-12 644 L-6 644 C39 641 46 634 102 529 L247 256 L247 173 C248 36 242 23 175 23 L166 23 L166 0 L422 0 L422 23 L414 23 C347 23 341 36 342 173 L342 262 L472 511 C519 603 545 632 595 643 L601 644 L601 667 L405 667 L405 644 L410 644 C451 644 476 623 476 589 C476 569 473 560 447 512 L333 292 Z M385 847 L284 724 L304 724 L524 847 L385 847 Z " />
<glyph glyph-name="Thorn" unicode="&#xde;" horiz-adv-x="525" d="M301 667 L27 667 L27 644 L37 644 C110 646 115 636 114 501 L114 174 C115 36 109 23 42 23 L27 23 L27 0 L301 0 L301 23 L282 23 C220 22 210 39 210 141 L210 154 L273 154 C354 154 396 162 428 183 C474 213 500 268 500 333 C500 411 462 469 394 494 C352 510 322 513 210 513 C209 630 217 644 282 644 L301 644 L301 667 Z M210 179 L210 488 C223 490 232 490 249 490 C303 490 331 482 354 460 C380 435 396 387 396 330 C396 275 380 231 351 206 C327 185 305 179 251 179 L210 179 Z " />
<glyph glyph-name="germandbls" unicode="&#xdf;" horiz-adv-x="474" d="M73 138 C74 29 72 24 22 23 L13 23 L13 0 L195 0 L195 23 L192 23 C145 25 143 30 144 138 L144 418 C144 544 144 549 152 583 C163 629 196 656 242 656 C303 656 335 606 335 512 C335 423 302 380 236 380 C233 380 230 380 223 381 L223 359 L245 359 C264 359 283 355 297 347 C343 322 359 270 359 145 C359 56 346 19 315 19 C304 19 297 24 286 39 C272 59 264 65 253 65 C241 65 232 54 232 40 C232 14 259 -5 297 -5 C382 -5 441 70 441 179 C441 284 389 354 295 372 C330 383 348 392 366 408 C398 437 417 480 417 523 C417 613 347 677 248 677 C187 677 136 649 104 599 C78 557 73 527 73 418 L73 138 Z " />
<glyph glyph-name="agrave" unicode="&#xe0;" horiz-adv-x="425" d="M400 74 C395 43 382 26 363 26 C352 26 343 33 339 47 C335 58 335 58 335 115 L335 278 C335 327 333 340 322 360 C300 399 259 419 197 419 C147 419 108 407 80 383 C61 365 49 345 49 327 C49 310 60 298 76 298 C95 298 108 314 112 343 C116 364 117 368 123 376 C134 389 159 398 188 398 C224 398 251 383 264 355 C270 341 271 330 271 289 L271 269 L202 238 C84 184 35 136 35 76 C35 26 73 -10 125 -10 C165 -10 208 11 271 60 C279 12 301 -10 342 -10 C386 -10 414 21 416 74 L400 74 Z M271 246 L271 87 C230 48 193 26 167 26 C137 26 117 54 117 95 C117 146 156 194 222 224 L271 246 Z M291 493 L185 657 L85 657 L275 493 L291 493 Z " />
<glyph glyph-name="aacute" unicode="&#xe1;" horiz-adv-x="425" d="M400 74 C395 43 382 26 363 26 C352 26 343 33 339 47 C335 58 335 58 335 115 L335 278 C335 327 333 340 322 360 C300 399 259 419 197 419 C147 419 108 407 80 383 C61 365 49 345 49 327 C49 310 60 298 76 298 C95 298 108 314 112 343 C116 364 117 368 123 376 C134 389 159 398 188 398 C224 398 251 383 264 355 C270 341 271 330 271 289 L271 269 L202 238 C84 184 35 136 35 76 C35 26 73 -10 125 -10 C165 -10 208 11 271 60 C279 12 301 -10 342 -10 C386 -10 414 21 416 74 L400 74 Z M271 246 L271 87 C230 48 193 26 167 26 C137 26 117 54 117 95 C117 146 156 194 222 224 L271 246 Z M183 493 L199 493 L387 657 L289 657 L183 493 Z " />
<glyph glyph-name="acircumflex" unicode="&#xe2;" horiz-adv-x="425" d="M400 74 C395 43 382 26 363 26 C352 26 343 33 339 47 C335 58 335 58 335 115 L335 278 C335 327 333 340 322 360 C300 399 259 419 197 419 C147 419 108 407 80 383 C61 365 49 345 49 327 C49 310 60 298 76 298 C95 298 108 314 112 343 C116 364 117 368 123 376 C134 389 159 398 188 398 C224 398 251 383 264 355 C270 341 271 330 271 289 L271 269 L202 238 C84 184 35 136 35 76 C35 26 73 -10 125 -10 C165 -10 208 11 271 60 C279 12 301 -10 342 -10 C386 -10 414 21 416 74 L400 74 Z M271 246 L271 87 C230 48 193 26 167 26 C137 26 117 54 117 95 C117 146 156 194 222 224 L271 246 Z M203 596 L310 496 L330 496 L237 661 L188 661 L99 496 L119 496 L203 596 Z " />
<glyph glyph-name="atilde" unicode="&#xe3;" horiz-adv-x="425" d="M400 74 C395 43 382 26 363 26 C352 26 343 33 339 47 C335 58 335 58 335 115 L335 278 C335 327 333 340 322 360 C300 399 259 419 197 419 C147 419 108 407 80 383 C61 365 49 345 49 327 C49 310 60 298 76 298 C95 298 108 314 112 343 C116 364 117 368 123 376 C134 389 159 398 188 398 C224 398 251 383 264 355 C270 341 271 330 271 289 L271 269 L202 238 C84 184 35 136 35 76 C35 26 73 -10 125 -10 C165 -10 208 11 271 60 C279 12 301 -10 342 -10 C386 -10 414 21 416 74 L400 74 Z M271 246 L271 87 C230 48 193 26 167 26 C137 26 117 54 117 95 C117 146 156 194 222 224 L271 246 Z M72 524 C75 568 93 592 122 592 C134 592 145 587 162 574 C218 530 232 523 265 523 C295 523 321 536 339 560 C353 579 359 601 359 639 L344 639 C343 595 326 570 295 570 C279 570 267 576 239 597 C193 633 180 639 151 639 C95 639 57 592 58 524 L72 524 Z " />
<glyph glyph-name="adieresis" unicode="&#xe4;" horiz-adv-x="425" d="M400 74 C395 43 382 26 363 26 C352 26 343 33 339 47 C335 58 335 58 335 115 L335 278 C335 327 333 340 322 360 C300 399 259 419 197 419 C147 419 108 407 80 383 C61 365 49 345 49 327 C49 310 60 298 76 298 C95 298 108 314 112 343 C116 364 117 368 123 376 C134 389 159 398 188 398 C224 398 251 383 264 355 C270 341 271 330 271 289 L271 269 L202 238 C84 184 35 136 35 76 C35 26 73 -10 125 -10 C165 -10 208 11 271 60 C279 12 301 -10 342 -10 C386 -10 414 21 416 74 L400 74 Z M271 246 L271 87 C230 48 193 26 167 26 C137 26 117 54 117 95 C117 146 156 194 222 224 L271 246 Z M125 622 C102 622 84 604 84 582 C84 559 102 541 125 541 C147 541 165 559 165 582 C165 604 147 622 125 622 L125 622 Z M289 622 C266 622 248 604 248 582 C248 559 266 541 289 541 C311 541 329 559 329 582 C329 604 311 622 289 622 L289 622 Z " />
<glyph glyph-name="aring" unicode="&#xe5;" horiz-adv-x="425" d="M400 74 C395 43 382 26 363 26 C352 26 343 33 339 47 C335 58 335 58 335 115 L335 278 C335 327 333 340 322 360 C300 399 259 419 197 419 C147 419 108 407 80 383 C61 365 49 345 49 327 C49 310 60 298 76 298 C95 298 108 314 112 343 C116 364 117 368 123 376 C134 389 159 398 188 398 C224 398 251 383 264 355 C270 341 271 330 271 289 L271 269 L202 238 C84 184 35 136 35 76 C35 26 73 -10 125 -10 C165 -10 208 11 271 60 C279 12 301 -10 342 -10 C386 -10 414 21 416 74 L400 74 Z M271 246 L271 87 C230 48 193 26 167 26 C137 26 117 54 117 95 C117 146 156 194 222 224 L271 246 Z M217 668 C168 668 128 628 128 580 C128 530 168 490 217 490 C266 490 306 530 306 579 C306 628 266 668 217 668 L217 668 Z M217 640 C251 640 278 613 278 579 C278 545 251 518 217 518 C183 518 156 545 156 580 C156 613 184 640 217 640 L217 640 Z " />
<glyph glyph-name="ae" unicode="&#xe6;" horiz-adv-x="580" d="M546 266 C532 364 477 419 395 419 C350 419 320 405 290 370 C253 405 220 419 175 419 C105 419 39 376 39 331 C39 314 50 303 67 303 C86 303 98 320 105 354 C112 385 131 398 170 398 C195 398 217 387 227 370 C236 354 239 334 239 287 L239 266 C202 252 144 225 116 208 C63 176 33 131 33 82 C33 29 75 -16 125 -16 C168 -16 212 17 249 78 C277 17 328 -16 394 -16 C463 -16 515 20 539 82 L522 90 C500 39 461 11 412 11 C372 11 338 37 322 80 C309 115 303 166 303 240 L303 266 L546 266 Z M303 287 C310 358 341 397 390 397 C440 397 469 358 471 287 L303 287 Z M239 99 C214 54 187 29 163 29 C130 29 107 61 107 107 C107 167 146 208 239 245 L239 99 Z " />
<glyph glyph-name="ccedilla" unicode="&#xe7;" horiz-adv-x="388" d="M221 -16 C298 -13 349 27 367 98 L347 98 C332 41 294 10 240 10 C201 10 166 29 148 59 C128 95 115 154 115 215 C115 336 153 396 230 396 C267 396 282 385 288 351 C294 317 302 307 324 307 C339 307 351 321 351 341 C351 382 292 419 225 419 C116 419 33 323 33 197 C33 78 105 -10 206 -16 L195 -96 C222 -99 237 -116 237 -145 C237 -176 218 -198 191 -198 C177 -198 164 -195 148 -188 L143 -206 C162 -214 186 -219 202 -219 C248 -219 284 -183 284 -138 C284 -94 259 -66 216 -59 L221 -16 Z " />
<glyph glyph-name="egrave" unicode="&#xe8;" horiz-adv-x="394" d="M361 266 C358 354 293 419 209 419 C108 419 33 325 33 198 C33 76 110 -16 213 -16 C283 -16 342 26 361 90 L340 90 C319 38 280 10 229 10 C156 10 115 81 115 209 C115 224 116 236 118 266 L361 266 Z M119 286 C124 322 127 337 136 353 C152 382 178 398 207 398 C253 398 285 361 285 307 C285 300 285 295 283 286 L119 286 Z M299 493 L193 657 L92 657 L282 493 L299 493 Z " />
<glyph glyph-name="eacute" unicode="&#xe9;" horiz-adv-x="394" d="M361 266 C358 354 293 419 209 419 C108 419 33 325 33 198 C33 76 110 -16 213 -16 C283 -16 342 26 361 90 L340 90 C319 38 280 10 229 10 C156 10 115 81 115 209 C115 224 116 236 118 266 L361 266 Z M119 286 C124 322 127 337 136 353 C152 382 178 398 207 398 C253 398 285 361 285 307 C285 300 285 295 283 286 L119 286 Z M189 493 L205 493 L392 657 L294 657 L189 493 Z " />
<glyph glyph-name="ecircumflex" unicode="&#xea;" horiz-adv-x="394" d="M361 266 C358 354 293 419 209 419 C108 419 33 325 33 198 C33 76 110 -16 213 -16 C283 -16 342 26 361 90 L340 90 C319 38 280 10 229 10 C156 10 115 81 115 209 C115 224 116 236 118 266 L361 266 Z M119 286 C124 322 127 337 136 353 C152 382 178 398 207 398 C253 398 285 361 285 307 C285 300 285 295 283 286 L119 286 Z M206 596 L314 496 L333 496 L241 661 L191 661 L103 496 L122 496 L206 596 Z " />
<glyph glyph-name="edieresis" unicode="&#xeb;" horiz-adv-x="394" d="M361 266 C358 354 293 419 209 419 C108 419 33 325 33 198 C33 76 110 -16 213 -16 C283 -16 342 26 361 90 L340 90 C319 38 280 10 229 10 C156 10 115 81 115 209 C115 224 116 236 118 266 L361 266 Z M119 286 C124 322 127 337 136 353 C152 382 178 398 207 398 C253 398 285 361 285 307 C285 300 285 295 283 286 L119 286 Z M134 622 C111 622 93 604 93 582 C93 559 111 541 134 541 C156 541 174 559 174 582 C174 604 156 622 134 622 L134 622 Z M299 622 C276 622 258 604 258 582 C258 559 276 541 299 541 C321 541 339 559 339 582 C339 604 321 622 299 622 L299 622 Z " />
<glyph glyph-name="igrave" unicode="&#xec;" horiz-adv-x="227" d="M150 419 L139 419 C121 411 55 397 14 393 L14 370 L25 370 C75 371 79 363 79 260 L79 138 C80 29 78 25 28 23 L14 23 L14 0 L209 0 L209 23 L201 23 C151 24 149 30 150 138 L150 419 Z M175 493 L69 657 L-31 657 L159 493 L175 493 Z " />
<glyph glyph-name="iacute" unicode="&#xed;" horiz-adv-x="227" d="M150 419 L139 419 C121 411 55 397 14 393 L14 370 L25 370 C75 371 79 363 79 260 L79 138 C80 29 78 25 28 23 L14 23 L14 0 L209 0 L209 23 L201 23 C151 24 149 30 150 138 L150 419 Z M74 493 L90 493 L277 657 L179 657 L74 493 Z " />
<glyph glyph-name="icircumflex" unicode="&#xee;" horiz-adv-x="227" d="M150 419 L139 419 C121 411 55 397 14 393 L14 370 L25 370 C75 371 79 363 79 260 L79 138 C80 29 78 25 28 23 L14 23 L14 0 L209 0 L209 23 L201 23 C151 24 149 30 150 138 L150 419 Z M99 596 L207 496 L227 496 L134 661 L85 661 L-4 496 L15 496 L99 596 Z " />
<glyph glyph-name="idieresis" unicode="&#xef;" horiz-adv-x="227" d="M150 419 L139 419 C121 411 55 397 14 393 L14 370 L25 370 C75 371 79 363 79 260 L79 138 C80 29 78 25 28 23 L14 23 L14 0 L209 0 L209 23 L201 23 C151 24 149 30 150 138 L150 419 Z M41 622 C18 622 0 604 0 582 C0 559 18 541 41 541 C63 541 81 559 81 582 C81 604 63 622 41 622 L41 622 Z M179 622 C156 622 138 604 138 582 C138 559 156 541 179 541 C201 541 219 559 219 582 C219 604 201 622 179 622 L179 622 Z " />
<glyph glyph-name="eth" unicode="&#xf0;" horiz-adv-x="453" d="M117 641 C163 609 169 604 208 567 L86 496 L95 476 L224 550 C275 494 309 436 326 377 C297 409 268 422 224 422 C116 422 33 327 33 202 C33 79 115 -12 227 -12 C270 -12 310 3 344 32 C395 75 420 136 420 216 C420 351 371 474 274 580 L373 638 L364 656 L259 596 L243 610 C233 619 213 636 206 641 C188 656 176 664 151 679 L117 641 Z M226 400 C253 400 282 387 299 369 C326 338 337 293 337 213 C337 117 324 65 291 35 C276 21 247 10 224 10 C151 10 114 75 114 202 C114 332 152 400 226 400 L226 400 Z " />
<glyph glyph-name="ntilde" unicode="&#xf1;" horiz-adv-x="481" d="M125 419 C87 407 62 401 25 396 L25 374 L31 374 C81 372 83 367 82 258 L82 138 C83 29 81 24 31 23 L25 23 L25 0 L208 0 L208 23 L203 23 C153 24 150 30 152 138 L152 303 C185 360 222 388 264 388 C290 388 312 375 324 353 C333 335 335 326 335 268 L335 138 C336 29 334 24 284 23 L276 23 L276 0 L461 0 L461 23 L456 23 C407 24 404 30 406 138 L406 264 C406 328 403 343 390 367 C373 400 336 419 292 419 C241 419 193 391 152 336 C151 362 144 406 138 419 L125 419 Z M107 524 C110 568 127 592 156 592 C168 592 180 587 196 574 C252 530 266 523 299 523 C330 523 356 536 373 560 C388 579 393 601 393 639 L379 639 C378 595 360 570 329 570 C313 570 302 576 274 597 C228 633 214 639 186 639 C129 639 91 592 92 524 L107 524 Z " />
<glyph glyph-name="ograve" unicode="&#xf2;" horiz-adv-x="452" d="M226 419 C117 419 33 326 33 205 C33 133 57 71 100 32 C132 3 182 -16 226 -16 C338 -16 419 76 419 202 C419 326 336 419 226 419 L226 419 Z M226 396 C302 396 337 333 337 198 C337 66 302 6 226 6 C149 6 115 66 115 201 C115 333 151 396 226 396 L226 396 Z M307 493 L201 657 L101 657 L291 493 L307 493 Z " />
<glyph glyph-name="oacute" unicode="&#xf3;" horiz-adv-x="452" d="M226 419 C117 419 33 326 33 205 C33 133 57 71 100 32 C132 3 182 -16 226 -16 C338 -16 419 76 419 202 C419 326 336 419 226 419 L226 419 Z M226 396 C302 396 337 333 337 198 C337 66 302 6 226 6 C149 6 115 66 115 201 C115 333 151 396 226 396 L226 396 Z M203 493 L219 493 L407 657 L309 657 L203 493 Z " />
<glyph glyph-name="ocircumflex" unicode="&#xf4;" horiz-adv-x="452" d="M226 419 C117 419 33 326 33 205 C33 133 57 71 100 32 C132 3 182 -16 226 -16 C338 -16 419 76 419 202 C419 326 336 419 226 419 L226 419 Z M226 396 C302 396 337 333 337 198 C337 66 302 6 226 6 C149 6 115 66 115 201 C115 333 151 396 226 396 L226 396 Z M231 596 L339 496 L358 496 L266 661 L216 661 L128 496 L147 496 L231 596 Z " />
<glyph glyph-name="otilde" unicode="&#xf5;" horiz-adv-x="452" d="M226 419 C117 419 33 326 33 205 C33 133 57 71 100 32 C132 3 182 -16 226 -16 C338 -16 419 76 419 202 C419 326 336 419 226 419 L226 419 Z M226 396 C302 396 337 333 337 198 C337 66 302 6 226 6 C149 6 115 66 115 201 C115 333 151 396 226 396 L226 396 Z M107 524 C110 568 127 592 156 592 C168 592 180 587 196 574 C252 530 266 523 299 523 C330 523 356 536 373 560 C388 579 393 601 393 639 L379 639 C378 595 360 570 329 570 C313 570 302 576 274 597 C228 633 214 639 186 639 C129 639 91 592 92 524 L107 524 Z " />
<glyph glyph-name="odieresis" unicode="&#xf6;" horiz-adv-x="452" d="M226 419 C117 419 33 326 33 205 C33 133 57 71 100 32 C132 3 182 -16 226 -16 C338 -16 419 76 419 202 C419 326 336 419 226 419 L226 419 Z M226 396 C302 396 337 333 337 198 C337 66 302 6 226 6 C149 6 115 66 115 201 C115 333 151 396 226 396 L226 396 Z M155 622 C132 622 114 604 114 582 C114 559 132 541 155 541 C177 541 195 559 195 582 C195 604 177 622 155 622 L155 622 Z M320 622 C297 622 279 604 279 582 C279 559 297 541 320 541 C342 541 360 559 360 582 C360 604 342 622 320 622 L320 622 Z " />
<glyph glyph-name="divide" unicode="&#xf7;" horiz-adv-x="450" d="M21 362 L21 320 L429 320 L429 362 L21 362 Z M227 216 C201 216 179 192 179 164 C179 134 200 110 227 110 C253 110 274 134 274 163 C274 192 253 216 227 216 L227 216 Z M227 567 C201 567 179 543 179 515 C179 486 200 462 227 462 C253 462 274 486 274 515 C274 543 253 567 227 567 L227 567 Z " />
<glyph glyph-name="oslash" unicode="&#xf8;" horiz-adv-x="452" d="M403 420 L389 433 L344 375 C310 405 272 419 226 419 C116 419 33 326 33 202 C33 141 54 81 88 44 L41 -16 L55 -29 L101 31 C136 2 183 -16 226 -16 C338 -16 419 76 419 202 C419 266 399 320 358 363 L403 420 Z M324 318 C332 289 337 244 337 198 C337 66 302 6 226 6 C182 6 149 29 132 71 L324 318 Z M125 93 C118 121 115 156 115 198 C115 333 150 396 226 396 C267 396 299 375 316 339 L125 93 Z " />
<glyph glyph-name="ugrave" unicode="&#xf9;" horiz-adv-x="472" d="M397 403 L267 403 L267 380 L276 380 C326 379 328 373 327 265 L327 174 C327 116 323 99 300 68 C277 36 244 17 214 17 C191 17 170 29 158 48 C149 62 147 77 147 124 L147 403 L20 403 L20 380 L25 380 C75 379 77 373 76 265 L76 128 C76 85 80 60 90 40 C107 7 147 -16 189 -16 C242 -16 294 19 327 78 C328 33 333 2 344 -16 L350 -16 C373 -5 402 -1 449 0 L449 23 L446 23 C398 25 396 30 397 139 L397 403 Z M324 493 L218 657 L117 657 L307 493 L324 493 Z " />
<glyph glyph-name="uacute" unicode="&#xfa;" horiz-adv-x="472" d="M397 403 L267 403 L267 380 L276 380 C326 379 328 373 327 265 L327 174 C327 116 323 99 300 68 C277 36 244 17 214 17 C191 17 170 29 158 48 C149 62 147 77 147 124 L147 403 L20 403 L20 380 L25 380 C75 379 77 373 76 265 L76 128 C76 85 80 60 90 40 C107 7 147 -16 189 -16 C242 -16 294 19 327 78 C328 33 333 2 344 -16 L350 -16 C373 -5 402 -1 449 0 L449 23 L446 23 C398 25 396 30 397 139 L397 403 Z M209 493 L226 493 L413 657 L315 657 L209 493 Z " />
<glyph glyph-name="ucircumflex" unicode="&#xfb;" horiz-adv-x="472" d="M397 403 L267 403 L267 380 L276 380 C326 379 328 373 327 265 L327 174 C327 116 323 99 300 68 C277 36 244 17 214 17 C191 17 170 29 158 48 C149 62 147 77 147 124 L147 403 L20 403 L20 380 L25 380 C75 379 77 373 76 265 L76 128 C76 85 80 60 90 40 C107 7 147 -16 189 -16 C242 -16 294 19 327 78 C328 33 333 2 344 -16 L350 -16 C373 -5 402 -1 449 0 L449 23 L446 23 C398 25 396 30 397 139 L397 403 Z M235 596 L343 496 L363 496 L270 661 L221 661 L132 496 L151 496 L235 596 Z " />
<glyph glyph-name="udieresis" unicode="&#xfc;" horiz-adv-x="472" d="M397 403 L267 403 L267 380 L276 380 C326 379 328 373 327 265 L327 174 C327 116 323 99 300 68 C277 36 244 17 214 17 C191 17 170 29 158 48 C149 62 147 77 147 124 L147 403 L20 403 L20 380 L25 380 C75 379 77 373 76 265 L76 128 C76 85 80 60 90 40 C107 7 147 -16 189 -16 C242 -16 294 19 327 78 C328 33 333 2 344 -16 L350 -16 C373 -5 402 -1 449 0 L449 23 L446 23 C398 25 396 30 397 139 L397 403 Z M159 622 C136 622 118 604 118 582 C118 559 136 541 159 541 C181 541 199 559 199 582 C199 604 181 622 159 622 L159 622 Z M323 622 C301 622 283 604 283 582 C283 559 301 541 324 541 C346 541 364 559 364 582 C364 604 346 622 323 622 L323 622 Z " />
<glyph glyph-name="yacute" unicode="&#xfd;" horiz-adv-x="415" d="M235 76 L135 312 C118 353 118 353 118 360 C118 373 130 379 157 380 L161 380 L161 403 L-5 403 L-5 380 L3 380 C35 378 43 369 66 315 L202 -10 L168 -106 C155 -140 150 -144 114 -162 C81 -179 68 -195 68 -219 C68 -236 79 -248 96 -248 C126 -248 146 -221 176 -141 L337 292 C362 362 374 376 411 380 L415 380 L415 403 L288 403 L288 380 L295 380 C320 380 337 369 337 355 C337 347 337 347 318 300 L235 76 Z M203 493 L219 493 L407 657 L309 657 L203 493 Z " />
<glyph glyph-name="thorn" unicode="&#xfe;" horiz-adv-x="470" d="M122 677 C83 665 26 653 1 652 L1 629 L13 629 C63 628 65 623 64 514 L64 -110 C65 -219 63 -224 13 -225 L1 -225 L1 -248 L191 -248 L191 -225 L185 -225 C136 -224 134 -219 135 -110 L135 44 C176 0 208 -16 256 -16 C362 -16 436 76 436 207 C436 331 364 419 263 419 C216 419 171 396 135 353 L135 677 L122 677 Z M135 321 C168 369 200 390 239 390 C263 390 285 381 305 362 C338 331 354 282 354 209 C354 140 341 86 316 54 C294 26 265 10 236 10 C199 10 167 30 135 76 L135 321 Z " />
<glyph glyph-name="ydieresis" unicode="&#xff;" horiz-adv-x="415" d="M235 76 L135 312 C118 353 118 353 118 360 C118 373 130 379 157 380 L161 380 L161 403 L-5 403 L-5 380 L3 380 C35 378 43 369 66 315 L202 -10 L168 -106 C155 -140 150 -144 114 -162 C81 -179 68 -195 68 -219 C68 -236 79 -248 96 -248 C126 -248 146 -221 176 -141 L337 292 C362 362 374 376 411 380 L415 380 L415 403 L288 403 L288 380 L295 380 C320 380 337 369 337 355 C337 347 337 347 318 300 L235 76 Z M144 622 C121 622 103 604 103 582 C103 559 121 541 144 541 C166 541 184 559 184 582 C184 604 166 622 144 622 L144 622 Z M309 622 C286 622 268 604 268 582 C268 559 286 541 309 541 C331 541 349 559 349 582 C349 604 331 622 309 622 L309 622 Z " />
<glyph glyph-name="Amacron" unicode="&#x100;" horiz-adv-x="595" d="M379 245 L425 122 C445 70 445 70 445 58 C445 31 429 23 379 23 L371 23 L371 0 L607 0 L607 23 L602 23 C552 33 547 40 508 146 L307 677 L290 677 L115 213 L94 156 C60 57 44 36 -4 24 L-12 23 L-12 0 L166 0 L166 23 L159 23 C125 23 101 48 101 83 C101 107 107 128 135 203 L151 245 L379 245 Z M371 268 L159 268 L265 552 L371 268 Z M149 792 L149 764 L437 764 L437 792 L149 792 Z " />
<glyph glyph-name="amacron" unicode="&#x101;" horiz-adv-x="425" d="M400 74 C395 43 382 26 363 26 C352 26 343 33 339 47 C335 58 335 58 335 115 L335 278 C335 327 333 340 322 360 C300 399 259 419 197 419 C147 419 108 407 80 383 C61 365 49 345 49 327 C49 310 60 298 76 298 C95 298 108 314 112 343 C116 364 117 368 123 376 C134 389 159 398 188 398 C224 398 251 383 264 355 C270 341 271 330 271 289 L271 269 L202 238 C84 184 35 136 35 76 C35 26 73 -10 125 -10 C165 -10 208 11 271 60 C279 12 301 -10 342 -10 C386 -10 414 21 416 74 L400 74 Z M271 246 L271 87 C230 48 193 26 167 26 C137 26 117 54 117 95 C117 146 156 194 222 224 L271 246 Z M88 565 L337 565 L337 588 L88 588 L88 565 Z " />
<glyph glyph-name="Abreve" unicode="&#x102;" horiz-adv-x="595" d="M379 245 L425 122 C445 70 445 70 445 58 C445 31 429 23 379 23 L371 23 L371 0 L607 0 L607 23 L602 23 C552 33 547 40 508 146 L307 677 L290 677 L115 213 L94 156 C60 57 44 36 -4 24 L-12 23 L-12 0 L166 0 L166 23 L159 23 C125 23 101 48 101 83 C101 107 107 128 135 203 L151 245 L379 245 Z M371 268 L159 268 L265 552 L371 268 Z M144 867 C161 773 218 716 295 716 C375 716 441 779 452 867 L439 867 C411 822 355 793 297 793 C239 793 195 816 157 867 L144 867 Z " />
<glyph glyph-name="abreve" unicode="&#x103;" horiz-adv-x="425" d="M400 74 C395 43 382 26 363 26 C352 26 343 33 339 47 C335 58 335 58 335 115 L335 278 C335 327 333 340 322 360 C300 399 259 419 197 419 C147 419 108 407 80 383 C61 365 49 345 49 327 C49 310 60 298 76 298 C95 298 108 314 112 343 C116 364 117 368 123 376 C134 389 159 398 188 398 C224 398 251 383 264 355 C270 341 271 330 271 289 L271 269 L202 238 C84 184 35 136 35 76 C35 26 73 -10 125 -10 C165 -10 208 11 271 60 C279 12 301 -10 342 -10 C386 -10 414 21 416 74 L400 74 Z M271 246 L271 87 C230 48 193 26 167 26 C137 26 117 54 117 95 C117 146 156 194 222 224 L271 246 Z M90 651 C99 564 148 510 217 510 C285 510 336 565 344 651 L328 651 C309 602 276 580 220 580 C156 580 120 602 105 651 L90 651 Z " />
<glyph glyph-name="Aogonek" unicode="&#x104;" horiz-adv-x="595" d="M607 0 L607 23 L602 23 C552 33 547 40 508 146 L307 677 L290 677 L115 213 L94 156 C60 57 44 36 -4 24 L-12 23 L-12 0 L166 0 L166 23 L159 23 C125 23 101 48 101 83 C101 107 107 128 135 203 L151 245 L379 245 L425 122 C445 70 445 70 445 58 C445 31 429 23 379 23 L371 23 L371 0 L522 0 C483 -25 459 -66 459 -106 C459 -151 493 -184 541 -184 C571 -184 594 -175 626 -151 L617 -135 C597 -143 588 -145 576 -145 C545 -145 525 -121 525 -83 C525 -52 534 -28 556 0 L607 0 Z M371 268 L159 268 L265 552 L371 268 Z " />
<glyph glyph-name="aogonek" unicode="&#x105;" horiz-adv-x="425" d="M400 74 C395 43 382 26 363 26 C352 26 343 33 339 47 C335 58 335 58 335 115 L335 278 C335 327 333 340 322 360 C300 399 259 419 197 419 C147 419 108 407 80 383 C61 365 49 345 49 327 C49 310 60 298 76 298 C95 298 108 314 112 343 C116 364 117 368 123 376 C134 389 159 398 188 398 C224 398 251 383 264 355 C270 341 271 330 271 289 L271 269 L202 238 C84 184 35 136 35 76 C35 26 73 -10 125 -10 C165 -10 208 11 271 60 C277 22 291 3 318 -6 C289 -29 272 -61 272 -94 C272 -136 304 -168 346 -168 C372 -168 393 -160 420 -138 L412 -124 C395 -130 387 -132 376 -132 C348 -132 329 -109 329 -75 C329 -51 336 -29 349 -10 C390 -6 414 24 416 74 L400 74 Z M271 246 L271 87 C230 48 193 26 167 26 C137 26 117 54 117 95 C117 146 156 194 222 224 L271 246 Z " />
<glyph glyph-name="Cacute" unicode="&#x106;" horiz-adv-x="653" d="M568 250 C559 166 522 87 477 55 C442 30 400 16 361 16 C236 16 155 137 155 325 C155 531 230 654 357 654 C424 654 489 617 523 560 C544 524 559 476 568 414 L587 414 L582 667 L562 667 C560 639 551 606 539 581 C494 641 416 679 336 679 C246 679 165 639 116 571 C69 504 42 415 42 321 C42 124 162 -12 337 -12 C419 -12 486 21 539 87 C552 70 564 41 568 17 L587 17 L587 250 L568 250 Z M388 847 L287 724 L307 724 L527 847 L388 847 Z " />
<glyph glyph-name="cacute" unicode="&#x107;" horiz-adv-x="388" d="M347 98 C332 41 294 10 240 10 C201 10 166 29 148 59 C128 95 115 154 115 215 C115 336 153 396 230 396 C267 396 282 385 288 351 C294 317 302 307 324 307 C339 307 351 321 351 341 C351 382 292 419 225 419 C116 419 33 323 33 197 C33 73 110 -16 217 -16 C294 -16 347 24 367 98 L347 98 Z M181 493 L197 493 L385 657 L287 657 L181 493 Z " />
<glyph glyph-name="Ccircumflex" unicode="&#x108;" horiz-adv-x="653" d="M568 250 C559 166 522 87 477 55 C442 30 400 16 361 16 C236 16 155 137 155 325 C155 531 230 654 357 654 C424 654 489 617 523 560 C544 524 559 476 568 414 L587 414 L582 667 L562 667 C560 639 551 606 539 581 C494 641 416 679 336 679 C246 679 165 639 116 571 C69 504 42 415 42 321 C42 124 162 -12 337 -12 C419 -12 486 21 539 87 C552 70 564 41 568 17 L587 17 L587 250 L568 250 Z M305 856 L181 725 L200 725 L328 802 L494 725 L513 725 L390 856 L305 856 Z " />
<glyph glyph-name="Cdotaccent" unicode="&#x10a;" horiz-adv-x="653" d="M568 250 C559 166 522 87 477 55 C442 30 400 16 361 16 C236 16 155 137 155 325 C155 531 230 654 357 654 C424 654 489 617 523 560 C544 524 559 476 568 414 L587 414 L582 667 L562 667 C560 639 551 606 539 581 C494 641 416 679 336 679 C246 679 165 639 116 571 C69 504 42 415 42 321 C42 124 162 -12 337 -12 C419 -12 486 21 539 87 C552 70 564 41 568 17 L587 17 L587 250 L568 250 Z M340 826 C313 826 290 804 290 777 C290 748 312 726 340 726 C368 726 390 749 390 776 C390 804 368 826 340 826 L340 826 Z " />
<glyph glyph-name="cdotaccent" unicode="&#x10b;" horiz-adv-x="388" d="M347 98 C332 41 294 10 240 10 C201 10 166 29 148 59 C128 95 115 154 115 215 C115 336 153 396 230 396 C267 396 282 385 288 351 C294 317 302 307 324 307 C339 307 351 321 351 341 C351 382 292 419 225 419 C116 419 33 323 33 197 C33 73 110 -16 217 -16 C294 -16 347 24 367 98 L347 98 Z M226 622 C203 622 185 604 185 582 C185 559 203 541 226 541 C248 541 266 559 266 582 C266 604 248 622 226 622 L226 622 Z " />
<glyph glyph-name="Ccaron" unicode="&#x10c;" horiz-adv-x="653" d="M568 250 C559 166 522 87 477 55 C442 30 400 16 361 16 C236 16 155 137 155 325 C155 531 230 654 357 654 C424 654 489 617 523 560 C544 524 559 476 568 414 L587 414 L582 667 L562 667 C560 639 551 606 539 581 C494 641 416 679 336 679 C246 679 165 639 116 571 C69 504 42 415 42 321 C42 124 162 -12 337 -12 C419 -12 486 21 539 87 C552 70 564 41 568 17 L587 17 L587 250 L568 250 Z M387 725 L511 856 L492 856 L364 779 L198 856 L179 856 L302 725 L387 725 Z " />
<glyph glyph-name="ccaron" unicode="&#x10d;" horiz-adv-x="388" d="M347 98 C332 41 294 10 240 10 C201 10 166 29 148 59 C128 95 115 154 115 215 C115 336 153 396 230 396 C267 396 282 385 288 351 C294 317 302 307 324 307 C339 307 351 321 351 341 C351 382 292 419 225 419 C116 419 33 323 33 197 C33 73 110 -16 217 -16 C294 -16 347 24 367 98 L347 98 Z M235 557 L127 657 L107 657 L200 492 L249 492 L338 657 L319 657 L235 557 Z " />
<glyph glyph-name="Dcaron" unicode="&#x10e;" horiz-adv-x="693" d="M30 639 L46 639 C118 641 123 631 122 495 L122 173 C123 36 117 23 50 23 L27 23 L27 0 L296 0 C353 0 362 0 374 1 C416 4 457 14 492 30 C595 76 651 182 651 328 C651 460 602 564 513 623 C459 658 389 674 290 674 C258 674 222 673 153 669 C94 665 67 664 30 662 L30 639 Z M218 648 C244 649 264 650 289 650 C366 650 408 637 451 600 C510 547 544 447 544 320 C544 212 518 128 470 78 C432 37 389 23 308 23 C256 23 239 29 229 48 C219 69 218 81 218 202 L218 648 Z M361 725 L485 856 L466 856 L338 779 L172 856 L153 856 L276 725 L361 725 Z " />
<glyph glyph-name="dcaron" unicode="&#x10f;" horiz-adv-x="559" d="M337 360 C301 397 253 419 207 419 C107 419 32 325 32 199 C32 79 108 -16 203 -16 C252 -16 297 7 342 57 C341 52 341 47 341 46 C341 22 343 3 347 -16 C381 -9 431 -4 464 -3 L464 19 L459 19 C409 21 407 26 408 135 L408 677 L398 677 C362 665 311 656 278 656 L278 633 L286 633 C336 631 338 626 337 518 L337 360 Z M337 84 C308 39 268 13 227 13 C157 13 114 85 114 203 C114 322 154 388 224 388 C264 388 296 372 337 331 L337 84 Z M456 465 C518 479 556 525 556 585 C556 638 527 677 487 677 C459 677 440 658 440 629 C440 603 459 585 485 585 C489 585 492 585 494 586 C506 590 506 590 510 590 C520 590 526 580 526 565 C526 529 499 499 456 487 L456 465 Z " />
<glyph glyph-name="Dcroat" unicode="&#x110;" horiz-adv-x="694" d="M124 317 L124 173 C125 37 119 23 51 23 L28 23 L28 0 L296 0 C353 0 362 0 374 1 C416 4 458 14 493 30 C595 76 652 182 652 328 C652 460 603 564 514 623 C460 658 390 674 294 674 C249 674 239 674 57 663 L30 662 L30 639 L47 639 C120 641 125 630 124 495 L124 344 L27 344 L27 317 L124 317 Z M220 317 L368 317 L368 344 L220 344 L220 648 C244 649 263 650 291 650 C367 650 410 637 452 600 C511 547 545 446 545 319 C545 212 519 128 471 78 C433 37 390 23 310 23 C258 23 241 29 231 48 C221 68 220 81 220 202 L220 317 Z " />
<glyph glyph-name="dcroat" unicode="&#x111;" horiz-adv-x="473" d="M337 519 L337 360 C301 397 253 419 207 419 C106 419 32 325 32 199 C32 79 108 -16 203 -16 C252 -16 297 7 342 57 C341 52 341 47 341 46 C341 22 343 3 347 -16 C381 -9 431 -4 464 -3 L464 19 L459 19 C409 21 407 26 408 135 L408 519 L464 519 L464 542 L408 542 L408 677 L398 677 C363 665 310 656 278 656 L278 633 L286 633 C330 633 338 621 337 556 L337 542 L192 542 L192 519 L337 519 Z M337 84 C308 39 268 13 227 13 C157 13 114 85 114 203 C114 322 154 388 224 388 C264 388 296 372 337 331 L337 84 Z " />
<glyph glyph-name="Emacron" unicode="&#x112;" horiz-adv-x="564" d="M516 207 C484 72 433 19 337 23 L293 23 C212 22 208 30 208 183 L208 340 L272 340 C343 342 356 327 358 244 L358 235 L378 235 L378 464 L358 464 L358 456 C359 379 344 364 270 364 L208 364 L208 644 L289 644 C405 648 437 622 461 500 L482 500 L468 667 L39 667 L39 644 L46 644 C107 644 113 631 112 500 L112 173 C113 37 107 24 39 23 L27 23 L27 0 L524 0 L536 207 L516 207 Z M135 792 L135 764 L424 764 L424 792 L135 792 Z " />
<glyph glyph-name="emacron" unicode="&#x113;" horiz-adv-x="394" d="M361 266 C358 354 293 419 209 419 C108 419 33 325 33 198 C33 76 110 -16 213 -16 C283 -16 342 26 361 90 L340 90 C319 38 280 10 229 10 C156 10 115 81 115 209 C115 224 116 236 118 266 L361 266 Z M119 286 C124 322 127 337 136 353 C152 382 178 398 207 398 C253 398 285 361 285 307 C285 300 285 295 283 286 L119 286 Z M85 565 L334 565 L334 588 L85 588 L85 565 Z " />
<glyph glyph-name="Ebreve" unicode="&#x114;" horiz-adv-x="564" d="M516 207 C484 72 433 19 337 23 L293 23 C212 22 208 30 208 183 L208 340 L272 340 C343 342 356 327 358 244 L358 235 L378 235 L378 464 L358 464 L358 456 C359 379 344 364 270 364 L208 364 L208 644 L289 644 C405 648 437 622 461 500 L482 500 L468 667 L39 667 L39 644 L46 644 C107 644 113 631 112 500 L112 173 C113 37 107 24 39 23 L27 23 L27 0 L524 0 L536 207 L516 207 Z M134 867 C151 773 209 716 285 716 C366 716 431 779 443 867 L430 867 C402 822 345 793 288 793 C229 793 186 816 147 867 L134 867 Z " />
<glyph glyph-name="ebreve" unicode="&#x115;" horiz-adv-x="394" d="M361 266 C358 354 293 419 209 419 C108 419 33 325 33 198 C33 76 110 -16 213 -16 C283 -16 342 26 361 90 L340 90 C319 38 280 10 229 10 C156 10 115 81 115 209 C115 224 116 236 118 266 L361 266 Z M119 286 C124 322 127 337 136 353 C152 382 178 398 207 398 C253 398 285 361 285 307 C285 300 285 295 283 286 L119 286 Z M84 651 C93 564 142 510 211 510 C280 510 330 565 339 651 L323 651 C304 602 270 580 214 580 C151 580 115 602 100 651 L84 651 Z " />
<glyph glyph-name="Edotaccent" unicode="&#x116;" horiz-adv-x="564" d="M516 207 C484 72 433 19 337 23 L293 23 C212 22 208 30 208 183 L208 340 L272 340 C343 342 356 327 358 244 L358 235 L378 235 L378 464 L358 464 L358 456 C359 379 344 364 270 364 L208 364 L208 644 L289 644 C405 648 437 622 461 500 L482 500 L468 667 L39 667 L39 644 L46 644 C107 644 113 631 112 500 L112 173 C113 37 107 24 39 23 L27 23 L27 0 L524 0 L536 207 L516 207 Z M286 826 C259 826 236 804 236 777 C236 748 258 726 286 726 C314 726 336 749 336 776 C336 804 314 826 286 826 L286 826 Z " />
<glyph glyph-name="edotaccent" unicode="&#x117;" horiz-adv-x="394" d="M361 266 C358 354 293 419 209 419 C108 419 33 325 33 198 C33 76 110 -16 213 -16 C283 -16 342 26 361 90 L340 90 C319 38 280 10 229 10 C156 10 115 81 115 209 C115 224 116 236 118 266 L361 266 Z M119 286 C124 322 127 337 136 353 C152 382 178 398 207 398 C253 398 285 361 285 307 C285 300 285 295 283 286 L119 286 Z M219 622 C196 622 178 604 178 582 C178 559 196 541 219 541 C241 541 259 559 259 582 C259 604 241 622 219 622 L219 622 Z " />
<glyph glyph-name="Eogonek" unicode="&#x118;" horiz-adv-x="564" d="M524 0 L536 207 L516 207 C484 72 433 19 337 23 L293 23 C212 22 208 30 208 183 L208 340 L272 340 C343 342 356 327 358 244 L358 235 L378 235 L378 464 L358 464 L358 456 C359 379 344 364 270 364 L208 364 L208 644 L289 644 C405 648 437 622 461 500 L482 500 L468 667 L39 667 L39 644 L46 644 C107 644 113 631 112 500 L112 173 C113 37 107 24 39 23 L27 23 L27 0 L414 0 C375 -24 351 -66 351 -106 C351 -151 385 -184 433 -184 C462 -184 486 -175 518 -151 L509 -135 C489 -143 480 -145 468 -145 C437 -145 417 -121 417 -83 C417 -52 426 -28 448 0 L524 0 Z " />
<glyph glyph-name="eogonek" unicode="&#x119;" horiz-adv-x="394" d="M340 90 C319 38 280 10 229 10 C156 10 115 81 115 209 C115 224 116 236 118 266 L361 266 C358 354 293 419 209 419 C108 419 33 325 33 198 C33 76 110 -16 213 -16 C222 -16 228 -15 239 -14 C214 -37 201 -65 201 -94 C201 -136 233 -168 275 -168 C301 -168 322 -159 349 -138 L341 -124 C324 -130 316 -132 305 -132 C277 -132 258 -109 258 -75 C258 -45 268 -19 289 2 C325 21 351 53 361 90 L340 90 Z M119 286 C124 322 127 337 136 353 C152 382 178 398 207 398 C253 398 285 361 285 307 C285 300 285 295 283 286 L119 286 Z " />
<glyph glyph-name="Ecaron" unicode="&#x11a;" horiz-adv-x="564" d="M516 207 C484 72 433 19 337 23 L293 23 C212 22 208 30 208 183 L208 340 L272 340 C343 342 356 327 358 244 L358 235 L378 235 L378 464 L358 464 L358 456 C359 379 344 364 270 364 L208 364 L208 644 L289 644 C405 648 437 622 461 500 L482 500 L468 667 L39 667 L39 644 L46 644 C107 644 113 631 112 500 L112 173 C113 37 107 24 39 23 L27 23 L27 0 L524 0 L536 207 L516 207 Z M329 725 L453 856 L434 856 L306 779 L140 856 L121 856 L244 725 L329 725 Z " />
<glyph glyph-name="ecaron" unicode="&#x11b;" horiz-adv-x="394" d="M361 266 C358 354 293 419 209 419 C108 419 33 325 33 198 C33 76 110 -16 213 -16 C283 -16 342 26 361 90 L340 90 C319 38 280 10 229 10 C156 10 115 81 115 209 C115 224 116 236 118 266 L361 266 Z M119 286 C124 322 127 337 136 353 C152 382 178 398 207 398 C253 398 285 361 285 307 C285 300 285 295 283 286 L119 286 Z M230 557 L122 657 L102 657 L195 492 L244 492 L333 657 L314 657 L230 557 Z " />
<glyph glyph-name="Gcircumflex" unicode="&#x11c;" horiz-adv-x="693" d="M414 285 L414 261 L428 261 C489 264 502 249 503 178 L503 152 C503 104 490 71 460 47 C433 25 397 12 359 12 C306 12 249 39 217 80 C175 134 154 218 154 337 C154 446 171 523 204 572 C241 625 298 656 360 656 C467 656 546 569 563 432 L584 432 L584 655 L563 655 C560 629 553 601 544 581 C491 648 426 680 345 680 C260 680 184 646 134 586 C76 517 42 418 42 321 C42 129 169 -12 342 -12 C391 -12 424 -5 481 20 C518 35 548 43 570 43 C577 43 581 43 589 41 L589 112 C588 248 594 261 665 261 L672 261 L672 285 L414 285 Z M318 856 L194 725 L213 725 L341 802 L507 725 L526 725 L403 856 L318 856 Z " />
<glyph glyph-name="gcircumflex" unicode="&#x11d;" horiz-adv-x="425" d="M311 368 C283 400 239 419 193 419 C111 419 45 354 45 272 C45 215 74 166 130 129 C77 119 49 90 49 48 C49 -5 89 -27 198 -32 C262 -36 275 -38 299 -49 C328 -63 343 -89 343 -126 C343 -188 292 -228 211 -228 C124 -228 70 -189 70 -127 C70 -103 77 -81 94 -57 C88 -55 86 -55 81 -55 C47 -55 26 -81 26 -122 C26 -197 99 -248 208 -248 C322 -248 393 -193 393 -104 C393 -59 375 -20 344 2 C317 22 280 31 211 35 C155 39 146 39 132 42 C103 46 89 57 89 74 C89 100 118 113 181 116 C227 117 249 123 276 139 C319 164 345 213 345 270 C345 300 338 327 322 355 C336 371 349 380 360 380 C369 380 372 377 380 362 C387 349 396 342 405 342 C421 342 432 356 432 374 C432 397 413 415 387 415 C362 415 336 399 311 368 L311 368 Z M193 396 C214 396 236 384 249 363 C263 342 269 314 269 268 C269 184 243 138 194 138 C146 138 119 182 119 264 C119 349 145 396 193 396 L193 396 Z M196 596 L303 496 L323 496 L230 661 L181 661 L92 496 L112 496 L196 596 Z " />
<glyph glyph-name="Gbreve" unicode="&#x11e;" horiz-adv-x="693" d="M414 285 L414 261 L428 261 C489 264 502 249 503 178 L503 152 C503 104 490 71 460 47 C433 25 397 12 359 12 C306 12 249 39 217 80 C175 134 154 218 154 337 C154 446 171 523 204 572 C241 625 298 656 360 656 C467 656 546 569 563 432 L584 432 L584 655 L563 655 C560 629 553 601 544 581 C491 648 426 680 345 680 C260 680 184 646 134 586 C76 517 42 418 42 321 C42 129 169 -12 342 -12 C391 -12 424 -5 481 20 C518 35 548 43 570 43 C577 43 581 43 589 41 L589 112 C588 248 594 261 665 261 L672 261 L672 285 L414 285 Z M193 867 C210 773 267 716 344 716 C424 716 490 779 501 867 L488 867 C461 822 404 793 346 793 C288 793 244 816 206 867 L193 867 Z " />
<glyph glyph-name="gbreve" unicode="&#x11f;" horiz-adv-x="425" d="M311 368 C283 400 239 419 193 419 C111 419 45 354 45 272 C45 215 74 166 130 129 C77 119 49 90 49 48 C49 -5 89 -27 198 -32 C262 -36 275 -38 299 -49 C328 -63 343 -89 343 -126 C343 -188 292 -228 211 -228 C124 -228 70 -189 70 -127 C70 -103 77 -81 94 -57 C88 -55 86 -55 81 -55 C47 -55 26 -81 26 -122 C26 -197 99 -248 208 -248 C322 -248 393 -193 393 -104 C393 -59 375 -20 344 2 C317 22 280 31 211 35 C155 39 146 39 132 42 C103 46 89 57 89 74 C89 100 118 113 181 116 C227 117 249 123 276 139 C319 164 345 213 345 270 C345 300 338 327 322 355 C336 371 349 380 360 380 C369 380 372 377 380 362 C387 349 396 342 405 342 C421 342 432 356 432 374 C432 397 413 415 387 415 C362 415 336 399 311 368 L311 368 Z M193 396 C214 396 236 384 249 363 C263 342 269 314 269 268 C269 184 243 138 194 138 C146 138 119 182 119 264 C119 349 145 396 193 396 L193 396 Z M74 651 C83 564 132 510 201 510 C270 510 320 565 329 651 L313 651 C294 602 260 580 204 580 C140 580 105 602 90 651 L74 651 Z " />
<glyph glyph-name="Gdotaccent" unicode="&#x120;" horiz-adv-x="693" d="M414 285 L414 261 L428 261 C489 264 502 249 503 178 L503 152 C503 104 490 71 460 47 C433 25 397 12 359 12 C306 12 249 39 217 80 C175 134 154 218 154 337 C154 446 171 523 204 572 C241 625 298 656 360 656 C467 656 546 569 563 432 L584 432 L584 655 L563 655 C560 629 553 601 544 581 C491 648 426 680 345 680 C260 680 184 646 134 586 C76 517 42 418 42 321 C42 129 169 -12 342 -12 C391 -12 424 -5 481 20 C518 35 548 43 570 43 C577 43 581 43 589 41 L589 112 C588 248 594 261 665 261 L672 261 L672 285 L414 285 Z M349 826 C322 826 299 804 299 777 C299 748 321 726 349 726 C377 726 399 749 399 776 C399 804 377 826 349 826 L349 826 Z " />
<glyph glyph-name="gdotaccent" unicode="&#x121;" horiz-adv-x="425" d="M311 368 C283 400 239 419 193 419 C111 419 45 354 45 272 C45 215 74 166 130 129 C77 119 49 90 49 48 C49 -5 89 -27 198 -32 C262 -36 275 -38 299 -49 C328 -63 343 -89 343 -126 C343 -188 292 -228 211 -228 C124 -228 70 -189 70 -127 C70 -103 77 -81 94 -57 C88 -55 86 -55 81 -55 C47 -55 26 -81 26 -122 C26 -197 99 -248 208 -248 C322 -248 393 -193 393 -104 C393 -59 375 -20 344 2 C317 22 280 31 211 35 C155 39 146 39 132 42 C103 46 89 57 89 74 C89 100 118 113 181 116 C227 117 249 123 276 139 C319 164 345 213 345 270 C345 300 338 327 322 355 C336 371 349 380 360 380 C369 380 372 377 380 362 C387 349 396 342 405 342 C421 342 432 356 432 374 C432 397 413 415 387 415 C362 415 336 399 311 368 L311 368 Z M193 396 C214 396 236 384 249 363 C263 342 269 314 269 268 C269 184 243 138 194 138 C146 138 119 182 119 264 C119 349 145 396 193 396 L193 396 Z M202 622 C179 622 161 604 161 582 C161 559 179 541 202 541 C224 541 242 559 242 582 C242 604 224 622 202 622 L202 622 Z " />
<glyph glyph-name="Gcommaaccent" unicode="&#x122;" horiz-adv-x="693" d="M414 285 L414 261 L428 261 C489 264 502 249 503 178 L503 152 C503 104 490 71 460 47 C433 25 397 12 359 12 C306 12 249 39 217 80 C175 134 154 218 154 337 C154 446 171 523 204 572 C241 625 298 656 360 656 C467 656 546 569 563 432 L584 432 L584 655 L563 655 C560 629 553 601 544 581 C491 648 426 680 345 680 C260 680 184 646 134 586 C76 517 42 418 42 321 C42 129 169 -12 342 -12 C391 -12 424 -5 481 20 C518 35 548 43 570 43 C577 43 581 43 589 41 L589 112 C588 248 594 261 665 261 L672 261 L672 285 L414 285 Z M299 -286 C367 -271 408 -222 408 -157 C408 -100 377 -59 333 -59 C303 -59 282 -79 282 -110 C282 -138 302 -157 331 -157 C335 -157 338 -157 340 -156 C353 -152 353 -152 357 -152 C369 -152 375 -162 375 -179 C375 -218 346 -249 299 -262 L299 -286 Z " />
<glyph glyph-name="gcommaaccent" unicode="&#x123;" horiz-adv-x="425" d="M311 368 C283 400 239 419 193 419 C111 419 45 354 45 272 C45 215 74 166 130 129 C77 119 49 90 49 48 C49 -5 89 -27 198 -32 C262 -36 275 -38 299 -49 C328 -63 343 -89 343 -126 C343 -188 292 -228 211 -228 C124 -228 70 -189 70 -127 C70 -103 77 -81 94 -57 C88 -55 86 -55 81 -55 C47 -55 26 -81 26 -122 C26 -197 99 -248 208 -248 C322 -248 393 -193 393 -104 C393 -59 375 -20 344 2 C317 22 280 31 211 35 C155 39 146 39 132 42 C103 46 89 57 89 74 C89 100 118 113 181 116 C227 117 249 123 276 139 C319 164 345 213 345 270 C345 300 338 327 322 355 C336 371 349 380 360 380 C369 380 372 377 380 362 C387 349 396 342 405 342 C421 342 432 356 432 374 C432 397 413 415 387 415 C362 415 336 399 311 368 L311 368 Z M193 396 C214 396 236 384 249 363 C263 342 269 314 269 268 C269 184 243 138 194 138 C146 138 119 182 119 264 C119 349 145 396 193 396 L193 396 Z M240 670 C178 656 140 610 140 550 C140 496 169 458 209 458 C238 458 257 477 257 506 C257 532 238 550 211 550 C208 550 205 550 202 549 C190 545 190 545 186 545 C176 545 170 554 170 570 C170 606 197 636 240 647 L240 670 Z " />
<glyph glyph-name="Hcircumflex" unicode="&#x124;" horiz-adv-x="722" d="M514 334 L514 173 C515 36 509 23 442 23 L422 23 L422 0 L695 0 L695 23 L682 23 C615 23 609 36 610 173 L610 500 C609 636 614 646 687 644 L695 644 L695 667 L422 667 L422 644 L437 644 C510 646 515 636 514 500 L514 368 L210 368 L210 500 C209 636 214 646 286 644 L297 644 L297 667 L27 667 L27 644 L37 644 C110 646 115 636 114 500 L114 173 C115 36 109 23 42 23 L27 23 L27 0 L297 0 L297 23 L282 23 C215 23 209 36 210 173 L210 334 L514 334 Z M322 856 L198 725 L217 725 L345 802 L511 725 L530 725 L407 856 L322 856 Z " />
<glyph glyph-name="Hbar" unicode="&#x126;" horiz-adv-x="722" d="M114 443 L114 173 C115 36 109 23 42 23 L27 23 L27 0 L297 0 L297 23 L282 23 C215 23 209 36 210 173 L210 334 L514 334 L514 173 C515 36 509 23 442 23 L422 23 L422 0 L695 0 L695 23 L682 23 C615 23 609 36 610 173 L610 443 L680 443 L680 471 L610 471 L610 501 C609 636 614 646 687 644 L695 644 L695 667 L422 667 L422 644 L437 644 C510 646 515 636 514 501 L514 471 L210 471 L210 501 C209 636 214 646 286 644 L297 644 L297 667 L27 667 L27 644 L37 644 C110 646 115 636 114 501 L114 471 L40 471 L40 443 L114 443 Z M210 443 L514 443 L514 368 L210 368 L210 443 Z " />
<glyph glyph-name="hbar" unicode="&#x127;" horiz-adv-x="481" d="M81 519 L81 138 C82 29 80 25 30 23 L21 23 L21 0 L205 0 L205 23 L202 23 C153 24 150 30 152 138 L152 300 C177 357 215 389 257 389 C284 389 307 377 320 355 C330 338 333 315 333 259 L333 138 C334 29 332 25 282 23 L274 23 L274 0 L461 0 L461 23 L454 23 C405 24 402 29 404 138 L404 249 C404 316 400 343 387 365 C368 399 329 419 282 419 C230 419 188 392 152 337 L152 519 L310 519 L310 542 L152 542 L152 677 L141 677 C125 667 54 655 24 656 L24 633 L30 633 C73 633 82 616 81 542 L25 542 L25 519 L81 519 Z " />
<glyph glyph-name="Imacron" unicode="&#x12a;" horiz-adv-x="328" d="M27 644 L39 644 C112 646 117 636 116 501 L116 173 C117 36 111 23 44 23 L27 23 L27 0 L301 0 L301 23 L285 23 C217 23 211 36 212 173 L212 501 C211 636 216 646 289 644 L301 644 L301 667 L27 667 L27 644 Z M20 792 L20 764 L308 764 L308 792 L20 792 Z " />
<glyph glyph-name="imacron" unicode="&#x12b;" horiz-adv-x="227" d="M150 419 L139 419 C121 411 55 397 14 393 L14 370 L25 370 C75 371 79 363 79 260 L79 138 C80 29 78 25 28 23 L14 23 L14 0 L209 0 L209 23 L201 23 C151 24 149 30 150 138 L150 419 Z M-13 565 L215 565 L215 588 L-13 588 L-13 565 Z " />
<glyph glyph-name="ibreve" unicode="&#x12d;" horiz-adv-x="227" d="M150 419 L139 419 C121 411 55 397 14 393 L14 370 L25 370 C75 371 79 363 79 260 L79 138 C80 29 78 25 28 23 L14 23 L14 0 L209 0 L209 23 L201 23 C151 24 149 30 150 138 L150 419 Z M-16 651 C-7 564 42 510 111 510 C180 510 230 565 239 651 L223 651 C204 602 170 580 114 580 C50 580 15 602 0 651 L-16 651 Z " />
<glyph glyph-name="Iogonek" unicode="&#x12e;" horiz-adv-x="328" d="M301 0 L301 23 L285 23 C217 23 211 36 212 173 L212 501 C211 636 216 646 289 644 L301 644 L301 667 L27 667 L27 644 L39 644 C112 646 117 636 116 501 L116 173 C117 36 111 23 44 23 L27 23 L27 0 L189 0 C150 -25 126 -66 126 -106 C126 -151 160 -184 208 -184 C237 -184 261 -175 293 -151 L284 -135 C264 -143 255 -145 243 -145 C212 -145 192 -121 192 -83 C192 -52 201 -28 223 0 L301 0 Z " />
<glyph glyph-name="iogonek" unicode="&#x12f;" horiz-adv-x="227" d="M209 0 L209 23 L201 23 C151 24 149 30 150 138 L150 419 L139 419 C121 411 55 397 14 393 L14 370 L25 370 C75 371 79 363 79 260 L79 138 C80 29 78 25 28 23 L14 23 L14 0 L132 0 C97 -22 76 -58 76 -94 C76 -136 108 -168 150 -168 C176 -168 197 -160 224 -138 L216 -124 C199 -130 192 -132 180 -132 C152 -132 133 -109 133 -75 C133 -47 143 -20 161 0 L209 0 Z M106 677 C78 677 55 654 55 626 C55 596 78 573 106 573 C134 573 157 596 157 625 C157 654 134 677 106 677 L106 677 Z " />
<glyph glyph-name="Idotaccent" unicode="&#x130;" horiz-adv-x="328" d="M27 644 L39 644 C112 646 117 636 116 501 L116 173 C117 36 111 23 44 23 L27 23 L27 0 L301 0 L301 23 L285 23 C217 23 211 36 212 173 L212 501 C211 636 216 646 289 644 L301 644 L301 667 L27 667 L27 644 Z M164 826 C137 826 114 804 114 777 C114 748 136 726 164 726 C192 726 214 749 214 776 C214 804 192 826 164 826 L164 826 Z " />
<glyph glyph-name="dotlessi" unicode="&#x131;" horiz-adv-x="227" d="M150 419 L139 419 C121 411 55 397 14 393 L14 370 L25 370 C75 371 79 363 79 260 L79 138 C80 29 78 25 28 23 L14 23 L14 0 L209 0 L209 23 L201 23 C151 24 149 30 150 138 L150 419 Z " />
<glyph glyph-name="Kcommaaccent" unicode="&#x136;" horiz-adv-x="673" d="M212 327 L212 501 C211 636 216 646 288 644 L299 644 L299 667 L34 667 L34 644 L39 644 C112 646 117 636 116 501 L116 173 C117 36 111 23 44 23 L26 23 L26 0 L295 0 L295 23 L284 23 C217 23 211 36 212 173 L212 295 L252 337 L420 147 C468 93 483 71 483 55 C483 31 464 23 408 23 L397 23 L397 0 L708 0 L708 23 L701 23 C641 30 639 32 537 146 L312 399 L421 511 C518 614 554 639 611 644 L616 644 L616 667 L390 667 L390 644 L395 644 C434 643 454 629 454 602 C454 581 444 566 390 511 L212 327 Z M269 -286 C337 -271 378 -222 378 -157 C378 -100 347 -59 303 -59 C273 -59 252 -79 252 -110 C252 -138 272 -157 301 -157 C305 -157 308 -157 310 -156 C323 -152 323 -152 327 -152 C339 -152 345 -162 345 -179 C345 -218 316 -249 269 -262 L269 -286 Z " />
<glyph glyph-name="kcommaaccent" unicode="&#x137;" horiz-adv-x="415" d="M240 403 L240 380 L247 380 C265 380 274 372 274 358 C274 338 248 308 183 253 L147 223 L147 677 L136 677 C121 668 49 655 21 656 L21 633 L27 633 C68 633 77 616 76 542 L76 138 C77 29 75 25 26 23 L12 23 L12 0 L196 0 L196 23 L194 23 C148 25 146 31 147 138 L147 196 L165 212 L255 92 C285 53 285 53 285 44 C285 30 272 24 244 23 L240 23 L240 0 L421 0 L421 23 L416 23 C390 27 374 40 340 85 L211 253 L239 277 L278 314 C321 358 351 377 382 380 L386 380 L386 403 L240 403 Z M167 -271 C229 -257 267 -211 267 -151 C267 -97 238 -59 198 -59 C170 -59 151 -78 151 -107 C151 -133 170 -151 196 -151 C200 -151 203 -151 205 -150 C217 -146 217 -146 221 -146 C231 -146 237 -156 237 -171 C237 -207 210 -237 167 -248 L167 -271 Z " />
<glyph glyph-name="Lacute" unicode="&#x139;" horiz-adv-x="553" d="M541 197 L520 197 C485 57 445 18 343 23 L298 23 C215 24 210 32 212 152 L212 501 C211 636 216 646 289 644 L315 644 L315 667 L27 667 L27 644 L39 644 C112 646 117 636 116 501 L116 174 C117 36 111 24 44 23 L27 23 L27 0 L536 0 L541 197 Z M263 847 L162 724 L181 724 L402 847 L263 847 Z " />
<glyph glyph-name="lacute" unicode="&#x13a;" horiz-adv-x="223" d="M148 677 L138 677 C122 667 50 655 21 656 L21 633 L26 633 C70 633 79 616 77 537 L77 138 C78 29 76 25 27 23 L15 23 L15 0 L209 0 L209 23 L199 23 C149 24 147 30 148 138 L148 677 Z M169 847 L67 724 L87 724 L308 847 L169 847 Z " />
<glyph glyph-name="Lcommaaccent" unicode="&#x13b;" horiz-adv-x="553" d="M541 197 L520 197 C485 57 445 18 343 23 L298 23 C215 24 210 32 212 152 L212 501 C211 636 216 646 289 644 L315 644 L315 667 L27 667 L27 644 L39 644 C112 646 117 636 116 501 L116 174 C117 36 111 24 44 23 L27 23 L27 0 L536 0 L541 197 Z M256 -286 C324 -270 365 -222 365 -157 C365 -100 333 -59 290 -59 C259 -59 238 -79 238 -110 C238 -137 258 -157 287 -157 C291 -157 295 -157 297 -156 C310 -152 310 -152 314 -152 C325 -152 332 -162 332 -179 C332 -218 303 -249 256 -262 L256 -286 Z " />
<glyph glyph-name="lcommaaccent" unicode="&#x13c;" horiz-adv-x="223" d="M148 677 L138 677 C122 667 50 655 21 656 L21 633 L26 633 C70 633 79 616 77 537 L77 138 C78 29 76 25 27 23 L15 23 L15 0 L209 0 L209 23 L199 23 C149 24 147 30 148 138 L148 677 Z M80 -271 C142 -257 180 -211 180 -151 C180 -97 151 -59 111 -59 C83 -59 64 -78 64 -107 C64 -133 83 -151 109 -151 C113 -151 116 -151 118 -150 C130 -146 130 -146 134 -146 C144 -146 150 -156 150 -171 C150 -207 123 -237 80 -248 L80 -271 Z " />
<glyph glyph-name="Lcaron" unicode="&#x13d;" horiz-adv-x="553" d="M541 197 L520 197 C485 57 445 18 343 23 L298 23 C215 24 210 32 212 152 L212 501 C211 636 216 646 289 644 L315 644 L315 667 L27 667 L27 644 L39 644 C112 646 117 636 116 501 L116 174 C117 36 111 24 44 23 L27 23 L27 0 L536 0 L541 197 Z M361 440 C429 456 470 504 470 569 C470 626 438 667 395 667 C364 667 343 647 343 616 C343 589 363 569 392 569 C396 569 400 569 402 570 C415 574 415 574 419 574 C430 574 437 564 437 547 C437 508 408 477 361 465 L361 440 Z " />
<glyph glyph-name="lcaron" unicode="&#x13e;" horiz-adv-x="299" d="M148 677 L138 677 C122 667 50 655 21 656 L21 633 L26 633 C70 633 79 616 77 537 L77 138 C78 29 76 25 27 23 L15 23 L15 0 L209 0 L209 23 L199 23 C149 24 147 30 148 138 L148 677 Z M196 465 C257 479 295 525 295 585 C295 638 266 677 226 677 C198 677 179 658 179 629 C179 603 198 585 224 585 C228 585 231 585 233 586 C245 590 245 590 249 590 C259 590 265 580 265 565 C265 529 238 499 196 487 L196 465 Z " />
<glyph glyph-name="Ldot" unicode="&#x13f;" horiz-adv-x="553" d="M541 197 L520 197 C485 57 445 18 343 23 L298 23 C215 24 210 32 212 152 L212 501 C211 636 216 646 289 644 L315 644 L315 667 L27 667 L27 644 L39 644 C112 646 117 636 116 501 L116 174 C117 36 111 24 44 23 L27 23 L27 0 L536 0 L541 197 Z M354 357 C331 357 313 339 313 317 C313 294 331 276 354 276 C376 276 394 294 394 317 C394 339 376 357 354 357 L354 357 Z " />
<glyph glyph-name="ldot" unicode="&#x140;" horiz-adv-x="273" d="M148 677 L138 677 C122 667 50 655 21 656 L21 633 L26 633 C70 633 79 616 77 537 L77 138 C78 29 76 25 27 23 L15 23 L15 0 L209 0 L209 23 L199 23 C149 24 147 30 148 138 L148 677 Z M232 359 C209 359 191 341 191 319 C191 296 209 278 232 278 C254 278 272 296 272 319 C272 341 254 359 232 359 L232 359 Z " />
<glyph glyph-name="Lslash" unicode="&#x141;" horiz-adv-x="553" d="M116 265 L116 174 C117 36 111 24 44 23 L27 23 L27 0 L537 0 L541 197 L520 197 C487 59 445 18 344 23 L299 23 C215 24 210 32 212 152 L212 356 L328 466 L328 501 L212 392 L212 501 C211 636 216 646 290 644 L315 644 L315 667 L27 667 L27 644 L40 644 C112 646 117 636 116 501 L116 301 L33 220 L33 185 L116 265 Z " />
<glyph glyph-name="lslash" unicode="&#x142;" horiz-adv-x="225" d="M149 357 L149 677 L139 677 C123 667 51 655 22 656 L22 633 L28 633 C71 633 80 616 78 537 L78 293 L16 238 L16 202 L78 258 L78 138 C79 29 77 25 28 23 L16 23 L16 0 L210 0 L210 23 L200 23 C150 24 148 30 149 138 L149 321 L210 375 L210 411 L149 357 Z " />
<glyph glyph-name="Nacute" unicode="&#x143;" horiz-adv-x="688" d="M560 -15 L581 -15 L581 537 C578 609 598 635 666 644 L674 644 L674 667 L456 667 L456 644 L467 644 C539 638 559 615 557 544 L557 145 L203 667 L25 667 L25 644 L30 644 C106 646 112 636 113 501 L113 147 C113 87 112 77 106 64 C97 43 64 26 28 23 L18 23 L18 0 L242 0 L242 23 L235 23 C166 26 136 52 138 108 L137 147 L137 610 L560 -15 Z M421 847 L320 724 L340 724 L560 847 L421 847 Z " />
<glyph glyph-name="nacute" unicode="&#x144;" horiz-adv-x="481" d="M125 419 C87 407 62 401 25 396 L25 374 L31 374 C81 372 83 367 82 258 L82 138 C83 29 81 24 31 23 L25 23 L25 0 L208 0 L208 23 L203 23 C153 24 150 30 152 138 L152 303 C185 360 222 388 264 388 C290 388 312 375 324 353 C333 335 335 326 335 268 L335 138 C336 29 334 24 284 23 L276 23 L276 0 L461 0 L461 23 L456 23 C407 24 404 30 406 138 L406 264 C406 328 403 343 390 367 C373 400 336 419 292 419 C241 419 193 391 152 336 C151 362 144 406 138 419 L125 419 Z M209 493 L225 493 L413 657 L315 657 L209 493 Z " />
<glyph glyph-name="Ncommaaccent" unicode="&#x145;" horiz-adv-x="688" d="M560 -15 L581 -15 L581 537 C578 609 598 635 666 644 L674 644 L674 667 L456 667 L456 644 L467 644 C539 638 559 615 557 544 L557 145 L203 667 L25 667 L25 644 L30 644 C106 646 112 636 113 501 L113 147 C113 87 112 77 106 64 C97 43 64 26 28 23 L18 23 L18 0 L242 0 L242 23 L235 23 C166 26 136 52 138 108 L137 147 L137 610 L560 -15 Z M296 -286 C364 -270 405 -222 405 -157 C405 -100 373 -59 330 -59 C299 -59 278 -79 278 -110 C278 -137 298 -157 327 -157 C331 -157 335 -157 337 -156 C350 -152 350 -152 354 -152 C365 -152 372 -162 372 -179 C372 -218 343 -249 296 -262 L296 -286 Z " />
<glyph glyph-name="ncommaaccent" unicode="&#x146;" horiz-adv-x="481" d="M125 419 C87 407 62 401 25 396 L25 374 L31 374 C81 372 83 367 82 258 L82 138 C83 29 81 24 31 23 L25 23 L25 0 L208 0 L208 23 L203 23 C153 24 150 30 152 138 L152 303 C185 360 222 388 264 388 C290 388 312 375 324 353 C333 335 335 326 335 268 L335 138 C336 29 334 24 284 23 L276 23 L276 0 L461 0 L461 23 L456 23 C407 24 404 30 406 138 L406 264 C406 328 403 343 390 367 C373 400 336 419 292 419 C241 419 193 391 152 336 C151 362 144 406 138 419 L125 419 Z M202 -271 C265 -257 303 -211 303 -151 C303 -97 274 -59 234 -59 C206 -59 187 -78 187 -107 C187 -133 205 -151 232 -151 C235 -151 238 -151 241 -150 C252 -146 253 -146 256 -146 C266 -146 273 -156 273 -171 C273 -207 245 -237 202 -248 L202 -271 Z " />
<glyph glyph-name="Ncaron" unicode="&#x147;" horiz-adv-x="688" d="M560 -15 L581 -15 L581 537 C578 609 598 635 666 644 L674 644 L674 667 L456 667 L456 644 L467 644 C539 638 559 615 557 544 L557 145 L203 667 L25 667 L25 644 L30 644 C106 646 112 636 113 501 L113 147 C113 87 112 77 106 64 C97 43 64 26 28 23 L18 23 L18 0 L242 0 L242 23 L235 23 C166 26 136 52 138 108 L137 147 L137 610 L560 -15 Z M397 725 L521 856 L502 856 L374 779 L208 856 L189 856 L312 725 L397 725 Z " />
<glyph glyph-name="ncaron" unicode="&#x148;" horiz-adv-x="481" d="M125 419 C87 407 62 401 25 396 L25 374 L31 374 C81 372 83 367 82 258 L82 138 C83 29 81 24 31 23 L25 23 L25 0 L208 0 L208 23 L203 23 C153 24 150 30 152 138 L152 303 C185 360 222 388 264 388 C290 388 312 375 324 353 C333 335 335 326 335 268 L335 138 C336 29 334 24 284 23 L276 23 L276 0 L461 0 L461 23 L456 23 C407 24 404 30 406 138 L406 264 C406 328 403 343 390 367 C373 400 336 419 292 419 C241 419 193 391 152 336 C151 362 144 406 138 419 L125 419 Z M261 557 L153 657 L133 657 L226 492 L275 492 L364 657 L345 657 L261 557 Z " />
<glyph glyph-name="Omacron" unicode="&#x14c;" horiz-adv-x="737" d="M365 679 C279 679 199 647 138 589 C77 531 42 440 42 342 C42 129 172 -12 369 -12 C563 -12 695 128 695 335 C695 437 660 530 600 589 C542 645 454 679 365 679 L365 679 Z M368 654 C424 654 475 632 512 591 C557 541 582 449 582 334 C582 127 507 13 371 13 C306 13 255 36 217 81 C178 129 155 223 155 337 C155 433 177 527 210 575 C245 625 302 654 368 654 L368 654 Z M224 792 L224 764 L513 764 L513 792 L224 792 Z " />
<glyph glyph-name="omacron" unicode="&#x14d;" horiz-adv-x="452" d="M226 419 C117 419 33 326 33 205 C33 133 57 71 100 32 C132 3 182 -16 226 -16 C338 -16 419 76 419 202 C419 326 336 419 226 419 L226 419 Z M226 396 C302 396 337 333 337 198 C337 66 302 6 226 6 C149 6 115 66 115 201 C115 333 151 396 226 396 L226 396 Z M104 565 L353 565 L353 588 L104 588 L104 565 Z " />
<glyph glyph-name="Ohungarumlaut" unicode="&#x150;" horiz-adv-x="737" d="M365 679 C279 679 199 647 138 589 C77 531 42 440 42 342 C42 129 172 -12 369 -12 C563 -12 695 128 695 335 C695 437 660 530 600 589 C542 645 454 679 365 679 L365 679 Z M368 654 C424 654 475 632 512 591 C557 541 582 449 582 334 C582 127 507 13 371 13 C306 13 255 36 217 81 C178 129 155 223 155 337 C155 433 177 527 210 575 C245 625 302 654 368 654 L368 654 Z M375 847 L274 724 L294 724 L514 847 L375 847 Z M536 847 L434 724 L454 724 L675 847 L536 847 Z " />
<glyph glyph-name="ohungarumlaut" unicode="&#x151;" horiz-adv-x="452" d="M226 419 C117 419 33 326 33 205 C33 133 57 71 100 32 C132 3 182 -16 226 -16 C338 -16 419 76 419 202 C419 326 336 419 226 419 L226 419 Z M226 396 C302 396 337 333 337 198 C337 66 302 6 226 6 C149 6 115 66 115 201 C115 333 151 396 226 396 L226 396 Z M140 493 L156 493 L349 661 L249 661 L140 493 Z M284 493 L300 493 L493 661 L393 661 L284 493 Z " />
<glyph glyph-name="OE" unicode="&#x152;" horiz-adv-x="842" d="M818 210 L799 210 C791 162 768 101 747 68 C725 35 699 24 635 23 L590 23 C511 22 507 31 507 187 L507 341 L571 341 C629 343 642 325 642 241 L642 235 L663 235 L663 471 L642 471 L642 464 C642 383 628 363 572 364 L507 364 L507 644 L617 644 C688 650 717 618 740 507 L761 507 L749 667 L489 667 L429 668 C372 671 372 671 356 671 C301 671 257 661 214 639 C110 586 42 462 42 326 C42 229 81 132 143 74 C201 20 265 -4 348 -4 L401 -3 C425 -1 442 -1 447 -1 C455 0 469 0 486 0 L524 0 L806 0 L818 210 Z M411 181 L412 115 C412 81 410 67 400 52 C388 32 364 20 333 20 C223 20 155 143 155 340 C155 525 228 647 339 647 C365 647 390 639 400 627 C410 615 411 606 411 540 L411 181 Z " />
<glyph glyph-name="oe" unicode="&#x153;" horiz-adv-x="707" d="M674 268 C660 360 599 419 520 419 C467 419 421 394 381 343 C344 391 287 419 228 419 C120 419 33 321 33 200 C33 78 116 -16 225 -16 C288 -16 345 14 381 67 C412 16 468 -16 525 -16 C591 -16 650 25 670 84 L652 91 C633 41 589 10 538 10 C457 10 406 82 406 198 C406 221 407 248 410 268 L674 268 Z M413 288 C428 358 463 397 511 397 C562 397 596 355 597 288 L413 288 Z M229 397 C272 397 309 374 325 338 C339 305 344 272 344 201 C344 137 338 96 324 67 C304 27 271 5 228 5 C151 5 115 64 115 188 C115 267 124 318 143 348 C164 380 193 397 229 397 L229 397 Z " />
<glyph glyph-name="Racute" unicode="&#x154;" horiz-adv-x="627" d="M663 0 L663 23 L658 23 C596 23 550 61 479 167 C416 264 374 316 342 335 C449 349 513 413 513 504 C513 559 489 603 441 635 C399 664 339 677 251 677 C228 677 154 674 113 672 L31 667 L31 644 L41 644 C114 646 119 636 118 501 L118 173 C119 36 113 23 46 23 L27 23 L27 0 L314 0 L314 23 L287 23 C219 23 212 36 214 173 L214 322 L237 322 C271 325 287 307 372 175 C424 89 474 21 501 0 L663 0 Z M214 344 L214 650 C229 651 238 652 250 652 C362 652 405 609 405 497 C405 393 362 347 261 345 L223 345 L214 344 Z M326 847 L224 724 L244 724 L465 847 L326 847 Z " />
<glyph glyph-name="racute" unicode="&#x155;" horiz-adv-x="328" d="M25 368 L33 368 C83 366 85 361 84 252 L84 138 C85 29 83 24 33 23 L25 23 L25 0 L217 0 L217 23 L206 23 C156 24 154 29 155 138 L155 210 C155 278 159 297 178 331 C196 361 223 384 241 384 C252 384 259 377 264 359 C272 333 281 323 297 323 C313 323 326 338 326 358 C326 391 298 419 265 419 C220 419 172 376 151 316 C150 359 144 396 135 419 C98 406 50 393 25 390 L25 368 Z M146 493 L162 493 L350 657 L252 657 L146 493 Z " />
<glyph glyph-name="Rcommaaccent" unicode="&#x156;" horiz-adv-x="627" d="M663 0 L663 23 L658 23 C596 23 550 61 479 167 C416 264 374 316 342 335 C449 349 513 413 513 504 C513 559 489 603 441 635 C399 664 339 677 251 677 C228 677 154 674 113 672 L31 667 L31 644 L41 644 C114 646 119 636 118 501 L118 173 C119 36 113 23 46 23 L27 23 L27 0 L314 0 L314 23 L287 23 C219 23 212 36 214 173 L214 322 L237 322 C271 325 287 307 372 175 C424 89 474 21 501 0 L663 0 Z M214 344 L214 650 C229 651 238 652 250 652 C362 652 405 609 405 497 C405 393 362 347 261 345 L223 345 L214 344 Z M257 -286 C325 -271 366 -222 366 -157 C366 -100 335 -59 291 -59 C260 -59 240 -79 240 -110 C240 -138 260 -157 289 -157 C293 -157 296 -157 298 -156 C311 -152 311 -152 315 -152 C326 -152 333 -162 333 -179 C333 -218 304 -249 257 -262 L257 -286 Z " />
<glyph glyph-name="rcommaaccent" unicode="&#x157;" horiz-adv-x="328" d="M25 368 L33 368 C83 366 85 361 84 252 L84 138 C85 29 83 24 33 23 L25 23 L25 0 L217 0 L217 23 L206 23 C156 24 154 29 155 138 L155 210 C155 278 159 297 178 331 C196 361 223 384 241 384 C252 384 259 377 264 359 C272 333 281 323 297 323 C313 323 326 338 326 358 C326 391 298 419 265 419 C220 419 172 376 151 316 C150 359 144 396 135 419 C98 406 50 393 25 390 L25 368 Z M85 -271 C146 -257 184 -211 184 -151 C184 -97 155 -59 115 -59 C87 -59 68 -78 68 -107 C68 -133 87 -151 113 -151 C117 -151 120 -151 122 -150 C134 -146 134 -146 138 -146 C148 -146 154 -156 154 -171 C154 -207 127 -237 85 -248 L85 -271 Z " />
<glyph glyph-name="Rcaron" unicode="&#x158;" horiz-adv-x="627" d="M663 0 L663 23 L658 23 C596 23 550 61 479 167 C416 264 374 316 342 335 C449 349 513 413 513 504 C513 559 489 603 441 635 C399 664 339 677 251 677 C228 677 154 674 113 672 L31 667 L31 644 L41 644 C114 646 119 636 118 501 L118 173 C119 36 113 23 46 23 L27 23 L27 0 L314 0 L314 23 L287 23 C219 23 212 36 214 173 L214 322 L237 322 C271 325 287 307 372 175 C424 89 474 21 501 0 L663 0 Z M214 344 L214 650 C229 651 238 652 250 652 C362 652 405 609 405 497 C405 393 362 347 261 345 L223 345 L214 344 Z M327 725 L451 856 L432 856 L304 779 L138 856 L119 856 L242 725 L327 725 Z " />
<glyph glyph-name="rcaron" unicode="&#x159;" horiz-adv-x="328" d="M25 368 L33 368 C83 366 85 361 84 252 L84 138 C85 29 83 24 33 23 L25 23 L25 0 L217 0 L217 23 L206 23 C156 24 154 29 155 138 L155 210 C155 278 159 297 178 331 C196 361 223 384 241 384 C252 384 259 377 264 359 C272 333 281 323 297 323 C313 323 326 338 326 358 C326 391 298 419 265 419 C220 419 172 376 151 316 C150 359 144 396 135 419 C98 406 50 393 25 390 L25 368 Z M196 557 L88 657 L68 657 L161 492 L210 492 L299 657 L280 657 L196 557 Z " />
<glyph glyph-name="Sacute" unicode="&#x15a;" horiz-adv-x="491" d="M52 7 L74 7 C79 35 86 56 96 72 C139 17 195 -12 261 -12 C373 -12 449 66 449 181 C449 235 432 284 399 318 C376 342 353 357 262 403 C154 458 122 492 122 553 C122 614 163 656 222 656 C297 656 355 595 378 492 L397 492 L397 667 L378 667 C376 646 368 625 355 608 C311 660 273 679 216 679 C124 679 57 609 57 513 C57 468 73 422 99 389 C121 362 158 337 219 308 C296 270 311 261 333 241 C362 215 378 180 378 142 C378 67 323 12 249 12 C157 12 98 83 74 221 L52 221 L52 7 Z M292 847 L191 724 L211 724 L431 847 L292 847 Z " />
<glyph glyph-name="sacute" unicode="&#x15b;" horiz-adv-x="302" d="M37 -13 L54 -13 C58 1 69 25 74 29 C106 -5 127 -16 163 -16 C227 -16 273 33 273 103 C273 136 262 169 244 191 C226 212 210 224 166 246 C101 280 82 300 82 336 C82 370 107 397 140 397 C182 397 219 352 232 288 L248 288 L248 412 L232 412 C224 393 218 381 214 377 C192 405 167 419 136 419 C82 419 38 369 38 307 C38 252 64 219 138 178 C177 156 191 147 201 136 C216 119 224 99 224 77 C224 34 197 5 159 5 C109 5 74 44 54 119 L37 119 L37 -13 Z M108 493 L125 493 L312 657 L214 657 L108 493 Z " />
<glyph glyph-name="Scircumflex" unicode="&#x15c;" horiz-adv-x="491" d="M52 7 L74 7 C79 35 86 56 96 72 C139 17 195 -12 261 -12 C373 -12 449 66 449 181 C449 235 432 284 399 318 C376 342 353 357 262 403 C154 458 122 492 122 553 C122 614 163 656 222 656 C297 656 355 595 378 492 L397 492 L397 667 L378 667 C376 646 368 625 355 608 C311 660 273 679 216 679 C124 679 57 609 57 513 C57 468 73 422 99 389 C121 362 158 337 219 308 C296 270 311 261 333 241 C362 215 378 180 378 142 C378 67 323 12 249 12 C157 12 98 83 74 221 L52 221 L52 7 Z M214 856 L90 725 L108 725 L237 802 L402 725 L422 725 L299 856 L214 856 Z " />
<glyph glyph-name="scircumflex" unicode="&#x15d;" horiz-adv-x="302" d="M37 -13 L54 -13 C58 1 69 25 74 29 C106 -5 127 -16 163 -16 C227 -16 273 33 273 103 C273 136 262 169 244 191 C226 212 210 224 166 246 C101 280 82 300 82 336 C82 370 107 397 140 397 C182 397 219 352 232 288 L248 288 L248 412 L232 412 C224 393 218 381 214 377 C192 405 167 419 136 419 C82 419 38 369 38 307 C38 252 64 219 138 178 C177 156 191 147 201 136 C216 119 224 99 224 77 C224 34 197 5 159 5 C109 5 74 44 54 119 L37 119 L37 -13 Z M149 596 L257 496 L277 496 L184 661 L134 661 L46 496 L65 496 L149 596 Z " />
<glyph glyph-name="Scedilla" unicode="&#x15e;" horiz-adv-x="491" d="M258 -12 C373 -13 449 64 449 181 C449 235 432 283 399 317 C376 342 354 356 262 403 C154 458 122 492 122 553 C122 614 163 656 222 656 C297 656 355 595 378 492 L397 492 L397 667 L378 667 C376 646 368 625 355 608 C311 660 273 679 216 679 C124 679 57 609 57 513 C57 468 73 422 99 389 C121 362 158 337 219 308 C296 270 311 261 333 241 C362 215 378 180 378 142 C378 67 323 12 249 12 C157 12 98 83 74 221 L52 221 L52 7 L74 7 C79 35 86 56 96 72 C131 25 184 -6 239 -11 L222 -107 C258 -109 278 -129 278 -162 C278 -196 253 -220 216 -220 C198 -220 182 -217 160 -209 L153 -229 C180 -238 209 -243 232 -243 C293 -243 341 -203 341 -152 C341 -104 307 -73 250 -66 L258 -12 Z " />
<glyph glyph-name="scedilla" unicode="&#x15f;" horiz-adv-x="302" d="M159 -16 L164 -16 C227 -16 273 34 273 103 C273 136 262 169 244 191 C226 212 210 224 166 246 C101 280 82 300 82 336 C82 370 107 397 140 397 C182 397 219 352 232 288 L248 288 L248 412 L232 412 C224 393 218 381 214 377 C192 405 167 419 136 419 C82 419 38 369 38 307 C38 252 64 219 138 178 C177 156 191 147 201 136 C216 119 224 99 224 77 C224 34 197 5 159 5 C109 5 74 44 54 119 L37 119 L37 -13 L54 -13 C58 1 69 25 74 29 C100 0 116 -10 145 -15 L133 -96 C160 -99 175 -116 175 -145 C175 -176 156 -198 129 -198 C115 -198 103 -195 86 -188 L81 -206 C101 -214 124 -219 141 -219 C186 -219 222 -183 222 -138 C222 -94 197 -66 154 -59 L159 -16 Z " />
<glyph glyph-name="Scaron" unicode="&#x160;" horiz-adv-x="491" d="M52 7 L74 7 C79 35 86 56 96 72 C139 17 195 -12 261 -12 C373 -12 449 66 449 181 C449 235 432 284 399 318 C376 342 353 357 262 403 C154 458 122 492 122 553 C122 614 163 656 222 656 C297 656 355 595 378 492 L397 492 L397 667 L378 667 C376 646 368 625 355 608 C311 660 273 679 216 679 C124 679 57 609 57 513 C57 468 73 422 99 389 C121 362 158 337 219 308 C296 270 311 261 333 241 C362 215 378 180 378 142 C378 67 323 12 249 12 C157 12 98 83 74 221 L52 221 L52 7 Z M283 725 L407 856 L388 856 L260 779 L94 856 L75 856 L198 725 L283 725 Z " />
<glyph glyph-name="scaron" unicode="&#x161;" horiz-adv-x="302" d="M37 -13 L54 -13 C58 1 69 25 74 29 C106 -5 127 -16 163 -16 C227 -16 273 33 273 103 C273 136 262 169 244 191 C226 212 210 224 166 246 C101 280 82 300 82 336 C82 370 107 397 140 397 C182 397 219 352 232 288 L248 288 L248 412 L232 412 C224 393 218 381 214 377 C192 405 167 419 136 419 C82 419 38 369 38 307 C38 252 64 219 138 178 C177 156 191 147 201 136 C216 119 224 99 224 77 C224 34 197 5 159 5 C109 5 74 44 54 119 L37 119 L37 -13 Z M165 557 L57 657 L37 657 L130 492 L179 492 L268 657 L249 657 L165 557 Z " />
<glyph glyph-name="Tcommaaccent" unicode="&#x162;" horiz-adv-x="618" d="M35 506 C56 628 78 649 176 644 L261 644 L261 173 C262 36 256 23 188 23 L158 23 L158 0 L458 0 L458 23 L430 23 C362 23 356 36 357 173 L357 644 L449 644 C539 649 563 624 584 506 L603 506 L600 667 L18 667 L15 506 L35 506 Z M272 -286 C340 -271 381 -222 381 -157 C381 -100 350 -59 306 -59 C276 -59 255 -79 255 -110 C255 -138 275 -157 304 -157 C308 -157 311 -157 313 -156 C326 -152 326 -152 330 -152 C342 -152 348 -162 348 -179 C348 -218 319 -249 272 -262 L272 -286 Z " />
<glyph glyph-name="tcommaaccent" unicode="&#x163;" horiz-adv-x="264" d="M250 380 L250 403 L144 403 L144 529 L128 529 C120 456 77 404 24 403 L24 380 L73 380 L73 152 C73 77 75 57 87 34 C101 4 134 -16 168 -16 C209 -16 246 9 264 49 L250 58 C234 31 217 18 196 18 C178 18 161 30 152 50 C146 65 144 84 144 137 L144 380 L250 380 Z M112 -271 C173 -257 211 -211 211 -151 C211 -97 182 -59 142 -59 C114 -59 95 -78 95 -107 C95 -133 114 -151 140 -151 C144 -151 147 -151 149 -150 C161 -146 161 -146 165 -146 C175 -146 181 -156 181 -171 C181 -207 154 -237 112 -248 L112 -271 Z " />
<glyph glyph-name="Tcaron" unicode="&#x164;" horiz-adv-x="618" d="M35 506 C56 628 78 649 176 644 L261 644 L261 173 C262 36 256 23 188 23 L158 23 L158 0 L458 0 L458 23 L430 23 C362 23 356 36 357 173 L357 644 L449 644 C539 649 563 624 584 506 L603 506 L600 667 L18 667 L15 506 L35 506 Z M352 725 L476 856 L458 856 L329 779 L164 856 L144 856 L267 725 L352 725 Z " />
<glyph glyph-name="tcaron" unicode="&#x165;" horiz-adv-x="302" d="M250 380 L250 403 L144 403 L144 529 L128 529 C120 456 77 404 24 403 L24 380 L73 380 L73 152 C73 77 75 57 87 34 C101 4 134 -16 168 -16 C209 -16 246 9 264 49 L250 58 C234 31 217 18 196 18 C178 18 161 30 152 50 C146 65 144 84 144 137 L144 380 L250 380 Z M196 471 C258 485 296 531 296 591 C296 645 267 683 227 683 C198 683 179 664 179 636 C179 610 198 592 225 592 C228 592 231 592 234 593 C246 596 246 596 250 596 C260 596 266 587 266 571 C266 535 239 505 196 494 L196 471 Z " />
<glyph glyph-name="utilde" unicode="&#x169;" horiz-adv-x="472" d="M397 403 L267 403 L267 380 L276 380 C326 379 328 373 327 265 L327 174 C327 116 323 99 300 68 C277 36 244 17 214 17 C191 17 170 29 158 48 C149 62 147 77 147 124 L147 403 L20 403 L20 380 L25 380 C75 379 77 373 76 265 L76 128 C76 85 80 60 90 40 C107 7 147 -16 189 -16 C242 -16 294 19 327 78 C328 33 333 2 344 -16 L350 -16 C373 -5 402 -1 449 0 L449 23 L446 23 C398 25 396 30 397 139 L397 403 Z M107 524 C110 568 128 592 156 592 C168 592 180 587 196 574 C252 530 267 523 299 523 C330 523 356 536 373 560 C388 579 393 601 393 639 L379 639 C378 595 360 570 329 570 C313 570 302 576 274 597 C228 633 214 639 186 639 C129 639 91 592 92 524 L107 524 Z " />
<glyph glyph-name="Umacron" unicode="&#x16a;" horiz-adv-x="697" d="M478 667 L478 644 L483 644 C554 637 570 612 568 513 L568 286 C568 178 565 156 547 119 C517 59 450 22 371 22 C306 22 250 52 226 100 C207 139 204 162 204 291 L204 501 C202 636 208 646 281 644 L292 644 L292 667 L18 667 L18 644 L31 644 C104 646 109 636 108 501 L108 293 L108 202 C111 149 119 118 138 86 C176 24 252 -12 347 -12 C447 -12 526 27 564 96 C588 139 592 163 592 282 L592 504 C588 604 604 632 670 644 L679 644 L679 667 L478 667 Z M221 792 L221 764 L509 764 L509 792 L221 792 Z " />
<glyph glyph-name="umacron" unicode="&#x16b;" horiz-adv-x="472" d="M397 403 L267 403 L267 380 L276 380 C326 379 328 373 327 265 L327 174 C327 116 323 99 300 68 C277 36 244 17 214 17 C191 17 170 29 158 48 C149 62 147 77 147 124 L147 403 L20 403 L20 380 L25 380 C75 379 77 373 76 265 L76 128 C76 85 80 60 90 40 C107 7 147 -16 189 -16 C242 -16 294 19 327 78 C328 33 333 2 344 -16 L350 -16 C373 -5 402 -1 449 0 L449 23 L446 23 C398 25 396 30 397 139 L397 403 Z M119 565 L367 565 L367 588 L119 588 L119 565 Z " />
<glyph glyph-name="ubreve" unicode="&#x16d;" horiz-adv-x="472" d="M397 403 L267 403 L267 380 L276 380 C326 379 328 373 327 265 L327 174 C327 116 323 99 300 68 C277 36 244 17 214 17 C191 17 170 29 158 48 C149 62 147 77 147 124 L147 403 L20 403 L20 380 L25 380 C75 379 77 373 76 265 L76 128 C76 85 80 60 90 40 C107 7 147 -16 189 -16 C242 -16 294 19 327 78 C328 33 333 2 344 -16 L350 -16 C373 -5 402 -1 449 0 L449 23 L446 23 C398 25 396 30 397 139 L397 403 Z M113 651 C123 564 172 510 241 510 C309 510 360 565 368 651 L352 651 C333 602 300 580 244 580 C180 580 144 602 129 651 L113 651 Z " />
<glyph glyph-name="Uring" unicode="&#x16e;" horiz-adv-x="697" d="M478 667 L478 644 L483 644 C554 637 570 612 568 513 L568 286 C568 178 565 156 547 119 C517 59 450 22 371 22 C306 22 250 52 226 100 C207 139 204 162 204 291 L204 501 C202 636 208 646 281 644 L292 644 L292 667 L18 667 L18 644 L31 644 C104 646 109 636 108 501 L108 293 L108 202 C111 149 119 118 138 86 C176 24 252 -12 347 -12 C447 -12 526 27 564 96 C588 139 592 163 592 282 L592 504 C588 604 604 632 670 644 L679 644 L679 667 L478 667 Z M378 893 C327 893 284 851 284 800 C284 747 325 705 378 705 C430 705 472 747 472 799 C472 851 430 893 378 893 L378 893 Z M378 868 C415 868 446 837 446 799 C446 761 415 730 378 730 C340 730 310 761 310 800 C310 837 341 868 378 868 L378 868 Z " />
<glyph glyph-name="uring" unicode="&#x16f;" horiz-adv-x="472" d="M397 403 L267 403 L267 380 L276 380 C326 379 328 373 327 265 L327 174 C327 116 323 99 300 68 C277 36 244 17 214 17 C191 17 170 29 158 48 C149 62 147 77 147 124 L147 403 L20 403 L20 380 L25 380 C75 379 77 373 76 265 L76 128 C76 85 80 60 90 40 C107 7 147 -16 189 -16 C242 -16 294 19 327 78 C328 33 333 2 344 -16 L350 -16 C373 -5 402 -1 449 0 L449 23 L446 23 C398 25 396 30 397 139 L397 403 Z M247 668 C198 668 158 628 158 580 C158 530 197 490 247 490 C296 490 336 530 336 579 C336 628 296 668 247 668 L247 668 Z M247 640 C281 640 308 613 308 579 C308 545 281 518 247 518 C213 518 186 545 186 580 C186 613 214 640 247 640 L247 640 Z " />
<glyph glyph-name="Uhungarumlaut" unicode="&#x170;" horiz-adv-x="697" d="M478 667 L478 644 L483 644 C554 637 570 612 568 513 L568 286 C568 178 565 156 547 119 C517 59 450 22 371 22 C306 22 250 52 226 100 C207 139 204 162 204 291 L204 501 C202 636 208 646 281 644 L292 644 L292 667 L18 667 L18 644 L31 644 C104 646 109 636 108 501 L108 293 L108 202 C111 149 119 118 138 86 C176 24 252 -12 347 -12 C447 -12 526 27 564 96 C588 139 592 163 592 282 L592 504 C588 604 604 632 670 644 L679 644 L679 667 L478 667 Z M368 847 L267 724 L287 724 L507 847 L368 847 Z M528 847 L427 724 L447 724 L667 847 L528 847 Z " />
<glyph glyph-name="uhungarumlaut" unicode="&#x171;" horiz-adv-x="472" d="M397 403 L267 403 L267 380 L276 380 C326 379 328 373 327 265 L327 174 C327 116 323 99 300 68 C277 36 244 17 214 17 C191 17 170 29 158 48 C149 62 147 77 147 124 L147 403 L20 403 L20 380 L25 380 C75 379 77 373 76 265 L76 128 C76 85 80 60 90 40 C107 7 147 -16 189 -16 C242 -16 294 19 327 78 C328 33 333 2 344 -16 L350 -16 C373 -5 402 -1 449 0 L449 23 L446 23 C398 25 396 30 397 139 L397 403 Z M144 493 L160 493 L353 661 L253 661 L144 493 Z M288 493 L304 493 L497 661 L397 661 L288 493 Z " />
<glyph glyph-name="Uogonek" unicode="&#x172;" horiz-adv-x="697" d="M542 -135 C522 -143 513 -145 501 -145 C470 -145 450 -121 450 -84 C450 -40 471 -2 520 42 C580 95 595 145 592 282 L592 504 C588 604 604 632 670 644 L679 644 L679 667 L478 667 L478 644 L483 644 C554 637 570 612 568 513 L568 286 C568 178 565 156 547 119 C517 59 450 22 371 22 C306 22 250 52 226 100 C207 139 204 162 204 291 L204 501 C202 636 208 646 281 644 L292 644 L292 667 L18 667 L18 644 L31 644 C104 646 109 636 108 501 L108 293 L108 202 C111 149 119 118 138 86 C175 25 252 -12 345 -12 C385 -12 420 -7 454 5 C406 -28 384 -62 384 -105 C384 -151 418 -184 466 -184 C495 -184 519 -175 551 -151 L542 -135 Z " />
<glyph glyph-name="uogonek" unicode="&#x173;" horiz-adv-x="472" d="M449 0 L449 23 L446 23 C398 25 396 30 397 139 L397 403 L267 403 L267 380 L276 380 C326 379 328 373 327 265 L327 174 C327 116 323 99 300 68 C277 36 244 17 214 17 C191 17 170 29 158 48 C149 62 147 77 147 124 L147 403 L20 403 L20 380 L25 380 C75 379 77 373 76 265 L76 128 C76 85 80 60 90 40 C107 7 147 -16 189 -16 C242 -16 294 19 327 78 C328 33 333 2 344 -16 L350 -16 C359 -12 366 -10 376 -7 C348 -30 331 -61 331 -94 C331 -136 363 -168 405 -168 C431 -168 452 -159 479 -138 L471 -124 C454 -130 446 -132 435 -132 C407 -132 388 -109 388 -75 C388 -47 397 -21 415 -1 L449 0 Z " />
<glyph glyph-name="Wcircumflex" unicode="&#x174;" horiz-adv-x="844" d="M619 -16 L751 486 C784 613 800 640 846 644 L850 644 L850 667 L686 667 L686 644 L690 644 C729 644 749 622 749 580 C749 556 748 552 730 486 L639 132 L462 667 L438 667 L281 132 L174 520 C156 582 155 588 155 603 C155 630 169 640 213 644 L219 644 L219 667 L-6 667 L-6 644 L1 644 C48 642 60 623 91 503 L236 -16 L257 -16 L417 534 L600 -16 L619 -16 Z M406 856 L282 725 L301 725 L429 802 L595 725 L614 725 L491 856 L406 856 Z " />
<glyph glyph-name="Ycircumflex" unicode="&#x176;" horiz-adv-x="590" d="M333 292 L185 555 C168 587 163 598 163 610 C163 633 183 644 226 644 L231 644 L231 667 L-12 667 L-12 644 L-6 644 C39 641 46 634 102 529 L247 256 L247 173 C248 36 242 23 175 23 L166 23 L166 0 L422 0 L422 23 L414 23 C347 23 341 36 342 173 L342 262 L472 511 C519 603 545 632 595 643 L601 644 L601 667 L405 667 L405 644 L410 644 C451 644 476 623 476 589 C476 569 473 560 447 512 L333 292 Z M267 856 L142 725 L161 725 L289 802 L455 725 L474 725 L351 856 L267 856 Z " />
<glyph glyph-name="ycircumflex" unicode="&#x177;" horiz-adv-x="415" d="M235 76 L135 312 C118 353 118 353 118 360 C118 373 130 379 157 380 L161 380 L161 403 L-5 403 L-5 380 L3 380 C35 378 43 369 66 315 L202 -10 L168 -106 C155 -140 150 -144 114 -162 C81 -179 68 -195 68 -219 C68 -236 79 -248 96 -248 C126 -248 146 -221 176 -141 L337 292 C362 362 374 376 411 380 L415 380 L415 403 L288 403 L288 380 L295 380 C320 380 337 369 337 355 C337 347 337 347 318 300 L235 76 Z M210 596 L317 496 L337 496 L244 661 L195 661 L106 496 L126 496 L210 596 Z " />
<glyph glyph-name="Ydieresis" unicode="&#x178;" horiz-adv-x="590" d="M333 292 L185 555 C168 587 163 598 163 610 C163 633 183 644 226 644 L231 644 L231 667 L-12 667 L-12 644 L-6 644 C39 641 46 634 102 529 L247 256 L247 173 C248 36 242 23 175 23 L166 23 L166 0 L422 0 L422 23 L414 23 C347 23 341 36 342 173 L342 262 L472 511 C519 603 545 632 595 643 L601 644 L601 667 L405 667 L405 644 L410 644 C451 644 476 623 476 589 C476 569 473 560 447 512 L333 292 Z M198 826 C171 826 148 804 148 777 C148 748 170 726 198 726 C226 726 248 749 248 776 C248 804 226 826 198 826 L198 826 Z M408 826 C381 826 358 804 358 777 C358 748 380 726 408 726 C435 726 458 749 458 776 C458 804 436 826 408 826 L408 826 Z " />
<glyph glyph-name="Zacute" unicode="&#x179;" horiz-adv-x="570" d="M28 0 L513 0 L533 173 L513 173 C468 39 445 21 317 23 L134 23 L517 644 L517 667 L71 667 L52 513 L71 513 C79 549 101 595 123 619 C147 643 153 645 229 644 L415 644 L28 18 L28 0 Z M360 847 L259 724 L279 724 L499 847 L360 847 Z " />
<glyph glyph-name="zacute" unicode="&#x17a;" horiz-adv-x="381" d="M23 0 L339 0 L349 128 L332 128 C295 31 283 21 203 23 L104 23 L343 385 L343 403 L40 403 L34 291 L50 291 C74 367 90 384 131 380 L263 380 L23 16 L23 0 Z M165 493 L181 493 L369 657 L271 657 L165 493 Z " />
<glyph glyph-name="Zdotaccent" unicode="&#x17b;" horiz-adv-x="570" d="M28 0 L513 0 L533 173 L513 173 C468 39 445 21 317 23 L134 23 L517 644 L517 667 L71 667 L52 513 L71 513 C79 549 101 595 123 619 C147 643 153 645 229 644 L415 644 L28 18 L28 0 Z M302 826 C275 826 252 804 252 777 C252 748 274 726 302 726 C330 726 352 749 352 776 C352 804 330 826 302 826 L302 826 Z " />
<glyph glyph-name="zdotaccent" unicode="&#x17c;" horiz-adv-x="381" d="M23 0 L339 0 L349 128 L332 128 C295 31 283 21 203 23 L104 23 L343 385 L343 403 L40 403 L34 291 L50 291 C74 367 90 384 131 380 L263 380 L23 16 L23 0 Z M202 622 C179 622 161 604 161 582 C161 559 179 541 202 541 C224 541 242 559 242 582 C242 604 224 622 202 622 L202 622 Z " />
<glyph glyph-name="Zcaron" unicode="&#x17d;" horiz-adv-x="570" d="M28 0 L513 0 L533 173 L513 173 C468 39 445 21 317 23 L134 23 L517 644 L517 667 L71 667 L52 513 L71 513 C79 549 101 595 123 619 C147 643 153 645 229 644 L415 644 L28 18 L28 0 Z M347 725 L471 856 L452 856 L324 779 L158 856 L139 856 L262 725 L347 725 Z " />
<glyph glyph-name="zcaron" unicode="&#x17e;" horiz-adv-x="381" d="M23 0 L339 0 L349 128 L332 128 C295 31 283 21 203 23 L104 23 L343 385 L343 403 L40 403 L34 291 L50 291 C74 367 90 384 131 380 L263 380 L23 16 L23 0 Z M209 557 L101 657 L81 657 L174 492 L223 492 L312 657 L293 657 L209 557 Z " />
<glyph glyph-name="florin" unicode="&#x192;" horiz-adv-x="450" d="M308 441 C324 564 336 635 343 648 C352 666 365 676 379 676 C388 676 393 671 393 664 C393 661 393 659 392 650 C390 643 390 637 390 633 C390 617 403 604 418 604 C436 604 449 621 449 643 C449 676 423 700 387 700 C365 700 346 692 326 676 C302 654 283 615 257 532 C230 450 226 445 164 442 L154 441 L147 408 L228 408 L223 388 L178 176 C126 -121 126 -121 108 -153 C96 -175 82 -187 69 -187 C62 -187 58 -183 58 -177 C58 -175 59 -171 60 -167 C61 -161 62 -154 62 -149 C62 -133 48 -119 32 -119 C13 -119 -3 -139 -3 -164 C-3 -195 20 -217 52 -217 C74 -217 95 -208 119 -187 C156 -154 191 -80 217 25 C256 182 287 320 302 408 L381 408 L388 441 L308 441 Z " />
<glyph glyph-name="uni01CD" unicode="&#x1cd;" horiz-adv-x="595" d="M379 245 L425 122 C445 70 445 70 445 58 C445 31 429 23 379 23 L371 23 L371 0 L607 0 L607 23 L602 23 C552 33 547 40 508 146 L307 677 L290 677 L115 213 L94 156 C60 57 44 36 -4 24 L-12 23 L-12 0 L166 0 L166 23 L159 23 C125 23 101 48 101 83 C101 107 107 128 135 203 L151 245 L379 245 Z M371 268 L159 268 L265 552 L371 268 Z M340 725 L465 856 L446 856 L318 779 L152 856 L133 856 L256 725 L340 725 Z " />
<glyph glyph-name="uni01CE" unicode="&#x1ce;" horiz-adv-x="425" d="M400 74 C395 43 382 26 363 26 C352 26 343 33 339 47 C335 58 335 58 335 115 L335 278 C335 327 333 340 322 360 C300 399 259 419 197 419 C147 419 108 407 80 383 C61 365 49 345 49 327 C49 310 60 298 76 298 C95 298 108 314 112 343 C116 364 117 368 123 376 C134 389 159 398 188 398 C224 398 251 383 264 355 C270 341 271 330 271 289 L271 269 L202 238 C84 184 35 136 35 76 C35 26 73 -10 125 -10 C165 -10 208 11 271 60 C279 12 301 -10 342 -10 C386 -10 414 21 416 74 L400 74 Z M271 246 L271 87 C230 48 193 26 167 26 C137 26 117 54 117 95 C117 146 156 194 222 224 L271 246 Z M225 557 L117 657 L97 657 L190 492 L239 492 L328 657 L309 657 L225 557 Z " />
<glyph glyph-name="uni01D3" unicode="&#x1d3;" horiz-adv-x="697" d="M478 667 L478 644 L483 644 C554 637 570 612 568 513 L568 286 C568 178 565 156 547 119 C517 59 450 22 371 22 C306 22 250 52 226 100 C207 139 204 162 204 291 L204 501 C202 636 208 646 281 644 L292 644 L292 667 L18 667 L18 644 L31 644 C104 646 109 636 108 501 L108 293 L108 202 C111 149 119 118 138 86 C176 24 252 -12 347 -12 C447 -12 526 27 564 96 C588 139 592 163 592 282 L592 504 C588 604 604 632 670 644 L679 644 L679 667 L478 667 Z M419 725 L543 856 L524 856 L396 779 L230 856 L211 856 L334 725 L419 725 Z " />
<glyph glyph-name="uni01D4" unicode="&#x1d4;" horiz-adv-x="472" d="M397 403 L267 403 L267 380 L276 380 C326 379 328 373 327 265 L327 174 C327 116 323 99 300 68 C277 36 244 17 214 17 C191 17 170 29 158 48 C149 62 147 77 147 124 L147 403 L20 403 L20 380 L25 380 C75 379 77 373 76 265 L76 128 C76 85 80 60 90 40 C107 7 147 -16 189 -16 C242 -16 294 19 327 78 C328 33 333 2 344 -16 L350 -16 C373 -5 402 -1 449 0 L449 23 L446 23 C398 25 396 30 397 139 L397 403 Z M257 557 L149 657 L129 657 L222 492 L271 492 L360 657 L341 657 L257 557 Z " />
<glyph glyph-name="Gcaron" unicode="&#x1e6;" horiz-adv-x="693" d="M414 285 L414 261 L428 261 C489 264 502 249 503 178 L503 152 C503 104 490 71 460 47 C433 25 397 12 359 12 C306 12 249 39 217 80 C175 134 154 218 154 337 C154 446 171 523 204 572 C241 625 298 656 360 656 C467 656 546 569 563 432 L584 432 L584 655 L563 655 C560 629 553 601 544 581 C491 648 426 680 345 680 C260 680 184 646 134 586 C76 517 42 418 42 321 C42 129 169 -12 342 -12 C391 -12 424 -5 481 20 C518 35 548 43 570 43 C577 43 581 43 589 41 L589 112 C588 248 594 261 665 261 L672 261 L672 285 L414 285 Z M385 725 L510 856 L491 856 L363 779 L197 856 L178 856 L301 725 L385 725 Z " />
<glyph glyph-name="gcaron" unicode="&#x1e7;" horiz-adv-x="425" d="M311 368 C283 400 239 419 193 419 C111 419 45 354 45 272 C45 215 74 166 130 129 C77 119 49 90 49 48 C49 -5 89 -27 198 -32 C262 -36 275 -38 299 -49 C328 -63 343 -89 343 -126 C343 -188 292 -228 211 -228 C124 -228 70 -189 70 -127 C70 -103 77 -81 94 -57 C88 -55 86 -55 81 -55 C47 -55 26 -81 26 -122 C26 -197 99 -248 208 -248 C322 -248 393 -193 393 -104 C393 -59 375 -20 344 2 C317 22 280 31 211 35 C155 39 146 39 132 42 C103 46 89 57 89 74 C89 100 118 113 181 116 C227 117 249 123 276 139 C319 164 345 213 345 270 C345 300 338 327 322 355 C336 371 349 380 360 380 C369 380 372 377 380 362 C387 349 396 342 405 342 C421 342 432 356 432 374 C432 397 413 415 387 415 C362 415 336 399 311 368 L311 368 Z M193 396 C214 396 236 384 249 363 C263 342 269 314 269 268 C269 184 243 138 194 138 C146 138 119 182 119 264 C119 349 145 396 193 396 L193 396 Z M213 557 L105 657 L86 657 L178 492 L228 492 L317 657 L297 657 L213 557 Z " />
<glyph glyph-name="Scommaaccent" unicode="&#x218;" horiz-adv-x="491" d="M52 7 L74 7 C79 35 86 56 96 72 C139 17 195 -12 261 -12 C373 -12 449 66 449 181 C449 235 432 284 399 318 C376 342 353 357 262 403 C154 458 122 492 122 553 C122 614 163 656 222 656 C297 656 355 595 378 492 L397 492 L397 667 L378 667 C376 646 368 625 355 608 C311 660 273 679 216 679 C124 679 57 609 57 513 C57 468 73 422 99 389 C121 362 158 337 219 308 C296 270 311 261 333 241 C362 215 378 180 378 142 C378 67 323 12 249 12 C157 12 98 83 74 221 L52 221 L52 7 Z M193 -286 C261 -270 302 -222 302 -157 C302 -100 270 -59 227 -59 C196 -59 175 -79 175 -110 C175 -137 195 -157 224 -157 C228 -157 232 -157 234 -156 C247 -152 247 -152 251 -152 C262 -152 269 -162 269 -179 C269 -218 240 -249 193 -262 L193 -286 Z " />
<glyph glyph-name="scommaaccent" unicode="&#x219;" horiz-adv-x="302" d="M37 -13 L54 -13 C58 1 69 25 74 29 C106 -5 127 -16 163 -16 C227 -16 273 33 273 103 C273 136 262 169 244 191 C226 212 210 224 166 246 C101 280 82 300 82 336 C82 370 107 397 140 397 C182 397 219 352 232 288 L248 288 L248 412 L232 412 C224 393 218 381 214 377 C192 405 167 419 136 419 C82 419 38 369 38 307 C38 252 64 219 138 178 C177 156 191 147 201 136 C216 119 224 99 224 77 C224 34 197 5 159 5 C109 5 74 44 54 119 L37 119 L37 -13 Z M116 -271 C178 -257 216 -211 216 -151 C216 -97 187 -59 147 -59 C119 -59 100 -78 100 -107 C100 -133 119 -151 145 -151 C149 -151 152 -151 154 -150 C166 -146 166 -146 170 -146 C180 -146 186 -156 186 -171 C186 -207 159 -237 116 -248 L116 -271 Z " />
<glyph glyph-name="uni021A" unicode="&#x21a;" horiz-adv-x="618" d="M35 506 C56 628 78 649 176 644 L261 644 L261 173 C262 36 256 23 188 23 L158 23 L158 0 L458 0 L458 23 L430 23 C362 23 356 36 357 173 L357 644 L449 644 C539 649 563 624 584 506 L603 506 L600 667 L18 667 L15 506 L35 506 Z M272 -286 C340 -271 381 -222 381 -157 C381 -100 350 -59 306 -59 C276 -59 255 -79 255 -110 C255 -138 275 -157 304 -157 C308 -157 311 -157 313 -156 C326 -152 326 -152 330 -152 C342 -152 348 -162 348 -179 C348 -218 319 -249 272 -262 L272 -286 Z " />
<glyph glyph-name="uni021B" unicode="&#x21b;" horiz-adv-x="264" d="M250 380 L250 403 L144 403 L144 529 L128 529 C120 456 77 404 24 403 L24 380 L73 380 L73 152 C73 77 75 57 87 34 C101 4 134 -16 168 -16 C209 -16 246 9 264 49 L250 58 C234 31 217 18 196 18 C178 18 161 30 152 50 C146 65 144 84 144 137 L144 380 L250 380 Z M112 -271 C173 -257 211 -211 211 -151 C211 -97 182 -59 142 -59 C114 -59 95 -78 95 -107 C95 -133 114 -151 140 -151 C144 -151 147 -151 149 -150 C161 -146 161 -146 165 -146 C175 -146 181 -156 181 -171 C181 -207 154 -237 112 -248 L112 -271 Z " />
<glyph glyph-name="afii57929" unicode="&#x2bc;" horiz-adv-x="240" d="M63 409 C144 427 188 480 188 559 C188 621 155 667 110 667 C81 667 58 645 58 618 C58 590 81 568 110 568 C117 568 121 569 130 571 C134 572 137 573 140 573 C152 573 158 562 158 542 C158 485 126 448 63 435 L63 409 Z " />
<glyph glyph-name="circumflex" unicode="&#x2c6;" horiz-adv-x="473" d="M224 596 L332 496 L352 496 L259 661 L210 661 L121 496 L140 496 L224 596 Z " />
<glyph glyph-name="caron" unicode="&#x2c7;" horiz-adv-x="473" d="M249 557 L141 657 L121 657 L214 492 L263 492 L352 657 L333 657 L249 557 Z " />
<glyph glyph-name="uni02C9" unicode="&#x2c9;" horiz-adv-x="315" d="M33 565 L282 565 L282 588 L33 588 L33 565 Z " />
<glyph glyph-name="breve" unicode="&#x2d8;" horiz-adv-x="475" d="M110 651 C119 564 168 510 237 510 C306 510 356 565 365 651 L349 651 C330 602 296 580 240 580 C176 580 141 602 126 651 L110 651 Z " />
<glyph glyph-name="dotaccent" unicode="&#x2d9;" horiz-adv-x="458" d="M230 622 C207 622 189 604 189 582 C189 559 207 541 230 541 C252 541 270 559 270 582 C270 604 252 622 230 622 L230 622 Z " />
<glyph glyph-name="ring" unicode="&#x2da;" horiz-adv-x="468" d="M234 668 C185 668 145 628 145 580 C145 530 185 490 234 490 C283 490 323 530 323 579 C323 628 283 668 234 668 L234 668 Z M234 640 C268 640 295 613 295 579 C295 545 268 518 234 518 C200 518 173 545 173 580 C173 613 201 640 234 640 L234 640 Z " />
<glyph glyph-name="ogonek" unicode="&#x2db;" horiz-adv-x="475" d="M306 8 C260 -17 236 -51 236 -94 C236 -136 268 -168 310 -168 C336 -168 357 -160 384 -138 L376 -124 C359 -130 351 -132 340 -132 C312 -132 293 -109 293 -75 C293 -42 303 -19 329 8 L306 8 Z " />
<glyph glyph-name="tilde" unicode="&#x2dc;" horiz-adv-x="480" d="M105 524 C108 568 125 592 154 592 C166 592 178 587 194 574 C250 530 264 523 297 523 C328 523 354 536 371 560 C386 579 391 601 391 639 L377 639 C376 595 358 570 327 570 C311 570 300 576 272 597 C226 633 212 639 184 639 C127 639 89 592 90 524 L105 524 Z " />
<glyph glyph-name="hungarumlaut" unicode="&#x2dd;" horiz-adv-x="471" d="M126 493 L142 493 L335 661 L235 661 L126 493 Z M270 493 L286 493 L479 661 L379 661 L270 493 Z " />
<glyph glyph-name="Wdieresis" unicode="&#x1e84;" horiz-adv-x="844" d="M619 -16 L751 486 C784 613 800 640 846 644 L850 644 L850 667 L686 667 L686 644 L690 644 C729 644 749 622 749 580 C749 556 748 552 730 486 L639 132 L462 667 L438 667 L281 132 L174 520 C156 582 155 588 155 603 C155 630 169 640 213 644 L219 644 L219 667 L-6 667 L-6 644 L1 644 C48 642 60 623 91 503 L236 -16 L257 -16 L417 534 L600 -16 L619 -16 Z M338 826 C311 826 288 804 288 777 C288 748 310 726 338 726 C366 726 388 749 388 776 C388 804 366 826 338 826 L338 826 Z M548 826 C521 826 498 804 498 777 C498 748 520 726 548 726 C575 726 598 749 598 776 C598 804 576 826 548 826 L548 826 Z " />
<glyph glyph-name="uni2011" unicode="&#x2011;" horiz-adv-x="283" d="M32 233 L32 186 L249 186 L249 233 L32 233 Z " />
<glyph glyph-name="figuredash" unicode="&#x2012;" horiz-adv-x="500" d="M18 223 L18 200 L482 200 L482 223 L18 223 Z " />
<glyph glyph-name="endash" unicode="&#x2013;" horiz-adv-x="500" d="M18 223 L18 200 L482 200 L482 223 L18 223 Z " />
<glyph glyph-name="emdash" unicode="&#x2014;" horiz-adv-x="773" d="M18 223 L18 200 L755 200 L755 223 L18 223 Z " />
<glyph glyph-name="afii00208" unicode="&#x2015;" horiz-adv-x="773" d="M18 223 L18 200 L755 200 L755 223 L18 223 Z " />
<glyph glyph-name="quoteleft" unicode="&#x2018;" horiz-adv-x="240" d="M183 667 C103 650 58 596 58 517 C58 455 91 409 136 409 C165 409 188 431 188 458 C188 486 165 508 136 508 C129 508 125 507 116 505 C112 504 109 503 106 503 C94 503 88 514 88 534 C88 591 122 629 183 641 L183 667 Z " />
<glyph glyph-name="quoteright" unicode="&#x2019;" horiz-adv-x="211" d="M49 409 C130 427 174 480 174 559 C174 621 141 667 96 667 C67 667 44 645 44 618 C44 590 67 568 96 568 C103 568 107 569 116 571 C120 572 123 573 126 573 C138 573 144 562 144 542 C144 485 112 448 49 435 L49 409 Z " />
<glyph glyph-name="quotesinglbase" unicode="&#x201a;" horiz-adv-x="226" d="M63 -168 C135 -151 175 -98 175 -19 C175 43 145 89 105 89 C79 89 58 67 58 39 C58 12 78 -10 103 -10 C109 -10 113 -9 121 -7 C124 -6 127 -5 129 -5 C139 -5 145 -16 145 -36 C145 -93 116 -130 63 -143 L63 -168 Z " />
<glyph glyph-name="quotedblleft" unicode="&#x201c;" horiz-adv-x="428" d="M182 667 C102 650 57 596 57 517 C57 455 90 409 135 409 C164 409 187 431 187 458 C187 486 164 508 135 508 C128 508 124 507 115 505 C111 504 108 503 105 503 C93 503 87 514 87 534 C87 591 121 629 182 641 L182 667 Z M382 667 C302 650 257 596 257 517 C257 455 290 409 335 409 C364 409 387 431 387 458 C387 486 364 508 335 508 C329 508 324 507 315 505 C311 504 308 503 305 503 C293 503 287 514 287 534 C287 591 321 629 382 641 L382 667 Z " />
<glyph glyph-name="quotedblright" unicode="&#x201d;" horiz-adv-x="428" d="M49 409 C130 427 174 480 174 559 C174 621 141 667 96 667 C67 667 44 645 44 618 C44 590 67 568 96 568 C103 568 107 569 116 571 C120 572 123 573 126 573 C138 573 144 562 144 542 C144 485 112 448 49 435 L49 409 Z M249 409 C330 427 374 480 374 559 C374 621 341 667 296 667 C267 667 244 645 244 618 C244 590 267 568 296 568 C302 568 307 569 316 571 C320 572 324 573 326 573 C338 573 344 562 344 542 C344 485 311 448 249 435 L249 409 Z " />
<glyph glyph-name="quotedblbase" unicode="&#x201e;" horiz-adv-x="415" d="M49 -168 C120 -151 161 -97 161 -18 C161 44 131 90 91 90 C65 90 44 68 44 41 C44 13 64 -9 89 -9 C95 -9 98 -8 107 -6 C110 -5 113 -4 115 -4 C125 -4 131 -15 131 -35 C131 -92 102 -130 49 -142 L49 -168 Z M249 -168 C321 -151 361 -97 361 -18 C361 44 331 90 291 90 C265 90 244 68 244 41 C244 13 264 -9 289 -9 C295 -9 298 -8 307 -6 C310 -5 313 -4 315 -4 C325 -4 331 -15 331 -35 C331 -92 302 -130 249 -142 L249 -168 Z " />
<glyph glyph-name="dagger" unicode="&#x2020;" horiz-adv-x="387" d="M200 -240 L200 -20 C200 -12 200 11 201 36 L204 111 L206 174 C210 256 210 256 210 280 C210 311 208 346 204 374 L201 394 L201 402 C200 409 200 412 200 423 C228 422 243 419 257 412 C290 393 295 391 313 391 C338 391 356 408 356 434 C356 458 338 475 312 475 C302 475 290 472 275 465 C240 450 222 445 200 445 C202 482 209 514 223 554 C231 578 233 589 233 606 C233 642 215 667 188 667 C160 667 143 644 143 609 C143 590 145 577 153 552 C171 498 175 478 176 445 C147 447 140 449 107 463 C87 472 79 474 68 474 C45 474 27 456 27 432 C27 409 45 392 70 392 C82 392 93 395 110 403 C116 406 123 409 130 412 C137 416 145 418 152 420 C158 421 162 421 176 423 C176 409 175 398 173 378 C168 338 166 310 166 278 C166 259 167 236 170 176 C175 92 176 67 176 -22 L176 -240 L200 -240 Z " />
<glyph glyph-name="daggerdbl" unicode="&#x2021;" horiz-adv-x="387" d="M201 259 L202 279 C206 322 208 352 208 376 C208 409 206 428 199 463 C210 463 228 459 248 451 C284 436 293 434 306 434 C332 434 349 449 349 472 C349 496 333 510 306 510 C291 510 279 507 258 499 C231 488 215 484 199 483 C201 504 206 531 216 562 C227 598 229 606 229 621 C229 650 212 672 191 672 C169 672 153 651 153 622 C153 607 156 594 165 566 C177 529 184 498 183 483 C161 485 147 488 121 499 C97 510 88 512 74 512 C49 512 31 495 31 472 C31 449 49 432 74 432 C85 432 101 436 119 444 C145 455 148 456 183 463 C176 425 174 405 174 372 C174 356 176 332 178 313 C181 289 182 282 183 259 L201 259 Z M183 175 C182 131 182 112 179 94 C173 51 173 46 173 31 C173 7 176 -12 183 -31 C169 -31 149 -25 113 -11 C95 -3 87 -1 75 -1 C50 -1 32 -17 32 -40 C32 -63 49 -78 75 -78 C85 -78 91 -77 108 -71 C149 -56 152 -55 156 -54 C165 -51 173 -50 183 -49 C183 -67 177 -92 161 -138 C153 -161 151 -172 151 -187 C151 -217 169 -240 193 -240 C214 -240 231 -217 231 -187 C231 -168 229 -158 214 -108 C202 -62 202 -60 201 -49 C221 -50 230 -52 256 -62 C288 -75 294 -76 306 -76 C331 -76 350 -59 350 -37 C350 -16 332 1 309 1 C300 1 290 -2 275 -8 C245 -20 216 -29 201 -31 C208 -9 210 7 210 33 C210 47 209 63 208 75 C204 109 202 130 201 175 L183 175 Z " />
<glyph glyph-name="bullet" unicode="&#x2022;" horiz-adv-x="600" d="M301 480 C231 480 176 418 176 340 C176 263 232 200 300 200 C368 200 423 263 423 340 C423 417 368 480 301 480 L301 480 Z " />
<glyph glyph-name="ellipsis" unicode="&#x2026;" horiz-adv-x="906" d="M154 90 C127 90 106 67 106 37 C106 8 127 -16 154 -16 C180 -16 201 8 201 37 C201 66 180 90 154 90 L154 90 Z M454 90 C427 90 406 67 406 37 C406 8 427 -16 454 -16 C480 -16 501 8 501 37 C501 66 480 90 454 90 L454 90 Z M756 90 C729 90 708 67 708 37 C708 8 729 -16 756 -16 C782 -16 803 8 803 37 C803 66 782 90 756 90 L756 90 Z " />
<glyph glyph-name="perthousand" unicode="&#x2030;" horiz-adv-x="885" d="M146 677 C112 677 86 665 66 641 C40 609 24 557 24 504 C24 400 69 336 142 336 C216 336 263 403 263 508 C263 611 217 677 146 677 L146 677 Z M143 660 C181 660 195 620 195 511 C195 403 179 354 144 354 C129 354 117 362 108 378 C96 398 92 434 92 515 C92 616 107 660 143 660 L143 660 Z M159 0 L467 644 L439 644 L131 0 L159 0 Z M456 331 C422 331 396 319 376 295 C350 263 334 211 334 158 C334 54 379 -10 452 -10 C527 -10 574 57 574 162 C574 265 528 331 456 331 L456 331 Z M454 314 C492 314 506 274 506 165 C506 57 490 8 455 8 C440 8 428 16 418 32 C406 52 402 87 402 169 C402 270 418 314 454 314 L454 314 Z M744 331 C710 331 684 319 664 295 C638 263 622 211 622 158 C622 54 667 -10 740 -10 C814 -10 861 57 861 162 C861 265 815 331 744 331 L744 331 Z M741 314 C779 314 793 274 793 165 C793 57 777 8 742 8 C727 8 715 16 706 32 C694 52 690 88 690 169 C690 270 705 314 741 314 L741 314 Z " />
<glyph glyph-name="guilsinglleft" unicode="&#x2039;" horiz-adv-x="245" d="M30 215 L194 23 L218 23 L116 215 L218 403 L194 403 L30 215 Z " />
<glyph glyph-name="guilsinglright" unicode="&#x203a;" horiz-adv-x="245" d="M214 215 L50 403 L26 403 L128 215 L26 23 L50 23 L214 215 Z " />
<glyph glyph-name="uni203E" unicode="&#x203e;" horiz-adv-x="500" d="M0 847 L0 807 L500 807 L500 847 L0 847 Z " />
<glyph glyph-name="fraction" unicode="&#x2044;" horiz-adv-x="119" d="M-81 0 L227 644 L200 644 L-108 0 L-81 0 Z " />
<glyph glyph-name="franc" unicode="&#x20a3;" horiz-adv-x="671" d="M492 667 L29 667 L29 644 L39 644 C112 646 117 636 116 501 L116 174 C117 36 111 23 44 23 L26 23 L26 0 L305 0 L305 23 L285 23 C217 23 211 36 212 174 L212 340 L266 340 C332 343 352 320 354 239 L354 229 L376 229 L376 464 L354 464 L354 458 C353 382 334 360 266 362 L212 362 L212 644 L324 644 C420 651 459 613 477 501 L497 501 L492 667 Z M406 316 L414 316 C461 314 463 309 462 206 L462 131 C463 28 461 23 414 21 L406 21 L406 0 L588 0 L588 21 L577 21 C530 23 528 28 529 131 L529 166 C529 231 533 249 551 281 C568 310 594 332 610 332 C621 332 627 325 632 308 C640 283 649 273 663 273 C679 273 691 287 691 306 C691 338 664 365 633 365 C591 365 546 324 525 267 C525 306 519 342 510 365 C472 351 429 340 406 337 L406 316 Z " />
<glyph glyph-name="Euro" unicode="&#x20ac;" horiz-adv-x="673" d="M206 364 C217 551 288 654 407 654 C473 654 539 617 573 560 C594 524 609 476 618 414 L637 414 L632 667 L612 667 C610 639 601 606 589 581 C543 642 466 679 386 679 C224 679 113 560 94 364 L49 364 L38 335 L92 335 L92 323 L92 321 L92 317 L92 309 L92 306 L49 306 L38 277 L94 277 C112 101 226 -12 387 -12 C469 -12 536 21 589 87 C602 70 614 41 618 17 L637 17 L637 250 L618 250 C609 166 572 87 527 55 C492 30 450 16 411 16 C297 16 220 115 207 277 L452 277 L463 306 L205 306 L205 335 L474 335 L486 364 L206 364 Z " />
<glyph glyph-name="trademark" unicode="&#x2122;" horiz-adv-x="773" d="M76 287 L243 287 L243 304 L222 304 C193 304 189 310 189 348 L189 647 L222 647 C274 648 288 631 289 568 L305 568 L305 667 L14 667 L14 568 L30 568 C31 631 46 648 98 647 L131 647 L131 348 C131 310 127 304 98 304 L76 304 L76 287 Z M322 667 L322 650 C360 649 367 645 366 621 L366 345 C367 318 355 306 323 304 L323 287 L432 287 L432 304 C400 307 387 319 388 346 L388 631 L518 287 L527 287 L653 621 L653 345 C654 314 647 305 620 304 L608 304 L608 287 L751 287 L751 304 L739 304 C715 304 708 314 709 345 L709 609 C708 640 715 650 739 650 L753 650 L753 667 L652 667 L539 369 L428 667 L322 667 Z " />
<glyph glyph-name="uni2126" unicode="&#x2126;" horiz-adv-x="768" d="M326 0 L308 155 C230 199 180 288 180 382 C180 434 195 493 221 540 C257 605 317 642 385 642 C453 642 513 605 549 540 C575 493 590 434 590 382 C590 288 540 199 462 155 L444 0 L736 0 L736 153 L712 153 C704 108 684 90 643 90 L497 90 L500 128 C535 141 557 151 580 166 C657 215 702 296 702 382 C702 449 673 522 625 578 C564 648 480 686 385 686 C290 686 206 648 145 578 C97 522 68 449 68 382 C68 296 113 215 190 166 C213 151 235 141 270 128 L273 90 L127 90 C86 90 66 108 58 153 L34 153 L34 0 L326 0 Z " />
<glyph glyph-name="partialdiff" unicode="&#x2202;" horiz-adv-x="494" d="M107 674 C152 697 184 706 219 706 C321 706 379 611 379 448 C379 418 377 395 372 346 C308 396 272 412 221 412 C172 412 131 394 95 355 C51 309 26 246 26 184 C26 76 109 -10 213 -10 C282 -10 341 22 383 84 C429 152 462 286 462 403 C462 519 428 611 360 681 C312 730 259 753 195 753 C156 753 122 746 66 725 L107 674 Z M366 312 C350 201 339 158 314 107 C288 54 245 21 201 21 C146 21 113 73 113 159 C113 273 180 367 261 367 C299 367 324 354 366 312 L366 312 Z " />
<glyph glyph-name="Delta" unicode="&#x2206;" horiz-adv-x="612" d="M6 0 L608 0 L327 688 L6 0 Z M77 51 L290 509 L479 51 L77 51 Z " />
<glyph glyph-name="product" unicode="&#x220f;" horiz-adv-x="823" d="M25 -124 L315 -124 L315 -98 L312 -98 C242 -94 221 -67 224 18 L224 594 C224 656 228 677 242 690 C260 707 272 708 413 708 C556 708 568 707 586 690 C600 677 604 656 604 594 L604 18 C607 -67 586 -94 516 -98 L513 -98 L513 -124 L803 -124 L803 -98 L800 -98 C730 -94 709 -67 712 18 L712 609 C709 694 730 721 800 725 L803 725 L803 751 L25 751 L25 725 L28 725 C98 721 119 694 116 609 L116 18 C119 -67 98 -94 28 -98 L25 -98 L25 -124 Z " />
<glyph glyph-name="summation" unicode="&#x2211;" horiz-adv-x="713" d="M176 711 L444 711 C560 710 590 688 606 587 L632 587 L622 752 L23 752 L256 285 L14 -123 L641 -123 L695 87 L669 87 C639 7 605 -12 491 -11 L163 -11 L364 341 L176 711 Z " />
<glyph glyph-name="minus" unicode="&#x2212;" horiz-adv-x="450" d="M21 362 L21 320 L430 320 L430 362 L21 362 Z " />
<glyph glyph-name="uni2215" unicode="&#x2215;" horiz-adv-x="119" d="M-81 0 L227 644 L200 644 L-108 0 L-81 0 Z " />
<glyph glyph-name="uni2219" unicode="&#x2219;" horiz-adv-x="246" d="M122 386 C96 386 74 362 74 334 C74 305 95 281 122 281 C148 281 169 305 169 334 C169 363 148 386 122 386 L122 386 Z " />
<glyph glyph-name="radical" unicode="&#x221a;" horiz-adv-x="549" d="M363 -35 L515 908 L480 913 L353 123 L156 520 L10 449 L26 414 L121 461 L363 -35 Z " />
<glyph glyph-name="infinity" unicode="&#x221e;" horiz-adv-x="713" d="M357 303 C300 375 234 414 171 414 C86 414 26 351 26 263 C26 176 84 115 167 115 C224 115 282 143 327 192 C335 201 340 207 357 228 C415 156 485 115 548 115 C631 115 688 176 688 266 C688 354 629 414 543 414 C476 414 412 376 357 303 L357 303 Z M391 265 C434 325 493 362 546 362 C600 362 638 321 638 264 C638 205 603 167 549 167 C495 167 461 188 391 265 L391 265 Z M324 266 C275 203 216 167 163 167 C111 167 76 207 76 266 C76 323 113 362 167 362 C218 362 259 337 324 266 L324 266 Z " />
<glyph glyph-name="integral" unicode="&#x222b;" horiz-adv-x="274" d="M180 576 C180 653 179 691 176 746 C174 774 173 800 173 815 C173 855 184 878 202 878 C208 878 213 876 215 872 C232 845 239 839 256 839 C276 839 291 853 291 871 C291 898 267 916 231 916 C186 916 152 887 138 838 C123 784 113 682 113 577 L113 232 C113 160 114 124 117 63 C119 34 120 4 120 -12 C120 -47 108 -70 89 -70 C81 -70 74 -65 68 -52 C59 -35 51 -30 37 -30 C17 -30 2 -44 2 -63 C2 -89 26 -107 62 -107 C107 -107 141 -78 155 -29 C170 25 180 126 180 232 L180 576 Z " />
<glyph glyph-name="approxequal" unicode="&#x2248;" horiz-adv-x="549" d="M489 251 C444 199 423 187 384 187 C365 187 354 190 285 211 C212 234 188 239 160 239 C101 239 54 211 14 155 L57 121 C103 174 120 184 159 184 C180 184 180 184 271 157 C350 133 354 132 385 132 C449 132 496 160 527 217 L489 251 Z M489 408 C443 356 424 344 384 344 C365 344 354 347 285 369 C212 392 188 397 160 397 C101 397 54 369 14 312 L57 279 C104 332 119 342 159 342 C181 342 181 342 271 315 C351 290 354 289 385 289 C449 289 496 318 527 375 L489 408 Z " />
<glyph glyph-name="notequal" unicode="&#x2260;" horiz-adv-x="549" d="M187 142 L115 -1 L161 -25 L246 142 L540 142 L540 197 L273 197 L344 336 L540 336 L540 391 L371 391 L439 525 L392 549 L312 391 L15 391 L15 336 L285 336 L215 197 L15 197 L15 142 L187 142 Z " />
<glyph glyph-name="lessequal" unicode="&#x2264;" horiz-adv-x="549" d="M526 55 L29 55 L29 0 L526 0 L526 55 Z M526 639 L29 405 L29 350 L526 117 L526 179 L108 378 L526 577 L526 639 Z " />
<glyph glyph-name="greaterequal" unicode="&#x2265;" horiz-adv-x="549" d="M526 55 L29 55 L29 0 L526 0 L526 55 Z M29 639 L29 577 L447 378 L29 179 L29 117 L526 350 L526 405 L29 639 Z " />
<glyph glyph-name="lozenge" unicode="&#x25ca;" horiz-adv-x="494" d="M209 0 L269 -1 L466 374 L277 740 L214 740 L18 377 L209 0 Z M240 58 L81 376 L245 683 L402 373 L240 58 Z " />
<glyph glyph-name="fi" unicode="&#xfb01;" horiz-adv-x="469" d="M11 380 L79 380 L79 138 C80 30 78 24 28 23 L22 23 L22 0 L206 0 L206 23 L200 23 C151 24 148 29 150 138 L150 380 L268 380 C326 382 334 370 332 284 L332 138 C333 29 331 24 281 23 L273 23 L273 0 L458 0 L458 23 L453 23 C404 24 401 30 403 138 L403 419 L391 419 C367 409 317 403 257 403 L150 403 L150 436 C150 533 156 577 172 606 C190 635 224 655 257 655 C289 655 308 643 325 612 C341 584 351 575 368 575 C384 575 396 589 396 607 C396 646 340 677 268 677 C204 677 153 653 118 606 C90 567 79 522 79 441 L79 403 L11 403 L11 380 Z " />
<glyph glyph-name="fl" unicode="&#xfb02;" horiz-adv-x="469" d="M78 403 L10 403 L10 380 L78 380 L78 138 C79 30 77 24 27 23 L21 23 L21 0 L204 0 L204 23 L199 23 C150 24 147 29 149 138 L149 380 L332 380 L332 138 C333 29 331 24 281 23 L273 23 L273 0 L458 0 L458 23 L454 23 C405 24 402 30 404 138 L404 677 L392 677 C367 669 350 665 341 663 C322 671 292 677 264 677 C203 677 150 651 117 605 C88 567 78 522 78 441 L78 403 Z M332 403 L149 403 L149 436 C149 533 154 577 171 606 C188 636 221 655 254 655 C284 655 304 642 319 612 C326 599 328 595 332 592 L332 403 Z " />
</font>
</svg>
