<?xml version="1.0" encoding="UTF-8"?>
<svg xmlns="http://www.w3.org/2000/svg" xmlns:xlink="http://www.w3.org/1999/xlink" version="1.2" >
<font id="Bison Light Italic">
<font-face  font-family="Bison" units-per-em="1000" ascent="770" descent="-200" font-style="italic" font-weight="300" font-stretch="normal" slope="-10" cap-height="700" x-height="500" underline-position="-75" underline-thickness="50" />
<missing-glyph  horiz-adv-x="600" d="" />
<glyph glyph-name="space" unicode="&#x20;" horiz-adv-x="155" d="" />
<glyph glyph-name="A" unicode="A" horiz-adv-x="364" d="M321 0 L314 199 L121 199 L43 0 L20 0 L294 700 L316 700 L344 0 L321 0 Z M129 221 L313 221 L297 650 L129 221 Z " />
<glyph glyph-name="Aacute" unicode="&#xc1;" horiz-adv-x="364" d="M321 0 L314 199 L121 199 L43 0 L20 0 L294 700 L316 700 L344 0 L321 0 Z M129 221 L313 221 L297 650 L129 221 Z M413 835 L322 737 L302 737 L382 835 L413 835 Z " />
<glyph glyph-name="Abreve" unicode="&#x102;" horiz-adv-x="364" d="M321 0 L314 199 L121 199 L43 0 L20 0 L294 700 L316 700 L344 0 L321 0 Z M129 221 L313 221 L297 650 L129 221 Z M419 828 Q412 790 380.5 763.5 Q349 737 312 737 Q279 737 257.5 758.5 Q236 780 236 812 Q236 823 237 828 L259 828 Q258 824 258 816 Q258 792 274.5 775.5 Q291 759 316 759 Q344 759 368 779 Q392 799 397 828 L419 828 Z " />
<glyph glyph-name="uni1EAE" unicode="&#x1eae;" horiz-adv-x="364" d="M321 0 L314 199 L121 199 L43 0 L20 0 L294 700 L316 700 L344 0 L321 0 Z M129 221 L313 221 L297 650 L129 221 Z M419 828 Q412 790 380.5 763.5 Q349 737 312 737 Q279 737 257.5 758.5 Q236 780 236 812 Q236 823 237 828 L259 828 Q258 824 258 816 Q258 792 274.5 775.5 Q291 759 316 759 Q344 759 368 779 Q392 799 397 828 L419 828 Z M434 954 L343 856 L323 856 L403 954 L434 954 Z " />
<glyph glyph-name="uni1EB6" unicode="&#x1eb6;" horiz-adv-x="364" d="M321 0 L314 199 L121 199 L43 0 L20 0 L294 700 L316 700 L344 0 L321 0 Z M129 221 L313 221 L297 650 L129 221 Z M419 828 Q412 790 380.5 763.5 Q349 737 312 737 Q279 737 257.5 758.5 Q236 780 236 812 Q236 823 237 828 L259 828 Q258 824 258 816 Q258 792 274.5 775.5 Q291 759 316 759 Q344 759 368 779 Q392 799 397 828 L419 828 Z M321 0 L314 199 L121 199 L43 0 L20 0 L294 700 L316 700 L344 0 L321 0 Z M129 221 L313 221 L297 650 L129 221 Z M419 828 Q412 790 380.5 763.5 Q349 737 312 737 Q279 737 257.5 758.5 Q236 780 236 812 Q236 823 237 828 L259 828 Q258 824 258 816 Q258 792 274.5 775.5 Q291 759 316 759 Q344 759 368 779 Q392 799 397 828 L419 828 Z M197 -60 Q197 -51 191 -45.5 Q185 -40 175 -40 Q164 -40 155 -47.5 Q146 -55 144 -66 Q142 -77 149 -84.5 Q156 -92 166 -92 Q177 -92 185.5 -84.5 Q194 -77 196 -66 L197 -60 Z " />
<glyph glyph-name="uni1EB0" unicode="&#x1eb0;" horiz-adv-x="364" d="M321 0 L314 199 L121 199 L43 0 L20 0 L294 700 L316 700 L344 0 L321 0 Z M129 221 L313 221 L297 650 L129 221 Z M259 828 Q258 824 258 816 Q258 792 274.5 775.5 Q291 759 316 759 Q344 759 368 779 Q392 799 397 828 L419 828 Q412 790 380.5 763.5 Q349 737 312 737 Q279 737 257.5 758.5 Q236 780 236 812 Q236 823 237 828 L259 828 Z M266 954 L297 954 L343 856 L323 856 L266 954 Z " />
<glyph glyph-name="uni1EB2" unicode="&#x1eb2;" horiz-adv-x="364" d="M321 0 L314 199 L121 199 L43 0 L20 0 L294 700 L316 700 L344 0 L321 0 Z M129 221 L313 221 L297 650 L129 221 Z M419 828 Q412 790 380.5 763.5 Q349 737 312 737 Q279 737 257.5 758.5 Q236 780 236 812 Q236 823 237 828 L259 828 Q258 824 258 816 Q258 792 274.5 775.5 Q291 759 316 759 Q344 759 368 779 Q392 799 397 828 L419 828 Z M323 856 Q324 860 324 868 Q324 892 307 908.5 Q290 925 265 925 L249 944 Q259 947 269 947 Q302 947 323 925.5 Q344 904 344 872 Q344 862 343 856 L323 856 Z " />
<glyph glyph-name="uni1EB4" unicode="&#x1eb4;" horiz-adv-x="364" d="M321 0 L314 199 L121 199 L43 0 L20 0 L294 700 L316 700 L344 0 L321 0 Z M129 221 L313 221 L297 650 L129 221 Z M419 828 Q412 790 380.5 763.5 Q349 737 312 737 Q279 737 257.5 758.5 Q236 780 236 812 Q236 823 237 828 L259 828 Q258 824 258 816 Q258 792 274.5 775.5 Q291 759 316 759 Q344 759 368 779 Q392 799 397 828 L419 828 Z M217 856 Q251 890 278 890 Q296 890 320 874 Q346 856 370 856 Q378 856 381 857 Q413 861 448 898 L434 911 Q401 878 374 878 Q357 878 335 892 Q304 912 282 912 L272 911 Q240 907 202 870 L217 856 Z " />
<glyph glyph-name="uni01CD" unicode="&#x1cd;" horiz-adv-x="364" d="M321 0 L314 199 L121 199 L43 0 L20 0 L294 700 L316 700 L344 0 L321 0 Z M129 221 L313 221 L297 650 L129 221 Z M299 737 L248 835 L268 835 L316 758 L390 835 L410 835 L326 737 L299 737 Z " />
<glyph glyph-name="Acircumflex" unicode="&#xc2;" horiz-adv-x="364" d="M321 0 L314 199 L121 199 L43 0 L20 0 L294 700 L316 700 L344 0 L321 0 Z M129 221 L313 221 L297 650 L129 221 Z M316 835 L343 835 L393 737 L373 737 L326 814 L251 737 L231 737 L316 835 Z " />
<glyph glyph-name="uni1EA4" unicode="&#x1ea4;" horiz-adv-x="364" d="M321 0 L314 199 L121 199 L43 0 L20 0 L294 700 L316 700 L344 0 L321 0 Z M129 221 L313 221 L297 650 L129 221 Z M316 835 L343 835 L393 737 L373 737 L326 814 L251 737 L231 737 L316 835 Z M501 935 L410 837 L390 837 L470 935 L501 935 Z " />
<glyph glyph-name="uni1EAC" unicode="&#x1eac;" horiz-adv-x="364" d="M321 0 L314 199 L121 199 L43 0 L20 0 L294 700 L316 700 L344 0 L321 0 Z M129 221 L313 221 L297 650 L129 221 Z M316 835 L343 835 L393 737 L373 737 L326 814 L251 737 L231 737 L316 835 Z M197 -60 Q197 -51 191 -45.5 Q185 -40 175 -40 Q164 -40 155 -47.5 Q146 -55 144 -66 Q142 -77 149 -84.5 Q156 -92 166 -92 Q177 -92 185.5 -84.5 Q194 -77 196 -66 L197 -60 Z " />
<glyph glyph-name="uni1EA6" unicode="&#x1ea6;" horiz-adv-x="364" d="M321 0 L314 199 L121 199 L43 0 L20 0 L294 700 L316 700 L344 0 L321 0 Z M129 221 L313 221 L297 650 L129 221 Z M316 835 L343 835 L393 737 L373 737 L326 814 L251 737 L231 737 L316 835 Z M333 935 L364 935 L410 837 L390 837 L333 935 Z " />
<glyph glyph-name="uni1EA8" unicode="&#x1ea8;" horiz-adv-x="364" d="M321 0 L314 199 L121 199 L43 0 L20 0 L294 700 L316 700 L344 0 L321 0 Z M129 221 L313 221 L297 650 L129 221 Z M316 835 L343 835 L393 737 L373 737 L326 814 L251 737 L231 737 L316 835 Z M323 856 Q324 860 324 868 Q324 892 307 908.5 Q290 925 265 925 L249 944 Q259 947 269 947 Q302 947 323 925.5 Q344 904 344 872 Q344 862 343 856 L323 856 Z " />
<glyph glyph-name="uni1EAA" unicode="&#x1eaa;" horiz-adv-x="364" d="M321 0 L314 199 L121 199 L43 0 L20 0 L294 700 L316 700 L344 0 L321 0 Z M129 221 L313 221 L297 650 L129 221 Z M316 835 L343 835 L393 737 L373 737 L326 814 L251 737 L231 737 L316 835 Z M229 856 Q263 890 290 890 Q308 890 332 874 Q358 856 382 856 Q390 856 393 857 Q425 861 460 898 L446 911 Q413 878 386 878 Q369 878 347 892 Q316 912 294 912 L284 911 Q252 907 214 870 L229 856 Z " />
<glyph glyph-name="Adieresis" unicode="&#xc4;" horiz-adv-x="364" d="M321 0 L314 199 L121 199 L43 0 L20 0 L294 700 L316 700 L344 0 L321 0 Z M129 221 L313 221 L297 650 L129 221 Z M276 763 Q278 774 271.5 781.5 Q265 789 254 789 Q243 789 234 781.5 Q225 774 224 763 Q222 753 228 745 Q234 737 245 737 Q256 737 265 744.5 Q274 752 276 763 Z M410 763 Q412 774 405.5 781.5 Q399 789 388 789 Q377 789 368 781.5 Q359 774 358 763 Q356 753 362 745 Q368 737 379 737 Q390 737 399 744.5 Q408 752 410 763 Z " />
<glyph glyph-name="uni01DE" unicode="&#x1de;" horiz-adv-x="379" d="M321 0 L314 199 L121 199 L43 0 L20 0 L294 700 L316 700 L344 0 L321 0 Z M129 221 L313 221 L297 650 L129 221 Z M276 763 Q278 774 271.5 781.5 Q265 789 254 789 Q243 789 234 781.5 Q225 774 224 763 Q222 753 228 745 Q234 737 245 737 Q256 737 265 744.5 Q274 752 276 763 Z M410 763 Q412 774 405.5 781.5 Q399 789 388 789 Q377 789 368 781.5 Q359 774 358 763 Q356 753 362 745 Q368 737 379 737 Q390 737 399 744.5 Q408 752 410 763 Z M505 827 L509 849 L175 849 L171 827 L505 827 Z " />
<glyph glyph-name="uni1EA0" unicode="&#x1ea0;" horiz-adv-x="364" d="M321 0 L314 199 L121 199 L43 0 L20 0 L294 700 L316 700 L344 0 L321 0 Z M129 221 L313 221 L297 650 L129 221 Z M197 -60 Q197 -51 191 -45.5 Q185 -40 175 -40 Q164 -40 155 -47.5 Q146 -55 144 -66 Q142 -77 149 -84.5 Q156 -92 166 -92 Q177 -92 185.5 -84.5 Q194 -77 196 -66 L197 -60 Z " />
<glyph glyph-name="Agrave" unicode="&#xc0;" horiz-adv-x="364" d="M321 0 L314 199 L121 199 L43 0 L20 0 L294 700 L316 700 L344 0 L321 0 Z M129 221 L313 221 L297 650 L129 221 Z M245 835 L276 835 L322 737 L302 737 L245 835 Z " />
<glyph glyph-name="uni1EA2" unicode="&#x1ea2;" horiz-adv-x="364" d="M321 0 L314 199 L121 199 L43 0 L20 0 L294 700 L316 700 L344 0 L321 0 Z M129 221 L313 221 L297 650 L129 221 Z M302 737 Q303 741 303 749 Q303 773 286 789.5 Q269 806 244 806 L228 825 Q238 828 248 828 Q281 828 302 806.5 Q323 785 323 753 Q323 743 322 737 L302 737 Z " />
<glyph glyph-name="Amacron" unicode="&#x100;" horiz-adv-x="374" d="M326 0 L319 199 L126 199 L48 0 L25 0 L299 700 L321 700 L349 0 L326 0 Z M134 221 L318 221 L302 650 L134 221 Z M484 737 L488 759 L154 759 L150 737 L484 737 Z " />
<glyph glyph-name="Aogonek" unicode="&#x104;" horiz-adv-x="364" d="M274 -60 Q271 -81 314 -81 L323 -81 L319 -104 L300 -104 Q271 -104 253 -97 Q235 -90 239 -69 Q244 -34 320 0 L321 0 L314 199 L121 199 L43 0 L20 0 L294 700 L316 700 L344 0 Q310 -18 293.5 -32 Q277 -46 274 -60 Z M129 221 L313 221 L297 650 L129 221 Z " />
<glyph glyph-name="Aring" unicode="&#xc5;" horiz-adv-x="364" d="M321 0 L314 199 L121 199 L43 0 L20 0 L294 700 L316 700 L344 0 L321 0 Z M129 221 L313 221 L297 650 L129 221 Z M312 737 Q334 737 352 752.5 Q370 768 374 790 Q375 794 375 800 Q375 819 362.5 831 Q350 843 331 843 Q309 843 290.5 827.5 Q272 812 268 790 Q267 787 267 781 Q267 762 280 749.5 Q293 737 312 737 Z M327 821 Q340 821 347 812 Q354 803 352 790 Q350 777 339.5 768 Q329 759 316 759 Q303 759 295.5 768 Q288 777 290 790 Q292 803 303 812 Q314 821 327 821 Z " />
<glyph glyph-name="Atilde" unicode="&#xc3;" horiz-adv-x="364" d="M321 0 L314 199 L121 199 L43 0 L20 0 L294 700 L316 700 L344 0 L321 0 Z M129 221 L313 221 L297 650 L129 221 Z M206 738 Q240 772 267 772 Q285 772 309 756 Q336 738 359 738 Q367 738 370 739 Q401 743 438 780 L423 793 Q390 760 363 760 Q346 760 324 774 Q293 794 271 794 L261 793 Q229 789 192 752 L206 738 Z " />
<glyph glyph-name="AE" unicode="&#xc6;" horiz-adv-x="518" d="M364 700 L401 700 L617 700 L614 678 L401 678 L346 370 L495 370 L491 348 L342 348 L285 22 L498 22 L494 0 L259 0 L287 161 L122 161 L43 0 L20 0 L364 700 Z M291 183 L378 676 L133 183 L291 183 Z " />
<glyph glyph-name="B" unicode="B" horiz-adv-x="351" d="M179 0 Q243 0 281 31 Q328 65 342 141 L355 214 Q359 233 359 253 Q359 299 335 327 Q318 344 293 353 Q310 360 325 372 Q373 410 385 484 L398 558 Q402 577 402 596 Q402 643 377 668 Q347 700 285 700 L163 700 L40 0 L179 0 Z M122 338 L239 338 Q292 338 317 310 Q336 290 336 249 Q336 232 333 214 L320 141 Q299 22 183 22 L66 22 L122 338 Z M182 678 L282 678 Q379 678 379 592 Q379 576 376 558 L363 484 Q353 420 312 388 Q280 360 225 360 L125 360 L182 678 Z " />
<glyph glyph-name="uni1E04" unicode="&#x1e04;" horiz-adv-x="351" d="M179 0 Q243 0 281 31 Q328 65 342 141 L355 214 Q359 233 359 253 Q359 299 335 327 Q318 344 293 353 Q310 360 325 372 Q373 410 385 484 L398 558 Q402 577 402 596 Q402 643 377 668 Q347 700 285 700 L163 700 L40 0 L179 0 Z M122 338 L239 338 Q292 338 317 310 Q336 290 336 249 Q336 232 333 214 L320 141 Q299 22 183 22 L66 22 L122 338 Z M182 678 L282 678 Q379 678 379 592 Q379 576 376 558 L363 484 Q353 420 312 388 Q280 360 225 360 L125 360 L182 678 Z M195 -60 Q195 -51 189 -45.5 Q183 -40 173 -40 Q162 -40 153 -47.5 Q144 -55 142 -66 Q140 -77 147 -84.5 Q154 -92 164 -92 Q175 -92 183.5 -84.5 Q192 -77 194 -66 L195 -60 Z " />
<glyph glyph-name="uni0181" unicode="&#x181;" horiz-adv-x="386" d="M370 327 Q394 299 394 253 Q394 233 390 214 L377 141 Q363 65 316 31 Q278 0 214 0 L75 0 L195 678 L153 678 Q140 678 129 669 Q118 660 116 647 L94 647 Q98 669 116 684.5 Q134 700 156 700 L320 700 Q382 700 412 668 Q437 643 437 596 Q437 577 433 558 L420 484 Q408 410 360 372 Q345 360 328 353 Q353 344 370 327 Z M160 360 L260 360 Q315 360 347 388 Q388 420 398 484 L411 558 Q414 576 414 592 Q414 678 317 678 L217 678 L160 360 Z M368 214 Q371 232 371 249 Q371 290 352 310 Q327 338 274 338 L157 338 L101 22 L218 22 Q334 22 355 141 L368 214 Z " />
<glyph glyph-name="uni0243" unicode="&#x243;" horiz-adv-x="381" d="M364 327 Q389 299 389 254 Q389 234 385 215 L372 141 Q360 68 312 31 Q270 0 209 0 L70 0 L100 169 L30 169 L34 191 L104 191 L193 700 L314 700 Q375 700 407 668 Q432 643 432 596 Q432 577 428 558 L415 484 Q403 411 355 372 Q340 360 323 353 Q349 344 364 327 Z M155 360 L255 360 Q307 360 343 388 Q383 420 393 484 L406 558 Q409 576 409 592 Q409 678 311 678 L212 678 L155 360 Z M363 215 Q366 233 366 249 Q366 290 346 311 Q322 338 268 338 L152 338 L126 191 L197 191 L193 169 L122 169 L96 22 L212 22 Q329 22 350 141 L363 215 Z " />
<glyph glyph-name="C" unicode="C" horiz-adv-x="343" d="M170 -9 Q234 -9 274 25 Q323 63 335 137 L353 240 L331 240 L313 137 Q303 73 262 41 Q228 13 174 13 Q122 13 97 41 Q77 62 77 103 Q77 119 80 137 L155 563 Q167 629 206 659 Q240 687 293 687 Q346 687 371 659 Q391 638 391 597 Q391 581 388 563 L376 493 L398 493 L410 563 Q414 582 414 602 Q414 649 389 675 Q360 709 297 709 Q236 709 194 675 Q147 638 133 563 L58 137 Q55 116 55 99 Q55 50 79 25 Q110 -9 170 -9 Z " />
<glyph glyph-name="Cacute" unicode="&#x106;" horiz-adv-x="343" d="M170 -9 Q234 -9 274 25 Q323 63 335 137 L353 240 L331 240 L313 137 Q303 73 262 41 Q228 13 174 13 Q122 13 97 41 Q77 62 77 103 Q77 119 80 137 L155 563 Q167 629 206 659 Q240 687 293 687 Q346 687 371 659 Q391 638 391 597 Q391 581 388 563 L376 493 L398 493 L410 563 Q414 582 414 602 Q414 649 389 675 Q360 709 297 709 Q236 709 194 675 Q147 638 133 563 L58 137 Q55 116 55 99 Q55 50 79 25 Q110 -9 170 -9 Z M404 835 L313 737 L293 737 L373 835 L404 835 Z " />
<glyph glyph-name="Ccaron" unicode="&#x10c;" horiz-adv-x="343" d="M170 -9 Q234 -9 274 25 Q323 63 335 137 L353 240 L331 240 L313 137 Q303 73 262 41 Q228 13 174 13 Q122 13 97 41 Q77 62 77 103 Q77 119 80 137 L155 563 Q167 629 206 659 Q240 687 293 687 Q346 687 371 659 Q391 638 391 597 Q391 581 388 563 L376 493 L398 493 L410 563 Q414 582 414 602 Q414 649 389 675 Q360 709 297 709 Q236 709 194 675 Q147 638 133 563 L58 137 Q55 116 55 99 Q55 50 79 25 Q110 -9 170 -9 Z M290 737 L239 835 L259 835 L307 758 L381 835 L401 835 L317 737 L290 737 Z " />
<glyph glyph-name="Ccedilla" unicode="&#xc7;" horiz-adv-x="343" d="M376 492 L388 563 Q391 581 391 597 Q391 638 371 659 Q346 687 293 687 Q240 687 206 659 Q167 629 155 563 L80 136 Q77 118 77 102 Q77 61 97 40 Q122 12 174 12 Q228 12 262 40 Q301 70 313 136 L331 239 L353 239 L335 136 Q321 61 274 24 Q238 -6 181 -9 Q181 -10 182 -15.5 Q183 -21 189 -26 Q189 -26 191 -28 Q213 -45 213 -67 L212 -76 Q207 -98 189 -113.5 Q171 -129 149 -129 Q130 -129 117.5 -117 Q105 -105 105 -87 Q105 -80 106 -76 L128 -76 Q126 -89 133 -98 Q140 -107 153 -107 Q166 -107 177 -98 Q188 -89 190 -76 Q191 -65 187.5 -59 Q184 -53 175 -45 L173 -44 Q157 -30 159 -9 Q106 -6 79 24 Q54 52 54 99 Q54 110 58 136 L133 563 Q147 637 194 675 Q236 709 297 709 Q360 709 389 675 Q414 649 414 602 Q414 582 410 563 L398 492 L376 492 Z " />
<glyph glyph-name="Cdotaccent" unicode="&#x10a;" horiz-adv-x="343" d="M170 -9 Q234 -9 274 25 Q323 63 335 137 L353 240 L331 240 L313 137 Q303 73 262 41 Q228 13 174 13 Q122 13 97 41 Q77 62 77 103 Q77 119 80 137 L155 563 Q167 629 206 659 Q240 687 293 687 Q346 687 371 659 Q391 638 391 597 Q391 581 388 563 L376 493 L398 493 L410 563 Q414 582 414 602 Q414 649 389 675 Q360 709 297 709 Q236 709 194 675 Q147 638 133 563 L58 137 Q55 116 55 99 Q55 50 79 25 Q110 -9 170 -9 Z M333 763 Q335 774 328.5 781.5 Q322 789 311 789 Q300 789 291 781.5 Q282 774 281 763 Q279 753 285 745 Q291 737 302 737 Q313 737 322 744.5 Q331 752 333 763 Z " />
<glyph glyph-name="uni0187" unicode="&#x187;" horiz-adv-x="343" d="M414 709 Q418 731 436 746.5 Q454 762 476 762 L472 740 Q459 740 448.5 731 Q438 722 436 709 L398 493 L376 493 L388 563 Q391 581 391 597 Q391 638 371 659 Q346 687 293 687 Q240 687 206 659 Q167 629 155 563 L80 137 Q77 119 77 103 Q77 62 97 41 Q122 13 174 13 Q228 13 262 41 Q303 73 313 137 L331 240 L353 240 L335 137 Q323 63 274 25 Q234 -9 170 -9 Q110 -9 79 25 Q55 50 55 99 Q55 116 58 137 L133 563 Q147 638 194 675 Q236 709 297 709 Q360 709 389 675 Q401 661 404 652 L414 709 Z " />
<glyph glyph-name="D" unicode="D" horiz-adv-x="353" d="M178 0 Q241 0 281 31 Q328 66 342 141 L415 555 Q419 581 419 592 Q419 639 394 667 Q363 700 301 700 L163 700 L40 0 L178 0 Z M182 678 L298 678 Q352 678 376 651 Q396 630 396 589 Q396 573 393 555 L320 141 Q299 22 182 22 L66 22 L182 678 Z " />
<glyph glyph-name="uni0189" unicode="&#x189;" horiz-adv-x="358" d="M398 666 Q423 640 423 591 Q423 574 420 554 L347 141 Q333 66 286 31 Q246 0 183 0 L45 0 L105 338 L65 338 L68 360 L108 360 L168 700 L306 700 Q369 700 398 666 Z M398 554 Q401 572 401 588 Q401 629 381 650 Q356 678 303 678 L187 678 L130 360 L210 360 L207 338 L127 338 L71 22 L187 22 Q304 22 325 141 L398 554 Z " />
<glyph glyph-name="Eth" unicode="&#xd0;" horiz-adv-x="358" d="M398 666 Q423 640 423 591 Q423 574 420 554 L347 141 Q333 66 286 31 Q246 0 183 0 L45 0 L105 338 L65 338 L68 360 L108 360 L168 700 L306 700 Q369 700 398 666 Z M398 554 Q401 572 401 588 Q401 629 381 650 Q356 678 303 678 L187 678 L130 360 L210 360 L207 338 L127 338 L71 22 L187 22 Q304 22 325 141 L398 554 Z " />
<glyph glyph-name="Dcaron" unicode="&#x10e;" horiz-adv-x="353" d="M178 0 Q241 0 281 31 Q328 66 342 141 L415 555 Q419 581 419 592 Q419 639 394 667 Q363 700 301 700 L163 700 L40 0 L178 0 Z M182 678 L298 678 Q352 678 376 651 Q396 630 396 589 Q396 573 393 555 L320 141 Q299 22 182 22 L66 22 L182 678 Z M295 737 L244 835 L264 835 L312 758 L386 835 L406 835 L322 737 L295 737 Z " />
<glyph glyph-name="uni1E12" unicode="&#x1e12;" horiz-adv-x="353" d="M178 0 Q241 0 281 31 Q328 66 342 141 L415 555 Q419 581 419 592 Q419 639 394 667 Q363 700 301 700 L163 700 L40 0 L178 0 Z M182 678 L298 678 Q352 678 376 651 Q396 630 396 589 Q396 573 393 555 L320 141 Q299 22 182 22 L66 22 L182 678 Z M158 -40 L185 -40 L235 -138 L215 -138 L167 -61 L93 -138 L73 -138 L158 -40 Z " />
<glyph glyph-name="Dcroat" unicode="&#x110;" horiz-adv-x="358" d="M398 666 Q423 640 423 591 Q423 574 420 554 L347 141 Q333 66 286 31 Q246 0 183 0 L45 0 L105 338 L65 338 L68 360 L108 360 L168 700 L306 700 Q369 700 398 666 Z M398 554 Q401 572 401 588 Q401 629 381 650 Q356 678 303 678 L187 678 L130 360 L210 360 L207 338 L127 338 L71 22 L187 22 Q304 22 325 141 L398 554 Z " />
<glyph glyph-name="uni1E0C" unicode="&#x1e0c;" horiz-adv-x="353" d="M178 0 Q241 0 281 31 Q328 66 342 141 L415 555 Q419 581 419 592 Q419 639 394 667 Q363 700 301 700 L163 700 L40 0 L178 0 Z M182 678 L298 678 Q352 678 376 651 Q396 630 396 589 Q396 573 393 555 L320 141 Q299 22 182 22 L66 22 L182 678 Z M193 -60 Q193 -51 187 -45.5 Q181 -40 171 -40 Q160 -40 151 -47.5 Q142 -55 140 -66 Q138 -77 145 -84.5 Q152 -92 162 -92 Q173 -92 181.5 -84.5 Q190 -77 192 -66 L193 -60 Z " />
<glyph glyph-name="uni018A" unicode="&#x18a;" horiz-adv-x="388" d="M429 667 Q454 639 454 592 Q454 581 450 555 L377 141 Q363 66 316 31 Q276 0 213 0 L75 0 L195 678 L153 678 Q140 678 129 669 Q118 660 116 647 L94 647 Q98 669 116 684.5 Q134 700 156 700 L336 700 Q398 700 429 667 Z M428 555 Q431 573 431 589 Q431 630 411 651 Q387 678 333 678 L217 678 L101 22 L217 22 Q334 22 355 141 L428 555 Z " />
<glyph glyph-name="uni1E0E" unicode="&#x1e0e;" horiz-adv-x="353" d="M178 0 Q241 0 281 31 Q328 66 342 141 L415 555 Q419 581 419 592 Q419 639 394 667 Q363 700 301 700 L163 700 L40 0 L178 0 Z M182 678 L298 678 Q352 678 376 651 Q396 630 396 589 Q396 573 393 555 L320 141 Q299 22 182 22 L66 22 L182 678 Z M335 -62 L339 -40 L5 -40 L1 -62 L335 -62 Z " />
<glyph glyph-name="E" unicode="E" horiz-adv-x="299" d="M395 678 L182 678 L127 370 L276 370 L272 348 L123 348 L66 22 L279 22 L275 0 L40 0 L163 700 L398 700 L395 678 Z " />
<glyph glyph-name="Eacute" unicode="&#xc9;" horiz-adv-x="299" d="M395 678 L182 678 L127 370 L276 370 L272 348 L123 348 L66 22 L279 22 L275 0 L40 0 L163 700 L398 700 L395 678 Z M389 835 L298 737 L278 737 L358 835 L389 835 Z " />
<glyph glyph-name="Ecaron" unicode="&#x11a;" horiz-adv-x="299" d="M275 737 L224 835 L244 835 L292 758 L366 835 L386 835 L302 737 L275 737 Z M395 678 L182 678 L127 370 L276 370 L272 348 L123 348 L66 22 L279 22 L275 0 L40 0 L163 700 L398 700 L395 678 Z " />
<glyph glyph-name="uni0228" unicode="&#x228;" horiz-adv-x="299" d="M182 678 L127 370 L276 370 L272 348 L123 348 L66 22 L279 22 L275 0 L168 0 Q168 -10 176 -17 Q176 -17 178 -19 Q187 -27 193 -35.5 Q199 -44 199 -57 Q199 -63 198 -67 Q194 -89 176 -104.5 Q158 -120 136 -120 Q116 -120 103.5 -107.5 Q91 -95 91 -76 Q91 -70 92 -67 L114 -67 Q112 -80 119.5 -89 Q127 -98 140 -98 Q153 -98 163.5 -89 Q174 -80 176 -67 L177 -61 Q177 -54 174 -49.5 Q171 -45 167 -41 Q163 -37 162 -36 L160 -35 Q144 -22 146 0 L40 0 L163 700 L398 700 L395 678 L182 678 Z " />
<glyph glyph-name="Ecircumflex" unicode="&#xca;" horiz-adv-x="299" d="M395 678 L182 678 L127 370 L276 370 L272 348 L123 348 L66 22 L279 22 L275 0 L40 0 L163 700 L398 700 L395 678 Z M292 835 L319 835 L369 737 L349 737 L302 814 L227 737 L207 737 L292 835 Z " />
<glyph glyph-name="uni1EBE" unicode="&#x1ebe;" horiz-adv-x="299" d="M395 678 L182 678 L127 370 L276 370 L272 348 L123 348 L66 22 L279 22 L275 0 L40 0 L163 700 L398 700 L395 678 Z M292 835 L319 835 L369 737 L349 737 L302 814 L227 737 L207 737 L292 835 Z M477 935 L386 837 L366 837 L446 935 L477 935 Z " />
<glyph glyph-name="uni1EC6" unicode="&#x1ec6;" horiz-adv-x="299" d="M395 678 L182 678 L127 370 L276 370 L272 348 L123 348 L66 22 L279 22 L275 0 L40 0 L163 700 L398 700 L395 678 Z M292 835 L319 835 L369 737 L349 737 L302 814 L227 737 L207 737 L292 835 Z M173 -60 Q173 -51 167 -45.5 Q161 -40 151 -40 Q140 -40 131 -47.5 Q122 -55 120 -66 Q118 -77 125 -84.5 Q132 -92 142 -92 Q153 -92 161.5 -84.5 Q170 -77 172 -66 L173 -60 Z " />
<glyph glyph-name="uni1EC0" unicode="&#x1ec0;" horiz-adv-x="299" d="M395 678 L182 678 L127 370 L276 370 L272 348 L123 348 L66 22 L279 22 L275 0 L40 0 L163 700 L398 700 L395 678 Z M292 835 L319 835 L369 737 L349 737 L302 814 L227 737 L207 737 L292 835 Z M309 935 L340 935 L386 837 L366 837 L309 935 Z " />
<glyph glyph-name="uni1EC2" unicode="&#x1ec2;" horiz-adv-x="299" d="M395 678 L182 678 L127 370 L276 370 L272 348 L123 348 L66 22 L279 22 L275 0 L40 0 L163 700 L398 700 L395 678 Z M292 835 L319 835 L369 737 L349 737 L302 814 L227 737 L207 737 L292 835 Z M299 856 Q300 860 300 868 Q300 892 283 908.5 Q266 925 241 925 L225 944 Q235 947 245 947 Q278 947 299 925.5 Q320 904 320 872 Q320 862 319 856 L299 856 Z " />
<glyph glyph-name="uni1EC4" unicode="&#x1ec4;" horiz-adv-x="299" d="M395 678 L182 678 L127 370 L276 370 L272 348 L123 348 L66 22 L279 22 L275 0 L40 0 L163 700 L398 700 L395 678 Z M292 835 L319 835 L369 737 L349 737 L302 814 L227 737 L207 737 L292 835 Z M205 856 Q239 890 266 890 Q284 890 308 874 Q334 856 358 856 Q366 856 369 857 Q401 861 436 898 L422 911 Q389 878 362 878 Q345 878 323 892 Q292 912 270 912 L260 911 Q228 907 190 870 L205 856 Z " />
<glyph glyph-name="Edieresis" unicode="&#xcb;" horiz-adv-x="299" d="M395 678 L182 678 L127 370 L276 370 L272 348 L123 348 L66 22 L279 22 L275 0 L40 0 L163 700 L398 700 L395 678 Z M252 763 Q254 774 247.5 781.5 Q241 789 230 789 Q219 789 210 781.5 Q201 774 200 763 Q198 753 204 745 Q210 737 221 737 Q232 737 241 744.5 Q250 752 252 763 Z M386 763 Q388 774 381.5 781.5 Q375 789 364 789 Q353 789 344 781.5 Q335 774 334 763 Q332 753 338 745 Q344 737 355 737 Q366 737 375 744.5 Q384 752 386 763 Z " />
<glyph glyph-name="Edotaccent" unicode="&#x116;" horiz-adv-x="299" d="M395 678 L182 678 L127 370 L276 370 L272 348 L123 348 L66 22 L279 22 L275 0 L40 0 L163 700 L398 700 L395 678 Z M319 763 Q321 774 314.5 781.5 Q308 789 297 789 Q286 789 277 781.5 Q268 774 267 763 Q265 753 271 745 Q277 737 288 737 Q299 737 308 744.5 Q317 752 319 763 Z " />
<glyph glyph-name="uni1EB8" unicode="&#x1eb8;" horiz-adv-x="299" d="M395 678 L182 678 L127 370 L276 370 L272 348 L123 348 L66 22 L279 22 L275 0 L40 0 L163 700 L398 700 L395 678 Z M173 -60 Q173 -51 167 -45.5 Q161 -40 151 -40 Q140 -40 131 -47.5 Q122 -55 120 -66 Q118 -77 125 -84.5 Q132 -92 142 -92 Q153 -92 161.5 -84.5 Q170 -77 172 -66 L173 -60 Z " />
<glyph glyph-name="Egrave" unicode="&#xc8;" horiz-adv-x="299" d="M395 678 L182 678 L127 370 L276 370 L272 348 L123 348 L66 22 L279 22 L275 0 L40 0 L163 700 L398 700 L395 678 Z M221 835 L252 835 L298 737 L278 737 L221 835 Z " />
<glyph glyph-name="uni1EBA" unicode="&#x1eba;" horiz-adv-x="299" d="M395 678 L182 678 L127 370 L276 370 L272 348 L123 348 L66 22 L279 22 L275 0 L40 0 L163 700 L398 700 L395 678 Z M278 737 Q279 741 279 749 Q279 773 262 789.5 Q245 806 220 806 L204 825 Q215 828 224 828 Q257 828 278 806.5 Q299 785 299 753 Q299 743 298 737 L278 737 Z " />
<glyph glyph-name="Emacron" unicode="&#x112;" horiz-adv-x="299" d="M395 678 L182 678 L127 370 L276 370 L272 348 L123 348 L66 22 L279 22 L275 0 L40 0 L163 700 L398 700 L395 678 Z M455 737 L459 759 L125 759 L121 737 L455 737 Z " />
<glyph glyph-name="Eogonek" unicode="&#x118;" horiz-adv-x="299" d="M182 678 L127 370 L276 370 L272 348 L123 348 L66 22 L279 22 L275 0 Q241 -18 224.5 -32 Q208 -46 205 -60 Q202 -81 245 -81 L254 -81 L250 -104 L231 -104 Q202 -104 184 -97 Q166 -90 170 -69 Q175 -34 251 0 L40 0 L163 700 L398 700 L395 678 L182 678 Z " />
<glyph glyph-name="uni018E" unicode="&#x18e;" horiz-adv-x="295" d="M150 678 L153 700 L388 700 L265 0 L30 0 L34 22 L247 22 L304 348 L155 348 L159 370 L308 370 L363 678 L150 678 Z " />
<glyph glyph-name="uni1EBC" unicode="&#x1ebc;" horiz-adv-x="299" d="M395 678 L182 678 L127 370 L276 370 L272 348 L123 348 L66 22 L279 22 L275 0 L40 0 L163 700 L398 700 L395 678 Z M184 737 Q218 771 245 771 Q263 771 287 755 Q313 737 337 737 Q345 737 348 738 Q380 742 415 779 L401 792 Q368 759 341 759 Q324 759 302 773 Q271 793 249 793 L239 792 Q207 788 169 751 L184 737 Z " />
<glyph glyph-name="F" unicode="F" horiz-adv-x="292" d="M395 678 L182 678 L127 369 L276 369 L272 347 L123 347 L62 0 L40 0 L163 700 L398 700 L395 678 Z " />
<glyph glyph-name="uni0191" unicode="&#x191;" horiz-adv-x="292" d="M182 678 L127 369 L276 369 L272 347 L123 347 L55 -42 Q50 -64 32 -79.5 Q14 -95 -8 -95 L-4 -73 Q9 -73 20 -64 Q31 -55 33 -42 L163 700 L398 700 L395 678 L182 678 Z " />
<glyph glyph-name="G" unicode="G" horiz-adv-x="346" d="M171 -9 Q233 -9 275 24 Q322 61 336 136 L376 361 L237 361 L233 339 L350 339 L314 136 Q302 72 263 40 Q229 13 175 13 Q121 13 97 40 Q77 61 77 102 Q77 118 80 136 L155 563 Q167 629 206 659 Q240 687 294 687 Q346 687 372 659 Q392 636 392 596 Q392 581 389 563 L377 493 L399 493 L411 563 Q415 582 415 602 Q415 649 390 675 Q359 709 298 709 Q237 709 194 675 Q147 637 133 563 L58 136 Q54 110 54 99 Q54 52 79 24 Q109 -9 171 -9 Z " />
<glyph glyph-name="Gbreve" unicode="&#x11e;" horiz-adv-x="346" d="M171 -9 Q233 -9 275 24 Q322 61 336 136 L376 361 L237 361 L233 339 L350 339 L314 136 Q302 72 263 40 Q229 13 175 13 Q121 13 97 40 Q77 61 77 102 Q77 118 80 136 L155 563 Q167 629 206 659 Q240 687 294 687 Q346 687 372 659 Q392 636 392 596 Q392 581 389 563 L377 493 L399 493 L411 563 Q415 582 415 602 Q415 649 390 675 Q359 709 298 709 Q237 709 194 675 Q147 637 133 563 L58 136 Q54 110 54 99 Q54 52 79 24 Q109 -9 171 -9 Z M410 828 Q403 790 371.5 763.5 Q340 737 303 737 Q270 737 248.5 758.5 Q227 780 227 812 Q227 823 228 828 L250 828 Q249 824 249 816 Q249 792 265.5 775.5 Q282 759 307 759 Q335 759 359 779 Q383 799 388 828 L410 828 Z " />
<glyph glyph-name="Gcaron" unicode="&#x1e6;" horiz-adv-x="346" d="M171 -9 Q233 -9 275 24 Q322 61 336 136 L376 361 L237 361 L233 339 L350 339 L314 136 Q302 72 263 40 Q229 13 175 13 Q121 13 97 40 Q77 61 77 102 Q77 118 80 136 L155 563 Q167 629 206 659 Q240 687 294 687 Q346 687 372 659 Q392 636 392 596 Q392 581 389 563 L377 493 L399 493 L411 563 Q415 582 415 602 Q415 649 390 675 Q359 709 298 709 Q237 709 194 675 Q147 637 133 563 L58 136 Q54 110 54 99 Q54 52 79 24 Q109 -9 171 -9 Z M289 737 L238 835 L258 835 L306 758 L380 835 L400 835 L316 737 L289 737 Z " />
<glyph glyph-name="Gcommaaccent" unicode="&#x122;" horiz-adv-x="346" d="M171 -9 Q233 -9 275 24 Q322 61 336 136 L376 361 L237 361 L233 339 L350 339 L314 136 Q302 72 263 40 Q229 13 175 13 Q121 13 97 40 Q77 61 77 102 Q77 118 80 136 L155 563 Q167 629 206 659 Q240 687 294 687 Q346 687 372 659 Q392 636 392 596 Q392 581 389 563 L377 493 L399 493 L411 563 Q415 582 415 602 Q415 649 390 675 Q359 709 298 709 Q237 709 194 675 Q147 637 133 563 L58 136 Q54 110 54 99 Q54 52 79 24 Q109 -9 171 -9 Z M187 -66 Q185 -78 176 -90 Q170 -100 154 -118 L134 -118 L143 -104 Q149 -94 143 -88 Q133 -78 135 -66 Q137 -55 146.5 -47.5 Q156 -40 166 -40 Q177 -40 183 -48 Q189 -56 187 -66 Z " />
<glyph glyph-name="Gdotaccent" unicode="&#x120;" horiz-adv-x="346" d="M171 -9 Q233 -9 275 24 Q322 61 336 136 L376 361 L237 361 L233 339 L350 339 L314 136 Q302 72 263 40 Q229 13 175 13 Q121 13 97 40 Q77 61 77 102 Q77 118 80 136 L155 563 Q167 629 206 659 Q240 687 294 687 Q346 687 372 659 Q392 636 392 596 Q392 581 389 563 L377 493 L399 493 L411 563 Q415 582 415 602 Q415 649 390 675 Q359 709 298 709 Q237 709 194 675 Q147 637 133 563 L58 136 Q54 110 54 99 Q54 52 79 24 Q109 -9 171 -9 Z M333 763 Q335 774 328.5 781.5 Q322 789 311 789 Q300 789 291 781.5 Q282 774 281 763 Q279 753 285 745 Q291 737 302 737 Q313 737 322 744.5 Q331 752 333 763 Z " />
<glyph glyph-name="uni0193" unicode="&#x193;" horiz-adv-x="346" d="M415 709 Q419 731 437 746.5 Q455 762 477 762 L473 740 Q460 740 449.5 731 Q439 722 437 709 L399 493 L377 493 L389 563 Q392 581 392 596 Q392 636 372 659 Q346 687 294 687 Q240 687 206 659 Q167 629 155 563 L80 136 Q77 118 77 102 Q77 61 97 40 Q121 13 175 13 Q229 13 263 40 Q302 72 314 136 L350 339 L233 339 L237 361 L376 361 L336 136 Q322 61 275 24 Q233 -9 171 -9 Q109 -9 79 24 Q54 52 54 99 Q54 110 58 136 L133 563 Q147 637 194 675 Q237 709 298 709 Q359 709 390 675 Q402 661 405 652 L415 709 Z " />
<glyph glyph-name="H" unicode="H" horiz-adv-x="367" d="M423 700 L445 700 L322 0 L300 0 L361 348 L128 348 L67 0 L45 0 L168 700 L190 700 L132 370 L365 370 L423 700 Z " />
<glyph glyph-name="Hbar" unicode="&#x126;" horiz-adv-x="377" d="M463 547 L460 525 L420 525 L327 0 L305 0 L366 348 L133 348 L72 0 L50 0 L143 525 L103 525 L106 547 L146 547 L173 700 L195 700 L168 547 L401 547 L428 700 L450 700 L423 547 L463 547 Z M370 370 L398 525 L165 525 L137 370 L370 370 Z " />
<glyph glyph-name="uni1E24" unicode="&#x1e24;" horiz-adv-x="367" d="M423 700 L445 700 L322 0 L300 0 L361 348 L128 348 L67 0 L45 0 L168 700 L190 700 L132 370 L365 370 L423 700 Z M198 -66 Q196 -78 187 -90 Q181 -100 165 -118 L145 -118 L154 -104 Q160 -94 154 -88 Q144 -78 146 -66 Q148 -55 157.5 -47.5 Q167 -40 177 -40 Q188 -40 194 -48 Q200 -56 198 -66 Z " />
<glyph glyph-name="uniA7AA" unicode="&#xa7aa;" horiz-adv-x="397" d="M475 700 L352 0 L330 0 L391 348 L158 348 L97 0 L75 0 L195 678 L153 678 Q140 678 129 669 Q118 660 116 647 L94 647 Q98 669 116 684.5 Q134 700 156 700 L220 700 L162 370 L395 370 L453 700 L475 700 Z " />
<glyph glyph-name="I" unicode="I" horiz-adv-x="122" d="M72 0 L195 700 L173 700 L50 0 L72 0 Z " />
<glyph glyph-name="Iacute" unicode="&#xcd;" horiz-adv-x="122" d="M72 0 L195 700 L173 700 L50 0 L72 0 Z M292 835 L201 737 L181 737 L261 835 L292 835 Z " />
<glyph glyph-name="uni01CF" unicode="&#x1cf;" horiz-adv-x="122" d="M72 0 L195 700 L173 700 L50 0 L72 0 Z M178 737 L127 835 L147 835 L195 758 L269 835 L289 835 L205 737 L178 737 Z " />
<glyph glyph-name="Icircumflex" unicode="&#xce;" horiz-adv-x="122" d="M72 0 L195 700 L173 700 L50 0 L72 0 Z M195 835 L222 835 L272 737 L252 737 L205 814 L130 737 L110 737 L195 835 Z " />
<glyph glyph-name="Idieresis" unicode="&#xcf;" horiz-adv-x="122" d="M72 0 L195 700 L173 700 L50 0 L72 0 Z M155 763 Q157 774 150.5 781.5 Q144 789 133 789 Q122 789 113 781.5 Q104 774 103 763 Q101 753 107 745 Q113 737 124 737 Q135 737 144 744.5 Q153 752 155 763 Z M289 763 Q291 774 284.5 781.5 Q278 789 267 789 Q256 789 247 781.5 Q238 774 237 763 Q235 753 241 745 Q247 737 258 737 Q269 737 278 744.5 Q287 752 289 763 Z " />
<glyph glyph-name="uni1E2E" unicode="&#x1e2e;" horiz-adv-x="122" d="M72 0 L195 700 L173 700 L50 0 L72 0 Z M155 763 Q157 774 150.5 781.5 Q144 789 133 789 Q122 789 113 781.5 Q104 774 103 763 Q101 753 107 745 Q113 737 124 737 Q135 737 144 744.5 Q153 752 155 763 Z M289 763 Q291 774 284.5 781.5 Q278 789 267 789 Q256 789 247 781.5 Q238 774 237 763 Q235 753 241 745 Q247 737 258 737 Q269 737 278 744.5 Q287 752 289 763 Z M308 925 L217 827 L197 827 L277 925 L308 925 Z " />
<glyph glyph-name="Idot" unicode="&#x130;" horiz-adv-x="122" d="M72 0 L195 700 L173 700 L50 0 L72 0 Z M222 763 Q224 774 217.5 781.5 Q211 789 200 789 Q189 789 180 781.5 Q171 774 170 763 Q168 753 174 745 Q180 737 191 737 Q202 737 211 744.5 Q220 752 222 763 Z " />
<glyph glyph-name="uni1ECA" unicode="&#x1eca;" horiz-adv-x="122" d="M72 0 L195 700 L173 700 L50 0 L72 0 Z M76 -60 Q76 -51 70 -45.5 Q64 -40 54 -40 Q43 -40 34 -47.5 Q25 -55 23 -66 Q21 -77 28 -84.5 Q35 -92 45 -92 Q56 -92 64.5 -84.5 Q73 -77 75 -66 L76 -60 Z " />
<glyph glyph-name="Igrave" unicode="&#xcc;" horiz-adv-x="122" d="M72 0 L195 700 L173 700 L50 0 L72 0 Z M124 835 L155 835 L201 737 L181 737 L124 835 Z " />
<glyph glyph-name="uni1EC8" unicode="&#x1ec8;" horiz-adv-x="122" d="M72 0 L195 700 L173 700 L50 0 L72 0 Z M181 737 Q182 741 182 749 Q182 773 165 789.5 Q148 806 123 806 L107 825 Q117 828 127 828 Q160 828 181 806.5 Q202 785 202 753 Q202 743 201 737 L181 737 Z " />
<glyph glyph-name="Imacron" unicode="&#x12a;" horiz-adv-x="122" d="M72 0 L195 700 L173 700 L50 0 L72 0 Z M358 737 L362 759 L28 759 L24 737 L358 737 Z " />
<glyph glyph-name="Iogonek" unicode="&#x12e;" horiz-adv-x="122" d="M195 700 L72 0 Q38 -18 21.5 -32 Q5 -46 2 -60 Q-1 -81 42 -81 L51 -81 L47 -104 L28 -104 Q-1 -104 -19 -97 Q-37 -90 -33 -69 Q-28 -35 50 0 L173 700 L195 700 Z " />
<glyph glyph-name="uni0197" unicode="&#x197;" horiz-adv-x="132" d="M182 371 L179 349 L139 349 L77 0 L55 0 L117 349 L77 349 L80 371 L120 371 L178 700 L200 700 L142 371 L182 371 Z " />
<glyph glyph-name="Itilde" unicode="&#x128;" horiz-adv-x="117" d="M72 0 L195 700 L173 700 L50 0 L72 0 Z M85 738 Q119 772 146 772 Q164 772 188 756 Q215 738 238 738 Q246 738 249 739 Q280 743 317 780 L302 793 Q269 760 242 760 Q225 760 203 774 Q172 794 150 794 L140 793 Q108 789 71 752 L85 738 Z " />
<glyph glyph-name="J" unicode="J" horiz-adv-x="342" d="M165 -9 Q227 -9 269 24 Q317 63 330 136 L429 700 L407 700 L308 136 Q297 73 257 40 Q223 13 169 13 Q117 13 91 40 Q71 63 71 104 Q71 120 74 136 L92 236 L70 236 L52 136 Q48 110 48 99 Q48 54 73 24 Q103 -9 165 -9 Z " />
<glyph glyph-name="K" unicode="K" horiz-adv-x="352" d="M456 700 L249 368 L334 0 L310 0 L231 341 L79 99 L62 0 L40 0 L163 700 L185 700 L89 152 L432 700 L456 700 Z " />
<glyph glyph-name="Kcommaaccent" unicode="&#x136;" horiz-adv-x="352" d="M456 700 L249 368 L334 0 L310 0 L231 341 L79 99 L62 0 L40 0 L163 700 L185 700 L89 152 L432 700 L456 700 Z M190 -66 Q188 -78 179 -90 Q173 -100 157 -118 L137 -118 L146 -104 Q152 -94 146 -88 Q136 -78 138 -66 Q140 -55 149.5 -47.5 Q159 -40 169 -40 Q180 -40 186 -48 Q192 -56 190 -66 Z " />
<glyph glyph-name="uni0198" unicode="&#x198;" horiz-adv-x="398" d="M488 700 Q507 700 520 687.5 Q533 675 533 656 Q533 650 532 647 L510 647 Q512 660 505 669 Q498 678 485 678 L443 678 L249 368 L334 0 L310 0 L231 341 L79 99 L62 0 L40 0 L163 700 L185 700 L89 152 L432 700 L488 700 Z " />
<glyph glyph-name="L" unicode="L" horiz-adv-x="293" d="M275 0 L279 22 L66 22 L185 700 L163 700 L40 0 L275 0 Z " />
<glyph glyph-name="Lacute" unicode="&#x139;" horiz-adv-x="293" d="M282 835 L191 737 L171 737 L251 835 L282 835 Z M275 0 L279 22 L66 22 L185 700 L163 700 L40 0 L275 0 Z " />
<glyph glyph-name="Lcaron" unicode="&#x13d;" horiz-adv-x="293" d="M275 0 L279 22 L66 22 L185 700 L163 700 L40 0 L275 0 Z M358 674 Q357 666 347 650 L325 622 L305 622 Q307 625 308.5 628.5 Q310 632 313 636 Q319 646 314 652 Q304 660 306 674 Q307 684 316 692 Q325 700 336 700 Q346 700 353 692.5 Q360 685 358 674 Z " />
<glyph glyph-name="uni1E3C" unicode="&#x1e3c;" horiz-adv-x="293" d="M275 0 L279 22 L66 22 L185 700 L163 700 L40 0 L275 0 Z M138 -40 L165 -40 L215 -138 L195 -138 L147 -61 L73 -138 L53 -138 L138 -40 Z " />
<glyph glyph-name="Lcommaaccent" unicode="&#x13b;" horiz-adv-x="293" d="M275 0 L279 22 L66 22 L185 700 L163 700 L40 0 L275 0 Z M172 -66 Q170 -78 161 -90 Q155 -100 139 -118 L119 -118 L128 -104 Q134 -94 128 -88 Q118 -78 120 -66 Q122 -55 131.5 -47.5 Q141 -40 151 -40 Q162 -40 168 -48 Q174 -56 172 -66 Z " />
<glyph glyph-name="uni1E36" unicode="&#x1e36;" horiz-adv-x="293" d="M275 0 L279 22 L66 22 L185 700 L163 700 L40 0 L275 0 Z M173 -60 Q173 -51 167 -45.5 Q161 -40 151 -40 Q140 -40 131 -47.5 Q122 -55 120 -66 Q118 -77 125 -84.5 Q132 -92 142 -92 Q153 -92 161.5 -84.5 Q170 -77 172 -66 L173 -60 Z " />
<glyph glyph-name="Lslash" unicode="&#x141;" horiz-adv-x="293" d="M66 22 L279 22 L275 0 L40 0 L82 239 L7 171 L13 204 L88 271 L163 700 L185 700 L114 295 L273 438 L268 406 L108 262 L66 22 Z " />
<glyph glyph-name="M" unicode="M" horiz-adv-x="487" d="M271 155 L558 700 L570 700 L447 0 L425 0 L533 610 L269 110 L257 110 L170 610 L62 0 L40 0 L163 700 L175 700 L271 155 Z " />
<glyph glyph-name="uni1E3E" unicode="&#x1e3e;" horiz-adv-x="487" d="M271 155 L558 700 L570 700 L447 0 L425 0 L533 610 L269 110 L257 110 L170 610 L62 0 L40 0 L163 700 L175 700 L271 155 Z M475 835 L384 737 L364 737 L444 835 L475 835 Z " />
<glyph glyph-name="N" unicode="N" horiz-adv-x="377" d="M455 700 L332 0 L320 0 L176 621 L67 0 L45 0 L168 700 L180 700 L324 79 L433 700 L455 700 Z " />
<glyph glyph-name="Nacute" unicode="&#x143;" horiz-adv-x="377" d="M455 700 L332 0 L320 0 L176 621 L67 0 L45 0 L168 700 L180 700 L324 79 L433 700 L455 700 Z M419 835 L328 737 L308 737 L388 835 L419 835 Z " />
<glyph glyph-name="Ncaron" unicode="&#x147;" horiz-adv-x="377" d="M455 700 L332 0 L320 0 L176 621 L67 0 L45 0 L168 700 L180 700 L324 79 L433 700 L455 700 Z M305 737 L254 835 L274 835 L322 758 L396 835 L416 835 L332 737 L305 737 Z " />
<glyph glyph-name="uni1E4A" unicode="&#x1e4a;" horiz-adv-x="377" d="M455 700 L332 0 L320 0 L176 621 L67 0 L45 0 L168 700 L180 700 L324 79 L433 700 L455 700 Z M168 -40 L195 -40 L245 -138 L225 -138 L177 -61 L103 -138 L83 -138 L168 -40 Z " />
<glyph glyph-name="Ncommaaccent" unicode="&#x145;" horiz-adv-x="377" d="M455 700 L332 0 L320 0 L176 621 L67 0 L45 0 L168 700 L180 700 L324 79 L433 700 L455 700 Z M202 -66 Q200 -78 191 -90 Q185 -100 169 -118 L149 -118 L158 -104 Q164 -94 158 -88 Q148 -78 150 -66 Q152 -55 161.5 -47.5 Q171 -40 181 -40 Q192 -40 198 -48 Q204 -56 202 -66 Z " />
<glyph glyph-name="uni1E44" unicode="&#x1e44;" horiz-adv-x="377" d="M455 700 L332 0 L320 0 L176 621 L67 0 L45 0 L168 700 L180 700 L324 79 L433 700 L455 700 Z M349 763 Q351 774 344.5 781.5 Q338 789 327 789 Q316 789 307 781.5 Q298 774 297 763 Q295 753 301 745 Q307 737 318 737 Q329 737 338 744.5 Q347 752 349 763 Z " />
<glyph glyph-name="uni1E46" unicode="&#x1e46;" horiz-adv-x="377" d="M455 700 L332 0 L320 0 L176 621 L67 0 L45 0 L168 700 L180 700 L324 79 L433 700 L455 700 Z M203 -60 Q203 -51 197 -45.5 Q191 -40 181 -40 Q170 -40 161 -47.5 Q152 -55 150 -66 Q148 -77 155 -84.5 Q162 -92 172 -92 Q183 -92 191.5 -84.5 Q200 -77 202 -66 L203 -60 Z " />
<glyph glyph-name="Eng" unicode="&#x14a;" horiz-adv-x="377" d="M455 700 L325 -42 Q320 -64 302 -79.5 Q284 -95 262 -95 L266 -73 Q279 -73 290 -64 Q301 -55 303 -42 L310 0 L176 621 L67 0 L45 0 L168 700 L180 700 L321 63 L433 700 L455 700 Z " />
<glyph glyph-name="uni019D" unicode="&#x19d;" horiz-adv-x="377" d="M455 700 L332 0 L320 0 L176 621 L60 -42 Q55 -64 37 -79.5 Q19 -95 -3 -95 L1 -73 Q14 -73 25 -64 Q36 -55 38 -42 L168 700 L180 700 L324 79 L433 700 L455 700 Z " />
<glyph glyph-name="Ntilde" unicode="&#xd1;" horiz-adv-x="377" d="M455 700 L332 0 L320 0 L176 621 L67 0 L45 0 L168 700 L180 700 L324 79 L433 700 L455 700 Z M215 738 Q249 772 276 772 Q294 772 318 756 Q345 738 368 738 Q376 738 379 739 Q410 743 447 780 L432 793 Q399 760 372 760 Q355 760 333 774 Q302 794 280 794 L270 793 Q238 789 201 752 L215 738 Z " />
<glyph glyph-name="O" unicode="O" horiz-adv-x="346" d="M171 -9 Q233 -9 275 24 Q323 63 336 137 L411 563 Q415 582 415 602 Q415 649 390 675 Q359 709 298 709 Q237 709 194 675 Q146 636 133 563 L58 137 Q54 109 54 99 Q54 54 79 24 Q112 -9 171 -9 Z M294 687 Q346 687 372 659 Q392 636 392 596 Q392 581 389 563 L314 137 Q303 72 263 41 Q229 13 175 13 Q121 13 97 41 Q77 61 77 103 Q77 119 80 137 L155 563 Q167 629 206 659 Q240 687 294 687 Z " />
<glyph glyph-name="Oacute" unicode="&#xd3;" horiz-adv-x="346" d="M171 -9 Q233 -9 275 24 Q323 63 336 137 L411 563 Q415 582 415 602 Q415 649 390 675 Q359 709 298 709 Q237 709 194 675 Q146 636 133 563 L58 137 Q54 109 54 99 Q54 54 79 24 Q112 -9 171 -9 Z M294 687 Q346 687 372 659 Q392 636 392 596 Q392 581 389 563 L314 137 Q303 72 263 41 Q229 13 175 13 Q121 13 97 41 Q77 61 77 103 Q77 119 80 137 L155 563 Q167 629 206 659 Q240 687 294 687 Z M404 835 L313 737 L293 737 L373 835 L404 835 Z " />
<glyph glyph-name="uni01D1" unicode="&#x1d1;" horiz-adv-x="346" d="M171 -9 Q233 -9 275 24 Q323 63 336 137 L411 563 Q415 582 415 602 Q415 649 390 675 Q359 709 298 709 Q237 709 194 675 Q146 636 133 563 L58 137 Q54 109 54 99 Q54 54 79 24 Q112 -9 171 -9 Z M294 687 Q346 687 372 659 Q392 636 392 596 Q392 581 389 563 L314 137 Q303 72 263 41 Q229 13 175 13 Q121 13 97 41 Q77 61 77 103 Q77 119 80 137 L155 563 Q167 629 206 659 Q240 687 294 687 Z M290 737 L239 835 L259 835 L307 758 L381 835 L401 835 L317 737 L290 737 Z " />
<glyph glyph-name="Ocircumflex" unicode="&#xd4;" horiz-adv-x="346" d="M171 -9 Q233 -9 275 24 Q323 63 336 137 L411 563 Q415 582 415 602 Q415 649 390 675 Q359 709 298 709 Q237 709 194 675 Q146 636 133 563 L58 137 Q54 109 54 99 Q54 54 79 24 Q112 -9 171 -9 Z M294 687 Q346 687 372 659 Q392 636 392 596 Q392 581 389 563 L314 137 Q303 72 263 41 Q229 13 175 13 Q121 13 97 41 Q77 61 77 103 Q77 119 80 137 L155 563 Q167 629 206 659 Q240 687 294 687 Z M307 835 L334 835 L384 737 L364 737 L317 814 L242 737 L222 737 L307 835 Z " />
<glyph glyph-name="uni1ED0" unicode="&#x1ed0;" horiz-adv-x="346" d="M171 -9 Q233 -9 275 24 Q323 63 336 137 L411 563 Q415 582 415 602 Q415 649 390 675 Q359 709 298 709 Q237 709 194 675 Q146 636 133 563 L58 137 Q54 109 54 99 Q54 54 79 24 Q112 -9 171 -9 Z M294 687 Q346 687 372 659 Q392 636 392 596 Q392 581 389 563 L314 137 Q303 72 263 41 Q229 13 175 13 Q121 13 97 41 Q77 61 77 103 Q77 119 80 137 L155 563 Q167 629 206 659 Q240 687 294 687 Z M307 835 L334 835 L384 737 L364 737 L317 814 L242 737 L222 737 L307 835 Z M492 935 L401 837 L381 837 L461 935 L492 935 Z " />
<glyph glyph-name="uni1ED8" unicode="&#x1ed8;" horiz-adv-x="346" d="M171 -9 Q233 -9 275 24 Q323 63 336 137 L411 563 Q415 582 415 602 Q415 649 390 675 Q359 709 298 709 Q237 709 194 675 Q146 636 133 563 L58 137 Q54 109 54 99 Q54 54 79 24 Q112 -9 171 -9 Z M294 687 Q346 687 372 659 Q392 636 392 596 Q392 581 389 563 L314 137 Q303 72 263 41 Q229 13 175 13 Q121 13 97 41 Q77 61 77 103 Q77 119 80 137 L155 563 Q167 629 206 659 Q240 687 294 687 Z M307 835 L334 835 L384 737 L364 737 L317 814 L242 737 L222 737 L307 835 Z M188 -60 Q188 -51 182 -45.5 Q176 -40 166 -40 Q155 -40 146 -47.5 Q137 -55 135 -66 Q133 -77 140 -84.5 Q147 -92 157 -92 Q168 -92 176.5 -84.5 Q185 -77 187 -66 L188 -60 Z " />
<glyph glyph-name="uni1ED2" unicode="&#x1ed2;" horiz-adv-x="346" d="M171 -9 Q233 -9 275 24 Q323 63 336 137 L411 563 Q415 582 415 602 Q415 649 390 675 Q359 709 298 709 Q237 709 194 675 Q146 636 133 563 L58 137 Q54 109 54 99 Q54 54 79 24 Q112 -9 171 -9 Z M294 687 Q346 687 372 659 Q392 636 392 596 Q392 581 389 563 L314 137 Q303 72 263 41 Q229 13 175 13 Q121 13 97 41 Q77 61 77 103 Q77 119 80 137 L155 563 Q167 629 206 659 Q240 687 294 687 Z M307 835 L334 835 L384 737 L364 737 L317 814 L242 737 L222 737 L307 835 Z M324 935 L355 935 L401 837 L381 837 L324 935 Z " />
<glyph glyph-name="uni1ED4" unicode="&#x1ed4;" horiz-adv-x="346" d="M171 -9 Q233 -9 275 24 Q323 63 336 137 L411 563 Q415 582 415 602 Q415 649 390 675 Q359 709 298 709 Q237 709 194 675 Q146 636 133 563 L58 137 Q54 109 54 99 Q54 54 79 24 Q112 -9 171 -9 Z M294 687 Q346 687 372 659 Q392 636 392 596 Q392 581 389 563 L314 137 Q303 72 263 41 Q229 13 175 13 Q121 13 97 41 Q77 61 77 103 Q77 119 80 137 L155 563 Q167 629 206 659 Q240 687 294 687 Z M307 835 L334 835 L384 737 L364 737 L317 814 L242 737 L222 737 L307 835 Z M314 856 Q315 860 315 868 Q315 892 298 908.5 Q281 925 256 925 L240 944 Q250 947 260 947 Q293 947 314 925.5 Q335 904 335 872 Q335 862 334 856 L314 856 Z " />
<glyph glyph-name="uni1ED6" unicode="&#x1ed6;" horiz-adv-x="346" d="M171 -9 Q233 -9 275 24 Q323 63 336 137 L411 563 Q415 582 415 602 Q415 649 390 675 Q359 709 298 709 Q237 709 194 675 Q146 636 133 563 L58 137 Q54 109 54 99 Q54 54 79 24 Q112 -9 171 -9 Z M294 687 Q346 687 372 659 Q392 636 392 596 Q392 581 389 563 L314 137 Q303 72 263 41 Q229 13 175 13 Q121 13 97 41 Q77 61 77 103 Q77 119 80 137 L155 563 Q167 629 206 659 Q240 687 294 687 Z M307 835 L334 835 L384 737 L364 737 L317 814 L242 737 L222 737 L307 835 Z M220 856 Q254 890 281 890 Q299 890 323 874 Q349 856 373 856 Q381 856 384 857 Q416 861 451 898 L437 911 Q404 878 377 878 Q360 878 338 892 Q307 912 285 912 L275 911 Q243 907 205 870 L220 856 Z " />
<glyph glyph-name="Odieresis" unicode="&#xd6;" horiz-adv-x="346" d="M171 -9 Q233 -9 275 24 Q323 63 336 137 L411 563 Q415 582 415 602 Q415 649 390 675 Q359 709 298 709 Q237 709 194 675 Q146 636 133 563 L58 137 Q54 109 54 99 Q54 54 79 24 Q112 -9 171 -9 Z M294 687 Q346 687 372 659 Q392 636 392 596 Q392 581 389 563 L314 137 Q303 72 263 41 Q229 13 175 13 Q121 13 97 41 Q77 61 77 103 Q77 119 80 137 L155 563 Q167 629 206 659 Q240 687 294 687 Z M266 763 Q268 774 261.5 781.5 Q255 789 244 789 Q233 789 224 781.5 Q215 774 214 763 Q212 753 218 745 Q224 737 235 737 Q246 737 255 744.5 Q264 752 266 763 Z M400 763 Q402 774 395.5 781.5 Q389 789 378 789 Q367 789 358 781.5 Q349 774 348 763 Q346 753 352 745 Q358 737 369 737 Q380 737 389 744.5 Q398 752 400 763 Z " />
<glyph glyph-name="uni022A" unicode="&#x22a;" horiz-adv-x="346" d="M171 -9 Q233 -9 275 24 Q323 63 336 137 L411 563 Q415 582 415 602 Q415 649 390 675 Q359 709 298 709 Q237 709 194 675 Q146 636 133 563 L58 137 Q54 109 54 99 Q54 54 79 24 Q112 -9 171 -9 Z M294 687 Q346 687 372 659 Q392 636 392 596 Q392 581 389 563 L314 137 Q303 72 263 41 Q229 13 175 13 Q121 13 97 41 Q77 61 77 103 Q77 119 80 137 L155 563 Q167 629 206 659 Q240 687 294 687 Z M266 763 Q268 774 261.5 781.5 Q255 789 244 789 Q233 789 224 781.5 Q215 774 214 763 Q212 753 218 745 Q224 737 235 737 Q246 737 255 744.5 Q264 752 266 763 Z M400 763 Q402 774 395.5 781.5 Q389 789 378 789 Q367 789 358 781.5 Q349 774 348 763 Q346 753 352 745 Q358 737 369 737 Q380 737 389 744.5 Q398 752 400 763 Z M486 827 L490 849 L156 849 L152 827 L486 827 Z " />
<glyph glyph-name="uni1ECC" unicode="&#x1ecc;" horiz-adv-x="346" d="M171 -9 Q233 -9 275 24 Q323 63 336 137 L411 563 Q415 582 415 602 Q415 649 390 675 Q359 709 298 709 Q237 709 194 675 Q146 636 133 563 L58 137 Q54 109 54 99 Q54 54 79 24 Q112 -9 171 -9 Z M294 687 Q346 687 372 659 Q392 636 392 596 Q392 581 389 563 L314 137 Q303 72 263 41 Q229 13 175 13 Q121 13 97 41 Q77 61 77 103 Q77 119 80 137 L155 563 Q167 629 206 659 Q240 687 294 687 Z M188 -60 Q188 -51 182 -45.5 Q176 -40 166 -40 Q155 -40 146 -47.5 Q137 -55 135 -66 Q133 -77 140 -84.5 Q147 -92 157 -92 Q168 -92 176.5 -84.5 Q185 -77 187 -66 L188 -60 Z " />
<glyph glyph-name="Ograve" unicode="&#xd2;" horiz-adv-x="346" d="M171 -9 Q233 -9 275 24 Q323 63 336 137 L411 563 Q415 582 415 602 Q415 649 390 675 Q359 709 298 709 Q237 709 194 675 Q146 636 133 563 L58 137 Q54 109 54 99 Q54 54 79 24 Q112 -9 171 -9 Z M294 687 Q346 687 372 659 Q392 636 392 596 Q392 581 389 563 L314 137 Q303 72 263 41 Q229 13 175 13 Q121 13 97 41 Q77 61 77 103 Q77 119 80 137 L155 563 Q167 629 206 659 Q240 687 294 687 Z M236 835 L267 835 L313 737 L293 737 L236 835 Z " />
<glyph glyph-name="uni1ECE" unicode="&#x1ece;" horiz-adv-x="346" d="M171 -9 Q233 -9 275 24 Q323 63 336 137 L411 563 Q415 582 415 602 Q415 649 390 675 Q359 709 298 709 Q237 709 194 675 Q146 636 133 563 L58 137 Q54 109 54 99 Q54 54 79 24 Q112 -9 171 -9 Z M294 687 Q346 687 372 659 Q392 636 392 596 Q392 581 389 563 L314 137 Q303 72 263 41 Q229 13 175 13 Q121 13 97 41 Q77 61 77 103 Q77 119 80 137 L155 563 Q167 629 206 659 Q240 687 294 687 Z M293 737 Q294 741 294 749 Q294 773 277 789.5 Q260 806 235 806 L219 825 Q229 828 239 828 Q272 828 293 806.5 Q314 785 314 753 Q314 743 313 737 L293 737 Z " />
<glyph glyph-name="Ohorn" unicode="&#x1a0;" horiz-adv-x="345" d="M495 740 Q491 718 473 702.5 Q455 687 433 687 L376 687 L390 675 Q415 649 415 602 Q415 582 411 563 L336 137 Q323 63 275 24 Q233 -9 171 -9 Q112 -9 79 24 Q54 54 54 99 Q54 109 58 137 L133 563 Q146 636 194 675 Q237 709 298 709 L437 709 Q450 709 460.5 718 Q471 727 473 740 L495 740 Z M372 659 Q346 687 294 687 Q240 687 206 659 Q167 629 155 563 L80 137 Q77 119 77 103 Q77 61 97 41 Q121 13 175 13 Q229 13 263 41 Q303 72 314 137 L389 563 Q392 581 392 596 Q392 636 372 659 Z " />
<glyph glyph-name="uni1EDA" unicode="&#x1eda;" horiz-adv-x="345" d="M495 740 Q491 718 473 702.5 Q455 687 433 687 L376 687 L390 675 Q415 649 415 602 Q415 582 411 563 L336 137 Q323 63 275 24 Q233 -9 171 -9 Q112 -9 79 24 Q54 54 54 99 Q54 109 58 137 L133 563 Q146 636 194 675 Q237 709 298 709 L437 709 Q450 709 460.5 718 Q471 727 473 740 L495 740 Z M372 659 Q346 687 294 687 Q240 687 206 659 Q167 629 155 563 L80 137 Q77 119 77 103 Q77 61 97 41 Q121 13 175 13 Q229 13 263 41 Q303 72 314 137 L389 563 Q392 581 392 596 Q392 636 372 659 Z M404 835 L313 737 L293 737 L373 835 L404 835 Z " />
<glyph glyph-name="uni1EE2" unicode="&#x1ee2;" horiz-adv-x="345" d="M495 740 Q491 718 473 702.5 Q455 687 433 687 L376 687 L390 675 Q415 649 415 602 Q415 582 411 563 L336 137 Q323 63 275 24 Q233 -9 171 -9 Q112 -9 79 24 Q54 54 54 99 Q54 109 58 137 L133 563 Q146 636 194 675 Q237 709 298 709 L437 709 Q450 709 460.5 718 Q471 727 473 740 L495 740 Z M372 659 Q346 687 294 687 Q240 687 206 659 Q167 629 155 563 L80 137 Q77 119 77 103 Q77 61 97 41 Q121 13 175 13 Q229 13 263 41 Q303 72 314 137 L389 563 Q392 581 392 596 Q392 636 372 659 Z M188 -60 Q188 -51 182 -45.5 Q176 -40 166 -40 Q155 -40 146 -47.5 Q137 -55 135 -66 Q133 -77 140 -84.5 Q147 -92 157 -92 Q168 -92 176.5 -84.5 Q185 -77 187 -66 L188 -60 Z " />
<glyph glyph-name="uni1EDC" unicode="&#x1edc;" horiz-adv-x="345" d="M495 740 Q491 718 473 702.5 Q455 687 433 687 L376 687 L390 675 Q415 649 415 602 Q415 582 411 563 L336 137 Q323 63 275 24 Q233 -9 171 -9 Q112 -9 79 24 Q54 54 54 99 Q54 109 58 137 L133 563 Q146 636 194 675 Q237 709 298 709 L437 709 Q450 709 460.5 718 Q471 727 473 740 L495 740 Z M372 659 Q346 687 294 687 Q240 687 206 659 Q167 629 155 563 L80 137 Q77 119 77 103 Q77 61 97 41 Q121 13 175 13 Q229 13 263 41 Q303 72 314 137 L389 563 Q392 581 392 596 Q392 636 372 659 Z M236 835 L267 835 L313 737 L293 737 L236 835 Z " />
<glyph glyph-name="uni1EDE" unicode="&#x1ede;" horiz-adv-x="345" d="M495 740 Q491 718 473 702.5 Q455 687 433 687 L376 687 L390 675 Q415 649 415 602 Q415 582 411 563 L336 137 Q323 63 275 24 Q233 -9 171 -9 Q112 -9 79 24 Q54 54 54 99 Q54 109 58 137 L133 563 Q146 636 194 675 Q237 709 298 709 L437 709 Q450 709 460.5 718 Q471 727 473 740 L495 740 Z M372 659 Q346 687 294 687 Q240 687 206 659 Q167 629 155 563 L80 137 Q77 119 77 103 Q77 61 97 41 Q121 13 175 13 Q229 13 263 41 Q303 72 314 137 L389 563 Q392 581 392 596 Q392 636 372 659 Z M293 737 Q294 741 294 749 Q294 773 277 789.5 Q260 806 235 806 L219 825 Q229 828 239 828 Q272 828 293 806.5 Q314 785 314 753 Q314 743 313 737 L293 737 Z " />
<glyph glyph-name="uni1EE0" unicode="&#x1ee0;" horiz-adv-x="345" d="M495 740 Q491 718 473 702.5 Q455 687 433 687 L376 687 L390 675 Q415 649 415 602 Q415 582 411 563 L336 137 Q323 63 275 24 Q233 -9 171 -9 Q112 -9 79 24 Q54 54 54 99 Q54 109 58 137 L133 563 Q146 636 194 675 Q237 709 298 709 L437 709 Q450 709 460.5 718 Q471 727 473 740 L495 740 Z M372 659 Q346 687 294 687 Q240 687 206 659 Q167 629 155 563 L80 137 Q77 119 77 103 Q77 61 97 41 Q121 13 175 13 Q229 13 263 41 Q303 72 314 137 L389 563 Q392 581 392 596 Q392 636 372 659 Z M200 738 Q234 772 261 772 Q279 772 303 756 Q330 738 353 738 Q361 738 364 739 Q395 743 432 780 L417 793 Q384 760 357 760 Q340 760 318 774 Q287 794 265 794 L255 793 Q223 789 186 752 L200 738 Z " />
<glyph glyph-name="Ohungarumlaut" unicode="&#x150;" horiz-adv-x="346" d="M171 -9 Q233 -9 275 24 Q323 63 336 137 L411 563 Q415 582 415 602 Q415 649 390 675 Q359 709 298 709 Q237 709 194 675 Q146 636 133 563 L58 137 Q54 109 54 99 Q54 54 79 24 Q112 -9 171 -9 Z M294 687 Q346 687 372 659 Q392 636 392 596 Q392 581 389 563 L314 137 Q303 72 263 41 Q229 13 175 13 Q121 13 97 41 Q77 61 77 103 Q77 119 80 137 L155 563 Q167 629 206 659 Q240 687 294 687 Z M449 835 L358 737 L338 737 L418 835 L449 835 Z M358 835 L267 737 L247 737 L327 835 L358 835 Z " />
<glyph glyph-name="Omacron" unicode="&#x14c;" horiz-adv-x="346" d="M171 -9 Q233 -9 275 24 Q323 63 336 137 L411 563 Q415 582 415 602 Q415 649 390 675 Q359 709 298 709 Q237 709 194 675 Q146 636 133 563 L58 137 Q54 109 54 99 Q54 54 79 24 Q112 -9 171 -9 Z M294 687 Q346 687 372 659 Q392 636 392 596 Q392 581 389 563 L314 137 Q303 72 263 41 Q229 13 175 13 Q121 13 97 41 Q77 61 77 103 Q77 119 80 137 L155 563 Q167 629 206 659 Q240 687 294 687 Z M470 737 L474 759 L140 759 L136 737 L470 737 Z " />
<glyph glyph-name="uni1E52" unicode="&#x1e52;" horiz-adv-x="346" d="M171 -9 Q233 -9 275 24 Q323 63 336 137 L411 563 Q415 582 415 602 Q415 649 390 675 Q359 709 298 709 Q237 709 194 675 Q146 636 133 563 L58 137 Q54 109 54 99 Q54 54 79 24 Q112 -9 171 -9 Z M294 687 Q347 687 372 659 Q392 638 392 597 Q392 581 389 563 L314 137 Q303 71 263 41 Q231 13 175 13 Q122 13 97 41 Q77 64 77 104 Q77 119 80 137 L155 563 Q167 628 206 659 Q242 687 294 687 Z M136 737 L470 737 L474 759 L140 759 L136 737 Z M415 895 L324 797 L304 797 L384 895 L415 895 Z " />
<glyph glyph-name="uni1E50" unicode="&#x1e50;" horiz-adv-x="346" d="M171 -9 Q233 -9 275 24 Q323 63 336 137 L411 563 Q415 582 415 602 Q415 649 390 675 Q359 709 298 709 Q237 709 194 675 Q146 636 133 563 L58 137 Q54 109 54 99 Q54 54 79 24 Q112 -9 171 -9 Z M294 687 Q346 687 372 659 Q392 636 392 596 Q392 581 389 563 L314 137 Q303 72 263 41 Q229 13 175 13 Q121 13 97 41 Q77 61 77 103 Q77 119 80 137 L155 563 Q167 629 206 659 Q240 687 294 687 Z M470 737 L474 759 L140 759 L136 737 L470 737 Z M247 895 L278 895 L324 797 L304 797 L247 895 Z " />
<glyph glyph-name="uni0186" unicode="&#x186;" horiz-adv-x="343" d="M169 -9 Q199 -9 226 0 Q253 9 272 25 Q321 62 333 137 L408 563 Q412 582 412 603 Q412 649 387 675 Q358 709 296 709 Q234 709 192 675 Q145 637 131 563 L119 493 L141 493 L153 563 Q165 629 204 659 Q238 687 292 687 Q344 687 369 659 Q389 638 389 597 Q389 581 386 563 L311 137 Q301 73 260 41 Q226 13 173 13 Q120 13 95 41 Q75 62 75 103 Q75 119 78 137 L96 240 L74 240 L56 137 Q53 118 53 100 Q53 52 77 25 Q108 -9 169 -9 Z " />
<glyph glyph-name="Oslash" unicode="&#xd8;" horiz-adv-x="346" d="M410 639 Q415 621 415 603 Q415 591 411 565 L335 137 Q321 61 274 25 Q255 9 228 0 Q201 -9 171 -9 Q110 -9 79 25 Q75 29 69 39 L43 -7 L24 1 L59 63 Q55 78 55 100 Q55 118 58 137 L134 565 Q146 636 194 677 Q235 710 298 710 Q361 710 389 677 Q399 664 400 663 L426 710 L446 702 L410 639 Z M80 137 Q76 113 77 94 L385 638 Q381 650 371 660 Q349 688 294 688 Q240 688 206 660 Q167 630 156 565 L80 137 Z M389 565 Q393 595 392 607 L83 64 Q90 48 97 41 Q122 13 175 13 Q228 13 262 41 Q303 73 313 137 L389 565 Z " />
<glyph glyph-name="Oslashacute" unicode="&#x1fe;" horiz-adv-x="346" d="M410 639 Q415 621 415 603 Q415 591 411 565 L335 137 Q321 61 274 25 Q255 9 228 0 Q201 -9 171 -9 Q110 -9 79 25 Q75 29 69 39 L43 -7 L24 1 L59 63 Q55 78 55 100 Q55 118 58 137 L134 565 Q146 636 194 677 Q235 710 298 710 Q361 710 389 677 Q399 664 400 663 L426 710 L446 702 L410 639 Z M80 137 Q76 113 77 94 L385 638 Q381 650 371 660 Q349 688 294 688 Q240 688 206 660 Q167 630 156 565 L80 137 Z M389 565 Q393 595 392 607 L83 64 Q90 48 97 41 Q122 13 175 13 Q228 13 262 41 Q303 73 313 137 L389 565 Z " />
<glyph glyph-name="Otilde" unicode="&#xd5;" horiz-adv-x="346" d="M171 -9 Q233 -9 275 24 Q323 63 336 137 L411 563 Q415 582 415 602 Q415 649 390 675 Q359 709 298 709 Q237 709 194 675 Q146 636 133 563 L58 137 Q54 109 54 99 Q54 54 79 24 Q112 -9 171 -9 Z M294 687 Q346 687 372 659 Q392 636 392 596 Q392 581 389 563 L314 137 Q303 72 263 41 Q229 13 175 13 Q121 13 97 41 Q77 61 77 103 Q77 119 80 137 L155 563 Q167 629 206 659 Q240 687 294 687 Z M200 738 Q234 772 261 772 Q279 772 303 756 Q330 738 353 738 Q361 738 364 739 Q395 743 432 780 L417 793 Q384 760 357 760 Q340 760 318 774 Q287 794 265 794 L255 793 Q223 789 186 752 L200 738 Z " />
<glyph glyph-name="uni1E4C" unicode="&#x1e4c;" horiz-adv-x="346" d="M421 930 L330 832 L310 832 L390 930 L421 930 Z M171 -9 Q233 -9 275 24 Q323 63 336 137 L411 563 Q415 582 415 602 Q415 649 390 675 Q359 709 298 709 Q237 709 194 675 Q146 636 133 563 L58 137 Q54 109 54 99 Q54 54 79 24 Q112 -9 171 -9 Z M294 687 Q346 687 372 659 Q392 636 392 596 Q392 581 389 563 L314 137 Q303 72 263 41 Q229 13 175 13 Q121 13 97 41 Q77 61 77 103 Q77 119 80 137 L155 563 Q167 629 206 659 Q240 687 294 687 Z M200 738 Q234 772 261 772 Q279 772 303 756 Q330 738 353 738 Q361 738 364 739 Q395 743 432 780 L417 793 Q384 760 357 760 Q340 760 318 774 Q287 794 265 794 L255 793 Q223 789 186 752 L200 738 Z " />
<glyph glyph-name="OE" unicode="&#x152;" horiz-adv-x="490" d="M373 678 L318 370 L467 370 L463 348 L314 348 L257 22 L470 22 L466 0 L231 0 L173 0 Q112 0 81 34 Q56 60 56 107 Q56 127 60 146 L132 554 Q144 627 192 666 Q235 700 296 700 L354 700 L589 700 L586 678 L373 678 Z M235 22 L351 678 L293 678 Q239 678 205 650 Q165 619 154 554 L82 146 Q79 128 79 112 Q79 71 99 50 Q124 22 177 22 L235 22 Z " />
<glyph glyph-name="P" unicode="P" horiz-adv-x="340" d="M118 319 L234 319 Q298 319 338 352 Q385 390 399 464 L415 553 Q418 573 418 590 Q418 638 393 666 Q362 700 301 700 L163 700 L40 0 L62 0 L118 319 Z M182 678 L298 678 Q351 678 376 650 Q396 627 396 587 Q396 571 393 553 L377 464 Q365 398 326 368 Q293 341 238 341 L122 341 L182 678 Z " />
<glyph glyph-name="uni01A4" unicode="&#x1a4;" horiz-adv-x="375" d="M428 666 Q453 638 453 590 Q453 573 450 553 L434 464 Q420 390 373 352 Q333 319 269 319 L153 319 L97 0 L75 0 L195 678 L153 678 Q140 678 129 669 Q118 660 116 647 L94 647 Q98 669 116 684.5 Q134 700 156 700 L336 700 Q397 700 428 666 Z M428 553 Q431 571 431 587 Q431 627 411 650 Q386 678 333 678 L217 678 L157 341 L273 341 Q328 341 361 368 Q400 398 412 464 L428 553 Z " />
<glyph glyph-name="Thorn" unicode="&#xde;" horiz-adv-x="340" d="M171 620 L287 620 Q342 620 365 592 Q386 570 386 531 Q386 521 382 495 L367 406 Q355 342 316 310 Q282 283 228 283 L112 283 L171 620 Z M108 261 L224 261 Q288 261 328 294 Q375 332 389 406 L404 495 Q408 514 408 534 Q408 580 383 608 Q352 642 291 642 L175 642 L185 700 L163 700 L40 0 L62 0 L108 261 Z " />
<glyph glyph-name="Q" unicode="Q" horiz-adv-x="346" d="M331 -112 L327 -134 L313 -134 Q259 -134 232 -105 Q211 -80 211 -39 Q211 -24 214 -6 L214 -5 Q197 -9 171 -9 Q109 -9 79 24 Q54 52 54 99 Q54 110 58 136 L133 563 Q147 637 194 675 Q237 709 298 709 Q359 709 390 675 Q414 648 414 603 Q414 582 410 563 L335 136 Q321 60 275 24 Q259 11 238 3 L236 -6 Q233 -23 233 -36 Q233 -69 250 -88 Q273 -112 317 -112 L331 -112 Z M97 40 Q121 13 175 13 Q229 13 263 40 Q301 71 313 136 L388 563 Q391 583 391 598 Q391 637 372 659 Q346 687 294 687 Q240 687 206 659 Q167 629 155 563 L80 136 Q77 118 77 102 Q77 61 97 40 Z " />
<glyph glyph-name="R" unicode="R" horiz-adv-x="343" d="M318 0 L295 0 L265 321 Q255 319 235 319 L118 319 L62 0 L40 0 L163 700 L302 700 Q363 700 394 666 Q419 638 419 590 Q419 573 416 553 L400 464 Q386 390 339 352 Q316 333 286 326 L318 0 Z M239 341 Q293 341 327 368 Q366 399 378 464 L394 553 Q397 571 397 586 Q397 625 377 650 Q351 678 299 678 L182 678 L122 341 L239 341 Z " />
<glyph glyph-name="Racute" unicode="&#x154;" horiz-adv-x="343" d="M318 0 L295 0 L265 321 Q255 319 235 319 L118 319 L62 0 L40 0 L163 700 L302 700 Q363 700 394 666 Q419 638 419 590 Q419 573 416 553 L400 464 Q386 390 339 352 Q316 333 286 326 L318 0 Z M239 341 Q293 341 327 368 Q366 399 378 464 L394 553 Q397 571 397 586 Q397 625 377 650 Q351 678 299 678 L182 678 L122 341 L239 341 Z M410 835 L319 737 L299 737 L379 835 L410 835 Z " />
<glyph glyph-name="Rcaron" unicode="&#x158;" horiz-adv-x="343" d="M318 0 L295 0 L265 321 Q255 319 235 319 L118 319 L62 0 L40 0 L163 700 L302 700 Q363 700 394 666 Q419 638 419 590 Q419 573 416 553 L400 464 Q386 390 339 352 Q316 333 286 326 L318 0 Z M239 341 Q293 341 327 368 Q366 399 378 464 L394 553 Q397 571 397 586 Q397 625 377 650 Q351 678 299 678 L182 678 L122 341 L239 341 Z M296 737 L245 835 L265 835 L313 758 L387 835 L407 835 L323 737 L296 737 Z " />
<glyph glyph-name="Rcommaaccent" unicode="&#x156;" horiz-adv-x="343" d="M318 0 L295 0 L265 321 Q255 319 235 319 L118 319 L62 0 L40 0 L163 700 L302 700 Q363 700 394 666 Q419 638 419 590 Q419 573 416 553 L400 464 Q386 390 339 352 Q316 333 286 326 L318 0 Z M239 341 Q293 341 327 368 Q366 399 378 464 L394 553 Q397 571 397 586 Q397 625 377 650 Q351 678 299 678 L182 678 L122 341 L239 341 Z M193 -66 Q191 -78 182 -90 Q176 -100 160 -118 L140 -118 L149 -104 Q155 -94 149 -88 Q139 -78 141 -66 Q143 -55 152.5 -47.5 Q162 -40 172 -40 Q183 -40 189 -48 Q195 -56 193 -66 Z " />
<glyph glyph-name="uni024C" unicode="&#x24c;" horiz-adv-x="348" d="M405 464 Q391 390 344 352 Q321 333 291 326 L323 0 L300 0 L270 321 Q260 319 240 319 L123 319 L67 0 L45 0 L101 319 L61 319 L65 341 L105 341 L168 700 L307 700 Q368 700 399 666 Q424 638 424 590 Q424 573 421 553 L405 464 Z M332 368 Q371 400 383 464 L399 553 Q402 571 402 586 Q402 625 382 650 Q356 678 304 678 L187 678 L127 341 L244 341 Q298 341 332 368 Z " />
<glyph glyph-name="uni2C64" unicode="&#x2c64;" horiz-adv-x="343" d="M400 464 Q386 390 339 352 Q316 333 286 326 L318 0 L295 0 L265 321 Q255 319 235 319 L118 319 L55 -42 Q53 -55 60 -64 Q67 -73 80 -73 L76 -95 Q57 -95 44.5 -82.5 Q32 -70 32 -52 Q32 -45 33 -42 L163 700 L302 700 Q363 700 394 666 Q419 638 419 590 Q419 573 416 553 L400 464 Z M327 368 Q366 399 378 464 L394 553 Q397 571 397 586 Q397 625 377 650 Q351 678 299 678 L182 678 L122 341 L239 341 Q293 341 327 368 Z " />
<glyph glyph-name="S" unicode="S" horiz-adv-x="333" d="M165 -9 Q227 -9 269 25 Q317 62 330 137 L339 187 Q342 208 342 226 Q342 281 313 321 Q298 340 281 351.5 Q264 363 239 377 Q235 379 220 387.5 Q205 396 192 406 Q179 416 169 428 Q143 462 143 510 Q143 526 146 544 L149 564 Q161 628 200 659 Q235 687 288 687 Q342 687 366 659 Q387 638 387 599 Q387 590 383 564 L371 495 L393 495 L405 564 Q409 583 409 603 Q409 648 384 676 Q354 709 292 709 Q230 709 188 676 Q140 636 127 564 L124 544 Q121 525 121 506 Q121 452 151 413 Q166 394 183 382.5 Q200 371 225 358 Q249 345 265 334 Q281 323 294 306 Q320 271 320 222 Q320 205 317 187 L308 137 Q298 73 257 41 Q221 13 169 13 Q117 13 91 41 Q71 64 71 104 Q71 119 74 137 L93 242 L71 242 L52 137 Q48 109 48 99 Q48 53 73 25 Q105 -9 165 -9 Z " />
<glyph glyph-name="Sacute" unicode="&#x15a;" horiz-adv-x="333" d="M165 -9 Q227 -9 269 25 Q317 62 330 137 L339 187 Q342 208 342 226 Q342 281 313 321 Q298 340 281 351.5 Q264 363 239 377 Q235 379 220 387.5 Q205 396 192 406 Q179 416 169 428 Q143 462 143 510 Q143 526 146 544 L149 564 Q161 628 200 659 Q235 687 288 687 Q342 687 366 659 Q387 638 387 599 Q387 590 383 564 L371 495 L393 495 L405 564 Q409 583 409 603 Q409 648 384 676 Q354 709 292 709 Q230 709 188 676 Q140 636 127 564 L124 544 Q121 525 121 506 Q121 452 151 413 Q166 394 183 382.5 Q200 371 225 358 Q249 345 265 334 Q281 323 294 306 Q320 271 320 222 Q320 205 317 187 L308 137 Q298 73 257 41 Q221 13 169 13 Q117 13 91 41 Q71 64 71 104 Q71 119 74 137 L93 242 L71 242 L52 137 Q48 109 48 99 Q48 53 73 25 Q105 -9 165 -9 Z M398 835 L307 737 L287 737 L367 835 L398 835 Z " />
<glyph glyph-name="Scaron" unicode="&#x160;" horiz-adv-x="333" d="M165 -9 Q227 -9 269 25 Q317 62 330 137 L339 187 Q342 208 342 226 Q342 281 313 321 Q298 340 281 351.5 Q264 363 239 377 Q235 379 220 387.5 Q205 396 192 406 Q179 416 169 428 Q143 462 143 510 Q143 526 146 544 L149 564 Q161 628 200 659 Q235 687 288 687 Q342 687 366 659 Q387 638 387 599 Q387 590 383 564 L371 495 L393 495 L405 564 Q409 583 409 603 Q409 648 384 676 Q354 709 292 709 Q230 709 188 676 Q140 636 127 564 L124 544 Q121 525 121 506 Q121 452 151 413 Q166 394 183 382.5 Q200 371 225 358 Q249 345 265 334 Q281 323 294 306 Q320 271 320 222 Q320 205 317 187 L308 137 Q298 73 257 41 Q221 13 169 13 Q117 13 91 41 Q71 64 71 104 Q71 119 74 137 L93 242 L71 242 L52 137 Q48 109 48 99 Q48 53 73 25 Q105 -9 165 -9 Z M284 737 L233 835 L253 835 L301 758 L375 835 L395 835 L311 737 L284 737 Z " />
<glyph glyph-name="Scedilla" unicode="&#x15e;" horiz-adv-x="333" d="M371 495 L383 564 Q387 590 387 599 Q387 638 366 659 Q342 687 288 687 Q235 687 200 659 Q161 628 149 564 L146 544 Q143 526 143 510 Q143 462 169 428 Q182 413 196 403 Q210 393 222.5 386 Q235 379 239 377 Q264 363 281 351.5 Q298 340 313 321 Q342 281 342 226 Q342 208 339 187 L330 137 Q317 62 269 25 Q230 -6 176 -9 Q176 -10 177 -15.5 Q178 -21 184 -26 Q184 -26 186 -28 Q208 -45 208 -67 L207 -76 Q202 -98 184 -113.5 Q166 -129 144 -129 Q125 -129 112.5 -117 Q100 -105 100 -87 Q100 -80 101 -76 L123 -76 Q121 -89 128 -98 Q135 -107 148 -107 Q161 -107 172 -98 Q183 -89 185 -76 Q186 -65 182.5 -59 Q179 -53 170 -45 L168 -44 Q152 -30 154 -9 Q102 -6 73 25 Q48 53 48 99 Q48 109 52 137 L71 242 L93 242 L74 137 Q71 119 71 104 Q71 64 91 41 Q117 13 169 13 Q221 13 257 41 Q298 73 308 137 L317 187 Q320 205 320 222 Q320 271 294 306 Q281 323 265 334 Q249 345 225 358 Q200 371 183 382.5 Q166 394 151 413 Q121 452 121 506 Q121 525 124 544 L127 564 Q140 636 188 676 Q230 709 292 709 Q354 709 384 676 Q409 648 409 603 Q409 583 405 564 L393 495 L371 495 Z " />
<glyph glyph-name="Scommaaccent" unicode="&#x218;" horiz-adv-x="333" d="M165 -9 Q227 -9 269 25 Q317 62 330 137 L339 187 Q342 208 342 226 Q342 281 313 321 Q298 340 281 351.5 Q264 363 239 377 Q235 379 220 387.5 Q205 396 192 406 Q179 416 169 428 Q143 462 143 510 Q143 526 146 544 L149 564 Q161 628 200 659 Q235 687 288 687 Q342 687 366 659 Q387 638 387 599 Q387 590 383 564 L371 495 L393 495 L405 564 Q409 583 409 603 Q409 648 384 676 Q354 709 292 709 Q230 709 188 676 Q140 636 127 564 L124 544 Q121 525 121 506 Q121 452 151 413 Q166 394 183 382.5 Q200 371 225 358 Q249 345 265 334 Q281 323 294 306 Q320 271 320 222 Q320 205 317 187 L308 137 Q298 73 257 41 Q221 13 169 13 Q117 13 91 41 Q71 64 71 104 Q71 119 74 137 L93 242 L71 242 L52 137 Q48 109 48 99 Q48 53 73 25 Q105 -9 165 -9 Z M181 -66 Q179 -78 170 -90 Q164 -100 148 -118 L128 -118 L137 -104 Q143 -94 137 -88 Q127 -78 129 -66 Q131 -55 140.5 -47.5 Q150 -40 160 -40 Q171 -40 177 -48 Q183 -56 181 -66 Z " />
<glyph glyph-name="uni1E62" unicode="&#x1e62;" horiz-adv-x="333" d="M165 -9 Q227 -9 269 25 Q317 62 330 137 L339 187 Q342 208 342 226 Q342 281 313 321 Q298 340 281 351.5 Q264 363 239 377 Q235 379 220 387.5 Q205 396 192 406 Q179 416 169 428 Q143 462 143 510 Q143 526 146 544 L149 564 Q161 628 200 659 Q235 687 288 687 Q342 687 366 659 Q387 638 387 599 Q387 590 383 564 L371 495 L393 495 L405 564 Q409 583 409 603 Q409 648 384 676 Q354 709 292 709 Q230 709 188 676 Q140 636 127 564 L124 544 Q121 525 121 506 Q121 452 151 413 Q166 394 183 382.5 Q200 371 225 358 Q249 345 265 334 Q281 323 294 306 Q320 271 320 222 Q320 205 317 187 L308 137 Q298 73 257 41 Q221 13 169 13 Q117 13 91 41 Q71 64 71 104 Q71 119 74 137 L93 242 L71 242 L52 137 Q48 109 48 99 Q48 53 73 25 Q105 -9 165 -9 Z M182 -60 Q182 -51 176 -45.5 Q170 -40 160 -40 Q149 -40 140 -47.5 Q131 -55 129 -66 Q127 -77 134 -84.5 Q141 -92 151 -92 Q162 -92 170.5 -84.5 Q179 -77 181 -66 L182 -60 Z " />
<glyph glyph-name="T" unicode="T" horiz-adv-x="303" d="M414 700 L411 678 L284 678 L164 0 L142 0 L262 678 L133 678 L136 700 L414 700 Z " />
<glyph glyph-name="Tbar" unicode="&#x166;" horiz-adv-x="303" d="M411 678 L284 678 L245 460 L305 460 L301 438 L241 438 L164 0 L142 0 L219 438 L159 438 L163 460 L223 460 L262 678 L133 678 L136 700 L414 700 L411 678 Z " />
<glyph glyph-name="Tcaron" unicode="&#x164;" horiz-adv-x="303" d="M414 700 L411 678 L284 678 L164 0 L142 0 L262 678 L133 678 L136 700 L414 700 Z M269 737 L218 835 L238 835 L286 758 L360 835 L380 835 L296 737 L269 737 Z " />
<glyph glyph-name="uni0162" unicode="&#x162;" horiz-adv-x="303" d="M164 1 Q163 -4 163 -11 Q163 -20 172 -28 Q182 -37 188 -45.5 Q194 -54 194 -68 L193 -76 Q188 -98 170 -113.5 Q152 -129 130 -129 Q111 -129 98.5 -117 Q86 -105 86 -87 Q86 -80 87 -76 L109 -76 Q107 -89 114 -98 Q121 -107 134 -107 Q147 -107 158 -98 Q169 -89 171 -76 Q172 -65 168.5 -58.5 Q165 -52 156 -45 Q147 -38 142.5 -30 Q138 -22 140 -9 Q161 103 202 337.5 Q243 572 262 678 L133 678 L136 700 L414 700 L411 678 L284 678 L164 1 Z " />
<glyph glyph-name="uni1E70" unicode="&#x1e70;" horiz-adv-x="303" d="M414 700 L411 678 L284 678 L164 0 L142 0 L262 678 L133 678 L136 700 L414 700 Z M132 -40 L159 -40 L209 -138 L189 -138 L141 -61 L67 -138 L47 -138 L132 -40 Z " />
<glyph glyph-name="uni021A" unicode="&#x21a;" horiz-adv-x="303" d="M414 700 L411 678 L284 678 L164 0 L142 0 L262 678 L133 678 L136 700 L414 700 Z M167 -66 Q165 -78 156 -90 Q150 -100 134 -118 L114 -118 L123 -104 Q129 -94 123 -88 Q113 -78 115 -66 Q117 -55 126.5 -47.5 Q136 -40 146 -40 Q157 -40 163 -48 Q169 -56 167 -66 Z " />
<glyph glyph-name="uni1E6C" unicode="&#x1e6c;" horiz-adv-x="303" d="M414 700 L411 678 L284 678 L164 0 L142 0 L262 678 L133 678 L136 700 L414 700 Z M168 -60 Q168 -51 162 -45.5 Q156 -40 146 -40 Q135 -40 126 -47.5 Q117 -55 115 -66 Q113 -77 120 -84.5 Q127 -92 137 -92 Q148 -92 156.5 -84.5 Q165 -77 167 -66 L168 -60 Z " />
<glyph glyph-name="uni01AC" unicode="&#x1ac;" horiz-adv-x="348" d="M459 700 L456 678 L329 678 L209 0 L187 0 L307 678 L178 678 Q165 678 154 669 Q143 660 141 647 L119 647 Q123 669 141 684.5 Q159 700 181 700 L459 700 Z " />
<glyph glyph-name="uni1E6E" unicode="&#x1e6e;" horiz-adv-x="304" d="M414 700 L411 678 L284 678 L164 0 L142 0 L262 678 L133 678 L136 700 L414 700 Z M308 -62 L312 -40 L-22 -40 L-26 -62 L308 -62 Z " />
<glyph glyph-name="uni01AE" unicode="&#x1ae;" horiz-adv-x="303" d="M284 678 L157 -42 Q155 -55 162 -63.5 Q169 -72 182 -72 L178 -94 Q159 -94 146.5 -82 Q134 -70 134 -52 Q134 -45 135 -42 L262 678 L133 678 L136 700 L414 700 L411 678 L284 678 Z " />
<glyph glyph-name="U" unicode="U" horiz-adv-x="344" d="M170 -9 Q232 -9 274 25 Q322 62 335 137 L434 700 L412 700 L313 137 Q303 73 262 41 Q228 13 174 13 Q122 13 96 41 Q76 64 76 104 Q76 119 79 137 L178 700 L156 700 L57 137 Q53 109 53 99 Q53 53 78 25 Q110 -9 170 -9 Z " />
<glyph glyph-name="Uacute" unicode="&#xda;" horiz-adv-x="344" d="M170 -9 Q232 -9 274 25 Q322 62 335 137 L434 700 L412 700 L313 137 Q303 73 262 41 Q228 13 174 13 Q122 13 96 41 Q76 64 76 104 Q76 119 79 137 L178 700 L156 700 L57 137 Q53 109 53 99 Q53 53 78 25 Q110 -9 170 -9 Z M403 835 L312 737 L292 737 L372 835 L403 835 Z " />
<glyph glyph-name="uni0244" unicode="&#x244;" horiz-adv-x="368" d="M425 349 L385 349 L347 137 Q334 62 286 25 Q244 -9 182 -9 Q122 -9 90 25 Q65 53 65 99 Q65 109 69 137 L107 349 L67 349 L70 371 L110 371 L168 700 L190 700 L132 371 L366 371 L424 700 L446 700 L388 371 L428 371 L425 349 Z M363 349 L129 349 L91 137 Q88 119 88 104 Q88 64 108 41 Q134 13 186 13 Q240 13 274 41 Q315 73 325 137 L363 349 Z " />
<glyph glyph-name="uni01D3" unicode="&#x1d3;" horiz-adv-x="344" d="M170 -9 Q232 -9 274 25 Q322 62 335 137 L434 700 L412 700 L313 137 Q303 73 262 41 Q228 13 174 13 Q122 13 96 41 Q76 64 76 104 Q76 119 79 137 L178 700 L156 700 L57 137 Q53 109 53 99 Q53 53 78 25 Q110 -9 170 -9 Z M290 737 L239 835 L259 835 L307 758 L381 835 L401 835 L317 737 L290 737 Z " />
<glyph glyph-name="Ucircumflex" unicode="&#xdb;" horiz-adv-x="344" d="M170 -9 Q232 -9 274 25 Q322 62 335 137 L434 700 L412 700 L313 137 Q303 73 262 41 Q228 13 174 13 Q122 13 96 41 Q76 64 76 104 Q76 119 79 137 L178 700 L156 700 L57 137 Q53 109 53 99 Q53 53 78 25 Q110 -9 170 -9 Z M306 835 L333 835 L383 737 L363 737 L316 814 L241 737 L221 737 L306 835 Z " />
<glyph glyph-name="Udieresis" unicode="&#xdc;" horiz-adv-x="344" d="M170 -9 Q232 -9 274 25 Q322 62 335 137 L434 700 L412 700 L313 137 Q303 73 262 41 Q228 13 174 13 Q122 13 96 41 Q76 64 76 104 Q76 119 79 137 L178 700 L156 700 L57 137 Q53 109 53 99 Q53 53 78 25 Q110 -9 170 -9 Z M266 763 Q268 774 261.5 781.5 Q255 789 244 789 Q233 789 224 781.5 Q215 774 214 763 Q212 753 218 745 Q224 737 235 737 Q246 737 255 744.5 Q264 752 266 763 Z M400 763 Q402 774 395.5 781.5 Q389 789 378 789 Q367 789 358 781.5 Q349 774 348 763 Q346 753 352 745 Q358 737 369 737 Q380 737 389 744.5 Q398 752 400 763 Z " />
<glyph glyph-name="uni01D7" unicode="&#x1d7;" horiz-adv-x="344" d="M170 -9 Q232 -9 274 25 Q322 62 335 137 L434 700 L412 700 L313 137 Q303 73 262 41 Q228 13 174 13 Q122 13 96 41 Q76 64 76 104 Q76 119 79 137 L178 700 L156 700 L57 137 Q53 109 53 99 Q53 53 78 25 Q110 -9 170 -9 Z M266 763 Q268 774 261.5 781.5 Q255 789 244 789 Q233 789 224 781.5 Q215 774 214 763 Q212 753 218 745 Q224 737 235 737 Q246 737 255 744.5 Q264 752 266 763 Z M400 763 Q402 774 395.5 781.5 Q389 789 378 789 Q367 789 358 781.5 Q349 774 348 763 Q346 753 352 745 Q358 737 369 737 Q380 737 389 744.5 Q398 752 400 763 Z M419 925 L328 827 L308 827 L388 925 L419 925 Z " />
<glyph glyph-name="uni01D9" unicode="&#x1d9;" horiz-adv-x="344" d="M170 -9 Q232 -9 274 25 Q322 62 335 137 L434 700 L412 700 L313 137 Q303 73 262 41 Q228 13 174 13 Q122 13 96 41 Q76 64 76 104 Q76 119 79 137 L178 700 L156 700 L57 137 Q53 109 53 99 Q53 53 78 25 Q110 -9 170 -9 Z M266 763 Q268 774 261.5 781.5 Q255 789 244 789 Q233 789 224 781.5 Q215 774 214 763 Q212 753 218 745 Q224 737 235 737 Q246 737 255 744.5 Q264 752 266 763 Z M400 763 Q402 774 395.5 781.5 Q389 789 378 789 Q367 789 358 781.5 Q349 774 348 763 Q346 753 352 745 Q358 737 369 737 Q380 737 389 744.5 Q398 752 400 763 Z M305 827 L254 925 L274 925 L322 848 L396 925 L416 925 L332 827 L305 827 Z " />
<glyph glyph-name="uni01DB" unicode="&#x1db;" horiz-adv-x="344" d="M170 -9 Q232 -9 274 25 Q322 62 335 137 L434 700 L412 700 L313 137 Q303 74 262 41 Q226 13 174 13 Q121 13 96 41 Q76 62 76 103 Q76 119 79 137 L178 700 L156 700 L57 137 Q53 109 53 99 Q53 53 78 25 Q110 -9 170 -9 Z M347 758 Q347 749 353 743 Q359 737 369 737 Q379 737 388.5 744.5 Q398 752 400 763 Q401 774 395 781.5 Q389 789 378 789 Q367 789 358 781.5 Q349 774 348 763 L347 758 Z M213 758 Q213 749 219 743 Q225 737 235 737 Q245 737 254.5 744.5 Q264 752 266 763 Q267 774 261 781.5 Q255 789 244 789 Q233 789 224 781.5 Q215 774 214 763 L213 758 Z M251 925 L282 925 L328 827 L308 827 L251 925 Z " />
<glyph glyph-name="uni01D5" unicode="&#x1d5;" horiz-adv-x="344" d="M170 -9 Q232 -9 274 25 Q322 62 335 137 L434 700 L412 700 L313 137 Q303 74 262 41 Q226 13 174 13 Q121 13 96 41 Q76 62 76 103 Q76 119 79 137 L178 700 L156 700 L57 137 Q53 109 53 99 Q53 53 78 25 Q110 -9 170 -9 Z M266 763 Q268 774 261.5 781.5 Q255 789 244 789 Q233 789 224 781.5 Q215 774 214 763 Q212 753 218 745 Q224 737 235 737 Q246 737 255 744.5 Q264 752 266 763 Z M400 763 Q402 774 395.5 781.5 Q389 789 378 789 Q367 789 358 781.5 Q349 774 348 763 Q346 753 352 745 Q358 737 369 737 Q380 737 389 744.5 Q398 752 400 763 Z M485 827 L489 849 L155 849 L151 827 L485 827 Z " />
<glyph glyph-name="uni1EE4" unicode="&#x1ee4;" horiz-adv-x="344" d="M187 -60 Q187 -51 181 -45.5 Q175 -40 165 -40 Q154 -40 145 -47.5 Q136 -55 134 -66 Q132 -77 139 -84.5 Q146 -92 156 -92 Q167 -92 175.5 -84.5 Q184 -77 186 -66 L187 -60 Z M170 -9 Q232 -9 274 25 Q322 62 335 137 L434 700 L412 700 L313 137 Q303 73 262 41 Q228 13 174 13 Q122 13 96 41 Q76 64 76 104 Q76 119 79 137 L178 700 L156 700 L57 137 Q53 109 53 99 Q53 53 78 25 Q110 -9 170 -9 Z " />
<glyph glyph-name="Ugrave" unicode="&#xd9;" horiz-adv-x="344" d="M170 -9 Q232 -9 274 25 Q322 62 335 137 L434 700 L412 700 L313 137 Q303 73 262 41 Q228 13 174 13 Q122 13 96 41 Q76 64 76 104 Q76 119 79 137 L178 700 L156 700 L57 137 Q53 109 53 99 Q53 53 78 25 Q110 -9 170 -9 Z M235 835 L266 835 L312 737 L292 737 L235 835 Z " />
<glyph glyph-name="uni1EE6" unicode="&#x1ee6;" horiz-adv-x="344" d="M170 -9 Q232 -9 274 25 Q322 62 335 137 L434 700 L412 700 L313 137 Q303 73 262 41 Q228 13 174 13 Q122 13 96 41 Q76 64 76 104 Q76 119 79 137 L178 700 L156 700 L57 137 Q53 109 53 99 Q53 53 78 25 Q110 -9 170 -9 Z M292 737 Q293 741 293 749 Q293 773 276 789.5 Q259 806 234 806 L218 825 Q228 828 238 828 Q271 828 292 806.5 Q313 785 313 753 Q313 743 312 737 L292 737 Z " />
<glyph glyph-name="Uhorn" unicode="&#x1af;" horiz-adv-x="386" d="M535 731 Q531 709 513 693.5 Q495 678 473 678 L431 678 L335 137 Q322 62 274 25 Q232 -9 170 -9 Q110 -9 78 25 Q53 53 53 99 Q53 109 57 137 L156 700 L178 700 L79 137 Q76 119 76 104 Q76 64 96 41 Q122 13 174 13 Q228 13 262 41 Q303 73 313 137 L412 700 L476 700 Q489 700 500 709 Q511 718 513 731 L535 731 Z " />
<glyph glyph-name="uni1EE8" unicode="&#x1ee8;" horiz-adv-x="386" d="M535 731 Q531 709 513 693.5 Q495 678 473 678 L431 678 L335 137 Q322 62 274 25 Q232 -9 170 -9 Q110 -9 78 25 Q53 53 53 99 Q53 109 57 137 L156 700 L178 700 L79 137 Q76 119 76 104 Q76 64 96 41 Q122 13 174 13 Q228 13 262 41 Q303 73 313 137 L412 700 L476 700 Q489 700 500 709 Q511 718 513 731 L535 731 Z M403 835 L312 737 L292 737 L372 835 L403 835 Z " />
<glyph glyph-name="uni1EF0" unicode="&#x1ef0;" horiz-adv-x="386" d="M535 731 Q531 709 513 693.5 Q495 678 473 678 L431 678 L335 137 Q322 62 274 25 Q232 -9 170 -9 Q110 -9 78 25 Q53 53 53 99 Q53 109 57 137 L156 700 L178 700 L79 137 Q76 119 76 104 Q76 64 96 41 Q122 13 174 13 Q228 13 262 41 Q303 73 313 137 L412 700 L476 700 Q489 700 500 709 Q511 718 513 731 L535 731 Z M187 -60 Q187 -51 181 -45.5 Q175 -40 165 -40 Q154 -40 145 -47.5 Q136 -55 134 -66 Q132 -77 139 -84.5 Q146 -92 156 -92 Q167 -92 175.5 -84.5 Q184 -77 186 -66 L187 -60 Z " />
<glyph glyph-name="uni1EEA" unicode="&#x1eea;" horiz-adv-x="386" d="M535 731 Q531 709 513 693.5 Q495 678 473 678 L431 678 L335 137 Q322 62 274 25 Q232 -9 170 -9 Q110 -9 78 25 Q53 53 53 99 Q53 109 57 137 L156 700 L178 700 L79 137 Q76 119 76 104 Q76 64 96 41 Q122 13 174 13 Q228 13 262 41 Q303 73 313 137 L412 700 L476 700 Q489 700 500 709 Q511 718 513 731 L535 731 Z M235 835 L266 835 L312 737 L292 737 L235 835 Z " />
<glyph glyph-name="uni1EEC" unicode="&#x1eec;" horiz-adv-x="386" d="M535 731 Q531 709 513 693.5 Q495 678 473 678 L431 678 L335 137 Q322 62 274 25 Q232 -9 170 -9 Q110 -9 78 25 Q53 53 53 99 Q53 109 57 137 L156 700 L178 700 L79 137 Q76 119 76 104 Q76 64 96 41 Q122 13 174 13 Q228 13 262 41 Q303 73 313 137 L412 700 L476 700 Q489 700 500 709 Q511 718 513 731 L535 731 Z M292 737 Q293 741 293 749 Q293 773 276 789.5 Q259 806 234 806 L218 825 Q228 828 238 828 Q271 828 292 806.5 Q313 785 313 753 Q313 743 312 737 L292 737 Z " />
<glyph glyph-name="uni1EEE" unicode="&#x1eee;" horiz-adv-x="386" d="M535 731 Q531 709 513 693.5 Q495 678 473 678 L431 678 L335 137 Q322 62 274 25 Q232 -9 170 -9 Q110 -9 78 25 Q53 53 53 99 Q53 109 57 137 L156 700 L178 700 L79 137 Q76 119 76 104 Q76 64 96 41 Q122 13 174 13 Q228 13 262 41 Q303 73 313 137 L412 700 L476 700 Q489 700 500 709 Q511 718 513 731 L535 731 Z M199 738 Q233 772 260 772 Q278 772 302 756 Q329 738 352 738 Q360 738 363 739 Q394 743 431 780 L416 793 Q383 760 356 760 Q339 760 317 774 Q286 794 264 794 L254 793 Q222 789 185 752 L199 738 Z " />
<glyph glyph-name="Uhungarumlaut" unicode="&#x170;" horiz-adv-x="344" d="M170 -9 Q232 -9 274 25 Q322 62 335 137 L434 700 L412 700 L313 137 Q303 73 262 41 Q228 13 174 13 Q122 13 96 41 Q76 64 76 104 Q76 119 79 137 L178 700 L156 700 L57 137 Q53 109 53 99 Q53 53 78 25 Q110 -9 170 -9 Z M448 835 L357 737 L337 737 L417 835 L448 835 Z M357 835 L266 737 L246 737 L326 835 L357 835 Z " />
<glyph glyph-name="Umacron" unicode="&#x16a;" horiz-adv-x="344" d="M170 -9 Q232 -9 274 25 Q322 62 335 137 L434 700 L412 700 L313 137 Q303 73 262 41 Q228 13 174 13 Q122 13 96 41 Q76 64 76 104 Q76 119 79 137 L178 700 L156 700 L57 137 Q53 109 53 99 Q53 53 78 25 Q110 -9 170 -9 Z M469 737 L473 759 L139 759 L135 737 L469 737 Z " />
<glyph glyph-name="Uogonek" unicode="&#x172;" horiz-adv-x="344" d="M434 700 L335 137 Q322 62 274 25 L255 10 Q219 -19 205.5 -32.5 Q192 -46 189 -60 Q186 -81 229 -81 L238 -81 L234 -104 L215 -104 Q186 -104 168 -97 Q150 -90 154 -69 Q159 -40 213 -4 Q191 -9 170 -9 Q110 -9 78 25 Q53 53 53 99 Q53 109 57 137 L156 700 L178 700 L79 137 Q76 119 76 104 Q76 64 96 41 Q122 13 174 13 Q228 13 262 41 Q303 73 313 137 L412 700 L434 700 Z " />
<glyph glyph-name="Uring" unicode="&#x16e;" horiz-adv-x="344" d="M170 -9 Q232 -9 274 25 Q322 62 335 137 L434 700 L412 700 L313 137 Q303 73 262 41 Q228 13 174 13 Q122 13 96 41 Q76 64 76 104 Q76 119 79 137 L178 700 L156 700 L57 137 Q53 109 53 99 Q53 53 78 25 Q110 -9 170 -9 Z M302 737 Q324 737 342 752.5 Q360 768 364 790 Q365 794 365 800 Q365 819 352.5 831 Q340 843 321 843 Q299 843 280.5 827.5 Q262 812 258 790 Q257 787 257 781 Q257 762 270 749.5 Q283 737 302 737 Z M317 821 Q330 821 337 812 Q344 803 342 790 Q340 777 329.5 768 Q319 759 306 759 Q293 759 285.5 768 Q278 777 280 790 Q282 803 293 812 Q304 821 317 821 Z " />
<glyph glyph-name="Utilde" unicode="&#x168;" horiz-adv-x="344" d="M170 -9 Q232 -9 274 25 Q322 62 335 137 L434 700 L412 700 L313 137 Q303 73 262 41 Q228 13 174 13 Q122 13 96 41 Q76 64 76 104 Q76 119 79 137 L178 700 L156 700 L57 137 Q53 109 53 99 Q53 53 78 25 Q110 -9 170 -9 Z M198 738 Q232 772 259 772 Q277 772 301 756 Q328 738 351 738 Q359 738 362 739 Q393 743 430 780 L415 793 Q382 760 355 760 Q338 760 316 774 Q285 794 263 794 L253 793 Q221 789 184 752 L198 738 Z " />
<glyph glyph-name="V" unicode="V" horiz-adv-x="351" d="M187 0 L164 0 L137 700 L159 700 L185 49 L438 700 L460 700 L187 0 Z " />
<glyph glyph-name="uni0245" unicode="&#x245;" horiz-adv-x="351" d="M310 700 L337 0 L315 0 L291 651 L36 0 L14 0 L287 700 L310 700 Z " />
<glyph glyph-name="W" unicode="W" horiz-adv-x="497" d="M578 700 L601 700 L392 0 L380 0 L342 527 L117 0 L105 0 L143 700 L165 700 L131 84 L347 589 L359 589 L396 84 L578 700 Z " />
<glyph glyph-name="Wacute" unicode="&#x1e82;" horiz-adv-x="497" d="M578 700 L601 700 L392 0 L380 0 L342 527 L117 0 L105 0 L143 700 L165 700 L131 84 L347 589 L359 589 L396 84 L578 700 Z M480 835 L389 737 L369 737 L449 835 L480 835 Z " />
<glyph glyph-name="Wcircumflex" unicode="&#x174;" horiz-adv-x="497" d="M578 700 L601 700 L392 0 L380 0 L342 527 L117 0 L105 0 L143 700 L165 700 L131 84 L347 589 L359 589 L396 84 L578 700 Z M383 835 L410 835 L460 737 L440 737 L393 814 L318 737 L298 737 L383 835 Z " />
<glyph glyph-name="Wdieresis" unicode="&#x1e84;" horiz-adv-x="497" d="M578 700 L601 700 L392 0 L380 0 L342 527 L117 0 L105 0 L143 700 L165 700 L131 84 L347 589 L359 589 L396 84 L578 700 Z M343 763 Q345 774 338.5 781.5 Q332 789 321 789 Q310 789 301 781.5 Q292 774 291 763 Q289 753 295 745 Q301 737 312 737 Q323 737 332 744.5 Q341 752 343 763 Z M477 763 Q479 774 472.5 781.5 Q466 789 455 789 Q444 789 435 781.5 Q426 774 425 763 Q423 753 429 745 Q435 737 446 737 Q457 737 466 744.5 Q475 752 477 763 Z " />
<glyph glyph-name="Wgrave" unicode="&#x1e80;" horiz-adv-x="497" d="M578 700 L601 700 L392 0 L380 0 L342 527 L117 0 L105 0 L143 700 L165 700 L131 84 L347 589 L359 589 L396 84 L578 700 Z M312 835 L343 835 L389 737 L369 737 L312 835 Z " />
<glyph glyph-name="uni2C72" unicode="&#x2c72;" horiz-adv-x="550" d="M640 700 Q659 700 672 687.5 Q685 675 685 656 Q685 650 684 647 L662 647 Q664 660 657 669 Q650 678 637 678 L595 678 L392 0 L380 0 L342 527 L117 0 L105 0 L143 700 L165 700 L131 84 L347 589 L359 589 L396 84 L578 700 L640 700 Z " />
<glyph glyph-name="X" unicode="X" horiz-adv-x="360" d="M239 332 L44 0 L21 0 L226 349 L138 700 L162 700 L245 366 L445 700 L469 700 L259 349 L340 0 L317 0 L239 332 Z " />
<glyph glyph-name="Y" unicode="Y" horiz-adv-x="346" d="M221 274 L437 700 L460 700 L226 237 L184 0 L162 0 L204 237 L132 700 L155 700 L221 274 Z " />
<glyph glyph-name="Yacute" unicode="&#xdd;" horiz-adv-x="346" d="M221 274 L437 700 L460 700 L226 237 L184 0 L162 0 L204 237 L132 700 L155 700 L221 274 Z M404 835 L313 737 L293 737 L373 835 L404 835 Z " />
<glyph glyph-name="Ycircumflex" unicode="&#x176;" horiz-adv-x="346" d="M221 274 L437 700 L460 700 L226 237 L184 0 L162 0 L204 237 L132 700 L155 700 L221 274 Z M307 835 L334 835 L384 737 L364 737 L317 814 L242 737 L222 737 L307 835 Z " />
<glyph glyph-name="Ydieresis" unicode="&#x178;" horiz-adv-x="346" d="M221 274 L437 700 L460 700 L226 237 L184 0 L162 0 L204 237 L132 700 L155 700 L221 274 Z M271 763 Q273 774 266.5 781.5 Q260 789 249 789 Q238 789 229 781.5 Q220 774 219 763 Q217 753 223 745 Q229 737 240 737 Q251 737 260 744.5 Q269 752 271 763 Z M405 763 Q407 774 400.5 781.5 Q394 789 383 789 Q372 789 363 781.5 Q354 774 353 763 Q351 753 357 745 Q363 737 374 737 Q385 737 394 744.5 Q403 752 405 763 Z " />
<glyph glyph-name="uni1EF4" unicode="&#x1ef4;" horiz-adv-x="346" d="M221 274 L437 700 L460 700 L226 237 L184 0 L162 0 L204 237 L132 700 L155 700 L221 274 Z M188 -60 Q188 -51 182 -45.5 Q176 -40 166 -40 Q155 -40 146 -47.5 Q137 -55 135 -66 Q133 -77 140 -84.5 Q147 -92 157 -92 Q168 -92 176.5 -84.5 Q185 -77 187 -66 L188 -60 Z " />
<glyph glyph-name="Ygrave" unicode="&#x1ef2;" horiz-adv-x="346" d="M221 274 L437 700 L460 700 L226 237 L184 0 L162 0 L204 237 L132 700 L155 700 L221 274 Z M236 835 L267 835 L313 737 L293 737 L236 835 Z " />
<glyph glyph-name="uni01B3" unicode="&#x1b3;" horiz-adv-x="405" d="M495 700 Q514 700 527 687.5 Q540 675 540 656 Q540 650 539 647 L517 647 Q519 660 512 669 Q505 678 492 678 L450 678 L226 237 L184 0 L162 0 L204 237 L132 700 L155 700 L221 274 L437 700 L495 700 Z " />
<glyph glyph-name="uni1EF6" unicode="&#x1ef6;" horiz-adv-x="346" d="M221 274 L437 700 L460 700 L226 237 L184 0 L162 0 L204 237 L132 700 L155 700 L221 274 Z M293 737 Q294 741 294 749 Q294 773 277 789.5 Q260 806 235 806 L219 825 Q229 828 239 828 Q272 828 293 806.5 Q314 785 314 753 Q314 743 313 737 L293 737 Z " />
<glyph glyph-name="uni1EF8" unicode="&#x1ef8;" horiz-adv-x="346" d="M221 274 L437 700 L460 700 L226 237 L184 0 L162 0 L204 237 L132 700 L155 700 L221 274 Z M200 738 Q234 772 261 772 Q279 772 303 756 Q330 738 353 738 Q361 738 364 739 Q395 743 432 780 L417 793 Q384 760 357 760 Q340 760 318 774 Q287 794 265 794 L255 793 Q223 789 186 752 L200 738 Z " />
<glyph glyph-name="Z" unicode="Z" horiz-adv-x="318" d="M298 0 L302 22 L55 22 L420 700 L143 700 L140 678 L386 678 L20 0 L298 0 Z " />
<glyph glyph-name="Zacute" unicode="&#x179;" horiz-adv-x="318" d="M298 0 L302 22 L55 22 L420 700 L143 700 L140 678 L386 678 L20 0 L298 0 Z M390 835 L299 737 L279 737 L359 835 L390 835 Z " />
<glyph glyph-name="Zcaron" unicode="&#x17d;" horiz-adv-x="318" d="M298 0 L302 22 L55 22 L420 700 L143 700 L140 678 L386 678 L20 0 L298 0 Z M275 737 L224 835 L244 835 L292 758 L366 835 L386 835 L302 737 L275 737 Z " />
<glyph glyph-name="Zdotaccent" unicode="&#x17b;" horiz-adv-x="318" d="M298 0 L302 22 L55 22 L420 700 L143 700 L140 678 L386 678 L20 0 L298 0 Z M319 763 Q321 774 314.5 781.5 Q308 789 297 789 Q286 789 277 781.5 Q268 774 267 763 Q265 753 271 745 Q277 737 288 737 Q299 737 308 744.5 Q317 752 319 763 Z " />
<glyph glyph-name="uni1E92" unicode="&#x1e92;" horiz-adv-x="318" d="M298 0 L302 22 L55 22 L420 700 L143 700 L140 678 L386 678 L20 0 L298 0 Z M173 -60 Q173 -51 167 -45.5 Q161 -40 151 -40 Q140 -40 131 -47.5 Q122 -55 120 -66 Q118 -77 125 -84.5 Q132 -92 142 -92 Q153 -92 161.5 -84.5 Q170 -77 172 -66 L173 -60 Z " />
<glyph glyph-name="uni0299" unicode="&#x299;" horiz-adv-x="351" d="M179 0 Q243 0 281 31 Q328 65 342 141 L346 164 Q350 183 350 203 Q350 249 326 277 Q309 294 284 303 Q301 310 316 322 Q364 359 377 434 L381 458 Q384 478 384 494 Q384 542 359 568 Q330 600 268 600 L146 600 L40 0 L179 0 Z M113 288 L230 288 Q283 288 308 260 Q327 240 327 199 Q327 182 324 164 L320 141 Q299 22 183 22 L66 22 L113 288 Z M164 578 L264 578 Q362 578 362 491 Q362 476 359 458 L355 434 Q343 370 304 338 Q270 310 217 310 L117 310 L164 578 Z " />
<glyph glyph-name="uni0262" unicode="&#x262;" horiz-adv-x="346" d="M171 -9 Q233 -9 275 24 Q322 61 336 136 L367 311 L228 311 L224 289 L341 289 L314 136 Q302 72 263 40 Q229 13 175 13 Q121 13 97 40 Q77 61 77 102 Q77 118 80 136 L138 463 Q149 528 189 559 Q223 587 277 587 Q329 587 355 559 Q375 536 375 496 Q375 481 372 463 L368 443 L390 443 L394 463 Q397 483 397 500 Q397 549 372 575 Q341 609 280 609 Q219 609 176 575 Q128 536 116 463 L58 136 Q54 110 54 99 Q54 52 79 24 Q109 -9 171 -9 Z " />
<glyph glyph-name="uni029B" unicode="&#x29b;" horiz-adv-x="346" d="M397 609 Q401 631 419.5 646.5 Q438 662 460 662 L456 640 Q443 640 432 631 Q421 622 419 609 L390 443 L368 443 L372 463 Q375 481 375 496 Q375 536 355 559 Q329 587 277 587 Q223 587 189 559 Q149 528 138 463 L80 136 Q77 118 77 102 Q77 61 97 40 Q121 13 175 13 Q229 13 263 40 Q302 72 314 136 L341 289 L224 289 L228 311 L367 311 L336 136 Q322 61 275 24 Q233 -9 171 -9 Q109 -9 79 24 Q54 52 54 99 Q54 110 58 136 L116 463 Q128 536 176 575 Q219 609 280 609 Q341 609 372 575 Q384 561 387 552 L397 609 Z " />
<glyph glyph-name="uni029C" unicode="&#x29c;" horiz-adv-x="367" d="M406 600 L428 600 L322 0 L300 0 L353 298 L120 298 L67 0 L45 0 L151 600 L173 600 L123 320 L356 320 L406 600 Z " />
<glyph glyph-name="uni026A" unicode="&#x26a;" horiz-adv-x="122" d="M72 0 L178 600 L156 600 L50 0 L72 0 Z " />
<glyph glyph-name="uni029F" unicode="&#x29f;" horiz-adv-x="293" d="M275 0 L279 22 L66 22 L168 600 L146 600 L40 0 L275 0 Z " />
<glyph glyph-name="uni0274" unicode="&#x274;" horiz-adv-x="377" d="M438 600 L332 0 L320 0 L159 521 L67 0 L45 0 L151 600 L163 600 L324 79 L416 600 L438 600 Z " />
<glyph glyph-name="uni0276" unicode="&#x276;" horiz-adv-x="490" d="M355 578 L309 320 L458 320 L455 298 L306 298 L257 22 L470 22 L466 0 L231 0 L173 0 Q112 0 81 34 Q56 60 56 107 Q56 127 60 146 L114 454 Q128 529 175 566 Q218 600 279 600 L337 600 L572 600 L568 578 L355 578 Z M235 22 L333 578 L275 578 Q221 578 187 550 Q148 520 136 454 L82 146 Q79 128 79 112 Q79 71 99 50 Q124 22 177 22 L235 22 Z " />
<glyph glyph-name="uni0280" unicode="&#x280;" horiz-adv-x="343" d="M317 0 L294 0 L237 269 L226 269 L109 269 L62 0 L40 0 L146 600 L285 600 Q346 600 377 566 Q402 536 402 490 Q402 479 398 453 L391 414 Q377 339 330 302 Q299 278 260 272 L317 0 Z M230 291 Q284 291 318 318 Q357 350 369 414 L376 453 Q379 471 379 486 Q379 525 359 550 Q333 578 281 578 L164 578 L113 291 L230 291 Z " />
<glyph glyph-name="uni0281" unicode="&#x281;" horiz-adv-x="343" d="M270 328 Q306 322 330 298 Q354 271 354 223 Q354 206 351 186 L344 147 Q330 72 283 34 Q240 0 179 0 L40 0 L146 600 L168 600 L120 331 L237 331 L248 331 L400 600 L423 600 L270 328 Z M116 309 L66 22 L183 22 Q235 22 271 50 Q310 83 322 147 L329 186 Q332 204 332 219 Q332 259 312 282 Q287 309 233 309 L116 309 Z " />
<glyph glyph-name="uni028F" unicode="&#x28f;" horiz-adv-x="346" d="M212 224 L420 600 L443 600 L217 187 L184 0 L162 0 L195 187 L115 600 L138 600 L212 224 Z " />
<glyph glyph-name="a" unicode="a" horiz-adv-x="364" d="M321 0 L314 199 L121 199 L43 0 L20 0 L294 700 L316 700 L344 0 L321 0 Z M129 221 L313 221 L297 650 L129 221 Z " />
<glyph glyph-name="aacute" unicode="&#xe1;" horiz-adv-x="364" d="M321 0 L314 199 L121 199 L43 0 L20 0 L294 700 L316 700 L344 0 L321 0 Z M129 221 L313 221 L297 650 L129 221 Z M413 835 L322 737 L302 737 L382 835 L413 835 Z " />
<glyph glyph-name="abreve" unicode="&#x103;" horiz-adv-x="364" d="M321 0 L314 199 L121 199 L43 0 L20 0 L294 700 L316 700 L344 0 L321 0 Z M129 221 L313 221 L297 650 L129 221 Z M419 828 Q412 790 380.5 763.5 Q349 737 312 737 Q279 737 257.5 758.5 Q236 780 236 812 Q236 823 237 828 L259 828 Q258 824 258 816 Q258 792 274.5 775.5 Q291 759 316 759 Q344 759 368 779 Q392 799 397 828 L419 828 Z " />
<glyph glyph-name="uni1EAF" unicode="&#x1eaf;" horiz-adv-x="364" d="M321 0 L314 199 L121 199 L43 0 L20 0 L294 700 L316 700 L344 0 L321 0 Z M129 221 L313 221 L297 650 L129 221 Z M419 828 Q412 790 380.5 763.5 Q349 737 312 737 Q279 737 257.5 758.5 Q236 780 236 812 Q236 823 237 828 L259 828 Q258 824 258 816 Q258 792 274.5 775.5 Q291 759 316 759 Q344 759 368 779 Q392 799 397 828 L419 828 Z M434 954 L343 856 L323 856 L403 954 L434 954 Z " />
<glyph glyph-name="uni1EB7" unicode="&#x1eb7;" horiz-adv-x="364" d="M321 0 L314 199 L121 199 L43 0 L20 0 L294 700 L316 700 L344 0 L321 0 Z M129 221 L313 221 L297 650 L129 221 Z M419 828 Q412 790 380.5 763.5 Q349 737 312 737 Q279 737 257.5 758.5 Q236 780 236 812 Q236 823 237 828 L259 828 Q258 824 258 816 Q258 792 274.5 775.5 Q291 759 316 759 Q344 759 368 779 Q392 799 397 828 L419 828 Z M321 0 L314 199 L121 199 L43 0 L20 0 L294 700 L316 700 L344 0 L321 0 Z M129 221 L313 221 L297 650 L129 221 Z M419 828 Q412 790 380.5 763.5 Q349 737 312 737 Q279 737 257.5 758.5 Q236 780 236 812 Q236 823 237 828 L259 828 Q258 824 258 816 Q258 792 274.5 775.5 Q291 759 316 759 Q344 759 368 779 Q392 799 397 828 L419 828 Z M197 -60 Q197 -51 191 -45.5 Q185 -40 175 -40 Q164 -40 155 -47.5 Q146 -55 144 -66 Q142 -77 149 -84.5 Q156 -92 166 -92 Q177 -92 185.5 -84.5 Q194 -77 196 -66 L197 -60 Z " />
<glyph glyph-name="uni1EB1" unicode="&#x1eb1;" horiz-adv-x="364" d="M321 0 L314 199 L121 199 L43 0 L20 0 L294 700 L316 700 L344 0 L321 0 Z M129 221 L313 221 L297 650 L129 221 Z M259 828 Q258 824 258 816 Q258 792 274.5 775.5 Q291 759 316 759 Q344 759 368 779 Q392 799 397 828 L419 828 Q412 790 380.5 763.5 Q349 737 312 737 Q279 737 257.5 758.5 Q236 780 236 812 Q236 823 237 828 L259 828 Z M266 954 L297 954 L343 856 L323 856 L266 954 Z " />
<glyph glyph-name="uni1EB3" unicode="&#x1eb3;" horiz-adv-x="364" d="M321 0 L314 199 L121 199 L43 0 L20 0 L294 700 L316 700 L344 0 L321 0 Z M129 221 L313 221 L297 650 L129 221 Z M419 828 Q412 790 380.5 763.5 Q349 737 312 737 Q279 737 257.5 758.5 Q236 780 236 812 Q236 823 237 828 L259 828 Q258 824 258 816 Q258 792 274.5 775.5 Q291 759 316 759 Q344 759 368 779 Q392 799 397 828 L419 828 Z M323 856 Q324 860 324 868 Q324 892 307 908.5 Q290 925 265 925 L249 944 Q259 947 269 947 Q302 947 323 925.5 Q344 904 344 872 Q344 862 343 856 L323 856 Z " />
<glyph glyph-name="uni1EB5" unicode="&#x1eb5;" horiz-adv-x="364" d="M321 0 L314 199 L121 199 L43 0 L20 0 L294 700 L316 700 L344 0 L321 0 Z M129 221 L313 221 L297 650 L129 221 Z M419 828 Q412 790 380.5 763.5 Q349 737 312 737 Q279 737 257.5 758.5 Q236 780 236 812 Q236 823 237 828 L259 828 Q258 824 258 816 Q258 792 274.5 775.5 Q291 759 316 759 Q344 759 368 779 Q392 799 397 828 L419 828 Z M217 856 Q251 890 278 890 Q296 890 320 874 Q346 856 370 856 Q378 856 381 857 Q413 861 448 898 L434 911 Q401 878 374 878 Q357 878 335 892 Q304 912 282 912 L272 911 Q240 907 202 870 L217 856 Z " />
<glyph glyph-name="uni01CE" unicode="&#x1ce;" horiz-adv-x="364" d="M321 0 L314 199 L121 199 L43 0 L20 0 L294 700 L316 700 L344 0 L321 0 Z M129 221 L313 221 L297 650 L129 221 Z M299 737 L248 835 L268 835 L316 758 L390 835 L410 835 L326 737 L299 737 Z " />
<glyph glyph-name="acircumflex" unicode="&#xe2;" horiz-adv-x="364" d="M321 0 L314 199 L121 199 L43 0 L20 0 L294 700 L316 700 L344 0 L321 0 Z M129 221 L313 221 L297 650 L129 221 Z M316 835 L343 835 L393 737 L373 737 L326 814 L251 737 L231 737 L316 835 Z " />
<glyph glyph-name="uni1EA5" unicode="&#x1ea5;" horiz-adv-x="364" d="M321 0 L314 199 L121 199 L43 0 L20 0 L294 700 L316 700 L344 0 L321 0 Z M129 221 L313 221 L297 650 L129 221 Z M316 835 L343 835 L393 737 L373 737 L326 814 L251 737 L231 737 L316 835 Z M501 935 L410 837 L390 837 L470 935 L501 935 Z " />
<glyph glyph-name="uni1EAD" unicode="&#x1ead;" horiz-adv-x="364" d="M321 0 L314 199 L121 199 L43 0 L20 0 L294 700 L316 700 L344 0 L321 0 Z M129 221 L313 221 L297 650 L129 221 Z M316 835 L343 835 L393 737 L373 737 L326 814 L251 737 L231 737 L316 835 Z M197 -60 Q197 -51 191 -45.5 Q185 -40 175 -40 Q164 -40 155 -47.5 Q146 -55 144 -66 Q142 -77 149 -84.5 Q156 -92 166 -92 Q177 -92 185.5 -84.5 Q194 -77 196 -66 L197 -60 Z " />
<glyph glyph-name="uni1EA7" unicode="&#x1ea7;" horiz-adv-x="364" d="M321 0 L314 199 L121 199 L43 0 L20 0 L294 700 L316 700 L344 0 L321 0 Z M129 221 L313 221 L297 650 L129 221 Z M316 835 L343 835 L393 737 L373 737 L326 814 L251 737 L231 737 L316 835 Z M333 935 L364 935 L410 837 L390 837 L333 935 Z " />
<glyph glyph-name="uni1EA9" unicode="&#x1ea9;" horiz-adv-x="364" d="M321 0 L314 199 L121 199 L43 0 L20 0 L294 700 L316 700 L344 0 L321 0 Z M129 221 L313 221 L297 650 L129 221 Z M316 835 L343 835 L393 737 L373 737 L326 814 L251 737 L231 737 L316 835 Z M323 856 Q324 860 324 868 Q324 892 307 908.5 Q290 925 265 925 L249 944 Q259 947 269 947 Q302 947 323 925.5 Q344 904 344 872 Q344 862 343 856 L323 856 Z " />
<glyph glyph-name="uni1EAB" unicode="&#x1eab;" horiz-adv-x="364" d="M321 0 L314 199 L121 199 L43 0 L20 0 L294 700 L316 700 L344 0 L321 0 Z M129 221 L313 221 L297 650 L129 221 Z M316 835 L343 835 L393 737 L373 737 L326 814 L251 737 L231 737 L316 835 Z M229 856 Q263 890 290 890 Q308 890 332 874 Q358 856 382 856 Q390 856 393 857 Q425 861 460 898 L446 911 Q413 878 386 878 Q369 878 347 892 Q316 912 294 912 L284 911 Q252 907 214 870 L229 856 Z " />
<glyph glyph-name="adieresis" unicode="&#xe4;" horiz-adv-x="364" d="M321 0 L314 199 L121 199 L43 0 L20 0 L294 700 L316 700 L344 0 L321 0 Z M129 221 L313 221 L297 650 L129 221 Z M276 763 Q278 774 271.5 781.5 Q265 789 254 789 Q243 789 234 781.5 Q225 774 224 763 Q222 753 228 745 Q234 737 245 737 Q256 737 265 744.5 Q274 752 276 763 Z M410 763 Q412 774 405.5 781.5 Q399 789 388 789 Q377 789 368 781.5 Q359 774 358 763 Q356 753 362 745 Q368 737 379 737 Q390 737 399 744.5 Q408 752 410 763 Z " />
<glyph glyph-name="uni01DF" unicode="&#x1df;" horiz-adv-x="379" d="M321 0 L314 199 L121 199 L43 0 L20 0 L294 700 L316 700 L344 0 L321 0 Z M129 221 L313 221 L297 650 L129 221 Z M276 763 Q278 774 271.5 781.5 Q265 789 254 789 Q243 789 234 781.5 Q225 774 224 763 Q222 753 228 745 Q234 737 245 737 Q256 737 265 744.5 Q274 752 276 763 Z M410 763 Q412 774 405.5 781.5 Q399 789 388 789 Q377 789 368 781.5 Q359 774 358 763 Q356 753 362 745 Q368 737 379 737 Q390 737 399 744.5 Q408 752 410 763 Z M505 827 L509 849 L175 849 L171 827 L505 827 Z " />
<glyph glyph-name="uni1EA1" unicode="&#x1ea1;" horiz-adv-x="364" d="M321 0 L314 199 L121 199 L43 0 L20 0 L294 700 L316 700 L344 0 L321 0 Z M129 221 L313 221 L297 650 L129 221 Z M197 -60 Q197 -51 191 -45.5 Q185 -40 175 -40 Q164 -40 155 -47.5 Q146 -55 144 -66 Q142 -77 149 -84.5 Q156 -92 166 -92 Q177 -92 185.5 -84.5 Q194 -77 196 -66 L197 -60 Z " />
<glyph glyph-name="agrave" unicode="&#xe0;" horiz-adv-x="364" d="M321 0 L314 199 L121 199 L43 0 L20 0 L294 700 L316 700 L344 0 L321 0 Z M129 221 L313 221 L297 650 L129 221 Z M245 835 L276 835 L322 737 L302 737 L245 835 Z " />
<glyph glyph-name="uni1EA3" unicode="&#x1ea3;" horiz-adv-x="364" d="M321 0 L314 199 L121 199 L43 0 L20 0 L294 700 L316 700 L344 0 L321 0 Z M129 221 L313 221 L297 650 L129 221 Z M302 737 Q303 741 303 749 Q303 773 286 789.5 Q269 806 244 806 L228 825 Q238 828 248 828 Q281 828 302 806.5 Q323 785 323 753 Q323 743 322 737 L302 737 Z " />
<glyph glyph-name="amacron" unicode="&#x101;" horiz-adv-x="374" d="M326 0 L319 199 L126 199 L48 0 L25 0 L299 700 L321 700 L349 0 L326 0 Z M134 221 L318 221 L302 650 L134 221 Z M484 737 L488 759 L154 759 L150 737 L484 737 Z " />
<glyph glyph-name="aogonek" unicode="&#x105;" horiz-adv-x="364" d="M274 -60 Q271 -81 314 -81 L323 -81 L319 -104 L300 -104 Q271 -104 253 -97 Q235 -90 239 -69 Q244 -34 320 0 L321 0 L314 199 L121 199 L43 0 L20 0 L294 700 L316 700 L344 0 Q310 -18 293.5 -32 Q277 -46 274 -60 Z M129 221 L313 221 L297 650 L129 221 Z " />
<glyph glyph-name="aring" unicode="&#xe5;" horiz-adv-x="364" d="M321 0 L314 199 L121 199 L43 0 L20 0 L294 700 L316 700 L344 0 L321 0 Z M129 221 L313 221 L297 650 L129 221 Z M312 737 Q334 737 352 752.5 Q370 768 374 790 Q375 794 375 800 Q375 819 362.5 831 Q350 843 331 843 Q309 843 290.5 827.5 Q272 812 268 790 Q267 787 267 781 Q267 762 280 749.5 Q293 737 312 737 Z M327 821 Q340 821 347 812 Q354 803 352 790 Q350 777 339.5 768 Q329 759 316 759 Q303 759 295.5 768 Q288 777 290 790 Q292 803 303 812 Q314 821 327 821 Z " />
<glyph glyph-name="atilde" unicode="&#xe3;" horiz-adv-x="364" d="M321 0 L314 199 L121 199 L43 0 L20 0 L294 700 L316 700 L344 0 L321 0 Z M129 221 L313 221 L297 650 L129 221 Z M206 738 Q240 772 267 772 Q285 772 309 756 Q336 738 359 738 Q367 738 370 739 Q401 743 438 780 L423 793 Q390 760 363 760 Q346 760 324 774 Q293 794 271 794 L261 793 Q229 789 192 752 L206 738 Z " />
<glyph glyph-name="uni0250" unicode="&#x250;" horiz-adv-x="364" d="M444 700 L467 700 L193 0 L171 0 L143 700 L166 700 L174 501 L367 501 L444 700 Z M174 479 L191 50 L358 479 L174 479 Z " />
<glyph glyph-name="ae" unicode="&#xe6;" horiz-adv-x="518" d="M364 700 L401 700 L617 700 L614 678 L401 678 L346 370 L495 370 L491 348 L342 348 L285 22 L498 22 L494 0 L259 0 L287 161 L122 161 L43 0 L20 0 L364 700 Z M291 183 L378 676 L133 183 L291 183 Z " />
<glyph glyph-name="b" unicode="b" horiz-adv-x="351" d="M179 0 Q243 0 281 31 Q328 65 342 141 L355 214 Q359 233 359 253 Q359 299 335 327 Q318 344 293 353 Q310 360 325 372 Q373 410 385 484 L398 558 Q402 577 402 596 Q402 643 377 668 Q347 700 285 700 L163 700 L40 0 L179 0 Z M122 338 L239 338 Q292 338 317 310 Q336 290 336 249 Q336 232 333 214 L320 141 Q299 22 183 22 L66 22 L122 338 Z M182 678 L282 678 Q379 678 379 592 Q379 576 376 558 L363 484 Q353 420 312 388 Q280 360 225 360 L125 360 L182 678 Z " />
<glyph glyph-name="uni1E05" unicode="&#x1e05;" horiz-adv-x="351" d="M179 0 Q243 0 281 31 Q328 65 342 141 L355 214 Q359 233 359 253 Q359 299 335 327 Q318 344 293 353 Q310 360 325 372 Q373 410 385 484 L398 558 Q402 577 402 596 Q402 643 377 668 Q347 700 285 700 L163 700 L40 0 L179 0 Z M122 338 L239 338 Q292 338 317 310 Q336 290 336 249 Q336 232 333 214 L320 141 Q299 22 183 22 L66 22 L122 338 Z M182 678 L282 678 Q379 678 379 592 Q379 576 376 558 L363 484 Q353 420 312 388 Q280 360 225 360 L125 360 L182 678 Z M195 -60 Q195 -51 189 -45.5 Q183 -40 173 -40 Q162 -40 153 -47.5 Q144 -55 142 -66 Q140 -77 147 -84.5 Q154 -92 164 -92 Q175 -92 183.5 -84.5 Q192 -77 194 -66 L195 -60 Z " />
<glyph glyph-name="uni0253" unicode="&#x253;" horiz-adv-x="386" d="M370 327 Q394 299 394 253 Q394 233 390 214 L377 141 Q363 65 316 31 Q278 0 214 0 L75 0 L195 678 L153 678 Q140 678 129 669 Q118 660 116 647 L94 647 Q98 669 116 684.5 Q134 700 156 700 L320 700 Q382 700 412 668 Q437 643 437 596 Q437 577 433 558 L420 484 Q408 410 360 372 Q345 360 328 353 Q353 344 370 327 Z M160 360 L260 360 Q315 360 347 388 Q388 420 398 484 L411 558 Q414 576 414 592 Q414 678 317 678 L217 678 L160 360 Z M368 214 Q371 232 371 249 Q371 290 352 310 Q327 338 274 338 L157 338 L101 22 L218 22 Q334 22 355 141 L368 214 Z " />
<glyph glyph-name="uni0180" unicode="&#x180;" horiz-adv-x="381" d="M364 327 Q389 299 389 254 Q389 234 385 215 L372 141 Q360 68 312 31 Q270 0 209 0 L70 0 L100 169 L30 169 L34 191 L104 191 L193 700 L314 700 Q375 700 407 668 Q432 643 432 596 Q432 577 428 558 L415 484 Q403 411 355 372 Q340 360 323 353 Q349 344 364 327 Z M155 360 L255 360 Q307 360 343 388 Q383 420 393 484 L406 558 Q409 576 409 592 Q409 678 311 678 L212 678 L155 360 Z M363 215 Q366 233 366 249 Q366 290 346 311 Q322 338 268 338 L152 338 L126 191 L197 191 L193 169 L122 169 L96 22 L212 22 Q329 22 350 141 L363 215 Z " />
<glyph glyph-name="c" unicode="c" horiz-adv-x="343" d="M170 -9 Q234 -9 274 25 Q323 63 335 137 L353 240 L331 240 L313 137 Q303 73 262 41 Q228 13 174 13 Q122 13 97 41 Q77 62 77 103 Q77 119 80 137 L155 563 Q167 629 206 659 Q240 687 293 687 Q346 687 371 659 Q391 638 391 597 Q391 581 388 563 L376 493 L398 493 L410 563 Q414 582 414 602 Q414 649 389 675 Q360 709 297 709 Q236 709 194 675 Q147 638 133 563 L58 137 Q55 116 55 99 Q55 50 79 25 Q110 -9 170 -9 Z " />
<glyph glyph-name="cacute" unicode="&#x107;" horiz-adv-x="343" d="M170 -9 Q234 -9 274 25 Q323 63 335 137 L353 240 L331 240 L313 137 Q303 73 262 41 Q228 13 174 13 Q122 13 97 41 Q77 62 77 103 Q77 119 80 137 L155 563 Q167 629 206 659 Q240 687 293 687 Q346 687 371 659 Q391 638 391 597 Q391 581 388 563 L376 493 L398 493 L410 563 Q414 582 414 602 Q414 649 389 675 Q360 709 297 709 Q236 709 194 675 Q147 638 133 563 L58 137 Q55 116 55 99 Q55 50 79 25 Q110 -9 170 -9 Z M404 835 L313 737 L293 737 L373 835 L404 835 Z " />
<glyph glyph-name="ccaron" unicode="&#x10d;" horiz-adv-x="343" d="M170 -9 Q234 -9 274 25 Q323 63 335 137 L353 240 L331 240 L313 137 Q303 73 262 41 Q228 13 174 13 Q122 13 97 41 Q77 62 77 103 Q77 119 80 137 L155 563 Q167 629 206 659 Q240 687 293 687 Q346 687 371 659 Q391 638 391 597 Q391 581 388 563 L376 493 L398 493 L410 563 Q414 582 414 602 Q414 649 389 675 Q360 709 297 709 Q236 709 194 675 Q147 638 133 563 L58 137 Q55 116 55 99 Q55 50 79 25 Q110 -9 170 -9 Z M290 737 L239 835 L259 835 L307 758 L381 835 L401 835 L317 737 L290 737 Z " />
<glyph glyph-name="ccedilla" unicode="&#xe7;" horiz-adv-x="343" d="M376 492 L388 563 Q391 581 391 597 Q391 638 371 659 Q346 687 293 687 Q240 687 206 659 Q167 629 155 563 L80 136 Q77 118 77 102 Q77 61 97 40 Q122 12 174 12 Q228 12 262 40 Q301 70 313 136 L331 239 L353 239 L335 136 Q321 61 274 24 Q238 -6 181 -9 Q181 -10 182 -15.5 Q183 -21 189 -26 Q189 -26 191 -28 Q213 -45 213 -67 L212 -76 Q207 -98 189 -113.5 Q171 -129 149 -129 Q130 -129 117.5 -117 Q105 -105 105 -87 Q105 -80 106 -76 L128 -76 Q126 -89 133 -98 Q140 -107 153 -107 Q166 -107 177 -98 Q188 -89 190 -76 Q191 -65 187.5 -59 Q184 -53 175 -45 L173 -44 Q157 -30 159 -9 Q106 -6 79 24 Q54 52 54 99 Q54 110 58 136 L133 563 Q147 637 194 675 Q236 709 297 709 Q360 709 389 675 Q414 649 414 602 Q414 582 410 563 L398 492 L376 492 Z " />
<glyph glyph-name="cdotaccent" unicode="&#x10b;" horiz-adv-x="343" d="M170 -9 Q234 -9 274 25 Q323 63 335 137 L353 240 L331 240 L313 137 Q303 73 262 41 Q228 13 174 13 Q122 13 97 41 Q77 62 77 103 Q77 119 80 137 L155 563 Q167 629 206 659 Q240 687 293 687 Q346 687 371 659 Q391 638 391 597 Q391 581 388 563 L376 493 L398 493 L410 563 Q414 582 414 602 Q414 649 389 675 Q360 709 297 709 Q236 709 194 675 Q147 638 133 563 L58 137 Q55 116 55 99 Q55 50 79 25 Q110 -9 170 -9 Z M333 763 Q335 774 328.5 781.5 Q322 789 311 789 Q300 789 291 781.5 Q282 774 281 763 Q279 753 285 745 Q291 737 302 737 Q313 737 322 744.5 Q331 752 333 763 Z " />
<glyph glyph-name="uni0188" unicode="&#x188;" horiz-adv-x="343" d="M414 709 Q418 731 436 746.5 Q454 762 476 762 L472 740 Q459 740 448.5 731 Q438 722 436 709 L398 493 L376 493 L388 563 Q391 581 391 597 Q391 638 371 659 Q346 687 293 687 Q240 687 206 659 Q167 629 155 563 L80 137 Q77 119 77 103 Q77 62 97 41 Q122 13 174 13 Q228 13 262 41 Q303 73 313 137 L331 240 L353 240 L335 137 Q323 63 274 25 Q234 -9 170 -9 Q110 -9 79 25 Q55 50 55 99 Q55 116 58 137 L133 563 Q147 638 194 675 Q236 709 297 709 Q360 709 389 675 Q401 661 404 652 L414 709 Z " />
<glyph glyph-name="d" unicode="d" horiz-adv-x="353" d="M178 0 Q241 0 281 31 Q328 66 342 141 L415 555 Q419 581 419 592 Q419 639 394 667 Q363 700 301 700 L163 700 L40 0 L178 0 Z M182 678 L298 678 Q352 678 376 651 Q396 630 396 589 Q396 573 393 555 L320 141 Q299 22 182 22 L66 22 L182 678 Z " />
<glyph glyph-name="eth" unicode="&#xf0;" horiz-adv-x="358" d="M398 666 Q423 640 423 591 Q423 574 420 554 L347 141 Q333 66 286 31 Q246 0 183 0 L45 0 L105 338 L65 338 L68 360 L108 360 L168 700 L306 700 Q369 700 398 666 Z M398 554 Q401 572 401 588 Q401 629 381 650 Q356 678 303 678 L187 678 L130 360 L210 360 L207 338 L127 338 L71 22 L187 22 Q304 22 325 141 L398 554 Z " />
<glyph glyph-name="dcaron" unicode="&#x10f;" horiz-adv-x="353" d="M178 0 Q241 0 281 31 Q328 66 342 141 L415 555 Q419 581 419 592 Q419 639 394 667 Q363 700 301 700 L163 700 L40 0 L178 0 Z M182 678 L298 678 Q352 678 376 651 Q396 630 396 589 Q396 573 393 555 L320 141 Q299 22 182 22 L66 22 L182 678 Z M295 737 L244 835 L264 835 L312 758 L386 835 L406 835 L322 737 L295 737 Z " />
<glyph glyph-name="uni1E13" unicode="&#x1e13;" horiz-adv-x="353" d="M178 0 Q241 0 281 31 Q328 66 342 141 L415 555 Q419 581 419 592 Q419 639 394 667 Q363 700 301 700 L163 700 L40 0 L178 0 Z M182 678 L298 678 Q352 678 376 651 Q396 630 396 589 Q396 573 393 555 L320 141 Q299 22 182 22 L66 22 L182 678 Z M158 -40 L185 -40 L235 -138 L215 -138 L167 -61 L93 -138 L73 -138 L158 -40 Z " />
<glyph glyph-name="dslash" unicode="&#x111;" horiz-adv-x="358" d="M398 666 Q423 640 423 591 Q423 574 420 554 L347 141 Q333 66 286 31 Q246 0 183 0 L45 0 L105 338 L65 338 L68 360 L108 360 L168 700 L306 700 Q369 700 398 666 Z M398 554 Q401 572 401 588 Q401 629 381 650 Q356 678 303 678 L187 678 L130 360 L210 360 L207 338 L127 338 L71 22 L187 22 Q304 22 325 141 L398 554 Z " />
<glyph glyph-name="uni1E0D" unicode="&#x1e0d;" horiz-adv-x="353" d="M178 0 Q241 0 281 31 Q328 66 342 141 L415 555 Q419 581 419 592 Q419 639 394 667 Q363 700 301 700 L163 700 L40 0 L178 0 Z M182 678 L298 678 Q352 678 376 651 Q396 630 396 589 Q396 573 393 555 L320 141 Q299 22 182 22 L66 22 L182 678 Z M193 -60 Q193 -51 187 -45.5 Q181 -40 171 -40 Q160 -40 151 -47.5 Q142 -55 140 -66 Q138 -77 145 -84.5 Q152 -92 162 -92 Q173 -92 181.5 -84.5 Q190 -77 192 -66 L193 -60 Z " />
<glyph glyph-name="uni0257" unicode="&#x257;" horiz-adv-x="388" d="M429 667 Q454 639 454 592 Q454 581 450 555 L377 141 Q363 66 316 31 Q276 0 213 0 L75 0 L195 678 L153 678 Q140 678 129 669 Q118 660 116 647 L94 647 Q98 669 116 684.5 Q134 700 156 700 L336 700 Q398 700 429 667 Z M428 555 Q431 573 431 589 Q431 630 411 651 Q387 678 333 678 L217 678 L101 22 L217 22 Q334 22 355 141 L428 555 Z " />
<glyph glyph-name="uni1E0F" unicode="&#x1e0f;" horiz-adv-x="353" d="M178 0 Q241 0 281 31 Q328 66 342 141 L415 555 Q419 581 419 592 Q419 639 394 667 Q363 700 301 700 L163 700 L40 0 L178 0 Z M182 678 L298 678 Q352 678 376 651 Q396 630 396 589 Q396 573 393 555 L320 141 Q299 22 182 22 L66 22 L182 678 Z M335 -62 L339 -40 L5 -40 L1 -62 L335 -62 Z " />
<glyph glyph-name="e" unicode="e" horiz-adv-x="299" d="M395 678 L182 678 L127 370 L276 370 L272 348 L123 348 L66 22 L279 22 L275 0 L40 0 L163 700 L398 700 L395 678 Z " />
<glyph glyph-name="eacute" unicode="&#xe9;" horiz-adv-x="299" d="M395 678 L182 678 L127 370 L276 370 L272 348 L123 348 L66 22 L279 22 L275 0 L40 0 L163 700 L398 700 L395 678 Z M389 835 L298 737 L278 737 L358 835 L389 835 Z " />
<glyph glyph-name="ecaron" unicode="&#x11b;" horiz-adv-x="299" d="M275 737 L224 835 L244 835 L292 758 L366 835 L386 835 L302 737 L275 737 Z M395 678 L182 678 L127 370 L276 370 L272 348 L123 348 L66 22 L279 22 L275 0 L40 0 L163 700 L398 700 L395 678 Z " />
<glyph glyph-name="uni0229" unicode="&#x229;" horiz-adv-x="299" d="M182 678 L127 370 L276 370 L272 348 L123 348 L66 22 L279 22 L275 0 L168 0 Q168 -10 176 -17 Q176 -17 178 -19 Q187 -27 193 -35.5 Q199 -44 199 -57 Q199 -63 198 -67 Q194 -89 176 -104.5 Q158 -120 136 -120 Q116 -120 103.5 -107.5 Q91 -95 91 -76 Q91 -70 92 -67 L114 -67 Q112 -80 119.5 -89 Q127 -98 140 -98 Q153 -98 163.5 -89 Q174 -80 176 -67 L177 -61 Q177 -54 174 -49.5 Q171 -45 167 -41 Q163 -37 162 -36 L160 -35 Q144 -22 146 0 L40 0 L163 700 L398 700 L395 678 L182 678 Z " />
<glyph glyph-name="ecircumflex" unicode="&#xea;" horiz-adv-x="299" d="M395 678 L182 678 L127 370 L276 370 L272 348 L123 348 L66 22 L279 22 L275 0 L40 0 L163 700 L398 700 L395 678 Z M292 835 L319 835 L369 737 L349 737 L302 814 L227 737 L207 737 L292 835 Z " />
<glyph glyph-name="uni1EBF" unicode="&#x1ebf;" horiz-adv-x="299" d="M395 678 L182 678 L127 370 L276 370 L272 348 L123 348 L66 22 L279 22 L275 0 L40 0 L163 700 L398 700 L395 678 Z M292 835 L319 835 L369 737 L349 737 L302 814 L227 737 L207 737 L292 835 Z M477 935 L386 837 L366 837 L446 935 L477 935 Z " />
<glyph glyph-name="uni1EC7" unicode="&#x1ec7;" horiz-adv-x="299" d="M395 678 L182 678 L127 370 L276 370 L272 348 L123 348 L66 22 L279 22 L275 0 L40 0 L163 700 L398 700 L395 678 Z M292 835 L319 835 L369 737 L349 737 L302 814 L227 737 L207 737 L292 835 Z M173 -60 Q173 -51 167 -45.5 Q161 -40 151 -40 Q140 -40 131 -47.5 Q122 -55 120 -66 Q118 -77 125 -84.5 Q132 -92 142 -92 Q153 -92 161.5 -84.5 Q170 -77 172 -66 L173 -60 Z " />
<glyph glyph-name="uni1EC1" unicode="&#x1ec1;" horiz-adv-x="299" d="M395 678 L182 678 L127 370 L276 370 L272 348 L123 348 L66 22 L279 22 L275 0 L40 0 L163 700 L398 700 L395 678 Z M292 835 L319 835 L369 737 L349 737 L302 814 L227 737 L207 737 L292 835 Z M309 935 L340 935 L386 837 L366 837 L309 935 Z " />
<glyph glyph-name="uni1EC3" unicode="&#x1ec3;" horiz-adv-x="299" d="M395 678 L182 678 L127 370 L276 370 L272 348 L123 348 L66 22 L279 22 L275 0 L40 0 L163 700 L398 700 L395 678 Z M292 835 L319 835 L369 737 L349 737 L302 814 L227 737 L207 737 L292 835 Z M299 856 Q300 860 300 868 Q300 892 283 908.5 Q266 925 241 925 L225 944 Q235 947 245 947 Q278 947 299 925.5 Q320 904 320 872 Q320 862 319 856 L299 856 Z " />
<glyph glyph-name="uni1EC5" unicode="&#x1ec5;" horiz-adv-x="299" d="M395 678 L182 678 L127 370 L276 370 L272 348 L123 348 L66 22 L279 22 L275 0 L40 0 L163 700 L398 700 L395 678 Z M292 835 L319 835 L369 737 L349 737 L302 814 L227 737 L207 737 L292 835 Z M205 856 Q239 890 266 890 Q284 890 308 874 Q334 856 358 856 Q366 856 369 857 Q401 861 436 898 L422 911 Q389 878 362 878 Q345 878 323 892 Q292 912 270 912 L260 911 Q228 907 190 870 L205 856 Z " />
<glyph glyph-name="edieresis" unicode="&#xeb;" horiz-adv-x="299" d="M395 678 L182 678 L127 370 L276 370 L272 348 L123 348 L66 22 L279 22 L275 0 L40 0 L163 700 L398 700 L395 678 Z M252 763 Q254 774 247.5 781.5 Q241 789 230 789 Q219 789 210 781.5 Q201 774 200 763 Q198 753 204 745 Q210 737 221 737 Q232 737 241 744.5 Q250 752 252 763 Z M386 763 Q388 774 381.5 781.5 Q375 789 364 789 Q353 789 344 781.5 Q335 774 334 763 Q332 753 338 745 Q344 737 355 737 Q366 737 375 744.5 Q384 752 386 763 Z " />
<glyph glyph-name="edotaccent" unicode="&#x117;" horiz-adv-x="299" d="M395 678 L182 678 L127 370 L276 370 L272 348 L123 348 L66 22 L279 22 L275 0 L40 0 L163 700 L398 700 L395 678 Z M319 763 Q321 774 314.5 781.5 Q308 789 297 789 Q286 789 277 781.5 Q268 774 267 763 Q265 753 271 745 Q277 737 288 737 Q299 737 308 744.5 Q317 752 319 763 Z " />
<glyph glyph-name="uni1EB9" unicode="&#x1eb9;" horiz-adv-x="299" d="M395 678 L182 678 L127 370 L276 370 L272 348 L123 348 L66 22 L279 22 L275 0 L40 0 L163 700 L398 700 L395 678 Z M173 -60 Q173 -51 167 -45.5 Q161 -40 151 -40 Q140 -40 131 -47.5 Q122 -55 120 -66 Q118 -77 125 -84.5 Q132 -92 142 -92 Q153 -92 161.5 -84.5 Q170 -77 172 -66 L173 -60 Z " />
<glyph glyph-name="egrave" unicode="&#xe8;" horiz-adv-x="299" d="M395 678 L182 678 L127 370 L276 370 L272 348 L123 348 L66 22 L279 22 L275 0 L40 0 L163 700 L398 700 L395 678 Z M221 835 L252 835 L298 737 L278 737 L221 835 Z " />
<glyph glyph-name="uni1EBB" unicode="&#x1ebb;" horiz-adv-x="299" d="M395 678 L182 678 L127 370 L276 370 L272 348 L123 348 L66 22 L279 22 L275 0 L40 0 L163 700 L398 700 L395 678 Z M278 737 Q279 741 279 749 Q279 773 262 789.5 Q245 806 220 806 L204 825 Q215 828 224 828 Q257 828 278 806.5 Q299 785 299 753 Q299 743 298 737 L278 737 Z " />
<glyph glyph-name="emacron" unicode="&#x113;" horiz-adv-x="299" d="M395 678 L182 678 L127 370 L276 370 L272 348 L123 348 L66 22 L279 22 L275 0 L40 0 L163 700 L398 700 L395 678 Z M455 737 L459 759 L125 759 L121 737 L455 737 Z " />
<glyph glyph-name="eogonek" unicode="&#x119;" horiz-adv-x="299" d="M182 678 L127 370 L276 370 L272 348 L123 348 L66 22 L279 22 L275 0 Q241 -18 224.5 -32 Q208 -46 205 -60 Q202 -81 245 -81 L254 -81 L250 -104 L231 -104 Q202 -104 184 -97 Q166 -90 170 -69 Q175 -34 251 0 L40 0 L163 700 L398 700 L395 678 L182 678 Z " />
<glyph glyph-name="uni0258" unicode="&#x258;" horiz-adv-x="299" d="M144 678 L147 700 L382 700 L259 0 L24 0 L28 22 L241 22 L298 348 L149 348 L153 370 L302 370 L357 678 L144 678 Z " />
<glyph glyph-name="uni1EBD" unicode="&#x1ebd;" horiz-adv-x="299" d="M395 678 L182 678 L127 370 L276 370 L272 348 L123 348 L66 22 L279 22 L275 0 L40 0 L163 700 L398 700 L395 678 Z M184 737 Q218 771 245 771 Q263 771 287 755 Q313 737 337 737 Q345 737 348 738 Q380 742 415 779 L401 792 Q368 759 341 759 Q324 759 302 773 Q271 793 249 793 L239 792 Q207 788 169 751 L184 737 Z " />
<glyph glyph-name="uni01DD" unicode="&#x1dd;" horiz-adv-x="299" d="M144 678 L147 700 L382 700 L259 0 L24 0 L28 22 L241 22 L298 348 L149 348 L153 370 L302 370 L357 678 L144 678 Z " />
<glyph glyph-name="f" unicode="f" horiz-adv-x="292" d="M395 678 L182 678 L127 369 L276 369 L272 347 L123 347 L62 0 L40 0 L163 700 L398 700 L395 678 Z " />
<glyph glyph-name="g" unicode="g" horiz-adv-x="346" d="M171 -9 Q233 -9 275 24 Q322 61 336 136 L376 361 L237 361 L233 339 L350 339 L314 136 Q302 72 263 40 Q229 13 175 13 Q121 13 97 40 Q77 61 77 102 Q77 118 80 136 L155 563 Q167 629 206 659 Q240 687 294 687 Q346 687 372 659 Q392 636 392 596 Q392 581 389 563 L377 493 L399 493 L411 563 Q415 582 415 602 Q415 649 390 675 Q359 709 298 709 Q237 709 194 675 Q147 637 133 563 L58 136 Q54 110 54 99 Q54 52 79 24 Q109 -9 171 -9 Z " />
<glyph glyph-name="gbreve" unicode="&#x11f;" horiz-adv-x="346" d="M171 -9 Q233 -9 275 24 Q322 61 336 136 L376 361 L237 361 L233 339 L350 339 L314 136 Q302 72 263 40 Q229 13 175 13 Q121 13 97 40 Q77 61 77 102 Q77 118 80 136 L155 563 Q167 629 206 659 Q240 687 294 687 Q346 687 372 659 Q392 636 392 596 Q392 581 389 563 L377 493 L399 493 L411 563 Q415 582 415 602 Q415 649 390 675 Q359 709 298 709 Q237 709 194 675 Q147 637 133 563 L58 136 Q54 110 54 99 Q54 52 79 24 Q109 -9 171 -9 Z M410 828 Q403 790 371.5 763.5 Q340 737 303 737 Q270 737 248.5 758.5 Q227 780 227 812 Q227 823 228 828 L250 828 Q249 824 249 816 Q249 792 265.5 775.5 Q282 759 307 759 Q335 759 359 779 Q383 799 388 828 L410 828 Z " />
<glyph glyph-name="gcaron" unicode="&#x1e7;" horiz-adv-x="346" d="M171 -9 Q233 -9 275 24 Q322 61 336 136 L376 361 L237 361 L233 339 L350 339 L314 136 Q302 72 263 40 Q229 13 175 13 Q121 13 97 40 Q77 61 77 102 Q77 118 80 136 L155 563 Q167 629 206 659 Q240 687 294 687 Q346 687 372 659 Q392 636 392 596 Q392 581 389 563 L377 493 L399 493 L411 563 Q415 582 415 602 Q415 649 390 675 Q359 709 298 709 Q237 709 194 675 Q147 637 133 563 L58 136 Q54 110 54 99 Q54 52 79 24 Q109 -9 171 -9 Z M289 737 L238 835 L258 835 L306 758 L380 835 L400 835 L316 737 L289 737 Z " />
<glyph glyph-name="gcommaaccent" unicode="&#x123;" horiz-adv-x="346" d="M171 -9 Q233 -9 275 24 Q322 61 336 136 L376 361 L237 361 L233 339 L350 339 L314 136 Q302 72 263 40 Q229 13 175 13 Q121 13 97 40 Q77 61 77 102 Q77 118 80 136 L155 563 Q167 629 206 659 Q240 687 294 687 Q346 687 372 659 Q392 636 392 596 Q392 581 389 563 L377 493 L399 493 L411 563 Q415 582 415 602 Q415 649 390 675 Q359 709 298 709 Q237 709 194 675 Q147 637 133 563 L58 136 Q54 110 54 99 Q54 52 79 24 Q109 -9 171 -9 Z M187 -66 Q185 -78 176 -90 Q170 -100 154 -118 L134 -118 L143 -104 Q149 -94 143 -88 Q133 -78 135 -66 Q137 -55 146.5 -47.5 Q156 -40 166 -40 Q177 -40 183 -48 Q189 -56 187 -66 Z " />
<glyph glyph-name="gdotaccent" unicode="&#x121;" horiz-adv-x="346" d="M171 -9 Q233 -9 275 24 Q322 61 336 136 L376 361 L237 361 L233 339 L350 339 L314 136 Q302 72 263 40 Q229 13 175 13 Q121 13 97 40 Q77 61 77 102 Q77 118 80 136 L155 563 Q167 629 206 659 Q240 687 294 687 Q346 687 372 659 Q392 636 392 596 Q392 581 389 563 L377 493 L399 493 L411 563 Q415 582 415 602 Q415 649 390 675 Q359 709 298 709 Q237 709 194 675 Q147 637 133 563 L58 136 Q54 110 54 99 Q54 52 79 24 Q109 -9 171 -9 Z M333 763 Q335 774 328.5 781.5 Q322 789 311 789 Q300 789 291 781.5 Q282 774 281 763 Q279 753 285 745 Q291 737 302 737 Q313 737 322 744.5 Q331 752 333 763 Z " />
<glyph glyph-name="uni0260" unicode="&#x260;" horiz-adv-x="346" d="M415 709 Q419 731 437 746.5 Q455 762 477 762 L473 740 Q460 740 449.5 731 Q439 722 437 709 L399 493 L377 493 L389 563 Q392 581 392 596 Q392 636 372 659 Q346 687 294 687 Q240 687 206 659 Q167 629 155 563 L80 136 Q77 118 77 102 Q77 61 97 40 Q121 13 175 13 Q229 13 263 40 Q302 72 314 136 L350 339 L233 339 L237 361 L376 361 L336 136 Q322 61 275 24 Q233 -9 171 -9 Q109 -9 79 24 Q54 52 54 99 Q54 110 58 136 L133 563 Q147 637 194 675 Q237 709 298 709 Q359 709 390 675 Q402 661 405 652 L415 709 Z " />
<glyph glyph-name="h" unicode="h" horiz-adv-x="367" d="M423 700 L445 700 L322 0 L300 0 L361 348 L128 348 L67 0 L45 0 L168 700 L190 700 L132 370 L365 370 L423 700 Z " />
<glyph glyph-name="hbar" unicode="&#x127;" horiz-adv-x="377" d="M463 547 L460 525 L420 525 L327 0 L305 0 L366 348 L133 348 L72 0 L50 0 L143 525 L103 525 L106 547 L146 547 L173 700 L195 700 L168 547 L401 547 L428 700 L450 700 L423 547 L463 547 Z M370 370 L398 525 L165 525 L137 370 L370 370 Z " />
<glyph glyph-name="uni1E25" unicode="&#x1e25;" horiz-adv-x="367" d="M423 700 L445 700 L322 0 L300 0 L361 348 L128 348 L67 0 L45 0 L168 700 L190 700 L132 370 L365 370 L423 700 Z M198 -66 Q196 -78 187 -90 Q181 -100 165 -118 L145 -118 L154 -104 Q160 -94 154 -88 Q144 -78 146 -66 Q148 -55 157.5 -47.5 Q167 -40 177 -40 Q188 -40 194 -48 Q200 -56 198 -66 Z " />
<glyph glyph-name="uni0266" unicode="&#x266;" horiz-adv-x="397" d="M475 700 L352 0 L330 0 L391 348 L158 348 L97 0 L75 0 L195 678 L153 678 Q140 678 129 669 Q118 660 116 647 L94 647 Q98 669 116 684.5 Q134 700 156 700 L220 700 L162 370 L395 370 L453 700 L475 700 Z " />
<glyph glyph-name="uni0265" unicode="&#x265;" horiz-adv-x="367" d="M423 700 L445 700 L322 0 L300 0 L361 348 L128 348 L67 0 L45 0 L168 700 L190 700 L132 370 L365 370 L423 700 Z " />
<glyph glyph-name="i" unicode="i" horiz-adv-x="122" d="M72 0 L195 700 L173 700 L50 0 L72 0 Z " />
<glyph glyph-name="dotlessi" unicode="&#x131;" horiz-adv-x="112" d="M67 0 L190 700 L168 700 L45 0 L67 0 Z " />
<glyph glyph-name="iacute" unicode="&#xed;" horiz-adv-x="122" d="M72 0 L195 700 L173 700 L50 0 L72 0 Z M292 835 L201 737 L181 737 L261 835 L292 835 Z " />
<glyph glyph-name="uni01D0" unicode="&#x1d0;" horiz-adv-x="122" d="M72 0 L195 700 L173 700 L50 0 L72 0 Z M178 737 L127 835 L147 835 L195 758 L269 835 L289 835 L205 737 L178 737 Z " />
<glyph glyph-name="icircumflex" unicode="&#xee;" horiz-adv-x="122" d="M72 0 L195 700 L173 700 L50 0 L72 0 Z M195 835 L222 835 L272 737 L252 737 L205 814 L130 737 L110 737 L195 835 Z " />
<glyph glyph-name="idieresis" unicode="&#xef;" horiz-adv-x="122" d="M72 0 L195 700 L173 700 L50 0 L72 0 Z M155 763 Q157 774 150.5 781.5 Q144 789 133 789 Q122 789 113 781.5 Q104 774 103 763 Q101 753 107 745 Q113 737 124 737 Q135 737 144 744.5 Q153 752 155 763 Z M289 763 Q291 774 284.5 781.5 Q278 789 267 789 Q256 789 247 781.5 Q238 774 237 763 Q235 753 241 745 Q247 737 258 737 Q269 737 278 744.5 Q287 752 289 763 Z " />
<glyph glyph-name="uni1E2F" unicode="&#x1e2f;" horiz-adv-x="122" d="M72 0 L195 700 L173 700 L50 0 L72 0 Z M155 763 Q157 774 150.5 781.5 Q144 789 133 789 Q122 789 113 781.5 Q104 774 103 763 Q101 753 107 745 Q113 737 124 737 Q135 737 144 744.5 Q153 752 155 763 Z M289 763 Q291 774 284.5 781.5 Q278 789 267 789 Q256 789 247 781.5 Q238 774 237 763 Q235 753 241 745 Q247 737 258 737 Q269 737 278 744.5 Q287 752 289 763 Z M308 925 L217 827 L197 827 L277 925 L308 925 Z " />
<glyph glyph-name="uni1ECB" unicode="&#x1ecb;" horiz-adv-x="122" d="M72 0 L195 700 L173 700 L50 0 L72 0 Z M76 -60 Q76 -51 70 -45.5 Q64 -40 54 -40 Q43 -40 34 -47.5 Q25 -55 23 -66 Q21 -77 28 -84.5 Q35 -92 45 -92 Q56 -92 64.5 -84.5 Q73 -77 75 -66 L76 -60 Z " />
<glyph glyph-name="igrave" unicode="&#xec;" horiz-adv-x="122" d="M72 0 L195 700 L173 700 L50 0 L72 0 Z M124 835 L155 835 L201 737 L181 737 L124 835 Z " />
<glyph glyph-name="uni1EC9" unicode="&#x1ec9;" horiz-adv-x="122" d="M72 0 L195 700 L173 700 L50 0 L72 0 Z M181 737 Q182 741 182 749 Q182 773 165 789.5 Q148 806 123 806 L107 825 Q117 828 127 828 Q160 828 181 806.5 Q202 785 202 753 Q202 743 201 737 L181 737 Z " />
<glyph glyph-name="imacron" unicode="&#x12b;" horiz-adv-x="122" d="M72 0 L195 700 L173 700 L50 0 L72 0 Z M358 737 L362 759 L28 759 L24 737 L358 737 Z " />
<glyph glyph-name="iogonek" unicode="&#x12f;" horiz-adv-x="122" d="M195 700 L72 0 Q38 -18 21.5 -32 Q5 -46 2 -60 Q-1 -81 42 -81 L51 -81 L47 -104 L28 -104 Q-1 -104 -19 -97 Q-37 -90 -33 -69 Q-28 -35 50 0 L173 700 L195 700 Z " />
<glyph glyph-name="uni0268" unicode="&#x268;" horiz-adv-x="132" d="M182 371 L179 349 L139 349 L77 0 L55 0 L117 349 L77 349 L80 371 L120 371 L178 700 L200 700 L142 371 L182 371 Z " />
<glyph glyph-name="itilde" unicode="&#x129;" horiz-adv-x="117" d="M72 0 L195 700 L173 700 L50 0 L72 0 Z M85 738 Q119 772 146 772 Q164 772 188 756 Q215 738 238 738 Q246 738 249 739 Q280 743 317 780 L302 793 Q269 760 242 760 Q225 760 203 774 Q172 794 150 794 L140 793 Q108 789 71 752 L85 738 Z " />
<glyph glyph-name="j" unicode="j" horiz-adv-x="342" d="M165 -9 Q227 -9 269 24 Q317 63 330 136 L429 700 L407 700 L308 136 Q297 73 257 40 Q223 13 169 13 Q117 13 91 40 Q71 63 71 104 Q71 120 74 136 L92 236 L70 236 L52 136 Q48 110 48 99 Q48 54 73 24 Q103 -9 165 -9 Z " />
<glyph glyph-name="k" unicode="k" horiz-adv-x="352" d="M457 700 L269 366 L334 0 L311 0 L251 335 L62 0 L40 0 L163 700 L185 700 L72 59 L433 700 L457 700 Z " />
<glyph glyph-name="kcommaaccent" unicode="&#x137;" horiz-adv-x="352" d="M456 700 L249 368 L334 0 L310 0 L231 341 L79 99 L62 0 L40 0 L163 700 L185 700 L89 152 L432 700 L456 700 Z M190 -66 Q188 -78 179 -90 Q173 -100 157 -118 L137 -118 L146 -104 Q152 -94 146 -88 Q136 -78 138 -66 Q140 -55 149.5 -47.5 Q159 -40 169 -40 Q180 -40 186 -48 Q192 -56 190 -66 Z " />
<glyph glyph-name="uni0199" unicode="&#x199;" horiz-adv-x="398" d="M488 700 Q507 700 520 687.5 Q533 675 533 656 Q533 650 532 647 L510 647 Q512 660 505 669 Q498 678 485 678 L443 678 L249 368 L334 0 L310 0 L231 341 L79 99 L62 0 L40 0 L163 700 L185 700 L89 152 L432 700 L488 700 Z " />
<glyph glyph-name="l" unicode="l" horiz-adv-x="293" d="M275 0 L279 22 L66 22 L185 700 L163 700 L40 0 L275 0 Z " />
<glyph glyph-name="lacute" unicode="&#x13a;" horiz-adv-x="293" d="M282 835 L191 737 L171 737 L251 835 L282 835 Z M275 0 L279 22 L66 22 L185 700 L163 700 L40 0 L275 0 Z " />
<glyph glyph-name="lcaron" unicode="&#x13e;" horiz-adv-x="293" d="M275 0 L279 22 L66 22 L185 700 L163 700 L40 0 L275 0 Z M358 674 Q357 666 347 650 L325 622 L305 622 Q307 625 308.5 628.5 Q310 632 313 636 Q319 646 314 652 Q304 660 306 674 Q307 684 316 692 Q325 700 336 700 Q346 700 353 692.5 Q360 685 358 674 Z " />
<glyph glyph-name="uni1E3D" unicode="&#x1e3d;" horiz-adv-x="293" d="M275 0 L279 22 L66 22 L185 700 L163 700 L40 0 L275 0 Z M138 -40 L165 -40 L215 -138 L195 -138 L147 -61 L73 -138 L53 -138 L138 -40 Z " />
<glyph glyph-name="lcommaaccent" unicode="&#x13c;" horiz-adv-x="293" d="M275 0 L279 22 L66 22 L185 700 L163 700 L40 0 L275 0 Z M172 -66 Q170 -78 161 -90 Q155 -100 139 -118 L119 -118 L128 -104 Q134 -94 128 -88 Q118 -78 120 -66 Q122 -55 131.5 -47.5 Q141 -40 151 -40 Q162 -40 168 -48 Q174 -56 172 -66 Z " />
<glyph glyph-name="uni1E37" unicode="&#x1e37;" horiz-adv-x="293" d="M275 0 L279 22 L66 22 L185 700 L163 700 L40 0 L275 0 Z M173 -60 Q173 -51 167 -45.5 Q161 -40 151 -40 Q140 -40 131 -47.5 Q122 -55 120 -66 Q118 -77 125 -84.5 Q132 -92 142 -92 Q153 -92 161.5 -84.5 Q170 -77 172 -66 L173 -60 Z " />
<glyph glyph-name="lslash" unicode="&#x142;" horiz-adv-x="293" d="M66 22 L279 22 L275 0 L40 0 L82 239 L7 171 L13 204 L88 271 L163 700 L185 700 L114 295 L273 438 L268 406 L108 262 L66 22 Z " />
<glyph glyph-name="m" unicode="m" horiz-adv-x="487" d="M271 155 L558 700 L570 700 L447 0 L425 0 L533 610 L269 110 L257 110 L170 610 L62 0 L40 0 L163 700 L175 700 L271 155 Z " />
<glyph glyph-name="uni1E3F" unicode="&#x1e3f;" horiz-adv-x="487" d="M271 155 L558 700 L570 700 L447 0 L425 0 L533 610 L269 110 L257 110 L170 610 L62 0 L40 0 L163 700 L175 700 L271 155 Z M475 835 L384 737 L364 737 L444 835 L475 835 Z " />
<glyph glyph-name="uni026F" unicode="&#x26f;" horiz-adv-x="487" d="M340 545 L52 0 L40 0 L163 700 L185 700 L78 90 L342 590 L354 590 L441 90 L548 700 L570 700 L447 0 L435 0 L340 545 Z " />
<glyph glyph-name="n" unicode="n" horiz-adv-x="377" d="M455 700 L332 0 L320 0 L176 621 L67 0 L45 0 L168 700 L180 700 L324 79 L433 700 L455 700 Z " />
<glyph glyph-name="nacute" unicode="&#x144;" horiz-adv-x="377" d="M455 700 L332 0 L320 0 L176 621 L67 0 L45 0 L168 700 L180 700 L324 79 L433 700 L455 700 Z M419 835 L328 737 L308 737 L388 835 L419 835 Z " />
<glyph glyph-name="ncaron" unicode="&#x148;" horiz-adv-x="377" d="M455 700 L332 0 L320 0 L176 621 L67 0 L45 0 L168 700 L180 700 L324 79 L433 700 L455 700 Z M305 737 L254 835 L274 835 L322 758 L396 835 L416 835 L332 737 L305 737 Z " />
<glyph glyph-name="uni1E4B" unicode="&#x1e4b;" horiz-adv-x="377" d="M455 700 L332 0 L320 0 L176 621 L67 0 L45 0 L168 700 L180 700 L324 79 L433 700 L455 700 Z M168 -40 L195 -40 L245 -138 L225 -138 L177 -61 L103 -138 L83 -138 L168 -40 Z " />
<glyph glyph-name="ncommaaccent" unicode="&#x146;" horiz-adv-x="377" d="M455 700 L332 0 L320 0 L176 621 L67 0 L45 0 L168 700 L180 700 L324 79 L433 700 L455 700 Z M202 -66 Q200 -78 191 -90 Q185 -100 169 -118 L149 -118 L158 -104 Q164 -94 158 -88 Q148 -78 150 -66 Q152 -55 161.5 -47.5 Q171 -40 181 -40 Q192 -40 198 -48 Q204 -56 202 -66 Z " />
<glyph glyph-name="uni1E45" unicode="&#x1e45;" horiz-adv-x="377" d="M455 700 L332 0 L320 0 L176 621 L67 0 L45 0 L168 700 L180 700 L324 79 L433 700 L455 700 Z M349 763 Q351 774 344.5 781.5 Q338 789 327 789 Q316 789 307 781.5 Q298 774 297 763 Q295 753 301 745 Q307 737 318 737 Q329 737 338 744.5 Q347 752 349 763 Z " />
<glyph glyph-name="uni1E47" unicode="&#x1e47;" horiz-adv-x="377" d="M455 700 L332 0 L320 0 L176 621 L67 0 L45 0 L168 700 L180 700 L324 79 L433 700 L455 700 Z M203 -60 Q203 -51 197 -45.5 Q191 -40 181 -40 Q170 -40 161 -47.5 Q152 -55 150 -66 Q148 -77 155 -84.5 Q162 -92 172 -92 Q183 -92 191.5 -84.5 Q200 -77 202 -66 L203 -60 Z " />
<glyph glyph-name="eng" unicode="&#x14b;" horiz-adv-x="377" d="M455 700 L325 -42 Q320 -64 302 -79.5 Q284 -95 262 -95 L266 -73 Q279 -73 290 -64 Q301 -55 303 -42 L310 0 L176 621 L67 0 L45 0 L168 700 L180 700 L321 63 L433 700 L455 700 Z " />
<glyph glyph-name="uni0272" unicode="&#x272;" horiz-adv-x="377" d="M455 700 L332 0 L320 0 L176 621 L60 -42 Q55 -64 37 -79.5 Q19 -95 -3 -95 L1 -73 Q14 -73 25 -64 Q36 -55 38 -42 L168 700 L180 700 L324 79 L433 700 L455 700 Z " />
<glyph glyph-name="ntilde" unicode="&#xf1;" horiz-adv-x="377" d="M455 700 L332 0 L320 0 L176 621 L67 0 L45 0 L168 700 L180 700 L324 79 L433 700 L455 700 Z M215 738 Q249 772 276 772 Q294 772 318 756 Q345 738 368 738 Q376 738 379 739 Q410 743 447 780 L432 793 Q399 760 372 760 Q355 760 333 774 Q302 794 280 794 L270 793 Q238 789 201 752 L215 738 Z " />
<glyph glyph-name="o" unicode="o" horiz-adv-x="346" d="M171 -9 Q233 -9 275 24 Q323 63 336 137 L411 563 Q415 582 415 602 Q415 649 390 675 Q359 709 298 709 Q237 709 194 675 Q146 636 133 563 L58 137 Q54 109 54 99 Q54 54 79 24 Q112 -9 171 -9 Z M294 687 Q346 687 372 659 Q392 636 392 596 Q392 581 389 563 L314 137 Q303 72 263 41 Q229 13 175 13 Q121 13 97 41 Q77 61 77 103 Q77 119 80 137 L155 563 Q167 629 206 659 Q240 687 294 687 Z " />
<glyph glyph-name="oacute" unicode="&#xf3;" horiz-adv-x="346" d="M171 -9 Q233 -9 275 24 Q323 63 336 137 L411 563 Q415 582 415 602 Q415 649 390 675 Q359 709 298 709 Q237 709 194 675 Q146 636 133 563 L58 137 Q54 109 54 99 Q54 54 79 24 Q112 -9 171 -9 Z M294 687 Q346 687 372 659 Q392 636 392 596 Q392 581 389 563 L314 137 Q303 72 263 41 Q229 13 175 13 Q121 13 97 41 Q77 61 77 103 Q77 119 80 137 L155 563 Q167 629 206 659 Q240 687 294 687 Z M404 835 L313 737 L293 737 L373 835 L404 835 Z " />
<glyph glyph-name="uni01D2" unicode="&#x1d2;" horiz-adv-x="346" d="M171 -9 Q233 -9 275 24 Q323 63 336 137 L411 563 Q415 582 415 602 Q415 649 390 675 Q359 709 298 709 Q237 709 194 675 Q146 636 133 563 L58 137 Q54 109 54 99 Q54 54 79 24 Q112 -9 171 -9 Z M294 687 Q346 687 372 659 Q392 636 392 596 Q392 581 389 563 L314 137 Q303 72 263 41 Q229 13 175 13 Q121 13 97 41 Q77 61 77 103 Q77 119 80 137 L155 563 Q167 629 206 659 Q240 687 294 687 Z M290 737 L239 835 L259 835 L307 758 L381 835 L401 835 L317 737 L290 737 Z " />
<glyph glyph-name="ocircumflex" unicode="&#xf4;" horiz-adv-x="346" d="M171 -9 Q233 -9 275 24 Q323 63 336 137 L411 563 Q415 582 415 602 Q415 649 390 675 Q359 709 298 709 Q237 709 194 675 Q146 636 133 563 L58 137 Q54 109 54 99 Q54 54 79 24 Q112 -9 171 -9 Z M294 687 Q346 687 372 659 Q392 636 392 596 Q392 581 389 563 L314 137 Q303 72 263 41 Q229 13 175 13 Q121 13 97 41 Q77 61 77 103 Q77 119 80 137 L155 563 Q167 629 206 659 Q240 687 294 687 Z M307 835 L334 835 L384 737 L364 737 L317 814 L242 737 L222 737 L307 835 Z " />
<glyph glyph-name="uni1ED1" unicode="&#x1ed1;" horiz-adv-x="346" d="M171 -9 Q233 -9 275 24 Q323 63 336 137 L411 563 Q415 582 415 602 Q415 649 390 675 Q359 709 298 709 Q237 709 194 675 Q146 636 133 563 L58 137 Q54 109 54 99 Q54 54 79 24 Q112 -9 171 -9 Z M294 687 Q346 687 372 659 Q392 636 392 596 Q392 581 389 563 L314 137 Q303 72 263 41 Q229 13 175 13 Q121 13 97 41 Q77 61 77 103 Q77 119 80 137 L155 563 Q167 629 206 659 Q240 687 294 687 Z M307 835 L334 835 L384 737 L364 737 L317 814 L242 737 L222 737 L307 835 Z M492 935 L401 837 L381 837 L461 935 L492 935 Z " />
<glyph glyph-name="uni1ED9" unicode="&#x1ed9;" horiz-adv-x="346" d="M171 -9 Q233 -9 275 24 Q323 63 336 137 L411 563 Q415 582 415 602 Q415 649 390 675 Q359 709 298 709 Q237 709 194 675 Q146 636 133 563 L58 137 Q54 109 54 99 Q54 54 79 24 Q112 -9 171 -9 Z M294 687 Q346 687 372 659 Q392 636 392 596 Q392 581 389 563 L314 137 Q303 72 263 41 Q229 13 175 13 Q121 13 97 41 Q77 61 77 103 Q77 119 80 137 L155 563 Q167 629 206 659 Q240 687 294 687 Z M307 835 L334 835 L384 737 L364 737 L317 814 L242 737 L222 737 L307 835 Z M188 -60 Q188 -51 182 -45.5 Q176 -40 166 -40 Q155 -40 146 -47.5 Q137 -55 135 -66 Q133 -77 140 -84.5 Q147 -92 157 -92 Q168 -92 176.5 -84.5 Q185 -77 187 -66 L188 -60 Z " />
<glyph glyph-name="uni1ED3" unicode="&#x1ed3;" horiz-adv-x="346" d="M171 -9 Q233 -9 275 24 Q323 63 336 137 L411 563 Q415 582 415 602 Q415 649 390 675 Q359 709 298 709 Q237 709 194 675 Q146 636 133 563 L58 137 Q54 109 54 99 Q54 54 79 24 Q112 -9 171 -9 Z M294 687 Q346 687 372 659 Q392 636 392 596 Q392 581 389 563 L314 137 Q303 72 263 41 Q229 13 175 13 Q121 13 97 41 Q77 61 77 103 Q77 119 80 137 L155 563 Q167 629 206 659 Q240 687 294 687 Z M307 835 L334 835 L384 737 L364 737 L317 814 L242 737 L222 737 L307 835 Z M324 935 L355 935 L401 837 L381 837 L324 935 Z " />
<glyph glyph-name="uni1ED5" unicode="&#x1ed5;" horiz-adv-x="346" d="M171 -9 Q233 -9 275 24 Q323 63 336 137 L411 563 Q415 582 415 602 Q415 649 390 675 Q359 709 298 709 Q237 709 194 675 Q146 636 133 563 L58 137 Q54 109 54 99 Q54 54 79 24 Q112 -9 171 -9 Z M294 687 Q346 687 372 659 Q392 636 392 596 Q392 581 389 563 L314 137 Q303 72 263 41 Q229 13 175 13 Q121 13 97 41 Q77 61 77 103 Q77 119 80 137 L155 563 Q167 629 206 659 Q240 687 294 687 Z M307 835 L334 835 L384 737 L364 737 L317 814 L242 737 L222 737 L307 835 Z M314 856 Q315 860 315 868 Q315 892 298 908.5 Q281 925 256 925 L240 944 Q250 947 260 947 Q293 947 314 925.5 Q335 904 335 872 Q335 862 334 856 L314 856 Z " />
<glyph glyph-name="uni1ED7" unicode="&#x1ed7;" horiz-adv-x="346" d="M171 -9 Q233 -9 275 24 Q323 63 336 137 L411 563 Q415 582 415 602 Q415 649 390 675 Q359 709 298 709 Q237 709 194 675 Q146 636 133 563 L58 137 Q54 109 54 99 Q54 54 79 24 Q112 -9 171 -9 Z M294 687 Q346 687 372 659 Q392 636 392 596 Q392 581 389 563 L314 137 Q303 72 263 41 Q229 13 175 13 Q121 13 97 41 Q77 61 77 103 Q77 119 80 137 L155 563 Q167 629 206 659 Q240 687 294 687 Z M307 835 L334 835 L384 737 L364 737 L317 814 L242 737 L222 737 L307 835 Z M220 856 Q254 890 281 890 Q299 890 323 874 Q349 856 373 856 Q381 856 384 857 Q416 861 451 898 L437 911 Q404 878 377 878 Q360 878 338 892 Q307 912 285 912 L275 911 Q243 907 205 870 L220 856 Z " />
<glyph glyph-name="odieresis" unicode="&#xf6;" horiz-adv-x="346" d="M171 -9 Q233 -9 275 24 Q323 63 336 137 L411 563 Q415 582 415 602 Q415 649 390 675 Q359 709 298 709 Q237 709 194 675 Q146 636 133 563 L58 137 Q54 109 54 99 Q54 54 79 24 Q112 -9 171 -9 Z M294 687 Q346 687 372 659 Q392 636 392 596 Q392 581 389 563 L314 137 Q303 72 263 41 Q229 13 175 13 Q121 13 97 41 Q77 61 77 103 Q77 119 80 137 L155 563 Q167 629 206 659 Q240 687 294 687 Z M266 763 Q268 774 261.5 781.5 Q255 789 244 789 Q233 789 224 781.5 Q215 774 214 763 Q212 753 218 745 Q224 737 235 737 Q246 737 255 744.5 Q264 752 266 763 Z M400 763 Q402 774 395.5 781.5 Q389 789 378 789 Q367 789 358 781.5 Q349 774 348 763 Q346 753 352 745 Q358 737 369 737 Q380 737 389 744.5 Q398 752 400 763 Z " />
<glyph glyph-name="uni022B" unicode="&#x22b;" horiz-adv-x="346" d="M171 -9 Q233 -9 275 24 Q323 63 336 137 L411 563 Q415 582 415 602 Q415 649 390 675 Q359 709 298 709 Q237 709 194 675 Q146 636 133 563 L58 137 Q54 109 54 99 Q54 54 79 24 Q112 -9 171 -9 Z M294 687 Q346 687 372 659 Q392 636 392 596 Q392 581 389 563 L314 137 Q303 72 263 41 Q229 13 175 13 Q121 13 97 41 Q77 61 77 103 Q77 119 80 137 L155 563 Q167 629 206 659 Q240 687 294 687 Z M266 763 Q268 774 261.5 781.5 Q255 789 244 789 Q233 789 224 781.5 Q215 774 214 763 Q212 753 218 745 Q224 737 235 737 Q246 737 255 744.5 Q264 752 266 763 Z M400 763 Q402 774 395.5 781.5 Q389 789 378 789 Q367 789 358 781.5 Q349 774 348 763 Q346 753 352 745 Q358 737 369 737 Q380 737 389 744.5 Q398 752 400 763 Z M486 827 L490 849 L156 849 L152 827 L486 827 Z " />
<glyph glyph-name="uni1ECD" unicode="&#x1ecd;" horiz-adv-x="346" d="M171 -9 Q233 -9 275 24 Q323 63 336 137 L411 563 Q415 582 415 602 Q415 649 390 675 Q359 709 298 709 Q237 709 194 675 Q146 636 133 563 L58 137 Q54 109 54 99 Q54 54 79 24 Q112 -9 171 -9 Z M294 687 Q346 687 372 659 Q392 636 392 596 Q392 581 389 563 L314 137 Q303 72 263 41 Q229 13 175 13 Q121 13 97 41 Q77 61 77 103 Q77 119 80 137 L155 563 Q167 629 206 659 Q240 687 294 687 Z M188 -60 Q188 -51 182 -45.5 Q176 -40 166 -40 Q155 -40 146 -47.5 Q137 -55 135 -66 Q133 -77 140 -84.5 Q147 -92 157 -92 Q168 -92 176.5 -84.5 Q185 -77 187 -66 L188 -60 Z " />
<glyph glyph-name="ograve" unicode="&#xf2;" horiz-adv-x="346" d="M171 -9 Q233 -9 275 24 Q323 63 336 137 L411 563 Q415 582 415 602 Q415 649 390 675 Q359 709 298 709 Q237 709 194 675 Q146 636 133 563 L58 137 Q54 109 54 99 Q54 54 79 24 Q112 -9 171 -9 Z M294 687 Q346 687 372 659 Q392 636 392 596 Q392 581 389 563 L314 137 Q303 72 263 41 Q229 13 175 13 Q121 13 97 41 Q77 61 77 103 Q77 119 80 137 L155 563 Q167 629 206 659 Q240 687 294 687 Z M236 835 L267 835 L313 737 L293 737 L236 835 Z " />
<glyph glyph-name="uni1ECF" unicode="&#x1ecf;" horiz-adv-x="346" d="M171 -9 Q233 -9 275 24 Q323 63 336 137 L411 563 Q415 582 415 602 Q415 649 390 675 Q359 709 298 709 Q237 709 194 675 Q146 636 133 563 L58 137 Q54 109 54 99 Q54 54 79 24 Q112 -9 171 -9 Z M294 687 Q346 687 372 659 Q392 636 392 596 Q392 581 389 563 L314 137 Q303 72 263 41 Q229 13 175 13 Q121 13 97 41 Q77 61 77 103 Q77 119 80 137 L155 563 Q167 629 206 659 Q240 687 294 687 Z M293 737 Q294 741 294 749 Q294 773 277 789.5 Q260 806 235 806 L219 825 Q229 828 239 828 Q272 828 293 806.5 Q314 785 314 753 Q314 743 313 737 L293 737 Z " />
<glyph glyph-name="ohorn" unicode="&#x1a1;" horiz-adv-x="345" d="M495 740 Q491 718 473 702.5 Q455 687 433 687 L376 687 L390 675 Q415 649 415 602 Q415 582 411 563 L336 137 Q323 63 275 24 Q233 -9 171 -9 Q112 -9 79 24 Q54 54 54 99 Q54 109 58 137 L133 563 Q146 636 194 675 Q237 709 298 709 L437 709 Q450 709 460.5 718 Q471 727 473 740 L495 740 Z M372 659 Q346 687 294 687 Q240 687 206 659 Q167 629 155 563 L80 137 Q77 119 77 103 Q77 61 97 41 Q121 13 175 13 Q229 13 263 41 Q303 72 314 137 L389 563 Q392 581 392 596 Q392 636 372 659 Z " />
<glyph glyph-name="uni1EDB" unicode="&#x1edb;" horiz-adv-x="345" d="M495 740 Q491 718 473 702.5 Q455 687 433 687 L376 687 L390 675 Q415 649 415 602 Q415 582 411 563 L336 137 Q323 63 275 24 Q233 -9 171 -9 Q112 -9 79 24 Q54 54 54 99 Q54 109 58 137 L133 563 Q146 636 194 675 Q237 709 298 709 L437 709 Q450 709 460.5 718 Q471 727 473 740 L495 740 Z M372 659 Q346 687 294 687 Q240 687 206 659 Q167 629 155 563 L80 137 Q77 119 77 103 Q77 61 97 41 Q121 13 175 13 Q229 13 263 41 Q303 72 314 137 L389 563 Q392 581 392 596 Q392 636 372 659 Z M404 835 L313 737 L293 737 L373 835 L404 835 Z " />
<glyph glyph-name="uni1EE3" unicode="&#x1ee3;" horiz-adv-x="345" d="M495 740 Q491 718 473 702.5 Q455 687 433 687 L376 687 L390 675 Q415 649 415 602 Q415 582 411 563 L336 137 Q323 63 275 24 Q233 -9 171 -9 Q112 -9 79 24 Q54 54 54 99 Q54 109 58 137 L133 563 Q146 636 194 675 Q237 709 298 709 L437 709 Q450 709 460.5 718 Q471 727 473 740 L495 740 Z M372 659 Q346 687 294 687 Q240 687 206 659 Q167 629 155 563 L80 137 Q77 119 77 103 Q77 61 97 41 Q121 13 175 13 Q229 13 263 41 Q303 72 314 137 L389 563 Q392 581 392 596 Q392 636 372 659 Z M188 -60 Q188 -51 182 -45.5 Q176 -40 166 -40 Q155 -40 146 -47.5 Q137 -55 135 -66 Q133 -77 140 -84.5 Q147 -92 157 -92 Q168 -92 176.5 -84.5 Q185 -77 187 -66 L188 -60 Z " />
<glyph glyph-name="uni1EDD" unicode="&#x1edd;" horiz-adv-x="345" d="M495 740 Q491 718 473 702.5 Q455 687 433 687 L376 687 L390 675 Q415 649 415 602 Q415 582 411 563 L336 137 Q323 63 275 24 Q233 -9 171 -9 Q112 -9 79 24 Q54 54 54 99 Q54 109 58 137 L133 563 Q146 636 194 675 Q237 709 298 709 L437 709 Q450 709 460.5 718 Q471 727 473 740 L495 740 Z M372 659 Q346 687 294 687 Q240 687 206 659 Q167 629 155 563 L80 137 Q77 119 77 103 Q77 61 97 41 Q121 13 175 13 Q229 13 263 41 Q303 72 314 137 L389 563 Q392 581 392 596 Q392 636 372 659 Z M236 835 L267 835 L313 737 L293 737 L236 835 Z " />
<glyph glyph-name="uni1EDF" unicode="&#x1edf;" horiz-adv-x="345" d="M495 740 Q491 718 473 702.5 Q455 687 433 687 L376 687 L390 675 Q415 649 415 602 Q415 582 411 563 L336 137 Q323 63 275 24 Q233 -9 171 -9 Q112 -9 79 24 Q54 54 54 99 Q54 109 58 137 L133 563 Q146 636 194 675 Q237 709 298 709 L437 709 Q450 709 460.5 718 Q471 727 473 740 L495 740 Z M372 659 Q346 687 294 687 Q240 687 206 659 Q167 629 155 563 L80 137 Q77 119 77 103 Q77 61 97 41 Q121 13 175 13 Q229 13 263 41 Q303 72 314 137 L389 563 Q392 581 392 596 Q392 636 372 659 Z M293 737 Q294 741 294 749 Q294 773 277 789.5 Q260 806 235 806 L219 825 Q229 828 239 828 Q272 828 293 806.5 Q314 785 314 753 Q314 743 313 737 L293 737 Z " />
<glyph glyph-name="uni1EE1" unicode="&#x1ee1;" horiz-adv-x="345" d="M495 740 Q491 718 473 702.5 Q455 687 433 687 L376 687 L390 675 Q415 649 415 602 Q415 582 411 563 L336 137 Q323 63 275 24 Q233 -9 171 -9 Q112 -9 79 24 Q54 54 54 99 Q54 109 58 137 L133 563 Q146 636 194 675 Q237 709 298 709 L437 709 Q450 709 460.5 718 Q471 727 473 740 L495 740 Z M372 659 Q346 687 294 687 Q240 687 206 659 Q167 629 155 563 L80 137 Q77 119 77 103 Q77 61 97 41 Q121 13 175 13 Q229 13 263 41 Q303 72 314 137 L389 563 Q392 581 392 596 Q392 636 372 659 Z M200 738 Q234 772 261 772 Q279 772 303 756 Q330 738 353 738 Q361 738 364 739 Q395 743 432 780 L417 793 Q384 760 357 760 Q340 760 318 774 Q287 794 265 794 L255 793 Q223 789 186 752 L200 738 Z " />
<glyph glyph-name="ohungarumlaut" unicode="&#x151;" horiz-adv-x="346" d="M171 -9 Q233 -9 275 24 Q323 63 336 137 L411 563 Q415 582 415 602 Q415 649 390 675 Q359 709 298 709 Q237 709 194 675 Q146 636 133 563 L58 137 Q54 109 54 99 Q54 54 79 24 Q112 -9 171 -9 Z M294 687 Q346 687 372 659 Q392 636 392 596 Q392 581 389 563 L314 137 Q303 72 263 41 Q229 13 175 13 Q121 13 97 41 Q77 61 77 103 Q77 119 80 137 L155 563 Q167 629 206 659 Q240 687 294 687 Z M449 835 L358 737 L338 737 L418 835 L449 835 Z M358 835 L267 737 L247 737 L327 835 L358 835 Z " />
<glyph glyph-name="omacron" unicode="&#x14d;" horiz-adv-x="346" d="M171 -9 Q233 -9 275 24 Q323 63 336 137 L411 563 Q415 582 415 602 Q415 649 390 675 Q359 709 298 709 Q237 709 194 675 Q146 636 133 563 L58 137 Q54 109 54 99 Q54 54 79 24 Q112 -9 171 -9 Z M294 687 Q346 687 372 659 Q392 636 392 596 Q392 581 389 563 L314 137 Q303 72 263 41 Q229 13 175 13 Q121 13 97 41 Q77 61 77 103 Q77 119 80 137 L155 563 Q167 629 206 659 Q240 687 294 687 Z M470 737 L474 759 L140 759 L136 737 L470 737 Z " />
<glyph glyph-name="uni1E53" unicode="&#x1e53;" horiz-adv-x="346" d="M171 -9 Q233 -9 275 24 Q323 63 336 137 L411 563 Q415 582 415 602 Q415 649 390 675 Q359 709 298 709 Q237 709 194 675 Q146 636 133 563 L58 137 Q54 109 54 99 Q54 54 79 24 Q112 -9 171 -9 Z M294 687 Q347 687 372 659 Q392 638 392 597 Q392 581 389 563 L314 137 Q303 71 263 41 Q231 13 175 13 Q122 13 97 41 Q77 64 77 104 Q77 119 80 137 L155 563 Q167 628 206 659 Q242 687 294 687 Z M136 737 L470 737 L474 759 L140 759 L136 737 Z M415 895 L324 797 L304 797 L384 895 L415 895 Z " />
<glyph glyph-name="uni1E51" unicode="&#x1e51;" horiz-adv-x="346" d="M171 -9 Q233 -9 275 24 Q323 63 336 137 L411 563 Q415 582 415 602 Q415 649 390 675 Q359 709 298 709 Q237 709 194 675 Q146 636 133 563 L58 137 Q54 109 54 99 Q54 54 79 24 Q112 -9 171 -9 Z M294 687 Q346 687 372 659 Q392 636 392 596 Q392 581 389 563 L314 137 Q303 72 263 41 Q229 13 175 13 Q121 13 97 41 Q77 61 77 103 Q77 119 80 137 L155 563 Q167 629 206 659 Q240 687 294 687 Z M470 737 L474 759 L140 759 L136 737 L470 737 Z M247 895 L278 895 L324 797 L304 797 L247 895 Z " />
<glyph glyph-name="uni0254" unicode="&#x254;" horiz-adv-x="343" d="M169 -9 Q199 -9 226 0 Q253 9 272 25 Q321 62 333 137 L408 563 Q412 582 412 603 Q412 649 387 675 Q358 709 296 709 Q234 709 192 675 Q145 637 131 563 L119 493 L141 493 L153 563 Q165 629 204 659 Q238 687 292 687 Q344 687 369 659 Q389 638 389 597 Q389 581 386 563 L311 137 Q301 73 260 41 Q226 13 173 13 Q120 13 95 41 Q75 62 75 103 Q75 119 78 137 L96 240 L74 240 L56 137 Q53 118 53 100 Q53 52 77 25 Q108 -9 169 -9 Z " />
<glyph glyph-name="oslash" unicode="&#xf8;" horiz-adv-x="346" d="M410 639 Q415 621 415 603 Q415 591 411 565 L335 137 Q321 61 274 25 Q255 9 228 0 Q201 -9 171 -9 Q110 -9 79 25 Q75 29 69 39 L43 -7 L24 1 L59 63 Q55 78 55 100 Q55 118 58 137 L134 565 Q146 636 194 677 Q235 710 298 710 Q361 710 389 677 Q399 664 400 663 L426 710 L446 702 L410 639 Z M80 137 Q76 113 77 94 L385 638 Q381 650 371 660 Q349 688 294 688 Q240 688 206 660 Q167 630 156 565 L80 137 Z M389 565 Q393 595 392 607 L83 64 Q90 48 97 41 Q122 13 175 13 Q228 13 262 41 Q303 73 313 137 L389 565 Z " />
<glyph glyph-name="oslashacute" unicode="&#x1ff;" horiz-adv-x="346" d="M410 639 Q415 621 415 603 Q415 591 411 565 L335 137 Q321 61 274 25 Q255 9 228 0 Q201 -9 171 -9 Q110 -9 79 25 Q75 29 69 39 L43 -7 L24 1 L59 63 Q55 78 55 100 Q55 118 58 137 L134 565 Q146 636 194 677 Q235 710 298 710 Q361 710 389 677 Q399 664 400 663 L426 710 L446 702 L410 639 Z M80 137 Q76 113 77 94 L385 638 Q381 650 371 660 Q349 688 294 688 Q240 688 206 660 Q167 630 156 565 L80 137 Z M389 565 Q393 595 392 607 L83 64 Q90 48 97 41 Q122 13 175 13 Q228 13 262 41 Q303 73 313 137 L389 565 Z " />
<glyph glyph-name="otilde" unicode="&#xf5;" horiz-adv-x="346" d="M171 -9 Q233 -9 275 24 Q323 63 336 137 L411 563 Q415 582 415 602 Q415 649 390 675 Q359 709 298 709 Q237 709 194 675 Q146 636 133 563 L58 137 Q54 109 54 99 Q54 54 79 24 Q112 -9 171 -9 Z M294 687 Q346 687 372 659 Q392 636 392 596 Q392 581 389 563 L314 137 Q303 72 263 41 Q229 13 175 13 Q121 13 97 41 Q77 61 77 103 Q77 119 80 137 L155 563 Q167 629 206 659 Q240 687 294 687 Z M200 738 Q234 772 261 772 Q279 772 303 756 Q330 738 353 738 Q361 738 364 739 Q395 743 432 780 L417 793 Q384 760 357 760 Q340 760 318 774 Q287 794 265 794 L255 793 Q223 789 186 752 L200 738 Z " />
<glyph glyph-name="uni1E4D" unicode="&#x1e4d;" horiz-adv-x="346" d="M421 930 L330 832 L310 832 L390 930 L421 930 Z M171 -9 Q233 -9 275 24 Q323 63 336 137 L411 563 Q415 582 415 602 Q415 649 390 675 Q359 709 298 709 Q237 709 194 675 Q146 636 133 563 L58 137 Q54 109 54 99 Q54 54 79 24 Q112 -9 171 -9 Z M294 687 Q346 687 372 659 Q392 636 392 596 Q392 581 389 563 L314 137 Q303 72 263 41 Q229 13 175 13 Q121 13 97 41 Q77 61 77 103 Q77 119 80 137 L155 563 Q167 629 206 659 Q240 687 294 687 Z M200 738 Q234 772 261 772 Q279 772 303 756 Q330 738 353 738 Q361 738 364 739 Q395 743 432 780 L417 793 Q384 760 357 760 Q340 760 318 774 Q287 794 265 794 L255 793 Q223 789 186 752 L200 738 Z " />
<glyph glyph-name="oe" unicode="&#x153;" horiz-adv-x="490" d="M373 678 L318 370 L467 370 L463 348 L314 348 L257 22 L470 22 L466 0 L231 0 L173 0 Q112 0 81 34 Q56 60 56 107 Q56 127 60 146 L132 554 Q144 627 192 666 Q235 700 296 700 L354 700 L589 700 L586 678 L373 678 Z M235 22 L351 678 L293 678 Q239 678 205 650 Q165 619 154 554 L82 146 Q79 128 79 112 Q79 71 99 50 Q124 22 177 22 L235 22 Z " />
<glyph glyph-name="p" unicode="p" horiz-adv-x="340" d="M118 319 L234 319 Q298 319 338 352 Q385 390 399 464 L415 553 Q418 573 418 590 Q418 638 393 666 Q362 700 301 700 L163 700 L40 0 L62 0 L118 319 Z M182 678 L298 678 Q351 678 376 650 Q396 627 396 587 Q396 571 393 553 L377 464 Q365 398 326 368 Q293 341 238 341 L122 341 L182 678 Z " />
<glyph glyph-name="uni01A5" unicode="&#x1a5;" horiz-adv-x="375" d="M428 666 Q453 638 453 590 Q453 573 450 553 L434 464 Q420 390 373 352 Q333 319 269 319 L153 319 L97 0 L75 0 L195 678 L153 678 Q140 678 129 669 Q118 660 116 647 L94 647 Q98 669 116 684.5 Q134 700 156 700 L336 700 Q397 700 428 666 Z M428 553 Q431 571 431 587 Q431 627 411 650 Q386 678 333 678 L217 678 L157 341 L273 341 Q328 341 361 368 Q400 398 412 464 L428 553 Z " />
<glyph glyph-name="thorn" unicode="&#xfe;" horiz-adv-x="340" d="M171 620 L287 620 Q342 620 365 592 Q386 570 386 531 Q386 521 382 495 L367 406 Q355 342 316 310 Q282 283 228 283 L112 283 L171 620 Z M108 261 L224 261 Q288 261 328 294 Q375 332 389 406 L404 495 Q408 514 408 534 Q408 580 383 608 Q352 642 291 642 L175 642 L185 700 L163 700 L40 0 L62 0 L108 261 Z " />
<glyph glyph-name="q" unicode="q" horiz-adv-x="346" d="M331 -112 L327 -134 L313 -134 Q259 -134 232 -105 Q211 -80 211 -39 Q211 -24 214 -6 L214 -5 Q197 -9 171 -9 Q109 -9 79 24 Q54 52 54 99 Q54 110 58 136 L133 563 Q147 637 194 675 Q237 709 298 709 Q359 709 390 675 Q414 648 414 603 Q414 582 410 563 L335 136 Q321 60 275 24 Q259 11 238 3 L236 -6 Q233 -23 233 -36 Q233 -69 250 -88 Q273 -112 317 -112 L331 -112 Z M97 40 Q121 13 175 13 Q229 13 263 40 Q301 71 313 136 L388 563 Q391 583 391 598 Q391 637 372 659 Q346 687 294 687 Q240 687 206 659 Q167 629 155 563 L80 136 Q77 118 77 102 Q77 61 97 40 Z " />
<glyph glyph-name="r" unicode="r" horiz-adv-x="343" d="M317 0 L294 0 L246 319 L235 319 L118 319 L62 0 L40 0 L163 700 L302 700 Q363 700 394 666 Q419 638 419 590 Q419 573 416 553 L400 464 Q386 390 339 352 Q307 328 269 322 L317 0 Z M239 341 Q293 341 327 368 Q366 399 378 464 L394 553 Q397 571 397 586 Q397 625 377 650 Q351 678 299 678 L182 678 L122 341 L239 341 Z " />
<glyph glyph-name="racute" unicode="&#x155;" horiz-adv-x="343" d="M318 0 L295 0 L265 321 Q255 319 235 319 L118 319 L62 0 L40 0 L163 700 L302 700 Q363 700 394 666 Q419 638 419 590 Q419 573 416 553 L400 464 Q386 390 339 352 Q316 333 286 326 L318 0 Z M239 341 Q293 341 327 368 Q366 399 378 464 L394 553 Q397 571 397 586 Q397 625 377 650 Q351 678 299 678 L182 678 L122 341 L239 341 Z M410 835 L319 737 L299 737 L379 835 L410 835 Z " />
<glyph glyph-name="rcaron" unicode="&#x159;" horiz-adv-x="343" d="M318 0 L295 0 L265 321 Q255 319 235 319 L118 319 L62 0 L40 0 L163 700 L302 700 Q363 700 394 666 Q419 638 419 590 Q419 573 416 553 L400 464 Q386 390 339 352 Q316 333 286 326 L318 0 Z M239 341 Q293 341 327 368 Q366 399 378 464 L394 553 Q397 571 397 586 Q397 625 377 650 Q351 678 299 678 L182 678 L122 341 L239 341 Z M296 737 L245 835 L265 835 L313 758 L387 835 L407 835 L323 737 L296 737 Z " />
<glyph glyph-name="rcommaaccent" unicode="&#x157;" horiz-adv-x="343" d="M318 0 L295 0 L265 321 Q255 319 235 319 L118 319 L62 0 L40 0 L163 700 L302 700 Q363 700 394 666 Q419 638 419 590 Q419 573 416 553 L400 464 Q386 390 339 352 Q316 333 286 326 L318 0 Z M239 341 Q293 341 327 368 Q366 399 378 464 L394 553 Q397 571 397 586 Q397 625 377 650 Q351 678 299 678 L182 678 L122 341 L239 341 Z M193 -66 Q191 -78 182 -90 Q176 -100 160 -118 L140 -118 L149 -104 Q155 -94 149 -88 Q139 -78 141 -66 Q143 -55 152.5 -47.5 Q162 -40 172 -40 Q183 -40 189 -48 Q195 -56 193 -66 Z " />
<glyph glyph-name="uni024D" unicode="&#x24d;" horiz-adv-x="348" d="M405 464 Q391 390 344 352 Q321 333 291 326 L323 0 L300 0 L270 321 Q260 319 240 319 L123 319 L67 0 L45 0 L101 319 L61 319 L65 341 L105 341 L168 700 L307 700 Q368 700 399 666 Q424 638 424 590 Q424 573 421 553 L405 464 Z M332 368 Q371 400 383 464 L399 553 Q402 571 402 586 Q402 625 382 650 Q356 678 304 678 L187 678 L127 341 L244 341 Q298 341 332 368 Z " />
<glyph glyph-name="s" unicode="s" horiz-adv-x="333" d="M165 -9 Q227 -9 269 25 Q317 62 330 137 L339 187 Q342 208 342 226 Q342 281 313 321 Q298 340 281 351.5 Q264 363 239 377 Q235 379 220 387.5 Q205 396 192 406 Q179 416 169 428 Q143 462 143 510 Q143 526 146 544 L149 564 Q161 628 200 659 Q235 687 288 687 Q342 687 366 659 Q387 638 387 599 Q387 590 383 564 L371 495 L393 495 L405 564 Q409 583 409 603 Q409 648 384 676 Q354 709 292 709 Q230 709 188 676 Q140 636 127 564 L124 544 Q121 525 121 506 Q121 452 151 413 Q166 394 183 382.5 Q200 371 225 358 Q249 345 265 334 Q281 323 294 306 Q320 271 320 222 Q320 205 317 187 L308 137 Q298 73 257 41 Q221 13 169 13 Q117 13 91 41 Q71 64 71 104 Q71 119 74 137 L93 242 L71 242 L52 137 Q48 109 48 99 Q48 53 73 25 Q105 -9 165 -9 Z " />
<glyph glyph-name="sacute" unicode="&#x15b;" horiz-adv-x="333" d="M165 -9 Q227 -9 269 25 Q317 62 330 137 L339 187 Q342 208 342 226 Q342 281 313 321 Q298 340 281 351.5 Q264 363 239 377 Q235 379 220 387.5 Q205 396 192 406 Q179 416 169 428 Q143 462 143 510 Q143 526 146 544 L149 564 Q161 628 200 659 Q235 687 288 687 Q342 687 366 659 Q387 638 387 599 Q387 590 383 564 L371 495 L393 495 L405 564 Q409 583 409 603 Q409 648 384 676 Q354 709 292 709 Q230 709 188 676 Q140 636 127 564 L124 544 Q121 525 121 506 Q121 452 151 413 Q166 394 183 382.5 Q200 371 225 358 Q249 345 265 334 Q281 323 294 306 Q320 271 320 222 Q320 205 317 187 L308 137 Q298 73 257 41 Q221 13 169 13 Q117 13 91 41 Q71 64 71 104 Q71 119 74 137 L93 242 L71 242 L52 137 Q48 109 48 99 Q48 53 73 25 Q105 -9 165 -9 Z M398 835 L307 737 L287 737 L367 835 L398 835 Z " />
<glyph glyph-name="scaron" unicode="&#x161;" horiz-adv-x="333" d="M165 -9 Q227 -9 269 25 Q317 62 330 137 L339 187 Q342 208 342 226 Q342 281 313 321 Q298 340 281 351.5 Q264 363 239 377 Q235 379 220 387.5 Q205 396 192 406 Q179 416 169 428 Q143 462 143 510 Q143 526 146 544 L149 564 Q161 628 200 659 Q235 687 288 687 Q342 687 366 659 Q387 638 387 599 Q387 590 383 564 L371 495 L393 495 L405 564 Q409 583 409 603 Q409 648 384 676 Q354 709 292 709 Q230 709 188 676 Q140 636 127 564 L124 544 Q121 525 121 506 Q121 452 151 413 Q166 394 183 382.5 Q200 371 225 358 Q249 345 265 334 Q281 323 294 306 Q320 271 320 222 Q320 205 317 187 L308 137 Q298 73 257 41 Q221 13 169 13 Q117 13 91 41 Q71 64 71 104 Q71 119 74 137 L93 242 L71 242 L52 137 Q48 109 48 99 Q48 53 73 25 Q105 -9 165 -9 Z M284 737 L233 835 L253 835 L301 758 L375 835 L395 835 L311 737 L284 737 Z " />
<glyph glyph-name="scedilla" unicode="&#x15f;" horiz-adv-x="333" d="M371 495 L383 564 Q387 590 387 599 Q387 638 366 659 Q342 687 288 687 Q235 687 200 659 Q161 628 149 564 L146 544 Q143 526 143 510 Q143 462 169 428 Q182 413 196 403 Q210 393 222.5 386 Q235 379 239 377 Q264 363 281 351.5 Q298 340 313 321 Q342 281 342 226 Q342 208 339 187 L330 137 Q317 62 269 25 Q230 -6 176 -9 Q176 -10 177 -15.5 Q178 -21 184 -26 Q184 -26 186 -28 Q208 -45 208 -67 L207 -76 Q202 -98 184 -113.5 Q166 -129 144 -129 Q125 -129 112.5 -117 Q100 -105 100 -87 Q100 -80 101 -76 L123 -76 Q121 -89 128 -98 Q135 -107 148 -107 Q161 -107 172 -98 Q183 -89 185 -76 Q186 -65 182.5 -59 Q179 -53 170 -45 L168 -44 Q152 -30 154 -9 Q102 -6 73 25 Q48 53 48 99 Q48 109 52 137 L71 242 L93 242 L74 137 Q71 119 71 104 Q71 64 91 41 Q117 13 169 13 Q221 13 257 41 Q298 73 308 137 L317 187 Q320 205 320 222 Q320 271 294 306 Q281 323 265 334 Q249 345 225 358 Q200 371 183 382.5 Q166 394 151 413 Q121 452 121 506 Q121 525 124 544 L127 564 Q140 636 188 676 Q230 709 292 709 Q354 709 384 676 Q409 648 409 603 Q409 583 405 564 L393 495 L371 495 Z " />
<glyph glyph-name="scommaaccent" unicode="&#x219;" horiz-adv-x="333" d="M165 -9 Q227 -9 269 25 Q317 62 330 137 L339 187 Q342 208 342 226 Q342 281 313 321 Q298 340 281 351.5 Q264 363 239 377 Q235 379 220 387.5 Q205 396 192 406 Q179 416 169 428 Q143 462 143 510 Q143 526 146 544 L149 564 Q161 628 200 659 Q235 687 288 687 Q342 687 366 659 Q387 638 387 599 Q387 590 383 564 L371 495 L393 495 L405 564 Q409 583 409 603 Q409 648 384 676 Q354 709 292 709 Q230 709 188 676 Q140 636 127 564 L124 544 Q121 525 121 506 Q121 452 151 413 Q166 394 183 382.5 Q200 371 225 358 Q249 345 265 334 Q281 323 294 306 Q320 271 320 222 Q320 205 317 187 L308 137 Q298 73 257 41 Q221 13 169 13 Q117 13 91 41 Q71 64 71 104 Q71 119 74 137 L93 242 L71 242 L52 137 Q48 109 48 99 Q48 53 73 25 Q105 -9 165 -9 Z M181 -66 Q179 -78 170 -90 Q164 -100 148 -118 L128 -118 L137 -104 Q143 -94 137 -88 Q127 -78 129 -66 Q131 -55 140.5 -47.5 Q150 -40 160 -40 Q171 -40 177 -48 Q183 -56 181 -66 Z " />
<glyph glyph-name="uni1E63" unicode="&#x1e63;" horiz-adv-x="333" d="M165 -9 Q227 -9 269 25 Q317 62 330 137 L339 187 Q342 208 342 226 Q342 281 313 321 Q298 340 281 351.5 Q264 363 239 377 Q235 379 220 387.5 Q205 396 192 406 Q179 416 169 428 Q143 462 143 510 Q143 526 146 544 L149 564 Q161 628 200 659 Q235 687 288 687 Q342 687 366 659 Q387 638 387 599 Q387 590 383 564 L371 495 L393 495 L405 564 Q409 583 409 603 Q409 648 384 676 Q354 709 292 709 Q230 709 188 676 Q140 636 127 564 L124 544 Q121 525 121 506 Q121 452 151 413 Q166 394 183 382.5 Q200 371 225 358 Q249 345 265 334 Q281 323 294 306 Q320 271 320 222 Q320 205 317 187 L308 137 Q298 73 257 41 Q221 13 169 13 Q117 13 91 41 Q71 64 71 104 Q71 119 74 137 L93 242 L71 242 L52 137 Q48 109 48 99 Q48 53 73 25 Q105 -9 165 -9 Z M182 -60 Q182 -51 176 -45.5 Q170 -40 160 -40 Q149 -40 140 -47.5 Q131 -55 129 -66 Q127 -77 134 -84.5 Q141 -92 151 -92 Q162 -92 170.5 -84.5 Q179 -77 181 -66 L182 -60 Z " />
<glyph glyph-name="germandbls" unicode="&#xdf;" horiz-adv-x="351" d="M335 327 Q359 299 359 253 Q359 233 355 214 L342 141 Q328 66 282 31 Q242 0 179 0 L40 0 L138 558 Q151 631 199 668 Q217 682 242 691 Q267 700 293 700 Q320 700 342 691 Q364 682 377 668 Q402 643 402 596 Q402 577 398 558 L385 484 Q373 410 325 372 Q310 360 293 353 Q318 344 335 327 Z M126 360 L226 360 Q280 360 312 388 Q353 420 363 484 L376 558 Q379 576 379 591 Q379 633 356 655.5 Q333 678 290 678 Q239 678 204.5 646.5 Q170 615 160 558 L126 360 Z M333 214 Q336 232 336 249 Q336 290 317 310 Q292 338 239 338 L122 338 L66 22 L183 22 Q299 22 320 141 L333 214 Z " />
<glyph glyph-name="t" unicode="t" horiz-adv-x="303" d="M414 700 L411 678 L284 678 L164 0 L142 0 L262 678 L133 678 L136 700 L414 700 Z " />
<glyph glyph-name="tbar" unicode="&#x167;" horiz-adv-x="303" d="M411 678 L284 678 L245 460 L305 460 L301 438 L241 438 L164 0 L142 0 L219 438 L159 438 L163 460 L223 460 L262 678 L133 678 L136 700 L414 700 L411 678 Z " />
<glyph glyph-name="tcaron" unicode="&#x165;" horiz-adv-x="303" d="M414 700 L411 678 L284 678 L164 0 L142 0 L262 678 L133 678 L136 700 L414 700 Z M269 737 L218 835 L238 835 L286 758 L360 835 L380 835 L296 737 L269 737 Z " />
<glyph glyph-name="uni0163" unicode="&#x163;" horiz-adv-x="303" d="M164 1 Q163 -4 163 -11 Q163 -20 172 -28 Q182 -37 188 -45.5 Q194 -54 194 -68 L193 -76 Q188 -98 170 -113.5 Q152 -129 130 -129 Q111 -129 98.5 -117 Q86 -105 86 -87 Q86 -80 87 -76 L109 -76 Q107 -89 114 -98 Q121 -107 134 -107 Q147 -107 158 -98 Q169 -89 171 -76 Q172 -65 168.5 -58.5 Q165 -52 156 -45 Q147 -38 142.5 -30 Q138 -22 140 -9 Q161 103 202 337.5 Q243 572 262 678 L133 678 L136 700 L414 700 L411 678 L284 678 L164 1 Z " />
<glyph glyph-name="uni1E71" unicode="&#x1e71;" horiz-adv-x="303" d="M414 700 L411 678 L284 678 L164 0 L142 0 L262 678 L133 678 L136 700 L414 700 Z M132 -40 L159 -40 L209 -138 L189 -138 L141 -61 L67 -138 L47 -138 L132 -40 Z " />
<glyph glyph-name="uni021B" unicode="&#x21b;" horiz-adv-x="303" d="M414 700 L411 678 L284 678 L164 0 L142 0 L262 678 L133 678 L136 700 L414 700 Z M167 -66 Q165 -78 156 -90 Q150 -100 134 -118 L114 -118 L123 -104 Q129 -94 123 -88 Q113 -78 115 -66 Q117 -55 126.5 -47.5 Q136 -40 146 -40 Q157 -40 163 -48 Q169 -56 167 -66 Z " />
<glyph glyph-name="uni1E6D" unicode="&#x1e6d;" horiz-adv-x="303" d="M414 700 L411 678 L284 678 L164 0 L142 0 L262 678 L133 678 L136 700 L414 700 Z M168 -60 Q168 -51 162 -45.5 Q156 -40 146 -40 Q135 -40 126 -47.5 Q117 -55 115 -66 Q113 -77 120 -84.5 Q127 -92 137 -92 Q148 -92 156.5 -84.5 Q165 -77 167 -66 L168 -60 Z " />
<glyph glyph-name="uni01AD" unicode="&#x1ad;" horiz-adv-x="348" d="M459 700 L456 678 L329 678 L209 0 L187 0 L307 678 L178 678 Q165 678 154 669 Q143 660 141 647 L119 647 Q123 669 141 684.5 Q159 700 181 700 L459 700 Z " />
<glyph glyph-name="uni1E6F" unicode="&#x1e6f;" horiz-adv-x="304" d="M414 700 L411 678 L284 678 L164 0 L142 0 L262 678 L133 678 L136 700 L414 700 Z M308 -62 L312 -40 L-22 -40 L-26 -62 L308 -62 Z " />
<glyph glyph-name="uni0288" unicode="&#x288;" horiz-adv-x="303" d="M284 678 L157 -42 Q155 -55 162 -63.5 Q169 -72 182 -72 L178 -94 Q159 -94 146.5 -82 Q134 -70 134 -52 Q134 -45 135 -42 L262 678 L133 678 L136 700 L414 700 L411 678 L284 678 Z " />
<glyph glyph-name="u" unicode="u" horiz-adv-x="344" d="M170 -9 Q232 -9 274 25 Q322 62 335 137 L434 700 L412 700 L313 137 Q303 73 262 41 Q228 13 174 13 Q122 13 96 41 Q76 64 76 104 Q76 119 79 137 L178 700 L156 700 L57 137 Q53 109 53 99 Q53 53 78 25 Q110 -9 170 -9 Z " />
<glyph glyph-name="uacute" unicode="&#xfa;" horiz-adv-x="344" d="M170 -9 Q232 -9 274 25 Q322 62 335 137 L434 700 L412 700 L313 137 Q303 73 262 41 Q228 13 174 13 Q122 13 96 41 Q76 64 76 104 Q76 119 79 137 L178 700 L156 700 L57 137 Q53 109 53 99 Q53 53 78 25 Q110 -9 170 -9 Z M403 835 L312 737 L292 737 L372 835 L403 835 Z " />
<glyph glyph-name="uni0289" unicode="&#x289;" horiz-adv-x="368" d="M425 349 L385 349 L347 137 Q334 62 286 25 Q244 -9 182 -9 Q122 -9 90 25 Q65 53 65 99 Q65 109 69 137 L107 349 L67 349 L70 371 L110 371 L168 700 L190 700 L132 371 L366 371 L424 700 L446 700 L388 371 L428 371 L425 349 Z M363 349 L129 349 L91 137 Q88 119 88 104 Q88 64 108 41 Q134 13 186 13 Q240 13 274 41 Q315 73 325 137 L363 349 Z " />
<glyph glyph-name="uni01D4" unicode="&#x1d4;" horiz-adv-x="344" d="M170 -9 Q232 -9 274 25 Q322 62 335 137 L434 700 L412 700 L313 137 Q303 73 262 41 Q228 13 174 13 Q122 13 96 41 Q76 64 76 104 Q76 119 79 137 L178 700 L156 700 L57 137 Q53 109 53 99 Q53 53 78 25 Q110 -9 170 -9 Z M290 737 L239 835 L259 835 L307 758 L381 835 L401 835 L317 737 L290 737 Z " />
<glyph glyph-name="ucircumflex" unicode="&#xfb;" horiz-adv-x="344" d="M170 -9 Q232 -9 274 25 Q322 62 335 137 L434 700 L412 700 L313 137 Q303 73 262 41 Q228 13 174 13 Q122 13 96 41 Q76 64 76 104 Q76 119 79 137 L178 700 L156 700 L57 137 Q53 109 53 99 Q53 53 78 25 Q110 -9 170 -9 Z M306 835 L333 835 L383 737 L363 737 L316 814 L241 737 L221 737 L306 835 Z " />
<glyph glyph-name="udieresis" unicode="&#xfc;" horiz-adv-x="344" d="M170 -9 Q232 -9 274 25 Q322 62 335 137 L434 700 L412 700 L313 137 Q303 73 262 41 Q228 13 174 13 Q122 13 96 41 Q76 64 76 104 Q76 119 79 137 L178 700 L156 700 L57 137 Q53 109 53 99 Q53 53 78 25 Q110 -9 170 -9 Z M266 763 Q268 774 261.5 781.5 Q255 789 244 789 Q233 789 224 781.5 Q215 774 214 763 Q212 753 218 745 Q224 737 235 737 Q246 737 255 744.5 Q264 752 266 763 Z M400 763 Q402 774 395.5 781.5 Q389 789 378 789 Q367 789 358 781.5 Q349 774 348 763 Q346 753 352 745 Q358 737 369 737 Q380 737 389 744.5 Q398 752 400 763 Z " />
<glyph glyph-name="uni01D8" unicode="&#x1d8;" horiz-adv-x="344" d="M170 -9 Q232 -9 274 25 Q322 62 335 137 L434 700 L412 700 L313 137 Q303 73 262 41 Q228 13 174 13 Q122 13 96 41 Q76 64 76 104 Q76 119 79 137 L178 700 L156 700 L57 137 Q53 109 53 99 Q53 53 78 25 Q110 -9 170 -9 Z M266 763 Q268 774 261.5 781.5 Q255 789 244 789 Q233 789 224 781.5 Q215 774 214 763 Q212 753 218 745 Q224 737 235 737 Q246 737 255 744.5 Q264 752 266 763 Z M400 763 Q402 774 395.5 781.5 Q389 789 378 789 Q367 789 358 781.5 Q349 774 348 763 Q346 753 352 745 Q358 737 369 737 Q380 737 389 744.5 Q398 752 400 763 Z M419 925 L328 827 L308 827 L388 925 L419 925 Z " />
<glyph glyph-name="uni01DA" unicode="&#x1da;" horiz-adv-x="344" d="M170 -9 Q232 -9 274 25 Q322 62 335 137 L434 700 L412 700 L313 137 Q303 73 262 41 Q228 13 174 13 Q122 13 96 41 Q76 64 76 104 Q76 119 79 137 L178 700 L156 700 L57 137 Q53 109 53 99 Q53 53 78 25 Q110 -9 170 -9 Z M266 763 Q268 774 261.5 781.5 Q255 789 244 789 Q233 789 224 781.5 Q215 774 214 763 Q212 753 218 745 Q224 737 235 737 Q246 737 255 744.5 Q264 752 266 763 Z M400 763 Q402 774 395.5 781.5 Q389 789 378 789 Q367 789 358 781.5 Q349 774 348 763 Q346 753 352 745 Q358 737 369 737 Q380 737 389 744.5 Q398 752 400 763 Z M305 827 L254 925 L274 925 L322 848 L396 925 L416 925 L332 827 L305 827 Z " />
<glyph glyph-name="uni01DC" unicode="&#x1dc;" horiz-adv-x="344" d="M170 -9 Q232 -9 274 25 Q322 62 335 137 L434 700 L412 700 L313 137 Q303 74 262 41 Q226 13 174 13 Q121 13 96 41 Q76 62 76 103 Q76 119 79 137 L178 700 L156 700 L57 137 Q53 109 53 99 Q53 53 78 25 Q110 -9 170 -9 Z M347 758 Q347 749 353 743 Q359 737 369 737 Q379 737 388.5 744.5 Q398 752 400 763 Q401 774 395 781.5 Q389 789 378 789 Q367 789 358 781.5 Q349 774 348 763 L347 758 Z M213 758 Q213 749 219 743 Q225 737 235 737 Q245 737 254.5 744.5 Q264 752 266 763 Q267 774 261 781.5 Q255 789 244 789 Q233 789 224 781.5 Q215 774 214 763 L213 758 Z M251 925 L282 925 L328 827 L308 827 L251 925 Z " />
<glyph glyph-name="uni01D6" unicode="&#x1d6;" horiz-adv-x="344" d="M170 -9 Q232 -9 274 25 Q322 62 335 137 L434 700 L412 700 L313 137 Q303 74 262 41 Q226 13 174 13 Q121 13 96 41 Q76 62 76 103 Q76 119 79 137 L178 700 L156 700 L57 137 Q53 109 53 99 Q53 53 78 25 Q110 -9 170 -9 Z M266 763 Q268 774 261.5 781.5 Q255 789 244 789 Q233 789 224 781.5 Q215 774 214 763 Q212 753 218 745 Q224 737 235 737 Q246 737 255 744.5 Q264 752 266 763 Z M400 763 Q402 774 395.5 781.5 Q389 789 378 789 Q367 789 358 781.5 Q349 774 348 763 Q346 753 352 745 Q358 737 369 737 Q380 737 389 744.5 Q398 752 400 763 Z M485 827 L489 849 L155 849 L151 827 L485 827 Z " />
<glyph glyph-name="uni1EE5" unicode="&#x1ee5;" horiz-adv-x="344" d="M187 -60 Q187 -51 181 -45.5 Q175 -40 165 -40 Q154 -40 145 -47.5 Q136 -55 134 -66 Q132 -77 139 -84.5 Q146 -92 156 -92 Q167 -92 175.5 -84.5 Q184 -77 186 -66 L187 -60 Z M170 -9 Q232 -9 274 25 Q322 62 335 137 L434 700 L412 700 L313 137 Q303 73 262 41 Q228 13 174 13 Q122 13 96 41 Q76 64 76 104 Q76 119 79 137 L178 700 L156 700 L57 137 Q53 109 53 99 Q53 53 78 25 Q110 -9 170 -9 Z " />
<glyph glyph-name="ugrave" unicode="&#xf9;" horiz-adv-x="344" d="M170 -9 Q232 -9 274 25 Q322 62 335 137 L434 700 L412 700 L313 137 Q303 73 262 41 Q228 13 174 13 Q122 13 96 41 Q76 64 76 104 Q76 119 79 137 L178 700 L156 700 L57 137 Q53 109 53 99 Q53 53 78 25 Q110 -9 170 -9 Z M235 835 L266 835 L312 737 L292 737 L235 835 Z " />
<glyph glyph-name="uni1EE7" unicode="&#x1ee7;" horiz-adv-x="344" d="M170 -9 Q232 -9 274 25 Q322 62 335 137 L434 700 L412 700 L313 137 Q303 73 262 41 Q228 13 174 13 Q122 13 96 41 Q76 64 76 104 Q76 119 79 137 L178 700 L156 700 L57 137 Q53 109 53 99 Q53 53 78 25 Q110 -9 170 -9 Z M292 737 Q293 741 293 749 Q293 773 276 789.5 Q259 806 234 806 L218 825 Q228 828 238 828 Q271 828 292 806.5 Q313 785 313 753 Q313 743 312 737 L292 737 Z " />
<glyph glyph-name="uhorn" unicode="&#x1b0;" horiz-adv-x="386" d="M535 731 Q531 709 513 693.5 Q495 678 473 678 L431 678 L335 137 Q322 62 274 25 Q232 -9 170 -9 Q110 -9 78 25 Q53 53 53 99 Q53 109 57 137 L156 700 L178 700 L79 137 Q76 119 76 104 Q76 64 96 41 Q122 13 174 13 Q228 13 262 41 Q303 73 313 137 L412 700 L476 700 Q489 700 500 709 Q511 718 513 731 L535 731 Z " />
<glyph glyph-name="uni1EE9" unicode="&#x1ee9;" horiz-adv-x="386" d="M535 731 Q531 709 513 693.5 Q495 678 473 678 L431 678 L335 137 Q322 62 274 25 Q232 -9 170 -9 Q110 -9 78 25 Q53 53 53 99 Q53 109 57 137 L156 700 L178 700 L79 137 Q76 119 76 104 Q76 64 96 41 Q122 13 174 13 Q228 13 262 41 Q303 73 313 137 L412 700 L476 700 Q489 700 500 709 Q511 718 513 731 L535 731 Z M403 835 L312 737 L292 737 L372 835 L403 835 Z " />
<glyph glyph-name="uni1EF1" unicode="&#x1ef1;" horiz-adv-x="386" d="M535 731 Q531 709 513 693.5 Q495 678 473 678 L431 678 L335 137 Q322 62 274 25 Q232 -9 170 -9 Q110 -9 78 25 Q53 53 53 99 Q53 109 57 137 L156 700 L178 700 L79 137 Q76 119 76 104 Q76 64 96 41 Q122 13 174 13 Q228 13 262 41 Q303 73 313 137 L412 700 L476 700 Q489 700 500 709 Q511 718 513 731 L535 731 Z M187 -60 Q187 -51 181 -45.5 Q175 -40 165 -40 Q154 -40 145 -47.5 Q136 -55 134 -66 Q132 -77 139 -84.5 Q146 -92 156 -92 Q167 -92 175.5 -84.5 Q184 -77 186 -66 L187 -60 Z " />
<glyph glyph-name="uni1EEB" unicode="&#x1eeb;" horiz-adv-x="386" d="M535 731 Q531 709 513 693.5 Q495 678 473 678 L431 678 L335 137 Q322 62 274 25 Q232 -9 170 -9 Q110 -9 78 25 Q53 53 53 99 Q53 109 57 137 L156 700 L178 700 L79 137 Q76 119 76 104 Q76 64 96 41 Q122 13 174 13 Q228 13 262 41 Q303 73 313 137 L412 700 L476 700 Q489 700 500 709 Q511 718 513 731 L535 731 Z M235 835 L266 835 L312 737 L292 737 L235 835 Z " />
<glyph glyph-name="uni1EED" unicode="&#x1eed;" horiz-adv-x="386" d="M535 731 Q531 709 513 693.5 Q495 678 473 678 L431 678 L335 137 Q322 62 274 25 Q232 -9 170 -9 Q110 -9 78 25 Q53 53 53 99 Q53 109 57 137 L156 700 L178 700 L79 137 Q76 119 76 104 Q76 64 96 41 Q122 13 174 13 Q228 13 262 41 Q303 73 313 137 L412 700 L476 700 Q489 700 500 709 Q511 718 513 731 L535 731 Z M292 737 Q293 741 293 749 Q293 773 276 789.5 Q259 806 234 806 L218 825 Q228 828 238 828 Q271 828 292 806.5 Q313 785 313 753 Q313 743 312 737 L292 737 Z " />
<glyph glyph-name="uni1EEF" unicode="&#x1eef;" horiz-adv-x="386" d="M535 731 Q531 709 513 693.5 Q495 678 473 678 L431 678 L335 137 Q322 62 274 25 Q232 -9 170 -9 Q110 -9 78 25 Q53 53 53 99 Q53 109 57 137 L156 700 L178 700 L79 137 Q76 119 76 104 Q76 64 96 41 Q122 13 174 13 Q228 13 262 41 Q303 73 313 137 L412 700 L476 700 Q489 700 500 709 Q511 718 513 731 L535 731 Z M199 738 Q233 772 260 772 Q278 772 302 756 Q329 738 352 738 Q360 738 363 739 Q394 743 431 780 L416 793 Q383 760 356 760 Q339 760 317 774 Q286 794 264 794 L254 793 Q222 789 185 752 L199 738 Z " />
<glyph glyph-name="uhungarumlaut" unicode="&#x171;" horiz-adv-x="344" d="M170 -9 Q232 -9 274 25 Q322 62 335 137 L434 700 L412 700 L313 137 Q303 73 262 41 Q228 13 174 13 Q122 13 96 41 Q76 64 76 104 Q76 119 79 137 L178 700 L156 700 L57 137 Q53 109 53 99 Q53 53 78 25 Q110 -9 170 -9 Z M448 835 L357 737 L337 737 L417 835 L448 835 Z M357 835 L266 737 L246 737 L326 835 L357 835 Z " />
<glyph glyph-name="umacron" unicode="&#x16b;" horiz-adv-x="344" d="M170 -9 Q232 -9 274 25 Q322 62 335 137 L434 700 L412 700 L313 137 Q303 73 262 41 Q228 13 174 13 Q122 13 96 41 Q76 64 76 104 Q76 119 79 137 L178 700 L156 700 L57 137 Q53 109 53 99 Q53 53 78 25 Q110 -9 170 -9 Z M469 737 L473 759 L139 759 L135 737 L469 737 Z " />
<glyph glyph-name="uogonek" unicode="&#x173;" horiz-adv-x="344" d="M434 700 L335 137 Q322 62 274 25 L255 10 Q219 -19 205.5 -32.5 Q192 -46 189 -60 Q186 -81 229 -81 L238 -81 L234 -104 L215 -104 Q186 -104 168 -97 Q150 -90 154 -69 Q159 -40 213 -4 Q191 -9 170 -9 Q110 -9 78 25 Q53 53 53 99 Q53 109 57 137 L156 700 L178 700 L79 137 Q76 119 76 104 Q76 64 96 41 Q122 13 174 13 Q228 13 262 41 Q303 73 313 137 L412 700 L434 700 Z " />
<glyph glyph-name="uring" unicode="&#x16f;" horiz-adv-x="344" d="M170 -9 Q232 -9 274 25 Q322 62 335 137 L434 700 L412 700 L313 137 Q303 73 262 41 Q228 13 174 13 Q122 13 96 41 Q76 64 76 104 Q76 119 79 137 L178 700 L156 700 L57 137 Q53 109 53 99 Q53 53 78 25 Q110 -9 170 -9 Z M302 737 Q324 737 342 752.5 Q360 768 364 790 Q365 794 365 800 Q365 819 352.5 831 Q340 843 321 843 Q299 843 280.5 827.5 Q262 812 258 790 Q257 787 257 781 Q257 762 270 749.5 Q283 737 302 737 Z M317 821 Q330 821 337 812 Q344 803 342 790 Q340 777 329.5 768 Q319 759 306 759 Q293 759 285.5 768 Q278 777 280 790 Q282 803 293 812 Q304 821 317 821 Z " />
<glyph glyph-name="utilde" unicode="&#x169;" horiz-adv-x="344" d="M170 -9 Q232 -9 274 25 Q322 62 335 137 L434 700 L412 700 L313 137 Q303 73 262 41 Q228 13 174 13 Q122 13 96 41 Q76 64 76 104 Q76 119 79 137 L178 700 L156 700 L57 137 Q53 109 53 99 Q53 53 78 25 Q110 -9 170 -9 Z M198 738 Q232 772 259 772 Q277 772 301 756 Q328 738 351 738 Q359 738 362 739 Q393 743 430 780 L415 793 Q382 760 355 760 Q338 760 316 774 Q285 794 263 794 L253 793 Q221 789 184 752 L198 738 Z " />
<glyph glyph-name="v" unicode="v" horiz-adv-x="351" d="M187 0 L164 0 L137 700 L159 700 L185 49 L438 700 L460 700 L187 0 Z " />
<glyph glyph-name="uni028C" unicode="&#x28c;" horiz-adv-x="351" d="M310 700 L337 0 L315 0 L291 651 L36 0 L14 0 L287 700 L310 700 Z " />
<glyph glyph-name="w" unicode="w" horiz-adv-x="497" d="M578 700 L601 700 L392 0 L380 0 L342 527 L117 0 L105 0 L143 700 L165 700 L131 84 L347 589 L359 589 L396 84 L578 700 Z " />
<glyph glyph-name="wacute" unicode="&#x1e83;" horiz-adv-x="497" d="M578 700 L601 700 L392 0 L380 0 L342 527 L117 0 L105 0 L143 700 L165 700 L131 84 L347 589 L359 589 L396 84 L578 700 Z M480 835 L389 737 L369 737 L449 835 L480 835 Z " />
<glyph glyph-name="wcircumflex" unicode="&#x175;" horiz-adv-x="497" d="M578 700 L601 700 L392 0 L380 0 L342 527 L117 0 L105 0 L143 700 L165 700 L131 84 L347 589 L359 589 L396 84 L578 700 Z M383 835 L410 835 L460 737 L440 737 L393 814 L318 737 L298 737 L383 835 Z " />
<glyph glyph-name="wdieresis" unicode="&#x1e85;" horiz-adv-x="497" d="M578 700 L601 700 L392 0 L380 0 L342 527 L117 0 L105 0 L143 700 L165 700 L131 84 L347 589 L359 589 L396 84 L578 700 Z M343 763 Q345 774 338.5 781.5 Q332 789 321 789 Q310 789 301 781.5 Q292 774 291 763 Q289 753 295 745 Q301 737 312 737 Q323 737 332 744.5 Q341 752 343 763 Z M477 763 Q479 774 472.5 781.5 Q466 789 455 789 Q444 789 435 781.5 Q426 774 425 763 Q423 753 429 745 Q435 737 446 737 Q457 737 466 744.5 Q475 752 477 763 Z " />
<glyph glyph-name="wgrave" unicode="&#x1e81;" horiz-adv-x="497" d="M578 700 L601 700 L392 0 L380 0 L342 527 L117 0 L105 0 L143 700 L165 700 L131 84 L347 589 L359 589 L396 84 L578 700 Z M312 835 L343 835 L389 737 L369 737 L312 835 Z " />
<glyph glyph-name="uni2C73" unicode="&#x2c73;" horiz-adv-x="550" d="M640 700 Q659 700 672 687.5 Q685 675 685 656 Q685 650 684 647 L662 647 Q664 660 657 669 Q650 678 637 678 L595 678 L392 0 L380 0 L342 527 L117 0 L105 0 L143 700 L165 700 L131 84 L347 589 L359 589 L396 84 L578 700 L640 700 Z " />
<glyph glyph-name="uni028D" unicode="&#x28d;" horiz-adv-x="497" d="M455 0 L490 616 L275 111 L263 111 L225 616 L42 0 L20 0 L228 700 L240 700 L280 173 L503 700 L515 700 L478 0 L455 0 Z " />
<glyph glyph-name="x" unicode="x" horiz-adv-x="360" d="M239 332 L44 0 L21 0 L226 349 L138 700 L162 700 L245 366 L445 700 L469 700 L259 349 L340 0 L317 0 L239 332 Z " />
<glyph glyph-name="y" unicode="y" horiz-adv-x="346" d="M221 274 L437 700 L460 700 L226 237 L184 0 L162 0 L204 237 L132 700 L155 700 L221 274 Z " />
<glyph glyph-name="yacute" unicode="&#xfd;" horiz-adv-x="346" d="M221 274 L437 700 L460 700 L226 237 L184 0 L162 0 L204 237 L132 700 L155 700 L221 274 Z M404 835 L313 737 L293 737 L373 835 L404 835 Z " />
<glyph glyph-name="ycircumflex" unicode="&#x177;" horiz-adv-x="346" d="M221 274 L437 700 L460 700 L226 237 L184 0 L162 0 L204 237 L132 700 L155 700 L221 274 Z M307 835 L334 835 L384 737 L364 737 L317 814 L242 737 L222 737 L307 835 Z " />
<glyph glyph-name="ydieresis" unicode="&#xff;" horiz-adv-x="346" d="M221 274 L437 700 L460 700 L226 237 L184 0 L162 0 L204 237 L132 700 L155 700 L221 274 Z M271 763 Q273 774 266.5 781.5 Q260 789 249 789 Q238 789 229 781.5 Q220 774 219 763 Q217 753 223 745 Q229 737 240 737 Q251 737 260 744.5 Q269 752 271 763 Z M405 763 Q407 774 400.5 781.5 Q394 789 383 789 Q372 789 363 781.5 Q354 774 353 763 Q351 753 357 745 Q363 737 374 737 Q385 737 394 744.5 Q403 752 405 763 Z " />
<glyph glyph-name="uni1EF5" unicode="&#x1ef5;" horiz-adv-x="346" d="M221 274 L437 700 L460 700 L226 237 L184 0 L162 0 L204 237 L132 700 L155 700 L221 274 Z M188 -60 Q188 -51 182 -45.5 Q176 -40 166 -40 Q155 -40 146 -47.5 Q137 -55 135 -66 Q133 -77 140 -84.5 Q147 -92 157 -92 Q168 -92 176.5 -84.5 Q185 -77 187 -66 L188 -60 Z " />
<glyph glyph-name="ygrave" unicode="&#x1ef3;" horiz-adv-x="346" d="M221 274 L437 700 L460 700 L226 237 L184 0 L162 0 L204 237 L132 700 L155 700 L221 274 Z M236 835 L267 835 L313 737 L293 737 L236 835 Z " />
<glyph glyph-name="uni01B4" unicode="&#x1b4;" horiz-adv-x="405" d="M495 700 Q514 700 527 687.5 Q540 675 540 656 Q540 650 539 647 L517 647 Q519 660 512 669 Q505 678 492 678 L450 678 L226 237 L184 0 L162 0 L204 237 L132 700 L155 700 L221 274 L437 700 L495 700 Z " />
<glyph glyph-name="uni1EF7" unicode="&#x1ef7;" horiz-adv-x="346" d="M221 274 L437 700 L460 700 L226 237 L184 0 L162 0 L204 237 L132 700 L155 700 L221 274 Z M293 737 Q294 741 294 749 Q294 773 277 789.5 Q260 806 235 806 L219 825 Q229 828 239 828 Q272 828 293 806.5 Q314 785 314 753 Q314 743 313 737 L293 737 Z " />
<glyph glyph-name="uni1EF9" unicode="&#x1ef9;" horiz-adv-x="346" d="M221 274 L437 700 L460 700 L226 237 L184 0 L162 0 L204 237 L132 700 L155 700 L221 274 Z M200 738 Q234 772 261 772 Q279 772 303 756 Q330 738 353 738 Q361 738 364 739 Q395 743 432 780 L417 793 Q384 760 357 760 Q340 760 318 774 Q287 794 265 794 L255 793 Q223 789 186 752 L200 738 Z " />
<glyph glyph-name="uni028E" unicode="&#x28e;" horiz-adv-x="346" d="M248 426 L32 0 L9 0 L244 463 L285 700 L307 700 L266 463 L337 0 L314 0 L248 426 Z " />
<glyph glyph-name="z" unicode="z" horiz-adv-x="318" d="M298 0 L302 22 L55 22 L420 700 L143 700 L140 678 L386 678 L20 0 L298 0 Z " />
<glyph glyph-name="zacute" unicode="&#x17a;" horiz-adv-x="318" d="M298 0 L302 22 L55 22 L420 700 L143 700 L140 678 L386 678 L20 0 L298 0 Z M390 835 L299 737 L279 737 L359 835 L390 835 Z " />
<glyph glyph-name="zcaron" unicode="&#x17e;" horiz-adv-x="318" d="M298 0 L302 22 L55 22 L420 700 L143 700 L140 678 L386 678 L20 0 L298 0 Z M275 737 L224 835 L244 835 L292 758 L366 835 L386 835 L302 737 L275 737 Z " />
<glyph glyph-name="zdotaccent" unicode="&#x17c;" horiz-adv-x="318" d="M298 0 L302 22 L55 22 L420 700 L143 700 L140 678 L386 678 L20 0 L298 0 Z M319 763 Q321 774 314.5 781.5 Q308 789 297 789 Q286 789 277 781.5 Q268 774 267 763 Q265 753 271 745 Q277 737 288 737 Q299 737 308 744.5 Q317 752 319 763 Z " />
<glyph glyph-name="uni1E93" unicode="&#x1e93;" horiz-adv-x="318" d="M298 0 L302 22 L55 22 L420 700 L143 700 L140 678 L386 678 L20 0 L298 0 Z M173 -60 Q173 -51 167 -45.5 Q161 -40 151 -40 Q140 -40 131 -47.5 Q122 -55 120 -66 Q118 -77 125 -84.5 Q132 -92 142 -92 Q153 -92 161.5 -84.5 Q170 -77 172 -66 L173 -60 Z " />
<glyph glyph-name="uniAB53" unicode="&#xab53;" horiz-adv-x="600" d="" />
<glyph glyph-name="zero" unicode="0" horiz-adv-x="358" d="M177 -9 Q239 -9 281 24 Q329 63 342 137 L417 563 Q421 582 421 602 Q421 649 396 675 Q365 709 304 709 Q243 709 200 675 Q152 636 139 563 L64 137 Q60 109 60 99 Q60 54 85 24 Q118 -9 177 -9 Z M300 687 Q352 687 378 659 Q398 636 398 596 Q398 581 395 563 L320 137 Q309 72 269 41 Q235 13 181 13 Q127 13 103 41 Q83 61 83 103 Q83 119 86 137 L161 563 Q173 629 212 659 Q246 687 300 687 Z " />
<glyph glyph-name="one" unicode="1" horiz-adv-x="212" d="M134 590 L273 700 L285 700 L162 0 L140 0 L257 661 L129 560 L134 590 Z " />
<glyph glyph-name="two" unicode="2" horiz-adv-x="346" d="M38 0 L68 171 Q83 252 142 305 Q163 324 185 336 Q207 348 235 361 Q266 376 284.5 386 Q303 396 322 412 Q374 456 386 528 L392 563 Q395 581 395 597 Q395 638 375 659 Q350 687 298 687 Q244 687 210 659 Q171 629 159 563 L147 493 L125 493 L137 563 Q151 637 198 675 Q240 709 302 709 Q364 709 393 675 Q418 649 418 603 Q418 582 414 563 L408 528 Q394 449 335 397 Q314 378 293 366.5 Q272 355 242 342 Q214 329 194 318 Q174 307 155 290 Q104 243 90 171 L64 22 L319 22 L315 0 L38 0 Z " />
<glyph glyph-name="three" unicode="3" horiz-adv-x="343" d="M170 -9 Q232 -9 274 25 Q322 62 335 137 L344 187 Q348 206 348 227 Q348 290 311 331 Q290 354 261 368 Q309 387 351.5 429 Q394 471 407 544 L410 564 Q414 583 414 603 Q414 648 389 676 Q359 709 297 709 Q235 709 193 676 Q146 637 133 564 L130 544 L152 544 L155 564 Q167 629 205 659 Q240 687 293 687 Q349 687 371 659 Q392 638 392 599 Q392 590 388 564 L385 544 Q371 465 311 420 Q276 392 236 382 Q222 378 210 378 L206 356 Q216 356 232 354 Q243 352 260.5 342 Q278 332 294 315 Q325 280 325 225 Q325 207 322 187 L313 137 Q303 73 262 41 Q228 13 174 13 Q122 13 96 41 Q77 63 77 103 Q77 119 80 137 L89 187 L67 187 L58 137 Q54 118 54 98 Q54 52 78 25 Q110 -9 170 -9 Z " />
<glyph glyph-name="four" unicode="4" horiz-adv-x="385" d="M306 146 L381 146 L377 124 L302 124 L280 0 L258 0 L280 124 L52 124 L54 136 L381 700 L403 700 L306 146 Z M284 146 L371 643 L83 146 L284 146 Z " />
<glyph glyph-name="five" unicode="5" horiz-adv-x="343" d="M157 700 L131 551 Q127 523 127 511 Q127 457 158 417 Q173 398 190 386 Q207 374 231 361 Q259 345 273 335.5 Q287 326 300 310 Q326 276 326 228 Q326 212 323 194 L313 137 Q303 73 262 41 Q228 13 174 13 Q122 13 96 41 Q77 63 77 103 Q77 119 80 137 L92 206 L70 206 L58 137 Q54 118 54 98 Q54 52 78 25 Q110 -9 170 -9 Q232 -9 274 25 Q322 62 335 137 L345 194 Q349 213 349 233 Q349 286 318 326 Q303 345 286 356.5 Q269 368 245 380 Q221 393 205 404 Q189 415 176 432 Q150 467 150 515 Q150 532 153 551 L176 678 L431 678 L434 700 L157 700 Z " />
<glyph glyph-name="six" unicode="6" horiz-adv-x="346" d="M381 503 L391 563 Q394 581 394 596 Q394 636 374 659 Q348 687 296 687 Q244 687 208 659 Q169 628 157 563 L115 325 Q134 344 138 347 Q181 381 242 381 Q303 381 334 347 Q359 321 359 274 Q359 254 355 235 L338 137 Q325 63 277 24 Q235 -9 173 -9 Q111 -9 81 24 Q56 54 56 99 Q56 109 60 137 L77 235 L135 563 Q148 636 196 675 Q239 709 300 709 Q361 709 392 675 Q417 649 417 602 Q417 582 413 563 L403 503 L381 503 Z M150 331 Q111 298 99 235 L82 137 Q79 119 79 104 Q79 64 99 41 Q124 13 177 13 Q231 13 265 41 Q305 72 316 137 L333 235 Q336 253 336 269 Q336 310 316 331 Q291 359 238 359 Q187 359 150 331 Z " />
<glyph glyph-name="seven" unicode="7" horiz-adv-x="332" d="M445 700 L94 0 L70 0 L411 678 L135 678 L138 700 L445 700 Z " />
<glyph glyph-name="eight" unicode="8" horiz-adv-x="341" d="M168 -9 Q232 -9 272 25 Q320 62 333 137 L342 187 Q345 208 345 226 Q345 281 316 321 Q296 347 260 367 Q303 387 332 413 Q391 465 405 544 L408 564 Q412 583 412 603 Q412 648 387 676 Q359 709 295 709 Q233 709 192 676 Q144 636 131 564 L128 544 Q125 525 125 506 Q125 452 155 413 Q177 385 211 367 Q170 349 139 321 Q79 268 65 187 L56 137 Q52 109 52 99 Q52 53 77 25 Q108 -9 168 -9 Z M236 353 Q275 334 297 306 Q323 271 323 222 Q323 205 320 187 L311 137 Q301 73 260 41 Q226 13 172 13 Q120 13 95 41 Q75 62 75 103 Q75 119 78 137 L87 187 Q99 259 152 306 Q180 331 229 353 L233 355 L236 353 Z M291 687 Q347 687 369 659 Q390 638 390 599 Q390 590 386 564 L383 544 Q371 473 318 428 Q291 404 242 382 Q238 380 237 380 L233 382 Q231 383 211 394.5 Q191 406 173 428 Q147 462 147 510 Q147 526 150 544 L153 564 Q165 629 204 659 Q238 687 291 687 Z " />
<glyph glyph-name="nine" unicode="9" horiz-adv-x="345" d="M391 466 L333 137 Q319 61 272 25 Q253 9 226 0 Q199 -9 169 -9 Q108 -9 77 25 Q52 53 52 99 Q52 109 56 137 L67 199 L89 199 L78 137 Q75 119 75 103 Q75 62 95 41 Q120 13 173 13 Q226 13 260 41 Q301 73 311 137 L353 377 Q344 363 330 354 Q311 338 284 329 Q257 320 227 320 Q166 320 135 354 Q110 382 110 428 Q110 438 114 466 L131 564 Q144 636 192 676 Q233 709 296 709 Q359 709 387 676 Q412 650 412 604 Q412 583 408 564 L391 466 Z M318 370 Q359 402 369 466 L386 564 Q390 590 390 599 Q390 638 369 659 Q347 687 292 687 Q238 687 204 659 Q165 629 153 564 L136 466 Q133 448 133 432 Q133 391 153 370 Q178 342 231 342 Q284 342 318 370 Z " />
<glyph glyph-name="asterisk" unicode="&#x2a;" horiz-adv-x="376" d="M450 620 L310 539 L422 458 L394 428 L295 522 L232 378 L199 389 L277 529 L127 521 L133 558 L281 549 L251 689 L288 700 L301 556 L434 650 L450 620 Z " />
<glyph glyph-name="backslash" unicode="&#x5c;" horiz-adv-x="248" d="M220 0 L243 0 L151 700 L128 700 L220 0 Z " />
<glyph glyph-name="middot" unicode="&#xb7;" horiz-adv-x="132" d="M155 358 Q157 368 151 376 Q145 384 134 384 Q124 384 114.5 376.5 Q105 369 103 358 Q101 347 108 339.5 Q115 332 125 332 Q136 332 145 340 Q154 348 155 358 Z " />
<glyph glyph-name="bullet" unicode="&#x2022;" horiz-adv-x="190" d="M167 406 Q148 406 132.5 393 Q117 380 114 361 Q113 358 113 352 Q113 337 124 326.5 Q135 316 151 316 Q170 316 185 329 Q200 342 204 361 Q207 380 196.5 393 Q186 406 167 406 Z " />
<glyph glyph-name="colon" unicode="&#x3a;" horiz-adv-x="124" d="M93 24 Q95 34 89 42 Q83 50 72 50 Q62 50 52.5 42.5 Q43 35 41 24 Q39 13 46 5.5 Q53 -2 63 -2 Q74 -2 83 6 Q92 14 93 24 Z M162 416 Q164 426 158 434 Q152 442 141 442 Q131 442 121.5 434.5 Q112 427 110 416 Q108 405 115 397.5 Q122 390 132 390 Q143 390 152 398 Q161 406 162 416 Z " />
<glyph glyph-name="comma" unicode="&#x2c;" horiz-adv-x="122" d="M70 50 Q81 50 87 42 Q93 34 91 24 Q90 16 80 0 Q70 -14 60 -26 Q50 -38 46 -42 L31 -42 L47 -14 Q51 -3 47 2 Q37 12 39 24 Q41 35 50.5 42.5 Q60 50 70 50 Z " />
<glyph glyph-name="ellipsis" unicode="&#x2026;" horiz-adv-x="324" d="M92 24 Q94 34 88 42 Q82 50 71 50 Q61 50 51.5 42.5 Q42 35 40 24 Q38 13 45 5.5 Q52 -2 62 -2 Q73 -2 82 6 Q91 14 92 24 Z M192 24 Q194 34 188 42 Q182 50 171 50 Q161 50 151.5 42.5 Q142 35 140 24 Q138 13 145 5.5 Q152 -2 162 -2 Q173 -2 182 6 Q191 14 192 24 Z M292 24 Q294 34 288 42 Q282 50 271 50 Q261 50 251.5 42.5 Q242 35 240 24 Q238 13 245 5.5 Q252 -2 262 -2 Q273 -2 282 6 Q291 14 292 24 Z " />
<glyph glyph-name="exclam" unicode="&#x21;" horiz-adv-x="135" d="M100 27 Q102 38 95 46.5 Q88 55 77 55 Q66 55 56 46.5 Q46 38 45 27 Q43 16 49.5 8 Q56 0 67 0 Q78 0 88 8 Q98 16 100 27 Z M98 132 L140 349 L201 700 L179 700 L118 349 L83 132 L98 132 Z " />
<glyph glyph-name="exclamdown" unicode="&#xa1;" horiz-adv-x="135" d="M214 673 Q215 684 208 692 Q201 700 190 700 Q179 700 169.5 692 Q160 684 159 673 Q157 662 163.5 653.5 Q170 645 181 645 Q192 645 202 653.5 Q212 662 214 673 Z M175 568 L160 568 L118 351 L56 0 L78 0 L140 351 L175 568 Z " />
<glyph glyph-name="numbersign" unicode="&#x23;" horiz-adv-x="675" d="M717 466 L584 466 L471 231 L647 231 L643 209 L460 209 L358 0 L335 0 L437 209 L226 209 L124 0 L101 0 L203 209 L77 209 L81 231 L214 231 L327 466 L152 466 L156 488 L337 488 L440 700 L463 700 L361 488 L572 488 L674 700 L697 700 L595 488 L721 488 L717 466 Z M448 231 L561 466 L350 466 L237 231 L448 231 Z " />
<glyph glyph-name="period" unicode="&#x2e;" horiz-adv-x="120" d="M90 24 Q92 34 86 42 Q80 50 69 50 Q59 50 49.5 42.5 Q40 35 38 24 Q36 13 43 5.5 Q50 -2 60 -2 Q71 -2 80 6 Q89 14 90 24 Z " />
<glyph glyph-name="question" unicode="&#x3f;" horiz-adv-x="338" d="M128 21 Q128 34 114 34 Q107 34 101 29 Q95 24 94 17 L94 14 Q94 8 98 4 Q102 0 108 0 Q115 0 120.5 5 Q126 10 128 17 L128 21 Z M140 27 Q142 38 135.5 46.5 Q129 55 118 55 Q106 55 96.5 46.5 Q87 38 85 27 Q83 16 89.5 8 Q96 0 108 0 Q119 0 128.5 8 Q138 16 140 27 Z M122 135 L128 171 Q138 227 157.5 262 Q177 297 200 317 Q223 337 259 359 Q294 381 314.5 399 Q335 417 353 448 Q371 479 379 528 L385 563 Q388 581 388 596 Q388 636 368 659 Q342 687 290 687 Q238 687 202 659 Q163 627 151 563 L139 493 L117 493 L129 563 Q143 637 190 675 Q233 709 294 709 Q355 709 386 675 Q411 649 411 602 Q411 582 407 563 L401 528 Q392 474 372.5 439.5 Q353 405 331 386 Q309 367 273 344 Q238 321 216.5 303 Q195 285 177 253 Q159 221 150 171 L144 135 L122 135 Z " />
<glyph glyph-name="questiondown" unicode="&#xbf;" horiz-adv-x="339" d="M334 681 Q334 666 348 666 Q355 666 361 671 Q367 676 368 683 L368 686 Q368 692 364 696 Q360 700 354 700 Q347 700 341.5 695 Q336 690 334 683 L334 681 Z M323 673 Q321 662 327.5 653.5 Q334 645 345 645 Q357 645 366.5 653.5 Q376 662 378 673 Q380 684 373 692 Q366 700 354 700 Q343 700 333.5 692 Q324 684 323 673 Z M341 565 L334 529 Q324 473 304.5 438 Q285 403 262 383 Q239 363 203 341 Q169 319 147.5 301 Q126 283 108.5 252 Q91 221 82 172 L76 137 Q73 119 73 104 Q73 64 93 41 Q121 13 172 13 Q224 13 260 41 Q301 74 311 137 L323 207 L345 207 L333 137 Q321 63 272 25 Q230 -9 168 -9 Q109 -9 75 25 Q51 52 51 100 Q51 118 54 137 L60 172 Q70 226 89 260.5 Q108 295 130.5 314.5 Q153 334 189 356 Q224 379 245.5 397 Q267 415 285 447 Q303 479 312 529 L319 565 L341 565 Z " />
<glyph glyph-name="quotedbl" unicode="&#x22;" horiz-adv-x="145" d="M159 604 L180 700 L158 700 L147 604 L159 604 Z M212 604 L233 700 L211 700 L200 604 L212 604 Z " />
<glyph glyph-name="quotesingle" unicode="&#x27;" horiz-adv-x="92" d="M159 604 L180 700 L158 700 L147 604 L159 604 Z " />
<glyph glyph-name="semicolon" unicode="&#x3b;" horiz-adv-x="115" d="M70 50 Q81 50 87 42 Q93 34 91 24 Q90 16 80 0 Q70 -14 60 -26 Q50 -38 46 -42 L31 -42 L47 -14 Q51 -3 47 2 Q37 12 39 24 Q41 35 50.5 42.5 Q60 50 70 50 Z M160 416 Q162 426 156 434 Q150 442 139 442 Q129 442 119.5 434.5 Q110 427 108 416 Q106 405 113 397.5 Q120 390 130 390 Q141 390 150 398 Q159 406 160 416 Z " />
<glyph glyph-name="slash" unicode="&#x2f;" horiz-adv-x="248" d="M28 0 L366 700 L343 700 L5 0 L28 0 Z " />
<glyph glyph-name="underscore" unicode="&#x5f;" horiz-adv-x="354" d="M344 0 L348 22 L14 22 L10 0 L344 0 Z " />
<glyph glyph-name="braceleft" unicode="&#x7b;" horiz-adv-x="272" d="M244 13 Q190 13 166 40 Q146 61 146 102 Q146 118 149 136 L160 197 Q163 215 163 231 Q163 300 113 350 Q198 412 214 503 L224 563 Q236 629 275 659 Q309 687 363 687 L367 709 Q304 709 263 676 Q215 637 202 563 L192 503 Q176 416 89 359 L76 350 L86 341 Q141 296 141 227 Q141 212 138 197 L127 136 Q123 117 123 97 Q123 50 148 24 Q177 -9 240 -9 L244 13 Z " />
<glyph glyph-name="braceright" unicode="&#x7d;" horiz-adv-x="272" d="M28 -9 Q91 -9 132 24 Q179 60 193 136 L204 197 Q218 283 306 341 L320 350 L309 359 Q255 407 255 472 Q255 487 258 503 L268 563 Q272 583 272 603 Q272 650 247 676 Q219 709 155 709 L151 687 Q207 687 229 659 Q250 638 250 599 Q250 589 246 563 L236 503 Q233 485 233 468 Q233 398 283 350 Q246 324 218.5 285.5 Q191 247 182 197 L171 136 Q159 70 120 40 Q87 13 32 13 L28 -9 Z " />
<glyph glyph-name="bracketleft" unicode="&#x5b;" horiz-adv-x="209" d="M179 0 L183 22 L66 22 L182 678 L299 678 L302 700 L163 700 L40 0 L179 0 Z " />
<glyph glyph-name="bracketright" unicode="&#x5d;" horiz-adv-x="209" d="M30 0 L169 0 L292 700 L153 700 L150 678 L267 678 L151 22 L34 22 L30 0 Z " />
<glyph glyph-name="parenleft" unicode="&#x28;" horiz-adv-x="210" d="M182 13 Q130 13 104 40 Q84 61 84 102 Q84 118 87 136 L162 564 Q174 629 213 660 Q249 687 301 687 L305 709 Q243 709 201 676 Q153 636 140 564 L65 136 Q61 110 61 99 Q61 52 86 24 Q116 -9 178 -9 L182 13 Z " />
<glyph glyph-name="parenright" unicode="&#x29;" horiz-adv-x="210" d="M28 -9 Q90 -9 132 24 Q179 61 193 136 L268 564 Q272 583 272 603 Q272 648 247 676 Q217 709 155 709 L151 687 Q205 687 229 660 Q250 638 250 599 Q250 590 246 564 L171 136 Q160 71 120 40 Q86 13 32 13 L28 -9 Z " />
<glyph glyph-name="emdash" unicode="&#x2014;" horiz-adv-x="354" d="M405 348 L409 370 L75 370 L71 348 L405 348 Z " />
<glyph glyph-name="endash" unicode="&#x2013;" horiz-adv-x="354" d="M405 348 L409 370 L75 370 L71 348 L405 348 Z " />
<glyph glyph-name="figuredash" unicode="&#x2012;" horiz-adv-x="233" d="M284 348 L288 370 L75 370 L71 348 L284 348 Z " />
<glyph glyph-name="hyphen" unicode="&#x2d;" horiz-adv-x="169" d="M220 348 L224 370 L75 370 L71 348 L220 348 Z " />
<glyph glyph-name="guillemotleft" unicode="&#xab;" horiz-adv-x="295" d="M79 359 L274 626 L299 626 L104 359 L205 92 L180 92 L79 359 Z M169 359 L364 626 L389 626 L194 359 L295 92 L270 92 L169 359 Z " />
<glyph glyph-name="guillemotright" unicode="&#xbb;" horiz-adv-x="295" d="M342 359 L147 92 L122 92 L317 359 L216 626 L241 626 L342 359 Z M252 359 L57 92 L32 92 L227 359 L126 626 L151 626 L252 359 Z " />
<glyph glyph-name="guilsinglleft" unicode="&#x2039;" horiz-adv-x="205" d="M79 359 L274 626 L299 626 L104 359 L205 92 L180 92 L79 359 Z " />
<glyph glyph-name="guilsinglright" unicode="&#x203a;" horiz-adv-x="206" d="M253 359 L57 92 L32 92 L228 359 L126 626 L152 626 L253 359 Z " />
<glyph glyph-name="quotedblbase" unicode="&#x201e;" horiz-adv-x="175" d="M74 50 Q85 50 91 42 Q97 34 95 24 Q94 16 84 0 Q74 -14 64 -26 Q54 -38 50 -42 L35 -42 L51 -14 Q55 -3 51 2 Q41 12 43 24 Q45 35 54.5 42.5 Q64 50 74 50 Z M154 50 Q165 50 171 42 Q177 34 175 24 Q174 16 164 0 Q154 -14 144 -26 Q134 -38 130 -42 L115 -42 L131 -14 Q135 -3 131 2 Q121 12 123 24 Q125 35 134.5 42.5 Q144 50 154 50 Z " />
<glyph glyph-name="quotedblleft" unicode="&#x201c;" horiz-adv-x="202" d="M248 608 Q237 608 231 616 Q225 624 227 634 Q228 642 238 658 Q248 672 258 684 Q268 696 272 700 L287 700 L271 672 Q267 661 271 656 Q281 646 279 634 Q277 623 267.5 615.5 Q258 608 248 608 Z M168 608 Q157 608 151 616 Q145 624 147 634 Q148 642 158 658 Q168 672 178 684 Q188 696 192 700 L207 700 L191 672 Q187 661 191 656 Q201 646 199 634 Q197 623 187.5 615.5 Q178 608 168 608 Z " />
<glyph glyph-name="quotedblright" unicode="&#x201d;" horiz-adv-x="202" d="M185 702 Q196 702 202 694 Q208 686 206 676 Q205 668 195 652 Q185 638 175 626 Q165 614 161 610 L146 610 L161 638 Q167 648 162 654 Q152 664 154 676 Q156 687 165.5 694.5 Q175 702 185 702 Z M265 702 Q276 702 282 694 Q288 686 286 676 Q285 668 275 652 Q265 638 255 626 Q245 614 241 610 L226 610 L241 638 Q247 648 242 654 Q232 664 234 676 Q236 687 245.5 694.5 Q255 702 265 702 Z " />
<glyph glyph-name="quoteleft" unicode="&#x2018;" horiz-adv-x="122" d="M168 608 Q157 608 151 616 Q145 624 147 634 Q148 642 158 658 Q168 672 178 684 Q188 696 192 700 L207 700 L191 672 Q187 661 191 656 Q201 646 199 634 Q197 623 187.5 615.5 Q178 608 168 608 Z " />
<glyph glyph-name="quoteright" unicode="&#x2019;" horiz-adv-x="122" d="M185 702 Q196 702 202 694 Q208 686 206 676 Q205 668 195 652 Q185 638 175 626 Q165 614 161 610 L146 610 L161 638 Q167 648 162 654 Q152 664 154 676 Q156 687 165.5 694.5 Q175 702 185 702 Z " />
<glyph glyph-name="quotesinglbase" unicode="&#x201a;" horiz-adv-x="122" d="M70 50 Q81 50 87 42 Q93 34 91 24 Q90 16 80 0 Q70 -14 60 -26 Q50 -38 46 -42 L31 -42 L47 -14 Q51 -3 47 2 Q37 12 39 24 Q41 35 50.5 42.5 Q60 50 70 50 Z " />
<glyph glyph-name="uni00A0" unicode="&#xa0;" horiz-adv-x="600" d="" />
<glyph glyph-name="Euro" unicode="&#x20ac;" horiz-adv-x="426" d="M401 2 Q365 -13 326 -13 Q241 -13 202 49 Q172 96 172 172 Q172 208 180 256 L181 263 L74 263 L78 285 L185 285 L209 419 L102 419 L106 441 L213 441 Q237 576 307 648 Q370 711 453 711 Q489 711 514 700 L503 680 Q479 689 449 689 Q376 689 322 635 Q258 569 235 441 L442 441 L438 419 L231 419 L207 285 L414 285 L410 263 L203 263 L202 256 Q194 210 194 175 Q194 105 221 63 Q238 37 266 23 Q294 9 330 9 Q364 9 396 22 L401 2 Z " />
<glyph glyph-name="cent" unicode="&#xa2;" horiz-adv-x="355" d="M383 492 L394 553 Q397 571 397 587 Q397 627 376 649 Q365 662 345 669.5 Q325 677 299 677 Q247 677 211 649 Q171 617 161 553 L89 147 Q86 129 86 113 Q86 72 106 51 Q131 23 184 23 Q237 23 271 51 Q310 81 322 147 L338 239 L360 239 L344 147 Q330 72 283 35 Q246 4 191 1 L186 -28 L164 -28 L169 1 Q116 4 88 35 Q63 63 63 110 Q63 121 67 147 L139 553 Q151 626 199 665 Q238 696 292 699 L297 728 L319 728 L314 699 Q368 696 394 665 Q419 639 419 590 Q419 573 416 553 L405 492 L383 492 Z " />
<glyph glyph-name="currency" unicode="&#xa4;" horiz-adv-x="342" d="M363 301 Q349 226 302 189 Q287 178 283 176 L299 99 L278 91 L261 166 Q231 155 198 155 Q166 155 139 166 L96 91 L77 99 L121 176 Q108 186 106 189 Q81 217 81 264 Q81 275 85 301 L102 399 Q116 473 163 511 Q165 513 182 524 L166 601 L187 609 L204 534 Q234 545 267 545 Q299 545 326 534 L369 609 L388 601 L344 524 Q350 520 359 511 Q384 485 384 438 Q384 418 380 399 L363 301 Z M290 205 Q329 237 341 301 L358 399 Q361 417 361 433 Q361 474 341 495 Q315 523 263 523 Q211 523 175 495 Q136 462 124 399 L107 301 Q104 283 104 268 Q104 228 124 205 Q150 177 202 177 Q254 177 290 205 Z " />
<glyph glyph-name="dollar" unicode="&#x24;" horiz-adv-x="345" d="M376 493 L387 553 Q390 571 390 587 Q390 627 369 649 Q358 662 338 669.5 Q318 677 292 677 Q240 677 204 649 Q164 617 154 553 L152 543 Q149 525 149 508 Q149 461 175 427 Q188 410 204 399 Q220 388 244 376 Q268 363 285 350.5 Q302 338 317 319 Q347 280 347 224 Q347 206 344 186 L337 147 Q323 71 276 35 Q239 4 184 1 L179 -28 L157 -28 L162 1 Q109 4 81 35 Q56 63 56 110 Q56 121 60 147 L76 240 L98 240 L82 147 Q79 129 79 113 Q79 72 99 51 Q124 23 177 23 Q230 23 264 51 Q303 81 315 147 L322 186 Q325 206 325 222 Q325 271 299 304 Q285 322 268.5 333.5 Q252 345 230 356 Q204 370 187.5 381.5 Q171 393 156 411 Q126 452 126 504 Q126 524 130 543 L132 553 Q144 626 192 665 Q231 696 285 699 L290 728 L312 728 L307 699 Q361 696 387 665 Q412 639 412 591 Q412 573 409 553 L398 493 L376 493 Z " />
<glyph glyph-name="sterling" unicode="&#xa3;" horiz-adv-x="436" d="M407 22 L129 22 Q168 40 199 77.5 Q230 115 241 177 L246 202 Q259 273 259 299 Q259 307 257 321 L396 321 L399 343 L244 343 Q228 362 227 401 Q224 437 236 502 L246 563 Q258 628 297 659 Q333 687 385 687 Q438 687 463 659 Q483 638 483 597 Q483 581 480 563 L477 542 L499 542 L502 563 Q506 582 506 602 Q506 649 481 675 Q450 709 389 709 Q328 709 285 675 Q238 637 224 563 L214 502 Q202 442 204 396 Q205 365 215 343 L115 343 L112 321 L232 321 Q237 311 237 294 Q237 269 224 202 L219 177 Q202 79 122 42 Q104 33 87 28.5 Q70 24 58.5 23 Q47 22 44 22 L35 22 L31 0 L403 0 L407 22 Z " />
<glyph glyph-name="uni20B9" unicode="&#x20b9;" horiz-adv-x="370" d="M304 0 L276 0 L86 342 L225 342 Q279 342 313 370 Q353 401 364 466 L367 480 L111 480 L115 502 L371 502 L380 553 Q383 571 383 586 Q383 627 363 650 Q337 678 285 678 L146 678 L149 700 L288 700 L473 700 L470 678 L367 678 L380 666 Q405 638 405 590 Q405 573 402 553 L393 502 L439 502 L435 480 L389 480 L386 466 Q373 392 325 353 Q283 320 221 320 L126 320 L304 0 Z " />
<glyph glyph-name="yen" unicode="&#xa5;" horiz-adv-x="348" d="M381 226 L225 226 L216 178 L372 178 L369 156 L213 156 L185 0 L163 0 L191 156 L35 156 L38 178 L194 178 L203 226 L47 226 L51 248 L203 248 L133 700 L156 700 L222 274 L438 700 L461 700 L233 248 L385 248 L381 226 Z " />
<glyph glyph-name="plus" unicode="&#x2b;" horiz-adv-x="438" d="M464 348 L468 370 L100 370 L96 348 L464 348 Z M261 175 L326 543 L304 543 L239 175 L261 175 Z " />
<glyph glyph-name="minus" unicode="&#x2212;" horiz-adv-x="404" d="M430 348 L434 370 L100 370 L96 348 L430 348 Z " />
<glyph glyph-name="multiply" unicode="&#xd7;" horiz-adv-x="346" d="M335 221 L353 236 L139 497 L120 481 L335 221 Z M90 221 L396 481 L384 497 L77 236 L90 221 Z " />
<glyph glyph-name="divide" unicode="&#xf7;" horiz-adv-x="404" d="M430 348 L434 370 L100 370 L96 348 L430 348 Z M430 348 L434 370 L100 370 L96 348 L430 348 Z M312 470 Q314 481 307.5 489.5 Q301 498 290 498 Q279 498 269.5 489.5 Q260 481 258 470 Q256 459 262.5 451 Q269 443 280 443 Q291 443 300.5 451 Q310 459 312 470 Z M273 247 Q275 258 268 266.5 Q261 275 250 275 Q239 275 230 266.5 Q221 258 219 247 Q217 236 223.5 228 Q230 220 241 220 Q252 220 261.5 228 Q271 236 273 247 Z " />
<glyph glyph-name="equal" unicode="&#x3d;" horiz-adv-x="438" d="M481 443 L485 465 L117 465 L113 443 L481 443 Z M447 252 L451 274 L83 274 L79 252 L447 252 Z " />
<glyph glyph-name="greater" unicode="&#x3e;" horiz-adv-x="396" d="M400 359 L127 492 L131 516 L431 370 L427 348 L76 203 L80 227 L400 359 Z " />
<glyph glyph-name="less" unicode="&#x3c;" horiz-adv-x="396" d="M122 359 L396 227 L392 203 L91 348 L95 370 L447 516 L443 492 L122 359 Z " />
<glyph glyph-name="percent" unicode="&#x25;" horiz-adv-x="543" d="M429 10 Q463 10 491.5 37.5 Q520 65 527 104 L529 114 Q531 126 531 133 Q531 165 512 187 Q493 209 464 209 Q430 209 400.5 181 Q371 153 364 114 L362 104 Q360 92 360 86 Q360 54 379.5 32 Q399 10 429 10 Z M460 187 Q481 187 494.5 170.5 Q508 154 508 129 Q508 119 507 114 L505 104 Q500 74 479 53 Q458 32 433 32 Q411 32 397 48 Q383 64 383 89 Q383 99 384 104 L386 114 Q391 144 413 165.5 Q435 187 460 187 Z M204 493 Q238 493 267 520.5 Q296 548 303 588 L304 597 Q306 609 306 616 Q306 648 287 670 Q268 692 239 692 Q205 692 175.5 664 Q146 636 139 597 L138 588 Q136 574 136 568 Q136 536 155 514.5 Q174 493 204 493 Z M235 670 Q256 670 269.5 653.5 Q283 637 283 612 Q283 602 282 597 L281 588 Q275 557 254 536 Q233 515 208 515 Q186 515 172 531 Q158 547 158 571 Q158 576 160 588 L161 597 Q166 627 188 648.5 Q210 670 235 670 Z M491 700 L514 700 L176 0 L153 0 L491 700 Z " />
</font>
</svg>
