<?xml version="1.0" standalone="no"?>
<!DOCTYPE svg PUBLIC "-//W3C//DTD SVG 1.1//EN" "http://www.w3.org/Graphics/SVG/1.1/DTD/svg11.dtd" >
<svg xmlns="http://www.w3.org/2000/svg">
<metadata>
Created by FontPrep 20130207 at Wed Sep 28 15:16:36 2016
 By Tina Muller
Copyright (c) 2016 by Typetype. Designers Ivan Gladkikh &#38; Olexa Volochay. All rights reserved.
</metadata>
<defs>
<font id="04910219bcd4cd8ba99f81d54fee4d68" horiz-adv-x='1024' >
  <font-face 
    font-family="TTCorals-BoldItalic"
    font-weight="700"
    font-style="italic"
    font-stretch="normal"
    units-per-em="2048"
    panose-1="2 0 8 6 3 0 0 9 0 3"
    ascent="1638"
    descent="-410"
    x-height="983"
    cap-height="1434"
    bbox="-152 -512 2314 1925"
    underline-thickness="102"
    underline-position="-102"
    unicode-range="U+000D-F6D4"
  />
<missing-glyph horiz-adv-x="0" 
 />
    <glyph glyph-name=".notdef" horiz-adv-x="0" 
 />
    <glyph glyph-name=".null" horiz-adv-x="0" 
 />
    <glyph glyph-name=".null" horiz-adv-x="0" 
 />
    <glyph glyph-name="nonmarkingreturn" horiz-adv-x="681" 
 />
    <glyph glyph-name="CR" unicode="&#xd;" horiz-adv-x="0" 
 />
    <glyph glyph-name="space" unicode=" " horiz-adv-x="389" 
 />
    <glyph glyph-name="exclam" unicode="!" horiz-adv-x="593" 
d="M82 0l31 225h225l-31 -225h-225zM442 963l-108 -543h-164l47 543l66 471h225z" />
    <glyph glyph-name="quotedbl" unicode="&#x22;" horiz-adv-x="798" 
d="M520 942l41 512h215l-102 -512h-154zM182 942l41 512h215l-102 -512h-154z" />
    <glyph glyph-name="numbersign" unicode="#" horiz-adv-x="1249" 
d="M559 850l-98 -266h225l98 266h-225zM61 584h226l98 266h-184l24 184h226l149 400h174l-149 -400h225l149 400h175l-150 -400h184l-24 -184h-226l-98 -266h184l-26 -185h-225l-148 -399h-174l147 399h-225l-147 -399h-174l147 399h-184z" />
    <glyph glyph-name="dollar" unicode="$" horiz-adv-x="1136" 
d="M626 1167q-97 1 -158 -43t-70 -106q-17 -117 112 -169q57 -24 128 -44q72 -20 140 -49t123 -70t82 -117t12 -180q-20 -155 -150 -269t-294 -130l-37 -256h-205l37 256q-141 24 -227 103q-87 79 -115 130l-12 23l174 143q5 -21 42 -72q100 -133 298 -133q90 0 166 58
t86 128q10 72 -22 116t-89 70t-127 48t-140 48q-70 28 -123 68q-54 40 -83 112q-30 72 -12 189q18 118 126 218t251 123l36 256h205l-37 -256q118 -24 197 -86q77 -63 104 -109l-165 -153q-4 12 -31 46q-85 107 -222 107z" />
    <glyph glyph-name="percent" unicode="%" horiz-adv-x="1443" 
d="M133 0l1000 1434h174l-1000 -1434h-174zM1000 123q50 0 94 50q43 50 55 144t-16 145q-29 50 -79 50t-95 -50q-44 -51 -56 -145t17 -144q30 -50 80 -50zM1073 655q125 0 198 -94t53 -244q-20 -149 -120 -243t-225 -94t-197 94t-53 243q19 150 119 244t225 94zM385 922
q51 0 94 50t56 144q12 94 -17 144t-80 51q-51 -1 -94 -51t-55 -144q-11 -94 17 -144t79 -50zM458 1454q126 0 198 -94t53 -244t-119 -244t-225 -94t-198 94q-72 94 -52 244t119 244q98 94 224 94z" />
    <glyph glyph-name="ampersand" unicode="&#x26;" horiz-adv-x="1259" 
d="M605 1188q-46 0 -84 -37t-45 -89t6 -101t30 -76l18 -25q52 26 103 87q51 63 59 117t-16 89q-25 35 -71 35zM424 164q80 0 142 29q60 29 89 57l27 26l-240 328q-21 -7 -54 -30q-116 -80 -132 -205q-14 -93 37 -149t131 -56zM630 1372q140 0 222 -91t66 -216
q-25 -167 -195 -293q-39 -29 -64 -43l-26 -12l-2 -10l178 -256h10q68 113 90 276h226q-15 -123 -65 -235t-91 -164l-41 -52l199 -276h-267l-86 123h-10q-16 -16 -46 -40t-123 -64t-189 -39q-203 0 -306 108t-79 281q10 74 55 157t157 170q42 33 70 47l29 15v10
q-12 12 -32 34q-19 22 -46 96t-14 157q18 131 129 224t251 93z" />
    <glyph glyph-name="quotesingle" unicode="'" horiz-adv-x="460" 
d="M182 942l41 512h215l-102 -512h-154z" />
    <glyph glyph-name="parenleft" unicode="(" horiz-adv-x="665" 
d="M705 1597l-27 -184q-51 0 -92 -27q-41 -28 -84 -98q-88 -145 -148 -570q-59 -425 -11 -574q25 -72 57 -98t83 -26l-26 -184q-199 0 -295 208t-31 673q92 670 397 835q85 45 177 45z" />
    <glyph glyph-name="parenright" unicode=")" horiz-adv-x="665" 
d="M176 1413l27 184q189 0 289 -193t38 -687q-71 -487 -230 -684t-345 -197l27 184q51 0 92 27t84 97q87 143 146 574t12 571q-24 71 -56 97t-84 27z" />
    <glyph glyph-name="asterisk" unicode="*" horiz-adv-x="901" 
d="M188 1270l261 -113l8 277h184l-70 -277l293 113l27 -174l-297 -72l174 -215l-160 -123l-127 266l-200 -266l-127 123l235 215l-276 72z" />
    <glyph glyph-name="plus" unicode="+" horiz-adv-x="819" 
d="M43 532l29 205h235l37 256h205l-37 -256h236l-29 -205h-236l-37 -256h-204l37 256h-236z" />
    <glyph glyph-name="comma" unicode="," horiz-adv-x="430" 
d="M102 0h-102l31 225h225l-25 -174q-21 -146 -161 -212q-33 -15 -54 -19l-22 -4l-10 71q35 6 74 39q38 33 44 74z" />
    <glyph glyph-name="hyphen" unicode="-" horiz-adv-x="675" 
d="M53 532l29 205h512l-29 -205h-512z" />
    <glyph glyph-name="period" unicode="." horiz-adv-x="430" 
d="M0 0l31 225h225l-31 -225h-225z" />
    <glyph glyph-name="slash" unicode="/" horiz-adv-x="788" 
d="M817 1454l-672 -1720h-215l672 1720h215z" />
    <glyph glyph-name="zero" unicode="0" horiz-adv-x="1187" 
d="M516 184q104 0 198 122q93 122 128 371q34 249 -24 370t-162 121t-198 -122q-93 -122 -128 -370t23 -370q59 -122 163 -122zM684 1372q213 0 327 -179q115 -179 67 -517t-213 -517t-378 -179t-327 179t-66 517q47 338 212 517t378 179z" />
    <glyph glyph-name="one" unicode="1" horiz-adv-x="696" 
d="M340 1044h-10q-70 -61 -224 -61l25 174q137 0 238 99q41 40 65 96h174l-188 -1352h-225z" />
    <glyph glyph-name="two" unicode="2" horiz-adv-x="1126" 
d="M397 205h512l-28 -205h-850l24 184q49 35 226 153t293 220q215 191 241 375q16 114 -37 180t-153 66t-171 -62t-85 -164q-8 -59 10 -107t43 -67l22 -20l-176 -154q-77 52 -98 102q-20 50 -37 111q-16 61 0 133q27 188 167 305t353 117t320 -120t78 -320
q-23 -167 -151 -320q-52 -61 -129 -128q-77 -68 -133 -106t-134 -90t-107 -73v-10z" />
    <glyph glyph-name="three" unicode="3" horiz-adv-x="1075" 
d="M371 952q0 -18 4 -30l-213 -58q-7 11 -18 60t-3 90q21 150 151 254t310 104t280 -104t79 -254q-13 -90 -69 -160t-106 -92l-49 -25l-2 -10q7 -4 23 -11t53 -35q79 -60 101 -140t12 -152q-25 -180 -166 -295t-352 -114q-106 0 -186 30t-120 71q-81 87 -90 157l-4 28
l213 62q0 -17 13 -49q43 -105 190 -105q106 0 180 62t88 163t-40 163t-154 63h-82l26 184h82q78 0 133 50t68 134q10 84 -31 134q-41 51 -119 51t-140 -58t-62 -168z" />
    <glyph glyph-name="four" unicode="4" horiz-adv-x="1095" 
d="M266 512h328l68 481h-11l-385 -471v-10zM31 512l680 840h225l-117 -840h185l-29 -205h-184l-43 -307h-226l43 307h-563z" />
    <glyph glyph-name="five" unicode="5" horiz-adv-x="1095" 
d="M426 -20q-106 0 -186 30t-119 71q-84 90 -90 157l-4 28l213 62q0 -17 13 -49q43 -105 191 -105q107 0 192 75t99 181t-47 181t-162 75q-68 0 -127 -34t-84 -66l-24 -33l-187 51l177 748h706l-29 -205h-522l-76 -328h11q80 61 223 62q184 0 294 -130t82 -323
q-28 -192 -180 -320t-364 -128z" />
    <glyph glyph-name="six" unicode="6" horiz-adv-x="1126" 
d="M495 184q101 0 179 71t93 185t-42 186q-57 70 -157 70t-179 -72q-78 -72 -93 -184q-14 -112 42 -184t157 -72zM464 -20q-210 0 -319 145t-71 407l20 144q47 338 212 517t378 179q74 0 138 -24t103 -60q83 -76 103 -127l12 -24l-211 -113q-30 91 -105 128q-32 15 -69 15
q-94 0 -177 -89t-132 -290h10q33 40 116 76q83 37 165 37q178 0 286 -132t80 -331q-29 -198 -179 -328t-360 -130z" />
    <glyph glyph-name="seven" unicode="7" horiz-adv-x="993" 
d="M784 1147h-419l-29 -205h-225l57 410h870l-28 -205q-18 -20 -50 -56t-118 -155t-159 -245t-149 -315t-114 -376h-256q49 186 131 372t209 389q127 204 233 324l47 52v10z" />
    <glyph glyph-name="eight" unicode="8" horiz-adv-x="1105" 
d="M563 809q78 0 133 50t68 134q10 84 -31 134q-41 51 -119 51t-133 -50t-66 -135q-11 -84 29 -134t119 -50zM281 399q-13 -100 39 -162q52 -63 152 -63t173 62q72 62 86 163t-40 163t-154 62t-171 -62q-71 -63 -85 -163zM643 1372q179 0 279 -104t79 -254q-12 -90 -68 -160
t-106 -92l-49 -25l-2 -10q8 -4 24 -11t52 -35q38 -28 64 -63t42 -96t7 -133q-25 -180 -166 -295q-141 -114 -353 -114t-320 114t-83 295t194 292q38 26 62 36l27 10l2 10q-24 8 -56 35q-61 51 -80 118q-18 67 -10 124q20 150 150 254t311 104z" />
    <glyph glyph-name="nine" unicode="9" horiz-adv-x="1126" 
d="M615 1167q-101 -1 -179 -71t-93 -185t41 -185t158 -71q102 0 179 72q78 73 93 185t-41 184q-57 71 -158 71zM646 1372q210 0 319 -145t71 -408l-20 -143q-47 -338 -212 -517t-378 -179q-190 0 -306 151q-28 35 -38 59l-12 25l211 113q2 -6 5 -16q24 -77 100 -112
q32 -15 69 -16q94 0 177 89t132 290h-10q-33 -40 -117 -76q-84 -37 -166 -36q-178 0 -285 132q-106 133 -78 331t178 328t360 130z" />
    <glyph glyph-name="colon" unicode=":" horiz-adv-x="430" 
d="M106 758l31 225h225l-30 -225h-226zM0 0l31 225h225l-31 -225h-225z" />
    <glyph glyph-name="semicolon" unicode=";" horiz-adv-x="430" 
d="M106 758l31 225h225l-30 -225h-226zM102 0h-102l31 225h225l-25 -174q-21 -146 -161 -212q-33 -15 -54 -19l-22 -4l-10 71q35 6 74 39q38 33 44 74z" />
    <glyph glyph-name="less" unicode="&#x3c;" horiz-adv-x="778" 
d="M643 358l-29 -204l-567 327l25 185l661 327l-28 -205l-441 -210v-9z" />
    <glyph glyph-name="equal" unicode="=" horiz-adv-x="808" 
d="M27 348l28 205h645l-28 -205h-645zM80 717l29 205h645l-29 -205h-645z" />
    <glyph glyph-name="greater" unicode="&#x3e;" horiz-adv-x="778" 
d="M0 154l29 204l440 211v9l-379 210l29 205l567 -327l-24 -185z" />
    <glyph glyph-name="question" unicode="?" horiz-adv-x="1064" 
d="M266 0l31 225h225l-30 -225h-226zM534 809q94 0 167 62q73 63 87 163t-38 163q-54 63 -154 63t-171 -62t-87 -164h-236q27 186 167 303q139 117 353 117t322 -117t82 -295q-25 -178 -154 -288t-311 -109l-43 -225h-164l37 409q49 -20 143 -20z" />
    <glyph glyph-name="at" unicode="@" horiz-adv-x="1576" 
d="M774 481q37 1 70 21t49 41l14 20l43 307q-4 8 -10 22t-35 38q-29 23 -65 22q-66 0 -124 -63t-74 -172t26 -173q40 -64 106 -63zM722 338q-134 0 -206 100t-47 278t123 279q98 100 227 101q45 0 81 -18t50 -36l13 -18h10l8 61h164l-82 -583q18 -20 59 -21q162 0 203 277
q33 242 -93 398t-351 155q-225 0 -403 -165t-214 -429q-37 -264 94 -429t365 -165q86 -1 169 25t124 53l39 24l55 -123q-54 -42 -179 -83q-124 -40 -229 -39q-290 0 -458 208t-123 529q29 211 144 381q116 170 286 263t358 93q273 0 437 -200t122 -496q-29 -200 -132 -310
t-234 -110q-49 0 -90 17t-58 36l-16 19h-10q-72 -72 -206 -72z" />
    <glyph glyph-name="A" unicode="A" horiz-adv-x="1259" 
d="M666 1034l-246 -522h358l-102 522h-10zM825 1434l291 -1434h-235l-60 307h-502l-145 -307h-235l692 1434h194z" />
    <glyph glyph-name="B" unicode="B" horiz-adv-x="1310" 
d="M725 860q98 0 164 54t78 142q12 87 -45 140t-199 53t-227 -24l-29 -6l-49 -359h307zM664 205q120 0 196 63t92 172t-43 172t-180 64h-338l-65 -471h338zM604 0h-532l194 1393q182 61 452 61t390 -108q119 -108 96 -271q-20 -163 -162 -259q-31 -22 -51 -30l-22 -8l-2 -10
q36 -7 82 -35q47 -27 77 -59t52 -96q20 -62 10 -138q-27 -190 -186 -315t-398 -125z" />
    <glyph glyph-name="C" unicode="C" horiz-adv-x="1290" 
d="M838 1454q86 0 162 -24t151 -79q74 -54 111 -108l14 -24l-164 -154l-10 20q-6 12 -31 44q-94 120 -258 120t-303 -144t-174 -388t64 -388q99 -145 268 -145t308 139q32 32 48 54l14 22l133 -143q-8 -10 -23 -30q-14 -20 -68 -66q-54 -47 -112 -84t-150 -67t-187 -29
q-260 0 -419 208t-112 529q45 321 261 529t477 208z" />
    <glyph glyph-name="D" unicode="D" horiz-adv-x="1331" 
d="M645 1249q-98 0 -178 -30l-141 -1014h194q162 -1 300 141t172 378t-68 381q-102 144 -279 144zM688 1454q260 0 422 -207t117 -530q-29 -205 -141 -371t-270 -256t-324 -90h-420l194 1393q162 61 422 61z" />
    <glyph glyph-name="E" unicode="E" horiz-adv-x="1136" 
d="M72 0l200 1434h850l-28 -205h-625l-35 -246h522l-28 -205h-522l-80 -573h665l-28 -205h-891z" />
    <glyph glyph-name="F" unicode="F" horiz-adv-x="1054" 
d="M72 0l200 1434h830l-29 -205h-604l-35 -246h461l-29 -205h-460l-109 -778h-225z" />
    <glyph glyph-name="G" unicode="G" horiz-adv-x="1392" 
d="M838 1454q86 0 162 -24t151 -79q74 -54 111 -108l14 -24l-164 -154l-10 20q-6 12 -31 44q-94 120 -258 120t-303 -144t-174 -388t63 -388t260 -145q107 0 185 52t110 88l15 14l35 256h-338l28 205h553l-110 -799h-205l14 102h-20q-14 -14 -39 -34t-108 -54t-169 -34
q-160 0 -286 91t-191 262q-63 171 -33 384q45 321 261 529t477 208z" />
    <glyph glyph-name="H" unicode="H" horiz-adv-x="1392" 
d="M498 1434l-64 -451h594l64 451h225l-201 -1434h-225l108 778h-593l-109 -778h-225l200 1434h226z" />
    <glyph glyph-name="I" unicode="I" horiz-adv-x="573" 
d="M498 1434l-201 -1434h-225l200 1434h226z" />
    <glyph glyph-name="J" unicode="J" horiz-adv-x="696" 
d="M100 205q131 0 156 164l150 1065h225l-152 -1076q-25 -176 -125 -267t-262 -91h-133l29 205h112z" />
    <glyph glyph-name="K" unicode="K" horiz-adv-x="1249" 
d="M891 0l-324 686l-202 -205l-68 -481h-225l200 1434h226l-90 -635h10l612 635h256l-551 -574l412 -860h-256z" />
    <glyph glyph-name="L" unicode="L" horiz-adv-x="1003" 
d="M72 0l200 1434h226l-172 -1229h563l-29 -205h-788z" />
    <glyph glyph-name="M" unicode="M" horiz-adv-x="1525" 
d="M799 451h-154l-201 532h-10l-137 -983h-225l200 1434h215l273 -686h10l465 686h215l-201 -1434h-225l137 983h-10z" />
    <glyph glyph-name="N" unicode="N" horiz-adv-x="1443" 
d="M963 0l-512 1024h-11l-143 -1024h-225l200 1434h205l512 -1024h10l144 1024h225l-201 -1434h-204z" />
    <glyph glyph-name="O" unicode="O" horiz-adv-x="1474" 
d="M809 1249q-162 0 -300 -145t-173 -388t63 -387q98 -145 260 -145q163 0 303 146t173 387q35 242 -65 387t-261 145zM838 1454q260 0 418 -208t113 -530q-46 -322 -262 -529t-476 -207t-419 208t-112 529q45 321 261 529q217 208 477 208z" />
    <glyph glyph-name="P" unicode="P" horiz-adv-x="1331" 
d="M686 1249q-128 0 -197 -24l-22 -6l-88 -625h256q151 0 263 94t131 236q19 141 -72 233t-271 92zM710 1454q282 0 436 -152q153 -152 120 -380q-32 -229 -224 -381t-477 -152h-215l-53 -389h-225l194 1393q162 61 444 61z" />
    <glyph glyph-name="Q" unicode="Q" horiz-adv-x="1474" 
d="M758 297h-62l60 205h61q63 0 113 -26t69 -50l19 -27q88 113 120 337t-68 368q-100 145 -261 145q-162 0 -300 -145t-173 -388t63 -387t260 -145q49 0 101 16t76 29l26 17q-23 51 -104 51zM838 1454q260 0 418 -208t114 -529q-28 -205 -118 -344t-150 -197l-27 -22
q25 -51 107 -52h61l-61 -204h-62q-102 0 -154 49t-71 94q-111 -61 -264 -61q-260 0 -419 208t-112 529q45 321 261 529q217 208 477 208z" />
    <glyph glyph-name="R" unicode="R" horiz-adv-x="1372" 
d="M692 635q143 0 248 88t123 221t-68 219t-250 86t-249 -24l-29 -6l-82 -584h307zM742 1454q294 0 442 -144t114 -368q-12 -94 -54 -174t-92 -127q-107 -101 -179 -127l-33 -12l-2 -10l229 -492h-245l-197 430h-369l-59 -430h-225l194 1393q182 61 476 61z" />
    <glyph glyph-name="S" unicode="S" horiz-adv-x="1218" 
d="M526 184q133 0 219 62q85 62 97 142q20 140 -124 203q-65 27 -144 51q-80 24 -156 54t-138 71q-62 42 -94 118q-31 76 -16 180q23 165 165 277t359 112q86 0 163 -24t155 -76q78 -53 106 -101l17 -24l-166 -154q-5 7 -11 19q-50 97 -170 137q-53 18 -112 18
q-118 0 -188 -50t-82 -130t60 -132t182 -82q108 -30 214 -71t173 -134t46 -240q-27 -184 -187 -308q-161 -123 -407 -122q-98 0 -184 28t-166 83q-80 56 -129 126l-16 27l174 145l11 -22q7 -13 37 -49q63 -75 149 -105q86 -29 163 -29z" />
    <glyph glyph-name="T" unicode="T" 
d="M694 1229l-172 -1229h-225l172 1229h-338l29 205h901l-29 -205h-338z" />
    <glyph glyph-name="U" unicode="U" horiz-adv-x="1372" 
d="M580 -20q-236 0 -360 137t-93 354l135 963h225l-135 -963q-16 -123 56 -205t200 -82t226 82q96 82 112 205l135 963h226l-136 -963q-31 -217 -193 -354t-398 -137z" />
    <glyph glyph-name="V" unicode="V" horiz-adv-x="1198" 
d="M604 0h-215l-250 1434h236l174 -1024h10l461 1024h235z" />
    <glyph glyph-name="W" unicode="W" horiz-adv-x="1832" 
d="M1239 0h-205l-125 655h-10l-305 -655h-205l-250 1434h236l174 -1024h10l279 604l-84 420h235l195 -1024h10l461 1024h235z" />
    <glyph glyph-name="X" unicode="X" horiz-adv-x="1157" 
d="M788 0l-229 563h-10l-385 -563h-236l527 758l-285 676h236l198 -482h10l334 482h236l-473 -676l313 -758h-236z" />
    <glyph glyph-name="Y" unicode="Y" horiz-adv-x="1105" 
d="M580 901l368 533h236l-525 -748l-96 -686h-225l96 686l-315 748h235l217 -533h9z" />
    <glyph glyph-name="Z" unicode="Z" horiz-adv-x="1095" 
d="M264 205h697l-29 -205h-973l29 205l837 1014l2 10h-634l28 205h912l-29 -205l-840 -1014v-10z" />
    <glyph glyph-name="bracketleft" unicode="[" horiz-adv-x="727" 
d="M57 -164l248 1761h461l-27 -184h-245l-195 -1393h246l-27 -184h-461z" />
    <glyph glyph-name="backslash" unicode="\" horiz-adv-x="788" 
d="M360 -266l-188 1720h215l188 -1720h-215z" />
    <glyph glyph-name="bracketright" unicode="]" horiz-adv-x="727" 
d="M664 1597l-248 -1761h-461l27 184h245l195 1393h-246l27 184h461z" />
    <glyph glyph-name="asciicircum" unicode="^" horiz-adv-x="952" 
d="M682 1434l205 -656h-215l-123 441h-10l-246 -441h-215l389 656h215z" />
    <glyph glyph-name="underscore" unicode="_" horiz-adv-x="747" 
d="M-152 -358l27 184h746l-27 -184h-746z" />
    <glyph glyph-name="grave" unicode="`" horiz-adv-x="481" 
d="M391 1475l94 -267h-163l-156 267h225z" />
    <glyph glyph-name="a" unicode="a" 
d="M442 164q45 0 90 26t66 52l23 24l63 451q-2 4 -5 11q-23 53 -86 80q-28 11 -58 11q-84 0 -162 -88q-78 -87 -101 -239q-22 -152 32 -240t138 -88zM604 82h-10q-29 -35 -103 -69q-73 -34 -137 -33q-154 0 -246 138t-61 374q35 236 166 374t285 138q59 0 109 -23t73 -47
l20 -23h11l10 72h215l-98 -700q-17 -128 -11 -242l2 -41h-215z" />
    <glyph glyph-name="b" unicode="b" horiz-adv-x="1044" 
d="M420 164q100 0 180 87t102 240t-30 241q-53 88 -137 87q-49 1 -95 -25t-63 -53l-21 -24l-71 -512q35 -41 135 -41zM621 1004q155 0 247 -138t60 -378q-32 -238 -177 -373q-144 -135 -356 -135q-100 0 -186 22t-123 47l-37 23l193 1362h215l-74 -523h10q35 35 101 64
q67 29 127 29z" />
    <glyph glyph-name="c" unicode="c" horiz-adv-x="942" 
d="M463 164q63 0 119 36t82 70l24 37l137 -112q-22 -30 -66 -71q-87 -83 -202 -121q-70 -24 -141 -23q-182 0 -291 143t-78 369t180 368q150 143 332 144q129 0 215 -63t107 -101l12 -21l-162 -123q-2 4 -8 22t-35 46q-58 55 -145 55q-86 0 -167 -87q-81 -86 -104 -240
q-24 -154 34 -241t157 -87z" />
    <glyph glyph-name="d" unicode="d" horiz-adv-x="1044" 
d="M442 164q48 0 94 26t66 52l19 24l63 451q-2 4 -5 11q-23 53 -86 80q-28 11 -58 11q-84 0 -162 -88q-78 -87 -101 -239q-22 -152 32 -240t138 -88zM592 72h-10q-35 -35 -101 -64q-67 -29 -127 -28q-154 0 -246 138t-61 374q35 236 166 374t285 138q59 0 109 -23t73 -47
l20 -23h11l73 523h215l-200 -1434h-215z" />
    <glyph glyph-name="e" unicode="e" 
d="M524 819q-147 0 -223 -205h389q-8 98 -52 152t-114 53zM450 164q76 0 132 36t82 70l24 37l137 -112q-22 -30 -66 -71q-87 -83 -202 -121q-70 -24 -141 -23q-182 0 -291 143t-78 367t179 369t322 145t282 -144t77 -368l-6 -41h-635q-10 -127 49 -207t135 -80z" />
    <glyph glyph-name="f" unicode="f" horiz-adv-x="614" 
d="M518 1434h123l-27 -185h-82q-61 0 -69 -61l-29 -205h144l-27 -184h-143l-111 -799h-215l111 799h-123l26 184h123l29 205q14 106 92 176t178 70z" />
    <glyph glyph-name="g" unicode="g" horiz-adv-x="1034" 
d="M451 225q49 0 94 26t65 52l19 25l55 389q-2 4 -5 11q-23 53 -86 80q-28 11 -58 11q-90 0 -164 -79q-73 -79 -93 -218t32 -218t141 -79zM338 -287q-82 1 -157 19t-107 35l-33 18l96 174q83 -61 199 -61t183 63t83 172h-10q-33 -33 -102 -63q-68 -29 -128 -29
q-160 0 -250 129t-61 352q31 223 159 352t288 130q59 0 109 -23t73 -47l20 -23h11l10 72h215l-121 -860q-25 -170 -163 -290t-314 -120z" />
    <glyph glyph-name="h" unicode="h" horiz-adv-x="1034" 
d="M555 819q-59 1 -109 -25t-69 -53l-21 -24l-100 -717h-215l201 1434h215l-74 -523h10q34 34 108 64q73 29 140 29q131 0 203 -85t51 -223l-96 -696h-215l90 655q25 164 -119 164z" />
    <glyph glyph-name="i" unicode="i" horiz-adv-x="481" 
d="M209 1270l29 205h215l-29 -205h-215zM31 0l137 983h215l-137 -983h-215z" />
    <glyph glyph-name="j" unicode="j" horiz-adv-x="481" 
d="M209 1270l29 205h215l-29 -205h-215zM27 -20l141 1003h215l-141 -1003q-14 -106 -92 -176t-179 -70h-71l-2 184h59q60 1 70 62z" />
    <glyph glyph-name="k" unicode="k" horiz-adv-x="962" 
d="M614 0l-174 440l-143 -143l-41 -297h-215l201 1434h215l-117 -830h10l361 379h245l-348 -369l252 -614h-246z" />
    <glyph glyph-name="l" unicode="l" horiz-adv-x="532" 
d="M276 0q-100 0 -158 70t-44 176l168 1188h215l-168 -1188q-6 -61 53 -62h61l-55 -184h-72z" />
    <glyph glyph-name="m" unicode="m" horiz-adv-x="1505" 
d="M1047 819q-55 1 -103 -25t-67 -53l-19 -24l-100 -717h-215l94 676q20 143 -102 143q-55 1 -103 -25t-67 -53l-19 -24l-100 -717h-215l137 983h215l-10 -72h12q35 35 104 64q68 29 139 29t125 -31t70 -62l17 -30h16q12 14 34 34q22 21 94 55t149 34q123 0 189 -79t48 -208
l-100 -717h-215l94 676q20 143 -102 143z" />
    <glyph glyph-name="n" unicode="n" 
d="M545 819q-59 1 -109 -25t-69 -53l-21 -24l-100 -717h-215l137 983h215l-10 -72h10q34 34 108 64q73 29 140 29q131 0 203 -85t51 -223l-97 -696h-215l91 655q25 164 -119 164z" />
    <glyph glyph-name="o" unicode="o" horiz-adv-x="1044" 
d="M443 164q91 0 164 84t95 244q23 160 -26 244t-140 83q-91 1 -166 -83t-98 -244q-24 -160 28 -244t143 -84zM416 -20q-182 0 -291 144t-78 368q31 225 180 368q150 144 332 144t291 -144t78 -368q-31 -225 -180 -369q-150 -143 -332 -143z" />
    <glyph glyph-name="p" unicode="p" horiz-adv-x="1034" 
d="M524 819q-49 1 -94 -25t-65 -53l-19 -24l-63 -451q2 -4 5 -11q23 -53 86 -80q28 -11 58 -11q84 0 161 88t99 240q24 152 -30 240t-138 87zM610 1004q156 0 248 -138t60 -374t-164 -374q-131 -138 -287 -138q-59 0 -109 22t-71 47l-23 23h-10l-47 -338h-215l176 1249h215
l-10 -72h10q35 35 101 64q67 29 126 29z" />
    <glyph glyph-name="q" unicode="q" horiz-adv-x="1034" 
d="M535 819q-84 0 -162 -88q-78 -87 -101 -239q-22 -152 32 -240t138 -88q48 0 94 26t66 52l19 24l63 451q-2 4 -5 11q-23 53 -86 80q-27 11 -58 11zM700 911h11l10 72h215l-176 -1249h-215l47 338h-10q-35 -35 -101 -64q-67 -29 -127 -28q-154 0 -246 138t-61 374
q35 236 166 374t285 138q59 0 109 -23t73 -47z" />
    <glyph glyph-name="r" unicode="r" horiz-adv-x="696" 
d="M512 819q-53 1 -93 -25t-57 -53l-16 -24l-100 -717h-215l137 983h215l-10 -72h10q37 37 94 65t105 28t83 -16q34 -16 48 -30l12 -16l-137 -174q-23 51 -76 51z" />
    <glyph glyph-name="s" unicode="s" horiz-adv-x="860" 
d="M210 920q104 84 235 84q132 0 212 -64q81 -64 101 -100l12 -21l-152 -123q-6 14 -18 34t-57 55q-45 34 -99 34q-54 -1 -88 -27q-35 -26 -41 -66t25 -69t110 -53t186 -87q48 -30 75 -89t14 -141q-16 -127 -130 -217t-286 -90t-284 138q-27 32 -37 54l-13 23l170 112
q48 -143 195 -143q68 0 110 32t48 80t-38 78q-44 31 -110 54q-66 22 -130 52t-104 96t-25 172q15 108 119 192z" />
    <glyph glyph-name="t" unicode="t" horiz-adv-x="634" 
d="M307 0q-100 0 -159 70q-58 70 -44 176l78 553h-123l27 184h123l31 225l233 123l-49 -348h143l-26 -184h-144l-78 -553q-6 -61 54 -62h92l-55 -184h-103z" />
    <glyph glyph-name="u" unicode="u" 
d="M412 164q59 0 108 26t70 52l20 24l101 717h215l-138 -983h-215l9 72h-11q-35 -35 -107 -64q-73 -29 -140 -28q-131 0 -202 85t-52 222l98 696h215l-92 -655q-25 -164 121 -164z" />
    <glyph glyph-name="v" unicode="v" horiz-adv-x="870" 
d="M270 983l103 -655h10l287 655h215l-455 -983h-194l-181 983h215z" />
    <glyph glyph-name="w" unicode="w" horiz-adv-x="1280" 
d="M270 983l82 -655h10l185 430l-41 225h215l82 -655h10l266 655h215l-434 -983h-194l-64 430h-10l-182 -430h-195l-160 983h215z" />
    <glyph glyph-name="x" unicode="x" horiz-adv-x="870" 
d="M133 0h-235l378 512l-210 471h235l123 -287h10l205 287h235l-342 -471l236 -512h-236l-147 338h-10z" />
    <glyph glyph-name="y" unicode="y" horiz-adv-x="880" 
d="M119 -266h-90l26 184h56q82 0 114 92l17 41l-187 932h226l116 -625h11l262 625h225l-442 -963q-76 -162 -149 -224t-185 -62z" />
    <glyph glyph-name="z" unicode="z" horiz-adv-x="798" 
d="M489 799h-389l27 184h655l-22 -164l-518 -624l-2 -11h430l-25 -184h-696l22 164l518 624v11z" />
    <glyph glyph-name="braceleft" unicode="{" horiz-adv-x="696" 
d="M463 20h51l-27 -184h-92q-131 0 -193 75t-42 212l53 379q7 70 -15 96t-92 27h-20l27 184h20q69 0 99 27t40 96l54 379q20 137 103 212t214 74h92l-26 -184h-52q-45 0 -77 -28t-39 -74l-54 -379q-10 -82 -53 -134t-82 -65l-37 -12l-2 -8q5 -2 15 -4q10 -1 32 -17
q88 -60 68 -190l-53 -379q-5 -47 19 -75t69 -28z" />
    <glyph glyph-name="bar" unicode="|" horiz-adv-x="665" 
d="M84 -266l242 1720h215l-242 -1720h-215z" />
    <glyph glyph-name="braceright" unicode="}" horiz-adv-x="696" 
d="M227 1413h-51l27 184h92q131 -1 193 -75t42 -211l-53 -379q-8 -70 15 -96t92 -27h20l-26 -184h-21q-71 0 -101 -27t-38 -96l-53 -379q-19 -137 -103 -212t-215 -75h-92l27 184h51q47 0 79 29t38 74l53 379q12 82 55 134t80 64l37 13l2 8q-5 2 -15 4t-32 17
q-83 56 -68 190l53 379q7 45 -17 73t-71 29z" />
    <glyph glyph-name="asciitilde" unicode="~" horiz-adv-x="921" 
d="M314 707q60 1 151 -51q90 -52 129 -52t75 24t54 46l18 22l103 -82q-10 -20 -42 -60q-109 -136 -233 -134q-71 0 -161 51t-130 51t-74 -22q-36 -22 -54 -45l-19 -25l-100 82l11 22q7 13 34 46q103 127 238 127z" />
    <glyph glyph-name="nbspace" unicode="&#xa0;" horiz-adv-x="0" 
 />
    <glyph glyph-name="exclamdown" unicode="&#xa1;" horiz-adv-x="593" 
d="M188 758l31 225h225l-30 -225h-226zM354 563l-37 -481l-63 -451h-225l63 451l98 481h164z" />
    <glyph glyph-name="cent" unicode="&#xa2;" horiz-adv-x="942" 
d="M463 164q63 0 119 36t82 70l24 37l137 -112q-70 -104 -205 -167q-54 -26 -110 -38l-37 -256h-194l36 256q-131 35 -213 168t-54 335q28 201 144 329t265 171l37 267h194l-37 -267q74 -18 134 -61t83 -78l25 -35l-162 -123q-2 4 -8 22t-35 46q-58 55 -145 55
q-86 0 -167 -87q-81 -86 -104 -240q-24 -154 34 -241t157 -87z" />
    <glyph glyph-name="sterling" unicode="&#xa3;" horiz-adv-x="1044" 
d="M686 1167q-176 0 -203 -194l-20 -154h328l-27 -184h-328l-39 -277q-8 -49 -28 -85t-37 -48l-17 -10v-10h635l-28 -205h-942l28 205h62q10 4 24 12t42 47t36 94l39 277h-143l26 184h144l20 154q25 176 152 288q127 111 300 111t274 -119q24 -27 32 -45l10 -20l-180 -123
q-51 102 -160 102z" />
    <glyph glyph-name="currency" unicode="&#xa4;" horiz-adv-x="1290" 
d="M676 1167q-118 0 -178 -24l-21 -6l-80 -564h236q137 0 239 86t120 212q17 126 -67 211q-85 85 -249 85zM698 1372q270 0 414 -143t116 -351t-196 -338t-422 -130h-235l-15 -93h484l-23 -163h-483l-21 -154h-225l21 154h-133l22 163h133l15 93h-134l23 163h133l102 738
q154 61 424 61z" />
    <glyph glyph-name="yen" unicode="&#xa5;" horiz-adv-x="1105" 
d="M342 1352l219 -523h8l367 523h235l-520 -717l-8 -62h215l-22 -163h-215l-15 -93h215l-22 -163h-215l-21 -154h-225l20 154h-215l23 163h215l14 93h-215l23 163h215l8 62l-320 717h236z" />
    <glyph glyph-name="brokenbar" unicode="&#xa6;" horiz-adv-x="665" 
d="M84 -266l104 737h215l-104 -737h-215zM223 717l103 737h215l-103 -737h-215z" />
    <glyph glyph-name="section" unicode="&#xa7;" horiz-adv-x="983" 
d="M400 164q54 0 88 26t39 68q5 41 -24 74q-30 33 -80 53q-51 20 -107 50t-104 64t-75 95t-15 137t52 132q41 56 78 79l37 21v10q-8 8 -22 23q-13 16 -31 66t-11 105q15 119 119 203t237 84t212 -62t100 -102l12 -20l-151 -123q-6 15 -18 35t-58 54q-45 34 -98 34t-88 -27
t-41 -67q-5 -40 25 -74q30 -33 113 -67t177 -100q47 -34 74 -95q28 -62 16 -138t-53 -132t-78 -78l-35 -21l-2 -10q33 -33 53 -86t13 -109q-16 -118 -121 -202t-251 -84t-260 118q-26 27 -36 45l-12 21l149 123q7 -15 19 -35t58 -54t100 -34zM493 583q50 -21 64 -30
q57 37 72 133q8 64 -39 100t-102 61q-54 25 -68 34q-58 -37 -68 -119t41 -119q50 -39 100 -60z" />
    <glyph glyph-name="dieresis" unicode="&#xa8;" horiz-adv-x="645" 
d="M461 1239l28 205h195l-29 -205h-194zM133 1239l29 205h194l-28 -205h-195z" />
    <glyph glyph-name="copyright" unicode="&#xa9;" horiz-adv-x="1617" 
d="M870 1096q78 0 140 -34t84 -67l24 -32l-135 -82q-4 8 -11 20q-7 11 -39 31t-73 20q-74 0 -133 -62t-75 -173t27 -173q42 -62 116 -63q45 0 84 24t55 46l16 22l123 -71q-15 -22 -49 -55q-35 -31 -68 -53q-85 -56 -206 -56t-203 108t-58 271q23 163 135 271t246 108z
M722 123q234 0 413 165q178 165 215 429q36 264 -96 429t-365 165t-411 -165t-214 -429q-37 -264 94 -429q130 -165 364 -165zM909 1454q289 0 458 -209t125 -528t-272 -529t-518 -208q-290 0 -458 209t-123 528q29 211 144 381q116 170 286 263t358 93z" />
    <glyph glyph-name="ordfeminine" unicode="&#xaa;" horiz-adv-x="839" 
d="M444 840q41 0 77 20t52 41l17 21l43 307l-11 22q-7 14 -39 37q-31 23 -85 23q-54 1 -111 -63t-73 -173t24 -172t106 -63zM375 696q-121 0 -191 100t-45 279t123 279t227 100q45 0 84 -17t54 -36l16 -19h10l9 52h163l-65 -471q-11 -76 -15 -213v-33h-153l-4 51h-10
q-82 -72 -203 -72z" />
    <glyph glyph-name="guillemotleft" unicode="&#xab;" horiz-adv-x="993" 
d="M846 922l80 -82l-281 -324l-2 -8l191 -324l-103 -82l-274 318l26 184zM426 922l80 -82l-281 -324l-2 -8l191 -324l-103 -82l-274 318l26 184z" />
    <glyph glyph-name="logicalnot" unicode="&#xac;" horiz-adv-x="808" 
d="M47 481l29 205h645l-64 -440h-204l34 235h-440z" />
    <glyph glyph-name="uni00AD" unicode="&#xad;" horiz-adv-x="645" 
d="M51 512l29 205h481l-29 -205h-481z" />
    <glyph glyph-name="registered" unicode="&#xae;" horiz-adv-x="1617" 
d="M722 123q234 0 413 165q178 165 215 429q36 264 -96 429t-365 165t-411 -165t-214 -429q-37 -264 94 -429q130 -165 364 -165zM909 1454q289 0 458 -209t125 -528t-272 -529t-518 -208q-290 0 -458 209t-123 528q29 211 144 381q116 170 286 263t358 93zM670 614
l-37 -256h-164l96 686q131 52 281 52t226 -71q75 -71 61 -175q-9 -68 -53 -119t-81 -67l-38 -19l-3 -10l125 -277h-184l-96 256h-133zM969 850q12 102 -138 102q-78 0 -118 -20l-25 -184h143q123 0 138 102z" />
    <glyph glyph-name="macron" unicode="&#xaf;" horiz-adv-x="665" 
d="M137 1270l19 143h542l-18 -143h-543z" />
    <glyph glyph-name="degree" unicode="&#xb0;" horiz-adv-x="737" 
d="M451 1321q-61 0 -109 -43t-56 -111q-8 -69 26 -111t96 -42t108 42q47 42 57 111q8 68 -26 111q-35 43 -96 43zM391 891q-109 0 -177 81q-68 82 -52 196t107 195t200 81t175 -81t51 -196t-105 -195t-199 -81z" />
    <glyph glyph-name="plusminus" unicode="&#xb1;" horiz-adv-x="839" 
d="M-4 123l29 205h235l29 204h-236l29 205h235l37 256h205l-37 -256h236l-29 -205h-235l-29 -204h235l-28 -205h-676z" />
    <glyph glyph-name="twosuperior" unicode="&#xb2;" horiz-adv-x="665" 
d="M420 1321q-38 0 -70 -27q-31 -27 -37 -72t31 -67l10 -8l-127 -103q-33 20 -58 74q-26 55 -17 111q12 94 93 160q81 65 195 65t180 -65q66 -66 54 -160q-8 -59 -45 -119t-108 -126q-71 -65 -144 -107l-31 -17l-2 -10h246l-19 -133h-460l16 123q14 8 38 21t84 57
q132 96 188 174q55 80 61 128t-17 74t-61 27z" />
    <glyph glyph-name="threesuperior" unicode="&#xb3;" horiz-adv-x="645" 
d="M369 1167q25 0 47 23q22 22 24 56q4 34 -11 54t-40 20t-47 -20t-25 -51l5 -41l-148 -41q-2 5 -7 11t-10 30t-1 52q10 80 84 137t175 57t156 -57t45 -137q-6 -43 -34 -79t-54 -51l-24 -14l-2 -10q4 -2 11 -5t25 -19q68 -60 53 -157t-96 -163t-193 -66t-161 50
q-48 50 -63 104l149 51l5 -20q4 -11 24 -31t56 -20t67 30q31 31 39 82t-15 82t-61 31h-31l17 112h41z" />
    <glyph glyph-name="acute" unicode="&#xb4;" horiz-adv-x="481" 
d="M127 1208l172 267h225l-233 -267h-164z" />
    <glyph glyph-name="mu" unicode="&#xb5;" 
d="M412 164q59 0 108 26t70 52l20 24l101 717h215l-138 -983h-215l9 72h-11q-28 -35 -88 -64q-133 -65 -225 12h-10l-41 -286h-215l176 1249h215l-92 -655q-25 -164 121 -164z" />
    <glyph glyph-name="paragraph" unicode="&#xb6;" horiz-adv-x="1310" 
d="M610 1434h727l-26 -185h-164l-213 -1515h-195l213 1515h-174l-213 -1515h-194l114 819q-164 0 -263 126t-72 314t161 315q135 126 299 126z" />
    <glyph glyph-name="periodcentered" unicode="&#xb7;" horiz-adv-x="389" 
d="M47 481l31 226h225l-31 -226h-225z" />
    <glyph glyph-name="cedilla" unicode="&#xb8;" horiz-adv-x="573" 
d="M98 -461q-55 -1 -104 15t-72 32l-20 15l53 82q47 -31 117 -31t105 24q36 24 40 58q4 33 -16 52t-66 19h-61l28 195h134l-17 -102q76 0 119 -48t32 -126t-82 -132t-190 -53z" />
    <glyph glyph-name="onesuperior" unicode="&#xb9;" horiz-adv-x="450" 
d="M256 1239h-10q-37 -31 -99 -41l7 123q65 0 126 61q22 23 33 52h123l-100 -717h-154z" />
    <glyph glyph-name="ordmasculine" unicode="&#xba;" horiz-adv-x="819" 
d="M424 840q59 0 116 63q56 63 70 172q16 109 -22 172t-98 63t-116 -62q-56 -64 -70 -173q-15 -109 23 -172t97 -63zM511 1454q134 0 216 -108t58 -271q-23 -163 -135 -271t-246 -108t-216 106t-59 273q25 166 136 273q112 106 246 106z" />
    <glyph glyph-name="guillemotright" unicode="&#xbb;" horiz-adv-x="993" 
d="M96 840l105 82l272 -318l-27 -184l-360 -318l-82 82l281 324l2 8zM516 840l105 82l272 -318l-27 -184l-360 -318l-82 82l281 324l2 8z" />
    <glyph glyph-name="onequarter" unicode="&#xbc;" horiz-adv-x="1341" 
d="M940 297l29 205h-11l-170 -195l-2 -10h154zM1157 164h-82l-22 -164h-154l23 164h-318l21 143l364 410h164l-59 -420h82zM297 1239h-10q-37 -31 -99 -41l7 123q65 0 126 61q22 23 33 52h123l-100 -717h-154zM41 0l999 1434h174l-999 -1434h-174z" />
    <glyph glyph-name="onehalf" unicode="&#xbd;" horiz-adv-x="1443" 
d="M1298 512q-8 -60 -45 -120t-108 -125t-144 -107l-30 -17l-2 -10h245l-18 -133h-461l17 123q14 8 64 35t166 129q48 43 91 105t49 110t-16 76q-23 26 -62 26q-40 0 -70 -26t-36 -73q-6 -46 29 -67l12 -8l-127 -102q-10 6 -26 20q-14 14 -36 62t-14 102q12 94 93 160
t195 66t180 -66t54 -160zM297 1239h-10q-37 -31 -99 -41l7 123q65 0 126 61q22 23 33 52h123l-100 -717h-154zM41 0l999 1434h174l-999 -1434h-174z" />
    <glyph glyph-name="threequarters" unicode="&#xbe;" horiz-adv-x="1495" 
d="M399 1167q25 0 47 23q22 22 25 56q4 34 -11 54t-40 20q-24 0 -46 -20t-26 -51l4 -41l-147 -41q-2 5 -7 11q-4 6 -10 30t-2 52q10 80 84 137t176 57t156 -57q55 -57 45 -137q-6 -43 -35 -79t-53 -51l-24 -14l-3 -10q4 -2 20 -8t37 -37q42 -60 30 -146q-11 -87 -93 -153
t-195 -66t-160 50t-62 104l149 51l5 -20q3 -11 23 -31t57 -20q36 0 67 30q31 31 39 82t-15 82t-61 31h-31l16 112h41zM1094 297l28 205h-10l-170 -195l-2 -10h154zM1311 164h-82l-23 -164h-153l22 164h-317l20 143l365 410h164l-60 -420h82zM184 0l1000 1434h174
l-1000 -1434h-174z" />
    <glyph glyph-name="questiondown" unicode="&#xbf;" horiz-adv-x="983" 
d="M690 983l-31 -225h-225l31 225h225zM434 276q-94 0 -167 -62t-87 -162t40 -164q54 -62 154 -62t172 62q71 62 85 163h235q-27 -186 -167 -303t-353 -117q-212 0 -320 117t-83 295t154 288q130 110 313 109l26 123h164l-22 -307q-50 20 -144 20z" />
    <glyph glyph-name="Agrave" unicode="&#xc0;" horiz-adv-x="1259" 
d="M731 1864l98 -256h-163l-160 256h225zM666 1034l-246 -522h358l-102 522h-10zM825 1434l291 -1434h-235l-60 307h-502l-145 -307h-235l692 1434h194z" />
    <glyph glyph-name="Aacute" unicode="&#xc1;" horiz-adv-x="1259" 
d="M676 1608l168 256h225l-229 -256h-164zM666 1034l-246 -522h358l-102 522h-10zM825 1434l291 -1434h-235l-60 307h-502l-145 -307h-235l692 1434h194z" />
    <glyph glyph-name="Acircumflex" unicode="&#xc2;" horiz-adv-x="1259" 
d="M889 1864l149 -256h-194l-72 153l-113 -153h-194l219 256h205zM666 1034l-246 -522h358l-102 522h-10zM825 1434l291 -1434h-235l-60 307h-502l-145 -307h-235l692 1434h194z" />
    <glyph glyph-name="Atilde" unicode="&#xc3;" horiz-adv-x="1259" 
d="M668 1700q-47 0 -72 -82h-133q57 236 207 235q50 0 116 -41t86 -40q47 -1 74 81h133q-61 -236 -207 -235q-52 0 -118 41t-86 41zM666 1034l-246 -522h358l-102 522h-10zM825 1434l291 -1434h-235l-60 307h-502l-145 -307h-235l692 1434h194z" />
    <glyph glyph-name="Adieresis" unicode="&#xc4;" horiz-adv-x="1259" 
d="M827 1638l27 185h195l-27 -185h-195zM489 1638l27 185h195l-27 -185h-195zM666 1034l-246 -522h358l-102 522h-10zM825 1434l291 -1434h-235l-60 307h-502l-145 -307h-235l692 1434h194z" />
    <glyph glyph-name="Aring" unicode="&#xc5;" horiz-adv-x="1259" 
d="M797 1925q92 0 140 -54t37 -140q-11 -87 -76 -141t-157 -54t-140 54t-38 141q12 86 77 140t157 54zM758 1649q82 0 92 82q12 82 -70 81q-82 1 -94 -81q-10 -82 72 -82zM666 1034l-246 -522h358l-102 522h-10zM825 1434l291 -1434h-235l-60 307h-502l-145 -307h-235
l692 1434h194z" />
    <glyph glyph-name="AE" unicode="&#xc6;" horiz-adv-x="1710" 
d="M756 1229l-336 -717h348l100 717h-112zM696 0l43 307h-420l-145 -307h-235l692 1434h1065l-29 -205h-573l-35 -246h471l-29 -205h-471l-80 -573h615l-29 -205h-840z" />
    <glyph glyph-name="Ccedilla" unicode="&#xc7;" horiz-adv-x="1290" 
d="M559 -461q-55 -1 -104 15t-70 32l-23 15l54 82q46 -31 116 -31t106 24t40 58q4 33 -16 52t-66 19h-61l26 185q-223 26 -363 226t-96 512t259 518q216 208 477 208q86 0 162 -24t151 -79q74 -54 111 -108l14 -24l-164 -154l-10 20q-6 12 -31 44q-94 120 -258 120
t-303 -144t-174 -388t64 -388q99 -145 268 -145t308 139q32 32 48 54l14 22l133 -143q-123 -154 -312 -226q-81 -32 -165 -40l-14 -92q76 0 119 -48t31 -126t-81 -132q-71 -53 -190 -53z" />
    <glyph glyph-name="Egrave" unicode="&#xc8;" horiz-adv-x="1136" 
d="M721 1864l98 -256h-164l-159 256h225zM72 0l200 1434h850l-28 -205h-625l-35 -246h522l-28 -205h-522l-80 -573h665l-28 -205h-891z" />
    <glyph glyph-name="Eacute" unicode="&#xc9;" horiz-adv-x="1136" 
d="M625 1608l168 256h225l-230 -256h-163zM72 0l200 1434h850l-28 -205h-625l-35 -246h522l-28 -205h-522l-80 -573h665l-28 -205h-891z" />
    <glyph glyph-name="Ecircumflex" unicode="&#xca;" horiz-adv-x="1136" 
d="M864 1864l150 -256h-195l-71 153l-113 -153h-195l219 256h205zM72 0l200 1434h850l-28 -205h-625l-35 -246h522l-28 -205h-522l-80 -573h665l-28 -205h-891z" />
    <glyph glyph-name="Edieresis" unicode="&#xcb;" horiz-adv-x="1136" 
d="M803 1638l26 185h195l-27 -185h-194zM465 1638l27 185h194l-27 -185h-194zM72 0l200 1434h850l-28 -205h-625l-35 -246h522l-28 -205h-522l-80 -573h665l-28 -205h-891z" />
    <glyph glyph-name="Igrave" unicode="&#xcc;" horiz-adv-x="573" 
d="M393 1864l99 -256h-164l-160 256h225zM498 1434l-201 -1434h-225l200 1434h226z" />
    <glyph glyph-name="Iacute" unicode="&#xcd;" horiz-adv-x="573" 
d="M328 1608l168 256h225l-229 -256h-164zM498 1434l-201 -1434h-225l200 1434h226z" />
    <glyph glyph-name="Icircumflex" unicode="&#xce;" horiz-adv-x="573" 
d="M547 1864l149 -256h-194l-72 153l-113 -153h-194l219 256h205zM498 1434l-201 -1434h-225l200 1434h226z" />
    <glyph glyph-name="Idieresis" unicode="&#xcf;" horiz-adv-x="573" 
d="M485 1638l27 185h195l-27 -185h-195zM147 1638l27 185h195l-27 -185h-195zM498 1434l-201 -1434h-225l200 1434h226z" />
    <glyph glyph-name="Eth" unicode="&#xd0;" horiz-adv-x="1361" 
d="M676 1249q-109 0 -160 -24l-18 -6l-33 -236h266l-29 -205h-266l-80 -573h195q162 -1 300 141t172 378q33 236 -69 381q-102 144 -278 144zM719 1454q260 0 422 -207t116 -530q-29 -205 -141 -371t-268 -256q-158 -90 -326 -90h-420l109 778h-133l28 205h134l57 410
q162 61 422 61z" />
    <glyph glyph-name="Ntilde" unicode="&#xd1;" horiz-adv-x="1443" 
d="M760 1700q-47 0 -72 -82h-133q57 236 207 235q51 0 117 -41t86 -40q46 -1 73 81h133q-61 -236 -206 -235q-51 0 -118 41t-87 41zM963 0l-512 1024h-11l-143 -1024h-225l200 1434h205l512 -1024h10l144 1024h225l-201 -1434h-204z" />
    <glyph glyph-name="Ograve" unicode="&#xd2;" horiz-adv-x="1474" 
d="M854 1864l98 -256h-164l-159 256h225zM809 1249q-162 0 -300 -145t-173 -388t63 -387q98 -145 260 -145q163 0 303 146t173 387q35 242 -65 387t-261 145zM838 1454q260 0 418 -208t113 -530q-46 -322 -262 -529t-476 -207t-419 208t-112 529q45 321 261 529
q217 208 477 208z" />
    <glyph glyph-name="Oacute" unicode="&#xd3;" horiz-adv-x="1474" 
d="M768 1608l168 256h225l-229 -256h-164zM809 1249q-162 0 -300 -145t-173 -388t63 -387q98 -145 260 -145q163 0 303 146t173 387q35 242 -65 387t-261 145zM838 1454q260 0 418 -208t113 -530q-46 -322 -262 -529t-476 -207t-419 208t-112 529q45 321 261 529
q217 208 477 208z" />
    <glyph glyph-name="Ocircumflex" unicode="&#xd4;" horiz-adv-x="1474" 
d="M997 1864l150 -256h-195l-71 153l-113 -153h-195l220 256h204zM809 1249q-162 0 -300 -145t-173 -388t63 -387q98 -145 260 -145q163 0 303 146t173 387q35 242 -65 387t-261 145zM838 1454q260 0 418 -208t113 -530q-46 -322 -262 -529t-476 -207t-419 208t-112 529
q45 321 261 529q217 208 477 208z" />
    <glyph glyph-name="Otilde" unicode="&#xd5;" horiz-adv-x="1474" 
d="M776 1700q-47 0 -71 -82h-134q57 236 207 235q51 0 117 -41t86 -40q47 -1 74 81h133q-61 -236 -207 -235q-51 0 -118 41t-87 41zM809 1249q-162 0 -300 -145t-173 -388t63 -387q98 -145 260 -145q163 0 303 146t173 387q35 242 -65 387t-261 145zM838 1454
q260 0 418 -208t113 -530q-46 -322 -262 -529t-476 -207t-419 208t-112 529q45 321 261 529q217 208 477 208z" />
    <glyph glyph-name="Odieresis" unicode="&#xd6;" horiz-adv-x="1474" 
d="M936 1638l27 185h194l-27 -185h-194zM598 1638l27 185h194l-26 -185h-195zM809 1249q-162 0 -300 -145t-173 -388t63 -387q98 -145 260 -145q163 0 303 146t173 387q35 242 -65 387t-261 145zM838 1454q260 0 418 -208t113 -530q-46 -322 -262 -529t-476 -207t-419 208
t-112 529q45 321 261 529q217 208 477 208z" />
    <glyph glyph-name="multiply" unicode="&#xd7;" horiz-adv-x="819" 
d="M252 635l-158 184l164 144l158 -185l211 185l123 -144l-211 -184l157 -184l-161 -144l-160 185l-209 -185l-125 144z" />
    <glyph glyph-name="Oslash" unicode="&#xd8;" horiz-adv-x="1474" 
d="M659 184q163 0 303 146t173 387q22 198 -21 291l-16 36l-633 -788q72 -72 194 -72zM336 717q-21 -195 20 -291l15 -37l633 789q-72 72 -195 71q-162 0 -300 -145t-173 -387zM838 1454q82 0 158 -22t112 -48l35 -22l61 72h205l-149 -195q41 -41 72 -129q32 -88 38 -137
q19 -158 0 -256q-47 -322 -263 -530t-476 -207q-82 0 -159 22t-112 47l-34 23l-60 -72h-205l150 195q-5 5 -30 42q-24 36 -49 105q-25 70 -32 119q-19 157 0 256q45 321 261 529t477 208z" />
    <glyph glyph-name="Ugrave" unicode="&#xd9;" horiz-adv-x="1372" 
d="M803 1864l98 -256h-164l-159 256h225zM580 -20q-236 0 -360 137t-93 354l135 963h225l-135 -963q-16 -123 56 -205t200 -82t226 82q96 82 112 205l135 963h226l-136 -963q-31 -217 -193 -354t-398 -137z" />
    <glyph glyph-name="Uacute" unicode="&#xda;" horiz-adv-x="1372" 
d="M707 1608l167 256h226l-230 -256h-163zM580 -20q-236 0 -360 137t-93 354l135 963h225l-135 -963q-16 -123 56 -205t200 -82t226 82q96 82 112 205l135 963h226l-136 -963q-31 -217 -193 -354t-398 -137z" />
    <glyph glyph-name="Ucircumflex" unicode="&#xdb;" horiz-adv-x="1372" 
d="M946 1864l150 -256h-195l-72 153l-112 -153h-195l219 256h205zM580 -20q-236 0 -360 137t-93 354l135 963h225l-135 -963q-16 -123 56 -205t200 -82t226 82q96 82 112 205l135 963h226l-136 -963q-31 -217 -193 -354t-398 -137z" />
    <glyph glyph-name="Udieresis" unicode="&#xdc;" horiz-adv-x="1372" 
d="M885 1638l26 185h195l-27 -185h-194zM547 1638l26 185h195l-27 -185h-194zM580 -20q-236 0 -360 137t-93 354l135 963h225l-135 -963q-16 -123 56 -205t200 -82t226 82q96 82 112 205l135 963h226l-136 -963q-31 -217 -193 -354t-398 -137z" />
    <glyph glyph-name="Yacute" unicode="&#xdd;" horiz-adv-x="1105" 
d="M573 1608l168 256h226l-230 -256h-164zM580 901l368 533h236l-525 -748l-96 -686h-225l96 686l-315 748h235l217 -533h9z" />
    <glyph glyph-name="Thorn" unicode="&#xde;" horiz-adv-x="1320" 
d="M664 1085q-128 0 -197 -24l-23 -6l-86 -604h256q152 0 264 92t130 226t-74 225t-270 91zM498 1434l-25 -174q96 31 240 30q270 0 415 -150q144 -150 114 -372q-30 -221 -221 -372t-476 -150h-215l-33 -246h-225l200 1434h226z" />
    <glyph glyph-name="germandbls" unicode="&#xdf;" horiz-adv-x="1075" 
d="M645 1249q-98 0 -173 -83t-97 -244l-129 -922h-215l129 922q33 238 171 374t320 138h359q-14 -102 -48 -190t-73 -136q-83 -105 -135 -133l-25 -12l-2 -11q37 -6 90 -41t86 -80t52 -135t3 -204q-31 -225 -180 -369q-150 -143 -332 -143q-58 0 -118 20l53 174
q31 -10 82 -10q98 0 173 83q76 83 98 244t-27 245t-142 83h-82l25 174q80 0 150 69t100 187h-113z" />
    <glyph glyph-name="agrave" unicode="&#xe0;" 
d="M586 1475l94 -267h-164l-156 267h226zM442 164q45 0 90 26t66 52l23 24l63 451q-2 4 -5 11q-23 53 -86 80q-28 11 -58 11q-84 0 -162 -88q-78 -87 -101 -239q-22 -152 32 -240t138 -88zM604 82h-10q-29 -35 -103 -69q-73 -34 -137 -33q-154 0 -246 138t-61 374
q35 236 166 374t285 138q59 0 109 -23t73 -47l20 -23h11l10 72h215l-98 -700q-17 -128 -11 -242l2 -41h-215z" />
    <glyph glyph-name="aacute" unicode="&#xe1;" 
d="M506 1208l172 267h225l-233 -267h-164zM442 164q45 0 90 26t66 52l23 24l63 451q-2 4 -5 11q-23 53 -86 80q-28 11 -58 11q-84 0 -162 -88q-78 -87 -101 -239q-22 -152 32 -240t138 -88zM604 82h-10q-29 -35 -103 -69q-73 -34 -137 -33q-154 0 -246 138t-61 374
q35 236 166 374t285 138q59 0 109 -23t73 -47l20 -23h11l10 72h215l-98 -700q-17 -128 -11 -242l2 -41h-215z" />
    <glyph glyph-name="acircumflex" unicode="&#xe2;" 
d="M725 1475l145 -267h-184l-70 154h-10l-114 -154h-185l223 267h195zM442 164q45 0 90 26t66 52l23 24l63 451q-2 4 -5 11q-23 53 -86 80q-28 11 -58 11q-84 0 -162 -88q-78 -87 -101 -239q-22 -152 32 -240t138 -88zM604 82h-10q-29 -35 -103 -69q-73 -34 -137 -33
q-154 0 -246 138t-61 374q35 236 166 374t285 138q59 0 109 -23t73 -47l20 -23h11l10 72h215l-98 -700q-17 -128 -11 -242l2 -41h-215z" />
    <glyph glyph-name="atilde" unicode="&#xe3;" 
d="M716 1219q-58 0 -124 41t-86 40q-49 0 -74 -81h-133q33 125 88 185t113 60t125 -41q66 -41 86 -41q48 0 73 82h134q-32 -125 -88 -185t-114 -60zM442 164q45 0 90 26t66 52l23 24l63 451q-2 4 -5 11q-23 53 -86 80q-28 11 -58 11q-84 0 -162 -88q-78 -87 -101 -239
q-22 -152 32 -240t138 -88zM604 82h-10q-29 -35 -103 -69q-73 -34 -137 -33q-154 0 -246 138t-61 374q35 236 166 374t285 138q59 0 109 -23t73 -47l20 -23h11l10 72h215l-98 -700q-17 -128 -11 -242l2 -41h-215z" />
    <glyph glyph-name="adieresis" unicode="&#xe4;" 
d="M662 1239l28 205h195l-29 -205h-194zM334 1239l28 205h195l-29 -205h-194zM442 164q45 0 90 26t66 52l23 24l63 451q-2 4 -5 11q-23 53 -86 80q-28 11 -58 11q-84 0 -162 -88q-78 -87 -101 -239q-22 -152 32 -240t138 -88zM604 82h-10q-29 -35 -103 -69q-73 -34 -137 -33
q-154 0 -246 138t-61 374q35 236 166 374t285 138q59 0 109 -23t73 -47l20 -23h11l10 72h215l-98 -700q-17 -128 -11 -242l2 -41h-215z" />
    <glyph glyph-name="aring" unicode="&#xe5;" 
d="M637 1556q84 0 136 -60t41 -144t-81 -144q-69 -60 -153 -61q-84 0 -136 60q-51 61 -41 145q12 84 81 144t153 60zM622 1444q-38 0 -69 -26t-36 -66q-5 -39 18 -66q23 -26 61 -26t70 26q31 26 34 66q6 40 -16 66q-24 26 -62 26zM442 164q45 0 90 26t66 52l23 24l63 451
q-2 4 -5 11q-23 53 -86 80q-28 11 -58 11q-84 0 -162 -88q-78 -87 -101 -239q-22 -152 32 -240t138 -88zM604 82h-10q-29 -35 -103 -69q-73 -34 -137 -33q-154 0 -246 138t-61 374q35 236 166 374t285 138q59 0 109 -23t73 -47l20 -23h11l10 72h215l-98 -700
q-17 -128 -11 -242l2 -41h-215z" />
    <glyph glyph-name="ae" unicode="&#xe6;" horiz-adv-x="1546" 
d="M1092 1004q168 0 269 -142t69 -370l-7 -41h-594q-10 -129 40 -208t137 -79q55 0 100 33t63 65l19 35l149 -102q-6 -9 -16 -23t-46 -52q-74 -78 -161 -110q-250 -91 -394 88q-22 27 -30 45l-8 21h-8q-8 -17 -50 -57q-40 -41 -76 -65q-91 -62 -204 -62q-166 0 -254 91
t-70 225t134 226t280 92h184q-4 104 -49 154t-108 51q-63 0 -117 -31t-78 -61l-26 -31l-115 123q19 25 60 61q140 121 302 124q90 0 160 -46t94 -94l25 -45h8q8 17 48 57t74 64q88 64 196 64zM1067 819q-63 0 -119 -54t-84 -151h348q-2 96 -42 150t-103 55zM410 451
q-143 0 -162 -144q-20 -143 127 -143q74 0 137 70t90 217h-192z" />
    <glyph glyph-name="ccedilla" unicode="&#xe7;" horiz-adv-x="942" 
d="M354 -461q-55 -1 -104 15t-70 32l-22 15l53 82q47 -31 117 -31t105 24q36 24 40 58q4 33 -16 52t-66 19h-61l26 185q-154 16 -246 152t-62 356t179 362q150 143 332 144q129 0 215 -63t107 -101l12 -21l-162 -123q-2 4 -8 22t-35 46q-58 55 -145 55q-86 0 -167 -87
q-81 -86 -104 -240q-24 -154 34 -241t157 -87q63 0 119 36t82 70l24 37l137 -112q-6 -7 -15 -19t-43 -44q-130 -122 -278 -142l-14 -92q76 0 119 -48t32 -126t-82 -132t-190 -53z" />
    <glyph glyph-name="egrave" unicode="&#xe8;" 
d="M575 1475l95 -267h-164l-156 267h225zM524 819q-147 0 -223 -205h389q-8 98 -52 152t-114 53zM450 164q76 0 132 36t82 70l24 37l137 -112q-22 -30 -66 -71q-87 -83 -202 -121q-70 -24 -141 -23q-182 0 -291 143t-78 367t179 369t322 145t282 -144t77 -368l-6 -41h-635
q-10 -127 49 -207t135 -80z" />
    <glyph glyph-name="eacute" unicode="&#xe9;" 
d="M496 1208l172 267h225l-234 -267h-163zM524 819q-147 0 -223 -205h389q-8 98 -52 152t-114 53zM450 164q76 0 132 36t82 70l24 37l137 -112q-22 -30 -66 -71q-87 -83 -202 -121q-70 -24 -141 -23q-182 0 -291 143t-78 367t179 369t322 145t282 -144t77 -368l-6 -41h-635
q-10 -127 49 -207t135 -80z" />
    <glyph glyph-name="ecircumflex" unicode="&#xea;" 
d="M715 1475l145 -267h-184l-70 154h-10l-115 -154h-184l223 267h195zM524 819q-147 0 -223 -205h389q-8 98 -52 152t-114 53zM450 164q76 0 132 36t82 70l24 37l137 -112q-22 -30 -66 -71q-87 -83 -202 -121q-70 -24 -141 -23q-182 0 -291 143t-78 367t179 369t322 145
t282 -144t77 -368l-6 -41h-635q-10 -127 49 -207t135 -80z" />
    <glyph glyph-name="edieresis" unicode="&#xeb;" 
d="M651 1239l29 205h194l-28 -205h-195zM324 1239l28 205h195l-29 -205h-194zM524 819q-147 0 -223 -205h389q-8 98 -52 152t-114 53zM450 164q76 0 132 36t82 70l24 37l137 -112q-22 -30 -66 -71q-87 -83 -202 -121q-70 -24 -141 -23q-182 0 -291 143t-78 367t179 369
t322 145t282 -144t77 -368l-6 -41h-635q-10 -127 49 -207t135 -80z" />
    <glyph glyph-name="igrave" unicode="&#xec;" horiz-adv-x="481" 
d="M299 1475l94 -267h-164l-155 267h225zM31 0l137 983h215l-137 -983h-215z" />
    <glyph glyph-name="iacute" unicode="&#xed;" horiz-adv-x="481" 
d="M219 1208l172 267h225l-233 -267h-164zM31 0l137 983h215l-137 -983h-215z" />
    <glyph glyph-name="icircumflex" unicode="&#xee;" horiz-adv-x="481" 
d="M442 1475l146 -267h-185l-69 154h-10l-115 -154h-184l223 267h194zM31 0l137 983h215l-137 -983h-215z" />
    <glyph glyph-name="idieresis" unicode="&#xef;" horiz-adv-x="481" 
d="M379 1239l29 205h194l-29 -205h-194zM51 1239l29 205h194l-28 -205h-195zM31 0l137 983h215l-137 -983h-215z" />
    <glyph glyph-name="eth" unicode="&#xf0;" horiz-adv-x="1044" 
d="M528 778q-98 0 -167 -77t-91 -231t26 -230t146 -76t166 76t92 231q23 155 -25 231q-49 76 -147 76zM416 -20q-188 0 -295 136q-105 136 -75 353t170 355t308 139q117 0 178 -55t76 -93l8 -16h11q-16 115 -49 209t-58 131l-24 39l-244 -134l-37 103l211 113
q-52 55 -112 98t-95 59l-35 17h215q84 -51 148 -113l211 113l37 -103l-177 -92q10 -10 36 -50t63 -124t48 -157q29 -201 7 -324l-16 -113q-31 -219 -176 -355q-146 -136 -334 -136z" />
    <glyph glyph-name="ntilde" unicode="&#xf1;" 
d="M706 1219q-58 0 -124 41t-86 40q-49 0 -74 -81h-133q33 125 88 185t113 60t124 -41t86 -41q49 0 74 82h133q-33 -125 -88 -185t-113 -60zM545 819q-59 1 -109 -25t-69 -53l-21 -24l-100 -717h-215l137 983h215l-10 -72h10q34 34 108 64q73 29 140 29q131 0 203 -85
t51 -223l-97 -696h-215l91 655q25 164 -119 164z" />
    <glyph glyph-name="ograve" unicode="&#xf2;" horiz-adv-x="1044" 
d="M586 1475l94 -267h-164l-156 267h226zM443 164q91 0 164 84t95 244q23 160 -26 244t-140 83q-91 1 -166 -83t-98 -244q-24 -160 28 -244t143 -84zM416 -20q-182 0 -291 144t-78 368q31 225 180 368q150 144 332 144t291 -144t78 -368q-31 -225 -180 -369
q-150 -143 -332 -143z" />
    <glyph glyph-name="oacute" unicode="&#xf3;" horiz-adv-x="1044" 
d="M485 1208l172 267h226l-234 -267h-164zM443 164q91 0 164 84t95 244q23 160 -26 244t-140 83q-91 1 -166 -83t-98 -244q-24 -160 28 -244t143 -84zM416 -20q-182 0 -291 144t-78 368q31 225 180 368q150 144 332 144t291 -144t78 -368q-31 -225 -180 -369
q-150 -143 -332 -143z" />
    <glyph glyph-name="ocircumflex" unicode="&#xf4;" horiz-adv-x="1044" 
d="M725 1475l145 -267h-184l-70 154h-10l-114 -154h-185l223 267h195zM443 164q91 0 164 84t95 244q23 160 -26 244t-140 83q-91 1 -166 -83t-98 -244q-24 -160 28 -244t143 -84zM416 -20q-182 0 -291 144t-78 368q31 225 180 368q150 144 332 144t291 -144t78 -368
q-31 -225 -180 -369q-150 -143 -332 -143z" />
    <glyph glyph-name="otilde" unicode="&#xf5;" horiz-adv-x="1044" 
d="M716 1219q-58 0 -124 41t-86 40q-49 0 -74 -81h-133q33 125 88 185t113 60t125 -41q66 -41 86 -41q48 0 73 82h134q-32 -125 -88 -185t-114 -60zM443 164q91 0 164 84t95 244q23 160 -26 244t-140 83q-91 1 -166 -83t-98 -244q-24 -160 28 -244t143 -84zM416 -20
q-182 0 -291 144t-78 368q31 225 180 368q150 144 332 144t291 -144t78 -368q-31 -225 -180 -369q-150 -143 -332 -143z" />
    <glyph glyph-name="odieresis" unicode="&#xf6;" horiz-adv-x="1044" 
d="M662 1239l28 205h195l-29 -205h-194zM334 1239l28 205h195l-29 -205h-194zM443 164q91 0 164 84t95 244q23 160 -26 244t-140 83q-91 1 -166 -83t-98 -244q-24 -160 28 -244t143 -84zM416 -20q-182 0 -291 144t-78 368q31 225 180 368q150 144 332 144t291 -144t78 -368
q-31 -225 -180 -369q-150 -143 -332 -143z" />
    <glyph glyph-name="divide" unicode="&#xf7;" horiz-adv-x="839" 
d="M244 215l28 195h205l-28 -195h-205zM53 532l29 205h676l-29 -205h-676zM336 860l26 195h205l-26 -195h-205z" />
    <glyph glyph-name="oslash" unicode="&#xf8;" horiz-adv-x="1044" 
d="M452 164q82 0 165 96t93 313q1 51 -5 82l-369 -450q34 -41 116 -41zM526 819q-80 1 -156 -83q-75 -84 -98 -244q-6 -40 -6 -82t4 -82l371 450q-35 41 -115 41zM416 -20q-54 0 -106 15t-77 30l-24 16l-35 -41h-164l111 133q-12 14 -29 41q-16 26 -38 120t-7 198
q31 225 180 368q150 143 332 144q55 0 107 -16t75 -30l25 -16l37 41h164l-111 -133q12 -14 28 -41t38 -120q20 -93 6 -197q-31 -225 -180 -369q-150 -143 -332 -143z" />
    <glyph glyph-name="ugrave" unicode="&#xf9;" 
d="M565 1475l94 -267h-163l-156 267h225zM412 164q59 0 108 26t70 52l20 24l101 717h215l-138 -983h-215l9 72h-11q-35 -35 -107 -64q-73 -29 -140 -28q-131 0 -202 85t-52 222l98 696h215l-92 -655q-25 -164 121 -164z" />
    <glyph glyph-name="uacute" unicode="&#xfa;" 
d="M485 1208l172 267h226l-234 -267h-164zM412 164q59 0 108 26t70 52l20 24l101 717h215l-138 -983h-215l9 72h-11q-35 -35 -107 -64q-73 -29 -140 -28q-131 0 -202 85t-52 222l98 696h215l-92 -655q-25 -164 121 -164z" />
    <glyph glyph-name="ucircumflex" unicode="&#xfb;" 
d="M715 1475l145 -267h-184l-70 154h-10l-115 -154h-184l223 267h195zM412 164q59 0 108 26t70 52l20 24l101 717h215l-138 -983h-215l9 72h-11q-35 -35 -107 -64q-73 -29 -140 -28q-131 0 -202 85t-52 222l98 696h215l-92 -655q-25 -164 121 -164z" />
    <glyph glyph-name="udieresis" unicode="&#xfc;" 
d="M651 1239l29 205h194l-28 -205h-195zM324 1239l28 205h195l-29 -205h-194zM412 164q59 0 108 26t70 52l20 24l101 717h215l-138 -983h-215l9 72h-11q-35 -35 -107 -64q-73 -29 -140 -28q-131 0 -202 85t-52 222l98 696h215l-92 -655q-25 -164 121 -164z" />
    <glyph glyph-name="yacute" unicode="&#xfd;" horiz-adv-x="880" 
d="M424 1208l172 267h225l-233 -267h-164zM119 -266h-90l26 184h56q82 0 114 92l17 41l-187 932h226l116 -625h11l262 625h225l-442 -963q-76 -162 -149 -224t-185 -62z" />
    <glyph glyph-name="thorn" unicode="&#xfe;" horiz-adv-x="1044" 
d="M535 819q-49 1 -95 -25t-63 -53l-21 -24l-63 -451q2 -4 5 -11q23 -53 86 -80q28 -11 58 -11q84 0 161 88t99 240q23 152 -30 240t-137 87zM621 1004q155 0 247 -138t60 -374t-164 -374q-131 -138 -287 -138q-59 0 -109 22t-73 47l-21 23h-10l-47 -338h-215l240 1700h215
l-74 -523h10q35 35 101 64q67 29 127 29z" />
    <glyph glyph-name="ydieresis" unicode="&#xff;" horiz-adv-x="880" 
d="M580 1239l28 205h195l-29 -205h-194zM252 1239l29 205h194l-29 -205h-194zM119 -266h-90l26 184h56q82 0 114 92l17 41l-187 932h226l116 -625h11l262 625h225l-442 -963q-76 -162 -149 -224t-185 -62z" />
    <glyph glyph-name="Amacron" unicode="&#x100;" horiz-adv-x="1259" 
d="M481 1659l23 153h553l-23 -153h-553zM666 1034l-246 -522h358l-102 522h-10zM825 1434l291 -1434h-235l-60 307h-502l-145 -307h-235l692 1434h194z" />
    <glyph glyph-name="amacron" unicode="&#x101;" 
d="M328 1270l18 143h543l-19 -143h-542zM442 164q45 0 90 26t66 52l23 24l63 451q-2 4 -5 11q-23 53 -86 80q-28 11 -58 11q-84 0 -162 -88q-78 -87 -101 -239q-22 -152 32 -240t138 -88zM604 82h-10q-29 -35 -103 -69q-73 -34 -137 -33q-154 0 -246 138t-61 374
q35 236 166 374t285 138q59 0 109 -23t73 -47l20 -23h11l10 72h215l-98 -700q-17 -128 -11 -242l2 -41h-215z" />
    <glyph glyph-name="Abreve" unicode="&#x102;" horiz-adv-x="1259" 
d="M752 1608q-121 0 -186 70t-56 186h143q0 -55 32 -89t85 -34t93 34t57 89h143q-23 -116 -107 -186t-204 -70zM666 1034l-246 -522h358l-102 522h-10zM825 1434l291 -1434h-235l-60 307h-502l-145 -307h-235l692 1434h194z" />
    <glyph glyph-name="abreve" unicode="&#x103;" 
d="M589 1208q-245 0 -239 267h144q-2 -68 28 -106t84 -38q115 0 154 144h143q-69 -267 -314 -267zM442 164q45 0 90 26t66 52l23 24l63 451q-2 4 -5 11q-23 53 -86 80q-28 11 -58 11q-84 0 -162 -88q-78 -87 -101 -239q-22 -152 32 -240t138 -88zM604 82h-10
q-29 -35 -103 -69q-73 -34 -137 -33q-154 0 -246 138t-61 374q35 236 166 374t285 138q59 0 109 -23t73 -47l20 -23h11l10 72h215l-98 -700q-17 -128 -11 -242l2 -41h-215z" />
    <glyph glyph-name="Aogonek" unicode="&#x104;" horiz-adv-x="1259" 
d="M666 1034l-246 -522h358l-102 522h-10zM954 -338q72 0 138 31l30 -82q-90 -61 -200 -61t-158 48q-47 48 -36 124q10 76 74 144t124 101l57 33h-102l-60 307h-502l-145 -307h-235l692 1434h194l291 -1434q-71 -40 -147 -120q-76 -81 -84 -136q-12 -82 69 -82z" />
    <glyph glyph-name="aogonek" unicode="&#x105;" 
d="M442 164q45 0 90 26t66 52l23 24l63 451q-2 4 -5 11q-23 53 -86 80q-28 11 -58 11q-84 0 -162 -88q-78 -87 -101 -239q-22 -152 32 -240t138 -88zM668 -338q71 0 137 31l31 -82q-90 -61 -200 -61t-158 48t-37 124t75 144t123 101l57 33h-82l-10 82h-10q-29 -35 -103 -69
q-73 -34 -137 -33q-154 0 -246 138t-61 374q35 236 166 374t285 138q59 0 109 -23t73 -47l20 -23h11l10 72h215l-98 -700q-17 -128 -11 -242l2 -41q-72 -40 -147 -121q-75 -80 -84 -135q-12 -82 70 -82z" />
    <glyph glyph-name="Cacute" unicode="&#x106;" horiz-adv-x="1290" 
d="M768 1608l168 256h225l-229 -256h-164zM838 1454q86 0 162 -24t151 -79q74 -54 111 -108l14 -24l-164 -154l-10 20q-6 12 -31 44q-94 120 -258 120t-303 -144t-174 -388t64 -388q99 -145 268 -145t308 139q32 32 48 54l14 22l133 -143q-8 -10 -23 -30q-14 -20 -68 -66
q-54 -47 -112 -84t-150 -67t-187 -29q-260 0 -419 208t-112 529q45 321 261 529t477 208z" />
    <glyph glyph-name="cacute" unicode="&#x107;" horiz-adv-x="942" 
d="M485 1208l172 267h226l-234 -267h-164zM463 164q63 0 119 36t82 70l24 37l137 -112q-22 -30 -66 -71q-87 -83 -202 -121q-70 -24 -141 -23q-182 0 -291 143t-78 369t180 368q150 143 332 144q129 0 215 -63t107 -101l12 -21l-162 -123q-2 4 -8 22t-35 46q-58 55 -145 55
q-86 0 -167 -87q-81 -86 -104 -240q-24 -154 34 -241t157 -87z" />
    <glyph glyph-name="Ccircumflex" unicode="&#x108;" horiz-adv-x="1290" 
d="M997 1864l150 -256h-195l-71 153l-113 -153h-195l220 256h204zM838 1454q86 0 162 -24t151 -79q74 -54 111 -108l14 -24l-164 -154l-10 20q-6 12 -31 44q-94 120 -258 120t-303 -144t-174 -388t64 -388q99 -145 268 -145t308 139q32 32 48 54l14 22l133 -143
q-8 -10 -23 -30q-14 -20 -68 -66q-54 -47 -112 -84t-150 -67t-187 -29q-260 0 -419 208t-112 529q45 321 261 529t477 208z" />
    <glyph glyph-name="ccircumflex" unicode="&#x109;" horiz-adv-x="942" 
d="M725 1475l145 -267h-184l-70 154h-10l-114 -154h-185l223 267h195zM463 164q63 0 119 36t82 70l24 37l137 -112q-22 -30 -66 -71q-87 -83 -202 -121q-70 -24 -141 -23q-182 0 -291 143t-78 369t180 368q150 143 332 144q129 0 215 -63t107 -101l12 -21l-162 -123
q-2 4 -8 22t-35 46q-58 55 -145 55q-86 0 -167 -87q-81 -86 -104 -240q-24 -154 34 -241t157 -87z" />
    <glyph glyph-name="Ccaron" unicode="&#x10c;" horiz-adv-x="1290" 
d="M758 1608l-150 256h195l71 -154l113 154h195l-219 -256h-205zM838 1454q86 0 162 -24t151 -79q74 -54 111 -108l14 -24l-164 -154l-10 20q-6 12 -31 44q-94 120 -258 120t-303 -144t-174 -388t64 -388q99 -145 268 -145t308 139q32 32 48 54l14 22l133 -143
q-8 -10 -23 -30q-14 -20 -68 -66q-54 -47 -112 -84t-150 -67t-187 -29q-260 0 -419 208t-112 529q45 321 261 529t477 208z" />
    <glyph glyph-name="ccaron" unicode="&#x10d;" horiz-adv-x="942" 
d="M492 1208l-146 267h184l70 -154h10l115 154h184l-223 -267h-194zM463 164q63 0 119 36t82 70l24 37l137 -112q-22 -30 -66 -71q-87 -83 -202 -121q-70 -24 -141 -23q-182 0 -291 143t-78 369t180 368q150 143 332 144q129 0 215 -63t107 -101l12 -21l-162 -123
q-2 4 -8 22t-35 46q-58 55 -145 55q-86 0 -167 -87q-81 -86 -104 -240q-24 -154 34 -241t157 -87z" />
    <glyph glyph-name="Dcaron" unicode="&#x10e;" horiz-adv-x="1331" 
d="M594 1608l-150 256h195l72 -154l112 154h195l-219 -256h-205zM645 1249q-98 0 -178 -30l-141 -1014h194q162 -1 300 141t172 378t-68 381q-102 144 -279 144zM688 1454q260 0 422 -207t117 -530q-29 -205 -141 -371t-270 -256t-324 -90h-420l194 1393q162 61 422 61z" />
    <glyph glyph-name="dcaron" unicode="&#x10f;" horiz-adv-x="1177" 
d="M1206 1229h-102l29 205h225l-23 -154q-10 -82 -64 -138t-104 -73l-47 -14l-20 71q32 6 66 36t40 67zM442 164q48 0 94 26t66 52l19 24l63 451q-2 4 -5 11q-23 53 -86 80q-28 11 -58 11q-84 0 -162 -88q-78 -87 -101 -239q-22 -152 32 -240t138 -88zM592 72h-10
q-35 -35 -101 -64q-67 -29 -127 -28q-154 0 -246 138t-61 374q35 236 166 374t285 138q59 0 109 -23t73 -47l20 -23h11l73 523h215l-200 -1434h-215z" />
    <glyph glyph-name="Dcroat" unicode="&#x110;" horiz-adv-x="1361" 
d="M676 1249q-109 0 -160 -24l-18 -6l-33 -236h266l-29 -205h-266l-80 -573h195q162 -1 300 141t172 378q33 236 -69 381q-102 144 -278 144zM719 1454q260 0 422 -207t116 -530q-29 -205 -141 -371t-268 -256q-158 -90 -326 -90h-420l109 778h-133l28 205h134l57 410
q162 61 422 61z" />
    <glyph glyph-name="dcroat" unicode="&#x111;" horiz-adv-x="1044" 
d="M526 737q-94 0 -168 -77q-74 -78 -92 -210t34 -209t142 -77q48 0 94 26t66 52l19 24l51 369q-52 102 -146 102zM487 922q59 0 109 -23t72 -47l20 -23h10l34 236h-224l24 184h226l26 185h215l-25 -185h122l-25 -184h-123l-149 -1065h-215l8 72h-10q-35 -35 -101 -64
q-67 -29 -127 -28q-160 0 -252 128t-61 343t159 343t287 128z" />
    <glyph glyph-name="Emacron" unicode="&#x112;" horiz-adv-x="1136" 
d="M457 1659l22 153h553l-22 -153h-553zM72 0l200 1434h850l-28 -205h-625l-35 -246h522l-28 -205h-522l-80 -573h665l-28 -205h-891z" />
    <glyph glyph-name="emacron" unicode="&#x113;" 
d="M317 1270l19 143h543l-19 -143h-543zM524 819q-147 0 -223 -205h389q-8 98 -52 152t-114 53zM450 164q76 0 132 36t82 70l24 37l137 -112q-22 -30 -66 -71q-87 -83 -202 -121q-70 -24 -141 -23q-182 0 -291 143t-78 367t179 369t322 145t282 -144t77 -368l-6 -41h-635
q-10 -127 49 -207t135 -80z" />
    <glyph glyph-name="Edotaccent" unicode="&#x116;" horiz-adv-x="1136" 
d="M618 1638l27 185h225l-26 -185h-226zM72 0l200 1434h850l-28 -205h-625l-35 -246h522l-28 -205h-522l-80 -573h665l-28 -205h-891z" />
    <glyph glyph-name="edotaccent" unicode="&#x117;" 
d="M481 1270l29 205h215l-29 -205h-215zM524 819q-147 0 -223 -205h389q-8 98 -52 152t-114 53zM450 164q76 0 132 36t82 70l24 37l137 -112q-22 -30 -66 -71q-87 -83 -202 -121q-70 -24 -141 -23q-182 0 -291 143t-78 367t179 369t322 145t282 -144t77 -368l-6 -41h-635
q-10 -127 49 -207t135 -80z" />
    <glyph glyph-name="Eogonek" unicode="&#x118;" horiz-adv-x="1136" 
d="M801 -338q75 0 137 31l31 -82q-91 -61 -201 -61t-158 48t-36 124q10 76 74 144t122 101l59 33h-757l200 1434h850l-28 -205h-625l-35 -246h522l-28 -205h-522l-80 -573h665l-28 -205q-74 -41 -148 -121q-75 -80 -84 -135q-12 -82 70 -82z" />
    <glyph glyph-name="eogonek" unicode="&#x119;" 
d="M524 819q-147 0 -223 -205h389q-8 98 -52 152t-114 53zM391 -338q75 0 137 31l31 -82q-91 -61 -201 -61t-157 48t-37 121t65 137t107 95l49 29q-174 16 -271 153q-96 137 -66 359t178 367t322 145t282 -144t77 -368l-6 -41h-635q-10 -127 49 -207t135 -80t132 36t82 70
l24 37l137 -112q-11 -16 -33 -41t-93 -78t-146 -76q-71 -40 -147 -120q-76 -81 -84 -136q-12 -82 69 -82z" />
    <glyph glyph-name="Ecaron" unicode="&#x11a;" horiz-adv-x="1136" 
d="M625 1608l-150 256h195l71 -154l113 154h195l-220 -256h-204zM72 0l200 1434h850l-28 -205h-625l-35 -246h522l-28 -205h-522l-80 -573h665l-28 -205h-891z" />
    <glyph glyph-name="ecaron" unicode="&#x11b;" 
d="M481 1208l-145 267h184l70 -154h10l115 154h184l-223 -267h-195zM524 819q-147 0 -223 -205h389q-8 98 -52 152t-114 53zM450 164q76 0 132 36t82 70l24 37l137 -112q-22 -30 -66 -71q-87 -83 -202 -121q-70 -24 -141 -23q-182 0 -291 143t-78 367t179 369t322 145
t282 -144t77 -368l-6 -41h-635q-10 -127 49 -207t135 -80z" />
    <glyph glyph-name="Gbreve" unicode="&#x11e;" horiz-adv-x="1392" 
d="M860 1608q-122 0 -186 70t-56 186h144q0 -55 32 -89t85 -34t93 34t56 89h143q-23 -117 -106 -187q-84 -69 -205 -69zM838 1454q86 0 162 -24t151 -79q74 -54 111 -108l14 -24l-164 -154l-10 20q-6 12 -31 44q-94 120 -258 120t-303 -144t-174 -388t63 -388t260 -145
q107 0 185 52t110 88l15 14l35 256h-338l28 205h553l-110 -799h-205l14 102h-20q-14 -14 -39 -34t-108 -54t-169 -34q-160 0 -286 91t-191 262q-63 171 -33 384q45 321 261 529t477 208z" />
    <glyph glyph-name="gbreve" unicode="&#x11f;" horiz-adv-x="1034" 
d="M568 1208q-245 0 -238 267h143q-2 -68 28 -106t85 -38q115 0 153 144h144q-70 -267 -315 -267zM451 225q49 0 94 26t65 52l19 25l55 389q-2 4 -5 11q-23 53 -86 80q-28 11 -58 11q-90 0 -164 -79q-73 -79 -93 -218t32 -218t141 -79zM338 -287q-82 1 -157 19t-107 35
l-33 18l96 174q83 -61 199 -61t183 63t83 172h-10q-33 -33 -102 -63q-68 -29 -128 -29q-160 0 -250 129t-61 352q31 223 159 352t288 130q59 0 109 -23t73 -47l20 -23h11l10 72h215l-121 -860q-25 -170 -163 -290t-314 -120z" />
    <glyph glyph-name="Gcommaaccent" unicode="&#x122;" horiz-adv-x="1392" 
d="M545 -338h-103l29 205h225l-20 -154q-12 -82 -66 -138t-102 -71l-49 -16l-21 72q35 7 69 36t38 66zM838 1454q86 0 162 -24t151 -79q74 -54 111 -108l14 -24l-164 -154l-10 20q-6 12 -31 44q-94 120 -258 120t-303 -144t-174 -388t63 -388t260 -145q107 0 185 52t110 88
l15 14l35 256h-338l28 205h553l-110 -799h-205l14 102h-20q-14 -14 -39 -34t-108 -54t-169 -34q-160 0 -286 91t-191 262q-63 171 -33 384q45 321 261 529t477 208z" />
    <glyph glyph-name="gcommaaccent" unicode="&#x123;" horiz-adv-x="1034" 
d="M451 225q49 0 94 26t65 52l19 25l55 389q-2 4 -5 11q-23 53 -86 80q-28 11 -58 11q-90 0 -164 -79q-73 -79 -93 -218t32 -218t141 -79zM338 -287q-82 1 -157 19t-107 35l-33 18l96 174q83 -61 199 -61t183 63t83 172h-10q-33 -33 -102 -63q-68 -29 -128 -29
q-160 0 -250 129t-61 352q31 223 159 352t288 130q59 0 109 -23t73 -47l20 -23h11l10 72h215l-121 -860q-25 -170 -163 -290t-314 -120zM604 1393h103l-29 -205h-225l22 153q11 83 65 139t103 72l47 15l21 -72q-35 -7 -68 -36t-39 -66z" />
    <glyph glyph-name="Imacron" unicode="&#x12a;" horiz-adv-x="573" 
d="M139 1659l23 153h553l-23 -153h-553zM498 1434l-201 -1434h-225l200 1434h226z" />
    <glyph glyph-name="imacron" unicode="&#x12b;" horiz-adv-x="481" 
d="M45 1270l18 143h543l-18 -143h-543zM31 0l137 983h215l-137 -983h-215z" />
    <glyph glyph-name="Iogonek" unicode="&#x12e;" horiz-adv-x="573" 
d="M135 -338q75 0 137 31l31 -82q-91 -61 -201 -61t-156 48t-36 124t74 144t122 101l58 33h-92l200 1434h226l-201 -1434q-71 -40 -147 -120q-76 -81 -84 -136q-12 -82 69 -82z" />
    <glyph glyph-name="iogonek" unicode="&#x12f;" horiz-adv-x="481" 
d="M209 1270l29 205h215l-29 -205h-215zM84 -338q75 0 137 31l31 -82q-90 -61 -200 -61t-157 48q-46 48 -35 124t73 144t120 101l60 33h-82l137 983h215l-137 -983q-74 -41 -148 -121q-75 -80 -84 -135q-12 -82 70 -82z" />
    <glyph glyph-name="Idotaccent" unicode="&#x130;" horiz-adv-x="573" 
d="M301 1638l27 185h225l-27 -185h-225zM498 1434l-201 -1434h-225l200 1434h226z" />
    <glyph glyph-name="dotlessi" unicode="&#x131;" horiz-adv-x="481" 
d="M31 0l137 983h215l-137 -983h-215z" />
    <glyph glyph-name="Kcommaaccent" unicode="&#x136;" horiz-adv-x="1249" 
d="M524 -338h-102l29 205h225l-21 -154q-12 -82 -66 -138t-102 -71l-49 -16l-20 72q34 7 68 36t38 66zM891 0l-324 686l-202 -205l-68 -481h-225l200 1434h226l-90 -635h10l612 635h256l-551 -574l412 -860h-256z" />
    <glyph glyph-name="kcommaaccent" unicode="&#x137;" horiz-adv-x="962" 
d="M371 -338h-103l29 205h225l-20 -154q-12 -82 -66 -138t-104 -71l-47 -16l-21 72q35 7 69 36t38 66zM614 0l-174 440l-143 -143l-41 -297h-215l201 1434h215l-117 -830h10l361 379h245l-348 -369l252 -614h-246z" />
    <glyph glyph-name="Lacute" unicode="&#x139;" horiz-adv-x="1003" 
d="M328 1608l168 256h225l-229 -256h-164zM72 0l200 1434h226l-172 -1229h563l-29 -205h-788z" />
    <glyph glyph-name="lacute" unicode="&#x13a;" horiz-adv-x="532" 
d="M297 1608l168 256h225l-229 -256h-164zM276 0q-100 0 -158 70t-44 176l168 1188h215l-168 -1188q-6 -61 53 -62h61l-55 -184h-72z" />
    <glyph glyph-name="Lcommaaccent" unicode="&#x13b;" horiz-adv-x="1003" 
d="M414 -338h-103l29 205h225l-20 -154q-13 -82 -67 -138t-101 -71l-49 -16l-21 72q35 7 69 36t38 66zM72 0l200 1434h226l-172 -1229h563l-29 -205h-788z" />
    <glyph glyph-name="lcommaaccent" unicode="&#x13c;" horiz-adv-x="532" 
d="M145 -338h-102l29 205h225l-21 -154q-12 -82 -66 -138t-104 -71l-47 -16l-20 72q35 7 68 36q34 29 38 66zM276 0q-100 0 -158 70t-44 176l168 1188h215l-168 -1188q-6 -61 53 -62h61l-55 -184h-72z" />
    <glyph glyph-name="Lcaron" unicode="&#x13d;" horiz-adv-x="1003" 
d="M715 1229h-103l29 205h225l-22 -154q-10 -82 -64 -138t-104 -73l-47 -14l-21 71q33 7 67 36q34 30 40 67zM72 0l200 1434h226l-172 -1229h563l-29 -205h-788z" />
    <glyph glyph-name="lcaron" unicode="&#x13e;" horiz-adv-x="634" 
d="M664 1229h-103l29 205h225l-22 -154q-11 -82 -65 -138t-101 -73l-49 -14l-21 71q33 7 67 36q34 30 40 67zM276 0q-100 0 -158 70t-44 176l168 1188h215l-168 -1188q-6 -61 53 -62h61l-55 -184h-72z" />
    <glyph glyph-name="Lslash" unicode="&#x141;" 
d="M92 0l70 502l-146 -92l29 204l145 93l103 727h225l-80 -574l301 184l-28 -204l-303 -185l-62 -450h563l-28 -205h-789z" />
    <glyph glyph-name="lslash" unicode="&#x142;" horiz-adv-x="593" 
d="M307 0q-100 0 -159 70q-58 70 -44 176l50 348l-146 -92l25 174l145 92l94 666h215l-75 -533l180 113l-25 -174l-180 -113l-68 -481q-6 -61 54 -62h61l-55 -184h-72z" />
    <glyph glyph-name="Nacute" unicode="&#x143;" horiz-adv-x="1443" 
d="M748 1608l167 256h226l-230 -256h-163zM963 0l-512 1024h-11l-143 -1024h-225l200 1434h205l512 -1024h10l144 1024h225l-201 -1434h-204z" />
    <glyph glyph-name="nacute" unicode="&#x144;" 
d="M465 1208l172 267h225l-233 -267h-164zM545 819q-59 1 -109 -25t-69 -53l-21 -24l-100 -717h-215l137 983h215l-10 -72h10q34 34 108 64q73 29 140 29q131 0 203 -85t51 -223l-97 -696h-215l91 655q25 164 -119 164z" />
    <glyph glyph-name="Ncommaaccent" unicode="&#x145;" horiz-adv-x="1443" 
d="M575 -338h-102l29 205h225l-20 -154q-13 -82 -67 -138t-103 -71l-48 -16l-20 72q35 7 68 36q34 29 38 66zM963 0l-512 1024h-11l-143 -1024h-225l200 1434h205l512 -1024h10l144 1024h225l-201 -1434h-204z" />
    <glyph glyph-name="ncommaaccent" unicode="&#x146;" 
d="M350 -338h-102l28 205h226l-21 -154q-12 -82 -66 -138t-104 -71l-47 -16l-20 72q34 7 68 36t38 66zM545 819q-59 1 -109 -25t-69 -53l-21 -24l-100 -717h-215l137 983h215l-10 -72h10q34 34 108 64q73 29 140 29q131 0 203 -85t51 -223l-97 -696h-215l91 655
q25 164 -119 164z" />
    <glyph glyph-name="Ncaron" unicode="&#x147;" horiz-adv-x="1443" 
d="M741 1608l-149 256h194l72 -154l113 154h194l-219 -256h-205zM963 0l-512 1024h-11l-143 -1024h-225l200 1434h205l512 -1024h10l144 1024h225l-201 -1434h-204z" />
    <glyph glyph-name="ncaron" unicode="&#x148;" 
d="M481 1208l-145 267h184l70 -154h10l115 154h184l-223 -267h-195zM545 819q-59 1 -109 -25t-69 -53l-21 -24l-100 -717h-215l137 983h215l-10 -72h10q34 34 108 64q73 29 140 29q131 0 203 -85t51 -223l-97 -696h-215l91 655q25 164 -119 164z" />
    <glyph glyph-name="Omacron" unicode="&#x14c;" horiz-adv-x="1474" 
d="M590 1659l22 153h553l-22 -153h-553zM809 1249q-162 0 -300 -145t-173 -388t63 -387q98 -145 260 -145q163 0 303 146t173 387q35 242 -65 387t-261 145zM838 1454q260 0 418 -208t113 -530q-46 -322 -262 -529t-476 -207t-419 208t-112 529q45 321 261 529
q217 208 477 208z" />
    <glyph glyph-name="omacron" unicode="&#x14d;" horiz-adv-x="1044" 
d="M328 1270l18 143h543l-19 -143h-542zM443 164q91 0 164 84t95 244q23 160 -26 244t-140 83q-91 1 -166 -83t-98 -244q-24 -160 28 -244t143 -84zM416 -20q-182 0 -291 144t-78 368q31 225 180 368q150 144 332 144t291 -144t78 -368q-31 -225 -180 -369
q-150 -143 -332 -143z" />
    <glyph glyph-name="Ohungarumlaut" unicode="&#x150;" horiz-adv-x="1474" 
d="M942 1608l158 256h225l-219 -256h-164zM614 1608l158 256h225l-219 -256h-164zM809 1249q-162 0 -300 -145t-173 -388t63 -387q98 -145 260 -145q163 0 303 146t173 387q35 242 -65 387t-261 145zM838 1454q260 0 418 -208t113 -530q-46 -322 -262 -529t-476 -207
t-419 208t-112 529q45 321 261 529q217 208 477 208z" />
    <glyph glyph-name="ohungarumlaut" unicode="&#x151;" horiz-adv-x="1044" 
d="M659 1208l162 267h226l-224 -267h-164zM342 1208l162 267h225l-223 -267h-164zM443 164q91 0 164 84t95 244q23 160 -26 244t-140 83q-91 1 -166 -83t-98 -244q-24 -160 28 -244t143 -84zM416 -20q-182 0 -291 144t-78 368q31 225 180 368q150 144 332 144t291 -144
t78 -368q-31 -225 -180 -369q-150 -143 -332 -143z" />
    <glyph glyph-name="OE" unicode="&#x152;" horiz-adv-x="1740" 
d="M807 1229q-162 1 -301 -141t-171 -371t67 -371t262 -141h92l143 1024h-92zM635 0q-260 0 -419 204t-116 513q29 205 141 371q111 166 269 255q158 90 326 91h890l-28 -205h-574l-34 -246h471l-29 -205h-471l-80 -573h614l-28 -205h-932z" />
    <glyph glyph-name="oe" unicode="&#x153;" horiz-adv-x="1597" 
d="M1118 819q-62 0 -118 -54t-85 -151h349q-2 96 -42 151q-41 54 -104 54zM422 164q84 0 150 81t90 247t-20 246t-128 81q-84 -1 -152 -81t-90 -246t22 -247t128 -81zM1057 164q55 0 100 33t64 65l18 35l150 -102q-164 -218 -379 -215q-114 0 -183 62t-86 101l-8 21h-8
q-9 -19 -50 -58q-130 -126 -293 -126q-164 0 -266 140t-69 372q33 231 174 371t318 141q89 0 159 -46t95 -94l24 -45h8q9 17 49 57t74 64q84 62 195 64q168 0 269 -142t69 -370l-6 -41h-594q-10 -129 40 -208t136 -79z" />
    <glyph glyph-name="Racute" unicode="&#x154;" horiz-adv-x="1372" 
d="M676 1608l168 256h225l-229 -256h-164zM692 635q143 0 248 88t123 221t-68 219t-250 86t-249 -24l-29 -6l-82 -584h307zM742 1454q294 0 442 -144t114 -368q-12 -94 -54 -174t-92 -127q-107 -101 -179 -127l-33 -12l-2 -10l229 -492h-245l-197 430h-369l-59 -430h-225
l194 1393q182 61 476 61z" />
    <glyph glyph-name="racute" unicode="&#x155;" horiz-adv-x="696" 
d="M393 1208l172 267h226l-234 -267h-164zM512 819q-53 1 -93 -25t-57 -53l-16 -24l-100 -717h-215l137 983h215l-10 -72h10q37 37 94 65t105 28t83 -16q34 -16 48 -30l12 -16l-137 -174q-23 51 -76 51z" />
    <glyph glyph-name="Rcommaaccent" unicode="&#x156;" horiz-adv-x="1372" 
d="M545 -338h-103l29 205h225l-20 -154q-12 -82 -66 -138t-102 -71l-49 -16l-21 72q35 7 69 36t38 66zM692 635q143 0 248 88t123 221t-68 219t-250 86t-249 -24l-29 -6l-82 -584h307zM742 1454q294 0 442 -144t114 -368q-12 -94 -54 -174t-92 -127q-107 -101 -179 -127
l-33 -12l-2 -10l229 -492h-245l-197 430h-369l-59 -430h-225l194 1393q182 61 476 61z" />
    <glyph glyph-name="rcommaaccent" unicode="&#x157;" horiz-adv-x="696" 
d="M84 -338h-102l28 205h226l-21 -154q-13 -82 -67 -138t-103 -71l-47 -16l-21 72q35 7 69 36t38 66zM512 819q-53 1 -93 -25t-57 -53l-16 -24l-100 -717h-215l137 983h215l-10 -72h10q37 37 94 65t105 28t83 -16q34 -16 48 -30l12 -16l-137 -174q-23 51 -76 51z" />
    <glyph glyph-name="Rcaron" unicode="&#x158;" horiz-adv-x="1372" 
d="M676 1608l-150 256h195l72 -154l112 154h195l-219 -256h-205zM692 635q143 0 248 88t123 221t-68 219t-250 86t-249 -24l-29 -6l-82 -584h307zM742 1454q294 0 442 -144t114 -368q-12 -94 -54 -174t-92 -127q-107 -101 -179 -127l-33 -12l-2 -10l229 -492h-245l-197 430
h-369l-59 -430h-225l194 1393q182 61 476 61z" />
    <glyph glyph-name="rcaron" unicode="&#x159;" horiz-adv-x="696" 
d="M373 1208l-146 267h185l69 -154h11l114 154h185l-224 -267h-194zM512 819q-53 1 -93 -25t-57 -53l-16 -24l-100 -717h-215l137 983h215l-10 -72h10q37 37 94 65t105 28t83 -16q34 -16 48 -30l12 -16l-137 -174q-23 51 -76 51z" />
    <glyph glyph-name="Sacute" unicode="&#x15a;" horiz-adv-x="1218" 
d="M614 1608l168 256h226l-230 -256h-164zM526 184q133 0 219 62q85 62 97 142q20 140 -124 203q-65 27 -144 51q-80 24 -156 54t-138 71q-62 42 -94 118q-31 76 -16 180q23 165 165 277t359 112q86 0 163 -24t155 -76q78 -53 106 -101l17 -24l-166 -154q-5 7 -11 19
q-50 97 -170 137q-53 18 -112 18q-118 0 -188 -50t-82 -130t60 -132t182 -82q108 -30 214 -71t173 -134t46 -240q-27 -184 -187 -308q-161 -123 -407 -122q-98 0 -184 28t-166 83q-80 56 -129 126l-16 27l174 145l11 -22q7 -13 37 -49q63 -75 149 -105q86 -29 163 -29z" />
    <glyph glyph-name="sacute" unicode="&#x15b;" horiz-adv-x="860" 
d="M403 1208l172 267h226l-234 -267h-164zM210 920q104 84 235 84q132 0 212 -64q81 -64 101 -100l12 -21l-152 -123q-6 14 -18 34t-57 55q-45 34 -99 34q-54 -1 -88 -27q-35 -26 -41 -66t25 -69t110 -53t186 -87q48 -30 75 -89t14 -141q-16 -127 -130 -217t-286 -90
t-284 138q-27 32 -37 54l-13 23l170 112q48 -143 195 -143q68 0 110 32t48 80t-38 78q-44 31 -110 54q-66 22 -130 52t-104 96t-25 172q15 108 119 192z" />
    <glyph glyph-name="Scedilla" unicode="&#x15e;" horiz-adv-x="1218" 
d="M426 -461q-55 -1 -104 15t-72 32l-21 15l54 82q47 -31 117 -31t105 24q36 24 40 58q3 33 -17 52t-65 19h-62l25 175q-84 8 -161 38t-152 90q-75 59 -105 111l-16 25l174 145l11 -22q7 -13 37 -49q63 -75 149 -105q86 -29 163 -29q133 0 219 62q85 62 97 142
q20 140 -124 203q-65 27 -144 51q-80 24 -156 54t-138 71q-62 42 -94 118q-31 76 -16 180q23 165 165 277t359 112q86 0 163 -24t155 -76q78 -53 106 -101l17 -24l-166 -154q-5 7 -11 19q-50 97 -170 137q-53 18 -112 18q-118 0 -188 -50t-82 -130t60 -132t182 -82
q108 -30 214 -71t173 -134q67 -92 44 -252t-168 -282t-352 -136l-12 -82q76 0 119 -48q44 -48 32 -126t-83 -132t-189 -53z" />
    <glyph glyph-name="scedilla" unicode="&#x15f;" horiz-adv-x="860" 
d="M210 920q104 84 235 84q132 0 212 -64q81 -64 101 -100l12 -21l-152 -123q-6 14 -18 34t-57 55q-45 34 -99 34q-54 -1 -88 -27q-35 -26 -41 -66t25 -69t110 -53t186 -87q48 -30 75 -89t14 -141q-15 -115 -109 -198t-219 -99l-14 -92q76 0 119 -48t32 -126t-82 -132
t-190 -53q-55 -1 -104 15t-72 32l-20 15l53 82q47 -31 117 -31t105 24q36 24 40 58q4 33 -16 52t-66 19h-61l26 185q-116 12 -188 80q-73 68 -90 106l-11 19l170 112q48 -143 195 -143q68 0 110 32t48 80t-38 78q-44 31 -110 54q-66 22 -130 52t-104 96t-25 172
q15 108 119 192z" />
    <glyph glyph-name="Scaron" unicode="&#x160;" horiz-adv-x="1218" 
d="M614 1608l-149 256h194l72 -154l113 154h194l-219 -256h-205zM526 184q133 0 219 62q85 62 97 142q20 140 -124 203q-65 27 -144 51q-80 24 -156 54t-138 71q-62 42 -94 118q-31 76 -16 180q23 165 165 277t359 112q86 0 163 -24t155 -76q78 -53 106 -101l17 -24
l-166 -154q-5 7 -11 19q-50 97 -170 137q-53 18 -112 18q-118 0 -188 -50t-82 -130t60 -132t182 -82q108 -30 214 -71t173 -134t46 -240q-27 -184 -187 -308q-161 -123 -407 -122q-98 0 -184 28t-166 83q-80 56 -129 126l-16 27l174 145l11 -22q7 -13 37 -49
q63 -75 149 -105q86 -29 163 -29z" />
    <glyph glyph-name="scaron" unicode="&#x161;" horiz-adv-x="860" 
d="M389 1208l-145 267h184l70 -154h10l115 154h184l-223 -267h-195zM210 920q104 84 235 84q132 0 212 -64q81 -64 101 -100l12 -21l-152 -123q-6 14 -18 34t-57 55q-45 34 -99 34q-54 -1 -88 -27q-35 -26 -41 -66t25 -69t110 -53t186 -87q48 -30 75 -89t14 -141
q-16 -127 -130 -217t-286 -90t-284 138q-27 32 -37 54l-13 23l170 112q48 -143 195 -143q68 0 110 32t48 80t-38 78q-44 31 -110 54q-66 22 -130 52t-104 96t-25 172q15 108 119 192z" />
    <glyph glyph-name="Tcommaaccent" unicode="&#x162;" 
d="M350 -338h-102l28 205h226l-21 -154q-12 -82 -66 -138t-104 -71l-47 -16l-20 72q34 7 68 36t38 66zM694 1229l-172 -1229h-225l172 1229h-338l29 205h901l-29 -205h-338z" />
    <glyph glyph-name="tcommaaccent" unicode="&#x163;" horiz-adv-x="634" 
d="M197 -338h-103l29 205h225l-20 -154q-12 -82 -66 -138t-102 -71l-49 -16l-21 72q35 7 69 36t38 66zM307 0q-100 0 -159 70q-58 70 -44 176l78 553h-123l27 184h123l31 225l233 123l-49 -348h143l-26 -184h-144l-78 -553q-6 -61 54 -62h92l-55 -184h-103z" />
    <glyph glyph-name="Tcaron" unicode="&#x164;" 
d="M532 1608l-149 256h195l71 -154l113 154h194l-219 -256h-205zM694 1229l-172 -1229h-225l172 1229h-338l29 205h901l-29 -205h-338z" />
    <glyph glyph-name="tcaron" unicode="&#x165;" horiz-adv-x="686" 
d="M715 1229h-103l29 205h225l-22 -154q-10 -82 -64 -138t-104 -73l-47 -14l-21 71q33 7 67 36q34 30 40 67zM307 0q-100 0 -159 70q-58 70 -44 176l78 553h-123l27 184h123l31 225l233 123l-49 -348h143l-26 -184h-144l-78 -553q-6 -61 54 -62h92l-55 -184h-103z" />
    <glyph glyph-name="Umacron" unicode="&#x16a;" horiz-adv-x="1372" 
d="M539 1659l22 153h553l-22 -153h-553zM580 -20q-236 0 -360 137t-93 354l135 963h225l-135 -963q-16 -123 56 -205t200 -82t226 82q96 82 112 205l135 963h226l-136 -963q-31 -217 -193 -354t-398 -137z" />
    <glyph glyph-name="umacron" unicode="&#x16b;" 
d="M317 1270l19 143h543l-19 -143h-543zM412 164q59 0 108 26t70 52l20 24l101 717h215l-138 -983h-215l9 72h-11q-35 -35 -107 -64q-73 -29 -140 -28q-131 0 -202 85t-52 222l98 696h215l-92 -655q-25 -164 121 -164z" />
    <glyph glyph-name="Uring" unicode="&#x16e;" horiz-adv-x="1372" 
d="M854 1925q92 0 140 -54t37 -140q-11 -87 -76 -141t-157 -54t-140 54q-47 55 -37 141q12 86 76 140q65 54 157 54zM815 1649q82 0 92 82q12 82 -69 81q-83 1 -95 -81q-10 -82 72 -82zM580 -20q-236 0 -360 137t-93 354l135 963h225l-135 -963q-16 -123 56 -205t200 -82
t226 82q96 82 112 205l135 963h226l-136 -963q-31 -217 -193 -354t-398 -137z" />
    <glyph glyph-name="uring" unicode="&#x16f;" 
d="M627 1556q84 0 136 -60t41 -144t-81 -144t-154 -61q-84 1 -135 61t-41 144q12 84 81 144t153 60zM612 1444q-40 0 -70 -26t-35 -66q-5 -39 17 -66q22 -26 62 -26t70 26t34 66q6 40 -16 66t-62 26zM412 164q59 0 108 26t70 52l20 24l101 717h215l-138 -983h-215l9 72h-11
q-35 -35 -107 -64q-73 -29 -140 -28q-131 0 -202 85t-52 222l98 696h215l-92 -655q-25 -164 121 -164z" />
    <glyph glyph-name="Uhungarumlaut" unicode="&#x170;" horiz-adv-x="1372" 
d="M891 1608l158 256h225l-219 -256h-164zM563 1608l158 256h225l-219 -256h-164zM580 -20q-236 0 -360 137t-93 354l135 963h225l-135 -963q-16 -123 56 -205t200 -82t226 82q96 82 112 205l135 963h226l-136 -963q-31 -217 -193 -354t-398 -137z" />
    <glyph glyph-name="uhungarumlaut" unicode="&#x171;" 
d="M649 1208l162 267h225l-223 -267h-164zM332 1208l162 267h225l-223 -267h-164zM412 164q59 0 108 26t70 52l20 24l101 717h215l-138 -983h-215l9 72h-11q-35 -35 -107 -64q-73 -29 -140 -28q-131 0 -202 85t-52 222l98 696h215l-92 -655q-25 -164 121 -164z" />
    <glyph glyph-name="Uogonek" unicode="&#x172;" horiz-adv-x="1372" 
d="M565 -338q75 0 137 31l31 -82q-91 -61 -201 -61t-157 48t-37 121t65 137t105 95l51 29q-227 8 -345 142t-87 349l135 963h225l-135 -963q-16 -123 56 -205t200 -82t226 82q96 82 112 205l135 963h226l-136 -963q-27 -193 -155 -321t-301 -160q-13 -6 -77 -56
q-64 -49 -102 -102q-37 -53 -40 -88q-12 -82 69 -82z" />
    <glyph glyph-name="uogonek" unicode="&#x173;" 
d="M627 -338q75 0 137 31l31 -82q-91 -61 -201 -61t-158 48t-36 124q10 76 74 144t124 101l57 33h-82l9 72h-11q-35 -35 -107 -64q-73 -29 -140 -28q-131 0 -202 85t-52 222l98 696h215l-92 -655q-25 -164 121 -164q59 0 108 26t70 52l20 24l101 717h215l-138 -983
q-72 -40 -147 -121q-75 -80 -84 -135q-12 -82 70 -82z" />
    <glyph glyph-name="Ydieresis" unicode="&#x178;" horiz-adv-x="1105" 
d="M752 1638l26 185h195l-27 -185h-194zM414 1638l26 185h195l-27 -185h-194zM580 901l368 533h236l-525 -748l-96 -686h-225l96 686l-315 748h235l217 -533h9z" />
    <glyph glyph-name="Zacute" unicode="&#x179;" horiz-adv-x="1105" 
d="M594 1608l168 256h225l-229 -256h-164zM264 205h697l-29 -205h-973l29 205l837 1014l2 10h-634l28 205h912l-29 -205l-840 -1014v-10z" />
    <glyph glyph-name="zacute" unicode="&#x17a;" horiz-adv-x="798" 
d="M403 1208l172 267h226l-234 -267h-164zM489 799h-389l27 184h655l-22 -164l-518 -624l-2 -11h430l-25 -184h-696l22 164l518 624v11z" />
    <glyph glyph-name="Zdotaccent" unicode="&#x17b;" horiz-adv-x="1105" 
d="M578 1638l26 185h225l-26 -185h-225zM264 205h697l-29 -205h-973l29 205l837 1014l2 10h-634l28 205h912l-29 -205l-840 -1014v-10z" />
    <glyph glyph-name="zdotaccent" unicode="&#x17c;" horiz-adv-x="798" 
d="M383 1270l29 205h215l-29 -205h-215zM489 799h-389l27 184h655l-22 -164l-518 -624l-2 -11h430l-25 -184h-696l22 164l518 624v11z" />
    <glyph glyph-name="Zcaron" unicode="&#x17d;" horiz-adv-x="1105" 
d="M584 1608l-150 256h195l71 -154l113 154h195l-220 -256h-204zM264 205h697l-29 -205h-973l29 205l837 1014l2 10h-634l28 205h912l-29 -205l-840 -1014v-10z" />
    <glyph glyph-name="zcaron" unicode="&#x17e;" horiz-adv-x="798" 
d="M383 1208l-145 267h184l70 -154h10l114 154h185l-223 -267h-195zM489 799h-389l27 184h655l-22 -164l-518 -624l-2 -11h430l-25 -184h-696l22 164l518 624v11z" />
    <glyph glyph-name="florin" unicode="&#x192;" horiz-adv-x="634" 
d="M526 1352h123l-24 -185h-82q-63 0 -72 -61l-18 -143h143l-27 -185h-143l-113 -798q-14 -106 -92 -176t-178 -70h-72l-4 184h62q61 1 69 62l113 798h-123l27 185h123l18 143q14 106 92 176t178 70z" />
    <glyph glyph-name="Scommaaccent" unicode="&#x218;" horiz-adv-x="1218" 
d="M432 -338h-102l28 205h226l-21 -154q-12 -82 -66 -138t-104 -71l-47 -16l-20 72q34 7 68 36t38 66zM526 184q133 0 219 62q85 62 97 142q20 140 -124 203q-65 27 -144 51q-80 24 -156 54t-138 71q-62 42 -94 118q-31 76 -16 180q23 165 165 277t359 112q86 0 163 -24
t155 -76q78 -53 106 -101l17 -24l-166 -154q-5 7 -11 19q-50 97 -170 137q-53 18 -112 18q-118 0 -188 -50t-82 -130t60 -132t182 -82q108 -30 214 -71t173 -134t46 -240q-27 -184 -187 -308q-161 -123 -407 -122q-98 0 -184 28t-166 83q-80 56 -129 126l-16 27l174 145
l11 -22q7 -13 37 -49q63 -75 149 -105q86 -29 163 -29z" />
    <glyph glyph-name="scommaaccent" unicode="&#x219;" horiz-adv-x="860" 
d="M258 -338h-102l28 205h226l-21 -154q-12 -82 -66 -138t-102 -71l-49 -16l-20 72q34 7 68 36t38 66zM210 920q104 84 235 84q132 0 212 -64q81 -64 101 -100l12 -21l-152 -123q-6 14 -18 34t-57 55q-45 34 -99 34q-54 -1 -88 -27q-35 -26 -41 -66t25 -69t110 -53t186 -87
q48 -30 75 -89t14 -141q-16 -127 -130 -217t-286 -90t-284 138q-27 32 -37 54l-13 23l170 112q48 -143 195 -143q68 0 110 32t48 80t-38 78q-44 31 -110 54q-66 22 -130 52t-104 96t-25 172q15 108 119 192z" />
    <glyph glyph-name="afii57929" unicode="&#x2bc;" horiz-adv-x="348" 
d="M233 1229h-102l29 205h225l-23 -154q-10 -82 -64 -138t-101 -73l-50 -14l-20 71q33 7 67 36q33 30 39 67z" />
    <glyph glyph-name="circumflex" unicode="&#x2c6;" horiz-adv-x="686" 
d="M545 1475l145 -267h-184l-70 154h-10l-115 -154h-184l223 267h195z" />
    <glyph glyph-name="caron" unicode="&#x2c7;" horiz-adv-x="686" 
d="M311 1208l-145 267h184l70 -154h10l115 154h184l-223 -267h-195z" />
    <glyph glyph-name="breve" unicode="&#x2d8;" horiz-adv-x="675" 
d="M404 1208q-245 0 -238 267h143q-2 -68 28 -106t85 -38q115 0 153 144h144q-70 -267 -315 -267z" />
    <glyph glyph-name="dotaccent" unicode="&#x2d9;" horiz-adv-x="337" 
d="M137 1270l29 205h215l-29 -205h-215z" />
    <glyph glyph-name="ring" unicode="&#x2da;" horiz-adv-x="532" 
d="M381 1556q84 0 136 -60t41 -144t-81 -144q-69 -60 -153 -61q-84 0 -136 60q-51 61 -41 145q12 84 81 144t153 60zM366 1444q-38 0 -69 -26t-36 -66q-5 -39 18 -66q23 -26 61 -26t70 26q31 26 34 66q6 40 -16 66q-24 26 -62 26z" />
    <glyph glyph-name="ogonek" unicode="&#x2db;" horiz-adv-x="532" 
d="M145 -338q72 0 138 31l30 -82q-91 -61 -201 -61t-157 48t-36 124t75 144t121 101l59 33h133q-71 -40 -147 -120q-76 -81 -84 -136q-12 -82 69 -82z" />
    <glyph glyph-name="tilde" unicode="&#x2dc;" horiz-adv-x="706" 
d="M546 1219q-58 0 -124 41t-86 40q-49 0 -74 -81h-133q33 125 88 185t113 60t125 -41q66 -41 86 -41q48 0 73 82h134q-32 -125 -88 -185t-114 -60z" />
    <glyph glyph-name="hungarumlaut" unicode="&#x2dd;" horiz-adv-x="788" 
d="M444 1208l162 267h225l-223 -267h-164zM127 1208l162 267h225l-223 -267h-164z" />
    <glyph glyph-name="afii10023" unicode="&#x401;" horiz-adv-x="1136" 
d="M797 1638l26 185h195l-27 -185h-194zM459 1638l26 185h195l-27 -185h-194zM72 0l200 1434h850l-28 -205h-625l-35 -246h522l-28 -205h-522l-80 -573h665l-28 -205h-891z" />
    <glyph glyph-name="afii10051" unicode="&#x402;" horiz-adv-x="1392" 
d="M821 901q242 1 361 -123t89 -327t-178 -327t-376 -124l28 205q123 1 198 65t91 174t-57 182q-75 70 -217 70t-223 -30l-27 -11l-90 -655h-225l172 1229h-297l28 205h850l-28 -205h-328l-51 -369q117 41 280 41z" />
    <glyph glyph-name="afii10052" unicode="&#x403;" horiz-adv-x="952" 
d="M584 1608l168 256h225l-229 -256h-164zM72 0l200 1434h779l-29 -205h-553l-172 -1229h-225z" />
    <glyph glyph-name="afii10053" unicode="&#x404;" horiz-adv-x="1290" 
d="M838 1454q86 0 162 -24t151 -79q74 -54 111 -108l14 -24l-164 -154l-10 20q-6 12 -31 44q-94 120 -244 120q-151 0 -272 -102t-176 -266h512l-29 -205h-532q-18 -232 78 -362t262 -130t306 139q32 32 48 54l14 22l133 -143q-8 -10 -23 -30q-14 -20 -68 -66
q-54 -47 -112 -84t-150 -67t-187 -29q-260 0 -419 208t-112 529q45 321 261 529t477 208z" />
    <glyph glyph-name="afii10054" unicode="&#x405;" horiz-adv-x="1218" 
d="M526 184q133 0 219 62q85 62 97 142q20 140 -124 203q-65 27 -144 51q-80 24 -156 54t-138 71q-62 42 -94 118q-31 76 -16 180q23 165 165 277t359 112q86 0 163 -24t155 -76q78 -53 106 -101l17 -24l-166 -154q-5 7 -11 19q-50 97 -170 137q-53 18 -112 18
q-118 0 -188 -50t-82 -130t60 -132t182 -82q108 -30 214 -71t173 -134t46 -240q-27 -184 -187 -308q-161 -123 -407 -122q-98 0 -184 28t-166 83q-80 56 -129 126l-16 27l174 145l11 -22q7 -13 37 -49q63 -75 149 -105q86 -29 163 -29z" />
    <glyph glyph-name="afii10055" unicode="&#x406;" horiz-adv-x="573" 
d="M498 1434l-201 -1434h-225l200 1434h226z" />
    <glyph glyph-name="afii10056" unicode="&#x407;" horiz-adv-x="573" 
d="M485 1638l27 185h195l-27 -185h-195zM147 1638l27 185h195l-27 -185h-195zM498 1434l-201 -1434h-225l200 1434h226z" />
    <glyph glyph-name="afii10057" unicode="&#x408;" horiz-adv-x="696" 
d="M100 205q131 0 156 164l150 1065h225l-152 -1076q-25 -176 -125 -267t-262 -91h-133l29 205h112z" />
    <glyph glyph-name="afii10058" unicode="&#x409;" horiz-adv-x="2007" 
d="M1288 205q143 0 248 86q104 86 120 212t-66 211q-83 85 -239 85t-225 -25l-26 -6l-78 -563h266zM1358 1004q276 0 420 -144t114 -356q-31 -212 -208 -358t-424 -146h-492l172 1229h-369l-180 -840q-43 -201 -162 -300t-323 -99l31 215q190 0 229 184l229 1045h799
l-66 -461q86 31 230 31z" />
    <glyph glyph-name="afii10059" unicode="&#x40a;" horiz-adv-x="2048" 
d="M1339 205q143 0 242 81q98 81 115 206q16 126 -59 206t-218 80h-245l-80 -573h245zM1448 983q248 0 381 -140t102 -351t-201 -352q-171 -140 -419 -140h-471l108 778h-542l-109 -778h-225l200 1434h226l-64 -451h543l63 451h226l-64 -451h246z" />
    <glyph glyph-name="afii10060" unicode="&#x40b;" horiz-adv-x="1392" 
d="M762 696q-144 0 -225 -30l-27 -11l-90 -655h-225l172 1229h-297l28 205h850l-28 -205h-328l-51 -369q117 41 280 41q213 0 326 -123t84 -317l-64 -461h-225l64 461q16 117 -42 176t-202 59z" />
    <glyph glyph-name="afii10061" unicode="&#x40c;" horiz-adv-x="1208" 
d="M686 1608l168 256h225l-229 -256h-164zM850 0l-279 717h-174l-100 -717h-225l200 1434h226l-72 -512h174l399 512h256l-475 -605l326 -829h-256z" />
    <glyph glyph-name="afii10062" unicode="&#x40e;" horiz-adv-x="1095" 
d="M672 1577q-129 0 -195 71t-55 195h143q-2 -61 31 -97t94 -36q125 0 162 133h143q-25 -125 -109 -195t-214 -71zM154 0l28 205q102 0 150 27q47 28 82 96l-295 1106h235l205 -799h10l369 799h236l-533 -1086q-100 -204 -196 -276t-291 -72z" />
    <glyph glyph-name="afii10145" unicode="&#x40f;" horiz-adv-x="1392" 
d="M498 1434l-172 -1229h594l172 1229h225l-201 -1434h-409l-39 -266h-226l39 266h-409l200 1434h226z" />
    <glyph glyph-name="afii10017" unicode="&#x410;" horiz-adv-x="1259" 
d="M666 1034l-246 -522h358l-102 522h-10zM825 1434l291 -1434h-235l-60 307h-502l-145 -307h-235l692 1434h194z" />
    <glyph glyph-name="afii10018" unicode="&#x411;" horiz-adv-x="1320" 
d="M633 205q129 0 224 80q95 79 111 197t-63 197q-80 79 -238 79t-241 -25l-29 -6l-71 -522h307zM678 963q274 1 414 -137t111 -343t-197 -344t-402 -139h-532l200 1434h922l-29 -205h-696l-43 -297q98 31 252 31z" />
    <glyph glyph-name="afii10019" unicode="&#x412;" horiz-adv-x="1310" 
d="M725 860q98 0 164 54t78 142q12 87 -45 140t-199 53t-227 -24l-29 -6l-49 -359h307zM664 205q120 0 196 63t92 172t-43 172t-180 64h-338l-65 -471h338zM604 0h-532l194 1393q182 61 452 61t390 -108q119 -108 96 -271q-20 -163 -162 -259q-31 -22 -51 -30l-22 -8l-2 -10
q36 -7 82 -35q47 -27 77 -59t52 -96q20 -62 10 -138q-27 -190 -186 -315t-398 -125z" />
    <glyph glyph-name="afii10020" unicode="&#x413;" horiz-adv-x="952" 
d="M72 0l200 1434h779l-29 -205h-553l-172 -1229h-225z" />
    <glyph glyph-name="afii10021" unicode="&#x414;" horiz-adv-x="1310" 
d="M274 205h523l143 1024h-379l-178 -830q-16 -67 -43 -113t-45 -59l-21 -12v-10zM883 -266l39 266h-779l-39 -266h-223l66 471h82q10 4 26 13t51 58t52 123l227 1035h809l-172 -1229h154l-68 -471h-225z" />
    <glyph glyph-name="afii10022" unicode="&#x415;" horiz-adv-x="1136" 
d="M72 0l200 1434h850l-28 -205h-625l-35 -246h522l-28 -205h-522l-80 -573h665l-28 -205h-891z" />
    <glyph glyph-name="afii10024" unicode="&#x416;" horiz-adv-x="1720" 
d="M1071 1434l-72 -512h144l368 512h256l-444 -605l295 -829h-256l-248 717h-143l-101 -717h-225l100 717h-143l-448 -717h-256l524 829l-272 605h256l225 -512h143l72 512h225z" />
    <glyph glyph-name="afii10025" unicode="&#x417;" horiz-adv-x="1167" 
d="M496 184q114 0 200 73t100 174t-52 173q-67 72 -179 72h-153l28 205h133q104 0 173 52t79 132t-43 132t-164 52t-200 -57t-121 -98l-14 -19l-121 154q8 8 22 23q14 14 64 54q105 82 218 116q112 33 198 32q204 0 312 -112t85 -277q-11 -90 -63 -160t-97 -94l-43 -23
l-2 -10q24 -6 66 -38t66 -68t39 -100q15 -65 5 -142q-30 -197 -186 -324t-389 -126q-92 0 -175 28t-163 87q-80 60 -119 122l-18 29l174 143l11 -22q7 -13 35 -49q58 -74 160 -111q61 -23 134 -23z" />
    <glyph glyph-name="afii10026" unicode="&#x418;" horiz-adv-x="1413" 
d="M911 0l140 993h-11l-764 -993h-204l200 1434h226l-140 -994h11l764 994h204l-200 -1434h-226z" />
    <glyph glyph-name="afii10027" unicode="&#x419;" horiz-adv-x="1413" 
d="M825 1577q-129 0 -195 71t-55 195h144q-2 -61 31 -97t94 -36q125 0 162 133h143q-25 -125 -110 -195t-214 -71zM911 0l140 993h-11l-764 -993h-204l200 1434h226l-140 -994h11l764 994h204l-200 -1434h-226z" />
    <glyph glyph-name="afii10028" unicode="&#x41a;" horiz-adv-x="1208" 
d="M850 0l-279 717h-174l-100 -717h-225l200 1434h226l-72 -512h174l399 512h256l-475 -605l326 -829h-256z" />
    <glyph glyph-name="afii10029" unicode="&#x41b;" horiz-adv-x="1300" 
d="M-94 -10l31 215q190 0 229 184l229 1045h830l-201 -1434h-225l172 1229h-400l-180 -840q-43 -201 -161 -300t-324 -99z" />
    <glyph glyph-name="afii10030" unicode="&#x41c;" horiz-adv-x="1525" 
d="M799 451h-154l-201 532h-10l-137 -983h-225l200 1434h215l273 -686h10l465 686h215l-201 -1434h-225l137 983h-10z" />
    <glyph glyph-name="afii10031" unicode="&#x41d;" horiz-adv-x="1392" 
d="M498 1434l-64 -451h594l64 451h225l-201 -1434h-225l108 778h-593l-109 -778h-225l200 1434h226z" />
    <glyph glyph-name="afii10032" unicode="&#x41e;" horiz-adv-x="1474" 
d="M809 1249q-162 0 -300 -145t-173 -388t63 -387q98 -145 260 -145q163 0 303 146t173 387q35 242 -65 387t-261 145zM838 1454q260 0 418 -208t113 -530q-46 -322 -262 -529t-476 -207t-419 208t-112 529q45 321 261 529q217 208 477 208z" />
    <glyph glyph-name="afii10033" unicode="&#x41f;" horiz-adv-x="1392" 
d="M1317 1434l-201 -1434h-225l172 1229h-594l-172 -1229h-225l200 1434h1045z" />
    <glyph glyph-name="afii10034" unicode="&#x420;" horiz-adv-x="1331" 
d="M686 1249q-128 0 -197 -24l-22 -6l-88 -625h256q151 0 263 94t131 236q19 141 -72 233t-271 92zM710 1454q282 0 436 -152q153 -152 120 -380q-32 -229 -224 -381t-477 -152h-215l-53 -389h-225l194 1393q162 61 444 61z" />
    <glyph glyph-name="afii10035" unicode="&#x421;" horiz-adv-x="1290" 
d="M838 1454q86 0 162 -24t151 -79q74 -54 111 -108l14 -24l-164 -154l-10 20q-6 12 -31 44q-94 120 -258 120t-303 -144t-174 -388t64 -388q99 -145 268 -145t308 139q32 32 48 54l14 22l133 -143q-8 -10 -23 -30q-14 -20 -68 -66q-54 -47 -112 -84t-150 -67t-187 -29
q-260 0 -419 208t-112 529q45 321 261 529t477 208z" />
    <glyph glyph-name="afii10036" unicode="&#x422;" 
d="M694 1229l-172 -1229h-225l172 1229h-338l29 205h901l-29 -205h-338z" />
    <glyph glyph-name="afii10037" unicode="&#x423;" horiz-adv-x="1095" 
d="M154 0l28 205q102 0 150 27q47 28 82 96l-295 1106h235l205 -799h10l369 799h236l-533 -1086q-100 -204 -196 -276t-291 -72z" />
    <glyph glyph-name="afii10038" unicode="&#x424;" horiz-adv-x="1597" 
d="M866 410q174 0 278 84t126 232t-60 233t-256 85zM729 1044q-174 0 -277 -84q-102 -84 -124 -233t58 -233t255 -84zM1395 1102q141 -148 109 -375t-214 -375t-452 -147l-29 -205h-225l28 205q-270 0 -411 147q-141 146 -109 374t213 376q182 148 453 147l26 185h226
l-27 -185q270 0 412 -147z" />
    <glyph glyph-name="afii10039" unicode="&#x425;" horiz-adv-x="1157" 
d="M788 0l-229 563h-10l-385 -563h-236l527 758l-285 676h236l198 -482h10l334 482h236l-473 -676l313 -758h-236z" />
    <glyph glyph-name="afii10040" unicode="&#x426;" horiz-adv-x="1443" 
d="M498 1434l-172 -1229h594l172 1229h225l-172 -1229h153l-67 -471h-225l38 266h-972l200 1434h226z" />
    <glyph glyph-name="afii10041" unicode="&#x427;" horiz-adv-x="1300" 
d="M477 1434l-71 -502q-16 -117 42 -176q58 -60 201 -60q144 0 223 25l27 6l100 707h226l-201 -1434h-225l71 522q-96 -31 -260 -30q-227 0 -342 122t-88 318l72 502h225z" />
    <glyph glyph-name="afii10042" unicode="&#x428;" horiz-adv-x="1884" 
d="M72 0l200 1434h226l-172 -1229h430l172 1229h225l-172 -1229h430l172 1229h225l-200 -1434h-1536z" />
    <glyph glyph-name="afii10043" unicode="&#x429;" horiz-adv-x="1935" 
d="M72 0l200 1434h226l-172 -1229h430l172 1229h225l-172 -1229h430l172 1229h225l-172 -1229h154l-68 -471h-225l39 266h-1464z" />
    <glyph glyph-name="afii10044" unicode="&#x42a;" horiz-adv-x="1443" 
d="M725 205q143 0 248 86q103 86 121 212t-69 211t-243 85t-237 -25l-29 -6l-78 -563h287zM774 1004q291 0 438 -144q146 -144 116 -356t-207 -358t-425 -146h-512l172 1235h-276l29 199h501l-65 -461q96 31 229 31z" />
    <glyph glyph-name="afii10045" unicode="&#x42b;" horiz-adv-x="1822" 
d="M612 205q143 0 248 86q104 86 122 212t-70 211q-87 85 -243 85t-237 -25l-29 -6l-77 -563h286zM662 1004q291 0 438 -144q146 -144 116 -356t-207 -358t-425 -146h-512l200 1434h226l-66 -461q96 31 230 31zM1321 0l201 1434h225l-201 -1434h-225z" />
    <glyph glyph-name="afii10046" unicode="&#x42c;" horiz-adv-x="1351" 
d="M633 205q143 0 248 86q104 86 121 212t-69 211q-87 85 -255 85t-246 -25l-29 -6l-77 -563h307zM682 1004q291 0 438 -144q146 -144 116 -356t-207 -358t-425 -146h-532l200 1434h226l-66 -461q96 31 250 31z" />
    <glyph glyph-name="afii10047" unicode="&#x42d;" horiz-adv-x="1290" 
d="M465 184q166 0 299 130t180 362h-532l28 205h512q-8 164 -100 266t-238 102q-96 0 -181 -46t-122 -93l-39 -45l-122 154q21 26 80 74t113 79q54 30 139 56t171 26q260 0 419 -208t113 -530t-262 -529q-216 -208 -477 -207q-94 0 -177 28t-133 69q-102 81 -136 150l-16 29
l174 143q5 -19 35 -65q31 -47 63 -75q32 -27 87 -51q56 -24 122 -24z" />
    <glyph glyph-name="afii10048" unicode="&#x42e;" horiz-adv-x="1884" 
d="M1270 1249q-141 0 -264 -139t-159 -393t48 -393q84 -140 225 -140t264 140t160 393q35 254 -49 393t-225 139zM1311 1454q229 0 371 -202t96 -536t-245 -535q-200 -201 -434 -201t-376 181q-141 181 -123 474h-215l-88 -635h-225l200 1434h226l-84 -594h215
q68 266 260 440q193 174 422 174z" />
    <glyph glyph-name="afii10049" unicode="&#x42f;" horiz-adv-x="1361" 
d="M651 635h297l82 584q-78 31 -251 31t-283 -87q-110 -86 -129 -219q-17 -133 61 -221t223 -88zM827 1454q133 0 246 -15t160 -30l47 -16l-195 -1393h-225l60 430h-338l-316 -430h-246l355 481v11q-39 13 -93 53q-54 41 -88 88t-56 129t-7 180q33 224 219 368t477 144z" />
    <glyph glyph-name="afii10065" unicode="&#x430;" 
d="M442 164q45 0 90 26t66 52l23 24l63 451q-2 4 -5 11q-23 53 -86 80q-28 11 -58 11q-84 0 -162 -88q-78 -87 -101 -239q-22 -152 32 -240t138 -88zM604 82h-10q-29 -35 -103 -69q-73 -34 -137 -33q-154 0 -246 138t-61 374q35 236 166 374t285 138q59 0 109 -23t73 -47
l20 -23h11l10 72h215l-98 -700q-17 -128 -11 -242l2 -41h-215z" />
    <glyph glyph-name="afii10066" unicode="&#x431;" horiz-adv-x="1054" 
d="M416 -20q-188 0 -295 136q-106 136 -76 355l21 143q74 535 308 679q114 71 302 100l325 51l-28 -195l-324 -51q-164 -25 -254 -118t-143 -302h10q12 24 45 61q110 122 278 123q167 2 269 -136t72 -356t-176 -354t-334 -136zM442 164q98 0 167 77t91 231t-25 230
q-49 76 -147 76t-166 -76t-92 -231q-22 -155 26 -231t146 -76z" />
    <glyph glyph-name="afii10067" unicode="&#x432;" horiz-adv-x="942" 
d="M592 717q6 47 -23 75q-57 55 -213 7l-24 -185h123q121 1 137 103zM424 184q76 0 120 35t52 98q10 63 -25 99t-110 35h-154l-37 -267h154zM430 0h-399l131 942q130 62 318 62t272 -77t67 -190q-8 -55 -42 -98t-64 -59l-31 -17l-2 -16q101 -34 136 -140q13 -44 5 -100
q-18 -127 -130 -217t-261 -90z" />
    <glyph glyph-name="afii10068" unicode="&#x433;" horiz-adv-x="727" 
d="M31 0l137 983h594l-27 -184h-379l-110 -799h-215z" />
    <glyph glyph-name="afii10069" unicode="&#x434;" horiz-adv-x="1034" 
d="M242 195l-2 -11h338l86 615h-246l-94 -461q-12 -55 -32 -91t-36 -44zM109 338l141 645h655l-112 -799h122l-57 -409h-215l33 225h-553l-33 -225h-213l55 409h72q31 15 62 57t43 97z" />
    <glyph glyph-name="afii10070" unicode="&#x435;" 
d="M524 819q-147 0 -223 -205h389q-8 98 -52 152t-114 53zM450 164q76 0 132 36t82 70l24 37l137 -112q-22 -30 -66 -71q-87 -83 -202 -121q-70 -24 -141 -23q-182 0 -291 143t-78 367t179 369t322 145t282 -144t77 -368l-6 -41h-635q-10 -127 49 -207t135 -80z" />
    <glyph glyph-name="afii10072" unicode="&#x436;" horiz-adv-x="1300" 
d="M963 0l-138 492h-102l-68 -492h-215l68 492h-102l-273 -492h-235l350 604l-172 379h235l131 -307h93l43 307h215l-43 -307h92l217 307h235l-278 -379l182 -604h-235z" />
    <glyph glyph-name="afii10073" unicode="&#x437;" horiz-adv-x="880" 
d="M26 118q-28 32 -38 54l-13 23l170 112q5 -14 24 -44q63 -99 171 -99q76 0 125 40t59 103q8 63 -30 104q-39 40 -115 40h-82l25 163h92q121 1 137 103q6 47 -23 75t-92 28q-62 0 -118 -32q-56 -31 -82 -61l-27 -31l-115 123q17 23 61 60q145 122 313 124q167 1 247 -78
t61 -198q-8 -63 -48 -109t-75 -61l-35 -14l-2 -11q98 -33 127 -140q12 -44 5 -95q-18 -133 -134 -225t-293 -92q-179 0 -295 138z" />
    <glyph glyph-name="afii10074" unicode="&#x438;" horiz-adv-x="1044" 
d="M246 0h-215l137 983h215l-84 -594h10l422 594h215l-137 -983h-215l82 594h-10z" />
    <glyph glyph-name="afii10075" unicode="&#x439;" horiz-adv-x="1044" 
d="M586 1188q-117 0 -177 74t-51 202h144q-6 -143 102 -143t144 143h143q-27 -128 -107 -202t-198 -74zM246 0h-215l137 983h215l-84 -594h10l422 594h215l-137 -983h-215l82 594h-10z" />
    <glyph glyph-name="afii10076" unicode="&#x43a;" horiz-adv-x="942" 
d="M604 0l-178 492h-113l-67 -492h-215l137 983h215l-43 -307h102l258 307h236l-320 -379l224 -604h-236z" />
    <glyph glyph-name="afii10077" unicode="&#x43b;" 
d="M-2 -10h-92l24 184h31q70 0 103 30t51 113l155 666h656l-138 -983h-215l111 799h-246l-108 -482q-39 -175 -119 -251t-213 -76z" />
    <glyph glyph-name="afii10078" unicode="&#x43c;" horiz-adv-x="1177" 
d="M1079 983l-137 -983h-215l86 625h-10l-223 -287h-93l-145 287h-10l-86 -625h-215l137 983h205l190 -389h10l301 389h205z" />
    <glyph glyph-name="afii10079" unicode="&#x43d;" 
d="M926 983l-138 -983h-215l68 492h-328l-67 -492h-215l137 983h215l-43 -307h328l43 307h215z" />
    <glyph glyph-name="afii10080" unicode="&#x43e;" horiz-adv-x="1044" 
d="M443 164q91 0 164 84t95 244q23 160 -26 244t-140 83q-91 1 -166 -83t-98 -244q-24 -160 28 -244t143 -84zM416 -20q-182 0 -291 144t-78 368q31 225 180 368q150 144 332 144t291 -144t78 -368q-31 -225 -180 -369q-150 -143 -332 -143z" />
    <glyph glyph-name="afii10081" unicode="&#x43f;" 
d="M926 983l-138 -983h-215l111 799h-328l-110 -799h-215l137 983h758z" />
    <glyph glyph-name="afii10082" unicode="&#x440;" horiz-adv-x="1034" 
d="M524 819q-49 1 -94 -25t-65 -53l-19 -24l-63 -451q2 -4 5 -11q23 -53 86 -80q28 -11 58 -11q84 0 161 88t99 240q24 152 -30 240t-138 87zM610 1004q156 0 248 -138t60 -374t-164 -374q-131 -138 -287 -138q-59 0 -109 22t-71 47l-23 23h-10l-47 -338h-215l176 1249h215
l-10 -72h10q35 35 101 64q67 29 126 29z" />
    <glyph glyph-name="afii10083" unicode="&#x441;" horiz-adv-x="942" 
d="M463 164q63 0 119 36t82 70l24 37l137 -112q-22 -30 -66 -71q-87 -83 -202 -121q-70 -24 -141 -23q-182 0 -291 143t-78 369t180 368q150 143 332 144q129 0 215 -63t107 -101l12 -21l-162 -123q-2 4 -8 22t-35 46q-58 55 -145 55q-86 0 -167 -87q-81 -86 -104 -240
q-24 -154 34 -241t157 -87z" />
    <glyph glyph-name="afii10084" unicode="&#x442;" horiz-adv-x="808" 
d="M39 799l27 184h747l-27 -184h-266l-110 -799h-215l110 799h-266z" />
    <glyph glyph-name="afii10085" unicode="&#x443;" horiz-adv-x="880" 
d="M119 -266h-90l26 184h56q82 0 114 92l17 41l-187 932h226l116 -625h11l262 625h225l-442 -963q-76 -162 -149 -224t-185 -62z" />
    <glyph glyph-name="afii10086" unicode="&#x444;" horiz-adv-x="1361" 
d="M496 184l86 615q-117 0 -203 -82q-87 -82 -107 -225t42 -226q63 -82 182 -82zM1020 492q20 143 -42 225t-181 82l-86 -615q119 0 204 82t105 226zM686 0l-39 -266h-215l39 266q-207 0 -330 142t-94 350t192 349q163 142 369 142l35 246h215l-35 -246q207 0 329 -142
t93 -349t-190 -350q-162 -142 -369 -142z" />
    <glyph glyph-name="afii10087" unicode="&#x445;" horiz-adv-x="870" 
d="M133 0h-235l378 512l-210 471h235l123 -287h10l205 287h235l-342 -471l236 -512h-236l-147 338h-10z" />
    <glyph glyph-name="afii10088" unicode="&#x446;" horiz-adv-x="1054" 
d="M31 0l137 983h215l-113 -799h328l113 799h215l-113 -799h123l-57 -409h-215l32 225h-665z" />
    <glyph glyph-name="afii10089" unicode="&#x447;" horiz-adv-x="968" 
d="M436 481q83 0 139 31l19 10l65 461h211l-137 -983h-211l47 348h-10q-78 -51 -210 -51t-204 85t-51 222l53 379h215l-47 -338q-25 -164 121 -164z" />
    <glyph glyph-name="afii10090" unicode="&#x448;" horiz-adv-x="1423" 
d="M31 0l137 983h215l-113 -799h256l113 799h215l-113 -799h256l113 799h215l-137 -983h-1157z" />
    <glyph glyph-name="afii10091" unicode="&#x449;" horiz-adv-x="1454" 
d="M31 0l137 983h215l-113 -799h256l113 799h215l-113 -799h256l113 799h215l-113 -799h123l-57 -409h-215l33 225h-1065z" />
    <glyph glyph-name="afii10092" unicode="&#x44a;" horiz-adv-x="993" 
d="M475 184q71 0 125 47t62 117q10 70 -30 117t-101 47t-136 -20l-43 -308h123zM578 696q154 0 242 -100t68 -248q-22 -148 -142 -248t-285 -100h-348l110 799h-215l27 184h430l-43 -307h10q63 20 146 20z" />
    <glyph glyph-name="afii10093" unicode="&#x44b;" horiz-adv-x="1341" 
d="M393 184q71 0 125 47t62 117q10 70 -30 117t-101 47t-136 -20l-43 -308h123zM496 696q154 0 242 -100t68 -248q-21 -148 -141 -248t-286 -100h-348l137 983h215l-43 -307h10q63 20 146 20zM1243 983l-137 -983h-215l137 983h215z" />
    <glyph glyph-name="afii10094" unicode="&#x44c;" horiz-adv-x="921" 
d="M393 184q75 0 131 47t66 117t-32 117t-106 47t-139 -20l-43 -308h123zM496 696q160 0 250 -100t70 -249q-21 -149 -142 -248t-295 -99h-348l137 983h215l-43 -307h10q63 20 146 20z" />
    <glyph glyph-name="afii10095" unicode="&#x44d;" horiz-adv-x="952" 
d="M341 164q52 0 103 30t80 72q57 82 74 156l6 29h-317l24 163h307q0 21 -16 64t-36 70q-20 28 -57 50q-38 22 -92 22q-53 0 -107 -32q-54 -31 -77 -61l-24 -31l-125 123q47 63 149 123t234 62q182 0 291 -144t78 -368t-181 -368t-334 -144t-296 138q-27 32 -37 54l-13 23
l170 112q7 -20 24 -49q56 -94 172 -94z" />
    <glyph glyph-name="afii10096" unicode="&#x44e;" horiz-adv-x="1413" 
d="M831 164q84 0 151 81t89 247q23 166 -20 246t-127 81q-84 -1 -152 -81t-90 -246q-23 -166 21 -247t128 -81zM810 -20q-171 0 -275 136t-82 345h-144l-63 -461h-215l137 983h215l-47 -338h153q72 166 191 262q120 97 282 97t264 -140t70 -372q-33 -232 -174 -372
t-312 -140z" />
    <glyph glyph-name="afii10097" unicode="&#x44f;" horiz-adv-x="983" 
d="M509 819q-87 0 -139 -42q-52 -41 -62 -111t29 -112q40 -42 124 -42h143l39 287q-47 20 -134 20zM-41 0l268 379v10q-21 7 -55 34q-33 27 -52 55q-51 77 -34 209q18 132 139 224t314 93q100 0 185 -16t120 -30l35 -16l-131 -942h-216l48 348h-144l-231 -348h-246z" />
    <glyph glyph-name="afii10071" unicode="&#x451;" 
d="M651 1239l29 205h194l-28 -205h-195zM324 1239l28 205h195l-29 -205h-194zM524 819q-147 0 -223 -205h389q-8 98 -52 152t-114 53zM450 164q76 0 132 36t82 70l24 37l137 -112q-22 -30 -66 -71q-87 -83 -202 -121q-70 -24 -141 -23q-182 0 -291 143t-78 367t179 369
t322 145t282 -144t77 -368l-6 -41h-635q-10 -127 49 -207t135 -80z" />
    <glyph glyph-name="afii10099" unicode="&#x452;" horiz-adv-x="1044" 
d="M651 922q131 0 202 -85t52 -223l-71 -501q-25 -175 -141 -277t-292 -102l27 184q164 0 190 195l66 460q25 164 -121 164q-59 1 -108 -25t-70 -53l-20 -24l-89 -635h-215l150 1065h-123l25 184h123l26 185h215l-26 -185h225l-25 -184h-225l-35 -236h10q35 34 109 64
q74 29 141 29z" />
    <glyph glyph-name="afii10100" unicode="&#x453;" horiz-adv-x="727" 
d="M393 1208l172 267h226l-234 -267h-164zM31 0l137 983h594l-27 -184h-379l-110 -799h-215z" />
    <glyph glyph-name="afii10101" unicode="&#x454;" horiz-adv-x="942" 
d="M568 819q-62 0 -116 -26t-111 -106q-22 -30 -30 -52l-10 -21h297l-25 -163h-307q-2 -11 -2 -31q0 -160 92 -225q42 -31 106 -31t120 36t82 70l24 37l137 -112q-22 -30 -66 -71q-87 -83 -202 -121q-70 -24 -141 -23q-182 0 -291 143t-78 369t180 368q150 143 332 144
q129 0 215 -63t107 -101l12 -21l-162 -123q-2 4 -8 22t-49 59q-44 42 -106 42z" />
    <glyph glyph-name="afii10102" unicode="&#x455;" horiz-adv-x="860" 
d="M210 920q104 84 235 84q132 0 212 -64q81 -64 101 -100l12 -21l-152 -123q-6 14 -18 34t-57 55q-45 34 -99 34q-54 -1 -88 -27q-35 -26 -41 -66t25 -69t110 -53t186 -87q48 -30 75 -89t14 -141q-16 -127 -130 -217t-286 -90t-284 138q-27 32 -37 54l-13 23l170 112
q48 -143 195 -143q68 0 110 32t48 80t-38 78q-44 31 -110 54q-66 22 -130 52t-104 96t-25 172q15 108 119 192z" />
    <glyph glyph-name="afii10103" unicode="&#x456;" horiz-adv-x="481" 
d="M209 1270l29 205h215l-29 -205h-215zM31 0l137 983h215l-137 -983h-215z" />
    <glyph glyph-name="afii10104" unicode="&#x457;" horiz-adv-x="481" 
d="M379 1239l29 205h194l-29 -205h-194zM51 1239l29 205h194l-28 -205h-195zM31 0l137 983h215l-137 -983h-215z" />
    <glyph glyph-name="afii10105" unicode="&#x458;" horiz-adv-x="481" 
d="M209 1270l29 205h215l-29 -205h-215zM27 -20l141 1003h215l-141 -1003q-14 -106 -92 -176t-179 -70h-71l-2 184h59q60 1 70 62z" />
    <glyph glyph-name="afii10106" unicode="&#x459;" horiz-adv-x="1454" 
d="M926 184q76 0 131 47t65 117t-31 117q-43 47 -109 47q-67 0 -136 -20l-43 -308h123zM-2 -10h-92l24 184h31q71 0 103 30t51 113l155 666h645l-43 -307h11q63 20 145 20q160 0 251 -100t70 -249t-143 -248t-295 -99h-348l111 799h-236l-108 -482q-39 -175 -119 -251
t-213 -76z" />
    <glyph glyph-name="afii10107" unicode="&#x45a;" horiz-adv-x="1454" 
d="M926 184q76 0 131 47t65 117t-31 117q-42 47 -118 47h-123l-47 -328h123zM1008 696q174 0 268 -99t73 -249t-143 -249t-295 -99h-348l72 512h-318l-71 -512h-215l137 983h215l-41 -287h317l41 287h215l-41 -287h134z" />
    <glyph glyph-name="afii10108" unicode="&#x45b;" horiz-adv-x="1054" 
d="M651 922q131 0 202 -85t52 -223l-86 -614h-215l80 573q25 164 -121 164q-59 1 -108 -25t-70 -53l-20 -24l-89 -635h-215l150 1065h-123l25 184h123l26 185h215l-26 -185h225l-25 -184h-225l-35 -236h10q35 34 109 64q74 29 141 29z" />
    <glyph glyph-name="afii10109" unicode="&#x45c;" horiz-adv-x="942" 
d="M604 0l-178 492h-113l-67 -492h-215l137 983h215l-43 -307h102l258 307h236l-320 -379l224 -604h-236zM496 1208l172 267h225l-234 -267h-163z" />
    <glyph glyph-name="afii10110" unicode="&#x45e;" horiz-adv-x="880" 
d="M504 1188q-117 0 -177 74t-51 202h144q-6 -143 102 -143t144 143h143q-27 -128 -107 -202t-198 -74zM119 -266h-90l26 184h56q82 0 114 92l17 41l-187 932h226l116 -625h11l262 625h225l-442 -963q-76 -162 -149 -224t-185 -62z" />
    <glyph glyph-name="afii10193" unicode="&#x45f;" horiz-adv-x="1013" 
d="M915 983l-137 -983h-266l-33 -225h-215l33 225h-266l137 983h215l-113 -799h318l112 799h215z" />
    <glyph glyph-name="afii10050" unicode="&#x490;" horiz-adv-x="952" 
d="M72 0l200 1434h553l37 266h225l-65 -471h-553l-172 -1229h-225z" />
    <glyph glyph-name="afii10098" unicode="&#x491;" horiz-adv-x="727" 
d="M547 983l28 205h216l-56 -389h-379l-110 -799h-215l137 983h379z" />
    <glyph glyph-name="uni1E9E" unicode="&#x1e9e;" horiz-adv-x="1290" 
d="M654 184q97 0 175 76q79 76 97 212t-43 211t-193 75h-51l25 184q82 16 178 84q37 27 71 76q35 49 43 106q-76 41 -206 41t-226 -82t-112 -204l-136 -963h-225l135 963q29 217 192 354t398 137q177 0 280 -60t132 -104l14 -20q-10 -74 -42 -141t-90 -132t-112 -92l-24 -14
l-2 -10q105 -42 169 -124q32 -42 52 -118t8 -168q-31 -211 -183 -351t-337 -140q-68 0 -127 15t-84 30l-27 16l99 184q55 -41 152 -41z" />
    <glyph glyph-name="endash" unicode="&#x2013;" horiz-adv-x="921" 
d="M51 512l29 205h758l-29 -205h-758z" />
    <glyph glyph-name="emdash" unicode="&#x2014;" horiz-adv-x="1208" 
d="M51 512l29 205h1044l-28 -205h-1045z" />
    <glyph glyph-name="quoteleft" unicode="&#x2018;" horiz-adv-x="419" 
d="M305 1372h103l-31 -215h-215l22 164q12 86 70 142t106 69l52 14l10 -71q-35 -6 -74 -36t-43 -67z" />
    <glyph glyph-name="quoteright" unicode="&#x2019;" horiz-adv-x="419" 
d="M276 1249h-102l31 215h215l-23 -164q-12 -86 -69 -142t-107 -68l-51 -15l-10 72q35 6 74 35q38 30 42 67z" />
    <glyph glyph-name="quotesinglbase" unicode="&#x201a;" horiz-adv-x="419" 
d="M102 0h-102l29 215h215l-23 -164q-12 -86 -68 -142t-108 -69l-49 -14l-12 72q8 0 32 10q74 31 86 92z" />
    <glyph glyph-name="quotedblleft" unicode="&#x201c;" horiz-adv-x="747" 
d="M633 1372h102l-30 -215h-216l23 164q12 86 70 142t106 69l51 14l11 -71q-35 -6 -74 -36t-43 -67zM305 1372h103l-31 -215h-215l22 164q12 86 70 142t106 69l52 14l10 -71q-35 -6 -74 -36t-43 -67z" />
    <glyph glyph-name="quotedblright" unicode="&#x201d;" horiz-adv-x="747" 
d="M604 1249h-102l30 215h216l-23 -164q-11 -86 -69 -142t-107 -68l-51 -15l-11 72q37 6 75 36q38 29 42 66zM276 1249h-102l31 215h215l-23 -164q-12 -86 -69 -142t-107 -68l-51 -15l-10 72q35 6 74 35q38 30 42 67z" />
    <glyph glyph-name="quotedblbase" unicode="&#x201e;" horiz-adv-x="747" 
d="M430 0h-102l28 215h215l-22 -164q-13 -86 -69 -142t-107 -69l-49 -14l-13 72q25 0 68 27t51 75zM102 0h-102l29 215h215l-23 -164q-12 -86 -68 -142t-108 -69l-49 -14l-12 72q8 0 32 10q74 31 86 92z" />
    <glyph glyph-name="dagger" unicode="&#x2020;" horiz-adv-x="942" 
d="M209 911q-123 0 -107 113t140 113q33 -1 81 -21t78 -41l33 -20h51l7 51l-16 44q-10 28 -24 88q-13 60 -10 93q16 123 129 123t97 -123q-8 -64 -88 -184l-27 -41l-6 -51h51q145 82 217 82q123 0 107 -113t-140 -113q-33 1 -81 21t-78 41l-33 20h-51l-9 -51l16 -44
q10 -28 25 -88q14 -60 11 -93l-203 -860h-62l39 860q7 55 86 184l27 41l8 51h-51q-145 -82 -217 -82z" />
    <glyph glyph-name="daggerdbl" unicode="&#x2021;" horiz-adv-x="942" 
d="M207 891q-125 0 -109 113t140 112q32 0 80 -20t79 -41l33 -21h51l11 72l-16 44q-10 28 -24 88q-13 60 -10 93q16 123 129 123t97 -123q-8 -64 -88 -184l-27 -41l-10 -72h51q145 82 217 82q123 0 107 -112t-138 -113q-66 0 -162 61l-32 21h-51l-11 -72q60 -159 48 -242
t-89 -208l-26 -41l-11 -72h52q143 82 215 82q125 0 109 -113t-140 -112q-66 0 -162 61l-33 20h-51l-8 -71q58 -154 49 -225q-18 -123 -131 -123t-94 123q8 64 88 184l27 41l8 71h-51q-143 -82 -215 -81q-123 1 -107 113t137 112q65 0 162 -62l33 -20h51l10 72
q-61 163 -49 243t92 207l25 41l10 72h-51q-143 -82 -215 -82z" />
    <glyph glyph-name="bullet" unicode="&#x2022;" horiz-adv-x="696" 
d="M357 799q77 -1 123 -55t36 -130t-72 -130t-138 -54q-77 0 -123 53t-36 131q9 78 71 132t139 53z" />
    <glyph glyph-name="ellipsis" unicode="&#x2026;" horiz-adv-x="1208" 
d="M778 0l31 225h225l-30 -225h-226zM389 0l31 225h225l-31 -225h-225zM0 0l31 225h225l-31 -225h-225z" />
    <glyph glyph-name="perthousand" unicode="&#x2030;" horiz-adv-x="2099" 
d="M1655 123q51 0 94 50t55 144t-16 145q-29 50 -79 50t-94 -50t-56 -145q-11 -94 17 -144t79 -50zM1728 655q126 0 198 -94t52 -244q-20 -149 -119 -243t-225 -94t-198 94t-52 243q20 150 120 244q98 94 224 94zM133 0l1000 1434h174l-1000 -1434h-174zM1000 123
q50 0 94 50q43 50 55 144t-16 145q-29 50 -79 50t-95 -50q-44 -51 -56 -145t17 -144q30 -50 80 -50zM1073 655q125 0 198 -94t53 -244q-20 -149 -120 -243t-225 -94t-197 94t-53 243q19 150 119 244t225 94zM385 922q51 0 94 50t56 144q12 94 -17 144t-80 51q-51 -1 -94 -51
t-55 -144q-11 -94 17 -144t79 -50zM458 1454q126 0 198 -94t53 -244t-119 -244t-225 -94t-198 94q-72 94 -52 244t119 244q98 94 224 94z" />
    <glyph glyph-name="guilsinglleft" unicode="&#x2039;" horiz-adv-x="593" 
d="M436 922l80 -82l-280 -324l-3 -8l191 -324l-102 -82l-275 318l27 184z" />
    <glyph glyph-name="guilsinglright" unicode="&#x203a;" horiz-adv-x="593" 
d="M96 102l-82 82l281 324l2 8l-191 324l105 82l272 -318l-26 -184z" />
    <glyph glyph-name="fraction" unicode="&#x2044;" horiz-adv-x="972" 
d="M-102 0l999 1434h174l-999 -1434h-174z" />
    <glyph glyph-name="foursuperior" unicode="&#x2074;" horiz-adv-x="645" 
d="M408 1014l28 205h-10l-170 -195l-2 -10h154zM625 881h-82l-23 -164h-153l22 164h-317l20 143l365 410h164l-60 -420h82z" />
    <glyph glyph-name="Euro" unicode="&#x20ac;" horiz-adv-x="1320" 
d="M868 1372q214 0 361 -138q33 -32 45 -54l14 -23l-172 -133q-5 14 -33 44q-95 99 -233 99q-248 0 -387 -266h471l-23 -164h-501l-17 -123h500l-25 -163h-469q25 -123 103 -195t210 -72t216 65q85 65 116 109l13 21l133 -143q-8 -10 -22 -28t-63 -62t-105 -78t-145 -61
q-89 -28 -183 -27q-223 0 -355 126q-131 127 -163 345h-134l25 163h113l16 123h-113l23 164h133q219 471 651 471z" />
    <glyph glyph-name="uni20B4" unicode="&#x20b4;" horiz-adv-x="1167" 
d="M492 184q144 0 243 67q98 67 133 118l15 20l133 -143q-30 -38 -90 -88q-119 -101 -273 -150q-92 -29 -186 -28q-193 0 -297 100t-86 237q6 45 25 81q18 36 32 48l15 15l2 10h-113l23 164h1003l-22 -164h-635l-22 -11q-13 -7 -38 -42q-24 -34 -32 -90t40 -100
q46 -44 130 -44zM225 1167q208 208 459 205q193 0 296 -100t85 -238q-5 -45 -23 -81t-32 -48l-15 -14l-2 -10h113l-23 -164h-1003l22 164h635l22 11q13 7 38 42q25 34 33 90t-40 100t-138 43q-90 0 -164 -39q-75 -39 -107 -75l-35 -39z" />
    <glyph glyph-name="uni20BD" unicode="&#x20bd;" horiz-adv-x="1290" 
d="M676 1167q-118 0 -178 -24l-21 -6l-80 -564h236q137 0 239 86t120 212q17 126 -67 211q-85 85 -249 85zM698 1372q270 0 414 -143t116 -351t-196 -338t-422 -130h-235l-15 -93h484l-23 -163h-483l-21 -154h-225l21 154h-133l22 163h133l15 93h-134l23 163h133l102 738
q154 61 424 61z" />
    <glyph glyph-name="afii61352" unicode="&#x2116;" horiz-adv-x="2048" 
d="M1675 922q51 0 94 50t56 144q12 94 -17 144q-30 50 -80 51q-50 0 -94 -50q-43 -51 -55 -145q-11 -94 17 -144t79 -50zM1749 1454q125 0 198 -94t53 -244t-120 -244t-225 -94t-198 94q-72 94 -52 244q19 150 119 244t225 94zM901 0l-455 993h-10l-139 -993h-225l200 1434
h205l455 -994h10l139 994h226l-201 -1434h-205zM1331 451l29 194h553l-29 -194h-553z" />
    <glyph glyph-name="trademark" unicode="&#x2122;" horiz-adv-x="1320" 
d="M111 1300l18 134h481l-18 -134h-164l-68 -481h-153l67 481h-163zM1317 1434l-86 -615h-154l49 359h-10l-145 -164h-72l-100 164h-11l-49 -359h-153l86 615h143l141 -236h11l207 236h143z" />
    <glyph glyph-name="minus" unicode="&#x2212;" horiz-adv-x="839" 
d="M53 532l29 205h676l-29 -205h-676z" />
    <glyph glyph-name="Breve" unicode="&#xf406;" horiz-adv-x="675" 
d="M461 1608q-121 0 -186 70t-56 186h143q0 -55 32 -89t85 -34t93 34t57 89h143q-23 -117 -106 -187q-84 -69 -205 -69z" />
    <glyph glyph-name="Circumflex" unicode="&#xf408;" horiz-adv-x="696" 
d="M608 1864l150 -256h-195l-71 153l-113 -153h-195l219 256h205z" />
    <glyph glyph-name="Dotaccent" unicode="&#xf40b;" horiz-adv-x="348" 
d="M188 1638l27 185h225l-26 -185h-226z" />
    <glyph glyph-name="Ring" unicode="&#xf40c;" horiz-adv-x="532" 
d="M434 1925q92 0 140 -54t37 -140t-75 -141q-65 -54 -157 -54t-140 54t-38 141q12 86 77 140q64 54 156 54zM396 1649q82 0 91 82q12 82 -69 81q-82 1 -94 -81q-10 -82 72 -82z" />
    <glyph glyph-name="Tilde" unicode="&#xf40d;" horiz-adv-x="706" 
d="M391 1700q-47 0 -72 -82h-133q57 236 207 235q51 0 117 -41t86 -40q47 -1 74 81h133q-61 -236 -207 -235q-51 0 -118 41t-87 41z" />
    <glyph glyph-name="commaaccent" unicode="&#xf6c3;" horiz-adv-x="348" 
d="M12 -338h-102l29 205h225l-21 -154q-12 -82 -66 -138t-102 -71l-49 -16l-20 72q34 7 68 36t38 66z" />
    <glyph glyph-name="Acute" unicode="&#xf6c9;" horiz-adv-x="481" 
d="M184 1608l168 256h226l-230 -256h-164z" />
    <glyph glyph-name="Caron" unicode="&#xf6ca;" horiz-adv-x="696" 
d="M369 1608l-150 256h195l71 -154l113 154h195l-220 -256h-204z" />
    <glyph glyph-name="Dieresis" unicode="&#xf6cb;" horiz-adv-x="655" 
d="M526 1638l27 185h195l-27 -185h-195zM188 1638l27 185h195l-27 -185h-195z" />
    <glyph glyph-name="Grave" unicode="&#xf6ce;" horiz-adv-x="481" 
d="M444 1864l99 -256h-164l-160 256h225z" />
    <glyph glyph-name="Hungarumlaut" unicode="&#xf6cf;" horiz-adv-x="798" 
d="M512 1608l158 256h225l-219 -256h-164zM184 1608l158 256h225l-219 -256h-164z" />
    <glyph glyph-name="Macron" unicode="&#xf6d0;" horiz-adv-x="675" 
d="M190 1659l23 153h553l-23 -153h-553z" />
    <glyph glyph-name="cyrBreve" unicode="&#xf6d1;" horiz-adv-x="696" 
d="M467 1577q-129 0 -195 71t-55 195h143q-2 -61 31 -97t94 -36q125 0 162 133h144q-25 -125 -110 -195t-214 -71z" />
    <glyph glyph-name="cyrbreve" unicode="&#xf6d4;" horiz-adv-x="655" 
d="M391 1188q-117 0 -177 74t-50 202h143q-6 -143 103 -143t143 143h143q-28 -128 -108 -202t-197 -74z" />
    <glyph glyph-name="Germandbls" horiz-adv-x="1290" 
d="M654 184q97 0 175 76q79 76 97 212t-43 211t-193 75h-51l25 184q82 16 178 84q37 27 71 76q35 49 43 106q-76 41 -206 41t-226 -82t-112 -204l-136 -963h-225l135 963q29 217 192 354t398 137q177 0 280 -60t132 -104l14 -20q-10 -74 -42 -141t-90 -132t-112 -92l-24 -14
l-2 -10q105 -42 169 -124q32 -42 52 -118t8 -168q-31 -211 -183 -351t-337 -140q-68 0 -127 15t-84 30l-27 16l99 184q55 -41 152 -41z" />
    <glyph glyph-name="foundryicon" horiz-adv-x="2519" 
d="M1526 440q16 0 28 12t13 28q1 14 -13 28t-28 14h-113v-82h113zM1526 1075q16 1 28 13t13 27t-13 29t-28 13h-113v-82h113zM1976 1249v-92h-235q-19 76 -82 92h317zM1976 614v-92h-235q-19 76 -82 92h317zM1618 184v133q41 8 78 43t45 80h164v-92h-174v-72h245v-92h-358z
M1618 819v133q41 8 78 43t45 80h164v-92h-174v-72h245v-92h-358zM614 1157h-133v92h338l51 -92h-143v-338h-113v338zM614 522h-133v92h338l51 -92h-143v-338h-113v338zM1126 819h-112v164l-154 266h123l82 -153h10l82 153h133l-164 -266v-164zM1126 184h-112v164l-154 266
h123l82 -153h10l82 153h133l-164 -266v-164zM1300 614h226q74 0 119 -39t45 -94t-45 -94t-119 -39h-113v-164h-113v430zM1300 1249h226q74 0 119 -39t45 -94t-45 -94t-119 -39h-113v-164h-113v430zM2273 -184v1802h-2027v-1802h2027zM205 -225v1884h2109v-1884h-2109z" />
    </font>
</defs>
</svg>
