<?xml version="1.0" encoding="UTF-8"?>
<svg xmlns="http://www.w3.org/2000/svg" xmlns:xlink="http://www.w3.org/1999/xlink" version="1.2" >
<font id="Bison ThinOutline">
<font-face  font-family="Bison" units-per-em="1000" ascent="790" descent="-200" font-style="normal" font-weight="900" font-stretch="normal" cap-height="700" x-height="500" underline-position="-75" underline-thickness="50" />
<missing-glyph  horiz-adv-x="600" d="" />
<glyph glyph-name="space" unicode="&#x20;" horiz-adv-x="155" d="" />
<glyph glyph-name="A" unicode="A" horiz-adv-x="408" d="M302 -2 L275 143 L133 143 L105 -2 L14 -2 L161 702 L247 702 L393 -2 L302 -2 Z M306 2 L389 2 L243 698 L165 698 L18 2 L101 2 L129 147 L279 147 L306 2 Z M149 232 L259 232 L204 520 L149 232 Z M145 228 L204 542 L263 228 L145 228 Z " />
<glyph glyph-name="Aacute" unicode="&#xc1;" horiz-adv-x="408" d="M302 -2 L275 143 L133 143 L105 -2 L14 -2 L161 702 L247 702 L393 -2 L302 -2 Z M306 2 L389 2 L243 698 L165 698 L18 2 L101 2 L129 147 L279 147 L306 2 Z M149 232 L259 232 L204 520 L149 232 Z M145 228 L204 542 L263 228 L145 228 Z M247 840 L183 739 L228 739 L327 840 L247 840 Z M245 844 L337 844 L230 735 L175 735 L245 844 Z " />
<glyph glyph-name="Abreve" unicode="&#x102;" horiz-adv-x="408" d="M302 -2 L275 143 L133 143 L105 -2 L14 -2 L161 702 L247 702 L393 -2 L302 -2 Z M306 2 L389 2 L243 698 L165 698 L18 2 L101 2 L129 147 L279 147 L306 2 Z M149 232 L259 232 L204 520 L149 232 Z M145 228 L204 542 L263 228 L145 228 Z M307 840 Q308 797 277.5 766 Q247 735 204 735 Q161 735 130.5 766 Q100 797 101 840 L148 840 Q147 816 164 799 Q181 782 204 782 Q228 782 244.5 799.5 Q261 817 260 840 L307 840 Z M264 836 Q263 812 246 795 Q229 778 204 778 Q180 778 162.5 794.5 Q145 811 144 836 L105 836 Q106 796 135 767.5 Q164 739 204 739 Q244 739 273 767.5 Q302 796 303 836 L264 836 Z " />
<glyph glyph-name="uni1EAE" unicode="&#x1eae;" horiz-adv-x="408" d="M302 -2 L275 143 L133 143 L105 -2 L14 -2 L161 702 L247 702 L393 -2 L302 -2 Z M306 2 L389 2 L243 698 L165 698 L18 2 L101 2 L129 147 L279 147 L306 2 Z M149 232 L259 232 L204 520 L149 232 Z M145 228 L204 542 L263 228 L145 228 Z M307 840 Q308 797 277.5 766 Q247 735 204 735 Q161 735 130.5 766 Q100 797 101 840 L148 840 Q147 816 164 799 Q181 782 204 782 Q228 782 244.5 799.5 Q261 817 260 840 L307 840 Z M264 836 Q263 812 246 795 Q229 778 204 778 Q180 778 162.5 794.5 Q145 811 144 836 L105 836 Q106 796 135 767.5 Q164 739 204 739 Q244 739 273 767.5 Q302 796 303 836 L264 836 Z M246 969 L182 868 L227 868 L326 969 L246 969 Z M244 973 L336 973 L229 864 L174 864 L244 973 Z " />
<glyph glyph-name="uni1EB6" unicode="&#x1eb6;" horiz-adv-x="408" d="M302 -2 L275 143 L133 143 L105 -2 L14 -2 L161 702 L247 702 L393 -2 L302 -2 Z M306 2 L389 2 L243 698 L165 698 L18 2 L101 2 L129 147 L279 147 L306 2 Z M149 232 L259 232 L204 520 L149 232 Z M145 228 L204 542 L263 228 L145 228 Z M307 840 Q308 797 277.5 766 Q247 735 204 735 Q161 735 130.5 766 Q100 797 101 840 L148 840 Q147 816 164 799 Q181 782 204 782 Q228 782 244.5 799.5 Q261 817 260 840 L307 840 Z M264 836 Q263 812 246 795 Q229 778 204 778 Q180 778 162.5 794.5 Q145 811 144 836 L105 836 Q106 796 135 767.5 Q164 739 204 739 Q244 739 273 767.5 Q302 796 303 836 L264 836 Z M204 -42 Q186 -42 173.5 -54.5 Q161 -67 161 -85 Q161 -103 173.5 -115.5 Q186 -128 204 -128 Q222 -128 234.5 -115.5 Q247 -103 247 -85 Q247 -67 234.5 -54.5 Q222 -42 204 -42 Z M204 -38 Q224 -38 237.5 -52 Q251 -66 251 -85 Q251 -105 237.5 -118.5 Q224 -132 204 -132 Q185 -132 171 -118.5 Q157 -105 157 -85 Q157 -66 171 -52 Q185 -38 204 -38 Z " />
<glyph glyph-name="uni1EB0" unicode="&#x1eb0;" horiz-adv-x="408" d="M105 -2 L14 -2 L160 702 L246 702 L393 -2 L302 -2 L274 143 L132 143 L105 -2 Z M101 2 L128 147 L278 147 L306 2 L389 2 L242 698 L164 698 L18 2 L101 2 Z M258 232 L203 520 L148 232 L258 232 Z M262 228 L144 228 L203 542 L262 228 Z M147 840 Q146 816 163 799 Q180 782 203 782 Q227 782 243.5 799.5 Q260 817 259 840 L306 840 Q307 797 276.5 766 Q246 735 203 735 Q160 735 129.5 766 Q99 797 100 840 L147 840 Z M104 836 Q105 796 134 767.5 Q163 739 203 739 Q243 739 272 767.5 Q301 796 302 836 L263 836 Q262 812 245 795 Q228 778 203 778 Q179 778 161.5 794.5 Q144 811 143 836 L104 836 Z M161 969 L81 969 L180 868 L225 868 L161 969 Z M163 973 L233 864 L178 864 L71 973 L163 973 Z " />
<glyph glyph-name="uni1EB2" unicode="&#x1eb2;" horiz-adv-x="408" d="M105 -2 L14 -2 L160 702 L246 702 L393 -2 L302 -2 L274 143 L132 143 L105 -2 Z M101 2 L128 147 L278 147 L306 2 L389 2 L242 698 L164 698 L18 2 L101 2 Z M258 232 L203 520 L148 232 L258 232 Z M262 228 L144 228 L203 542 L262 228 Z M147 840 Q146 816 163 799 Q180 782 203 782 Q227 782 243.5 799.5 Q260 817 259 840 L306 840 Q307 797 276.5 766 Q246 735 203 735 Q160 735 129.5 766 Q99 797 100 840 L147 840 Z M104 836 Q105 796 134 767.5 Q163 739 203 739 Q243 739 272 767.5 Q301 796 302 836 L263 836 Q262 812 245 795 Q228 778 203 778 Q179 778 161.5 794.5 Q144 811 143 836 L104 836 Z M124 969 Q167 969 197.5 938 Q228 907 227 864 L180 864 Q181 888 164 905 Q147 922 123 922 L83 961 Q102 969 124 969 Z M124 965 Q102 965 88 958 L88 961 L125 926 Q149 926 166 909 Q183 892 184 868 L223 868 Q222 908 193 936.5 Q164 965 124 965 Z " />
<glyph glyph-name="uni1EB4" unicode="&#x1eb4;" horiz-adv-x="408" d="M105 -2 L14 -2 L160 702 L246 702 L393 -2 L302 -2 L274 143 L132 143 L105 -2 Z M101 2 L128 147 L278 147 L306 2 L389 2 L242 698 L164 698 L18 2 L101 2 Z M258 232 L203 520 L148 232 L258 232 Z M262 228 L144 228 L203 542 L262 228 Z M147 840 Q146 816 163 799 Q180 782 203 782 Q227 782 243.5 799.5 Q260 817 259 840 L306 840 Q307 797 276.5 766 Q246 735 203 735 Q160 735 129.5 766 Q99 797 100 840 L147 840 Z M104 836 Q105 796 134 767.5 Q163 739 203 739 Q243 739 272 767.5 Q301 796 302 836 L263 836 Q262 812 245 795 Q228 778 203 778 Q179 778 161.5 794.5 Q144 811 143 836 L104 836 Z M107 868 Q134 898 156 898 Q172 898 195 885 Q223 867 250 867 Q291 867 328 913 L297 936 Q277 911 257 907 Q238 904 215 918 Q181 938 155 938 Q114 938 77 892 L107 868 Z M71 892 Q111 942 155 942 Q183 942 217 922 Q239 908 257 911 Q276 916 297 942 L334 913 Q296 863 250 863 Q223 863 193 881 Q170 894 155 894 Q134 894 107 862 L71 892 Z " />
<glyph glyph-name="uni01CD" unicode="&#x1cd;" horiz-adv-x="408" d="M302 -2 L275 143 L133 143 L105 -2 L14 -2 L161 702 L247 702 L393 -2 L302 -2 Z M306 2 L389 2 L243 698 L165 698 L18 2 L101 2 L129 147 L279 147 L306 2 Z M149 232 L259 232 L204 520 L149 232 Z M145 228 L204 542 L263 228 L145 228 Z M318 842 L247 735 L160 735 L89 842 L145 842 L204 786 L263 842 L318 842 Z M310 838 L265 838 L204 780 L143 838 L97 838 L162 739 L245 739 L310 838 Z " />
<glyph glyph-name="Acircumflex" unicode="&#xc2;" horiz-adv-x="408" d="M302 -2 L275 143 L133 143 L105 -2 L14 -2 L161 702 L247 702 L393 -2 L302 -2 Z M306 2 L389 2 L243 698 L165 698 L18 2 L101 2 L129 147 L279 147 L306 2 Z M149 232 L259 232 L204 520 L149 232 Z M145 228 L204 542 L263 228 L145 228 Z M318 735 L263 735 L204 791 L145 735 L89 735 L160 842 L247 842 L318 735 Z M310 739 L245 838 L162 838 L97 739 L143 739 L204 797 L265 739 L310 739 Z " />
<glyph glyph-name="uni1EA4" unicode="&#x1ea4;" horiz-adv-x="462" d="M302 -2 L275 143 L133 143 L105 -2 L14 -2 L161 702 L247 702 L393 -2 L302 -2 Z M306 2 L389 2 L243 698 L165 698 L18 2 L101 2 L129 147 L279 147 L306 2 Z M149 232 L259 232 L204 520 L149 232 Z M145 228 L204 542 L263 228 L145 228 Z M318 735 L263 735 L204 791 L145 735 L89 735 L160 842 L247 842 L318 735 Z M310 739 L245 838 L162 838 L97 739 L143 739 L204 797 L265 739 L310 739 Z M360 940 L296 839 L341 839 L440 940 L360 940 Z M358 944 L450 944 L343 835 L288 835 L358 944 Z " />
<glyph glyph-name="uni1EAC" unicode="&#x1eac;" horiz-adv-x="408" d="M302 -2 L275 143 L133 143 L105 -2 L14 -2 L161 702 L247 702 L393 -2 L302 -2 Z M306 2 L389 2 L243 698 L165 698 L18 2 L101 2 L129 147 L279 147 L306 2 Z M149 232 L259 232 L204 520 L149 232 Z M145 228 L204 542 L263 228 L145 228 Z M204 -42 Q186 -42 173.5 -54.5 Q161 -67 161 -85 Q161 -103 173.5 -115.5 Q186 -128 204 -128 Q222 -128 234.5 -115.5 Q247 -103 247 -85 Q247 -67 234.5 -54.5 Q222 -42 204 -42 Z M204 -38 Q224 -38 237.5 -52 Q251 -66 251 -85 Q251 -105 237.5 -118.5 Q224 -132 204 -132 Q185 -132 171 -118.5 Q157 -105 157 -85 Q157 -66 171 -52 Q185 -38 204 -38 Z M318 735 L263 735 L204 791 L145 735 L89 735 L160 842 L247 842 L318 735 Z M310 739 L245 838 L162 838 L97 739 L143 739 L204 797 L265 739 L310 739 Z " />
<glyph glyph-name="uni1EA6" unicode="&#x1ea6;" horiz-adv-x="408" d="M302 -2 L275 143 L133 143 L105 -2 L14 -2 L161 702 L247 702 L393 -2 L302 -2 Z M306 2 L389 2 L243 698 L165 698 L18 2 L101 2 L129 147 L279 147 L306 2 Z M149 232 L259 232 L204 520 L149 232 Z M145 228 L204 542 L263 228 L145 228 Z M318 735 L263 735 L204 791 L145 735 L89 735 L160 842 L247 842 L318 735 Z M310 739 L245 838 L162 838 L97 739 L143 739 L204 797 L265 739 L310 739 Z M274 940 L194 940 L293 839 L338 839 L274 940 Z M276 944 L346 835 L291 835 L184 944 L276 944 Z " />
<glyph glyph-name="uni1EA8" unicode="&#x1ea8;" horiz-adv-x="408" d="M302 -2 L275 143 L133 143 L105 -2 L14 -2 L161 702 L247 702 L393 -2 L302 -2 Z M306 2 L389 2 L243 698 L165 698 L18 2 L101 2 L129 147 L279 147 L306 2 Z M149 232 L259 232 L204 520 L149 232 Z M145 228 L204 542 L263 228 L145 228 Z M318 735 L263 735 L204 791 L145 735 L89 735 L160 842 L247 842 L318 735 Z M310 739 L245 838 L162 838 L97 739 L143 739 L204 797 L265 739 L310 739 Z M234 940 Q277 940 307.5 909 Q338 878 337 835 L290 835 Q291 859 274 876 Q257 893 233 893 L193 932 Q212 940 234 940 Z M234 936 Q212 936 198 929 L198 932 L235 897 Q259 897 276 880 Q293 863 294 839 L333 839 Q332 879 303 907.5 Q274 936 234 936 Z " />
<glyph glyph-name="uni1EAA" unicode="&#x1eaa;" horiz-adv-x="408" d="M302 -2 L275 143 L133 143 L105 -2 L14 -2 L161 702 L247 702 L393 -2 L302 -2 Z M306 2 L389 2 L243 698 L165 698 L18 2 L101 2 L129 147 L279 147 L306 2 Z M149 232 L259 232 L204 520 L149 232 Z M145 228 L204 542 L263 228 L145 228 Z M104 868 Q131 898 153 898 Q169 898 192 885 Q221 867 247 867 Q288 867 325 913 L294 936 Q274 911 254 907 Q235 904 212 918 Q178 938 152 938 Q111 938 74 892 L104 868 Z M68 892 Q108 942 152 942 Q180 942 214 922 Q236 908 254 911 Q273 916 294 942 L331 913 Q293 863 247 863 Q220 863 190 881 Q167 894 152 894 Q131 894 104 862 L68 892 Z M318 735 L263 735 L204 791 L145 735 L89 735 L160 842 L247 842 L318 735 Z M310 739 L245 838 L162 838 L97 739 L143 739 L204 797 L265 739 L310 739 Z " />
<glyph glyph-name="Adieresis" unicode="&#xc4;" horiz-adv-x="408" d="M302 -2 L275 143 L133 143 L105 -2 L14 -2 L161 702 L247 702 L393 -2 L302 -2 Z M306 2 L389 2 L243 698 L165 698 L18 2 L101 2 L129 147 L279 147 L306 2 Z M149 232 L259 232 L204 520 L149 232 Z M145 228 L204 542 L263 228 L145 228 Z M175 782 Q175 800 162.5 812.5 Q150 825 132 825 Q114 825 101.5 812.5 Q89 800 89 782 Q89 764 101.5 751.5 Q114 739 132 739 Q150 739 162.5 751.5 Q175 764 175 782 Z M179 782 Q179 763 165.5 749 Q152 735 132 735 Q113 735 99 749 Q85 763 85 782 Q85 802 99 815.5 Q113 829 132 829 Q152 829 165.5 815.5 Q179 802 179 782 Z M319 782 Q319 800 306.5 812.5 Q294 825 276 825 Q258 825 245.5 812.5 Q233 800 233 782 Q233 764 245.5 751.5 Q258 739 276 739 Q294 739 306.5 751.5 Q319 764 319 782 Z M323 782 Q323 763 309.5 749 Q296 735 276 735 Q257 735 243 749 Q229 763 229 782 Q229 802 243 815.5 Q257 829 276 829 Q296 829 309.5 815.5 Q323 802 323 782 Z " />
<glyph glyph-name="uni01DE" unicode="&#x1de;" horiz-adv-x="408" d="M302 -2 L275 143 L133 143 L105 -2 L14 -2 L161 702 L247 702 L393 -2 L302 -2 Z M306 2 L389 2 L243 698 L165 698 L18 2 L101 2 L129 147 L279 147 L306 2 Z M149 232 L259 232 L204 520 L149 232 Z M145 228 L204 542 L263 228 L145 228 Z M175 782 Q175 800 162.5 812.5 Q150 825 132 825 Q114 825 101.5 812.5 Q89 800 89 782 Q89 764 101.5 751.5 Q114 739 132 739 Q150 739 162.5 751.5 Q175 764 175 782 Z M179 782 Q179 763 165.5 749 Q152 735 132 735 Q113 735 99 749 Q85 763 85 782 Q85 802 99 815.5 Q113 829 132 829 Q152 829 165.5 815.5 Q179 802 179 782 Z M319 782 Q319 800 306.5 812.5 Q294 825 276 825 Q258 825 245.5 812.5 Q233 800 233 782 Q233 764 245.5 751.5 Q258 739 276 739 Q294 739 306.5 751.5 Q319 764 319 782 Z M323 782 Q323 763 309.5 749 Q296 735 276 735 Q257 735 243 749 Q229 763 229 782 Q229 802 243 815.5 Q257 829 276 829 Q296 829 309.5 815.5 Q323 802 323 782 Z M354 867 L354 908 L54 908 L54 867 L354 867 Z M358 863 L50 863 L50 912 L358 912 L358 863 Z " />
<glyph glyph-name="uni1EA0" unicode="&#x1ea0;" horiz-adv-x="408" d="M302 -2 L275 143 L133 143 L105 -2 L14 -2 L161 702 L247 702 L393 -2 L302 -2 Z M306 2 L389 2 L243 698 L165 698 L18 2 L101 2 L129 147 L279 147 L306 2 Z M149 232 L259 232 L204 520 L149 232 Z M145 228 L204 542 L263 228 L145 228 Z M204 -42 Q186 -42 173.5 -54.5 Q161 -67 161 -85 Q161 -103 173.5 -115.5 Q186 -128 204 -128 Q222 -128 234.5 -115.5 Q247 -103 247 -85 Q247 -67 234.5 -54.5 Q222 -42 204 -42 Z M204 -38 Q224 -38 237.5 -52 Q251 -66 251 -85 Q251 -105 237.5 -118.5 Q224 -132 204 -132 Q185 -132 171 -118.5 Q157 -105 157 -85 Q157 -66 171 -52 Q185 -38 204 -38 Z " />
<glyph glyph-name="Agrave" unicode="&#xc0;" horiz-adv-x="408" d="M302 -2 L275 143 L133 143 L105 -2 L14 -2 L161 702 L247 702 L393 -2 L302 -2 Z M306 2 L389 2 L243 698 L165 698 L18 2 L101 2 L129 147 L279 147 L306 2 Z M149 232 L259 232 L204 520 L149 232 Z M145 228 L204 542 L263 228 L145 228 Z M161 840 L81 840 L180 739 L225 739 L161 840 Z M163 844 L233 735 L178 735 L71 844 L163 844 Z " />
<glyph glyph-name="uni1EA2" unicode="&#x1ea2;" horiz-adv-x="408" d="M302 -2 L275 143 L133 143 L105 -2 L14 -2 L161 702 L247 702 L393 -2 L302 -2 Z M306 2 L389 2 L243 698 L165 698 L18 2 L101 2 L129 147 L279 147 L306 2 Z M149 232 L259 232 L204 520 L149 232 Z M145 228 L204 542 L263 228 L145 228 Z M125 840 Q168 840 198.5 809 Q229 778 228 735 L181 735 Q182 759 165 776 Q148 793 124 793 L84 832 Q103 840 125 840 Z M125 836 Q103 836 89 829 L89 832 L126 797 Q150 797 167 780 Q184 763 185 739 L224 739 Q223 779 194 807.5 Q165 836 125 836 Z " />
<glyph glyph-name="Amacron" unicode="&#x100;" horiz-adv-x="408" d="M302 -2 L275 143 L133 143 L105 -2 L14 -2 L161 702 L247 702 L393 -2 L302 -2 Z M306 2 L389 2 L243 698 L165 698 L18 2 L101 2 L129 147 L279 147 L306 2 Z M149 232 L259 232 L204 520 L149 232 Z M145 228 L204 542 L263 228 L145 228 Z M353 739 L353 780 L54 780 L54 739 L353 739 Z M357 735 L50 735 L50 784 L357 784 L357 735 Z " />
<glyph glyph-name="Aogonek" unicode="&#x104;" horiz-adv-x="408" d="M337 -59 Q337 -79 375 -79 L386 -79 L386 -128 L365 -128 Q323 -128 300 -114 Q277 -100 277 -73 Q277 -33 345 2 L346 -2 L302 -2 L275 143 L133 143 L105 -2 L14 -2 L161 702 L247 702 L393 -1 Q370 -9 353.5 -26 Q337 -43 337 -59 Z M333 -59 Q333 -42 349.5 -24.5 Q366 -7 389 1 L243 698 L165 698 L18 2 L101 2 L129 147 L279 147 L306 2 L346 2 L347 -2 Q281 -36 281 -73 Q281 -98 303 -111 Q325 -124 365 -124 L382 -124 L382 -83 L375 -83 Q333 -83 333 -59 Z M149 232 L259 232 L204 520 L149 232 Z M145 228 L204 542 L263 228 L145 228 Z " />
<glyph glyph-name="Aring" unicode="&#xc5;" horiz-adv-x="408" d="M302 -2 L275 143 L133 143 L105 -2 L14 -2 L161 702 L247 702 L393 -2 L302 -2 Z M306 2 L389 2 L243 698 L165 698 L18 2 L101 2 L129 147 L279 147 L306 2 Z M149 232 L259 232 L204 520 L149 232 Z M145 228 L204 542 L263 228 L145 228 Z M204 742 Q230 742 247.5 760 Q265 778 265 803 Q265 829 247 847 Q229 865 204 865 Q179 865 160.5 847 Q142 829 142 803 Q142 778 160 760 Q178 742 204 742 Z M204 738 Q177 738 157.5 757 Q138 776 138 803 Q138 830 157.5 849.5 Q177 869 204 869 Q231 869 250 849.5 Q269 830 269 803 Q269 776 250 757 Q231 738 204 738 Z M204 826 Q213 826 219.5 819.5 Q226 813 226 803 Q226 794 219.5 787.5 Q213 781 204 781 Q195 781 188 787.5 Q181 794 181 803 Q181 813 188 819.5 Q195 826 204 826 Z M204 822 Q196 822 190.5 816.5 Q185 811 185 803 Q185 796 190.5 790.5 Q196 785 204 785 Q212 785 217 790.5 Q222 796 222 803 Q222 811 216.5 816.5 Q211 822 204 822 Z " />
<glyph glyph-name="Atilde" unicode="&#xc3;" horiz-adv-x="408" d="M302 -2 L275 143 L133 143 L105 -2 L14 -2 L161 702 L247 702 L393 -2 L302 -2 Z M306 2 L389 2 L243 698 L165 698 L18 2 L101 2 L129 147 L279 147 L306 2 Z M149 232 L259 232 L204 520 L149 232 Z M145 228 L204 542 L263 228 L145 228 Z M104 738 Q131 768 153 768 Q169 768 192 755 Q221 737 247 737 Q288 737 325 783 L294 806 Q274 781 254 777 Q235 774 212 788 Q178 808 152 808 Q111 808 74 762 L104 738 Z M68 762 Q108 812 152 812 Q180 812 214 792 Q236 778 254 781 Q273 786 294 812 L331 783 Q293 733 247 733 Q220 733 190 751 Q167 764 152 764 Q131 764 104 732 L68 762 Z " />
<glyph glyph-name="AE" unicode="&#xc6;" horiz-adv-x="568" d="M539 613 L349 613 L349 403 L481 403 L481 314 L349 314 L349 87 L539 87 L539 -2 L260 -2 L260 124 L138 124 L106 -2 L13 -2 L192 702 L539 702 L539 613 Z M535 617 L535 698 L196 698 L19 2 L102 2 L134 128 L264 128 L264 2 L535 2 L535 83 L345 83 L345 318 L477 318 L477 399 L345 399 L345 617 L535 617 Z M161 213 L260 213 L260 599 L161 213 Z M155 209 L264 631 L264 209 L155 209 Z " />
<glyph glyph-name="B" unicode="B" horiz-adv-x="386" d="M199 2 Q265 2 308 39 Q355 80 355 161 L355 227 Q355 317 292 357 Q339 395 339 471 L339 538 Q339 619 292 661 Q251 697 183 697 L42 697 L42 2 L199 2 Z M38 701 L183 701 Q254 701 294 664 Q343 621 343 538 L343 471 Q343 433 332 405 Q321 377 298 357 Q359 315 359 227 L359 161 Q359 78 310 35 Q267 -2 199 -2 L38 -2 L38 701 Z M199 309 Q237 309 255.5 289 Q274 269 274 227 L274 161 Q274 118 254 98 Q235 83 199 83 L123 83 L123 309 L199 309 Z M127 87 L199 87 Q235 87 252 101 Q270 121 270 161 L270 227 Q270 267 253 286 Q236 305 199 305 L127 305 L127 87 Z M123 616 L183 616 Q223 616 240.5 598 Q258 580 258 538 L258 471 Q258 428 240 409 Q222 390 183 390 L123 390 L123 616 Z M183 394 Q220 394 237 412 Q254 430 254 471 L254 538 Q254 578 237.5 595 Q221 612 183 612 L127 612 L127 394 L183 394 Z " />
<glyph glyph-name="uni1E04" unicode="&#x1e04;" horiz-adv-x="386" d="M199 2 Q265 2 308 39 Q355 80 355 161 L355 227 Q355 317 292 357 Q339 395 339 471 L339 538 Q339 619 292 661 Q251 697 183 697 L42 697 L42 2 L199 2 Z M38 701 L183 701 Q254 701 294 664 Q343 621 343 538 L343 471 Q343 433 332 405 Q321 377 298 357 Q359 315 359 227 L359 161 Q359 78 310 35 Q267 -2 199 -2 L38 -2 L38 701 Z M199 309 Q237 309 255.5 289 Q274 269 274 227 L274 161 Q274 118 254 98 Q235 83 199 83 L123 83 L123 309 L199 309 Z M127 87 L199 87 Q235 87 252 101 Q270 121 270 161 L270 227 Q270 267 253 286 Q236 305 199 305 L127 305 L127 87 Z M123 616 L183 616 Q223 616 240.5 598 Q258 580 258 538 L258 471 Q258 428 240 409 Q222 390 183 390 L123 390 L123 616 Z M183 394 Q220 394 237 412 Q254 430 254 471 L254 538 Q254 578 237.5 595 Q221 612 183 612 L127 612 L127 394 L183 394 Z M199 -42 Q181 -42 168.5 -54.5 Q156 -67 156 -85 Q156 -103 168.5 -115.5 Q181 -128 199 -128 Q217 -128 229.5 -115.5 Q242 -103 242 -85 Q242 -67 229.5 -54.5 Q217 -42 199 -42 Z M199 -38 Q219 -38 232.5 -52 Q246 -66 246 -85 Q246 -105 232.5 -118.5 Q219 -132 199 -132 Q180 -132 166 -118.5 Q152 -105 152 -85 Q152 -66 166 -52 Q180 -38 199 -38 Z " />
<glyph glyph-name="uni0181" unicode="&#x181;" horiz-adv-x="431" d="M343 357 Q404 315 404 227 L404 161 Q404 78 355 35 Q312 -2 244 -2 L83 -2 L83 654 L43 654 Q35 654 29.5 648 Q24 642 25 634 L-22 634 Q-23 662 -3.5 681.5 Q16 701 43 701 L228 701 Q299 701 339 664 Q388 621 388 538 L388 471 Q388 433 377 405 Q366 377 343 357 Z M337 357 Q384 395 384 471 L384 538 Q384 619 337 661 Q296 697 228 697 L43 697 Q18 697 0.5 680 Q-17 663 -18 638 L21 638 Q22 646 28 652 Q34 658 43 658 L87 658 L87 2 L244 2 Q310 2 353 39 Q400 80 400 161 L400 227 Q400 316 337 357 Z M172 394 L228 394 Q265 394 282 412 Q299 430 299 471 L299 538 Q299 578 282.5 595 Q266 612 228 612 L172 612 L172 394 Z M228 616 Q268 616 285.5 598 Q303 580 303 538 L303 471 Q303 428 285 409 Q267 390 228 390 L168 390 L168 616 L228 616 Z M315 227 Q315 267 298 286 Q281 305 244 305 L172 305 L172 87 L244 87 Q280 87 297 101 Q315 121 315 161 L315 227 Z M319 161 Q319 118 299 98 Q280 83 244 83 L168 83 L168 309 L244 309 Q282 309 300.5 289 Q319 269 319 227 L319 161 Z " />
<glyph glyph-name="uni0243" unicode="&#x243;" horiz-adv-x="406" d="M318 357 Q379 314 379 227 L379 161 Q379 78 330 35 Q287 -2 218 -2 L103 -2 L58 -2 L58 152 L-2 152 L-2 241 L58 241 L58 702 L203 702 Q273 702 314 665 Q363 622 363 539 L363 471 Q363 433 352 405 Q341 377 318 357 Z M311 357 Q336 377 347.5 404 Q359 431 359 471 L359 539 Q359 620 312 662 Q270 698 203 698 L62 698 L62 237 L2 237 L2 156 L62 156 L62 2 L103 2 L218 2 Q285 2 327 38 Q375 81 375 161 L375 227 Q375 314 311 357 Z M147 394 L203 394 Q240 394 257 412.5 Q274 431 274 471 L274 539 Q274 579 257.5 596 Q241 613 203 613 L147 613 L147 394 Z M203 617 Q243 617 260.5 599 Q278 581 278 539 L278 471 Q278 429 259.5 409.5 Q241 390 203 390 L143 390 L143 617 L203 617 Z M290 227 Q290 268 272.5 286.5 Q255 305 218 305 L147 305 L147 241 L205 241 L205 152 L147 152 L147 87 L218 87 Q253 87 271 102 Q290 119 290 161 L290 227 Z M294 161 Q294 117 273 99 Q256 83 218 83 L143 83 L143 156 L201 156 L201 237 L143 237 L143 309 L218 309 Q257 309 275.5 289.5 Q294 270 294 227 L294 161 Z " />
<glyph glyph-name="C" unicode="C" horiz-adv-x="381" d="M192 -7 Q258 -7 302 31 Q349 73 349 156 L349 248 L268 248 L268 156 Q268 113 249.5 93.5 Q231 74 192 74 Q154 74 135.5 94 Q117 114 117 156 L117 545 Q117 587 135.5 607 Q154 627 192 627 Q231 627 249.5 607.5 Q268 588 268 545 L268 483 L349 483 L349 545 Q349 625 302 670 Q258 708 192 708 Q126 708 83 670 Q36 625 36 545 L36 156 Q36 73 83 31 Q126 -7 192 -7 Z M192 -11 Q122 -11 81 29 Q32 72 32 156 L32 545 Q32 627 81 672 Q122 712 192 712 Q261 712 304 672 Q353 627 353 545 L353 479 L264 479 L264 545 Q264 586 246.5 604.5 Q229 623 192 623 Q155 623 138 604 Q121 585 121 545 L121 156 Q121 116 138 97 Q155 78 192 78 Q229 78 246.5 96.5 Q264 115 264 156 L264 252 L353 252 L353 156 Q353 72 304 29 Q261 -11 192 -11 Z " />
<glyph glyph-name="Cacute" unicode="&#x106;" horiz-adv-x="381" d="M192 -7 Q258 -7 302 31 Q349 73 349 156 L349 248 L268 248 L268 156 Q268 113 249.5 93.5 Q231 74 192 74 Q154 74 135.5 94 Q117 114 117 156 L117 545 Q117 587 135.5 607 Q154 627 192 627 Q231 627 249.5 607.5 Q268 588 268 545 L268 483 L349 483 L349 545 Q349 625 302 670 Q258 708 192 708 Q126 708 83 670 Q36 625 36 545 L36 156 Q36 73 83 31 Q126 -7 192 -7 Z M192 -11 Q122 -11 81 29 Q32 72 32 156 L32 545 Q32 627 81 672 Q122 712 192 712 Q261 712 304 672 Q353 627 353 545 L353 479 L264 479 L264 545 Q264 586 246.5 604.5 Q229 623 192 623 Q155 623 138 604 Q121 585 121 545 L121 156 Q121 116 138 97 Q155 78 192 78 Q229 78 246.5 96.5 Q264 115 264 156 L264 252 L353 252 L353 156 Q353 72 304 29 Q261 -11 192 -11 Z M234 840 L170 739 L215 739 L314 840 L234 840 Z M232 844 L324 844 L217 735 L162 735 L232 844 Z " />
<glyph glyph-name="Ccaron" unicode="&#x10c;" horiz-adv-x="381" d="M192 -7 Q258 -7 302 31 Q349 73 349 156 L349 248 L268 248 L268 156 Q268 113 249.5 93.5 Q231 74 192 74 Q154 74 135.5 94 Q117 114 117 156 L117 545 Q117 587 135.5 607 Q154 627 192 627 Q231 627 249.5 607.5 Q268 588 268 545 L268 483 L349 483 L349 545 Q349 625 302 670 Q258 708 192 708 Q126 708 83 670 Q36 625 36 545 L36 156 Q36 73 83 31 Q126 -7 192 -7 Z M192 -11 Q122 -11 81 29 Q32 72 32 156 L32 545 Q32 627 81 672 Q122 712 192 712 Q261 712 304 672 Q353 627 353 545 L353 479 L264 479 L264 545 Q264 586 246.5 604.5 Q229 623 192 623 Q155 623 138 604 Q121 585 121 545 L121 156 Q121 116 138 97 Q155 78 192 78 Q229 78 246.5 96.5 Q264 115 264 156 L264 252 L353 252 L353 156 Q353 72 304 29 Q261 -11 192 -11 Z M306 842 L235 735 L148 735 L77 842 L133 842 L192 786 L251 842 L306 842 Z M298 838 L253 838 L192 780 L131 838 L85 838 L150 739 L233 739 L298 838 Z " />
<glyph glyph-name="Ccedilla" unicode="&#xc7;" horiz-adv-x="381" d="M264 478 L264 544 Q264 584 247 603 Q230 622 193 622 Q156 622 138.5 603.5 Q121 585 121 544 L121 157 Q121 116 138.5 97.5 Q156 79 193 79 Q230 79 247 98 Q264 117 264 157 L264 253 L353 253 L353 157 Q353 75 304 30 Q271 -1 218 -9 Q219 -9 221 -11 Q221 -11 224 -14 Q257 -37 257 -71 Q257 -98 238 -117.5 Q219 -137 192 -137 Q165 -137 145 -117 Q125 -97 126 -69 L173 -69 L173 -71 Q173 -79 179 -84.5 Q185 -90 192 -90 Q199 -90 204.5 -84.5 Q210 -79 210 -71 Q210 -65 207.5 -61 Q205 -57 196 -51 Q195 -51 194 -50 Q193 -49 193 -49 Q172 -31 169 -9 Q115 -3 81 30 Q32 75 32 157 L32 544 Q32 628 81 671 Q102 690 131 700.5 Q160 711 193 711 Q225 711 254 700.5 Q283 690 304 671 Q353 628 353 544 L353 478 L264 478 Z M349 544 Q349 627 302 669 Q259 707 193 707 Q126 707 83 669 Q36 627 36 544 L36 157 Q36 77 83 32 Q119 1 173 -5 Q173 -27 195 -46 L197 -47 Q207 -54 210.5 -58.5 Q214 -63 214 -71 Q214 -80 207.5 -87 Q201 -94 192 -94 Q183 -94 176.5 -87.5 Q170 -81 169 -73 L130 -73 Q131 -98 149 -115.5 Q167 -133 192 -133 Q217 -133 235 -115 Q253 -97 253 -71 Q253 -50 244 -38 Q235 -26 220 -16 L220 -15 Q215 -13 213 -8 L215 -5 Q266 1 302 32 Q349 77 349 157 L349 249 L268 249 L268 157 Q268 115 249.5 95 Q231 75 193 75 Q154 75 135.5 94.5 Q117 114 117 157 L117 544 Q117 587 135.5 606.5 Q154 626 193 626 Q231 626 249.5 606 Q268 586 268 544 L268 482 L349 482 L349 544 Z " />
<glyph glyph-name="Cdotaccent" unicode="&#x10a;" horiz-adv-x="381" d="M192 -7 Q258 -7 302 31 Q349 73 349 156 L349 248 L268 248 L268 156 Q268 113 249.5 93.5 Q231 74 192 74 Q154 74 135.5 94 Q117 114 117 156 L117 545 Q117 587 135.5 607 Q154 627 192 627 Q231 627 249.5 607.5 Q268 588 268 545 L268 483 L349 483 L349 545 Q349 625 302 670 Q258 708 192 708 Q126 708 83 670 Q36 625 36 545 L36 156 Q36 73 83 31 Q126 -7 192 -7 Z M192 -11 Q122 -11 81 29 Q32 72 32 156 L32 545 Q32 627 81 672 Q122 712 192 712 Q261 712 304 672 Q353 627 353 545 L353 479 L264 479 L264 545 Q264 586 246.5 604.5 Q229 623 192 623 Q155 623 138 604 Q121 585 121 545 L121 156 Q121 116 138 97 Q155 78 192 78 Q229 78 246.5 96.5 Q264 115 264 156 L264 252 L353 252 L353 156 Q353 72 304 29 Q261 -11 192 -11 Z M235 782 Q235 800 222.5 812.5 Q210 825 192 825 Q174 825 161.5 812.5 Q149 800 149 782 Q149 764 161.5 751.5 Q174 739 192 739 Q210 739 222.5 751.5 Q235 764 235 782 Z M239 782 Q239 763 225.5 749 Q212 735 192 735 Q173 735 159 749 Q145 763 145 782 Q145 802 159 815.5 Q173 829 192 829 Q212 829 225.5 815.5 Q239 802 239 782 Z " />
<glyph glyph-name="uni0187" unicode="&#x187;" horiz-adv-x="381" d="M306 711 Q306 739 326 758 Q346 777 374 776 L374 729 L372 729 Q364 729 358.5 723.5 Q353 718 353 711 L353 479 L264 479 L264 545 Q264 586 246.5 604.5 Q229 623 192 623 Q155 623 138 604 Q121 585 121 545 L121 156 Q121 116 138 97 Q155 78 192 78 Q229 78 246.5 96.5 Q264 115 264 156 L264 252 L353 252 L353 156 Q353 72 304 29 Q261 -11 192 -11 Q122 -11 81 29 Q32 72 32 156 L32 545 Q32 627 81 672 Q122 712 192 712 Q261 712 304 672 Q309 667 309 667 L306 666 L306 711 Z M310 666 L307 665 Q302 670 302 670 Q258 708 192 708 Q126 708 83 670 Q36 625 36 545 L36 156 Q36 73 83 31 Q126 -7 192 -7 Q258 -7 302 31 Q349 73 349 156 L349 248 L268 248 L268 156 Q268 113 249.5 93.5 Q231 74 192 74 Q154 74 135.5 94 Q117 114 117 156 L117 545 Q117 587 135.5 607 Q154 627 192 627 Q231 627 249.5 607.5 Q268 588 268 545 L268 483 L349 483 L349 711 Q349 719 355 725.5 Q361 732 370 733 L370 772 Q345 771 327.5 753.5 Q310 736 310 711 L310 666 Z " />
<glyph glyph-name="D" unicode="D" horiz-adv-x="391" d="M199 2 Q267 2 308 37 Q355 81 355 161 L355 535 Q355 615 308 660 Q265 698 199 698 L42 698 L42 2 L199 2 Z M38 -2 L38 702 L199 702 Q269 702 310 662 Q359 617 359 535 L359 161 Q359 79 310 34 Q268 -2 199 -2 L38 -2 Z M123 617 L199 617 Q237 617 255.5 597 Q274 577 274 535 L274 161 Q274 117 253 99 Q237 83 199 83 L123 83 L123 617 Z M199 87 Q235 87 251 101 Q270 120 270 161 L270 535 Q270 575 253 594 Q236 613 199 613 L127 613 L127 87 L199 87 Z " />
<glyph glyph-name="uni0189" unicode="&#x189;" horiz-adv-x="395" d="M315 662 Q363 616 363 535 L363 161 Q363 79 314 34 Q272 -2 203 -2 L43 -2 L43 305 L3 305 L3 394 L43 394 L43 702 L203 702 Q272 702 315 662 Z M313 660 Q269 698 203 698 L47 698 L47 390 L7 390 L7 309 L47 309 L47 2 L203 2 Q271 2 312 37 Q359 81 359 161 L359 535 Q359 614 313 660 Z M274 535 Q274 576 257 594.5 Q240 613 203 613 L132 613 L132 394 L192 394 L192 305 L132 305 L132 87 L203 87 Q239 87 256 101 Q274 119 274 161 L274 535 Z M278 161 Q278 117 258 98 Q239 83 203 83 L128 83 L128 309 L188 309 L188 390 L128 390 L128 617 L203 617 Q241 617 259.5 597.5 Q278 578 278 535 L278 161 Z " />
<glyph glyph-name="Eth" unicode="&#xd0;" horiz-adv-x="395" d="M315 662 Q363 616 363 535 L363 161 Q363 79 314 34 Q272 -2 203 -2 L43 -2 L43 305 L3 305 L3 394 L43 394 L43 702 L203 702 Q272 702 315 662 Z M313 660 Q269 698 203 698 L47 698 L47 390 L7 390 L7 309 L47 309 L47 2 L203 2 Q271 2 312 37 Q359 81 359 161 L359 535 Q359 614 313 660 Z M274 535 Q274 576 257 594.5 Q240 613 203 613 L132 613 L132 394 L192 394 L192 305 L132 305 L132 87 L203 87 Q239 87 256 101 Q274 119 274 161 L274 535 Z M278 161 Q278 117 258 98 Q239 83 203 83 L128 83 L128 309 L188 309 L188 390 L128 390 L128 617 L203 617 Q241 617 259.5 597.5 Q278 578 278 535 L278 161 Z " />
<glyph glyph-name="Dcaron" unicode="&#x10e;" horiz-adv-x="391" d="M199 2 Q267 2 308 37 Q355 81 355 161 L355 535 Q355 615 308 660 Q265 698 199 698 L42 698 L42 2 L199 2 Z M38 -2 L38 702 L199 702 Q269 702 310 662 Q359 617 359 535 L359 161 Q359 79 310 34 Q268 -2 199 -2 L38 -2 Z M123 617 L199 617 Q237 617 255.5 597 Q274 577 274 535 L274 161 Q274 117 253 99 Q237 83 199 83 L123 83 L123 617 Z M199 87 Q235 87 251 101 Q270 120 270 161 L270 535 Q270 575 253 594 Q236 613 199 613 L127 613 L127 87 L199 87 Z M313 842 L242 735 L155 735 L84 842 L140 842 L199 786 L258 842 L313 842 Z M305 838 L260 838 L199 780 L138 838 L92 838 L157 739 L240 739 L305 838 Z " />
<glyph glyph-name="uni1E12" unicode="&#x1e12;" horiz-adv-x="391" d="M199 2 Q267 2 308 37 Q355 81 355 161 L355 535 Q355 615 308 660 Q265 698 199 698 L42 698 L42 2 L199 2 Z M38 -2 L38 702 L199 702 Q269 702 310 662 Q359 617 359 535 L359 161 Q359 79 310 34 Q268 -2 199 -2 L38 -2 Z M123 617 L199 617 Q237 617 255.5 597 Q274 577 274 535 L274 161 Q274 117 253 99 Q237 83 199 83 L123 83 L123 617 Z M199 87 Q235 87 251 101 Q270 120 270 161 L270 535 Q270 575 253 594 Q236 613 199 613 L127 613 L127 87 L199 87 Z M313 -145 L258 -145 L199 -89 L140 -145 L84 -145 L155 -38 L242 -38 L313 -145 Z M305 -141 L240 -42 L157 -42 L92 -141 L138 -141 L199 -83 L260 -141 L305 -141 Z " />
<glyph glyph-name="Dcroat" unicode="&#x110;" horiz-adv-x="395" d="M315 662 Q363 616 363 535 L363 161 Q363 79 314 34 Q272 -2 203 -2 L43 -2 L43 305 L3 305 L3 394 L43 394 L43 702 L203 702 Q272 702 315 662 Z M313 660 Q269 698 203 698 L47 698 L47 390 L7 390 L7 309 L47 309 L47 2 L203 2 Q271 2 312 37 Q359 81 359 161 L359 535 Q359 614 313 660 Z M274 535 Q274 576 257 594.5 Q240 613 203 613 L132 613 L132 394 L192 394 L192 305 L132 305 L132 87 L203 87 Q239 87 256 101 Q274 119 274 161 L274 535 Z M278 161 Q278 117 258 98 Q239 83 203 83 L128 83 L128 309 L188 309 L188 390 L128 390 L128 617 L203 617 Q241 617 259.5 597.5 Q278 578 278 535 L278 161 Z " />
<glyph glyph-name="uni1E0C" unicode="&#x1e0c;" horiz-adv-x="391" d="M199 2 Q267 2 308 37 Q355 81 355 161 L355 535 Q355 615 308 660 Q265 698 199 698 L42 698 L42 2 L199 2 Z M38 -2 L38 702 L199 702 Q269 702 310 662 Q359 617 359 535 L359 161 Q359 79 310 34 Q268 -2 199 -2 L38 -2 Z M123 617 L199 617 Q237 617 255.5 597 Q274 577 274 535 L274 161 Q274 117 253 99 Q237 83 199 83 L123 83 L123 617 Z M199 87 Q235 87 251 101 Q270 120 270 161 L270 535 Q270 575 253 594 Q236 613 199 613 L127 613 L127 87 L199 87 Z M199 -42 Q181 -42 168.5 -54.5 Q156 -67 156 -85 Q156 -103 168.5 -115.5 Q181 -128 199 -128 Q217 -128 229.5 -115.5 Q242 -103 242 -85 Q242 -67 229.5 -54.5 Q217 -42 199 -42 Z M199 -38 Q219 -38 232.5 -52 Q246 -66 246 -85 Q246 -105 232.5 -118.5 Q219 -132 199 -132 Q180 -132 166 -118.5 Q152 -105 152 -85 Q152 -66 166 -52 Q180 -38 199 -38 Z " />
<glyph glyph-name="uni018A" unicode="&#x18a;" horiz-adv-x="436" d="M355 662 Q404 617 404 535 L404 161 Q404 79 355 34 Q313 -2 244 -2 L83 -2 L83 655 L43 655 Q35 655 29.5 649 Q24 643 25 635 L-22 635 Q-23 663 -3.5 682.5 Q16 702 43 702 L244 702 Q314 702 355 662 Z M353 660 Q310 698 244 698 L43 698 Q18 698 0.5 681 Q-17 664 -18 639 L21 639 Q22 647 28 653 Q34 659 43 659 L87 659 L87 2 L244 2 Q312 2 353 37 Q400 81 400 161 L400 535 Q400 615 353 660 Z M315 535 Q315 575 298 594 Q281 613 244 613 L172 613 L172 87 L244 87 Q280 87 296 101 Q315 120 315 161 L315 535 Z M319 161 Q319 117 298 99 Q282 83 244 83 L168 83 L168 617 L244 617 Q282 617 300.5 597 Q319 577 319 535 L319 161 Z " />
<glyph glyph-name="uni1E0E" unicode="&#x1e0e;" horiz-adv-x="391" d="M199 2 Q267 2 308 37 Q355 81 355 161 L355 535 Q355 615 308 660 Q265 698 199 698 L42 698 L42 2 L199 2 Z M38 -2 L38 702 L199 702 Q269 702 310 662 Q359 617 359 535 L359 161 Q359 79 310 34 Q268 -2 199 -2 L38 -2 Z M123 617 L199 617 Q237 617 255.5 597 Q274 577 274 535 L274 161 Q274 117 253 99 Q237 83 199 83 L123 83 L123 617 Z M199 87 Q235 87 251 101 Q270 120 270 161 L270 535 Q270 575 253 594 Q236 613 199 613 L127 613 L127 87 L199 87 Z M348 -83 L348 -42 L49 -42 L49 -83 L348 -83 Z M352 -87 L45 -87 L45 -38 L352 -38 L352 -87 Z " />
<glyph glyph-name="E" unicode="E" horiz-adv-x="347" d="M318 613 L127 613 L127 403 L260 403 L260 314 L127 314 L127 87 L318 87 L318 -2 L38 -2 L38 702 L318 702 L318 613 Z M314 617 L314 698 L42 698 L42 2 L314 2 L314 83 L123 83 L123 318 L256 318 L256 399 L123 399 L123 617 L314 617 Z " />
<glyph glyph-name="Eacute" unicode="&#xc9;" horiz-adv-x="347" d="M318 613 L127 613 L127 403 L260 403 L260 314 L127 314 L127 87 L318 87 L318 -2 L38 -2 L38 702 L318 702 L318 613 Z M314 617 L314 698 L42 698 L42 2 L314 2 L314 83 L123 83 L123 318 L256 318 L256 399 L123 399 L123 617 L314 617 Z M221 840 L157 739 L202 739 L301 840 L221 840 Z M219 844 L311 844 L204 735 L149 735 L219 844 Z " />
<glyph glyph-name="Ecaron" unicode="&#x11a;" horiz-adv-x="347" d="M318 613 L127 613 L127 403 L260 403 L260 314 L127 314 L127 87 L318 87 L318 -2 L38 -2 L38 702 L318 702 L318 613 Z M314 617 L314 698 L42 698 L42 2 L314 2 L314 83 L123 83 L123 318 L256 318 L256 399 L123 399 L123 617 L314 617 Z M292 842 L221 735 L134 735 L63 842 L119 842 L178 786 L237 842 L292 842 Z M284 838 L239 838 L178 780 L117 838 L71 838 L136 739 L219 739 L284 838 Z " />
<glyph glyph-name="uni0228" unicode="&#x228;" horiz-adv-x="347" d="M127 613 L127 403 L260 403 L260 314 L127 314 L127 87 L318 87 L318 -2 L200 -2 L202 1 Q204 -3 206 -4 Q206 -4 209 -7 Q242 -30 242 -64 Q242 -91 223 -110.5 Q204 -130 177 -130 Q150 -130 130 -110 Q110 -90 111 -62 L158 -62 L158 -64 Q158 -72 164 -77.5 Q170 -83 177 -83 Q184 -83 189.5 -77.5 Q195 -72 195 -64 Q195 -58 192.5 -54 Q190 -50 181 -44 Q180 -44 179 -43 Q178 -42 178 -42 Q157 -24 154 -2 L38 -2 L38 702 L318 702 L318 613 L127 613 Z M314 698 L42 698 L42 2 L158 2 Q158 -20 180 -39 L182 -40 Q192 -47 195.5 -51.5 Q199 -56 199 -64 Q199 -73 192.5 -80 Q186 -87 177 -87 Q168 -87 161.5 -80.5 Q155 -74 154 -66 L115 -66 Q116 -91 134 -108.5 Q152 -126 177 -126 Q202 -126 220 -108 Q238 -90 238 -64 Q238 -43 229 -31 Q220 -19 205 -9 L205 -8 Q200 -6 198 -1 L200 2 L314 2 L314 83 L123 83 L123 318 L256 318 L256 399 L123 399 L123 617 L314 617 L314 698 Z " />
<glyph glyph-name="Ecircumflex" unicode="&#xca;" horiz-adv-x="347" d="M318 613 L127 613 L127 403 L260 403 L260 314 L127 314 L127 87 L318 87 L318 -2 L38 -2 L38 702 L318 702 L318 613 Z M314 617 L314 698 L42 698 L42 2 L314 2 L314 83 L123 83 L123 318 L256 318 L256 399 L123 399 L123 617 L314 617 Z M292 735 L237 735 L178 791 L119 735 L63 735 L134 842 L221 842 L292 735 Z M284 739 L219 838 L136 838 L71 739 L117 739 L178 797 L239 739 L284 739 Z " />
<glyph glyph-name="uni1EBE" unicode="&#x1ebe;" horiz-adv-x="347" d="M318 613 L127 613 L127 403 L260 403 L260 314 L127 314 L127 87 L318 87 L318 -2 L38 -2 L38 702 L318 702 L318 613 Z M314 617 L314 698 L42 698 L42 2 L314 2 L314 83 L123 83 L123 318 L256 318 L256 399 L123 399 L123 617 L314 617 Z M292 735 L237 735 L178 791 L119 735 L63 735 L134 842 L221 842 L292 735 Z M284 739 L219 838 L136 838 L71 739 L117 739 L178 797 L239 739 L284 739 Z M334 940 L270 839 L315 839 L414 940 L334 940 Z M332 944 L424 944 L317 835 L262 835 L332 944 Z " />
<glyph glyph-name="uni1EC6" unicode="&#x1ec6;" horiz-adv-x="347" d="M318 613 L127 613 L127 403 L260 403 L260 314 L127 314 L127 87 L318 87 L318 -2 L38 -2 L38 702 L318 702 L318 613 Z M314 617 L314 698 L42 698 L42 2 L314 2 L314 83 L123 83 L123 318 L256 318 L256 399 L123 399 L123 617 L314 617 Z M178 -42 Q160 -42 147.5 -54.5 Q135 -67 135 -85 Q135 -103 147.5 -115.5 Q160 -128 178 -128 Q196 -128 208.5 -115.5 Q221 -103 221 -85 Q221 -67 208.5 -54.5 Q196 -42 178 -42 Z M178 -38 Q198 -38 211.5 -52 Q225 -66 225 -85 Q225 -105 211.5 -118.5 Q198 -132 178 -132 Q159 -132 145 -118.5 Q131 -105 131 -85 Q131 -66 145 -52 Q159 -38 178 -38 Z M292 735 L237 735 L178 791 L119 735 L63 735 L134 842 L221 842 L292 735 Z M284 739 L219 838 L136 838 L71 739 L117 739 L178 797 L239 739 L284 739 Z " />
<glyph glyph-name="uni1EC0" unicode="&#x1ec0;" horiz-adv-x="347" d="M318 613 L127 613 L127 403 L260 403 L260 314 L127 314 L127 87 L318 87 L318 -2 L38 -2 L38 702 L318 702 L318 613 Z M314 617 L314 698 L42 698 L42 2 L314 2 L314 83 L123 83 L123 318 L256 318 L256 399 L123 399 L123 617 L314 617 Z M292 735 L237 735 L178 791 L119 735 L63 735 L134 842 L221 842 L292 735 Z M284 739 L219 838 L136 838 L71 739 L117 739 L178 797 L239 739 L284 739 Z M248 940 L168 940 L267 839 L312 839 L248 940 Z M250 944 L320 835 L265 835 L158 944 L250 944 Z " />
<glyph glyph-name="uni1EC2" unicode="&#x1ec2;" horiz-adv-x="347" d="M318 613 L127 613 L127 403 L260 403 L260 314 L127 314 L127 87 L318 87 L318 -2 L38 -2 L38 702 L318 702 L318 613 Z M314 617 L314 698 L42 698 L42 2 L314 2 L314 83 L123 83 L123 318 L256 318 L256 399 L123 399 L123 617 L314 617 Z M292 735 L237 735 L178 791 L119 735 L63 735 L134 842 L221 842 L292 735 Z M284 739 L219 838 L136 838 L71 739 L117 739 L178 797 L239 739 L284 739 Z M208 940 Q251 940 281.5 909 Q312 878 311 835 L264 835 Q265 859 248 876 Q231 893 207 893 L167 932 Q186 940 208 940 Z M208 936 Q186 936 172 929 L172 932 L209 897 Q233 897 250 880 Q267 863 268 839 L307 839 Q306 879 277 907.5 Q248 936 208 936 Z " />
<glyph glyph-name="uni1EC4" unicode="&#x1ec4;" horiz-adv-x="347" d="M318 613 L127 613 L127 403 L260 403 L260 314 L127 314 L127 87 L318 87 L318 -2 L38 -2 L38 702 L318 702 L318 613 Z M314 617 L314 698 L42 698 L42 2 L314 2 L314 83 L123 83 L123 318 L256 318 L256 399 L123 399 L123 617 L314 617 Z M78 868 Q105 898 127 898 Q143 898 166 885 Q195 867 221 867 Q262 867 299 913 L268 936 Q248 911 228 907 Q209 904 186 918 Q152 938 126 938 Q85 938 48 892 L78 868 Z M42 892 Q82 942 126 942 Q154 942 188 922 Q210 908 228 911 Q247 916 268 942 L305 913 Q267 863 221 863 Q194 863 164 881 Q141 894 126 894 Q105 894 78 862 L42 892 Z M292 735 L237 735 L178 791 L119 735 L63 735 L134 842 L221 842 L292 735 Z M284 739 L219 838 L136 838 L71 739 L117 739 L178 797 L239 739 L284 739 Z " />
<glyph glyph-name="Edieresis" unicode="&#xcb;" horiz-adv-x="347" d="M318 613 L127 613 L127 403 L260 403 L260 314 L127 314 L127 87 L318 87 L318 -2 L38 -2 L38 702 L318 702 L318 613 Z M314 617 L314 698 L42 698 L42 2 L314 2 L314 83 L123 83 L123 318 L256 318 L256 399 L123 399 L123 617 L314 617 Z M149 782 Q149 800 136.5 812.5 Q124 825 106 825 Q88 825 75.5 812.5 Q63 800 63 782 Q63 764 75.5 751.5 Q88 739 106 739 Q124 739 136.5 751.5 Q149 764 149 782 Z M153 782 Q153 763 139.5 749 Q126 735 106 735 Q87 735 73 749 Q59 763 59 782 Q59 802 73 815.5 Q87 829 106 829 Q126 829 139.5 815.5 Q153 802 153 782 Z M293 782 Q293 800 280.5 812.5 Q268 825 250 825 Q232 825 219.5 812.5 Q207 800 207 782 Q207 764 219.5 751.5 Q232 739 250 739 Q268 739 280.5 751.5 Q293 764 293 782 Z M297 782 Q297 763 283.5 749 Q270 735 250 735 Q231 735 217 749 Q203 763 203 782 Q203 802 217 815.5 Q231 829 250 829 Q270 829 283.5 815.5 Q297 802 297 782 Z " />
<glyph glyph-name="Edotaccent" unicode="&#x116;" horiz-adv-x="347" d="M318 613 L127 613 L127 403 L260 403 L260 314 L127 314 L127 87 L318 87 L318 -2 L38 -2 L38 702 L318 702 L318 613 Z M314 617 L314 698 L42 698 L42 2 L314 2 L314 83 L123 83 L123 318 L256 318 L256 399 L123 399 L123 617 L314 617 Z M178 825 Q160 825 147.5 812.5 Q135 800 135 782 Q135 764 147.5 751.5 Q160 739 178 739 Q196 739 208.5 751.5 Q221 764 221 782 Q221 800 208.5 812.5 Q196 825 178 825 Z M178 829 Q198 829 211.5 815.5 Q225 802 225 782 Q225 763 211.5 749 Q198 735 178 735 Q159 735 145 749 Q131 763 131 782 Q131 802 145 815.5 Q159 829 178 829 Z " />
<glyph glyph-name="uni1EB8" unicode="&#x1eb8;" horiz-adv-x="347" d="M318 613 L127 613 L127 403 L260 403 L260 314 L127 314 L127 87 L318 87 L318 -2 L38 -2 L38 702 L318 702 L318 613 Z M314 617 L314 698 L42 698 L42 2 L314 2 L314 83 L123 83 L123 318 L256 318 L256 399 L123 399 L123 617 L314 617 Z M178 -42 Q160 -42 147.5 -54.5 Q135 -67 135 -85 Q135 -103 147.5 -115.5 Q160 -128 178 -128 Q196 -128 208.5 -115.5 Q221 -103 221 -85 Q221 -67 208.5 -54.5 Q196 -42 178 -42 Z M178 -38 Q198 -38 211.5 -52 Q225 -66 225 -85 Q225 -105 211.5 -118.5 Q198 -132 178 -132 Q159 -132 145 -118.5 Q131 -105 131 -85 Q131 -66 145 -52 Q159 -38 178 -38 Z " />
<glyph glyph-name="Egrave" unicode="&#xc8;" horiz-adv-x="347" d="M318 613 L127 613 L127 403 L260 403 L260 314 L127 314 L127 87 L318 87 L318 -2 L38 -2 L38 702 L318 702 L318 613 Z M314 617 L314 698 L42 698 L42 2 L314 2 L314 83 L123 83 L123 318 L256 318 L256 399 L123 399 L123 617 L314 617 Z M135 840 L55 840 L154 739 L199 739 L135 840 Z M137 844 L207 735 L152 735 L45 844 L137 844 Z " />
<glyph glyph-name="uni1EBA" unicode="&#x1eba;" horiz-adv-x="347" d="M318 613 L127 613 L127 403 L260 403 L260 314 L127 314 L127 87 L318 87 L318 -2 L38 -2 L38 702 L318 702 L318 613 Z M314 617 L314 698 L42 698 L42 2 L314 2 L314 83 L123 83 L123 318 L256 318 L256 399 L123 399 L123 617 L314 617 Z M105 840 Q148 840 178.5 809 Q209 778 208 735 L161 735 Q162 759 145 776 Q128 793 104 793 L64 832 Q83 840 105 840 Z M105 836 Q83 836 69 829 L69 832 L106 797 Q130 797 147 780 Q164 763 165 739 L204 739 Q203 779 174 807.5 Q145 836 105 836 Z " />
<glyph glyph-name="Emacron" unicode="&#x112;" horiz-adv-x="347" d="M318 613 L127 613 L127 403 L260 403 L260 314 L127 314 L127 87 L318 87 L318 -2 L38 -2 L38 702 L318 702 L318 613 Z M314 617 L314 698 L42 698 L42 2 L314 2 L314 83 L123 83 L123 318 L256 318 L256 399 L123 399 L123 617 L314 617 Z M328 739 L328 780 L28 780 L28 739 L328 739 Z M332 735 L24 735 L24 784 L332 784 L332 735 Z " />
<glyph glyph-name="Eogonek" unicode="&#x118;" horiz-adv-x="347" d="M127 613 L127 403 L260 403 L260 314 L127 314 L127 87 L318 87 L318 -1 Q295 -9 278.5 -26 Q262 -43 262 -59 Q262 -79 300 -79 L311 -79 L311 -128 L290 -128 Q248 -128 225 -114 Q202 -100 202 -73 Q202 -33 270 2 L271 -2 L38 -2 L38 702 L318 702 L318 613 L127 613 Z M314 698 L42 698 L42 2 L271 2 L272 -2 Q206 -36 206 -73 Q206 -98 228 -111 Q250 -124 290 -124 L307 -124 L307 -83 L300 -83 Q258 -83 258 -59 Q258 -43 274.5 -25 Q291 -7 314 1 L314 83 L123 83 L123 318 L256 318 L256 399 L123 399 L123 617 L314 617 L314 698 Z " />
<glyph glyph-name="uni018E" unicode="&#x18e;" horiz-adv-x="336" d="M28 613 L28 702 L308 702 L308 -2 L28 -2 L28 87 L219 87 L219 314 L86 314 L86 403 L219 403 L219 613 L28 613 Z M32 617 L223 617 L223 399 L90 399 L90 318 L223 318 L223 83 L32 83 L32 2 L304 2 L304 698 L32 698 L32 617 Z " />
<glyph glyph-name="uni1EBC" unicode="&#x1ebc;" horiz-adv-x="347" d="M318 613 L127 613 L127 403 L260 403 L260 314 L127 314 L127 87 L318 87 L318 -2 L38 -2 L38 702 L318 702 L318 613 Z M314 617 L314 698 L42 698 L42 2 L314 2 L314 83 L123 83 L123 318 L256 318 L256 399 L123 399 L123 617 L314 617 Z M82 740 Q109 770 131 770 Q147 770 170 757 Q198 739 225 739 Q266 739 303 785 L272 808 Q252 783 232 779 Q213 776 190 790 Q156 810 130 810 Q89 810 52 764 L82 740 Z M46 764 Q86 814 130 814 Q158 814 192 794 Q214 780 232 783 Q251 788 272 814 L309 785 Q271 735 225 735 Q198 735 168 753 Q145 766 130 766 Q109 766 82 734 L46 764 Z " />
<glyph glyph-name="F" unicode="F" horiz-adv-x="333" d="M318 612 L127 612 L127 404 L260 404 L260 315 L127 315 L127 -2 L38 -2 L38 701 L318 701 L318 612 Z M314 616 L314 697 L42 697 L42 2 L123 2 L123 319 L256 319 L256 400 L123 400 L123 616 L314 616 Z " />
<glyph glyph-name="uni0191" unicode="&#x191;" horiz-adv-x="333" d="M127 612 L127 404 L260 404 L260 315 L127 315 L127 0 Q127 -44 102.5 -76 Q78 -108 18 -107 L18 -60 L20 -60 Q27 -60 32.5 -54.5 Q38 -49 38 -42 L38 701 L318 701 L318 612 L127 612 Z M314 697 L42 697 L42 -42 Q42 -50 36 -56.5 Q30 -63 22 -64 L22 -103 Q78 -102 100.5 -72 Q123 -42 123 0 L123 319 L256 319 L256 400 L123 400 L123 616 L314 616 L314 697 Z " />
<glyph glyph-name="G" unicode="G" horiz-adv-x="385" d="M193 -7 Q259 -7 303 31 Q349 75 349 156 L349 390 L195 390 L195 309 L268 309 L268 156 Q268 114 249.5 94 Q231 74 193 74 Q154 74 135.5 93.5 Q117 113 117 156 L117 544 Q117 587 135.5 606.5 Q154 626 193 626 Q231 626 249.5 606 Q268 586 268 544 L268 482 L349 482 L349 544 Q349 623 303 669 Q259 707 193 707 Q127 707 83 669 Q36 624 36 544 L36 156 Q36 73 83 31 Q127 -7 193 -7 Z M193 -11 Q124 -11 81 29 Q32 72 32 156 L32 544 Q32 626 81 671 Q124 711 193 711 Q262 711 305 671 Q353 625 353 544 L353 478 L264 478 L264 544 Q264 584 247 603 Q230 622 193 622 Q156 622 138.5 603.5 Q121 585 121 544 L121 156 Q121 115 138.5 96.5 Q156 78 193 78 Q230 78 247 97 Q264 116 264 156 L264 305 L191 305 L191 394 L353 394 L353 156 Q353 73 305 29 Q262 -11 193 -11 Z " />
<glyph glyph-name="Gbreve" unicode="&#x11e;" horiz-adv-x="385" d="M193 -7 Q259 -7 303 31 Q349 75 349 156 L349 390 L195 390 L195 309 L268 309 L268 156 Q268 114 249.5 94 Q231 74 193 74 Q154 74 135.5 93.5 Q117 113 117 156 L117 544 Q117 587 135.5 606.5 Q154 626 193 626 Q231 626 249.5 606 Q268 586 268 544 L268 482 L349 482 L349 544 Q349 623 303 669 Q259 707 193 707 Q127 707 83 669 Q36 624 36 544 L36 156 Q36 73 83 31 Q127 -7 193 -7 Z M193 -11 Q124 -11 81 29 Q32 72 32 156 L32 544 Q32 626 81 671 Q124 711 193 711 Q262 711 305 671 Q353 625 353 544 L353 478 L264 478 L264 544 Q264 584 247 603 Q230 622 193 622 Q156 622 138.5 603.5 Q121 585 121 544 L121 156 Q121 115 138.5 96.5 Q156 78 193 78 Q230 78 247 97 Q264 116 264 156 L264 305 L191 305 L191 394 L353 394 L353 156 Q353 73 305 29 Q262 -11 193 -11 Z M295 840 Q296 797 265.5 766 Q235 735 192 735 Q149 735 118.5 766 Q88 797 89 840 L136 840 Q135 816 152 799 Q169 782 192 782 Q216 782 232.5 799.5 Q249 817 248 840 L295 840 Z M252 836 Q251 812 234 795 Q217 778 192 778 Q168 778 150.5 794.5 Q133 811 132 836 L93 836 Q94 796 123 767.5 Q152 739 192 739 Q232 739 261 767.5 Q290 796 291 836 L252 836 Z " />
<glyph glyph-name="Gcaron" unicode="&#x1e6;" horiz-adv-x="385" d="M193 -7 Q259 -7 303 31 Q349 75 349 156 L349 390 L195 390 L195 309 L268 309 L268 156 Q268 114 249.5 94 Q231 74 193 74 Q154 74 135.5 93.5 Q117 113 117 156 L117 544 Q117 587 135.5 606.5 Q154 626 193 626 Q231 626 249.5 606 Q268 586 268 544 L268 482 L349 482 L349 544 Q349 623 303 669 Q259 707 193 707 Q127 707 83 669 Q36 624 36 544 L36 156 Q36 73 83 31 Q127 -7 193 -7 Z M193 -11 Q124 -11 81 29 Q32 72 32 156 L32 544 Q32 626 81 671 Q124 711 193 711 Q262 711 305 671 Q353 625 353 544 L353 478 L264 478 L264 544 Q264 584 247 603 Q230 622 193 622 Q156 622 138.5 603.5 Q121 585 121 544 L121 156 Q121 115 138.5 96.5 Q156 78 193 78 Q230 78 247 97 Q264 116 264 156 L264 305 L191 305 L191 394 L353 394 L353 156 Q353 73 305 29 Q262 -11 193 -11 Z M306 842 L235 735 L148 735 L77 842 L133 842 L192 786 L251 842 L306 842 Z M298 838 L253 838 L192 780 L131 838 L85 838 L150 739 L233 739 L298 838 Z " />
<glyph glyph-name="Gcommaaccent" unicode="&#x122;" horiz-adv-x="385" d="M193 -7 Q259 -7 303 31 Q349 75 349 156 L349 390 L195 390 L195 309 L268 309 L268 156 Q268 114 249.5 94 Q231 74 193 74 Q154 74 135.5 93.5 Q117 113 117 156 L117 544 Q117 587 135.5 606.5 Q154 626 193 626 Q231 626 249.5 606 Q268 586 268 544 L268 482 L349 482 L349 544 Q349 623 303 669 Q259 707 193 707 Q127 707 83 669 Q36 624 36 544 L36 156 Q36 73 83 31 Q127 -7 193 -7 Z M193 -11 Q124 -11 81 29 Q32 72 32 156 L32 544 Q32 626 81 671 Q124 711 193 711 Q262 711 305 671 Q353 625 353 544 L353 478 L264 478 L264 544 Q264 584 247 603 Q230 622 193 622 Q156 622 138.5 603.5 Q121 585 121 544 L121 156 Q121 115 138.5 96.5 Q156 78 193 78 Q230 78 247 97 Q264 116 264 156 L264 305 L191 305 L191 394 L353 394 L353 156 Q353 73 305 29 Q262 -11 193 -11 Z M240 -85 Q240 -102 227 -128 Q222 -138 196 -177 L162 -177 L160 -174 L170 -149 Q173 -142 173 -137 Q173 -130 167 -125 Q146 -109 146 -85 Q146 -66 160 -52 Q174 -38 193 -38 Q213 -38 226.5 -52 Q240 -66 240 -85 Z M236 -85 Q236 -67 223.5 -54.5 Q211 -42 193 -42 Q175 -42 162.5 -54.5 Q150 -67 150 -85 Q150 -106 169 -122 Q176 -127 176 -138 Q176 -143 174 -151 L164 -176 L162 -173 L194 -173 Q216 -140 223 -126 Q236 -100 236 -85 Z " />
<glyph glyph-name="Gdotaccent" unicode="&#x120;" horiz-adv-x="385" d="M193 -7 Q259 -7 303 31 Q349 75 349 156 L349 390 L195 390 L195 309 L268 309 L268 156 Q268 114 249.5 94 Q231 74 193 74 Q154 74 135.5 93.5 Q117 113 117 156 L117 544 Q117 587 135.5 606.5 Q154 626 193 626 Q231 626 249.5 606 Q268 586 268 544 L268 482 L349 482 L349 544 Q349 623 303 669 Q259 707 193 707 Q127 707 83 669 Q36 624 36 544 L36 156 Q36 73 83 31 Q127 -7 193 -7 Z M193 -11 Q124 -11 81 29 Q32 72 32 156 L32 544 Q32 626 81 671 Q124 711 193 711 Q262 711 305 671 Q353 625 353 544 L353 478 L264 478 L264 544 Q264 584 247 603 Q230 622 193 622 Q156 622 138.5 603.5 Q121 585 121 544 L121 156 Q121 115 138.5 96.5 Q156 78 193 78 Q230 78 247 97 Q264 116 264 156 L264 305 L191 305 L191 394 L353 394 L353 156 Q353 73 305 29 Q262 -11 193 -11 Z M235 782 Q235 800 222.5 812.5 Q210 825 192 825 Q174 825 161.5 812.5 Q149 800 149 782 Q149 764 161.5 751.5 Q174 739 192 739 Q210 739 222.5 751.5 Q235 764 235 782 Z M239 782 Q239 763 225.5 749 Q212 735 192 735 Q173 735 159 749 Q145 763 145 782 Q145 802 159 815.5 Q173 829 192 829 Q212 829 225.5 815.5 Q239 802 239 782 Z " />
<glyph glyph-name="uni0193" unicode="&#x193;" horiz-adv-x="385" d="M306 710 Q306 738 325.5 757 Q345 776 373 775 L373 728 L371 728 Q364 728 358.5 722.5 Q353 717 353 710 L353 478 L264 478 L264 544 Q264 584 247 603 Q230 622 193 622 Q156 622 138.5 603.5 Q121 585 121 544 L121 156 Q121 115 138.5 96.5 Q156 78 193 78 Q230 78 247 97 Q264 116 264 156 L264 305 L191 305 L191 394 L353 394 L353 156 Q353 73 305 29 Q262 -11 193 -11 Q124 -11 81 29 Q32 72 32 156 L32 544 Q32 626 81 671 Q124 711 193 711 Q262 711 305 671 Q308 670 309 667 L306 666 L306 710 Z M310 666 L307 665 Q304 666 303 669 Q259 707 193 707 Q127 707 83 669 Q36 624 36 544 L36 156 Q36 73 83 31 Q127 -7 193 -7 Q259 -7 303 31 Q349 75 349 156 L349 390 L195 390 L195 309 L268 309 L268 156 Q268 114 249.5 94 Q231 74 193 74 Q154 74 135.5 93.5 Q117 113 117 156 L117 544 Q117 587 135.5 606.5 Q154 626 193 626 Q231 626 249.5 606 Q268 586 268 544 L268 482 L349 482 L349 710 Q349 718 355 724.5 Q361 731 369 732 L369 771 Q344 770 327 752.5 Q310 735 310 710 L310 666 Z " />
<glyph glyph-name="H" unicode="H" horiz-adv-x="396" d="M269 702 L358 702 L358 -2 L269 -2 L269 314 L127 314 L127 -2 L38 -2 L38 702 L127 702 L127 403 L269 403 L269 702 Z M273 698 L273 399 L123 399 L123 698 L42 698 L42 2 L123 2 L123 318 L273 318 L273 2 L354 2 L354 698 L273 698 Z " />
<glyph glyph-name="Hbar" unicode="&#x126;" horiz-adv-x="407" d="M364 702 L364 560 L404 560 L404 512 L364 512 L364 -2 L275 -2 L275 314 L132 314 L132 -2 L43 -2 L43 512 L3 512 L3 560 L43 560 L43 702 L132 702 L132 560 L275 560 L275 702 L364 702 Z M360 698 L279 698 L279 556 L128 556 L128 698 L47 698 L47 556 L7 556 L7 516 L47 516 L47 2 L128 2 L128 318 L279 318 L279 2 L360 2 L360 516 L400 516 L400 556 L360 556 L360 698 Z M275 403 L275 512 L132 512 L132 403 L275 403 Z M279 399 L128 399 L128 516 L279 516 L279 399 Z " />
<glyph glyph-name="uni1E24" unicode="&#x1e24;" horiz-adv-x="396" d="M269 702 L358 702 L358 -2 L269 -2 L269 314 L127 314 L127 -2 L38 -2 L38 702 L127 702 L127 403 L269 403 L269 702 Z M273 698 L273 399 L123 399 L123 698 L42 698 L42 2 L123 2 L123 318 L273 318 L273 2 L354 2 L354 698 L273 698 Z M245 -85 Q245 -102 232 -128 Q227 -138 201 -177 L167 -177 L165 -174 L175 -149 Q178 -142 178 -137 Q178 -130 172 -125 Q151 -109 151 -85 Q151 -66 165 -52 Q179 -38 198 -38 Q218 -38 231.5 -52 Q245 -66 245 -85 Z M241 -85 Q241 -67 228.5 -54.5 Q216 -42 198 -42 Q180 -42 167.5 -54.5 Q155 -67 155 -85 Q155 -106 174 -122 Q181 -127 181 -138 Q181 -143 179 -151 L169 -176 L167 -173 L199 -173 Q221 -140 228 -126 Q241 -100 241 -85 Z " />
<glyph glyph-name="uniA7AA" unicode="&#xa7aa;" horiz-adv-x="441" d="M403 702 L403 -2 L314 -2 L314 314 L172 314 L172 -2 L83 -2 L83 655 L43 655 Q35 655 29.5 649 Q24 643 25 635 L-22 635 Q-23 663 -3.5 682.5 Q16 702 43 702 L172 702 L172 403 L314 403 L314 702 L403 702 Z M318 399 L168 399 L168 698 L43 698 Q18 698 0.5 681 Q-17 664 -18 639 L21 639 Q22 647 28 653 Q34 659 43 659 L87 659 L87 2 L168 2 L168 318 L318 318 L318 2 L399 2 L399 698 L318 698 L318 399 Z " />
<glyph glyph-name="I" unicode="I" horiz-adv-x="165" d="M123 2 L123 698 L42 698 L42 2 L123 2 Z M127 -2 L38 -2 L38 702 L127 702 L127 -2 Z " />
<glyph glyph-name="Iacute" unicode="&#xcd;" horiz-adv-x="165" d="M123 2 L123 698 L42 698 L42 2 L123 2 Z M127 -2 L38 -2 L38 702 L127 702 L127 -2 Z M126 839 L61 739 L107 739 L205 839 L126 839 Z M124 843 L215 843 L109 735 L53 735 L124 843 Z " />
<glyph glyph-name="uni01CF" unicode="&#x1cf;" horiz-adv-x="165" d="M123 2 L123 698 L42 698 L42 2 L123 2 Z M127 -2 L38 -2 L38 702 L127 702 L127 -2 Z M197 842 L126 735 L39 735 L-32 842 L24 842 L83 786 L142 842 L197 842 Z M189 838 L144 838 L83 780 L22 838 L-24 838 L41 739 L124 739 L189 838 Z " />
<glyph glyph-name="Icircumflex" unicode="&#xce;" horiz-adv-x="165" d="M123 2 L123 698 L42 698 L42 2 L123 2 Z M127 -2 L38 -2 L38 702 L127 702 L127 -2 Z M197 735 L142 735 L83 791 L24 735 L-32 735 L39 842 L126 842 L197 735 Z M189 739 L124 838 L41 838 L-24 739 L22 739 L83 797 L144 739 L189 739 Z " />
<glyph glyph-name="Idieresis" unicode="&#xcf;" horiz-adv-x="164" d="M123 2 L123 698 L42 698 L42 2 L123 2 Z M127 -2 L38 -2 L38 702 L127 702 L127 -2 Z M53 782 Q53 800 40.5 812.5 Q28 825 10 825 Q-8 825 -20.5 812.5 Q-33 800 -33 782 Q-33 764 -20.5 751.5 Q-8 739 10 739 Q28 739 40.5 751.5 Q53 764 53 782 Z M57 782 Q57 763 43.5 749 Q30 735 10 735 Q-10 735 -23.5 749 Q-37 763 -37 782 Q-37 802 -23.5 815.5 Q-10 829 10 829 Q30 829 43.5 815.5 Q57 802 57 782 Z M197 782 Q197 800 184.5 812.5 Q172 825 154 825 Q136 825 123.5 812.5 Q111 800 111 782 Q111 764 123.5 751.5 Q136 739 154 739 Q172 739 184.5 751.5 Q197 764 197 782 Z M201 782 Q201 763 187.5 749 Q174 735 154 735 Q135 735 121 749 Q107 763 107 782 Q107 802 121 815.5 Q135 829 154 829 Q174 829 187.5 815.5 Q201 802 201 782 Z " />
<glyph glyph-name="uni1E2E" unicode="&#x1e2e;" horiz-adv-x="165" d="M123 2 L123 698 L42 698 L42 2 L123 2 Z M127 -2 L38 -2 L38 702 L127 702 L127 -2 Z M53 782 Q53 800 40.5 812.5 Q28 825 10 825 Q-8 825 -20.5 812.5 Q-33 800 -33 782 Q-33 764 -20.5 751.5 Q-8 739 10 739 Q28 739 40.5 751.5 Q53 764 53 782 Z M57 782 Q57 763 43.5 749 Q30 735 10 735 Q-10 735 -23.5 749 Q-37 763 -37 782 Q-37 802 -23.5 815.5 Q-10 829 10 829 Q30 829 43.5 815.5 Q57 802 57 782 Z M197 782 Q197 800 184.5 812.5 Q172 825 154 825 Q136 825 123.5 812.5 Q111 800 111 782 Q111 764 123.5 751.5 Q136 739 154 739 Q172 739 184.5 751.5 Q197 764 197 782 Z M201 782 Q201 763 187.5 749 Q174 735 154 735 Q135 735 121 749 Q107 763 107 782 Q107 802 121 815.5 Q135 829 154 829 Q174 829 187.5 815.5 Q201 802 201 782 Z M126 967 L61 867 L107 867 L205 967 L126 967 Z M124 971 L215 971 L109 863 L53 863 L124 971 Z " />
<glyph glyph-name="Idot" unicode="&#x130;" horiz-adv-x="170" d="M126 2 L126 698 L45 698 L45 2 L126 2 Z M130 -2 L41 -2 L41 702 L130 702 L130 -2 Z M128 782 Q128 800 115.5 812.5 Q103 825 85 825 Q67 825 54.5 812.5 Q42 800 42 782 Q42 764 54.5 751.5 Q67 739 85 739 Q103 739 115.5 751.5 Q128 764 128 782 Z M132 782 Q132 763 118.5 749 Q105 735 85 735 Q66 735 52 749 Q38 763 38 782 Q38 802 52 815.5 Q66 829 85 829 Q105 829 118.5 815.5 Q132 802 132 782 Z " />
<glyph glyph-name="uni1ECA" unicode="&#x1eca;" horiz-adv-x="170" d="M85 -42 Q67 -42 54.5 -54.5 Q42 -67 42 -85 Q42 -103 54.5 -115.5 Q67 -128 85 -128 Q103 -128 115.5 -115.5 Q128 -103 128 -85 Q128 -67 115.5 -54.5 Q103 -42 85 -42 Z M85 -38 Q105 -38 118.5 -52 Q132 -66 132 -85 Q132 -105 118.5 -118.5 Q105 -132 85 -132 Q66 -132 52 -118.5 Q38 -105 38 -85 Q38 -66 52 -52 Q66 -38 85 -38 Z M125 2 L125 698 L44 698 L44 2 L125 2 Z M129 -2 L40 -2 L40 702 L129 702 L129 -2 Z " />
<glyph glyph-name="Igrave" unicode="&#xcc;" horiz-adv-x="165" d="M123 2 L123 698 L42 698 L42 2 L123 2 Z M127 -2 L38 -2 L38 702 L127 702 L127 -2 Z M57 739 L108 739 L108 735 L57 735 L57 739 Z M57 739 L108 739 L108 735 L57 735 L57 739 Z M39 839 L-40 839 L58 739 L104 739 L39 839 Z M41 843 L112 735 L56 735 L-50 843 L41 843 Z " />
<glyph glyph-name="uni1EC8" unicode="&#x1ec8;" horiz-adv-x="165" d="M3 840 Q46 840 76.5 809 Q107 778 106 735 L59 735 Q60 759 43 776 Q26 793 2 793 L-38 832 Q-19 840 3 840 Z M3 836 Q-19 836 -33 829 L-33 832 L4 797 Q28 797 45 780 Q62 763 63 739 L102 739 Q101 779 72 807.5 Q43 836 3 836 Z M123 2 L123 698 L42 698 L42 2 L123 2 Z M127 -2 L38 -2 L38 702 L127 702 L127 -2 Z " />
<glyph glyph-name="Imacron" unicode="&#x12a;" horiz-adv-x="164" d="M123 2 L123 698 L42 698 L42 2 L123 2 Z M127 -2 L38 -2 L38 702 L127 702 L127 -2 Z M232 739 L232 780 L-68 780 L-68 739 L232 739 Z M236 735 L-72 735 L-72 784 L236 784 L236 735 Z " />
<glyph glyph-name="Iogonek" unicode="&#x12e;" horiz-adv-x="165" d="M127 702 L127 -1 Q104 -9 87.5 -26 Q71 -43 71 -59 Q71 -79 109 -79 L120 -79 L120 -128 L99 -128 Q57 -128 34 -114 Q11 -100 11 -73 Q11 -33 79 2 L80 -2 L38 -2 L38 702 L127 702 Z M42 2 L80 2 L81 -2 Q15 -36 15 -73 Q15 -98 37 -111 Q59 -124 99 -124 L116 -124 L116 -83 L109 -83 Q67 -83 67 -59 Q67 -43 83.5 -25 Q100 -7 123 1 L123 698 L42 698 L42 2 Z " />
<glyph glyph-name="uni0197" unicode="&#x197;" horiz-adv-x="175" d="M172 384 L172 336 L132 336 L132 -2 L43 -2 L43 336 L3 336 L3 384 L43 384 L43 702 L132 702 L132 384 L172 384 Z M168 380 L128 380 L128 698 L47 698 L47 380 L7 380 L7 340 L47 340 L47 2 L128 2 L128 340 L168 340 L168 380 Z " />
<glyph glyph-name="Itilde" unicode="&#x128;" horiz-adv-x="157" d="M123 2 L123 698 L42 698 L42 2 L123 2 Z M127 -2 L38 -2 L38 702 L127 702 L127 -2 Z M-17 738 Q10 768 32 768 Q48 768 71 755 Q100 737 126 737 Q167 737 204 783 L173 806 Q153 781 133 777 Q114 774 91 788 Q57 808 31 808 Q-10 808 -47 762 L-17 738 Z M-53 762 Q-13 812 31 812 Q59 812 93 792 Q115 778 133 781 Q152 786 173 812 L210 783 Q172 733 126 733 Q99 733 69 751 Q46 764 31 764 Q10 764 -17 732 L-53 762 Z " />
<glyph glyph-name="J" unicode="J" horiz-adv-x="372" d="M176 -7 Q242 -7 286 31 Q332 75 332 156 L332 698 L251 698 L251 156 Q251 114 232.5 94 Q214 74 176 74 Q138 74 119.5 93.5 Q101 113 101 156 L101 244 L20 244 L20 156 Q20 74 66 31 Q110 -7 176 -7 Z M176 -11 Q107 -11 64 29 Q16 73 16 156 L16 248 L105 248 L105 156 Q105 115 122 96.5 Q139 78 176 78 Q213 78 230 97 Q247 116 247 156 L247 702 L336 702 L336 156 Q336 73 288 29 Q245 -11 176 -11 Z " />
<glyph glyph-name="K" unicode="K" horiz-adv-x="392" d="M127 163 L127 -2 L38 -2 L38 702 L127 702 L127 372 L281 702 L379 702 L223 368 L379 -2 L283 -2 L172 259 L127 162 L127 163 Z M123 164 L172 269 L285 2 L373 2 L219 368 L373 698 L283 698 L123 354 L123 698 L42 698 L42 2 L123 2 L123 163 L123 164 Z " />
<glyph glyph-name="Kcommaaccent" unicode="&#x136;" horiz-adv-x="392" d="M127 163 L127 -2 L38 -2 L38 702 L127 702 L127 372 L281 702 L379 702 L223 368 L379 -2 L283 -2 L172 259 L127 162 L127 163 Z M123 164 L172 269 L285 2 L373 2 L219 368 L373 698 L283 698 L123 354 L123 698 L42 698 L42 2 L123 2 L123 163 L123 164 Z M251 -85 Q251 -102 238 -128 Q233 -138 207 -177 L173 -177 L171 -174 L181 -149 Q184 -142 184 -137 Q184 -130 178 -125 Q157 -109 157 -85 Q157 -66 171 -52 Q185 -38 204 -38 Q224 -38 237.5 -52 Q251 -66 251 -85 Z M247 -85 Q247 -67 234.5 -54.5 Q222 -42 204 -42 Q186 -42 173.5 -54.5 Q161 -67 161 -85 Q161 -106 180 -122 Q187 -127 187 -138 Q187 -143 185 -151 L175 -176 L173 -173 L205 -173 Q227 -140 234 -126 Q247 -100 247 -85 Z " />
<glyph glyph-name="uni0198" unicode="&#x198;" horiz-adv-x="441" d="M398 702 Q426 702 445 682.5 Q464 663 463 635 L416 635 L416 637 Q416 644 410.5 649.5 Q405 655 398 655 L357 655 L223 368 L379 -2 L283 -2 L172 259 L127 162 L127 163 L127 -2 L38 -2 L38 702 L127 702 L127 372 L281 702 L398 702 Z M283 698 L123 354 L123 698 L42 698 L42 2 L123 2 L123 163 L123 164 L172 269 L285 2 L373 2 L219 368 L355 659 L398 659 Q406 659 412.5 653 Q419 647 420 639 L459 639 Q458 664 440.5 681 Q423 698 398 698 L283 698 Z " />
<glyph glyph-name="L" unicode="L" horiz-adv-x="332" d="M314 2 L314 83 L123 83 L123 698 L42 698 L42 2 L314 2 Z M318 -2 L38 -2 L38 702 L127 702 L127 87 L318 87 L318 -2 Z " />
<glyph glyph-name="Lacute" unicode="&#x139;" horiz-adv-x="332" d="M314 2 L314 83 L123 83 L123 697 L42 697 L42 2 L314 2 Z M318 -2 L38 -2 L38 701 L127 701 L127 87 L318 87 L318 -2 Z M126 839 L61 739 L107 739 L205 839 L126 839 Z M124 843 L215 843 L109 735 L53 735 L124 843 Z " />
<glyph glyph-name="Lcaron" unicode="&#x13d;" horiz-adv-x="332" d="M314 2 L314 83 L123 83 L123 697 L42 697 L42 2 L314 2 Z M318 -2 L38 -2 L38 701 L127 701 L127 87 L318 87 L318 -2 Z M297 654 Q297 637 284 611 Q279 601 253 562 L219 562 L217 565 L227 590 Q230 598 230 602 Q230 610 224 614 Q203 631 203 654 Q203 674 217 687.5 Q231 701 250 701 Q270 701 283.5 687.5 Q297 674 297 654 Z M293 654 Q293 672 280.5 684.5 Q268 697 250 697 Q232 697 219.5 684.5 Q207 672 207 654 Q207 633 226 617 Q233 612 233 601 Q233 596 231 588 L221 563 L219 566 L251 566 Q273 599 280 613 Q293 639 293 654 Z " />
<glyph glyph-name="uni1E3C" unicode="&#x1e3c;" horiz-adv-x="332" d="M314 2 L314 83 L123 83 L123 697 L42 697 L42 2 L314 2 Z M318 -2 L38 -2 L38 701 L127 701 L127 87 L318 87 L318 -2 Z M293 -145 L238 -145 L179 -89 L120 -145 L64 -145 L135 -38 L222 -38 L293 -145 Z M285 -141 L220 -42 L137 -42 L72 -141 L118 -141 L179 -83 L240 -141 L285 -141 Z " />
<glyph glyph-name="Lcommaaccent" unicode="&#x13b;" horiz-adv-x="332" d="M314 2 L314 83 L123 83 L123 697 L42 697 L42 2 L314 2 Z M318 -2 L38 -2 L38 701 L127 701 L127 87 L318 87 L318 -2 Z M225 -85 Q225 -102 212 -128 Q207 -138 181 -177 L147 -177 L145 -174 L155 -149 Q158 -142 158 -137 Q158 -130 152 -125 Q131 -109 131 -85 Q131 -66 145 -52 Q159 -38 178 -38 Q198 -38 211.5 -52 Q225 -66 225 -85 Z M221 -85 Q221 -67 208.5 -54.5 Q196 -42 178 -42 Q160 -42 147.5 -54.5 Q135 -67 135 -85 Q135 -106 154 -122 Q161 -127 161 -138 Q161 -143 159 -151 L149 -176 L147 -173 L179 -173 Q201 -140 208 -126 Q221 -100 221 -85 Z " />
<glyph glyph-name="uni1E36" unicode="&#x1e36;" horiz-adv-x="332" d="M314 2 L314 83 L123 83 L123 697 L42 697 L42 2 L314 2 Z M318 -2 L38 -2 L38 701 L127 701 L127 87 L318 87 L318 -2 Z M178 -42 Q160 -42 147.5 -54.5 Q135 -67 135 -85 Q135 -103 147.5 -115.5 Q160 -128 178 -128 Q196 -128 208.5 -115.5 Q221 -103 221 -85 Q221 -67 208.5 -54.5 Q196 -42 178 -42 Z M178 -38 Q198 -38 211.5 -52 Q225 -66 225 -85 Q225 -105 211.5 -118.5 Q198 -132 178 -132 Q159 -132 145 -118.5 Q131 -105 131 -85 Q131 -66 145 -52 Q159 -38 178 -38 Z " />
<glyph glyph-name="Lslash" unicode="&#x141;" horiz-adv-x="332" d="M127 87 L318 87 L318 -2 L38 -2 L38 183 L-16 126 L-16 195 L38 252 L38 701 L127 701 L127 347 L252 482 L252 413 L127 278 L127 87 Z M123 83 L123 280 L248 415 L248 472 L123 337 L123 697 L42 697 L42 250 L-12 193 L-12 136 L42 193 L42 2 L314 2 L314 83 L123 83 Z " />
<glyph glyph-name="M" unicode="M" horiz-adv-x="527" d="M264 243 L438 702 L489 702 L489 -2 L400 -2 L400 384 L288 84 L239 84 L127 384 L127 -2 L38 -2 L38 702 L89 702 L264 243 Z M264 231 L87 698 L42 698 L42 2 L123 2 L123 406 L241 88 L286 88 L404 406 L404 2 L485 2 L485 698 L440 698 L264 231 Z " />
<glyph glyph-name="uni1E3E" unicode="&#x1e3e;" horiz-adv-x="527" d="M264 243 L438 702 L489 702 L489 -2 L400 -2 L400 384 L288 84 L239 84 L127 384 L127 -2 L38 -2 L38 702 L89 702 L264 243 Z M264 231 L87 698 L42 698 L42 2 L123 2 L123 406 L241 88 L286 88 L404 406 L404 2 L485 2 L485 698 L440 698 L264 231 Z M307 839 L242 739 L288 739 L386 839 L307 839 Z M305 843 L396 843 L290 735 L234 735 L305 843 Z " />
<glyph glyph-name="N" unicode="N" horiz-adv-x="405" d="M126 413 L126 -2 L37 -2 L37 702 L87 702 L279 286 L279 702 L368 702 L368 -2 L318 -2 L126 413 Z M122 431 L320 2 L364 2 L364 698 L283 698 L283 268 L85 698 L41 698 L41 2 L122 2 L122 431 Z " />
<glyph glyph-name="Nacute" unicode="&#x143;" horiz-adv-x="405" d="M126 413 L126 -2 L37 -2 L37 702 L87 702 L279 286 L279 702 L368 702 L368 -2 L318 -2 L126 413 Z M122 431 L320 2 L364 2 L364 698 L283 698 L283 268 L85 698 L41 698 L41 2 L122 2 L122 431 Z M246 839 L181 739 L227 739 L325 839 L246 839 Z M244 843 L335 843 L229 735 L173 735 L244 843 Z " />
<glyph glyph-name="Ncaron" unicode="&#x147;" horiz-adv-x="405" d="M126 413 L126 -2 L37 -2 L37 702 L87 702 L279 286 L279 702 L368 702 L368 -2 L318 -2 L126 413 Z M122 431 L320 2 L364 2 L364 698 L283 698 L283 268 L85 698 L41 698 L41 2 L122 2 L122 431 Z M317 842 L246 735 L159 735 L88 842 L144 842 L203 786 L262 842 L317 842 Z M309 838 L264 838 L203 780 L142 838 L96 838 L161 739 L244 739 L309 838 Z " />
<glyph glyph-name="uni1E4A" unicode="&#x1e4a;" horiz-adv-x="405" d="M126 413 L126 -2 L37 -2 L37 702 L87 702 L279 286 L279 702 L368 702 L368 -2 L318 -2 L126 413 Z M122 431 L320 2 L364 2 L364 698 L283 698 L283 268 L85 698 L41 698 L41 2 L122 2 L122 431 Z M317 -145 L262 -145 L203 -89 L144 -145 L88 -145 L159 -38 L246 -38 L317 -145 Z M309 -141 L244 -42 L161 -42 L96 -141 L142 -141 L203 -83 L264 -141 L309 -141 Z " />
<glyph glyph-name="Ncommaaccent" unicode="&#x145;" horiz-adv-x="405" d="M250 -85 Q250 -102 237 -128 Q232 -138 206 -177 L172 -177 L170 -174 L180 -149 Q183 -142 183 -137 Q183 -130 177 -125 Q156 -109 156 -85 Q156 -66 170 -52 Q184 -38 203 -38 Q223 -38 236.5 -52 Q250 -66 250 -85 Z M246 -85 Q246 -67 233.5 -54.5 Q221 -42 203 -42 Q185 -42 172.5 -54.5 Q160 -67 160 -85 Q160 -106 179 -122 Q186 -127 186 -138 Q186 -143 184 -151 L174 -176 L172 -173 L204 -173 Q226 -140 233 -126 Q246 -100 246 -85 Z M126 413 L126 -2 L37 -2 L37 702 L87 702 L279 286 L279 702 L368 702 L368 -2 L318 -2 L126 413 Z M122 431 L320 2 L364 2 L364 698 L283 698 L283 268 L85 698 L41 698 L41 2 L122 2 L122 431 Z " />
<glyph glyph-name="uni1E44" unicode="&#x1e44;" horiz-adv-x="405" d="M126 413 L126 -2 L37 -2 L37 702 L87 702 L279 286 L279 702 L368 702 L368 -2 L318 -2 L126 413 Z M122 431 L320 2 L364 2 L364 698 L283 698 L283 268 L85 698 L41 698 L41 2 L122 2 L122 431 Z M203 825 Q185 825 172.5 812.5 Q160 800 160 782 Q160 764 172.5 751.5 Q185 739 203 739 Q221 739 233.5 751.5 Q246 764 246 782 Q246 800 233.5 812.5 Q221 825 203 825 Z M203 829 Q223 829 236.5 815.5 Q250 802 250 782 Q250 763 236.5 749 Q223 735 203 735 Q184 735 170 749 Q156 763 156 782 Q156 802 170 815.5 Q184 829 203 829 Z " />
<glyph glyph-name="uni1E46" unicode="&#x1e46;" horiz-adv-x="405" d="M126 413 L126 -2 L37 -2 L37 702 L87 702 L279 286 L279 702 L368 702 L368 -2 L318 -2 L126 413 Z M122 431 L320 2 L364 2 L364 698 L283 698 L283 268 L85 698 L41 698 L41 2 L122 2 L122 431 Z M203 -42 Q185 -42 172.5 -54.5 Q160 -67 160 -85 Q160 -103 172.5 -115.5 Q185 -128 203 -128 Q221 -128 233.5 -115.5 Q246 -103 246 -85 Q246 -67 233.5 -54.5 Q221 -42 203 -42 Z M203 -38 Q223 -38 236.5 -52 Q250 -66 250 -85 Q250 -105 236.5 -118.5 Q223 -132 203 -132 Q184 -132 170 -118.5 Q156 -105 156 -85 Q156 -66 170 -52 Q184 -38 203 -38 Z " />
<glyph glyph-name="Eng" unicode="&#x14a;" horiz-adv-x="405" d="M368 702 L368 -42 Q368 -70 348.5 -89 Q329 -108 301 -107 L301 -60 L303 -60 Q310 -60 315.5 -54.5 Q321 -49 321 -42 L321 0 L321 -1 L126 413 L126 -2 L37 -2 L37 702 L87 702 L279 286 L279 702 L368 702 Z M283 268 L85 698 L41 698 L41 2 L122 2 L122 431 L325 1 L325 0 L325 -42 Q325 -50 319 -56.5 Q313 -63 305 -64 L305 -103 Q330 -102 347 -84.5 Q364 -67 364 -42 L364 698 L283 698 L283 268 Z " />
<glyph glyph-name="uni019D" unicode="&#x19d;" horiz-adv-x="405" d="M368 702 L368 -2 L318 -2 L126 413 L126 0 Q126 -44 101.5 -76 Q77 -108 17 -107 L17 -60 L19 -60 Q26 -60 31.5 -54.5 Q37 -49 37 -42 L37 702 L87 702 L279 286 L279 702 L368 702 Z M283 268 L85 698 L41 698 L41 -42 Q41 -50 35 -56.5 Q29 -63 21 -64 L21 -103 Q77 -102 99.5 -72 Q122 -42 122 0 L122 431 L320 2 L364 2 L364 698 L283 698 L283 268 Z " />
<glyph glyph-name="Ntilde" unicode="&#xd1;" horiz-adv-x="405" d="M126 413 L126 -2 L37 -2 L37 702 L87 702 L279 286 L279 702 L368 702 L368 -2 L318 -2 L126 413 Z M122 431 L320 2 L364 2 L364 698 L283 698 L283 268 L85 698 L41 698 L41 2 L122 2 L122 431 Z M107 738 Q134 768 156 768 Q172 768 195 755 Q223 737 250 737 Q291 737 328 783 L297 806 Q277 781 257 777 Q238 774 215 788 Q181 808 155 808 Q114 808 77 762 L107 738 Z M71 762 Q111 812 155 812 Q183 812 217 792 Q239 778 257 781 Q276 786 297 812 L334 783 Q296 733 250 733 Q223 733 193 751 Q170 764 155 764 Q134 764 107 732 L71 762 Z " />
<glyph glyph-name="O" unicode="O" horiz-adv-x="384" d="M192 -7 Q258 -7 302 31 Q348 75 348 156 L348 544 Q348 623 302 669 Q258 707 192 707 Q126 707 82 669 Q36 623 36 544 L36 156 Q36 75 82 31 Q126 -7 192 -7 Z M192 -11 Q123 -11 80 29 Q32 73 32 156 L32 544 Q32 625 80 671 Q123 711 192 711 Q261 711 304 671 Q352 625 352 544 L352 156 Q352 73 304 29 Q261 -11 192 -11 Z M192 626 Q230 626 248.5 606.5 Q267 587 267 544 L267 156 Q267 113 248.5 93.5 Q230 74 192 74 Q154 74 135.5 93.5 Q117 113 117 156 L117 544 Q117 587 135.5 606.5 Q154 626 192 626 Z M192 622 Q155 622 138 603.5 Q121 585 121 544 L121 156 Q121 115 138 96.5 Q155 78 192 78 Q229 78 246 96.5 Q263 115 263 156 L263 544 Q263 585 246 603.5 Q229 622 192 622 Z " />
<glyph glyph-name="Oacute" unicode="&#xd3;" horiz-adv-x="384" d="M192 -7 Q258 -7 302 31 Q348 75 348 156 L348 544 Q348 623 302 669 Q258 707 192 707 Q126 707 82 669 Q36 623 36 544 L36 156 Q36 75 82 31 Q126 -7 192 -7 Z M192 -11 Q123 -11 80 29 Q32 73 32 156 L32 544 Q32 625 80 671 Q123 711 192 711 Q261 711 304 671 Q352 625 352 544 L352 156 Q352 73 304 29 Q261 -11 192 -11 Z M192 626 Q230 626 248.5 606.5 Q267 587 267 544 L267 156 Q267 113 248.5 93.5 Q230 74 192 74 Q154 74 135.5 93.5 Q117 113 117 156 L117 544 Q117 587 135.5 606.5 Q154 626 192 626 Z M192 622 Q155 622 138 603.5 Q121 585 121 544 L121 156 Q121 115 138 96.5 Q155 78 192 78 Q229 78 246 96.5 Q263 115 263 156 L263 544 Q263 585 246 603.5 Q229 622 192 622 Z M235 839 L170 739 L216 739 L314 839 L235 839 Z M233 843 L324 843 L218 735 L162 735 L233 843 Z " />
<glyph glyph-name="uni01D1" unicode="&#x1d1;" horiz-adv-x="384" d="M192 -7 Q258 -7 302 31 Q348 75 348 156 L348 544 Q348 623 302 669 Q258 707 192 707 Q126 707 82 669 Q36 623 36 544 L36 156 Q36 75 82 31 Q126 -7 192 -7 Z M192 -11 Q123 -11 80 29 Q32 73 32 156 L32 544 Q32 625 80 671 Q123 711 192 711 Q261 711 304 671 Q352 625 352 544 L352 156 Q352 73 304 29 Q261 -11 192 -11 Z M192 626 Q230 626 248.5 606.5 Q267 587 267 544 L267 156 Q267 113 248.5 93.5 Q230 74 192 74 Q154 74 135.5 93.5 Q117 113 117 156 L117 544 Q117 587 135.5 606.5 Q154 626 192 626 Z M192 622 Q155 622 138 603.5 Q121 585 121 544 L121 156 Q121 115 138 96.5 Q155 78 192 78 Q229 78 246 96.5 Q263 115 263 156 L263 544 Q263 585 246 603.5 Q229 622 192 622 Z M306 842 L235 735 L148 735 L77 842 L133 842 L192 786 L251 842 L306 842 Z M298 838 L253 838 L192 780 L131 838 L85 838 L150 739 L233 739 L298 838 Z " />
<glyph glyph-name="Ocircumflex" unicode="&#xd4;" horiz-adv-x="384" d="M192 -7 Q258 -7 302 31 Q348 75 348 156 L348 544 Q348 623 302 669 Q258 707 192 707 Q126 707 82 669 Q36 623 36 544 L36 156 Q36 75 82 31 Q126 -7 192 -7 Z M192 -11 Q123 -11 80 29 Q32 73 32 156 L32 544 Q32 625 80 671 Q123 711 192 711 Q261 711 304 671 Q352 625 352 544 L352 156 Q352 73 304 29 Q261 -11 192 -11 Z M192 626 Q230 626 248.5 606.5 Q267 587 267 544 L267 156 Q267 113 248.5 93.5 Q230 74 192 74 Q154 74 135.5 93.5 Q117 113 117 156 L117 544 Q117 587 135.5 606.5 Q154 626 192 626 Z M192 622 Q155 622 138 603.5 Q121 585 121 544 L121 156 Q121 115 138 96.5 Q155 78 192 78 Q229 78 246 96.5 Q263 115 263 156 L263 544 Q263 585 246 603.5 Q229 622 192 622 Z M306 735 L251 735 L192 791 L133 735 L77 735 L148 842 L235 842 L306 735 Z M298 739 L233 838 L150 838 L85 739 L131 739 L192 797 L253 739 L298 739 Z " />
<glyph glyph-name="uni1ED0" unicode="&#x1ed0;" horiz-adv-x="384" d="M192 -7 Q258 -7 302 31 Q348 75 348 156 L348 544 Q348 623 302 669 Q258 707 192 707 Q126 707 82 669 Q36 623 36 544 L36 156 Q36 75 82 31 Q126 -7 192 -7 Z M192 -11 Q123 -11 80 29 Q32 73 32 156 L32 544 Q32 625 80 671 Q123 711 192 711 Q261 711 304 671 Q352 625 352 544 L352 156 Q352 73 304 29 Q261 -11 192 -11 Z M192 626 Q230 626 248.5 606.5 Q267 587 267 544 L267 156 Q267 113 248.5 93.5 Q230 74 192 74 Q154 74 135.5 93.5 Q117 113 117 156 L117 544 Q117 587 135.5 606.5 Q154 626 192 626 Z M192 622 Q155 622 138 603.5 Q121 585 121 544 L121 156 Q121 115 138 96.5 Q155 78 192 78 Q229 78 246 96.5 Q263 115 263 156 L263 544 Q263 585 246 603.5 Q229 622 192 622 Z M306 735 L251 735 L192 791 L133 735 L77 735 L148 842 L235 842 L306 735 Z M298 739 L233 838 L150 838 L85 739 L131 739 L192 797 L253 739 L298 739 Z M348 940 L284 839 L329 839 L428 940 L348 940 Z M346 944 L438 944 L331 835 L276 835 L346 944 Z " />
<glyph glyph-name="uni1ED8" unicode="&#x1ed8;" horiz-adv-x="384" d="M192 -7 Q258 -7 302 31 Q348 75 348 156 L348 544 Q348 623 302 669 Q258 707 192 707 Q126 707 82 669 Q36 623 36 544 L36 156 Q36 75 82 31 Q126 -7 192 -7 Z M192 -11 Q123 -11 80 29 Q32 73 32 156 L32 544 Q32 625 80 671 Q123 711 192 711 Q261 711 304 671 Q352 625 352 544 L352 156 Q352 73 304 29 Q261 -11 192 -11 Z M192 626 Q230 626 248.5 606.5 Q267 587 267 544 L267 156 Q267 113 248.5 93.5 Q230 74 192 74 Q154 74 135.5 93.5 Q117 113 117 156 L117 544 Q117 587 135.5 606.5 Q154 626 192 626 Z M192 622 Q155 622 138 603.5 Q121 585 121 544 L121 156 Q121 115 138 96.5 Q155 78 192 78 Q229 78 246 96.5 Q263 115 263 156 L263 544 Q263 585 246 603.5 Q229 622 192 622 Z M192 -42 Q174 -42 161.5 -54.5 Q149 -67 149 -85 Q149 -103 161.5 -115.5 Q174 -128 192 -128 Q210 -128 222.5 -115.5 Q235 -103 235 -85 Q235 -67 222.5 -54.5 Q210 -42 192 -42 Z M192 -38 Q212 -38 225.5 -52 Q239 -66 239 -85 Q239 -105 225.5 -118.5 Q212 -132 192 -132 Q173 -132 159 -118.5 Q145 -105 145 -85 Q145 -66 159 -52 Q173 -38 192 -38 Z M306 735 L251 735 L192 791 L133 735 L77 735 L148 842 L235 842 L306 735 Z M298 739 L233 838 L150 838 L85 739 L131 739 L192 797 L253 739 L298 739 Z " />
<glyph glyph-name="uni1ED2" unicode="&#x1ed2;" horiz-adv-x="384" d="M192 -7 Q258 -7 302 31 Q348 75 348 156 L348 544 Q348 623 302 669 Q258 707 192 707 Q126 707 82 669 Q36 623 36 544 L36 156 Q36 75 82 31 Q126 -7 192 -7 Z M192 -11 Q123 -11 80 29 Q32 73 32 156 L32 544 Q32 625 80 671 Q123 711 192 711 Q261 711 304 671 Q352 625 352 544 L352 156 Q352 73 304 29 Q261 -11 192 -11 Z M192 626 Q230 626 248.5 606.5 Q267 587 267 544 L267 156 Q267 113 248.5 93.5 Q230 74 192 74 Q154 74 135.5 93.5 Q117 113 117 156 L117 544 Q117 587 135.5 606.5 Q154 626 192 626 Z M192 622 Q155 622 138 603.5 Q121 585 121 544 L121 156 Q121 115 138 96.5 Q155 78 192 78 Q229 78 246 96.5 Q263 115 263 156 L263 544 Q263 585 246 603.5 Q229 622 192 622 Z M306 735 L251 735 L192 791 L133 735 L77 735 L148 842 L235 842 L306 735 Z M298 739 L233 838 L150 838 L85 739 L131 739 L192 797 L253 739 L298 739 Z M262 940 L182 940 L281 839 L326 839 L262 940 Z M264 944 L334 835 L279 835 L172 944 L264 944 Z " />
<glyph glyph-name="uni1ED4" unicode="&#x1ed4;" horiz-adv-x="384" d="M192 -7 Q258 -7 302 31 Q348 75 348 156 L348 544 Q348 623 302 669 Q258 707 192 707 Q126 707 82 669 Q36 623 36 544 L36 156 Q36 75 82 31 Q126 -7 192 -7 Z M192 -11 Q123 -11 80 29 Q32 73 32 156 L32 544 Q32 625 80 671 Q123 711 192 711 Q261 711 304 671 Q352 625 352 544 L352 156 Q352 73 304 29 Q261 -11 192 -11 Z M192 626 Q230 626 248.5 606.5 Q267 587 267 544 L267 156 Q267 113 248.5 93.5 Q230 74 192 74 Q154 74 135.5 93.5 Q117 113 117 156 L117 544 Q117 587 135.5 606.5 Q154 626 192 626 Z M192 622 Q155 622 138 603.5 Q121 585 121 544 L121 156 Q121 115 138 96.5 Q155 78 192 78 Q229 78 246 96.5 Q263 115 263 156 L263 544 Q263 585 246 603.5 Q229 622 192 622 Z M306 735 L251 735 L192 791 L133 735 L77 735 L148 842 L235 842 L306 735 Z M298 739 L233 838 L150 838 L85 739 L131 739 L192 797 L253 739 L298 739 Z M222 940 Q265 940 295.5 909 Q326 878 325 835 L278 835 Q279 859 262 876 Q245 893 221 893 L181 932 Q200 940 222 940 Z M222 936 Q200 936 186 929 L186 932 L223 897 Q247 897 264 880 Q281 863 282 839 L321 839 Q320 879 291 907.5 Q262 936 222 936 Z " />
<glyph glyph-name="uni1ED6" unicode="&#x1ed6;" horiz-adv-x="384" d="M192 -7 Q258 -7 302 31 Q348 75 348 156 L348 544 Q348 623 302 669 Q258 707 192 707 Q126 707 82 669 Q36 623 36 544 L36 156 Q36 75 82 31 Q126 -7 192 -7 Z M192 -11 Q123 -11 80 29 Q32 73 32 156 L32 544 Q32 625 80 671 Q123 711 192 711 Q261 711 304 671 Q352 625 352 544 L352 156 Q352 73 304 29 Q261 -11 192 -11 Z M192 626 Q230 626 248.5 606.5 Q267 587 267 544 L267 156 Q267 113 248.5 93.5 Q230 74 192 74 Q154 74 135.5 93.5 Q117 113 117 156 L117 544 Q117 587 135.5 606.5 Q154 626 192 626 Z M192 622 Q155 622 138 603.5 Q121 585 121 544 L121 156 Q121 115 138 96.5 Q155 78 192 78 Q229 78 246 96.5 Q263 115 263 156 L263 544 Q263 585 246 603.5 Q229 622 192 622 Z M92 868 Q119 898 141 898 Q157 898 180 885 Q209 867 235 867 Q276 867 313 913 L282 936 Q262 911 242 907 Q223 904 200 918 Q166 938 140 938 Q99 938 62 892 L92 868 Z M56 892 Q96 942 140 942 Q168 942 202 922 Q224 908 242 911 Q261 916 282 942 L319 913 Q281 863 235 863 Q208 863 178 881 Q155 894 140 894 Q119 894 92 862 L56 892 Z M306 735 L251 735 L192 791 L133 735 L77 735 L148 842 L235 842 L306 735 Z M298 739 L233 838 L150 838 L85 739 L131 739 L192 797 L253 739 L298 739 Z " />
<glyph glyph-name="Odieresis" unicode="&#xd6;" horiz-adv-x="384" d="M192 -7 Q258 -7 302 31 Q348 75 348 156 L348 544 Q348 623 302 669 Q258 707 192 707 Q126 707 82 669 Q36 623 36 544 L36 156 Q36 75 82 31 Q126 -7 192 -7 Z M192 -11 Q123 -11 80 29 Q32 73 32 156 L32 544 Q32 625 80 671 Q123 711 192 711 Q261 711 304 671 Q352 625 352 544 L352 156 Q352 73 304 29 Q261 -11 192 -11 Z M192 626 Q230 626 248.5 606.5 Q267 587 267 544 L267 156 Q267 113 248.5 93.5 Q230 74 192 74 Q154 74 135.5 93.5 Q117 113 117 156 L117 544 Q117 587 135.5 606.5 Q154 626 192 626 Z M192 622 Q155 622 138 603.5 Q121 585 121 544 L121 156 Q121 115 138 96.5 Q155 78 192 78 Q229 78 246 96.5 Q263 115 263 156 L263 544 Q263 585 246 603.5 Q229 622 192 622 Z M163 782 Q163 800 150.5 812.5 Q138 825 120 825 Q102 825 89.5 812.5 Q77 800 77 782 Q77 764 89.5 751.5 Q102 739 120 739 Q138 739 150.5 751.5 Q163 764 163 782 Z M167 782 Q167 763 153.5 749 Q140 735 120 735 Q101 735 87 749 Q73 763 73 782 Q73 802 87 815.5 Q101 829 120 829 Q140 829 153.5 815.5 Q167 802 167 782 Z M307 782 Q307 800 294.5 812.5 Q282 825 264 825 Q246 825 233.5 812.5 Q221 800 221 782 Q221 764 233.5 751.5 Q246 739 264 739 Q282 739 294.5 751.5 Q307 764 307 782 Z M311 782 Q311 763 297.5 749 Q284 735 264 735 Q245 735 231 749 Q217 763 217 782 Q217 802 231 815.5 Q245 829 264 829 Q284 829 297.5 815.5 Q311 802 311 782 Z " />
<glyph glyph-name="uni022A" unicode="&#x22a;" horiz-adv-x="384" d="M192 -7 Q258 -7 302 31 Q348 75 348 156 L348 544 Q348 623 302 669 Q258 707 192 707 Q126 707 82 669 Q36 623 36 544 L36 156 Q36 75 82 31 Q126 -7 192 -7 Z M192 -11 Q123 -11 80 29 Q32 73 32 156 L32 544 Q32 625 80 671 Q123 711 192 711 Q261 711 304 671 Q352 625 352 544 L352 156 Q352 73 304 29 Q261 -11 192 -11 Z M192 626 Q230 626 248.5 606.5 Q267 587 267 544 L267 156 Q267 113 248.5 93.5 Q230 74 192 74 Q154 74 135.5 93.5 Q117 113 117 156 L117 544 Q117 587 135.5 606.5 Q154 626 192 626 Z M192 622 Q155 622 138 603.5 Q121 585 121 544 L121 156 Q121 115 138 96.5 Q155 78 192 78 Q229 78 246 96.5 Q263 115 263 156 L263 544 Q263 585 246 603.5 Q229 622 192 622 Z M163 782 Q163 800 150.5 812.5 Q138 825 120 825 Q102 825 89.5 812.5 Q77 800 77 782 Q77 764 89.5 751.5 Q102 739 120 739 Q138 739 150.5 751.5 Q163 764 163 782 Z M167 782 Q167 763 153.5 749 Q140 735 120 735 Q101 735 87 749 Q73 763 73 782 Q73 802 87 815.5 Q101 829 120 829 Q140 829 153.5 815.5 Q167 802 167 782 Z M307 782 Q307 800 294.5 812.5 Q282 825 264 825 Q246 825 233.5 812.5 Q221 800 221 782 Q221 764 233.5 751.5 Q246 739 264 739 Q282 739 294.5 751.5 Q307 764 307 782 Z M311 782 Q311 763 297.5 749 Q284 735 264 735 Q245 735 231 749 Q217 763 217 782 Q217 802 231 815.5 Q245 829 264 829 Q284 829 297.5 815.5 Q311 802 311 782 Z M342 867 L342 908 L42 908 L42 867 L342 867 Z M346 863 L38 863 L38 912 L346 912 L346 863 Z " />
<glyph glyph-name="uni1ECC" unicode="&#x1ecc;" horiz-adv-x="384" d="M192 -7 Q258 -7 302 31 Q348 75 348 156 L348 544 Q348 623 302 669 Q258 707 192 707 Q126 707 82 669 Q36 623 36 544 L36 156 Q36 75 82 31 Q126 -7 192 -7 Z M192 -11 Q123 -11 80 29 Q32 73 32 156 L32 544 Q32 625 80 671 Q123 711 192 711 Q261 711 304 671 Q352 625 352 544 L352 156 Q352 73 304 29 Q261 -11 192 -11 Z M192 626 Q230 626 248.5 606.5 Q267 587 267 544 L267 156 Q267 113 248.5 93.5 Q230 74 192 74 Q154 74 135.5 93.5 Q117 113 117 156 L117 544 Q117 587 135.5 606.5 Q154 626 192 626 Z M192 622 Q155 622 138 603.5 Q121 585 121 544 L121 156 Q121 115 138 96.5 Q155 78 192 78 Q229 78 246 96.5 Q263 115 263 156 L263 544 Q263 585 246 603.5 Q229 622 192 622 Z M192 -42 Q174 -42 161.5 -54.5 Q149 -67 149 -85 Q149 -103 161.5 -115.5 Q174 -128 192 -128 Q210 -128 222.5 -115.5 Q235 -103 235 -85 Q235 -67 222.5 -54.5 Q210 -42 192 -42 Z M192 -38 Q212 -38 225.5 -52 Q239 -66 239 -85 Q239 -105 225.5 -118.5 Q212 -132 192 -132 Q173 -132 159 -118.5 Q145 -105 145 -85 Q145 -66 159 -52 Q173 -38 192 -38 Z " />
<glyph glyph-name="Ograve" unicode="&#xd2;" horiz-adv-x="384" d="M192 -7 Q258 -7 302 31 Q348 75 348 156 L348 544 Q348 623 302 669 Q258 707 192 707 Q126 707 82 669 Q36 623 36 544 L36 156 Q36 75 82 31 Q126 -7 192 -7 Z M192 -11 Q123 -11 80 29 Q32 73 32 156 L32 544 Q32 625 80 671 Q123 711 192 711 Q261 711 304 671 Q352 625 352 544 L352 156 Q352 73 304 29 Q261 -11 192 -11 Z M192 626 Q230 626 248.5 606.5 Q267 587 267 544 L267 156 Q267 113 248.5 93.5 Q230 74 192 74 Q154 74 135.5 93.5 Q117 113 117 156 L117 544 Q117 587 135.5 606.5 Q154 626 192 626 Z M192 622 Q155 622 138 603.5 Q121 585 121 544 L121 156 Q121 115 138 96.5 Q155 78 192 78 Q229 78 246 96.5 Q263 115 263 156 L263 544 Q263 585 246 603.5 Q229 622 192 622 Z M148 839 L69 839 L167 739 L213 739 L148 839 Z M150 843 L221 735 L165 735 L59 843 L150 843 Z " />
<glyph glyph-name="uni1ECE" unicode="&#x1ece;" horiz-adv-x="384" d="M192 -7 Q258 -7 302 31 Q348 75 348 156 L348 544 Q348 623 302 669 Q258 707 192 707 Q126 707 82 669 Q36 623 36 544 L36 156 Q36 75 82 31 Q126 -7 192 -7 Z M192 -11 Q123 -11 80 29 Q32 73 32 156 L32 544 Q32 625 80 671 Q123 711 192 711 Q261 711 304 671 Q352 625 352 544 L352 156 Q352 73 304 29 Q261 -11 192 -11 Z M192 626 Q230 626 248.5 606.5 Q267 587 267 544 L267 156 Q267 113 248.5 93.5 Q230 74 192 74 Q154 74 135.5 93.5 Q117 113 117 156 L117 544 Q117 587 135.5 606.5 Q154 626 192 626 Z M192 622 Q155 622 138 603.5 Q121 585 121 544 L121 156 Q121 115 138 96.5 Q155 78 192 78 Q229 78 246 96.5 Q263 115 263 156 L263 544 Q263 585 246 603.5 Q229 622 192 622 Z M112 840 Q155 840 185.5 809 Q216 778 215 735 L168 735 Q169 759 152 776 Q135 793 111 793 L71 832 Q90 840 112 840 Z M112 836 Q90 836 76 829 L76 832 L113 797 Q137 797 154 780 Q171 763 172 739 L211 739 Q210 779 181 807.5 Q152 836 112 836 Z " />
<glyph glyph-name="Ohorn" unicode="&#x1a0;" horiz-adv-x="394" d="M416 731 Q417 703 397.5 683.5 Q378 664 350 664 L307 664 L308 667 Q352 622 352 544 L352 156 Q352 73 304 29 Q261 -11 192 -11 Q123 -11 80 29 Q32 73 32 156 L32 544 Q32 625 80 671 Q123 711 192 711 L350 711 Q358 711 364 717 Q370 723 369 731 L416 731 Z M373 727 Q372 719 365 713 Q358 707 350 707 L192 707 Q126 707 82 669 Q36 623 36 544 L36 156 Q36 75 82 31 Q126 -7 192 -7 Q258 -7 302 31 Q348 75 348 156 L348 544 Q348 620 306 665 L307 668 L350 668 Q375 668 393 685 Q411 702 412 727 L373 727 Z M263 544 Q263 585 246 603.5 Q229 622 192 622 Q155 622 138 603.5 Q121 585 121 544 L121 156 Q121 115 138 96.5 Q155 78 192 78 Q229 78 246 96.5 Q263 115 263 156 L263 544 Z M267 156 Q267 113 248.5 93.5 Q230 74 192 74 Q154 74 135.5 93.5 Q117 113 117 156 L117 544 Q117 587 135.5 606.5 Q154 626 192 626 Q230 626 248.5 606.5 Q267 587 267 544 L267 156 Z " />
<glyph glyph-name="uni1EDA" unicode="&#x1eda;" horiz-adv-x="394" d="M416 731 Q417 703 397.5 683.5 Q378 664 350 664 L307 664 L308 667 Q352 622 352 544 L352 156 Q352 73 304 29 Q261 -11 192 -11 Q123 -11 80 29 Q32 73 32 156 L32 544 Q32 625 80 671 Q123 711 192 711 L350 711 Q358 711 364 717 Q370 723 369 731 L416 731 Z M373 727 Q372 719 365 713 Q358 707 350 707 L192 707 Q126 707 82 669 Q36 623 36 544 L36 156 Q36 75 82 31 Q126 -7 192 -7 Q258 -7 302 31 Q348 75 348 156 L348 544 Q348 620 306 665 L307 668 L350 668 Q375 668 393 685 Q411 702 412 727 L373 727 Z M263 544 Q263 585 246 603.5 Q229 622 192 622 Q155 622 138 603.5 Q121 585 121 544 L121 156 Q121 115 138 96.5 Q155 78 192 78 Q229 78 246 96.5 Q263 115 263 156 L263 544 Z M267 156 Q267 113 248.5 93.5 Q230 74 192 74 Q154 74 135.5 93.5 Q117 113 117 156 L117 544 Q117 587 135.5 606.5 Q154 626 192 626 Q230 626 248.5 606.5 Q267 587 267 544 L267 156 Z M235 839 L170 739 L216 739 L314 839 L235 839 Z M233 843 L324 843 L218 735 L162 735 L233 843 Z " />
<glyph glyph-name="uni1EE2" unicode="&#x1ee2;" horiz-adv-x="394" d="M416 731 Q417 703 397.5 683.5 Q378 664 350 664 L307 664 L308 667 Q352 622 352 544 L352 156 Q352 73 304 29 Q261 -11 192 -11 Q123 -11 80 29 Q32 73 32 156 L32 544 Q32 625 80 671 Q123 711 192 711 L350 711 Q358 711 364 717 Q370 723 369 731 L416 731 Z M373 727 Q372 719 365 713 Q358 707 350 707 L192 707 Q126 707 82 669 Q36 623 36 544 L36 156 Q36 75 82 31 Q126 -7 192 -7 Q258 -7 302 31 Q348 75 348 156 L348 544 Q348 620 306 665 L307 668 L350 668 Q375 668 393 685 Q411 702 412 727 L373 727 Z M263 544 Q263 585 246 603.5 Q229 622 192 622 Q155 622 138 603.5 Q121 585 121 544 L121 156 Q121 115 138 96.5 Q155 78 192 78 Q229 78 246 96.5 Q263 115 263 156 L263 544 Z M267 156 Q267 113 248.5 93.5 Q230 74 192 74 Q154 74 135.5 93.5 Q117 113 117 156 L117 544 Q117 587 135.5 606.5 Q154 626 192 626 Q230 626 248.5 606.5 Q267 587 267 544 L267 156 Z M192 -42 Q174 -42 161.5 -54.5 Q149 -67 149 -85 Q149 -103 161.5 -115.5 Q174 -128 192 -128 Q210 -128 222.5 -115.5 Q235 -103 235 -85 Q235 -67 222.5 -54.5 Q210 -42 192 -42 Z M192 -38 Q212 -38 225.5 -52 Q239 -66 239 -85 Q239 -105 225.5 -118.5 Q212 -132 192 -132 Q173 -132 159 -118.5 Q145 -105 145 -85 Q145 -66 159 -52 Q173 -38 192 -38 Z " />
<glyph glyph-name="uni1EDC" unicode="&#x1edc;" horiz-adv-x="394" d="M416 731 Q417 703 397.5 683.5 Q378 664 350 664 L307 664 L308 667 Q352 622 352 544 L352 156 Q352 73 304 29 Q261 -11 192 -11 Q123 -11 80 29 Q32 73 32 156 L32 544 Q32 625 80 671 Q123 711 192 711 L350 711 Q358 711 364 717 Q370 723 369 731 L416 731 Z M373 727 Q372 719 365 713 Q358 707 350 707 L192 707 Q126 707 82 669 Q36 623 36 544 L36 156 Q36 75 82 31 Q126 -7 192 -7 Q258 -7 302 31 Q348 75 348 156 L348 544 Q348 620 306 665 L307 668 L350 668 Q375 668 393 685 Q411 702 412 727 L373 727 Z M263 544 Q263 585 246 603.5 Q229 622 192 622 Q155 622 138 603.5 Q121 585 121 544 L121 156 Q121 115 138 96.5 Q155 78 192 78 Q229 78 246 96.5 Q263 115 263 156 L263 544 Z M267 156 Q267 113 248.5 93.5 Q230 74 192 74 Q154 74 135.5 93.5 Q117 113 117 156 L117 544 Q117 587 135.5 606.5 Q154 626 192 626 Q230 626 248.5 606.5 Q267 587 267 544 L267 156 Z M148 839 L69 839 L167 739 L213 739 L148 839 Z M150 843 L221 735 L165 735 L59 843 L150 843 Z " />
<glyph glyph-name="uni1EDE" unicode="&#x1ede;" horiz-adv-x="394" d="M416 731 Q417 703 397.5 683.5 Q378 664 350 664 L307 664 L308 667 Q352 622 352 544 L352 156 Q352 73 304 29 Q261 -11 192 -11 Q123 -11 80 29 Q32 73 32 156 L32 544 Q32 625 80 671 Q123 711 192 711 L350 711 Q358 711 364 717 Q370 723 369 731 L416 731 Z M373 727 Q372 719 365 713 Q358 707 350 707 L192 707 Q126 707 82 669 Q36 623 36 544 L36 156 Q36 75 82 31 Q126 -7 192 -7 Q258 -7 302 31 Q348 75 348 156 L348 544 Q348 620 306 665 L307 668 L350 668 Q375 668 393 685 Q411 702 412 727 L373 727 Z M263 544 Q263 585 246 603.5 Q229 622 192 622 Q155 622 138 603.5 Q121 585 121 544 L121 156 Q121 115 138 96.5 Q155 78 192 78 Q229 78 246 96.5 Q263 115 263 156 L263 544 Z M267 156 Q267 113 248.5 93.5 Q230 74 192 74 Q154 74 135.5 93.5 Q117 113 117 156 L117 544 Q117 587 135.5 606.5 Q154 626 192 626 Q230 626 248.5 606.5 Q267 587 267 544 L267 156 Z M112 840 Q155 840 185.5 809 Q216 778 215 735 L168 735 Q169 759 152 776 Q135 793 111 793 L71 832 Q90 840 112 840 Z M112 836 Q90 836 76 829 L76 832 L113 797 Q137 797 154 780 Q171 763 172 739 L211 739 Q210 779 181 807.5 Q152 836 112 836 Z " />
<glyph glyph-name="uni1EE0" unicode="&#x1ee0;" horiz-adv-x="394" d="M416 731 Q417 703 397.5 683.5 Q378 664 350 664 L307 664 L308 667 Q352 622 352 544 L352 156 Q352 73 304 29 Q261 -11 192 -11 Q123 -11 80 29 Q32 73 32 156 L32 544 Q32 625 80 671 Q123 711 192 711 L350 711 Q358 711 364 717 Q370 723 369 731 L416 731 Z M373 727 Q372 719 365 713 Q358 707 350 707 L192 707 Q126 707 82 669 Q36 623 36 544 L36 156 Q36 75 82 31 Q126 -7 192 -7 Q258 -7 302 31 Q348 75 348 156 L348 544 Q348 620 306 665 L307 668 L350 668 Q375 668 393 685 Q411 702 412 727 L373 727 Z M263 544 Q263 585 246 603.5 Q229 622 192 622 Q155 622 138 603.5 Q121 585 121 544 L121 156 Q121 115 138 96.5 Q155 78 192 78 Q229 78 246 96.5 Q263 115 263 156 L263 544 Z M267 156 Q267 113 248.5 93.5 Q230 74 192 74 Q154 74 135.5 93.5 Q117 113 117 156 L117 544 Q117 587 135.5 606.5 Q154 626 192 626 Q230 626 248.5 606.5 Q267 587 267 544 L267 156 Z M97 738 Q124 768 146 768 Q162 768 185 755 Q214 737 240 737 Q281 737 318 783 L287 806 Q267 781 247 777 Q228 774 205 788 Q171 808 145 808 Q104 808 67 762 L97 738 Z M61 762 Q101 812 145 812 Q173 812 207 792 Q229 778 247 781 Q266 786 287 812 L324 783 Q286 733 240 733 Q213 733 183 751 Q160 764 145 764 Q124 764 97 732 L61 762 Z " />
<glyph glyph-name="Ohungarumlaut" unicode="&#x150;" horiz-adv-x="384" d="M192 -7 Q258 -7 302 31 Q348 75 348 156 L348 544 Q348 623 302 669 Q258 707 192 707 Q126 707 82 669 Q36 623 36 544 L36 156 Q36 75 82 31 Q126 -7 192 -7 Z M192 -11 Q123 -11 80 29 Q32 73 32 156 L32 544 Q32 625 80 671 Q123 711 192 711 Q261 711 304 671 Q352 625 352 544 L352 156 Q352 73 304 29 Q261 -11 192 -11 Z M192 626 Q230 626 248.5 606.5 Q267 587 267 544 L267 156 Q267 113 248.5 93.5 Q230 74 192 74 Q154 74 135.5 93.5 Q117 113 117 156 L117 544 Q117 587 135.5 606.5 Q154 626 192 626 Z M192 622 Q155 622 138 603.5 Q121 585 121 544 L121 156 Q121 115 138 96.5 Q155 78 192 78 Q229 78 246 96.5 Q263 115 263 156 L263 544 Q263 585 246 603.5 Q229 622 192 622 Z M167 840 L103 739 L148 739 L247 840 L167 840 Z M165 844 L257 844 L150 735 L95 735 L165 844 Z M302 840 L238 739 L283 739 L382 840 L302 840 Z M300 844 L392 844 L285 735 L230 735 L300 844 Z " />
<glyph glyph-name="Omacron" unicode="&#x14c;" horiz-adv-x="384" d="M192 -7 Q258 -7 302 31 Q348 75 348 156 L348 544 Q348 623 302 669 Q258 707 192 707 Q126 707 82 669 Q36 623 36 544 L36 156 Q36 75 82 31 Q126 -7 192 -7 Z M192 -11 Q123 -11 80 29 Q32 73 32 156 L32 544 Q32 625 80 671 Q123 711 192 711 Q261 711 304 671 Q352 625 352 544 L352 156 Q352 73 304 29 Q261 -11 192 -11 Z M192 626 Q230 626 248.5 606.5 Q267 587 267 544 L267 156 Q267 113 248.5 93.5 Q230 74 192 74 Q154 74 135.5 93.5 Q117 113 117 156 L117 544 Q117 587 135.5 606.5 Q154 626 192 626 Z M192 622 Q155 622 138 603.5 Q121 585 121 544 L121 156 Q121 115 138 96.5 Q155 78 192 78 Q229 78 246 96.5 Q263 115 263 156 L263 544 Q263 585 246 603.5 Q229 622 192 622 Z M342 739 L342 780 L42 780 L42 739 L342 739 Z M346 735 L38 735 L38 784 L346 784 L346 735 Z " />
<glyph glyph-name="uni1E52" unicode="&#x1e52;" horiz-adv-x="384" d="M192 -7 Q258 -7 302 31 Q348 75 348 156 L348 544 Q348 623 302 669 Q258 707 192 707 Q126 707 82 669 Q36 623 36 544 L36 156 Q36 75 82 31 Q126 -7 192 -7 Z M192 -11 Q123 -11 80 29 Q32 73 32 156 L32 544 Q32 625 80 671 Q123 711 192 711 Q261 711 304 671 Q352 625 352 544 L352 156 Q352 73 304 29 Q261 -11 192 -11 Z M192 626 Q230 626 248.5 606.5 Q267 587 267 544 L267 156 Q267 113 248.5 93.5 Q230 74 192 74 Q154 74 135.5 93.5 Q117 113 117 156 L117 544 Q117 587 135.5 606.5 Q154 626 192 626 Z M192 622 Q155 622 138 603.5 Q121 585 121 544 L121 156 Q121 115 138 96.5 Q155 78 192 78 Q229 78 246 96.5 Q263 115 263 156 L263 544 Q263 585 246 603.5 Q229 622 192 622 Z M148 922 L69 922 L167 822 L213 822 L148 922 Z M150 926 L221 818 L165 818 L59 926 L150 926 Z M342 739 L342 780 L42 780 L42 739 L342 739 Z M346 735 L38 735 L38 784 L346 784 L346 735 Z " />
<glyph glyph-name="uni1E50" unicode="&#x1e50;" horiz-adv-x="384" d="M192 -7 Q258 -7 302 31 Q348 75 348 156 L348 544 Q348 623 302 669 Q258 707 192 707 Q126 707 82 669 Q36 623 36 544 L36 156 Q36 75 82 31 Q126 -7 192 -7 Z M192 -11 Q123 -11 80 29 Q32 73 32 156 L32 544 Q32 625 80 671 Q123 711 192 711 Q261 711 304 671 Q352 625 352 544 L352 156 Q352 73 304 29 Q261 -11 192 -11 Z M192 626 Q230 626 248.5 606.5 Q267 587 267 544 L267 156 Q267 113 248.5 93.5 Q230 74 192 74 Q154 74 135.5 93.5 Q117 113 117 156 L117 544 Q117 587 135.5 606.5 Q154 626 192 626 Z M192 622 Q155 622 138 603.5 Q121 585 121 544 L121 156 Q121 115 138 96.5 Q155 78 192 78 Q229 78 246 96.5 Q263 115 263 156 L263 544 Q263 585 246 603.5 Q229 622 192 622 Z M236 922 L171 822 L217 822 L315 922 L236 922 Z M234 926 L325 926 L219 818 L163 818 L234 926 Z M342 739 L342 780 L42 780 L42 739 L342 739 Z M346 735 L38 735 L38 784 L346 784 L346 735 Z " />
<glyph glyph-name="uni0186" unicode="&#x186;" horiz-adv-x="381" d="M189 -7 Q255 -7 298 31 Q345 73 345 156 L345 545 Q345 625 298 670 Q255 708 189 708 Q123 708 79 670 Q32 625 32 545 L32 483 L113 483 L113 545 Q113 588 131.5 607.5 Q150 627 189 627 Q227 627 245.5 607 Q264 587 264 545 L264 156 Q264 114 245.5 94 Q227 74 189 74 Q150 74 131.5 93.5 Q113 113 113 156 L113 248 L32 248 L32 156 Q32 73 79 31 Q123 -7 189 -7 Z M189 -11 Q120 -11 77 29 Q28 72 28 156 L28 252 L117 252 L117 156 Q117 115 134.5 96.5 Q152 78 189 78 Q226 78 243 97 Q260 116 260 156 L260 545 Q260 585 243 604 Q226 623 189 623 Q152 623 134.5 604.5 Q117 586 117 545 L117 479 L28 479 L28 545 Q28 627 77 672 Q120 712 189 712 Q259 712 300 672 Q349 627 349 545 L349 156 Q349 72 300 29 Q259 -11 189 -11 Z " />
<glyph glyph-name="Oslash" unicode="&#xd8;" horiz-adv-x="385" d="M338 621 Q353 588 353 543 L353 155 Q353 72 304 29 Q264 -11 193 -11 Q121 -11 81 29 L81 28 Q77 31 76 33 L80 33 L55 -22 L11 -2 L47 77 Q32 110 32 155 L32 543 Q32 626 81 669 Q121 709 193 709 Q264 709 304 669 L304 670 Q308 667 309 665 L305 665 L330 720 L374 700 L338 621 Z M332 714 L309 663 L305 663 Q304 665 302 666 L302 667 Q261 705 193 705 Q124 705 83 667 Q36 623 36 543 L36 155 Q36 109 51 77 L17 0 L53 -16 L76 35 L80 35 Q81 33 83 32 L83 31 Q124 -7 193 -7 Q261 -7 302 31 Q349 75 349 155 L349 543 Q349 590 334 621 L368 698 L332 714 Z M121 246 L262 566 Q258 594 241 607 Q224 620 193 620 Q156 620 138.5 601.5 Q121 583 121 543 L121 246 Z M117 543 Q117 585 135.5 604.5 Q154 624 193 624 Q226 624 243.5 609.5 Q261 595 266 566 L117 228 L117 543 Z M264 452 L123 132 Q127 104 144 91 Q161 78 193 78 Q230 78 247 96.5 Q264 115 264 155 L264 452 Z M268 155 Q268 113 249.5 93.5 Q231 74 193 74 Q159 74 141.5 88.5 Q124 103 119 132 L268 470 L268 155 Z " />
<glyph glyph-name="Oslashacute" unicode="&#x1fe;" horiz-adv-x="385" d="M338 621 Q353 588 353 543 L353 155 Q353 72 304 29 Q264 -11 193 -11 Q121 -11 81 29 L81 28 Q77 31 76 33 L80 33 L55 -22 L11 -2 L47 77 Q32 110 32 155 L32 543 Q32 626 81 669 Q121 709 193 709 Q264 709 304 669 L304 670 Q308 667 309 665 L305 665 L330 720 L374 700 L338 621 Z M332 714 L309 663 L305 663 Q304 665 302 666 L302 667 Q261 705 193 705 Q124 705 83 667 Q36 623 36 543 L36 155 Q36 109 51 77 L17 0 L53 -16 L76 35 L80 35 Q81 33 83 32 L83 31 Q124 -7 193 -7 Q261 -7 302 31 Q349 75 349 155 L349 543 Q349 590 334 621 L368 698 L332 714 Z M121 246 L262 566 Q258 594 241 607 Q224 620 193 620 Q156 620 138.5 601.5 Q121 583 121 543 L121 246 Z M117 543 Q117 585 135.5 604.5 Q154 624 193 624 Q226 624 243.5 609.5 Q261 595 266 566 L117 228 L117 543 Z M264 452 L123 132 Q127 104 144 91 Q161 78 193 78 Q230 78 247 96.5 Q264 115 264 155 L264 452 Z M268 155 Q268 113 249.5 93.5 Q231 74 193 74 Q159 74 141.5 88.5 Q124 103 119 132 L268 470 L268 155 Z " />
<glyph glyph-name="Otilde" unicode="&#xd5;" horiz-adv-x="384" d="M192 -7 Q258 -7 302 31 Q348 75 348 156 L348 544 Q348 623 302 669 Q258 707 192 707 Q126 707 82 669 Q36 623 36 544 L36 156 Q36 75 82 31 Q126 -7 192 -7 Z M192 -11 Q123 -11 80 29 Q32 73 32 156 L32 544 Q32 625 80 671 Q123 711 192 711 Q261 711 304 671 Q352 625 352 544 L352 156 Q352 73 304 29 Q261 -11 192 -11 Z M192 626 Q230 626 248.5 606.5 Q267 587 267 544 L267 156 Q267 113 248.5 93.5 Q230 74 192 74 Q154 74 135.5 93.5 Q117 113 117 156 L117 544 Q117 587 135.5 606.5 Q154 626 192 626 Z M192 622 Q155 622 138 603.5 Q121 585 121 544 L121 156 Q121 115 138 96.5 Q155 78 192 78 Q229 78 246 96.5 Q263 115 263 156 L263 544 Q263 585 246 603.5 Q229 622 192 622 Z M97 738 Q124 768 146 768 Q162 768 185 755 Q214 737 240 737 Q281 737 318 783 L287 806 Q267 781 247 777 Q228 774 205 788 Q171 808 145 808 Q104 808 67 762 L97 738 Z M61 762 Q101 812 145 812 Q173 812 207 792 Q229 778 247 781 Q266 786 287 812 L324 783 Q286 733 240 733 Q213 733 183 751 Q160 764 145 764 Q124 764 97 732 L61 762 Z " />
<glyph glyph-name="uni1E4C" unicode="&#x1e4c;" horiz-adv-x="384" d="M192 -7 Q258 -7 302 31 Q348 75 348 156 L348 544 Q348 623 302 669 Q258 707 192 707 Q126 707 82 669 Q36 623 36 544 L36 156 Q36 75 82 31 Q126 -7 192 -7 Z M192 -11 Q123 -11 80 29 Q32 73 32 156 L32 544 Q32 625 80 671 Q123 711 192 711 Q261 711 304 671 Q352 625 352 544 L352 156 Q352 73 304 29 Q261 -11 192 -11 Z M192 626 Q230 626 248.5 606.5 Q267 587 267 544 L267 156 Q267 113 248.5 93.5 Q230 74 192 74 Q154 74 135.5 93.5 Q117 113 117 156 L117 544 Q117 587 135.5 606.5 Q154 626 192 626 Z M192 622 Q155 622 138 603.5 Q121 585 121 544 L121 156 Q121 115 138 96.5 Q155 78 192 78 Q229 78 246 96.5 Q263 115 263 156 L263 544 Q263 585 246 603.5 Q229 622 192 622 Z M97 738 Q124 768 146 768 Q162 768 185 755 Q214 737 240 737 Q281 737 318 783 L287 806 Q267 781 247 777 Q228 774 205 788 Q171 808 145 808 Q104 808 67 762 L97 738 Z M61 762 Q101 812 145 812 Q173 812 207 792 Q229 778 247 781 Q266 786 287 812 L324 783 Q286 733 240 733 Q213 733 183 751 Q160 764 145 764 Q124 764 97 732 L61 762 Z M236 950 L171 850 L217 850 L315 950 L236 950 Z M234 954 L325 954 L219 846 L163 846 L234 954 Z " />
<glyph glyph-name="OE" unicode="&#x152;" horiz-adv-x="528" d="M308 613 L308 404 L441 404 L441 315 L308 315 L308 87 L499 87 L499 -2 L192 -2 Q123 -2 80 38 Q32 85 32 165 L32 535 Q32 619 80 662 Q123 702 192 702 L499 702 L499 613 L308 613 Z M495 698 L192 698 Q126 698 82 660 Q36 616 36 535 L36 165 Q36 86 82 40 Q126 2 192 2 L495 2 L495 83 L304 83 L304 319 L437 319 L437 400 L304 400 L304 617 L495 617 L495 698 Z M121 165 Q121 124 138 105.5 Q155 87 192 87 L219 87 L219 613 L192 613 Q155 613 138 594.5 Q121 576 121 535 L121 165 Z M117 535 Q117 578 135.5 597.5 Q154 617 192 617 L223 617 L223 83 L192 83 Q154 83 135.5 102.5 Q117 122 117 165 L117 535 Z " />
<glyph glyph-name="P" unicode="P" horiz-adv-x="379" d="M123 294 L198 294 Q267 294 308 332 Q354 376 354 456 L354 535 Q354 616 308 660 Q264 698 198 698 L42 698 L42 2 L123 2 L123 294 Z M38 -2 L38 702 L198 702 Q267 702 310 662 Q358 619 358 535 L358 456 Q358 374 310 330 Q269 290 198 290 L127 290 L127 -2 L38 -2 Z M123 617 L198 617 Q236 617 254.5 597 Q273 577 273 535 L273 456 Q273 414 254.5 394.5 Q236 375 198 375 L123 375 L123 617 Z M198 379 Q235 379 252 397.5 Q269 416 269 456 L269 535 Q269 575 252 594 Q235 613 198 613 L127 613 L127 379 L198 379 Z " />
<glyph glyph-name="uni01A4" unicode="&#x1a4;" horiz-adv-x="424" d="M355 662 Q403 619 403 535 L403 456 Q403 374 355 330 Q314 290 243 290 L172 290 L172 -2 L83 -2 L83 655 L43 655 Q35 655 29.5 649 Q24 643 25 635 L-22 635 Q-23 663 -3.5 682.5 Q16 702 43 702 L243 702 Q312 702 355 662 Z M353 660 Q309 698 243 698 L43 698 Q18 698 0.5 681 Q-17 664 -18 639 L21 639 Q22 647 28 653 Q34 659 43 659 L87 659 L87 2 L168 2 L168 294 L243 294 Q312 294 353 332 Q399 376 399 456 L399 535 Q399 616 353 660 Z M314 535 Q314 575 297 594 Q280 613 243 613 L172 613 L172 379 L243 379 Q280 379 297 397.5 Q314 416 314 456 L314 535 Z M318 456 Q318 414 299.5 394.5 Q281 375 243 375 L168 375 L168 617 L243 617 Q281 617 299.5 597 Q318 577 318 535 L318 456 Z " />
<glyph glyph-name="Thorn" unicode="&#xde;" horiz-adv-x="379" d="M123 559 L198 559 Q236 559 254.5 539 Q273 519 273 477 L273 398 Q273 356 254.5 336.5 Q236 317 198 317 L123 317 L123 559 Z M198 321 Q235 321 252 339.5 Q269 358 269 398 L269 477 Q269 517 252 536 Q235 555 198 555 L127 555 L127 321 L198 321 Z M123 236 L198 236 Q267 236 308 274 Q354 318 354 398 L354 477 Q354 558 308 602 Q264 640 198 640 L123 640 L123 698 L42 698 L42 2 L123 2 L123 236 Z M38 -2 L38 702 L127 702 L127 644 L198 644 Q267 644 310 604 Q358 561 358 477 L358 398 Q358 316 310 272 Q269 232 198 232 L127 232 L127 -2 L38 -2 Z " />
<glyph glyph-name="Q" unicode="Q" horiz-adv-x="384" d="M375 -45 L375 -134 L360 -134 Q292 -134 251 -95 Q226 -72 216 -43 Q210 -26 207 -9 Q203 -10 193 -10 Q124 -10 81 30 Q32 75 32 157 L32 544 Q32 628 81 671 Q124 711 193 711 Q262 711 305 671 Q353 628 353 544 L353 157 Q353 77 305 29 Q303 28 293 20 Q294 -13 311 -30 Q329 -45 360 -45 L375 -45 Z M360 -49 Q326 -49 309 -33 Q291 -16 289 22 L303 32 Q349 78 349 157 L349 544 Q349 625 303 669 Q259 707 193 707 Q127 707 83 669 Q36 627 36 544 L36 157 Q36 77 83 32 Q127 -6 193 -6 Q206 -6 211 -5 Q214 -27 220 -41 Q230 -70 253 -93 Q295 -130 360 -130 L371 -130 L371 -49 L360 -49 Z M121 157 Q121 116 138.5 97.5 Q156 79 193 79 Q230 79 247 98 Q264 117 264 157 L264 544 Q264 584 247 603 Q230 622 193 622 Q156 622 138.5 603.5 Q121 585 121 544 L121 157 Z M117 544 Q117 587 135.5 606.5 Q154 626 193 626 Q231 626 249.5 606 Q268 586 268 544 L268 157 Q268 115 249.5 95 Q231 75 193 75 Q154 75 135.5 94.5 Q117 114 117 157 L117 544 Z " />
<glyph glyph-name="R" unicode="R" horiz-adv-x="385" d="M360 -2 L267 -2 L187 290 L127 290 L127 -2 L38 -2 L38 702 L198 702 Q231 702 260 691.5 Q289 681 310 662 Q359 619 359 535 L359 456 Q359 373 310 330 Q298 316 275 306 L360 -2 Z M271 308 Q290 315 308 332 Q355 376 355 456 L355 535 Q355 618 308 660 Q265 698 198 698 L42 698 L42 2 L123 2 L123 294 L191 294 L271 2 L354 2 L271 308 Z M270 535 Q270 576 252.5 594.5 Q235 613 198 613 L127 613 L127 379 L198 379 Q235 379 252.5 397.5 Q270 416 270 456 L270 535 Z M274 456 Q274 414 255.5 394.5 Q237 375 198 375 L123 375 L123 617 L198 617 Q237 617 255.5 597.5 Q274 578 274 535 L274 456 Z " />
<glyph glyph-name="Racute" unicode="&#x154;" horiz-adv-x="385" d="M360 -2 L267 -2 L187 290 L127 290 L127 -2 L38 -2 L38 702 L198 702 Q231 702 260 691.5 Q289 681 310 662 Q359 619 359 535 L359 456 Q359 373 310 330 Q298 316 275 306 L360 -2 Z M271 308 Q290 315 308 332 Q355 376 355 456 L355 535 Q355 618 308 660 Q265 698 198 698 L42 698 L42 2 L123 2 L123 294 L191 294 L271 2 L354 2 L271 308 Z M270 535 Q270 576 252.5 594.5 Q235 613 198 613 L127 613 L127 379 L198 379 Q235 379 252.5 397.5 Q270 416 270 456 L270 535 Z M274 456 Q274 414 255.5 394.5 Q237 375 198 375 L123 375 L123 617 L198 617 Q237 617 255.5 597.5 Q274 578 274 535 L274 456 Z M243 839 L178 739 L224 739 L322 839 L243 839 Z M241 843 L332 843 L226 735 L170 735 L241 843 Z " />
<glyph glyph-name="Rcaron" unicode="&#x158;" horiz-adv-x="385" d="M360 -2 L267 -2 L187 290 L127 290 L127 -2 L38 -2 L38 702 L198 702 Q231 702 260 691.5 Q289 681 310 662 Q359 619 359 535 L359 456 Q359 373 310 330 Q298 316 275 306 L360 -2 Z M271 308 Q290 315 308 332 Q355 376 355 456 L355 535 Q355 618 308 660 Q265 698 198 698 L42 698 L42 2 L123 2 L123 294 L191 294 L271 2 L354 2 L271 308 Z M270 535 Q270 576 252.5 594.5 Q235 613 198 613 L127 613 L127 379 L198 379 Q235 379 252.5 397.5 Q270 416 270 456 L270 535 Z M274 456 Q274 414 255.5 394.5 Q237 375 198 375 L123 375 L123 617 L198 617 Q237 617 255.5 597.5 Q274 578 274 535 L274 456 Z M312 735 L257 735 L198 791 L139 735 L83 735 L154 842 L241 842 L312 735 Z M304 739 L239 838 L156 838 L91 739 L137 739 L198 797 L259 739 L304 739 Z " />
<glyph glyph-name="Rcommaaccent" unicode="&#x156;" horiz-adv-x="385" d="M360 -2 L267 -2 L187 290 L127 290 L127 -2 L38 -2 L38 702 L198 702 Q231 702 260 691.5 Q289 681 310 662 Q359 619 359 535 L359 456 Q359 373 310 330 Q298 316 275 306 L360 -2 Z M271 308 Q290 315 308 332 Q355 376 355 456 L355 535 Q355 618 308 660 Q265 698 198 698 L42 698 L42 2 L123 2 L123 294 L191 294 L271 2 L354 2 L271 308 Z M270 535 Q270 576 252.5 594.5 Q235 613 198 613 L127 613 L127 379 L198 379 Q235 379 252.5 397.5 Q270 416 270 456 L270 535 Z M274 456 Q274 414 255.5 394.5 Q237 375 198 375 L123 375 L123 617 L198 617 Q237 617 255.5 597.5 Q274 578 274 535 L274 456 Z M246 -85 Q246 -102 233 -128 Q228 -138 202 -177 L168 -177 L166 -174 L176 -149 Q179 -142 179 -137 Q179 -130 173 -125 Q152 -109 152 -85 Q152 -66 166 -52 Q180 -38 199 -38 Q219 -38 232.5 -52 Q246 -66 246 -85 Z M242 -85 Q242 -67 229.5 -54.5 Q217 -42 199 -42 Q181 -42 168.5 -54.5 Q156 -67 156 -85 Q156 -106 175 -122 Q182 -127 182 -138 Q182 -143 180 -151 L170 -176 L168 -173 L200 -173 Q222 -140 229 -126 Q242 -100 242 -85 Z " />
<glyph glyph-name="uni024C" unicode="&#x24c;" horiz-adv-x="390" d="M364 456 Q364 373 315 330 Q303 316 280 306 L365 -2 L272 -2 L192 290 L132 290 L132 -2 L43 -2 L43 290 L3 290 L3 379 L43 379 L43 702 L203 702 Q236 702 265 691.5 Q294 681 315 662 Q364 619 364 535 L364 456 Z M360 535 Q360 618 313 660 Q270 698 203 698 L47 698 L47 375 L7 375 L7 294 L47 294 L47 2 L128 2 L128 294 L196 294 L276 2 L359 2 L276 308 Q295 315 313 332 Q360 376 360 456 L360 535 Z M275 535 Q275 576 257.5 594.5 Q240 613 203 613 L132 613 L132 379 L203 379 Q240 379 257.5 397.5 Q275 416 275 456 L275 535 Z M279 456 Q279 414 260.5 394.5 Q242 375 203 375 L128 375 L128 617 L203 617 Q242 617 260.5 597.5 Q279 578 279 535 L279 456 Z " />
<glyph glyph-name="uni2C64" unicode="&#x2c64;" horiz-adv-x="385" d="M359 456 Q359 373 310 330 Q298 316 275 306 L360 -2 L267 -2 L187 290 L127 290 L127 -42 Q127 -50 133 -55.5 Q139 -61 147 -60 L147 -107 Q87 -108 62.5 -76 Q38 -44 38 0 L38 702 L198 702 Q231 702 260 691.5 Q289 681 310 662 Q359 619 359 535 L359 456 Z M355 535 Q355 618 308 660 Q265 698 198 698 L42 698 L42 0 Q42 -42 64.5 -72 Q87 -102 143 -103 L143 -64 Q135 -63 129 -57 Q123 -51 123 -42 L123 294 L191 294 L271 2 L354 2 L271 308 Q290 315 308 332 Q355 376 355 456 L355 535 Z M270 535 Q270 576 252.5 594.5 Q235 613 198 613 L127 613 L127 379 L198 379 Q235 379 252.5 397.5 Q270 416 270 456 L270 535 Z M274 456 Q274 414 255.5 394.5 Q237 375 198 375 L123 375 L123 617 L198 617 Q237 617 255.5 597.5 Q274 578 274 535 L274 456 Z " />
<glyph glyph-name="S" unicode="S" horiz-adv-x="371" d="M185 -7 Q252 -7 295 31 Q342 73 342 156 L342 202 Q342 283 294 335 Q277 355 255.5 369.5 Q234 384 204 400 Q177 415 162 425.5 Q147 436 136 449 Q110 478 110 525 L110 544 Q110 586 128.5 606 Q147 626 185 626 Q224 626 242.5 606.5 Q261 587 261 544 L261 482 L342 482 L342 544 Q342 624 295 669 Q252 707 185 707 Q119 707 76 669 Q29 624 29 544 L29 525 Q29 444 75 394 Q92 375 112.5 361.5 Q133 348 165 330 Q191 315 207 304.5 Q223 294 235 281 Q246 268 253.5 250 Q261 232 261 202 L261 156 Q261 113 242.5 93.5 Q224 74 185 74 Q147 74 128.5 94 Q110 114 110 156 L110 249 L29 249 L29 156 Q29 73 76 31 Q119 -7 185 -7 Z M185 -11 Q153 -11 124 -0.5 Q95 10 74 29 Q25 72 25 156 L25 253 L114 253 L114 156 Q114 116 131 97 Q148 78 185 78 Q222 78 239.5 96.5 Q257 115 257 156 L257 202 Q257 230 250 247.5 Q243 265 232 279 Q221 291 205 301 Q189 311 163 326 Q131 344 110.5 358 Q90 372 73 392 Q25 443 25 525 L25 544 Q25 626 74 671 Q95 690 124 700.5 Q153 711 185 711 Q218 711 247 700.5 Q276 690 297 671 Q346 626 346 544 L346 478 L257 478 L257 544 Q257 585 239.5 603.5 Q222 622 185 622 Q148 622 131 603 Q114 584 114 544 L114 525 Q114 480 138 451 Q149 439 168 427 Q187 415 206 404 Q236 388 257.5 373 Q279 358 297 337 Q346 284 346 202 L346 156 Q346 72 297 29 Q276 10 247 -0.5 Q218 -11 185 -11 Z " />
<glyph glyph-name="Sacute" unicode="&#x15a;" horiz-adv-x="371" d="M185 -7 Q252 -7 295 31 Q342 73 342 156 L342 202 Q342 283 294 335 Q277 355 255.5 369.5 Q234 384 204 400 Q177 415 162 425.5 Q147 436 136 449 Q110 478 110 525 L110 544 Q110 586 128.5 606 Q147 626 185 626 Q224 626 242.5 606.5 Q261 587 261 544 L261 482 L342 482 L342 544 Q342 624 295 669 Q252 707 185 707 Q119 707 76 669 Q29 624 29 544 L29 525 Q29 444 75 394 Q92 375 112.5 361.5 Q133 348 165 330 Q191 315 207 304.5 Q223 294 235 281 Q246 268 253.5 250 Q261 232 261 202 L261 156 Q261 113 242.5 93.5 Q224 74 185 74 Q147 74 128.5 94 Q110 114 110 156 L110 249 L29 249 L29 156 Q29 73 76 31 Q119 -7 185 -7 Z M185 -11 Q153 -11 124 -0.5 Q95 10 74 29 Q25 72 25 156 L25 253 L114 253 L114 156 Q114 116 131 97 Q148 78 185 78 Q222 78 239.5 96.5 Q257 115 257 156 L257 202 Q257 230 250 247.5 Q243 265 232 279 Q221 291 205 301 Q189 311 163 326 Q131 344 110.5 358 Q90 372 73 392 Q25 443 25 525 L25 544 Q25 626 74 671 Q95 690 124 700.5 Q153 711 185 711 Q218 711 247 700.5 Q276 690 297 671 Q346 626 346 544 L346 478 L257 478 L257 544 Q257 585 239.5 603.5 Q222 622 185 622 Q148 622 131 603 Q114 584 114 544 L114 525 Q114 480 138 451 Q149 439 168 427 Q187 415 206 404 Q236 388 257.5 373 Q279 358 297 337 Q346 284 346 202 L346 156 Q346 72 297 29 Q276 10 247 -0.5 Q218 -11 185 -11 Z M229 839 L164 739 L210 739 L308 839 L229 839 Z M227 843 L318 843 L212 735 L156 735 L227 843 Z " />
<glyph glyph-name="Scaron" unicode="&#x160;" horiz-adv-x="371" d="M185 -7 Q252 -7 295 31 Q342 73 342 156 L342 202 Q342 283 294 335 Q277 355 255.5 369.5 Q234 384 204 400 Q177 415 162 425.5 Q147 436 136 449 Q110 478 110 525 L110 544 Q110 586 128.5 606 Q147 626 185 626 Q224 626 242.5 606.5 Q261 587 261 544 L261 482 L342 482 L342 544 Q342 624 295 669 Q252 707 185 707 Q119 707 76 669 Q29 624 29 544 L29 525 Q29 444 75 394 Q92 375 112.5 361.5 Q133 348 165 330 Q191 315 207 304.5 Q223 294 235 281 Q246 268 253.5 250 Q261 232 261 202 L261 156 Q261 113 242.5 93.5 Q224 74 185 74 Q147 74 128.5 94 Q110 114 110 156 L110 249 L29 249 L29 156 Q29 73 76 31 Q119 -7 185 -7 Z M185 -11 Q153 -11 124 -0.5 Q95 10 74 29 Q25 72 25 156 L25 253 L114 253 L114 156 Q114 116 131 97 Q148 78 185 78 Q222 78 239.5 96.5 Q257 115 257 156 L257 202 Q257 230 250 247.5 Q243 265 232 279 Q221 291 205 301 Q189 311 163 326 Q131 344 110.5 358 Q90 372 73 392 Q25 443 25 525 L25 544 Q25 626 74 671 Q95 690 124 700.5 Q153 711 185 711 Q218 711 247 700.5 Q276 690 297 671 Q346 626 346 544 L346 478 L257 478 L257 544 Q257 585 239.5 603.5 Q222 622 185 622 Q148 622 131 603 Q114 584 114 544 L114 525 Q114 480 138 451 Q149 439 168 427 Q187 415 206 404 Q236 388 257.5 373 Q279 358 297 337 Q346 284 346 202 L346 156 Q346 72 297 29 Q276 10 247 -0.5 Q218 -11 185 -11 Z M300 842 L229 735 L142 735 L71 842 L127 842 L186 786 L245 842 L300 842 Z M292 838 L247 838 L186 780 L125 838 L79 838 L144 739 L227 739 L292 838 Z " />
<glyph glyph-name="Scedilla" unicode="&#x15e;" horiz-adv-x="371" d="M257 478 L257 544 Q257 585 239.5 603.5 Q222 622 185 622 Q148 622 131 603 Q114 584 114 544 L114 525 Q114 480 138 451 Q149 439 168 427 Q187 415 206 404 Q236 388 257.5 373 Q279 358 297 337 Q346 284 346 202 L346 156 Q346 72 297 29 Q264 -4 208 -10 L209 -7 Q210 -7 211 -8.5 Q212 -10 214 -11 Q214 -11 217 -14 Q250 -37 250 -71 Q250 -98 231 -117.5 Q212 -137 185 -137 Q158 -137 138 -117 Q118 -97 119 -69 L166 -69 L166 -71 Q166 -79 172 -84.5 Q178 -90 185 -90 Q192 -90 197.5 -84.5 Q203 -79 203 -71 Q203 -65 200.5 -61 Q198 -57 189 -51 Q188 -51 187 -50 Q186 -49 186 -49 Q165 -32 162 -10 Q108 -4 74 29 Q25 72 25 156 L25 253 L114 253 L114 156 Q114 116 131 97 Q148 78 185 78 Q222 78 239.5 96.5 Q257 115 257 156 L257 202 Q257 230 250 247.5 Q243 265 232 279 Q221 291 205 301 Q189 311 163 326 Q131 344 110.5 358 Q90 372 73 392 Q25 443 25 525 L25 544 Q25 626 74 671 Q95 690 124 700.5 Q153 711 185 711 Q218 711 247 700.5 Q276 690 297 671 Q346 626 346 544 L346 478 L257 478 Z M342 544 Q342 624 295 669 Q252 707 185 707 Q119 707 76 669 Q29 624 29 544 L29 525 Q29 444 75 394 Q92 375 112.5 361.5 Q133 348 165 330 Q191 315 207 304.5 Q223 294 235 281 Q246 268 253.5 250 Q261 232 261 202 L261 156 Q261 113 242.5 93.5 Q224 74 185 74 Q147 74 128.5 94 Q110 114 110 156 L110 249 L29 249 L29 156 Q29 73 76 31 Q112 0 166 -6 Q166 -28 188 -46 L190 -47 Q200 -54 203.5 -58.5 Q207 -63 207 -71 Q207 -80 200.5 -87 Q194 -94 185 -94 Q176 -94 169.5 -87.5 Q163 -81 162 -73 L123 -73 Q124 -98 142 -115.5 Q160 -133 185 -133 Q210 -133 228 -115 Q246 -97 246 -71 Q246 -50 237 -38 Q228 -26 213 -16 L213 -15 Q209 -13 207 -9 L208 -6 Q263 0 295 31 Q342 73 342 156 L342 202 Q342 283 294 335 Q277 355 255.5 369.5 Q234 384 204 400 Q177 415 162 425.5 Q147 436 136 449 Q110 478 110 525 L110 544 Q110 586 128.5 606 Q147 626 185 626 Q224 626 242.5 606.5 Q261 587 261 544 L261 482 L342 482 L342 544 Z " />
<glyph glyph-name="Scommaaccent" unicode="&#x218;" horiz-adv-x="371" d="M185 -7 Q252 -7 295 31 Q342 73 342 156 L342 202 Q342 283 294 335 Q277 355 255.5 369.5 Q234 384 204 400 Q177 415 162 425.5 Q147 436 136 449 Q110 478 110 525 L110 544 Q110 586 128.5 606 Q147 626 185 626 Q224 626 242.5 606.5 Q261 587 261 544 L261 482 L342 482 L342 544 Q342 624 295 669 Q252 707 185 707 Q119 707 76 669 Q29 624 29 544 L29 525 Q29 444 75 394 Q92 375 112.5 361.5 Q133 348 165 330 Q191 315 207 304.5 Q223 294 235 281 Q246 268 253.5 250 Q261 232 261 202 L261 156 Q261 113 242.5 93.5 Q224 74 185 74 Q147 74 128.5 94 Q110 114 110 156 L110 249 L29 249 L29 156 Q29 73 76 31 Q119 -7 185 -7 Z M185 -11 Q153 -11 124 -0.5 Q95 10 74 29 Q25 72 25 156 L25 253 L114 253 L114 156 Q114 116 131 97 Q148 78 185 78 Q222 78 239.5 96.5 Q257 115 257 156 L257 202 Q257 230 250 247.5 Q243 265 232 279 Q221 291 205 301 Q189 311 163 326 Q131 344 110.5 358 Q90 372 73 392 Q25 443 25 525 L25 544 Q25 626 74 671 Q95 690 124 700.5 Q153 711 185 711 Q218 711 247 700.5 Q276 690 297 671 Q346 626 346 544 L346 478 L257 478 L257 544 Q257 585 239.5 603.5 Q222 622 185 622 Q148 622 131 603 Q114 584 114 544 L114 525 Q114 480 138 451 Q149 439 168 427 Q187 415 206 404 Q236 388 257.5 373 Q279 358 297 337 Q346 284 346 202 L346 156 Q346 72 297 29 Q276 10 247 -0.5 Q218 -11 185 -11 Z M233 -85 Q233 -102 220 -128 Q215 -138 189 -177 L155 -177 L153 -174 L163 -149 Q166 -142 166 -137 Q166 -130 160 -125 Q139 -109 139 -85 Q139 -66 153 -52 Q167 -38 186 -38 Q206 -38 219.5 -52 Q233 -66 233 -85 Z M229 -85 Q229 -67 216.5 -54.5 Q204 -42 186 -42 Q168 -42 155.5 -54.5 Q143 -67 143 -85 Q143 -106 162 -122 Q169 -127 169 -138 Q169 -143 167 -151 L157 -176 L155 -173 L187 -173 Q209 -140 216 -126 Q229 -100 229 -85 Z " />
<glyph glyph-name="uni1E62" unicode="&#x1e62;" horiz-adv-x="371" d="M185 -7 Q252 -7 295 31 Q342 73 342 156 L342 202 Q342 283 294 335 Q277 355 255.5 369.5 Q234 384 204 400 Q177 415 162 425.5 Q147 436 136 449 Q110 478 110 525 L110 544 Q110 586 128.5 606 Q147 626 185 626 Q224 626 242.5 606.5 Q261 587 261 544 L261 482 L342 482 L342 544 Q342 624 295 669 Q252 707 185 707 Q119 707 76 669 Q29 624 29 544 L29 525 Q29 444 75 394 Q92 375 112.5 361.5 Q133 348 165 330 Q191 315 207 304.5 Q223 294 235 281 Q246 268 253.5 250 Q261 232 261 202 L261 156 Q261 113 242.5 93.5 Q224 74 185 74 Q147 74 128.5 94 Q110 114 110 156 L110 249 L29 249 L29 156 Q29 73 76 31 Q119 -7 185 -7 Z M185 -11 Q153 -11 124 -0.5 Q95 10 74 29 Q25 72 25 156 L25 253 L114 253 L114 156 Q114 116 131 97 Q148 78 185 78 Q222 78 239.5 96.5 Q257 115 257 156 L257 202 Q257 230 250 247.5 Q243 265 232 279 Q221 291 205 301 Q189 311 163 326 Q131 344 110.5 358 Q90 372 73 392 Q25 443 25 525 L25 544 Q25 626 74 671 Q95 690 124 700.5 Q153 711 185 711 Q218 711 247 700.5 Q276 690 297 671 Q346 626 346 544 L346 478 L257 478 L257 544 Q257 585 239.5 603.5 Q222 622 185 622 Q148 622 131 603 Q114 584 114 544 L114 525 Q114 480 138 451 Q149 439 168 427 Q187 415 206 404 Q236 388 257.5 373 Q279 358 297 337 Q346 284 346 202 L346 156 Q346 72 297 29 Q276 10 247 -0.5 Q218 -11 185 -11 Z M185 -42 Q167 -42 154.5 -54.5 Q142 -67 142 -85 Q142 -103 154.5 -115.5 Q167 -128 185 -128 Q203 -128 215.5 -115.5 Q228 -103 228 -85 Q228 -67 215.5 -54.5 Q203 -42 185 -42 Z M185 -38 Q205 -38 218.5 -52 Q232 -66 232 -85 Q232 -105 218.5 -118.5 Q205 -132 185 -132 Q166 -132 152 -118.5 Q138 -105 138 -85 Q138 -66 152 -52 Q166 -38 185 -38 Z " />
<glyph glyph-name="T" unicode="T" horiz-adv-x="345" d="M335 701 L335 612 L217 612 L217 -2 L128 -2 L128 612 L11 612 L11 701 L335 701 Z M331 697 L15 697 L15 616 L132 616 L132 2 L213 2 L213 616 L331 616 L331 697 Z " />
<glyph glyph-name="Tbar" unicode="&#x166;" horiz-adv-x="345" d="M335 612 L217 612 L217 472 L277 472 L277 424 L217 424 L217 -2 L128 -2 L128 424 L68 424 L68 472 L128 472 L128 612 L11 612 L11 701 L335 701 L335 612 Z M331 616 L331 697 L15 697 L15 616 L132 616 L132 468 L72 468 L72 428 L132 428 L132 2 L213 2 L213 428 L273 428 L273 468 L213 468 L213 616 L331 616 Z " />
<glyph glyph-name="Tcaron" unicode="&#x164;" horiz-adv-x="345" d="M335 701 L335 612 L217 612 L217 -2 L128 -2 L128 612 L11 612 L11 701 L335 701 Z M331 697 L15 697 L15 616 L132 616 L132 2 L213 2 L213 616 L331 616 L331 697 Z M287 842 L216 735 L129 735 L58 842 L114 842 L173 786 L232 842 L287 842 Z M279 838 L234 838 L173 780 L112 838 L66 838 L131 739 L214 739 L279 838 Z " />
<glyph glyph-name="uni0162" unicode="&#x162;" horiz-adv-x="345" d="M197 -1 L197 -7 L197 -6 Q199 -9 201 -11 Q201 -11 204 -14 Q237 -37 237 -71 Q237 -98 218 -117.5 Q199 -137 172 -137 Q145 -137 125 -117 Q105 -97 106 -69 L153 -69 L153 -71 Q153 -79 159 -84.5 Q165 -90 172 -90 Q179 -90 184.5 -84.5 Q190 -79 190 -71 Q190 -65 187.5 -61 Q185 -57 176 -51 Q175 -51 174 -50 Q173 -49 173 -49 Q151 -31 149 -7 L149 -1 L128 -1 L128 613 L11 613 L11 702 L335 702 L335 613 L217 613 L217 -1 L197 -1 Z M213 617 L331 617 L331 698 L15 698 L15 617 L132 617 L132 3 L153 3 L153 -7 Q155 -30 175 -46 L177 -47 Q187 -54 190.5 -58.5 Q194 -63 194 -71 Q194 -80 187.5 -87 Q181 -94 172 -94 Q163 -94 156.5 -87.5 Q150 -81 149 -73 L110 -73 Q111 -98 129 -115.5 Q147 -133 172 -133 Q197 -133 215 -115 Q233 -97 233 -71 Q233 -50 224 -38 Q215 -26 200 -16 L200 -15 Q195 -13 193 -8 L193 -7 L193 3 L213 3 L213 617 Z " />
<glyph glyph-name="uni1E70" unicode="&#x1e70;" horiz-adv-x="345" d="M335 701 L335 612 L217 612 L217 -2 L128 -2 L128 612 L11 612 L11 701 L335 701 Z M331 697 L15 697 L15 616 L132 616 L132 2 L213 2 L213 616 L331 616 L331 697 Z M287 -145 L232 -145 L173 -89 L114 -145 L58 -145 L129 -38 L216 -38 L287 -145 Z M279 -141 L214 -42 L131 -42 L66 -141 L112 -141 L173 -83 L234 -141 L279 -141 Z " />
<glyph glyph-name="uni021A" unicode="&#x21a;" horiz-adv-x="345" d="M335 701 L335 612 L217 612 L217 -2 L128 -2 L128 612 L11 612 L11 701 L335 701 Z M331 697 L15 697 L15 616 L132 616 L132 2 L213 2 L213 616 L331 616 L331 697 Z M219 -85 Q219 -102 206 -128 Q201 -138 175 -177 L141 -177 L139 -174 L149 -149 Q152 -142 152 -137 Q152 -130 146 -125 Q125 -109 125 -85 Q125 -66 139 -52 Q153 -38 172 -38 Q192 -38 205.5 -52 Q219 -66 219 -85 Z M215 -85 Q215 -67 202.5 -54.5 Q190 -42 172 -42 Q154 -42 141.5 -54.5 Q129 -67 129 -85 Q129 -106 148 -122 Q155 -127 155 -138 Q155 -143 153 -151 L143 -176 L141 -173 L173 -173 Q195 -140 202 -126 Q215 -100 215 -85 Z " />
<glyph glyph-name="uni1E6C" unicode="&#x1e6c;" horiz-adv-x="345" d="M335 701 L335 612 L217 612 L217 -2 L128 -2 L128 612 L11 612 L11 701 L335 701 Z M331 697 L15 697 L15 616 L132 616 L132 2 L213 2 L213 616 L331 616 L331 697 Z M172 -42 Q154 -42 141.5 -54.5 Q129 -67 129 -85 Q129 -103 141.5 -115.5 Q154 -128 172 -128 Q190 -128 202.5 -115.5 Q215 -103 215 -85 Q215 -67 202.5 -54.5 Q190 -42 172 -42 Z M172 -38 Q192 -38 205.5 -52 Q219 -66 219 -85 Q219 -105 205.5 -118.5 Q192 -132 172 -132 Q153 -132 139 -118.5 Q125 -105 125 -85 Q125 -66 139 -52 Q153 -38 172 -38 Z " />
<glyph glyph-name="uni01AC" unicode="&#x1ac;" horiz-adv-x="402" d="M392 701 L392 612 L274 612 L274 -2 L185 -2 L185 612 L70 612 Q62 612 56.5 606 Q51 600 52 592 L5 592 Q4 652 36 676.5 Q68 701 112 701 L392 701 Z M112 697 Q70 697 40 674.5 Q10 652 9 596 L48 596 Q49 604 55 610 Q61 616 70 616 L189 616 L189 2 L270 2 L270 616 L388 616 L388 697 L112 697 Z " />
<glyph glyph-name="uni1E6E" unicode="&#x1e6e;" horiz-adv-x="346" d="M335 701 L335 612 L217 612 L217 -2 L128 -2 L128 612 L11 612 L11 701 L335 701 Z M331 697 L15 697 L15 616 L132 616 L132 2 L213 2 L213 616 L331 616 L331 697 Z M323 -83 L323 -42 L24 -42 L24 -83 L323 -83 Z M327 -87 L20 -87 L20 -38 L327 -38 L327 -87 Z " />
<glyph glyph-name="uni01AE" unicode="&#x1ae;" horiz-adv-x="345" d="M217 612 L217 -42 Q217 -50 223 -55.5 Q229 -61 237 -60 L237 -107 Q177 -108 152.5 -76 Q128 -44 128 0 L128 612 L11 612 L11 701 L335 701 L335 612 L217 612 Z M331 697 L15 697 L15 616 L132 616 L132 0 Q132 -42 154.5 -72 Q177 -102 233 -103 L233 -64 Q225 -63 219 -57 Q213 -51 213 -42 L213 616 L331 616 L331 697 Z " />
<glyph glyph-name="U" unicode="U" horiz-adv-x="393" d="M197 -7 Q263 -7 306 31 Q353 73 353 156 L353 698 L272 698 L272 156 Q272 114 253.5 94 Q235 74 197 74 Q158 74 139.5 93.5 Q121 113 121 156 L121 698 L40 698 L40 156 Q40 73 87 31 Q130 -7 197 -7 Z M197 -11 Q164 -11 135 -0.5 Q106 10 85 29 Q36 72 36 156 L36 702 L125 702 L125 156 Q125 115 142.5 96.5 Q160 78 197 78 Q234 78 251 97 Q268 116 268 156 L268 702 L357 702 L357 156 Q357 72 308 29 Q287 10 258 -0.5 Q229 -11 197 -11 Z " />
<glyph glyph-name="Uacute" unicode="&#xda;" horiz-adv-x="393" d="M197 -7 Q263 -7 306 31 Q353 73 353 156 L353 698 L272 698 L272 156 Q272 114 253.5 94 Q235 74 197 74 Q158 74 139.5 93.5 Q121 113 121 156 L121 698 L40 698 L40 156 Q40 73 87 31 Q130 -7 197 -7 Z M197 -11 Q164 -11 135 -0.5 Q106 10 85 29 Q36 72 36 156 L36 702 L125 702 L125 156 Q125 115 142.5 96.5 Q160 78 197 78 Q234 78 251 97 Q268 116 268 156 L268 702 L357 702 L357 156 Q357 72 308 29 Q287 10 258 -0.5 Q229 -11 197 -11 Z M240 839 L175 739 L221 739 L319 839 L240 839 Z M238 843 L329 843 L223 735 L167 735 L238 843 Z " />
<glyph glyph-name="uni0244" unicode="&#x244;" horiz-adv-x="403" d="M402 336 L362 336 L362 156 Q362 72 313 29 Q292 10 263 -0.5 Q234 -11 202 -11 Q169 -11 140 -0.5 Q111 10 90 29 Q41 72 41 156 L41 336 L1 336 L1 384 L41 384 L41 702 L130 702 L130 384 L273 384 L273 702 L362 702 L362 384 L402 384 L402 336 Z M358 380 L358 698 L277 698 L277 380 L126 380 L126 698 L45 698 L45 380 L5 380 L5 340 L45 340 L45 156 Q45 73 92 31 Q135 -7 202 -7 Q268 -7 311 31 Q358 73 358 156 L358 340 L398 340 L398 380 L358 380 Z M273 336 L130 336 L130 156 Q130 115 147.5 96.5 Q165 78 202 78 Q239 78 256 97 Q273 116 273 156 L273 336 Z M277 156 Q277 114 258.5 94 Q240 74 202 74 Q163 74 144.5 93.5 Q126 113 126 156 L126 340 L277 340 L277 156 Z " />
<glyph glyph-name="uni01D3" unicode="&#x1d3;" horiz-adv-x="393" d="M197 -7 Q263 -7 306 31 Q353 73 353 156 L353 698 L272 698 L272 156 Q272 114 253.5 94 Q235 74 197 74 Q158 74 139.5 93.5 Q121 113 121 156 L121 698 L40 698 L40 156 Q40 73 87 31 Q130 -7 197 -7 Z M197 -11 Q164 -11 135 -0.5 Q106 10 85 29 Q36 72 36 156 L36 702 L125 702 L125 156 Q125 115 142.5 96.5 Q160 78 197 78 Q234 78 251 97 Q268 116 268 156 L268 702 L357 702 L357 156 Q357 72 308 29 Q287 10 258 -0.5 Q229 -11 197 -11 Z M311 842 L240 735 L153 735 L82 842 L138 842 L197 786 L256 842 L311 842 Z M303 838 L258 838 L197 780 L136 838 L90 838 L155 739 L238 739 L303 838 Z " />
<glyph glyph-name="Ucircumflex" unicode="&#xdb;" horiz-adv-x="393" d="M197 -7 Q263 -7 306 31 Q353 73 353 156 L353 698 L272 698 L272 156 Q272 114 253.5 94 Q235 74 197 74 Q158 74 139.5 93.5 Q121 113 121 156 L121 698 L40 698 L40 156 Q40 73 87 31 Q130 -7 197 -7 Z M197 -11 Q164 -11 135 -0.5 Q106 10 85 29 Q36 72 36 156 L36 702 L125 702 L125 156 Q125 115 142.5 96.5 Q160 78 197 78 Q234 78 251 97 Q268 116 268 156 L268 702 L357 702 L357 156 Q357 72 308 29 Q287 10 258 -0.5 Q229 -11 197 -11 Z M311 735 L256 735 L197 791 L138 735 L82 735 L153 842 L240 842 L311 735 Z M303 739 L238 838 L155 838 L90 739 L136 739 L197 797 L258 739 L303 739 Z " />
<glyph glyph-name="Udieresis" unicode="&#xdc;" horiz-adv-x="393" d="M197 -7 Q263 -7 306 31 Q353 73 353 156 L353 698 L272 698 L272 156 Q272 114 253.5 94 Q235 74 197 74 Q158 74 139.5 93.5 Q121 113 121 156 L121 698 L40 698 L40 156 Q40 73 87 31 Q130 -7 197 -7 Z M197 -11 Q164 -11 135 -0.5 Q106 10 85 29 Q36 72 36 156 L36 702 L125 702 L125 156 Q125 115 142.5 96.5 Q160 78 197 78 Q234 78 251 97 Q268 116 268 156 L268 702 L357 702 L357 156 Q357 72 308 29 Q287 10 258 -0.5 Q229 -11 197 -11 Z M167 782 Q167 800 154.5 812.5 Q142 825 124 825 Q106 825 93.5 812.5 Q81 800 81 782 Q81 764 93.5 751.5 Q106 739 124 739 Q142 739 154.5 751.5 Q167 764 167 782 Z M171 782 Q171 763 157.5 749 Q144 735 124 735 Q105 735 91 749 Q77 763 77 782 Q77 802 91 815.5 Q105 829 124 829 Q144 829 157.5 815.5 Q171 802 171 782 Z M311 782 Q311 800 298.5 812.5 Q286 825 268 825 Q250 825 237.5 812.5 Q225 800 225 782 Q225 764 237.5 751.5 Q250 739 268 739 Q286 739 298.5 751.5 Q311 764 311 782 Z M315 782 Q315 763 301.5 749 Q288 735 268 735 Q249 735 235 749 Q221 763 221 782 Q221 802 235 815.5 Q249 829 268 829 Q288 829 301.5 815.5 Q315 802 315 782 Z " />
<glyph glyph-name="uni01D7" unicode="&#x1d7;" horiz-adv-x="393" d="M197 -7 Q263 -7 306 31 Q353 73 353 156 L353 698 L272 698 L272 156 Q272 114 253.5 94 Q235 74 197 74 Q158 74 139.5 93.5 Q121 113 121 156 L121 698 L40 698 L40 156 Q40 73 87 31 Q130 -7 197 -7 Z M197 -11 Q164 -11 135 -0.5 Q106 10 85 29 Q36 72 36 156 L36 702 L125 702 L125 156 Q125 115 142.5 96.5 Q160 78 197 78 Q234 78 251 97 Q268 116 268 156 L268 702 L357 702 L357 156 Q357 72 308 29 Q287 10 258 -0.5 Q229 -11 197 -11 Z M167 782 Q167 800 154.5 812.5 Q142 825 124 825 Q106 825 93.5 812.5 Q81 800 81 782 Q81 764 93.5 751.5 Q106 739 124 739 Q142 739 154.5 751.5 Q167 764 167 782 Z M171 782 Q171 763 157.5 749 Q144 735 124 735 Q105 735 91 749 Q77 763 77 782 Q77 802 91 815.5 Q105 829 124 829 Q144 829 157.5 815.5 Q171 802 171 782 Z M311 782 Q311 800 298.5 812.5 Q286 825 268 825 Q250 825 237.5 812.5 Q225 800 225 782 Q225 764 237.5 751.5 Q250 739 268 739 Q286 739 298.5 751.5 Q311 764 311 782 Z M315 782 Q315 763 301.5 749 Q288 735 268 735 Q249 735 235 749 Q221 763 221 782 Q221 802 235 815.5 Q249 829 268 829 Q288 829 301.5 815.5 Q315 802 315 782 Z M240 967 L175 867 L221 867 L319 967 L240 967 Z M238 971 L329 971 L223 863 L167 863 L238 971 Z " />
<glyph glyph-name="uni01D9" unicode="&#x1d9;" horiz-adv-x="393" d="M197 -7 Q263 -7 306 31 Q353 73 353 156 L353 698 L272 698 L272 156 Q272 114 253.5 94 Q235 74 197 74 Q158 74 139.5 93.5 Q121 113 121 156 L121 698 L40 698 L40 156 Q40 73 87 31 Q130 -7 197 -7 Z M197 -11 Q164 -11 135 -0.5 Q106 10 85 29 Q36 72 36 156 L36 702 L125 702 L125 156 Q125 115 142.5 96.5 Q160 78 197 78 Q234 78 251 97 Q268 116 268 156 L268 702 L357 702 L357 156 Q357 72 308 29 Q287 10 258 -0.5 Q229 -11 197 -11 Z M167 782 Q167 800 154.5 812.5 Q142 825 124 825 Q106 825 93.5 812.5 Q81 800 81 782 Q81 764 93.5 751.5 Q106 739 124 739 Q142 739 154.5 751.5 Q167 764 167 782 Z M171 782 Q171 763 157.5 749 Q144 735 124 735 Q105 735 91 749 Q77 763 77 782 Q77 802 91 815.5 Q105 829 124 829 Q144 829 157.5 815.5 Q171 802 171 782 Z M311 782 Q311 800 298.5 812.5 Q286 825 268 825 Q250 825 237.5 812.5 Q225 800 225 782 Q225 764 237.5 751.5 Q250 739 268 739 Q286 739 298.5 751.5 Q311 764 311 782 Z M315 782 Q315 763 301.5 749 Q288 735 268 735 Q249 735 235 749 Q221 763 221 782 Q221 802 235 815.5 Q249 829 268 829 Q288 829 301.5 815.5 Q315 802 315 782 Z M311 970 L240 863 L153 863 L82 970 L138 970 L197 914 L256 970 L311 970 Z M303 966 L258 966 L197 908 L136 966 L90 966 L155 867 L238 867 L303 966 Z " />
<glyph glyph-name="uni01DB" unicode="&#x1db;" horiz-adv-x="393" d="M196 -7 Q263 -7 306 31 Q353 73 353 156 L353 698 L272 698 L272 156 Q272 113 253.5 93.5 Q235 74 196 74 Q158 74 139.5 94 Q121 114 121 156 L121 698 L40 698 L40 156 Q40 73 87 31 Q130 -7 196 -7 Z M196 -11 Q164 -11 135 -0.5 Q106 10 85 29 Q36 72 36 156 L36 702 L125 702 L125 156 Q125 116 142 97 Q159 78 196 78 Q233 78 250.5 96.5 Q268 115 268 156 L268 702 L357 702 L357 156 Q357 72 308 29 Q287 10 258 -0.5 Q229 -11 196 -11 Z M226 782 Q226 764 238.5 751.5 Q251 739 269 739 Q287 739 299.5 751.5 Q312 764 312 782 Q312 800 299.5 812.5 Q287 825 269 825 Q251 825 238.5 812.5 Q226 800 226 782 Z M222 782 Q222 802 236 815.5 Q250 829 269 829 Q289 829 302.5 815.5 Q316 802 316 782 Q316 763 302.5 749 Q289 735 269 735 Q250 735 236 749 Q222 763 222 782 Z M82 782 Q82 764 94.5 751.5 Q107 739 125 739 Q143 739 155.5 751.5 Q168 764 168 782 Q168 800 155.5 812.5 Q143 825 125 825 Q107 825 94.5 812.5 Q82 800 82 782 Z M78 782 Q78 802 92 815.5 Q106 829 125 829 Q145 829 158.5 815.5 Q172 802 172 782 Q172 763 158.5 749 Q145 735 125 735 Q106 735 92 749 Q78 763 78 782 Z M153 967 L74 967 L172 867 L218 867 L153 967 Z M155 971 L226 863 L170 863 L64 971 L155 971 Z " />
<glyph glyph-name="uni01D5" unicode="&#x1d5;" horiz-adv-x="393" d="M196 -7 Q263 -7 306 31 Q353 73 353 156 L353 698 L272 698 L272 156 Q272 113 253.5 93.5 Q235 74 196 74 Q158 74 139.5 94 Q121 114 121 156 L121 698 L40 698 L40 156 Q40 73 87 31 Q130 -7 196 -7 Z M196 -11 Q164 -11 135 -0.5 Q106 10 85 29 Q36 72 36 156 L36 702 L125 702 L125 156 Q125 116 142 97 Q159 78 196 78 Q233 78 250.5 96.5 Q268 115 268 156 L268 702 L357 702 L357 156 Q357 72 308 29 Q287 10 258 -0.5 Q229 -11 196 -11 Z M226 782 Q226 764 238.5 751.5 Q251 739 269 739 Q287 739 299.5 751.5 Q312 764 312 782 Q312 800 299.5 812.5 Q287 825 269 825 Q251 825 238.5 812.5 Q226 800 226 782 Z M222 782 Q222 802 236 815.5 Q250 829 269 829 Q289 829 302.5 815.5 Q316 802 316 782 Q316 763 302.5 749 Q289 735 269 735 Q250 735 236 749 Q222 763 222 782 Z M82 782 Q82 764 94.5 751.5 Q107 739 125 739 Q143 739 155.5 751.5 Q168 764 168 782 Q168 800 155.5 812.5 Q143 825 125 825 Q107 825 94.5 812.5 Q82 800 82 782 Z M78 782 Q78 802 92 815.5 Q106 829 125 829 Q145 829 158.5 815.5 Q172 802 172 782 Q172 763 158.5 749 Q145 735 125 735 Q106 735 92 749 Q78 763 78 782 Z M347 867 L347 908 L47 908 L47 867 L347 867 Z M351 863 L43 863 L43 912 L351 912 L351 863 Z " />
<glyph glyph-name="uni1EE4" unicode="&#x1ee4;" horiz-adv-x="393" d="M197 -7 Q263 -7 306 31 Q353 73 353 156 L353 698 L272 698 L272 156 Q272 114 253.5 94 Q235 74 197 74 Q158 74 139.5 93.5 Q121 113 121 156 L121 698 L40 698 L40 156 Q40 73 87 31 Q130 -7 197 -7 Z M197 -11 Q164 -11 135 -0.5 Q106 10 85 29 Q36 72 36 156 L36 702 L125 702 L125 156 Q125 115 142.5 96.5 Q160 78 197 78 Q234 78 251 97 Q268 116 268 156 L268 702 L357 702 L357 156 Q357 72 308 29 Q287 10 258 -0.5 Q229 -11 197 -11 Z M197 -42 Q179 -42 166.5 -54.5 Q154 -67 154 -85 Q154 -103 166.5 -115.5 Q179 -128 197 -128 Q215 -128 227.5 -115.5 Q240 -103 240 -85 Q240 -67 227.5 -54.5 Q215 -42 197 -42 Z M197 -38 Q217 -38 230.5 -52 Q244 -66 244 -85 Q244 -105 230.5 -118.5 Q217 -132 197 -132 Q178 -132 164 -118.5 Q150 -105 150 -85 Q150 -66 164 -52 Q178 -38 197 -38 Z " />
<glyph glyph-name="Ugrave" unicode="&#xd9;" horiz-adv-x="393" d="M197 -7 Q263 -7 306 31 Q353 73 353 156 L353 698 L272 698 L272 156 Q272 114 253.5 94 Q235 74 197 74 Q158 74 139.5 93.5 Q121 113 121 156 L121 698 L40 698 L40 156 Q40 73 87 31 Q130 -7 197 -7 Z M197 -11 Q164 -11 135 -0.5 Q106 10 85 29 Q36 72 36 156 L36 702 L125 702 L125 156 Q125 115 142.5 96.5 Q160 78 197 78 Q234 78 251 97 Q268 116 268 156 L268 702 L357 702 L357 156 Q357 72 308 29 Q287 10 258 -0.5 Q229 -11 197 -11 Z M171 739 L222 739 L222 735 L171 735 L171 739 Z M171 739 L222 739 L222 735 L171 735 L171 739 Z M153 839 L74 839 L172 739 L218 739 L153 839 Z M155 843 L226 735 L170 735 L64 843 L155 843 Z " />
<glyph glyph-name="uni1EE6" unicode="&#x1ee6;" horiz-adv-x="393" d="M197 -7 Q263 -7 306 31 Q353 73 353 156 L353 698 L272 698 L272 156 Q272 114 253.5 94 Q235 74 197 74 Q158 74 139.5 93.5 Q121 113 121 156 L121 698 L40 698 L40 156 Q40 73 87 31 Q130 -7 197 -7 Z M197 -11 Q164 -11 135 -0.5 Q106 10 85 29 Q36 72 36 156 L36 702 L125 702 L125 156 Q125 115 142.5 96.5 Q160 78 197 78 Q234 78 251 97 Q268 116 268 156 L268 702 L357 702 L357 156 Q357 72 308 29 Q287 10 258 -0.5 Q229 -11 197 -11 Z M171 739 L222 739 L222 735 L171 735 L171 739 Z M171 739 L222 739 L222 735 L171 735 L171 739 Z M117 840 Q160 840 190.5 809 Q221 778 220 735 L173 735 Q174 759 157 776 Q140 793 116 793 L76 832 Q95 840 117 840 Z M117 836 Q95 836 81 829 L81 832 L118 797 Q142 797 159 780 Q176 763 177 739 L216 739 Q215 779 186 807.5 Q157 836 117 836 Z " />
<glyph glyph-name="Uhorn" unicode="&#x1af;" horiz-adv-x="440" d="M462 722 Q463 694 443.5 674.5 Q424 655 397 655 L357 655 L357 156 Q357 72 308 29 Q287 10 258 -0.5 Q229 -11 197 -11 Q164 -11 135 -0.5 Q106 10 85 29 Q36 72 36 156 L36 702 L125 702 L125 156 Q125 115 142.5 96.5 Q160 78 197 78 Q234 78 251 97 Q268 116 268 156 L268 702 L397 702 Q405 702 410.5 708 Q416 714 415 722 L462 722 Z M419 718 Q418 710 412 704 Q406 698 397 698 L272 698 L272 156 Q272 114 253.5 94 Q235 74 197 74 Q158 74 139.5 93.5 Q121 113 121 156 L121 698 L40 698 L40 156 Q40 73 87 31 Q130 -7 197 -7 Q263 -7 306 31 Q353 73 353 156 L353 659 L397 659 Q422 659 439.5 676 Q457 693 458 718 L419 718 Z " />
<glyph glyph-name="uni1EE8" unicode="&#x1ee8;" horiz-adv-x="440" d="M462 722 Q463 694 443.5 674.5 Q424 655 397 655 L357 655 L357 156 Q357 72 308 29 Q287 10 258 -0.5 Q229 -11 197 -11 Q164 -11 135 -0.5 Q106 10 85 29 Q36 72 36 156 L36 702 L125 702 L125 156 Q125 115 142.5 96.5 Q160 78 197 78 Q234 78 251 97 Q268 116 268 156 L268 702 L397 702 Q405 702 410.5 708 Q416 714 415 722 L462 722 Z M419 718 Q418 710 412 704 Q406 698 397 698 L272 698 L272 156 Q272 114 253.5 94 Q235 74 197 74 Q158 74 139.5 93.5 Q121 113 121 156 L121 698 L40 698 L40 156 Q40 73 87 31 Q130 -7 197 -7 Q263 -7 306 31 Q353 73 353 156 L353 659 L397 659 Q422 659 439.5 676 Q457 693 458 718 L419 718 Z M240 839 L175 739 L221 739 L319 839 L240 839 Z M238 843 L329 843 L223 735 L167 735 L238 843 Z " />
<glyph glyph-name="uni1EF0" unicode="&#x1ef0;" horiz-adv-x="440" d="M462 722 Q463 694 443.5 674.5 Q424 655 397 655 L357 655 L357 156 Q357 72 308 29 Q287 10 258 -0.5 Q229 -11 197 -11 Q164 -11 135 -0.5 Q106 10 85 29 Q36 72 36 156 L36 702 L125 702 L125 156 Q125 115 142.5 96.5 Q160 78 197 78 Q234 78 251 97 Q268 116 268 156 L268 702 L397 702 Q405 702 410.5 708 Q416 714 415 722 L462 722 Z M419 718 Q418 710 412 704 Q406 698 397 698 L272 698 L272 156 Q272 114 253.5 94 Q235 74 197 74 Q158 74 139.5 93.5 Q121 113 121 156 L121 698 L40 698 L40 156 Q40 73 87 31 Q130 -7 197 -7 Q263 -7 306 31 Q353 73 353 156 L353 659 L397 659 Q422 659 439.5 676 Q457 693 458 718 L419 718 Z M197 -42 Q179 -42 166.5 -54.5 Q154 -67 154 -85 Q154 -103 166.5 -115.5 Q179 -128 197 -128 Q215 -128 227.5 -115.5 Q240 -103 240 -85 Q240 -67 227.5 -54.5 Q215 -42 197 -42 Z M197 -38 Q217 -38 230.5 -52 Q244 -66 244 -85 Q244 -105 230.5 -118.5 Q217 -132 197 -132 Q178 -132 164 -118.5 Q150 -105 150 -85 Q150 -66 164 -52 Q178 -38 197 -38 Z " />
<glyph glyph-name="uni1EEA" unicode="&#x1eea;" horiz-adv-x="440" d="M462 722 Q463 694 443.5 674.5 Q424 655 397 655 L357 655 L357 156 Q357 72 308 29 Q287 10 258 -0.5 Q229 -11 197 -11 Q164 -11 135 -0.5 Q106 10 85 29 Q36 72 36 156 L36 702 L125 702 L125 156 Q125 115 142.5 96.5 Q160 78 197 78 Q234 78 251 97 Q268 116 268 156 L268 702 L397 702 Q405 702 410.5 708 Q416 714 415 722 L462 722 Z M419 718 Q418 710 412 704 Q406 698 397 698 L272 698 L272 156 Q272 114 253.5 94 Q235 74 197 74 Q158 74 139.5 93.5 Q121 113 121 156 L121 698 L40 698 L40 156 Q40 73 87 31 Q130 -7 197 -7 Q263 -7 306 31 Q353 73 353 156 L353 659 L397 659 Q422 659 439.5 676 Q457 693 458 718 L419 718 Z M153 839 L74 839 L172 739 L218 739 L153 839 Z M155 843 L226 735 L170 735 L64 843 L155 843 Z " />
<glyph glyph-name="uni1EEC" unicode="&#x1eec;" horiz-adv-x="440" d="M462 722 Q463 694 443.5 674.5 Q424 655 397 655 L357 655 L357 156 Q357 72 308 29 Q287 10 258 -0.5 Q229 -11 197 -11 Q164 -11 135 -0.5 Q106 10 85 29 Q36 72 36 156 L36 702 L125 702 L125 156 Q125 115 142.5 96.5 Q160 78 197 78 Q234 78 251 97 Q268 116 268 156 L268 702 L397 702 Q405 702 410.5 708 Q416 714 415 722 L462 722 Z M419 718 Q418 710 412 704 Q406 698 397 698 L272 698 L272 156 Q272 114 253.5 94 Q235 74 197 74 Q158 74 139.5 93.5 Q121 113 121 156 L121 698 L40 698 L40 156 Q40 73 87 31 Q130 -7 197 -7 Q263 -7 306 31 Q353 73 353 156 L353 659 L397 659 Q422 659 439.5 676 Q457 693 458 718 L419 718 Z M117 840 Q160 840 190.5 809 Q221 778 220 735 L173 735 Q174 759 157 776 Q140 793 116 793 L76 832 Q95 840 117 840 Z M117 836 Q95 836 81 829 L81 832 L118 797 Q142 797 159 780 Q176 763 177 739 L216 739 Q215 779 186 807.5 Q157 836 117 836 Z " />
<glyph glyph-name="uni1EEE" unicode="&#x1eee;" horiz-adv-x="440" d="M462 722 Q463 694 443.5 674.5 Q424 655 397 655 L357 655 L357 156 Q357 72 308 29 Q287 10 258 -0.5 Q229 -11 197 -11 Q164 -11 135 -0.5 Q106 10 85 29 Q36 72 36 156 L36 702 L125 702 L125 156 Q125 115 142.5 96.5 Q160 78 197 78 Q234 78 251 97 Q268 116 268 156 L268 702 L397 702 Q405 702 410.5 708 Q416 714 415 722 L462 722 Z M419 718 Q418 710 412 704 Q406 698 397 698 L272 698 L272 156 Q272 114 253.5 94 Q235 74 197 74 Q158 74 139.5 93.5 Q121 113 121 156 L121 698 L40 698 L40 156 Q40 73 87 31 Q130 -7 197 -7 Q263 -7 306 31 Q353 73 353 156 L353 659 L397 659 Q422 659 439.5 676 Q457 693 458 718 L419 718 Z M102 738 Q129 768 151 768 Q167 768 190 755 Q219 737 245 737 Q286 737 323 783 L292 806 Q272 781 252 777 Q233 774 210 788 Q176 808 150 808 Q109 808 72 762 L102 738 Z M66 762 Q106 812 150 812 Q178 812 212 792 Q234 778 252 781 Q271 786 292 812 L329 783 Q291 733 245 733 Q218 733 188 751 Q165 764 150 764 Q129 764 102 732 L66 762 Z " />
<glyph glyph-name="Uhungarumlaut" unicode="&#x170;" horiz-adv-x="393" d="M197 -7 Q263 -7 306 31 Q353 73 353 156 L353 698 L272 698 L272 156 Q272 114 253.5 94 Q235 74 197 74 Q158 74 139.5 93.5 Q121 113 121 156 L121 698 L40 698 L40 156 Q40 73 87 31 Q130 -7 197 -7 Z M197 -11 Q164 -11 135 -0.5 Q106 10 85 29 Q36 72 36 156 L36 702 L125 702 L125 156 Q125 115 142.5 96.5 Q160 78 197 78 Q234 78 251 97 Q268 116 268 156 L268 702 L357 702 L357 156 Q357 72 308 29 Q287 10 258 -0.5 Q229 -11 197 -11 Z M172 840 L108 739 L153 739 L252 840 L172 840 Z M170 844 L262 844 L155 735 L100 735 L170 844 Z M307 840 L243 739 L288 739 L387 840 L307 840 Z M305 844 L397 844 L290 735 L235 735 L305 844 Z " />
<glyph glyph-name="Umacron" unicode="&#x16a;" horiz-adv-x="393" d="M197 -7 Q263 -7 306 31 Q353 73 353 156 L353 698 L272 698 L272 156 Q272 114 253.5 94 Q235 74 197 74 Q158 74 139.5 93.5 Q121 113 121 156 L121 698 L40 698 L40 156 Q40 73 87 31 Q130 -7 197 -7 Z M197 -11 Q164 -11 135 -0.5 Q106 10 85 29 Q36 72 36 156 L36 702 L125 702 L125 156 Q125 115 142.5 96.5 Q160 78 197 78 Q234 78 251 97 Q268 116 268 156 L268 702 L357 702 L357 156 Q357 72 308 29 Q287 10 258 -0.5 Q229 -11 197 -11 Z M347 739 L347 780 L47 780 L47 739 L347 739 Z M351 735 L43 735 L43 784 L351 784 L351 735 Z " />
<glyph glyph-name="Uogonek" unicode="&#x172;" horiz-adv-x="393" d="M357 702 L357 156 Q357 72 308 29 Q282 4 268 -15.5 Q254 -35 254 -55 Q254 -68 266.5 -73.5 Q279 -79 292 -79 L301 -79 L303 -81 L303 -128 L282 -128 Q240 -128 217 -114 Q194 -100 194 -73 Q194 -47 228 -5 L230 -8 Q215 -11 197 -11 Q164 -11 135 -0.5 Q106 10 85 29 Q36 72 36 156 L36 702 L125 702 L125 156 Q125 115 142.5 96.5 Q160 78 197 78 Q234 78 251 97 Q268 116 268 156 L268 702 L357 702 Z M272 156 Q272 114 253.5 94 Q235 74 197 74 Q158 74 139.5 93.5 Q121 113 121 156 L121 698 L40 698 L40 156 Q40 73 87 31 Q130 -7 197 -7 Q214 -7 230 -4 L232 -7 Q198 -49 198 -73 Q198 -98 220 -111 Q242 -124 282 -124 L299 -124 L299 -83 L292 -83 Q278 -83 264 -77 Q250 -71 250 -55 Q250 -34 264.5 -14.5 Q279 5 306 31 Q353 73 353 156 L353 698 L272 698 L272 156 Z " />
<glyph glyph-name="Uring" unicode="&#x16e;" horiz-adv-x="393" d="M197 -7 Q263 -7 306 31 Q353 73 353 156 L353 698 L272 698 L272 156 Q272 114 253.5 94 Q235 74 197 74 Q158 74 139.5 93.5 Q121 113 121 156 L121 698 L40 698 L40 156 Q40 73 87 31 Q130 -7 197 -7 Z M197 -11 Q164 -11 135 -0.5 Q106 10 85 29 Q36 72 36 156 L36 702 L125 702 L125 156 Q125 115 142.5 96.5 Q160 78 197 78 Q234 78 251 97 Q268 116 268 156 L268 702 L357 702 L357 156 Q357 72 308 29 Q287 10 258 -0.5 Q229 -11 197 -11 Z M197 742 Q223 742 240.5 760 Q258 778 258 803 Q258 829 240 847 Q222 865 197 865 Q172 865 153.5 847 Q135 829 135 803 Q135 778 153 760 Q171 742 197 742 Z M197 738 Q170 738 150.5 757 Q131 776 131 803 Q131 830 150.5 849.5 Q170 869 197 869 Q224 869 243 849.5 Q262 830 262 803 Q262 776 243 757 Q224 738 197 738 Z M197 826 Q206 826 212.5 819.5 Q219 813 219 803 Q219 794 212.5 787.5 Q206 781 197 781 Q188 781 181 787.5 Q174 794 174 803 Q174 813 181 819.5 Q188 826 197 826 Z M197 822 Q189 822 183.5 816.5 Q178 811 178 803 Q178 796 183.5 790.5 Q189 785 197 785 Q205 785 210 790.5 Q215 796 215 803 Q215 811 209.5 816.5 Q204 822 197 822 Z " />
<glyph glyph-name="Utilde" unicode="&#x168;" horiz-adv-x="393" d="M197 -7 Q263 -7 306 31 Q353 73 353 156 L353 698 L272 698 L272 156 Q272 114 253.5 94 Q235 74 197 74 Q158 74 139.5 93.5 Q121 113 121 156 L121 698 L40 698 L40 156 Q40 73 87 31 Q130 -7 197 -7 Z M197 -11 Q164 -11 135 -0.5 Q106 10 85 29 Q36 72 36 156 L36 702 L125 702 L125 156 Q125 115 142.5 96.5 Q160 78 197 78 Q234 78 251 97 Q268 116 268 156 L268 702 L357 702 L357 156 Q357 72 308 29 Q287 10 258 -0.5 Q229 -11 197 -11 Z M101 738 Q128 768 150 768 Q166 768 189 755 Q217 737 244 737 Q285 737 322 783 L291 806 Q271 781 251 777 Q232 774 209 788 Q175 808 149 808 Q108 808 71 762 L101 738 Z M65 762 Q105 812 149 812 Q177 812 211 792 Q233 778 251 781 Q270 786 291 812 L328 783 Q290 733 244 733 Q217 733 187 751 Q164 764 149 764 Q128 764 101 732 L65 762 Z " />
<glyph glyph-name="V" unicode="V" horiz-adv-x="403" d="M300 702 L391 702 L245 -2 L158 -2 L12 702 L103 702 L202 180 L300 702 Z M304 698 L202 158 L99 698 L16 698 L162 2 L241 2 L387 698 L304 698 Z " />
<glyph glyph-name="uni0245" unicode="&#x245;" horiz-adv-x="403" d="M300 -2 L202 520 L103 -2 L12 -2 L158 702 L245 702 L391 -2 L300 -2 Z M304 2 L387 2 L241 698 L162 698 L16 2 L99 2 L202 542 L304 2 Z " />
<glyph glyph-name="W" unicode="W" horiz-adv-x="500" d="M250 374 L141 -2 L102 -2 L16 702 L106 702 L151 315 L230 592 L271 592 L350 315 L395 702 L484 702 L399 -2 L360 -2 L250 374 Z M250 388 L363 2 L395 2 L480 698 L399 698 L352 295 L267 588 L234 588 L149 295 L102 698 L20 698 L106 2 L138 2 L250 388 Z " />
<glyph glyph-name="Wacute" unicode="&#x1e82;" horiz-adv-x="500" d="M250 374 L141 -2 L102 -2 L16 702 L106 702 L151 315 L230 592 L271 592 L350 315 L395 702 L484 702 L399 -2 L360 -2 L250 374 Z M250 388 L363 2 L395 2 L480 698 L399 698 L352 295 L267 588 L234 588 L149 295 L102 698 L20 698 L106 2 L138 2 L250 388 Z M294 839 L229 739 L275 739 L373 839 L294 839 Z M292 843 L383 843 L277 735 L221 735 L292 843 Z " />
<glyph glyph-name="Wcircumflex" unicode="&#x174;" horiz-adv-x="500" d="M250 374 L141 -2 L102 -2 L16 702 L106 702 L151 315 L230 592 L271 592 L350 315 L395 702 L484 702 L399 -2 L360 -2 L250 374 Z M250 388 L363 2 L395 2 L480 698 L399 698 L352 295 L267 588 L234 588 L149 295 L102 698 L20 698 L106 2 L138 2 L250 388 Z M364 735 L309 735 L250 791 L191 735 L135 735 L206 842 L293 842 L364 735 Z M356 739 L291 838 L208 838 L143 739 L189 739 L250 797 L311 739 L356 739 Z " />
<glyph glyph-name="Wdieresis" unicode="&#x1e84;" horiz-adv-x="500" d="M250 374 L141 -2 L102 -2 L16 702 L106 702 L151 315 L230 592 L271 592 L350 315 L395 702 L484 702 L399 -2 L360 -2 L250 374 Z M250 388 L363 2 L395 2 L480 698 L399 698 L352 295 L267 588 L234 588 L149 295 L102 698 L20 698 L106 2 L138 2 L250 388 Z M221 782 Q221 800 208.5 812.5 Q196 825 178 825 Q160 825 147.5 812.5 Q135 800 135 782 Q135 764 147.5 751.5 Q160 739 178 739 Q196 739 208.5 751.5 Q221 764 221 782 Z M225 782 Q225 763 211.5 749 Q198 735 178 735 Q159 735 145 749 Q131 763 131 782 Q131 802 145 815.5 Q159 829 178 829 Q198 829 211.5 815.5 Q225 802 225 782 Z M365 782 Q365 800 352.5 812.5 Q340 825 322 825 Q304 825 291.5 812.5 Q279 800 279 782 Q279 764 291.5 751.5 Q304 739 322 739 Q340 739 352.5 751.5 Q365 764 365 782 Z M369 782 Q369 763 355.5 749 Q342 735 322 735 Q303 735 289 749 Q275 763 275 782 Q275 802 289 815.5 Q303 829 322 829 Q342 829 355.5 815.5 Q369 802 369 782 Z " />
<glyph glyph-name="Wgrave" unicode="&#x1e80;" horiz-adv-x="500" d="M250 374 L141 -2 L102 -2 L16 702 L106 702 L151 315 L230 592 L271 592 L350 315 L395 702 L484 702 L399 -2 L360 -2 L250 374 Z M250 388 L363 2 L395 2 L480 698 L399 698 L352 295 L267 588 L234 588 L149 295 L102 698 L20 698 L106 2 L138 2 L250 388 Z M207 839 L128 839 L226 739 L272 739 L207 839 Z M209 843 L280 735 L224 735 L118 843 L209 843 Z " />
<glyph glyph-name="uni2C72" unicode="&#x2c72;" horiz-adv-x="562" d="M519 702 Q547 702 566 682.5 Q585 663 584 635 L537 635 L537 637 Q537 644 531.5 649.5 Q526 655 519 655 L479 655 L399 -2 L360 -2 L250 374 L141 -2 L102 -2 L16 702 L106 702 L151 315 L230 592 L271 592 L350 315 L395 702 L519 702 Z M399 698 L352 295 L267 588 L234 588 L149 295 L102 698 L20 698 L106 2 L138 2 L250 388 L363 2 L395 2 L475 659 L519 659 Q527 659 533.5 653 Q540 647 541 639 L580 639 Q579 664 561.5 681 Q544 698 519 698 L399 698 Z " />
<glyph glyph-name="X" unicode="X" horiz-adv-x="408" d="M257 349 L393 -2 L298 -2 L204 238 L110 -2 L15 -2 L152 349 L16 702 L111 702 L204 460 L298 702 L393 702 L257 349 Z M253 349 L387 698 L300 698 L204 448 L109 698 L22 698 L156 349 L21 2 L108 2 L204 250 L300 2 L387 2 L253 349 Z " />
<glyph glyph-name="Y" unicode="Y" horiz-adv-x="380" d="M191 401 L284 702 L376 702 L235 242 L235 243 L235 -2 L146 -2 L146 243 L146 242 L5 702 L98 702 L191 401 Z M191 387 L96 698 L11 698 L150 244 L150 243 L150 2 L231 2 L231 243 L231 244 L370 698 L286 698 L191 387 Z " />
<glyph glyph-name="Yacute" unicode="&#xdd;" horiz-adv-x="380" d="M191 401 L284 702 L376 702 L235 242 L235 243 L235 -2 L146 -2 L146 243 L146 242 L5 702 L98 702 L191 401 Z M191 387 L96 698 L11 698 L150 244 L150 243 L150 2 L231 2 L231 243 L231 244 L370 698 L286 698 L191 387 Z M234 839 L169 739 L215 739 L313 839 L234 839 Z M232 843 L323 843 L217 735 L161 735 L232 843 Z " />
<glyph glyph-name="Ycircumflex" unicode="&#x176;" horiz-adv-x="380" d="M191 401 L284 702 L376 702 L235 242 L235 243 L235 -2 L146 -2 L146 243 L146 242 L5 702 L98 702 L191 401 Z M191 387 L96 698 L11 698 L150 244 L150 243 L150 2 L231 2 L231 243 L231 244 L370 698 L286 698 L191 387 Z M305 735 L250 735 L191 791 L132 735 L76 735 L147 842 L234 842 L305 735 Z M297 739 L232 838 L149 838 L84 739 L130 739 L191 797 L252 739 L297 739 Z " />
<glyph glyph-name="Ydieresis" unicode="&#x178;" horiz-adv-x="380" d="M162 782 Q162 800 149.5 812.5 Q137 825 119 825 Q101 825 88.5 812.5 Q76 800 76 782 Q76 764 88.5 751.5 Q101 739 119 739 Q137 739 149.5 751.5 Q162 764 162 782 Z M166 782 Q166 763 152.5 749 Q139 735 119 735 Q100 735 86 749 Q72 763 72 782 Q72 802 86 815.5 Q100 829 119 829 Q139 829 152.5 815.5 Q166 802 166 782 Z M306 782 Q306 800 293.5 812.5 Q281 825 263 825 Q245 825 232.5 812.5 Q220 800 220 782 Q220 764 232.5 751.5 Q245 739 263 739 Q281 739 293.5 751.5 Q306 764 306 782 Z M310 782 Q310 763 296.5 749 Q283 735 263 735 Q244 735 230 749 Q216 763 216 782 Q216 802 230 815.5 Q244 829 263 829 Q283 829 296.5 815.5 Q310 802 310 782 Z M191 401 L284 702 L376 702 L235 242 L235 243 L235 -2 L146 -2 L146 243 L146 242 L5 702 L98 702 L191 401 Z M191 387 L96 698 L11 698 L150 244 L150 243 L150 2 L231 2 L231 243 L231 244 L370 698 L286 698 L191 387 Z " />
<glyph glyph-name="uni1EF4" unicode="&#x1ef4;" horiz-adv-x="380" d="M190 -42 Q172 -42 159.5 -54.5 Q147 -67 147 -85 Q147 -103 159.5 -115.5 Q172 -128 190 -128 Q208 -128 220.5 -115.5 Q233 -103 233 -85 Q233 -67 220.5 -54.5 Q208 -42 190 -42 Z M190 -38 Q210 -38 223.5 -52 Q237 -66 237 -85 Q237 -105 223.5 -118.5 Q210 -132 190 -132 Q171 -132 157 -118.5 Q143 -105 143 -85 Q143 -66 157 -52 Q171 -38 190 -38 Z M190 401 L283 702 L376 702 L235 242 L235 243 L235 -2 L146 -2 L146 243 L146 242 L5 702 L97 702 L190 401 Z M190 387 L95 698 L11 698 L150 244 L150 243 L150 2 L231 2 L231 243 L231 244 L370 698 L285 698 L190 387 Z " />
<glyph glyph-name="Ygrave" unicode="&#x1ef2;" horiz-adv-x="380" d="M190 401 L283 702 L376 702 L235 242 L235 243 L235 -2 L146 -2 L146 243 L146 242 L5 702 L97 702 L190 401 Z M190 387 L95 698 L11 698 L150 244 L150 243 L150 2 L231 2 L231 243 L231 244 L370 698 L285 698 L190 387 Z M147 839 L68 839 L166 739 L212 739 L147 839 Z M149 843 L220 735 L164 735 L58 843 L149 843 Z " />
<glyph glyph-name="uni01B3" unicode="&#x1b3;" horiz-adv-x="445" d="M402 702 Q430 702 449 682.5 Q468 663 467 635 L420 635 L420 637 Q420 644 414.5 649.5 Q409 655 402 655 L361 655 L235 242 L235 243 L235 -2 L146 -2 L146 243 L146 242 L5 702 L98 702 L191 401 L284 702 L402 702 Z M286 698 L191 387 L96 698 L11 698 L150 244 L150 243 L150 2 L231 2 L231 243 L231 244 L359 659 L402 659 Q410 659 416.5 653 Q423 647 424 639 L463 639 Q462 664 444.5 681 Q427 698 402 698 L286 698 Z " />
<glyph glyph-name="uni1EF6" unicode="&#x1ef6;" horiz-adv-x="380" d="M190 401 L283 702 L376 702 L235 242 L235 243 L235 -2 L146 -2 L146 243 L146 242 L5 702 L97 702 L190 401 Z M190 387 L95 698 L11 698 L150 244 L150 243 L150 2 L231 2 L231 243 L231 244 L370 698 L285 698 L190 387 Z M111 840 Q154 840 184.5 809 Q215 778 214 735 L167 735 Q168 759 151 776 Q134 793 110 793 L70 832 Q89 840 111 840 Z M111 836 Q89 836 75 829 L75 832 L112 797 Q136 797 153 780 Q170 763 171 739 L210 739 Q209 779 180 807.5 Q151 836 111 836 Z " />
<glyph glyph-name="uni1EF8" unicode="&#x1ef8;" horiz-adv-x="380" d="M190 401 L283 702 L376 702 L235 242 L235 243 L235 -2 L146 -2 L146 243 L146 242 L5 702 L97 702 L190 401 Z M190 387 L95 698 L11 698 L150 244 L150 243 L150 2 L231 2 L231 243 L231 244 L370 698 L285 698 L190 387 Z M95 740 Q122 770 144 770 Q160 770 183 757 Q212 739 238 739 Q279 739 316 785 L285 808 Q265 783 245 779 Q226 776 203 790 Q169 810 143 810 Q102 810 65 764 L95 740 Z M59 764 Q99 814 143 814 Q171 814 205 794 Q227 780 245 783 Q264 788 285 814 L322 785 Q284 735 238 735 Q211 735 181 753 Q158 766 143 766 Q122 766 95 734 L59 764 Z " />
<glyph glyph-name="Z" unicode="Z" horiz-adv-x="375" d="M346 2 L346 83 L142 83 L344 698 L29 698 L29 617 L233 617 L31 2 L346 2 Z M350 -2 L25 -2 L227 613 L25 613 L25 702 L350 702 L148 87 L350 87 L350 -2 Z " />
<glyph glyph-name="Zacute" unicode="&#x179;" horiz-adv-x="375" d="M346 2 L346 83 L142 83 L344 698 L29 698 L29 617 L233 617 L31 2 L346 2 Z M350 -2 L25 -2 L227 613 L25 613 L25 702 L350 702 L148 87 L350 87 L350 -2 Z M230 839 L165 739 L211 739 L309 839 L230 839 Z M228 843 L319 843 L213 735 L157 735 L228 843 Z " />
<glyph glyph-name="Zcaron" unicode="&#x17d;" horiz-adv-x="375" d="M346 2 L346 83 L142 83 L344 698 L29 698 L29 617 L233 617 L31 2 L346 2 Z M350 -2 L25 -2 L227 613 L25 613 L25 702 L350 702 L148 87 L350 87 L350 -2 Z M301 842 L230 735 L143 735 L72 842 L128 842 L187 786 L246 842 L301 842 Z M293 838 L248 838 L187 780 L126 838 L80 838 L145 739 L228 739 L293 838 Z " />
<glyph glyph-name="Zdotaccent" unicode="&#x17b;" horiz-adv-x="375" d="M346 2 L346 83 L142 83 L344 698 L29 698 L29 617 L233 617 L31 2 L346 2 Z M350 -2 L25 -2 L227 613 L25 613 L25 702 L350 702 L148 87 L350 87 L350 -2 Z M230 782 Q230 800 217.5 812.5 Q205 825 187 825 Q169 825 156.5 812.5 Q144 800 144 782 Q144 764 156.5 751.5 Q169 739 187 739 Q205 739 217.5 751.5 Q230 764 230 782 Z M234 782 Q234 763 220.5 749 Q207 735 187 735 Q168 735 154 749 Q140 763 140 782 Q140 802 154 815.5 Q168 829 187 829 Q207 829 220.5 815.5 Q234 802 234 782 Z " />
<glyph glyph-name="uni1E92" unicode="&#x1e92;" horiz-adv-x="375" d="M346 2 L346 83 L142 83 L344 698 L29 698 L29 617 L233 617 L31 2 L346 2 Z M350 -2 L25 -2 L227 613 L25 613 L25 702 L350 702 L148 87 L350 87 L350 -2 Z M230 -85 Q230 -67 217.5 -54.5 Q205 -42 187 -42 Q169 -42 156.5 -54.5 Q144 -67 144 -85 Q144 -103 156.5 -115.5 Q169 -128 187 -128 Q205 -128 217.5 -115.5 Q230 -103 230 -85 Z M234 -85 Q234 -105 220.5 -118.5 Q207 -132 187 -132 Q168 -132 154 -118.5 Q140 -105 140 -85 Q140 -66 154 -52 Q168 -38 187 -38 Q207 -38 220.5 -52 Q234 -66 234 -85 Z " />
<glyph glyph-name="uni0299" unicode="&#x299;" horiz-adv-x="386" d="M199 2 Q265 2 308 39 Q355 80 355 161 L355 177 Q355 267 292 307 Q339 345 339 421 L339 438 Q339 519 292 561 Q251 597 183 597 L42 597 L42 2 L199 2 Z M38 601 L183 601 Q254 601 294 564 Q343 521 343 438 L343 421 Q343 383 332 355 Q321 327 298 307 Q359 265 359 177 L359 161 Q359 78 310 35 Q267 -2 199 -2 L38 -2 L38 601 Z M199 259 Q237 259 255.5 239 Q274 219 274 177 L274 161 Q274 118 254 98 Q235 83 199 83 L123 83 L123 259 L199 259 Z M127 87 L199 87 Q235 87 252 101 Q270 121 270 161 L270 177 Q270 217 253 236 Q236 255 199 255 L127 255 L127 87 Z M123 516 L183 516 Q223 516 240.5 498 Q258 480 258 438 L258 421 Q258 378 240 359 Q222 340 183 340 L123 340 L123 516 Z M183 344 Q220 344 237 362 Q254 380 254 421 L254 438 Q254 478 237.5 495 Q221 512 183 512 L127 512 L127 344 L183 344 Z " />
<glyph glyph-name="uni0262" unicode="&#x262;" horiz-adv-x="385" d="M193 -7 Q259 -7 303 31 Q349 75 349 156 L349 340 L195 340 L195 259 L268 259 L268 156 Q268 114 249.5 94 Q231 74 193 74 Q154 74 135.5 93.5 Q117 113 117 156 L117 444 Q117 487 135.5 506.5 Q154 526 193 526 Q231 526 249.5 506 Q268 486 268 444 L268 432 L349 432 L349 444 Q349 523 303 569 Q259 607 193 607 Q127 607 83 569 Q36 524 36 444 L36 156 Q36 73 83 31 Q127 -7 193 -7 Z M193 -11 Q124 -11 81 29 Q32 72 32 156 L32 444 Q32 526 81 571 Q124 611 193 611 Q262 611 305 571 Q353 525 353 444 L353 428 L264 428 L264 444 Q264 484 247 503 Q230 522 193 522 Q156 522 138.5 503.5 Q121 485 121 444 L121 156 Q121 115 138.5 96.5 Q156 78 193 78 Q230 78 247 97 Q264 116 264 156 L264 255 L191 255 L191 344 L353 344 L353 156 Q353 73 305 29 Q262 -11 193 -11 Z " />
<glyph glyph-name="uni029B" unicode="&#x29b;" horiz-adv-x="385" d="M306 610 Q306 638 325.5 657 Q345 676 373 675 L373 628 L371 628 Q364 628 358.5 622.5 Q353 617 353 610 L353 428 L264 428 L264 444 Q264 484 247 503 Q230 522 193 522 Q156 522 138.5 503.5 Q121 485 121 444 L121 156 Q121 115 138.5 96.5 Q156 78 193 78 Q230 78 247 97 Q264 116 264 156 L264 255 L191 255 L191 344 L353 344 L353 156 Q353 73 305 29 Q262 -11 193 -11 Q124 -11 81 29 Q32 72 32 156 L32 444 Q32 526 81 571 Q124 611 193 611 Q262 611 305 571 Q308 570 309 567 L306 566 L306 610 Z M310 566 L307 565 Q304 566 303 569 Q259 607 193 607 Q127 607 83 569 Q36 524 36 444 L36 156 Q36 73 83 31 Q127 -7 193 -7 Q259 -7 303 31 Q349 75 349 156 L349 340 L195 340 L195 259 L268 259 L268 156 Q268 114 249.5 94 Q231 74 193 74 Q154 74 135.5 93.5 Q117 113 117 156 L117 444 Q117 487 135.5 506.5 Q154 526 193 526 Q231 526 249.5 506 Q268 486 268 444 L268 432 L349 432 L349 610 Q349 618 355 624.5 Q361 631 369 632 L369 671 Q344 670 327 652.5 Q310 635 310 610 L310 566 Z " />
<glyph glyph-name="uni029C" unicode="&#x29c;" horiz-adv-x="396" d="M269 602 L358 602 L358 -2 L269 -2 L269 264 L127 264 L127 -2 L38 -2 L38 602 L127 602 L127 353 L269 353 L269 602 Z M273 598 L273 349 L123 349 L123 598 L42 598 L42 2 L123 2 L123 268 L273 268 L273 2 L354 2 L354 598 L273 598 Z " />
<glyph glyph-name="uni026A" unicode="&#x26a;" horiz-adv-x="165" d="M123 2 L123 598 L42 598 L42 2 L123 2 Z M127 -2 L38 -2 L38 602 L127 602 L127 -2 Z " />
<glyph glyph-name="uni029F" unicode="&#x29f;" horiz-adv-x="332" d="M314 2 L314 83 L123 83 L123 597 L42 597 L42 2 L314 2 Z M318 -2 L38 -2 L38 601 L127 601 L127 87 L318 87 L318 -2 Z " />
<glyph glyph-name="uni0274" unicode="&#x274;" horiz-adv-x="405" d="M126 344 L126 -2 L37 -2 L37 602 L87 602 L279 255 L279 602 L368 602 L368 -2 L318 -2 L126 344 Z M122 360 L320 2 L364 2 L364 598 L283 598 L283 239 L85 598 L41 598 L41 2 L122 2 L122 360 Z " />
<glyph glyph-name="uni0276" unicode="&#x276;" horiz-adv-x="528" d="M308 513 L308 354 L441 354 L441 265 L308 265 L308 87 L499 87 L499 -2 L192 -2 Q123 -2 80 38 Q32 85 32 165 L32 435 Q32 519 80 562 Q123 602 192 602 L499 602 L499 513 L308 513 Z M495 598 L192 598 Q126 598 82 560 Q36 516 36 435 L36 165 Q36 86 82 40 Q126 2 192 2 L495 2 L495 83 L304 83 L304 269 L437 269 L437 350 L304 350 L304 517 L495 517 L495 598 Z M121 165 Q121 124 138 105.5 Q155 87 192 87 L219 87 L219 513 L192 513 Q155 513 138 494.5 Q121 476 121 435 L121 165 Z M117 435 Q117 478 135.5 497.5 Q154 517 192 517 L223 517 L223 83 L192 83 Q154 83 135.5 102.5 Q117 122 117 165 L117 435 Z " />
<glyph glyph-name="uni0280" unicode="&#x280;" horiz-adv-x="384" d="M359 -2 L266 -2 L171 240 L127 240 L127 -2 L38 -2 L38 602 L198 602 Q267 602 310 562 Q358 519 358 435 L358 406 Q358 324 310 280 Q292 262 261 250 L359 -2 Z M255 252 Q284 261 308 282 Q354 326 354 406 L354 435 Q354 516 308 560 Q264 598 198 598 L42 598 L42 2 L123 2 L123 244 L173 244 L268 2 L353 2 L255 252 Z M198 329 Q235 329 252 347 Q269 365 269 406 L269 435 Q269 476 252 494.5 Q235 513 198 513 L127 513 L127 329 L198 329 Z M123 325 L123 517 L198 517 Q236 517 254.5 497.5 Q273 478 273 435 L273 406 Q273 363 255 344 Q237 325 198 325 L123 325 Z " />
<glyph glyph-name="uni0281" unicode="&#x281;" horiz-adv-x="384" d="M261 350 Q292 338 310 320 Q358 277 358 194 L358 165 Q358 82 310 38 Q267 -2 198 -2 L38 -2 L38 602 L127 602 L127 360 L171 360 L266 602 L359 602 L261 350 Z M353 598 L268 598 L173 356 L123 356 L123 598 L42 598 L42 2 L198 2 Q264 2 308 40 Q354 84 354 165 L354 194 Q354 274 308 318 Q284 339 255 348 L353 598 Z M127 271 L127 87 L198 87 Q235 87 252 105.5 Q269 124 269 165 L269 194 Q269 235 252 253 Q235 271 198 271 L127 271 Z M198 275 Q237 275 255 256 Q273 237 273 194 L273 165 Q273 122 254.5 102.5 Q236 83 198 83 L123 83 L123 275 L198 275 Z " />
<glyph glyph-name="uni028F" unicode="&#x28f;" horiz-adv-x="380" d="M191 350 L284 602 L376 602 L235 192 L235 193 L235 -2 L146 -2 L146 193 L146 192 L5 602 L98 602 L191 350 Z M191 338 L96 598 L11 598 L150 194 L150 193 L150 2 L231 2 L231 193 L231 194 L370 598 L286 598 L191 338 Z " />
<glyph glyph-name="a" unicode="a" horiz-adv-x="408" d="M302 -2 L275 143 L133 143 L105 -2 L14 -2 L161 702 L247 702 L393 -2 L302 -2 Z M306 2 L389 2 L243 698 L165 698 L18 2 L101 2 L129 147 L279 147 L306 2 Z M149 232 L259 232 L204 520 L149 232 Z M145 228 L204 542 L263 228 L145 228 Z " />
<glyph glyph-name="aacute" unicode="&#xe1;" horiz-adv-x="408" d="M302 -2 L275 143 L133 143 L105 -2 L14 -2 L161 702 L247 702 L393 -2 L302 -2 Z M306 2 L389 2 L243 698 L165 698 L18 2 L101 2 L129 147 L279 147 L306 2 Z M149 232 L259 232 L204 520 L149 232 Z M145 228 L204 542 L263 228 L145 228 Z M247 840 L183 739 L228 739 L327 840 L247 840 Z M245 844 L337 844 L230 735 L175 735 L245 844 Z " />
<glyph glyph-name="abreve" unicode="&#x103;" horiz-adv-x="408" d="M302 -2 L275 143 L133 143 L105 -2 L14 -2 L161 702 L247 702 L393 -2 L302 -2 Z M306 2 L389 2 L243 698 L165 698 L18 2 L101 2 L129 147 L279 147 L306 2 Z M149 232 L259 232 L204 520 L149 232 Z M145 228 L204 542 L263 228 L145 228 Z M307 840 Q308 797 277.5 766 Q247 735 204 735 Q161 735 130.5 766 Q100 797 101 840 L148 840 Q147 816 164 799 Q181 782 204 782 Q228 782 244.5 799.5 Q261 817 260 840 L307 840 Z M264 836 Q263 812 246 795 Q229 778 204 778 Q180 778 162.5 794.5 Q145 811 144 836 L105 836 Q106 796 135 767.5 Q164 739 204 739 Q244 739 273 767.5 Q302 796 303 836 L264 836 Z " />
<glyph glyph-name="uni1EAF" unicode="&#x1eaf;" horiz-adv-x="408" d="M302 -2 L275 143 L133 143 L105 -2 L14 -2 L161 702 L247 702 L393 -2 L302 -2 Z M306 2 L389 2 L243 698 L165 698 L18 2 L101 2 L129 147 L279 147 L306 2 Z M149 232 L259 232 L204 520 L149 232 Z M145 228 L204 542 L263 228 L145 228 Z M307 840 Q308 797 277.5 766 Q247 735 204 735 Q161 735 130.5 766 Q100 797 101 840 L148 840 Q147 816 164 799 Q181 782 204 782 Q228 782 244.5 799.5 Q261 817 260 840 L307 840 Z M264 836 Q263 812 246 795 Q229 778 204 778 Q180 778 162.5 794.5 Q145 811 144 836 L105 836 Q106 796 135 767.5 Q164 739 204 739 Q244 739 273 767.5 Q302 796 303 836 L264 836 Z M246 969 L182 868 L227 868 L326 969 L246 969 Z M244 973 L336 973 L229 864 L174 864 L244 973 Z " />
<glyph glyph-name="uni1EB7" unicode="&#x1eb7;" horiz-adv-x="408" d="M302 -2 L275 143 L133 143 L105 -2 L14 -2 L161 702 L247 702 L393 -2 L302 -2 Z M306 2 L389 2 L243 698 L165 698 L18 2 L101 2 L129 147 L279 147 L306 2 Z M149 232 L259 232 L204 520 L149 232 Z M145 228 L204 542 L263 228 L145 228 Z M307 840 Q308 797 277.5 766 Q247 735 204 735 Q161 735 130.5 766 Q100 797 101 840 L148 840 Q147 816 164 799 Q181 782 204 782 Q228 782 244.5 799.5 Q261 817 260 840 L307 840 Z M264 836 Q263 812 246 795 Q229 778 204 778 Q180 778 162.5 794.5 Q145 811 144 836 L105 836 Q106 796 135 767.5 Q164 739 204 739 Q244 739 273 767.5 Q302 796 303 836 L264 836 Z M204 -42 Q186 -42 173.5 -54.5 Q161 -67 161 -85 Q161 -103 173.5 -115.5 Q186 -128 204 -128 Q222 -128 234.5 -115.5 Q247 -103 247 -85 Q247 -67 234.5 -54.5 Q222 -42 204 -42 Z M204 -38 Q224 -38 237.5 -52 Q251 -66 251 -85 Q251 -105 237.5 -118.5 Q224 -132 204 -132 Q185 -132 171 -118.5 Q157 -105 157 -85 Q157 -66 171 -52 Q185 -38 204 -38 Z " />
<glyph glyph-name="uni1EB1" unicode="&#x1eb1;" horiz-adv-x="408" d="M105 -2 L14 -2 L160 702 L246 702 L393 -2 L302 -2 L274 143 L132 143 L105 -2 Z M101 2 L128 147 L278 147 L306 2 L389 2 L242 698 L164 698 L18 2 L101 2 Z M258 232 L203 520 L148 232 L258 232 Z M262 228 L144 228 L203 542 L262 228 Z M147 840 Q146 816 163 799 Q180 782 203 782 Q227 782 243.5 799.5 Q260 817 259 840 L306 840 Q307 797 276.5 766 Q246 735 203 735 Q160 735 129.5 766 Q99 797 100 840 L147 840 Z M104 836 Q105 796 134 767.5 Q163 739 203 739 Q243 739 272 767.5 Q301 796 302 836 L263 836 Q262 812 245 795 Q228 778 203 778 Q179 778 161.5 794.5 Q144 811 143 836 L104 836 Z M161 969 L81 969 L180 868 L225 868 L161 969 Z M163 973 L233 864 L178 864 L71 973 L163 973 Z " />
<glyph glyph-name="uni1EB3" unicode="&#x1eb3;" horiz-adv-x="408" d="M105 -2 L14 -2 L160 702 L246 702 L393 -2 L302 -2 L274 143 L132 143 L105 -2 Z M101 2 L128 147 L278 147 L306 2 L389 2 L242 698 L164 698 L18 2 L101 2 Z M258 232 L203 520 L148 232 L258 232 Z M262 228 L144 228 L203 542 L262 228 Z M147 840 Q146 816 163 799 Q180 782 203 782 Q227 782 243.5 799.5 Q260 817 259 840 L306 840 Q307 797 276.5 766 Q246 735 203 735 Q160 735 129.5 766 Q99 797 100 840 L147 840 Z M104 836 Q105 796 134 767.5 Q163 739 203 739 Q243 739 272 767.5 Q301 796 302 836 L263 836 Q262 812 245 795 Q228 778 203 778 Q179 778 161.5 794.5 Q144 811 143 836 L104 836 Z M124 969 Q167 969 197.5 938 Q228 907 227 864 L180 864 Q181 888 164 905 Q147 922 123 922 L83 961 Q102 969 124 969 Z M124 965 Q102 965 88 958 L88 961 L125 926 Q149 926 166 909 Q183 892 184 868 L223 868 Q222 908 193 936.5 Q164 965 124 965 Z " />
<glyph glyph-name="uni1EB5" unicode="&#x1eb5;" horiz-adv-x="408" d="M105 -2 L14 -2 L160 702 L246 702 L393 -2 L302 -2 L274 143 L132 143 L105 -2 Z M101 2 L128 147 L278 147 L306 2 L389 2 L242 698 L164 698 L18 2 L101 2 Z M258 232 L203 520 L148 232 L258 232 Z M262 228 L144 228 L203 542 L262 228 Z M147 840 Q146 816 163 799 Q180 782 203 782 Q227 782 243.5 799.5 Q260 817 259 840 L306 840 Q307 797 276.5 766 Q246 735 203 735 Q160 735 129.5 766 Q99 797 100 840 L147 840 Z M104 836 Q105 796 134 767.5 Q163 739 203 739 Q243 739 272 767.5 Q301 796 302 836 L263 836 Q262 812 245 795 Q228 778 203 778 Q179 778 161.5 794.5 Q144 811 143 836 L104 836 Z M107 868 Q134 898 156 898 Q172 898 195 885 Q223 867 250 867 Q291 867 328 913 L297 936 Q277 911 257 907 Q238 904 215 918 Q181 938 155 938 Q114 938 77 892 L107 868 Z M71 892 Q111 942 155 942 Q183 942 217 922 Q239 908 257 911 Q276 916 297 942 L334 913 Q296 863 250 863 Q223 863 193 881 Q170 894 155 894 Q134 894 107 862 L71 892 Z " />
<glyph glyph-name="uni01CE" unicode="&#x1ce;" horiz-adv-x="408" d="M302 -2 L275 143 L133 143 L105 -2 L14 -2 L161 702 L247 702 L393 -2 L302 -2 Z M306 2 L389 2 L243 698 L165 698 L18 2 L101 2 L129 147 L279 147 L306 2 Z M149 232 L259 232 L204 520 L149 232 Z M145 228 L204 542 L263 228 L145 228 Z M318 842 L247 735 L160 735 L89 842 L145 842 L204 786 L263 842 L318 842 Z M310 838 L265 838 L204 780 L143 838 L97 838 L162 739 L245 739 L310 838 Z " />
<glyph glyph-name="acircumflex" unicode="&#xe2;" horiz-adv-x="408" d="M302 -2 L275 143 L133 143 L105 -2 L14 -2 L161 702 L247 702 L393 -2 L302 -2 Z M306 2 L389 2 L243 698 L165 698 L18 2 L101 2 L129 147 L279 147 L306 2 Z M149 232 L259 232 L204 520 L149 232 Z M145 228 L204 542 L263 228 L145 228 Z M318 735 L263 735 L204 791 L145 735 L89 735 L160 842 L247 842 L318 735 Z M310 739 L245 838 L162 838 L97 739 L143 739 L204 797 L265 739 L310 739 Z " />
<glyph glyph-name="uni1EA5" unicode="&#x1ea5;" horiz-adv-x="462" d="M302 -2 L275 143 L133 143 L105 -2 L14 -2 L161 702 L247 702 L393 -2 L302 -2 Z M306 2 L389 2 L243 698 L165 698 L18 2 L101 2 L129 147 L279 147 L306 2 Z M149 232 L259 232 L204 520 L149 232 Z M145 228 L204 542 L263 228 L145 228 Z M318 735 L263 735 L204 791 L145 735 L89 735 L160 842 L247 842 L318 735 Z M310 739 L245 838 L162 838 L97 739 L143 739 L204 797 L265 739 L310 739 Z M360 940 L296 839 L341 839 L440 940 L360 940 Z M358 944 L450 944 L343 835 L288 835 L358 944 Z " />
<glyph glyph-name="uni1EAD" unicode="&#x1ead;" horiz-adv-x="408" d="M302 -2 L275 143 L133 143 L105 -2 L14 -2 L161 702 L247 702 L393 -2 L302 -2 Z M306 2 L389 2 L243 698 L165 698 L18 2 L101 2 L129 147 L279 147 L306 2 Z M149 232 L259 232 L204 520 L149 232 Z M145 228 L204 542 L263 228 L145 228 Z M204 -42 Q186 -42 173.5 -54.5 Q161 -67 161 -85 Q161 -103 173.5 -115.5 Q186 -128 204 -128 Q222 -128 234.5 -115.5 Q247 -103 247 -85 Q247 -67 234.5 -54.5 Q222 -42 204 -42 Z M204 -38 Q224 -38 237.5 -52 Q251 -66 251 -85 Q251 -105 237.5 -118.5 Q224 -132 204 -132 Q185 -132 171 -118.5 Q157 -105 157 -85 Q157 -66 171 -52 Q185 -38 204 -38 Z M318 735 L263 735 L204 791 L145 735 L89 735 L160 842 L247 842 L318 735 Z M310 739 L245 838 L162 838 L97 739 L143 739 L204 797 L265 739 L310 739 Z " />
<glyph glyph-name="uni1EA7" unicode="&#x1ea7;" horiz-adv-x="408" d="M302 -2 L275 143 L133 143 L105 -2 L14 -2 L161 702 L247 702 L393 -2 L302 -2 Z M306 2 L389 2 L243 698 L165 698 L18 2 L101 2 L129 147 L279 147 L306 2 Z M149 232 L259 232 L204 520 L149 232 Z M145 228 L204 542 L263 228 L145 228 Z M318 735 L263 735 L204 791 L145 735 L89 735 L160 842 L247 842 L318 735 Z M310 739 L245 838 L162 838 L97 739 L143 739 L204 797 L265 739 L310 739 Z M274 940 L194 940 L293 839 L338 839 L274 940 Z M276 944 L346 835 L291 835 L184 944 L276 944 Z " />
<glyph glyph-name="uni1EA9" unicode="&#x1ea9;" horiz-adv-x="408" d="M302 -2 L275 143 L133 143 L105 -2 L14 -2 L161 702 L247 702 L393 -2 L302 -2 Z M306 2 L389 2 L243 698 L165 698 L18 2 L101 2 L129 147 L279 147 L306 2 Z M149 232 L259 232 L204 520 L149 232 Z M145 228 L204 542 L263 228 L145 228 Z M318 735 L263 735 L204 791 L145 735 L89 735 L160 842 L247 842 L318 735 Z M310 739 L245 838 L162 838 L97 739 L143 739 L204 797 L265 739 L310 739 Z M234 940 Q277 940 307.5 909 Q338 878 337 835 L290 835 Q291 859 274 876 Q257 893 233 893 L193 932 Q212 940 234 940 Z M234 936 Q212 936 198 929 L198 932 L235 897 Q259 897 276 880 Q293 863 294 839 L333 839 Q332 879 303 907.5 Q274 936 234 936 Z " />
<glyph glyph-name="uni1EAB" unicode="&#x1eab;" horiz-adv-x="408" d="M302 -2 L275 143 L133 143 L105 -2 L14 -2 L161 702 L247 702 L393 -2 L302 -2 Z M306 2 L389 2 L243 698 L165 698 L18 2 L101 2 L129 147 L279 147 L306 2 Z M149 232 L259 232 L204 520 L149 232 Z M145 228 L204 542 L263 228 L145 228 Z M104 868 Q131 898 153 898 Q169 898 192 885 Q221 867 247 867 Q288 867 325 913 L294 936 Q274 911 254 907 Q235 904 212 918 Q178 938 152 938 Q111 938 74 892 L104 868 Z M68 892 Q108 942 152 942 Q180 942 214 922 Q236 908 254 911 Q273 916 294 942 L331 913 Q293 863 247 863 Q220 863 190 881 Q167 894 152 894 Q131 894 104 862 L68 892 Z M318 735 L263 735 L204 791 L145 735 L89 735 L160 842 L247 842 L318 735 Z M310 739 L245 838 L162 838 L97 739 L143 739 L204 797 L265 739 L310 739 Z " />
<glyph glyph-name="adieresis" unicode="&#xe4;" horiz-adv-x="408" d="M302 -2 L275 143 L133 143 L105 -2 L14 -2 L161 702 L247 702 L393 -2 L302 -2 Z M306 2 L389 2 L243 698 L165 698 L18 2 L101 2 L129 147 L279 147 L306 2 Z M149 232 L259 232 L204 520 L149 232 Z M145 228 L204 542 L263 228 L145 228 Z M175 782 Q175 800 162.5 812.5 Q150 825 132 825 Q114 825 101.5 812.5 Q89 800 89 782 Q89 764 101.5 751.5 Q114 739 132 739 Q150 739 162.5 751.5 Q175 764 175 782 Z M179 782 Q179 763 165.5 749 Q152 735 132 735 Q113 735 99 749 Q85 763 85 782 Q85 802 99 815.5 Q113 829 132 829 Q152 829 165.5 815.5 Q179 802 179 782 Z M319 782 Q319 800 306.5 812.5 Q294 825 276 825 Q258 825 245.5 812.5 Q233 800 233 782 Q233 764 245.5 751.5 Q258 739 276 739 Q294 739 306.5 751.5 Q319 764 319 782 Z M323 782 Q323 763 309.5 749 Q296 735 276 735 Q257 735 243 749 Q229 763 229 782 Q229 802 243 815.5 Q257 829 276 829 Q296 829 309.5 815.5 Q323 802 323 782 Z " />
<glyph glyph-name="uni01DF" unicode="&#x1df;" horiz-adv-x="408" d="M302 -2 L275 143 L133 143 L105 -2 L14 -2 L161 702 L247 702 L393 -2 L302 -2 Z M306 2 L389 2 L243 698 L165 698 L18 2 L101 2 L129 147 L279 147 L306 2 Z M149 232 L259 232 L204 520 L149 232 Z M145 228 L204 542 L263 228 L145 228 Z M175 782 Q175 800 162.5 812.5 Q150 825 132 825 Q114 825 101.5 812.5 Q89 800 89 782 Q89 764 101.5 751.5 Q114 739 132 739 Q150 739 162.5 751.5 Q175 764 175 782 Z M179 782 Q179 763 165.5 749 Q152 735 132 735 Q113 735 99 749 Q85 763 85 782 Q85 802 99 815.5 Q113 829 132 829 Q152 829 165.5 815.5 Q179 802 179 782 Z M319 782 Q319 800 306.5 812.5 Q294 825 276 825 Q258 825 245.5 812.5 Q233 800 233 782 Q233 764 245.5 751.5 Q258 739 276 739 Q294 739 306.5 751.5 Q319 764 319 782 Z M323 782 Q323 763 309.5 749 Q296 735 276 735 Q257 735 243 749 Q229 763 229 782 Q229 802 243 815.5 Q257 829 276 829 Q296 829 309.5 815.5 Q323 802 323 782 Z M354 867 L354 908 L54 908 L54 867 L354 867 Z M358 863 L50 863 L50 912 L358 912 L358 863 Z " />
<glyph glyph-name="uni1EA1" unicode="&#x1ea1;" horiz-adv-x="408" d="M302 -2 L275 143 L133 143 L105 -2 L14 -2 L161 702 L247 702 L393 -2 L302 -2 Z M306 2 L389 2 L243 698 L165 698 L18 2 L101 2 L129 147 L279 147 L306 2 Z M149 232 L259 232 L204 520 L149 232 Z M145 228 L204 542 L263 228 L145 228 Z M204 -42 Q186 -42 173.5 -54.5 Q161 -67 161 -85 Q161 -103 173.5 -115.5 Q186 -128 204 -128 Q222 -128 234.5 -115.5 Q247 -103 247 -85 Q247 -67 234.5 -54.5 Q222 -42 204 -42 Z M204 -38 Q224 -38 237.5 -52 Q251 -66 251 -85 Q251 -105 237.5 -118.5 Q224 -132 204 -132 Q185 -132 171 -118.5 Q157 -105 157 -85 Q157 -66 171 -52 Q185 -38 204 -38 Z " />
<glyph glyph-name="agrave" unicode="&#xe0;" horiz-adv-x="408" d="M302 -2 L275 143 L133 143 L105 -2 L14 -2 L161 702 L247 702 L393 -2 L302 -2 Z M306 2 L389 2 L243 698 L165 698 L18 2 L101 2 L129 147 L279 147 L306 2 Z M149 232 L259 232 L204 520 L149 232 Z M145 228 L204 542 L263 228 L145 228 Z M161 840 L81 840 L180 739 L225 739 L161 840 Z M163 844 L233 735 L178 735 L71 844 L163 844 Z " />
<glyph glyph-name="uni1EA3" unicode="&#x1ea3;" horiz-adv-x="408" d="M302 -2 L275 143 L133 143 L105 -2 L14 -2 L161 702 L247 702 L393 -2 L302 -2 Z M306 2 L389 2 L243 698 L165 698 L18 2 L101 2 L129 147 L279 147 L306 2 Z M149 232 L259 232 L204 520 L149 232 Z M145 228 L204 542 L263 228 L145 228 Z M125 840 Q168 840 198.5 809 Q229 778 228 735 L181 735 Q182 759 165 776 Q148 793 124 793 L84 832 Q103 840 125 840 Z M125 836 Q103 836 89 829 L89 832 L126 797 Q150 797 167 780 Q184 763 185 739 L224 739 Q223 779 194 807.5 Q165 836 125 836 Z " />
<glyph glyph-name="amacron" unicode="&#x101;" horiz-adv-x="408" d="M302 -2 L275 143 L133 143 L105 -2 L14 -2 L161 702 L247 702 L393 -2 L302 -2 Z M306 2 L389 2 L243 698 L165 698 L18 2 L101 2 L129 147 L279 147 L306 2 Z M149 232 L259 232 L204 520 L149 232 Z M145 228 L204 542 L263 228 L145 228 Z M353 739 L353 780 L54 780 L54 739 L353 739 Z M357 735 L50 735 L50 784 L357 784 L357 735 Z " />
<glyph glyph-name="aogonek" unicode="&#x105;" horiz-adv-x="408" d="M337 -59 Q337 -79 375 -79 L386 -79 L386 -128 L365 -128 Q323 -128 300 -114 Q277 -100 277 -73 Q277 -33 345 2 L346 -2 L302 -2 L275 143 L133 143 L105 -2 L14 -2 L161 702 L247 702 L393 -1 Q370 -9 353.5 -26 Q337 -43 337 -59 Z M333 -59 Q333 -42 349.5 -24.5 Q366 -7 389 1 L243 698 L165 698 L18 2 L101 2 L129 147 L279 147 L306 2 L346 2 L347 -2 Q281 -36 281 -73 Q281 -98 303 -111 Q325 -124 365 -124 L382 -124 L382 -83 L375 -83 Q333 -83 333 -59 Z M149 232 L259 232 L204 520 L149 232 Z M145 228 L204 542 L263 228 L145 228 Z " />
<glyph glyph-name="aring" unicode="&#xe5;" horiz-adv-x="408" d="M302 -2 L275 143 L133 143 L105 -2 L14 -2 L161 702 L247 702 L393 -2 L302 -2 Z M306 2 L389 2 L243 698 L165 698 L18 2 L101 2 L129 147 L279 147 L306 2 Z M149 232 L259 232 L204 520 L149 232 Z M145 228 L204 542 L263 228 L145 228 Z M204 742 Q230 742 247.5 760 Q265 778 265 803 Q265 829 247 847 Q229 865 204 865 Q179 865 160.5 847 Q142 829 142 803 Q142 778 160 760 Q178 742 204 742 Z M204 738 Q177 738 157.5 757 Q138 776 138 803 Q138 830 157.5 849.5 Q177 869 204 869 Q231 869 250 849.5 Q269 830 269 803 Q269 776 250 757 Q231 738 204 738 Z M204 826 Q213 826 219.5 819.5 Q226 813 226 803 Q226 794 219.5 787.5 Q213 781 204 781 Q195 781 188 787.5 Q181 794 181 803 Q181 813 188 819.5 Q195 826 204 826 Z M204 822 Q196 822 190.5 816.5 Q185 811 185 803 Q185 796 190.5 790.5 Q196 785 204 785 Q212 785 217 790.5 Q222 796 222 803 Q222 811 216.5 816.5 Q211 822 204 822 Z " />
<glyph glyph-name="atilde" unicode="&#xe3;" horiz-adv-x="408" d="M302 -2 L275 143 L133 143 L105 -2 L14 -2 L161 702 L247 702 L393 -2 L302 -2 Z M306 2 L389 2 L243 698 L165 698 L18 2 L101 2 L129 147 L279 147 L306 2 Z M149 232 L259 232 L204 520 L149 232 Z M145 228 L204 542 L263 228 L145 228 Z M104 738 Q131 768 153 768 Q169 768 192 755 Q221 737 247 737 Q288 737 325 783 L294 806 Q274 781 254 777 Q235 774 212 788 Q178 808 152 808 Q111 808 74 762 L104 738 Z M68 762 Q108 812 152 812 Q180 812 214 792 Q236 778 254 781 Q273 786 294 812 L331 783 Q293 733 247 733 Q220 733 190 751 Q167 764 152 764 Q131 764 104 732 L68 762 Z " />
<glyph glyph-name="uni0250" unicode="&#x250;" horiz-adv-x="408" d="M302 702 L393 702 L247 -2 L161 -2 L14 702 L105 702 L133 557 L275 557 L302 702 Z M306 698 L279 553 L129 553 L101 698 L18 698 L165 2 L243 2 L389 698 L306 698 Z M149 468 L204 180 L259 468 L149 468 Z M145 472 L263 472 L204 158 L145 472 Z " />
<glyph glyph-name="ae" unicode="&#xe6;" horiz-adv-x="568" d="M539 613 L349 613 L349 403 L481 403 L481 314 L349 314 L349 87 L539 87 L539 -2 L260 -2 L260 124 L138 124 L106 -2 L13 -2 L192 702 L539 702 L539 613 Z M535 617 L535 698 L196 698 L19 2 L102 2 L134 128 L264 128 L264 2 L535 2 L535 83 L345 83 L345 318 L477 318 L477 399 L345 399 L345 617 L535 617 Z M161 213 L260 213 L260 599 L161 213 Z M155 209 L264 631 L264 209 L155 209 Z " />
<glyph glyph-name="b" unicode="b" horiz-adv-x="386" d="M199 2 Q265 2 308 39 Q355 80 355 161 L355 227 Q355 317 292 357 Q339 395 339 471 L339 538 Q339 619 292 661 Q251 697 183 697 L42 697 L42 2 L199 2 Z M38 701 L183 701 Q254 701 294 664 Q343 621 343 538 L343 471 Q343 433 332 405 Q321 377 298 357 Q359 315 359 227 L359 161 Q359 78 310 35 Q267 -2 199 -2 L38 -2 L38 701 Z M199 309 Q237 309 255.5 289 Q274 269 274 227 L274 161 Q274 118 254 98 Q235 83 199 83 L123 83 L123 309 L199 309 Z M127 87 L199 87 Q235 87 252 101 Q270 121 270 161 L270 227 Q270 267 253 286 Q236 305 199 305 L127 305 L127 87 Z M123 616 L183 616 Q223 616 240.5 598 Q258 580 258 538 L258 471 Q258 428 240 409 Q222 390 183 390 L123 390 L123 616 Z M183 394 Q220 394 237 412 Q254 430 254 471 L254 538 Q254 578 237.5 595 Q221 612 183 612 L127 612 L127 394 L183 394 Z " />
<glyph glyph-name="uni1E05" unicode="&#x1e05;" horiz-adv-x="386" d="M199 2 Q265 2 308 39 Q355 80 355 161 L355 227 Q355 317 292 357 Q339 395 339 471 L339 538 Q339 619 292 661 Q251 697 183 697 L42 697 L42 2 L199 2 Z M38 701 L183 701 Q254 701 294 664 Q343 621 343 538 L343 471 Q343 433 332 405 Q321 377 298 357 Q359 315 359 227 L359 161 Q359 78 310 35 Q267 -2 199 -2 L38 -2 L38 701 Z M199 309 Q237 309 255.5 289 Q274 269 274 227 L274 161 Q274 118 254 98 Q235 83 199 83 L123 83 L123 309 L199 309 Z M127 87 L199 87 Q235 87 252 101 Q270 121 270 161 L270 227 Q270 267 253 286 Q236 305 199 305 L127 305 L127 87 Z M123 616 L183 616 Q223 616 240.5 598 Q258 580 258 538 L258 471 Q258 428 240 409 Q222 390 183 390 L123 390 L123 616 Z M183 394 Q220 394 237 412 Q254 430 254 471 L254 538 Q254 578 237.5 595 Q221 612 183 612 L127 612 L127 394 L183 394 Z M199 -42 Q181 -42 168.5 -54.5 Q156 -67 156 -85 Q156 -103 168.5 -115.5 Q181 -128 199 -128 Q217 -128 229.5 -115.5 Q242 -103 242 -85 Q242 -67 229.5 -54.5 Q217 -42 199 -42 Z M199 -38 Q219 -38 232.5 -52 Q246 -66 246 -85 Q246 -105 232.5 -118.5 Q219 -132 199 -132 Q180 -132 166 -118.5 Q152 -105 152 -85 Q152 -66 166 -52 Q180 -38 199 -38 Z " />
<glyph glyph-name="uni0253" unicode="&#x253;" horiz-adv-x="431" d="M343 357 Q404 315 404 227 L404 161 Q404 78 355 35 Q312 -2 244 -2 L83 -2 L83 654 L43 654 Q35 654 29.5 648 Q24 642 25 634 L-22 634 Q-23 662 -3.5 681.5 Q16 701 43 701 L228 701 Q299 701 339 664 Q388 621 388 538 L388 471 Q388 433 377 405 Q366 377 343 357 Z M337 357 Q384 395 384 471 L384 538 Q384 619 337 661 Q296 697 228 697 L43 697 Q18 697 0.5 680 Q-17 663 -18 638 L21 638 Q22 646 28 652 Q34 658 43 658 L87 658 L87 2 L244 2 Q310 2 353 39 Q400 80 400 161 L400 227 Q400 316 337 357 Z M172 394 L228 394 Q265 394 282 412 Q299 430 299 471 L299 538 Q299 578 282.5 595 Q266 612 228 612 L172 612 L172 394 Z M228 616 Q268 616 285.5 598 Q303 580 303 538 L303 471 Q303 428 285 409 Q267 390 228 390 L168 390 L168 616 L228 616 Z M315 227 Q315 267 298 286 Q281 305 244 305 L172 305 L172 87 L244 87 Q280 87 297 101 Q315 121 315 161 L315 227 Z M319 161 Q319 118 299 98 Q280 83 244 83 L168 83 L168 309 L244 309 Q282 309 300.5 289 Q319 269 319 227 L319 161 Z " />
<glyph glyph-name="uni0180" unicode="&#x180;" horiz-adv-x="406" d="M318 357 Q379 314 379 227 L379 161 Q379 78 330 35 Q287 -2 218 -2 L103 -2 L58 -2 L58 152 L-2 152 L-2 241 L58 241 L58 702 L203 702 Q273 702 314 665 Q363 622 363 539 L363 471 Q363 433 352 405 Q341 377 318 357 Z M311 357 Q336 377 347.5 404 Q359 431 359 471 L359 539 Q359 620 312 662 Q270 698 203 698 L62 698 L62 237 L2 237 L2 156 L62 156 L62 2 L103 2 L218 2 Q285 2 327 38 Q375 81 375 161 L375 227 Q375 314 311 357 Z M147 394 L203 394 Q240 394 257 412.5 Q274 431 274 471 L274 539 Q274 579 257.5 596 Q241 613 203 613 L147 613 L147 394 Z M203 617 Q243 617 260.5 599 Q278 581 278 539 L278 471 Q278 429 259.5 409.5 Q241 390 203 390 L143 390 L143 617 L203 617 Z M290 227 Q290 268 272.5 286.5 Q255 305 218 305 L147 305 L147 241 L205 241 L205 152 L147 152 L147 87 L218 87 Q253 87 271 102 Q290 119 290 161 L290 227 Z M294 161 Q294 117 273 99 Q256 83 218 83 L143 83 L143 156 L201 156 L201 237 L143 237 L143 309 L218 309 Q257 309 275.5 289.5 Q294 270 294 227 L294 161 Z " />
<glyph glyph-name="c" unicode="c" horiz-adv-x="381" d="M192 -7 Q258 -7 302 31 Q349 73 349 156 L349 248 L268 248 L268 156 Q268 113 249.5 93.5 Q231 74 192 74 Q154 74 135.5 94 Q117 114 117 156 L117 545 Q117 587 135.5 607 Q154 627 192 627 Q231 627 249.5 607.5 Q268 588 268 545 L268 483 L349 483 L349 545 Q349 625 302 670 Q258 708 192 708 Q126 708 83 670 Q36 625 36 545 L36 156 Q36 73 83 31 Q126 -7 192 -7 Z M192 -11 Q122 -11 81 29 Q32 72 32 156 L32 545 Q32 627 81 672 Q122 712 192 712 Q261 712 304 672 Q353 627 353 545 L353 479 L264 479 L264 545 Q264 586 246.5 604.5 Q229 623 192 623 Q155 623 138 604 Q121 585 121 545 L121 156 Q121 116 138 97 Q155 78 192 78 Q229 78 246.5 96.5 Q264 115 264 156 L264 252 L353 252 L353 156 Q353 72 304 29 Q261 -11 192 -11 Z " />
<glyph glyph-name="cacute" unicode="&#x107;" horiz-adv-x="381" d="M192 -7 Q258 -7 302 31 Q349 73 349 156 L349 248 L268 248 L268 156 Q268 113 249.5 93.5 Q231 74 192 74 Q154 74 135.5 94 Q117 114 117 156 L117 545 Q117 587 135.5 607 Q154 627 192 627 Q231 627 249.5 607.5 Q268 588 268 545 L268 483 L349 483 L349 545 Q349 625 302 670 Q258 708 192 708 Q126 708 83 670 Q36 625 36 545 L36 156 Q36 73 83 31 Q126 -7 192 -7 Z M192 -11 Q122 -11 81 29 Q32 72 32 156 L32 545 Q32 627 81 672 Q122 712 192 712 Q261 712 304 672 Q353 627 353 545 L353 479 L264 479 L264 545 Q264 586 246.5 604.5 Q229 623 192 623 Q155 623 138 604 Q121 585 121 545 L121 156 Q121 116 138 97 Q155 78 192 78 Q229 78 246.5 96.5 Q264 115 264 156 L264 252 L353 252 L353 156 Q353 72 304 29 Q261 -11 192 -11 Z M234 840 L170 739 L215 739 L314 840 L234 840 Z M232 844 L324 844 L217 735 L162 735 L232 844 Z " />
<glyph glyph-name="ccaron" unicode="&#x10d;" horiz-adv-x="381" d="M192 -7 Q258 -7 302 31 Q349 73 349 156 L349 248 L268 248 L268 156 Q268 113 249.5 93.5 Q231 74 192 74 Q154 74 135.5 94 Q117 114 117 156 L117 545 Q117 587 135.5 607 Q154 627 192 627 Q231 627 249.5 607.5 Q268 588 268 545 L268 483 L349 483 L349 545 Q349 625 302 670 Q258 708 192 708 Q126 708 83 670 Q36 625 36 545 L36 156 Q36 73 83 31 Q126 -7 192 -7 Z M192 -11 Q122 -11 81 29 Q32 72 32 156 L32 545 Q32 627 81 672 Q122 712 192 712 Q261 712 304 672 Q353 627 353 545 L353 479 L264 479 L264 545 Q264 586 246.5 604.5 Q229 623 192 623 Q155 623 138 604 Q121 585 121 545 L121 156 Q121 116 138 97 Q155 78 192 78 Q229 78 246.5 96.5 Q264 115 264 156 L264 252 L353 252 L353 156 Q353 72 304 29 Q261 -11 192 -11 Z M306 842 L235 735 L148 735 L77 842 L133 842 L192 786 L251 842 L306 842 Z M298 838 L253 838 L192 780 L131 838 L85 838 L150 739 L233 739 L298 838 Z " />
<glyph glyph-name="ccedilla" unicode="&#xe7;" horiz-adv-x="381" d="M264 478 L264 544 Q264 584 247 603 Q230 622 193 622 Q156 622 138.5 603.5 Q121 585 121 544 L121 157 Q121 116 138.5 97.5 Q156 79 193 79 Q230 79 247 98 Q264 117 264 157 L264 253 L353 253 L353 157 Q353 75 304 30 Q271 -1 218 -9 Q219 -9 221 -11 Q221 -11 224 -14 Q257 -37 257 -71 Q257 -98 238 -117.5 Q219 -137 192 -137 Q165 -137 145 -117 Q125 -97 126 -69 L173 -69 L173 -71 Q173 -79 179 -84.5 Q185 -90 192 -90 Q199 -90 204.5 -84.5 Q210 -79 210 -71 Q210 -65 207.5 -61 Q205 -57 196 -51 Q195 -51 194 -50 Q193 -49 193 -49 Q172 -31 169 -9 Q115 -3 81 30 Q32 75 32 157 L32 544 Q32 628 81 671 Q102 690 131 700.5 Q160 711 193 711 Q225 711 254 700.5 Q283 690 304 671 Q353 628 353 544 L353 478 L264 478 Z M349 544 Q349 627 302 669 Q259 707 193 707 Q126 707 83 669 Q36 627 36 544 L36 157 Q36 77 83 32 Q119 1 173 -5 Q173 -27 195 -46 L197 -47 Q207 -54 210.5 -58.5 Q214 -63 214 -71 Q214 -80 207.5 -87 Q201 -94 192 -94 Q183 -94 176.5 -87.5 Q170 -81 169 -73 L130 -73 Q131 -98 149 -115.5 Q167 -133 192 -133 Q217 -133 235 -115 Q253 -97 253 -71 Q253 -50 244 -38 Q235 -26 220 -16 L220 -15 Q215 -13 213 -8 L215 -5 Q266 1 302 32 Q349 77 349 157 L349 249 L268 249 L268 157 Q268 115 249.5 95 Q231 75 193 75 Q154 75 135.5 94.5 Q117 114 117 157 L117 544 Q117 587 135.5 606.5 Q154 626 193 626 Q231 626 249.5 606 Q268 586 268 544 L268 482 L349 482 L349 544 Z " />
<glyph glyph-name="cdotaccent" unicode="&#x10b;" horiz-adv-x="381" d="M192 -7 Q258 -7 302 31 Q349 73 349 156 L349 248 L268 248 L268 156 Q268 113 249.5 93.5 Q231 74 192 74 Q154 74 135.5 94 Q117 114 117 156 L117 545 Q117 587 135.5 607 Q154 627 192 627 Q231 627 249.5 607.5 Q268 588 268 545 L268 483 L349 483 L349 545 Q349 625 302 670 Q258 708 192 708 Q126 708 83 670 Q36 625 36 545 L36 156 Q36 73 83 31 Q126 -7 192 -7 Z M192 -11 Q122 -11 81 29 Q32 72 32 156 L32 545 Q32 627 81 672 Q122 712 192 712 Q261 712 304 672 Q353 627 353 545 L353 479 L264 479 L264 545 Q264 586 246.5 604.5 Q229 623 192 623 Q155 623 138 604 Q121 585 121 545 L121 156 Q121 116 138 97 Q155 78 192 78 Q229 78 246.5 96.5 Q264 115 264 156 L264 252 L353 252 L353 156 Q353 72 304 29 Q261 -11 192 -11 Z M235 782 Q235 800 222.5 812.5 Q210 825 192 825 Q174 825 161.5 812.5 Q149 800 149 782 Q149 764 161.5 751.5 Q174 739 192 739 Q210 739 222.5 751.5 Q235 764 235 782 Z M239 782 Q239 763 225.5 749 Q212 735 192 735 Q173 735 159 749 Q145 763 145 782 Q145 802 159 815.5 Q173 829 192 829 Q212 829 225.5 815.5 Q239 802 239 782 Z " />
<glyph glyph-name="uni0188" unicode="&#x188;" horiz-adv-x="381" d="M306 711 Q306 739 326 758 Q346 777 374 776 L374 729 L372 729 Q364 729 358.5 723.5 Q353 718 353 711 L353 479 L264 479 L264 545 Q264 586 246.5 604.5 Q229 623 192 623 Q155 623 138 604 Q121 585 121 545 L121 156 Q121 116 138 97 Q155 78 192 78 Q229 78 246.5 96.5 Q264 115 264 156 L264 252 L353 252 L353 156 Q353 72 304 29 Q261 -11 192 -11 Q122 -11 81 29 Q32 72 32 156 L32 545 Q32 627 81 672 Q122 712 192 712 Q261 712 304 672 Q309 667 309 667 L306 666 L306 711 Z M310 666 L307 665 Q302 670 302 670 Q258 708 192 708 Q126 708 83 670 Q36 625 36 545 L36 156 Q36 73 83 31 Q126 -7 192 -7 Q258 -7 302 31 Q349 73 349 156 L349 248 L268 248 L268 156 Q268 113 249.5 93.5 Q231 74 192 74 Q154 74 135.5 94 Q117 114 117 156 L117 545 Q117 587 135.5 607 Q154 627 192 627 Q231 627 249.5 607.5 Q268 588 268 545 L268 483 L349 483 L349 711 Q349 719 355 725.5 Q361 732 370 733 L370 772 Q345 771 327.5 753.5 Q310 736 310 711 L310 666 Z " />
<glyph glyph-name="d" unicode="d" horiz-adv-x="391" d="M199 2 Q267 2 308 37 Q355 81 355 161 L355 535 Q355 615 308 660 Q265 698 199 698 L42 698 L42 2 L199 2 Z M38 -2 L38 702 L199 702 Q269 702 310 662 Q359 617 359 535 L359 161 Q359 79 310 34 Q268 -2 199 -2 L38 -2 Z M123 617 L199 617 Q237 617 255.5 597 Q274 577 274 535 L274 161 Q274 117 253 99 Q237 83 199 83 L123 83 L123 617 Z M199 87 Q235 87 251 101 Q270 120 270 161 L270 535 Q270 575 253 594 Q236 613 199 613 L127 613 L127 87 L199 87 Z " />
<glyph glyph-name="eth" unicode="&#xf0;" horiz-adv-x="395" d="M315 662 Q363 616 363 535 L363 161 Q363 79 314 34 Q272 -2 203 -2 L43 -2 L43 305 L3 305 L3 394 L43 394 L43 702 L203 702 Q272 702 315 662 Z M313 660 Q269 698 203 698 L47 698 L47 390 L7 390 L7 309 L47 309 L47 2 L203 2 Q271 2 312 37 Q359 81 359 161 L359 535 Q359 614 313 660 Z M274 535 Q274 576 257 594.5 Q240 613 203 613 L132 613 L132 394 L192 394 L192 305 L132 305 L132 87 L203 87 Q239 87 256 101 Q274 119 274 161 L274 535 Z M278 161 Q278 117 258 98 Q239 83 203 83 L128 83 L128 309 L188 309 L188 390 L128 390 L128 617 L203 617 Q241 617 259.5 597.5 Q278 578 278 535 L278 161 Z " />
<glyph glyph-name="dcaron" unicode="&#x10f;" horiz-adv-x="391" d="M199 2 Q267 2 308 37 Q355 81 355 161 L355 535 Q355 615 308 660 Q265 698 199 698 L42 698 L42 2 L199 2 Z M38 -2 L38 702 L199 702 Q269 702 310 662 Q359 617 359 535 L359 161 Q359 79 310 34 Q268 -2 199 -2 L38 -2 Z M123 617 L199 617 Q237 617 255.5 597 Q274 577 274 535 L274 161 Q274 117 253 99 Q237 83 199 83 L123 83 L123 617 Z M199 87 Q235 87 251 101 Q270 120 270 161 L270 535 Q270 575 253 594 Q236 613 199 613 L127 613 L127 87 L199 87 Z M313 842 L242 735 L155 735 L84 842 L140 842 L199 786 L258 842 L313 842 Z M305 838 L260 838 L199 780 L138 838 L92 838 L157 739 L240 739 L305 838 Z " />
<glyph glyph-name="uni1E13" unicode="&#x1e13;" horiz-adv-x="391" d="M199 2 Q267 2 308 37 Q355 81 355 161 L355 535 Q355 615 308 660 Q265 698 199 698 L42 698 L42 2 L199 2 Z M38 -2 L38 702 L199 702 Q269 702 310 662 Q359 617 359 535 L359 161 Q359 79 310 34 Q268 -2 199 -2 L38 -2 Z M123 617 L199 617 Q237 617 255.5 597 Q274 577 274 535 L274 161 Q274 117 253 99 Q237 83 199 83 L123 83 L123 617 Z M199 87 Q235 87 251 101 Q270 120 270 161 L270 535 Q270 575 253 594 Q236 613 199 613 L127 613 L127 87 L199 87 Z M313 -145 L258 -145 L199 -89 L140 -145 L84 -145 L155 -38 L242 -38 L313 -145 Z M305 -141 L240 -42 L157 -42 L92 -141 L138 -141 L199 -83 L260 -141 L305 -141 Z " />
<glyph glyph-name="dslash" unicode="&#x111;" horiz-adv-x="395" d="M315 662 Q363 616 363 535 L363 161 Q363 79 314 34 Q272 -2 203 -2 L43 -2 L43 305 L3 305 L3 394 L43 394 L43 702 L203 702 Q272 702 315 662 Z M313 660 Q269 698 203 698 L47 698 L47 390 L7 390 L7 309 L47 309 L47 2 L203 2 Q271 2 312 37 Q359 81 359 161 L359 535 Q359 614 313 660 Z M274 535 Q274 576 257 594.5 Q240 613 203 613 L132 613 L132 394 L192 394 L192 305 L132 305 L132 87 L203 87 Q239 87 256 101 Q274 119 274 161 L274 535 Z M278 161 Q278 117 258 98 Q239 83 203 83 L128 83 L128 309 L188 309 L188 390 L128 390 L128 617 L203 617 Q241 617 259.5 597.5 Q278 578 278 535 L278 161 Z " />
<glyph glyph-name="uni1E0D" unicode="&#x1e0d;" horiz-adv-x="391" d="M199 2 Q267 2 308 37 Q355 81 355 161 L355 535 Q355 615 308 660 Q265 698 199 698 L42 698 L42 2 L199 2 Z M38 -2 L38 702 L199 702 Q269 702 310 662 Q359 617 359 535 L359 161 Q359 79 310 34 Q268 -2 199 -2 L38 -2 Z M123 617 L199 617 Q237 617 255.5 597 Q274 577 274 535 L274 161 Q274 117 253 99 Q237 83 199 83 L123 83 L123 617 Z M199 87 Q235 87 251 101 Q270 120 270 161 L270 535 Q270 575 253 594 Q236 613 199 613 L127 613 L127 87 L199 87 Z M199 -42 Q181 -42 168.5 -54.5 Q156 -67 156 -85 Q156 -103 168.5 -115.5 Q181 -128 199 -128 Q217 -128 229.5 -115.5 Q242 -103 242 -85 Q242 -67 229.5 -54.5 Q217 -42 199 -42 Z M199 -38 Q219 -38 232.5 -52 Q246 -66 246 -85 Q246 -105 232.5 -118.5 Q219 -132 199 -132 Q180 -132 166 -118.5 Q152 -105 152 -85 Q152 -66 166 -52 Q180 -38 199 -38 Z " />
<glyph glyph-name="uni0257" unicode="&#x257;" horiz-adv-x="436" d="M355 662 Q404 617 404 535 L404 161 Q404 79 355 34 Q313 -2 244 -2 L83 -2 L83 655 L43 655 Q35 655 29.5 649 Q24 643 25 635 L-22 635 Q-23 663 -3.5 682.5 Q16 702 43 702 L244 702 Q314 702 355 662 Z M353 660 Q310 698 244 698 L43 698 Q18 698 0.5 681 Q-17 664 -18 639 L21 639 Q22 647 28 653 Q34 659 43 659 L87 659 L87 2 L244 2 Q312 2 353 37 Q400 81 400 161 L400 535 Q400 615 353 660 Z M315 535 Q315 575 298 594 Q281 613 244 613 L172 613 L172 87 L244 87 Q280 87 296 101 Q315 120 315 161 L315 535 Z M319 161 Q319 117 298 99 Q282 83 244 83 L168 83 L168 617 L244 617 Q282 617 300.5 597 Q319 577 319 535 L319 161 Z " />
<glyph glyph-name="uni1E0F" unicode="&#x1e0f;" horiz-adv-x="391" d="M199 2 Q267 2 308 37 Q355 81 355 161 L355 535 Q355 615 308 660 Q265 698 199 698 L42 698 L42 2 L199 2 Z M38 -2 L38 702 L199 702 Q269 702 310 662 Q359 617 359 535 L359 161 Q359 79 310 34 Q268 -2 199 -2 L38 -2 Z M123 617 L199 617 Q237 617 255.5 597 Q274 577 274 535 L274 161 Q274 117 253 99 Q237 83 199 83 L123 83 L123 617 Z M199 87 Q235 87 251 101 Q270 120 270 161 L270 535 Q270 575 253 594 Q236 613 199 613 L127 613 L127 87 L199 87 Z M348 -83 L348 -42 L49 -42 L49 -83 L348 -83 Z M352 -87 L45 -87 L45 -38 L352 -38 L352 -87 Z " />
<glyph glyph-name="e" unicode="e" horiz-adv-x="347" d="M318 613 L127 613 L127 403 L260 403 L260 314 L127 314 L127 87 L318 87 L318 -2 L38 -2 L38 702 L318 702 L318 613 Z M314 617 L314 698 L42 698 L42 2 L314 2 L314 83 L123 83 L123 318 L256 318 L256 399 L123 399 L123 617 L314 617 Z " />
<glyph glyph-name="eacute" unicode="&#xe9;" horiz-adv-x="347" d="M318 613 L127 613 L127 403 L260 403 L260 314 L127 314 L127 87 L318 87 L318 -2 L38 -2 L38 702 L318 702 L318 613 Z M314 617 L314 698 L42 698 L42 2 L314 2 L314 83 L123 83 L123 318 L256 318 L256 399 L123 399 L123 617 L314 617 Z M221 840 L157 739 L202 739 L301 840 L221 840 Z M219 844 L311 844 L204 735 L149 735 L219 844 Z " />
<glyph glyph-name="ecaron" unicode="&#x11b;" horiz-adv-x="347" d="M318 613 L127 613 L127 403 L260 403 L260 314 L127 314 L127 87 L318 87 L318 -2 L38 -2 L38 702 L318 702 L318 613 Z M314 617 L314 698 L42 698 L42 2 L314 2 L314 83 L123 83 L123 318 L256 318 L256 399 L123 399 L123 617 L314 617 Z M292 842 L221 735 L134 735 L63 842 L119 842 L178 786 L237 842 L292 842 Z M284 838 L239 838 L178 780 L117 838 L71 838 L136 739 L219 739 L284 838 Z " />
<glyph glyph-name="uni0229" unicode="&#x229;" horiz-adv-x="347" d="M127 613 L127 403 L260 403 L260 314 L127 314 L127 87 L318 87 L318 -2 L200 -2 L202 1 Q204 -3 206 -4 Q206 -4 209 -7 Q242 -30 242 -64 Q242 -91 223 -110.5 Q204 -130 177 -130 Q150 -130 130 -110 Q110 -90 111 -62 L158 -62 L158 -64 Q158 -72 164 -77.5 Q170 -83 177 -83 Q184 -83 189.5 -77.5 Q195 -72 195 -64 Q195 -58 192.5 -54 Q190 -50 181 -44 Q180 -44 179 -43 Q178 -42 178 -42 Q157 -24 154 -2 L38 -2 L38 702 L318 702 L318 613 L127 613 Z M314 698 L42 698 L42 2 L158 2 Q158 -20 180 -39 L182 -40 Q192 -47 195.5 -51.5 Q199 -56 199 -64 Q199 -73 192.5 -80 Q186 -87 177 -87 Q168 -87 161.5 -80.5 Q155 -74 154 -66 L115 -66 Q116 -91 134 -108.5 Q152 -126 177 -126 Q202 -126 220 -108 Q238 -90 238 -64 Q238 -43 229 -31 Q220 -19 205 -9 L205 -8 Q200 -6 198 -1 L200 2 L314 2 L314 83 L123 83 L123 318 L256 318 L256 399 L123 399 L123 617 L314 617 L314 698 Z " />
<glyph glyph-name="ecircumflex" unicode="&#xea;" horiz-adv-x="347" d="M318 613 L127 613 L127 403 L260 403 L260 314 L127 314 L127 87 L318 87 L318 -2 L38 -2 L38 702 L318 702 L318 613 Z M314 617 L314 698 L42 698 L42 2 L314 2 L314 83 L123 83 L123 318 L256 318 L256 399 L123 399 L123 617 L314 617 Z M292 735 L237 735 L178 791 L119 735 L63 735 L134 842 L221 842 L292 735 Z M284 739 L219 838 L136 838 L71 739 L117 739 L178 797 L239 739 L284 739 Z " />
<glyph glyph-name="uni1EBF" unicode="&#x1ebf;" horiz-adv-x="347" d="M318 613 L127 613 L127 403 L260 403 L260 314 L127 314 L127 87 L318 87 L318 -2 L38 -2 L38 702 L318 702 L318 613 Z M314 617 L314 698 L42 698 L42 2 L314 2 L314 83 L123 83 L123 318 L256 318 L256 399 L123 399 L123 617 L314 617 Z M292 735 L237 735 L178 791 L119 735 L63 735 L134 842 L221 842 L292 735 Z M284 739 L219 838 L136 838 L71 739 L117 739 L178 797 L239 739 L284 739 Z M334 940 L270 839 L315 839 L414 940 L334 940 Z M332 944 L424 944 L317 835 L262 835 L332 944 Z " />
<glyph glyph-name="uni1EC7" unicode="&#x1ec7;" horiz-adv-x="347" d="M318 613 L127 613 L127 403 L260 403 L260 314 L127 314 L127 87 L318 87 L318 -2 L38 -2 L38 702 L318 702 L318 613 Z M314 617 L314 698 L42 698 L42 2 L314 2 L314 83 L123 83 L123 318 L256 318 L256 399 L123 399 L123 617 L314 617 Z M178 -42 Q160 -42 147.5 -54.5 Q135 -67 135 -85 Q135 -103 147.5 -115.5 Q160 -128 178 -128 Q196 -128 208.5 -115.5 Q221 -103 221 -85 Q221 -67 208.5 -54.5 Q196 -42 178 -42 Z M178 -38 Q198 -38 211.5 -52 Q225 -66 225 -85 Q225 -105 211.5 -118.5 Q198 -132 178 -132 Q159 -132 145 -118.5 Q131 -105 131 -85 Q131 -66 145 -52 Q159 -38 178 -38 Z M292 735 L237 735 L178 791 L119 735 L63 735 L134 842 L221 842 L292 735 Z M284 739 L219 838 L136 838 L71 739 L117 739 L178 797 L239 739 L284 739 Z " />
<glyph glyph-name="uni1EC1" unicode="&#x1ec1;" horiz-adv-x="347" d="M318 613 L127 613 L127 403 L260 403 L260 314 L127 314 L127 87 L318 87 L318 -2 L38 -2 L38 702 L318 702 L318 613 Z M314 617 L314 698 L42 698 L42 2 L314 2 L314 83 L123 83 L123 318 L256 318 L256 399 L123 399 L123 617 L314 617 Z M292 735 L237 735 L178 791 L119 735 L63 735 L134 842 L221 842 L292 735 Z M284 739 L219 838 L136 838 L71 739 L117 739 L178 797 L239 739 L284 739 Z M248 940 L168 940 L267 839 L312 839 L248 940 Z M250 944 L320 835 L265 835 L158 944 L250 944 Z " />
<glyph glyph-name="uni1EC3" unicode="&#x1ec3;" horiz-adv-x="347" d="M318 613 L127 613 L127 403 L260 403 L260 314 L127 314 L127 87 L318 87 L318 -2 L38 -2 L38 702 L318 702 L318 613 Z M314 617 L314 698 L42 698 L42 2 L314 2 L314 83 L123 83 L123 318 L256 318 L256 399 L123 399 L123 617 L314 617 Z M292 735 L237 735 L178 791 L119 735 L63 735 L134 842 L221 842 L292 735 Z M284 739 L219 838 L136 838 L71 739 L117 739 L178 797 L239 739 L284 739 Z M208 940 Q251 940 281.5 909 Q312 878 311 835 L264 835 Q265 859 248 876 Q231 893 207 893 L167 932 Q186 940 208 940 Z M208 936 Q186 936 172 929 L172 932 L209 897 Q233 897 250 880 Q267 863 268 839 L307 839 Q306 879 277 907.5 Q248 936 208 936 Z " />
<glyph glyph-name="uni1EC5" unicode="&#x1ec5;" horiz-adv-x="347" d="M318 613 L127 613 L127 403 L260 403 L260 314 L127 314 L127 87 L318 87 L318 -2 L38 -2 L38 702 L318 702 L318 613 Z M314 617 L314 698 L42 698 L42 2 L314 2 L314 83 L123 83 L123 318 L256 318 L256 399 L123 399 L123 617 L314 617 Z M78 868 Q105 898 127 898 Q143 898 166 885 Q195 867 221 867 Q262 867 299 913 L268 936 Q248 911 228 907 Q209 904 186 918 Q152 938 126 938 Q85 938 48 892 L78 868 Z M42 892 Q82 942 126 942 Q154 942 188 922 Q210 908 228 911 Q247 916 268 942 L305 913 Q267 863 221 863 Q194 863 164 881 Q141 894 126 894 Q105 894 78 862 L42 892 Z M292 735 L237 735 L178 791 L119 735 L63 735 L134 842 L221 842 L292 735 Z M284 739 L219 838 L136 838 L71 739 L117 739 L178 797 L239 739 L284 739 Z " />
<glyph glyph-name="edieresis" unicode="&#xeb;" horiz-adv-x="347" d="M318 613 L127 613 L127 403 L260 403 L260 314 L127 314 L127 87 L318 87 L318 -2 L38 -2 L38 702 L318 702 L318 613 Z M314 617 L314 698 L42 698 L42 2 L314 2 L314 83 L123 83 L123 318 L256 318 L256 399 L123 399 L123 617 L314 617 Z M149 782 Q149 800 136.5 812.5 Q124 825 106 825 Q88 825 75.5 812.5 Q63 800 63 782 Q63 764 75.5 751.5 Q88 739 106 739 Q124 739 136.5 751.5 Q149 764 149 782 Z M153 782 Q153 763 139.5 749 Q126 735 106 735 Q87 735 73 749 Q59 763 59 782 Q59 802 73 815.5 Q87 829 106 829 Q126 829 139.5 815.5 Q153 802 153 782 Z M293 782 Q293 800 280.5 812.5 Q268 825 250 825 Q232 825 219.5 812.5 Q207 800 207 782 Q207 764 219.5 751.5 Q232 739 250 739 Q268 739 280.5 751.5 Q293 764 293 782 Z M297 782 Q297 763 283.5 749 Q270 735 250 735 Q231 735 217 749 Q203 763 203 782 Q203 802 217 815.5 Q231 829 250 829 Q270 829 283.5 815.5 Q297 802 297 782 Z " />
<glyph glyph-name="edotaccent" unicode="&#x117;" horiz-adv-x="347" d="M318 613 L127 613 L127 403 L260 403 L260 314 L127 314 L127 87 L318 87 L318 -2 L38 -2 L38 702 L318 702 L318 613 Z M314 617 L314 698 L42 698 L42 2 L314 2 L314 83 L123 83 L123 318 L256 318 L256 399 L123 399 L123 617 L314 617 Z M178 825 Q160 825 147.5 812.5 Q135 800 135 782 Q135 764 147.5 751.5 Q160 739 178 739 Q196 739 208.5 751.5 Q221 764 221 782 Q221 800 208.5 812.5 Q196 825 178 825 Z M178 829 Q198 829 211.5 815.5 Q225 802 225 782 Q225 763 211.5 749 Q198 735 178 735 Q159 735 145 749 Q131 763 131 782 Q131 802 145 815.5 Q159 829 178 829 Z " />
<glyph glyph-name="uni1EB9" unicode="&#x1eb9;" horiz-adv-x="347" d="M318 613 L127 613 L127 403 L260 403 L260 314 L127 314 L127 87 L318 87 L318 -2 L38 -2 L38 702 L318 702 L318 613 Z M314 617 L314 698 L42 698 L42 2 L314 2 L314 83 L123 83 L123 318 L256 318 L256 399 L123 399 L123 617 L314 617 Z M178 -42 Q160 -42 147.5 -54.5 Q135 -67 135 -85 Q135 -103 147.5 -115.5 Q160 -128 178 -128 Q196 -128 208.5 -115.5 Q221 -103 221 -85 Q221 -67 208.5 -54.5 Q196 -42 178 -42 Z M178 -38 Q198 -38 211.5 -52 Q225 -66 225 -85 Q225 -105 211.5 -118.5 Q198 -132 178 -132 Q159 -132 145 -118.5 Q131 -105 131 -85 Q131 -66 145 -52 Q159 -38 178 -38 Z " />
<glyph glyph-name="egrave" unicode="&#xe8;" horiz-adv-x="347" d="M318 613 L127 613 L127 403 L260 403 L260 314 L127 314 L127 87 L318 87 L318 -2 L38 -2 L38 702 L318 702 L318 613 Z M314 617 L314 698 L42 698 L42 2 L314 2 L314 83 L123 83 L123 318 L256 318 L256 399 L123 399 L123 617 L314 617 Z M135 840 L55 840 L154 739 L199 739 L135 840 Z M137 844 L207 735 L152 735 L45 844 L137 844 Z " />
<glyph glyph-name="uni1EBB" unicode="&#x1ebb;" horiz-adv-x="347" d="M318 613 L127 613 L127 403 L260 403 L260 314 L127 314 L127 87 L318 87 L318 -2 L38 -2 L38 702 L318 702 L318 613 Z M314 617 L314 698 L42 698 L42 2 L314 2 L314 83 L123 83 L123 318 L256 318 L256 399 L123 399 L123 617 L314 617 Z M105 840 Q148 840 178.5 809 Q209 778 208 735 L161 735 Q162 759 145 776 Q128 793 104 793 L64 832 Q83 840 105 840 Z M105 836 Q83 836 69 829 L69 832 L106 797 Q130 797 147 780 Q164 763 165 739 L204 739 Q203 779 174 807.5 Q145 836 105 836 Z " />
<glyph glyph-name="emacron" unicode="&#x113;" horiz-adv-x="347" d="M318 613 L127 613 L127 403 L260 403 L260 314 L127 314 L127 87 L318 87 L318 -2 L38 -2 L38 702 L318 702 L318 613 Z M314 617 L314 698 L42 698 L42 2 L314 2 L314 83 L123 83 L123 318 L256 318 L256 399 L123 399 L123 617 L314 617 Z M328 739 L328 780 L28 780 L28 739 L328 739 Z M332 735 L24 735 L24 784 L332 784 L332 735 Z " />
<glyph glyph-name="eogonek" unicode="&#x119;" horiz-adv-x="347" d="M127 613 L127 403 L260 403 L260 314 L127 314 L127 87 L318 87 L318 -1 Q295 -9 278.5 -26 Q262 -43 262 -59 Q262 -79 300 -79 L311 -79 L311 -128 L290 -128 Q248 -128 225 -114 Q202 -100 202 -73 Q202 -33 270 2 L271 -2 L38 -2 L38 702 L318 702 L318 613 L127 613 Z M314 698 L42 698 L42 2 L271 2 L272 -2 Q206 -36 206 -73 Q206 -98 228 -111 Q250 -124 290 -124 L307 -124 L307 -83 L300 -83 Q258 -83 258 -59 Q258 -43 274.5 -25 Q291 -7 314 1 L314 83 L123 83 L123 318 L256 318 L256 399 L123 399 L123 617 L314 617 L314 698 Z " />
<glyph glyph-name="uni0258" unicode="&#x258;" horiz-adv-x="347" d="M29 613 L29 702 L309 702 L309 -2 L29 -2 L29 87 L220 87 L220 314 L87 314 L87 403 L220 403 L220 613 L29 613 Z M33 617 L224 617 L224 399 L91 399 L91 318 L224 318 L224 83 L33 83 L33 2 L305 2 L305 698 L33 698 L33 617 Z " />
<glyph glyph-name="uni1EBD" unicode="&#x1ebd;" horiz-adv-x="347" d="M318 613 L127 613 L127 403 L260 403 L260 314 L127 314 L127 87 L318 87 L318 -2 L38 -2 L38 702 L318 702 L318 613 Z M314 617 L314 698 L42 698 L42 2 L314 2 L314 83 L123 83 L123 318 L256 318 L256 399 L123 399 L123 617 L314 617 Z M82 740 Q109 770 131 770 Q147 770 170 757 Q198 739 225 739 Q266 739 303 785 L272 808 Q252 783 232 779 Q213 776 190 790 Q156 810 130 810 Q89 810 52 764 L82 740 Z M46 764 Q86 814 130 814 Q158 814 192 794 Q214 780 232 783 Q251 788 272 814 L309 785 Q271 735 225 735 Q198 735 168 753 Q145 766 130 766 Q109 766 82 734 L46 764 Z " />
<glyph glyph-name="uni01DD" unicode="&#x1dd;" horiz-adv-x="347" d="M29 613 L29 702 L309 702 L309 -2 L29 -2 L29 87 L220 87 L220 314 L87 314 L87 403 L220 403 L220 613 L29 613 Z M33 617 L224 617 L224 399 L91 399 L91 318 L224 318 L224 83 L33 83 L33 2 L305 2 L305 698 L33 698 L33 617 Z " />
<glyph glyph-name="f" unicode="f" horiz-adv-x="333" d="M318 612 L127 612 L127 404 L260 404 L260 315 L127 315 L127 -2 L38 -2 L38 701 L318 701 L318 612 Z M314 616 L314 697 L42 697 L42 2 L123 2 L123 319 L256 319 L256 400 L123 400 L123 616 L314 616 Z " />
<glyph glyph-name="g" unicode="g" horiz-adv-x="385" d="M193 -7 Q259 -7 303 31 Q349 75 349 156 L349 390 L195 390 L195 309 L268 309 L268 156 Q268 114 249.5 94 Q231 74 193 74 Q154 74 135.5 93.5 Q117 113 117 156 L117 544 Q117 587 135.5 606.5 Q154 626 193 626 Q231 626 249.5 606 Q268 586 268 544 L268 482 L349 482 L349 544 Q349 623 303 669 Q259 707 193 707 Q127 707 83 669 Q36 624 36 544 L36 156 Q36 73 83 31 Q127 -7 193 -7 Z M193 -11 Q124 -11 81 29 Q32 72 32 156 L32 544 Q32 626 81 671 Q124 711 193 711 Q262 711 305 671 Q353 625 353 544 L353 478 L264 478 L264 544 Q264 584 247 603 Q230 622 193 622 Q156 622 138.5 603.5 Q121 585 121 544 L121 156 Q121 115 138.5 96.5 Q156 78 193 78 Q230 78 247 97 Q264 116 264 156 L264 305 L191 305 L191 394 L353 394 L353 156 Q353 73 305 29 Q262 -11 193 -11 Z " />
</font>
</svg>
