<?xml version="1.0" encoding="UTF-8"?>
<svg xmlns="http://www.w3.org/2000/svg" xmlns:xlink="http://www.w3.org/1999/xlink" version="1.2" >
<font id="Bodoni URW Extra Narrow Light">
<font-face  font-family="Bodoni URW Extra Narrow" units-per-em="1000" ascent="667" descent="-333" font-style="normal" font-weight="300" font-stretch="semi-condensed" cap-height="667" x-height="387" underline-position="-88" underline-thickness="46" />
<missing-glyph  horiz-adv-x="250" d="" />
<glyph glyph-name="NULL" d="" />
<glyph glyph-name="CR" unicode="&#xd;" horiz-adv-x="250" d="" />
<glyph glyph-name="space" unicode="&#x20;" horiz-adv-x="250" d="" />
<glyph glyph-name="exclam" unicode="&#x21;" horiz-adv-x="246" d="M130 197 L131 219 C134 353 136 382 150 480 L166 577 C168 588 169 598 169 606 C169 647 149 677 123 677 C97 677 77 647 77 607 C77 598 78 588 80 577 L96 480 C110 382 112 345 116 197 L130 197 Z M123 107 C95 107 72 81 72 50 C72 19 95 -7 123 -7 C151 -7 174 18 174 49 C174 82 152 107 123 107 L123 107 Z " />
<glyph glyph-name="quotedbl" unicode="&#x22;" horiz-adv-x="267" d="M84 413 L106 576 C109 592 110 607 110 617 C110 652 95 677 72 677 C51 677 36 652 36 616 C36 607 37 590 39 576 L62 413 L84 413 Z M204 413 L227 576 C230 597 231 606 231 617 C231 652 216 677 193 677 C172 677 157 652 157 616 C157 607 159 587 160 576 L183 413 L204 413 Z " />
<glyph glyph-name="numbersign" unicode="&#x23;" horiz-adv-x="450" d="M186 442 L212 647 L158 647 L132 442 L50 442 L50 417 L129 417 L106 238 L24 238 L24 213 L103 213 L76 0 L130 0 L157 213 L263 213 L236 0 L290 0 L317 213 L399 213 L398 238 L321 238 L343 417 L425 417 L424 442 L346 442 L372 647 L318 647 L292 442 L186 442 Z M183 417 L289 417 L266 238 L160 238 L183 417 Z " />
<glyph glyph-name="dollar" unicode="&#x24;" horiz-adv-x="450" d="M234 395 L234 648 C288 645 312 625 310 581 C311 553 313 540 318 526 C325 505 340 493 359 493 C379 493 393 515 393 545 C393 612 322 666 234 668 L234 749 L205 749 L205 667 C112 654 48 582 48 488 C48 420 82 369 153 326 L205 296 L205 21 C150 27 127 52 125 110 C124 118 122 125 120 133 C119 139 118 146 117 153 C113 199 101 218 75 218 C51 218 32 190 32 153 C32 77 107 10 205 1 L205 -88 L234 -88 L234 1 C326 7 397 94 397 201 C397 272 366 319 294 361 L234 395 Z M212 411 L180 427 C124 456 95 495 95 541 C95 598 141 640 212 647 L212 411 Z M234 280 L277 255 C317 231 342 190 342 148 C342 81 297 28 234 21 L234 280 Z " />
<glyph glyph-name="percent" unicode="&#x25;" horiz-adv-x="618" d="M151 653 C83 653 25 576 25 487 C25 397 83 320 151 320 C217 320 276 397 276 485 C276 576 218 653 151 653 L151 653 Z M94 521 C94 606 108 635 151 635 C193 635 207 606 207 521 L207 451 C207 367 193 338 151 338 C108 338 94 367 94 451 L94 521 Z M457 647 L431 647 L160 0 L187 0 L457 647 Z M468 327 C400 327 342 250 342 161 C342 71 400 -6 468 -6 C534 -6 593 71 593 159 C593 250 535 327 468 327 L468 327 Z M411 196 C411 280 425 309 468 309 C510 309 524 280 524 196 L524 126 C524 41 510 12 468 12 C425 12 411 41 411 126 L411 196 Z " />
<glyph glyph-name="ampersand" unicode="&#x26;" horiz-adv-x="535" d="M372 0 L511 0 L511 18 L441 18 L385 112 C428 184 441 229 444 322 L511 322 L511 340 L351 340 L351 322 L425 322 C426 246 407 176 372 131 L249 340 C328 376 358 409 358 460 C358 515 314 551 245 551 C172 551 122 511 122 453 C122 430 128 413 147 380 L180 322 C131 295 112 282 89 260 C55 228 36 184 36 140 C36 100 53 56 78 29 C103 4 139 -10 185 -10 C246 -10 295 10 337 54 L372 0 Z M209 408 C196 431 185 465 185 483 C185 514 206 531 246 531 C283 531 301 508 301 461 C301 401 285 373 241 353 L209 408 Z M328 71 C293 34 268 21 236 21 C200 21 170 44 143 92 C120 133 106 176 106 205 C106 244 129 272 189 306 L328 71 Z " />
<glyph glyph-name="quotesingle" unicode="&#x27;" horiz-adv-x="146" d="M84 413 L106 576 C109 592 110 607 110 617 C110 652 95 677 72 677 C51 677 36 652 36 616 C36 607 37 590 39 576 L62 413 L84 413 Z " />
<glyph glyph-name="parenleft" unicode="&#x28;" horiz-adv-x="238" d="M197 674 C91 527 34 376 34 244 C34 111 90 -38 197 -186 L208 -177 C140 -35 112 88 112 244 C112 399 140 523 208 665 L197 674 Z " />
<glyph glyph-name="parenright" unicode="&#x29;" horiz-adv-x="238" d="M30 665 C98 524 126 399 126 244 C126 88 98 -35 30 -177 L41 -186 C147 -39 204 111 204 244 C204 376 147 527 41 674 L30 665 Z " />
<glyph glyph-name="asterisk" unicode="&#x2a;" horiz-adv-x="450" d="M222 510 C215 508 213 506 210 500 L127 554 C106 568 101 570 91 570 C76 570 63 554 63 535 C63 512 74 504 112 501 L207 492 C207 485 208 482 212 477 L141 406 C118 385 114 378 114 365 C114 347 129 331 146 331 C162 331 168 339 181 373 L218 472 C221 470 223 470 225 470 C227 470 229 470 233 472 L271 375 C284 340 291 332 306 332 C323 332 338 348 338 366 C338 379 334 386 312 407 L239 477 C242 483 243 485 243 492 L338 503 C376 506 387 514 387 537 C387 556 374 572 359 572 C349 572 345 570 323 555 L241 500 C237 506 235 508 229 510 L250 613 C254 634 254 635 254 644 C254 664 242 677 224 677 C207 677 195 664 195 643 C195 635 195 635 200 613 L222 510 Z " />
<glyph glyph-name="plus" unicode="&#x2b;" horiz-adv-x="450" d="M211 308 L211 131 L241 131 L241 308 L403 308 L403 338 L241 338 L241 515 L211 515 L211 338 L46 338 L46 308 L211 308 Z " />
<glyph glyph-name="comma" unicode="&#x2c;" horiz-adv-x="222" d="M125 56 C144 43 153 26 153 -2 C153 -44 133 -83 82 -140 L93 -152 C147 -99 176 -43 176 12 C176 69 144 112 101 112 C69 112 46 86 46 48 C46 15 63 -7 87 -7 C109 -7 125 13 125 41 L125 56 Z " />
<glyph glyph-name="hyphen" unicode="&#x2d;" horiz-adv-x="170" d="M170 230 L0 230 L0 170 L170 170 L170 230 Z " />
<glyph glyph-name="period" unicode="&#x2e;" horiz-adv-x="222" d="M111 107 C83 107 60 81 60 50 C60 19 83 -7 111 -7 C139 -7 162 18 162 49 C162 82 140 107 111 107 L111 107 Z " />
<glyph glyph-name="slash" unicode="&#x2f;" horiz-adv-x="367" d="M335 667 L287 667 L-35 -180 L13 -180 L335 667 Z " />
<glyph glyph-name="zero" unicode="0" horiz-adv-x="450" d="M226 657 C181 657 142 632 109 583 C66 519 38 417 38 323 C38 236 62 142 101 77 C136 18 177 -10 226 -10 C270 -10 308 14 342 65 C385 128 413 230 413 320 C413 503 328 657 226 657 L226 657 Z M131 396 C131 574 156 637 226 637 C296 637 320 575 320 396 L320 251 C320 72 296 10 226 10 C156 10 131 73 131 251 L131 396 Z " />
<glyph glyph-name="one" unicode="1" horiz-adv-x="450" d="M277 647 L102 637 L102 621 L178 621 C195 621 197 618 197 595 L197 18 L102 18 L102 0 L372 0 L372 18 L277 18 L277 647 Z " />
<glyph glyph-name="two" unicode="2" horiz-adv-x="450" d="M388 0 L388 177 L376 177 C365 82 362 78 299 77 L95 77 L240 243 C315 327 315 327 338 361 C370 408 386 453 386 494 C386 589 316 657 218 657 C126 657 60 595 60 509 C60 457 86 419 122 419 C146 419 163 438 163 464 C163 489 146 508 124 508 C119 508 114 507 109 505 C95 500 95 500 93 500 C86 500 81 509 81 523 C81 582 131 634 186 634 C252 634 296 566 296 462 C296 417 289 381 272 347 C252 305 216 250 183 211 L41 46 L41 0 L388 0 Z " />
<glyph glyph-name="three" unicode="3" horiz-adv-x="450" d="M123 358 L123 340 L156 340 C257 340 302 289 302 172 C302 67 263 10 191 10 C167 10 142 18 125 32 C112 42 103 56 103 64 C103 69 104 71 113 79 C123 89 128 102 128 120 C128 148 115 166 94 166 C70 166 54 143 54 109 C54 40 115 -10 200 -10 C313 -10 395 71 395 185 C395 245 365 297 318 323 C292 337 270 343 216 349 C261 360 282 370 310 397 C345 430 362 469 362 513 C362 597 300 657 214 657 C141 657 85 612 85 552 C85 521 101 498 121 498 C139 498 153 517 153 542 C153 560 148 574 137 583 C131 589 130 591 130 596 C130 615 163 634 198 634 C253 634 275 601 275 519 C275 457 269 427 251 401 C232 373 199 358 156 358 L123 358 Z " />
<glyph glyph-name="four" unicode="4" horiz-adv-x="450" d="M316 174 L393 174 L393 99 L414 99 L414 273 L393 273 L393 199 L316 199 L316 654 L277 654 L24 216 L24 174 L236 174 L236 18 L152 18 L152 0 L387 0 L387 18 L316 18 L316 174 Z M236 199 L41 199 L236 546 L236 199 Z " />
<glyph glyph-name="five" unicode="5" horiz-adv-x="450" d="M122 570 L289 570 C340 569 352 586 357 672 L345 672 C336 650 331 647 308 647 L145 647 C109 647 102 639 102 597 L90 339 C129 362 146 368 175 368 C258 368 302 309 302 198 C302 76 263 10 192 10 C151 10 97 39 97 61 C97 65 98 68 101 70 C122 87 128 99 128 124 C128 150 113 168 92 168 C69 168 51 142 51 108 C51 41 116 -10 201 -10 C310 -10 395 78 395 191 C395 306 312 388 195 388 C163 388 142 384 112 372 L122 570 Z " />
<glyph glyph-name="six" unicode="6" horiz-adv-x="450" d="M364 687 C292 671 247 650 196 610 C97 533 41 406 41 260 C41 186 55 125 84 78 C116 24 173 -10 232 -10 C333 -10 413 88 413 213 C413 338 341 429 243 429 C201 429 171 415 137 380 C147 537 221 630 364 667 L364 687 Z M230 407 C265 407 296 384 307 350 C316 319 320 275 320 201 C320 58 297 10 230 10 C163 10 134 71 134 209 C134 276 138 317 147 343 C161 382 194 407 230 407 L230 407 Z " />
<glyph glyph-name="seven" unicode="7" horiz-adv-x="450" d="M368 570 L250 280 C243 264 218 195 205 157 C189 112 182 81 182 53 C182 14 199 -10 227 -10 C252 -10 272 14 272 47 C272 54 269 76 267 88 L259 127 C255 142 254 154 254 165 C254 209 271 269 316 379 L416 629 C419 637 421 641 421 641 C421 646 418 647 409 647 L82 647 L41 468 L56 468 L72 516 C85 560 96 568 140 570 L368 570 Z " />
<glyph glyph-name="eight" unicode="8" horiz-adv-x="450" d="M257 343 C344 368 387 417 387 493 C387 584 315 657 225 657 C136 657 64 584 64 493 C64 417 107 367 193 343 C152 334 133 327 109 310 C64 278 38 226 38 169 C38 67 119 -10 225 -10 C332 -10 413 67 413 169 C413 226 387 278 342 310 C317 327 298 334 257 343 L257 343 Z M225 637 C280 637 301 599 301 498 C301 396 280 358 225 358 C170 358 150 397 150 500 C150 598 172 637 225 637 L225 637 Z M225 331 C286 331 319 273 319 169 C319 68 285 10 225 10 C166 10 132 68 132 170 C132 273 166 331 225 331 L225 331 Z " />
<glyph glyph-name="nine" unicode="9" horiz-adv-x="450" d="M81 -41 C161 -26 216 3 273 59 C360 143 408 261 408 391 C408 548 332 657 224 657 C121 657 37 551 37 422 C37 306 115 212 211 212 C257 212 283 228 314 274 C296 99 217 -1 81 -21 L81 -41 Z M222 637 C267 637 297 607 306 554 C311 520 315 464 315 418 C315 359 309 318 297 293 C280 255 250 234 216 234 C156 234 130 286 130 409 C130 478 133 525 140 559 C150 609 180 637 222 637 L222 637 Z " />
<glyph glyph-name="colon" unicode="&#x3a;" horiz-adv-x="222" d="M111 400 C83 400 60 375 60 344 C60 313 83 287 111 287 C139 287 162 312 162 343 C162 375 140 400 111 400 L111 400 Z M111 107 C83 107 60 81 60 50 C60 19 83 -7 111 -7 C139 -7 162 18 162 49 C162 82 140 107 111 107 L111 107 Z " />
<glyph glyph-name="semicolon" unicode="&#x3b;" horiz-adv-x="222" d="M100 400 C72 400 49 374 49 343 C49 312 72 287 100 287 C128 287 151 312 151 343 C151 375 129 400 100 400 L100 400 Z M125 56 C144 43 153 26 153 -2 C153 -44 133 -83 82 -140 L93 -152 C147 -99 176 -43 176 12 C176 69 144 112 101 112 C69 112 46 86 46 48 C46 15 63 -7 87 -7 C109 -7 125 13 125 41 L125 56 Z " />
<glyph glyph-name="less" unicode="&#x3c;" horiz-adv-x="450" d="M410 595 L41 327 L41 322 L410 52 L410 114 L99 343 L410 571 L410 595 Z " />
<glyph glyph-name="equal" unicode="&#x3d;" horiz-adv-x="450" d="M404 399 L46 399 L46 369 L404 369 L404 399 Z M404 279 L46 279 L46 249 L404 249 L404 279 Z " />
<glyph glyph-name="greater" unicode="&#x3e;" horiz-adv-x="450" d="M41 52 L410 319 L410 324 L41 595 L41 532 L352 303 L41 75 L41 52 Z " />
<glyph glyph-name="question" unicode="&#x3f;" horiz-adv-x="339" d="M132 196 C132 261 139 276 189 324 L235 365 C281 406 303 455 303 514 C303 609 245 677 164 677 C90 677 34 620 34 546 C34 512 49 488 71 488 C91 488 104 505 104 531 C104 551 98 565 83 575 C72 583 70 586 70 594 C70 625 118 657 164 657 C220 657 262 619 262 569 C262 540 244 499 221 476 L192 446 C133 386 117 344 117 252 C117 233 118 220 121 193 L132 196 Z M132 107 C104 107 81 81 81 50 C81 19 104 -7 132 -7 C160 -7 183 18 183 49 C183 82 161 107 132 107 L132 107 Z " />
<glyph glyph-name="at" unicode="&#x40;" horiz-adv-x="670" d="M531 83 C475 34 420 12 355 12 C201 12 79 151 79 327 C79 500 200 639 351 639 C416 639 475 613 521 563 C569 512 591 453 591 379 C591 309 565 250 514 206 C490 185 467 174 448 174 C434 174 428 181 428 196 C428 206 431 226 436 248 L487 487 L430 487 L418 432 C405 479 386 496 346 496 C265 496 182 388 182 282 C182 205 225 149 284 149 C324 149 356 174 378 223 C382 165 395 148 438 148 C467 148 497 160 527 184 C587 232 619 300 619 379 C619 540 503 664 352 664 C186 664 51 512 51 326 C51 138 185 -13 353 -13 C436 -13 513 21 567 83 L531 83 Z M357 479 C388 479 407 450 407 402 C407 368 394 300 377 253 C356 192 329 163 293 163 C264 163 246 190 246 232 C246 274 264 356 285 409 C303 453 330 479 357 479 L357 479 Z " />
<glyph glyph-name="A" unicode="A" horiz-adv-x="546" d="M329 214 L389 18 L304 18 L304 0 L549 0 L549 18 L480 18 L283 667 L259 667 L54 18 L-3 18 L-3 0 L156 0 L156 18 L77 18 L138 214 L329 214 Z M323 232 L144 232 L234 527 L323 232 Z " />
<glyph glyph-name="B" unicode="B" horiz-adv-x="554" d="M106 18 L30 18 L30 0 L277 0 C362 0 411 12 450 44 C489 75 509 121 509 179 C509 232 494 269 459 300 C429 327 399 339 338 350 C436 373 486 426 486 504 C486 556 462 602 419 631 C383 655 330 667 255 667 L30 667 L30 649 L106 649 L106 18 Z M199 358 L199 649 L247 649 C349 649 388 608 388 501 C388 398 352 358 260 358 L199 358 Z M199 18 L199 340 L257 340 C359 340 398 296 398 179 C398 67 361 18 276 18 L199 18 Z " />
<glyph glyph-name="C" unicode="C" horiz-adv-x="532" d="M489 667 L477 667 L447 617 C396 661 357 677 303 677 C230 677 163 639 112 568 C65 504 42 423 42 328 C42 141 156 -10 297 -10 C348 -10 389 6 447 50 L477 0 L489 0 L489 185 L477 185 C460 133 450 110 433 85 C400 36 355 10 304 10 C249 10 200 41 177 90 C160 128 155 179 155 324 C155 431 160 506 169 543 C186 615 237 657 308 657 C355 657 397 637 429 599 C454 570 465 545 477 494 L489 494 L489 667 Z " />
<glyph glyph-name="D" unicode="D" horiz-adv-x="606" d="M106 18 L30 18 L30 0 L260 0 C376 0 429 22 486 92 C536 154 564 240 564 334 C564 428 537 514 489 573 C434 641 371 667 259 667 L30 667 L30 649 L106 649 L106 18 Z M199 18 L199 649 L259 649 C332 649 371 636 403 603 C438 566 451 499 451 346 C451 204 442 127 421 90 C393 38 347 18 260 18 L199 18 Z " />
<glyph glyph-name="E" unicode="E" horiz-adv-x="527" d="M455 667 L30 667 L30 649 L108 649 L108 18 L30 18 L30 0 L475 0 L492 208 L480 208 C468 154 456 116 444 92 C410 27 394 17 313 18 L201 18 L201 329 L238 329 C302 330 329 299 330 221 L330 198 L342 198 L342 472 L330 472 L330 453 C330 376 305 347 240 347 L201 347 L201 649 L272 649 C391 651 429 617 455 486 L467 486 L455 667 Z " />
<glyph glyph-name="F" unicode="F" horiz-adv-x="481" d="M457 667 L30 667 L30 649 L108 649 L108 18 L30 18 L30 0 L276 0 L276 18 L201 18 L201 329 L249 329 C318 330 343 304 347 227 L347 205 L359 205 L359 475 L347 475 L347 457 C343 364 327 346 250 347 L201 347 L201 649 L293 649 C393 653 438 605 457 475 L469 475 L457 667 Z " />
<glyph glyph-name="G" unicode="G" horiz-adv-x="571" d="M477 667 L465 667 L435 625 C388 661 347 677 298 677 C236 677 178 648 130 593 C71 525 42 437 42 328 C42 235 63 161 109 95 C157 25 218 -10 292 -10 C357 -10 414 18 454 70 C480 104 491 137 502 212 L562 212 L562 230 L310 230 L310 212 L404 212 C403 153 402 129 396 106 C380 44 341 10 285 10 C227 10 187 44 170 109 C160 144 155 213 155 317 C155 431 162 522 175 562 C194 623 238 657 299 657 C382 657 438 594 465 471 L477 471 L477 667 Z " />
<glyph glyph-name="H" unicode="H" horiz-adv-x="639" d="M438 330 L438 18 L363 18 L363 0 L609 0 L609 18 L531 18 L531 649 L609 649 L609 667 L363 667 L363 649 L438 649 L438 348 L201 348 L201 649 L276 649 L276 667 L30 667 L30 649 L108 649 L108 18 L30 18 L30 0 L276 0 L276 18 L201 18 L201 330 L438 330 Z " />
<glyph glyph-name="I" unicode="I" horiz-adv-x="300" d="M108 18 L30 18 L30 0 L270 0 L270 18 L201 18 L201 649 L270 649 L270 667 L30 667 L30 649 L108 649 L108 18 Z " />
<glyph glyph-name="J" unicode="J" horiz-adv-x="345" d="M258 649 L327 649 L327 667 L87 667 L87 649 L165 649 L165 63 C165 30 163 5 159 -9 C150 -37 130 -55 107 -55 C93 -55 80 -45 80 -34 C80 -32 81 -29 82 -27 C87 -11 89 -3 89 10 C89 38 74 58 53 58 C30 58 12 36 12 6 C12 -42 49 -75 102 -75 C148 -75 191 -51 222 -8 C249 30 258 70 258 149 L258 649 Z " />
<glyph glyph-name="K" unicode="K" horiz-adv-x="590" d="M108 18 L30 18 L30 0 L270 0 L270 18 L201 18 L201 649 L270 649 L270 667 L30 667 L30 649 L108 649 L108 18 Z M282 407 L477 649 L552 649 L552 667 L362 667 L362 649 L449 649 L209 353 L435 18 L355 18 L355 0 L590 0 L590 18 L544 18 L282 407 Z " />
<glyph glyph-name="L" unicode="L" horiz-adv-x="510" d="M474 0 L486 205 L474 205 C446 56 412 15 320 18 L201 18 L201 649 L270 649 L270 667 L30 667 L30 649 L108 649 L108 18 L30 18 L30 0 L474 0 Z " />
<glyph glyph-name="M" unicode="M" horiz-adv-x="687" d="M301 0 L319 0 L489 644 L489 18 L420 18 L420 0 L660 0 L660 18 L582 18 L582 649 L660 649 L660 667 L477 667 L346 166 L207 667 L27 667 L27 649 L99 649 L99 18 L27 18 L27 0 L198 0 L198 18 L122 18 L122 649 L301 0 Z " />
<glyph glyph-name="N" unicode="N" horiz-adv-x="611" d="M499 0 L515 0 L515 649 L581 649 L581 667 L416 667 L416 649 L492 649 L492 185 L211 667 L21 667 L21 649 L99 649 L99 18 L21 18 L21 0 L204 0 L204 18 L122 18 L122 644 L499 0 Z " />
<glyph glyph-name="O" unicode="O" horiz-adv-x="594" d="M297 677 C230 677 169 644 119 582 C69 519 42 433 42 334 C42 139 153 -10 297 -10 C440 -10 552 139 552 330 C552 426 530 505 486 568 C436 639 370 677 297 677 L297 677 Z M297 657 C357 657 404 620 424 559 C436 519 439 480 439 329 C439 203 437 161 428 124 C411 52 363 10 297 10 C237 10 190 46 170 108 C158 148 155 188 155 333 C155 464 157 506 166 543 C183 615 231 657 297 657 L297 657 Z " />
<glyph glyph-name="P" unicode="P" horiz-adv-x="515" d="M201 323 L282 323 C353 323 400 336 436 366 C474 398 495 443 495 492 C495 541 475 588 440 621 C406 652 356 667 282 667 L30 667 L30 649 L108 649 L108 18 L30 18 L30 0 L276 0 L276 18 L201 18 L201 323 Z M201 341 L201 649 L276 649 C360 649 382 617 382 496 C382 375 359 341 276 341 L201 341 Z " />
<glyph glyph-name="Q" unicode="Q" horiz-adv-x="594" d="M339 -6 C464 21 552 161 552 334 C552 528 441 677 297 677 C153 677 42 528 42 334 C42 161 129 22 255 -6 L255 -19 C258 -161 329 -214 519 -217 L519 -204 C380 -198 339 -155 339 -13 L339 -6 Z M297 657 C357 657 404 620 424 559 C436 519 439 480 439 329 C439 203 437 161 428 124 C411 52 363 10 297 10 C237 10 190 46 170 108 C158 148 155 188 155 333 C155 464 157 506 166 543 C183 615 231 657 297 657 L297 657 Z " />
<glyph glyph-name="R" unicode="R" horiz-adv-x="579" d="M201 345 L250 345 C337 342 368 308 372 214 L372 165 C372 107 381 71 402 42 C425 10 453 -5 492 -5 C517 -5 531 -1 555 12 L551 29 C533 19 524 16 513 16 C497 16 482 27 475 42 C469 56 467 72 467 108 L467 163 C465 270 408 334 301 350 C371 359 403 371 435 400 C470 430 487 468 487 512 C487 564 468 605 430 633 C396 659 360 667 275 667 L30 667 L30 649 L108 649 L108 18 L30 18 L30 0 L276 0 L276 18 L201 18 L201 345 Z M201 363 L201 649 L258 649 C346 649 384 606 384 506 C384 409 342 363 253 363 L201 363 Z " />
<glyph glyph-name="S" unicode="S" horiz-adv-x="451" d="M374 676 L362 676 L334 633 C295 663 259 677 219 677 C126 677 55 591 55 479 C55 389 95 337 184 310 L254 290 C329 267 360 229 360 158 C360 70 308 10 230 10 C176 10 125 42 94 96 C76 126 69 152 61 207 L43 207 L49 0 L61 0 L93 56 C140 8 177 -10 231 -10 C336 -10 408 82 408 216 C408 322 365 381 265 409 L217 423 C135 447 102 478 102 535 C102 603 153 657 217 657 C264 657 304 634 330 593 C345 569 351 547 357 503 L375 503 L374 676 Z " />
<glyph glyph-name="T" unicode="T" horiz-adv-x="525" d="M313 649 L353 649 C432 648 466 604 500 457 L512 459 L500 667 L19 667 L12 459 L24 457 C35 517 46 551 66 587 C97 638 117 649 177 649 L220 649 L220 18 L130 18 L130 0 L393 0 L393 18 L313 18 L313 649 Z " />
<glyph glyph-name="U" unicode="U" horiz-adv-x="578" d="M180 649 L258 649 L258 667 L18 667 L18 649 L87 649 L87 249 C87 139 101 84 141 44 C175 10 234 -10 304 -10 C377 -10 428 15 460 67 C482 103 490 145 490 222 L490 649 L553 649 L553 667 L395 667 L395 649 L467 649 L467 222 C467 144 463 119 447 87 C422 37 379 10 324 10 C278 10 236 29 211 62 C187 94 180 126 180 205 L180 649 Z " />
<glyph glyph-name="V" unicode="V" horiz-adv-x="499" d="M293 144 L135 649 L221 649 L221 667 L-15 667 L-15 649 L43 649 L251 -10 L270 -10 L457 649 L517 649 L517 667 L347 667 L347 649 L436 649 L293 144 Z " />
<glyph glyph-name="W" unicode="W" horiz-adv-x="706" d="M506 143 L410 431 L480 649 L530 649 L530 667 L-9 667 L-9 649 L44 649 L253 -10 L270 -10 L369 292 L465 -10 L481 -10 L669 649 L718 649 L718 667 L567 667 L567 649 L648 649 L506 143 Z M135 649 L251 649 L357 325 L296 135 L135 649 Z M333 649 L466 649 L400 467 L333 649 Z " />
<glyph glyph-name="X" unicode="X" horiz-adv-x="524" d="M284 385 L434 649 L498 649 L498 667 L329 667 L329 649 L409 649 L273 408 L144 649 L233 649 L233 667 L-9 667 L-9 649 L41 649 L221 310 L62 18 L-1 18 L-1 0 L170 0 L170 18 L88 18 L233 288 L375 18 L295 18 L295 0 L533 0 L533 18 L479 18 L284 385 Z " />
<glyph glyph-name="Y" unicode="Y" horiz-adv-x="496" d="M308 312 L453 649 L514 649 L514 667 L342 667 L342 649 L430 649 L301 353 L135 649 L215 649 L215 667 L-18 667 L-18 649 L33 649 L215 312 L215 18 L125 18 L125 0 L388 0 L388 18 L308 18 L308 312 Z " />
<glyph glyph-name="Z" unicode="Z" horiz-adv-x="502" d="M461 0 L478 208 L466 208 C432 54 397 13 300 18 L125 18 L478 667 L73 667 L55 464 L67 464 C98 604 131 648 208 649 L372 649 L27 24 L27 0 L461 0 Z " />
<glyph glyph-name="bracketleft" unicode="&#x5b;" horiz-adv-x="238" d="M135 649 L232 649 L232 667 L60 667 L60 -180 L232 -180 L232 -162 L135 -162 L135 649 Z " />
<glyph glyph-name="backslash" unicode="&#x5c;" horiz-adv-x="367" d="M37 667 L359 -180 L407 -180 L85 667 L37 667 Z " />
<glyph glyph-name="bracketright" unicode="&#x5d;" horiz-adv-x="238" d="M103 -162 L6 -162 L6 -180 L178 -180 L178 667 L6 667 L6 649 L103 649 L103 -162 Z " />
<glyph glyph-name="asciicircum" unicode="&#x5e;" horiz-adv-x="450" d="M472 285 L233 700 L227 700 L-23 285 L73 285 L257 591 L436 285 L472 285 Z " />
<glyph glyph-name="underscore" unicode="&#x5f;" horiz-adv-x="496" d="M19 -88 L19 -134 L476 -134 L476 -88 L19 -88 Z " />
<glyph glyph-name="grave" unicode="&#x60;" horiz-adv-x="467" d="M176 613 L111 613 C103 613 99 611 99 606 C99 603 102 598 106 595 L265 466 C268 463 269 463 270 463 C272 463 273 464 273 466 C273 467 273 469 272 470 L176 613 Z " />
<glyph glyph-name="a" unicode="a" horiz-adv-x="380" d="M237 215 C174 213 145 208 113 193 C63 171 35 131 35 82 C35 26 71 -10 127 -10 C177 -10 210 15 237 71 C244 13 264 -10 307 -10 C330 -10 340 -6 371 18 L364 30 C353 19 346 15 338 15 C320 15 314 26 314 57 L314 282 C314 324 306 348 286 366 C264 385 228 397 191 397 C120 397 58 352 58 300 C58 275 71 257 90 257 C108 257 121 274 121 298 C121 309 119 315 114 329 C111 336 110 339 110 342 C110 359 147 380 178 380 C219 380 237 359 237 315 L237 215 Z M237 167 C237 131 234 106 229 90 C218 54 192 30 164 30 C132 30 111 58 111 99 C111 132 123 158 148 176 C171 193 191 198 237 200 L237 167 Z " />
<glyph glyph-name="b" unicode="b" horiz-adv-x="444" d="M153 667 L16 667 L16 649 L76 649 L76 18 L16 18 L16 0 L153 0 L153 69 C184 10 211 -10 258 -10 C342 -10 407 81 407 197 C407 312 344 397 259 397 C212 397 181 373 153 313 L153 667 Z M314 163 C314 120 312 87 310 72 C302 31 282 10 249 10 C221 10 195 28 177 60 C160 90 151 138 151 201 C151 307 189 377 247 377 C272 377 293 363 303 339 C312 320 314 298 314 244 L314 163 Z " />
<glyph glyph-name="c" unicode="c" horiz-adv-x="363" d="M336 126 C318 51 275 10 214 10 C183 10 160 24 145 51 C133 72 129 103 129 165 L129 228 C129 336 154 378 219 378 C252 378 283 365 283 350 C283 348 283 346 279 341 C274 330 270 313 270 298 C270 268 283 249 304 249 C325 249 339 268 339 296 C339 354 288 397 218 397 C115 397 36 308 36 192 C36 79 112 -10 208 -10 C251 -10 289 8 317 41 C334 62 342 81 353 126 L336 126 Z " />
<glyph glyph-name="d" unicode="d" horiz-adv-x="442" d="M289 0 L426 0 L426 18 L366 18 L366 667 L225 667 L225 649 L289 649 L289 307 C260 372 230 397 181 397 C97 397 36 312 36 194 C36 76 98 -10 183 -10 C232 -10 260 15 289 84 L289 0 Z M129 233 C129 277 132 315 137 331 C146 361 164 377 191 377 C249 377 287 305 287 192 C287 83 249 10 193 10 C168 10 149 26 139 55 C132 77 129 106 129 165 L129 233 Z " />
<glyph glyph-name="e" unicode="e" horiz-adv-x="389" d="M127 228 L356 228 C353 326 288 397 204 397 C154 397 112 373 79 325 C51 285 36 239 36 192 C36 83 117 -10 211 -10 C285 -10 340 44 354 130 L336 130 C323 56 277 10 216 10 C186 10 160 23 146 45 C131 68 127 92 127 151 L127 228 Z M275 246 L127 246 L127 280 C127 346 152 377 204 377 C254 377 275 351 275 289 L275 246 Z " />
<glyph glyph-name="f" unicode="f" horiz-adv-x="268" d="M170 369 L247 369 L247 387 L170 387 L170 557 C170 609 172 622 182 640 C190 653 203 661 219 661 C232 661 240 658 247 649 C235 636 231 625 231 608 C231 584 243 566 260 566 C278 566 291 585 291 610 C291 649 260 677 218 677 C185 677 153 659 129 627 C101 588 93 552 93 474 L93 387 L14 387 L14 369 L93 369 L93 18 L14 18 L14 0 L241 0 L241 18 L170 18 L170 369 Z " />
<glyph glyph-name="g" unicode="g" horiz-adv-x="393" d="M126 18 C82 18 60 30 60 54 C60 77 85 106 129 133 C152 122 171 117 195 117 C269 117 327 177 327 254 C327 290 320 312 297 343 C309 355 317 361 325 361 C332 361 337 357 338 349 C341 324 349 315 365 315 C382 315 393 329 393 352 C393 376 377 391 352 391 C330 391 315 382 286 353 C254 386 228 397 188 397 C110 397 53 339 53 259 C53 210 69 178 112 144 C106 139 106 139 99 134 C74 116 74 116 68 110 C38 82 24 53 24 20 C24 -26 48 -55 97 -69 C44 -93 25 -116 25 -157 C25 -224 93 -274 186 -274 C294 -274 370 -198 370 -89 C370 -44 358 -13 334 3 C316 15 297 18 251 18 L126 18 Z M135 288 C135 354 149 377 190 377 C233 377 244 360 244 293 L244 228 C244 156 233 137 189 137 C146 137 135 156 135 228 L135 288 Z M114 -70 L151 -70 L269 -70 C325 -70 325 -70 338 -75 C353 -80 361 -94 361 -115 C361 -191 283 -254 188 -254 C110 -254 58 -211 58 -148 C58 -118 68 -96 95 -70 L114 -70 Z " />
<glyph glyph-name="h" unicode="h" horiz-adv-x="470" d="M153 667 L16 667 L16 649 L76 649 L76 18 L16 18 L16 0 L205 0 L205 18 L153 18 L153 177 C153 235 158 280 168 304 C187 348 221 374 261 374 C306 374 324 349 324 286 L324 18 L264 18 L264 0 L453 0 L453 18 L401 18 L401 286 C401 361 365 397 289 397 C231 397 196 379 153 327 L153 667 Z " />
<glyph glyph-name="i" unicode="i" horiz-adv-x="238" d="M162 387 L33 387 L33 369 L85 369 L85 18 L33 18 L33 0 L222 0 L222 18 L162 18 L162 387 Z M121 654 C92 654 68 630 68 601 C68 571 92 547 122 547 C151 547 175 571 175 600 C175 630 152 654 121 654 L121 654 Z " />
<glyph glyph-name="j" unicode="j" horiz-adv-x="214" d="M152 387 L15 387 L15 369 L75 369 L75 -182 C75 -233 65 -254 41 -254 C24 -254 21 -249 19 -219 L17 -207 C16 -170 8 -157 -14 -157 C-33 -157 -45 -174 -45 -202 C-45 -244 -11 -274 35 -274 C72 -274 107 -252 128 -217 C147 -185 152 -154 152 -77 L152 387 Z M108 654 C79 654 55 630 55 601 C55 571 79 547 109 547 C138 547 162 571 162 600 C162 630 139 654 108 654 L108 654 Z " />
<glyph glyph-name="k" unicode="k" horiz-adv-x="441" d="M145 667 L16 667 L16 649 L68 649 L68 18 L16 18 L16 0 L205 0 L205 18 L145 18 L145 667 Z M231 250 L347 369 L407 369 L407 387 L231 387 L231 369 L316 369 L164 214 L298 18 L249 18 L249 0 L440 0 L440 18 L397 18 L231 250 Z " />
<glyph glyph-name="l" unicode="l" horiz-adv-x="221" d="M145 667 L7 667 L7 649 L68 649 L68 18 L7 18 L7 0 L214 0 L214 18 L145 18 L145 667 Z " />
<glyph glyph-name="m" unicode="m" horiz-adv-x="681" d="M170 387 L33 387 L33 369 L93 369 L93 18 L33 18 L33 0 L222 0 L222 18 L170 18 L170 189 C170 257 173 288 180 311 C193 349 224 374 259 374 C295 374 315 347 315 299 L315 18 L255 18 L255 0 L444 0 L444 18 L392 18 L392 206 C392 276 395 300 408 325 C422 355 450 374 480 374 C517 374 535 350 535 299 L535 18 L475 18 L475 0 L664 0 L664 18 L612 18 L612 287 C612 365 582 397 511 397 C463 397 428 381 391 343 C372 382 345 397 294 397 C244 397 209 382 170 343 L170 387 Z " />
<glyph glyph-name="n" unicode="n" horiz-adv-x="471" d="M170 387 L33 387 L33 369 L93 369 L93 18 L33 18 L33 0 L222 0 L222 18 L170 18 L170 178 C170 249 174 289 184 312 C200 349 235 374 269 374 C307 374 325 348 325 292 L325 18 L265 18 L265 0 L454 0 L454 18 L402 18 L402 265 C402 310 395 335 378 357 C357 383 324 397 287 397 C239 397 207 379 170 330 L170 387 Z " />
<glyph glyph-name="o" unicode="o" horiz-adv-x="423" d="M211 397 C114 397 36 306 36 194 C36 80 114 -10 212 -10 C308 -10 387 81 387 191 C387 307 310 397 211 397 L211 397 Z M129 218 C131 304 131 311 138 328 C149 359 176 377 211 377 C243 377 268 362 282 335 C290 318 294 279 294 218 L294 169 C294 117 290 74 285 59 C273 28 245 10 211 10 C179 10 153 25 140 52 C132 71 131 77 129 169 L129 218 Z " />
<glyph glyph-name="p" unicode="p" horiz-adv-x="441" d="M153 387 L16 387 L16 369 L76 369 L76 -249 L16 -249 L16 -267 L217 -267 L217 -249 L153 -249 L153 82 C183 14 211 -10 260 -10 C340 -10 404 84 404 201 C404 312 343 397 262 397 C212 397 180 370 153 306 L153 387 Z M311 176 C311 55 294 10 247 10 C195 10 155 87 155 189 C155 302 193 377 251 377 C275 377 294 363 303 338 C309 321 311 296 311 249 L311 176 Z " />
<glyph glyph-name="q" unicode="q" horiz-adv-x="430" d="M277 387 L277 316 C246 375 218 397 173 397 C95 397 36 310 36 197 C36 80 98 -10 179 -10 C223 -10 248 12 277 77 L277 -249 L213 -249 L213 -267 L414 -267 L414 -249 L354 -249 L354 369 L414 369 L414 387 L277 387 Z M129 239 C129 291 132 318 139 337 C148 362 166 377 187 377 C215 377 240 356 257 318 C270 290 275 256 275 194 C275 142 270 105 259 75 C245 35 217 10 188 10 C169 10 151 25 141 49 C133 69 129 108 129 159 L129 239 Z " />
<glyph glyph-name="r" unicode="r" horiz-adv-x="318" d="M170 387 L33 387 L33 369 L93 369 L93 18 L33 18 L33 0 L222 0 L222 18 L170 18 L170 134 C170 216 173 245 187 291 C201 335 218 360 234 360 C241 360 246 354 246 344 C246 311 257 294 276 294 C296 294 309 314 309 343 C309 376 290 397 262 397 C235 397 211 381 196 353 C186 335 181 322 170 287 L170 387 Z " />
<glyph glyph-name="s" unicode="s" horiz-adv-x="321" d="M271 395 L259 395 L247 359 C215 386 190 397 159 397 C96 397 51 347 51 277 C51 217 82 175 135 164 L204 148 C240 140 259 120 259 88 C259 45 223 10 178 10 C140 10 109 31 86 71 C75 92 69 108 62 148 L47 148 L47 0 L56 0 L77 38 C115 2 139 -10 176 -10 C243 -10 290 45 290 122 C290 193 258 232 188 248 L148 257 C100 267 81 282 81 307 C81 346 114 377 156 377 C208 377 245 341 256 280 L271 280 L271 395 Z " />
<glyph glyph-name="t" unicode="t" horiz-adv-x="260" d="M145 369 L241 369 L241 387 L145 387 L145 546 L135 546 C118 480 64 405 18 384 L18 369 L68 369 L68 107 C68 61 72 43 86 24 C103 2 129 -10 162 -10 C218 -10 249 16 260 74 L242 74 C234 36 219 20 191 20 C158 20 145 39 145 85 L145 369 Z " />
<glyph glyph-name="u" unicode="u" horiz-adv-x="460" d="M384 387 L255 387 L255 369 L307 369 L307 200 C307 141 301 91 291 69 C275 34 242 13 205 13 C159 13 145 38 145 117 L145 387 L16 387 L16 369 L68 369 L68 131 C68 80 73 54 87 33 C106 6 142 -10 187 -10 C242 -10 276 9 307 60 L307 0 L444 0 L444 18 L384 18 L384 387 Z " />
<glyph glyph-name="v" unicode="v" horiz-adv-x="389" d="M186 -10 L213 -10 L350 369 L389 369 L389 387 L257 387 L257 369 L329 369 L226 85 L125 369 L196 369 L196 387 L0 387 L0 369 L46 369 L186 -10 Z " />
<glyph glyph-name="w" unicode="w" horiz-adv-x="550" d="M377 -10 L403 -10 L511 369 L550 369 L550 387 L433 387 L433 369 L490 369 L413 94 L314 387 L294 387 L213 94 L123 369 L188 369 L188 387 L0 387 L0 369 L46 369 L177 -9 L203 -9 L280 261 L377 -10 Z " />
<glyph glyph-name="x" unicode="x" horiz-adv-x="381" d="M215 230 L312 369 L361 369 L361 387 L228 387 L228 369 L288 369 L201 249 L127 369 L184 369 L184 387 L-3 387 L-3 369 L42 369 L158 182 L42 18 L-3 18 L-3 0 L140 0 L140 18 L71 18 L171 163 L261 18 L215 18 L215 0 L384 0 L384 18 L346 18 L215 230 Z " />
<glyph glyph-name="y" unicode="y" horiz-adv-x="372" d="M225 94 L122 369 L183 369 L183 387 L0 387 L0 369 L42 369 L194 -6 L145 -161 C133 -200 128 -208 116 -208 C110 -208 106 -206 102 -200 C88 -180 80 -174 64 -174 C42 -174 25 -194 25 -221 C25 -252 46 -274 75 -274 C114 -274 139 -244 163 -170 L333 369 L372 369 L372 387 L247 387 L247 369 L309 369 L225 94 Z " />
<glyph glyph-name="z" unicode="z" horiz-adv-x="361" d="M330 0 L332 164 L320 164 C297 42 277 18 200 18 L119 18 L338 387 L56 387 L53 238 L65 238 C93 349 111 368 190 369 L243 369 L28 0 L330 0 Z " />
<glyph glyph-name="braceleft" unicode="&#x7b;" horiz-adv-x="238" d="M1 250 C45 247 52 226 52 108 L52 22 C52 -98 55 -116 84 -149 C106 -173 138 -180 216 -180 L216 -162 C143 -157 124 -122 127 0 L127 103 C130 206 111 243 49 256 L49 260 C111 274 130 308 127 403 L127 501 C125 609 146 645 216 649 L216 667 C138 666 118 662 96 647 C59 615 50 580 52 469 L52 395 C51 288 44 270 1 266 L1 250 Z " />
<glyph glyph-name="bar" unicode="&#x7c;" horiz-adv-x="450" d="M199 667 L199 -167 L251 -167 L251 667 L199 667 Z " />
<glyph glyph-name="braceright" unicode="&#x7d;" horiz-adv-x="238" d="M237 266 C194 270 187 288 186 395 L186 469 C187 576 180 608 148 642 C125 662 106 666 22 667 L22 649 C92 644 113 609 111 501 L111 403 C108 308 126 274 188 260 L188 256 C126 243 108 206 111 103 L111 0 C114 -122 95 -157 22 -162 L22 -180 C94 -180 126 -174 148 -155 C182 -121 186 -102 186 22 L186 108 C185 226 192 247 237 250 L237 266 Z " />
<glyph glyph-name="asciitilde" unicode="&#x7e;" horiz-adv-x="483" d="M397 374 C379 351 361 342 335 342 C320 342 299 345 284 350 L240 365 C216 373 204 375 184 375 C134 375 105 355 75 299 L85 294 C103 316 123 325 154 325 C170 325 188 322 207 316 L250 302 C273 295 287 292 301 292 C343 292 371 312 407 369 L397 374 Z " />
<glyph glyph-name="uni00A0" unicode="&#xa0;" horiz-adv-x="250" d="" />
<glyph glyph-name="exclamdown" unicode="&#xa1;" horiz-adv-x="246" d="M116 207 L115 184 C112 50 110 21 96 -76 L80 -174 C78 -185 77 -195 77 -203 C77 -244 97 -274 123 -274 C149 -274 169 -244 169 -203 C169 -195 168 -185 166 -174 L150 -76 C136 22 134 58 130 207 L116 207 Z M123 410 C95 410 72 385 72 354 C72 322 94 297 123 297 C151 297 174 322 174 354 C174 385 151 410 123 410 L123 410 Z " />
<glyph glyph-name="cent" unicode="&#xa2;" horiz-adv-x="450" d="M254 665 L225 665 L225 545 C135 533 69 447 69 342 C69 235 136 149 225 140 L225 42 L254 42 L254 140 C324 147 371 195 386 276 L369 276 C354 209 314 168 254 160 L254 527 C286 527 316 514 316 500 C316 497 315 496 312 490 C305 479 301 463 301 448 C301 418 315 399 336 399 C357 399 372 418 372 446 C372 503 323 545 254 547 L254 665 Z M225 161 C177 172 161 211 162 314 L162 378 C164 479 180 516 225 525 L225 161 Z " />
<glyph glyph-name="sterling" unicode="&#xa3;" horiz-adv-x="450" d="M183 268 C215 217 220 202 220 156 C220 142 219 133 216 114 C176 134 137 144 100 144 C41 144 3 116 3 72 C3 28 40 0 98 0 C143 0 173 11 209 42 L245 17 C272 -1 298 -10 329 -10 C409 -10 450 51 452 171 L431 171 L431 159 C431 97 399 53 355 53 C334 53 301 65 269 85 L239 103 C249 140 253 165 253 195 C253 221 249 244 240 268 L360 268 L360 298 L227 298 L216 317 L177 381 C158 411 141 473 141 512 C141 597 189 657 257 657 C306 657 346 625 346 584 C346 578 344 574 339 568 C321 545 318 538 318 519 C318 492 335 471 358 471 C386 471 407 500 407 540 C407 615 337 677 253 677 C150 677 62 590 62 488 C62 447 75 414 110 366 L160 298 L51 298 L51 268 L183 268 Z M191 58 C164 31 139 20 102 20 C59 20 30 40 30 69 C30 92 49 109 75 109 C97 109 125 99 149 84 L191 58 Z " />
<glyph glyph-name="currency" unicode="&#xa4;" horiz-adv-x="450" d="M343 478 C308 511 269 527 225 527 C181 527 143 511 108 478 L48 545 L29 523 L89 457 C60 418 45 375 45 327 C45 279 60 234 89 196 L29 130 L48 109 L108 175 C143 143 182 127 225 127 C268 127 309 143 343 175 L402 109 L421 130 L362 196 C391 235 405 279 405 327 C405 376 391 417 362 457 L421 523 L402 545 L343 478 Z M225 464 C290 464 342 403 342 326 C342 250 289 190 223 190 C160 190 108 252 108 327 C108 403 160 464 225 464 L225 464 Z " />
<glyph glyph-name="yen" unicode="&#xa5;" horiz-adv-x="450" d="M119 451 L23 451 L23 433 L128 433 L181 322 L50 322 L50 304 L190 304 L190 18 L113 18 L113 0 L339 0 L339 18 L270 18 L270 304 L400 304 L400 322 L276 322 L315 433 L427 433 L427 451 L322 451 L394 629 L447 629 L447 647 L300 647 L300 629 L373 629 L262 339 L122 629 L190 629 L190 647 L-9 647 L-9 629 L35 629 L119 451 Z " />
<glyph glyph-name="brokenbar" unicode="&#xa6;" horiz-adv-x="450" d="M199 667 L199 330 L251 330 L251 667 L199 667 Z M199 153 L199 -167 L251 -167 L251 153 L199 153 Z " />
<glyph glyph-name="section" unicode="&#xa7;" horiz-adv-x="450" d="M179 475 C134 501 116 526 116 563 C116 620 161 657 231 657 C278 657 313 640 333 607 C295 597 280 581 280 550 C280 523 297 503 321 503 C348 503 370 530 370 564 C370 629 309 677 228 677 C178 677 143 663 116 633 C90 604 76 564 76 521 C76 471 92 439 134 402 C75 370 50 328 50 259 C50 193 70 164 146 118 L276 40 C328 9 347 -18 347 -61 C347 -128 295 -170 211 -170 C153 -170 116 -151 88 -109 C126 -105 146 -81 146 -40 C146 -10 128 13 103 13 C73 13 50 -18 50 -58 C50 -132 121 -190 210 -190 C320 -190 396 -122 396 -24 C396 37 373 73 308 118 C368 142 400 191 400 259 C400 325 373 362 293 409 L179 475 Z M138 215 C101 237 83 265 83 300 C83 345 116 383 155 383 C173 383 193 377 211 366 L294 316 C347 284 367 258 367 223 C367 179 328 136 288 136 C276 136 269 139 248 151 L138 215 Z " />
<glyph glyph-name="dieresis" unicode="&#xa8;" horiz-adv-x="326" d="M81 584 C55 584 33 562 33 536 C33 509 55 487 82 487 C108 487 130 509 130 535 C130 562 109 584 81 584 L81 584 Z M244 584 C218 584 196 562 196 536 C196 509 218 487 245 487 C271 487 293 509 293 535 C293 562 272 584 244 584 L244 584 Z " />
<glyph glyph-name="copyright" unicode="&#xa9;" horiz-adv-x="708" d="M477 530 L465 530 L449 503 C420 526 395 536 364 536 C275 536 207 448 207 334 C207 226 276 138 360 138 C391 138 416 147 449 171 L465 143 L477 143 L477 255 L465 255 C441 185 412 156 365 156 C334 156 306 173 294 200 C284 221 281 250 281 332 C281 392 284 435 289 455 C299 495 328 518 368 518 C417 518 450 486 465 425 L477 425 L477 530 Z M354 677 C182 677 42 523 42 333 C42 147 182 -10 349 -10 C525 -10 666 141 666 331 C666 524 528 677 354 677 L354 677 Z M354 649 C508 649 631 508 631 331 C631 157 506 18 350 18 C201 18 77 162 77 333 C77 508 201 649 354 649 L354 649 Z " />
<glyph glyph-name="ordfeminine" unicode="&#xaa;" horiz-adv-x="311" d="M278 330 L24 330 L24 297 L278 297 L278 330 Z M182 551 C135 550 112 546 87 537 C46 521 23 493 23 459 C23 420 53 394 99 394 C136 394 163 410 183 442 C188 410 207 394 237 394 C255 394 262 397 289 415 L278 429 C269 421 264 418 257 418 C245 418 242 423 242 442 L242 593 C242 622 235 640 219 652 C202 666 175 674 145 674 C89 674 41 642 41 606 C41 587 53 573 69 573 C85 573 97 586 97 604 C97 612 94 620 88 627 C85 630 84 632 84 634 C84 644 113 656 137 656 C168 656 182 644 182 615 L182 551 Z M184 516 C184 492 182 476 178 466 C169 443 148 428 126 428 C101 428 85 445 85 470 C85 511 118 532 184 534 L184 516 Z " />
<glyph glyph-name="guillemotleft" unicode="&#xab;" horiz-adv-x="339" d="M145 200 L246 96 L291 96 L191 200 L291 304 L246 304 L145 200 Z M42 200 L142 96 L187 96 L88 200 L187 304 L142 304 L42 200 Z " />
<glyph glyph-name="logicalnot" unicode="&#xac;" horiz-adv-x="450" d="M319 0 L419 0 L419 267 L32 267 L32 224 L319 224 L319 0 Z " />
<glyph glyph-name="uni00AD" unicode="&#xad;" horiz-adv-x="170" d="M170 230 L0 230 L0 170 L170 170 L170 230 Z " />
<glyph glyph-name="registered" unicode="&#xae;" horiz-adv-x="708" d="M316 340 L342 340 C391 338 408 320 410 268 L410 240 C410 176 437 140 484 140 C500 140 508 142 525 151 L520 167 C509 161 503 159 497 159 C479 159 472 172 472 208 L472 239 C472 294 440 335 390 345 C449 355 484 390 484 438 C484 469 472 493 449 510 C428 525 407 530 356 530 L208 530 L208 513 L254 513 L254 160 L208 160 L208 143 L359 143 L359 160 L316 160 L316 340 Z M316 357 L316 513 L347 513 C395 513 416 490 416 435 C416 381 393 357 344 357 L316 357 Z M354 677 C182 677 42 523 42 333 C42 147 182 -10 349 -10 C525 -10 666 141 666 331 C666 524 528 677 354 677 L354 677 Z M354 649 C508 649 631 508 631 331 C631 157 506 18 350 18 C201 18 77 162 77 333 C77 508 201 649 354 649 L354 649 Z " />
<glyph glyph-name="macron" unicode="&#xaf;" horiz-adv-x="315" d="M281 499 L281 523 L33 523 L33 499 L281 499 Z " />
<glyph glyph-name="degree" unicode="&#xb0;" horiz-adv-x="400" d="M203 686 C117 686 50 619 50 534 C50 448 116 381 200 381 C284 381 350 448 350 533 C350 619 286 686 203 686 L203 686 Z M202 629 C252 629 293 586 293 534 C293 480 252 438 200 438 C148 438 106 481 106 533 C106 587 148 629 202 629 L202 629 Z " />
<glyph glyph-name="plusminus" unicode="&#xb1;" horiz-adv-x="450" d="M211 308 L211 131 L241 131 L241 308 L403 308 L403 338 L241 338 L241 515 L211 515 L211 338 L46 338 L46 308 L211 308 Z M46 11 L404 11 L404 41 L46 41 L46 11 Z " />
<glyph glyph-name="twosuperior" unicode="&#xb2;" horiz-adv-x="294" d="M251 258 L251 369 L238 369 C233 334 232 327 228 320 C225 313 216 310 193 310 L73 310 L158 402 C207 453 207 453 221 473 C241 501 252 528 252 553 C252 611 206 653 143 653 C84 653 42 615 42 562 C42 529 60 505 84 505 C100 505 112 518 112 536 C112 552 100 565 86 565 C81 565 77 564 69 560 C68 559 67 559 66 559 C64 559 62 563 62 569 C62 603 90 633 122 633 C159 633 184 594 184 535 C184 509 180 487 170 468 C159 443 135 406 118 388 L30 290 L30 258 L251 258 Z " />
<glyph glyph-name="threesuperior" unicode="&#xb3;" horiz-adv-x="294" d="M80 477 L80 460 L103 460 C162 460 187 431 187 363 C187 303 166 271 124 271 C102 271 75 286 74 299 C74 301 75 302 79 306 C86 313 89 321 89 333 C89 352 80 364 65 364 C48 364 37 349 37 327 C37 284 76 253 130 253 C204 253 257 303 257 371 C257 426 223 460 159 469 C205 484 237 523 237 565 C237 616 196 653 140 653 C92 653 56 625 56 588 C56 568 67 553 81 553 C94 553 104 566 104 582 C104 594 101 602 94 609 C92 611 91 613 91 614 C91 623 112 633 129 633 C159 633 171 615 171 568 C171 503 152 477 104 477 L80 477 Z " />
<glyph glyph-name="acute" unicode="&#xb4;" horiz-adv-x="467" d="M292 613 L197 470 C196 469 195 467 195 466 C195 465 197 463 198 463 C200 463 200 463 203 466 L362 595 C367 599 370 603 370 606 C370 611 366 613 357 613 L292 613 Z " />
<glyph glyph-name="mu" unicode="&#xb5;" horiz-adv-x="576" d="M442 500 L353 500 L354 131 C318 80 284 58 242 58 C184 58 150 99 150 169 L150 500 L62 500 L62 20 C62 -1 58 -26 51 -56 C34 -118 33 -123 33 -147 C33 -190 54 -219 83 -219 C112 -219 132 -189 132 -145 C132 -124 129 -110 113 -53 C102 -17 101 -8 101 21 L101 33 C143 -3 165 -13 200 -13 C250 -13 301 18 354 80 C362 48 367 36 377 21 C392 0 419 -13 449 -13 C510 -13 553 31 567 108 L540 109 C536 71 515 41 492 41 C462 41 442 77 442 131 L442 500 Z " />
<glyph glyph-name="paragraph" unicode="&#xb6;" horiz-adv-x="450" d="M201 -162 L136 -162 L136 -180 L414 -180 L414 -162 L364 -162 L364 649 L414 649 L414 667 L196 667 C154 667 117 658 93 641 C51 612 24 552 24 488 C24 384 88 312 181 312 L201 312 L201 -162 Z M244 -162 L244 649 L321 649 L321 -162 L244 -162 Z " />
<glyph glyph-name="periodcentered" unicode="&#xb7;" horiz-adv-x="222" d="M111 257 C83 257 60 231 60 200 C60 169 83 143 111 143 C139 143 162 168 162 199 C162 232 140 257 111 257 L111 257 Z " />
<glyph glyph-name="cedilla" unicode="&#xb8;" horiz-adv-x="450" d="M235 0 L218 0 L202 -65 C230 -74 242 -89 242 -114 C242 -140 225 -160 202 -160 C181 -160 169 -153 167 -139 L165 -130 C164 -106 161 -98 153 -98 C146 -98 142 -104 142 -114 C142 -150 171 -176 212 -176 C259 -176 300 -144 300 -107 C300 -75 275 -56 233 -56 L220 -56 L235 0 Z " />
<glyph glyph-name="onesuperior" unicode="&#xb9;" horiz-adv-x="294" d="M185 647 L65 641 L65 625 L114 625 C119 625 119 625 121 624 C122 623 122 622 123 613 L123 276 L65 276 L65 258 L244 258 L244 276 L185 276 L185 647 Z " />
<glyph glyph-name="ordmasculine" unicode="&#xba;" horiz-adv-x="322" d="M288 330 L34 330 L34 297 L288 297 L288 330 Z M161 674 C85 674 23 611 23 534 C23 456 84 394 161 394 C237 394 299 456 299 532 C299 612 238 674 161 674 L161 674 Z M93 550 C93 584 96 613 101 623 C110 642 133 654 161 654 C186 654 207 644 218 627 C225 616 228 591 228 550 L228 517 C228 482 225 455 220 445 C211 426 188 414 161 414 C135 414 114 424 103 441 C97 451 93 477 93 517 L93 550 Z " />
<glyph glyph-name="guillemotright" unicode="&#xbb;" horiz-adv-x="339" d="M193 200 L93 304 L48 304 L148 200 L48 96 L93 96 L193 200 Z M297 200 L196 304 L151 304 L251 200 L151 96 L196 96 L297 200 Z " />
<glyph glyph-name="onequarter" unicode="&#xbc;" horiz-adv-x="690" d="M185 647 L65 641 L65 625 L114 625 C119 625 119 625 121 624 C122 623 122 622 123 613 L123 276 L65 276 L65 258 L244 258 L244 276 L185 276 L185 647 Z M507 647 L476 647 L206 0 L237 0 L507 647 Z M608 103 L644 103 L644 59 L663 59 L663 168 L644 168 L644 124 L608 124 L608 393 L573 393 L414 132 L414 103 L546 103 L546 18 L494 18 L494 0 L646 0 L646 18 L608 18 L608 103 Z M546 124 L433 124 L546 315 L546 124 Z " />
<glyph glyph-name="onehalf" unicode="&#xbd;" horiz-adv-x="690" d="M185 647 L65 641 L65 625 L114 625 C119 625 119 625 121 624 C122 623 122 622 123 613 L123 276 L65 276 L65 258 L244 258 L244 276 L185 276 L185 647 Z M495 647 L464 647 L194 0 L225 0 L495 647 Z M647 0 L647 111 L634 111 C629 75 627 69 624 62 C620 55 611 52 589 52 L469 52 L554 144 C602 195 602 195 616 214 C637 242 648 270 648 294 C648 352 602 394 538 394 C480 394 438 356 438 303 C438 271 455 247 479 247 C496 247 508 260 508 278 C508 294 496 307 481 307 C477 307 472 306 465 302 C464 301 463 301 462 301 C459 301 458 305 458 311 C458 344 486 374 518 374 C555 374 580 335 580 276 C580 250 575 229 566 210 C554 185 530 148 514 130 L425 32 L425 0 L647 0 Z " />
<glyph glyph-name="threequarters" unicode="&#xbe;" horiz-adv-x="690" d="M80 477 L80 460 L103 460 C162 460 187 431 187 363 C187 303 166 271 124 271 C102 271 75 286 74 299 C74 301 75 302 79 306 C86 313 89 321 89 333 C89 352 80 364 65 364 C48 364 37 349 37 327 C37 284 76 253 130 253 C204 253 257 303 257 371 C257 426 223 460 159 469 C205 484 237 523 237 565 C237 616 196 653 140 653 C92 653 56 625 56 588 C56 568 67 553 81 553 C94 553 104 566 104 582 C104 594 101 602 94 609 C92 611 91 613 91 614 C91 623 112 633 129 633 C159 633 171 615 171 568 C171 503 152 477 104 477 L80 477 Z M508 647 L477 647 L207 0 L238 0 L508 647 Z M609 103 L645 103 L645 59 L664 59 L664 168 L645 168 L645 124 L609 124 L609 393 L574 393 L416 132 L416 103 L547 103 L547 18 L495 18 L495 0 L648 0 L648 18 L609 18 L609 103 Z M547 124 L435 124 L547 315 L547 124 Z " />
<glyph glyph-name="questiondown" unicode="&#xbf;" horiz-adv-x="339" d="M207 207 C207 142 200 127 150 79 L104 38 C58 -3 36 -52 36 -111 C36 -206 94 -274 175 -274 C249 -274 305 -217 305 -143 C305 -108 290 -84 268 -84 C248 -84 235 -101 235 -128 C235 -148 241 -161 256 -172 C266 -179 269 -183 269 -191 C269 -222 221 -254 175 -254 C119 -254 77 -216 77 -166 C77 -136 95 -96 118 -72 L147 -43 C206 17 222 59 222 152 C222 171 221 183 218 211 L207 207 Z M207 410 C179 410 156 385 156 354 C156 322 178 297 207 297 C235 297 258 322 258 354 C258 385 235 410 207 410 L207 410 Z " />
<glyph glyph-name="Agrave" unicode="&#xc0;" horiz-adv-x="546" d="M207 833 L110 833 C101 833 97 831 97 825 C97 821 101 817 109 814 L330 721 C331 720 335 720 337 720 C340 720 341 721 341 724 C341 726 341 727 336 731 L207 833 Z M329 214 L389 18 L304 18 L304 0 L549 0 L549 18 L480 18 L283 667 L259 667 L54 18 L-3 18 L-3 0 L156 0 L156 18 L77 18 L138 214 L329 214 Z M323 232 L144 232 L234 527 L323 232 Z " />
<glyph glyph-name="Aacute" unicode="&#xc1;" horiz-adv-x="546" d="M353 833 L224 731 C220 728 219 726 219 724 C219 722 220 720 223 720 C225 720 228 720 229 721 L450 814 C460 818 463 821 463 825 C463 831 459 833 450 833 L353 833 Z M329 214 L389 18 L304 18 L304 0 L549 0 L549 18 L480 18 L283 667 L259 667 L54 18 L-3 18 L-3 0 L156 0 L156 18 L77 18 L138 214 L329 214 Z M323 232 L144 232 L234 527 L323 232 Z " />
<glyph glyph-name="Acircumflex" unicode="&#xc2;" horiz-adv-x="546" d="M271 769 L419 721 C420 720 422 720 423 720 C426 720 428 721 428 723 C428 725 426 727 423 730 L271 838 L120 730 C115 726 114 725 114 723 C114 721 116 720 119 720 C121 720 122 720 124 721 L271 769 Z M329 214 L389 18 L304 18 L304 0 L549 0 L549 18 L480 18 L283 667 L259 667 L54 18 L-3 18 L-3 0 L156 0 L156 18 L77 18 L138 214 L329 214 Z M323 232 L144 232 L234 527 L323 232 Z " />
<glyph glyph-name="Atilde" unicode="&#xc3;" horiz-adv-x="546" d="M432 815 C414 793 396 784 370 784 C355 784 332 787 319 792 L275 806 C248 815 238 817 219 817 C169 817 140 797 110 741 L120 735 C138 758 157 767 189 767 C204 767 221 764 242 757 L284 744 C310 736 322 733 336 733 C378 733 405 753 442 810 L432 815 Z M329 214 L389 18 L304 18 L304 0 L549 0 L549 18 L480 18 L283 667 L259 667 L54 18 L-3 18 L-3 0 L156 0 L156 18 L77 18 L138 214 L329 214 Z M323 232 L144 232 L234 527 L323 232 Z " />
<glyph glyph-name="Adieresis" unicode="&#xc4;" horiz-adv-x="546" d="M176 824 C150 824 128 802 128 776 C128 749 150 727 177 727 C203 727 225 749 225 775 C225 802 204 824 176 824 L176 824 Z M366 824 C340 824 318 802 318 776 C318 749 340 727 367 727 C393 727 415 749 415 775 C415 802 394 824 366 824 L366 824 Z M329 214 L389 18 L304 18 L304 0 L549 0 L549 18 L480 18 L283 667 L259 667 L54 18 L-3 18 L-3 0 L156 0 L156 18 L77 18 L138 214 L329 214 Z M323 232 L144 232 L234 527 L323 232 Z " />
<glyph glyph-name="Aring" unicode="&#xc5;" horiz-adv-x="546" d="M271 859 C228 859 194 825 194 782 C194 740 227 707 270 707 C313 707 346 740 346 781 C346 825 313 859 271 859 L271 859 Z M271 832 C296 832 318 809 318 783 C318 757 296 734 270 734 C244 734 222 757 222 783 C222 809 244 832 271 832 L271 832 Z M329 214 L389 18 L304 18 L304 0 L549 0 L549 18 L480 18 L283 667 L259 667 L54 18 L-3 18 L-3 0 L156 0 L156 18 L77 18 L138 214 L329 214 Z M323 232 L144 232 L234 527 L323 232 Z " />
<glyph glyph-name="AE" unicode="&#xc6;" horiz-adv-x="759" d="M687 667 L226 667 L226 649 L316 649 L42 18 L-24 18 L-24 0 L156 0 L156 18 L65 18 L149 211 L340 211 L340 18 L262 18 L262 0 L707 0 L724 207 L712 207 C700 154 688 116 676 92 C642 27 626 17 545 18 L433 18 L433 329 L470 329 C534 330 561 299 562 221 L562 197 L574 197 L574 472 L562 472 L562 453 C562 376 537 347 472 347 L433 347 L433 649 L504 649 C623 651 661 617 687 486 L699 486 L687 667 Z M340 229 L156 229 L340 649 L340 229 Z " />
<glyph glyph-name="Ccedilla" unicode="&#xc7;" horiz-adv-x="532" d="M296 -10 C348 -10 393 8 447 50 L477 0 L489 0 L489 185 L477 185 C460 133 450 110 433 85 C400 36 355 10 304 10 C249 10 200 41 177 90 C160 128 155 179 155 324 C155 431 160 506 169 543 C186 615 237 657 308 657 C355 657 397 637 429 599 C454 570 465 545 477 494 L489 494 L489 667 L477 667 L447 617 C396 661 357 677 303 677 C230 677 163 639 112 568 C65 504 42 423 42 328 C42 216 79 121 150 52 C187 16 227 -3 278 -9 L264 -67 C293 -76 306 -92 306 -117 C306 -144 288 -165 264 -165 C255 -165 245 -163 236 -158 C229 -154 229 -154 227 -144 L225 -134 C224 -110 221 -101 212 -101 C205 -101 201 -107 201 -118 C201 -154 232 -181 275 -181 C324 -181 367 -148 367 -110 C367 -78 341 -58 297 -58 L283 -58 L296 -10 Z " />
<glyph glyph-name="Egrave" unicode="&#xc8;" horiz-adv-x="527" d="M225 833 L128 833 C119 833 115 831 115 825 C115 821 118 818 128 814 L349 721 C350 720 353 720 355 720 C358 720 359 721 359 724 C359 726 358 728 354 731 L225 833 Z M455 667 L30 667 L30 649 L108 649 L108 18 L30 18 L30 0 L475 0 L492 208 L480 208 C468 154 456 116 444 92 C410 27 394 17 313 18 L201 18 L201 329 L238 329 C302 330 329 299 330 221 L330 198 L342 198 L342 472 L330 472 L330 453 C330 376 305 347 240 347 L201 347 L201 649 L272 649 C391 651 429 617 455 486 L467 486 L455 667 Z " />
<glyph glyph-name="Eacute" unicode="&#xc9;" horiz-adv-x="527" d="M335 833 L206 731 C201 727 201 726 201 724 C201 721 202 720 205 720 C207 720 210 720 211 721 L433 814 C442 817 445 821 445 825 C445 830 441 833 432 833 L335 833 Z M455 667 L30 667 L30 649 L108 649 L108 18 L30 18 L30 0 L475 0 L492 208 L480 208 C468 154 456 116 444 92 C410 27 394 17 313 18 L201 18 L201 329 L238 329 C302 330 329 299 330 221 L330 198 L342 198 L342 472 L330 472 L330 453 C330 376 305 347 240 347 L201 347 L201 649 L272 649 C391 651 429 617 455 486 L467 486 L455 667 Z " />
<glyph glyph-name="Ecircumflex" unicode="&#xca;" horiz-adv-x="527" d="M270 769 L418 721 C419 720 421 720 422 720 C425 720 427 721 427 723 C427 725 425 727 422 730 L270 838 L119 730 C114 726 113 725 113 723 C113 721 115 720 118 720 C120 720 121 720 123 721 L270 769 Z M455 667 L30 667 L30 649 L108 649 L108 18 L30 18 L30 0 L475 0 L492 208 L480 208 C468 154 456 116 444 92 C410 27 394 17 313 18 L201 18 L201 329 L238 329 C302 330 329 299 330 221 L330 198 L342 198 L342 472 L330 472 L330 453 C330 376 305 347 240 347 L201 347 L201 649 L272 649 C391 651 429 617 455 486 L467 486 L455 667 Z " />
<glyph glyph-name="Edieresis" unicode="&#xcb;" horiz-adv-x="527" d="M173 824 C147 824 125 802 125 776 C125 749 147 727 174 727 C200 727 222 749 222 775 C222 802 201 824 173 824 L173 824 Z M363 824 C337 824 315 802 315 776 C315 749 337 727 364 727 C390 727 412 749 412 775 C412 802 391 824 363 824 L363 824 Z M455 667 L30 667 L30 649 L108 649 L108 18 L30 18 L30 0 L475 0 L492 208 L480 208 C468 154 456 116 444 92 C410 27 394 17 313 18 L201 18 L201 329 L238 329 C302 330 329 299 330 221 L330 198 L342 198 L342 472 L330 472 L330 453 C330 376 305 347 240 347 L201 347 L201 649 L272 649 C391 651 429 617 455 486 L467 486 L455 667 Z " />
<glyph glyph-name="Igrave" unicode="&#xcc;" horiz-adv-x="300" d="M108 18 L30 18 L30 0 L270 0 L270 18 L201 18 L201 649 L270 649 L270 667 L30 667 L30 649 L108 649 L108 18 Z M118 833 L21 833 C12 833 8 830 8 825 C8 821 12 817 20 814 L241 721 C242 720 245 720 248 720 C251 720 252 721 252 724 C252 726 252 727 247 731 L118 833 Z " />
<glyph glyph-name="Iacute" unicode="&#xcd;" horiz-adv-x="300" d="M108 18 L30 18 L30 0 L270 0 L270 18 L201 18 L201 649 L270 649 L270 667 L30 667 L30 649 L108 649 L108 18 Z M239 833 L110 731 C106 727 105 726 105 724 C105 721 106 720 109 720 C111 720 114 720 115 721 L337 814 C346 818 349 821 349 825 C349 831 345 833 336 833 L239 833 Z " />
<glyph glyph-name="Icircumflex" unicode="&#xce;" horiz-adv-x="300" d="M108 18 L30 18 L30 0 L270 0 L270 18 L201 18 L201 649 L270 649 L270 667 L30 667 L30 649 L108 649 L108 18 Z M150 769 L298 721 C299 720 301 720 302 720 C305 720 307 721 307 723 C307 725 305 727 302 730 L150 838 L-1 730 C-6 726 -7 725 -7 723 C-7 721 -5 720 -2 720 C0 720 1 720 3 721 L150 769 Z " />
<glyph glyph-name="Idieresis" unicode="&#xcf;" horiz-adv-x="300" d="M108 18 L30 18 L30 0 L270 0 L270 18 L201 18 L201 649 L270 649 L270 667 L30 667 L30 649 L108 649 L108 18 Z M74 824 C48 824 26 802 26 776 C26 749 48 727 75 727 C101 727 123 749 123 775 C123 802 102 824 74 824 L74 824 Z M226 824 C200 824 178 802 178 776 C178 749 200 727 227 727 C253 727 275 749 275 775 C275 802 254 824 226 824 L226 824 Z " />
<glyph glyph-name="Eth" unicode="&#xd0;" horiz-adv-x="606" d="M106 348 L30 348 L30 330 L106 330 L106 18 L30 18 L30 0 L260 0 C375 0 428 22 486 92 C536 154 564 240 564 334 C564 427 537 514 489 573 C434 641 371 667 259 667 L30 667 L30 649 L106 649 L106 348 Z M199 348 L199 649 L259 649 C332 649 371 636 403 603 C438 566 451 498 451 346 C451 204 442 127 421 90 C393 38 347 18 260 18 L199 18 L199 330 L331 330 L331 348 L199 348 Z " />
<glyph glyph-name="Ntilde" unicode="&#xd1;" horiz-adv-x="611" d="M472 815 C455 793 436 784 410 784 C395 784 373 787 359 792 L315 806 C288 815 278 817 260 817 C209 817 180 797 150 741 L160 735 C179 758 198 767 229 767 C244 767 261 764 282 757 L325 744 C351 736 363 733 376 733 C418 733 446 753 482 810 L472 815 Z M499 0 L515 0 L515 649 L581 649 L581 667 L416 667 L416 649 L492 649 L492 185 L211 667 L21 667 L21 649 L99 649 L99 18 L21 18 L21 0 L204 0 L204 18 L122 18 L122 644 L499 0 Z " />
<glyph glyph-name="Ograve" unicode="&#xd2;" horiz-adv-x="594" d="M261 833 L164 833 C155 833 151 831 151 825 C151 821 154 818 163 814 L385 721 C386 720 389 720 391 720 C394 720 395 721 395 724 C395 726 394 727 390 731 L261 833 Z M297 677 C230 677 169 644 119 582 C69 519 42 433 42 334 C42 139 153 -10 297 -10 C440 -10 552 139 552 330 C552 426 530 505 486 568 C436 639 370 677 297 677 L297 677 Z M297 657 C357 657 404 620 424 559 C436 519 439 480 439 329 C439 203 437 161 428 124 C411 52 363 10 297 10 C237 10 190 46 170 108 C158 148 155 188 155 333 C155 464 157 506 166 543 C183 615 231 657 297 657 L297 657 Z " />
<glyph glyph-name="Oacute" unicode="&#xd3;" horiz-adv-x="594" d="M372 833 L243 731 C239 727 238 726 238 724 C238 721 239 720 242 720 C244 720 247 720 248 721 L470 814 C479 818 482 821 482 825 C482 830 478 833 469 833 L372 833 Z M297 677 C230 677 169 644 119 582 C69 519 42 433 42 334 C42 139 153 -10 297 -10 C440 -10 552 139 552 330 C552 426 530 505 486 568 C436 639 370 677 297 677 L297 677 Z M297 657 C357 657 404 620 424 559 C436 519 439 480 439 329 C439 203 437 161 428 124 C411 52 363 10 297 10 C237 10 190 46 170 108 C158 148 155 188 155 333 C155 464 157 506 166 543 C183 615 231 657 297 657 L297 657 Z " />
<glyph glyph-name="Ocircumflex" unicode="&#xd4;" horiz-adv-x="594" d="M297 769 L445 721 C446 720 447 720 449 720 C452 720 454 721 454 723 C454 725 452 727 448 730 L297 838 L146 730 C141 726 140 725 140 723 C140 721 142 720 145 720 C147 720 148 720 150 721 L297 769 Z M297 677 C230 677 169 644 119 582 C69 519 42 433 42 334 C42 139 153 -10 297 -10 C440 -10 552 139 552 330 C552 426 530 505 486 568 C436 639 370 677 297 677 L297 677 Z M297 657 C357 657 404 620 424 559 C436 519 439 480 439 329 C439 203 437 161 428 124 C411 52 363 10 297 10 C237 10 190 46 170 108 C158 148 155 188 155 333 C155 464 157 506 166 543 C183 615 231 657 297 657 L297 657 Z " />
<glyph glyph-name="Otilde" unicode="&#xd5;" horiz-adv-x="594" d="M459 815 C442 793 423 784 397 784 C382 784 360 787 346 792 L302 806 C275 815 265 817 247 817 C196 817 167 797 137 741 L147 735 C166 758 185 767 216 767 C231 767 248 764 269 757 L312 744 C338 736 350 733 363 733 C405 733 433 753 469 810 L459 815 Z M297 677 C230 677 169 644 119 582 C69 519 42 433 42 334 C42 139 153 -10 297 -10 C440 -10 552 139 552 330 C552 426 530 505 486 568 C436 639 370 677 297 677 L297 677 Z M297 657 C357 657 404 620 424 559 C436 519 439 480 439 329 C439 203 437 161 428 124 C411 52 363 10 297 10 C237 10 190 46 170 108 C158 148 155 188 155 333 C155 464 157 506 166 543 C183 615 231 657 297 657 L297 657 Z " />
<glyph glyph-name="Odieresis" unicode="&#xd6;" horiz-adv-x="594" d="M202 824 C176 824 154 802 154 776 C154 749 176 727 203 727 C229 727 251 749 251 775 C251 802 230 824 202 824 L202 824 Z M392 824 C366 824 344 802 344 776 C344 749 366 727 393 727 C419 727 441 749 441 775 C441 802 420 824 392 824 L392 824 Z M297 677 C230 677 169 644 119 582 C69 519 42 433 42 334 C42 139 153 -10 297 -10 C440 -10 552 139 552 330 C552 426 530 505 486 568 C436 639 370 677 297 677 L297 677 Z M297 657 C357 657 404 620 424 559 C436 519 439 480 439 329 C439 203 437 161 428 124 C411 52 363 10 297 10 C237 10 190 46 170 108 C158 148 155 188 155 333 C155 464 157 506 166 543 C183 615 231 657 297 657 L297 657 Z " />
<glyph glyph-name="multiply" unicode="&#xd7;" horiz-adv-x="450" d="M225 302 L350 163 L369 184 L244 323 L369 463 L350 484 L225 345 L99 484 L80 463 L206 323 L80 184 L99 163 L225 302 Z " />
<glyph glyph-name="Oslash" unicode="&#xd8;" horiz-adv-x="594" d="M74 2 L88 -11 L136 65 C183 15 237 -10 297 -10 C364 -10 425 22 475 85 C526 148 552 233 552 333 C552 437 525 522 470 588 L520 667 L504 679 L456 603 C407 654 357 677 297 677 C153 677 42 528 42 334 C42 230 69 146 123 80 L74 2 Z M163 142 C157 177 155 221 155 321 C155 467 157 504 166 543 C183 615 231 657 297 657 C359 657 406 619 425 554 L163 142 Z M431 528 C437 491 439 450 439 341 C439 201 437 162 428 124 C411 52 363 10 297 10 C234 10 188 48 168 115 L431 528 Z " />
<glyph glyph-name="Ugrave" unicode="&#xd9;" horiz-adv-x="578" d="M258 833 L161 833 C152 833 148 831 148 825 C148 821 151 818 160 814 L382 721 C383 720 386 720 388 720 C390 720 392 722 392 724 C392 726 391 728 387 731 L258 833 Z M180 649 L258 649 L258 667 L18 667 L18 649 L87 649 L87 249 C87 139 101 84 141 44 C175 10 234 -10 304 -10 C377 -10 428 15 460 67 C482 103 490 145 490 222 L490 649 L553 649 L553 667 L395 667 L395 649 L467 649 L467 222 C467 144 463 119 447 87 C422 37 379 10 324 10 C278 10 236 29 211 62 C187 94 180 126 180 205 L180 649 Z " />
<glyph glyph-name="Uacute" unicode="&#xda;" horiz-adv-x="578" d="M386 833 L257 731 C254 728 253 726 253 724 C253 722 254 720 256 720 C259 720 261 720 262 721 L484 814 C492 817 496 821 496 825 C496 830 491 833 483 833 L386 833 Z M180 649 L258 649 L258 667 L18 667 L18 649 L87 649 L87 249 C87 139 101 84 141 44 C175 10 234 -10 304 -10 C377 -10 428 15 460 67 C482 103 490 145 490 222 L490 649 L553 649 L553 667 L395 667 L395 649 L467 649 L467 222 C467 144 463 119 447 87 C422 37 379 10 324 10 C278 10 236 29 211 62 C187 94 180 126 180 205 L180 649 Z " />
<glyph glyph-name="Ucircumflex" unicode="&#xdb;" horiz-adv-x="578" d="M304 769 L451 721 C453 720 454 720 456 720 C459 720 461 721 461 723 C461 725 459 727 455 730 L304 838 L153 730 C148 727 147 725 147 723 C147 721 149 720 152 720 C153 720 155 720 156 721 L304 769 Z M180 649 L258 649 L258 667 L18 667 L18 649 L87 649 L87 249 C87 139 101 84 141 44 C175 10 234 -10 304 -10 C377 -10 428 15 460 67 C482 103 490 145 490 222 L490 649 L553 649 L553 667 L395 667 L395 649 L467 649 L467 222 C467 144 463 119 447 87 C422 37 379 10 324 10 C278 10 236 29 211 62 C187 94 180 126 180 205 L180 649 Z " />
<glyph glyph-name="Udieresis" unicode="&#xdc;" horiz-adv-x="578" d="M211 824 C184 824 163 802 163 776 C163 749 185 727 211 727 C238 727 260 749 260 775 C260 802 238 824 211 824 L211 824 Z M401 824 C374 824 353 802 353 776 C353 749 375 727 401 727 C428 727 450 749 450 775 C450 802 428 824 401 824 L401 824 Z M180 649 L258 649 L258 667 L18 667 L18 649 L87 649 L87 249 C87 139 101 84 141 44 C175 10 234 -10 304 -10 C377 -10 428 15 460 67 C482 103 490 145 490 222 L490 649 L553 649 L553 667 L395 667 L395 649 L467 649 L467 222 C467 144 463 119 447 87 C422 37 379 10 324 10 C278 10 236 29 211 62 C187 94 180 126 180 205 L180 649 Z " />
<glyph glyph-name="Yacute" unicode="&#xdd;" horiz-adv-x="496" d="M369 833 L240 731 C236 728 236 726 236 724 C236 721 237 720 239 720 C242 720 245 720 246 721 L467 814 C476 818 480 821 480 825 C480 831 475 833 466 833 L369 833 Z M308 312 L453 649 L514 649 L514 667 L342 667 L342 649 L430 649 L301 353 L135 649 L215 649 L215 667 L-18 667 L-18 649 L33 649 L215 312 L215 18 L125 18 L125 0 L388 0 L388 18 L308 18 L308 312 Z " />
<glyph glyph-name="Thorn" unicode="&#xde;" horiz-adv-x="521" d="M201 203 L282 203 C353 203 401 216 436 246 C474 279 495 323 495 372 C495 421 475 469 440 501 C405 532 356 547 282 547 L201 547 L201 649 L276 649 L276 667 L30 667 L30 649 L108 649 L108 18 L30 18 L30 0 L276 0 L276 18 L201 18 L201 203 Z M201 221 L201 529 L276 529 C360 529 382 497 382 376 C382 255 359 221 276 221 L201 221 Z " />
<glyph glyph-name="germandbls" unicode="&#xdf;" horiz-adv-x="437" d="M153 18 L153 203 C153 268 159 303 175 328 C191 356 225 374 257 374 C289 374 310 351 310 318 C310 270 280 244 225 244 L225 226 C254 226 263 225 277 220 C309 207 328 165 328 104 C328 45 314 10 290 10 C277 10 263 20 263 29 C263 30 264 34 265 38 C270 51 272 60 272 74 C272 98 261 113 244 113 C226 113 213 96 213 72 C213 26 250 -10 297 -10 C355 -10 405 46 405 112 C405 151 384 188 352 208 C331 221 315 227 275 235 C310 238 324 241 342 249 C370 262 387 288 387 319 C387 368 350 397 288 397 C224 397 188 378 153 325 L153 450 C153 591 175 657 223 657 C235 657 245 650 245 641 L245 636 C243 618 242 609 242 603 C242 580 254 565 274 565 C294 565 309 583 309 609 C309 650 278 677 233 677 C195 677 165 662 136 627 C91 574 76 517 76 401 L76 18 L16 18 L16 0 L189 0 L189 18 L153 18 Z " />
<glyph glyph-name="agrave" unicode="&#xe0;" horiz-adv-x="380" d="M176 613 L110 613 C102 613 98 611 98 606 C98 603 101 599 106 595 L265 466 C268 463 268 463 270 463 C272 463 273 464 273 466 C273 467 272 469 271 470 L176 613 Z M237 215 C174 213 145 208 113 193 C63 171 35 131 35 82 C35 26 71 -10 127 -10 C177 -10 210 15 237 71 C244 13 264 -10 307 -10 C330 -10 340 -6 371 18 L364 30 C353 19 346 15 338 15 C320 15 314 26 314 57 L314 282 C314 324 306 348 286 366 C264 385 228 397 191 397 C120 397 58 352 58 300 C58 275 71 257 90 257 C108 257 121 274 121 298 C121 309 119 315 114 329 C111 336 110 339 110 342 C110 359 147 380 178 380 C219 380 237 359 237 315 L237 215 Z M237 167 C237 131 234 106 229 90 C218 54 192 30 164 30 C132 30 111 58 111 99 C111 132 123 158 148 176 C171 193 191 198 237 200 L237 167 Z " />
<glyph glyph-name="aacute" unicode="&#xe1;" horiz-adv-x="380" d="M267 613 L172 470 C171 469 170 467 170 466 C170 465 171 463 173 463 C174 463 175 463 178 466 L337 595 C342 599 345 603 345 606 C345 611 341 613 333 613 L267 613 Z M237 215 C174 213 145 208 113 193 C63 171 35 131 35 82 C35 26 71 -10 127 -10 C177 -10 210 15 237 71 C244 13 264 -10 307 -10 C330 -10 340 -6 371 18 L364 30 C353 19 346 15 338 15 C320 15 314 26 314 57 L314 282 C314 324 306 348 286 366 C264 385 228 397 191 397 C120 397 58 352 58 300 C58 275 71 257 90 257 C108 257 121 274 121 298 C121 309 119 315 114 329 C111 336 110 339 110 342 C110 359 147 380 178 380 C219 380 237 359 237 315 L237 215 Z M237 167 C237 131 234 106 229 90 C218 54 192 30 164 30 C132 30 111 58 111 99 C111 132 123 158 148 176 C171 193 191 198 237 200 L237 167 Z " />
<glyph glyph-name="acircumflex" unicode="&#xe2;" horiz-adv-x="380" d="M206 541 L340 465 C342 464 344 463 345 463 C347 463 349 464 349 466 C349 468 347 471 344 474 L206 617 L69 474 C64 470 63 468 63 466 C63 464 65 463 67 463 C69 463 71 464 73 465 L206 541 Z M237 215 C174 213 145 208 113 193 C63 171 35 131 35 82 C35 26 71 -10 127 -10 C177 -10 210 15 237 71 C244 13 264 -10 307 -10 C330 -10 340 -6 371 18 L364 30 C353 19 346 15 338 15 C320 15 314 26 314 57 L314 282 C314 324 306 348 286 366 C264 385 228 397 191 397 C120 397 58 352 58 300 C58 275 71 257 90 257 C108 257 121 274 121 298 C121 309 119 315 114 329 C111 336 110 339 110 342 C110 359 147 380 178 380 C219 380 237 359 237 315 L237 215 Z M237 167 C237 131 234 106 229 90 C218 54 192 30 164 30 C132 30 111 58 111 99 C111 132 123 158 148 176 C171 193 191 198 237 200 L237 167 Z " />
<glyph glyph-name="atilde" unicode="&#xe3;" horiz-adv-x="380" d="M348 572 C332 550 316 541 293 541 C279 541 260 544 247 549 L207 563 C186 571 174 573 157 573 C112 573 85 553 58 499 L67 493 C84 515 101 524 130 524 C144 524 161 521 177 515 L216 502 C235 495 250 492 262 492 C300 492 325 512 358 567 L348 572 Z M237 215 C174 213 145 208 113 193 C63 171 35 131 35 82 C35 26 71 -10 127 -10 C177 -10 210 15 237 71 C244 13 264 -10 307 -10 C330 -10 340 -6 371 18 L364 30 C353 19 346 15 338 15 C320 15 314 26 314 57 L314 282 C314 324 306 348 286 366 C264 385 228 397 191 397 C120 397 58 352 58 300 C58 275 71 257 90 257 C108 257 121 274 121 298 C121 309 119 315 114 329 C111 336 110 339 110 342 C110 359 147 380 178 380 C219 380 237 359 237 315 L237 215 Z M237 167 C237 131 234 106 229 90 C218 54 192 30 164 30 C132 30 111 58 111 99 C111 132 123 158 148 176 C171 193 191 198 237 200 L237 167 Z " />
<glyph glyph-name="adieresis" unicode="&#xe4;" horiz-adv-x="380" d="M119 584 C93 584 71 562 71 536 C71 509 93 487 120 487 C146 487 168 509 168 535 C168 562 147 584 119 584 L119 584 Z M282 584 C256 584 234 562 234 536 C234 509 256 487 283 487 C309 487 331 509 331 535 C331 562 310 584 282 584 L282 584 Z M237 215 C174 213 145 208 113 193 C63 171 35 131 35 82 C35 26 71 -10 127 -10 C177 -10 210 15 237 71 C244 13 264 -10 307 -10 C330 -10 340 -6 371 18 L364 30 C353 19 346 15 338 15 C320 15 314 26 314 57 L314 282 C314 324 306 348 286 366 C264 385 228 397 191 397 C120 397 58 352 58 300 C58 275 71 257 90 257 C108 257 121 274 121 298 C121 309 119 315 114 329 C111 336 110 339 110 342 C110 359 147 380 178 380 C219 380 237 359 237 315 L237 215 Z M237 167 C237 131 234 106 229 90 C218 54 192 30 164 30 C132 30 111 58 111 99 C111 132 123 158 148 176 C171 193 191 198 237 200 L237 167 Z " />
<glyph glyph-name="aring" unicode="&#xe5;" horiz-adv-x="380" d="M205 615 C162 615 128 581 128 538 C128 496 161 463 204 463 C247 463 280 496 280 537 C280 581 247 615 205 615 L205 615 Z M205 588 C230 588 252 565 252 539 C252 513 230 490 204 490 C178 490 156 513 156 539 C156 565 178 588 205 588 L205 588 Z M237 215 C174 213 145 208 113 193 C63 171 35 131 35 82 C35 26 71 -10 127 -10 C177 -10 210 15 237 71 C244 13 264 -10 307 -10 C330 -10 340 -6 371 18 L364 30 C353 19 346 15 338 15 C320 15 314 26 314 57 L314 282 C314 324 306 348 286 366 C264 385 228 397 191 397 C120 397 58 352 58 300 C58 275 71 257 90 257 C108 257 121 274 121 298 C121 309 119 315 114 329 C111 336 110 339 110 342 C110 359 147 380 178 380 C219 380 237 359 237 315 L237 215 Z M237 167 C237 131 234 106 229 90 C218 54 192 30 164 30 C132 30 111 58 111 99 C111 132 123 158 148 176 C171 193 191 198 237 200 L237 167 Z " />
<glyph glyph-name="ae" unicode="&#xe6;" horiz-adv-x="583" d="M244 214 C179 212 149 207 117 193 C65 170 36 130 36 82 C36 26 73 -10 131 -10 C190 -10 235 29 254 98 C267 74 275 62 284 50 C312 14 361 -10 407 -10 C480 -10 535 45 549 130 L531 130 C518 56 471 10 410 10 C381 10 354 23 340 45 C325 68 321 92 321 151 L321 228 L551 228 C548 325 485 397 403 397 C365 397 333 383 302 354 C282 381 242 397 195 397 C123 397 60 352 60 300 C60 274 74 256 93 256 C111 256 125 273 125 297 C125 308 123 315 116 329 C113 335 112 339 112 342 C112 359 150 380 183 380 C225 380 244 359 244 314 L244 214 Z M244 167 C244 132 241 105 236 90 C224 54 197 30 167 30 C134 30 112 57 112 98 C112 131 125 157 151 175 C175 192 196 198 244 199 L244 167 Z M470 246 L321 246 L321 280 C321 346 346 377 399 377 C449 377 470 351 470 289 L470 246 Z " />
<glyph glyph-name="ccedilla" unicode="&#xe7;" horiz-adv-x="363" d="M206 -10 L215 -10 C249 -10 280 3 305 27 C330 51 341 73 353 126 L336 126 C318 51 275 10 214 10 C183 10 160 24 145 51 C133 72 129 103 129 165 L129 228 C129 336 154 378 219 378 C252 378 283 365 283 350 C283 348 283 346 279 341 C274 330 270 313 270 298 C270 268 283 249 304 249 C325 249 339 268 339 296 C339 354 288 397 218 397 C115 397 36 308 36 192 C36 90 101 6 190 -8 L178 -65 C202 -74 213 -89 213 -114 C213 -140 197 -160 176 -160 C155 -160 145 -153 142 -139 L140 -130 C140 -107 137 -98 128 -98 C122 -98 118 -104 118 -114 C118 -150 146 -176 186 -176 C231 -176 271 -144 271 -107 C271 -75 247 -56 207 -56 L195 -56 L206 -10 Z " />
<glyph glyph-name="egrave" unicode="&#xe8;" horiz-adv-x="389" d="M179 613 L114 613 C106 613 102 611 102 606 C102 603 105 598 109 595 L268 466 C271 463 271 463 273 463 C275 463 276 464 276 466 C276 467 276 469 275 470 L179 613 Z M127 228 L356 228 C353 326 288 397 204 397 C154 397 112 373 79 325 C51 285 36 239 36 192 C36 83 117 -10 211 -10 C285 -10 340 44 354 130 L336 130 C323 56 277 10 216 10 C186 10 160 23 146 45 C131 68 127 92 127 151 L127 228 Z M275 246 L127 246 L127 280 C127 346 152 377 204 377 C254 377 275 351 275 289 L275 246 Z " />
<glyph glyph-name="eacute" unicode="&#xe9;" horiz-adv-x="389" d="M281 613 L185 470 C184 469 184 467 184 466 C184 464 186 463 187 463 C188 463 189 463 192 466 L351 595 C355 598 358 603 358 606 C358 611 354 613 346 613 L281 613 Z M127 228 L356 228 C353 326 288 397 204 397 C154 397 112 373 79 325 C51 285 36 239 36 192 C36 83 117 -10 211 -10 C285 -10 340 44 354 130 L336 130 C323 56 277 10 216 10 C186 10 160 23 146 45 C131 68 127 92 127 151 L127 228 Z M275 246 L127 246 L127 280 C127 346 152 377 204 377 C254 377 275 351 275 289 L275 246 Z " />
<glyph glyph-name="ecircumflex" unicode="&#xea;" horiz-adv-x="389" d="M210 541 L343 465 C345 464 347 463 349 463 C351 463 353 464 353 466 C353 468 352 469 347 474 L210 617 L72 474 C69 471 67 468 67 466 C67 464 69 463 70 463 C72 463 74 464 76 465 L210 541 Z M127 228 L356 228 C353 326 288 397 204 397 C154 397 112 373 79 325 C51 285 36 239 36 192 C36 83 117 -10 211 -10 C285 -10 340 44 354 130 L336 130 C323 56 277 10 216 10 C186 10 160 23 146 45 C131 68 127 92 127 151 L127 228 Z M275 246 L127 246 L127 280 C127 346 152 377 204 377 C254 377 275 351 275 289 L275 246 Z " />
<glyph glyph-name="edieresis" unicode="&#xeb;" horiz-adv-x="389" d="M129 584 C103 584 81 562 81 536 C81 509 103 487 130 487 C156 487 178 509 178 535 C178 562 157 584 129 584 L129 584 Z M292 584 C266 584 244 562 244 536 C244 509 266 487 293 487 C319 487 341 509 341 535 C341 562 320 584 292 584 L292 584 Z M127 228 L356 228 C353 326 288 397 204 397 C154 397 112 373 79 325 C51 285 36 239 36 192 C36 83 117 -10 211 -10 C285 -10 340 44 354 130 L336 130 C323 56 277 10 216 10 C186 10 160 23 146 45 C131 68 127 92 127 151 L127 228 Z M275 246 L127 246 L127 280 C127 346 152 377 204 377 C254 377 275 351 275 289 L275 246 Z " />
<glyph glyph-name="igrave" unicode="&#xec;" horiz-adv-x="238" d="M163 387 L34 387 L34 369 L86 369 L86 18 L34 18 L34 0 L223 0 L223 18 L163 18 L163 387 Z M78 613 L13 613 C5 613 1 611 1 606 C1 603 4 598 8 595 L167 466 C170 463 171 463 172 463 C174 463 175 464 175 466 C175 467 175 469 174 470 L78 613 Z " />
<glyph glyph-name="iacute" unicode="&#xed;" horiz-adv-x="238" d="M162 387 L33 387 L33 369 L85 369 L85 18 L33 18 L33 0 L222 0 L222 18 L162 18 L162 387 Z M192 613 L96 470 C95 469 95 467 95 466 C95 464 97 463 98 463 C99 463 100 463 103 466 L262 595 C266 598 269 603 269 606 C269 611 265 613 257 613 L192 613 Z " />
<glyph glyph-name="icircumflex" unicode="&#xee;" horiz-adv-x="238" d="M163 387 L34 387 L34 369 L86 369 L86 18 L34 18 L34 0 L223 0 L223 18 L163 18 L163 387 Z M119 541 L253 465 C255 464 257 463 258 463 C260 463 262 464 262 466 C262 468 260 471 257 474 L119 617 L-18 474 C-21 471 -23 468 -23 466 C-23 464 -21 463 -20 463 C-18 463 -16 464 -14 465 L119 541 Z " />
<glyph glyph-name="idieresis" unicode="&#xef;" horiz-adv-x="238" d="M162 387 L33 387 L33 369 L85 369 L85 18 L33 18 L33 0 L222 0 L222 18 L162 18 L162 387 Z M53 580 C28 580 7 559 7 534 C7 508 28 487 54 487 C79 487 100 508 100 533 C100 559 80 580 53 580 L53 580 Z M183 580 C158 580 137 559 137 534 C137 508 158 487 184 487 C209 487 230 508 230 533 C230 559 210 580 183 580 L183 580 Z " />
<glyph glyph-name="eth" unicode="&#xf0;" horiz-adv-x="423" d="M134 544 L143 527 L205 580 C243 515 264 459 279 378 C249 393 232 397 207 397 C112 397 36 306 36 192 C36 80 115 -10 213 -10 C315 -10 387 80 387 208 C387 335 330 474 226 597 L285 649 L277 664 L214 610 C200 629 160 669 143 680 L134 667 C170 631 178 623 197 596 L134 544 Z M129 218 C131 304 131 311 138 328 C149 359 176 377 211 377 C243 377 268 362 282 335 C290 318 294 279 294 218 L294 169 C294 117 290 74 285 59 C273 28 245 10 211 10 C179 10 153 25 140 52 C132 71 131 77 129 169 L129 218 Z " />
<glyph glyph-name="ntilde" unicode="&#xf1;" horiz-adv-x="471" d="M388 572 C372 550 356 541 333 541 C319 541 300 544 286 549 L247 563 C226 571 214 573 197 573 C152 573 125 553 98 499 L107 493 C124 515 141 524 170 524 C184 524 201 521 217 515 L256 502 C275 495 290 492 302 492 C340 492 365 512 397 567 L388 572 Z M170 387 L33 387 L33 369 L93 369 L93 18 L33 18 L33 0 L222 0 L222 18 L170 18 L170 178 C170 249 174 289 184 312 C200 349 235 374 269 374 C307 374 325 348 325 292 L325 18 L265 18 L265 0 L454 0 L454 18 L402 18 L402 265 C402 310 395 335 378 357 C357 383 324 397 287 397 C239 397 207 379 170 330 L170 387 Z " />
<glyph glyph-name="ograve" unicode="&#xf2;" horiz-adv-x="423" d="M180 613 L115 613 C107 613 103 611 103 606 C103 603 106 598 110 595 L269 466 C272 463 273 463 274 463 C276 463 277 464 277 466 C277 467 277 469 276 470 L180 613 Z M211 397 C114 397 36 306 36 194 C36 80 114 -10 212 -10 C308 -10 387 81 387 191 C387 307 310 397 211 397 L211 397 Z M129 218 C131 304 131 311 138 328 C149 359 176 377 211 377 C243 377 268 362 282 335 C290 318 294 279 294 218 L294 169 C294 117 290 74 285 59 C273 28 245 10 211 10 C179 10 153 25 140 52 C132 71 131 77 129 169 L129 218 Z " />
<glyph glyph-name="oacute" unicode="&#xf3;" horiz-adv-x="423" d="M279 613 L183 470 C182 469 181 467 181 466 C181 465 183 463 184 463 C186 463 187 464 190 466 L348 595 C353 598 356 603 356 606 C356 611 352 613 344 613 L279 613 Z M211 397 C114 397 36 306 36 194 C36 80 114 -10 212 -10 C308 -10 387 81 387 191 C387 307 310 397 211 397 L211 397 Z M129 218 C131 304 131 311 138 328 C149 359 176 377 211 377 C243 377 268 362 282 335 C290 318 294 279 294 218 L294 169 C294 117 290 74 285 59 C273 28 245 10 211 10 C179 10 153 25 140 52 C132 71 131 77 129 169 L129 218 Z " />
<glyph glyph-name="ocircumflex" unicode="&#xf4;" horiz-adv-x="423" d="M218 541 L352 465 C354 464 355 463 357 463 C359 463 361 464 361 466 C361 468 359 470 355 474 L218 617 L81 474 C76 470 75 468 75 466 C75 464 77 463 79 463 C81 463 83 464 84 465 L218 541 Z M211 397 C114 397 36 306 36 194 C36 80 114 -10 212 -10 C308 -10 387 81 387 191 C387 307 310 397 211 397 L211 397 Z M129 218 C131 304 131 311 138 328 C149 359 176 377 211 377 C243 377 268 362 282 335 C290 318 294 279 294 218 L294 169 C294 117 290 74 285 59 C273 28 245 10 211 10 C179 10 153 25 140 52 C132 71 131 77 129 169 L129 218 Z " />
<glyph glyph-name="otilde" unicode="&#xf5;" horiz-adv-x="423" d="M364 572 C348 550 332 541 309 541 C295 541 276 544 263 549 L223 563 C202 571 190 573 173 573 C128 573 101 553 74 499 L83 493 C100 515 117 524 146 524 C160 524 177 521 193 515 L232 502 C251 495 266 492 278 492 C316 492 341 512 374 567 L364 572 Z M211 397 C114 397 36 306 36 194 C36 80 114 -10 212 -10 C308 -10 387 81 387 191 C387 307 310 397 211 397 L211 397 Z M129 218 C131 304 131 311 138 328 C149 359 176 377 211 377 C243 377 268 362 282 335 C290 318 294 279 294 218 L294 169 C294 117 290 74 285 59 C273 28 245 10 211 10 C179 10 153 25 140 52 C132 71 131 77 129 169 L129 218 Z " />
<glyph glyph-name="odieresis" unicode="&#xf6;" horiz-adv-x="423" d="M131 584 C105 584 83 562 83 536 C83 509 105 487 132 487 C158 487 180 509 180 535 C180 562 159 584 131 584 L131 584 Z M294 584 C268 584 246 562 246 536 C246 509 268 487 295 487 C321 487 343 509 343 535 C343 562 322 584 294 584 L294 584 Z M211 397 C114 397 36 306 36 194 C36 80 114 -10 212 -10 C308 -10 387 81 387 191 C387 307 310 397 211 397 L211 397 Z M129 218 C131 304 131 311 138 328 C149 359 176 377 211 377 C243 377 268 362 282 335 C290 318 294 279 294 218 L294 169 C294 117 290 74 285 59 C273 28 245 10 211 10 C179 10 153 25 140 52 C132 71 131 77 129 169 L129 218 Z " />
<glyph glyph-name="divide" unicode="&#xf7;" horiz-adv-x="450" d="M46 308 L404 308 L404 338 L46 338 L46 308 Z M225 530 C197 530 174 505 174 474 C174 443 197 417 225 417 C253 417 276 442 276 473 C276 505 254 530 225 530 L225 530 Z M225 231 C197 231 174 205 174 174 C174 143 197 117 225 117 C253 117 276 142 276 173 C276 206 254 231 225 231 L225 231 Z " />
<glyph glyph-name="oslash" unicode="&#xf8;" horiz-adv-x="423" d="M361 406 L346 416 L304 360 C274 385 242 397 206 397 C113 397 36 306 36 196 C36 136 56 88 97 45 L56 -11 L69 -23 L111 32 C144 4 178 -10 216 -10 C311 -10 387 80 387 192 C387 252 360 314 319 348 L361 406 Z M289 313 C292 294 294 261 294 218 L294 169 C294 117 290 74 285 59 C273 28 245 10 211 10 C175 10 149 28 137 61 L289 313 Z M132 84 C130 112 129 141 129 169 L129 218 C131 305 132 312 137 328 C149 359 176 377 211 377 C243 377 265 364 282 335 L132 84 Z " />
<glyph glyph-name="ugrave" unicode="&#xf9;" horiz-adv-x="460" d="M196 613 L131 613 C123 613 119 611 119 606 C119 603 122 598 127 595 L285 466 C289 463 289 463 290 463 C292 463 293 464 293 466 C293 467 293 469 292 470 L196 613 Z M384 387 L255 387 L255 369 L307 369 L307 200 C307 141 301 91 291 69 C275 34 242 13 205 13 C159 13 145 38 145 117 L145 387 L16 387 L16 369 L68 369 L68 131 C68 80 73 54 87 33 C106 6 142 -10 187 -10 C242 -10 276 9 307 60 L307 0 L444 0 L444 18 L384 18 L384 387 Z " />
<glyph glyph-name="uacute" unicode="&#xfa;" horiz-adv-x="460" d="M305 613 L209 470 C208 469 207 467 207 466 C207 465 208 463 210 463 C212 463 213 463 215 466 L374 595 C379 598 382 603 382 606 C382 611 378 613 370 613 L305 613 Z M384 387 L255 387 L255 369 L307 369 L307 200 C307 141 301 91 291 69 C275 34 242 13 205 13 C159 13 145 38 145 117 L145 387 L16 387 L16 369 L68 369 L68 131 C68 80 73 54 87 33 C106 6 142 -10 187 -10 C242 -10 276 9 307 60 L307 0 L444 0 L444 18 L384 18 L384 387 Z " />
<glyph glyph-name="ucircumflex" unicode="&#xfb;" horiz-adv-x="460" d="M227 541 L360 465 C362 464 364 463 366 463 C368 463 370 464 370 466 C370 468 369 470 364 474 L227 617 L89 474 C86 471 84 468 84 466 C84 464 86 463 88 463 C89 463 91 464 93 465 L227 541 Z M384 387 L255 387 L255 369 L307 369 L307 200 C307 141 301 91 291 69 C275 34 242 13 205 13 C159 13 145 38 145 117 L145 387 L16 387 L16 369 L68 369 L68 131 C68 80 73 54 87 33 C106 6 142 -10 187 -10 C242 -10 276 9 307 60 L307 0 L444 0 L444 18 L384 18 L384 387 Z " />
<glyph glyph-name="udieresis" unicode="&#xfc;" horiz-adv-x="460" d="M140 584 C114 584 92 562 92 536 C92 509 114 487 141 487 C167 487 189 509 189 535 C189 562 168 584 140 584 L140 584 Z M303 584 C277 584 255 562 255 536 C255 509 277 487 304 487 C330 487 352 509 352 535 C352 562 331 584 303 584 L303 584 Z M384 387 L255 387 L255 369 L307 369 L307 200 C307 141 301 91 291 69 C275 34 242 13 205 13 C159 13 145 38 145 117 L145 387 L16 387 L16 369 L68 369 L68 131 C68 80 73 54 87 33 C106 6 142 -10 187 -10 C242 -10 276 9 307 60 L307 0 L444 0 L444 18 L384 18 L384 387 Z " />
<glyph glyph-name="yacute" unicode="&#xfd;" horiz-adv-x="372" d="M279 613 L183 470 C182 469 181 467 181 466 C181 465 182 463 184 463 C186 463 187 463 189 466 L348 595 C353 598 356 603 356 606 C356 611 352 613 344 613 L279 613 Z M225 94 L122 369 L183 369 L183 387 L0 387 L0 369 L42 369 L194 -6 L145 -161 C133 -200 128 -208 116 -208 C110 -208 106 -206 102 -200 C88 -180 80 -174 64 -174 C42 -174 25 -194 25 -221 C25 -252 46 -274 75 -274 C114 -274 139 -244 163 -170 L333 369 L372 369 L372 387 L247 387 L247 369 L309 369 L225 94 Z " />
<glyph glyph-name="thorn" unicode="&#xfe;" horiz-adv-x="441" d="M153 667 L16 667 L16 649 L76 649 L76 -249 L16 -249 L16 -267 L217 -267 L217 -249 L153 -249 L153 82 C183 14 211 -10 260 -10 C340 -10 404 84 404 200 C404 312 342 397 262 397 C212 397 180 370 153 306 L153 667 Z M311 176 C311 55 294 10 247 10 C195 10 155 87 155 189 C155 301 194 377 251 377 C275 377 294 363 303 338 C309 320 311 296 311 249 L311 176 Z " />
<glyph glyph-name="ydieresis" unicode="&#xff;" horiz-adv-x="372" d="M124 584 C98 584 76 562 76 536 C76 509 98 487 125 487 C151 487 173 509 173 535 C173 562 152 584 124 584 L124 584 Z M287 584 C261 584 239 562 239 536 C239 509 261 487 288 487 C314 487 336 509 336 535 C336 562 315 584 287 584 L287 584 Z M225 94 L122 369 L183 369 L183 387 L0 387 L0 369 L42 369 L194 -6 L145 -161 C133 -200 128 -208 116 -208 C110 -208 106 -206 102 -200 C88 -180 80 -174 64 -174 C42 -174 25 -194 25 -221 C25 -252 46 -274 75 -274 C114 -274 139 -244 163 -170 L333 369 L372 369 L372 387 L247 387 L247 369 L309 369 L225 94 Z " />
<glyph glyph-name="Amacron" unicode="&#x100;" horiz-adv-x="546" d="M329 214 L389 18 L304 18 L304 0 L549 0 L549 18 L480 18 L283 667 L259 667 L54 18 L-3 18 L-3 0 L156 0 L156 18 L77 18 L138 214 L329 214 Z M323 232 L144 232 L234 527 L323 232 Z M418 749 L418 779 L118 779 L118 749 L418 749 Z " />
<glyph glyph-name="amacron" unicode="&#x101;" horiz-adv-x="380" d="M237 215 C174 213 145 208 113 193 C63 171 35 131 35 82 C35 26 71 -10 127 -10 C177 -10 210 15 237 71 C244 13 264 -10 307 -10 C330 -10 340 -6 371 18 L364 30 C353 19 346 15 338 15 C320 15 314 26 314 57 L314 282 C314 324 306 348 286 366 C264 385 228 397 191 397 C120 397 58 352 58 300 C58 275 71 257 90 257 C108 257 121 274 121 298 C121 309 119 315 114 329 C111 336 110 339 110 342 C110 359 147 380 178 380 C219 380 237 359 237 315 L237 215 Z M237 167 C237 131 234 106 229 90 C218 54 192 30 164 30 C132 30 111 58 111 99 C111 132 123 158 148 176 C171 193 191 198 237 200 L237 167 Z M319 499 L319 523 L71 523 L71 499 L319 499 Z " />
<glyph glyph-name="Abreve" unicode="&#x102;" horiz-adv-x="546" d="M329 214 L389 18 L304 18 L304 0 L549 0 L549 18 L480 18 L283 667 L259 667 L54 18 L-3 18 L-3 0 L156 0 L156 18 L77 18 L138 214 L329 214 Z M323 232 L144 232 L234 527 L323 232 Z M408 838 C398 813 387 800 368 791 C345 781 309 774 273 774 C237 774 201 781 178 791 C159 800 148 813 137 838 L124 838 C136 768 195 722 273 722 C350 722 410 768 422 838 L408 838 Z " />
<glyph glyph-name="abreve" unicode="&#x103;" horiz-adv-x="380" d="M237 215 C174 213 145 208 113 193 C63 171 35 131 35 82 C35 26 71 -10 127 -10 C177 -10 210 15 237 71 C244 13 264 -10 307 -10 C330 -10 340 -6 371 18 L364 30 C353 19 346 15 338 15 C320 15 314 26 314 57 L314 282 C314 324 306 348 286 366 C264 385 228 397 191 397 C120 397 58 352 58 300 C58 275 71 257 90 257 C108 257 121 274 121 298 C121 309 119 315 114 329 C111 336 110 339 110 342 C110 359 147 380 178 380 C219 380 237 359 237 315 L237 215 Z M237 167 C237 131 234 106 229 90 C218 54 192 30 164 30 C132 30 111 58 111 99 C111 132 123 158 148 176 C171 193 191 198 237 200 L237 167 Z M324 610 C315 576 306 559 288 545 C270 531 236 521 204 521 C172 521 138 531 120 545 C102 559 93 575 84 610 L72 610 C83 524 136 467 204 467 C272 467 324 523 335 610 L324 610 Z " />
<glyph glyph-name="Aogonek" unicode="&#x104;" horiz-adv-x="546" d="M549 0 L549 18 L480 18 L283 667 L259 667 L54 18 L-3 18 L-3 0 L156 0 L156 18 L77 18 L138 214 L329 214 L389 18 L304 18 L304 0 L474 0 C412 -24 383 -54 383 -96 C383 -137 411 -162 457 -162 C486 -162 504 -157 531 -141 L531 -127 C512 -134 503 -136 489 -136 C455 -136 438 -120 438 -87 C438 -53 455 -28 495 0 L549 0 Z M323 232 L144 232 L234 527 L323 232 Z " />
<glyph glyph-name="aogonek" unicode="&#x105;" horiz-adv-x="380" d="M364 30 C353 19 346 15 338 15 C320 15 314 26 314 57 L314 282 C314 324 306 348 286 366 C264 385 228 397 191 397 C120 397 58 352 58 300 C58 275 71 257 90 257 C108 257 121 274 121 298 C121 309 119 315 114 329 C111 336 110 339 110 342 C110 359 147 380 178 380 C219 380 237 359 237 315 L237 215 C174 213 145 208 113 193 C63 171 35 131 35 82 C35 26 71 -10 127 -10 C177 -10 210 15 237 71 C242 21 260 -4 297 -9 C253 -33 232 -61 232 -95 C232 -134 259 -159 303 -159 C331 -159 348 -154 374 -138 L374 -124 C357 -132 347 -134 334 -134 C301 -134 285 -118 285 -86 C285 -56 300 -30 331 -7 C340 -4 351 3 371 18 L364 30 Z M237 167 C237 131 234 106 229 90 C218 54 192 30 164 30 C132 30 111 58 111 99 C111 132 123 158 148 176 C171 193 191 198 237 200 L237 167 Z " />
<glyph glyph-name="Cacute" unicode="&#x106;" horiz-adv-x="532" d="M489 667 L477 667 L447 617 C396 661 357 677 303 677 C230 677 163 639 112 568 C65 504 42 423 42 328 C42 141 156 -10 297 -10 C348 -10 389 6 447 50 L477 0 L489 0 L489 185 L477 185 C460 133 450 110 433 85 C400 36 355 10 304 10 C249 10 200 41 177 90 C160 128 155 179 155 324 C155 431 160 506 169 543 C186 615 237 657 308 657 C355 657 397 637 429 599 C454 570 465 545 477 494 L489 494 L489 667 Z M367 833 L238 731 C234 727 233 726 233 724 C233 721 234 720 237 720 C239 720 242 720 243 721 L465 814 C474 818 477 821 477 825 C477 831 473 833 464 833 L367 833 Z " />
<glyph glyph-name="cacute" unicode="&#x107;" horiz-adv-x="363" d="M336 126 C318 51 275 10 214 10 C183 10 160 24 145 51 C133 72 129 103 129 165 L129 228 C129 336 154 378 219 378 C252 378 283 365 283 350 C283 348 283 346 279 341 C274 330 270 313 270 298 C270 268 283 249 304 249 C325 249 339 268 339 296 C339 354 288 397 218 397 C115 397 36 308 36 192 C36 79 112 -10 208 -10 C251 -10 289 8 317 41 C334 62 342 81 353 126 L336 126 Z M268 613 L172 470 C171 469 171 467 171 466 C171 464 173 463 174 463 C175 463 175 463 179 466 L338 595 C342 598 345 603 345 606 C345 611 341 613 333 613 L268 613 Z " />
<glyph glyph-name="Ccircumflex" unicode="&#x108;" horiz-adv-x="532" d="M489 667 L477 667 L447 617 C396 661 357 677 303 677 C230 677 163 639 112 568 C65 504 42 423 42 328 C42 141 156 -10 297 -10 C348 -10 389 6 447 50 L477 0 L489 0 L489 185 L477 185 C460 133 450 110 433 85 C400 36 355 10 304 10 C249 10 200 41 177 90 C160 128 155 179 155 324 C155 431 160 506 169 543 C186 615 237 657 308 657 C355 657 397 637 429 599 C454 570 465 545 477 494 L489 494 L489 667 Z M303 769 L451 721 C452 720 453 720 455 720 C458 720 460 721 460 723 C460 725 458 727 454 730 L303 838 L152 730 C147 726 146 725 146 723 C146 721 148 720 151 720 C153 720 154 720 156 721 L303 769 Z " />
<glyph glyph-name="Cdotaccent" unicode="&#x10a;" horiz-adv-x="532" d="M489 667 L477 667 L447 617 C396 661 357 677 303 677 C230 677 163 639 112 568 C65 504 42 423 42 328 C42 141 156 -10 297 -10 C348 -10 389 6 447 50 L477 0 L489 0 L489 185 L477 185 C460 133 450 110 433 85 C400 36 355 10 304 10 C249 10 200 41 177 90 C160 128 155 179 155 324 C155 431 160 506 169 543 C186 615 237 657 308 657 C355 657 397 637 429 599 C454 570 465 545 477 494 L489 494 L489 667 Z M302 826 C275 826 252 803 252 776 C252 748 275 725 303 725 C330 725 353 748 353 775 C353 804 331 826 302 826 L302 826 Z " />
<glyph glyph-name="cdotaccent" unicode="&#x10b;" horiz-adv-x="363" d="M336 126 C318 51 275 10 214 10 C183 10 160 24 145 51 C133 72 129 103 129 165 L129 228 C129 336 154 378 219 378 C252 378 283 365 283 350 C283 348 283 346 279 341 C274 330 270 313 270 298 C270 268 283 249 304 249 C325 249 339 268 339 296 C339 354 288 397 218 397 C115 397 36 308 36 192 C36 79 112 -10 208 -10 C251 -10 289 8 317 41 C334 62 342 81 353 126 L336 126 Z M213 586 C186 586 163 563 163 536 C163 508 186 485 214 485 C241 485 264 508 264 535 C264 564 242 586 213 586 L213 586 Z " />
<glyph glyph-name="Ccaron" unicode="&#x10c;" horiz-adv-x="532" d="M489 667 L477 667 L447 617 C396 661 357 677 303 677 C230 677 163 639 112 568 C65 504 42 423 42 328 C42 141 156 -10 297 -10 C348 -10 389 6 447 50 L477 0 L489 0 L489 185 L477 185 C460 133 450 110 433 85 C400 36 355 10 304 10 C249 10 200 41 177 90 C160 128 155 179 155 324 C155 431 160 506 169 543 C186 615 237 657 308 657 C355 657 397 637 429 599 C454 570 465 545 477 494 L489 494 L489 667 Z M305 789 L158 838 L153 838 C149 837 148 837 148 835 C148 833 149 832 154 829 L305 720 L456 829 C461 831 462 833 462 835 C462 837 460 838 457 838 L453 838 L305 789 Z " />
<glyph glyph-name="ccaron" unicode="&#x10d;" horiz-adv-x="363" d="M336 126 C318 51 275 10 214 10 C183 10 160 24 145 51 C133 72 129 103 129 165 L129 228 C129 336 154 378 219 378 C252 378 283 365 283 350 C283 348 283 346 279 341 C274 330 270 313 270 298 C270 268 283 249 304 249 C325 249 339 268 339 296 C339 354 288 397 218 397 C115 397 36 308 36 192 C36 79 112 -10 208 -10 C251 -10 289 8 317 41 C334 62 342 81 353 126 L336 126 Z M216 539 L82 615 C80 616 78 617 77 617 C75 617 73 616 73 614 C73 612 75 610 79 606 L216 463 L353 606 C357 610 359 612 359 614 C359 616 357 617 355 617 C353 617 351 616 349 615 L216 539 Z " />
<glyph glyph-name="Dcaron" unicode="&#x10e;" horiz-adv-x="606" d="M106 18 L30 18 L30 0 L260 0 C376 0 429 22 486 92 C536 154 564 240 564 334 C564 428 537 514 489 573 C434 641 371 667 259 667 L30 667 L30 649 L106 649 L106 18 Z M199 18 L199 649 L259 649 C332 649 371 636 403 603 C438 566 451 499 451 346 C451 204 442 127 421 90 C393 38 347 18 260 18 L199 18 Z M280 789 L133 838 L128 838 C124 837 123 837 123 835 C123 833 124 832 129 829 L280 720 L432 829 C435 831 437 833 437 835 C437 837 435 838 432 838 L428 838 L280 789 Z " />
<glyph glyph-name="dcaron" unicode="&#x10f;" horiz-adv-x="514" d="M289 0 L426 0 L426 18 L366 18 L366 667 L225 667 L225 649 L289 649 L289 307 C260 372 230 397 181 397 C97 397 36 312 36 194 C36 76 98 -10 183 -10 C232 -10 260 15 289 84 L289 0 Z M129 233 C129 277 132 315 137 331 C146 361 164 377 191 377 C249 377 287 305 287 192 C287 83 249 10 193 10 C168 10 149 26 139 55 C132 77 129 106 129 165 L129 233 Z M445 462 C488 501 510 541 510 582 C510 630 482 667 446 667 C418 667 398 644 398 612 C398 584 412 565 434 565 C453 565 467 582 467 606 C467 608 467 614 466 619 C482 608 490 593 490 570 C490 540 474 513 434 473 L445 462 Z " />
<glyph glyph-name="Dcroat" unicode="&#x110;" horiz-adv-x="606" d="M106 348 L30 348 L30 330 L106 330 L106 18 L30 18 L30 0 L260 0 C375 0 428 22 486 92 C536 154 564 240 564 334 C564 427 537 514 489 573 C434 641 371 667 259 667 L30 667 L30 649 L106 649 L106 348 Z M199 348 L199 649 L259 649 C332 649 371 636 403 603 C438 566 451 498 451 346 C451 204 442 127 421 90 C393 38 347 18 260 18 L199 18 L199 330 L331 330 L331 348 L199 348 Z " />
<glyph glyph-name="dcroat" unicode="&#x111;" horiz-adv-x="442" d="M289 532 L289 307 C260 372 230 397 181 397 C97 397 36 312 36 194 C36 76 98 -10 183 -10 C232 -10 260 15 289 84 L289 0 L426 0 L426 18 L366 18 L366 532 L426 532 L426 556 L366 556 L366 667 L225 667 L225 649 L289 649 L289 556 L140 556 L140 532 L289 532 Z M129 233 C129 277 132 315 137 331 C146 361 164 377 191 377 C249 377 287 305 287 192 C287 83 249 10 193 10 C168 10 149 26 139 55 C132 77 129 106 129 165 L129 233 Z " />
<glyph glyph-name="Emacron" unicode="&#x112;" horiz-adv-x="527" d="M455 667 L30 667 L30 649 L108 649 L108 18 L30 18 L30 0 L475 0 L492 208 L480 208 C468 154 456 116 444 92 C410 27 394 17 313 18 L201 18 L201 329 L238 329 C302 330 329 299 330 221 L330 198 L342 198 L342 472 L330 472 L330 453 C330 376 305 347 240 347 L201 347 L201 649 L272 649 C391 651 429 617 455 486 L467 486 L455 667 Z M421 749 L421 779 L121 779 L121 749 L421 749 Z " />
<glyph glyph-name="emacron" unicode="&#x113;" horiz-adv-x="389" d="M127 228 L356 228 C353 326 288 397 204 397 C154 397 112 373 79 325 C51 285 36 239 36 192 C36 83 117 -10 211 -10 C285 -10 340 44 354 130 L336 130 C323 56 277 10 216 10 C186 10 160 23 146 45 C131 68 127 92 127 151 L127 228 Z M275 246 L127 246 L127 280 C127 346 152 377 204 377 C254 377 275 351 275 289 L275 246 Z M329 499 L329 523 L81 523 L81 499 L329 499 Z " />
<glyph glyph-name="Ebreve" unicode="&#x114;" horiz-adv-x="527" d="M455 667 L30 667 L30 649 L108 649 L108 18 L30 18 L30 0 L475 0 L492 208 L480 208 C468 154 456 116 444 92 C410 27 394 17 313 18 L201 18 L201 329 L238 329 C302 330 329 299 330 221 L330 198 L342 198 L342 472 L330 472 L330 453 C330 376 305 347 240 347 L201 347 L201 649 L272 649 C391 651 429 617 455 486 L467 486 L455 667 Z M407 838 C397 813 386 800 367 791 C344 781 308 774 272 774 C236 774 200 781 177 791 C158 800 147 813 137 838 L123 838 C135 768 194 722 272 722 C349 722 409 768 421 838 L407 838 Z " />
<glyph glyph-name="ebreve" unicode="&#x115;" horiz-adv-x="389" d="M127 228 L356 228 C353 326 288 397 204 397 C154 397 112 373 79 325 C51 285 36 239 36 192 C36 83 117 -10 211 -10 C285 -10 340 44 354 130 L336 130 C323 56 277 10 216 10 C186 10 160 23 146 45 C131 68 127 92 127 151 L127 228 Z M275 246 L127 246 L127 280 C127 346 152 377 204 377 C254 377 275 351 275 289 L275 246 Z M331 610 C322 576 313 559 295 545 C277 531 243 521 211 521 C179 521 145 531 127 545 C109 559 100 575 91 610 L80 610 C90 524 143 467 211 467 C279 467 331 523 343 610 L331 610 Z " />
<glyph glyph-name="Edotaccent" unicode="&#x116;" horiz-adv-x="527" d="M455 667 L30 667 L30 649 L108 649 L108 18 L30 18 L30 0 L475 0 L492 208 L480 208 C468 154 456 116 444 92 C410 27 394 17 313 18 L201 18 L201 329 L238 329 C302 330 329 299 330 221 L330 198 L342 198 L342 472 L330 472 L330 453 C330 376 305 347 240 347 L201 347 L201 649 L272 649 C391 651 429 617 455 486 L467 486 L455 667 Z M275 826 C248 826 225 803 225 776 C225 748 248 725 276 725 C303 725 326 748 326 775 C326 804 304 826 275 826 L275 826 Z " />
<glyph glyph-name="edotaccent" unicode="&#x117;" horiz-adv-x="389" d="M127 228 L356 228 C353 326 288 397 204 397 C154 397 112 373 79 325 C51 285 36 239 36 192 C36 83 117 -10 211 -10 C285 -10 340 44 354 130 L336 130 C323 56 277 10 216 10 C186 10 160 23 146 45 C131 68 127 92 127 151 L127 228 Z M275 246 L127 246 L127 280 C127 346 152 377 204 377 C254 377 275 351 275 289 L275 246 Z M206 586 C179 586 156 563 156 536 C156 508 179 485 207 485 C234 485 257 508 257 535 C257 564 235 586 206 586 L206 586 Z " />
<glyph glyph-name="Eogonek" unicode="&#x118;" horiz-adv-x="527" d="M475 0 L492 208 L480 208 C468 154 456 116 444 92 C410 27 394 17 313 18 L201 18 L201 329 L238 329 C302 330 329 299 330 221 L330 198 L342 198 L342 472 L330 472 L330 453 C330 376 305 347 240 347 L201 347 L201 649 L272 649 C391 651 429 617 455 486 L467 486 L455 667 L30 667 L30 649 L108 649 L108 18 L30 18 L30 0 L416 0 C354 -24 325 -54 325 -96 C325 -137 353 -162 399 -162 C428 -162 446 -157 473 -141 L473 -127 C454 -134 445 -136 431 -136 C397 -136 380 -120 380 -87 C380 -53 397 -28 438 0 L475 0 Z " />
<glyph glyph-name="eogonek" unicode="&#x119;" horiz-adv-x="389" d="M295 20 C328 47 348 85 354 130 L336 130 C323 56 277 10 216 10 C186 10 160 23 146 45 C131 68 127 92 127 151 L127 228 L356 228 C353 326 288 397 204 397 C154 397 112 373 79 325 C51 285 36 239 36 192 C36 83 117 -10 211 -10 C222 -10 231 -9 242 -7 C195 -31 172 -59 172 -95 C172 -134 199 -159 243 -159 C271 -159 288 -154 314 -138 L314 -124 C297 -132 287 -134 274 -134 C241 -134 225 -118 225 -86 C225 -70 230 -53 239 -38 C247 -25 247 -25 293 17 L295 20 Z M275 246 L127 246 L127 280 C127 346 152 377 204 377 C254 377 275 351 275 289 L275 246 Z " />
<glyph glyph-name="Ecaron" unicode="&#x11a;" horiz-adv-x="527" d="M455 667 L30 667 L30 649 L108 649 L108 18 L30 18 L30 0 L475 0 L492 208 L480 208 C468 154 456 116 444 92 C410 27 394 17 313 18 L201 18 L201 329 L238 329 C302 330 329 299 330 221 L330 198 L342 198 L342 472 L330 472 L330 453 C330 376 305 347 240 347 L201 347 L201 649 L272 649 C391 651 429 617 455 486 L467 486 L455 667 Z M274 789 L126 838 L122 838 C118 838 117 837 117 835 C117 833 118 832 123 829 L274 720 L425 829 C430 832 431 833 431 835 C431 837 429 838 426 838 L422 838 L274 789 Z " />
<glyph glyph-name="ecaron" unicode="&#x11b;" horiz-adv-x="389" d="M127 228 L356 228 C353 326 288 397 204 397 C154 397 112 373 79 325 C51 285 36 239 36 192 C36 83 117 -10 211 -10 C285 -10 340 44 354 130 L336 130 C323 56 277 10 216 10 C186 10 160 23 146 45 C131 68 127 92 127 151 L127 228 Z M275 246 L127 246 L127 280 C127 346 152 377 204 377 C254 377 275 351 275 289 L275 246 Z M209 539 L75 615 C73 616 72 617 70 617 C68 617 66 616 66 614 C66 612 67 610 72 606 L209 463 L346 606 C350 610 352 612 352 614 C352 616 350 617 348 617 C346 617 345 616 343 615 L209 539 Z " />
<glyph glyph-name="Gcircumflex" unicode="&#x11c;" horiz-adv-x="571" d="M477 667 L465 667 L435 625 C388 661 347 677 298 677 C236 677 178 648 130 593 C71 525 42 437 42 328 C42 235 63 161 109 95 C157 25 218 -10 292 -10 C357 -10 414 18 454 70 C480 104 491 137 502 212 L562 212 L562 230 L310 230 L310 212 L404 212 C403 153 402 129 396 106 C380 44 341 10 285 10 C227 10 187 44 170 109 C160 144 155 213 155 317 C155 431 162 522 175 562 C194 623 238 657 299 657 C382 657 438 594 465 471 L477 471 L477 667 Z M302 769 L450 721 C451 720 452 720 454 720 C457 720 459 721 459 723 C459 725 457 727 453 730 L302 838 L151 730 C146 726 145 725 145 723 C145 721 147 720 150 720 C152 720 153 720 155 721 L302 769 Z " />
<glyph glyph-name="gcircumflex" unicode="&#x11d;" horiz-adv-x="393" d="M126 18 C82 18 60 30 60 54 C60 77 85 106 129 133 C152 122 171 117 195 117 C269 117 327 177 327 254 C327 290 320 312 297 343 C309 355 317 361 325 361 C332 361 337 357 338 349 C341 324 349 315 365 315 C382 315 393 329 393 352 C393 376 377 391 352 391 C330 391 315 382 286 353 C254 386 228 397 188 397 C110 397 53 339 53 259 C53 210 69 178 112 144 C106 139 106 139 99 134 C74 116 74 116 68 110 C38 82 24 53 24 20 C24 -26 48 -55 97 -69 C44 -93 25 -116 25 -157 C25 -224 93 -274 186 -274 C294 -274 370 -198 370 -89 C370 -44 358 -13 334 3 C316 15 297 18 251 18 L126 18 Z M135 288 C135 354 149 377 190 377 C233 377 244 360 244 293 L244 228 C244 156 233 137 189 137 C146 137 135 156 135 228 L135 288 Z M114 -70 L151 -70 L269 -70 C325 -70 325 -70 338 -75 C353 -80 361 -94 361 -115 C361 -191 283 -254 188 -254 C110 -254 58 -211 58 -148 C58 -118 68 -96 95 -70 L114 -70 Z M194 541 L327 465 C329 464 331 463 333 463 C335 463 337 464 337 466 C337 468 336 469 331 474 L194 617 L56 474 C53 471 51 468 51 466 C51 464 53 463 54 463 C56 463 58 464 60 465 L194 541 Z " />
<glyph glyph-name="Gbreve" unicode="&#x11e;" horiz-adv-x="571" d="M477 667 L465 667 L435 625 C388 661 347 677 298 677 C236 677 178 648 130 593 C71 525 42 437 42 328 C42 235 63 161 109 95 C157 25 218 -10 292 -10 C357 -10 414 18 454 70 C480 104 491 137 502 212 L562 212 L562 230 L310 230 L310 212 L404 212 C403 153 402 129 396 106 C380 44 341 10 285 10 C227 10 187 44 170 109 C160 144 155 213 155 317 C155 431 162 522 175 562 C194 623 238 657 299 657 C382 657 438 594 465 471 L477 471 L477 667 Z M431 838 C421 813 410 800 391 791 C368 781 332 774 296 774 C260 774 224 781 201 791 C182 800 171 813 160 838 L147 838 C159 768 218 722 296 722 C373 722 433 768 445 838 L431 838 Z " />
<glyph glyph-name="gbreve" unicode="&#x11f;" horiz-adv-x="393" d="M126 18 C82 18 60 30 60 54 C60 77 85 106 129 133 C152 122 171 117 195 117 C269 117 327 177 327 254 C327 290 320 312 297 343 C309 355 317 361 325 361 C332 361 337 357 338 349 C341 324 349 315 365 315 C382 315 393 329 393 352 C393 376 377 391 352 391 C330 391 315 382 286 353 C254 386 228 397 188 397 C110 397 53 339 53 259 C53 210 69 178 112 144 C106 139 106 139 99 134 C74 116 74 116 68 110 C38 82 24 53 24 20 C24 -26 48 -55 97 -69 C44 -93 25 -116 25 -157 C25 -224 93 -274 186 -274 C294 -274 370 -198 370 -89 C370 -44 358 -13 334 3 C316 15 297 18 251 18 L126 18 Z M135 288 C135 354 149 377 190 377 C233 377 244 360 244 293 L244 228 C244 156 233 137 189 137 C146 137 135 156 135 228 L135 288 Z M114 -70 L151 -70 L269 -70 C325 -70 325 -70 338 -75 C353 -80 361 -94 361 -115 C361 -191 283 -254 188 -254 C110 -254 58 -211 58 -148 C58 -118 68 -96 95 -70 L114 -70 Z M314 610 C305 576 296 559 278 545 C260 531 225 521 194 521 C162 521 128 531 109 545 C92 559 82 575 73 610 L62 610 C73 524 125 467 194 467 C262 467 314 523 325 610 L314 610 Z " />
<glyph glyph-name="Gdotaccent" unicode="&#x120;" horiz-adv-x="571" d="M477 667 L465 667 L435 625 C388 661 347 677 298 677 C236 677 178 648 130 593 C71 525 42 437 42 328 C42 235 63 161 109 95 C157 25 218 -10 292 -10 C357 -10 414 18 454 70 C480 104 491 137 502 212 L562 212 L562 230 L310 230 L310 212 L404 212 C403 153 402 129 396 106 C380 44 341 10 285 10 C227 10 187 44 170 109 C160 144 155 213 155 317 C155 431 162 522 175 562 C194 623 238 657 299 657 C382 657 438 594 465 471 L477 471 L477 667 Z M297 826 C270 826 247 803 247 776 C247 748 270 725 298 725 C325 725 348 748 348 775 C348 804 326 826 297 826 L297 826 Z " />
<glyph glyph-name="gdotaccent" unicode="&#x121;" horiz-adv-x="393" d="M126 18 C82 18 60 30 60 54 C60 77 85 106 129 133 C152 122 171 117 195 117 C269 117 327 177 327 254 C327 290 320 312 297 343 C309 355 317 361 325 361 C332 361 337 357 338 349 C341 324 349 315 365 315 C382 315 393 329 393 352 C393 376 377 391 352 391 C330 391 315 382 286 353 C254 386 228 397 188 397 C110 397 53 339 53 259 C53 210 69 178 112 144 C106 139 106 139 99 134 C74 116 74 116 68 110 C38 82 24 53 24 20 C24 -26 48 -55 97 -69 C44 -93 25 -116 25 -157 C25 -224 93 -274 186 -274 C294 -274 370 -198 370 -89 C370 -44 358 -13 334 3 C316 15 297 18 251 18 L126 18 Z M135 288 C135 354 149 377 190 377 C233 377 244 360 244 293 L244 228 C244 156 233 137 189 137 C146 137 135 156 135 228 L135 288 Z M114 -70 L151 -70 L269 -70 C325 -70 325 -70 338 -75 C353 -80 361 -94 361 -115 C361 -191 283 -254 188 -254 C110 -254 58 -211 58 -148 C58 -118 68 -96 95 -70 L114 -70 Z M195 586 C168 586 145 563 145 536 C145 508 168 485 196 485 C223 485 246 508 246 535 C246 564 224 586 195 586 L195 586 Z " />
<glyph glyph-name="Gcommaaccent" unicode="&#x122;" horiz-adv-x="571" d="M477 667 L465 667 L435 625 C388 661 347 677 298 677 C236 677 178 648 130 593 C71 525 42 437 42 328 C42 235 63 161 109 95 C157 25 218 -10 292 -10 C357 -10 414 18 454 70 C480 104 491 137 502 212 L562 212 L562 230 L310 230 L310 212 L404 212 C403 153 402 129 396 106 C380 44 341 10 285 10 C227 10 187 44 170 109 C160 144 155 213 155 317 C155 431 162 522 175 562 C194 623 238 657 299 657 C382 657 438 594 465 471 L477 471 L477 667 Z M268 -278 C315 -235 340 -189 340 -144 C340 -93 311 -54 273 -54 C244 -54 223 -78 223 -111 C223 -141 238 -161 260 -161 C280 -161 294 -143 294 -118 C294 -114 294 -110 293 -105 C311 -116 319 -132 319 -157 C319 -190 302 -221 257 -267 L268 -278 Z " />
<glyph glyph-name="gcommaaccent" unicode="&#x123;" horiz-adv-x="393" d="M126 18 C82 18 60 30 60 54 C60 77 85 106 129 133 C152 122 171 117 195 117 C269 117 327 177 327 254 C327 290 320 312 297 343 C309 355 317 361 325 361 C332 361 337 357 338 349 C341 324 349 315 365 315 C382 315 393 329 393 352 C393 376 377 391 352 391 C330 391 315 382 286 353 C254 386 228 397 188 397 C110 397 53 339 53 259 C53 210 69 178 112 144 C106 139 106 139 99 134 C74 116 74 116 68 110 C38 82 24 53 24 20 C24 -26 48 -55 97 -69 C44 -93 25 -116 25 -157 C25 -224 93 -274 186 -274 C294 -274 370 -198 370 -89 C370 -44 358 -13 334 3 C316 15 297 18 251 18 L126 18 Z M135 288 C135 354 149 377 190 377 C233 377 244 360 244 293 L244 228 C244 156 233 137 189 137 C146 137 135 156 135 228 L135 288 Z M114 -70 L151 -70 L269 -70 C325 -70 325 -70 338 -75 C353 -80 361 -94 361 -115 C361 -191 283 -254 188 -254 C110 -254 58 -211 58 -148 C58 -118 68 -96 95 -70 L114 -70 Z M206 652 C162 614 140 573 140 533 C140 485 168 447 204 447 C232 447 252 470 252 502 C252 531 238 550 217 550 C198 550 184 533 184 509 C184 506 184 501 185 496 C168 506 160 522 160 545 C160 574 176 601 217 641 L206 652 Z " />
<glyph glyph-name="Hcircumflex" unicode="&#x124;" horiz-adv-x="639" d="M438 330 L438 18 L363 18 L363 0 L609 0 L609 18 L531 18 L531 649 L609 649 L609 667 L363 667 L363 649 L438 649 L438 348 L201 348 L201 649 L276 649 L276 667 L30 667 L30 649 L108 649 L108 18 L30 18 L30 0 L276 0 L276 18 L201 18 L201 330 L438 330 Z M319 769 L467 721 C468 720 470 720 471 720 C474 720 476 721 476 723 C476 725 475 727 471 730 L319 838 L168 730 C163 726 162 725 162 723 C162 721 164 720 167 720 C169 720 170 720 172 721 L319 769 Z " />
<glyph glyph-name="Hbar" unicode="&#x126;" horiz-adv-x="639" d="M108 475 L108 18 L30 18 L30 0 L276 0 L276 18 L201 18 L201 330 L438 330 L438 18 L363 18 L363 0 L609 0 L609 18 L531 18 L531 475 L602 475 L602 493 L531 493 L531 649 L609 649 L609 667 L363 667 L363 649 L438 649 L438 493 L201 493 L201 649 L276 649 L276 667 L30 667 L30 649 L108 649 L108 493 L40 493 L40 475 L108 475 Z M201 475 L438 475 L438 348 L201 348 L201 475 Z " />
<glyph glyph-name="hbar" unicode="&#x127;" horiz-adv-x="470" d="M153 556 L153 667 L16 667 L16 649 L76 649 L76 556 L16 556 L16 532 L76 532 L76 18 L16 18 L16 0 L205 0 L205 18 L153 18 L153 177 C153 235 158 280 168 304 C187 348 221 374 261 374 C306 374 324 349 324 286 L324 18 L264 18 L264 0 L453 0 L453 18 L401 18 L401 286 C401 361 365 397 289 397 C231 397 196 379 153 327 L153 532 L306 532 L306 556 L153 556 Z " />
<glyph glyph-name="Imacron" unicode="&#x12a;" horiz-adv-x="300" d="M108 18 L30 18 L30 0 L270 0 L270 18 L201 18 L201 649 L270 649 L270 667 L30 667 L30 649 L108 649 L108 18 Z M284 749 L284 779 L17 779 L17 749 L284 749 Z " />
<glyph glyph-name="imacron" unicode="&#x12b;" horiz-adv-x="238" d="M163 387 L34 387 L34 369 L86 369 L86 18 L34 18 L34 0 L223 0 L223 18 L163 18 L163 387 Z M220 499 L220 523 L8 523 L8 499 L220 499 Z " />
<glyph glyph-name="ibreve" unicode="&#x12d;" horiz-adv-x="238" d="M162 387 L33 387 L33 369 L85 369 L85 18 L33 18 L33 0 L222 0 L222 18 L162 18 L162 387 Z M248 610 C239 576 230 559 212 545 C194 531 160 521 128 521 C96 521 62 531 43 545 C26 559 17 575 7 610 L-4 610 C7 524 59 467 128 467 C196 467 248 523 259 610 L248 610 Z " />
<glyph glyph-name="Iogonek" unicode="&#x12e;" horiz-adv-x="300" d="M270 0 L270 18 L201 18 L201 649 L270 649 L270 667 L30 667 L30 649 L108 649 L108 18 L30 18 L30 0 L193 0 C131 -24 103 -54 103 -96 C103 -136 131 -162 176 -162 C205 -162 223 -157 250 -141 L250 -127 C232 -134 222 -136 209 -136 C175 -136 158 -120 158 -87 C158 -53 175 -27 215 0 L270 0 Z " />
<glyph glyph-name="iogonek" unicode="&#x12f;" horiz-adv-x="238" d="M222 0 L222 18 L162 18 L162 387 L33 387 L33 369 L85 369 L85 18 L33 18 L33 0 L161 0 C101 -27 76 -55 76 -95 C76 -134 103 -159 147 -159 C175 -159 192 -154 218 -138 L218 -124 C201 -132 191 -134 178 -134 C145 -134 129 -118 129 -86 C129 -52 145 -28 184 0 L222 0 Z M121 654 C92 654 68 630 68 601 C68 571 92 547 122 547 C151 547 175 571 175 600 C175 630 152 654 121 654 L121 654 Z " />
<glyph glyph-name="Idotaccent" unicode="&#x130;" horiz-adv-x="300" d="M108 18 L30 18 L30 0 L270 0 L270 18 L201 18 L201 649 L270 649 L270 667 L30 667 L30 649 L108 649 L108 18 Z M156 826 C129 826 106 803 106 776 C106 748 129 725 157 725 C184 725 207 748 207 775 C207 804 185 826 156 826 L156 826 Z " />
<glyph glyph-name="dotlessi" unicode="&#x131;" horiz-adv-x="238" d="M162 387 L33 387 L33 369 L85 369 L85 18 L33 18 L33 0 L222 0 L222 18 L162 18 L162 387 Z " />
<glyph glyph-name="Kcommaaccent" unicode="&#x136;" horiz-adv-x="590" d="M108 18 L30 18 L30 0 L270 0 L270 18 L201 18 L201 649 L270 649 L270 667 L30 667 L30 649 L108 649 L108 18 Z M282 407 L477 649 L552 649 L552 667 L362 667 L362 649 L449 649 L209 353 L435 18 L355 18 L355 0 L590 0 L590 18 L544 18 L282 407 Z M321 -105 C338 -116 346 -132 346 -157 C346 -190 329 -221 284 -267 L295 -278 C343 -234 367 -189 367 -144 C367 -93 338 -54 300 -54 C271 -54 250 -78 250 -111 C250 -141 265 -161 287 -161 C307 -161 321 -143 321 -118 L321 -105 Z " />
<glyph glyph-name="kcommaaccent" unicode="&#x137;" horiz-adv-x="441" d="M145 667 L16 667 L16 649 L68 649 L68 18 L16 18 L16 0 L205 0 L205 18 L145 18 L145 667 Z M231 250 L347 369 L407 369 L407 387 L231 387 L231 369 L316 369 L164 214 L298 18 L249 18 L249 0 L440 0 L440 18 L397 18 L231 250 Z M215 -259 C259 -221 281 -180 281 -140 C281 -92 253 -54 217 -54 C189 -54 169 -77 169 -109 C169 -138 183 -157 204 -157 C223 -157 237 -139 237 -116 C237 -112 237 -108 236 -103 C253 -113 261 -129 261 -151 C261 -181 245 -208 204 -248 L215 -259 Z " />
<glyph glyph-name="Lacute" unicode="&#x139;" horiz-adv-x="510" d="M474 0 L486 205 L474 205 C446 56 412 15 320 18 L201 18 L201 649 L270 649 L270 667 L30 667 L30 649 L108 649 L108 18 L30 18 L30 0 L474 0 Z M282 833 L153 731 C149 727 148 726 148 724 C148 721 149 720 152 720 C154 720 157 720 158 721 L380 814 C389 818 392 821 392 825 C392 831 388 833 379 833 L282 833 Z " />
<glyph glyph-name="lacute" unicode="&#x13a;" horiz-adv-x="221" d="M145 667 L7 667 L7 649 L68 649 L68 18 L7 18 L7 0 L214 0 L214 18 L145 18 L145 667 Z M187 833 L58 731 C54 727 53 726 53 724 C53 721 54 720 57 720 C59 720 62 720 63 721 L285 814 C294 818 297 821 297 825 C297 831 293 833 284 833 L187 833 Z " />
<glyph glyph-name="Lcommaaccent" unicode="&#x13b;" horiz-adv-x="510" d="M474 0 L486 205 L474 205 C446 56 412 15 320 18 L201 18 L201 649 L270 649 L270 667 L30 667 L30 649 L108 649 L108 18 L30 18 L30 0 L474 0 Z M277 -105 C294 -116 302 -132 302 -157 C302 -190 285 -221 241 -267 L252 -278 C298 -235 323 -189 323 -144 C323 -93 294 -54 256 -54 C227 -54 206 -78 206 -111 C206 -141 221 -161 243 -161 C263 -161 277 -143 277 -118 L277 -105 Z " />
<glyph glyph-name="lcommaaccent" unicode="&#x13c;" horiz-adv-x="221" d="M145 667 L7 667 L7 649 L68 649 L68 18 L7 18 L7 0 L214 0 L214 18 L145 18 L145 667 Z M125 -103 C141 -113 149 -129 149 -151 C149 -181 134 -207 92 -248 L104 -259 C147 -220 169 -180 169 -140 C169 -92 141 -54 105 -54 C77 -54 57 -77 57 -109 C57 -138 71 -157 92 -157 C111 -157 125 -139 125 -116 L125 -103 Z " />
<glyph glyph-name="Lcaron" unicode="&#x13d;" horiz-adv-x="510" d="M474 0 L486 205 L474 205 C446 56 412 15 320 18 L201 18 L201 649 L270 649 L270 667 L30 667 L30 649 L108 649 L108 18 L30 18 L30 0 L474 0 Z M340 444 C387 487 411 533 411 577 C411 628 382 667 344 667 C315 667 294 643 294 610 C294 580 309 560 331 560 C352 560 366 578 366 603 C366 606 366 611 365 616 C382 605 390 589 390 565 C390 531 373 501 329 454 L340 444 Z " />
<glyph glyph-name="lcaron" unicode="&#x13e;" horiz-adv-x="292" d="M145 667 L7 667 L7 649 L68 649 L68 18 L7 18 L7 0 L214 0 L214 18 L145 18 L145 667 Z M245 619 C261 608 269 593 269 570 C269 540 253 513 212 473 L224 462 C267 501 289 541 289 582 C289 630 261 667 225 667 C197 667 177 644 177 612 C177 584 191 565 212 565 C231 565 245 582 245 606 L245 619 Z " />
<glyph glyph-name="Ldot" unicode="&#x13f;" horiz-adv-x="510" d="M474 0 L486 205 L474 205 C446 56 412 15 320 18 L201 18 L201 649 L270 649 L270 667 L30 667 L30 649 L108 649 L108 18 L30 18 L30 0 L474 0 Z M312 364 C285 364 262 341 262 314 C262 286 285 263 313 263 C340 263 363 286 363 313 C363 342 341 364 312 364 L312 364 Z " />
<glyph glyph-name="ldot" unicode="&#x140;" horiz-adv-x="283" d="M145 667 L7 667 L7 649 L68 649 L68 18 L7 18 L7 0 L214 0 L214 18 L145 18 L145 667 Z M238 366 C211 366 188 343 188 316 C188 288 211 265 239 265 C266 265 289 288 289 315 C289 344 267 366 238 366 L238 366 Z " />
<glyph glyph-name="Lslash" unicode="&#x141;" horiz-adv-x="510" d="M108 269 L108 18 L30 18 L30 0 L474 0 L486 205 L474 205 C446 56 412 15 320 18 L201 18 L201 324 L348 455 L348 480 L201 349 L201 649 L270 649 L270 667 L30 667 L30 649 L108 649 L108 294 L30 228 L30 203 L108 269 Z " />
<glyph glyph-name="lslash" unicode="&#x142;" horiz-adv-x="221" d="M68 321 L-1 255 L-1 230 L68 296 L68 18 L7 18 L7 0 L215 0 L215 18 L145 18 L145 367 L206 425 L206 450 L145 392 L145 667 L7 667 L7 649 L68 649 L68 321 Z " />
<glyph glyph-name="Nacute" unicode="&#x143;" horiz-adv-x="611" d="M499 0 L515 0 L515 649 L581 649 L581 667 L416 667 L416 649 L492 649 L492 185 L211 667 L21 667 L21 649 L99 649 L99 18 L21 18 L21 0 L204 0 L204 18 L122 18 L122 644 L499 0 Z M400 833 L271 731 C266 727 266 726 266 724 C266 721 267 720 270 720 C273 720 276 720 277 721 L498 814 C506 817 510 821 510 825 C510 830 506 833 497 833 L400 833 Z " />
<glyph glyph-name="nacute" unicode="&#x144;" horiz-adv-x="471" d="M170 387 L33 387 L33 369 L93 369 L93 18 L33 18 L33 0 L222 0 L222 18 L170 18 L170 178 C170 249 174 289 184 312 C200 349 235 374 269 374 C307 374 325 348 325 292 L325 18 L265 18 L265 0 L454 0 L454 18 L402 18 L402 265 C402 310 395 335 378 357 C357 383 324 397 287 397 C239 397 207 379 170 330 L170 387 Z M306 613 L210 470 L209 466 C209 464 210 463 212 463 C213 463 214 463 217 466 L376 595 C380 598 383 603 383 606 C383 611 379 613 371 613 L306 613 Z " />
<glyph glyph-name="Ncommaaccent" unicode="&#x145;" horiz-adv-x="611" d="M499 0 L515 0 L515 649 L581 649 L581 667 L416 667 L416 649 L492 649 L492 185 L211 667 L21 667 L21 649 L99 649 L99 18 L21 18 L21 0 L204 0 L204 18 L122 18 L122 644 L499 0 Z M320 -105 C337 -116 345 -132 345 -157 C345 -190 328 -221 283 -267 L294 -278 C342 -234 366 -189 366 -144 C366 -93 337 -54 299 -54 C270 -54 249 -78 249 -111 C249 -141 264 -161 286 -161 C306 -161 320 -143 320 -118 L320 -105 Z " />
<glyph glyph-name="ncommaaccent" unicode="&#x146;" horiz-adv-x="471" d="M170 387 L33 387 L33 369 L93 369 L93 18 L33 18 L33 0 L222 0 L222 18 L170 18 L170 178 C170 249 174 289 184 312 C200 349 235 374 269 374 C307 374 325 348 325 292 L325 18 L265 18 L265 0 L454 0 L454 18 L402 18 L402 265 C402 310 395 335 378 357 C357 383 324 397 287 397 C239 397 207 379 170 330 L170 387 Z M235 -259 C278 -221 300 -180 300 -140 C300 -92 272 -54 236 -54 C208 -54 188 -77 188 -109 C188 -138 202 -157 224 -157 C243 -157 257 -139 257 -116 C257 -113 257 -108 256 -103 C272 -113 280 -129 280 -151 C280 -181 264 -208 224 -248 L235 -259 Z " />
<glyph glyph-name="Ncaron" unicode="&#x147;" horiz-adv-x="611" d="M499 0 L515 0 L515 649 L581 649 L581 667 L416 667 L416 649 L492 649 L492 185 L211 667 L21 667 L21 649 L99 649 L99 18 L21 18 L21 0 L204 0 L204 18 L122 18 L122 644 L499 0 Z M313 789 L166 838 L161 838 C158 838 156 837 156 835 C156 833 157 832 162 829 L313 720 L465 829 C469 831 470 833 470 835 C470 837 468 838 465 838 L461 838 L313 789 Z " />
<glyph glyph-name="ncaron" unicode="&#x148;" horiz-adv-x="471" d="M170 387 L33 387 L33 369 L93 369 L93 18 L33 18 L33 0 L222 0 L222 18 L170 18 L170 178 C170 249 174 289 184 312 C200 349 235 374 269 374 C307 374 325 348 325 292 L325 18 L265 18 L265 0 L454 0 L454 18 L402 18 L402 265 C402 310 395 335 378 357 C357 383 324 397 287 397 C239 397 207 379 170 330 L170 387 Z M250 539 L116 615 C114 616 113 617 111 617 C109 617 107 616 107 614 C107 612 108 610 113 606 L250 463 L387 606 C391 610 393 612 393 614 C393 616 391 617 389 617 C387 617 386 616 384 615 L250 539 Z " />
<glyph glyph-name="Omacron" unicode="&#x14c;" horiz-adv-x="594" d="M297 677 C230 677 169 644 119 582 C69 519 42 433 42 334 C42 139 153 -10 297 -10 C440 -10 552 139 552 330 C552 426 530 505 486 568 C436 639 370 677 297 677 L297 677 Z M297 657 C357 657 404 620 424 559 C436 519 439 480 439 329 C439 203 437 161 428 124 C411 52 363 10 297 10 C237 10 190 46 170 108 C158 148 155 188 155 333 C155 464 157 506 166 543 C183 615 231 657 297 657 L297 657 Z M447 749 L447 779 L147 779 L147 749 L447 749 Z " />
<glyph glyph-name="omacron" unicode="&#x14d;" horiz-adv-x="423" d="M211 397 C114 397 36 306 36 194 C36 80 114 -10 212 -10 C308 -10 387 81 387 191 C387 307 310 397 211 397 L211 397 Z M129 218 C131 304 131 311 138 328 C149 359 176 377 211 377 C243 377 268 362 282 335 C290 318 294 279 294 218 L294 169 C294 117 290 74 285 59 C273 28 245 10 211 10 C179 10 153 25 140 52 C132 71 131 77 129 169 L129 218 Z M338 499 L338 523 L90 523 L90 499 L338 499 Z " />
<glyph glyph-name="Ohungarumlaut" unicode="&#x150;" horiz-adv-x="594" d="M297 677 C230 677 169 644 119 582 C69 519 42 433 42 334 C42 139 153 -10 297 -10 C440 -10 552 139 552 330 C552 426 530 505 486 568 C436 639 370 677 297 677 L297 677 Z M297 657 C357 657 404 620 424 559 C436 519 439 480 439 329 C439 203 437 161 428 124 C411 52 363 10 297 10 C237 10 190 46 170 108 C158 148 155 188 155 333 C155 464 157 506 166 543 C183 615 231 657 297 657 L297 657 Z M476 833 L364 731 C360 727 359 726 359 724 C359 721 360 720 363 720 C365 720 368 720 369 721 L557 813 C568 819 570 821 570 825 C570 831 566 833 556 833 L476 833 Z M328 833 L216 731 C212 728 211 726 211 724 C211 721 212 720 215 720 C217 720 219 720 221 721 L409 813 C418 818 421 821 421 825 C421 831 417 833 408 833 L328 833 Z " />
<glyph glyph-name="ohungarumlaut" unicode="&#x151;" horiz-adv-x="423" d="M211 397 C114 397 36 306 36 194 C36 80 114 -10 212 -10 C308 -10 387 81 387 191 C387 307 310 397 211 397 L211 397 Z M129 218 C131 304 131 311 138 328 C149 359 176 377 211 377 C243 377 268 362 282 335 C290 318 294 279 294 218 L294 169 C294 117 290 74 285 59 C273 28 245 10 211 10 C179 10 153 25 140 52 C132 71 131 77 129 169 L129 218 Z M359 613 L263 470 C262 469 262 468 262 466 C262 464 263 463 265 463 C266 463 268 464 270 466 L422 595 C426 598 429 603 429 606 C429 611 425 613 417 613 L359 613 Z M235 613 L140 470 C139 469 138 467 138 466 C138 464 139 463 141 463 C143 463 145 464 147 466 L298 595 C303 598 306 603 306 606 C306 611 302 613 294 613 L235 613 Z " />
<glyph glyph-name="OE" unicode="&#x152;" horiz-adv-x="830" d="M758 667 L395 667 C362 675 346 677 323 677 C162 677 42 528 42 331 C42 245 65 168 108 106 C163 28 233 -10 321 -10 C347 -10 363 -8 395 0 L778 0 L795 208 L783 208 C771 154 759 116 747 92 C713 27 697 17 616 18 L504 18 L504 329 L541 329 C605 330 632 299 633 221 L633 198 L645 198 L645 472 L633 472 L633 453 C633 376 608 347 543 347 L504 347 L504 649 L575 649 C694 651 732 617 758 486 L770 486 L758 667 Z M411 30 C374 14 357 10 323 10 C260 10 216 32 189 79 C166 118 155 189 155 302 C155 390 162 507 170 545 C183 612 245 657 323 657 C351 657 370 653 411 639 L411 30 Z " />
<glyph glyph-name="oe" unicode="&#x153;" horiz-adv-x="652" d="M599 130 C586 56 537 10 474 10 C443 10 416 23 402 45 C387 68 382 92 382 151 L382 228 L619 228 C616 325 550 397 465 397 C416 397 369 371 339 327 C309 372 262 397 209 397 C113 397 36 306 36 193 C36 81 113 -10 209 -10 C262 -10 309 16 340 60 C373 15 420 -10 473 -10 C547 -10 603 45 617 130 L599 130 Z M128 218 C128 269 132 313 137 328 C149 359 177 377 212 377 C243 377 269 362 283 334 C291 318 295 279 295 218 L295 169 C295 117 291 74 286 59 C274 28 246 10 212 10 C180 10 154 25 140 52 C132 69 128 107 128 169 L128 218 Z M538 246 L382 246 L382 280 C382 346 408 377 463 377 C516 377 538 351 538 289 L538 246 Z " />
<glyph glyph-name="Racute" unicode="&#x154;" horiz-adv-x="579" d="M201 345 L250 345 C337 342 368 308 372 214 L372 165 C372 107 381 71 402 42 C425 10 453 -5 492 -5 C517 -5 531 -1 555 12 L551 29 C533 19 524 16 513 16 C497 16 482 27 475 42 C469 56 467 72 467 108 L467 163 C465 270 408 334 301 350 C371 359 403 371 435 400 C470 430 487 468 487 512 C487 564 468 605 430 633 C396 659 360 667 275 667 L30 667 L30 649 L108 649 L108 18 L30 18 L30 0 L276 0 L276 18 L201 18 L201 345 Z M201 363 L201 649 L258 649 C346 649 384 606 384 506 C384 409 342 363 253 363 L201 363 Z M340 833 L211 731 C207 728 206 726 206 724 C206 722 207 720 210 720 C212 720 215 720 216 721 L437 814 C447 818 450 821 450 825 C450 831 446 833 436 833 L340 833 Z " />
<glyph glyph-name="racute" unicode="&#x155;" horiz-adv-x="318" d="M170 387 L33 387 L33 369 L93 369 L93 18 L33 18 L33 0 L222 0 L222 18 L170 18 L170 134 C170 216 173 245 187 291 C201 335 218 360 234 360 C241 360 246 354 246 344 C246 311 257 294 276 294 C296 294 309 314 309 343 C309 376 290 397 262 397 C235 397 211 381 196 353 C186 335 181 322 170 287 L170 387 Z M246 613 L150 470 C149 469 149 468 149 466 C149 464 150 463 152 463 C153 463 154 463 157 466 L316 595 C320 598 323 603 323 606 C323 611 319 613 311 613 L246 613 Z " />
<glyph glyph-name="Rcommaaccent" unicode="&#x156;" horiz-adv-x="579" d="M201 345 L250 345 C337 342 368 308 372 214 L372 165 C372 107 381 71 402 42 C425 10 453 -5 492 -5 C517 -5 531 -1 555 12 L551 29 C533 19 524 16 513 16 C497 16 482 27 475 42 C469 56 467 72 467 108 L467 163 C465 270 408 334 301 350 C371 359 403 371 435 400 C470 430 487 468 487 512 C487 564 468 605 430 633 C396 659 360 667 275 667 L30 667 L30 649 L108 649 L108 18 L30 18 L30 0 L276 0 L276 18 L201 18 L201 345 Z M201 363 L201 649 L258 649 C346 649 384 606 384 506 C384 409 342 363 253 363 L201 363 Z M286 -278 C333 -235 358 -189 358 -144 C358 -93 328 -54 290 -54 C261 -54 240 -78 240 -111 C240 -141 255 -161 277 -161 C298 -161 312 -143 312 -118 C312 -115 312 -110 311 -105 C329 -116 337 -132 337 -157 C337 -190 320 -221 275 -267 L286 -278 Z " />
<glyph glyph-name="rcommaaccent" unicode="&#x157;" horiz-adv-x="318" d="M170 387 L33 387 L33 369 L93 369 L93 18 L33 18 L33 0 L222 0 L222 18 L170 18 L170 134 C170 216 173 245 187 291 C201 335 218 360 234 360 C241 360 246 354 246 344 C246 311 257 294 276 294 C296 294 309 314 309 343 C309 376 290 397 262 397 C235 397 211 381 196 353 C186 335 181 322 170 287 L170 387 Z M150 -103 C166 -113 174 -129 174 -151 C174 -181 158 -208 117 -248 L129 -259 C172 -221 194 -180 194 -140 C194 -92 166 -54 130 -54 C102 -54 82 -77 82 -109 C82 -138 96 -157 117 -157 C136 -157 150 -139 150 -116 L150 -103 Z " />
<glyph glyph-name="Rcaron" unicode="&#x158;" horiz-adv-x="579" d="M201 345 L250 345 C337 342 368 308 372 214 L372 165 C372 107 381 71 402 42 C425 10 453 -5 492 -5 C517 -5 531 -1 555 12 L551 29 C533 19 524 16 513 16 C497 16 482 27 475 42 C469 56 467 72 467 108 L467 163 C465 270 408 334 301 350 C371 359 403 371 435 400 C470 430 487 468 487 512 C487 564 468 605 430 633 C396 659 360 667 275 667 L30 667 L30 649 L108 649 L108 18 L30 18 L30 0 L276 0 L276 18 L201 18 L201 345 Z M201 363 L201 649 L258 649 C346 649 384 606 384 506 C384 409 342 363 253 363 L201 363 Z M272 789 L124 838 L120 838 C116 838 115 837 115 835 C115 833 116 831 120 829 L272 720 L423 829 C428 832 429 833 429 835 C429 837 427 838 424 838 L419 838 L272 789 Z " />
<glyph glyph-name="rcaron" unicode="&#x159;" horiz-adv-x="318" d="M170 387 L33 387 L33 369 L93 369 L93 18 L33 18 L33 0 L222 0 L222 18 L170 18 L170 134 C170 216 173 245 187 291 C201 335 218 360 234 360 C241 360 246 354 246 344 C246 311 257 294 276 294 C296 294 309 314 309 343 C309 376 290 397 262 397 C235 397 211 381 196 353 C186 335 181 322 170 287 L170 387 Z M181 539 L48 615 C46 616 44 617 43 617 C41 617 39 616 39 614 C39 612 41 609 44 606 L181 463 L319 606 C322 609 324 612 324 614 C324 616 322 617 321 617 C319 617 317 616 315 615 L181 539 Z " />
<glyph glyph-name="Sacute" unicode="&#x15a;" horiz-adv-x="451" d="M374 676 L362 676 L334 633 C295 663 259 677 219 677 C126 677 55 591 55 479 C55 389 95 337 184 310 L254 290 C329 267 360 229 360 158 C360 70 308 10 230 10 C176 10 125 42 94 96 C76 126 69 152 61 207 L43 207 L49 0 L61 0 L93 56 C140 8 177 -10 231 -10 C336 -10 408 82 408 216 C408 322 365 381 265 409 L217 423 C135 447 102 478 102 535 C102 603 153 657 217 657 C264 657 304 634 330 593 C345 569 351 547 357 503 L375 503 L374 676 Z M306 833 L177 731 C173 728 172 726 172 724 C172 721 173 720 176 720 C178 720 181 720 182 721 L403 814 C413 818 416 821 416 825 C416 831 412 833 403 833 L306 833 Z " />
<glyph glyph-name="sacute" unicode="&#x15b;" horiz-adv-x="321" d="M271 395 L259 395 L247 359 C215 386 190 397 159 397 C96 397 51 347 51 277 C51 217 82 175 135 164 L204 148 C240 140 259 120 259 88 C259 45 223 10 178 10 C140 10 109 31 86 71 C75 92 69 108 62 148 L47 148 L47 0 L56 0 L77 38 C115 2 139 -10 176 -10 C243 -10 290 45 290 122 C290 193 258 232 188 248 L148 257 C100 267 81 282 81 307 C81 346 114 377 156 377 C208 377 245 341 256 280 L271 280 L271 395 Z M235 613 L139 470 C138 469 137 467 137 466 C137 465 139 463 140 463 C142 463 143 464 146 466 L304 595 C309 598 312 603 312 606 C312 611 308 613 300 613 L235 613 Z " />
<glyph glyph-name="Scircumflex" unicode="&#x15c;" horiz-adv-x="451" d="M374 676 L362 676 L334 633 C295 663 259 677 219 677 C126 677 55 591 55 479 C55 389 95 337 184 310 L254 290 C329 267 360 229 360 158 C360 70 308 10 230 10 C176 10 125 42 94 96 C76 126 69 152 61 207 L43 207 L49 0 L61 0 L93 56 C140 8 177 -10 231 -10 C336 -10 408 82 408 216 C408 322 365 381 265 409 L217 423 C135 447 102 478 102 535 C102 603 153 657 217 657 C264 657 304 634 330 593 C345 569 351 547 357 503 L375 503 L374 676 Z M225 769 L373 721 C374 720 376 720 377 720 C380 720 382 721 382 723 C382 725 380 727 376 730 L225 838 L74 730 C69 726 68 725 68 723 C68 721 70 720 73 720 C75 720 76 720 78 721 L225 769 Z " />
<glyph glyph-name="scircumflex" unicode="&#x15d;" horiz-adv-x="321" d="M271 395 L259 395 L247 359 C215 386 190 397 159 397 C96 397 51 347 51 277 C51 217 82 175 135 164 L204 148 C240 140 259 120 259 88 C259 45 223 10 178 10 C140 10 109 31 86 71 C75 92 69 108 62 148 L47 148 L47 0 L56 0 L77 38 C115 2 139 -10 176 -10 C243 -10 290 45 290 122 C290 193 258 232 188 248 L148 257 C100 267 81 282 81 307 C81 346 114 377 156 377 C208 377 245 341 256 280 L271 280 L271 395 Z M174 541 L308 465 C310 464 312 463 313 463 C315 463 317 464 317 466 C317 468 315 471 312 474 L174 617 L37 474 C34 471 32 468 32 466 C32 464 34 463 35 463 C37 463 39 464 41 465 L174 541 Z " />
<glyph glyph-name="Scedilla" unicode="&#x15e;" horiz-adv-x="451" d="M232 -10 C337 -8 408 83 408 216 C408 322 365 381 265 409 L217 423 C135 447 102 478 102 535 C102 603 153 657 217 657 C264 657 304 634 330 593 C345 569 351 547 357 503 L375 503 L374 676 L362 676 L334 633 C295 663 259 677 219 677 C126 677 55 591 55 479 C55 389 95 337 184 310 L254 290 C329 267 360 229 360 158 C360 70 308 10 230 10 C176 10 125 42 94 96 C76 126 69 152 61 207 L43 207 L49 0 L61 0 L93 56 C132 14 166 -4 214 -9 L200 -67 C228 -76 241 -91 241 -117 C241 -144 223 -165 200 -165 C190 -165 180 -163 172 -158 C165 -154 165 -154 163 -144 L161 -134 C160 -110 157 -101 148 -101 C141 -101 137 -107 137 -118 C137 -154 168 -181 210 -181 C260 -181 302 -148 302 -110 C302 -77 276 -58 232 -58 L219 -58 L232 -10 Z " />
<glyph glyph-name="scedilla" unicode="&#x15f;" horiz-adv-x="321" d="M176 -10 C244 -9 290 44 290 122 C290 193 258 232 188 248 L148 257 C100 267 81 282 81 307 C81 346 114 377 156 377 C208 377 245 341 256 280 L271 280 L271 395 L259 395 L247 359 C215 386 190 397 159 397 C96 397 51 347 51 277 C51 217 82 175 135 164 L204 148 C240 140 259 120 259 88 C259 45 223 10 178 10 C140 10 109 31 86 71 C75 92 69 108 62 148 L47 148 L47 0 L56 0 L77 38 C107 8 128 -4 159 -9 L146 -65 C173 -74 185 -89 185 -114 C185 -140 168 -160 145 -160 C124 -160 112 -153 110 -139 L108 -130 C107 -106 104 -98 96 -98 C89 -98 85 -104 85 -114 C85 -150 114 -176 155 -176 C202 -176 243 -144 243 -107 C243 -75 218 -56 177 -56 L164 -56 L176 -10 Z " />
<glyph glyph-name="Scaron" unicode="&#x160;" horiz-adv-x="451" d="M225 789 L78 838 L73 838 C69 837 68 837 68 835 C68 833 69 832 74 829 L225 720 L376 829 C381 831 382 833 382 835 C382 837 380 838 377 838 L373 838 L225 789 Z M374 676 L362 676 L334 633 C295 663 259 677 219 677 C126 677 55 591 55 479 C55 389 95 337 184 310 L254 290 C329 267 360 229 360 158 C360 70 308 10 230 10 C176 10 125 42 94 96 C76 126 69 152 61 207 L43 207 L49 0 L61 0 L93 56 C140 8 177 -10 231 -10 C336 -10 408 82 408 216 C408 322 365 381 265 409 L217 423 C135 447 102 478 102 535 C102 603 153 657 217 657 C264 657 304 634 330 593 C345 569 351 547 357 503 L375 503 L374 676 Z " />
<glyph glyph-name="scaron" unicode="&#x161;" horiz-adv-x="321" d="M270 395 L258 395 L246 359 C214 386 189 397 158 397 C95 397 50 347 50 277 C50 217 81 175 134 164 L203 148 C239 140 258 120 258 88 C258 45 222 10 177 10 C139 10 108 31 85 71 C74 92 68 108 61 148 L46 148 L46 0 L55 0 L76 38 C114 2 138 -10 175 -10 C242 -10 289 45 289 122 C289 193 257 232 187 248 L147 257 C99 267 80 282 80 307 C80 346 113 377 155 377 C207 377 244 341 255 280 L270 280 L270 395 Z M167 539 L34 615 C32 616 30 617 28 617 C26 617 24 616 24 614 C24 612 25 611 30 606 L167 463 L305 606 C308 609 310 612 310 614 C310 616 308 617 307 617 C305 617 303 616 301 615 L167 539 Z " />
<glyph glyph-name="Tcommaaccent" unicode="&#x162;" horiz-adv-x="525" d="M313 649 L353 649 C432 648 466 604 500 457 L512 459 L500 667 L19 667 L12 459 L24 457 C35 517 46 551 66 587 C97 638 117 649 177 649 L220 649 L220 18 L130 18 L130 0 L393 0 L393 18 L313 18 L313 649 Z M281 -105 C298 -116 306 -132 306 -157 C306 -190 289 -221 244 -267 L255 -278 C302 -234 327 -189 327 -144 C327 -93 297 -54 260 -54 C230 -54 210 -78 210 -111 C210 -141 225 -161 247 -161 C266 -161 281 -143 281 -118 L281 -105 Z " />
<glyph glyph-name="tcommaaccent" unicode="&#x163;" horiz-adv-x="260" d="M145 369 L241 369 L241 387 L145 387 L145 546 L135 546 C118 480 64 405 18 384 L18 369 L68 369 L68 107 C68 61 72 43 86 24 C103 2 129 -10 162 -10 C218 -10 249 16 260 74 L242 74 C234 36 219 20 191 20 C158 20 145 39 145 85 L145 369 Z M135 -259 C178 -221 200 -180 200 -140 C200 -92 172 -54 136 -54 C108 -54 88 -77 88 -109 C88 -138 102 -157 123 -157 C142 -157 156 -139 156 -116 C156 -112 156 -108 155 -103 C172 -113 180 -129 180 -151 C180 -181 164 -208 123 -248 L135 -259 Z " />
<glyph glyph-name="Tcaron" unicode="&#x164;" horiz-adv-x="525" d="M313 649 L353 649 C432 648 466 604 500 457 L512 459 L500 667 L19 667 L12 459 L24 457 C35 517 46 551 66 587 C97 638 117 649 177 649 L220 649 L220 18 L130 18 L130 0 L393 0 L393 18 L313 18 L313 649 Z M268 789 L121 838 L117 838 C113 838 112 837 112 835 C112 833 113 831 117 829 L268 720 L420 829 C425 832 426 833 426 835 C426 837 424 838 420 838 L416 838 L268 789 Z " />
<glyph glyph-name="tcaron" unicode="&#x165;" horiz-adv-x="288" d="M145 369 L241 369 L241 387 L145 387 L145 546 L135 546 C118 480 64 405 18 384 L18 369 L68 369 L68 107 C68 61 72 43 86 24 C103 2 129 -10 162 -10 C218 -10 249 16 260 74 L242 74 C234 36 219 20 191 20 C158 20 145 39 145 85 L145 369 Z M217 454 C260 492 282 533 282 573 C282 621 254 659 218 659 C190 659 170 636 170 604 C170 575 184 556 205 556 C224 556 238 573 238 597 C238 601 238 605 237 610 C254 600 262 584 262 561 C262 532 246 505 205 465 L217 454 Z " />
<glyph glyph-name="utilde" unicode="&#x169;" horiz-adv-x="460" d="M384 387 L255 387 L255 369 L307 369 L307 200 C307 141 301 91 291 69 C275 34 242 13 205 13 C159 13 145 38 145 117 L145 387 L16 387 L16 369 L68 369 L68 131 C68 80 73 54 87 33 C106 6 142 -10 187 -10 C242 -10 276 9 307 60 L307 0 L444 0 L444 18 L384 18 L384 387 Z M376 572 C361 550 344 541 321 541 C307 541 288 544 275 549 L235 563 C214 571 202 573 185 573 C140 573 114 553 87 499 L96 493 C112 515 129 524 158 524 C172 524 189 521 206 515 L244 502 C263 495 278 492 290 492 C328 492 353 512 386 567 L376 572 Z " />
<glyph glyph-name="Umacron" unicode="&#x16a;" horiz-adv-x="578" d="M180 649 L258 649 L258 667 L18 667 L18 649 L87 649 L87 249 C87 139 101 84 141 44 C175 10 234 -10 304 -10 C377 -10 428 15 460 67 C482 103 490 145 490 222 L490 649 L553 649 L553 667 L395 667 L395 649 L467 649 L467 222 C467 144 463 119 447 87 C422 37 379 10 324 10 C278 10 236 29 211 62 C187 94 180 126 180 205 L180 649 Z M454 749 L454 779 L154 779 L154 749 L454 749 Z " />
<glyph glyph-name="umacron" unicode="&#x16b;" horiz-adv-x="460" d="M384 387 L255 387 L255 369 L307 369 L307 200 C307 141 301 91 291 69 C275 34 242 13 205 13 C159 13 145 38 145 117 L145 387 L16 387 L16 369 L68 369 L68 131 C68 80 73 54 87 33 C106 6 142 -10 187 -10 C242 -10 276 9 307 60 L307 0 L444 0 L444 18 L384 18 L384 387 Z M354 499 L354 523 L106 523 L106 499 L354 499 Z " />
<glyph glyph-name="ubreve" unicode="&#x16d;" horiz-adv-x="460" d="M384 387 L255 387 L255 369 L307 369 L307 200 C307 141 301 91 291 69 C275 34 242 13 205 13 C159 13 145 38 145 117 L145 387 L16 387 L16 369 L68 369 L68 131 C68 80 73 54 87 33 C106 6 142 -10 187 -10 C242 -10 276 9 307 60 L307 0 L444 0 L444 18 L384 18 L384 387 Z M346 610 C337 576 328 559 310 545 C292 531 257 521 226 521 C194 521 160 531 141 545 C124 559 114 575 105 610 L94 610 C105 524 157 467 226 467 C294 467 346 523 357 610 L346 610 Z " />
<glyph glyph-name="Uring" unicode="&#x16e;" horiz-adv-x="578" d="M180 649 L258 649 L258 667 L18 667 L18 649 L87 649 L87 249 C87 139 101 84 141 44 C175 10 234 -10 304 -10 C377 -10 428 15 460 67 C482 103 490 145 490 222 L490 649 L553 649 L553 667 L395 667 L395 649 L467 649 L467 222 C467 144 463 119 447 87 C422 37 379 10 324 10 C278 10 236 29 211 62 C187 94 180 126 180 205 L180 649 Z M310 859 C267 859 234 825 234 782 C234 740 267 707 309 707 C352 707 385 740 385 781 C385 825 352 859 310 859 L310 859 Z M310 832 C334 832 357 809 357 783 C357 757 334 734 309 734 C283 734 262 757 262 783 C262 809 284 832 310 832 L310 832 Z " />
<glyph glyph-name="uring" unicode="&#x16f;" horiz-adv-x="460" d="M384 387 L255 387 L255 369 L307 369 L307 200 C307 141 301 91 291 69 C275 34 242 13 205 13 C159 13 145 38 145 117 L145 387 L16 387 L16 369 L68 369 L68 131 C68 80 73 54 87 33 C106 6 142 -10 187 -10 C242 -10 276 9 307 60 L307 0 L444 0 L444 18 L384 18 L384 387 Z M237 615 C194 615 160 581 160 538 C160 496 193 463 236 463 C279 463 312 495 312 537 C312 581 279 615 237 615 L237 615 Z M237 588 C262 588 284 565 284 539 C284 513 262 490 236 490 C210 490 188 513 188 539 C188 565 210 588 237 588 L237 588 Z " />
<glyph glyph-name="Uhungarumlaut" unicode="&#x170;" horiz-adv-x="578" d="M180 649 L258 649 L258 667 L18 667 L18 649 L87 649 L87 249 C87 139 101 84 141 44 C175 10 234 -10 304 -10 C377 -10 428 15 460 67 C482 103 490 145 490 222 L490 649 L553 649 L553 667 L395 667 L395 649 L467 649 L467 222 C467 144 463 119 447 87 C422 37 379 10 324 10 C278 10 236 29 211 62 C187 94 180 126 180 205 L180 649 Z M459 833 L346 731 C343 728 342 726 342 724 C342 722 343 720 345 720 C348 720 350 720 351 721 L539 813 C549 818 552 821 552 825 C552 830 547 833 539 833 L459 833 Z M310 833 L198 731 C193 727 193 727 193 724 C193 722 194 720 197 720 C199 720 202 720 203 721 L391 813 C401 818 404 821 404 825 C404 831 399 833 390 833 L310 833 Z " />
<glyph glyph-name="uhungarumlaut" unicode="&#x171;" horiz-adv-x="460" d="M384 387 L255 387 L255 369 L307 369 L307 200 C307 141 301 91 291 69 C275 34 242 13 205 13 C159 13 145 38 145 117 L145 387 L16 387 L16 369 L68 369 L68 131 C68 80 73 54 87 33 C106 6 142 -10 187 -10 C242 -10 276 9 307 60 L307 0 L444 0 L444 18 L384 18 L384 387 Z M360 613 L264 470 C263 469 263 467 263 466 C263 464 264 463 266 463 C268 463 269 464 272 466 L423 595 C428 599 431 603 431 606 C431 611 427 613 419 613 L360 613 Z M237 613 L141 470 C140 469 139 467 139 466 C139 465 140 463 142 463 C144 463 146 464 148 466 L300 595 C304 598 307 603 307 606 C307 611 303 613 295 613 L237 613 Z " />
<glyph glyph-name="Uogonek" unicode="&#x172;" horiz-adv-x="578" d="M436 -127 C418 -134 409 -136 395 -136 C360 -136 344 -120 344 -87 C344 -54 357 -32 396 1 C473 65 489 103 490 222 L490 649 L553 649 L553 667 L395 667 L395 649 L467 649 L467 222 C467 144 463 119 447 87 C422 37 379 10 324 10 C278 10 236 29 211 62 C187 94 180 126 180 205 L180 649 L258 649 L258 667 L18 667 L18 649 L87 649 L87 249 C87 140 101 84 141 44 C174 10 235 -10 303 -10 C328 -10 348 -7 369 -2 C314 -27 289 -56 289 -96 C289 -137 317 -162 362 -162 C391 -162 409 -157 436 -141 L436 -127 Z " />
<glyph glyph-name="uogonek" unicode="&#x173;" horiz-adv-x="460" d="M444 0 L444 18 L384 18 L384 387 L255 387 L255 369 L307 369 L307 200 C307 141 301 91 291 69 C275 34 242 13 205 13 C159 13 145 38 145 117 L145 387 L16 387 L16 369 L68 369 L68 131 C68 80 73 54 87 33 C106 6 142 -10 187 -10 C242 -10 276 9 307 60 L307 0 L373 0 C313 -27 288 -55 288 -95 C288 -134 315 -159 359 -159 C387 -159 404 -154 430 -138 L430 -124 C413 -132 403 -134 390 -134 C357 -134 341 -118 341 -86 C341 -52 357 -28 396 0 L444 0 Z " />
<glyph glyph-name="Wcircumflex" unicode="&#x174;" horiz-adv-x="706" d="M506 143 L410 431 L480 649 L530 649 L530 667 L-9 667 L-9 649 L44 649 L253 -10 L270 -10 L369 292 L465 -10 L481 -10 L669 649 L718 649 L718 667 L567 667 L567 649 L648 649 L506 143 Z M135 649 L251 649 L357 325 L296 135 L135 649 Z M333 649 L466 649 L400 467 L333 649 Z M378 769 L525 721 C526 720 528 720 529 720 C532 720 534 721 534 723 C534 725 532 727 529 730 L378 838 L226 730 C223 727 221 725 221 723 C221 721 223 720 226 720 C227 720 229 720 230 721 L378 769 Z " />
<glyph glyph-name="Ycircumflex" unicode="&#x176;" horiz-adv-x="496" d="M308 312 L453 649 L514 649 L514 667 L342 667 L342 649 L430 649 L301 353 L135 649 L215 649 L215 667 L-18 667 L-18 649 L33 649 L215 312 L215 18 L125 18 L125 0 L388 0 L388 18 L308 18 L308 312 Z M265 769 L412 721 C413 720 415 720 416 720 C420 720 422 721 422 723 C422 725 420 727 416 730 L265 838 L113 730 C109 727 108 725 108 723 C108 721 109 720 113 720 C114 720 116 720 117 721 L265 769 Z " />
<glyph glyph-name="ycircumflex" unicode="&#x177;" horiz-adv-x="372" d="M225 94 L122 369 L183 369 L183 387 L0 387 L0 369 L42 369 L194 -6 L145 -161 C133 -200 128 -208 116 -208 C110 -208 106 -206 102 -200 C88 -180 80 -174 64 -174 C42 -174 25 -194 25 -221 C25 -252 46 -274 75 -274 C114 -274 139 -244 163 -170 L333 369 L372 369 L372 387 L247 387 L247 369 L309 369 L225 94 Z M199 541 L332 465 C334 464 336 463 338 463 C340 463 342 464 342 466 C342 468 341 469 336 474 L199 617 L61 474 C58 471 56 468 56 466 C56 464 58 463 59 463 C61 463 63 464 65 465 L199 541 Z " />
<glyph glyph-name="Ydieresis" unicode="&#x178;" horiz-adv-x="496" d="M174 824 C147 824 126 802 126 776 C126 749 147 727 174 727 C200 727 223 749 223 775 C223 802 201 824 174 824 L174 824 Z M364 824 C337 824 316 802 316 776 C316 749 337 727 364 727 C390 727 413 749 413 775 C413 802 391 824 364 824 L364 824 Z M308 312 L453 649 L514 649 L514 667 L342 667 L342 649 L430 649 L301 353 L135 649 L215 649 L215 667 L-18 667 L-18 649 L33 649 L215 312 L215 18 L125 18 L125 0 L388 0 L388 18 L308 18 L308 312 Z " />
<glyph glyph-name="Zacute" unicode="&#x179;" horiz-adv-x="502" d="M461 0 L478 208 L466 208 C432 54 397 13 300 18 L125 18 L478 667 L73 667 L55 464 L67 464 C98 604 131 648 208 649 L372 649 L27 24 L27 0 L461 0 Z M352 833 L223 731 C218 727 218 726 218 724 C218 721 219 720 222 720 C224 720 227 720 229 721 L450 814 C458 817 462 821 462 825 C462 831 458 833 449 833 L352 833 Z " />
<glyph glyph-name="zacute" unicode="&#x17a;" horiz-adv-x="361" d="M330 0 L332 164 L320 164 C297 42 277 18 200 18 L119 18 L338 387 L56 387 L53 238 L65 238 C93 349 111 368 190 369 L243 369 L28 0 L330 0 Z M269 613 L173 470 C172 469 171 467 171 466 C171 465 172 463 174 463 C176 463 177 463 179 466 L338 595 C343 598 346 603 346 606 C346 611 342 613 334 613 L269 613 Z " />
<glyph glyph-name="Zdotaccent" unicode="&#x17b;" horiz-adv-x="502" d="M461 0 L478 208 L466 208 C432 54 397 13 300 18 L125 18 L478 667 L73 667 L55 464 L67 464 C98 604 131 648 208 649 L372 649 L27 24 L27 0 L461 0 Z M277 826 C250 826 227 803 227 776 C227 748 250 725 278 725 C305 725 328 748 328 775 C328 804 306 826 277 826 L277 826 Z " />
<glyph glyph-name="zdotaccent" unicode="&#x17c;" horiz-adv-x="361" d="M330 0 L332 164 L320 164 C297 42 277 18 200 18 L119 18 L338 387 L56 387 L53 238 L65 238 C93 349 111 368 190 369 L243 369 L28 0 L330 0 Z M205 586 C178 586 155 563 155 536 C155 508 178 485 206 485 C233 485 256 508 256 535 C256 564 234 586 205 586 L205 586 Z " />
<glyph glyph-name="Zcaron" unicode="&#x17d;" horiz-adv-x="502" d="M282 789 L134 838 L130 838 C126 838 125 837 125 835 C125 833 126 832 131 829 L282 720 L433 829 C438 832 439 833 439 835 C439 837 437 838 434 838 L429 838 L282 789 Z M461 0 L478 208 L466 208 C432 54 397 13 300 18 L125 18 L478 667 L73 667 L55 464 L67 464 C98 604 131 648 208 649 L372 649 L27 24 L27 0 L461 0 Z " />
<glyph glyph-name="zcaron" unicode="&#x17e;" horiz-adv-x="363" d="M206 539 L73 615 C71 616 69 617 67 617 C65 617 63 616 63 614 C63 612 64 611 69 606 L206 463 L344 606 C347 609 349 612 349 614 C349 616 347 617 346 617 C344 617 342 616 340 615 L206 539 Z M330 0 L332 164 L320 164 C297 42 277 18 200 18 L119 18 L338 387 L56 387 L53 238 L65 238 C93 349 111 368 190 369 L243 369 L28 0 L330 0 Z " />
<glyph glyph-name="florin" unicode="&#x192;" horiz-adv-x="450" d="M246 302 L324 302 L327 320 L249 320 L273 459 C298 602 327 660 372 660 C381 660 387 656 387 648 C387 645 386 643 383 640 C373 628 371 623 371 612 C371 592 384 579 403 579 C427 579 444 598 444 623 C444 656 419 677 382 677 C298 677 226 574 198 413 L181 320 L103 320 L100 302 L178 302 L121 -27 C98 -163 96 -171 86 -198 C69 -241 48 -263 20 -263 C8 -263 -1 -258 -1 -250 C-1 -247 0 -244 2 -237 C6 -223 6 -221 6 -214 C6 -196 -6 -183 -22 -183 C-42 -183 -57 -202 -57 -227 C-57 -259 -31 -280 8 -280 C52 -280 86 -259 118 -211 C155 -156 179 -81 203 59 L246 302 Z " />
<glyph glyph-name="uni01CD" unicode="&#x1cd;" horiz-adv-x="546" d="M329 214 L389 18 L304 18 L304 0 L549 0 L549 18 L480 18 L283 667 L259 667 L54 18 L-3 18 L-3 0 L156 0 L156 18 L77 18 L138 214 L329 214 Z M323 232 L144 232 L234 527 L323 232 Z M273 789 L125 838 L121 838 C117 838 116 837 116 835 C116 833 117 832 122 829 L273 720 L424 829 C429 832 430 833 430 835 C430 837 428 838 425 838 L420 838 L273 789 Z " />
<glyph glyph-name="uni01CE" unicode="&#x1ce;" horiz-adv-x="380" d="M237 215 C174 213 145 208 113 193 C63 171 35 131 35 82 C35 26 71 -10 127 -10 C177 -10 210 15 237 71 C244 13 264 -10 307 -10 C330 -10 340 -6 371 18 L364 30 C353 19 346 15 338 15 C320 15 314 26 314 57 L314 282 C314 324 306 348 286 366 C264 385 228 397 191 397 C120 397 58 352 58 300 C58 275 71 257 90 257 C108 257 121 274 121 298 C121 309 119 315 114 329 C111 336 110 339 110 342 C110 359 147 380 178 380 C219 380 237 359 237 315 L237 215 Z M237 167 C237 131 234 106 229 90 C218 54 192 30 164 30 C132 30 111 58 111 99 C111 132 123 158 148 176 C171 193 191 198 237 200 L237 167 Z M204 539 L70 615 C68 616 66 617 65 617 C63 617 61 616 61 614 C61 612 63 609 66 606 L204 463 L341 606 C346 610 347 612 347 614 C347 616 345 617 343 617 C341 617 339 616 337 615 L204 539 Z " />
<glyph glyph-name="uni01D3" unicode="&#x1d3;" horiz-adv-x="578" d="M180 649 L258 649 L258 667 L18 667 L18 649 L87 649 L87 249 C87 139 101 84 141 44 C175 10 234 -10 304 -10 C377 -10 428 15 460 67 C482 103 490 145 490 222 L490 649 L553 649 L553 667 L395 667 L395 649 L467 649 L467 222 C467 144 463 119 447 87 C422 37 379 10 324 10 C278 10 236 29 211 62 C187 94 180 126 180 205 L180 649 Z M313 789 L166 838 L161 838 C157 838 156 837 156 835 C156 833 156 832 162 829 L313 720 L464 829 C468 831 470 833 470 835 C470 837 468 838 465 838 L461 838 L313 789 Z " />
<glyph glyph-name="uni01D4" unicode="&#x1d4;" horiz-adv-x="460" d="M384 387 L255 387 L255 369 L307 369 L307 200 C307 141 301 91 291 69 C275 34 242 13 205 13 C159 13 145 38 145 117 L145 387 L16 387 L16 369 L68 369 L68 131 C68 80 73 54 87 33 C106 6 142 -10 187 -10 C242 -10 276 9 307 60 L307 0 L444 0 L444 18 L384 18 L384 387 Z M234 539 L100 615 C98 616 97 617 95 617 C93 617 91 616 91 614 C91 612 93 610 97 606 L234 463 L371 606 C376 610 377 612 377 614 C377 616 375 617 373 617 C371 617 369 616 368 615 L234 539 Z " />
<glyph glyph-name="Gcaron" unicode="&#x1e6;" horiz-adv-x="571" d="M477 667 L465 667 L435 625 C388 661 347 677 298 677 C236 677 178 648 130 593 C71 525 42 437 42 328 C42 235 63 161 109 95 C157 25 218 -10 292 -10 C357 -10 414 18 454 70 C480 104 491 137 502 212 L562 212 L562 230 L310 230 L310 212 L404 212 C403 153 402 129 396 106 C380 44 341 10 285 10 C227 10 187 44 170 109 C160 144 155 213 155 317 C155 431 162 522 175 562 C194 623 238 657 299 657 C382 657 438 594 465 471 L477 471 L477 667 Z M294 789 L146 838 L142 838 C138 838 137 837 137 835 C137 833 138 831 143 829 L294 720 L445 829 C450 832 451 833 451 835 C451 837 449 838 446 838 L441 838 L294 789 Z " />
<glyph glyph-name="gcaron" unicode="&#x1e7;" horiz-adv-x="393" d="M126 18 C82 18 60 30 60 54 C60 77 85 106 129 133 C152 122 171 117 195 117 C269 117 327 177 327 254 C327 290 320 312 297 343 C309 355 317 361 325 361 C332 361 337 357 338 349 C341 324 349 315 365 315 C382 315 393 329 393 352 C393 376 377 391 352 391 C330 391 315 382 286 353 C254 386 228 397 188 397 C110 397 53 339 53 259 C53 210 69 178 112 144 C106 139 106 139 99 134 C74 116 74 116 68 110 C38 82 24 53 24 20 C24 -26 48 -55 97 -69 C44 -93 25 -116 25 -157 C25 -224 93 -274 186 -274 C294 -274 370 -198 370 -89 C370 -44 358 -13 334 3 C316 15 297 18 251 18 L126 18 Z M135 288 C135 354 149 377 190 377 C233 377 244 360 244 293 L244 228 C244 156 233 137 189 137 C146 137 135 156 135 228 L135 288 Z M114 -70 L151 -70 L269 -70 C325 -70 325 -70 338 -75 C353 -80 361 -94 361 -115 C361 -191 283 -254 188 -254 C110 -254 58 -211 58 -148 C58 -118 68 -96 95 -70 L114 -70 Z M198 539 L64 615 C62 616 60 617 59 617 C57 617 55 616 55 614 C55 612 57 609 60 606 L198 463 L335 606 C340 610 341 612 341 614 C341 616 339 617 337 617 C335 617 333 616 331 615 L198 539 Z " />
<glyph glyph-name="Scommaaccent" unicode="&#x218;" horiz-adv-x="451" d="M374 676 L362 676 L334 633 C295 663 259 677 219 677 C126 677 55 591 55 479 C55 389 95 337 184 310 L254 290 C329 267 360 229 360 158 C360 70 308 10 230 10 C176 10 125 42 94 96 C76 126 69 152 61 207 L43 207 L49 0 L61 0 L93 56 C140 8 177 -10 231 -10 C336 -10 408 82 408 216 C408 322 365 381 265 409 L217 423 C135 447 102 478 102 535 C102 603 153 657 217 657 C264 657 304 634 330 593 C345 569 351 547 357 503 L375 503 L374 676 Z M242 -105 C259 -116 267 -132 267 -157 C267 -190 250 -221 206 -267 L217 -278 C263 -235 288 -189 288 -144 C288 -93 259 -54 221 -54 C192 -54 171 -78 171 -111 C171 -141 186 -161 208 -161 C228 -161 242 -143 242 -118 L242 -105 Z " />
<glyph glyph-name="scommaaccent" unicode="&#x219;" horiz-adv-x="321" d="M271 395 L259 395 L247 359 C215 386 190 397 159 397 C96 397 51 347 51 277 C51 217 82 175 135 164 L204 148 C240 140 259 120 259 88 C259 45 223 10 178 10 C140 10 109 31 86 71 C75 92 69 108 62 148 L47 148 L47 0 L56 0 L77 38 C115 2 139 -10 176 -10 C243 -10 290 45 290 122 C290 193 258 232 188 248 L148 257 C100 267 81 282 81 307 C81 346 114 377 156 377 C208 377 245 341 256 280 L271 280 L271 395 Z M161 -259 C205 -221 227 -180 227 -140 C227 -92 199 -54 163 -54 C135 -54 115 -77 115 -109 C115 -138 129 -157 150 -157 C169 -157 183 -139 183 -116 C183 -112 183 -108 182 -103 C199 -113 207 -129 207 -151 C207 -181 191 -208 150 -248 L161 -259 Z " />
<glyph glyph-name="uni021A" unicode="&#x21a;" horiz-adv-x="525" d="M313 649 L353 649 C432 648 466 604 500 457 L512 459 L500 667 L19 667 L12 459 L24 457 C35 517 46 551 66 587 C97 638 117 649 177 649 L220 649 L220 18 L130 18 L130 0 L393 0 L393 18 L313 18 L313 649 Z M281 -105 C298 -116 306 -132 306 -157 C306 -190 289 -221 244 -267 L255 -278 C302 -234 327 -189 327 -144 C327 -93 297 -54 260 -54 C230 -54 210 -78 210 -111 C210 -141 225 -161 247 -161 C266 -161 281 -143 281 -118 L281 -105 Z " />
<glyph glyph-name="uni021B" unicode="&#x21b;" horiz-adv-x="260" d="M145 369 L241 369 L241 387 L145 387 L145 546 L135 546 C118 480 64 405 18 384 L18 369 L68 369 L68 107 C68 61 72 43 86 24 C103 2 129 -10 162 -10 C218 -10 249 16 260 74 L242 74 C234 36 219 20 191 20 C158 20 145 39 145 85 L145 369 Z M135 -259 C178 -221 200 -180 200 -140 C200 -92 172 -54 136 -54 C108 -54 88 -77 88 -109 C88 -138 102 -157 123 -157 C142 -157 156 -139 156 -116 C156 -112 156 -108 155 -103 C172 -113 180 -129 180 -151 C180 -181 164 -208 123 -248 L135 -259 Z " />
<glyph glyph-name="circumflex" unicode="&#x2c6;" horiz-adv-x="479" d="M239 541 L373 465 C375 464 377 463 378 463 C380 463 382 464 382 466 C382 468 380 471 377 474 L239 617 L102 474 C99 471 97 468 97 466 C97 464 99 463 100 463 C102 463 104 464 106 465 L239 541 Z " />
<glyph glyph-name="caron" unicode="&#x2c7;" horiz-adv-x="479" d="M239 539 L106 615 C104 616 102 617 100 617 C98 617 96 616 96 614 C96 612 97 611 102 606 L239 463 L377 606 C380 609 382 612 382 614 C382 616 380 617 379 617 C377 617 375 616 373 615 L239 539 Z " />
<glyph glyph-name="uni02C9" unicode="&#x2c9;" horiz-adv-x="315" d="M281 499 L281 523 L33 523 L33 499 L281 499 Z " />
<glyph glyph-name="breve" unicode="&#x2d8;" horiz-adv-x="476" d="M359 610 C350 576 341 559 323 545 C305 531 271 521 239 521 C207 521 173 531 154 545 C137 559 128 575 118 610 L107 610 C118 524 170 467 239 467 C307 467 359 523 370 610 L359 610 Z " />
<glyph glyph-name="dotaccent" unicode="&#x2d9;" horiz-adv-x="460" d="M229 586 C202 586 179 563 179 536 C179 508 202 485 230 485 C257 485 280 508 280 535 C280 564 258 586 229 586 L229 586 Z " />
<glyph glyph-name="ring" unicode="&#x2da;" horiz-adv-x="465" d="M233 615 C190 615 157 581 157 538 C157 496 190 463 233 463 C275 463 308 496 308 537 C308 581 275 615 233 615 L233 615 Z M233 588 C258 588 280 565 280 539 C280 513 258 490 232 490 C207 490 185 513 185 539 C185 565 207 588 233 588 L233 588 Z " />
<glyph glyph-name="ogonek" unicode="&#x2db;" horiz-adv-x="450" d="M342 0 C284 -26 258 -56 258 -95 C258 -134 285 -159 329 -159 C357 -159 373 -154 400 -138 L400 -124 C383 -132 373 -134 360 -134 C327 -134 311 -118 311 -86 C311 -52 327 -27 366 0 L342 0 Z " />
<glyph glyph-name="tilde" unicode="&#x2dc;" horiz-adv-x="480" d="M380 572 C364 550 348 541 324 541 C310 541 291 544 278 549 L239 563 C218 571 206 573 189 573 C143 573 117 553 90 499 L99 493 C115 515 133 524 162 524 C175 524 193 521 209 515 L247 502 C266 495 281 492 293 492 C331 492 356 512 389 567 L380 572 Z " />
<glyph glyph-name="hungarumlaut" unicode="&#x2dd;" horiz-adv-x="467" d="M356 613 L260 470 C259 469 258 467 258 466 C258 465 259 463 261 463 C263 463 265 464 267 466 L419 595 C423 598 426 603 426 606 C426 611 422 613 414 613 L356 613 Z M232 613 L137 470 C136 469 135 467 135 466 C135 464 136 463 138 463 C140 463 142 464 144 466 L295 595 C300 599 303 603 303 606 C303 611 299 613 291 613 L232 613 Z " />
<glyph glyph-name="Wdieresis" unicode="&#x1e84;" horiz-adv-x="706" d="M506 143 L410 431 L480 649 L530 649 L530 667 L-9 667 L-9 649 L44 649 L253 -10 L270 -10 L369 292 L465 -10 L481 -10 L669 649 L718 649 L718 667 L567 667 L567 649 L648 649 L506 143 Z M135 649 L251 649 L357 325 L296 135 L135 649 Z M333 649 L466 649 L400 467 L333 649 Z M278 824 C252 824 230 802 230 776 C230 749 252 727 279 727 C305 727 327 749 327 775 C327 802 306 824 278 824 L278 824 Z M468 824 C442 824 420 802 420 776 C420 749 442 727 469 727 C495 727 517 749 517 775 C517 802 496 824 468 824 L468 824 Z " />
<glyph glyph-name="uni2011" unicode="&#x2011;" horiz-adv-x="170" d="M170 230 L0 230 L0 170 L170 170 L170 230 Z " />
<glyph glyph-name="figuredash" unicode="&#x2012;" horiz-adv-x="450" d="M413 230 L38 230 L38 170 L413 170 L413 230 Z " />
<glyph glyph-name="endash" unicode="&#x2013;" horiz-adv-x="450" d="M413 230 L38 230 L38 170 L413 170 L413 230 Z " />
<glyph glyph-name="emdash" unicode="&#x2014;" horiz-adv-x="510" d="M510 230 L0 230 L0 170 L510 170 L510 230 Z " />
<glyph glyph-name="afii00208" unicode="&#x2015;" horiz-adv-x="510" d="M510 230 L0 230 L0 170 L510 170 L510 230 Z " />
<glyph glyph-name="quoteleft" unicode="&#x2018;" horiz-adv-x="240" d="M140 687 C80 634 48 578 48 523 C48 466 84 423 131 423 C167 423 192 449 192 487 C192 520 174 542 146 542 C122 542 104 522 104 494 C104 491 104 485 105 479 C81 492 71 510 71 538 C71 579 94 618 152 675 L140 687 Z " />
<glyph glyph-name="quoteright" unicode="&#x2019;" horiz-adv-x="240" d="M100 413 C160 466 192 522 192 577 C192 634 156 677 109 677 C73 677 48 651 48 613 C48 580 66 558 94 558 C118 558 136 578 136 606 C136 610 136 615 135 621 C159 609 169 591 169 562 C169 521 146 483 88 425 L100 413 Z " />
<glyph glyph-name="quotesinglbase" unicode="&#x201a;" horiz-adv-x="226" d="M127 56 C146 43 155 26 155 -2 C155 -44 135 -83 84 -140 L95 -152 C149 -99 178 -43 178 12 C178 69 146 112 103 112 C71 112 48 86 48 48 C48 15 65 -7 89 -7 C111 -7 127 13 127 41 L127 56 Z " />
<glyph glyph-name="quotedblleft" unicode="&#x201c;" horiz-adv-x="432" d="M331 687 C272 634 240 578 240 523 C240 466 276 423 323 423 C359 423 384 449 384 487 C384 520 366 542 338 542 C314 542 296 522 296 494 C296 490 296 485 297 479 C273 491 263 509 263 538 C263 579 286 618 344 675 L331 687 Z M140 687 C80 634 48 578 48 523 C48 466 84 423 131 423 C167 423 192 449 192 487 C192 520 174 542 146 542 C122 542 104 522 104 494 C104 491 104 485 105 479 C81 492 71 510 71 538 C71 579 94 618 152 675 L140 687 Z " />
<glyph glyph-name="quotedblright" unicode="&#x201d;" horiz-adv-x="432" d="M100 413 C160 466 192 522 192 577 C192 634 156 677 109 677 C73 677 48 651 48 613 C48 580 66 558 94 558 C118 558 136 578 136 606 C136 610 136 615 135 621 C159 609 169 591 169 562 C169 521 146 483 88 425 L100 413 Z M292 413 C352 466 384 522 384 577 C384 634 348 677 301 677 C264 677 239 651 239 613 C239 580 258 558 285 558 C310 558 328 578 328 606 C328 609 328 615 327 621 C351 609 361 591 361 562 C361 521 338 482 280 425 L292 413 Z " />
<glyph glyph-name="quotedblbase" unicode="&#x201e;" horiz-adv-x="417" d="M127 56 C146 43 155 26 155 -2 C155 -44 135 -83 84 -140 L95 -152 C149 -99 178 -43 178 12 C178 69 146 112 103 112 C71 112 48 86 48 48 C48 15 65 -7 89 -7 C111 -7 127 13 127 41 L127 56 Z M287 -152 C340 -99 369 -42 369 12 C369 69 337 112 294 112 C262 112 239 86 239 48 C239 15 256 -7 280 -7 C303 -7 319 13 319 41 C319 44 319 50 318 56 C338 43 346 26 346 -2 C346 -44 326 -82 276 -140 L287 -152 Z " />
<glyph glyph-name="dagger" unicode="&#x2020;" horiz-adv-x="450" d="M232 376 L384 339 C388 337 393 337 400 337 C429 337 449 356 449 383 C449 410 429 429 400 429 C393 429 389 428 384 427 L232 388 L260 531 C264 551 268 587 268 607 C268 655 254 677 225 677 C196 677 182 655 182 607 C182 588 186 550 190 531 L218 388 L67 427 C62 428 57 429 51 429 C21 429 1 410 1 383 C1 356 21 337 50 337 C57 337 62 337 67 339 L218 376 L188 17 C181 -48 180 -59 180 -96 C180 -156 196 -190 226 -190 C253 -190 270 -155 270 -96 C270 -59 269 -47 262 17 L232 376 Z " />
<glyph glyph-name="daggerdbl" unicode="&#x2021;" horiz-adv-x="450" d="M218 407 L67 446 C62 448 58 448 51 448 C21 448 1 429 1 402 C1 375 21 356 50 356 C56 356 61 357 67 358 L218 395 C218 365 205 294 193 255 C203 209 205 196 217 109 L67 148 C61 149 56 150 51 150 C21 150 1 131 1 103 C1 76 21 57 50 57 C54 57 61 58 67 59 L218 96 L193 -43 C182 -102 182 -102 182 -121 C182 -167 196 -190 225 -190 C254 -190 268 -167 268 -122 C268 -104 267 -95 257 -43 L232 96 L384 59 C390 58 396 57 400 57 C429 57 449 76 449 103 C449 131 429 150 400 150 C394 150 389 149 384 148 L233 109 L233 113 L238 146 C243 180 247 201 248 209 C251 225 253 234 257 255 C244 301 236 348 232 395 L384 358 C389 357 394 356 400 356 C429 356 449 375 449 402 C449 429 429 448 400 448 C392 448 388 448 384 446 L232 407 L257 531 C265 570 268 589 268 608 C268 654 254 677 225 677 C196 677 182 654 182 609 C182 592 186 566 193 531 L218 407 Z " />
<glyph glyph-name="bullet" unicode="&#x2022;" horiz-adv-x="600" d="M301 480 C231 480 176 418 176 340 C176 262 231 200 300 200 C368 200 423 263 423 340 C423 417 368 480 301 480 L301 480 Z " />
<glyph glyph-name="ellipsis" unicode="&#x2026;" horiz-adv-x="666" d="M111 107 C83 107 60 81 60 50 C60 19 83 -7 111 -7 C139 -7 162 18 162 49 C162 82 140 107 111 107 L111 107 Z M333 107 C305 107 282 81 282 50 C282 19 305 -7 333 -7 C361 -7 384 18 384 49 C384 82 362 107 333 107 L333 107 Z M555 107 C527 107 504 81 504 50 C504 19 527 -7 555 -7 C583 -7 606 18 606 49 C606 82 584 107 555 107 L555 107 Z " />
<glyph glyph-name="perthousand" unicode="&#x2030;" horiz-adv-x="906" d="M151 653 C83 653 25 576 25 487 C25 397 83 320 151 320 C217 320 276 397 276 485 C276 576 218 653 151 653 L151 653 Z M94 521 C94 606 108 635 151 635 C193 635 207 606 207 521 L207 451 C207 367 193 338 151 338 C108 338 94 367 94 451 L94 521 Z M457 647 L431 647 L160 0 L187 0 L457 647 Z M471 327 C406 327 349 250 349 161 C349 71 405 -6 471 -6 C536 -6 593 71 593 159 C593 250 537 327 471 327 L471 327 Z M418 196 C418 280 432 309 471 309 C511 309 524 280 524 196 L524 126 C524 41 511 12 471 12 C432 12 418 41 418 126 L418 196 Z M756 327 C688 327 630 250 630 161 C630 71 688 -6 756 -6 C822 -6 881 71 881 159 C881 250 823 327 756 327 L756 327 Z M699 196 C699 280 713 309 756 309 C798 309 812 280 812 196 L812 126 C812 41 798 12 756 12 C713 12 699 41 699 126 L699 196 Z " />
<glyph glyph-name="guilsinglleft" unicode="&#x2039;" horiz-adv-x="235" d="M42 200 L142 96 L187 96 L88 200 L187 304 L142 304 L42 200 Z " />
<glyph glyph-name="guilsinglright" unicode="&#x203a;" horiz-adv-x="235" d="M193 200 L93 304 L48 304 L148 200 L48 96 L93 96 L193 200 Z " />
<glyph glyph-name="uni203E" unicode="&#x203e;" horiz-adv-x="500" d="M0 847 L0 807 L500 807 L500 847 L0 847 Z " />
<glyph glyph-name="fraction" unicode="&#x2044;" horiz-adv-x="102" d="M201 647 L171 647 L-99 0 L-69 0 L201 647 Z " />
<glyph glyph-name="franc" unicode="&#x20a3;" horiz-adv-x="654" d="M457 667 L30 667 L30 649 L108 649 L108 18 L30 18 L30 0 L276 0 L276 18 L201 18 L201 329 L249 329 C318 330 343 304 347 227 L347 205 L359 205 L359 475 L347 475 L347 457 C343 364 327 346 250 347 L201 347 L201 649 L293 649 C393 653 438 605 457 475 L469 475 L457 667 Z M528 357 L391 357 L391 339 L451 339 L451 18 L391 18 L391 0 L580 0 L580 18 L528 18 L528 105 C528 186 531 215 545 261 C559 305 576 330 592 330 C599 330 604 324 604 314 C604 281 615 264 634 264 C654 264 667 284 667 313 C667 345 648 367 620 367 C594 367 569 350 554 322 C544 305 539 292 528 257 L528 357 Z " />
<glyph glyph-name="Euro" unicode="&#x20ac;" horiz-adv-x="575" d="M92 350 C91 338 91 336 91 328 L91 317 L49 317 L38 287 L93 287 C106 121 218 -10 346 -10 C398 -10 438 6 496 50 L526 0 L538 0 L538 185 L526 185 C509 133 499 110 482 85 C449 36 404 10 353 10 C298 10 249 41 227 90 C211 125 206 164 205 262 L205 287 L393 287 L404 317 L205 317 L204 324 L204 330 C204 338 204 343 205 350 L417 350 L429 380 L205 380 C206 441 208 475 213 512 C224 604 277 657 357 657 C404 657 447 637 478 599 C503 570 514 545 526 494 L538 494 L538 667 L526 667 L496 617 C445 661 406 677 352 677 C221 677 109 548 94 380 L49 380 L38 350 L92 350 Z " />
<glyph glyph-name="trademark" unicode="&#x2122;" horiz-adv-x="736" d="M198 649 L218 649 C261 648 279 625 299 542 L313 544 L305 667 L19 667 L15 544 L28 542 C44 622 69 653 114 649 L136 649 L136 305 L83 305 L83 287 L244 287 L244 305 L198 305 L198 649 Z M486 287 L501 287 L593 625 L593 305 L554 305 L554 287 L700 287 L700 305 L655 305 L655 649 L700 649 L700 667 L587 667 L514 397 L436 667 L325 667 L325 649 L367 649 L367 305 L325 305 L325 287 L432 287 L432 305 L389 305 L389 628 L486 287 Z " />
<glyph glyph-name="uni2126" unicode="&#x2126;" horiz-adv-x="768" d="M326 0 L308 155 C230 199 180 288 180 382 C180 434 195 493 221 540 C257 605 317 642 385 642 C453 642 513 605 549 540 C575 493 590 434 590 382 C590 288 540 199 462 155 L444 0 L736 0 L736 153 L712 153 C704 108 684 90 643 90 L497 90 L500 128 C535 141 557 151 580 166 C657 215 702 296 702 382 C702 449 673 522 625 578 C564 648 480 686 385 686 C290 686 206 648 145 578 C97 522 68 449 68 382 C68 296 113 215 190 166 C213 151 235 141 270 128 L273 90 L127 90 C86 90 66 108 58 153 L34 153 L34 0 L326 0 Z " />
<glyph glyph-name="partialdiff" unicode="&#x2202;" horiz-adv-x="494" d="M107 674 C151 697 184 706 219 706 C321 706 379 611 379 448 C379 418 377 395 372 346 C308 396 272 412 221 412 C172 412 131 394 95 355 C51 309 26 246 26 184 C26 76 109 -10 213 -10 C282 -10 341 22 383 84 C429 152 462 286 462 403 C462 519 428 611 360 681 C312 730 259 753 195 753 C156 753 121 746 66 725 L107 674 Z M366 312 C350 201 340 158 314 107 C288 54 245 21 201 21 C146 21 113 73 113 159 C113 273 180 367 261 367 C299 367 324 354 366 312 L366 312 Z " />
<glyph glyph-name="Delta" unicode="&#x2206;" horiz-adv-x="612" d="M6 0 L608 0 L327 688 L6 0 Z M77 51 L290 509 L479 51 L77 51 Z " />
<glyph glyph-name="product" unicode="&#x220f;" horiz-adv-x="823" d="M25 -124 L315 -124 L315 -98 L312 -98 C242 -94 221 -67 224 18 L224 594 C224 656 228 677 242 690 C260 707 272 708 413 708 C556 708 568 707 586 690 C600 677 604 656 604 594 L604 18 C607 -67 586 -94 516 -98 L513 -98 L513 -124 L803 -124 L803 -98 L800 -98 C730 -94 709 -67 712 18 L712 609 C709 694 730 721 800 725 L803 725 L803 751 L25 751 L25 725 L28 725 C98 721 119 694 116 609 L116 18 C119 -67 98 -94 28 -98 L25 -98 L25 -124 Z " />
<glyph glyph-name="summation" unicode="&#x2211;" horiz-adv-x="713" d="M176 711 L444 711 C560 710 590 688 606 587 L632 587 L622 752 L23 752 L256 285 L14 -123 L641 -123 L695 87 L669 87 C639 7 605 -12 491 -11 L163 -11 L364 341 L176 711 Z " />
<glyph glyph-name="minus" unicode="&#x2212;" horiz-adv-x="450" d="M404 339 L46 339 L46 309 L404 309 L404 339 Z " />
<glyph glyph-name="uni2215" unicode="&#x2215;" horiz-adv-x="102" d="M201 647 L171 647 L-99 0 L-69 0 L201 647 Z " />
<glyph glyph-name="uni2219" unicode="&#x2219;" horiz-adv-x="222" d="M111 257 C83 257 60 231 60 200 C60 169 83 143 111 143 C139 143 162 168 162 199 C162 232 140 257 111 257 L111 257 Z " />
<glyph glyph-name="radical" unicode="&#x221a;" horiz-adv-x="549" d="M363 -35 L515 908 L480 913 L353 123 L156 520 L10 449 L26 414 L121 461 L363 -35 Z " />
<glyph glyph-name="infinity" unicode="&#x221e;" horiz-adv-x="713" d="M357 227 C415 156 485 115 548 115 C631 115 688 176 688 266 C688 354 629 414 543 414 C476 414 412 376 357 303 C300 375 234 414 171 414 C86 414 26 351 26 263 C26 176 84 115 167 115 C224 115 281 142 327 192 L357 227 Z M391 264 C434 325 493 362 546 362 C600 362 638 321 638 264 C638 205 603 167 549 167 C495 167 461 188 391 264 L391 264 Z M324 266 C275 203 216 167 163 167 C111 167 76 207 76 266 C76 323 113 362 167 362 C218 362 258 337 324 266 L324 266 Z " />
<glyph glyph-name="integral" unicode="&#x222b;" horiz-adv-x="274" d="M180 576 C180 653 179 691 176 746 C174 774 173 800 173 815 C173 855 184 878 202 878 C208 878 213 876 215 872 C232 845 239 839 256 839 C276 839 291 853 291 871 C291 898 267 916 231 916 C186 916 152 887 138 838 C123 784 113 682 113 577 L113 232 C113 160 114 124 117 63 C119 34 120 4 120 -12 C120 -47 108 -70 89 -70 C81 -70 74 -65 68 -52 C59 -35 51 -30 37 -30 C17 -30 2 -44 2 -63 C2 -89 26 -107 62 -107 C107 -107 141 -78 155 -29 C170 25 180 126 180 232 L180 576 Z " />
<glyph glyph-name="approxequal" unicode="&#x2248;" horiz-adv-x="549" d="M489 251 C444 199 423 187 384 187 C365 187 354 190 285 211 C212 234 188 239 160 239 C101 239 54 211 14 155 L57 121 C103 174 120 184 159 184 C180 184 180 184 271 157 C350 133 354 132 385 132 C449 132 496 160 527 217 L489 251 Z M489 408 C444 356 423 344 384 344 C365 344 354 347 285 369 C212 392 188 397 160 397 C101 397 54 369 14 312 L57 279 C104 332 119 342 159 342 C181 342 181 342 271 315 C351 290 354 289 385 289 C449 289 496 318 527 375 L489 408 Z " />
<glyph glyph-name="notequal" unicode="&#x2260;" horiz-adv-x="549" d="M187 142 L115 -1 L161 -25 L246 142 L540 142 L540 197 L273 197 L344 336 L540 336 L540 391 L371 391 L439 525 L392 549 L312 391 L15 391 L15 336 L285 336 L215 197 L15 197 L15 142 L187 142 Z " />
<glyph glyph-name="lessequal" unicode="&#x2264;" horiz-adv-x="549" d="M526 55 L29 55 L29 0 L526 0 L526 55 Z M526 639 L29 405 L29 350 L526 117 L526 179 L108 378 L526 577 L526 639 Z " />
<glyph glyph-name="greaterequal" unicode="&#x2265;" horiz-adv-x="549" d="M526 55 L29 55 L29 0 L526 0 L526 55 Z M29 639 L29 577 L447 378 L29 179 L29 117 L526 350 L526 405 L29 639 Z " />
<glyph glyph-name="lozenge" unicode="&#x25ca;" horiz-adv-x="494" d="M209 0 L269 -1 L466 374 L277 740 L214 740 L18 377 L209 0 Z M240 58 L81 376 L245 683 L402 373 L240 58 Z " />
<glyph glyph-name="fi" unicode="&#xfb01;" horiz-adv-x="469" d="M170 387 L170 540 C170 622 199 663 260 663 C287 663 308 657 326 644 C312 630 307 616 307 596 C307 566 327 544 355 544 C381 544 401 565 401 594 C401 644 344 682 268 682 C211 682 160 659 129 618 C104 586 93 549 93 495 L93 387 L14 387 L14 369 L93 369 L93 18 L14 18 L14 0 L222 0 L222 18 L170 18 L170 369 L316 369 L316 18 L263 18 L263 0 L453 0 L453 18 L393 18 L393 387 L170 387 Z " />
<glyph glyph-name="fl" unicode="&#xfb02;" horiz-adv-x="469" d="M393 18 L393 680 L315 671 C290 680 278 682 256 682 C154 682 93 612 93 495 L93 387 L14 387 L14 369 L93 369 L93 18 L14 18 L14 0 L222 0 L222 18 L170 18 L170 369 L247 369 L247 387 L170 387 L170 540 C170 623 196 663 250 663 C273 663 291 654 302 637 C313 621 316 602 316 549 L316 18 L263 18 L263 0 L462 0 L462 18 L393 18 Z " />
</font>
</svg>
