<?xml version="1.0" standalone="no"?>
<!DOCTYPE svg PUBLIC "-//W3C//DTD SVG 1.1//EN" "http://www.w3.org/Graphics/SVG/1.1/DTD/svg11.dtd" >
<svg xmlns="http://www.w3.org/2000/svg">
<metadata>
Created by FontPrep 20130207 at Fri May 26 16:01:21 2017
 By Lizzy Knight
Copyright 2016 by URW++ Design &#38; Development GmbH
</metadata>
<defs>
<font id="f53a99dd0c3814d5f872238fef15809b" horiz-adv-x='1024' >
  <font-face 
    font-family="URWDINCond-BlackItalic"
    font-weight="900"
    font-style="italic"
    font-stretch="normal"
    units-per-em="2048"
    panose-1="0 0 10 0 0 0 0 0 0 0"
    ascent="1462"
    descent="-586"
    x-height="1073"
    cap-height="1462"
    bbox="-328 -502 2349.01 2140"
    underline-thickness="200"
    underline-position="-80"
    slope="-10"
    unicode-range="U+0020-FB04"
  />
<missing-glyph horiz-adv-x="327" 
 />
    <glyph glyph-name="ff" unicode="ff" horiz-adv-x="1110" 
d="M707 842h-84l41 231h84l20 107q25 168 98 227q74 59 252 55h146l-37 -213h-60q-67 1 -89 -21t-36 -112l-8 -43h166l-41 -231h-166l-147 -842h-287zM180 842h-104l41 231h104l21 107q25 168 98 227q74 59 252 55h133l-37 -213h-47q-67 1 -89 -21t-36 -112l-8 -43h100
l-41 -231h-100l-148 -842h-286z" />
    <glyph glyph-name="fi" unicode="fi" horiz-adv-x="1046" 
d="M578 0l188 1073h287l-189 -1073h-286zM788 1190l50 285h286l-49 -285h-287zM180 842h-104l41 231h104l21 107q25 168 98 227q74 59 252 55h145l-37 -213h-59q-67 1 -89 -21t-36 -112l-8 -43h166l-41 -231h-166l-148 -842h-286z" />
    <glyph glyph-name="fl" unicode="fl" horiz-adv-x="1107" 
d="M934 346q0 -58 29 -84q29 -25 92 -24h16l-43 -238h-27q-205 0 -283 57t-79 203q0 98 31 275l164 927h286l-178 -1009q-8 -49 -8 -107zM180 842h-104l41 231h104l21 107q25 168 98 227q74 59 252 55h145l-37 -213h-59q-67 1 -89 -21t-36 -112l-8 -43h166l-41 -231h-166
l-148 -842h-286z" />
    <glyph glyph-name="ffi" unicode="ffi" horiz-adv-x="1572" 
d="M707 842h-84l41 231h84l20 107q25 168 98 227q74 59 252 55h146l-37 -213h-60q-67 1 -89 -21t-36 -112l-8 -43h166l-41 -231h-166l-147 -842h-287zM1104 0l188 1073h287l-188 -1073h-287zM1315 1190l49 285h287l-49 -285h-287zM180 842h-104l41 231h104l21 107
q25 168 98 227q74 59 252 55h133l-37 -213h-47q-67 1 -89 -21t-36 -112l-8 -43h100l-41 -231h-100l-148 -842h-286z" />
    <glyph glyph-name="ffl" unicode="ffl" horiz-adv-x="1634" 
d="M707 842h-84l41 231h84l20 107q25 168 98 227q74 59 252 55h146l-37 -213h-60q-67 1 -89 -21t-36 -112l-8 -43h166l-41 -231h-166l-147 -842h-287zM1460 344q0 -58 29 -82q29 -25 94 -24h14l-41 -238h-28q-205 0 -284 57t-79 203q0 86 33 275l164 927h287l-179 -1009
q-10 -51 -10 -109zM180 842h-104l41 231h104l21 107q25 168 98 227q74 59 252 55h133l-37 -213h-47q-67 1 -89 -21t-36 -112l-8 -43h100l-41 -231h-100l-148 -842h-286z" />
    <glyph glyph-name=".notdef" horiz-adv-x="327" 
 />
    <glyph glyph-name=".null" horiz-adv-x="0" 
 />
    <glyph glyph-name="nonmarkingreturn" horiz-adv-x="681" 
 />
    <glyph glyph-name="space" unicode=" " horiz-adv-x="327" 
 />
    <glyph glyph-name="exclam" unicode="!" horiz-adv-x="583" 
d="M55 0l49 285h289l-49 -285h-289zM156 424l139 1038h323l-227 -1038h-235z" />
    <glyph glyph-name="quotedbl" unicode="&#x22;" horiz-adv-x="811" 
d="M524 852l84 610h299l-129 -610h-254zM143 852l86 610h299l-131 -610h-254z" />
    <glyph glyph-name="numbersign" unicode="#" 
d="M385 602h109l49 193h-109zM152 602l49 193h-90l47 178h90l86 325h233l-86 -325h109l86 325h233l-86 -325h92l-47 -178h-92l-49 -193h92l-49 -180h-92l-82 -316h-234l82 316h-108l-82 -316h-234l82 316h-90l47 180h93z" />
    <glyph glyph-name="dollar" unicode="$" 
d="M891 1143q0 -43 -10 -84h-279q4 37 4 74q0 86 -69 86q-61 -1 -91 -59t-28 -118q0 -60 30 -93q30 -32 111 -64q150 -61 207 -134t57 -189q1 -116 -29 -220t-79 -172q-80 -109 -223 -150l-54 -299h-295l54 304q-203 74 -203 323q0 51 14 129h277q-19 -171 7 -204
q25 -34 75 -33q92 0 131 100q32 76 32 148t-41 100q-18 14 -129 57q-236 90 -235 344q0 182 87 305t237 152l38 221h295l-45 -248q154 -84 154 -276z" />
    <glyph glyph-name="percent" unicode="%" horiz-adv-x="1679" 
d="M430 0l621 1462h264l-621 -1462h-264zM1370 526q0 53 -53 54q-39 0 -59 -30t-33 -110l-27 -149q-8 -49 -8 -86q0 -53 53 -53q41 0 60 28q18 29 32 111l27 149q8 49 8 86zM1318 752q162 0 234 -52t72 -161q0 -53 -14 -133l-15 -80q-33 -190 -100 -258q-86 -88 -250 -88
q-165 0 -235 55t-70 174q0 62 16 158l15 79q31 174 107 240q77 66 240 66zM557 1260q0 53 -53 53q-38 0 -58 -30t-34 -109l-27 -150q-8 -41 -8 -86q0 -53 53 -53q38 1 58 29t34 110l27 150q8 57 8 86zM503 1485q165 0 237 -51t71 -162q0 -41 -14 -133l-15 -80
q-33 -188 -102 -258q-82 -88 -247 -88t-235 55t-71 174q0 56 16 158l15 80q31 166 96 229q84 76 249 76z" />
    <glyph glyph-name="ampersand" unicode="&#x26;" horiz-adv-x="1236" 
d="M440 180q113 0 215 74l-174 317q-80 -51 -112 -96q-61 -82 -62 -180q0 -115 133 -115zM625 928q158 84 157 243q0 88 -77 89q-57 0 -91 -48q-72 -106 11 -284zM297 1081q0 87 33 165t86 130q119 111 291 111t266 -85q94 -86 94 -230t-81 -252t-251 -201l119 -219
q35 72 88 213h279q-92 -274 -232 -459l139 -254h-335l-23 41q-162 -102 -383 -102q-385 0 -385 335q1 318 363 521l-7 16q-61 183 -61 270z" />
    <glyph glyph-name="quotesingle" unicode="'" horiz-adv-x="430" 
d="M143 852l86 610h299l-131 -610h-254z" />
    <glyph glyph-name="parenleft" unicode="(" horiz-adv-x="737" 
d="M164 471q0 446 223 825q109 188 301 383l174 -133q-393 -536 -393 -1177q0 -250 96 -504l-196 -131q-205 350 -205 737z" />
    <glyph glyph-name="parenright" unicode=")" horiz-adv-x="737" 
d="M633 940q0 -688 -524 -1206l-175 131q394 537 394 1177q-1 250 -97 504l197 133q205 -352 205 -739z" />
    <glyph glyph-name="asterisk" unicode="*" 
d="M514 1012l-143 -201l-197 160l182 188l-194 90l102 207l185 -123l34 266l262 -47l-59 -262l213 53l27 -229l-213 -18l106 -240l-237 -82z" />
    <glyph glyph-name="plus" unicode="+" 
d="M59 616l39 222h262l56 309h246l-56 -309h262l-39 -222h-262l-55 -313h-246l56 313h-263z" />
    <glyph glyph-name="comma" unicode="," horiz-adv-x="481" 
d="M-127 -385l195 661h313l-246 -661h-262z" />
    <glyph glyph-name="hyphen" unicode="-" horiz-adv-x="704" 
d="M100 598l43 252h529l-43 -252h-529z" />
    <glyph glyph-name="period" unicode="." horiz-adv-x="483" 
d="M-4 0l49 285h303l-49 -285h-303z" />
    <glyph glyph-name="slash" unicode="/" horiz-adv-x="630" 
d="M-119 -41l656 1544h280l-655 -1544h-281z" />
    <glyph glyph-name="zero" unicode="0" 
d="M623 1155q0 88 -66 88q-57 0 -85 -57t-58 -236l-78 -438q-27 -162 -27 -205q0 -88 66 -88q55 0 83 57q27 58 58 236l78 438q29 166 29 205zM556 1485q188 0 272 -79q83 -79 83 -247q0 -76 -26 -235l-88 -492q-23 -135 -52 -209q-96 -246 -385 -246q-176 0 -258 78
t-82 246q0 91 27 238l86 491q23 135 51 209q29 74 80 129q104 117 292 117z" />
    <glyph glyph-name="one" unicode="1" 
d="M207 0l199 1133l-158 -82l-98 225l419 186h199l-258 -1462h-303z" />
    <glyph glyph-name="two" unicode="2" 
d="M133 1032q49 453 415 453q180 0 271 -84q92 -84 92 -234q0 -197 -110 -366q-35 -57 -83 -115t-192 -215l-200 -219h419l-43 -252h-765l36 217l398 473q231 276 231 481q0 72 -53 72t-83 -45t-54 -166h-279z" />
    <glyph glyph-name="three" unicode="3" 
d="M422 887q94 0 123 67q41 100 41 207q0 82 -68 82q-40 0 -64 -38t-46 -144h-279q23 217 122 320t277 103t272 -84q95 -84 95 -220t-48 -252t-114 -156q76 -82 76 -211t-29 -239t-73 -177q-113 -168 -353 -168q-170 0 -262 86t-92 246q0 45 12 113h279q-6 -61 -6 -98
q0 -104 80 -105q66 0 100 94q39 97 39 189t-25 122t-80 29h-120l40 234h103z" />
    <glyph glyph-name="four" unicode="4" 
d="M375 0l45 252h-440l32 182l520 1028h308l-488 -968h111l45 260h270l-45 -260h90l-43 -242h-90l-45 -252h-270z" />
    <glyph glyph-name="five" unicode="5" 
d="M545 934q272 0 272 -275q0 -113 -36 -269t-76 -226q-113 -186 -365 -187q-170 0 -261 86t-91 246q0 45 12 113h279q-6 -61 -7 -98q0 -104 70 -105q78 1 120 149t42 261q0 76 -66 76t-116 -84l-209 45l172 796h645l-43 -252h-385l-64 -292q43 16 107 16z" />
    <glyph glyph-name="six" unicode="6" 
d="M467 721q-80 0 -107 -119q-51 -205 -51 -309q0 -82 68 -82q82 0 110 141q45 207 45 288t-65 81zM608 938q104 0 160 -73t57 -204q-1 -131 -35 -287t-80 -232t-140 -120t-208 -45q-164 0 -254 81t-92 227q0 88 23 208q23 119 57 207t127 236l338 526h330l-332 -528
q25 4 49 4z" />
    <glyph glyph-name="seven" unicode="7" 
d="M2 0l565 1210h-381l45 252h691l-33 -182l-545 -1280h-342z" />
    <glyph glyph-name="eight" unicode="8" 
d="M455 657q-80 0 -109 -94q-14 -47 -30 -141t-15 -127q0 -84 74 -84q84 0 110 100q15 49 29 141t14 121q1 84 -73 84zM623 1197q0 75 -67 75t-91 -88q-37 -168 -37 -247t64 -79q70 0 94 98q37 166 37 241zM377 -23q-369 0 -369 316q0 109 30 221t70 172q40 61 109 96
q-35 37 -47 74t-12 107q0 219 94 371t319 151q322 0 322 -311q0 -154 -62 -297q-16 -39 -34 -59t-68 -52q47 -41 65 -92q18 -50 19 -148q0 -98 -28 -208t-70 -179q-100 -162 -338 -162z" />
    <glyph glyph-name="nine" unicode="9" 
d="M557 1251q-78 0 -104 -98q-15 -57 -31 -151t-16 -130q0 -78 69 -77q82 0 109 120q41 174 41 255t-68 81zM340 578q-111 0 -169 72t-58 196q1 122 29 254t70 211q42 78 137 126t241 48t236 -79q91 -79 92 -224q0 -88 -23 -205t-57 -200t-123 -218l-367 -559h-330l371 584
q-33 -6 -49 -6z" />
    <glyph glyph-name="colon" unicode=":" horiz-adv-x="483" 
d="M133 780l51 285h303l-51 -285h-303zM-4 0l49 285h303l-49 -285h-303z" />
    <glyph glyph-name="semicolon" unicode=";" horiz-adv-x="479" 
d="M166 780l51 285h303l-51 -285h-303zM-127 -385l195 661h313l-246 -661h-262z" />
    <glyph glyph-name="less" unicode="&#x3c;" 
d="M391 729l340 -207l-43 -252l-584 387l29 158l719 389l-47 -270z" />
    <glyph glyph-name="equal" unicode="=" 
d="M125 809l37 211h706l-37 -211h-706zM57 428l39 221h707l-39 -221h-707z" />
    <glyph glyph-name="greater" unicode="&#x3e;" 
d="M541 745l-340 205l43 254l583 -389l-28 -158l-719 -387l47 269z" />
    <glyph glyph-name="question" unicode="?" horiz-adv-x="911" 
d="M211 0l49 285h289l-49 -285h-289zM584 1239q-53 0 -83 -46t-50 -161h-279q29 227 136 338q108 111 300 111q365 0 365 -295q0 -188 -90 -324q-49 -80 -191 -200q-74 -64 -102 -104t-41 -99l-6 -43h-232l13 80q22 130 60 200t129 162t119 152t28 145q0 84 -76 84z" />
    <glyph glyph-name="at" unicode="@" horiz-adv-x="1550" 
d="M877 856q-75 0 -139 -164t-64 -266q0 -33 24 -33q59 0 137 150q77 150 76 262q1 51 -34 51zM1030 420q0 -38 29 -39q98 0 168 147q84 178 84 354t-85 298q-85 120 -284 120q-295 0 -489 -319q-78 -131 -125 -313t-47 -353q-1 -215 117 -302t310 -87t412 88l54 -174
q-266 -104 -488 -104q-309 0 -478 140t-169 435q0 207 64 424q65 217 176 385q246 371 669 371q274 0 437 -154t163 -413q0 -299 -156 -516t-370 -218q-84 0 -127 33t-53 107q-111 -139 -236 -140q-84 0 -129 54t-45 153q0 197 126 423t319 227q65 0 97 -26t44 -85l35 88
h168l-152 -455q-39 -111 -39 -149z" />
    <glyph glyph-name="A" unicode="A" horiz-adv-x="1005" 
d="M621 518l-23 541l-213 -541h236zM631 279h-340l-109 -279h-327l675 1462h267l172 -1462h-326z" />
    <glyph glyph-name="B" unicode="B" horiz-adv-x="1040" 
d="M465 242q102 0 137 51q57 82 57 225q0 59 -24 82q-25 23 -92 23h-115l-68 -381h105zM571 864q80 0 119 47q55 70 55 209q0 55 -24 78q-25 23 -86 23h-103l-63 -357h102zM649 1462q233 0 321 -81t89 -244q0 -163 -72 -277q-37 -61 -108 -96q86 -78 86 -254
q0 -254 -121 -397q-53 -61 -121 -87t-180 -26h-529l258 1462h377z" />
    <glyph glyph-name="C" unicode="C" horiz-adv-x="980" 
d="M459 -23q-395 0 -396 342q0 96 27 244l78 438q27 156 57 232q31 76 88 131q117 117 315 117t300 -81q100 -81 100 -233q0 -61 -12 -135h-277l4 86q0 63 -24 92q-25 29 -91 29t-101 -61q-36 -61 -70 -252l-70 -394q-25 -135 -25 -196q0 -117 113 -117q72 0 113 53
q40 54 65 179h289q-37 -205 -117 -308q-127 -166 -366 -166z" />
    <glyph glyph-name="D" unicode="D" horiz-adv-x="1060" 
d="M764 1120q0 100 -139 101h-93l-172 -979h93q113 4 149 50t68 220l78 438q16 106 16 170zM604 1462q262 0 361 -71q106 -82 106 -246q0 -72 -20 -195l-97 -544q-33 -225 -151 -318q-119 -92 -367 -88h-422l258 1462h332z" />
    <glyph glyph-name="E" unicode="E" horiz-adv-x="915" 
d="M16 0l258 1462h746l-43 -252h-442l-64 -350h373l-43 -252h-373l-66 -356h455l-43 -252h-758z" />
    <glyph glyph-name="F" unicode="F" horiz-adv-x="884" 
d="M16 0l258 1462h734l-43 -252h-430l-66 -360h354l-43 -252h-354l-107 -598h-303z" />
    <glyph glyph-name="G" unicode="G" horiz-adv-x="1040" 
d="M63 324q0 88 27 239l76 438q29 154 60 231q32 77 91 132q123 117 325 117t304 -81q100 -81 101 -233q0 -61 -13 -135h-276q4 82 4 86q0 63 -25 92t-80 29q-88 0 -128 -63t-72 -250l-70 -394q-25 -139 -25 -188q0 -125 117 -125q82 -1 124 59t69 220l14 86h-139l41 231
h438l-53 -305q-27 -160 -53 -237q-102 -296 -449 -296q-408 0 -408 347z" />
    <glyph glyph-name="H" unicode="H" horiz-adv-x="1081" 
d="M14 0l258 1462h303l-106 -602h258l107 602h303l-258 -1462h-304l109 608h-258l-109 -608h-303z" />
    <glyph glyph-name="I" unicode="I" horiz-adv-x="520" 
d="M14 0l258 1462h303l-258 -1462h-303z" />
    <glyph glyph-name="J" unicode="J" horiz-adv-x="757" 
d="M233 -23q-125 0 -207 33t-163 115l207 194q76 -100 135 -100t85 57t58 238l168 948h303l-176 -997q-33 -189 -46 -237t-48 -101q-92 -150 -316 -150z" />
    <glyph glyph-name="K" unicode="K" horiz-adv-x="976" 
d="M18 0l258 1462h304l-86 -485l370 485h326l-485 -600l233 -862h-317l-146 651l-53 -82l-100 -569h-304z" />
    <glyph glyph-name="L" unicode="L" horiz-adv-x="876" 
d="M14 0l258 1462h303l-215 -1210h451l-43 -252h-754z" />
    <glyph glyph-name="M" unicode="M" horiz-adv-x="1302" 
d="M14 0l258 1462h279l133 -747l393 747h281l-258 -1462h-289l141 801l-241 -484h-195l-72 484l-141 -801h-289z" />
    <glyph glyph-name="N" unicode="N" horiz-adv-x="1126" 
d="M14 0l258 1462h303l173 -858l151 858h283l-258 -1462h-287l-186 874l-154 -874h-283z" />
    <glyph glyph-name="O" unicode="O" horiz-adv-x="1062" 
d="M358 330q0 -111 121 -111q100 0 142 88q22 45 49 195l80 459q23 133 22 172q0 111 -119 110q-100 0 -145 -88q-20 -39 -47 -194l-80 -459q-23 -115 -23 -172zM1071 1145q0 -72 -22 -213l-91 -508q-24 -129 -50 -197q-97 -250 -437 -250q-215 0 -313 82t-99 258
q0 82 23 213l90 508q23 131 48 198q26 66 81 128q108 120 341 121q233 0 331 -82t98 -258z" />
    <glyph glyph-name="P" unicode="P" horiz-adv-x="958" 
d="M530 758q63 0 98 27q34 29 64 125t31 177q0 81 -24 107t-87 27h-88l-82 -463h88zM612 1462q219 0 310 -73q106 -88 106 -275q0 -127 -34 -251q-34 -125 -93 -203t-145 -112t-230 -34h-118l-91 -514h-303l258 1462h340z" />
    <glyph glyph-name="Q" unicode="Q" horiz-adv-x="1062" 
d="M358 330q0 -111 121 -111q33 0 60 8l-144 164l185 148l79 -90q2 23 11 53l80 459q23 133 22 172q0 111 -119 110q-100 0 -145 -88q-20 -39 -47 -194l-80 -459q-23 -115 -23 -172zM442 -23q-186 0 -284 82t-99 258q0 82 23 213l90 508q23 131 48 198q26 66 81 128
q108 120 341 121q233 0 331 -82t98 -258q0 -72 -22 -213l-91 -508q-31 -164 -69 -238l82 -92l-185 -149l-65 75q-93 -43 -279 -43z" />
    <glyph glyph-name="R" unicode="R" horiz-adv-x="1019" 
d="M541 819q102 0 141 58q61 84 61 225q1 70 -25 94t-100 25h-92l-69 -402h84zM633 1462q225 0 317 -67q106 -80 107 -254q0 -115 -31 -234t-76 -178q-59 -80 -172 -119l135 -610h-335l-99 588h-55l-105 -588h-303l258 1462h359z" />
    <glyph glyph-name="S" unicode="S" horiz-adv-x="929" 
d="M285 340q0 -121 118 -121q102 0 146 94q31 77 31 139t-26 90t-89 50q-182 59 -257 145t-75 236q0 203 107 355t325 153q183 0 283 -91t100 -257q0 -53 -12 -101h-277q4 51 5 96q0 111 -91 111q-76 0 -110 -84q-31 -72 -31 -135t33 -95t123 -65q164 -61 227 -138t63 -198
t-29 -223q-95 -324 -456 -324q-185 1 -289 89t-104 247q0 52 14 138h279q-8 -55 -8 -111z" />
    <glyph glyph-name="T" unicode="T" horiz-adv-x="831" 
d="M170 0l215 1210h-260l43 252h823l-43 -252h-260l-215 -1210h-303z" />
    <glyph glyph-name="U" unicode="U" horiz-adv-x="1083" 
d="M500 219q70 0 105 50q36 50 65 208l172 985h303l-182 -1038q-27 -146 -49 -204t-68 -111q-119 -131 -354 -132q-135 0 -214 27q-79 26 -139 98t-59 197q0 72 26 231l164 932h303l-172 -985q-23 -119 -23 -163t26 -69q26 -26 96 -26z" />
    <glyph glyph-name="V" unicode="V" horiz-adv-x="1013" 
d="M279 0l-127 1462h297l40 -999l394 999h307l-643 -1462h-268z" />
    <glyph glyph-name="W" unicode="W" horiz-adv-x="1531" 
d="M197 0l-15 1462h303l-45 -954l371 954h238l34 -954l293 954h301l-530 -1462h-275l-41 901l-360 -901h-274z" />
    <glyph glyph-name="X" unicode="X" horiz-adv-x="968" 
d="M362 788l-208 674h309l133 -428l238 428h321l-463 -741l223 -721h-309l-147 475l-264 -475h-322z" />
    <glyph glyph-name="Y" unicode="Y" horiz-adv-x="884" 
d="M201 0l86 494l-193 968h316l88 -610l303 610h325l-536 -968l-86 -494h-303z" />
    <glyph glyph-name="Z" unicode="Z" horiz-adv-x="839" 
d="M-84 0l29 162l637 1048h-402l43 252h742l-29 -162l-635 -1048h469l-43 -252h-811z" />
    <glyph glyph-name="bracketleft" unicode="[" horiz-adv-x="737" 
d="M84 -201l319 1813h428l-36 -207h-140l-245 -1399h139l-37 -207h-428z" />
    <glyph glyph-name="backslash" unicode="\" horiz-adv-x="630" 
d="M545 -41h-281l-110 1544h280z" />
    <glyph glyph-name="bracketright" unicode="]" horiz-adv-x="737" 
d="M713 1612l-320 -1813h-426l37 207h137l246 1399h-137l37 207h426z" />
    <glyph glyph-name="asciicircum" unicode="^" 
d="M539 1130l-187 -368h-323l481 708h170l231 -708h-315z" />
    <glyph glyph-name="underscore" unicode="_" horiz-adv-x="749" 
d="M-201 -381l35 201h830l-35 -201h-830z" />
    <glyph glyph-name="grave" unicode="`" horiz-adv-x="1024" 
d="M772 1186h-211l-184 321h282z" />
    <glyph glyph-name="a" unicode="a" horiz-adv-x="884" 
d="M461 459q-92 0 -134 -42t-42 -138q0 -74 80 -74q57 0 84 33t40 122l17 99h-45zM479 862q-82 0 -100 -108h-266q31 180 121 261q91 81 264 81q340 0 340 -303q0 -88 -21 -199l-104 -594h-224l-6 59q-41 -47 -83 -64t-111 -18q-141 0 -219 68t-78 188q0 219 104 328
q90 90 310 90h135l18 131q0 44 -18 62t-62 18z" />
    <glyph glyph-name="b" unicode="b" horiz-adv-x="917" 
d="M590 772q0 78 -66 78q-102 0 -137 -201l-41 -225q-10 -59 -10 -102q0 -102 76 -103q46 0 74 46t46 159l50 274q8 43 8 74zM463 -23q-141 0 -230 89l-28 -66h-219l258 1462h286l-73 -422q68 55 161 56q258 0 259 -269q0 -88 -21 -204l-39 -213q-37 -217 -100 -310
q-47 -66 -105 -94t-149 -29z" />
    <glyph glyph-name="c" unicode="c" horiz-adv-x="827" 
d="M385 -23q-338 0 -338 304q0 80 21 198l38 223q37 205 115 289q99 107 279 107t261 -84t81 -199q0 -12 -6 -86h-261q2 20 3 45q0 90 -72 90q-47 0 -73 -41t-44 -151l-49 -269q-14 -86 -14 -114q0 -78 69 -78q86 0 111 117h268q-20 -186 -111 -268t-278 -83z" />
    <glyph glyph-name="d" unicode="d" horiz-adv-x="917" 
d="M336 301q0 -78 61 -78q98 0 133 201l39 225q10 57 11 101q0 104 -76 104q-45 0 -71 -36t-42 -120l-41 -239q-14 -80 -14 -158zM47 244q0 127 27 272l37 213q35 199 111 283q77 84 210 84t207 -56l74 422h286l-258 -1462h-219l-4 66q-53 -52 -93 -70t-106 -19
q-139 0 -205 70t-67 197z" />
    <glyph glyph-name="e" unicode="e" horiz-adv-x="915" 
d="M610 786q0 82 -90 82q-57 0 -84 -36t-45 -138l-6 -26h211q14 70 14 118zM330 289q0 -78 80 -78q50 0 76 28t40 89h267q-19 -186 -111 -268t-278 -83q-186 0 -269 79q-84 79 -84 243q0 86 23 215l22 141q41 244 137 342q97 99 283 99t271 -78t85 -242q0 -115 -36 -319
h-486l-12 -58q-8 -45 -8 -110z" />
    <glyph glyph-name="f" unicode="f" horiz-adv-x="583" 
d="M180 842h-104l41 231h104l21 107q25 168 98 227q74 59 252 55h145l-37 -213h-59q-67 1 -89 -21t-36 -112l-8 -43h166l-41 -231h-166l-148 -842h-286z" />
    <glyph glyph-name="g" unicode="g" horiz-adv-x="917" 
d="M334 307q0 -84 63 -84q51 0 83 47t50 154l41 225q10 59 11 101q0 104 -76 104q-47 0 -73 -36t-40 -120l-47 -264q-12 -74 -12 -127zM319 -23q-141 0 -207 69t-67 214q0 90 29 256l37 213q35 199 111 283q77 84 221 84t229 -97l41 74h219l-197 -1118q-43 -229 -125 -320
q-111 -119 -311 -118q-153 0 -233 58t-80 167q0 47 10 111h254q-2 -20 -2 -49q0 -60 65 -60q55 0 85 47t53 174l8 53q-55 -41 -140 -41z" />
    <glyph glyph-name="h" unicode="h" horiz-adv-x="923" 
d="M625 1096q262 0 262 -250q0 -80 -25 -215l-110 -631h-287l113 643q16 90 16 117q0 90 -74 90q-55 0 -83 -43t-48 -162l-115 -645h-286l258 1462h286l-73 -415q63 49 166 49z" />
    <glyph glyph-name="i" unicode="i" horiz-adv-x="462" 
d="M-6 0l188 1073h287l-188 -1073h-287zM205 1190l49 285h287l-49 -285h-287z" />
    <glyph glyph-name="j" unicode="j" horiz-adv-x="473" 
d="M213 1190l49 285h287l-49 -285h-287zM193 1073h286l-190 -1075q-47 -299 -151 -387t-398 -82l41 238q104 -4 152 50t73 206z" />
    <glyph glyph-name="k" unicode="k" horiz-adv-x="880" 
d="M-2 0l258 1462h287l-135 -768l309 379h301l-385 -444l194 -629h-301l-108 424l-72 -80l-61 -344h-287z" />
    <glyph glyph-name="l" unicode="l" horiz-adv-x="524" 
d="M352 346q0 -58 29 -84q29 -25 92 -24h16l-43 -238h-26q-205 0 -284 57t-79 203q0 98 31 275l164 927h287l-179 -1009q-8 -49 -8 -107z" />
    <glyph glyph-name="m" unicode="m" horiz-adv-x="1376" 
d="M627 1096q172 0 233 -109q52 59 102 84t121 25q125 0 192 -65t66 -187q0 -72 -26 -215l-111 -629h-286l112 641q16 84 17 123q0 90 -70 90q-51 0 -76 -41t-47 -158l-115 -655h-286l112 641q14 70 15 127q0 82 -64 82q-53 0 -80 -43t-47 -162l-115 -645h-286l188 1073h213
l6 -86q55 61 105 85t127 24z" />
    <glyph glyph-name="n" unicode="n" horiz-adv-x="923" 
d="M627 1096q127 0 193 -65t67 -185q0 -80 -25 -217l-110 -629h-287l113 641q16 92 16 121q0 88 -74 88q-55 0 -83 -43t-48 -162l-115 -645h-286l188 1073h213l6 -86q57 61 107 85t125 24z" />
    <glyph glyph-name="o" unicode="o" horiz-adv-x="921" 
d="M598 782q0 80 -80 80q-57 0 -85 -40t-48 -152l-47 -267q-14 -86 -14 -112q0 -80 77 -80q57 -1 85 39t49 153l47 267q16 88 16 112zM517 1096q187 0 273 -74t87 -229q0 -86 -21 -197l-39 -223q-39 -219 -132 -307t-281 -88t-273 73q-86 74 -86 230q1 75 21 198l38 223
q38 218 132 306t281 88z" />
    <glyph glyph-name="p" unicode="p" horiz-adv-x="917" 
d="M588 772q0 78 -66 78q-102 0 -137 -201l-39 -225q-10 -66 -10 -102q0 -102 76 -103q48 0 74 46t46 159l50 274q6 37 6 74zM874 827q0 -88 -20 -204l-37 -213q-41 -223 -100 -310q-47 -66 -105 -94t-160 -29q-102 0 -178 41l-84 -479h-286l270 1534h219l15 -74
q90 96 202 97q264 0 264 -269z" />
    <glyph glyph-name="q" unicode="q" horiz-adv-x="917" 
d="M336 303q0 -80 61 -80q51 0 83 47t50 154l39 225q10 55 11 101q0 104 -76 104q-45 0 -71 -36t-42 -120l-47 -270q-8 -45 -8 -125zM324 -23q-143 0 -210 70q-67 71 -67 195t27 274l37 213q35 188 92 264q82 103 231 103t238 -97l41 74h219l-270 -1534h-287l84 479
q-55 -41 -135 -41z" />
    <glyph glyph-name="r" unicode="r" horiz-adv-x="665" 
d="M628 1096q76 0 156 -70l-166 -240q-53 68 -103 68t-84 -75t-66 -263l-91 -516h-286l188 1073h217l23 -86q45 59 90 84q46 25 122 25z" />
    <glyph glyph-name="s" unicode="s" horiz-adv-x="819" 
d="M338 -23q-360 0 -361 275q1 37 11 76h266q-6 -33 -6 -45q0 -72 106 -72q133 0 133 123q0 33 -15 49t-56 29q-158 47 -217 84q-109 70 -109 238t95 265t265 97t259 -70q90 -70 90 -197q0 -31 -8 -63h-265q2 10 2 22q0 74 -71 74q-43 0 -70 -32t-27 -76t22 -62t116 -45
t157 -65q102 -61 103 -213q0 -392 -420 -392z" />
    <glyph glyph-name="t" unicode="t" horiz-adv-x="610" 
d="M373 302q0 -64 104 -64h45l-41 -238h-80q-184 0 -256 43t-71 152q0 66 37 278l65 369h-104l41 231h104l70 289h268l-51 -289h172l-41 -231h-172l-80 -451q-10 -59 -10 -89z" />
    <glyph glyph-name="u" unicode="u" horiz-adv-x="901" 
d="M332 299q0 -76 63 -76q47 0 73 43t46 162l113 645h286l-188 -1073h-213l-6 86q-53 -63 -98 -86t-113 -23q-125 -1 -192 63t-67 166t25 238l111 629h287l-113 -641q-14 -86 -14 -133z" />
    <glyph glyph-name="v" unicode="v" horiz-adv-x="841" 
d="M184 0l-86 1073h285l6 -680l246 680h297l-465 -1073h-283z" />
    <glyph glyph-name="w" unicode="w" horiz-adv-x="1257" 
d="M147 0l-36 1073h290l-30 -641l250 641h204l23 -641l196 641h291l-413 -1073h-252l-31 592l-240 -592h-252z" />
    <glyph glyph-name="x" unicode="x" horiz-adv-x="788" 
d="M238 559l-177 514h301l95 -274l159 274h310l-379 -536l184 -537h-301l-100 293l-168 -293h-312z" />
    <glyph glyph-name="y" unicode="y" horiz-adv-x="843" 
d="M178 2l-80 1071h287l4 -690l248 690h295l-477 -1139q-103 -256 -209 -330t-367 -75l41 238q111 -1 150 29t92 161z" />
    <glyph glyph-name="z" unicode="z" horiz-adv-x="702" 
d="M-90 0l29 168l448 668h-289l41 237h635l-29 -170l-448 -665h352l-41 -238h-698z" />
    <glyph glyph-name="braceleft" unicode="{" horiz-adv-x="737" 
d="M512 623q0 -31 -29 -199l-30 -172q-21 -127 -21 -176q0 -50 18 -68t62 -18h43l-35 -191h-100q-164 0 -227 43t-64 156q0 72 33 252l33 192q18 98 18 138t-14 52q-14 13 -56 13h-14l31 170h14q59 2 81 38t42 167l35 199q36 243 110 319t275 74h123l-33 -191h-43
q-66 0 -94 -48t-58 -214l-20 -121q-28 -170 -50 -218t-89 -89q59 -37 59 -108z" />
    <glyph glyph-name="bar" unicode="|" 
d="M176 -201l320 1813h247l-319 -1813h-248z" />
    <glyph glyph-name="braceright" unicode="}" horiz-adv-x="737" 
d="M295 840q0 39 29 198l20 121q23 125 23 184q0 78 -80 78h-43l32 191h101q159 0 225 -43t66 -158q0 -68 -33 -250l-25 -141q-16 -98 -16 -137t13 -53t55 -15h16l-31 -170h-14q-57 0 -80 -35t-45 -168l-43 -249q-35 -244 -110 -320t-273 -74h-125l33 191h43q66 0 93 48
t58 214l31 172q27 168 49 216q23 48 90 91q-59 35 -59 109z" />
    <glyph glyph-name="asciitilde" unicode="~" 
d="M354 899q49 0 79 -15q29 -16 87 -66t88 -50q45 0 103 123l147 -49q-57 -152 -126 -220t-154 -67q-85 0 -187 94q-39 37 -67 37q-52 0 -103 -133l-155 37q52 164 120 236t168 73z" />
    <glyph glyph-name="uni00A0" unicode="&#xa0;" horiz-adv-x="327" 
 />
    <glyph glyph-name="exclamdown" unicode="&#xa1;" horiz-adv-x="583" 
d="M530 1057l-49 -285h-288l49 285h288zM428 633l-139 -1039h-324l228 1039h235z" />
    <glyph glyph-name="cent" unicode="&#xa2;" 
d="M905 1104q0 -12 -6 -86h-260q2 20 2 43q0 92 -70 92q-49 0 -75 -41t-43 -151l-50 -269q-14 -86 -14 -112q0 -80 70 -80q86 0 110 116h269q-16 -154 -81 -236t-190 -104l-39 -215h-295l41 234q-166 62 -164 259q0 95 21 214l39 223q29 180 97 270q69 89 200 115l35 201
h295l-41 -225q70 -33 110 -100t39 -148z" />
    <glyph glyph-name="sterling" unicode="&#xa3;" 
d="M227 535v38h-172l45 248h88q-14 90 -14 187q0 182 76 307q94 166 334 166q166 0 256 -87t90 -247q0 -45 -12 -115h-279q12 74 12 121q0 86 -57 86t-82 -70q-33 -87 -33 -161t23 -187h252l-45 -248h-193q-27 -227 -121 -321h406l-43 -252h-801l37 217q109 29 171 114
t62 204z" />
    <glyph glyph-name="currency" unicode="&#xa4;" 
d="M600 674q0 232 -145 233q-145 0 -145 -232t145 -233q145 0 145 232zM78 674q0 146 53 246l-119 133l140 133l112 -127q88 51 190 51t193 -51l111 127l139 -133l-117 -133q51 -100 51 -244t-51 -246l117 -133l-139 -133l-111 127q-88 -51 -192 -51t-191 51l-112 -127
l-140 133l119 133q-53 98 -53 244z" />
    <glyph glyph-name="yen" unicode="&#xa5;" 
d="M188 0l50 276h-213l28 162h213l17 92h-213l28 160h154l-154 772h318l67 -631l291 631h324l-426 -772h155l-28 -160h-213l-17 -92h213l-28 -162h-213l-49 -276h-304z" />
    <glyph glyph-name="brokenbar" unicode="&#xa6;" horiz-adv-x="798" 
d="M168 0l98 557h275l-99 -557h-274zM324 879l102 583h274l-102 -583h-274z" />
    <glyph glyph-name="section" unicode="&#xa7;" 
d="M336 633q0 -45 24 -75t97 -71l53 -28q59 70 59 147q0 41 -24 70q-25 28 -99 69l-51 31q-59 -66 -59 -143zM434 121q0 43 -35 72q-20 20 -116 63q-233 100 -234 303q0 95 40 155t167 150q-74 88 -74 215q0 184 97 295t296 111q156 1 239 -59t83 -171q0 -33 -8 -96h-254v23
q0 70 -66 69q-41 0 -65 -36t-23 -90q0 -55 26 -79q27 -24 135 -74t161 -119t53 -167t-45 -167t-164 -150q86 -93 86 -201t-33 -192t-90 -130q-113 -94 -327 -94q-354 0 -355 240q1 43 11 106h256q-5 -14 -5 -46q-1 -66 99 -66q145 0 145 135z" />
    <glyph glyph-name="dieresis" unicode="&#xa8;" horiz-adv-x="1024" 
d="M676 1192l47 270h254l-47 -270h-254zM326 1192l47 270h254l-47 -270h-254z" />
    <glyph glyph-name="copyright" unicode="&#xa9;" horiz-adv-x="1660" 
d="M828 1315q-236 0 -380 -169t-145 -420q1 -251 149 -415t378 -164t379 165t149 418t-148 419q-146 166 -382 166zM832 1503q322 0 535 -221q212 -221 212 -553t-212 -551t-536 -219q-325 0 -537 219t-212 555t213 549q215 221 537 221zM1112 604q0 -72 -10 -104t-41 -62
q-72 -70 -227 -70q-156 0 -220 74t-63 246v84q0 172 64 247q65 75 227 75t223 -90q33 -43 35 -146h-199q-6 44 -20 60t-48 16q-33 0 -47 -29t-14 -110v-129q0 -80 14 -109t50 -29t52 18q15 18 23 58h201z" />
    <glyph glyph-name="ordfeminine" unicode="&#xaa;" horiz-adv-x="593" 
d="M387 1065q-37 0 -59 -31t-21 -80q0 -49 37 -49q59 0 70 70l16 90h-43zM413 1327q-42 0 -59 -57h-161q18 110 73 158t164 49q233 0 234 -166q0 -51 -19 -150l-67 -389h-166v39q-49 -53 -133 -53q-174 0 -175 170q0 145 82 211q63 49 215 49h39l6 45q8 41 9 53q0 41 -42 41
z" />
    <glyph glyph-name="guillemotleft" unicode="&#xab;" horiz-adv-x="878" 
d="M330 580l82 -261l-197 -96l-184 381l319 379l152 -145zM735 580l82 -261l-196 -96l-185 381l320 379l151 -145z" />
    <glyph glyph-name="logicalnot" unicode="&#xac;" 
d="M90 616l39 222h670l-111 -629h-274l71 407h-395z" />
    <glyph glyph-name="uni00AD" unicode="&#xad;" horiz-adv-x="704" 
d="M100 598l43 252h529l-43 -252h-529z" />
    <glyph glyph-name="registered" unicode="&#xae;" horiz-adv-x="1337" 
d="M1094 1186q0 194 -117 322t-309 128t-308 -128t-116 -322t116 -323q116 -128 310 -128t308 128q116 128 116 323zM670 1808q268 0 445 -179t177 -445t-177 -444t-445 -177q-268 0 -447 177q-178 176 -178 446t178 446q179 176 447 176zM627 1206h39q35 0 47 16t12 60
q0 68 -53 68h-45v-144zM633 1108v-209h-182v574h243q117 0 164 -41q47 -40 47 -126t-16 -122t-58 -58l107 -227h-195l-77 209h-33z" />
    <glyph glyph-name="macron" unicode="&#xaf;" horiz-adv-x="1024" 
d="M348 1221l37 211h569l-36 -211h-570z" />
    <glyph glyph-name="degree" unicode="&#xb0;" horiz-adv-x="749" 
d="M496 1364q-57 0 -82 -34t-25 -112t25 -113q25 -34 82 -34t82 35t24 113q0 77 -24 111t-82 34zM498 899q-164 0 -254 78t-90 237q0 158 88 240t252 82q342 0 344 -319q0 -154 -88 -236t-252 -82z" />
    <glyph glyph-name="plusminus" unicode="&#xb1;" 
d="M-49 0l39 221h770l-39 -221h-770zM59 616l39 222h262l56 309h246l-56 -309h262l-39 -222h-262l-55 -313h-246l56 313h-263z" />
    <glyph glyph-name="twosuperior" unicode="&#xb2;" horiz-adv-x="634" 
d="M504 1466q0 33 -28 33q-28 1 -42 -23t-31 -92h-206q16 156 86 226t209 69q254 0 253 -206q0 -109 -67 -209q-37 -55 -180 -197l-99 -96h254l-32 -180h-539l27 153l256 275q139 152 139 247z" />
    <glyph glyph-name="threesuperior" unicode="&#xb3;" horiz-adv-x="634" 
d="M397 1329q70 0 86 31q23 45 23 92t-41 47q-25 0 -38 -16t-24 -62h-204q27 258 281 258t253 -198q0 -152 -98 -228q49 -57 49 -145q0 -143 -63 -227q-70 -102 -244 -103q-254 0 -254 197q0 31 8 74h205q-2 -18 -2 -39q0 -51 45 -52q35 0 57 38t21 90q1 52 -17 69
q-18 16 -61 16h-80l29 158h69z" />
    <glyph glyph-name="acute" unicode="&#xb4;" horiz-adv-x="1024" 
d="M481 1186l199 321h311l-297 -321h-213z" />
    <glyph glyph-name="mu" unicode="&#xb5;" 
d="M373 215q49 0 79 54t52 188l106 600h275l-187 -1057h-180l-20 102q-31 -57 -49 -75q-47 -53 -107 -53t-90 34l-82 -469h-274l268 1518h274l-106 -596q-18 -111 -19 -154q0 -92 60 -92z" />
    <glyph glyph-name="paragraph" unicode="&#xb6;" horiz-adv-x="1228" 
d="M356 659q-88 0 -133 23q-137 68 -137 274q0 131 55 255t140 186q82 55 186 63q25 2 133 2h590l-307 -1741h-269l267 1508h-129l-267 -1508h-268l166 938h-27z" />
    <glyph glyph-name="periodcentered" unicode="&#xb7;" horiz-adv-x="483" 
d="M98 580l49 284h304l-50 -284h-303z" />
    <glyph glyph-name="cedilla" unicode="&#xb8;" horiz-adv-x="1024" 
d="M170 -494l139 367h264l-213 -367h-190z" />
    <glyph glyph-name="onesuperior" unicode="&#xb9;" horiz-adv-x="634" 
d="M262 791l113 636l-119 -45l-59 168l295 117h153l-153 -876h-230z" />
    <glyph glyph-name="ordmasculine" unicode="&#xba;" horiz-adv-x="591" 
d="M471 1268q0 48 -37 49q-51 0 -69 -113l-31 -174q-6 -32 -6 -72t39 -40q27 0 43 26t26 86l31 174q4 16 4 64zM680 1276q0 -51 -14 -129l-25 -141q-25 -140 -87 -194t-190 -54t-187 47q-58 47 -58 149q0 59 14 133l25 142q25 137 88 192t192 55q130 0 186 -46
q56 -47 56 -154z" />
    <glyph glyph-name="guillemotright" unicode="&#xbb;" horiz-adv-x="878" 
d="M573 629l-79 258l194 96l184 -379l-317 -381l-154 146zM168 629l-80 258l195 96l184 -379l-317 -381l-154 146z" />
    <glyph glyph-name="onequarter" unicode="&#xbc;" horiz-adv-x="1595" 
d="M322 0l622 1462h262l-620 -1462h-264zM1118 0l25 145h-314l25 131l317 601h224l-291 -558h70l26 150h186l-26 -150h57l-31 -174h-57l-24 -145h-187zM246 586l112 637l-118 -45l-60 168l295 116h154l-154 -876h-229z" />
    <glyph glyph-name="onehalf" unicode="&#xbd;" horiz-adv-x="1595" 
d="M328 0l622 1462h262l-620 -1462h-264zM1241 709q-29 0 -43 -24t-29 -91h-206q16 156 86 226t208 69q254 0 254 -207q0 -106 -65 -209q-41 -57 -182 -197l-99 -96h252l-31 -180h-538l26 154l256 274q139 152 140 246q0 35 -29 35zM252 586l113 637l-119 -45l-60 168
l295 116h154l-154 -876h-229z" />
    <glyph glyph-name="threequarters" unicode="&#xbe;" horiz-adv-x="1595" 
d="M414 0l622 1462h262l-620 -1462h-264zM1186 0l24 145h-313l25 131l317 601h223l-291 -558h70l27 150h186l-27 -150h58l-31 -174h-57l-25 -145h-186zM367 1124q73 0 91 38t18 85t-44 47q-23 0 -36 -16t-23 -61h-205q27 258 281 258t253 -201q0 -150 -96 -225
q47 -57 47 -146q0 -141 -63 -227q-70 -102 -244 -103q-254 0 -254 195q0 33 8 76h205q-2 -18 -2 -39q0 -51 45 -51q34 0 56 38t22 90t-17 68t-61 17h-80l29 157h70z" />
    <glyph glyph-name="questiondown" unicode="&#xbf;" horiz-adv-x="913" 
d="M727 1057l-49 -285h-289l49 285h289zM354 -182q53 0 83 46t50 161h279q-28 -227 -136 -338t-300 -111q-365 0 -365 295q0 188 90 324q49 80 191 200q74 63 102 103t41 100l6 43h232l-13 -80q-22 -129 -60 -200t-129 -163t-119 -152t-28 -144t76 -84z" />
    <glyph glyph-name="Agrave" unicode="&#xc0;" horiz-adv-x="1005" 
d="M786 1589h-211l-184 322h283zM621 518l-23 541l-213 -541h236zM631 279h-340l-109 -279h-327l675 1462h267l172 -1462h-326z" />
    <glyph glyph-name="Aacute" unicode="&#xc1;" horiz-adv-x="1005" 
d="M563 1589l199 322h311l-297 -322h-213zM621 518l-23 541l-213 -541h236zM631 279h-340l-109 -279h-327l675 1462h267l172 -1462h-326z" />
    <glyph glyph-name="Acircumflex" unicode="&#xc2;" horiz-adv-x="1005" 
d="M702 1751l-102 -158h-266l282 316h215l173 -316h-252zM621 518l-23 541l-213 -541h236zM631 279h-340l-109 -279h-327l675 1462h267l172 -1462h-326z" />
    <glyph glyph-name="Atilde" unicode="&#xc3;" horiz-adv-x="1005" 
d="M608 1909q86 0 142 -62q51 -63 69 -63q41 0 66 110h168q-33 -168 -88 -240t-153 -71q-98 0 -146 70q-41 55 -60 55q-49 0 -76 -111h-168q40 164 100 238t146 74zM621 518l-23 541l-213 -541h236zM631 279h-340l-109 -279h-327l675 1462h267l172 -1462h-326z" />
    <glyph glyph-name="Adieresis" unicode="&#xc4;" horiz-adv-x="1005" 
d="M743 1595l48 269h253l-47 -269h-254zM383 1595l47 269h254l-47 -269h-254zM621 518l-23 541l-213 -541h236zM631 279h-340l-109 -279h-327l675 1462h267l172 -1462h-326z" />
    <glyph glyph-name="Aring" unicode="&#xc5;" horiz-adv-x="1005" 
d="M739 1913q-49 0 -77 -40q-28 -41 -27 -107q0 -66 65 -66q47 0 75 40q27 40 27 106t-63 67zM465 1790q-1 110 77 182t192 72t176 -57t62 -163t-78 -180q-79 -74 -193 -75q-114 0 -175 56t-61 165zM621 518l-23 541l-213 -541h236zM631 279h-340l-109 -279h-327l675 1462
h267l172 -1462h-326z" />
    <glyph glyph-name="AE" unicode="&#xc6;" horiz-adv-x="1527" 
d="M729 549l117 661h-33l-373 -661h289zM688 311h-385l-176 -311h-348l901 1462h952l-45 -252h-446l-62 -350h377l-43 -252h-377l-65 -356h459l-44 -252h-753z" />
    <glyph glyph-name="Ccedilla" unicode="&#xc7;" horiz-adv-x="980" 
d="M150 -494l139 367h264l-213 -367h-190zM459 -23q-395 0 -396 342q0 96 27 244l78 438q27 156 57 232q31 76 88 131q117 117 315 117t300 -81q100 -81 100 -233q0 -61 -12 -135h-277l4 86q0 63 -24 92q-25 29 -91 29t-101 -61q-36 -61 -70 -252l-70 -394
q-25 -135 -25 -196q0 -117 113 -117q72 0 113 53q40 54 65 179h289q-37 -205 -117 -308q-127 -166 -366 -166z" />
    <glyph glyph-name="Egrave" unicode="&#xc8;" horiz-adv-x="915" 
d="M805 1589h-211l-184 322h282zM16 0l258 1462h746l-43 -252h-442l-64 -350h373l-43 -252h-373l-66 -356h455l-43 -252h-758z" />
    <glyph glyph-name="Eacute" unicode="&#xc9;" horiz-adv-x="915" 
d="M514 1589l199 322h311l-297 -322h-213zM16 0l258 1462h746l-43 -252h-442l-64 -350h373l-43 -252h-373l-66 -356h455l-43 -252h-758z" />
    <glyph glyph-name="Ecircumflex" unicode="&#xca;" horiz-adv-x="915" 
d="M694 1751l-102 -158h-266l282 316h215l172 -316h-252zM16 0l258 1462h746l-43 -252h-442l-64 -350h373l-43 -252h-373l-66 -356h455l-43 -252h-758z" />
    <glyph glyph-name="Edieresis" unicode="&#xcb;" horiz-adv-x="915" 
d="M709 1595l47 269h254l-47 -269h-254zM348 1595l47 269h254l-47 -269h-254zM16 0l258 1462h746l-43 -252h-442l-64 -350h373l-43 -252h-373l-66 -356h455l-43 -252h-758z" />
    <glyph glyph-name="Igrave" unicode="&#xcc;" horiz-adv-x="520" 
d="M565 1589h-211l-184 322h283zM14 0l258 1462h303l-258 -1462h-303z" />
    <glyph glyph-name="Iacute" unicode="&#xcd;" horiz-adv-x="520" 
d="M313 1589l199 322h311l-297 -322h-213zM14 0l258 1462h303l-258 -1462h-303z" />
    <glyph glyph-name="Icircumflex" unicode="&#xce;" horiz-adv-x="520" 
d="M479 1751l-102 -158h-266l282 316h215l172 -316h-252zM14 0l258 1462h303l-258 -1462h-303z" />
    <glyph glyph-name="Idieresis" unicode="&#xcf;" horiz-adv-x="520" 
d="M500 1595l47 269h254l-47 -269h-254zM139 1595l47 269h254l-47 -269h-254zM14 0l258 1462h303l-258 -1462h-303z" />
    <glyph glyph-name="Eth" unicode="&#xd0;" horiz-adv-x="1060" 
d="M764 1120q0 100 -139 101h-93l-63 -363h127l-43 -240h-127l-66 -376h93q113 4 149 50t68 220l78 438q16 106 16 170zM604 1462q262 0 361 -71q106 -82 106 -246q0 -72 -20 -195l-97 -544q-33 -225 -151 -318q-119 -92 -367 -88h-422l109 618h-107l43 240h107l106 604h332
z" />
    <glyph glyph-name="Ntilde" unicode="&#xd1;" horiz-adv-x="1126" 
d="M678 1909q86 0 141 -62q51 -63 70 -63q41 0 65 110h168q-33 -168 -88 -240t-152 -71q-97 0 -147 70q-41 55 -59 55q-49 0 -76 -111h-168q41 164 100 238q60 74 146 74zM14 0l258 1462h303l173 -858l151 858h283l-258 -1462h-287l-186 874l-154 -874h-283z" />
    <glyph glyph-name="Ograve" unicode="&#xd2;" horiz-adv-x="1062" 
d="M862 1589h-211l-184 322h283zM358 330q0 -111 121 -111q100 0 142 88q22 45 49 195l80 459q23 133 22 172q0 111 -119 110q-100 0 -145 -88q-20 -39 -47 -194l-80 -459q-23 -115 -23 -172zM1071 1145q0 -72 -22 -213l-91 -508q-24 -129 -50 -197q-97 -250 -437 -250
q-215 0 -313 82t-99 258q0 82 23 213l90 508q23 131 48 198q26 66 81 128q108 120 341 121q233 0 331 -82t98 -258z" />
    <glyph glyph-name="Oacute" unicode="&#xd3;" horiz-adv-x="1062" 
d="M571 1589l199 322h311l-297 -322h-213zM358 330q0 -111 121 -111q100 0 142 88q22 45 49 195l80 459q23 133 22 172q0 111 -119 110q-100 0 -145 -88q-20 -39 -47 -194l-80 -459q-23 -115 -23 -172zM1071 1145q0 -72 -22 -213l-91 -508q-24 -129 -50 -197
q-97 -250 -437 -250q-215 0 -313 82t-99 258q0 82 23 213l90 508q23 131 48 198q26 66 81 128q108 120 341 121q233 0 331 -82t98 -258z" />
    <glyph glyph-name="Ocircumflex" unicode="&#xd4;" horiz-adv-x="1062" 
d="M729 1751l-102 -158h-267l283 316h215l172 -316h-252zM358 330q0 -111 121 -111q100 0 142 88q22 45 49 195l80 459q23 133 22 172q0 111 -119 110q-100 0 -145 -88q-20 -39 -47 -194l-80 -459q-23 -115 -23 -172zM1071 1145q0 -72 -22 -213l-91 -508q-24 -129 -50 -197
q-97 -250 -437 -250q-215 0 -313 82t-99 258q0 82 23 213l90 508q23 131 48 198q26 66 81 128q108 120 341 121q233 0 331 -82t98 -258z" />
    <glyph glyph-name="Otilde" unicode="&#xd5;" horiz-adv-x="1062" 
d="M645 1909q86 0 141 -62q51 -63 70 -63q41 0 66 110h168q-32 -168 -88 -240t-153 -71q-97 0 -147 70q-41 55 -59 55q-49 0 -76 -111h-168q41 164 101 238t145 74zM358 330q0 -111 121 -111q100 0 142 88q22 45 49 195l80 459q23 133 22 172q0 111 -119 110
q-100 0 -145 -88q-20 -39 -47 -194l-80 -459q-23 -115 -23 -172zM1071 1145q0 -72 -22 -213l-91 -508q-24 -129 -50 -197q-97 -250 -437 -250q-215 0 -313 82t-99 258q0 82 23 213l90 508q23 131 48 198q26 66 81 128q108 120 341 121q233 0 331 -82t98 -258z" />
    <glyph glyph-name="Odieresis" unicode="&#xd6;" horiz-adv-x="1062" 
d="M770 1595l47 269h254l-47 -269h-254zM410 1595l47 269h254l-47 -269h-254zM358 330q0 -111 121 -111q100 0 142 88q22 45 49 195l80 459q23 133 22 172q0 111 -119 110q-100 0 -145 -88q-20 -39 -47 -194l-80 -459q-23 -115 -23 -172zM1071 1145q0 -72 -22 -213l-91 -508
q-24 -129 -50 -197q-97 -250 -437 -250q-215 0 -313 82t-99 258q0 82 23 213l90 508q23 131 48 198q26 66 81 128q108 120 341 121q233 0 331 -82t98 -258z" />
    <glyph glyph-name="multiply" unicode="&#xd7;" 
d="M338 725l-209 252l188 160l207 -252l297 252l131 -160l-297 -252l209 -252l-188 -160l-207 252l-297 -252l-131 160z" />
    <glyph glyph-name="Oslash" unicode="&#xd8;" horiz-adv-x="1062" 
d="M643 1243q-90 0 -133 -88q-23 -45 -49 -194l-45 -259l344 490q-27 51 -117 51zM488 219q88 0 135 88q20 39 47 195l45 254l-342 -488q27 -49 115 -49zM1073 1138q0 -68 -24 -206l-91 -508q-22 -131 -48 -198q-95 -249 -435 -249q-180 0 -270 52l-60 -84l-180 114l107 152
q-12 55 -12 121t22 198l90 508q23 129 49 197q99 250 436 250q176 0 273 -51l57 82l180 -113l-106 -152q12 -45 12 -113z" />
    <glyph glyph-name="Ugrave" unicode="&#xd9;" horiz-adv-x="1083" 
d="M874 1589h-210l-185 322h283zM500 219q70 0 105 50q36 50 65 208l172 985h303l-182 -1038q-27 -146 -49 -204t-68 -111q-119 -131 -354 -132q-135 0 -214 27q-79 26 -139 98t-59 197q0 72 26 231l164 932h303l-172 -985q-23 -119 -23 -163t26 -69q26 -26 96 -26z" />
    <glyph glyph-name="Uacute" unicode="&#xda;" horiz-adv-x="1083" 
d="M584 1589l198 322h312l-297 -322h-213zM500 219q70 0 105 50q36 50 65 208l172 985h303l-182 -1038q-27 -146 -49 -204t-68 -111q-119 -131 -354 -132q-135 0 -214 27q-79 26 -139 98t-59 197q0 72 26 231l164 932h303l-172 -985q-23 -119 -23 -163t26 -69q26 -26 96 -26
z" />
    <glyph glyph-name="Ucircumflex" unicode="&#xdb;" horiz-adv-x="1083" 
d="M758 1751l-103 -158h-266l283 316h215l172 -316h-252zM500 219q70 0 105 50q36 50 65 208l172 985h303l-182 -1038q-27 -146 -49 -204t-68 -111q-119 -131 -354 -132q-135 0 -214 27q-79 26 -139 98t-59 197q0 72 26 231l164 932h303l-172 -985q-23 -119 -23 -163t26 -69
q26 -26 96 -26z" />
    <glyph glyph-name="Udieresis" unicode="&#xdc;" horiz-adv-x="1083" 
d="M782 1595l47 269h254l-47 -269h-254zM422 1595l47 269h254l-47 -269h-254zM500 219q70 0 105 50q36 50 65 208l172 985h303l-182 -1038q-27 -146 -49 -204t-68 -111q-119 -131 -354 -132q-135 0 -214 27q-79 26 -139 98t-59 197q0 72 26 231l164 932h303l-172 -985
q-23 -119 -23 -163t26 -69q26 -26 96 -26z" />
    <glyph glyph-name="Yacute" unicode="&#xdd;" horiz-adv-x="884" 
d="M516 1589l199 322h311l-297 -322h-213zM201 0l86 494l-193 968h316l88 -610l303 610h325l-536 -968l-86 -494h-303z" />
    <glyph glyph-name="Thorn" unicode="&#xde;" horiz-adv-x="958" 
d="M492 535q100 0 135 75q57 127 57 262q0 72 -24 99t-87 26h-88l-82 -462h89zM573 1239q203 0 291 -61q125 -86 125 -291q0 -123 -34 -245q-70 -251 -237 -316q-87 -35 -231 -35h-118l-52 -291h-303l258 1462h303l-38 -223h36z" />
    <glyph glyph-name="germandbls" unicode="&#xdf;" horiz-adv-x="923" 
d="M553 1481q174 0 269 -74t96 -205q0 -80 -33 -165t-86 -140q74 -74 73 -231q0 -66 -20 -189l-10 -61q-37 -234 -125 -324t-283 -92h-102l41 229h26q84 4 110 38t52 184l17 94q14 83 14 125t-20 60t-83 18h-22l37 208h28q53 0 82 68q33 84 33 160q0 70 -76 69
q-45 1 -65 -27t-35 -108l-197 -1118h-286l207 1167q16 95 35 143t59 85q90 86 264 86z" />
    <glyph glyph-name="agrave" unicode="&#xe0;" horiz-adv-x="884" 
d="M705 1186h-211l-185 321h283zM461 459q-92 0 -134 -42t-42 -138q0 -74 80 -74q57 0 84 33t40 122l17 99h-45zM479 862q-82 0 -100 -108h-266q31 180 121 261q91 81 264 81q340 0 340 -303q0 -88 -21 -199l-104 -594h-224l-6 59q-41 -47 -83 -64t-111 -18q-141 0 -219 68
t-78 188q0 219 104 328q90 90 310 90h135l18 131q0 44 -18 62t-62 18z" />
    <glyph glyph-name="aacute" unicode="&#xe1;" horiz-adv-x="884" 
d="M428 1186l199 321h311l-297 -321h-213zM461 459q-92 0 -134 -42t-42 -138q0 -74 80 -74q57 0 84 33t40 122l17 99h-45zM479 862q-82 0 -100 -108h-266q31 180 121 261q91 81 264 81q340 0 340 -303q0 -88 -21 -199l-104 -594h-224l-6 59q-41 -47 -83 -64t-111 -18
q-141 0 -219 68t-78 188q0 219 104 328q90 90 310 90h135l18 131q0 44 -18 62t-62 18z" />
    <glyph glyph-name="acircumflex" unicode="&#xe2;" horiz-adv-x="884" 
d="M580 1348l-103 -158h-266l283 315h215l172 -315h-252zM461 459q-92 0 -134 -42t-42 -138q0 -74 80 -74q57 0 84 33t40 122l17 99h-45zM479 862q-82 0 -100 -108h-266q31 180 121 261q91 81 264 81q340 0 340 -303q0 -88 -21 -199l-104 -594h-224l-6 59q-41 -47 -83 -64
t-111 -18q-141 0 -219 68t-78 188q0 219 104 328q90 90 310 90h135l18 131q0 44 -18 62t-62 18z" />
    <glyph glyph-name="atilde" unicode="&#xe3;" horiz-adv-x="884" 
d="M397 1194h-168q43 164 103 238t144 74q85 0 140 -62q51 -63 70 -64q41 0 66 111h168q-31 -166 -87 -239q-55 -72 -153 -72t-144 62t-63 63q-49 0 -76 -111zM461 459q-92 0 -134 -42t-42 -138q0 -74 80 -74q57 0 84 33t40 122l17 99h-45zM479 862q-82 0 -100 -108h-266
q31 180 121 261q91 81 264 81q340 0 340 -303q0 -88 -21 -199l-104 -594h-224l-6 59q-41 -47 -83 -64t-111 -18q-141 0 -219 68t-78 188q0 219 104 328q90 90 310 90h135l18 131q0 44 -18 62t-62 18z" />
    <glyph glyph-name="adieresis" unicode="&#xe4;" horiz-adv-x="884" 
d="M623 1192l47 270h254l-47 -270h-254zM272 1192l47 270h254l-47 -270h-254zM461 459q-92 0 -134 -42t-42 -138q0 -74 80 -74q57 0 84 33t40 122l17 99h-45zM479 862q-82 0 -100 -108h-266q31 180 121 261q91 81 264 81q340 0 340 -303q0 -88 -21 -199l-104 -594h-224
l-6 59q-41 -47 -83 -64t-111 -18q-141 0 -219 68t-78 188q0 219 104 328q90 90 310 90h135l18 131q0 44 -18 62t-62 18z" />
    <glyph glyph-name="aring" unicode="&#xe5;" horiz-adv-x="884" 
d="M618 1509q-48 0 -76 -40t-28 -106t66 -67q46 0 74 40t28 106t-64 67zM614 1640q114 0 176 -57t62 -163t-79 -180t-193 -75q-114 1 -174 57t-62 164q0 108 78 182q78 72 192 72zM461 459q-92 0 -134 -42t-42 -138q0 -74 80 -74q57 0 84 33t40 122l17 99h-45zM479 862
q-82 0 -100 -108h-266q31 180 121 261q91 81 264 81q340 0 340 -303q0 -88 -21 -199l-104 -594h-224l-6 59q-41 -47 -83 -64t-111 -18q-141 0 -219 68t-78 188q0 219 104 328q90 90 310 90h135l18 131q0 44 -18 62t-62 18z" />
    <glyph glyph-name="ae" unicode="&#xe6;" horiz-adv-x="1359" 
d="M965 868q-57 0 -84 -36t-45 -138l-7 -26h211q14 72 15 118q0 82 -90 82zM459 459q-90 0 -132 -42t-42 -138q0 -74 80 -74q57 0 81 33t41 122l19 99h-47zM477 1096q188 0 273 -90q90 90 245 90q322 0 322 -312q0 -100 -39 -327h-485l-11 -54q-12 -61 -12 -114
q0 -78 82 -78q90 0 117 117h266q-21 -188 -107 -270t-278 -81q-192 0 -277 105q-107 -104 -267 -104q-316 -1 -316 243q0 223 104 334q94 96 309 96h136l2 19q14 70 14 116q0 76 -74 76q-47 0 -71 -26t-33 -82h-266q27 152 84 223q94 119 282 119z" />
    <glyph glyph-name="ccedilla" unicode="&#xe7;" horiz-adv-x="827" 
d="M57 -494l140 367h264l-213 -367h-191zM385 -23q-338 0 -338 304q0 80 21 198l38 223q37 205 115 289q99 107 279 107t261 -84t81 -199q0 -12 -6 -86h-261q2 20 3 45q0 90 -72 90q-47 0 -73 -41t-44 -151l-49 -269q-14 -86 -14 -114q0 -78 69 -78q86 0 111 117h268
q-20 -186 -111 -268t-278 -83z" />
    <glyph glyph-name="egrave" unicode="&#xe8;" horiz-adv-x="915" 
d="M719 1186h-211l-184 321h282zM610 786q0 82 -90 82q-57 0 -84 -36t-45 -138l-6 -26h211q14 70 14 118zM330 289q0 -78 80 -78q50 0 76 28t40 89h267q-19 -186 -111 -268t-278 -83q-186 0 -269 79q-84 79 -84 243q0 86 23 215l22 141q41 244 137 342q97 99 283 99t271 -78
t85 -242q0 -115 -36 -319h-486l-12 -58q-8 -45 -8 -110z" />
    <glyph glyph-name="eacute" unicode="&#xe9;" horiz-adv-x="915" 
d="M428 1186l199 321h311l-297 -321h-213zM610 786q0 82 -90 82q-57 0 -84 -36t-45 -138l-6 -26h211q14 70 14 118zM330 289q0 -78 80 -78q50 0 76 28t40 89h267q-19 -186 -111 -268t-278 -83q-186 0 -269 79q-84 79 -84 243q0 86 23 215l22 141q41 244 137 342
q97 99 283 99t271 -78t85 -242q0 -115 -36 -319h-486l-12 -58q-8 -45 -8 -110z" />
    <glyph glyph-name="ecircumflex" unicode="&#xea;" horiz-adv-x="915" 
d="M606 1348l-102 -158h-266l282 315h215l172 -315h-252zM610 786q0 82 -90 82q-57 0 -84 -36t-45 -138l-6 -26h211q14 70 14 118zM330 289q0 -78 80 -78q50 0 76 28t40 89h267q-19 -186 -111 -268t-278 -83q-186 0 -269 79q-84 79 -84 243q0 86 23 215l22 141
q41 244 137 342q97 99 283 99t271 -78t85 -242q0 -115 -36 -319h-486l-12 -58q-8 -45 -8 -110z" />
    <glyph glyph-name="edieresis" unicode="&#xeb;" horiz-adv-x="915" 
d="M631 1192l47 270h254l-47 -270h-254zM281 1192l47 270h254l-47 -270h-254zM610 786q0 82 -90 82q-57 0 -84 -36t-45 -138l-6 -26h211q14 70 14 118zM330 289q0 -78 80 -78q50 0 76 28t40 89h267q-19 -186 -111 -268t-278 -83q-186 0 -269 79q-84 79 -84 243q0 86 23 215
l22 141q41 244 137 342q97 99 283 99t271 -78t85 -242q0 -115 -36 -319h-486l-12 -58q-8 -45 -8 -110z" />
    <glyph glyph-name="igrave" unicode="&#xec;" horiz-adv-x="462" 
d="M471 1186h-211l-184 321h282zM-6 0l188 1073h287l-188 -1073h-287z" />
    <glyph glyph-name="iacute" unicode="&#xed;" horiz-adv-x="462" 
d="M219 1186l199 321h311l-297 -321h-213zM-6 0l188 1073h287l-188 -1073h-287z" />
    <glyph glyph-name="icircumflex" unicode="&#xee;" horiz-adv-x="462" 
d="M381 1348l-102 -158h-267l283 315h215l172 -315h-252zM-6 0l188 1073h287l-188 -1073h-287z" />
    <glyph glyph-name="idieresis" unicode="&#xef;" horiz-adv-x="462" 
d="M395 1192l47 270h254l-47 -270h-254zM45 1192l47 270h254l-47 -270h-254zM-6 0l188 1073h287l-188 -1073h-287z" />
    <glyph glyph-name="eth" unicode="&#xf0;" horiz-adv-x="921" 
d="M510 827q-53 0 -82 -45t-49 -159l-37 -205q-12 -63 -12 -121q0 -86 76 -86q53 0 83 46t50 161l36 205q10 66 11 120q0 84 -76 84zM457 1061q88 0 125 -31q-6 86 -47 141l-170 -104l-78 123l139 88q-37 18 -92 35l72 190q164 -18 260 -78l137 86l80 -125l-103 -61
q106 -158 107 -418q0 -152 -29 -301l-43 -252q-37 -207 -129 -292t-280 -85t-277 70q-88 70 -88 219q0 66 18 170l43 250q35 193 119 284t236 91z" />
    <glyph glyph-name="ntilde" unicode="&#xf1;" horiz-adv-x="923" 
d="M414 1194h-168q43 164 102 238q58 74 144 74t141 -62q51 -63 69 -64q41 0 66 111h168q-31 -166 -87 -239q-55 -72 -153 -72t-147 69q-41 55 -60 56q-48 0 -75 -111zM627 1096q127 0 193 -65t67 -185q0 -80 -25 -217l-110 -629h-287l113 641q16 92 16 121q0 88 -74 88
q-55 0 -83 -43t-48 -162l-115 -645h-286l188 1073h213l6 -86q57 61 107 85t125 24z" />
    <glyph glyph-name="ograve" unicode="&#xf2;" horiz-adv-x="921" 
d="M721 1186h-211l-184 321h282zM598 782q0 80 -80 80q-57 0 -85 -40t-48 -152l-47 -267q-14 -86 -14 -112q0 -80 77 -80q57 -1 85 39t49 153l47 267q16 88 16 112zM517 1096q187 0 273 -74t87 -229q0 -86 -21 -197l-39 -223q-39 -219 -132 -307t-281 -88t-273 73
q-86 74 -86 230q1 75 21 198l38 223q38 218 132 306t281 88z" />
    <glyph glyph-name="oacute" unicode="&#xf3;" horiz-adv-x="921" 
d="M430 1186l199 321h311l-297 -321h-213zM598 782q0 80 -80 80q-57 0 -85 -40t-48 -152l-47 -267q-14 -86 -14 -112q0 -80 77 -80q57 -1 85 39t49 153l47 267q16 88 16 112zM517 1096q187 0 273 -74t87 -229q0 -86 -21 -197l-39 -223q-39 -219 -132 -307t-281 -88t-273 73
q-86 74 -86 230q1 75 21 198l38 223q38 218 132 306t281 88z" />
    <glyph glyph-name="ocircumflex" unicode="&#xf4;" horiz-adv-x="921" 
d="M606 1348l-102 -158h-266l282 315h215l172 -315h-252zM598 782q0 80 -80 80q-57 0 -85 -40t-48 -152l-47 -267q-14 -86 -14 -112q0 -80 77 -80q57 -1 85 39t49 153l47 267q16 88 16 112zM517 1096q187 0 273 -74t87 -229q0 -86 -21 -197l-39 -223q-39 -219 -132 -307
t-281 -88t-273 73q-86 74 -86 230q1 75 21 198l38 223q38 218 132 306t281 88z" />
    <glyph glyph-name="otilde" unicode="&#xf5;" horiz-adv-x="921" 
d="M422 1194h-168q43 164 102 238q58 74 144 74t141 -62q51 -63 70 -64q41 0 65 111h168q-31 -166 -87 -239q-56 -72 -153 -72q-96 0 -142 62t-64 63q-49 0 -76 -111zM598 782q0 80 -80 80q-57 0 -85 -40t-48 -152l-47 -267q-14 -86 -14 -112q0 -80 77 -80q57 -1 85 39
t49 153l47 267q16 88 16 112zM517 1096q187 0 273 -74t87 -229q0 -86 -21 -197l-39 -223q-39 -219 -132 -307t-281 -88t-273 73q-86 74 -86 230q1 75 21 198l38 223q38 218 132 306t281 88z" />
    <glyph glyph-name="odieresis" unicode="&#xf6;" horiz-adv-x="921" 
d="M625 1192l47 270h254l-47 -270h-254zM274 1192l48 270h253l-47 -270h-254zM598 782q0 80 -80 80q-57 0 -85 -40t-48 -152l-47 -267q-14 -86 -14 -112q0 -80 77 -80q57 -1 85 39t49 153l47 267q16 88 16 112zM517 1096q187 0 273 -74t87 -229q0 -86 -21 -197l-39 -223
q-39 -219 -132 -307t-281 -88t-273 73q-86 74 -86 230q1 75 21 198l38 223q38 218 132 306t281 88z" />
    <glyph glyph-name="divide" unicode="&#xf7;" 
d="M379 961l41 237h254l-41 -237h-254zM254 252l41 237h254l-41 -237h-254zM59 616l39 222h770l-39 -222h-770z" />
    <glyph glyph-name="oslash" unicode="&#xf8;" horiz-adv-x="921" 
d="M518 862q-58 0 -85 -40q-28 -40 -46 -152l-27 -144l230 303q-14 33 -72 33zM410 211q50 0 78 40t49 152l20 125l-219 -292q22 -25 72 -25zM45 282q0 88 21 197l38 223q38 218 132 306t286 88q141 0 232 -47l51 65l129 -88l-76 -100q20 -56 20 -126t-22 -204l-39 -223
q-39 -217 -132 -306t-286 -90q-131 0 -223 43l-57 -73l-129 86l80 106q-25 55 -25 143z" />
    <glyph glyph-name="ugrave" unicode="&#xf9;" horiz-adv-x="901" 
d="M711 1186h-211l-185 321h283zM332 299q0 -76 63 -76q47 0 73 43t46 162l113 645h286l-188 -1073h-213l-6 86q-53 -63 -98 -86t-113 -23q-125 -1 -192 63t-67 166t25 238l111 629h287l-113 -641q-14 -86 -14 -133z" />
    <glyph glyph-name="uacute" unicode="&#xfa;" horiz-adv-x="901" 
d="M420 1186l198 321h312l-297 -321h-213zM332 299q0 -76 63 -76q47 0 73 43t46 162l113 645h286l-188 -1073h-213l-6 86q-53 -63 -98 -86t-113 -23q-125 -1 -192 63t-67 166t25 238l111 629h287l-113 -641q-14 -86 -14 -133z" />
    <glyph glyph-name="ucircumflex" unicode="&#xfb;" horiz-adv-x="901" 
d="M594 1348l-102 -158h-267l283 315h215l172 -315h-252zM332 299q0 -76 63 -76q47 0 73 43t46 162l113 645h286l-188 -1073h-213l-6 86q-53 -63 -98 -86t-113 -23q-125 -1 -192 63t-67 166t25 238l111 629h287l-113 -641q-14 -86 -14 -133z" />
    <glyph glyph-name="udieresis" unicode="&#xfc;" horiz-adv-x="901" 
d="M614 1192l48 270h253l-47 -270h-254zM264 1192l47 270h254l-47 -270h-254zM332 299q0 -76 63 -76q47 0 73 43t46 162l113 645h286l-188 -1073h-213l-6 86q-53 -63 -98 -86t-113 -23q-125 -1 -192 63t-67 166t25 238l111 629h287l-113 -641q-14 -86 -14 -133z" />
    <glyph glyph-name="yacute" unicode="&#xfd;" horiz-adv-x="843" 
d="M403 1186l199 321h311l-297 -321h-213zM178 2l-80 1071h287l4 -690l248 690h295l-477 -1139q-103 -256 -209 -330t-367 -75l41 238q111 -1 150 29t92 161z" />
    <glyph glyph-name="thorn" unicode="&#xfe;" horiz-adv-x="917" 
d="M588 772q0 78 -66 78q-102 0 -137 -201l-39 -225q-10 -66 -10 -102q0 -102 76 -103q48 0 74 46t46 159l50 274q6 37 6 74zM874 827q0 -88 -20 -204l-37 -213q-41 -223 -100 -310q-47 -66 -105 -94t-160 -29q-104 0 -178 41l-84 -479h-286l340 1923h286l-73 -418
q66 51 153 52q264 0 264 -269z" />
    <glyph glyph-name="ydieresis" unicode="&#xff;" horiz-adv-x="843" 
d="M571 1192l47 270h254l-47 -270h-254zM221 1192l47 270h254l-47 -270h-254zM178 2l-80 1071h287l4 -690l248 690h295l-477 -1139q-103 -256 -209 -330t-367 -75l41 238q111 -1 150 29t92 161z" />
    <glyph glyph-name="Amacron" unicode="&#x100;" horiz-adv-x="1005" 
d="M391 1624l37 211h569l-36 -211h-570zM621 518l-23 541l-213 -541h236zM631 279h-340l-109 -279h-327l675 1462h267l172 -1462h-326z" />
    <glyph glyph-name="amacron" unicode="&#x101;" horiz-adv-x="884" 
d="M260 1221l37 211h569l-37 -211h-569zM461 459q-92 0 -134 -42t-42 -138q0 -74 80 -74q57 0 84 33t40 122l17 99h-45zM479 862q-82 0 -100 -108h-266q31 180 121 261q91 81 264 81q340 0 340 -303q0 -88 -21 -199l-104 -594h-224l-6 59q-41 -47 -83 -64t-111 -18
q-141 0 -219 68t-78 188q0 219 104 328q90 90 310 90h135l18 131q0 44 -18 62t-62 18z" />
    <glyph glyph-name="Abreve" unicode="&#x102;" horiz-adv-x="1005" 
d="M592 1868q0 -99 117 -99q69 0 103 29t56 107h179q-13 -178 -95 -257t-254 -79q-289 0 -288 203q0 47 12 133h172q-2 -20 -2 -37zM621 518l-23 541l-213 -541h236zM631 279h-340l-109 -279h-327l675 1462h267l172 -1462h-326z" />
    <glyph glyph-name="abreve" unicode="&#x103;" horiz-adv-x="884" 
d="M471 1447q0 -33 28 -57q27 -24 93 -24t100 29t56 106h178q-14 -178 -96 -257t-252 -79q-289 0 -289 203q0 47 12 133h172q-2 -20 -2 -54zM461 459q-92 0 -134 -42t-42 -138q0 -74 80 -74q57 0 84 33t40 122l17 99h-45zM479 862q-82 0 -100 -108h-266q31 180 121 261
q91 81 264 81q340 0 340 -303q0 -88 -21 -199l-104 -594h-224l-6 59q-41 -47 -83 -64t-111 -18q-141 0 -219 68t-78 188q0 219 104 328q90 90 310 90h135l18 131q0 44 -18 62t-62 18z" />
    <glyph glyph-name="Aogonek" unicode="&#x104;" horiz-adv-x="1005" 
d="M621 518l-23 541l-213 -541h236zM807 -233q0 -47 51 -48q39 0 100 21l7 -139q-93 -41 -201 -41t-165 41q-56 41 -56 117t47 136t178 146h-125l-12 279h-340l-109 -279h-327l675 1462h267l172 -1462q-162 -147 -162 -233z" />
    <glyph glyph-name="aogonek" unicode="&#x105;" horiz-adv-x="884" 
d="M461 459q-92 0 -134 -42t-42 -138q0 -74 80 -74q57 0 84 33t40 122l17 99h-45zM479 862q-82 0 -100 -108h-266q31 180 121 261q91 81 264 81q340 0 340 -303q-1 -88 -21 -199l-104 -594q-162 -147 -162 -233q0 -47 51 -48q39 0 100 21l7 -139q-93 -41 -201 -41t-165 41
q-56 41 -56 117t48 136t177 146h-23l-6 59q-41 -47 -83 -64t-111 -18q-141 0 -219 68t-78 188q0 219 104 328q90 90 310 90h135l18 131q0 44 -18 62t-62 18z" />
    <glyph glyph-name="Cacute" unicode="&#x106;" horiz-adv-x="980" 
d="M545 1589l198 322h312l-297 -322h-213zM459 -23q-395 0 -396 342q0 96 27 244l78 438q27 156 57 232q31 76 88 131q117 117 315 117t300 -81q100 -81 100 -233q0 -61 -12 -135h-277l4 86q0 63 -24 92q-25 29 -91 29t-101 -61q-36 -61 -70 -252l-70 -394
q-25 -135 -25 -196q0 -117 113 -117q72 0 113 53q40 54 65 179h289q-37 -205 -117 -308q-127 -166 -366 -166z" />
    <glyph glyph-name="cacute" unicode="&#x107;" horiz-adv-x="827" 
d="M420 1186l198 321h312l-297 -321h-213zM385 -23q-338 0 -338 304q0 80 21 198l38 223q37 205 115 289q99 107 279 107t261 -84t81 -199q0 -12 -6 -86h-261q2 20 3 45q0 90 -72 90q-47 0 -73 -41t-44 -151l-49 -269q-14 -86 -14 -114q0 -78 69 -78q86 0 111 117h268
q-20 -186 -111 -268t-278 -83z" />
    <glyph glyph-name="Ccircumflex" unicode="&#x108;" horiz-adv-x="980" 
d="M711 1751l-103 -158h-266l283 316h215l172 -316h-252zM459 -23q-395 0 -396 342q0 96 27 244l78 438q27 156 57 232q31 76 88 131q117 117 315 117t300 -81q100 -81 100 -233q0 -61 -12 -135h-277l4 86q0 63 -24 92q-25 29 -91 29t-101 -61q-36 -61 -70 -252l-70 -394
q-25 -135 -25 -196q0 -117 113 -117q72 0 113 53q40 54 65 179h289q-37 -205 -117 -308q-127 -166 -366 -166z" />
    <glyph glyph-name="ccircumflex" unicode="&#x109;" horiz-adv-x="827" 
d="M575 1348l-102 -158h-266l282 315h216l172 -315h-252zM385 -23q-338 0 -338 304q0 80 21 198l38 223q37 205 115 289q99 107 279 107t261 -84t81 -199q0 -12 -6 -86h-261q2 20 3 45q0 90 -72 90q-47 0 -73 -41t-44 -151l-49 -269q-14 -86 -14 -114q0 -78 69 -78
q86 0 111 117h268q-20 -186 -111 -268t-278 -83z" />
    <glyph glyph-name="Cdotaccent" unicode="&#x10a;" horiz-adv-x="980" 
d="M539 1589l47 275h274l-47 -275h-274zM459 -23q-395 0 -396 342q0 96 27 244l78 438q27 156 57 232q31 76 88 131q117 117 315 117t300 -81q100 -81 100 -233q0 -61 -12 -135h-277l4 86q0 63 -24 92q-25 29 -91 29t-101 -61q-36 -61 -70 -252l-70 -394q-25 -135 -25 -196
q0 -117 113 -117q72 0 113 53q40 54 65 179h289q-37 -205 -117 -308q-127 -166 -366 -166z" />
    <glyph glyph-name="cdotaccent" unicode="&#x10b;" horiz-adv-x="827" 
d="M406 1188l47 274h274l-47 -274h-274zM385 -23q-338 0 -338 304q0 80 21 198l38 223q37 205 115 289q99 107 279 107t261 -84t81 -199q0 -12 -6 -86h-261q2 20 3 45q0 90 -72 90q-47 0 -73 -41t-44 -151l-49 -269q-14 -86 -14 -114q0 -78 69 -78q86 0 111 117h268
q-20 -186 -111 -268t-278 -83z" />
    <glyph glyph-name="Ccaron" unicode="&#x10c;" horiz-adv-x="980" 
d="M711 1745l104 158h264l-282 -318h-215l-172 318h254zM459 -23q-395 0 -396 342q0 96 27 244l78 438q27 156 57 232q31 76 88 131q117 117 315 117t300 -81q100 -81 100 -233q0 -61 -12 -135h-277l4 86q0 63 -24 92q-25 29 -91 29t-101 -61q-36 -61 -70 -252l-70 -394
q-25 -135 -25 -196q0 -117 113 -117q72 0 113 53q40 54 65 179h289q-37 -205 -117 -308q-127 -166 -366 -166z" />
    <glyph glyph-name="ccaron" unicode="&#x10d;" horiz-adv-x="827" 
d="M575 1341l105 158h264l-282 -317h-216l-172 317h254zM385 -23q-338 0 -338 304q0 80 21 198l38 223q37 205 115 289q99 107 279 107t261 -84t81 -199q0 -12 -6 -86h-261q2 20 3 45q0 90 -72 90q-47 0 -73 -41t-44 -151l-49 -269q-14 -86 -14 -114q0 -78 69 -78
q86 0 111 117h268q-20 -186 -111 -268t-278 -83z" />
    <glyph glyph-name="Dcaron" unicode="&#x10e;" horiz-adv-x="1060" 
d="M670 1745l104 158h264l-282 -318h-215l-172 318h254zM764 1120q0 100 -139 101h-93l-172 -979h93q113 4 149 50t68 220l78 438q16 106 16 170zM604 1462q262 0 361 -71q106 -82 106 -246q0 -72 -20 -195l-97 -544q-33 -225 -151 -318q-119 -92 -367 -88h-422l258 1462
h332z" />
    <glyph glyph-name="dcaron" unicode="&#x10f;" horiz-adv-x="1161" 
d="M956 913l166 586h264l-231 -586h-199zM336 301q0 -78 61 -78q98 0 133 201l39 225q10 57 11 101q0 104 -76 104q-45 0 -71 -36t-42 -120l-41 -239q-14 -80 -14 -158zM47 244q0 127 27 272l37 213q35 199 111 283q77 84 210 84t207 -56l74 422h286l-258 -1462h-219l-4 66
q-53 -52 -93 -70t-106 -19q-139 0 -205 70t-67 197z" />
    <glyph glyph-name="Dcroat" unicode="&#x110;" horiz-adv-x="1060" 
d="M764 1120q0 100 -139 101h-93l-63 -363h127l-43 -240h-127l-66 -376h93q113 4 149 50t68 220l78 438q16 106 16 170zM604 1462q262 0 361 -71q106 -82 106 -246q0 -72 -20 -195l-97 -544q-33 -225 -151 -318q-119 -92 -367 -88h-422l109 618h-107l43 240h107l106 604h332
z" />
    <glyph glyph-name="dcroat" unicode="&#x111;" horiz-adv-x="917" 
d="M336 301q0 -78 61 -78q98 0 133 201l39 225q10 57 11 101q0 104 -76 104q-45 0 -71 -36t-42 -120l-41 -239q-14 -80 -14 -158zM47 244q0 127 27 272l37 213q35 199 111 283q77 84 210 84t207 -56l20 117h-223l35 201h223l19 104h286l-18 -104h109l-35 -201h-109
l-205 -1157h-219l-4 66q-53 -52 -93 -70t-106 -19q-139 0 -205 70t-67 197z" />
    <glyph glyph-name="Emacron" unicode="&#x112;" horiz-adv-x="915" 
d="M379 1624l37 211h569l-37 -211h-569zM16 0l258 1462h746l-43 -252h-442l-64 -350h373l-43 -252h-373l-66 -356h455l-43 -252h-758z" />
    <glyph glyph-name="emacron" unicode="&#x113;" horiz-adv-x="915" 
d="M274 1221l37 211h570l-37 -211h-570zM610 786q0 82 -90 82q-57 0 -84 -36t-45 -138l-6 -26h211q14 70 14 118zM330 289q0 -78 80 -78q50 0 76 28t40 89h267q-19 -186 -111 -268t-278 -83q-186 0 -269 79q-84 79 -84 243q0 86 23 215l22 141q41 244 137 342q97 99 283 99
t271 -78t85 -242q0 -115 -36 -319h-486l-12 -58q-8 -45 -8 -110z" />
    <glyph glyph-name="Ebreve" unicode="&#x114;" horiz-adv-x="915" 
d="M557 1868q0 -99 117 -99q70 0 104 29t56 107h178q-14 -178 -96 -257t-252 -79q-289 0 -289 203q0 47 12 133h172q-2 -20 -2 -37zM16 0l258 1462h746l-43 -252h-442l-64 -350h373l-43 -252h-373l-66 -356h455l-43 -252h-758z" />
    <glyph glyph-name="ebreve" unicode="&#x115;" horiz-adv-x="915" 
d="M471 1447q0 -33 28 -57q27 -24 93 -24t100 29t56 106h178q-14 -178 -96 -257t-252 -79q-289 0 -289 203q0 47 12 133h172q-2 -20 -2 -54zM610 786q0 82 -90 82q-57 0 -84 -36t-45 -138l-6 -26h211q14 70 14 118zM330 289q0 -78 80 -78q50 0 76 28t40 89h267
q-19 -186 -111 -268t-278 -83q-186 0 -269 79q-84 79 -84 243q0 86 23 215l22 141q41 244 137 342q97 99 283 99t271 -78t85 -242q0 -115 -36 -319h-486l-12 -58q-8 -45 -8 -110z" />
    <glyph glyph-name="Edotaccent" unicode="&#x116;" horiz-adv-x="915" 
d="M535 1589l47 275h274l-47 -275h-274zM16 0l258 1462h746l-43 -252h-442l-64 -350h373l-43 -252h-373l-66 -356h455l-43 -252h-758z" />
    <glyph glyph-name="edotaccent" unicode="&#x117;" horiz-adv-x="915" 
d="M428 1188l47 274h275l-48 -274h-274zM610 786q0 82 -90 82q-57 0 -84 -36t-45 -138l-6 -26h211q14 70 14 118zM330 289q0 -78 80 -78q50 0 76 28t40 89h267q-19 -186 -111 -268t-278 -83q-186 0 -269 79q-84 79 -84 243q0 86 23 215l22 141q41 244 137 342q97 99 283 99
t271 -78t85 -242q0 -115 -36 -319h-486l-12 -58q-8 -45 -8 -110z" />
    <glyph glyph-name="Eogonek" unicode="&#x118;" horiz-adv-x="915" 
d="M612 -233q0 -47 52 -48q39 0 100 21l6 -139q-92 -41 -200 -41t-166 41q-56 41 -56 117t48 136t177 146h-557l258 1462h746l-43 -252h-442l-64 -350h373l-43 -252h-373l-66 -356h455l-43 -252q-162 -147 -162 -233z" />
    <glyph glyph-name="eogonek" unicode="&#x119;" horiz-adv-x="915" 
d="M610 786q0 82 -90 82q-57 0 -84 -36t-45 -138l-6 -26h211q14 70 14 118zM396 -440q-222 0 -222 159q0 104 90 195q12 14 78 66q-150 12 -220 90t-71 229q0 86 23 215l22 141q41 244 137 342q97 99 283 99t271 -78t85 -242q0 -115 -36 -319h-486l-12 -58q-8 -45 -8 -110
q0 -78 80 -78q50 0 76 28t40 89h267q-25 -260 -209 -324q-145 -145 -146 -237q0 -47 51 -48q39 0 103 21l4 -139q-90 -41 -200 -41z" />
    <glyph glyph-name="Ecaron" unicode="&#x11a;" horiz-adv-x="915" 
d="M692 1745l105 158h264l-283 -318h-215l-172 318h254zM16 0l258 1462h746l-43 -252h-442l-64 -350h373l-43 -252h-373l-66 -356h455l-43 -252h-758z" />
    <glyph glyph-name="ecaron" unicode="&#x11b;" horiz-adv-x="915" 
d="M586 1341l104 158h264l-282 -317h-215l-172 317h254zM610 786q0 82 -90 82q-57 0 -84 -36t-45 -138l-6 -26h211q14 70 14 118zM330 289q0 -78 80 -78q50 0 76 28t40 89h267q-19 -186 -111 -268t-278 -83q-186 0 -269 79q-84 79 -84 243q0 86 23 215l22 141
q41 244 137 342q97 99 283 99t271 -78t85 -242q0 -115 -36 -319h-486l-12 -58q-8 -45 -8 -110z" />
    <glyph glyph-name="Gcircumflex" unicode="&#x11c;" horiz-adv-x="1040" 
d="M719 1751l-103 -158h-266l283 316h215l172 -316h-252zM63 324q0 88 27 239l76 438q29 154 60 231q32 77 91 132q123 117 325 117t304 -81q100 -81 101 -233q0 -61 -13 -135h-276q4 82 4 86q0 63 -25 92t-80 29q-88 0 -128 -63t-72 -250l-70 -394q-25 -139 -25 -188
q0 -125 117 -125q82 -1 124 59t69 220l14 86h-139l41 231h438l-53 -305q-27 -160 -53 -237q-102 -296 -449 -296q-408 0 -408 347z" />
    <glyph glyph-name="gcircumflex" unicode="&#x11d;" horiz-adv-x="917" 
d="M614 1348l-102 -158h-266l282 315h215l172 -315h-251zM334 307q0 -84 63 -84q51 0 83 47t50 154l41 225q10 59 11 101q0 104 -76 104q-47 0 -73 -36t-40 -120l-47 -264q-12 -74 -12 -127zM319 -23q-141 0 -207 69t-67 214q0 90 29 256l37 213q35 199 111 283
q77 84 221 84t229 -97l41 74h219l-197 -1118q-43 -229 -125 -320q-111 -119 -311 -118q-153 0 -233 58t-80 167q0 47 10 111h254q-2 -20 -2 -49q0 -60 65 -60q55 0 85 47t53 174l8 53q-55 -41 -140 -41z" />
    <glyph glyph-name="Gbreve" unicode="&#x11e;" horiz-adv-x="1040" 
d="M592 1868q0 -99 117 -99q69 0 103 29t56 107h179q-13 -178 -95 -257t-254 -79q-289 0 -288 203q0 47 12 133h172q-2 -20 -2 -37zM63 324q0 88 27 239l76 438q29 154 60 231q32 77 91 132q123 117 325 117t304 -81q100 -81 101 -233q0 -61 -13 -135h-276q4 82 4 86
q0 63 -25 92t-80 29q-88 0 -128 -63t-72 -250l-70 -394q-25 -139 -25 -188q0 -125 117 -125q82 -1 124 59t69 220l14 86h-139l41 231h438l-53 -305q-27 -160 -53 -237q-102 -296 -449 -296q-408 0 -408 347z" />
    <glyph glyph-name="gbreve" unicode="&#x11f;" horiz-adv-x="917" 
d="M487 1447q0 -33 28 -57q27 -24 93 -24t100 29t56 106h178q-14 -178 -95 -257t-253 -79q-289 0 -289 203q0 47 12 133h172q-2 -20 -2 -54zM334 307q0 -84 63 -84q51 0 83 47t50 154l41 225q10 59 11 101q0 104 -76 104q-47 0 -73 -36t-40 -120l-47 -264q-12 -74 -12 -127z
M319 -23q-141 0 -207 69t-67 214q0 90 29 256l37 213q35 199 111 283q77 84 221 84t229 -97l41 74h219l-197 -1118q-43 -229 -125 -320q-111 -119 -311 -118q-153 0 -233 58t-80 167q0 47 10 111h254q-2 -20 -2 -49q0 -60 65 -60q55 0 85 47t53 174l8 53q-55 -41 -140 -41z
" />
    <glyph glyph-name="Gdotaccent" unicode="&#x120;" horiz-adv-x="1040" 
d="M555 1589l47 275h275l-48 -275h-274zM63 324q0 88 27 239l76 438q29 154 60 231q32 77 91 132q123 117 325 117t304 -81q100 -81 101 -233q0 -61 -13 -135h-276q4 82 4 86q0 63 -25 92t-80 29q-88 0 -128 -63t-72 -250l-70 -394q-25 -139 -25 -188q0 -125 117 -125
q82 -1 124 59t69 220l14 86h-139l41 231h438l-53 -305q-27 -160 -53 -237q-102 -296 -449 -296q-408 0 -408 347z" />
    <glyph glyph-name="gdotaccent" unicode="&#x121;" horiz-adv-x="917" 
d="M449 1188l47 274h274l-47 -274h-274zM334 307q0 -84 63 -84q51 0 83 47t50 154l41 225q10 59 11 101q0 104 -76 104q-47 0 -73 -36t-40 -120l-47 -264q-12 -74 -12 -127zM319 -23q-141 0 -207 69t-67 214q0 90 29 256l37 213q35 199 111 283q77 84 221 84t229 -97l41 74
h219l-197 -1118q-43 -229 -125 -320q-111 -119 -311 -118q-153 0 -233 58t-80 167q0 47 10 111h254q-2 -20 -2 -49q0 -60 65 -60q55 0 85 47t53 174l8 53q-55 -41 -140 -41z" />
    <glyph glyph-name="Gcommaaccent" unicode="&#x122;" horiz-adv-x="1040" 
d="M178 -494l139 367h265l-213 -367h-191zM63 324q0 88 27 239l76 438q29 154 60 231q32 77 91 132q123 117 325 117t304 -81q100 -81 101 -233q0 -61 -13 -135h-276q4 82 4 86q0 63 -25 92t-80 29q-88 0 -128 -63t-72 -250l-70 -394q-25 -139 -25 -188q0 -125 117 -125
q82 -1 124 59t69 220l14 86h-139l41 231h438l-53 -305q-27 -160 -53 -237q-102 -296 -449 -296q-408 0 -408 347z" />
    <glyph glyph-name="gcommaaccent" unicode="&#x123;" horiz-adv-x="917" 
d="M436 1186l297 321h213l-198 -321h-312zM334 307q0 -84 63 -84q51 0 83 47t50 154l41 225q10 59 11 101q0 104 -76 104q-47 0 -73 -36t-40 -120l-47 -264q-12 -74 -12 -127zM319 -23q-141 0 -207 69t-67 214q0 90 29 256l37 213q35 199 111 283q77 84 221 84t229 -97
l41 74h219l-197 -1118q-43 -229 -125 -320q-111 -119 -311 -118q-153 0 -233 58t-80 167q0 47 10 111h254q-2 -20 -2 -49q0 -60 65 -60q55 0 85 47t53 174l8 53q-55 -41 -140 -41z" />
    <glyph glyph-name="Hcircumflex" unicode="&#x124;" horiz-adv-x="1081" 
d="M760 1751l-103 -158h-266l283 316h215l172 -316h-252zM14 0l258 1462h303l-106 -602h258l107 602h303l-258 -1462h-304l109 608h-258l-109 -608h-303z" />
    <glyph glyph-name="hcircumflex" unicode="&#x125;" horiz-adv-x="923" 
d="M485 1751l-102 -158h-266l282 316h215l172 -316h-251zM625 1096q262 0 262 -250q0 -80 -25 -215l-110 -631h-287l113 643q16 90 16 117q0 90 -74 90q-55 0 -83 -43t-48 -162l-115 -645h-286l258 1462h286l-73 -415q63 49 166 49z" />
    <glyph glyph-name="Hbar" unicode="&#x126;" horiz-adv-x="1081" 
d="M469 860h258l27 156h-258zM14 0l179 1016h-134l39 211h133l41 235h303l-40 -235h258l41 235h303l-41 -235h133l-39 -211h-133l-178 -1016h-304l109 608h-258l-109 -608h-303z" />
    <glyph glyph-name="hbar" unicode="&#x127;" horiz-adv-x="923" 
d="M625 1096q262 0 262 -250q0 -80 -25 -215l-110 -631h-287l113 643q16 90 16 117q0 90 -74 90q-55 0 -83 -43t-48 -162l-115 -645h-286l205 1157h-109l35 201h108l19 104h286l-18 -104h225l-34 -201h-226l-20 -110q63 49 166 49z" />
    <glyph glyph-name="Itilde" unicode="&#x128;" horiz-adv-x="520" 
d="M374 1909q86 0 142 -62q51 -63 70 -63q41 0 65 110h168q-33 -168 -88 -240t-152 -71q-97 0 -147 70q-41 55 -59 55q-49 0 -76 -111h-168q41 164 100 238t145 74zM14 0l258 1462h303l-258 -1462h-303z" />
    <glyph glyph-name="itilde" unicode="&#x129;" horiz-adv-x="462" 
d="M197 1194h-168q43 164 102 238t145 74t140 -62q51 -63 69 -64q41 0 66 111h168q-31 -166 -87 -239q-56 -72 -154 -72t-146 69q-41 55 -60 56q-48 0 -75 -111zM-6 0l188 1073h287l-188 -1073h-287z" />
    <glyph glyph-name="Imacron" unicode="&#x12a;" horiz-adv-x="520" 
d="M168 1624l37 211h569l-37 -211h-569zM14 0l258 1462h303l-258 -1462h-303z" />
    <glyph glyph-name="imacron" unicode="&#x12b;" horiz-adv-x="462" 
d="M66 1221l36 211h570l-37 -211h-569zM-6 0l188 1073h287l-188 -1073h-287z" />
    <glyph glyph-name="Ibreve" unicode="&#x12c;" horiz-adv-x="520" 
d="M358 1868q0 -99 117 -99q70 0 104 29t56 107h178q-14 -178 -95 -257t-253 -79q-289 0 -289 203q0 47 12 133h172q-2 -20 -2 -37zM14 0l258 1462h303l-258 -1462h-303z" />
    <glyph glyph-name="ibreve" unicode="&#x12d;" horiz-adv-x="462" 
d="M256 1447q0 -33 28 -57t94 -24t98 29q34 29 56 106h179q-13 -178 -95 -257t-254 -79q-289 0 -288 203q0 47 12 133h172q-2 -20 -2 -54zM-6 0l188 1073h287l-188 -1073h-287z" />
    <glyph glyph-name="Iogonek" unicode="&#x12e;" horiz-adv-x="520" 
d="M113 -440q-108 0 -165 41q-56 41 -56 117t46 136q48 60 179 146h-103l258 1462h303l-258 -1462q-162 -147 -161 -233q0 -47 51 -48q39 0 100 21l6 -139q-92 -41 -200 -41z" />
    <glyph glyph-name="iogonek" unicode="&#x12f;" horiz-adv-x="462" 
d="M205 1190l49 285h287l-49 -285h-287zM119 -233q0 -47 51 -48q39 0 100 21l6 -139q-92 -41 -200 -41t-165 41q-56 41 -56 117t47 136t178 146h-86l190 1073h287l-190 -1073q-162 -147 -162 -233z" />
    <glyph glyph-name="Idotaccent" unicode="&#x130;" horiz-adv-x="520" 
d="M309 1589l47 275h275l-47 -275h-275zM14 0l258 1462h303l-258 -1462h-303z" />
    <glyph glyph-name="dotlessi" unicode="&#x131;" horiz-adv-x="462" 
d="M-6 0l188 1073h287l-188 -1073h-287z" />
    <glyph glyph-name="IJ" unicode="&#x132;" horiz-adv-x="1040" 
d="M420 -502q-102 0 -227 37l149 225q31 -18 59 -18q53 0 80 56t60 237l252 1427h303l-258 -1464q-29 -160 -48 -230t-53 -116q-98 -154 -317 -154zM14 0l258 1462h303l-258 -1462h-303z" />
    <glyph glyph-name="ij" unicode="&#x133;" horiz-adv-x="935" 
d="M655 1073h287l-188 -1075q-48 -297 -152 -386t-399 -83l43 238q102 -4 150 50t75 206zM676 1190l51 285h287l-51 -285h-287zM-6 0l188 1073h287l-188 -1073h-287zM205 1190l49 285h287l-49 -285h-287z" />
    <glyph glyph-name="Jcircumflex" unicode="&#x134;" horiz-adv-x="757" 
d="M666 1751l-103 -158h-266l283 316h215l172 -316h-252zM233 -23q-125 0 -207 33t-163 115l207 194q76 -100 135 -100t85 57t58 238l168 948h303l-176 -997q-33 -189 -46 -237t-48 -101q-92 -150 -316 -150z" />
    <glyph glyph-name="jcircumflex" unicode="&#x135;" horiz-adv-x="473" 
d="M385 1348l-102 -158h-267l283 315h215l172 -315h-252zM193 1073h286l-190 -1075q-47 -299 -151 -387t-398 -82l41 238q104 -4 152 50t73 206z" />
    <glyph glyph-name="Kcommaaccent" unicode="&#x136;" horiz-adv-x="976" 
d="M188 -494l140 367h264l-213 -367h-191zM18 0l258 1462h304l-86 -485l370 485h326l-485 -600l233 -862h-317l-146 651l-53 -82l-100 -569h-304z" />
    <glyph glyph-name="kcommaaccent" unicode="&#x137;" horiz-adv-x="880" 
d="M98 -494l140 367h264l-213 -367h-191zM-2 0l258 1462h287l-135 -768l309 379h301l-385 -444l194 -629h-301l-108 424l-72 -80l-61 -344h-287z" />
    <glyph glyph-name="kgreenlandic" unicode="&#x138;" horiz-adv-x="880" 
d="M-2 0l188 1073h287l-65 -379l309 379h301l-385 -444l194 -629h-301l-108 424l-72 -80l-61 -344h-287z" />
    <glyph glyph-name="Lacute" unicode="&#x139;" horiz-adv-x="876" 
d="M342 1589l199 322h311l-297 -322h-213zM14 0l258 1462h303l-215 -1210h451l-43 -252h-754z" />
    <glyph glyph-name="lacute" unicode="&#x13a;" horiz-adv-x="524" 
d="M303 1589l199 322h311l-297 -322h-213zM352 346q0 -58 29 -84q29 -25 92 -24h16l-43 -238h-26q-205 0 -284 57t-79 203q0 98 31 275l164 927h287l-179 -1009q-8 -49 -8 -107z" />
    <glyph glyph-name="Lcommaaccent" unicode="&#x13b;" horiz-adv-x="876" 
d="M123 -494l139 367h264l-213 -367h-190zM14 0l258 1462h303l-215 -1210h451l-43 -252h-754z" />
    <glyph glyph-name="lcommaaccent" unicode="&#x13c;" horiz-adv-x="524" 
d="M-80 -494l139 367h265l-213 -367h-191zM352 350q0 -62 29 -88q29 -25 92 -24h14l-41 -238h-26q-205 0 -284 57t-79 203q0 94 31 275l164 927h287l-179 -1009q-8 -41 -8 -103z" />
    <glyph glyph-name="Lcaron" unicode="&#x13d;" horiz-adv-x="876" 
d="M604 913l166 586h264l-231 -586h-199zM14 0l258 1462h303l-215 -1210h451l-43 -252h-754z" />
    <glyph glyph-name="lcaron" unicode="&#x13e;" horiz-adv-x="751" 
d="M547 913l166 586h264l-232 -586h-198zM352 346q0 -58 29 -84q29 -25 92 -24h16l-43 -238h-26q-205 0 -284 57t-79 203q0 98 31 275l164 927h287l-179 -1009q-8 -49 -8 -107z" />
    <glyph glyph-name="Ldot" unicode="&#x13f;" horiz-adv-x="876" 
d="M573 582l52 282h245l-51 -282h-246zM14 0l258 1462h303l-215 -1210h451l-43 -252h-754z" />
    <glyph glyph-name="ldot" unicode="&#x140;" horiz-adv-x="704" 
d="M473 582l51 282h246l-51 -282h-246zM352 346q0 -58 29 -84q29 -25 92 -24h16l-43 -238h-26q-205 0 -284 57t-79 203q0 98 31 275l164 927h287l-179 -1009q-8 -49 -8 -107z" />
    <glyph glyph-name="Lslash" unicode="&#x141;" horiz-adv-x="876" 
d="M14 0l64 367l-111 -70l45 260l113 70l147 835h303l-110 -622l291 184l-47 -262l-289 -182l-60 -328h451l-43 -252h-754z" />
    <glyph glyph-name="lslash" unicode="&#x142;" horiz-adv-x="579" 
d="M381 346q0 -58 29 -84q29 -25 92 -24h16l-43 -238h-26q-203 0 -283 56t-80 200q0 53 20 213l-147 -90l49 272l146 90l127 721h286l-92 -522l199 121l-49 -275l-197 -120l-39 -213q-8 -49 -8 -107z" />
    <glyph glyph-name="Nacute" unicode="&#x143;" horiz-adv-x="1126" 
d="M637 1589l199 322h311l-297 -322h-213zM14 0l258 1462h303l173 -858l151 858h283l-258 -1462h-287l-186 874l-154 -874h-283z" />
    <glyph glyph-name="nacute" unicode="&#x144;" horiz-adv-x="923" 
d="M432 1186l199 321h311l-297 -321h-213zM627 1096q127 0 193 -65t67 -185q0 -80 -25 -217l-110 -629h-287l113 641q16 92 16 121q0 88 -74 88q-55 0 -83 -43t-48 -162l-115 -645h-286l188 1073h213l6 -86q57 61 107 85t125 24z" />
    <glyph glyph-name="Ncommaaccent" unicode="&#x145;" horiz-adv-x="1126" 
d="M221 -494l139 367h265l-213 -367h-191zM14 0l258 1462h303l173 -858l151 858h283l-258 -1462h-287l-186 874l-154 -874h-283z" />
    <glyph glyph-name="ncommaaccent" unicode="&#x146;" horiz-adv-x="923" 
d="M121 -494l139 367h264l-213 -367h-190zM627 1096q127 0 193 -65t67 -185q0 -80 -25 -217l-110 -629h-287l113 641q16 92 16 121q0 88 -74 88q-55 0 -83 -43t-48 -162l-115 -645h-286l188 1073h213l6 -86q57 61 107 85t125 24z" />
    <glyph glyph-name="Ncaron" unicode="&#x147;" horiz-adv-x="1126" 
d="M776 1745l105 158h264l-283 -318h-215l-172 318h254zM14 0l258 1462h303l173 -858l151 858h283l-258 -1462h-287l-186 874l-154 -874h-283z" />
    <glyph glyph-name="ncaron" unicode="&#x148;" horiz-adv-x="923" 
d="M578 1341l104 158h264l-282 -317h-215l-173 317h254zM627 1096q127 0 193 -65t67 -185q0 -80 -25 -217l-110 -629h-287l113 641q16 92 16 121q0 88 -74 88q-55 0 -83 -43t-48 -162l-115 -645h-286l188 1073h213l6 -86q57 61 107 85t125 24z" />
    <glyph glyph-name="napostrophe" unicode="&#x149;" horiz-adv-x="1132" 
d="M33 920l143 542h307l-196 -542h-254zM836 1096q128 0 194 -65t66 -185q0 -80 -25 -217l-110 -629h-287l112 641q16 92 17 121q0 88 -74 88q-55 0 -83 -43t-48 -162l-115 -645h-286l188 1073h213l6 -86q56 61 106 85t126 24z" />
    <glyph glyph-name="Eng" unicode="&#x14a;" horiz-adv-x="1126" 
d="M14 0l258 1462h303l173 -858l151 858h283l-256 -1446q-47 -291 -158 -390t-383 -97l41 225q88 -6 134 44t77 202l-186 874l-154 -874h-283z" />
    <glyph glyph-name="eng" unicode="&#x14b;" horiz-adv-x="923" 
d="M627 1096q127 0 193 -65t67 -185q0 -80 -25 -217l-102 -578q-51 -315 -163 -421t-396 -101l43 238q100 -4 150 52t75 204l109 618q16 92 16 121q0 88 -74 88q-55 0 -83 -43t-48 -162l-115 -645h-286l188 1073h213l6 -86q57 61 107 85t125 24z" />
    <glyph glyph-name="Omacron" unicode="&#x14c;" horiz-adv-x="1062" 
d="M418 1624l37 211h569l-37 -211h-569zM358 330q0 -111 121 -111q100 0 142 88q22 45 49 195l80 459q23 133 22 172q0 111 -119 110q-100 0 -145 -88q-20 -39 -47 -194l-80 -459q-23 -115 -23 -172zM1071 1145q0 -72 -22 -213l-91 -508q-24 -129 -50 -197
q-97 -250 -437 -250q-215 0 -313 82t-99 258q0 82 23 213l90 508q23 131 48 198q26 66 81 128q108 120 341 121q233 0 331 -82t98 -258z" />
    <glyph glyph-name="omacron" unicode="&#x14d;" horiz-adv-x="921" 
d="M289 1221l37 211h569l-37 -211h-569zM598 782q0 80 -80 80q-57 0 -85 -40t-48 -152l-47 -267q-14 -86 -14 -112q0 -80 77 -80q57 -1 85 39t49 153l47 267q16 88 16 112zM517 1096q187 0 273 -74t87 -229q0 -86 -21 -197l-39 -223q-39 -219 -132 -307t-281 -88t-273 73
q-86 74 -86 230q1 75 21 198l38 223q38 218 132 306t281 88z" />
    <glyph glyph-name="Obreve" unicode="&#x14e;" horiz-adv-x="1062" 
d="M629 1851q-1 -34 27 -58t94 -24t99 29q34 29 56 107h178q-14 -178 -95 -257t-253 -79q-289 0 -289 203q1 47 13 133h172q-2 -20 -2 -54zM358 330q0 -111 121 -111q100 0 142 88q22 45 49 195l80 459q23 133 22 172q0 111 -119 110q-100 0 -145 -88q-20 -39 -47 -194
l-80 -459q-23 -115 -23 -172zM1071 1145q0 -72 -22 -213l-91 -508q-24 -129 -50 -197q-97 -250 -437 -250q-215 0 -313 82t-99 258q0 82 23 213l90 508q23 131 48 198q26 66 81 128q108 120 341 121q233 0 331 -82t98 -258z" />
    <glyph glyph-name="obreve" unicode="&#x14f;" horiz-adv-x="921" 
d="M487 1447q0 -33 28 -57q27 -24 93 -24t100 29t56 106h178q-14 -178 -95 -257t-253 -79q-289 0 -289 203q0 47 12 133h172q-2 -20 -2 -54zM598 782q0 80 -80 80q-57 0 -85 -40t-48 -152l-47 -267q-14 -86 -14 -112q0 -80 77 -80q57 -1 85 39t49 153l47 267q16 88 16 112z
M517 1096q187 0 273 -74t87 -229q0 -86 -21 -197l-39 -223q-39 -219 -132 -307t-281 -88t-273 73q-86 74 -86 230q1 75 21 198l38 223q38 218 132 306t281 88z" />
    <glyph glyph-name="Ohungarumlaut" unicode="&#x150;" horiz-adv-x="1062" 
d="M752 1589l168 322h282l-254 -322h-196zM434 1589l168 322h283l-254 -322h-197zM358 330q0 -111 121 -111q100 0 142 88q22 45 49 195l80 459q23 133 22 172q0 111 -119 110q-100 0 -145 -88q-20 -39 -47 -194l-80 -459q-23 -115 -23 -172zM1071 1145q0 -72 -22 -213
l-91 -508q-24 -129 -50 -197q-97 -250 -437 -250q-215 0 -313 82t-99 258q0 82 23 213l90 508q23 131 48 198q26 66 81 128q108 120 341 121q233 0 331 -82t98 -258z" />
    <glyph glyph-name="ohungarumlaut" unicode="&#x151;" horiz-adv-x="921" 
d="M610 1186l168 321h283l-254 -321h-197zM293 1186l168 321h282l-254 -321h-196zM598 782q0 80 -80 80q-57 0 -85 -40t-48 -152l-47 -267q-14 -86 -14 -112q0 -80 77 -80q57 -1 85 39t49 153l47 267q16 88 16 112zM517 1096q187 0 273 -74t87 -229q0 -86 -21 -197l-39 -223
q-39 -219 -132 -307t-281 -88t-273 73q-86 74 -86 230q1 75 21 198l38 223q38 218 132 306t281 88z" />
    <glyph glyph-name="OE" unicode="&#x152;" horiz-adv-x="1480" 
d="M360 332q0 -106 119 -107q88 -1 128 55t69 220l80 458q20 109 20 170q0 109 -117 109q-88 0 -128 -55q-39 -56 -68 -224l-80 -458q-23 -121 -23 -168zM418 -23q-356 0 -357 334q0 78 25 217l90 508q37 219 119 320q106 129 312 129t284 -70l8 47h690l-43 -252h-444
l-62 -350h375l-45 -252h-375l-63 -356h454l-45 -252h-700l8 47q-76 -70 -231 -70z" />
    <glyph glyph-name="oe" unicode="&#x153;" horiz-adv-x="1398" 
d="M1001 868q-57 0 -83 -36t-46 -138l-4 -26h211q14 72 15 118q0 82 -93 82zM592 784q0 78 -78 78q-57 0 -84 -40t-47 -152l-47 -271q-14 -82 -14 -106q0 -82 77 -82q57 0 86 41t47 147l48 271q12 70 12 114zM509 1096q190 0 277 -90q92 90 248 90q324 0 324 -310
q0 -109 -43 -329h-486l-10 -58q-12 -74 -12 -110q0 -78 82 -78q92 0 119 117h266q-23 -188 -108 -270q-84 -82 -272 -81q-188 0 -271 91q-90 -90 -255 -90t-245 72q-80 73 -80 224q0 88 20 199l39 227q39 220 128 308t279 88z" />
    <glyph glyph-name="Racute" unicode="&#x154;" horiz-adv-x="1019" 
d="M551 1589l199 322h311l-297 -322h-213zM541 819q102 0 141 58q61 84 61 225q1 70 -25 94t-100 25h-92l-69 -402h84zM633 1462q225 0 317 -67q106 -80 107 -254q0 -115 -31 -234t-76 -178q-59 -80 -172 -119l135 -610h-335l-99 588h-55l-105 -588h-303l258 1462h359z" />
    <glyph glyph-name="racute" unicode="&#x155;" horiz-adv-x="665" 
d="M350 1186l199 321h311l-297 -321h-213zM628 1096q76 0 156 -70l-166 -240q-53 68 -103 68t-84 -75t-66 -263l-91 -516h-286l188 1073h217l23 -86q45 59 90 84q46 25 122 25z" />
    <glyph glyph-name="Rcommaaccent" unicode="&#x156;" horiz-adv-x="1019" 
d="M182 -494l140 367h264l-213 -367h-191zM541 819q102 0 141 58q61 84 61 225q1 70 -25 94t-100 25h-92l-69 -402h84zM633 1462q225 0 317 -67q106 -80 107 -254q0 -115 -31 -234t-76 -178q-59 -80 -172 -119l135 -610h-335l-99 588h-55l-105 -588h-303l258 1462h359z" />
    <glyph glyph-name="rcommaaccent" unicode="&#x157;" horiz-adv-x="665" 
d="M-152 -494l140 367h264l-213 -367h-191zM628 1096q76 0 156 -70l-166 -240q-53 68 -103 68t-83 -75t-65 -263l-93 -516h-286l190 1073h217l23 -86q47 59 90 84q44 25 120 25z" />
    <glyph glyph-name="Rcaron" unicode="&#x158;" horiz-adv-x="1019" 
d="M670 1745l104 158h264l-282 -318h-215l-172 318h254zM541 819q102 0 141 58q61 84 61 225q1 70 -25 94t-100 25h-92l-69 -402h84zM633 1462q225 0 317 -67q106 -80 107 -254q0 -115 -31 -234t-76 -178q-59 -80 -172 -119l135 -610h-335l-99 588h-55l-105 -588h-303
l258 1462h359z" />
    <glyph glyph-name="rcaron" unicode="&#x159;" horiz-adv-x="665" 
d="M489 1341l105 158h264l-283 -317h-215l-172 317h254zM628 1096q76 0 156 -70l-166 -240q-53 68 -103 68t-84 -75t-66 -263l-91 -516h-286l188 1073h217l23 -86q45 59 90 84q46 25 122 25z" />
    <glyph glyph-name="Sacute" unicode="&#x15a;" horiz-adv-x="929" 
d="M506 1589l199 322h311l-297 -322h-213zM285 340q0 -121 118 -121q102 0 146 94q31 77 31 139t-26 90t-89 50q-182 59 -257 145t-75 236q0 203 107 355t325 153q183 0 283 -91t100 -257q0 -53 -12 -101h-277q4 51 5 96q0 111 -91 111q-76 0 -110 -84q-31 -72 -31 -135
t33 -95t123 -65q164 -61 227 -138t63 -198t-29 -223q-95 -324 -456 -324q-185 1 -289 89t-104 247q0 52 14 138h279q-8 -55 -8 -111z" />
    <glyph glyph-name="sacute" unicode="&#x15b;" horiz-adv-x="819" 
d="M379 1186l199 321h311l-297 -321h-213zM338 -23q-360 0 -361 275q1 37 11 76h266q-6 -33 -6 -45q0 -72 106 -72q133 0 133 123q0 33 -15 49t-56 29q-158 47 -217 84q-109 70 -109 238t95 265t265 97t259 -70q90 -70 90 -197q0 -31 -8 -63h-265q2 10 2 22q0 74 -71 74
q-43 0 -70 -32t-27 -76t22 -62t116 -45t157 -65q102 -61 103 -213q0 -392 -420 -392z" />
    <glyph glyph-name="Scircumflex" unicode="&#x15c;" horiz-adv-x="929" 
d="M651 1751l-102 -158h-266l282 316h215l172 -316h-252zM285 340q0 -121 118 -121q102 0 146 94q31 77 31 139t-26 90t-89 50q-182 59 -257 145t-75 236q0 203 107 355t325 153q183 0 283 -91t100 -257q0 -53 -12 -101h-277q4 51 5 96q0 111 -91 111q-76 0 -110 -84
q-31 -72 -31 -135t33 -95t123 -65q164 -61 227 -138t63 -198t-29 -223q-95 -324 -456 -324q-185 1 -289 89t-104 247q0 52 14 138h279q-8 -55 -8 -111z" />
    <glyph glyph-name="scircumflex" unicode="&#x15d;" horiz-adv-x="819" 
d="M545 1348l-103 -158h-266l283 315h215l172 -315h-252zM338 -23q-360 0 -361 275q1 37 11 76h266q-6 -33 -6 -45q0 -72 106 -72q133 0 133 123q0 33 -15 49t-56 29q-158 47 -217 84q-109 70 -109 238t95 265t265 97t259 -70q90 -70 90 -197q0 -31 -8 -63h-265q2 10 2 22
q0 74 -71 74q-43 0 -70 -32t-27 -76t22 -62t116 -45t157 -65q102 -61 103 -213q0 -392 -420 -392z" />
    <glyph glyph-name="Scedilla" unicode="&#x15e;" horiz-adv-x="929" 
d="M96 -494l140 367h264l-213 -367h-191zM285 340q0 -121 118 -121q102 0 146 94q31 77 31 139t-26 90t-89 50q-182 59 -257 145t-75 236q0 203 107 355t325 153q183 0 283 -91t100 -257q0 -53 -12 -101h-277q4 51 5 96q0 111 -91 111q-76 0 -110 -84q-31 -72 -31 -135
t33 -95t123 -65q164 -61 227 -138t63 -198t-29 -223q-95 -324 -456 -324q-185 1 -289 89t-104 247q0 52 14 138h279q-8 -55 -8 -111z" />
    <glyph glyph-name="scedilla" unicode="&#x15f;" horiz-adv-x="819" 
d="M55 -494l140 367h264l-213 -367h-191zM338 -23q-360 0 -361 275q1 37 11 76h266q-6 -33 -6 -45q0 -72 106 -72q133 0 133 123q0 33 -15 49t-56 29q-158 47 -217 84q-109 70 -109 238t95 265t265 97t259 -70q90 -70 90 -197q0 -31 -8 -63h-265q2 10 2 22q0 74 -71 74
q-43 0 -70 -32t-27 -76t22 -62t116 -45t157 -65q102 -61 103 -213q0 -392 -420 -392z" />
    <glyph glyph-name="Scaron" unicode="&#x160;" horiz-adv-x="929" 
d="M631 1745l104 158h264l-282 -318h-215l-172 318h254zM285 340q0 -121 118 -121q102 0 146 94q31 77 31 139t-26 90t-89 50q-182 59 -257 145t-75 236q0 203 107 355t325 153q183 0 283 -91t100 -257q0 -53 -12 -101h-277q4 51 5 96q0 111 -91 111q-76 0 -110 -84
q-31 -72 -31 -135t33 -95t123 -65q164 -61 227 -138t63 -198t-29 -223q-95 -324 -456 -324q-185 1 -289 89t-104 247q0 52 14 138h279q-8 -55 -8 -111z" />
    <glyph glyph-name="scaron" unicode="&#x161;" horiz-adv-x="819" 
d="M532 1341l105 158h264l-283 -317h-215l-172 317h254zM338 -23q-360 0 -361 275q1 37 11 76h266q-6 -33 -6 -45q0 -72 106 -72q133 0 133 123q0 33 -15 49t-56 29q-158 47 -217 84q-109 70 -109 238t95 265t265 97t259 -70q90 -70 90 -197q0 -31 -8 -63h-265q2 10 2 22
q0 74 -71 74q-43 0 -70 -32t-27 -76t22 -62t116 -45t157 -65q102 -61 103 -213q0 -392 -420 -392z" />
    <glyph glyph-name="Tcommaaccent" unicode="&#x162;" horiz-adv-x="831" 
d="M39 -494l139 367h264l-213 -367h-190zM170 0l213 1210h-260l45 252h823l-45 -252h-260l-213 -1210h-303z" />
    <glyph glyph-name="tcommaaccent" unicode="&#x163;" horiz-adv-x="610" 
d="M-37 -494l139 367h265l-213 -367h-191zM373 302q0 -64 104 -64h45l-41 -238h-80q-184 0 -256 43t-71 152q0 59 37 278l65 369h-104l41 231h104l70 289h268l-51 -289h172l-41 -231h-172l-80 -451q-10 -59 -10 -89z" />
    <glyph glyph-name="Tcaron" unicode="&#x164;" horiz-adv-x="831" 
d="M623 1745l104 158h264l-282 -318h-215l-172 318h253zM170 0l215 1210h-260l43 252h823l-43 -252h-260l-215 -1210h-303z" />
    <glyph glyph-name="tcaron" unicode="&#x165;" horiz-adv-x="829" 
d="M668 1104l123 450h262l-185 -450h-200zM373 302q0 -64 104 -64h45l-41 -238h-80q-184 0 -256 43t-71 152q0 66 37 278l65 369h-104l41 231h104l70 289h268l-51 -289h172l-41 -231h-172l-80 -451q-10 -59 -10 -89z" />
    <glyph glyph-name="Tbar" unicode="&#x166;" horiz-adv-x="831" 
d="M170 0l109 621h-177l41 237h176l64 352h-260l43 252h823l-43 -252h-260l-63 -352h176l-41 -237h-176l-109 -621h-303z" />
    <glyph glyph-name="tbar" unicode="&#x167;" horiz-adv-x="610" 
d="M375 303q0 -65 102 -65h45l-41 -238h-80q-182 0 -254 43t-71 154q0 70 26 223l19 104h-105l35 197h105l20 121h-104l41 231h104l70 289h268l-51 -289h172l-41 -231h-172l-21 -121h158l-35 -197h-157l-23 -133q-10 -57 -10 -88z" />
    <glyph glyph-name="Utilde" unicode="&#x168;" horiz-adv-x="1083" 
d="M658 1909q86 0 141 -62q51 -63 69 -63q41 0 66 110h168q-33 -168 -88 -240q-54 -72 -152 -71q-98 0 -147 70q-41 55 -60 55q-48 0 -75 -111h-168q41 164 100 238q60 74 146 74zM500 219q70 0 105 50q36 50 65 208l172 985h303l-182 -1038q-27 -146 -49 -204t-68 -111
q-119 -131 -354 -132q-135 0 -214 27q-79 26 -139 98t-59 197q0 72 26 231l164 932h303l-172 -985q-23 -119 -23 -163t26 -69q26 -26 96 -26z" />
    <glyph glyph-name="utilde" unicode="&#x169;" horiz-adv-x="901" 
d="M416 1194h-168q43 164 102 238q58 74 144 74t141 -62q51 -63 70 -64q41 0 65 111h168q-31 -166 -87 -239q-55 -72 -153 -72t-147 69q-41 55 -59 56q-49 0 -76 -111zM332 299q0 -76 63 -76q47 0 73 43t46 162l113 645h286l-188 -1073h-213l-6 86q-53 -63 -98 -86t-113 -23
q-125 -1 -192 63t-67 166t25 238l111 629h287l-113 -641q-14 -86 -14 -133z" />
    <glyph glyph-name="Umacron" unicode="&#x16a;" horiz-adv-x="1083" 
d="M436 1624l37 211h569l-36 -211h-570zM500 219q70 0 105 50q36 50 65 208l172 985h303l-182 -1038q-27 -146 -49 -204t-68 -111q-119 -131 -354 -132q-135 0 -214 27q-79 26 -139 98t-59 197q0 72 26 231l164 932h303l-172 -985q-23 -119 -23 -163t26 -69q26 -26 96 -26z
" />
    <glyph glyph-name="umacron" unicode="&#x16b;" horiz-adv-x="901" 
d="M279 1221l36 211h570l-37 -211h-569zM332 299q0 -76 63 -76q47 0 73 43t46 162l113 645h286l-188 -1073h-213l-6 86q-53 -63 -98 -86t-113 -23q-125 -1 -192 63t-67 166t25 238l111 629h287l-113 -641q-14 -86 -14 -133z" />
    <glyph glyph-name="Ubreve" unicode="&#x16c;" horiz-adv-x="1083" 
d="M641 1868q0 -99 117 -99q70 0 104 29t56 107h178q-14 -178 -96 -257t-252 -79q-289 0 -289 203q0 47 12 133h172q-2 -20 -2 -37zM500 219q70 0 105 50q36 50 65 208l172 985h303l-182 -1038q-27 -146 -49 -204t-68 -111q-119 -131 -354 -132q-135 0 -214 27
q-79 26 -139 98t-59 197q0 72 26 231l164 932h303l-172 -985q-23 -119 -23 -163t26 -69q26 -26 96 -26z" />
    <glyph glyph-name="ubreve" unicode="&#x16d;" horiz-adv-x="901" 
d="M469 1447q0 -33 28 -57q27 -24 93 -24t100 29t55 106h179q-14 -178 -96 -257t-253 -79q-289 0 -288 203q0 47 12 133h172q-2 -20 -2 -54zM332 299q0 -76 63 -76q47 0 73 43t46 162l113 645h286l-188 -1073h-213l-6 86q-53 -63 -98 -86t-113 -23q-125 -1 -192 63t-67 166
t25 238l111 629h287l-113 -641q-14 -86 -14 -133z" />
    <glyph glyph-name="Uring" unicode="&#x16e;" horiz-adv-x="1083" 
d="M784 1913q-48 0 -76 -40q-28 -41 -28 -107t65 -66q47 0 75 40t28 106t-64 67zM510 1790q0 110 78 182t190 72q114 0 176 -57t64 -163q0 -106 -79 -180t-193 -75q-114 0 -175 56t-61 165zM500 219q70 0 105 50q36 50 65 208l172 985h303l-182 -1038q-27 -146 -49 -204
t-68 -111q-119 -131 -354 -132q-135 0 -214 27q-79 26 -139 98t-59 197q0 72 26 231l164 932h303l-172 -985q-23 -119 -23 -163t26 -69q26 -26 96 -26z" />
    <glyph glyph-name="uring" unicode="&#x16f;" horiz-adv-x="901" 
d="M621 1509q-49 0 -77 -40t-28 -106t66 -67q46 0 74 40t28 106t-63 67zM616 1640q114 0 176 -57t62 -163t-79 -180t-193 -75q-114 1 -174 57q-62 56 -62 164t78 182q78 72 192 72zM332 299q0 -76 63 -76q47 0 73 43t46 162l113 645h286l-188 -1073h-213l-6 86
q-53 -63 -98 -86t-113 -23q-125 -1 -192 63t-67 166t25 238l111 629h287l-113 -641q-14 -86 -14 -133z" />
    <glyph glyph-name="Uhungarumlaut" unicode="&#x170;" horiz-adv-x="1083" 
d="M764 1589l168 322h282l-253 -322h-197zM446 1589l168 322h283l-254 -322h-197zM500 219q70 0 105 50q36 50 65 208l172 985h303l-182 -1038q-27 -146 -49 -204t-68 -111q-119 -131 -354 -132q-135 0 -214 27q-79 26 -139 98t-59 197q0 72 26 231l164 932h303l-172 -985
q-23 -119 -23 -163t26 -69q26 -26 96 -26z" />
    <glyph glyph-name="uhungarumlaut" unicode="&#x171;" horiz-adv-x="901" 
d="M600 1186l168 321h283l-254 -321h-197zM283 1186l168 321h282l-254 -321h-196zM332 299q0 -76 63 -76q47 0 73 43t46 162l113 645h286l-188 -1073h-213l-6 86q-53 -63 -98 -86t-113 -23q-125 -1 -192 63t-67 166t25 238l111 629h287l-113 -641q-14 -86 -14 -133z" />
    <glyph glyph-name="Uogonek" unicode="&#x172;" horiz-adv-x="1083" 
d="M524 -233q0 -47 51 -48q39 0 101 21l6 -139q-92 -41 -200 -41t-166 41q-56 41 -56 118q0 115 115 207q39 31 69 54q-186 12 -260 73q-104 90 -104 246q0 72 26 231l164 932h303l-172 -985q-23 -119 -23 -163q1 -96 109 -95q82 0 118 50t65 208l172 985h303l-182 -1038
q-27 -186 -89 -280t-194 -142q-156 -143 -156 -235z" />
    <glyph glyph-name="uogonek" unicode="&#x173;" horiz-adv-x="901" 
d="M563 -233q0 -47 51 -48q39 0 101 21l6 -139q-93 -41 -201 -41t-165 41q-56 41 -56 117t48 136t177 146h-12l-6 86q-53 -63 -98 -86t-113 -23q-125 -1 -192 63t-67 166t25 238l111 629h287l-113 -641q-14 -86 -14 -133q0 -76 63 -76q47 0 73 43t46 162l113 645h286
l-188 -1073q-162 -147 -162 -233z" />
    <glyph glyph-name="Wcircumflex" unicode="&#x174;" horiz-adv-x="1531" 
d="M985 1751l-102 -158h-267l283 316h215l172 -316h-252zM197 0l-15 1462h303l-45 -954l371 954h238l34 -954l293 954h301l-530 -1462h-275l-41 901l-360 -901h-274z" />
    <glyph glyph-name="wcircumflex" unicode="&#x175;" horiz-adv-x="1257" 
d="M758 1348l-103 -158h-266l283 315h215l172 -315h-252zM147 0l-36 1073h290l-30 -641l250 641h204l23 -641l196 641h291l-413 -1073h-252l-31 592l-240 -592h-252z" />
    <glyph glyph-name="Ycircumflex" unicode="&#x176;" horiz-adv-x="884" 
d="M662 1751l-103 -158h-266l282 316h216l172 -316h-252zM201 0l86 494l-193 968h316l88 -610l303 610h325l-536 -968l-86 -494h-303z" />
    <glyph glyph-name="ycircumflex" unicode="&#x177;" horiz-adv-x="843" 
d="M557 1348l-102 -158h-267l283 315h215l172 -315h-252zM178 2l-80 1071h287l4 -690l248 690h295l-477 -1139q-103 -256 -209 -330t-367 -75l41 238q111 -1 150 29t92 161z" />
    <glyph glyph-name="Ydieresis" unicode="&#x178;" horiz-adv-x="884" 
d="M682 1595l47 269h254l-47 -269h-254zM322 1595l47 269h254l-48 -269h-253zM201 0l86 494l-193 968h316l88 -610l303 610h325l-536 -968l-86 -494h-303z" />
    <glyph glyph-name="Zacute" unicode="&#x179;" horiz-adv-x="839" 
d="M487 1589l199 322h311l-297 -322h-213zM-84 0l29 162l637 1048h-402l43 252h742l-29 -162l-635 -1048h469l-43 -252h-811z" />
    <glyph glyph-name="zacute" unicode="&#x17a;" horiz-adv-x="702" 
d="M354 1186l199 321h311l-297 -321h-213zM-90 0l29 168l448 668h-289l41 237h635l-29 -170l-448 -665h352l-41 -238h-698z" />
    <glyph glyph-name="Zdotaccent" unicode="&#x17b;" horiz-adv-x="839" 
d="M481 1589l47 275h275l-47 -275h-275zM-84 0l29 162l637 1048h-402l43 252h742l-29 -162l-635 -1048h469l-43 -252h-811z" />
    <glyph glyph-name="zdotaccent" unicode="&#x17c;" horiz-adv-x="702" 
d="M350 1188l47 274h275l-47 -274h-275zM-90 0l29 168l448 668h-289l41 237h635l-29 -170l-448 -665h352l-41 -238h-698z" />
    <glyph glyph-name="Zcaron" unicode="&#x17d;" horiz-adv-x="839" 
d="M639 1745l104 158h265l-283 -318h-215l-172 318h254zM-84 0l29 162l637 1048h-402l43 252h742l-29 -162l-635 -1048h469l-43 -252h-811z" />
    <glyph glyph-name="zcaron" unicode="&#x17e;" horiz-adv-x="702" 
d="M508 1341l104 158h265l-283 -317h-215l-172 317h254zM-90 0l29 168l448 668h-289l41 237h635l-29 -170l-448 -665h352l-41 -238h-698z" />
    <glyph glyph-name="Ohorn" unicode="&#x1a0;" horiz-adv-x="1146" 
d="M358 330q0 -111 121 -111q100 0 142 88q22 45 49 195l80 459q23 133 22 172q0 111 -119 110q-100 0 -145 -88q-20 -39 -47 -194l-80 -459q-23 -115 -23 -172zM1372 1423q0 -166 -102 -268q-68 -66 -209 -141q-2 -14 -12 -82l-91 -508q-24 -129 -50 -197
q-97 -250 -437 -250q-215 0 -313 82t-99 258q0 82 23 213l90 508q23 131 48 198q26 67 77 122q59 70 143 98t222 29q205 0 299 -70t110 -231q76 70 76 198q-1 50 -19 105h240q4 -61 4 -64z" />
    <glyph glyph-name="ohorn" unicode="&#x1a1;" horiz-adv-x="1026" 
d="M598 784q0 80 -80 80q-57 0 -85 -41t-48 -153l-47 -267q-14 -86 -14 -112q0 -80 77 -80q57 -1 85 39t49 153l47 267q16 88 16 114zM1161 1016q0 -236 -301 -395q-2 -6 -5 -28t-7 -36l-31 -184q-41 -219 -134 -307t-279 -88t-273 73q-86 74 -86 230q0 76 21 198l38 223
q38 218 132 306t286 88q262 0 330 -156q23 -51 25 -158q59 84 59 199q0 47 -16 102h237q4 -37 4 -67z" />
    <glyph glyph-name="Uhorn" unicode="&#x1af;" horiz-adv-x="1232" 
d="M500 219q70 0 105 50q36 50 65 208l172 985h303l-55 -319q141 94 141 246q0 45 -19 98h240q2 -35 2 -66q0 -176 -156 -305q-50 -41 -80 -59t-159 -88l-96 -545q-27 -146 -49 -204t-68 -111q-119 -131 -354 -132q-135 0 -214 27q-79 26 -139 98t-59 197q0 72 26 231
l164 932h303l-172 -985q-23 -119 -23 -163t26 -69q26 -26 96 -26z" />
    <glyph glyph-name="uhorn" unicode="&#x1b0;" horiz-adv-x="1089" 
d="M332 299q0 -76 63 -76q47 0 73 43t46 162l113 645h286l-57 -334q63 37 102 104t39 127t-18 113h238q4 -33 4 -65q-1 -138 -91 -240t-307 -215l-98 -563h-213l-6 86q-53 -63 -98 -86t-113 -23q-125 -1 -192 63t-67 166t25 238l111 629h287l-113 -641q-14 -86 -14 -133z
" />
    <glyph glyph-name="uni01C4" unicode="&#x1c4;" horiz-adv-x="1900" 
d="M979 0l27 162l636 1048h-401l43 252h741l-26 -162l-637 -1048h471l-43 -252h-811zM1702 1745l104 158h265l-283 -318h-215l-172 318h254zM764 1120q0 100 -139 101h-93l-172 -979h93q113 4 149 50t68 220l78 438q16 106 16 170zM604 1462q262 0 361 -71q106 -82 106 -246
q0 -72 -20 -195l-97 -544q-33 -225 -151 -318q-119 -92 -367 -88h-422l258 1462h332z" />
    <glyph glyph-name="uni01C5" unicode="&#x1c5;" horiz-adv-x="1763" 
d="M971 0l30 168l447 668h-289l43 237h635l-31 -170l-448 -665h354l-43 -238h-698zM1569 1341l104 158h264l-282 -317h-215l-172 317h254zM764 1120q0 100 -139 101h-93l-172 -979h93q113 4 149 50t68 220l78 438q16 106 16 170zM604 1462q262 0 361 -71q106 -82 106 -246
q0 -72 -20 -195l-97 -544q-33 -225 -151 -318q-119 -92 -367 -88h-422l258 1462h332z" />
    <glyph glyph-name="uni01C6" unicode="&#x1c6;" horiz-adv-x="1619" 
d="M827 0l29 168l449 668h-289l41 237h635l-29 -170l-449 -665h353l-41 -238h-699zM1425 1341l103 158h266l-285 -317h-213l-174 317h254zM336 301q0 -78 61 -78q98 0 133 201l39 225q10 57 11 101q0 104 -76 104q-45 0 -71 -36t-42 -120l-41 -239q-14 -80 -14 -158zM47 244
q0 127 27 272l37 213q35 199 111 283q77 84 210 84t207 -56l74 422h286l-258 -1462h-219l-4 66q-53 -52 -93 -70t-106 -19q-139 0 -205 70t-67 197z" />
    <glyph glyph-name="uni01C7" unicode="&#x1c7;" horiz-adv-x="1396" 
d="M760 -258q51 0 78 56t59 237l252 1427h303l-258 -1464q-27 -158 -47 -228q-77 -272 -371 -272q-100 0 -227 37l149 225q31 -18 62 -18zM14 0l258 1462h303l-215 -1210h451l-43 -252h-754z" />
    <glyph glyph-name="uni01C8" unicode="&#x1c8;" horiz-adv-x="1349" 
d="M1069 1073h287l-189 -1075q-47 -297 -151 -386t-400 -83l43 238q102 -4 151 50q48 54 75 206zM1092 1190l49 285h286l-49 -285h-286zM14 0l258 1462h303l-215 -1210h451l-43 -252h-754z" />
    <glyph glyph-name="uni01C9" unicode="&#x1c9;" horiz-adv-x="997" 
d="M719 1073h287l-191 -1075q-47 -297 -151 -386t-398 -83l41 238q102 -4 152 51q49 55 73 205zM739 1190l49 285h287l-49 -285h-287zM352 346q0 -58 29 -84q29 -25 92 -24h16l-43 -238h-26q-205 0 -284 57t-79 203q0 98 31 275l164 927h287l-179 -1009q-8 -49 -8 -107z" />
    <glyph glyph-name="uni01CA" unicode="&#x1ca;" horiz-adv-x="1646" 
d="M1026 -502q-102 0 -227 37l149 225q31 -18 60 -18q54 0 80 56t59 237l252 1427h303l-258 -1464q-29 -160 -48 -230t-53 -116q-98 -154 -317 -154zM14 0l258 1462h303l173 -858l151 858h283l-258 -1462h-287l-186 874l-154 -874h-283z" />
    <glyph glyph-name="uni01CB" unicode="&#x1cb;" horiz-adv-x="1599" 
d="M1319 1073h287l-189 -1075q-47 -297 -151 -386t-400 -83l43 238q102 -4 151 50q48 54 75 206zM1339 1190l52 285h286l-51 -285h-287zM14 0l258 1462h303l173 -858l151 858h283l-258 -1462h-287l-186 874l-154 -874h-283z" />
    <glyph glyph-name="uni01CC" unicode="&#x1cc;" horiz-adv-x="1396" 
d="M1118 1073h287l-191 -1075q-47 -299 -150 -387t-398 -82l41 238q102 -4 151 51t74 205zM1139 1190l49 285h287l-50 -285h-286zM627 1096q127 0 193 -65t67 -185q0 -80 -25 -217l-110 -629h-287l113 641q16 92 16 121q0 88 -74 88q-55 0 -83 -43t-48 -162l-115 -645h-286
l188 1073h213l6 -86q57 61 107 85t125 24z" />
    <glyph glyph-name="uni01CD" unicode="&#x1cd;" horiz-adv-x="1005" 
d="M698 1745l105 158h264l-283 -318h-215l-172 318h254zM621 518l-23 541l-213 -541h236zM631 279h-340l-109 -279h-327l675 1462h267l172 -1462h-326z" />
    <glyph glyph-name="uni01CE" unicode="&#x1ce;" horiz-adv-x="884" 
d="M580 1341l104 158h264l-282 -317h-215l-172 317h253zM461 459q-92 0 -134 -42t-42 -138q0 -74 80 -74q57 0 84 33t40 122l17 99h-45zM479 862q-82 0 -100 -108h-266q31 180 121 261q91 81 264 81q340 0 340 -303q0 -88 -21 -199l-104 -594h-224l-6 59q-41 -47 -83 -64
t-111 -18q-141 0 -219 68t-78 188q0 219 104 328q90 90 310 90h135l18 131q0 44 -18 62t-62 18z" />
    <glyph glyph-name="uni01CF" unicode="&#x1cf;" horiz-adv-x="520" 
d="M467 1745l102 158h267l-285 -318h-213l-172 318h252zM14 0l258 1462h303l-258 -1462h-303z" />
    <glyph glyph-name="uni01D0" unicode="&#x1d0;" horiz-adv-x="462" 
d="M367 1341l104 158h266l-284 -317h-213l-174 317h253zM-6 0l188 1073h287l-188 -1073h-287z" />
    <glyph glyph-name="uni01D1" unicode="&#x1d1;" horiz-adv-x="1062" 
d="M737 1745l105 158h264l-283 -318h-215l-172 318h254zM358 330q0 -111 121 -111q100 0 142 88q22 45 49 195l80 459q23 133 22 172q0 111 -119 110q-100 0 -145 -88q-20 -39 -47 -194l-80 -459q-23 -115 -23 -172zM1071 1145q0 -72 -22 -213l-91 -508q-24 -129 -50 -197
q-97 -250 -437 -250q-215 0 -313 82t-99 258q0 82 23 213l90 508q23 131 48 198q26 66 81 128q108 120 341 121q233 0 331 -82t98 -258z" />
    <glyph glyph-name="uni01D2" unicode="&#x1d2;" horiz-adv-x="921" 
d="M596 1341l104 158h265l-283 -317h-215l-172 317h254zM598 782q0 80 -80 80q-57 0 -85 -40t-48 -152l-47 -267q-14 -86 -14 -112q0 -80 77 -80q57 -1 85 39t49 153l47 267q16 88 16 112zM517 1096q187 0 273 -74t87 -229q0 -86 -21 -197l-39 -223q-39 -219 -132 -307
t-281 -88t-273 73q-86 74 -86 230q1 75 21 198l38 223q38 218 132 306t281 88z" />
    <glyph glyph-name="uni01D3" unicode="&#x1d3;" horiz-adv-x="1083" 
d="M750 1745l104 158h264l-282 -318h-215l-172 318h253zM500 219q70 0 105 50q36 50 65 208l172 985h303l-182 -1038q-27 -146 -49 -204t-68 -111q-119 -131 -354 -132q-135 0 -214 27q-79 26 -139 98t-59 197q0 72 26 231l164 932h303l-172 -985q-23 -119 -23 -163t26 -69
q26 -26 96 -26z" />
    <glyph glyph-name="uni01D4" unicode="&#x1d4;" horiz-adv-x="901" 
d="M586 1341l104 158h264l-282 -317h-215l-172 317h254zM332 299q0 -76 63 -76q47 0 73 43t46 162l113 645h286l-188 -1073h-213l-6 86q-53 -63 -98 -86t-113 -23q-125 -1 -192 63t-67 166t25 238l111 629h287l-113 -641q-14 -86 -14 -133z" />
    <glyph glyph-name="Gcaron" unicode="&#x1e6;" horiz-adv-x="1040" 
d="M707 1745l104 158h264l-282 -318h-215l-172 318h253zM63 324q0 88 27 239l76 438q29 154 60 231q32 77 91 132q123 117 325 117t304 -81q100 -81 101 -233q0 -61 -13 -135h-276q4 82 4 86q0 63 -25 92t-80 29q-88 0 -128 -63t-72 -250l-70 -394q-25 -139 -25 -188
q0 -125 117 -125q82 -1 124 59t69 220l14 86h-139l41 231h438l-53 -305q-27 -160 -53 -237q-102 -296 -449 -296q-408 0 -408 347z" />
    <glyph glyph-name="gcaron" unicode="&#x1e7;" horiz-adv-x="917" 
d="M586 1341l104 158h264l-282 -317h-215l-172 317h254zM334 307q0 -84 63 -84q51 0 83 47t50 154l41 225q10 59 11 101q0 104 -76 104q-47 0 -73 -36t-40 -120l-47 -264q-12 -74 -12 -127zM319 -23q-141 0 -207 69t-67 214q0 90 29 256l37 213q35 199 111 283q77 84 221 84
t229 -97l41 74h219l-197 -1118q-43 -229 -125 -320q-111 -119 -311 -118q-153 0 -233 58t-80 167q0 47 10 111h254q-2 -20 -2 -49q0 -60 65 -60q55 0 85 47t53 174l8 53q-55 -41 -140 -41z" />
    <glyph glyph-name="uni01EA" unicode="&#x1ea;" horiz-adv-x="1062" 
d="M358 330q0 -111 121 -111q100 0 142 88q22 45 49 195l80 459q23 133 22 172q0 111 -119 110q-100 0 -145 -88q-20 -39 -47 -194l-80 -459q-23 -115 -23 -172zM512 -233q0 -47 51 -48q39 0 101 21l6 -139q-92 -41 -200 -41t-165 41t-57 116q0 113 112 207q6 6 72 53
q-164 10 -237 56q-135 84 -136 284q0 82 23 213l90 508q23 131 48 198q26 66 81 128q108 120 341 121q233 0 331 -82t98 -258q1 -72 -22 -213l-91 -508q-27 -184 -97 -285q-71 -100 -197 -141q-152 -139 -152 -231z" />
    <glyph glyph-name="uni01EB" unicode="&#x1eb;" horiz-adv-x="921" 
d="M598 782q0 80 -80 80q-57 0 -85 -40t-48 -152l-47 -267q-14 -86 -14 -112q0 -80 77 -80q57 -1 85 39t49 153l47 267q16 88 16 112zM442 -233q0 -47 52 -48q37 0 100 21l6 -139q-92 -41 -200 -41t-164 41q-58 41 -58 115t39 132q39 59 133 132q-158 10 -232 82t-73 219
q0 76 21 198l38 223q38 218 132 306t281 88t273 -74t87 -229q-1 -86 -21 -197l-39 -223q-25 -150 -76 -235t-141 -126q-158 -141 -158 -245z" />
    <glyph glyph-name="uni01F1" unicode="&#x1f1;" horiz-adv-x="1900" 
d="M979 0l27 162l636 1048h-401l43 252h741l-26 -162l-637 -1048h471l-43 -252h-811zM764 1120q0 100 -139 101h-93l-172 -979h93q113 4 149 50t68 220l78 438q16 106 16 170zM604 1462q262 0 361 -71q106 -82 106 -246q0 -72 -20 -195l-97 -544q-33 -225 -151 -318
q-119 -92 -367 -88h-422l258 1462h332z" />
    <glyph glyph-name="uni01F2" unicode="&#x1f2;" horiz-adv-x="1763" 
d="M971 0l30 168l447 668h-289l43 237h635l-31 -170l-448 -665h354l-43 -238h-698zM764 1120q0 100 -139 101h-93l-172 -979h93q113 4 149 50t68 220l78 438q16 106 16 170zM604 1462q262 0 361 -71q106 -82 106 -246q0 -72 -20 -195l-97 -544q-33 -225 -151 -318
q-119 -92 -367 -88h-422l258 1462h332z" />
    <glyph glyph-name="uni01F3" unicode="&#x1f3;" horiz-adv-x="1619" 
d="M827 0l29 168l449 668h-289l41 237h635l-29 -170l-449 -665h353l-41 -238h-699zM336 301q0 -78 61 -78q98 0 133 201l39 225q10 57 11 101q0 104 -76 104q-45 0 -71 -36t-42 -120l-41 -239q-14 -80 -14 -158zM47 244q0 127 27 272l37 213q35 199 111 283q77 84 210 84
t207 -56l74 422h286l-258 -1462h-219l-4 66q-53 -52 -93 -70t-106 -19q-139 0 -205 70t-67 197z" />
    <glyph glyph-name="uni01F4" unicode="&#x1f4;" horiz-adv-x="1040" 
d="M561 1589l199 322h311l-297 -322h-213zM63 324q0 88 27 239l76 438q29 154 60 231q32 77 91 132q123 117 325 117t304 -81q100 -81 101 -233q0 -61 -13 -135h-276q4 82 4 86q0 63 -25 92t-80 29q-88 0 -128 -63t-72 -250l-70 -394q-25 -139 -25 -188q0 -125 117 -125
q82 -1 124 59t69 220l14 86h-139l41 231h438l-53 -305q-27 -160 -53 -237q-102 -296 -449 -296q-408 0 -408 347z" />
    <glyph glyph-name="uni01F5" unicode="&#x1f5;" horiz-adv-x="917" 
d="M449 1186l198 321h311l-296 -321h-213zM334 307q0 -84 63 -84q51 0 83 47t50 154l41 225q10 59 11 101q0 104 -76 104q-47 0 -73 -36t-40 -120l-47 -264q-12 -74 -12 -127zM319 -23q-141 0 -207 69t-67 214q0 90 29 256l37 213q35 199 111 283q77 84 221 84t229 -97
l41 74h219l-197 -1118q-43 -229 -125 -320q-111 -119 -311 -118q-153 0 -233 58t-80 167q0 47 10 111h254q-2 -20 -2 -49q0 -60 65 -60q55 0 85 47t53 174l8 53q-55 -41 -140 -41z" />
    <glyph glyph-name="Aringacute" unicode="&#x1fa;" horiz-adv-x="1005" 
d="M612 1849l166 275h361l-324 -275h-203zM707 1675q-49 0 -77 -40t-28 -106t66 -67q46 0 74 40t28 106t-63 67zM621 518l-23 541l-213 -541h236zM940 1593q0 -150 -133 -227l162 -1366h-326l-12 279h-340l-109 -279h-327l641 1386q-64 61 -64 167t77 180q77 73 192 73
t177 -57t62 -156z" />
    <glyph glyph-name="aringacute" unicode="&#x1fb;" horiz-adv-x="884" 
d="M524 1683l166 275h359l-324 -275h-201zM614 1495q-48 0 -76 -40q-28 -41 -28 -107t65 -66q47 0 75 40t28 106t-64 67zM340 1372q0 110 76 182t192 72q114 0 176 -57t64 -163q0 -106 -79 -180t-193 -75q-114 0 -175 56t-61 165zM461 459q-92 0 -134 -42t-42 -138
q0 -74 80 -74q57 0 84 33t40 122l17 99h-45zM479 862q-82 0 -100 -108h-266q31 180 121 261q91 81 264 81q340 0 340 -303q0 -88 -21 -199l-104 -594h-224l-6 59q-41 -47 -83 -64t-111 -18q-141 0 -219 68t-78 188q0 219 104 328q90 90 310 90h135l18 131q0 44 -18 62
t-62 18z" />
    <glyph glyph-name="AEacute" unicode="&#x1fc;" horiz-adv-x="1527" 
d="M1016 1589l198 322h312l-297 -322h-213zM729 549l117 661h-33l-373 -661h289zM688 311h-385l-176 -311h-348l901 1462h952l-45 -252h-446l-62 -350h377l-43 -252h-377l-65 -356h459l-44 -252h-753z" />
    <glyph glyph-name="aeacute" unicode="&#x1fd;" horiz-adv-x="1359" 
d="M649 1186l199 321h311l-297 -321h-213zM965 868q-57 0 -84 -36t-45 -138l-7 -26h211q14 72 15 118q0 82 -90 82zM459 459q-90 0 -132 -42t-42 -138q0 -74 80 -74q57 0 81 33t41 122l19 99h-47zM477 1096q188 0 273 -90q90 90 245 90q322 0 322 -312q0 -100 -39 -327h-485
l-11 -54q-12 -61 -12 -114q0 -78 82 -78q90 0 117 117h266q-21 -188 -107 -270t-278 -81q-192 0 -277 105q-107 -104 -267 -104q-316 -1 -316 243q0 223 104 334q94 96 309 96h136l2 19q14 70 14 116q0 76 -74 76q-47 0 -71 -26t-33 -82h-266q27 152 84 223q94 119 282 119z
" />
    <glyph glyph-name="Oslashacute" unicode="&#x1fe;" horiz-adv-x="1062" 
d="M571 1589l199 322h311l-297 -322h-213zM643 1243q-90 0 -133 -88q-23 -45 -49 -194l-45 -259l344 490q-27 51 -117 51zM488 219q88 0 135 88q20 39 47 195l45 254l-342 -488q27 -49 115 -49zM1073 1138q0 -68 -24 -206l-91 -508q-22 -131 -48 -198q-95 -249 -435 -249
q-180 0 -270 52l-60 -84l-180 114l107 152q-12 55 -12 121t22 198l90 508q23 129 49 197q99 250 436 250q176 0 273 -51l57 82l180 -113l-106 -152q12 -45 12 -113z" />
    <glyph glyph-name="oslashacute" unicode="&#x1ff;" horiz-adv-x="921" 
d="M430 1186l199 321h311l-297 -321h-213zM518 862q-58 0 -85 -40q-28 -40 -46 -152l-27 -144l230 303q-14 33 -72 33zM410 211q50 0 78 40t49 152l20 125l-219 -292q22 -25 72 -25zM45 282q0 88 21 197l38 223q38 218 132 306t286 88q141 0 232 -47l51 65l129 -88l-76 -100
q20 -56 20 -126t-22 -204l-39 -223q-39 -217 -132 -306t-286 -90q-131 0 -223 43l-57 -73l-129 86l80 106q-25 55 -25 143z" />
    <glyph glyph-name="uni0200" unicode="&#x200;" horiz-adv-x="1005" 
d="M655 1589h-196l-142 322h283zM973 1589h-197l-141 322h285zM621 518l-23 541l-213 -541h236zM631 279h-340l-109 -279h-327l675 1462h267l172 -1462h-326z" />
    <glyph glyph-name="uni0201" unicode="&#x201;" horiz-adv-x="884" 
d="M524 1186h-196l-142 321h283zM842 1186h-197l-141 321h284zM461 459q-92 0 -134 -42t-42 -138q0 -74 80 -74q57 0 84 33t40 122l17 99h-45zM479 862q-82 0 -100 -108h-266q31 180 121 261q91 81 264 81q340 0 340 -303q0 -88 -21 -199l-104 -594h-224l-6 59
q-41 -47 -83 -64t-111 -18q-141 0 -219 68t-78 188q0 219 104 328q90 90 310 90h135l18 131q0 44 -18 62t-62 18z" />
    <glyph glyph-name="uni0202" unicode="&#x202;" horiz-adv-x="1005" 
d="M727 1925q289 0 289 -203q0 -45 -12 -133h-173q2 18 3 37q0 100 -117 98q-70 0 -104 -28t-56 -107h-178q14 178 95 257t253 79zM621 518l-23 541l-213 -541h236zM631 279h-340l-109 -279h-327l675 1462h267l172 -1462h-326z" />
    <glyph glyph-name="uni0203" unicode="&#x203;" horiz-adv-x="884" 
d="M702 1239q0 82 -116 82q-70 0 -104 -29t-56 -106h-178q14 178 95 257t253 79q289 0 289 -203q-1 -45 -13 -133h-172q2 16 2 53zM461 459q-92 0 -134 -42t-42 -138q0 -74 80 -74q57 0 84 33t40 122l17 99h-45zM479 862q-82 0 -100 -108h-266q31 180 121 261q91 81 264 81
q340 0 340 -303q0 -88 -21 -199l-104 -594h-224l-6 59q-41 -47 -83 -64t-111 -18q-141 0 -219 68t-78 188q0 219 104 328q90 90 310 90h135l18 131q0 44 -18 62t-62 18z" />
    <glyph glyph-name="uni0204" unicode="&#x204;" horiz-adv-x="915" 
d="M637 1589h-197l-141 322h283zM954 1589h-196l-142 322h285zM16 0l258 1462h746l-43 -252h-442l-64 -350h373l-43 -252h-373l-66 -356h455l-43 -252h-758z" />
    <glyph glyph-name="uni0205" unicode="&#x205;" horiz-adv-x="915" 
d="M539 1186h-197l-141 321h282zM856 1186h-197l-141 321h285zM610 786q0 82 -90 82q-57 0 -84 -36t-45 -138l-6 -26h211q14 70 14 118zM330 289q0 -78 80 -78q50 0 76 28t40 89h267q-19 -186 -111 -268t-278 -83q-186 0 -269 79q-84 79 -84 243q0 86 23 215l22 141
q41 244 137 342q97 99 283 99t271 -78t85 -242q0 -115 -36 -319h-486l-12 -58q-8 -45 -8 -110z" />
    <glyph glyph-name="uni0206" unicode="&#x206;" horiz-adv-x="915" 
d="M801 1626q0 100 -117 98q-70 0 -104 -28t-56 -107h-178q14 178 95 257t253 79q289 0 289 -203q0 -45 -12 -133h-172q2 18 2 37zM16 0l258 1462h746l-43 -252h-442l-64 -350h373l-43 -252h-373l-66 -356h455l-43 -252h-758z" />
    <glyph glyph-name="uni0207" unicode="&#x207;" horiz-adv-x="915" 
d="M717 1239q0 82 -117 82q-70 0 -104 -29t-56 -106h-178q14 178 95 257t253 79q289 0 289 -203q0 -45 -12 -133h-172q2 16 2 53zM610 786q0 82 -90 82q-57 0 -84 -36t-45 -138l-6 -26h211q14 70 14 118zM330 289q0 -78 80 -78q50 0 76 28t40 89h267q-19 -186 -111 -268
t-278 -83q-186 0 -269 79q-84 79 -84 243q0 86 23 215l22 141q41 244 137 342q97 99 283 99t271 -78t85 -242q0 -115 -36 -319h-486l-12 -58q-8 -45 -8 -110z" />
    <glyph glyph-name="uni0208" unicode="&#x208;" horiz-adv-x="520" 
d="M412 1589h-197l-141 322h282zM729 1589h-197l-141 322h285zM14 0l258 1462h303l-258 -1462h-303z" />
    <glyph glyph-name="uni0209" unicode="&#x209;" horiz-adv-x="462" 
d="M311 1186h-196l-142 321h283zM629 1186h-197l-141 321h284zM-6 0l188 1073h287l-188 -1073h-287z" />
    <glyph glyph-name="uni020A" unicode="&#x20a;" horiz-adv-x="520" 
d="M590 1626q0 100 -117 98q-69 0 -103 -28t-57 -107h-178q14 178 95 257t253 79q289 0 289 -203q0 -45 -12 -133h-172q2 18 2 37zM14 0l258 1462h303l-258 -1462h-303z" />
    <glyph glyph-name="uni020B" unicode="&#x20b;" horiz-adv-x="462" 
d="M489 1239q0 82 -116 82q-70 0 -104 -29t-56 -106h-178q14 178 95 257t253 79q289 0 289 -203q-1 -45 -13 -133h-172q2 16 2 53zM-6 0l188 1073h287l-188 -1073h-287z" />
    <glyph glyph-name="uni020C" unicode="&#x20c;" horiz-adv-x="1062" 
d="M682 1589h-197l-141 322h283zM999 1589h-196l-141 322h284zM358 330q0 -111 121 -111q100 0 142 88q22 45 49 195l80 459q23 133 22 172q0 111 -119 110q-100 0 -145 -88q-20 -39 -47 -194l-80 -459q-23 -115 -23 -172zM1071 1145q0 -72 -22 -213l-91 -508
q-24 -129 -50 -197q-97 -250 -437 -250q-215 0 -313 82t-99 258q0 82 23 213l90 508q23 131 48 198q26 66 81 128q108 120 341 121q233 0 331 -82t98 -258z" />
    <glyph glyph-name="uni020D" unicode="&#x20d;" horiz-adv-x="921" 
d="M543 1186h-197l-141 321h282zM860 1186h-196l-142 321h285zM598 782q0 80 -80 80q-57 0 -85 -40t-48 -152l-47 -267q-14 -86 -14 -112q0 -80 77 -80q57 -1 85 39t49 153l47 267q16 88 16 112zM517 1096q187 0 273 -74t87 -229q0 -86 -21 -197l-39 -223
q-39 -219 -132 -307t-281 -88t-273 73q-86 74 -86 230q1 75 21 198l38 223q38 218 132 306t281 88z" />
    <glyph glyph-name="uni020E" unicode="&#x20e;" horiz-adv-x="1062" 
d="M860 1642q0 35 -27 59q-28 23 -94 23q-65 0 -99 -28t-56 -107h-178q14 178 95 257t253 79q289 0 288 -203q0 -45 -12 -133h-172q2 18 2 53zM358 330q0 -111 121 -111q100 0 142 88q22 45 49 195l80 459q23 133 22 172q0 111 -119 110q-100 0 -145 -88q-20 -39 -47 -194
l-80 -459q-23 -115 -23 -172zM1071 1145q0 -72 -22 -213l-91 -508q-24 -129 -50 -197q-97 -250 -437 -250q-215 0 -313 82t-99 258q0 82 23 213l90 508q23 131 48 198q26 66 81 128q108 120 341 121q233 0 331 -82t98 -258z" />
    <glyph glyph-name="uni020F" unicode="&#x20f;" horiz-adv-x="921" 
d="M719 1239q0 82 -117 82q-70 0 -104 -29t-56 -106h-178q14 178 95 257t253 79q289 0 289 -203q0 -45 -12 -133h-172q2 16 2 53zM598 782q0 80 -80 80q-57 0 -85 -40t-48 -152l-47 -267q-14 -86 -14 -112q0 -80 77 -80q57 -1 85 39t49 153l47 267q16 88 16 112zM517 1096
q187 0 273 -74t87 -229q0 -86 -21 -197l-39 -223q-39 -219 -132 -307t-281 -88t-273 73q-86 74 -86 230q1 75 21 198l38 223q38 218 132 306t281 88z" />
    <glyph glyph-name="uni0210" unicode="&#x210;" horiz-adv-x="1021" 
d="M594 1589h-197l-141 322h283zM911 1589h-196l-142 322h285zM541 819q102 0 141 58q61 84 61 225q1 70 -25 94t-100 25h-92l-69 -402h84zM633 1462q225 0 317 -67q106 -80 107 -254q0 -115 -31 -234t-76 -178q-59 -80 -172 -119l135 -610h-335l-99 588h-55l-105 -588h-303
l258 1462h359z" />
    <glyph glyph-name="uni0211" unicode="&#x211;" horiz-adv-x="665" 
d="M414 1186h-197l-141 321h282zM731 1186h-196l-142 321h285zM628 1096q76 0 156 -70l-166 -240q-53 68 -103 68t-84 -75t-66 -263l-91 -516h-286l188 1073h217l23 -86q45 59 90 84q46 25 122 25z" />
    <glyph glyph-name="uni0212" unicode="&#x212;" horiz-adv-x="1019" 
d="M784 1642q0 35 -27 59q-27 23 -93 23t-100 -28t-56 -107h-178q14 178 95 257t253 79q289 0 289 -203q-1 -45 -13 -133h-172q2 18 2 53zM541 819q102 0 141 58q61 84 61 225q1 70 -25 94t-100 25h-92l-69 -402h84zM633 1462q225 0 317 -67q106 -80 107 -254
q0 -115 -31 -234t-76 -178q-59 -80 -172 -119l135 -610h-335l-99 588h-55l-105 -588h-303l258 1462h359z" />
    <glyph glyph-name="uni0213" unicode="&#x213;" horiz-adv-x="665" 
d="M612 1239q0 82 -116 82q-70 0 -104 -29t-56 -106h-178q14 178 95 257t253 79q289 0 289 -203q-1 -45 -13 -133h-172q2 16 2 53zM628 1096q76 0 156 -70l-166 -240q-53 68 -103 68t-84 -75t-66 -263l-91 -516h-286l188 1073h217l23 -86q45 59 90 84q46 25 122 25z" />
    <glyph glyph-name="uni0214" unicode="&#x214;" horiz-adv-x="1083" 
d="M694 1589h-196l-142 322h283zM1012 1589h-197l-141 322h284zM500 219q70 0 105 50q36 50 65 208l172 985h303l-182 -1038q-27 -146 -49 -204t-68 -111q-119 -131 -354 -132q-135 0 -214 27q-79 26 -139 98t-59 197q0 72 26 231l164 932h303l-172 -985q-23 -119 -23 -163
t26 -69q26 -26 96 -26z" />
    <glyph glyph-name="uni0215" unicode="&#x215;" horiz-adv-x="901" 
d="M530 1186h-196l-141 321h282zM848 1186h-197l-141 321h285zM332 299q0 -76 63 -76q47 0 73 43t46 162l113 645h286l-188 -1073h-213l-6 86q-53 -63 -98 -86t-113 -23q-125 -1 -192 63t-67 166t25 238l111 629h287l-113 -641q-14 -86 -14 -133z" />
    <glyph glyph-name="uni0216" unicode="&#x216;" horiz-adv-x="1083" 
d="M872 1642q0 35 -27 59q-27 23 -93 23t-100 -28t-56 -107h-178q14 178 95 257t253 79q289 0 289 -203q-1 -45 -13 -133h-172q2 18 2 53zM500 219q70 0 105 50q36 50 65 208l172 985h303l-182 -1038q-27 -146 -49 -204t-68 -111q-119 -131 -354 -132q-135 0 -214 27
q-79 26 -139 98t-59 197q0 72 26 231l164 932h303l-172 -985q-23 -119 -23 -163t26 -69q26 -26 96 -26z" />
    <glyph glyph-name="uni0217" unicode="&#x217;" horiz-adv-x="901" 
d="M709 1239q0 82 -117 82q-70 0 -104 -29t-56 -106h-178q14 178 95 257t253 79q289 0 289 -203q0 -45 -12 -133h-172q2 16 2 53zM332 299q0 -76 63 -76q47 0 73 43t46 162l113 645h286l-188 -1073h-213l-6 86q-53 -63 -98 -86t-113 -23q-125 -1 -192 63t-67 166t25 238
l111 629h287l-113 -641q-14 -86 -14 -133z" />
    <glyph glyph-name="Scommaaccent" unicode="&#x218;" horiz-adv-x="929" 
d="M90 -494l139 367h265l-213 -367h-191zM285 340q0 -121 118 -121q102 0 146 94q31 77 31 139t-26 90t-89 50q-182 59 -257 145t-75 236q0 203 107 355t325 153q183 0 283 -91t100 -257q0 -53 -12 -101h-277q4 51 5 96q0 111 -91 111q-76 0 -110 -84q-31 -72 -31 -135
t33 -95t123 -65q164 -61 227 -138t63 -198t-29 -223q-95 -324 -456 -324q-185 1 -289 89t-104 247q0 52 14 138h279q-8 -55 -8 -111z" />
    <glyph glyph-name="scommaaccent" unicode="&#x219;" horiz-adv-x="819" 
d="M55 -494l140 367h264l-213 -367h-191zM338 -23q-360 0 -361 275q1 37 11 76h266q-6 -33 -6 -45q0 -72 106 -72q133 0 133 123q0 33 -15 49t-56 29q-158 47 -217 84q-109 70 -109 238t95 265t265 97t259 -70q90 -70 90 -197q0 -31 -8 -63h-265q2 10 2 22q0 74 -71 74
q-43 0 -70 -32t-27 -76t22 -62t116 -45t157 -65q102 -61 103 -213q0 -392 -420 -392z" />
    <glyph glyph-name="uni021A" unicode="&#x21a;" horiz-adv-x="831" 
d="M39 -494l139 367h264l-213 -367h-190zM170 0l213 1210h-260l45 252h823l-45 -252h-260l-213 -1210h-303z" />
    <glyph glyph-name="uni021B" unicode="&#x21b;" horiz-adv-x="610" 
d="M-37 -494l139 367h265l-213 -367h-191zM373 302q0 -64 104 -64h45l-41 -238h-80q-184 0 -256 43t-71 152q0 59 37 278l65 369h-104l41 231h104l70 289h268l-51 -289h172l-41 -231h-172l-80 -451q-10 -59 -10 -89z" />
    <glyph glyph-name="uni0226" unicode="&#x226;" horiz-adv-x="1005" 
d="M530 1589l48 275h274l-47 -275h-275zM621 518l-23 541l-213 -541h236zM631 279h-340l-109 -279h-327l675 1462h267l172 -1462h-326z" />
    <glyph glyph-name="uni0227" unicode="&#x227;" horiz-adv-x="884" 
d="M422 1188l47 274h274l-47 -274h-274zM461 459q-92 0 -134 -42t-42 -138q0 -74 80 -74q57 0 84 33t40 122l17 99h-45zM479 862q-82 0 -100 -108h-266q31 180 121 261q91 81 264 81q340 0 340 -303q0 -88 -21 -199l-104 -594h-224l-6 59q-41 -47 -83 -64t-111 -18
q-141 0 -219 68t-78 188q0 219 104 328q90 90 310 90h135l18 131q0 44 -18 62t-62 18z" />
    <glyph glyph-name="uni0237" unicode="&#x237;" horiz-adv-x="473" 
d="M193 1073h286l-190 -1075q-47 -299 -151 -387t-398 -82l41 238q104 -4 152 50t73 206z" />
    <glyph glyph-name="afii57929" unicode="&#x2bc;" horiz-adv-x="401" 
d="M98 924l142 538h297l-193 -538h-246z" />
    <glyph glyph-name="uni02C0" unicode="&#x2c0;" horiz-adv-x="1024" 
d="M697 1868q-34 0 -132 -39l-20 184q135 43 223 43q213 0 213 -190q0 -59 -22 -92q-22 -32 -74 -74t-62 -62t-20 -71h-201q20 111 36 145t54 74q40 39 39 59q0 23 -34 23z" />
    <glyph glyph-name="circumflex" unicode="&#x2c6;" horiz-adv-x="1024" 
d="M662 1348l-103 -158h-266l282 315h216l172 -315h-252z" />
    <glyph glyph-name="caron" unicode="&#x2c7;" horiz-adv-x="1024" 
d="M647 1341l105 158h264l-283 -317h-215l-172 317h254z" />
    <glyph glyph-name="uni02C9" unicode="&#x2c9;" horiz-adv-x="1024" 
d="M348 1221l37 211h569l-36 -211h-570z" />
    <glyph glyph-name="breve" unicode="&#x2d8;" horiz-adv-x="1024" 
d="M539 1447q-1 -33 27 -57t94 -24t99 29q34 29 56 106h178q-14 -178 -95 -257t-253 -79q-289 0 -289 203q1 47 13 133h172q-2 -20 -2 -54z" />
    <glyph glyph-name="dotaccent" unicode="&#x2d9;" horiz-adv-x="1024" 
d="M489 1188l48 274h274l-47 -274h-275z" />
    <glyph glyph-name="ring" unicode="&#x2da;" horiz-adv-x="1024" 
d="M686 1509q-49 0 -77 -40q-27 -40 -27 -106t65 -67q47 0 75 40t28 106t-64 67zM680 1640q114 0 176 -57t64 -163q0 -106 -79 -180t-193 -75q-114 1 -175 57t-61 164t77 182q77 72 191 72z" />
    <glyph glyph-name="ogonek" unicode="&#x2db;" horiz-adv-x="1024" 
d="M451 -440q-108 0 -165 41q-56 41 -57 116q0 113 113 203q37 29 113 80h200q-92 -86 -127 -136t-34 -97q0 -47 51 -48q39 0 100 21l6 -139q-92 -41 -200 -41z" />
    <glyph glyph-name="tilde" unicode="&#x2dc;" horiz-adv-x="1024" 
d="M477 1194h-168q43 164 103 238t144 74q85 0 140 -62q51 -63 70 -64q41 0 65 111h168q-31 -166 -87 -239q-56 -72 -153 -72t-143 62t-63 63q-49 0 -76 -111z" />
    <glyph glyph-name="hungarumlaut" unicode="&#x2dd;" horiz-adv-x="1024" 
d="M662 1186l167 321h283l-254 -321h-196zM344 1186l168 321h283l-254 -321h-197z" />
    <glyph glyph-name="uni0309" unicode="&#x309;" horiz-adv-x="1024" 
d="M662 1458q0 22 -35 23q-35 0 -129 -41l-23 184q131 45 223 45q213 0 213 -192q0 -57 -21 -91q-22 -33 -97 -92q-27 -23 -37 -42t-23 -72h-201q20 112 36 146t54 72q40 38 40 60z" />
    <glyph glyph-name="uni0312" unicode="&#x312;" horiz-adv-x="1024" 
d="M481 1186l297 321h213l-198 -321h-312z" />
    <glyph glyph-name="uni0313" unicode="&#x313;" horiz-adv-x="243" 
d="M39 913l166 586h264l-231 -586h-199z" />
    <glyph glyph-name="uni031B" unicode="&#x31b;" horiz-adv-x="243" 
d="M39 913l166 586h264l-231 -586h-199z" />
    <glyph glyph-name="uni0323" unicode="&#x323;" horiz-adv-x="1024" 
d="M203 -438l47 274h274l-47 -274h-274z" />
    <glyph glyph-name="uni037E" unicode="&#x37e;" horiz-adv-x="479" 
d="M166 780l51 285h303l-51 -285h-303zM-127 -385l195 661h313l-246 -661h-262z" />
    <glyph glyph-name="uni0387" unicode="&#x387;" horiz-adv-x="483" 
d="M98 580l49 284h304l-50 -284h-303z" />
    <glyph glyph-name="uni04D4" unicode="&#x4d4;" horiz-adv-x="1527" 
d="M729 549l117 661h-33l-373 -661h289zM688 311h-385l-176 -311h-348l901 1462h952l-45 -252h-446l-62 -350h377l-43 -252h-377l-65 -356h459l-44 -252h-753z" />
    <glyph glyph-name="uni04D5" unicode="&#x4d5;" horiz-adv-x="1359" 
d="M965 868q-57 0 -84 -36t-45 -138l-7 -26h211q14 72 15 118q0 82 -90 82zM459 459q-90 0 -132 -42t-42 -138q0 -74 80 -74q57 0 81 33t41 122l19 99h-47zM477 1096q188 0 273 -90q90 90 245 90q322 0 322 -312q0 -100 -39 -327h-485l-11 -54q-12 -61 -12 -114
q0 -78 82 -78q90 0 117 117h266q-21 -188 -107 -270t-278 -81q-192 0 -277 105q-107 -104 -267 -104q-316 -1 -316 243q0 223 104 334q94 96 309 96h136l2 19q14 70 14 116q0 76 -74 76q-47 0 -71 -26t-33 -82h-266q27 152 84 223q94 119 282 119z" />
    <glyph glyph-name="uni1E02" unicode="&#x1e02;" horiz-adv-x="1040" 
d="M541 1589l47 275h274l-47 -275h-274zM465 242q102 0 137 51q57 82 57 225q0 59 -24 82q-25 23 -92 23h-115l-68 -381h105zM571 864q80 0 119 47q55 70 55 209q0 55 -24 78q-25 23 -86 23h-103l-63 -357h102zM649 1462q233 0 321 -81t89 -244q0 -163 -72 -277
q-37 -61 -108 -96q86 -78 86 -254q0 -254 -121 -397q-53 -61 -121 -87t-180 -26h-529l258 1462h377z" />
    <glyph glyph-name="uni1E03" unicode="&#x1e03;" horiz-adv-x="917" 
d="M606 1188l47 274h275l-47 -274h-275zM590 772q0 78 -66 78q-102 0 -137 -201l-41 -225q-10 -59 -10 -102q0 -102 76 -103q46 0 74 46t46 159l50 274q8 43 8 74zM463 -23q-141 0 -230 89l-28 -66h-219l258 1462h286l-73 -422q68 55 161 56q258 0 259 -269q0 -88 -21 -204
l-39 -213q-37 -217 -100 -310q-47 -66 -105 -94t-149 -29z" />
    <glyph glyph-name="uni1E0C" unicode="&#x1e0c;" horiz-adv-x="1060" 
d="M182 -438l47 274h275l-47 -274h-275zM764 1120q0 100 -139 101h-93l-172 -979h93q113 4 149 50t68 220l78 438q16 106 16 170zM604 1462q262 0 361 -71q106 -82 106 -246q0 -72 -20 -195l-97 -544q-33 -225 -151 -318q-119 -92 -367 -88h-422l258 1462h332z" />
    <glyph glyph-name="uni1E0D" unicode="&#x1e0d;" horiz-adv-x="917" 
d="M205 -438l47 274h274l-47 -274h-274zM336 301q0 -78 61 -78q98 0 133 201l39 225q10 57 11 101q0 104 -76 104q-45 0 -71 -36t-42 -120l-41 -239q-14 -80 -14 -158zM47 244q0 127 27 272l37 213q35 199 111 283q77 84 210 84t207 -56l74 422h286l-258 -1462h-219l-4 66
q-53 -52 -93 -70t-106 -19q-139 0 -205 70t-67 197z" />
    <glyph glyph-name="uni1E1E" unicode="&#x1e1e;" horiz-adv-x="884" 
d="M539 1589l47 275h274l-47 -275h-274zM16 0l258 1462h734l-43 -252h-430l-66 -360h354l-43 -252h-354l-107 -598h-303z" />
    <glyph glyph-name="uni1E1F" unicode="&#x1e1f;" horiz-adv-x="583" 
d="M416 1589l47 275h274l-47 -275h-274zM180 842h-104l41 231h104l21 107q25 168 98 227q74 59 252 55h145l-37 -213h-59q-67 1 -89 -21t-36 -112l-8 -43h166l-41 -231h-166l-148 -842h-286z" />
    <glyph glyph-name="uni1E24" unicode="&#x1e24;" horiz-adv-x="1081" 
d="M231 -438l48 274h274l-47 -274h-275zM14 0l258 1462h303l-106 -602h258l107 602h303l-258 -1462h-304l109 608h-258l-109 -608h-303z" />
    <glyph glyph-name="uni1E25" unicode="&#x1e25;" horiz-adv-x="923" 
d="M154 -438l47 274h274l-47 -274h-274zM625 1096q262 0 262 -250q0 -80 -25 -215l-110 -631h-287l113 643q16 90 16 117q0 90 -74 90q-55 0 -83 -43t-48 -162l-115 -645h-286l258 1462h286l-73 -415q63 49 166 49z" />
    <glyph glyph-name="uni1E44" unicode="&#x1e44;" horiz-adv-x="1126" 
d="M612 1589l47 275h275l-47 -275h-275zM14 0l258 1462h303l173 -858l151 858h283l-258 -1462h-287l-186 874l-154 -874h-283z" />
    <glyph glyph-name="uni1E45" unicode="&#x1e45;" horiz-adv-x="923" 
d="M440 1188l47 274h275l-47 -274h-275zM627 1096q127 0 193 -65t67 -185q0 -80 -25 -217l-110 -629h-287l113 641q16 92 16 121q0 88 -74 88q-55 0 -83 -43t-48 -162l-115 -645h-286l188 1073h213l6 -86q57 61 107 85t125 24z" />
    <glyph glyph-name="uni1E5A" unicode="&#x1e5a;" horiz-adv-x="1019" 
d="M201 -438l47 274h274l-47 -274h-274zM541 819q102 0 141 58q61 84 61 225q1 70 -25 94t-100 25h-92l-69 -402h84zM633 1462q225 0 317 -67q106 -80 107 -254q0 -115 -31 -234t-76 -178q-59 -80 -172 -119l135 -610h-335l-99 588h-55l-105 -588h-303l258 1462h359z" />
    <glyph glyph-name="uni1E5B" unicode="&#x1e5b;" horiz-adv-x="665" 
d="M-84 -438l47 274h275l-48 -274h-274zM626 1096q74 0 158 -70l-168 -240q-49 68 -101 68t-84 -74t-66 -264l-91 -516h-286l188 1073h217l23 -86q45 59 90 84q46 25 120 25z" />
    <glyph glyph-name="uni1E62" unicode="&#x1e62;" horiz-adv-x="929" 
d="M150 -438l47 274h274l-47 -274h-274zM285 340q0 -121 118 -121q102 0 146 94q31 77 31 139t-26 90t-89 50q-182 59 -257 145t-75 236q0 203 107 355t325 153q183 0 283 -91t100 -257q0 -53 -12 -101h-277q4 51 5 96q0 111 -91 111q-76 0 -110 -84q-31 -72 -31 -135
t33 -95t123 -65q164 -61 227 -138t63 -198t-29 -223q-95 -324 -456 -324q-185 1 -289 89t-104 247q0 52 14 138h279q-8 -55 -8 -111z" />
    <glyph glyph-name="uni1E63" unicode="&#x1e63;" horiz-adv-x="819" 
d="M102 -438l48 274h274l-47 -274h-275zM338 -23q-360 0 -361 275q1 37 11 76h266q-6 -33 -6 -45q0 -72 106 -72q133 0 133 123q0 33 -15 49t-56 29q-158 47 -217 84q-109 70 -109 238t95 265t265 97t259 -70q90 -70 90 -197q0 -31 -8 -63h-265q2 10 2 22q0 74 -71 74
q-43 0 -70 -32t-27 -76t22 -62t116 -45t157 -65q102 -61 103 -213q0 -392 -420 -392z" />
    <glyph glyph-name="uni1E6C" unicode="&#x1e6c;" horiz-adv-x="831" 
d="M106 -438l48 274h274l-47 -274h-275zM170 0l215 1210h-260l43 252h823l-43 -252h-260l-215 -1210h-303z" />
    <glyph glyph-name="uni1E6D" unicode="&#x1e6d;" horiz-adv-x="610" 
d="M-4 -438l47 274h274l-47 -274h-274zM373 303q0 -65 104 -65h45l-43 -238h-78q-184 0 -256 43t-71 152q0 66 37 278l65 369h-104l41 231h104l68 289h270l-51 -289h172l-41 -231h-172l-80 -451q-10 -57 -10 -88z" />
    <glyph glyph-name="Wgrave" unicode="&#x1e80;" horiz-adv-x="1531" 
d="M1098 1589h-211l-185 322h283zM197 0l-15 1462h303l-45 -954l371 954h238l34 -954l293 954h301l-530 -1462h-275l-41 901l-360 -901h-274z" />
    <glyph glyph-name="wgrave" unicode="&#x1e81;" horiz-adv-x="1257" 
d="M889 1186h-211l-184 321h282zM147 0l-36 1073h290l-30 -641l250 641h204l23 -641l196 641h291l-413 -1073h-252l-31 592l-240 -592h-252z" />
    <glyph glyph-name="Wacute" unicode="&#x1e82;" horiz-adv-x="1531" 
d="M807 1589l199 322h311l-297 -322h-213zM197 0l-15 1462h303l-45 -954l371 954h238l34 -954l293 954h301l-530 -1462h-275l-41 901l-360 -901h-274z" />
    <glyph glyph-name="wacute" unicode="&#x1e83;" horiz-adv-x="1257" 
d="M598 1186l199 321h311l-297 -321h-213zM147 0l-36 1073h290l-30 -641l250 641h204l23 -641l196 641h291l-413 -1073h-252l-31 592l-240 -592h-252z" />
    <glyph glyph-name="Wdieresis" unicode="&#x1e84;" horiz-adv-x="1531" 
d="M1006 1595l47 269h254l-47 -269h-254zM645 1595l47 269h254l-47 -269h-254zM197 0l-15 1462h303l-45 -954l371 954h238l34 -954l293 954h301l-530 -1462h-275l-41 901l-360 -901h-274z" />
    <glyph glyph-name="wdieresis" unicode="&#x1e85;" horiz-adv-x="1257" 
d="M786 1192l48 270h253l-47 -270h-254zM436 1192l47 270h254l-47 -270h-254zM147 0l-36 1073h290l-30 -641l250 641h204l23 -641l196 641h291l-413 -1073h-252l-31 592l-240 -592h-252z" />
    <glyph glyph-name="uni1E92" unicode="&#x1e92;" horiz-adv-x="839" 
d="M111 -438l47 274h274l-47 -274h-274zM-84 0l29 162l637 1048h-402l43 252h742l-29 -162l-635 -1048h469l-43 -252h-811z" />
    <glyph glyph-name="uni1E93" unicode="&#x1e93;" horiz-adv-x="702" 
d="M43 -438l47 274h275l-48 -274h-274zM-90 0l29 168l448 668h-289l41 237h635l-29 -170l-448 -665h352l-41 -238h-698z" />
    <glyph glyph-name="uni1EA0" unicode="&#x1ea0;" horiz-adv-x="1005" 
d="M221 -438l49 274h275l-49 -274h-275zM621 518l-23 541l-213 -541h236zM631 279h-340l-109 -279h-327l675 1462h267l172 -1462h-326z" />
    <glyph glyph-name="uni1EA1" unicode="&#x1ea1;" horiz-adv-x="884" 
d="M156 -438l47 274h274l-47 -274h-274zM461 459q-92 0 -134 -42t-42 -138q0 -74 80 -74q57 0 84 33t40 122l17 99h-45zM479 862q-82 0 -100 -108h-266q31 180 121 261q91 81 264 81q340 0 340 -303q0 -88 -21 -199l-104 -594h-224l-6 59q-41 -47 -83 -64t-111 -18
q-141 0 -219 68t-78 188q0 219 104 328q90 90 310 90h135l18 131q0 44 -18 62t-62 18z" />
    <glyph glyph-name="uni1EA2" unicode="&#x1ea2;" horiz-adv-x="1005" 
d="M705 1846q0 22 -35 22t-131 -39l-23 184q135 43 225 43q213 0 213 -190q0 -59 -22 -92t-98 -93q-44 -34 -60 -114h-201q19 111 35 145t56 74q40 38 41 60zM621 518l-23 541l-213 -541h236zM631 279h-340l-109 -279h-327l675 1462h267l172 -1462h-326z" />
    <glyph glyph-name="uni1EA3" unicode="&#x1ea3;" horiz-adv-x="884" 
d="M578 1481q-36 0 -129 -41l-21 184q127 45 223 45q213 0 213 -192q0 -57 -22 -91t-74 -74q-52 -41 -62 -61t-20 -71h-201q19 112 35 146t56 72t38 60q0 22 -36 23zM461 459q-92 0 -134 -42t-42 -138q0 -74 80 -74q57 0 84 33t40 122l17 99h-45zM479 862q-82 0 -100 -108
h-266q31 180 121 261q91 81 264 81q340 0 340 -303q0 -88 -21 -199l-104 -594h-224l-6 59q-41 -47 -83 -64t-111 -18q-141 0 -219 68t-78 188q0 219 104 328q90 90 310 90h135l18 131q0 44 -18 62t-62 18z" />
    <glyph glyph-name="uni1EA4" unicode="&#x1ea4;" horiz-adv-x="1005" 
d="M711 1667l-88 -108h-248l256 258h196l164 -258h-231zM657 1870l142 244h207l-199 -244h-150zM621 518l-23 541l-213 -541h236zM631 279h-340l-109 -279h-327l675 1462h267l172 -1462h-326z" />
    <glyph glyph-name="uni1EA5" unicode="&#x1ea5;" horiz-adv-x="884" 
d="M580 1266l-86 -109h-248l254 258h196l164 -258h-229zM526 1468l142 244h206l-198 -244h-150zM461 459q-92 0 -134 -42t-42 -138q0 -74 80 -74q57 0 84 33t40 122l17 99h-45zM479 862q-82 0 -100 -108h-266q31 180 121 261q91 81 264 81q340 0 340 -303q0 -88 -21 -199
l-104 -594h-224l-6 59q-41 -47 -83 -64t-111 -18q-141 0 -219 68t-78 188q0 219 104 328q90 90 310 90h135l18 131q0 44 -18 62t-62 18z" />
    <glyph glyph-name="uni1EA6" unicode="&#x1ea6;" horiz-adv-x="1005" 
d="M711 1667l-88 -108h-248l256 258h196l164 -258h-231zM797 1872h-131l-131 242h194zM621 518l-23 541l-213 -541h236zM631 279h-340l-109 -279h-327l675 1462h267l172 -1462h-326z" />
    <glyph glyph-name="uni1EA7" unicode="&#x1ea7;" horiz-adv-x="884" 
d="M580 1266l-88 -109h-246l254 258h198l162 -258h-231zM666 1470h-131l-132 242h195zM461 459q-92 0 -134 -42t-42 -138q0 -74 80 -74q57 0 84 33t40 122l17 99h-45zM479 862q-82 0 -100 -108h-266q31 180 121 261q91 81 264 81q340 0 340 -303q0 -88 -21 -199l-104 -594
h-224l-6 59q-41 -47 -83 -64t-111 -18q-141 0 -219 68t-78 188q0 219 104 328q90 90 310 90h135l18 131q0 44 -18 62t-62 18z" />
    <glyph glyph-name="uni1EA8" unicode="&#x1ea8;" horiz-adv-x="1005" 
d="M711 1659l-86 -103h-248l250 236h196l170 -236h-231zM717 1996q0 15 -10 15q-16 0 -72 -29l-17 123q72 33 156 33q129 0 129 -117q0 -61 -39 -94t-47 -49t-14 -55h-158q8 84 40 121t32 52zM621 518l-23 541l-213 -541h236zM631 279h-340l-109 -279h-327l675 1462h267
l172 -1462h-326z" />
    <glyph glyph-name="uni1EA9" unicode="&#x1ea9;" horiz-adv-x="884" 
d="M580 1257l-86 -102h-248l250 236h198l168 -236h-231zM586 1593q0 16 -11 17q-20 0 -71 -29l-17 123q72 33 156 33q129 0 129 -117q0 -61 -47 -104q-29 -20 -38 -37t-15 -58h-158q8 84 40 120t32 52zM461 459q-92 0 -134 -42t-42 -138q0 -74 80 -74q57 0 84 33t40 122
l17 99h-45zM479 862q-82 0 -100 -108h-266q31 180 121 261q91 81 264 81q340 0 340 -303q0 -88 -21 -199l-104 -594h-224l-6 59q-41 -47 -83 -64t-111 -18q-141 0 -219 68t-78 188q0 219 104 328q90 90 310 90h135l18 131q0 44 -18 62t-62 18z" />
    <glyph glyph-name="uni1EAA" unicode="&#x1eaa;" horiz-adv-x="1005" 
d="M711 1667l-88 -108h-248l254 258h198l164 -258h-231zM831 1858q-47 0 -71 16t-70 74q-10 10 -20 10q-33 0 -56 -88h-133q35 133 83 191t124 59q43 0 66 -14t51 -50t39 -37q33 0 53 88h133q-27 -133 -74 -191t-125 -58zM621 518l-23 541l-213 -541h236zM631 279h-340
l-109 -279h-327l675 1462h267l172 -1462h-326z" />
    <glyph glyph-name="uni1EAB" unicode="&#x1eab;" horiz-adv-x="884" 
d="M580 1266l-88 -109h-248l254 258h198l164 -258h-231zM557 1718q43 0 66 -14t73 -76q8 -8 19 -8q31 0 51 86h133q-25 -131 -73 -190t-126 -60q-44 0 -70 16t-71 74q-6 10 -18 10q-35 0 -58 -88h-133q35 134 83 192t124 58zM461 459q-92 0 -134 -42t-42 -138q0 -74 80 -74
q57 0 84 33t40 122l17 99h-45zM479 862q-82 0 -100 -108h-266q31 180 121 261q91 81 264 81q340 0 340 -303q0 -88 -21 -199l-104 -594h-224l-6 59q-41 -47 -83 -64t-111 -18q-141 0 -219 68t-78 188q0 219 104 328q90 90 310 90h135l18 131q0 44 -18 62t-62 18z" />
    <glyph glyph-name="uni1EAC" unicode="&#x1eac;" horiz-adv-x="1005" 
d="M229 -438l47 274h275l-47 -274h-275zM702 1751l-102 -158h-266l282 316h215l173 -316h-252zM621 518l-23 541l-213 -541h236zM631 279h-340l-109 -279h-327l675 1462h267l172 -1462h-326z" />
    <glyph glyph-name="uni1EAD" unicode="&#x1ead;" horiz-adv-x="884" 
d="M162 -438l47 274h274l-47 -274h-274zM580 1348l-103 -158h-266l285 315h213l172 -315h-252zM461 459q-92 0 -134 -42t-42 -138q0 -74 80 -74q57 0 84 33t40 122l17 99h-45zM479 862q-82 0 -100 -108h-266q31 180 121 261q91 81 264 81q340 0 340 -303q0 -88 -21 -199
l-104 -594h-224l-6 59q-41 -47 -83 -64t-111 -18q-141 0 -219 68t-78 188q0 219 104 328q90 90 310 90h135l18 131q0 44 -18 62t-62 18z" />
    <glyph glyph-name="uni1EAE" unicode="&#x1eae;" horiz-adv-x="1005" 
d="M606 1823q0 -82 111 -82q80 0 112 43q18 18 35 76h172q-29 -226 -172 -286q-63 -28 -168 -28q-258 0 -258 203q1 39 13 111h159q-4 -33 -4 -37zM657 1870l142 244h207l-199 -244h-150zM621 518l-23 541l-213 -541h236zM631 279h-340l-109 -279h-327l675 1462h267
l172 -1462h-326z" />
    <glyph glyph-name="uni1EAF" unicode="&#x1eaf;" horiz-adv-x="884" 
d="M477 1421q0 -80 109 -80q80 0 114 41q16 23 35 76h172q-32 -224 -174 -286q-63 -28 -168 -27q-256 0 -256 203q0 32 10 110h160q-2 -23 -2 -37zM526 1468l142 244h206l-198 -244h-150zM461 459q-92 0 -134 -42t-42 -138q0 -74 80 -74q57 0 84 33t40 122l17 99h-45z
M479 862q-82 0 -100 -108h-266q31 180 121 261q91 81 264 81q340 0 340 -303q0 -88 -21 -199l-104 -594h-224l-6 59q-41 -47 -83 -64t-111 -18q-141 0 -219 68t-78 188q0 219 104 328q90 90 310 90h135l18 131q0 44 -18 62t-62 18z" />
    <glyph glyph-name="uni1EB0" unicode="&#x1eb0;" horiz-adv-x="1005" 
d="M606 1823q0 -82 111 -82q80 0 112 43q18 18 35 76h172q-29 -226 -172 -286q-63 -28 -168 -28q-258 0 -258 203q1 39 13 111h159q-4 -33 -4 -37zM817 1872h-131l-131 242h195zM621 518l-23 541l-213 -541h236zM631 279h-340l-109 -279h-327l675 1462h267l172 -1462h-326z
" />
    <glyph glyph-name="uni1EB1" unicode="&#x1eb1;" horiz-adv-x="884" 
d="M477 1421q0 -80 109 -80q80 0 114 41q16 23 35 76h172q-32 -224 -174 -286q-63 -28 -168 -27q-256 0 -256 203q0 32 10 110h160q-2 -23 -2 -37zM680 1470h-131l-131 242h194zM461 459q-92 0 -134 -42t-42 -138q0 -74 80 -74q57 0 84 33t40 122l17 99h-45zM479 862
q-82 0 -100 -108h-266q31 180 121 261q91 81 264 81q340 0 340 -303q0 -88 -21 -199l-104 -594h-224l-6 59q-41 -47 -83 -64t-111 -18q-141 0 -219 68t-78 188q0 219 104 328q90 90 310 90h135l18 131q0 44 -18 62t-62 18z" />
    <glyph glyph-name="uni1EB2" unicode="&#x1eb2;" horiz-adv-x="1005" 
d="M606 1823q0 -82 111 -82q80 0 112 43q18 18 35 76h172q-29 -226 -172 -286q-63 -28 -168 -28q-258 0 -258 203q1 39 13 111h159q-4 -33 -4 -37zM803 1819h-156q10 86 42 124t32 54t-13 16t-71 -28l-16 120q80 35 157 35q129 0 129 -112q0 -66 -49 -111l-29 -27
q-14 -18 -17 -32t-6 -25q-3 -10 -3 -14zM621 518l-23 541l-213 -541h236zM631 279h-340l-109 -279h-327l675 1462h267l172 -1462h-326z" />
    <glyph glyph-name="uni1EB3" unicode="&#x1eb3;" horiz-adv-x="884" 
d="M477 1421q0 -80 109 -80q80 0 114 41q16 23 35 76h172q-32 -224 -174 -286q-63 -28 -168 -27q-256 0 -256 203q0 32 10 110h160q-2 -23 -2 -37zM590 1593q0 16 -10 17q-23 0 -74 -29l-14 123q72 33 155 33q129 0 129 -113q0 -66 -40 -100t-47 -48q-7 -12 -15 -59h-158
q12 90 43 125t31 51zM461 459q-92 0 -134 -42t-42 -138q0 -74 80 -74q57 0 84 33t40 122l17 99h-45zM479 862q-82 0 -100 -108h-266q31 180 121 261q91 81 264 81q340 0 340 -303q0 -88 -21 -199l-104 -594h-224l-6 59q-41 -47 -83 -64t-111 -18q-141 0 -219 68t-78 188
q0 219 104 328q90 90 310 90h135l18 131q0 44 -18 62t-62 18z" />
    <glyph glyph-name="uni1EB4" unicode="&#x1eb4;" horiz-adv-x="1005" 
d="M594 1800q0 -72 111 -71q61 -1 91 21t50 79h155q-16 -82 -27 -113t-34 -59q-78 -106 -256 -107q-248 0 -248 189q0 41 10 90h150q-2 -14 -2 -29zM688 2138q43 0 66 -14t73 -76q6 -10 19 -10q33 0 51 88h133q-27 -136 -73 -194t-126 -58q-45 0 -71 16t-70 74q-6 10 -20 10
t-31 -24t-25 -64h-133q35 136 83 194t124 58zM621 518l-23 541l-213 -541h236zM631 279h-340l-109 -279h-327l675 1462h267l172 -1462h-326z" />
    <glyph glyph-name="uni1EB5" unicode="&#x1eb5;" horiz-adv-x="884" 
d="M463 1399q0 -72 110 -72q61 0 92 22q30 22 50 78h155q-27 -129 -59 -172q-80 -106 -258 -106q-248 0 -248 188q0 41 10 90h150q-2 -16 -2 -28zM702 1473q-44 0 -70 16t-73 74q-6 10 -18 10q-35 0 -58 -88h-133q66 249 192 251q60 0 82 -14t72 -75q10 -10 19 -11
q33 0 51 88h133q-27 -133 -73 -192t-124 -59zM461 459q-92 0 -134 -42t-42 -138q0 -74 80 -74q57 0 84 33t40 122l17 99h-45zM479 862q-82 0 -100 -108h-266q31 180 121 261q91 81 264 81q340 0 340 -303q0 -88 -21 -199l-104 -594h-224l-6 59q-41 -47 -83 -64t-111 -18
q-141 0 -219 68t-78 188q0 219 104 328q90 90 310 90h135l18 131q0 44 -18 62t-62 18z" />
    <glyph glyph-name="uni1EB6" unicode="&#x1eb6;" horiz-adv-x="1005" 
d="M215 -438l47 274h275l-48 -274h-274zM592 1868q0 -99 115 -99q71 0 105 29t56 107h179q-15 -178 -97 -257t-252 -79q-289 0 -288 203q0 47 12 133h170v-37zM621 518l-23 541l-213 -541h236zM631 279h-340l-109 -279h-327l675 1462h267l172 -1462h-326z" />
    <glyph glyph-name="uni1EB7" unicode="&#x1eb7;" horiz-adv-x="884" 
d="M135 -438l47 274h275l-47 -274h-275zM471 1464q0 -98 115 -98q70 0 104 29t58 106h178q-14 -178 -96 -257t-252 -79q-289 0 -289 203q0 49 12 133h172q-2 -18 -2 -37zM461 459q-92 0 -134 -42t-42 -138q0 -74 80 -74q57 0 84 33t40 122l17 99h-45zM479 862
q-82 0 -100 -108h-266q31 180 121 261q91 81 264 81q340 0 340 -303q0 -88 -21 -199l-104 -594h-224l-6 59q-41 -47 -83 -64t-111 -18q-141 0 -219 68t-78 188q0 219 104 328q90 90 310 90h135l18 131q0 44 -18 62t-62 18z" />
    <glyph glyph-name="uni1EB8" unicode="&#x1eb8;" horiz-adv-x="915" 
d="M231 -438l48 274h274l-47 -274h-275zM16 0l258 1462h746l-43 -252h-442l-64 -350h373l-43 -252h-373l-66 -356h455l-43 -252h-758z" />
    <glyph glyph-name="uni1EB9" unicode="&#x1eb9;" horiz-adv-x="915" 
d="M176 -438l49 274h275l-49 -274h-275zM610 786q0 82 -90 82q-57 0 -84 -36t-45 -138l-6 -26h211q14 70 14 118zM330 289q0 -78 80 -78q50 0 76 28t40 89h267q-19 -186 -111 -268t-278 -83q-186 0 -269 79q-84 79 -84 243q0 86 23 215l22 141q41 244 137 342q97 99 283 99
t271 -78t85 -242q0 -115 -36 -319h-486l-12 -58q-8 -45 -8 -110z" />
    <glyph glyph-name="uni1EBA" unicode="&#x1eba;" horiz-adv-x="915" 
d="M664 1868q-34 0 -132 -39l-20 184q135 43 223 43q213 0 213 -190q0 -59 -22 -92t-72 -73q-52 -41 -63 -61t-21 -73h-201q21 111 35 145t54 74q40 39 40 59q0 23 -34 23zM16 0l258 1462h746l-43 -252h-442l-64 -350h373l-43 -252h-373l-66 -356h455l-43 -252h-758z" />
    <glyph glyph-name="uni1EBB" unicode="&#x1ebb;" horiz-adv-x="915" 
d="M582 1458q0 22 -35 23q-35 0 -131 -41l-21 184q127 45 223 45q213 0 213 -192q0 -57 -21 -91q-22 -33 -99 -92q-27 -23 -37 -43t-21 -71h-200q20 112 35 146q14 34 54 72t40 60zM610 786q0 82 -90 82q-57 0 -84 -36t-45 -138l-6 -26h211q14 70 14 118zM330 289
q0 -78 80 -78q50 0 76 28t40 89h267q-19 -186 -111 -268t-278 -83q-186 0 -269 79q-84 79 -84 243q0 86 23 215l22 141q41 244 137 342q97 99 283 99t271 -78t85 -242q0 -115 -36 -319h-486l-12 -58q-8 -45 -8 -110z" />
    <glyph glyph-name="uni1EBC" unicode="&#x1ebc;" horiz-adv-x="915" 
d="M592 1909q86 0 141 -62q51 -63 70 -63q41 0 65 110h168q-33 -168 -88 -240t-152 -71q-97 0 -147 70q-41 55 -59 55q-49 0 -76 -111h-168q41 164 100 238q60 74 146 74zM16 0l258 1462h746l-43 -252h-442l-64 -350h373l-43 -252h-373l-66 -356h455l-43 -252h-758z" />
    <glyph glyph-name="uni1EBD" unicode="&#x1ebd;" horiz-adv-x="915" 
d="M424 1194h-168q43 164 102 238q58 74 144 74t141 -62q51 -63 70 -64q41 0 65 111h168q-31 -166 -87 -239q-56 -72 -153 -72q-96 0 -142 62t-64 63q-49 0 -76 -111zM610 786q0 82 -90 82q-57 0 -84 -36t-45 -138l-6 -26h211q14 70 14 118zM330 289q0 -78 80 -78
q50 0 76 28t40 89h267q-19 -186 -111 -268t-278 -83q-186 0 -269 79q-84 79 -84 243q0 86 23 215l22 141q41 244 137 342q97 99 283 99t271 -78t85 -242q0 -115 -36 -319h-486l-12 -58q-8 -45 -8 -110z" />
    <glyph glyph-name="uni1EBE" unicode="&#x1ebe;" horiz-adv-x="915" 
d="M690 1667l-88 -108h-248l254 258h199l164 -258h-232zM637 1870l141 244h207l-199 -244h-149zM16 0l258 1462h746l-43 -252h-442l-64 -350h373l-43 -252h-373l-66 -356h455l-43 -252h-758z" />
    <glyph glyph-name="uni1EBF" unicode="&#x1ebf;" horiz-adv-x="915" 
d="M594 1266l-86 -109h-248l254 258h199l164 -258h-232zM543 1468l139 244h209l-201 -244h-147zM610 786q0 82 -90 82q-57 0 -84 -36t-45 -138l-6 -26h211q14 70 14 118zM330 289q0 -78 80 -78q50 0 76 28t40 89h267q-19 -186 -111 -268t-278 -83q-186 0 -269 79
q-84 79 -84 243q0 86 23 215l22 141q41 244 137 342q97 99 283 99t271 -78t85 -242q0 -115 -36 -319h-486l-12 -58q-8 -45 -8 -110z" />
    <glyph glyph-name="uni1EC0" unicode="&#x1ec0;" horiz-adv-x="915" 
d="M690 1667l-88 -108h-248l256 258h197l164 -258h-232zM776 1872h-131l-131 242h195zM16 0l258 1462h746l-43 -252h-442l-64 -350h373l-43 -252h-373l-66 -356h455l-43 -252h-758z" />
    <glyph glyph-name="uni1EC1" unicode="&#x1ec1;" horiz-adv-x="915" 
d="M594 1266l-86 -109h-248l254 258h199l164 -258h-232zM680 1470h-131l-131 242h194zM610 786q0 82 -90 82q-57 0 -84 -36t-45 -138l-6 -26h211q14 70 14 118zM330 289q0 -78 80 -78q50 0 76 28t40 89h267q-19 -186 -111 -268t-278 -83q-186 0 -269 79q-84 79 -84 243
q0 86 23 215l22 141q41 244 137 342q97 99 283 99t271 -78t85 -242q0 -115 -36 -319h-486l-12 -58q-8 -45 -8 -110z" />
    <glyph glyph-name="uni1EC2" unicode="&#x1ec2;" horiz-adv-x="915" 
d="M688 1659l-86 -103h-248l252 236h197l168 -236h-232zM686 2011q-16 0 -72 -29l-16 123q72 33 156 33q129 0 129 -117q0 -61 -39 -94q-40 -33 -48 -48t-14 -56h-157q8 88 40 123q31 35 31 50t-10 15zM16 0l258 1462h746l-43 -252h-442l-64 -350h373l-43 -252h-373
l-66 -356h455l-43 -252h-758z" />
    <glyph glyph-name="uni1EC3" unicode="&#x1ec3;" horiz-adv-x="915" 
d="M594 1257l-86 -102h-248l250 236h199l168 -236h-232zM602 1593q0 16 -10 17q-18 0 -74 -29l-16 123q72 33 157 33q129 0 129 -117q0 -61 -49 -104q-29 -20 -38 -37t-15 -58h-158q12 92 43 124t31 48zM610 786q0 82 -90 82q-57 0 -84 -36t-45 -138l-6 -26h211
q14 70 14 118zM330 289q0 -78 80 -78q50 0 76 28t40 89h267q-19 -186 -111 -268t-278 -83q-186 0 -269 79q-84 79 -84 243q0 86 23 215l22 141q41 244 137 342q97 99 283 99t271 -78t85 -242q0 -115 -36 -319h-486l-12 -58q-8 -45 -8 -110z" />
    <glyph glyph-name="uni1EC4" unicode="&#x1ec4;" horiz-adv-x="915" 
d="M688 1667l-86 -108h-248l254 258h199l164 -258h-232zM811 1858q-47 0 -73 16t-70 74q-6 10 -19 10q-34 0 -57 -88h-133q37 135 85 192t124 58q42 0 64 -14t52 -50t39 -37q33 0 51 88h136q-27 -133 -74 -191t-125 -58zM16 0l258 1462h746l-43 -252h-442l-64 -350h373
l-43 -252h-373l-66 -356h455l-43 -252h-758z" />
    <glyph glyph-name="uni1EC5" unicode="&#x1ec5;" horiz-adv-x="915" 
d="M594 1266l-88 -109h-248l256 258h197l163 -258h-231zM571 1718q43 0 66 -14t74 -76q8 -8 18 -8q29 0 51 86h133q-25 -131 -73 -190t-125 -60q-45 0 -71 16t-71 74q-6 10 -18 10q-34 0 -57 -88h-133q35 133 82 192q48 58 124 58zM610 786q0 82 -90 82q-57 0 -84 -36
t-45 -138l-6 -26h211q14 70 14 118zM330 289q0 -78 80 -78q50 0 76 28t40 89h267q-19 -186 -111 -268t-278 -83q-186 0 -269 79q-84 79 -84 243q0 86 23 215l22 141q41 244 137 342q97 99 283 99t271 -78t85 -242q0 -115 -36 -319h-486l-12 -58q-8 -45 -8 -110z" />
    <glyph glyph-name="uni1EC6" unicode="&#x1ec6;" horiz-adv-x="915" 
d="M231 -438l48 274h274l-47 -274h-275zM694 1751l-104 -158h-264l282 316h215l172 -316h-252zM16 0l258 1462h746l-43 -252h-442l-64 -350h373l-43 -252h-373l-66 -356h455l-43 -252h-758z" />
    <glyph glyph-name="uni1EC7" unicode="&#x1ec7;" horiz-adv-x="915" 
d="M176 -438l49 274h275l-49 -274h-275zM606 1348l-102 -158h-266l284 315h213l174 -315h-254zM610 786q0 82 -90 82q-57 0 -84 -36t-45 -138l-6 -26h211q14 70 14 118zM330 289q0 -78 80 -78q50 0 76 28t40 89h267q-19 -186 -111 -268t-278 -83q-186 0 -269 79
q-84 79 -84 243q0 86 23 215l22 141q41 244 137 342q97 99 283 99t271 -78t85 -242q0 -115 -36 -319h-486l-12 -58q-8 -45 -8 -110z" />
    <glyph glyph-name="uni1EC8" unicode="&#x1ec8;" horiz-adv-x="520" 
d="M461 1846q0 22 -35 22t-131 -39l-23 184q135 43 226 43q213 0 213 -190q0 -59 -22 -92t-99 -93q-28 -23 -38 -43t-20 -71h-200q20 111 36 147t54 73q39 37 39 59zM14 0l258 1462h303l-258 -1462h-303z" />
    <glyph glyph-name="uni1EC9" unicode="&#x1ec9;" horiz-adv-x="462" 
d="M377 1460q0 22 -38 21q-38 0 -128 -41l-23 184q127 45 226 45q213 0 213 -192q0 -57 -22 -91t-99 -92q-28 -23 -38 -42t-22 -72h-200q20 110 36 144t55 74q40 40 40 62zM-6 0l188 1073h287l-188 -1073h-287z" />
    <glyph glyph-name="uni1ECA" unicode="&#x1eca;" horiz-adv-x="520" 
d="M-49 -438l47 274h274l-47 -274h-274zM14 0l258 1462h303l-258 -1462h-303z" />
    <glyph glyph-name="uni1ECB" unicode="&#x1ecb;" horiz-adv-x="462" 
d="M-78 -438l47 274h275l-47 -274h-275zM-6 0l188 1073h287l-188 -1073h-287zM203 1190l51 285h287l-52 -285h-286z" />
    <glyph glyph-name="uni1ECC" unicode="&#x1ecc;" horiz-adv-x="1062" 
d="M221 -438l49 274h275l-49 -274h-275zM358 330q0 -111 121 -111q100 0 142 88q22 45 49 195l80 459q23 133 22 172q0 111 -119 110q-100 0 -145 -88q-20 -39 -47 -194l-80 -459q-23 -115 -23 -172zM1071 1145q0 -72 -22 -213l-91 -508q-24 -129 -50 -197
q-97 -250 -437 -250q-215 0 -313 82t-99 258q0 82 23 213l90 508q23 131 48 198q26 66 81 128q108 120 341 121q233 0 331 -82t98 -258z" />
    <glyph glyph-name="uni1ECD" unicode="&#x1ecd;" horiz-adv-x="921" 
d="M152 -438l49 274h274l-49 -274h-274zM598 782q0 80 -80 80q-57 0 -85 -40t-48 -152l-47 -267q-14 -86 -14 -112q0 -80 77 -80q57 -1 85 39t49 153l47 267q16 88 16 112zM517 1096q187 0 273 -74t87 -229q0 -86 -21 -197l-39 -223q-39 -219 -132 -307t-281 -88t-273 73
q-86 74 -86 230q1 75 21 198l38 223q38 218 132 306t281 88z" />
    <glyph glyph-name="uni1ECE" unicode="&#x1ece;" horiz-adv-x="1062" 
d="M752 1846q0 22 -36 22t-130 -39l-21 184q135 43 223 43q213 0 213 -190q1 -59 -21 -92t-99 -93q-27 -23 -37 -43t-21 -71h-200q20 111 35 145q14 34 54 74q40 38 40 60zM358 330q0 -111 121 -111q100 0 142 88q22 45 49 195l80 459q23 133 22 172q0 111 -119 110
q-100 0 -145 -88q-20 -39 -47 -194l-80 -459q-23 -115 -23 -172zM1071 1145q0 -72 -22 -213l-91 -508q-24 -129 -50 -197q-97 -250 -437 -250q-215 0 -313 82t-99 258q0 82 23 213l90 508q23 131 48 198q26 66 81 128q108 120 341 121q233 0 331 -82t98 -258z" />
    <glyph glyph-name="uni1ECF" unicode="&#x1ecf;" horiz-adv-x="921" 
d="M578 1481q-34 0 -132 -41l-22 184q131 45 225 45q213 0 213 -192q0 -57 -21 -91q-22 -33 -100 -92q-27 -23 -37 -42t-20 -72h-203q23 112 38 146t55 72t38 60q0 22 -34 23zM598 782q0 80 -80 80q-57 0 -85 -40t-48 -152l-47 -267q-14 -86 -14 -112q0 -80 77 -80
q57 -1 85 39t49 153l47 267q16 88 16 112zM517 1096q187 0 273 -74t87 -229q0 -86 -21 -197l-39 -223q-39 -219 -132 -307t-281 -88t-273 73q-86 74 -86 230q1 75 21 198l38 223q38 218 132 306t281 88z" />
    <glyph glyph-name="uni1ED0" unicode="&#x1ed0;" horiz-adv-x="1062" 
d="M725 1667l-86 -108h-248l254 258h199l164 -258h-232zM674 1870l139 244h209l-201 -244h-147zM358 330q0 -111 121 -111q100 0 142 88q22 45 49 195l80 459q23 133 22 172q0 111 -119 110q-100 0 -145 -88q-20 -39 -47 -194l-80 -459q-23 -115 -23 -172zM1071 1145
q0 -72 -22 -213l-91 -508q-24 -129 -50 -197q-97 -250 -437 -250q-215 0 -313 82t-99 258q0 82 23 213l90 508q23 131 48 198q26 66 81 128q108 120 341 121q233 0 331 -82t98 -258z" />
    <glyph glyph-name="uni1ED1" unicode="&#x1ed1;" horiz-adv-x="921" 
d="M598 1266l-88 -109h-248l254 258h199l164 -258h-232zM545 1468l141 244h207l-199 -244h-149zM598 782q0 80 -80 80q-57 0 -85 -40t-48 -152l-47 -267q-14 -86 -14 -112q0 -80 77 -80q57 -1 85 39t49 153l47 267q16 88 16 112zM517 1096q187 0 273 -74t87 -229
q0 -86 -21 -197l-39 -223q-39 -219 -132 -307t-281 -88t-273 73q-86 74 -86 230q1 75 21 198l38 223q38 218 132 306t281 88z" />
    <glyph glyph-name="uni1ED2" unicode="&#x1ed2;" horiz-adv-x="1062" 
d="M737 1667l-86 -108h-248l254 258h199l164 -258h-232zM825 1872h-133l-131 242h197zM358 330q0 -111 121 -111q100 0 142 88q22 45 49 195l80 459q23 133 22 172q0 111 -119 110q-100 0 -145 -88q-20 -39 -47 -194l-80 -459q-23 -115 -23 -172zM1071 1145q0 -72 -22 -213
l-91 -508q-24 -129 -50 -197q-97 -250 -437 -250q-215 0 -313 82t-99 258q0 82 23 213l90 508q23 131 48 198q26 66 81 128q108 120 341 121q233 0 331 -82t98 -258z" />
    <glyph glyph-name="uni1ED3" unicode="&#x1ed3;" horiz-adv-x="921" 
d="M598 1266l-88 -109h-248l256 258h197l164 -258h-232zM684 1470h-131l-131 242h194zM598 782q0 80 -80 80q-57 0 -85 -40t-48 -152l-47 -267q-14 -86 -14 -112q0 -80 77 -80q57 -1 85 39t49 153l47 267q16 88 16 112zM517 1096q187 0 273 -74t87 -229q0 -86 -21 -197
l-39 -223q-39 -219 -132 -307t-281 -88t-273 73q-86 74 -86 230q1 75 21 198l38 223q38 218 132 306t281 88z" />
    <glyph glyph-name="uni1ED4" unicode="&#x1ed4;" horiz-adv-x="1062" 
d="M737 1659l-86 -103h-248l250 236h199l168 -236h-232zM735 2011q-16 0 -73 -29l-17 123q78 33 158 33q129 0 129 -117q0 -61 -39 -94t-49 -49t-15 -55h-157q8 82 41 119t33 53t-11 16zM358 330q0 -111 121 -111q100 0 142 88q22 45 49 195l80 459q23 133 22 172
q0 111 -119 110q-100 0 -145 -88q-20 -39 -47 -194l-80 -459q-23 -115 -23 -172zM1071 1145q0 -72 -22 -213l-91 -508q-24 -129 -50 -197q-97 -250 -437 -250q-215 0 -313 82t-99 258q0 82 23 213l90 508q23 131 48 198q26 66 81 128q108 120 341 121q233 0 331 -82t98 -258
z" />
    <glyph glyph-name="uni1ED5" unicode="&#x1ed5;" horiz-adv-x="921" 
d="M598 1257l-88 -102h-248l252 236h197l168 -236h-232zM604 1593q0 16 -10 17q-20 0 -72 -29l-16 123q72 33 156 33q129 0 129 -117q0 -61 -50 -104q-27 -20 -36 -37t-15 -58h-158q8 88 40 122t32 50zM598 782q0 80 -80 80q-57 0 -85 -40t-48 -152l-47 -267
q-14 -86 -14 -112q0 -80 77 -80q57 -1 85 39t49 153l47 267q16 88 16 112zM517 1096q187 0 273 -74t87 -229q0 -86 -21 -197l-39 -223q-39 -219 -132 -307t-281 -88t-273 73q-86 74 -86 230q1 75 21 198l38 223q38 218 132 306t281 88z" />
    <glyph glyph-name="uni1ED6" unicode="&#x1ed6;" horiz-adv-x="1062" 
d="M737 1667l-88 -108h-248l256 258h197l164 -258h-232zM858 1858q-45 0 -71 16t-70 74q-6 10 -19 10q-34 0 -57 -88h-133q35 133 83 191t124 59q43 0 65 -14t52 -50q28 -36 40 -37q31 0 52 88h133q-27 -133 -73 -191t-126 -58zM358 330q0 -111 121 -111q100 0 142 88
q22 45 49 195l80 459q23 133 22 172q0 111 -119 110q-100 0 -145 -88q-20 -39 -47 -194l-80 -459q-23 -115 -23 -172zM1071 1145q0 -72 -22 -213l-91 -508q-24 -129 -50 -197q-97 -250 -437 -250q-215 0 -313 82t-99 258q0 82 23 213l90 508q23 131 48 198q26 66 81 128
q108 120 341 121q233 0 331 -82t98 -258z" />
    <glyph glyph-name="uni1ED7" unicode="&#x1ed7;" horiz-adv-x="921" 
d="M596 1266l-86 -109h-248l254 258h199l164 -258h-232zM575 1718q43 0 66 -14t74 -76q8 -8 16 -8q33 0 51 86h136q-52 -248 -184 -250q-62 0 -88 16t-71 74q-6 10 -20 10t-30 -25q-15 -26 -23 -63h-133q35 134 83 192t123 58zM598 782q0 80 -80 80q-57 0 -85 -40t-48 -152
l-47 -267q-14 -86 -14 -112q0 -80 77 -80q57 -1 85 39t49 153l47 267q16 88 16 112zM517 1096q187 0 273 -74t87 -229q0 -86 -21 -197l-39 -223q-39 -219 -132 -307t-281 -88t-273 73q-86 74 -86 230q1 75 21 198l38 223q38 218 132 306t281 88z" />
    <glyph glyph-name="uni1ED8" unicode="&#x1ed8;" horiz-adv-x="1062" 
d="M221 -438l49 274h275l-49 -274h-275zM729 1751l-102 -158h-267l285 316h213l174 -316h-254zM358 330q0 -111 121 -111q100 0 142 88q22 45 49 195l80 459q23 133 22 172q0 111 -119 110q-100 0 -145 -88q-20 -39 -47 -194l-80 -459q-23 -115 -23 -172zM1071 1145
q0 -72 -22 -213l-91 -508q-24 -129 -50 -197q-97 -250 -437 -250q-215 0 -313 82t-99 258q0 82 23 213l90 508q23 131 48 198q26 66 81 128q108 120 341 121q233 0 331 -82t98 -258z" />
    <glyph glyph-name="uni1ED9" unicode="&#x1ed9;" horiz-adv-x="921" 
d="M152 -438l49 274h274l-49 -274h-274zM606 1348l-104 -158h-264l282 315h213l174 -315h-254zM598 782q0 80 -80 80q-57 0 -85 -40t-48 -152l-47 -267q-14 -86 -14 -112q0 -80 77 -80q57 -1 85 39t49 153l47 267q16 88 16 112zM517 1096q187 0 273 -74t87 -229
q0 -86 -21 -197l-39 -223q-39 -219 -132 -307t-281 -88t-273 73q-86 74 -86 230q1 75 21 198l38 223q38 218 132 306t281 88z" />
    <glyph glyph-name="uni1EDA" unicode="&#x1eda;" horiz-adv-x="1146" 
d="M584 1589l198 322h312l-297 -322h-213zM358 330q0 -111 121 -111q100 0 142 88q22 45 49 195l80 459q23 133 22 172q0 111 -119 110q-100 0 -145 -88q-20 -39 -47 -194l-80 -459q-23 -115 -23 -172zM1372 1423q0 -166 -102 -268q-68 -66 -209 -141q-2 -14 -12 -82
l-91 -508q-24 -129 -50 -197q-97 -250 -437 -250q-215 0 -313 82t-99 258q0 82 23 213l90 508q23 131 48 198q26 67 77 122q59 70 143 98t222 29q205 0 299 -70t110 -231q76 70 76 198q-1 50 -19 105h240q4 -61 4 -64z" />
    <glyph glyph-name="uni1EDB" unicode="&#x1edb;" horiz-adv-x="1026" 
d="M438 1186l199 321h311l-297 -321h-213zM598 784q0 80 -80 80q-57 0 -85 -41t-48 -153l-47 -267q-14 -86 -14 -112q0 -80 77 -80q57 -1 85 39t49 153l47 267q16 88 16 114zM1161 1016q0 -236 -301 -395q-2 -6 -5 -28t-7 -36l-31 -184q-41 -219 -134 -307t-279 -88t-273 73
q-86 74 -86 230q0 76 21 198l38 223q38 218 132 306t286 88q262 0 330 -156q23 -51 25 -158q59 84 59 199q0 47 -16 102h237q4 -37 4 -67z" />
    <glyph glyph-name="uni1EDC" unicode="&#x1edc;" horiz-adv-x="1146" 
d="M887 1589h-211l-184 322h282zM358 330q0 -111 121 -111q100 0 142 88q22 45 49 195l80 459q23 133 22 172q0 111 -119 110q-100 0 -145 -88q-20 -39 -47 -194l-80 -459q-23 -115 -23 -172zM1372 1423q0 -166 -102 -268q-68 -66 -209 -141q-2 -14 -12 -82l-91 -508
q-24 -129 -50 -197q-97 -250 -437 -250q-215 0 -313 82t-99 258q0 82 23 213l90 508q23 131 48 198q26 67 77 122q59 70 143 98t222 29q205 0 299 -70t110 -231q76 70 76 198q-1 50 -19 105h240q4 -61 4 -64z" />
    <glyph glyph-name="uni1EDD" unicode="&#x1edd;" horiz-adv-x="1026" 
d="M762 1186h-211l-184 321h282zM598 784q0 80 -80 80q-57 0 -85 -41t-48 -153l-47 -267q-14 -86 -14 -112q0 -80 77 -80q57 -1 85 39t49 153l47 267q16 88 16 114zM1161 1016q0 -236 -301 -395q-2 -6 -5 -28t-7 -36l-31 -184q-41 -219 -134 -307t-279 -88t-273 73
q-86 74 -86 230q0 76 21 198l38 223q38 218 132 306t286 88q262 0 330 -156q23 -51 25 -158q59 84 59 199q0 47 -16 102h237q4 -37 4 -67z" />
    <glyph glyph-name="uni1EDE" unicode="&#x1ede;" horiz-adv-x="1146" 
d="M758 1846q0 22 -34 22t-132 -39l-21 184q135 43 224 43q213 0 213 -190q0 -59 -22 -92t-73 -73q-51 -41 -63 -61t-21 -73h-200q19 111 35 147t55 73t39 59zM358 330q0 -111 121 -111q100 0 142 88q22 45 49 195l80 459q23 133 22 172q0 111 -119 110q-100 0 -145 -88
q-20 -39 -47 -194l-80 -459q-23 -115 -23 -172zM1372 1423q0 -166 -102 -268q-68 -66 -209 -141q-2 -14 -12 -82l-91 -508q-24 -129 -50 -197q-97 -250 -437 -250q-215 0 -313 82t-99 258q0 82 23 213l90 508q23 131 48 198q26 67 77 122q59 70 143 98t222 29q205 0 299 -70
t110 -231q76 70 76 198q-1 50 -19 105h240q4 -61 4 -64z" />
    <glyph glyph-name="uni1EDF" unicode="&#x1edf;" horiz-adv-x="1026" 
d="M573 1481q-35 0 -131 -41l-20 184q127 45 223 45q213 0 213 -192q0 -57 -22 -91t-74 -74q-52 -41 -62 -61t-20 -71h-201q19 112 35 146t56 72t38 60q0 22 -35 23zM598 784q0 80 -80 80q-57 0 -85 -41t-48 -153l-47 -267q-14 -86 -14 -112q0 -80 77 -80q57 -1 85 39
t49 153l47 267q16 88 16 114zM1161 1016q0 -236 -301 -395q-2 -6 -5 -28t-7 -36l-31 -184q-41 -219 -134 -307t-279 -88t-273 73q-86 74 -86 230q0 76 21 198l38 223q38 218 132 306t286 88q262 0 330 -156q23 -51 25 -158q59 84 59 199q0 47 -16 102h237q4 -37 4 -67z" />
    <glyph glyph-name="uni1EE0" unicode="&#x1ee0;" horiz-adv-x="1146" 
d="M616 1909q86 0 140 -62q37 -43 48 -53t23 -10q41 0 66 110h168q-33 -166 -88 -238t-153 -73q-98 0 -146 70q-41 55 -62 55q-46 0 -73 -111h-168q41 164 100 238t145 74zM358 330q0 -111 121 -111q100 0 142 88q22 45 49 195l80 459q23 133 22 172q0 111 -119 110
q-100 0 -145 -88q-20 -39 -47 -194l-80 -459q-23 -115 -23 -172zM1372 1423q0 -166 -102 -268q-68 -66 -209 -141q-2 -14 -12 -82l-91 -508q-24 -129 -50 -197q-97 -250 -437 -250q-215 0 -313 82t-99 258q0 82 23 213l90 508q23 131 48 198q26 67 77 122q59 70 143 98
t222 29q205 0 299 -70t110 -231q76 70 76 198q-1 50 -19 105h240q4 -61 4 -64z" />
    <glyph glyph-name="uni1EE1" unicode="&#x1ee1;" horiz-adv-x="1026" 
d="M420 1194h-168q43 164 102 238q58 74 144 74t141 -62q37 -43 48 -53t22 -11q41 0 65 111h168q-31 -166 -87 -239q-55 -72 -153 -72t-147 69q-41 55 -59 56q-49 0 -76 -111zM598 784q0 80 -80 80q-57 0 -85 -41t-48 -153l-47 -267q-14 -86 -14 -112q0 -80 77 -80
q57 -1 85 39t49 153l47 267q16 88 16 114zM1161 1016q0 -236 -301 -395q-2 -6 -5 -28t-7 -36l-31 -184q-41 -219 -134 -307t-279 -88t-273 73q-86 74 -86 230q0 76 21 198l38 223q38 218 132 306t286 88q262 0 330 -156q23 -51 25 -158q59 84 59 199q0 47 -16 102h237
q4 -37 4 -67z" />
    <glyph glyph-name="uni1EE2" unicode="&#x1ee2;" horiz-adv-x="1146" 
d="M233 -438l50 274h274l-49 -274h-275zM358 330q0 -111 121 -111q100 0 142 88q22 45 49 195l80 459q23 133 22 172q0 111 -119 110q-100 0 -145 -88q-20 -39 -47 -194l-80 -459q-23 -115 -23 -172zM1372 1423q0 -166 -102 -268q-68 -66 -209 -141q-2 -14 -12 -82l-91 -508
q-24 -129 -50 -197q-97 -250 -437 -250q-215 0 -313 82t-99 258q0 82 23 213l90 508q23 131 48 198q26 67 77 122q59 70 143 98t222 29q205 0 299 -70t110 -231q76 70 76 198q-1 50 -19 105h240q4 -61 4 -64z" />
    <glyph glyph-name="uni1EE3" unicode="&#x1ee3;" horiz-adv-x="1026" 
d="M174 -438l47 274h275l-47 -274h-275zM598 784q0 80 -80 80q-57 0 -85 -41t-48 -153l-47 -267q-14 -86 -14 -112q0 -80 77 -80q57 -1 85 39t49 153l47 267q16 88 16 114zM1161 1016q0 -236 -301 -395q-2 -6 -5 -28t-7 -36l-31 -184q-41 -219 -134 -307t-279 -88t-273 73
q-86 74 -86 230q0 76 21 198l38 223q38 218 132 306t286 88q262 0 330 -156q23 -51 25 -158q59 84 59 199q0 47 -16 102h237q4 -37 4 -67z" />
    <glyph glyph-name="uni1EE4" unicode="&#x1ee4;" horiz-adv-x="1083" 
d="M254 -438l47 274h274l-47 -274h-274zM500 219q70 0 105 50q36 50 65 208l172 985h303l-182 -1038q-27 -146 -49 -204t-68 -111q-119 -131 -354 -132q-135 0 -214 27q-79 26 -139 98t-59 197q0 72 26 231l164 932h303l-172 -985q-23 -119 -23 -163t26 -69q26 -26 96 -26z
" />
    <glyph glyph-name="uni1EE5" unicode="&#x1ee5;" horiz-adv-x="901" 
d="M168 -438l49 274h275l-50 -274h-274zM332 299q0 -76 63 -76q47 0 73 43t46 162l113 645h286l-188 -1073h-213l-6 86q-53 -63 -98 -86t-113 -23q-125 -1 -192 63t-67 166t25 238l111 629h287l-113 -641q-14 -86 -14 -133z" />
    <glyph glyph-name="uni1EE6" unicode="&#x1ee6;" horiz-adv-x="1083" 
d="M750 1846q0 22 -35 22t-131 -39l-21 184q135 43 223 43q213 0 213 -190q1 -59 -21 -92t-99 -93q-27 -23 -37 -43t-21 -71h-200q20 111 35 147q14 36 54 73t40 59zM500 219q70 0 105 50q36 50 65 208l172 985h303l-182 -1038q-27 -146 -49 -204t-68 -111
q-119 -131 -354 -132q-135 0 -214 27q-79 26 -139 98t-59 197q0 72 26 231l164 932h303l-172 -985q-23 -119 -23 -163t26 -69q26 -26 96 -26z" />
    <glyph glyph-name="uni1EE7" unicode="&#x1ee7;" horiz-adv-x="901" 
d="M594 1458q0 22 -35 23q-35 0 -131 -41l-20 184q127 45 223 45q213 0 213 -192q0 -57 -22 -91t-74 -74q-52 -41 -62 -61t-20 -71h-201q19 112 35 146t55 72t39 60zM332 299q0 -76 63 -76q47 0 73 43t46 162l113 645h286l-188 -1073h-213l-6 86q-53 -63 -98 -86t-113 -23
q-125 -1 -192 63t-67 166t25 238l111 629h287l-113 -641q-14 -86 -14 -133z" />
    <glyph glyph-name="uni1EE8" unicode="&#x1ee8;" horiz-adv-x="1232" 
d="M625 1589l196 322h312l-297 -322h-211zM500 219q70 0 105 50q36 50 65 208l172 985h303l-55 -319q141 94 141 246q0 45 -19 98h240q2 -35 2 -66q0 -176 -156 -305q-50 -41 -80 -59t-159 -88l-96 -545q-27 -146 -49 -204t-68 -111q-119 -131 -354 -132q-135 0 -214 27
q-79 26 -139 98t-59 197q0 72 26 231l164 932h303l-172 -985q-23 -119 -23 -163t26 -69q26 -26 96 -26z" />
    <glyph glyph-name="uni1EE9" unicode="&#x1ee9;" horiz-adv-x="1089" 
d="M463 1186l199 321h311l-297 -321h-213zM332 299q0 -76 63 -76q47 0 73 43t46 162l113 645h286l-57 -334q63 37 102 104t39 127t-18 113h238q4 -33 4 -65q-1 -138 -91 -240t-307 -215l-98 -563h-213l-6 86q-53 -63 -98 -86t-113 -23q-125 -1 -192 63t-67 166t25 238
l111 629h287l-113 -641q-14 -86 -14 -133z" />
    <glyph glyph-name="uni1EEA" unicode="&#x1eea;" horiz-adv-x="1232" 
d="M846 1589h-213l-182 322h282zM500 219q70 0 105 50q36 50 65 208l172 985h303l-55 -319q141 94 141 246q0 45 -19 98h240q2 -35 2 -66q0 -176 -156 -305q-50 -41 -80 -59t-159 -88l-96 -545q-27 -146 -49 -204t-68 -111q-119 -131 -354 -132q-135 0 -214 27
q-79 26 -139 98t-59 197q0 72 26 231l164 932h303l-172 -985q-23 -119 -23 -163t26 -69q26 -26 96 -26z" />
    <glyph glyph-name="uni1EEB" unicode="&#x1eeb;" horiz-adv-x="1089" 
d="M698 1186h-213l-182 321h283zM332 299q0 -76 63 -76q47 0 73 43t46 162l113 645h286l-57 -334q63 37 102 104t39 127t-18 113h238q4 -33 4 -65q-1 -138 -91 -240t-307 -215l-98 -563h-213l-6 86q-53 -63 -98 -86t-113 -23q-125 -1 -192 63t-67 166t25 238l111 629h287
l-113 -641q-14 -86 -14 -133z" />
    <glyph glyph-name="uni1EEC" unicode="&#x1eec;" horiz-adv-x="1232" 
d="M764 1846q0 22 -34 22t-132 -39l-20 184q135 43 223 43q213 0 213 -190q0 -59 -22 -92t-73 -73q-51 -41 -62 -61t-21 -73h-201q19 111 35 145t55 74q39 38 39 60zM500 219q70 0 105 50q36 50 65 208l172 985h303l-55 -319q141 94 141 246q0 45 -19 98h240q2 -35 2 -66
q0 -176 -156 -305q-50 -41 -80 -59t-159 -88l-96 -545q-27 -146 -49 -204t-68 -111q-119 -131 -354 -132q-135 0 -214 27q-79 26 -139 98t-59 197q0 72 26 231l164 932h303l-172 -985q-23 -119 -23 -163t26 -69q26 -26 96 -26z" />
    <glyph glyph-name="uni1EED" unicode="&#x1eed;" horiz-adv-x="1089" 
d="M576 1481q-36 0 -130 -41l-20 184q131 45 223 45q213 0 213 -192q0 -57 -22 -91t-74 -74q-52 -41 -62 -61t-20 -71h-201q21 110 35 144t54 73t40 61t-36 23zM332 299q0 -76 63 -76q47 0 73 43t46 162l113 645h286l-57 -334q63 37 102 104t39 127t-18 113h238q4 -33 4 -65
q-1 -138 -91 -240t-307 -215l-98 -563h-213l-6 86q-53 -63 -98 -86t-113 -23q-125 -1 -192 63t-67 166t25 238l111 629h287l-113 -641q-14 -86 -14 -133z" />
    <glyph glyph-name="uni1EEE" unicode="&#x1eee;" horiz-adv-x="1232" 
d="M649 1909q86 0 142 -62q51 -63 69 -63q41 0 66 110h168q-33 -166 -88 -238q-54 -72 -152 -73q-98 0 -147 70q-41 55 -60 55q-49 0 -76 -111h-168q41 164 101 238t145 74zM500 219q70 0 105 50q36 50 65 208l172 985h303l-55 -319q141 94 141 246q0 45 -19 98h240
q2 -35 2 -66q0 -176 -156 -305q-50 -41 -80 -59t-159 -88l-96 -545q-27 -146 -49 -204t-68 -111q-119 -131 -354 -132q-135 0 -214 27q-79 26 -139 98t-59 197q0 72 26 231l164 932h303l-172 -985q-23 -119 -23 -163t26 -69q26 -26 96 -26z" />
    <glyph glyph-name="uni1EEF" unicode="&#x1eef;" horiz-adv-x="1089" 
d="M424 1194h-168q43 164 102 238q60 74 146 74t131 -53q45 -52 56 -62t22 -11q45 0 65 111h168q-31 -166 -87 -239q-56 -72 -153 -72q-96 0 -142 62t-64 63q-49 0 -76 -111zM332 299q0 -76 63 -76q47 0 73 43t46 162l113 645h286l-57 -334q63 37 102 104t39 127t-18 113
h238q4 -33 4 -65q-1 -138 -91 -240t-307 -215l-98 -563h-213l-6 86q-53 -63 -98 -86t-113 -23q-125 -1 -192 63t-67 166t25 238l111 629h287l-113 -641q-14 -86 -14 -133z" />
    <glyph glyph-name="uni1EF0" unicode="&#x1ef0;" horiz-adv-x="1232" 
d="M240 -438l49 274h274l-49 -274h-274zM500 219q70 0 105 50q36 50 65 208l172 985h303l-55 -319q141 94 141 246q0 45 -19 98h240q2 -35 2 -66q0 -176 -156 -305q-50 -41 -80 -59t-159 -88l-96 -545q-27 -146 -49 -204t-68 -111q-119 -131 -354 -132q-135 0 -214 27
q-79 26 -139 98t-59 197q0 72 26 231l164 932h303l-172 -985q-23 -119 -23 -163t26 -69q26 -26 96 -26z" />
    <glyph glyph-name="uni1EF1" unicode="&#x1ef1;" horiz-adv-x="1089" 
d="M199 -438l47 274h274l-47 -274h-274zM332 299q0 -76 63 -76q47 0 73 43t46 162l113 645h286l-57 -334q63 37 102 104t39 127t-18 113h238q4 -33 4 -65q-1 -138 -91 -240t-307 -215l-98 -563h-213l-6 86q-53 -63 -98 -86t-113 -23q-125 -1 -192 63t-67 166t25 238l111 629
h287l-113 -641q-14 -86 -14 -133z" />
    <glyph glyph-name="Ygrave" unicode="&#x1ef2;" horiz-adv-x="884" 
d="M774 1589h-211l-184 322h283zM201 0l86 494l-193 968h316l88 -610l303 610h325l-536 -968l-86 -494h-303z" />
    <glyph glyph-name="ygrave" unicode="&#x1ef3;" horiz-adv-x="843" 
d="M641 1186h-211l-184 321h282zM178 2l-80 1071h287l4 -690l248 690h295l-477 -1139q-103 -256 -209 -330t-367 -75l41 238q111 -1 150 29t92 161z" />
    <glyph glyph-name="uni1EF4" unicode="&#x1ef4;" horiz-adv-x="884" 
d="M133 -438l49 274h275l-49 -274h-275zM201 0l86 494l-193 968h316l88 -610l303 610h325l-536 -968l-86 -494h-303z" />
    <glyph glyph-name="uni1EF5" unicode="&#x1ef5;" horiz-adv-x="843" 
d="M522 -438l47 274h275l-47 -274h-275zM178 2l-80 1071h287l4 -690l248 690h295l-477 -1139q-103 -256 -209 -330t-367 -75l41 238q111 -1 150 29t92 161z" />
    <glyph glyph-name="uni1EF6" unicode="&#x1ef6;" horiz-adv-x="884" 
d="M615 1868q-34 0 -132 -39l-20 184q135 43 223 43q213 0 213 -190q1 -59 -21 -92t-74 -73q-52 -41 -62 -61q-11 -20 -21 -73h-201q20 111 36 145t54 74q40 39 39 59q0 23 -34 23zM201 0l86 494l-193 968h316l88 -610l303 610h325l-536 -968l-86 -494h-303z" />
    <glyph glyph-name="uni1EF7" unicode="&#x1ef7;" horiz-adv-x="843" 
d="M559 1458q0 22 -35 23q-35 0 -131 -41l-22 184q131 45 225 45q213 0 213 -192q0 -57 -22 -91t-99 -92q-27 -23 -37 -42t-20 -72h-201q20 112 36 146t54 72q39 38 39 60zM178 2l-80 1071h287l4 -690l248 690h295l-477 -1139q-103 -256 -209 -330t-367 -75l41 238
q111 -1 150 29t92 161z" />
    <glyph glyph-name="uni1EF8" unicode="&#x1ef8;" horiz-adv-x="884" 
d="M557 1909q86 -1 140 -63t71 -62q41 0 66 110h167q-33 -166 -88 -238t-152 -73q-97 0 -147 70q-41 55 -61 55q-47 0 -74 -111h-168q41 164 101 238t145 74zM201 0l86 494l-193 968h316l88 -610l303 610h325l-536 -968l-86 -494h-303z" />
    <glyph glyph-name="uni1EF9" unicode="&#x1ef9;" horiz-adv-x="843" 
d="M387 1194h-168q41 164 100 238t145 74t142 -62q51 -63 70 -64q41 0 65 111h168q-31 -166 -87 -239q-56 -72 -153 -72t-143 62t-63 63q-49 0 -76 -111zM178 2l-80 1071h287l4 -690l248 690h295l-477 -1139q-103 -256 -209 -330t-367 -75l41 238q111 -1 150 29t92 161z" />
    <glyph glyph-name="uni2002" unicode="&#x2002;" horiz-adv-x="1024" 
 />
    <glyph glyph-name="uni2003" unicode="&#x2003;" horiz-adv-x="2048" 
 />
    <glyph glyph-name="uni2004" unicode="&#x2004;" horiz-adv-x="681" 
 />
    <glyph glyph-name="uni2005" unicode="&#x2005;" horiz-adv-x="512" 
 />
    <glyph glyph-name="uni2006" unicode="&#x2006;" horiz-adv-x="342" 
 />
    <glyph glyph-name="uni2007" unicode="&#x2007;" 
 />
    <glyph glyph-name="uni2008" unicode="&#x2008;" horiz-adv-x="0" 
 />
    <glyph glyph-name="uni2009" unicode="&#x2009;" horiz-adv-x="409" 
 />
    <glyph glyph-name="uni200A" unicode="&#x200a;" horiz-adv-x="256" 
 />
    <glyph glyph-name="uni2011" unicode="&#x2011;" horiz-adv-x="704" 
d="M100 598l43 252h529l-43 -252h-529z" />
    <glyph glyph-name="figuredash" unicode="&#x2012;" 
d="M90 598l43 252h705l-43 -252h-705z" />
    <glyph glyph-name="endash" unicode="&#x2013;" 
d="M90 598l43 252h705l-43 -252h-705z" />
    <glyph glyph-name="emdash" unicode="&#x2014;" 
d="M-8 598l43 252h901l-43 -252h-901z" />
    <glyph glyph-name="afii00208" unicode="&#x2015;" 
d="M-8 598l43 252h901l-43 -252h-901z" />
    <glyph glyph-name="underscoredbl" unicode="&#x2017;" horiz-adv-x="749" 
d="M-180 -268l26 147h830l-27 -147h-829zM-219 -487l26 147h830l-27 -147h-829z" />
    <glyph glyph-name="quoteleft" unicode="&#x2018;" horiz-adv-x="401" 
d="M537 1462l-142 -538h-297l195 538h244z" />
    <glyph glyph-name="quoteright" unicode="&#x2019;" horiz-adv-x="401" 
d="M98 924l142 538h297l-193 -538h-246z" />
    <glyph glyph-name="quotesinglbase" unicode="&#x201a;" horiz-adv-x="401" 
d="M-113 -262l142 538h297l-193 -538h-246z" />
    <glyph glyph-name="quotedblleft" unicode="&#x201c;" horiz-adv-x="780" 
d="M537 1462l-142 -538h-297l195 538h244zM918 1462l-144 -538h-297l195 538h246z" />
    <glyph glyph-name="quotedblright" unicode="&#x201d;" horiz-adv-x="780" 
d="M477 924l144 538h297l-195 -538h-246zM98 924l142 538h297l-193 -538h-246z" />
    <glyph glyph-name="quotedblbase" unicode="&#x201e;" horiz-adv-x="780" 
d="M266 -262l144 538h297l-195 -538h-246zM-113 -262l142 538h297l-193 -538h-246z" />
    <glyph glyph-name="dagger" unicode="&#x2020;" 
d="M330 797h-234l43 243h234l73 422h295l-73 -422h233l-43 -243h-233l-195 -1104h-295z" />
    <glyph glyph-name="daggerdbl" unicode="&#x2021;" 
d="M330 797h-234l43 243h234l73 422h295l-73 -422h233l-43 -243h-233l-41 -228h211l-43 -243h-211l-113 -633h-295l113 633h-211l43 243h211z" />
    <glyph glyph-name="bullet" unicode="&#x2022;" 
d="M430 1071q156 0 262 -103t106 -256t-104 -256q-106 -104 -265 -104t-264 104t-105 257q0 154 106 256q108 102 264 102z" />
    <glyph glyph-name="ellipsis" unicode="&#x2026;" horiz-adv-x="1447" 
d="M961 0l49 285h303l-49 -285h-303zM479 0l49 285h303l-49 -285h-303zM-4 0l49 285h303l-49 -285h-303z" />
    <glyph glyph-name="perthousand" unicode="&#x2030;" horiz-adv-x="2404" 
d="M430 0l621 1462h264l-621 -1462h-264zM2095 526q0 53 -53 54q-38 0 -58 -30t-34 -110l-27 -149q-8 -49 -8 -86q0 -53 53 -53q41 0 60 28q18 29 32 111l27 149q8 49 8 86zM2043 752q163 0 235 -52t71 -161q0 -53 -14 -133l-15 -80q-33 -190 -100 -258q-86 -88 -250 -88
t-234 55t-71 174q0 62 16 158l15 79q31 174 107 240q77 66 240 66zM1370 526q0 53 -53 54q-39 0 -59 -30t-33 -110l-27 -149q-8 -49 -8 -86q0 -53 53 -53q41 0 60 28q18 29 32 111l27 149q8 49 8 86zM1318 752q162 0 234 -52t72 -161q0 -53 -14 -133l-15 -80
q-33 -190 -100 -258q-86 -88 -250 -88q-165 0 -235 55t-70 174q0 62 16 158l15 79q31 174 107 240q77 66 240 66zM557 1260q0 53 -53 53q-38 0 -58 -30t-34 -109l-27 -150q-8 -41 -8 -86q0 -53 53 -53q38 1 58 29t34 110l27 150q8 57 8 86zM503 1485q165 0 237 -51t71 -162
q0 -41 -14 -133l-15 -80q-33 -188 -102 -258q-82 -88 -247 -88t-235 55t-71 174q0 56 16 158l15 80q31 166 96 229q84 76 249 76z" />
    <glyph glyph-name="guilsinglleft" unicode="&#x2039;" horiz-adv-x="473" 
d="M330 580l82 -261l-197 -96l-184 381l319 379l152 -145z" />
    <glyph glyph-name="guilsinglright" unicode="&#x203a;" horiz-adv-x="473" 
d="M168 629l-80 258l195 96l184 -379l-317 -381l-154 146z" />
    <glyph glyph-name="uni203E" unicode="&#x203e;" horiz-adv-x="749" 
d="M158 1645l35 200h829l-35 -200h-829z" />
    <glyph glyph-name="fraction" unicode="&#x2044;" horiz-adv-x="325" 
d="M-211 0l623 1462h262l-621 -1462h-264z" />
    <glyph glyph-name="zerosuperior" unicode="&#x2070;" horiz-adv-x="634" 
d="M528 1454q0 45 -39 45q-31 0 -47 -30t-30 -113l-45 -254q-14 -80 -15 -98q0 -46 35 -46t51 30t31 114l45 254q14 78 14 98zM491 1679q138 0 199 -52t62 -167q0 -61 -17 -151l-43 -242q-28 -164 -96 -226q-68 -63 -206 -63t-200 52q-61 52 -61 167q0 58 16 152l43 242
q29 164 97 226t206 62z" />
    <glyph glyph-name="foursuperior" unicode="&#x2074;" horiz-adv-x="634" 
d="M397 791l27 145h-313l22 131l318 600h225l-293 -557h72l26 150h187l-27 -150h57l-30 -174h-58l-26 -145h-187z" />
    <glyph glyph-name="fivesuperior" unicode="&#x2075;" horiz-adv-x="634" 
d="M502 1364q186 0 186 -178q0 -70 -19 -157t-46 -132q-70 -119 -252 -119q-256 0 -256 203q0 35 8 68h205v-39q0 -51 45 -52q49 0 67 67q46 171 -16 171q-33 0 -68 -51l-168 31l109 491h457l-33 -180h-260l-29 -129q39 6 70 6z" />
    <glyph glyph-name="sixsuperior" unicode="&#x2076;" horiz-adv-x="634" 
d="M430 1198q-43 0 -57 -53q-25 -94 -25 -154q0 -41 43 -41t58 54q25 90 24 153q0 41 -43 41zM700 1178q0 -170 -70 -285t-249 -115q-260 0 -260 203q0 137 51 240q20 45 86 135l236 311h262l-232 -305q96 -4 136 -47t40 -137z" />
    <glyph glyph-name="sevensuperior" unicode="&#x2077;" horiz-adv-x="634" 
d="M123 791l356 696h-250l33 180h488l-23 -131l-342 -745h-262z" />
    <glyph glyph-name="eightsuperior" unicode="&#x2078;" horiz-adv-x="634" 
d="M390 950q46 0 63 39q57 170 -27 170q-49 0 -61 -47q-20 -72 -21 -117q0 -45 46 -45zM455 1319q45 0 59 37q23 61 23 123q0 41 -45 41q-30 0 -46 -18t-24 -58l-12 -84q0 -41 45 -41zM209 1397q0 94 58 188t231 94q242 0 241 -196q0 -176 -100 -232q57 -49 57 -143
q0 -168 -76 -249t-237 -81q-266 0 -266 201q0 123 41 191t92 94q-41 39 -41 133z" />
    <glyph glyph-name="ninesuperior" unicode="&#x2079;" horiz-adv-x="634" 
d="M488 1507q-42 0 -54 -41q-25 -78 -24 -145q0 -39 42 -39t54 41q25 84 24 145q0 39 -42 39zM182 1303q0 180 74 278t242 98q260 0 260 -198q0 -119 -49 -236q-25 -51 -86 -137l-236 -317h-262l244 331q-98 2 -143 44q-44 42 -44 137z" />
    <glyph glyph-name="zeroinferior" unicode="&#x2080;" horiz-adv-x="634" 
d="M354 459q0 45 -39 45q-31 0 -47 -31t-30 -113l-45 -254q-14 -82 -15 -98q0 -45 39 -45q31 -1 47 29t31 114l45 254q14 78 14 99zM316 684q139 0 200 -52t62 -167q0 -47 -17 -152l-43 -241q-29 -164 -96 -227q-68 -62 -206 -62t-200 52q-61 52 -61 167q0 54 16 152l43 241
q27 161 95 225t207 64z" />
    <glyph glyph-name="oneinferior" unicode="&#x2081;" horiz-adv-x="634" 
d="M86 -205l113 637l-119 -45l-60 168l295 117h154l-154 -877h-229z" />
    <glyph glyph-name="twoinferior" unicode="&#x2082;" horiz-adv-x="634" 
d="M300 504q-28 0 -42 -24t-31 -91h-207q16 155 86 225t209 70q254 0 254 -207q0 -106 -65 -209q-41 -57 -182 -196l-99 -97h252l-31 -180h-538l26 154l256 274q139 152 140 246q0 35 -28 35z" />
    <glyph glyph-name="threeinferior" unicode="&#x2083;" horiz-adv-x="634" 
d="M221 334q69 0 89 35t20 85t-43 50q-23 0 -36 -16t-24 -62h-204q27 258 281 258t253 -201q0 -150 -96 -225q47 -57 47 -145q0 -141 -64 -228q-70 -102 -243 -102q-254 0 -254 194q0 33 8 76h205q-2 -18 -2 -39q0 -51 45 -51q35 0 57 38t21 90q1 53 -17 69t-61 16h-80
l29 158h69z" />
    <glyph glyph-name="fourinferior" unicode="&#x2084;" horiz-adv-x="634" 
d="M223 -205l25 146h-314l23 131l317 600h226l-293 -557h72l26 149h187l-27 -149h57l-30 -174h-58l-24 -146h-187z" />
    <glyph glyph-name="fiveinferior" unicode="&#x2085;" horiz-adv-x="634" 
d="M512 190q0 -70 -19 -156t-47 -132q-68 -119 -251 -119q-256 0 -256 203q0 35 8 67h205v-39q0 -51 47 -51t65 67q46 171 -16 171q-33 0 -68 -51l-168 30l109 492h457l-31 -180h-262l-29 -130q39 6 70 7q186 0 186 -179z" />
    <glyph glyph-name="sixinferior" unicode="&#x2086;" horiz-adv-x="634" 
d="M299 162q0 41 -43 41t-57 -53q-25 -98 -25 -146t43 -49q43 0 57 53q25 90 25 154zM526 182q0 -170 -70 -284t-249 -115q-260 0 -260 203q0 129 51 239q20 45 86 135l235 312h263l-232 -305q96 -3 136 -47t40 -138z" />
    <glyph glyph-name="seveninferior" unicode="&#x2087;" horiz-adv-x="634" 
d="M-53 -205l356 697h-250l33 180h487l-24 -131l-340 -746h-262z" />
    <glyph glyph-name="eightinferior" unicode="&#x2088;" horiz-adv-x="634" 
d="M299 119q0 45 -49 45t-62 -47q-20 -72 -20 -117t46 -45t62 39q23 74 23 125zM278 324q84 0 82 159q0 41 -45 41q-31 0 -46 -17t-23 -58l-13 -84q-1 -41 45 -41zM33 402q0 96 58 189t231 93q242 0 241 -197q0 -176 -100 -231q57 -45 57 -145q0 -328 -313 -328
q-266 0 -266 201q0 123 51 206q31 51 82 78q-41 38 -41 134z" />
    <glyph glyph-name="nineinferior" unicode="&#x2089;" horiz-adv-x="634" 
d="M312 512q-42 0 -54 -41q-25 -78 -25 -145q0 -39 42 -39t55 41q25 84 24 145q0 39 -42 39zM6 307q0 181 74 279t242 98q260 0 260 -199q0 -119 -50 -235q-25 -51 -86 -137l-235 -318h-262l244 332q-98 2 -143 44q-44 42 -44 136z" />
    <glyph glyph-name="franc" unicode="&#x20a3;" horiz-adv-x="1308" 
d="M1223 936q78 0 161 -57l-159 -230q-37 59 -83 59q-92 1 -153 -341l-65 -367h-275l162 913h207l20 -86l37 37q70 72 148 72zM18 0l258 1462h637l-43 -252h-342l-65 -360h268l-43 -252h-268l-107 -598h-295z" />
    <glyph glyph-name="lira" unicode="&#x20a4;" 
d="M172 1006q0 178 78 309q100 166 346 166q162 0 248 -86t86 -248q0 -45 -12 -115h-279q12 72 12 123q0 84 -58 84t-83 -70q-33 -84 -33 -151t19 -139h282l-28 -162h-226q2 -16 2 -45t-2 -49h209l-28 -162h-207q-31 -133 -103 -209h406l-43 -252h-801l37 217
q188 53 223 244h-192l28 162h172q-6 53 -16 94h-139l28 162h80q-6 72 -6 127z" />
    <glyph glyph-name="peseta" unicode="&#x20a7;" 
d="M459 901l-35 -188h33q102 -8 153 188h-151zM637 1131q1 49 -19 75t-71 25h-31l-31 -172h150q2 23 2 72zM545 1462q207 0 293 -80q88 -88 88 -268q0 -31 -2 -55h98l-27 -158h-96q-45 -225 -158 -327t-313 -95h-37l-84 -479h-295l160 901h-119l27 158h119l71 403h275z" />
    <glyph glyph-name="uni20AB" unicode="&#x20ab;" 
d="M338 223q51 0 82 47t49 154l41 225q10 76 10 101q0 104 -78 104q-44 0 -70 -36t-40 -120l-43 -239q-14 -92 -15 -152q0 -84 64 -84zM371 1096q133 0 207 -56l20 117h-221l35 201h223l18 104h287l-18 -104h108l-35 -201h-110l-203 -1157h-219l-6 66q-53 -52 -93 -70
t-104 -19q-141 0 -208 70t-66 215q0 100 26 254l37 213q35 201 112 284t210 83zM-125 -381l35 197h792l-34 -197h-793z" />
    <glyph glyph-name="Euro" unicode="&#x20ac;" 
d="M606 1485q176 0 264 -87t88 -249q0 -49 -14 -113h-276q10 80 10 117q0 90 -64 90q-55 0 -85 -63t-62 -250l-6 -35h346l-88 -162h-287l-16 -98h258l-86 -162h-201q-16 -106 -16 -160q0 -94 73 -94q92 0 121 150h277q-36 -201 -140 -296t-286 -96q-350 0 -350 312
q0 80 18 184h-131l86 162h74l16 98h-131l88 162h72l18 111q28 152 58 230t83 132q113 117 289 117z" />
    <glyph glyph-name="uni20B4" unicode="&#x20b4;" 
d="M382 -23q-396 0 -396 326q0 164 92 303l-70 25l72 151l129 -47q59 37 166 86l-215 76l73 152l318 -113q76 98 76 229q0 74 -74 74q-82 0 -98 -104h-277q23 170 126 258q104 88 274 88t256 -79t86 -248t-105 -312l76 -29l-72 -149l-137 47q-74 -47 -164 -84l242 -90
l-74 -152l-346 127q-63 -88 -64 -197q0 -53 24 -75t85 -21q61 0 93 28t44 91h279q-31 -162 -103 -236q-116 -125 -316 -125z" />
    <glyph glyph-name="uni2101" unicode="&#x2101;" horiz-adv-x="1558" 
d="M1155 158q49 0 72 49q14 39 14 67t-16 40q-16 13 -88 44q-154 66 -154 216t85 232q85 83 228 83q205 0 248 -156l-192 -102q-14 51 -28 68t-46 18q-61 0 -61 -90q0 -33 16 -51q15 -18 87 -48q72 -28 110 -79t38 -140q0 -159 -78 -241t-220 -82t-214 40q-71 40 -94 128
l197 104q15 -60 31 -80t65 -20zM498 883l-21 317l-133 -317h154zM729 756l301 706h230l-623 -1462h-229l249 586h-139l-10 149h-225l-62 -149h-239l446 876h190z" />
    <glyph glyph-name="afii61248" unicode="&#x2105;" horiz-adv-x="1529" 
d="M358 0l621 1462h229l-620 -1462h-230zM1200 643q-45 0 -71 -40t-42 -138l-22 -125q-12 -72 -12 -98q0 -78 61 -78q45 0 71 40t42 136l22 125q12 61 13 106q0 72 -62 72zM1485 586q0 -51 -17 -150l-26 -149q-29 -166 -106 -235q-77 -68 -225 -68t-215 57t-67 180
q1 60 17 148l26 149q29 166 107 236t226 70t214 -58q66 -57 66 -180zM373 635q-119 0 -183 70q-63 70 -63 202q0 59 18 170l5 31q33 190 113 280q81 89 220 89q103 0 165 -41t95 -133l-180 -95q-25 88 -82 88q-41 0 -67 -51t-49 -178l-7 -31q-14 -96 -14 -139q0 -82 57 -82
q35 0 56 14q20 15 61 72l150 -92q-111 -174 -295 -174z" />
    <glyph glyph-name="afii61289" unicode="&#x2113;" horiz-adv-x="862" 
d="M649 1195q0 81 -48 81t-73 -94q-47 -158 -61 -414q78 102 130 224t52 203zM473 158q12 0 21 12q8 12 24 57q25 70 68 70q59 0 59 -80q0 -109 -74 -191t-175 -83q-101 0 -164 100q-62 100 -78 291q-42 -56 -58 -74t-34 -18t-37 36t-19 70t9 50t55 74t84 122
q27 334 106 567q109 326 315 326q107 0 175 -77t68 -210t-95 -304q-94 -171 -268 -341l-4 -72q-10 -135 -11 -198q0 -127 33 -127z" />
    <glyph glyph-name="afii61352" unicode="&#x2116;" horiz-adv-x="1912" 
d="M1040 0l39 221h699l-39 -221h-699zM1626 989q0 63 -53 64q-39 0 -62 -39t-38 -135l-21 -109q-10 -58 -10 -116t51 -58q41 0 63 39t39 135l21 109q10 78 10 110zM1587 1280q319 0 320 -268q0 -59 -17 -156l-26 -145q-33 -187 -119 -265t-256 -78t-248 66q-78 64 -78 201
q1 62 17 158l26 145q33 186 120 264t261 78zM14 0l258 1462h303l173 -858l151 858h283l-258 -1462h-287l-186 874l-154 -874h-283z" />
    <glyph glyph-name="trademark" unicode="&#x2122;" horiz-adv-x="1425" 
d="M645 586l154 876h211l80 -438l235 438h211l-154 -876h-208l81 467l-125 -283h-169l-25 283l-82 -467h-209zM184 586l123 696h-188l31 180h604l-31 -180h-184l-123 -696h-232z" />
    <glyph glyph-name="uni2126" unicode="&#x2126;" horiz-adv-x="1060" 
d="M94 518q0 80 27 240l49 280q23 127 50 196q102 251 442 251q213 0 311 -81t98 -257q0 -86 -24 -215l-50 -281q-27 -159 -77 -243t-140 -132l-10 -59h168l-39 -217h-399l78 436q53 29 77 80q25 51 50 191l45 254q23 127 22 172q0 111 -117 110q-88 0 -127 -56t-67 -226
l-45 -254q-20 -115 -20 -179t53 -92l-78 -436h-400l39 217h168l10 59q-94 74 -94 242z" />
    <glyph glyph-name="estimated" unicode="&#x212e;" horiz-adv-x="958" 
d="M639 801v170q-16 113 -54 164q-37 51 -101 51t-99 -49t-55 -166v-170h309zM330 614v-206q23 -127 59 -179q37 -51 105 -51q131 0 176 225h202q-29 -178 -86 -264q-112 -164 -308 -164q-196 -1 -308 183t-113 516q0 332 115 523t313 192q125 0 219 -82q94 -81 144 -225
q49 -144 51 -468h-569z" />
    <glyph glyph-name="onethird" unicode="&#x2153;" horiz-adv-x="1595" 
d="M301 0l623 1462h262l-621 -1462h-264zM1219 889q254 0 254 -201q0 -150 -99 -225q49 -59 49 -146q0 -143 -63 -227q-70 -102 -244 -102q-254 0 -254 196q0 31 8 74h205q-2 -20 -2 -39q0 -51 45 -51q35 0 57 38q21 38 21 90t-17 68t-61 17h-80l29 158h70q72 0 86 30
q23 45 23 92t-42 48q-46 0 -61 -78h-205q27 258 281 258zM225 586l113 637l-119 -45l-59 168l295 116h153l-153 -876h-230z" />
    <glyph glyph-name="twothirds" unicode="&#x2154;" horiz-adv-x="1595" 
d="M383 0l623 1462h262l-621 -1462h-264zM1194 539q72 0 86 30q23 45 23 92t-41 48q-25 -1 -38 -17t-24 -61h-205q27 258 281 258t254 -201q0 -150 -98 -225q49 -57 49 -146q0 -143 -64 -227q-70 -102 -243 -102q-254 0 -254 196q0 31 8 74h205q-2 -18 -3 -39q0 -51 46 -51
q34 0 56 38t22 90t-18 68q-17 16 -60 17h-80l28 158h70zM467 1260q0 35 -29 34q-37 0 -57 -55q-2 -4 -14 -59h-207q16 156 86 226t209 69q254 0 254 -207q0 -106 -66 -209q-41 -57 -182 -197l-99 -96h254l-32 -180h-539l27 153l256 275q139 152 139 246z" />
    <glyph glyph-name="uni2155" unicode="&#x2155;" horiz-adv-x="1595" 
d="M315 0l623 1462h262l-620 -1462h-265zM1245 573q186 0 187 -178q0 -71 -20 -157t-46 -132q-70 -119 -254 -118q-256 0 -256 202q0 35 8 68h207q-2 -20 -2 -39q0 -51 45 -51q51 0 70 63q18 74 18 124q0 51 -34 51t-68 -52l-170 31l110 492h455l-31 -181h-262l-28 -129
q43 6 71 6zM240 586l112 637l-119 -45l-59 168l295 116h154l-154 -876h-229z" />
    <glyph glyph-name="uni2156" unicode="&#x2156;" horiz-adv-x="1595" 
d="M383 0l623 1462h262l-621 -1462h-264zM1300 573q186 0 187 -178q1 -71 -19 -157t-47 -132q-70 -119 -254 -118q-256 0 -256 202q0 35 9 68h206q-2 -18 -2 -39q0 -51 45 -51q51 0 70 63q18 74 18 124q1 51 -33 51t-69 -52l-170 31l111 492h454l-30 -181h-263l-28 -129
q43 6 71 6zM467 1260q0 35 -29 34q-37 0 -57 -55q-2 -4 -14 -59h-207q16 156 86 226t209 69q254 0 254 -207q0 -106 -66 -209q-41 -57 -182 -197l-99 -96h254l-32 -180h-539l27 153l256 275q139 152 139 246z" />
    <glyph glyph-name="uni2157" unicode="&#x2157;" horiz-adv-x="1595" 
d="M383 0l623 1462h262l-621 -1462h-264zM1300 573q186 0 187 -178q1 -71 -19 -157t-47 -132q-70 -119 -254 -118q-256 0 -256 202q0 35 9 68h206q-2 -18 -2 -39q0 -51 45 -51q51 0 70 63q18 74 18 124q1 51 -33 51t-69 -52l-170 31l111 492h454l-30 -181h-263l-28 -129
q43 6 71 6zM360 1124q70 0 86 31q23 45 23 92t-43 47q-23 0 -36 -16t-23 -61h-205q26 258 280 258t254 -201q0 -150 -96 -225q47 -57 47 -146q0 -141 -63 -227q-70 -102 -244 -103q-254 0 -254 195q0 33 8 76h205q-2 -18 -2 -39q0 -51 45 -51q34 0 56 38t22 90t-18 68
t-60 17h-80l29 157h69z" />
    <glyph glyph-name="uni2158" unicode="&#x2158;" horiz-adv-x="1595" 
d="M383 0l621 1462h264l-623 -1462h-262zM1298 573q186 0 187 -178q1 -71 -19 -157t-47 -132q-70 -119 -252 -118q-256 0 -256 202q0 35 9 68h204v-39q0 -51 47 -51t65 66t19 119t-33 53t-69 -52l-168 31l109 492h456l-32 -181h-261l-28 -129q41 6 69 6zM360 586l27 145
h-313l22 131l318 600h225l-293 -557h72l26 150h187l-27 -150h58l-31 -174h-58l-26 -145h-187z" />
    <glyph glyph-name="uni2159" unicode="&#x2159;" horiz-adv-x="1595" 
d="M322 0l622 1462h262l-620 -1462h-264zM1194 367q0 41 -43 41t-57 -54q-25 -94 -25 -144t43 -50t57 53q25 90 25 154zM1421 387q-1 -170 -71 -285t-248 -114q-260 0 -260 202q0 129 51 240q18 43 86 135l233 312h263l-230 -306q96 -4 136 -46t40 -138zM246 586l112 637
l-118 -45l-60 168l295 116h154l-154 -876h-229z" />
    <glyph glyph-name="uni215A" unicode="&#x215a;" horiz-adv-x="1595" 
d="M399 0l621 1462h264l-622 -1462h-263zM1206 408q-43 0 -57 -54q-25 -94 -25 -144t43 -50t58 53q25 90 24 154q0 41 -43 41zM1477 387q0 -170 -71 -285t-249 -114q-260 0 -260 202q0 129 51 240q23 49 88 135l234 312h262l-232 -306q96 -4 136 -47t41 -137zM465 1159
q186 0 186 -178q0 -70 -19 -157t-46 -132q-68 -119 -252 -119q-256 0 -256 205q0 33 8 66h205v-39q0 -51 47 -51t65 66q46 170 -16 171q-31 0 -68 -51l-167 31l108 491h457l-31 -180h-262l-29 -129q41 6 70 6z" />
    <glyph glyph-name="oneeighth" unicode="&#x215b;" horiz-adv-x="1595" 
d="M301 0l623 1462h262l-621 -1462h-264zM1169 369q-49 0 -61 -47q-20 -72 -21 -119q1 -43 47 -43t62 39q23 74 23 125q-1 45 -50 45zM1199 528q44 0 58 37q23 61 23 123q0 41 -43 41q-33 0 -48 -17t-22 -59l-12 -84q0 -41 44 -41zM954 606q0 94 58 188t229 95
q242 0 242 -197q0 -176 -101 -231q57 -49 58 -144q0 -169 -77 -249t-237 -80q-266 0 -266 200q0 123 51 207q31 53 84 78q-41 39 -41 133zM225 586l113 637l-119 -45l-59 168l295 116h153l-153 -876h-230z" />
    <glyph glyph-name="threeeighths" unicode="&#x215c;" horiz-adv-x="1595" 
d="M383 0l623 1462h262l-621 -1462h-264zM1235 369q-49 0 -61 -47q-20 -72 -21 -119q0 -43 46 -43t63 39q23 74 22 125q0 45 -49 45zM1303 729q-31 0 -47 -17q-16 -16 -21 -52q-6 -36 -10 -58t-4 -33q0 -41 45 -41t59 37q23 68 23 116t-45 48zM1020 606q0 94 58 188t231 95
q242 0 241 -197q0 -176 -102 -231q57 -49 57 -144q0 -169 -77 -249t-236 -80q-266 0 -266 200q0 122 41 190t94 95q-41 39 -41 133zM360 1124q70 0 86 31q23 45 23 92t-43 47q-23 0 -36 -16t-23 -61h-205q26 258 280 258t254 -201q0 -150 -96 -225q47 -57 47 -146
q0 -141 -63 -227q-70 -102 -244 -103q-254 0 -254 195q0 33 8 76h205q-2 -18 -2 -39q0 -51 45 -51q34 0 56 38t22 90t-18 68t-60 17h-80l29 157h69z" />
    <glyph glyph-name="fiveeighths" unicode="&#x215d;" horiz-adv-x="1595" 
d="M383 0l621 1462h264l-623 -1462h-262zM1235 369q-49 0 -61 -47q-20 -72 -21 -119q0 -43 46 -43t63 39q23 74 22 125q0 45 -49 45zM1219 569q0 -41 45 -41t59 37q55 164 -23 164q-31 0 -46 -17q-15 -16 -21 -52t-10 -58t-4 -33zM1018 606q0 94 58 188t231 95
q242 0 241 -197q0 -176 -100 -231q57 -49 57 -144q0 -169 -77 -249t-236 -80q-266 0 -266 200q0 123 51 207q31 53 82 78q-41 39 -41 133zM465 1159q186 0 186 -178q0 -70 -19 -157t-46 -132q-68 -119 -252 -119q-256 0 -256 205q0 33 8 66h205v-39q0 -51 47 -51t65 66
q46 170 -16 171q-31 0 -68 -51l-167 31l108 491h457l-31 -180h-262l-29 -129q41 6 70 6z" />
    <glyph glyph-name="seveneighths" unicode="&#x215e;" horiz-adv-x="1595" 
d="M299 0l623 1462h262l-621 -1462h-264zM1151 369q-49 0 -61 -47q-20 -72 -21 -119q0 -43 46 -43t63 39q23 74 22 125q0 45 -49 45zM1181 528q44 0 58 37q23 61 23 123q0 41 -43 41q-33 0 -49 -17t-21 -59l-12 -84q0 -41 44 -41zM936 606q0 94 58 188t229 95
q242 0 241 -197q0 -176 -100 -231q57 -49 57 -144q-1 -169 -77 -249t-236 -80q-266 0 -266 200q0 123 51 207q31 53 84 78q-41 39 -41 133zM113 586l356 696h-250l33 180h487l-22 -131l-342 -745h-262z" />
    <glyph glyph-name="arrowleft" unicode="&#x2190;" horiz-adv-x="1638" 
d="M1503 602h-1011l333 -334l-176 -174l-551 580v104l551 580l176 -174l-333 -334h1011v-248z" />
    <glyph glyph-name="arrowup" unicode="&#x2191;" horiz-adv-x="1638" 
d="M694 0v1069l-334 -334l-174 176l580 551h104l580 -551l-174 -176l-334 334v-1069h-248z" />
    <glyph glyph-name="arrowright" unicode="&#x2192;" horiz-adv-x="1638" 
d="M135 602v248h1012l-334 334l176 174l551 -580v-104l-551 -580l-176 174l334 334h-1012z" />
    <glyph glyph-name="arrowdown" unicode="&#x2193;" horiz-adv-x="1638" 
d="M694 1462h248v-1069l334 334l174 -176l-580 -551h-104l-580 551l174 176l334 -334v1069z" />
    <glyph glyph-name="arrowboth" unicode="&#x2194;" horiz-adv-x="1638" 
d="M1223 602h-809l241 -242l-174 -174l-461 488v104l461 488l174 -174l-241 -242h809l-242 242l174 174l461 -488v-104l-461 -488l-174 174z" />
    <glyph glyph-name="arrowupdn" unicode="&#x2195;" horiz-adv-x="1638" 
d="M694 336v790l-241 -241l-174 174l487 461h104l488 -461l-174 -174l-242 241v-790l242 242l174 -175l-488 -460h-104l-487 460l174 175z" />
    <glyph glyph-name="uni2196" unicode="&#x2196;" horiz-adv-x="1638" 
d="M530 383h-247v795l100 100h795v-248h-471l714 -717l-174 -174l-717 715v-471z" />
    <glyph glyph-name="uni2197" unicode="&#x2197;" horiz-adv-x="1638" 
d="M459 1030v248h794l101 -100v-795h-248v471l-717 -715l-174 174l715 717h-471z" />
    <glyph glyph-name="uni2198" unicode="&#x2198;" horiz-adv-x="1638" 
d="M1106 1024h248v-795l-101 -100h-794v248h471l-715 717l174 174l717 -715v471z" />
    <glyph glyph-name="uni2199" unicode="&#x2199;" horiz-adv-x="1638" 
d="M1178 377v-248h-795l-100 100v795h247v-471l717 715l174 -174l-714 -717h471z" />
    <glyph glyph-name="partialdiff" unicode="&#x2202;" 
d="M549 739q0 84 -70 84q-51 0 -79 -46t-48 -161l-37 -208q-16 -94 -16 -121q0 -88 70 -88q53 0 82 47t49 162l37 208q12 70 12 123zM842 905q0 -133 -25 -268l-45 -250q-37 -207 -108 -293q-98 -117 -306 -117q-338 0 -338 263q1 63 15 147l45 250q72 408 358 407
q74 0 105 -30q-39 240 -246 286l68 183q121 -18 189 -45q288 -113 288 -533z" />
    <glyph glyph-name="emptyset" unicode="&#x2205;" 
d="M434 446q100 0 156 77q55 77 55 208t-47 209l-178 -494h14zM430 1028q-102 0 -158 -76t-57 -215q0 -139 61 -221l187 512h-33zM850 737q0 -209 -116 -339t-302 -130q-35 0 -76 6l-133 -370l-147 57l133 367q-92 59 -144 168t-53 241q0 209 115 339t299 130q49 0 98 -8
l113 315l147 -57l-114 -319q180 -135 180 -400z" />
    <glyph glyph-name="Delta" unicode="&#x2206;" 
d="M537 238l-13 821l-301 -821h314zM895 0h-1114l668 1462h274z" />
    <glyph glyph-name="product" unicode="&#x220f;" horiz-adv-x="1071" 
d="M-41 -422l332 1884h817l-332 -1884h-289l287 1628h-239l-287 -1628h-289z" />
    <glyph glyph-name="summation" unicode="&#x2211;" horiz-adv-x="964" 
d="M-88 -422l37 207l438 774l-160 686l37 217h764l-43 -252h-457l150 -647l-393 -733h481l-43 -252h-811z" />
    <glyph glyph-name="minus" unicode="&#x2212;" 
d="M59 616l39 222h770l-39 -222h-770z" />
    <glyph glyph-name="uni2215" unicode="&#x2215;" horiz-adv-x="325" 
d="M-211 0l623 1462h262l-621 -1462h-264z" />
    <glyph glyph-name="uni2218" unicode="&#x2218;" 
d="M430 944q-96 0 -162 -66t-66 -165q0 -100 64 -167t162 -67t163 67t64 167q0 100 -64 166q-65 65 -161 65zM430 1092q164 0 277 -110t113 -270t-114 -271q-112 -109 -278 -109t-278 110t-111 271q-1 163 113 271t278 108z" />
    <glyph glyph-name="uni2219" unicode="&#x2219;" horiz-adv-x="483" 
d="M98 580l49 284h304l-50 -284h-303z" />
    <glyph glyph-name="radical" unicode="&#x221a;" 
d="M154 0l-70 563h-96l43 240h305l18 -412l516 1454h531l-35 -200h-287l-633 -1645h-292z" />
    <glyph glyph-name="infinity" unicode="&#x221e;" horiz-adv-x="1357" 
d="M1071 719q0 69 -28 111q-29 42 -71 42t-72 -22t-101 -109l-19 -20l72 -82q56 -53 70 -62t53 -9t67 40q28 41 29 111zM394 567q50 0 95 51l68 80l21 23l-19 20q-70 82 -101 107q-32 24 -72 24t-68 -42t-28 -110t28 -111q26 -42 76 -42zM70 721q0 168 80 261t220 93
t236 -90q29 -27 72 -94q66 102 135 143q70 41 172 41q143 0 223 -93t80 -261t-80 -262t-222 -94t-234 90q-29 26 -74 94q-45 -70 -84 -105q-92 -80 -228 -80t-216 95q-80 94 -80 262z" />
    <glyph glyph-name="integral" unicode="&#x222b;" horiz-adv-x="737" 
d="M169 12q38 0 47 45t9 224v763q0 307 21 392q41 188 231 188q94 0 207 -33l-51 -221q-39 27 -67 27t-38 -7q-12 -7 -20 -50t-8 -212v-766q0 -307 -21 -391q-43 -186 -235 -186q-103 0 -203 33l51 219q39 -25 77 -25z" />
    <glyph glyph-name="similar" unicode="&#x223c;" 
d="M354 899q49 0 79 -15q29 -16 87 -66t88 -50q45 0 103 123l147 -49q-57 -152 -126 -220t-154 -67q-85 0 -187 94q-39 37 -67 37q-52 0 -103 -133l-155 37q52 164 120 236t168 73z" />
    <glyph glyph-name="uni2243" unicode="&#x2243;" 
d="M639 952q49 0 102 123l148 -49q-57 -150 -125 -218t-153 -69q-85 0 -187 95q-39 37 -68 36q-51 0 -102 -133l-156 37q53 164 121 237t168 72q49 0 79 -15t105 -83q39 -33 68 -33zM57 428l39 221h707l-39 -221h-707z" />
    <glyph glyph-name="approxequal" unicode="&#x2248;" 
d="M639 952q49 0 102 123l148 -49q-57 -150 -125 -218t-153 -69q-85 0 -187 95q-39 37 -68 36q-51 0 -102 -133l-156 37q53 164 121 237t168 72q49 0 79 -15t105 -83q39 -33 68 -33zM322 715q48 1 78 -15t88 -66t87 -50q45 0 103 123l147 -50q-57 -151 -126 -219
q-150 -147 -341 27q-39 37 -67 37q-52 0 -103 -133l-155 37q53 164 121 236t168 73z" />
    <glyph glyph-name="notequal" unicode="&#x2260;" 
d="M57 428l39 221h201l90 160h-262l37 211h344l125 223l198 -80l-79 -143h118l-37 -211h-200l-90 -160h262l-39 -221h-344l-125 -223l-199 80l80 143h-119z" />
    <glyph glyph-name="lessequal" unicode="&#x2264;" 
d="M-12 0l39 221h651l-39 -221h-651zM391 729l340 -207l-45 -252l-582 387l27 158l721 389l-49 -270z" />
    <glyph glyph-name="greaterequal" unicode="&#x2265;" 
d="M33 0l39 221h651l-39 -221h-651zM541 745l-340 205l45 254l581 -389l-26 -158l-721 -387l47 269z" />
    <glyph glyph-name="dotmath" unicode="&#x22c5;" horiz-adv-x="483" 
d="M98 580l49 284h304l-50 -284h-303z" />
    <glyph glyph-name="filledrect" unicode="&#x25ac;" 
d="M100 381v659h660v-659h-660z" />
    <glyph glyph-name="uni25B4" unicode="&#x25b4;" 
d="M45 369l385 770l387 -770h-772z" />
    <glyph glyph-name="uni25B8" unicode="&#x25b8;" 
d="M139 326v772l770 -385z" />
    <glyph glyph-name="uni25BE" unicode="&#x25be;" 
d="M45 1055h772l-387 -770z" />
    <glyph glyph-name="uni25C2" unicode="&#x25c2;" 
d="M721 326l-770 387l770 385v-772z" />
    <glyph glyph-name="lozenge" unicode="&#x25ca;" 
d="M246 725l184 -317l186 317l-186 317zM-47 725l477 788l477 -788l-477 -788z" />
    <glyph glyph-name="openbullet" unicode="&#x25e6;" 
d="M430 944q-96 0 -162 -66t-66 -165q0 -100 64 -167t162 -67t163 67t64 167q0 100 -64 166q-65 65 -161 65zM430 1092q164 0 277 -110t113 -270t-114 -271q-112 -109 -278 -109t-278 110t-111 271q-1 163 113 271t278 108z" />
    <glyph glyph-name="commaaccent" unicode="&#xf6c3;" horiz-adv-x="1024" 
d="M170 -494l139 367h264l-213 -367h-190z" />
    <glyph glyph-name="Acute" unicode="&#xf6c9;" horiz-adv-x="1024" 
d="M553 1589l199 322h311l-297 -322h-213z" />
    <glyph glyph-name="Caron" unicode="&#xf6ca;" horiz-adv-x="1024" 
d="M719 1745l104 158h264l-282 -318h-215l-172 318h254z" />
    <glyph glyph-name="Dieresis" unicode="&#xf6cb;" horiz-adv-x="1024" 
d="M752 1595l47 269h254l-47 -269h-254zM391 1595l47 269h254l-47 -269h-254z" />
    <glyph glyph-name="Grave" unicode="&#xf6ce;" horiz-adv-x="1024" 
d="M844 1589h-211l-184 322h282z" />
    <glyph glyph-name="Hungarumlaut" unicode="&#xf6cf;" horiz-adv-x="1024" 
d="M733 1589l168 322h283l-254 -322h-197zM416 1589l168 322h282l-254 -322h-196z" />
    <glyph glyph-name="Macron" unicode="&#xf6d0;" horiz-adv-x="1024" 
d="M420 1624l37 211h569l-37 -211h-569z" />
    <glyph glyph-name="zerooldstyle" unicode="&#xf730;" horiz-adv-x="917" 
d="M594 840q0 88 -66 88q-55 0 -83 -58t-58 -235l-22 -123q-27 -162 -27 -205q0 -88 65 -88q55 -1 83 57t59 236l22 123q27 162 27 205zM883 844q0 -84 -27 -236l-31 -176q-23 -135 -51 -209t-80 -129q-102 -117 -292 -117t-271 78q-82 78 -82 246q0 91 27 238l30 176
q23 135 52 209q97 246 385 245q176 -1 258 -79t82 -246z" />
    <glyph glyph-name="oneoldstyle" unicode="&#xf731;" horiz-adv-x="614" 
d="M102 0l144 817l-160 -82l-96 226l420 186h198l-202 -1147h-304z" />
    <glyph glyph-name="twooldstyle" unicode="&#xf732;" horiz-adv-x="786" 
d="M526 866q0 59 -63 60q-49 0 -77 -30t-42 -99h-274q33 197 128 285t268 87t263 -67t90 -191q0 -172 -96 -299q-53 -72 -254 -250l-135 -120h364l-41 -242h-739l35 207l366 356q117 115 162 179t45 124z" />
    <glyph glyph-name="threeoldstyle" unicode="&#xf733;" horiz-adv-x="845" 
d="M303 571q143 0 176 68q47 86 47 207q0 80 -51 80q-37 0 -59 -30t-41 -105h-277q29 178 103 260q105 119 281 119t264 -82q88 -80 90 -220q0 -140 -52 -250q-52 -109 -141 -161q102 -80 102 -242q1 -221 -103 -376t-345 -154q-352 0 -352 278q0 43 4 98h278q-2 -18 -2 -38
q0 -95 69 -95t105 84q37 78 37 168t-38 124t-134 34h-90l41 233h88z" />
    <glyph glyph-name="fouroldstyle" unicode="&#xf734;" horiz-adv-x="778" 
d="M291 -293l51 293h-457l33 182l508 965h307l-475 -905h127l45 260h270l-45 -260h107l-43 -242h-107l-51 -293h-270z" />
    <glyph glyph-name="fiveoldstyle" unicode="&#xf735;" horiz-adv-x="858" 
d="M479 618q276 0 277 -262q0 -106 -33 -256t-72 -223q-106 -193 -368 -192q-172 0 -263 70q-90 71 -90 208q0 43 4 98h279q-2 -18 -2 -43q0 -90 71 -90t109 92q55 141 55 295q0 74 -68 74t-120 -84l-209 45l172 797h645l-43 -252h-383l-63 -293q41 16 102 16z" />
    <glyph glyph-name="sixoldstyle" unicode="&#xf736;" horiz-adv-x="874" 
d="M479 721q-82 0 -110 -129q-47 -213 -47 -297t67 -84q80 0 109 135q47 201 47 288t-66 87zM623 938q104 0 159 -69q56 -69 56 -189t-27 -258q-27 -139 -68 -233q-41 -95 -139 -153t-244 -58t-239 78q-92 79 -92 220q0 90 24 213q25 123 57 201t126 228l331 516h330
l-326 -500q41 4 52 4z" />
    <glyph glyph-name="sevenoldstyle" unicode="&#xf737;" horiz-adv-x="661" 
d="M-129 -293l541 1188h-365l45 252h662l-33 -182l-512 -1258h-338z" />
    <glyph glyph-name="eightoldstyle" unicode="&#xf738;" horiz-adv-x="897" 
d="M471 643q-57 0 -86 -44t-53 -195q-4 -26 -9 -51t-6 -60q0 -82 83 -82t108 106q37 174 37 250t-74 76zM639 1164q0 76 -70 75q-70 0 -92 -84q-37 -139 -37 -237q0 -72 68 -72t92 86q39 156 39 232zM393 -23q-370 0 -368 312q0 96 26 204q27 108 67 170t111 99
q-35 35 -46 71t-11 103q0 174 64 317q90 203 339 203q332 0 332 -295q0 -147 -53 -274q-35 -80 -109 -125q47 -39 65 -87t19 -144t-27 -208t-71 -182q-100 -164 -338 -164z" />
    <glyph glyph-name="nineoldstyle" unicode="&#xf739;" horiz-adv-x="872" 
d="M500 936q-82 0 -111 -135q-47 -205 -47 -290t66 -85q80 0 110 129q48 209 48 295t-66 86zM262 209q-213 0 -213 266q0 111 27 250q28 139 68 234t138 153t244 57q148 -1 240 -79t92 -220q0 -90 -24 -212t-56 -198q-31 -76 -129 -231l-336 -544h-329l329 528
q-41 -4 -51 -4z" />
    <glyph glyph-name="Dbreve" horiz-adv-x="1060" 
d="M561 1868q0 -99 117 -99q70 0 104 29t56 107h178q-14 -178 -95 -257t-253 -79q-289 0 -289 203q0 47 12 133h172q-2 -20 -2 -37zM764 1120q0 100 -139 101h-93l-172 -979h93q113 4 149 50t68 220l78 438q16 106 16 170zM604 1462q262 0 361 -71q106 -82 106 -246
q0 -72 -20 -195l-97 -544q-33 -225 -151 -318q-119 -92 -367 -88h-422l258 1462h332z" />
    <glyph glyph-name="ahungarumlaut" horiz-adv-x="884" 
d="M614 1186l168 321h283l-254 -321h-197zM297 1186l168 321h283l-254 -321h-197zM461 459q-92 0 -134 -42t-42 -138q0 -74 80 -74q57 0 84 33t40 122l17 99h-45zM479 862q-82 0 -100 -108h-266q31 180 121 261q91 81 264 81q340 0 340 -303q0 -88 -21 -199l-104 -594h-224
l-6 59q-41 -47 -83 -64t-111 -18q-141 0 -219 68t-78 188q0 219 104 328q90 90 310 90h135l18 131q0 44 -18 62t-62 18z" />
    <glyph glyph-name="uni0204.sc" horiz-adv-x="800" 
d="M522 1264h-196l-142 321h283zM840 1264h-197l-141 321h284zM2 0l203 1147h661l-43 -238h-366l-37 -213h309l-43 -237h-309l-39 -221h377l-41 -238h-672z" />
    <glyph glyph-name="uni0206.sc" horiz-adv-x="800" 
d="M698 1318q0 34 -27 57q-27 24 -93 24t-100 -29t-56 -106h-178q14 178 95 257t253 78q289 0 289 -202q-1 -45 -13 -133h-172q2 20 2 54zM2 0l203 1147h661l-43 -238h-366l-37 -213h309l-43 -237h-309l-39 -221h377l-41 -238h-672z" />
    <glyph glyph-name="uni0208.sc" horiz-adv-x="483" 
d="M336 1264h-197l-141 321h283zM653 1264h-196l-142 321h285zM0 0l203 1147h295l-203 -1147h-295z" />
    <glyph glyph-name="uni020A.sc" horiz-adv-x="483" 
d="M514 1300q0 99 -117 99q-69 0 -103 -29t-56 -106h-179q13 178 95 257t254 78q289 0 288 -202q0 -45 -12 -133h-172q2 20 2 36zM0 0l203 1147h295l-203 -1147h-295z" />
    <glyph glyph-name="uni020C.sc" horiz-adv-x="925" 
d="M557 1264h-197l-141 321h283zM874 1264h-196l-141 321h284zM610 844q0 78 -80 78q-59 0 -87 -43t-48 -162l-51 -287q-14 -72 -14 -127q0 -78 80 -78q59 0 87 42t48 163l51 287q14 86 14 127zM524 1163q206 -1 292 -69t87 -220q0 -72 -20 -192l-58 -324q-20 -111 -43 -168
q-84 -206 -368 -206q-206 0 -292 68t-85 222q0 82 20 191l58 323q31 190 106 271q97 104 303 104z" />
    <glyph glyph-name="uni020E.sc" horiz-adv-x="925" 
d="M721 1300q0 99 -117 99q-70 0 -104 -29t-56 -106h-178q14 178 95 257t253 78q289 0 289 -202q0 -45 -12 -133h-172q2 20 2 36zM610 844q0 78 -80 78q-59 0 -87 -43t-48 -162l-51 -287q-14 -72 -14 -127q0 -78 80 -78q59 0 87 42t48 163l51 287q14 86 14 127zM524 1163
q206 -1 292 -69t87 -220q0 -72 -20 -192l-58 -324q-20 -111 -43 -168q-84 -206 -368 -206q-206 0 -292 68t-85 222q0 82 20 191l58 323q31 190 106 271q97 104 303 104z" />
    <glyph glyph-name="uni0210.sc" horiz-adv-x="901" 
d="M492 1264h-197l-141 321h282zM809 1264h-197l-141 321h285zM457 666q135 0 135 174q0 41 -20 57t-66 16h-53l-45 -247h49zM481 1147q207 0 303 -49q113 -63 113 -209q0 -195 -90 -299q-47 -59 -137 -101l139 -489h-336l-82 440h-16l-78 -440h-295l203 1147h276z" />
    <glyph glyph-name="uni0212.sc" horiz-adv-x="901" 
d="M696 1318q0 34 -27 57q-27 24 -93 24t-100 -29t-56 -106h-178q14 178 95 257t253 78q289 0 289 -202q-1 -45 -13 -133h-172q2 20 2 54zM457 666q135 0 135 174q0 41 -20 57t-66 16h-53l-45 -247h49zM481 1147q207 0 303 -49q113 -63 113 -209q0 -195 -90 -299
q-47 -59 -137 -101l139 -489h-336l-82 440h-16l-78 -440h-295l203 1147h276z" />
    <glyph glyph-name="uni0214.sc" horiz-adv-x="948" 
d="M569 1264h-196l-142 321h283zM887 1264h-197l-141 321h285zM346 293q0 -68 74 -68q53 0 79 33t40 125l135 764h295l-144 -817q-21 -113 -39 -160t-59 -86q-100 -100 -315 -100q-365 0 -365 237q0 49 19 162l135 764h295l-136 -764v-6q-14 -28 -14 -84z" />
    <glyph glyph-name="uni0216.sc" horiz-adv-x="948" 
d="M733 1318q0 34 -27 57q-28 24 -94 24t-100 -29t-55 -106h-178q14 178 95 257t253 78q289 0 288 -202q0 -45 -12 -133h-172q2 20 2 54zM346 293q0 -68 74 -68q53 0 79 33t40 125l135 764h295l-144 -817q-21 -113 -39 -160t-59 -86q-100 -100 -315 -100q-365 0 -365 237
q0 49 19 162l135 764h295l-136 -764v-6q-14 -28 -14 -84z" />
    <glyph glyph-name="uni1E24.sc" horiz-adv-x="964" 
d="M174 -438l47 274h275l-47 -274h-275zM0 0l203 1147h295l-80 -451h186l80 451h295l-203 -1147h-295l80 459h-186l-80 -459h-295z" />
    </font>
</defs>
</svg>
