<?xml version="1.0" standalone="no"?>
<!DOCTYPE svg PUBLIC "-//W3C//DTD SVG 1.1//EN" "http://www.w3.org/Graphics/SVG/1.1/DTD/svg11.dtd" >
<svg xmlns="http://www.w3.org/2000/svg">
<metadata>
Created by FontPrep 20130207 at Wed Nov 23 14:29:04 2016
 By Tina Muller
Copyright (c) 2016 by Enrique Hernandez Vasquez. All rights reserved.
</metadata>
<defs>
<font id="aa6fb064bae57f57900b58b4d08e9d74" horiz-adv-x='1024' >
  <font-face 
    font-family="IsidoraAlt-Light"
    font-weight="300"
    font-stretch="normal"
    units-per-em="2048"
    panose-1="0 0 4 0 0 0 0 0 0 0"
    ascent="1638"
    descent="-410"
    x-height="1024"
    cap-height="1331"
    bbox="-276 -717 2636 1788"
    underline-thickness="102"
    underline-position="-102"
    unicode-range="U+0020-FB02"
  />
<missing-glyph horiz-adv-x="1177" 
d="M784 -289h-391v-78h166l-166 -110v-78h391v78h-239l164 110h75v78zM707 -45v-111h-236v111h236zM784 33h-391v-266h391v266zM784 440h-235v-133h80v55h78v-110h-236v188h-78v-266h391v266zM784 727h-77v-156h-314v-79h391v235zM784 868h-391v-77h156v-89h-156v-75h236
v164h155v77zM549 1096v-84h-78v84h78zM629 1178h-236v-246h391v80h-155v166zM784 1481h-389v-78h154v-88h-156v-78h391v78h-155v88h155v78zM965 1638v-2355h-746v2355h746z" />
    <glyph glyph-name="fi" unicode="fi" horiz-adv-x="1007" 
d="M780 1137q-34 -1 -58 23t-24 59t24 59t58 25q34 0 60 -25q24 -26 24 -60t-24 -58q-25 -23 -60 -23zM741 123v833h-446v-1142q0 -70 -34 -109t-88 -39t-91 29l-2 8l18 49l8 4q20 -20 52 -20q61 0 61 92v1128h-180v68h180v39q0 178 77 266t208 88q78 0 141 -37l2 -6
l-26 -53l-9 -2q-55 29 -106 29q-211 0 -211 -285v-39h524v-887q0 -92 60 -92q27 0 53 18l6 -2l20 -51q-23 -35 -85 -35t-97 39t-35 109z" />
    <glyph glyph-name="fl" unicode="fl" horiz-adv-x="1013" 
d="M743 123v1098q-35 127 -200 127q-115 0 -182 -74t-66 -211v-39h328v-68h-328v-1142q0 -70 -34 -109t-88 -39t-91 29l-2 8l18 49l8 4q20 -20 52 -20q61 0 61 92v1128h-180v68h180v39q0 168 87 261q88 93 228 93t214 -61t73 -150v-1069q0 -92 60 -92q27 0 53 18l6 -2
l21 -51q-29 -35 -90 -35q-60 0 -94 39t-34 109z" />
    <glyph glyph-name=".notdef" horiz-adv-x="1177" 
d="M784 -289h-391v-78h166l-166 -110v-78h391v78h-239l164 110h75v78zM707 -45v-111h-236v111h236zM784 33h-391v-266h391v266zM784 440h-235v-133h80v55h78v-110h-236v188h-78v-266h391v266zM784 727h-77v-156h-314v-79h391v235zM784 868h-391v-77h156v-89h-156v-75h236
v164h155v77zM549 1096v-84h-78v84h78zM629 1178h-236v-246h391v80h-155v166zM784 1481h-389v-78h154v-88h-156v-78h391v78h-155v88h155v78zM965 1638v-2355h-746v2355h746z" />
    <glyph glyph-name=".null" horiz-adv-x="0" 
 />
    <glyph glyph-name="nonmarkingreturn" horiz-adv-x="681" 
 />
    <glyph glyph-name="space" unicode=" " horiz-adv-x="532" 
 />
    <glyph glyph-name="exclam" unicode="!" horiz-adv-x="425" 
d="M213 133q35 -1 59 -25t25 -58q0 -34 -25 -58q-26 -24 -60 -25q-34 0 -58 25q-24 24 -25 58q1 34 25 58t59 25zM166 1327l6 4h80l6 -6l-10 -1075l-6 -6h-58l-6 6z" />
    <glyph glyph-name="quotedbl" unicode="&#x22;" horiz-adv-x="575" 
d="M373 864l-19 467h86l-18 -467h-49zM154 864l-19 467h86l-18 -467h-49z" />
    <glyph glyph-name="numbersign" unicode="#" horiz-adv-x="1144" 
d="M403 471h324l53 389h-323zM264 0l58 406h-246l10 65h244l55 389h-254l8 66h254l56 403h71l-53 -403h324l55 403h72l-54 -403h207l-8 -66h-211l-51 -389h215l-10 -65h-215l-58 -406h-71l57 406h-326l-57 -406h-72z" />
    <glyph glyph-name="dollar" unicode="$" horiz-adv-x="884" 
d="M793 408q0 -119 -86 -193t-224 -84v-154h-71v154q-221 12 -334 186v9l49 36h8q100 -162 305 -161q121 0 197 56t76 151q1 42 -19 79t-46 57l-42 31q-40 30 -128 65t-124 50q-83 35 -151 89t-69 162q-1 109 78 181t200 80v150h71v-152q182 -18 273 -158v-6l-49 -39h-9
q-98 135 -258 136q-100 -1 -165 -53t-65 -129t54 -124q53 -47 159 -86q105 -39 121 -47l60 -30t92 -59q48 -39 61 -65q36 -74 36 -132z" />
    <glyph glyph-name="percent" unicode="%" horiz-adv-x="1509" 
d="M1147 43q94 0 150 87t57 228q0 142 -56 230t-151 88t-151 -88t-56 -230t56 -228q56 -87 151 -87zM1147 -25q-123 -1 -201 105t-78 278t78 278t201 107q123 0 200 -106q77 -107 77 -279t-78 -278q-76 -106 -199 -105zM367 655q94 0 151 87q57 88 57 230t-57 229t-151 87
q-95 0 -151 -87t-56 -229t56 -230q57 -87 151 -87zM203 8l1024 1323h71l5 -10l-1022 -1321h-76zM367 588q-123 0 -200 106t-77 278t77 278t200 106t201 -106t77 -278q1 -172 -77 -278t-201 -106z" />
    <glyph glyph-name="ampersand" unicode="&#x26;" horiz-adv-x="1179" 
d="M180 412q0 -158 110 -259t272 -101t278 95l-359 490l-78 113q-91 -37 -157 -127t-66 -211zM558 -25q-192 0 -327 123t-135 308q0 147 82 253t182 154q-98 163 -98 277t89 190t229 76q176 0 292 -144v-8l-51 -45h-8q-96 121 -231 121q-102 0 -169 -55t-67 -150
q0 -53 31 -124t63 -120t107 -153l346 -471q74 92 74 222t-90 228v9l61 41h6q106 -129 106 -287t-106 -281q68 -94 125 -94q33 0 53 14l6 -4l17 -55l-2 -6q-31 -18 -76 -19q-94 0 -180 109q-137 -109 -329 -109z" />
    <glyph glyph-name="quotesingle" unicode="'" horiz-adv-x="356" 
d="M154 864l-19 467h86l-18 -467h-49z" />
    <glyph glyph-name="parenleft" unicode="(" horiz-adv-x="528" 
d="M186 573q0 -492 310 -872h-90q-301 401 -302 872q0 471 302 873h90q-310 -381 -310 -873z" />
    <glyph glyph-name="parenright" unicode=")" horiz-adv-x="528" 
d="M426 574q0 -472 -301 -873h-90q309 381 309 873t-309 872h90q301 -400 301 -872z" />
    <glyph glyph-name="asterisk" unicode="*" horiz-adv-x="925" 
d="M430 1372h66v-311l270 156l33 -58l-271 -155l271 -158l-33 -58l-270 156v-311h-66v311l-270 -156l-35 58l270 158l-270 155l35 58l270 -156v311z" />
    <glyph glyph-name="plus" unicode="+" horiz-adv-x="1110" 
d="M1028 647v-63h-436v-420h-72v420h-436v63h436v418h72v-418h436z" />
    <glyph glyph-name="comma" unicode="," horiz-adv-x="434" 
d="M131 59q0 35 25 59q24 24 60 24t60 -26q24 -24 24 -70q1 -46 -37 -137t-118 -190h-8l-39 33v6q45 61 70 129t22 93q-59 18 -59 79z" />
    <glyph glyph-name="hyphen" unicode="-" horiz-adv-x="976" 
d="M143 647h691v-65h-691v65z" />
    <glyph glyph-name="period" unicode="." horiz-adv-x="419" 
d="M211 -16q-35 0 -59 24t-25 59q0 35 25 59q26 24 60 24t58 -25t25 -59q-1 -34 -25 -58t-59 -24z" />
    <glyph glyph-name="slash" unicode="/" horiz-adv-x="1001" 
d="M874 1442h70l6 -8l-821 -1543h-70l-6 9z" />
    <glyph glyph-name="zero" unicode="0" horiz-adv-x="1206" 
d="M195 666q0 -274 112 -445q113 -170 297 -170t296 169q112 170 112 446t-112 445t-296 169t-296 -170t-113 -444zM1094 666q0 -310 -136 -500t-354 -190q-219 0 -354 190t-135 500t135 499q135 191 354 191q218 0 354 -190t136 -500z" />
    <glyph glyph-name="one" unicode="1" horiz-adv-x="569" 
d="M348 1331v-1331h-80v1260h-211l-4 6l23 65h272z" />
    <glyph glyph-name="two" unicode="2" horiz-adv-x="1001" 
d="M909 70v-70h-835v61q387 381 473 478q217 242 239 403q4 25 5 47q0 135 -86 214t-228 79q-184 0 -319 -162h-8l-48 43v6q156 186 375 187q178 0 287 -100t108 -267q0 -135 -94 -283t-347 -397q-79 -77 -245 -239h723z" />
    <glyph glyph-name="three" unicode="3" horiz-adv-x="1034" 
d="M924 347q0 -151 -120 -261t-312 -111q-115 1 -229 49t-191 136v8l47 43h6q66 -78 165 -120t199 -42q156 0 255 88q100 88 100 233q0 144 -108 232t-277 88h-78v64h86q131 0 226 78t95 194t-82 186t-212 70q-182 0 -304 -135h-8l-47 41v8q154 160 365 160q160 0 265 -89
t105 -233q0 -106 -60 -187t-159 -120q127 -37 200 -133t73 -247z" />
    <glyph glyph-name="four" unicode="4" horiz-adv-x="1075" 
d="M750 426v748l-611 -748h611zM995 426v-70h-170v-356h-77v356h-709v62l747 913h39v-905h170z" />
    <glyph glyph-name="five" unicode="5" horiz-adv-x="1079" 
d="M558 862q190 0 314 -125t123 -319q0 -194 -135 -318q-135 -125 -340 -125q-262 0 -422 183v8l49 45h7q135 -162 362 -162q172 -1 286 105t114 268t-105 264q-104 102 -270 102q-111 0 -205 -47t-141 -112h-9l-59 28l104 674h652v-74h-586l-76 -501q147 106 337 106z" />
    <glyph glyph-name="six" unicode="6" horiz-adv-x="1091" 
d="M566 784q-172 0 -278 -105q-108 -105 -108 -262t106 -263t278 -105q172 -1 278 105t106 264t-105 262t-277 104zM578 858q190 0 321 -125t131 -315t-131 -316t-335 -127q-204 0 -334 125t-131 321q-1 195 139 445t374 494h9l49 -39v-8q-281 -285 -420 -578
q138 123 328 123z" />
    <glyph glyph-name="seven" unicode="7" horiz-adv-x="894" 
d="M31 1331h839v-49l-573 -1282h-80l-4 6l559 1249h-741v76z" />
    <glyph glyph-name="eight" unicode="8" horiz-adv-x="1132" 
d="M567 49q164 0 275 93q110 92 110 238t-109 241q-110 94 -275 94q-166 0 -276 -94q-110 -93 -110 -239t110 -240t275 -93zM283 1034q-1 -110 79 -180t204 -70t205 70t81 180t-81 178q-81 70 -204 70t-203 -68t-81 -180zM1032 381q0 -176 -133 -291t-332 -115t-331 116
t-134 290q0 133 78 231t207 142q-86 40 -136 112t-50 168q0 142 104 232t262 90t262 -90t105 -232q0 -96 -50 -170t-136 -110q128 -42 206 -142t78 -231z" />
    <glyph glyph-name="nine" unicode="9" horiz-adv-x="1091" 
d="M528 547q172 0 279 104q106 104 106 262q0 157 -106 263q-107 106 -279 106t-278 -105t-106 -263t106 -263q106 -104 278 -104zM517 473q-193 0 -323 125t-131 315q-1 191 131 317t336 126t333 -124q130 -124 131 -318t-141 -448t-374 -497h-6l-49 39v8q289 295 426 592
q-139 -135 -333 -135z" />
    <glyph glyph-name="colon" unicode=":" horiz-adv-x="452" 
d="M227 -20q-35 0 -59 24t-25 58q0 34 25 59q26 25 60 25t59 -26q25 -24 25 -58t-26 -58q-24 -24 -59 -24zM227 872q-35 0 -59 25t-25 59q0 34 25 58q26 24 60 24t59 -24t25 -59t-26 -59q-24 -24 -59 -24z" />
    <glyph glyph-name="semicolon" unicode=";" horiz-adv-x="507" 
d="M143 -242q45 61 70 129t23 93q-59 18 -60 79q0 35 25 59t61 24t59 -26q25 -24 25 -70t-38 -137t-118 -190h-8l-39 33v6zM264 887q-36 1 -60 25t-24 59t25 59t59 25q34 0 60 -25q24 -26 24 -60t-24 -59q-25 -24 -60 -24z" />
    <glyph glyph-name="less" unicode="&#x3c;" horiz-adv-x="966" 
d="M836 1061l-676 -402l669 -395l7 -6v-68l-9 -4l-764 449v49l764 449l9 -5v-67z" />
    <glyph glyph-name="equal" unicode="=" horiz-adv-x="1241" 
d="M150 420h942v-66h-942v66zM150 874h942v-65h-942v65z" />
    <glyph glyph-name="greater" unicode="&#x3e;" horiz-adv-x="966" 
d="M139 1133l764 -449v-49l-764 -449l-8 4v68l6 6l670 395l-670 396l-6 6v67z" />
    <glyph glyph-name="question" unicode="?" horiz-adv-x="983" 
d="M494 133q36 -1 60 -25t24 -58t-25 -58t-59 -25q-34 0 -60 25q-24 24 -24 58t24 59q25 24 60 24zM489 1356q170 0 289 -104t119 -257q0 -107 -58 -187t-114 -133q-55 -52 -68 -65q-65 -64 -95 -120t-30 -132v-104h-75v102q0 96 37 167t145 171q107 101 131 146
q45 84 45 153q0 125 -97 207q-96 82 -234 82t-227 -80t-122 -198l-8 -3l-64 17l-2 8q37 142 147 236t281 94z" />
    <glyph glyph-name="at" unicode="@" horiz-adv-x="1755" 
d="M520 535q0 -133 82 -223t212 -91q130 0 215 89q85 90 85 226t-85 224t-215 88t-212 -90t-82 -223zM872 -248q-324 0 -546 217t-224 543q0 326 222 543t554 217t548 -206t216 -515q0 -197 -89 -301t-218 -105q-94 1 -149 55t-62 148q-92 -186 -313 -186q-162 0 -262 106
t-100 268t101 266q101 105 265 105q213 0 301 -180v172h64v-491q0 -201 153 -201q100 0 167 91t67 253q0 285 -198 468q-197 183 -495 183t-498 -196t-200 -496q0 -299 200 -494t494 -194q223 0 387 119h9l37 -47v-9q-173 -133 -431 -133z" />
    <glyph glyph-name="A" unicode="A" horiz-adv-x="1447" 
d="M383 403h678l-336 803zM1347 -25q-49 0 -91 32t-78 116l-86 207h-740l-88 -207q-39 -88 -78 -118t-90 -30t-86 29l-4 8l23 56l8 2q23 -18 55 -18t53 20q20 20 50 84l503 1175h58l493 -1175q27 -60 49 -82t54 -22t57 18l6 -2l25 -56l-4 -8q-39 -29 -89 -29z" />
    <glyph glyph-name="B" unicode="B" horiz-adv-x="1249" 
d="M725 74q147 0 238 80q90 80 90 212q1 132 -95 212t-251 79h-420v-583h438zM670 1257h-383v-530h401q139 0 221 71q82 72 82 196q1 124 -85 194t-236 69zM1137 362q0 -164 -113 -263t-315 -99h-502v1331h455q198 0 306 -91t107 -247q1 -106 -57 -183t-152 -114
q119 -35 195 -122t76 -212z" />
    <glyph glyph-name="C" unicode="C" horiz-adv-x="1419" 
d="M184 666q0 -260 177.5 -436.5t439.5 -176.5q145 0 271 60.5t208 165.5h6l57 -43v-7q-94 -119 -236 -186.5t-306 -67.5q-299 0 -499 199t-200 491.5t200 491.5t499 199q164 0 306 -67.5t236 -186.5v-6l-57 -43h-6q-82 104 -208 164.5t-271 60.5q-262 0 -439.5 -176
t-177.5 -436z" />
    <glyph glyph-name="D" unicode="D" horiz-adv-x="1458" 
d="M670 74q276 0 437 160t161 432q0 270 -161 431t-437 160h-383v-1183h383zM670 1331q315 0 498 -182q184 -182 184 -483q0 -302 -184 -484t-498 -182h-463v1331h463z" />
    <glyph glyph-name="E" unicode="E" horiz-adv-x="1122" 
d="M1034 1257h-747v-548h587v-72h-587v-563h747v-74h-827v1331h827v-74z" />
    <glyph glyph-name="F" unicode="F" horiz-adv-x="1028" 
d="M985 1257h-698v-548h549v-72h-549v-637h-80v1331h778v-74z" />
    <glyph glyph-name="G" unicode="G" horiz-adv-x="1546" 
d="M1479 635q0 -276 -198 -468t-488.5 -192t-490.5 199t-200 491.5t200 491.5t497 199q166 0 308 -66.5t236 -185.5v-6l-57 -45h-6q-82 106 -209 165.5t-274 59.5q-258 0 -435.5 -176t-177.5 -436t176.5 -436.5t428.5 -176.5t427 161t179 400h-590v74h663l7 -8q4 -16 4 -45z
" />
    <glyph glyph-name="H" unicode="H" horiz-adv-x="1472" 
d="M1186 1331h80v-1331h-80v637h-899v-637h-80v1331h80v-622h899v622z" />
    <glyph glyph-name="I" unicode="I" horiz-adv-x="698" 
d="M625 1260h-236v-1188h236v-72h-551v72h235v1188h-235v71h551v-71z" />
    <glyph glyph-name="J" unicode="J" horiz-adv-x="1017" 
d="M287 1331h540v-975q-1 -174 -109 -277t-272 -104q-250 0 -376 199v6l57 45h6q113 -174 311 -174q133 0 218 84q84 84 83 225v897h-458v74z" />
    <glyph glyph-name="K" unicode="K" horiz-adv-x="1187" 
d="M1108 -25q-96 0 -219 144l-445 520l-147 -156v-483h-82v1188q0 92 -61 92q-33 0 -52 -18l-8 2l-22 55l4 8q37 29 94 29t92 -39t35 -109v-614l702 737h97l4 -6l-600 -627l467 -546q88 -100 145 -101q35 0 59 19l9 -2l22 -58l-4 -8q-39 -27 -90 -27z" />
    <glyph glyph-name="L" unicode="L" horiz-adv-x="1001" 
d="M958 74v-74h-751v1331h80v-1257h671z" />
    <glyph glyph-name="M" unicode="M" horiz-adv-x="1767" 
d="M1612 -25q-117 0 -142 211l-106 947l-453 -1133h-55l-450 1133l-107 -947q-25 -211 -152 -211q-51 0 -90 29l-2 8l23 56l8 2q22 -18 56 -18t53 37q18 38 28 134l121 1108h57l484 -1208l483 1208h55l123 -1108q10 -96 28 -134t53 -38q34 0 56 19l9 -2l22 -56l-2 -8
q-40 -29 -100 -29z" />
    <glyph glyph-name="N" unicode="N" horiz-adv-x="1499" 
d="M1212 1331h80v-1331h-55l-950 1178v-1178h-80v1331h55l950 -1177v1177z" />
    <glyph glyph-name="O" unicode="O" horiz-adv-x="1607" 
d="M805 53q266 0 442 175q176 176 176 438t-176 437t-442 175q-265 0 -443 -175t-178 -437t177 -438q178 -175 444 -175zM804 -25q-302 0 -502 199t-200 492q0 294 200 492t502 198t503 -199t201 -491t-202 -492q-200 -199 -502 -199z" />
    <glyph glyph-name="P" unicode="P" horiz-adv-x="1159" 
d="M678 625q152 0 242 88t90 228t-91 228t-241 88h-391v-632h391zM662 1331q202 0 316 -104q114 -105 114 -285t-115 -284t-315 -103h-375v-555h-80v1331h455z" />
    <glyph glyph-name="Q" unicode="Q" horiz-adv-x="1607" 
d="M517 340q-120 0 -206 -53q84 -109 213 -171t281 -63q76 0 135 15q-141 158 -222 215t-201 57zM805 1278q-265 0 -443 -175t-178 -437q0 -170 82 -314q104 66 248 66t246 -71t266 -257q180 63 289 219t108 357q0 262 -176 437t-442 175zM1508 -324q-144 0 -250 76
t-259 248q-92 -25 -194 -25q-303 0 -503 199t-200 492q0 294 200 492t502 198t503 -199t200 -491q0 -217 -115 -390q-116 -172 -311 -249q135 -152 219 -213q84 -62 207 -62t209 76l8 -4l35 -55l-2 -9q-105 -84 -249 -84z" />
    <glyph glyph-name="R" unicode="R" horiz-adv-x="1236" 
d="M287 662h391q154 0 243 80.5t89 219t-89.5 217t-242.5 78.5h-391v-595zM1098 -25q-49 0 -87 18.5t-60.5 37t-52.5 69t-39 72t-25.5 60t-19.5 46t-7 15.5q-129 297 -209 297h-311v-590h-80v1331h455q205 0 317.5 -96t112.5 -266t-97.5 -266.5t-275.5 -110.5
q70 -43 174 -291q54 -124 84 -169q52 -81 125 -81q39 0 63 19l9 -4l20 -56l-4 -8q-43 -27 -92 -27z" />
    <glyph glyph-name="S" unicode="S" horiz-adv-x="1064" 
d="M537 53q156 0 251 78t95 197q0 63 -21.5 98t-36 53.5t-44 39t-48 32.5t-59.5 31.5t-60.5 27.5t-70.5 30t-70 30q-156 68 -242 144.5t-86 213.5t111 232.5t287 95.5q229 0 383 -180v-7l-52 -47h-6q-135 156 -325 156q-137 0 -225.5 -71.5t-88.5 -174t71 -163t214 -124.5
q242 -97 318 -158q76 -62 93 -96q42 -83 42 -159q0 -158 -118 -257.5t-304 -99.5q-141 0 -268 59t-199 161v6l51 49h6q147 -197 402 -197z" />
    <glyph glyph-name="T" unicode="T" horiz-adv-x="1044" 
d="M561 1257v-1257h-82v1257h-450v74h987v-74h-455z" />
    <glyph glyph-name="U" unicode="U" horiz-adv-x="1429" 
d="M723 -25q-240 -1 -381 147t-141 398v668q0 92 -64 92q-31 0 -51 -18l-8 2l-21 55l2 8q37 29 95 29t93 -39q34 -39 34 -109v-684q1 -217 119 -345t322 -128t324 129t119 344v807h80v-811q0 -250 -141 -398t-381 -147z" />
    <glyph glyph-name="V" unicode="V" horiz-adv-x="1439" 
d="M1346 1280q-59 0 -101 -100l-497 -1180h-58l-495 1180q-41 100 -101 100q-35 0 -57 -18l-8 2l-23 55l4 8q39 29 90 29q109 0 170 -148l451 -1079l450 1079q59 147 168 148q52 0 91 -29l4 -8l-25 -55l-6 -2q-29 18 -57 18z" />
    <glyph glyph-name="W" unicode="W" horiz-adv-x="2035" 
d="M1942 1280q-30 0 -48 -23q-20 -23 -39 -77l-409 -1180h-57l-371 1196l-371 -1196h-57l-410 1180q-20 56 -38 78t-48 22q-31 0 -57 -18l-8 2l-23 55l4 8q35 29 92 29q104 0 154 -146l365 -1075l358 1196h78l360 -1194l363 1073q49 145 155 146q55 0 90 -29l5 -8l-23 -55
l-8 -2q-27 18 -57 18z" />
    <glyph glyph-name="X" unicode="X" horiz-adv-x="1357" 
d="M149 1356q53 0 99 -32t96 -107l340 -482l360 482q54 75 98 107t97 32t92 -29l4 -8l-22 -55l-8 -2q-25 18 -60 18q-55 0 -121 -90l-395 -524l369 -525q66 -90 121 -90q35 0 59 19l8 -2l23 -56l-4 -8q-35 -29 -93 -29t-101 32q-44 32 -97 108l-338 481l-363 -481
q-53 -76 -96 -108t-97 -32t-93 29l-4 8l22 56l8 2q25 -18 60 -19q55 0 123 90l395 525l-369 524q-66 90 -123 90q-35 0 -59 -18l-6 2l-25 55l4 8q43 29 96 29z" />
    <glyph glyph-name="Y" unicode="Y" horiz-adv-x="1370" 
d="M1270 1280q-57 0 -119 -90l-424 -631v-559h-82v557l-426 633q-61 90 -119 90q-33 0 -55 -18l-8 2l-23 55l4 8q35 29 89 29q53 0 95 -33t93 -106l393 -586l391 586q51 75 91 107t92 32t90 -29l4 -8l-23 -55l-8 -2q-23 18 -55 18z" />
    <glyph glyph-name="Z" unicode="Z" horiz-adv-x="1155" 
d="M53 0v55l885 1205h-842v71h951v-55l-885 -1204h760q92 0 92 61q0 31 -21 51l2 9l58 22q35 -23 35 -87q-1 -128 -146 -128h-889z" />
    <glyph glyph-name="bracketleft" unicode="[" horiz-adv-x="512" 
d="M453 1382h-207v-1613h207v-68h-283v1749h283v-68z" />
    <glyph glyph-name="backslash" unicode="\" horiz-adv-x="1001" 
d="M127 1442l821 -1542l-6 -9h-70l-821 1543l6 8h70z" />
    <glyph glyph-name="bracketright" unicode="]" horiz-adv-x="512" 
d="M59 1382v68h283v-1749h-283v68h207v1613h-207z" />
    <glyph glyph-name="asciicircum" unicode="^" horiz-adv-x="1179" 
d="M616 1331l488 -766l-6 -8h-70l-8 4l-428 676l-432 -676l-8 -4h-70l-4 8l489 766h49z" />
    <glyph glyph-name="underscore" unicode="_" horiz-adv-x="948" 
d="M41 -135h866v-66h-866v66z" />
    <glyph glyph-name="grave" unicode="`" horiz-adv-x="546" 
d="M137 1456l328 -264v-6l-31 -41h-6l-346 246v6l49 59h6z" />
    <glyph glyph-name="a" unicode="a" 
d="M612 977q-190 0 -314 -134t-124 -332t122 -331t314 -133q190 0 317 131q126 131 126 334t-125 334t-316 131zM608 -25q-223 0 -368 155t-146 382q0 227 146 382t368 155q143 0 258 -67t181 -181v223h77v-887q0 -92 62 -92q29 0 51 18l6 -2l21 -51q-23 -35 -85 -35t-97 40
q-34 40 -33 108v104q-68 -117 -182 -185t-259 -67z" />
    <glyph glyph-name="b" unicode="b" horiz-adv-x="1288" 
d="M676 47q192 0 315 133t123 331t-123 332t-315 134t-316 -130t-124 -335t124 -335t316 -130zM678 1049q224 0 370 -154t146 -383t-145 -383t-371 -154q-141 0 -254 67t-180 181v-223h-78v1243q0 92 -62 92q-25 0 -51 -18l-8 2l-18 51l2 6q33 29 90 29t91 -38t34 -105v-461
q68 115 180 181t254 67z" />
    <glyph glyph-name="c" unicode="c" horiz-adv-x="1136" 
d="M94 512q0 229 151.5 383t383.5 154q135 0 247.5 -55.5t182.5 -151.5v-8l-47 -37h-8q-137 180 -375 180q-199 0 -327 -133t-128 -332t128 -332t327 -133q246 0 375 180h8l47 -37v-8q-70 -96 -182.5 -151.5t-247.5 -55.5q-231 0 -383 154t-152 383z" />
    <glyph glyph-name="d" unicode="d" 
d="M613.5 47q191.5 0 315.5 129t124 336t-124 336t-315.5 129t-315.5 -134t-124 -331t124 -331t315.5 -134zM1049 123v104q-66 -115 -180.5 -183.5t-256.5 -68.5q-227 0 -372.5 154t-145.5 383t145.5 383t372.5 154q141 0 254 -67t181 -181v581l69 13l8 -4v-1254
q0 -92 60 -92q27 0 53 18l6 -2l21 -51q-23 -35 -85 -35t-96 39t-34 109z" />
    <glyph glyph-name="e" unicode="e" horiz-adv-x="1193" 
d="M611 977q-185 0 -306 -118t-131 -306h856q-10 190 -122 307t-297 117zM627 47q121 0 229.5 52.5t169.5 138.5h6l51 -41v-9q-72 -98 -194.5 -155.5t-259.5 -57.5q-225 0 -380 147.5t-155 384t143.5 389.5t371.5 153t364.5 -150.5t136.5 -378.5q0 -25 -2 -35h-934
q8 -199 136 -318.5t317 -119.5z" />
    <glyph glyph-name="f" unicode="f" horiz-adv-x="638" 
d="M532 1348q-110 0 -174 -71t-63 -214v-39h328v-68h-328v-1142q0 -70 -34 -109t-88 -39t-91 29l-2 8l18 49l8 4q20 -20 52 -20q61 0 61 92v1128h-180v68h180v39q0 178 87 266t226 88q95 0 179 -47l2 -8l-29 -51l-8 -4q-72 41 -144 41z" />
    <glyph glyph-name="g" unicode="g" horiz-adv-x="1241" 
d="M574 184q177 0 291 113t114 284t-113.5 283.5t-290 112.5t-289 -112.5t-112.5 -283.5t111.5 -284t288.5 -113zM1116 979q-61 0 -61 -92v-733q0 -221 -131 -342t-346 -121q-299 0 -447 221v6l43 47h8q61 -94 165 -148.5t235 -54.5q180 0 287.5 103.5t107.5 290.5v176
q-61 -100 -166.5 -158.5t-239.5 -58.5q-207 0 -342 134t-135 334t135.5 333t343.5 133q135 0 241 -59.5t165 -162.5v78q0 68 34 106t89 38t88 -29l4 -6l-20 -51l-7 -2q-27 18 -51 18z" />
    <glyph glyph-name="h" unicode="h" horiz-adv-x="1196" 
d="M954 125v508q0 156 -94 250t-253 94t-261 -101t-102 -255v-621h-78v1243q0 92 -62 92q-25 0 -51 -18l-8 2l-18 51l2 6q37 29 91 29t89 -38t35 -105v-414q55 92 153 146t224 55q184 0 298 -114t113 -298v-500q0 -92 60 -92q27 0 47 16l8 -2l18 -53q-21 -31 -82 -31t-95 40
t-34 110z" />
    <glyph glyph-name="i" unicode="i" horiz-adv-x="423" 
d="M284 -25q-54 0 -88 40t-34 110v899h78v-887q0 -92 59 -92q27 0 47 16l8 -2l19 -53l-2 -6q-33 -25 -87 -25zM201 1145q-35 1 -60 25t-25 58t26 58q24 24 59 25q35 0 59 -25q24 -24 25 -58q-1 -34 -25 -58t-59 -25z" />
    <glyph glyph-name="j" unicode="j" horiz-adv-x="434" 
d="M268 1024v-995q0 -131 -46 -205t-138 -131h-6l-31 55v6q74 46 109 106t34 165v931h-143v68h221zM190 1145q-36 1 -60 25t-24 58t25 58t59 25q34 0 60 -25q24 -24 24 -58t-24 -59q-25 -24 -60 -24z" />
    <glyph glyph-name="k" unicode="k" horiz-adv-x="1107" 
d="M244 590v-117h368q131 0 211 70.5t80 183.5t-81 182.5t-214 69.5q-172 0 -268 -107.5t-96 -281.5zM244 408v-408h-78v1243q0 92 -62 92q-25 0 -51 -18l-8 2l-18 51l2 6q33 29 90 29t91 -38t34 -105v-416q109 203 370 203q168 0 268.5 -88.5t100.5 -228.5t-96 -229
t-250 -95l231 -281q66 -82 117 -82q27 0 49 16l8 -2l21 -53q-21 -31 -78 -31t-97 30t-89 89l-258 314h-297z" />
    <glyph glyph-name="l" unicode="l" horiz-adv-x="438" 
d="M170 123v1120q0 92 -61 92q-29 0 -52 -18l-8 2l-18 51l2 6q33 29 89 29t90 -37t34 -106v-1125q0 -92 61 -92q29 0 51 18l9 -2l20 -51q-23 -35 -86 -35t-97 39t-34 109z" />
    <glyph glyph-name="m" unicode="m" horiz-adv-x="1974" 
d="M1724 125v508q0 158 -86 251t-242 93t-259 -101q-102 -101 -103 -255v-621h-78v633q0 158 -86 251t-242 93t-259 -101q-102 -101 -103 -255v-621h-78v887q0 92 -61 92q-25 0 -51 -18l-8 2l-19 51l2 6q37 29 91 29t87 -38t33 -106v-67q52 98 152 154t232 56t228 -66
q96 -67 136 -185q49 115 154 183t245 69q183 0 289 -113t106 -299v-500q0 -92 60 -92q27 0 47 16l6 -2l20 -53q-21 -31 -83 -31t-96 41t-34 109z" />
    <glyph glyph-name="n" unicode="n" horiz-adv-x="1224" 
d="M1099 -25q-54 0 -88 40t-34 110v508q0 156 -94.5 250t-253 94t-261 -101.5t-102.5 -254.5v-621h-78v887q0 92 -61 92q-25 0 -51 -18l-8 2l-19 51l2 6q37 29 91 29t87 -38t33 -106v-63q55 96 154.5 151.5t226.5 55.5q184 0 298 -113t114 -299v-500q0 -92 59 -92
q27 0 47 16l8 -2l19 -53l-2 -6q-33 -25 -87 -25z" />
    <glyph glyph-name="o" unicode="o" horiz-adv-x="1271" 
d="M636 47q200 0 331 133t131 332t-131 332t-331 133t-331 -133t-131 -332t131 -332t331 -133zM636.5 -25q-233.5 0 -388 155t-154.5 382t154.5 382t388 155t388.5 -155t155 -382t-155 -382t-388.5 -155z" />
    <glyph glyph-name="p" unicode="p" 
d="M260 512q0 -207 124 -336t314 -129q192 0 316 133q123 133 123 331t-123 332t-315 134q-191 0 -315 -129t-124 -336zM700 1049q224 0 370 -154t146 -383t-144 -383q-146 -154 -372 -154q-141 0 -254 67t-180 181v-530h-78v1194q0 92 -61 92q-25 0 -51 -18l-8 2l-19 51
l2 6q33 29 89 29t89 -38t33 -106v-112q68 117 182 187t256 69z" />
    <glyph glyph-name="q" unicode="q" horiz-adv-x="1308" 
d="M614 47q192 0 315 129q124 129 124 336t-124 336q-123 129 -315 129t-316 -134t-124 -331t124 -331t316 -134zM1184 979q-59 0 -60 -92v-1194h-77v534q-68 -117 -181 -185t-254 -67q-227 0 -372 154t-146 383q0 229 146 383t372 154q143 0 257 -69t180 -185v108
q0 70 33 108q34 38 90 38t88 -29l4 -6l-21 -51l-6 -2q-27 18 -53 18z" />
    <glyph glyph-name="r" unicode="r" horiz-adv-x="700" 
d="M557 977q-121 0 -206 -99.5t-85 -265.5v-612h-78v887q0 92 -61 92q-25 0 -51 -18l-8 2l-19 51l2 6q33 29 89 29t89 -38t33 -106v-57q45 96 126 148.5t165 52.5t139 -27l2 -8l-26 -58l-9 -2q-43 23 -102 23z" />
    <glyph glyph-name="s" unicode="s" horiz-adv-x="868" 
d="M412 1049q227 0 336 -160v-8l-52 -37h-6q-96 133 -258 133q-100 0 -164.5 -52.5t-64.5 -129t50 -118.5t107 -66.5t106.5 -44t68 -28t61.5 -28.5q44 -20 62 -36q74 -60 90 -91q34 -62 34 -129q0 -127 -97 -203t-247 -76q-246 0 -368 189v6l49 39h8q100 -162 305 -162
q121 0 197 56.5t76 137.5t-31 113.5t-48.5 49t-58.5 36t-60.5 28.5t-71.5 30.5t-70 29.5q-117 49 -179.5 104.5t-62.5 163t86.5 180.5t202.5 73z" />
    <glyph glyph-name="t" unicode="t" horiz-adv-x="669" 
d="M504 -25q-131 0 -209 92.5t-78 262.5v626h-184v68h184v317l70 15l8 -4v-328h336v-68h-336v-626q0 -139 55.5 -211t157.5 -72q66 0 104 31l9 -4l26 -54l-4 -6q-51 -39 -139 -39z" />
    <glyph glyph-name="u" unicode="u" horiz-adv-x="1204" 
d="M117 1049q63 0 97 -37t34 -107v-522q0 -154 92 -245t242 -91q150 1 254 103t104 253v621h76v-887q0 -92 61 -92q29 0 51 18l9 -2l18 -51l-2 -6q-33 -29 -88 -29t-89 39t-34 109v63q-53 -96 -150 -153t-217 -58q-185 0 -295 110t-110 294v508q0 92 -59 92q-27 0 -54 -18
l-6 2l-20 51q23 35 86 35z" />
    <glyph glyph-name="v" unicode="v" horiz-adv-x="1110" 
d="M256 905v-536q0 -150 79 -236t233 -86t256 125q102 124 102 312t-44 334t-118 224v9l57 41h6q82 -86 131 -246t50 -344q0 -238 -125 -382t-311 -144t-289 106q-102 106 -103 285v520q0 92 -61 92q-29 0 -51 -18l-9 2l-18 51l2 6q33 29 89 29t90 -37t34 -107z" />
    <glyph glyph-name="w" unicode="w" horiz-adv-x="1816" 
d="M124 1049q62 0 97 -37t35 -107v-536q0 -154 85 -238t228 -84t230 91q86 91 86 243v643h78v-643q-1 -150 81 -242t220 -92q170 0 267 123q97 124 101 312t-40 335t-117 225v9l57 41h8q82 -88 130 -248t44 -342q-6 -242 -126 -384t-322 -143q-119 1 -208 59t-132 156
q-48 -102 -140 -158t-217 -57q-175 -1 -283 105t-108 287v520q0 92 -61 92q-25 0 -51 -18l-9 2l-18 51q23 35 85 35z" />
    <glyph glyph-name="x" unicode="x" horiz-adv-x="1138" 
d="M128 1049q60 0 98 -30t91 -106l254 -352l256 352q55 76 91 106t90 30q53 0 86 -29l4 -6l-21 -51l-6 -2q-25 18 -53 18q-57 0 -123 -94l-272 -373l270 -373q68 -94 110 -94t62 18l8 -2l21 -51q-23 -35 -83 -35t-99 30q-38 30 -91 106l-256 352l-254 -352q-55 -76 -91 -106
t-89 -30t-86 29l-4 6l18 51l9 2q25 -18 53 -18q57 0 123 94l272 373l-270 373q-68 94 -119 94q-33 0 -53 -18l-8 2l-21 51q23 35 83 35z" />
    <glyph glyph-name="y" unicode="y" horiz-adv-x="1169" 
d="M110 1049q60 0 94 -37t34 -107v-428q0 -149 90 -233t242 -84t255 102q104 102 105 254v508h78v-870q0 -219 -129 -341t-343 -122t-366 157v9l43 47h6q129 -142 315 -142t290 104q105 104 106 290v129q-56 -93 -154 -145t-213 -52q-186 0 -294 102t-107 289v408
q0 92 -62 92q-29 0 -51 -18l-8 2l-21 51q30 35 90 35z" />
    <glyph glyph-name="z" unicode="z" horiz-adv-x="917" 
d="M100 1024h723v-59l-667 -899h565q88 0 88 61q0 27 -21 51l3 8l49 19l10 -2q27 -35 27 -86q0 -117 -146 -117h-670v59l668 899h-629v66z" />
    <glyph glyph-name="braceleft" unicode="{" horiz-adv-x="563" 
d="M190 592v-33q40 0 58 -59t18 -207v-250q0 -160 44 -217t167 -57h35v-68h-37q-162 0 -224 76t-63 268v293q0 109 -12 146q-12 38 -36 50t-64 11v61q40 0 64 11t36 49t12 147v293q0 192 62 268t225 76h37v-68h-35q-123 0 -167 -57t-44 -217v-252q0 -148 -18 -206t-58 -58z
" />
    <glyph glyph-name="bar" unicode="|" horiz-adv-x="407" 
d="M170 -299v1749h70v-1749h-70z" />
    <glyph glyph-name="braceright" unicode="}" horiz-adv-x="563" 
d="M297 856v252q0 160 -44 217t-167 57h-35v68h37q162 0 224 -76t63 -268v-293q0 -108 12 -147q12 -38 36 -49t64 -11v-61q-41 0 -65 -11q-39 -18 -45 -104q-2 -29 -2 -92v-293q-1 -193 -63 -269t-224 -75h-37v68h35q123 0 167 57t44 217v250q0 147 17 207t59 59v33
q-41 0 -59 58t-17 206z" />
    <glyph glyph-name="asciitilde" unicode="~" horiz-adv-x="1163" 
d="M844 594q-98 0 -262 36q-162 36 -248 36t-133 -72h-6l-41 53v6q66 84 190 84q82 0 243 -36q161 -35 247 -35t133 71h6l41 -53v-6q-72 -84 -170 -84z" />
    <glyph glyph-name="exclamdown" unicode="&#xa1;" horiz-adv-x="411" 
d="M252 -303l-6 -4h-80l-6 6l10 1075l6 6h57l7 -6zM205 891q-35 1 -60 25t-25 58t26 58q24 24 59 25q35 0 59 -25q24 -24 25 -58q-1 -34 -25 -58t-59 -25z" />
    <glyph glyph-name="cent" unicode="&#xa2;" horiz-adv-x="1167" 
d="M635 1130q-199 0 -327 -133t-128 -331.5t128 -331.5t327 -133q246 0 375 180h8l47 -37v-8q-139 -193 -393 -205v-156h-72v154q-219 14 -359.5 165.5t-140.5 371t140.5 371t359.5 165.5v150h72v-152q254 -12 393 -205v-8l-47 -37h-8q-137 180 -375 180z" />
    <glyph glyph-name="sterling" unicode="&#xa3;" horiz-adv-x="1087" 
d="M627 1282q-135 0 -225 -81t-89 -224v-262h416v-72h-416v-571h674v-72h-887v72h136v571h-125v72h125v258q0 180 111 281q112 101 282 102q207 0 358 -164v-6l-49 -45h-8q-125 141 -303 141z" />
    <glyph glyph-name="currency" unicode="&#xa4;" horiz-adv-x="1353" 
d="M244 672q0 -182 126 -312t307 -129q181 0 307 128q126 129 126 313t-126 312t-307 128t-307 -129t-126 -311zM676 160q-197 0 -338 129l-129 -127l-53 53l129 127q-119 140 -120 328t118 331l-125 125l53 54l125 -125q145 131 342 130t342 -132l127 127l53 -54l-127 -127
q115 -143 115 -329t-117 -326l127 -129l-53 -53l-127 127q-145 -129 -342 -129z" />
    <glyph glyph-name="yen" unicode="&#xa5;" horiz-adv-x="1214" 
d="M938 565v-61h-289v-191h289v-61h-289v-252h-82v252h-288v61h288v191h-288v61h284l-508 760l2 6h90l463 -692l465 692h82l4 -6l-508 -760h285z" />
    <glyph glyph-name="brokenbar" unicode="&#xa6;" horiz-adv-x="403" 
d="M168 494h70v-793h-70v793zM168 1450h70v-752h-70v752z" />
    <glyph glyph-name="section" unicode="&#xa7;" horiz-adv-x="1089" 
d="M248 641q0 -72 58 -130t131 -90t185 -81t173 -86q100 66 100 174q0 74 -55 132t-123 91q-69 33 -179 81t-169 81q-121 -55 -121 -172zM545 1288q-127 0 -212 -58t-85 -157t102 -166q76 -50 161 -85t126 -53t83 -37q127 -58 193 -130t66 -172q0 -137 -111 -221
q111 -86 111 -219t-116 -217t-288 -84t-302 55t-201 156v6l51 45h8q141 -195 418 -195q158 0 252 68t94 172q0 141 -206 233q-48 23 -178 77t-209 106q-78 53 -108 106t-30 119q0 141 127 219q-127 90 -127 216t108 205q109 79 275 79q233 0 385 -158v-8l-53 -45h-9
q-137 143 -325 143z" />
    <glyph glyph-name="dieresis" unicode="&#xa8;" horiz-adv-x="696" 
d="M498 1145q-35 1 -60 25t-24 59q0 35 24 59t60 23q34 0 58 -25q24 -24 24 -58t-24 -58t-58 -25zM201 1145q-35 1 -60 25t-24 59t25 59t58 23q34 0 58 -25q24 -24 25 -58t-23 -58t-59 -25z" />
    <glyph glyph-name="copyright" unicode="&#xa9;" horiz-adv-x="1593" 
d="M807 260q-176 0 -292 116t-116 290t116 290t292 115q213 0 326 -156v-6l-48 -39h-4q-96 131 -261 131t-255 -94t-90 -240q0 -147 91 -241t256 -94t259 131h4l48 -41v-4q-115 -158 -326 -158zM797 41q268 0 445 181q177 182 177 444t-177 443t-445 181q-267 0 -445 -181
t-178 -443t177 -444q178 -181 446 -181zM797 -25q-297 0 -495 201t-198 490q0 290 198 490t495 200t495 -201t197 -489q1 -288 -197 -490q-198 -201 -495 -201z" />
    <glyph glyph-name="ordfeminine" unicode="&#xaa;" horiz-adv-x="845" 
d="M366 758q86 0 153 53t67 137v45q-102 45 -198 45t-150 -38t-54 -102t48 -102t134 -38zM590 801v4q-78 -111 -234 -111q-106 0 -176 56t-70 151q0 94 77 147q77 52 187 52t216 -43v55q0 84 -60 129t-139 45q-143 0 -217 -92h-8l-35 37v6q41 49 113 83t164 34t170 -60
t77 -170v-303q0 -66 37 -65q18 0 35 10l6 -2l15 -47q-12 -24 -64 -25q-94 0 -94 109z" />
    <glyph glyph-name="guillemotleft" unicode="&#xab;" horiz-adv-x="888" 
d="M748 897v-4l-252 -291l252 -291v-4l-46 -47h-6l-295 334v16l295 334h6zM440 893l-252 -291l252 -291v-4l-45 -47h-6l-295 334v16l295 334h6l45 -47v-4z" />
    <glyph glyph-name="registered" unicode="&#xae;" horiz-adv-x="1593" 
d="M831 692q92 0 143 48q50 48 50 126t-50 125t-143 47h-235v-346h235zM596 633v-369h-66v834h291q127 0 199 -60t72 -166t-60 -168t-168 -69l228 -371h-80l-228 369h-188zM797 1290q-267 0 -445 -181t-178 -443t177 -444t445 -181q268 0 446 181q177 182 177 444t-177 443
t-445 181zM797 1356q297 0 495 -201t197 -489q0 -288 -198 -490q-199 -201 -495 -201t-494 201t-198 490q0 290 198 490t495 200z" />
    <glyph glyph-name="macron" unicode="&#xaf;" horiz-adv-x="1081" 
d="M264 1255h553v-65h-553v65z" />
    <glyph glyph-name="degree" unicode="&#xb0;" horiz-adv-x="729" 
d="M168 1092q0 -82 57 -140t139 -59q82 0 141 57q58 56 58 140t-58 142t-140 58q-81 0 -139 -58t-58 -140zM100 1093q0 111 78 187t188 76t186 -77t77 -187q0 -110 -77 -187q-76 -78 -186 -78t-188 78t-78 188z" />
    <glyph glyph-name="plusminus" unicode="&#xb1;" horiz-adv-x="1206" 
d="M133 0v66h942v-66h-942zM641 647h436v-63h-436v-420h-72v420h-436v63h436v418h72v-418z" />
    <glyph glyph-name="acute" unicode="&#xb4;" horiz-adv-x="546" 
d="M412 1456h6l47 -59v-6l-346 -246h-6l-31 41v6z" />
    <glyph glyph-name="paragraph" unicode="&#xb6;" horiz-adv-x="1255" 
d="M1012 1200v-1493h-70v1493h70zM1182 1380h-457v-1673h-70v879h-55q-248 0 -392 104t-145 332q0 428 537 428h582v-70z" />
    <glyph glyph-name="periodcentered" unicode="&#xb7;" horiz-adv-x="462" 
d="M324 548q0 -38 -27 -64t-65 -27q-38 1 -66 27t-27 64q0 38 28 66q27 28 65 27q38 0 65 -28q27 -27 27 -65z" />
    <glyph glyph-name="cedilla" unicode="&#xb8;" horiz-adv-x="583" 
d="M344 -84q56 0 100 -41t43 -111q0 -70 -57 -118q-57 -47 -170 -47t-194 75v7l40 45h7q59 -64 139 -64t119 28t39 72t-31 68t-80 25q-49 0 -121 -27l-37 20l66 150v31h80v-31l-37 -90l2 -2q36 10 92 10z" />
    <glyph glyph-name="ordmasculine" unicode="&#xba;" horiz-adv-x="864" 
d="M432 766q112 0 186 74t74 186t-74 186t-186 74t-186 -74t-74 -186t74 -186t186 -74zM432 1356q144 0 240 -94t96 -236t-96 -236t-239 -94q-144 0 -239 94q-96 94 -96 235q0 143 96 237t238 94z" />
    <glyph glyph-name="guillemotright" unicode="&#xbb;" horiz-adv-x="888" 
d="M500 944l295 -334v-16l-295 -334h-6l-45 47v4l251 291l-251 291v4l45 47h6zM487 610v-16l-294 -334h-7l-45 47v4l252 291l-252 291v4l45 47h7z" />
    <glyph glyph-name="onequarter" unicode="&#xbc;" horiz-adv-x="1290" 
d="M1018 250v379l-305 -379h305zM1182 250v-66h-95v-184h-69v184h-389v52l407 514h51v-500h95zM317 1331v-758h-77v691h-144l-4 6l19 61h206zM88 8l1024 1323h72l4 -10l-1022 -1321h-76z" />
    <glyph glyph-name="onehalf" unicode="&#xbd;" horiz-adv-x="1411" 
d="M1317 68v-68h-500v43q41 39 156 147t170 175q56 67 67 104q12 37 13 61q0 70 -41 112t-130 42t-175 -90h-7l-39 43v6q103 107 225 107t182 -60t60 -150t-72 -178t-172 -185q-102 -97 -114 -109h377zM272 1264h-145l-4 6l18 61h207v-758h-76v691zM1180 1331l4 -10
l-1022 -1321h-76l-2 8l1024 1323h72z" />
    <glyph glyph-name="threequarters" unicode="&#xbe;" horiz-adv-x="1464" 
d="M1194 250v379l-305 -379h305zM1264 750v-500h94v-66h-94v-184h-70v184h-389v52l405 514h54zM1356 1331l4 -10l-1022 -1321h-76l-2 8l1024 1323h72zM580 784q0 -81 -72 -146t-198 -65t-234 107v6l41 41h6q88 -90 203 -90q74 0 125 47t51 120t-53 117t-146 44h-55v59h45
q74 0 121 38t47 98t-41 96t-126 36t-144 -71h-7l-41 36v5q82 94 196 94t174 -53q62 -53 63 -134q0 -115 -109 -170q72 -25 113 -79t41 -136z" />
    <glyph glyph-name="questiondown" unicode="&#xbf;" horiz-adv-x="970" 
d="M485 -319q-171 0 -289 103t-118 257q0 107 58 187q32 44 52 69t68 71t61 58q66 64 96 120t29 132v104h76v-102q0 -96 -37 -167t-147 -174t-142 -166t-32 -130q0 -125 97 -207t235 -82t226 80q89 80 122 199l8 2l63 -17l2 -8q-37 -141 -147 -235t-281 -94zM481 903
q-35 0 -59 25q-24 24 -25 58q0 34 25 58q26 24 60 25q34 0 59 -25q25 -24 25 -58t-26 -58q-24 -24 -59 -25z" />
    <glyph glyph-name="Agrave" unicode="&#xc0;" horiz-adv-x="1447" 
d="M383 403h678l-336 803zM1347 -25q-49 0 -91 32t-78 116l-86 207h-740l-88 -207q-39 -88 -78 -118t-90 -30t-86 29l-4 8l23 56l8 2q23 -18 55 -18t53 20q20 20 50 84l503 1175h58l493 -1175q27 -60 49 -82t54 -22t57 18l6 -2l25 -56l-4 -8q-39 -29 -89 -29zM754 1450h-6
l-371 211v6l39 62h8l358 -232v-6z" />
    <glyph glyph-name="Aacute" unicode="&#xc1;" horiz-adv-x="1447" 
d="M383 403h678l-336 803zM1347 -25q-49 0 -91 32t-78 116l-86 207h-740l-88 -207q-39 -88 -78 -118t-90 -30t-86 29l-4 8l23 56l8 2q23 -18 55 -18t53 20q20 20 50 84l503 1175h58l493 -1175q27 -60 49 -82t54 -22t57 18l6 -2l25 -56l-4 -8q-39 -29 -89 -29zM705 1450h-7
l-28 41v6l358 232h8l39 -62v-6z" />
    <glyph glyph-name="Acircumflex" unicode="&#xc2;" horiz-adv-x="1447" 
d="M383 403h678l-336 803zM1347 -25q-49 0 -91 32t-78 116l-86 207h-740l-88 -207q-39 -88 -78 -118t-90 -30t-86 29l-4 8l23 56l8 2q23 -18 55 -18t53 20q20 20 50 84l503 1175h58l493 -1175q27 -60 49 -82t54 -22t57 18l6 -2l25 -56l-4 -8q-39 -29 -89 -29zM465 1442h-6
l-33 45v6l293 184h12l293 -184v-6l-31 -45h-6l-260 149z" />
    <glyph glyph-name="Atilde" unicode="&#xc3;" horiz-adv-x="1447" 
d="M383 403h678l-336 803zM1347 -25q-49 0 -91 32t-78 116l-86 207h-740l-88 -207q-39 -88 -78 -118t-90 -30t-86 29l-4 8l23 56l8 2q23 -18 55 -18t53 20q20 20 50 84l503 1175h58l493 -1175q27 -60 49 -82t54 -22t57 18l6 -2l25 -56l-4 -8q-39 -29 -89 -29zM547 1628
q61 0 178 -38t191 -38t108 76h8l37 -57v-6q-57 -84 -162 -84q-67 0 -185 38t-175 37q-80 1 -119 -75h-6l-37 55v6q51 86 162 86z" />
    <glyph glyph-name="Adieresis" unicode="&#xc4;" horiz-adv-x="1447" 
d="M383 403h678l-336 803zM1347 -25q-49 0 -91 32t-78 116l-86 207h-740l-88 -207q-39 -88 -78 -118t-90 -30t-86 29l-4 8l23 56l8 2q23 -18 55 -18t53 20q20 20 50 84l503 1175h58l493 -1175q27 -60 49 -82t54 -22t57 18l6 -2l25 -56l-4 -8q-39 -29 -89 -29zM895 1448
q-35 0 -59 25t-25 59q0 34 25 60q26 24 60 24t60 -25t25 -59q1 -34 -25 -60q-26 -24 -61 -24zM557 1448q-35 0 -59 25t-25 59q0 34 25 60q26 24 60 24t60 -25t25 -59q1 -34 -25 -60q-26 -24 -61 -24z" />
    <glyph glyph-name="Aring" unicode="&#xc5;" horiz-adv-x="1447" 
d="M383 403h678l-336 803zM1347 -25q-49 0 -91 32t-78 116l-86 207h-740l-88 -207q-39 -88 -78 -118t-90 -30t-86 29l-4 8l23 56l8 2q23 -18 55 -18t53 20q20 20 50 84l503 1175h58l493 -1175q27 -60 49 -82t54 -22t57 18l6 -2l25 -56l-4 -8q-39 -29 -89 -29zM727 1726
q-49 0 -81 -34t-32 -78q0 -45 32 -80t81 -35t81 35t32 80q0 44 -32 78t-81 34zM727 1442q-74 0 -125 50t-51 122t51 121t125 49t125 -49t51 -121t-51 -122t-125 -50z" />
    <glyph glyph-name="AE" unicode="&#xc6;" horiz-adv-x="1890" 
d="M975 403v844l-617 -844h617zM1802 1257h-745v-548h588v-72h-588v-563h745v-74h-827v330h-670l-242 -330h-90l963 1331h866v-74z" />
    <glyph glyph-name="Ccedilla" unicode="&#xc7;" horiz-adv-x="1419" 
d="M801 1278q-262 0 -439.5 -176t-177.5 -436t177.5 -436.5t439.5 -176.5q145 0 271 60.5t208 165.5h6l57 -43v-7q-199 -244 -520 -254l-26 -65l2 -2q37 10 92.5 10t99 -41t43.5 -111.5t-57 -117.5t-170 -47t-195 75v7l41 45h6q59 -64 139 -64q158 -1 158 105
q0 39 -30.5 63.5t-79.5 24.5t-121 -27l-37 20l55 127q-279 20 -460 215t-181 481t200 484.5t499 198.5q164 0 306 -67.5t236 -186.5v-6l-57 -43h-6q-82 104 -208 164.5t-271 60.5z" />
    <glyph glyph-name="Egrave" unicode="&#xc8;" horiz-adv-x="1122" 
d="M1034 1257h-747v-548h587v-72h-587v-563h747v-74h-827v1331h827v-74zM465 1729l358 -232v-6l-28 -41h-7l-370 211v6l39 62h8z" />
    <glyph glyph-name="Eacute" unicode="&#xc9;" horiz-adv-x="1122" 
d="M1034 1257h-747v-548h587v-72h-587v-563h747v-74h-827v1331h827v-74zM776 1729h8l39 -62v-6l-370 -211h-7l-28 41v6z" />
    <glyph glyph-name="Ecircumflex" unicode="&#xca;" horiz-adv-x="1122" 
d="M1034 1257h-747v-548h587v-72h-587v-563h747v-74h-827v1331h827v-74zM358 1442h-6l-33 45v6l293 184h13l293 -184v-6l-31 -45h-6l-260 149z" />
    <glyph glyph-name="Edieresis" unicode="&#xcb;" horiz-adv-x="1122" 
d="M1034 1257h-747v-548h587v-72h-587v-563h747v-74h-827v1331h827v-74zM788.5 1448q-34.5 0 -59 24.5t-24.5 59.5t24.5 59.5t59 24.5t60 -24.5t25.5 -59.5t-25.5 -59.5t-60 -24.5zM450.5 1448q-34.5 0 -59 24.5t-24.5 59.5t24.5 59.5t59 24.5t60.5 -24.5t26 -59.5
t-26 -59.5t-60.5 -24.5z" />
    <glyph glyph-name="Igrave" unicode="&#xcc;" horiz-adv-x="698" 
d="M625 1260h-236v-1188h236v-72h-551v72h235v1188h-235v71h551v-71zM193 1729l358 -232v-6l-29 -41h-6l-371 211v6l39 62h9z" />
    <glyph glyph-name="Iacute" unicode="&#xcd;" horiz-adv-x="698" 
d="M625 1260h-236v-1188h236v-72h-551v72h235v1188h-235v71h551v-71zM504 1729h8l39 -62v-6l-371 -211h-6l-29 41v6z" />
    <glyph glyph-name="Icircumflex" unicode="&#xce;" horiz-adv-x="698" 
d="M74 1260v71h551v-71h-236v-1188h236v-72h-551v72h235v1188h-235zM352 1677l293 -184v-6l-31 -45h-6l-260 149l-262 -149h-6l-33 45v6l293 184h12z" />
    <glyph glyph-name="Idieresis" unicode="&#xcf;" horiz-adv-x="698" 
d="M625 1260h-236v-1188h236v-72h-551v72h235v1188h-235v71h551v-71zM516 1448q-36 0 -60 25t-24 59t25 60q25 24 59 24t61 -25q25 -25 25 -59t-26 -60q-26 -24 -60 -24zM178 1448q-36 0 -60 25t-24 59t25 60q25 24 59 24t61 -25q25 -25 25 -59t-26 -60q-26 -24 -60 -24z
" />
    <glyph glyph-name="Eth" unicode="&#xd0;" horiz-adv-x="1466" 
d="M680 74q276 0 436 160t160 432q0 270 -160 431t-436 160h-383v-548h424v-72h-424v-563h383zM678 1331q314 0 498 -182t184 -483q0 -302 -183 -484t-499 -182h-463v637h-184v72h184v622h463z" />
    <glyph glyph-name="Ntilde" unicode="&#xd1;" horiz-adv-x="1499" 
d="M1212 1331h80v-1331h-55l-950 1178v-1178h-80v1331h55l950 -1177v1177zM567 1628q63 0 185 -38t197 -38t114 76h8l37 -57v-6q-57 -84 -166 -84q-68 0 -191.5 37.5t-183.5 37.5q-84 1 -123 -75h-6l-39 55v6q55 86 168 86z" />
    <glyph glyph-name="Ograve" unicode="&#xd2;" horiz-adv-x="1607" 
d="M805 53q266 0 442 175q176 176 176 438t-176 437t-442 175q-265 0 -443 -175t-178 -437t177 -438q178 -175 444 -175zM804 -25q-302 0 -502 199t-200 492q0 294 200 492t502 198t503 -199t201 -491t-202 -492q-200 -199 -502 -199zM649 1729l359 -232v-6l-29 -41h-6
l-371 211v6l39 62h8z" />
    <glyph glyph-name="Oacute" unicode="&#xd3;" horiz-adv-x="1607" 
d="M805 53q266 0 442 175q176 176 176 438t-176 437t-442 175q-265 0 -443 -175t-178 -437t177 -438q178 -175 444 -175zM804 -25q-302 0 -502 199t-200 492q0 294 200 492t502 198t503 -199t201 -491t-202 -492q-200 -199 -502 -199zM961 1729h8l39 -62v-6l-371 -211h-6
l-29 41v6z" />
    <glyph glyph-name="Ocircumflex" unicode="&#xd4;" horiz-adv-x="1607" 
d="M805 53q266 0 442 175q176 176 176 438t-176 437t-442 175q-265 0 -443 -175t-178 -437t177 -438q178 -175 444 -175zM102 666q0 294 200 492t502 198t503 -199t201 -491t-202 -492q-200 -199 -502 -199t-502 199t-200 492zM543 1442h-6l-33 45v6l293 184h12l293 -184v-6
l-31 -45h-6l-260 149z" />
    <glyph glyph-name="Otilde" unicode="&#xd5;" horiz-adv-x="1607" 
d="M805 53q266 0 442 175q176 176 176 438t-176 437t-442 175q-265 0 -443 -175t-178 -437t177 -438q178 -175 444 -175zM804 -25q-302 0 -502 199t-200 492q0 294 200 492t502 198t503 -199t201 -491t-202 -492q-200 -199 -502 -199zM618 1628q64 0 186 -38t198 -38t112 76
h8l37 -57v-6q-57 -84 -166 -84q-67 0 -191 38t-184 37q-86 0 -122 -75h-7l-38 55v6q54 86 167 86z" />
    <glyph glyph-name="Odieresis" unicode="&#xd6;" horiz-adv-x="1607" 
d="M805 53q266 0 442 175q176 176 176 438t-176 437t-442 175q-265 0 -443 -175t-178 -437t177 -438q178 -175 444 -175zM804 -25q-302 0 -502 199t-200 492q0 294 200 492t502 198t503 -199t201 -491t-202 -492q-200 -199 -502 -199zM973 1448q-35 0 -60 25t-25 59t26 60
q24 24 59 24t61 -25t25 -59q1 -34 -25 -60q-26 -24 -61 -24zM635 1448q-35 0 -60 25t-25 59t26 60q24 24 59 24t61 -25t25 -59q1 -34 -25 -60q-26 -24 -61 -24z" />
    <glyph glyph-name="multiply" unicode="&#xd7;" horiz-adv-x="1073" 
d="M963 297l-52 -53l-376 377l-375 -375l-47 45l374 377l-376 376l51 52l377 -377l374 373l45 -48l-372 -372z" />
    <glyph glyph-name="Oslash" unicode="&#xd8;" horiz-adv-x="1607" 
d="M805 53q266 0 442 175t176 438q-1 154 -67 284t-180 213l-684 -1032q143 -78 313 -78zM184 666q0 -152 64 -280t176 -210l684 1028q-137 74 -303 74q-265 0 -443 -175t-178 -437zM805 -25q-195 0 -359 91l-108 -166h-86l-4 10l131 199q-129 94 -203 239t-74 318
q0 294 200 492t503 198q188 0 346 -84l119 178h84l4 -10l-139 -209q135 -93 212 -241t76 -324q-1 -293 -201 -492t-501 -199z" />
    <glyph glyph-name="Ugrave" unicode="&#xd9;" horiz-adv-x="1429" 
d="M723 -25q-240 -1 -381 147t-141 398v668q0 92 -64 92q-31 0 -51 -18l-8 2l-21 55l2 8q37 29 95 29t93 -39q34 -39 34 -109v-684q1 -217 119 -345t322 -128t324 129t119 344v807h80v-811q0 -250 -141 -398t-381 -147zM559 1729l359 -232v-6l-29 -41h-6l-371 211v6l39 62h8
z" />
    <glyph glyph-name="Uacute" unicode="&#xda;" horiz-adv-x="1429" 
d="M723 -25q-240 -1 -381 147t-141 398v668q0 92 -64 92q-31 0 -51 -18l-8 2l-21 55l2 8q37 29 95 29t93 -39q34 -39 34 -109v-684q1 -217 119 -345t322 -128t324 129t119 344v807h80v-811q0 -250 -141 -398t-381 -147zM870 1729h9l39 -62v-6l-371 -211h-6l-29 41v6z" />
    <glyph glyph-name="Ucircumflex" unicode="&#xdb;" horiz-adv-x="1429" 
d="M1165 1331h80v-811q0 -250 -141 -397t-381 -147t-381 146q-141 148 -141 398v668q0 92 -64 92q-31 0 -51 -18l-8 2l-21 55l2 8q37 29 95 29t93 -39q34 -39 34 -109v-684q1 -217 119 -345t322 -128t324 129t119 344v807zM453 1442h-7l-32 45v6l293 184h12l293 -184v-6
l-31 -45h-6l-260 149z" />
    <glyph glyph-name="Udieresis" unicode="&#xdc;" horiz-adv-x="1429" 
d="M723 -25q-240 -1 -381 147t-141 398v668q0 92 -64 92q-31 0 -51 -18l-8 2l-21 55l2 8q37 29 95 29t93 -39q34 -39 34 -109v-684q1 -217 119 -345t322 -128t324 129t119 344v807h80v-811q0 -250 -141 -398t-381 -147zM883 1448q-35 0 -60 25t-25 59t26 60q24 24 59 24
t61 -25t25 -59q1 -34 -25 -60q-26 -24 -61 -24zM545 1448q-35 0 -60 25t-25 59t26 60q24 24 59 24t61 -25t25 -59q1 -34 -25 -60q-26 -24 -61 -24z" />
    <glyph glyph-name="Yacute" unicode="&#xdd;" horiz-adv-x="1370" 
d="M1270 1280q-57 0 -119 -90l-424 -631v-559h-82v557l-426 633q-61 90 -119 90q-33 0 -55 -18l-8 2l-23 55l4 8q35 29 89 29q53 0 95 -33t93 -106l393 -586l391 586q51 75 91 107t92 32t90 -29l4 -8l-23 -55l-8 -2q-23 18 -55 18zM518 1450h-6l-29 41v6l359 232h8l39 -62
v-6z" />
    <glyph glyph-name="Thorn" unicode="&#xde;" horiz-adv-x="1181" 
d="M696 348q152 0 242 88t90 230t-90 228q-90 87 -242 87h-409v-633h409zM680 1055q202 -1 316 -105t114 -284t-115 -284t-315 -106h-393v-276h-80v1331h80v-276h393z" />
    <glyph glyph-name="germandbls" unicode="&#xdf;" horiz-adv-x="1132" 
d="M612 47q143 0 246 82q102 81 102 233t-102 238q-104 86 -270 86h-60v64h56q129 0 212 74t83 194t-85 194q-84 74 -228 74t-233 -87t-89 -234v-965h-78v969q0 174 112 280q112 107 288 107t284 -94q106 -94 106 -244q0 -102 -51 -179t-139 -116q129 -35 202 -128t72 -228
q0 -185 -125 -287t-303 -103q-90 0 -174 37l-2 6l27 58h6q55 -31 143 -31z" />
    <glyph glyph-name="agrave" unicode="&#xe0;" 
d="M612 977q-190 0 -314 -134t-124 -332t122 -331t314 -133q190 0 317 131q126 131 126 334t-125 334t-316 131zM608 -25q-223 0 -368 155t-146 382q0 227 146 382t368 155q143 0 258 -67t181 -181v223h77v-887q0 -92 62 -92q29 0 51 18l6 -2l21 -51q-23 -35 -85 -35t-97 40
q-34 40 -33 108v104q-68 -117 -182 -185t-259 -67zM797 1145h-6l-347 246v6l50 59h6l327 -264v-6z" />
    <glyph glyph-name="aacute" unicode="&#xe1;" 
d="M612 977q-190 0 -314 -134t-124 -332t122 -331t314 -133q190 0 317 131q126 131 126 334t-125 334t-316 131zM608 -25q-223 0 -368 155t-146 382q0 227 146 382t368 155q143 0 258 -67t181 -181v223h77v-887q0 -92 62 -92q29 0 51 18l6 -2l21 -51q-23 -35 -85 -35t-97 40
q-34 40 -33 108v104q-68 -117 -182 -185t-259 -67zM481 1145h-6l-31 41v6l330 264h6l47 -59v-6z" />
    <glyph glyph-name="acircumflex" unicode="&#xe2;" 
d="M612 977q-190 0 -314 -134t-124 -332t122 -331t314 -133q190 0 317 131q126 131 126 334t-125 334t-316 131zM608 -25q-223 0 -368 155t-146 382q0 227 146 382t368 155q143 0 258 -67t181 -181v223h77v-887q0 -92 62 -92q29 0 51 18l6 -2l21 -51q-23 -35 -85 -35t-97 40
q-34 40 -33 108v104q-68 -117 -182 -185t-259 -67zM389 1145h-6l-35 45v6l279 184h18l281 -184v-6l-35 -45h-8l-246 147z" />
    <glyph glyph-name="atilde" unicode="&#xe3;" 
d="M612 977q-190 0 -314 -134t-124 -332t122 -331t314 -133q190 0 317 131q126 131 126 334t-125 334t-316 131zM608 -25q-223 0 -368 155t-146 382q0 227 146 382t368 155q143 0 258 -67t181 -181v223h77v-887q0 -92 62 -92q29 0 51 18l6 -2l21 -51q-23 -35 -85 -35t-97 40
q-34 40 -33 108v104q-68 -117 -182 -185t-259 -67zM465 1309q59 0 170 -36t181 -36t102 72h6l32 -56v-6q-49 -82 -147 -82q-63 0 -176 36t-168 36q-78 0 -111 -72h-6l-33 56v6q49 82 150 82z" />
    <glyph glyph-name="adieresis" unicode="&#xe4;" 
d="M612 977q-190 0 -314 -134t-124 -332t122 -331t314 -133q190 0 317 131q126 131 126 334t-125 334t-316 131zM608 -25q-223 0 -368 155t-146 382q0 227 146 382t368 155q143 0 258 -67t181 -181v223h77v-887q0 -92 62 -92q29 0 51 18l6 -2l21 -51q-23 -35 -85 -35t-97 40
q-34 40 -33 108v104q-68 -117 -182 -185t-259 -67zM786 1145q-36 1 -60 25t-24 59t25 59t59 23q34 0 58 -25q24 -24 24 -58t-23 -59q-24 -24 -59 -24zM489 1145q-35 1 -59 25t-24 59t24 59t60 23q34 0 58 -25q24 -24 24 -58t-24 -59q-24 -24 -59 -24z" />
    <glyph glyph-name="aring" unicode="&#xe5;" 
d="M612 977q-190 0 -314 -134t-124 -332t122 -331t314 -133q190 0 317 131q126 131 126 334t-125 334t-316 131zM608 -25q-223 0 -368 155t-146 382q0 227 146 382t368 155q143 0 258 -67t181 -181v223h77v-887q0 -92 62 -92q29 0 51 18l6 -2l21 -51q-23 -35 -85 -35t-97 40
q-34 40 -33 108v104q-68 -117 -182 -185t-259 -67zM636 1413q-50 0 -80 -33q-30 -34 -30 -78t30 -77t80 -33t80 33t29 78q1 45 -29 77t-80 33zM637 1130q-76 0 -126 50t-50 123q0 71 50 121t126 50t126 -50t50 -122t-50 -122t-126 -50z" />
    <glyph glyph-name="ae" unicode="&#xe6;" horiz-adv-x="1964" 
d="M864 367v120q-164 76 -330.5 76t-268 -67.5t-101.5 -188.5t91 -190.5t236 -69.5t259 87.5t114 232.5zM1381 977q-185 0 -306 -118t-131 -306h856q-10 190 -122 307t-297 117zM1397 47q121 0 229.5 52.5t169.5 138.5h6l51 -41v-9q-72 -98 -194.5 -155.5t-270 -57.5
t-275.5 75t-193 210q-39 -135 -164 -210t-287 -75t-273.5 89.5t-111.5 246t124 239.5t311.5 83t344.5 -76v125q0 139 -103.5 217t-236.5 78q-203 0 -350 -158h-6l-49 43v6q160 180 405 181q139 0 253 -67t151 -198q66 123 182.5 194t269.5 71q227 0 363.5 -150.5
t136.5 -378.5q0 -25 -2 -35h-934q8 -199 136 -318.5t317 -119.5z" />
    <glyph glyph-name="ccedilla" unicode="&#xe7;" horiz-adv-x="1136" 
d="M629 977q-199 0 -327 -133t-128 -332t128 -332t327 -133q246 0 375 180h8l47 -37v-8q-139 -190 -397 -207l-27 -65l2 -2q37 10 92.5 10t99 -41t43.5 -111.5t-57 -117.5t-170 -47t-194 75v7l41 45h6q59 -64 139 -64q158 -1 158 105q0 39 -31 63.5t-80 24.5t-121 -27
l-37 20l56 127q-215 16 -351.5 168t-136.5 374t151.5 376t383.5 154q135 0 247.5 -55.5t182.5 -151.5v-8l-47 -37h-8q-137 180 -375 180z" />
    <glyph glyph-name="egrave" unicode="&#xe8;" horiz-adv-x="1193" 
d="M611 977q-185 0 -306 -118t-131 -306h856q-10 190 -122 307t-297 117zM627 47q121 0 229.5 52.5t169.5 138.5h6l51 -41v-9q-72 -98 -194.5 -155.5t-259.5 -57.5q-225 0 -380 147.5t-155 384t143.5 389.5t371.5 153t364.5 -150.5t136.5 -378.5q0 -25 -2 -35h-934
q8 -199 136 -318.5t317 -119.5zM772 1145h-6l-346 246v6l49 59h6l328 -264v-6z" />
    <glyph glyph-name="eacute" unicode="&#xe9;" horiz-adv-x="1193" 
d="M611 977q-185 0 -306 -118t-131 -306h856q-10 190 -122 307t-297 117zM627 47q121 0 229.5 52.5t169.5 138.5h6l51 -41v-9q-72 -98 -194.5 -155.5t-259.5 -57.5q-225 0 -380 147.5t-155 384t143.5 389.5t371.5 153t364.5 -150.5t136.5 -378.5q0 -25 -2 -35h-934
q8 -199 136 -318.5t317 -119.5zM457 1145h-6l-31 41v6l330 264h6l47 -59v-6z" />
    <glyph glyph-name="ecircumflex" unicode="&#xea;" horiz-adv-x="1193" 
d="M611 977q-185 0 -306 -118t-131 -306h856q-10 190 -122 307t-297 117zM627 47q121 0 229.5 52.5t169.5 138.5h6l51 -41v-9q-72 -98 -194.5 -155.5t-259.5 -57.5q-225 0 -380 147.5t-155 384t143.5 389.5t371.5 153t364.5 -150.5t136.5 -378.5q0 -25 -2 -35h-934
q8 -199 136 -318.5t317 -119.5zM365 1145h-7l-34 45v6l278 184h19l280 -184v-6l-35 -45h-8l-246 147z" />
    <glyph glyph-name="edieresis" unicode="&#xeb;" horiz-adv-x="1193" 
d="M611 977q-185 0 -306 -118t-131 -306h856q-10 190 -122 307t-297 117zM627 47q121 0 229.5 52.5t169.5 138.5h6l51 -41v-9q-72 -98 -194.5 -155.5t-259.5 -57.5q-225 0 -380 147.5t-155 384t143.5 389.5t371.5 153t364.5 -150.5t136.5 -378.5q0 -25 -2 -35h-934
q8 -199 136 -318.5t317 -119.5zM762 1145q-35 0 -59.5 24.5t-24.5 59.5t24.5 58.5t58.5 23.5t58.5 -24.5t24.5 -58.5t-23.5 -58.5t-58.5 -24.5zM465 1145q-35 0 -59.5 24.5t-24.5 59.5t24.5 58.5t59.5 23.5t58.5 -24.5t23.5 -58.5t-23.5 -58.5t-58.5 -24.5z" />
    <glyph glyph-name="igrave" unicode="&#xec;" horiz-adv-x="423" 
d="M284 -25q-54 0 -88 40t-34 110v899h78v-887q0 -92 59 -92q27 0 47 16l8 -2l19 -53l-2 -6q-33 -25 -87 -25zM63 1456l328 -264v-6l-31 -41h-6l-346 246v6l49 59h6z" />
    <glyph glyph-name="iacute" unicode="&#xed;" horiz-adv-x="423" 
d="M284 -25q-54 0 -88 40t-34 110v899h78v-887q0 -92 59 -92q27 0 47 16l8 -2l19 -53l-2 -6q-33 -25 -87 -25zM338 1456h6l47 -59v-6l-346 -246h-6l-31 41v6z" />
    <glyph glyph-name="icircumflex" unicode="&#xee;" horiz-adv-x="423" 
d="M284 -25q-54 0 -88 40t-34 110v899h78v-887q0 -92 59 -92q27 0 47 16l8 -2l19 -53l-2 -6q-33 -25 -87 -25zM209 1380l280 -184v-6l-34 -45h-9l-245 147l-248 -147h-6l-35 45v6l278 184h19z" />
    <glyph glyph-name="idieresis" unicode="&#xef;" horiz-adv-x="423" 
d="M284 -25q-54 0 -88 40t-34 110v899h78v-887q0 -92 59 -92q27 0 47 16l8 -2l19 -53l-2 -6q-33 -25 -87 -25zM350 1145q-36 1 -60 25t-24 59t25 59t59 23q34 0 59 -25q23 -24 23 -58t-23 -59q-24 -24 -59 -24zM53 1145q-35 1 -59 25t-25 59q0 35 25 59q24 24 58 23
q34 0 59 -25q25 -24 25 -58t-24 -59q-24 -24 -59 -24z" />
    <glyph glyph-name="eth" unicode="&#xf0;" horiz-adv-x="1150" 
d="M172 459q0 -176 114 -293t288 -117q173 0 288 117t115 293t-114 294q-114 117 -288 117q-175 0 -289 -118t-114 -293zM92 461q0 205 138 343t343 138q164 0 293 -92q-76 131 -166 248l-231 -84l-6 6v57l196 74q-88 109 -172 192v9l50 39h8q102 -106 188 -213l262 96l9 -6
v-60l-230 -84q285 -378 283 -663q2 -205 -137 -345q-140 -140 -346 -140t-344 140t-138 345z" />
    <glyph glyph-name="ntilde" unicode="&#xf1;" horiz-adv-x="1224" 
d="M1099 -25q-54 0 -88 40t-34 110v508q0 156 -94.5 250t-253 94t-261 -101.5t-102.5 -254.5v-621h-78v887q0 92 -61 92q-25 0 -51 -18l-8 2l-19 51l2 6q37 29 91 29t87 -38t33 -106v-63q55 96 154.5 151.5t226.5 55.5q184 0 298 -113t114 -299v-500q0 -92 59 -92
q27 0 47 16l8 -2l19 -53l-2 -6q-33 -25 -87 -25zM442 1309q59 0 170 -36t180.5 -36t102.5 72h6l33 -56v-6q-49 -82 -148 -82q-63 0 -175.5 36t-179 36t-99.5 -72h-6l-33 56v6q49 82 149 82z" />
    <glyph glyph-name="ograve" unicode="&#xf2;" horiz-adv-x="1271" 
d="M636 47q200 0 331 133t131 332t-131 332t-331 133t-331 -133t-131 -332t131 -332t331 -133zM636.5 -25q-233.5 0 -388 155t-154.5 382t154.5 382t388 155t388.5 -155t155 -382t-155 -382t-388.5 -155zM500 1456l327 -264v-6l-30 -41h-6l-347 246v6l50 59h6z" />
    <glyph glyph-name="oacute" unicode="&#xf3;" horiz-adv-x="1271" 
d="M636 47q200 0 331 133t131 332t-131 332t-331 133t-331 -133t-131 -332t131 -332t331 -133zM636.5 -25q-233.5 0 -388 155t-154.5 382t154.5 382t388 155t388.5 -155t155 -382t-155 -382t-388.5 -155zM774 1456h6l47 -59v-6l-346 -246h-6l-31 41v6z" />
    <glyph glyph-name="ocircumflex" unicode="&#xf4;" horiz-adv-x="1271" 
d="M636 47q200 0 331 133t131 332t-131 332t-331 133t-331 -133t-131 -332t131 -332t331 -133zM636.5 1049q233.5 0 388.5 -155t155 -382t-155 -382t-388.5 -155t-388 155t-154.5 382t154.5 382t388 155zM389 1145h-6l-35 45v6l279 184h18l281 -184v-6l-35 -45h-8l-246 147z
" />
    <glyph glyph-name="otilde" unicode="&#xf5;" horiz-adv-x="1271" 
d="M636 47q200 0 331 133t131 332t-131 332t-331 133t-331 -133t-131 -332t131 -332t331 -133zM636.5 -25q-233.5 0 -388 155t-154.5 382t154.5 382t388 155t388.5 -155t155 -382t-155 -382t-388.5 -155zM465 1309q59 0 169.5 -36t180.5 -36t103 72h6l32 -56v-6
q-49 -82 -147 -82q-63 0 -176 36t-168 36q-78 0 -111 -72h-6l-33 56v6q50 82 150 82z" />
    <glyph glyph-name="odieresis" unicode="&#xf6;" horiz-adv-x="1271" 
d="M636 47q200 0 331 133t131 332t-131 332t-331 133t-331 -133t-131 -332t131 -332t331 -133zM636.5 -25q-233.5 0 -388 155t-154.5 382t154.5 382t388 155t388.5 -155t155 -382t-155 -382t-388.5 -155zM786.5 1145q-34.5 0 -59.5 24.5t-25 59.5t25 58.5t58.5 23.5
t58 -24.5t24.5 -58.5t-23.5 -58.5t-58 -24.5zM489.5 1145q-34.5 0 -59 24.5t-24.5 59.5t24.5 58.5t59 23.5t58 -24.5t23.5 -58.5t-23.5 -58.5t-58 -24.5z" />
    <glyph glyph-name="divide" unicode="&#xf7;" horiz-adv-x="1110" 
d="M563 209q-35 1 -59 25t-25 58q0 34 25 58q26 24 60 25q34 0 59 -25q25 -24 25 -58t-25 -59q-25 -24 -60 -24zM141 649h830v-65h-830v65zM563 866q-35 0 -59 25t-25 59q0 34 25 58q26 24 60 24t59 -24t25 -59t-26 -59q-24 -24 -59 -24z" />
    <glyph glyph-name="oslash" unicode="&#xf8;" horiz-adv-x="1271" 
d="M637 47q199 0 330 133t131 346t-164 348l-537 -765q111 -62 240 -62zM174 499q0 -212 164 -347l534 763q-106 61 -235 62q-201 0 -332 -133t-131 -345zM1180 512q0 -227 -155 -382t-388 -155q-156 0 -281 74l-100 -143h-82l-4 6l125 178q-201 156 -201 422
q0 227 154.5 382t388.5 155q152 0 278 -72l117 168h82l4 -6l-141 -203q203 -156 203 -424z" />
    <glyph glyph-name="ugrave" unicode="&#xf9;" horiz-adv-x="1204" 
d="M117 1049q63 0 97 -37t34 -107v-522q0 -154 92 -245t242 -91q150 1 254 103t104 253v621h76v-887q0 -92 61 -92q29 0 51 18l9 -2l18 -51l-2 -6q-33 -29 -88 -29t-89 39t-34 109v63q-53 -96 -150 -153t-217 -58q-185 0 -295 110t-110 294v508q0 92 -59 92q-27 0 -54 -18
l-6 2l-20 51q23 35 86 35zM750 1145h-7l-346 246v6l49 59h7l327 -264v-6z" />
    <glyph glyph-name="uacute" unicode="&#xfa;" horiz-adv-x="1204" 
d="M117 1049q63 0 97 -37t34 -107v-522q0 -154 92 -245t242 -91q150 1 254 103t104 253v621h76v-887q0 -92 61 -92q29 0 51 18l9 -2l18 -51l-2 -6q-33 -29 -88 -29t-89 39t-34 109v63q-53 -96 -150 -153t-217 -58q-185 0 -295 110t-110 294v508q0 92 -59 92q-27 0 -54 -18
l-6 2l-20 51q23 35 86 35zM434 1145h-6l-31 41v6l330 264h6l47 -59v-6z" />
    <glyph glyph-name="ucircumflex" unicode="&#xfb;" horiz-adv-x="1204" 
d="M117 1049q63 0 97 -37t34 -107v-522q0 -154 92 -245t242 -91q150 1 254 103t104 253v621h76v-887q0 -92 61 -92q29 0 51 18l9 -2l18 -51l-2 -6q-33 -29 -88 -29t-89 39t-34 109v63q-53 -96 -150 -153t-217 -58q-185 0 -295 110t-110 294v508q0 92 -59 92q-27 0 -54 -18
l-6 2l-20 51q23 35 86 35zM342 1145h-6l-35 45v6l279 184h18l281 -184v-6l-35 -45h-8l-246 147z" />
    <glyph glyph-name="udieresis" unicode="&#xfc;" horiz-adv-x="1204" 
d="M117 1049q63 0 97 -37t34 -107v-522q0 -154 92 -245t242 -91q150 1 254 103t104 253v621h76v-887q0 -92 61 -92q29 0 51 18l9 -2l18 -51l-2 -6q-33 -29 -88 -29t-89 39t-34 109v63q-53 -96 -150 -153t-217 -58q-185 0 -295 110t-110 294v508q0 92 -59 92q-27 0 -54 -18
l-6 2l-20 51q23 35 86 35zM739 1145q-35 1 -59 25t-25 59q0 35 25 59q26 24 60 23q34 0 58 -25q24 -24 24 -58t-24 -59q-24 -24 -59 -24zM442 1145q-36 1 -60 25t-24 59t25 59t59 23q34 0 58 -25q24 -24 24 -58t-23 -59q-24 -24 -59 -24z" />
    <glyph glyph-name="yacute" unicode="&#xfd;" horiz-adv-x="1169" 
d="M110 1049q60 0 94 -37t34 -107v-428q0 -149 90 -233t242 -84t255 102q104 102 105 254v508h78v-870q0 -219 -129 -341t-343 -122t-366 157v9l43 47h6q129 -142 315 -142t290 104q105 104 106 290v129q-56 -93 -154 -145t-213 -52q-186 0 -294 102t-107 289v408
q0 92 -62 92q-29 0 -51 -18l-8 2l-21 51q30 35 90 35zM406 1145h-7l-30 41v6l329 264h7l47 -59v-6z" />
    <glyph glyph-name="thorn" unicode="&#xfe;" horiz-adv-x="1288" 
d="M676 47q192 0 315 133t123 331t-123 332t-315 134t-315 -129t-123 -336t124 -336q122 -129 314 -129zM678 1049q224 0 370 -154t146 -383t-145 -383t-371 -154q-141 0 -254 67t-180 181v-530h-78v1501q0 92 -62 92q-25 0 -51 -18l-8 2l-18 51l2 6q33 29 89 29t89 -39
t33 -109v-415q68 117 182 187t256 69z" />
    <glyph glyph-name="ydieresis" unicode="&#xff;" horiz-adv-x="1169" 
d="M110 1049q60 0 94 -37t34 -107v-428q0 -149 90 -233t242 -84t255 102q104 102 105 254v508h78v-870q0 -219 -129 -341t-343 -122t-366 157v9l43 47h6q129 -142 315 -142t290 104q105 104 106 290v129q-56 -93 -154 -145t-213 -52q-186 0 -294 102t-107 289v408
q0 92 -62 92q-29 0 -51 -18l-8 2l-21 51q30 35 90 35zM711 1145q-35 1 -60 25t-24 59t25 59t59 23q35 0 59 -25q24 -24 23 -58q1 -34 -23 -58t-59 -25zM414 1145q-35 1 -60 25t-24 59q0 35 24 59t59 23q35 0 59 -25q24 -24 24 -58t-24 -58t-58 -25z" />
    <glyph glyph-name="Amacron" unicode="&#x100;" horiz-adv-x="1447" 
d="M383 403h678l-336 803zM1347 -25q-49 0 -91 32t-78 116l-86 207h-740l-88 -207q-39 -88 -78 -118t-90 -30t-86 29l-4 8l23 56l8 2q23 -18 55 -18t53 20q20 20 50 84l503 1175h58l493 -1175q27 -60 49 -82t54 -22t57 18l6 -2l25 -56l-4 -8q-39 -29 -89 -29zM1008 1561v-64
h-562v64h562z" />
    <glyph glyph-name="amacron" unicode="&#x101;" 
d="M612 977q-190 0 -314 -134t-124 -332t122 -331t314 -133q190 0 317 131q126 131 126 334t-125 334t-316 131zM608 -25q-223 0 -368 155t-146 382q0 227 146 382t368 155q143 0 258 -67t181 -181v223h77v-887q0 -92 62 -92q29 0 51 18l6 -2l21 -51q-23 -35 -85 -35t-97 40
q-34 40 -33 108v104q-68 -117 -182 -185t-259 -67zM913 1255v-65h-553v65h553z" />
    <glyph glyph-name="Abreve" unicode="&#x102;" horiz-adv-x="1447" 
d="M383 403h678l-336 803zM1347 -25q-49 0 -91 32t-78 116l-86 207h-740l-88 -207q-39 -88 -78 -118t-90 -30t-86 29l-4 8l23 56l8 2q23 -18 55 -18t53 20q20 20 50 84l503 1175h58l493 -1175q27 -60 49 -82t54 -22t57 18l6 -2l25 -56l-4 -8q-39 -29 -89 -29zM733 1448
q-109 0 -185 66t-89 178h71q12 -82 66 -131t137 -49q82 0 136 48q54 50 67 132h72q-14 -112 -90 -178t-185 -66z" />
    <glyph glyph-name="abreve" unicode="&#x103;" 
d="M612 977q-190 0 -314 -134t-124 -332t122 -331t314 -133q190 0 317 131q126 131 126 334t-125 334t-316 131zM608 -25q-223 0 -368 155t-146 382q0 227 146 382t368 155q143 0 258 -67t181 -181v223h77v-887q0 -92 62 -92q29 0 51 18l6 -2l21 -51q-23 -35 -85 -35t-97 40
q-34 40 -33 108v104q-68 -117 -182 -185t-259 -67zM637 1145q-109 -1 -185 67t-90 177h72q12 -81 68 -131t135 -50q78 0 134 50t69 131h71q-13 -109 -89 -177t-185 -67z" />
    <glyph glyph-name="Aogonek" unicode="&#x104;" horiz-adv-x="1447" 
d="M383 403h678l-336 803zM1348 -393q-78 0 -129 43t-52 121q0 98 154 206q-37 6 -72 34t-71 112l-86 207h-740l-88 -207q-39 -88 -78 -118t-90 -30t-86 29l-4 8l23 56l8 2q23 -18 55 -18t53 20q20 20 50 84l503 1175h58l493 -1175q27 -60 49 -82t54 -22t57 18l6 -2l25 -56
l-4 -8q-8 -6 -39 -30t-65 -50t-46 -43q-12 -16 -32 -42t-19 -71q0 -46 33 -73q34 -27 90 -28t102 46h8l29 -41v-8q-71 -57 -149 -57z" />
    <glyph glyph-name="aogonek" unicode="&#x105;" 
d="M612 977q-190 0 -314 -134t-124 -332t122 -331t314 -133q190 0 317 131q126 131 126 334t-125 334t-316 131zM1172 -393q-79 0 -130 43t-51 121q0 100 156 206q-98 18 -98 146v104q-68 -117 -182 -185t-259 -67q-223 0 -368 155t-146 382q0 227 146 382t368 155
q143 0 258 -67t181 -181v223h77v-887q0 -92 62 -92q29 0 51 18l6 -2l21 -51l-4 -6q-13 -8 -37 -28q-25 -19 -33 -25q-75 -56 -100 -95q-31 -49 -31 -92q0 -42 33 -69t89 -28t103 46h8l29 -41v-8q-70 -57 -149 -57z" />
    <glyph glyph-name="Cacute" unicode="&#x106;" horiz-adv-x="1419" 
d="M184 666q0 -260 177.5 -436.5t439.5 -176.5q145 0 271 60.5t208 165.5h6l57 -43v-7q-94 -119 -236 -186.5t-306 -67.5q-299 0 -499 199t-200 491.5t200 491.5t499 199q164 0 306 -67.5t236 -186.5v-6l-57 -43h-6q-82 104 -208 164.5t-271 60.5q-262 0 -439.5 -176
t-177.5 -436zM954 1729h9l38 -62v-6l-370 -211h-6l-29 41v6z" />
    <glyph glyph-name="cacute" unicode="&#x107;" horiz-adv-x="1136" 
d="M94 512q0 229 151.5 383t383.5 154q135 0 247.5 -55.5t182.5 -151.5v-8l-47 -37h-8q-137 180 -375 180q-199 0 -327 -133t-128 -332t128 -332t327 -133q246 0 375 180h8l47 -37v-8q-70 -96 -182.5 -151.5t-247.5 -55.5q-231 0 -383 154t-152 383zM766 1456h6l47 -59v-6
l-346 -246h-6l-31 41v6z" />
    <glyph glyph-name="Cdotaccent" unicode="&#x10a;" horiz-adv-x="1419" 
d="M184 666q0 -260 177.5 -436.5t439.5 -176.5q145 0 271 60.5t208 165.5h6l57 -43v-7q-94 -119 -236 -186.5t-306 -67.5q-299 0 -499 199t-200 491.5t200 491.5t499 199q164 0 306 -67.5t236 -186.5v-6l-57 -43h-6q-82 104 -208 164.5t-271 60.5q-262 0 -439.5 -176
t-177.5 -436zM800 1448q-34 0 -58.5 25.5t-24.5 58.5t24.5 56.5t58.5 23.5t58.5 -23.5t24.5 -56.5t-24.5 -58.5t-58.5 -25.5z" />
    <glyph glyph-name="cdotaccent" unicode="&#x10b;" horiz-adv-x="1136" 
d="M94 512q0 229 151.5 383t383.5 154q135 0 247.5 -55.5t182.5 -151.5v-8l-47 -37h-8q-137 180 -375 180q-199 0 -327 -133t-128 -332t128 -332t327 -133q246 0 375 180h8l47 -37v-8q-70 -96 -182.5 -151.5t-247.5 -55.5q-231 0 -383 154t-152 383zM629 1145
q-35 0 -59.5 24.5t-24.5 58.5t24.5 58.5t59.5 24.5t59.5 -24.5t24.5 -58.5t-24.5 -58.5t-59.5 -24.5z" />
    <glyph glyph-name="Ccaron" unicode="&#x10c;" horiz-adv-x="1419" 
d="M801 1278q-262 0 -439.5 -176t-177.5 -436t177.5 -436.5t439.5 -176.5q145 0 271 60.5t208 165.5h6l57 -43v-7q-94 -119 -236 -186.5t-306 -67.5q-299 0 -499 199t-200 491.5t200 491.5t499 199q164 0 306 -67.5t236 -186.5v-6l-57 -43h-6q-82 104 -208 164.5t-271 60.5z
M803 1450h-10l-293 184v6l30 46h7l262 -150l260 150h6l31 -46v-6z" />
    <glyph glyph-name="ccaron" unicode="&#x10d;" horiz-adv-x="1136" 
d="M629 977q-199 0 -327 -133t-128 -332t128 -332t327 -133q246 0 375 180h8l47 -37v-8q-70 -96 -182.5 -151.5t-247.5 -55.5q-231 0 -383 154t-152 383t151.5 383t383.5 154q135 0 247.5 -55.5t182.5 -151.5v-8l-47 -37h-8q-137 180 -375 180zM637 1145h-19l-278 186v6
l35 43h6l248 -147l245 147h9l35 -43v-6z" />
    <glyph glyph-name="Dcaron" unicode="&#x10e;" horiz-adv-x="1458" 
d="M670 74q276 0 437 160t161 432q0 270 -161 431t-437 160h-383v-1183h383zM670 1331q315 0 498 -182q184 -182 184 -483q0 -302 -184 -484t-498 -182h-463v1331h463zM655 1450h-10l-293 184v6l31 46h6l262 -150l260 150h7l30 -46v-6z" />
    <glyph glyph-name="dcaron" unicode="&#x10f;" horiz-adv-x="1331" 
d="M613.5 47q191.5 0 315.5 129t124 336t-124 336t-315.5 129t-315.5 -134t-124 -331t124 -331t315.5 -134zM1049 123v104q-66 -115 -180.5 -183.5t-256.5 -68.5q-227 0 -372.5 154t-145.5 383t145.5 383t372.5 154q141 0 254 -67t181 -181v581l69 13l8 -4v-1254
q0 -92 60 -92q26 0 53 18l6 -2l21 -51q-23 -35 -85 -35t-96 39t-34 109zM1393 1438l4 -6l-92 -338l-7 -7h-45l-4 7l62 338l6 6h76z" />
    <glyph glyph-name="Dcroat" unicode="&#x110;" horiz-adv-x="1466" 
d="M680 74q276 0 436 160t160 432q0 270 -160 431t-436 160h-383v-548h424v-72h-424v-563h383zM678 1331q314 0 498 -182t184 -483q0 -302 -183 -484t-499 -182h-463v637h-184v72h184v622h463z" />
    <glyph glyph-name="dcroat" unicode="&#x111;" 
d="M613.5 47q191.5 0 315.5 129t124 336t-124 336t-315.5 129t-315.5 -134t-124 -331t124 -331t315.5 -134zM1049 123v104q-66 -115 -180.5 -183.5t-256.5 -68.5q-227 0 -372.5 154t-145.5 383t145.5 383t372.5 154q141 0 254 -67t181 -181v364h-330v66h330v151l69 13l8 -4
v-160h129v-66h-129v-1028q0 -92 60 -92q27 0 53 18l6 -2l21 -51q-23 -35 -85 -35t-96 39t-34 109z" />
    <glyph glyph-name="Emacron" unicode="&#x112;" horiz-adv-x="1122" 
d="M1034 1257h-747v-548h587v-72h-587v-563h747v-74h-827v1331h827v-74zM340 1561h561v-64h-561v64z" />
    <glyph glyph-name="emacron" unicode="&#x113;" horiz-adv-x="1193" 
d="M611 977q-185 0 -306 -118t-131 -306h856q-10 190 -122 307t-297 117zM627 47q121 0 229.5 52.5t169.5 138.5h6l51 -41v-9q-72 -98 -194.5 -155.5t-259.5 -57.5q-225 0 -380 147.5t-155 384t143.5 389.5t371.5 153t364.5 -150.5t136.5 -378.5q0 -25 -2 -35h-934
q8 -199 136 -318.5t317 -119.5zM889 1255v-65h-553v65h553z" />
    <glyph glyph-name="Edotaccent" unicode="&#x116;" horiz-adv-x="1122" 
d="M1034 1257h-747v-548h587v-72h-587v-563h747v-74h-827v1331h827v-74zM622.5 1448q-32.5 0 -58 25.5t-25.5 58.5t24.5 56.5t58.5 23.5t58.5 -23.5t24.5 -56.5t-25 -58.5t-57.5 -25.5z" />
    <glyph glyph-name="edotaccent" unicode="&#x117;" horiz-adv-x="1193" 
d="M611 977q-185 0 -306 -118t-131 -306h856q-10 190 -122 307t-297 117zM627 47q121 0 229.5 52.5t169.5 138.5h6l51 -41v-9q-72 -98 -194.5 -155.5t-259.5 -57.5q-225 0 -380 147.5t-155 384t143.5 389.5t371.5 153t364.5 -150.5t136.5 -378.5q0 -25 -2 -35h-934
q8 -199 136 -318.5t317 -119.5zM612.5 1145q-34.5 0 -59.5 24.5t-25 58.5t25 58.5t59.5 24.5t59 -24.5t24.5 -58.5t-24.5 -58.5t-59 -24.5z" />
    <glyph glyph-name="Eogonek" unicode="&#x118;" horiz-adv-x="1122" 
d="M947 -397q-79 0 -130 43t-51 119t65 134.5t127 100.5h-751v1331h827v-74h-747v-548h587v-72h-587v-563h747v-74q-126 -95 -144 -117t-37 -47t-19 -71.5t32.5 -73.5t89 -28t103.5 46h8l29 -41v-8q-70 -57 -149 -57z" />
    <glyph glyph-name="eogonek" unicode="&#x119;" horiz-adv-x="1193" 
d="M611 977q-185 0 -306 -118t-131 -306h856q-10 190 -122 307t-297 117zM627 47q121 0 229.5 52.5t169.5 138.5h6l51 -41v-9q-78 -109 -223 -168q-56 -42 -82 -64t-35.5 -30t-23.5 -24q-51 -56 -51 -107t32.5 -77.5t89 -27.5t103.5 46h8l29 -41v-8q-70 -57 -149 -57.5
t-130 42.5t-51 129t133 183q-47 -8 -104 -9q-225 0 -380 147.5t-155 384t143.5 389.5t371.5 153t364.5 -150.5t136.5 -378.5q0 -25 -2 -35h-934q8 -199 136 -318.5t317 -119.5z" />
    <glyph glyph-name="Ecaron" unicode="&#x11a;" horiz-adv-x="1122" 
d="M1034 1257h-747v-548h587v-72h-587v-563h747v-74h-827v1331h827v-74zM625 1450h-11l-292 184v6l30 46h6l263 -150l260 150h6l31 -46v-6z" />
    <glyph glyph-name="ecaron" unicode="&#x11b;" horiz-adv-x="1193" 
d="M611 977q-185 0 -306 -118t-131 -306h856q-10 190 -122 307t-297 117zM627 47q121 0 229.5 52.5t169.5 138.5h6l51 -41v-9q-72 -98 -194.5 -155.5t-259.5 -57.5q-225 0 -380 147.5t-155 384t143.5 389.5t371.5 153t364.5 -150.5t136.5 -378.5q0 -25 -2 -35h-934
q8 -199 136 -318.5t317 -119.5zM621 1145h-19l-278 186v6l34 43h7l247 -147l246 147h8l35 -43v-6z" />
    <glyph glyph-name="Gbreve" unicode="&#x11e;" horiz-adv-x="1546" 
d="M1479 635q0 -276 -198 -468t-488.5 -192t-490.5 199t-200 491.5t200 491.5t497 199q166 0 308 -66.5t236 -185.5v-6l-57 -45h-6q-82 106 -209 165.5t-274 59.5q-258 0 -435.5 -176t-177.5 -436t176.5 -436.5t428.5 -176.5t427 161t179 400h-590v74h663l7 -8q4 -16 4 -45z
M806.5 1448q-108.5 0 -184 66.5t-90.5 177.5h72q12 -82 66.5 -131.5t136.5 -49.5t136 49.5t67 131.5h71q-14 -111 -90 -177.5t-184.5 -66.5z" />
    <glyph glyph-name="gbreve" unicode="&#x11f;" horiz-adv-x="1241" 
d="M574 184q177 0 291 113t114 284t-113.5 283.5t-290 112.5t-289 -112.5t-112.5 -283.5t111.5 -284t288.5 -113zM1116 979q-61 0 -61 -92v-733q0 -221 -131 -342t-346 -121q-299 0 -447 221v6l43 47h8q61 -94 165 -148.5t235 -54.5q180 0 287.5 103.5t107.5 290.5v176
q-61 -100 -166.5 -158.5t-239.5 -58.5q-207 0 -342 134t-135 334t135.5 333t343.5 133q135 0 241 -59.5t165 -162.5v78q0 68 34 106t89 38t88 -29l4 -6l-20 -51l-7 -2q-27 18 -51 18zM602.5 1145q-108.5 0 -184.5 67.5t-90 176.5h71q12 -80 68.5 -130.5t134.5 -50.5
t134.5 50.5t68.5 130.5h72q-14 -109 -90 -176.5t-184.5 -67.5z" />
    <glyph glyph-name="Gdotaccent" unicode="&#x120;" horiz-adv-x="1546" 
d="M1479 635q0 -276 -198 -468t-488.5 -192t-490.5 199t-200 491.5t200 491.5t497 199q166 0 308 -66.5t236 -185.5v-6l-57 -45h-6q-82 106 -209 165.5t-274 59.5q-258 0 -435.5 -176t-177.5 -436t176.5 -436.5t428.5 -176.5t427 161t179 400h-590v74h663l7 -8q4 -16 4 -45z
M803 1448q-33 0 -58.5 25.5t-25.5 58.5t24.5 56.5t58.5 23.5t58.5 -23.5t24.5 -56.5t-24.5 -58.5t-57.5 -25.5z" />
    <glyph glyph-name="gdotaccent" unicode="&#x121;" horiz-adv-x="1241" 
d="M574 184q177 0 291 113t114 284t-113.5 283.5t-290 112.5t-289 -112.5t-112.5 -283.5t111.5 -284t288.5 -113zM1116 979q-61 0 -61 -92v-733q0 -221 -131 -342t-346 -121q-299 0 -447 221v6l43 47h8q61 -94 165 -148.5t235 -54.5q180 0 287.5 103.5t107.5 290.5v176
q-61 -100 -166.5 -158.5t-239.5 -58.5q-207 0 -342 134t-135 334t135.5 333t343.5 133q135 0 241 -59.5t165 -162.5v78q0 68 34 106t89 38t88 -29l4 -6l-20 -51l-7 -2q-27 18 -51 18zM602 1145q-35 0 -59.5 24.5t-24.5 58.5t24.5 58.5t59.5 24.5t59.5 -24.5t24.5 -58.5
t-24.5 -58.5t-59.5 -24.5z" />
    <glyph glyph-name="Gcommaaccent" unicode="&#x122;" horiz-adv-x="1546" 
d="M762 -102h76l4 -7l-80 -288l-6 -9h-47l-7 9l54 288zM1479 635q0 -276 -198 -468t-488.5 -192t-490.5 199t-200 491.5t200 491.5t497 199q166 0 308 -66.5t236 -185.5v-6l-57 -45h-6q-82 106 -209 165.5t-274 59.5q-258 0 -435.5 -176t-177.5 -436t176.5 -436.5
t428.5 -176.5t427 161t179 400h-590v74h663l7 -8q4 -16 4 -45z" />
    <glyph glyph-name="gcommaaccent" unicode="&#x123;" horiz-adv-x="1241" 
d="M574 184q177 0 291 113t114 284t-113.5 283.5t-290 112.5t-289 -112.5t-112.5 -283.5t111.5 -284t288.5 -113zM1116 979q-61 0 -61 -92v-733q0 -221 -131 -342t-346 -121q-299 0 -447 221v6l43 47h8q61 -94 165 -148.5t235 -54.5q180 0 287.5 103.5t107.5 290.5v176
q-61 -100 -166.5 -158.5t-239.5 -58.5q-207 0 -342 134t-135 334t135.5 333t343.5 133q135 0 241 -59.5t165 -162.5v78q0 68 34 106t89 38t88 -29l4 -6l-20 -51l-7 -2q-27 18 -51 18zM641 1151h-76l-4 6l80 289l6 8h47l6 -8l-53 -289z" />
    <glyph glyph-name="Hbar" unicode="&#x126;" horiz-adv-x="1472" 
d="M1186 709v239h-899v-239h899zM1374 1016v-68h-108v-948h-80v637h-899v-637h-80v948h-107v68h107v315h80v-315h899v315h80v-315h108z" />
    <glyph glyph-name="hbar" unicode="&#x127;" horiz-adv-x="1202" 
d="M954 125v508q0 156 -94 250t-253 94t-261 -101t-102 -255v-621h-78v1141h-92v63h92v39q0 92 -62 92q-25 0 -51 -18l-8 2l-18 51l2 6q37 29 91 29t89 -38t35 -105v-58h321v-63h-321v-293q55 92 153 146t224 55q184 0 298 -114t113 -298v-500q0 -92 60 -92q27 0 47 16l8 -2
l18 -53q-21 -31 -82 -31t-95 40t-34 110z" />
    <glyph glyph-name="Itilde" unicode="&#x128;" horiz-adv-x="698" 
d="M625 1260h-236v-1188h236v-72h-551v72h235v1188h-235v71h551v-71zM193 1628q53 0 153 -38t164 -38t94 76h8l31 -57v-6q-49 -84 -139 -84q-58 0 -160 38t-151 37q-72 0 -103 -75h-6l-31 55v6q44 86 140 86z" />
    <glyph glyph-name="itilde" unicode="&#x129;" horiz-adv-x="423" 
d="M284 -25q-54 0 -88 40t-34 110v899h78v-887q0 -92 59 -92q27 0 47 16l8 -2l19 -53l-2 -6q-33 -25 -87 -25zM29 1309q59 0 170 -36t181 -36t101 72h6l33 -56v-6q-49 -82 -147 -82q-63 0 -176 36t-168 36q-78 0 -111 -72h-6l-33 56v6q50 82 150 82z" />
    <glyph glyph-name="Imacron" unicode="&#x12a;" horiz-adv-x="698" 
d="M625 1260h-236v-1188h236v-72h-551v72h235v1188h-235v71h551v-71zM96 1561h506v-64h-506v64z" />
    <glyph glyph-name="imacron" unicode="&#x12b;" horiz-adv-x="423" 
d="M284 -25q-54 0 -88 40t-34 110v899h78v-887q0 -92 59 -92q27 0 47 16l8 -2l19 -53l-2 -6q-33 -25 -87 -25zM-76 1255h553v-65h-553v65z" />
    <glyph glyph-name="Iogonek" unicode="&#x12e;" horiz-adv-x="698" 
d="M538 -397q-78 0 -130 43t-52 119t65 135t128 100h-475v72h235v1188h-235v71h551v-71h-236v-1188h236v-72q-8 -6 -39 -30t-65 -50t-46 -43q-11 -16 -31 -42t-20 -71q0 -46 33 -73t89 -28t103 46h8l29 -41v-8q-70 -57 -148 -57z" />
    <glyph glyph-name="iogonek" unicode="&#x12f;" horiz-adv-x="423" 
d="M284 -397q-78 0 -130 43q-51 43 -52 121q0 102 160 210q-100 18 -100 148v899h78v-887q0 -92 59 -92q27 0 47 16l8 -2l19 -53l-2 -6q-8 -6 -39 -30t-65 -50t-46 -43q-11 -16 -31 -42t-20 -71q0 -46 33 -73t89 -28t103 46h8l29 -41v-8q-70 -57 -148 -57zM201 1145
q-35 1 -60 25t-25 58t26 58q24 24 59 25q35 0 59 -25q24 -24 25 -58q-1 -34 -25 -58t-59 -25z" />
    <glyph glyph-name="Idotaccent" unicode="&#x130;" horiz-adv-x="698" 
d="M625 1260h-236v-1188h236v-72h-551v72h235v1188h-235v71h551v-71zM349 1448q-35 0 -59 26t-24 58t25 56t59 24t58 -24t24 -56t-24 -58t-59 -26z" />
    <glyph glyph-name="dotlessi" unicode="&#x131;" horiz-adv-x="423" 
d="M284 -25q-54 0 -88 40t-34 110v899h78v-887q0 -92 59 -92q27 0 47 16l8 -2l19 -53l-2 -6q-33 -25 -87 -25z" />
    <glyph glyph-name="IJ" unicode="&#x132;" horiz-adv-x="1716" 
d="M985 1331h541v-975q0 -174 -109 -277t-272 -104q-250 0 -377 199v6l57 45h6q113 -174 312 -174q133 0 217 84t84 225v897h-459v74zM625 1260h-236v-1188h236v-72h-551v72h235v1188h-235v71h551v-71z" />
    <glyph glyph-name="ij" unicode="&#x133;" horiz-adv-x="858" 
d="M692 1024v-995q0 -131 -46 -205t-138 -131h-6l-31 55v6q74 46 109 106t34 165v931h-143v68h221zM284 -25q-54 0 -88 40t-34 110v899h78v-887q0 -92 59 -92q27 0 47 16l8 -2l19 -53l-2 -6q-33 -25 -87 -25zM614 1145q-36 1 -60 25t-24 58t25 58t59 25q34 0 60 -25
q24 -24 24 -58t-24 -59q-25 -24 -60 -24zM201 1311q35 -1 59 -25t25 -58q0 -34 -25 -59q-26 -25 -60 -25t-59 26q-25 24 -25 58t26 58q24 24 59 25z" />
    <glyph glyph-name="Kcommaaccent" unicode="&#x136;" horiz-adv-x="1187" 
d="M612 -102h76l4 -7l-80 -288l-6 -9h-47l-6 9l53 288zM1108 -25q-96 0 -219 144l-445 520l-147 -156v-483h-82v1188q0 92 -61 92q-33 0 -52 -18l-8 2l-22 55l4 8q37 29 94 29t92 -39t35 -109v-614l702 737h97l4 -6l-600 -627l467 -546q88 -100 145 -101q35 0 59 19l9 -2
l22 -58l-4 -8q-39 -27 -90 -27z" />
    <glyph glyph-name="kcommaaccent" unicode="&#x137;" horiz-adv-x="1107" 
d="M518 -102h76l4 -7l-80 -288l-6 -9h-47l-6 9l53 288zM244 590v-117h368q131 0 211 70.5t80 183.5t-81 182.5t-214 69.5q-172 0 -268 -107.5t-96 -281.5zM244 408v-408h-78v1243q0 92 -62 92q-25 0 -51 -18l-8 2l-18 51l2 6q33 29 90 29t91 -38t34 -105v-416
q109 203 370 203q168 0 268.5 -88.5t100.5 -228.5t-96 -229t-250 -95l231 -281q66 -82 117 -82q27 0 49 16l8 -2l21 -53q-21 -31 -78 -31t-97 30t-89 89l-258 314h-297z" />
    <glyph glyph-name="kgreenlandic" unicode="&#x138;" horiz-adv-x="1011" 
d="M246 0h-78v1024h78v-580l571 580h88l2 -6l-438 -445l369 -446q66 -82 116 -82q27 0 50 16l8 -2l20 -53q-21 -31 -78 -31t-97 30t-89 89l-350 424l-172 -172v-346z" />
    <glyph glyph-name="Lacute" unicode="&#x139;" horiz-adv-x="1001" 
d="M958 74v-74h-751v1331h80v-1257h671zM537 1729h8l39 -62v-6l-371 -211h-6l-29 41v6z" />
    <glyph glyph-name="lacute" unicode="&#x13a;" horiz-adv-x="438" 
d="M170 123v1120q0 92 -61 92q-29 0 -52 -18l-8 2l-18 51l2 6q33 29 89 29t90 -37t34 -106v-1125q0 -92 61 -92q29 0 51 18l9 -2l20 -51q-23 -35 -86 -35t-97 39t-34 109zM393 1726h8l39 -61v-6l-370 -211h-7l-28 41v6z" />
    <glyph glyph-name="Lcommaaccent" unicode="&#x13b;" horiz-adv-x="1001" 
d="M537 -109l6 7h75l5 -7l-80 -288l-6 -9h-48l-6 9zM958 74v-74h-751v1331h80v-1257h671z" />
    <glyph glyph-name="lcommaaccent" unicode="&#x13c;" horiz-adv-x="438" 
d="M238 -119l6 6h75l5 -6l-80 -289l-6 -8h-48l-6 8zM170 123v1120q0 92 -61 92q-29 0 -52 -18l-8 2l-18 51l2 6q33 29 89 29t90 -37t34 -106v-1125q0 -92 61 -92q29 0 51 18l9 -2l20 -51q-23 -35 -86 -35t-97 39t-34 109z" />
    <glyph glyph-name="Lcaron" unicode="&#x13d;" horiz-adv-x="1001" 
d="M958 74v-74h-751v1331h80v-1257h671zM596 1430l8 6h76l4 -6l-92 -338l-8 -7h-45l-4 7z" />
    <glyph glyph-name="lcaron" unicode="&#x13e;" horiz-adv-x="452" 
d="M170 123v1120q0 92 -61 92q-29 0 -52 -18l-8 2l-18 51l2 6q33 29 89 29t90 -37t34 -106v-1125q0 -92 61 -92q29 0 51 18l9 -2l20 -51q-23 -35 -86 -35t-97 39t-34 109zM420 1432l8 6h76l4 -6l-94 -338l-6 -7h-46l-4 7z" />
    <glyph glyph-name="Ldot" unicode="&#x13f;" horiz-adv-x="1015" 
d="M642 614q-38 0 -64.5 27t-26.5 65t26.5 65.5t64.5 27.5t64.5 -28t26.5 -65.5t-26.5 -64.5t-64.5 -27zM958 74v-74h-751v1331h80v-1257h671z" />
    <glyph glyph-name="ldot" unicode="&#x140;" horiz-adv-x="456" 
d="M403.5 645q-36.5 0 -64.5 26.5t-28 64.5t28 64.5t64.5 26.5t64.5 -26.5t28 -64.5t-28 -64.5t-64.5 -26.5zM170 123v1120q0 92 -61 92q-29 0 -52 -18l-8 2l-18 51l2 6q33 29 89 29t90 -37t34 -106v-1125q0 -92 61 -92q29 0 51 18l9 -2l20 -51q-23 -35 -86 -35t-97 39
t-34 109z" />
    <glyph glyph-name="Lslash" unicode="&#x141;" horiz-adv-x="1036" 
d="M322 74h669v-74h-751v516l-207 -102l-8 6v61l215 107v743h82v-704l350 172l8 -4v-64l-358 -176v-481z" />
    <glyph glyph-name="lslash" unicode="&#x142;" horiz-adv-x="577" 
d="M256 123v489l-203 -104h-10v61l213 109v565q0 92 -61 92q-29 0 -52 -18l-8 2l-18 51l2 6q33 29 89 29t90 -37t34 -106v-545l207 106h8v-61l-215 -111v-514q0 -92 61 -92q29 0 51 18l9 -2l20 -51q-23 -35 -86 -35t-97 39t-34 109z" />
    <glyph glyph-name="Nacute" unicode="&#x143;" horiz-adv-x="1499" 
d="M1212 1331h80v-1331h-55l-950 1178v-1178h-80v1331h55l950 -1177v1177zM586 1450h-6l-29 41v6l358 232h9l38 -62v-6z" />
    <glyph glyph-name="nacute" unicode="&#x144;" horiz-adv-x="1224" 
d="M1099 -25q-54 0 -88 40t-34 110v508q0 156 -94.5 250t-253 94t-261 -101.5t-102.5 -254.5v-621h-78v887q0 92 -61 92q-25 0 -51 -18l-8 2l-19 51l2 6q37 29 91 29t87 -38t33 -106v-63q55 96 154.5 151.5t226.5 55.5q184 0 298 -113t114 -299v-500q0 -92 59 -92
q27 0 47 16l8 -2l19 -53l-2 -6q-33 -25 -87 -25zM459 1145h-6l-31 41v6l330 264h6l47 -59v-6z" />
    <glyph glyph-name="Ncommaaccent" unicode="&#x145;" horiz-adv-x="1499" 
d="M721 -102h76l4 -7l-80 -288l-6 -9h-47l-6 9l53 288zM1212 1331h80v-1331h-55l-950 1178v-1178h-80v1331h55l950 -1177v1177z" />
    <glyph glyph-name="ncommaaccent" unicode="&#x146;" horiz-adv-x="1224" 
d="M586 -102h76l4 -7l-80 -288l-6 -9h-48l-6 9l54 288zM1099 -25q-54 0 -88 40t-34 110v508q0 156 -94.5 250t-253 94t-261 -101.5t-102.5 -254.5v-621h-78v887q0 92 -61 92q-25 0 -51 -18l-8 2l-19 51l2 6q37 29 91 29t87 -38t33 -106v-63q55 96 154.5 151.5t226.5 55.5
q184 0 298 -113t114 -299v-500q0 -92 59 -92q27 0 47 16l8 -2l19 -53l-2 -6q-33 -25 -87 -25z" />
    <glyph glyph-name="Ncaron" unicode="&#x147;" horiz-adv-x="1499" 
d="M1212 1331h80v-1331h-55l-950 1178v-1178h-80v1331h55l950 -1177v1177zM758 1450h-10l-293 184v6l30 46h7l262 -150l260 150h6l31 -46v-6z" />
    <glyph glyph-name="ncaron" unicode="&#x148;" horiz-adv-x="1224" 
d="M1099 -25q-54 0 -88 40t-34 110v508q0 156 -94.5 250t-253 94t-261 -101.5t-102.5 -254.5v-621h-78v887q0 92 -61 92q-25 0 -51 -18l-8 2l-19 51l2 6q37 29 91 29t87 -38t33 -106v-63q55 96 154.5 151.5t226.5 55.5q184 0 298 -113t114 -299v-500q0 -92 59 -92
q27 0 47 16l8 -2l19 -53l-2 -6q-33 -25 -87 -25zM623 1145h-19l-278 186v6l34 43h7l247 -147l246 147h8l35 -43v-6z" />
    <glyph glyph-name="napostrophe" unicode="&#x149;" horiz-adv-x="1224" 
d="M1099 -25q-54 0 -88 40t-34 110v508q0 156 -94.5 250t-253 94t-261 -101.5t-102.5 -254.5v-621h-78v887q0 92 -61 92q-25 0 -51 -18l-8 2l-19 51l2 6q37 29 91 29t87 -38t33 -106v-63q55 96 154.5 151.5t226.5 55.5q184 0 298 -113t114 -299v-500q0 -92 59 -92
q27 0 47 16l8 -2l19 -53l-2 -6q-33 -25 -87 -25zM94 1450l4 -6l-92 -299l-6 -6h-45l-4 6l61 299l6 6h76z" />
    <glyph glyph-name="Eng" unicode="&#x14a;" horiz-adv-x="1499" 
d="M698 -186q80 -136 280 -136q96 0 166 68t70 199v84l-927 1149v-1178h-80v1331h55l950 -1177v1177h80v-1397q0 -162 -94 -246t-237 -85q-99 0 -189 42t-135 117v7l55 45h6z" />
    <glyph glyph-name="eng" unicode="&#x14b;" horiz-adv-x="1204" 
d="M643 1049q184 0 298 -113t114 -299v-582q0 -145 -49 -228t-152 -134h-8l-31 55l2 8q84 44 121 108t39 185v584q0 156 -94 250t-253 94t-261 -101t-103 -255v-621h-78v887q0 92 -61 92q-25 0 -51 -18l-8 2l-19 51l2 6q37 29 91 29t87 -38t33 -106v-63q54 96 154 152
t227 55z" />
    <glyph glyph-name="Omacron" unicode="&#x14c;" horiz-adv-x="1607" 
d="M805 53q266 0 442 175q176 176 176 438t-176 437t-442 175q-265 0 -443 -175t-178 -437t177 -438q178 -175 444 -175zM804 -25q-302 0 -502 199t-200 492q0 294 200 492t502 198t503 -199t201 -491t-202 -492q-200 -199 -502 -199zM524 1561h561v-64h-561v64z" />
    <glyph glyph-name="omacron" unicode="&#x14d;" horiz-adv-x="1271" 
d="M636 47q200 0 331 133t131 332t-131 332t-331 133t-331 -133t-131 -332t131 -332t331 -133zM636.5 -25q-233.5 0 -388 155t-154.5 382t154.5 382t388 155t388.5 -155t155 -382t-155 -382t-388.5 -155zM360 1255h553v-65h-553v65z" />
    <glyph glyph-name="Ohungarumlaut" unicode="&#x150;" horiz-adv-x="1607" 
d="M805 53q266 0 442 175q176 176 176 438t-176 437t-442 175q-265 0 -443 -175t-178 -437t177 -438q178 -175 444 -175zM804 -25q-302 0 -502 199t-200 492q0 294 200 492t502 198t503 -199t201 -491t-202 -492q-200 -199 -502 -199zM1008 1782l8 6h82l4 -6l-178 -330
l-9 -6h-49l-4 6zM782 1782l9 6h81l5 -6l-179 -330l-8 -6h-49l-4 6z" />
    <glyph glyph-name="ohungarumlaut" unicode="&#x151;" horiz-adv-x="1271" 
d="M636 47q200 0 331 133t131 332t-131 332t-331 133t-331 -133t-131 -332t131 -332t331 -133zM636.5 -25q-233.5 0 -388 155t-154.5 382t154.5 382t388 155t388.5 -155t155 -382t-155 -382t-388.5 -155zM848 1479l8 6h80l6 -6l-184 -328l-6 -6h-50l-4 6zM616 1479l9 6h82
l4 -6l-183 -328l-8 -6h-49l-4 6z" />
    <glyph glyph-name="OE" unicode="&#x152;" horiz-adv-x="2338" 
d="M805 53q266 0 442 175t176 437.5t-176 437.5t-442 175t-443.5 -175t-177.5 -437.5t177.5 -437.5t443.5 -175zM1505 74h746v-74h-828v330q-90 -164 -252.5 -259.5t-365.5 -95.5q-303 0 -503 199t-200 491.5t200 491.5t503 199q203 0 365.5 -95.5t252.5 -259.5v330h828v-74
h-746v-548h588v-72h-586l-2 -27v-536z" />
    <glyph glyph-name="oe" unicode="&#x153;" horiz-adv-x="2199" 
d="M1615 977q-185 0 -306 -118t-131 -306h856q-10 190 -122 307t-297 117zM636 47q200 0 331 133t131 332t-131 332t-331 133t-331 -133t-131 -332t131 -332t331 -133zM1180 485q0 -6 -2 -8q12 -195 139 -312.5t313 -117.5q121 0 229.5 52.5t170.5 138.5h6l51 -41v-9
q-72 -98 -195 -155.5t-276.5 -57.5t-286.5 85t-192 237q-61 -145 -194.5 -233.5t-305.5 -88.5q-233 0 -388 155t-155 382t154.5 382t388.5 155q170 0 303 -87.5t197 -232.5q57 145 182 232.5t295 87.5q227 0 363.5 -150.5t136.5 -378.5q0 -25 -3 -35h-931z" />
    <glyph glyph-name="Racute" unicode="&#x154;" horiz-adv-x="1236" 
d="M287 662h391q154 0 243 80.5t89 219t-89.5 217t-242.5 78.5h-391v-595zM1098 -25q-49 0 -87 18.5t-60.5 37t-52.5 69t-39 72t-25.5 60t-19.5 46t-7 15.5q-129 297 -209 297h-311v-590h-80v1331h455q205 0 317.5 -96t112.5 -266t-97.5 -266.5t-275.5 -110.5
q70 -43 174 -291q54 -124 84 -169q52 -81 125 -81q39 0 63 19l9 -4l20 -56l-4 -8q-43 -27 -92 -27zM416 1450h-6l-29 41v6l358 232h9l38 -62v-6z" />
    <glyph glyph-name="racute" unicode="&#x155;" horiz-adv-x="700" 
d="M557 977q-121 0 -206 -99.5t-85 -265.5v-612h-78v887q0 92 -61 92q-25 0 -51 -18l-8 2l-19 51l2 6q33 29 89 29t89 -38t33 -106v-57q45 96 126 148.5t165 52.5t139 -27l2 -8l-26 -58l-9 -2q-43 23 -102 23zM201 1145h-6l-31 41v6l330 264h6l47 -59v-6z" />
    <glyph glyph-name="Rcommaaccent" unicode="&#x156;" horiz-adv-x="1236" 
d="M586 -102h76l4 -7l-80 -288l-6 -9h-48l-6 9l54 288zM287 662h391q154 0 243 80.5t89 219t-89.5 217t-242.5 78.5h-391v-595zM1098 -25q-49 0 -87 18.5t-60.5 37t-52.5 69t-39 72t-25.5 60t-19.5 46t-7 15.5q-129 297 -209 297h-311v-590h-80v1331h455q205 0 317.5 -96
t112.5 -266t-97.5 -266.5t-275.5 -110.5q70 -43 174 -291q54 -124 84 -169q52 -81 125 -81q39 0 63 19l9 -4l20 -56l-4 -8q-43 -27 -92 -27z" />
    <glyph glyph-name="rcommaaccent" unicode="&#x157;" horiz-adv-x="700" 
d="M188 -102h76l4 -7l-80 -288l-6 -9h-47l-6 9l53 288zM557 977q-121 0 -206 -99.5t-85 -265.5v-612h-78v887q0 92 -61 92q-25 0 -51 -18l-8 2l-19 51l2 6q33 29 89 29t89 -38t33 -106v-57q45 96 126 148.5t165 52.5t139 -27l2 -8l-26 -58l-9 -2q-43 23 -102 23z" />
    <glyph glyph-name="Rcaron" unicode="&#x158;" horiz-adv-x="1236" 
d="M287 662h391q154 0 243 80.5t89 219t-89.5 217t-242.5 78.5h-391v-595zM1098 -25q-49 0 -87 18.5t-60.5 37t-52.5 69t-39 72t-25.5 60t-19.5 46t-7 15.5q-129 297 -209 297h-311v-590h-80v1331h455q205 0 317.5 -96t112.5 -266t-97.5 -266.5t-275.5 -110.5
q70 -43 174 -291q54 -124 84 -169q52 -81 125 -81q39 0 63 19l9 -4l20 -56l-4 -8q-43 -27 -92 -27zM588 1450h-10l-293 184v6l30 46h7l262 -150l260 150h6l31 -46v-6z" />
    <glyph glyph-name="rcaron" unicode="&#x159;" horiz-adv-x="700" 
d="M557 977q-121 0 -206 -99.5t-85 -265.5v-612h-78v887q0 92 -61 92q-25 0 -51 -18l-8 2l-19 51l2 6q33 29 89 29t89 -38t33 -106v-57q45 96 126 148.5t165 52.5t139 -27l2 -8l-26 -58l-9 -2q-43 23 -102 23zM365 1145h-19l-278 186v6l34 43h7l247 -147l246 147h8l35 -43
v-6z" />
    <glyph glyph-name="Sacute" unicode="&#x15a;" horiz-adv-x="1064" 
d="M537 53q156 0 251 78t95 197q0 63 -21.5 98t-36 53.5t-44 39t-48 32.5t-59.5 31.5t-60.5 27.5t-70.5 30t-70 30q-156 68 -242 144.5t-86 213.5t111 232.5t287 95.5q229 0 383 -180v-7l-52 -47h-6q-135 156 -325 156q-137 0 -225.5 -71.5t-88.5 -174t71 -163t214 -124.5
q242 -97 318 -158q76 -62 93 -96q42 -83 42 -159q0 -158 -118 -257.5t-304 -99.5q-141 0 -268 59t-199 161v6l51 49h6q147 -197 402 -197zM700 1729h9l39 -62v-6l-371 -211h-6l-29 41v6z" />
    <glyph glyph-name="sacute" unicode="&#x15b;" horiz-adv-x="868" 
d="M412 1049q227 0 336 -160v-8l-52 -37h-6q-96 133 -258 133q-100 0 -164.5 -52.5t-64.5 -129t50 -118.5t107 -66.5t106.5 -44t68 -28t61.5 -28.5q44 -20 62 -36q74 -60 90 -91q34 -62 34 -129q0 -127 -97 -203t-247 -76q-246 0 -368 189v6l49 39h8q100 -162 305 -162
q121 0 197 56.5t76 137.5t-31 113.5t-48.5 49t-58.5 36t-60.5 28.5t-71.5 30.5t-70 29.5q-117 49 -179.5 104.5t-62.5 163t86.5 180.5t202.5 73zM573 1456h7l47 -59v-6l-346 -246h-7l-30 41v6z" />
    <glyph glyph-name="Scedilla" unicode="&#x15e;" horiz-adv-x="1064" 
d="M967 332q0 -154 -113 -252t-291 -105l-26 -65l2 -2q37 10 92 10t99 -41t44 -111.5t-57.5 -117.5t-170 -47t-194.5 75v7l41 45h6q59 -64 139 -64q158 -1 158 105q0 39 -30.5 63.5t-79.5 24.5t-121 -27l-37 20l55 127q-125 12 -232.5 68.5t-172.5 149.5v6l51 49h6
q147 -197 402 -197q156 0 251 78t95 197q0 63 -21.5 98t-36 53.5t-44 39t-48 32.5t-59.5 31.5t-60.5 27.5t-70.5 30t-70 30q-156 68 -242 144.5t-86 213.5t111 232.5t287 95.5q229 0 383 -180v-7l-52 -47h-6q-135 156 -325 156q-137 0 -225.5 -71.5t-88.5 -174t71 -163
t214 -124.5q242 -97 318 -158q76 -62 93 -96q42 -83 42 -159z" />
    <glyph glyph-name="scedilla" unicode="&#x15f;" horiz-adv-x="868" 
d="M782 254q0 -123 -91 -198.5t-234 -80.5l-27 -65l2 -2q37 10 92.5 10t99.5 -41t44 -111.5t-57.5 -117.5t-170 -47t-194.5 75v7l41 45h6q59 -64 139 -64q158 -1 158 105q0 39 -31 63.5t-80 24.5t-121 -27l-36 20l55 130q-203 23 -307 184v6l49 39h8q100 -162 305 -162
q121 0 197 56.5t76 137.5t-31 113.5t-48.5 49t-58.5 36t-61 28.5q-19 8 -71 30q-53 22 -89 38q-90 40 -145 84q-78 61 -78 172t87 184q86 73 202 73q227 0 336 -160v-8l-52 -37h-6q-96 133 -258 133q-100 0 -164.5 -52.5t-64.5 -129t50 -118.5t107 -66.5t106.5 -44t68 -28
t61.5 -28.5q44 -20 62 -36q74 -60 90 -91q34 -62 34 -129z" />
    <glyph glyph-name="Scaron" unicode="&#x160;" horiz-adv-x="1064" 
d="M967 332q0 -158 -118 -257.5t-304 -99.5q-141 0 -268 58.5t-199 161.5v6l51 49h6q147 -197 402 -197q156 0 251 78t95 197q0 63 -21.5 98t-36 53.5t-44 39t-48 32.5t-59.5 31.5t-60.5 27.5t-70.5 30t-70 30q-156 68 -242 144.5t-86 213.5t111 232.5t287 95.5
q229 0 383 -180v-7l-52 -47h-6q-135 156 -325 156q-137 0 -225.5 -71.5t-88.5 -174t71 -163.5t214 -124q242 -97 318 -158q76 -62 93 -96q42 -83 42 -159zM549 1450h-10l-293 184v6l30 46h7l262 -150l260 150h6l31 -46v-6z" />
    <glyph glyph-name="scaron" unicode="&#x161;" horiz-adv-x="868" 
d="M782 254q0 -127 -97 -203t-247 -76q-246 0 -368 189v6l49 39h8q100 -162 305 -162q121 0 197 56.5t76 137.5t-31 113.5t-48.5 49t-58.5 36t-61 28.5q-19 8 -71 30q-53 22 -89 38q-90 40 -145 84q-78 61 -78 172t87 184q86 73 202 73q227 0 336 -160v-8l-52 -37h-6
q-96 133 -258 133q-100 0 -164.5 -52.5t-64.5 -129t50 -118.5t107 -66.5t106.5 -44t68 -28t61.5 -28.5q44 -20 62 -36q74 -60 90 -91q34 -62 34 -129zM444 1145h-18l-279 186v6l35 43h6l248 -147l246 147h8l35 -43v-6z" />
    <glyph glyph-name="uni0162" unicode="&#x162;" horiz-adv-x="1044" 
d="M618.5 -82q55.5 0 99.5 -41t44 -111.5t-57.5 -117.5t-170 -47t-194.5 75v7l41 45h6q59 -64 139 -64q158 -1 158 105q0 39 -30.5 63.5t-80 24.5t-120.5 -27l-37 20l65 150h-2v1257h-450v74h987v-74h-455v-1257l-37 -90l2 -2q37 10 92.5 10z" />
    <glyph glyph-name="uni0163" unicode="&#x163;" horiz-adv-x="669" 
d="M520.5 -82q55.5 0 99.5 -41t44 -111.5t-57.5 -117.5t-170 -47t-194.5 75v7l41 45h6q59 -64 139 -64q158 -1 158 105q0 39 -31 63.5t-80 24.5t-121 -27l-37 20l66 150q-166 76 -166 330v626h-184v68h184v317l70 15l8 -4v-328h336v-68h-336v-626q0 -139 55.5 -211
t157.5 -72q66 0 104 31l9 -4l26 -54l-4 -6q-51 -39 -139 -39q-16 0 -49 5l-29 -70l2 -2q37 10 92.5 10z" />
    <glyph glyph-name="Tcaron" unicode="&#x164;" horiz-adv-x="1044" 
d="M29 1331h987v-74h-455v-1257h-82v1257h-450v74zM524 1450h-10l-293 184v6l31 46h6l262 -150l260 150h6l31 -46v-6z" />
    <glyph glyph-name="tcaron" unicode="&#x165;" horiz-adv-x="669" 
d="M504 -25q-131 0 -209 92.5t-78 262.5v626h-184v68h184v317l70 15l8 -4v-328h336v-68h-336v-626q0 -139 55.5 -211t157.5 -72q66 0 104 31l9 -4l26 -54l-4 -6q-51 -39 -139 -39zM457 1116h-45l-4 6l61 338l6 6h76l4 -6l-92 -338z" />
    <glyph glyph-name="Tbar" unicode="&#x166;" horiz-adv-x="1044" 
d="M1016 1257h-455v-557h236v-65h-236v-635h-82v635h-219v65h219v557h-450v74h987v-74z" />
    <glyph glyph-name="tbar" unicode="&#x167;" horiz-adv-x="669" 
d="M504 -25q-131 0 -209 92.5t-78 262.5v186h-182v66h182v374h-184v68h184v317l70 15l8 -4v-328h336v-68h-336v-374h276v-66h-276v-186q0 -139 55.5 -211t157.5 -72q66 0 104 31l9 -4l26 -54l-4 -6q-51 -39 -139 -39z" />
    <glyph glyph-name="Utilde" unicode="&#x168;" horiz-adv-x="1429" 
d="M723 -25q-240 -1 -381 147t-141 398v668q0 92 -64 92q-31 0 -51 -18l-8 2l-21 55l2 8q37 29 95 29t93 -39q34 -39 34 -109v-684q1 -217 119 -345t322 -128t324 129t119 344v807h80v-811q0 -250 -141 -398t-381 -147zM528 1628q64 0 186 -38t198 -38t112 76h8l37 -57v-6
q-57 -84 -166 -84q-67 0 -191 38t-184 37q-86 0 -122 -75h-7l-39 55v6q55 86 168 86z" />
    <glyph glyph-name="utilde" unicode="&#x169;" horiz-adv-x="1204" 
d="M117 1049q63 0 97 -37t34 -107v-522q0 -154 92 -245t242 -91q150 1 254 103t104 253v621h76v-887q0 -92 61 -92q29 0 51 18l9 -2l18 -51l-2 -6q-33 -29 -88 -29t-89 39t-34 109v63q-53 -96 -150 -153t-217 -58q-185 0 -295 110t-110 294v508q0 92 -59 92q-27 0 -54 -18
l-6 2l-20 51q23 35 86 35zM418 1309q59 0 170 -36q110 -36 180 -36t102 72h7l32 -56v-6q-49 -82 -147 -82q-63 0 -176 36t-168 36q-78 0 -111 -72h-6l-33 56v6q49 82 150 82z" />
    <glyph glyph-name="Umacron" unicode="&#x16a;" horiz-adv-x="1429" 
d="M723 -25q-240 -1 -381 147t-141 398v668q0 92 -64 92q-31 0 -51 -18l-8 2l-21 55l2 8q37 29 95 29t93 -39q34 -39 34 -109v-684q1 -217 119 -345t322 -128t324 129t119 344v807h80v-811q0 -250 -141 -398t-381 -147zM434 1561h561v-64h-561v64z" />
    <glyph glyph-name="umacron" unicode="&#x16b;" horiz-adv-x="1204" 
d="M117 1049q63 0 97 -37t34 -107v-522q0 -154 92 -245t242 -91q150 1 254 103t104 253v621h76v-887q0 -92 61 -92q29 0 51 18l9 -2l18 -51l-2 -6q-33 -29 -88 -29t-89 39t-34 109v63q-53 -96 -150 -153t-217 -58q-185 0 -295 110t-110 294v508q0 92 -59 92q-27 0 -54 -18
l-6 2l-20 51q23 35 86 35zM866 1255v-65h-553v65h553z" />
    <glyph glyph-name="Uring" unicode="&#x16e;" horiz-adv-x="1429" 
d="M723 -25q-240 -1 -381 147t-141 398v668q0 92 -64 92q-31 0 -51 -18l-8 2l-21 55l2 8q37 29 95 29t93 -39q34 -39 34 -109v-684q1 -217 119 -345t322 -128t324 129t119 344v807h80v-811q0 -250 -141 -398t-381 -147zM715 1499q49 0 81 35t31 80q0 45 -31 79
q-32 33 -81 33t-81 -34t-32 -78q0 -45 32 -80t81 -35zM715 1442q-74 0 -125 50t-51 122t51 121t125 49t125 -49t51 -121t-51 -122t-125 -50z" />
    <glyph glyph-name="uring" unicode="&#x16f;" horiz-adv-x="1204" 
d="M117 1049q63 0 97 -37t34 -107v-522q0 -154 92 -245t242 -91q150 1 254 103t104 253v621h76v-887q0 -92 61 -92q29 0 51 18l9 -2l18 -51l-2 -6q-33 -29 -88 -29t-89 39t-34 109v63q-53 -96 -150 -153t-217 -58q-185 0 -295 110t-110 294v508q0 92 -59 92q-27 0 -54 -18
l-6 2l-20 51q23 35 86 35zM589 1413q-50 0 -80 -33q-30 -34 -30 -78t30 -77t80 -33t80 33t29 78q0 45 -30 77t-79 33zM590 1130q-76 0 -126 50t-50 123q0 71 50 121t126 50t126 -50t50 -122t-50 -122t-126 -50z" />
    <glyph glyph-name="Uhungarumlaut" unicode="&#x170;" horiz-adv-x="1429" 
d="M723 -25q-240 -1 -381 147t-141 398v668q0 92 -64 92q-31 0 -51 -18l-8 2l-21 55l2 8q37 29 95 29t93 -39q34 -39 34 -109v-684q1 -217 119 -345t322 -128t324 129t119 344v807h80v-811q0 -250 -141 -398t-381 -147zM918 1782l8 6h82l4 -6l-178 -330l-9 -6h-49l-4 6z
M692 1782l8 6h82l4 -6l-178 -330l-8 -6h-49l-4 6z" />
    <glyph glyph-name="uhungarumlaut" unicode="&#x171;" horiz-adv-x="1204" 
d="M117 1049q63 0 97 -37t34 -107v-522q0 -154 92 -245t242 -91q150 1 254 103t104 253v621h76v-887q0 -92 61 -92q29 0 51 18l9 -2l18 -51l-2 -6q-33 -29 -88 -29t-89 39t-34 109v63q-53 -96 -150 -153t-217 -58q-185 0 -295 110t-110 294v508q0 92 -59 92q-27 0 -54 -18
l-6 2l-20 51q23 35 86 35zM655 1145l-4 6l150 328l8 6h80l6 -6l-184 -328l-6 -6h-50zM473 1145h-49l-4 6l149 328l9 6h81l5 -6l-183 -328z" />
    <glyph glyph-name="Uogonek" unicode="&#x172;" horiz-adv-x="1429" 
d="M1165 1331h80v-811q1 -174 -71 -302t-201 -189q-48 -36 -70 -54t-47 -38t-55 -59q-29 -39 -29 -86q0 -46 33 -73t89 -27t103 46h9l28 -41v-8q-70 -57 -148 -57t-130 42q-51 43 -51 128t131 184q-61 -10 -113 -11q-240 -1 -381 147t-141 398v668q0 92 -64 92
q-31 0 -51 -18l-8 2l-21 55l2 8q37 29 95 29t93 -39q34 -39 34 -109v-684q1 -217 119 -345t322 -128t324 129t119 344v807z" />
    <glyph glyph-name="uogonek" unicode="&#x173;" horiz-adv-x="1204" 
d="M117 1049q63 0 97 -37t34 -107v-522q0 -154 92 -245t242 -91q150 1 254 103t104 253v621h76v-887q0 -92 61 -92q29 0 51 18l9 -2l18 -51l-2 -6l-4 -4q-4 -2 -6 -4q-129 -96 -160 -139t-31 -89t33 -73t89 -28t104 46h8l28 -41v-8q-70 -57 -148 -57t-130 43q-51 43 -51 121
q0 100 155 206q-98 18 -98 146v63q-53 -96 -150 -153t-217 -58q-185 0 -295 110t-110 294v508q0 92 -59 92q-27 0 -54 -18l-6 2l-20 51q23 35 86 35z" />
    <glyph glyph-name="Wcircumflex" unicode="&#x174;" horiz-adv-x="2035" 
d="M1942 1280q-30 0 -48 -23q-20 -23 -39 -77l-409 -1180h-57l-371 1196l-371 -1196h-57l-410 1180q-20 56 -38 78t-48 22q-31 0 -57 -18l-8 2l-23 55l4 8q35 29 92 29q104 0 154 -146l365 -1075l358 1196h78l360 -1194l363 1073q49 145 155 146q55 0 90 -29l5 -8l-23 -55
l-8 -2q-27 18 -57 18zM756 1442h-6l-33 45v6l293 184h12l293 -184v-6l-31 -45h-6l-260 149z" />
    <glyph glyph-name="wcircumflex" unicode="&#x175;" horiz-adv-x="1816" 
d="M124 1049q62 0 97 -37t35 -107v-536q0 -154 85 -238t228 -84t230 91q86 91 86 243v643h78v-643q-1 -150 81 -242t220 -92q170 0 267 123q97 124 101 312t-40 335t-117 225v9l57 41h8q82 -88 130 -248t44 -342q-6 -242 -126 -384t-322 -143q-119 1 -208 59t-132 156
q-48 -102 -140 -158t-217 -57q-175 -1 -283 105t-108 287v520q0 92 -61 92q-25 0 -51 -18l-9 2l-18 51q23 35 85 35zM676 1145h-6l-35 45v6l278 184h19l280 -184v-6l-34 -45h-9l-245 147z" />
    <glyph glyph-name="Ycircumflex" unicode="&#x176;" horiz-adv-x="1370" 
d="M1270 1280q-57 0 -119 -90l-424 -631v-559h-82v557l-426 633q-61 90 -119 90q-33 0 -55 -18l-8 2l-23 55l4 8q35 29 89 29q53 0 95 -33t93 -106l393 -586l391 586q51 75 91 107t92 32t90 -29l4 -8l-23 -55l-8 -2q-23 18 -55 18zM424 1442h-6l-33 45v6l293 184h12
l293 -184v-6l-31 -45h-6l-260 149z" />
    <glyph glyph-name="ycircumflex" unicode="&#x177;" horiz-adv-x="1169" 
d="M110 1049q60 0 94 -37t34 -107v-428q0 -149 90 -233t242 -84t255 102q104 102 105 254v508h78v-870q0 -219 -129 -341t-343 -122t-366 157v9l43 47h6q129 -142 315 -142t290 104q105 104 106 290v129q-56 -93 -154 -145t-213 -52q-186 0 -294 102t-107 289v408
q0 92 -62 92q-29 0 -51 -18l-8 2l-21 51q30 35 90 35zM313 1145h-6l-35 45v6l279 184h18l281 -184v-6l-35 -45h-8l-246 147z" />
    <glyph glyph-name="Ydieresis" unicode="&#x178;" horiz-adv-x="1370" 
d="M1270 1280q-57 0 -119 -90l-424 -631v-559h-82v557l-426 633q-61 90 -119 90q-33 0 -55 -18l-8 2l-23 55l4 8q35 29 89 29q53 0 95 -33t93 -106l393 -586l391 586q51 75 91 107t92 32t90 -29l4 -8l-23 -55l-8 -2q-23 18 -55 18zM854 1448q-36 0 -60 25t-24 59t25 60
q25 24 59 24t60 -25t26 -59t-26 -60q-26 -24 -60 -24zM516 1448q-36 0 -60 25t-24 59t25 60q25 24 59 24t61 -25q25 -25 25 -59t-26 -60q-26 -24 -60 -24z" />
    <glyph glyph-name="Zacute" unicode="&#x179;" horiz-adv-x="1155" 
d="M53 0v55l885 1205h-842v71h951v-55l-885 -1204h760q92 0 92 61q0 31 -21 51l2 9l58 22q35 -23 35 -87q-1 -128 -146 -128h-889zM727 1729h8l39 -62v-6l-371 -211h-6l-28 41v6z" />
    <glyph glyph-name="zacute" unicode="&#x17a;" horiz-adv-x="917" 
d="M100 1024h723v-59l-667 -899h565q88 0 88 61q0 27 -21 51l3 8l49 19l10 -2q27 -35 27 -86q0 -117 -146 -117h-670v59l668 899h-629v66zM612 1456h6l48 -59v-6l-347 -246h-6l-30 41v6z" />
    <glyph glyph-name="Zdotaccent" unicode="&#x17b;" horiz-adv-x="1155" 
d="M53 0v55l885 1205h-842v71h951v-55l-885 -1204h760q92 0 92 61q0 31 -21 51l2 9l58 22q35 -23 35 -87q-1 -128 -146 -128h-889zM573 1448q-33 0 -59 26t-25 58q0 32 25 56q24 24 58 24t59 -24t25 -56t-26 -58q-24 -26 -57 -26z" />
    <glyph glyph-name="zdotaccent" unicode="&#x17c;" horiz-adv-x="917" 
d="M100 1024h723v-59l-667 -899h565q88 0 88 61q0 27 -21 51l3 8l49 19l10 -2q27 -35 27 -86q0 -117 -146 -117h-670v59l668 899h-629v66zM475 1145q-35 1 -59 25t-25 58q0 34 25 58q26 24 60 25q34 0 59 -25q25 -24 25 -58t-25 -59q-25 -24 -60 -24z" />
    <glyph glyph-name="Zcaron" unicode="&#x17d;" horiz-adv-x="1155" 
d="M53 0v55l885 1205h-842v71h951v-55l-885 -1204h760q92 0 92 61q0 31 -21 51l2 9l58 22q35 -23 35 -87q-1 -128 -146 -128h-889zM575 1450h-10l-293 184v6l31 46h6l262 -150l260 150h7l30 -46v-6z" />
    <glyph glyph-name="zcaron" unicode="&#x17e;" horiz-adv-x="917" 
d="M877 117q0 -117 -146 -117h-670v59l668 899h-629v66h723v-59l-667 -899h565q88 0 88 61q0 27 -21 51l3 8l49 19l10 -2q27 -35 27 -86zM483 1145h-18l-279 186v6l35 43h6l248 -147l246 147h8l35 -43v-6z" />
    <glyph glyph-name="uni01EA" unicode="&#x1ea;" horiz-adv-x="1607" 
d="M184 666q0 -262 177 -438t443 -175q266 0 443 175q176 176 176 438t-176 437t-442 175q-265 0 -443 -175t-178 -437zM905 -196q0 -47 33 -74q34 -27 90 -28t102 46h9l28 -41v-8q-71 -57 -149 -57t-129 43t-51 127t125 180q-78 -16 -158 -17q-303 0 -503 199t-200 492
q0 294 200 492t502 198t503 -199t200 -491q-1 -211 -111 -381t-294 -250q-131 -98 -164 -141t-33 -90z" />
    <glyph glyph-name="uni01EB" unicode="&#x1eb;" horiz-adv-x="1271" 
d="M174 512q0 -199 131 -332t331 -133t331 133t131 332t-131 332t-331 133t-331 -133t-131 -332zM746 -387q-79 0 -130 43t-51 121q0 96 150 203q-49 -4 -78 -5q-233 0 -388 155t-155 382t154.5 382t388 155t388.5 -155t155 -382q0 -176 -95.5 -312.5t-253.5 -191.5
q-10 -8 -39.5 -30.5t-41.5 -31.5q-10 -10 -34 -30q-34 -30 -58.5 -63t-24.5 -79t32.5 -73t89 -28t103.5 46h8l29 -41v-8q-70 -57 -149 -57z" />
    <glyph glyph-name="AEacute" unicode="&#x1fc;" horiz-adv-x="1890" 
d="M975 403v844l-617 -844h617zM1802 1257h-745v-548h588v-72h-588v-563h745v-74h-827v330h-670l-242 -330h-90l963 1331h866v-74zM1249 1450h-6l-29 41v6l359 232h8l39 -62v-6z" />
    <glyph glyph-name="aeacute" unicode="&#x1fd;" horiz-adv-x="1964" 
d="M864 367v120q-164 76 -330.5 76t-268 -67.5t-101.5 -188.5t91 -190.5t236 -69.5t259 87.5t114 232.5zM1381 977q-185 0 -306 -118t-131 -306h856q-10 190 -122 307t-297 117zM1397 47q121 0 229.5 52.5t169.5 138.5h6l51 -41v-9q-72 -98 -194.5 -155.5t-270 -57.5
t-275.5 75t-193 210q-39 -135 -164 -210t-287 -75t-273.5 89.5t-111.5 246t124 239.5t311.5 83t344.5 -76v125q0 139 -103.5 217t-236.5 78q-203 0 -350 -158h-6l-49 43v6q160 180 405 181q139 0 253 -67t151 -198q66 123 182.5 194t269.5 71q227 0 363.5 -150.5
t136.5 -378.5q0 -25 -2 -35h-934q8 -199 136 -318.5t317 -119.5zM815 1145h-6l-31 41v6l330 264h6l47 -59v-6z" />
    <glyph glyph-name="Oslashacute" unicode="&#x1fe;" horiz-adv-x="1607" 
d="M805 53q266 0 442 175t176 438q-1 154 -67 284t-180 213l-684 -1032q143 -78 313 -78zM184 666q0 -152 64 -280t176 -210l684 1028q-137 74 -303 74q-265 0 -443 -175t-178 -437zM805 -25q-195 0 -359 91l-108 -166h-86l-4 10l131 199q-129 94 -203 239t-74 318
q0 294 200 492t503 198q188 0 346 -84l119 178h84l4 -10l-139 -209q135 -93 212 -241t76 -324q-1 -293 -201 -492t-501 -199zM637 1450h-6l-29 41v6l359 232h8l39 -62v-6z" />
    <glyph glyph-name="oslashacute" unicode="&#x1ff;" horiz-adv-x="1271" 
d="M637 47q199 0 330 133t131 346t-164 348l-537 -765q111 -62 240 -62zM174 499q0 -212 164 -347l534 763q-106 61 -235 62q-201 0 -332 -133t-131 -345zM1180 512q0 -227 -155 -382t-388 -155q-156 0 -281 74l-100 -143h-82l-4 6l125 178q-201 156 -201 422
q0 227 154.5 382t388.5 155q152 0 278 -72l117 168h82l4 -6l-141 -203q203 -156 203 -424zM481 1145h-6l-31 41v6l330 264h6l47 -59v-6z" />
    <glyph glyph-name="Scommaaccent" unicode="&#x218;" horiz-adv-x="1064" 
d="M487 -109l7 7h75l4 -7l-79 -288l-7 -9h-47l-6 9zM537 53q156 0 251 78t95 197q0 63 -21.5 98t-36 53.5t-44 39t-48 32.5t-59.5 31.5t-60.5 27.5t-70.5 30t-70 30q-156 68 -242 144.5t-86 213.5t111 232.5t287 95.5q229 0 383 -180v-7l-52 -47h-6q-135 156 -325 156
q-137 0 -225.5 -71.5t-88.5 -174t71 -163t214 -124.5q242 -97 318 -158q76 -62 93 -96q42 -83 42 -159q0 -158 -118 -257.5t-304 -99.5q-141 0 -268 59t-199 161v6l51 49h6q147 -197 402 -197z" />
    <glyph glyph-name="scommaaccent" unicode="&#x219;" horiz-adv-x="868" 
d="M381 -109l6 7h76l4 -7l-80 -288l-6 -9h-47l-6 9zM412 1049q227 0 336 -160v-8l-52 -37h-6q-96 133 -258 133q-100 0 -164.5 -52.5t-64.5 -129t50 -118.5t107 -66.5t106.5 -44t68 -28t61.5 -28.5q44 -20 62 -36q74 -60 90 -91q34 -62 34 -129q0 -127 -97 -203t-247 -76
q-246 0 -368 189v6l49 39h8q100 -162 305 -162q121 0 197 56.5t76 137.5t-31 113.5t-48.5 49t-58.5 36t-60.5 28.5t-71.5 30.5t-70 29.5q-117 49 -179.5 104.5t-62.5 163t86.5 180.5t202.5 73z" />
    <glyph glyph-name="uni021A" unicode="&#x21a;" horiz-adv-x="1044" 
d="M475 -109l6 7h76l4 -7l-80 -288l-6 -9h-47l-6 9zM561 1257v-1257h-82v1257h-450v74h987v-74h-455z" />
    <glyph glyph-name="uni021B" unicode="&#x21b;" horiz-adv-x="669" 
d="M383 -102h76l4 -7l-80 -288l-6 -9h-47l-6 9l53 288zM504 -25q-131 0 -209 92.5t-78 262.5v626h-184v68h184v317l70 15l8 -4v-328h336v-68h-336v-626q0 -139 55.5 -211t157.5 -72q66 0 104 31l9 -4l26 -54l-4 -6q-51 -39 -139 -39z" />
    <glyph glyph-name="uni0237" unicode="&#x237;" horiz-adv-x="434" 
d="M268 1024v-995q0 -131 -46 -205t-138 -131h-6l-31 55v6q74 46 109 106t34 165v931h-143v68h221z" />
    <glyph glyph-name="uni02BC" unicode="&#x2bc;" horiz-adv-x="344" 
d="M174 1442l6 6h76l4 -6l-92 -299l-6 -6h-45l-4 6z" />
    <glyph glyph-name="circumflex" unicode="&#x2c6;" horiz-adv-x="727" 
d="M379 1380l280 -184v-6l-34 -45h-9l-245 147l-248 -147h-6l-35 45v6l278 184h19z" />
    <glyph glyph-name="caron" unicode="&#x2c7;" horiz-adv-x="733" 
d="M625 1380l34 -43v-6l-280 -186h-19l-278 186v6l35 43h6l248 -147l245 147h9z" />
    <glyph glyph-name="breve" unicode="&#x2d8;" horiz-adv-x="741" 
d="M369 1145q-109 -1 -185 67t-90 177h72q12 -81 68 -131t134 -50t135 50q56 50 68 131h72q-13 -109 -89 -177t-185 -67z" />
    <glyph glyph-name="dotaccent" unicode="&#x2d9;" horiz-adv-x="233" 
d="M119 1145q-35 1 -60 25t-25 58t26 58q24 24 59 25q35 0 59 -25q24 -24 25 -58q-1 -34 -25 -58t-59 -25z" />
    <glyph glyph-name="ring" unicode="&#x2da;" horiz-adv-x="514" 
d="M257 1192q50 0 80 33t30 78t-30 77t-80 33q-50 0 -80 -33q-30 -34 -30 -78t30 -77t80 -33zM258 1130q-76 0 -126 50t-50 123q0 71 50 121t126 50t126 -50t50 -122t-50 -122t-126 -50z" />
    <glyph glyph-name="ogonek" unicode="&#x2db;" horiz-adv-x="495" 
d="M230 -387q-79 0 -130 43t-51 119t65 135t128 100h75q-131 -99 -146 -119t-35 -44t-19 -72q0 -47 33 -74t89 -28t103 46h8l29 -41v-8q-70 -57 -149 -57z" />
    <glyph glyph-name="tilde" unicode="&#x2dc;" horiz-adv-x="804" 
d="M231 1309q59 0 170 -36t181 -36t102 72h6l33 -56v-6q-49 -82 -148 -82q-63 0 -176 36t-168 36q-78 0 -110 -72h-6l-33 56v6q49 82 149 82z" />
    <glyph glyph-name="hungarumlaut" unicode="&#x2dd;" horiz-adv-x="737" 
d="M481 1479l8 6h80l6 -6l-184 -328l-6 -6h-49l-4 6zM250 1479l8 6h82l4 -6l-182 -328l-8 -6h-50l-4 6z" />
    <glyph glyph-name="uni0326" unicode="&#x326;" horiz-adv-x="0" 
d="M-223 -111l6 7h76l4 -7l-80 -288l-6 -9h-47l-6 9z" />
    <glyph glyph-name="Wgrave" unicode="&#x1e80;" horiz-adv-x="2035" 
d="M1942 1280q-30 0 -48 -23q-20 -23 -39 -77l-409 -1180h-57l-371 1196l-371 -1196h-57l-410 1180q-20 56 -38 78t-48 22q-31 0 -57 -18l-8 2l-23 55l4 8q35 29 92 29q104 0 154 -146l365 -1075l358 1196h78l360 -1194l363 1073q49 145 155 146q55 0 90 -29l5 -8l-23 -55
l-8 -2q-27 18 -57 18zM862 1729l359 -232v-6l-29 -41h-6l-371 211v6l39 62h8z" />
    <glyph glyph-name="wgrave" unicode="&#x1e81;" horiz-adv-x="1816" 
d="M124 1049q62 0 97 -37t35 -107v-536q0 -154 85 -238t228 -84t230 91q86 91 86 243v643h78v-643q-1 -150 81 -242t220 -92q170 0 267 123q97 124 101 312t-40 335t-117 225v9l57 41h8q82 -88 130 -248t44 -342q-6 -242 -126 -384t-322 -143q-119 1 -208 59t-132 156
q-48 -102 -140 -158t-217 -57q-175 -1 -283 105t-108 287v520q0 92 -61 92q-25 0 -51 -18l-9 2l-18 51q23 35 85 35zM1083 1145h-6l-346 246v6l49 59h6l328 -264v-6z" />
    <glyph glyph-name="Wacute" unicode="&#x1e82;" horiz-adv-x="2035" 
d="M1942 1280q-30 0 -48 -23q-20 -23 -39 -77l-409 -1180h-57l-371 1196l-371 -1196h-57l-410 1180q-20 56 -38 78t-48 22q-31 0 -57 -18l-8 2l-23 55l4 8q35 29 92 29q104 0 154 -146l365 -1075l358 1196h78l360 -1194l363 1073q49 145 155 146q55 0 90 -29l5 -8l-23 -55
l-8 -2q-27 18 -57 18zM1174 1729h8l39 -62v-6l-371 -211h-6l-29 41v6z" />
    <glyph glyph-name="wacute" unicode="&#x1e83;" horiz-adv-x="1816" 
d="M124 1049q62 0 97 -37t35 -107v-536q0 -154 85 -238t228 -84t230 91q86 91 86 243v643h78v-643q-1 -150 81 -242t220 -92q170 0 267 123q97 124 101 312t-40 335t-117 225v9l57 41h8q82 -88 130 -248t44 -342q-6 -242 -126 -384t-322 -143q-119 1 -208 59t-132 156
q-48 -102 -140 -158t-217 -57q-175 -1 -283 105t-108 287v520q0 92 -61 92q-25 0 -51 -18l-9 2l-18 51q23 35 85 35zM768 1145h-6l-31 41v6l330 264h6l47 -59v-6z" />
    <glyph glyph-name="Wdieresis" unicode="&#x1e84;" horiz-adv-x="2035" 
d="M1942 1280q-30 0 -48 -23q-20 -23 -39 -77l-409 -1180h-57l-371 1196l-371 -1196h-57l-410 1180q-20 56 -38 78t-48 22q-31 0 -57 -18l-8 2l-23 55l4 8q35 29 92 29q104 0 154 -146l365 -1075l358 1196h78l360 -1194l363 1073q49 145 155 146q55 0 90 -29l5 -8l-23 -55
l-8 -2q-27 18 -57 18zM1186 1448q-35 0 -60 25q-24 25 -24 59t24 60q24 24 60 24q34 0 60 -25t26 -59t-26 -60q-26 -24 -60 -24zM848 1448q-35 0 -60 25q-24 25 -24 59t24 60q24 24 60 24q34 0 60 -25t26 -59t-26 -60q-26 -24 -60 -24z" />
    <glyph glyph-name="wdieresis" unicode="&#x1e85;" horiz-adv-x="1816" 
d="M124 1049q62 0 97 -37t35 -107v-536q0 -154 85 -238t228 -84t230 91q86 91 86 243v643h78v-643q-1 -150 81 -242t220 -92q170 0 267 123q97 124 101 312t-40 335t-117 225v9l57 41h8q82 -88 130 -248t44 -342q-6 -242 -126 -384t-322 -143q-119 1 -208 59t-132 156
q-48 -102 -140 -158t-217 -57q-175 -1 -283 105t-108 287v520q0 92 -61 92q-25 0 -51 -18l-9 2l-18 51q23 35 85 35zM1073 1145q-35 1 -59 25t-25 59q0 35 25 59q24 24 58 23q34 0 58 -25q24 -24 25 -58q0 -34 -23 -59q-24 -24 -59 -24zM776 1145q-36 1 -60 25t-24 59t25 59
t59 23q34 0 59 -25q23 -24 23 -58t-23 -59q-24 -24 -59 -24z" />
    <glyph glyph-name="uni1E9E" unicode="&#x1e9e;" horiz-adv-x="1247" 
d="M745 786q172 0 288 -116t116 -291q0 -176 -119 -290t-293 -114t-307 97l-2 6l39 55l6 2q111 -84 255 -84t240 91q97 91 97 239t-98 239t-246 91h-86v75l317 369q-109 123 -295 123t-287 -125t-102 -344v-809h-82v813q0 252 125 397t348 146q260 0 398 -207l-314 -363h2z
" />
    <glyph glyph-name="Ygrave" unicode="&#x1ef2;" horiz-adv-x="1370" 
d="M1270 1280q-57 0 -119 -90l-424 -631v-559h-82v557l-426 633q-61 90 -119 90q-33 0 -55 -18l-8 2l-23 55l4 8q35 29 89 29q53 0 95 -33t93 -106l393 -586l391 586q51 75 91 107t92 32t90 -29l4 -8l-23 -55l-8 -2q-23 18 -55 18zM860 1450h-6l-371 211v6l39 62h8l359 -232
v-6z" />
    <glyph glyph-name="ygrave" unicode="&#x1ef3;" horiz-adv-x="1169" 
d="M110 1049q60 0 94 -37t34 -107v-428q0 -149 90 -233t242 -84t255 102q104 102 105 254v508h78v-870q0 -219 -129 -341t-343 -122t-366 157v9l43 47h6q129 -142 315 -142t290 104q105 104 106 290v129q-56 -93 -154 -145t-213 -52q-186 0 -294 102t-107 289v408
q0 92 -62 92q-29 0 -51 -18l-8 2l-21 51q30 35 90 35zM721 1145h-6l-346 246v6l49 59h6l328 -264v-6z" />
    <glyph glyph-name="uni1EF8" unicode="&#x1ef8;" horiz-adv-x="1370" 
d="M1270 1280q-57 0 -119 -90l-424 -631v-559h-82v557l-426 633q-61 90 -119 90q-33 0 -55 -18l-8 2l-23 55l4 8q35 29 89 29q53 0 95 -33t93 -106l393 -586l391 586q51 75 91 107t92 32t90 -29l4 -8l-23 -55l-8 -2q-23 18 -55 18zM500 1628q63 0 185 -38q121 -38 197 -38
t113 76h9l36 -57v-6q-57 -84 -166 -84q-68 0 -192 38t-182 37q-86 1 -123 -75h-6l-39 55v6q55 86 168 86z" />
    <glyph glyph-name="uni1EF9" unicode="&#x1ef9;" horiz-adv-x="1169" 
d="M110 1049q60 0 94 -37t34 -107v-428q0 -149 90 -233t242 -84t255 102q104 102 105 254v508h78v-870q0 -219 -129 -341t-343 -122t-366 157v9l43 47h6q129 -142 315 -142t290 104q105 104 106 290v129q-56 -93 -154 -145t-213 -52q-186 0 -294 102t-107 289v408
q0 92 -62 92q-29 0 -51 -18l-8 2l-21 51q30 35 90 35zM389 1309q59 0 170 -36t181 -36t102 72h6l33 -56v-6q-49 -82 -148 -82q-63 0 -176 36t-179 36t-99 -72h-7l-32 56v6q49 82 149 82z" />
    <glyph glyph-name="endash" unicode="&#x2013;" horiz-adv-x="1155" 
d="M143 647h867v-65h-867v65z" />
    <glyph glyph-name="emdash" unicode="&#x2014;" horiz-adv-x="1456" 
d="M143 647h1170v-65h-1170v65z" />
    <glyph glyph-name="quoteleft" unicode="&#x2018;" horiz-adv-x="405" 
d="M195 999q-35 0 -60 27t-24 61q-4 115 131 297h8l45 -32v-6q-37 -58 -57 -110t-19 -73q59 -18 60 -80q-1 -35 -25 -59t-59 -25z" />
    <glyph glyph-name="quoteright" unicode="&#x2019;" horiz-adv-x="399" 
d="M219 1393q35 0 60 -27t24 -61q4 -115 -131 -297h-8l-45 32v7q37 57 57 109t19 73q-59 18 -60 80q1 35 25 59t59 25z" />
    <glyph glyph-name="quotesinglbase" unicode="&#x201a;" horiz-adv-x="438" 
d="M217 139q35 -1 59 -27t25 -61q4 -115 -131 -297h-8l-45 33v6q37 57 57 109t19 73q-59 18 -60 80q1 35 25 59t59 25z" />
    <glyph glyph-name="quotedblleft" unicode="&#x201c;" horiz-adv-x="655" 
d="M442 999q-36 0 -60 27t-24 61q-4 115 131 297h9l45 -32v-6q-37 -58 -57 -110t-19 -73q59 -18 59 -80q0 -35 -24 -59t-60 -25zM195 999q-35 0 -60 27t-24 61q-4 115 131 297h8l45 -32v-6q-37 -58 -57 -110t-19 -73q59 -18 60 -80q-1 -35 -25 -59t-59 -25z" />
    <glyph glyph-name="quotedblright" unicode="&#x201d;" horiz-adv-x="651" 
d="M469 1397q35 0 59 -27t25 -61q4 -115 -131 -297h-8l-45 32v7q37 57 57 109t18 73q-59 18 -59 80q1 35 25 59t59 25zM221 1397q35 0 60 -27t24 -61q4 -115 -131 -297h-8l-45 32v7q37 57 57 109t19 73q-59 18 -60 80q1 35 25 59t59 25z" />
    <glyph glyph-name="quotedblbase" unicode="&#x201e;" horiz-adv-x="686" 
d="M467 139q35 -1 59 -27t25 -61q4 -115 -131 -297h-8l-45 33v6q37 57 57 109t18 73q-59 18 -59 80q1 35 25 59t59 25zM219 139q35 -1 60 -27t24 -61q4 -115 -131 -297h-8l-45 33v6q37 57 57 109t19 73q-59 18 -60 80q1 35 25 59t59 25z" />
    <glyph glyph-name="dagger" unicode="&#x2020;" horiz-adv-x="921" 
d="M823 899v-68h-323v-1150h-78v1150h-324v68h324v453h78v-453h323z" />
    <glyph glyph-name="daggerdbl" unicode="&#x2021;" horiz-adv-x="921" 
d="M823 831h-323v-630h323v-68h-323v-452h-78v452h-324v68h324v630h-324v68h324v453h78v-453h323v-68z" />
    <glyph glyph-name="bullet" unicode="&#x2022;" horiz-adv-x="688" 
d="M344 418q-68 0 -115 47t-47 115t47 114t115 47q68 0 115 -47q47 -46 47 -114t-47 -115t-115 -47z" />
    <glyph glyph-name="ellipsis" unicode="&#x2026;" horiz-adv-x="1005" 
d="M797 -16q-35 0 -60 24t-25 59t26 59q24 24 59 24t59 -25t25 -59q-1 -34 -25 -58t-59 -24zM504 -16q-35 0 -60 24q-24 24 -24 59t24 59t60 24t60 -25t24 -59t-24 -58t-60 -24zM211 -16q-35 0 -59 24t-25 59q0 35 25 59q26 24 60 24t58 -25t25 -59q-1 -34 -25 -58t-59 -24z
" />
    <glyph glyph-name="perthousand" unicode="&#x2030;" horiz-adv-x="2179" 
d="M1147 43q94 0 150 87t57 228q0 142 -56 230t-151 88t-151 -88t-56 -230t56 -228q56 -87 151 -87zM1829 35q96 0 153 88t58 235q0 146 -58 236t-153 90q-97 0 -153 -89t-56 -237t56 -235q56 -88 153 -88zM1829 -25q-123 1 -201 107t-78 277t78 277t201 107q123 0 201 -106
q78 -107 78 -279t-78 -278t-201 -105zM1147 -25q-123 -1 -201 105t-78 278t78 278t201 107q123 0 200 -106q77 -107 77 -279t-78 -278q-76 -106 -199 -105zM367 655q94 0 151 87q57 88 57 230t-57 229t-151 87q-95 0 -151 -87t-56 -229t56 -230q57 -87 151 -87zM203 8
l1024 1323h71l5 -10l-1022 -1321h-76zM367 588q-123 0 -200 106t-77 278t77 278t200 106t201 -106t77 -278q1 -172 -77 -278t-201 -106z" />
    <glyph glyph-name="guilsinglleft" unicode="&#x2039;" horiz-adv-x="579" 
d="M440 909v-4l-252 -291l252 -290v-5l-45 -47h-6l-295 334v17l295 333h6z" />
    <glyph glyph-name="guilsinglright" unicode="&#x203a;" horiz-adv-x="579" 
d="M190 956l295 -333v-17l-295 -334h-6l-45 47v5l252 290l-252 291v4l45 47h6z" />
    <glyph glyph-name="fraction" unicode="&#x2044;" horiz-adv-x="1099" 
d="M6 8l1024 1323h72l4 -10l-1022 -1321h-76z" />
    <glyph glyph-name="Euro" unicode="&#x20ac;" horiz-adv-x="1546" 
d="M903 -25q-238 -1 -420 139t-243 359h-166l-4 8l28 60h125q-10 68 -10 120t6 99h-131l-4 8l29 59h118q53 231 239 379t431 150q164 0 304 -68t235 -186v-6l-58 -41h-6q-82 107 -206 167t-267 60q-211 0 -374 -127t-216 -328h699l2 -6l-27 -61h-688q-6 -47 -6 -102t12 -117
h692l2 -6l-26 -62h-651q61 -188 220 -306t363 -118q285 0 471 227l6 3l58 -46l2 -6q-94 -119 -234 -185t-305 -67z" />
    <glyph glyph-name="trademark" unicode="&#x2122;" horiz-adv-x="1421" 
d="M68 1274v55h493v-55h-213v-608h-69v608h-211zM1278 666h-68l-53 514l-207 -514h-55l-205 514l-55 -514h-66l72 665h55l228 -571l227 571h55z" />
    <glyph glyph-name="minus" unicode="&#x2212;" horiz-adv-x="1239" 
d="M150 698h942v-65h-942v65z" />
    <glyph glyph-name="approxequal" unicode="&#x2248;" horiz-adv-x="1161" 
d="M844 444q-98 0 -262 36q-162 36 -248 36t-133 -72h-6l-41 54v6q66 84 190 84q82 0 243 -36t247 -36t133 72h6l41 -53v-7q-72 -84 -170 -84zM844 743q-98 0 -262 36q-162 36 -248 36t-133 -72h-6l-41 54v6q66 84 190 84q82 0 243 -36t247 -36t133 72h6l41 -53v-7
q-72 -84 -170 -84z" />
    <glyph glyph-name="notequal" unicode="&#x2260;" horiz-adv-x="1241" 
d="M1081 799h-350l-158 -264h508v-66h-546l-195 -326h-72l-4 11l189 315h-314v66h353l157 264h-510v65h551l160 269h72l4 -11l-154 -258h309v-65z" />
    <glyph glyph-name="uniF8FF" unicode="&#xf8ff;" horiz-adv-x="2758" 
d="M1305 381q-47 0 -48 -62q0 -17 9 -55q79 12 77 74q0 43 -38 43zM1884 350v8q2 4 2 9q0 39 -37 39q-45 0 -45 -56h80zM2200 518q14 0 14 12t-14 13h-17v-25h17zM2167 557h33q31 0 30 -25q0 -18 -16 -24l16 -27h-18l-14 23h-15v-23h-16v76zM2195 457q25 0 43 18t19 43
q-1 25 -19 43q-18 19 -43 19t-43 -18t-18 -44q0 -25 18 -43t43 -18zM2120 518q0 32 22 54t54 22q30 0 53 -23t23 -53t-24 -54q-22 -22 -53 -22t-53 22t-22 54zM1591 346q0 260 252 260q105 0 167 -61t63 -172q0 -19 -11 -74h-245q6 -50 88 -50q81 1 106 32v-150
q-4 -4 -44 -18t-103 -15q-137 0 -205 67t-68 181zM1040 12q0 295 11 420l12 158h160l6 -60q8 -43 8 -94q29 170 160 170q75 0 117 -60t42 -182t-68 -194t-192 -72q0 -14 2 -22l2 -64h-260zM717 590q-4 -78 -4 -216q0 -54 32 -55q31 0 31 54l-2 60v50q-2 31 -2 107h217l6 -82
q6 -78 6 -220q1 -142 -73 -209t-234 -67q-88 0 -133 14t-57 29v170q45 -37 136 -38t136 36q20 16 23 37q-8 -6 -23 -16q-33 -14 -94 -15q-190 0 -190 152v16h-93l4 -125q25 0 58 13v-152q-33 -33 -137 -35q-150 0 -150 131l4 168h-55v170l248 82l8 -59h338zM2389 817
q48 1 48 59t-48 58t-48 -58t48 -59zM664 817q49 1 49 59t-49 58q-43 0 -43 -58t43 -59zM2142 901q0 254 246 254q140 0 194 -68q54 -67 54 -183t-62 -182t-185 -65q-123 -1 -185 65t-62 179zM1599 670q0 320 23 477h156l6 -51q6 -92 6 -101l4 21q17 50 39 80q45 59 125 59
t114 -48t35 -159l4 -278h-229l4 192q0 51 -33 51t-32 -51l10 -192h-232zM586 657q-182 0 -183 230q-1 133 63 201t208 67q238 0 237 -229v-256h-155l-19 118q-25 -131 -151 -131zM938 965v170l238 73l8 -61h352q8 -105 12 -157t4 -320h-233q0 248 4 295h-117l4 -129
q0 -4 20 -4q20 -1 38 8v-148q-2 -8 -30 -21t-97 -14q-160 0 -160 131l4 177h-47zM127 670q0 303 10 446l13 182h194q2 -46 11 -210t10 -418h-238zM1436 1174q-53 0 -87 36t-34 87q0 52 34 87t87 35t87 -35q33 -35 33 -87t-33 -88q-34 -35 -87 -35z" />
    <glyph glyph-name="H.ss01" horiz-adv-x="1490" 
d="M170 1356q57 0 92 -39t35 -109v-499h897v622h82v-1188q0 -92 61 -92q33 0 52 19l8 -2l22 -56l-4 -8q-37 -29 -94 -29t-92 39t-35 109v514h-897v-637h-82v1188q0 92 -61 92q-33 0 -52 -18l-8 2l-22 55l4 8q37 29 94 29z" />
    <glyph glyph-name="Hbar.ss01" horiz-adv-x="1490" 
d="M297 709h897v237h-897v-237zM1321 -25q-57 0 -92 39t-35 109v514h-897v-637h-82v946h-113v68h113v174q0 92 -61 92q-33 0 -52 -18l-8 2l-22 55l4 8q37 29 94 29t92 -39t35 -109v-194h897v317h82v-317h115v-68h-115v-803q0 -92 61 -92q33 0 52 19l8 -2l22 -56l-4 -8
q-37 -29 -94 -29z" />
    <glyph glyph-name="N.ss01" horiz-adv-x="1517" 
d="M1231 1331h80v-1331h-56l-952 1180v-1057q0 -70 -33.5 -109t-91.5 -39t-94 29l-2 8l20 56l9 2q18 -18 51 -19q61 0 61 92v1188h58l950 -1179v1179z" />
    <glyph glyph-name="Nacute.ss01" horiz-adv-x="1517" 
d="M1231 1331h80v-1331h-56l-952 1180v-1057q0 -70 -33.5 -109t-91.5 -39t-94 29l-2 8l20 56l9 2q18 -18 51 -19q61 0 61 92v1188h58l950 -1179v1179zM606 1450h-6l-29 41v6l359 232h8l39 -62v-6z" />
    <glyph glyph-name="Ncaron.ss01" horiz-adv-x="1517" 
d="M1231 1331h80v-1331h-56l-952 1180v-1057q0 -70 -33.5 -109t-91.5 -39t-94 29l-2 8l20 56l9 2q18 -18 51 -19q61 0 61 92v1188h58l950 -1179v1179zM778 1450h-10l-293 184v6l31 46h6l262 -150l260 150h6l31 -46v-6z" />
    <glyph glyph-name="Ncommaaccent.ss01" horiz-adv-x="1517" 
d="M727 -102h76l4 -7l-80 -288l-6 -9h-47l-6 9l53 288zM1231 1331h80v-1331h-56l-952 1180v-1057q0 -70 -33.5 -109t-91.5 -39t-94 29l-2 8l20 56l9 2q18 -18 51 -19q61 0 61 92v1188h58l950 -1179v1179z" />
    <glyph glyph-name="Eng.ss01" horiz-adv-x="1517" 
d="M715 -186q85 -136 281 -136q96 0 166 68t69 199v86l-928 1149v-1057q0 -70 -34 -109t-91 -39t-94 29l-2 8l20 56l9 2q18 -18 51 -19q61 0 61 92v1188h58l950 -1179v1179h80v-1397q1 -160 -95 -246t-239 -85q-98 0 -187 42t-135 117v7l54 45h6z" />
    <glyph glyph-name="Ntilde.ss01" horiz-adv-x="1517" 
d="M1231 1331h80v-1331h-56l-952 1180v-1057q0 -70 -33.5 -109t-91 -39t-94.5 29l-2 8l20 56l9 2q18 -18 51 -19q61 0 61 92v1188h58l950 -1179v1179zM588 1628q63 0 185 -38t197 -38t113 76h9l36 -57v-6q-57 -84 -165 -84q-68 0 -192 37.5t-183 37.5q-84 1 -123 -75h-6
l-39 55v6q55 86 168 86z" />
    <glyph glyph-name="Q.ss01" horiz-adv-x="1607" 
d="M184 666q0 -262 177 -438t443 -175q266 0 443 175q176 176 176 438t-176 437t-442 175q-265 0 -443 -175t-178 -437zM1294 -307q-98 0 -219 102q-170 151 -223 171q-25 9 -47 9q-303 0 -503 199t-200 492q0 294 200 492t502 198t503 -199t200 -491q0 -254 -154 -442
q-155 -187 -401 -234q68 -45 172 -134q104 -90 178 -90q72 0 115 35l8 -4l29 -51l-2 -8q-60 -45 -158 -45z" />
    <glyph glyph-name="W.ss01" horiz-adv-x="1994" 
d="M94 1356q102 0 166 -148l463 -1079l227 553l-270 643l4 6h78l235 -567l234 567h78l4 -6l-271 -643l230 -553l463 1079q61 147 166 148q51 0 90 -29l4 -8l-23 -55l-8 -2q-24 18 -54 18t-52 -22t-46 -78l-507 -1180h-60l-248 600l-249 -600h-58l-508 1180q-24 56 -46 78
t-52 22t-53 -18l-8 2l-23 55l4 8q37 29 90 29z" />
    <glyph glyph-name="Wacute.ss01" horiz-adv-x="1994" 
d="M94 1356q102 0 166 -148l463 -1079l227 553l-270 643l4 6h78l235 -567l234 567h78l4 -6l-271 -643l230 -553l463 1079q61 147 166 148q51 0 90 -29l4 -8l-23 -55l-8 -2q-24 18 -54 18t-52 -22t-46 -78l-507 -1180h-60l-248 600l-249 -600h-58l-508 1180q-24 56 -46 78
t-52 22t-53 -18l-8 2l-23 55l4 8q37 29 90 29zM1153 1729h8l39 -62v-6l-371 -211h-6l-28 41v6z" />
    <glyph glyph-name="Wcircumflex.ss01" horiz-adv-x="1994" 
d="M1910 1280q-30 0 -52 -22t-46 -78l-507 -1180h-60l-248 600l-249 -600h-58l-508 1180q-24 56 -46 78t-52 22t-53 -18l-8 2l-23 55l4 8q37 29 90 29q102 0 166 -148l463 -1079l227 553l-270 643l4 6h78l235 -567l234 567h78l4 -6l-271 -643l230 -553l463 1079
q61 147 166 148q51 0 90 -29l4 -8l-23 -55l-8 -2q-24 18 -54 18zM735 1442h-6l-33 45v6l293 184h12l293 -184v-6l-30 -45h-7l-260 149z" />
    <glyph glyph-name="Wdieresis.ss01" horiz-adv-x="1994" 
d="M94 1356q102 0 166 -148l463 -1079l227 553l-270 643l4 6h78l235 -567l234 567h78l4 -6l-271 -643l230 -553l463 1079q61 147 166 148q51 0 90 -29l4 -8l-23 -55l-8 -2q-24 18 -54 18t-52 -22t-46 -78l-507 -1180h-60l-248 600l-249 -600h-58l-508 1180q-24 56 -46 78
t-52 22t-53 -18l-8 2l-23 55l4 8q37 29 90 29zM1165 1448q-35 0 -59 25t-25 59q0 34 25 60q26 24 60 24t60 -25t26 -59t-26 -60q-26 -24 -61 -24zM827 1448q-35 0 -59 25t-25 59q0 34 25 60q26 24 60 24t60 -25t26 -59t-26 -60q-26 -24 -61 -24z" />
    <glyph glyph-name="Wgrave.ss01" horiz-adv-x="1994" 
d="M94 1356q102 0 166 -148l463 -1079l227 553l-270 643l4 6h78l235 -567l234 567h78l4 -6l-271 -643l230 -553l463 1079q61 147 166 148q51 0 90 -29l4 -8l-23 -55l-8 -2q-24 18 -54 18t-52 -22t-46 -78l-507 -1180h-60l-248 600l-249 -600h-58l-508 1180q-24 56 -46 78
t-52 22t-53 -18l-8 2l-23 55l4 8q37 29 90 29zM842 1729l358 -232v-6l-29 -41h-6l-370 211v6l39 62h8z" />
    <glyph glyph-name="N.ss02" horiz-adv-x="1517" 
d="M1362 1280q-59 0 -59 -92v-1188h-56l-952 1180v-1055q0 -70 -34 -110t-89 -40t-90 27l-4 6l20 58l8 4q18 -18 48 -19q61 0 61 92v1188h55l953 -1179v1054q0 70 33.5 110t89 40t90.5 -27l4 -6l-21 -57l-8 -4q-18 18 -49 18z" />
    <glyph glyph-name="Nacute.ss02" horiz-adv-x="1517" 
d="M1362 1280q-59 0 -59 -92v-1188h-56l-952 1180v-1055q0 -70 -34 -110t-89 -40t-90 27l-4 6l20 58l8 4q18 -18 48 -19q61 0 61 92v1188h55l953 -1179v1054q0 70 33.5 110t89 40t90.5 -27l4 -6l-21 -57l-8 -4q-18 18 -49 18zM623 1450h-7l-28 41v6l358 232h8l39 -62v-6z
" />
    <glyph glyph-name="Ncaron.ss02" horiz-adv-x="1517" 
d="M1362 1280q-59 0 -59 -92v-1188h-56l-952 1180v-1055q0 -70 -34 -110t-89 -40t-90 27l-4 6l20 58l8 4q18 -18 48 -19q61 0 61 92v1188h55l953 -1179v1054q0 70 33.5 110t89 40t90.5 -27l4 -6l-21 -57l-8 -4q-18 18 -49 18zM795 1450h-11l-292 184v6l30 46h6l263 -150
l260 150h6l30 -46v-6z" />
    <glyph glyph-name="Ncommaaccent.ss02" horiz-adv-x="1517" 
d="M721 -102h76l4 -7l-80 -288l-6 -9h-47l-6 9l53 288zM1362 1280q-59 0 -59 -92v-1188h-56l-952 1180v-1055q0 -70 -34 -110t-89 -40t-90 27l-4 6l20 58l8 4q18 -18 48 -19q61 0 61 92v1188h55l953 -1179v1054q0 70 33.5 110t89 40t90.5 -27l4 -6l-21 -57l-8 -4
q-18 18 -49 18z" />
    <glyph glyph-name="Eng.ss02" horiz-adv-x="1517" 
d="M707 -186q81 -136 281 -136q96 0 165.5 68t69.5 199v86l-928 1149v-1055q0 -70 -34 -110t-89 -40t-90 27l-4 6l20 58l8 4q18 -18 48 -19q61 0 61 92v1188h55l953 -1179v1054q0 70 33.5 110t89 40t90.5 -27l4 -6l-21 -57l-8 -4q-18 18 -49 18q-59 0 -59 -92v-1254
q0 -162 -95.5 -246.5t-238.5 -84.5q-100 0 -189.5 41t-134.5 118v7l55 45h7z" />
    <glyph glyph-name="Ntilde.ss02" horiz-adv-x="1517" 
d="M1362 1280q-59 0 -59 -92v-1188h-56l-952 1180v-1055q0 -70 -34 -110t-89 -40t-90 27l-4 6l20 58l8 4q18 -18 48 -19q61 0 61 92v1188h55l953 -1179v1054q0 70 33.5 110t89 40t90.5 -27l4 -6l-21 -57l-8 -4q-18 18 -49 18zM604 1628q63 0 185 -38t197 -38t114 76h8
l37 -57v-6q-57 -84 -166 -84q-68 0 -191.5 37.5t-183.5 37.5q-84 1 -123 -75h-6l-39 55v6q55 86 168 86z" />
    <glyph glyph-name="i.loclTRK" horiz-adv-x="415" 
d="M168 0v1024h78v-1024h-78zM207 1145q-35 1 -60 25t-25 58t26 58q24 24 59 25q35 0 59 -25q24 -24 25 -58q-1 -34 -25 -58t-59 -25z" />
    <glyph glyph-name="e.ss01" horiz-adv-x="1157" 
d="M625 977q-172 0 -299 -109.5t-148 -289.5q82 -47 204 -82t262.5 -35t239.5 66.5t99 188.5t-93 191.5t-265 69.5zM94 510.5q0 234.5 153.5 386.5t370 152t332 -90.5t115.5 -244t-122 -238.5t-342 -85t-427 113q4 -203 130 -330t334 -127t351 158h8l50 -43v-6
q-162 -180 -407 -180.5t-395.5 150t-150.5 385z" />
    <glyph glyph-name="eacute.ss01" horiz-adv-x="1157" 
d="M625 977q-172 0 -299 -109.5t-148 -289.5q82 -47 204 -82t262.5 -35t239.5 66.5t99 188.5t-93 191.5t-265 69.5zM94 510.5q0 234.5 153.5 386.5t370 152t332 -90.5t115.5 -244t-122 -238.5t-342 -85t-427 113q4 -203 130 -330t334 -127t351 158h8l50 -43v-6
q-162 -180 -407 -180.5t-395.5 150t-150.5 385zM479 1145h-6l-31 41v6l330 264h6l47 -59v-6z" />
    <glyph glyph-name="ecaron.ss01" horiz-adv-x="1157" 
d="M625 977q-172 0 -299 -109.5t-148 -289.5q82 -47 204 -82t262.5 -35t239.5 66.5t99 188.5t-93 191.5t-265 69.5zM94 510.5q0 234.5 153.5 386.5t370 152t332 -90.5t115.5 -244t-122 -238.5t-342 -85t-427 113q4 -203 130 -330t334 -127t351 158h8l50 -43v-6
q-162 -180 -407 -180.5t-395.5 150t-150.5 385zM643 1145h-18l-279 186v6l35 43h6l248 -147l246 147h8l35 -43v-6z" />
    <glyph glyph-name="ecircumflex.ss01" horiz-adv-x="1157" 
d="M625 977q-172 0 -299 -109.5t-148 -289.5q82 -47 204 -82t262.5 -35t239.5 66.5t99 188.5t-93 191.5t-265 69.5zM94 510.5q0 234.5 153.5 386.5t370 152t332 -90.5t115.5 -244t-122 -238.5t-342 -85t-427 113q4 -203 130 -330t334 -127t351 158h8l50 -43v-6
q-162 -180 -407 -180.5t-395.5 150t-150.5 385zM387 1145h-6l-35 45v6l279 184h18l281 -184v-6l-35 -45h-8l-246 147z" />
    <glyph glyph-name="edieresis.ss01" horiz-adv-x="1157" 
d="M625 977q-172 0 -299 -109.5t-148 -289.5q82 -47 204 -82t262.5 -35t239.5 66.5t99 188.5t-93 191.5t-265 69.5zM94 510.5q0 234.5 153.5 386.5t370 152t332 -90.5t115.5 -244t-122 -238.5t-342 -85t-427 113q4 -203 130 -330t334 -127t351 158h8l50 -43v-6
q-162 -180 -407 -180.5t-395.5 150t-150.5 385zM784.5 1145q-34.5 0 -59.5 24.5t-25 59.5t25 58.5t59.5 23.5t58 -24.5t23.5 -58.5t-23.5 -58.5t-58 -24.5zM487.5 1145q-34.5 0 -59.5 24.5t-25 59.5t25 58.5t58.5 23.5t58 -24.5t24.5 -58.5t-23.5 -58.5t-58 -24.5z" />
    <glyph glyph-name="edotaccent.ss01" horiz-adv-x="1157" 
d="M625 977q-172 0 -299 -109.5t-148 -289.5q82 -47 204 -82t262.5 -35t239.5 66.5t99 188.5t-93 191.5t-265 69.5zM94 510.5q0 234.5 153.5 386.5t370 152t332 -90.5t115.5 -244t-122 -238.5t-342 -85t-427 113q4 -203 130 -330t334 -127t351 158h8l50 -43v-6
q-162 -180 -407 -180.5t-395.5 150t-150.5 385zM635 1145q-35 0 -59.5 24.5t-24.5 58.5t24.5 58.5t59.5 24.5t59.5 -24.5t24.5 -58.5t-24.5 -58.5t-59.5 -24.5z" />
    <glyph glyph-name="egrave.ss01" horiz-adv-x="1157" 
d="M625 977q-172 0 -299 -109.5t-148 -289.5q82 -47 204 -82t262.5 -35t239.5 66.5t99 188.5t-93 191.5t-265 69.5zM94 510.5q0 234.5 153.5 386.5t370 152t332 -90.5t115.5 -244t-122 -238.5t-342 -85t-427 113q4 -203 130 -330t334 -127t351 158h8l50 -43v-6
q-162 -180 -407 -180.5t-395.5 150t-150.5 385zM795 1145h-7l-346 246v6l50 59h6l327 -264v-6z" />
    <glyph glyph-name="emacron.ss01" horiz-adv-x="1157" 
d="M625 977q-172 0 -299 -109.5t-148 -289.5q82 -47 204 -82t262.5 -35t239.5 66.5t99 188.5t-93 191.5t-265 69.5zM94 510.5q0 234.5 153.5 386.5t370 152t332 -90.5t115.5 -244t-122 -238.5t-342 -85t-427 113q4 -203 130 -330t334 -127t351 158h8l50 -43v-6
q-162 -180 -407 -180.5t-395.5 150t-150.5 385zM911 1255v-65h-553v65h553z" />
    <glyph glyph-name="eogonek.ss01" horiz-adv-x="1157" 
d="M625 977q-172 0 -299 -109.5t-148 -289.5q82 -47 204 -82t262.5 -35t239.5 66.5t99 188.5t-93 191.5t-265 69.5zM606 -196q0 85 127 180q-43 -8 -102 -9q-236 0 -386.5 150.5t-150.5 385t153.5 386.5t370 152t332 -90.5t115.5 -244t-122 -238.5t-342 -85t-427 113
q4 -203 130 -330t334 -127t351 158h8l50 -43v-6q-82 -88 -181 -131q-130 -98 -161 -143t-31 -89.5t32.5 -71t89 -27.5t103.5 46h8l29 -41v-8q-70 -57 -149 -57.5t-130 42.5t-51 128z" />
    <glyph glyph-name="f.ss01" horiz-adv-x="622" 
d="M516 1348q-110 0 -174 -71t-63 -214v-39h327v-68h-327v-1265h-76v1265h-180v68h180v39q0 178 87 266t226 88q94 0 178 -47l2 -8l-26 -51l-8 -4q-72 41 -146 41z" />
    <glyph glyph-name="i.ss01" horiz-adv-x="458" 
d="M135 1049q63 0 97 -37t34 -107v-768q0 -92 62 -92q25 0 51 18l8 -2l19 -51l-3 -6q-33 -29 -89 -29t-91 39t-35 109v764q0 92 -59 92q-29 0 -51 -18l-8 2l-21 51q23 35 86 35zM201 1145q-35 1 -60 25t-25 58t26 58q24 24 59 25q35 0 59 -25q24 -24 25 -58q-1 -34 -25 -58
t-59 -25z" />
    <glyph glyph-name="dotlessi.ss01" horiz-adv-x="458" 
d="M135 1049q63 0 97 -37t34 -107v-768q0 -92 62 -92q25 0 51 18l8 -2l19 -51l-3 -6q-33 -29 -89 -29t-91 39t-35 109v764q0 92 -59 92q-29 0 -51 -18l-8 2l-21 51q23 35 86 35z" />
    <glyph glyph-name="iacute.ss01" horiz-adv-x="458" 
d="M135 1049q63 0 97 -37t34 -107v-768q0 -92 62 -92q25 0 51 18l8 -2l19 -51l-3 -6q-33 -29 -89 -29t-91 39t-35 109v764q0 92 -59 92q-29 0 -51 -18l-8 2l-21 51q23 35 86 35zM379 1456h6l47 -59v-6l-346 -246h-6l-31 41v6z" />
    <glyph glyph-name="icircumflex.ss01" horiz-adv-x="458" 
d="M135 1049q63 0 97 -37t34 -107v-768q0 -92 62 -92q24 0 51 18l8 -2l19 -51l-3 -6q-33 -29 -89 -29t-91 39t-35 109v764q0 92 -59 92q-29 0 -51 -18l-8 2l-21 51q23 35 86 35zM207 1380l254 -184v-6l-33 -45h-6l-221 147l-224 -147h-6l-30 45v6l249 184h17z" />
    <glyph glyph-name="idieresis.ss01" horiz-adv-x="458" 
d="M135 1049q63 0 97 -37t34 -107v-768q0 -92 62 -92q25 0 51 18l8 -2l19 -51l-3 -6q-33 -29 -89 -29t-91 39t-35 109v764q0 92 -59 92q-29 0 -51 -18l-8 2l-21 51q23 35 86 35zM350 1145q-36 1 -60 25t-24 59t25 59t59 23q34 0 59 -25q23 -24 23 -58t-23 -59
q-24 -24 -59 -24zM53 1145q-35 1 -59 25t-25 59q0 35 25 59q24 24 58 23q34 0 59 -25q25 -24 25 -58t-24 -59q-24 -24 -59 -24z" />
    <glyph glyph-name="igrave.ss01" horiz-adv-x="458" 
d="M135 1049q63 0 97 -37t34 -107v-768q0 -92 62 -92q25 0 51 18l8 -2l19 -51l-3 -6q-33 -29 -89 -29t-91 39t-35 109v764q0 92 -59 92q-29 0 -51 -18l-8 2l-21 51q23 35 86 35zM-47 1456l328 -264v-6l-31 -41h-6l-346 246v6l49 59h6z" />
    <glyph glyph-name="ij.ss01" horiz-adv-x="892" 
d="M727 1024v-995q0 -131 -46 -205t-138 -131h-6l-31 55v6q74 46 108 106t35 165v931h-143v68h221zM135 1049q63 0 97 -37t34 -107v-768q0 -92 62 -92q24 0 51 18l8 -2l19 -51l-3 -6q-33 -29 -89 -29t-91 39t-35 109v764q0 92 -59 92q-29 0 -51 -18l-8 2l-21 51q23 35 86 35
zM649 1145q-35 1 -59 25t-25 58q0 34 25 58q26 24 60 25q34 0 59 -25q25 -24 25 -58t-25 -59q-25 -24 -60 -24zM201 1145q-35 1 -60 25t-25 58t26 58q24 24 59 25q35 0 59 -25q24 -24 25 -58q-1 -34 -25 -58t-59 -25z" />
    <glyph glyph-name="imacron.ss01" horiz-adv-x="458" 
d="M135 1049q63 0 97 -37t34 -107v-768q0 -92 62 -92q25 0 51 18l8 -2l19 -51l-3 -6q-33 -29 -89 -29t-91 39t-35 109v764q0 92 -59 92q-29 0 -51 -18l-8 2l-21 51q23 35 86 35zM-49 1255h498v-65h-498v65z" />
    <glyph glyph-name="iogonek.ss01" horiz-adv-x="458" 
d="M135 1049q63 0 97 -37t34 -107v-768q0 -92 62 -92q25 0 51 18l8 -2l19 -51l-3 -6q-2 0 -9 -6q-6 -6 -38 -30t-63 -48t-62 -66t-31 -87t34 -72q32 -27 88 -28t104 46h8l29 -41v-8q-70 -57 -149 -57t-130 43t-51 121q0 100 156 206q-100 23 -101 146v764q0 92 -59 92
q-29 0 -51 -18l-8 2l-21 51q23 35 86 35zM201 1145q-35 1 -60 25t-25 58t26 58q24 24 59 25q35 0 59 -25q24 -24 25 -58q-1 -34 -25 -58t-59 -25z" />
    <glyph glyph-name="itilde.ss01" horiz-adv-x="458" 
d="M135 1049q63 0 97 -37t34 -107v-768q0 -92 62 -92q25 0 51 18l8 -2l19 -51l-3 -6q-33 -29 -89 -29t-91 39t-35 109v764q0 92 -59 92q-29 0 -51 -18l-8 2l-21 51q23 35 86 35zM47 1309q53 0 153 -36t160 -36q62 0 95 72h4l30 -56v-6q-45 -82 -133 -82q-57 0 -158 36
t-151 36q-72 0 -100 -72h-6l-29 56v6q45 82 135 82z" />
    <glyph glyph-name="k.ss01" horiz-adv-x="1009" 
d="M244 0h-78v1243q0 92 -62 92q-25 0 -51 -18l-8 2l-18 51l2 6q33 29 90 29t91 -38t34 -105v-818l569 580h90l2 -6l-440 -445l371 -446q68 -82 114 -82q29 0 51 16l9 -2l18 -53q-21 -31 -78 -31t-95 29t-91 90l-350 426l-170 -172v-348z" />
    <glyph glyph-name="kcommaaccent.ss01" horiz-adv-x="1009" 
d="M502 -102h76l4 -7l-80 -288l-6 -9h-47l-7 9l54 288zM244 0h-78v1243q0 92 -62 92q-25 0 -51 -18l-8 2l-18 51l2 6q33 29 90 29t91 -38t34 -105v-818l569 580h90l2 -6l-440 -445l371 -446q68 -82 114 -82q29 0 51 16l9 -2l18 -53q-21 -31 -78 -31t-95 29t-91 90l-350 426
l-170 -172v-348z" />
    <glyph glyph-name="v.ss01" horiz-adv-x="1157" 
d="M98 1049q98 0 154 -138l326 -788l327 788q29 70 61 104t85 34t90 -29l4 -6l-21 -51l-6 -2q-26 18 -56 17t-50 -27t-47 -89l-363 -862h-51l-363 862q-27 63 -47 89t-51 27t-55 -17l-8 2l-19 51l4 6q37 29 86 29z" />
    <glyph glyph-name="y.ss01" horiz-adv-x="1206" 
d="M326 -307q-70 0 -123 37l-2 8l24 53l8 2q43 -31 97 -31q100 0 166 136l63 143l-366 821q-29 66 -49 90t-50 26q-31 1 -55 -17l-8 2l-19 51l2 6q33 29 88 29t89 -34t67 -104l346 -776l344 776q31 70 63 104t87 34t88 -29l4 -6l-19 -51l-8 -2q-25 18 -55 17t-51 -26
q-20 -25 -47 -90l-441 -985q-80 -184 -243 -184z" />
    <glyph glyph-name="yacute.ss01" horiz-adv-x="1206" 
d="M326 -307q-70 0 -123 37l-2 8l24 53l8 2q43 -31 97 -31q100 0 166 136l63 143l-366 821q-29 66 -49 90t-50 26q-31 1 -55 -17l-8 2l-19 51l2 6q33 29 88 29t89 -34t67 -104l346 -776l344 776q31 70 63 104t87 34t88 -29l4 -6l-19 -51l-8 -2q-25 18 -55 17t-51 -26
q-20 -25 -47 -90l-441 -985q-80 -184 -243 -184zM442 1145h-6l-30 41v6l329 264h6l47 -59v-6z" />
    <glyph glyph-name="ycircumflex.ss01" horiz-adv-x="1206" 
d="M326 -307q-70 0 -123 37l-2 8l24 53l8 2q43 -31 97 -31q100 0 166 136l63 143l-366 821q-29 66 -49 90t-50 26q-31 1 -55 -17l-8 2l-19 51l2 6q33 29 88 29t89 -34t67 -104l346 -776l344 776q31 70 63 104t87 34t88 -29l4 -6l-19 -51l-8 -2q-25 18 -55 17t-51 -26
q-20 -25 -47 -90l-441 -985q-80 -184 -243 -184zM350 1145h-6l-35 45v6l279 184h18l281 -184v-6l-35 -45h-8l-246 147z" />
    <glyph glyph-name="ydieresis.ss01" horiz-adv-x="1206" 
d="M326 -307q-70 0 -123 37l-2 8l24 53l8 2q43 -31 97 -31q100 0 166 136l63 143l-366 821q-29 66 -49 90t-50 26q-31 1 -55 -17l-8 2l-19 51l2 6q33 29 88 29t89 -34t67 -104l346 -776l344 776q31 70 63 104t87 34t88 -29l4 -6l-19 -51l-8 -2q-25 18 -55 17t-51 -26
q-20 -25 -47 -90l-441 -985q-80 -184 -243 -184zM748 1145q-35 1 -60 25t-24 59q0 35 24 59t60 23q34 0 58 -25q24 -24 24 -58t-24 -58q-23 -24 -58 -25zM451 1145q-35 1 -60 25t-24 59t25 59t58 23q34 0 58 -25q24 -24 24 -58t-23 -58t-58 -25z" />
    <glyph glyph-name="ygrave.ss01" horiz-adv-x="1206" 
d="M326 -307q-70 0 -123 37l-2 8l24 53l8 2q43 -31 97 -31q100 0 166 136l63 143l-366 821q-29 66 -49 90t-50 26q-31 1 -55 -17l-8 2l-19 51l2 6q33 29 88 29t89 -34t67 -104l346 -776l344 776q31 70 63 104t87 34t88 -29l4 -6l-19 -51l-8 -2q-25 18 -55 17t-51 -26
q-20 -25 -47 -90l-441 -985q-80 -184 -243 -184zM758 1145h-6l-346 246v6l49 59h6l327 -264v-6z" />
    <glyph glyph-name="uni1EF9.ss01" horiz-adv-x="1206" 
d="M326 -307q-70 0 -123 37l-2 8l24 53l8 2q43 -31 97 -31q100 0 166 136l63 143l-366 821q-29 66 -49 90t-50 26q-31 1 -55 -17l-8 2l-19 51l2 6q33 29 88 29t89 -34t67 -104l346 -776l344 776q31 70 63 104t87 34t88 -29l4 -6l-19 -51l-8 -2q-25 18 -55 17t-51 -26
q-20 -25 -47 -90l-441 -985q-80 -184 -243 -184zM426 1309q59 0 170 -36q110 -36 180 -36t103 72h6l33 -56v-6q-49 -82 -148 -82q-63 0 -176 36t-168 36q-78 0 -111 -72h-6l-33 56v6q49 82 150 82z" />
    <glyph glyph-name="f_b" horiz-adv-x="1867" 
d="M815 512q-1 -207 123 -336t316 -129t315 133t123 331t-123 332t-315 134t-316 -129t-123 -336zM1255 1049q227 0 373 -154t146 -383t-146 -383t-373 -154q-141 0 -254 67t-180 181v-223h-78v1221q-35 127 -200 127q-115 0 -182 -74t-66 -211v-39h328v-68h-328v-1142
q0 -70 -34 -109t-88 -39t-91 29l-2 8l18 49l8 4q20 -20 52 -20q61 0 61 92v1128h-180v68h180v39q0 168 87 261q88 93 228 93t214 -61t73 -150v-405q69 115 181 181t253 67z" />
    <glyph glyph-name="f_h" horiz-adv-x="1775" 
d="M1654 -25q-54 0 -88 40t-34 110v508q0 156 -94 250t-253 94t-261 -101t-103 -255v-621h-78v1221q-35 127 -200 127q-115 0 -182 -74t-66 -211v-39h328v-68h-328v-1142q0 -70 -34 -109t-88 -39t-91 29l-2 8l18 49l8 4q20 -20 52 -20q61 0 61 92v1128h-180v68h180v39
q0 168 87 261q88 93 228 93t214 -61t73 -150v-358q55 92 153 146t224 55q184 0 298 -113t114 -299v-500q0 -92 59 -92q27 0 47 16l8 -2l19 -53l-2 -6q-33 -25 -87 -25z" />
    <glyph glyph-name="f_k" horiz-adv-x="1685" 
d="M821 590v-117h369q131 0 211 71q80 72 80 184t-81 182t-212 69q-172 1 -270 -107t-97 -282zM821 408v-408h-78v1221q-35 127 -200 127q-115 0 -182 -74t-66 -211v-39h328v-68h-328v-1142q0 -70 -34 -109t-88 -39t-91 29l-2 8l18 49l8 4q20 -20 52 -20q61 0 61 92v1128
h-180v68h180v39q0 168 87 261q88 93 228 93t214 -61t73 -150v-360q109 203 371 203q168 0 268 -88q100 -87 100 -229t-96 -230t-250 -94l232 -281q66 -82 117 -82q29 0 49 16l8 -2l20 -53q-21 -31 -78 -31t-97 30t-89 89l-258 314h-297z" />
    <glyph glyph-name="f_t" horiz-adv-x="1204" 
d="M829 1024h336v-68h-336v-626q-1 -141 55 -212t158 -71q63 0 107 31l6 -4l27 -54l-4 -6q-51 -39 -138 -39q-133 1 -211 93t-77 262v626h-457v-1142q0 -70 -34 -109t-88 -39t-91 29l-2 8l18 49l8 4q20 -20 52 -20q61 0 61 92v1128h-180v68h180v39q0 178 77 266t208 88
q78 0 141 -37l2 -6l-26 -53l-9 -2q-55 29 -106 29q-211 0 -211 -285v-39h457v317l69 15l8 -4v-328z" />
    <glyph glyph-name="ordfeminine.ss01" horiz-adv-x="937" 
d="M422 750q112 0 184 76t72 196q0 119 -72 195q-72 75 -184 75t-184 -78t-72 -192t72 -194q72 -78 184 -78zM676 795v22q-92 -129 -244 -129t-243 95t-91 237t91 238t244 96t243 -131v116h67v-526q0 -63 37 -63q16 0 33 12l4 -4l14 -45q-11 -22 -63 -23q-92 0 -92 105z" />
    <glyph glyph-name="ampersand.ss01" horiz-adv-x="1220" 
d="M1163 680v-74h-174q84 -104 84 -227q0 -174 -138 -289t-351 -115t-352 115q-138 115 -138 289q0 129 80 228t215 143q-88 42 -138 116t-50 164q0 139 110 233q111 93 279 93q231 0 381 -180v-7l-51 -47h-9q-137 160 -325 160q-129 0 -214 -72t-85 -182t82 -180t219 -70
h78v-71h-82q-176 -1 -290 -93t-114 -234t115 -236t290 -95q175 0 289 93q114 92 113 232q0 140 -104 232v74h280z" />
    <glyph glyph-name="uni0326.001" horiz-adv-x="0" 
d="M-186 1376l8 6h76l4 -6l-92 -338l-9 -6h-45l-4 6z" />
    <glyph glyph-name="acute.case" horiz-adv-x="567" 
d="M438 1425h8l39 -61v-6l-370 -211h-6l-29 41v6z" />
    <glyph glyph-name="breve.case" horiz-adv-x="741" 
d="M369 1145q-109 1 -185 67t-90 177h72q12 -81 66 -131t136 -50t137 49q54 49 66 132h72q-13 -111 -89 -177t-185 -67z" />
    <glyph glyph-name="caron.case" horiz-adv-x="731" 
d="M633 1382l31 -45v-6l-293 -184h-11l-292 184v6l30 45h6l263 -149l260 149h6z" />
    <glyph glyph-name="circumflex.case" horiz-adv-x="731" 
d="M369 1374l293 -184v-6l-31 -45h-6l-260 149l-263 -149h-6l-33 45v6l293 184h13z" />
    <glyph glyph-name="dieresis.case" horiz-adv-x="696" 
d="M516 1145q-36 1 -60 25t-24 59t25 59t59 25q34 0 61 -25q25 -26 25 -60t-25 -59q-26 -24 -61 -24zM178 1145q-36 1 -60 25t-24 59t25 59t59 25q34 0 61 -25q25 -26 25 -60t-25 -59q-26 -24 -61 -24z" />
    <glyph glyph-name="dotaccent.case" horiz-adv-x="329" 
d="M165 1309q35 0 59 -24q24 -25 24 -57t-24 -58t-59 -25q-34 -1 -59 25t-24 59q0 33 24 57t59 23z" />
    <glyph glyph-name="grave.case" horiz-adv-x="569" 
d="M129 1425l358 -231v-6l-28 -41h-6l-371 211v6l39 61h8z" />
    <glyph glyph-name="hungarumlaut.case" horiz-adv-x="716" 
d="M467 1479l8 6h82l4 -6l-178 -330l-8 -6h-49l-4 6zM242 1479l8 6h82l4 -6l-178 -330l-8 -6h-50l-4 6z" />
    <glyph glyph-name="macron.case" horiz-adv-x="724" 
d="M82 1257h561v-63h-561v63z" />
    <glyph glyph-name="ring.case" horiz-adv-x="473" 
d="M238 1180q48 0 80 34t32 80q0 45 -32 79t-80 34t-81 -34q-32 -34 -32 -79q0 -46 32 -80t81 -34zM238 1122q-74 0 -125 50t-52 122t51 121t126 49t124 -49t52 -121q0 -72 -51 -122t-125 -50z" />
    <glyph glyph-name="tilde.case" horiz-adv-x="837" 
d="M233 1325q63 0 185 -38t198 -38t113 76h8l37 -57v-6q-57 -84 -166 -84q-68 0 -192 38t-183 37q-86 0 -122 -75h-7l-38 55v6q54 86 167 86z" />
    <glyph glyph-name="IJacute" horiz-adv-x="1626" 
d="M897 1331h539v-975q0 -174 -109 -277t-272 -104q-248 0 -375 199v6l57 45h6q113 -174 312 -174q133 0 217 84t84 225v897h-459v74zM625 1260h-236v-1188h236v-72h-551v72h235v1188h-235v71h551v-71zM1327 1729h6l41 -62v-6l-373 -211h-6l-26 41v6zM504 1729h8l39 -62v-6
l-371 -211h-6l-29 41v6z" />
    <glyph glyph-name="ijacute" horiz-adv-x="890" 
d="M727 1024v-995q0 -131 -46 -205t-138 -131h-6l-31 55v6q74 46 108 106t35 165v931h-143v68h221zM135 1049q63 0 97 -37t34 -107v-768q0 -92 62 -92q24 0 51 18l8 -2l19 -51l-3 -6q-33 -29 -89 -29t-91 39t-35 109v764q0 92 -59 92q-29 0 -51 -18l-8 2l-21 51q23 35 86 35
zM793 1456l47 -59v-6l-346 -246h-7l-30 41v6l329 264h7zM379 1456h6l47 -59v-6l-346 -246h-6l-31 41v6z" />
    <glyph glyph-name="slashlong.case" horiz-adv-x="1284" 
d="M141 -100l-4 10l1022 1540h84l4 -10l-1020 -1540h-86z" />
    <glyph glyph-name="slashlong" horiz-adv-x="1083" 
d="M72 59l-4 7l862 1232h82l4 -6l-862 -1233h-82z" />
    <glyph glyph-name="slashshort.case" horiz-adv-x="757" 
d="M723 780l-649 -317l-6 4v63l647 318l8 -4v-64z" />
    <glyph glyph-name="slashshort" horiz-adv-x="638" 
d="M82 469v61l496 254h8v-61l-494 -254h-10z" />
    <glyph glyph-name="strokelong" horiz-adv-x="1548" 
d="M160 1047h1233v-68h-1233v68z" />
    <glyph glyph-name="strokeshort" horiz-adv-x="710" 
d="M84 694h537v-65h-537v65z" />
    </font>
</defs>
</svg>
