<?xml version="1.0" standalone="no"?>
<!DOCTYPE svg PUBLIC "-//W3C//DTD SVG 1.1//EN" "http://www.w3.org/Graphics/SVG/1.1/DTD/svg11.dtd" >
<svg xmlns="http://www.w3.org/2000/svg">
<metadata>
Created by FontPrep 20130207 at Fri May 26 16:08:32 2017
 By Lizzy Knight
Copyright 2016 by URW++ Design &#38; Development GmbH
</metadata>
<defs>
<font id="7085d44e40962544d777724f36414970" horiz-adv-x='1024' >
  <font-face 
    font-family="URWDIN-Light"
    font-weight="300"
    font-stretch="normal"
    units-per-em="2048"
    panose-1="0 0 4 0 0 0 0 0 0 0"
    ascent="1462"
    descent="-586"
    x-height="1018"
    cap-height="1462"
    bbox="-211 -496 2378 2064"
    underline-thickness="94"
    underline-position="-209"
    unicode-range="U+0020-FB04"
  />
<missing-glyph horiz-adv-x="409" 
 />
    <glyph glyph-name="ff" unicode="ff" horiz-adv-x="1286" 
d="M856 915h-129v103h129v190q0 148 57 202t209 52h80v-100h-55q-100 2 -134 -32t-34 -136v-176h238v-103h-238v-915h-123v915zM240 915h-131v103h131v190q0 148 57 202t209 52h76v-100h-52q-100 2 -134 -32t-34 -136v-176h220v-103h-220v-915h-122v915z" />
    <glyph glyph-name="fi" unicode="fi" horiz-adv-x="1173" 
d="M858 0v1018h123v-1018h-123zM858 1270v196h123v-196h-123zM240 915h-131v103h131v190q0 148 57 202t209 52h80v-100h-56q-100 2 -134 -32t-34 -136v-176h236v-103h-236v-915h-122v915z" />
    <glyph glyph-name="fl" unicode="fl" horiz-adv-x="1251" 
d="M856 1462h123v-1175q0 -103 37 -143t133 -40h59v-104h-65q-166 0 -227 62q-60 62 -60 235v1165zM240 915h-131v103h131v190q0 148 57 202t209 52h80v-100h-56q-100 2 -134 -32t-34 -136v-176h236v-103h-236v-915h-122v915z" />
    <glyph glyph-name="ffi" unicode="ffi" horiz-adv-x="1789" 
d="M1477 0v1018h122v-1018h-122zM1477 1270v196h122v-196h-122zM856 915h-129v103h129v190q0 148 57 202t209 52h80v-100h-55q-100 2 -134 -32t-34 -136v-176h238v-103h-238v-915h-123v915zM240 915h-131v103h131v190q0 148 57 202t209 52h76v-100h-52q-100 2 -134 -32
t-34 -136v-176h220v-103h-220v-915h-122v915z" />
    <glyph glyph-name="ffl" unicode="ffl" horiz-adv-x="1867" 
d="M1475 1462h122v-1175q0 -103 37 -143t133 -40h62v-104h-66q-168 0 -228 61t-60 236v1165zM858 915h-131v103h131v190q0 144 57 200t207 54h80v-100h-55q-98 4 -132 -31t-34 -137v-176h236v-103h-236v-915h-123v915zM240 915h-131v103h131v190q0 148 57 202t209 52h76
v-100h-52q-100 2 -134 -32t-34 -136v-176h220v-103h-220v-915h-122v915z" />
    <glyph glyph-name=".notdef" horiz-adv-x="409" 
 />
    <glyph glyph-name=".null" horiz-adv-x="0" 
 />
    <glyph glyph-name="nonmarkingreturn" horiz-adv-x="681" 
 />
    <glyph glyph-name="space" unicode=" " horiz-adv-x="409" 
 />
    <glyph glyph-name="exclam" unicode="!" horiz-adv-x="612" 
d="M248 0v178h123v-178h-123zM254 381l-16 1081h139l-19 -1081h-104z" />
    <glyph glyph-name="quotedbl" unicode="&#x22;" horiz-adv-x="806" 
d="M506 946l-8 516h127l-9 -516h-110zM190 946l-8 516h127l-8 -516h-111z" />
    <glyph glyph-name="numbersign" unicode="#" 
d="M422 582h233l33 256h-233zM311 582l33 256h-254l14 90h256l56 393h108l-53 -393h234l55 393h110l-55 -393h256l-14 -90h-258l-33 -256h254l-16 -90h-254l-56 -406h-108l53 406h-233l-56 -406h-110l55 406h-258l16 90h258z" />
    <glyph glyph-name="dollar" unicode="$" 
d="M541 125q174 0 271 72q97 71 97 199t-98 194q-45 31 -81 42t-232 57t-293 138q-98 92 -99 248q0 213 173 311q76 45 221 54v221h118v-223q113 -8 203 -52t131 -110l-98 -66q-92 125 -313 125q-145 0 -228 -66q-82 -67 -82 -184t80 -183q81 -66 255 -104q174 -40 225 -58
q243 -88 243 -334q0 -170 -106 -268t-310 -115v-293h-118v288q-152 6 -268 60t-166 141l100 66q98 -160 375 -160z" />
    <glyph glyph-name="percent" unicode="%" horiz-adv-x="1757" 
d="M590 0l459 1462h116l-456 -1462h-119zM1554 311v170q0 242 -183 242t-183 -242v-170q0 -242 184 -241q182 -1 182 241zM1081 299v195q0 162 70 238q69 76 219 77q150 0 220 -76t71 -239v-195q0 -164 -71 -240q-70 -75 -220 -75t-220 76t-69 239zM569 981v170
q0 242 -183 242t-183 -242v-170q0 -242 183 -242t183 242zM96 969v194q0 164 71 240t220 76t219 -77t70 -239v-194q0 -164 -71 -240t-221 -76t-218 77q-70 77 -70 239z" />
    <glyph glyph-name="ampersand" unicode="&#x26;" horiz-adv-x="1681" 
d="M362 307q0 -121 75 -191t204 -71q217 0 420 209l-338 457q-143 -82 -195 -119q-166 -115 -166 -285zM1024 1186q0 94 -63 154t-165 60t-164 -56q-62 -58 -62 -143t53 -163q1 -1 114 -161l15 -21q147 86 210 161q62 75 62 169zM625 -63q-180 0 -285 99q-104 99 -104 271
q0 211 198 363q72 53 213 131q-129 178 -165 249t-36 146q0 139 96 224t252 85q157 0 255 -88t98 -231q0 -168 -176 -318q-47 -37 -146 -102l316 -430q119 156 157 321h125q-66 -225 -209 -407l193 -250h-150l-127 172q-102 -109 -238 -172t-267 -63z" />
    <glyph glyph-name="quotesingle" unicode="'" horiz-adv-x="491" 
d="M190 946l-8 516h127l-8 -516h-111z" />
    <glyph glyph-name="parenleft" unicode="(" horiz-adv-x="878" 
d="M307 706q0 266 70 487q70 222 225 460l94 -56q-86 -152 -145 -284q-117 -268 -117 -614t133 -638q47 -104 129 -245l-94 -58q-158 238 -226 460q-69 222 -69 488z" />
    <glyph glyph-name="parenright" unicode=")" horiz-adv-x="878" 
d="M182 1597l92 56q158 -236 228 -459t70 -488q0 -264 -70 -488t-228 -460l-92 58q90 156 144 282q118 264 118 612t-133 640q-41 87 -129 247z" />
    <glyph glyph-name="asterisk" unicode="*" 
d="M553 1092l-193 -318l-112 70l223 309l-352 74l33 125l348 -111l-15 348h133l-14 -348l348 111l33 -125l-352 -74l225 -309l-113 -70z" />
    <glyph glyph-name="plus" unicode="+" 
d="M66 698v103h432v440h112v-440h432v-103h-432v-438h-112v438h-432z" />
    <glyph glyph-name="comma" unicode="," horiz-adv-x="567" 
d="M131 -385l96 563h142l-133 -563h-105z" />
    <glyph glyph-name="hyphen" unicode="-" horiz-adv-x="980" 
d="M215 696v109h549v-109h-549z" />
    <glyph glyph-name="period" unicode="." horiz-adv-x="569" 
d="M221 0v178h127v-178h-127z" />
    <glyph glyph-name="slash" unicode="/" horiz-adv-x="841" 
d="M117 -45l487 1552h125l-487 -1552h-125z" />
    <glyph glyph-name="zero" unicode="0" 
d="M821 520v422q0 223 -64 326q-65 102 -205 102t-205 -102t-64 -326v-422q1 -223 65 -325q64 -103 204 -103t204 102t65 326zM158 504v454q0 262 88 379q104 141 315 141t313 -163q72 -113 72 -357v-454q0 -262 -88 -379q-104 -141 -315 -141t-314 163q-71 113 -71 357z
" />
    <glyph glyph-name="one" unicode="1" 
d="M520 0v1327l-260 -117l-39 103l336 149h90v-1462h-127z" />
    <glyph glyph-name="two" unicode="2" 
d="M129 0v86l403 537q126 173 178 287t52 223q0 240 -244 239q-207 0 -268 -227l-115 12q19 152 123 238t273 86t263 -92t95 -242q0 -150 -56 -274t-212 -332l-322 -432h602v-109h-772z" />
    <glyph glyph-name="three" unicode="3" 
d="M352 719v104h129q127 0 208 77t81 201q0 125 -68 197t-188 72q-203 0 -252 -178l-115 10q23 133 118 205t264 72q169 -1 269 -99t99 -278q0 -125 -51 -202t-166 -128q254 -94 254 -379q0 -199 -111 -304t-301 -105t-295 73q-104 74 -123 211l121 15q47 -190 279 -191
q143 0 223 80t80 223t-89 233t-231 91h-135z" />
    <glyph glyph-name="four" unicode="4" 
d="M717 0v276h-600v80l475 1106h135l-465 -1079h455v487h119v-487h149v-109h-149v-274h-119z" />
    <glyph glyph-name="five" unicode="5" 
d="M901 1462v-108h-524l-55 -525q106 70 239 70q209 0 311 -147q72 -109 72 -315t-90 -320q-111 -133 -332 -133q-164 0 -264 74t-121 210l121 15q47 -190 266 -191q141 0 217 88t76 252q0 360 -274 361q-135 0 -250 -95l-92 19l69 745h631z" />
    <glyph glyph-name="six" unicode="6" 
d="M559 788q-135 0 -201 -85t-65 -263q0 -348 263 -348t263 348t-260 348zM592 893q184 0 282 -137q72 -102 72 -330q0 -444 -389 -442q-211 0 -313 133q-78 102 -78 325q0 113 20 189t84 194l332 637h143l-331 -616q76 47 178 47z" />
    <glyph glyph-name="seven" unicode="7" 
d="M186 1354v108h748v-78l-473 -1384h-135l473 1354h-613z" />
    <glyph glyph-name="eight" unicode="8" 
d="M557 715q-151 0 -221 -77t-70 -236q0 -160 71 -236t216 -76q287 0 287 312t-283 313zM555 1376q-254 0 -254 -278t251 -279q251 1 251 279t-248 278zM178 1098q0 383 374 383t374 -383q0 -125 -39 -201t-127 -123q109 -43 158 -132t49 -239q0 -422 -414 -421
q-414 0 -414 419q0 152 50 242q51 90 157 131q-92 53 -130 126t-38 198z" />
    <glyph glyph-name="nine" unicode="9" 
d="M553 1370q-266 0 -266 -318t262 -319q264 1 264 319t-260 318zM512 631q-352 0 -352 420q0 219 96 323t298 104t308 -124q78 -96 78 -299q0 -104 -15 -169t-63 -159l-358 -727h-144l338 670q-90 -39 -186 -39z" />
    <glyph glyph-name="colon" unicode=":" horiz-adv-x="569" 
d="M221 840v178h127v-178h-127zM221 0v178h127v-178h-127z" />
    <glyph glyph-name="semicolon" unicode=";" horiz-adv-x="569" 
d="M231 840v178h127v-178h-127zM131 -385l96 563h142l-133 -563h-105z" />
    <glyph glyph-name="less" unicode="&#x3c;" 
d="M240 754l700 -355v-120l-848 436v78l848 436v-121z" />
    <glyph glyph-name="equal" unicode="=" 
d="M90 856v100h924v-100h-924zM90 545v100h924v-100h-924z" />
    <glyph glyph-name="greater" unicode="&#x3e;" 
d="M866 754l-700 354v121l848 -436v-78l-848 -436v120z" />
    <glyph glyph-name="question" unicode="?" horiz-adv-x="1202" 
d="M528 0v178h123v-178h-123zM539 379v70q-1 115 37 187t157 173q98 86 123 121q64 84 64 188t-84 180q-84 74 -213 74q-168 0 -261 -121q-45 -61 -73 -184l-119 20q78 393 457 394q188 -1 304 -105t116 -272q-1 -102 -47 -180t-166 -183q-115 -94 -154 -155t-39 -146v-61
h-102z" />
    <glyph glyph-name="at" unicode="@" horiz-adv-x="1810" 
d="M971 999q-131 0 -219 -135q-88 -136 -88 -322t163 -186q141 0 233 153t91 298q0 88 -49 140t-131 52zM1192 449q0 -92 102 -93q123 0 208 130t85 317q0 406 -349 538q-140 53 -308 54q-324 0 -514 -207t-190 -551q-1 -686 704 -686q270 0 510 112l41 -79
q-246 -127 -545 -127q-401 1 -609 195t-208 582t220 620q219 232 581 232t567 -186t205 -501q0 -231 -116 -383t-292 -152q-92 0 -133 41t-43 133q-117 -178 -293 -178q-127 0 -195 73t-67 210q0 240 131 405q106 144 276 144t236 -148l31 125h88l-109 -514
q-14 -76 -14 -106z" />
    <glyph glyph-name="A" unicode="A" horiz-adv-x="1214" 
d="M913 440l-305 852l-305 -852h610zM948 334h-680l-116 -334h-140l537 1462h119l536 -1462h-139z" />
    <glyph glyph-name="B" unicode="B" horiz-adv-x="1312" 
d="M354 106h422q133 0 201 66q82 76 82 232t-92 239q-68 57 -191 57h-422v-594zM354 807h394q133 0 200 61q82 72 82 218t-94 219q-68 51 -188 51h-394v-549zM227 0v1462h527q192 0 298 -94t105 -278q0 -229 -186 -326q92 -49 125 -88q90 -106 90 -300t-127 -298
q-92 -78 -275 -78h-557z" />
    <glyph glyph-name="C" unicode="C" horiz-adv-x="1300" 
d="M670 -18q-270 0 -391 188q-86 129 -86 414v293q0 170 24 270q25 100 82 172q127 160 373 160q200 1 318 -93t128 -258l-119 -8q-14 119 -100 185t-225 65q-186 0 -270 -118t-85 -378v-286q0 -262 84 -380t271 -118q140 0 230 66t106 186l120 -14q-10 -162 -133 -254
t-327 -92z" />
    <glyph glyph-name="D" unicode="D" horiz-adv-x="1392" 
d="M354 1356v-1250h308q418 -8 411 461v330q8 467 -411 459h-308zM227 0v1462h453q260 4 393 -138t127 -415v-356q6 -271 -127 -413t-393 -140h-453z" />
    <glyph glyph-name="E" unicode="E" horiz-adv-x="1183" 
d="M227 0v1462h834v-108h-707v-559h604v-109h-604v-577h707v-109h-834z" />
    <glyph glyph-name="F" unicode="F" horiz-adv-x="1116" 
d="M227 0v1462h830v-108h-703v-572h598v-108h-598v-674h-127z" />
    <glyph glyph-name="G" unicode="G" horiz-adv-x="1359" 
d="M737 647v105h455v-222q0 -145 -26 -235t-87 -160q-135 -154 -385 -153q-283 0 -413 188q-88 131 -88 414v293q0 168 24 269q25 101 84 173q129 160 383 160q205 1 327 -93t132 -258l-119 -10q-16 119 -105 186t-233 66q-194 0 -280 -118t-87 -380v-284q1 -262 89 -380
t286 -118t295 129q76 100 76 287v141h-328z" />
    <glyph glyph-name="H" unicode="H" horiz-adv-x="1394" 
d="M227 0v1462h127v-667h686v667h127v-1462h-127v686h-686v-686h-127z" />
    <glyph glyph-name="I" unicode="I" horiz-adv-x="581" 
d="M227 0v1462h127v-1462h-127z" />
    <glyph glyph-name="J" unicode="J" horiz-adv-x="935" 
d="M594 1462h127v-893q0 -186 -10 -267t-43 -140q-94 -178 -344 -178q-186 0 -334 127l71 88q113 -106 258 -107q188 0 248 166q27 72 27 305v899z" />
    <glyph glyph-name="K" unicode="K" horiz-adv-x="1267" 
d="M229 0v1462h127v-866l686 866h150l-473 -585l530 -877h-145l-465 786l-283 -352v-434h-127z" />
    <glyph glyph-name="L" unicode="L" horiz-adv-x="1083" 
d="M227 0v1462h127v-1353h711v-109h-838z" />
    <glyph glyph-name="M" unicode="M" horiz-adv-x="1671" 
d="M227 0v1462h125l484 -1007l483 1007h125v-1462h-123v1214l-444 -921h-82l-445 921v-1214h-123z" />
    <glyph glyph-name="N" unicode="N" horiz-adv-x="1482" 
d="M227 0v1462h123l780 -1243v1243h125v-1462h-122l-781 1243v-1243h-125z" />
    <glyph glyph-name="O" unicode="O" horiz-adv-x="1388" 
d="M319 563q0 -473 376 -473t376 473v336q0 473 -375 473q-203 0 -303 -145q-74 -111 -74 -328v-336zM193 549v364q0 281 118 416q137 152 394 152t395 -176q98 -133 98 -392v-364q0 -281 -119 -416q-137 -151 -394 -151t-394 176q-98 133 -98 391z" />
    <glyph glyph-name="P" unicode="P" horiz-adv-x="1245" 
d="M354 694h338q328 0 328 332q0 176 -86 253t-242 77h-338v-662zM356 586v-586h-127v1462h463q242 0 348 -114t106 -331q0 -218 -122 -333q-106 -98 -332 -98h-336z" />
    <glyph glyph-name="Q" unicode="Q" horiz-adv-x="1388" 
d="M319 563q0 -473 377 -473q169 0 265 98l-226 183l68 78l217 -175q51 111 51 289v336q0 473 -375 473q-203 0 -303 -145q-74 -111 -74 -328v-336zM696 -18q-268 0 -405 176q-98 133 -98 391v364q0 281 118 416q137 152 394 152t395 -176q98 -133 98 -392v-364
q0 -229 -76 -356l178 -146l-69 -78l-174 142q-135 -129 -361 -129z" />
    <glyph glyph-name="R" unicode="R" horiz-adv-x="1325" 
d="M354 756h373q305 0 305 300t-327 300h-351v-600zM715 1462q444 0 444 -401q0 -352 -313 -399l323 -662h-141l-307 649h-365v-649h-127v1462h486z" />
    <glyph glyph-name="S" unicode="S" horiz-adv-x="1189" 
d="M590 92q174 0 270 77t96 214t-98 205q-43 33 -81 45t-197 53q-224 56 -322 150t-98 266t115 274q116 102 321 103q291 0 405 -166l-100 -66q-86 125 -307 125q-145 0 -227 -73t-82 -197t80 -193t253 -111t222 -60q241 -91 241 -349q0 -193 -129 -299t-364 -106
q-342 -1 -473 200l100 66q98 -158 375 -158z" />
    <glyph glyph-name="T" unicode="T" horiz-adv-x="1134" 
d="M506 0v1354h-432v108h987v-108h-428v-1354h-127z" />
    <glyph glyph-name="U" unicode="U" horiz-adv-x="1417" 
d="M221 1462h127v-927q0 -215 62 -304q92 -139 290 -139q121 0 198 39t124 123t47 281v927h127v-927q0 -154 -18 -235t-70 -146q-128 -170 -410 -170t-407 194q-39 61 -54 138t-16 219v927z" />
    <glyph glyph-name="V" unicode="V" horiz-adv-x="1136" 
d="M516 0l-485 1462h129l409 -1265l408 1265h129l-485 -1462h-105z" />
    <glyph glyph-name="W" unicode="W" horiz-adv-x="1759" 
d="M430 0l-367 1462h130l296 -1249l349 1249h84l348 -1249l297 1249h127l-367 -1462h-104l-344 1227l-344 -1227h-105z" />
    <glyph glyph-name="X" unicode="X" horiz-adv-x="1138" 
d="M496 768l-394 694h142l340 -600l327 600h136l-398 -712l426 -750h-141l-371 655l-360 -655h-135z" />
    <glyph glyph-name="Y" unicode="Y" horiz-adv-x="1079" 
d="M479 0v528l-465 934h136l393 -800l391 800h135l-463 -934v-528h-127z" />
    <glyph glyph-name="Z" unicode="Z" horiz-adv-x="1095" 
d="M102 0v94l705 1260h-666v108h807v-94l-704 -1259h737v-109h-879z" />
    <glyph glyph-name="bracketleft" unicode="[" horiz-adv-x="878" 
d="M344 -201v1813h361v-94h-238v-1624h238v-95h-361z" />
    <glyph glyph-name="backslash" unicode="\" horiz-adv-x="841" 
d="M725 -45h-125l-487 1552h125z" />
    <glyph glyph-name="bracketright" unicode="]" horiz-adv-x="878" 
d="M535 1612v-1813h-361v95h238v1624h-238v94h361z" />
    <glyph glyph-name="asciicircum" unicode="^" 
d="M553 1333l-320 -547h-139l426 689h66l426 -689h-140z" />
    <glyph glyph-name="underscore" unicode="_" horiz-adv-x="962" 
d="M-51 -350v94h1065v-94h-1065z" />
    <glyph glyph-name="grave" unicode="`" horiz-adv-x="1024" 
d="M604 1194h-94l-213 281h158z" />
    <glyph glyph-name="a" unicode="a" horiz-adv-x="1067" 
d="M758 492h-254q-154 0 -217 -48t-63 -160t58 -155t222 -43t223 76q31 37 31 145v185zM758 586v88q0 123 -41 180q-57 80 -212 80t-253 -105l-84 68q123 139 352 139t314 -137q47 -78 47 -240v-659h-101l-10 80q-49 -55 -117 -77t-188 -21q-199 0 -280 66t-81 235
q0 167 86 235t306 68h262z" />
    <glyph glyph-name="b" unicode="b" horiz-adv-x="1155" 
d="M874 436v146q0 352 -276 352q-281 0 -281 -350v-150q0 -348 281 -348q276 0 276 350zM195 0v1462h122v-561q55 72 125 104t174 31q381 0 381 -448v-156q0 -451 -383 -450q-162 0 -256 77q-12 10 -55 62l-10 -121h-98z" />
    <glyph glyph-name="c" unicode="c" horiz-adv-x="970" 
d="M563 -18q-406 0 -405 467v94q0 494 399 493q221 0 317 -151l-96 -56q-43 57 -91 81t-122 24q-145 0 -215 -94t-69 -291v-115q-1 -170 73 -259t220 -89t229 98l94 -57q-115 -145 -334 -145z" />
    <glyph glyph-name="d" unicode="d" horiz-adv-x="1155" 
d="M281 582v-146q0 -350 276 -350q281 0 281 348v150q0 350 -281 350q-276 0 -276 -352zM544 -18q-196 0 -291 110t-95 340v156q0 449 381 448q106 0 174 -30t125 -105v561h123v-1462h-99l-10 121l-37 -43q-75 -96 -271 -96z" />
    <glyph glyph-name="e" unicode="e" horiz-adv-x="1107" 
d="M281 588h567v14q0 148 -67 240t-211 92t-217 -86t-72 -248v-12zM281 494v-54q1 -172 81 -263t235 -91t241 98l92 -59q-109 -143 -344 -143q-428 0 -428 481v90q0 246 99 365q99 118 305 118t305 -118t100 -365v-59h-686z" />
    <glyph glyph-name="f" unicode="f" horiz-adv-x="667" 
d="M240 915h-131v103h131v190q0 148 57 202t209 52h80v-100h-56q-100 2 -134 -32t-34 -136v-176h236v-103h-236v-915h-122v915z" />
    <glyph glyph-name="g" unicode="g" horiz-adv-x="1155" 
d="M281 582v-146q0 -350 272 -350q285 0 285 348v150q0 350 -285 350q-272 0 -272 -352zM535 -18q-377 0 -377 450v156q0 449 379 448q215 0 317 -145l8 127h99v-1030q0 -465 -424 -465q-231 0 -342 143l92 60q88 -100 245 -101q304 0 306 350l2 144q-96 -137 -305 -137z
" />
    <glyph glyph-name="h" unicode="h" horiz-adv-x="1153" 
d="M195 0v1462h122v-561q94 135 293 135q252 0 328 -196q33 -80 33 -254v-586h-123v575q0 187 -60 271t-202 84q-140 0 -204 -96t-65 -314v-520h-122z" />
    <glyph glyph-name="i" unicode="i" horiz-adv-x="505" 
d="M190 0v1018h123v-1018h-123zM190 1270v196h123v-196h-123z" />
    <glyph glyph-name="j" unicode="j" horiz-adv-x="518" 
d="M201 1270v196h123v-196h-123zM201 1018h123v-1065q4 -238 -80 -332t-301 -92v106q141 -8 201 65t57 241v1077z" />
    <glyph glyph-name="k" unicode="k" horiz-adv-x="1028" 
d="M193 0v1462h122v-1069l494 625h141l-346 -430l391 -588h-135l-330 496l-215 -269v-227h-122z" />
    <glyph glyph-name="l" unicode="l" horiz-adv-x="583" 
d="M190 1462h123v-1175q0 -103 37 -143t133 -40h60v-104h-66q-166 0 -226 62t-61 235v1165z" />
    <glyph glyph-name="m" unicode="m" horiz-adv-x="1726" 
d="M195 0v1018h98l10 -137q78 156 277 155q229 0 303 -186q79 186 319 186t311 -196q31 -78 31 -254v-586h-123v575q0 145 -28 218q-55 137 -199 137t-204 -96t-60 -314v-520h-123v578q0 186 -56 269q-57 83 -187 83t-188 -96t-59 -320v-514h-122z" />
    <glyph glyph-name="n" unicode="n" horiz-adv-x="1153" 
d="M195 0v1018h98l10 -137q84 156 299 155q262 0 336 -196q33 -80 33 -254v-586h-123v575q0 147 -31 218q-61 137 -217 137t-218 -96q-64 -96 -65 -320v-514h-122z" />
    <glyph glyph-name="o" unicode="o" horiz-adv-x="1138" 
d="M858 434v148q0 352 -289 352t-288 -352v-148q1 -348 289 -348t288 348zM158 430v158q0 227 101 338t310 110q412 0 412 -448v-158q0 -449 -414 -448q-409 -1 -409 448z" />
    <glyph glyph-name="p" unicode="p" horiz-adv-x="1155" 
d="M874 436v146q0 352 -276 352q-281 0 -281 -350v-150q0 -348 281 -348q276 0 276 350zM195 -461v1479h98l14 -121q98 139 300 139t296 -110t94 -338v-156q0 -451 -379 -450q-197 0 -301 131v-574h-122z" />
    <glyph glyph-name="q" unicode="q" horiz-adv-x="1155" 
d="M281 582v-146q0 -350 276 -350q281 0 281 348v150q0 350 -281 350q-276 0 -276 -352zM537 -18q-379 0 -379 450v156q0 227 94 338q94 110 297 110t299 -139l14 121h99v-1479h-123l2 574q-102 -131 -303 -131z" />
    <glyph glyph-name="r" unicode="r" horiz-adv-x="753" 
d="M195 0v1018h98l12 -131q78 150 260 149q92 0 185 -47l-52 -106q-76 45 -145 45q-125 0 -180 -102t-56 -326v-500h-122z" />
    <glyph glyph-name="s" unicode="s" horiz-adv-x="954" 
d="M449 86q283 0 282 190q0 104 -76 144q-53 28 -221 52t-231 81q-80 71 -80 201t84 206t239 76q242 0 357 -147l-94 -60q-90 104 -252 105q-215 0 -215 -180q0 -94 69 -133q47 -29 214 -54t235 -75q90 -63 90 -220q0 -291 -397 -290q-274 0 -387 141l88 63
q106 -100 295 -100z" />
    <glyph glyph-name="t" unicode="t" horiz-adv-x="673" 
d="M229 915h-127v103h127l4 338h119v-338h199v-103h-199v-628q0 -105 37 -145t133 -38h39v-104h-39q-172 -2 -232 59t-61 238v618z" />
    <glyph glyph-name="u" unicode="u" horiz-adv-x="1130" 
d="M184 1018h123v-576q0 -145 31 -217q56 -137 206 -137t211 96q60 96 60 320v514h123v-1018h-98l-11 137q-80 -156 -286 -155q-254 0 -328 196q-31 86 -31 254v586z" />
    <glyph glyph-name="v" unicode="v" horiz-adv-x="983" 
d="M438 0l-377 1018h125l306 -848l305 848h125l-377 -1018h-107z" />
    <glyph glyph-name="w" unicode="w" horiz-adv-x="1572" 
d="M406 0l-318 1018h125l248 -844l284 844h84l285 -844l248 844h125l-318 -1018h-96l-287 823l-284 -823h-96z" />
    <glyph glyph-name="x" unicode="x" horiz-adv-x="929" 
d="M393 522l-305 496h139l248 -404l248 404h133l-319 -504l313 -514h-139l-256 420l-258 -420h-136z" />
    <glyph glyph-name="y" unicode="y" horiz-adv-x="983" 
d="M131 -367q113 0 158 34t88 149l61 178l-387 1024h125l328 -885l289 885h125l-416 -1219q-61 -170 -129 -219t-242 -51v104z" />
    <glyph glyph-name="z" unicode="z" horiz-adv-x="966" 
d="M98 0v80l549 833h-508v105h662v-80l-549 -834h582v-104h-736z" />
    <glyph glyph-name="braceleft" unicode="{" horiz-adv-x="878" 
d="M711 -111v-90h-60q-188 0 -250 79q-61 79 -57 308v238q4 176 -30 229t-152 60h-17v80h17q118 4 152 58t30 230v144q-4 229 57 308t250 79h60v-90h-37q-131 -2 -171 -69t-36 -282v-98q4 -164 -22 -225t-115 -96q88 -32 114 -94t23 -226v-192q-4 -215 36 -282t171 -69h37z
" />
    <glyph glyph-name="bar" unicode="|" 
d="M498 -201v1813h112v-1813h-112z" />
    <glyph glyph-name="braceright" unicode="}" horiz-adv-x="878" 
d="M166 1522v90h59q187 0 249 -79t58 -308v-144q-4 -176 30 -230t153 -58h16v-80h-16q-119 -5 -153 -59t-30 -230v-238q4 -229 -57 -308t-250 -79h-59v90h37q131 2 171 69t36 282v192q-4 164 22 225q27 61 115 95q-90 35 -116 96t-21 225v98q2 215 -37 281t-170 70h-37z" />
    <glyph glyph-name="asciitilde" unicode="~" 
d="M334 889q78 1 124 -19q48 -20 123 -73t109 -69t72 -17q109 0 166 155l86 -24q-76 -228 -236 -230q-76 0 -122 18q-44 18 -119 72t-109 70t-76 16q-113 1 -172 -157l-86 20q42 127 102 183t138 55z" />
    <glyph glyph-name="uni00A0" unicode="&#xa0;" horiz-adv-x="409" 
 />
    <glyph glyph-name="exclamdown" unicode="&#xa1;" horiz-adv-x="612" 
d="M367 1018v-178h-123v178h123zM358 637l19 -1081h-139l16 1081h104z" />
    <glyph glyph-name="cent" unicode="&#xa2;" 
d="M315 758q-1 -350 295 -350q148 0 230 100l90 -57q-86 -121 -268 -140v-231h-119v231q-170 10 -261 130t-87 331v94q-6 459 348 490v221h119v-223q168 -20 247 -146l-94 -51q-80 103 -220 103q-280 1 -280 -388v-114z" />
    <glyph glyph-name="sterling" unicode="&#xa3;" 
d="M133 0v94q100 42 168 148t68 227q0 72 -33 172h-209v109h160q-67 120 -91 188t-24 143q0 184 106 292t291 108q183 0 289 -93t146 -288l-109 -27q-31 129 -72 184q-86 117 -245 117q-125 0 -202 -78t-77 -204q0 -70 26 -139t103 -203h350v-109h-313q27 -88 27 -162
q0 -219 -177 -370h707v-109h-889z" />
    <glyph glyph-name="currency" unicode="&#xa4;" 
d="M858 685q0 137 -85 229t-218 92t-219 -90t-86 -229q0 -140 86 -230t219 -90t218 90t85 228zM141 686q0 145 92 266l-174 181l68 61l172 -178q123 86 256 86t254 -86l172 178l68 -61l-175 -181q92 -123 92 -266t-92 -266l175 -180l-68 -62l-172 178q-121 -86 -255 -86
t-255 86l-172 -178l-68 62l174 180q-92 121 -92 266z" />
    <glyph glyph-name="yen" unicode="&#xa5;" 
d="M492 0v319h-322v95h322v131h-322v94h281l-408 823h135l377 -774l375 774h137l-408 -823h281v-94h-322v-131h322v-95h-322v-319h-126z" />
    <glyph glyph-name="brokenbar" unicode="&#xa6;" horiz-adv-x="1024" 
d="M453 0v500h118v-500h-118zM453 944v518h118v-518h-118z" />
    <glyph glyph-name="section" unicode="&#xa7;" 
d="M823 606q0 86 -33 123t-74 57t-145 54l-127 43q-94 -49 -128 -95t-34 -128t42 -123q24 -27 62 -45t149 -56l127 -41q2 2 14 8t43 25q104 57 104 178zM501 -94q129 0 193 53t64 135t-37 133q-27 31 -72 53t-155 54q-193 54 -262 118q-68 64 -68 200t102 218q20 16 86 56
q-70 41 -98 94t-29 139q0 150 89 235t247 85q90 0 156 -23t147 -84l-82 -76q-90 76 -202 76t-171 -53q-61 -53 -61 -137t37 -131q25 -29 73 -52t202 -71t210 -103q72 -66 72 -178q0 -111 -40 -173t-146 -122q70 -41 98 -93t27 -138q1 -152 -93 -237t-272 -85t-336 133l82 76
q111 -102 239 -102z" />
    <glyph glyph-name="dieresis" unicode="&#xa8;" horiz-adv-x="1024" 
d="M651 1212v195h113v-195h-113zM258 1212v195h115v-195h-115z" />
    <glyph glyph-name="copyright" unicode="&#xa9;" horiz-adv-x="1675" 
d="M1495 730q1 286 -185 476t-476 189q-290 0 -480 -201q-174 -190 -174 -471t186 -468t472 -187q285 0 471 188t186 474zM78 732q0 327 218 540t546 213t542 -215t213 -540q0 -325 -216 -539q-215 -214 -543 -214t-544 214t-216 541zM1032 901q-17 109 -187 109
q-177 0 -177 -211v-135q0 -111 45 -161t143 -50q159 -1 182 108l97 -8q-12 -182 -281 -182q-164 0 -238 92q-51 66 -51 209v119q0 157 71 229t218 72q256 0 272 -185z" />
    <glyph glyph-name="ordfeminine" unicode="&#xaa;" horiz-adv-x="684" 
d="M477 1118h-149q-96 0 -133 -24t-37 -83q0 -60 35 -84t123 -24t125 24q36 24 36 87v104zM475 1196v53q0 74 -34 107q-35 33 -121 33t-158 -62l-62 55q84 90 224 90t195 -52q54 -54 54 -179v-410h-84l-4 43q-59 -53 -188 -53t-182 41q-53 40 -53 144t58 147q60 43 208 43
h147z" />
    <glyph glyph-name="guillemotleft" unicode="&#xab;" horiz-adv-x="831" 
d="M225 604l185 -252l-72 -55l-254 307l254 307l72 -53zM565 604l185 -252l-72 -55l-254 307l254 307l72 -53z" />
    <glyph glyph-name="logicalnot" unicode="&#xac;" 
d="M92 698v103h850v-555h-119v452h-731z" />
    <glyph glyph-name="uni00AD" unicode="&#xad;" horiz-adv-x="980" 
d="M215 696v109h549v-109h-549z" />
    <glyph glyph-name="registered" unicode="&#xae;" horiz-adv-x="1318" 
d="M186 1186q0 -205 129 -340t343 -135t343 135t129 341t-128 340t-343 134q-213 0 -343 -135t-130 -340zM90 1187q0 245 162 403t408 159q246 0 406 -161q160 -160 161 -402q0 -242 -162 -403t-407 -161q-244 0 -406 160t-162 405zM541 1202h157q127 0 127 96t-137 97h-147
v-193zM543 1141v-234h-90v557h241q219 0 219 -161q0 -127 -131 -154l146 -242h-99l-137 234h-149z" />
    <glyph glyph-name="macron" unicode="&#xaf;" horiz-adv-x="1024" 
d="M268 1282v90h488v-90h-488z" />
    <glyph glyph-name="degree" unicode="&#xb0;" horiz-adv-x="796" 
d="M398 1427q-106 -1 -168 -65t-62 -176t61 -178q61 -64 167 -64t170 65q62 65 62 177t-61 176q-63 65 -169 65zM398 850q-152 0 -244 91t-92 245t91 245q92 91 246 91t245 -92t91 -245t-92 -244t-245 -91z" />
    <glyph glyph-name="plusminus" unicode="&#xb1;" 
d="M66 0v102h976v-102h-976zM66 713v102h432v434h112v-434h432v-102h-432v-434h-112v434h-432z" />
    <glyph glyph-name="twosuperior" unicode="&#xb2;" horiz-adv-x="690" 
d="M92 791v67l260 313q135 164 135 271q0 70 -40 110t-109 41q-129 0 -166 -135l-96 15q23 109 85 157t182 49q121 0 185 -61q64 -62 64 -160t-35 -169t-127 -183l-190 -229h350v-86h-498z" />
    <glyph glyph-name="threesuperior" unicode="&#xb3;" horiz-adv-x="690" 
d="M211 1212v78h92q72 0 121 44t49 110t-42 106t-112 41q-119 0 -153 -106l-94 14q33 178 252 178q122 0 188 -59t66 -172q0 -74 -27 -117t-90 -76q141 -61 141 -223q0 -250 -287 -250q-238 0 -270 178l98 21q31 -113 172 -113q84 0 134 45q49 45 49 123t-54 128t-135 50
h-98z" />
    <glyph glyph-name="acute" unicode="&#xb4;" horiz-adv-x="1024" 
d="M426 1194l149 281h158l-213 -281h-94z" />
    <glyph glyph-name="mu" unicode="&#xb5;" 
d="M176 1018h121v-580q0 -180 59 -265q58 -85 194 -85t196 95t61 321v514h121v-1018h-90l-17 154q-76 -172 -282 -172q-156 0 -242 108v-551h-121v1479z" />
    <glyph glyph-name="paragraph" unicode="&#xb6;" horiz-adv-x="1177" 
d="M492 -279v990h-62q-158 0 -235 45q-76 47 -119 135t-43 201q0 114 44 202q72 144 223 162q50 6 235 6h430v-1741h-119v1637h-238v-1637h-116z" />
    <glyph glyph-name="periodcentered" unicode="&#xb7;" horiz-adv-x="565" 
d="M221 662v178h127v-178h-127z" />
    <glyph glyph-name="cedilla" unicode="&#xb8;" horiz-adv-x="1024" 
d="M393 -440l111 293h135l-158 -293h-88z" />
    <glyph glyph-name="onesuperior" unicode="&#xb9;" horiz-adv-x="454" 
d="M199 791v770l-162 -66l-31 82l221 90h76v-876h-104z" />
    <glyph glyph-name="ordmasculine" unicode="&#xba;" horiz-adv-x="724" 
d="M535 1098v98q-1 195 -173 195t-172 -195v-98q0 -195 172 -195t173 195zM90 1094v106q0 139 67 206t205 67t206 -67q67 -67 67 -206v-106q0 -139 -67 -206t-206 -67q-140 0 -206 67t-66 206z" />
    <glyph glyph-name="guillemotright" unicode="&#xbb;" horiz-adv-x="831" 
d="M606 604l-186 254l72 53l253 -307l-253 -307l-72 55zM266 604l-186 254l72 53l254 -307l-254 -307l-72 55z" />
    <glyph glyph-name="onequarter" unicode="&#xbc;" horiz-adv-x="1728" 
d="M1360 0v174h-383v66l303 637h113l-295 -617h262v201h96v-201h94v-88h-94v-172h-96zM492 0l456 1462h119l-459 -1462h-116zM324 586v770l-162 -66l-31 82l221 90h76v-876h-104z" />
    <glyph glyph-name="onehalf" unicode="&#xbd;" horiz-adv-x="1728" 
d="M1042 0v68l261 313q135 164 135 270q0 72 -40 112t-110 40q-125 0 -166 -135l-96 14q23 109 86 158t182 49q119 1 184 -61t64 -179q0 -77 -36 -151t-126 -183l-190 -229h350v-86h-498zM463 0l457 1462h118l-458 -1462h-117zM317 586v770l-161 -66l-31 82l221 90h76v-876
h-105z" />
    <glyph glyph-name="threequarters" unicode="&#xbe;" horiz-adv-x="1728" 
d="M580 0l458 1462h117l-457 -1462h-118zM1411 0v174h-383v66l303 637h113l-293 -617h260v201h96v-201h95v-88h-95v-172h-96zM229 1008v77h93q72 0 120 44t50 110q0 66 -42 107t-112 40q-119 0 -154 -106l-94 14q33 178 252 179q122 1 188 -59t66 -173q0 -74 -27 -117
t-90 -75q141 -61 142 -224q0 -250 -287 -250q-238 0 -271 179l99 20q31 -113 172 -112q84 0 133 45t49 123t-53 127q-53 50 -135 51h-99z" />
    <glyph glyph-name="questiondown" unicode="&#xbf;" horiz-adv-x="1202" 
d="M680 1018v-178h-123v178h123zM672 639v-70q2 -115 -38 -187t-159 -173q-96 -86 -121 -121q-63 -86 -63 -190t84 -178q84 -75 211 -74q170 0 260 121q47 61 76 184l118 -21q-80 -393 -458 -393q-186 1 -302 105t-116 272q0 102 46 180t163 177t157 161t39 146v61h103z" />
    <glyph glyph-name="Agrave" unicode="&#xc0;" horiz-adv-x="1214" 
d="M694 1626h-94l-213 281h158zM913 440l-305 852l-305 -852h610zM948 334h-680l-116 -334h-140l537 1462h119l536 -1462h-139z" />
    <glyph glyph-name="Aacute" unicode="&#xc1;" horiz-adv-x="1214" 
d="M528 1626l150 281h158l-213 -281h-95zM913 440l-305 852l-305 -852h610zM948 334h-680l-116 -334h-140l537 1462h119l536 -1462h-139z" />
    <glyph glyph-name="Acircumflex" unicode="&#xc2;" horiz-adv-x="1214" 
d="M608 1804l-147 -168h-142l252 258h74l252 -258h-139zM913 440l-305 852l-305 -852h610zM948 334h-680l-116 -334h-140l537 1462h119l536 -1462h-139z" />
    <glyph glyph-name="Atilde" unicode="&#xc3;" horiz-adv-x="1214" 
d="M484 1870q72 0 145 -67q74 -67 110 -66q57 0 90 116h84q-31 -117 -69 -161t-110 -45q-72 1 -146 67t-113 66q-59 0 -90 -117h-84q31 115 71 161t112 46zM913 440l-305 852l-305 -852h610zM948 334h-680l-116 -334h-140l537 1462h119l536 -1462h-139z" />
    <glyph glyph-name="Adieresis" unicode="&#xc4;" horiz-adv-x="1214" 
d="M748 1645v194h114v-194h-114zM354 1645v194h115v-194h-115zM913 440l-305 852l-305 -852h610zM948 334h-680l-116 -334h-140l537 1462h119l536 -1462h-139z" />
    <glyph glyph-name="Aring" unicode="&#xc5;" horiz-adv-x="1214" 
d="M608 1933q-106 0 -106 -127q0 -59 28 -92t76 -33q49 0 77 34t28 92t-28 92t-75 34zM408 1809q0 89 54 143t144 53q90 0 144 -54q54 -55 55 -143q0 -88 -54 -143q-55 -55 -145 -55t-144 55t-54 144zM913 440l-305 852l-305 -852h610zM948 334h-680l-116 -334h-140
l537 1462h119l536 -1462h-139z" />
    <glyph glyph-name="AE" unicode="&#xc6;" horiz-adv-x="1937" 
d="M985 455v899h-24l-592 -899h616zM985 346h-680l-223 -346h-148l967 1462h916v-108h-707v-559h604v-109h-604v-577h707v-109h-832v346z" />
    <glyph glyph-name="Ccedilla" unicode="&#xc7;" horiz-adv-x="1300" 
d="M502 -440l110 293h136l-158 -293h-88zM670 -18q-270 0 -391 188q-86 129 -86 414v293q0 170 24 270q25 100 82 172q127 160 373 160q200 1 318 -93t128 -258l-119 -8q-14 119 -100 185t-225 65q-186 0 -270 -118t-85 -378v-286q0 -262 84 -380t271 -118q140 0 230 66
t106 186l120 -14q-10 -162 -133 -254t-327 -92z" />
    <glyph glyph-name="Egrave" unicode="&#xc8;" horiz-adv-x="1183" 
d="M750 1626h-95l-213 281h158zM227 0v1462h834v-108h-707v-559h604v-109h-604v-577h707v-109h-834z" />
    <glyph glyph-name="Eacute" unicode="&#xc9;" horiz-adv-x="1183" 
d="M573 1626l150 281h158l-213 -281h-95zM227 0v1462h834v-108h-707v-559h604v-109h-604v-577h707v-109h-834z" />
    <glyph glyph-name="Ecircumflex" unicode="&#xca;" horiz-adv-x="1183" 
d="M653 1804l-147 -168h-141l251 258h74l252 -258h-139zM227 0v1462h834v-108h-707v-559h604v-109h-604v-577h707v-109h-834z" />
    <glyph glyph-name="Edieresis" unicode="&#xcb;" horiz-adv-x="1183" 
d="M791 1645v194h114v-194h-114zM397 1645v194h115v-194h-115zM227 0v1462h834v-108h-707v-559h604v-109h-604v-577h707v-109h-834z" />
    <glyph glyph-name="Igrave" unicode="&#xcc;" horiz-adv-x="581" 
d="M379 1626h-94l-213 281h157zM227 0v1462h127v-1462h-127z" />
    <glyph glyph-name="Iacute" unicode="&#xcd;" horiz-adv-x="581" 
d="M205 1626l149 281h158l-213 -281h-94zM223 0v1462h127v-1462h-127z" />
    <glyph glyph-name="Icircumflex" unicode="&#xce;" horiz-adv-x="581" 
d="M291 1804l-148 -168h-141l252 258h74l252 -258h-140zM227 0v1462h127v-1462h-127z" />
    <glyph glyph-name="Idieresis" unicode="&#xcf;" horiz-adv-x="581" 
d="M430 1645v194h115v-194h-115zM37 1645v194h115v-194h-115zM227 0v1462h127v-1462h-127z" />
    <glyph glyph-name="Eth" unicode="&#xd0;" horiz-adv-x="1392" 
d="M354 1356v-561h385v-107h-385v-582h310q418 -8 411 461v330q8 467 -411 459h-310zM227 795v667h455q258 4 393 -138t127 -413v-358q6 -271 -127 -413t-393 -140h-455v688h-178v107h178z" />
    <glyph glyph-name="Ntilde" unicode="&#xd1;" horiz-adv-x="1482" 
d="M629 1870q71 0 145 -67t111 -66q57 0 90 116h84q-31 -117 -69 -161t-110 -45q-72 1 -147 67q-74 66 -112 66q-60 0 -91 -117h-84q31 115 71 161t112 46zM227 0v1462h123l780 -1243v1243h125v-1462h-122l-781 1243v-1243h-125z" />
    <glyph glyph-name="Ograve" unicode="&#xd2;" horiz-adv-x="1388" 
d="M786 1626h-94l-213 281h158zM319 563q0 -473 376 -473t376 473v336q0 473 -375 473q-203 0 -303 -145q-74 -111 -74 -328v-336zM193 549v364q0 281 118 416q137 152 394 152t395 -176q98 -133 98 -392v-364q0 -281 -119 -416q-137 -151 -394 -151t-394 176
q-98 133 -98 391z" />
    <glyph glyph-name="Oacute" unicode="&#xd3;" horiz-adv-x="1388" 
d="M608 1626l150 281h157l-213 -281h-94zM319 563q0 -473 376 -473t376 473v336q0 473 -375 473q-203 0 -303 -145q-74 -111 -74 -328v-336zM193 549v364q0 281 118 416q137 152 394 152t395 -176q98 -133 98 -392v-364q0 -281 -119 -416q-137 -151 -394 -151t-394 176
q-98 133 -98 391z" />
    <glyph glyph-name="Ocircumflex" unicode="&#xd4;" horiz-adv-x="1388" 
d="M694 1804l-147 -168h-141l251 258h74l252 -258h-139zM319 563q0 -473 376 -473t376 473v336q0 473 -375 473q-203 0 -303 -145q-74 -111 -74 -328v-336zM193 549v364q0 281 118 416q137 152 394 152t395 -176q98 -133 98 -392v-364q0 -281 -119 -416q-137 -151 -394 -151
t-394 176q-98 133 -98 391z" />
    <glyph glyph-name="Otilde" unicode="&#xd5;" horiz-adv-x="1388" 
d="M572 1870q72 0 145 -67q74 -67 110 -66q57 0 91 116h83q-31 -117 -69 -161t-110 -45q-72 1 -146 67t-113 66q-59 0 -90 -117h-84q31 115 71 161t112 46zM319 563q0 -473 376 -473t376 473v336q0 473 -375 473q-203 0 -303 -145q-74 -111 -74 -328v-336zM193 549v364
q0 281 118 416q137 152 394 152t395 -176q98 -133 98 -392v-364q0 -281 -119 -416q-137 -151 -394 -151t-394 176q-98 133 -98 391z" />
    <glyph glyph-name="Odieresis" unicode="&#xd6;" horiz-adv-x="1388" 
d="M834 1645v194h114v-194h-114zM440 1645v194h115v-194h-115zM319 563q0 -473 376 -473t376 473v336q0 473 -375 473q-203 0 -303 -145q-74 -111 -74 -328v-336zM193 549v364q0 281 118 416q137 152 394 152t395 -176q98 -133 98 -392v-364q0 -281 -119 -416
q-137 -151 -394 -151t-394 176q-98 133 -98 391z" />
    <glyph glyph-name="multiply" unicode="&#xd7;" 
d="M481 750l-340 342l72 71l340 -340l340 340l74 -71l-340 -342l340 -340l-74 -72l-340 340l-340 -340l-72 72z" />
    <glyph glyph-name="Oslash" unicode="&#xd8;" horiz-adv-x="1386" 
d="M694 1372q-377 0 -377 -473v-336q0 -154 37 -254l625 940q-96 123 -285 123zM694 90q375 0 375 473v336q0 156 -33 250l-624 -940q102 -119 282 -119zM1196 913v-364q0 -152 -27 -247t-92 -169q-137 -151 -369 -151t-366 120l-90 -135l-84 62l104 155q-82 127 -82 365
v364q0 568 504 568q221 0 355 -125l88 133l84 -62l-103 -153q78 -131 78 -361z" />
    <glyph glyph-name="Ugrave" unicode="&#xd9;" horiz-adv-x="1417" 
d="M827 1626h-94l-213 281h158zM221 1462h127v-927q0 -215 62 -304q92 -139 290 -139q121 0 198 39t124 123t47 281v927h127v-927q0 -154 -18 -235t-70 -146q-128 -170 -410 -170t-407 194q-39 61 -54 138t-16 219v927z" />
    <glyph glyph-name="Uacute" unicode="&#xda;" horiz-adv-x="1417" 
d="M637 1626l149 281h158l-213 -281h-94zM221 1462h127v-927q0 -215 62 -304q92 -139 290 -139q121 0 198 39t124 123t47 281v927h127v-927q0 -154 -18 -235t-70 -146q-128 -170 -410 -170t-407 194q-39 61 -54 138t-16 219v927z" />
    <glyph glyph-name="Ucircumflex" unicode="&#xdb;" horiz-adv-x="1417" 
d="M709 1804l-148 -168h-141l252 258h73l252 -258h-139zM221 1462h127v-927q0 -215 62 -304q92 -139 290 -139q121 0 198 39t124 123t47 281v927h127v-927q0 -154 -18 -235t-70 -146q-128 -170 -410 -170t-407 194q-39 61 -54 138t-16 219v927z" />
    <glyph glyph-name="Udieresis" unicode="&#xdc;" horiz-adv-x="1417" 
d="M848 1645v194h115v-194h-115zM455 1645v194h114v-194h-114zM221 1462h127v-927q0 -215 62 -304q92 -139 290 -139q121 0 198 39t124 123t47 281v927h127v-927q0 -154 -18 -235t-70 -146q-128 -170 -410 -170t-407 194q-39 61 -54 138t-16 219v927z" />
    <glyph glyph-name="Yacute" unicode="&#xdd;" horiz-adv-x="1079" 
d="M477 1626l150 281h157l-213 -281h-94zM479 0v528l-465 934h136l393 -800l391 800h135l-463 -934v-528h-127z" />
    <glyph glyph-name="Thorn" unicode="&#xde;" horiz-adv-x="1245" 
d="M692 455q328 0 328 332t-328 329h-336v-661h336zM356 346v-346h-127v1462h127v-239h336q242 0 348 -114t106 -332t-122 -333q-106 -98 -332 -98h-336z" />
    <glyph glyph-name="germandbls" unicode="&#xdf;" horiz-adv-x="1161" 
d="M193 0v1112q0 365 368 365q181 0 277 -81t96 -235q0 -82 -23 -133t-84 -110q97 -40 139 -134t42 -278v-82q2 -230 -78 -328t-268 -96h-105v102h92q135 -2 187 66q51 68 49 248v94q0 200 -48 272t-180 68h-39v94h33q164 0 164 203q0 227 -252 227q-129 0 -188 -62
t-60 -200v-1112h-122z" />
    <glyph glyph-name="agrave" unicode="&#xe0;" horiz-adv-x="1067" 
d="M647 1194h-94l-213 281h158zM758 492h-254q-154 0 -217 -48t-63 -160t58 -155t222 -43t223 76q31 37 31 145v185zM758 586v88q0 123 -41 180q-57 80 -212 80t-253 -105l-84 68q123 139 352 139t314 -137q47 -78 47 -240v-659h-101l-10 80q-49 -55 -117 -77t-188 -21
q-199 0 -280 66t-81 235q0 167 86 235t306 68h262z" />
    <glyph glyph-name="aacute" unicode="&#xe1;" horiz-adv-x="1067" 
d="M457 1194l149 281h158l-213 -281h-94zM758 492h-254q-154 0 -217 -48t-63 -160t58 -155t222 -43t223 76q31 37 31 145v185zM758 586v88q0 123 -41 180q-57 80 -212 80t-253 -105l-84 68q123 139 352 139t314 -137q47 -78 47 -240v-659h-101l-10 80q-49 -55 -117 -77
t-188 -21q-199 0 -280 66t-81 235q0 167 86 235t306 68h262z" />
    <glyph glyph-name="acircumflex" unicode="&#xe2;" horiz-adv-x="1067" 
d="M532 1372l-147 -168h-141l252 258h73l252 -258h-139zM758 492h-254q-154 0 -217 -48t-63 -160t58 -155t222 -43t223 76q31 37 31 145v185zM758 586v88q0 123 -41 180q-57 80 -212 80t-253 -105l-84 68q123 139 352 139t314 -137q47 -78 47 -240v-659h-101l-10 80
q-49 -55 -117 -77t-188 -21q-199 0 -280 66t-81 235q0 167 86 235t306 68h262z" />
    <glyph glyph-name="atilde" unicode="&#xe3;" horiz-adv-x="1067" 
d="M410 1438q72 0 146 -67t110 -66q57 0 90 116h84q-31 -117 -69 -161q-39 -44 -111 -46q-72 0 -144 66t-115 66q-57 0 -90 -115h-84q31 115 71 161t112 46zM758 492h-254q-154 0 -217 -48t-63 -160t58 -155t222 -43t223 76q31 37 31 145v185zM758 586v88q0 123 -41 180
q-57 80 -212 80t-253 -105l-84 68q123 139 352 139t314 -137q47 -78 47 -240v-659h-101l-10 80q-49 -55 -117 -77t-188 -21q-199 0 -280 66t-81 235q0 167 86 235t306 68h262z" />
    <glyph glyph-name="adieresis" unicode="&#xe4;" horiz-adv-x="1067" 
d="M674 1212v195h112v-195h-112zM281 1212v195h114v-195h-114zM758 492h-254q-154 0 -217 -48t-63 -160t58 -155t222 -43t223 76q31 37 31 145v185zM758 586v88q0 123 -41 180q-57 80 -212 80t-253 -105l-84 68q123 139 352 139t314 -137q47 -78 47 -240v-659h-101l-10 80
q-49 -55 -117 -77t-188 -21q-199 0 -280 66t-81 235q0 167 86 235t306 68h262z" />
    <glyph glyph-name="aring" unicode="&#xe5;" horiz-adv-x="1067" 
d="M543 1501q-49 0 -77 -34t-28 -93t28 -92t77 -33t77 33t27 92q0 59 -27 93q-28 34 -77 34zM543 1573q90 0 144 -54q54 -53 54 -143t-55 -144t-143 -54t-144 54q-55 54 -55 144t54 144q55 53 145 53zM758 492h-254q-154 0 -217 -48t-63 -160t58 -155t222 -43t223 76
q31 37 31 145v185zM758 586v88q0 123 -41 180q-57 80 -212 80t-253 -105l-84 68q123 139 352 139t314 -137q47 -78 47 -240v-659h-101l-10 80q-49 -55 -117 -77t-188 -21q-199 0 -280 66t-81 235q0 167 86 235t306 68h262z" />
    <glyph glyph-name="ae" unicode="&#xe6;" horiz-adv-x="1712" 
d="M885 588h567v14q0 148 -66 240t-212 92q-144 0 -217 -85t-72 -249v-12zM760 492h-254q-154 0 -217 -48t-63 -160t58 -155t178 -43t170 18q52 18 90 72t38 193v123zM532 1036q238 0 306 -178q88 178 331 178q205 0 304 -118q98 -119 98 -365v-59h-686v-54q0 -172 81 -263
q80 -91 236 -91t240 98l92 -59q-111 -143 -344 -143q-135 0 -222 47t-139 149q-33 -104 -119 -150t-264 -46q-180 0 -260 66t-80 235q0 167 86 235t306 68h262v88q0 125 -41 180q-57 80 -212 80t-253 -105l-84 66q124 141 362 141z" />
    <glyph glyph-name="ccedilla" unicode="&#xe7;" horiz-adv-x="970" 
d="M360 -440l111 293h135l-157 -293h-89zM563 -18q-406 0 -405 467v94q0 494 399 493q221 0 317 -151l-96 -56q-43 57 -91 81t-122 24q-145 0 -215 -94t-69 -291v-115q-1 -170 73 -259t220 -89t229 98l94 -57q-115 -145 -334 -145z" />
    <glyph glyph-name="egrave" unicode="&#xe8;" horiz-adv-x="1107" 
d="M666 1194h-95l-213 281h158zM281 588h567v14q0 148 -67 240t-211 92t-217 -86t-72 -248v-12zM281 494v-54q1 -172 81 -263t235 -91t241 98l92 -59q-109 -143 -344 -143q-428 0 -428 481v90q0 246 99 365q99 118 305 118t305 -118t100 -365v-59h-686z" />
    <glyph glyph-name="eacute" unicode="&#xe9;" horiz-adv-x="1107" 
d="M487 1194l150 281h158l-213 -281h-95zM281 588h567v14q0 148 -67 240t-211 92t-217 -86t-72 -248v-12zM281 494v-54q1 -172 81 -263t235 -91t241 98l92 -59q-109 -143 -344 -143q-428 0 -428 481v90q0 246 99 365q99 118 305 118t305 -118t100 -365v-59h-686z" />
    <glyph glyph-name="ecircumflex" unicode="&#xea;" horiz-adv-x="1107" 
d="M571 1372l-147 -168h-141l252 258h73l252 -258h-139zM281 588h567v14q0 148 -67 240t-211 92t-217 -86t-72 -248v-12zM281 494v-54q1 -172 81 -263t235 -91t241 98l92 -59q-109 -143 -344 -143q-428 0 -428 481v90q0 246 99 365q99 118 305 118t305 -118t100 -365v-59
h-686z" />
    <glyph glyph-name="edieresis" unicode="&#xeb;" horiz-adv-x="1107" 
d="M713 1212v195h112v-195h-112zM319 1212v195h115v-195h-115zM281 588h567v14q0 148 -67 240t-211 92t-217 -86t-72 -248v-12zM281 494v-54q1 -172 81 -263t235 -91t241 98l92 -59q-109 -143 -344 -143q-428 0 -428 481v90q0 246 99 365q99 118 305 118t305 -118t100 -365
v-59h-686z" />
    <glyph glyph-name="igrave" unicode="&#xec;" horiz-adv-x="505" 
d="M338 1194h-94l-213 281h157zM193 0v1018h122v-1018h-122z" />
    <glyph glyph-name="iacute" unicode="&#xed;" horiz-adv-x="505" 
d="M168 1194l149 281h158l-213 -281h-94zM186 0v1018h123v-1018h-123z" />
    <glyph glyph-name="icircumflex" unicode="&#xee;" horiz-adv-x="505" 
d="M252 1372l-148 -168h-141l252 258h74l252 -258h-140zM190 0v1018h123v-1018h-123z" />
    <glyph glyph-name="idieresis" unicode="&#xef;" horiz-adv-x="505" 
d="M391 1212v195h113v-195h-113zM-2 1212v195h115v-195h-115zM190 0v1018h123v-1018h-123z" />
    <glyph glyph-name="eth" unicode="&#xf0;" horiz-adv-x="1138" 
d="M858 434v139q0 350 -289 351q-289 0 -288 -351v-139q1 -348 289 -348t288 348zM158 430v150q0 218 100 332t293 114q143 0 233 -72q-57 166 -118 236l-240 -105l-47 82l213 93q-121 100 -277 126l17 82q209 -23 364 -161l174 75l48 -82l-152 -65q94 -121 154 -304
t61 -351v-150q0 -449 -414 -448q-409 -1 -409 448z" />
    <glyph glyph-name="ntilde" unicode="&#xf1;" horiz-adv-x="1153" 
d="M455 1438q71 0 145 -67t111 -66q57 0 90 116h84q-31 -117 -69 -161t-110 -46q-72 0 -145 66q-72 66 -115 66q-57 0 -90 -115h-84q31 115 71 161t112 46zM195 0v1018h98l10 -137q84 156 299 155q262 0 336 -196q33 -80 33 -254v-586h-123v575q0 147 -31 218
q-61 137 -217 137t-218 -96q-64 -96 -65 -320v-514h-122z" />
    <glyph glyph-name="ograve" unicode="&#xf2;" horiz-adv-x="1138" 
d="M662 1194h-95l-213 281h158zM858 434v148q0 352 -289 352t-288 -352v-148q1 -348 289 -348t288 348zM158 430v158q0 227 101 338t310 110q412 0 412 -448v-158q0 -449 -414 -448q-409 -1 -409 448z" />
    <glyph glyph-name="oacute" unicode="&#xf3;" horiz-adv-x="1138" 
d="M483 1194l150 281h158l-213 -281h-95zM858 434v148q0 352 -289 352t-288 -352v-148q1 -348 289 -348t288 348zM158 430v158q0 227 101 338t310 110q412 0 412 -448v-158q0 -449 -414 -448q-409 -1 -409 448z" />
    <glyph glyph-name="ocircumflex" unicode="&#xf4;" horiz-adv-x="1138" 
d="M569 1372l-147 -168h-141l251 258h74l252 -258h-139zM858 434v148q0 352 -289 352t-288 -352v-148q1 -348 289 -348t288 348zM158 430v158q0 227 101 338t310 110q412 0 412 -448v-158q0 -449 -414 -448q-409 -1 -409 448z" />
    <glyph glyph-name="otilde" unicode="&#xf5;" horiz-adv-x="1138" 
d="M446 1438q72 0 146 -67t110 -66q57 0 91 116h84q-31 -117 -69 -161t-111 -46q-73 0 -145 66t-114 66q-57 0 -90 -115h-84q31 115 71 161q39 46 111 46zM858 434v148q0 352 -289 352t-288 -352v-148q1 -348 289 -348t288 348zM158 430v158q0 227 101 338t310 110
q412 0 412 -448v-158q0 -449 -414 -448q-409 -1 -409 448z" />
    <glyph glyph-name="odieresis" unicode="&#xf6;" horiz-adv-x="1138" 
d="M709 1212v195h112v-195h-112zM315 1212v195h115v-195h-115zM858 434v148q0 352 -289 352t-288 -352v-148q1 -348 289 -348t288 348zM158 430v158q0 227 101 338t310 110q412 0 412 -448v-158q0 -449 -414 -448q-409 -1 -409 448z" />
    <glyph glyph-name="divide" unicode="&#xf7;" 
d="M496 989v166h114v-166h-114zM496 346v166h114v-166h-114zM66 698v103h976v-103h-976z" />
    <glyph glyph-name="oslash" unicode="&#xf8;" horiz-adv-x="1138" 
d="M569 934q-291 0 -290 -352v-146q-1 -112 34 -198l451 628q-70 68 -195 68zM565 88q291 0 291 348v146q0 116 -35 200l-450 -628q68 -66 194 -66zM979 588v-156q0 -449 -412 -448q-170 0 -266 71l-68 -92l-75 57l75 105q-78 109 -77 307v156q0 227 101 338t312 110
q168 0 265 -71l65 92l78 -60l-76 -102q78 -102 78 -307z" />
    <glyph glyph-name="ugrave" unicode="&#xf9;" horiz-adv-x="1130" 
d="M657 1194h-94l-213 281h158zM184 1018h123v-576q0 -145 31 -217q56 -137 206 -137t211 96q60 96 60 320v514h123v-1018h-98l-11 137q-80 -156 -286 -155q-254 0 -328 196q-31 86 -31 254v586z" />
    <glyph glyph-name="uacute" unicode="&#xfa;" horiz-adv-x="1130" 
d="M479 1194l150 281h157l-213 -281h-94zM184 1018h123v-576q0 -145 31 -217q56 -137 206 -137t211 96q60 96 60 320v514h123v-1018h-98l-11 137q-80 -156 -286 -155q-254 0 -328 196q-31 86 -31 254v586z" />
    <glyph glyph-name="ucircumflex" unicode="&#xfb;" horiz-adv-x="1130" 
d="M565 1372l-147 -168h-142l252 258h74l252 -258h-139zM184 1018h123v-576q0 -145 31 -217q56 -137 206 -137t211 96q60 96 60 320v514h123v-1018h-98l-11 137q-80 -156 -286 -155q-254 0 -328 196q-31 86 -31 254v586z" />
    <glyph glyph-name="udieresis" unicode="&#xfc;" horiz-adv-x="1130" 
d="M707 1212v195h112v-195h-112zM313 1212v195h115v-195h-115zM184 1018h123v-576q0 -145 31 -217q56 -137 206 -137t211 96q60 96 60 320v514h123v-1018h-98l-11 137q-80 -156 -286 -155q-254 0 -328 196q-31 86 -31 254v586z" />
    <glyph glyph-name="yacute" unicode="&#xfd;" horiz-adv-x="983" 
d="M422 1194l149 281h158l-213 -281h-94zM131 -367q113 0 158 34t88 149l61 178l-387 1024h125l328 -885l289 885h125l-416 -1219q-61 -170 -129 -219t-242 -51v104z" />
    <glyph glyph-name="thorn" unicode="&#xfe;" horiz-adv-x="1155" 
d="M874 436v146q0 352 -276 352q-281 0 -281 -350v-150q0 -348 281 -348q276 0 276 350zM317 -461h-122v1923h122v-555q10 10 15 17q59 61 124 87t165 25q377 0 376 -448v-156q0 -451 -381 -450q-102 0 -170 30t-129 101v-574z" />
    <glyph glyph-name="ydieresis" unicode="&#xff;" horiz-adv-x="983" 
d="M631 1212v195h112v-195h-112zM238 1212v195h114v-195h-114zM131 -367q113 0 158 34t88 149l61 178l-387 1024h125l328 -885l289 885h125l-416 -1219q-61 -170 -129 -219t-242 -51v104z" />
    <glyph glyph-name="Amacron" unicode="&#x100;" horiz-adv-x="1214" 
d="M365 1714v90h487v-90h-487zM913 440l-305 852l-305 -852h610zM948 334h-680l-116 -334h-140l537 1462h119l536 -1462h-139z" />
    <glyph glyph-name="amacron" unicode="&#x101;" horiz-adv-x="1067" 
d="M291 1282v90h487v-90h-487zM758 492h-254q-154 0 -217 -48t-63 -160t58 -155t222 -43t223 76q31 37 31 145v185zM758 586v88q0 123 -41 180q-57 80 -212 80t-253 -105l-84 68q123 139 352 139t314 -137q47 -78 47 -240v-659h-101l-10 80q-49 -55 -117 -77t-188 -21
q-199 0 -280 66t-81 235q0 167 86 235t306 68h262z" />
    <glyph glyph-name="Abreve" unicode="&#x102;" horiz-adv-x="1214" 
d="M606 1718q86 0 125 38t49 128h88q-8 -150 -64 -207t-198 -57q-182 0 -235 117q-21 45 -27 147h90q8 -92 47 -129t125 -37zM913 440l-305 852l-305 -852h610zM948 334h-680l-116 -334h-140l537 1462h119l536 -1462h-139z" />
    <glyph glyph-name="abreve" unicode="&#x103;" horiz-adv-x="1067" 
d="M539 1286q86 0 125 38t49 128h88q-9 -150 -65 -207t-197 -57q-182 0 -236 117q-21 45 -27 147h91q8 -92 47 -129t125 -37zM758 492h-254q-154 0 -217 -48t-63 -160t58 -155t222 -43t223 76q31 37 31 145v185zM758 586v88q0 123 -41 180q-57 80 -212 80t-253 -105l-84 68
q123 139 352 139t314 -137q47 -78 47 -240v-659h-101l-10 80q-49 -55 -117 -77t-188 -21q-199 0 -280 66t-81 235q0 167 86 235t306 68h262z" />
    <glyph glyph-name="Aogonek" unicode="&#x104;" horiz-adv-x="1214" 
d="M913 440l-305 852l-305 -852h610zM1108 -301q55 0 119 18l12 -77q-76 -25 -149 -25q-203 0 -203 152q0 72 52 134t142 99h-16l-117 334h-680l-116 -334h-140l537 1462h119l536 -1462q-114 -60 -158 -108t-45 -105q0 -88 107 -88z" />
    <glyph glyph-name="aogonek" unicode="&#x105;" horiz-adv-x="1067" 
d="M758 492h-254q-154 0 -217 -48t-63 -160t58 -155t222 -43t223 76q31 37 31 145v185zM678 -213q0 -88 108 -88q53 0 117 18l12 -77q-76 -25 -149 -25q-203 0 -203 151t215 244l-8 70q-49 -55 -117 -77t-188 -21q-199 0 -280 66t-81 235q0 167 86 235t306 68h262v88
q0 123 -41 180q-57 80 -212 80t-253 -105l-84 68q123 139 352 139t314 -137q47 -78 47 -240v-659q-203 -108 -203 -213z" />
    <glyph glyph-name="Cacute" unicode="&#x106;" horiz-adv-x="1300" 
d="M588 1626l149 281h158l-213 -281h-94zM670 -18q-270 0 -391 188q-86 129 -86 414v293q0 170 24 270q25 100 82 172q127 160 373 160q200 1 318 -93t128 -258l-119 -8q-14 119 -100 185t-225 65q-186 0 -270 -118t-85 -378v-286q0 -262 84 -380t271 -118q140 0 230 66
t106 186l120 -14q-10 -162 -133 -254t-327 -92z" />
    <glyph glyph-name="cacute" unicode="&#x107;" horiz-adv-x="970" 
d="M461 1194l149 281h158l-213 -281h-94zM563 -18q-406 0 -405 467v94q0 494 399 493q221 0 317 -151l-96 -56q-43 57 -91 81t-122 24q-145 0 -215 -94t-69 -291v-115q-1 -170 73 -259t220 -89t229 98l94 -57q-115 -145 -334 -145z" />
    <glyph glyph-name="Ccircumflex" unicode="&#x108;" horiz-adv-x="1300" 
d="M672 1804l-148 -168h-141l252 258h74l252 -258h-140zM670 -18q-270 0 -391 188q-86 129 -86 414v293q0 170 24 270q25 100 82 172q127 160 373 160q200 1 318 -93t128 -258l-119 -8q-14 119 -100 185t-225 65q-186 0 -270 -118t-85 -378v-286q0 -262 84 -380t271 -118
q140 0 230 66t106 186l120 -14q-10 -162 -133 -254t-327 -92z" />
    <glyph glyph-name="ccircumflex" unicode="&#x109;" horiz-adv-x="970" 
d="M541 1372l-148 -168h-141l252 258h74l251 -258h-139zM563 -18q-406 0 -405 467v94q0 494 399 493q221 0 317 -151l-96 -56q-43 57 -91 81t-122 24q-145 0 -215 -94t-69 -291v-115q-1 -170 73 -259t220 -89t229 98l94 -57q-115 -145 -334 -145z" />
    <glyph glyph-name="Cdotaccent" unicode="&#x10a;" horiz-adv-x="1300" 
d="M612 1645v194h121v-194h-121zM670 -18q-270 0 -391 188q-86 129 -86 414v293q0 170 24 270q25 100 82 172q127 160 373 160q200 1 318 -93t128 -258l-119 -8q-14 119 -100 185t-225 65q-186 0 -270 -118t-85 -378v-286q0 -262 84 -380t271 -118q140 0 230 66t106 186
l120 -14q-10 -162 -133 -254t-327 -92z" />
    <glyph glyph-name="cdotaccent" unicode="&#x10b;" horiz-adv-x="970" 
d="M487 1212v195h121v-195h-121zM563 -18q-406 0 -405 467v94q0 494 399 493q221 0 317 -151l-96 -56q-43 57 -91 81t-122 24q-145 0 -215 -94t-69 -291v-115q-1 -170 73 -259t220 -89t229 98l94 -57q-115 -145 -334 -145z" />
    <glyph glyph-name="Ccaron" unicode="&#x10c;" horiz-adv-x="1300" 
d="M672 1726l149 168h140l-252 -260h-72l-254 260h141zM670 -18q-270 0 -391 188q-86 129 -86 414v293q0 170 24 270q25 100 82 172q127 160 373 160q200 1 318 -93t128 -258l-119 -8q-14 119 -100 185t-225 65q-186 0 -270 -118t-85 -378v-286q0 -262 84 -380t271 -118
q140 0 230 66t106 186l120 -14q-10 -162 -133 -254t-327 -92z" />
    <glyph glyph-name="ccaron" unicode="&#x10d;" horiz-adv-x="970" 
d="M557 1294l150 168h139l-252 -260h-72l-254 260h142zM563 -18q-406 0 -405 467v94q0 494 399 493q221 0 317 -151l-96 -56q-43 57 -91 81t-122 24q-145 0 -215 -94t-69 -291v-115q-1 -170 73 -259t220 -89t229 98l94 -57q-115 -145 -334 -145z" />
    <glyph glyph-name="Dcaron" unicode="&#x10e;" horiz-adv-x="1392" 
d="M633 1726l149 168h140l-252 -260h-72l-254 260h141zM354 1356v-1250h308q418 -8 411 461v330q8 467 -411 459h-308zM227 0v1462h453q260 4 393 -138t127 -415v-356q6 -271 -127 -413t-393 -140h-453z" />
    <glyph glyph-name="dcaron" unicode="&#x10f;" horiz-adv-x="1277" 
d="M1143 1040l47 433h133l-94 -433h-86zM281 582v-146q0 -350 276 -350q281 0 281 348v150q0 350 -281 350q-276 0 -276 -352zM544 -18q-196 0 -291 110t-95 340v156q0 449 381 448q106 0 174 -30t125 -105v561h123v-1462h-99l-10 121l-37 -43q-75 -96 -271 -96z" />
    <glyph glyph-name="Dcroat" unicode="&#x110;" horiz-adv-x="1392" 
d="M354 1356v-561h385v-107h-385v-582h310q418 -8 411 461v330q8 467 -411 459h-310zM227 795v667h455q258 4 393 -138t127 -413v-358q6 -271 -127 -413t-393 -140h-455v688h-178v107h178z" />
    <glyph glyph-name="dcroat" unicode="&#x111;" horiz-adv-x="1155" 
d="M281 582v-146q0 -350 276 -350q281 0 281 348v150q0 350 -281 350q-276 0 -276 -352zM838 1180h-314v90h314v192h123v-192h172v-90h-172v-1180h-99l-10 121q-6 -6 -37 -43q-75 -96 -271 -96t-291 110t-95 340v156q0 449 381 448q106 0 174 -30t125 -105v279z" />
    <glyph glyph-name="Emacron" unicode="&#x112;" horiz-adv-x="1183" 
d="M399 1714v90h488v-90h-488zM227 0v1462h834v-108h-707v-559h604v-109h-604v-577h707v-109h-834z" />
    <glyph glyph-name="emacron" unicode="&#x113;" horiz-adv-x="1107" 
d="M326 1282v90h487v-90h-487zM281 588h567v14q0 148 -67 240t-211 92t-217 -86t-72 -248v-12zM281 494v-54q1 -172 81 -263t235 -91t241 98l92 -59q-109 -143 -344 -143q-428 0 -428 481v90q0 246 99 365q99 118 305 118t305 -118t100 -365v-59h-686z" />
    <glyph glyph-name="Ebreve" unicode="&#x114;" horiz-adv-x="1183" 
d="M643 1718q86 0 125 38t49 128h88q-8 -150 -64 -207t-198 -57q-182 0 -235 117q-21 45 -27 147h90q8 -92 47 -129t125 -37zM227 0v1462h834v-108h-707v-559h604v-109h-604v-577h707v-109h-834z" />
    <glyph glyph-name="ebreve" unicode="&#x115;" horiz-adv-x="1107" 
d="M563 1286q86 0 125 38t49 128h88q-8 -150 -64 -207t-198 -57q-182 0 -235 117q-21 45 -27 147h90q8 -92 47 -129t125 -37zM281 588h567v14q0 148 -67 240t-211 92t-217 -86t-72 -248v-12zM281 494v-54q1 -172 81 -263t235 -91t241 98l92 -59q-109 -143 -344 -143
q-428 0 -428 481v90q0 246 99 365q99 118 305 118t305 -118t100 -365v-59h-686z" />
    <glyph glyph-name="Edotaccent" unicode="&#x116;" horiz-adv-x="1183" 
d="M594 1645v194h121v-194h-121zM227 0v1462h834v-108h-707v-559h604v-109h-604v-577h707v-109h-834z" />
    <glyph glyph-name="edotaccent" unicode="&#x117;" horiz-adv-x="1107" 
d="M510 1212v195h121v-195h-121zM281 588h567v14q0 148 -67 240t-211 92t-217 -86t-72 -248v-12zM281 494v-54q1 -172 81 -263t235 -91t241 98l92 -59q-109 -143 -344 -143q-428 0 -428 481v90q0 246 99 365q99 118 305 118t305 -118t100 -365v-59h-686z" />
    <glyph glyph-name="Eogonek" unicode="&#x118;" horiz-adv-x="1183" 
d="M227 0v1462h834v-108h-707v-559h604v-109h-604v-577h707v-109q-203 -106 -203 -213q0 -88 109 -88q53 0 114 18l13 -77q-74 -25 -146 -25q-205 -1 -205 149t195 236h-711z" />
    <glyph glyph-name="eogonek" unicode="&#x119;" horiz-adv-x="1107" 
d="M281 588h567v14q0 145 -62 229q-72 101 -216 101t-217 -85t-72 -247v-12zM281 494v-54q1 -172 81 -263t235 -91t241 98l92 -57q-57 -84 -162 -119q-109 -61 -152 -110t-43 -111q0 -88 107 -88q55 0 119 18l10 -77q-74 -25 -145 -25q-205 0 -205 154q0 121 137 213h-21
q-418 0 -417 481v90q0 483 405 483q207 0 305 -118t99 -365v-59h-686z" />
    <glyph glyph-name="Ecaron" unicode="&#x11a;" horiz-adv-x="1183" 
d="M655 1726l150 168h139l-252 -260h-71l-254 260h141zM227 0v1462h834v-108h-707v-559h604v-109h-604v-577h707v-109h-834z" />
    <glyph glyph-name="ecaron" unicode="&#x11b;" horiz-adv-x="1107" 
d="M571 1294l150 168h139l-252 -260h-71l-254 260h141zM281 588h567v14q0 148 -67 240t-211 92t-217 -86t-72 -248v-12zM281 494v-54q1 -172 81 -263t235 -91t241 98l92 -59q-109 -143 -344 -143q-428 0 -428 481v90q0 246 99 365q99 118 305 118t305 -118t100 -365v-59
h-686z" />
    <glyph glyph-name="Gcircumflex" unicode="&#x11c;" horiz-adv-x="1359" 
d="M680 1804l-148 -168h-141l252 258h74l252 -258h-140zM737 647v105h455v-222q0 -145 -26 -235t-87 -160q-135 -154 -385 -153q-283 0 -413 188q-88 131 -88 414v293q0 168 24 269q25 101 84 173q129 160 383 160q205 1 327 -93t132 -258l-119 -10q-16 119 -105 186
t-233 66q-194 0 -280 -118t-87 -380v-284q1 -262 89 -380t286 -118t295 129q76 100 76 287v141h-328z" />
    <glyph glyph-name="gcircumflex" unicode="&#x11d;" horiz-adv-x="1155" 
d="M586 1372l-148 -168h-141l252 258h74l251 -258h-139zM281 582v-146q0 -350 272 -350q285 0 285 348v150q0 350 -285 350q-272 0 -272 -352zM535 -18q-377 0 -377 450v156q0 449 379 448q215 0 317 -145l8 127h99v-1030q0 -465 -424 -465q-231 0 -342 143l92 60
q88 -100 245 -101q304 0 306 350l2 144q-96 -137 -305 -137z" />
    <glyph glyph-name="Gbreve" unicode="&#x11e;" horiz-adv-x="1359" 
d="M684 1718q86 0 125 38t49 128h88q-8 -150 -64 -207t-198 -57q-182 0 -235 117q-21 45 -27 147h90q8 -92 47 -129t125 -37zM737 647v105h455v-222q0 -145 -26 -235t-87 -160q-135 -154 -385 -153q-283 0 -413 188q-88 131 -88 414v293q0 168 24 269q25 101 84 173
q129 160 383 160q205 1 327 -93t132 -258l-119 -10q-16 119 -105 186t-233 66q-194 0 -280 -118t-87 -380v-284q1 -262 89 -380t286 -118t295 129q76 100 76 287v141h-328z" />
    <glyph glyph-name="gbreve" unicode="&#x11f;" horiz-adv-x="1155" 
d="M600 1286q86 0 125 38t49 128h88q-8 -150 -64 -207t-198 -57q-182 0 -235 117q-21 45 -27 147h90q8 -92 47 -129t125 -37zM281 582v-146q0 -350 272 -350q285 0 285 348v150q0 350 -285 350q-272 0 -272 -352zM535 -18q-377 0 -377 450v156q0 449 379 448q215 0 317 -145
l8 127h99v-1030q0 -465 -424 -465q-231 0 -342 143l92 60q88 -100 245 -101q304 0 306 350l2 144q-96 -137 -305 -137z" />
    <glyph glyph-name="Gdotaccent" unicode="&#x120;" horiz-adv-x="1359" 
d="M623 1645v194h120v-194h-120zM737 647v105h455v-222q0 -145 -26 -235t-87 -160q-135 -154 -385 -153q-283 0 -413 188q-88 131 -88 414v293q0 168 24 269q25 101 84 173q129 160 383 160q205 1 327 -93t132 -258l-119 -10q-16 119 -105 186t-233 66q-194 0 -280 -118
t-87 -380v-284q1 -262 89 -380t286 -118t295 129q76 100 76 287v141h-328z" />
    <glyph glyph-name="gdotaccent" unicode="&#x121;" horiz-adv-x="1155" 
d="M541 1212v195h121v-195h-121zM281 582v-146q0 -350 272 -350q285 0 285 348v150q0 350 -285 350q-272 0 -272 -352zM535 -18q-377 0 -377 450v156q0 449 379 448q215 0 317 -145l8 127h99v-1030q0 -465 -424 -465q-231 0 -342 143l92 60q88 -100 245 -101q304 0 306 350
l2 144q-96 -137 -305 -137z" />
    <glyph glyph-name="Gcommaaccent" unicode="&#x122;" horiz-adv-x="1359" 
d="M537 -440l110 293h135l-157 -293h-88zM737 647v105h455v-222q0 -145 -26 -235t-87 -160q-135 -154 -385 -153q-283 0 -413 188q-88 131 -88 414v293q0 168 24 269q25 101 84 173q129 160 383 160q205 1 327 -93t132 -258l-119 -10q-16 119 -105 186t-233 66
q-194 0 -280 -118t-87 -380v-284q1 -262 89 -380t286 -118t295 129q76 100 76 287v141h-328z" />
    <glyph glyph-name="gcommaaccent" unicode="&#x123;" horiz-adv-x="1155" 
d="M502 1194l213 281h94l-150 -281h-157zM281 582v-146q0 -350 272 -350q285 0 285 348v150q0 350 -285 350q-272 0 -272 -352zM535 -18q-377 0 -377 450v156q0 449 379 448q215 0 317 -145l8 127h99v-1030q0 -465 -424 -465q-231 0 -342 143l92 60q88 -100 245 -101
q304 0 306 350l2 144q-96 -137 -305 -137z" />
    <glyph glyph-name="Hcircumflex" unicode="&#x124;" horiz-adv-x="1394" 
d="M696 1804l-147 -168h-141l251 258h74l252 -258h-139zM227 0v1462h127v-667h686v667h127v-1462h-127v686h-686v-686h-127z" />
    <glyph glyph-name="hcircumflex" unicode="&#x125;" horiz-adv-x="1153" 
d="M319 1804l-147 -168h-141l252 258h73l252 -258h-139zM193 0v1462h122v-561q94 135 295 135q250 0 326 -196q33 -84 33 -254v-586h-123v575q0 147 -31 218q-61 137 -217 137t-218 -96q-64 -96 -65 -314v-520h-122z" />
    <glyph glyph-name="Hbar" unicode="&#x126;" horiz-adv-x="1394" 
d="M354 795h686v223h-686v-223zM227 0v1018h-127v96h127v348h127v-348h686v348h127v-348h127v-96h-127v-1018h-127v686h-686v-686h-127z" />
    <glyph glyph-name="hbar" unicode="&#x127;" horiz-adv-x="1153" 
d="M193 1180h-170v90h170v192h122v-192h316v-90h-316v-279q94 135 295 135q250 0 326 -196q33 -80 33 -254v-586h-123v575q0 187 -60 271t-202 84q-140 0 -204 -96t-65 -314v-520h-122v1180z" />
    <glyph glyph-name="Itilde" unicode="&#x128;" horiz-adv-x="581" 
d="M168 1870q72 0 146 -67t110 -66q57 0 90 116h84q-31 -117 -69 -161q-39 -44 -111 -45q-72 1 -146 67t-112 66q-59 0 -90 -117h-84q31 115 70 161q40 46 112 46zM227 0v1462h127v-1462h-127z" />
    <glyph glyph-name="itilde" unicode="&#x129;" horiz-adv-x="505" 
d="M129 1438q71 0 145 -67t111 -66q57 0 90 116h84q-31 -117 -69 -161t-110 -46q-72 0 -145 66q-72 66 -114 66q-57 0 -90 -115h-84q31 115 70 161q40 46 112 46zM193 0v1018h122v-1018h-122z" />
    <glyph glyph-name="Imacron" unicode="&#x12a;" horiz-adv-x="581" 
d="M49 1714v90h488v-90h-488zM229 0v1462h127v-1462h-127z" />
    <glyph glyph-name="imacron" unicode="&#x12b;" horiz-adv-x="505" 
d="M10 1282v90h488v-90h-488zM193 0v1018h122v-1018h-122z" />
    <glyph glyph-name="Ibreve" unicode="&#x12c;" horiz-adv-x="581" 
d="M291 1718q86 0 125 38t49 128h88q-9 -150 -65 -207t-197 -57q-182 0 -236 117q-20 45 -26 147h90q8 -92 47 -129t125 -37zM227 0v1462h127v-1462h-127z" />
    <glyph glyph-name="ibreve" unicode="&#x12d;" horiz-adv-x="505" 
d="M252 1286q86 0 125 38t49 128h88q-8 -150 -64 -207t-198 -57q-182 0 -236 117q-20 45 -26 147h90q8 -92 47 -129t125 -37zM190 0v1018h123v-1018h-123z" />
    <glyph glyph-name="Iogonek" unicode="&#x12e;" horiz-adv-x="581" 
d="M356 1462v-1462q-162 -94 -162 -198t101 -103q53 0 117 18l10 -77q-74 -25 -148 -25q-195 0 -194 162q0 143 166 223h-17v1462h127z" />
    <glyph glyph-name="iogonek" unicode="&#x12f;" horiz-adv-x="505" 
d="M190 1270v196h123v-196h-123zM313 1018v-1018q-86 -55 -122 -102t-35 -105q0 -94 100 -94q53 0 111 18l12 -77q-74 -25 -146 -25q-193 0 -192 158q0 139 152 227h-3v1018h123z" />
    <glyph glyph-name="Idotaccent" unicode="&#x130;" horiz-adv-x="581" 
d="M227 1645v194h121v-194h-121zM225 0v1462h127v-1462h-127z" />
    <glyph glyph-name="dotlessi" unicode="&#x131;" horiz-adv-x="505" 
d="M190 0v1018h123v-1018h-123z" />
    <glyph glyph-name="IJ" unicode="&#x132;" horiz-adv-x="1165" 
d="M811 1462h127v-1372q0 -184 -10 -266t-43 -141q-92 -178 -342 -179q-84 0 -172 27l41 102q68 -20 123 -20q190 0 249 166q27 72 27 305v1378zM227 0v1462h127v-1462h-127z" />
    <glyph glyph-name="ij" unicode="&#x133;" horiz-adv-x="1024" 
d="M707 1270v196h122v-196h-122zM707 1018h122v-1065q5 -238 -79 -332t-301 -92v106q141 -8 201 65t57 241v1077zM190 0v1018h123v-1018h-123zM190 1270v196h123v-196h-123z" />
    <glyph glyph-name="Jcircumflex" unicode="&#x134;" horiz-adv-x="935" 
d="M618 1804l-147 -168h-141l252 258h73l252 -258h-139zM594 1462h127v-893q0 -186 -10 -267t-43 -140q-94 -178 -344 -178q-186 0 -334 127l71 88q113 -106 258 -107q188 0 248 166q27 72 27 305v899z" />
    <glyph glyph-name="jcircumflex" unicode="&#x135;" horiz-adv-x="518" 
d="M254 1372l-148 -168h-141l252 258h74l252 -258h-140zM197 1018h122v-1065q5 -238 -79 -332t-301 -92v106q141 -8 201 65t57 241v1077z" />
    <glyph glyph-name="Kcommaaccent" unicode="&#x136;" horiz-adv-x="1267" 
d="M526 -440l111 293h135l-158 -293h-88zM229 0v1462h127v-866l686 866h150l-473 -585l530 -877h-145l-465 786l-283 -352v-434h-127z" />
    <glyph glyph-name="kcommaaccent" unicode="&#x137;" horiz-adv-x="1028" 
d="M397 -440l111 293h135l-158 -293h-88zM193 0v1462h122v-1069l494 625h141l-346 -430l391 -588h-135l-330 496l-215 -269v-227h-122z" />
    <glyph glyph-name="kgreenlandic" unicode="&#x138;" horiz-adv-x="1028" 
d="M193 0v1018h122v-625l494 625h141l-346 -430l391 -588h-135l-330 496l-215 -269v-227h-122z" />
    <glyph glyph-name="Lacute" unicode="&#x139;" horiz-adv-x="1083" 
d="M260 1626l150 281h157l-213 -281h-94zM227 0v1462h127v-1353h711v-109h-838z" />
    <glyph glyph-name="lacute" unicode="&#x13a;" horiz-adv-x="583" 
d="M207 1626l149 281h158l-213 -281h-94zM190 1462h123v-1175q0 -103 37 -143t133 -40h60v-104h-66q-166 0 -226 62t-61 235v1165z" />
    <glyph glyph-name="Lcommaaccent" unicode="&#x13b;" horiz-adv-x="1083" 
d="M469 -440l111 293h135l-158 -293h-88zM227 0v1462h127v-1353h711v-109h-838z" />
    <glyph glyph-name="lcommaaccent" unicode="&#x13c;" horiz-adv-x="583" 
d="M170 -440l111 293h135l-158 -293h-88zM186 1462h123v-1175q-2 -103 36 -143t134 -40h60v-104h-66q-168 0 -227 61t-60 236v1165z" />
    <glyph glyph-name="Lcaron" unicode="&#x13d;" horiz-adv-x="1083" 
d="M573 1040l48 433h133l-95 -433h-86zM227 0v1462h127v-1353h711v-109h-838z" />
    <glyph glyph-name="lcaron" unicode="&#x13e;" horiz-adv-x="647" 
d="M494 1040l47 433h133l-94 -433h-86zM190 1462h123v-1175q0 -103 37 -143t133 -40h60v-104h-66q-166 0 -226 62t-61 235v1165z" />
    <glyph glyph-name="Ldot" unicode="&#x13f;" horiz-adv-x="1083" 
d="M756 662v178h114v-178h-114zM227 0v1462h127v-1353h711v-109h-838z" />
    <glyph glyph-name="ldot" unicode="&#x140;" horiz-adv-x="622" 
d="M506 662v178h115v-178h-115zM190 1462h123v-1175q0 -103 37 -143t133 -40h60v-104h-66q-166 0 -226 62t-61 235v1165z" />
    <glyph glyph-name="Lslash" unicode="&#x141;" horiz-adv-x="1083" 
d="M227 0v469l-161 -111v121l161 113v870h127v-792l437 299v-121l-437 -301v-438h711v-109h-838z" />
    <glyph glyph-name="lslash" unicode="&#x142;" horiz-adv-x="598" 
d="M197 1462h122v-635l242 168v-123l-242 -167v-418q0 -103 37 -143t133 -40h60v-104h-66q-162 0 -224 59t-62 211v357l-197 -138v123l197 138v712z" />
    <glyph glyph-name="Nacute" unicode="&#x143;" horiz-adv-x="1482" 
d="M690 1626l150 281h157l-213 -281h-94zM227 0v1462h123l780 -1243v1243h125v-1462h-122l-781 1243v-1243h-125z" />
    <glyph glyph-name="nacute" unicode="&#x144;" horiz-adv-x="1153" 
d="M500 1194l149 281h158l-213 -281h-94zM195 0v1018h98l10 -137q84 156 299 155q262 0 336 -196q33 -80 33 -254v-586h-123v575q0 147 -31 218q-61 137 -217 137t-218 -96q-64 -96 -65 -320v-514h-122z" />
    <glyph glyph-name="Ncommaaccent" unicode="&#x145;" horiz-adv-x="1482" 
d="M602 -440l111 293h135l-158 -293h-88zM227 0v1462h123l780 -1243v1243h125v-1462h-122l-781 1243v-1243h-125z" />
    <glyph glyph-name="ncommaaccent" unicode="&#x146;" horiz-adv-x="1153" 
d="M430 -440l111 293h135l-158 -293h-88zM195 0v1018h98l10 -137q84 156 299 155q262 0 336 -196q33 -80 33 -254v-586h-123v575q0 147 -31 218q-61 137 -217 137t-218 -96q-64 -96 -65 -320v-514h-122z" />
    <glyph glyph-name="Ncaron" unicode="&#x147;" horiz-adv-x="1482" 
d="M770 1726l150 168h139l-252 -260h-72l-254 260h142zM227 0v1462h123l780 -1243v1243h125v-1462h-122l-781 1243v-1243h-125z" />
    <glyph glyph-name="ncaron" unicode="&#x148;" horiz-adv-x="1153" 
d="M573 1294l150 168h139l-252 -260h-71l-254 260h141zM195 0v1018h98l10 -137q84 156 299 155q262 0 336 -196q33 -80 33 -254v-586h-123v575q0 147 -31 218q-61 137 -217 137t-218 -96q-64 -96 -65 -320v-514h-122z" />
    <glyph glyph-name="napostrophe" unicode="&#x149;" horiz-adv-x="1206" 
d="M37 991l78 471h133l-109 -471h-102zM246 0v1018h98l10 -137q86 156 299 155q262 0 336 -196q33 -80 33 -254v-586h-123v575q0 147 -31 218q-60 137 -216 137t-220 -96t-63 -320v-514h-123z" />
    <glyph glyph-name="Eng" unicode="&#x14a;" horiz-adv-x="1482" 
d="M227 0v1462h123l780 -1241v1241h125v-1509q5 -238 -79 -332t-299 -92v104q139 -8 200 65t58 236v78l-783 1231v-1243h-125z" />
    <glyph glyph-name="eng" unicode="&#x14b;" horiz-adv-x="1153" 
d="M195 0v1018h98l10 -137q84 156 299 155q262 0 336 -196q33 -80 33 -254v-633q4 -238 -80 -332t-301 -92v106q141 -8 202 64q60 72 56 242v634q0 147 -31 218q-59 137 -215 137t-220 -96t-65 -320v-514h-122z" />
    <glyph glyph-name="Omacron" unicode="&#x14c;" horiz-adv-x="1388" 
d="M453 1714v90h487v-90h-487zM319 563q0 -473 376 -473t376 473v336q0 473 -375 473q-203 0 -303 -145q-74 -111 -74 -328v-336zM193 549v364q0 281 118 416q137 152 394 152t395 -176q98 -133 98 -392v-364q0 -281 -119 -416q-137 -151 -394 -151t-394 176
q-98 133 -98 391z" />
    <glyph glyph-name="omacron" unicode="&#x14d;" horiz-adv-x="1138" 
d="M326 1282v90h487v-90h-487zM858 434v148q0 352 -289 352t-288 -352v-148q1 -348 289 -348t288 348zM158 430v158q0 227 101 338t310 110q412 0 412 -448v-158q0 -449 -414 -448q-409 -1 -409 448z" />
    <glyph glyph-name="Obreve" unicode="&#x14e;" horiz-adv-x="1388" 
d="M694 1718q86 0 125 38t49 128h88q-8 -150 -64 -207t-198 -57q-182 0 -235 117q-21 45 -27 147h90q8 -92 47 -129t125 -37zM319 563q0 -473 376 -473t376 473v336q0 473 -375 473q-203 0 -303 -145q-74 -111 -74 -328v-336zM193 549v364q0 281 118 416q137 152 394 152
t395 -176q98 -133 98 -392v-364q0 -281 -119 -416q-137 -151 -394 -151t-394 176q-98 133 -98 391z" />
    <glyph glyph-name="obreve" unicode="&#x14f;" horiz-adv-x="1138" 
d="M569 1286q86 0 125 38t49 128h88q-8 -150 -64 -207t-198 -57q-182 0 -235 117q-21 45 -27 147h90q8 -92 47 -129t125 -37zM858 434v148q0 352 -289 352t-288 -352v-148q1 -348 289 -348t288 348zM158 430v158q0 227 101 338t310 110q412 0 412 -448v-158
q0 -449 -414 -448q-409 -1 -409 448z" />
    <glyph glyph-name="Ohungarumlaut" unicode="&#x150;" horiz-adv-x="1388" 
d="M764 1626l119 281h145l-174 -281h-90zM514 1626l119 281h145l-174 -281h-90zM319 563q0 -473 376 -473t376 473v336q0 473 -375 473q-203 0 -303 -145q-74 -111 -74 -328v-336zM193 549v364q0 281 118 416q137 152 394 152t395 -176q98 -133 98 -392v-364
q0 -281 -119 -416q-137 -151 -394 -151t-394 176q-98 133 -98 391z" />
    <glyph glyph-name="ohungarumlaut" unicode="&#x151;" horiz-adv-x="1138" 
d="M639 1194l119 281h145l-174 -281h-90zM389 1194l119 281h145l-174 -281h-90zM858 434v148q0 352 -289 352t-288 -352v-148q1 -348 289 -348t288 348zM158 430v158q0 227 101 338t310 110q412 0 412 -448v-158q0 -449 -414 -448q-409 -1 -409 448z" />
    <glyph glyph-name="OE" unicode="&#x152;" horiz-adv-x="2025" 
d="M692 1372q-373 0 -373 -471v-342q0 -469 373 -469q186 0 283 119q96 119 96 350v342q0 471 -379 471zM1085 0v193l-45 -66q-45 -70 -140 -108t-216 -37q-262 0 -395 178q-96 131 -96 385v370q0 279 116 412q129 154 357 154t348 -109q8 -6 71 -96v186h820v-108h-707v-559
h602v-109h-602v-577h707v-109h-820z" />
    <glyph glyph-name="oe" unicode="&#x153;" horiz-adv-x="1810" 
d="M981 588h567v14q0 143 -66 236q-66 94 -210 94q-145 0 -218 -85t-73 -247v-12zM858 438v144q0 352 -289 352t-288 -352v-144q1 -350 289 -350t288 350zM158 432v156q0 449 405 448q137 0 221 -47t136 -153q86 201 348 200q205 0 302 -118t97 -365v-59h-686v-54
q0 -172 81 -263q80 -91 236 -91t240 98l94 -55q-113 -147 -344 -147q-139 0 -227 49t-139 155q-52 -110 -134 -156t-223 -46q-407 -1 -407 448z" />
    <glyph glyph-name="Racute" unicode="&#x154;" horiz-adv-x="1325" 
d="M575 1626l150 281h158l-213 -281h-95zM354 756h373q305 0 305 300t-327 300h-351v-600zM715 1462q444 0 444 -401q0 -352 -313 -399l323 -662h-141l-307 649h-365v-649h-127v1462h486z" />
    <glyph glyph-name="racute" unicode="&#x155;" horiz-adv-x="753" 
d="M362 1194l150 281h158l-213 -281h-95zM195 0v1018h98l12 -131q78 150 260 149q92 0 185 -47l-52 -106q-76 45 -145 45q-125 0 -180 -102t-56 -326v-500h-122z" />
    <glyph glyph-name="Rcommaaccent" unicode="&#x156;" horiz-adv-x="1325" 
d="M512 -440l111 293h135l-158 -293h-88zM354 756h373q305 0 305 300t-327 300h-351v-600zM715 1462q444 0 444 -401q0 -352 -313 -399l323 -662h-141l-307 649h-365v-649h-127v1462h486z" />
    <glyph glyph-name="rcommaaccent" unicode="&#x157;" horiz-adv-x="753" 
d="M84 -440l111 293h135l-158 -293h-88zM195 0v1018h98l12 -131q78 150 260 149q96 0 185 -47l-52 -106q-76 45 -145 45q-125 0 -180 -102t-56 -326v-500h-122z" />
    <glyph glyph-name="Rcaron" unicode="&#x158;" horiz-adv-x="1325" 
d="M653 1726l150 168h139l-252 -260h-72l-253 260h141zM354 756h373q305 0 305 300t-327 300h-351v-600zM715 1462q444 0 444 -401q0 -352 -313 -399l323 -662h-141l-307 649h-365v-649h-127v1462h486z" />
    <glyph glyph-name="rcaron" unicode="&#x159;" horiz-adv-x="753" 
d="M444 1294l150 168h139l-252 -260h-71l-254 260h141zM195 0v1018h98l12 -131q80 150 260 149q92 0 185 -47l-52 -106q-72 45 -145 45q-125 0 -180 -102t-56 -326v-500h-122z" />
    <glyph glyph-name="Sacute" unicode="&#x15a;" horiz-adv-x="1189" 
d="M520 1626l150 281h157l-213 -281h-94zM590 92q174 0 270 77t96 214t-98 205q-43 33 -81 45t-197 53q-224 56 -322 150t-98 266t115 274q116 102 321 103q291 0 405 -166l-100 -66q-86 125 -307 125q-145 0 -227 -73t-82 -197t80 -193t253 -111t222 -60q241 -91 241 -349
q0 -193 -129 -299t-364 -106q-342 -1 -473 200l100 66q98 -158 375 -158z" />
    <glyph glyph-name="sacute" unicode="&#x15b;" horiz-adv-x="954" 
d="M391 1194l150 281h157l-213 -281h-94zM449 86q283 0 282 190q0 104 -76 144q-53 28 -221 52t-231 81q-80 71 -80 201t84 206t239 76q242 0 357 -147l-94 -60q-90 104 -252 105q-215 0 -215 -180q0 -94 69 -133q47 -29 214 -54t235 -75q90 -63 90 -220q0 -291 -397 -290
q-274 0 -387 141l88 63q106 -100 295 -100z" />
    <glyph glyph-name="Scircumflex" unicode="&#x15c;" horiz-adv-x="1189" 
d="M606 1804l-147 -168h-142l252 258h74l252 -258h-139zM590 92q174 0 270 77t96 214t-98 205q-43 33 -81 45t-197 53q-224 56 -322 150t-98 266t115 274q116 102 321 103q291 0 405 -166l-100 -66q-86 125 -307 125q-145 0 -227 -73t-82 -197t80 -193t253 -111t222 -60
q241 -91 241 -349q0 -193 -129 -299t-364 -106q-342 -1 -473 200l100 66q98 -158 375 -158z" />
    <glyph glyph-name="scircumflex" unicode="&#x15d;" horiz-adv-x="954" 
d="M467 1372l-148 -168h-141l252 258h74l252 -258h-140zM449 86q283 0 282 190q0 104 -76 144q-53 28 -221 52t-231 81q-80 71 -80 201t84 206t239 76q242 0 357 -147l-94 -60q-90 104 -252 105q-215 0 -215 -180q0 -94 69 -133q47 -29 214 -54t235 -75q90 -63 90 -220
q0 -291 -397 -290q-274 0 -387 141l88 63q106 -100 295 -100z" />
    <glyph glyph-name="Scedilla" unicode="&#x15e;" horiz-adv-x="1189" 
d="M426 -440l111 293h135l-158 -293h-88zM590 92q174 0 270 77t96 214t-98 205q-43 33 -81 45t-197 53q-224 56 -322 150t-98 266t115 274q116 102 321 103q291 0 405 -166l-100 -66q-86 125 -307 125q-145 0 -227 -73t-82 -197t80 -193t253 -111t222 -60q241 -91 241 -349
q0 -193 -129 -299t-364 -106q-342 -1 -473 200l100 66q98 -158 375 -158z" />
    <glyph glyph-name="scedilla" unicode="&#x15f;" horiz-adv-x="954" 
d="M313 -440l111 293h135l-158 -293h-88zM449 86q283 0 282 190q0 104 -76 144q-53 28 -221 52t-231 81q-80 71 -80 201t84 206t239 76q242 0 357 -147l-94 -60q-90 104 -252 105q-215 0 -215 -180q0 -94 69 -133q47 -29 214 -54t235 -75q90 -63 90 -220q0 -291 -397 -290
q-274 0 -387 141l88 63q106 -100 295 -100z" />
    <glyph glyph-name="Scaron" unicode="&#x160;" horiz-adv-x="1189" 
d="M616 1726l150 168h139l-252 -260h-71l-254 260h141zM590 92q174 0 270 77t96 214t-98 205q-43 33 -81 45t-197 53q-224 56 -322 150t-98 266t115 274q116 102 321 103q291 0 405 -166l-100 -66q-86 125 -307 125q-145 0 -227 -73t-82 -197t80 -193t253 -111t222 -60
q241 -91 241 -349q0 -193 -129 -299t-364 -106q-342 -1 -473 200l100 66q98 -158 375 -158z" />
    <glyph glyph-name="scaron" unicode="&#x161;" horiz-adv-x="954" 
d="M473 1294l150 168h139l-252 -260h-72l-254 260h142zM449 86q283 0 282 190q0 104 -76 144q-53 28 -221 52t-231 81q-80 71 -80 201t84 206t239 76q242 0 357 -147l-94 -60q-90 104 -252 105q-215 0 -215 -180q0 -94 69 -133q47 -29 214 -54t235 -75q90 -63 90 -220
q0 -291 -397 -290q-274 0 -387 141l88 63q106 -100 295 -100z" />
    <glyph glyph-name="Tcommaaccent" unicode="&#x162;" horiz-adv-x="1134" 
d="M403 -440l111 293h135l-157 -293h-89zM506 0v1354h-432v108h987v-108h-428v-1354h-127z" />
    <glyph glyph-name="tcommaaccent" unicode="&#x163;" horiz-adv-x="673" 
d="M219 -440l111 293h135l-158 -293h-88zM229 915h-127v103h127l4 338h119v-338h199v-103h-199v-628q0 -105 37 -145t133 -38h39v-104h-39q-172 -2 -232 59t-61 238v618z" />
    <glyph glyph-name="Tcaron" unicode="&#x164;" horiz-adv-x="1134" 
d="M565 1726l150 168h139l-252 -260h-72l-254 260h142zM506 0v1354h-432v108h987v-108h-428v-1354h-127z" />
    <glyph glyph-name="tcaron" unicode="&#x165;" horiz-adv-x="727" 
d="M594 1130l45 404h133l-92 -404h-86zM229 915h-127v103h127l4 338h119v-338h199v-103h-199v-628q0 -105 37 -145t133 -38h39v-104h-39q-172 -2 -232 59t-61 238v618z" />
    <glyph glyph-name="Tbar" unicode="&#x166;" horiz-adv-x="1134" 
d="M506 0v688h-299v107h299v559h-432v108h987v-108h-428v-559h295v-107h-295v-688h-127z" />
    <glyph glyph-name="tbar" unicode="&#x167;" horiz-adv-x="675" 
d="M231 915h-127v103h127l5 338h118v-338h199v-103h-199v-200h199v-90h-199v-344q0 -101 37 -139t133 -38h39v-104h-39q-168 -2 -229 57t-64 222v346h-127v90h127v200z" />
    <glyph glyph-name="Utilde" unicode="&#x168;" horiz-adv-x="1417" 
d="M586 1870q72 0 146 -67t110 -66q57 0 90 116h84q-31 -117 -69 -161q-39 -44 -111 -45q-72 1 -146 67t-112 66q-60 0 -91 -117h-84q31 115 71 161t112 46zM221 1462h127v-927q0 -215 62 -304q92 -139 290 -139q121 0 198 39t124 123t47 281v927h127v-927q0 -154 -18 -235
t-70 -146q-128 -170 -410 -170t-407 194q-39 61 -54 138t-16 219v927z" />
    <glyph glyph-name="utilde" unicode="&#x169;" horiz-adv-x="1130" 
d="M442 1438q72 0 146 -67t110 -66q57 0 90 116h84q-30 -117 -68 -161t-111 -46q-73 0 -145 66t-114 66q-57 0 -90 -115h-84q31 115 71 161q39 46 111 46zM184 1018h123v-576q0 -145 31 -217q56 -137 206 -137t211 96q60 96 60 320v514h123v-1018h-98l-11 137
q-80 -156 -286 -155q-254 0 -328 196q-31 86 -31 254v586z" />
    <glyph glyph-name="Umacron" unicode="&#x16a;" horiz-adv-x="1417" 
d="M465 1714v90h487v-90h-487zM221 1462h127v-927q0 -215 62 -304q92 -139 290 -139q121 0 198 39t124 123t47 281v927h127v-927q0 -154 -18 -235t-70 -146q-128 -170 -410 -170t-407 194q-39 61 -54 138t-16 219v927z" />
    <glyph glyph-name="umacron" unicode="&#x16b;" horiz-adv-x="1130" 
d="M324 1282v90h487v-90h-487zM184 1018h123v-576q0 -145 31 -217q56 -137 206 -137t211 96q60 96 60 320v514h123v-1018h-98l-11 137q-80 -156 -286 -155q-254 0 -328 196q-31 86 -31 254v586z" />
    <glyph glyph-name="Ubreve" unicode="&#x16c;" horiz-adv-x="1417" 
d="M709 1718q86 0 125 38t49 128h88q-9 -150 -65 -207t-197 -57q-182 0 -236 117q-21 45 -27 147h91q8 -92 47 -129t125 -37zM221 1462h127v-927q0 -215 62 -304q92 -139 290 -139q121 0 198 39t124 123t47 281v927h127v-927q0 -154 -18 -235t-70 -146q-128 -170 -410 -170
t-407 194q-39 61 -54 138t-16 219v927z" />
    <glyph glyph-name="ubreve" unicode="&#x16d;" horiz-adv-x="1130" 
d="M565 1286q86 0 125 38t49 128h88q-8 -150 -64 -207t-198 -57q-182 0 -235 117q-21 45 -27 147h90q8 -92 47 -129t125 -37zM184 1018h123v-576q0 -145 31 -217q56 -137 206 -137t211 96q60 96 60 320v514h123v-1018h-98l-11 137q-80 -156 -286 -155q-254 0 -328 196
q-31 86 -31 254v586z" />
    <glyph glyph-name="Uring" unicode="&#x16e;" horiz-adv-x="1417" 
d="M711 1933q-106 0 -107 -127q0 -59 28 -92t77 -33t77 34t27 92q1 58 -27 92t-75 34zM709 2005q90 0 144 -54q54 -55 54 -143t-54 -143t-144 -55t-145 55q-54 55 -54 144t54 143q55 53 145 53zM221 1462h127v-927q0 -215 62 -304q92 -139 290 -139q121 0 198 39t124 123
t47 281v927h127v-927q0 -154 -18 -235t-70 -146q-128 -170 -410 -170t-407 194q-39 61 -54 138t-16 219v927z" />
    <glyph glyph-name="uring" unicode="&#x16f;" horiz-adv-x="1130" 
d="M565 1501q-49 0 -77 -34t-28 -93t28 -92t77 -33t77 33t28 92t-28 93t-77 34zM367 1376q0 90 54 144t144 53q91 0 145 -54q54 -53 54 -143t-54 -144t-144 -54t-145 54q-54 54 -54 144zM184 1018h123v-576q0 -145 31 -217q56 -137 206 -137t211 96q60 96 60 320v514h123
v-1018h-98l-11 137q-80 -156 -286 -155q-254 0 -328 196q-31 86 -31 254v586z" />
    <glyph glyph-name="Uhungarumlaut" unicode="&#x170;" horiz-adv-x="1417" 
d="M782 1626l119 281h146l-175 -281h-90zM532 1626l119 281h146l-174 -281h-91zM221 1462h127v-927q0 -215 62 -304q92 -139 290 -139q121 0 198 39t124 123t47 281v927h127v-927q0 -154 -18 -235t-70 -146q-128 -170 -410 -170t-407 194q-39 61 -54 138t-16 219v927z" />
    <glyph glyph-name="uhungarumlaut" unicode="&#x171;" horiz-adv-x="1130" 
d="M635 1194l119 281h145l-174 -281h-90zM385 1194l119 281h145l-174 -281h-90zM184 1018h123v-576q0 -145 31 -217q56 -137 206 -137t211 96q60 96 60 320v514h123v-1018h-98l-11 137q-80 -156 -286 -155q-254 0 -328 196q-31 86 -31 254v586z" />
    <glyph glyph-name="Uogonek" unicode="&#x172;" horiz-adv-x="1417" 
d="M221 1462h127v-927q0 -215 62 -304q92 -141 290 -141q121 0 198 39t124 124t47 282v927h127v-927q8 -217 -62 -344q-71 -126 -229 -183q-98 -61 -138 -111t-40 -110q0 -88 109 -88q53 0 116 18l13 -77q-76 -25 -148 -25q-205 0 -205 156q0 121 127 215q-18 -2 -51 -2
q-270 0 -397 194q-39 61 -54 138t-16 219v927z" />
    <glyph glyph-name="uogonek" unicode="&#x173;" horiz-adv-x="1130" 
d="M735 -215q0 -86 107 -86q55 0 119 18l12 -77q-76 -25 -150 -25q-203 0 -202 152q0 152 219 245l-11 125q-80 -156 -286 -155q-254 0 -328 196q-31 86 -31 254v586h123v-576q0 -145 31 -217q56 -137 206 -137t211 96q60 96 60 320v514h123v-1018q-118 -68 -161 -114
q-42 -46 -42 -101z" />
    <glyph glyph-name="Wcircumflex" unicode="&#x174;" horiz-adv-x="1759" 
d="M879 1804l-148 -168h-141l252 258h73l252 -258h-139zM430 0l-367 1462h130l296 -1249l349 1249h84l348 -1249l297 1249h127l-367 -1462h-104l-344 1227l-344 -1227h-105z" />
    <glyph glyph-name="wcircumflex" unicode="&#x175;" horiz-adv-x="1572" 
d="M786 1372l-147 -168h-141l252 258h73l252 -258h-139zM406 0l-318 1018h125l248 -844l284 844h84l285 -844l248 844h125l-318 -1018h-96l-287 823l-284 -823h-96z" />
    <glyph glyph-name="Ycircumflex" unicode="&#x176;" horiz-adv-x="1079" 
d="M541 1804l-148 -168h-141l252 258h74l251 -258h-139zM479 0v528l-465 934h136l393 -800l391 800h135l-463 -934v-528h-127z" />
    <glyph glyph-name="ycircumflex" unicode="&#x177;" horiz-adv-x="983" 
d="M489 1372l-147 -168h-141l252 258h73l252 -258h-139zM131 -367q113 0 158 34t88 149l61 178l-387 1024h125l328 -885l289 885h125l-416 -1219q-61 -170 -129 -219t-242 -51v104z" />
    <glyph glyph-name="Ydieresis" unicode="&#x178;" horiz-adv-x="1079" 
d="M680 1645v194h115v-194h-115zM287 1645v194h114v-194h-114zM479 0v528l-465 934h136l393 -800l391 800h135l-463 -934v-528h-127z" />
    <glyph glyph-name="Zacute" unicode="&#x179;" horiz-adv-x="1095" 
d="M508 1626l149 281h158l-213 -281h-94zM102 0v94l705 1260h-666v108h807v-94l-704 -1259h737v-109h-879z" />
    <glyph glyph-name="zacute" unicode="&#x17a;" horiz-adv-x="966" 
d="M418 1194l149 281h158l-213 -281h-94zM98 0v80l549 833h-508v105h662v-80l-549 -834h582v-104h-736z" />
    <glyph glyph-name="Zdotaccent" unicode="&#x17b;" horiz-adv-x="1095" 
d="M508 1645v194h121v-194h-121zM102 0v94l705 1260h-666v108h807v-94l-704 -1259h737v-109h-879z" />
    <glyph glyph-name="zdotaccent" unicode="&#x17c;" horiz-adv-x="966" 
d="M424 1212v195h121v-195h-121zM98 0v80l549 833h-508v105h662v-80l-549 -834h582v-104h-736z" />
    <glyph glyph-name="Zcaron" unicode="&#x17d;" horiz-adv-x="1095" 
d="M584 1726l149 168h139l-251 -260h-72l-254 260h141zM102 0v94l705 1260h-666v108h807v-94l-704 -1259h737v-109h-879z" />
    <glyph glyph-name="zcaron" unicode="&#x17e;" horiz-adv-x="966" 
d="M498 1294l149 168h139l-251 -260h-72l-254 260h141zM98 0v80l549 833h-508v105h662v-80l-549 -834h582v-104h-736z" />
    <glyph glyph-name="Ohorn" unicode="&#x1a0;" horiz-adv-x="1427" 
d="M319 563q0 -473 376 -473t376 473v336q0 473 -375 473q-203 0 -303 -145q-74 -111 -74 -328v-336zM1425 1411q0 -131 -120 -223q-39 -29 -125 -80q18 -82 18 -195v-364q0 -281 -119 -416q-137 -151 -394 -151t-394 176q-98 133 -98 391v364q0 281 118 416
q137 152 387 152q346 0 461 -289q96 59 128 100q31 42 31 94t-18 95h113q12 -33 12 -70z" />
    <glyph glyph-name="ohorn" unicode="&#x1a1;" horiz-adv-x="1169" 
d="M858 434v148q0 352 -289 352t-288 -352v-148q1 -348 289 -348t288 348zM1198 963q0 -170 -223 -291q6 -61 6 -99v-143q0 -449 -414 -448q-410 0 -409 448v158q0 227 101 338t310 110q328 0 394 -276l10 8q67 47 93 87q50 78 7 181h115q10 -37 10 -73z" />
    <glyph glyph-name="Uhorn" unicode="&#x1af;" horiz-adv-x="1474" 
d="M221 1462h127v-927q0 -215 62 -304q92 -139 290 -139q121 0 198 39t124 123t47 281v927h127v-301q115 55 161 107t46 114q0 60 -19 99h113q12 -37 12 -74q-1 -102 -67 -175t-246 -163v-534q0 -154 -18 -235t-70 -146q-128 -170 -410 -170t-407 194q-39 61 -54 138
t-16 219v927z" />
    <glyph glyph-name="uhorn" unicode="&#x1b0;" horiz-adv-x="1189" 
d="M184 1018h123v-576q0 -145 31 -217q56 -137 206 -137t211 96q60 96 60 320v514h123v-301q115 57 161 108t46 109t-19 102h113q12 -37 12 -73q0 -135 -143 -242q-55 -37 -170 -96v-625h-98l-11 137q-80 -156 -286 -155q-254 0 -328 196q-31 86 -31 254v586z" />
    <glyph glyph-name="uni01C4" unicode="&#x1c4;" horiz-adv-x="2402" 
d="M1868 1726l147 168h142l-252 -260h-74l-252 260h139zM1409 0v94l705 1260h-664v108h805v-94l-703 -1259h736v-109h-879zM354 1356v-1250h308q418 -8 411 461v330q8 467 -411 459h-308zM227 0v1462h453q260 4 393 -138t127 -415v-356q6 -271 -127 -413t-393 -140h-453z
" />
    <glyph glyph-name="uni01C5" unicode="&#x1c5;" horiz-adv-x="2273" 
d="M1794 1294l148 168h141l-254 -260h-72l-254 260h142zM1407 0v80l549 833h-508v105h661v-80l-548 -834h581v-104h-735zM354 1356v-1250h308q418 -8 411 461v330q8 467 -411 459h-308zM227 0v1462h453q260 4 393 -138t127 -415v-356q6 -271 -127 -413t-393 -140h-453z" />
    <glyph glyph-name="uni01C6" unicode="&#x1c6;" horiz-adv-x="2121" 
d="M1649 1294l149 168h139l-251 -260h-72l-254 260h141zM1255 0v80l549 833h-508v105h662v-80l-549 -834h582v-104h-736zM281 582v-146q0 -350 276 -350q283 0 283 348v150q0 350 -283 350q-276 0 -276 -352zM543 -18q-195 0 -290 110t-95 340v156q0 449 381 448
q109 0 177 -30t124 -105v561h123v-1462h-99l-10 121q-49 -61 -90 -86q-86 -53 -221 -53z" />
    <glyph glyph-name="uni01C7" unicode="&#x1c7;" horiz-adv-x="1665" 
d="M1313 1462h127v-1372q0 -186 -10 -267t-44 -140q-92 -178 -342 -179q-84 0 -172 27l41 102q68 -20 123 -20q190 0 250 166q27 74 27 305v1378zM227 0v1462h127v-1353h711v-109h-838z" />
    <glyph glyph-name="uni01C8" unicode="&#x1c8;" horiz-adv-x="1601" 
d="M1284 1018h123v-1065q4 -238 -80 -332t-301 -92v106q141 -8 202 65q60 73 56 241v1077zM1284 1270v196h123v-196h-123zM227 0v1462h127v-1353h711v-109h-838z" />
    <glyph glyph-name="uni01C9" unicode="&#x1c9;" horiz-adv-x="1101" 
d="M784 1018h123v-1065q4 -238 -80 -332t-301 -92v106q141 -8 202 64q60 72 56 242v1077zM784 1270v196h123v-196h-123zM190 1462h123v-1175q0 -103 37 -143t133 -40h60v-104h-66q-166 0 -226 62t-61 235v1165z" />
    <glyph glyph-name="uni01CA" unicode="&#x1ca;" horiz-adv-x="2066" 
d="M1714 1462h127v-1372q0 -184 -10 -266t-43 -141q-92 -178 -342 -179q-84 0 -172 27l41 102q68 -20 123 -20q190 0 250 166q27 72 26 305v1378zM227 0v1462h123l780 -1243v1243h125v-1462h-122l-781 1243v-1243h-125z" />
    <glyph glyph-name="uni01CB" unicode="&#x1cb;" horiz-adv-x="2002" 
d="M1686 1270v196h122v-196h-122zM1686 1018h122v-1065q4 -238 -80 -332t-301 -92v106q141 -8 202 65q60 73 57 241v1077zM227 0v1462h123l780 -1243v1243h125v-1462h-122l-781 1243v-1243h-125z" />
    <glyph glyph-name="uni01CC" unicode="&#x1cc;" horiz-adv-x="1673" 
d="M1356 1270v196h123v-196h-123zM1356 1018h123v-1065q4 -238 -80 -332t-301 -92v106q141 -8 201 64t57 242v1077zM195 0v1018h98l10 -137q84 156 299 155q262 0 336 -196q33 -80 33 -254v-586h-123v575q0 147 -31 218q-61 137 -217 137t-218 -96q-64 -96 -65 -320v-514
h-122z" />
    <glyph glyph-name="uni01CD" unicode="&#x1cd;" horiz-adv-x="1214" 
d="M608 1726l150 168h139l-252 -260h-72l-254 260h142zM913 440l-305 852l-305 -852h610zM948 334h-680l-116 -334h-140l537 1462h119l536 -1462h-139z" />
    <glyph glyph-name="uni01CE" unicode="&#x1ce;" horiz-adv-x="1067" 
d="M539 1294l149 168h139l-252 -260h-71l-254 260h141zM758 492h-254q-154 0 -217 -48t-63 -160t58 -155t222 -43t223 76q31 37 31 145v185zM758 586v88q0 123 -41 180q-57 80 -212 80t-253 -105l-84 68q123 139 352 139t314 -137q47 -78 47 -240v-659h-101l-10 80
q-49 -55 -117 -77t-188 -21q-199 0 -280 66t-81 235q0 167 86 235t306 68h262z" />
    <glyph glyph-name="uni01CF" unicode="&#x1cf;" horiz-adv-x="581" 
d="M291 1726l149 168h140l-252 -260h-72l-254 260h141zM227 0v1462h127v-1462h-127z" />
    <glyph glyph-name="uni01D0" unicode="&#x1d0;" horiz-adv-x="505" 
d="M252 1294l149 168h140l-252 -260h-72l-254 260h141zM190 0v1018h123v-1018h-123z" />
    <glyph glyph-name="uni01D1" unicode="&#x1d1;" horiz-adv-x="1388" 
d="M694 1726l150 168h139l-252 -260h-72l-253 260h141zM319 563q0 -473 377 -473q201 0 301 146q74 110 74 327v336q0 473 -375 473q-203 0 -303 -145q-74 -111 -74 -328v-336zM193 549v364q0 281 120 416q133 152 391 152t396 -176q98 -133 98 -392v-364q0 -281 -121 -416
q-133 -151 -391 -151t-395 176q-98 133 -98 391z" />
    <glyph glyph-name="uni01D2" unicode="&#x1d2;" horiz-adv-x="1138" 
d="M569 1294l150 168h139l-252 -260h-71l-254 260h141zM858 434v148q0 352 -289 352t-288 -352v-148q1 -348 289 -348t288 348zM158 430v158q0 227 101 338t310 110q412 0 412 -448v-158q0 -449 -414 -448q-409 -1 -409 448z" />
    <glyph glyph-name="uni01D3" unicode="&#x1d3;" horiz-adv-x="1417" 
d="M709 1726l149 168h139l-252 -260h-71l-254 260h141zM221 1462h127v-927q0 -215 62 -304q92 -139 290 -139q121 0 198 39t124 123t47 281v927h127v-927q0 -154 -18 -235t-70 -146q-128 -170 -410 -170t-407 194q-39 61 -54 138t-16 219v927z" />
    <glyph glyph-name="uni01D4" unicode="&#x1d4;" horiz-adv-x="1130" 
d="M565 1294l150 168h139l-252 -260h-72l-254 260h142zM184 1018h123v-576q0 -145 31 -217q56 -137 206 -137t211 96q60 96 60 320v514h123v-1018h-98l-11 137q-80 -156 -286 -155q-254 0 -328 196q-31 86 -31 254v586z" />
    <glyph glyph-name="Gcaron" unicode="&#x1e6;" horiz-adv-x="1359" 
d="M684 1726l150 168h139l-252 -260h-72l-254 260h142zM737 647v105h455v-222q0 -145 -26 -235t-87 -160q-135 -154 -385 -153q-283 0 -413 188q-88 131 -88 414v293q0 168 24 269q25 101 84 173q129 160 383 160q205 1 327 -93t132 -258l-119 -10q-16 119 -105 186t-233 66
q-194 0 -280 -118t-87 -380v-284q1 -262 89 -380t286 -118t295 129q76 100 76 287v141h-328z" />
    <glyph glyph-name="gcaron" unicode="&#x1e7;" horiz-adv-x="1155" 
d="M598 1294l150 168h139l-252 -260h-72l-254 260h142zM281 582v-146q0 -350 272 -350q285 0 285 348v150q0 350 -285 350q-272 0 -272 -352zM535 -18q-377 0 -377 450v156q0 449 379 448q215 0 317 -145l8 127h99v-1030q0 -465 -424 -465q-231 0 -342 143l92 60
q88 -100 245 -101q304 0 306 350l2 144q-96 -137 -305 -137z" />
    <glyph glyph-name="uni01EA" unicode="&#x1ea;" horiz-adv-x="1388" 
d="M319 563q0 -473 376 -473t376 473v336q0 473 -375 473q-203 0 -303 -145q-74 -111 -74 -328v-336zM1198 913v-364q8 -432 -313 -541q-170 -111 -170 -221q0 -88 106 -88q55 0 119 18l12 -77q-76 -25 -149 -25q-203 0 -203 156q0 115 123 211h-25q-270 0 -407 176
q-98 133 -98 391v364q0 281 118 416q137 152 394 152t395 -176q98 -134 98 -392z" />
    <glyph glyph-name="uni01EB" unicode="&#x1eb;" horiz-adv-x="1138" 
d="M862 434v148q0 352 -289 352t-288 -352v-148q1 -348 289 -348t288 348zM985 588v-158q0 -346 -244 -426q-150 -102 -149 -215q0 -90 108 -90q53 0 117 18l12 -77q-76 -25 -147 -25q-205 0 -205 156q0 115 113 211h-31q-403 4 -397 448v158q0 227 101 338t310 110
q412 1 412 -448z" />
    <glyph glyph-name="uni01F1" unicode="&#x1f1;" horiz-adv-x="2402" 
d="M1409 0v94l705 1260h-664v108h805v-94l-703 -1259h736v-109h-879zM354 1356v-1250h308q418 -8 411 461v330q8 467 -411 459h-308zM227 0v1462h453q260 4 393 -138t127 -415v-356q6 -271 -127 -413t-393 -140h-453z" />
    <glyph glyph-name="uni01F2" unicode="&#x1f2;" horiz-adv-x="2279" 
d="M1413 0v80l549 833h-508v105h662v-80l-549 -834h581v-104h-735zM360 1356v-1250h308q418 -8 411 461v330q8 467 -411 459h-308zM233 0v1462h453q260 4 393 -138t127 -415v-356q6 -271 -127 -413t-393 -140h-453z" />
    <glyph glyph-name="uni01F3" unicode="&#x1f3;" horiz-adv-x="2121" 
d="M1255 0v80l549 833h-508v105h662v-80l-549 -834h582v-104h-736zM281 582v-146q0 -350 276 -350q283 0 283 348v150q0 350 -283 350q-276 0 -276 -352zM543 -18q-195 0 -290 110t-95 340v156q0 449 381 448q109 0 177 -30t124 -105v561h123v-1462h-99l-10 121
q-49 -61 -90 -86q-86 -53 -221 -53z" />
    <glyph glyph-name="uni01F4" unicode="&#x1f4;" horiz-adv-x="1359" 
d="M606 1626l150 281h157l-213 -281h-94zM737 647v105h455v-222q0 -145 -26 -235t-87 -160q-135 -154 -385 -153q-283 0 -413 188q-88 131 -88 414v293q0 168 24 269q25 101 84 173q129 160 383 160q205 1 327 -93t132 -258l-119 -10q-16 119 -105 186t-233 66
q-194 0 -280 -118t-87 -380v-284q1 -262 89 -380t286 -118t295 129q76 100 76 287v141h-328z" />
    <glyph glyph-name="uni01F5" unicode="&#x1f5;" horiz-adv-x="1155" 
d="M502 1194l149 281h158l-213 -281h-94zM281 582v-146q0 -350 272 -350q285 0 285 348v150q0 350 -285 350q-272 0 -272 -352zM535 -18q-377 0 -377 450v156q0 449 379 448q215 0 317 -145l8 127h99v-1030q0 -465 -424 -465q-231 0 -342 143l92 60q88 -100 245 -101
q304 0 306 350l2 144q-96 -137 -305 -137z" />
    <glyph glyph-name="Aringacute" unicode="&#x1fa;" horiz-adv-x="1214" 
d="M543 1831l112 233h156l-186 -233h-82zM713 1593q0 59 -28 93t-78 34t-78 -34q-27 -34 -27 -92q0 -60 28 -94t77 -34q50 0 78 34t28 93zM913 440l-305 852l-305 -852h610zM607 1792q91 0 145 -53t55 -131q0 -154 -121 -199l518 -1409h-139l-117 334h-680l-116 -334h-140
l516 1409q-55 21 -88 71q-32 50 -32 128t54 130q54 54 145 54z" />
    <glyph glyph-name="aringacute" unicode="&#x1fb;" horiz-adv-x="1067" 
d="M473 1612l113 233h153l-184 -233h-82zM539 1460q-106 0 -107 -127q0 -59 28 -92t78 -33t78 33t27 92q1 59 -27 93t-77 34zM539 1532q92 0 145 -53t53 -143t-55 -145q-55 -54 -144 -54t-145 54q-55 54 -55 144t54 144q55 53 147 53zM758 492h-254q-154 0 -217 -48
t-63 -160t58 -155t222 -43t223 76q31 37 31 145v185zM758 586v88q0 123 -41 180q-57 80 -212 80t-253 -105l-84 68q123 139 352 139t314 -137q47 -78 47 -240v-659h-101l-10 80q-49 -55 -117 -77t-188 -21q-199 0 -280 66t-81 235q0 167 86 235t306 68h262z" />
    <glyph glyph-name="AEacute" unicode="&#x1fc;" horiz-adv-x="1937" 
d="M1260 1626l149 281h158l-213 -281h-94zM985 455v899h-24l-592 -899h616zM985 346h-680l-223 -346h-148l967 1462h916v-108h-707v-559h604v-109h-604v-577h707v-109h-832v346z" />
    <glyph glyph-name="aeacute" unicode="&#x1fd;" horiz-adv-x="1712" 
d="M770 1194l150 281h157l-213 -281h-94zM885 588h567v14q0 148 -66 240t-212 92q-144 0 -217 -85t-72 -249v-12zM760 492h-254q-154 0 -217 -48t-63 -160t58 -155t178 -43t170 18q52 18 90 72t38 193v123zM532 1036q238 0 306 -178q88 178 331 178q205 0 304 -118
q98 -119 98 -365v-59h-686v-54q0 -172 81 -263q80 -91 236 -91t240 98l92 -59q-111 -143 -344 -143q-135 0 -222 47t-139 149q-33 -104 -119 -150t-264 -46q-180 0 -260 66t-80 235q0 167 86 235t306 68h262v88q0 125 -41 180q-57 80 -212 80t-253 -105l-84 66
q124 141 362 141z" />
    <glyph glyph-name="Oslashacute" unicode="&#x1fe;" horiz-adv-x="1386" 
d="M608 1626l150 281h157l-213 -281h-94zM694 1372q-377 0 -377 -473v-336q0 -154 37 -254l625 940q-96 123 -285 123zM694 90q375 0 375 473v336q0 156 -33 250l-624 -940q102 -119 282 -119zM1196 913v-364q0 -152 -27 -247t-92 -169q-137 -151 -369 -151t-366 120
l-90 -135l-84 62l104 155q-82 127 -82 365v364q0 568 504 568q221 0 355 -125l88 133l84 -62l-103 -153q78 -131 78 -361z" />
    <glyph glyph-name="oslashacute" unicode="&#x1ff;" horiz-adv-x="1138" 
d="M481 1194l150 281h157l-213 -281h-94zM569 934q-291 0 -290 -352v-146q-1 -112 34 -198l451 628q-70 68 -195 68zM565 88q291 0 291 348v146q0 116 -35 200l-450 -628q68 -66 194 -66zM979 588v-156q0 -449 -412 -448q-170 0 -266 71l-68 -92l-75 57l75 105
q-78 109 -77 307v156q0 227 101 338t312 110q168 0 265 -71l65 92l78 -60l-76 -102q78 -102 78 -307z" />
    <glyph glyph-name="uni0200" unicode="&#x200;" horiz-adv-x="1214" 
d="M539 1626h-90l-175 281h146zM788 1626h-90l-174 281h146zM913 440l-305 852l-305 -852h610zM948 334h-680l-116 -334h-140l537 1462h119l536 -1462h-139z" />
    <glyph glyph-name="uni0201" unicode="&#x201;" horiz-adv-x="1067" 
d="M492 1194h-91l-174 281h146zM741 1194h-90l-174 281h146zM758 492h-254q-154 0 -217 -48t-63 -160t58 -155t222 -43t223 76q31 37 31 145v185zM758 586v88q0 123 -41 180q-57 80 -212 80t-253 -105l-84 68q123 139 352 139t314 -137q47 -78 47 -240v-659h-101l-10 80
q-49 -55 -117 -77t-188 -21q-199 0 -280 66t-81 235q0 167 86 235t306 68h262z" />
    <glyph glyph-name="uni0202" unicode="&#x202;" horiz-adv-x="1214" 
d="M608 1802q-86 0 -125 -38t-47 -128h-90q8 150 66 207t196 58q184 0 238 -117q18 -48 24 -148h-88q-8 92 -48 129t-126 37zM913 440l-305 852l-305 -852h610zM948 334h-680l-116 -334h-140l537 1462h119l536 -1462h-139z" />
    <glyph glyph-name="uni0203" unicode="&#x203;" horiz-adv-x="1067" 
d="M532 1370q-86 0 -124 -38t-48 -128h-90q8 150 66 207t196 57q184 0 238 -116q19 -48 25 -148h-88q-9 92 -49 129t-126 37zM758 492h-254q-154 0 -217 -48t-63 -160t58 -155t222 -43t223 76q31 37 31 145v185zM758 586v88q0 123 -41 180q-57 80 -212 80t-253 -105l-84 68
q123 139 352 139t314 -137q47 -78 47 -240v-659h-101l-10 80q-49 -55 -117 -77t-188 -21q-199 0 -280 66t-81 235q0 167 86 235t306 68h262z" />
    <glyph glyph-name="uni0204" unicode="&#x204;" horiz-adv-x="1183" 
d="M580 1626h-91l-174 281h146zM829 1626h-90l-174 281h146zM227 0v1462h834v-108h-707v-559h604v-109h-604v-577h707v-109h-834z" />
    <glyph glyph-name="uni0205" unicode="&#x205;" horiz-adv-x="1107" 
d="M514 1194h-90l-174 281h145zM764 1194h-90l-174 281h145zM281 588h567v14q0 148 -67 240t-211 92t-217 -86t-72 -248v-12zM281 494v-54q1 -172 81 -263t235 -91t241 98l92 -59q-109 -143 -344 -143q-428 0 -428 481v90q0 246 99 365q99 118 305 118t305 -118t100 -365
v-59h-686z" />
    <glyph glyph-name="uni0206" unicode="&#x206;" horiz-adv-x="1183" 
d="M653 1802q-86 0 -125 -38t-47 -128h-90q7 150 65 207t197 58q184 0 238 -117q18 -48 24 -148h-88q-8 92 -48 129t-126 37zM227 0v1462h834v-108h-707v-559h604v-109h-604v-577h707v-109h-834z" />
    <glyph glyph-name="uni0207" unicode="&#x207;" horiz-adv-x="1107" 
d="M565 1370q-86 0 -124 -38t-48 -128h-90q7 150 65 207t197 57q184 0 238 -116q18 -48 24 -148h-88q-8 92 -48 129t-126 37zM281 588h567v14q0 148 -67 240t-211 92t-217 -86t-72 -248v-12zM281 494v-54q1 -172 81 -263t235 -91t241 98l92 -59q-109 -143 -344 -143
q-428 0 -428 481v90q0 246 99 365q99 118 305 118t305 -118t100 -365v-59h-686z" />
    <glyph glyph-name="uni0208" unicode="&#x208;" horiz-adv-x="581" 
d="M223 1626h-90l-174 281h145zM473 1626h-90l-174 281h145zM229 0v1462h127v-1462h-127z" />
    <glyph glyph-name="uni0209" unicode="&#x209;" horiz-adv-x="505" 
d="M184 1194h-90l-174 281h146zM434 1194h-90l-174 281h145zM193 0v1018h122v-1018h-122z" />
    <glyph glyph-name="uni020A" unicode="&#x20a;" horiz-adv-x="581" 
d="M291 1802q-86 0 -125 -38t-47 -128h-90q8 150 65 207t197 58q184 0 237 -117q19 -48 25 -148h-88q-8 92 -48 129t-126 37zM227 0v1462h127v-1462h-127z" />
    <glyph glyph-name="uni020B" unicode="&#x20b;" horiz-adv-x="505" 
d="M252 1370q-86 0 -124 -38t-48 -128h-90q8 150 65 207t197 57q184 0 237 -116q19 -48 25 -148h-88q-8 92 -48 129t-126 37zM190 0v1018h123v-1018h-123z" />
    <glyph glyph-name="uni020C" unicode="&#x20c;" horiz-adv-x="1388" 
d="M627 1626h-90l-175 281h146zM877 1626h-91l-174 281h146zM319 563q0 -473 376 -473t376 473v336q0 473 -375 473q-203 0 -303 -145q-74 -111 -74 -328v-336zM193 549v364q0 281 118 416q137 152 394 152t395 -176q98 -133 98 -392v-364q0 -281 -119 -416
q-137 -151 -394 -151t-394 176q-98 133 -98 391z" />
    <glyph glyph-name="uni020D" unicode="&#x20d;" horiz-adv-x="1138" 
d="M500 1194h-90l-174 281h145zM750 1194h-91l-174 281h146zM858 434v148q0 352 -289 352t-288 -352v-148q1 -348 289 -348t288 348zM158 430v158q0 227 101 338t310 110q412 0 412 -448v-158q0 -449 -414 -448q-409 -1 -409 448z" />
    <glyph glyph-name="uni020E" unicode="&#x20e;" horiz-adv-x="1388" 
d="M694 1802q-86 0 -125 -38t-47 -128h-90q8 150 66 207t196 58q184 0 238 -117q18 -48 24 -148h-88q-8 92 -48 129t-126 37zM319 563q0 -473 376 -473t376 473v336q0 473 -375 473q-203 0 -303 -145q-74 -111 -74 -328v-336zM193 549v364q0 281 118 416q137 152 394 152
t395 -176q98 -133 98 -392v-364q0 -281 -119 -416q-137 -151 -394 -151t-394 176q-98 133 -98 391z" />
    <glyph glyph-name="uni020F" unicode="&#x20f;" horiz-adv-x="1138" 
d="M569 1370q-86 0 -124 -38t-48 -128h-90q7 150 65 207t197 57q184 0 238 -116q18 -48 24 -148h-88q-8 92 -48 129t-126 37zM858 434v148q0 352 -289 352t-288 -352v-148q1 -348 289 -348t288 348zM158 430v158q0 227 101 338t310 110q412 0 412 -448v-158
q0 -449 -414 -448q-409 -1 -409 448z" />
    <glyph glyph-name="uni0210" unicode="&#x210;" horiz-adv-x="1325" 
d="M543 1626h-90l-174 281h145zM793 1626h-91l-174 281h146zM354 756h373q305 0 305 300t-327 300h-351v-600zM715 1462q444 0 444 -401q0 -352 -313 -399l323 -662h-141l-307 649h-365v-649h-127v1462h486z" />
    <glyph glyph-name="uni0211" unicode="&#x211;" horiz-adv-x="753" 
d="M365 1194h-91l-174 281h146zM614 1194h-90l-174 281h146zM193 0v1018h98l12 -131q78 150 260 149q92 0 185 -47l-52 -106q-76 45 -145 45q-125 0 -180 -102t-56 -326v-500h-122z" />
    <glyph glyph-name="uni0212" unicode="&#x212;" horiz-adv-x="1325" 
d="M600 1802q-86 0 -125 -38t-47 -128h-90q8 150 65 207t197 58q184 0 238 -117q18 -48 24 -148h-88q-8 92 -48 129t-126 37zM354 756h373q305 0 305 300t-327 300h-351v-600zM715 1462q444 0 444 -401q0 -352 -313 -399l323 -662h-141l-307 649h-365v-649h-127v1462h486z
" />
    <glyph glyph-name="uni0213" unicode="&#x213;" horiz-adv-x="753" 
d="M420 1370q-86 0 -124 -38t-48 -128h-90q8 150 65 207t197 57q184 0 237 -116q19 -48 25 -148h-88q-8 92 -48 129t-126 37zM195 0v1018h98l12 -131q78 150 260 149q96 0 185 -47l-52 -106q-72 45 -145 45q-125 0 -180 -102t-56 -326v-500h-122z" />
    <glyph glyph-name="uni0214" unicode="&#x214;" horiz-adv-x="1417" 
d="M639 1626h-90l-174 281h145zM889 1626h-90l-174 281h145zM221 1462h127v-927q0 -215 62 -304q92 -139 290 -139q121 0 198 39t124 123t47 281v927h127v-927q0 -154 -18 -235t-70 -146q-128 -170 -410 -170t-407 194q-39 61 -54 138t-16 219v927z" />
    <glyph glyph-name="uni0215" unicode="&#x215;" horiz-adv-x="1130" 
d="M498 1194h-90l-175 281h146zM748 1194h-91l-174 281h146zM184 1018h123v-576q0 -145 31 -217q56 -137 206 -137t211 96q60 96 60 320v514h123v-1018h-98l-11 137q-80 -156 -286 -155q-254 0 -328 196q-31 86 -31 254v586z" />
    <glyph glyph-name="uni0216" unicode="&#x216;" horiz-adv-x="1417" 
d="M709 1802q-86 0 -125 -38t-47 -128h-91q8 150 66 207t197 58q184 0 237 -117q19 -48 25 -148h-88q-8 92 -48 129t-126 37zM221 1462h127v-927q0 -215 62 -304q92 -139 290 -139q121 0 198 39t124 123t47 281v927h127v-927q0 -154 -18 -235t-70 -146q-128 -170 -410 -170
t-407 194q-39 61 -54 138t-16 219v927z" />
    <glyph glyph-name="uni0217" unicode="&#x217;" horiz-adv-x="1130" 
d="M565 1370q-86 0 -124 -38t-48 -128h-90q7 150 65 207t197 57q184 0 238 -116q18 -48 24 -148h-88q-8 92 -48 129t-126 37zM184 1018h123v-576q0 -145 31 -217q56 -137 206 -137t211 96q60 96 60 320v514h123v-1018h-98l-11 137q-80 -156 -286 -155q-254 0 -328 196
q-31 86 -31 254v586z" />
    <glyph glyph-name="Scommaaccent" unicode="&#x218;" horiz-adv-x="1189" 
d="M449 -440l110 293h135l-157 -293h-88zM590 92q174 0 270 77t96 214t-98 205q-43 33 -81 45t-197 53q-224 56 -322 150t-98 266t115 274q116 102 321 103q291 0 405 -166l-100 -66q-86 125 -307 125q-145 0 -227 -73t-82 -197t80 -193t253 -111t222 -60q241 -91 241 -349
q0 -193 -129 -299t-364 -106q-342 -1 -473 200l100 66q98 -158 375 -158z" />
    <glyph glyph-name="scommaaccent" unicode="&#x219;" horiz-adv-x="954" 
d="M305 -440l111 293h135l-158 -293h-88zM449 86q283 0 282 190q0 104 -76 144q-53 28 -221 52t-231 81q-80 71 -80 201t84 206t239 76q242 0 357 -147l-94 -60q-90 104 -252 105q-215 0 -215 -180q0 -94 69 -133q47 -29 214 -54t235 -75q90 -63 90 -220q0 -291 -397 -290
q-274 0 -387 141l88 63q106 -100 295 -100z" />
    <glyph glyph-name="uni021A" unicode="&#x21a;" horiz-adv-x="1134" 
d="M403 -440l111 293h135l-157 -293h-89zM506 0v1354h-432v108h987v-108h-428v-1354h-127z" />
    <glyph glyph-name="uni021B" unicode="&#x21b;" horiz-adv-x="673" 
d="M219 -440l111 293h135l-158 -293h-88zM229 915h-127v103h127l4 338h119v-338h199v-103h-199v-628q0 -105 37 -145t133 -38h39v-104h-39q-172 -2 -232 59t-61 238v618z" />
    <glyph glyph-name="uni0226" unicode="&#x226;" horiz-adv-x="1214" 
d="M547 1645v194h121v-194h-121zM913 440l-305 852l-305 -852h610zM948 334h-680l-116 -334h-140l537 1462h119l536 -1462h-139z" />
    <glyph glyph-name="uni0227" unicode="&#x227;" horiz-adv-x="1067" 
d="M487 1212v195h121v-195h-121zM758 492h-254q-154 0 -217 -48t-63 -160t58 -155t222 -43t223 76q31 37 31 145v185zM758 586v88q0 123 -41 180q-57 80 -212 80t-253 -105l-84 68q123 139 352 139t314 -137q47 -78 47 -240v-659h-101l-10 80q-49 -55 -117 -77t-188 -21
q-199 0 -280 66t-81 235q0 167 86 235t306 68h262z" />
    <glyph glyph-name="uni0237" unicode="&#x237;" horiz-adv-x="518" 
d="M201 1018h123v-1065q4 -238 -80 -332t-301 -92v106q141 -8 201 65t57 241v1077z" />
    <glyph glyph-name="afii57929" unicode="&#x2bc;" horiz-adv-x="356" 
d="M74 993l78 469h131l-109 -469h-100z" />
    <glyph glyph-name="uni02C0" unicode="&#x2c0;" horiz-adv-x="1024" 
d="M567 1602h-94q0 48 6 70t37 70t31 75q0 53 -70 53q-39 0 -90 -25l-25 76q70 27 140 27t110 -33t41 -86q0 -53 -38 -105t-43 -67q-5 -16 -5 -55z" />
    <glyph glyph-name="circumflex" unicode="&#x2c6;" horiz-adv-x="1024" 
d="M512 1372l-147 -168h-142l252 258h74l252 -258h-139z" />
    <glyph glyph-name="caron" unicode="&#x2c7;" horiz-adv-x="1024" 
d="M512 1294l150 168h139l-252 -260h-72l-254 260h142z" />
    <glyph glyph-name="uni02C9" unicode="&#x2c9;" horiz-adv-x="1024" 
d="M268 1282v90h488v-90h-488z" />
    <glyph glyph-name="breve" unicode="&#x2d8;" horiz-adv-x="1024" 
d="M512 1286q86 0 125 38t49 128h88q-8 -150 -64 -207t-198 -57q-182 0 -236 117q-20 45 -26 147h90q8 -92 47 -129t125 -37z" />
    <glyph glyph-name="dotaccent" unicode="&#x2d9;" horiz-adv-x="1024" 
d="M451 1212v195h120v-195h-120z" />
    <glyph glyph-name="ring" unicode="&#x2da;" horiz-adv-x="1024" 
d="M512 1501q-49 0 -77 -34q-27 -34 -27 -93t28 -92t76 -33q49 0 77 33t27 92q0 59 -27 93q-28 34 -77 34zM512 1573q90 0 144 -54q54 -53 54 -143t-54 -144t-144 -54t-144 54t-55 144q1 90 55 144t144 53z" />
    <glyph glyph-name="ogonek" unicode="&#x2db;" horiz-adv-x="1024" 
d="M639 -301q53 0 117 18l12 -77q-76 -25 -150 -25q-203 0 -202 152q0 72 51 133t143 100h123q-111 -58 -157 -108t-46 -107q0 -86 109 -86z" />
    <glyph glyph-name="tilde" unicode="&#x2dc;" horiz-adv-x="1024" 
d="M390 1438q72 0 145 -67q74 -67 110 -66q57 0 90 116h84q-31 -117 -69 -161t-110 -46q-72 0 -144 66t-115 66q-57 0 -90 -115h-84q31 115 71 161t112 46z" />
    <glyph glyph-name="hungarumlaut" unicode="&#x2dd;" horiz-adv-x="1024" 
d="M582 1194l118 281h146l-174 -281h-90zM332 1194l119 281h145l-174 -281h-90z" />
    <glyph glyph-name="uni0309" unicode="&#x309;" horiz-adv-x="1024" 
d="M567 1178h-94q0 48 6 70t37 70t31 75q0 53 -68 53q-39 0 -92 -23l-25 74q66 27 132 27q160 0 159 -125q0 -47 -38 -99t-43 -67q-5 -16 -5 -55z" />
    <glyph glyph-name="uni0312" unicode="&#x312;" horiz-adv-x="1024" 
d="M379 1194l213 281h94l-149 -281h-158z" />
    <glyph glyph-name="uni0313" unicode="&#x313;" horiz-adv-x="122" 
d="M-12 1040l47 433h133l-94 -433h-86z" />
    <glyph glyph-name="uni031B" unicode="&#x31b;" horiz-adv-x="122" 
d="M-12 1040l47 433h133l-94 -433h-86z" />
    <glyph glyph-name="uni0323" unicode="&#x323;" horiz-adv-x="1024" 
d="M451 -385v195h120v-195h-120z" />
    <glyph glyph-name="uni037E" unicode="&#x37e;" horiz-adv-x="569" 
d="M231 840v178h127v-178h-127zM131 -385l96 563h142l-133 -563h-105z" />
    <glyph glyph-name="uni0387" unicode="&#x387;" horiz-adv-x="565" 
d="M221 662v178h127v-178h-127z" />
    <glyph glyph-name="uni04D4" unicode="&#x4d4;" horiz-adv-x="1937" 
d="M985 455v899h-24l-592 -899h616zM985 346h-680l-223 -346h-148l967 1462h916v-108h-707v-559h604v-109h-604v-577h707v-109h-832v346z" />
    <glyph glyph-name="uni04D5" unicode="&#x4d5;" horiz-adv-x="1712" 
d="M885 588h567v14q0 148 -66 240t-212 92q-144 0 -217 -85t-72 -249v-12zM760 492h-254q-154 0 -217 -48t-63 -160t58 -155t178 -43t170 18q52 18 90 72t38 193v123zM532 1036q238 0 306 -178q88 178 331 178q205 0 304 -118q98 -119 98 -365v-59h-686v-54q0 -172 81 -263
q80 -91 236 -91t240 98l92 -59q-111 -143 -344 -143q-135 0 -222 47t-139 149q-33 -104 -119 -150t-264 -46q-180 0 -260 66t-80 235q0 167 86 235t306 68h262v88q0 125 -41 180q-57 80 -212 80t-253 -105l-84 66q124 141 362 141z" />
    <glyph glyph-name="uni1E02" unicode="&#x1e02;" horiz-adv-x="1312" 
d="M567 1645v194h121v-194h-121zM354 106h422q133 0 201 66q82 76 82 232t-92 239q-68 57 -191 57h-422v-594zM354 807h394q133 0 200 61q82 72 82 218t-94 219q-68 51 -188 51h-394v-549zM227 0v1462h527q192 0 298 -94t105 -278q0 -229 -186 -326q92 -49 125 -88
q90 -106 90 -300t-127 -298q-92 -78 -275 -78h-557z" />
    <glyph glyph-name="uni1E03" unicode="&#x1e03;" horiz-adv-x="1155" 
d="M600 1212v195h121v-195h-121zM874 436v146q0 352 -276 352q-281 0 -281 -350v-150q0 -348 281 -348q276 0 276 350zM195 0v1462h122v-561q55 72 125 104t174 31q381 0 381 -448v-156q0 -451 -383 -450q-162 0 -256 77q-12 10 -55 62l-10 -121h-98z" />
    <glyph glyph-name="uni1E0C" unicode="&#x1e0c;" horiz-adv-x="1392" 
d="M575 -385v195h121v-195h-121zM354 1356v-1250h308q418 -8 411 461v330q8 467 -411 459h-308zM227 0v1462h453q260 4 393 -138t127 -415v-356q6 -271 -127 -413t-393 -140h-453z" />
    <glyph glyph-name="uni1E0D" unicode="&#x1e0d;" horiz-adv-x="1155" 
d="M553 -385v195h121v-195h-121zM281 582v-146q0 -350 276 -350q281 0 281 348v150q0 350 -281 350q-276 0 -276 -352zM544 -18q-196 0 -291 110t-95 340v156q0 449 381 448q106 0 174 -30t125 -105v561h123v-1462h-99l-10 121l-37 -43q-75 -96 -271 -96z" />
    <glyph glyph-name="uni1E1E" unicode="&#x1e1e;" horiz-adv-x="1116" 
d="M592 1645v194h121v-194h-121zM227 0v1462h830v-108h-703v-572h598v-108h-598v-674h-127z" />
    <glyph glyph-name="uni1E1F" unicode="&#x1e1f;" horiz-adv-x="667" 
d="M356 1645v194h121v-194h-121zM240 915h-131v103h131v190q0 148 57 202t209 52h80v-100h-56q-100 2 -134 -32t-34 -136v-176h236v-103h-236v-915h-122v915z" />
    <glyph glyph-name="uni1E24" unicode="&#x1e24;" horiz-adv-x="1394" 
d="M635 -385v195h121v-195h-121zM227 0v1462h127v-667h686v667h127v-1462h-127v686h-686v-686h-127z" />
    <glyph glyph-name="uni1E25" unicode="&#x1e25;" horiz-adv-x="1153" 
d="M516 -385v195h121v-195h-121zM195 0v1462h122v-561q94 135 293 135q252 0 328 -196q33 -80 33 -254v-586h-123v575q0 187 -60 271t-202 84q-140 0 -204 -96t-65 -314v-520h-122z" />
    <glyph glyph-name="uni1E44" unicode="&#x1e44;" horiz-adv-x="1482" 
d="M705 1645v194h120v-194h-120zM227 0v1462h123l780 -1243v1243h125v-1462h-122l-781 1243v-1243h-125z" />
    <glyph glyph-name="uni1E45" unicode="&#x1e45;" horiz-adv-x="1153" 
d="M516 1212v195h121v-195h-121zM195 0v1018h98l10 -137q84 156 299 155q262 0 336 -196q33 -80 33 -254v-586h-123v575q0 147 -31 218q-61 137 -217 137t-218 -96q-64 -96 -65 -320v-514h-122z" />
    <glyph glyph-name="uni1E5A" unicode="&#x1e5a;" horiz-adv-x="1325" 
d="M600 -385v195h121v-195h-121zM354 756h373q305 0 305 300t-327 300h-351v-600zM715 1462q444 0 444 -401q0 -352 -313 -399l323 -662h-141l-307 649h-365v-649h-127v1462h486z" />
    <glyph glyph-name="uni1E5B" unicode="&#x1e5b;" horiz-adv-x="753" 
d="M195 -385v195h120v-195h-120zM195 0v1018h98l12 -131q78 150 260 149q92 0 185 -47l-52 -106q-76 45 -145 45q-125 0 -180 -102t-56 -326v-500h-122z" />
    <glyph glyph-name="uni1E62" unicode="&#x1e62;" horiz-adv-x="1189" 
d="M528 -385v195h121v-195h-121zM590 92q174 0 270 77t96 214t-98 205q-43 33 -81 45t-197 53q-224 56 -322 150t-98 266t115 274q116 102 321 103q291 0 405 -166l-100 -66q-86 125 -307 125q-145 0 -227 -73t-82 -197t80 -193t253 -111t222 -60q241 -91 241 -349
q0 -193 -129 -299t-364 -106q-342 -1 -473 200l100 66q98 -158 375 -158z" />
    <glyph glyph-name="uni1E63" unicode="&#x1e63;" horiz-adv-x="954" 
d="M403 -381v195h121v-195h-121zM449 86q283 0 282 190q0 104 -76 144q-53 28 -221 52t-231 81q-80 71 -80 201t84 206t239 76q242 0 357 -147l-94 -60q-90 104 -252 105q-215 0 -215 -180q0 -94 69 -133q47 -29 214 -54t235 -75q90 -63 90 -220q0 -291 -397 -290
q-274 0 -387 141l88 63q106 -100 295 -100z" />
    <glyph glyph-name="uni1E6C" unicode="&#x1e6c;" horiz-adv-x="1134" 
d="M504 -385v195h121v-195h-121zM506 0v1354h-432v108h987v-108h-428v-1354h-127z" />
    <glyph glyph-name="uni1E6D" unicode="&#x1e6d;" horiz-adv-x="673" 
d="M276 -385v195h121v-195h-121zM229 915h-127v103h127l4 338h119v-338h199v-103h-199v-628q0 -105 37 -145t133 -38h39v-104h-39q-172 -2 -232 59t-61 238v618z" />
    <glyph glyph-name="Wgrave" unicode="&#x1e80;" horiz-adv-x="1759" 
d="M971 1626h-94l-213 281h157zM430 0l-367 1462h130l296 -1249l349 1249h84l348 -1249l297 1249h127l-367 -1462h-104l-344 1227l-344 -1227h-105z" />
    <glyph glyph-name="wgrave" unicode="&#x1e81;" horiz-adv-x="1572" 
d="M879 1194h-95l-213 281h158zM406 0l-318 1018h125l248 -844l284 844h84l285 -844l248 844h125l-318 -1018h-96l-287 823l-284 -823h-96z" />
    <glyph glyph-name="Wacute" unicode="&#x1e82;" horiz-adv-x="1759" 
d="M793 1626l149 281h158l-213 -281h-94zM430 0l-367 1462h130l296 -1249l349 1249h84l348 -1249l297 1249h127l-367 -1462h-104l-344 1227l-344 -1227h-105z" />
    <glyph glyph-name="wacute" unicode="&#x1e83;" horiz-adv-x="1572" 
d="M700 1194l150 281h158l-213 -281h-95zM406 0l-318 1018h125l248 -844l284 844h84l285 -844l248 844h125l-318 -1018h-96l-287 823l-284 -823h-96z" />
    <glyph glyph-name="Wdieresis" unicode="&#x1e84;" horiz-adv-x="1759" 
d="M1018 1645v194h115v-194h-115zM625 1645v194h114v-194h-114zM430 0l-367 1462h130l296 -1249l349 1249h84l348 -1249l297 1249h127l-367 -1462h-104l-344 1227l-344 -1227h-105z" />
    <glyph glyph-name="wdieresis" unicode="&#x1e85;" horiz-adv-x="1572" 
d="M928 1212v195h112v-195h-112zM535 1212v195h114v-195h-114zM406 0l-318 1018h125l248 -844l284 844h84l285 -844l248 844h125l-318 -1018h-96l-287 823l-284 -823h-96z" />
    <glyph glyph-name="uni1E92" unicode="&#x1e92;" horiz-adv-x="1095" 
d="M506 -381v195h121v-195h-121zM102 0v94l705 1260h-666v108h807v-94l-704 -1259h737v-109h-879z" />
    <glyph glyph-name="uni1E93" unicode="&#x1e93;" horiz-adv-x="966" 
d="M434 -385v195h121v-195h-121zM98 0v80l549 833h-508v105h662v-80l-549 -834h582v-104h-736z" />
    <glyph glyph-name="uni1EA0" unicode="&#x1ea0;" horiz-adv-x="1214" 
d="M547 -385v195h121v-195h-121zM913 440l-305 852l-305 -852h610zM948 334h-680l-116 -334h-140l537 1462h119l536 -1462h-139z" />
    <glyph glyph-name="uni1EA1" unicode="&#x1ea1;" horiz-adv-x="1067" 
d="M471 -385v195h121v-195h-121zM758 492h-254q-154 0 -217 -48t-63 -160t58 -155t222 -43t223 76q31 37 31 145v185zM758 586v88q0 123 -41 180q-57 80 -212 80t-253 -105l-84 68q123 139 352 139t314 -137q47 -78 47 -240v-659h-101l-10 80q-49 -55 -117 -77t-188 -21
q-199 0 -280 66t-81 235q0 167 86 235t306 68h262z" />
    <glyph glyph-name="uni1EA2" unicode="&#x1ea2;" horiz-adv-x="1214" 
d="M569 1602q0 50 6 72t38 69t32 74q0 53 -70 53q-41 0 -92 -25l-24 76q70 27 133 27q160 0 160 -125q0 -47 -38 -99t-44 -66q-4 -15 -6 -56h-95zM913 440l-305 852l-305 -852h610zM948 334h-680l-116 -334h-140l537 1462h119l536 -1462h-139z" />
    <glyph glyph-name="uni1EA3" unicode="&#x1ea3;" horiz-adv-x="1067" 
d="M602 1178h-94q0 50 6 72t38 69t32 74q0 53 -70 53q-39 0 -92 -23l-25 74q68 27 133 27q160 0 160 -125q0 -47 -39 -99t-44 -66q-5 -15 -5 -56zM758 492h-254q-154 0 -217 -48t-63 -160t58 -155t222 -43t223 76q31 37 31 145v185zM758 586v88q0 123 -41 180
q-57 80 -212 80t-253 -105l-84 68q123 139 352 139t314 -137q47 -78 47 -240v-659h-101l-10 80q-49 -55 -117 -77t-188 -21q-199 0 -280 66t-81 235q0 167 86 235t306 68h262z" />
    <glyph glyph-name="uni1EA4" unicode="&#x1ea4;" horiz-adv-x="1214" 
d="M608 1679l-147 -118h-137l249 206h70l248 -206h-135zM539 1823l112 229h133l-168 -229h-77zM913 440l-305 852l-305 -852h610zM948 334h-680l-116 -334h-140l537 1462h119l536 -1462h-139z" />
    <glyph glyph-name="uni1EA5" unicode="&#x1ea5;" horiz-adv-x="1067" 
d="M555 1249l-147 -119h-138l250 205h68l250 -205h-136zM483 1391l115 231h133l-168 -231h-80zM758 492h-254q-154 0 -217 -48t-63 -160t58 -155t222 -43t223 76q31 37 31 145v185zM758 586v88q0 123 -41 180q-57 80 -212 80t-253 -105l-84 68q123 139 352 139t314 -137
q47 -78 47 -240v-659h-101l-10 80q-49 -55 -117 -77t-188 -21q-199 0 -280 66t-81 235q0 167 86 235t306 68h262z" />
    <glyph glyph-name="uni1EA6" unicode="&#x1ea6;" horiz-adv-x="1214" 
d="M608 1679l-147 -118h-137l249 206h70l248 -206h-135zM676 1823h-78l-168 229h133zM913 440l-305 852l-305 -852h610zM948 334h-680l-116 -334h-140l537 1462h119l536 -1462h-139z" />
    <glyph glyph-name="uni1EA7" unicode="&#x1ea7;" horiz-adv-x="1067" 
d="M547 1249l-148 -119h-137l250 205h70l247 -205h-135zM614 1391h-77l-168 231h133zM758 492h-254q-154 0 -217 -48t-63 -160t58 -155t222 -43t223 76q31 37 31 145v185zM758 586v88q0 123 -41 180q-57 80 -212 80t-253 -105l-84 68q123 139 352 139t314 -137
q47 -78 47 -240v-659h-101l-10 80q-49 -55 -117 -77t-188 -21q-199 0 -280 66t-81 235q0 167 86 235t306 68h262z" />
    <glyph glyph-name="uni1EA8" unicode="&#x1ea8;" horiz-adv-x="1214" 
d="M602 1677l-147 -116h-138l250 200h68l250 -200h-137zM653 1796h-88q2 55 37 99t35 65q-1 33 -51 33t-99 -21l-24 66q61 22 128 22t105 -26t37 -68q0 -43 -47 -92q-23 -27 -28 -38t-5 -40zM913 440l-305 852l-305 -852h610zM948 334h-680l-116 -334h-140l537 1462h119
l536 -1462h-139z" />
    <glyph glyph-name="uni1EA9" unicode="&#x1ea9;" horiz-adv-x="1067" 
d="M539 1247l-146 -117h-137l250 199h67l250 -199h-137zM592 1364h-88q0 35 6 51t36 54t29 59q0 33 -52 33t-97 -19l-25 64q66 23 125 22q145 0 146 -98q0 -39 -35 -76t-40 -48t-5 -42zM758 492h-254q-154 0 -217 -48t-63 -160t58 -155t222 -43t223 76q31 37 31 145v185z
M758 586v88q0 123 -41 180q-57 80 -212 80t-253 -105l-84 68q123 139 352 139t314 -137q47 -78 47 -240v-659h-101l-10 80q-49 -55 -117 -77t-188 -21q-199 0 -280 66t-81 235q0 167 86 235t306 68h262z" />
    <glyph glyph-name="uni1EAA" unicode="&#x1eaa;" horiz-adv-x="1214" 
d="M618 1679l-147 -118h-137l250 206h69l248 -206h-135zM525 2032q63 0 117 -60t87 -61q43 0 70 106h75q-24 -104 -58 -146t-94 -42t-114 60t-88 61q-55 -1 -86 -107h-76q27 101 66 145t101 44zM913 440l-305 852l-305 -852h610zM948 334h-680l-116 -334h-140l537 1462h119
l536 -1462h-139z" />
    <glyph glyph-name="uni1EAB" unicode="&#x1eab;" horiz-adv-x="1067" 
d="M545 1249l-148 -119h-137l250 205h70l247 -205h-135zM450 1602q62 0 117 -62t86 -61q45 0 72 106h76q-25 -104 -59 -146t-94 -42t-114 61t-88 62q-53 0 -86 -109h-75q27 102 65 147q38 44 100 44zM758 492h-254q-154 0 -217 -48t-63 -160t58 -155t222 -43t223 76
q31 37 31 145v185zM758 586v88q0 123 -41 180q-57 80 -212 80t-253 -105l-84 68q123 139 352 139t314 -137q47 -78 47 -240v-659h-101l-10 80q-49 -55 -117 -77t-188 -21q-199 0 -280 66t-81 235q0 167 86 235t306 68h262z" />
    <glyph glyph-name="uni1EAC" unicode="&#x1eac;" horiz-adv-x="1214" 
d="M547 -385v195h121v-195h-121zM608 1804l-149 -168h-140l252 258h72l254 -258h-141zM913 440l-305 852l-305 -852h610zM948 334h-680l-116 -334h-140l537 1462h119l536 -1462h-139z" />
    <glyph glyph-name="uni1EAD" unicode="&#x1ead;" horiz-adv-x="1067" 
d="M471 -385v195h121v-195h-121zM535 1372l-150 -168h-141l254 258h71l254 -258h-141zM758 492h-254q-154 0 -217 -48t-63 -160t58 -155t222 -43t223 76q31 37 31 145v185zM758 586v88q0 123 -41 180q-57 80 -212 80t-253 -105l-84 68q123 139 352 139t314 -137
q47 -78 47 -240v-659h-101l-10 80q-49 -55 -117 -77t-188 -21q-199 0 -280 66t-81 235q0 167 86 235t306 68h262z" />
    <glyph glyph-name="uni1EAE" unicode="&#x1eae;" horiz-adv-x="1214" 
d="M350 1794h86q10 -78 48 -111t123 -33t124 34q39 32 47 110h86q-8 -133 -64 -185q-56 -53 -194 -53t-192 52q-56 52 -64 186zM539 1823l112 229h133l-168 -229h-77zM913 440l-305 852l-305 -852h610zM948 334h-680l-116 -334h-140l537 1462h119l536 -1462h-139z" />
    <glyph glyph-name="uni1EAF" unicode="&#x1eaf;" horiz-adv-x="1067" 
d="M276 1362h86q10 -80 48 -113t124 -33q84 0 122 34q38 32 49 112h86q-7 -137 -63 -188q-56 -52 -193 -52t-194 52t-65 188zM463 1391l115 231h133l-168 -231h-80zM758 492h-254q-154 0 -217 -48t-63 -160t58 -155t222 -43t223 76q31 37 31 145v185zM758 586v88
q0 123 -41 180q-57 80 -212 80t-253 -105l-84 68q123 139 352 139t314 -137q47 -78 47 -240v-659h-101l-10 80q-49 -55 -117 -77t-188 -21q-199 0 -280 66t-81 235q0 167 86 235t306 68h262z" />
    <glyph glyph-name="uni1EB0" unicode="&#x1eb0;" horiz-adv-x="1214" 
d="M350 1794h86q10 -78 48 -111t123 -33t124 34q39 32 47 110h86q-8 -133 -64 -185q-56 -53 -194 -53t-192 52q-56 52 -64 186zM680 1823h-78l-168 229h133zM913 440l-305 852l-305 -852h610zM948 334h-680l-116 -334h-140l537 1462h119l536 -1462h-139z" />
    <glyph glyph-name="uni1EB1" unicode="&#x1eb1;" horiz-adv-x="1067" 
d="M276 1362h86q10 -80 48 -113t124 -33q84 0 122 34q38 32 49 112h86q-7 -137 -63 -188q-56 -52 -193 -52t-194 52t-65 188zM610 1391h-80l-168 231h134zM758 492h-254q-154 0 -217 -48t-63 -160t58 -155t222 -43t223 76q31 37 31 145v185zM758 586v88q0 123 -41 180
q-57 80 -212 80t-253 -105l-84 68q123 139 352 139t314 -137q47 -78 47 -240v-659h-101l-10 80q-49 -55 -117 -77t-188 -21q-199 0 -280 66t-81 235q0 167 86 235t306 68h262z" />
    <glyph glyph-name="uni1EB2" unicode="&#x1eb2;" horiz-adv-x="1214" 
d="M350 1794h86q10 -80 48 -113t123 -33t125 34q40 32 48 112h84q-8 -133 -64 -185q-56 -53 -194 -53t-192 52q-56 52 -64 186zM649 1774h-86q0 37 5 54t35 57t30 61q0 45 -66 45q-31 0 -84 -19l-22 66q63 20 121 20q147 0 147 -108q0 -31 -40 -79t-40 -85v-12zM913 440
l-305 852l-305 -852h610zM948 334h-680l-116 -334h-140l537 1462h119l536 -1462h-139z" />
    <glyph glyph-name="uni1EB3" unicode="&#x1eb3;" horiz-adv-x="1067" 
d="M534 1214q84 0 124 33t49 115h84q-7 -137 -63 -188q-56 -52 -193 -52t-194 52t-65 188h86q10 -82 48 -115t124 -33zM575 1341h-88q2 55 35 103q37 47 37 69q0 45 -65 46q-41 0 -84 -17l-23 64q66 23 121 22q147 0 147 -108q0 -33 -40 -81t-40 -85v-13zM758 492h-254
q-154 0 -217 -48t-63 -160t58 -155t222 -43t223 76q31 37 31 145v185zM758 586v88q0 123 -41 180q-57 80 -212 80t-253 -105l-84 68q123 139 352 139t314 -137q47 -78 47 -240v-659h-101l-10 80q-49 -55 -117 -77t-188 -21q-199 0 -280 66t-81 235q0 167 86 235t306 68h262z
" />
    <glyph glyph-name="uni1EB4" unicode="&#x1eb4;" horiz-adv-x="1214" 
d="M346 1786h84q8 -76 46 -109t123 -33t124 32t47 110h84q-8 -131 -63 -180q-55 -50 -191 -50t-192 50q-54 50 -62 180zM508 2050q62 0 116 -61t87 -62q47 0 71 109h76q-25 -106 -57 -149q-33 -42 -94 -42q-61 -1 -115 61t-88 62q-55 1 -86 -108h-76q29 102 66 146t100 44z
M913 440l-305 852l-305 -852h610zM948 334h-680l-116 -334h-140l537 1462h119l536 -1462h-139z" />
    <glyph glyph-name="uni1EB5" unicode="&#x1eb5;" horiz-adv-x="1067" 
d="M539 1212q83 0 121 32t49 110h84q-7 -131 -63 -180q-56 -50 -192 -50t-190 50t-63 180h84q8 -78 47 -110t123 -32zM446 1618q64 0 118 -60t85 -61q47 0 72 107h76q-25 -104 -59 -146t-94 -43q-60 1 -114 61t-88 60q-51 0 -86 -106h-75q29 102 65 145q37 43 100 43z
M758 492h-254q-154 0 -217 -48t-63 -160t58 -155t222 -43t223 76q31 37 31 145v185zM758 586v88q0 123 -41 180q-57 80 -212 80t-253 -105l-84 68q123 139 352 139t314 -137q47 -78 47 -240v-659h-101l-10 80q-49 -55 -117 -77t-188 -21q-199 0 -280 66t-81 235
q0 167 86 235t306 68h262z" />
    <glyph glyph-name="uni1EB6" unicode="&#x1eb6;" horiz-adv-x="1214" 
d="M547 -385v195h121v-195h-121zM608 1718q86 0 124 37t48 129h90q-10 -150 -66 -207t-196 -57q-184 0 -237 117q-19 45 -27 147h90q8 -92 48 -129t126 -37zM913 440l-305 852l-305 -852h610zM948 334h-680l-116 -334h-140l537 1462h119l536 -1462h-139z" />
    <glyph glyph-name="uni1EB7" unicode="&#x1eb7;" horiz-adv-x="1067" 
d="M471 -385v195h121v-195h-121zM551 1286q86 0 125 37t49 129h88q-8 -150 -64 -207q-57 -57 -197 -57t-198 57q-57 57 -65 207h90q8 -92 47 -129t125 -37zM758 492h-254q-154 0 -217 -48t-63 -160t58 -155t222 -43t223 76q31 37 31 145v185zM758 586v88q0 123 -41 180
q-57 80 -212 80t-253 -105l-84 68q123 139 352 139t314 -137q47 -78 47 -240v-659h-101l-10 80q-49 -55 -117 -77t-188 -21q-199 0 -280 66t-81 235q0 167 86 235t306 68h262z" />
    <glyph glyph-name="uni1EB8" unicode="&#x1eb8;" horiz-adv-x="1183" 
d="M594 -385v195h121v-195h-121zM227 0v1462h834v-108h-707v-559h604v-109h-604v-577h707v-109h-834z" />
    <glyph glyph-name="uni1EB9" unicode="&#x1eb9;" horiz-adv-x="1107" 
d="M498 -385v195h120v-195h-120zM281 588h567v14q0 148 -67 240t-211 92t-217 -86t-72 -248v-12zM281 494v-54q1 -172 81 -263t235 -91t241 98l92 -59q-109 -143 -344 -143q-428 0 -428 481v90q0 246 99 365q99 118 305 118t305 -118t100 -365v-59h-686z" />
    <glyph glyph-name="uni1EBA" unicode="&#x1eba;" horiz-adv-x="1183" 
d="M633 1870q-41 0 -92 -25l-25 76q70 27 133 27q160 0 160 -125q0 -49 -38 -99t-44 -67q-6 -16 -4 -55h-96q2 53 7 71q5 17 37 67t31 77q0 53 -69 53zM227 0v1462h834v-108h-707v-559h604v-109h-604v-577h707v-109h-834z" />
    <glyph glyph-name="uni1EBB" unicode="&#x1ebb;" horiz-adv-x="1107" 
d="M627 1178h-95q0 48 6 70t38 70q30 48 30 75q0 53 -67 53q-39 0 -93 -23l-24 74q66 27 131 27q160 0 160 -125q0 -49 -38 -99t-43 -67q-5 -16 -5 -55zM281 588h567v14q0 148 -67 240t-211 92t-217 -86t-72 -248v-12zM281 494v-54q1 -172 81 -263t235 -91t241 98l92 -59
q-109 -143 -344 -143q-428 0 -428 481v90q0 246 99 365q99 118 305 118t305 -118t100 -365v-59h-686z" />
    <glyph glyph-name="uni1EBC" unicode="&#x1ebc;" horiz-adv-x="1183" 
d="M535 1870q71 0 145 -67t111 -66q57 0 90 116h84q-31 -117 -69 -161t-111 -45q-73 1 -147 67t-112 66q-59 0 -90 -117h-84q31 115 71 161t112 46zM227 0v1462h834v-108h-707v-559h604v-109h-604v-577h707v-109h-834z" />
    <glyph glyph-name="uni1EBD" unicode="&#x1ebd;" horiz-adv-x="1107" 
d="M436 1438q72 0 146 -67t110 -66q57 0 90 116h84q-30 -117 -68 -161t-111 -46q-73 0 -145 66t-114 66q-57 0 -90 -115h-84q31 115 71 161q39 46 111 46zM281 588h567v14q0 148 -67 240t-211 92t-217 -86t-72 -248v-12zM281 494v-54q1 -172 81 -263t235 -91t241 98l92 -59
q-109 -143 -344 -143q-428 0 -428 481v90q0 246 99 365q99 118 305 118t305 -118t100 -365v-59h-686z" />
    <glyph glyph-name="uni1EBE" unicode="&#x1ebe;" horiz-adv-x="1183" 
d="M655 1679l-147 -118h-137l250 206h69l248 -206h-135zM586 1823l112 229h133l-167 -229h-78zM227 0v1462h834v-108h-707v-559h604v-109h-604v-577h707v-109h-834z" />
    <glyph glyph-name="uni1EBF" unicode="&#x1ebf;" horiz-adv-x="1107" 
d="M567 1249l-147 -119h-135l247 205h70l250 -205h-137zM498 1391l114 231h131l-165 -231h-80zM281 588h567v14q0 148 -67 240t-211 92t-217 -86t-72 -248v-12zM281 494v-54q1 -172 81 -263t235 -91t241 98l92 -59q-109 -143 -344 -143q-428 0 -428 481v90q0 246 99 365
q99 118 305 118t305 -118t100 -365v-59h-686z" />
    <glyph glyph-name="uni1EC0" unicode="&#x1ec0;" horiz-adv-x="1183" 
d="M655 1679l-147 -118h-137l250 206h69l248 -206h-135zM723 1823h-78l-168 229h133zM227 0v1462h834v-108h-707v-559h604v-109h-604v-577h707v-109h-834z" />
    <glyph glyph-name="uni1EC1" unicode="&#x1ec1;" horiz-adv-x="1107" 
d="M567 1249l-147 -119h-135l247 205h70l250 -205h-137zM637 1391h-80l-168 231h133zM281 588h567v14q0 148 -67 240t-211 92t-217 -86t-72 -248v-12zM281 494v-54q1 -172 81 -263t235 -91t241 98l92 -59q-109 -143 -344 -143q-428 0 -428 481v90q0 246 99 365
q99 118 305 118t305 -118t100 -365v-59h-686z" />
    <glyph glyph-name="uni1EC2" unicode="&#x1ec2;" horiz-adv-x="1183" 
d="M649 1677l-147 -116h-137l249 200h70l248 -200h-135zM684 1960q0 33 -51 33t-98 -21l-23 66q59 22 126 22q66 0 104 -26t38 -68q0 -43 -35 -80t-39 -47t-6 -43h-88q2 55 37 99t35 65zM227 0v1462h834v-108h-707v-559h604v-109h-604v-577h707v-109h-834z" />
    <glyph glyph-name="uni1EC3" unicode="&#x1ec3;" horiz-adv-x="1107" 
d="M561 1247l-147 -117h-135l247 199h70l250 -199h-137zM526 1364q0 37 5 52t35 53t30 59q0 33 -64 33q-33 0 -86 -19l-22 64q66 23 123 22q145 0 145 -98q0 -39 -40 -82t-38 -84h-88zM281 588h567v14q0 148 -67 240t-211 92t-217 -86t-72 -248v-12zM281 494v-54
q1 -172 81 -263t235 -91t241 98l92 -59q-109 -143 -344 -143q-428 0 -428 481v90q0 246 99 365q99 118 305 118t305 -118t100 -365v-59h-686z" />
    <glyph glyph-name="uni1EC4" unicode="&#x1ec4;" horiz-adv-x="1183" 
d="M666 1679l-148 -118h-135l248 206h69l250 -206h-137zM573 2032q63 0 117 -60t86 -61q43 0 70 106h76q-25 -104 -59 -146t-94 -42q-59 0 -113 60t-87 61q-53 -1 -88 -107h-75q29 102 66 146q38 43 101 43zM227 0v1462h834v-108h-707v-559h604v-109h-604v-577h707v-109
h-834z" />
    <glyph glyph-name="uni1EC5" unicode="&#x1ec5;" horiz-adv-x="1107" 
d="M571 1249l-147 -119h-137l250 205h69l248 -205h-135zM477 1602q61 0 117 -62t88 -61q43 0 70 106h75q-25 -104 -59 -146t-93 -42t-113 61t-89 62q-57 0 -86 -109h-76q27 103 66 147t100 44zM281 588h567v14q0 148 -67 240t-211 92t-217 -86t-72 -248v-12zM281 494v-54
q1 -172 81 -263t235 -91t241 98l92 -59q-109 -143 -344 -143q-428 0 -428 481v90q0 246 99 365q99 118 305 118t305 -118t100 -365v-59h-686z" />
    <glyph glyph-name="uni1EC6" unicode="&#x1ec6;" horiz-adv-x="1183" 
d="M594 -385v195h121v-195h-121zM653 1804l-149 -168h-139l251 258h72l254 -258h-141zM227 0v1462h834v-108h-707v-559h604v-109h-604v-577h707v-109h-834z" />
    <glyph glyph-name="uni1EC7" unicode="&#x1ec7;" horiz-adv-x="1107" 
d="M492 -385v195h120v-195h-120zM573 1372l-149 -168h-141l254 258h71l254 -258h-141zM281 588h567v14q0 148 -67 240t-211 92t-217 -86t-72 -248v-12zM281 494v-54q1 -172 81 -263t235 -91t241 98l92 -59q-109 -143 -344 -143q-428 0 -428 481v90q0 246 99 365
q99 118 305 118t305 -118t100 -365v-59h-686z" />
    <glyph glyph-name="uni1EC8" unicode="&#x1ec8;" horiz-adv-x="581" 
d="M348 1602h-94q0 48 6 70t37 70t31 75q0 53 -70 53q-39 0 -90 -25l-25 76q69 27 139 27t111 -33t41 -86t-38 -105t-43 -67q-5 -16 -5 -55zM227 0v1462h127v-1462h-127z" />
    <glyph glyph-name="uni1EC9" unicode="&#x1ec9;" horiz-adv-x="505" 
d="M309 1178h-94q0 48 6 70t37 70t31 75q0 53 -68 53q-39 0 -92 -23l-25 74q66 27 132 27q160 0 159 -125q0 -47 -38 -99t-43 -67q-5 -16 -5 -55zM193 0v1018h122v-1018h-122z" />
    <glyph glyph-name="uni1ECA" unicode="&#x1eca;" horiz-adv-x="581" 
d="M229 -385v195h121v-195h-121zM227 0v1462h127v-1462h-127z" />
    <glyph glyph-name="uni1ECB" unicode="&#x1ecb;" horiz-adv-x="505" 
d="M190 -385v195h121v-195h-121zM190 0v1018h123v-1018h-123zM190 1270v196h123v-196h-123z" />
    <glyph glyph-name="uni1ECC" unicode="&#x1ecc;" horiz-adv-x="1388" 
d="M633 -385v195h121v-195h-121zM319 563q0 -473 376 -473t376 473v336q0 473 -375 473q-203 0 -303 -145q-74 -111 -74 -328v-336zM193 549v364q0 281 118 416q137 152 394 152t395 -176q98 -133 98 -392v-364q0 -281 -119 -416q-137 -151 -394 -151t-394 176
q-98 133 -98 391z" />
    <glyph glyph-name="uni1ECD" unicode="&#x1ecd;" horiz-adv-x="1138" 
d="M508 -385v195h121v-195h-121zM858 434v148q0 352 -289 352t-288 -352v-148q1 -348 289 -348t288 348zM158 430v158q0 227 101 338t310 110q412 0 412 -448v-158q0 -449 -414 -448q-409 -1 -409 448z" />
    <glyph glyph-name="uni1ECE" unicode="&#x1ece;" horiz-adv-x="1388" 
d="M752 1602h-97q2 53 8 72q5 20 37 68t31 75q0 53 -69 53q-39 0 -91 -25l-24 76q70 27 131 27q160 0 160 -125q0 -49 -38 -99t-44 -67q-4 -16 -4 -55zM319 563q0 -473 376 -473t376 473v336q0 473 -375 473q-203 0 -303 -145q-74 -111 -74 -328v-336zM193 549v364
q0 281 118 416q137 152 394 152t395 -176q98 -133 98 -392v-364q0 -281 -119 -416q-137 -151 -394 -151t-394 176q-98 133 -98 391z" />
    <glyph glyph-name="uni1ECF" unicode="&#x1ecf;" horiz-adv-x="1138" 
d="M627 1178h-97q2 53 8 71q4 17 36 67t32 77q0 53 -69 53q-35 0 -93 -23l-22 74q66 27 131 27q160 0 160 -125q0 -47 -38 -97t-43 -68q-5 -17 -5 -56zM858 434v148q0 352 -289 352t-288 -352v-148q1 -348 289 -348t288 348zM158 430v158q0 227 101 338t310 110
q412 0 412 -448v-158q0 -449 -414 -448q-409 -1 -409 448z" />
    <glyph glyph-name="uni1ED0" unicode="&#x1ed0;" horiz-adv-x="1388" 
d="M694 1679l-147 -118h-135l247 206h70l250 -206h-137zM625 1823l114 229h131l-165 -229h-80zM319 563q0 -473 376 -473t376 473v336q0 473 -375 473q-203 0 -303 -145q-74 -111 -74 -328v-336zM193 549v364q0 281 118 416q137 152 394 152t395 -176q98 -133 98 -392v-364
q0 -281 -119 -416q-137 -151 -394 -151t-394 176q-98 133 -98 391z" />
    <glyph glyph-name="uni1ED1" unicode="&#x1ed1;" horiz-adv-x="1138" 
d="M569 1249l-147 -119h-135l248 205h69l250 -205h-137zM500 1391l112 231h133l-167 -231h-78zM858 434v148q0 352 -289 352t-288 -352v-148q1 -348 289 -348t288 348zM158 430v158q0 227 101 338t310 110q412 0 412 -448v-158q0 -449 -414 -448q-409 -1 -409 448z" />
    <glyph glyph-name="uni1ED2" unicode="&#x1ed2;" horiz-adv-x="1388" 
d="M694 1679l-147 -118h-135l247 206h70l250 -206h-137zM764 1823h-80l-168 229h133zM319 563q0 -473 376 -473t376 473v336q0 473 -375 473q-203 0 -303 -145q-74 -111 -74 -328v-336zM193 549v364q0 281 118 416q137 152 394 152t395 -176q98 -133 98 -392v-364
q0 -281 -119 -416q-137 -151 -394 -151t-394 176q-98 133 -98 391z" />
    <glyph glyph-name="uni1ED3" unicode="&#x1ed3;" horiz-adv-x="1138" 
d="M569 1249l-147 -119h-137l250 205h69l250 -205h-137zM637 1391h-78l-168 231h133zM858 434v148q0 352 -289 352t-288 -352v-148q1 -348 289 -348t288 348zM158 430v158q0 227 101 338t310 110q412 0 412 -448v-158q0 -449 -414 -448q-409 -1 -409 448z" />
    <glyph glyph-name="uni1ED4" unicode="&#x1ed4;" horiz-adv-x="1388" 
d="M688 1677l-147 -116h-135l247 200h70l250 -200h-137zM741 1796h-88q0 37 5 52t35 53t30 59q0 33 -64 33q-33 0 -86 -21l-22 66q59 22 126 22t105 -26t37 -68q0 -43 -47 -92q-20 -25 -26 -37t-5 -41zM319 563q0 -473 376 -473t376 473v336q0 473 -375 473
q-203 0 -303 -145q-74 -111 -74 -328v-336zM193 549v364q0 281 118 416q137 152 394 152t395 -176q98 -133 98 -392v-364q0 -281 -119 -416q-137 -151 -394 -151t-394 176q-98 133 -98 391z" />
    <glyph glyph-name="uni1ED5" unicode="&#x1ed5;" horiz-adv-x="1138" 
d="M563 1247l-147 -117h-137l249 199h70l248 -199h-135zM598 1528q0 33 -52 33t-97 -19l-23 64q66 23 123 22q145 0 145 -98q0 -41 -47 -88q-23 -25 -27 -35t-6 -43h-88q2 55 37 98t35 66zM858 434v148q0 352 -289 352t-288 -352v-148q1 -348 289 -348t288 348zM158 430v158
q0 227 101 338t310 110q412 0 412 -448v-158q0 -449 -414 -448q-409 -1 -409 448z" />
    <glyph glyph-name="uni1ED6" unicode="&#x1ed6;" horiz-adv-x="1388" 
d="M705 1679l-146 -118h-137l250 206h67l250 -206h-137zM612 2032q62 0 116 -60t87 -61q45 0 72 106h74q-23 -104 -57 -146t-94 -42t-114 60t-88 61q-55 -1 -86 -107h-76q29 101 66 145t100 44zM319 563q0 -473 376 -473t376 473v336q0 473 -375 473q-203 0 -303 -145
q-74 -111 -74 -328v-336zM193 549v364q0 281 118 416q137 152 394 152t395 -176q98 -133 98 -392v-364q0 -281 -119 -416q-137 -151 -394 -151t-394 176q-98 133 -98 391z" />
    <glyph glyph-name="uni1ED7" unicode="&#x1ed7;" horiz-adv-x="1138" 
d="M580 1249l-148 -119h-135l248 205h69l250 -205h-137zM486 1602q62 0 116 -62t88 -61q45 0 70 106h76q-25 -104 -59 -146t-93 -42q-58 0 -112 61t-89 62q-55 0 -88 -109h-76q27 103 66 147t101 44zM858 434v148q0 352 -289 352t-288 -352v-148q1 -348 289 -348t288 348z
M158 430v158q0 227 101 338t310 110q412 0 412 -448v-158q0 -449 -414 -448q-409 -1 -409 448z" />
    <glyph glyph-name="uni1ED8" unicode="&#x1ed8;" horiz-adv-x="1388" 
d="M633 -385v195h121v-195h-121zM694 1804l-147 -168h-141l253 258h72l252 -258h-139zM319 563q0 -473 376 -473t376 473v336q0 473 -375 473q-203 0 -303 -145q-74 -111 -74 -328v-336zM193 549v364q0 281 118 416q137 152 394 152t395 -176q98 -133 98 -392v-364
q0 -281 -119 -416q-137 -151 -394 -151t-394 176q-98 133 -98 391z" />
    <glyph glyph-name="uni1ED9" unicode="&#x1ed9;" horiz-adv-x="1138" 
d="M508 -385v195h121v-195h-121zM569 1372l-147 -168h-141l251 258h74l252 -258h-139zM858 434v148q0 352 -289 352t-288 -352v-148q1 -348 289 -348t288 348zM158 430v158q0 227 101 338t310 110q412 0 412 -448v-158q0 -449 -414 -448q-409 -1 -409 448z" />
    <glyph glyph-name="uni1EDA" unicode="&#x1eda;" horiz-adv-x="1427" 
d="M655 1626l148 281h160l-213 -281h-95zM319 563q0 -473 376 -473t376 473v336q0 473 -375 473q-203 0 -303 -145q-74 -111 -74 -328v-336zM1425 1411q0 -131 -120 -223q-39 -29 -125 -80q18 -82 18 -195v-364q0 -281 -119 -416q-137 -151 -394 -151t-394 176
q-98 133 -98 391v364q0 281 118 416q137 152 387 152q346 0 461 -289q96 59 128 100q31 42 31 94t-18 95h113q12 -33 12 -70z" />
    <glyph glyph-name="uni1EDB" unicode="&#x1edb;" horiz-adv-x="1169" 
d="M524 1194l150 281h157l-213 -281h-94zM858 434v148q0 352 -289 352t-288 -352v-148q1 -348 289 -348t288 348zM1198 963q0 -170 -223 -291q6 -61 6 -99v-143q0 -449 -414 -448q-410 0 -409 448v158q0 227 101 338t310 110q328 0 394 -276l10 8q67 47 93 87q50 78 7 181
h115q10 -37 10 -73z" />
    <glyph glyph-name="uni1EDC" unicode="&#x1edc;" horiz-adv-x="1427" 
d="M840 1626h-95l-213 281h158zM319 563q0 -473 376 -473t376 473v336q0 473 -375 473q-203 0 -303 -145q-74 -111 -74 -328v-336zM1425 1411q0 -131 -120 -223q-39 -29 -125 -80q18 -82 18 -195v-364q0 -281 -119 -416q-137 -151 -394 -151t-394 176q-98 133 -98 391v364
q0 281 118 416q137 152 387 152q346 0 461 -289q96 59 128 100q31 42 31 94t-18 95h113q12 -33 12 -70z" />
    <glyph glyph-name="uni1EDD" unicode="&#x1edd;" horiz-adv-x="1169" 
d="M717 1194h-94l-213 281h157zM858 434v148q0 352 -289 352t-288 -352v-148q1 -348 289 -348t288 348zM1198 963q0 -170 -223 -291q6 -61 6 -99v-143q0 -449 -414 -448q-410 0 -409 448v158q0 227 101 338t310 110q328 0 394 -276l10 8q67 47 93 87q50 78 7 181h115
q10 -37 10 -73z" />
    <glyph glyph-name="uni1EDE" unicode="&#x1ede;" horiz-adv-x="1427" 
d="M768 1602h-96q2 51 8 71q6 21 37 67t31 77q0 53 -68 53q-41 0 -92 -25l-25 76q70 27 131 27q160 0 160 -125q0 -49 -38 -99t-43 -67q-5 -16 -5 -55zM319 563q0 -473 376 -473t376 473v336q0 473 -375 473q-203 0 -303 -145q-74 -111 -74 -328v-336zM1425 1411
q0 -131 -120 -223q-39 -29 -125 -80q18 -82 18 -195v-364q0 -281 -119 -416q-137 -151 -394 -151t-394 176q-98 133 -98 391v364q0 281 118 416q137 152 387 152q346 0 461 -289q96 59 128 100q31 42 31 94t-18 95h113q12 -33 12 -70z" />
    <glyph glyph-name="uni1EDF" unicode="&#x1edf;" horiz-adv-x="1169" 
d="M655 1178h-94q0 48 6 70t38 69t32 76q0 53 -70 53q-39 0 -92 -23l-24 74q70 27 133 27q160 0 159 -125q0 -51 -39 -101t-44 -64q-5 -15 -5 -56zM858 434v148q0 352 -289 352t-288 -352v-148q1 -348 289 -348t288 348zM1198 963q0 -170 -223 -291q6 -61 6 -99v-143
q0 -449 -414 -448q-410 0 -409 448v158q0 227 101 338t310 110q328 0 394 -276l10 8q67 47 93 87q50 78 7 181h115q10 -37 10 -73z" />
    <glyph glyph-name="uni1EE0" unicode="&#x1ee0;" horiz-adv-x="1427" 
d="M593 1870q71 0 145 -67t112 -66q57 0 90 116h84q-31 -117 -70 -161q-40 -44 -112 -45q-72 1 -145 67t-111 66q-59 0 -90 -117h-84q31 115 70 161q40 46 111 46zM319 563q0 -473 376 -473t376 473v336q0 473 -375 473q-203 0 -303 -145q-74 -111 -74 -328v-336zM1425 1411
q0 -131 -120 -223q-39 -29 -125 -80q18 -82 18 -195v-364q0 -281 -119 -416q-137 -151 -394 -151t-394 176q-98 133 -98 391v364q0 281 118 416q137 152 387 152q346 0 461 -289q96 59 128 100q31 42 31 94t-18 95h113q12 -33 12 -70z" />
    <glyph glyph-name="uni1EE1" unicode="&#x1ee1;" horiz-adv-x="1169" 
d="M472 1438q72 0 146 -67t111 -66q57 0 90 116h84q-31 -119 -69 -163t-110 -44q-73 0 -145 66t-114 66q-61 0 -90 -115h-84q31 115 70 161q40 46 111 46zM858 434v148q0 352 -289 352t-288 -352v-148q1 -348 289 -348t288 348zM1198 963q0 -170 -223 -291q6 -61 6 -99v-143
q0 -449 -414 -448q-410 0 -409 448v158q0 227 101 338t310 110q328 0 394 -276l10 8q67 47 93 87q50 78 7 181h115q10 -37 10 -73z" />
    <glyph glyph-name="uni1EE2" unicode="&#x1ee2;" horiz-adv-x="1427" 
d="M623 -385v195h120v-195h-120zM319 563q0 -473 376 -473t376 473v336q0 473 -375 473q-203 0 -303 -145q-74 -111 -74 -328v-336zM1425 1411q0 -131 -120 -223q-39 -29 -125 -80q18 -82 18 -195v-364q0 -281 -119 -416q-137 -151 -394 -151t-394 176q-98 133 -98 391v364
q0 281 118 416q137 152 387 152q346 0 461 -289q96 59 128 100q31 42 31 94t-18 95h113q12 -33 12 -70z" />
    <glyph glyph-name="uni1EE3" unicode="&#x1ee3;" horiz-adv-x="1169" 
d="M506 -385v195h121v-195h-121zM858 434v148q0 352 -289 352t-288 -352v-148q1 -348 289 -348t288 348zM1198 963q0 -170 -223 -291q6 -61 6 -99v-143q0 -449 -414 -448q-410 0 -409 448v158q0 227 101 338t310 110q328 0 394 -276l10 8q67 47 93 87q50 78 7 181h115
q10 -37 10 -73z" />
    <glyph glyph-name="uni1EE4" unicode="&#x1ee4;" horiz-adv-x="1417" 
d="M647 -385v195h121v-195h-121zM221 1462h127v-927q0 -215 62 -304q92 -139 290 -139q121 0 198 39t124 123t47 281v927h127v-927q0 -154 -18 -235t-70 -146q-128 -170 -410 -170t-407 194q-39 61 -54 138t-16 219v927z" />
    <glyph glyph-name="uni1EE5" unicode="&#x1ee5;" horiz-adv-x="1130" 
d="M504 -385v195h121v-195h-121zM184 1018h123v-576q0 -145 31 -217q56 -137 206 -137t211 96q60 96 60 320v514h123v-1018h-98l-11 137q-80 -156 -286 -155q-254 0 -328 196q-31 86 -31 254v586z" />
    <glyph glyph-name="uni1EE6" unicode="&#x1ee6;" horiz-adv-x="1417" 
d="M766 1602h-96q2 53 7 71q5 17 37 67t31 77q0 53 -69 53q-37 0 -92 -25l-25 76q71 27 141 27t111 -33t41 -87t-38 -104t-43 -66q-5 -15 -5 -56zM221 1462h127v-927q0 -215 62 -304q92 -139 290 -139q121 0 198 39t124 123t47 281v927h127v-927q0 -154 -18 -235t-70 -146
q-128 -170 -410 -170t-407 194q-39 61 -54 138t-16 219v927z" />
    <glyph glyph-name="uni1EE7" unicode="&#x1ee7;" horiz-adv-x="1130" 
d="M623 1178h-97q2 53 8 72q4 20 36 68t32 75q0 53 -70 53q-37 0 -90 -23l-24 74q68 27 131 27q160 0 160 -125q-1 -49 -39 -99t-42 -66q-4 -15 -5 -56zM184 1018h123v-576q0 -145 31 -217q56 -137 206 -137t211 96q60 96 60 320v514h123v-1018h-98l-11 137
q-80 -156 -286 -155q-254 0 -328 196q-31 86 -31 254v586z" />
    <glyph glyph-name="uni1EE8" unicode="&#x1ee8;" horiz-adv-x="1474" 
d="M684 1626l150 281h157l-213 -281h-94zM221 1462h127v-927q0 -215 62 -304q92 -139 290 -139q121 0 198 39t124 123t47 281v927h127v-301q115 55 161 107t46 114q0 60 -19 99h113q12 -37 12 -74q-1 -102 -67 -175t-246 -163v-534q0 -154 -18 -235t-70 -146
q-128 -170 -410 -170t-407 194q-39 61 -54 138t-16 219v927z" />
    <glyph glyph-name="uni1EE9" unicode="&#x1ee9;" horiz-adv-x="1189" 
d="M520 1194l150 281h157l-213 -281h-94zM184 1018h123v-576q0 -145 31 -217q56 -137 206 -137t211 96q60 96 60 320v514h123v-301q115 57 161 108t46 109t-19 102h113q12 -37 12 -73q0 -135 -143 -242q-55 -37 -170 -96v-625h-98l-11 137q-80 -156 -286 -155
q-254 0 -328 196q-31 86 -31 254v586z" />
    <glyph glyph-name="uni1EEA" unicode="&#x1eea;" horiz-adv-x="1474" 
d="M807 1626h-94l-213 281h159zM221 1462h127v-927q0 -215 62 -304q92 -139 290 -139q121 0 198 39t124 123t47 281v927h127v-301q115 55 161 107t46 114q0 60 -19 99h113q12 -37 12 -74q-1 -102 -67 -175t-246 -163v-534q0 -154 -18 -235t-70 -146q-128 -170 -410 -170
t-407 194q-39 61 -54 138t-16 219v927z" />
    <glyph glyph-name="uni1EEB" unicode="&#x1eeb;" horiz-adv-x="1189" 
d="M657 1194h-94l-213 281h158zM184 1018h123v-576q0 -145 31 -217q56 -137 206 -137t211 96q60 96 60 320v514h123v-301q115 57 161 108t46 109t-19 102h113q12 -37 12 -73q0 -135 -143 -242q-55 -37 -170 -96v-625h-98l-11 137q-80 -156 -286 -155q-254 0 -328 196
q-31 86 -31 254v586z" />
    <glyph glyph-name="uni1EEC" unicode="&#x1eec;" horiz-adv-x="1474" 
d="M694 1602q0 51 5 69q5 17 38 67t33 79q0 53 -70 53q-41 0 -92 -25l-24 76q70 27 133 27q160 0 160 -125q-1 -49 -39 -99t-43 -66q-5 -15 -7 -56h-94zM221 1462h127v-927q0 -215 62 -304q92 -139 290 -139q121 0 198 39t124 123t47 281v927h127v-301q115 55 161 107
t46 114q0 60 -19 99h113q12 -37 12 -74q-1 -102 -67 -175t-246 -163v-534q0 -154 -18 -235t-70 -146q-128 -170 -410 -170t-407 194q-39 61 -54 138t-16 219v927z" />
    <glyph glyph-name="uni1EED" unicode="&#x1eed;" horiz-adv-x="1189" 
d="M612 1178h-96q2 53 7 71q5 19 37 69t32 75q0 53 -70 53q-37 0 -90 -23l-24 74q68 27 131 27q160 0 159 -125q0 -47 -38 -99t-43 -67q-5 -16 -5 -55zM184 1018h123v-576q0 -145 31 -217q56 -137 206 -137t211 96q60 96 60 320v514h123v-301q115 57 161 108t46 109t-19 102
h113q12 -37 12 -73q0 -135 -143 -242q-55 -37 -170 -96v-625h-98l-11 137q-80 -156 -286 -155q-254 0 -328 196q-31 86 -31 254v586z" />
    <glyph glyph-name="uni1EEE" unicode="&#x1eee;" horiz-adv-x="1474" 
d="M586 1870q70 0 147 -66q74 -68 108 -68t54 28q20 26 39 89h84q-33 -119 -71 -163q-37 -44 -109 -43t-146 67t-112 66q-62 0 -91 -117h-83q31 115 70 161q40 46 110 46zM221 1462h127v-927q0 -215 62 -304q92 -139 290 -139q121 0 198 39t124 123t47 281v927h127v-301
q115 55 161 107t46 114q0 60 -19 99h113q12 -37 12 -74q-1 -102 -67 -175t-246 -163v-534q0 -154 -18 -235t-70 -146q-128 -170 -410 -170t-407 194q-39 61 -54 138t-16 219v927z" />
    <glyph glyph-name="uni1EEF" unicode="&#x1eef;" horiz-adv-x="1189" 
d="M444 1438q70 0 145 -67t109 -67t54 27t39 90h83q-32 -117 -70 -161t-110 -46q-72 0 -144 66t-114 66q-61 0 -90 -115h-84q31 115 71 161q41 46 111 46zM184 1018h123v-576q0 -145 31 -217q56 -137 206 -137t211 96q60 96 60 320v514h123v-301q115 57 161 108t46 109
t-19 102h113q12 -37 12 -73q0 -135 -143 -242q-55 -37 -170 -96v-625h-98l-11 137q-80 -156 -286 -155q-254 0 -328 196q-31 86 -31 254v586z" />
    <glyph glyph-name="uni1EF0" unicode="&#x1ef0;" horiz-adv-x="1474" 
d="M647 -385v195h121v-195h-121zM221 1462h127v-927q0 -215 62 -304q92 -139 290 -139q121 0 198 39t124 123t47 281v927h127v-301q115 55 161 107t46 114q0 60 -19 99h113q12 -37 12 -74q-1 -102 -67 -175t-246 -163v-534q0 -154 -18 -235t-70 -146q-128 -170 -410 -170
t-407 194q-39 61 -54 138t-16 219v927z" />
    <glyph glyph-name="uni1EF1" unicode="&#x1ef1;" horiz-adv-x="1189" 
d="M530 -385v195h121v-195h-121zM184 1018h123v-576q0 -145 31 -217q56 -137 206 -137t211 96q60 96 60 320v514h123v-301q115 57 161 108t46 109t-19 102h113q12 -37 12 -73q0 -135 -143 -242q-55 -37 -170 -96v-625h-98l-11 137q-80 -156 -286 -155q-254 0 -328 196
q-31 86 -31 254v586z" />
    <glyph glyph-name="Ygrave" unicode="&#x1ef2;" horiz-adv-x="1079" 
d="M633 1626h-94l-213 281h157zM479 0v528l-465 934h136l393 -800l391 800h135l-463 -934v-528h-127z" />
    <glyph glyph-name="ygrave" unicode="&#x1ef3;" horiz-adv-x="983" 
d="M582 1194h-95l-213 281h158zM131 -367q113 0 158 34t88 149l61 178l-387 1024h125l328 -885l289 885h125l-416 -1219q-61 -170 -129 -219t-242 -51v104z" />
    <glyph glyph-name="uni1EF4" unicode="&#x1ef4;" horiz-adv-x="1079" 
d="M479 -385v195h121v-195h-121zM479 0v528l-465 934h136l393 -800l391 800h135l-463 -934v-528h-127z" />
    <glyph glyph-name="uni1EF5" unicode="&#x1ef5;" horiz-adv-x="983" 
d="M631 -385v195h121v-195h-121zM131 -367q113 0 158 34t88 149l61 178l-387 1024h125l328 -885l289 885h125l-416 -1219q-61 -170 -129 -219t-242 -51v104z" />
    <glyph glyph-name="uni1EF6" unicode="&#x1ef6;" horiz-adv-x="1079" 
d="M502 1602q0 51 5 69q5 17 38 69t33 77q0 53 -70 53q-41 0 -92 -25l-25 76q70 27 133 27q160 0 160 -125q0 -47 -38 -99t-43 -66q-5 -15 -7 -56h-94zM479 0v528l-465 934h136l393 -800l391 800h135l-463 -934v-528h-127z" />
    <glyph glyph-name="uni1EF7" unicode="&#x1ef7;" horiz-adv-x="983" 
d="M547 1178h-94q0 53 5 71q6 19 38 67t32 77q0 53 -69 53q-39 0 -92 -23l-25 74q66 27 133 27q160 0 160 -125q0 -47 -38 -99t-44 -67q-6 -16 -6 -55zM131 -367q113 0 158 34t88 149l61 178l-387 1024h125l328 -885l289 885h125l-416 -1219q-61 -170 -129 -219t-242 -51
v104z" />
    <glyph glyph-name="uni1EF8" unicode="&#x1ef8;" horiz-adv-x="1079" 
d="M416 1870q72 0 146 -67t110 -66q59 0 90 116h84q-29 -117 -68 -161q-40 -44 -112 -45q-72 1 -146 67t-110 66q-60 0 -93 -117h-84q31 115 71 161t112 46zM479 0v528l-465 934h136l393 -800l391 800h135l-463 -934v-528h-127z" />
    <glyph glyph-name="uni1EF9" unicode="&#x1ef9;" horiz-adv-x="983" 
d="M367 1438q71 0 145 -67t108 -67t54 28q20 26 39 89h84q-31 -117 -69 -161t-110 -46q-72 0 -145 66q-72 66 -113 66q-63 0 -92 -115h-84q31 115 71 161t112 46zM131 -367q113 0 158 34t88 149l61 178l-387 1024h125l328 -885l289 885h125l-416 -1219q-61 -170 -129 -219
t-242 -51v104z" />
    <glyph glyph-name="uni2002" unicode="&#x2002;" horiz-adv-x="1024" 
 />
    <glyph glyph-name="uni2003" unicode="&#x2003;" horiz-adv-x="2048" 
 />
    <glyph glyph-name="uni2004" unicode="&#x2004;" horiz-adv-x="681" 
 />
    <glyph glyph-name="uni2005" unicode="&#x2005;" horiz-adv-x="512" 
 />
    <glyph glyph-name="uni2006" unicode="&#x2006;" horiz-adv-x="342" 
 />
    <glyph glyph-name="uni2007" unicode="&#x2007;" 
 />
    <glyph glyph-name="uni2008" unicode="&#x2008;" horiz-adv-x="0" 
 />
    <glyph glyph-name="uni2009" unicode="&#x2009;" horiz-adv-x="409" 
 />
    <glyph glyph-name="uni200A" unicode="&#x200a;" horiz-adv-x="256" 
 />
    <glyph glyph-name="uni2011" unicode="&#x2011;" horiz-adv-x="980" 
d="M215 696v109h549v-109h-549z" />
    <glyph glyph-name="figuredash" unicode="&#x2012;" 
d="M168 696v109h770v-109h-770z" />
    <glyph glyph-name="endash" unicode="&#x2013;" 
d="M168 696v109h770v-109h-770z" />
    <glyph glyph-name="emdash" unicode="&#x2014;" 
d="M12 696v109h1084v-109h-1084z" />
    <glyph glyph-name="afii00208" unicode="&#x2015;" 
d="M12 696v109h1084v-109h-1084z" />
    <glyph glyph-name="underscoredbl" unicode="&#x2017;" horiz-adv-x="962" 
d="M-51 -260v82h1065v-82h-1065zM-51 -422v82h1065v-82h-1065z" />
    <glyph glyph-name="quoteleft" unicode="&#x2018;" horiz-adv-x="356" 
d="M283 1462l-76 -469h-133l110 469h99z" />
    <glyph glyph-name="quoteright" unicode="&#x2019;" horiz-adv-x="356" 
d="M74 993l78 469h131l-109 -469h-100z" />
    <glyph glyph-name="quotesinglbase" unicode="&#x201a;" horiz-adv-x="356" 
d="M74 -291l78 469h131l-109 -469h-100z" />
    <glyph glyph-name="quotedblleft" unicode="&#x201c;" horiz-adv-x="704" 
d="M283 1462l-76 -469h-133l110 469h99zM633 1462l-78 -469h-131l108 469h101z" />
    <glyph glyph-name="quotedblright" unicode="&#x201d;" horiz-adv-x="704" 
d="M424 993l76 469h133l-111 -469h-98zM74 993l78 469h131l-109 -469h-100z" />
    <glyph glyph-name="quotedblbase" unicode="&#x201e;" horiz-adv-x="704" 
d="M424 -291l76 469h133l-111 -469h-98zM74 -291l78 469h131l-109 -469h-100z" />
    <glyph glyph-name="dagger" unicode="&#x2020;" 
d="M492 887h-349v108h349v467h124v-467h347v-108h-347v-1213h-124v1213z" />
    <glyph glyph-name="daggerdbl" unicode="&#x2021;" 
d="M492 887h-349v108h349v467h124v-467h347v-108h-347v-350h322v-109h-322v-754h-124v754h-324v109h324v350z" />
    <glyph glyph-name="bullet" unicode="&#x2022;" 
d="M553 1075q143 0 239 -93t97 -232q0 -138 -96 -232q-97 -94 -241 -94t-241 93q-96 93 -96 233t97 232q98 93 241 93z" />
    <glyph glyph-name="ellipsis" unicode="&#x2026;" horiz-adv-x="1708" 
d="M1360 0v178h127v-178h-127zM791 0v178h127v-178h-127zM221 0v178h127v-178h-127z" />
    <glyph glyph-name="perthousand" unicode="&#x2030;" horiz-adv-x="2473" 
d="M590 0l459 1462h116l-456 -1462h-119zM2271 311v170q0 242 -183 242t-183 -242v-170q0 -242 184 -241q182 -1 182 241zM1798 299v195q0 164 71 240t219 75q148 0 219 -77t71 -238v-195q0 -164 -71 -240q-71 -75 -221 -75t-218 76q-70 76 -70 239zM1554 311v170
q0 242 -183 242t-183 -242v-170q0 -242 184 -241q182 -1 182 241zM1081 299v195q0 162 70 238q69 76 219 77q150 0 220 -76t71 -239v-195q0 -164 -71 -240q-70 -75 -220 -75t-220 76t-69 239zM569 981v170q0 242 -183 242t-183 -242v-170q0 -242 183 -242t183 242zM96 969
v194q0 164 71 240t220 76t219 -77t70 -239v-194q0 -164 -71 -240t-221 -76t-218 77q-70 77 -70 239z" />
    <glyph glyph-name="guilsinglleft" unicode="&#x2039;" horiz-adv-x="491" 
d="M225 604l185 -252l-72 -55l-254 307l254 307l72 -53z" />
    <glyph glyph-name="guilsinglright" unicode="&#x203a;" horiz-adv-x="491" 
d="M266 604l-186 254l72 53l254 -307l-254 -307l-72 55z" />
    <glyph glyph-name="uni203E" unicode="&#x203e;" horiz-adv-x="962" 
d="M-51 1667v94h1065v-94h-1065z" />
    <glyph glyph-name="fraction" unicode="&#x2044;" horiz-adv-x="313" 
d="M-123 0l457 1462h119l-457 -1462h-119z" />
    <glyph glyph-name="zerosuperior" unicode="&#x2070;" horiz-adv-x="714" 
d="M516 1106v248q0 242 -158 241q-160 0 -159 -241v-248q1 -242 159 -242t158 242zM96 1096v266q0 162 65 239t197 76q260 0 260 -315v-266q0 -315 -260 -316q-134 0 -198 77t-64 239z" />
    <glyph glyph-name="foursuperior" unicode="&#x2074;" horiz-adv-x="708" 
d="M449 791v174h-383v65l303 637h112l-295 -616h263v200h96v-200h94v-88h-94v-172h-96z" />
    <glyph glyph-name="fivesuperior" unicode="&#x2075;" horiz-adv-x="696" 
d="M580 1667v-86h-334l-31 -276q70 31 137 30q254 1 254 -277t-280 -278q-225 0 -254 178l98 21q31 -113 162 -113q80 0 125 50t45 139q0 199 -160 198q-86 0 -156 -57l-75 14l47 457h422z" />
    <glyph glyph-name="sixsuperior" unicode="&#x2076;" horiz-adv-x="708" 
d="M355 1253q-157 -1 -157 -195t158 -194q156 0 156 194t-157 195zM381 1333q233 0 233 -274q0 -143 -62 -211t-196 -68t-197 68q-62 68 -63 213q0 70 14 115q13 45 54 116l213 375h121l-203 -346q41 12 86 12z" />
    <glyph glyph-name="sevensuperior" unicode="&#x2077;" horiz-adv-x="503" 
d="M2 1581v86h457v-61l-262 -815h-113l260 790h-342z" />
    <glyph glyph-name="eightsuperior" unicode="&#x2078;" horiz-adv-x="708" 
d="M356 1210q-174 0 -174 -173t171 -173t171 173t-168 173zM353 1599q-153 -1 -153 -157t154 -156q152 0 152 156t-153 157zM353 1679q249 0 249 -233q0 -72 -19 -115t-71 -76q61 -29 88 -79t27 -138q0 -133 -67 -195q-67 -63 -207 -63t-207 62t-66 196q0 162 115 217
q-49 33 -70 76q-20 43 -21 115q0 233 249 233z" />
    <glyph glyph-name="ninesuperior" unicode="&#x2079;" horiz-adv-x="708" 
d="M352 1595q-158 0 -158 -179t158 -179q156 0 156 180q0 86 -40 132t-116 46zM322 1157q-229 0 -230 258q0 135 64 199t196 63q258 0 258 -258q0 -106 -51 -200l-227 -428h-123l209 380q-57 -14 -96 -14z" />
    <glyph glyph-name="zeroinferior" unicode="&#x2080;" horiz-adv-x="714" 
d="M516 111v247q0 242 -159 242t-158 -242v-247q1 -244 159 -244t158 244zM96 367q0 315 261 315t261 -315v-267q0 -315 -260 -315q-134 1 -198 77t-64 238v267z" />
    <glyph glyph-name="oneinferior" unicode="&#x2081;" horiz-adv-x="454" 
d="M199 -205v770l-162 -65l-31 82l221 90h76v-877h-104z" />
    <glyph glyph-name="twoinferior" unicode="&#x2082;" horiz-adv-x="690" 
d="M92 -205v68l260 313q135 164 135 270q0 70 -40 111t-109 41q-125 0 -166 -135l-96 14q23 109 85 158t182 49q121 0 185 -61t64 -160t-35 -171t-127 -181l-190 -230h350v-86h-498z" />
    <glyph glyph-name="threeinferior" unicode="&#x2083;" horiz-adv-x="690" 
d="M211 217v78h92q72 0 121 44t49 110q0 67 -42 107t-112 40q-119 0 -153 -107l-94 15q33 178 252 178q122 0 188 -59t66 -172q0 -74 -27 -117t-90 -76q141 -61 141 -223q0 -250 -287 -250q-236 0 -270 178l98 21q31 -113 172 -113q84 0 134 45q49 45 49 123t-54 128
t-135 50h-98z" />
    <glyph glyph-name="fourinferior" unicode="&#x2084;" horiz-adv-x="708" 
d="M449 -205v174h-383v66l303 637h112l-295 -617h263v201h96v-201h94v-88h-94v-172h-96z" />
    <glyph glyph-name="fiveinferior" unicode="&#x2085;" horiz-adv-x="696" 
d="M580 672v-86h-334l-31 -277q68 31 137 31q254 0 254 -278t-280 -277q-225 0 -254 178l98 21q31 -113 162 -113q80 0 125 50t45 138q0 199 -160 199q-86 0 -156 -57l-75 14l47 457h422z" />
    <glyph glyph-name="sixinferior" unicode="&#x2086;" horiz-adv-x="708" 
d="M512 64q0 196 -157 196t-157 -197t156 -196q158 1 158 197zM381 340q233 0 233 -277q0 -143 -62 -211t-196 -67q-134 0 -197 68q-62 68 -63 213q0 70 14 116t54 115l213 375h121l-203 -346q49 14 86 14z" />
    <glyph glyph-name="seveninferior" unicode="&#x2087;" horiz-adv-x="503" 
d="M2 586v86h457v-62l-262 -815h-113l260 791h-342z" />
    <glyph glyph-name="eightinferior" unicode="&#x2088;" horiz-adv-x="708" 
d="M356 215q-174 0 -174 -174t171 -174t171 174t-168 174zM353 604q-153 0 -153 -156t154 -157q152 1 152 157t-153 156zM353 684q249 0 249 -233q0 -72 -19 -115t-71 -76q61 -31 88 -81t27 -136q0 -133 -67 -195t-207 -63q-140 0 -207 62t-66 194q0 164 115 219
q-49 33 -70 76q-20 43 -21 115q0 233 249 233z" />
    <glyph glyph-name="nineinferior" unicode="&#x2089;" horiz-adv-x="708" 
d="M352 600q-158 0 -158 -179t158 -179q156 0 156 180q0 86 -40 132t-116 46zM322 162q-229 0 -230 258q0 135 64 198t196 64q258 0 258 -258q0 -106 -51 -201l-227 -428h-123l209 381q-57 -14 -96 -14z" />
    <glyph glyph-name="franc" unicode="&#x20a3;" horiz-adv-x="1492" 
d="M911 0v899h97l14 -137q80 156 262 156q90 0 178 -46l-49 -102q-72 43 -141 43q-127 0 -183 -102t-57 -330v-381h-121zM193 0v1462h657v-108h-533v-572h431v-108h-431v-674h-124z" />
    <glyph glyph-name="lira" unicode="&#x20a4;" 
d="M133 0v94q98 41 166 151t68 228q0 4 -5 57h-241v95h219q-10 37 -57 131h-162v94h115q-63 129 -64 233q0 182 108 290t290 108t288 -93t146 -290l-109 -25q-29 127 -72 184q-86 117 -245 117q-125 0 -202 -78t-77 -190t80 -256h399v-94h-352q25 -53 49 -131h303v-95h-295
q6 -47 6 -65q0 -199 -172 -356h705v-109h-889z" />
    <glyph glyph-name="peseta" unicode="&#x20a7;" 
d="M336 1069h526q-8 145 -92 219t-231 70h-203v-289zM336 975v-293h203q301 -6 323 293h-526zM213 975h-188v94h188v393h322q211 6 327 -94t125 -299h146v-94h-146q-10 -201 -126 -302t-326 -95h-197v-578h-125v975z" />
    <glyph glyph-name="uni20AB" unicode="&#x20ab;" 
d="M213 582v-146q0 -350 276 -350q281 0 281 348v150q0 350 -281 350q-276 0 -276 -352zM770 1180h-313v90h313v192h123v-192h172v-90h-172v-1180h-98l-11 121q-6 -6 -36 -43q-76 -96 -272 -96t-291 110t-95 340v156q0 449 381 448q106 0 174 -30t125 -105v279zM106 -350v94
h877v-94h-877z" />
    <glyph glyph-name="Euro" unicode="&#x20ac;" 
d="M180 604v148h-190l39 94h151v35q0 307 99 438q117 160 346 160q181 1 291 -93t118 -258l-116 -10q-14 119 -92 186t-199 66q-166 0 -243 -118t-77 -371v-35h590l-39 -94h-551v-148h490l-39 -94h-449q8 -218 87 -320t239 -102q125 0 206 62t97 174l111 -15
q-10 -157 -122 -243t-298 -86q-293 0 -398 247q-41 98 -49 283h-188l39 94h147z" />
    <glyph glyph-name="uni20B4" unicode="&#x20b4;" 
d="M842 1094q0 138 -76 210q-76 73 -209 72q-182 0 -250 -119l-96 56q96 166 348 166q186 -1 294 -103t108 -280q0 -88 -24 -148t-83 -119l170 -45l-25 -90l-229 62q-82 -41 -270 -94l456 -123l-24 -90l-572 151q-112 -76 -112 -219t86 -219t241 -76q238 0 324 150l98 -60
q-113 -193 -424 -192q-211 0 -327 104t-117 291q0 86 19 141t75 119l-166 43l25 90l219 -57q35 18 141 51t129 43l-448 121l24 90l564 -152q131 88 131 226z" />
    <glyph glyph-name="uni2101" unicode="&#x2101;" horiz-adv-x="1755" 
d="M616 0l457 1462h109l-457 -1462h-109zM1376 76q100 0 159 43q58 43 58 115t-59 110q-39 27 -172 55q-145 35 -207 91q-61 56 -61 164t74 170q75 62 212 63q190 0 273 -113l-86 -51q-59 78 -189 78q-84 0 -133 -40q-49 -39 -49 -105t50 -105t158 -64t138 -35
q31 -10 66 -32q88 -55 88 -179q0 -123 -82 -187t-238 -64q-227 0 -317 133l88 53q63 -100 229 -100zM571 856l-180 475l-182 -475h362zM600 776h-420l-71 -190h-115l354 876h86l354 -876h-114z" />
    <glyph glyph-name="afii61248" unicode="&#x2105;" horiz-adv-x="1857" 
d="M625 0l458 1462h109l-457 -1462h-110zM1677 373v65q0 299 -250 299t-249 -299v-65q0 -297 252 -297q247 0 247 297zM1075 371v69q0 383 352 383t353 -383v-69q0 -381 -352 -381t-353 381zM424 641q-346 0 -346 389v29q0 416 344 416q184 0 270 -132l-82 -45
q-66 88 -188 88t-181 -80q-60 -80 -61 -247v-33q0 -297 250 -297q135 0 201 84l80 -49q-92 -123 -287 -123z" />
    <glyph glyph-name="afii61289" unicode="&#x2113;" 
d="M831 1315q0 41 -17 67t-44 27q-68 -1 -118 -147t-120 -545q299 337 299 598zM221 334q-10 0 -18 12t-8 30q-1 18 61 72q62 56 141 144q94 537 169 722t202 185q66 0 106 -49t39 -139q0 -90 -46 -214t-124 -238t-229 -267q-63 -348 -63 -438t57 -91q40 0 64 25t67 105
q20 45 47 45t27 -29q0 -68 -72 -153t-160 -85q-135 0 -135 166q0 125 35 340q-133 -143 -160 -143z" />
    <glyph glyph-name="afii61352" unicode="&#x2116;" horiz-adv-x="2342" 
d="M1505 0v102h705v-102h-705zM2089 698v62q0 295 -231 295t-232 -295v-62q0 -297 232 -297t231 297zM1505 692v72q1 395 353 395t352 -395v-72q0 -393 -352 -393t-353 393zM227 0v1462h123l780 -1243v1243h125v-1462h-122l-781 1243v-1243h-125z" />
    <glyph glyph-name="trademark" unicode="&#x2122;" horiz-adv-x="1777" 
d="M821 586v876h101l297 -573l297 573h100v-876h-103v674l-260 -504h-69l-260 504v-674h-103zM309 586v790h-272v86h649v-86h-272v-790h-105z" />
    <glyph glyph-name="uni2126" unicode="&#x2126;" horiz-adv-x="1388" 
d="M1069 899q0 473 -377 473q-201 0 -301 -145q-74 -111 -74 -328v-207q-6 -196 65 -314t208 -149v-229h-424v94h321v66q-147 47 -225 185t-72 339v229q0 281 121 416q133 152 391 152t396 -176q98 -133 98 -392v-229q6 -201 -72 -339t-225 -185v-66h322v-94h-424v229
q137 31 208 150t64 313v207z" />
    <glyph glyph-name="estimated" unicode="&#x212e;" horiz-adv-x="1228" 
d="M963 750v262q-84 283 -342 282q-121 0 -195 -61t-137 -217v-266h674zM1110 670h-821v-299q33 -113 76 -176q82 -121 258 -121q258 0 356 264h90q-41 -137 -96 -203q-129 -153 -357 -153t-362 183q-133 183 -133 510t136 519t368 192q155 0 269 -87t165 -235t51 -394z" />
    <glyph glyph-name="onethird" unicode="&#x2153;" horiz-adv-x="1728" 
d="M1157 422v78h92q72 0 121 45t49 109t-42 106q-42 41 -111 41q-119 0 -154 -107l-94 15q33 178 250 178q124 1 190 -59t66 -173q0 -75 -27 -117t-90 -75q141 -63 141 -223q0 -250 -286 -250q-156 0 -228 76q-27 31 -43 102l99 20q31 -113 170 -112q86 0 135 45t49 123
t-54 128t-137 50h-96zM457 0l456 1462h119l-459 -1462h-116zM311 586v770l-161 -66l-31 82l221 90h76v-876h-105z" />
    <glyph glyph-name="twothirds" unicode="&#x2154;" horiz-adv-x="1728" 
d="M578 0l456 1462h119l-459 -1462h-116zM1251 422v78h92q72 0 121 45t49 109t-42 106q-42 41 -111 41q-119 0 -154 -107l-94 15q31 178 250 178q124 1 190 -59t66 -173q0 -75 -27 -117t-92 -75q143 -63 143 -223q0 -250 -286 -250q-156 0 -228 78q-29 29 -43 100l99 20
q31 -113 170 -112q86 0 135 45t49 123t-54 128t-136 50h-97zM111 586v67l260 314q135 164 135 270q0 70 -40 111t-110 41q-129 0 -166 -136l-96 15q23 110 85 158t182 48t185 -60q65 -62 64 -179q0 -80 -35 -152t-126 -182l-191 -229h350v-86h-497z" />
    <glyph glyph-name="uni2155" unicode="&#x2155;" horiz-adv-x="1728" 
d="M1526 877v-86h-334l-31 -277q68 31 137 31q254 0 254 -278t-280 -277q-225 0 -254 178l98 20q31 -113 162 -112q78 0 124 50t46 138q0 199 -162 199q-84 0 -153 -57l-76 14l47 457h422zM465 0l457 1462h118l-458 -1462h-117zM319 586v770l-161 -66l-31 82l221 90h76v-876
h-105z" />
    <glyph glyph-name="uni2156" unicode="&#x2156;" horiz-adv-x="1728" 
d="M578 0l458 1462h117l-457 -1462h-118zM1589 877v-86h-334l-30 -277q68 31 137 31q254 0 254 -278t-281 -277q-225 0 -254 178l99 20q31 -113 161 -112q78 0 124 50t46 138q0 199 -161 199q-84 0 -154 -57l-76 14l47 457h422zM115 586v67l260 314q135 164 135 270
q0 70 -40 111t-110 41q-129 0 -165 -136l-97 15q23 110 85 158q63 48 183 48t184 -60q64 -62 64 -179q0 -80 -34 -152t-127 -182l-191 -229h350v-86h-497z" />
    <glyph glyph-name="uni2157" unicode="&#x2157;" horiz-adv-x="1728" 
d="M573 0l457 1462h119l-457 -1462h-119zM1587 877v-86h-334l-30 -277q68 31 137 31q254 0 254 -278t-281 -277q-223 0 -254 178l99 20q29 -113 161 -112q78 0 124 50t46 138q0 199 -159 199q-82 0 -156 -57l-76 14l47 457h422zM244 1008v77h92q72 0 121 44t49 110t-42 107
t-112 40q-119 0 -153 -106l-95 14q33 178 252 179q123 1 189 -59t65 -173q0 -74 -26 -117t-90 -75q141 -61 141 -224q0 -250 -287 -250q-238 0 -270 179l98 20q31 -113 172 -112q84 0 133 45t49 123t-53 127q-53 50 -135 51h-98z" />
    <glyph glyph-name="uni2158" unicode="&#x2158;" horiz-adv-x="1728" 
d="M578 0l458 1462h119l-459 -1462h-118zM1587 877v-86h-334l-30 -277q68 31 137 31q254 0 254 -278t-281 -277q-223 0 -254 178l99 20q31 -113 161 -112q78 0 124 50t46 138q0 199 -161 199q-84 0 -154 -57l-76 14l47 457h422zM463 586v176h-383v63l303 637h113l-295 -616
h262v201h96v-201h94v-88h-94v-172h-96z" />
    <glyph glyph-name="uni2159" unicode="&#x2159;" horiz-adv-x="1728" 
d="M1440 268q0 196 -157 195q-157 0 -157 -196t156 -195q158 0 158 196zM1542 268q0 -143 -63 -211q-63 -67 -197 -67t-196 67q-62 68 -62 197t66 248l213 375h122l-202 -347q39 12 86 13q233 0 233 -275zM498 0l456 1462h119l-459 -1462h-116zM330 586v770l-162 -66l-31 82
l221 90h76v-876h-104z" />
    <glyph glyph-name="uni215A" unicode="&#x215a;" horiz-adv-x="1728" 
d="M582 0l458 1462h117l-457 -1462h-118zM1491 268q0 196 -157 195q-156 0 -156 -196t155 -195q158 0 158 196zM1593 268q0 -143 -62 -211q-63 -67 -197 -67t-196 68t-63 212q0 70 14 114q13 44 54 118l213 375h123l-203 -347q49 12 86 13q231 0 231 -275zM596 1462v-86
h-334l-31 -276q68 31 138 30q254 0 254 -278t-281 -277q-225 0 -254 179l98 20q31 -113 162 -112q80 0 125 50t45 138q0 197 -160 197q-88 0 -155 -56l-76 15l47 456h422z" />
    <glyph glyph-name="oneeighth" unicode="&#x215b;" horiz-adv-x="1728" 
d="M1460 246q0 174 -171 174t-171 -174t171 -174t171 174zM1442 652q0 156 -152 157q-152 0 -152 -157t152 -156q152 0 152 156zM1042 655q0 233 248 233t248 -233q0 -73 -19 -115t-71 -75q61 -31 88 -81t27 -138q0 -132 -67 -194t-207 -62t-207 62t-66 194q-1 164 114 219
q-88 59 -88 190zM469 0l457 1462h118l-458 -1462h-117zM324 586v770l-162 -66l-31 82l221 90h76v-876h-104z" />
    <glyph glyph-name="threeeighths" unicode="&#x215c;" horiz-adv-x="1728" 
d="M578 0l456 1462h119l-459 -1462h-116zM1360 420q-174 0 -174 -174t171 -174t171 174t-168 174zM1510 652q0 156 -153 157q-153 0 -153 -157t154 -156q152 0 152 156zM1108 655q0 233 249 233t249 -233q0 -73 -20 -115t-70 -75q61 -31 88 -81t26 -136q0 -133 -66 -196
q-67 -62 -207 -62t-207 62t-67 194q0 164 115 219q-49 33 -70 76q-20 43 -20 114zM260 1008v77h92q72 0 121 44t49 110t-42 107t-111 40q-119 0 -154 -106l-94 14q33 178 252 179q123 1 189 -59t65 -173q0 -74 -27 -117t-90 -75q141 -61 141 -224q0 -250 -286 -250
q-238 0 -271 179l99 20q31 -113 172 -112q84 0 133 45t49 123t-53 127q-53 50 -136 51h-98z" />
    <glyph glyph-name="fiveeighths" unicode="&#x215d;" horiz-adv-x="1728" 
d="M575 0l459 1462h119l-459 -1462h-119zM1532 246q0 174 -171 174t-171 -174t171 -174t171 174zM1514 652q0 156 -152 157q-152 0 -152 -157t152 -156q152 0 152 156zM1610 655q0 -71 -20 -113t-70 -77q61 -31 88 -81t26 -138q0 -131 -66 -194q-67 -62 -207 -62t-207 62
t-67 194q0 164 117 219q-49 33 -69 76t-21 114q0 233 248 233t248 -233zM621 1462v-86h-334l-31 -276q68 31 137 30q254 0 254 -278t-280 -277q-225 0 -254 179l98 20q31 -113 162 -112q80 0 125 50t45 138q0 197 -160 197q-88 0 -156 -56l-75 15l47 456h422z" />
    <glyph glyph-name="seveneighths" unicode="&#x215e;" horiz-adv-x="1728" 
d="M524 0l457 1462h119l-459 -1462h-117zM1325 420q-174 0 -174 -174t171 -174t171 174t-168 174zM1475 652q0 156 -152 157q-152 0 -152 -157t152 -156q152 0 152 156zM1075 653q0 236 248 236t248 -234q1 -73 -19 -115t-71 -75q61 -31 88 -81t26 -136q0 -133 -66 -196
q-67 -62 -207 -62t-207 62t-66 194q-1 164 116 219q-90 57 -90 188zM139 1376v86h498v-61l-303 -815h-113l301 790h-383z" />
    <glyph glyph-name="arrowleft" unicode="&#x2190;" horiz-adv-x="1638" 
d="M1497 696h-1218l395 -395l-78 -78l-496 504v47l496 504l78 -78l-395 -395h1218v-109z" />
    <glyph glyph-name="arrowup" unicode="&#x2191;" horiz-adv-x="1638" 
d="M719 0v1300l-393 -395l-78 78l504 498h47l504 -498l-78 -78l-394 395v-1300h-112z" />
    <glyph glyph-name="arrowright" unicode="&#x2192;" horiz-adv-x="1638" 
d="M139 696v109h1219l-395 395l77 78l496 -504v-47l-496 -504l-77 78l395 395h-1219z" />
    <glyph glyph-name="arrowdown" unicode="&#x2193;" horiz-adv-x="1638" 
d="M719 1462h112v-1300l394 395l78 -78l-504 -497h-47l-504 497l78 78l393 -395v1300z" />
    <glyph glyph-name="arrowboth" unicode="&#x2194;" horiz-adv-x="1638" 
d="M1374 696h-1112l377 -377l-78 -75l-477 483v47l477 483l78 -75l-377 -377h1112l-375 377l76 75l477 -483v-47l-477 -483l-76 75z" />
    <glyph glyph-name="arrowupdn" unicode="&#x2195;" horiz-adv-x="1638" 
d="M721 143v1176l-375 -375l-78 76l484 477h47l483 -477l-76 -76l-377 375v-1176l377 375l76 -76l-483 -477h-47l-484 477l78 76z" />
    <glyph glyph-name="uni2196" unicode="&#x2196;" horiz-adv-x="1638" 
d="M412 530h-109v707l39 39h707v-109h-562l877 -874l-78 -78l-874 875v-560z" />
    <glyph glyph-name="uni2197" unicode="&#x2197;" horiz-adv-x="1638" 
d="M590 1167v109h706l39 -39v-707h-108v560l-875 -875l-78 78l875 874h-559z" />
    <glyph glyph-name="uni2198" unicode="&#x2198;" horiz-adv-x="1638" 
d="M1225 973h108v-707l-39 -39h-706v109h559l-873 874l76 78l875 -874v559z" />
    <glyph glyph-name="uni2199" unicode="&#x2199;" horiz-adv-x="1638" 
d="M1049 336v-109h-707l-39 39v707h109v-559l874 874l76 -78l-875 -874h562z" />
    <glyph glyph-name="partialdiff" unicode="&#x2202;" 
d="M842 434v139q0 352 -289 353q-291 0 -291 -353v-139q0 -350 290 -350t290 350zM963 430q0 -449 -410 -448q-412 0 -412 448v150q0 446 391 446q146 0 238 -74l-2 6l-12 25q-53 119 -82 172q-147 190 -375 231l16 82q431 -44 592 -550q55 -174 56 -338v-150z" />
    <glyph glyph-name="emptyset" unicode="&#x2205;" 
d="M913 763q0 173 -139 298l-373 -662q80 -25 146 -24q160 -1 263 107t103 281zM526 1137q-152 0 -255 -110t-103 -271q0 -195 158 -320l374 666q-104 35 -174 35zM547 289q-86 0 -185 33l-219 -390l-75 35l217 389q-209 139 -209 400q0 205 127 331q61 63 147 99t175 37
q89 0 216 -43l199 352l76 -33l-201 -358q190 -139 191 -385q0 -205 -129 -336t-330 -131z" />
    <glyph glyph-name="Delta" unicode="&#x2206;" 
d="M979 104l-422 1176l-422 -1176h844zM1153 0h-1192l543 1462h106z" />
    <glyph glyph-name="product" unicode="&#x220f;" horiz-adv-x="1159" 
d="M137 -424v1886h883v-1886h-125v1776h-633v-1776h-125z" />
    <glyph glyph-name="summation" unicode="&#x2211;" horiz-adv-x="1132" 
d="M129 -424v72l438 934l-417 800v80h919v-108h-760l406 -772l-414 -897h791v-109h-963z" />
    <glyph glyph-name="minus" unicode="&#x2212;" 
d="M66 698v103h976v-103h-976z" />
    <glyph glyph-name="uni2215" unicode="&#x2215;" horiz-adv-x="313" 
d="M-123 0l457 1462h119l-457 -1462h-119z" />
    <glyph glyph-name="uni2218" unicode="&#x2218;" 
d="M553 1004q-113 0 -187 -72t-75 -182q0 -110 75 -182q76 -72 188 -72t186 72t75 182q-1 110 -75 182t-187 72zM554 1079q144 0 242 -95t99 -235q0 -139 -97 -235t-245 -96t-245 95t-97 237t99 235q100 94 244 94z" />
    <glyph glyph-name="uni2219" unicode="&#x2219;" horiz-adv-x="565" 
d="M221 662v178h127v-178h-127z" />
    <glyph glyph-name="radical" unicode="&#x221a;" 
d="M53 629v104h254l185 -571l430 1599h493v-94h-397l-457 -1667h-131l-215 629h-162z" />
    <glyph glyph-name="infinity" unicode="&#x221e;" horiz-adv-x="1484" 
d="M1071 954q-81 0 -149 -49t-113 -133l-12 -20l12 -21q99 -182 261 -182q80 0 138 56q58 57 58 147t-58 146t-137 56zM416 954q-80 0 -137 -56t-57 -146t56 -146q58 -56 148 -57q150 0 252 182l12 21l-12 20q-45 82 -114 132q-68 50 -148 50zM414 455q-135 0 -216 81
t-81 216t81 216t220 81t237 -95q27 -25 88 -118q61 96 103 133q92 80 226 80t216 -81t82 -216t-81 -216t-222 -81t-236 94q-35 33 -88 119q-59 -96 -102 -133q-92 -80 -227 -80z" />
    <glyph glyph-name="integral" unicode="&#x222b;" horiz-adv-x="878" 
d="M299 -104q96 0 127 71q18 45 18 168v1120q0 180 39 256q55 109 213 109q51 0 115 -16l-23 -101q-49 12 -75 13q-96 0 -127 -74q-16 -39 -17 -160v-1126q0 -176 -41 -256q-55 -109 -213 -109q-44 0 -114 14l22 103q47 -12 76 -12z" />
    <glyph glyph-name="similar" unicode="&#x223c;" 
d="M334 889q78 1 124 -19q48 -20 123 -73t109 -69t72 -17q109 0 166 155l86 -24q-76 -228 -236 -230q-76 0 -122 18q-44 18 -119 72t-109 70t-76 16q-113 1 -172 -157l-86 20q42 127 102 183t138 55z" />
    <glyph glyph-name="uni2243" unicode="&#x2243;" 
d="M762 774q-78 0 -121 18t-118 72t-109 70t-76 16q-113 1 -172 -157l-86 18q45 131 102 184t136 53t127 -18q48 -20 124 -76q72 -49 107 -65q153 -70 239 137l84 -22q-41 -122 -100 -176t-137 -54zM78 545v100h923v-100h-923z" />
    <glyph glyph-name="approxequal" unicode="&#x2248;" 
d="M1014 1004q-78 -230 -238 -230q-78 0 -120 18q-44 18 -119 72t-109 70t-76 16q-113 1 -172 -157l-86 18q44 129 102 183t136 54t128 -18q50 -20 124 -76q72 -49 106 -65q34 -17 82 -17q47 0 84 35t72 119zM1014 682q-76 -231 -240 -231q-78 0 -120 18q-44 19 -118 73
t-108 70t-76 17q-113 0 -172 -160l-86 20q42 127 102 183t138 55q78 0 124 -19q48 -18 123 -72t109 -70t72 -17q106 0 166 156z" />
    <glyph glyph-name="notequal" unicode="&#x2260;" 
d="M90 545v100h356l97 211h-453v100h500l110 242l97 -41l-95 -201h312v-100h-357l-96 -211h453v-100h-500l-111 -242l-96 41l94 201h-311z" />
    <glyph glyph-name="lessequal" unicode="&#x2264;" 
d="M92 0v102h848v-102h-848zM240 766l700 -344v-123l-848 428v78l848 428v-121z" />
    <glyph glyph-name="greaterequal" unicode="&#x2265;" 
d="M166 0v102h848v-102h-848zM866 766l-700 346v121l848 -428v-78l-848 -428v123z" />
    <glyph glyph-name="dotmath" unicode="&#x22c5;" horiz-adv-x="565" 
d="M221 662v178h127v-178h-127z" />
    <glyph glyph-name="filledrect" unicode="&#x25ac;" 
d="M244 438v621h620v-621h-620z" />
    <glyph glyph-name="uni25B4" unicode="&#x25b4;" 
d="M178 428l375 746l373 -746h-748z" />
    <glyph glyph-name="uni25B8" unicode="&#x25b8;" 
d="M252 375v747l747 -372z" />
    <glyph glyph-name="uni25BE" unicode="&#x25be;" 
d="M178 1069h748l-373 -745z" />
    <glyph glyph-name="uni25C2" unicode="&#x25c2;" 
d="M856 375l-747 375l747 372v-747z" />
    <glyph glyph-name="lozenge" unicode="&#x25ca;" 
d="M166 709l387 -574l389 574l-389 575zM31 709l522 766l524 -766l-524 -764z" />
    <glyph glyph-name="openbullet" unicode="&#x25e6;" 
d="M553 1004q-113 0 -187 -72t-75 -182q0 -110 75 -182q76 -72 188 -72t186 72t75 182q-1 110 -75 182t-187 72zM554 1079q144 0 242 -95t99 -235q0 -139 -97 -235t-245 -96t-245 95t-97 237t99 235q100 94 244 94z" />
    <glyph glyph-name="commaaccent" unicode="&#xf6c3;" horiz-adv-x="1024" 
d="M393 -440l111 293h135l-158 -293h-88z" />
    <glyph glyph-name="Acute" unicode="&#xf6c9;" horiz-adv-x="1024" 
d="M426 1626l149 281h158l-213 -281h-94z" />
    <glyph glyph-name="Caron" unicode="&#xf6ca;" horiz-adv-x="1024" 
d="M512 1726l150 168h139l-252 -260h-72l-254 260h142z" />
    <glyph glyph-name="Dieresis" unicode="&#xf6cb;" horiz-adv-x="1024" 
d="M651 1645v194h115v-194h-115zM258 1645v194h115v-194h-115z" />
    <glyph glyph-name="Grave" unicode="&#xf6ce;" horiz-adv-x="1024" 
d="M604 1626h-94l-213 281h158z" />
    <glyph glyph-name="Hungarumlaut" unicode="&#xf6cf;" horiz-adv-x="1024" 
d="M582 1626l118 281h146l-174 -281h-90zM332 1626l119 281h145l-174 -281h-90z" />
    <glyph glyph-name="Macron" unicode="&#xf6d0;" horiz-adv-x="1024" 
d="M268 1714v90h488v-90h-488z" />
    <glyph glyph-name="zerooldstyle" unicode="&#xf730;" horiz-adv-x="1030" 
d="M762 418v248q0 172 -58 250t-188 79q-129 1 -187 -77t-59 -252v-248q0 -174 58 -253t188 -79t188 79t58 253zM143 412v260q0 219 88 315q98 113 291 113t293 -131q74 -96 74 -297v-260q0 -221 -88 -318q-98 -112 -294 -112t-292 131q-72 98 -72 299z" />
    <glyph glyph-name="oneoldstyle" unicode="&#xf731;" horiz-adv-x="669" 
d="M295 0v946l-260 -115l-39 103l336 149h90v-1083h-127z" />
    <glyph glyph-name="twooldstyle" unicode="&#xf732;" horiz-adv-x="899" 
d="M45 0v84l363 352q125 121 178 205t53 168t-58 135t-169 51q-201 0 -252 -180l-113 27q61 258 367 258q168 0 258 -78t90 -221q0 -100 -50 -180t-216 -244l-281 -273h578v-104h-748z" />
    <glyph glyph-name="threeoldstyle" unicode="&#xf733;" horiz-adv-x="968" 
d="M258 371v104h133q121 0 199 77t78 194q0 118 -62 184t-170 65q-174 0 -225 -157l-113 32q45 126 124 178q78 52 232 52t247 -91t94 -257q-1 -123 -53 -202t-167 -126q143 -47 207 -130q64 -84 64 -236t-90 -261q-111 -129 -346 -129q-309 0 -383 213l116 45
q18 -74 88 -114t179 -39q160 0 234 88t75 218q0 130 -89 211t-231 81h-141z" />
    <glyph glyph-name="fouroldstyle" unicode="&#xf734;" horiz-adv-x="933" 
d="M635 -315v315h-596v80l463 1003h133l-459 -981h459v486h115v-486h151v-104h-151v-313h-115z" />
    <glyph glyph-name="fiveoldstyle" unicode="&#xf735;" horiz-adv-x="1052" 
d="M856 1083v-108h-514l-49 -496q123 70 237 70q373 0 373 -428q0 -453 -426 -453q-299 0 -373 213l117 45q18 -72 87 -112t171 -41q143 0 220 88t77 254q0 330 -268 329q-133 0 -246 -94l-92 19l66 714h620z" />
    <glyph glyph-name="sixoldstyle" unicode="&#xf736;" horiz-adv-x="1081" 
d="M549 793q-266 1 -266 -353t263 -354t263 354t-260 353zM582 893q184 0 282 -137q72 -102 72 -330q0 -446 -389 -444q-213 0 -314 135q-77 98 -77 310t104 398l332 598h143l-332 -577q40 16 72 32q33 16 107 15z" />
    <glyph glyph-name="sevenoldstyle" unicode="&#xf737;" horiz-adv-x="796" 
d="M-14 975v108h716v-77l-442 -1321h-135l442 1290h-581z" />
    <glyph glyph-name="eightoldstyle" unicode="&#xf738;" horiz-adv-x="1114" 
d="M561 698q-147 0 -218 -72t-71 -227q0 -317 286 -317t286 317q0 299 -283 299zM561 1341q-244 0 -244 -272t241 -272t241 272t-238 272zM558 1442q363 0 364 -371q0 -238 -170 -313q113 -39 166 -125t53 -232q0 -420 -414 -419q-412 0 -412 419q1 283 220 357
q-92 45 -132 118q-39 73 -38 195q0 371 363 371z" />
    <glyph glyph-name="nineoldstyle" unicode="&#xf739;" horiz-adv-x="1081" 
d="M801 641q0 354 -263 354q-264 0 -264 -353t261 -353q137 0 201 86t65 266zM147 656q0 444 390 444q209 0 313 -135q78 -97 78 -315t-105 -394l-331 -571h-144l332 551q-93 -47 -178 -48q-184 0 -283 138q-72 102 -72 330z" />
    <glyph glyph-name="Dbreve" horiz-adv-x="1392" 
d="M649 1718q86 0 125 38t49 128h88q-8 -150 -64 -207t-198 -57q-182 0 -235 117q-21 45 -27 147h90q8 -92 47 -129t125 -37zM354 1356v-1250h308q418 -8 411 461v330q8 467 -411 459h-308zM227 0v1462h453q260 4 393 -138t127 -415v-356q6 -271 -127 -413t-393 -140h-453z
" />
    <glyph glyph-name="ahungarumlaut" horiz-adv-x="1067" 
d="M602 1194l119 281h145l-174 -281h-90zM352 1194l119 281h145l-174 -281h-90zM758 492h-254q-154 0 -217 -48t-63 -160t58 -155t222 -43t223 76q31 37 31 145v185zM758 586v88q0 123 -41 180q-57 80 -212 80t-253 -105l-84 68q123 139 352 139t314 -137q47 -78 47 -240
v-659h-101l-10 80q-49 -55 -117 -77t-188 -21q-199 0 -280 66t-81 235q0 167 86 235t306 68h262z" />
    <glyph glyph-name="uni0204.sc" horiz-adv-x="964" 
d="M457 1245h-90l-174 281h145zM707 1245h-91l-174 281h146zM176 0v1083h666v-104h-543v-379h463v-104h-463v-392h543v-104h-666z" />
    <glyph glyph-name="uni0206.sc" horiz-adv-x="964" 
d="M537 1423q-86 0 -124 -38t-48 -128h-91q8 150 66 207t197 58q184 0 237 -117q19 -48 25 -148h-88q-8 92 -48 129t-126 37zM205 0v1083h665v-104h-542v-379h463v-104h-463v-392h542v-104h-665z" />
    <glyph glyph-name="uni0208.sc" horiz-adv-x="530" 
d="M197 1245h-91l-174 281h146zM446 1245h-90l-174 281h146zM203 0v1083h125v-1083h-125z" />
    <glyph glyph-name="uni020A.sc" horiz-adv-x="530" 
d="M264 1423q-86 0 -124 -38t-48 -128h-90q8 150 66 207t196 58q184 0 238 -117q18 -48 24 -148h-88q-8 92 -48 129t-126 37zM203 0v1083h123v-1083h-123z" />
    <glyph glyph-name="uni020C.sc" horiz-adv-x="1136" 
d="M485 1245h-90l-174 281h146zM735 1245h-90l-174 281h145zM831 436v211q0 178 -67 263q-68 85 -210 85t-210 -85t-68 -263v-211q0 -180 68 -265t210 -85t210 85q67 85 67 265zM954 424q0 -444 -401 -442q-217 0 -322 137q-77 100 -77 305v233q0 219 94 326
q110 117 316 117t313 -137q78 -100 77 -306v-233z" />
    <glyph glyph-name="uni020E.sc" horiz-adv-x="1136" 
d="M569 1423q-86 0 -124 -38t-48 -128h-90q7 150 65 207t197 58q184 0 238 -117q18 -48 24 -148h-88q-8 92 -48 129t-126 37zM846 436v211q0 178 -68 263t-210 85t-210 -85t-67 -263v-211q-1 -180 67 -265t210 -85t210 85t68 265zM969 424q0 -444 -402 -442q-217 0 -321 137
q-78 100 -78 305v233q0 219 94 326q110 117 316 117t313 -137q78 -100 78 -306v-233z" />
    <glyph glyph-name="uni0210.sc" horiz-adv-x="1093" 
d="M440 1245h-90l-174 281h146zM690 1245h-90l-174 281h145zM317 567h271q223 0 223 207t-240 207h-254v-414zM317 471v-471h-122v1083h389q180 1 266 -73t86 -232t-94 -233q-47 -39 -146 -60l258 -485h-141l-238 471h-258z" />
    <glyph glyph-name="uni0212.sc" horiz-adv-x="1093" 
d="M502 1423q-86 0 -124 -38t-48 -128h-90q8 150 65 207t197 58q184 0 237 -117q19 -48 25 -148h-88q-8 92 -48 129t-126 37zM328 567h270q223 0 223 207t-239 207h-254v-414zM328 471v-471h-123v1083h389q180 1 266 -73t86 -232t-94 -233q-47 -39 -145 -60l258 -485h-142
l-237 471h-258z" />
    <glyph glyph-name="uni0214.sc" horiz-adv-x="1173" 
d="M504 1245h-90l-174 281h145zM754 1245h-90l-175 281h146zM182 1083h123v-690q0 -150 45 -211q68 -96 228 -96t225 111q35 61 35 196v690h123v-690q1 -115 -15 -176t-55 -111q-100 -124 -330 -124t-323 145q-55 80 -56 266v690z" />
    <glyph glyph-name="uni0216.sc" horiz-adv-x="1173" 
d="M586 1423q-86 0 -124 -38t-48 -128h-90q8 150 65 207t197 58q184 0 237 -117q19 -48 25 -148h-88q-8 92 -48 129t-126 37zM197 1083h122v-690q0 -150 46 -211q67 -96 227 -96t225 111q35 61 35 196v690h123v-690q1 -115 -15 -176t-55 -111q-99 -124 -329 -124t-324 145
q-55 80 -55 266v690z" />
    <glyph glyph-name="uni1E24.sc" horiz-adv-x="1159" 
d="M518 -385v195h121v-195h-121zM203 0v1083h123v-483h503v483h125v-1083h-125v496h-503v-496h-123z" />
    <glyph glyph-name="uni1E5A.sc" horiz-adv-x="1093" 
d="M489 -385v195h121v-195h-121zM328 567h270q223 0 223 207t-239 207h-254v-414zM328 471v-471h-123v1083h389q180 1 266 -73t86 -232t-94 -233q-47 -39 -145 -60l258 -485h-142l-237 471h-258z" />
    <glyph glyph-name="uni1E62.sc" horiz-adv-x="948" 
d="M414 -385v195h121v-195h-121zM475 86q127 0 198 53t71 147q-1 129 -133 171q-28 8 -180 44q-152 37 -228 107t-76 201t93 211t257 80q240 0 334 -137l-96 -62q-86 94 -236 94q-105 0 -167 -50t-62 -136t60 -133t194 -78t172 -44q191 -64 190 -261q0 -150 -101 -231
t-290 -80q-279 -1 -385 163l98 62q88 -121 287 -121z" />
    <glyph glyph-name="uni1E6C.sc" horiz-adv-x="884" 
d="M381 -385v195h121v-195h-121zM383 0v979h-334v104h787v-104h-330v-979h-123z" />
    <glyph glyph-name="uni1E92.sc" horiz-adv-x="868" 
d="M377 -385v195h121v-195h-121zM78 0v88l534 891h-503v104h645v-88l-533 -891h557v-104h-700z" />
    <glyph glyph-name="uni1E44.sc" horiz-adv-x="1226" 
d="M563 1264v194h121v-194h-121zM203 0v1083h114l584 -878v878h121v-1083h-111l-587 881v-881h-121z" />
    <glyph glyph-name="uni1E0C.sc" horiz-adv-x="1146" 
d="M465 -385v195h121v-195h-121zM326 102h219q161 -4 237 79t74 259v203q2 176 -75 259t-236 79h-219v-879zM203 0v1083h360q211 2 317 -107q105 -110 99 -321v-227q6 -213 -99 -322t-317 -106h-360z" />
    <glyph glyph-name="uni1E02.sc" horiz-adv-x="1071" 
d="M455 1264v194h120v-194h-120zM324 100h317q207 0 207 201q0 207 -207 207h-317v-408zM324 604h294q205 0 205 190t-205 189h-294v-379zM623 1083q323 -1 323 -289q0 -148 -135 -229q160 -80 160 -274q0 -291 -326 -291h-442v1083h420z" />
    <glyph glyph-name="idotaccent" horiz-adv-x="505" 
d="M190 0v1018h123v-1018h-123zM190 1270v196h123v-196h-123z" />
    <glyph glyph-name="one.fitted" horiz-adv-x="669" 
d="M295 0v1327l-260 -117l-39 103l336 149h90v-1462h-127z" />
    <glyph glyph-name="two.fitted" horiz-adv-x="1001" 
d="M70 0v86l403 537q127 173 178 287t51 223q0 240 -243 239q-207 0 -269 -227l-114 12q20 152 124 238t272 86q169 0 263 -92t94 -242t-56 -274t-212 -332l-321 -432h602v-109h-772z" />
    <glyph glyph-name="three.fitted" horiz-adv-x="980" 
d="M266 719v104h129q127 0 208 77t81 201q0 125 -68 197t-188 72q-203 0 -252 -178l-115 10q23 133 118 205t264 72q169 -1 269 -99t99 -278q0 -125 -51 -202t-166 -128q254 -94 254 -379q0 -199 -111 -304t-301 -105t-295 73q-104 74 -123 211l121 15q47 -190 279 -191
q143 0 223 80t80 223t-89 233t-231 91h-135z" />
    <glyph glyph-name="four.fitted" horiz-adv-x="1095" 
d="M705 0v276h-601v80l476 1106h135l-465 -1079h455v487h118v-487h150v-109h-150v-274h-118z" />
    <glyph glyph-name="five.fitted" horiz-adv-x="1077" 
d="M872 1462v-108h-524l-55 -525q106 70 239 70q209 0 312 -147q72 -109 72 -315t-91 -320q-111 -133 -331 -133q-164 0 -265 73q-100 74 -120 211l120 15q47 -190 267 -191q141 0 217 88t75 252q0 360 -274 361q-135 0 -250 -95l-92 19l70 745h630z" />
    <glyph glyph-name="six.fitted" horiz-adv-x="1083" 
d="M551 788q-135 0 -201 -85t-65 -263q0 -348 263 -348t263 348t-260 348zM584 893q184 0 282 -137q72 -102 72 -330q0 -444 -389 -442q-211 0 -313 133q-78 102 -78 325q0 113 20 189t84 194l332 637h143l-331 -616q76 47 178 47z" />
    <glyph glyph-name="seven.fitted" horiz-adv-x="796" 
d="M-14 1354v108h716v-78l-442 -1384h-135l442 1354h-581z" />
    <glyph glyph-name="eight.fitted" horiz-adv-x="1118" 
d="M563 715q-151 0 -221 -77t-70 -236q0 -160 71 -236t216 -76q287 0 287 312t-283 313zM561 1376q-254 0 -254 -278t251 -279q251 1 251 279t-248 278zM184 1100q0 381 374 381t374 -381q0 -125 -39 -203t-127 -123q109 -43 158 -132t49 -239q0 -422 -414 -421
q-414 0 -414 421q0 150 49 239t158 132q-92 53 -130 126t-38 200z" />
    <glyph glyph-name="nine.fitted" horiz-adv-x="1083" 
d="M539 1370q-267 0 -267 -318t263 -319q264 1 264 319t-260 318zM498 631q-352 0 -353 420q1 219 97 323t298 104t308 -124q78 -96 78 -299q0 -104 -16 -169t-62 -159l-359 -727h-143l338 670q-90 -39 -186 -39z" />
    <glyph glyph-name="zero.fitted" horiz-adv-x="1122" 
d="M829 520v422q0 223 -64 326q-65 102 -205 102t-205 -102t-64 -326v-422q1 -223 65 -325q64 -103 204 -103t204 102t65 326zM166 504v454q0 262 88 379q104 141 315 141t314 -163q72 -113 71 -357v-454q0 -262 -88 -379q-104 -141 -315 -141t-313 163q-72 113 -72 357z
" />
    <glyph glyph-name="sterling.fitted" horiz-adv-x="1114" 
d="M137 0v94q100 42 168 148t68 227q0 72 -33 172h-209v109h160q-67 120 -91 188t-24 143q0 184 106 292t291 108q183 0 289 -93t146 -288l-109 -27q-31 129 -72 184q-86 117 -245 117q-125 0 -202 -78t-77 -204q0 -70 26 -139t103 -203h350v-109h-313q27 -88 27 -162
q0 -219 -177 -370h707v-109h-889z" />
    <glyph glyph-name="dollar.fitted" horiz-adv-x="1161" 
d="M563 125q174 0 272 72q97 71 97 199t-98 194q-47 31 -82 42q-34 11 -230 57t-295 138q-98 92 -98 248q0 213 172 311q76 45 221 54v221h119v-223q113 -8 203 -52t131 -110l-98 -66q-92 125 -314 125q-145 -1 -227 -67t-82 -183t80 -183t254 -104q174 -40 225 -58
q244 -89 244 -334q-1 -170 -107 -268t-309 -115v-293h-119v288q-152 6 -268 60t-166 141l100 66q98 -160 375 -160z" />
    <glyph glyph-name="cent.fitted" horiz-adv-x="991" 
d="M276 758q0 -350 296 -350q148 0 229 100l90 -57q-86 -121 -268 -140v-231h-119v231q-170 10 -261 130t-87 331v94q-6 459 348 490v221h119v-223q168 -20 247 -146l-94 -51q-80 103 -220 103q-280 1 -280 -388v-114z" />
    <glyph glyph-name="Euro.fitted" horiz-adv-x="1126" 
d="M197 604v148h-191l39 94h152v35q0 307 98 438q117 160 346 160q182 1 292 -93t118 -258l-117 -10q-14 119 -91 186t-200 66q-166 0 -243 -118t-76 -371v-35h589l-39 -94h-550v-148h489l-39 -94h-448q8 -218 87 -320t238 -102q125 0 206 62t97 174l111 -15
q-10 -157 -122 -243t-298 -86q-293 0 -397 247q-41 98 -49 283h-189l39 94h148z" />
    <glyph glyph-name="yen.fitted" horiz-adv-x="1134" 
d="M504 0v319h-322v95h322v131h-322v94h281l-408 823h135l377 -774l375 774h137l-407 -823h280v-94h-321v-131h321v-95h-321v-319h-127z" />
    <glyph glyph-name="one.numerator" horiz-adv-x="708" 
d="M324 586v770l-162 -66l-31 82l221 90h76v-876h-104z" />
    <glyph glyph-name="two.numerator" horiz-adv-x="708" 
d="M111 586v67l260 314q135 164 135 270q0 70 -40 111t-110 41q-129 0 -166 -136l-96 15q23 110 85 158t182 48t185 -60q65 -62 64 -179q0 -80 -35 -152t-126 -182l-191 -229h350v-86h-497z" />
    <glyph glyph-name="three.numerator" horiz-adv-x="708" 
d="M229 1008v77h93q72 0 120 44t50 110q0 66 -42 107t-112 40q-119 0 -154 -106l-94 14q33 178 252 179q122 1 188 -59t66 -173q0 -74 -27 -117t-90 -75q141 -61 142 -224q0 -250 -287 -250q-238 0 -271 179l99 20q31 -113 172 -112q84 0 133 45t49 123t-53 127
q-53 50 -135 51h-99z" />
    <glyph glyph-name="four.numerator" horiz-adv-x="708" 
d="M449 586v176h-383v63l303 637h112l-295 -616h263v201h96v-201h94v-88h-94v-172h-96z" />
    <glyph glyph-name="five.numerator" horiz-adv-x="708" 
d="M590 1462v-86h-334l-31 -276q68 31 137 30q254 0 254 -278t-280 -277q-225 0 -254 179l98 20q31 -113 162 -112q80 0 125 50t45 138q0 197 -160 197q-88 0 -155 -56l-76 15l47 456h422z" />
    <glyph glyph-name="six.numerator" horiz-adv-x="708" 
d="M355 1047q-157 0 -157 -194t158 -194q156 0 156 194t-157 194zM381 1128q233 0 233 -274q0 -143 -62 -211t-196 -68t-197 68q-62 68 -63 213q0 70 14 116q13 46 54 115l213 375h121l-203 -346q41 12 86 12z" />
    <glyph glyph-name="seven.numerator" horiz-adv-x="708" 
d="M109 1376v86h497v-61l-303 -815h-113l302 790h-383z" />
    <glyph glyph-name="eight.numerator" horiz-adv-x="708" 
d="M356 1006q-174 0 -174 -174t171 -173q171 -1 171 173t-168 174zM506 1237q0 156 -153 156t-153 -156t154 -156q152 0 152 156zM602 1239q0 -72 -19 -114t-71 -74q61 -31 88 -81t27 -136q0 -134 -67 -196t-207 -62t-207 62t-66 196q0 162 115 215q-90 61 -91 190
q0 233 249 233t249 -233z" />
    <glyph glyph-name="nine.numerator" horiz-adv-x="708" 
d="M352 1391q-158 1 -158 -179t158 -180q156 0 156 180q0 86 -40 132t-116 47zM610 1214q0 -106 -51 -200l-227 -428h-123l209 381q-57 -14 -96 -15q-229 0 -230 258q0 134 64 198t196 65q258 0 258 -259z" />
    <glyph glyph-name="zero.numerator" horiz-adv-x="708" 
d="M512 901v246q0 244 -159 244t-158 -244v-246q1 -242 159 -242t158 242zM92 891v266q0 162 65 239t197 77q260 0 260 -316v-266q0 -315 -260 -316q-134 0 -198 77t-64 239z" />
    <glyph glyph-name="one.denominator" horiz-adv-x="708" 
d="M324 0v770l-162 -65l-31 81l221 91h76v-877h-104z" />
    <glyph glyph-name="two.denominator" horiz-adv-x="708" 
d="M111 0v68l260 313q135 164 135 270q0 70 -40 111t-110 41q-127 0 -166 -135l-96 14q23 109 85 158t182 49q120 1 185 -61t64 -179q0 -79 -35 -151t-126 -183l-191 -229h350v-86h-497z" />
    <glyph glyph-name="three.denominator" horiz-adv-x="708" 
d="M229 422v78h93q72 0 120 44t50 110q0 66 -42 106q-42 41 -112 41q-119 0 -154 -107l-94 15q33 178 252 178q122 1 188 -59t66 -173q0 -75 -27 -117t-90 -75q141 -61 142 -223q0 -250 -287 -250q-236 0 -271 178l99 20q31 -113 172 -112q84 0 133 45t49 123t-53 128
t-135 50h-99z" />
    <glyph glyph-name="four.denominator" horiz-adv-x="708" 
d="M449 0v174h-383v66l303 637h112l-295 -617h263v201h96v-201h94v-88h-94v-172h-96z" />
    <glyph glyph-name="five.denominator" horiz-adv-x="708" 
d="M590 877v-86h-334l-31 -277q68 31 137 31q254 0 254 -278t-280 -277q-225 0 -254 178l98 20q31 -113 162 -112q80 0 125 50t45 138q0 199 -160 199q-86 0 -155 -57l-76 14l47 457h422z" />
    <glyph glyph-name="six.denominator" horiz-adv-x="708" 
d="M512 268q0 196 -157 195q-157 0 -157 -196t156 -195q158 0 158 196zM614 268q0 -143 -62 -211q-62 -67 -196 -67t-197 68q-62 68 -63 212q0 70 14 116q13 46 54 116l213 375h121l-203 -347q41 12 86 13q233 0 233 -275z" />
    <glyph glyph-name="seven.denominator" horiz-adv-x="708" 
d="M109 791v86h497v-62l-303 -815h-113l302 791h-383z" />
    <glyph glyph-name="eight.denominator" horiz-adv-x="708" 
d="M356 420q-174 0 -174 -174t171 -174t171 174t-168 174zM506 652q0 156 -153 157q-153 0 -153 -157t154 -156q152 0 152 156zM602 655q0 -73 -19 -115t-71 -75q61 -31 88 -81t27 -136q0 -134 -67 -196t-207 -62t-207 62t-66 194q0 164 115 219q-49 33 -70 76
q-20 43 -21 114q0 233 249 233t249 -233z" />
    <glyph glyph-name="nine.denominator" horiz-adv-x="708" 
d="M352 805q-158 0 -158 -179t156 -180q158 0 158 181q0 86 -40 132t-116 46zM322 367q-229 0 -230 258q0 135 64 198t196 64q258 0 258 -258q0 -106 -51 -201l-227 -428h-123l209 381q-57 -14 -96 -14z" />
    <glyph glyph-name="zero.denominator" horiz-adv-x="708" 
d="M512 315v248q0 242 -159 242t-158 -242v-248q0 -244 159 -243q158 -1 158 243zM92 305v266q0 162 65 239t197 77q260 0 260 -316v-266q0 -315 -260 -315q-134 0 -198 76t-64 239z" />
    <glyph glyph-name="oneone" horiz-adv-x="1728" 
d="M1282 0v770l-162 -65l-30 81l221 91h75v-877h-104zM498 0l458 1462h117l-457 -1462h-118zM344 586v770l-162 -66l-30 82l221 90h76v-876h-105z" />
    <glyph glyph-name="Dotaccent" horiz-adv-x="1024" 
d="M451 1645v194h120v-194h-120z" />
    <glyph glyph-name="Ring" horiz-adv-x="1024" 
d="M514 1933q-106 0 -106 -127q0 -59 28 -92t76 -33q49 0 77 34q27 34 27 92t-27 93q-28 33 -75 33zM512 2005q90 0 144 -54q54 -55 54 -143t-54 -143t-144 -55t-144 55t-54 144t54 143t144 53z" />
    <glyph glyph-name="Circumflex" horiz-adv-x="1024" 
d="M512 1804l-147 -168h-142l252 258h74l252 -258h-139z" />
    <glyph glyph-name="Breve" horiz-adv-x="1024" 
d="M512 1718q86 0 125 38t49 128h88q-8 -150 -64 -207t-198 -57q-182 0 -236 117q-20 45 -26 147h90q8 -92 47 -129t125 -37z" />
    <glyph glyph-name="Tilde" horiz-adv-x="1024" 
d="M390 1870q72 0 145 -67q74 -67 110 -66q57 0 90 116h84q-31 -117 -69 -161t-110 -45q-72 1 -146 67t-113 66q-59 0 -90 -117h-84q31 115 71 161t112 46z" />
    <glyph glyph-name="Cedilla" horiz-adv-x="1024" 
d="M393 -440l111 293h135l-158 -293h-88z" />
    <glyph glyph-name="Ogonek" horiz-adv-x="1024" 
d="M639 -301q53 0 117 18l12 -77q-76 -25 -150 -25q-203 0 -202 152q0 72 51 133t143 100h123q-111 -58 -157 -108t-46 -107q0 -86 109 -86z" />
    <glyph glyph-name="Commaaccent" horiz-adv-x="1024" 
d="M393 -440l111 293h135l-158 -293h-88z" />
    <glyph glyph-name="Comma.high" horiz-adv-x="208" 
d="M8 1040l47 433h133l-94 -433h-86z" />
    <glyph glyph-name="Croatumlaut" horiz-adv-x="1024" 
d="M442 1626h-90l-174 281h146zM692 1626h-90l-174 281h145z" />
    <glyph glyph-name="Croatbreve" horiz-adv-x="1024" 
d="M512 1802q-86 0 -125 -38t-47 -128h-90q8 150 65 207t197 58q184 0 238 -117q18 -48 24 -148h-88q-8 92 -48 129t-126 37z" />
    <glyph glyph-name="Cicumflexacute" horiz-adv-x="1024" 
d="M717 1737l149 280h152l-213 -280h-88zM512 1804l-147 -168h-142l252 258h74l252 -258h-139z" />
    <glyph glyph-name="Ringacute" horiz-adv-x="1024" 
d="M449 1831l112 233h154l-185 -233h-81zM514 1720q-106 0 -106 -127q0 -59 28 -92t76 -33q49 0 77 33t27 92q0 59 -27 94q-28 33 -75 33zM512 1792q90 0 144 -54t54 -142t-54 -144q-54 -55 -144 -55t-144 55t-54 144q0 88 54 142t144 54z" />
    <glyph glyph-name="croatumlaut" horiz-adv-x="1024" 
d="M442 1194h-90l-174 281h146zM692 1194h-90l-174 281h145z" />
    <glyph glyph-name="croatbreve" horiz-adv-x="1024" 
d="M512 1370q-86 0 -124 -38t-48 -128h-90q8 150 65 207t197 57q184 0 238 -116q18 -48 24 -148h-88q-8 92 -48 129t-126 37z" />
    <glyph glyph-name="cicumflexacute" horiz-adv-x="1024" 
d="M717 1305l149 280h152l-213 -280h-88zM512 1372l-147 -168h-142l252 258h74l252 -258h-139z" />
    <glyph glyph-name="ringacute" horiz-adv-x="1024" 
d="M449 1612l112 233h154l-185 -233h-81zM512 1501q-49 0 -77 -34q-27 -34 -27 -93t28 -92t76 -33q49 0 77 33t27 92q0 59 -27 93q-28 34 -77 34zM512 1573q90 0 144 -54q54 -53 54 -143t-54 -144t-144 -54t-144 54t-55 144q1 90 55 144t144 53z" />
    <glyph glyph-name="Ohorn.sc" horiz-adv-x="1169" 
d="M846 436v211q0 180 -68 265t-210 85t-210 -85t-67 -265v-211q-1 -180 67 -265t210 -85t210 85t68 265zM168 657q0 443 401 443q319 0 387 -279q2 2 8 5t7 5q71 47 97 87t26 91q0 52 -19 91h115q10 -39 10 -74q0 -90 -53 -158t-178 -137q2 -43 2 -84v-223
q0 -221 -103 -332t-299 -110q-401 0 -401 442v233z" />
    <glyph glyph-name="Uhorn.sc" horiz-adv-x="1228" 
d="M197 1083h122v-690q0 -150 46 -211q67 -96 227 -96t225 111q35 61 35 196v690h123v-301q117 54 162 106t45 112t-19 100h113q12 -35 12 -74q0 -133 -143 -242q-39 -29 -170 -96v-295q1 -115 -15 -176t-55 -111q-99 -124 -329 -124t-324 145q-55 80 -55 266v690z" />
    <glyph glyph-name="uni1EA0.sc" horiz-adv-x="935" 
d="M406 -385v195h120v-195h-120zM694 338l-225 604l-227 -604h452zM725 238h-514l-86 -238h-137l422 1083h116l422 -1083h-135z" />
    <glyph glyph-name="uni1EA2.sc" horiz-adv-x="935" 
d="M524 1231h-96q2 51 8 71t37 68q31 47 31 76q0 53 -68 53q-43 0 -92 -24l-25 75q72 27 141 27q70 0 110 -33t40 -87q0 -55 -38 -105t-43 -66t-5 -55zM694 338l-225 604l-227 -604h452zM725 238h-514l-86 -238h-137l422 1083h116l422 -1083h-135z" />
    <glyph glyph-name="uni1EA4.sc" horiz-adv-x="935" 
d="M467 1300l-145 -118h-138l248 207h70l250 -207h-138zM397 1444l115 229h131l-166 -229h-80zM694 338l-225 604l-227 -604h452zM725 238h-514l-86 -238h-137l422 1083h116l422 -1083h-135z" />
    <glyph glyph-name="uni1EA6.sc" horiz-adv-x="935" 
d="M467 1300l-148 -118h-135l250 207h68l250 -207h-138zM537 1444h-80l-166 229h131zM694 338l-225 604l-227 -604h452zM725 238h-514l-86 -238h-137l422 1083h116l422 -1083h-135z" />
    <glyph glyph-name="uni1EA8.sc" horiz-adv-x="935" 
d="M461 1298l-148 -116h-135l248 200h70l249 -200h-137zM514 1417h-88q0 53 35 97t35 65q0 33 -52 33t-98 -19l-22 66q63 20 122 20q145 0 146 -98q0 -37 -39 -79t-39 -85zM694 338l-225 604l-227 -604h452zM725 238h-514l-86 -238h-137l422 1083h116l422 -1083h-135z" />
    <glyph glyph-name="uni1EAA.sc" horiz-adv-x="935" 
d="M479 1300l-147 -118h-137l249 207h68l250 -207h-137zM385 1653q63 1 117 -61t86 -62q45 0 71 108h74q-23 -106 -57 -148t-93 -42t-113 61t-89 62q-55 0 -86 -109h-76q29 102 66 146t100 45zM694 338l-225 604l-227 -604h452zM725 238h-514l-86 -238h-137l422 1083h116
l422 -1083h-135z" />
    <glyph glyph-name="uni1EAC.sc" horiz-adv-x="935" 
d="M406 -385v195h120v-195h-120zM467 1425l-148 -168h-141l254 259h72l254 -259h-142zM694 338l-225 604l-227 -604h452zM725 238h-514l-86 -238h-137l422 1083h116l422 -1083h-135z" />
    <glyph glyph-name="uni1EAE.sc" horiz-adv-x="935" 
d="M468 1270q85 0 123 33t48 112h86q-9 -135 -65 -187t-193 -52t-193 51q-55 51 -63 188h86q10 -81 48 -113t123 -32zM397 1444l115 229h131l-166 -229h-80zM694 338l-225 604l-227 -604h452zM725 238h-514l-86 -238h-137l422 1083h116l422 -1083h-135z" />
    <glyph glyph-name="uni1EB0.sc" horiz-adv-x="935" 
d="M468 1270q85 0 123 33t48 112h86q-9 -135 -65 -187t-193 -52t-193 51q-55 51 -63 188h86q10 -81 48 -113t123 -32zM543 1444h-78l-168 229h133zM694 338l-225 604l-227 -604h452zM725 238h-514l-86 -238h-137l422 1083h116l422 -1083h-135z" />
    <glyph glyph-name="uni1EB2.sc" horiz-adv-x="935" 
d="M467 1176q-137 0 -193 51q-55 51 -63 188h84q8 -82 48 -115q40 -32 125 -32t123 32t48 115h86q-9 -135 -65 -187t-193 -52zM510 1395h-88q2 59 37 104t35 68q0 45 -66 45q-39 0 -84 -19l-22 66q61 20 120 20q147 0 148 -108q0 -31 -40 -79t-40 -85v-12zM694 338l-225 604
l-227 -604h452zM725 238h-514l-86 -238h-137l422 1083h116l422 -1083h-135z" />
    <glyph glyph-name="uni1EB4.sc" horiz-adv-x="935" 
d="M464 1178q-136 0 -191 50q-54 50 -62 179h84q8 -78 47 -110q39 -31 123 -31t123 32t47 109h84q-7 -129 -63 -179t-192 -50zM372 1669q60 0 117 -59q55 -61 86 -62q47 0 72 107h76q-25 -104 -58 -147q-35 -42 -95 -42t-113 60t-88 61q-55 0 -86 -106h-76q27 100 65 144
q40 44 100 44zM694 338l-225 604l-227 -604h452zM725 238h-514l-86 -238h-137l422 1083h116l422 -1083h-135z" />
    <glyph glyph-name="uni1EB6.sc" horiz-adv-x="935" 
d="M406 -385v195h120v-195h-120zM467 1337q86 0 126 37t48 129h90q-10 -150 -66 -207q-57 -57 -197 -57t-197 57q-56 57 -66 207h90q8 -92 47 -129t125 -37zM694 338l-225 604l-227 -604h452zM725 238h-514l-86 -238h-137l422 1083h116l422 -1083h-135z" />
    <glyph glyph-name="uni1EB8.sc" horiz-adv-x="964" 
d="M483 -385v195h121v-195h-121zM205 0v1083h665v-104h-542v-379h463v-104h-463v-392h542v-104h-665z" />
    <glyph glyph-name="uni1EBA.sc" horiz-adv-x="964" 
d="M596 1231h-94q0 51 5 71t38 68q33 49 33 76q0 53 -68 53q-43 0 -94 -24l-25 75q74 27 133 27q160 0 160 -127q0 -44 -38 -96t-44 -68t-6 -55zM205 0v1083h665v-104h-542v-379h463v-104h-463v-392h542v-104h-665z" />
    <glyph glyph-name="uni1EBC.sc" horiz-adv-x="964" 
d="M414 1491q72 0 146 -67t110 -66q59 0 90 117h84q-29 -115 -68 -161q-40 -46 -112 -46t-146 66t-110 67q-64 0 -93 -117h-84q31 115 71 161t112 46zM205 0v1083h665v-104h-542v-379h463v-104h-463v-392h542v-104h-665z" />
    <glyph glyph-name="uni1EBE.sc" horiz-adv-x="964" 
d="M537 1300l-148 -118h-137l250 207h69l248 -207h-135zM467 1444l113 229h133l-168 -229h-78zM205 0v1083h665v-104h-542v-379h463v-104h-463v-392h542v-104h-665z" />
    <glyph glyph-name="uni1EC0.sc" horiz-adv-x="964" 
d="M539 1300l-148 -118h-135l248 207h69l250 -207h-137zM608 1444h-80l-168 229h134zM205 0v1083h665v-104h-542v-379h463v-104h-463v-392h542v-104h-665z" />
    <glyph glyph-name="uni1EC2.sc" horiz-adv-x="964" 
d="M532 1298l-147 -116h-137l250 200h69l250 -200h-137zM584 1417h-86q0 53 34 97t35 65q0 33 -51 33t-98 -19l-23 66q61 20 123 20q145 0 146 -98q0 -37 -48 -86q-32 -37 -32 -78zM205 0v1083h665v-104h-542v-379h463v-104h-463v-392h542v-104h-665z" />
    <glyph glyph-name="uni1EC4.sc" horiz-adv-x="964" 
d="M549 1300l-146 -118h-137l250 207h68l250 -207h-138zM456 1653q64 1 117 -61t86 -62q47 0 70 108h76q-23 -106 -57 -148t-94 -42t-114 61t-87 62q-51 0 -88 -109h-74q29 102 65 147q36 44 100 44zM205 0v1083h665v-104h-542v-379h463v-104h-463v-392h542v-104h-665z" />
    <glyph glyph-name="uni1EC6.sc" horiz-adv-x="964" 
d="M477 -385v195h121v-195h-121zM532 1425l-149 -168h-139l252 259h71l254 -259h-141zM201 0v1083h665v-104h-542v-379h462v-104h-462v-392h542v-104h-665z" />
    <glyph glyph-name="uni1EC8.sc" horiz-adv-x="530" 
d="M319 1231h-94q0 49 6 71t37 70t31 74q0 53 -68 53q-43 0 -92 -24l-24 75q73 27 141 27t109 -33t41 -86q0 -52 -38 -104t-44 -68q-5 -16 -5 -55zM205 0v1083h123v-1083h-123z" />
    <glyph glyph-name="uni1ECA.sc" horiz-adv-x="530" 
d="M203 -385v195h121v-195h-121zM203 0v1083h123v-1083h-123z" />
    <glyph glyph-name="uni1ECC.sc" horiz-adv-x="1136" 
d="M508 -385v195h121v-195h-121zM846 436v211q0 178 -68 263t-210 85t-210 -85t-67 -263v-211q-1 -180 67 -265t210 -85t210 85t68 265zM168 424v233q0 219 94 326q110 117 316 117t313 -137q80 -100 80 -306v-233q0 -221 -103 -332t-299 -110q-401 0 -401 442z" />
    <glyph glyph-name="uni1ECE.sc" horiz-adv-x="1136" 
d="M606 1446q0 53 -67 53q-43 0 -95 -24l-24 75q74 27 133 27q160 0 160 -125q0 -50 -38 -100t-43 -65t-7 -56h-95q2 53 8 71t27 56q41 59 41 88zM846 436v211q0 178 -68 263t-210 85t-210 -85t-67 -263v-211q-1 -180 67 -265t210 -85t210 85t68 265zM168 424v233
q0 219 94 326q110 117 316 117t313 -137q80 -100 80 -306v-233q0 -221 -103 -332t-299 -110q-401 0 -401 442z" />
    <glyph glyph-name="uni1ED0.sc" horiz-adv-x="1136" 
d="M569 1300l-147 -118h-137l250 207h69l248 -207h-135zM500 1444l112 229h133l-167 -229h-78zM846 436v211q0 178 -68 263t-210 85t-210 -85t-67 -263v-211q-1 -180 67 -265t210 -85t210 85t68 265zM168 424v233q0 219 94 326q110 117 316 117t313 -137q80 -100 80 -306
v-233q0 -221 -103 -332t-299 -110q-401 0 -401 442z" />
    <glyph glyph-name="uni1ED2.sc" horiz-adv-x="1136" 
d="M569 1300l-147 -118h-137l250 207h69l248 -207h-135zM637 1444h-78l-168 229h133zM846 436v211q0 178 -68 263t-210 85t-210 -85t-67 -263v-211q-1 -180 67 -265t210 -85t210 85t68 265zM168 424v233q0 219 94 326q110 117 316 117t313 -137q80 -100 80 -306v-233
q0 -221 -103 -332t-299 -110q-401 0 -401 442z" />
    <glyph glyph-name="uni1ED4.sc" horiz-adv-x="1136" 
d="M563 1298l-147 -116h-137l249 200h70l248 -200h-135zM614 1417h-88q2 55 37 99t35 63q0 33 -52 33t-97 -19l-23 66q61 20 123 20q145 0 145 -98q0 -39 -47 -86q-23 -25 -28 -37t-5 -41zM846 436v211q0 178 -68 263t-210 85t-210 -85t-67 -263v-211q-1 -180 67 -265
t210 -85t210 85t68 265zM168 424v233q0 219 94 326q110 117 316 117t313 -137q80 -100 80 -306v-233q0 -221 -103 -332t-299 -110q-401 0 -401 442z" />
    <glyph glyph-name="uni1ED6.sc" horiz-adv-x="1136" 
d="M580 1300l-148 -118h-135l248 207h69l250 -207h-137zM485 1653q61 1 117 -61t88 -62q45 0 70 108h76q-25 -106 -58 -148t-94 -42q-60 0 -114 61t-89 62q-51 0 -86 -109h-76q27 102 66 146t100 45zM846 436v211q0 178 -68 263t-210 85t-210 -85t-67 -263v-211
q-1 -180 67 -265t210 -85t210 85t68 265zM168 424v233q0 219 94 326q110 117 316 117t313 -137q80 -100 80 -306v-233q0 -221 -103 -332t-299 -110q-401 0 -401 442z" />
    <glyph glyph-name="uni1ED8.sc" horiz-adv-x="1136" 
d="M508 -385v195h121v-195h-121zM569 1425l-149 -168h-139l251 259h74l252 -259h-141zM846 436v211q0 178 -68 263t-210 85t-210 -85t-67 -263v-211q-1 -180 67 -265t210 -85t210 85t68 265zM168 424v233q0 219 94 326q110 117 316 117t313 -137q80 -100 80 -306v-233
q0 -221 -103 -332t-299 -110q-401 0 -401 442z" />
    <glyph glyph-name="uni1EDA.sc" horiz-adv-x="1169" 
d="M498 1245l147 281h158l-211 -281h-94zM846 436v211q0 180 -68 265t-210 85t-210 -85t-67 -265v-211q-1 -180 67 -265t210 -85t210 85t68 265zM168 657q0 443 401 443q319 0 387 -279q2 2 8 5t7 5q71 47 97 87t26 91q0 52 -19 91h115q10 -39 10 -74q0 -90 -53 -158
t-178 -137q2 -43 2 -84v-223q0 -221 -103 -332t-299 -110q-401 0 -401 442v233z" />
    <glyph glyph-name="uni1EDC.sc" horiz-adv-x="1169" 
d="M672 1245h-94l-213 281h157zM846 436v211q0 180 -68 265t-210 85t-210 -85t-67 -265v-211q-1 -180 67 -265t210 -85t210 85t68 265zM168 657q0 443 401 443q319 0 387 -279q2 2 8 5t7 5q71 47 97 87t26 91q0 52 -19 91h115q10 -39 10 -74q0 -90 -53 -158t-178 -137
q2 -43 2 -84v-223q0 -221 -103 -332t-299 -110q-401 0 -401 442v233z" />
    </font>
</defs>
</svg>
