<?xml version="1.0" standalone="no"?>
<!DOCTYPE svg PUBLIC "-//W3C//DTD SVG 1.1//EN" "http://www.w3.org/Graphics/SVG/1.1/DTD/svg11.dtd" >
<svg xmlns="http://www.w3.org/2000/svg">
<metadata>
Created by FontPrep 20130207 at Fri May 26 16:08:36 2017
 By Lizzy Knight
Copyright 2016 by URW++ Design &#38; Development GmbH
</metadata>
<defs>
<font id="e60e47a8be82d98bf0d55edf856d598c" horiz-adv-x='1024' >
  <font-face 
    font-family="URWDIN-Medium"
    font-weight="500"
    font-stretch="normal"
    units-per-em="2048"
    panose-1="0 0 6 0 0 0 0 0 0 0"
    ascent="1462"
    descent="-586"
    x-height="1040"
    cap-height="1462"
    bbox="-209 -500 2560 2100"
    underline-thickness="147"
    underline-position="-146"
    unicode-range="U+0020-FB04"
  />
<missing-glyph horiz-adv-x="409" 
 />
    <glyph glyph-name="ff" unicode="ff" horiz-adv-x="1325" 
d="M842 872h-125v168h125v142q0 164 68 224q69 60 249 56h107v-159h-62q-94 2 -124 -25t-29 -117v-121h227v-168h-227v-872h-209v872zM211 872h-125v168h125v142q0 164 69 224t248 56h95v-159h-52q-95 2 -123 -26t-28 -116v-121h182v-168h-182v-872h-209v872z" />
    <glyph glyph-name="fi" unicode="fi" horiz-adv-x="1234" 
d="M860 0v1040h209v-1040h-209zM860 1235v238h209v-238h-209zM211 872h-125v168h125v142q0 164 69 224t248 56h105v-159h-62q-95 2 -123 -26t-28 -116v-121h225v-168h-225v-872h-209v872z" />
    <glyph glyph-name="fl" unicode="fl" horiz-adv-x="1306" 
d="M856 1462h209v-1093q0 -115 38 -157t140 -42h45v-170h-53q-227 0 -303 78t-76 311v1073zM211 872h-125v168h125v142q0 164 69 224t248 56h105v-159h-62q-95 2 -123 -26t-28 -116v-121h225v-168h-225v-872h-209v872z" />
    <glyph glyph-name="ffi" unicode="ffi" horiz-adv-x="1865" 
d="M1491 0v1040h209v-1040h-209zM1491 1235v238h209v-238h-209zM842 872h-125v168h125v142q0 164 68 224q69 60 249 56h107v-159h-62q-94 2 -124 -25t-29 -117v-121h227v-168h-227v-872h-209v872zM211 872h-125v168h125v142q0 164 69 224t248 56h95v-159h-52q-95 2 -123 -26
t-28 -116v-121h182v-168h-182v-872h-209v872z" />
    <glyph glyph-name="ffl" unicode="ffl" horiz-adv-x="1939" 
d="M1487 1462h209v-1093q0 -115 38 -157t140 -42h45v-170h-53q-227 0 -303 78t-76 311v1073zM842 872h-125v168h125v142q0 164 68 224q69 60 249 56h107v-159h-62q-94 2 -124 -25t-29 -117v-121h227v-168h-227v-872h-209v872zM211 872h-125v168h125v142q0 164 69 224t248 56
h95v-159h-52q-95 2 -123 -26t-28 -116v-121h182v-168h-182v-872h-209v872z" />
    <glyph glyph-name=".notdef" horiz-adv-x="409" 
 />
    <glyph glyph-name=".null" horiz-adv-x="0" 
 />
    <glyph glyph-name="nonmarkingreturn" horiz-adv-x="681" 
 />
    <glyph glyph-name="space" unicode=" " horiz-adv-x="409" 
 />
    <glyph glyph-name="exclam" unicode="!" horiz-adv-x="659" 
d="M227 0v231h209v-231h-209zM244 403l-31 1059h236l-31 -1059h-174z" />
    <glyph glyph-name="quotedbl" unicode="&#x22;" horiz-adv-x="876" 
d="M526 897l-16 565h217l-14 -565h-187zM162 897l-15 565h218l-15 -565h-188z" />
    <glyph glyph-name="numbersign" unicode="#" 
d="M438 592h201l29 223h-201zM260 592l31 223h-207l20 137h207l54 369h176l-52 -369h201l51 369h177l-52 -369h207l-20 -137h-209l-29 -223h205l-23 -137h-204l-50 -369h-176l49 369h-200l-51 -369h-177l50 369h-207l20 137h209z" />
    <glyph glyph-name="dollar" unicode="$" 
d="M547 190q143 0 220 54t77 159q0 104 -80 158q-39 27 -72 37t-224 55q-190 45 -290 143t-100 263q0 111 47 197t126 130q79 42 204 56v223h211v-227q238 -31 327 -191l-164 -104q-96 129 -290 129q-117 0 -184 -52t-67 -146t70 -149q70 -53 232 -93t214 -59
q54 -19 109 -54q141 -94 142 -299q0 -348 -389 -400v-294h-211v290q-317 25 -428 224l168 108q96 -158 352 -158z" />
    <glyph glyph-name="percent" unicode="%" horiz-adv-x="1867" 
d="M606 0l461 1462h195l-461 -1462h-195zM1608 332v127q0 219 -150 219t-149 -219v-127q-1 -219 149 -219t150 219zM1133 311v168q-1 172 77 252t249 80t248 -78t77 -254v-168q0 -176 -77 -254q-77 -77 -249 -77t-249 77q-76 78 -76 254zM559 1004v126q0 219 -149 220
q-150 0 -150 -220v-126q0 -217 150 -218q149 1 149 218zM84 983v168q0 176 77 254t249 78t248 -78t77 -254v-168q0 -174 -77 -252q-76 -78 -248 -78t-249 78t-77 252z" />
    <glyph glyph-name="ampersand" unicode="&#x26;" horiz-adv-x="1648" 
d="M389 324q-1 -98 61 -152t166 -55q104 1 184 35q79 34 181 122l-293 377q-113 -63 -168 -100q-131 -96 -131 -227zM777 1325q-87 0 -139 -45q-52 -46 -52 -106t30 -112t119 -169q125 68 178 127t53 136t-50 123q-52 46 -139 46zM590 -63q-198 0 -308 102t-110 292t182 341
q70 57 203 131q-106 135 -142 209t-36 149q0 150 106 242q105 92 285 92t292 -92t112 -244q0 -117 -72 -212t-240 -204l256 -333q90 121 133 276h207q-74 -248 -215 -420l219 -266h-256l-106 139q-100 -94 -238 -148t-272 -54z" />
    <glyph glyph-name="quotesingle" unicode="'" horiz-adv-x="514" 
d="M162 897l-15 565h218l-15 -565h-188z" />
    <glyph glyph-name="parenleft" unicode="(" horiz-adv-x="903" 
d="M274 706q0 270 77 490q77 221 255 471l156 -96q-104 -180 -160 -309q-110 -244 -110 -560t124 -585q58 -127 146 -277l-156 -96q-178 250 -255 471t-77 491z" />
    <glyph glyph-name="parenright" unicode=")" horiz-adv-x="903" 
d="M629 706q0 -268 -77 -490t-255 -472l-156 96q106 184 160 310q111 244 111 559t-125 587q-54 117 -146 275l156 96q178 -250 255 -471t77 -490z" />
    <glyph glyph-name="asterisk" unicode="*" 
d="M553 1018l-178 -293l-168 117l211 274l-322 68l51 186l318 -102l-16 321h206l-14 -321l315 102l54 -186l-324 -68l213 -274l-168 -117z" />
    <glyph glyph-name="plus" unicode="+" 
d="M78 653v168h383v393h182v-393h383v-168h-383v-391h-182v391h-383z" />
    <glyph glyph-name="comma" unicode="," horiz-adv-x="585" 
d="M100 -385l99 614h231l-143 -614h-187z" />
    <glyph glyph-name="hyphen" unicode="-" horiz-adv-x="964" 
d="M180 645v180h606v-180h-606z" />
    <glyph glyph-name="period" unicode="." horiz-adv-x="587" 
d="M184 0v231h219v-231h-219z" />
    <glyph glyph-name="slash" unicode="/" horiz-adv-x="831" 
d="M68 -43l489 1548h207l-488 -1548h-208z" />
    <glyph glyph-name="zero" unicode="0" 
d="M768 547v368q0 213 -49 301t-166 89t-166 -89t-49 -301v-368q0 -211 49 -300t166 -89t166 88t49 301zM123 526v410q0 283 94 403q111 143 328 144q250 0 362 -168q76 -119 76 -379v-410q0 -281 -94 -403q-57 -76 -138 -110t-206 -33q-236 0 -346 167q-76 115 -76 379z
" />
    <glyph glyph-name="one" unicode="1" 
d="M473 0v1235l-244 -105l-67 168l383 164h147v-1462h-219z" />
    <glyph glyph-name="two" unicode="2" 
d="M96 0v143l406 514q217 273 217 459t-191 187q-180 0 -221 -211l-201 16q14 180 125 277t305 97t297 -98t103 -265q0 -204 -146 -417q-26 -37 -147 -190l-260 -332h559v-180h-846z" />
    <glyph glyph-name="three" unicode="3" 
d="M348 684v172h117q113 0 179 62t67 165q-1 105 -53 163t-140 58q-176 1 -211 -169l-194 16q37 332 409 332q197 1 301 -101t105 -292q0 -119 -40 -191t-136 -127q116 -61 164 -146t49 -223q0 -209 -114 -317t-333 -106q-412 0 -444 344l207 24q31 -190 231 -190
q113 0 174 66t62 186q0 122 -75 198t-194 76h-131z" />
    <glyph glyph-name="four" unicode="4" 
d="M678 0v264h-588v133l461 1065h231l-444 -1022h340v410h199v-410h139v-176h-139v-264h-199z" />
    <glyph glyph-name="five" unicode="5" 
d="M930 1462v-180h-514l-41 -403q98 45 194 45q213 0 322 -136q84 -109 84 -339t-98 -336q-115 -131 -353 -131q-385 0 -420 342l207 26q29 -190 219 -190q227 0 228 282q0 162 -53 235t-173 73t-206 -91l-160 33l67 770h697z" />
    <glyph glyph-name="six" unicode="6" 
d="M762 452q0 156 -50 226t-158 70t-157 -70t-49 -226t49 -225t159 -69t158 70t48 224zM612 918q139 0 238 -80q70 -56 100 -146t29 -239q0 -264 -105 -363q-108 -110 -330 -110t-329 131q-84 98 -84 340q0 127 23 212t92 211l319 588h246l-322 -569q63 25 123 25z" />
    <glyph glyph-name="seven" unicode="7" 
d="M152 1282v180h796v-131l-450 -1331h-234l455 1282h-567z" />
    <glyph glyph-name="eight" unicode="8" 
d="M778 416q0 136 -53 200q-53 62 -171 62t-172 -62t-54 -199q0 -139 53 -199t172 -60t172 61t53 197zM553 1315q-103 0 -149 -54q-46 -53 -46 -179t46 -181t148 -55t149 55t47 178t-46 179t-149 57zM954 1081q0 -109 -28 -179t-99 -128q90 -51 129 -134t39 -222
q0 -226 -106 -332q-105 -106 -335 -106t-337 105q-106 105 -106 333q0 139 39 222t129 134q-72 61 -100 129t-27 178q0 205 98 303t303 98t303 -98t98 -303z" />
    <glyph glyph-name="nine" unicode="9" 
d="M553 1305q-105 0 -157 -65t-52 -202q0 -136 50 -202t157 -66q207 0 207 268t-205 267zM492 604q-150 0 -246 78q-119 98 -119 348t104 352q111 100 331 100t327 -122q86 -98 86 -316q1 -122 -17 -192t-71 -174l-346 -678h-244l326 618q-70 -14 -131 -14z" />
    <glyph glyph-name="colon" unicode=":" horiz-adv-x="587" 
d="M184 811v231h219v-231h-219zM184 0v231h219v-231h-219z" />
    <glyph glyph-name="semicolon" unicode=";" horiz-adv-x="585" 
d="M205 811v231h219v-231h-219zM100 -385l99 614h231l-143 -614h-187z" />
    <glyph glyph-name="less" unicode="&#x3c;" 
d="M348 745l588 -286v-195l-825 414v133l825 414v-195z" />
    <glyph glyph-name="equal" unicode="=" 
d="M111 827v162h886v-162h-886zM111 483v162h886v-162h-886z" />
    <glyph glyph-name="greater" unicode="&#x3e;" 
d="M758 745l-588 285v195l825 -414v-133l-825 -414v195z" />
    <glyph glyph-name="question" unicode="?" horiz-adv-x="1191" 
d="M481 0v231h209v-231h-209zM498 399v74q-2 125 36 198t154 171q86 76 113 112q49 70 49 155t-62 141t-161 57q-133 0 -207 -105q-37 -51 -66 -166l-202 35q84 414 479 414q203 -1 319 -105t117 -272q0 -168 -106 -283q-41 -47 -167 -153t-124 -219v-54h-172z" />
    <glyph glyph-name="at" unicode="@" horiz-adv-x="1873" 
d="M1001 926q-111 0 -186 -135q-74 -127 -74 -273t116 -145q116 0 199 138t83 267q0 68 -37 108q-38 40 -101 40zM1331 367q111 -1 189 119t77 294q0 229 -131 381q-78 88 -211 137t-290 50q-315 0 -499 -203t-185 -547q0 -344 186 -506q186 -154 512 -153q254 0 496 104
l55 -125q-256 -125 -555 -125q-401 0 -632 191q-231 190 -231 604t232 658q231 244 608 243q377 0 593 -193t216 -516q0 -242 -127 -398t-323 -157q-94 0 -141 39q-46 39 -58 125q-68 -90 -134 -128t-151 -38q-127 0 -197 75t-69 212q0 231 126 394t304 163q78 0 126 -29
t87 -98l27 104h133l-102 -481q-16 -72 -17 -112q0 -84 86 -84z" />
    <glyph glyph-name="A" unicode="A" horiz-adv-x="1245" 
d="M868 481l-243 715l-246 -715h489zM922 305h-596l-103 -305h-237l532 1462h211l533 -1462h-238z" />
    <glyph glyph-name="B" unicode="B" horiz-adv-x="1306" 
d="M414 176h346q229 0 229 243t-229 243h-346v-486zM414 838h317q111 0 171 51t61 174q0 223 -232 223h-317v-448zM197 0v1462h551q215 0 317 -88q115 -104 115 -306t-158 -304l20 -12q78 -53 107 -105q57 -96 57 -246q0 -221 -131 -323q-96 -78 -301 -78h-577z" />
    <glyph glyph-name="C" unicode="C" horiz-adv-x="1286" 
d="M666 -20q-283 0 -414 182q-90 129 -90 416v305q0 168 25 268q26 100 87 172q129 156 392 156q223 1 345 -99t132 -290l-203 -17q-29 227 -268 227q-158 0 -225 -98t-66 -334v-278q1 -236 67 -334t224 -98q251 0 282 227l205 -23q-10 -188 -136 -285t-357 -97z" />
    <glyph glyph-name="D" unicode="D" horiz-adv-x="1382" 
d="M416 176h223q195 -4 277 89t85 315v303q-2 221 -86 314t-276 89h-223v-1110zM197 0v1462h481q559 8 543 -561v-340q16 -569 -543 -561h-481z" />
    <glyph glyph-name="E" unicode="E" horiz-adv-x="1187" 
d="M199 0v1462h876v-180h-659v-453h561v-180h-561v-469h665v-180h-882z" />
    <glyph glyph-name="F" unicode="F" horiz-adv-x="1118" 
d="M199 0v1462h868v-180h-649v-463h549v-180h-549v-639h-219z" />
    <glyph glyph-name="G" unicode="G" horiz-adv-x="1353" 
d="M721 614v170h491v-235q0 -152 -24 -243t-82 -163q-137 -163 -428 -163t-422 182q-51 70 -73 164t-21 252v305q0 170 25 269q26 99 89 171q135 156 383 156q488 0 508 -392l-202 -14q-31 227 -279 227q-166 0 -236 -98t-69 -334v-278q0 -236 70 -334t237 -98
q307 0 307 344v112h-274z" />
    <glyph glyph-name="H" unicode="H" horiz-adv-x="1392" 
d="M197 0v1462h219v-633h561v633h219v-1462h-219v649h-561v-649h-219z" />
    <glyph glyph-name="I" unicode="I" horiz-adv-x="612" 
d="M197 0v1462h219v-1462h-219z" />
    <glyph glyph-name="J" unicode="J" horiz-adv-x="970" 
d="M565 1462h219v-889q0 -186 -10 -270t-43 -141q-96 -182 -360 -182q-223 0 -398 159l121 146q121 -127 262 -127t189 141q20 63 20 270v893z" />
    <glyph glyph-name="K" unicode="K" horiz-adv-x="1263" 
d="M199 0v1462h217v-731l561 731h256l-477 -594l518 -868h-254l-406 719l-198 -252v-467h-217z" />
    <glyph glyph-name="L" unicode="L" horiz-adv-x="1101" 
d="M197 0v1462h219v-1282h663v-180h-882z" />
    <glyph glyph-name="M" unicode="M" horiz-adv-x="1671" 
d="M197 0v1462h209l430 -901l430 901h209v-1462h-211v1044l-359 -739h-139l-358 739v-1044h-211z" />
    <glyph glyph-name="N" unicode="N" horiz-adv-x="1470" 
d="M197 0v1462h213l651 -1093v1093h213v-1462h-213l-651 1094v-1094h-213z" />
    <glyph glyph-name="O" unicode="O" horiz-adv-x="1378" 
d="M997 573v316q0 219 -72 317q-73 98 -236 98t-235 -98t-73 -317v-316q0 -219 73 -317q74 -98 236 -98t235 98q72 98 72 317zM162 553v356q0 158 27 254q28 96 94 168q137 152 417 152t416 -176q100 -129 101 -398v-356q0 -158 -28 -255t-93 -167q-137 -151 -418 -151
t-416 176q-100 129 -100 397z" />
    <glyph glyph-name="P" unicode="P" horiz-adv-x="1241" 
d="M412 727h266q139 0 204 67q64 67 64 213t-64 213q-65 67 -204 66h-266v-559zM416 549v-549h-219v1462h481q143 0 230 -26q256 -78 256 -440q0 -234 -128 -349q-111 -98 -358 -98h-262z" />
    <glyph glyph-name="Q" unicode="Q" horiz-adv-x="1378" 
d="M997 889q0 219 -72 317q-73 98 -236 98t-235 -98t-73 -317v-316q0 -219 73 -317t236 -98q119 0 189 55l-213 168l108 127l197 -156q27 86 26 221v316zM680 -20q-283 0 -418 176q-100 129 -100 397v356q0 158 27 254q28 96 94 168q137 152 417 152t416 -176
q100 -129 101 -398v-356q0 -219 -66 -344l156 -125l-109 -127l-156 125q-131 -102 -362 -102z" />
    <glyph glyph-name="R" unicode="R" horiz-adv-x="1318" 
d="M414 788h297q131 0 192 60t61 190q0 128 -62 188q-64 60 -204 60h-284v-498zM418 614v-614h-219v1462h520q252 0 357 -105q106 -105 106 -297t-69 -292q-69 -98 -220 -133l319 -635h-241l-293 614h-260z" />
    <glyph glyph-name="S" unicode="S" horiz-adv-x="1181" 
d="M887 394q0 114 -80 169q-37 27 -70 37t-225 58t-288 146t-97 280q0 184 123 292t342 107q319 0 444 -203l-164 -106q-92 131 -286 131q-117 -1 -183 -59q-65 -58 -65 -160t69 -160t230 -98t213 -59t108 -56q140 -95 140 -307t-131 -320t-383 -106q-373 0 -514 229
l168 106q96 -156 348 -155q145 0 223 60t78 174z" />
    <glyph glyph-name="T" unicode="T" horiz-adv-x="1136" 
d="M459 0v1282h-410v180h1038v-180h-409v-1282h-219z" />
    <glyph glyph-name="U" unicode="U" horiz-adv-x="1406" 
d="M190 1462h220v-921q0 -184 45 -265q72 -118 256 -118t252 137q35 76 34 246v921h220v-921q1 -160 -19 -244t-72 -147q-132 -170 -434 -170t-432 194q-39 61 -54 140t-16 227v921z" />
    <glyph glyph-name="V" unicode="V" horiz-adv-x="1196" 
d="M504 0l-490 1462h219l365 -1159l363 1159h221l-490 -1462h-188z" />
    <glyph glyph-name="W" unicode="W" horiz-adv-x="1832" 
d="M422 0l-371 1462h219l258 -1149l308 1149h161l310 -1149l256 1149h221l-371 -1462h-192l-303 1100l-306 -1100h-190z" />
    <glyph glyph-name="X" unicode="X" horiz-adv-x="1175" 
d="M463 772l-402 690h242l305 -532l287 532h231l-405 -721l432 -741h-242l-336 584l-315 -584h-231z" />
    <glyph glyph-name="Y" unicode="Y" horiz-adv-x="1099" 
d="M442 0v528l-456 934h231l336 -714l334 714h231l-456 -934v-528h-220z" />
    <glyph glyph-name="Z" unicode="Z" horiz-adv-x="1132" 
d="M106 0v150l646 1132h-611v180h856v-149l-645 -1133h676v-180h-922z" />
    <glyph glyph-name="bracketleft" unicode="[" horiz-adv-x="903" 
d="M319 -201v1813h429v-154h-218v-1505h218v-154h-429z" />
    <glyph glyph-name="backslash" unicode="\" horiz-adv-x="831" 
d="M762 -43h-207l-489 1548h208z" />
    <glyph glyph-name="bracketright" unicode="]" horiz-adv-x="903" 
d="M584 1612v-1813h-428v154h217v1505h-217v154h428z" />
    <glyph glyph-name="asciicircum" unicode="^" 
d="M553 1227l-254 -453h-244l437 699h120l437 -699h-244z" />
    <glyph glyph-name="underscore" unicode="_" horiz-adv-x="962" 
d="M-51 -367v148h1065v-148h-1065z" />
    <glyph glyph-name="grave" unicode="`" horiz-adv-x="1024" 
d="M637 1190h-158l-246 301h244z" />
    <glyph glyph-name="a" unicode="a" horiz-adv-x="1081" 
d="M715 471h-207q-119 0 -168 -39t-49 -129t46 -125t176 -35t177 62q25 35 25 131v135zM715 618v60q0 115 -48 165t-155 50q-139 0 -229 -105l-144 107q135 166 396 166t348 -164q41 -76 41 -254v-643h-166l-15 68q-49 -48 -113 -68t-179 -20q-197 0 -278 72t-81 248
q0 177 86 248t307 70h230z" />
    <glyph glyph-name="b" unicode="b" horiz-adv-x="1159" 
d="M821 457v127q0 158 -54 234t-167 75q-223 0 -223 -279v-188q0 -279 223 -279q113 0 167 76t54 234zM168 0v1462h209v-487q109 86 260 86q205 0 298 -111t93 -352v-156q0 -244 -94 -354t-301 -108q-145 0 -230 53q-8 6 -59 47l-14 -80h-162z" />
    <glyph glyph-name="c" unicode="c" horiz-adv-x="976" 
d="M559 -20q-426 0 -426 493v76q1 262 103 387t317 125q256 0 362 -184l-155 -89q-43 59 -85 82t-108 23q-115 0 -170 -80t-55 -248v-112q0 -305 229 -306q133 1 209 103l156 -90q-121 -180 -377 -180z" />
    <glyph glyph-name="d" unicode="d" horiz-adv-x="1159" 
d="M340 584v-127q0 -158 54 -234t167 -76q223 0 223 279v188q0 279 -223 279q-113 1 -167 -75t-54 -234zM133 442v156q0 242 93 352t296 111q119 0 205 -43l6 -6q19 -9 51 -37v487h209v-1462h-162l-14 80q-6 -4 -17 -15t-22 -20q-70 -65 -264 -65t-287 110q-94 110 -94 352z
" />
    <glyph glyph-name="e" unicode="e" horiz-adv-x="1118" 
d="M803 641q0 259 -242 259q-125 0 -178 -93q-41 -68 -41 -168v-18h461v20zM342 434q0 -289 268 -289q136 0 215 105l156 -92q-63 -94 -157 -136t-244 -42q-231 0 -339 118t-108 375v80q1 268 103 388t331 120t331 -120t103 -388v-82h-659v-37z" />
    <glyph glyph-name="f" unicode="f" horiz-adv-x="694" 
d="M211 872h-125v168h125v142q0 164 69 224t248 56h105v-159h-62q-95 2 -123 -26t-28 -116v-121h225v-168h-225v-872h-209v872z" />
    <glyph glyph-name="g" unicode="g" horiz-adv-x="1159" 
d="M340 584v-127q0 -158 54 -234t167 -76q223 0 223 279v188q0 279 -223 279q-113 1 -167 -75t-54 -234zM506 -20q-186 0 -280 112q-93 112 -93 350v156q0 242 93 352q92 110 288 111q196 0 299 -103l18 82h162v-1026q0 -496 -454 -495q-264 0 -379 182l155 90
q43 -59 91 -84t124 -24q129 0 190 73q60 74 64 236l2 74q-94 -86 -280 -86z" />
    <glyph glyph-name="h" unicode="h" horiz-adv-x="1163" 
d="M166 0v1462h209v-489q59 51 113 69t145 19q268 0 342 -201q31 -90 31 -264v-596h-209v578q0 164 -48 236t-160 71q-112 0 -163 -80t-51 -260v-545h-209z" />
    <glyph glyph-name="i" unicode="i" horiz-adv-x="540" 
d="M166 0v1040h209v-1040h-209zM166 1235v238h209v-238h-209z" />
    <glyph glyph-name="j" unicode="j" horiz-adv-x="555" 
d="M176 1235v238h209v-238h-209zM176 1040h209v-1040q4 -276 -91 -374t-364 -97v172q137 -6 194 57q56 63 52 222v1060z" />
    <glyph glyph-name="k" unicode="k" horiz-adv-x="1064" 
d="M166 0v1462h209v-960l416 538h237l-354 -440l383 -600h-228l-282 449l-172 -220v-229h-209z" />
    <glyph glyph-name="l" unicode="l" horiz-adv-x="612" 
d="M164 1462h209v-1093q0 -115 38 -157t140 -42h45v-170h-53q-227 0 -303 78t-76 311v1073z" />
    <glyph glyph-name="m" unicode="m" horiz-adv-x="1716" 
d="M166 0v1040h160l16 -102q82 123 276 123t279 -152q86 152 297 152q264 0 334 -201q29 -86 28 -264v-596h-208v575q0 164 -43 236t-145 72t-148 -80q-45 -80 -45 -262v-541h-209v573q0 168 -43 239t-147 71t-148 -80q-45 -80 -45 -268v-535h-209z" />
    <glyph glyph-name="n" unicode="n" horiz-adv-x="1163" 
d="M166 0v1040h160l16 -104q92 125 285 125q274 0 348 -201q31 -90 31 -264v-596h-209v573q0 166 -47 238t-162 72t-164 -80t-49 -271v-532h-209z" />
    <glyph glyph-name="o" unicode="o" horiz-adv-x="1142" 
d="M803 455v131q0 160 -55 234q-56 74 -176 73q-120 0 -175 -74t-55 -233v-131q0 -160 55 -234t175 -74t176 74q55 74 55 234zM133 440v160q-1 240 105 350t334 111q228 0 334 -111t106 -350v-160q0 -240 -106 -350t-334 -110t-334 110t-105 350z" />
    <glyph glyph-name="p" unicode="p" horiz-adv-x="1159" 
d="M821 457v127q0 158 -54 234t-167 75q-223 0 -223 -279v-188q0 -279 223 -279q113 0 167 76t54 234zM168 -461v1501h162l20 -77q112 98 302 98t283 -111t93 -352v-156q0 -242 -93 -352t-298 -110q-156 0 -260 81v-522h-209z" />
    <glyph glyph-name="q" unicode="q" horiz-adv-x="1159" 
d="M340 584v-127q0 -158 54 -234t167 -76q223 0 223 279v188q0 279 -223 279q-113 1 -167 -75t-54 -234zM133 442v156q0 242 93 352q94 110 286 111q192 0 299 -98l20 77h162v-1501h-209l2 522q-109 -82 -264 -81q-203 0 -296 110t-93 352z" />
    <glyph glyph-name="r" unicode="r" horiz-adv-x="784" 
d="M166 0v1040h162l22 -88q50 59 102 84t144 25t199 -60l-90 -174q-74 53 -142 54q-100 0 -144 -88t-44 -287v-506h-209z" />
    <glyph glyph-name="s" unicode="s" horiz-adv-x="985" 
d="M461 145q236 0 235 154q0 82 -63 111q-41 18 -205 40t-243 86q-79 66 -79 214t94 229q94 82 267 82q272 0 391 -182l-153 -91q-47 59 -97 83t-125 24q-178 0 -178 -143q0 -70 51 -98t154 -40q211 -24 298 -86t87 -233q0 -315 -426 -315q-309 0 -418 178l152 94
q53 -61 106 -84t152 -23z" />
    <glyph glyph-name="t" unicode="t" horiz-adv-x="696" 
d="M197 872h-121v168h121l10 318h199v-318h204v-168h-204v-503q0 -115 38 -157t138 -40h32v-172h-36q-233 0 -308 76q-74 76 -73 313v483z" />
    <glyph glyph-name="u" unicode="u" horiz-adv-x="1140" 
d="M158 1040h209v-575q0 -164 45 -236q44 -71 152 -71t155 80t47 270v532h209v-1040h-152l-22 106q-80 -127 -275 -126q-266 0 -338 200q-31 86 -30 264v596z" />
    <glyph glyph-name="v" unicode="v" horiz-adv-x="1015" 
d="M412 0l-369 1040h211l254 -780l254 780h211l-367 -1040h-194z" />
    <glyph glyph-name="w" unicode="w" horiz-adv-x="1587" 
d="M381 0l-315 1040h210l203 -774l240 774h147l240 -774l203 774h211l-316 -1040h-174l-237 723l-238 -723h-174z" />
    <glyph glyph-name="x" unicode="x" horiz-adv-x="974" 
d="M369 532l-314 508h236l215 -348l209 348h225l-332 -512l326 -528h-236l-225 365l-217 -365h-227z" />
    <glyph glyph-name="y" unicode="y" horiz-adv-x="1015" 
d="M406 10l-369 1030h211l268 -802l244 802h211l-393 -1171q-78 -221 -158 -279t-307 -61v172q119 -2 163 31t89 155z" />
    <glyph glyph-name="z" unicode="z" horiz-adv-x="978" 
d="M82 0v133l491 737h-452v170h713v-133l-494 -737h526v-170h-784z" />
    <glyph glyph-name="braceleft" unicode="{" horiz-adv-x="903" 
d="M754 -57v-144h-90q-215 -2 -284 79t-63 327v229q4 152 -24 196q-29 44 -133 48h-17v127h17q104 4 133 48t24 196v157q-6 244 64 326t283 80h90v-144h-43q-115 -2 -150 -58t-33 -245v-110q4 -158 -20 -216t-107 -98q82 -37 107 -98t20 -215v-182q-2 -188 33 -244t150 -59
h43z" />
    <glyph glyph-name="bar" unicode="|" 
d="M461 -201v1813h182v-1813h-182z" />
    <glyph glyph-name="braceright" unicode="}" horiz-adv-x="903" 
d="M147 1468v144h91q212 2 282 -80t64 -326v-157q-4 -152 24 -196t133 -48h17v-127h-17q-104 -4 -133 -49t-24 -195v-229q6 -246 -63 -327t-283 -79h-91v144h43q115 3 150 59t33 244v182q-4 156 20 216q25 60 107 97q-84 37 -108 97t-19 217v110q2 189 -33 245t-150 58h-43z
" />
    <glyph glyph-name="asciitilde" unicode="~" 
d="M745 741q94 0 148 138l127 -37q-45 -136 -112 -198t-171 -62q-59 0 -101 17t-130 77t-144 59q-94 0 -147 -145l-129 28q41 150 107 213t174 64q57 0 99 -15t134 -77t145 -62z" />
    <glyph glyph-name="uni00A0" unicode="&#xa0;" horiz-adv-x="409" 
 />
    <glyph glyph-name="exclamdown" unicode="&#xa1;" horiz-adv-x="659" 
d="M434 1040v-231h-209v231h209zM418 635l31 -1059h-236l31 1059h174z" />
    <glyph glyph-name="cent" unicode="&#xa2;" 
d="M496 49v242q-162 20 -246 144t-80 337v78q-6 449 326 500v227h211v-234q166 -37 241 -167l-153 -84q-39 56 -83 80t-112 24q-227 0 -227 -330v-114q0 -307 233 -308q135 0 211 103l152 -86q-84 -133 -262 -166v-246h-211z" />
    <glyph glyph-name="sterling" unicode="&#xa3;" 
d="M117 0v156q106 34 171 120t64 197q0 59 -24 133h-215v180h131q-54 106 -70 162t-16 125q0 195 108 303t305 107q236 0 355 -142q57 -72 100 -217l-178 -59q-37 106 -66 147q-74 96 -184 96t-166 -56q-56 -58 -57 -141t21 -145t85 -180h348v-180h-290q20 -70 20 -121
q0 -180 -145 -305h641v-180h-938z" />
    <glyph glyph-name="currency" unicode="&#xa4;" 
d="M554 397q116 0 188 79t71 207q1 128 -71 207t-189 79t-189 -78t-71 -207q0 -129 72 -208q73 -79 189 -79zM117 682q0 133 82 258l-176 184l108 97l170 -179q117 78 252 78t252 -78l170 179l108 -97l-176 -184q82 -123 82 -255t-82 -259l176 -182l-108 -99l-170 179
q-117 -78 -252 -78t-252 78l-170 -179l-108 99l176 182q-82 123 -82 256z" />
    <glyph glyph-name="yen" unicode="&#xa5;" 
d="M444 0v297h-303v135h303v98h-303v136h244l-387 796h231l324 -700l326 700h233l-389 -796h246v-136h-305v-98h305v-135h-305v-297h-220z" />
    <glyph glyph-name="brokenbar" unicode="&#xa6;" horiz-adv-x="1024" 
d="M412 0v528h200v-528h-200zM412 911v551h200v-551h-200z" />
    <glyph glyph-name="section" unicode="&#xa7;" 
d="M528 801l-98 33q-72 -47 -92 -78q-20 -32 -20 -104t46 -111t201 -90l101 -33q6 6 10 6q10 8 31 20q69 48 69 134t-43 124q-39 42 -205 99zM506 -51q96 0 151 40t55 104t-40 110q-27 25 -65 40t-148 48q-195 57 -269 127t-74 182t37 174q36 62 132 125q-115 78 -115 238
t100 253t270 93t277 -70q33 -23 94 -86l-143 -104q-84 86 -205 86q-82 0 -132 -41t-50 -108q0 -68 41 -106q40 -38 226 -95t258 -127t71 -182q0 -112 -37 -174t-129 -124q63 -45 88 -94t25 -131q0 -166 -106 -259t-286 -93t-303 71q-48 29 -120 103l143 106
q106 -106 254 -106z" />
    <glyph glyph-name="dieresis" unicode="&#xa8;" horiz-adv-x="1024" 
d="M618 1202v234h187v-234h-187zM219 1202v234h187v-234h-187z" />
    <glyph glyph-name="copyright" unicode="&#xa9;" horiz-adv-x="1693" 
d="M1458 729q0 269 -172 447t-442 178t-438 -180t-168 -447q0 -266 173 -442t438 -176t437 176t172 444zM850 1495q336 0 554 -218t218 -547t-220 -546t-555 -217t-555 217t-220 545q0 160 57 303t162 246q223 217 559 217zM545 680v102q1 162 75 236t230 74t227 -50
q72 -50 80 -155l-151 -8q-16 92 -144 92q-82 0 -117 -40t-34 -134v-131q0 -94 34 -135q35 -40 117 -39q132 0 152 92l153 -13q-14 -201 -309 -200q-178 0 -256 92q-57 66 -57 217z" />
    <glyph glyph-name="ordfeminine" unicode="&#xaa;" horiz-adv-x="710" 
d="M461 1087h-115q-78 0 -110 -20q-32 -21 -31 -71q-1 -50 27 -69t99 -19t101 20t29 67v92zM455 1192v49q0 113 -121 113q-80 0 -150 -62l-94 78q92 104 265 104t229 -98q29 -47 28 -155v-420h-129l-4 41q-61 -54 -187 -54t-181 46t-55 156q0 112 62 157t224 45h113z" />
    <glyph glyph-name="guillemotleft" unicode="&#xab;" horiz-adv-x="935" 
d="M291 604l178 -256l-127 -90l-279 346l279 344l127 -88zM694 604l178 -256l-127 -90l-278 346l278 344l127 -88z" />
    <glyph glyph-name="logicalnot" unicode="&#xac;" 
d="M96 653v168h854v-596h-200v428h-654z" />
    <glyph glyph-name="uni00AD" unicode="&#xad;" horiz-adv-x="964" 
d="M180 645v180h606v-180h-606z" />
    <glyph glyph-name="registered" unicode="&#xae;" horiz-adv-x="1419" 
d="M709 723q207 0 333 131t125 333q1 202 -125 332t-332 130t-333 -131t-127 -332t126 -332t333 -131zM711 1780q262 0 433 -170t171 -425t-173 -424t-434 -169t-434 169q-172 169 -172 426t173 425q174 168 436 168zM612 1204h125q102 0 103 86q0 84 -109 84h-119v-170z
M614 1124v-221h-139v567h264q125 0 183 -39q57 -41 57 -121t-27 -116t-92 -55l141 -236h-151l-125 221h-111z" />
    <glyph glyph-name="macron" unicode="&#xaf;" horiz-adv-x="1024" 
d="M225 1253v150h574v-150h-574z" />
    <glyph glyph-name="degree" unicode="&#xb0;" horiz-adv-x="849" 
d="M428 1376q-195 0 -195 -205q1 -98 51 -150t142 -52t142 52q50 53 50 151t-50 151t-140 53zM427 1524q169 0 265 -94t96 -258t-97 -258q-97 -93 -265 -93t-265 94t-97 258q0 163 96 257q98 94 267 94z" />
    <glyph glyph-name="plusminus" unicode="&#xb1;" 
d="M78 0v168h948v-168h-948zM78 684v168h383v379h182v-379h383v-168h-383v-377h-182v377h-383z" />
    <glyph glyph-name="twosuperior" unicode="&#xb2;" horiz-adv-x="712" 
d="M78 791v106l256 299q129 147 129 242q0 51 -31 81t-82 29q-109 0 -131 -123l-158 15q16 117 66 166q76 76 229 75q276 0 277 -247q0 -86 -32 -148t-146 -196l-142 -166h316v-133h-551z" />
    <glyph glyph-name="threesuperior" unicode="&#xb3;" horiz-adv-x="712" 
d="M219 1194v115h90q59 0 101 36q41 36 41 87q0 50 -33 82t-86 32q-102 0 -125 -98l-154 16q14 106 66 150q76 66 219 65q283 0 283 -239q0 -129 -101 -187q123 -66 123 -217q0 -258 -307 -258q-180 0 -258 86q-35 39 -49 133l161 25q20 -111 142 -111q66 0 104 35
q38 36 37 100q0 64 -43 106t-113 42h-98z" />
    <glyph glyph-name="acute" unicode="&#xb4;" horiz-adv-x="1024" 
d="M391 1190l160 301h244l-246 -301h-158z" />
    <glyph glyph-name="mu" unicode="&#xb5;" 
d="M147 1040h203v-579q0 -162 47 -235q47 -72 156 -72t157 80t48 274v532h203v-1040h-140l-28 127q-74 -147 -258 -147q-109 0 -185 67v-508h-203v1501z" />
    <glyph glyph-name="paragraph" unicode="&#xb6;" horiz-adv-x="1275" 
d="M461 -279v963h-51q-94 0 -142 9t-92 36q-82 47 -128 139t-46 210t49 211q78 148 241 167q50 6 232 6h543v-1741h-197v1569h-213v-1569h-196z" />
    <glyph glyph-name="periodcentered" unicode="&#xb7;" horiz-adv-x="585" 
d="M184 621v229h219v-229h-219z" />
    <glyph glyph-name="cedilla" unicode="&#xb8;" horiz-adv-x="1024" 
d="M362 -469l105 332h209l-170 -332h-144z" />
    <glyph glyph-name="onesuperior" unicode="&#xb9;" horiz-adv-x="516" 
d="M201 791v714l-154 -57l-45 123l252 96h117v-876h-170z" />
    <glyph glyph-name="ordmasculine" unicode="&#xba;" horiz-adv-x="737" 
d="M502 1077v109q0 164 -134 164t-135 -164v-109q1 -164 135 -164t134 164zM74 1069v123q0 150 70 216t224 67q154 0 224 -67t70 -216v-123q0 -147 -70 -214t-224 -67t-225 67q-69 67 -69 214z" />
    <glyph glyph-name="guillemotright" unicode="&#xbb;" horiz-adv-x="935" 
d="M645 604l-178 256l127 88l278 -344l-278 -346l-127 90zM242 604l-179 256l127 88l279 -344l-279 -346l-127 90z" />
    <glyph glyph-name="onequarter" unicode="&#xbc;" horiz-adv-x="1798" 
d="M1395 0v154h-383v98l299 625h180l-285 -592h189v174h151v-174h88v-131h-88v-154h-151zM479 0l461 1462h197l-461 -1462h-197zM297 586v714l-154 -57l-45 123l252 96h117v-876h-170z" />
    <glyph glyph-name="onehalf" unicode="&#xbd;" horiz-adv-x="1798" 
d="M461 0l461 1462h196l-461 -1462h-196zM1077 0v106l256 300q129 147 129 241q0 51 -29 81q-30 30 -81 30q-111 0 -133 -123l-158 14q16 117 65 166q76 76 230 76q276 0 276 -248q0 -86 -32 -147t-146 -197l-141 -166h315v-133h-551zM293 586v714l-154 -57l-45 123l252 96
h117v-876h-170z" />
    <glyph glyph-name="threequarters" unicode="&#xbe;" horiz-adv-x="1798" 
d="M580 0l460 1462h195l-461 -1462h-194zM1454 0v154h-383v98l299 625h180l-284 -592h188v174h152v-174h88v-131h-88v-154h-152zM229 989v115h90q59 0 101 36q41 36 41 87t-33 83t-86 31q-102 0 -125 -98l-154 17q14 106 66 149q76 66 219 66q283 0 283 -240
q0 -129 -101 -186q123 -66 123 -218q0 -258 -307 -258q-182 0 -258 86q-35 39 -49 134l162 24q20 -111 141 -110q66 1 104 35t37 99q0 65 -43 107t-112 41h-99z" />
    <glyph glyph-name="questiondown" unicode="&#xbf;" horiz-adv-x="1191" 
d="M725 1040v-231h-209v231h209zM709 639v-74q2 -125 -36 -197t-155 -171q-86 -77 -124 -131t-38 -138t62 -140t164 -56q135 0 204 104q37 51 66 166l203 -35q-82 -414 -480 -413q-201 0 -319 105t-117 273q0 168 107 281q41 47 166 151t125 222v53h172z" />
    <glyph glyph-name="Agrave" unicode="&#xc0;" horiz-adv-x="1245" 
d="M733 1606h-158l-245 303h243zM868 481l-243 715l-246 -715h489zM922 305h-596l-103 -305h-237l532 1462h211l533 -1462h-238z" />
    <glyph glyph-name="Aacute" unicode="&#xc1;" horiz-adv-x="1245" 
d="M518 1606l160 303h244l-246 -303h-158zM868 481l-243 715l-246 -715h489zM922 305h-596l-103 -305h-237l532 1462h211l533 -1462h-238z" />
    <glyph glyph-name="Acircumflex" unicode="&#xc2;" horiz-adv-x="1245" 
d="M621 1776l-129 -164h-209l266 291h143l269 -291h-209zM868 481l-243 715l-246 -715h489zM922 305h-596l-103 -305h-237l532 1462h211l533 -1462h-238z" />
    <glyph glyph-name="Atilde" unicode="&#xc3;" horiz-adv-x="1245" 
d="M496 1890q82 0 153 -63q49 -41 67 -52t44 -11q25 0 42 24q17 25 32 88h129q-23 -117 -45 -162q-49 -100 -164 -100q-86 0 -156 63t-104 64q-59 0 -86 -113h-129q29 121 51 160q57 102 166 102zM868 481l-243 715l-246 -715h489zM922 305h-596l-103 -305h-237l532 1462
h211l533 -1462h-238z" />
    <glyph glyph-name="Adieresis" unicode="&#xc4;" horiz-adv-x="1245" 
d="M731 1618v233h187v-233h-187zM326 1618v233h186v-233h-186zM868 481l-243 715l-246 -715h489zM922 305h-596l-103 -305h-237l532 1462h211l533 -1462h-238z" />
    <glyph glyph-name="Aring" unicode="&#xc5;" horiz-adv-x="1245" 
d="M721 1806q0 116 -99 117q-100 0 -100 -117t101 -116q98 0 98 116zM622 2025q106 0 170 -59q64 -60 64 -158t-64 -159t-170 -61q-105 0 -170 60q-65 62 -65 161q1 99 65 157t170 59zM868 481l-243 715l-246 -715h489zM922 305h-596l-103 -305h-237l532 1462h211l533 -1462
h-238z" />
    <glyph glyph-name="AE" unicode="&#xc6;" horiz-adv-x="1953" 
d="M965 506v776h-19l-489 -776h508zM965 328h-611l-202 -328h-254l950 1462h993v-180h-661v-453h563v-180h-563v-469h665v-180h-880v328z" />
    <glyph glyph-name="Ccedilla" unicode="&#xc7;" horiz-adv-x="1286" 
d="M463 -469l104 332h209l-170 -332h-143zM666 -20q-283 0 -414 182q-90 129 -90 416v305q0 168 25 268q26 100 87 172q129 156 392 156q223 1 345 -99t132 -290l-203 -17q-29 227 -268 227q-158 0 -225 -98t-66 -334v-278q1 -236 67 -334t224 -98q251 0 282 227l205 -23
q-10 -188 -136 -285t-357 -97z" />
    <glyph glyph-name="Egrave" unicode="&#xc8;" horiz-adv-x="1187" 
d="M776 1606h-158l-245 303h243zM199 0v1462h876v-180h-659v-453h561v-180h-561v-469h665v-180h-882z" />
    <glyph glyph-name="Eacute" unicode="&#xc9;" horiz-adv-x="1187" 
d="M535 1606l159 303h244l-246 -303h-157zM199 0v1462h876v-180h-659v-453h561v-180h-561v-469h665v-180h-882z" />
    <glyph glyph-name="Ecircumflex" unicode="&#xca;" horiz-adv-x="1187" 
d="M639 1776l-129 -164h-209l266 291h144l268 -291h-209zM199 0v1462h876v-180h-659v-453h561v-180h-561v-469h665v-180h-882z" />
    <glyph glyph-name="Edieresis" unicode="&#xcb;" horiz-adv-x="1187" 
d="M756 1618v233h186v-233h-186zM350 1618v233h187v-233h-187zM199 0v1462h876v-180h-659v-453h561v-180h-561v-469h665v-180h-882z" />
    <glyph glyph-name="Igrave" unicode="&#xcc;" horiz-adv-x="612" 
d="M420 1606h-158l-246 303h244zM197 0v1462h219v-1462h-219z" />
    <glyph glyph-name="Iacute" unicode="&#xcd;" horiz-adv-x="612" 
d="M182 1606l160 303h244l-246 -303h-158zM182 0v1462h219v-1462h-219z" />
    <glyph glyph-name="Icircumflex" unicode="&#xce;" horiz-adv-x="612" 
d="M305 1776l-129 -164h-209l266 291h144l268 -291h-209zM197 0v1462h219v-1462h-219z" />
    <glyph glyph-name="Idieresis" unicode="&#xcf;" horiz-adv-x="612" 
d="M416 1618v233h186v-233h-186zM10 1618v233h187v-233h-187zM197 0v1462h219v-1462h-219z" />
    <glyph glyph-name="Eth" unicode="&#xd0;" horiz-adv-x="1382" 
d="M416 827h307v-176h-307v-475h223q193 -4 275 89t85 317v301q-2 221 -85 314t-275 89h-223v-459zM197 827v635h481q276 4 412 -137t129 -424v-340q16 -567 -541 -561h-481v651h-164v176h164z" />
    <glyph glyph-name="Ntilde" unicode="&#xd1;" horiz-adv-x="1470" 
d="M616 1890q82 0 154 -63q50 -41 68 -52t43 -11t42 24q17 25 31 88h129q-23 -117 -45 -162q-49 -100 -164 -100q-86 0 -155 63t-105 64q-59 0 -86 -113h-129q29 121 52 160q57 102 165 102zM197 0v1462h213l651 -1093v1093h213v-1462h-213l-651 1094v-1094h-213z" />
    <glyph glyph-name="Ograve" unicode="&#xd2;" horiz-adv-x="1378" 
d="M815 1606h-158l-245 303h243zM997 573v316q0 219 -72 317q-73 98 -236 98t-235 -98t-73 -317v-316q0 -219 73 -317q74 -98 236 -98t235 98q72 98 72 317zM162 553v356q0 158 27 254q28 96 94 168q137 152 417 152t416 -176q100 -129 101 -398v-356q0 -158 -28 -255
t-93 -167q-137 -151 -418 -151t-416 176q-100 129 -100 397z" />
    <glyph glyph-name="Oacute" unicode="&#xd3;" horiz-adv-x="1378" 
d="M569 1606l160 303h244l-246 -303h-158zM997 573v316q0 219 -72 317q-73 98 -236 98t-235 -98t-73 -317v-316q0 -219 73 -317q74 -98 236 -98t235 98q72 98 72 317zM162 553v356q0 158 27 254q28 96 94 168q137 152 417 152t416 -176q100 -129 101 -398v-356
q0 -158 -28 -255t-93 -167q-137 -151 -418 -151t-416 176q-100 129 -100 397z" />
    <glyph glyph-name="Ocircumflex" unicode="&#xd4;" horiz-adv-x="1378" 
d="M688 1776l-129 -164h-209l266 291h144l268 -291h-209zM997 573v316q0 219 -72 317q-73 98 -236 98t-235 -98t-73 -317v-316q0 -219 73 -317q74 -98 236 -98t235 98q72 98 72 317zM162 553v356q0 158 27 254q28 96 94 168q137 152 417 152t416 -176q100 -129 101 -398
v-356q0 -158 -28 -255t-93 -167q-137 -151 -418 -151t-416 176q-100 129 -100 397z" />
    <glyph glyph-name="Otilde" unicode="&#xd5;" horiz-adv-x="1378" 
d="M563 1890q82 0 154 -63q49 -41 67 -52t43 -11t42 24q17 25 32 88h129q-23 -117 -45 -162q-49 -100 -164 -100q-85 0 -155 63t-105 64q-59 0 -86 -113h-129q29 121 51 160q57 102 166 102zM997 573v316q0 219 -72 317q-73 98 -236 98t-235 -98t-73 -317v-316
q0 -219 73 -317q74 -98 236 -98t235 98q72 98 72 317zM162 553v356q0 158 27 254q28 96 94 168q137 152 417 152t416 -176q100 -129 101 -398v-356q0 -158 -28 -255t-93 -167q-137 -151 -418 -151t-416 176q-100 129 -100 397z" />
    <glyph glyph-name="Odieresis" unicode="&#xd6;" horiz-adv-x="1378" 
d="M799 1618v233h186v-233h-186zM393 1618v233h187v-233h-187zM997 573v316q0 219 -72 317q-73 98 -236 98t-235 -98t-73 -317v-316q0 -219 73 -317q74 -98 236 -98t235 98q72 98 72 317zM162 553v356q0 158 27 254q28 96 94 168q137 152 417 152t416 -176
q100 -129 101 -398v-356q0 -158 -28 -255t-93 -167q-137 -151 -418 -151t-416 176q-100 129 -100 397z" />
    <glyph glyph-name="multiply" unicode="&#xd7;" 
d="M436 737l-307 307l117 117l307 -307l307 307l117 -117l-305 -307l305 -307l-117 -117l-307 308l-307 -308l-117 117z" />
    <glyph glyph-name="Oslash" unicode="&#xd8;" horiz-adv-x="1378" 
d="M680 1305q-152 -1 -226 -99t-73 -317v-316q0 -94 8 -141l522 787q-79 86 -231 86zM698 158q154 0 227 98t72 317v316q0 98 -6 137l-522 -784q75 -84 229 -84zM1217 553q0 -158 -28 -254t-93 -168q-137 -152 -412 -151q-211 0 -332 88l-78 -117l-141 98l98 150
q-70 133 -69 354v356q0 156 27 254q28 98 94 170q137 150 405 150q215 0 340 -90l78 114l139 -98l-98 -147q39 -74 54 -150t16 -203v-356z" />
    <glyph glyph-name="Ugrave" unicode="&#xd9;" horiz-adv-x="1406" 
d="M846 1606h-158l-246 303h244zM190 1462h220v-921q0 -184 45 -265q72 -118 256 -118t252 137q35 76 34 246v921h220v-921q1 -160 -19 -244t-72 -147q-132 -170 -434 -170t-432 194q-39 61 -54 140t-16 227v921z" />
    <glyph glyph-name="Uacute" unicode="&#xda;" horiz-adv-x="1406" 
d="M596 1606l160 303h243l-245 -303h-158zM190 1462h220v-921q0 -184 45 -265q72 -118 256 -118t252 137q35 76 34 246v921h220v-921q1 -160 -19 -244t-72 -147q-132 -170 -434 -170t-432 194q-39 61 -54 140t-16 227v921z" />
    <glyph glyph-name="Ucircumflex" unicode="&#xdb;" horiz-adv-x="1406" 
d="M702 1776l-129 -164h-208l266 291h143l268 -291h-208zM190 1462h220v-921q0 -184 45 -265q72 -118 256 -118t252 137q35 76 34 246v921h220v-921q1 -160 -19 -244t-72 -147q-132 -170 -434 -170t-432 194q-39 61 -54 140t-16 227v921z" />
    <glyph glyph-name="Udieresis" unicode="&#xdc;" horiz-adv-x="1406" 
d="M813 1618v233h186v-233h-186zM408 1618v233h186v-233h-186zM190 1462h220v-921q0 -184 45 -265q72 -118 256 -118t252 137q35 76 34 246v921h220v-921q1 -160 -19 -244t-72 -147q-132 -170 -434 -170t-432 194q-39 61 -54 140t-16 227v921z" />
    <glyph glyph-name="Yacute" unicode="&#xdd;" horiz-adv-x="1099" 
d="M453 1606l159 303h244l-246 -303h-157zM442 0v528l-456 934h231l336 -714l334 714h231l-456 -934v-528h-220z" />
    <glyph glyph-name="Thorn" unicode="&#xde;" horiz-adv-x="1241" 
d="M416 496h262q139 0 204 66t64 212q0 145 -64 213q-65 68 -204 68h-262v-559zM416 317v-317h-219v1462h219v-231h262q143 0 230 -27q256 -80 256 -440q0 -234 -128 -348q-111 -98 -358 -99h-262z" />
    <glyph glyph-name="germandbls" unicode="&#xdf;" horiz-adv-x="1169" 
d="M166 0v1081q0 205 97 301t297 96t303 -83q103 -84 104 -240q-1 -80 -19 -127t-80 -121q92 -41 134 -135t40 -256v-72q2 -244 -86 -344t-305 -100h-94v168h70q123 -2 165 52t42 212v94q-2 166 -42 222t-159 51h-35v151h35q139 0 139 178q0 186 -197 187q-109 0 -155 -53
t-45 -179v-1083h-209z" />
    <glyph glyph-name="agrave" unicode="&#xe0;" horiz-adv-x="1081" 
d="M690 1190h-158l-245 301h243zM715 471h-207q-119 0 -168 -39t-49 -129t46 -125t176 -35t177 62q25 35 25 131v135zM715 618v60q0 115 -48 165t-155 50q-139 0 -229 -105l-144 107q135 166 396 166t348 -164q41 -76 41 -254v-643h-166l-15 68q-49 -48 -113 -68t-179 -20
q-197 0 -278 72t-81 248q0 177 86 248t307 70h230z" />
    <glyph glyph-name="aacute" unicode="&#xe1;" horiz-adv-x="1081" 
d="M440 1190l160 301h244l-246 -301h-158zM715 471h-207q-119 0 -168 -39t-49 -129t46 -125t176 -35t177 62q25 35 25 131v135zM715 618v60q0 115 -48 165t-155 50q-139 0 -229 -105l-144 107q135 166 396 166t348 -164q41 -76 41 -254v-643h-166l-15 68q-49 -48 -113 -68
t-179 -20q-197 0 -278 72t-81 248q0 177 86 248t307 70h230z" />
    <glyph glyph-name="acircumflex" unicode="&#xe2;" horiz-adv-x="1081" 
d="M541 1358l-129 -162h-209l266 289h143l269 -289h-209zM715 471h-207q-119 0 -168 -39t-49 -129t46 -125t176 -35t177 62q25 35 25 131v135zM715 618v60q0 115 -48 165t-155 50q-139 0 -229 -105l-144 107q135 166 396 166t348 -164q41 -76 41 -254v-643h-166l-15 68
q-49 -48 -113 -68t-179 -20q-197 0 -278 72t-81 248q0 177 86 248t307 70h230z" />
    <glyph glyph-name="atilde" unicode="&#xe3;" horiz-adv-x="1081" 
d="M680 1346q25 0 42 24t32 88h129q-27 -125 -45 -162q-49 -100 -164 -100q-86 0 -158 64t-102 65q-61 0 -86 -115h-129q29 123 51 162q57 102 166 103q82 1 142 -53t78 -65t44 -11zM715 471h-207q-119 0 -168 -39t-49 -129t46 -125t176 -35t177 62q25 35 25 131v135z
M715 618v60q0 115 -48 165t-155 50q-139 0 -229 -105l-144 107q135 166 396 166t348 -164q41 -76 41 -254v-643h-166l-15 68q-49 -48 -113 -68t-179 -20q-197 0 -278 72t-81 248q0 177 86 248t307 70h230z" />
    <glyph glyph-name="adieresis" unicode="&#xe4;" horiz-adv-x="1081" 
d="M647 1202v234h187v-234h-187zM248 1202v234h186v-234h-186zM715 471h-207q-119 0 -168 -39t-49 -129t46 -125t176 -35t177 62q25 35 25 131v135zM715 618v60q0 115 -48 165t-155 50q-139 0 -229 -105l-144 107q135 166 396 166t348 -164q41 -76 41 -254v-643h-166l-15 68
q-49 -48 -113 -68t-179 -20q-197 0 -278 72t-81 248q0 177 86 248t307 70h230z" />
    <glyph glyph-name="aring" unicode="&#xe5;" horiz-adv-x="1081" 
d="M548 1507q-99 -1 -99 -117t99 -116t99 116t-99 117zM313 1394q1 100 65 158t170 58t170 -60t64 -158q0 -97 -64 -159q-65 -61 -170 -61t-170 60q-65 62 -65 162zM715 471h-207q-119 0 -168 -39t-49 -129t46 -125t176 -35t177 62q25 35 25 131v135zM715 618v60
q0 115 -48 165t-155 50q-139 0 -229 -105l-144 107q135 166 396 166t348 -164q41 -76 41 -254v-643h-166l-15 68q-49 -48 -113 -68t-179 -20q-197 0 -278 72t-81 248q0 177 86 248t307 70h230z" />
    <glyph glyph-name="ae" unicode="&#xe6;" horiz-adv-x="1703" 
d="M1389 641q0 259 -240 259q-123 0 -180 -93q-41 -68 -41 -168v-18h461v20zM715 471h-207q-117 0 -167 -40t-50 -129t46 -124t166 -35t166 48t46 182v98zM928 434q0 -289 268 -289q137 0 215 105l156 -92q-66 -94 -159 -136t-239 -42q-238 0 -348 149q-55 -82 -138 -116
q-83 -33 -256 -33t-254 70t-81 249q0 178 86 249t307 70h230v60q0 113 -47 164q-47 50 -171 50t-214 -104l-144 105q131 168 389 168q215 0 308 -125q59 70 132 98t193 27q223 0 325 -121t101 -385v-84h-659v-37z" />
    <glyph glyph-name="ccedilla" unicode="&#xe7;" horiz-adv-x="976" 
d="M326 -469l104 332h209l-170 -332h-143zM559 -20q-426 0 -426 493v76q1 262 103 387t317 125q256 0 362 -184l-155 -89q-43 59 -85 82t-108 23q-115 0 -170 -80t-55 -248v-112q0 -305 229 -306q133 1 209 103l156 -90q-121 -180 -377 -180z" />
    <glyph glyph-name="egrave" unicode="&#xe8;" horiz-adv-x="1118" 
d="M700 1190h-157l-246 301h244zM803 641q0 259 -242 259q-125 0 -178 -93q-41 -68 -41 -168v-18h461v20zM342 434q0 -289 268 -289q136 0 215 105l156 -92q-63 -94 -157 -136t-244 -42q-231 0 -339 118t-108 375v80q1 268 103 388t331 120t331 -120t103 -388v-82h-659v-37z
" />
    <glyph glyph-name="eacute" unicode="&#xe9;" horiz-adv-x="1118" 
d="M455 1190l159 301h244l-246 -301h-157zM803 641q0 259 -242 259q-125 0 -178 -93q-41 -68 -41 -168v-18h461v20zM342 434q0 -289 268 -289q136 0 215 105l156 -92q-63 -94 -157 -136t-244 -42q-231 0 -339 118t-108 375v80q1 268 103 388t331 120t331 -120t103 -388v-82
h-659v-37z" />
    <glyph glyph-name="ecircumflex" unicode="&#xea;" horiz-adv-x="1118" 
d="M575 1358l-129 -162h-208l266 289h143l268 -289h-208zM803 641q0 259 -242 259q-125 0 -178 -93q-41 -68 -41 -168v-18h461v20zM342 434q0 -289 268 -289q136 0 215 105l156 -92q-63 -94 -157 -136t-244 -42q-231 0 -339 118t-108 375v80q1 268 103 388t331 120t331 -120
t103 -388v-82h-659v-37z" />
    <glyph glyph-name="edieresis" unicode="&#xeb;" horiz-adv-x="1118" 
d="M682 1202v234h186v-234h-186zM283 1202v234h186v-234h-186zM803 641q0 259 -242 259q-125 0 -178 -93q-41 -68 -41 -168v-18h461v20zM342 434q0 -289 268 -289q136 0 215 105l156 -92q-63 -94 -157 -136t-244 -42q-231 0 -339 118t-108 375v80q1 268 103 388t331 120
t331 -120t103 -388v-82h-659v-37z" />
    <glyph glyph-name="igrave" unicode="&#xec;" horiz-adv-x="540" 
d="M379 1190h-158l-246 301h244zM168 0v1040h209v-1040h-209z" />
    <glyph glyph-name="iacute" unicode="&#xed;" horiz-adv-x="540" 
d="M152 1190l159 301h244l-246 -301h-157zM154 0v1040h208v-1040h-208z" />
    <glyph glyph-name="icircumflex" unicode="&#xee;" horiz-adv-x="540" 
d="M270 1358l-129 -162h-209l267 289h143l268 -289h-209zM168 0v1040h209v-1040h-209z" />
    <glyph glyph-name="idieresis" unicode="&#xef;" horiz-adv-x="540" 
d="M377 1202v234h186v-234h-186zM-23 1202v234h187v-234h-187zM166 0v1040h209v-1040h-209z" />
    <glyph glyph-name="eth" unicode="&#xf0;" horiz-adv-x="1142" 
d="M803 455v108q0 158 -55 232q-56 73 -176 73t-175 -74t-55 -231v-108q0 -160 55 -234t175 -74t176 74q55 74 55 234zM133 440v138q0 229 92 335q113 125 314 125q113 0 188 -51q-55 133 -104 182l-226 -114l-73 108l182 92q-102 63 -215 84l26 138q199 -20 359 -134
l176 91l72 -111l-144 -72q109 -123 168 -299t64 -374v-138q0 -240 -106 -350t-334 -110t-334 110t-105 350z" />
    <glyph glyph-name="ntilde" unicode="&#xf1;" horiz-adv-x="1163" 
d="M721 1346q25 0 42 24t32 88h129q-27 -125 -45 -162q-49 -100 -164 -100q-86 0 -158 64t-102 65q-61 0 -86 -115h-129q29 123 51 162q57 102 166 103q82 1 142 -53q61 -54 79 -65t43 -11zM166 0v1040h160l16 -104q92 125 285 125q274 0 348 -201q31 -90 31 -264v-596h-209
v573q0 166 -47 238t-162 72t-164 -80t-49 -271v-532h-209z" />
    <glyph glyph-name="ograve" unicode="&#xf2;" horiz-adv-x="1142" 
d="M698 1190h-157l-246 301h244zM803 455v131q0 160 -55 234q-56 74 -176 73q-120 0 -175 -74t-55 -233v-131q0 -160 55 -234t175 -74t176 74q55 74 55 234zM133 440v160q-1 240 105 350t334 111q228 0 334 -111t106 -350v-160q0 -240 -106 -350t-334 -110t-334 110
t-105 350z" />
    <glyph glyph-name="oacute" unicode="&#xf3;" horiz-adv-x="1142" 
d="M451 1190l159 301h244l-246 -301h-157zM803 455v131q0 160 -55 234q-56 74 -176 73q-120 0 -175 -74t-55 -233v-131q0 -160 55 -234t175 -74t176 74q55 74 55 234zM133 440v160q-1 240 105 350t334 111q228 0 334 -111t106 -350v-160q0 -240 -106 -350t-334 -110
t-334 110t-105 350z" />
    <glyph glyph-name="ocircumflex" unicode="&#xf4;" horiz-adv-x="1142" 
d="M571 1358l-129 -162h-209l267 289h143l268 -289h-209zM803 455v131q0 160 -55 234q-56 74 -176 73q-120 0 -175 -74t-55 -233v-131q0 -160 55 -234t175 -74t176 74q55 74 55 234zM133 440v160q-1 240 105 350t334 111q228 0 334 -111t106 -350v-160q0 -240 -106 -350
t-334 -110t-334 110t-105 350z" />
    <glyph glyph-name="otilde" unicode="&#xf5;" horiz-adv-x="1142" 
d="M711 1346q25 0 42 24t31 88h129q-27 -125 -45 -162q-49 -100 -163 -100q-86 0 -158 64t-103 65q-61 0 -86 -115h-129q29 123 52 162q57 102 165 103q82 1 142 -53t80 -65q18 -11 43 -11zM803 455v131q0 160 -55 234q-56 74 -176 73q-120 0 -175 -74t-55 -233v-131
q0 -160 55 -234t175 -74t176 74q55 74 55 234zM133 440v160q-1 240 105 350t334 111q228 0 334 -111t106 -350v-160q0 -240 -106 -350t-334 -110t-334 110t-105 350z" />
    <glyph glyph-name="odieresis" unicode="&#xf6;" horiz-adv-x="1142" 
d="M678 1202v234h186v-234h-186zM279 1202v234h186v-234h-186zM803 455v131q0 160 -55 234q-56 74 -176 73q-120 0 -175 -74t-55 -233v-131q0 -160 55 -234t175 -74t176 74q55 74 55 234zM133 440v160q-1 240 105 350t334 111q228 0 334 -111t106 -350v-160
q0 -240 -106 -350t-334 -110t-334 110t-105 350z" />
    <glyph glyph-name="divide" unicode="&#xf7;" 
d="M457 977v201h188v-201h-188zM457 297v203h188v-203h-188zM78 653v168h948v-168h-948z" />
    <glyph glyph-name="oslash" unicode="&#xf8;" horiz-adv-x="1142" 
d="M556 893q-218 0 -218 -307v-131q0 -64 10 -119l369 510q-55 47 -161 47zM801 586q0 66 -10 121l-369 -510q54 -49 160 -49q217 -1 219 307v131zM1008 600v-158q0 -242 -106 -352t-333 -110q-162 0 -262 57l-65 -90l-113 86l72 100q-72 106 -72 309v158q0 240 105 350
t335 111q164 0 262 -55l64 86l113 -84l-72 -99q72 -102 72 -309z" />
    <glyph glyph-name="ugrave" unicode="&#xf9;" horiz-adv-x="1140" 
d="M696 1190h-157l-246 301h244zM158 1040h209v-575q0 -164 45 -236q44 -71 152 -71t155 80t47 270v532h209v-1040h-152l-22 106q-80 -127 -275 -126q-266 0 -338 200q-31 86 -30 264v596z" />
    <glyph glyph-name="uacute" unicode="&#xfa;" horiz-adv-x="1140" 
d="M449 1190l159 301h244l-246 -301h-157zM158 1040h209v-575q0 -164 45 -236q44 -71 152 -71t155 80t47 270v532h209v-1040h-152l-22 106q-80 -127 -275 -126q-266 0 -338 200q-31 86 -30 264v596z" />
    <glyph glyph-name="ucircumflex" unicode="&#xfb;" horiz-adv-x="1140" 
d="M569 1358l-129 -162h-209l267 289h143l268 -289h-209zM158 1040h209v-575q0 -164 45 -236q44 -71 152 -71t155 80t47 270v532h209v-1040h-152l-22 106q-80 -127 -275 -126q-266 0 -338 200q-31 86 -30 264v596z" />
    <glyph glyph-name="udieresis" unicode="&#xfc;" horiz-adv-x="1140" 
d="M676 1202v234h186v-234h-186zM276 1202v234h187v-234h-187zM158 1040h209v-575q0 -164 45 -236q44 -71 152 -71t155 80t47 270v532h209v-1040h-152l-22 106q-80 -127 -275 -126q-266 0 -338 200q-31 86 -30 264v596z" />
    <glyph glyph-name="yacute" unicode="&#xfd;" horiz-adv-x="1015" 
d="M412 1190l159 301h244l-246 -301h-157zM406 10l-369 1030h211l268 -802l244 802h211l-393 -1171q-78 -221 -158 -279t-307 -61v172q119 -2 163 31t89 155z" />
    <glyph glyph-name="thorn" unicode="&#xfe;" horiz-adv-x="1159" 
d="M821 457v127q0 158 -54 234t-167 75q-223 0 -223 -279v-188q0 -279 223 -279q113 0 167 76t54 234zM377 -461h-209v1923h209v-479q100 78 260 78q205 0 298 -111t93 -352v-156q0 -242 -93 -352t-298 -110q-160 -1 -260 81v-522z" />
    <glyph glyph-name="ydieresis" unicode="&#xff;" horiz-adv-x="1015" 
d="M614 1202v234h187v-234h-187zM215 1202v234h186v-234h-186zM406 10l-369 1030h211l268 -802l244 802h211l-393 -1171q-78 -221 -158 -279t-307 -61v172q119 -2 163 31t89 155z" />
    <glyph glyph-name="Amacron" unicode="&#x100;" horiz-adv-x="1245" 
d="M336 1671v150h573v-150h-573zM868 481l-243 715l-246 -715h489zM922 305h-596l-103 -305h-237l532 1462h211l533 -1462h-238z" />
    <glyph glyph-name="amacron" unicode="&#x101;" horiz-adv-x="1081" 
d="M256 1253v150h573v-150h-573zM715 471h-207q-119 0 -168 -39t-49 -129t46 -125t176 -35t177 62q25 35 25 131v135zM715 618v60q0 115 -48 165t-155 50q-139 0 -229 -105l-144 107q135 166 396 166t348 -164q41 -76 41 -254v-643h-166l-15 68q-49 -48 -113 -68t-179 -20
q-197 0 -278 72t-81 248q0 177 86 248t307 70h230z" />
    <glyph glyph-name="Abreve" unicode="&#x102;" horiz-adv-x="1245" 
d="M623 1747q88 0 127 33t49 114h135q-8 -131 -39 -186q-69 -115 -281 -115t-274 136q-23 46 -29 165h135q10 -82 50 -114t127 -33zM868 481l-243 715l-246 -715h489zM922 305h-596l-103 -305h-237l532 1462h211l533 -1462h-238z" />
    <glyph glyph-name="abreve" unicode="&#x103;" horiz-adv-x="1081" 
d="M545 1329q88 0 127 33t49 117h135q-8 -131 -39 -187q-69 -116 -281 -116t-274 135q-23 47 -29 168h136q10 -84 49 -117t127 -33zM715 471h-207q-119 0 -168 -39t-49 -129t46 -125t176 -35t177 62q25 35 25 131v135zM715 618v60q0 115 -48 165t-155 50q-139 0 -229 -105
l-144 107q135 166 396 166t348 -164q41 -76 41 -254v-643h-166l-15 68q-49 -48 -113 -68t-179 -20q-197 0 -278 72t-81 248q0 177 86 248t307 70h230z" />
    <glyph glyph-name="Aogonek" unicode="&#x104;" horiz-adv-x="1245" 
d="M868 481l-243 715l-246 -715h489zM1071 -215q0 -80 98 -80q55 0 123 21l21 -111q-88 -33 -180 -33q-248 0 -248 170q0 115 133 205q39 29 76 43h-70l-102 305h-596l-103 -305h-237l532 1462h211l533 -1462q-116 -77 -153 -121q-38 -43 -38 -94z" />
    <glyph glyph-name="aogonek" unicode="&#x105;" horiz-adv-x="1081" 
d="M715 471h-207q-119 0 -168 -39t-49 -129t46 -125t176 -35t177 62q25 35 25 131v135zM733 -215q0 -80 101 -80q53 0 120 21l21 -111q-88 -33 -180 -33q-248 0 -248 170q0 154 211 250l-15 66q-49 -48 -113 -68t-179 -20q-197 0 -278 72t-81 248q0 177 86 248t307 70h230
v60q0 115 -48 165t-155 50q-139 0 -229 -105l-144 107q135 166 396 166t348 -164q41 -76 41 -254v-643q-116 -77 -153 -121q-38 -43 -38 -94z" />
    <glyph glyph-name="Cacute" unicode="&#x106;" horiz-adv-x="1286" 
d="M547 1606l160 303h243l-245 -303h-158zM666 -20q-283 0 -414 182q-90 129 -90 416v305q0 168 25 268q26 100 87 172q129 156 392 156q223 1 345 -99t132 -290l-203 -17q-29 227 -268 227q-158 0 -225 -98t-66 -334v-278q1 -236 67 -334t224 -98q251 0 282 227l205 -23
q-10 -188 -136 -285t-357 -97z" />
    <glyph glyph-name="cacute" unicode="&#x107;" horiz-adv-x="976" 
d="M440 1190l160 301h244l-246 -301h-158zM559 -20q-426 0 -426 493v76q1 262 103 387t317 125q256 0 362 -184l-155 -89q-43 59 -85 82t-108 23q-115 0 -170 -80t-55 -248v-112q0 -305 229 -306q133 1 209 103l156 -90q-121 -180 -377 -180z" />
    <glyph glyph-name="Ccircumflex" unicode="&#x108;" horiz-adv-x="1286" 
d="M666 1776l-129 -164h-209l266 291h143l269 -291h-209zM666 -20q-283 0 -414 182q-90 129 -90 416v305q0 168 25 268q26 100 87 172q129 156 392 156q223 1 345 -99t132 -290l-203 -17q-29 227 -268 227q-158 0 -225 -98t-66 -334v-278q1 -236 67 -334t224 -98
q251 0 282 227l205 -23q-10 -188 -136 -285t-357 -97z" />
    <glyph glyph-name="ccircumflex" unicode="&#x109;" horiz-adv-x="976" 
d="M549 1358l-129 -162h-209l266 289h144l268 -289h-209zM559 -20q-426 0 -426 493v76q1 262 103 387t317 125q256 0 362 -184l-155 -89q-43 59 -85 82t-108 23q-115 0 -170 -80t-55 -248v-112q0 -305 229 -306q133 1 209 103l156 -90q-121 -180 -377 -180z" />
    <glyph glyph-name="Cdotaccent" unicode="&#x10a;" horiz-adv-x="1286" 
d="M567 1618v233h203v-233h-203zM666 -20q-283 0 -414 182q-90 129 -90 416v305q0 168 25 268q26 100 87 172q129 156 392 156q223 1 345 -99t132 -290l-203 -17q-29 227 -268 227q-158 0 -225 -98t-66 -334v-278q1 -236 67 -334t224 -98q251 0 282 227l205 -23
q-10 -188 -136 -285t-357 -97z" />
    <glyph glyph-name="cdotaccent" unicode="&#x10b;" horiz-adv-x="976" 
d="M449 1202v234h202v-234h-202zM559 -20q-426 0 -426 493v76q1 262 103 387t317 125q256 0 362 -184l-155 -89q-43 59 -85 82t-108 23q-115 0 -170 -80t-55 -248v-112q0 -305 229 -306q133 1 209 103l156 -90q-121 -180 -377 -180z" />
    <glyph glyph-name="Ccaron" unicode="&#x10c;" horiz-adv-x="1286" 
d="M664 1737l131 161h209l-267 -288h-143l-268 288h209zM666 -20q-283 0 -414 182q-90 129 -90 416v305q0 168 25 268q26 100 87 172q129 156 392 156q223 1 345 -99t132 -290l-203 -17q-29 227 -268 227q-158 0 -225 -98t-66 -334v-278q1 -236 67 -334t224 -98
q251 0 282 227l205 -23q-10 -188 -136 -285t-357 -97z" />
    <glyph glyph-name="ccaron" unicode="&#x10d;" horiz-adv-x="976" 
d="M559 1319l131 162h209l-266 -289h-144l-268 289h209zM559 -20q-426 0 -426 493v76q1 262 103 387t317 125q256 0 362 -184l-155 -89q-43 59 -85 82t-108 23q-115 0 -170 -80t-55 -248v-112q0 -305 229 -306q133 1 209 103l156 -90q-121 -180 -377 -180z" />
    <glyph glyph-name="Dcaron" unicode="&#x10e;" horiz-adv-x="1382" 
d="M635 1737l131 161h209l-266 -288h-144l-268 288h209zM416 176h223q195 -4 277 89t85 315v303q-2 221 -86 314t-276 89h-223v-1110zM197 0v1462h481q559 8 543 -561v-340q16 -569 -543 -561h-481z" />
    <glyph glyph-name="dcaron" unicode="&#x10f;" horiz-adv-x="1349" 
d="M1139 975l59 512h205l-117 -512h-147zM340 584v-127q0 -158 54 -234t167 -76q223 0 223 279v188q0 279 -223 279q-113 1 -167 -75t-54 -234zM133 442v156q0 242 93 352t296 111q119 0 205 -43l6 -6q19 -9 51 -37v487h209v-1462h-162l-14 80q-6 -4 -17 -15t-22 -20
q-70 -65 -264 -65t-287 110q-94 110 -94 352z" />
    <glyph glyph-name="Dcroat" unicode="&#x110;" horiz-adv-x="1382" 
d="M416 827h307v-176h-307v-475h223q193 -4 275 89t85 317v301q-2 221 -85 314t-275 89h-223v-459zM197 827v635h481q276 4 412 -137t129 -424v-340q16 -567 -541 -561h-481v651h-164v176h164z" />
    <glyph glyph-name="dcroat" unicode="&#x111;" horiz-adv-x="1159" 
d="M340 584v-127q0 -309 219 -310q225 0 225 279v188q0 279 -225 279q-219 0 -219 -309zM784 1165h-301v138h301v159h209v-159h164v-138h-164v-1165h-162l-14 80q-6 -4 -17 -15t-22 -20q-70 -65 -264 -65t-287 110q-94 110 -94 352v156q0 242 93 352t294 111q121 0 207 -43
q4 -2 57 -43v190z" />
    <glyph glyph-name="Emacron" unicode="&#x112;" horiz-adv-x="1187" 
d="M344 1671v150h574v-150h-574zM199 0v1462h876v-180h-659v-453h561v-180h-561v-469h665v-180h-882z" />
    <glyph glyph-name="emacron" unicode="&#x113;" horiz-adv-x="1118" 
d="M287 1253v150h573v-150h-573zM803 641q0 259 -242 259q-125 0 -178 -93q-41 -68 -41 -168v-18h461v20zM342 434q0 -289 268 -289q136 0 215 105l156 -92q-63 -94 -157 -136t-244 -42q-231 0 -339 118t-108 375v80q1 268 103 388t331 120t331 -120t103 -388v-82h-659v-37z
" />
    <glyph glyph-name="Ebreve" unicode="&#x114;" horiz-adv-x="1187" 
d="M639 1747q88 0 127 33t49 114h135q-8 -131 -39 -186q-69 -115 -281 -115t-274 136q-22 46 -28 165h135q10 -82 49 -114t127 -33zM199 0v1462h876v-180h-659v-453h561v-180h-561v-469h665v-180h-882z" />
    <glyph glyph-name="ebreve" unicode="&#x115;" horiz-adv-x="1118" 
d="M565 1329q88 0 127 33t49 117h136q-8 -131 -39 -187q-68 -116 -281 -116t-274 135q-23 47 -29 168h135q10 -84 49 -117t127 -33zM803 641q0 259 -242 259q-125 0 -178 -93q-41 -68 -41 -168v-18h461v20zM342 434q0 -289 268 -289q136 0 215 105l156 -92
q-63 -94 -157 -136t-244 -42q-231 0 -339 118t-108 375v80q1 268 103 388t331 120t331 -120t103 -388v-82h-659v-37z" />
    <glyph glyph-name="Edotaccent" unicode="&#x116;" horiz-adv-x="1187" 
d="M545 1618v233h203v-233h-203zM199 0v1462h876v-180h-659v-453h561v-180h-561v-469h665v-180h-882z" />
    <glyph glyph-name="edotaccent" unicode="&#x117;" horiz-adv-x="1118" 
d="M473 1202v234h203v-234h-203zM803 641q0 259 -242 259q-125 0 -178 -93q-41 -68 -41 -168v-18h461v20zM342 434q0 -289 268 -289q136 0 215 105l156 -92q-63 -94 -157 -136t-244 -42q-231 0 -339 118t-108 375v80q1 268 103 388t331 120t331 -120t103 -388v-82h-659v-37z
" />
    <glyph glyph-name="Eogonek" unicode="&#x118;" horiz-adv-x="1187" 
d="M199 0v1462h876v-180h-659v-453h561v-180h-561v-469h665v-180q-193 -111 -192 -215q0 -80 98 -80q57 0 125 21l21 -111q-92 -33 -183 -33q-248 0 -248 170q0 145 207 248h-710z" />
    <glyph glyph-name="eogonek" unicode="&#x119;" horiz-adv-x="1118" 
d="M805 641q0 256 -242 256q-125 0 -178 -90q-41 -68 -41 -168v-18h461v20zM344 434q0 -289 270 -289q138 0 213 105l156 -90q-63 -102 -174 -146q-4 -4 -12 -8t-11 -6q-166 -104 -165 -215q0 -82 100 -82q53 0 121 23l22 -111q-90 -33 -182 -33q-248 0 -248 172
q0 125 144 226q-227 -2 -336 120t-107 373v80q1 266 105 387t331 121t329 -121t104 -387v-82h-660v-37z" />
    <glyph glyph-name="Ecaron" unicode="&#x11a;" horiz-adv-x="1187" 
d="M647 1737l131 161h209l-266 -288h-143l-269 288h209zM199 0v1462h876v-180h-659v-453h561v-180h-561v-469h665v-180h-882z" />
    <glyph glyph-name="ecaron" unicode="&#x11b;" horiz-adv-x="1118" 
d="M575 1319l132 162h208l-266 -289h-143l-268 289h208zM803 641q0 259 -242 259q-125 0 -178 -93q-41 -68 -41 -168v-18h461v20zM342 434q0 -289 268 -289q136 0 215 105l156 -92q-63 -94 -157 -136t-244 -42q-231 0 -339 118t-108 375v80q1 268 103 388t331 120t331 -120
t103 -388v-82h-659v-37z" />
    <glyph glyph-name="Gcircumflex" unicode="&#x11c;" horiz-adv-x="1353" 
d="M676 1776l-129 -164h-209l266 291h144l268 -291h-209zM721 614v170h491v-235q0 -152 -24 -243t-82 -163q-137 -163 -428 -163t-422 182q-51 70 -73 164t-21 252v305q0 170 25 269q26 99 89 171q135 156 383 156q488 0 508 -392l-202 -14q-31 227 -279 227
q-166 0 -236 -98t-69 -334v-278q0 -236 70 -334t237 -98q307 0 307 344v112h-274z" />
    <glyph glyph-name="gcircumflex" unicode="&#x11d;" horiz-adv-x="1159" 
d="M590 1358l-129 -162h-209l266 289h144l268 -289h-209zM340 584v-127q0 -158 54 -234t167 -76q223 0 223 279v188q0 279 -223 279q-113 1 -167 -75t-54 -234zM506 -20q-186 0 -280 112q-93 112 -93 350v156q0 242 93 352q92 110 288 111q196 0 299 -103l18 82h162v-1026
q0 -496 -454 -495q-264 0 -379 182l155 90q43 -59 91 -84t124 -24q129 0 190 73q60 74 64 236l2 74q-94 -86 -280 -86z" />
    <glyph glyph-name="Gbreve" unicode="&#x11e;" horiz-adv-x="1353" 
d="M680 1747q88 0 127 33t49 114h135q-8 -131 -39 -186q-68 -115 -280 -115t-275 136q-22 46 -28 165h135q10 -82 49 -114t127 -33zM721 614v170h491v-235q0 -152 -24 -243t-82 -163q-137 -163 -428 -163t-422 182q-51 70 -73 164t-21 252v305q0 170 25 269q26 99 89 171
q135 156 383 156q488 0 508 -392l-202 -14q-31 227 -279 227q-166 0 -236 -98t-69 -334v-278q0 -236 70 -334t237 -98q307 0 307 344v112h-274z" />
    <glyph glyph-name="gbreve" unicode="&#x11f;" horiz-adv-x="1159" 
d="M608 1329q88 0 127 33t49 117h136q-8 -131 -39 -187q-68 -116 -281 -116t-274 135q-23 47 -29 168h135q10 -84 49 -117t127 -33zM340 584v-127q0 -158 54 -234t167 -76q223 0 223 279v188q0 279 -223 279q-113 1 -167 -75t-54 -234zM506 -20q-186 0 -280 112
q-93 112 -93 350v156q0 242 93 352q92 110 288 111q196 0 299 -103l18 82h162v-1026q0 -496 -454 -495q-264 0 -379 182l155 90q43 -59 91 -84t124 -24q129 0 190 73q60 74 64 236l2 74q-94 -86 -280 -86z" />
    <glyph glyph-name="Gdotaccent" unicode="&#x120;" horiz-adv-x="1353" 
d="M578 1618v233h202v-233h-202zM721 614v170h491v-235q0 -152 -24 -243t-82 -163q-137 -163 -428 -163t-422 182q-51 70 -73 164t-21 252v305q0 170 25 269q26 99 89 171q135 156 383 156q488 0 508 -392l-202 -14q-31 227 -279 227q-166 0 -236 -98t-69 -334v-278
q0 -236 70 -334t237 -98q307 0 307 344v112h-274z" />
    <glyph glyph-name="gdotaccent" unicode="&#x121;" horiz-adv-x="1159" 
d="M512 1202v234h203v-234h-203zM340 584v-127q0 -158 54 -234t167 -76q223 0 223 279v188q0 279 -223 279q-113 1 -167 -75t-54 -234zM506 -20q-186 0 -280 112q-93 112 -93 350v156q0 242 93 352q92 110 288 111q196 0 299 -103l18 82h162v-1026q0 -496 -454 -495
q-264 0 -379 182l155 90q43 -59 91 -84t124 -24q129 0 190 73q60 74 64 236l2 74q-94 -86 -280 -86z" />
    <glyph glyph-name="Gcommaaccent" unicode="&#x122;" horiz-adv-x="1353" 
d="M504 -469l104 332h209l-170 -332h-143zM721 614v170h491v-235q0 -152 -24 -243t-82 -163q-137 -163 -428 -163t-422 182q-51 70 -73 164t-21 252v305q0 170 25 269q26 99 89 171q135 156 383 156q488 0 508 -392l-202 -14q-31 227 -279 227q-166 0 -236 -98t-69 -334
v-278q0 -236 70 -334t237 -98q307 0 307 344v112h-274z" />
    <glyph glyph-name="gcommaaccent" unicode="&#x123;" horiz-adv-x="1159" 
d="M465 1190l246 301h157l-159 -301h-244zM340 584v-127q0 -158 54 -234t167 -76q223 0 223 279v188q0 279 -223 279q-113 1 -167 -75t-54 -234zM506 -20q-186 0 -280 112q-93 112 -93 350v156q0 242 93 352q92 110 288 111q196 0 299 -103l18 82h162v-1026
q0 -496 -454 -495q-264 0 -379 182l155 90q43 -59 91 -84t124 -24q129 0 190 73q60 74 64 236l2 74q-94 -86 -280 -86z" />
    <glyph glyph-name="Hcircumflex" unicode="&#x124;" horiz-adv-x="1392" 
d="M696 1776l-129 -164h-209l267 291h143l268 -291h-209zM197 0v1462h219v-633h561v633h219v-1462h-219v649h-561v-649h-219z" />
    <glyph glyph-name="hcircumflex" unicode="&#x125;" horiz-adv-x="1163" 
d="M348 1776l-129 -164h-209l266 291h144l268 -291h-209zM168 0v1462h209v-489q59 51 112 69t146 19q264 0 340 -201q31 -90 31 -264v-596h-209v578q0 164 -48 236t-160 71q-112 0 -162 -80t-50 -260v-545h-209z" />
    <glyph glyph-name="Hbar" unicode="&#x126;" horiz-adv-x="1392" 
d="M416 829h559v187h-559v-187zM197 0v1016h-144v158h144v288h219v-288h559v288h219v-288h143v-158h-143v-1016h-219v649h-559v-649h-219z" />
    <glyph glyph-name="hbar" unicode="&#x127;" horiz-adv-x="1163" 
d="M168 1163h-164v142h164v157h209v-157h299v-142h-299v-190q59 51 113 69t143 19q268 0 342 -201q31 -90 31 -264v-596h-209v578q0 164 -48 236t-160 71q-112 0 -162 -80t-50 -260v-545h-209v1163z" />
    <glyph glyph-name="Itilde" unicode="&#x128;" horiz-adv-x="612" 
d="M180 1890q82 0 154 -63q49 -41 67 -52t43 -11t42 24q17 25 32 88h129q-23 -117 -45 -162q-49 -100 -164 -100q-86 0 -156 63t-104 64q-59 0 -86 -113h-129q29 121 51 160q57 102 166 102zM197 0v1462h219v-1462h-219z" />
    <glyph glyph-name="itilde" unicode="&#x129;" horiz-adv-x="540" 
d="M410 1346q25 0 42 24t31 88h129q-27 -125 -45 -162q-49 -100 -164 -100q-86 0 -161 70q-68 59 -99 59q-61 0 -86 -115h-129q29 123 52 162q57 102 165 103q83 1 143 -53t78 -65t44 -11zM166 0v1040h209v-1040h-209z" />
    <glyph glyph-name="Imacron" unicode="&#x12a;" horiz-adv-x="612" 
d="M20 1671v150h574v-150h-574zM197 0v1462h219v-1462h-219z" />
    <glyph glyph-name="imacron" unicode="&#x12b;" horiz-adv-x="540" 
d="M-16 1253v150h573v-150h-573zM166 0v1040h209v-1040h-209z" />
    <glyph glyph-name="Ibreve" unicode="&#x12c;" horiz-adv-x="612" 
d="M307 1747q88 0 127 33t49 114h135q-8 -131 -38 -186q-68 -115 -281 -115t-274 136q-23 46 -29 165h135q10 -82 49 -114t127 -33zM197 0v1462h219v-1462h-219z" />
    <glyph glyph-name="ibreve" unicode="&#x12d;" horiz-adv-x="540" 
d="M270 1329q88 0 127 33t49 117h136q-8 -131 -39 -187q-68 -116 -281 -116t-274 135q-23 47 -29 168h135q10 -84 49 -117t127 -33zM166 0v1040h209v-1040h-209z" />
    <glyph glyph-name="Iogonek" unicode="&#x12e;" horiz-adv-x="612" 
d="M250 -207q0 -88 94 -88q53 0 121 21l22 -111q-88 -33 -182 -33q-242 0 -242 176q0 143 189 242h-55v1462h219v-1462l-10 -8l-9 -4q-147 -96 -147 -195z" />
    <glyph glyph-name="iogonek" unicode="&#x12f;" horiz-adv-x="540" 
d="M166 1235v238h209v-238h-209zM211 -211q0 -84 94 -84q55 0 119 21l22 -111q-88 -33 -182 -33q-240 0 -239 174q0 141 180 244h-39v1040h209v-1040l-8 -6q-156 -113 -156 -205z" />
    <glyph glyph-name="Idotaccent" unicode="&#x130;" horiz-adv-x="612" 
d="M203 1618v233h203v-233h-203zM197 0v1462h219v-1462h-219z" />
    <glyph glyph-name="dotlessi" unicode="&#x131;" horiz-adv-x="540" 
d="M166 0v1040h209v-1040h-209z" />
    <glyph glyph-name="IJ" unicode="&#x132;" horiz-adv-x="1224" 
d="M811 1462h219v-1368q0 -186 -10 -270t-43 -141q-96 -182 -356 -183q-104 0 -215 39l73 166q59 -25 115 -24q152 0 197 141q20 63 20 268v1372zM197 0v1462h219v-1462h-219z" />
    <glyph glyph-name="ij" unicode="&#x133;" horiz-adv-x="1095" 
d="M717 1235v238h209v-238h-209zM717 1040h209v-1040q4 -276 -91 -374t-364 -97v172q137 -6 194 57q56 63 52 222v1060zM166 0v1040h209v-1040h-209zM166 1235v238h209v-238h-209z" />
    <glyph glyph-name="Jcircumflex" unicode="&#x134;" horiz-adv-x="970" 
d="M639 1776l-129 -164h-209l266 291h144l268 -291h-209zM565 1462h219v-889q0 -186 -10 -270t-43 -141q-96 -182 -360 -182q-223 0 -398 159l121 146q121 -127 262 -127t189 141q20 63 20 270v893z" />
    <glyph glyph-name="jcircumflex" unicode="&#x135;" horiz-adv-x="555" 
d="M266 1358l-129 -162h-209l267 289h143l268 -289h-209zM166 1040h209v-1040q4 -276 -91 -374t-364 -97v172q137 -6 194 57q56 63 52 222v1060z" />
    <glyph glyph-name="Kcommaaccent" unicode="&#x136;" horiz-adv-x="1263" 
d="M489 -469l105 332h209l-170 -332h-144zM199 0v1462h217v-731l561 731h256l-477 -594l518 -868h-254l-406 719l-198 -252v-467h-217z" />
    <glyph glyph-name="kcommaaccent" unicode="&#x137;" horiz-adv-x="1064" 
d="M383 -469l104 332h209l-170 -332h-143zM166 0v1462h209v-960l416 538h237l-354 -440l383 -600h-228l-282 449l-172 -220v-229h-209z" />
    <glyph glyph-name="kgreenlandic" unicode="&#x138;" horiz-adv-x="1064" 
d="M166 0v1040h209v-540l416 540h237l-354 -442l383 -598h-228l-282 446l-172 -217v-229h-209z" />
    <glyph glyph-name="Lacute" unicode="&#x139;" horiz-adv-x="1101" 
d="M246 1606l160 303h243l-246 -303h-157zM197 0v1462h219v-1282h663v-180h-882z" />
    <glyph glyph-name="lacute" unicode="&#x13a;" horiz-adv-x="612" 
d="M186 1606l160 301h244l-246 -301h-158zM164 1462h209v-1093q0 -115 38 -157t140 -42h45v-170h-53q-227 0 -303 78t-76 311v1073z" />
    <glyph glyph-name="Lcommaaccent" unicode="&#x13b;" horiz-adv-x="1101" 
d="M434 -469l105 332h209l-170 -332h-144zM197 0v1462h219v-1282h663v-180h-882z" />
    <glyph glyph-name="lcommaaccent" unicode="&#x13c;" horiz-adv-x="612" 
d="M152 -469l104 332h209l-170 -332h-143zM158 1462h209v-1093q-1 -115 37 -157t139 -42h45v-170h-53q-225 0 -302 78q-76 78 -75 311v1073z" />
    <glyph glyph-name="Lcaron" unicode="&#x13d;" horiz-adv-x="1101" 
d="M600 975l59 512h205l-116 -512h-148zM197 0v1462h219v-1282h663v-180h-882z" />
    <glyph glyph-name="lcaron" unicode="&#x13e;" horiz-adv-x="753" 
d="M528 975l60 512h205l-117 -512h-148zM164 1462h209v-1093q0 -115 38 -157t140 -42h45v-170h-53q-227 0 -303 78t-76 311v1073z" />
    <glyph glyph-name="Ldot" unicode="&#x13f;" horiz-adv-x="1101" 
d="M745 621v229h189v-229h-189zM197 0v1462h219v-1282h663v-180h-882z" />
    <glyph glyph-name="ldot" unicode="&#x140;" horiz-adv-x="710" 
d="M530 621v229h189v-229h-189zM164 1462h209v-1093q0 -115 38 -157t140 -42h45v-170h-53q-227 0 -303 78t-76 311v1073z" />
    <glyph glyph-name="Lslash" unicode="&#x141;" horiz-adv-x="1101" 
d="M197 0v420l-150 -96v194l150 96v848h219v-723l399 258v-194l-399 -258v-365h665v-180h-884z" />
    <glyph glyph-name="lslash" unicode="&#x142;" horiz-adv-x="649" 
d="M180 1462h209v-592l236 152v-199l-236 -151v-303q0 -115 37 -157t139 -42h45v-170h-53q-211 -2 -292 69t-83 257v225l-188 -121v199l186 121v712z" />
    <glyph glyph-name="Nacute" unicode="&#x143;" horiz-adv-x="1470" 
d="M649 1606l160 303h244l-246 -303h-158zM197 0v1462h213l651 -1093v1093h213v-1462h-213l-651 1094v-1094h-213z" />
    <glyph glyph-name="nacute" unicode="&#x144;" horiz-adv-x="1163" 
d="M477 1190l160 301h244l-246 -301h-158zM166 0v1040h160l16 -104q92 125 285 125q274 0 348 -201q31 -90 31 -264v-596h-209v573q0 166 -47 238t-162 72t-164 -80t-49 -271v-532h-209z" />
    <glyph glyph-name="Ncommaaccent" unicode="&#x145;" horiz-adv-x="1470" 
d="M573 -469l105 332h209l-170 -332h-144zM197 0v1462h213l651 -1093v1093h213v-1462h-213l-651 1094v-1094h-213z" />
    <glyph glyph-name="ncommaaccent" unicode="&#x146;" horiz-adv-x="1163" 
d="M408 -469l104 332h209l-170 -332h-143zM166 0v1040h160l16 -104q92 125 285 125q274 0 348 -201q31 -90 31 -264v-596h-209v573q0 166 -47 238t-162 72t-164 -80t-49 -271v-532h-209z" />
    <glyph glyph-name="Ncaron" unicode="&#x147;" horiz-adv-x="1470" 
d="M758 1737l131 161h209l-267 -288h-143l-268 288h209zM197 0v1462h213l651 -1093v1093h213v-1462h-213l-651 1094v-1094h-213z" />
    <glyph glyph-name="ncaron" unicode="&#x148;" horiz-adv-x="1163" 
d="M569 1319l131 162h209l-266 -289h-143l-269 289h209zM166 0v1040h160l16 -104q92 125 285 125q274 0 348 -201q31 -90 31 -264v-596h-209v573q0 166 -47 238t-162 72t-164 -80t-49 -271v-532h-209z" />
    <glyph glyph-name="napostrophe" unicode="&#x149;" horiz-adv-x="1292" 
d="M8 954l72 508h225l-117 -508h-180zM295 0v1040h160l16 -104q90 125 285 125q272 0 346 -201q31 -90 31 -264v-596h-209v573q0 166 -47 238t-161 72t-163 -80t-49 -271v-532h-209z" />
    <glyph glyph-name="Eng" unicode="&#x14a;" horiz-adv-x="1470" 
d="M197 0v1462h213l651 -1087v1087h213v-1464q6 -272 -89 -372t-362 -97v168q135 -6 193 56q57 62 55 214v51l-661 1076v-1094h-213z" />
    <glyph glyph-name="eng" unicode="&#x14b;" horiz-adv-x="1163" 
d="M166 0v1040h160l16 -104q92 125 287 125q272 0 346 -201q31 -90 31 -264v-596q4 -276 -92 -374t-365 -97v172q139 -5 195 59t53 220v593q0 166 -47 238t-162 72t-164 -80t-49 -271v-532h-209z" />
    <glyph glyph-name="Omacron" unicode="&#x14c;" horiz-adv-x="1378" 
d="M403 1671v150h574v-150h-574zM997 573v316q0 219 -72 317q-73 98 -236 98t-235 -98t-73 -317v-316q0 -219 73 -317q74 -98 236 -98t235 98q72 98 72 317zM162 553v356q0 158 27 254q28 96 94 168q137 152 417 152t416 -176q100 -129 101 -398v-356q0 -158 -28 -255
t-93 -167q-137 -151 -418 -151t-416 176q-100 129 -100 397z" />
    <glyph glyph-name="omacron" unicode="&#x14d;" horiz-adv-x="1142" 
d="M287 1253v150h573v-150h-573zM803 455v131q0 160 -55 234q-56 74 -176 73q-120 0 -175 -74t-55 -233v-131q0 -160 55 -234t175 -74t176 74q55 74 55 234zM133 440v160q-1 240 105 350t334 111q228 0 334 -111t106 -350v-160q0 -240 -106 -350t-334 -110t-334 110
t-105 350z" />
    <glyph glyph-name="Obreve" unicode="&#x14e;" horiz-adv-x="1378" 
d="M690 1747q88 0 127 33t49 114h135q-8 -131 -38 -186q-68 -115 -281 -115t-274 136q-23 46 -29 165h135q10 -82 49 -114t127 -33zM997 573v316q0 219 -72 317q-73 98 -236 98t-235 -98t-73 -317v-316q0 -219 73 -317q74 -98 236 -98t235 98q72 98 72 317zM162 553v356
q0 158 27 254q28 96 94 168q137 152 417 152t416 -176q100 -129 101 -398v-356q0 -158 -28 -255t-93 -167q-137 -151 -418 -151t-416 176q-100 129 -100 397z" />
    <glyph glyph-name="obreve" unicode="&#x14f;" horiz-adv-x="1142" 
d="M573 1329q88 0 127 33t50 117h135q-8 -131 -39 -187q-68 -116 -281 -116t-274 135q-23 47 -29 168h135q10 -84 49 -117t127 -33zM803 455v131q0 160 -55 234q-56 74 -176 73q-120 0 -175 -74t-55 -233v-131q0 -160 55 -234t175 -74t176 74q55 74 55 234zM133 440v160
q-1 240 105 350t334 111q228 0 334 -111t106 -350v-160q0 -240 -106 -350t-334 -110t-334 110t-105 350z" />
    <glyph glyph-name="Ohungarumlaut" unicode="&#x150;" horiz-adv-x="1378" 
d="M750 1606l127 303h227l-207 -303h-147zM444 1606l127 303h228l-207 -303h-148zM997 573v316q0 219 -72 317q-73 98 -236 98t-235 -98t-73 -317v-316q0 -219 73 -317q74 -98 236 -98t235 98q72 98 72 317zM162 553v356q0 158 27 254q28 96 94 168q137 152 417 152
t416 -176q100 -129 101 -398v-356q0 -158 -28 -255t-93 -167q-137 -151 -418 -151t-416 176q-100 129 -100 397z" />
    <glyph glyph-name="ohungarumlaut" unicode="&#x151;" horiz-adv-x="1142" 
d="M633 1190l127 301h227l-207 -301h-147zM328 1190l127 301h227l-207 -301h-147zM803 455v131q0 160 -55 234q-56 74 -176 73q-120 0 -175 -74t-55 -233v-131q0 -160 55 -234t175 -74t176 74q55 74 55 234zM133 440v160q-1 240 105 350t334 111q228 0 334 -111t106 -350
v-160q0 -240 -106 -350t-334 -110t-334 110t-105 350z" />
    <glyph glyph-name="OE" unicode="&#x152;" horiz-adv-x="1990" 
d="M381 891v-322q0 -217 74 -313q75 -96 235 -96t236 99t75 310v322q0 211 -75 311q-76 100 -237 100t-235 -96q-74 -98 -73 -315zM1036 0v121q-76 -82 -152 -112t-214 -29q-281 0 -412 176q-96 131 -96 393v360q0 289 117 422q131 152 391 152q135 0 216 -29t150 -104v112
h842v-180h-659v-453h559v-180h-559v-469h663v-180h-846z" />
    <glyph glyph-name="oe" unicode="&#x153;" horiz-adv-x="1789" 
d="M1477 641q0 256 -243 256q-124 0 -172 -81t-48 -177v-18h463v20zM805 455v129q0 158 -56 234q-55 76 -175 75q-120 0 -176 -76t-56 -233v-129q0 -307 231 -308q232 1 232 308zM1014 434q0 -289 270 -289q138 0 213 105l156 -90q-121 -180 -393 -180q-133 0 -211 34
t-140 115q-43 -63 -82 -90q-86 -59 -262 -59q-223 0 -327 111t-105 349v156q1 240 105 352t325 113q131 0 209 -34t137 -116q89 150 325 150t338 -121t101 -387v-82h-659v-37z" />
    <glyph glyph-name="Racute" unicode="&#x154;" horiz-adv-x="1318" 
d="M539 1606l159 303h244l-246 -303h-157zM414 788h297q131 0 192 60t61 190q0 128 -62 188q-64 60 -204 60h-284v-498zM418 614v-614h-219v1462h520q252 0 357 -105q106 -105 106 -297t-69 -292q-69 -98 -220 -133l319 -635h-241l-293 614h-260z" />
    <glyph glyph-name="racute" unicode="&#x155;" horiz-adv-x="784" 
d="M328 1190l159 301h244l-246 -301h-157zM166 0v1040h162l22 -88q50 59 102 84t144 25t199 -60l-90 -174q-74 53 -142 54q-100 0 -144 -88t-44 -287v-506h-209z" />
    <glyph glyph-name="Rcommaaccent" unicode="&#x156;" horiz-adv-x="1318" 
d="M492 -469l104 332h209l-170 -332h-143zM414 788h297q131 0 192 60t61 190q0 128 -62 188q-64 60 -204 60h-284v-498zM418 614v-614h-219v1462h520q252 0 357 -105q106 -105 106 -297t-69 -292q-69 -98 -220 -133l319 -635h-241l-293 614h-260z" />
    <glyph glyph-name="rcommaaccent" unicode="&#x157;" horiz-adv-x="784" 
d="M61 -469l105 332h209l-170 -332h-144zM166 0v1040h162l22 -88q50 59 102 84t144 25t199 -60l-88 -174q-76 53 -144 54q-100 0 -144 -89t-44 -286v-506h-209z" />
    <glyph glyph-name="Rcaron" unicode="&#x158;" horiz-adv-x="1318" 
d="M637 1737l131 161h209l-266 -288h-144l-268 288h209zM414 788h297q131 0 192 60t61 190q0 128 -62 188q-64 60 -204 60h-284v-498zM418 614v-614h-219v1462h520q252 0 357 -105q106 -105 106 -297t-69 -292q-69 -98 -220 -133l319 -635h-241l-293 614h-260z" />
    <glyph glyph-name="rcaron" unicode="&#x159;" horiz-adv-x="784" 
d="M449 1319l131 162h208l-266 -289h-143l-268 289h208zM166 0v1040h162l22 -88q50 59 102 84t144 25t199 -60l-88 -174q-76 53 -144 54q-100 0 -144 -89t-44 -286v-506h-209z" />
    <glyph glyph-name="Sacute" unicode="&#x15a;" horiz-adv-x="1181" 
d="M477 1606l160 303h244l-246 -303h-158zM887 394q0 114 -80 169q-37 27 -70 37t-225 58t-288 146t-97 280q0 184 123 292t342 107q319 0 444 -203l-164 -106q-92 131 -286 131q-117 -1 -183 -59q-65 -58 -65 -160t69 -160t230 -98t213 -59t108 -56q140 -95 140 -307
t-131 -320t-383 -106q-373 0 -514 229l168 106q96 -156 348 -155q145 0 223 60t78 174z" />
    <glyph glyph-name="sacute" unicode="&#x15b;" horiz-adv-x="985" 
d="M371 1190l159 301h244l-246 -301h-157zM461 145q236 0 235 154q0 82 -63 111q-41 18 -205 40t-243 86q-79 66 -79 214t94 229q94 82 267 82q272 0 391 -182l-153 -91q-47 59 -97 83t-125 24q-178 0 -178 -143q0 -70 51 -98t154 -40q211 -24 298 -86t87 -233
q0 -315 -426 -315q-309 0 -418 178l152 94q53 -61 106 -84t152 -23z" />
    <glyph glyph-name="Scircumflex" unicode="&#x15c;" horiz-adv-x="1181" 
d="M598 1776l-129 -164h-209l266 291h144l268 -291h-209zM887 394q0 114 -80 169q-37 27 -70 37t-225 58t-288 146t-97 280q0 184 123 292t342 107q319 0 444 -203l-164 -106q-92 131 -286 131q-117 -1 -183 -59q-65 -58 -65 -160t69 -160t230 -98t213 -59t108 -56
q140 -95 140 -307t-131 -320t-383 -106q-373 0 -514 229l168 106q96 -156 348 -155q145 0 223 60t78 174z" />
    <glyph glyph-name="scircumflex" unicode="&#x15d;" horiz-adv-x="985" 
d="M485 1358l-129 -162h-209l267 289h143l268 -289h-209zM461 145q236 0 235 154q0 82 -63 111q-41 18 -205 40t-243 86q-79 66 -79 214t94 229q94 82 267 82q272 0 391 -182l-153 -91q-47 59 -97 83t-125 24q-178 0 -178 -143q0 -70 51 -98t154 -40q211 -24 298 -86
t87 -233q0 -315 -426 -315q-309 0 -418 178l152 94q53 -61 106 -84t152 -23z" />
    <glyph glyph-name="Scedilla" unicode="&#x15e;" horiz-adv-x="1181" 
d="M397 -469l105 332h209l-170 -332h-144zM887 394q0 114 -80 169q-37 27 -70 37t-225 58t-288 146t-97 280q0 184 123 292t342 107q319 0 444 -203l-164 -106q-92 131 -286 131q-117 -1 -183 -59q-65 -58 -65 -160t69 -160t230 -98t213 -59t108 -56q140 -95 140 -307
t-131 -320t-383 -106q-373 0 -514 229l168 106q96 -156 348 -155q145 0 223 60t78 174z" />
    <glyph glyph-name="scedilla" unicode="&#x15f;" horiz-adv-x="985" 
d="M299 -469l104 332h209l-170 -332h-143zM461 145q236 0 235 154q0 82 -63 111q-41 18 -205 40t-243 86q-79 66 -79 214t94 229q94 82 267 82q272 0 391 -182l-153 -91q-47 59 -97 83t-125 24q-178 0 -178 -143q0 -70 51 -98t154 -40q211 -24 298 -86t87 -233
q0 -315 -426 -315q-309 0 -418 178l152 94q53 -61 106 -84t152 -23z" />
    <glyph glyph-name="Scaron" unicode="&#x160;" horiz-adv-x="1181" 
d="M604 1737l131 161h209l-266 -288h-143l-269 288h209zM887 394q0 114 -80 169q-37 27 -70 37t-225 58t-288 146t-97 280q0 184 123 292t342 107q319 0 444 -203l-164 -106q-92 131 -286 131q-117 -1 -183 -59q-65 -58 -65 -160t69 -160t230 -98t213 -59t108 -56
q140 -95 140 -307t-131 -320t-383 -106q-373 0 -514 229l168 106q96 -156 348 -155q145 0 223 60t78 174z" />
    <glyph glyph-name="scaron" unicode="&#x161;" horiz-adv-x="985" 
d="M487 1319l131 162h209l-266 -289h-143l-268 289h208zM461 145q236 0 235 154q0 82 -63 111q-41 18 -205 40t-243 86q-79 66 -79 214t94 229q94 82 267 82q272 0 391 -182l-153 -91q-47 59 -97 83t-125 24q-178 0 -178 -143q0 -70 51 -98t154 -40q211 -24 298 -86t87 -233
q0 -315 -426 -315q-309 0 -418 178l152 94q53 -61 106 -84t152 -23z" />
    <glyph glyph-name="Tcommaaccent" unicode="&#x162;" horiz-adv-x="1136" 
d="M371 -469l104 332h209l-170 -332h-143zM459 0v1282h-410v180h1038v-180h-409v-1282h-219z" />
    <glyph glyph-name="tcommaaccent" unicode="&#x163;" horiz-adv-x="696" 
d="M199 -469l104 332h209l-170 -332h-143zM197 872h-121v168h121l10 318h199v-318h204v-168h-204v-503q0 -115 38 -157t138 -40h32v-172h-36q-233 0 -308 76q-74 76 -73 313v483z" />
    <glyph glyph-name="Tcaron" unicode="&#x164;" horiz-adv-x="1136" 
d="M567 1737l131 161h209l-266 -288h-143l-269 288h209zM459 0v1282h-410v180h1038v-180h-409v-1282h-219z" />
    <glyph glyph-name="tcaron" unicode="&#x165;" horiz-adv-x="823" 
d="M616 1141l54 446h207l-113 -446h-148zM197 872h-121v168h121l10 318h199v-318h204v-168h-204v-503q0 -115 38 -157t138 -40h32v-172h-36q-233 0 -308 76q-74 76 -73 313v483z" />
    <glyph glyph-name="Tbar" unicode="&#x166;" horiz-adv-x="1136" 
d="M459 0v651h-273v176h273v455h-410v180h1038v-180h-409v-455h270v-176h-270v-651h-219z" />
    <glyph glyph-name="tbar" unicode="&#x167;" horiz-adv-x="702" 
d="M205 872h-123v168h123l10 318h199v-318h204v-168h-204v-159h204v-142h-204v-221q0 -102 38 -141t138 -37h31v-172h-35q-223 -2 -301 69t-80 277v225h-123v142h123v159z" />
    <glyph glyph-name="Utilde" unicode="&#x168;" horiz-adv-x="1406" 
d="M578 1890q82 0 153 -63q49 -41 67 -52t44 -11q25 0 42 24q17 25 31 88h129q-23 -117 -45 -162q-49 -100 -163 -100q-86 0 -156 63t-105 64q-59 0 -86 -113h-129q29 121 52 160q57 102 166 102zM190 1462h220v-921q0 -184 45 -265q72 -118 256 -118t252 137q35 76 34 246
v921h220v-921q1 -160 -19 -244t-72 -147q-132 -170 -434 -170t-432 194q-39 61 -54 140t-16 227v921z" />
    <glyph glyph-name="utilde" unicode="&#x169;" horiz-adv-x="1140" 
d="M711 1346q25 0 42 24t31 88h129q-27 -125 -45 -162q-49 -100 -163 -100q-86 0 -158 64t-103 65q-61 0 -86 -115h-129q29 123 52 162q57 102 165 103q82 1 142 -53t80 -65q18 -11 43 -11zM158 1040h209v-575q0 -164 45 -236q44 -71 152 -71t155 80t47 270v532h209v-1040
h-152l-22 106q-80 -127 -275 -126q-266 0 -338 200q-31 86 -30 264v596z" />
    <glyph glyph-name="Umacron" unicode="&#x16a;" horiz-adv-x="1406" 
d="M418 1671v150h573v-150h-573zM190 1462h220v-921q0 -184 45 -265q72 -118 256 -118t252 137q35 76 34 246v921h220v-921q1 -160 -19 -244t-72 -147q-132 -170 -434 -170t-432 194q-39 61 -54 140t-16 227v921z" />
    <glyph glyph-name="umacron" unicode="&#x16b;" horiz-adv-x="1140" 
d="M285 1253v150h573v-150h-573zM158 1040h209v-575q0 -164 45 -236q44 -71 152 -71t155 80t47 270v532h209v-1040h-152l-22 106q-80 -127 -275 -126q-266 0 -338 200q-31 86 -30 264v596z" />
    <glyph glyph-name="Ubreve" unicode="&#x16c;" horiz-adv-x="1406" 
d="M705 1747q89 0 127 33t49 114h135q-8 -131 -39 -186q-69 -115 -281 -115t-274 136q-23 46 -29 165h135q10 -82 50 -114t127 -33zM190 1462h220v-921q0 -184 45 -265q72 -118 256 -118t252 137q35 76 34 246v921h220v-921q1 -160 -19 -244t-72 -147q-132 -170 -434 -170
t-432 194q-39 61 -54 140t-16 227v921z" />
    <glyph glyph-name="ubreve" unicode="&#x16d;" horiz-adv-x="1140" 
d="M571 1329q88 0 127 33t50 117h135q-8 -131 -39 -187q-68 -116 -281 -116t-274 135q-23 47 -29 168h135q10 -84 49 -117t127 -33zM158 1040h209v-575q0 -164 45 -236q44 -71 152 -71t155 80t47 270v532h209v-1040h-152l-22 106q-80 -127 -275 -126q-266 0 -338 200
q-31 86 -30 264v596z" />
    <glyph glyph-name="Uring" unicode="&#x16e;" horiz-adv-x="1406" 
d="M803 1806q0 116 -99 117q-100 0 -100 -117t101 -116q98 0 98 116zM469 1809q1 99 65 157t170 59q106 0 170 -59q64 -60 64 -158t-65 -159t-169 -61t-170 60q-65 62 -65 161zM190 1462h220v-921q0 -184 45 -265q72 -118 256 -118t252 137q35 76 34 246v921h220v-921
q1 -160 -19 -244t-72 -147q-132 -170 -434 -170t-432 194q-39 61 -54 140t-16 227v921z" />
    <glyph glyph-name="uring" unicode="&#x16f;" horiz-adv-x="1140" 
d="M570 1507q-99 -1 -99 -117t99 -116t99 116t-99 117zM570 1610q106 0 170 -60t64 -158q0 -96 -64 -158q-65 -62 -170 -62t-170 60q-64 62 -64 162t64 158t170 58zM158 1040h209v-575q0 -164 45 -236q44 -71 152 -71t155 80t47 270v532h209v-1040h-152l-22 106
q-80 -127 -275 -126q-266 0 -338 200q-31 86 -30 264v596z" />
    <glyph glyph-name="Uhungarumlaut" unicode="&#x170;" horiz-adv-x="1406" 
d="M768 1606l127 303h227l-207 -303h-147zM463 1606l127 303h227l-207 -303h-147zM190 1462h220v-921q0 -184 45 -265q72 -118 256 -118t252 137q35 76 34 246v921h220v-921q1 -160 -19 -244t-72 -147q-132 -170 -434 -170t-432 194q-39 61 -54 140t-16 227v921z" />
    <glyph glyph-name="uhungarumlaut" unicode="&#x171;" horiz-adv-x="1140" 
d="M631 1190l127 301h227l-207 -301h-147zM326 1190l127 301h227l-207 -301h-147zM158 1040h209v-575q0 -164 45 -236q44 -71 152 -71t155 80t47 270v532h209v-1040h-152l-22 106q-80 -127 -275 -126q-266 0 -338 200q-31 86 -30 264v596z" />
    <glyph glyph-name="Uogonek" unicode="&#x172;" horiz-adv-x="1406" 
d="M193 1462h219v-921q0 -184 45 -262q72 -119 255 -119t253 137q35 72 34 244v921h220v-921q6 -223 -62 -349t-227 -184q-88 -63 -126 -114t-38 -107q0 -82 98 -82q53 0 121 21l23 -111q-88 -33 -181 -33q-248 0 -247 174q0 125 133 226q-258 -2 -387 120q-78 78 -107 169
t-26 270v921z" />
    <glyph glyph-name="uogonek" unicode="&#x173;" horiz-adv-x="1140" 
d="M975 1040v-1040q-103 -66 -147 -115t-44 -100q0 -80 99 -80q55 0 123 21l20 -111q-88 -33 -182 -33q-246 0 -246 170q0 76 58 144t165 112l-20 98q-80 -127 -275 -126q-266 0 -338 200q-31 86 -30 264v596h209v-575q0 -164 45 -236q44 -71 152 -71t155 80t47 270v532h209
z" />
    <glyph glyph-name="Wcircumflex" unicode="&#x174;" horiz-adv-x="1832" 
d="M918 1776l-130 -164h-208l266 291h143l268 -291h-208zM422 0l-371 1462h219l258 -1149l308 1149h161l310 -1149l256 1149h221l-371 -1462h-192l-303 1100l-306 -1100h-190z" />
    <glyph glyph-name="wcircumflex" unicode="&#x175;" horiz-adv-x="1587" 
d="M793 1358l-129 -162h-209l266 289h143l269 -289h-209zM381 0l-315 1040h210l203 -774l240 774h147l240 -774l203 774h211l-316 -1040h-174l-237 723l-238 -723h-174z" />
    <glyph glyph-name="Ycircumflex" unicode="&#x176;" horiz-adv-x="1099" 
d="M549 1776l-129 -164h-209l266 291h144l268 -291h-209zM442 0v528l-456 934h231l336 -714l334 714h231l-456 -934v-528h-220z" />
    <glyph glyph-name="ycircumflex" unicode="&#x177;" horiz-adv-x="1015" 
d="M508 1358l-129 -162h-209l266 289h144l268 -289h-209zM406 10l-369 1030h211l268 -802l244 802h211l-393 -1171q-78 -221 -158 -279t-307 -61v172q119 -2 163 31t89 155z" />
    <glyph glyph-name="Ydieresis" unicode="&#x178;" horiz-adv-x="1099" 
d="M659 1618v233h187v-233h-187zM254 1618v233h186v-233h-186zM442 0v528l-456 934h231l336 -714l334 714h231l-456 -934v-528h-220z" />
    <glyph glyph-name="Zacute" unicode="&#x179;" horiz-adv-x="1132" 
d="M492 1606l159 303h244l-246 -303h-157zM106 0v150l646 1132h-611v180h856v-149l-645 -1133h676v-180h-922z" />
    <glyph glyph-name="zacute" unicode="&#x17a;" horiz-adv-x="978" 
d="M399 1190l160 301h244l-246 -301h-158zM82 0v133l491 737h-452v170h713v-133l-494 -737h526v-170h-784z" />
    <glyph glyph-name="Zdotaccent" unicode="&#x17b;" horiz-adv-x="1132" 
d="M489 1618v233h203v-233h-203zM106 0v150l646 1132h-611v180h856v-149l-645 -1133h676v-180h-922z" />
    <glyph glyph-name="zdotaccent" unicode="&#x17c;" horiz-adv-x="978" 
d="M393 1202v234h203v-234h-203zM82 0v133l491 737h-452v170h713v-133l-494 -737h526v-170h-784z" />
    <glyph glyph-name="Zcaron" unicode="&#x17d;" horiz-adv-x="1132" 
d="M608 1737l131 161h209l-266 -288h-143l-269 288h209zM106 0v150l646 1132h-611v180h856v-149l-645 -1133h676v-180h-922z" />
    <glyph glyph-name="zcaron" unicode="&#x17e;" horiz-adv-x="978" 
d="M504 1319l131 162h209l-266 -289h-144l-268 289h209zM82 0v133l491 737h-452v170h713v-133l-494 -737h526v-170h-784z" />
    <glyph glyph-name="Ohorn" unicode="&#x1a0;" horiz-adv-x="1443" 
d="M997 573v316q0 217 -72 315q-73 98 -236 98t-235 -98t-73 -315v-316q0 -219 73 -317q74 -98 236 -98t235 98q72 98 72 317zM1217 553q0 -158 -28 -255t-93 -167q-137 -151 -418 -151t-416 176q-100 129 -100 397v356q0 158 27 254q28 96 94 168q139 152 405 152
q383 0 492 -297q70 45 98 87q28 41 27 99q0 58 -31 113h184q14 -49 15 -86q0 -141 -121 -240q-37 -31 -148 -96q12 -70 13 -154v-356z" />
    <glyph glyph-name="ohorn" unicode="&#x1a1;" horiz-adv-x="1216" 
d="M803 455v131q0 160 -55 234q-56 74 -176 73q-120 0 -175 -74t-55 -233v-131q0 -160 55 -234t175 -74t176 74q55 74 55 234zM1012 565v-125q0 -240 -106 -350t-334 -110t-333 110t-106 350v160q1 242 107 352t338 109q348 0 415 -283q59 51 79 84q20 34 20 90t-31 109h184
q14 -49 15 -90q0 -100 -58 -173t-194 -151q4 -74 4 -82z" />
    <glyph glyph-name="Uhorn" unicode="&#x1af;" horiz-adv-x="1513" 
d="M190 1462h220v-921q0 -184 45 -265q72 -118 256 -118t252 137q35 76 34 246v921h220v-309q98 45 139 94t41 113t-31 125h184q14 -43 15 -90q0 -156 -164 -273q-49 -35 -184 -104v-477q1 -160 -19 -244t-72 -147q-132 -170 -434 -170t-432 194q-39 61 -54 140t-16 227v921
z" />
    <glyph glyph-name="uhorn" unicode="&#x1b0;" horiz-adv-x="1263" 
d="M158 1040h209v-573q0 -166 45 -238q44 -71 152 -71t155 80t47 270v532h209v-311q102 49 142 97t40 114t-33 121h185q16 -49 16 -90q0 -154 -166 -273q-47 -33 -184 -104v-594h-152l-22 106q-84 -127 -275 -126q-266 0 -338 200q-31 88 -30 264v596z" />
    <glyph glyph-name="uni01C4" unicode="&#x1c4;" horiz-adv-x="2433" 
d="M1878 1737l129 161h209l-266 -288h-144l-268 288h209zM1405 0v150l647 1132h-612v180h858v-149l-647 -1133h678v-180h-924zM416 176h223q195 -4 277 89t85 315v303q-2 221 -86 314t-276 89h-223v-1110zM197 0v1462h481q559 8 543 -561v-340q16 -569 -543 -561h-481z" />
    <glyph glyph-name="uni01C5" unicode="&#x1c5;" horiz-adv-x="2293" 
d="M1806 1319l131 162h209l-268 -289h-143l-267 289h207zM1399 0v133l491 737h-452v170h712v-133l-493 -737h524v-170h-782zM416 176h223q195 -4 277 89t85 315v303q-2 221 -86 314t-276 89h-223v-1110zM197 0v1462h481q559 8 543 -561v-340q16 -569 -543 -561h-481z" />
    <glyph glyph-name="uni01C6" unicode="&#x1c6;" horiz-adv-x="2138" 
d="M1661 1319l131 162h209l-268 -289h-144l-266 289h209zM1243 0v133l492 737h-453v170h713v-133l-494 -737h524v-170h-782zM340 584v-127q0 -158 54 -234t167 -76q223 0 223 279v188q0 279 -223 279q-113 1 -167 -75t-54 -234zM133 442v156q0 242 93 352t296 111
q119 0 205 -43l6 -6q19 -9 51 -37v487h209v-1462h-162l-14 80q-6 -4 -17 -15t-22 -20q-70 -65 -264 -65t-287 110q-94 110 -94 352z" />
    <glyph glyph-name="uni01C7" unicode="&#x1c7;" horiz-adv-x="1712" 
d="M1298 1462h220v-1368q0 -186 -10 -270t-44 -141q-96 -182 -356 -183q-104 0 -215 39l74 166q59 -25 114 -24q152 0 197 141q20 61 20 268v1372zM197 0v1462h219v-1282h663v-180h-882z" />
    <glyph glyph-name="uni01C8" unicode="&#x1c8;" horiz-adv-x="1654" 
d="M1278 1040h209v-1040q4 -276 -91 -374t-364 -97v172q137 -6 194 57q56 63 52 222v1060zM1278 1235v238h209v-238h-209zM197 0v1462h219v-1282h663v-180h-882z" />
    <glyph glyph-name="uni01C9" unicode="&#x1c9;" horiz-adv-x="1167" 
d="M791 1040h208v-1040q4 -276 -91 -374t-363 -97v172q137 -6 193 57t53 222v1060zM791 1235v238h208v-238h-208zM164 1462h209v-1093q0 -115 38 -157t140 -42h45v-170h-53q-227 0 -303 78t-76 311v1073z" />
    <glyph glyph-name="uni01CA" unicode="&#x1ca;" horiz-adv-x="2082" 
d="M1669 1462h219v-1368q0 -186 -10 -270t-43 -141q-96 -182 -356 -183q-104 0 -215 39l73 166q57 -25 115 -24q150 0 197 141q20 61 20 268v1372zM197 0v1462h213l651 -1093v1093h213v-1462h-213l-651 1094v-1094h-213z" />
    <glyph glyph-name="uni01CB" unicode="&#x1cb;" horiz-adv-x="2025" 
d="M1649 1235v238h209v-238h-209zM1649 1040h209v-1040q4 -276 -92 -374t-365 -97v172q137 -6 194 57t54 222v1060zM197 0v1462h213l651 -1093v1093h213v-1462h-213l-651 1094v-1094h-213z" />
    <glyph glyph-name="uni01CC" unicode="&#x1cc;" horiz-adv-x="1716" 
d="M1339 1235v238h209v-238h-209zM1339 1040h209v-1040q4 -276 -91 -374t-363 -97v172q137 -6 193 57t52 222v1060zM166 0v1040h160l16 -104q92 125 285 125q274 0 348 -201q31 -90 31 -264v-596h-209v573q0 166 -47 238t-162 72t-164 -80t-49 -271v-532h-209z" />
    <glyph glyph-name="uni01CD" unicode="&#x1cd;" horiz-adv-x="1245" 
d="M621 1737l131 161h209l-267 -288h-143l-268 288h209zM868 481l-243 715l-246 -715h489zM922 305h-596l-103 -305h-237l532 1462h211l533 -1462h-238z" />
    <glyph glyph-name="uni01CE" unicode="&#x1ce;" horiz-adv-x="1081" 
d="M543 1319l131 162h209l-267 -289h-143l-268 289h209zM715 471h-207q-119 0 -168 -39t-49 -129t46 -125t176 -35t177 62q25 35 25 131v135zM715 618v60q0 115 -48 165t-155 50q-139 0 -229 -105l-144 107q135 166 396 166t348 -164q41 -76 41 -254v-643h-166l-15 68
q-49 -48 -113 -68t-179 -20q-197 0 -278 72t-81 248q0 177 86 248t307 70h230z" />
    <glyph glyph-name="uni01CF" unicode="&#x1cf;" horiz-adv-x="612" 
d="M305 1737l131 161h209l-266 -288h-143l-269 288h209zM197 0v1462h219v-1462h-219z" />
    <glyph glyph-name="uni01D0" unicode="&#x1d0;" horiz-adv-x="540" 
d="M270 1319l131 162h209l-266 -289h-143l-269 289h209zM168 0v1040h209v-1040h-209z" />
    <glyph glyph-name="uni01D1" unicode="&#x1d1;" horiz-adv-x="1378" 
d="M690 1737l129 161h209l-266 -288h-144l-268 288h209zM999 573v316q0 219 -73 317q-74 98 -238 98t-236 -98t-73 -317v-316q0 -219 73 -317q72 -98 236 -98t238 98q73 98 73 317zM162 553v356q0 158 27 255q28 97 94 167q133 152 415 152t420 -176q98 -127 99 -398v-356
q0 -158 -28 -255t-93 -169q-135 -149 -417 -149t-417 176q-100 129 -100 397z" />
    <glyph glyph-name="uni01D2" unicode="&#x1d2;" horiz-adv-x="1142" 
d="M571 1319l131 162h209l-266 -289h-143l-269 289h209zM803 455v131q0 160 -55 234q-56 74 -176 73q-120 0 -175 -74t-55 -233v-131q0 -160 55 -234t175 -74t176 74q55 74 55 234zM133 440v160q-1 240 105 350t334 111q228 0 334 -111t106 -350v-160q0 -240 -106 -350
t-334 -110t-334 110t-105 350z" />
    <glyph glyph-name="uni01D3" unicode="&#x1d3;" horiz-adv-x="1406" 
d="M702 1737l132 161h208l-266 -288h-143l-268 288h208zM190 1462h220v-921q0 -184 45 -265q72 -118 256 -118t252 137q35 76 34 246v921h220v-921q1 -160 -19 -244t-72 -147q-132 -170 -434 -170t-432 194q-39 61 -54 140t-16 227v921z" />
    <glyph glyph-name="uni01D4" unicode="&#x1d4;" horiz-adv-x="1140" 
d="M569 1319l131 162h209l-266 -289h-143l-269 289h209zM158 1040h209v-575q0 -164 45 -236q44 -71 152 -71t155 80t47 270v532h209v-1040h-152l-22 106q-80 -127 -275 -126q-266 0 -338 200q-31 86 -30 264v596z" />
    <glyph glyph-name="Gcaron" unicode="&#x1e6;" horiz-adv-x="1353" 
d="M680 1737l131 161h209l-266 -288h-144l-268 288h209zM721 614v170h491v-235q0 -152 -24 -243t-82 -163q-137 -163 -428 -163t-422 182q-51 70 -73 164t-21 252v305q0 170 25 269q26 99 89 171q135 156 383 156q488 0 508 -392l-202 -14q-31 227 -279 227q-166 0 -236 -98
t-69 -334v-278q0 -236 70 -334t237 -98q307 0 307 344v112h-274z" />
    <glyph glyph-name="gcaron" unicode="&#x1e7;" horiz-adv-x="1159" 
d="M602 1319l131 162h209l-266 -289h-144l-268 289h209zM340 584v-127q0 -158 54 -234t167 -76q223 0 223 279v188q0 279 -223 279q-113 1 -167 -75t-54 -234zM506 -20q-186 0 -280 112q-93 112 -93 350v156q0 242 93 352q92 110 288 111q196 0 299 -103l18 82h162v-1026
q0 -496 -454 -495q-264 0 -379 182l155 90q43 -59 91 -84t124 -24q129 0 190 73q60 74 64 236l2 74q-94 -86 -280 -86z" />
    <glyph glyph-name="uni01EA" unicode="&#x1ea;" horiz-adv-x="1378" 
d="M1008 573v316q0 219 -73 317t-236 98t-235 -98t-73 -317v-316q0 -219 73 -317q74 -98 236 -98t235 98t73 317zM1227 909v-356q4 -221 -70 -353t-235 -190q-162 -115 -162 -223q0 -82 98 -82q57 0 121 21l22 -111q-88 -33 -182 -33q-246 0 -246 172q0 66 29 116t100 110
q-268 -4 -403 142t-127 431v356q0 158 28 254t93 168q137 152 417 152t416 -176q101 -130 101 -398z" />
    <glyph glyph-name="uni01EB" unicode="&#x1eb;" horiz-adv-x="1142" 
d="M805 455v131q0 160 -55 234q-56 74 -176 73q-120 0 -175 -74t-55 -233v-131q0 -160 55 -234t175 -74t176 74q55 74 55 234zM1014 600v-160q0 -346 -236 -432q-143 -109 -143 -221q0 -82 98 -82q57 0 121 21l23 -111q-88 -33 -183 -33q-246 0 -245 174q0 121 116 224
q-223 4 -327 114t-103 346v160q-1 240 105 350t334 111q228 -1 334 -111t106 -350z" />
    <glyph glyph-name="uni01F1" unicode="&#x1f1;" horiz-adv-x="2433" 
d="M1405 0v150l647 1132h-612v180h858v-149l-647 -1133h678v-180h-924zM416 176h223q195 -4 277 89t85 315v303q-2 221 -86 314t-276 89h-223v-1110zM197 0v1462h481q559 8 543 -561v-340q16 -569 -543 -561h-481z" />
    <glyph glyph-name="uni01F2" unicode="&#x1f2;" horiz-adv-x="2293" 
d="M1397 0v133l493 737h-452v170h710v-133l-491 -737h524v-170h-784zM416 176h223q195 -4 277 89t85 315v303q-2 221 -86 314t-276 89h-223v-1110zM197 0v1462h481q559 8 543 -561v-340q16 -569 -543 -561h-481z" />
    <glyph glyph-name="uni01F3" unicode="&#x1f3;" horiz-adv-x="2138" 
d="M1243 0v133l492 737h-453v170h713v-133l-494 -737h524v-170h-782zM340 584v-127q0 -158 54 -234t167 -76q223 0 223 279v188q0 279 -223 279q-113 1 -167 -75t-54 -234zM133 442v156q0 242 93 352t296 111q119 0 205 -43l6 -6q19 -9 51 -37v487h209v-1462h-162l-14 80
q-6 -4 -17 -15t-22 -20q-70 -65 -264 -65t-287 110q-94 110 -94 352z" />
    <glyph glyph-name="uni01F4" unicode="&#x1f4;" horiz-adv-x="1353" 
d="M563 1606l160 303h244l-246 -303h-158zM721 614v170h491v-235q0 -152 -24 -243t-82 -163q-137 -163 -428 -163t-422 182q-51 70 -73 164t-21 252v305q0 170 25 269q26 99 89 171q135 156 383 156q488 0 508 -392l-202 -14q-31 227 -279 227q-166 0 -236 -98t-69 -334
v-278q0 -236 70 -334t237 -98q307 0 307 344v112h-274z" />
    <glyph glyph-name="uni01F5" unicode="&#x1f5;" horiz-adv-x="1159" 
d="M465 1190l160 301h243l-245 -301h-158zM340 584v-127q0 -158 54 -234t167 -76q223 0 223 279v188q0 279 -223 279q-113 1 -167 -75t-54 -234zM506 -20q-186 0 -280 112q-93 112 -93 350v156q0 242 93 352q92 110 288 111q196 0 299 -103l18 82h162v-1026
q0 -496 -454 -495q-264 0 -379 182l155 90q43 -59 91 -84t124 -24q129 0 190 73q60 74 64 236l2 74q-94 -86 -280 -86z" />
    <glyph glyph-name="Aringacute" unicode="&#x1fa;" horiz-adv-x="1245" 
d="M535 1837l114 250h234l-219 -250h-129zM721 1581q0 117 -99 117q-100 0 -100 -117t100 -117t99 117zM868 481l-243 715l-246 -715h489zM623 1800q105 0 169 -59t64 -169t-102 -177l508 -1395h-238l-102 305h-596l-103 -305h-237l508 1393q-106 66 -106 177q0 110 64 170
q65 60 171 60z" />
    <glyph glyph-name="aringacute" unicode="&#x1fb;" horiz-adv-x="1081" 
d="M459 1647l114 247h234l-219 -247h-129zM645 1356q0 117 -99 117q-100 0 -100 -117t100 -117t99 117zM311 1358q1 100 65 158t170 59q106 0 170 -59q64 -60 64 -158t-64 -160q-65 -61 -170 -61t-170 61q-65 60 -65 160zM715 471h-207q-119 0 -168 -39t-49 -129t46 -125
t176 -35t177 62q25 35 25 131v135zM715 618v60q0 115 -48 165t-155 50q-139 0 -229 -105l-144 107q135 166 396 166t348 -164q41 -76 41 -254v-643h-166l-15 68q-49 -48 -113 -68t-179 -20q-197 0 -278 72t-81 248q0 177 86 248t307 70h230z" />
    <glyph glyph-name="AEacute" unicode="&#x1fc;" horiz-adv-x="1953" 
d="M1210 1606l160 303h244l-246 -303h-158zM965 506v776h-19l-489 -776h508zM965 328h-611l-202 -328h-254l950 1462h993v-180h-661v-453h563v-180h-563v-469h665v-180h-880v328z" />
    <glyph glyph-name="aeacute" unicode="&#x1fd;" horiz-adv-x="1703" 
d="M731 1190l160 301h244l-246 -301h-158zM1389 641q0 259 -240 259q-123 0 -180 -93q-41 -68 -41 -168v-18h461v20zM715 471h-207q-117 0 -167 -40t-50 -129t46 -124t166 -35t166 48t46 182v98zM928 434q0 -289 268 -289q137 0 215 105l156 -92q-66 -94 -159 -136t-239 -42
q-238 0 -348 149q-55 -82 -138 -116q-83 -33 -256 -33t-254 70t-81 249q0 178 86 249t307 70h230v60q0 113 -47 164q-47 50 -171 50t-214 -104l-144 105q131 168 389 168q215 0 308 -125q59 70 132 98t193 27q223 0 325 -121t101 -385v-84h-659v-37z" />
    <glyph glyph-name="Oslashacute" unicode="&#x1fe;" horiz-adv-x="1378" 
d="M569 1606l160 303h244l-246 -303h-158zM680 1305q-152 -1 -226 -99t-73 -317v-316q0 -94 8 -141l522 787q-79 86 -231 86zM698 158q154 0 227 98t72 317v316q0 98 -6 137l-522 -784q75 -84 229 -84zM1217 553q0 -158 -28 -254t-93 -168q-137 -152 -412 -151
q-211 0 -332 88l-78 -117l-141 98l98 150q-70 133 -69 354v356q0 156 27 254q28 98 94 170q137 150 405 150q215 0 340 -90l78 114l139 -98l-98 -147q39 -74 54 -150t16 -203v-356z" />
    <glyph glyph-name="oslashacute" unicode="&#x1ff;" horiz-adv-x="1142" 
d="M446 1190l160 301h244l-246 -301h-158zM556 893q-218 0 -218 -307v-131q0 -64 10 -119l369 510q-55 47 -161 47zM801 586q0 66 -10 121l-369 -510q54 -49 160 -49q217 -1 219 307v131zM1008 600v-158q0 -242 -106 -352t-333 -110q-162 0 -262 57l-65 -90l-113 86l72 100
q-72 106 -72 309v158q0 240 105 350t335 111q164 0 262 -55l64 86l113 -84l-72 -99q72 -102 72 -309z" />
    <glyph glyph-name="uni0200" unicode="&#x200;" horiz-adv-x="1245" 
d="M561 1606h-147l-207 303h227zM866 1606h-145l-209 303h227zM868 481l-243 715l-246 -715h489zM922 305h-596l-103 -305h-237l532 1462h211l533 -1462h-238z" />
    <glyph glyph-name="uni0201" unicode="&#x201;" horiz-adv-x="1081" 
d="M496 1190h-148l-207 301h228zM801 1190h-146l-209 301h228zM705 471h-207q-119 0 -168 -39t-49 -129t46 -125t176 -35t177 62q25 35 25 131v135zM705 618v60q-1 115 -49 165t-154 50q-141 0 -230 -105l-143 107q135 166 396 166t347 -164q41 -76 41 -254v-643h-165
l-15 68q-49 -48 -113 -68t-180 -20q-198 0 -278 72t-80 248q0 177 86 248t307 70h230z" />
    <glyph glyph-name="uni0202" unicode="&#x202;" horiz-adv-x="1245" 
d="M631 1915q213 0 274 -135q21 -49 29 -168h-135q-12 84 -50 117t-126 33t-127 -34q-39 -32 -50 -116h-135q8 137 39 186q68 117 281 117zM868 481l-243 715l-246 -715h489zM922 305h-596l-103 -305h-237l532 1462h211l533 -1462h-238z" />
    <glyph glyph-name="uni0203" unicode="&#x203;" horiz-adv-x="1081" 
d="M549 1497q213 0 274 -135q21 -49 29 -168h-135q-12 84 -50 117t-126 33t-127 -34q-39 -32 -49 -116h-136q8 137 39 186q68 117 281 117zM715 471h-207q-119 0 -168 -39t-49 -129t46 -125t176 -35t177 62q25 35 25 131v135zM715 618v60q0 115 -48 165t-155 50
q-139 0 -229 -105l-144 107q135 166 396 166t348 -164q41 -76 41 -254v-643h-166l-15 68q-49 -48 -113 -68t-179 -20q-197 0 -278 72t-81 248q0 177 86 248t307 70h230z" />
    <glyph glyph-name="uni0204" unicode="&#x204;" horiz-adv-x="1187" 
d="M571 1606h-147l-207 303h227zM877 1606h-146l-209 303h228zM184 0v1462h877v-180h-660v-453h562v-180h-562v-469h666v-180h-883z" />
    <glyph glyph-name="uni0205" unicode="&#x205;" horiz-adv-x="1118" 
d="M512 1190h-147l-207 301h227zM817 1190h-145l-209 301h227zM793 641q0 259 -242 259q-125 0 -178 -93q-41 -68 -41 -168v-18h461v20zM332 434q0 -289 268 -289q137 0 215 105l156 -92q-63 -94 -157 -136t-245 -42q-231 0 -339 118t-107 375v80q0 268 102 388
q101 120 331 120t332 -120t103 -388v-82h-659v-37z" />
    <glyph glyph-name="uni0206" unicode="&#x206;" horiz-adv-x="1187" 
d="M654 1915q212 0 274 -135q20 -49 28 -168h-135q-12 84 -50 117t-126 33t-127 -34q-39 -32 -49 -116h-135q8 137 39 186q69 117 281 117zM199 0v1462h876v-180h-659v-453h561v-180h-561v-469h665v-180h-882z" />
    <glyph glyph-name="uni0207" unicode="&#x207;" horiz-adv-x="1118" 
d="M570 1497q212 0 274 -135q20 -49 28 -168h-135q-12 84 -50 117t-126 33t-127 -34q-39 -32 -49 -116h-135q8 137 39 186q69 117 281 117zM803 641q0 259 -242 259q-125 0 -178 -93q-41 -68 -41 -168v-18h461v20zM342 434q0 -289 268 -289q136 0 215 105l156 -92
q-63 -94 -157 -136t-244 -42q-231 0 -339 118t-108 375v80q1 268 103 388t331 120t331 -120t103 -388v-82h-659v-37z" />
    <glyph glyph-name="uni0208" unicode="&#x208;" horiz-adv-x="612" 
d="M246 1606h-148l-207 303h228zM551 1606h-145l-209 303h227zM197 0v1462h219v-1462h-219z" />
    <glyph glyph-name="uni0209" unicode="&#x209;" horiz-adv-x="540" 
d="M209 1190h-148l-206 301h227zM514 1190h-145l-209 301h227zM166 0v1040h209v-1040h-209z" />
    <glyph glyph-name="uni020A" unicode="&#x20a;" horiz-adv-x="612" 
d="M316 1915q212 0 274 -135q20 -49 28 -168h-135q-12 84 -50 117t-126 33t-127 -34q-39 -32 -49 -116h-135q8 137 39 186q69 117 281 117zM197 0v1462h219v-1462h-219z" />
    <glyph glyph-name="uni020B" unicode="&#x20b;" horiz-adv-x="540" 
d="M278 1497q212 0 275 -135q21 -49 29 -168h-136q-12 84 -50 117t-126 33t-127 -34q-39 -32 -49 -116h-135q8 137 39 186q68 117 280 117zM166 0v1040h209v-1040h-209z" />
    <glyph glyph-name="uni020C" unicode="&#x20c;" horiz-adv-x="1378" 
d="M629 1606h-148l-207 303h228zM934 1606h-146l-208 303h227zM997 573v316q0 219 -72 317q-73 98 -236 98t-235 -98t-73 -317v-316q0 -219 73 -317q74 -98 236 -98t235 98q72 98 72 317zM162 553v356q0 158 27 254q28 96 94 168q137 152 417 152t416 -176
q100 -129 101 -398v-356q0 -158 -28 -255t-93 -167q-137 -151 -418 -151t-416 176q-100 129 -100 397z" />
    <glyph glyph-name="uni020D" unicode="&#x20d;" horiz-adv-x="1142" 
d="M496 1190h-148l-207 301h228zM801 1190h-146l-209 301h228zM786 455v131q0 160 -55 234t-175 73q-120 0 -175 -74t-55 -233v-131q0 -160 55 -234t175 -74t175 74t55 234zM117 440v160q0 240 105 350q106 110 334 111q228 0 334 -111t105 -350v-160q0 -240 -105 -350
q-106 -110 -334 -110t-334 110q-105 110 -105 350z" />
    <glyph glyph-name="uni020E" unicode="&#x20e;" horiz-adv-x="1378" 
d="M698 1915q212 0 275 -135q20 -49 28 -168h-135q-12 84 -50 117t-126 33t-127 -34q-39 -32 -49 -116h-135q8 137 39 186q68 117 280 117zM997 573v316q0 219 -72 317q-73 98 -236 98t-235 -98t-73 -317v-316q0 -219 73 -317q74 -98 236 -98t235 98q72 98 72 317zM162 553
v356q0 158 27 254q28 96 94 168q137 152 417 152t416 -176q100 -129 101 -398v-356q0 -158 -28 -255t-93 -167q-137 -151 -418 -151t-416 176q-100 129 -100 397z" />
    <glyph glyph-name="uni020F" unicode="&#x20f;" horiz-adv-x="1142" 
d="M582 1497q212 0 274 -135q21 -49 29 -168h-135q-12 84 -50 117t-127 33q-88 0 -127 -34q-39 -32 -49 -116h-135q8 137 39 186q69 117 281 117zM803 455v131q0 160 -55 234q-56 74 -176 73q-120 0 -175 -74t-55 -233v-131q0 -160 55 -234t175 -74t176 74q55 74 55 234z
M133 440v160q-1 240 105 350t334 111q228 0 334 -111t106 -350v-160q0 -240 -106 -350t-334 -110t-334 110t-105 350z" />
    <glyph glyph-name="uni0210" unicode="&#x210;" horiz-adv-x="1318" 
d="M537 1606h-148l-207 303h228zM842 1606h-146l-209 303h228zM395 788h297q130 0 192 60t62 190q0 128 -63 188t-203 60h-285v-498zM399 614v-614h-219v1462h520q252 0 358 -105t105 -297q0 -192 -68 -292q-69 -98 -221 -133l320 -635h-242l-293 614h-260z" />
    <glyph glyph-name="uni0211" unicode="&#x211;" horiz-adv-x="784" 
d="M383 1190h-147l-207 301h227zM688 1190h-145l-209 301h227zM168 0v1040h162l22 -88q50 59 102 84t144 25t199 -60l-90 -174q-74 53 -142 54q-100 0 -144 -88t-44 -287v-506h-209z" />
    <glyph glyph-name="uni0212" unicode="&#x212;" horiz-adv-x="1318" 
d="M618 1915q212 0 275 -135q21 -49 29 -168h-136q-12 84 -50 117t-126 33t-127 -34q-39 -32 -49 -116h-135q8 137 39 186q68 117 280 117zM414 788h297q131 0 192 60t61 190q0 128 -62 188q-64 60 -204 60h-284v-498zM418 614v-614h-219v1462h520q252 0 357 -105
q106 -105 106 -297t-69 -292q-69 -98 -220 -133l319 -635h-241l-293 614h-260z" />
    <glyph glyph-name="uni0213" unicode="&#x213;" horiz-adv-x="784" 
d="M438 1497q212 0 275 -135q20 -49 28 -168h-135q-12 84 -50 117t-126 33t-127 -34q-39 -32 -49 -116h-135q8 137 39 186q68 117 280 117zM166 0v1040h162l22 -88q50 59 102 84t144 25t199 -60l-90 -174q-74 53 -142 54q-100 0 -144 -88t-44 -287v-506h-209z" />
    <glyph glyph-name="uni0214" unicode="&#x214;" horiz-adv-x="1406" 
d="M643 1606h-147l-207 303h227zM948 1606h-145l-209 303h227zM190 1462h220v-921q0 -184 45 -265q72 -118 256 -118t252 137q35 76 34 246v921h220v-921q1 -160 -19 -244t-72 -147q-132 -170 -434 -170t-432 194q-39 61 -54 140t-16 227v921z" />
    <glyph glyph-name="uni0215" unicode="&#x215;" horiz-adv-x="1140" 
d="M492 1190h-148l-207 301h228zM797 1190h-146l-209 301h228zM139 1040h209v-575q0 -164 45 -236q45 -71 153 -71t154 80t48 270v532h208v-1040h-151l-23 106q-80 -127 -274 -126q-266 0 -338 200q-31 86 -31 264v596z" />
    <glyph glyph-name="uni0216" unicode="&#x216;" horiz-adv-x="1406" 
d="M713 1915q213 0 274 -135q21 -49 29 -168h-135q-13 84 -51 117t-126 33t-126 -34q-39 -32 -50 -116h-135q8 137 39 186q68 117 281 117zM190 1462h220v-921q0 -184 45 -265q72 -118 256 -118t252 137q35 76 34 246v921h220v-921q1 -160 -19 -244t-72 -147
q-132 -170 -434 -170t-432 194q-39 61 -54 140t-16 227v921z" />
    <glyph glyph-name="uni0217" unicode="&#x217;" horiz-adv-x="1140" 
d="M580 1497q212 0 274 -135q21 -49 29 -168h-135q-12 84 -50 117t-127 33q-88 0 -127 -34q-39 -32 -49 -116h-135q8 137 39 186q69 117 281 117zM158 1040h209v-575q0 -164 45 -236q44 -71 152 -71t155 80t47 270v532h209v-1040h-152l-22 106q-80 -127 -275 -126
q-266 0 -338 200q-31 86 -30 264v596z" />
    <glyph glyph-name="Scommaaccent" unicode="&#x218;" horiz-adv-x="1181" 
d="M410 -469l104 332h209l-170 -332h-143zM887 394q0 114 -80 169q-37 27 -70 37t-225 58t-288 146t-97 280q0 184 123 292t342 107q319 0 444 -203l-164 -106q-92 131 -286 131q-117 -1 -183 -59q-65 -58 -65 -160t69 -160t230 -98t213 -59t108 -56q140 -95 140 -307
t-131 -320t-383 -106q-373 0 -514 229l168 106q96 -156 348 -155q145 0 223 60t78 174z" />
    <glyph glyph-name="scommaaccent" unicode="&#x219;" horiz-adv-x="985" 
d="M289 -469l104 332h209l-170 -332h-143zM461 145q236 0 235 154q0 82 -63 111q-41 18 -205 40t-243 86q-79 66 -79 214t94 229q94 82 267 82q272 0 391 -182l-153 -91q-47 59 -97 83t-125 24q-178 0 -178 -143q0 -70 51 -98t154 -40q211 -24 298 -86t87 -233
q0 -315 -426 -315q-309 0 -418 178l152 94q53 -61 106 -84t152 -23z" />
    <glyph glyph-name="uni021A" unicode="&#x21a;" horiz-adv-x="1136" 
d="M371 -469l104 332h209l-170 -332h-143zM459 0v1282h-410v180h1038v-180h-409v-1282h-219z" />
    <glyph glyph-name="uni021B" unicode="&#x21b;" horiz-adv-x="696" 
d="M199 -469l104 332h209l-170 -332h-143zM197 872h-121v168h121l10 318h199v-318h204v-168h-204v-503q0 -115 38 -157t138 -40h32v-172h-36q-233 0 -308 76q-74 76 -73 313v483z" />
    <glyph glyph-name="uni0226" unicode="&#x226;" horiz-adv-x="1245" 
d="M520 1618v233h203v-233h-203zM868 481l-243 715l-246 -715h489zM922 305h-596l-103 -305h-237l532 1462h211l533 -1462h-238z" />
    <glyph glyph-name="uni0227" unicode="&#x227;" horiz-adv-x="1081" 
d="M457 1202v234h202v-234h-202zM715 471h-207q-119 0 -168 -39t-49 -129t46 -125t176 -35t177 62q25 35 25 131v135zM715 618v60q0 115 -48 165t-155 50q-139 0 -229 -105l-144 107q135 166 396 166t348 -164q41 -76 41 -254v-643h-166l-15 68q-49 -48 -113 -68t-179 -20
q-197 0 -278 72t-81 248q0 177 86 248t307 70h230z" />
    <glyph glyph-name="uni0237" unicode="&#x237;" horiz-adv-x="555" 
d="M176 1040h209v-1040q4 -276 -91 -374t-364 -97v172q137 -6 194 57q56 63 52 222v1060z" />
    <glyph glyph-name="afii57929" unicode="&#x2bc;" horiz-adv-x="411" 
d="M61 956l72 506h219l-114 -506h-177z" />
    <glyph glyph-name="uni02C0" unicode="&#x2c0;" horiz-adv-x="1024" 
d="M602 1587h-147q0 78 8 104q7 26 37 68t30 66q0 43 -57 43q-37 0 -102 -29l-37 117q98 33 182 33t135 -41t51 -115q0 -35 -11 -57t-44 -63t-39 -61t-6 -65z" />
    <glyph glyph-name="circumflex" unicode="&#x2c6;" horiz-adv-x="1024" 
d="M512 1358l-129 -162h-209l266 289h144l268 -289h-209z" />
    <glyph glyph-name="caron" unicode="&#x2c7;" horiz-adv-x="1024" 
d="M512 1319l131 162h209l-266 -289h-144l-268 289h209z" />
    <glyph glyph-name="uni02C9" unicode="&#x2c9;" horiz-adv-x="1024" 
d="M225 1253v150h574v-150h-574z" />
    <glyph glyph-name="breve" unicode="&#x2d8;" horiz-adv-x="1024" 
d="M512 1329q88 0 127 33t49 117h135q-8 -131 -39 -187q-68 -116 -280 -116t-275 135q-22 47 -28 168h135q10 -84 49 -117t127 -33z" />
    <glyph glyph-name="dotaccent" unicode="&#x2d9;" horiz-adv-x="1024" 
d="M410 1202v234h202v-234h-202z" />
    <glyph glyph-name="ring" unicode="&#x2da;" horiz-adv-x="1024" 
d="M511 1507q-99 -1 -99 -117t99 -116t99 116t-99 117zM276 1394q0 100 64 158t172 58q106 0 170 -60t63 -158q0 -97 -64 -159q-65 -61 -170 -61t-170 60q-65 62 -65 162z" />
    <glyph glyph-name="ogonek" unicode="&#x2db;" horiz-adv-x="1024" 
d="M670 -295q55 0 123 21l20 -111q-84 -33 -180 -33q-248 0 -248 170q0 148 207 248h170q-190 -119 -191 -215q0 -80 99 -80z" />
    <glyph glyph-name="tilde" unicode="&#x2dc;" horiz-adv-x="1024" 
d="M651 1346q25 0 42 24t32 88h129q-27 -125 -45 -162q-49 -100 -164 -100q-86 0 -158 64t-102 65q-61 0 -86 -115h-129q29 123 51 162q57 102 166 103q83 1 143 -53t78 -65t43 -11z" />
    <glyph glyph-name="hungarumlaut" unicode="&#x2dd;" horiz-adv-x="1024" 
d="M571 1190l127 301h228l-207 -301h-148zM266 1190l127 301h228l-207 -301h-148z" />
    <glyph glyph-name="uni0309" unicode="&#x309;" horiz-adv-x="1024" 
d="M602 1178h-147q0 78 8 104t49 82q18 29 18 51q0 43 -50 43t-109 -28l-37 116q94 33 180 33t137 -41t51 -115q0 -35 -11 -57t-44 -64q-33 -41 -39 -60t-6 -64z" />
    <glyph glyph-name="uni0312" unicode="&#x312;" horiz-adv-x="1024" 
d="M391 1190l246 301h158l-160 -301h-244z" />
    <glyph glyph-name="uni0313" unicode="&#x313;" horiz-adv-x="190" 
d="M-23 975l60 512h205l-117 -512h-148z" />
    <glyph glyph-name="uni031B" unicode="&#x31b;" horiz-adv-x="190" 
d="M-23 975l60 512h205l-117 -512h-148z" />
    <glyph glyph-name="uni0323" unicode="&#x323;" horiz-adv-x="1024" 
d="M410 -410v234h202v-234h-202z" />
    <glyph glyph-name="uni037E" unicode="&#x37e;" horiz-adv-x="585" 
d="M205 811v231h219v-231h-219zM100 -385l99 614h231l-143 -614h-187z" />
    <glyph glyph-name="uni0387" unicode="&#x387;" horiz-adv-x="585" 
d="M184 621v229h219v-229h-219z" />
    <glyph glyph-name="uni04D4" unicode="&#x4d4;" horiz-adv-x="1953" 
d="M965 506v776h-19l-489 -776h508zM965 328h-611l-202 -328h-254l950 1462h993v-180h-661v-453h563v-180h-563v-469h665v-180h-880v328z" />
    <glyph glyph-name="uni04D5" unicode="&#x4d5;" horiz-adv-x="1703" 
d="M1389 641q0 259 -240 259q-123 0 -180 -93q-41 -68 -41 -168v-18h461v20zM715 471h-207q-117 0 -167 -40t-50 -129t46 -124t166 -35t166 48t46 182v98zM928 434q0 -289 268 -289q137 0 215 105l156 -92q-66 -94 -159 -136t-239 -42q-238 0 -348 149q-55 -82 -138 -116
q-83 -33 -256 -33t-254 70t-81 249q0 178 86 249t307 70h230v60q0 113 -47 164q-47 50 -171 50t-214 -104l-144 105q131 168 389 168q215 0 308 -125q59 70 132 98t193 27q223 0 325 -121t101 -385v-84h-659v-37z" />
    <glyph glyph-name="uni1E02" unicode="&#x1e02;" horiz-adv-x="1306" 
d="M522 1618v233h203v-233h-203zM414 176h346q229 0 229 243t-229 243h-346v-486zM414 838h317q111 0 171 51t61 174q0 223 -232 223h-317v-448zM197 0v1462h551q215 0 317 -88q115 -104 115 -306t-158 -304l20 -12q78 -53 107 -105q57 -96 57 -246q0 -221 -131 -323
q-96 -78 -301 -78h-577z" />
    <glyph glyph-name="uni1E03" unicode="&#x1e03;" horiz-adv-x="1159" 
d="M602 1202v234h203v-234h-203zM821 457v127q0 158 -54 234t-167 75q-223 0 -223 -279v-188q0 -279 223 -279q113 0 167 76t54 234zM168 0v1462h209v-487q109 86 260 86q205 0 298 -111t93 -352v-156q0 -244 -94 -354t-301 -108q-145 0 -230 53q-8 6 -59 47l-14 -80h-162z
" />
    <glyph glyph-name="uni1E0C" unicode="&#x1e0c;" horiz-adv-x="1382" 
d="M537 -410v234h202v-234h-202zM416 176h223q195 -4 277 89t85 315v303q-2 221 -86 314t-276 89h-223v-1110zM197 0v1462h481q559 8 543 -561v-340q16 -569 -543 -561h-481z" />
    <glyph glyph-name="uni1E0D" unicode="&#x1e0d;" horiz-adv-x="1159" 
d="M514 -410v234h203v-234h-203zM340 584v-127q0 -158 54 -234t167 -76q223 0 223 279v188q0 279 -223 279q-113 1 -167 -75t-54 -234zM133 442v156q0 242 93 352t296 111q119 0 205 -43l6 -6q19 -9 51 -37v487h209v-1462h-162l-14 80q-6 -4 -17 -15t-22 -20
q-70 -65 -264 -65t-287 110q-94 110 -94 352z" />
    <glyph glyph-name="uni1E1E" unicode="&#x1e1e;" horiz-adv-x="1118" 
d="M545 1618v233h203v-233h-203zM199 0v1462h868v-180h-649v-463h549v-180h-549v-639h-219z" />
    <glyph glyph-name="uni1E1F" unicode="&#x1e1f;" horiz-adv-x="694" 
d="M326 1618v233h202v-233h-202zM211 872h-125v168h125v142q0 164 69 224t248 56h105v-159h-62q-95 2 -123 -26t-28 -116v-121h225v-168h-225v-872h-209v872z" />
    <glyph glyph-name="uni1E24" unicode="&#x1e24;" horiz-adv-x="1392" 
d="M594 -410v234h203v-234h-203zM197 0v1462h219v-633h561v633h219v-1462h-219v649h-561v-649h-219z" />
    <glyph glyph-name="uni1E25" unicode="&#x1e25;" horiz-adv-x="1163" 
d="M479 -410v234h203v-234h-203zM166 0v1462h209v-489q59 51 113 69t145 19q268 0 342 -201q31 -90 31 -264v-596h-209v578q0 164 -48 236t-160 71q-112 0 -163 -80t-51 -260v-545h-209z" />
    <glyph glyph-name="uni1E44" unicode="&#x1e44;" horiz-adv-x="1470" 
d="M647 1618v233h203v-233h-203zM197 0v1462h213l651 -1093v1093h213v-1462h-213l-651 1094v-1094h-213z" />
    <glyph glyph-name="uni1E45" unicode="&#x1e45;" horiz-adv-x="1163" 
d="M479 1202v234h203v-234h-203zM166 0v1040h160l16 -104q92 125 285 125q274 0 348 -201q31 -90 31 -264v-596h-209v573q0 166 -47 238t-162 72t-164 -80t-49 -271v-532h-209z" />
    <glyph glyph-name="uni1E5A" unicode="&#x1e5a;" horiz-adv-x="1318" 
d="M565 -410v234h203v-234h-203zM414 788h297q131 0 192 60t61 190q0 128 -62 188q-64 60 -204 60h-284v-498zM418 614v-614h-219v1462h520q252 0 357 -105q106 -105 106 -297t-69 -292q-69 -98 -220 -133l319 -635h-241l-293 614h-260z" />
    <glyph glyph-name="uni1E5B" unicode="&#x1e5b;" horiz-adv-x="784" 
d="M168 -410v234h203v-234h-203zM166 0v1040h162l22 -88q50 59 102 84t144 25t199 -60l-90 -174q-74 53 -142 54q-100 0 -144 -88t-44 -287v-506h-209z" />
    <glyph glyph-name="uni1E62" unicode="&#x1e62;" horiz-adv-x="1181" 
d="M475 -410v234h203v-234h-203zM887 394q0 114 -80 169q-37 27 -70 37t-225 58t-288 146t-97 280q0 184 123 292t342 107q319 0 444 -203l-164 -106q-92 131 -286 131q-117 -1 -183 -59q-65 -58 -65 -160t69 -160t230 -98t213 -59t108 -56q140 -95 140 -307t-131 -320
t-383 -106q-373 0 -514 229l168 106q96 -156 348 -155q145 0 223 60t78 174z" />
    <glyph glyph-name="uni1E63" unicode="&#x1e63;" horiz-adv-x="985" 
d="M377 -410v234h203v-234h-203zM461 145q236 0 235 154q0 82 -63 111q-41 18 -205 40t-243 86q-79 66 -79 214t94 229q94 82 267 82q272 0 391 -182l-153 -91q-47 59 -97 83t-125 24q-178 0 -178 -143q0 -70 51 -98t154 -40q211 -24 298 -86t87 -233q0 -315 -426 -315
q-309 0 -418 178l152 94q53 -61 106 -84t152 -23z" />
    <glyph glyph-name="uni1E6C" unicode="&#x1e6c;" horiz-adv-x="1136" 
d="M465 -410v234h203v-234h-203zM459 0v1282h-410v180h1038v-180h-409v-1282h-219z" />
    <glyph glyph-name="uni1E6D" unicode="&#x1e6d;" horiz-adv-x="696" 
d="M246 -410v234h203v-234h-203zM197 872h-121v168h121l10 318h199v-318h204v-168h-204v-503q0 -115 38 -157t138 -40h32v-172h-36q-233 0 -308 76q-74 76 -73 313v483z" />
    <glyph glyph-name="Wgrave" unicode="&#x1e80;" horiz-adv-x="1832" 
d="M1042 1606h-157l-246 303h244zM422 0l-371 1462h219l258 -1149l308 1149h161l310 -1149l256 1149h221l-371 -1462h-192l-303 1100l-306 -1100h-190z" />
    <glyph glyph-name="wgrave" unicode="&#x1e81;" horiz-adv-x="1587" 
d="M918 1190h-158l-246 301h244zM381 0l-315 1040h210l203 -774l240 774h147l240 -774l203 774h211l-316 -1040h-174l-237 723l-238 -723h-174z" />
    <glyph glyph-name="Wacute" unicode="&#x1e82;" horiz-adv-x="1832" 
d="M797 1606l159 303h244l-246 -303h-157zM422 0l-371 1462h219l258 -1149l308 1149h161l310 -1149l256 1149h221l-371 -1462h-192l-303 1100l-306 -1100h-190z" />
    <glyph glyph-name="wacute" unicode="&#x1e83;" horiz-adv-x="1587" 
d="M672 1190l159 301h244l-246 -301h-157zM381 0l-315 1040h210l203 -774l240 774h147l240 -774l203 774h211l-316 -1040h-174l-237 723l-238 -723h-174z" />
    <glyph glyph-name="Wdieresis" unicode="&#x1e84;" horiz-adv-x="1832" 
d="M1026 1618v233h186v-233h-186zM621 1618v233h186v-233h-186zM422 0l-371 1462h219l258 -1149l308 1149h161l310 -1149l256 1149h221l-371 -1462h-192l-303 1100l-306 -1100h-190z" />
    <glyph glyph-name="wdieresis" unicode="&#x1e85;" horiz-adv-x="1587" 
d="M899 1202v234h186v-234h-186zM500 1202v234h186v-234h-186zM381 0l-315 1040h210l203 -774l240 774h147l240 -774l203 774h211l-316 -1040h-174l-237 723l-238 -723h-174z" />
    <glyph glyph-name="uni1E92" unicode="&#x1e92;" horiz-adv-x="1132" 
d="M487 -410v234h203v-234h-203zM106 0v150l646 1132h-611v180h856v-149l-645 -1133h676v-180h-922z" />
    <glyph glyph-name="uni1E93" unicode="&#x1e93;" horiz-adv-x="978" 
d="M395 -410v234h203v-234h-203zM82 0v133l491 737h-452v170h713v-133l-494 -737h526v-170h-784z" />
    <glyph glyph-name="uni1EA0" unicode="&#x1ea0;" horiz-adv-x="1245" 
d="M520 -410v234h203v-234h-203zM868 481l-243 715l-246 -715h489zM922 305h-596l-103 -305h-237l532 1462h211l533 -1462h-238z" />
    <glyph glyph-name="uni1EA1" unicode="&#x1ea1;" horiz-adv-x="1081" 
d="M438 -410v234h203v-234h-203zM715 471h-207q-119 0 -168 -39t-49 -129t46 -125t176 -35t177 62q25 35 25 131v135zM715 618v60q0 115 -48 165t-155 50q-139 0 -229 -105l-144 107q135 166 396 166t348 -164q41 -76 41 -254v-643h-166l-15 68q-49 -48 -113 -68t-179 -20
q-197 0 -278 72t-81 248q0 177 86 248t307 70h230z" />
    <glyph glyph-name="uni1EA2" unicode="&#x1ea2;" horiz-adv-x="1245" 
d="M711 1587h-148v27q2 57 10 83t38 65t30 63q0 43 -49 43t-113 -29l-37 117q98 33 183 33t137 -41t51 -115q0 -35 -11 -57t-45 -64q-34 -40 -40 -60t-6 -65zM868 481l-243 715l-246 -715h489zM922 305h-596l-103 -305h-237l532 1462h211l533 -1462h-238z" />
    <glyph glyph-name="uni1EA3" unicode="&#x1ea3;" horiz-adv-x="1081" 
d="M635 1178h-148v26q2 57 11 82q8 25 38 65t29 64q0 43 -49 43t-113 -28l-36 116q94 33 181 33t138 -41t51 -115q0 -35 -11 -57t-45 -64q-34 -41 -40 -60t-6 -64zM715 471h-207q-119 0 -168 -39t-49 -129t46 -125t176 -35t177 62q25 35 25 131v135zM715 618v60
q0 115 -48 165t-155 50q-139 0 -229 -105l-144 107q135 166 396 166t348 -164q41 -76 41 -254v-643h-166l-15 68q-49 -48 -113 -68t-179 -20q-197 0 -278 72t-81 248q0 177 86 248t307 70h230z" />
    <glyph glyph-name="uni1EA4" unicode="&#x1ea4;" horiz-adv-x="1245" 
d="M623 1673l-127 -114h-199l258 233h135l258 -233h-198zM539 1847l118 236h183l-181 -236h-120zM868 481l-243 715l-246 -715h489zM922 305h-596l-103 -305h-237l532 1462h211l533 -1462h-238z" />
    <glyph glyph-name="uni1EA5" unicode="&#x1ea5;" horiz-adv-x="1081" 
d="M561 1255l-127 -112h-198l258 231h135l258 -231h-199zM477 1430l119 235h182l-180 -235h-121zM715 471h-207q-119 0 -168 -39t-49 -129t46 -125t176 -35t177 62q25 35 25 131v135zM715 618v60q0 115 -48 165t-155 50q-139 0 -229 -105l-144 107q135 166 396 166t348 -164
q41 -76 41 -254v-643h-166l-15 68q-49 -48 -113 -68t-179 -20q-197 0 -278 72t-81 248q0 177 86 248t307 70h230z" />
    <glyph glyph-name="uni1EA6" unicode="&#x1ea6;" horiz-adv-x="1245" 
d="M623 1673l-127 -114h-199l258 233h135l258 -233h-198zM700 1847h-118l-181 236h181zM868 481l-243 715l-246 -715h489zM922 305h-596l-103 -305h-237l532 1462h211l533 -1462h-238z" />
    <glyph glyph-name="uni1EA7" unicode="&#x1ea7;" horiz-adv-x="1081" 
d="M561 1255l-127 -112h-198l258 231h135l258 -231h-199zM639 1430h-119l-180 235h180zM715 471h-207q-119 0 -168 -39t-49 -129t46 -125t176 -35t177 62q25 35 25 131v135zM715 618v60q0 115 -48 165t-155 50q-139 0 -229 -105l-144 107q135 166 396 166t348 -164
q41 -76 41 -254v-643h-166l-15 68q-49 -48 -113 -68t-179 -20q-197 0 -278 72t-81 248q0 177 86 248t307 70h230z" />
    <glyph glyph-name="uni1EA8" unicode="&#x1ea8;" horiz-adv-x="1245" 
d="M618 1669l-126 -110h-199l258 219h135l258 -219h-199zM580 2003q-40 0 -95 -25l-30 95q77 27 151 27t118 -33q44 -32 44 -80t-55 -103q-27 -27 -29 -74h-129q2 54 9 74q8 20 32 49t25 43q-1 27 -41 27zM868 481l-243 715l-246 -715h489zM922 305h-596l-103 -305h-237
l532 1462h211l533 -1462h-238z" />
    <glyph glyph-name="uni1EA9" unicode="&#x1ea9;" horiz-adv-x="1081" 
d="M557 1251l-127 -108h-199l258 217h136l258 -217h-199zM559 1559q0 27 -40 27t-95 -25l-31 94q74 27 150 27t120 -32t44 -87q-1 -27 -11 -44t-40 -48t-33 -78h-129q2 55 9 74t42 59q14 18 14 33zM715 471h-207q-119 0 -168 -39t-49 -129t46 -125t176 -35t177 62
q25 35 25 131v135zM715 618v60q0 115 -48 165t-155 50q-139 0 -229 -105l-144 107q135 166 396 166t348 -164q41 -76 41 -254v-643h-166l-15 68q-49 -48 -113 -68t-179 -20q-197 0 -278 72t-81 248q0 177 86 248t307 70h230z" />
    <glyph glyph-name="uni1EAA" unicode="&#x1eaa;" horiz-adv-x="1245" 
d="M629 1673l-127 -114h-199l258 233h135l258 -233h-198zM517 2075q79 -1 135 -57t83 -56q45 0 62 98h110q-20 -102 -39 -137q-41 -82 -123 -82q-82 1 -136 57t-81 56t-48 -27t-29 -72h-111q23 92 45 136q53 84 132 84zM868 481l-243 715l-246 -715h489zM922 305h-596
l-103 -305h-237l532 1462h211l533 -1462h-238z" />
    <glyph glyph-name="uni1EAB" unicode="&#x1eab;" horiz-adv-x="1081" 
d="M551 1255l-127 -112h-199l258 231h135l261 -231h-199zM453 1659q67 0 123 -56t81 -57q47 0 64 99h110q-20 -98 -38 -140q-41 -82 -125 -82q-84 1 -137 57q-54 56 -80 56q-53 0 -78 -98h-109q25 104 45 137q49 84 144 84zM715 471h-207q-119 0 -168 -39t-49 -129t46 -125
t176 -35t177 62q25 35 25 131v135zM715 618v60q0 115 -48 165t-155 50q-139 0 -229 -105l-144 107q135 166 396 166t348 -164q41 -76 41 -254v-643h-166l-15 68q-49 -48 -113 -68t-179 -20q-197 0 -278 72t-81 248q0 177 86 248t307 70h230z" />
    <glyph glyph-name="uni1EAC" unicode="&#x1eac;" horiz-adv-x="1245" 
d="M520 -410v234h203v-234h-203zM623 1776l-131 -164h-209l268 291h143l267 -291h-209zM868 481l-243 715l-246 -715h489zM922 305h-596l-103 -305h-237l532 1462h211l533 -1462h-238z" />
    <glyph glyph-name="uni1EAD" unicode="&#x1ead;" horiz-adv-x="1081" 
d="M438 -410v234h203v-234h-203zM541 1358l-129 -162h-209l266 289h143l269 -289h-209zM715 471h-207q-119 0 -168 -39t-49 -129t46 -125t176 -35t177 62q25 35 25 131v135zM715 618v60q0 115 -48 165t-155 50q-139 0 -229 -105l-144 107q135 166 396 166t348 -164
q41 -76 41 -254v-643h-166l-15 68q-49 -48 -113 -68t-179 -20q-197 0 -278 72t-81 248q0 177 86 248t307 70h230z" />
    <glyph glyph-name="uni1EAE" unicode="&#x1eae;" horiz-adv-x="1245" 
d="M324 1827h129q8 -74 46 -103q38 -28 123 -28q84 0 122 28t49 103h129q-8 -125 -37 -170q-71 -105 -273 -105t-262 123q-20 46 -26 152zM539 1847l118 236h183l-181 -236h-120zM868 481l-243 715l-246 -715h489zM922 305h-596l-103 -305h-237l532 1462h211l533 -1462h-238
z" />
    <glyph glyph-name="uni1EAF" unicode="&#x1eaf;" horiz-adv-x="1081" 
d="M546 1278q85 0 122 30t47 101h129q-4 -119 -37 -170q-65 -104 -269 -104t-264 122q-22 43 -28 152h129q10 -75 48 -103t123 -28zM463 1430l119 235h180l-180 -235h-119zM715 471h-207q-119 0 -168 -39t-49 -129t46 -125t176 -35t177 62q25 35 25 131v135zM715 618v60
q0 115 -48 165t-155 50q-139 0 -229 -105l-144 107q135 166 396 166t348 -164q41 -76 41 -254v-643h-166l-15 68q-49 -48 -113 -68t-179 -20q-197 0 -278 72t-81 248q0 177 86 248t307 70h230z" />
    <glyph glyph-name="uni1EB0" unicode="&#x1eb0;" horiz-adv-x="1245" 
d="M324 1827h129q8 -74 46 -103q38 -28 123 -28q84 0 122 28t49 103h129q-8 -125 -37 -170q-71 -105 -273 -105t-262 123q-20 46 -26 152zM713 1847h-121l-180 236h182zM868 481l-243 715l-246 -715h489zM922 305h-596l-103 -305h-237l532 1462h211l533 -1462h-238z" />
    <glyph glyph-name="uni1EB1" unicode="&#x1eb1;" horiz-adv-x="1081" 
d="M546 1278q85 0 122 30t47 101h129q-4 -119 -37 -170q-65 -104 -269 -104t-264 122q-22 43 -28 152h129q10 -75 48 -103t123 -28zM643 1430h-121l-180 235h182zM715 471h-207q-119 0 -168 -39t-49 -129t46 -125t176 -35t177 62q25 35 25 131v135zM715 618v60
q0 115 -48 165t-155 50q-139 0 -229 -105l-144 107q135 166 396 166t348 -164q41 -76 41 -254v-643h-166l-15 68q-49 -48 -113 -68t-179 -20q-197 0 -278 72t-81 248q0 177 86 248t307 70h230z" />
    <glyph glyph-name="uni1EB2" unicode="&#x1eb2;" horiz-adv-x="1245" 
d="M324 1827h127q10 -78 48 -107q38 -28 124 -28q85 0 123 30t49 105h127q-8 -125 -37 -170q-71 -105 -273 -105t-262 123q-20 46 -26 152zM555 1796q0 54 7 74q8 20 32 52t24 48q0 33 -39 33t-94 -25l-32 93q69 29 147 29t122 -35q44 -34 44 -93q0 -25 -8 -40t-42 -51
t-32 -85h-129zM868 481l-243 715l-246 -715h489zM922 305h-596l-103 -305h-237l532 1462h211l533 -1462h-238z" />
    <glyph glyph-name="uni1EB3" unicode="&#x1eb3;" horiz-adv-x="1081" 
d="M545 1274q86 0 125 30t47 105h127q-4 -119 -37 -170q-65 -104 -269 -104t-264 122q-22 43 -28 152h127q10 -75 48 -105t124 -30zM606 1378h-129q2 54 9 74q8 20 32 51t25 47q0 33 -40 33t-93 -22l-33 94q73 27 149 27t120 -34q44 -32 44 -92q0 -27 -9 -42t-42 -49
t-33 -87zM715 471h-207q-119 0 -168 -39t-49 -129t46 -125t176 -35t177 62q25 35 25 131v135zM715 618v60q0 115 -48 165t-155 50q-139 0 -229 -105l-144 107q135 166 396 166t348 -164q41 -76 41 -254v-643h-166l-15 68q-49 -48 -113 -68t-179 -20q-197 0 -278 72t-81 248
q0 177 86 248t307 70h230z" />
    <glyph glyph-name="uni1EB4" unicode="&#x1eb4;" horiz-adv-x="1245" 
d="M317 1806h123q8 -68 46 -94t122 -26t121 26t47 94h123q-4 -109 -35 -157q-66 -97 -264 -97t-256 113q-21 43 -27 141zM516 2093q68 0 123 -56t84 -57q43 0 61 99h111q-23 -104 -39 -137q-41 -82 -124 -82t-137 56t-81 56q-55 0 -78 -98h-108q23 98 45 135q47 84 143 84z
M868 481l-243 715l-246 -715h489zM922 305h-596l-103 -305h-237l532 1462h211l533 -1462h-238z" />
    <glyph glyph-name="uni1EB5" unicode="&#x1eb5;" horiz-adv-x="1081" 
d="M540 1137q-198 0 -257 112q-21 44 -27 142h123q8 -68 46 -95q38 -26 122 -26t121 26t47 95h123q-4 -109 -35 -158q-65 -96 -263 -96zM455 1677q68 0 124 -56t83 -56q43 0 61 98h111q-23 -104 -39 -139q-41 -82 -124 -82t-137 56t-81 56q-53 0 -78 -98h-109q25 102 45 137
q49 84 144 84zM715 471h-207q-119 0 -168 -39t-49 -129t46 -125t176 -35t177 62q25 35 25 131v135zM715 618v60q0 115 -48 165t-155 50q-139 0 -229 -105l-144 107q135 166 396 166t348 -164q41 -76 41 -254v-643h-166l-15 68q-49 -48 -113 -68t-179 -20q-197 0 -278 72
t-81 248q0 177 86 248t307 70h230z" />
    <glyph glyph-name="uni1EB6" unicode="&#x1eb6;" horiz-adv-x="1245" 
d="M520 -410v234h203v-234h-203zM623 1747q88 0 126 33t48 114h137q-8 -131 -39 -186q-69 -115 -281 -115t-274 136q-23 46 -29 165h135q10 -84 50 -116t127 -31zM868 481l-243 715l-246 -715h489zM922 305h-596l-103 -305h-237l532 1462h211l533 -1462h-238z" />
    <glyph glyph-name="uni1EB7" unicode="&#x1eb7;" horiz-adv-x="1081" 
d="M438 -410v234h203v-234h-203zM559 1329q88 0 127 33t49 117h135q-6 -131 -39 -187q-69 -116 -281 -116t-274 135q-24 55 -28 168h135q12 -84 50 -117t126 -33zM715 471h-207q-119 0 -168 -39t-49 -129t46 -125t176 -35t177 62q25 35 25 131v135zM715 618v60
q0 115 -48 165t-155 50q-139 0 -229 -105l-144 107q135 166 396 166t348 -164q41 -76 41 -254v-643h-166l-15 68q-49 -48 -113 -68t-179 -20q-197 0 -278 72t-81 248q0 177 86 248t307 70h230z" />
    <glyph glyph-name="uni1EB8" unicode="&#x1eb8;" horiz-adv-x="1187" 
d="M545 -410v234h203v-234h-203zM199 0v1462h876v-180h-659v-453h561v-180h-561v-469h665v-180h-882z" />
    <glyph glyph-name="uni1EB9" unicode="&#x1eb9;" horiz-adv-x="1118" 
d="M457 -410v234h202v-234h-202zM803 641q0 259 -242 259q-125 0 -178 -93q-41 -68 -41 -168v-18h461v20zM342 434q0 -289 268 -289q136 0 215 105l156 -92q-63 -94 -157 -136t-244 -42q-231 0 -339 118t-108 375v80q1 268 103 388t331 120t331 -120t103 -388v-82h-659v-37z
" />
    <glyph glyph-name="uni1EBA" unicode="&#x1eba;" horiz-adv-x="1187" 
d="M590 1587v27q2 59 10 84t47 76q18 27 19 51q0 43 -50 43t-112 -29l-35 117q96 33 181 33t136 -41t52 -115q0 -35 -12 -57t-45 -63q-34 -43 -39 -61t-7 -65h-145zM199 0v1462h876v-180h-659v-453h561v-180h-561v-469h665v-180h-882z" />
    <glyph glyph-name="uni1EBB" unicode="&#x1ebb;" horiz-adv-x="1118" 
d="M538 1458q-50 0 -112 -28l-35 116q94 33 180 33q85 0 137 -41t52 -115q0 -35 -11 -57t-45 -64q-34 -41 -39 -60q-6 -19 -8 -64h-147q2 78 9 102t37 69q30 44 32 66q0 43 -50 43zM803 641q0 259 -242 259q-125 0 -178 -93q-41 -68 -41 -168v-18h461v20zM342 434
q0 -289 268 -289q136 0 215 105l156 -92q-63 -94 -157 -136t-244 -42q-231 0 -339 118t-108 375v80q1 268 103 388t331 120t331 -120t103 -388v-82h-659v-37z" />
    <glyph glyph-name="uni1EBC" unicode="&#x1ebc;" horiz-adv-x="1187" 
d="M522 1890q82 0 154 -63q49 -41 67 -52t43 -11t42 24q17 25 32 88h129q-23 -117 -45 -162q-49 -100 -164 -100q-86 0 -156 63t-104 64q-59 0 -86 -113h-129q29 121 51 160q57 102 166 102zM199 0v1462h876v-180h-659v-453h561v-180h-561v-469h665v-180h-882z" />
    <glyph glyph-name="uni1EBD" unicode="&#x1ebd;" horiz-adv-x="1118" 
d="M698 1346q25 0 42 24t32 88h129q-27 -125 -45 -162q-49 -100 -164 -100q-86 0 -158 64t-102 65q-61 0 -86 -115h-129q29 123 51 162q57 102 166 103q82 1 142 -53t79 -65q18 -11 43 -11zM803 641q0 259 -242 259q-125 0 -178 -93q-41 -68 -41 -168v-18h461v20zM342 434
q0 -289 268 -289q136 0 215 105l156 -92q-63 -94 -157 -136t-244 -42q-231 0 -339 118t-108 375v80q1 268 103 388t331 120t331 -120t103 -388v-82h-659v-37z" />
    <glyph glyph-name="uni1EBE" unicode="&#x1ebe;" horiz-adv-x="1187" 
d="M647 1673l-127 -114h-198l258 233h135l258 -233h-199zM565 1847l119 236h180l-180 -236h-119zM199 0v1462h876v-180h-659v-453h561v-180h-561v-469h665v-180h-882z" />
    <glyph glyph-name="uni1EBF" unicode="&#x1ebf;" horiz-adv-x="1118" 
d="M571 1255l-127 -112h-198l258 231h135l258 -231h-199zM489 1430l119 235h180l-180 -235h-119zM803 641q0 259 -242 259q-125 0 -178 -93q-41 -68 -41 -168v-18h461v20zM342 434q0 -289 268 -289q136 0 215 105l156 -92q-63 -94 -157 -136t-244 -42q-231 0 -339 118
t-108 375v80q1 268 103 388t331 120t331 -120t103 -388v-82h-659v-37z" />
    <glyph glyph-name="uni1EC0" unicode="&#x1ec0;" horiz-adv-x="1187" 
d="M647 1673l-127 -114h-198l258 233h135l258 -233h-199zM727 1847h-119l-182 236h182zM199 0v1462h876v-180h-659v-453h561v-180h-561v-469h665v-180h-882z" />
    <glyph glyph-name="uni1EC1" unicode="&#x1ec1;" horiz-adv-x="1118" 
d="M571 1255l-127 -112h-198l258 231h135l258 -231h-199zM651 1430h-119l-182 235h182zM803 641q0 259 -242 259q-125 0 -178 -93q-41 -68 -41 -168v-18h461v20zM342 434q0 -289 268 -289q136 0 215 105l156 -92q-63 -94 -157 -136t-244 -42q-231 0 -339 118t-108 375v80
q1 268 103 388t331 120t331 -120t103 -388v-82h-659v-37z" />
    <glyph glyph-name="uni1EC2" unicode="&#x1ec2;" horiz-adv-x="1187" 
d="M643 1669l-127 -110h-199l258 219h136l258 -219h-197zM711 1810h-129q0 52 7 72t31 50t25 44q0 27 -39 27t-94 -25l-33 95q80 27 153 27t117 -33q44 -32 44 -87q-1 -27 -11 -44q-10 -18 -36 -44t-31 -38q-4 -12 -4 -44zM199 0v1462h876v-180h-659v-453h561v-180h-561
v-469h665v-180h-882z" />
    <glyph glyph-name="uni1EC3" unicode="&#x1ec3;" horiz-adv-x="1118" 
d="M567 1251l-127 -108h-198l258 217h135l258 -217h-199zM569 1559q0 27 -41 27t-92 -25l-33 94q78 27 152 27t118 -32t44 -87q0 -27 -10 -44t-41 -48t-33 -78h-129q2 51 9 70t31 50t25 46zM803 641q0 259 -242 259q-125 0 -178 -93q-41 -68 -41 -168v-18h461v20zM342 434
q0 -289 268 -289q136 0 215 105l156 -92q-63 -94 -157 -136t-244 -42q-231 0 -339 118t-108 375v80q1 268 103 388t331 120t331 -120t103 -388v-82h-659v-37z" />
    <glyph glyph-name="uni1EC4" unicode="&#x1ec4;" horiz-adv-x="1187" 
d="M653 1673l-127 -114h-198l258 233h135l260 -233h-199zM555 2075q68 -1 123 -57t82 -56q47 0 63 98h111q-18 -94 -39 -137q-41 -82 -124 -82q-83 1 -137 57t-81 56q-53 -1 -78 -99h-108q23 98 45 136q49 84 143 84zM199 0v1462h876v-180h-659v-453h561v-180h-561v-469h665
v-180h-882z" />
    <glyph glyph-name="uni1EC5" unicode="&#x1ec5;" horiz-adv-x="1118" 
d="M569 1255l-127 -112h-198l258 231h135l258 -231h-199zM458 1659q79 0 135 -56t83 -57q41 0 61 99h111q-18 -94 -39 -140q-41 -82 -123 -82q-82 1 -136 57t-81 56t-49 -26t-29 -72h-110q23 94 45 137q53 84 132 84zM803 641q0 259 -242 259q-125 0 -178 -93
q-41 -68 -41 -168v-18h461v20zM342 434q0 -289 268 -289q136 0 215 105l156 -92q-63 -94 -157 -136t-244 -42q-231 0 -339 118t-108 375v80q1 268 103 388t331 120t331 -120t103 -388v-82h-659v-37z" />
    <glyph glyph-name="uni1EC6" unicode="&#x1ec6;" horiz-adv-x="1187" 
d="M545 -410v234h203v-234h-203zM641 1776l-131 -164h-209l268 291h144l266 -291h-207zM199 0v1462h876v-180h-659v-453h561v-180h-561v-469h665v-180h-882z" />
    <glyph glyph-name="uni1EC7" unicode="&#x1ec7;" horiz-adv-x="1118" 
d="M457 -410v234h202v-234h-202zM575 1358l-131 -162h-206l266 289h143l268 -289h-208zM803 641q0 259 -242 259q-125 0 -178 -93q-41 -68 -41 -168v-18h461v20zM342 434q0 -289 268 -289q136 0 215 105l156 -92q-63 -94 -157 -136t-244 -42q-231 0 -339 118t-108 375v80
q1 268 103 388t331 120t331 -120t103 -388v-82h-659v-37z" />
    <glyph glyph-name="uni1EC8" unicode="&#x1ec8;" horiz-adv-x="612" 
d="M395 1587h-147q0 78 8 104t38 68t30 66q0 43 -58 43q-37 0 -102 -29l-37 117q98 33 182 33t135 -41t52 -115q0 -35 -12 -57t-44 -63q-33 -41 -39 -61t-6 -65zM197 0v1462h219v-1462h-219z" />
    <glyph glyph-name="uni1EC9" unicode="&#x1ec9;" horiz-adv-x="540" 
d="M360 1178h-147q0 78 8 104t49 82q18 29 19 51q-1 43 -51 43t-109 -28l-37 116q94 33 180 33t138 -41t51 -115q0 -35 -11 -57q-10 -22 -44 -64q-34 -41 -40 -60t-6 -64zM166 0v1040h209v-1040h-209z" />
    <glyph glyph-name="uni1ECA" unicode="&#x1eca;" horiz-adv-x="612" 
d="M203 -410v234h203v-234h-203zM197 0v1462h219v-1462h-219z" />
    <glyph glyph-name="uni1ECB" unicode="&#x1ecb;" horiz-adv-x="540" 
d="M168 -410v234h203v-234h-203zM166 0v1040h209v-1040h-209zM166 1235v238h209v-238h-209z" />
    <glyph glyph-name="uni1ECC" unicode="&#x1ecc;" horiz-adv-x="1378" 
d="M586 -410v234h202v-234h-202zM997 573v316q0 219 -72 317q-73 98 -236 98t-235 -98t-73 -317v-316q0 -219 73 -317q74 -98 236 -98t235 98q72 98 72 317zM162 553v356q0 158 27 254q28 96 94 168q137 152 417 152t416 -176q100 -129 101 -398v-356q0 -158 -28 -255
t-93 -167q-137 -151 -418 -151t-416 176q-100 129 -100 397z" />
    <glyph glyph-name="uni1ECD" unicode="&#x1ecd;" horiz-adv-x="1142" 
d="M469 -410v234h203v-234h-203zM803 455v131q0 160 -55 234q-56 74 -176 73q-120 0 -175 -74t-55 -233v-131q0 -160 55 -234t175 -74t176 74q55 74 55 234zM133 440v160q-1 240 105 350t334 111q228 0 334 -111t106 -350v-160q0 -240 -106 -350t-334 -110t-334 110
t-105 350z" />
    <glyph glyph-name="uni1ECE" unicode="&#x1ece;" horiz-adv-x="1378" 
d="M778 1587h-147q0 76 8 103q7 27 37 69t31 66q-1 43 -51 43t-109 -29l-37 117q98 33 182 33t135 -41t52 -115q1 -35 -11 -57t-55 -74q-23 -30 -29 -50t-6 -65zM997 573v316q0 219 -72 317q-73 98 -236 98t-235 -98t-73 -317v-316q0 -219 73 -317q74 -98 236 -98t235 98
q72 98 72 317zM162 553v356q0 158 27 254q28 96 94 168q137 152 417 152t416 -176q100 -129 101 -398v-356q0 -158 -28 -255t-93 -167q-137 -151 -418 -151t-416 176q-100 129 -100 397z" />
    <glyph glyph-name="uni1ECF" unicode="&#x1ecf;" horiz-adv-x="1142" 
d="M662 1178h-148v26q2 57 10 82t47 78q18 29 19 51q0 43 -50 43t-110 -28l-37 116q94 33 180 33q85 0 137 -41t52 -115q0 -35 -11 -57t-45 -64q-34 -41 -38 -60q-6 -19 -6 -64zM803 455v131q0 160 -55 234q-56 74 -176 73q-120 0 -175 -74t-55 -233v-131q0 -160 55 -234
t175 -74t176 74q55 74 55 234zM133 440v160q-1 240 105 350t334 111q228 0 334 -111t106 -350v-160q0 -240 -106 -350t-334 -110t-334 110t-105 350z" />
    <glyph glyph-name="uni1ED0" unicode="&#x1ed0;" horiz-adv-x="1378" 
d="M690 1673l-129 -114h-196l256 233h137l258 -233h-199zM606 1847l119 236h182l-180 -236h-121zM997 573v316q0 219 -72 317q-73 98 -236 98t-235 -98t-73 -317v-316q0 -219 73 -317q74 -98 236 -98t235 98q72 98 72 317zM162 553v356q0 158 27 254q28 96 94 168
q137 152 417 152t416 -176q100 -129 101 -398v-356q0 -158 -28 -255t-93 -167q-137 -151 -418 -151t-416 176q-100 129 -100 397z" />
    <glyph glyph-name="uni1ED1" unicode="&#x1ed1;" horiz-adv-x="1142" 
d="M571 1255l-127 -112h-198l258 231h135l258 -231h-197zM489 1430l119 235h183l-183 -235h-119zM803 455v131q0 160 -55 234q-56 74 -176 73q-120 0 -175 -74t-55 -233v-131q0 -160 55 -234t175 -74t176 74q55 74 55 234zM133 440v160q-1 240 105 350t334 111
q228 0 334 -111t106 -350v-160q0 -240 -106 -350t-334 -110t-334 110t-105 350z" />
    <glyph glyph-name="uni1ED2" unicode="&#x1ed2;" horiz-adv-x="1378" 
d="M690 1673l-129 -114h-199l261 233h135l258 -233h-199zM768 1847h-119l-180 236h180zM997 573v316q0 219 -72 317q-73 98 -236 98t-235 -98t-73 -317v-316q0 -219 73 -317q74 -98 236 -98t235 98q72 98 72 317zM162 553v356q0 158 27 254q28 96 94 168q137 152 417 152
t416 -176q100 -129 101 -398v-356q0 -158 -28 -255t-93 -167q-137 -151 -418 -151t-416 176q-100 129 -100 397z" />
    <glyph glyph-name="uni1ED3" unicode="&#x1ed3;" horiz-adv-x="1142" 
d="M571 1255l-127 -112h-198l258 231h137l256 -231h-197zM651 1430h-119l-182 235h182zM803 455v131q0 160 -55 234q-56 74 -176 73q-120 0 -175 -74t-55 -233v-131q0 -160 55 -234t175 -74t176 74q55 74 55 234zM133 440v160q-1 240 105 350t334 111q228 0 334 -111
t106 -350v-160q0 -240 -106 -350t-334 -110t-334 110t-105 350z" />
    <glyph glyph-name="uni1ED4" unicode="&#x1ed4;" horiz-adv-x="1378" 
d="M686 1669l-129 -110h-197l256 219h138l258 -219h-199zM686 1978q0 25 -41 25t-92 -25l-31 95q78 27 151 27t117 -33q44 -32 44 -80t-54 -103q-18 -18 -22 -28t-6 -46h-129q2 54 9 74q6 20 30 49t24 45zM997 573v316q0 219 -72 317q-73 98 -236 98t-235 -98t-73 -317v-316
q0 -219 73 -317q74 -98 236 -98t235 98q72 98 72 317zM162 553v356q0 158 27 254q28 96 94 168q137 152 417 152t416 -176q100 -129 101 -398v-356q0 -158 -28 -255t-93 -167q-137 -151 -418 -151t-416 176q-100 129 -100 397z" />
    <glyph glyph-name="uni1ED5" unicode="&#x1ed5;" horiz-adv-x="1142" 
d="M567 1251l-127 -108h-198l258 217h135l260 -217h-199zM635 1393h-129q2 53 9 72t31 49t23 45q0 27 -39 27t-94 -25l-33 94q78 27 152 27t118 -32t44 -80t-55 -104q-18 -18 -22 -29t-5 -44zM803 455v131q0 160 -55 234q-56 74 -176 73q-120 0 -175 -74t-55 -233v-131
q0 -160 55 -234t175 -74t176 74q55 74 55 234zM133 440v160q-1 240 105 350t334 111q228 0 334 -111t106 -350v-160q0 -240 -106 -350t-334 -110t-334 110t-105 350z" />
    <glyph glyph-name="uni1ED6" unicode="&#x1ed6;" horiz-adv-x="1378" 
d="M696 1673l-127 -114h-198l258 233h135l258 -233h-199zM584 2075q78 -1 135 -57t84 -56q45 0 61 98h111q-18 -96 -39 -137q-41 -82 -123 -82q-82 1 -137 57t-81 56q-25 0 -47 -27t-30 -72h-110q23 92 45 136q53 84 131 84zM997 573v316q0 219 -72 317q-73 98 -236 98
t-235 -98t-73 -317v-316q0 -219 73 -317q74 -98 236 -98t235 98q72 98 72 317zM162 553v356q0 158 27 254q28 96 94 168q137 152 417 152t416 -176q100 -129 101 -398v-356q0 -158 -28 -255t-93 -167q-137 -151 -418 -151t-416 176q-100 129 -100 397z" />
    <glyph glyph-name="uni1ED7" unicode="&#x1ed7;" horiz-adv-x="1142" 
d="M580 1255l-129 -112h-197l256 231h137l258 -231h-198zM479 1659q68 0 124 -56t83 -57q45 0 62 99h110q-18 -94 -39 -140q-41 -82 -124 -82q-83 1 -137 57t-80 56t-48 -26t-29 -72h-110q25 96 45 137q49 84 143 84zM803 455v131q0 160 -55 234q-56 74 -176 73
q-120 0 -175 -74t-55 -233v-131q0 -160 55 -234t175 -74t176 74q55 74 55 234zM133 440v160q-1 240 105 350t334 111q228 0 334 -111t106 -350v-160q0 -240 -106 -350t-334 -110t-334 110t-105 350z" />
    <glyph glyph-name="uni1ED8" unicode="&#x1ed8;" horiz-adv-x="1378" 
d="M586 -410v234h202v-234h-202zM690 1776l-131 -164h-209l266 291h144l268 -291h-209zM997 573v316q0 219 -72 317q-73 98 -236 98t-235 -98t-73 -317v-316q0 -219 73 -317q74 -98 236 -98t235 98q72 98 72 317zM162 553v356q0 158 27 254q28 96 94 168q137 152 417 152
t416 -176q100 -129 101 -398v-356q0 -158 -28 -255t-93 -167q-137 -151 -418 -151t-416 176q-100 129 -100 397z" />
    <glyph glyph-name="uni1ED9" unicode="&#x1ed9;" horiz-adv-x="1142" 
d="M469 -410v234h203v-234h-203zM571 1358l-129 -162h-209l267 289h143l268 -289h-209zM803 455v131q0 160 -55 234q-56 74 -176 73q-120 0 -175 -74t-55 -233v-131q0 -160 55 -234t175 -74t176 74q55 74 55 234zM133 440v160q-1 240 105 350t334 111q228 0 334 -111
t106 -350v-160q0 -240 -106 -350t-334 -110t-334 110t-105 350z" />
    <glyph glyph-name="uni1EDA" unicode="&#x1eda;" horiz-adv-x="1443" 
d="M616 1606l160 303h244l-248 -303h-156zM997 573v316q0 217 -72 315q-73 98 -236 98t-235 -98t-73 -315v-316q0 -219 73 -317q74 -98 236 -98t235 98q72 98 72 317zM1217 553q0 -158 -28 -255t-93 -167q-137 -151 -418 -151t-416 176q-100 129 -100 397v356q0 158 27 254
q28 96 94 168q139 152 405 152q383 0 492 -297q70 45 98 87q28 41 27 99q0 58 -31 113h184q14 -49 15 -86q0 -141 -121 -240q-37 -31 -148 -96q12 -70 13 -154v-356z" />
    <glyph glyph-name="uni1EDB" unicode="&#x1edb;" horiz-adv-x="1216" 
d="M494 1190l161 301h242l-246 -301h-157zM803 455v131q0 160 -55 234q-56 74 -176 73q-120 0 -175 -74t-55 -233v-131q0 -160 55 -234t175 -74t176 74q55 74 55 234zM1012 565v-125q0 -240 -106 -350t-334 -110t-333 110t-106 350v160q1 242 107 352t338 109
q348 0 415 -283q59 51 79 84q20 34 20 90t-31 109h184q14 -49 15 -90q0 -100 -58 -173t-194 -151q4 -74 4 -82z" />
    <glyph glyph-name="uni1EDC" unicode="&#x1edc;" horiz-adv-x="1443" 
d="M858 1606h-156l-245 303h241zM997 573v316q0 217 -72 315q-73 98 -236 98t-235 -98t-73 -315v-316q0 -219 73 -317q74 -98 236 -98t235 98q72 98 72 317zM1217 553q0 -158 -28 -255t-93 -167q-137 -151 -418 -151t-416 176q-100 129 -100 397v356q0 158 27 254
q28 96 94 168q139 152 405 152q383 0 492 -297q70 45 98 87q28 41 27 99q0 58 -31 113h184q14 -49 15 -86q0 -141 -121 -240q-37 -31 -148 -96q12 -70 13 -154v-356z" />
    <glyph glyph-name="uni1EDD" unicode="&#x1edd;" horiz-adv-x="1216" 
d="M743 1190h-155l-246 301h242zM803 455v131q0 160 -55 234q-56 74 -176 73q-120 0 -175 -74t-55 -233v-131q0 -160 55 -234t175 -74t176 74q55 74 55 234zM1012 565v-125q0 -240 -106 -350t-334 -110t-333 110t-106 350v160q1 242 107 352t338 109q348 0 415 -283
q59 51 79 84q20 34 20 90t-31 109h184q14 -49 15 -90q0 -100 -58 -173t-194 -151q4 -74 4 -82z" />
    <glyph glyph-name="uni1EDE" unicode="&#x1ede;" horiz-adv-x="1443" 
d="M788 1587h-147q2 78 9 104t48 83q18 31 19 51q-1 43 -49 43t-111 -29l-37 117q98 33 182 33t136 -41t51 -115q0 -35 -11 -57q-10 -22 -44 -63t-40 -61t-6 -65zM997 573v316q0 217 -72 315q-73 98 -236 98t-235 -98t-73 -315v-316q0 -219 73 -317q74 -98 236 -98t235 98
q72 98 72 317zM1217 553q0 -158 -28 -255t-93 -167q-137 -151 -418 -151t-416 176q-100 129 -100 397v356q0 158 27 254q28 96 94 168q139 152 405 152q383 0 492 -297q70 45 98 87q28 41 27 99q0 58 -31 113h184q14 -49 15 -86q0 -141 -121 -240q-37 -31 -148 -96
q12 -70 13 -154v-356z" />
    <glyph glyph-name="uni1EDF" unicode="&#x1edf;" horiz-adv-x="1216" 
d="M686 1178h-147q0 78 8 102t49 84q18 31 18 51q0 43 -48 43t-111 -28l-37 116q94 33 180 33t137 -41t51 -115q0 -35 -11 -57t-44 -64q-33 -41 -39 -60t-6 -64zM803 455v131q0 160 -55 234q-56 74 -176 73q-120 0 -175 -74t-55 -233v-131q0 -160 55 -234t175 -74t176 74
q55 74 55 234zM1012 565v-125q0 -240 -106 -350t-334 -110t-333 110t-106 350v160q1 242 107 352t338 109q348 0 415 -283q59 51 79 84q20 34 20 90t-31 109h184q14 -49 15 -90q0 -100 -58 -173t-194 -151q4 -74 4 -82z" />
    <glyph glyph-name="uni1EE0" unicode="&#x1ee0;" horiz-adv-x="1443" 
d="M590 1890q82 0 153 -63q76 -63 107 -64q55 0 78 113h131q-27 -121 -47 -162q-49 -100 -164 -100q-82 0 -162 67q-63 59 -95 59q-65 1 -87 -112h-131q29 117 51 160q57 102 166 102zM997 573v316q0 217 -72 315q-73 98 -236 98t-235 -98t-73 -315v-316q0 -219 73 -317
q74 -98 236 -98t235 98q72 98 72 317zM1217 553q0 -158 -28 -255t-93 -167q-137 -151 -418 -151t-416 176q-100 129 -100 397v356q0 158 27 254q28 96 94 168q139 152 405 152q383 0 492 -297q70 45 98 87q28 41 27 99q0 58 -31 113h184q14 -49 15 -86q0 -141 -121 -240
q-37 -31 -148 -96q12 -70 13 -154v-356z" />
    <glyph glyph-name="uni1EE1" unicode="&#x1ee1;" horiz-adv-x="1216" 
d="M743 1346q25 0 42 26t32 86h129q-25 -119 -45 -162q-49 -100 -164 -100q-86 0 -158 64t-104 65q-59 0 -84 -115h-129q29 125 51 162q53 102 166 103q83 1 143 -53t78 -65t43 -11zM803 455v131q0 160 -55 234q-56 74 -176 73q-120 0 -175 -74t-55 -233v-131
q0 -160 55 -234t175 -74t176 74q55 74 55 234zM1012 565v-125q0 -240 -106 -350t-334 -110t-333 110t-106 350v160q1 242 107 352t338 109q348 0 415 -283q59 51 79 84q20 34 20 90t-31 109h184q14 -49 15 -90q0 -100 -58 -173t-194 -151q4 -74 4 -82z" />
    <glyph glyph-name="uni1EE2" unicode="&#x1ee2;" horiz-adv-x="1443" 
d="M565 -410v234h203v-234h-203zM997 573v316q0 217 -72 315q-73 98 -236 98t-235 -98t-73 -315v-316q0 -219 73 -317q74 -98 236 -98t235 98q72 98 72 317zM1217 553q0 -158 -28 -255t-93 -167q-137 -151 -418 -151t-416 176q-100 129 -100 397v356q0 158 27 254
q28 96 94 168q139 152 405 152q383 0 492 -297q70 45 98 87q28 41 27 99q0 58 -31 113h184q14 -49 15 -86q0 -141 -121 -240q-37 -31 -148 -96q12 -70 13 -154v-356z" />
    <glyph glyph-name="uni1EE3" unicode="&#x1ee3;" horiz-adv-x="1216" 
d="M463 -410v234h203v-234h-203zM803 455v131q0 160 -55 234q-56 74 -176 73q-120 0 -175 -74t-55 -233v-131q0 -160 55 -234t175 -74t176 74q55 74 55 234zM1012 565v-125q0 -240 -106 -350t-334 -110t-333 110t-106 350v160q1 242 107 352t338 109q348 0 415 -283
q59 51 79 84q20 34 20 90t-31 109h184q14 -49 15 -90q0 -100 -58 -173t-194 -151q4 -74 4 -82z" />
    <glyph glyph-name="uni1EE4" unicode="&#x1ee4;" horiz-adv-x="1406" 
d="M602 -410v234h203v-234h-203zM190 1462h220v-921q0 -184 45 -265q72 -118 256 -118t252 137q35 76 34 246v921h220v-921q1 -160 -19 -244t-72 -147q-132 -170 -434 -170t-432 194q-39 61 -54 140t-16 227v921z" />
    <glyph glyph-name="uni1EE5" unicode="&#x1ee5;" horiz-adv-x="1140" 
d="M467 -410v234h203v-234h-203zM158 1040h209v-575q0 -164 45 -236q44 -71 152 -71t155 80t47 270v532h209v-1040h-152l-22 106q-80 -127 -275 -126q-266 0 -338 200q-31 86 -30 264v596z" />
    <glyph glyph-name="uni1EE6" unicode="&#x1ee6;" horiz-adv-x="1406" 
d="M793 1587h-148q2 78 9 104t48 83q18 31 19 51q0 43 -50 43t-110 -29l-37 117q98 33 182 33t136 -41t51 -115q0 -35 -11 -57t-55 -74q-23 -30 -29 -50t-5 -65zM190 1462h220v-921q0 -184 45 -265q72 -118 256 -118t252 137q35 76 34 246v921h220v-921q1 -160 -19 -244
t-72 -147q-132 -170 -434 -170t-432 194q-39 61 -54 140t-16 227v921z" />
    <glyph glyph-name="uni1EE7" unicode="&#x1ee7;" horiz-adv-x="1140" 
d="M659 1178h-147q0 76 8 102t49 84q18 29 19 51q0 43 -48 43t-112 -28l-37 116q94 33 180 33q85 0 137 -41t52 -115q0 -35 -11 -57t-45 -64q-34 -41 -39 -60q-6 -19 -6 -64zM158 1040h209v-575q0 -164 45 -236q44 -71 152 -71t155 80t47 270v532h209v-1040h-152l-22 106
q-80 -127 -275 -126q-266 0 -338 200q-31 86 -30 264v596z" />
    <glyph glyph-name="uni1EE8" unicode="&#x1ee8;" horiz-adv-x="1513" 
d="M647 1606l160 303h244l-246 -303h-158zM190 1462h220v-921q0 -184 45 -265q72 -118 256 -118t252 137q35 76 34 246v921h220v-309q98 45 139 94t41 113t-31 125h184q14 -43 15 -90q0 -156 -164 -273q-49 -35 -184 -104v-477q1 -160 -19 -244t-72 -147
q-132 -170 -434 -170t-432 194q-39 61 -54 140t-16 227v921z" />
    <glyph glyph-name="uni1EE9" unicode="&#x1ee9;" horiz-adv-x="1263" 
d="M500 1190l159 301h244l-246 -301h-157zM158 1040h209v-573q0 -166 45 -238q44 -71 152 -71t155 80t47 270v532h209v-311q102 49 142 97t40 114t-33 121h185q16 -49 16 -90q0 -154 -166 -273q-47 -33 -184 -104v-594h-152l-22 106q-84 -127 -275 -126q-266 0 -338 200
q-31 88 -30 264v596z" />
    <glyph glyph-name="uni1EEA" unicode="&#x1eea;" horiz-adv-x="1513" 
d="M829 1606h-157l-246 303h244zM190 1462h220v-921q0 -184 45 -265q72 -118 256 -118t252 137q35 76 34 246v921h220v-309q98 45 139 94t41 113t-31 125h184q14 -43 15 -90q0 -156 -164 -273q-49 -35 -184 -104v-477q1 -160 -19 -244t-72 -147q-132 -170 -434 -170
t-432 194q-39 61 -54 140t-16 227v921z" />
    <glyph glyph-name="uni1EEB" unicode="&#x1eeb;" horiz-adv-x="1263" 
d="M696 1190h-157l-246 301h244zM158 1040h209v-573q0 -166 45 -238q44 -71 152 -71t155 80t47 270v532h209v-311q102 49 142 97t40 114t-33 121h185q16 -49 16 -90q0 -154 -166 -273q-47 -33 -184 -104v-594h-152l-22 106q-84 -127 -275 -126q-266 0 -338 200
q-31 88 -30 264v596z" />
    <glyph glyph-name="uni1EEC" unicode="&#x1eec;" horiz-adv-x="1513" 
d="M662 1587v27q2 59 10 84t47 76q18 27 18 51q0 43 -49 43t-113 -29l-34 117q96 33 181 33t136 -41t51 -115q0 -35 -11 -57t-45 -63t-39 -59t-7 -67h-145zM190 1462h220v-921q0 -184 45 -265q72 -118 256 -118t252 137q35 76 34 246v921h220v-309q98 45 139 94t41 113
t-31 125h184q14 -43 15 -90q0 -156 -164 -273q-49 -35 -184 -104v-477q1 -160 -19 -244t-72 -147q-132 -170 -434 -170t-432 194q-39 61 -54 140t-16 227v921z" />
    <glyph glyph-name="uni1EED" unicode="&#x1eed;" horiz-adv-x="1263" 
d="M641 1178h-147q0 78 8 104t49 82q18 29 18 51q0 43 -50 43t-109 -28l-37 116q94 33 180 33t137 -41t51 -115q0 -35 -11 -57t-44 -64q-33 -41 -39 -60t-6 -64zM158 1040h209v-573q0 -166 45 -238q44 -71 152 -71t155 80t47 270v532h209v-311q102 49 142 97t40 114t-33 121
h185q16 -49 16 -90q0 -154 -166 -273q-47 -33 -184 -104v-594h-152l-22 106q-84 -127 -275 -126q-266 0 -338 200q-31 88 -30 264v596z" />
    <glyph glyph-name="uni1EEE" unicode="&#x1eee;" horiz-adv-x="1513" 
d="M586 1890q78 0 152 -63t106 -64q55 0 78 113h131q-27 -121 -47 -162q-45 -100 -164 -100q-84 0 -162 67q-63 59 -98 60q-59 0 -84 -113h-131q27 113 51 160q57 102 168 102zM190 1462h220v-921q0 -184 45 -265q72 -118 256 -118t252 137q35 76 34 246v921h220v-309
q98 45 139 94t41 113t-31 125h184q14 -43 15 -90q0 -156 -164 -273q-49 -35 -184 -104v-477q1 -160 -19 -244t-72 -147q-132 -170 -434 -170t-432 194q-39 61 -54 140t-16 227v921z" />
    <glyph glyph-name="uni1EEF" unicode="&#x1eef;" horiz-adv-x="1263" 
d="M705 1196q-87 0 -157 64t-106 65q-59 0 -84 -115h-131q27 115 52 162q57 102 165 103q80 0 155 -65q75 -64 106 -64t47 24t30 88h131q-25 -117 -47 -162q-45 -100 -161 -100zM158 1040h209v-573q0 -166 45 -238q44 -71 152 -71t155 80t47 270v532h209v-311q102 49 142 97
t40 114t-33 121h185q16 -49 16 -90q0 -154 -166 -273q-47 -33 -184 -104v-594h-152l-22 106q-84 -127 -275 -126q-266 0 -338 200q-31 88 -30 264v596z" />
    <glyph glyph-name="uni1EF0" unicode="&#x1ef0;" horiz-adv-x="1513" 
d="M602 -410v234h203v-234h-203zM190 1462h220v-921q0 -184 45 -265q72 -118 256 -118t252 137q35 76 34 246v921h220v-309q98 45 139 94t41 113t-31 125h184q14 -43 15 -90q0 -156 -164 -273q-49 -35 -184 -104v-477q1 -160 -19 -244t-72 -147q-132 -170 -434 -170
t-432 194q-39 61 -54 140t-16 227v921z" />
    <glyph glyph-name="uni1EF1" unicode="&#x1ef1;" horiz-adv-x="1263" 
d="M500 -410v234h202v-234h-202zM158 1040h209v-573q0 -166 45 -238q44 -71 152 -71t155 80t47 270v532h209v-311q102 49 142 97t40 114t-33 121h185q16 -49 16 -90q0 -154 -166 -273q-47 -33 -184 -104v-594h-152l-22 106q-84 -127 -275 -126q-266 0 -338 200
q-31 88 -30 264v596z" />
    <glyph glyph-name="Ygrave" unicode="&#x1ef2;" horiz-adv-x="1099" 
d="M676 1606h-158l-246 303h244zM442 0v528l-456 934h231l336 -714l334 714h231l-456 -934v-528h-220z" />
    <glyph glyph-name="ygrave" unicode="&#x1ef3;" horiz-adv-x="1015" 
d="M633 1190h-158l-246 301h244zM406 10l-369 1030h211l268 -802l244 802h211l-393 -1171q-78 -221 -158 -279t-307 -61v172q119 -2 163 31t89 155z" />
    <glyph glyph-name="uni1EF4" unicode="&#x1ef4;" horiz-adv-x="1099" 
d="M449 -410v234h202v-234h-202zM442 0v528l-456 934h231l336 -714l334 714h231l-456 -934v-528h-220z" />
    <glyph glyph-name="uni1EF5" unicode="&#x1ef5;" horiz-adv-x="1015" 
d="M670 -410v234h202v-234h-202zM406 10l-369 1030h211l268 -802l244 802h211l-393 -1171q-78 -221 -158 -279t-307 -61v172q119 -2 163 31t89 155z" />
    <glyph glyph-name="uni1EF6" unicode="&#x1ef6;" horiz-adv-x="1099" 
d="M639 1587h-147q0 78 8 105t49 82q18 27 18 51q0 43 -50 43t-109 -29l-37 117q98 33 182 33t135 -41t51 -115q0 -35 -11 -57t-54 -74q-23 -32 -29 -50t-6 -65zM442 0v528l-456 934h231l336 -714l334 714h231l-456 -934v-528h-220z" />
    <glyph glyph-name="uni1EF7" unicode="&#x1ef7;" horiz-adv-x="1015" 
d="M526 1415q0 43 -48 43t-113 -28l-35 116q94 33 180 33t137 -41t51 -115q0 -35 -11 -57t-45 -64q-34 -41 -39 -59t-7 -65h-147q2 78 9 104q8 26 38 67q30 42 30 66zM406 10l-369 1030h211l268 -802l244 802h211l-393 -1171q-78 -221 -158 -279t-307 -61v172q119 -2 163 31
t89 155z" />
    <glyph glyph-name="uni1EF8" unicode="&#x1ef8;" horiz-adv-x="1099" 
d="M426 1890q78 0 153 -63t105 -64q55 0 78 113h131q-27 -121 -47 -162q-45 -100 -164 -100q-84 0 -162 67q-63 59 -95 59q-65 1 -87 -112h-131q27 113 51 160q57 102 168 102zM442 0v528l-456 934h231l336 -714l334 714h231l-456 -934v-528h-220z" />
    <glyph glyph-name="uni1EF9" unicode="&#x1ef9;" horiz-adv-x="1015" 
d="M647 1346q25 0 42 24t32 88h129q-27 -125 -45 -162q-49 -100 -164 -100q-86 0 -158 64t-102 65q-61 0 -86 -115h-129q29 123 51 162q57 102 166 103q82 0 154 -64q47 -41 66 -53t44 -12zM406 10l-369 1030h211l268 -802l244 802h211l-393 -1171q-78 -221 -158 -279
t-307 -61v172q119 -2 163 31t89 155z" />
    <glyph glyph-name="uni2002" unicode="&#x2002;" horiz-adv-x="1024" 
 />
    <glyph glyph-name="uni2003" unicode="&#x2003;" horiz-adv-x="2048" 
 />
    <glyph glyph-name="uni2004" unicode="&#x2004;" horiz-adv-x="681" 
 />
    <glyph glyph-name="uni2005" unicode="&#x2005;" horiz-adv-x="512" 
 />
    <glyph glyph-name="uni2006" unicode="&#x2006;" horiz-adv-x="342" 
 />
    <glyph glyph-name="uni2007" unicode="&#x2007;" 
 />
    <glyph glyph-name="uni2008" unicode="&#x2008;" horiz-adv-x="0" 
 />
    <glyph glyph-name="uni2009" unicode="&#x2009;" horiz-adv-x="409" 
 />
    <glyph glyph-name="uni200A" unicode="&#x200a;" horiz-adv-x="256" 
 />
    <glyph glyph-name="uni2011" unicode="&#x2011;" horiz-adv-x="964" 
d="M180 645v180h606v-180h-606z" />
    <glyph glyph-name="figuredash" unicode="&#x2012;" 
d="M143 645v180h820v-180h-820z" />
    <glyph glyph-name="endash" unicode="&#x2013;" 
d="M143 645v180h820v-180h-820z" />
    <glyph glyph-name="emdash" unicode="&#x2014;" 
d="M0 645v180h1108v-180h-1108z" />
    <glyph glyph-name="afii00208" unicode="&#x2015;" 
d="M0 645v180h1108v-180h-1108z" />
    <glyph glyph-name="underscoredbl" unicode="&#x2017;" horiz-adv-x="962" 
d="M-51 -264v117h1065v-117h-1065zM-51 -457v117h1065v-117h-1065z" />
    <glyph glyph-name="quoteleft" unicode="&#x2018;" horiz-adv-x="411" 
d="M352 1462l-71 -506h-220l117 506h174z" />
    <glyph glyph-name="quoteright" unicode="&#x2019;" horiz-adv-x="411" 
d="M61 956l72 506h219l-114 -506h-177z" />
    <glyph glyph-name="quotesinglbase" unicode="&#x201a;" horiz-adv-x="411" 
d="M61 -276l72 505h219l-114 -505h-177z" />
    <glyph glyph-name="quotedblleft" unicode="&#x201c;" horiz-adv-x="811" 
d="M352 1462l-71 -506h-220l117 506h174zM750 1462l-70 -506h-221l116 506h175z" />
    <glyph glyph-name="quotedblright" unicode="&#x201d;" horiz-adv-x="811" 
d="M459 956l71 506h220l-115 -506h-176zM61 956l72 506h219l-114 -506h-177z" />
    <glyph glyph-name="quotedblbase" unicode="&#x201e;" horiz-adv-x="811" 
d="M459 -276l71 505h220l-115 -505h-176zM61 -276l72 505h219l-114 -505h-177z" />
    <glyph glyph-name="dagger" unicode="&#x2020;" 
d="M446 840h-329v180h329v442h213v-442h330v-180h-330v-1157h-213v1157z" />
    <glyph glyph-name="daggerdbl" unicode="&#x2021;" 
d="M446 840h-329v180h329v442h213v-442h330v-180h-330v-287h304v-178h-304v-692h-213v692h-303v178h303v287z" />
    <glyph glyph-name="bullet" unicode="&#x2022;" 
d="M554 1090q155 0 259 -102q105 -102 105 -253q0 -152 -104 -253t-262 -101q-157 0 -261 102q-105 103 -105 253t106 252t262 102z" />
    <glyph glyph-name="ellipsis" unicode="&#x2026;" horiz-adv-x="1761" 
d="M1358 0v231h219v-231h-219zM772 0v231h219v-231h-219zM184 0v231h219v-231h-219z" />
    <glyph glyph-name="perthousand" unicode="&#x2030;" horiz-adv-x="2641" 
d="M606 0l461 1462h195l-461 -1462h-195zM2384 332v127q0 219 -150 219t-149 -219v-127q-1 -219 149 -219t150 219zM1909 311v168q0 176 77 254q76 78 248 78t249 -78t77 -254v-168q0 -176 -77 -254q-77 -77 -249 -77t-248 78t-77 253zM1608 332v127q0 219 -150 219
t-149 -219v-127q-1 -219 149 -219t150 219zM1133 311v168q-1 172 77 252t249 80t248 -78t77 -254v-168q0 -176 -77 -254q-77 -77 -249 -77t-249 77q-76 78 -76 254zM559 1004v126q0 219 -149 220q-150 0 -150 -220v-126q0 -217 150 -218q149 1 149 218zM84 983v168
q0 176 77 254t249 78t248 -78t77 -254v-168q0 -174 -77 -252q-76 -78 -248 -78t-249 78t-77 252z" />
    <glyph glyph-name="guilsinglleft" unicode="&#x2039;" horiz-adv-x="532" 
d="M291 604l178 -256l-127 -90l-279 346l279 344l127 -88z" />
    <glyph glyph-name="guilsinglright" unicode="&#x203a;" horiz-adv-x="532" 
d="M242 604l-179 256l127 88l279 -344l-279 -346l-127 90z" />
    <glyph glyph-name="uni203E" unicode="&#x203e;" horiz-adv-x="962" 
d="M-51 1657v147h1065v-147h-1065z" />
    <glyph glyph-name="fraction" unicode="&#x2044;" horiz-adv-x="350" 
d="M-131 0l461 1462h196l-460 -1462h-197z" />
    <glyph glyph-name="zerosuperior" unicode="&#x2070;" horiz-adv-x="727" 
d="M489 1122v213q1 219 -125 219t-126 -219v-213q0 -219 126 -219t125 219zM74 1110v238q0 176 68 254q69 78 222 78q154 0 222 -80q68 -78 67 -252v-238q-1 -174 -69 -253t-220 -79t-222 78q-68 78 -68 254z" />
    <glyph glyph-name="foursuperior" unicode="&#x2074;" horiz-adv-x="724" 
d="M432 791v153h-381v98l297 625h180l-284 -592h188v174h152v-174h90v-131h-90v-153h-152z" />
    <glyph glyph-name="fivesuperior" unicode="&#x2075;" horiz-adv-x="716" 
d="M614 1667v-133h-329l-21 -207q55 20 105 21q150 0 219 -80q55 -61 55 -206q0 -144 -73 -214t-230 -70q-264 0 -283 221l160 23q20 -111 129 -111q59 0 93 39t34 109q0 164 -125 164q-76 0 -125 -54l-127 25l45 473h473z" />
    <glyph glyph-name="sixsuperior" unicode="&#x2076;" horiz-adv-x="724" 
d="M365 1231q-123 0 -123 -164t123 -164t122 164q1 164 -122 164zM651 1056q-1 -150 -73 -214t-222 -64t-223 78q-55 61 -55 209q0 78 15 129t61 127l206 346h197l-201 -324q53 7 84 7t82 -24t80 -58q49 -61 49 -212z" />
    <glyph glyph-name="sevensuperior" unicode="&#x2077;" horiz-adv-x="546" 
d="M6 1534v133h498v-96l-250 -780h-184l249 743h-313z" />
    <glyph glyph-name="eightsuperior" unicode="&#x2078;" horiz-adv-x="724" 
d="M495 1046q0 144 -134 144t-134 -143t135 -144q133 -1 133 143zM479 1430q0 132 -118 133q-117 0 -117 -132t118 -133q117 0 117 132zM90 1440q0 122 66 180q66 59 206 59t205 -58q66 -58 66 -177t-70 -189q96 -57 96 -203t-70 -210q-71 -64 -228 -64t-227 64t-70 210
q0 148 96 203q-70 63 -70 185z" />
    <glyph glyph-name="ninesuperior" unicode="&#x2079;" horiz-adv-x="724" 
d="M483 1407q0 147 -123 147q-122 0 -122 -147t122 -147t123 147zM305 1143q-231 0 -231 264q0 145 67 209q67 63 219 63t220 -63t67 -205q0 -76 -10 -116t-49 -107l-223 -397h-197l207 356q-33 -4 -70 -4z" />
    <glyph glyph-name="zeroinferior" unicode="&#x2080;" horiz-adv-x="727" 
d="M489 127v213q1 219 -125 219t-126 -219v-213q0 -219 126 -219t125 219zM74 115v237q0 176 68 254q69 78 222 78q154 0 222 -79t67 -253v-237q-1 -174 -69 -253t-220 -79t-222 78q-68 78 -68 254z" />
    <glyph glyph-name="oneinferior" unicode="&#x2081;" horiz-adv-x="516" 
d="M201 -205v715l-154 -57l-45 122l252 97h117v-877h-170z" />
    <glyph glyph-name="twoinferior" unicode="&#x2082;" horiz-adv-x="712" 
d="M78 -205v107l256 299q129 147 129 241q0 51 -31 81t-82 30q-109 0 -131 -123l-158 14q16 117 66 166q76 76 229 76q276 0 277 -248q0 -86 -32 -147t-146 -197l-142 -166h316v-133h-551z" />
    <glyph glyph-name="threeinferior" unicode="&#x2083;" horiz-adv-x="712" 
d="M219 199v114h90q59 0 101 36q41 36 41 87t-33 83t-86 32q-102 0 -125 -98l-154 16q14 106 66 149q72 66 219 66q283 0 283 -240q0 -72 -23 -114t-78 -72q123 -66 123 -217q0 -258 -307 -258q-180 0 -258 86q-35 39 -49 133l161 25q20 -111 142 -111q66 0 104 35t37 99
q0 64 -43 107q-43 42 -113 42h-98z" />
    <glyph glyph-name="fourinferior" unicode="&#x2084;" horiz-adv-x="724" 
d="M432 -205v154h-381v98l297 625h180l-284 -592h188v174h152v-174h90v-131h-90v-154h-152z" />
    <glyph glyph-name="fiveinferior" unicode="&#x2085;" horiz-adv-x="716" 
d="M614 672v-133h-329l-21 -207q55 20 105 20q150 0 219 -80q55 -62 55 -206t-73 -214t-230 -69q-264 0 -283 221l160 23q20 -111 129 -111q59 0 93 39t34 108q0 164 -125 164q-76 0 -125 -53l-127 25l45 473h473z" />
    <glyph glyph-name="sixinferior" unicode="&#x2086;" horiz-adv-x="724" 
d="M365 236q-123 0 -123 -164t123 -164t122 164q1 164 -122 164zM433 354q38 0 89 -24t80 -58q49 -62 49 -212q-1 -150 -73 -214t-222 -64t-223 79q-55 61 -55 209q0 78 15 129t61 127l206 346h197l-201 -324q39 6 77 6z" />
    <glyph glyph-name="seveninferior" unicode="&#x2087;" horiz-adv-x="546" 
d="M10 539v133h498v-97l-250 -780h-184l250 744h-314z" />
    <glyph glyph-name="eightinferior" unicode="&#x2088;" horiz-adv-x="724" 
d="M361 195q-134 1 -134 -143t134 -144t134 144t-134 143zM361 567q-117 0 -117 -132t118 -132t117 132q0 132 -118 132zM90 444q0 240 270 240q141 0 207 -59t66 -177t-70 -188q96 -58 96 -204t-70 -210q-71 -63 -228 -63t-227 63t-70 211t96 203q-70 63 -70 184z" />
    <glyph glyph-name="nineinferior" unicode="&#x2089;" horiz-adv-x="724" 
d="M483 412q0 148 -123 147q-122 0 -122 -147t122 -148q123 0 123 148zM74 404q0 152 67 217q67 63 219 63t220 -63t67 -205q0 -76 -10 -116t-49 -107l-223 -398h-197l207 357q-33 -4 -70 -5q-92 0 -151 46q-80 59 -80 211z" />
    <glyph glyph-name="franc" unicode="&#x20a3;" horiz-adv-x="1558" 
d="M926 0v920h157l25 -97q90 117 242 117q96 0 196 -51l-86 -170q-72 51 -133 51q-104 0 -151 -91t-48 -294v-385h-202zM176 0v1462h713v-180h-500v-463h399v-180h-399v-639h-213z" />
    <glyph glyph-name="lira" unicode="&#x20a4;" 
d="M827 631v-135h-280v-11q6 -176 -135 -305h641v-180h-938v156q98 28 164 120t65 199v21h-250v135h221q-16 43 -47 98h-174v135h111q-49 113 -49 211q0 193 110 301t303 107q238 0 355 -142q61 -74 100 -217l-178 -59q-40 131 -102 186t-160 55t-154 -56q-56 -58 -55 -156
q0 -98 69 -230h383v-135h-317l18 -47q0 -2 15 -51h284z" />
    <glyph glyph-name="peseta" unicode="&#x20a7;" 
d="M395 1065h406q-20 233 -260 227h-146v-227zM395 930v-234h146q123 -2 186 54t76 180h-408zM186 930h-176v135h176v397h344q457 12 484 -397h141v-135h-141q-25 -418 -484 -406h-131v-524h-213v930z" />
    <glyph glyph-name="uni20AB" unicode="&#x20ab;" 
d="M268 584v-127q0 -309 219 -310q225 0 226 279v188q0 279 -226 279q-219 0 -219 -309zM713 1165h-301v138h301v159h209v-159h163v-138h-163v-1165h-162l-15 80q-6 -4 -17 -15t-21 -20q-69 -65 -263 -65t-288 110t-95 352v156q-1 242 93 352t295 111q121 0 206 -43
q4 -2 58 -43v190zM74 -367v148h942v-148h-942z" />
    <glyph glyph-name="Euro" unicode="&#x20ac;" 
d="M160 614v109h-185l54 135h131v31q0 301 102 434q119 156 361 156q205 -1 315 -101t119 -293l-201 -14q-12 111 -70 169t-159 58q-131 0 -189 -97t-59 -314v-29h539l-56 -135h-483v-109h436l-53 -135h-379q11 -172 73 -250t193 -77q215 0 244 188l188 -25
q-10 -168 -123 -255t-317 -87q-459 0 -479 506h-182l53 135h127z" />
    <glyph glyph-name="uni20B4" unicode="&#x20b4;" 
d="M768 1086q0 114 -58 172t-163 59q-154 0 -217 -119l-162 84q111 201 383 201q197 1 307 -105t109 -295q1 -84 -15 -134t-61 -111l139 -39l-35 -129l-207 55q-59 -35 -202 -82l375 -100l-35 -129l-541 143q-80 -63 -80 -178t67 -174t191 -60q203 0 287 134l164 -91
q-125 -209 -455 -208q-219 0 -336 104t-117 299q0 82 10 117q9 35 54 114l-147 41l34 129l199 -55q18 9 88 37t113 47l-365 98l35 129l532 -141q109 73 109 187z" />
    <glyph glyph-name="uni2101" unicode="&#x2101;" horiz-adv-x="1841" 
d="M1450 119q76 0 121 33t45 88q0 54 -38 80t-172 58t-196 90q-61 58 -61 173t80 181t225 67q211 0 297 -137l-133 -78q-59 84 -168 84q-61 0 -98 -31t-37 -82t43 -83q42 -32 162 -60t172 -60q90 -57 90 -196q0 -258 -332 -258q-250 -1 -344 151l137 80q61 -100 207 -100z
M563 870l-147 394l-146 -394h293zM827 639l260 823h175l-461 -1462h-174l184 586h-145l-62 170h-377l-61 -170h-182l360 876h143z" />
    <glyph glyph-name="afii61248" unicode="&#x2105;" horiz-adv-x="1894" 
d="M608 0l461 1462h174l-461 -1462h-174zM1657 377v53q0 136 -48 198q-49 62 -151 62t-150 -62t-48 -198v-53q0 -133 48 -195t150 -63q102 0 151 62q48 63 48 196zM1092 369v69q0 201 88 293t278 92t278 -92t89 -293v-69q0 -199 -89 -291q-88 -92 -278 -92t-278 92t-88 291z
M72 1032v31q0 412 352 412q211 0 299 -152l-127 -72q-59 88 -164 88q-193 0 -192 -276v-33q0 -258 198 -258q119 0 176 86l125 -72q-98 -150 -313 -149q-354 0 -354 395z" />
    <glyph glyph-name="afii61289" unicode="&#x2113;" 
d="M827 1274q0 36 -15 60t-38 24q-62 0 -108 -136t-103 -487q264 305 264 539zM201 299q-12 0 -24 19q-11 19 -11 46t48 74t130 144q84 498 180 706t244 207q80 0 128 -56t48 -149q0 -197 -156 -426q-86 -131 -247 -286q-53 -332 -53 -405t47 -73q29 0 47 20t51 87
q29 53 59 53q37 0 37 -45q0 -86 -82 -174q-70 -80 -164 -80q-170 0 -170 227q1 58 15 226q-100 -115 -127 -115z" />
    <glyph glyph-name="afii61352" unicode="&#x2116;" horiz-adv-x="2381" 
d="M1487 0v168h772v-168h-772zM2056 758v43q0 133 -43 193t-139 60t-139 -60t-43 -193v-43q0 -134 43 -194t139 -60t139 60t43 194zM1487 745v68q0 211 94 310t293 99t292 -98t93 -311v-68q0 -211 -93 -310t-292 -99t-293 99t-94 310zM197 0v1462h213l651 -1093v1093h213
v-1462h-213l-651 1094v-1094h-213z" />
    <glyph glyph-name="trademark" unicode="&#x2122;" horiz-adv-x="1798" 
d="M819 586v876h162l262 -504l262 504h160v-876h-164v565l-203 -389h-110l-203 389v-565h-166zM279 586v743h-263v133h693v-133h-260v-743h-170z" />
    <glyph glyph-name="uni2126" unicode="&#x2126;" horiz-adv-x="1378" 
d="M137 0v158h283v63q-127 47 -196 185t-62 331v170q0 291 128 433t410 143q282 0 418 -176q98 -127 99 -400v-170q8 -193 -62 -331t-199 -185v-63h285v-158h-457v338q225 47 215 403v148q0 219 -73 317q-74 98 -238 98t-236 -98t-73 -317v-148q-10 -356 213 -403v-338h-455
z" />
    <glyph glyph-name="estimated" unicode="&#x212e;" horiz-adv-x="1228" 
d="M913 776v213q-14 59 -56 122t-96 93q-55 30 -151 29q-96 0 -160 -55t-114 -187v-215h577zM1126 641h-790v-252q31 -102 67 -156q70 -102 224 -102q111 0 193 65t118 177h152q-49 -170 -103 -236q-129 -160 -367 -160q-238 1 -376 185q-140 184 -140 512t140 520t381 192
q155 0 273 -84t173 -230q55 -144 55 -431z" />
    <glyph glyph-name="onethird" unicode="&#x2153;" horiz-adv-x="1798" 
d="M457 0l461 1462h196l-461 -1462h-196zM1214 403v115h91q59 0 100 36t41 87t-33 83t-86 32q-102 0 -125 -99l-153 17q14 115 80 165q67 50 204 50q283 0 283 -242q0 -129 -100 -184q123 -66 122 -217q0 -258 -307 -258q-180 0 -258 86q-35 37 -49 133l162 24
q20 -111 141 -110q66 0 104 35q37 36 37 100t-43 106t-112 41h-99zM289 586v714l-154 -57l-45 123l252 96h117v-876h-170z" />
    <glyph glyph-name="twothirds" unicode="&#x2154;" horiz-adv-x="1798" 
d="M571 0l461 1462h197l-461 -1462h-197zM1305 403v115h88q61 0 102 35t41 87t-33 84t-86 32q-102 0 -125 -99l-153 17q14 115 81 165t203 50q283 0 283 -242q0 -127 -100 -184q123 -66 123 -217q0 -258 -308 -258q-180 0 -258 86q-35 39 -49 133l160 24q25 -111 143 -110
q66 0 104 35q38 36 38 100t-43 106t-113 41h-98zM88 586v106l256 299q129 147 129 242q0 51 -31 81t-82 29q-109 0 -131 -122l-157 14q16 117 65 166q76 76 230 76q276 0 276 -248q0 -85 -32 -147t-146 -197l-141 -166h315v-133h-551z" />
    <glyph glyph-name="uni2155" unicode="&#x2155;" horiz-adv-x="1798" 
d="M463 0l461 1462h196l-461 -1462h-196zM1612 877v-134h-330l-22 -206q55 20 104 20q150 0 219 -80q55 -61 55 -206t-72 -215t-229 -68q-268 0 -282 221l159 22q18 -111 129 -110q59 0 93 39q33 39 32 108q0 164 -122 164q-74 0 -127 -53l-125 24l45 474h473zM295 586v714
l-154 -57l-45 123l252 96h117v-876h-170z" />
    <glyph glyph-name="uni2156" unicode="&#x2156;" horiz-adv-x="1798" 
d="M578 0l460 1462h197l-461 -1462h-196zM1671 877v-134h-330l-22 -206q57 20 104 20q147 0 222 -80q55 -61 55 -206t-73 -215t-230 -68q-266 0 -283 221l160 22q18 -111 129 -110q59 0 93 39t34 108q0 164 -125 164q-78 0 -127 -53l-127 24l47 474h473zM92 586v106l256 299
q129 147 129 242q0 51 -31 81t-81 29q-109 0 -132 -122l-157 14q16 117 65 166q76 76 230 76q276 0 276 -248q0 -85 -32 -147t-146 -197l-141 -166h315v-133h-551z" />
    <glyph glyph-name="uni2157" unicode="&#x2157;" horiz-adv-x="1798" 
d="M559 0l461 1462h197l-461 -1462h-197zM1657 877v-134h-330l-22 -206q55 20 104 20q152 0 221 -80q56 -61 56 -206t-73 -215t-231 -68q-264 0 -282 221l160 22q18 -111 129 -110q59 0 93 39t34 108q0 164 -125 164q-78 0 -127 -53l-125 24l45 474h473zM238 989v115h90
q59 0 100 36t41 87t-33 83t-86 31q-102 0 -125 -98l-153 17q14 106 65 149q76 66 219 66q283 0 283 -240q0 -129 -100 -186q123 -66 123 -218q0 -258 -308 -258q-182 0 -258 86q-35 39 -49 134l162 24q20 -111 141 -110q66 1 104 35t38 99t-43 107t-113 41h-98z" />
    <glyph glyph-name="uni2158" unicode="&#x2158;" horiz-adv-x="1798" 
d="M578 0l460 1462h195l-461 -1462h-194zM1669 877v-134h-330l-22 -206q55 20 106 20q150 0 219 -80q56 -61 56 -206t-73 -215t-230 -68q-264 0 -283 221l160 22q23 -111 129 -110q59 0 93 40t34 109q0 162 -125 162q-76 0 -125 -53l-127 24l45 474h473zM440 586v153h-381
v99l297 624h181l-285 -592h188v174h152v-174h90v-131h-90v-153h-152z" />
    <glyph glyph-name="uni2159" unicode="&#x2159;" horiz-adv-x="1798" 
d="M1469 276q0 164 -123 164t-123 -164t123 -163q123 -1 123 163zM1420 559q32 1 83 -23t80 -59q49 -61 49 -212t-72 -215t-222 -62q-150 0 -224 78q-55 61 -55 208q0 78 15 129t61 127l206 347h197l-201 -324q51 6 83 6zM496 0l460 1462h197l-461 -1462h-196zM313 586v714
l-153 -57l-45 123l252 96h116v-876h-170z" />
    <glyph glyph-name="uni215A" unicode="&#x215a;" horiz-adv-x="1798" 
d="M586 0l461 1462h196l-461 -1462h-196zM1518 276q0 164 -122 164t-122 -164t123 -163q121 -1 121 163zM1470 559q33 1 83 -23t79 -59q49 -61 49 -212q-1 -151 -71 -215t-222 -62q-152 0 -223 78q-55 61 -55 208q0 78 14 129t60 127l207 347h198l-203 -324q51 6 84 6z
M635 1462v-133h-330l-20 -207q53 20 104 21q150 0 219 -80q56 -61 56 -206t-73 -215t-231 -69q-264 0 -282 222l160 22q20 -111 129 -110q59 1 93 39t34 108q0 164 -125 164q-76 0 -125 -53l-127 24l45 473h473z" />
    <glyph glyph-name="oneeighth" unicode="&#x215b;" horiz-adv-x="1798" 
d="M473 0l461 1462h196l-460 -1462h-197zM1487 256q0 143 -134 143t-134 -143t134 -143t134 143zM1353 772q-118 0 -118 -132t118 -132t118 132t-118 132zM1081 649q0 121 66 180t206 59t206 -58q65 -60 65 -178t-70 -187q96 -57 96 -203t-70 -210q-72 -64 -228 -64t-227 63
t-71 211t97 203q-70 63 -70 184zM305 586v714l-153 -57l-46 123l252 96h117v-876h-170z" />
    <glyph glyph-name="threeeighths" unicode="&#x215c;" horiz-adv-x="1798" 
d="M573 0l461 1462h197l-461 -1462h-197zM1552 256q0 143 -134 143t-134 -143t134 -143t134 143zM1418 772q-118 0 -118 -132t118 -132t118 132t-118 132zM1147 649q0 121 64 180q65 59 206 59t207 -58q66 -60 66 -179t-70 -186q96 -57 96 -203t-70 -211q-71 -63 -228 -63
q-158 0 -228 63t-70 211t97 203q-70 63 -70 184zM258 989v115h90q59 0 101 36q41 36 40 87q0 51 -32 83q-33 32 -86 31q-102 0 -125 -98l-154 17q14 106 66 149q76 66 219 66q283 0 282 -240q0 -129 -100 -186q123 -66 123 -218q0 -258 -307 -258q-182 0 -258 86
q-35 39 -49 134l161 24q20 -111 142 -110q65 1 103 35t38 99t-43 107t-113 41h-98z" />
    <glyph glyph-name="fiveeighths" unicode="&#x215d;" horiz-adv-x="1798" 
d="M573 0l461 1462h195l-461 -1462h-195zM1554 256q0 143 -134 143t-134 -143t134 -143t134 143zM1420 772q-118 0 -118 -132t118 -132t118 132t-118 132zM1149 649q0 121 65 180q66 59 206 59t206 -58q66 -60 66 -178t-70 -187q96 -59 96 -205t-70 -209q-71 -63 -228 -63
q-158 0 -228 63t-70 210t97 204q-70 63 -70 184zM647 1462v-133h-330l-20 -207q53 20 104 21q150 0 220 -80q55 -61 55 -206t-73 -215t-230 -69q-264 0 -283 222l160 22q20 -111 129 -110q59 1 93 39t34 108q0 164 -125 164q-76 0 -125 -53l-127 24l45 473h473z" />
    <glyph glyph-name="seveneighths" unicode="&#x215e;" horiz-adv-x="1798" 
d="M510 0l461 1462h196l-460 -1462h-197zM1511 256q0 143 -134 143t-134 -143t134 -143t134 143zM1377 772q-117 0 -117 -132t118 -132t117 132q0 132 -118 132zM1106 649q0 121 65 180q66 59 206 59t206 -58q66 -60 66 -179t-70 -186q96 -57 96 -203t-70 -211
q-71 -63 -228 -63t-227 63t-70 210t96 204q-70 63 -70 184zM125 1329v133h539v-96l-291 -780h-185l291 743h-354z" />
    <glyph glyph-name="arrowleft" unicode="&#x2190;" horiz-adv-x="1638" 
d="M1509 645h-1126l362 -362l-129 -129l-526 542v78l526 543l129 -129l-362 -363h1126v-180z" />
    <glyph glyph-name="arrowup" unicode="&#x2191;" horiz-adv-x="1638" 
d="M700 0v1184l-360 -363l-129 129l543 527h75l543 -527l-129 -129l-360 363v-1184h-183z" />
    <glyph glyph-name="arrowright" unicode="&#x2192;" horiz-adv-x="1638" 
d="M129 645v180h1126l-362 363l129 129l526 -543v-78l-526 -542l-129 129l362 362h-1126z" />
    <glyph glyph-name="arrowdown" unicode="&#x2193;" horiz-adv-x="1638" 
d="M700 1462h183v-1183l360 362l129 -129l-543 -526h-75l-543 526l129 129l360 -362v1183z" />
    <glyph glyph-name="arrowboth" unicode="&#x2194;" horiz-adv-x="1638" 
d="M1294 645h-950l315 -315l-129 -127l-479 493v78l479 494l129 -127l-315 -316h950l-315 316l129 127l479 -494v-78l-479 -493l-129 127z" />
    <glyph glyph-name="arrowupdn" unicode="&#x2195;" horiz-adv-x="1638" 
d="M700 236v991l-313 -316l-129 129l494 480h77l494 -480l-127 -129l-315 316v-991l315 315l127 -129l-494 -479h-77l-494 479l129 129z" />
    <glyph glyph-name="uni2196" unicode="&#x2196;" horiz-adv-x="1638" 
d="M469 461h-182v753l67 68h754v-180h-512l803 -805l-127 -127l-803 805v-514z" />
    <glyph glyph-name="uni2197" unicode="&#x2197;" horiz-adv-x="1638" 
d="M530 1102v180h754l68 -68v-753h-183v514l-802 -805l-127 127l802 805h-512z" />
    <glyph glyph-name="uni2198" unicode="&#x2198;" horiz-adv-x="1638" 
d="M1169 997h183v-751l-68 -68h-754v180h512l-802 803l127 127l802 -803v512z" />
    <glyph glyph-name="uni2199" unicode="&#x2199;" horiz-adv-x="1638" 
d="M1108 356v-180h-754l-67 68v753h182v-514l803 807l127 -129l-803 -805h512z" />
    <glyph glyph-name="partialdiff" unicode="&#x2202;" 
d="M786 453v110q0 162 -56 236q-56 73 -178 73t-178 -74t-57 -235v-110q1 -160 57 -235t178 -75t178 74t56 236zM989 440q0 -240 -105 -350q-106 -110 -332 -110t-332 110q-105 111 -105 350v138q0 221 86 327q106 131 315 131q119 0 195 -51l-19 35q-72 129 -99 161
q-28 32 -124 91q-90 51 -199 69l27 136q309 -35 471 -236q215 -262 221 -663v-138z" />
    <glyph glyph-name="emptyset" unicode="&#x2205;" 
d="M768 1012l-324 -604q63 -18 109 -19q141 0 234 99t94 251q0 83 -26 145t-87 128zM520 1096q-127 0 -223 -96t-96 -252q1 -94 29 -158t100 -131l327 612q-106 25 -137 25zM1022 743q0 -213 -134 -350t-339 -137q-74 0 -166 27l-195 -365l-114 45l194 369
q-209 141 -209 409q0 211 131 346q66 66 154 104t167 38t208 -33l174 326l115 -45l-179 -336q193 -147 193 -398z" />
    <glyph glyph-name="Delta" unicode="&#x2206;" 
d="M899 172l-344 991l-342 -991h686zM1194 0h-1276l547 1462h182z" />
    <glyph glyph-name="product" unicode="&#x220f;" horiz-adv-x="1232" 
d="M145 -422v1884h940v-1884h-213v1698h-514v-1698h-213z" />
    <glyph glyph-name="summation" unicode="&#x2211;" horiz-adv-x="1169" 
d="M106 -422v139l422 854l-399 742v149h954v-180h-690l387 -709l-387 -815h717v-180h-1004z" />
    <glyph glyph-name="minus" unicode="&#x2212;" 
d="M78 653v168h948v-168h-948z" />
    <glyph glyph-name="uni2215" unicode="&#x2215;" horiz-adv-x="350" 
d="M-131 0l461 1462h196l-460 -1462h-197z" />
    <glyph glyph-name="uni2218" unicode="&#x2218;" 
d="M553 995q-113 -1 -189 -75t-75 -186q0 -112 75 -186q74 -74 188 -75q114 0 190 75q76 74 75 186q1 112 -75 186t-189 75zM552 369q-160 0 -268 105t-108 260q0 154 110 260t268 106q160 0 268 -104t108 -261q0 -156 -109 -261t-269 -105z" />
    <glyph glyph-name="uni2219" unicode="&#x2219;" horiz-adv-x="585" 
d="M184 621v229h219v-229h-219z" />
    <glyph glyph-name="radical" unicode="&#x221a;" 
d="M27 594v174h303l159 -485l396 1521h559v-147h-387l-449 -1657h-217l-217 594h-147z" />
    <glyph glyph-name="infinity" unicode="&#x221e;" horiz-adv-x="1576" 
d="M1132 559q72 0 121 49t49 128t-50 128t-130 49q-121 0 -239 -157l-15 -21l17 -22q68 -84 121 -119q54 -35 126 -35zM444 559q72 0 124 34t122 120l17 22l-15 21q-115 158 -241 157q-78 0 -128 -49q-51 -49 -51 -128t50 -128t122 -49zM420 408q-136 0 -224 88t-90 240
q0 152 90 239q90 88 242 88t260 -90q12 -12 90 -107q2 4 8 10t30 38q22 30 41 50t57 42q94 57 230 57t226 -88q88 -88 88 -240q0 -151 -89 -239t-241 -88t-261 92q-28 20 -89 106q-14 -18 -16 -22q-63 -84 -121 -119q-95 -57 -231 -57z" />
    <glyph glyph-name="integral" unicode="&#x222b;" horiz-adv-x="903" 
d="M270 -43q80 0 105 61q16 41 16 195v932q0 238 35 328q55 150 244 149q78 0 166 -25l-39 -163q-45 18 -82 18q-80 0 -105 -61q-14 -35 -14 -189v-938q0 -233 -37 -327q-59 -150 -244 -150q-69 0 -165 25l38 163q49 -18 82 -18z" />
    <glyph glyph-name="similar" unicode="&#x223c;" 
d="M745 741q94 0 148 138l127 -37q-45 -136 -112 -198t-171 -62q-59 0 -101 17t-130 77t-144 59q-94 0 -147 -145l-129 28q41 150 107 213t174 64q57 0 99 -15t134 -77t145 -62z" />
    <glyph glyph-name="uni2243" unicode="&#x2243;" 
d="M356 1079q56 0 100 -15t136 -76t143 -60q88 0 148 135l127 -35q-45 -136 -112 -198t-166 -62t-210 78q-74 49 -104 62q-30 14 -74 14q-85 1 -139 -146l-129 29q41 147 106 211q66 63 174 63zM98 483v162h887v-162h-887z" />
    <glyph glyph-name="approxequal" unicode="&#x2248;" 
d="M367 1079q57 0 100 -15t135 -76t143 -60q88 0 148 135l127 -35q-45 -136 -112 -198t-166 -62t-210 78q-74 49 -104 62q-30 14 -74 14q-85 1 -139 -146l-129 29q41 147 107 211t174 63zM745 555q90 0 148 137l127 -37q-45 -135 -113 -196t-170 -62q-61 -1 -102 17t-152 90
q-63 45 -121 45q-94 0 -147 -143l-129 28q41 146 107 210t174 65q59 1 101 -15t114 -63q109 -76 163 -76z" />
    <glyph glyph-name="notequal" unicode="&#x2260;" 
d="M111 483v162h307l84 182h-391v162h467l110 242l156 -70l-80 -172h233v-162h-307l-84 -182h391v-162h-467l-110 -241l-154 69l78 172h-233z" />
    <glyph glyph-name="lessequal" unicode="&#x2264;" 
d="M111 0v168h825v-168h-825zM348 776l588 -264v-195l-825 394v133l825 391v-195z" />
    <glyph glyph-name="greaterequal" unicode="&#x2265;" 
d="M170 0v168h825v-168h-825zM758 776l-588 264v195l825 -391v-133l-825 -394v195z" />
    <glyph glyph-name="dotmath" unicode="&#x22c5;" horiz-adv-x="585" 
d="M184 621v229h219v-229h-219z" />
    <glyph glyph-name="filledrect" unicode="&#x25ac;" 
d="M219 401v666h668v-666h-668z" />
    <glyph glyph-name="uni25B4" unicode="&#x25b4;" 
d="M150 389l403 807l405 -807h-808z" />
    <glyph glyph-name="uni25B8" unicode="&#x25b8;" 
d="M240 332v807l807 -404z" />
    <glyph glyph-name="uni25BE" unicode="&#x25be;" 
d="M150 1079h808l-405 -805z" />
    <glyph glyph-name="uni25C2" unicode="&#x25c2;" 
d="M866 332l-807 403l807 404v-807z" />
    <glyph glyph-name="lozenge" unicode="&#x25ca;" 
d="M236 717l317 -461l315 461l-315 463zM-2 717l555 778l555 -778l-555 -776z" />
    <glyph glyph-name="openbullet" unicode="&#x25e6;" 
d="M553 995q-113 -1 -189 -75t-75 -186q0 -112 75 -186q74 -74 188 -75q114 0 190 75q76 74 75 186q1 112 -75 186t-189 75zM552 369q-160 0 -268 105t-108 260q0 154 110 260t268 106q160 0 268 -104t108 -261q0 -156 -109 -261t-269 -105z" />
    <glyph glyph-name="commaaccent" unicode="&#xf6c3;" horiz-adv-x="1024" 
d="M362 -469l105 332h209l-170 -332h-144z" />
    <glyph glyph-name="Acute" unicode="&#xf6c9;" horiz-adv-x="1024" 
d="M391 1606l160 303h244l-246 -303h-158z" />
    <glyph glyph-name="Caron" unicode="&#xf6ca;" horiz-adv-x="1024" 
d="M512 1737l131 161h209l-266 -288h-144l-268 288h209z" />
    <glyph glyph-name="Dieresis" unicode="&#xf6cb;" horiz-adv-x="1024" 
d="M621 1618v233h186v-233h-186zM215 1618v233h186v-233h-186z" />
    <glyph glyph-name="Grave" unicode="&#xf6ce;" horiz-adv-x="1024" 
d="M637 1606h-158l-246 303h244z" />
    <glyph glyph-name="Hungarumlaut" unicode="&#xf6cf;" horiz-adv-x="1024" 
d="M571 1606l127 303h228l-207 -303h-148zM266 1606l127 303h228l-207 -303h-148z" />
    <glyph glyph-name="Macron" unicode="&#xf6d0;" horiz-adv-x="1024" 
d="M225 1671v150h574v-150h-574z" />
    <glyph glyph-name="zerooldstyle" unicode="&#xf730;" horiz-adv-x="1073" 
d="M733 451v206q0 164 -46 234q-47 70 -153 70t-150 -69t-44 -235v-206q0 -166 44 -235t150 -69t153 70q46 70 46 234zM123 451v206q0 248 99 360q100 111 322 111t328 -137q78 -106 78 -334v-206q0 -252 -102 -362q-102 -109 -325 -109q-222 0 -324 137q-76 109 -76 334z
" />
    <glyph glyph-name="oneoldstyle" unicode="&#xf731;" horiz-adv-x="729" 
d="M289 0v881l-244 -105l-68 168l383 164h148v-1108h-219z" />
    <glyph glyph-name="twooldstyle" unicode="&#xf732;" horiz-adv-x="923" 
d="M23 0v133l342 322q243 227 243 350q0 72 -47 113t-131 40q-170 0 -207 -167l-196 43q66 293 405 292q188 0 288 -80q99 -80 99 -218t-86 -253q-39 -47 -65 -73t-144 -135l-211 -199h531v-168h-821z" />
    <glyph glyph-name="threeoldstyle" unicode="&#xf733;" horiz-adv-x="974" 
d="M205 -12q21 -156 234 -156q110 0 169 74q58 74 58 186t-75 184t-194 72h-145v172h131q109 0 173 60t65 163q-1 103 -49 159t-126 56q-150 0 -186 -153l-194 47q43 146 131 210t264 64t276 -96t101 -276q0 -119 -44 -192t-147 -126q88 -41 129 -78q106 -100 106 -290
t-115 -296q-117 -108 -349 -108t-340 115q-45 45 -76 139z" />
    <glyph glyph-name="fouroldstyle" unicode="&#xf734;" horiz-adv-x="958" 
d="M614 -315v315h-583v133l434 975h231l-434 -942h352v407h187v-407h139v-168h-139v-313h-187z" />
    <glyph glyph-name="fiveoldstyle" unicode="&#xf735;" horiz-adv-x="1028" 
d="M469 -336q-342 0 -410 254l201 72q12 -74 68 -116t141 -42q227 0 227 293q0 149 -49 219t-162 70t-192 -90l-160 32l64 752h669v-180h-487l-37 -396q85 48 195 50q201 0 301 -127q76 -100 76 -327t-95 -333q-115 -131 -350 -131z" />
    <glyph glyph-name="sixoldstyle" unicode="&#xf736;" horiz-adv-x="1095" 
d="M758 453q0 161 -50 233t-158 72t-157 -71t-49 -233t49 -234q49 -73 157 -73t159 73q49 73 49 233zM975 453q0 -264 -105 -363q-108 -110 -330 -110t-329 131q-84 99 -84 331t115 432l319 553h246l-322 -534l17 2q58 22 110 23q135 0 234 -80q70 -56 100 -146t29 -239z
" />
    <glyph glyph-name="sevenoldstyle" unicode="&#xf737;" horiz-adv-x="825" 
d="M-14 928v180h759v-131l-415 -1292h-232l420 1243h-532z" />
    <glyph glyph-name="eightoldstyle" unicode="&#xf738;" horiz-adv-x="1124" 
d="M786 410q0 138 -53 198t-172 60t-172 -60t-53 -197q0 -138 53 -204t172 -66t172 66t53 203zM561 1286q-98 0 -143 -54t-45 -177t44 -177t144 -54q101 0 145 54q44 56 44 177t-45 176q-46 55 -144 55zM166 1059q0 199 97 294t298 95t298 -95t97 -298t-143 -291
q100 -47 144 -129t44 -219q0 -224 -106 -330q-105 -106 -333 -106t-335 105q-106 105 -106 331q0 137 44 219t144 129q-78 51 -110 120q-33 69 -33 175z" />
    <glyph glyph-name="nineoldstyle" unicode="&#xf739;" horiz-adv-x="1095" 
d="M547 961q-109 0 -158 -72t-49 -233q0 -162 48 -234t158 -72t159 71t49 233t-49 234q-49 73 -158 73zM123 655q1 262 107 368q106 105 328 105t329 -131q84 -99 84 -333t-115 -431l-319 -548h-246l323 530q-32 -4 -67 -18q-25 -6 -62 -7q-135 0 -233 80q-70 56 -100 146
t-29 239z" />
    <glyph glyph-name="Dbreve" horiz-adv-x="1382" 
d="M649 1747q88 0 127 33t49 114h136q-8 -131 -39 -186q-68 -115 -281 -115t-274 136q-23 46 -29 165h135q10 -82 49 -114t127 -33zM416 176h223q195 -4 277 89t85 315v303q-2 221 -86 314t-276 89h-223v-1110zM197 0v1462h481q559 8 543 -561v-340q16 -569 -543 -561h-481z
" />
    <glyph glyph-name="ahungarumlaut" horiz-adv-x="1083" 
d="M602 1190l127 301h227l-206 -301h-148zM297 1190l127 301h227l-207 -301h-147zM715 471h-207q-119 0 -168 -39t-49 -129t46 -125t176 -35t177 62q25 35 25 131v135zM715 618v60q0 115 -48 165t-155 50q-139 0 -229 -105l-144 107q135 166 396 166t348 -164
q41 -76 41 -254v-643h-166l-15 68q-49 -48 -113 -68t-179 -20q-197 0 -278 72t-81 248q0 177 86 248t307 70h230z" />
    <glyph glyph-name="uni0204.sc" horiz-adv-x="989" 
d="M463 1251h-148l-206 303h227zM768 1251h-145l-209 303h227zM147 0v1108h725v-168h-516v-295h439v-168h-439v-309h521v-168h-730z" />
    <glyph glyph-name="uni0206.sc" horiz-adv-x="989" 
d="M539 1407q-88 0 -127 -33t-50 -117h-135q8 137 39 187q68 117 281 117t274 -136q21 -49 29 -168h-135q-12 84 -50 117t-126 33zM176 0v1108h723v-168h-514v-295h436v-168h-436v-309h520v-168h-729z" />
    <glyph glyph-name="uni0208.sc" horiz-adv-x="563" 
d="M221 1251h-147l-207 303h227zM526 1251h-145l-209 303h227zM176 0v1108h211v-1108h-211z" />
    <glyph glyph-name="uni020A.sc" horiz-adv-x="563" 
d="M281 1407q-88 0 -127 -33t-50 -117h-135q8 137 39 187q68 117 281 117t274 -136q21 -49 29 -168h-135q-12 84 -50 117t-126 33zM174 0v1108h211v-1108h-211z" />
    <glyph glyph-name="uni020C.sc" horiz-adv-x="1148" 
d="M483 1251h-147l-207 303h227zM788 1251h-145l-209 303h228zM766 455v198q0 162 -52 235t-170 73t-170 -73t-52 -235v-198q0 -162 52 -235t170 -73t170 73t52 235zM111 438v230q1 238 105 350t338 110q234 0 343 -139q80 -100 80 -321v-230q0 -127 -23 -205
q-76 -253 -420 -253q-234 0 -344 139q-79 100 -79 319z" />
    <glyph glyph-name="uni020E.sc" horiz-adv-x="1148" 
d="M575 1407q-89 0 -127 -33t-49 -117h-135q8 137 39 187q69 117 281 117t274 -136q21 -49 29 -168h-135q-12 84 -50 117t-127 33zM797 455v198q-1 162 -53 235t-170 73t-170 -73t-52 -235v-198q0 -162 52 -235t170 -73t170 73t53 235zM141 438v230q0 238 99 342
q111 118 344 118t344 -139q80 -100 80 -321v-230q0 -127 -23 -205q-75 -253 -421 -253q-234 0 -343 139q-80 100 -80 319z" />
    <glyph glyph-name="uni0210.sc" horiz-adv-x="1107" 
d="M459 1251h-148l-207 303h228zM764 1251h-146l-208 303h227zM379 606h209q178 0 178 174q0 162 -186 162h-201v-336zM381 453v-453h-211v1108h428q203 0 292 -76t89 -241t-84 -242q-45 -43 -139 -70l262 -479h-242l-227 453h-168z" />
    <glyph glyph-name="uni0212.sc" horiz-adv-x="1107" 
d="M518 1407q-88 0 -127 -33t-49 -117h-135q8 137 39 187q68 117 280 117t275 -136q20 -49 28 -168h-135q-12 84 -50 117t-126 33zM387 606h209q92 0 135 42t43 132q0 162 -186 162h-201v-336zM389 453v-453h-211v1108h428q203 0 292 -76t89 -241t-84 -242q-41 -41 -139 -70
l262 -479h-242l-227 453h-168z" />
    <glyph glyph-name="uni0214.sc" horiz-adv-x="1181" 
d="M492 1251h-148l-207 303h228zM797 1251h-146l-209 303h228zM131 1108h211v-700q0 -129 35 -181q53 -80 181 -80t179 93q27 53 27 168v700h211v-700q1 -123 -15 -188t-57 -114q-106 -126 -360 -126t-355 147q-57 82 -57 281v700z" />
    <glyph glyph-name="uni0216.sc" horiz-adv-x="1181" 
d="M592 1407q-88 0 -127 -33t-49 -117h-135q8 137 38 187q68 117 281 117t274 -136q21 -49 29 -168h-135q-12 84 -50 117t-126 33zM170 1108h211v-700q0 -129 35 -181q53 -80 181 -80t179 93q27 53 27 168v700h211v-700q0 -123 -16 -188t-56 -114q-106 -126 -360 -126
t-355 147q-57 82 -57 281v700z" />
    <glyph glyph-name="uni1E24.sc" horiz-adv-x="1173" 
d="M485 -410v234h203v-234h-203zM176 0v1108h211v-463h401v463h211v-1108h-211v477h-401v-477h-211z" />
    <glyph glyph-name="uni1E5A.sc" horiz-adv-x="1107" 
d="M463 -410v234h203v-234h-203zM387 606h209q92 0 135 42t43 132q0 162 -186 162h-201v-336zM389 453v-453h-211v1108h428q203 0 292 -76t89 -241t-84 -242q-41 -41 -139 -70l262 -479h-242l-227 453h-168z" />
    <glyph glyph-name="uni1E62.sc" horiz-adv-x="962" 
d="M379 -410v234h203v-234h-203zM482 147q99 0 155 41q55 41 55 116q0 104 -111 135q-26 7 -147 36q-184 43 -261 118t-77 221t100 230t283 84q276 0 383 -176l-164 -98q-47 59 -95 83t-126 24t-126 -40t-48 -108q0 -67 52 -105t207 -74t222 -79q115 -70 115 -240
q0 -336 -420 -335q-161 0 -265 46t-167 148l168 100q47 -68 107 -98t160 -29z" />
    <glyph glyph-name="uni1E6C.sc" horiz-adv-x="907" 
d="M350 -410v234h203v-234h-203zM350 0v940h-321v168h852v-168h-320v-940h-211z" />
    <glyph glyph-name="uni1E92.sc" horiz-adv-x="927" 
d="M371 -410v234h202v-234h-202zM84 0v137l487 803h-460v168h708v-137l-487 -803h512v-168h-760z" />
    <glyph glyph-name="uni1E44.sc" horiz-adv-x="1232" 
d="M522 1264v233h203v-233h-203zM176 0v1108h201l475 -766v766h207v-1108h-189l-487 774v-774h-207z" />
    <glyph glyph-name="uni1E0C.sc" horiz-adv-x="1155" 
d="M432 -410v234h203v-234h-203zM387 166h152q143 -4 203 62t63 227v198q-3 160 -63 227t-203 62h-152v-776zM176 0v1108h395q457 8 445 -440v-228q12 -450 -445 -440h-395z" />
    <glyph glyph-name="uni1E02.sc" horiz-adv-x="1083" 
d="M418 1264v233h203v-233h-203zM379 162h262q158 0 158 165t-158 165h-262v-330zM379 641h239q160 0 160 153t-160 152h-239v-305zM627 1108q358 0 358 -294q0 -148 -108 -236q69 -48 99 -110t30 -161q0 -172 -107 -250q-84 -57 -250 -57h-473v1108h451z" />
    <glyph glyph-name="idotaccent" horiz-adv-x="540" 
d="M166 0v1040h209v-1040h-209zM166 1235v238h209v-238h-209z" />
    <glyph glyph-name="one.fitted" horiz-adv-x="729" 
d="M289 0v1235l-244 -105l-68 168l383 164h148v-1462h-219z" />
    <glyph glyph-name="two.fitted" horiz-adv-x="1028" 
d="M45 0v143l406 514q217 273 217 459t-191 187q-180 0 -221 -211l-201 16q14 180 125 277q110 97 304 97t297 -98t103 -265q1 -214 -147 -417q-27 -37 -145 -190l-260 -332h559v-180h-846z" />
    <glyph glyph-name="three.fitted" horiz-adv-x="1007" 
d="M283 684v172h116q113 0 180 62t66 165q0 105 -52 163q-53 58 -141 58q-177 1 -210 -169l-195 16q37 332 410 332q197 1 301 -101t104 -292q0 -119 -40 -191t-136 -127q115 -61 164 -146t49 -223q0 -209 -114 -317t-332 -106q-412 0 -445 344l207 24q31 -190 231 -190
q113 0 175 65q61 66 61 187q0 122 -75 198t-193 76h-131z" />
    <glyph glyph-name="four.fitted" horiz-adv-x="1101" 
d="M668 0v264h-588v133l461 1065h231l-444 -1022h340v410h198v-410h140v-176h-140v-264h-198z" />
    <glyph glyph-name="five.fitted" horiz-adv-x="1087" 
d="M909 1462v-180h-514l-41 -403q98 45 195 45q213 0 321 -136q84 -109 84 -339t-98 -336q-115 -131 -352 -131q-385 0 -420 342l207 26q29 -190 219 -190q227 0 227 282q0 162 -53 235t-173 73t-206 -91l-160 33l68 770h696z" />
    <glyph glyph-name="six.fitted" horiz-adv-x="1103" 
d="M764 452q0 156 -50 226t-158 70t-157 -70t-49 -226t49 -225t159 -69t158 70t48 224zM614 918q139 0 238 -80q70 -56 100 -146t29 -239q0 -264 -104 -363q-105 -110 -329 -110t-331 131q-84 98 -84 340q0 127 23 212t92 211l319 588h246l-321 -569q63 25 122 25z" />
    <glyph glyph-name="seven.fitted" horiz-adv-x="825" 
d="M-14 1282v180h759v-131l-415 -1331h-232l420 1282h-532z" />
    <glyph glyph-name="eight.fitted" horiz-adv-x="1136" 
d="M569 678q-119 0 -173 -62t-54 -198t54 -198t173 -62t172 61t53 197t-52 200q-54 62 -173 62zM762 1079q0 123 -46 179t-149 57q-102 0 -148 -54q-46 -53 -46 -179t46 -181t148 -55t149 55q46 55 46 178zM166 1081q0 205 97 303t304 98t304 -98t98 -303q0 -109 -28 -179
t-97 -128q90 -51 129 -134t39 -222q0 -226 -106 -332t-338 -106q-230 0 -337 105q-106 105 -106 333q0 139 39 222t129 134q-70 59 -98 128q-29 69 -29 179z" />
    <glyph glyph-name="nine.fitted" horiz-adv-x="1103" 
d="M547 1305q-105 0 -157 -65t-52 -202q0 -136 50 -202t157 -66q207 0 207 268t-205 267zM485 604q-150 0 -245 78q-119 98 -119 348t104 352q111 100 331 100t327 -122q86 -98 86 -316q1 -122 -17 -192t-71 -174l-346 -678h-244l325 618q-70 -14 -131 -14z" />
    <glyph glyph-name="zero.fitted" horiz-adv-x="1142" 
d="M786 547v368q0 213 -49 301t-166 89t-165 -89t-50 -301v-368q0 -211 50 -300t166 -89t165 88t49 301zM141 526v410q0 283 95 403q111 143 327 144q250 0 363 -168q76 -119 75 -379v-410q0 -281 -94 -403q-57 -76 -138 -110t-206 -33q-236 0 -346 167q-76 115 -76 379z
" />
    <glyph glyph-name="sterling.fitted" horiz-adv-x="1126" 
d="M123 0v156q106 34 171 120t64 197q0 59 -24 133h-215v180h131q-54 106 -70 162t-16 125q0 195 108 303t324 107q215 0 336 -142q57 -72 100 -217l-178 -59q-37 106 -66 147q-74 96 -184 96t-166 -56q-56 -58 -57 -141t21 -145t85 -180h349v-180h-291q20 -70 20 -121
q0 -180 -145 -305h641v-180h-938z" />
    <glyph glyph-name="dollar.fitted" horiz-adv-x="1193" 
d="M586 190q143 0 220 54t77 159q0 104 -80 158q-39 27 -72 37t-224 55t-291 143t-99 263q0 111 47 197t126 130q79 42 204 56v223h211v-227q238 -31 327 -191l-164 -104q-94 129 -290 129q-117 0 -184 -52q-66 -52 -66 -146t70 -149q70 -53 230 -93q162 -40 216 -59
t108 -54q141 -94 142 -299q0 -348 -389 -400v-294h-211v290q-317 25 -428 224l167 108q96 -158 353 -158z" />
    <glyph glyph-name="cent.fitted" horiz-adv-x="1003" 
d="M461 49v242q-162 20 -246 144t-80 337v78q-6 449 326 500v227h211v-234q166 -37 241 -167l-153 -84q-39 56 -83 80t-112 24q-227 0 -227 -330v-114q0 -307 233 -308q135 0 211 103l152 -86q-84 -133 -262 -166v-246h-211z" />
    <glyph glyph-name="Euro.fitted" horiz-adv-x="1155" 
d="M195 614v109h-185l53 135h132v31q0 301 102 434q119 156 360 156q205 -1 316 -101t119 -293l-201 -14q-13 111 -71 169t-158 58q-132 0 -190 -97t-58 -314v-29h538l-55 -135h-483v-109h436l-53 -135h-379q8 -172 71 -250t195 -77q215 0 244 188l188 -25
q-10 -168 -123 -255t-317 -87q-459 0 -479 506h-183l54 135h127z" />
    <glyph glyph-name="yen.fitted" horiz-adv-x="1175" 
d="M477 0v297h-303v135h303v98h-303v136h244l-387 796h231l324 -700l325 700h234l-389 -796h245v-136h-305v-98h305v-135h-305v-297h-219z" />
    <glyph glyph-name="one.numerator" horiz-adv-x="724" 
d="M297 586v714l-154 -57l-45 123l252 96h117v-876h-170z" />
    <glyph glyph-name="two.numerator" horiz-adv-x="724" 
d="M88 586v106l256 299q129 147 129 242q0 51 -31 81t-82 29q-109 0 -131 -122l-157 14q16 117 65 166q76 76 230 76q276 0 276 -248q0 -85 -32 -147t-146 -197l-141 -166h315v-133h-551z" />
    <glyph glyph-name="three.numerator" horiz-adv-x="724" 
d="M229 989v115h90q59 0 101 36q41 36 41 87t-33 83t-86 31q-102 0 -125 -98l-154 17q14 106 66 149q76 66 219 66q283 0 283 -240q0 -129 -101 -186q123 -66 123 -218q0 -258 -307 -258q-182 0 -258 86q-35 39 -49 134l162 24q20 -111 141 -110q66 1 104 35t37 99
q0 65 -43 107t-112 41h-99z" />
    <glyph glyph-name="four.numerator" horiz-adv-x="724" 
d="M432 586v153h-381v99l297 624h180l-284 -592h188v174h152v-174h90v-131h-90v-153h-152z" />
    <glyph glyph-name="five.numerator" horiz-adv-x="724" 
d="M621 1462v-133h-330l-21 -207q53 20 105 21q150 0 219 -80q55 -61 55 -206q-1 -145 -73 -215t-230 -69q-264 0 -283 222l160 22q23 -111 129 -110q59 1 93 39t34 108q0 164 -125 164q-76 0 -125 -53l-127 24l45 473h474z" />
    <glyph glyph-name="six.numerator" horiz-adv-x="724" 
d="M365 1026q-123 0 -123 -164t123 -164t122 164q1 164 -122 164zM440 1145q31 0 82 -24t80 -58q49 -61 49 -212q-1 -151 -73 -215t-222 -63q-150 0 -223 78q-55 61 -55 209q0 78 15 129t61 127l206 346h197l-201 -323q53 6 84 6z" />
    <glyph glyph-name="seven.numerator" horiz-adv-x="724" 
d="M90 1329v133h539v-96l-291 -780h-184l290 743h-354z" />
    <glyph glyph-name="eight.numerator" horiz-adv-x="724" 
d="M495 842q0 144 -134 143q-134 0 -134 -143t135 -144q133 0 133 144zM361 1358q-117 0 -117 -132t118 -132t117 132q0 132 -118 132zM90 1235q0 121 66 180t206 59t205 -58q66 -58 66 -177t-70 -188q96 -57 96 -203t-70 -211q-71 -63 -228 -63t-227 62q-70 64 -70 212
t96 203q-70 63 -70 184z" />
    <glyph glyph-name="nine.numerator" horiz-adv-x="724" 
d="M360 1350q-122 0 -122 -148t122 -147q122 -1 123 147q0 148 -123 148zM305 938q-231 0 -231 264q0 145 67 209q67 63 219 63t220 -62q68 -64 67 -206q0 -76 -10 -116t-49 -107l-223 -397h-197l207 356q-33 -4 -70 -4z" />
    <glyph glyph-name="zero.numerator" horiz-adv-x="724" 
d="M487 918v212q0 219 -125 220q-127 0 -126 -220v-212q0 -219 126 -220q125 1 125 220zM72 905v238q0 176 68 254q70 78 222 78t221 -79t68 -253v-238q-1 -174 -69 -253t-221 -79t-221 78t-68 254z" />
    <glyph glyph-name="one.denominator" horiz-adv-x="724" 
d="M297 0v715l-154 -58l-45 123l252 97h117v-877h-170z" />
    <glyph glyph-name="two.denominator" horiz-adv-x="724" 
d="M88 0v106l256 300q129 147 129 241q0 51 -31 81t-82 30q-109 0 -131 -123l-157 14q16 117 65 166q76 76 230 76q276 0 276 -248q0 -86 -32 -147t-146 -197l-141 -166h315v-133h-551z" />
    <glyph glyph-name="three.denominator" horiz-adv-x="724" 
d="M229 403v115h90q59 0 101 36q41 36 41 87t-33 83t-86 32q-102 0 -125 -99l-154 17q14 106 66 149q72 66 219 66q283 0 283 -240q0 -71 -23 -113t-78 -73q123 -66 123 -217q0 -258 -307 -258q-182 0 -258 86q-35 39 -49 133l162 24q20 -111 141 -110q66 0 104 35
q38 36 37 100q0 64 -43 106t-112 41h-99z" />
    <glyph glyph-name="four.denominator" horiz-adv-x="724" 
d="M432 0v154h-381v98l297 625h180l-284 -592h188v174h152v-174h90v-131h-90v-154h-152z" />
    <glyph glyph-name="five.denominator" horiz-adv-x="724" 
d="M621 877v-134h-330l-21 -206q53 20 105 20q150 0 219 -80q55 -61 55 -206q-1 -145 -73 -215t-230 -68q-264 0 -283 221l160 22q23 -111 129 -110q59 0 93 39t34 108q0 164 -125 164q-76 0 -125 -53l-127 24l45 474h474z" />
    <glyph glyph-name="six.denominator" horiz-adv-x="724" 
d="M488 276q0 164 -123 164t-123 -164t123 -163q123 -1 123 163zM438 559q33 1 84 -23t80 -59q49 -61 49 -212q-1 -151 -73 -215t-222 -62q-150 0 -223 78q-55 61 -55 208q0 78 15 129t61 127l206 347h197l-201 -324q49 6 82 6z" />
    <glyph glyph-name="seven.denominator" horiz-adv-x="724" 
d="M90 743v134h539v-97l-291 -780h-184l290 743h-354z" />
    <glyph glyph-name="eight.denominator" horiz-adv-x="724" 
d="M361 399q-134 0 -134 -143t134 -143t135 143q-1 143 -135 143zM361 772q-117 0 -117 -132t118 -132t117 132q0 132 -118 132zM90 649q0 121 66 180t206 59t205 -58q66 -60 66 -178t-70 -187q96 -57 96 -203t-70 -211q-71 -63 -228 -63t-227 63t-70 211t96 203
q-70 63 -70 184z" />
    <glyph glyph-name="nine.denominator" horiz-adv-x="724" 
d="M360 764q-122 0 -122 -148t122 -147q122 -1 123 147q0 148 -123 148zM305 352q-231 0 -231 264q0 145 67 209q67 63 219 63t220 -62q68 -64 67 -205q0 -76 -10 -116t-49 -108l-223 -397h-197l207 356q-33 -4 -70 -4z" />
    <glyph glyph-name="zero.denominator" horiz-adv-x="724" 
d="M487 332v213q0 219 -126 219t-125 -219v-213q0 -219 126 -219t125 219zM72 319v238q0 176 68 254q70 78 222 78t221 -79t68 -253v-238q-1 -175 -69 -253t-221 -78t-221 78t-68 253z" />
    <glyph glyph-name="oneone" horiz-adv-x="1798" 
d="M1311 0v715l-154 -58l-45 123l252 97h117v-877h-170zM492 0l460 1462h197l-461 -1462h-196zM317 586v714l-153 -57l-45 123l252 96h116v-876h-170z" />
    <glyph glyph-name="Dotaccent" horiz-adv-x="1024" 
d="M410 1618v233h202v-233h-202z" />
    <glyph glyph-name="Ring" horiz-adv-x="1024" 
d="M610 1806q0 116 -99 117q-99 0 -99 -117t100 -116q98 0 98 116zM512 2025q106 0 170 -59q64 -60 63 -158t-65 -159t-169 -61t-170 60q-65 62 -65 161t64 157q66 58 172 59z" />
    <glyph glyph-name="Circumflex" horiz-adv-x="1024" 
d="M512 1776l-129 -164h-209l266 291h144l268 -291h-209z" />
    <glyph glyph-name="Breve" horiz-adv-x="1024" 
d="M512 1747q88 0 127 33t49 114h135q-8 -131 -39 -186q-68 -115 -280 -115t-275 136q-22 46 -28 165h135q10 -82 49 -114t127 -33z" />
    <glyph glyph-name="Tilde" horiz-adv-x="1024" 
d="M387 1890q82 0 154 -63q49 -41 67 -52t43 -11t42 24q17 25 32 88h129q-23 -117 -45 -162q-49 -100 -164 -100q-85 0 -155 63t-105 64q-59 0 -86 -113h-129q29 121 51 160q57 102 166 102z" />
    <glyph glyph-name="Cedilla" horiz-adv-x="1024" 
d="M362 -469l105 332h209l-170 -332h-144z" />
    <glyph glyph-name="Ogonek" horiz-adv-x="1024" 
d="M670 -295q55 0 123 21l20 -111q-84 -33 -180 -33q-248 0 -248 170q0 148 207 248h170q-190 -119 -191 -215q0 -80 99 -80z" />
    <glyph glyph-name="Commaaccent" horiz-adv-x="1024" 
d="M362 -469l105 332h209l-170 -332h-144z" />
    <glyph glyph-name="Comma.high" horiz-adv-x="270" 
d="M0 975l59 512h205l-117 -512h-147z" />
    <glyph glyph-name="Croatumlaut" horiz-adv-x="1024" 
d="M451 1606h-148l-207 303h228zM756 1606h-146l-209 303h228z" />
    <glyph glyph-name="Croatbreve" horiz-adv-x="1024" 
d="M520 1915q212 0 275 -135q20 -49 28 -168h-135q-12 84 -50 117t-126 33t-127 -34q-39 -32 -49 -116h-135q8 137 39 186q68 117 280 117z" />
    <glyph glyph-name="Cicumflexacute" horiz-adv-x="1024" 
d="M729 1745l150 280h227l-246 -303h-108l100 -110h-209l-131 164l-129 -164h-209l266 291h144z" />
    <glyph glyph-name="Ringacute" horiz-adv-x="1024" 
d="M424 1837l115 250h233l-219 -250h-129zM511 1698q-99 0 -99 -116t99 -116t99 116t-99 116zM276 1584q0 100 64 158t172 58q106 0 170 -59t63 -157q0 -98 -64 -160q-65 -60 -170 -60t-170 60t-65 160z" />
    <glyph glyph-name="croatumlaut" horiz-adv-x="1024" 
d="M451 1190h-148l-207 301h228zM756 1190h-146l-209 301h228z" />
    <glyph glyph-name="croatbreve" horiz-adv-x="1024" 
d="M520 1497q212 0 275 -135q20 -49 28 -168h-135q-12 84 -50 117t-126 33t-127 -34q-39 -32 -49 -116h-135q8 137 39 186q68 117 280 117z" />
    <glyph glyph-name="cicumflexacute" horiz-adv-x="1024" 
d="M729 1327l150 281h227l-246 -303h-108l100 -109h-209l-131 162l-129 -162h-209l266 289h144z" />
    <glyph glyph-name="ringacute" horiz-adv-x="1024" 
d="M424 1647l115 247h233l-219 -247h-129zM511 1507q-99 -1 -99 -117t99 -116t99 116t-99 117zM276 1394q0 100 64 158t172 58q106 0 170 -60t63 -158q0 -97 -64 -159q-65 -61 -170 -61t-170 60q-65 62 -65 162z" />
    <glyph glyph-name="Ohorn.sc" horiz-adv-x="1216" 
d="M799 455v198q1 162 -53 235t-171 73t-169 -73t-54 -235v-198q0 -162 54 -235t170 -73q118 0 170 73t53 235zM1010 438q0 -127 -23 -205q-75 -253 -421 -253q-234 0 -345 139q-80 100 -80 319v232q0 126 23 204t76 136q111 119 335 118q178 0 279 -66q100 -67 139 -212
l13 8l28 23q58 43 58 119t-31 128h184q14 -51 15 -90q0 -100 -56 -173t-196 -150l2 -41v-236z" />
    <glyph glyph-name="Uhorn.sc" horiz-adv-x="1300" 
d="M170 1108h211v-700q0 -129 35 -181q53 -80 181 -80t179 93q27 53 27 168v700h211v-311q100 47 140 96t40 115t-31 120h185q14 -41 14 -90q0 -156 -164 -272q-51 -33 -184 -102v-256q0 -123 -16 -188t-56 -114q-106 -126 -360 -126t-355 147q-57 82 -57 281v700z" />
    <glyph glyph-name="uni1EA0.sc" horiz-adv-x="985" 
d="M391 -410v234h203v-234h-203zM672 381l-176 506l-177 -506h353zM719 221h-447l-75 -221h-232l424 1108h211l424 -1108h-231z" />
    <glyph glyph-name="uni1EA2.sc" horiz-adv-x="985" 
d="M582 1241h-148q2 79 9 103t38 68t31 67q0 43 -50 43t-112 -31l-35 119q214 72 318 -8q51 -41 51 -115q0 -35 -11 -57t-45 -64q-34 -40 -40 -60t-6 -65zM672 381l-176 506l-177 -506h353zM719 221h-447l-75 -221h-232l424 1108h211l424 -1108h-231z" />
    <glyph glyph-name="uni1EA4.sc" horiz-adv-x="985" 
d="M494 1319l-127 -115h-199l258 234h135l258 -234h-198zM412 1491l118 238h181l-181 -238h-118zM672 381l-176 506l-177 -506h353zM719 221h-447l-75 -221h-232l424 1108h211l424 -1108h-231z" />
    <glyph glyph-name="uni1EA6.sc" horiz-adv-x="985" 
d="M494 1319l-127 -115h-199l258 234h135l258 -234h-198zM573 1491h-120l-181 238h183zM672 381l-176 506l-177 -506h353zM719 221h-447l-75 -221h-232l424 1108h211l424 -1108h-231z" />
    <glyph glyph-name="uni1EA8.sc" horiz-adv-x="985" 
d="M489 1313l-127 -109h-198l258 217h135l258 -217h-199zM452 1647q-40 0 -94 -23l-32 92q78 29 152 29t117 -32q44 -32 44 -80t-55 -103q-27 -27 -29 -76h-129q2 54 9 74t31 48t26 46q0 25 -40 25zM672 381l-176 506l-177 -506h353zM719 221h-447l-75 -221h-232l424 1108
h211l424 -1108h-231z" />
    <glyph glyph-name="uni1EAA.sc" horiz-adv-x="985" 
d="M500 1319l-127 -115h-199l258 234h135l258 -234h-198zM388 1720q81 0 136 -56t84 -56q41 0 62 98h108q-18 -104 -37 -139q-41 -82 -124 -82t-137 56t-83 56q-50 0 -75 -98h-111q23 96 47 137q49 84 130 84zM672 381l-176 506l-177 -506h353zM719 221h-447l-75 -221h-232
l424 1108h211l424 -1108h-231z" />
    <glyph glyph-name="uni1EAC.sc" horiz-adv-x="985" 
d="M391 -410v234h203v-234h-203zM494 1421l-132 -161h-206l266 286h143l266 -286h-206zM672 381l-176 506l-177 -506h353zM719 221h-447l-75 -221h-232l424 1108h211l424 -1108h-231z" />
    </font>
</defs>
</svg>
