<?xml version="1.0" encoding="UTF-8"?>
<svg xmlns="http://www.w3.org/2000/svg" xmlns:xlink="http://www.w3.org/1999/xlink" version="1.2" >
<font id="Clarendon URW Extra Wide Light">
<font-face  font-family="Clarendon URW Extra Wide" units-per-em="1000" ascent="668" descent="-332" font-style="normal" font-weight="300" font-stretch="normal" cap-height="668" x-height="469" underline-position="-70" underline-thickness="56" />
<missing-glyph  horiz-adv-x="250" d="" />
<glyph glyph-name="NULL" d="" />
<glyph glyph-name="CR" unicode="&#xd;" horiz-adv-x="250" d="" />
<glyph glyph-name="space" unicode="&#x20;" horiz-adv-x="250" d="" />
<glyph glyph-name="exclam" unicode="&#x21;" horiz-adv-x="328" d="M204 95 C170 95 142 70 142 40 C142 8 169 -17 204 -17 C238 -17 266 8 266 39 C266 70 238 95 204 95 L204 95 Z M228 181 C234 337 237 378 254 497 C265 596 266 603 266 617 C266 660 242 687 204 687 C165 687 142 660 142 617 C142 601 142 597 154 497 C171 377 174 337 180 181 L228 181 Z " />
<glyph glyph-name="quotedbl" unicode="&#x22;" horiz-adv-x="359" d="M132 399 L147 667 L50 667 L65 399 L132 399 Z M294 399 L309 667 L213 667 L227 399 L294 399 Z " />
<glyph glyph-name="numbersign" unicode="&#x23;" horiz-adv-x="660" d="M600 274 L481 274 L503 405 L622 405 L632 474 L513 474 L547 667 L460 667 L427 474 L282 474 L315 667 L230 667 L197 474 L75 474 L65 405 L186 405 L163 274 L41 274 L31 205 L153 205 L117 0 L202 0 L237 205 L382 205 L346 0 L434 0 L469 205 L590 205 L600 274 Z M416 405 L394 274 L249 274 L271 405 L416 405 Z " />
<glyph glyph-name="dollar" unicode="&#x24;" horiz-adv-x="672" d="M298 -104 L349 -104 L349 -2 C451 9 496 20 542 49 C589 78 615 122 615 172 C615 224 587 267 537 294 C493 317 455 329 349 349 L349 559 C436 556 483 540 507 505 C469 499 453 485 453 454 C453 422 477 402 515 402 C559 402 587 427 587 466 C587 493 573 519 547 543 C504 582 454 597 349 606 L349 681 L298 681 L298 606 C210 595 171 583 129 555 C85 526 61 485 61 441 C61 397 86 354 128 328 C167 303 203 291 298 272 L298 48 C182 60 146 73 116 115 C165 119 187 136 187 171 C187 203 159 225 120 225 C75 225 44 195 44 150 C44 113 69 73 108 47 C147 21 192 10 298 -2 L298 -104 Z M298 361 C235 372 210 378 186 391 C158 405 142 431 142 459 C142 487 157 512 184 529 C210 545 236 552 298 561 L298 361 Z M349 263 C421 251 451 243 481 229 C515 212 533 187 533 156 C533 121 510 90 472 73 C442 60 415 55 349 48 L349 263 Z " />
<glyph glyph-name="percent" unicode="&#x25;" horiz-adv-x="1049" d="M244 622 C124 622 38 542 38 433 C38 317 123 238 245 238 C364 238 449 318 449 430 C449 543 364 622 244 622 L244 622 Z M246 571 C317 571 363 515 363 430 C363 344 316 289 244 289 C172 289 124 345 124 430 C124 517 171 571 246 571 L246 571 Z M356 -17 L766 622 L698 622 L288 -17 L356 -17 Z M811 366 C691 366 605 287 605 177 C605 62 690 -17 812 -17 C931 -17 1016 63 1016 175 C1016 287 931 366 811 366 L811 366 Z M813 315 C884 315 930 259 930 175 C930 89 883 34 811 34 C739 34 691 90 691 174 C691 261 737 315 813 315 L813 315 Z " />
<glyph glyph-name="ampersand" unicode="&#x26;" horiz-adv-x="901" d="M796 201 C791 151 789 136 781 114 C768 77 736 54 695 54 C658 54 631 67 584 107 C637 158 664 194 710 275 C743 335 765 349 826 352 L853 352 L853 405 L533 405 L533 352 L562 352 C617 352 644 338 644 311 C644 274 612 225 540 151 C468 227 455 243 367 373 C428 404 454 423 482 454 C513 489 528 524 528 561 C528 634 463 687 373 687 C273 687 196 619 196 532 C196 496 205 466 237 396 C178 368 139 346 116 325 C69 285 44 234 44 181 C44 130 70 74 110 41 C155 4 227 -20 294 -20 C370 -20 434 -1 509 43 C570 -3 612 -19 675 -19 C724 -19 765 -6 794 20 C836 56 851 101 854 201 L796 201 Z M459 89 C391 57 357 47 316 47 C219 47 143 112 143 195 C143 256 175 289 273 333 C362 196 380 172 459 89 L459 89 Z M330 431 C295 479 283 507 283 542 C283 597 317 632 371 632 C419 632 453 603 453 560 C453 508 430 483 330 431 L330 431 Z " />
<glyph glyph-name="quotesingle" unicode="&#x27;" horiz-adv-x="196" d="M132 399 L147 667 L50 667 L65 399 L132 399 Z " />
<glyph glyph-name="parenleft" unicode="&#x28;" horiz-adv-x="393" d="M367 -154 C299 -123 264 -96 220 -39 C164 33 135 130 135 248 C135 354 161 450 207 517 C252 582 294 616 367 649 L367 687 C275 653 231 625 173 562 C95 478 55 371 55 247 C55 132 90 32 157 -49 C217 -121 269 -156 367 -192 L367 -154 Z " />
<glyph glyph-name="parenright" unicode="&#x29;" horiz-adv-x="393" d="M22 -192 C114 -159 158 -131 216 -68 C294 16 334 123 334 247 C334 361 299 463 232 543 C172 615 120 650 22 686 L22 648 C90 617 124 590 169 533 C224 461 253 364 253 247 C253 139 228 44 181 -23 C136 -88 95 -122 22 -155 L22 -192 Z " />
<glyph glyph-name="asterisk" unicode="&#x2a;" horiz-adv-x="546" d="M257 483 C223 465 201 458 166 455 C113 452 113 452 97 444 C80 435 71 422 71 407 C71 381 97 354 123 354 C147 354 162 366 195 410 C206 425 215 435 220 439 L256 463 C258 464 261 467 266 470 C265 427 262 411 247 383 C223 340 223 340 223 323 C223 296 243 278 274 278 C305 278 327 296 327 321 C327 337 323 347 304 383 C296 398 290 413 289 418 C288 423 286 437 284 458 C284 459 284 464 283 469 C331 440 338 435 357 409 C379 378 380 377 387 372 C401 360 416 354 430 354 C456 354 480 380 480 406 C480 421 470 435 455 443 C439 451 430 452 385 455 C367 456 351 458 345 461 C339 462 325 468 304 477 C303 477 298 479 293 481 C323 499 350 507 385 509 C441 513 446 514 463 527 C474 536 480 545 480 557 C480 583 454 610 429 610 C404 610 390 599 356 554 C345 539 336 529 330 526 C319 518 307 510 295 501 C293 500 289 498 284 494 C286 539 289 553 304 582 C328 625 328 625 328 642 C328 670 308 687 276 687 C245 687 223 669 223 644 C223 629 227 617 246 581 C254 566 261 551 261 546 C262 543 264 528 266 507 C266 505 267 500 268 495 C219 524 214 529 194 555 C173 584 171 588 164 593 C150 605 135 611 121 611 C95 611 71 585 71 558 C71 548 75 538 84 530 C100 516 112 513 166 510 C201 507 205 506 246 488 L257 483 Z " />
<glyph glyph-name="plus" unicode="&#x2b;" horiz-adv-x="557" d="M57 342 L57 276 L240 276 L240 114 L316 114 L316 276 L499 276 L499 342 L316 342 L316 504 L240 504 L240 342 L57 342 Z " />
<glyph glyph-name="comma" unicode="&#x2c;" horiz-adv-x="333" d="M87 -146 C144 -136 171 -125 198 -98 C225 -71 241 -33 241 6 C241 59 207 95 155 95 C118 95 93 72 93 39 C93 9 115 -11 147 -11 C162 -11 171 -8 189 3 C193 -60 155 -103 87 -111 L87 -146 Z " />
<glyph glyph-name="hyphen" unicode="&#x2d;" horiz-adv-x="284" d="M0 201 L284 201 L284 275 L0 275 L0 201 Z " />
<glyph glyph-name="period" unicode="&#x2e;" horiz-adv-x="307" d="M154 95 C120 95 92 70 92 40 C92 8 119 -17 154 -17 C188 -17 216 8 216 39 C216 70 188 95 154 95 L154 95 Z " />
<glyph glyph-name="slash" unicode="&#x2f;" horiz-adv-x="384" d="M73 -92 L340 686 L279 686 L12 -92 L73 -92 Z " />
<glyph glyph-name="zero" unicode="0" horiz-adv-x="672" d="M336 622 C163 622 38 490 38 307 C38 115 160 -17 338 -17 C511 -17 634 116 634 303 C634 491 511 622 336 622 L336 622 Z M336 569 C394 569 448 543 479 501 C513 455 532 382 532 303 C532 223 512 149 479 104 C449 63 392 36 336 36 C213 36 140 137 140 306 C140 382 160 456 193 501 C224 544 277 569 336 569 L336 569 Z " />
<glyph glyph-name="one" unicode="1" horiz-adv-x="672" d="M137 0 L546 0 L546 51 L494 51 C399 53 390 59 391 120 L391 622 L339 622 C310 546 278 527 160 518 L160 469 L301 469 L301 121 C302 57 297 54 204 51 L137 51 L137 0 Z " />
<glyph glyph-name="two" unicode="2" horiz-adv-x="672" d="M109 0 C113 50 130 66 177 66 C208 66 215 64 274 35 L330 9 C369 -10 401 -18 434 -18 C476 -18 512 -6 538 18 C579 55 595 103 598 201 L549 201 C545 106 522 75 455 75 C429 75 396 80 366 88 L292 109 C248 121 235 123 209 123 C182 123 167 120 136 107 C186 180 201 189 333 227 C418 251 472 271 500 286 C550 313 583 371 583 432 C583 546 480 622 324 622 C180 622 70 547 70 448 C70 401 104 365 149 365 C188 365 217 392 217 428 C217 463 195 482 154 482 L136 482 C162 518 180 535 201 546 C229 560 267 568 307 568 C415 568 483 518 483 438 C483 407 473 381 454 360 C436 341 408 327 346 304 C197 246 137 211 101 162 C65 109 55 74 56 0 L109 0 Z " />
<glyph glyph-name="three" unicode="3" horiz-adv-x="672" d="M255 299 C345 297 383 293 417 281 C469 263 497 225 497 171 C497 86 426 39 297 39 C211 39 172 54 120 106 C172 110 192 126 192 163 C192 196 165 219 125 219 C77 219 43 188 43 143 C43 55 162 -17 306 -17 C481 -17 602 59 602 170 C602 212 585 248 551 277 C521 302 494 314 433 327 C482 339 501 346 523 360 C560 382 583 422 583 463 C583 558 480 622 327 622 C192 622 73 554 73 477 C73 438 103 411 145 411 C186 411 211 432 211 467 C211 498 196 513 158 521 C217 558 259 571 320 571 C420 571 483 527 483 457 C483 412 458 381 409 366 C379 357 344 354 255 352 L255 299 Z " />
<glyph glyph-name="four" unicode="4" horiz-adv-x="672" d="M243 0 L627 0 L627 51 L564 51 C493 52 480 61 482 110 L482 180 L627 180 L627 237 L482 237 L482 622 L423 622 L33 231 L33 180 L395 180 L395 106 C393 58 384 52 313 51 L243 51 L243 0 Z M395 237 L121 237 L395 509 L395 237 Z " />
<glyph glyph-name="five" unicode="5" horiz-adv-x="672" d="M173 519 C240 510 270 508 312 508 C367 508 411 513 452 523 C507 538 535 559 576 622 C466 597 416 591 336 591 C260 591 216 597 117 620 L88 305 L142 305 C208 351 248 365 309 365 C428 365 503 303 503 205 C503 102 425 38 301 38 C269 38 236 43 208 51 C179 61 163 71 130 102 C181 107 202 124 202 159 C202 193 173 218 132 218 C87 218 54 186 54 141 C54 51 165 -17 311 -17 C391 -17 461 2 518 40 C578 80 605 132 605 206 C605 271 581 326 537 360 C488 400 415 422 335 422 C277 422 240 414 161 382 L173 519 Z " />
<glyph glyph-name="six" unicode="6" horiz-adv-x="672" d="M498 539 C467 526 453 510 453 486 C453 455 484 431 522 431 C563 431 590 457 590 497 C590 568 496 622 370 622 C185 622 60 485 60 283 C60 194 87 119 140 63 C191 8 256 -17 348 -17 C511 -17 618 67 618 194 C618 309 513 395 372 395 C299 395 250 376 177 319 C183 415 195 460 227 502 C260 546 316 571 380 571 C424 571 454 563 498 539 L498 539 Z M346 336 C452 336 515 279 515 185 C515 95 448 38 342 38 C237 38 172 97 172 191 C172 280 239 336 346 336 L346 336 Z " />
<glyph glyph-name="seven" unicode="7" horiz-adv-x="672" d="M387 -5 L387 16 C387 206 396 232 507 380 C632 545 633 546 640 605 L582 605 C571 575 553 563 518 563 C499 563 476 569 433 584 C370 605 335 613 297 613 C232 613 195 594 140 534 L140 605 L82 605 L82 353 L136 353 C140 437 144 462 162 484 C182 511 220 527 262 527 C275 527 287 526 297 523 C405 498 410 497 446 497 C475 497 493 501 534 514 C490 455 485 449 425 389 C299 262 272 192 275 -5 L387 -5 Z " />
<glyph glyph-name="eight" unicode="8" horiz-adv-x="672" d="M200 307 C151 289 118 273 98 258 C63 230 44 194 44 153 C44 51 157 -17 329 -17 C499 -17 620 59 620 166 C620 201 607 233 579 261 C555 287 519 307 452 332 C494 347 521 360 537 372 C574 398 592 431 592 471 C592 558 483 622 334 622 C181 622 73 550 73 450 C73 384 108 346 200 307 L200 307 Z M382 256 C492 228 528 200 528 147 C528 80 451 39 328 39 C209 39 127 87 127 156 C127 186 143 216 169 236 C196 257 223 267 288 281 L382 256 Z M270 379 C229 390 204 400 191 411 C172 427 161 449 161 471 C161 530 231 570 333 570 C443 570 509 533 509 473 C509 441 493 411 466 392 C444 376 423 367 371 354 L270 379 Z " />
<glyph glyph-name="nine" unicode="9" horiz-adv-x="672" d="M173 66 C205 78 219 95 219 119 C219 150 188 174 149 174 C108 174 81 148 81 108 C81 37 175 -17 301 -17 C486 -17 611 120 611 322 C611 411 584 486 531 542 C479 598 415 622 320 622 C161 622 53 536 53 410 C53 295 158 209 299 209 C372 209 421 228 495 286 C488 189 476 144 445 103 C411 59 356 34 292 34 C250 34 219 42 173 66 L173 66 Z M329 567 C364 567 403 557 431 542 C476 517 499 473 499 414 C499 325 431 268 325 268 C219 268 156 325 156 420 C156 510 223 567 329 567 L329 567 Z " />
<glyph glyph-name="colon" unicode="&#x3a;" horiz-adv-x="328" d="M204 95 C170 95 142 70 142 40 C142 8 169 -17 204 -17 C238 -17 266 8 266 39 C266 70 238 95 204 95 L204 95 Z M204 444 C170 444 142 419 142 389 C142 356 170 331 204 331 C238 331 266 357 266 388 C266 419 238 444 204 444 L204 444 Z " />
<glyph glyph-name="semicolon" unicode="&#x3b;" horiz-adv-x="328" d="M220 444 C186 444 158 419 158 389 C158 356 186 331 220 331 C254 331 282 357 282 388 C282 419 254 444 220 444 L220 444 Z M142 -146 C199 -136 226 -125 253 -98 C280 -71 296 -33 296 6 C296 59 262 95 210 95 C173 95 148 72 148 39 C148 9 170 -11 202 -11 C217 -11 226 -8 244 3 C248 -60 210 -103 142 -111 L142 -146 Z " />
<glyph glyph-name="less" unicode="&#x3c;" horiz-adv-x="550" d="M514 578 L37 371 L37 296 L514 89 L514 175 L139 333 L514 492 L514 578 Z " />
<glyph glyph-name="equal" unicode="&#x3d;" horiz-adv-x="557" d="M57 426 L57 363 L499 363 L499 426 L57 426 Z M57 274 L57 211 L499 211 L499 274 L57 274 Z " />
<glyph glyph-name="greater" unicode="&#x3e;" horiz-adv-x="550" d="M37 578 L37 492 L411 333 L37 175 L37 89 L513 296 L513 371 L37 578 Z " />
<glyph glyph-name="question" unicode="&#x3f;" horiz-adv-x="563" d="M271 95 C237 95 209 70 209 40 C209 8 237 -17 271 -17 C305 -17 333 8 333 39 C333 70 305 95 271 95 L271 95 Z M297 180 C303 265 309 274 389 329 C460 376 482 394 506 427 C525 452 535 484 535 515 C535 617 438 687 297 687 C156 687 55 615 55 515 C55 455 94 412 147 412 C189 412 216 435 216 469 C216 500 194 520 159 520 C143 520 133 517 113 507 C115 547 124 567 152 590 C182 617 234 633 287 633 C378 633 440 587 440 520 C440 473 419 439 365 397 C255 311 244 292 241 180 L297 180 Z " />
<glyph glyph-name="at" unicode="&#x40;" horiz-adv-x="821" d="M548 494 L535 435 C513 483 474 506 416 506 C310 506 223 414 223 303 C223 210 288 142 378 142 C434 142 484 167 516 211 C522 172 553 147 597 147 C693 147 778 258 778 383 C778 554 629 680 429 680 C213 680 44 527 44 332 C44 238 85 146 156 83 C227 19 321 -13 437 -13 C527 -13 609 2 681 31 L664 85 C591 55 519 42 434 42 C330 42 252 69 192 125 C135 179 103 253 103 331 C103 497 246 626 431 626 C602 626 724 525 724 383 C724 287 665 197 602 197 C579 197 563 215 563 239 C563 249 565 267 570 286 L614 494 L548 494 Z M421 443 C478 443 514 407 514 349 C514 267 459 202 390 202 C331 202 291 244 291 304 C291 380 350 443 421 443 L421 443 Z " />
<glyph glyph-name="A" unicode="A" horiz-adv-x="770" d="M-22 0 L295 0 L295 53 L240 53 C184 53 170 58 170 79 C170 89 175 108 185 130 L226 223 L504 223 L551 110 C556 97 559 85 559 79 C559 59 544 53 495 53 L436 53 L436 0 L784 0 L784 53 L754 53 C700 54 681 67 662 114 L429 667 L337 667 L101 111 C81 64 65 54 13 53 L-22 53 L-22 0 Z M248 276 L362 561 L480 276 L248 276 Z " />
<glyph glyph-name="B" unicode="B" horiz-adv-x="787" d="M33 0 L412 0 C527 0 594 13 651 46 C705 77 733 125 733 183 C733 240 705 288 656 316 C623 334 597 342 532 352 C591 365 614 373 642 390 C684 415 708 456 708 505 C708 610 611 667 431 667 L33 667 L33 614 L81 614 C155 612 164 604 162 541 L162 126 C164 63 155 55 81 53 L33 53 L33 0 Z M259 53 L259 322 L412 322 C499 322 534 315 573 292 C611 269 633 232 633 189 C633 100 557 53 412 53 L259 53 Z M259 375 L259 614 L421 614 C477 614 517 608 544 594 C586 574 609 538 609 494 C609 419 536 375 412 375 L259 375 Z " />
<glyph glyph-name="C" unicode="C" horiz-adv-x="776" d="M654 243 C641 173 628 142 598 110 C556 65 495 41 419 41 C335 41 264 71 220 127 C176 180 152 255 152 333 C152 506 260 631 408 631 C482 631 550 602 597 550 C633 511 646 480 657 408 L713 408 L713 667 L662 667 L635 607 C540 670 490 687 407 687 C200 687 44 534 44 331 C44 226 84 134 159 68 C226 8 307 -20 410 -20 C519 -20 598 9 653 69 C692 113 708 153 720 243 L654 243 Z " />
<glyph glyph-name="D" unicode="D" horiz-adv-x="863" d="M33 0 L385 0 C569 0 643 18 716 79 C786 137 826 230 826 336 C826 447 782 543 704 599 C630 653 564 667 387 667 L33 667 L33 614 L81 614 C155 612 164 604 162 541 L162 126 C164 63 155 55 81 53 L33 53 L33 0 Z M259 614 L387 614 C517 614 590 593 647 539 C696 492 718 430 718 341 C718 246 691 168 643 124 C591 78 502 53 385 53 L259 53 L259 614 Z " />
<glyph glyph-name="E" unicode="E" horiz-adv-x="814" d="M33 0 L728 0 L728 271 L671 271 C664 88 635 56 473 53 L257 53 L257 323 L333 323 C436 320 448 306 453 178 L510 178 L510 505 L453 505 C452 392 435 374 334 376 L257 376 L257 614 L459 614 C629 613 668 577 671 416 L728 416 L728 667 L33 667 L33 614 L80 614 C153 612 162 604 160 541 L160 126 C162 63 153 55 80 53 L33 53 L33 0 Z " />
<glyph glyph-name="F" unicode="F" horiz-adv-x="748" d="M33 0 L393 0 L393 53 L337 53 C264 55 256 63 257 126 L257 323 L316 323 C420 320 432 306 437 178 L493 178 L493 505 L437 505 C436 392 419 374 317 376 L257 376 L257 614 L436 614 C609 613 646 576 647 401 L704 401 L704 667 L33 667 L33 614 L80 614 C153 612 162 604 160 541 L160 126 C162 63 153 55 80 53 L33 53 L33 0 Z " />
<glyph glyph-name="G" unicode="G" horiz-adv-x="852" d="M728 -7 L728 232 C728 283 738 290 809 289 L853 289 L853 342 L484 342 L484 289 L545 289 C620 288 629 282 631 232 L631 191 C631 155 622 131 601 108 C565 68 489 41 414 41 C327 41 249 77 206 137 C170 185 152 253 152 334 C152 514 251 631 404 631 C470 631 532 608 579 565 C618 530 636 497 660 421 L715 421 L715 667 L667 667 L631 602 C539 670 492 687 401 687 C191 687 44 539 44 329 C44 121 187 -19 400 -19 C487 -19 537 -3 638 56 L676 -7 L728 -7 Z " />
<glyph glyph-name="H" unicode="H" horiz-adv-x="912" d="M31 0 L391 0 L391 53 L335 53 C262 55 254 63 255 126 L255 311 L656 311 L656 126 C658 63 649 55 576 53 L520 53 L520 0 L881 0 L881 53 L834 53 C760 55 751 63 753 126 L753 541 C751 604 760 612 834 614 L881 614 L881 667 L520 667 L520 614 L576 614 C649 612 658 604 656 541 L656 364 L255 364 L255 541 C254 604 262 612 335 614 L391 614 L391 667 L31 667 L31 614 L78 614 C151 612 160 604 158 541 L158 126 C160 63 151 55 78 53 L31 53 L31 0 Z " />
<glyph glyph-name="I" unicode="I" horiz-adv-x="426" d="M32 0 L393 0 L393 53 L342 53 C269 55 260 63 262 126 L262 541 C260 604 269 612 342 614 L393 614 L393 667 L32 667 L32 614 L83 614 C157 612 166 604 164 541 L164 126 C166 63 157 55 83 53 L32 53 L32 0 Z " />
<glyph glyph-name="J" unicode="J" horiz-adv-x="595" d="M215 614 L269 614 C341 612 350 604 348 541 L348 179 C348 132 337 97 317 75 C295 51 253 36 210 36 C157 36 126 49 92 84 C142 87 166 108 166 148 C166 186 137 212 95 212 C46 212 11 178 11 130 C11 93 30 55 64 28 C104 -4 153 -19 223 -19 C305 -19 364 2 403 45 C435 81 445 119 445 210 L445 541 C443 604 452 612 526 614 L564 614 L564 667 L215 667 L215 614 Z " />
<glyph glyph-name="K" unicode="K" horiz-adv-x="841" d="M393 53 L337 53 C264 55 256 63 257 126 L257 237 L368 323 L572 121 C607 86 610 82 610 73 C610 60 596 53 568 53 L484 53 L484 0 L882 0 L882 53 L848 53 C787 56 764 66 721 111 L447 384 L631 536 C709 596 742 611 799 614 L843 614 L843 667 L477 667 L477 614 L531 614 C569 614 586 608 586 594 C586 585 579 575 567 565 L257 318 L257 541 C256 604 264 612 337 614 L393 614 L393 667 L33 667 L33 614 L80 614 C153 612 162 604 160 541 L160 126 C162 63 153 55 80 53 L33 53 L33 0 L393 0 L393 53 Z " />
<glyph glyph-name="L" unicode="L" horiz-adv-x="748" d="M33 667 L33 614 L80 614 C153 612 162 604 160 541 L160 126 C162 63 153 55 80 53 L33 53 L33 0 L704 0 L704 277 L647 277 C648 91 613 54 436 53 L257 53 L257 541 C256 604 264 612 337 614 L393 614 L393 667 L33 667 Z " />
<glyph glyph-name="M" unicode="M" horiz-adv-x="1038" d="M33 614 L77 614 C149 612 158 604 156 541 L156 126 C158 63 149 55 77 53 L33 53 L33 0 L353 0 L353 53 L302 53 C230 55 221 63 223 126 L223 600 L484 0 L526 0 L789 586 L789 126 C791 63 782 55 709 53 L655 53 L655 0 L1010 0 L1010 53 L963 53 C890 55 881 63 883 126 L883 541 C881 604 890 612 963 614 L1010 614 L1010 667 L759 667 L524 145 L299 667 L33 667 L33 614 Z " />
<glyph glyph-name="N" unicode="N" horiz-adv-x="907" d="M765 -3 L765 541 C763 604 772 612 845 614 L882 614 L882 667 L560 667 L560 614 L619 614 C691 612 700 604 698 541 L698 131 L276 667 L33 667 L33 614 L77 614 C149 612 158 604 156 541 L156 126 C158 63 149 55 77 53 L33 53 L33 0 L359 0 L359 53 L302 53 C230 55 221 63 223 126 L223 577 L678 -3 L765 -3 Z " />
<glyph glyph-name="O" unicode="O" horiz-adv-x="874" d="M437 687 C213 687 44 537 44 339 C44 130 208 -19 438 -19 C664 -19 830 131 830 334 C830 538 664 687 437 687 L437 687 Z M437 632 C523 632 594 603 649 546 C697 494 722 423 722 334 C722 154 610 36 438 36 C351 36 278 66 225 122 C175 177 152 245 152 338 C152 515 266 632 437 632 L437 632 Z " />
<glyph glyph-name="P" unicode="P" horiz-adv-x="748" d="M393 53 L337 53 C264 55 256 63 257 126 L257 302 L382 302 C510 302 565 310 618 336 C674 363 707 419 707 486 C707 552 675 604 620 632 C565 658 503 667 373 667 L33 667 L33 614 L80 614 C153 612 162 604 160 541 L160 126 C162 63 153 55 80 53 L33 53 L33 0 L393 0 L393 53 Z M257 355 L257 614 L375 614 C442 614 485 610 517 600 C576 583 606 546 606 489 C606 397 536 355 382 355 L257 355 Z " />
<glyph glyph-name="Q" unicode="Q" horiz-adv-x="901" d="M847 113 C834 38 809 9 759 9 C730 9 711 19 678 52 C726 91 753 117 772 144 C810 198 830 264 830 333 C830 538 664 687 437 687 C210 687 44 538 44 333 C44 127 209 -19 441 -19 C494 -19 525 -14 591 5 C642 -50 679 -68 738 -68 C789 -68 828 -49 859 -10 C885 24 895 54 901 113 L847 113 Z M626 106 C582 159 562 179 533 200 C496 226 453 240 409 240 C332 240 273 195 273 137 C273 122 277 101 285 76 C236 111 212 133 194 163 C167 208 152 270 152 336 C152 514 265 632 437 632 C609 632 722 514 722 336 C722 283 712 230 693 191 C679 161 664 141 626 106 L626 106 Z M553 57 C496 40 469 35 438 35 C370 35 325 66 325 113 C325 151 354 176 399 176 C451 176 490 146 553 57 L553 57 Z " />
<glyph glyph-name="R" unicode="R" horiz-adv-x="847" d="M393 53 L337 53 C264 55 256 63 257 126 L257 320 L402 320 C519 319 571 275 575 174 L579 92 C582 19 621 -20 690 -20 C748 -20 781 -1 800 42 C812 72 816 98 817 163 L765 163 C761 64 754 45 722 45 C693 45 685 66 685 140 C686 271 653 315 535 342 C606 353 636 362 669 383 C710 410 732 450 732 501 C732 555 705 602 662 626 C609 654 533 667 412 667 L33 667 L33 614 L80 614 C153 612 162 604 160 541 L160 126 C162 63 153 55 80 53 L33 53 L33 0 L393 0 L393 53 Z M257 373 L257 614 L412 614 C460 614 525 608 547 601 C601 585 631 548 631 499 C631 414 556 373 402 373 L257 373 Z " />
<glyph glyph-name="S" unicode="S" horiz-adv-x="688" d="M49 0 L105 0 L141 74 C237 -1 287 -20 385 -20 C545 -20 656 66 656 189 C656 245 633 294 593 323 C552 353 495 372 400 389 L294 408 C180 429 136 460 136 520 C136 585 204 629 307 629 C382 629 448 606 492 566 C527 534 543 498 558 421 L617 421 L617 673 L566 673 L535 612 C441 673 398 687 306 687 C151 687 51 612 51 496 C51 439 75 393 120 364 C159 338 186 330 297 307 L388 289 C493 268 525 254 550 220 C560 207 566 187 566 168 C566 93 494 43 386 43 C309 43 239 69 187 118 C145 158 127 193 109 277 L49 277 L49 0 Z " />
<glyph glyph-name="T" unicode="T" horiz-adv-x="732" d="M30 405 L86 405 C93 570 132 612 283 614 L318 614 L318 126 C320 63 311 55 238 53 L167 53 L167 0 L566 0 L566 53 L495 53 C422 55 413 63 415 126 L415 614 L450 614 C601 612 640 570 647 405 L703 405 L703 667 L30 667 L30 405 Z " />
<glyph glyph-name="U" unicode="U" horiz-adv-x="836" d="M33 614 L70 614 C144 612 153 604 151 541 L151 209 C151 125 177 67 233 30 C282 -3 345 -20 421 -20 C507 -20 576 1 624 43 C674 87 695 147 695 244 L695 541 C693 604 702 612 775 614 L809 614 L809 667 L494 667 L494 614 L549 614 C621 612 630 604 628 541 L628 244 C628 162 615 120 581 91 C548 63 495 47 432 47 C306 47 248 98 248 209 L248 541 C246 604 255 612 327 614 L383 614 L383 667 L33 667 L33 614 Z " />
<glyph glyph-name="V" unicode="V" horiz-adv-x="748" d="M328 0 L413 0 L639 546 C662 603 676 613 737 614 L774 614 L774 667 L453 667 L453 614 L517 614 C560 614 576 607 576 586 C576 577 572 559 566 545 L390 118 L217 547 C212 559 209 572 209 585 C209 606 224 614 265 614 L333 614 L333 667 L-22 667 L-22 614 L11 614 C71 612 85 603 106 551 L328 0 Z " />
<glyph glyph-name="W" unicode="W" horiz-adv-x="1054" d="M280 0 L366 0 L527 437 L676 0 L762 0 L938 531 C963 602 972 611 1020 614 L1049 614 L1049 667 L772 667 L772 614 L824 614 C865 614 878 607 878 584 C878 571 874 551 866 527 L734 124 L591 555 C587 565 586 575 586 586 C586 609 597 614 645 614 L694 614 L694 667 L375 667 L375 614 L411 614 C461 613 473 606 486 571 L496 537 L344 124 L213 551 C210 562 208 573 208 584 C208 606 223 614 266 614 L309 614 L309 667 L0 667 L0 614 L33 614 C82 613 92 602 119 513 L280 0 Z " />
<glyph glyph-name="X" unicode="X" horiz-adv-x="808" d="M0 0 L321 0 L321 53 L273 53 C236 53 218 62 218 79 C218 87 222 95 234 108 L383 275 L528 103 C535 94 540 84 540 76 C540 61 517 53 469 53 L431 53 L431 0 L809 0 L809 53 L779 53 C720 56 674 81 635 130 L454 353 L620 542 C665 593 696 611 747 614 L784 614 L784 667 L469 667 L469 614 L521 614 C552 614 569 607 569 594 C569 584 559 568 541 548 L409 407 L283 560 C272 572 267 583 267 591 C267 606 286 614 321 614 L363 614 L363 667 L15 667 L15 614 L45 614 C97 610 124 593 170 537 L341 330 L171 138 C112 76 75 54 28 53 L0 53 L0 0 Z " />
<glyph glyph-name="Y" unicode="Y" horiz-adv-x="699" d="M297 263 L297 126 C299 63 290 55 218 53 L147 53 L147 0 L545 0 L545 53 L476 53 C401 55 392 63 394 126 L394 263 L581 532 C627 597 651 614 696 614 L722 614 L722 667 L425 667 L425 614 L499 614 C522 614 537 607 537 597 C537 588 532 576 524 564 L361 331 L218 555 C207 572 202 585 202 593 C202 607 216 614 242 614 L309 614 L309 667 L-27 667 L-27 614 L4 614 C43 612 71 593 100 550 L297 263 Z " />
<glyph glyph-name="Z" unicode="Z" horiz-adv-x="677" d="M27 0 L623 0 L623 287 L565 287 C554 88 530 59 366 53 L156 53 L624 611 L624 667 L48 667 L48 403 L105 403 C113 576 146 615 288 614 L498 614 L27 54 L27 0 Z " />
<glyph glyph-name="bracketleft" unicode="&#x5b;" horiz-adv-x="393" d="M115 -172 L357 -172 L357 -128 L189 -128 L189 623 L357 623 L357 667 L115 667 L115 -172 Z " />
<glyph glyph-name="backslash" unicode="&#x5c;" horiz-adv-x="384" d="M311 -92 L372 -92 L105 686 L44 686 L311 -92 Z " />
<glyph glyph-name="bracketright" unicode="&#x5d;" horiz-adv-x="393" d="M33 -172 L275 -172 L275 667 L33 667 L33 623 L201 623 L201 -128 L33 -128 L33 -172 Z " />
<glyph glyph-name="asciicircum" unicode="&#x5e;" horiz-adv-x="550" d="M121 371 L274 610 L428 371 L517 371 L329 669 L221 669 L32 371 L121 371 Z " />
<glyph glyph-name="underscore" unicode="&#x5f;" horiz-adv-x="500" d="M0 -70 L0 -126 L500 -126 L500 -70 L0 -70 Z " />
<glyph glyph-name="grave" unicode="&#x60;" horiz-adv-x="528" d="M319 540 L185 686 C169 703 149 715 134 715 C114 715 97 698 97 677 C97 660 107 648 138 629 L283 540 L319 540 Z " />
<glyph glyph-name="a" unicode="a" horiz-adv-x="606" d="M554 159 C552 101 549 81 542 65 C535 47 522 38 504 38 C479 38 470 54 470 95 L470 327 C470 387 462 413 436 437 C403 467 338 486 269 486 C152 486 61 432 61 361 C61 326 90 300 128 300 C164 300 190 321 190 349 C190 376 174 392 138 399 C182 431 212 441 259 441 C339 441 390 407 390 354 C390 309 369 290 301 273 L213 251 C147 235 117 224 87 205 C52 182 33 149 33 110 C33 33 99 -18 197 -18 C270 -18 320 3 391 61 C410 4 438 -17 493 -17 C541 -17 573 2 589 40 C602 68 605 95 606 159 L554 159 Z M386 199 C386 137 371 102 331 74 C302 54 259 41 218 41 C162 41 127 69 127 113 C127 132 137 152 155 166 C174 182 182 186 242 203 L285 216 C318 225 329 229 386 253 L386 199 Z " />
<glyph glyph-name="b" unicode="b" horiz-adv-x="644" d="M141 -6 L182 81 C208 48 225 31 244 19 C277 -3 323 -15 368 -15 C509 -15 605 86 605 234 C605 384 509 485 367 485 C322 485 279 474 248 455 C227 442 209 425 182 391 L182 667 L0 667 L0 619 L23 619 C86 617 98 608 97 562 L97 -6 L141 -6 Z M354 427 C453 427 509 357 509 233 C509 113 452 43 354 43 C248 43 182 118 182 238 C182 352 250 427 354 427 L354 427 Z " />
<glyph glyph-name="c" unicode="c" horiz-adv-x="563" d="M465 175 C453 130 444 111 426 91 C398 59 352 41 300 41 C193 41 129 114 129 236 C129 362 199 438 316 438 C347 438 379 432 404 421 C429 411 440 402 461 372 C418 365 400 350 400 320 C400 288 425 266 461 266 C505 266 534 294 534 336 C534 422 436 486 306 486 C146 486 33 379 33 228 C33 80 137 -18 294 -18 C373 -18 429 3 471 47 C503 80 516 109 529 175 L465 175 Z " />
<glyph glyph-name="d" unicode="d" horiz-adv-x="672" d="M352 619 L387 619 C447 618 458 609 457 562 L457 391 C435 420 419 437 403 449 C371 473 325 486 275 486 C133 486 38 385 38 234 C38 86 133 -15 273 -15 C313 -15 353 -6 384 12 C409 25 427 43 457 81 L457 0 L649 0 L649 48 L622 48 C561 50 550 58 551 105 L551 667 L352 667 L352 619 Z M287 428 C392 428 457 353 457 234 C457 119 390 43 288 43 C191 43 134 114 134 234 C134 358 190 428 287 428 L287 428 Z " />
<glyph glyph-name="e" unicode="e" horiz-adv-x="579" d="M464 154 C448 110 435 91 412 74 C384 52 343 39 299 39 C244 39 199 59 172 95 C149 126 141 157 139 226 L544 226 C540 322 526 366 487 411 C443 462 381 486 297 486 C136 486 33 387 33 233 C33 82 138 -17 300 -17 C369 -17 423 1 465 38 C497 66 512 93 529 154 L464 154 Z M143 279 C149 337 158 363 180 390 C206 421 244 437 295 437 C342 437 380 422 403 394 C425 367 433 340 437 279 L143 279 Z " />
<glyph glyph-name="f" unicode="f" horiz-adv-x="377" d="M133 420 L133 105 C134 58 123 50 59 48 L27 48 L27 0 L345 0 L345 48 L291 48 C228 50 217 58 218 105 L218 420 L345 420 L345 469 L218 469 L218 506 C218 558 221 580 230 600 C242 625 271 639 309 639 C338 639 352 634 382 614 C353 607 339 592 339 569 C339 542 364 521 396 521 C433 521 456 544 456 580 C456 641 392 684 300 684 C249 684 207 671 178 645 C146 617 133 579 133 509 L133 469 L27 469 L27 420 L133 420 Z " />
<glyph glyph-name="g" unicode="g" horiz-adv-x="710" d="M231 60 C159 60 129 71 129 98 C129 123 157 147 185 147 C189 147 193 146 199 145 C258 130 268 128 306 128 C452 128 543 197 543 307 C543 342 537 360 514 397 C547 433 568 444 602 444 C621 444 627 441 641 427 C604 421 587 406 587 379 C587 352 611 331 643 331 C680 331 706 359 706 401 C706 451 664 486 604 486 C558 486 533 474 487 432 C422 472 376 486 303 486 C167 486 76 415 76 309 C76 254 95 218 146 176 C74 140 55 119 55 79 C55 38 79 14 139 -4 C106 -12 84 -20 70 -30 C47 -47 33 -72 33 -97 C33 -131 60 -164 103 -183 C154 -205 213 -214 301 -214 C505 -214 604 -167 604 -68 C604 15 532 60 399 60 L231 60 Z M307 439 C350 439 390 426 415 404 C439 383 450 353 450 309 C450 224 401 180 308 180 C215 180 168 223 168 308 C168 390 220 439 307 439 L307 439 Z M346 -20 C461 -21 502 -38 502 -85 C502 -113 486 -131 450 -144 C417 -156 351 -164 287 -164 C188 -164 135 -138 135 -89 C135 -43 186 -20 288 -20 L346 -20 Z " />
<glyph glyph-name="h" unicode="h" horiz-adv-x="710" d="M33 619 L59 619 C121 617 133 608 132 562 L132 105 C132 58 122 50 59 48 L33 48 L33 0 L328 0 L328 48 L291 48 C228 49 216 58 217 105 L217 268 C217 319 230 352 264 384 C295 413 338 429 386 429 C470 429 500 390 500 281 L500 105 C500 58 489 50 427 48 L390 48 L390 0 L684 0 L684 48 L659 48 C596 49 584 58 585 105 L585 268 C585 358 578 389 553 423 C524 461 473 482 410 482 C370 482 330 473 297 458 C267 444 249 428 217 388 L217 667 L33 667 L33 619 Z " />
<glyph glyph-name="i" unicode="i" horiz-adv-x="361" d="M172 675 C141 675 115 650 115 620 C115 587 140 562 172 562 C203 562 228 588 228 619 C228 650 203 675 172 675 L172 675 Z M33 0 L332 0 L332 48 L302 48 C239 50 228 58 229 105 L229 469 L33 469 L33 421 L68 421 C128 419 138 411 138 364 L138 105 C138 58 128 50 68 48 L33 48 L33 0 Z " />
<glyph glyph-name="j" unicode="j" horiz-adv-x="345" d="M41 421 L77 421 C146 420 149 417 148 360 L148 -68 C148 -108 143 -128 129 -143 C115 -158 90 -167 61 -167 C36 -167 23 -163 -2 -147 C33 -140 48 -127 48 -101 C48 -71 23 -50 -12 -50 C-50 -50 -77 -76 -77 -113 C-77 -172 -17 -214 68 -214 C125 -214 168 -197 199 -164 C225 -135 233 -106 233 -45 L233 469 L41 469 L41 421 Z M174 675 C143 675 117 650 117 620 C117 587 142 562 174 562 C205 562 230 588 230 619 C230 649 204 675 174 675 L174 675 Z " />
<glyph glyph-name="k" unicode="k" horiz-adv-x="699" d="M212 229 L212 667 L27 667 L27 619 L57 619 C120 617 131 609 131 562 L131 105 C131 58 120 50 57 48 L27 48 L27 0 L311 0 L311 48 L286 48 C222 50 211 58 212 105 L212 165 L306 228 L447 89 C456 80 460 73 460 67 C460 55 437 48 397 48 L369 48 L369 0 L682 0 L682 48 L665 48 C623 49 587 63 557 93 L374 276 L513 377 C560 410 591 421 637 420 L653 420 L653 469 L331 469 L331 420 L381 420 C423 420 439 415 439 404 C439 394 428 380 406 365 L212 229 Z " />
<glyph glyph-name="l" unicode="l" horiz-adv-x="350" d="M218 667 L27 667 L27 619 L59 619 C121 617 133 609 132 562 L132 105 C132 58 121 50 59 48 L27 48 L27 0 L325 0 L325 48 L292 48 C228 50 218 58 218 105 L218 667 Z " />
<glyph glyph-name="m" unicode="m" horiz-adv-x="1016" d="M33 0 L317 0 L317 48 L297 48 C236 50 225 58 226 105 L226 268 C226 327 234 351 265 383 C294 413 332 429 376 429 C452 429 475 394 475 281 L475 105 C476 58 464 50 401 48 L380 48 L380 0 L653 0 L653 48 L632 48 C569 50 559 58 559 105 L559 268 C559 327 567 351 598 383 C628 413 666 429 710 429 C787 429 810 394 810 281 L810 105 C810 58 799 50 737 48 L716 48 L716 0 L996 0 L996 48 L968 48 C904 50 894 58 894 105 L894 268 C894 364 889 394 865 426 C839 462 791 482 733 482 C660 482 619 461 549 390 C535 422 524 438 508 450 C481 470 441 482 399 482 C327 482 284 461 226 398 L226 469 L33 469 L33 421 L64 421 C124 419 135 410 134 364 L134 105 C135 59 124 50 64 48 L33 48 L33 0 Z " />
<glyph glyph-name="n" unicode="n" horiz-adv-x="716" d="M33 0 L334 0 L334 48 L299 48 C238 50 227 58 228 105 L228 268 C228 319 241 352 274 384 C305 413 346 429 394 429 C476 429 506 390 506 281 L506 105 C507 58 496 50 433 48 L396 48 L396 0 L691 0 L691 48 L665 48 C602 49 590 58 591 105 L591 268 C591 357 585 389 560 423 C531 461 481 482 418 482 C378 482 339 473 306 458 C277 444 259 428 228 388 L228 469 L33 469 L33 421 L64 421 C124 419 135 410 134 364 L134 105 C135 58 124 49 64 48 L33 48 L33 0 Z " />
<glyph glyph-name="o" unicode="o" horiz-adv-x="634" d="M317 486 C242 486 173 463 118 419 C63 375 34 312 34 238 C34 156 60 97 118 50 C172 6 241 -17 318 -17 C393 -17 462 6 516 50 C572 96 600 156 600 234 C600 313 572 374 516 419 C461 463 393 486 317 486 L317 486 Z M317 435 C436 435 503 363 503 234 C503 106 436 34 317 34 C197 34 131 106 131 237 C131 363 199 435 317 435 L317 435 Z " />
<glyph glyph-name="p" unicode="p" horiz-adv-x="666" d="M11 421 L35 421 C96 419 107 410 106 364 L106 -109 C107 -156 96 -164 35 -166 L11 -166 L11 -214 L305 -214 L305 -166 L270 -166 C210 -164 199 -156 200 -109 L200 78 C222 50 238 33 254 21 C286 -3 332 -16 382 -16 C524 -16 619 85 619 235 C619 383 524 484 384 484 C344 484 304 475 273 457 C248 444 230 426 200 388 L200 469 L11 469 L11 421 Z M369 426 C465 426 522 355 522 235 C522 112 467 42 369 42 C265 42 200 116 200 236 C200 351 267 426 369 426 L369 426 Z " />
<glyph glyph-name="q" unicode="q" horiz-adv-x="672" d="M647 -166 L622 -166 C561 -164 550 -156 551 -109 L551 364 C550 411 561 419 622 421 L647 421 L647 469 L457 469 L457 388 C432 420 415 438 396 450 C363 472 318 484 273 484 C133 484 38 383 38 235 C38 85 133 -16 274 -16 C319 -16 361 -5 392 14 C413 27 430 44 457 78 L457 -109 C458 -156 447 -164 387 -166 L352 -166 L352 -214 L647 -214 L647 -166 Z M287 426 C392 426 457 351 457 231 C457 117 390 42 288 42 C190 42 134 112 134 235 C134 355 191 426 287 426 L287 426 Z " />
<glyph glyph-name="r" unicode="r" horiz-adv-x="524" d="M352 48 L299 48 C238 50 227 58 228 105 L228 217 C228 273 237 314 259 352 C291 407 332 436 380 436 C408 436 419 431 443 408 C403 408 382 391 382 359 C382 330 409 308 443 308 C481 308 511 338 511 375 C511 438 459 483 386 483 C317 483 269 449 228 372 L228 469 L33 469 L33 421 L64 421 C124 419 135 410 134 364 L134 105 C135 58 124 49 64 48 L33 48 L33 0 L352 0 L352 48 Z " />
<glyph glyph-name="s" unicode="s" horiz-adv-x="546" d="M44 -4 L100 -4 L123 46 C186 -1 229 -16 301 -16 C428 -16 508 42 508 134 C508 206 447 256 336 275 L234 292 C166 304 134 327 134 365 C134 406 177 433 242 433 C295 433 339 418 372 390 C400 367 412 345 426 293 L481 293 L481 475 L432 475 L411 433 C348 471 303 485 238 485 C128 485 51 428 51 346 C51 275 115 221 222 202 L321 185 C396 172 427 151 427 114 C427 68 378 38 303 38 C252 38 203 55 164 85 C131 112 117 135 101 192 L44 192 L44 -4 Z " />
<glyph glyph-name="t" unicode="t" horiz-adv-x="442" d="M108 420 L108 95 C108 26 158 -17 238 -17 C297 -17 344 8 364 50 C377 79 381 107 385 192 L334 192 C333 135 329 102 321 80 C312 56 287 41 256 41 C218 41 202 58 202 95 L202 420 L359 420 L359 469 L202 469 L202 655 L151 655 C138 528 101 476 16 469 L16 420 L108 420 Z " />
<glyph glyph-name="u" unicode="u" horiz-adv-x="710" d="M27 421 L49 421 C104 419 113 411 113 364 L113 201 C113 112 120 79 146 46 C176 8 229 -13 295 -13 C337 -13 379 -4 413 11 C444 25 462 41 495 81 L495 0 L684 0 L684 48 L652 48 C590 50 579 58 580 105 L580 469 L393 469 L393 421 L431 421 C486 419 495 411 495 364 L495 201 C495 150 481 117 446 85 C413 55 370 40 319 40 C230 40 198 79 198 188 L198 469 L27 469 L27 421 Z " />
<glyph glyph-name="v" unicode="v" horiz-adv-x="612" d="M-5 420 L19 420 C58 418 64 414 83 375 L266 -5 L325 -5 L503 362 C528 414 534 418 575 420 L596 420 L596 469 L347 469 L347 420 L395 420 C436 420 448 415 448 399 C448 390 444 380 435 360 L315 107 L188 366 C182 377 178 391 178 398 C178 415 188 420 225 420 L264 420 L264 469 L-5 469 L-5 420 Z " />
<glyph glyph-name="w" unicode="w" horiz-adv-x="901" d="M260 -5 L322 -5 L447 286 L573 -5 L636 -5 L796 364 C815 408 831 420 870 421 L885 421 L885 469 L657 469 L657 421 L690 421 C729 421 741 416 741 402 C741 391 737 377 731 363 L617 107 L504 373 C500 384 497 393 497 398 C497 417 506 421 550 421 L582 421 L582 469 L325 469 L325 421 L349 421 C386 418 397 411 409 380 L417 362 L305 107 L191 372 C186 384 184 392 184 397 C184 414 196 421 225 421 L261 421 L261 469 L11 469 L11 421 L31 421 C69 420 79 412 97 370 L260 -5 Z " />
<glyph glyph-name="x" unicode="x" horiz-adv-x="661" d="M377 251 L496 369 C538 409 563 421 607 421 L627 421 L627 469 L370 469 L370 421 L401 421 C438 421 448 418 448 408 C448 401 445 394 440 389 L337 290 L252 380 C238 394 234 400 234 407 C234 417 244 421 267 421 L303 421 L303 469 L21 469 L21 421 L38 421 C85 420 117 405 155 365 L281 240 L136 98 C99 65 71 51 31 48 L16 48 L16 0 L283 0 L283 48 L242 48 C209 48 192 54 192 65 C192 71 196 76 206 86 L319 196 L422 89 C433 78 437 72 437 66 C437 56 417 48 394 48 L345 48 L345 0 L644 0 L644 48 L627 48 C595 47 563 62 530 94 L377 251 Z " />
<glyph glyph-name="y" unicode="y" horiz-adv-x="623" d="M281 -3 C249 -67 236 -89 217 -115 C192 -147 162 -164 128 -164 C98 -164 85 -157 63 -132 C111 -129 128 -116 128 -83 C128 -53 103 -30 69 -30 C26 -30 -5 -61 -5 -104 C-5 -134 8 -162 34 -184 C59 -206 84 -214 123 -214 C174 -214 215 -198 249 -165 C282 -133 296 -108 366 38 L520 359 C545 411 554 419 593 421 L626 421 L626 469 L364 469 L364 421 L408 421 C448 421 462 415 462 399 C462 391 459 381 455 372 L330 103 L206 367 C200 381 196 393 196 401 C196 416 206 421 234 421 L281 421 L281 469 L2 469 L2 421 L31 421 C73 419 83 412 102 374 L281 -3 Z " />
<glyph glyph-name="z" unicode="z" horiz-adv-x="546" d="M27 0 L504 0 L504 212 L451 212 C443 66 428 51 285 50 L144 50 L494 420 L494 469 L44 469 L44 272 L97 272 C107 405 125 423 247 420 L378 420 L27 50 L27 0 Z " />
<glyph glyph-name="braceleft" unicode="&#x7b;" horiz-adv-x="393" d="M204 549 C204 613 229 631 314 628 L344 628 L359 628 L359 671 C316 672 306 672 298 672 C175 672 130 635 130 532 L130 351 C128 299 112 278 65 268 L65 227 C113 216 130 193 130 137 L130 -32 C130 -138 175 -178 295 -178 C313 -178 329 -178 359 -177 L359 -133 C228 -136 206 -124 204 -52 L204 126 C203 190 188 222 143 247 C189 273 202 299 204 368 L204 549 Z " />
<glyph glyph-name="bar" unicode="&#x7c;" horiz-adv-x="541" d="M227 667 L227 -167 L314 -167 L314 667 L227 667 Z " />
<glyph glyph-name="braceright" unicode="&#x7d;" horiz-adv-x="393" d="M220 -55 C220 -119 195 -137 110 -134 L80 -133 L65 -133 L65 -177 C108 -178 118 -178 126 -178 C249 -178 294 -140 294 -38 L294 143 C296 196 312 217 359 226 L359 268 C311 278 294 301 294 358 L294 526 C294 632 249 672 129 672 C110 672 103 672 65 671 L65 627 L87 627 C194 630 220 614 220 547 L220 369 C221 304 236 272 281 247 C235 222 222 196 220 126 L220 -55 Z " />
<glyph glyph-name="asciitilde" unicode="&#x7e;" horiz-adv-x="685" d="M150 577 C180 630 204 650 237 650 C261 650 278 644 334 618 C399 586 421 579 447 579 C504 579 545 614 583 695 L538 731 C508 678 483 658 449 658 C425 658 411 663 354 691 C296 719 269 728 240 728 C184 728 141 692 104 613 L150 577 Z " />
<glyph glyph-name="uni00A0" unicode="&#xa0;" horiz-adv-x="250" d="" />
<glyph glyph-name="exclamdown" unicode="&#xa1;" horiz-adv-x="333" d="M166 483 C132 483 104 458 104 427 C104 396 132 371 166 371 C199 371 228 396 228 426 C228 458 201 483 166 483 L166 483 Z M142 285 C136 130 133 89 116 -31 C105 -128 104 -135 104 -150 C104 -193 128 -220 166 -220 C204 -220 228 -193 228 -150 C228 -136 228 -134 216 -31 C199 89 196 128 190 285 L142 285 Z " />
<glyph glyph-name="cent" unicode="&#xa2;" horiz-adv-x="672" d="M101 -87 L158 -87 L219 21 C269 4 292 -1 332 -1 C391 -1 441 11 476 33 C531 68 556 109 572 192 L508 192 C496 147 487 128 471 108 C444 77 399 58 348 58 C314 58 295 63 255 84 L453 435 C483 419 486 416 504 390 C461 382 443 367 443 337 C443 305 468 283 504 283 C547 283 577 311 577 353 C577 407 544 448 478 478 L536 582 L479 582 L429 494 C392 501 358 504 336 504 C272 504 201 476 153 431 C102 384 76 321 76 245 C76 202 85 160 102 125 C118 94 134 77 176 45 L101 -87 Z M218 120 C182 174 173 201 173 256 C173 313 190 366 220 399 C250 433 302 456 351 456 C364 456 383 454 405 451 L218 120 Z " />
<glyph glyph-name="sterling" unicode="&#xa3;" horiz-adv-x="672" d="M79 -14 C132 33 167 49 219 49 C250 49 272 44 330 22 L397 -3 C427 -15 445 -19 465 -19 C505 -19 539 -7 561 15 C600 53 615 100 616 192 L568 192 C562 98 541 64 487 64 C461 64 430 71 399 84 L348 106 C325 116 300 121 276 121 C245 121 225 115 187 93 L183 99 C261 166 279 197 279 262 L279 276 L422 276 L422 320 L273 320 C262 342 260 345 237 373 C207 411 194 437 194 462 C194 524 267 574 359 574 C396 574 435 566 465 553 C485 544 494 536 510 515 C478 492 471 482 471 459 C471 425 495 404 532 404 C574 404 603 433 603 475 C603 507 586 536 552 563 C502 602 435 622 350 622 C203 622 95 550 95 452 C95 417 110 385 158 320 L52 320 L52 276 L173 276 C175 259 176 239 176 230 C176 204 170 181 155 154 C133 111 109 86 49 42 L79 -14 Z " />
<glyph glyph-name="currency" unicode="&#xa4;" horiz-adv-x="733" d="M56 125 L105 80 L210 176 C267 141 314 126 369 126 C425 126 477 142 526 176 L631 80 L680 125 L575 221 C613 269 629 310 629 362 C629 413 613 454 573 504 L678 599 L629 644 L524 549 C471 584 425 598 367 598 C309 598 264 584 209 548 L103 644 L54 599 L161 503 C122 455 106 414 106 362 C106 311 124 265 160 221 L56 125 Z M370 526 C471 526 555 452 555 362 C555 271 471 198 367 198 C264 198 180 271 180 361 C180 454 264 526 370 526 L370 526 Z " />
<glyph glyph-name="yen" unicode="&#xa5;" horiz-adv-x="719" d="M482 349 L572 482 C613 542 635 558 676 557 L699 557 L699 605 L430 605 L430 557 L497 557 C518 557 531 551 531 541 C531 533 526 521 520 512 L372 300 L242 503 C233 517 228 530 228 538 C228 551 240 557 264 557 L325 557 L325 605 L20 605 L20 557 L48 557 C84 555 108 539 134 499 L237 349 L103 349 L103 306 L267 306 L309 246 L117 246 L117 203 L314 203 L314 114 C315 57 308 50 241 48 L177 48 L177 0 L539 0 L539 48 L477 48 C409 50 401 57 402 114 L402 203 L602 203 L602 246 L408 246 L453 306 L616 306 L616 349 L482 349 Z " />
<glyph glyph-name="brokenbar" unicode="&#xa6;" horiz-adv-x="541" d="M227 667 L227 330 L314 330 L314 667 L227 667 Z M227 153 L227 -167 L314 -167 L314 153 L227 153 Z " />
<glyph glyph-name="section" unicode="&#xa7;" horiz-adv-x="650" d="M313 438 C244 462 241 464 223 473 C196 487 182 511 182 541 C182 601 240 637 335 637 C378 637 400 631 447 607 C412 595 397 578 397 550 C397 517 425 494 467 494 C513 494 541 521 541 565 C541 639 460 687 334 687 C267 687 215 673 176 644 C135 614 108 566 108 523 C108 473 131 436 182 404 C141 386 123 376 104 359 C76 334 60 300 60 265 C60 231 76 194 103 168 C127 146 156 131 207 115 L329 77 C438 43 477 11 477 -46 C477 -118 412 -160 302 -160 C261 -160 238 -155 187 -134 C224 -118 237 -102 237 -74 C237 -34 207 -7 165 -7 C120 -7 88 -37 88 -81 C88 -161 171 -211 303 -211 C457 -211 558 -138 558 -27 C558 32 534 68 468 105 C511 124 528 133 546 149 C575 172 592 209 592 247 C592 283 576 318 550 340 C525 361 511 368 435 395 L313 438 Z M232 188 C156 213 130 236 130 277 C130 323 162 352 243 378 L427 315 C501 289 523 272 523 237 C523 211 508 185 483 168 C465 156 450 149 404 131 L232 188 Z " />
<glyph glyph-name="dieresis" unicode="&#xa8;" horiz-adv-x="539" d="M167 674 C138 674 112 649 112 620 C112 588 136 565 167 565 C198 565 221 588 221 619 C221 649 196 674 167 674 L167 674 Z M372 674 C343 674 317 648 317 620 C317 589 341 565 373 565 C403 565 426 589 426 619 C426 649 401 674 372 674 L372 674 Z " />
<glyph glyph-name="copyright" unicode="&#xa9;" horiz-adv-x="879" d="M577 286 C569 246 562 228 545 211 C522 186 487 173 445 173 C355 173 296 236 296 333 C296 427 356 496 439 496 C480 496 518 480 545 452 C565 430 572 412 579 371 L617 371 L617 523 L582 523 L567 491 C514 525 486 534 439 534 C319 534 228 447 228 331 C228 215 316 132 441 132 C504 132 550 149 582 183 C605 209 615 233 621 286 L577 286 Z M445 681 C221 681 44 528 44 333 C44 142 222 -14 440 -14 C658 -14 835 142 835 333 C835 523 658 681 445 681 L445 681 Z M444 630 C625 630 776 495 776 333 C776 170 625 37 440 37 C254 37 102 170 102 333 C102 499 252 630 444 630 L444 630 Z " />
<glyph glyph-name="ordfeminine" unicode="&#xaa;" horiz-adv-x="383" d="M343 429 C341 370 336 357 316 357 C302 357 298 365 298 388 L298 525 C298 561 293 577 276 592 C255 610 214 622 170 622 C95 622 38 588 38 544 C38 522 57 505 83 505 C107 505 125 519 125 537 C125 553 116 563 97 569 C121 584 138 589 164 589 C212 589 242 570 242 541 C242 516 230 506 189 496 L135 483 C50 463 20 440 20 397 C20 350 62 318 125 318 C170 318 203 330 244 362 C257 330 275 318 309 318 C363 318 382 346 382 429 L343 429 Z M239 449 C239 414 230 394 207 379 C188 367 163 360 138 360 C105 360 85 375 85 399 C85 409 91 420 101 428 C113 437 114 437 155 448 L182 456 C201 461 212 465 239 476 L239 449 Z " />
<glyph glyph-name="guillemotleft" unicode="&#xab;" horiz-adv-x="502" d="M371 72 L427 72 L368 182 C350 214 347 223 347 238 C347 252 351 261 368 293 L427 403 L371 403 L318 333 C268 270 264 263 264 237 C264 212 268 205 318 142 L371 72 Z M183 72 L239 72 L180 182 C162 214 159 223 159 237 C159 252 162 261 180 293 L239 403 L183 403 L129 333 C80 270 76 263 76 238 C76 213 80 205 129 142 L183 72 Z " />
<glyph glyph-name="logicalnot" unicode="&#xac;" horiz-adv-x="550" d="M430 0 L514 0 L514 279 L37 279 L37 203 L430 203 L430 0 Z " />
<glyph glyph-name="uni00AD" unicode="&#xad;" horiz-adv-x="284" d="M0 201 L284 201 L284 275 L0 275 L0 201 Z " />
<glyph glyph-name="registered" unicode="&#xae;" horiz-adv-x="879" d="M432 179 L397 179 C357 180 354 183 355 217 L355 323 L433 323 C498 322 526 299 529 243 L531 197 C533 155 556 132 598 132 C655 132 673 158 674 241 L637 241 C635 184 632 175 616 175 C602 175 599 185 599 225 C599 295 581 323 526 338 C594 350 625 378 625 427 C625 495 570 523 439 523 L220 523 L220 487 L251 487 C291 486 294 483 293 450 L293 217 C294 183 291 180 251 179 L220 179 L220 143 L432 143 L432 179 Z M355 359 L355 487 L439 487 C526 487 561 470 561 426 C561 381 519 359 433 359 L355 359 Z M445 681 C221 681 44 528 44 333 C44 142 222 -14 440 -14 C658 -14 835 142 835 333 C835 523 658 681 445 681 L445 681 Z M444 630 C625 630 776 495 776 333 C776 170 625 37 440 37 C254 37 102 170 102 333 C102 499 252 630 444 630 L444 630 Z " />
<glyph glyph-name="macron" unicode="&#xaf;" horiz-adv-x="524" d="M131 585 L393 585 L393 653 L131 653 L131 585 Z " />
<glyph glyph-name="degree" unicode="&#xb0;" horiz-adv-x="400" d="M203 686 C117 686 50 619 50 534 C50 448 116 381 200 381 C284 381 350 448 350 533 C350 619 286 686 203 686 L203 686 Z M202 629 C252 629 293 586 293 534 C293 480 252 438 200 438 C148 438 106 481 106 533 C106 587 148 629 202 629 L202 629 Z " />
<glyph glyph-name="plusminus" unicode="&#xb1;" horiz-adv-x="549" d="M11 55 L11 0 L535 0 L535 55 L11 55 Z M302 662 L247 662 L247 423 L10 423 L10 368 L247 368 L247 129 L302 129 L302 368 L539 368 L539 423 L302 423 L302 662 Z " />
<glyph glyph-name="twosuperior" unicode="&#xb2;" horiz-adv-x="442" d="M74 267 C77 295 88 304 119 304 C139 304 145 302 183 287 L220 272 C246 261 266 257 289 257 C316 257 340 264 357 277 C384 298 395 324 397 379 L364 379 C361 325 347 309 303 309 C285 309 264 312 244 316 L195 328 C161 336 158 336 140 336 C122 336 112 334 92 327 C127 368 132 371 222 394 C311 417 311 417 332 427 C365 441 387 474 387 508 C387 573 319 615 216 615 C120 615 48 573 48 517 C48 491 71 471 100 471 C126 471 145 486 145 506 C145 526 130 537 103 537 L92 537 C124 574 150 585 204 585 C276 585 321 557 321 513 C321 475 302 459 231 437 C78 389 38 353 39 267 L74 267 Z " />
<glyph glyph-name="threesuperior" unicode="&#xb3;" horiz-adv-x="442" d="M166 434 C225 433 252 431 273 424 C307 414 326 392 326 362 C326 314 279 288 194 288 C137 288 112 296 77 326 C111 328 124 338 124 358 C124 377 106 390 80 390 C49 390 27 372 27 348 C27 298 105 257 200 257 C317 257 396 300 396 362 C396 407 359 436 284 450 C316 457 328 460 343 468 C367 480 383 503 383 526 C383 579 315 615 214 615 C125 615 46 577 46 534 C46 512 66 497 94 497 C121 497 137 509 137 529 C137 545 126 554 102 559 C141 579 169 586 209 586 C275 586 317 561 317 523 C317 497 300 480 268 471 C248 466 226 465 166 464 L166 434 Z " />
<glyph glyph-name="acute" unicode="&#xb4;" horiz-adv-x="528" d="M200 540 L236 540 L382 629 C411 647 422 660 422 677 C422 698 405 715 385 715 C370 715 350 704 334 686 L200 540 Z " />
<glyph glyph-name="mu" unicode="&#xb5;" horiz-adv-x="576" d="M442 500 L353 500 L354 131 C318 80 284 58 242 58 C184 58 150 99 150 169 L150 500 L62 500 L62 20 C62 -1 58 -26 51 -56 C34 -118 33 -123 33 -147 C33 -190 54 -219 83 -219 C112 -219 132 -189 132 -145 C132 -124 129 -110 113 -53 C102 -17 101 -8 101 21 L101 33 C143 -3 165 -13 200 -13 C250 -13 301 18 354 80 C362 48 367 36 377 21 C392 0 419 -13 449 -13 C510 -13 553 31 567 108 L540 109 C536 71 515 41 492 41 C462 41 442 77 442 131 L442 500 Z " />
<glyph glyph-name="paragraph" unicode="&#xb6;" horiz-adv-x="623" d="M255 -98 L324 -98 L324 604 L444 604 L444 -98 L513 -98 L513 604 L585 604 L585 667 L280 667 C218 667 163 657 129 640 C72 611 37 554 37 489 C37 386 120 315 239 315 L255 315 L255 -98 Z " />
<glyph glyph-name="periodcentered" unicode="&#xb7;" horiz-adv-x="333" d="M166 291 C132 291 104 266 104 236 C104 203 131 178 166 178 C200 178 228 203 228 235 C228 266 200 291 166 291 L166 291 Z " />
<glyph glyph-name="cedilla" unicode="&#xb8;" horiz-adv-x="550" d="M138 -178 C196 -204 248 -217 294 -217 C371 -217 416 -185 416 -130 C416 -82 378 -49 322 -49 C312 -49 297 -50 282 -51 L282 0 L251 0 L251 -94 C269 -89 279 -88 292 -88 C327 -88 347 -104 347 -132 C347 -160 326 -174 285 -174 C247 -174 200 -159 158 -135 L138 -178 Z " />
<glyph glyph-name="onesuperior" unicode="&#xb9;" horiz-adv-x="442" d="M87 267 L356 267 L356 295 L322 295 C259 296 254 299 254 334 L254 615 L220 615 C199 572 176 563 89 557 L89 530 L195 530 L195 334 C196 299 192 297 123 295 L87 295 L87 267 Z " />
<glyph glyph-name="ordmasculine" unicode="&#xba;" horiz-adv-x="400" d="M200 622 C97 622 21 559 21 472 C21 422 38 387 75 358 C109 332 152 318 201 318 C305 318 379 381 379 470 C379 559 305 622 200 622 L200 622 Z M200 586 C272 586 312 544 312 470 C312 396 272 354 200 354 C127 354 88 395 88 472 C88 545 129 586 200 586 L200 586 Z " />
<glyph glyph-name="guillemotright" unicode="&#xbb;" horiz-adv-x="502" d="M132 72 L186 142 C236 206 239 212 239 237 C239 263 235 270 186 333 L132 403 L76 403 L135 293 C156 252 156 252 156 238 C156 224 152 213 135 182 L76 72 L132 72 Z M320 72 L374 142 C423 206 427 212 427 237 C427 263 423 270 374 333 L320 403 L264 403 L323 293 C340 262 344 251 344 238 C344 224 340 213 323 182 L264 72 L320 72 Z " />
<glyph glyph-name="onequarter" unicode="&#xbc;" horiz-adv-x="1065" d="M87 267 L356 267 L356 295 L322 295 C259 296 254 299 254 334 L254 615 L220 615 C199 572 176 563 89 557 L89 530 L195 530 L195 334 C196 299 192 297 123 295 L87 295 L87 267 Z M262 -17 L330 -17 L808 622 L740 622 L262 -17 Z M782 0 L1036 0 L1036 28 L994 28 C947 29 939 34 940 62 L940 101 L1036 101 L1036 133 L940 133 L940 348 L901 348 L643 129 L643 101 L882 101 L882 59 C881 32 875 29 828 28 L782 28 L782 0 Z M882 133 L702 133 L882 285 L882 133 Z " />
<glyph glyph-name="onehalf" unicode="&#xbd;" horiz-adv-x="1065" d="M87 267 L356 267 L356 295 L322 295 C259 296 254 299 254 334 L254 615 L220 615 C199 572 176 563 89 557 L89 530 L195 530 L195 334 C196 299 192 297 123 295 L87 295 L87 267 Z M262 -17 L330 -17 L808 622 L740 622 L262 -17 Z M695 0 C698 28 709 37 741 37 C760 37 766 35 805 20 L842 5 C868 -6 888 -10 910 -10 C938 -10 961 -3 978 10 C1006 31 1016 58 1018 113 L986 113 C982 58 968 42 924 42 C906 42 885 45 865 49 L816 61 C786 68 779 69 761 69 C744 69 734 67 713 60 C748 101 753 104 843 127 C932 150 932 150 953 160 C986 175 1008 208 1008 242 C1008 306 940 348 838 348 C742 348 670 306 670 250 C670 224 693 204 721 204 C747 204 766 219 766 239 C766 259 751 270 725 270 L714 270 C745 307 772 318 826 318 C897 318 942 290 942 246 C942 208 923 192 852 170 C699 122 659 86 660 0 L695 0 Z " />
<glyph glyph-name="threequarters" unicode="&#xbe;" horiz-adv-x="1065" d="M166 434 C225 433 252 431 273 424 C307 414 326 392 326 362 C326 314 279 288 194 288 C137 288 112 296 77 326 C111 328 124 338 124 358 C124 377 106 390 80 390 C49 390 27 372 27 348 C27 298 105 257 200 257 C317 257 396 300 396 362 C396 407 359 436 284 450 C316 457 328 460 343 468 C367 480 383 503 383 526 C383 579 315 615 214 615 C125 615 46 577 46 534 C46 512 66 497 94 497 C121 497 137 509 137 529 C137 545 126 554 102 559 C141 579 169 586 209 586 C275 586 317 561 317 523 C317 497 300 480 268 471 C248 466 226 465 166 464 L166 434 Z M262 -17 L330 -17 L808 622 L740 622 L262 -17 Z M783 0 L1037 0 L1037 28 L995 28 C948 29 940 34 941 62 L941 101 L1037 101 L1037 133 L941 133 L941 348 L902 348 L644 129 L644 101 L883 101 L883 59 C882 32 876 29 829 28 L783 28 L783 0 Z M883 133 L703 133 L883 285 L883 133 Z " />
<glyph glyph-name="questiondown" unicode="&#xbf;" horiz-adv-x="546" d="M301 483 C267 483 239 458 239 427 C239 396 267 371 301 371 C335 371 363 396 363 426 C363 458 336 483 301 483 L301 483 Z M275 287 C269 202 263 193 183 138 C111 90 90 73 66 40 C47 15 37 -17 37 -49 C37 -151 134 -221 275 -221 C416 -221 517 -149 517 -48 C517 11 478 55 425 55 C383 55 356 32 356 -2 C356 -33 378 -53 413 -53 C429 -53 438 -50 458 -40 C457 -81 448 -100 420 -124 C389 -150 337 -167 285 -167 C193 -167 132 -121 132 -53 C132 -7 152 27 207 70 C317 155 328 175 330 287 L275 287 Z " />
<glyph glyph-name="Agrave" unicode="&#xc0;" horiz-adv-x="770" d="M-22 0 L295 0 L295 53 L240 53 C184 53 170 58 170 79 C170 89 175 108 185 130 L226 223 L504 223 L551 110 C556 97 559 85 559 79 C559 59 544 53 495 53 L436 53 L436 0 L784 0 L784 53 L754 53 C700 54 681 67 662 114 L429 667 L337 667 L101 111 C81 64 65 54 13 53 L-22 53 L-22 0 Z M248 276 L362 561 L480 276 L248 276 Z M420 706 L454 706 L319 827 C305 839 290 846 279 846 C260 846 244 830 244 810 C244 792 254 780 277 770 L420 706 Z " />
<glyph glyph-name="Aacute" unicode="&#xc1;" horiz-adv-x="770" d="M-22 0 L295 0 L295 53 L240 53 C184 53 170 58 170 79 C170 89 175 108 185 130 L226 223 L504 223 L551 110 C556 97 559 85 559 79 C559 59 544 53 495 53 L436 53 L436 0 L784 0 L784 53 L754 53 C700 54 681 67 662 114 L429 667 L337 667 L101 111 C81 64 65 54 13 53 L-22 53 L-22 0 Z M248 276 L362 561 L480 276 L248 276 Z M352 706 L495 770 C518 780 528 793 528 810 C528 830 512 846 493 846 C482 846 466 839 453 827 L317 706 L352 706 Z " />
<glyph glyph-name="Acircumflex" unicode="&#xc2;" horiz-adv-x="770" d="M-22 0 L295 0 L295 53 L240 53 C184 53 170 58 170 79 C170 89 175 108 185 130 L226 223 L504 223 L551 110 C556 97 559 85 559 79 C559 59 544 53 495 53 L436 53 L436 0 L784 0 L784 53 L754 53 C700 54 681 67 662 114 L429 667 L337 667 L101 111 C81 64 65 54 13 53 L-22 53 L-22 0 Z M248 276 L362 561 L480 276 L248 276 Z M242 706 L274 706 L385 777 L496 706 L528 706 L422 838 L348 838 L242 706 Z " />
<glyph glyph-name="Atilde" unicode="&#xc3;" horiz-adv-x="770" d="M-22 0 L295 0 L295 53 L240 53 C184 53 170 58 170 79 C170 89 175 108 185 130 L226 223 L504 223 L551 110 C556 97 559 85 559 79 C559 59 544 53 495 53 L436 53 L436 0 L784 0 L784 53 L754 53 C700 54 681 67 662 114 L429 667 L337 667 L101 111 C81 64 65 54 13 53 L-22 53 L-22 0 Z M248 276 L362 561 L480 276 L248 276 Z M493 835 C484 807 472 797 450 797 C438 797 435 797 426 799 L375 812 C363 815 351 817 341 817 C319 817 301 808 285 791 C267 772 259 752 249 708 L277 708 C287 737 299 749 319 749 C326 749 338 747 351 744 L403 731 C411 729 419 728 428 728 C477 728 504 760 521 835 L493 835 Z " />
<glyph glyph-name="Adieresis" unicode="&#xc4;" horiz-adv-x="770" d="M-22 0 L295 0 L295 53 L240 53 C184 53 170 58 170 79 C170 89 175 108 185 130 L226 223 L504 223 L551 110 C556 97 559 85 559 79 C559 59 544 53 495 53 L436 53 L436 0 L784 0 L784 53 L754 53 C700 54 681 67 662 114 L429 667 L337 667 L101 111 C81 64 65 54 13 53 L-22 53 L-22 0 Z M248 276 L362 561 L480 276 L248 276 Z M284 821 C257 821 233 798 233 771 C233 742 255 720 285 720 C313 720 335 742 335 770 C335 797 312 821 284 821 L284 821 Z M480 821 C453 821 429 798 429 771 C429 742 451 720 481 720 C509 720 531 742 531 770 C531 797 508 821 480 821 L480 821 Z " />
<glyph glyph-name="Aring" unicode="&#xc5;" horiz-adv-x="770" d="M-22 0 L295 0 L295 53 L240 53 C184 53 170 58 170 79 C170 89 175 108 185 130 L226 223 L504 223 L551 110 C556 97 559 85 559 79 C559 59 544 53 495 53 L436 53 L436 0 L784 0 L784 53 L754 53 C700 54 681 67 662 114 L429 667 L337 667 L101 111 C81 64 65 54 13 53 L-22 53 L-22 0 Z M248 276 L362 561 L480 276 L248 276 Z M378 893 C325 893 282 851 282 800 C282 745 325 701 378 701 C430 701 473 745 473 798 C473 851 431 893 378 893 L378 893 Z M377 848 C405 848 428 825 428 797 C428 770 405 746 377 746 C349 746 327 769 327 799 C327 826 350 848 377 848 L377 848 Z " />
<glyph glyph-name="AE" unicode="&#xc6;" horiz-adv-x="1207" d="M282 270 L560 270 L560 126 C562 63 553 55 480 53 L424 53 L424 0 L1118 0 L1118 271 L1062 271 C1055 88 1026 56 864 53 L648 53 L648 323 L724 323 C827 320 839 306 844 178 L901 178 L901 505 L844 505 C844 392 826 374 725 376 L648 376 L648 614 L850 614 C1020 613 1058 578 1062 416 L1118 416 L1118 667 L300 667 L300 614 L354 614 C409 614 431 606 431 584 C431 575 423 559 409 541 L65 111 C27 66 2 52 -39 53 L-60 53 L-60 0 L237 0 L237 53 L209 53 C157 53 140 59 140 77 C140 88 149 104 170 130 L282 270 Z M323 323 L545 614 L560 614 L560 323 L323 323 Z " />
<glyph glyph-name="Ccedilla" unicode="&#xc7;" horiz-adv-x="776" d="M654 243 C640 173 627 142 598 110 C556 65 495 41 419 41 C335 41 264 71 220 127 C176 180 152 255 152 334 C152 505 260 631 408 631 C482 631 550 602 597 550 C632 511 646 480 657 408 L713 408 L713 667 L662 667 L635 607 C539 670 490 687 406 687 C200 687 44 534 44 331 C44 143 173 2 362 -17 L362 -101 C380 -96 389 -95 402 -95 C434 -95 455 -111 455 -135 C455 -160 433 -174 395 -174 C358 -174 312 -160 270 -135 L250 -178 C308 -204 360 -217 405 -217 C479 -217 526 -185 526 -134 C526 -89 486 -56 433 -56 C422 -56 408 -57 393 -58 L393 -19 C401 -20 407 -20 410 -20 C535 -20 626 21 678 102 C700 137 710 172 720 243 L654 243 Z " />
<glyph glyph-name="Egrave" unicode="&#xc8;" horiz-adv-x="814" d="M33 0 L728 0 L728 271 L671 271 C664 88 635 56 473 53 L257 53 L257 323 L333 323 C436 320 448 306 453 178 L510 178 L510 505 L453 505 C452 392 435 374 334 376 L257 376 L257 614 L459 614 C629 613 668 577 671 416 L728 416 L728 667 L33 667 L33 614 L80 614 C153 612 162 604 160 541 L160 126 C162 63 153 55 80 53 L33 53 L33 0 Z M442 706 L477 706 L341 827 C328 839 313 846 301 846 C282 846 266 830 266 810 C266 793 276 781 299 770 L442 706 Z " />
<glyph glyph-name="Eacute" unicode="&#xc9;" horiz-adv-x="814" d="M33 0 L728 0 L728 271 L671 271 C664 88 635 56 473 53 L257 53 L257 323 L333 323 C436 320 448 306 453 178 L510 178 L510 505 L453 505 C452 392 435 374 334 376 L257 376 L257 614 L459 614 C629 613 668 577 671 416 L728 416 L728 667 L33 667 L33 614 L80 614 C153 612 162 604 160 541 L160 126 C162 63 153 55 80 53 L33 53 L33 0 Z M374 706 L517 770 C540 780 550 793 550 810 C550 830 534 846 515 846 C504 846 488 839 475 827 L340 706 L374 706 Z " />
<glyph glyph-name="Ecircumflex" unicode="&#xca;" horiz-adv-x="814" d="M33 0 L728 0 L728 271 L671 271 C664 88 635 56 473 53 L257 53 L257 323 L333 323 C436 320 448 306 453 178 L510 178 L510 505 L453 505 C452 392 435 374 334 376 L257 376 L257 614 L459 614 C629 613 668 577 671 416 L728 416 L728 667 L33 667 L33 614 L80 614 C153 612 162 604 160 541 L160 126 C162 63 153 55 80 53 L33 53 L33 0 Z M264 706 L296 706 L407 777 L518 706 L550 706 L444 838 L370 838 L264 706 Z " />
<glyph glyph-name="Edieresis" unicode="&#xcb;" horiz-adv-x="814" d="M33 0 L728 0 L728 271 L671 271 C664 88 635 56 473 53 L257 53 L257 323 L333 323 C436 320 448 306 453 178 L510 178 L510 505 L453 505 C452 392 435 374 334 376 L257 376 L257 614 L459 614 C629 613 668 577 671 416 L728 416 L728 667 L33 667 L33 614 L80 614 C153 612 162 604 160 541 L160 126 C162 63 153 55 80 53 L33 53 L33 0 Z M309 821 C282 821 258 798 258 771 C258 742 280 720 309 720 C338 720 360 742 360 770 C360 797 337 821 309 821 L309 821 Z M506 821 C479 821 455 798 455 771 C455 742 477 720 506 720 C535 720 557 742 557 770 C557 797 534 821 506 821 L506 821 Z " />
<glyph glyph-name="Igrave" unicode="&#xcc;" horiz-adv-x="426" d="M32 0 L393 0 L393 53 L342 53 C269 55 260 63 262 126 L262 541 C260 604 269 612 342 614 L393 614 L393 667 L32 667 L32 614 L83 614 C157 612 166 604 164 541 L164 126 C166 63 157 55 83 53 L32 53 L32 0 Z M248 706 L282 706 L146 827 C133 839 118 846 106 846 C87 846 71 830 71 810 C71 792 81 781 105 770 L248 706 Z " />
<glyph glyph-name="Iacute" unicode="&#xcd;" horiz-adv-x="426" d="M32 0 L393 0 L393 53 L342 53 C269 55 260 63 262 126 L262 541 C260 604 269 612 342 614 L393 614 L393 667 L32 667 L32 614 L83 614 C157 612 166 604 164 541 L164 126 C166 63 157 55 83 53 L32 53 L32 0 Z M179 706 L322 770 C346 781 356 792 356 810 C356 830 340 846 321 846 C309 846 294 839 281 827 L145 706 L179 706 Z " />
<glyph glyph-name="Icircumflex" unicode="&#xce;" horiz-adv-x="426" d="M32 0 L393 0 L393 53 L342 53 C269 55 260 63 262 126 L262 541 C260 604 269 612 342 614 L393 614 L393 667 L32 667 L32 614 L83 614 C157 612 166 604 164 541 L164 126 C166 63 157 55 83 53 L32 53 L32 0 Z M70 706 L102 706 L212 777 L323 706 L355 706 L250 838 L175 838 L70 706 Z " />
<glyph glyph-name="Idieresis" unicode="&#xcf;" horiz-adv-x="426" d="M32 0 L393 0 L393 53 L342 53 C269 55 260 63 262 126 L262 541 C260 604 269 612 342 614 L393 614 L393 667 L32 667 L32 614 L83 614 C157 612 166 604 164 541 L164 126 C166 63 157 55 83 53 L32 53 L32 0 Z M126 821 C99 821 75 798 75 771 C75 742 97 720 126 720 C155 720 177 742 177 770 C177 797 154 821 126 821 L126 821 Z M300 821 C273 821 249 798 249 771 C249 742 271 720 300 720 C329 720 351 742 351 770 C351 797 328 821 300 821 L300 821 Z " />
<glyph glyph-name="Eth" unicode="&#xd0;" horiz-adv-x="868" d="M36 0 L389 0 C572 0 646 18 719 79 C789 137 829 230 829 335 C829 447 785 542 707 599 C633 653 567 667 391 667 L36 667 L36 614 L83 614 C157 612 166 604 164 541 L164 361 L5 361 L5 313 L164 313 L164 126 C166 63 157 55 83 53 L36 53 L36 0 Z M261 313 L475 313 L475 361 L261 361 L261 614 L391 614 C521 614 593 593 650 539 C699 492 721 429 721 340 C721 246 694 168 646 124 C594 78 506 53 389 53 L261 53 L261 313 Z " />
<glyph glyph-name="Ntilde" unicode="&#xd1;" horiz-adv-x="907" d="M765 -3 L765 541 C763 604 772 612 845 614 L882 614 L882 667 L560 667 L560 614 L619 614 C691 612 700 604 698 541 L698 131 L276 667 L33 667 L33 614 L77 614 C149 612 158 604 156 541 L156 126 C158 63 149 55 77 53 L33 53 L33 0 L359 0 L359 53 L302 53 C230 55 221 63 223 126 L223 577 L678 -3 L765 -3 Z M562 835 C553 807 541 797 519 797 C506 797 503 797 495 799 L443 812 C432 815 419 817 409 817 C388 817 370 808 353 791 C336 772 327 752 318 708 L346 708 C355 737 368 749 388 749 C394 749 407 747 420 744 L472 731 C480 729 487 728 497 728 C545 728 573 760 590 835 L562 835 Z " />
<glyph glyph-name="Ograve" unicode="&#xd2;" horiz-adv-x="874" d="M437 687 C213 687 44 537 44 339 C44 130 208 -19 438 -19 C664 -19 830 131 830 334 C830 538 664 687 437 687 L437 687 Z M437 632 C523 632 594 603 649 546 C697 494 722 423 722 334 C722 154 610 36 438 36 C351 36 278 66 225 122 C175 177 152 245 152 338 C152 515 266 632 437 632 L437 632 Z M472 706 L507 706 L371 827 C358 839 343 846 331 846 C312 846 296 830 296 810 C296 792 306 781 329 770 L472 706 Z " />
<glyph glyph-name="Oacute" unicode="&#xd3;" horiz-adv-x="874" d="M437 687 C213 687 44 537 44 339 C44 130 208 -19 438 -19 C664 -19 830 131 830 334 C830 538 664 687 437 687 L437 687 Z M437 632 C523 632 594 603 649 546 C697 494 722 423 722 334 C722 154 610 36 438 36 C351 36 278 66 225 122 C175 177 152 245 152 338 C152 515 266 632 437 632 L437 632 Z M404 706 L547 770 C570 780 580 793 580 810 C580 830 564 846 545 846 C534 846 518 839 505 827 L370 706 L404 706 Z " />
<glyph glyph-name="Ocircumflex" unicode="&#xd4;" horiz-adv-x="874" d="M437 687 C213 687 44 537 44 339 C44 130 208 -19 438 -19 C664 -19 830 131 830 334 C830 538 664 687 437 687 L437 687 Z M437 632 C523 632 594 603 649 546 C697 494 722 423 722 334 C722 154 610 36 438 36 C351 36 278 66 225 122 C175 177 152 245 152 338 C152 515 266 632 437 632 L437 632 Z M295 706 L327 706 L437 777 L548 706 L580 706 L474 838 L400 838 L295 706 Z " />
<glyph glyph-name="Otilde" unicode="&#xd5;" horiz-adv-x="874" d="M437 687 C213 687 44 537 44 339 C44 130 208 -19 438 -19 C664 -19 830 131 830 334 C830 538 664 687 437 687 L437 687 Z M437 632 C523 632 594 603 649 546 C697 494 722 423 722 334 C722 154 610 36 438 36 C351 36 278 66 225 122 C175 177 152 245 152 338 C152 515 266 632 437 632 L437 632 Z M545 835 C536 807 525 797 502 797 C490 797 487 797 479 799 L427 812 C415 815 403 817 393 817 C372 817 353 808 337 791 C319 772 311 752 301 708 L329 708 C339 737 351 749 372 749 C378 749 391 747 403 744 L455 731 C463 729 471 728 480 728 C529 728 556 760 573 835 L545 835 Z " />
<glyph glyph-name="Odieresis" unicode="&#xd6;" horiz-adv-x="874" d="M437 687 C213 687 44 537 44 339 C44 130 208 -19 438 -19 C664 -19 830 131 830 334 C830 538 664 687 437 687 L437 687 Z M437 632 C523 632 594 603 649 546 C697 494 722 423 722 334 C722 154 610 36 438 36 C351 36 278 66 225 122 C175 177 152 245 152 338 C152 515 266 632 437 632 L437 632 Z M339 821 C312 821 288 798 288 771 C288 742 310 720 339 720 C368 720 390 742 390 770 C390 797 367 821 339 821 L339 821 Z M536 821 C509 821 485 798 485 771 C485 742 507 720 536 720 C565 720 587 742 587 770 C587 797 564 821 536 821 L536 821 Z " />
<glyph glyph-name="multiply" unicode="&#xd7;" horiz-adv-x="557" d="M69 165 L120 118 L279 263 L438 118 L489 165 L330 309 L489 454 L438 500 L279 356 L120 500 L69 454 L228 309 L69 165 Z " />
<glyph glyph-name="Oslash" unicode="&#xd8;" horiz-adv-x="874" d="M65 7 L103 -28 L188 56 C282 -3 335 -19 435 -19 C666 -19 830 128 830 335 C830 398 815 453 786 502 C772 524 757 544 724 581 L805 659 L768 694 L685 611 C598 667 533 687 433 687 C208 687 44 537 44 331 C44 236 69 179 147 88 L65 7 Z M660 517 C711 449 722 416 722 342 C722 246 699 177 650 122 C599 67 526 36 444 36 C367 36 325 52 244 110 L660 517 Z M212 150 C166 212 150 261 150 337 C150 509 267 632 430 632 C505 632 558 612 629 557 L212 150 Z " />
<glyph glyph-name="Ugrave" unicode="&#xd9;" horiz-adv-x="836" d="M33 614 L70 614 C144 612 153 604 151 541 L151 209 C151 125 177 67 233 30 C282 -3 345 -20 421 -20 C507 -20 576 1 624 43 C674 87 695 147 695 244 L695 541 C693 604 702 612 775 614 L809 614 L809 667 L494 667 L494 614 L549 614 C621 612 630 604 628 541 L628 244 C628 162 615 120 581 91 C548 63 495 47 432 47 C306 47 248 98 248 209 L248 541 C246 604 255 612 327 614 L383 614 L383 667 L33 667 L33 614 Z M453 706 L488 706 L352 827 C339 839 324 846 312 846 C293 846 277 830 277 810 C277 793 287 781 310 770 L453 706 Z " />
<glyph glyph-name="Uacute" unicode="&#xda;" horiz-adv-x="836" d="M33 614 L70 614 C144 612 153 604 151 541 L151 209 C151 125 177 67 233 30 C282 -3 345 -20 421 -20 C507 -20 576 1 624 43 C674 87 695 147 695 244 L695 541 C693 604 702 612 775 614 L809 614 L809 667 L494 667 L494 614 L549 614 C621 612 630 604 628 541 L628 244 C628 162 615 120 581 91 C548 63 495 47 432 47 C306 47 248 98 248 209 L248 541 C246 604 255 612 327 614 L383 614 L383 667 L33 667 L33 614 Z M385 706 L528 770 C551 780 561 793 561 810 C561 830 545 846 526 846 C515 846 499 839 486 827 L351 706 L385 706 Z " />
<glyph glyph-name="Ucircumflex" unicode="&#xdb;" horiz-adv-x="836" d="M33 614 L70 614 C144 612 153 604 151 541 L151 209 C151 125 177 67 233 30 C282 -3 345 -20 421 -20 C507 -20 576 1 624 43 C674 87 695 147 695 244 L695 541 C693 604 702 612 775 614 L809 614 L809 667 L494 667 L494 614 L549 614 C621 612 630 604 628 541 L628 244 C628 162 615 120 581 91 C548 63 495 47 432 47 C306 47 248 98 248 209 L248 541 C246 604 255 612 327 614 L383 614 L383 667 L33 667 L33 614 Z M275 706 L307 706 L418 777 L529 706 L561 706 L455 838 L381 838 L275 706 Z " />
<glyph glyph-name="Udieresis" unicode="&#xdc;" horiz-adv-x="836" d="M33 614 L70 614 C144 612 153 604 151 541 L151 209 C151 125 177 67 233 30 C282 -3 345 -20 421 -20 C507 -20 576 1 624 43 C674 87 695 147 695 244 L695 541 C693 604 702 612 775 614 L809 614 L809 667 L494 667 L494 614 L549 614 C621 612 630 604 628 541 L628 244 C628 162 615 120 581 91 C548 63 495 47 432 47 C306 47 248 98 248 209 L248 541 C246 604 255 612 327 614 L383 614 L383 667 L33 667 L33 614 Z M332 821 C305 821 281 798 281 771 C281 742 303 720 332 720 C361 720 383 742 383 770 C383 797 360 821 332 821 L332 821 Z M528 821 C501 821 477 798 477 771 C477 742 499 720 528 720 C557 720 579 742 579 770 C579 797 556 821 528 821 L528 821 Z " />
<glyph glyph-name="Yacute" unicode="&#xdd;" horiz-adv-x="699" d="M297 263 L297 126 C299 63 290 55 218 53 L147 53 L147 0 L545 0 L545 53 L476 53 C401 55 392 63 394 126 L394 263 L581 532 C627 597 651 614 696 614 L722 614 L722 667 L425 667 L425 614 L499 614 C522 614 537 607 537 597 C537 588 532 576 524 564 L361 331 L218 555 C207 572 202 585 202 593 C202 607 216 614 242 614 L309 614 L309 667 L-27 667 L-27 614 L4 614 C43 612 71 593 100 550 L297 263 Z M317 706 L460 770 C483 781 493 793 493 810 C493 830 477 846 458 846 C446 846 431 839 418 827 L282 706 L317 706 Z " />
<glyph glyph-name="Thorn" unicode="&#xde;" horiz-adv-x="748" d="M33 0 L393 0 L393 53 L339 53 C269 55 261 63 262 126 L262 158 L382 158 C510 158 565 166 619 192 C674 219 707 275 707 341 C707 407 675 459 620 487 C565 513 504 522 373 522 L262 522 L262 541 C261 604 269 612 339 614 L393 614 L393 667 L33 667 L33 614 L78 614 C149 612 158 604 156 541 L156 126 C158 63 149 55 78 53 L33 53 L33 0 Z M262 211 L262 469 L376 469 C443 469 485 465 517 455 C577 438 606 401 606 344 C606 253 536 211 382 211 L262 211 Z " />
<glyph glyph-name="germandbls" unicode="&#xdf;" horiz-adv-x="688" d="M16 0 L201 0 L201 442 C201 521 210 563 235 591 C260 619 299 634 347 634 C425 634 474 594 474 530 C474 495 457 469 422 451 C392 436 360 431 283 430 L283 379 C384 378 426 370 464 342 C505 314 527 260 527 192 C527 95 488 36 423 36 C391 36 364 51 352 75 C342 95 339 114 335 168 L275 168 C276 95 284 61 304 32 C326 -1 363 -17 418 -17 C538 -17 623 77 623 208 C623 269 603 317 564 352 C533 380 504 393 436 410 C530 435 567 471 567 537 C567 624 479 684 352 684 C199 684 116 599 116 442 L116 105 C116 58 106 50 45 48 L19 48 L16 0 Z " />
<glyph glyph-name="agrave" unicode="&#xe0;" horiz-adv-x="606" d="M554 159 C552 101 549 81 542 65 C535 47 522 38 504 38 C479 38 470 54 470 95 L470 327 C470 387 462 413 436 437 C403 467 338 486 269 486 C152 486 61 432 61 361 C61 326 90 300 128 300 C164 300 190 321 190 349 C190 376 174 392 138 399 C182 431 212 441 259 441 C339 441 390 407 390 354 C390 309 369 290 301 273 L213 251 C147 235 117 224 87 205 C52 182 33 149 33 110 C33 33 99 -18 197 -18 C270 -18 320 3 391 61 C410 4 438 -17 493 -17 C541 -17 573 2 589 40 C602 68 605 95 606 159 L554 159 Z M386 199 C386 137 371 102 331 74 C302 54 259 41 218 41 C162 41 127 69 127 113 C127 132 137 152 155 166 C174 182 182 186 242 203 L285 216 C318 225 329 229 386 253 L386 199 Z M359 540 L225 686 C209 703 188 715 173 715 C153 715 136 698 136 677 C136 659 146 648 177 629 L323 540 L359 540 Z " />
<glyph glyph-name="aacute" unicode="&#xe1;" horiz-adv-x="606" d="M554 159 C552 101 549 81 542 65 C535 47 522 38 504 38 C479 38 470 54 470 95 L470 327 C470 387 462 413 436 437 C403 467 338 486 269 486 C152 486 61 432 61 361 C61 326 90 300 128 300 C164 300 190 321 190 349 C190 376 174 392 138 399 C182 431 212 441 259 441 C339 441 390 407 390 354 C390 309 369 290 301 273 L213 251 C147 235 117 224 87 205 C52 182 33 149 33 110 C33 33 99 -18 197 -18 C270 -18 320 3 391 61 C410 4 438 -17 493 -17 C541 -17 573 2 589 40 C602 68 605 95 606 159 L554 159 Z M386 199 C386 137 371 102 331 74 C302 54 259 41 218 41 C162 41 127 69 127 113 C127 132 137 152 155 166 C174 182 182 186 242 203 L285 216 C318 225 329 229 386 253 L386 199 Z M239 540 L275 540 L421 629 C452 648 462 660 462 677 C462 698 445 715 425 715 C410 715 390 704 373 686 L239 540 Z " />
<glyph glyph-name="acircumflex" unicode="&#xe2;" horiz-adv-x="606" d="M554 159 C552 101 549 81 542 65 C535 47 522 38 504 38 C479 38 470 54 470 95 L470 327 C470 387 462 413 436 437 C403 467 338 486 269 486 C152 486 61 432 61 361 C61 326 90 300 128 300 C164 300 190 321 190 349 C190 376 174 392 138 399 C182 431 212 441 259 441 C339 441 390 407 390 354 C390 309 369 290 301 273 L213 251 C147 235 117 224 87 205 C52 182 33 149 33 110 C33 33 99 -18 197 -18 C270 -18 320 3 391 61 C410 4 438 -17 493 -17 C541 -17 573 2 589 40 C602 68 605 95 606 159 L554 159 Z M386 199 C386 137 371 102 331 74 C302 54 259 41 218 41 C162 41 127 69 127 113 C127 132 137 152 155 166 C174 182 182 186 242 203 L285 216 C318 225 329 229 386 253 L386 199 Z M139 540 L174 540 L281 635 L389 540 L424 540 L314 709 L249 709 L139 540 Z " />
<glyph glyph-name="atilde" unicode="&#xe3;" horiz-adv-x="606" d="M554 159 C552 101 549 81 542 65 C535 47 522 38 504 38 C479 38 470 54 470 95 L470 327 C470 387 462 413 436 437 C403 467 338 486 269 486 C152 486 61 432 61 361 C61 326 90 300 128 300 C164 300 190 321 190 349 C190 376 174 392 138 399 C182 431 212 441 259 441 C339 441 390 407 390 354 C390 309 369 290 301 273 L213 251 C147 235 117 224 87 205 C52 182 33 149 33 110 C33 33 99 -18 197 -18 C270 -18 320 3 391 61 C410 4 438 -17 493 -17 C541 -17 573 2 589 40 C602 68 605 95 606 159 L554 159 Z M386 199 C386 137 371 102 331 74 C302 54 259 41 218 41 C162 41 127 69 127 113 C127 132 137 152 155 166 C174 182 182 186 242 203 L285 216 C318 225 329 229 386 253 L386 199 Z M390 694 C381 662 370 652 345 652 C338 652 330 653 323 655 L271 668 C260 671 249 672 237 672 C216 672 197 663 181 646 C163 627 154 606 144 560 L172 560 C182 591 195 604 216 604 C223 604 236 602 248 599 L299 586 C308 584 317 583 325 583 C374 583 401 615 419 694 L390 694 Z " />
<glyph glyph-name="adieresis" unicode="&#xe4;" horiz-adv-x="606" d="M554 159 C552 101 549 81 542 65 C535 47 522 38 504 38 C479 38 470 54 470 95 L470 327 C470 387 462 413 436 437 C403 467 338 486 269 486 C152 486 61 432 61 361 C61 326 90 300 128 300 C164 300 190 321 190 349 C190 376 174 392 138 399 C182 431 212 441 259 441 C339 441 390 407 390 354 C390 309 369 290 301 273 L213 251 C147 235 117 224 87 205 C52 182 33 149 33 110 C33 33 99 -18 197 -18 C270 -18 320 3 391 61 C410 4 438 -17 493 -17 C541 -17 573 2 589 40 C602 68 605 95 606 159 L554 159 Z M386 199 C386 137 371 102 331 74 C302 54 259 41 218 41 C162 41 127 69 127 113 C127 132 137 152 155 166 C174 182 182 186 242 203 L285 216 C318 225 329 229 386 253 L386 199 Z M197 674 C168 674 142 649 142 620 C142 588 166 565 197 565 C228 565 251 588 251 619 C251 649 227 674 197 674 L197 674 Z M401 674 C372 674 346 648 346 620 C346 589 370 565 401 565 C431 565 455 589 455 619 C455 649 430 674 401 674 L401 674 Z " />
<glyph glyph-name="aring" unicode="&#xe5;" horiz-adv-x="606" d="M554 159 C552 101 549 81 542 65 C535 47 522 38 504 38 C479 38 470 54 470 95 L470 327 C470 387 462 413 436 437 C403 467 338 486 269 486 C152 486 61 432 61 361 C61 326 90 300 128 300 C164 300 190 321 190 349 C190 376 174 392 138 399 C182 431 212 441 259 441 C339 441 390 407 390 354 C390 309 369 290 301 273 L213 251 C147 235 117 224 87 205 C52 182 33 149 33 110 C33 33 99 -18 197 -18 C270 -18 320 3 391 61 C410 4 438 -17 493 -17 C541 -17 573 2 589 40 C602 68 605 95 606 159 L554 159 Z M386 199 C386 137 371 102 331 74 C302 54 259 41 218 41 C162 41 127 69 127 113 C127 132 137 152 155 166 C174 182 182 186 242 203 L285 216 C318 225 329 229 386 253 L386 199 Z M275 759 C210 759 155 706 155 642 C155 572 208 519 276 519 C342 519 395 573 395 639 C395 705 341 759 275 759 L275 759 Z M275 708 C312 708 343 677 343 639 C343 601 312 570 275 570 C237 570 206 601 206 641 C206 677 238 708 275 708 L275 708 Z " />
<glyph glyph-name="ae" unicode="&#xe6;" horiz-adv-x="918" d="M802 154 C786 110 774 91 751 74 C722 52 681 39 638 39 C583 39 537 59 511 95 C488 126 480 157 477 226 L882 226 C878 322 864 367 825 411 C781 461 719 486 639 486 C563 486 528 474 456 424 C427 450 412 460 389 468 C356 480 313 486 268 486 C141 486 50 433 50 360 C50 325 78 299 116 299 C150 299 176 320 176 348 C176 375 160 391 125 399 C170 432 201 442 253 442 C340 442 393 409 393 353 C393 305 368 285 286 268 L216 254 C82 227 22 182 22 110 C22 32 88 -18 192 -18 C229 -18 266 -11 299 1 C344 18 369 37 417 89 C444 52 462 35 484 21 C523 -3 580 -17 638 -17 C708 -17 761 1 803 38 C836 66 850 93 867 154 L802 154 Z M389 199 C389 137 374 101 336 75 C305 54 259 40 217 40 C154 40 116 67 116 113 C116 158 152 184 237 204 L287 216 C329 226 353 235 389 252 L389 199 Z M481 279 C487 337 496 363 518 390 C544 421 582 437 633 437 C681 437 718 422 742 394 C764 367 772 340 775 279 L481 279 Z " />
<glyph glyph-name="ccedilla" unicode="&#xe7;" horiz-adv-x="563" d="M465 175 C452 130 443 111 426 91 C398 59 352 41 299 41 C193 41 129 114 129 236 C129 362 199 438 315 438 C346 438 378 432 404 421 C429 411 439 402 460 372 C417 365 399 350 399 320 C399 288 424 266 460 266 C504 266 534 294 534 336 C534 422 436 486 306 486 C147 486 33 379 33 228 C33 94 118 1 258 -16 L258 -94 C276 -89 285 -88 298 -88 C333 -88 353 -104 353 -132 C353 -160 332 -174 291 -174 C254 -174 208 -160 165 -135 L146 -178 C203 -204 255 -217 301 -217 C377 -217 422 -185 422 -130 C422 -82 384 -49 329 -49 C319 -49 304 -50 289 -51 L289 -18 C425 -19 509 47 529 175 L465 175 Z " />
<glyph glyph-name="egrave" unicode="&#xe8;" horiz-adv-x="579" d="M464 154 C448 110 435 91 412 74 C384 52 343 39 299 39 C244 39 199 59 172 95 C149 126 141 157 139 226 L544 226 C540 322 526 366 487 411 C443 462 381 486 297 486 C136 486 33 387 33 233 C33 82 138 -17 300 -17 C369 -17 423 1 465 38 C497 66 512 93 529 154 L464 154 Z M143 279 C149 337 158 363 180 390 C206 421 244 437 295 437 C342 437 380 422 403 394 C425 367 433 340 437 279 L143 279 Z M345 540 L211 686 C195 703 175 715 160 715 C140 715 123 698 123 677 C123 660 133 647 164 629 L309 540 L345 540 Z " />
<glyph glyph-name="eacute" unicode="&#xe9;" horiz-adv-x="579" d="M464 154 C448 110 435 91 412 74 C384 52 343 39 299 39 C244 39 199 59 172 95 C149 126 141 157 139 226 L544 226 C540 322 526 366 487 411 C443 462 381 486 297 486 C136 486 33 387 33 233 C33 82 138 -17 300 -17 C369 -17 423 1 465 38 C497 66 512 93 529 154 L464 154 Z M143 279 C149 337 158 363 180 390 C206 421 244 437 295 437 C342 437 380 422 403 394 C425 367 433 340 437 279 L143 279 Z M226 540 L262 540 L407 629 C438 648 448 660 448 677 C448 698 431 715 411 715 C396 715 376 704 360 686 L226 540 Z " />
<glyph glyph-name="ecircumflex" unicode="&#xea;" horiz-adv-x="579" d="M464 154 C448 110 435 91 412 74 C384 52 343 39 299 39 C244 39 199 59 172 95 C149 126 141 157 139 226 L544 226 C540 322 526 366 487 411 C443 462 381 486 297 486 C136 486 33 387 33 233 C33 82 138 -17 300 -17 C369 -17 423 1 465 38 C497 66 512 93 529 154 L464 154 Z M143 279 C149 337 158 363 180 390 C206 421 244 437 295 437 C342 437 380 422 403 394 C425 367 433 340 437 279 L143 279 Z M147 540 L182 540 L290 635 L397 540 L432 540 L322 709 L257 709 L147 540 Z " />
<glyph glyph-name="edieresis" unicode="&#xeb;" horiz-adv-x="579" d="M464 154 C448 110 435 91 412 74 C384 52 343 39 299 39 C244 39 199 59 172 95 C149 126 141 157 139 226 L544 226 C540 322 526 366 487 411 C443 462 381 486 297 486 C136 486 33 387 33 233 C33 82 138 -17 300 -17 C369 -17 423 1 465 38 C497 66 512 93 529 154 L464 154 Z M143 279 C149 337 158 363 180 390 C206 421 244 437 295 437 C342 437 380 422 403 394 C425 367 433 340 437 279 L143 279 Z M188 674 C159 674 133 649 133 620 C133 588 157 565 188 565 C219 565 242 588 242 619 C242 649 217 674 188 674 L188 674 Z M393 674 C364 674 338 648 338 620 C338 589 362 565 394 565 C424 565 447 589 447 619 C447 649 422 674 393 674 L393 674 Z " />
<glyph glyph-name="igrave" unicode="&#xec;" horiz-adv-x="361" d="M33 0 L332 0 L332 48 L302 48 C239 50 228 58 229 105 L229 469 L33 469 L33 421 L68 421 C128 419 138 411 138 364 L138 105 C138 58 128 50 68 48 L33 48 L33 0 Z M202 540 L130 675 C114 703 100 715 81 715 C60 715 45 701 45 682 C45 664 47 662 83 628 L170 540 L202 540 Z " />
<glyph glyph-name="iacute" unicode="&#xed;" horiz-adv-x="381" d="M33 0 L332 0 L332 48 L302 48 C239 50 228 58 229 105 L229 469 L33 469 L33 421 L68 421 C128 419 138 411 138 364 L138 105 C138 58 128 50 68 48 L33 48 L33 0 Z M119 540 L151 540 L239 628 C275 661 277 664 277 682 C277 701 262 715 241 715 C221 715 207 703 192 675 L119 540 Z " />
<glyph glyph-name="icircumflex" unicode="&#xee;" horiz-adv-x="351" d="M23 0 L322 0 L322 48 L292 48 C229 50 219 58 219 105 L219 469 L23 469 L23 421 L58 421 C118 419 129 411 128 364 L128 105 C129 58 118 49 58 48 L23 48 L23 0 Z M26 540 L60 540 L156 635 L252 540 L285 540 L188 709 L124 709 L26 540 Z " />
<glyph glyph-name="idieresis" unicode="&#xef;" horiz-adv-x="357" d="M29 0 L328 0 L328 48 L298 48 C235 50 225 58 225 105 L225 469 L29 469 L29 421 L64 421 C124 419 135 411 134 364 L134 105 C135 58 124 49 64 48 L29 48 L29 0 Z M85 674 C56 674 30 649 30 620 C30 588 54 565 85 565 C116 565 139 588 139 619 C139 649 114 674 85 674 L85 674 Z M261 674 C232 674 206 648 206 620 C206 589 230 565 262 565 C292 565 315 589 315 619 C315 649 290 674 261 674 L261 674 Z " />
<glyph glyph-name="eth" unicode="&#xf0;" horiz-adv-x="634" d="M267 667 C292 641 300 630 320 606 L242 578 L266 537 L346 567 C382 518 392 504 410 474 C373 483 349 486 316 486 C241 486 172 463 118 419 C62 373 34 313 34 234 C34 156 62 96 118 50 C172 6 241 -17 317 -17 C480 -17 600 87 600 230 C600 332 547 430 405 591 L494 622 L469 663 L371 630 C351 647 349 649 329 667 L267 667 Z M316 435 C437 435 503 363 503 232 C503 106 435 34 317 34 C198 34 131 106 131 234 C131 363 198 435 316 435 L316 435 Z " />
<glyph glyph-name="ntilde" unicode="&#xf1;" horiz-adv-x="716" d="M33 0 L334 0 L334 48 L299 48 C238 50 227 58 228 105 L228 268 C228 319 241 352 274 384 C305 413 346 429 394 429 C476 429 506 390 506 281 L506 105 C507 58 496 50 433 48 L396 48 L396 0 L691 0 L691 48 L665 48 C602 49 590 58 591 105 L591 268 C591 357 585 389 560 423 C531 461 481 482 418 482 C378 482 339 473 306 458 C277 444 259 428 228 388 L228 469 L33 469 L33 421 L64 421 C124 419 135 410 134 364 L134 105 C135 58 124 49 64 48 L33 48 L33 0 Z M467 694 C458 662 447 652 422 652 C415 652 407 653 399 655 L348 668 C336 671 326 672 314 672 C292 672 274 663 258 646 C240 627 231 606 221 560 L249 560 C259 591 271 604 292 604 C300 604 312 602 324 599 L376 586 C384 584 394 583 401 583 C450 583 477 615 495 694 L467 694 Z " />
<glyph glyph-name="ograve" unicode="&#xf2;" horiz-adv-x="634" d="M317 486 C242 486 173 463 118 419 C63 375 34 312 34 238 C34 156 60 97 118 50 C172 6 241 -17 318 -17 C393 -17 462 6 516 50 C572 96 600 156 600 234 C600 313 572 374 516 419 C461 463 393 486 317 486 L317 486 Z M317 435 C436 435 503 363 503 234 C503 106 436 34 317 34 C197 34 131 106 131 237 C131 363 199 435 317 435 L317 435 Z M372 540 L238 686 C222 703 202 715 187 715 C167 715 150 698 150 677 C150 659 160 648 191 629 L336 540 L372 540 Z " />
<glyph glyph-name="oacute" unicode="&#xf3;" horiz-adv-x="634" d="M317 486 C242 486 173 463 118 419 C63 375 34 312 34 238 C34 156 60 97 118 50 C172 6 241 -17 318 -17 C393 -17 462 6 516 50 C572 96 600 156 600 234 C600 313 572 374 516 419 C461 463 393 486 317 486 L317 486 Z M317 435 C436 435 503 363 503 234 C503 106 436 34 317 34 C197 34 131 106 131 237 C131 363 199 435 317 435 L317 435 Z M253 540 L289 540 L434 629 C464 647 475 660 475 677 C475 698 458 715 438 715 C423 715 403 704 387 686 L253 540 Z " />
<glyph glyph-name="ocircumflex" unicode="&#xf4;" horiz-adv-x="634" d="M317 486 C242 486 173 463 118 419 C63 375 34 312 34 238 C34 156 60 97 118 50 C172 6 241 -17 318 -17 C393 -17 462 6 516 50 C572 96 600 156 600 234 C600 313 572 374 516 419 C461 463 393 486 317 486 L317 486 Z M317 435 C436 435 503 363 503 234 C503 106 436 34 317 34 C197 34 131 106 131 237 C131 363 199 435 317 435 L317 435 Z M174 540 L210 540 L317 635 L424 540 L460 540 L349 709 L285 709 L174 540 Z " />
<glyph glyph-name="otilde" unicode="&#xf5;" horiz-adv-x="634" d="M317 486 C242 486 173 463 118 419 C63 375 34 312 34 238 C34 156 60 97 118 50 C172 6 241 -17 318 -17 C393 -17 462 6 516 50 C572 96 600 156 600 234 C600 313 572 374 516 419 C461 463 393 486 317 486 L317 486 Z M317 435 C436 435 503 363 503 234 C503 106 436 34 317 34 C197 34 131 106 131 237 C131 363 199 435 317 435 L317 435 Z M426 694 C417 662 406 652 381 652 C374 652 366 653 358 655 L307 668 C295 671 285 672 273 672 C251 672 233 663 217 646 C199 627 190 606 180 560 L208 560 C218 591 230 604 251 604 C259 604 271 602 283 599 L335 586 C343 584 353 583 360 583 C409 583 436 615 454 694 L426 694 Z " />
<glyph glyph-name="odieresis" unicode="&#xf6;" horiz-adv-x="634" d="M317 486 C242 486 173 463 118 419 C63 375 34 312 34 238 C34 156 60 97 118 50 C172 6 241 -17 318 -17 C393 -17 462 6 516 50 C572 96 600 156 600 234 C600 313 572 374 516 419 C461 463 393 486 317 486 L317 486 Z M317 435 C436 435 503 363 503 234 C503 106 436 34 317 34 C197 34 131 106 131 237 C131 363 199 435 317 435 L317 435 Z M216 674 C187 674 161 649 161 620 C161 588 185 565 216 565 C247 565 270 588 270 619 C270 649 245 674 216 674 L216 674 Z M421 674 C392 674 366 648 366 620 C366 589 390 565 422 565 C452 565 475 589 475 619 C475 649 450 674 421 674 L421 674 Z " />
<glyph glyph-name="divide" unicode="&#xf7;" horiz-adv-x="549" d="M273 126 C239 126 211 99 211 64 C211 30 238 2 273 2 C306 2 334 30 334 64 C334 98 306 126 273 126 L273 126 Z M273 525 C239 525 211 498 211 463 C211 429 238 401 273 401 C306 401 334 429 334 463 C334 497 306 525 273 525 L273 525 Z M10 294 L10 239 L536 239 L536 294 L10 294 Z " />
<glyph glyph-name="oslash" unicode="&#xf8;" horiz-adv-x="634" d="M16 5 L51 -26 L127 41 C194 -2 242 -17 314 -17 C391 -17 460 6 514 50 C570 96 598 157 598 234 C598 297 583 336 536 398 L615 466 L581 497 L501 428 C434 472 389 486 316 486 C151 486 32 382 32 237 C32 178 45 143 93 73 L16 5 Z M472 341 C495 300 501 278 501 230 C501 106 434 33 318 33 C262 33 226 47 181 88 L472 341 Z M157 128 C133 169 128 189 128 237 C128 362 195 435 309 435 C368 435 408 420 448 382 L157 128 Z " />
<glyph glyph-name="ugrave" unicode="&#xf9;" horiz-adv-x="710" d="M27 421 L49 421 C104 419 113 411 113 364 L113 201 C113 112 120 79 146 46 C176 8 229 -13 295 -13 C337 -13 379 -4 413 11 C444 25 462 41 495 81 L495 0 L684 0 L684 48 L652 48 C590 50 579 58 580 105 L580 469 L393 469 L393 421 L431 421 C486 419 495 411 495 364 L495 201 C495 150 481 117 446 85 C413 55 370 40 319 40 C230 40 198 79 198 188 L198 469 L27 469 L27 421 Z M410 540 L276 686 C260 703 240 715 225 715 C205 715 188 698 188 677 C188 660 198 647 229 629 L374 540 L410 540 Z " />
<glyph glyph-name="uacute" unicode="&#xfa;" horiz-adv-x="710" d="M27 421 L49 421 C104 419 113 411 113 364 L113 201 C113 112 120 79 146 46 C176 8 229 -13 295 -13 C337 -13 379 -4 413 11 C444 25 462 41 495 81 L495 0 L684 0 L684 48 L652 48 C590 50 579 58 580 105 L580 469 L393 469 L393 421 L431 421 C486 419 495 411 495 364 L495 201 C495 150 481 117 446 85 C413 55 370 40 319 40 C230 40 198 79 198 188 L198 469 L27 469 L27 421 Z M291 540 L327 540 L472 629 C503 648 513 660 513 677 C513 698 496 715 476 715 C461 715 441 704 425 686 L291 540 Z " />
<glyph glyph-name="ucircumflex" unicode="&#xfb;" horiz-adv-x="710" d="M27 421 L49 421 C104 419 113 411 113 364 L113 201 C113 112 120 79 146 46 C176 8 229 -13 295 -13 C337 -13 379 -4 413 11 C444 25 462 41 495 81 L495 0 L684 0 L684 48 L652 48 C590 50 579 58 580 105 L580 469 L393 469 L393 421 L431 421 C486 419 495 411 495 364 L495 201 C495 150 481 117 446 85 C413 55 370 40 319 40 C230 40 198 79 198 188 L198 469 L27 469 L27 421 Z M212 540 L247 540 L355 635 L462 540 L497 540 L387 709 L322 709 L212 540 Z " />
<glyph glyph-name="udieresis" unicode="&#xfc;" horiz-adv-x="710" d="M27 421 L49 421 C104 419 113 411 113 364 L113 201 C113 112 120 79 146 46 C176 8 229 -13 295 -13 C337 -13 379 -4 413 11 C444 25 462 41 495 81 L495 0 L684 0 L684 48 L652 48 C590 50 579 58 580 105 L580 469 L393 469 L393 421 L431 421 C486 419 495 411 495 364 L495 201 C495 150 481 117 446 85 C413 55 370 40 319 40 C230 40 198 79 198 188 L198 469 L27 469 L27 421 Z M240 674 C211 674 185 649 185 620 C185 588 209 565 240 565 C271 565 294 588 294 619 C294 649 269 674 240 674 L240 674 Z M445 674 C416 674 390 648 390 620 C390 589 414 565 446 565 C476 565 499 589 499 619 C499 649 474 674 445 674 L445 674 Z " />
<glyph glyph-name="yacute" unicode="&#xfd;" horiz-adv-x="623" d="M281 -3 C249 -67 236 -89 217 -115 C192 -147 162 -164 128 -164 C98 -164 85 -157 63 -132 C111 -129 128 -116 128 -83 C128 -53 103 -30 69 -30 C26 -30 -5 -61 -5 -104 C-5 -134 8 -162 34 -184 C59 -206 84 -214 123 -214 C174 -214 215 -198 249 -165 C282 -133 296 -108 366 38 L520 359 C545 411 554 419 593 421 L626 421 L626 469 L364 469 L364 421 L408 421 C448 421 462 415 462 399 C462 391 459 381 455 372 L330 103 L206 367 C200 381 196 393 196 401 C196 416 206 421 234 421 L281 421 L281 469 L2 469 L2 421 L31 421 C73 419 83 412 102 374 L281 -3 Z M248 540 L284 540 L429 629 C460 647 470 660 470 677 C470 698 453 715 433 715 C418 715 398 704 382 686 L248 540 Z " />
<glyph glyph-name="thorn" unicode="&#xfe;" horiz-adv-x="677" d="M205 78 C228 49 243 33 260 21 C293 -3 340 -16 390 -16 C533 -16 629 85 629 235 C629 383 533 484 392 484 C334 484 280 466 244 433 C233 423 224 412 206 390 L206 667 L15 667 L15 619 L46 619 C109 617 121 608 120 562 L120 -109 C121 -156 109 -164 46 -166 L21 -166 L21 -214 L315 -214 L315 -166 L278 -166 C215 -164 204 -156 205 -109 L205 78 Z M377 426 C475 426 532 355 532 235 C532 112 476 42 377 42 C271 42 205 116 205 236 C205 351 273 426 377 426 L377 426 Z " />
<glyph glyph-name="ydieresis" unicode="&#xff;" horiz-adv-x="623" d="M281 -3 C249 -67 236 -89 217 -115 C192 -147 162 -164 128 -164 C98 -164 85 -157 63 -132 C111 -129 128 -116 128 -83 C128 -53 103 -30 69 -30 C26 -30 -5 -61 -5 -104 C-5 -134 8 -162 34 -184 C59 -206 84 -214 123 -214 C174 -214 215 -198 249 -165 C282 -133 296 -108 366 38 L520 359 C545 411 554 419 593 421 L626 421 L626 469 L364 469 L364 421 L408 421 C448 421 462 415 462 399 C462 391 459 381 455 372 L330 103 L206 367 C200 381 196 393 196 401 C196 416 206 421 234 421 L281 421 L281 469 L2 469 L2 421 L31 421 C73 419 83 412 102 374 L281 -3 Z M210 674 C181 674 155 649 155 620 C155 588 179 565 210 565 C241 565 264 588 264 619 C264 649 239 674 210 674 L210 674 Z M415 674 C386 674 360 648 360 620 C360 589 384 565 416 565 C446 565 469 589 469 619 C469 649 444 674 415 674 L415 674 Z " />
<glyph glyph-name="Amacron" unicode="&#x100;" horiz-adv-x="770" d="M-22 0 L295 0 L295 53 L240 53 C184 53 170 58 170 79 C170 89 175 108 185 130 L226 223 L504 223 L551 110 C556 97 559 85 559 79 C559 59 544 53 495 53 L436 53 L436 0 L784 0 L784 53 L754 53 C700 54 681 67 662 114 L429 667 L337 667 L101 111 C81 64 65 54 13 53 L-22 53 L-22 0 Z M248 276 L362 561 L480 276 L248 276 Z M259 738 L511 738 L511 803 L259 803 L259 738 Z " />
<glyph glyph-name="amacron" unicode="&#x101;" horiz-adv-x="606" d="M554 159 C552 101 549 81 542 65 C535 47 522 38 504 38 C479 38 470 54 470 95 L470 327 C470 387 462 413 436 437 C403 467 338 486 269 486 C152 486 61 432 61 361 C61 326 90 300 128 300 C164 300 190 321 190 349 C190 376 174 392 138 399 C182 431 212 441 259 441 C339 441 390 407 390 354 C390 309 369 290 301 273 L213 251 C147 235 117 224 87 205 C52 182 33 149 33 110 C33 33 99 -18 197 -18 C270 -18 320 3 391 61 C410 4 438 -17 493 -17 C541 -17 573 2 589 40 C602 68 605 95 606 159 L554 159 Z M386 199 C386 137 371 102 331 74 C302 54 259 41 218 41 C162 41 127 69 127 113 C127 132 137 152 155 166 C174 182 182 186 242 203 L285 216 C318 225 329 229 386 253 L386 199 Z M173 585 L435 585 L435 653 L173 653 L173 585 Z " />
<glyph glyph-name="Abreve" unicode="&#x102;" horiz-adv-x="770" d="M-22 0 L295 0 L295 53 L240 53 C184 53 170 58 170 79 C170 89 175 108 185 130 L226 223 L504 223 L551 110 C556 97 559 85 559 79 C559 59 544 53 495 53 L436 53 L436 0 L784 0 L784 53 L754 53 C700 54 681 67 662 114 L429 667 L337 667 L101 111 C81 64 65 54 13 53 L-22 53 L-22 0 Z M248 276 L362 561 L480 276 L248 276 Z M241 834 C251 788 260 768 281 748 C306 723 343 709 385 709 C427 709 464 723 490 748 C510 767 519 788 529 834 L497 834 C483 792 453 777 385 777 C317 777 288 792 272 834 L241 834 Z " />
<glyph glyph-name="abreve" unicode="&#x103;" horiz-adv-x="606" d="M554 159 C552 101 549 81 542 65 C535 47 522 38 504 38 C479 38 470 54 470 95 L470 327 C470 387 462 413 436 437 C403 467 338 486 269 486 C152 486 61 432 61 361 C61 326 90 300 128 300 C164 300 190 321 190 349 C190 376 174 392 138 399 C182 431 212 441 259 441 C339 441 390 407 390 354 C390 309 369 290 301 273 L213 251 C147 235 117 224 87 205 C52 182 33 149 33 110 C33 33 99 -18 197 -18 C270 -18 320 3 391 61 C410 4 438 -17 493 -17 C541 -17 573 2 589 40 C602 68 605 95 606 159 L554 159 Z M386 199 C386 137 371 102 331 74 C302 54 259 41 218 41 C162 41 127 69 127 113 C127 132 137 152 155 166 C174 182 182 186 242 203 L285 216 C318 225 329 229 386 253 L386 199 Z M158 692 C168 641 178 619 199 597 C225 571 261 557 303 557 C346 557 383 571 408 597 C429 618 439 641 449 692 L417 692 C402 644 374 628 303 628 C233 628 206 643 189 692 L158 692 Z " />
<glyph glyph-name="Aogonek" unicode="&#x104;" horiz-adv-x="770" d="M784 0 L784 53 L754 53 C700 54 681 67 662 114 L429 667 L337 667 L101 111 C81 64 65 54 13 53 L-22 53 L-22 0 L295 0 L295 53 L240 53 C183 53 170 58 170 80 C170 90 176 108 185 130 L226 223 L504 223 L551 110 C556 97 559 85 559 78 C559 59 543 53 495 53 L436 53 L436 0 L704 0 C629 -48 592 -96 592 -143 C592 -188 626 -217 678 -217 C728 -217 769 -190 796 -141 L780 -133 C758 -158 738 -168 710 -168 C678 -168 658 -146 658 -110 C658 -75 686 -35 734 0 L784 0 Z M248 276 L362 561 L480 276 L248 276 Z " />
<glyph glyph-name="aogonek" unicode="&#x105;" horiz-adv-x="606" d="M554 159 C550 61 541 37 505 37 C479 37 470 53 470 95 L470 327 C470 387 462 413 436 437 C403 467 338 486 269 486 C152 486 61 432 61 361 C61 326 90 300 129 300 C164 300 190 321 190 349 C190 376 174 392 138 399 C182 431 212 441 259 441 C339 441 390 407 390 354 C390 309 369 290 301 273 L213 251 C147 235 117 224 87 205 C52 182 33 149 33 110 C33 33 99 -18 197 -18 C270 -18 320 3 391 61 C408 8 430 -11 481 -17 C421 -63 395 -100 395 -143 C395 -188 428 -217 479 -217 C529 -217 570 -190 597 -141 L581 -133 C559 -158 539 -168 511 -168 C480 -168 460 -146 460 -111 C460 -78 480 -46 513 -27 C528 -18 543 -9 558 -1 C569 5 580 20 589 39 C602 69 605 90 606 159 L554 159 Z M386 199 C386 137 371 102 331 74 C302 54 259 41 218 41 C162 41 127 69 127 113 C127 132 137 152 155 166 C174 182 182 186 242 203 L285 216 C318 225 329 229 386 253 L386 199 Z " />
<glyph glyph-name="Cacute" unicode="&#x106;" horiz-adv-x="776" d="M654 243 C641 173 628 142 598 110 C556 65 495 41 419 41 C335 41 264 71 220 127 C176 180 152 255 152 333 C152 506 260 631 408 631 C482 631 550 602 597 550 C633 511 646 480 657 408 L713 408 L713 667 L662 667 L635 607 C540 670 490 687 407 687 C200 687 44 534 44 331 C44 226 84 134 159 68 C226 8 307 -20 410 -20 C519 -20 598 9 653 69 C692 113 708 153 720 243 L654 243 Z M355 706 L498 770 C521 780 531 793 531 810 C531 830 515 846 496 846 C485 846 469 839 456 827 L321 706 L355 706 Z " />
<glyph glyph-name="cacute" unicode="&#x107;" horiz-adv-x="563" d="M465 175 C453 130 444 111 426 91 C398 59 352 41 300 41 C193 41 129 114 129 236 C129 362 199 438 316 438 C347 438 379 432 404 421 C429 411 440 402 461 372 C418 365 400 350 400 320 C400 288 425 266 461 266 C505 266 534 294 534 336 C534 422 436 486 306 486 C146 486 33 379 33 228 C33 80 137 -18 294 -18 C373 -18 429 3 471 47 C503 80 516 109 529 175 L465 175 Z M217 540 L253 540 L399 629 C430 648 440 660 440 677 C440 698 423 715 403 715 C388 715 368 704 351 686 L217 540 Z " />
<glyph glyph-name="Ccaron" unicode="&#x10c;" horiz-adv-x="776" d="M654 243 C641 173 628 142 598 110 C556 65 495 41 419 41 C335 41 264 71 220 127 C176 180 152 255 152 333 C152 506 260 631 408 631 C482 631 550 602 597 550 C633 511 646 480 657 408 L713 408 L713 667 L662 667 L635 607 C540 670 490 687 407 687 C200 687 44 534 44 331 C44 226 84 134 159 68 C226 8 307 -20 410 -20 C519 -20 598 9 653 69 C692 113 708 153 720 243 L654 243 Z M245 838 L351 706 L425 706 L531 838 L499 838 L388 767 L277 838 L245 838 Z " />
<glyph glyph-name="ccaron" unicode="&#x10d;" horiz-adv-x="563" d="M465 175 C453 130 444 111 426 91 C398 59 352 41 300 41 C193 41 129 114 129 236 C129 362 199 438 316 438 C347 438 379 432 404 421 C429 411 440 402 461 372 C418 365 400 350 400 320 C400 288 425 266 461 266 C505 266 534 294 534 336 C534 422 436 486 306 486 C146 486 33 379 33 228 C33 80 137 -18 294 -18 C373 -18 429 3 471 47 C503 80 516 109 529 175 L465 175 Z M139 709 L249 540 L314 540 L424 709 L389 709 L281 614 L174 709 L139 709 Z " />
<glyph glyph-name="Dcaron" unicode="&#x10e;" horiz-adv-x="863" d="M33 0 L385 0 C569 0 643 18 716 79 C786 137 826 230 826 336 C826 447 782 543 704 599 C630 653 564 667 387 667 L33 667 L33 614 L81 614 C155 612 164 604 162 541 L162 126 C164 63 155 55 81 53 L33 53 L33 0 Z M259 614 L387 614 C517 614 590 593 647 539 C696 492 718 430 718 341 C718 246 691 168 643 124 C591 78 502 53 385 53 L259 53 L259 614 Z M122 838 L228 706 L302 706 L408 838 L376 838 L265 767 L154 838 L122 838 Z " />
<glyph glyph-name="dcaron" unicode="&#x10f;" horiz-adv-x="672" d="M352 619 L387 619 C447 618 458 609 457 562 L457 391 C435 420 419 437 403 449 C371 473 325 486 275 486 C133 486 38 385 38 234 C38 86 133 -15 273 -15 C313 -15 353 -6 384 12 C409 25 427 43 457 81 L457 0 L649 0 L649 48 L622 48 C561 50 550 58 551 105 L551 667 L352 667 L352 619 Z M287 428 C392 428 457 353 457 234 C457 119 390 43 288 43 C191 43 134 114 134 234 C134 358 190 428 287 428 L287 428 Z M628 461 C690 474 734 528 734 591 C734 638 705 670 664 670 C633 670 611 649 611 619 C611 594 631 575 656 575 C666 575 674 578 690 586 C692 541 667 503 628 493 L628 461 Z " />
<glyph glyph-name="Dcroat" unicode="&#x110;" horiz-adv-x="868" d="M36 0 L389 0 C572 0 646 18 719 79 C789 137 829 230 829 335 C829 447 785 542 707 599 C633 653 567 667 391 667 L36 667 L36 614 L83 614 C157 612 166 604 164 541 L164 361 L5 361 L5 313 L164 313 L164 126 C166 63 157 55 83 53 L36 53 L36 0 Z M261 313 L475 313 L475 361 L261 361 L261 614 L391 614 C521 614 593 593 650 539 C699 492 721 429 721 340 C721 246 694 168 646 124 C594 78 506 53 389 53 L261 53 L261 313 Z " />
<glyph glyph-name="dcroat" unicode="&#x111;" horiz-adv-x="672" d="M551 564 L551 667 L352 667 L352 619 L387 619 C446 618 457 609 457 564 L243 564 L243 520 L457 520 L457 391 C435 419 419 436 403 448 C371 472 325 485 274 485 C133 485 38 384 38 234 C38 86 133 -15 273 -15 C313 -15 353 -6 384 12 C409 25 427 43 457 81 L457 0 L649 0 L649 48 L622 48 C561 50 550 58 551 105 L551 520 L613 520 L613 564 L551 564 Z M287 427 C392 427 457 352 457 234 C457 118 390 43 288 43 C191 43 134 113 134 234 C134 357 190 427 287 427 L287 427 Z " />
<glyph glyph-name="Emacron" unicode="&#x112;" horiz-adv-x="814" d="M33 0 L728 0 L728 271 L671 271 C664 88 635 56 473 53 L257 53 L257 323 L333 323 C436 320 448 306 453 178 L510 178 L510 505 L453 505 C452 392 435 374 334 376 L257 376 L257 614 L459 614 C629 613 668 577 671 416 L728 416 L728 667 L33 667 L33 614 L80 614 C153 612 162 604 160 541 L160 126 C162 63 153 55 80 53 L33 53 L33 0 Z M281 738 L533 738 L533 803 L281 803 L281 738 Z " />
<glyph glyph-name="emacron" unicode="&#x113;" horiz-adv-x="579" d="M464 154 C448 110 435 91 412 74 C384 52 343 39 299 39 C244 39 199 59 172 95 C149 126 141 157 139 226 L544 226 C540 322 526 366 487 411 C443 462 381 486 297 486 C136 486 33 387 33 233 C33 82 138 -17 300 -17 C369 -17 423 1 465 38 C497 66 512 93 529 154 L464 154 Z M143 279 C149 337 158 363 180 390 C206 421 244 437 295 437 C342 437 380 422 403 394 C425 367 433 340 437 279 L143 279 Z M159 585 L421 585 L421 653 L159 653 L159 585 Z " />
<glyph glyph-name="Edotaccent" unicode="&#x116;" horiz-adv-x="814" d="M33 0 L728 0 L728 271 L671 271 C664 88 635 56 473 53 L257 53 L257 323 L333 323 C436 320 448 306 453 178 L510 178 L510 505 L453 505 C452 392 435 374 334 376 L257 376 L257 614 L459 614 C629 613 668 577 671 416 L728 416 L728 667 L33 667 L33 614 L80 614 C153 612 162 604 160 541 L160 126 C162 63 153 55 80 53 L33 53 L33 0 Z M408 824 C379 824 354 799 354 771 C354 740 377 717 408 717 C437 717 461 741 461 770 C461 799 437 824 408 824 L408 824 Z " />
<glyph glyph-name="edotaccent" unicode="&#x117;" horiz-adv-x="579" d="M464 154 C448 110 435 91 412 74 C384 52 343 39 299 39 C244 39 199 59 172 95 C149 126 141 157 139 226 L544 226 C540 322 526 366 487 411 C443 462 381 486 297 486 C136 486 33 387 33 233 C33 82 138 -17 300 -17 C369 -17 423 1 465 38 C497 66 512 93 529 154 L464 154 Z M143 279 C149 337 158 363 180 390 C206 421 244 437 295 437 C342 437 380 422 403 394 C425 367 433 340 437 279 L143 279 Z M290 677 C259 677 232 650 232 620 C232 587 257 562 290 562 C322 562 347 587 347 618 C347 650 320 677 290 677 L290 677 Z " />
<glyph glyph-name="Eogonek" unicode="&#x118;" horiz-adv-x="814" d="M728 0 L728 271 L671 271 C664 88 635 56 473 53 L257 53 L257 323 L333 323 C436 320 448 306 453 178 L510 178 L510 505 L453 505 C452 392 435 374 334 376 L257 376 L257 614 L459 614 C629 613 668 577 671 416 L728 416 L728 667 L33 667 L33 614 L80 614 C153 612 162 604 160 541 L160 126 C162 63 153 55 80 53 L33 53 L33 0 L649 0 C577 -45 537 -96 537 -143 C537 -188 571 -217 623 -217 C673 -217 714 -190 741 -141 L725 -133 C703 -158 683 -168 655 -168 C623 -168 603 -145 603 -110 C603 -75 631 -35 679 0 L728 0 Z " />
<glyph glyph-name="eogonek" unicode="&#x119;" horiz-adv-x="579" d="M464 154 C448 110 435 91 412 74 C384 51 343 39 299 39 C244 39 199 59 172 95 C149 126 141 157 139 226 L544 226 C540 322 526 366 487 411 C443 462 381 486 297 486 C136 486 33 387 33 233 C33 82 138 -17 298 -17 C311 -17 318 -17 332 -16 C273 -59 245 -100 245 -143 C245 -188 278 -217 329 -217 C378 -217 419 -190 446 -141 L430 -133 C409 -158 388 -168 360 -168 C329 -168 309 -146 309 -110 C309 -71 339 -32 392 -4 C492 48 500 57 529 154 L464 154 Z M143 279 C149 337 158 363 180 390 C206 421 244 437 295 437 C342 437 380 422 403 394 C425 367 433 340 437 279 L143 279 Z " />
<glyph glyph-name="Ecaron" unicode="&#x11a;" horiz-adv-x="814" d="M33 0 L728 0 L728 271 L671 271 C664 88 635 56 473 53 L257 53 L257 323 L333 323 C436 320 448 306 453 178 L510 178 L510 505 L453 505 C452 392 435 374 334 376 L257 376 L257 614 L459 614 C629 613 668 577 671 416 L728 416 L728 667 L33 667 L33 614 L80 614 C153 612 162 604 160 541 L160 126 C162 63 153 55 80 53 L33 53 L33 0 Z M264 838 L370 706 L444 706 L550 838 L518 838 L407 767 L296 838 L264 838 Z " />
<glyph glyph-name="ecaron" unicode="&#x11b;" horiz-adv-x="579" d="M464 154 C448 110 435 91 412 74 C384 52 343 39 299 39 C244 39 199 59 172 95 C149 126 141 157 139 226 L544 226 C540 322 526 366 487 411 C443 462 381 486 297 486 C136 486 33 387 33 233 C33 82 138 -17 300 -17 C369 -17 423 1 465 38 C497 66 512 93 529 154 L464 154 Z M143 279 C149 337 158 363 180 390 C206 421 244 437 295 437 C342 437 380 422 403 394 C425 367 433 340 437 279 L143 279 Z M147 709 L257 540 L322 540 L432 709 L397 709 L290 614 L182 709 L147 709 Z " />
<glyph glyph-name="Gbreve" unicode="&#x11e;" horiz-adv-x="852" d="M728 -7 L728 232 C728 283 738 290 809 289 L853 289 L853 342 L484 342 L484 289 L545 289 C620 288 629 282 631 232 L631 191 C631 155 622 131 601 108 C565 68 489 41 414 41 C327 41 249 77 206 137 C170 185 152 253 152 334 C152 514 251 631 404 631 C470 631 532 608 579 565 C618 530 636 497 660 421 L715 421 L715 667 L667 667 L631 602 C539 670 492 687 401 687 C191 687 44 539 44 329 C44 121 187 -19 400 -19 C487 -19 537 -3 638 56 L676 -7 L728 -7 Z M246 834 C256 788 265 768 286 748 C311 723 348 709 390 709 C432 709 469 723 494 748 C515 767 524 788 534 834 L502 834 C488 792 458 777 390 777 C322 777 293 792 277 834 L246 834 Z " />
<glyph glyph-name="gbreve" unicode="&#x11f;" horiz-adv-x="710" d="M231 60 C159 60 129 71 129 98 C129 123 157 147 185 147 C189 147 193 146 199 145 C258 130 268 128 306 128 C452 128 543 197 543 307 C543 342 537 360 514 397 C547 433 568 444 602 444 C621 444 627 441 641 427 C604 421 587 406 587 379 C587 352 611 331 643 331 C680 331 706 359 706 401 C706 451 664 486 604 486 C558 486 533 474 487 432 C422 472 376 486 303 486 C167 486 76 415 76 309 C76 254 95 218 146 176 C74 140 55 119 55 79 C55 38 79 14 139 -4 C106 -12 84 -20 70 -30 C47 -47 33 -72 33 -97 C33 -131 60 -164 103 -183 C154 -205 213 -214 301 -214 C505 -214 604 -167 604 -68 C604 15 532 60 399 60 L231 60 Z M307 439 C350 439 390 426 415 404 C439 383 450 353 450 309 C450 224 401 180 308 180 C215 180 168 223 168 308 C168 390 220 439 307 439 L307 439 Z M346 -20 C461 -21 502 -38 502 -85 C502 -113 486 -131 450 -144 C417 -156 351 -164 287 -164 C188 -164 135 -138 135 -89 C135 -43 186 -20 288 -20 L346 -20 Z M166 692 C176 641 186 619 207 597 C233 571 269 557 311 557 C354 557 391 571 416 597 C437 618 447 641 457 692 L425 692 C410 644 382 628 311 628 C242 628 214 643 197 692 L166 692 Z " />
<glyph glyph-name="Gcommaaccent" unicode="&#x122;" horiz-adv-x="852" d="M728 -7 L728 232 C728 283 738 290 809 289 L853 289 L853 342 L484 342 L484 289 L545 289 C620 288 629 282 631 232 L631 191 C631 155 622 131 601 108 C565 68 489 41 414 41 C327 41 249 77 206 137 C170 185 152 253 152 334 C152 514 251 631 404 631 C470 631 532 608 579 565 C618 530 636 497 660 421 L715 421 L715 667 L667 667 L631 602 C539 670 492 687 401 687 C191 687 44 539 44 329 C44 121 187 -19 400 -19 C487 -19 537 -3 638 56 L676 -7 L728 -7 Z M383 -266 C445 -252 489 -198 489 -135 C489 -88 461 -56 419 -56 C389 -56 367 -77 367 -108 C367 -132 387 -152 412 -152 C421 -152 429 -149 445 -141 C447 -186 422 -223 383 -234 L383 -266 Z " />
<glyph glyph-name="gcommaaccent" unicode="&#x123;" horiz-adv-x="710" d="M231 60 C159 60 129 71 129 98 C129 123 157 147 185 147 C189 147 193 146 199 145 C258 130 268 128 306 128 C452 128 543 197 543 307 C543 342 537 360 514 397 C547 433 568 444 602 444 C621 444 627 441 641 427 C604 421 587 406 587 379 C587 352 611 331 643 331 C680 331 706 359 706 401 C706 451 664 486 604 486 C558 486 533 474 487 432 C422 472 376 486 303 486 C167 486 76 415 76 309 C76 254 95 218 146 176 C74 140 55 119 55 79 C55 38 79 14 139 -4 C106 -12 84 -20 70 -30 C47 -47 33 -72 33 -97 C33 -131 60 -164 103 -183 C154 -205 213 -214 301 -214 C505 -214 604 -167 604 -68 C604 15 532 60 399 60 L231 60 Z M307 439 C350 439 390 426 415 404 C439 383 450 353 450 309 C450 224 401 180 308 180 C215 180 168 223 168 308 C168 390 220 439 307 439 L307 439 Z M346 -20 C461 -21 502 -38 502 -85 C502 -113 486 -131 450 -144 C417 -156 351 -164 287 -164 C188 -164 135 -138 135 -89 C135 -43 186 -20 288 -20 L346 -20 Z M365 735 C303 721 259 667 259 604 C259 557 287 525 329 525 C359 525 381 546 381 577 C381 601 361 621 336 621 C326 621 318 618 303 610 C300 655 325 692 365 703 L365 735 Z " />
<glyph glyph-name="Imacron" unicode="&#x12a;" horiz-adv-x="426" d="M32 0 L393 0 L393 53 L342 53 C269 55 260 63 262 126 L262 541 C260 604 269 612 342 614 L393 614 L393 667 L32 667 L32 614 L83 614 C157 612 166 604 164 541 L164 126 C166 63 157 55 83 53 L32 53 L32 0 Z M87 738 L339 738 L339 803 L87 803 L87 738 Z " />
<glyph glyph-name="imacron" unicode="&#x12b;" horiz-adv-x="361" d="M33 0 L332 0 L332 48 L302 48 C239 50 228 58 229 105 L229 469 L33 469 L33 421 L68 421 C128 419 138 411 138 364 L138 105 C138 58 128 50 68 48 L33 48 L33 0 Z M38 585 L300 585 L300 653 L38 653 L38 585 Z " />
<glyph glyph-name="Iogonek" unicode="&#x12e;" horiz-adv-x="426" d="M393 0 L393 53 L342 53 C269 55 260 63 262 126 L262 541 C260 604 269 612 342 614 L393 614 L393 667 L32 667 L32 614 L83 614 C157 612 166 604 164 541 L164 126 C166 63 157 55 83 53 L32 53 L32 0 L326 0 C252 -47 214 -96 214 -143 C214 -188 248 -217 300 -217 C349 -217 390 -190 416 -141 L400 -133 C379 -158 359 -168 331 -168 C300 -168 280 -145 280 -110 C280 -75 308 -35 355 0 L393 0 Z " />
<glyph glyph-name="iogonek" unicode="&#x12f;" horiz-adv-x="361" d="M332 0 L332 48 L302 48 C239 50 228 58 229 105 L229 469 L33 469 L33 421 L68 421 C128 419 138 411 138 364 L138 105 C138 58 128 50 68 48 L33 48 L33 0 L291 0 C208 -48 163 -103 163 -153 C163 -198 197 -227 249 -227 C299 -227 339 -200 366 -151 L350 -143 C329 -168 309 -178 280 -178 C249 -178 229 -155 229 -120 C229 -81 257 -43 318 0 L332 0 Z M172 675 C140 675 115 650 115 617 C115 587 141 562 172 562 C203 562 228 587 228 618 C228 649 203 675 172 675 L172 675 Z " />
<glyph glyph-name="Idotaccent" unicode="&#x130;" horiz-adv-x="426" d="M32 0 L393 0 L393 53 L342 53 C269 55 260 63 262 126 L262 541 C260 604 269 612 342 614 L393 614 L393 667 L32 667 L32 614 L83 614 C157 612 166 604 164 541 L164 126 C166 63 157 55 83 53 L32 53 L32 0 Z M213 824 C184 824 159 799 159 771 C159 740 182 717 213 717 C242 717 266 741 266 770 C266 799 242 824 213 824 L213 824 Z " />
<glyph glyph-name="dotlessi" unicode="&#x131;" horiz-adv-x="361" d="M33 0 L332 0 L332 48 L302 48 C239 50 228 58 229 105 L229 469 L33 469 L33 421 L68 421 C128 419 138 411 138 364 L138 105 C138 58 128 50 68 48 L33 48 L33 0 Z " />
<glyph glyph-name="Kcommaaccent" unicode="&#x136;" horiz-adv-x="841" d="M393 53 L337 53 C264 55 256 63 257 126 L257 237 L368 323 L572 121 C607 86 610 82 610 73 C610 60 596 53 568 53 L484 53 L484 0 L882 0 L882 53 L848 53 C787 56 764 66 721 111 L447 384 L631 536 C709 596 742 611 799 614 L843 614 L843 667 L477 667 L477 614 L531 614 C569 614 586 608 586 594 C586 585 579 575 567 565 L257 318 L257 541 C256 604 264 612 337 614 L393 614 L393 667 L33 667 L33 614 L80 614 C153 612 162 604 160 541 L160 126 C162 63 153 55 80 53 L33 53 L33 0 L393 0 L393 53 Z M377 -266 C440 -252 483 -198 483 -135 C483 -88 455 -56 413 -56 C383 -56 361 -77 361 -108 C361 -132 381 -152 406 -152 C416 -152 424 -149 439 -141 C442 -186 417 -223 377 -234 L377 -266 Z " />
<glyph glyph-name="kcommaaccent" unicode="&#x137;" horiz-adv-x="699" d="M212 229 L212 667 L27 667 L27 619 L57 619 C120 617 131 609 131 562 L131 105 C131 58 120 50 57 48 L27 48 L27 0 L311 0 L311 48 L286 48 C222 50 211 58 212 105 L212 165 L306 228 L447 89 C456 80 460 73 460 67 C460 55 437 48 397 48 L369 48 L369 0 L682 0 L682 48 L665 48 C623 49 587 63 557 93 L374 276 L513 377 C560 410 591 421 637 420 L653 420 L653 469 L331 469 L331 420 L381 420 C423 420 439 415 439 404 C439 394 428 380 406 365 L212 229 Z M306 -266 C368 -252 412 -198 412 -135 C412 -88 384 -56 342 -56 C312 -56 290 -77 290 -108 C290 -132 310 -152 335 -152 C344 -152 352 -149 368 -141 C370 -186 345 -223 306 -234 L306 -266 Z " />
<glyph glyph-name="Lacute" unicode="&#x139;" horiz-adv-x="748" d="M33 667 L33 614 L80 614 C153 612 162 604 160 541 L160 126 C162 63 153 55 80 53 L33 53 L33 0 L704 0 L704 277 L647 277 C648 91 613 54 436 53 L257 53 L257 541 C256 604 264 612 337 614 L393 614 L393 667 L33 667 Z M341 706 L484 770 C507 780 517 793 517 810 C517 830 501 846 482 846 C471 846 456 839 443 827 L307 706 L341 706 Z " />
<glyph glyph-name="lacute" unicode="&#x13a;" horiz-adv-x="350" d="M218 667 L27 667 L27 619 L59 619 C121 617 133 609 132 562 L132 105 C132 58 121 50 59 48 L27 48 L27 0 L325 0 L325 48 L292 48 C228 50 218 58 218 105 L218 667 Z M160 719 L196 719 L342 808 C371 826 382 839 382 856 C382 877 365 894 345 894 C330 894 311 883 294 865 L160 719 Z " />
<glyph glyph-name="Lcommaaccent" unicode="&#x13b;" horiz-adv-x="748" d="M33 667 L33 614 L80 614 C153 612 162 604 160 541 L160 126 C162 63 153 55 80 53 L33 53 L33 0 L704 0 L704 277 L647 277 C648 91 613 54 436 53 L257 53 L257 541 C256 604 264 612 337 614 L393 614 L393 667 L33 667 Z M331 -266 C393 -252 437 -198 437 -135 C437 -88 409 -56 367 -56 C337 -56 315 -77 315 -108 C315 -132 335 -152 360 -152 C369 -152 377 -149 393 -141 C395 -186 370 -223 331 -234 L331 -266 Z " />
<glyph glyph-name="lcommaaccent" unicode="&#x13c;" horiz-adv-x="350" d="M218 667 L27 667 L27 619 L59 619 C121 617 133 609 132 562 L132 105 C132 58 121 50 59 48 L27 48 L27 0 L325 0 L325 48 L292 48 C228 50 218 58 218 105 L218 667 Z M131 -266 C193 -252 237 -198 237 -135 C237 -88 209 -56 167 -56 C137 -56 115 -77 115 -108 C115 -132 135 -152 160 -152 C170 -152 178 -149 193 -141 C195 -186 171 -223 131 -234 L131 -266 Z " />
<glyph glyph-name="Lcaron" unicode="&#x13d;" horiz-adv-x="748" d="M33 667 L33 614 L80 614 C153 612 162 604 160 541 L160 126 C162 63 153 55 80 53 L33 53 L33 0 L704 0 L704 277 L647 277 C648 91 613 54 436 53 L257 53 L257 541 C256 604 264 612 337 614 L393 614 L393 667 L33 667 Z M500 472 C561 485 605 539 605 602 C605 649 577 681 535 681 C505 681 483 660 483 630 C483 605 503 586 528 586 C538 586 546 588 561 597 C564 552 539 514 500 504 L500 472 Z " />
<glyph glyph-name="lcaron" unicode="&#x13e;" horiz-adv-x="350" d="M218 667 L27 667 L27 619 L59 619 C121 617 133 609 132 562 L132 105 C132 58 121 50 59 48 L27 48 L27 0 L325 0 L325 48 L292 48 C228 50 218 58 218 105 L218 667 Z M289 465 C351 478 395 532 395 595 C395 642 366 674 325 674 C294 674 272 653 272 623 C272 598 292 579 317 579 C327 579 335 582 351 590 C353 545 328 507 289 497 L289 465 Z " />
<glyph glyph-name="Lslash" unicode="&#x141;" horiz-adv-x="754" d="M163 266 L163 126 C165 63 156 55 82 53 L35 53 L35 0 L706 0 L706 277 L650 277 C650 92 615 54 439 53 L260 53 L260 311 L469 441 L469 497 L260 367 L260 541 C258 604 267 612 340 614 L396 614 L396 667 L35 667 L35 614 L82 614 C156 612 165 604 163 541 L163 323 L5 225 L5 169 L163 266 Z " />
<glyph glyph-name="lslash" unicode="&#x142;" horiz-adv-x="360" d="M131 300 L131 105 C131 58 121 50 61 48 L31 48 L31 0 L329 0 L329 48 L296 48 C232 50 222 58 222 105 L222 338 L359 423 L359 476 L222 392 L222 667 L31 667 L31 619 L61 619 C121 617 131 609 131 562 L131 353 L5 273 L5 219 L131 300 Z " />
<glyph glyph-name="Nacute" unicode="&#x143;" horiz-adv-x="907" d="M765 -3 L765 541 C763 604 772 612 845 614 L882 614 L882 667 L560 667 L560 614 L619 614 C691 612 700 604 698 541 L698 131 L276 667 L33 667 L33 614 L77 614 C149 612 158 604 156 541 L156 126 C158 63 149 55 77 53 L33 53 L33 0 L359 0 L359 53 L302 53 C230 55 221 63 223 126 L223 577 L678 -3 L765 -3 Z M421 706 L564 770 C587 781 597 793 597 810 C597 830 581 846 562 846 C550 846 535 839 522 827 L386 706 L421 706 Z " />
<glyph glyph-name="nacute" unicode="&#x144;" horiz-adv-x="716" d="M33 0 L334 0 L334 48 L299 48 C238 50 227 58 228 105 L228 268 C228 319 241 352 274 384 C305 413 346 429 394 429 C476 429 506 390 506 281 L506 105 C507 58 496 50 433 48 L396 48 L396 0 L691 0 L691 48 L665 48 C602 49 590 58 591 105 L591 268 C591 357 585 389 560 423 C531 461 481 482 418 482 C378 482 339 473 306 458 C277 444 259 428 228 388 L228 469 L33 469 L33 421 L64 421 C124 419 135 410 134 364 L134 105 C135 58 124 49 64 48 L33 48 L33 0 Z M294 540 L330 540 L475 629 C505 647 516 660 516 677 C516 698 499 715 479 715 C464 715 444 704 428 686 L294 540 Z " />
<glyph glyph-name="Ncommaaccent" unicode="&#x145;" horiz-adv-x="907" d="M765 -3 L765 541 C763 604 772 612 845 614 L882 614 L882 667 L560 667 L560 614 L619 614 C691 612 700 604 698 541 L698 131 L276 667 L33 667 L33 614 L77 614 C149 612 158 604 156 541 L156 126 C158 63 149 55 77 53 L33 53 L33 0 L359 0 L359 53 L302 53 C230 55 221 63 223 126 L223 577 L678 -3 L765 -3 Z M410 -266 C473 -252 516 -198 516 -135 C516 -88 488 -56 446 -56 C416 -56 394 -77 394 -108 C394 -132 414 -152 439 -152 C449 -152 457 -149 472 -141 C474 -186 450 -223 410 -234 L410 -266 Z " />
<glyph glyph-name="ncommaaccent" unicode="&#x146;" horiz-adv-x="716" d="M33 0 L334 0 L334 48 L299 48 C238 50 227 58 228 105 L228 268 C228 319 241 352 274 384 C305 413 346 429 394 429 C476 429 506 390 506 281 L506 105 C507 58 496 50 433 48 L396 48 L396 0 L691 0 L691 48 L665 48 C602 49 590 58 591 105 L591 268 C591 357 585 389 560 423 C531 461 481 482 418 482 C378 482 339 473 306 458 C277 444 259 428 228 388 L228 469 L33 469 L33 421 L64 421 C124 419 135 410 134 364 L134 105 C135 58 124 49 64 48 L33 48 L33 0 Z M315 -266 C377 -252 420 -198 420 -135 C420 -88 392 -56 350 -56 C320 -56 298 -77 298 -108 C298 -132 318 -152 343 -152 C353 -152 361 -149 376 -141 C379 -186 354 -223 315 -234 L315 -266 Z " />
<glyph glyph-name="Ncaron" unicode="&#x147;" horiz-adv-x="907" d="M765 -3 L765 541 C763 604 772 612 845 614 L882 614 L882 667 L560 667 L560 614 L619 614 C691 612 700 604 698 541 L698 131 L276 667 L33 667 L33 614 L77 614 C149 612 158 604 156 541 L156 126 C158 63 149 55 77 53 L33 53 L33 0 L359 0 L359 53 L302 53 C230 55 221 63 223 126 L223 577 L678 -3 L765 -3 Z M311 838 L416 706 L491 706 L596 838 L564 838 L453 767 L343 838 L311 838 Z " />
<glyph glyph-name="ncaron" unicode="&#x148;" horiz-adv-x="716" d="M33 0 L334 0 L334 48 L299 48 C238 50 227 58 228 105 L228 268 C228 319 241 352 274 384 C305 413 346 429 394 429 C476 429 506 390 506 281 L506 105 C507 58 496 50 433 48 L396 48 L396 0 L691 0 L691 48 L665 48 C602 49 590 58 591 105 L591 268 C591 357 585 389 560 423 C531 461 481 482 418 482 C378 482 339 473 306 458 C277 444 259 428 228 388 L228 469 L33 469 L33 421 L64 421 C124 419 135 410 134 364 L134 105 C135 58 124 49 64 48 L33 48 L33 0 Z M215 709 L326 540 L390 540 L501 709 L465 709 L358 614 L251 709 L215 709 Z " />
<glyph glyph-name="Omacron" unicode="&#x14c;" horiz-adv-x="874" d="M437 687 C213 687 44 537 44 339 C44 130 208 -19 438 -19 C664 -19 830 131 830 334 C830 538 664 687 437 687 L437 687 Z M437 632 C523 632 594 603 649 546 C697 494 722 423 722 334 C722 154 610 36 438 36 C351 36 278 66 225 122 C175 177 152 245 152 338 C152 515 266 632 437 632 L437 632 Z M311 738 L563 738 L563 803 L311 803 L311 738 Z " />
<glyph glyph-name="omacron" unicode="&#x14d;" horiz-adv-x="634" d="M317 486 C242 486 173 463 118 419 C63 375 34 312 34 238 C34 156 60 97 118 50 C172 6 241 -17 318 -17 C393 -17 462 6 516 50 C572 96 600 156 600 234 C600 313 572 374 516 419 C461 463 393 486 317 486 L317 486 Z M317 435 C436 435 503 363 503 234 C503 106 436 34 317 34 C197 34 131 106 131 237 C131 363 199 435 317 435 L317 435 Z M186 585 L448 585 L448 653 L186 653 L186 585 Z " />
<glyph glyph-name="Ohungarumlaut" unicode="&#x150;" horiz-adv-x="874" d="M437 687 C213 687 44 537 44 339 C44 130 208 -19 438 -19 C664 -19 830 131 830 334 C830 538 664 687 437 687 L437 687 Z M437 632 C523 632 594 603 649 546 C697 494 722 423 722 334 C722 154 610 36 438 36 C351 36 278 66 225 122 C175 177 152 245 152 338 C152 515 266 632 437 632 L437 632 Z M368 706 L460 775 C473 785 481 798 481 811 C481 830 467 844 448 844 C433 844 420 834 408 815 L340 706 L368 706 Z M503 706 L615 774 C630 783 640 797 640 809 C640 828 625 844 606 844 C593 844 579 835 566 819 L476 706 L503 706 Z " />
<glyph glyph-name="ohungarumlaut" unicode="&#x151;" horiz-adv-x="634" d="M317 486 C242 486 173 463 118 419 C63 375 34 312 34 238 C34 156 60 97 118 50 C172 6 241 -17 318 -17 C393 -17 462 6 516 50 C572 96 600 156 600 234 C600 313 572 374 516 419 C461 463 393 486 317 486 L317 486 Z M317 435 C436 435 503 363 503 234 C503 106 436 34 317 34 C197 34 131 106 131 237 C131 363 199 435 317 435 L317 435 Z M220 540 L250 540 L340 634 C358 654 366 668 366 680 C366 698 349 715 331 715 C313 715 298 702 284 673 L220 540 Z M352 540 L381 540 L488 631 C510 651 519 664 519 680 C519 699 504 714 484 714 C467 714 451 702 436 678 L352 540 Z " />
<glyph glyph-name="OE" unicode="&#x152;" horiz-adv-x="1333" d="M1243 667 L754 667 L474 686 C380 686 300 670 237 638 C113 575 43 466 43 333 C43 209 102 108 212 43 C283 1 364 -19 467 -19 C504 -19 541 -17 576 -14 L672 -4 C702 -1 730 0 758 0 L1243 0 L1243 271 L1186 271 C1179 88 1150 57 988 53 L770 53 L770 323 L846 323 C951 320 962 306 968 178 L1025 178 L1025 505 L968 505 C967 392 950 374 848 376 L770 376 L770 614 L974 614 C1144 613 1182 578 1186 416 L1243 416 L1243 667 Z M673 126 C673 78 670 70 651 60 C620 45 550 33 491 33 C408 33 329 52 276 85 C197 134 151 225 151 333 C151 432 190 519 257 569 C312 611 397 634 492 634 C545 634 612 623 644 610 C670 599 673 592 673 541 L673 126 Z " />
<glyph glyph-name="oe" unicode="&#x153;" horiz-adv-x="1027" d="M911 154 C895 110 882 91 859 74 C831 51 790 39 746 39 C692 39 646 59 619 95 C596 126 588 157 586 226 L991 226 C987 322 973 366 934 411 C890 462 828 486 743 486 C656 486 608 466 534 401 C464 462 403 486 315 486 C240 486 171 463 117 419 C61 373 33 313 33 234 C33 156 61 96 117 50 C171 6 240 -17 316 -17 C406 -17 466 7 536 73 C562 45 579 30 597 19 C635 -4 689 -17 746 -17 C816 -17 870 1 912 38 C945 66 959 93 976 154 L911 154 Z M312 435 C428 435 493 363 493 234 C493 106 427 34 312 34 C194 34 130 106 130 237 C130 363 196 435 312 435 L312 435 Z M590 279 C596 337 605 363 627 390 C653 421 691 437 742 437 C789 437 827 422 850 394 C872 367 880 340 884 279 L590 279 Z " />
<glyph glyph-name="Racute" unicode="&#x154;" horiz-adv-x="847" d="M393 53 L337 53 C264 55 256 63 257 126 L257 320 L402 320 C519 319 571 275 575 174 L579 92 C582 19 621 -20 690 -20 C748 -20 781 -1 800 42 C812 72 816 98 817 163 L765 163 C761 64 754 45 722 45 C693 45 685 66 685 140 C686 271 653 315 535 342 C606 353 636 362 669 383 C710 410 732 450 732 501 C732 555 705 602 662 626 C609 654 533 667 412 667 L33 667 L33 614 L80 614 C153 612 162 604 160 541 L160 126 C162 63 153 55 80 53 L33 53 L33 0 L393 0 L393 53 Z M257 373 L257 614 L412 614 C460 614 525 608 547 601 C601 585 631 548 631 499 C631 414 556 373 402 373 L257 373 Z M263 706 L406 770 C429 780 439 793 439 810 C439 830 423 846 404 846 C393 846 377 839 364 827 L229 706 L263 706 Z " />
<glyph glyph-name="racute" unicode="&#x155;" horiz-adv-x="524" d="M352 48 L299 48 C238 50 227 58 228 105 L228 217 C228 273 237 314 259 352 C291 407 332 436 380 436 C408 436 419 431 443 408 C403 408 382 391 382 359 C382 330 409 308 443 308 C481 308 511 338 511 375 C511 438 459 483 386 483 C317 483 269 449 228 372 L228 469 L33 469 L33 421 L64 421 C124 419 135 410 134 364 L134 105 C135 58 124 49 64 48 L33 48 L33 0 L352 0 L352 48 Z M198 540 L234 540 L380 629 C411 648 421 660 421 677 C421 698 404 715 384 715 C369 715 349 704 332 686 L198 540 Z " />
<glyph glyph-name="Rcommaaccent" unicode="&#x156;" horiz-adv-x="847" d="M393 53 L337 53 C264 55 256 63 257 126 L257 320 L402 320 C519 319 571 275 575 174 L579 92 C582 19 621 -20 690 -20 C748 -20 781 -1 800 42 C812 72 816 98 817 163 L765 163 C761 64 754 45 722 45 C693 45 685 66 685 140 C686 271 653 315 535 342 C606 353 636 362 669 383 C710 410 732 450 732 501 C732 555 705 602 662 626 C609 654 533 667 412 667 L33 667 L33 614 L80 614 C153 612 162 604 160 541 L160 126 C162 63 153 55 80 53 L33 53 L33 0 L393 0 L393 53 Z M257 373 L257 614 L412 614 C460 614 525 608 547 601 C601 585 631 548 631 499 C631 414 556 373 402 373 L257 373 Z M380 -266 C442 -252 486 -198 486 -135 C486 -88 458 -56 416 -56 C386 -56 364 -77 364 -108 C364 -132 384 -152 409 -152 C419 -152 427 -149 442 -141 C444 -186 420 -223 380 -234 L380 -266 Z " />
<glyph glyph-name="rcommaaccent" unicode="&#x157;" horiz-adv-x="524" d="M352 48 L299 48 C238 50 227 58 228 105 L228 217 C228 273 237 314 259 352 C291 407 332 436 380 436 C408 436 419 431 443 408 C403 408 382 391 382 359 C382 330 409 308 443 308 C481 308 511 338 511 375 C511 438 459 483 386 483 C317 483 269 449 228 372 L228 469 L33 469 L33 421 L64 421 C124 419 135 410 134 364 L134 105 C135 58 124 49 64 48 L33 48 L33 0 L352 0 L352 48 Z M141 -266 C204 -252 247 -198 247 -135 C247 -88 219 -56 177 -56 C147 -56 125 -77 125 -108 C125 -132 145 -152 170 -152 C180 -152 188 -149 203 -141 C206 -186 181 -223 141 -234 L141 -266 Z " />
<glyph glyph-name="Rcaron" unicode="&#x158;" horiz-adv-x="847" d="M393 53 L337 53 C264 55 256 63 257 126 L257 320 L402 320 C519 319 571 275 575 174 L579 92 C582 19 621 -20 690 -20 C748 -20 781 -1 800 42 C812 72 816 98 817 163 L765 163 C761 64 754 45 722 45 C693 45 685 66 685 140 C686 271 653 315 535 342 C606 353 636 362 669 383 C710 410 732 450 732 501 C732 555 705 602 662 626 C609 654 533 667 412 667 L33 667 L33 614 L80 614 C153 612 162 604 160 541 L160 126 C162 63 153 55 80 53 L33 53 L33 0 L393 0 L393 53 Z M257 373 L257 614 L412 614 C460 614 525 608 547 601 C601 585 631 548 631 499 C631 414 556 373 402 373 L257 373 Z M133 838 L238 706 L312 706 L418 838 L386 838 L275 767 L165 838 L133 838 Z " />
<glyph glyph-name="rcaron" unicode="&#x159;" horiz-adv-x="524" d="M352 48 L299 48 C238 50 227 58 228 105 L228 217 C228 273 237 314 259 352 C291 407 332 436 380 436 C408 436 419 431 443 408 C403 408 382 391 382 359 C382 330 409 308 443 308 C481 308 511 338 511 375 C511 438 459 483 386 483 C317 483 269 449 228 372 L228 469 L33 469 L33 421 L64 421 C124 419 135 410 134 364 L134 105 C135 58 124 49 64 48 L33 48 L33 0 L352 0 L352 48 Z M120 709 L230 540 L295 540 L405 709 L370 709 L262 614 L155 709 L120 709 Z " />
<glyph glyph-name="Sacute" unicode="&#x15a;" horiz-adv-x="688" d="M49 0 L105 0 L141 74 C237 -1 287 -20 385 -20 C545 -20 656 66 656 189 C656 245 633 294 593 323 C552 353 495 372 400 389 L294 408 C180 429 136 460 136 520 C136 585 204 629 307 629 C382 629 448 606 492 566 C527 534 543 498 558 421 L617 421 L617 673 L566 673 L535 612 C441 673 398 687 306 687 C151 687 51 612 51 496 C51 439 75 393 120 364 C159 338 186 330 297 307 L388 289 C493 268 525 254 550 220 C560 207 566 187 566 168 C566 93 494 43 386 43 C309 43 239 69 187 118 C145 158 127 193 109 277 L49 277 L49 0 Z M311 706 L454 770 C477 780 487 793 487 810 C487 830 471 846 452 846 C441 846 425 839 412 827 L276 706 L311 706 Z " />
<glyph glyph-name="sacute" unicode="&#x15b;" horiz-adv-x="546" d="M44 -4 L100 -4 L123 46 C186 -1 229 -16 301 -16 C428 -16 508 42 508 134 C508 206 447 256 336 275 L234 292 C166 304 134 327 134 365 C134 406 177 433 242 433 C295 433 339 418 372 390 C400 367 412 345 426 293 L481 293 L481 475 L432 475 L411 433 C348 471 303 485 238 485 C128 485 51 428 51 346 C51 275 115 221 222 202 L321 185 C396 172 427 151 427 114 C427 68 378 38 303 38 C252 38 203 55 164 85 C131 112 117 135 101 192 L44 192 L44 -4 Z M209 540 L245 540 L391 629 C422 648 432 660 432 677 C432 698 415 715 395 715 C380 715 360 704 343 686 L209 540 Z " />
<glyph glyph-name="Scedilla" unicode="&#x15e;" horiz-adv-x="688" d="M349 -18 C365 -19 376 -20 387 -20 C464 -20 534 2 587 44 C633 80 656 129 656 189 C656 245 633 294 593 323 C552 353 496 372 400 389 L294 408 C181 429 136 460 136 519 C136 586 203 629 307 629 C382 629 448 606 492 566 C526 534 543 498 558 421 L617 421 L617 673 L566 673 L534 612 C441 673 397 687 306 687 C151 687 51 612 51 496 C51 439 75 393 119 364 C159 338 185 330 297 307 L388 289 C494 267 525 254 550 220 C560 207 566 187 566 168 C566 93 494 43 386 43 C309 43 239 69 187 118 C145 158 127 193 109 277 L49 277 L49 0 L105 0 L141 74 C222 11 253 -4 318 -14 L318 -101 C336 -96 346 -95 359 -95 C391 -95 412 -111 412 -135 C412 -160 390 -174 352 -174 C314 -174 267 -159 225 -135 L205 -178 C264 -204 315 -217 361 -217 C436 -217 483 -185 483 -133 C483 -89 443 -56 389 -56 C379 -56 364 -57 349 -58 L349 -18 Z " />
<glyph glyph-name="scedilla" unicode="&#x15f;" horiz-adv-x="546" d="M280 -16 L300 -16 C428 -16 508 42 508 134 C508 206 447 256 336 275 L233 292 C166 304 134 327 134 364 C134 406 177 433 242 433 C294 433 339 418 372 390 C399 367 412 345 426 293 L481 293 L481 475 L432 475 L411 433 C348 471 302 485 238 485 C127 485 51 428 51 346 C51 275 115 221 222 202 L320 185 C395 172 426 151 426 114 C426 68 377 38 302 38 C251 38 202 55 164 85 C130 112 117 135 101 192 L44 192 L44 -4 L100 -4 L123 46 C172 9 199 -3 249 -12 L249 -95 C268 -90 277 -89 290 -89 C326 -89 346 -105 346 -133 C346 -160 325 -174 283 -174 C245 -174 199 -160 156 -135 L136 -178 C196 -205 246 -217 293 -217 C370 -217 415 -185 415 -130 C415 -83 376 -50 320 -50 C308 -50 295 -51 280 -52 L280 -16 Z " />
<glyph glyph-name="Scaron" unicode="&#x160;" horiz-adv-x="688" d="M49 0 L105 0 L141 74 C237 -1 287 -20 385 -20 C545 -20 656 66 656 189 C656 245 633 294 593 323 C552 353 495 372 400 389 L294 408 C180 429 136 460 136 520 C136 585 204 629 307 629 C382 629 448 606 492 566 C527 534 543 498 558 421 L617 421 L617 673 L566 673 L535 612 C441 673 398 687 306 687 C151 687 51 612 51 496 C51 439 75 393 120 364 C159 338 186 330 297 307 L388 289 C493 268 525 254 550 220 C560 207 566 187 566 168 C566 93 494 43 386 43 C309 43 239 69 187 118 C145 158 127 193 109 277 L49 277 L49 0 Z M201 838 L307 706 L381 706 L487 838 L455 838 L344 767 L233 838 L201 838 Z " />
<glyph glyph-name="scaron" unicode="&#x161;" horiz-adv-x="546" d="M44 -4 L100 -4 L123 46 C186 -1 229 -16 301 -16 C428 -16 508 42 508 134 C508 206 447 256 336 275 L234 292 C166 304 134 327 134 365 C134 406 177 433 242 433 C295 433 339 418 372 390 C400 367 412 345 426 293 L481 293 L481 475 L432 475 L411 433 C348 471 303 485 238 485 C128 485 51 428 51 346 C51 275 115 221 222 202 L321 185 C396 172 427 151 427 114 C427 68 378 38 303 38 C252 38 203 55 164 85 C131 112 117 135 101 192 L44 192 L44 -4 Z M131 709 L241 540 L306 540 L416 709 L381 709 L273 614 L166 709 L131 709 Z " />
<glyph glyph-name="Tcommaaccent" unicode="&#x162;" horiz-adv-x="732" d="M30 405 L86 405 C93 570 132 612 283 614 L318 614 L318 126 C320 63 311 55 238 53 L167 53 L167 0 L566 0 L566 53 L495 53 C422 55 413 63 415 126 L415 614 L450 614 C601 612 640 570 647 405 L703 405 L703 667 L30 667 L30 405 Z M323 -266 C385 -252 429 -198 429 -135 C429 -88 400 -56 359 -56 C328 -56 306 -77 306 -108 C306 -132 326 -152 351 -152 C361 -152 369 -149 385 -141 C387 -186 362 -223 323 -234 L323 -266 Z " />
<glyph glyph-name="tcommaaccent" unicode="&#x163;" horiz-adv-x="442" d="M108 420 L108 95 C108 26 158 -17 238 -17 C297 -17 344 8 364 50 C377 79 381 107 385 192 L334 192 C333 135 329 102 321 80 C312 56 287 41 256 41 C218 41 202 58 202 95 L202 420 L359 420 L359 469 L202 469 L202 655 L151 655 C138 528 101 476 16 469 L16 420 L108 420 Z M122 -266 C184 -252 227 -198 227 -135 C227 -88 199 -56 157 -56 C127 -56 105 -77 105 -108 C105 -132 125 -152 150 -152 C160 -152 168 -149 183 -141 C186 -186 161 -223 122 -234 L122 -266 Z " />
<glyph glyph-name="Tcaron" unicode="&#x164;" horiz-adv-x="732" d="M30 405 L86 405 C93 570 132 612 283 614 L318 614 L318 126 C320 63 311 55 238 53 L167 53 L167 0 L566 0 L566 53 L495 53 C422 55 413 63 415 126 L415 614 L450 614 C601 612 640 570 647 405 L703 405 L703 667 L30 667 L30 405 Z M223 838 L329 706 L403 706 L509 838 L477 838 L366 767 L255 838 L223 838 Z " />
<glyph glyph-name="tcaron" unicode="&#x165;" horiz-adv-x="442" d="M108 420 L108 95 C108 26 158 -17 238 -17 C297 -17 344 8 364 50 C377 79 381 107 385 192 L334 192 C333 135 329 102 321 80 C312 56 287 41 256 41 C218 41 202 58 202 95 L202 420 L359 420 L359 469 L202 469 L202 655 L151 655 C138 528 101 476 16 469 L16 420 L108 420 Z M335 532 C397 545 441 599 441 662 C441 709 413 741 371 741 C341 741 319 720 319 690 C319 665 339 646 364 646 C374 646 381 648 397 657 C399 612 375 574 335 564 L335 532 Z " />
<glyph glyph-name="Umacron" unicode="&#x16a;" horiz-adv-x="836" d="M33 614 L70 614 C144 612 153 604 151 541 L151 209 C151 125 177 67 233 30 C282 -3 345 -20 421 -20 C507 -20 576 1 624 43 C674 87 695 147 695 244 L695 541 C693 604 702 612 775 614 L809 614 L809 667 L494 667 L494 614 L549 614 C621 612 630 604 628 541 L628 244 C628 162 615 120 581 91 C548 63 495 47 432 47 C306 47 248 98 248 209 L248 541 C246 604 255 612 327 614 L383 614 L383 667 L33 667 L33 614 Z M292 738 L544 738 L544 803 L292 803 L292 738 Z " />
<glyph glyph-name="umacron" unicode="&#x16b;" horiz-adv-x="710" d="M27 421 L49 421 C104 419 113 411 113 364 L113 201 C113 112 120 79 146 46 C176 8 229 -13 295 -13 C337 -13 379 -4 413 11 C444 25 462 41 495 81 L495 0 L684 0 L684 48 L652 48 C590 50 579 58 580 105 L580 469 L393 469 L393 421 L431 421 C486 419 495 411 495 364 L495 201 C495 150 481 117 446 85 C413 55 370 40 319 40 C230 40 198 79 198 188 L198 469 L27 469 L27 421 Z M201 585 L463 585 L463 653 L201 653 L201 585 Z " />
<glyph glyph-name="Uring" unicode="&#x16e;" horiz-adv-x="836" d="M33 614 L70 614 C144 612 153 604 151 541 L151 209 C151 125 177 67 233 30 C282 -3 345 -20 421 -20 C507 -20 576 1 624 43 C674 87 695 147 695 244 L695 541 C693 604 702 612 775 614 L809 614 L809 667 L494 667 L494 614 L549 614 C621 612 630 604 628 541 L628 244 C628 162 615 120 581 91 C548 63 495 47 432 47 C306 47 248 98 248 209 L248 541 C246 604 255 612 327 614 L383 614 L383 667 L33 667 L33 614 Z M418 893 C366 893 322 851 322 800 C322 745 365 701 419 701 C471 701 514 745 514 798 C514 851 471 893 418 893 L418 893 Z M418 848 C446 848 469 825 469 797 C469 770 446 746 418 746 C389 746 367 769 367 799 C367 826 390 848 418 848 L418 848 Z " />
<glyph glyph-name="uring" unicode="&#x16f;" horiz-adv-x="710" d="M27 421 L49 421 C104 419 113 411 113 364 L113 201 C113 112 120 79 146 46 C176 8 229 -13 295 -13 C337 -13 379 -4 413 11 C444 25 462 41 495 81 L495 0 L684 0 L684 48 L652 48 C590 50 579 58 580 105 L580 469 L393 469 L393 421 L431 421 C486 419 495 411 495 364 L495 201 C495 150 481 117 446 85 C413 55 370 40 319 40 C230 40 198 79 198 188 L198 469 L27 469 L27 421 Z M327 759 C261 759 206 706 206 642 C206 572 259 519 328 519 C393 519 447 573 447 639 C447 705 393 759 327 759 L327 759 Z M326 708 C364 708 395 677 395 639 C395 601 364 570 327 570 C288 570 257 601 257 641 C257 677 289 708 326 708 L326 708 Z " />
<glyph glyph-name="Uhungarumlaut" unicode="&#x170;" horiz-adv-x="836" d="M33 614 L70 614 C144 612 153 604 151 541 L151 209 C151 125 177 67 233 30 C282 -3 345 -20 421 -20 C507 -20 576 1 624 43 C674 87 695 147 695 244 L695 541 C693 604 702 612 775 614 L809 614 L809 667 L494 667 L494 614 L549 614 C621 612 630 604 628 541 L628 244 C628 162 615 120 581 91 C548 63 495 47 432 47 C306 47 248 98 248 209 L248 541 C246 604 255 612 327 614 L383 614 L383 667 L33 667 L33 614 Z M348 706 L441 775 C453 785 461 798 461 811 C461 830 447 844 428 844 C414 844 401 835 389 815 L321 706 L348 706 Z M484 706 L596 774 C610 782 620 797 620 809 C620 828 605 844 587 844 C574 844 559 835 547 819 L457 706 L484 706 Z " />
<glyph glyph-name="uhungarumlaut" unicode="&#x171;" horiz-adv-x="710" d="M27 421 L49 421 C104 419 113 411 113 364 L113 201 C113 112 120 79 146 46 C176 8 229 -13 295 -13 C337 -13 379 -4 413 11 C444 25 462 41 495 81 L495 0 L684 0 L684 48 L652 48 C590 50 579 58 580 105 L580 469 L393 469 L393 421 L431 421 C486 419 495 411 495 364 L495 201 C495 150 481 117 446 85 C413 55 370 40 319 40 C230 40 198 79 198 188 L198 469 L27 469 L27 421 Z M258 540 L287 540 L377 634 C396 654 404 667 404 680 C404 699 387 715 369 715 C351 715 336 702 322 673 L258 540 Z M390 540 L419 540 L526 631 C549 651 557 664 557 680 C557 699 542 714 522 714 C505 714 489 702 474 678 L390 540 Z " />
<glyph glyph-name="Uogonek" unicode="&#x172;" horiz-adv-x="836" d="M809 614 L809 667 L494 667 L494 614 L549 614 C621 612 630 604 628 541 L628 244 C628 162 615 120 581 91 C548 63 495 47 432 47 C306 47 248 98 248 209 L248 541 C246 604 255 612 327 614 L383 614 L383 667 L33 667 L33 614 L70 614 C144 612 153 604 151 541 L151 209 C151 125 177 67 233 30 C282 -3 345 -20 419 -20 C441 -20 462 -18 488 -15 C428 -56 397 -101 397 -143 C397 -188 431 -217 483 -217 C533 -217 573 -191 600 -141 L584 -133 C563 -158 543 -168 515 -168 C483 -168 463 -145 463 -110 C463 -94 469 -77 480 -59 C499 -31 505 -26 546 -7 C657 48 694 110 695 244 L695 541 C693 604 702 612 775 614 L809 614 Z " />
<glyph glyph-name="uogonek" unicode="&#x173;" horiz-adv-x="710" d="M684 0 L684 48 L652 48 C590 50 579 58 580 105 L580 469 L393 469 L393 421 L431 421 C486 419 495 411 495 364 L495 201 C495 150 481 117 446 85 C413 55 370 40 318 40 C230 40 198 79 198 188 L198 469 L27 469 L27 421 L49 421 C104 419 113 411 113 364 L113 201 C113 112 120 79 146 46 C176 8 229 -13 295 -13 C337 -13 379 -4 413 11 C444 25 462 41 495 81 L495 0 L621 0 C548 -46 510 -96 510 -143 C510 -188 543 -217 594 -217 C643 -217 684 -190 711 -141 L695 -133 C674 -158 653 -168 625 -168 C594 -168 574 -146 574 -110 C574 -75 602 -35 650 0 L684 0 Z " />
<glyph glyph-name="Ydieresis" unicode="&#x178;" horiz-adv-x="699" d="M297 263 L297 126 C299 63 290 55 218 53 L147 53 L147 0 L545 0 L545 53 L476 53 C401 55 392 63 394 126 L394 263 L581 532 C627 597 651 614 696 614 L722 614 L722 667 L425 667 L425 614 L499 614 C522 614 537 607 537 597 C537 588 532 576 524 564 L361 331 L218 555 C207 572 202 585 202 593 C202 607 216 614 242 614 L309 614 L309 667 L-27 667 L-27 614 L4 614 C43 612 71 593 100 550 L297 263 Z M252 821 C225 821 201 798 201 771 C201 742 223 720 252 720 C281 720 303 742 303 770 C303 797 280 821 252 821 L252 821 Z M448 821 C421 821 397 798 397 771 C397 742 419 720 448 720 C477 720 499 742 499 770 C499 797 476 821 448 821 L448 821 Z " />
<glyph glyph-name="Zacute" unicode="&#x179;" horiz-adv-x="677" d="M27 0 L623 0 L623 287 L565 287 C554 88 530 59 366 53 L156 53 L624 611 L624 667 L48 667 L48 403 L105 403 C113 576 146 615 288 614 L498 614 L27 54 L27 0 Z M305 706 L448 770 C472 781 482 793 482 810 C482 830 466 846 447 846 C435 846 420 839 407 827 L271 706 L305 706 Z " />
<glyph glyph-name="zacute" unicode="&#x17a;" horiz-adv-x="546" d="M27 0 L504 0 L504 212 L451 212 C443 66 428 51 285 50 L144 50 L494 420 L494 469 L44 469 L44 272 L97 272 C107 405 125 423 247 420 L378 420 L27 50 L27 0 Z M209 540 L245 540 L390 629 C421 647 431 660 431 677 C431 698 414 715 394 715 C379 715 359 704 343 686 L209 540 Z " />
<glyph glyph-name="Zdotaccent" unicode="&#x17b;" horiz-adv-x="677" d="M27 0 L623 0 L623 287 L565 287 C554 88 530 59 366 53 L156 53 L624 611 L624 667 L48 667 L48 403 L105 403 C113 576 146 615 288 614 L498 614 L27 54 L27 0 Z M339 824 C310 824 285 799 285 771 C285 740 308 717 339 717 C368 717 392 741 392 770 C392 799 368 824 339 824 L339 824 Z " />
<glyph glyph-name="zdotaccent" unicode="&#x17c;" horiz-adv-x="546" d="M27 0 L504 0 L504 212 L451 212 C443 66 428 51 285 50 L144 50 L494 420 L494 469 L44 469 L44 272 L97 272 C107 405 125 423 247 420 L378 420 L27 50 L27 0 Z M273 677 C242 677 215 650 215 620 C215 587 240 562 273 562 C305 562 330 587 330 618 C330 650 303 677 273 677 L273 677 Z " />
<glyph glyph-name="Zcaron" unicode="&#x17d;" horiz-adv-x="677" d="M27 0 L623 0 L623 287 L565 287 C554 88 530 59 366 53 L156 53 L624 611 L624 667 L48 667 L48 403 L105 403 C113 576 146 615 288 614 L498 614 L27 54 L27 0 Z M196 838 L301 706 L375 706 L481 838 L449 838 L338 767 L228 838 L196 838 Z " />
<glyph glyph-name="zcaron" unicode="&#x17e;" horiz-adv-x="546" d="M27 0 L504 0 L504 212 L451 212 C443 66 428 51 285 50 L144 50 L494 420 L494 469 L44 469 L44 272 L97 272 C107 405 125 423 247 420 L378 420 L27 50 L27 0 Z M130 709 L240 540 L305 540 L416 709 L380 709 L273 614 L165 709 L130 709 Z " />
<glyph glyph-name="florin" unicode="&#x192;" horiz-adv-x="669" d="M300 420 L235 45 C226 -6 222 -23 216 -39 C200 -83 169 -104 120 -104 C92 -104 79 -99 53 -79 C87 -71 105 -53 105 -27 C105 -3 85 13 55 13 C14 13 -16 -17 -16 -59 C-16 -114 39 -149 125 -149 C189 -149 242 -129 277 -91 C299 -67 315 -31 322 13 L394 420 L517 420 L525 469 L403 469 L409 506 C418 556 425 580 438 600 C453 625 484 639 521 639 C549 639 562 634 588 614 C554 606 536 588 536 562 C536 538 556 521 586 521 C627 521 657 552 657 593 C657 648 602 684 516 684 C465 684 420 671 386 645 C348 617 328 579 316 509 L309 469 L208 469 L199 420 L300 420 Z " />
<glyph glyph-name="uni01D3" unicode="&#x1d3;" horiz-adv-x="836" d="M33 614 L70 614 C144 612 153 604 151 541 L151 209 C151 125 177 67 233 30 C282 -3 345 -20 421 -20 C507 -20 576 1 624 43 C674 87 695 147 695 244 L695 541 C693 604 702 612 775 614 L809 614 L809 667 L494 667 L494 614 L549 614 C621 612 630 604 628 541 L628 244 C628 162 615 120 581 91 C548 63 495 47 432 47 C306 47 248 98 248 209 L248 541 C246 604 255 612 327 614 L383 614 L383 667 L33 667 L33 614 Z M275 838 L381 706 L455 706 L561 838 L529 838 L418 767 L307 838 L275 838 Z " />
<glyph glyph-name="Scommaaccent" unicode="&#x218;" horiz-adv-x="688" d="M49 0 L105 0 L141 74 C237 -1 287 -20 385 -20 C545 -20 656 66 656 189 C656 245 633 294 593 323 C552 353 495 372 400 389 L294 408 C180 429 136 460 136 520 C136 585 204 629 307 629 C382 629 448 606 492 566 C527 534 543 498 558 421 L617 421 L617 673 L566 673 L535 612 C441 673 398 687 306 687 C151 687 51 612 51 496 C51 439 75 393 120 364 C159 338 186 330 297 307 L388 289 C493 268 525 254 550 220 C560 207 566 187 566 168 C566 93 494 43 386 43 C309 43 239 69 187 118 C145 158 127 193 109 277 L49 277 L49 0 Z M313 -266 C375 -252 419 -198 419 -135 C419 -88 391 -56 349 -56 C319 -56 297 -77 297 -108 C297 -132 317 -152 342 -152 C351 -152 359 -149 375 -141 C377 -186 352 -223 313 -234 L313 -266 Z " />
<glyph glyph-name="scommaaccent" unicode="&#x219;" horiz-adv-x="546" d="M44 -4 L100 -4 L123 46 C186 -1 229 -16 301 -16 C428 -16 508 42 508 134 C508 206 447 256 336 275 L234 292 C166 304 134 327 134 365 C134 406 177 433 242 433 C295 433 339 418 372 390 C400 367 412 345 426 293 L481 293 L481 475 L432 475 L411 433 C348 471 303 485 238 485 C128 485 51 428 51 346 C51 275 115 221 222 202 L321 185 C396 172 427 151 427 114 C427 68 378 38 303 38 C252 38 203 55 164 85 C131 112 117 135 101 192 L44 192 L44 -4 Z M230 -266 C293 -252 336 -198 336 -135 C336 -88 308 -56 266 -56 C236 -56 214 -77 214 -108 C214 -132 234 -152 259 -152 C269 -152 276 -149 292 -141 C294 -186 269 -223 230 -234 L230 -266 Z " />
<glyph glyph-name="uni021A" unicode="&#x21a;" horiz-adv-x="732" d="M30 405 L86 405 C93 570 132 612 283 614 L318 614 L318 126 C320 63 311 55 238 53 L167 53 L167 0 L566 0 L566 53 L495 53 C422 55 413 63 415 126 L415 614 L450 614 C601 612 640 570 647 405 L703 405 L703 667 L30 667 L30 405 Z M323 -266 C385 -252 429 -198 429 -135 C429 -88 400 -56 359 -56 C328 -56 306 -77 306 -108 C306 -132 326 -152 351 -152 C361 -152 369 -149 385 -141 C387 -186 362 -223 323 -234 L323 -266 Z " />
<glyph glyph-name="uni021B" unicode="&#x21b;" horiz-adv-x="442" d="M108 420 L108 95 C108 26 158 -17 238 -17 C297 -17 344 8 364 50 C377 79 381 107 385 192 L334 192 C333 135 329 102 321 80 C312 56 287 41 256 41 C218 41 202 58 202 95 L202 420 L359 420 L359 469 L202 469 L202 655 L151 655 C138 528 101 476 16 469 L16 420 L108 420 Z M122 -266 C184 -252 227 -198 227 -135 C227 -88 199 -56 157 -56 C127 -56 105 -77 105 -108 C105 -132 125 -152 150 -152 C160 -152 168 -149 183 -141 C186 -186 161 -223 122 -234 L122 -266 Z " />
<glyph glyph-name="afii57929" unicode="&#x2bc;" horiz-adv-x="251" d="M38 445 C95 455 122 466 149 493 C176 520 192 558 192 597 C192 651 158 687 106 687 C69 687 44 664 44 630 C44 601 66 580 98 580 C113 580 122 583 140 594 C144 531 107 488 38 480 L38 445 Z " />
<glyph glyph-name="circumflex" unicode="&#x2c6;" horiz-adv-x="521" d="M118 540 L153 540 L261 635 L368 540 L404 540 L293 709 L228 709 L118 540 Z " />
<glyph glyph-name="caron" unicode="&#x2c7;" horiz-adv-x="521" d="M118 709 L228 540 L293 540 L404 709 L368 709 L261 614 L153 709 L118 709 Z " />
<glyph glyph-name="uni02C9" unicode="&#x2c9;" horiz-adv-x="524" d="M131 585 L393 585 L393 653 L131 653 L131 585 Z " />
<glyph glyph-name="breve" unicode="&#x2d8;" horiz-adv-x="521" d="M115 692 C125 641 135 619 156 597 C182 571 218 557 260 557 C303 557 340 571 365 597 C386 618 396 641 406 692 L374 692 C359 644 331 628 260 628 C191 628 163 643 146 692 L115 692 Z " />
<glyph glyph-name="dotaccent" unicode="&#x2d9;" horiz-adv-x="539" d="M270 677 C239 677 212 650 212 620 C212 587 237 562 270 562 C302 562 327 587 327 618 C327 650 300 677 270 677 L270 677 Z " />
<glyph glyph-name="ring" unicode="&#x2da;" horiz-adv-x="526" d="M234 759 C169 759 114 706 114 642 C114 572 167 519 235 519 C301 519 354 573 354 639 C354 705 300 759 234 759 L234 759 Z M234 708 C271 708 302 677 302 639 C302 601 271 570 234 570 C196 570 165 601 165 641 C165 677 197 708 234 708 L234 708 Z " />
<glyph glyph-name="ogonek" unicode="&#x2db;" horiz-adv-x="550" d="M312 17 C219 -36 173 -89 173 -142 C173 -188 206 -217 257 -217 C306 -217 347 -190 374 -141 L358 -133 C337 -158 316 -168 289 -168 C257 -168 237 -146 237 -111 C237 -69 267 -30 337 17 L312 17 Z " />
<glyph glyph-name="tilde" unicode="&#x2dc;" horiz-adv-x="523" d="M370 694 C361 662 350 652 325 652 C318 652 310 653 303 655 L251 668 C239 671 229 672 217 672 C195 672 177 663 161 646 C143 627 134 606 124 560 L152 560 C162 591 175 604 196 604 C203 604 215 602 227 599 L279 586 C288 584 297 583 304 583 C353 583 380 615 398 694 L370 694 Z " />
<glyph glyph-name="hungarumlaut" unicode="&#x2dd;" horiz-adv-x="534" d="M171 540 L200 540 L290 634 C310 655 317 667 317 680 C317 699 300 715 281 715 C263 715 248 701 235 673 L171 540 Z M303 540 L332 540 L439 631 C462 651 470 664 470 680 C470 699 455 714 435 714 C418 714 401 702 387 678 L303 540 Z " />
<glyph glyph-name="uni2011" unicode="&#x2011;" horiz-adv-x="284" d="M0 201 L284 201 L284 275 L0 275 L0 201 Z " />
<glyph glyph-name="figuredash" unicode="&#x2012;" horiz-adv-x="603" d="M37 209 L565 209 L565 266 L37 266 L37 209 Z " />
<glyph glyph-name="endash" unicode="&#x2013;" horiz-adv-x="603" d="M37 209 L565 209 L565 266 L37 266 L37 209 Z " />
<glyph glyph-name="emdash" unicode="&#x2014;" horiz-adv-x="764" d="M0 209 L764 209 L764 266 L0 266 L0 209 Z " />
<glyph glyph-name="afii00208" unicode="&#x2015;" horiz-adv-x="764" d="M0 209 L764 209 L764 266 L0 266 L0 209 Z " />
<glyph glyph-name="quoteleft" unicode="&#x2018;" horiz-adv-x="251" d="M214 687 C160 684 134 673 103 643 C76 616 60 579 60 540 C60 486 95 450 146 450 C184 450 209 473 209 506 C209 536 187 556 154 556 C140 556 130 553 112 542 L112 558 C112 581 119 599 134 617 C152 640 172 650 214 657 L214 687 Z " />
<glyph glyph-name="quoteright" unicode="&#x2019;" horiz-adv-x="251" d="M38 445 C95 455 122 466 149 493 C176 520 192 558 192 597 C192 651 158 687 106 687 C69 687 44 664 44 630 C44 601 66 580 98 580 C113 580 122 583 140 594 C144 531 107 488 38 480 L38 445 Z " />
<glyph glyph-name="quotesinglbase" unicode="&#x201a;" horiz-adv-x="251" d="M38 -146 C95 -136 122 -125 149 -98 C176 -71 192 -33 192 6 C192 59 158 95 106 95 C69 95 44 73 44 39 C44 10 66 -11 98 -11 C113 -11 122 -8 140 3 C144 -60 107 -103 38 -111 L38 -146 Z " />
<glyph glyph-name="quotedblleft" unicode="&#x201c;" horiz-adv-x="481" d="M442 687 C384 677 358 665 331 638 C304 611 288 573 288 535 C288 481 323 445 373 445 C411 445 436 468 436 501 C436 531 414 551 382 551 C367 551 358 548 340 537 C336 601 373 643 442 652 L442 687 Z M214 687 C157 677 130 665 103 638 C76 612 60 573 60 535 C60 481 95 445 146 445 C183 445 208 468 208 501 C208 531 186 551 154 551 C139 551 130 548 112 537 C108 601 145 643 214 652 L214 687 Z " />
<glyph glyph-name="quotedblright" unicode="&#x201d;" horiz-adv-x="481" d="M38 445 C95 455 122 466 149 493 C176 520 192 558 192 597 C192 651 158 687 106 687 C69 687 44 664 44 630 C44 601 66 580 98 580 C113 580 122 583 140 594 C144 531 107 488 38 480 L38 445 Z M266 445 C323 455 350 466 377 493 C404 520 420 558 420 597 C420 651 386 687 334 687 C297 687 272 664 272 630 C272 601 294 580 326 580 C341 580 350 583 368 594 C372 531 335 489 266 480 L266 445 Z " />
<glyph glyph-name="quotedblbase" unicode="&#x201e;" horiz-adv-x="481" d="M38 -146 C95 -136 122 -125 149 -98 C176 -71 192 -33 192 6 C192 59 158 95 106 95 C69 95 44 72 44 39 C44 9 66 -11 98 -11 C113 -11 122 -8 140 3 C144 -60 107 -103 38 -111 L38 -146 Z M266 -146 C324 -136 350 -125 377 -98 C405 -71 420 -33 420 6 C420 59 386 95 334 95 C297 95 272 72 272 39 C272 9 294 -11 326 -11 C341 -11 350 -8 368 3 C372 -61 335 -103 266 -111 L266 -146 Z " />
<glyph glyph-name="dagger" unicode="&#x2020;" horiz-adv-x="650" d="M299 366 C298 182 291 23 278 -60 C271 -112 269 -134 269 -145 C269 -189 288 -214 323 -214 C356 -214 376 -189 376 -146 C376 -134 374 -114 367 -60 C354 38 348 155 347 366 C389 365 408 363 438 358 C513 344 513 344 535 344 C567 344 586 359 586 384 C586 409 567 424 535 424 C522 424 503 422 488 419 C405 403 403 403 347 401 C350 468 353 504 358 532 C373 609 373 610 373 628 C373 664 354 687 323 687 C292 687 273 665 273 628 C273 617 275 599 278 583 C294 501 294 495 299 401 C257 402 239 404 208 410 C133 424 132 424 111 424 C79 424 60 409 60 384 C60 359 79 344 111 344 C124 344 143 346 158 349 C240 364 242 364 299 366 L299 366 Z " />
<glyph glyph-name="daggerdbl" unicode="&#x2021;" horiz-adv-x="650" d="M347 110 C347 159 356 193 379 236 C356 279 347 313 347 362 L347 390 C389 390 408 388 438 382 C513 368 513 368 535 368 C567 368 586 383 586 408 C586 433 567 448 535 448 C523 448 503 446 488 443 C406 428 404 428 347 426 C349 475 351 492 358 532 C373 609 373 610 373 628 C373 664 354 687 323 687 C292 687 273 665 273 628 C273 617 275 599 278 583 C296 490 296 487 299 426 C257 427 238 429 208 434 C133 448 132 448 111 448 C79 448 60 433 60 408 C60 383 79 368 111 368 C124 368 143 370 158 373 C240 389 241 389 299 390 C300 378 300 368 300 363 C300 313 291 279 267 236 C291 193 300 159 300 110 C300 104 300 94 299 82 C257 83 237 85 208 90 C133 104 132 104 111 104 C79 104 60 89 60 64 C60 39 79 24 111 24 C124 24 143 26 158 29 C241 45 242 45 299 46 C297 -3 295 -19 288 -60 C273 -136 273 -138 273 -155 C273 -192 292 -214 323 -214 C354 -214 373 -192 373 -155 C373 -144 371 -126 368 -110 C350 -19 350 -15 347 46 C389 46 407 44 438 38 C513 24 513 24 535 24 C567 24 586 39 586 64 C586 89 567 104 535 104 C522 104 503 102 488 99 C407 84 405 83 347 82 L347 110 Z " />
<glyph glyph-name="bullet" unicode="&#x2022;" horiz-adv-x="733" d="M368 480 C282 480 215 418 215 340 C215 263 283 200 366 200 C450 200 517 263 517 340 C517 417 450 480 368 480 L368 480 Z " />
<glyph glyph-name="ellipsis" unicode="&#x2026;" horiz-adv-x="922" d="M154 95 C120 95 92 70 92 40 C92 8 119 -17 154 -17 C188 -17 216 8 216 39 C216 70 188 95 154 95 L154 95 Z M461 95 C427 95 399 70 399 40 C399 8 426 -17 461 -17 C495 -17 523 8 523 39 C523 70 495 95 461 95 L461 95 Z M769 95 C735 95 707 70 707 40 C707 8 734 -17 769 -17 C802 -17 830 8 830 39 C830 70 802 95 769 95 L769 95 Z " />
<glyph glyph-name="perthousand" unicode="&#x2030;" horiz-adv-x="1529" d="M244 622 C124 622 38 542 38 433 C38 317 123 238 245 238 C364 238 449 318 449 430 C449 543 364 622 244 622 L244 622 Z M246 571 C317 571 363 515 363 430 C363 344 316 289 244 289 C172 289 124 345 124 430 C124 517 171 571 246 571 L246 571 Z M356 -17 L766 622 L698 622 L288 -17 L356 -17 Z M811 366 C691 366 605 287 605 177 C605 62 690 -17 812 -17 C931 -17 1016 63 1016 175 C1016 287 931 366 811 366 L811 366 Z M813 315 C884 315 930 259 930 175 C930 89 883 34 811 34 C739 34 691 90 691 174 C691 261 737 315 813 315 L813 315 Z M1291 366 C1171 366 1085 287 1085 177 C1085 62 1170 -17 1292 -17 C1411 -17 1496 63 1496 175 C1496 287 1411 366 1291 366 L1291 366 Z M1293 315 C1364 315 1410 259 1410 175 C1410 89 1363 34 1291 34 C1219 34 1171 90 1171 174 C1171 261 1217 315 1293 315 L1293 315 Z " />
<glyph glyph-name="guilsinglleft" unicode="&#x2039;" horiz-adv-x="317" d="M183 72 L239 72 L180 182 C162 214 159 223 159 237 C159 252 162 261 180 293 L239 403 L183 403 L129 333 C80 270 76 263 76 237 C76 212 80 205 129 142 L183 72 Z " />
<glyph glyph-name="guilsinglright" unicode="&#x203a;" horiz-adv-x="317" d="M132 72 L186 142 C236 206 239 212 239 237 C239 263 235 270 186 333 L132 403 L76 403 L135 293 C156 252 156 252 156 238 C156 224 152 213 135 182 L76 72 L132 72 Z " />
<glyph glyph-name="uni203E" unicode="&#x203e;" horiz-adv-x="501" d="M0 784 L0 728 L500 728 L500 784 L0 784 Z " />
<glyph glyph-name="fraction" unicode="&#x2044;" horiz-adv-x="180" d="M-180 -17 L-112 -17 L366 622 L298 622 L-180 -17 Z " />
<glyph glyph-name="Euro" unicode="&#x20ac;" horiz-adv-x="826" d="M227 399 C255 544 349 631 477 631 C551 631 619 602 666 550 C702 511 715 480 726 408 L782 408 L782 667 L731 667 L704 607 C608 670 559 687 475 687 C295 687 148 568 119 399 L59 399 L38 355 L113 355 L113 328 L113 311 L59 311 L38 267 L118 267 C126 219 143 175 169 135 C236 33 343 -20 478 -20 C588 -20 666 9 722 69 C761 113 777 153 789 243 L723 243 C710 173 697 142 667 110 C625 65 564 41 488 41 C348 41 253 123 227 267 L545 267 L565 311 L221 311 L221 333 L221 355 L586 355 L606 399 L227 399 Z " />
<glyph glyph-name="trademark" unicode="&#x2122;" horiz-adv-x="1062" d="M18 513 L60 513 C63 606 85 628 172 629 L188 629 L188 361 C188 328 186 325 145 324 L99 324 L99 286 L343 286 L343 324 L296 324 C255 325 252 328 253 361 L253 629 L269 629 C357 628 379 606 382 513 L424 513 L424 667 L18 667 L18 513 Z M460 629 L491 629 C532 628 535 626 534 593 L534 361 C535 328 532 325 491 324 L460 324 L460 286 L658 286 L658 324 L623 324 C583 325 580 328 581 361 L581 605 L728 286 L758 286 L906 598 L906 361 C907 328 904 325 863 324 L827 324 L827 286 L1046 286 L1046 324 L1013 324 C972 325 969 327 970 361 L970 593 C969 626 972 628 1013 629 L1046 629 L1046 667 L890 667 L754 381 L624 667 L460 667 L460 629 Z " />
<glyph glyph-name="uni2126" unicode="&#x2126;" horiz-adv-x="768" d="M326 0 L308 155 C230 199 180 288 180 382 C180 434 195 493 221 540 C257 605 317 642 385 642 C453 642 513 605 549 540 C575 493 590 434 590 382 C590 288 540 199 462 155 L444 0 L736 0 L736 153 L712 153 C704 108 684 90 643 90 L497 90 L500 128 C535 141 557 151 580 166 C657 215 702 296 702 382 C702 449 673 522 625 578 C564 648 480 686 385 686 C290 686 206 648 145 578 C97 522 68 449 68 382 C68 296 113 215 190 166 C213 151 235 141 270 128 L273 90 L127 90 C86 90 66 108 58 153 L34 153 L34 0 L326 0 Z " />
<glyph glyph-name="partialdiff" unicode="&#x2202;" horiz-adv-x="494" d="M107 674 C152 697 184 706 219 706 C321 706 379 611 379 447 C379 418 377 394 372 346 C308 396 272 412 221 412 C172 412 131 394 95 355 C51 309 26 246 26 184 C26 76 109 -10 213 -10 C282 -10 341 22 383 84 C429 152 462 286 462 403 C462 519 428 611 360 681 C312 730 259 753 195 753 C155 753 122 746 66 725 L107 674 Z M366 312 C350 201 340 158 314 107 C288 54 245 21 201 21 C146 21 113 73 113 159 C113 273 180 367 261 367 C299 367 324 354 366 312 L366 312 Z " />
<glyph glyph-name="Delta" unicode="&#x2206;" horiz-adv-x="612" d="M6 0 L608 0 L327 688 L6 0 Z M77 51 L290 509 L479 51 L77 51 Z " />
<glyph glyph-name="product" unicode="&#x220f;" horiz-adv-x="823" d="M25 -124 L315 -124 L315 -98 L312 -98 C242 -94 221 -67 224 18 L224 594 C224 656 228 677 242 690 C260 707 272 708 413 708 C556 708 568 707 586 690 C600 677 604 656 604 594 L604 18 C607 -67 586 -94 516 -98 L513 -98 L513 -124 L803 -124 L803 -98 L800 -98 C730 -94 709 -67 712 18 L712 609 C709 694 730 721 800 725 L803 725 L803 751 L25 751 L25 725 L28 725 C98 721 119 694 116 609 L116 18 C119 -67 98 -94 28 -98 L25 -98 L25 -124 Z " />
<glyph glyph-name="summation" unicode="&#x2211;" horiz-adv-x="713" d="M176 711 L444 711 C560 710 590 688 606 587 L632 587 L622 752 L23 752 L256 285 L14 -123 L641 -123 L695 87 L669 87 C639 7 605 -12 491 -11 L163 -11 L364 341 L176 711 Z " />
<glyph glyph-name="minus" unicode="&#x2212;" horiz-adv-x="557" d="M57 342 L57 276 L499 276 L499 342 L57 342 Z " />
<glyph glyph-name="uni2215" unicode="&#x2215;" horiz-adv-x="180" d="M-180 -17 L-112 -17 L366 622 L298 622 L-180 -17 Z " />
<glyph glyph-name="uni2219" unicode="&#x2219;" horiz-adv-x="333" d="M166 291 C132 291 104 266 104 236 C104 203 131 178 166 178 C200 178 228 203 228 235 C228 266 200 291 166 291 L166 291 Z " />
<glyph glyph-name="radical" unicode="&#x221a;" horiz-adv-x="549" d="M363 -35 L515 908 L480 913 L353 123 L156 520 L10 449 L26 414 L121 461 L363 -35 Z " />
<glyph glyph-name="infinity" unicode="&#x221e;" horiz-adv-x="713" d="M357 227 C415 156 485 115 548 115 C631 115 688 176 688 266 C688 354 629 414 543 414 C476 414 412 376 357 303 C300 375 234 414 171 414 C86 414 26 351 26 263 C26 176 84 115 167 115 C224 115 281 142 327 192 L357 227 Z M391 264 C434 325 493 362 546 362 C600 362 638 321 638 264 C638 205 603 167 549 167 C495 167 461 188 391 264 L391 264 Z M324 266 C275 203 216 167 163 167 C111 167 76 207 76 266 C76 323 113 362 167 362 C218 362 258 337 324 266 L324 266 Z " />
<glyph glyph-name="integral" unicode="&#x222b;" horiz-adv-x="274" d="M180 576 C180 653 179 691 176 746 C174 774 173 800 173 815 C173 855 184 878 202 878 C208 878 213 876 215 872 C232 845 239 839 256 839 C276 839 291 853 291 871 C291 898 267 916 231 916 C186 916 152 887 138 838 C123 784 113 682 113 577 L113 232 C113 160 114 124 117 63 C119 34 120 4 120 -12 C120 -47 108 -70 89 -70 C81 -70 74 -65 68 -52 C59 -35 51 -30 37 -30 C17 -30 2 -44 2 -63 C2 -89 26 -107 62 -107 C107 -107 141 -78 155 -29 C170 25 180 126 180 232 L180 576 Z " />
<glyph glyph-name="approxequal" unicode="&#x2248;" horiz-adv-x="549" d="M489 251 C444 199 423 187 384 187 C365 187 354 190 285 211 C212 234 188 239 160 239 C101 239 54 211 14 155 L57 121 C103 174 120 184 159 184 C180 184 180 184 271 157 C350 133 354 132 385 132 C449 132 496 160 527 217 L489 251 Z M489 408 C444 356 423 344 384 344 C365 344 354 347 285 368 C212 391 188 396 160 396 C101 396 54 369 14 312 L57 278 C103 331 120 341 159 341 C180 341 180 341 271 314 C350 290 354 289 385 289 C449 289 496 318 527 375 L489 408 Z " />
<glyph glyph-name="notequal" unicode="&#x2260;" horiz-adv-x="549" d="M187 142 L115 -1 L161 -25 L246 142 L540 142 L540 197 L273 197 L344 336 L540 336 L540 391 L371 391 L439 525 L392 549 L312 391 L15 391 L15 336 L285 336 L215 197 L15 197 L15 142 L187 142 Z " />
<glyph glyph-name="lessequal" unicode="&#x2264;" horiz-adv-x="549" d="M526 55 L29 55 L29 0 L526 0 L526 55 Z M526 639 L29 405 L29 350 L526 117 L526 179 L108 378 L526 577 L526 639 Z " />
<glyph glyph-name="greaterequal" unicode="&#x2265;" horiz-adv-x="549" d="M526 55 L29 55 L29 0 L526 0 L526 55 Z M29 639 L29 577 L447 378 L29 179 L29 117 L526 350 L526 405 L29 639 Z " />
<glyph glyph-name="lozenge" unicode="&#x25ca;" horiz-adv-x="494" d="M209 0 L269 -1 L466 374 L277 740 L214 740 L18 377 L209 0 Z M240 58 L81 376 L245 683 L402 373 L240 58 Z " />
<glyph glyph-name="fi" unicode="&#xfb01;" horiz-adv-x="716" d="M34 0 L334 0 L334 48 L298 48 C234 50 223 58 224 105 L224 419 L434 419 C496 417 508 409 507 362 L507 105 C508 58 497 50 434 48 L396 48 L396 0 L691 0 L691 48 L666 48 C603 50 591 58 592 105 L592 469 L224 469 L224 506 C224 567 238 599 273 621 C297 636 332 644 376 644 C435 644 471 634 507 608 C477 601 462 586 462 563 C462 537 486 516 517 516 C551 516 575 540 575 575 C575 640 492 685 371 685 C218 685 139 622 139 499 L139 469 L33 469 L33 419 L139 419 L139 105 C139 58 129 50 66 48 L34 48 L34 0 Z " />
<glyph glyph-name="fl" unicode="&#xfb02;" horiz-adv-x="721" d="M33 0 L333 0 L333 48 L297 48 C234 50 223 58 224 105 L224 419 L351 419 L351 469 L224 469 L224 506 C224 557 233 587 256 608 C281 632 320 644 374 644 C429 644 470 634 501 613 C479 601 470 588 470 569 C470 548 482 534 506 526 L506 105 C507 58 496 50 433 48 L395 48 L395 0 L694 0 L694 48 L665 48 C602 49 590 58 591 105 L591 669 L507 667 C457 681 425 686 376 686 C220 686 139 622 139 499 L139 469 L33 469 L33 419 L139 419 L139 105 C140 58 129 50 65 48 L33 48 L33 0 Z " />
</font>
</svg>
