<?xml version="1.0" encoding="UTF-8"?>
<svg xmlns="http://www.w3.org/2000/svg" xmlns:xlink="http://www.w3.org/1999/xlink" version="1.2" >
<font id="Futura Cond Extra Bold">
<font-face  font-family="Futura Cond" units-per-em="1000" ascent="729" descent="-271" font-style="normal" font-weight="800" font-stretch="normal" cap-height="667" x-height="467" underline-position="-49" underline-thickness="110" />
<missing-glyph  horiz-adv-x="186" d="" />
<glyph glyph-name="NULL" d="" />
<glyph glyph-name="CR" unicode="&#xd;" horiz-adv-x="250" d="" />
<glyph glyph-name="space" unicode="&#x20;" horiz-adv-x="186" d="" />
<glyph glyph-name="exclam" unicode="&#x21;" horiz-adv-x="322" d="M161 193 C105 193 60 147 60 92 C60 36 105 -10 161 -10 C216 -10 262 36 262 90 C262 148 217 193 161 193 L161 193 Z M251 239 L251 705 L75 705 L75 239 L251 239 Z " />
<glyph glyph-name="quotedbl" unicode="&#x22;" horiz-adv-x="405" d="M166 392 L190 667 L31 667 L55 392 L166 392 Z M350 392 L374 667 L215 667 L238 392 L350 392 Z " />
<glyph glyph-name="numbersign" unicode="&#x23;" horiz-adv-x="541" d="M459 299 L396 299 L405 381 L480 381 L480 479 L418 479 L441 667 L338 667 L315 479 L261 479 L285 667 L183 667 L160 479 L83 479 L83 381 L147 381 L137 299 L60 299 L60 201 L125 201 L101 0 L203 0 L227 201 L281 201 L256 0 L359 0 L383 201 L459 201 L459 299 Z M303 381 L293 299 L239 299 L249 381 L303 381 Z " />
<glyph glyph-name="dollar" unicode="&#x24;" horiz-adv-x="532" d="M312 7 C355 28 374 44 397 74 C425 112 441 162 441 214 C441 288 414 338 348 390 C273 448 270 451 270 472 C270 494 289 511 315 511 C352 511 385 490 424 440 L424 642 C382 663 361 669 317 675 L317 763 L236 763 L236 670 C192 651 170 637 146 609 C111 568 92 515 92 458 C92 387 121 336 191 279 C234 246 234 246 241 238 C254 226 260 212 260 197 C260 171 240 154 207 154 C165 154 123 181 92 228 L92 21 C142 -1 166 -6 230 -9 L230 -94 L312 -94 L312 7 Z " />
<glyph glyph-name="percent" unicode="&#x25;" horiz-adv-x="689" d="M173 677 C85 677 27 614 27 517 C27 416 84 351 175 351 C258 351 316 418 316 515 C316 612 259 677 173 677 L173 677 Z M172 579 C190 579 199 556 199 512 C199 471 189 448 172 448 C155 448 144 472 144 513 C144 556 154 579 172 579 L172 579 Z M520 316 C432 316 374 253 374 156 C374 55 431 -10 522 -10 C605 -10 663 57 663 154 C663 251 606 316 520 316 L520 316 Z M519 218 C537 218 546 195 546 151 C546 110 536 87 519 87 C502 87 491 111 491 152 C491 195 501 218 519 218 L519 218 Z M143 -23 L617 644 L545 694 L73 27 L143 -23 Z " />
<glyph glyph-name="ampersand" unicode="&#x26;" horiz-adv-x="630" d="M620 0 L528 124 C554 148 565 160 597 194 L505 316 C468 267 464 261 443 239 L378 325 C453 375 491 433 491 499 C491 598 400 679 288 679 C185 679 103 600 103 502 C103 460 122 412 155 371 C79 328 40 268 40 194 C40 80 135 -12 251 -12 C302 -12 351 4 399 36 L425 0 L620 0 Z M308 160 C292 148 279 143 262 143 C234 143 211 168 211 198 C211 220 219 234 242 248 L308 160 Z M298 440 C272 478 266 490 266 507 C266 526 283 542 303 542 C323 542 339 526 339 507 C339 486 330 471 298 440 L298 440 Z " />
<glyph glyph-name="quotesingle" unicode="&#x27;" horiz-adv-x="222" d="M166 392 L190 667 L31 667 L55 392 L166 392 Z " />
<glyph glyph-name="parenleft" unicode="&#x28;" horiz-adv-x="335" d="M172 732 C87 579 47 427 47 260 C47 93 88 -60 172 -212 L302 -142 C238 -16 202 129 202 260 C202 391 238 536 302 662 L172 732 Z " />
<glyph glyph-name="parenright" unicode="&#x29;" horiz-adv-x="335" d="M162 -212 C247 -59 288 93 288 260 C288 427 247 580 162 732 L33 662 C97 536 133 391 133 260 C133 129 97 -16 33 -142 L162 -212 Z " />
<glyph glyph-name="asterisk" unicode="&#x2a;" horiz-adv-x="533" d="M210 729 L217 619 L114 659 L79 552 L186 524 L116 439 L207 372 L266 465 L326 372 L417 439 L347 524 L454 552 L419 659 L316 619 L323 729 L210 729 Z " />
<glyph glyph-name="plus" unicode="&#x2b;" horiz-adv-x="533" d="M47 288 L214 288 L214 110 L321 110 L321 288 L487 288 L487 392 L321 392 L321 570 L214 570 L214 392 L47 392 L47 288 Z " />
<glyph glyph-name="comma" unicode="&#x2c;" horiz-adv-x="293" d="M262 159 L86 159 L4 -161 L146 -161 L262 159 Z " />
<glyph glyph-name="hyphen" unicode="&#x2d;" horiz-adv-x="217" d="M217 173 L217 306 L0 306 L0 173 L217 173 Z " />
<glyph glyph-name="period" unicode="&#x2e;" horiz-adv-x="294" d="M145 192 C90 192 45 147 45 92 C45 36 91 -10 147 -10 C202 -10 248 35 248 89 C248 147 203 192 145 192 L145 192 Z " />
<glyph glyph-name="slash" unicode="&#x2f;" horiz-adv-x="591" d="M97 -212 L574 682 L480 732 L3 -159 L97 -212 Z " />
<glyph glyph-name="zero" unicode="0" horiz-adv-x="532" d="M269 679 C123 679 31 548 31 340 C31 120 122 -12 273 -12 C413 -12 502 121 502 329 C502 549 416 679 269 679 L269 679 Z M266 524 C307 524 325 465 325 331 C325 203 306 144 266 144 C248 144 236 155 227 177 C216 206 208 281 208 351 C208 469 226 524 266 524 L266 524 Z " />
<glyph glyph-name="one" unicode="1" horiz-adv-x="532" d="M386 0 L386 667 L134 667 L134 510 L206 510 L206 1 L386 0 Z " />
<glyph glyph-name="two" unicode="2" horiz-adv-x="532" d="M488 0 L488 154 C397 153 381 152 322 148 C446 266 497 357 497 461 C497 589 409 679 283 679 C153 679 61 584 61 449 L61 425 L236 425 L236 450 C236 502 251 531 279 531 C304 531 321 507 321 472 C321 409 295 354 211 243 L29 0 L488 0 Z " />
<glyph glyph-name="three" unicode="3" horiz-adv-x="533" d="M39 196 C39 150 43 131 58 100 C93 29 165 -12 258 -12 C390 -12 484 72 484 190 C484 260 455 310 394 345 C450 378 475 422 475 485 C475 595 385 679 267 679 C144 679 61 601 52 477 L225 477 C229 518 238 530 261 530 C284 530 299 508 299 475 C299 427 277 407 225 407 C222 407 213 407 204 408 L204 266 C220 268 226 268 235 268 C281 268 308 242 308 198 C308 161 288 136 259 136 C228 136 216 153 215 196 L39 196 Z " />
<glyph glyph-name="four" unicode="4" horiz-adv-x="532" d="M449 0 L449 135 L506 135 L506 278 L449 278 L449 667 L228 667 L27 275 L27 135 L269 135 L269 0 L449 0 Z M275 278 L176 278 C213 334 223 353 282 479 C279 439 278 422 278 403 L275 278 Z " />
<glyph glyph-name="five" unicode="5" horiz-adv-x="532" d="M47 40 C105 7 170 -12 230 -12 C375 -12 484 92 484 230 C484 347 399 436 289 436 C281 436 270 436 258 435 L273 510 L463 510 L463 667 L131 667 L79 278 C124 295 156 301 197 301 C264 301 304 274 304 227 C304 182 266 152 211 152 C168 152 123 166 68 198 L47 40 Z " />
<glyph glyph-name="six" unicode="6" horiz-adv-x="532" d="M404 667 L210 667 L149 550 C124 502 94 436 76 387 C51 321 42 279 42 229 C42 85 129 -12 260 -12 C398 -12 492 87 492 231 C492 350 419 444 328 444 C306 444 292 440 264 425 C281 450 286 458 297 477 L404 667 Z M267 313 C301 313 319 282 319 225 C319 164 301 132 268 132 C235 132 218 163 218 224 C218 281 236 313 267 313 L267 313 Z " />
<glyph glyph-name="seven" unicode="7" horiz-adv-x="532" d="M233 0 L532 667 L60 667 L60 510 L286 510 C252 460 228 417 199 355 L39 0 L233 0 Z " />
<glyph glyph-name="eight" unicode="8" horiz-adv-x="532" d="M390 347 C425 364 439 376 454 398 C472 423 482 457 482 492 C482 598 388 679 263 679 C141 679 52 598 52 487 C52 415 84 371 152 347 C121 335 107 327 91 312 C57 282 39 238 39 189 C39 77 140 -12 266 -12 C397 -12 494 74 494 190 C494 268 462 317 390 347 L390 347 Z M266 276 C294 276 311 250 311 209 C311 169 293 142 267 142 C240 142 222 169 222 208 C222 247 241 276 266 276 L266 276 Z M266 536 C290 536 305 513 305 477 C305 441 290 419 267 419 C243 419 229 442 229 480 C229 514 243 536 266 536 L266 536 Z " />
<glyph glyph-name="nine" unicode="9" horiz-adv-x="532" d="M128 0 L321 0 L382 117 C408 166 437 231 456 280 C481 346 490 388 490 438 C490 582 402 679 272 679 C134 679 40 580 40 436 C40 317 112 223 204 223 C226 223 240 227 267 242 C250 217 245 209 234 190 L128 0 Z M264 536 C297 536 314 504 314 443 C314 386 296 354 265 354 C231 354 213 385 213 442 C213 503 231 536 264 536 L264 536 Z " />
<glyph glyph-name="colon" unicode="&#x3a;" horiz-adv-x="294" d="M145 477 C90 477 45 432 45 377 C45 321 91 276 147 276 C202 276 248 321 248 374 C248 432 203 477 145 477 L145 477 Z M145 192 C90 192 45 147 45 92 C45 36 91 -10 147 -10 C202 -10 248 35 248 89 C248 147 203 192 145 192 L145 192 Z " />
<glyph glyph-name="semicolon" unicode="&#x3b;" horiz-adv-x="293" d="M262 159 L86 159 L4 -161 L146 -161 L262 159 Z M179 477 C124 477 79 432 79 377 C79 321 125 275 181 275 C236 275 282 320 282 374 C282 432 237 477 179 477 L179 477 Z " />
<glyph glyph-name="less" unicode="&#x3c;" horiz-adv-x="500" d="M466 658 L33 418 L33 260 L466 19 L465 206 L233 338 L466 469 L466 658 Z " />
<glyph glyph-name="equal" unicode="&#x3d;" horiz-adv-x="533" d="M40 368 L493 368 L493 462 L40 462 L40 368 Z M40 218 L493 218 L493 312 L40 312 L40 218 Z " />
<glyph glyph-name="greater" unicode="&#x3e;" horiz-adv-x="500" d="M33 19 L466 259 L466 417 L33 658 L34 471 L266 339 L33 208 L33 19 Z " />
<glyph glyph-name="question" unicode="&#x3f;" horiz-adv-x="508" d="M256 193 C201 193 156 147 156 92 C156 36 201 -10 256 -10 C311 -10 357 36 357 90 C357 148 313 193 256 193 L256 193 Z M340 241 L340 310 C422 332 468 399 468 495 C468 623 378 714 251 714 C173 714 101 676 69 619 C48 582 40 547 40 489 L214 489 C214 542 225 565 251 565 C275 565 289 537 289 491 C289 430 261 403 196 403 C190 403 181 403 169 404 L169 241 L340 241 Z " />
<glyph glyph-name="at" unicode="&#x40;" horiz-adv-x="693" d="M503 508 L427 508 L422 488 C398 509 382 516 356 516 C271 516 206 431 206 319 C206 217 260 140 331 140 C363 140 385 151 419 184 C439 154 457 142 485 142 C575 142 650 251 650 382 C650 549 524 678 361 678 C182 678 43 528 43 334 C43 210 101 96 196 36 C246 5 306 -11 374 -11 C451 -11 502 3 578 44 L586 48 L594 52 L556 126 C501 93 430 74 365 74 C233 74 137 184 137 334 C137 482 234 595 361 595 C478 595 563 503 563 376 C563 299 526 222 490 222 C479 222 475 229 475 249 C475 264 476 277 477 289 L503 508 Z M361 427 C388 427 408 392 408 345 C408 285 374 228 338 228 C316 228 301 263 301 313 C301 377 327 427 361 427 L361 427 Z " />
<glyph glyph-name="A" unicode="A" horiz-adv-x="532" d="M527 0 L386 667 L165 667 L5 0 L191 0 L206 85 L327 85 L340 0 L527 0 Z M306 228 L230 228 L249 333 L254 372 L260 413 C261 416 263 432 265 455 L272 508 L278 445 C280 420 283 396 283 392 C293 316 293 316 294 306 L306 228 Z " />
<glyph glyph-name="B" unicode="B" horiz-adv-x="530" d="M47 0 L299 0 C419 0 500 77 500 191 C500 238 484 281 457 306 C434 326 411 335 363 342 C401 345 418 351 437 366 C470 391 488 430 488 478 C488 531 467 581 430 615 C391 651 338 667 256 667 L47 667 L47 0 Z M227 272 C233 273 239 273 241 273 C288 273 316 249 316 209 C316 169 288 144 242 144 C239 144 234 144 227 145 L227 272 Z M227 522 C235 523 242 523 245 523 C286 523 309 502 309 465 C309 444 298 426 279 416 C268 410 258 408 227 408 L227 522 Z " />
<glyph glyph-name="C" unicode="C" horiz-adv-x="445" d="M422 205 C386 173 362 162 328 162 C256 162 214 226 214 334 C214 446 258 512 331 512 C363 512 383 502 414 472 L414 663 C382 675 360 679 325 679 C242 679 171 649 117 591 C58 527 30 443 30 331 C30 229 53 150 100 89 C150 24 223 -12 304 -12 C342 -12 367 -6 411 12 L422 205 Z " />
<glyph glyph-name="D" unicode="D" horiz-adv-x="537" d="M47 0 L215 0 C313 0 376 23 425 77 C480 136 508 224 508 333 C508 437 482 516 426 579 C373 639 302 667 203 667 L47 667 L47 0 Z M227 500 C230 501 232 501 233 501 C287 504 324 434 324 328 C324 221 291 164 227 161 L227 500 Z " />
<glyph glyph-name="E" unicode="E" horiz-adv-x="411" d="M47 0 L382 0 L382 160 L227 160 L227 262 L366 262 L366 413 L227 413 L227 510 L382 510 L382 667 L47 667 L47 0 Z " />
<glyph glyph-name="F" unicode="F" horiz-adv-x="388" d="M227 0 L227 262 L356 262 L356 413 L227 413 L227 510 L365 510 L365 667 L47 667 L47 0 L227 0 Z " />
<glyph glyph-name="G" unicode="G" horiz-adv-x="560" d="M279 385 L279 245 L345 245 C344 184 321 148 282 148 C235 148 214 199 214 313 C214 451 238 518 288 518 C316 518 336 492 341 449 L515 514 C469 623 391 679 287 679 C127 679 30 546 30 330 C30 116 127 -12 288 -12 C375 -12 450 32 486 103 C517 165 530 240 530 358 L530 385 L279 385 Z " />
<glyph glyph-name="H" unicode="H" horiz-adv-x="539" d="M493 0 L493 667 L313 667 L313 431 L227 431 L227 667 L47 667 L47 0 L227 0 L227 268 L313 268 L313 0 L493 0 Z " />
<glyph glyph-name="I" unicode="I" horiz-adv-x="273" d="M227 0 L227 667 L47 667 L47 0 L227 0 Z " />
<glyph glyph-name="J" unicode="J" horiz-adv-x="354" d="M0 10 C46 -6 79 -12 117 -12 C180 -12 230 8 262 45 C295 84 307 125 307 204 L307 667 L127 667 L127 240 C127 183 110 157 72 157 C44 157 21 170 0 196 L0 10 Z " />
<glyph glyph-name="K" unicode="K" horiz-adv-x="541" d="M536 0 L375 345 L519 667 L328 667 L222 381 L227 667 L47 667 L47 0 L227 0 L222 307 L342 0 L536 0 Z " />
<glyph glyph-name="L" unicode="L" horiz-adv-x="369" d="M362 0 L362 160 L227 160 L227 667 L47 667 L47 0 L362 0 Z " />
<glyph glyph-name="M" unicode="M" horiz-adv-x="766" d="M733 0 L668 667 L446 667 L400 425 C392 384 388 355 384 312 C379 379 378 393 370 442 L332 667 L108 667 L30 0 L223 0 L239 278 L240 328 L241 368 L242 425 C246 383 249 360 254 321 L306 0 L453 0 L509 297 C519 352 523 383 527 425 C528 406 529 388 529 382 L530 340 L531 304 L545 0 L733 0 Z " />
<glyph glyph-name="N" unicode="N" horiz-adv-x="563" d="M47 0 L219 0 L219 170 C218 240 216 291 208 384 C221 336 227 320 254 245 L344 0 L516 0 L516 667 L344 667 L344 517 C344 456 349 389 364 265 C356 291 348 318 339 344 C327 382 322 399 309 433 L219 667 L47 667 L47 0 Z " />
<glyph glyph-name="O" unicode="O" horiz-adv-x="567" d="M285 679 C217 679 157 650 109 594 C56 533 30 450 30 339 C30 228 56 138 105 77 C149 22 219 -12 287 -12 C436 -12 537 128 537 331 C537 544 440 679 285 679 L285 679 Z M286 511 C327 511 350 447 350 330 C350 222 325 157 283 157 C241 157 217 222 217 334 C217 443 243 511 286 511 L286 511 Z " />
<glyph glyph-name="P" unicode="P" horiz-adv-x="505" d="M227 0 L227 219 C239 218 251 218 255 218 C317 218 360 227 395 248 C454 284 489 354 489 440 C489 513 464 573 415 614 C371 651 311 667 221 667 L47 667 L47 0 L227 0 Z M227 368 L227 521 L240 522 C279 522 307 490 307 443 C307 397 279 368 235 368 L227 368 Z " />
<glyph glyph-name="Q" unicode="Q" horiz-adv-x="574" d="M544 -14 L462 78 C512 139 537 227 537 341 C537 542 434 679 284 679 C214 679 149 648 105 592 C54 529 30 444 30 332 C30 233 49 158 91 96 C137 27 207 -12 284 -12 C304 -12 316 -10 338 -4 L399 -93 L544 -14 Z M282 511 C325 511 350 444 350 330 C350 222 325 157 283 157 C241 157 217 221 217 333 C217 442 242 511 282 511 L282 511 Z " />
<glyph glyph-name="R" unicode="R" horiz-adv-x="533" d="M521 0 L387 277 C457 309 490 362 490 444 C490 516 462 580 413 619 C373 651 313 667 231 667 L47 667 L47 0 L227 0 L227 189 C227 207 227 209 225 277 C231 260 237 242 238 238 C243 226 247 213 252 200 L265 164 L326 0 L521 0 Z M227 517 C250 517 254 516 266 512 C294 503 311 477 311 442 C311 394 280 358 239 358 C237 358 231 358 227 359 L227 517 Z " />
<glyph glyph-name="S" unicode="S" horiz-adv-x="404" d="M33 17 C81 -3 123 -12 169 -12 C292 -12 381 83 381 214 C381 292 350 345 274 400 C217 440 208 451 208 474 C208 496 230 514 256 514 C292 514 332 486 362 441 L362 645 C318 668 276 679 233 679 C179 679 132 660 98 625 C55 583 30 521 30 460 C30 386 62 331 139 271 C196 227 200 222 200 196 C200 171 178 153 148 153 C107 153 68 178 33 226 L33 17 Z " />
<glyph glyph-name="T" unicode="T" horiz-adv-x="383" d="M279 0 L279 507 L383 507 L383 667 L0 667 L0 507 L99 507 L99 0 L279 0 Z " />
<glyph glyph-name="U" unicode="U" horiz-adv-x="545" d="M319 667 L319 236 C319 200 318 194 312 180 C306 166 291 157 273 157 C240 157 227 179 227 237 L227 667 L47 667 L47 221 C47 139 67 85 112 46 C154 8 214 -12 282 -12 C343 -12 392 5 432 40 C481 81 499 124 499 195 L499 667 L319 667 Z " />
<glyph glyph-name="V" unicode="V" horiz-adv-x="518" d="M336 0 L518 667 L322 667 L280 446 C264 359 256 296 252 232 C244 324 237 383 222 476 L189 667 L0 667 L153 0 L336 0 Z " />
<glyph glyph-name="W" unicode="W" horiz-adv-x="753" d="M618 0 L753 667 L577 667 L545 460 C536 405 526 303 522 242 C515 311 499 427 484 507 L454 667 L299 667 L266 476 C251 385 248 362 244 326 C242 301 239 277 237 250 C227 347 226 350 224 369 L215 426 L207 483 L178 667 L0 667 L148 0 L324 0 L358 242 C362 270 364 292 367 326 C369 342 371 358 372 374 C373 380 374 395 377 417 C379 395 383 371 383 370 C385 355 387 339 390 323 C392 306 395 288 397 270 C398 265 400 252 403 234 L445 0 L618 0 Z " />
<glyph glyph-name="X" unicode="X" horiz-adv-x="517" d="M517 0 L353 346 L505 667 L303 667 L276 576 C271 557 268 547 260 509 C252 534 251 538 245 558 C243 566 240 574 239 577 L209 667 L9 667 L162 346 L0 0 L196 0 L229 88 C235 103 235 103 249 150 C252 161 255 169 258 179 C261 166 264 157 265 153 C268 143 271 134 275 124 L284 95 L317 0 L517 0 Z " />
<glyph glyph-name="Y" unicode="Y" horiz-adv-x="500" d="M346 0 L346 283 L500 667 L314 667 L281 567 C272 538 266 518 251 461 C240 507 237 516 220 568 L188 667 L0 667 L166 283 L166 0 L346 0 Z " />
<glyph glyph-name="Z" unicode="Z" horiz-adv-x="515" d="M476 0 L476 160 L336 156 C326 156 304 155 270 152 L287 186 C321 256 321 257 334 285 L498 648 L498 667 L57 667 L57 510 L250 510 C213 453 207 441 160 340 L17 14 L17 0 L476 0 Z " />
<glyph glyph-name="bracketleft" unicode="&#x5b;" horiz-adv-x="349" d="M315 -90 L213 -90 L213 610 L315 610 L315 729 L60 729 L60 -209 L315 -209 L315 -90 Z " />
<glyph glyph-name="backslash" unicode="&#x5c;" horiz-adv-x="591" d="M494 -212 L588 -159 L111 732 L17 682 L494 -212 Z " />
<glyph glyph-name="bracketright" unicode="&#x5d;" horiz-adv-x="349" d="M33 610 L136 610 L136 -90 L33 -90 L33 -209 L289 -209 L289 729 L33 729 L33 610 Z " />
<glyph glyph-name="asciicircum" unicode="&#x5e;" horiz-adv-x="500" d="M171 337 L250 544 L329 337 L494 337 L354 672 L145 672 L6 337 L171 337 Z " />
<glyph glyph-name="underscore" unicode="&#x5f;" horiz-adv-x="500" d="M0 -49 L0 -159 L500 -159 L500 -49 L0 -49 Z " />
<glyph glyph-name="grave" unicode="&#x60;" horiz-adv-x="500" d="M304 530 L257 678 L117 678 L205 530 L304 530 Z " />
<glyph glyph-name="a" unicode="a" horiz-adv-x="497" d="M457 0 L457 467 L281 467 L282 447 L284 419 C284 416 285 407 286 393 C255 453 223 477 174 477 C83 477 27 385 27 237 C27 84 81 -10 169 -10 C223 -10 258 16 290 79 C288 65 287 53 287 48 C287 45 286 36 285 22 L284 0 L457 0 Z M245 334 C272 334 282 309 282 239 C282 166 269 133 241 133 C214 133 201 161 201 218 C201 298 215 334 245 334 L245 334 Z " />
<glyph glyph-name="b" unicode="b" horiz-adv-x="497" d="M217 0 C216 9 216 17 216 20 L215 39 C214 42 214 52 213 63 C247 9 274 -10 320 -10 C414 -10 470 80 470 229 C470 387 416 477 321 477 C271 477 241 456 210 400 C211 412 212 424 212 427 L212 451 L213 474 L213 729 L40 729 L40 0 L217 0 Z M247 333 C276 333 291 299 291 233 C291 173 275 139 248 139 C221 139 208 172 208 238 C208 299 222 333 247 333 L247 333 Z " />
<glyph glyph-name="c" unicode="c" horiz-adv-x="303" d="M283 152 L271 152 C235 152 206 191 206 240 C206 290 233 320 283 323 L283 475 C268 476 256 477 248 477 C121 477 27 374 27 236 C27 167 52 96 93 50 C127 12 179 -10 236 -10 C246 -10 265 -9 283 -7 L283 152 Z " />
<glyph glyph-name="d" unicode="d" horiz-adv-x="497" d="M457 0 L457 729 L284 729 L284 474 L285 451 L285 427 C285 426 286 412 287 400 C256 456 226 477 176 477 C81 477 27 387 27 229 C27 80 83 -10 177 -10 C223 -10 250 9 284 63 C282 32 281 11 280 0 L457 0 Z M250 333 C275 333 289 299 289 238 C289 172 276 139 249 139 C221 139 206 173 206 235 C206 299 221 333 250 333 L250 333 Z " />
<glyph glyph-name="e" unicode="e" horiz-adv-x="481" d="M279 158 C273 137 259 125 240 125 C215 125 203 147 200 197 L454 197 C455 211 455 222 455 228 C455 379 373 476 245 476 C117 476 27 373 27 225 C27 79 107 -10 241 -10 C351 -10 425 48 448 155 L279 158 Z M202 290 C204 327 218 349 242 349 C266 349 281 327 283 290 L202 290 Z " />
<glyph glyph-name="f" unicode="f" horiz-adv-x="301" d="M233 0 L233 328 L295 328 L295 467 L233 467 L233 532 C233 567 240 580 259 580 C270 580 277 577 295 564 L295 724 C260 733 239 736 214 736 C164 736 123 716 93 679 C70 650 60 611 60 553 L60 467 L10 467 L10 328 L60 328 L60 0 L233 0 Z " />
<glyph glyph-name="g" unicode="g" horiz-adv-x="493" d="M453 467 L278 467 L282 406 C244 459 218 477 177 477 C88 477 27 377 27 234 C27 90 88 -7 178 -7 C219 -7 257 14 287 54 L287 -20 C287 -67 276 -86 247 -86 C225 -86 212 -72 210 -48 L33 -48 C50 -164 116 -217 243 -217 C301 -217 351 -202 389 -172 C435 -137 453 -92 453 -14 L453 467 Z M248 336 C273 336 285 302 285 235 C285 169 272 136 246 136 C221 136 206 175 206 237 C206 302 220 336 248 336 L248 336 Z " />
<glyph glyph-name="h" unicode="h" horiz-adv-x="491" d="M451 0 L451 319 C451 366 444 397 428 423 C408 456 370 477 332 477 C279 477 237 444 209 378 C210 393 211 403 211 408 L212 433 L213 469 L213 729 L40 729 L40 0 L213 0 L213 235 C213 282 225 304 250 304 C271 304 278 290 278 247 L278 0 L451 0 Z " />
<glyph glyph-name="i" unicode="i" horiz-adv-x="253" d="M213 0 L213 467 L40 467 L40 0 L213 0 Z M127 713 C71 713 26 668 26 612 C26 557 71 511 127 511 C182 511 228 556 228 611 C228 668 183 713 127 713 L127 713 Z " />
<glyph glyph-name="j" unicode="j" horiz-adv-x="254" d="M214 -205 L214 467 L40 467 L41 -205 L214 -205 Z M127 713 C71 713 26 668 26 612 C26 557 71 511 127 511 C182 511 228 556 228 611 C228 668 183 713 127 713 L127 713 Z " />
<glyph glyph-name="k" unicode="k" horiz-adv-x="495" d="M295 0 L494 0 L368 253 L483 467 L295 467 L239 329 C226 296 222 285 213 257 L213 729 L40 729 L40 0 L213 0 L213 234 C221 203 225 192 228 181 L295 0 Z " />
<glyph glyph-name="l" unicode="l" horiz-adv-x="253" d="M213 0 L213 729 L40 729 L40 0 L213 0 Z " />
<glyph glyph-name="m" unicode="m" horiz-adv-x="733" d="M693 0 L693 320 C693 372 687 398 670 425 C649 458 612 477 570 477 C513 477 479 448 454 380 C426 447 388 477 331 477 C278 477 243 452 210 389 C211 413 212 424 213 467 L40 467 L40 0 L213 0 L213 233 C213 257 214 267 217 277 C221 294 236 306 252 306 C264 306 272 300 277 289 C281 281 281 276 281 235 L281 0 L454 0 L454 236 C454 285 467 309 494 309 C514 309 520 295 520 245 L520 0 L693 0 Z " />
<glyph glyph-name="n" unicode="n" horiz-adv-x="491" d="M451 0 L451 319 C451 366 444 397 428 423 C408 456 370 477 332 477 C279 477 237 444 209 378 L211 418 C212 434 212 441 213 467 L40 467 L40 0 L213 0 L213 235 C213 282 225 304 250 304 C271 304 278 290 278 247 L278 0 L451 0 Z " />
<glyph glyph-name="o" unicode="o" horiz-adv-x="487" d="M242 477 C113 477 27 379 27 232 C27 84 110 -10 242 -10 C375 -10 461 82 461 226 C461 383 379 477 242 477 L242 477 Z M244 346 C274 346 293 301 293 232 C293 166 273 121 244 121 C215 121 195 166 195 233 C195 301 215 346 244 346 L244 346 Z " />
<glyph glyph-name="p" unicode="p" horiz-adv-x="495" d="M213 -209 L213 -14 C211 28 211 35 209 63 C243 10 274 -10 319 -10 C411 -10 468 84 468 233 C468 379 407 477 316 477 C268 477 237 456 209 401 L213 467 L40 467 L40 -209 L213 -209 Z M248 334 C274 334 289 298 289 238 C289 175 273 136 247 136 C223 136 208 173 208 236 C208 298 223 334 248 334 L248 334 Z " />
<glyph glyph-name="q" unicode="q" horiz-adv-x="495" d="M282 -209 L455 -209 L455 467 L282 467 L286 401 C258 456 227 477 179 477 C88 477 27 379 27 233 C27 84 84 -10 176 -10 C221 -10 252 10 286 63 C284 35 284 28 282 -14 L282 -209 Z M247 334 C272 334 287 298 287 236 C287 174 272 136 248 136 C222 136 206 175 206 240 C206 297 222 334 247 334 L247 334 Z " />
<glyph glyph-name="r" unicode="r" horiz-adv-x="344" d="M213 0 L213 200 C213 239 217 255 231 273 C244 290 265 300 286 300 C301 300 312 296 334 284 L334 478 C276 479 227 441 204 376 L213 467 L40 467 L40 0 L213 0 Z " />
<glyph glyph-name="s" unicode="s" horiz-adv-x="395" d="M23 39 C94 1 133 -10 190 -10 C249 -10 294 6 328 40 C358 70 376 113 376 155 C376 191 362 225 339 247 C322 262 307 270 264 287 C226 302 212 314 212 332 C212 344 224 354 239 354 C259 354 279 342 310 312 L369 439 C318 466 277 477 230 477 C121 477 39 409 39 317 C39 252 76 210 161 180 C195 168 206 159 206 143 C206 129 192 119 173 119 C147 119 116 137 86 168 L23 39 Z " />
<glyph glyph-name="t" unicode="t" horiz-adv-x="301" d="M236 0 L236 328 L294 328 L294 467 L236 467 L236 604 L63 604 L63 467 L14 467 L14 328 L63 328 L63 0 L236 0 Z " />
<glyph glyph-name="u" unicode="u" horiz-adv-x="499" d="M40 467 L40 180 C40 110 60 67 107 33 C147 5 196 -10 250 -10 C303 -10 352 5 392 33 C439 67 459 110 459 180 L459 467 L286 467 L286 204 C286 150 278 135 250 135 C221 135 213 150 213 204 L213 467 L40 467 Z " />
<glyph glyph-name="v" unicode="v" horiz-adv-x="446" d="M310 0 L446 467 L275 467 L245 321 C237 282 231 244 222 172 C211 280 211 282 202 330 L175 467 L0 467 L129 0 L310 0 Z " />
<glyph glyph-name="w" unicode="w" horiz-adv-x="682" d="M546 0 L682 467 L509 467 L484 351 C473 300 465 257 456 186 C451 239 448 269 440 317 L415 467 L267 467 L237 331 C225 271 217 221 214 186 C210 228 202 288 197 317 L170 467 L0 467 L116 0 L286 0 L339 280 L375 0 L546 0 Z " />
<glyph glyph-name="x" unicode="x" horiz-adv-x="482" d="M482 0 L331 244 L469 467 L277 467 L257 417 C254 408 251 400 248 392 C247 388 243 379 239 366 C236 375 234 383 231 391 C228 401 225 410 224 414 L205 467 L8 467 L142 240 L0 0 L194 0 L215 43 C228 72 232 82 243 110 C246 99 248 91 249 88 L252 80 C262 51 264 45 265 43 L281 0 L482 0 Z " />
<glyph glyph-name="y" unicode="y" horiz-adv-x="456" d="M241 -196 L456 467 L283 467 L257 366 C248 327 242 295 229 202 C225 247 216 300 207 333 L174 467 L0 467 L139 19 L63 -196 L241 -196 Z " />
<glyph glyph-name="z" unicode="z" horiz-adv-x="435" d="M391 0 L391 141 L263 141 C285 181 292 193 308 229 L419 467 L42 467 L42 328 L174 328 C154 292 143 270 130 242 L17 0 L391 0 Z " />
<glyph glyph-name="braceleft" unicode="&#x7b;" horiz-adv-x="367" d="M251 539 C251 604 254 607 320 609 L340 609 L350 609 L350 730 C328 730 320 730 308 731 C278 732 277 732 268 732 C152 732 106 689 106 580 L106 399 C102 342 92 328 51 321 L51 208 C93 201 105 182 106 120 L106 -59 C106 -168 152 -212 266 -212 L277 -212 C300 -211 315 -211 321 -210 L350 -210 L350 -89 C337 -90 330 -90 322 -90 C256 -90 251 -85 251 -19 L251 129 C250 200 236 231 191 260 C237 290 249 317 251 390 L251 539 Z " />
<glyph glyph-name="bar" unicode="&#x7c;" horiz-adv-x="500" d="M155 667 L155 -167 L346 -167 L346 667 L155 667 Z " />
<glyph glyph-name="braceright" unicode="&#x7d;" horiz-adv-x="367" d="M116 -19 C116 -84 113 -87 47 -89 L27 -89 L17 -89 L17 -210 C38 -210 47 -210 59 -211 C88 -212 90 -212 99 -212 C215 -212 261 -169 261 -60 L261 121 C265 178 275 192 316 199 L316 312 C274 319 262 338 261 400 L261 579 C261 688 215 732 101 732 L90 732 L72 731 C60 731 52 731 46 730 L17 730 L17 609 C30 610 37 610 45 610 C111 610 116 605 116 539 L116 391 C117 320 132 289 176 260 C130 230 118 203 116 130 L116 -19 Z " />
<glyph glyph-name="asciitilde" unicode="&#x7e;" horiz-adv-x="667" d="M156 561 C181 607 203 626 233 626 C250 626 273 619 308 603 C380 571 395 566 420 566 C493 566 537 602 575 693 L512 745 C487 699 464 680 433 680 C415 680 407 682 351 707 C294 733 263 742 238 742 C177 742 129 699 93 613 L156 561 Z " />
<glyph glyph-name="uni00A0" unicode="&#xa0;" horiz-adv-x="186" d="" />
<glyph glyph-name="exclamdown" unicode="&#xa1;" horiz-adv-x="322" d="M161 506 C106 506 60 460 60 406 C60 348 105 303 161 303 C217 303 262 349 262 405 C262 460 217 506 161 506 L161 506 Z M71 257 L71 -209 L247 -209 L247 257 L71 257 Z " />
<glyph glyph-name="cent" unicode="&#xa2;" horiz-adv-x="532" d="M327 109 L339 110 L357 111 C360 111 366 111 375 112 L375 274 C370 273 367 273 363 273 C327 273 298 310 298 356 C298 408 326 439 375 442 L375 590 C357 593 351 594 343 594 C340 594 334 594 327 593 L327 651 L243 651 L243 572 C206 553 186 537 167 509 C135 465 118 408 118 350 C118 251 161 175 243 128 L243 18 L327 18 L327 109 Z " />
<glyph glyph-name="sterling" unicode="&#xa3;" horiz-adv-x="532" d="M408 159 C392 136 377 127 355 127 C343 127 337 129 318 138 C286 154 274 157 244 159 C271 195 287 238 287 276 L287 288 L437 288 L437 381 L276 381 C274 395 273 399 267 418 C252 467 251 473 251 486 C251 514 273 538 299 538 C324 538 342 525 365 488 L461 584 C405 645 338 677 267 677 C155 677 71 600 71 497 C71 463 73 452 95 381 L62 381 L62 288 L124 288 C137 245 141 223 141 193 C141 164 138 152 123 126 C92 111 86 107 45 78 L95 -4 C130 18 152 26 181 26 C204 26 206 25 255 6 C284 -6 312 -12 339 -12 C413 -12 467 29 497 111 L408 159 Z " />
<glyph glyph-name="currency" unicode="&#xa4;" horiz-adv-x="706" d="M24 120 L113 31 L217 134 C268 106 306 95 354 95 C402 95 443 107 490 135 L594 31 L682 121 L578 225 C604 273 614 308 614 354 C614 402 602 440 574 489 L678 593 L589 682 L482 576 C435 602 400 611 353 611 C306 611 271 601 222 575 L114 683 L24 593 L131 487 C105 440 93 400 93 354 C93 311 106 265 129 224 L24 120 Z M355 464 C413 464 462 414 462 355 C462 294 413 245 353 245 C294 245 245 294 245 354 C245 416 293 464 355 464 L355 464 Z " />
<glyph glyph-name="yen" unicode="&#xa5;" horiz-adv-x="533" d="M511 295 L368 295 L395 361 L511 361 L511 433 L424 433 L517 667 L331 667 L299 567 C289 538 283 518 268 460 C257 506 255 516 238 568 L205 667 L17 667 L118 433 L23 433 L23 361 L149 361 L177 295 L23 295 L23 223 L183 223 L183 0 L363 0 L363 223 L511 223 L511 295 Z " />
<glyph glyph-name="brokenbar" unicode="&#xa6;" horiz-adv-x="500" d="M155 667 L155 305 L346 305 L346 667 L155 667 Z M155 153 L155 -167 L346 -167 L346 153 L155 153 Z " />
<glyph glyph-name="section" unicode="&#xa7;" horiz-adv-x="533" d="M46 8 C46 -58 54 -90 77 -126 C114 -181 185 -214 265 -214 C397 -214 493 -126 493 -4 C493 58 472 100 420 141 C463 176 486 222 486 275 C486 351 448 399 342 455 C245 505 245 506 232 517 C217 529 210 543 210 562 C210 593 231 612 265 612 C297 612 317 597 325 566 C329 553 330 541 330 509 L472 509 C472 568 470 588 459 621 C436 690 366 733 277 733 C153 733 65 654 65 543 C65 492 78 462 121 409 C73 373 49 326 49 269 C49 211 71 166 117 129 C143 109 177 89 243 54 C312 18 326 4 326 -27 C326 -61 302 -85 266 -85 C235 -85 212 -71 202 -48 C197 -33 195 -22 195 8 L46 8 Z M268 335 C307 335 333 309 333 270 C333 231 307 205 268 205 C230 205 202 233 202 272 C202 309 229 335 268 335 L268 335 Z " />
<glyph glyph-name="dieresis" unicode="&#xa8;" horiz-adv-x="500" d="M153 674 C113 674 81 642 81 603 C81 563 114 530 154 530 C193 530 226 562 226 601 C226 642 194 674 153 674 L153 674 Z M345 674 C305 674 273 642 273 603 C273 563 306 530 346 530 C385 530 418 562 418 601 C418 642 386 674 345 674 L345 674 Z " />
<glyph glyph-name="copyright" unicode="&#xa9;" horiz-adv-x="760" d="M484 270 C444 237 441 235 417 235 C376 235 352 271 352 333 C352 397 377 435 419 435 C436 435 449 429 463 416 L468 411 C469 410 473 406 478 402 L478 529 C451 538 441 540 416 540 C299 540 223 458 223 332 C223 207 294 126 402 126 C429 126 442 129 476 142 L484 270 Z M385 682 C188 682 33 528 33 333 C33 141 189 -15 380 -15 C571 -15 726 141 726 333 C726 524 571 682 385 682 L385 682 Z M383 609 C527 609 646 484 646 333 C646 181 527 57 380 57 C233 57 112 181 112 333 C112 487 231 609 383 609 L383 609 Z " />
<glyph glyph-name="ordfeminine" unicode="&#xaa;" horiz-adv-x="284" d="M261 393 L261 661 L160 661 C161 638 161 636 163 619 C145 653 127 667 99 667 C47 667 15 614 15 529 C15 441 46 387 96 387 C127 387 147 402 165 439 C163 426 163 422 163 415 L161 393 L261 393 Z M139 585 C155 585 160 571 160 531 C160 489 153 470 137 470 C122 470 115 486 115 519 C115 564 123 585 139 585 L139 585 Z M261 294 L261 347 L15 347 L15 294 L261 294 Z " />
<glyph glyph-name="guillemotleft" unicode="&#xab;" horiz-adv-x="483" d="M179 39 L256 97 L143 240 L256 383 L179 441 L27 240 L179 39 Z M379 39 L456 97 L343 240 L456 383 L379 441 L227 240 L379 39 Z " />
<glyph glyph-name="logicalnot" unicode="&#xac;" horiz-adv-x="500" d="M281 0 L466 0 L466 298 L33 298 L33 132 L281 132 L281 0 Z " />
<glyph glyph-name="uni00AD" unicode="&#xad;" horiz-adv-x="217" d="M217 173 L217 306 L0 306 L0 173 L217 173 Z " />
<glyph glyph-name="registered" unicode="&#xae;" horiz-adv-x="760" d="M550 133 L465 299 L467 300 C508 318 529 352 529 398 C529 442 510 481 477 505 C450 524 411 533 359 533 L236 533 L236 133 L363 133 L363 261 L413 133 L550 133 Z M363 438 C390 436 403 423 403 397 C403 370 387 351 363 351 L363 438 Z M385 682 C188 682 33 528 33 333 C33 141 189 -15 380 -15 C571 -15 726 141 726 333 C726 524 571 682 385 682 L385 682 Z M383 609 C527 609 646 484 646 333 C646 181 527 57 380 57 C233 57 112 181 112 333 C112 487 231 609 383 609 L383 609 Z " />
<glyph glyph-name="macron" unicode="&#xaf;" horiz-adv-x="500" d="M93 546 L406 546 L406 643 L93 643 L93 546 Z " />
<glyph glyph-name="degree" unicode="&#xb0;" horiz-adv-x="533" d="M269 684 C176 684 102 614 102 525 C102 438 176 367 267 367 C358 367 432 438 432 526 C432 612 358 684 269 684 L269 684 Z M267 602 C308 602 342 567 342 526 C342 483 308 449 266 449 C224 449 190 483 190 525 C190 568 224 602 267 602 L267 602 Z " />
<glyph glyph-name="plusminus" unicode="&#xb1;" horiz-adv-x="532" d="M33 288 L213 288 L213 117 L320 117 L320 288 L500 288 L500 392 L320 392 L320 570 L213 570 L213 392 L33 392 L33 288 Z M33 -27 L500 -27 L500 77 L33 77 L33 -27 Z " />
<glyph glyph-name="twosuperior" unicode="&#xb2;" horiz-adv-x="352" d="M312 267 L312 362 C259 362 247 361 214 359 C287 428 317 481 317 542 C317 620 263 674 185 674 C98 674 46 616 48 519 L159 519 C159 568 164 582 183 582 C197 582 206 569 206 549 C206 512 190 480 140 414 L26 267 L312 267 Z " />
<glyph glyph-name="threesuperior" unicode="&#xb3;" horiz-adv-x="352" d="M38 387 L38 378 C38 309 94 260 174 260 C256 260 314 310 314 381 C314 422 295 454 261 473 C293 493 308 520 308 557 C308 623 252 674 179 674 C103 674 51 627 46 550 L156 550 C159 576 162 582 176 582 C189 582 197 570 197 551 C197 523 184 512 154 512 C151 512 146 512 139 513 L139 424 C151 425 153 425 159 425 C187 425 203 411 203 386 C203 366 191 352 175 352 C157 352 150 361 149 387 L38 387 Z " />
<glyph glyph-name="acute" unicode="&#xb4;" horiz-adv-x="500" d="M197 530 L296 530 L384 678 L244 678 L197 530 Z " />
<glyph glyph-name="mu" unicode="&#xb5;" horiz-adv-x="499" d="M214 -205 L175 4 C203 -6 223 -10 252 -10 C303 -10 352 5 392 33 C439 66 459 110 459 180 L459 467 L286 467 L286 204 C286 150 278 135 250 135 C221 135 213 150 213 204 L213 467 L40 467 L40 -205 L214 -205 Z " />
<glyph glyph-name="paragraph" unicode="&#xb6;" horiz-adv-x="533" d="M137 -99 L253 -99 L253 510 L331 510 L331 -99 L447 -99 L447 510 L513 510 L513 667 L186 667 C76 667 20 608 20 494 C20 401 64 343 137 340 L137 -99 Z " />
<glyph glyph-name="periodcentered" unicode="&#xb7;" horiz-adv-x="292" d="M145 340 C90 340 45 295 45 240 C45 184 90 139 146 139 C201 139 247 184 247 238 C247 295 202 340 145 340 L145 340 Z " />
<glyph glyph-name="cedilla" unicode="&#xb8;" horiz-adv-x="500" d="M371 -100 L290 -47 L192 -170 L258 -217 L371 -100 Z " />
<glyph glyph-name="onesuperior" unicode="&#xb9;" horiz-adv-x="352" d="M249 266 L249 667 L92 667 L92 570 L136 570 L136 267 L249 266 Z " />
<glyph glyph-name="ordmasculine" unicode="&#xba;" horiz-adv-x="280" d="M138 667 C64 667 15 611 15 527 C15 442 63 388 138 388 C215 388 264 441 264 524 C264 613 217 667 138 667 L138 667 Z M139 592 C156 592 167 566 167 527 C167 489 156 463 140 463 C123 463 112 489 112 528 C112 566 123 592 139 592 L139 592 Z M262 294 L262 347 L16 347 L16 294 L262 294 Z " />
<glyph glyph-name="guillemotright" unicode="&#xbb;" horiz-adv-x="483" d="M305 39 L456 240 L305 441 L227 383 L340 240 L227 97 L305 39 Z M105 39 L256 240 L105 441 L27 383 L140 240 L27 97 L105 39 Z " />
<glyph glyph-name="onequarter" unicode="&#xbc;" horiz-adv-x="844" d="M249 266 L249 667 L92 667 L92 570 L136 570 L136 267 L249 266 Z M264 -44 L651 672 L577 711 L192 -5 L264 -44 Z M781 0 L781 80 L815 80 L815 169 L781 169 L781 400 L643 400 L519 166 L519 80 L667 80 L667 0 L781 0 Z M671 169 L616 169 C634 196 644 214 674 276 C673 259 672 251 672 241 L671 169 Z " />
<glyph glyph-name="onehalf" unicode="&#xbd;" horiz-adv-x="844" d="M249 266 L249 667 L92 667 L92 570 L136 570 L136 267 L249 266 Z M264 -44 L651 672 L577 711 L192 -5 L264 -44 Z M803 0 L803 95 C750 95 738 94 705 92 C778 161 808 214 808 275 C808 353 754 407 676 407 C589 407 538 349 539 252 L650 252 C650 301 656 315 674 315 C688 315 697 302 697 282 C697 245 681 213 631 147 L517 0 L803 0 Z " />
<glyph glyph-name="threequarters" unicode="&#xbe;" horiz-adv-x="844" d="M38 387 L38 378 C38 309 94 260 174 260 C256 260 314 310 314 381 C314 422 295 454 261 473 C293 493 308 520 308 557 C308 623 252 674 179 674 C103 674 51 627 46 550 L156 550 C159 576 162 582 176 582 C189 582 197 570 197 551 C197 523 184 512 154 512 C151 512 146 512 139 513 L139 424 C151 425 153 425 159 425 C187 425 203 411 203 386 C203 366 191 352 175 352 C157 352 150 361 149 387 L38 387 Z M264 -44 L651 672 L577 711 L192 -5 L264 -44 Z M781 0 L781 80 L815 80 L815 169 L781 169 L781 400 L643 400 L519 166 L519 80 L667 80 L667 0 L781 0 Z M671 169 L616 169 C634 196 644 214 674 276 C673 259 672 251 672 241 L671 169 Z " />
<glyph glyph-name="questiondown" unicode="&#xbf;" horiz-adv-x="508" d="M252 506 C197 506 151 460 151 406 C151 348 195 303 252 303 C307 303 352 349 352 405 C352 461 307 506 252 506 L252 506 Z M168 255 L168 186 C86 164 40 97 40 1 C40 -127 130 -218 257 -218 C335 -218 407 -180 439 -123 C460 -86 468 -51 468 7 L294 7 C294 -46 283 -69 257 -69 C233 -69 219 -41 219 4 C219 66 247 93 312 93 C318 93 327 93 339 92 L339 255 L168 255 Z " />
<glyph glyph-name="Agrave" unicode="&#xc0;" horiz-adv-x="532" d="M527 0 L386 667 L165 667 L5 0 L191 0 L206 85 L327 85 L340 0 L527 0 Z M306 228 L230 228 L249 333 L254 372 L260 413 C261 416 263 432 265 455 L272 508 L278 445 C280 420 283 396 283 392 C293 316 293 316 294 306 L306 228 Z M151 871 L235 720 L335 720 L292 871 L151 871 Z " />
<glyph glyph-name="Aacute" unicode="&#xc1;" horiz-adv-x="532" d="M527 0 L386 667 L165 667 L5 0 L191 0 L206 85 L327 85 L340 0 L527 0 Z M306 228 L230 228 L249 333 L254 372 L260 413 C261 416 263 432 265 455 L272 508 L278 445 C280 420 283 396 283 392 C293 316 293 316 294 306 L306 228 Z M399 871 L258 871 L214 720 L314 720 L399 871 Z " />
<glyph glyph-name="Acircumflex" unicode="&#xc2;" horiz-adv-x="532" d="M527 0 L386 667 L165 667 L5 0 L191 0 L206 85 L327 85 L340 0 L527 0 Z M306 228 L230 228 L249 333 L254 372 L260 413 C261 416 263 432 265 455 L272 508 L278 445 C280 420 283 396 283 392 C293 316 293 316 294 306 L306 228 Z M434 720 L351 858 L199 858 L111 720 L226 720 L263 780 L298 720 L434 720 Z " />
<glyph glyph-name="Atilde" unicode="&#xc3;" horiz-adv-x="532" d="M527 0 L386 667 L165 667 L5 0 L191 0 L206 85 L327 85 L340 0 L527 0 Z M306 228 L230 228 L249 333 L254 372 L260 413 C261 416 263 432 265 455 L272 508 L278 445 C280 420 283 396 283 392 C293 316 293 316 294 306 L306 228 Z M353 855 C352 829 343 818 325 818 C318 818 307 821 297 825 C240 850 232 852 204 852 C159 852 122 822 108 776 C104 761 103 749 103 720 L194 720 C195 745 204 756 221 756 C231 756 240 753 263 743 C297 726 314 722 338 722 C400 722 443 771 443 841 L443 855 L353 855 Z " />
<glyph glyph-name="Adieresis" unicode="&#xc4;" horiz-adv-x="532" d="M527 0 L386 667 L165 667 L5 0 L191 0 L206 85 L327 85 L340 0 L527 0 Z M306 228 L230 228 L249 333 L254 372 L260 413 C261 416 263 432 265 455 L272 508 L278 445 C280 420 283 396 283 392 C293 316 293 316 294 306 L306 228 Z M371 865 C331 865 299 833 299 793 C299 753 332 720 372 720 C411 720 444 753 444 792 C444 833 412 865 371 865 L371 865 Z M173 865 C133 865 101 833 101 793 C101 753 133 720 173 720 C212 720 245 753 245 792 C245 833 213 865 173 865 L173 865 Z " />
<glyph glyph-name="Aring" unicode="&#xc5;" horiz-adv-x="532" d="M527 0 L386 667 L165 667 L5 0 L191 0 L206 85 L327 85 L340 0 L527 0 Z M306 228 L230 228 L249 333 L254 372 L260 413 C261 416 263 432 265 455 L272 508 L278 445 C280 420 283 396 283 392 C293 316 293 316 294 306 L306 228 Z M273 887 C225 887 186 848 186 800 C186 752 225 713 273 713 C321 713 360 752 360 799 C360 848 322 887 273 887 L273 887 Z M273 837 C294 837 311 820 311 799 C311 780 294 763 274 763 C253 763 236 780 236 800 C236 821 253 837 273 837 L273 837 Z " />
<glyph glyph-name="AE" unicode="&#xc6;" horiz-adv-x="615" d="M585 0 L585 160 L465 160 L447 262 L571 262 L571 413 L421 413 L406 510 L585 510 L585 667 L154 667 L0 0 L186 0 L201 85 L316 85 L328 0 L585 0 Z M223 224 L246 369 C251 402 251 404 253 419 L259 471 L263 506 C267 458 271 422 274 395 L297 224 L223 224 Z " />
<glyph glyph-name="Ccedilla" unicode="&#xc7;" horiz-adv-x="445" d="M422 205 C386 173 362 162 328 162 C256 162 214 226 214 334 C214 446 258 512 331 512 C363 512 383 502 414 472 L414 663 C382 675 360 679 325 679 C242 679 171 649 117 591 C58 527 30 443 30 331 C30 229 53 150 100 89 C150 24 223 -12 304 -12 C342 -12 367 -6 411 12 L422 205 Z M365 -106 L273 -47 L153 -194 L225 -239 L365 -106 Z " />
<glyph glyph-name="Egrave" unicode="&#xc8;" horiz-adv-x="411" d="M47 0 L382 0 L382 160 L227 160 L227 262 L366 262 L366 413 L227 413 L227 510 L382 510 L382 667 L47 667 L47 0 Z M98 871 L182 720 L282 720 L239 871 L98 871 Z " />
<glyph glyph-name="Eacute" unicode="&#xc9;" horiz-adv-x="411" d="M47 0 L382 0 L382 160 L227 160 L227 262 L366 262 L366 413 L227 413 L227 510 L382 510 L382 667 L47 667 L47 0 Z M342 871 L201 871 L158 720 L258 720 L342 871 Z " />
<glyph glyph-name="Ecircumflex" unicode="&#xca;" horiz-adv-x="411" d="M47 0 L382 0 L382 160 L227 160 L227 262 L366 262 L366 413 L227 413 L227 510 L382 510 L382 667 L47 667 L47 0 Z M376 720 L293 858 L141 858 L54 720 L168 720 L206 780 L240 720 L376 720 Z " />
<glyph glyph-name="Edieresis" unicode="&#xcb;" horiz-adv-x="411" d="M46 0 L381 0 L381 160 L226 160 L226 262 L365 262 L365 413 L226 413 L226 510 L381 510 L381 667 L46 667 L46 0 Z M312 865 C272 865 240 833 240 793 C240 753 273 720 313 720 C352 720 385 753 385 792 C385 833 353 865 312 865 L312 865 Z M114 865 C74 865 42 833 42 793 C42 753 74 720 114 720 C153 720 186 753 186 792 C186 833 154 865 114 865 L114 865 Z " />
<glyph glyph-name="Igrave" unicode="&#xcc;" horiz-adv-x="273" d="M227 0 L227 667 L47 667 L47 0 L227 0 Z M12 871 L96 720 L196 720 L153 871 L12 871 Z " />
<glyph glyph-name="Iacute" unicode="&#xcd;" horiz-adv-x="273" d="M227 0 L227 667 L47 667 L47 0 L227 0 Z M267 871 L126 871 L82 720 L182 720 L267 871 Z " />
<glyph glyph-name="Icircumflex" unicode="&#xce;" horiz-adv-x="273" d="M226 0 L226 667 L46 667 L46 0 L226 0 Z M291 720 L215 858 L63 858 L-18 720 L96 720 L127 780 L155 720 L291 720 Z " />
<glyph glyph-name="Idieresis" unicode="&#xcf;" horiz-adv-x="273" d="M227 0 L227 667 L47 667 L47 0 L227 0 Z M221 847 C186 847 158 819 158 784 C158 749 187 720 222 720 C256 720 285 749 285 783 C285 819 257 847 221 847 L221 847 Z M54 847 C18 847 -10 819 -10 784 C-10 748 18 720 53 720 C88 720 117 749 117 784 C117 819 89 847 54 847 L54 847 Z " />
<glyph glyph-name="Eth" unicode="&#xd0;" horiz-adv-x="537" d="M47 0 L215 0 C312 0 376 23 425 77 C479 136 507 224 507 333 C507 436 481 516 425 579 C372 639 301 667 203 667 L47 667 L47 393 L7 393 L7 290 L47 290 L47 0 Z M227 290 L280 290 L280 393 L227 393 L227 500 C256 499 264 497 277 483 C307 453 323 398 323 328 C323 221 290 164 227 161 L227 290 Z " />
<glyph glyph-name="Ntilde" unicode="&#xd1;" horiz-adv-x="563" d="M47 0 L219 0 L219 170 C218 240 216 291 208 384 C221 336 227 320 254 245 L344 0 L516 0 L516 667 L344 667 L344 517 C344 456 349 389 364 265 C356 291 348 318 339 344 C327 382 322 399 309 433 L219 667 L47 667 L47 0 Z M366 855 C364 829 356 818 338 818 C330 818 319 821 309 825 C252 850 244 852 217 852 C172 852 134 822 121 776 C117 761 116 749 116 720 L207 720 C208 745 216 756 233 756 C244 756 253 753 275 743 C310 726 326 722 351 722 C413 722 456 771 456 841 C456 843 456 849 455 855 L366 855 Z " />
<glyph glyph-name="Ograve" unicode="&#xd2;" horiz-adv-x="567" d="M285 679 C217 679 157 650 109 594 C56 533 30 450 30 339 C30 228 56 138 105 77 C149 22 219 -12 287 -12 C436 -12 537 128 537 331 C537 544 440 679 285 679 L285 679 Z M286 511 C327 511 350 447 350 330 C350 222 325 157 283 157 C241 157 217 222 217 334 C217 443 243 511 286 511 L286 511 Z M165 871 L249 720 L350 720 L306 871 L165 871 Z " />
<glyph glyph-name="Oacute" unicode="&#xd3;" horiz-adv-x="567" d="M285 679 C217 679 157 650 109 594 C56 533 30 450 30 339 C30 228 56 138 105 77 C149 22 219 -12 287 -12 C436 -12 537 128 537 331 C537 544 440 679 285 679 L285 679 Z M286 511 C327 511 350 447 350 330 C350 222 325 157 283 157 C241 157 217 222 217 334 C217 443 243 511 286 511 L286 511 Z M410 871 L269 871 L225 720 L325 720 L410 871 Z " />
<glyph glyph-name="Ocircumflex" unicode="&#xd4;" horiz-adv-x="567" d="M285 679 C217 679 157 650 109 594 C56 533 30 450 30 339 C30 228 56 138 105 77 C149 22 219 -12 287 -12 C436 -12 537 128 537 331 C537 544 440 679 285 679 L285 679 Z M286 511 C327 511 350 447 350 330 C350 222 325 157 283 157 C241 157 217 222 217 334 C217 443 243 511 286 511 L286 511 Z M441 720 L359 858 L206 858 L119 720 L233 720 L271 780 L306 720 L441 720 Z " />
<glyph glyph-name="Otilde" unicode="&#xd5;" horiz-adv-x="567" d="M285 679 C217 679 157 650 109 594 C56 533 30 450 30 339 C30 228 56 138 105 77 C149 22 219 -12 287 -12 C436 -12 537 128 537 331 C537 544 440 679 285 679 L285 679 Z M286 511 C327 511 350 447 350 330 C350 222 325 157 283 157 C241 157 217 222 217 334 C217 443 243 511 286 511 L286 511 Z M368 855 C366 829 358 818 340 818 C332 818 321 821 311 825 C254 850 246 852 218 852 C173 852 136 822 123 776 C118 761 117 749 117 720 L208 720 C210 745 218 756 235 756 C245 756 255 753 277 743 C312 726 328 722 352 722 C414 722 457 771 457 841 L457 855 L368 855 Z " />
<glyph glyph-name="Odieresis" unicode="&#xd6;" horiz-adv-x="567" d="M285 679 C217 679 157 650 109 594 C56 533 30 450 30 339 C30 228 56 138 105 77 C149 22 219 -12 287 -12 C436 -12 537 128 537 331 C537 544 440 679 285 679 L285 679 Z M286 511 C327 511 350 447 350 330 C350 222 325 157 283 157 C241 157 217 222 217 334 C217 443 243 511 286 511 L286 511 Z M382 865 C342 865 310 833 310 793 C310 753 343 720 383 720 C422 720 455 753 455 792 C455 833 423 865 382 865 L382 865 Z M184 865 C144 865 112 833 112 793 C112 753 144 720 184 720 C223 720 256 753 256 792 C256 833 224 865 184 865 L184 865 Z " />
<glyph glyph-name="multiply" unicode="&#xd7;" horiz-adv-x="532" d="M54 476 L191 339 L55 203 L129 128 L266 265 L403 127 L479 204 L342 341 L478 477 L404 552 L268 415 L130 553 L54 476 Z " />
<glyph glyph-name="Oslash" unicode="&#xd8;" horiz-adv-x="567" d="M80 -19 L128 48 C179 5 223 -12 280 -12 C350 -12 422 23 463 78 C510 142 536 234 536 341 C536 422 524 477 492 546 L552 632 L487 677 L442 613 C390 660 344 679 284 679 C208 679 140 644 96 581 C51 519 30 437 30 329 C30 235 41 185 78 116 L17 24 L80 -19 Z M353 371 C354 349 355 331 355 320 C355 220 326 151 284 151 C262 151 246 164 237 190 L353 371 Z M213 294 C212 317 211 335 211 345 C211 446 240 516 281 516 C303 516 318 503 329 475 L213 294 Z " />
<glyph glyph-name="Ugrave" unicode="&#xd9;" horiz-adv-x="545" d="M319 667 L319 236 C319 200 318 194 312 180 C306 166 291 157 273 157 C240 157 227 179 227 237 L227 667 L47 667 L47 221 C47 139 67 85 112 46 C154 8 214 -12 282 -12 C343 -12 392 5 432 40 C481 81 499 124 499 195 L499 667 L319 667 Z M148 871 L232 720 L333 720 L289 871 L148 871 Z " />
<glyph glyph-name="Uacute" unicode="&#xda;" horiz-adv-x="545" d="M319 667 L319 236 C319 200 318 194 312 180 C306 166 291 157 273 157 C240 157 227 179 227 237 L227 667 L47 667 L47 221 C47 139 67 85 112 46 C154 8 214 -12 282 -12 C343 -12 392 5 432 40 C481 81 499 124 499 195 L499 667 L319 667 Z M406 871 L265 871 L221 720 L322 720 L406 871 Z " />
<glyph glyph-name="Ucircumflex" unicode="&#xdb;" horiz-adv-x="545" d="M319 667 L319 236 C319 200 318 194 312 180 C306 166 291 157 273 157 C240 157 227 179 227 237 L227 667 L47 667 L47 221 C47 139 67 85 112 46 C154 8 214 -12 282 -12 C343 -12 392 5 432 40 C481 81 499 124 499 195 L499 667 L319 667 Z M434 720 L352 858 L199 858 L112 720 L226 720 L264 780 L299 720 L434 720 Z " />
<glyph glyph-name="Udieresis" unicode="&#xdc;" horiz-adv-x="545" d="M319 667 L319 236 C319 200 318 194 312 180 C306 166 291 157 273 157 C240 157 227 179 227 237 L227 667 L47 667 L47 221 C47 139 67 85 112 46 C154 8 214 -12 282 -12 C343 -12 392 5 432 40 C481 81 499 124 499 195 L499 667 L319 667 Z M372 865 C332 865 300 833 300 793 C300 753 333 720 373 720 C412 720 445 753 445 792 C445 833 413 865 372 865 L372 865 Z M174 865 C134 865 102 833 102 793 C102 753 134 720 174 720 C213 720 246 753 246 792 C246 833 214 865 174 865 L174 865 Z " />
<glyph glyph-name="Yacute" unicode="&#xdd;" horiz-adv-x="500" d="M346 0 L346 283 L500 667 L314 667 L281 567 C272 538 266 518 251 461 C240 507 237 516 220 568 L188 667 L0 667 L166 283 L166 0 L346 0 Z M389 871 L248 871 L204 720 L305 720 L389 871 Z " />
<glyph glyph-name="Thorn" unicode="&#xde;" horiz-adv-x="505" d="M227 0 L227 125 L255 125 C318 125 360 134 395 155 C454 191 489 261 489 346 C489 440 444 516 370 549 C330 566 293 572 227 574 L227 667 L47 667 L47 0 L227 0 Z M227 427 C232 428 237 428 240 428 C279 428 307 396 307 350 C307 300 281 275 227 275 L227 427 Z " />
<glyph glyph-name="germandbls" unicode="&#xdf;" horiz-adv-x="526" d="M232 0 L232 523 C232 568 243 586 270 586 C296 586 309 566 309 528 C309 488 299 469 276 467 L276 328 C306 324 320 295 320 236 C320 180 307 152 276 143 L276 0 C336 2 374 14 413 43 C465 84 499 159 499 237 C499 297 477 353 442 385 C426 399 411 405 383 410 C439 424 473 476 473 549 C473 655 382 741 269 741 C177 741 94 681 70 597 C60 561 59 545 59 467 L11 467 L11 328 L59 328 L59 0 L232 0 Z " />
<glyph glyph-name="agrave" unicode="&#xe0;" horiz-adv-x="497" d="M457 0 L457 467 L281 467 L282 447 L284 419 C284 416 285 407 286 393 C255 453 223 477 174 477 C83 477 27 385 27 237 C27 84 81 -10 169 -10 C223 -10 258 16 290 79 C288 65 287 53 287 48 C287 45 286 36 285 22 L284 0 L457 0 Z M245 334 C272 334 282 309 282 239 C282 166 269 133 241 133 C214 133 201 161 201 218 C201 298 215 334 245 334 L245 334 Z M323 530 L276 678 L136 678 L224 530 L323 530 Z " />
<glyph glyph-name="aacute" unicode="&#xe1;" horiz-adv-x="497" d="M457 0 L457 467 L281 467 L282 447 L284 419 C284 416 285 407 286 393 C255 453 223 477 174 477 C83 477 27 385 27 237 C27 84 81 -10 169 -10 C223 -10 258 16 290 79 C288 65 287 53 287 48 C287 45 286 36 285 22 L284 0 L457 0 Z M245 334 C272 334 282 309 282 239 C282 166 269 133 241 133 C214 133 201 161 201 218 C201 298 215 334 245 334 L245 334 Z M202 530 L302 530 L389 678 L250 678 L202 530 Z " />
<glyph glyph-name="acircumflex" unicode="&#xe2;" horiz-adv-x="497" d="M457 0 L457 467 L281 467 L282 447 L284 419 C284 416 285 407 286 393 C255 453 223 477 174 477 C83 477 27 385 27 237 C27 84 81 -10 169 -10 C223 -10 258 16 290 79 C288 65 287 53 287 48 C287 45 286 36 285 22 L284 0 L457 0 Z M245 334 C272 334 282 309 282 239 C282 166 269 133 241 133 C214 133 201 161 201 218 C201 298 215 334 245 334 L245 334 Z M411 530 L340 669 L183 669 L107 530 L210 530 L249 598 L284 530 L411 530 Z " />
<glyph glyph-name="atilde" unicode="&#xe3;" horiz-adv-x="497" d="M457 0 L457 467 L281 467 L282 447 L284 419 C284 416 285 407 286 393 C255 453 223 477 174 477 C83 477 27 385 27 237 C27 84 81 -10 169 -10 C223 -10 258 16 290 79 C288 65 287 53 287 48 C287 45 286 36 285 22 L284 0 L457 0 Z M245 334 C272 334 282 309 282 239 C282 166 269 133 241 133 C214 133 201 161 201 218 C201 298 215 334 245 334 L245 334 Z M340 665 C338 639 330 628 312 628 C304 628 293 631 283 635 C226 660 218 662 190 662 C145 662 108 632 95 586 C90 571 89 559 89 530 L180 530 C182 555 190 566 207 566 C217 566 227 563 249 553 C284 536 300 532 324 532 C386 532 429 581 429 651 L429 665 L340 665 Z " />
<glyph glyph-name="adieresis" unicode="&#xe4;" horiz-adv-x="497" d="M457 0 L457 467 L281 467 L282 447 L284 419 C284 416 285 407 286 393 C255 453 223 477 174 477 C83 477 27 385 27 237 C27 84 81 -10 169 -10 C223 -10 258 16 290 79 C288 65 287 53 287 48 C287 45 286 36 285 22 L284 0 L457 0 Z M245 334 C272 334 282 309 282 239 C282 166 269 133 241 133 C214 133 201 161 201 218 C201 298 215 334 245 334 L245 334 Z M163 674 C123 674 91 642 91 603 C91 563 124 530 164 530 C203 530 236 562 236 601 C236 642 204 674 163 674 L163 674 Z M355 674 C315 674 283 642 283 603 C283 563 316 530 356 530 C395 530 428 562 428 601 C428 642 396 674 355 674 L355 674 Z " />
<glyph glyph-name="aring" unicode="&#xe5;" horiz-adv-x="497" d="M457 0 L457 467 L281 467 L282 447 L284 419 C284 416 285 407 286 393 C255 453 223 477 174 477 C83 477 27 385 27 237 C27 84 81 -10 169 -10 C223 -10 258 16 290 79 C288 65 287 53 287 48 C287 45 286 36 285 22 L284 0 L457 0 Z M245 334 C272 334 282 309 282 239 C282 166 269 133 241 133 C214 133 201 161 201 218 C201 298 215 334 245 334 L245 334 Z M269 716 C216 716 173 673 173 620 C173 567 216 524 269 524 C322 524 365 567 365 618 C365 673 323 716 269 716 L269 716 Z M269 661 C291 661 309 643 309 620 C309 597 291 579 269 579 C246 579 228 597 228 620 C228 643 246 661 269 661 L269 661 Z " />
<glyph glyph-name="ae" unicode="&#xe6;" horiz-adv-x="735" d="M537 153 C529 129 516 118 497 118 C470 118 454 146 452 198 L707 198 C708 212 708 222 708 230 C708 379 623 478 495 478 C446 478 407 465 361 432 C320 465 281 478 217 478 C173 478 137 473 78 457 L78 321 C116 340 151 348 193 348 C249 348 279 330 285 291 C246 299 225 301 197 301 C92 301 27 243 27 152 C27 58 102 -10 205 -10 C256 -10 309 7 355 38 C398 4 437 -10 493 -10 C560 -10 607 6 645 42 C674 69 688 96 702 150 L537 153 Z M241 191 C268 191 286 175 286 150 C286 125 269 109 241 109 C214 109 196 125 196 149 C196 174 214 191 241 191 L241 191 Z M452 291 C456 336 469 356 494 356 C519 356 533 336 539 291 L452 291 Z " />
<glyph glyph-name="ccedilla" unicode="&#xe7;" horiz-adv-x="303" d="M283 152 L271 152 C235 152 206 191 206 240 C206 290 233 320 283 323 L283 475 C268 476 256 477 248 477 C121 477 27 374 27 236 C27 167 52 96 93 50 C127 12 179 -10 236 -10 C246 -10 265 -9 283 -7 L283 152 Z M266 -100 L185 -47 L87 -170 L153 -217 L266 -100 Z " />
<glyph glyph-name="egrave" unicode="&#xe8;" horiz-adv-x="481" d="M279 158 C273 137 259 125 240 125 C215 125 203 147 200 197 L454 197 C455 211 455 222 455 228 C455 379 373 476 245 476 C117 476 27 373 27 225 C27 79 107 -10 241 -10 C351 -10 425 48 448 155 L279 158 Z M202 290 C204 327 218 349 242 349 C266 349 281 327 283 290 L202 290 Z M305 530 L258 678 L118 678 L206 530 L305 530 Z " />
<glyph glyph-name="eacute" unicode="&#xe9;" horiz-adv-x="481" d="M279 158 C273 137 259 125 240 125 C215 125 203 147 200 197 L454 197 C455 211 455 222 455 228 C455 379 373 476 245 476 C117 476 27 373 27 225 C27 79 107 -10 241 -10 C351 -10 425 48 448 155 L279 158 Z M202 290 C204 327 218 349 242 349 C266 349 281 327 283 290 L202 290 Z M181 530 L281 530 L368 678 L229 678 L181 530 Z " />
<glyph glyph-name="ecircumflex" unicode="&#xea;" horiz-adv-x="481" d="M279 158 C273 137 259 125 240 125 C215 125 203 147 200 197 L454 197 C455 211 455 222 455 228 C455 379 373 476 245 476 C117 476 27 373 27 225 C27 79 107 -10 241 -10 C351 -10 425 48 448 155 L279 158 Z M202 290 C204 327 218 349 242 349 C266 349 281 327 283 290 L202 290 Z M393 530 L322 669 L165 669 L89 530 L192 530 L231 598 L266 530 L393 530 Z " />
<glyph glyph-name="edieresis" unicode="&#xeb;" horiz-adv-x="481" d="M279 158 C273 137 259 125 240 125 C215 125 203 147 200 197 L454 197 C455 211 455 222 455 228 C455 379 373 476 245 476 C117 476 27 373 27 225 C27 79 107 -10 241 -10 C351 -10 425 48 448 155 L279 158 Z M202 290 C204 327 218 349 242 349 C266 349 281 327 283 290 L202 290 Z M145 674 C105 674 73 642 73 603 C73 563 106 530 146 530 C185 530 218 562 218 601 C218 642 186 674 145 674 L145 674 Z M337 674 C297 674 265 642 265 603 C265 563 298 530 338 530 C377 530 410 562 410 601 C410 642 378 674 337 674 L337 674 Z " />
<glyph glyph-name="igrave" unicode="&#xec;" horiz-adv-x="253" d="M213 0 L213 467 L40 467 L40 0 L213 0 Z M187 530 L140 678 L0 678 L88 530 L187 530 Z " />
<glyph glyph-name="iacute" unicode="&#xed;" horiz-adv-x="253" d="M213 0 L213 467 L40 467 L40 0 L213 0 Z M67 530 L166 530 L254 678 L114 678 L67 530 Z " />
<glyph glyph-name="icircumflex" unicode="&#xee;" horiz-adv-x="253" d="M213 0 L213 467 L40 467 L40 0 L213 0 Z M272 530 L207 669 L51 669 L-19 530 L84 530 L117 598 L145 530 L272 530 Z " />
<glyph glyph-name="idieresis" unicode="&#xef;" horiz-adv-x="253" d="M213 0 L213 467 L40 467 L40 0 L213 0 Z M206 657 C171 657 143 629 143 594 C143 559 172 530 207 530 C241 530 270 559 270 593 C270 629 242 657 206 657 L206 657 Z M46 657 C10 657 -18 629 -18 594 C-18 558 10 530 45 530 C80 530 109 559 109 594 C109 629 81 657 46 657 L46 657 Z " />
<glyph glyph-name="eth" unicode="&#xf0;" horiz-adv-x="488" d="M41 661 C74 647 81 643 120 619 C124 617 129 614 136 609 L44 559 L80 496 L189 556 C205 537 222 509 235 476 C187 475 155 465 123 443 C62 400 27 324 27 232 C27 83 110 -10 244 -10 C311 -10 364 13 404 57 C444 103 462 162 462 247 C462 397 406 527 302 617 L386 663 L351 728 L236 665 C198 690 123 723 86 731 L41 661 Z M243 345 C274 345 293 300 293 231 C293 165 273 120 244 120 C214 120 194 165 194 232 C194 300 214 345 243 345 L243 345 Z " />
<glyph glyph-name="ntilde" unicode="&#xf1;" horiz-adv-x="491" d="M451 0 L451 319 C451 366 444 397 428 423 C408 456 370 477 332 477 C279 477 237 444 209 378 L211 418 C212 434 212 441 213 467 L40 467 L40 0 L213 0 L213 235 C213 282 225 304 250 304 C271 304 278 290 278 247 L278 0 L451 0 Z M326 665 C324 639 316 628 298 628 C290 628 279 631 270 635 C212 660 205 662 177 662 C132 662 95 632 81 586 C77 571 76 559 76 530 L167 530 C168 555 176 566 194 566 C204 566 213 563 236 553 C270 536 286 532 311 532 C373 532 416 581 416 651 L416 665 L326 665 Z " />
<glyph glyph-name="ograve" unicode="&#xf2;" horiz-adv-x="487" d="M242 477 C113 477 27 379 27 232 C27 84 110 -10 242 -10 C375 -10 461 82 461 226 C461 383 379 477 242 477 L242 477 Z M244 346 C274 346 293 301 293 232 C293 166 273 121 244 121 C215 121 195 166 195 233 C195 301 215 346 244 346 L244 346 Z M305 530 L258 678 L118 678 L206 530 L305 530 Z " />
<glyph glyph-name="oacute" unicode="&#xf3;" horiz-adv-x="487" d="M242 477 C113 477 27 379 27 232 C27 84 110 -10 242 -10 C375 -10 461 82 461 226 C461 383 379 477 242 477 L242 477 Z M244 346 C274 346 293 301 293 232 C293 166 273 121 244 121 C215 121 195 166 195 233 C195 301 215 346 244 346 L244 346 Z M184 530 L284 530 L371 678 L232 678 L184 530 Z " />
<glyph glyph-name="ocircumflex" unicode="&#xf4;" horiz-adv-x="487" d="M242 477 C113 477 27 379 27 232 C27 84 110 -10 242 -10 C375 -10 461 82 461 226 C461 383 379 477 242 477 L242 477 Z M244 346 C274 346 293 301 293 232 C293 166 273 121 244 121 C215 121 195 166 195 233 C195 301 215 346 244 346 L244 346 Z M396 530 L325 669 L169 669 L92 530 L195 530 L234 598 L269 530 L396 530 Z " />
<glyph glyph-name="otilde" unicode="&#xf5;" horiz-adv-x="487" d="M242 477 C113 477 27 379 27 232 C27 84 110 -10 242 -10 C375 -10 461 82 461 226 C461 383 379 477 242 477 L242 477 Z M244 346 C274 346 293 301 293 232 C293 166 273 121 244 121 C215 121 195 166 195 233 C195 301 215 346 244 346 L244 346 Z M328 665 C326 639 318 628 300 628 C292 628 281 631 272 635 C214 660 207 662 179 662 C134 662 97 632 83 586 C79 571 78 559 78 530 L169 530 C170 555 178 566 196 566 C206 566 215 563 238 553 C272 536 288 532 313 532 C375 532 418 581 418 651 L418 665 L328 665 Z " />
<glyph glyph-name="odieresis" unicode="&#xf6;" horiz-adv-x="487" d="M242 477 C113 477 27 379 27 232 C27 84 110 -10 242 -10 C375 -10 461 82 461 226 C461 383 379 477 242 477 L242 477 Z M244 346 C274 346 293 301 293 232 C293 166 273 121 244 121 C215 121 195 166 195 233 C195 301 215 346 244 346 L244 346 Z M148 674 C108 674 76 642 76 603 C76 563 109 530 149 530 C188 530 221 562 221 601 C221 642 189 674 148 674 L148 674 Z M340 674 C300 674 268 642 268 603 C268 563 301 530 341 530 C380 530 413 562 413 601 C413 642 381 674 340 674 L340 674 Z " />
<glyph glyph-name="divide" unicode="&#xf7;" horiz-adv-x="533" d="M40 288 L493 288 L493 392 L40 392 L40 288 Z M266 235 C221 235 184 199 184 154 C184 108 221 71 267 71 C312 71 349 107 349 151 C349 198 312 235 266 235 L266 235 Z M266 609 C221 609 184 573 184 528 C184 482 221 445 267 445 C312 445 349 481 349 525 C349 572 312 609 266 609 L266 609 Z " />
<glyph glyph-name="oslash" unicode="&#xf8;" horiz-adv-x="487" d="M141 11 C177 -5 202 -10 241 -10 C376 -10 461 82 461 229 C461 299 445 355 411 401 L461 473 L393 519 L347 454 C313 470 282 477 242 477 C113 477 27 379 27 232 C27 165 43 113 77 65 L27 -8 L95 -56 L141 11 Z M244 346 C274 346 293 301 293 232 C293 166 273 121 244 121 C215 121 195 166 195 233 C195 301 215 346 244 346 L244 346 Z " />
<glyph glyph-name="ugrave" unicode="&#xf9;" horiz-adv-x="499" d="M40 467 L40 180 C40 110 60 67 107 33 C147 5 196 -10 250 -10 C303 -10 352 5 392 33 C439 67 459 110 459 180 L459 467 L286 467 L286 204 C286 150 278 135 250 135 C221 135 213 150 213 204 L213 467 L40 467 Z M307 530 L260 678 L120 678 L208 530 L307 530 Z " />
<glyph glyph-name="uacute" unicode="&#xfa;" horiz-adv-x="499" d="M40 467 L40 180 C40 110 60 67 107 33 C147 5 196 -10 250 -10 C303 -10 352 5 392 33 C439 67 459 110 459 180 L459 467 L286 467 L286 204 C286 150 278 135 250 135 C221 135 213 150 213 204 L213 467 L40 467 Z M197 530 L296 530 L384 678 L244 678 L197 530 Z " />
<glyph glyph-name="ucircumflex" unicode="&#xfb;" horiz-adv-x="499" d="M40 467 L40 180 C40 110 60 67 107 33 C147 5 196 -10 250 -10 C303 -10 352 5 392 33 C439 67 459 110 459 180 L459 467 L286 467 L286 204 C286 150 278 135 250 135 C221 135 213 150 213 204 L213 467 L40 467 Z M402 530 L331 669 L174 669 L98 530 L201 530 L240 598 L275 530 L402 530 Z " />
<glyph glyph-name="udieresis" unicode="&#xfc;" horiz-adv-x="499" d="M40 467 L40 180 C40 110 60 67 107 33 C147 5 196 -10 250 -10 C303 -10 352 5 392 33 C439 67 459 110 459 180 L459 467 L286 467 L286 204 C286 150 278 135 250 135 C221 135 213 150 213 204 L213 467 L40 467 Z M154 674 C114 674 82 642 82 603 C82 563 115 530 155 530 C194 530 227 562 227 601 C227 642 195 674 154 674 L154 674 Z M346 674 C306 674 274 642 274 603 C274 563 307 530 347 530 C386 530 419 562 419 601 C419 642 387 674 346 674 L346 674 Z " />
<glyph glyph-name="yacute" unicode="&#xfd;" horiz-adv-x="456" d="M241 -196 L456 467 L283 467 L257 366 C248 327 242 295 229 202 C225 247 216 300 207 333 L174 467 L0 467 L139 19 L63 -196 L241 -196 Z M178 530 L277 530 L365 678 L225 678 L178 530 Z " />
<glyph glyph-name="thorn" unicode="&#xfe;" horiz-adv-x="495" d="M213 -209 L213 -14 C211 28 211 35 209 63 C243 10 274 -10 319 -10 C411 -10 468 84 468 233 C468 379 407 477 316 477 C268 477 237 456 209 401 C211 423 213 446 213 467 L213 729 L40 729 L40 -209 L213 -209 Z M248 334 C274 334 289 298 289 238 C289 175 273 136 247 136 C223 136 208 173 208 236 C208 298 223 334 248 334 L248 334 Z " />
<glyph glyph-name="ydieresis" unicode="&#xff;" horiz-adv-x="456" d="M241 -196 L456 467 L283 467 L257 366 C248 327 242 295 229 202 C225 247 216 300 207 333 L174 467 L0 467 L139 19 L63 -196 L241 -196 Z M132 674 C92 674 60 642 60 603 C60 563 93 530 133 530 C172 530 205 562 205 601 C205 642 173 674 132 674 L132 674 Z M324 674 C284 674 252 642 252 603 C252 563 285 530 325 530 C364 530 397 562 397 601 C397 642 365 674 324 674 L324 674 Z " />
<glyph glyph-name="Amacron" unicode="&#x100;" horiz-adv-x="532" d="M527 0 L386 667 L165 667 L5 0 L191 0 L206 85 L327 85 L340 0 L527 0 Z M306 228 L230 228 L249 333 L254 372 L260 413 C261 416 263 432 265 455 L272 508 L278 445 C280 420 283 396 283 392 C293 316 293 316 294 306 L306 228 Z M112 734 L432 734 L432 827 L112 827 L112 734 Z " />
<glyph glyph-name="amacron" unicode="&#x101;" horiz-adv-x="497" d="M457 0 L457 467 L281 467 L282 447 L284 419 C284 416 285 407 286 393 C255 453 223 477 174 477 C83 477 27 385 27 237 C27 84 81 -10 169 -10 C223 -10 258 16 290 79 C288 65 287 53 287 48 C287 45 286 36 285 22 L284 0 L457 0 Z M245 334 C272 334 282 309 282 239 C282 166 269 133 241 133 C214 133 201 161 201 218 C201 298 215 334 245 334 L245 334 Z M102 546 L415 546 L415 643 L102 643 L102 546 Z " />
<glyph glyph-name="Abreve" unicode="&#x102;" horiz-adv-x="532" d="M527 0 L386 667 L165 667 L5 0 L191 0 L206 85 L327 85 L340 0 L527 0 Z M306 228 L230 228 L249 333 L254 372 L260 413 C261 416 263 432 265 455 L272 508 L278 445 C280 420 283 396 283 392 C293 316 293 316 294 306 L306 228 Z M112 866 C121 773 181 717 272 717 C365 717 424 772 433 866 L363 866 C347 825 325 812 273 812 C220 812 198 825 182 866 L112 866 Z " />
<glyph glyph-name="abreve" unicode="&#x103;" horiz-adv-x="497" d="M457 0 L457 467 L281 467 L282 447 L284 419 C284 416 285 407 286 393 C255 453 223 477 174 477 C83 477 27 385 27 237 C27 84 81 -10 169 -10 C223 -10 258 16 290 79 C288 65 287 53 287 48 C287 45 286 36 285 22 L284 0 L457 0 Z M245 334 C272 334 282 309 282 239 C282 166 269 133 241 133 C214 133 201 161 201 218 C201 298 215 334 245 334 L245 334 Z M95 679 C99 639 107 616 128 589 C158 548 197 530 253 530 C348 530 399 579 409 679 L339 679 C324 639 302 625 255 625 C203 625 181 639 165 679 L95 679 Z " />
<glyph glyph-name="Aogonek" unicode="&#x104;" horiz-adv-x="532" d="M386 667 L165 667 L5 0 L191 0 L206 85 L327 85 L340 0 L462 0 C420 -37 405 -62 405 -94 C405 -143 443 -174 503 -174 C524 -174 537 -172 558 -164 L567 -92 C549 -97 539 -99 529 -99 C505 -99 491 -86 491 -65 C491 -45 502 -25 527 0 L386 667 Z M306 228 L230 228 L249 333 L254 372 L260 413 C261 416 263 432 265 455 L272 508 L278 445 C280 420 283 396 283 392 C293 316 293 316 294 306 L306 228 Z " />
<glyph glyph-name="aogonek" unicode="&#x105;" horiz-adv-x="497" d="M457 467 L281 467 L282 447 L284 419 C284 416 285 407 286 393 C255 453 223 477 174 477 C83 477 27 385 27 237 C27 84 81 -10 169 -10 C223 -10 258 16 290 79 C288 65 287 53 287 48 C287 45 286 36 285 22 L284 0 L396 0 C362 -29 344 -60 344 -91 C344 -138 387 -171 446 -171 C464 -171 474 -169 489 -162 L497 -92 C482 -97 474 -98 463 -98 C438 -98 423 -85 423 -63 C423 -42 435 -20 457 0 L457 467 Z M245 334 C272 334 282 309 282 239 C282 166 269 133 241 133 C214 133 201 161 201 218 C201 298 215 334 245 334 L245 334 Z " />
<glyph glyph-name="Cacute" unicode="&#x106;" horiz-adv-x="445" d="M422 205 C386 173 362 162 328 162 C256 162 214 226 214 334 C214 446 258 512 331 512 C363 512 383 502 414 472 L414 663 C382 675 360 679 325 679 C242 679 171 649 117 591 C58 527 30 443 30 331 C30 229 53 150 100 89 C150 24 223 -12 304 -12 C342 -12 367 -6 411 12 L422 205 Z M422 871 L281 871 L238 720 L338 720 L422 871 Z " />
<glyph glyph-name="cacute" unicode="&#x107;" horiz-adv-x="303" d="M283 152 L271 152 C235 152 206 191 206 240 C206 290 233 320 283 323 L283 475 C268 476 256 477 248 477 C121 477 27 374 27 236 C27 167 52 96 93 50 C127 12 179 -10 236 -10 C246 -10 265 -9 283 -7 L283 152 Z M139 530 L238 530 L326 678 L186 678 L139 530 Z " />
<glyph glyph-name="Ccircumflex" unicode="&#x108;" horiz-adv-x="445" d="M422 205 C386 173 362 162 328 162 C256 162 214 226 214 334 C214 446 258 512 331 512 C363 512 383 502 414 472 L414 663 C382 675 360 679 325 679 C242 679 171 649 117 591 C58 527 30 443 30 331 C30 229 53 150 100 89 C150 24 223 -12 304 -12 C342 -12 367 -6 411 12 L422 205 Z M437 720 L355 858 L202 858 L115 720 L229 720 L267 780 L301 720 L437 720 Z " />
<glyph glyph-name="ccircumflex" unicode="&#x109;" horiz-adv-x="303" d="M283 152 L271 152 C235 152 206 191 206 240 C206 290 233 320 283 323 L283 475 C268 476 256 477 248 477 C121 477 27 374 27 236 C27 167 52 96 93 50 C127 12 179 -10 236 -10 C246 -10 265 -9 283 -7 L283 152 Z M343 530 L272 669 L116 669 L39 530 L142 530 L181 598 L216 530 L343 530 Z " />
<glyph glyph-name="Cdotaccent" unicode="&#x10a;" horiz-adv-x="445" d="M422 205 C386 173 362 162 328 162 C256 162 214 226 214 334 C214 446 258 512 331 512 C363 512 383 502 414 472 L414 663 C382 675 360 679 325 679 C242 679 171 649 117 591 C58 527 30 443 30 331 C30 229 53 150 100 89 C150 24 223 -12 304 -12 C342 -12 367 -6 411 12 L422 205 Z M293 872 C252 872 218 838 218 796 C218 754 252 720 293 720 C335 720 369 755 369 796 C369 839 336 872 293 872 L293 872 Z " />
<glyph glyph-name="cdotaccent" unicode="&#x10b;" horiz-adv-x="303" d="M283 152 L271 152 C235 152 206 191 206 240 C206 290 233 320 283 323 L283 475 C268 476 256 477 248 477 C121 477 27 374 27 236 C27 167 52 96 93 50 C127 12 179 -10 236 -10 C246 -10 265 -9 283 -7 L283 152 Z M199 681 C157 681 123 648 123 606 C123 564 158 530 200 530 C242 530 276 564 276 605 C276 647 242 681 199 681 L199 681 Z " />
<glyph glyph-name="Ccaron" unicode="&#x10c;" horiz-adv-x="445" d="M422 205 C386 173 362 162 328 162 C256 162 214 226 214 334 C214 446 258 512 331 512 C363 512 383 502 414 472 L414 663 C382 675 360 679 325 679 C242 679 171 649 117 591 C58 527 30 443 30 331 C30 229 53 150 100 89 C150 24 223 -12 304 -12 C342 -12 367 -6 411 12 L422 205 Z M128 858 L210 720 L363 720 L450 858 L336 858 L298 798 L264 858 L128 858 Z " />
<glyph glyph-name="ccaron" unicode="&#x10d;" horiz-adv-x="303" d="M283 152 L271 152 C235 152 206 191 206 240 C206 290 233 320 283 323 L283 475 C268 476 256 477 248 477 C121 477 27 374 27 236 C27 167 52 96 93 50 C127 12 179 -10 236 -10 C246 -10 265 -9 283 -7 L283 152 Z M46 669 L111 530 L267 530 L337 669 L234 669 L201 601 L173 669 L46 669 Z " />
<glyph glyph-name="Dcaron" unicode="&#x10e;" horiz-adv-x="537" d="M47 0 L215 0 C313 0 376 23 425 77 C480 136 508 224 508 333 C508 437 482 516 426 579 C373 639 302 667 203 667 L47 667 L47 0 Z M227 500 C230 501 232 501 233 501 C287 504 324 434 324 328 C324 221 291 164 227 161 L227 500 Z M71 858 L154 720 L306 720 L393 858 L279 858 L241 798 L207 858 L71 858 Z " />
<glyph glyph-name="dcaron" unicode="&#x10f;" horiz-adv-x="671" d="M457 0 L457 729 L284 729 L284 474 L285 451 L285 427 C285 426 286 412 287 400 C256 456 226 477 176 477 C81 477 27 387 27 229 C27 80 83 -10 177 -10 C223 -10 250 9 284 63 C282 32 281 11 280 0 L457 0 Z M250 333 C275 333 289 299 289 238 C289 172 276 139 249 139 C221 139 206 173 206 235 C206 299 221 333 250 333 L250 333 Z M665 729 L548 729 L490 569 L583 569 L665 729 Z " />
<glyph glyph-name="Dcroat" unicode="&#x110;" horiz-adv-x="537" d="M47 0 L215 0 C312 0 376 23 425 77 C479 136 507 224 507 333 C507 436 481 516 425 579 C372 639 301 667 203 667 L47 667 L47 393 L7 393 L7 290 L47 290 L47 0 Z M227 290 L280 290 L280 393 L227 393 L227 500 C256 499 264 497 277 483 C307 453 323 398 323 328 C323 221 290 164 227 161 L227 290 Z " />
<glyph glyph-name="dcroat" unicode="&#x111;" horiz-adv-x="497" d="M457 0 L457 536 L504 536 L504 633 L457 633 L457 729 L284 729 L284 633 L190 633 L190 536 L284 536 L284 474 L285 451 L285 427 C285 426 286 412 287 400 C256 457 226 477 175 477 C81 477 27 387 27 229 C27 80 83 -10 177 -10 C223 -10 250 9 284 63 C282 32 281 11 280 0 L457 0 Z M250 333 C275 333 289 299 289 238 C289 172 276 139 249 139 C221 139 206 173 206 235 C206 299 221 333 250 333 L250 333 Z " />
<glyph glyph-name="Emacron" unicode="&#x112;" horiz-adv-x="411" d="M47 0 L382 0 L382 160 L227 160 L227 262 L366 262 L366 413 L227 413 L227 510 L382 510 L382 667 L47 667 L47 0 Z M54 734 L374 734 L374 827 L54 827 L54 734 Z " />
<glyph glyph-name="emacron" unicode="&#x113;" horiz-adv-x="481" d="M279 158 C273 137 259 125 240 125 C215 125 203 147 200 197 L454 197 C455 211 455 222 455 228 C455 379 373 476 245 476 C117 476 27 373 27 225 C27 79 107 -10 241 -10 C351 -10 425 48 448 155 L279 158 Z M202 290 C204 327 218 349 242 349 C266 349 281 327 283 290 L202 290 Z M81 546 L394 546 L394 643 L81 643 L81 546 Z " />
<glyph glyph-name="Ebreve" unicode="&#x114;" horiz-adv-x="411" d="M47 0 L382 0 L382 160 L227 160 L227 262 L366 262 L366 413 L227 413 L227 510 L382 510 L382 667 L47 667 L47 0 Z M55 866 C63 773 123 717 214 717 C307 717 367 772 375 866 L305 866 C289 825 267 812 215 812 C163 812 140 825 124 866 L55 866 Z " />
<glyph glyph-name="ebreve" unicode="&#x115;" horiz-adv-x="481" d="M279 158 C273 137 259 125 240 125 C215 125 203 147 200 197 L454 197 C455 211 455 222 455 228 C455 379 373 476 245 476 C117 476 27 373 27 225 C27 79 107 -10 241 -10 C351 -10 425 48 448 155 L279 158 Z M202 290 C204 327 218 349 242 349 C266 349 281 327 283 290 L202 290 Z M84 679 C88 639 96 616 117 589 C147 548 186 530 242 530 C337 530 388 579 398 679 L328 679 C313 639 291 625 244 625 C192 625 169 639 154 679 L84 679 Z " />
<glyph glyph-name="Edotaccent" unicode="&#x116;" horiz-adv-x="411" d="M47 0 L382 0 L382 160 L227 160 L227 262 L366 262 L366 413 L227 413 L227 510 L382 510 L382 667 L47 667 L47 0 Z M214 872 C173 872 139 838 139 796 C139 754 173 720 214 720 C256 720 290 755 290 796 C290 839 257 872 214 872 L214 872 Z " />
<glyph glyph-name="edotaccent" unicode="&#x117;" horiz-adv-x="481" d="M279 158 C273 137 259 125 240 125 C215 125 203 147 200 197 L454 197 C455 211 455 222 455 228 C455 379 373 476 245 476 C117 476 27 373 27 225 C27 79 107 -10 241 -10 C351 -10 425 48 448 155 L279 158 Z M202 290 C204 327 218 349 242 349 C266 349 281 327 283 290 L202 290 Z M241 681 C199 681 165 648 165 606 C165 564 200 530 242 530 C284 530 318 564 318 605 C318 647 284 681 241 681 L241 681 Z " />
<glyph glyph-name="Eogonek" unicode="&#x118;" horiz-adv-x="411" d="M47 0 L317 0 C275 -38 260 -62 260 -94 C260 -143 298 -174 358 -174 C380 -174 392 -172 413 -164 L422 -92 C404 -97 395 -99 384 -99 C361 -99 347 -86 347 -65 C347 -45 358 -25 382 0 L382 160 L227 160 L227 262 L366 262 L366 413 L227 413 L227 510 L382 510 L382 667 L47 667 L47 0 Z " />
<glyph glyph-name="eogonek" unicode="&#x119;" horiz-adv-x="481" d="M279 158 C273 138 259 126 240 126 C215 126 203 148 200 197 L454 197 C455 211 455 222 455 228 C455 379 373 476 245 476 C117 476 27 373 27 225 C27 81 107 -10 233 -10 C241 -10 254 -9 271 -7 C237 -37 224 -61 224 -92 C224 -138 267 -171 327 -171 C345 -171 354 -169 370 -162 L377 -92 C362 -97 354 -98 344 -98 C318 -98 303 -85 303 -63 C303 -28 317 -8 362 21 C407 50 437 95 448 155 L279 158 Z M202 290 C204 327 218 349 242 349 C266 349 281 327 283 290 L202 290 Z " />
<glyph glyph-name="Ecaron" unicode="&#x11a;" horiz-adv-x="411" d="M47 0 L382 0 L382 160 L227 160 L227 262 L366 262 L366 413 L227 413 L227 510 L382 510 L382 667 L47 667 L47 0 Z M54 858 L137 720 L289 720 L376 858 L262 858 L224 798 L190 858 L54 858 Z " />
<glyph glyph-name="ecaron" unicode="&#x11b;" horiz-adv-x="481" d="M279 158 C273 137 259 125 240 125 C215 125 203 147 200 197 L454 197 C455 211 455 222 455 228 C455 379 373 476 245 476 C117 476 27 373 27 225 C27 79 107 -10 241 -10 C351 -10 425 48 448 155 L279 158 Z M202 290 C204 327 218 349 242 349 C266 349 281 327 283 290 L202 290 Z M89 669 L160 530 L316 530 L393 669 L290 669 L251 601 L216 669 L89 669 Z " />
<glyph glyph-name="Gcircumflex" unicode="&#x11c;" horiz-adv-x="560" d="M279 385 L279 245 L345 245 C344 184 321 148 282 148 C235 148 214 199 214 313 C214 451 238 518 288 518 C316 518 336 492 341 449 L515 514 C469 623 391 679 287 679 C127 679 30 546 30 330 C30 116 127 -12 288 -12 C375 -12 450 32 486 103 C517 165 530 240 530 358 L530 385 L279 385 Z M448 720 L366 858 L213 858 L126 720 L240 720 L278 780 L312 720 L448 720 Z " />
<glyph glyph-name="gcircumflex" unicode="&#x11d;" horiz-adv-x="493" d="M453 467 L278 467 L282 406 C244 459 218 477 177 477 C88 477 27 377 27 234 C27 90 88 -7 178 -7 C219 -7 257 14 287 54 L287 -20 C287 -67 276 -86 247 -86 C225 -86 212 -72 210 -48 L33 -48 C50 -164 116 -217 243 -217 C301 -217 351 -202 389 -172 C435 -137 453 -92 453 -14 L453 467 Z M248 336 C273 336 285 302 285 235 C285 169 272 136 246 136 C221 136 206 175 206 237 C206 302 220 336 248 336 L248 336 Z M405 530 L334 669 L178 669 L101 530 L204 530 L243 598 L279 530 L405 530 Z " />
<glyph glyph-name="Gbreve" unicode="&#x11e;" horiz-adv-x="560" d="M279 385 L279 245 L345 245 C344 184 321 148 282 148 C235 148 214 199 214 313 C214 451 238 518 288 518 C316 518 336 492 341 449 L515 514 C469 623 391 679 287 679 C127 679 30 546 30 330 C30 116 127 -12 288 -12 C375 -12 450 32 486 103 C517 165 530 240 530 358 L530 385 L279 385 Z M123 866 C132 773 192 717 283 717 C376 717 435 772 444 866 L374 866 C358 825 336 812 283 812 C231 812 209 825 193 866 L123 866 Z " />
<glyph glyph-name="gbreve" unicode="&#x11f;" horiz-adv-x="493" d="M453 467 L278 467 L282 406 C244 459 218 477 177 477 C88 477 27 377 27 234 C27 90 88 -7 178 -7 C219 -7 257 14 287 54 L287 -20 C287 -67 276 -86 247 -86 C225 -86 212 -72 210 -48 L33 -48 C50 -164 116 -217 243 -217 C301 -217 351 -202 389 -172 C435 -137 453 -92 453 -14 L453 467 Z M248 336 C273 336 285 302 285 235 C285 169 272 136 246 136 C221 136 206 175 206 237 C206 302 220 336 248 336 L248 336 Z M93 679 C97 639 105 616 126 589 C156 548 195 530 251 530 C346 530 397 579 407 679 L337 679 C322 639 300 625 253 625 C201 625 179 639 163 679 L93 679 Z " />
<glyph glyph-name="Gdotaccent" unicode="&#x120;" horiz-adv-x="560" d="M279 385 L279 245 L345 245 C344 184 321 148 282 148 C235 148 214 199 214 313 C214 451 238 518 288 518 C316 518 336 492 341 449 L515 514 C469 623 391 679 287 679 C127 679 30 546 30 330 C30 116 127 -12 288 -12 C375 -12 450 32 486 103 C517 165 530 240 530 358 L530 385 L279 385 Z M287 872 C246 872 212 838 212 796 C212 754 246 720 287 720 C329 720 363 755 363 796 C363 839 330 872 287 872 L287 872 Z " />
<glyph glyph-name="gdotaccent" unicode="&#x121;" horiz-adv-x="493" d="M453 467 L278 467 L282 406 C244 459 218 477 177 477 C88 477 27 377 27 234 C27 90 88 -7 178 -7 C219 -7 257 14 287 54 L287 -20 C287 -67 276 -86 247 -86 C225 -86 212 -72 210 -48 L33 -48 C50 -164 116 -217 243 -217 C301 -217 351 -202 389 -172 C435 -137 453 -92 453 -14 L453 467 Z M248 336 C273 336 285 302 285 235 C285 169 272 136 246 136 C221 136 206 175 206 237 C206 302 220 336 248 336 L248 336 Z M250 681 C208 681 174 648 174 606 C174 564 209 530 251 530 C293 530 327 564 327 605 C327 647 293 681 250 681 L250 681 Z " />
<glyph glyph-name="Gcommaaccent" unicode="&#x122;" horiz-adv-x="560" d="M279 385 L279 245 L345 245 C344 184 321 148 282 148 C235 148 214 199 214 313 C214 451 238 518 288 518 C316 518 336 492 341 449 L515 514 C469 623 391 679 287 679 C127 679 30 546 30 330 C30 116 127 -12 288 -12 C375 -12 450 32 486 103 C517 165 530 240 530 358 L530 385 L279 385 Z M354 -54 L231 -54 L174 -214 L273 -214 L354 -54 Z " />
<glyph glyph-name="gcommaaccent" unicode="&#x123;" horiz-adv-x="493" d="M453 467 L278 467 L282 406 C244 459 218 477 177 477 C88 477 27 377 27 234 C27 90 88 -7 178 -7 C219 -7 257 14 287 54 L287 -20 C287 -67 276 -86 247 -86 C225 -86 212 -72 210 -48 L33 -48 C50 -164 116 -217 243 -217 C301 -217 351 -202 389 -172 C435 -137 453 -92 453 -14 L453 467 Z M248 336 C273 336 285 302 285 235 C285 169 272 136 246 136 C221 136 206 175 206 237 C206 302 220 336 248 336 L248 336 Z M186 530 L303 530 L360 690 L268 690 L186 530 Z " />
<glyph glyph-name="Hcircumflex" unicode="&#x124;" horiz-adv-x="539" d="M493 0 L493 667 L313 667 L313 431 L227 431 L227 667 L47 667 L47 0 L227 0 L227 268 L313 268 L313 0 L493 0 Z M431 720 L349 858 L196 858 L109 720 L223 720 L261 780 L296 720 L431 720 Z " />
<glyph glyph-name="hcircumflex" unicode="&#x125;" horiz-adv-x="491" d="M450 0 L450 319 C450 366 443 397 427 423 C407 456 369 477 331 477 C278 477 237 444 209 378 C210 393 211 403 211 408 L212 433 L213 469 L213 729 L40 729 L40 0 L213 0 L213 235 C213 282 225 304 249 304 C270 304 277 289 277 247 L277 0 L450 0 Z M334 779 L252 917 L99 917 L12 779 L126 779 L164 839 L199 779 L334 779 Z " />
<glyph glyph-name="Hbar" unicode="&#x126;" horiz-adv-x="539" d="M3 489 L47 489 L47 0 L227 0 L227 268 L313 268 L313 0 L493 0 L493 489 L537 489 L537 572 L493 572 L493 667 L313 667 L313 572 L227 572 L227 667 L47 667 L47 572 L3 572 L3 489 Z M227 489 L313 489 L313 431 L227 431 L227 489 Z " />
<glyph glyph-name="hbar" unicode="&#x127;" horiz-adv-x="491" d="M-7 536 L40 536 L40 0 L213 0 L213 235 C213 282 225 304 249 304 C270 304 277 289 277 247 L277 0 L450 0 L450 319 C450 366 443 397 427 423 C406 456 370 477 331 477 C277 477 237 444 209 378 C210 393 211 403 211 408 L212 433 L213 469 L213 536 L306 536 L306 633 L213 633 L213 729 L40 729 L40 633 L-7 633 L-7 536 Z " />
<glyph glyph-name="Itilde" unicode="&#x128;" horiz-adv-x="273" d="M227 0 L227 667 L47 667 L47 0 L227 0 Z M217 855 C216 829 207 818 189 818 C182 818 171 821 161 825 C104 850 96 852 68 852 C23 852 -14 822 -28 776 C-32 761 -33 749 -33 720 L58 720 C59 745 68 756 85 756 C95 756 104 753 127 743 C161 726 178 722 202 722 C264 722 307 771 307 841 L307 855 L217 855 Z " />
<glyph glyph-name="itilde" unicode="&#x129;" horiz-adv-x="253" d="M213 0 L213 467 L40 467 L40 0 L213 0 Z M207 665 C206 639 197 628 179 628 C172 628 161 631 151 635 C94 660 86 662 58 662 C13 662 -24 632 -38 586 C-42 571 -43 559 -43 530 L48 530 C49 555 58 566 75 566 C85 566 94 563 117 553 C151 536 168 532 192 532 C254 532 297 581 297 651 L297 665 L207 665 Z " />
<glyph glyph-name="Imacron" unicode="&#x12a;" horiz-adv-x="273" d="M227 0 L227 667 L47 667 L47 0 L227 0 Z M-3 734 L277 734 L277 827 L-3 827 L-3 734 Z " />
<glyph glyph-name="imacron" unicode="&#x12b;" horiz-adv-x="253" d="M213 0 L213 467 L40 467 L40 0 L213 0 Z M-13 546 L267 546 L267 643 L-13 643 L-13 546 Z " />
<glyph glyph-name="Ibreve" unicode="&#x12c;" horiz-adv-x="273" d="M227 0 L227 667 L47 667 L47 0 L227 0 Z M-24 866 C-16 773 44 717 135 717 C229 717 288 772 296 866 L227 866 C211 825 188 812 136 812 C84 812 62 825 46 866 L-24 866 Z " />
<glyph glyph-name="ibreve" unicode="&#x12d;" horiz-adv-x="253" d="M213 0 L213 467 L40 467 L40 0 L213 0 Z M-20 679 C-10 579 38 530 127 530 C219 530 263 574 274 679 L204 679 C187 636 169 624 126 624 C84 624 67 637 50 679 L-20 679 Z " />
<glyph glyph-name="Iogonek" unicode="&#x12e;" horiz-adv-x="273" d="M47 0 L147 0 C105 -28 84 -59 84 -95 C84 -143 122 -174 182 -174 C204 -174 216 -172 237 -164 L246 -92 C228 -97 219 -99 208 -99 C184 -99 170 -86 170 -64 C170 -32 190 -10 227 0 L227 667 L47 667 L47 0 Z " />
<glyph glyph-name="iogonek" unicode="&#x12f;" horiz-adv-x="253" d="M213 467 L40 467 L40 0 L139 0 C102 -21 80 -56 80 -91 C80 -138 123 -171 183 -171 C200 -171 210 -169 225 -162 L233 -92 C218 -97 210 -98 199 -98 C173 -98 159 -85 159 -61 C159 -30 179 -7 213 0 L213 467 Z M127 713 C71 713 26 668 26 612 C26 557 71 511 127 511 C182 511 228 556 228 611 C228 668 183 713 127 713 L127 713 Z " />
<glyph glyph-name="Idotaccent" unicode="&#x130;" horiz-adv-x="273" d="M227 0 L227 667 L47 667 L47 0 L227 0 Z M136 872 C95 872 61 838 61 796 C61 754 95 720 136 720 C178 720 212 755 212 796 C212 839 179 872 136 872 L136 872 Z " />
<glyph glyph-name="dotlessi" unicode="&#x131;" horiz-adv-x="253" d="M213 0 L213 467 L40 467 L40 0 L213 0 Z " />
<glyph glyph-name="IJ" unicode="&#x132;" horiz-adv-x="624" d="M227 0 L227 667 L47 667 L47 0 L227 0 Z M270 10 C316 -6 349 -12 388 -12 C451 -12 501 8 533 45 C566 84 578 125 578 204 L578 667 L398 667 L398 240 C398 183 380 157 343 157 C315 157 291 170 270 196 L270 10 Z " />
<glyph glyph-name="ij" unicode="&#x133;" horiz-adv-x="503" d="M213 0 L213 467 L40 467 L40 0 L213 0 Z M127 713 C71 713 26 668 26 612 C26 557 71 511 127 511 C182 511 228 556 228 611 C228 668 183 713 127 713 L127 713 Z M463 -205 L463 467 L289 467 L290 -205 L463 -205 Z M376 713 C320 713 275 668 275 612 C275 557 320 511 376 511 C431 511 477 556 477 611 C477 668 432 713 376 713 L376 713 Z " />
<glyph glyph-name="Jcircumflex" unicode="&#x134;" horiz-adv-x="354" d="M0 10 C46 -6 79 -12 117 -12 C180 -12 230 8 262 45 C295 84 307 125 307 204 L307 667 L127 667 L127 240 C127 183 110 157 72 157 C44 157 21 170 0 196 L0 10 Z M388 720 L306 858 L154 858 L66 720 L181 720 L218 780 L253 720 L388 720 Z " />
<glyph glyph-name="jcircumflex" unicode="&#x135;" horiz-adv-x="254" d="M213 -205 L213 467 L39 467 L40 -205 L213 -205 Z M285 530 L214 669 L58 669 L-19 530 L84 530 L123 598 L158 530 L285 530 Z " />
<glyph glyph-name="Kcommaaccent" unicode="&#x136;" horiz-adv-x="541" d="M536 0 L375 345 L519 667 L328 667 L222 381 L227 667 L47 667 L47 0 L227 0 L222 307 L342 0 L536 0 Z M339 -54 L215 -54 L158 -214 L257 -214 L339 -54 Z " />
<glyph glyph-name="kcommaaccent" unicode="&#x137;" horiz-adv-x="495" d="M295 0 L494 0 L368 253 L483 467 L295 467 L239 329 C226 296 222 285 213 257 L213 729 L40 729 L40 0 L213 0 L213 234 C221 203 225 192 228 181 L295 0 Z M312 -54 L195 -54 L137 -214 L230 -214 L312 -54 Z " />
<glyph glyph-name="kgreenlandic" unicode="&#x138;" horiz-adv-x="495" d="M295 0 L494 0 L368 253 L483 467 L295 467 L239 329 C226 296 222 285 213 257 L213 467 L40 467 L40 0 L213 0 L213 234 C221 203 225 192 228 181 L295 0 Z " />
<glyph glyph-name="Lacute" unicode="&#x139;" horiz-adv-x="369" d="M362 0 L362 160 L227 160 L227 667 L47 667 L47 0 L362 0 Z M268 871 L127 871 L83 720 L183 720 L268 871 Z " />
<glyph glyph-name="lacute" unicode="&#x13a;" horiz-adv-x="253" d="M213 0 L213 693 L40 693 L40 0 L213 0 Z M246 891 L105 891 L65 740 L168 740 L246 891 Z " />
<glyph glyph-name="Lcommaaccent" unicode="&#x13b;" horiz-adv-x="369" d="M362 0 L362 160 L227 160 L227 667 L47 667 L47 0 L362 0 Z M272 -54 L149 -54 L91 -214 L191 -214 L272 -54 Z " />
<glyph glyph-name="lcommaaccent" unicode="&#x13c;" horiz-adv-x="253" d="M213 0 L213 729 L40 729 L40 0 L213 0 Z M191 -54 L74 -54 L17 -214 L110 -214 L191 -54 Z " />
<glyph glyph-name="Lcaron" unicode="&#x13d;" horiz-adv-x="448" d="M362 0 L362 160 L227 160 L227 667 L47 667 L47 0 L362 0 Z M448 667 L324 667 L267 507 L366 507 L448 667 Z " />
<glyph glyph-name="lcaron" unicode="&#x13e;" horiz-adv-x="428" d="M213 0 L213 729 L40 729 L40 0 L213 0 Z M421 729 L304 729 L247 569 L339 569 L421 729 Z " />
<glyph glyph-name="Ldot" unicode="&#x13f;" horiz-adv-x="369" d="M362 0 L362 160 L227 160 L227 667 L47 667 L47 0 L362 0 Z M320 419 C280 419 247 383 247 339 C247 294 281 258 322 258 C362 258 396 294 396 337 C396 383 363 419 320 419 L320 419 Z " />
<glyph glyph-name="ldot" unicode="&#x140;" horiz-adv-x="426" d="M213 0 L213 729 L40 729 L40 0 L213 0 Z M340 419 C296 419 260 383 260 339 C260 294 296 258 341 258 C385 258 422 294 422 337 C422 383 386 419 340 419 L340 419 Z " />
<glyph glyph-name="Lslash" unicode="&#x141;" horiz-adv-x="375" d="M53 217 L53 0 L369 0 L369 160 L233 160 L233 312 L322 382 L322 506 L233 434 L233 667 L53 667 L53 337 L0 295 L0 174 L53 217 Z " />
<glyph glyph-name="lslash" unicode="&#x142;" horiz-adv-x="293" d="M60 260 L60 0 L233 0 L233 340 L280 378 L280 490 L233 453 L233 729 L60 729 L60 373 L13 337 L13 224 L60 260 Z " />
<glyph glyph-name="Nacute" unicode="&#x143;" horiz-adv-x="563" d="M47 0 L219 0 L219 170 C218 240 216 291 208 384 C221 336 227 320 254 245 L344 0 L516 0 L516 667 L344 667 L344 517 C344 456 349 389 364 265 C356 291 348 318 339 344 C327 382 322 399 309 433 L219 667 L47 667 L47 0 Z M408 871 L267 871 L223 720 L324 720 L408 871 Z " />
<glyph glyph-name="nacute" unicode="&#x144;" horiz-adv-x="491" d="M451 0 L451 319 C451 366 444 397 428 423 C408 456 370 477 332 477 C279 477 237 444 209 378 L211 418 C212 434 212 441 213 467 L40 467 L40 0 L213 0 L213 235 C213 282 225 304 250 304 C271 304 278 290 278 247 L278 0 L451 0 Z M186 530 L285 530 L373 678 L233 678 L186 530 Z " />
<glyph glyph-name="Ncommaaccent" unicode="&#x145;" horiz-adv-x="563" d="M47 0 L219 0 L219 170 C218 240 216 291 208 384 C221 336 227 320 254 245 L344 0 L516 0 L516 667 L344 667 L344 517 C344 456 349 389 364 265 C356 291 348 318 339 344 C327 382 322 399 309 433 L219 667 L47 667 L47 0 Z M349 -54 L226 -54 L168 -214 L268 -214 L349 -54 Z " />
<glyph glyph-name="ncommaaccent" unicode="&#x146;" horiz-adv-x="491" d="M451 0 L451 319 C451 366 444 397 428 423 C408 456 370 477 332 477 C279 477 237 444 209 378 L211 418 C212 434 212 441 213 467 L40 467 L40 0 L213 0 L213 235 C213 282 225 304 250 304 C271 304 278 290 278 247 L278 0 L451 0 Z M312 -54 L195 -54 L137 -214 L230 -214 L312 -54 Z " />
<glyph glyph-name="Ncaron" unicode="&#x147;" horiz-adv-x="563" d="M47 0 L219 0 L219 170 C218 240 216 291 208 384 C221 336 227 320 254 245 L344 0 L516 0 L516 667 L344 667 L344 517 C344 456 349 389 364 265 C356 291 348 318 339 344 C327 382 322 399 309 433 L219 667 L47 667 L47 0 Z M121 858 L203 720 L355 720 L443 858 L328 858 L291 798 L256 858 L121 858 Z " />
<glyph glyph-name="ncaron" unicode="&#x148;" horiz-adv-x="491" d="M451 0 L451 319 C451 366 444 397 428 423 C408 456 370 477 332 477 C279 477 237 444 209 378 L211 418 C212 434 212 441 213 467 L40 467 L40 0 L213 0 L213 235 C213 282 225 304 250 304 C271 304 278 290 278 247 L278 0 L451 0 Z M93 669 L164 530 L321 530 L397 669 L294 669 L255 601 L220 669 L93 669 Z " />
<glyph glyph-name="napostrophe" unicode="&#x149;" horiz-adv-x="722" d="M298 667 L122 667 L40 346 L182 346 L298 667 Z M682 0 L682 319 C682 366 675 397 659 423 C639 456 601 477 563 477 C510 477 469 444 441 378 L443 418 C444 434 444 441 445 467 L272 467 L272 0 L445 0 L445 235 C445 282 457 304 481 304 C502 304 509 289 509 247 L509 0 L682 0 Z " />
<glyph glyph-name="Eng" unicode="&#x14a;" horiz-adv-x="539" d="M47 667 L47 0 L227 0 L227 413 C227 480 243 511 276 511 C304 511 313 490 313 429 L313 81 C313 30 305 13 280 13 L268 13 L268 -123 C300 -131 319 -133 342 -133 C392 -133 432 -112 461 -69 C483 -37 493 7 493 71 L493 502 C493 554 485 590 467 619 C444 656 402 679 358 679 C298 679 253 644 221 573 C223 600 223 605 224 616 C225 632 226 640 227 667 L47 667 Z " />
<glyph glyph-name="eng" unicode="&#x14b;" horiz-adv-x="491" d="M40 467 L40 0 L213 0 L213 235 C213 282 225 304 250 304 C271 304 278 289 278 247 L278 44 C278 9 271 -4 251 -4 C248 -4 245 -4 242 -3 L242 -128 C265 -132 279 -133 296 -133 C347 -133 388 -114 418 -76 C441 -47 451 -8 451 50 L451 319 C451 366 444 397 428 423 C408 456 370 477 332 477 C279 477 237 444 209 378 L211 418 C212 434 212 441 213 467 L40 467 Z " />
<glyph glyph-name="Omacron" unicode="&#x14c;" horiz-adv-x="567" d="M285 679 C217 679 157 650 109 594 C56 533 30 450 30 339 C30 228 56 138 105 77 C149 22 219 -12 287 -12 C436 -12 537 128 537 331 C537 544 440 679 285 679 L285 679 Z M286 511 C327 511 350 447 350 330 C350 222 325 157 283 157 C241 157 217 222 217 334 C217 443 243 511 286 511 L286 511 Z M123 734 L443 734 L443 827 L123 827 L123 734 Z " />
<glyph glyph-name="omacron" unicode="&#x14d;" horiz-adv-x="487" d="M242 477 C113 477 27 379 27 232 C27 84 110 -10 242 -10 C375 -10 461 82 461 226 C461 383 379 477 242 477 L242 477 Z M244 346 C274 346 293 301 293 232 C293 166 273 121 244 121 C215 121 195 166 195 233 C195 301 215 346 244 346 L244 346 Z M87 546 L401 546 L401 643 L87 643 L87 546 Z " />
<glyph glyph-name="Obreve" unicode="&#x14e;" horiz-adv-x="567" d="M285 679 C217 679 157 650 109 594 C56 533 30 450 30 339 C30 228 56 138 105 77 C149 22 219 -12 287 -12 C436 -12 537 128 537 331 C537 544 440 679 285 679 L285 679 Z M286 511 C327 511 350 447 350 330 C350 222 325 157 283 157 C241 157 217 222 217 334 C217 443 243 511 286 511 L286 511 Z M120 887 C123 847 131 824 152 797 C183 756 221 738 277 738 C372 738 423 787 433 887 L364 887 C348 847 326 833 279 833 C228 833 205 847 189 887 L120 887 Z " />
<glyph glyph-name="obreve" unicode="&#x14f;" horiz-adv-x="487" d="M242 477 C113 477 27 379 27 232 C27 84 110 -10 242 -10 C375 -10 461 82 461 226 C461 383 379 477 242 477 L242 477 Z M244 346 C274 346 293 301 293 232 C293 166 273 121 244 121 C215 121 195 166 195 233 C195 301 215 346 244 346 L244 346 Z M80 679 C84 639 92 616 113 589 C143 548 182 530 238 530 C333 530 384 579 394 679 L324 679 C309 639 287 625 240 625 C188 625 166 639 150 679 L80 679 Z " />
<glyph glyph-name="Ohungarumlaut" unicode="&#x150;" horiz-adv-x="567" d="M285 679 C217 679 157 650 109 594 C56 533 30 450 30 339 C30 228 56 138 105 77 C149 22 219 -12 287 -12 C436 -12 537 128 537 331 C537 544 440 679 285 679 L285 679 Z M286 511 C327 511 350 447 350 330 C350 222 325 157 283 157 C241 157 217 222 217 334 C217 443 243 511 286 511 L286 511 Z M329 871 L198 871 L155 720 L245 720 L329 871 Z M496 871 L365 871 L322 720 L412 720 L496 871 Z " />
<glyph glyph-name="ohungarumlaut" unicode="&#x151;" horiz-adv-x="487" d="M242 477 C113 477 27 379 27 232 C27 84 110 -10 242 -10 C375 -10 461 82 461 226 C461 383 379 477 242 477 L242 477 Z M244 346 C274 346 293 301 293 232 C293 166 273 121 244 121 C215 121 195 166 195 233 C195 301 215 346 244 346 L244 346 Z M118 530 L207 530 L288 678 L165 678 L118 530 Z M284 530 L374 530 L455 678 L332 678 L284 530 Z " />
<glyph glyph-name="OE" unicode="&#x152;" horiz-adv-x="708" d="M678 0 L678 160 L526 160 L526 262 L662 262 L662 413 L526 413 L526 510 L677 510 L677 667 L357 667 C298 672 266 674 262 674 C206 674 149 646 110 599 C56 534 30 449 30 335 C30 227 52 146 98 82 C137 27 198 -8 255 -8 C263 -8 292 -6 329 -1 C331 -1 337 -1 343 0 L678 0 Z M286 511 C328 511 349 453 349 336 C349 219 326 156 284 156 C241 156 217 218 217 327 C217 444 242 511 286 511 L286 511 Z " />
<glyph glyph-name="oe" unicode="&#x153;" horiz-adv-x="737" d="M539 155 C532 131 518 119 499 119 C472 119 456 147 453 199 L710 199 C711 214 711 228 711 236 C711 381 625 478 497 478 C451 478 416 468 375 444 C331 469 296 478 248 478 C112 478 27 386 27 238 C27 83 112 -10 254 -10 C299 -10 328 -2 366 23 C409 0 448 -10 495 -10 C601 -10 679 50 703 151 L539 155 Z M245 348 C275 348 294 303 294 233 C294 167 274 121 245 121 C216 121 196 166 196 234 C196 303 215 348 245 348 L245 348 Z M454 292 C458 337 471 357 495 357 C521 357 535 337 541 292 L454 292 Z " />
<glyph glyph-name="Racute" unicode="&#x154;" horiz-adv-x="533" d="M521 0 L387 277 C457 309 490 362 490 444 C490 516 462 580 413 619 C373 651 313 667 231 667 L47 667 L47 0 L227 0 L227 189 C227 207 227 209 225 277 C231 260 237 242 238 238 C243 226 247 213 252 200 L265 164 L326 0 L521 0 Z M227 517 C250 517 254 516 266 512 C294 503 311 477 311 442 C311 394 280 358 239 358 C237 358 231 358 227 359 L227 517 Z M360 871 L219 871 L175 720 L276 720 L360 871 Z " />
<glyph glyph-name="racute" unicode="&#x155;" horiz-adv-x="344" d="M213 0 L213 200 C213 239 217 255 231 273 C244 290 265 300 286 300 C301 300 312 296 334 284 L334 478 C276 479 227 441 204 376 L213 467 L40 467 L40 0 L213 0 Z M119 530 L218 530 L306 678 L166 678 L119 530 Z " />
<glyph glyph-name="Rcommaaccent" unicode="&#x156;" horiz-adv-x="533" d="M521 0 L387 277 C457 309 490 362 490 444 C490 516 462 580 413 619 C373 651 313 667 231 667 L47 667 L47 0 L227 0 L227 189 C227 207 227 209 225 277 C231 260 237 242 238 238 C243 226 247 213 252 200 L265 164 L326 0 L521 0 Z M227 517 C250 517 254 516 266 512 C294 503 311 477 311 442 C311 394 280 358 239 358 C237 358 231 358 227 359 L227 517 Z M335 -54 L211 -54 L154 -214 L253 -214 L335 -54 Z " />
<glyph glyph-name="rcommaaccent" unicode="&#x157;" horiz-adv-x="344" d="M213 0 L213 200 C213 239 217 255 231 273 C244 290 265 300 286 300 C301 300 312 296 334 284 L334 478 C276 479 227 441 204 376 L213 467 L40 467 L40 0 L213 0 Z M196 -54 L79 -54 L22 -214 L115 -214 L196 -54 Z " />
<glyph glyph-name="Rcaron" unicode="&#x158;" horiz-adv-x="533" d="M521 0 L387 277 C457 309 490 362 490 444 C490 516 462 580 413 619 C373 651 313 667 231 667 L47 667 L47 0 L227 0 L227 189 C227 207 227 209 225 277 C231 260 237 242 238 238 C243 226 247 213 252 200 L265 164 L326 0 L521 0 Z M227 517 C250 517 254 516 266 512 C294 503 311 477 311 442 C311 394 280 358 239 358 C237 358 231 358 227 359 L227 517 Z M79 858 L162 720 L314 720 L401 858 L287 858 L249 798 L215 858 L79 858 Z " />
<glyph glyph-name="rcaron" unicode="&#x159;" horiz-adv-x="344" d="M213 0 L213 200 C213 239 217 255 231 273 C244 290 265 300 286 300 C301 300 312 296 334 284 L334 478 C276 479 227 441 204 376 L213 467 L40 467 L40 0 L213 0 Z M30 669 L101 530 L258 530 L334 669 L231 669 L192 601 L157 669 L30 669 Z " />
<glyph glyph-name="Sacute" unicode="&#x15a;" horiz-adv-x="404" d="M33 17 C81 -3 123 -12 169 -12 C292 -12 381 83 381 214 C381 292 350 345 274 400 C217 440 208 451 208 474 C208 496 230 514 256 514 C292 514 332 486 362 441 L362 645 C318 668 276 679 233 679 C179 679 132 660 98 625 C55 583 30 521 30 460 C30 386 62 331 139 271 C196 227 200 222 200 196 C200 171 178 153 148 153 C107 153 68 178 33 226 L33 17 Z M352 871 L211 871 L167 720 L267 720 L352 871 Z " />
<glyph glyph-name="sacute" unicode="&#x15b;" horiz-adv-x="395" d="M23 39 C94 1 133 -10 190 -10 C249 -10 294 6 328 40 C358 70 376 113 376 155 C376 191 362 225 339 247 C322 262 307 270 264 287 C226 302 212 314 212 332 C212 344 224 354 239 354 C259 354 279 342 310 312 L369 439 C318 466 277 477 230 477 C121 477 39 409 39 317 C39 252 76 210 161 180 C195 168 206 159 206 143 C206 129 192 119 173 119 C147 119 116 137 86 168 L23 39 Z M164 530 L263 530 L351 678 L211 678 L164 530 Z " />
<glyph glyph-name="Scircumflex" unicode="&#x15c;" horiz-adv-x="404" d="M33 17 C81 -3 123 -12 169 -12 C292 -12 381 83 381 214 C381 292 350 345 274 400 C217 440 208 451 208 474 C208 496 230 514 256 514 C292 514 332 486 362 441 L362 645 C318 668 276 679 233 679 C179 679 132 660 98 625 C55 583 30 521 30 460 C30 386 62 331 139 271 C196 227 200 222 200 196 C200 171 178 153 148 153 C107 153 68 178 33 226 L33 17 Z M376 720 L294 858 L142 858 L54 720 L169 720 L206 780 L241 720 L376 720 Z " />
<glyph glyph-name="scircumflex" unicode="&#x15d;" horiz-adv-x="395" d="M23 39 C94 1 133 -10 190 -10 C249 -10 294 6 328 40 C358 70 376 113 376 155 C376 191 362 225 339 247 C322 262 307 270 264 287 C226 302 212 314 212 332 C212 344 224 354 239 354 C259 354 279 342 310 312 L369 439 C318 466 277 477 230 477 C121 477 39 409 39 317 C39 252 76 210 161 180 C195 168 206 159 206 143 C206 129 192 119 173 119 C147 119 116 137 86 168 L23 39 Z M362 530 L291 669 L135 669 L58 530 L161 530 L200 598 L236 530 L362 530 Z " />
<glyph glyph-name="Scedilla" unicode="&#x15e;" horiz-adv-x="404" d="M33 17 C81 -3 123 -12 169 -12 C292 -12 381 83 381 214 C381 292 350 345 274 400 C217 440 208 451 208 474 C208 496 230 514 256 514 C292 514 332 486 362 441 L362 645 C318 668 276 679 233 679 C179 679 132 660 98 625 C55 583 30 521 30 460 C30 386 62 331 139 271 C196 227 200 222 200 196 C200 171 178 153 148 153 C107 153 68 178 33 226 L33 17 Z M251 -106 L159 -47 L39 -194 L111 -239 L251 -106 Z " />
<glyph glyph-name="scedilla" unicode="&#x15f;" horiz-adv-x="395" d="M23 39 C94 1 133 -10 190 -10 C249 -10 294 6 328 40 C358 70 376 113 376 155 C376 191 362 225 339 247 C322 262 307 270 264 287 C226 302 212 314 212 332 C212 344 224 354 239 354 C259 354 279 342 310 312 L369 439 C318 466 277 477 230 477 C121 477 39 409 39 317 C39 252 76 210 161 180 C195 168 206 159 206 143 C206 129 192 119 173 119 C147 119 116 137 86 168 L23 39 Z M258 -100 L177 -47 L79 -170 L145 -217 L258 -100 Z " />
<glyph glyph-name="Scaron" unicode="&#x160;" horiz-adv-x="404" d="M33 17 C81 -3 123 -12 169 -12 C292 -12 381 83 381 214 C381 292 350 345 274 400 C217 440 208 451 208 474 C208 496 230 514 256 514 C292 514 332 486 362 441 L362 645 C318 668 276 679 233 679 C179 679 132 660 98 625 C55 583 30 521 30 460 C30 386 62 331 139 271 C196 227 200 222 200 196 C200 171 178 153 148 153 C107 153 68 178 33 226 L33 17 Z M61 858 L143 720 L296 720 L383 858 L269 858 L231 798 L196 858 L61 858 Z " />
<glyph glyph-name="scaron" unicode="&#x161;" horiz-adv-x="395" d="M23 39 C94 1 133 -10 190 -10 C249 -10 294 6 328 40 C358 70 376 113 376 155 C376 191 362 225 339 247 C322 262 307 270 264 287 C226 302 212 314 212 332 C212 344 224 354 239 354 C259 354 279 342 310 312 L369 439 C318 466 277 477 230 477 C121 477 39 409 39 317 C39 252 76 210 161 180 C195 168 206 159 206 143 C206 129 192 119 173 119 C147 119 116 137 86 168 L23 39 Z M65 669 L136 530 L292 530 L369 669 L266 669 L227 601 L192 669 L65 669 Z " />
<glyph glyph-name="Tcommaaccent" unicode="&#x162;" horiz-adv-x="383" d="M279 0 L279 507 L383 507 L383 667 L0 667 L0 507 L99 507 L99 0 L279 0 Z M259 -54 L135 -54 L78 -214 L177 -214 L259 -54 Z " />
<glyph glyph-name="tcommaaccent" unicode="&#x163;" horiz-adv-x="301" d="M236 0 L236 328 L294 328 L294 467 L236 467 L236 604 L63 604 L63 467 L14 467 L14 328 L63 328 L63 0 L236 0 Z M215 -54 L98 -54 L40 -214 L133 -214 L215 -54 Z " />
<glyph glyph-name="Tcaron" unicode="&#x164;" horiz-adv-x="383" d="M279 0 L279 507 L383 507 L383 667 L0 667 L0 507 L99 507 L99 0 L279 0 Z M30 858 L113 720 L265 720 L352 858 L238 858 L200 798 L166 858 L30 858 Z " />
<glyph glyph-name="tcaron" unicode="&#x165;" horiz-adv-x="455" d="M236 0 L236 328 L294 328 L294 467 L236 467 L236 604 L63 604 L63 467 L14 467 L14 328 L63 328 L63 0 L236 0 Z M448 670 L331 670 L273 510 L366 510 L448 670 Z " />
<glyph glyph-name="Tbar" unicode="&#x166;" horiz-adv-x="383" d="M11 343 L99 343 L99 0 L279 0 L279 343 L372 343 L372 432 L279 432 L279 507 L383 507 L383 667 L0 667 L0 507 L99 507 L99 432 L11 432 L11 343 Z " />
<glyph glyph-name="tbar" unicode="&#x167;" horiz-adv-x="301" d="M14 181 L63 181 L63 0 L236 0 L236 181 L294 181 L294 270 L236 270 L236 328 L294 328 L294 467 L236 467 L236 604 L63 604 L63 467 L14 467 L14 328 L63 328 L63 270 L14 270 L14 181 Z " />
<glyph glyph-name="Utilde" unicode="&#x168;" horiz-adv-x="545" d="M319 667 L319 236 C319 200 318 194 312 180 C306 166 291 157 273 157 C240 157 227 179 227 237 L227 667 L47 667 L47 221 C47 139 67 85 112 46 C154 8 214 -12 282 -12 C343 -12 392 5 432 40 C481 81 499 124 499 195 L499 667 L319 667 Z M353 855 C352 829 343 818 326 818 C318 818 307 821 297 825 C240 850 232 852 204 852 C159 852 122 822 109 776 C104 761 103 749 103 720 L194 720 C195 745 204 756 221 756 C231 756 240 753 263 743 C297 726 314 722 338 722 C400 722 443 771 443 841 L443 855 L353 855 Z " />
<glyph glyph-name="utilde" unicode="&#x169;" horiz-adv-x="499" d="M40 467 L40 180 C40 110 60 67 107 33 C147 5 196 -10 250 -10 C303 -10 352 5 392 33 C439 67 459 110 459 180 L459 467 L286 467 L286 204 C286 150 278 135 250 135 C221 135 213 150 213 204 L213 467 L40 467 Z M331 665 C329 639 321 628 303 628 C295 628 284 631 274 635 C217 660 209 662 181 662 C136 662 99 632 86 586 C81 571 80 559 80 530 L171 530 C173 555 181 566 198 566 C208 566 218 563 240 553 C275 536 291 532 315 532 C377 532 420 581 420 651 L420 665 L331 665 Z " />
<glyph glyph-name="Umacron" unicode="&#x16a;" horiz-adv-x="545" d="M319 667 L319 236 C319 200 318 194 312 180 C306 166 291 157 273 157 C240 157 227 179 227 237 L227 667 L47 667 L47 221 C47 139 67 85 112 46 C154 8 214 -12 282 -12 C343 -12 392 5 432 40 C481 81 499 124 499 195 L499 667 L319 667 Z M113 734 L433 734 L433 827 L113 827 L113 734 Z " />
<glyph glyph-name="umacron" unicode="&#x16b;" horiz-adv-x="499" d="M40 467 L40 180 C40 110 60 67 107 33 C147 5 196 -10 250 -10 C303 -10 352 5 392 33 C439 67 459 110 459 180 L459 467 L286 467 L286 204 C286 150 278 135 250 135 C221 135 213 150 213 204 L213 467 L40 467 Z M93 546 L406 546 L406 643 L93 643 L93 546 Z " />
<glyph glyph-name="Ubreve" unicode="&#x16c;" horiz-adv-x="545" d="M319 667 L319 236 C319 200 318 194 312 180 C306 166 291 157 273 157 C240 157 227 179 227 237 L227 667 L47 667 L47 221 C47 139 67 85 112 46 C154 8 214 -12 282 -12 C343 -12 392 5 432 40 C481 81 499 124 499 195 L499 667 L319 667 Z M113 866 C122 773 182 717 273 717 C366 717 425 772 434 866 L364 866 C348 825 326 812 274 812 C221 812 199 825 183 866 L113 866 Z " />
<glyph glyph-name="ubreve" unicode="&#x16d;" horiz-adv-x="499" d="M40 467 L40 180 C40 110 60 67 107 33 C147 5 196 -10 250 -10 C303 -10 352 5 392 33 C439 67 459 110 459 180 L459 467 L286 467 L286 204 C286 150 278 135 250 135 C221 135 213 150 213 204 L213 467 L40 467 Z M93 679 C96 639 105 616 125 589 C156 548 194 530 251 530 C346 530 397 579 406 679 L337 679 C321 639 299 625 252 625 C201 625 178 639 162 679 L93 679 Z " />
<glyph glyph-name="Uring" unicode="&#x16e;" horiz-adv-x="545" d="M319 667 L319 236 C319 200 318 194 312 180 C306 166 291 157 273 157 C240 157 227 179 227 237 L227 667 L47 667 L47 221 C47 139 67 85 112 46 C154 8 214 -12 282 -12 C343 -12 392 5 432 40 C481 81 499 124 499 195 L499 667 L319 667 Z M273 887 C225 887 187 848 187 800 C187 752 226 713 274 713 C321 713 360 752 360 799 C360 848 322 887 273 887 L273 887 Z M274 837 C295 837 311 820 311 799 C311 780 294 763 274 763 C254 763 237 780 237 800 C237 821 253 837 274 837 L274 837 Z " />
<glyph glyph-name="uring" unicode="&#x16f;" horiz-adv-x="499" d="M40 467 L40 180 C40 110 60 67 107 33 C147 5 196 -10 250 -10 C303 -10 352 5 392 33 C439 67 459 110 459 180 L459 467 L286 467 L286 204 C286 150 278 135 250 135 C221 135 213 150 213 204 L213 467 L40 467 Z M250 716 C197 716 154 673 154 620 C154 567 197 524 250 524 C303 524 346 567 346 618 C346 673 304 716 250 716 L250 716 Z M250 661 C272 661 290 643 290 620 C290 597 272 579 250 579 C227 579 209 597 209 620 C209 643 227 661 250 661 L250 661 Z " />
<glyph glyph-name="Uhungarumlaut" unicode="&#x170;" horiz-adv-x="545" d="M319 667 L319 236 C319 200 318 194 312 180 C306 166 291 157 273 157 C240 157 227 179 227 237 L227 667 L47 667 L47 221 C47 139 67 85 112 46 C154 8 214 -12 282 -12 C343 -12 392 5 432 40 C481 81 499 124 499 195 L499 667 L319 667 Z M319 871 L188 871 L145 720 L235 720 L319 871 Z M486 871 L355 871 L311 720 L402 720 L486 871 Z " />
<glyph glyph-name="uhungarumlaut" unicode="&#x171;" horiz-adv-x="499" d="M40 467 L40 180 C40 110 60 67 107 33 C147 5 196 -10 250 -10 C303 -10 352 5 392 33 C439 67 459 110 459 180 L459 467 L286 467 L286 204 C286 150 278 135 250 135 C221 135 213 150 213 204 L213 467 L40 467 Z M120 530 L209 530 L290 678 L167 678 L120 530 Z M287 530 L376 530 L457 678 L334 678 L287 530 Z " />
<glyph glyph-name="Uogonek" unicode="&#x172;" horiz-adv-x="545" d="M47 667 L47 221 C47 124 76 64 142 24 C180 0 231 -12 289 -12 C297 -12 302 -12 314 -11 C287 -35 277 -56 277 -85 C277 -133 316 -164 375 -164 C396 -164 409 -161 430 -153 L439 -81 C421 -87 412 -89 401 -89 C376 -89 363 -76 363 -52 C363 -28 377 -2 399 15 C480 72 495 99 499 195 L499 667 L319 667 L319 236 C319 200 318 194 312 180 C306 166 291 157 273 157 C240 157 227 179 227 237 L227 667 L47 667 Z " />
<glyph glyph-name="uogonek" unicode="&#x173;" horiz-adv-x="499" d="M40 467 L40 180 C40 102 67 53 130 18 C163 0 206 -10 250 -10 C258 -10 269 -9 284 -8 C260 -33 249 -55 249 -82 C249 -128 293 -161 352 -161 C370 -161 380 -159 395 -152 L403 -82 C388 -87 380 -88 369 -88 C344 -88 329 -75 329 -52 C329 -23 341 -3 370 17 C437 59 456 94 459 180 L459 467 L286 467 L286 204 C286 150 278 135 250 135 C221 135 213 150 213 204 L213 467 L40 467 Z " />
<glyph glyph-name="Wcircumflex" unicode="&#x174;" horiz-adv-x="753" d="M618 0 L753 667 L577 667 L545 460 C536 405 526 303 522 242 C515 311 499 427 484 507 L454 667 L299 667 L266 476 C251 385 248 362 244 326 C242 301 239 277 237 250 C227 347 226 350 224 369 L215 426 L207 483 L178 667 L0 667 L148 0 L324 0 L358 242 C362 270 364 292 367 326 C369 342 371 358 372 374 C373 380 374 395 377 417 C379 395 383 371 383 370 C385 355 387 339 390 323 C392 306 395 288 397 270 C398 265 400 252 403 234 L445 0 L618 0 Z M538 720 L455 858 L303 858 L216 720 L330 720 L368 780 L402 720 L538 720 Z " />
<glyph glyph-name="wcircumflex" unicode="&#x175;" horiz-adv-x="682" d="M546 0 L682 467 L509 467 L484 351 C473 300 465 257 456 186 C451 239 448 269 440 317 L415 467 L267 467 L237 331 C225 271 217 221 214 186 C210 228 202 288 197 317 L170 467 L0 467 L116 0 L286 0 L339 280 L375 0 L546 0 Z M500 530 L428 669 L272 669 L195 530 L298 530 L338 598 L373 530 L500 530 Z " />
<glyph glyph-name="Ycircumflex" unicode="&#x176;" horiz-adv-x="500" d="M346 0 L346 283 L500 667 L314 667 L281 567 C272 538 266 518 251 461 C240 507 237 516 220 568 L188 667 L0 667 L166 283 L166 0 L346 0 Z M411 720 L329 858 L176 858 L89 720 L203 720 L241 780 L275 720 L411 720 Z " />
<glyph glyph-name="ycircumflex" unicode="&#x177;" horiz-adv-x="456" d="M241 -196 L456 467 L283 467 L257 366 C248 327 242 295 229 202 C225 247 216 300 207 333 L174 467 L0 467 L139 19 L63 -196 L241 -196 Z M380 530 L309 669 L152 669 L76 530 L179 530 L218 598 L253 530 L380 530 Z " />
<glyph glyph-name="Ydieresis" unicode="&#x178;" horiz-adv-x="500" d="M346 0 L346 283 L500 667 L314 667 L281 567 C272 538 266 518 251 461 C240 507 237 516 220 568 L188 667 L0 667 L166 283 L166 0 L346 0 Z M349 865 C309 865 277 833 277 793 C277 753 309 720 349 720 C389 720 422 753 422 792 C422 833 390 865 349 865 L349 865 Z M151 865 C111 865 79 833 79 793 C79 753 111 720 151 720 C190 720 223 753 223 792 C223 833 191 865 151 865 L151 865 Z " />
<glyph glyph-name="Zacute" unicode="&#x179;" horiz-adv-x="515" d="M476 0 L476 160 L336 156 C326 156 304 155 270 152 L287 186 C321 256 321 257 334 285 L498 648 L498 667 L57 667 L57 510 L250 510 C213 453 207 441 160 340 L17 14 L17 0 L476 0 Z M404 871 L263 871 L219 720 L319 720 L404 871 Z " />
<glyph glyph-name="zacute" unicode="&#x17a;" horiz-adv-x="435" d="M391 0 L391 141 L263 141 C285 181 292 193 308 229 L419 467 L42 467 L42 328 L174 328 C154 292 143 270 130 242 L17 0 L391 0 Z M171 530 L270 530 L358 678 L218 678 L171 530 Z " />
<glyph glyph-name="Zdotaccent" unicode="&#x17b;" horiz-adv-x="515" d="M476 0 L476 160 L336 156 C326 156 304 155 270 152 L287 186 C321 256 321 257 334 285 L498 648 L498 667 L57 667 L57 510 L250 510 C213 453 207 441 160 340 L17 14 L17 0 L476 0 Z M278 872 C236 872 203 838 203 796 C203 754 237 720 278 720 C319 720 354 755 354 796 C354 839 320 872 278 872 L278 872 Z " />
<glyph glyph-name="zdotaccent" unicode="&#x17c;" horiz-adv-x="435" d="M391 0 L391 141 L263 141 C285 181 292 193 308 229 L419 467 L42 467 L42 328 L174 328 C154 292 143 270 130 242 L17 0 L391 0 Z M228 681 C186 681 152 648 152 606 C152 564 187 530 229 530 C271 530 305 564 305 605 C305 647 271 681 228 681 L228 681 Z " />
<glyph glyph-name="Zcaron" unicode="&#x17d;" horiz-adv-x="515" d="M476 0 L476 160 L336 156 C326 156 304 155 270 152 L287 186 C321 256 321 257 334 285 L498 648 L498 667 L57 667 L57 510 L250 510 C213 453 207 441 160 340 L17 14 L17 0 L476 0 Z M120 848 L203 720 L344 720 L436 848 L321 848 L289 801 L259 848 L120 848 Z " />
<glyph glyph-name="zcaron" unicode="&#x17e;" horiz-adv-x="435" d="M391 0 L391 141 L263 141 C285 181 292 193 308 229 L419 467 L42 467 L42 328 L174 328 C154 292 143 270 130 242 L17 0 L391 0 Z M77 669 L148 530 L305 530 L381 669 L278 669 L239 601 L204 669 L77 669 Z " />
<glyph glyph-name="longs" unicode="&#x17f;" horiz-adv-x="301" d="M233 0 L233 532 C233 567 240 580 259 580 C270 580 277 577 295 564 L295 724 C260 733 239 736 214 736 C164 736 123 716 93 679 C70 650 60 611 60 553 L60 467 L10 467 L10 328 L60 328 L60 0 L233 0 Z " />
<glyph glyph-name="uni018F" unicode="&#x18f;" horiz-adv-x="566" d="M27 381 C31 220 51 143 104 77 C148 22 218 -12 286 -12 C436 -12 536 127 536 336 C536 543 437 679 285 679 C181 679 88 606 52 496 L216 457 C228 497 244 512 274 512 C289 512 304 507 313 498 C332 481 332 481 346 395 L347 388 L347 384 L347 381 L27 381 Z M350 287 C343 206 317 156 282 156 C246 156 223 202 218 287 L350 287 Z " />
<glyph glyph-name="florin" unicode="&#x192;" horiz-adv-x="533" d="M408 329 L432 469 L378 469 L393 553 C397 577 407 587 428 587 C433 587 435 587 446 586 C448 585 454 585 461 584 L480 722 C431 732 426 733 401 733 C303 733 258 687 238 566 L221 469 L166 469 L143 329 L198 329 L153 57 C149 30 137 21 106 21 C101 21 96 21 75 23 L53 -119 C90 -129 107 -132 129 -132 C230 -132 286 -78 306 41 L355 329 L408 329 Z " />
<glyph glyph-name="uni01C4" unicode="&#x1c4;" horiz-adv-x="1052" d="M47 0 L215 0 C313 0 376 23 425 77 C480 136 508 224 508 333 C508 437 482 516 426 579 C373 639 302 667 203 667 L47 667 L47 0 Z M227 500 C230 501 232 501 233 501 C287 504 324 434 324 328 C324 221 291 164 227 161 L227 500 Z M1013 0 L1013 160 L874 156 C864 156 841 155 808 152 L824 186 C858 256 859 257 872 285 L1035 648 L1035 667 L594 667 L594 510 L787 510 C750 453 744 441 697 340 L554 14 L554 0 L1013 0 Z M658 848 L740 720 L881 720 L973 848 L859 848 L826 801 L797 848 L658 848 Z " />
<glyph glyph-name="uni01C5" unicode="&#x1c5;" horiz-adv-x="972" d="M47 0 L215 0 C313 0 376 23 425 77 C480 136 508 224 508 333 C508 437 482 516 426 579 C373 639 302 667 203 667 L47 667 L47 0 Z M227 500 C230 501 232 501 233 501 C287 504 324 434 324 328 C324 221 291 164 227 161 L227 500 Z M928 0 L928 141 L800 141 C823 182 828 192 845 229 L956 467 L580 467 L580 328 L712 328 C692 293 680 270 667 242 L555 0 L928 0 Z M614 669 L686 530 L842 530 L919 669 L815 669 L776 601 L741 669 L614 669 Z " />
<glyph glyph-name="uni01C6" unicode="&#x1c6;" horiz-adv-x="932" d="M457 0 L457 729 L284 729 L284 474 L285 451 L285 427 C285 426 286 412 287 400 C256 456 226 477 176 477 C81 477 27 387 27 229 C27 80 83 -10 177 -10 C223 -10 250 9 284 63 C282 32 281 11 280 0 L457 0 Z M250 333 C275 333 289 299 289 238 C289 172 276 139 249 139 C221 139 206 173 206 235 C206 299 221 333 250 333 L250 333 Z M888 0 L888 141 L760 141 C782 181 789 193 805 229 L916 467 L539 467 L539 328 L671 328 C651 292 640 270 627 242 L514 0 L888 0 Z M574 669 L645 530 L801 530 L878 669 L775 669 L736 601 L701 669 L574 669 Z " />
<glyph glyph-name="uni01C7" unicode="&#x1c7;" horiz-adv-x="723" d="M362 0 L362 160 L227 160 L227 667 L47 667 L47 0 L362 0 Z M403 10 C449 -6 482 -12 520 -12 C583 -12 633 8 665 45 C698 84 710 125 710 204 L710 667 L530 667 L530 240 C530 183 513 157 475 157 C447 157 424 170 403 196 L403 10 Z " />
<glyph glyph-name="uni01C8" unicode="&#x1c8;" horiz-adv-x="622" d="M362 0 L362 160 L227 160 L227 667 L47 667 L47 0 L362 0 Z M583 -205 L583 467 L409 467 L410 -205 L583 -205 Z M496 713 C440 713 395 668 395 612 C395 557 440 511 496 511 C551 511 597 556 597 611 C597 668 552 713 496 713 L496 713 Z " />
<glyph glyph-name="uni01C9" unicode="&#x1c9;" horiz-adv-x="507" d="M213 0 L213 729 L40 729 L40 0 L213 0 Z M467 -205 L467 467 L293 467 L294 -205 L467 -205 Z M380 713 C324 713 279 668 279 612 C279 557 324 511 380 511 C435 511 481 556 481 611 C481 668 436 713 380 713 L380 713 Z " />
<glyph glyph-name="uni01CA" unicode="&#x1ca;" horiz-adv-x="917" d="M47 0 L219 0 L219 170 C218 240 216 291 208 384 C221 336 227 320 254 245 L344 0 L516 0 L516 667 L344 667 L344 517 C344 456 349 389 364 265 C356 291 348 318 339 344 C327 382 322 399 309 433 L219 667 L47 667 L47 0 Z M563 10 C609 -6 642 -12 680 -12 C743 -12 793 8 825 45 C858 84 870 125 870 204 L870 667 L690 667 L690 240 C690 183 673 157 635 157 C607 157 584 170 563 196 L563 10 Z " />
<glyph glyph-name="uni01CB" unicode="&#x1cb;" horiz-adv-x="816" d="M47 0 L219 0 L219 170 C218 240 216 291 208 384 C221 336 227 320 254 245 L344 0 L516 0 L516 667 L344 667 L344 517 C344 456 349 389 364 265 C356 291 348 318 339 344 C327 382 322 399 309 433 L219 667 L47 667 L47 0 Z M777 -205 L777 467 L603 467 L604 -205 L777 -205 Z M690 713 C634 713 589 668 589 612 C589 557 634 511 690 511 C745 511 791 556 791 611 C791 668 746 713 690 713 L690 713 Z " />
<glyph glyph-name="uni01CC" unicode="&#x1cc;" horiz-adv-x="744" d="M450 0 L450 319 C450 366 443 397 427 423 C407 456 369 477 331 477 C278 477 237 444 209 378 L211 418 C212 434 212 441 213 467 L40 467 L40 0 L213 0 L213 235 C213 282 225 304 249 304 C270 304 277 289 277 247 L277 0 L450 0 Z M704 -205 L704 467 L530 467 L531 -205 L704 -205 Z M617 713 C561 713 516 668 516 612 C516 557 561 511 617 511 C672 511 718 556 718 611 C718 668 673 713 617 713 L617 713 Z " />
<glyph glyph-name="uni01CD" unicode="&#x1cd;" horiz-adv-x="532" d="M527 0 L386 667 L165 667 L5 0 L191 0 L206 85 L327 85 L340 0 L527 0 Z M306 228 L230 228 L249 333 L254 372 L260 413 C261 416 263 432 265 455 L272 508 L278 445 C280 420 283 396 283 392 C293 316 293 316 294 306 L306 228 Z M115 858 L197 720 L349 720 L437 858 L322 858 L285 798 L250 858 L115 858 Z " />
<glyph glyph-name="uni01CE" unicode="&#x1ce;" horiz-adv-x="497" d="M457 0 L457 467 L281 467 L282 447 L284 419 C284 416 285 407 286 393 C255 453 223 477 174 477 C83 477 27 385 27 237 C27 84 81 -10 169 -10 C223 -10 258 16 290 79 C288 65 287 53 287 48 C287 45 286 36 285 22 L284 0 L457 0 Z M245 334 C272 334 282 309 282 239 C282 166 269 133 241 133 C214 133 201 161 201 218 C201 298 215 334 245 334 L245 334 Z M103 669 L174 530 L331 530 L407 669 L304 669 L265 601 L230 669 L103 669 Z " />
<glyph glyph-name="uni01CF" unicode="&#x1cf;" horiz-adv-x="273" d="M227 0 L227 667 L47 667 L47 0 L227 0 Z M-24 858 L58 720 L211 720 L298 858 L184 858 L146 798 L112 858 L-24 858 Z " />
<glyph glyph-name="uni01D0" unicode="&#x1d0;" horiz-adv-x="253" d="M213 0 L213 467 L40 467 L40 0 L213 0 Z M-25 669 L46 530 L203 530 L279 669 L176 669 L137 601 L102 669 L-25 669 Z " />
<glyph glyph-name="uni01D1" unicode="&#x1d1;" horiz-adv-x="567" d="M285 679 C217 679 157 650 109 594 C56 533 30 450 30 339 C30 228 56 138 105 77 C149 22 219 -12 287 -12 C436 -12 537 128 537 331 C537 544 440 679 285 679 L285 679 Z M286 511 C327 511 350 447 350 330 C350 222 325 157 283 157 C241 157 217 222 217 334 C217 443 243 511 286 511 L286 511 Z M122 858 L205 720 L357 720 L444 858 L330 858 L292 798 L258 858 L122 858 Z " />
<glyph glyph-name="uni01D2" unicode="&#x1d2;" horiz-adv-x="487" d="M242 477 C113 477 27 379 27 232 C27 84 110 -10 242 -10 C375 -10 461 82 461 226 C461 383 379 477 242 477 L242 477 Z M244 346 C274 346 293 301 293 232 C293 166 273 121 244 121 C215 121 195 166 195 233 C195 301 215 346 244 346 L244 346 Z M92 669 L163 530 L319 530 L396 669 L293 669 L254 601 L219 669 L92 669 Z " />
<glyph glyph-name="uni01D3" unicode="&#x1d3;" horiz-adv-x="545" d="M319 667 L319 236 C319 200 318 194 312 180 C306 166 291 157 273 157 C240 157 227 179 227 237 L227 667 L47 667 L47 221 C47 139 67 85 112 46 C154 8 214 -12 282 -12 C343 -12 392 5 432 40 C481 81 499 124 499 195 L499 667 L319 667 Z M112 858 L194 720 L347 720 L434 858 L320 858 L282 798 L247 858 L112 858 Z " />
<glyph glyph-name="uni01D4" unicode="&#x1d4;" horiz-adv-x="499" d="M40 467 L40 180 C40 110 60 67 107 33 C147 5 196 -10 250 -10 C303 -10 352 5 392 33 C439 67 459 110 459 180 L459 467 L286 467 L286 204 C286 150 278 135 250 135 C221 135 213 150 213 204 L213 467 L40 467 Z M98 669 L169 530 L325 530 L402 669 L299 669 L260 601 L224 669 L98 669 Z " />
<glyph glyph-name="uni01DD" unicode="&#x1dd;" horiz-adv-x="481" d="M203 308 C209 329 223 340 242 340 C267 340 279 318 282 269 L28 269 C27 255 27 245 27 238 C27 87 109 -10 237 -10 C365 -10 455 93 455 241 C455 387 375 476 241 476 C131 476 57 418 33 311 L203 308 Z M280 176 C278 139 263 117 240 117 C215 117 200 139 199 176 L280 176 Z " />
<glyph glyph-name="Gcaron" unicode="&#x1e6;" horiz-adv-x="560" d="M279 385 L279 245 L345 245 C344 184 321 148 282 148 C235 148 214 199 214 313 C214 451 238 518 288 518 C316 518 336 492 341 449 L515 514 C469 623 391 679 287 679 C127 679 30 546 30 330 C30 116 127 -12 288 -12 C375 -12 450 32 486 103 C517 165 530 240 530 358 L530 385 L279 385 Z M126 858 L208 720 L360 720 L448 858 L333 858 L296 798 L261 858 L126 858 Z " />
<glyph glyph-name="gcaron" unicode="&#x1e7;" horiz-adv-x="493" d="M453 467 L278 467 L282 406 C244 459 218 477 177 477 C88 477 27 377 27 234 C27 90 88 -7 178 -7 C219 -7 257 14 287 54 L287 -20 C287 -67 276 -86 247 -86 C225 -86 212 -72 210 -48 L33 -48 C50 -164 116 -217 243 -217 C301 -217 351 -202 389 -172 C435 -137 453 -92 453 -14 L453 467 Z M248 336 C273 336 285 302 285 235 C285 169 272 136 246 136 C221 136 206 175 206 237 C206 302 220 336 248 336 L248 336 Z M101 669 L172 530 L329 530 L405 669 L302 669 L263 601 L228 669 L101 669 Z " />
<glyph glyph-name="uni01F4" unicode="&#x1f4;" horiz-adv-x="560" d="M279 385 L279 245 L345 245 C344 184 321 148 282 148 C235 148 214 199 214 313 C214 451 238 518 288 518 C316 518 336 492 341 449 L515 514 C469 623 391 679 287 679 C127 679 30 546 30 330 C30 116 127 -12 288 -12 C375 -12 450 32 486 103 C517 165 530 240 530 358 L530 385 L279 385 Z M413 871 L272 871 L228 720 L329 720 L413 871 Z " />
<glyph glyph-name="uni01F5" unicode="&#x1f5;" horiz-adv-x="493" d="M453 467 L278 467 L282 406 C244 459 218 477 177 477 C88 477 27 377 27 234 C27 90 88 -7 178 -7 C219 -7 257 14 287 54 L287 -20 C287 -67 276 -86 247 -86 C225 -86 212 -72 210 -48 L33 -48 C50 -164 116 -217 243 -217 C301 -217 351 -202 389 -172 C435 -137 453 -92 453 -14 L453 467 Z M248 336 C273 336 285 302 285 235 C285 169 272 136 246 136 C221 136 206 175 206 237 C206 302 220 336 248 336 L248 336 Z M147 530 L246 530 L333 678 L194 678 L147 530 Z " />
<glyph glyph-name="Aringacute" unicode="&#x1fa;" horiz-adv-x="532" d="M527 0 L386 667 L165 667 L5 0 L191 0 L206 85 L327 85 L340 0 L527 0 Z M306 228 L230 228 L249 333 L254 372 L260 413 C261 416 263 432 265 455 L272 508 L278 445 C280 420 283 396 283 392 C293 316 293 316 294 306 L306 228 Z M266 887 C218 887 180 848 180 800 C180 752 219 713 267 713 C314 713 353 752 353 799 C353 848 315 887 266 887 L266 887 Z M267 837 C288 837 304 820 304 799 C304 780 287 763 267 763 C247 763 230 780 230 800 C230 821 246 837 267 837 L267 837 Z M285 1044 L144 1044 L100 893 L201 893 L285 1044 Z " />
<glyph glyph-name="aringacute" unicode="&#x1fb;" horiz-adv-x="497" d="M457 0 L457 467 L281 467 L282 447 L284 419 C284 416 285 407 286 393 C255 453 223 477 174 477 C83 477 27 385 27 237 C27 84 81 -10 169 -10 C223 -10 258 16 290 79 C288 65 287 53 287 48 C287 45 286 36 285 22 L284 0 L457 0 Z M245 334 C272 334 282 309 282 239 C282 166 269 133 241 133 C214 133 201 161 201 218 C201 298 215 334 245 334 L245 334 Z M237 716 C184 716 141 673 141 620 C141 567 184 524 237 524 C290 524 333 567 333 618 C333 673 291 716 237 716 L237 716 Z M237 661 C259 661 277 643 277 620 C277 597 259 579 237 579 C214 579 196 597 196 620 C196 643 214 661 237 661 L237 661 Z M43 690 L143 690 L230 838 L91 838 L43 690 Z " />
<glyph glyph-name="AEacute" unicode="&#x1fc;" horiz-adv-x="615" d="M585 0 L585 160 L465 160 L447 262 L571 262 L571 413 L421 413 L406 510 L585 510 L585 667 L154 667 L0 0 L186 0 L201 85 L316 85 L328 0 L585 0 Z M223 224 L246 369 C251 402 251 404 253 419 L259 471 L263 506 C267 458 271 422 274 395 L297 224 L223 224 Z M452 871 L311 871 L267 720 L367 720 L452 871 Z " />
<glyph glyph-name="aeacute" unicode="&#x1fd;" horiz-adv-x="615" d="M537 153 C529 129 516 118 497 118 C470 118 454 146 452 198 L707 198 C708 212 708 222 708 230 C708 379 623 478 495 478 C446 478 407 465 361 432 C320 465 281 478 217 478 C173 478 137 473 78 457 L78 321 C116 340 151 348 193 348 C249 348 279 330 285 291 C246 299 225 301 197 301 C92 301 27 243 27 152 C27 58 102 -10 205 -10 C256 -10 309 7 355 38 C398 4 437 -10 493 -10 C560 -10 607 6 645 42 C674 69 688 96 702 150 L537 153 Z M241 191 C268 191 286 175 286 150 C286 125 269 109 241 109 C214 109 196 125 196 149 C196 174 214 191 241 191 L241 191 Z M452 291 C456 336 469 356 494 356 C519 356 533 336 539 291 L452 291 Z M251 530 L350 530 L438 678 L298 678 L251 530 Z " />
<glyph glyph-name="Oslashacute" unicode="&#x1fe;" horiz-adv-x="567" d="M80 -19 L128 48 C179 5 223 -12 280 -12 C350 -12 422 23 463 78 C510 142 536 234 536 341 C536 422 524 477 492 546 L552 632 L487 677 L442 613 C390 660 344 679 284 679 C208 679 140 644 96 581 C51 519 30 437 30 329 C30 235 41 185 78 116 L17 24 L80 -19 Z M353 371 C354 349 355 331 355 320 C355 220 326 151 284 151 C262 151 246 164 237 190 L353 371 Z M213 294 C212 317 211 335 211 345 C211 446 240 516 281 516 C303 516 318 503 329 475 L213 294 Z M377 871 L236 871 L192 720 L292 720 L377 871 Z " />
<glyph glyph-name="oslashacute" unicode="&#x1ff;" horiz-adv-x="487" d="M141 11 C177 -5 202 -10 241 -10 C376 -10 461 82 461 229 C461 299 445 355 411 401 L461 473 L393 519 L347 454 C313 470 282 477 242 477 C113 477 27 379 27 232 C27 165 43 113 77 65 L27 -8 L95 -56 L141 11 Z M244 346 C274 346 293 301 293 232 C293 166 273 121 244 121 C215 121 195 166 195 233 C195 301 215 346 244 346 L244 346 Z M151 530 L250 530 L337 678 L198 678 L151 530 Z " />
<glyph glyph-name="uni0200" unicode="&#x200;" horiz-adv-x="532" d="M527 0 L386 667 L165 667 L5 0 L191 0 L206 85 L327 85 L340 0 L527 0 Z M306 228 L230 228 L249 333 L254 372 L260 413 C261 416 263 432 265 455 L272 508 L278 445 C280 420 283 396 283 392 C293 316 293 316 294 306 L306 228 Z M235 871 L320 720 L410 720 L366 871 L235 871 Z M69 871 L153 720 L243 720 L200 871 L69 871 Z " />
<glyph glyph-name="uni0201" unicode="&#x201;" horiz-adv-x="497" d="M457 0 L457 467 L281 467 L282 447 L284 419 C284 416 285 407 286 393 C255 453 223 477 174 477 C83 477 27 385 27 237 C27 84 81 -10 169 -10 C223 -10 258 16 290 79 C288 65 287 53 287 48 C287 45 286 36 285 22 L284 0 L457 0 Z M245 334 C272 334 282 309 282 239 C282 166 269 133 241 133 C214 133 201 161 201 218 C201 298 215 334 245 334 L245 334 Z M410 530 L363 678 L240 678 L321 530 L410 530 Z M244 530 L197 678 L74 678 L155 530 L244 530 Z " />
<glyph glyph-name="Scommaaccent" unicode="&#x218;" horiz-adv-x="404" d="M33 17 C81 -3 123 -12 169 -12 C292 -12 381 83 381 214 C381 292 350 345 274 400 C217 440 208 451 208 474 C208 496 230 514 256 514 C292 514 332 486 362 441 L362 645 C318 668 276 679 233 679 C179 679 132 660 98 625 C55 583 30 521 30 460 C30 386 62 331 139 271 C196 227 200 222 200 196 C200 171 178 153 148 153 C107 153 68 178 33 226 L33 17 Z M249 -54 L132 -54 L75 -214 L168 -214 L249 -54 Z " />
<glyph glyph-name="scommaaccent" unicode="&#x219;" horiz-adv-x="395" d="M23 39 C94 1 133 -10 190 -10 C249 -10 294 6 328 40 C358 70 376 113 376 155 C376 191 362 225 339 247 C322 262 307 270 264 287 C226 302 212 314 212 332 C212 344 224 354 239 354 C259 354 279 342 310 312 L369 439 C318 466 277 477 230 477 C121 477 39 409 39 317 C39 252 76 210 161 180 C195 168 206 159 206 143 C206 129 192 119 173 119 C147 119 116 137 86 168 L23 39 Z M258 -54 L141 -54 L84 -214 L177 -214 L258 -54 Z " />
<glyph glyph-name="uni021A" unicode="&#x21a;" horiz-adv-x="383" d="M279 0 L279 507 L383 507 L383 667 L0 667 L0 507 L99 507 L99 0 L279 0 Z M259 -54 L135 -54 L78 -214 L177 -214 L259 -54 Z " />
<glyph glyph-name="uni021B" unicode="&#x21b;" horiz-adv-x="301" d="M236 0 L236 328 L294 328 L294 467 L236 467 L236 604 L63 604 L63 467 L14 467 L14 328 L63 328 L63 0 L236 0 Z M215 -54 L98 -54 L40 -214 L133 -214 L215 -54 Z " />
<glyph glyph-name="uni0226" unicode="&#x226;" horiz-adv-x="532" d="M527 0 L386 667 L165 667 L5 0 L191 0 L206 85 L327 85 L340 0 L527 0 Z M306 228 L230 228 L249 333 L254 372 L260 413 C261 416 263 432 265 455 L272 508 L278 445 C280 420 283 396 283 392 C293 316 293 316 294 306 L306 228 Z M274 872 C233 872 199 838 199 796 C199 754 233 720 274 720 C316 720 350 755 350 796 C350 839 317 872 274 872 L274 872 Z " />
<glyph glyph-name="uni0227" unicode="&#x227;" horiz-adv-x="497" d="M457 0 L457 467 L281 467 L282 447 L284 419 C284 416 285 407 286 393 C255 453 223 477 174 477 C83 477 27 385 27 237 C27 84 81 -10 169 -10 C223 -10 258 16 290 79 C288 65 287 53 287 48 C287 45 286 36 285 22 L284 0 L457 0 Z M245 334 C272 334 282 309 282 239 C282 166 269 133 241 133 C214 133 201 161 201 218 C201 298 215 334 245 334 L245 334 Z M256 681 C214 681 180 648 180 606 C180 564 215 530 257 530 C299 530 333 564 333 605 C333 647 299 681 256 681 L256 681 Z " />
<glyph glyph-name="uni0237" unicode="&#x237;" horiz-adv-x="254" d="M214 -205 L214 467 L40 467 L41 -205 L214 -205 Z " />
<glyph glyph-name="uni02BB" unicode="&#x2bb;" horiz-adv-x="332" d="M40 346 L217 346 L298 667 L156 667 L40 346 Z " />
<glyph glyph-name="afii57929" unicode="&#x2bc;" horiz-adv-x="332" d="M298 667 L122 667 L40 346 L182 346 L298 667 Z " />
<glyph glyph-name="circumflex" unicode="&#x2c6;" horiz-adv-x="500" d="M402 530 L331 669 L175 669 L98 530 L201 530 L240 598 L275 530 L402 530 Z " />
<glyph glyph-name="caron" unicode="&#x2c7;" horiz-adv-x="500" d="M98 669 L169 530 L326 530 L402 669 L299 669 L260 601 L225 669 L98 669 Z " />
<glyph glyph-name="uni02C9" unicode="&#x2c9;" horiz-adv-x="500" d="M93 546 L406 546 L406 643 L93 643 L93 546 Z " />
<glyph glyph-name="breve" unicode="&#x2d8;" horiz-adv-x="500" d="M93 679 C96 639 105 616 126 589 C156 548 194 530 251 530 C346 530 397 579 407 679 L337 679 C322 639 299 625 252 625 C201 625 178 639 163 679 L93 679 Z " />
<glyph glyph-name="dotaccent" unicode="&#x2d9;" horiz-adv-x="500" d="M250 681 C208 681 174 648 174 606 C174 564 209 530 251 530 C293 530 327 564 327 605 C327 647 293 681 250 681 L250 681 Z " />
<glyph glyph-name="ring" unicode="&#x2da;" horiz-adv-x="500" d="M273 716 C220 716 177 673 177 620 C177 567 220 524 273 524 C326 524 369 567 369 618 C369 673 327 716 273 716 L273 716 Z M273 661 C295 661 313 643 313 620 C313 597 295 579 273 579 C250 579 232 597 232 620 C232 643 250 661 273 661 L273 661 Z " />
<glyph glyph-name="ogonek" unicode="&#x2db;" horiz-adv-x="500" d="M246 0 C211 -29 193 -60 193 -91 C193 -138 236 -171 296 -171 C314 -171 323 -169 339 -162 L346 -92 C332 -97 324 -98 313 -98 C288 -98 273 -85 273 -63 C273 -42 285 -19 307 0 L246 0 Z " />
<glyph glyph-name="tilde" unicode="&#x2dc;" horiz-adv-x="500" d="M330 665 C329 639 320 628 302 628 C295 628 284 631 274 635 C217 660 209 662 181 662 C136 662 99 632 85 586 C81 571 80 559 80 530 L171 530 C172 555 181 566 198 566 C208 566 217 563 240 553 C274 536 291 532 315 532 C377 532 420 581 420 651 L420 665 L330 665 Z " />
<glyph glyph-name="hungarumlaut" unicode="&#x2dd;" horiz-adv-x="500" d="M120 530 L209 530 L290 678 L167 678 L120 530 Z M287 530 L376 530 L457 678 L334 678 L287 530 Z " />
<glyph glyph-name="pi" unicode="&#x3c0;" horiz-adv-x="557" d="M311 328 L311 0 L484 0 L484 328 L537 328 L537 467 L20 467 L20 328 L73 328 L73 0 L246 0 L246 328 L311 328 Z " />
<glyph glyph-name="uni1E1E" unicode="&#x1e1e;" horiz-adv-x="388" d="M227 0 L227 262 L356 262 L356 413 L227 413 L227 510 L365 510 L365 667 L47 667 L47 0 L227 0 Z M205 872 C164 872 130 838 130 796 C130 754 164 720 205 720 C247 720 281 755 281 796 C281 839 248 872 205 872 L205 872 Z " />
<glyph glyph-name="Wgrave" unicode="&#x1e80;" horiz-adv-x="753" d="M618 0 L753 667 L577 667 L545 460 C536 405 526 303 522 242 C515 311 499 427 484 507 L454 667 L299 667 L266 476 C251 385 248 362 244 326 C242 301 239 277 237 250 C227 347 226 350 224 369 L215 426 L207 483 L178 667 L0 667 L148 0 L324 0 L358 242 C362 270 364 292 367 326 C369 342 371 358 372 374 C373 380 374 395 377 417 C379 395 383 371 383 370 C385 355 387 339 390 323 C392 306 395 288 397 270 C398 265 400 252 403 234 L445 0 L618 0 Z M284 871 L369 720 L469 720 L425 871 L284 871 Z " />
<glyph glyph-name="wgrave" unicode="&#x1e81;" horiz-adv-x="682" d="M546 0 L682 467 L509 467 L484 351 C473 300 465 257 456 186 C451 239 448 269 440 317 L415 467 L267 467 L237 331 C225 271 217 221 214 186 C210 228 202 288 197 317 L170 467 L0 467 L116 0 L286 0 L339 280 L375 0 L546 0 Z M435 530 L387 678 L248 678 L335 530 L435 530 Z " />
<glyph glyph-name="Wacute" unicode="&#x1e82;" horiz-adv-x="753" d="M618 0 L753 667 L577 667 L545 460 C536 405 526 303 522 242 C515 311 499 427 484 507 L454 667 L299 667 L266 476 C251 385 248 362 244 326 C242 301 239 277 237 250 C227 347 226 350 224 369 L215 426 L207 483 L178 667 L0 667 L148 0 L324 0 L358 242 C362 270 364 292 367 326 C369 342 371 358 372 374 C373 380 374 395 377 417 C379 395 383 371 383 370 C385 355 387 339 390 323 C392 306 395 288 397 270 C398 265 400 252 403 234 L445 0 L618 0 Z M469 871 L328 871 L284 720 L385 720 L469 871 Z " />
<glyph glyph-name="wacute" unicode="&#x1e83;" horiz-adv-x="682" d="M546 0 L682 467 L509 467 L484 351 C473 300 465 257 456 186 C451 239 448 269 440 317 L415 467 L267 467 L237 331 C225 271 217 221 214 186 C210 228 202 288 197 317 L170 467 L0 467 L116 0 L286 0 L339 280 L375 0 L546 0 Z M248 530 L347 530 L435 678 L295 678 L248 530 Z " />
<glyph glyph-name="Wdieresis" unicode="&#x1e84;" horiz-adv-x="753" d="M618 0 L753 667 L577 667 L545 460 C536 405 526 303 522 242 C515 311 499 427 484 507 L454 667 L299 667 L266 476 C251 385 248 362 244 326 C242 301 239 277 237 250 C227 347 226 350 224 369 L215 426 L207 483 L178 667 L0 667 L148 0 L324 0 L358 242 C362 270 364 292 367 326 C369 342 371 358 372 374 C373 380 374 395 377 417 C379 395 383 371 383 370 C385 355 387 339 390 323 C392 306 395 288 397 270 C398 265 400 252 403 234 L445 0 L618 0 Z M475 865 C435 865 403 833 403 793 C403 753 436 720 476 720 C515 720 548 753 548 792 C548 833 516 865 475 865 L475 865 Z M277 865 C237 865 205 833 205 793 C205 753 237 720 277 720 C316 720 349 753 349 792 C349 833 317 865 277 865 L277 865 Z " />
<glyph glyph-name="wdieresis" unicode="&#x1e85;" horiz-adv-x="682" d="M546 0 L682 467 L509 467 L484 351 C473 300 465 257 456 186 C451 239 448 269 440 317 L415 467 L267 467 L237 331 C225 271 217 221 214 186 C210 228 202 288 197 317 L170 467 L0 467 L116 0 L286 0 L339 280 L375 0 L546 0 Z M237 674 C197 674 165 642 165 603 C165 563 198 530 238 530 C277 530 310 562 310 601 C310 642 278 674 237 674 L237 674 Z M429 674 C389 674 357 642 357 603 C357 563 390 530 430 530 C469 530 502 562 502 601 C502 642 470 674 429 674 L429 674 Z " />
<glyph glyph-name="Ygrave" unicode="&#x1ef2;" horiz-adv-x="500" d="M346 0 L346 283 L500 667 L314 667 L281 567 C272 538 266 518 251 461 C240 507 237 516 220 568 L188 667 L0 667 L166 283 L166 0 L346 0 Z M158 871 L242 720 L342 720 L299 871 L158 871 Z " />
<glyph glyph-name="ygrave" unicode="&#x1ef3;" horiz-adv-x="456" d="M241 -196 L456 467 L283 467 L257 366 C248 327 242 295 229 202 C225 247 216 300 207 333 L174 467 L0 467 L139 19 L63 -196 L241 -196 Z M321 530 L274 678 L134 678 L222 530 L321 530 Z " />
<glyph glyph-name="uni2011" unicode="&#x2011;" horiz-adv-x="217" d="M217 173 L217 306 L0 306 L0 173 L217 173 Z " />
<glyph glyph-name="figuredash" unicode="&#x2012;" horiz-adv-x="532" d="M474 173 L474 306 L59 306 L59 173 L474 173 Z " />
<glyph glyph-name="endash" unicode="&#x2013;" horiz-adv-x="532" d="M474 173 L474 306 L59 306 L59 173 L474 173 Z " />
<glyph glyph-name="emdash" unicode="&#x2014;" horiz-adv-x="650" d="M650 173 L650 306 L0 306 L0 173 L650 173 Z " />
<glyph glyph-name="afii00208" unicode="&#x2015;" horiz-adv-x="650" d="M650 173 L650 306 L0 306 L0 173 L650 173 Z " />
<glyph glyph-name="underscoredbl" unicode="&#x2017;" horiz-adv-x="500" d="M0 -47 L0 -123 L500 -123 L500 -47 L0 -47 Z M0 -164 L0 -240 L500 -240 L500 -164 L0 -164 Z " />
<glyph glyph-name="quoteleft" unicode="&#x2018;" horiz-adv-x="332" d="M40 346 L217 346 L298 667 L156 667 L40 346 Z " />
<glyph glyph-name="quoteright" unicode="&#x2019;" horiz-adv-x="325" d="M291 667 L115 667 L33 346 L175 346 L291 667 Z " />
<glyph glyph-name="quotesinglbase" unicode="&#x201a;" horiz-adv-x="325" d="M291 159 L115 159 L33 -161 L175 -161 L291 159 Z " />
<glyph glyph-name="quotereversed" unicode="&#x201b;" horiz-adv-x="456" d="M241 -196 L456 467 L283 467 L257 366 C248 327 242 295 229 202 C225 247 216 300 207 333 L174 467 L0 467 L139 19 L63 -196 L241 -196 Z M331 530 L284 678 L144 678 L232 530 L331 530 Z " />
<glyph glyph-name="quotedblleft" unicode="&#x201c;" horiz-adv-x="568" d="M40 346 L217 346 L298 667 L156 667 L40 346 Z M277 346 L453 346 L535 667 L393 667 L277 346 Z " />
<glyph glyph-name="quotedblright" unicode="&#x201d;" horiz-adv-x="568" d="M535 667 L358 667 L277 346 L419 346 L535 667 Z M298 667 L122 667 L40 346 L182 346 L298 667 Z " />
<glyph glyph-name="quotedblbase" unicode="&#x201e;" horiz-adv-x="562" d="M528 159 L351 159 L270 -161 L412 -161 L528 159 Z M291 159 L115 159 L33 -161 L175 -161 L291 159 Z " />
<glyph glyph-name="dagger" unicode="&#x2020;" horiz-adv-x="533" d="M347 -209 L347 426 L507 426 L507 566 L347 566 L347 729 L187 729 L187 566 L27 566 L27 426 L187 426 L187 -209 L347 -209 Z " />
<glyph glyph-name="daggerdbl" unicode="&#x2021;" horiz-adv-x="533" d="M187 428 L187 228 L27 228 L27 91 L187 91 L187 -209 L347 -209 L347 91 L507 91 L507 228 L347 228 L347 428 L507 428 L507 565 L347 565 L347 729 L187 729 L187 565 L27 565 L27 428 L187 428 Z " />
<glyph glyph-name="bullet" unicode="&#x2022;" horiz-adv-x="667" d="M336 480 C258 480 196 418 196 340 C196 264 258 201 334 201 C410 201 471 263 471 341 C471 417 410 480 336 480 L336 480 Z " />
<glyph glyph-name="ellipsis" unicode="&#x2026;" horiz-adv-x="1000" d="M165 192 C110 192 65 147 65 92 C65 36 111 -10 167 -10 C222 -10 268 35 268 89 C268 147 223 192 165 192 L165 192 Z M498 192 C443 192 398 147 398 92 C398 36 444 -10 500 -10 C555 -10 601 35 601 89 C601 147 556 192 498 192 L498 192 Z M832 192 C777 192 732 147 732 92 C732 36 778 -10 834 -10 C889 -10 935 35 935 89 C935 147 890 192 832 192 L832 192 Z " />
<glyph glyph-name="perthousand" unicode="&#x2030;" horiz-adv-x="1009" d="M173 677 C85 677 27 614 27 517 C27 416 84 351 175 351 C258 351 316 418 316 515 C316 612 259 677 173 677 L173 677 Z M172 579 C190 579 199 556 199 512 C199 471 189 448 172 448 C155 448 144 472 144 513 C144 556 154 579 172 579 L172 579 Z M520 316 C432 316 374 253 374 156 C374 55 431 -10 522 -10 C605 -10 663 57 663 154 C663 251 606 316 520 316 L520 316 Z M519 218 C537 218 546 195 546 151 C546 110 536 87 519 87 C502 87 491 111 491 152 C491 195 501 218 519 218 L519 218 Z M143 -23 L617 644 L545 694 L73 27 L143 -23 Z M840 316 C752 316 694 253 694 156 C694 55 751 -10 842 -10 C925 -10 983 57 983 154 C983 251 926 316 840 316 L840 316 Z M839 218 C857 218 866 195 866 151 C866 110 856 87 839 87 C822 87 811 111 811 152 C811 195 821 218 839 218 L839 218 Z " />
<glyph glyph-name="guilsinglleft" unicode="&#x2039;" horiz-adv-x="283" d="M179 39 L256 97 L143 240 L256 383 L179 441 L27 240 L179 39 Z " />
<glyph glyph-name="guilsinglright" unicode="&#x203a;" horiz-adv-x="283" d="M105 39 L256 240 L105 441 L27 383 L140 240 L27 97 L105 39 Z " />
<glyph glyph-name="uni203E" unicode="&#x203e;" horiz-adv-x="500" d="M0 889 L0 779 L500 779 L500 889 L0 889 Z " />
<glyph glyph-name="fraction" unicode="&#x2044;" horiz-adv-x="139" d="M-88 -44 L299 672 L225 711 L-160 -5 L-88 -44 Z " />
<glyph glyph-name="franc" unicode="&#x20a3;" horiz-adv-x="533" d="M200 0 L200 262 L329 262 L329 413 L200 413 L200 510 L338 510 L338 667 L20 667 L20 0 L200 0 Z M469 0 L469 127 C469 161 482 179 506 179 C516 179 520 177 542 165 L542 300 C507 300 495 293 467 258 L470 293 L352 293 L352 0 L469 0 Z " />
<glyph glyph-name="lira" unicode="&#x20a4;" horiz-adv-x="533" d="M56 232 L139 232 C141 217 142 208 142 196 C142 164 139 152 124 126 C92 111 83 105 46 78 L96 -4 C132 19 153 26 182 26 C205 26 207 25 256 5 C285 -6 313 -12 341 -12 C415 -12 468 29 499 111 L410 159 C394 137 378 128 356 128 C344 128 338 130 320 139 C287 154 275 157 245 159 C263 183 271 199 281 232 L432 232 L432 297 L288 297 C287 319 287 329 285 347 L432 347 L432 412 L270 412 L268 419 C253 471 252 474 252 487 C252 515 274 538 300 538 C326 538 343 525 367 488 L463 584 C406 645 340 677 268 677 C155 677 72 600 72 495 C72 467 74 458 87 412 L56 412 L56 347 L106 347 L122 297 L56 297 L56 232 Z " />
<glyph glyph-name="peseta" unicode="&#x20a7;" horiz-adv-x="923" d="M227 0 L227 219 C239 218 251 218 255 218 C317 218 360 227 395 248 C454 284 489 354 489 440 C489 513 464 573 415 614 C371 651 311 667 221 667 L47 667 L47 0 L227 0 Z M227 368 L227 521 L240 522 C279 522 307 490 307 443 C307 397 279 368 235 368 L227 368 Z M635 0 L635 196 L669 196 L669 293 L635 293 L635 376 L518 376 L518 293 L488 293 L488 196 L518 196 L518 0 L635 0 Z M688 27 C738 1 760 -6 798 -6 C867 -6 916 38 916 99 C916 123 907 145 891 159 C879 169 871 173 842 185 C821 193 814 198 814 205 C814 211 820 215 827 215 C840 215 851 209 878 189 L913 273 C875 293 853 299 822 299 C752 299 700 255 700 197 C700 155 724 128 781 109 C797 103 804 99 804 93 C804 87 797 82 787 82 C772 82 752 91 734 106 L726 112 L688 27 Z " />
<glyph glyph-name="Euro" unicode="&#x20ac;" horiz-adv-x="462" d="M55 237 C83 82 184 -12 321 -12 C360 -12 384 -6 428 12 L439 205 C403 173 379 162 345 162 C299 162 267 186 246 237 L349 237 L349 309 L232 309 C231 318 231 324 231 333 C231 340 231 346 232 354 L349 354 L349 426 L244 426 C265 484 299 512 349 512 C380 512 401 502 431 471 L431 663 C399 675 377 679 342 679 C195 679 84 581 56 426 L0 426 L0 354 L48 354 C47 343 47 337 47 329 C47 320 47 316 48 309 L0 309 L0 237 L55 237 Z " />
<glyph glyph-name="uni2101" unicode="&#x2101;" horiz-adv-x="842" d="M350 267 L263 667 L126 667 L27 267 L145 267 L154 317 L224 317 L232 267 L350 267 Z M211 406 L169 406 L180 466 L184 489 C186 507 189 528 192 553 C196 515 197 508 197 501 L201 473 L204 450 L211 406 Z M325 -44 L712 672 L638 711 L253 -5 L325 -44 Z M593 11 C624 -2 649 -7 677 -7 C754 -7 809 50 809 129 C809 176 790 208 743 241 C709 265 704 270 704 283 C704 295 716 305 731 305 C754 305 778 288 798 257 L798 387 C770 401 744 407 717 407 C646 407 591 349 591 275 C591 230 610 197 658 161 C693 134 695 132 695 118 C695 104 682 94 665 94 C639 94 617 109 593 142 L593 11 Z " />
<glyph glyph-name="afii61248" unicode="&#x2105;" horiz-adv-x="267" d="M133 422 C88 422 51 386 51 341 C51 295 88 258 134 258 C179 258 216 294 216 338 C216 385 179 422 133 422 L133 422 Z " />
<glyph glyph-name="afii61289" unicode="&#x2113;" horiz-adv-x="500" d="M262 255 L286 279 C351 344 351 344 363 361 C414 433 443 504 443 558 C443 623 405 666 347 666 C287 666 239 624 201 536 C168 459 144 371 125 253 C109 231 103 222 94 212 C63 176 60 171 60 154 C60 134 71 113 81 113 C88 113 96 121 116 147 C117 36 154 -25 220 -25 C277 -25 336 39 336 101 C336 119 327 130 312 130 C299 130 297 127 280 98 C264 68 263 66 255 66 C247 66 243 75 243 91 C243 121 246 146 261 249 L262 255 Z M273 341 C296 502 321 578 351 578 C364 578 371 566 371 546 C371 498 323 399 273 341 L273 341 Z " />
<glyph glyph-name="afii61352" unicode="&#x2116;" horiz-adv-x="880" d="M47 0 L219 0 L219 170 C218 240 216 291 208 384 C221 336 227 320 254 245 L344 0 L516 0 L516 667 L344 667 L344 517 C344 456 349 389 364 265 C356 291 348 318 339 344 C327 382 322 399 309 433 L219 667 L47 667 L47 0 Z M565 29 L850 29 L850 153 L565 153 L565 29 Z M706 510 C621 510 565 446 565 349 C565 252 620 190 706 190 C794 190 850 251 850 345 C850 448 796 510 706 510 L706 510 Z M707 404 C722 404 731 383 731 349 C731 318 722 296 708 296 C693 296 684 318 684 350 C684 382 693 404 707 404 L707 404 Z " />
<glyph glyph-name="uni2117" unicode="&#x2117;" horiz-adv-x="177" d="M149 267 L149 551 L28 551 L28 267 L149 267 Z M88 707 C50 707 19 678 19 642 C19 606 50 577 89 577 C127 577 158 606 158 642 C158 678 127 707 88 707 L88 707 Z " />
<glyph glyph-name="trademark" unicode="&#x2122;" horiz-adv-x="666" d="M166 287 L166 571 L226 571 L226 667 L-3 667 L-3 571 L55 571 L55 287 L166 287 Z M651 287 L613 667 L478 667 L446 503 L418 667 L282 667 L236 287 L355 287 L366 473 L397 287 L488 287 L526 482 L535 287 L651 287 Z " />
<glyph glyph-name="uni2126" unicode="&#x2126;" horiz-adv-x="667" d="M28 0 L301 0 L301 139 C228 176 195 241 195 345 C195 457 252 537 333 537 C416 537 472 459 472 346 C472 242 438 176 366 139 L366 0 L639 0 L639 152 L519 152 C607 207 642 269 642 371 C642 549 509 684 333 684 C159 684 25 549 25 371 C25 310 41 256 72 216 C91 192 110 176 148 152 L28 152 L28 0 Z " />
<glyph glyph-name="estimated" unicode="&#x212e;" horiz-adv-x="486" d="M459 210 L459 217 L459 223 C459 233 459 234 458 237 C458 287 456 305 450 336 C431 440 348 508 240 508 C104 508 16 404 16 242 C16 82 101 -17 239 -17 C345 -17 419 39 446 141 L448 147 C448 148 449 151 450 154 L453 163 L455 171 L359 171 C357 166 357 165 355 161 L353 156 L352 153 C331 103 294 79 240 79 C187 79 163 97 148 149 L148 210 L459 210 Z M338 298 L150 298 L150 346 C172 395 195 412 240 412 C286 412 325 386 338 347 L338 298 Z " />
<glyph glyph-name="partialdiff" unicode="&#x2202;" horiz-adv-x="500" d="M47 524 C194 515 286 473 318 401 C290 422 259 431 211 431 C96 431 10 343 10 225 C10 89 106 -8 242 -8 C396 -8 488 97 488 273 C488 394 449 485 366 555 C294 616 202 649 67 662 L47 524 Z M249 299 C292 299 326 262 326 216 C326 170 291 133 247 133 C204 133 169 170 169 216 C169 262 204 299 249 299 L249 299 Z " />
<glyph glyph-name="emptyset" unicode="&#x2205;" horiz-adv-x="618" d="M439 667 L392 578 C362 588 340 592 311 592 C175 592 67 485 67 349 C67 267 103 200 175 147 L114 25 L162 0 L225 123 C248 112 271 107 304 107 C443 107 552 214 552 350 C552 432 514 501 439 554 L487 642 L439 667 Z M416 502 C465 472 496 412 496 349 C496 247 412 164 309 164 C290 164 275 166 251 172 L416 502 Z M200 198 C149 239 123 290 123 350 C123 452 208 535 312 535 C332 535 345 533 366 527 L200 198 Z " />
<glyph glyph-name="Delta" unicode="&#x2206;" horiz-adv-x="662" d="M9 0 L653 0 L423 667 L237 667 L9 0 Z M237 155 L331 478 L421 155 L237 155 Z " />
<glyph glyph-name="product" unicode="&#x220f;" horiz-adv-x="667" d="M15 750 L15 607 L87 607 L87 -107 L15 -107 L15 -250 L304 -250 L304 -107 L246 -107 L246 607 L421 607 L421 -107 L362 -107 L362 -250 L652 -250 L652 -107 L581 -107 L581 607 L652 607 L652 750 L15 750 Z " />
<glyph glyph-name="summation" unicode="&#x2211;" horiz-adv-x="667" d="M633 750 L33 750 L33 560 L260 264 L33 -60 L33 -250 L642 -250 L642 25 L472 25 L461 -85 L236 -85 L472 264 L234 585 L452 585 L472 482 L633 482 L633 750 Z " />
<glyph glyph-name="minus" unicode="&#x2212;" horiz-adv-x="533" d="M40 288 L493 288 L493 392 L40 392 L40 288 Z " />
<glyph glyph-name="uni2215" unicode="&#x2215;" horiz-adv-x="139" d="M-88 -44 L299 672 L225 711 L-160 -5 L-88 -44 Z " />
<glyph glyph-name="uni2218" unicode="&#x2218;" horiz-adv-x="500" d="M253 480 C175 480 113 418 113 340 C113 264 175 201 251 201 C327 201 388 263 388 341 C388 417 327 480 253 480 L253 480 Z M252 432 C300 432 341 390 341 340 C341 290 301 249 251 249 C201 249 160 290 160 340 C160 392 201 432 252 432 L252 432 Z " />
<glyph glyph-name="uni2219" unicode="&#x2219;" horiz-adv-x="292" d="M145 340 C90 340 45 295 45 240 C45 184 90 139 146 139 C201 139 247 184 247 238 C247 295 202 340 145 340 L145 340 Z " />
<glyph glyph-name="radical" unicode="&#x221a;" horiz-adv-x="667" d="M667 827 L380 827 L289 446 C268 360 246 228 240 149 L230 149 C228 192 221 258 215 294 L194 384 L0 384 L0 236 L93 236 L141 0 L352 0 L511 679 L667 679 L667 827 Z " />
<glyph glyph-name="infinity" unicode="&#x221e;" horiz-adv-x="667" d="M337 260 C381 205 432 178 490 178 C583 178 650 246 650 340 C650 435 583 501 488 501 C429 501 375 473 331 420 C283 475 234 501 178 501 C85 501 17 433 17 340 C17 245 84 178 179 178 C238 178 288 204 337 260 L337 260 Z M394 339 C419 374 443 391 469 391 C500 391 524 368 524 340 C524 311 500 288 470 288 C443 288 420 303 394 339 L394 339 Z M273 339 C247 303 224 288 198 288 C167 288 143 311 143 339 C143 368 167 391 197 391 C224 391 247 376 273 339 L273 339 Z " />
<glyph glyph-name="integral" unicode="&#x222b;" horiz-adv-x="500" d="M20 -240 C62 -247 82 -249 115 -249 C242 -249 321 -189 341 -78 C347 -46 347 -46 347 109 L347 489 C347 523 348 536 352 546 C361 568 380 580 406 580 C421 580 432 577 452 570 L480 740 C435 748 414 750 383 750 C271 750 188 695 165 605 C154 562 154 562 154 395 L154 71 C154 -33 154 -33 149 -45 C141 -66 119 -80 93 -80 C80 -80 68 -78 49 -70 L20 -240 Z " />
<glyph glyph-name="similar" unicode="&#x223c;" horiz-adv-x="500" d="M97 221 C118 261 134 276 156 276 C170 276 185 272 224 257 C291 230 310 225 336 225 C371 225 405 240 431 266 C456 292 469 315 493 374 L403 450 C382 410 366 396 343 396 C334 396 321 399 310 403 C206 442 190 447 163 447 C95 447 47 401 7 298 L97 221 Z " />
<glyph glyph-name="uni2243" unicode="&#x2243;" horiz-adv-x="500" d="M97 348 C119 379 134 390 155 390 C170 390 187 385 224 370 C288 345 308 339 336 339 C406 339 449 380 493 488 L403 552 C380 520 366 510 343 510 C333 510 322 513 310 517 C204 557 190 561 163 561 C95 561 47 516 7 412 L97 348 Z M493 294 L7 294 L7 149 L493 149 L493 294 Z " />
<glyph glyph-name="approxequal" unicode="&#x2248;" horiz-adv-x="500" d="M97 348 C119 379 134 390 155 390 C170 390 187 385 224 370 C288 345 308 339 336 339 C406 339 449 380 493 488 L403 552 C380 520 366 510 343 510 C333 510 322 513 310 517 C204 557 190 561 163 561 C95 561 47 516 7 412 L97 348 Z M97 107 C119 138 134 149 155 149 C170 149 187 144 224 129 C287 104 308 98 336 98 C406 98 449 139 493 247 L403 310 C380 278 366 269 342 269 C333 269 322 271 310 276 C200 317 190 320 163 320 C95 320 47 275 7 170 L97 107 Z " />
<glyph glyph-name="notequal" unicode="&#x2260;" horiz-adv-x="500" d="M251 498 L34 498 L34 340 L187 340 L150 275 L33 275 L33 117 L92 117 L65 75 L181 10 L241 117 L466 117 L466 275 L298 275 L335 340 L466 340 L466 498 L399 498 L438 566 L323 631 L251 498 Z " />
<glyph glyph-name="lessequal" unicode="&#x2264;" horiz-adv-x="500" d="M466 672 L33 515 L33 357 L466 200 L465 376 L239 435 L466 495 L466 672 Z M466 174 L33 174 L33 8 L466 8 L466 174 Z " />
<glyph glyph-name="greaterequal" unicode="&#x2265;" horiz-adv-x="500" d="M33 200 L466 357 L466 515 L33 672 L33 495 L260 435 L34 376 L33 200 Z M33 8 L466 8 L466 174 L33 174 L33 8 Z " />
<glyph glyph-name="lozenge" unicode="&#x25ca;" horiz-adv-x="667" d="M334 693 L74 334 L334 -26 L593 334 L334 693 Z M334 604 L531 334 L334 63 L137 334 L334 604 Z " />
<glyph glyph-name="ff" unicode="&#xfb00;" horiz-adv-x="575" d="M233 0 L233 328 L272 328 L272 467 L233 467 L233 532 C233 567 240 580 260 580 C271 580 277 577 295 564 L295 724 C260 733 240 736 214 736 C164 736 123 716 93 679 C70 650 60 611 60 553 L60 467 L10 467 L10 328 L60 328 L60 0 L233 0 Z M507 0 L507 328 L569 328 L569 467 L507 467 L507 532 C507 567 514 580 533 580 C544 580 551 577 569 564 L569 724 C534 733 513 736 488 736 C438 736 397 716 367 679 C344 650 334 611 334 553 L334 467 L297 467 L297 328 L334 328 L334 0 L507 0 Z " />
<glyph glyph-name="fi" unicode="&#xfb01;" horiz-adv-x="547" d="M233 0 L233 328 L295 328 L295 467 L233 467 L233 532 C233 567 240 580 259 580 C270 580 277 577 295 564 L295 724 C260 733 239 736 214 736 C164 736 123 716 93 679 C70 650 60 611 60 553 L60 467 L10 467 L10 328 L60 328 L60 0 L233 0 Z M507 0 L507 467 L334 467 L334 0 L507 0 Z M421 713 C365 713 320 668 320 612 C320 557 365 511 421 511 C476 511 522 556 522 611 C522 668 477 713 421 713 L421 713 Z " />
<glyph glyph-name="fl" unicode="&#xfb02;" horiz-adv-x="547" d="M233 0 L233 328 L295 328 L295 467 L233 467 L233 532 C233 567 240 580 259 580 C270 580 277 577 295 564 L295 724 C260 733 239 736 214 736 C164 736 123 716 93 679 C70 650 60 611 60 553 L60 467 L10 467 L10 328 L60 328 L60 0 L233 0 Z M507 0 L507 729 L334 729 L334 0 L507 0 Z " />
<glyph glyph-name="ffi" unicode="&#xfb03;" horiz-adv-x="821" d="M233 0 L233 328 L272 328 L272 467 L233 467 L233 532 C233 567 240 580 260 580 C271 580 277 577 295 564 L295 724 C260 733 240 736 214 736 C164 736 123 716 93 679 C70 650 60 611 60 553 L60 467 L10 467 L10 328 L60 328 L60 0 L233 0 Z M507 0 L507 328 L569 328 L569 467 L507 467 L507 532 C507 567 514 580 533 580 C544 580 551 577 569 564 L569 724 C534 733 513 736 488 736 C438 736 397 716 367 679 C344 650 334 611 334 553 L334 467 L297 467 L297 328 L334 328 L334 0 L507 0 Z M781 0 L781 467 L608 467 L608 0 L781 0 Z M695 713 C639 713 594 668 594 612 C594 557 639 511 695 511 C750 511 796 556 796 611 C796 668 751 713 695 713 L695 713 Z " />
<glyph glyph-name="ffl" unicode="&#xfb04;" horiz-adv-x="821" d="M233 0 L233 328 L272 328 L272 467 L233 467 L233 532 C233 567 240 580 260 580 C271 580 277 577 295 564 L295 724 C260 733 240 736 213 736 C164 736 123 716 93 679 C70 650 60 611 60 553 L60 467 L10 467 L10 328 L60 328 L60 0 L233 0 Z M507 0 L507 328 L569 328 L569 467 L507 467 L507 532 C507 567 514 580 533 580 C544 580 551 577 569 564 L569 724 C534 733 513 736 488 736 C438 736 397 716 367 679 C344 650 334 611 334 553 L334 467 L297 467 L297 328 L334 328 L334 0 L507 0 Z M781 0 L781 729 L608 729 L608 0 L781 0 Z " />
</font>
</svg>
