<?xml version="1.0" encoding="UTF-8"?>
<svg xmlns="http://www.w3.org/2000/svg" xmlns:xlink="http://www.w3.org/1999/xlink" version="1.2" >
<font id="Bodoni URW Extra Wide Medium">
<font-face  font-family="Bodoni URW Extra Wide" units-per-em="1000" ascent="678" descent="-322" font-style="normal" font-weight="500" font-stretch="normal" cap-height="667" x-height="393" underline-position="-91" underline-thickness="69" />
<missing-glyph  horiz-adv-x="250" d="" />
<glyph glyph-name="NULL" d="" />
<glyph glyph-name="CR" unicode="&#xd;" horiz-adv-x="250" d="" />
<glyph glyph-name="space" unicode="&#x20;" horiz-adv-x="250" d="" />
<glyph glyph-name="exclam" unicode="&#x21;" horiz-adv-x="318" d="M159 228 L172 228 C174 339 184 392 233 545 C243 574 245 584 245 598 C245 646 210 679 160 679 C109 679 74 646 74 598 C74 584 76 574 86 545 C135 392 145 338 146 228 L159 228 Z M158 147 C111 147 73 113 73 71 C73 27 110 -7 158 -7 C204 -7 242 27 242 70 C242 113 205 147 158 147 L158 147 Z " />
<glyph glyph-name="quotedbl" unicode="&#x22;" horiz-adv-x="311" d="M68 413 L96 413 L123 567 C126 582 128 602 128 612 C128 650 109 677 81 677 C56 677 37 650 37 612 C37 603 39 576 41 567 L68 413 Z M216 413 L243 413 L270 567 C273 580 275 603 275 612 C275 651 256 677 228 677 C203 677 184 650 184 612 C184 603 187 577 188 567 L216 413 Z " />
<glyph glyph-name="numbersign" unicode="&#x23;" horiz-adv-x="550" d="M249 444 L280 647 L162 647 L131 444 L40 444 L40 414 L126 414 L99 241 L8 241 L8 211 L95 211 L62 0 L180 0 L213 211 L302 211 L269 0 L387 0 L420 211 L510 211 L509 241 L424 241 L451 414 L542 414 L541 444 L456 444 L487 647 L369 647 L338 444 L249 444 Z M244 414 L333 414 L306 241 L217 241 L244 414 Z " />
<glyph glyph-name="dollar" unicode="&#x24;" horiz-adv-x="550" d="M244 -99 L281 -99 L281 0 C417 8 506 93 506 213 C506 284 468 351 413 379 C388 391 346 405 281 421 L281 637 C355 624 406 565 419 479 L447 479 L447 650 L419 650 L389 621 C351 645 321 657 281 664 L281 747 L244 747 L244 666 C121 661 35 579 35 467 C35 411 59 362 103 330 C126 314 134 311 216 286 L244 278 L244 27 C155 39 86 103 66 192 L38 192 L38 16 L65 16 L100 56 C146 25 193 8 244 2 L244 -99 Z M238 432 L231 434 C151 458 124 484 124 536 C124 595 171 638 238 641 L238 432 Z M281 267 L295 263 C337 252 357 245 375 234 C406 215 425 183 425 147 C425 84 365 33 281 26 L281 267 Z " />
<glyph glyph-name="percent" unicode="&#x25;" horiz-adv-x="788" d="M186 650 C101 650 30 574 30 483 C30 392 101 316 186 316 C270 316 341 392 341 481 C341 574 271 650 186 650 L186 650 Z M186 628 C210 628 229 617 236 598 C244 576 249 530 249 484 C249 440 243 391 236 368 C229 349 211 338 185 338 C160 338 144 348 136 368 C128 391 122 436 122 483 C122 530 127 575 136 598 C144 618 160 628 186 628 L186 628 Z M573 643 L532 643 L215 0 L257 0 L573 643 Z M603 327 C518 327 447 251 447 161 C447 70 518 -6 603 -6 C687 -6 758 70 758 159 C758 251 688 327 603 327 L603 327 Z M603 305 C627 305 646 294 653 275 C661 253 666 207 666 161 C666 118 660 69 653 46 C646 27 628 16 602 16 C577 16 561 26 553 46 C545 68 539 113 539 160 C539 208 544 252 553 275 C561 295 577 305 603 305 L603 305 Z " />
<glyph glyph-name="ampersand" unicode="&#x26;" horiz-adv-x="690" d="M361 336 C398 350 418 359 434 368 C478 392 498 420 498 454 C498 515 431 557 336 557 C283 557 243 543 212 513 C187 489 173 459 173 429 C173 395 184 368 223 310 C103 271 35 204 35 125 C35 43 114 -18 221 -18 C289 -18 357 7 410 50 L445 0 L663 0 L663 25 L588 25 L506 140 C532 177 557 222 571 254 C588 302 600 311 645 310 L668 310 L668 336 L459 336 L459 310 L513 310 C545 310 552 307 552 291 C552 264 531 218 492 161 L361 336 Z M297 428 C280 452 272 470 272 486 C272 516 300 538 339 538 C387 538 416 507 416 456 C416 404 392 371 347 360 L297 428 Z M397 69 C366 44 331 30 298 30 C261 30 230 49 202 88 C167 137 147 184 147 216 C147 254 175 278 238 293 L397 69 Z " />
<glyph glyph-name="quotesingle" unicode="&#x27;" horiz-adv-x="164" d="M68 413 L96 413 L123 567 C126 582 128 602 128 612 C128 650 109 677 81 677 C56 677 37 650 37 612 C37 603 39 576 41 567 L68 413 Z " />
<glyph glyph-name="parenleft" unicode="&#x28;" horiz-adv-x="329" d="M302 -173 C201 -52 159 67 159 233 C159 314 172 393 201 479 C227 559 250 599 302 661 L282 677 C116 546 35 405 35 244 C35 89 118 -56 282 -190 L302 -173 Z " />
<glyph glyph-name="parenright" unicode="&#x29;" horiz-adv-x="329" d="M28 661 C80 596 103 559 126 503 C155 429 171 345 171 258 C171 177 157 98 128 8 C103 -67 80 -108 28 -173 L48 -190 C125 -127 165 -86 205 -29 C263 55 295 152 295 245 C295 330 268 413 214 499 C172 565 130 610 48 677 L28 661 Z " />
<glyph glyph-name="asterisk" unicode="&#x2a;" horiz-adv-x="550" d="M262 502 C156 561 130 574 112 574 C88 574 69 556 69 533 C69 496 94 489 254 480 C146 397 130 381 130 360 C130 339 151 320 176 320 C196 320 210 332 225 361 C243 395 259 429 275 466 C335 332 344 320 374 320 C398 320 420 339 420 360 C420 374 412 387 390 404 C357 433 329 455 295 480 C373 485 414 489 433 492 C466 498 481 510 481 533 C481 555 462 574 439 574 C420 574 382 556 288 502 C311 589 319 622 319 641 C319 664 301 680 275 680 C250 680 231 664 231 641 C231 622 243 569 262 502 L262 502 Z " />
<glyph glyph-name="plus" unicode="&#x2b;" horiz-adv-x="550" d="M257 307 L257 128 L290 128 L290 307 L502 307 L502 340 L290 340 L290 519 L257 519 L257 340 L49 340 L49 307 L257 307 Z " />
<glyph glyph-name="comma" unicode="&#x2c;" horiz-adv-x="286" d="M116 -172 C207 -105 245 -48 245 24 C245 93 195 147 130 147 C81 147 42 113 42 70 C42 29 78 -5 121 -5 C151 -5 175 9 190 35 C199 21 202 12 202 -3 C202 -54 162 -111 98 -151 L116 -172 Z " />
<glyph glyph-name="hyphen" unicode="&#x2d;" horiz-adv-x="237" d="M0 250 L0 167 L237 167 L237 250 L0 250 Z " />
<glyph glyph-name="period" unicode="&#x2e;" horiz-adv-x="286" d="M144 147 C97 147 59 113 59 71 C59 27 96 -7 144 -7 C190 -7 228 27 228 70 C228 113 191 147 144 147 L144 147 Z " />
<glyph glyph-name="slash" unicode="&#x2f;" horiz-adv-x="483" d="M450 667 L346 667 L-51 -180 L55 -180 L450 667 Z " />
<glyph glyph-name="zero" unicode="0" horiz-adv-x="550" d="M276 654 C146 654 38 503 38 322 C38 141 146 -10 276 -10 C404 -10 513 141 513 318 C513 503 406 654 276 654 L276 654 Z M276 627 C318 627 350 602 360 560 C372 510 380 411 380 319 C380 234 371 131 360 84 C349 42 318 17 276 17 C233 17 202 42 191 84 C180 132 171 233 171 322 C171 411 180 512 191 560 C202 602 233 627 276 627 L276 627 Z " />
<glyph glyph-name="one" unicode="1" horiz-adv-x="550" d="M235 25 L106 25 L106 0 L483 0 L483 25 L367 25 L367 662 C328 652 254 644 200 644 L134 644 L106 644 L106 616 L235 616 L235 25 Z " />
<glyph glyph-name="two" unicode="2" horiz-adv-x="550" d="M488 208 L458 208 C453 114 452 113 397 113 L119 113 C149 134 149 134 192 163 C298 235 315 248 358 286 C444 362 483 423 483 482 C483 580 393 654 275 654 C149 654 50 576 50 475 C50 422 85 383 132 383 C169 383 199 411 199 446 C199 482 165 510 120 510 L112 510 C107 509 102 509 100 509 C93 509 88 514 88 521 C88 531 98 548 114 566 C141 595 177 611 215 611 C293 611 344 552 344 461 C344 385 320 336 247 259 C196 205 134 152 33 76 L33 0 L476 0 L488 208 Z " />
<glyph glyph-name="three" unicode="3" horiz-adv-x="550" d="M130 334 C150 335 164 335 174 335 C298 335 350 292 350 189 C350 77 302 18 211 18 C164 18 120 35 120 53 C120 59 122 61 133 67 C162 81 179 104 179 129 C179 167 148 197 109 197 C71 197 41 165 41 126 C41 49 125 -10 236 -10 C379 -10 493 77 493 185 C493 283 405 347 265 350 C384 372 455 433 455 514 C455 597 372 654 252 654 C148 654 72 605 72 537 C72 498 99 468 134 468 C171 468 197 491 197 524 C197 550 181 575 158 587 C148 591 146 593 146 598 C146 613 191 629 233 629 C294 629 324 590 324 510 C324 405 280 363 169 363 C163 363 147 364 130 365 L130 334 Z " />
<glyph glyph-name="four" unicode="4" horiz-adv-x="550" d="M264 170 L264 25 L183 25 L183 0 L485 0 L485 25 L391 25 L391 170 L454 170 C499 171 510 164 509 128 L509 96 L536 96 L536 267 L509 267 L509 246 C510 207 501 199 454 200 L391 200 L391 643 L316 643 L16 200 L16 170 L264 170 Z M264 200 L52 200 L264 508 L264 200 Z " />
<glyph glyph-name="five" unicode="5" horiz-adv-x="550" d="M133 528 L367 528 C412 527 425 535 444 573 C458 602 465 637 465 674 L435 674 C433 651 421 642 393 643 L167 643 C120 644 106 631 105 584 L90 350 L120 334 C158 355 190 364 223 364 C302 364 365 284 365 183 C365 86 304 14 222 14 C181 14 122 35 122 50 C122 54 126 58 133 61 C171 76 188 96 188 127 C188 165 155 195 115 195 C74 195 42 161 42 118 C42 45 123 -10 229 -10 C299 -10 373 14 426 53 C471 88 497 139 497 197 C497 313 391 397 244 397 C197 397 158 389 120 370 L133 528 Z " />
<glyph glyph-name="six" unicode="6" horiz-adv-x="550" d="M447 671 C343 671 266 640 187 567 C94 481 46 381 46 275 C46 117 153 -10 286 -10 C409 -10 512 98 512 228 C512 338 428 425 322 425 C278 425 236 407 205 374 C215 521 313 631 447 645 L447 671 Z M303 392 C335 392 359 378 370 354 C383 326 391 272 391 211 C391 71 361 17 284 17 C207 17 176 72 176 209 C176 281 188 327 213 354 C234 377 269 392 303 392 L303 392 Z " />
<glyph glyph-name="seven" unicode="7" horiz-adv-x="550" d="M67 431 L100 431 L113 471 C130 524 138 530 199 530 L442 530 C288 282 217 136 217 65 C217 17 247 -16 290 -16 C330 -16 359 17 359 65 C359 76 358 86 356 118 C354 154 353 167 353 182 C353 278 387 373 483 543 C523 615 523 615 523 622 C523 629 518 636 512 639 C504 643 504 643 473 643 L129 643 L67 431 Z " />
<glyph glyph-name="eight" unicode="8" horiz-adv-x="550" d="M346 336 C446 371 497 425 497 494 C497 583 398 654 275 654 C152 654 53 583 53 494 C53 425 104 371 204 336 C98 309 29 241 29 165 C29 67 138 -10 275 -10 C412 -10 521 67 521 165 C521 241 452 309 346 336 L346 336 Z M276 627 C306 627 332 616 346 596 C360 576 365 544 365 480 C365 379 345 350 276 350 C206 350 186 379 186 481 C186 539 191 571 202 590 C215 614 241 627 276 627 L276 627 Z M277 321 C309 321 337 310 355 291 C376 268 384 232 384 161 C384 58 354 17 277 17 C200 17 170 58 170 163 C170 227 177 262 194 285 C211 308 241 321 277 321 L277 321 Z " />
<glyph glyph-name="nine" unicode="9" horiz-adv-x="550" d="M85 -43 C188 -40 266 -11 342 53 C442 136 506 259 506 366 C506 522 393 654 258 654 C142 654 34 543 34 425 C34 312 124 218 231 218 C276 218 312 232 349 264 C326 94 246 8 85 -17 L85 -43 Z M267 627 C304 627 335 610 350 581 C365 554 371 503 371 420 C371 304 336 252 257 252 C186 252 159 304 159 440 C159 513 167 565 181 587 C197 612 230 627 267 627 L267 627 Z " />
<glyph glyph-name="colon" unicode="&#x3a;" horiz-adv-x="286" d="M144 147 C97 147 59 113 59 71 C59 27 96 -7 144 -7 C190 -7 228 27 228 70 C228 113 191 147 144 147 L144 147 Z M144 400 C97 400 59 366 59 324 C59 280 96 246 144 246 C190 246 228 280 228 323 C228 366 191 400 144 400 L144 400 Z " />
<glyph glyph-name="semicolon" unicode="&#x3b;" horiz-adv-x="286" d="M127 400 C81 400 43 366 43 324 C43 280 80 246 127 246 C174 246 211 280 211 323 C211 366 174 400 127 400 L127 400 Z M116 -172 C208 -104 245 -48 245 24 C245 93 195 147 130 147 C81 147 42 113 42 71 C42 29 78 -5 121 -5 C151 -5 175 9 190 35 C199 21 202 12 202 -2 C202 -54 163 -110 98 -151 L116 -172 Z " />
<glyph glyph-name="less" unicode="&#x3c;" horiz-adv-x="550" d="M502 607 L49 340 L49 334 L502 61 L502 140 L138 360 L502 577 L502 607 Z " />
<glyph glyph-name="equal" unicode="&#x3d;" horiz-adv-x="550" d="M49 280 L49 247 L501 247 L501 280 L49 280 Z M49 400 L49 367 L501 367 L501 400 L49 400 Z " />
<glyph glyph-name="greater" unicode="&#x3e;" horiz-adv-x="550" d="M49 61 L502 328 L502 333 L49 607 L49 527 L412 307 L49 91 L49 61 Z " />
<glyph glyph-name="question" unicode="&#x3f;" horiz-adv-x="433" d="M176 205 C170 217 168 223 168 231 C168 263 194 293 246 322 C349 379 398 441 398 516 C398 607 316 679 213 679 C121 679 32 615 32 548 C32 513 58 488 94 488 C132 488 161 511 161 541 C161 567 146 582 107 597 C91 604 90 604 90 607 C90 611 95 616 106 624 C132 642 168 652 204 652 C268 652 314 618 314 571 C314 544 301 526 260 494 C172 427 134 369 134 299 C134 270 141 236 154 205 L176 205 Z M172 147 C125 147 87 113 87 71 C87 27 124 -7 172 -7 C218 -7 256 27 256 70 C256 113 219 147 172 147 L172 147 Z " />
<glyph glyph-name="at" unicode="&#x40;" horiz-adv-x="837" d="M522 494 L511 447 C494 488 469 505 425 505 C313 505 210 399 210 285 C210 203 259 148 332 148 C383 148 420 170 459 227 C464 168 484 148 540 148 C579 148 618 160 656 184 C733 233 775 306 775 391 C775 548 626 671 436 671 C228 671 59 515 59 325 C59 135 222 -13 430 -13 C493 -13 560 2 608 26 C642 43 662 58 694 93 L637 93 C583 50 512 27 428 27 C246 27 102 159 102 325 C102 494 251 630 436 630 C516 630 589 605 647 557 C704 510 732 455 732 390 C732 332 709 275 668 234 C641 207 602 187 578 187 C570 187 566 191 566 199 C566 202 566 206 567 209 L634 494 L522 494 Z M431 483 C467 483 498 442 496 398 C494 355 471 289 443 247 C415 203 370 173 334 173 C315 173 306 182 306 201 C306 231 319 287 344 359 C376 454 397 483 431 483 L431 483 Z " />
<glyph glyph-name="A" unicode="A" horiz-adv-x="690" d="M404 179 L463 25 L369 25 L369 0 L697 0 L697 25 L620 25 L369 667 L334 667 L104 82 C86 31 77 24 27 25 L-11 25 L-11 0 L216 0 L216 25 L158 25 C130 25 121 29 121 39 C121 45 123 51 129 67 L173 179 L404 179 Z M393 204 L183 204 L288 469 L393 204 Z " />
<glyph glyph-name="B" unicode="B" horiz-adv-x="718" d="M123 25 L33 25 L33 0 L348 0 C410 0 457 2 480 4 C525 10 569 24 598 42 C647 74 674 122 674 175 C674 239 638 289 569 321 C532 338 503 344 444 348 C487 352 512 358 543 373 C603 401 639 451 639 506 C639 578 584 634 492 657 C456 666 436 667 332 667 L33 667 L33 642 L123 642 L123 25 Z M263 358 L263 642 L332 642 C405 642 434 636 457 618 C484 598 496 562 496 502 C496 393 457 358 336 358 L263 358 Z M263 25 L263 333 L335 333 C420 333 438 330 466 312 C502 288 519 248 519 183 C519 118 505 78 473 51 C447 29 427 25 348 25 L263 25 Z " />
<glyph glyph-name="C" unicode="C" horiz-adv-x="681" d="M617 667 L588 667 L568 626 C522 665 467 684 398 684 C202 684 42 521 42 321 C42 127 191 -17 393 -17 C463 -17 510 1 565 48 L595 0 L624 0 L633 186 L604 186 C566 74 485 10 382 10 C298 10 245 49 222 130 C212 166 209 199 209 299 C209 481 217 542 249 587 C282 634 331 657 400 657 C504 657 568 603 596 493 L625 493 L617 667 Z " />
<glyph glyph-name="D" unicode="D" horiz-adv-x="784" d="M123 25 L33 25 L33 0 L367 0 C432 0 464 1 482 3 C528 9 572 26 608 52 C693 112 741 213 741 332 C741 485 659 612 534 652 C494 664 466 667 366 667 L33 667 L33 642 L123 642 L123 25 Z M263 25 L263 642 L367 642 C455 642 493 629 525 587 C562 537 574 477 574 334 C574 190 562 130 525 80 C493 38 455 25 367 25 L263 25 Z " />
<glyph glyph-name="E" unicode="E" horiz-adv-x="690" d="M121 25 L33 25 L33 0 L637 0 L652 212 L623 212 C585 64 530 23 371 25 L261 25 L261 326 L291 326 C400 325 433 296 436 197 L468 197 L468 469 L436 469 C437 384 396 349 294 351 L261 351 L261 642 L399 642 C523 646 573 609 600 497 L629 497 L612 667 L33 667 L33 642 L121 642 L121 25 Z " />
<glyph glyph-name="F" unicode="F" horiz-adv-x="626" d="M114 25 L26 25 L26 0 L380 0 L380 25 L254 25 L254 326 L302 326 C410 325 442 297 446 197 L475 197 L475 469 L446 469 C446 384 405 349 305 351 L254 351 L254 642 L380 642 C495 649 566 592 590 474 L619 474 L608 667 L26 667 L26 642 L114 642 L114 25 Z " />
<glyph glyph-name="G" unicode="G" horiz-adv-x="728" d="M622 667 L593 667 L559 635 C507 668 450 684 388 684 C308 684 227 654 163 602 C80 534 38 440 38 326 C38 127 173 -17 359 -17 C423 -17 496 4 551 37 C579 55 601 72 639 109 L639 224 L719 224 L719 249 L390 249 L390 224 L499 224 L499 109 C499 52 439 10 357 10 C327 10 299 15 277 25 C240 40 223 66 216 116 C210 150 205 267 205 350 C205 490 215 560 240 596 C266 635 319 657 385 657 C448 657 508 636 539 602 C567 572 581 540 593 480 L622 480 L622 667 Z " />
<glyph glyph-name="H" unicode="H" horiz-adv-x="806" d="M121 25 L33 25 L33 0 L362 0 L362 25 L261 25 L261 330 L545 330 L545 25 L444 25 L444 0 L773 0 L773 25 L685 25 L685 642 L773 642 L773 667 L444 667 L444 642 L545 642 L545 355 L261 355 L261 642 L362 642 L362 667 L33 667 L33 642 L121 642 L121 25 Z " />
<glyph glyph-name="I" unicode="I" horiz-adv-x="382" d="M121 25 L33 25 L33 0 L349 0 L349 25 L261 25 L261 642 L349 642 L349 667 L33 667 L33 642 L121 642 L121 25 Z " />
<glyph glyph-name="J" unicode="J" horiz-adv-x="490" d="M226 642 L226 54 C226 -4 221 -26 205 -46 C189 -65 169 -76 151 -76 C132 -76 119 -67 119 -55 C119 -50 122 -45 129 -39 C151 -18 154 -12 154 4 C154 37 121 64 81 64 C38 64 7 34 7 -7 C7 -64 59 -103 135 -103 C203 -103 278 -71 318 -25 C355 18 366 59 366 151 L366 642 L446 642 L446 667 L138 667 L138 642 L226 642 Z " />
<glyph glyph-name="K" unicode="K" horiz-adv-x="765" d="M121 25 L33 25 L33 0 L363 0 L363 25 L261 25 L261 642 L363 642 L363 667 L33 667 L33 642 L121 642 L121 25 Z M409 427 L584 596 C624 636 640 642 689 642 L711 642 L711 667 L465 667 L465 642 L525 642 C552 642 562 638 562 629 C562 623 560 619 547 607 L282 347 L525 25 L439 25 L439 0 L765 0 L765 25 L711 25 L409 427 Z " />
<glyph glyph-name="L" unicode="L" horiz-adv-x="640" d="M121 25 L33 25 L33 0 L593 0 L614 210 L585 210 C555 87 474 19 364 25 L261 25 L261 642 L363 642 L363 667 L33 667 L33 642 L121 642 L121 25 Z " />
<glyph glyph-name="M" unicode="M" horiz-adv-x="865" d="M114 642 L114 97 C115 32 108 25 55 25 L26 25 L26 0 L235 0 L235 25 L206 25 C150 25 143 32 144 97 L144 642 L356 0 L380 0 L604 635 L604 25 L491 25 L491 0 L832 0 L832 25 L744 25 L744 642 L832 642 L832 667 L577 667 L430 254 L297 667 L26 667 L26 642 L114 642 Z " />
<glyph glyph-name="N" unicode="N" horiz-adv-x="762" d="M625 -7 L648 -7 L648 570 C647 635 654 642 707 642 L736 642 L736 667 L527 667 L527 642 L557 642 C612 642 619 635 618 570 L618 241 L264 667 L26 667 L26 642 L56 642 C111 642 118 635 117 570 L117 97 C118 32 111 25 56 25 L26 25 L26 0 L250 0 L250 25 L206 25 C153 25 146 32 147 97 L147 585 L625 -7 Z " />
<glyph glyph-name="O" unicode="O" horiz-adv-x="805" d="M402 684 C307 684 228 655 160 597 C87 533 42 433 42 334 C42 234 86 137 160 70 C225 12 307 -17 402 -17 C498 -17 580 12 645 70 C717 135 763 235 763 329 C763 433 720 530 645 597 C578 655 499 684 402 684 L402 684 Z M403 657 C472 657 519 637 551 595 C583 550 596 477 596 329 C596 205 585 129 560 86 C529 34 480 10 403 10 C332 10 287 29 255 72 C222 116 209 191 209 334 C209 462 220 538 245 581 C276 633 325 657 403 657 L403 657 Z " />
<glyph glyph-name="P" unicode="P" horiz-adv-x="688" d="M121 25 L33 25 L33 0 L374 0 L374 25 L261 25 L261 312 L355 312 C506 312 557 322 603 359 C643 392 666 438 666 488 C666 540 642 588 601 621 C553 658 503 667 353 667 L33 667 L33 642 L121 642 L121 25 Z M261 337 L261 642 L352 642 C482 642 514 611 514 487 C514 375 474 337 354 337 L261 337 Z " />
<glyph glyph-name="Q" unicode="Q" horiz-adv-x="805" d="M479 -10 C646 22 763 164 763 334 C763 433 719 531 645 597 C580 655 498 684 403 684 C307 684 225 655 160 597 C86 531 42 433 42 334 C42 166 159 23 323 -9 L323 -24 C325 -118 334 -146 373 -174 C431 -216 507 -233 641 -233 C662 -233 674 -233 703 -231 L703 -202 C679 -203 666 -204 653 -204 C521 -204 479 -160 479 -25 L479 -17 L479 -10 Z M403 657 C472 657 519 637 551 595 C583 550 596 477 596 329 C596 205 585 129 560 86 C529 34 480 10 403 10 C332 10 287 29 255 72 C222 116 209 191 209 334 C209 462 220 538 245 581 C276 633 325 657 403 657 L403 657 Z " />
<glyph glyph-name="R" unicode="R" horiz-adv-x="760" d="M121 25 L33 25 L33 0 L363 0 L363 25 L261 25 L261 343 L331 343 C420 346 449 312 457 192 C462 118 466 97 483 65 C507 19 552 -4 616 -4 C655 -4 693 3 738 18 L738 44 C716 37 700 33 685 33 C648 33 631 56 631 108 C631 117 631 123 632 134 L632 155 C632 259 553 336 429 355 C507 359 526 362 560 379 C616 407 647 455 647 512 C647 561 626 601 585 628 C538 659 491 667 355 667 L33 667 L33 642 L121 642 L121 25 Z M261 368 L261 642 L355 642 C421 642 448 637 470 620 C494 601 505 570 505 516 C505 398 474 368 355 368 L261 368 Z " />
<glyph glyph-name="S" unicode="S" horiz-adv-x="583" d="M479 667 L450 667 L419 636 C367 670 323 684 270 684 C144 684 47 593 47 475 C47 415 73 364 120 331 C146 312 146 312 274 275 C378 246 384 244 406 230 C437 210 456 176 456 138 C456 67 385 10 297 10 C191 10 108 77 79 186 L50 186 L50 0 L78 0 L115 42 C180 1 236 -17 299 -17 C438 -17 541 79 541 207 C541 282 501 352 443 381 C413 397 377 407 243 442 C160 464 126 494 126 546 C126 609 186 657 265 657 C365 657 433 594 450 487 L479 487 L479 667 Z " />
<glyph glyph-name="T" unicode="T" horiz-adv-x="670" d="M265 25 L166 25 L166 0 L504 0 L504 25 L405 25 L405 642 L425 642 C547 649 616 588 630 462 L659 462 L645 667 L25 667 L11 462 L40 462 C53 588 119 649 235 642 L265 642 L265 25 Z " />
<glyph glyph-name="U" unicode="U" horiz-adv-x="736" d="M110 642 L110 213 C110 159 111 133 114 119 C120 90 136 65 161 45 C206 8 294 -17 382 -17 C468 -17 543 7 583 47 C621 85 630 117 630 213 L630 570 C629 635 636 642 689 642 L718 642 L718 667 L509 667 L509 642 L539 642 C594 642 601 635 600 570 L600 214 C600 138 593 106 569 75 C540 39 483 18 413 18 C349 18 301 38 273 75 C255 101 250 129 250 213 L250 642 L363 642 L363 667 L22 667 L22 642 L110 642 Z " />
<glyph glyph-name="V" unicode="V" horiz-adv-x="683" d="M224 642 L312 642 L312 667 L-6 667 L-6 642 L62 642 L342 -13 L371 -13 L587 580 C602 627 622 642 668 642 L686 642 L686 667 L474 667 L474 642 L504 642 C554 642 565 638 565 621 C565 616 564 610 560 601 L414 197 L224 642 Z " />
<glyph glyph-name="W" unicode="W" horiz-adv-x="988" d="M678 642 L740 642 L740 667 L-2 667 L-2 642 L72 642 L344 -13 L369 -13 L514 292 L643 -13 L672 -13 L892 579 C910 628 927 641 971 642 L992 642 L992 667 L788 667 L788 642 L825 642 C860 642 869 637 869 620 C869 614 868 609 862 592 L715 192 L598 469 L678 642 Z M638 642 L581 510 L530 642 L638 642 Z M367 642 L496 333 L422 179 L231 642 L367 642 Z " />
<glyph glyph-name="X" unicode="X" horiz-adv-x="683" d="M282 304 L119 78 C90 34 72 25 13 25 L-4 25 L-4 0 L229 0 L229 25 L189 25 C153 25 139 30 139 42 C139 50 144 58 157 77 L300 275 L453 25 L365 25 L365 0 L694 0 L694 25 L629 25 L394 405 L528 592 C560 636 568 641 622 642 L636 642 L636 667 L427 667 L427 642 L462 642 C501 642 509 639 509 627 C509 620 505 612 495 598 L377 434 L247 642 L319 642 L319 667 L-4 667 L-4 642 L73 642 L282 304 Z " />
<glyph glyph-name="Y" unicode="Y" horiz-adv-x="659" d="M256 25 L157 25 L157 0 L495 0 L495 25 L396 25 L396 307 L567 590 C590 633 601 640 647 642 L667 642 L667 667 L454 667 L454 642 L509 642 C540 642 547 639 547 626 C547 621 542 610 536 598 L388 351 L207 642 L315 642 L315 667 L-23 667 L-23 642 L44 642 L256 307 L256 25 Z " />
<glyph glyph-name="Z" unicode="Z" horiz-adv-x="619" d="M22 32 L22 0 L568 0 L575 213 L546 213 C518 83 435 17 307 25 L191 25 L568 648 L568 667 L73 667 L60 490 L89 490 C115 600 185 649 307 642 L391 642 L22 32 Z " />
<glyph glyph-name="bracketleft" unicode="&#x5b;" horiz-adv-x="329" d="M69 -180 L304 -180 L304 -155 L174 -155 L174 642 L304 642 L304 667 L69 667 L69 -180 Z " />
<glyph glyph-name="backslash" unicode="&#x5c;" horiz-adv-x="483" d="M33 667 L429 -180 L534 -180 L138 667 L33 667 Z " />
<glyph glyph-name="bracketright" unicode="&#x5d;" horiz-adv-x="329" d="M260 667 L25 667 L25 642 L155 642 L155 -155 L25 -155 L25 -180 L260 -180 L260 667 Z " />
<glyph glyph-name="asciicircum" unicode="&#x5e;" horiz-adv-x="550" d="M582 280 L292 700 L283 700 L-32 280 L139 280 L335 542 L518 280 L582 280 Z " />
<glyph glyph-name="underscore" unicode="&#x5f;" horiz-adv-x="502" d="M12 -91 L12 -160 L490 -160 L490 -91 L12 -91 Z " />
<glyph glyph-name="grave" unicode="&#x60;" horiz-adv-x="532" d="M234 621 L137 621 L137 596 L297 471 L314 480 L234 621 Z " />
<glyph glyph-name="a" unicode="a" horiz-adv-x="503" d="M481 56 C471 46 461 41 450 41 C432 41 427 50 427 81 L427 263 C427 326 423 341 400 362 C370 388 315 403 251 403 C151 403 73 359 73 302 C73 272 97 249 128 249 C162 249 191 272 191 299 C191 312 186 321 171 333 C162 342 159 346 159 350 C159 365 190 376 235 376 C271 376 294 368 305 353 C314 339 314 339 315 258 L315 233 C232 227 185 218 135 198 C70 172 34 131 34 84 C34 27 84 -10 159 -10 C220 -10 274 13 315 56 C336 17 369 -5 405 -5 C440 -5 473 11 500 40 L481 56 Z M315 156 C315 109 311 90 299 73 C284 53 260 42 231 42 C182 42 146 73 146 116 C146 175 204 205 315 206 L315 156 Z " />
<glyph glyph-name="b" unicode="b" horiz-adv-x="598" d="M79 25 L4 25 L4 0 L199 0 L199 59 C240 11 288 -10 353 -10 C406 -10 455 7 491 38 C534 76 563 140 563 199 C563 315 471 403 351 403 C287 403 237 379 199 330 L199 678 C154 670 122 667 39 667 L4 667 L4 642 L79 642 L79 25 Z M348 373 C375 373 396 364 411 347 C428 328 433 299 433 225 C433 147 428 85 419 61 C409 35 380 20 340 20 C301 20 268 34 240 62 C208 95 194 135 194 195 C194 256 211 304 242 333 C269 358 309 373 348 373 L348 373 Z " />
<glyph glyph-name="c" unicode="c" horiz-adv-x="474" d="M437 118 C399 54 346 20 281 20 C197 20 165 66 165 186 C165 331 192 376 281 376 C313 376 330 371 350 355 C325 340 310 316 310 291 C310 257 340 231 379 231 C417 231 449 260 449 295 C449 355 373 403 281 403 C145 403 35 309 35 193 C35 80 139 -10 268 -10 C357 -10 422 29 463 106 L437 118 Z " />
<glyph glyph-name="d" unicode="d" horiz-adv-x="575" d="M379 0 L572 0 L572 25 L499 25 L499 678 C453 670 420 667 333 667 L294 667 L294 642 L379 642 L379 335 C336 384 297 403 240 403 C127 403 35 308 35 193 C35 79 126 -10 244 -10 C302 -10 345 12 379 60 L379 0 Z M261 373 C292 373 324 357 348 329 C371 303 383 257 383 194 C383 94 333 21 264 21 C235 21 211 32 197 52 C178 77 165 143 165 211 C165 318 198 373 261 373 L261 373 Z " />
<glyph glyph-name="e" unicode="e" horiz-adv-x="484" d="M458 221 C459 327 376 403 259 403 C131 403 35 315 35 198 C35 129 66 72 124 33 C166 6 217 -10 264 -10 C348 -10 411 29 458 110 L432 121 C393 54 342 20 282 20 C242 20 211 37 197 66 C185 89 185 89 185 199 L185 221 L458 221 Z M185 246 L185 274 C185 319 187 335 193 348 C202 367 223 376 254 376 C283 376 303 368 313 352 C322 339 324 323 324 274 L324 246 L185 246 Z " />
<glyph glyph-name="f" unicode="f" horiz-adv-x="349" d="M88 25 L15 25 L15 0 L320 0 L320 25 L208 25 L208 368 L320 368 L320 393 L208 393 L208 555 C208 596 212 613 225 626 C238 639 260 647 279 647 C299 647 314 640 314 632 C314 628 312 627 302 620 C286 610 280 601 280 589 C280 565 306 545 337 545 C373 545 398 568 398 600 C398 641 355 674 301 674 C235 674 169 641 131 589 C101 548 88 500 88 426 L88 393 L15 393 L15 368 L88 368 L88 25 Z " />
<glyph glyph-name="g" unicode="g" horiz-adv-x="543" d="M239 35 L146 35 L136 35 C95 35 79 43 79 64 C79 89 110 116 152 127 C188 112 221 106 259 106 C376 106 459 168 459 257 C459 282 453 304 439 327 C439 339 444 345 451 345 C455 345 457 344 460 340 C471 328 482 323 497 323 C519 323 537 340 537 363 C537 389 517 408 489 408 C458 408 437 389 422 350 C376 387 329 403 265 403 C151 403 66 339 66 253 C66 208 86 172 129 140 C71 124 30 76 30 23 C30 -25 58 -59 109 -73 C58 -86 32 -114 32 -154 C32 -222 126 -271 255 -271 C409 -271 507 -202 507 -93 C507 -53 492 -19 465 4 C437 27 404 36 344 36 L239 35 Z M183 292 C183 327 187 341 198 354 C211 368 235 376 262 376 C289 376 313 368 326 354 C337 341 341 327 341 292 L341 217 C341 182 337 168 326 155 C312 141 290 133 262 133 C234 133 212 141 198 155 C187 168 183 182 183 217 L183 292 Z M385 -81 C422 -81 440 -98 440 -132 C440 -196 365 -244 263 -244 C177 -244 121 -205 121 -146 C121 -122 130 -102 151 -81 L385 -81 Z " />
<glyph glyph-name="h" unicode="h" horiz-adv-x="603" d="M84 25 L11 25 L11 0 L275 0 L275 25 L204 25 L204 196 C204 251 210 279 227 305 C249 338 289 360 329 360 C350 360 369 353 379 342 C391 330 393 317 393 271 L393 25 L334 25 L334 0 L598 0 L598 25 L513 25 L513 271 C513 320 509 340 495 359 C475 387 430 403 373 403 C303 403 253 380 204 326 L204 678 C159 670 127 667 45 667 L11 667 L11 642 L84 642 L84 25 Z " />
<glyph glyph-name="i" unicode="i" horiz-adv-x="307" d="M105 25 L20 25 L20 0 L298 0 L298 25 L225 25 L225 404 C179 396 146 393 59 393 L20 393 L20 368 L105 368 L105 25 Z M146 635 C109 635 79 605 79 569 C79 532 108 502 146 502 C182 502 212 532 212 569 C212 605 182 635 146 635 L146 635 Z " />
<glyph glyph-name="j" unicode="j" horiz-adv-x="261" d="M80 368 L80 -144 C80 -202 79 -214 72 -225 C65 -236 51 -243 34 -243 C19 -243 8 -238 8 -232 C8 -229 10 -227 15 -223 C28 -212 32 -206 32 -196 C32 -173 8 -153 -21 -153 C-52 -153 -77 -175 -77 -202 C-77 -242 -38 -270 17 -270 C82 -270 134 -233 169 -162 C192 -114 200 -67 200 18 L200 404 C156 396 124 393 40 393 L5 393 L5 368 L80 368 Z M125 635 C88 635 58 605 58 569 C58 532 87 502 125 502 C161 502 191 532 191 569 C191 605 161 635 125 635 L125 635 Z " />
<glyph glyph-name="k" unicode="k" horiz-adv-x="584" d="M89 25 L4 25 L4 0 L268 0 L268 25 L209 25 L209 678 C163 670 130 667 43 667 L4 667 L4 642 L89 642 L89 25 Z M329 268 L400 328 C441 365 449 368 492 368 L518 368 L518 393 L298 393 L298 368 L345 368 C376 368 381 366 381 357 C381 350 376 344 356 328 L216 212 L368 25 L310 25 L310 0 L580 0 L580 25 L527 25 L329 268 Z " />
<glyph glyph-name="l" unicode="l" horiz-adv-x="286" d="M89 25 L4 25 L4 0 L282 0 L282 25 L209 25 L209 678 C163 670 130 667 43 667 L4 667 L4 642 L89 642 L89 25 Z " />
<glyph glyph-name="m" unicode="m" horiz-adv-x="898" d="M99 25 L26 25 L26 0 L290 0 L290 25 L219 25 L219 217 C219 269 222 285 238 309 C259 341 299 363 335 363 C355 363 371 357 381 345 C394 331 395 324 395 269 L395 25 L336 25 L336 0 L586 0 L586 25 L515 25 L515 217 C515 268 522 294 543 319 C566 346 601 363 633 363 C655 363 671 357 681 344 C690 333 690 331 690 269 L690 25 L631 25 L631 0 L895 0 L895 25 L810 25 L810 269 C810 329 804 349 780 370 C756 391 717 403 673 403 C606 403 555 378 515 325 C495 374 445 403 379 403 C317 403 262 379 219 333 L219 404 C174 396 142 393 60 393 L26 393 L26 368 L99 368 L99 25 Z " />
<glyph glyph-name="n" unicode="n" horiz-adv-x="613" d="M99 25 L26 25 L26 0 L290 0 L290 25 L219 25 L219 218 C219 266 221 278 235 300 C256 337 303 363 345 363 C389 363 404 341 404 274 L404 25 L345 25 L345 0 L609 0 L609 25 L524 25 L524 274 C524 329 517 351 491 372 C466 392 428 403 385 403 C320 403 260 377 219 331 L219 404 C174 396 142 393 60 393 L26 393 L26 368 L99 368 L99 25 Z " />
<glyph glyph-name="o" unicode="o" horiz-adv-x="563" d="M281 403 C143 403 35 312 35 197 C35 80 143 -10 281 -10 C419 -10 528 80 528 194 C528 313 422 403 281 403 L281 403 Z M282 376 C321 376 355 363 374 340 C392 318 398 280 398 194 C398 121 392 80 379 60 C361 33 326 17 282 17 C241 17 208 30 189 53 C171 75 165 113 165 196 C165 272 171 312 184 333 C202 360 237 376 282 376 L282 376 Z " />
<glyph glyph-name="p" unicode="p" horiz-adv-x="575" d="M77 -242 L4 -242 L4 -267 L282 -267 L282 -242 L197 -242 L197 70 C242 12 281 -10 341 -10 C450 -10 541 85 541 200 C541 310 449 403 338 403 C281 403 240 382 197 329 L197 404 C153 396 122 393 38 393 L4 393 L4 368 L77 368 L77 -242 Z M321 373 C386 373 411 323 411 190 C411 74 383 20 323 20 C250 20 192 96 192 193 C192 293 249 373 321 373 L321 373 Z " />
<glyph glyph-name="q" unicode="q" horiz-adv-x="577" d="M380 -242 L295 -242 L295 -267 L573 -267 L573 -242 L500 -242 L500 368 L573 368 L573 393 L533 393 C465 393 421 396 380 405 L380 337 C361 358 352 367 339 376 C314 392 277 403 242 403 C129 403 35 311 35 199 C35 83 126 -10 239 -10 C299 -10 335 9 380 63 L380 -242 Z M257 373 C334 373 384 308 384 210 C384 159 368 99 345 67 C325 40 286 20 252 20 C222 20 198 34 187 58 C172 88 165 131 165 187 C165 321 191 373 257 373 L257 373 Z " />
<glyph glyph-name="r" unicode="r" horiz-adv-x="453" d="M93 25 L20 25 L20 0 L310 0 L310 25 L213 25 L213 200 C213 262 229 300 272 338 C288 353 315 367 326 367 C333 367 337 364 337 359 C337 356 336 354 332 352 C315 340 309 331 309 316 C309 285 337 261 374 261 C414 261 443 288 443 325 C443 370 403 403 348 403 C295 403 243 371 213 318 L213 404 C169 396 137 393 50 393 L20 393 L20 368 L93 368 L93 25 Z " />
<glyph glyph-name="s" unicode="s" horiz-adv-x="410" d="M345 403 L317 403 C315 382 311 376 301 376 C295 376 288 378 274 383 C237 398 213 403 184 403 C105 403 42 346 42 275 C42 242 58 211 86 189 C105 173 137 162 205 146 C262 133 268 131 285 122 C303 111 314 95 314 78 C314 44 272 17 219 17 C171 17 122 39 93 74 C76 96 69 115 66 146 L37 146 L37 0 L66 0 C66 17 71 26 82 26 C89 26 94 24 104 18 C136 -1 172 -10 212 -10 C307 -10 376 51 376 137 C376 186 348 221 292 241 C270 249 226 261 173 273 C129 282 108 299 108 324 C108 355 140 376 187 376 C225 376 264 361 290 337 C307 322 313 310 317 286 L345 286 L345 403 Z " />
<glyph glyph-name="t" unicode="t" horiz-adv-x="335" d="M77 368 L77 89 C77 22 112 -10 187 -10 C235 -10 279 7 304 36 C317 51 325 68 332 97 L301 102 C293 78 291 71 286 63 C275 47 256 37 237 37 C210 37 197 54 197 89 L197 368 L300 368 L300 393 L197 393 L197 564 L169 564 C134 481 74 415 4 384 L4 368 L77 368 Z " />
<glyph glyph-name="u" unicode="u" horiz-adv-x="579" d="M382 0 L575 0 L575 25 L502 25 L502 404 C456 396 422 393 336 393 L296 393 L296 368 L382 368 L382 171 C382 122 378 105 362 83 C341 54 300 33 264 33 C247 33 231 39 221 50 C211 60 209 69 209 110 L209 404 C163 396 130 393 43 393 L4 393 L4 368 L89 368 L89 133 C89 74 96 47 117 25 C138 2 173 -10 217 -10 C286 -10 330 11 382 69 L382 0 Z " />
<glyph glyph-name="v" unicode="v" horiz-adv-x="490" d="M174 368 L243 368 L243 393 L-13 393 L-13 368 L37 368 L233 -13 L263 -13 L413 320 C433 365 437 367 478 368 L504 368 L504 393 L317 393 L317 368 L358 368 C385 368 393 364 393 353 C393 347 392 344 385 329 L296 132 L174 368 Z " />
<glyph glyph-name="w" unicode="w" horiz-adv-x="705" d="M181 368 L253 368 L253 393 L-13 393 L-13 368 L39 368 L208 -13 L235 -13 L343 237 L462 -13 L487 -13 L626 322 C641 362 651 368 693 368 L718 368 L718 393 L531 393 L531 368 L577 368 C599 368 605 365 605 354 C605 348 605 348 597 329 L525 149 L415 393 L382 393 L275 149 L181 368 Z " />
<glyph glyph-name="x" unicode="x" horiz-adv-x="536" d="M215 168 L115 69 C80 33 65 25 30 25 L-2 25 L-2 0 L190 0 L190 25 L145 25 C130 25 126 27 126 33 C126 39 133 48 149 64 L232 148 L333 25 L269 25 L269 0 L534 0 L534 25 L489 25 L316 234 L421 339 C446 364 458 369 496 368 L517 368 L517 393 L333 393 L333 368 L364 368 C392 368 397 366 397 359 C397 355 396 354 382 339 L300 254 L204 368 L269 368 L269 393 L-2 393 L-2 368 L48 368 L215 168 Z " />
<glyph glyph-name="y" unicode="y" horiz-adv-x="492" d="M231 2 L178 -126 C157 -178 142 -200 131 -200 C125 -200 120 -197 116 -191 C101 -169 82 -158 59 -158 C28 -158 2 -182 2 -211 C2 -245 32 -270 73 -270 C100 -270 124 -259 145 -237 C164 -218 174 -200 201 -139 L412 329 C427 362 439 369 479 368 L505 368 L505 393 L319 393 L319 368 L353 368 C380 368 387 364 387 350 C387 344 386 340 377 322 L298 145 L187 368 L240 368 L240 393 L-13 393 L-13 368 L41 368 L231 2 Z " />
<glyph glyph-name="z" unicode="z" horiz-adv-x="473" d="M433 393 L61 393 L55 246 L81 246 C101 336 150 373 239 368 L286 368 L29 20 L29 0 L433 0 L444 163 L414 163 C391 66 334 20 241 25 L178 25 L433 373 L433 393 Z " />
<glyph glyph-name="braceleft" unicode="&#x7b;" horiz-adv-x="329" d="M20 247 C80 241 82 236 83 105 L83 22 C85 -99 89 -120 120 -149 C150 -174 184 -180 288 -180 L288 -155 C199 -152 186 -130 188 7 L188 103 C192 210 169 250 101 256 L101 260 C168 266 192 306 188 403 L188 495 C184 602 208 637 288 642 L288 667 C177 664 163 662 134 646 C92 615 81 578 83 469 L83 398 C79 305 79 303 72 290 C62 275 48 269 20 269 L20 247 Z " />
<glyph glyph-name="bar" unicode="&#x7c;" horiz-adv-x="541" d="M225 667 L225 -167 L316 -167 L316 667 L225 667 Z " />
<glyph glyph-name="braceright" unicode="&#x7d;" horiz-adv-x="329" d="M309 269 C281 269 267 275 257 290 C250 303 249 305 246 398 L246 469 C247 574 239 608 202 640 C172 662 157 664 41 667 L41 642 C121 637 144 602 141 495 L141 403 C136 306 161 266 227 260 L227 256 C160 250 137 209 141 103 L141 7 C143 -130 129 -152 41 -155 L41 -180 C138 -180 172 -175 202 -154 C239 -125 244 -104 246 22 L246 105 C247 236 249 241 309 247 L309 269 Z " />
<glyph glyph-name="asciitilde" unicode="&#x7e;" horiz-adv-x="518" d="M117 284 C136 310 153 320 179 320 C195 320 212 316 254 301 C286 290 296 287 309 287 C350 287 380 310 420 372 L401 382 C383 357 370 348 350 348 C335 348 328 350 285 366 C255 377 235 381 218 381 C170 381 134 355 98 293 L117 284 Z " />
<glyph glyph-name="uni00A0" unicode="&#xa0;" horiz-adv-x="250" d="" />
<glyph glyph-name="exclamdown" unicode="&#xa1;" horiz-adv-x="318" d="M158 181 L145 181 C144 69 134 16 85 -137 C75 -165 73 -175 73 -189 C73 -237 108 -270 158 -270 C208 -270 243 -237 243 -189 C243 -176 241 -165 231 -136 C182 17 172 70 171 181 L158 181 Z M160 415 C114 415 76 381 76 338 C76 296 113 262 160 262 C207 262 245 296 245 338 C245 381 208 415 160 415 L160 415 Z " />
<glyph glyph-name="cent" unicode="&#xa2;" horiz-adv-x="550" d="M277 41 L311 41 L311 136 C396 142 459 182 493 251 L467 264 C431 199 376 164 311 166 L311 522 C347 521 361 517 380 501 C354 485 339 462 339 437 C339 403 369 377 408 377 C447 377 479 406 479 441 C479 501 406 547 311 549 L311 639 L277 639 L277 547 C149 527 65 444 65 338 C65 233 151 151 277 137 L277 41 Z M277 173 C244 183 230 194 218 215 C202 242 195 279 195 332 C195 454 215 499 277 517 L277 173 Z " />
<glyph glyph-name="sterling" unicode="&#xa3;" horiz-adv-x="550" d="M194 271 C245 222 257 201 257 163 C257 149 255 141 247 127 C200 142 159 150 122 150 C49 150 -9 114 -9 68 C-9 24 43 -10 109 -10 C157 -10 186 0 247 34 C294 2 352 -18 397 -18 C496 -18 551 51 550 173 L517 173 C515 110 480 69 427 69 C401 69 355 82 304 104 C318 131 325 162 325 194 C325 222 320 250 310 271 L442 271 L442 307 L293 307 C283 320 283 320 231 376 C198 412 173 471 173 514 C173 590 236 649 315 649 C351 649 381 637 403 614 C410 606 415 599 415 595 C415 589 412 586 403 582 C374 567 357 546 357 523 C357 491 390 464 429 464 C472 464 504 495 504 538 C504 617 407 680 285 680 C144 680 43 604 43 498 C43 434 80 372 158 307 L47 307 L47 271 L194 271 Z M203 58 C181 39 141 26 103 26 C62 26 30 44 30 68 C30 85 49 98 75 98 C110 98 159 83 203 58 L203 58 Z " />
<glyph glyph-name="currency" unicode="&#xa4;" horiz-adv-x="550" d="M418 485 C377 516 327 532 274 532 C221 532 176 517 131 485 L58 552 L29 525 L102 459 C68 422 50 376 50 329 C50 281 67 238 102 198 L29 132 L58 106 L131 172 C171 142 223 125 275 125 C326 125 378 142 418 172 L491 106 L520 132 L447 198 C481 236 499 281 499 329 C499 377 482 419 447 459 L520 525 L491 552 L418 485 Z M275 457 C357 457 424 399 424 328 C424 257 357 200 272 200 C192 200 125 259 125 329 C125 400 192 457 275 457 L275 457 Z " />
<glyph glyph-name="yen" unicode="&#xa5;" horiz-adv-x="550" d="M205 298 L205 25 L113 25 L113 0 L440 0 L440 25 L335 25 L335 298 L499 298 L499 323 L346 323 L395 431 L524 431 L524 456 L409 456 L459 569 C475 608 491 618 533 618 L545 618 L545 643 L355 643 L355 618 L403 618 L417 619 C427 620 436 613 436 604 C436 599 432 587 427 577 L321 344 L195 618 L272 618 L272 643 L-13 643 L-13 618 L55 618 L133 456 L18 456 L18 431 L145 431 L198 323 L48 323 L48 298 L205 298 Z " />
<glyph glyph-name="brokenbar" unicode="&#xa6;" horiz-adv-x="541" d="M225 667 L225 316 L316 316 L316 667 L225 667 Z M225 153 L225 -167 L316 -167 L316 153 L225 153 Z " />
<glyph glyph-name="section" unicode="&#xa7;" horiz-adv-x="550" d="M385 108 C420 122 437 132 456 150 C487 180 506 222 506 265 C506 315 483 349 427 382 C401 397 329 435 232 483 C181 509 162 532 162 565 C162 617 215 653 291 653 C344 653 392 634 392 614 C392 609 388 605 381 602 C346 590 331 575 331 550 C331 522 359 499 394 499 C434 499 463 526 463 564 C463 630 383 680 279 680 C171 680 87 611 87 521 C87 479 109 442 157 403 C81 368 44 319 44 252 C44 187 72 152 155 111 C179 99 207 85 238 69 C275 50 315 29 317 29 C391 -6 414 -29 414 -68 C414 -125 349 -166 260 -166 C197 -166 120 -139 120 -117 C120 -113 124 -111 136 -109 C170 -104 194 -79 194 -49 C194 -14 165 12 127 12 C87 12 55 -20 55 -62 C55 -92 75 -128 103 -149 C141 -178 195 -193 260 -193 C396 -193 493 -125 493 -30 C493 32 457 79 385 108 L385 108 Z M178 216 C149 230 134 239 124 251 C111 264 101 284 101 296 C101 309 119 342 133 356 C145 367 166 375 184 375 C204 375 215 371 251 353 C264 345 284 335 308 324 C396 282 396 282 413 269 C433 254 446 230 446 208 C446 169 412 139 370 139 C339 139 312 149 232 189 L178 216 Z " />
<glyph glyph-name="dieresis" unicode="&#xa8;" horiz-adv-x="401" d="M95 610 C61 610 33 583 33 549 C33 514 60 487 95 487 C129 487 156 515 156 549 C156 583 129 610 95 610 L95 610 Z M306 610 C272 610 244 583 244 549 C244 514 271 487 306 487 C340 487 367 515 367 549 C367 583 340 610 306 610 L306 610 Z " />
<glyph glyph-name="copyright" unicode="&#xa9;" horiz-adv-x="863" d="M587 523 L563 523 L552 502 C525 523 491 533 450 533 C328 533 229 440 229 327 C229 216 321 134 447 134 C489 134 518 143 551 168 L568 143 L591 143 L597 254 L573 254 C549 191 502 156 439 156 C408 156 383 165 366 182 C343 206 337 233 337 315 C337 416 342 449 361 473 C381 499 410 511 450 511 C513 511 550 482 568 419 L592 419 L587 523 Z M432 684 C217 684 42 527 42 333 C42 143 217 -17 425 -17 C646 -17 821 137 821 331 C821 527 648 684 432 684 L432 684 Z M432 644 C621 644 773 505 773 331 C773 160 619 23 426 23 C243 23 90 165 90 333 C90 505 243 644 432 644 L432 644 Z " />
<glyph glyph-name="ordfeminine" unicode="&#xaa;" horiz-adv-x="367" d="M358 330 L10 330 L10 297 L358 297 L358 330 Z M322 444 C316 435 310 432 304 432 C295 432 293 437 293 457 L293 578 C293 621 290 631 275 645 C256 663 222 674 181 674 C117 674 67 643 67 604 C67 582 82 566 103 566 C125 566 143 583 143 603 C143 611 141 617 135 627 C132 632 131 634 131 636 C131 645 148 651 171 651 C189 651 201 646 206 637 C211 628 211 628 212 574 L212 560 C104 552 44 515 44 458 C44 419 75 393 121 393 C157 393 191 408 214 435 C227 411 250 397 273 397 C297 397 319 408 337 429 L322 444 Z M210 506 C210 453 198 433 166 433 C141 433 123 453 123 480 C123 516 153 536 210 537 L210 506 Z " />
<glyph glyph-name="guillemotleft" unicode="&#xab;" horiz-adv-x="407" d="M44 213 L134 113 L220 113 L134 213 L220 303 L134 303 L44 213 Z M180 213 L269 113 L356 113 L269 213 L356 303 L269 303 L180 213 Z " />
<glyph glyph-name="logicalnot" unicode="&#xac;" horiz-adv-x="550" d="M367 0 L516 0 L516 267 L34 267 L34 203 L367 203 L367 0 Z " />
<glyph glyph-name="uni00AD" unicode="&#xad;" horiz-adv-x="237" d="M0 250 L0 167 L237 167 L237 250 L0 250 Z " />
<glyph glyph-name="registered" unicode="&#xae;" horiz-adv-x="863" d="M278 164 L224 164 L224 143 L433 143 L433 164 L370 164 L370 335 L409 335 C461 337 478 319 482 254 C485 212 488 200 499 182 C514 155 542 141 583 141 C608 141 632 145 661 154 L661 176 C644 171 635 169 626 169 C605 169 596 180 596 206 C596 209 596 215 597 222 L597 233 C597 286 565 321 497 343 C564 349 606 383 606 433 C606 461 593 484 566 500 C537 518 508 523 424 523 L224 523 L224 502 L278 502 L278 164 Z M370 356 L370 502 L424 502 C495 502 512 489 512 435 C512 371 495 356 424 356 L370 356 Z M432 684 C217 684 42 527 42 333 C42 143 217 -17 425 -17 C646 -17 821 137 821 331 C821 527 648 684 432 684 L432 684 Z M432 644 C621 644 773 505 773 331 C773 160 619 23 426 23 C243 23 90 165 90 333 C90 505 243 644 432 644 L432 644 Z " />
<glyph glyph-name="macron" unicode="&#xaf;" horiz-adv-x="347" d="M33 563 L33 516 L313 516 L313 563 L33 563 Z " />
<glyph glyph-name="degree" unicode="&#xb0;" horiz-adv-x="400" d="M203 686 C117 686 50 619 50 534 C50 448 116 380 200 380 C284 380 350 447 350 533 C350 619 286 686 203 686 L203 686 Z M202 629 C252 629 293 586 293 533 C293 479 252 437 200 437 C148 437 106 480 106 532 C106 587 148 629 202 629 L202 629 Z " />
<glyph glyph-name="plusminus" unicode="&#xb1;" horiz-adv-x="550" d="M257 307 L257 128 L290 128 L290 307 L502 307 L502 340 L290 340 L290 519 L257 519 L257 340 L49 340 L49 307 L257 307 Z M49 14 L501 14 L501 47 L49 47 L49 14 Z " />
<glyph glyph-name="twosuperior" unicode="&#xb2;" horiz-adv-x="370" d="M325 387 L299 387 C298 365 296 347 294 341 C291 332 288 331 264 331 L97 331 L112 340 C216 406 229 415 261 444 C304 484 322 514 322 545 C322 605 263 650 186 650 C103 650 38 602 38 542 C38 509 62 484 94 484 C119 484 140 502 140 524 C140 549 116 566 80 565 C70 565 69 565 69 569 C69 572 72 578 77 584 C94 606 119 618 147 618 C195 618 226 585 226 533 C226 466 183 417 27 307 L27 257 L317 257 L325 387 Z " />
<glyph glyph-name="threesuperior" unicode="&#xb3;" horiz-adv-x="370" d="M89 453 C103 454 115 455 121 455 C200 455 231 431 231 372 C231 307 201 274 144 274 C118 274 89 283 89 291 C89 293 91 295 96 297 C114 304 128 321 128 337 C128 361 106 380 79 380 C53 380 32 360 32 335 C32 287 87 251 160 251 C254 251 329 303 329 369 C329 423 287 456 206 469 C273 490 304 520 304 563 C304 614 250 649 171 649 C102 649 52 619 52 577 C52 552 71 533 95 533 C121 533 139 548 139 569 C139 585 127 602 111 608 C107 610 106 611 106 613 C106 619 137 627 159 627 C196 627 214 606 214 560 C214 501 187 478 118 478 C113 478 100 478 89 479 L89 453 Z " />
<glyph glyph-name="acute" unicode="&#xb4;" horiz-adv-x="532" d="M298 621 L218 480 L235 471 L395 596 L395 621 L298 621 Z " />
<glyph glyph-name="mu" unicode="&#xb5;" horiz-adv-x="576" d="M442 500 L353 500 L354 131 C318 80 284 58 242 58 C184 58 150 99 150 169 L150 500 L62 500 L62 20 C62 -1 58 -26 51 -56 C34 -118 33 -123 33 -147 C33 -190 54 -219 83 -219 C112 -219 132 -189 132 -145 C132 -124 129 -110 113 -53 C102 -17 101 -8 101 21 L101 33 C143 -3 165 -13 200 -13 C250 -13 301 18 354 80 C362 48 367 36 377 21 C392 0 419 -13 449 -13 C510 -13 553 31 567 108 L540 109 C536 71 515 41 492 41 C462 41 442 77 442 131 L442 500 Z " />
<glyph glyph-name="paragraph" unicode="&#xb6;" horiz-adv-x="550" d="M254 -155 L164 -155 L164 -180 L521 -180 L521 -155 L451 -155 L451 642 L521 642 L521 667 L254 667 C199 667 151 657 119 640 C63 609 27 548 27 483 C27 374 111 301 236 301 L254 301 L254 -155 Z M309 -155 L309 642 L396 642 L396 -155 L309 -155 Z " />
<glyph glyph-name="periodcentered" unicode="&#xb7;" horiz-adv-x="286" d="M144 280 C97 280 59 246 59 204 C59 161 96 127 144 127 C190 127 228 161 228 204 C228 246 191 280 144 280 L144 280 Z " />
<glyph glyph-name="cedilla" unicode="&#xb8;" horiz-adv-x="550" d="M302 0 L274 0 L245 -72 C287 -74 312 -94 312 -125 C312 -154 284 -180 253 -180 C232 -180 211 -166 210 -152 C210 -150 211 -148 212 -145 C215 -138 216 -136 216 -134 C216 -123 204 -114 190 -114 C174 -114 162 -125 162 -140 C162 -172 205 -197 258 -197 C328 -197 387 -159 387 -115 C387 -77 348 -49 294 -49 C292 -49 287 -49 281 -50 L302 0 Z " />
<glyph glyph-name="onesuperior" unicode="&#xb9;" horiz-adv-x="370" d="M156 280 L73 280 L73 257 L321 257 L321 280 L247 280 L247 655 C222 648 176 643 137 643 L94 643 L73 643 L73 620 L156 620 L156 280 Z " />
<glyph glyph-name="ordmasculine" unicode="&#xba;" horiz-adv-x="367" d="M358 330 L10 330 L10 297 L358 297 L358 330 Z M183 674 C97 674 29 612 29 533 C29 454 97 393 184 393 C269 393 338 455 338 532 C338 613 271 674 183 674 L183 674 Z M183 651 C205 651 222 643 232 628 C242 614 245 588 245 532 C245 484 242 457 235 443 C226 426 207 416 183 416 C162 416 145 424 135 439 C126 453 122 479 122 533 C122 583 125 610 132 624 C141 641 160 651 183 651 L183 651 Z " />
<glyph glyph-name="guillemotright" unicode="&#xbb;" horiz-adv-x="407" d="M363 203 L273 303 L187 303 L273 203 L187 113 L273 113 L363 203 Z M227 203 L137 303 L51 303 L137 203 L51 113 L137 113 L227 203 Z " />
<glyph glyph-name="onequarter" unicode="&#xbc;" horiz-adv-x="861" d="M156 280 L73 280 L73 257 L321 257 L321 280 L247 280 L247 655 C222 648 176 643 137 643 L94 643 L73 643 L73 620 L156 620 L156 280 Z M633 643 L588 643 L271 0 L317 0 L633 643 Z M665 100 L665 23 L613 23 L613 0 L813 0 L813 23 L762 23 L762 100 L793 100 C819 101 823 98 822 79 L822 65 L846 65 L846 161 L822 161 L822 148 C823 126 819 124 793 124 L762 124 L762 386 L709 386 L506 122 L506 100 L665 100 Z M665 124 L540 124 L665 287 L665 124 Z " />
<glyph glyph-name="onehalf" unicode="&#xbd;" horiz-adv-x="861" d="M156 280 L73 280 L73 257 L321 257 L321 280 L247 280 L247 655 C222 648 176 643 137 643 L94 643 L73 643 L73 620 L156 620 L156 280 Z M611 643 L566 643 L249 0 L295 0 L611 643 Z M815 130 L789 130 C788 107 786 90 784 84 C781 75 778 74 754 74 L587 74 C599 82 599 82 624 97 C692 140 704 148 731 170 C787 215 812 252 812 288 C812 347 753 392 676 392 C593 392 528 344 528 284 C528 251 552 226 584 226 C609 226 630 244 630 266 C630 289 606 307 576 307 L570 307 C567 306 565 306 564 306 C561 306 559 307 559 310 C559 313 562 319 567 325 C584 348 609 360 637 360 C685 360 716 327 716 275 C716 208 674 161 517 50 L517 0 L807 0 L815 130 Z " />
<glyph glyph-name="threequarters" unicode="&#xbe;" horiz-adv-x="861" d="M89 453 C103 454 115 455 121 455 C200 455 231 431 231 372 C231 307 201 274 144 274 C118 274 89 283 89 291 C89 293 91 295 96 297 C114 304 128 321 128 337 C128 361 106 380 79 380 C53 380 32 360 32 335 C32 287 87 251 160 251 C254 251 329 303 329 369 C329 423 287 456 206 469 C273 490 304 520 304 563 C304 614 250 649 171 649 C102 649 52 619 52 577 C52 552 71 533 95 533 C121 533 139 548 139 569 C139 585 127 602 111 608 C107 610 106 611 106 613 C106 619 137 627 159 627 C196 627 214 606 214 560 C214 501 187 478 118 478 C113 478 100 478 89 479 L89 453 Z M634 643 L588 643 L272 0 L317 0 L634 643 Z M665 100 L665 23 L613 23 L613 0 L814 0 L814 23 L762 23 L762 100 L794 100 C819 101 823 98 823 79 L823 65 L847 65 L847 161 L823 161 L823 148 C823 126 820 124 793 124 L762 124 L762 386 L709 386 L506 122 L506 100 L665 100 Z M665 124 L540 124 L665 287 L665 124 Z " />
<glyph glyph-name="questiondown" unicode="&#xbf;" horiz-adv-x="433" d="M257 204 C263 192 265 185 265 177 C265 145 239 115 187 86 C84 29 35 -33 35 -107 C35 -198 117 -270 219 -270 C312 -270 401 -206 401 -140 C401 -105 375 -80 339 -80 C301 -80 272 -103 272 -133 C272 -158 287 -174 326 -189 C343 -195 343 -195 343 -199 C343 -202 338 -207 327 -215 C301 -232 264 -243 229 -243 C165 -243 119 -209 119 -162 C119 -136 132 -117 173 -86 C261 -19 299 40 299 110 C299 139 292 171 279 204 L257 204 Z M261 415 C215 415 177 381 177 338 C177 296 214 262 261 262 C308 262 346 296 346 338 C346 381 309 415 261 415 L261 415 Z " />
<glyph glyph-name="Agrave" unicode="&#xc0;" horiz-adv-x="690" d="M309 846 L175 846 L175 821 L429 726 L440 740 L309 846 Z M404 179 L463 25 L369 25 L369 0 L697 0 L697 25 L620 25 L369 667 L334 667 L104 82 C86 31 77 24 27 25 L-11 25 L-11 0 L216 0 L216 25 L158 25 C130 25 121 29 121 39 C121 45 123 51 129 67 L173 179 L404 179 Z M393 204 L183 204 L288 469 L393 204 Z " />
<glyph glyph-name="Aacute" unicode="&#xc1;" horiz-adv-x="690" d="M434 846 L303 740 L314 726 L568 821 L568 846 L434 846 Z M404 179 L463 25 L369 25 L369 0 L697 0 L697 25 L620 25 L369 667 L334 667 L104 82 C86 31 77 24 27 25 L-11 25 L-11 0 L216 0 L216 25 L158 25 C130 25 121 29 121 39 C121 45 123 51 129 67 L173 179 L404 179 Z M393 204 L183 204 L288 469 L393 204 Z " />
<glyph glyph-name="Acircumflex" unicode="&#xc2;" horiz-adv-x="690" d="M194 726 L350 775 L507 726 L521 742 L368 846 L333 846 L180 742 L194 726 Z M404 179 L463 25 L369 25 L369 0 L697 0 L697 25 L620 25 L369 667 L334 667 L104 82 C86 31 77 24 27 25 L-11 25 L-11 0 L216 0 L216 25 L158 25 C130 25 121 29 121 39 C121 45 123 51 129 67 L173 179 L404 179 Z M393 204 L183 204 L288 469 L393 204 Z " />
<glyph glyph-name="Atilde" unicode="&#xc3;" horiz-adv-x="690" d="M215 737 C235 763 252 773 277 773 C294 773 311 769 353 754 C384 743 395 740 408 740 C430 740 458 752 476 770 C491 784 499 795 519 825 L500 836 C482 810 468 801 448 801 C433 801 426 803 383 819 C353 830 334 834 317 834 C268 834 233 808 197 746 L215 737 Z M404 179 L463 25 L369 25 L369 0 L697 0 L697 25 L620 25 L369 667 L334 667 L104 82 C86 31 77 24 27 25 L-11 25 L-11 0 L216 0 L216 25 L158 25 C130 25 121 29 121 39 C121 45 123 51 129 67 L173 179 L404 179 Z M393 204 L183 204 L288 469 L393 204 Z " />
<glyph glyph-name="Adieresis" unicode="&#xc4;" horiz-adv-x="690" d="M236 850 C202 850 174 822 174 789 C174 755 201 727 236 727 C270 727 297 755 297 789 C297 823 270 850 236 850 L236 850 Z M474 850 C440 850 412 822 412 789 C412 755 439 727 474 727 C508 727 535 755 535 789 C535 823 508 850 474 850 L474 850 Z M404 179 L463 25 L369 25 L369 0 L697 0 L697 25 L620 25 L369 667 L334 667 L104 82 C86 31 77 24 27 25 L-11 25 L-11 0 L216 0 L216 25 L158 25 C130 25 121 29 121 39 C121 45 123 51 129 67 L173 179 L404 179 Z M393 204 L183 204 L288 469 L393 204 Z " />
<glyph glyph-name="Aring" unicode="&#xc5;" horiz-adv-x="690" d="M351 877 C302 877 262 840 262 795 C262 747 301 710 351 710 C399 710 439 747 439 794 C439 840 400 877 351 877 L351 877 Z M351 838 C376 838 397 818 397 793 C397 769 376 749 351 749 C325 749 304 769 304 794 C304 818 325 838 351 838 L351 838 Z M404 179 L463 25 L369 25 L369 0 L697 0 L697 25 L620 25 L369 667 L334 667 L104 82 C86 31 77 24 27 25 L-11 25 L-11 0 L216 0 L216 25 L158 25 C130 25 121 29 121 39 C121 45 123 51 129 67 L173 179 L404 179 Z M393 204 L183 204 L288 469 L393 204 Z " />
<glyph glyph-name="AE" unicode="&#xc6;" horiz-adv-x="1019" d="M451 182 L451 25 L363 25 L363 0 L966 0 L981 212 L952 212 C914 64 859 23 701 25 L591 25 L591 326 L621 326 C730 325 762 296 766 197 L797 197 L797 469 L766 469 C766 384 725 349 624 351 L591 351 L591 642 L729 642 C852 646 902 609 929 497 L958 497 L941 667 L361 667 L361 642 L401 642 C429 642 437 639 437 627 C437 620 432 610 424 596 L88 64 C66 33 46 24 5 25 L-22 25 L-22 0 L209 0 L209 25 L163 25 C124 25 116 28 116 43 C116 50 118 55 128 70 L199 182 L451 182 Z M451 207 L216 207 L451 582 L451 207 Z " />
<glyph glyph-name="Ccedilla" unicode="&#xc7;" horiz-adv-x="681" d="M398 -17 C467 -15 514 3 565 48 L595 0 L624 0 L633 186 L604 186 C566 74 485 10 382 10 C298 10 245 49 222 130 C212 166 209 199 209 299 C209 481 217 542 249 587 C282 634 331 657 400 657 C504 657 568 603 596 493 L625 493 L617 667 L588 667 L568 626 C522 665 467 684 398 684 C202 684 42 521 42 321 C42 136 170 2 365 -16 L339 -76 C385 -87 398 -98 398 -124 C398 -155 371 -180 337 -180 C309 -180 285 -167 285 -153 C285 -151 286 -148 289 -144 C294 -136 295 -133 295 -127 C295 -114 284 -104 269 -104 C251 -104 237 -118 237 -136 C237 -176 292 -207 362 -207 C440 -207 497 -173 497 -126 C497 -86 460 -59 405 -59 C400 -59 391 -60 381 -62 L398 -17 Z " />
<glyph glyph-name="Egrave" unicode="&#xc8;" horiz-adv-x="690" d="M354 846 L220 846 L220 821 L473 726 L485 740 L354 846 Z M121 25 L33 25 L33 0 L637 0 L652 212 L623 212 C585 64 530 23 371 25 L261 25 L261 326 L291 326 C400 325 433 296 436 197 L468 197 L468 469 L436 469 C437 384 396 349 294 351 L261 351 L261 642 L399 642 C523 646 573 609 600 497 L629 497 L612 667 L33 667 L33 642 L121 642 L121 25 Z " />
<glyph glyph-name="Eacute" unicode="&#xc9;" horiz-adv-x="690" d="M429 846 L298 740 L310 726 L563 821 L563 846 L429 846 Z M121 25 L33 25 L33 0 L637 0 L652 212 L623 212 C585 64 530 23 371 25 L261 25 L261 326 L291 326 C400 325 433 296 436 197 L468 197 L468 469 L436 469 C437 384 396 349 294 351 L261 351 L261 642 L399 642 C523 646 573 609 600 497 L629 497 L612 667 L33 667 L33 642 L121 642 L121 25 Z " />
<glyph glyph-name="Ecircumflex" unicode="&#xca;" horiz-adv-x="690" d="M211 726 L367 775 L524 726 L538 742 L385 846 L350 846 L197 742 L211 726 Z M121 25 L33 25 L33 0 L637 0 L652 212 L623 212 C585 64 530 23 371 25 L261 25 L261 326 L291 326 C400 325 433 296 436 197 L468 197 L468 469 L436 469 C437 384 396 349 294 351 L261 351 L261 642 L399 642 C523 646 573 609 600 497 L629 497 L612 667 L33 667 L33 642 L121 642 L121 25 Z " />
<glyph glyph-name="Edieresis" unicode="&#xcb;" horiz-adv-x="690" d="M240 850 C206 850 178 822 178 789 C178 755 205 727 240 727 C274 727 301 755 301 789 C301 823 274 850 240 850 L240 850 Z M478 850 C444 850 416 822 416 789 C416 755 443 727 478 727 C512 727 539 755 539 789 C539 823 512 850 478 850 L478 850 Z M121 25 L33 25 L33 0 L637 0 L652 212 L623 212 C585 64 530 23 371 25 L261 25 L261 326 L291 326 C400 325 433 296 436 197 L468 197 L468 469 L436 469 C437 384 396 349 294 351 L261 351 L261 642 L399 642 C523 646 573 609 600 497 L629 497 L612 667 L33 667 L33 642 L121 642 L121 25 Z " />
<glyph glyph-name="Igrave" unicode="&#xcc;" horiz-adv-x="382" d="M121 25 L33 25 L33 0 L349 0 L349 25 L261 25 L261 642 L349 642 L349 667 L33 667 L33 642 L121 642 L121 25 Z M175 846 L40 846 L40 821 L294 726 L306 740 L175 846 Z " />
<glyph glyph-name="Iacute" unicode="&#xcd;" horiz-adv-x="382" d="M121 25 L33 25 L33 0 L349 0 L349 25 L261 25 L261 642 L349 642 L349 667 L33 667 L33 642 L121 642 L121 25 Z M249 846 L118 740 L130 726 L384 821 L384 846 L249 846 Z " />
<glyph glyph-name="Icircumflex" unicode="&#xce;" horiz-adv-x="382" d="M121 25 L33 25 L33 0 L349 0 L349 25 L261 25 L261 642 L349 642 L349 667 L33 667 L33 642 L121 642 L121 25 Z M34 726 L191 775 L348 726 L361 742 L208 846 L173 846 L20 742 L34 726 Z " />
<glyph glyph-name="Idieresis" unicode="&#xcf;" horiz-adv-x="382" d="M121 25 L33 25 L33 0 L349 0 L349 25 L261 25 L261 642 L349 642 L349 667 L33 667 L33 642 L121 642 L121 25 Z M98 850 C64 850 36 822 36 789 C36 755 63 727 98 727 C132 727 159 755 159 789 C159 823 132 850 98 850 L98 850 Z M285 850 C251 850 223 822 223 789 C223 755 250 727 285 727 C319 727 346 755 346 789 C346 823 319 850 285 850 L285 850 Z " />
<glyph glyph-name="Eth" unicode="&#xd0;" horiz-adv-x="784" d="M123 330 L123 25 L33 25 L33 0 L372 0 C436 0 467 1 485 3 C530 9 575 26 610 52 C694 112 741 213 741 332 C741 485 660 612 536 652 C497 664 469 667 371 667 L33 667 L33 642 L123 642 L123 355 L33 355 L33 330 L123 330 Z M263 330 L429 330 L429 355 L263 355 L263 642 L372 642 C458 642 495 629 526 587 C563 537 574 477 574 334 C574 190 563 130 526 81 C495 39 457 25 372 25 L263 25 L263 330 Z " />
<glyph glyph-name="Ntilde" unicode="&#xd1;" horiz-adv-x="762" d="M259 737 C279 763 296 773 321 773 C338 773 355 769 397 754 C428 743 439 740 452 740 C474 740 502 752 520 770 C534 784 543 795 563 825 L544 836 C526 810 512 801 492 801 C477 801 470 803 427 819 C397 830 378 834 361 834 C312 834 276 808 241 746 L259 737 Z M625 -7 L648 -7 L648 570 C647 635 654 642 707 642 L736 642 L736 667 L527 667 L527 642 L557 642 C612 642 619 635 618 570 L618 241 L264 667 L26 667 L26 642 L56 642 C111 642 118 635 117 570 L117 97 C118 32 111 25 56 25 L26 25 L26 0 L250 0 L250 25 L206 25 C153 25 146 32 147 97 L147 585 L625 -7 Z " />
<glyph glyph-name="Ograve" unicode="&#xd2;" horiz-adv-x="805" d="M371 846 L237 846 L237 821 L491 726 L502 740 L371 846 Z M402 684 C307 684 228 655 160 597 C87 533 42 433 42 334 C42 234 86 137 160 70 C225 12 307 -17 402 -17 C498 -17 580 12 645 70 C717 135 763 235 763 329 C763 433 720 530 645 597 C578 655 499 684 402 684 L402 684 Z M403 657 C472 657 519 637 551 595 C583 550 596 477 596 329 C596 205 585 129 560 86 C529 34 480 10 403 10 C332 10 287 29 255 72 C222 116 209 191 209 334 C209 462 220 538 245 581 C276 633 325 657 403 657 L403 657 Z " />
<glyph glyph-name="Oacute" unicode="&#xd3;" horiz-adv-x="805" d="M468 846 L338 740 L349 726 L603 821 L603 846 L468 846 Z M402 684 C307 684 228 655 160 597 C87 533 42 433 42 334 C42 234 86 137 160 70 C225 12 307 -17 402 -17 C498 -17 580 12 645 70 C717 135 763 235 763 329 C763 433 720 530 645 597 C578 655 499 684 402 684 L402 684 Z M403 657 C472 657 519 637 551 595 C583 550 596 477 596 329 C596 205 585 129 560 86 C529 34 480 10 403 10 C332 10 287 29 255 72 C222 116 209 191 209 334 C209 462 220 538 245 581 C276 633 325 657 403 657 L403 657 Z " />
<glyph glyph-name="Ocircumflex" unicode="&#xd4;" horiz-adv-x="805" d="M245 726 L402 775 L559 726 L573 742 L420 846 L384 846 L231 742 L245 726 Z M402 684 C307 684 228 655 160 597 C87 533 42 433 42 334 C42 234 86 137 160 70 C225 12 307 -17 402 -17 C498 -17 580 12 645 70 C717 135 763 235 763 329 C763 433 720 530 645 597 C578 655 499 684 402 684 L402 684 Z M403 657 C472 657 519 637 551 595 C583 550 596 477 596 329 C596 205 585 129 560 86 C529 34 480 10 403 10 C332 10 287 29 255 72 C222 116 209 191 209 334 C209 462 220 538 245 581 C276 633 325 657 403 657 L403 657 Z " />
<glyph glyph-name="Otilde" unicode="&#xd5;" horiz-adv-x="805" d="M274 737 C294 763 311 773 336 773 C353 773 370 769 412 754 C443 743 454 740 467 740 C489 740 517 752 535 770 C549 784 558 795 578 825 L559 836 C541 810 527 801 507 801 C492 801 485 803 442 819 C412 830 393 834 376 834 C327 834 291 808 256 746 L274 737 Z M402 684 C307 684 228 655 160 597 C87 533 42 433 42 334 C42 234 86 137 160 70 C225 12 307 -17 402 -17 C498 -17 580 12 645 70 C717 135 763 235 763 329 C763 433 720 530 645 597 C578 655 499 684 402 684 L402 684 Z M403 657 C472 657 519 637 551 595 C583 550 596 477 596 329 C596 205 585 129 560 86 C529 34 480 10 403 10 C332 10 287 29 255 72 C222 116 209 191 209 334 C209 462 220 538 245 581 C276 633 325 657 403 657 L403 657 Z " />
<glyph glyph-name="Odieresis" unicode="&#xd6;" horiz-adv-x="805" d="M291 850 C257 850 229 822 229 789 C229 755 256 727 291 727 C325 727 352 755 352 789 C352 823 325 850 291 850 L291 850 Z M530 850 C496 850 468 822 468 789 C468 755 495 727 530 727 C564 727 591 755 591 789 C591 823 564 850 530 850 L530 850 Z M402 684 C307 684 228 655 160 597 C87 533 42 433 42 334 C42 234 86 137 160 70 C225 12 307 -17 402 -17 C498 -17 580 12 645 70 C717 135 763 235 763 329 C763 433 720 530 645 597 C578 655 499 684 402 684 L402 684 Z M403 657 C472 657 519 637 551 595 C583 550 596 477 596 329 C596 205 585 129 560 86 C529 34 480 10 403 10 C332 10 287 29 255 72 C222 116 209 191 209 334 C209 462 220 538 245 581 C276 633 325 657 403 657 L403 657 Z " />
<glyph glyph-name="multiply" unicode="&#xd7;" horiz-adv-x="550" d="M275 300 L438 152 L463 175 L301 323 L463 471 L438 494 L275 346 L112 494 L87 471 L250 323 L87 175 L112 152 L275 300 Z " />
<glyph glyph-name="Oslash" unicode="&#xd8;" horiz-adv-x="805" d="M750 662 L726 683 L642 598 C576 656 498 684 402 684 C307 684 225 655 160 597 C86 531 42 433 42 334 C42 244 77 158 140 91 L54 5 L79 -17 L163 68 C230 11 307 -17 403 -17 C498 -17 580 12 645 70 C719 136 763 234 763 333 C763 423 729 507 665 576 L750 662 Z M587 497 C593 455 596 405 596 334 C596 204 585 130 560 86 C529 34 480 10 402 10 C305 10 251 48 227 132 L587 497 Z M218 170 C212 213 209 264 209 333 C209 462 220 538 245 581 C276 633 325 657 403 657 C500 657 554 619 579 534 L218 170 Z " />
<glyph glyph-name="Ugrave" unicode="&#xd9;" horiz-adv-x="736" d="M365 846 L231 846 L231 821 L484 726 L496 740 L365 846 Z M110 642 L110 213 C110 159 111 133 114 119 C120 90 136 65 161 45 C206 8 294 -17 382 -17 C468 -17 543 7 583 47 C621 85 630 117 630 213 L630 570 C629 635 636 642 689 642 L718 642 L718 667 L509 667 L509 642 L539 642 C594 642 601 635 600 570 L600 214 C600 138 593 106 569 75 C540 39 483 18 413 18 C349 18 301 38 273 75 C255 101 250 129 250 213 L250 642 L363 642 L363 667 L22 667 L22 642 L110 642 Z " />
<glyph glyph-name="Uacute" unicode="&#xda;" horiz-adv-x="736" d="M482 846 L351 740 L363 726 L617 821 L617 846 L482 846 Z M110 642 L110 213 C110 159 111 133 114 119 C120 90 136 65 161 45 C206 8 294 -17 382 -17 C468 -17 543 7 583 47 C621 85 630 117 630 213 L630 570 C629 635 636 642 689 642 L718 642 L718 667 L509 667 L509 642 L539 642 C594 642 601 635 600 570 L600 214 C600 138 593 106 569 75 C540 39 483 18 413 18 C349 18 301 38 273 75 C255 101 250 129 250 213 L250 642 L363 642 L363 667 L22 667 L22 642 L110 642 Z " />
<glyph glyph-name="Ucircumflex" unicode="&#xdb;" horiz-adv-x="736" d="M244 726 L401 775 L558 726 L571 742 L418 846 L383 846 L230 742 L244 726 Z M110 642 L110 213 C110 159 111 133 114 119 C120 90 136 65 161 45 C206 8 294 -17 382 -17 C468 -17 543 7 583 47 C621 85 630 117 630 213 L630 570 C629 635 636 642 689 642 L718 642 L718 667 L509 667 L509 642 L539 642 C594 642 601 635 600 570 L600 214 C600 138 593 106 569 75 C540 39 483 18 413 18 C349 18 301 38 273 75 C255 101 250 129 250 213 L250 642 L363 642 L363 667 L22 667 L22 642 L110 642 Z " />
<glyph glyph-name="Udieresis" unicode="&#xdc;" horiz-adv-x="736" d="M284 850 C250 850 222 822 222 789 C222 755 249 727 284 727 C318 727 345 755 345 789 C345 823 318 850 284 850 L284 850 Z M522 850 C488 850 460 822 460 789 C460 755 487 727 522 727 C556 727 583 755 583 789 C583 823 556 850 522 850 L522 850 Z M110 642 L110 213 C110 159 111 133 114 119 C120 90 136 65 161 45 C206 8 294 -17 382 -17 C468 -17 543 7 583 47 C621 85 630 117 630 213 L630 570 C629 635 636 642 689 642 L718 642 L718 667 L509 667 L509 642 L539 642 C594 642 601 635 600 570 L600 214 C600 138 593 106 569 75 C540 39 483 18 413 18 C349 18 301 38 273 75 C255 101 250 129 250 213 L250 642 L363 642 L363 667 L22 667 L22 642 L110 642 Z " />
<glyph glyph-name="Yacute" unicode="&#xdd;" horiz-adv-x="659" d="M446 846 L315 740 L327 726 L580 821 L580 846 L446 846 Z M256 25 L157 25 L157 0 L495 0 L495 25 L396 25 L396 307 L567 590 C590 633 601 640 647 642 L667 642 L667 667 L454 667 L454 642 L509 642 C540 642 547 639 547 626 C547 621 542 610 536 598 L388 351 L207 642 L315 642 L315 667 L-23 667 L-23 642 L44 642 L256 307 L256 25 Z " />
<glyph glyph-name="Thorn" unicode="&#xde;" horiz-adv-x="692" d="M121 25 L33 25 L33 0 L374 0 L374 25 L261 25 L261 200 L355 200 C506 200 557 210 603 247 C643 280 666 326 666 376 C666 428 642 476 601 509 C553 546 503 555 353 555 L261 555 L261 642 L374 642 L374 667 L33 667 L33 642 L121 642 L121 25 Z M261 225 L261 530 L352 530 C482 530 514 499 514 375 C514 263 474 225 354 225 L261 225 Z " />
<glyph glyph-name="germandbls" unicode="&#xdf;" horiz-adv-x="608" d="M11 25 L11 0 L275 0 L275 25 L204 25 L204 250 C204 296 209 313 228 331 C255 358 303 376 345 376 C397 376 437 346 437 308 C437 281 417 260 382 249 C366 244 362 244 312 244 L292 244 L292 219 L328 219 C369 219 390 215 411 202 C439 186 457 151 457 113 C457 63 421 20 378 20 C361 20 349 27 349 35 C349 38 351 41 355 44 C377 60 382 68 382 83 C382 105 361 123 335 123 C305 123 282 102 282 73 C282 26 336 -10 408 -10 C501 -10 571 44 571 115 C571 173 522 215 439 228 C500 234 540 266 540 309 C540 333 525 358 501 374 C470 394 431 403 371 403 C296 403 252 389 204 349 L204 504 C204 568 207 592 219 611 C234 635 272 652 311 652 C338 652 364 642 364 631 C364 627 363 626 354 621 C341 614 334 602 334 589 C334 563 358 545 391 545 C423 545 449 568 449 597 C449 642 397 674 323 674 C243 674 160 639 124 589 C95 550 84 496 84 393 L84 25 L11 25 Z " />
<glyph glyph-name="agrave" unicode="&#xe0;" horiz-adv-x="503" d="M268 621 L172 621 L172 596 L332 471 L349 480 L268 621 Z M481 56 C471 46 461 41 450 41 C432 41 427 50 427 81 L427 263 C427 326 423 341 400 362 C370 388 315 403 251 403 C151 403 73 359 73 302 C73 272 97 249 128 249 C162 249 191 272 191 299 C191 312 186 321 171 333 C162 342 159 346 159 350 C159 365 190 376 235 376 C271 376 294 368 305 353 C314 339 314 339 315 258 L315 233 C232 227 185 218 135 198 C70 172 34 131 34 84 C34 27 84 -10 159 -10 C220 -10 274 13 315 56 C336 17 369 -5 405 -5 C440 -5 473 11 500 40 L481 56 Z M315 156 C315 109 311 90 299 73 C284 53 260 42 231 42 C182 42 146 73 146 116 C146 175 204 205 315 206 L315 156 Z " />
<glyph glyph-name="aacute" unicode="&#xe1;" horiz-adv-x="503" d="M320 621 L240 480 L257 471 L417 596 L417 621 L320 621 Z M481 56 C471 46 461 41 450 41 C432 41 427 50 427 81 L427 263 C427 326 423 341 400 362 C370 388 315 403 251 403 C151 403 73 359 73 302 C73 272 97 249 128 249 C162 249 191 272 191 299 C191 312 186 321 171 333 C162 342 159 346 159 350 C159 365 190 376 235 376 C271 376 294 368 305 353 C314 339 314 339 315 258 L315 233 C232 227 185 218 135 198 C70 172 34 131 34 84 C34 27 84 -10 159 -10 C220 -10 274 13 315 56 C336 17 369 -5 405 -5 C440 -5 473 11 500 40 L481 56 Z M315 156 C315 109 311 90 299 73 C284 53 260 42 231 42 C182 42 146 73 146 116 C146 175 204 205 315 206 L315 156 Z " />
<glyph glyph-name="acircumflex" unicode="&#xe2;" horiz-adv-x="503" d="M150 472 L266 534 L381 472 L395 485 L278 621 L254 621 L137 485 L150 472 Z M481 56 C471 46 461 41 450 41 C432 41 427 50 427 81 L427 263 C427 326 423 341 400 362 C370 388 315 403 251 403 C151 403 73 359 73 302 C73 272 97 249 128 249 C162 249 191 272 191 299 C191 312 186 321 171 333 C162 342 159 346 159 350 C159 365 190 376 235 376 C271 376 294 368 305 353 C314 339 314 339 315 258 L315 233 C232 227 185 218 135 198 C70 172 34 131 34 84 C34 27 84 -10 159 -10 C220 -10 274 13 315 56 C336 17 369 -5 405 -5 C440 -5 473 11 500 40 L481 56 Z M315 156 C315 109 311 90 299 73 C284 53 260 42 231 42 C182 42 146 73 146 116 C146 175 204 205 315 206 L315 156 Z " />
<glyph glyph-name="atilde" unicode="&#xe3;" horiz-adv-x="503" d="M146 495 C164 519 177 528 197 528 C214 528 242 521 267 511 C299 498 303 497 317 497 C353 497 388 527 417 581 L396 591 C383 569 368 558 352 558 C342 558 334 560 294 575 C263 586 250 589 234 589 C192 589 163 566 126 505 L146 495 Z M481 56 C471 46 461 41 450 41 C432 41 427 50 427 81 L427 263 C427 326 423 341 400 362 C370 388 315 403 251 403 C151 403 73 359 73 302 C73 272 97 249 128 249 C162 249 191 272 191 299 C191 312 186 321 171 333 C162 342 159 346 159 350 C159 365 190 376 235 376 C271 376 294 368 305 353 C314 339 314 339 315 258 L315 233 C232 227 185 218 135 198 C70 172 34 131 34 84 C34 27 84 -10 159 -10 C220 -10 274 13 315 56 C336 17 369 -5 405 -5 C440 -5 473 11 500 40 L481 56 Z M315 156 C315 109 311 90 299 73 C284 53 260 42 231 42 C182 42 146 73 146 116 C146 175 204 205 315 206 L315 156 Z " />
<glyph glyph-name="adieresis" unicode="&#xe4;" horiz-adv-x="503" d="M164 610 C130 610 102 583 102 549 C102 514 129 487 164 487 C198 487 225 515 225 549 C225 583 198 610 164 610 L164 610 Z M374 610 C340 610 312 583 312 549 C312 514 339 487 374 487 C408 487 435 515 435 549 C435 583 408 610 374 610 L374 610 Z M481 56 C471 46 461 41 450 41 C432 41 427 50 427 81 L427 263 C427 326 423 341 400 362 C370 388 315 403 251 403 C151 403 73 359 73 302 C73 272 97 249 128 249 C162 249 191 272 191 299 C191 312 186 321 171 333 C162 342 159 346 159 350 C159 365 190 376 235 376 C271 376 294 368 305 353 C314 339 314 339 315 258 L315 233 C232 227 185 218 135 198 C70 172 34 131 34 84 C34 27 84 -10 159 -10 C220 -10 274 13 315 56 C336 17 369 -5 405 -5 C440 -5 473 11 500 40 L481 56 Z M315 156 C315 109 311 90 299 73 C284 53 260 42 231 42 C182 42 146 73 146 116 C146 175 204 205 315 206 L315 156 Z " />
<glyph glyph-name="aring" unicode="&#xe5;" horiz-adv-x="503" d="M267 630 C219 630 179 591 179 545 C179 497 218 460 267 460 C316 460 355 497 355 544 C355 592 316 630 267 630 L267 630 Z M267 591 C292 591 313 570 313 544 C313 519 293 499 267 499 C241 499 221 519 221 544 C221 570 242 591 267 591 L267 591 Z M481 56 C471 46 461 41 450 41 C432 41 427 50 427 81 L427 263 C427 326 423 341 400 362 C370 388 315 403 251 403 C151 403 73 359 73 302 C73 272 97 249 128 249 C162 249 191 272 191 299 C191 312 186 321 171 333 C162 342 159 346 159 350 C159 365 190 376 235 376 C271 376 294 368 305 353 C314 339 314 339 315 258 L315 233 C232 227 185 218 135 198 C70 172 34 131 34 84 C34 27 84 -10 159 -10 C220 -10 274 13 315 56 C336 17 369 -5 405 -5 C440 -5 473 11 500 40 L481 56 Z M315 156 C315 109 311 90 299 73 C284 53 260 42 231 42 C182 42 146 73 146 116 C146 175 204 205 315 206 L315 156 Z " />
<glyph glyph-name="ae" unicode="&#xe6;" horiz-adv-x="740" d="M714 221 C704 331 621 403 504 403 C458 403 417 392 370 368 C338 392 300 403 246 403 C148 403 69 355 69 296 C69 267 95 244 127 244 C158 244 181 265 181 295 C181 309 175 323 161 337 C156 343 154 346 154 348 C154 361 195 376 232 376 C278 376 297 358 297 313 L297 228 C146 228 35 168 35 85 C35 30 87 -10 158 -10 C228 -10 284 18 331 77 C360 20 420 -10 505 -10 C604 -10 659 22 714 110 L690 122 C643 51 593 20 523 20 C488 20 461 29 441 48 C420 69 414 89 414 141 L414 221 L714 221 Z M414 246 L414 274 C414 318 416 335 423 347 C434 367 455 376 489 376 C521 376 541 368 553 352 C562 339 564 323 564 274 L564 246 L414 246 Z M297 141 C297 101 295 89 288 77 C275 54 244 39 213 39 C171 39 144 67 144 110 C144 166 197 203 279 203 C286 203 289 203 297 202 L297 141 Z " />
<glyph glyph-name="ccedilla" unicode="&#xe7;" horiz-adv-x="474" d="M272 -10 C357 -9 429 34 463 106 L437 118 C399 54 346 20 281 20 C197 20 165 66 165 186 C165 331 192 376 281 376 C313 376 330 371 350 355 C325 340 310 316 310 291 C310 257 340 231 379 231 C417 231 449 260 449 295 C449 355 373 403 281 403 C145 403 35 309 35 193 C35 88 125 2 244 -9 L219 -72 C262 -74 287 -94 287 -125 C287 -154 259 -180 228 -180 C206 -180 184 -166 184 -152 C184 -150 185 -148 186 -145 C190 -138 191 -136 191 -134 C191 -123 179 -114 164 -114 C148 -114 136 -125 136 -140 C136 -172 179 -197 233 -197 C302 -197 362 -159 362 -115 C362 -77 323 -49 268 -49 C266 -49 261 -49 256 -50 L272 -10 Z " />
<glyph glyph-name="egrave" unicode="&#xe8;" horiz-adv-x="484" d="M257 621 L161 621 L161 596 L321 471 L338 480 L257 621 Z M458 221 C459 327 376 403 259 403 C131 403 35 315 35 198 C35 129 66 72 124 33 C166 6 217 -10 264 -10 C348 -10 411 29 458 110 L432 121 C393 54 342 20 282 20 C242 20 211 37 197 66 C185 89 185 89 185 199 L185 221 L458 221 Z M185 246 L185 274 C185 319 187 335 193 348 C202 367 223 376 254 376 C283 376 303 368 313 352 C322 339 324 323 324 274 L324 246 L185 246 Z " />
<glyph glyph-name="eacute" unicode="&#xe9;" horiz-adv-x="484" d="M305 621 L225 480 L241 471 L402 596 L402 621 L305 621 Z M458 221 C459 327 376 403 259 403 C131 403 35 315 35 198 C35 129 66 72 124 33 C166 6 217 -10 264 -10 C348 -10 411 29 458 110 L432 121 C393 54 342 20 282 20 C242 20 211 37 197 66 C185 89 185 89 185 199 L185 221 L458 221 Z M185 246 L185 274 C185 319 187 335 193 348 C202 367 223 376 254 376 C283 376 303 368 313 352 C322 339 324 323 324 274 L324 246 L185 246 Z " />
<glyph glyph-name="ecircumflex" unicode="&#xea;" horiz-adv-x="484" d="M154 472 L269 534 L385 472 L398 485 L281 621 L257 621 L140 485 L154 472 Z M458 221 C459 327 376 403 259 403 C131 403 35 315 35 198 C35 129 66 72 124 33 C166 6 217 -10 264 -10 C348 -10 411 29 458 110 L432 121 C393 54 342 20 282 20 C242 20 211 37 197 66 C185 89 185 89 185 199 L185 221 L458 221 Z M185 246 L185 274 C185 319 187 335 193 348 C202 367 223 376 254 376 C283 376 303 368 313 352 C322 339 324 323 324 274 L324 246 L185 246 Z " />
<glyph glyph-name="edieresis" unicode="&#xeb;" horiz-adv-x="484" d="M158 610 C124 610 96 583 96 549 C96 514 123 487 158 487 C192 487 219 515 219 549 C219 583 192 610 158 610 L158 610 Z M369 610 C335 610 307 583 307 549 C307 514 334 487 369 487 C403 487 430 515 430 549 C430 583 403 610 369 610 L369 610 Z M458 221 C459 327 376 403 259 403 C131 403 35 315 35 198 C35 129 66 72 124 33 C166 6 217 -10 264 -10 C348 -10 411 29 458 110 L432 121 C393 54 342 20 282 20 C242 20 211 37 197 66 C185 89 185 89 185 199 L185 221 L458 221 Z M185 246 L185 274 C185 319 187 335 193 348 C202 367 223 376 254 376 C283 376 303 368 313 352 C322 339 324 323 324 274 L324 246 L185 246 Z " />
<glyph glyph-name="igrave" unicode="&#xec;" horiz-adv-x="307" d="M105 25 L20 25 L20 0 L298 0 L298 25 L225 25 L225 404 C179 396 146 393 59 393 L20 393 L20 368 L105 368 L105 25 Z M162 621 L65 621 L65 596 L225 471 L242 480 L162 621 Z " />
<glyph glyph-name="iacute" unicode="&#xed;" horiz-adv-x="307" d="M105 25 L20 25 L20 0 L298 0 L298 25 L225 25 L225 404 C179 396 146 393 59 393 L20 393 L20 368 L105 368 L105 25 Z M214 621 L133 480 L150 471 L310 596 L310 621 L214 621 Z " />
<glyph glyph-name="icircumflex" unicode="&#xee;" horiz-adv-x="307" d="M105 25 L20 25 L20 0 L298 0 L298 25 L225 25 L225 404 C179 396 146 393 59 393 L20 393 L20 368 L105 368 L105 25 Z M45 472 L160 534 L276 472 L289 485 L172 621 L149 621 L32 485 L45 472 Z " />
<glyph glyph-name="idieresis" unicode="&#xef;" horiz-adv-x="307" d="M105 25 L20 25 L20 0 L298 0 L298 25 L225 25 L225 404 C179 396 146 393 59 393 L20 393 L20 368 L105 368 L105 25 Z M81 610 C47 610 19 583 19 549 C19 514 46 487 81 487 C115 487 142 515 142 549 C142 583 115 610 81 610 L81 610 Z M252 610 C218 610 190 583 190 549 C190 514 217 487 252 487 C286 487 313 515 313 549 C313 583 286 610 252 610 L252 610 Z " />
<glyph glyph-name="eth" unicode="&#xf0;" horiz-adv-x="563" d="M195 517 L211 497 L301 555 C330 518 352 461 370 383 C335 399 319 403 282 403 C143 403 35 313 35 197 C35 143 61 89 107 49 C150 11 211 -10 281 -10 C424 -10 528 79 528 202 C528 322 463 459 346 581 L437 639 L420 660 L328 602 C318 610 312 615 309 617 C298 626 286 635 274 645 C263 654 244 667 217 684 L197 661 C221 646 264 606 286 578 L195 517 Z M282 376 C321 376 355 363 374 340 C392 318 398 280 398 194 C398 121 392 80 379 60 C361 33 326 17 282 17 C241 17 208 30 189 53 C171 75 165 113 165 196 C165 272 171 312 184 333 C202 360 237 376 282 376 L282 376 Z " />
<glyph glyph-name="ntilde" unicode="&#xf1;" horiz-adv-x="613" d="M201 495 C219 519 232 528 252 528 C269 528 297 521 322 511 C354 498 358 497 372 497 C408 497 443 527 472 581 L451 591 C438 569 423 558 407 558 C397 558 389 560 349 575 C318 586 305 589 289 589 C247 589 218 566 181 505 L201 495 Z M99 25 L26 25 L26 0 L290 0 L290 25 L219 25 L219 218 C219 266 221 278 235 300 C256 337 303 363 345 363 C389 363 404 341 404 274 L404 25 L345 25 L345 0 L609 0 L609 25 L524 25 L524 274 C524 329 517 351 491 372 C466 392 428 403 385 403 C320 403 260 377 219 331 L219 404 C174 396 142 393 60 393 L26 393 L26 368 L99 368 L99 25 Z " />
<glyph glyph-name="ograve" unicode="&#xf2;" horiz-adv-x="563" d="M273 621 L176 621 L176 596 L337 471 L353 480 L273 621 Z M281 403 C143 403 35 312 35 197 C35 80 143 -10 281 -10 C419 -10 528 80 528 194 C528 313 422 403 281 403 L281 403 Z M282 376 C321 376 355 363 374 340 C392 318 398 280 398 194 C398 121 392 80 379 60 C361 33 326 17 282 17 C241 17 208 30 189 53 C171 75 165 113 165 196 C165 272 171 312 184 333 C202 360 237 376 282 376 L282 376 Z " />
<glyph glyph-name="oacute" unicode="&#xf3;" horiz-adv-x="563" d="M330 621 L250 480 L266 471 L427 596 L427 621 L330 621 Z M281 403 C143 403 35 312 35 197 C35 80 143 -10 281 -10 C419 -10 528 80 528 194 C528 313 422 403 281 403 L281 403 Z M282 376 C321 376 355 363 374 340 C392 318 398 280 398 194 C398 121 392 80 379 60 C361 33 326 17 282 17 C241 17 208 30 189 53 C171 75 165 113 165 196 C165 272 171 312 184 333 C202 360 237 376 282 376 L282 376 Z " />
<glyph glyph-name="ocircumflex" unicode="&#xf4;" horiz-adv-x="563" d="M174 472 L289 534 L405 472 L418 485 L301 621 L278 621 L161 485 L174 472 Z M281 403 C143 403 35 312 35 197 C35 80 143 -10 281 -10 C419 -10 528 80 528 194 C528 313 422 403 281 403 L281 403 Z M282 376 C321 376 355 363 374 340 C392 318 398 280 398 194 C398 121 392 80 379 60 C361 33 326 17 282 17 C241 17 208 30 189 53 C171 75 165 113 165 196 C165 272 171 312 184 333 C202 360 237 376 282 376 L282 376 Z " />
<glyph glyph-name="otilde" unicode="&#xf5;" horiz-adv-x="563" d="M172 495 C189 519 203 528 223 528 C240 528 267 521 293 511 C324 498 328 497 342 497 C379 497 414 527 442 581 L422 591 C408 569 393 558 377 558 C367 558 360 560 320 575 C288 586 275 589 259 589 C217 589 188 566 151 505 L172 495 Z M281 403 C143 403 35 312 35 197 C35 80 143 -10 281 -10 C419 -10 528 80 528 194 C528 313 422 403 281 403 L281 403 Z M282 376 C321 376 355 363 374 340 C392 318 398 280 398 194 C398 121 392 80 379 60 C361 33 326 17 282 17 C241 17 208 30 189 53 C171 75 165 113 165 196 C165 272 171 312 184 333 C202 360 237 376 282 376 L282 376 Z " />
<glyph glyph-name="odieresis" unicode="&#xf6;" horiz-adv-x="563" d="M184 610 C150 610 122 583 122 549 C122 514 149 487 184 487 C218 487 245 515 245 549 C245 583 218 610 184 610 L184 610 Z M395 610 C361 610 333 583 333 549 C333 514 360 487 395 487 C429 487 456 515 456 549 C456 583 429 610 395 610 L395 610 Z M281 403 C143 403 35 312 35 197 C35 80 143 -10 281 -10 C419 -10 528 80 528 194 C528 313 422 403 281 403 L281 403 Z M282 376 C321 376 355 363 374 340 C392 318 398 280 398 194 C398 121 392 80 379 60 C361 33 326 17 282 17 C241 17 208 30 189 53 C171 75 165 113 165 196 C165 272 171 312 184 333 C202 360 237 376 282 376 L282 376 Z " />
<glyph glyph-name="divide" unicode="&#xf7;" horiz-adv-x="550" d="M49 307 L501 307 L501 340 L49 340 L49 307 Z M275 251 C235 251 201 218 201 179 C201 138 234 105 275 105 C316 105 349 138 349 178 C349 219 316 251 275 251 L275 251 Z M275 547 C234 547 201 514 201 475 C201 434 234 401 275 401 C316 401 349 434 349 474 C349 515 316 547 275 547 L275 547 Z " />
<glyph glyph-name="oslash" unicode="&#xf8;" horiz-adv-x="563" d="M505 397 L482 417 L428 364 C384 391 338 403 281 403 C143 403 35 313 35 197 C35 139 61 88 111 46 L59 -5 L83 -25 L136 28 C181 2 225 -10 282 -10 C420 -10 528 80 528 197 C528 253 503 304 454 345 L505 397 Z M394 285 C397 255 398 237 398 202 C398 121 393 81 379 60 C361 32 326 17 281 17 C230 17 196 35 179 70 L394 285 Z M170 105 C167 127 165 158 165 196 C165 272 171 312 184 333 C202 361 237 376 282 376 C334 376 367 358 385 321 L170 105 Z " />
<glyph glyph-name="ugrave" unicode="&#xf9;" horiz-adv-x="579" d="M276 621 L179 621 L179 596 L340 471 L356 480 L276 621 Z M382 0 L575 0 L575 25 L502 25 L502 404 C456 396 422 393 336 393 L296 393 L296 368 L382 368 L382 171 C382 122 378 105 362 83 C341 54 300 33 264 33 C247 33 231 39 221 50 C211 60 209 69 209 110 L209 404 C163 396 130 393 43 393 L4 393 L4 368 L89 368 L89 133 C89 74 96 47 117 25 C138 2 173 -10 217 -10 C286 -10 330 11 382 69 L382 0 Z " />
<glyph glyph-name="uacute" unicode="&#xfa;" horiz-adv-x="579" d="M352 621 L272 480 L289 471 L449 596 L449 621 L352 621 Z M382 0 L575 0 L575 25 L502 25 L502 404 C456 396 422 393 336 393 L296 393 L296 368 L382 368 L382 171 C382 122 378 105 362 83 C341 54 300 33 264 33 C247 33 231 39 221 50 C211 60 209 69 209 110 L209 404 C163 396 130 393 43 393 L4 393 L4 368 L89 368 L89 133 C89 74 96 47 117 25 C138 2 173 -10 217 -10 C286 -10 330 11 382 69 L382 0 Z " />
<glyph glyph-name="ucircumflex" unicode="&#xfb;" horiz-adv-x="579" d="M182 472 L297 534 L413 472 L426 485 L309 621 L285 621 L168 485 L182 472 Z M382 0 L575 0 L575 25 L502 25 L502 404 C456 396 422 393 336 393 L296 393 L296 368 L382 368 L382 171 C382 122 378 105 362 83 C341 54 300 33 264 33 C247 33 231 39 221 50 C211 60 209 69 209 110 L209 404 C163 396 130 393 43 393 L4 393 L4 368 L89 368 L89 133 C89 74 96 47 117 25 C138 2 173 -10 217 -10 C286 -10 330 11 382 69 L382 0 Z " />
<glyph glyph-name="udieresis" unicode="&#xfc;" horiz-adv-x="579" d="M200 610 C166 610 138 583 138 549 C138 514 165 487 200 487 C234 487 261 515 261 549 C261 583 234 610 200 610 L200 610 Z M411 610 C377 610 349 583 349 549 C349 514 376 487 411 487 C445 487 472 515 472 549 C472 583 445 610 411 610 L411 610 Z M382 0 L575 0 L575 25 L502 25 L502 404 C456 396 422 393 336 393 L296 393 L296 368 L382 368 L382 171 C382 122 378 105 362 83 C341 54 300 33 264 33 C247 33 231 39 221 50 C211 60 209 69 209 110 L209 404 C163 396 130 393 43 393 L4 393 L4 368 L89 368 L89 133 C89 74 96 47 117 25 C138 2 173 -10 217 -10 C286 -10 330 11 382 69 L382 0 Z " />
<glyph glyph-name="yacute" unicode="&#xfd;" horiz-adv-x="492" d="M320 621 L239 480 L256 471 L416 596 L416 621 L320 621 Z M231 2 L178 -126 C157 -178 142 -200 131 -200 C125 -200 120 -197 116 -191 C101 -169 82 -158 59 -158 C28 -158 2 -182 2 -211 C2 -245 32 -270 73 -270 C100 -270 124 -259 145 -237 C164 -218 174 -200 201 -139 L412 329 C427 362 439 369 479 368 L505 368 L505 393 L319 393 L319 368 L353 368 C380 368 387 364 387 350 C387 344 386 340 377 322 L298 145 L187 368 L240 368 L240 393 L-13 393 L-13 368 L41 368 L231 2 Z " />
<glyph glyph-name="thorn" unicode="&#xfe;" horiz-adv-x="575" d="M77 -242 L4 -242 L4 -267 L282 -267 L282 -242 L197 -242 L197 70 C242 12 281 -10 341 -10 C450 -10 541 85 541 200 C541 310 449 403 338 403 C281 403 240 382 197 329 L197 678 C153 670 122 667 38 667 L4 667 L4 642 L77 642 L77 -242 Z M321 373 C386 373 411 323 411 190 C411 74 383 20 323 20 C250 20 192 96 192 193 C192 293 249 373 321 373 L321 373 Z " />
<glyph glyph-name="ydieresis" unicode="&#xff;" horiz-adv-x="492" d="M161 610 C127 610 99 583 99 549 C99 514 126 487 161 487 C195 487 222 515 222 549 C222 583 195 610 161 610 L161 610 Z M372 610 C338 610 310 583 310 549 C310 514 337 487 372 487 C406 487 433 515 433 549 C433 583 406 610 372 610 L372 610 Z M231 2 L178 -126 C157 -178 142 -200 131 -200 C125 -200 120 -197 116 -191 C101 -169 82 -158 59 -158 C28 -158 2 -182 2 -211 C2 -245 32 -270 73 -270 C100 -270 124 -259 145 -237 C164 -218 174 -200 201 -139 L412 329 C427 362 439 369 479 368 L505 368 L505 393 L319 393 L319 368 L353 368 C380 368 387 364 387 350 C387 344 386 340 377 322 L298 145 L187 368 L240 368 L240 393 L-13 393 L-13 368 L41 368 L231 2 Z " />
<glyph glyph-name="Amacron" unicode="&#x100;" horiz-adv-x="690" d="M404 179 L463 25 L369 25 L369 0 L697 0 L697 25 L620 25 L369 667 L334 667 L104 82 C86 31 77 24 27 25 L-11 25 L-11 0 L216 0 L216 25 L158 25 C130 25 121 29 121 39 C121 45 123 51 129 67 L173 179 L404 179 Z M393 204 L183 204 L288 469 L393 204 Z M189 807 L189 761 L514 761 L514 807 L189 807 Z " />
<glyph glyph-name="amacron" unicode="&#x101;" horiz-adv-x="503" d="M481 56 C471 46 461 41 450 41 C432 41 427 50 427 81 L427 263 C427 326 423 341 400 362 C370 388 315 403 251 403 C151 403 73 359 73 302 C73 272 97 249 128 249 C162 249 191 272 191 299 C191 312 186 321 171 333 C162 342 159 346 159 350 C159 365 190 376 235 376 C271 376 294 368 305 353 C314 339 314 339 315 258 L315 233 C232 227 185 218 135 198 C70 172 34 131 34 84 C34 27 84 -10 159 -10 C220 -10 274 13 315 56 C336 17 369 -5 405 -5 C440 -5 473 11 500 40 L481 56 Z M315 156 C315 109 311 90 299 73 C284 53 260 42 231 42 C182 42 146 73 146 116 C146 175 204 205 315 206 L315 156 Z M123 563 L123 516 L403 516 L403 563 L123 563 Z " />
<glyph glyph-name="Abreve" unicode="&#x102;" horiz-adv-x="690" d="M404 179 L463 25 L369 25 L369 0 L697 0 L697 25 L620 25 L369 667 L334 667 L104 82 C86 31 77 24 27 25 L-11 25 L-11 0 L216 0 L216 25 L158 25 C130 25 121 29 121 39 C121 45 123 51 129 67 L173 179 L404 179 Z M393 204 L183 204 L288 469 L393 204 Z M203 848 C225 771 280 726 352 726 C423 726 479 771 500 848 L473 848 C445 811 409 796 352 796 C294 796 258 811 230 848 L203 848 Z " />
<glyph glyph-name="abreve" unicode="&#x103;" horiz-adv-x="503" d="M481 56 C471 46 461 41 450 41 C432 41 427 50 427 81 L427 263 C427 326 423 341 400 362 C370 388 315 403 251 403 C151 403 73 359 73 302 C73 272 97 249 128 249 C162 249 191 272 191 299 C191 312 186 321 171 333 C162 342 159 346 159 350 C159 365 190 376 235 376 C271 376 294 368 305 353 C314 339 314 339 315 258 L315 233 C232 227 185 218 135 198 C70 172 34 131 34 84 C34 27 84 -10 159 -10 C220 -10 274 13 315 56 C336 17 369 -5 405 -5 C440 -5 473 11 500 40 L481 56 Z M315 156 C315 109 311 90 299 73 C284 53 260 42 231 42 C182 42 146 73 146 116 C146 175 204 205 315 206 L315 156 Z M367 615 C344 571 316 552 272 552 C230 552 198 574 183 615 L157 615 C165 532 212 477 275 477 C337 477 381 530 391 615 L367 615 Z " />
<glyph glyph-name="Aogonek" unicode="&#x104;" horiz-adv-x="690" d="M697 0 L697 25 L620 25 L369 667 L334 667 L104 82 C86 31 77 24 27 25 L-11 25 L-11 0 L216 0 L216 25 L158 25 C130 25 121 29 121 39 C121 45 123 51 129 67 L173 179 L404 179 L463 25 L369 25 L369 0 L576 0 C493 -36 463 -65 463 -107 C463 -152 500 -178 563 -178 C602 -178 629 -172 671 -154 L671 -127 C647 -134 637 -136 617 -136 C573 -136 547 -117 547 -86 C547 -57 570 -32 627 0 L697 0 Z M393 204 L183 204 L288 469 L393 204 Z " />
<glyph glyph-name="aogonek" unicode="&#x105;" horiz-adv-x="503" d="M498 -121 C475 -127 465 -129 445 -129 C403 -129 377 -112 377 -83 C377 -56 402 -29 463 10 C483 23 487 26 500 40 L481 56 C471 46 461 41 450 41 C432 41 427 50 427 81 L427 263 C427 326 423 341 400 362 C370 388 315 403 251 403 C151 403 73 359 73 302 C73 272 97 249 128 249 C162 249 191 272 191 299 C191 312 186 321 171 333 C162 342 159 346 159 350 C159 365 190 376 235 376 C271 376 294 368 305 353 C314 339 314 339 315 258 L315 233 C232 227 185 218 135 198 C70 172 34 131 34 84 C34 27 84 -10 159 -10 C220 -10 274 13 315 56 C332 22 368 -3 401 -4 C331 -35 299 -66 299 -104 C299 -144 334 -169 391 -169 C431 -169 447 -165 498 -145 L498 -121 Z M315 156 C315 109 311 90 299 73 C284 53 260 42 231 42 C182 42 146 73 146 116 C146 175 204 205 315 206 L315 156 Z " />
<glyph glyph-name="Cacute" unicode="&#x106;" horiz-adv-x="681" d="M617 667 L588 667 L568 626 C522 665 467 684 398 684 C202 684 42 521 42 321 C42 127 191 -17 393 -17 C463 -17 510 1 565 48 L595 0 L624 0 L633 186 L604 186 C566 74 485 10 382 10 C298 10 245 49 222 130 C212 166 209 199 209 299 C209 481 217 542 249 587 C282 634 331 657 400 657 C504 657 568 603 596 493 L625 493 L617 667 Z M457 846 L326 740 L338 726 L591 821 L591 846 L457 846 Z " />
<glyph glyph-name="cacute" unicode="&#x107;" horiz-adv-x="474" d="M437 118 C399 54 346 20 281 20 C197 20 165 66 165 186 C165 331 192 376 281 376 C313 376 330 371 350 355 C325 340 310 316 310 291 C310 257 340 231 379 231 C417 231 449 260 449 295 C449 355 373 403 281 403 C145 403 35 309 35 193 C35 80 139 -10 268 -10 C357 -10 422 29 463 106 L437 118 Z M309 621 L228 480 L245 471 L405 596 L405 621 L309 621 Z " />
<glyph glyph-name="Ccircumflex" unicode="&#x108;" horiz-adv-x="681" d="M617 667 L588 667 L568 626 C522 665 467 684 398 684 C202 684 42 521 42 321 C42 127 191 -17 393 -17 C463 -17 510 1 565 48 L595 0 L624 0 L633 186 L604 186 C566 74 485 10 382 10 C298 10 245 49 222 130 C212 166 209 199 209 299 C209 481 217 542 249 587 C282 634 331 657 400 657 C504 657 568 603 596 493 L625 493 L617 667 Z M238 726 L394 775 L551 726 L565 742 L412 846 L377 846 L224 742 L238 726 Z " />
<glyph glyph-name="Cdotaccent" unicode="&#x10a;" horiz-adv-x="681" d="M617 667 L588 667 L568 626 C522 665 467 684 398 684 C202 684 42 521 42 321 C42 127 191 -17 393 -17 C463 -17 510 1 565 48 L595 0 L624 0 L633 186 L604 186 C566 74 485 10 382 10 C298 10 245 49 222 130 C212 166 209 199 209 299 C209 481 217 542 249 587 C282 634 331 657 400 657 C504 657 568 603 596 493 L625 493 L617 667 Z M397 850 C363 850 335 822 335 789 C335 755 362 727 397 727 C431 727 458 755 458 789 C458 823 431 850 397 850 L397 850 Z " />
<glyph glyph-name="cdotaccent" unicode="&#x10b;" horiz-adv-x="474" d="M437 118 C399 54 346 20 281 20 C197 20 165 66 165 186 C165 331 192 376 281 376 C313 376 330 371 350 355 C325 340 310 316 310 291 C310 257 340 231 379 231 C417 231 449 260 449 295 C449 355 373 403 281 403 C145 403 35 309 35 193 C35 80 139 -10 268 -10 C357 -10 422 29 463 106 L437 118 Z M272 610 C238 610 210 583 210 549 C210 514 237 487 272 487 C306 487 333 515 333 549 C333 583 306 610 272 610 L272 610 Z " />
<glyph glyph-name="Ccaron" unicode="&#x10c;" horiz-adv-x="681" d="M617 667 L588 667 L568 626 C522 665 467 684 398 684 C202 684 42 521 42 321 C42 127 191 -17 393 -17 C463 -17 510 1 565 48 L595 0 L624 0 L633 186 L604 186 C566 74 485 10 382 10 C298 10 245 49 222 130 C212 166 209 199 209 299 C209 481 217 542 249 587 C282 634 331 657 400 657 C504 657 568 603 596 493 L625 493 L617 667 Z M553 847 L397 798 L240 847 L226 831 L379 727 L414 727 L567 831 L553 847 Z " />
<glyph glyph-name="ccaron" unicode="&#x10d;" horiz-adv-x="474" d="M437 118 C399 54 346 20 281 20 C197 20 165 66 165 186 C165 331 192 376 281 376 C313 376 330 371 350 355 C325 340 310 316 310 291 C310 257 340 231 379 231 C417 231 449 260 449 295 C449 355 373 403 281 403 C145 403 35 309 35 193 C35 80 139 -10 268 -10 C357 -10 422 29 463 106 L437 118 Z M390 621 L274 559 L159 621 L145 608 L262 472 L286 472 L403 608 L390 621 Z " />
<glyph glyph-name="Dcaron" unicode="&#x10e;" horiz-adv-x="784" d="M123 25 L33 25 L33 0 L367 0 C432 0 464 1 482 3 C528 9 572 26 608 52 C693 112 741 213 741 332 C741 485 659 612 534 652 C494 664 466 667 366 667 L33 667 L33 642 L123 642 L123 25 Z M263 25 L263 642 L367 642 C455 642 493 629 525 587 C562 537 574 477 574 334 C574 190 562 130 525 80 C493 38 455 25 367 25 L263 25 Z M511 847 L354 798 L197 847 L183 831 L336 727 L371 727 L524 831 L511 847 Z " />
<glyph glyph-name="dcaron" unicode="&#x10f;" horiz-adv-x="703" d="M379 0 L572 0 L572 25 L499 25 L499 678 C453 670 420 667 333 667 L294 667 L294 642 L379 642 L379 335 C336 384 297 403 240 403 C127 403 35 308 35 193 C35 79 126 -10 244 -10 C302 -10 345 12 379 60 L379 0 Z M261 373 C292 373 324 357 348 329 C371 303 383 257 383 194 C383 94 333 21 264 21 C235 21 211 32 197 52 C178 77 165 143 165 211 C165 318 198 373 261 373 L261 373 Z M604 435 C671 486 697 525 697 578 C697 634 656 678 603 678 C563 678 531 650 531 616 C531 582 560 554 596 554 C620 554 640 565 653 586 C658 576 660 569 660 559 C660 523 637 491 587 456 L604 435 Z " />
<glyph glyph-name="Dcroat" unicode="&#x110;" horiz-adv-x="784" d="M123 330 L123 25 L33 25 L33 0 L372 0 C436 0 467 1 485 3 C530 9 575 26 610 52 C694 112 741 213 741 332 C741 485 660 612 536 652 C497 664 469 667 371 667 L33 667 L33 642 L123 642 L123 355 L33 355 L33 330 L123 330 Z M263 330 L429 330 L429 355 L263 355 L263 642 L372 642 C458 642 495 629 526 587 C563 537 574 477 574 334 C574 190 563 130 526 81 C495 39 457 25 372 25 L263 25 L263 330 Z " />
<glyph glyph-name="dcroat" unicode="&#x111;" horiz-adv-x="575" d="M379 533 L379 335 C336 384 297 403 240 403 C127 403 35 308 35 193 C35 79 126 -10 244 -10 C302 -10 345 12 379 60 L379 0 L572 0 L572 25 L499 25 L499 533 L572 533 L572 558 L499 558 L499 678 C453 670 420 667 333 667 L294 667 L294 642 L379 642 L379 558 L204 558 L204 533 L379 533 Z M261 373 C292 373 324 357 348 329 C371 303 383 257 383 194 C383 94 333 21 264 21 C235 21 211 32 197 52 C178 77 165 143 165 211 C165 318 198 373 261 373 L261 373 Z " />
<glyph glyph-name="Emacron" unicode="&#x112;" horiz-adv-x="690" d="M121 25 L33 25 L33 0 L637 0 L652 212 L623 212 C585 64 530 23 371 25 L261 25 L261 326 L291 326 C400 325 433 296 436 197 L468 197 L468 469 L436 469 C437 384 396 349 294 351 L261 351 L261 642 L399 642 C523 646 573 609 600 497 L629 497 L612 667 L33 667 L33 642 L121 642 L121 25 Z M196 807 L196 761 L522 761 L522 807 L196 807 Z " />
<glyph glyph-name="emacron" unicode="&#x113;" horiz-adv-x="484" d="M458 221 C459 327 376 403 259 403 C131 403 35 315 35 198 C35 129 66 72 124 33 C166 6 217 -10 264 -10 C348 -10 411 29 458 110 L432 121 C393 54 342 20 282 20 C242 20 211 37 197 66 C185 89 185 89 185 199 L185 221 L458 221 Z M185 246 L185 274 C185 319 187 335 193 348 C202 367 223 376 254 376 C283 376 303 368 313 352 C322 339 324 323 324 274 L324 246 L185 246 Z M113 563 L113 516 L393 516 L393 563 L113 563 Z " />
<glyph glyph-name="Ebreve" unicode="&#x114;" horiz-adv-x="690" d="M121 25 L33 25 L33 0 L637 0 L652 212 L623 212 C585 64 530 23 371 25 L261 25 L261 326 L291 326 C400 325 433 296 436 197 L468 197 L468 469 L436 469 C437 384 396 349 294 351 L261 351 L261 642 L399 642 C523 646 573 609 600 497 L629 497 L612 667 L33 667 L33 642 L121 642 L121 25 Z M219 848 C240 771 296 726 367 726 C439 726 494 771 516 848 L489 848 C461 811 425 796 367 796 C310 796 274 811 246 848 L219 848 Z " />
<glyph glyph-name="ebreve" unicode="&#x115;" horiz-adv-x="484" d="M458 221 C459 327 376 403 259 403 C131 403 35 315 35 198 C35 129 66 72 124 33 C166 6 217 -10 264 -10 C348 -10 411 29 458 110 L432 121 C393 54 342 20 282 20 C242 20 211 37 197 66 C185 89 185 89 185 199 L185 221 L458 221 Z M185 246 L185 274 C185 319 187 335 193 348 C202 367 223 376 254 376 C283 376 303 368 313 352 C322 339 324 323 324 274 L324 246 L185 246 Z M357 615 C334 571 306 552 262 552 C219 552 188 574 172 615 L146 615 C155 532 201 477 264 477 C327 477 371 530 381 615 L357 615 Z " />
<glyph glyph-name="Edotaccent" unicode="&#x116;" horiz-adv-x="690" d="M121 25 L33 25 L33 0 L637 0 L652 212 L623 212 C585 64 530 23 371 25 L261 25 L261 326 L291 326 C400 325 433 296 436 197 L468 197 L468 469 L436 469 C437 384 396 349 294 351 L261 351 L261 642 L399 642 C523 646 573 609 600 497 L629 497 L612 667 L33 667 L33 642 L121 642 L121 25 Z M366 850 C332 850 304 822 304 789 C304 755 331 727 366 727 C400 727 427 755 427 789 C427 823 400 850 366 850 L366 850 Z " />
<glyph glyph-name="edotaccent" unicode="&#x117;" horiz-adv-x="484" d="M458 221 C459 327 376 403 259 403 C131 403 35 315 35 198 C35 129 66 72 124 33 C166 6 217 -10 264 -10 C348 -10 411 29 458 110 L432 121 C393 54 342 20 282 20 C242 20 211 37 197 66 C185 89 185 89 185 199 L185 221 L458 221 Z M185 246 L185 274 C185 319 187 335 193 348 C202 367 223 376 254 376 C283 376 303 368 313 352 C322 339 324 323 324 274 L324 246 L185 246 Z M270 610 C236 610 208 583 208 549 C208 514 235 487 270 487 C304 487 331 515 331 549 C331 583 304 610 270 610 L270 610 Z " />
<glyph glyph-name="Eogonek" unicode="&#x118;" horiz-adv-x="690" d="M637 0 L652 212 L623 212 C585 64 530 23 371 25 L261 25 L261 326 L291 326 C400 325 433 296 436 197 L468 197 L468 469 L436 469 C437 384 396 349 294 351 L261 351 L261 642 L399 642 C523 646 573 609 600 497 L629 497 L612 667 L33 667 L33 642 L121 642 L121 25 L33 25 L33 0 L529 0 C448 -35 417 -65 417 -107 C417 -152 454 -178 517 -178 C556 -178 583 -172 624 -154 L624 -127 C601 -134 590 -136 571 -136 C527 -136 501 -117 501 -86 C501 -57 525 -31 580 0 L637 0 Z " />
<glyph glyph-name="eogonek" unicode="&#x119;" horiz-adv-x="484" d="M417 -121 C394 -127 384 -129 364 -129 C322 -129 296 -112 296 -82 C296 -57 313 -33 352 -1 C421 53 431 63 458 110 L432 121 C393 54 342 20 282 20 C242 20 211 37 197 66 C185 89 185 89 185 199 L185 221 L458 221 C459 327 376 403 259 403 C131 403 35 315 35 198 C35 128 65 72 124 33 C166 6 217 -10 265 -10 C279 -10 289 -9 302 -7 C245 -36 218 -68 218 -104 C218 -144 253 -169 310 -169 C349 -169 366 -165 417 -145 L417 -121 Z M185 246 L185 274 C185 319 187 335 193 348 C202 367 223 376 254 376 C283 376 303 368 313 352 C322 339 324 323 324 274 L324 246 L185 246 Z " />
<glyph glyph-name="Ecaron" unicode="&#x11a;" horiz-adv-x="690" d="M121 25 L33 25 L33 0 L637 0 L652 212 L623 212 C585 64 530 23 371 25 L261 25 L261 326 L291 326 C400 325 433 296 436 197 L468 197 L468 469 L436 469 C437 384 396 349 294 351 L261 351 L261 642 L399 642 C523 646 573 609 600 497 L629 497 L612 667 L33 667 L33 642 L121 642 L121 25 Z M529 847 L372 798 L215 847 L201 831 L354 727 L389 727 L542 831 L529 847 Z " />
<glyph glyph-name="ecaron" unicode="&#x11b;" horiz-adv-x="484" d="M458 221 C459 327 376 403 259 403 C131 403 35 315 35 198 C35 129 66 72 124 33 C166 6 217 -10 264 -10 C348 -10 411 29 458 110 L432 121 C393 54 342 20 282 20 C242 20 211 37 197 66 C185 89 185 89 185 199 L185 221 L458 221 Z M185 246 L185 274 C185 319 187 335 193 348 C202 367 223 376 254 376 C283 376 303 368 313 352 C322 339 324 323 324 274 L324 246 L185 246 Z M387 621 L272 559 L157 621 L143 608 L260 472 L284 472 L401 608 L387 621 Z " />
<glyph glyph-name="Gcircumflex" unicode="&#x11c;" horiz-adv-x="728" d="M622 667 L593 667 L559 635 C507 668 450 684 388 684 C308 684 227 654 163 602 C80 534 38 440 38 326 C38 127 173 -17 359 -17 C423 -17 496 4 551 37 C579 55 601 72 639 109 L639 224 L719 224 L719 249 L390 249 L390 224 L499 224 L499 109 C499 52 439 10 357 10 C327 10 299 15 277 25 C240 40 223 66 216 116 C210 150 205 267 205 350 C205 490 215 560 240 596 C266 635 319 657 385 657 C448 657 508 636 539 602 C567 572 581 540 593 480 L622 480 L622 667 Z M222 726 L379 775 L535 726 L549 742 L396 846 L361 846 L208 742 L222 726 Z " />
<glyph glyph-name="gcircumflex" unicode="&#x11d;" horiz-adv-x="543" d="M239 35 L146 35 L136 35 C95 35 79 43 79 64 C79 89 110 116 152 127 C188 112 221 106 259 106 C376 106 459 168 459 257 C459 282 453 304 439 327 C439 339 444 345 451 345 C455 345 457 344 460 340 C471 328 482 323 497 323 C519 323 537 340 537 363 C537 389 517 408 489 408 C458 408 437 389 422 350 C376 387 329 403 265 403 C151 403 66 339 66 253 C66 208 86 172 129 140 C71 124 30 76 30 23 C30 -25 58 -59 109 -73 C58 -86 32 -114 32 -154 C32 -222 126 -271 255 -271 C409 -271 507 -202 507 -93 C507 -53 492 -19 465 4 C437 27 404 36 344 36 L239 35 Z M183 292 C183 327 187 341 198 354 C211 368 235 376 262 376 C289 376 313 368 326 354 C337 341 341 327 341 292 L341 217 C341 182 337 168 326 155 C312 141 290 133 262 133 C234 133 212 141 198 155 C187 168 183 182 183 217 L183 292 Z M385 -81 C422 -81 440 -98 440 -132 C440 -196 365 -244 263 -244 C177 -244 121 -205 121 -146 C121 -122 130 -102 151 -81 L385 -81 Z M155 472 L271 534 L386 472 L400 485 L283 621 L259 621 L142 485 L155 472 Z " />
<glyph glyph-name="Gbreve" unicode="&#x11e;" horiz-adv-x="728" d="M622 667 L593 667 L559 635 C507 668 450 684 388 684 C308 684 227 654 163 602 C80 534 38 440 38 326 C38 127 173 -17 359 -17 C423 -17 496 4 551 37 C579 55 601 72 639 109 L639 224 L719 224 L719 249 L390 249 L390 224 L499 224 L499 109 C499 52 439 10 357 10 C327 10 299 15 277 25 C240 40 223 66 216 116 C210 150 205 267 205 350 C205 490 215 560 240 596 C266 635 319 657 385 657 C448 657 508 636 539 602 C567 572 581 540 593 480 L622 480 L622 667 Z M238 848 C260 771 315 726 387 726 C459 726 514 771 536 848 L509 848 C480 811 444 796 387 796 C330 796 294 811 265 848 L238 848 Z " />
<glyph glyph-name="gbreve" unicode="&#x11f;" horiz-adv-x="543" d="M239 35 L146 35 L136 35 C95 35 79 43 79 64 C79 89 110 116 152 127 C188 112 221 106 259 106 C376 106 459 168 459 257 C459 282 453 304 439 327 C439 339 444 345 451 345 C455 345 457 344 460 340 C471 328 482 323 497 323 C519 323 537 340 537 363 C537 389 517 408 489 408 C458 408 437 389 422 350 C376 387 329 403 265 403 C151 403 66 339 66 253 C66 208 86 172 129 140 C71 124 30 76 30 23 C30 -25 58 -59 109 -73 C58 -86 32 -114 32 -154 C32 -222 126 -271 255 -271 C409 -271 507 -202 507 -93 C507 -53 492 -19 465 4 C437 27 404 36 344 36 L239 35 Z M183 292 C183 327 187 341 198 354 C211 368 235 376 262 376 C289 376 313 368 326 354 C337 341 341 327 341 292 L341 217 C341 182 337 168 326 155 C312 141 290 133 262 133 C234 133 212 141 198 155 C187 168 183 182 183 217 L183 292 Z M385 -81 C422 -81 440 -98 440 -132 C440 -196 365 -244 263 -244 C177 -244 121 -205 121 -146 C121 -122 130 -102 151 -81 L385 -81 Z M366 615 C343 571 315 552 271 552 C229 552 197 574 182 615 L156 615 C164 532 211 477 274 477 C336 477 380 530 390 615 L366 615 Z " />
<glyph glyph-name="Gdotaccent" unicode="&#x120;" horiz-adv-x="728" d="M622 667 L593 667 L559 635 C507 668 450 684 388 684 C308 684 227 654 163 602 C80 534 38 440 38 326 C38 127 173 -17 359 -17 C423 -17 496 4 551 37 C579 55 601 72 639 109 L639 224 L719 224 L719 249 L390 249 L390 224 L499 224 L499 109 C499 52 439 10 357 10 C327 10 299 15 277 25 C240 40 223 66 216 116 C210 150 205 267 205 350 C205 490 215 560 240 596 C266 635 319 657 385 657 C448 657 508 636 539 602 C567 572 581 540 593 480 L622 480 L622 667 Z M383 850 C349 850 321 822 321 789 C321 755 348 727 383 727 C417 727 444 755 444 789 C444 823 417 850 383 850 L383 850 Z " />
<glyph glyph-name="gdotaccent" unicode="&#x121;" horiz-adv-x="543" d="M239 35 L146 35 L136 35 C95 35 79 43 79 64 C79 89 110 116 152 127 C188 112 221 106 259 106 C376 106 459 168 459 257 C459 282 453 304 439 327 C439 339 444 345 451 345 C455 345 457 344 460 340 C471 328 482 323 497 323 C519 323 537 340 537 363 C537 389 517 408 489 408 C458 408 437 389 422 350 C376 387 329 403 265 403 C151 403 66 339 66 253 C66 208 86 172 129 140 C71 124 30 76 30 23 C30 -25 58 -59 109 -73 C58 -86 32 -114 32 -154 C32 -222 126 -271 255 -271 C409 -271 507 -202 507 -93 C507 -53 492 -19 465 4 C437 27 404 36 344 36 L239 35 Z M183 292 C183 327 187 341 198 354 C211 368 235 376 262 376 C289 376 313 368 326 354 C337 341 341 327 341 292 L341 217 C341 182 337 168 326 155 C312 141 290 133 262 133 C234 133 212 141 198 155 C187 168 183 182 183 217 L183 292 Z M385 -81 C422 -81 440 -98 440 -132 C440 -196 365 -244 263 -244 C177 -244 121 -205 121 -146 C121 -122 130 -102 151 -81 L385 -81 Z M273 610 C239 610 211 583 211 549 C211 514 238 487 273 487 C307 487 334 515 334 549 C334 583 307 610 273 610 L273 610 Z " />
<glyph glyph-name="Gcommaaccent" unicode="&#x122;" horiz-adv-x="728" d="M622 667 L593 667 L559 635 C507 668 450 684 388 684 C308 684 227 654 163 602 C80 534 38 440 38 326 C38 127 173 -17 359 -17 C423 -17 496 4 551 37 C579 55 601 72 639 109 L639 224 L719 224 L719 249 L390 249 L390 224 L499 224 L499 109 C499 52 439 10 357 10 C327 10 299 15 277 25 C240 40 223 66 216 116 C210 150 205 267 205 350 C205 490 215 560 240 596 C266 635 319 657 385 657 C448 657 508 636 539 602 C567 572 581 540 593 480 L622 480 L622 667 Z M349 -322 C425 -265 455 -219 455 -159 C455 -98 410 -50 352 -50 C309 -50 274 -80 274 -118 C274 -155 306 -185 344 -185 C371 -185 392 -173 406 -150 C414 -161 416 -169 416 -181 C416 -222 389 -261 331 -301 L349 -322 Z " />
<glyph glyph-name="gcommaaccent" unicode="&#x123;" horiz-adv-x="543" d="M239 35 L146 35 L136 35 C95 35 79 43 79 64 C79 89 110 116 152 127 C188 112 221 106 259 106 C376 106 459 168 459 257 C459 282 453 304 439 327 C439 339 444 345 451 345 C455 345 457 344 460 340 C471 328 482 323 497 323 C519 323 537 340 537 363 C537 389 517 408 489 408 C458 408 437 389 422 350 C376 387 329 403 265 403 C151 403 66 339 66 253 C66 208 86 172 129 140 C71 124 30 76 30 23 C30 -25 58 -59 109 -73 C58 -86 32 -114 32 -154 C32 -222 126 -271 255 -271 C409 -271 507 -202 507 -93 C507 -53 492 -19 465 4 C437 27 404 36 344 36 L239 35 Z M183 292 C183 327 187 341 198 354 C211 368 235 376 262 376 C289 376 313 368 326 354 C337 341 341 327 341 292 L341 217 C341 182 337 168 326 155 C312 141 290 133 262 133 C234 133 212 141 198 155 C187 168 183 182 183 217 L183 292 Z M385 -81 C422 -81 440 -98 440 -132 C440 -196 365 -244 263 -244 C177 -244 121 -205 121 -146 C121 -122 130 -102 151 -81 L385 -81 Z M272 693 C205 642 179 603 179 550 C179 494 220 450 273 450 C313 450 345 478 345 512 C345 546 316 574 280 574 C256 574 236 563 224 542 C218 552 216 559 216 569 C216 605 239 637 289 672 L272 693 Z " />
<glyph glyph-name="Hcircumflex" unicode="&#x124;" horiz-adv-x="806" d="M121 25 L33 25 L33 0 L362 0 L362 25 L261 25 L261 330 L545 330 L545 25 L444 25 L444 0 L773 0 L773 25 L685 25 L685 642 L773 642 L773 667 L444 667 L444 642 L545 642 L545 355 L261 355 L261 642 L362 642 L362 667 L33 667 L33 642 L121 642 L121 25 Z M246 726 L403 775 L560 726 L574 742 L421 846 L386 846 L233 742 L246 726 Z " />
<glyph glyph-name="Hbar" unicode="&#x126;" horiz-adv-x="806" d="M121 458 L121 25 L33 25 L33 0 L362 0 L362 25 L261 25 L261 330 L545 330 L545 25 L444 25 L444 0 L773 0 L773 25 L685 25 L685 458 L761 458 L761 483 L685 483 L685 642 L773 642 L773 667 L444 667 L444 642 L545 642 L545 483 L261 483 L261 642 L362 642 L362 667 L33 667 L33 642 L121 642 L121 483 L43 483 L43 458 L121 458 Z M261 458 L545 458 L545 355 L261 355 L261 458 Z " />
<glyph glyph-name="hbar" unicode="&#x127;" horiz-adv-x="603" d="M84 533 L84 25 L11 25 L11 0 L275 0 L275 25 L204 25 L204 196 C204 251 210 279 227 305 C249 338 289 360 329 360 C350 360 369 353 379 342 C391 330 393 317 393 271 L393 25 L334 25 L334 0 L598 0 L598 25 L513 25 L513 271 C513 320 509 341 495 359 C475 387 429 403 373 403 C303 403 253 380 204 326 L204 533 L361 533 L361 558 L204 558 L204 678 C159 670 127 667 45 667 L11 667 L11 642 L84 642 L84 558 L11 558 L11 533 L84 533 Z " />
<glyph glyph-name="Imacron" unicode="&#x12a;" horiz-adv-x="382" d="M121 25 L33 25 L33 0 L349 0 L349 25 L261 25 L261 642 L349 642 L349 667 L33 667 L33 642 L121 642 L121 25 Z M33 807 L33 761 L349 761 L349 807 L33 807 Z " />
<glyph glyph-name="imacron" unicode="&#x12b;" horiz-adv-x="307" d="M105 25 L20 25 L20 0 L298 0 L298 25 L225 25 L225 404 C179 396 146 393 59 393 L20 393 L20 368 L105 368 L105 25 Z M19 563 L19 516 L270 516 L270 563 L19 563 Z " />
<glyph glyph-name="ibreve" unicode="&#x12d;" horiz-adv-x="307" d="M105 25 L20 25 L20 0 L298 0 L298 25 L225 25 L225 404 C179 396 146 393 59 393 L20 393 L20 368 L105 368 L105 25 Z M252 615 C230 571 202 552 158 552 C115 552 84 574 68 615 L42 615 C51 532 97 477 160 477 C222 477 267 530 277 615 L252 615 Z " />
<glyph glyph-name="Iogonek" unicode="&#x12e;" horiz-adv-x="382" d="M349 0 L349 25 L261 25 L261 642 L349 642 L349 667 L33 667 L33 642 L121 642 L121 25 L33 25 L33 0 L224 0 C143 -35 112 -65 112 -107 C112 -152 149 -178 212 -178 C250 -178 278 -172 319 -154 L319 -127 C296 -134 285 -136 265 -136 C222 -136 196 -117 196 -86 C196 -57 220 -31 275 0 L349 0 Z " />
<glyph glyph-name="iogonek" unicode="&#x12f;" horiz-adv-x="307" d="M298 0 L298 25 L225 25 L225 404 C179 396 146 393 59 393 L20 393 L20 368 L105 368 L105 25 L20 25 L20 0 L202 0 C121 -35 90 -64 90 -104 C90 -144 125 -169 182 -169 C222 -169 239 -165 289 -145 L289 -121 C267 -127 256 -129 236 -129 C194 -129 168 -112 168 -84 C168 -57 193 -30 246 0 L298 0 Z M146 635 C109 635 79 605 79 569 C79 532 108 502 146 502 C182 502 212 532 212 569 C212 605 182 635 146 635 L146 635 Z " />
<glyph glyph-name="Idotaccent" unicode="&#x130;" horiz-adv-x="382" d="M121 25 L33 25 L33 0 L349 0 L349 25 L261 25 L261 642 L349 642 L349 667 L33 667 L33 642 L121 642 L121 25 Z M191 850 C157 850 129 822 129 789 C129 755 156 727 191 727 C225 727 252 755 252 789 C252 823 225 850 191 850 L191 850 Z " />
<glyph glyph-name="dotlessi" unicode="&#x131;" horiz-adv-x="307" d="M105 25 L20 25 L20 0 L298 0 L298 25 L225 25 L225 404 C179 396 146 393 59 393 L20 393 L20 368 L105 368 L105 25 Z " />
<glyph glyph-name="Kcommaaccent" unicode="&#x136;" horiz-adv-x="765" d="M121 25 L33 25 L33 0 L363 0 L363 25 L261 25 L261 642 L363 642 L363 667 L33 667 L33 642 L121 642 L121 25 Z M409 427 L584 596 C624 636 640 642 689 642 L711 642 L711 667 L465 667 L465 642 L525 642 C552 642 562 638 562 629 C562 623 560 619 547 607 L282 347 L525 25 L439 25 L439 0 L765 0 L765 25 L711 25 L409 427 Z M384 -322 C460 -265 490 -219 490 -159 C490 -98 445 -50 387 -50 C344 -50 309 -80 309 -118 C309 -155 341 -185 379 -185 C406 -185 427 -173 441 -150 C449 -161 451 -169 451 -181 C451 -222 424 -260 366 -301 L384 -322 Z " />
<glyph glyph-name="kcommaaccent" unicode="&#x137;" horiz-adv-x="584" d="M89 25 L4 25 L4 0 L268 0 L268 25 L209 25 L209 678 C163 670 130 667 43 667 L4 667 L4 642 L89 642 L89 25 Z M329 268 L400 328 C441 365 449 368 492 368 L518 368 L518 393 L298 393 L298 368 L345 368 C376 368 381 366 381 357 C381 350 376 344 356 328 L216 212 L368 25 L310 25 L310 0 L580 0 L580 25 L527 25 L329 268 Z M265 -292 C332 -243 358 -203 358 -150 C358 -94 317 -50 264 -50 C224 -50 192 -78 192 -112 C192 -146 221 -174 256 -174 C281 -174 301 -163 313 -141 C319 -152 321 -159 321 -169 C321 -205 298 -237 247 -272 L265 -292 Z " />
<glyph glyph-name="Lacute" unicode="&#x139;" horiz-adv-x="640" d="M121 25 L33 25 L33 0 L593 0 L614 210 L585 210 C555 87 474 19 364 25 L261 25 L261 642 L363 642 L363 667 L33 667 L33 642 L121 642 L121 25 Z M304 846 L173 740 L185 726 L439 821 L439 846 L304 846 Z " />
<glyph glyph-name="lacute" unicode="&#x13a;" horiz-adv-x="286" d="M89 25 L4 25 L4 0 L282 0 L282 25 L209 25 L209 678 C163 670 130 667 43 667 L4 667 L4 642 L89 642 L89 25 Z M198 846 L67 740 L78 726 L332 821 L332 846 L198 846 Z " />
<glyph glyph-name="Lcommaaccent" unicode="&#x13b;" horiz-adv-x="640" d="M121 25 L33 25 L33 0 L593 0 L614 210 L585 210 C555 87 474 19 364 25 L261 25 L261 642 L363 642 L363 667 L33 667 L33 642 L121 642 L121 25 Z M319 -322 C395 -265 425 -219 425 -159 C425 -98 380 -50 322 -50 C279 -50 244 -80 244 -118 C244 -155 276 -185 315 -185 C341 -185 363 -173 377 -150 C384 -161 386 -169 386 -181 C386 -222 359 -260 301 -301 L319 -322 Z " />
<glyph glyph-name="lcommaaccent" unicode="&#x13c;" horiz-adv-x="286" d="M89 25 L4 25 L4 0 L282 0 L282 25 L209 25 L209 678 C163 670 130 667 43 667 L4 667 L4 642 L89 642 L89 25 Z M147 -292 C214 -242 240 -203 240 -150 C240 -94 199 -50 146 -50 C107 -50 75 -78 75 -112 C75 -146 104 -174 139 -174 C164 -174 183 -163 196 -141 C201 -152 203 -159 203 -169 C203 -205 180 -237 130 -272 L147 -292 Z " />
<glyph glyph-name="Lcaron" unicode="&#x13d;" horiz-adv-x="640" d="M121 25 L33 25 L33 0 L593 0 L614 210 L585 210 C555 87 474 19 364 25 L261 25 L261 642 L363 642 L363 667 L33 667 L33 642 L121 642 L121 25 Z M462 394 C538 451 568 497 568 557 C568 619 523 667 465 667 C422 667 387 637 387 599 C387 562 419 532 457 532 C484 532 506 544 520 567 C527 555 529 548 529 536 C529 494 502 456 444 415 L462 394 Z " />
<glyph glyph-name="lcaron" unicode="&#x13e;" horiz-adv-x="417" d="M89 25 L4 25 L4 0 L282 0 L282 25 L209 25 L209 678 C163 670 130 667 43 667 L4 667 L4 642 L89 642 L89 25 Z M318 435 C385 485 411 525 411 578 C411 634 370 678 317 678 C277 678 245 650 245 616 C245 582 274 554 309 554 C334 554 353 565 366 586 C372 576 374 569 374 559 C374 523 351 491 300 456 L318 435 Z " />
<glyph glyph-name="Ldot" unicode="&#x13f;" horiz-adv-x="640" d="M121 25 L33 25 L33 0 L593 0 L614 210 L585 210 C555 87 474 19 364 25 L261 25 L261 642 L363 642 L363 667 L33 667 L33 642 L121 642 L121 25 Z M398 379 C364 379 336 352 336 318 C336 283 363 256 398 256 C432 256 459 284 459 318 C459 352 432 379 398 379 L398 379 Z " />
<glyph glyph-name="ldot" unicode="&#x140;" horiz-adv-x="357" d="M89 25 L4 25 L4 0 L282 0 L282 25 L209 25 L209 678 C163 670 130 667 43 667 L4 667 L4 642 L89 642 L89 25 Z M310 404 C276 404 248 377 248 343 C248 308 275 281 310 281 C344 281 371 309 371 343 C371 377 344 404 310 404 L310 404 Z " />
<glyph glyph-name="Lslash" unicode="&#x141;" horiz-adv-x="640" d="M121 284 L33 230 L33 197 L121 251 L121 25 L33 25 L33 0 L593 0 L614 210 L585 210 C555 87 474 19 364 25 L261 25 L261 336 L434 443 L433 476 L261 369 L261 642 L363 642 L363 667 L33 667 L33 642 L121 642 L121 284 Z " />
<glyph glyph-name="lslash" unicode="&#x142;" horiz-adv-x="286" d="M209 383 L282 430 L282 462 L209 415 L209 678 C163 670 130 667 43 667 L4 667 L4 642 L89 642 L89 339 L4 284 L4 252 L89 307 L89 25 L4 25 L4 0 L282 0 L282 25 L209 25 L209 383 Z " />
<glyph glyph-name="Nacute" unicode="&#x143;" horiz-adv-x="762" d="M625 -7 L648 -7 L648 570 C647 635 654 642 707 642 L736 642 L736 667 L527 667 L527 642 L557 642 C612 642 619 635 618 570 L618 241 L264 667 L26 667 L26 642 L56 642 C111 642 118 635 117 570 L117 97 C118 32 111 25 56 25 L26 25 L26 0 L250 0 L250 25 L206 25 C153 25 146 32 147 97 L147 585 L625 -7 Z M463 846 L332 740 L343 726 L597 821 L597 846 L463 846 Z " />
<glyph glyph-name="nacute" unicode="&#x144;" horiz-adv-x="613" d="M99 25 L26 25 L26 0 L290 0 L290 25 L219 25 L219 218 C219 266 221 278 235 300 C256 337 303 363 345 363 C389 363 404 341 404 274 L404 25 L345 25 L345 0 L609 0 L609 25 L524 25 L524 274 C524 329 517 351 491 372 C466 392 428 403 385 403 C320 403 260 377 219 331 L219 404 C174 396 142 393 60 393 L26 393 L26 368 L99 368 L99 25 Z M365 621 L285 480 L301 471 L462 596 L462 621 L365 621 Z " />
<glyph glyph-name="Ncommaaccent" unicode="&#x145;" horiz-adv-x="762" d="M625 -7 L648 -7 L648 570 C647 635 654 642 707 642 L736 642 L736 667 L527 667 L527 642 L557 642 C612 642 619 635 618 570 L618 241 L264 667 L26 667 L26 642 L56 642 C111 642 118 635 117 570 L117 97 C118 32 111 25 56 25 L26 25 L26 0 L250 0 L250 25 L206 25 C153 25 146 32 147 97 L147 585 L625 -7 Z M376 -322 C453 -265 483 -219 483 -159 C483 -98 438 -50 380 -50 C337 -50 302 -80 302 -118 C302 -155 334 -185 372 -185 C399 -185 420 -173 434 -150 C442 -161 444 -169 444 -181 C444 -222 417 -260 359 -301 L376 -322 Z " />
<glyph glyph-name="ncommaaccent" unicode="&#x146;" horiz-adv-x="613" d="M99 25 L26 25 L26 0 L290 0 L290 25 L219 25 L219 218 C219 266 221 278 235 300 C256 337 303 363 345 363 C389 363 404 341 404 274 L404 25 L345 25 L345 0 L609 0 L609 25 L524 25 L524 274 C524 329 517 351 491 372 C466 392 428 403 385 403 C320 403 260 377 219 331 L219 404 C174 396 142 393 60 393 L26 393 L26 368 L99 368 L99 25 Z M313 -292 C381 -242 407 -203 407 -150 C407 -94 366 -50 313 -50 C273 -50 241 -78 241 -112 C241 -146 270 -174 305 -174 C330 -174 349 -163 362 -141 C368 -152 370 -159 370 -169 C370 -205 347 -237 296 -272 L313 -292 Z " />
<glyph glyph-name="Ncaron" unicode="&#x147;" horiz-adv-x="762" d="M625 -7 L648 -7 L648 570 C647 635 654 642 707 642 L736 642 L736 667 L527 667 L527 642 L557 642 C612 642 619 635 618 570 L618 241 L264 667 L26 667 L26 642 L56 642 C111 642 118 635 117 570 L117 97 C118 32 111 25 56 25 L26 25 L26 0 L250 0 L250 25 L206 25 C153 25 146 32 147 97 L147 585 L625 -7 Z M549 847 L392 798 L235 847 L221 831 L374 727 L409 727 L562 831 L549 847 Z " />
<glyph glyph-name="ncaron" unicode="&#x148;" horiz-adv-x="613" d="M99 25 L26 25 L26 0 L290 0 L290 25 L219 25 L219 218 C219 266 221 278 235 300 C256 337 303 363 345 363 C389 363 404 341 404 274 L404 25 L345 25 L345 0 L609 0 L609 25 L524 25 L524 274 C524 329 517 351 491 372 C466 392 428 403 385 403 C320 403 260 377 219 331 L219 404 C174 396 142 393 60 393 L26 393 L26 368 L99 368 L99 25 Z M442 621 L326 559 L211 621 L197 608 L315 472 L338 472 L455 608 L442 621 Z " />
<glyph glyph-name="Omacron" unicode="&#x14c;" horiz-adv-x="805" d="M402 684 C307 684 228 655 160 597 C87 533 42 433 42 334 C42 234 86 137 160 70 C225 12 307 -17 402 -17 C498 -17 580 12 645 70 C717 135 763 235 763 329 C763 433 720 530 645 597 C578 655 499 684 402 684 L402 684 Z M403 657 C472 657 519 637 551 595 C583 550 596 477 596 329 C596 205 585 129 560 86 C529 34 480 10 403 10 C332 10 287 29 255 72 C222 116 209 191 209 334 C209 462 220 538 245 581 C276 633 325 657 403 657 L403 657 Z M244 807 L244 761 L569 761 L569 807 L244 807 Z " />
<glyph glyph-name="omacron" unicode="&#x14d;" horiz-adv-x="563" d="M281 403 C143 403 35 312 35 197 C35 80 143 -10 281 -10 C419 -10 528 80 528 194 C528 313 422 403 281 403 L281 403 Z M282 376 C321 376 355 363 374 340 C392 318 398 280 398 194 C398 121 392 80 379 60 C361 33 326 17 282 17 C241 17 208 30 189 53 C171 75 165 113 165 196 C165 272 171 312 184 333 C202 360 237 376 282 376 L282 376 Z M146 563 L146 516 L426 516 L426 563 L146 563 Z " />
<glyph glyph-name="Ohungarumlaut" unicode="&#x150;" horiz-adv-x="805" d="M402 684 C307 684 228 655 160 597 C87 533 42 433 42 334 C42 234 86 137 160 70 C225 12 307 -17 402 -17 C498 -17 580 12 645 70 C717 135 763 235 763 329 C763 433 720 530 645 597 C578 655 499 684 402 684 L402 684 Z M403 657 C472 657 519 637 551 595 C583 550 596 477 596 329 C596 205 585 129 560 86 C529 34 480 10 403 10 C332 10 287 29 255 72 C222 116 209 191 209 334 C209 462 220 538 245 581 C276 633 325 657 403 657 L403 657 Z M395 846 L279 737 L287 726 L516 823 L516 846 L395 846 Z M610 846 L494 737 L503 726 L731 823 L731 846 L610 846 Z " />
<glyph glyph-name="ohungarumlaut" unicode="&#x151;" horiz-adv-x="563" d="M281 403 C143 403 35 312 35 197 C35 80 143 -10 281 -10 C419 -10 528 80 528 194 C528 313 422 403 281 403 L281 403 Z M282 376 C321 376 355 363 374 340 C392 318 398 280 398 194 C398 121 392 80 379 60 C361 33 326 17 282 17 C241 17 208 30 189 53 C171 75 165 113 165 196 C165 272 171 312 184 333 C202 360 237 376 282 376 L282 376 Z M261 621 L197 478 L211 471 L348 599 L348 621 L261 621 Z M411 621 L348 478 L361 471 L498 599 L498 621 L411 621 Z " />
<glyph glyph-name="OE" unicode="&#x152;" horiz-adv-x="1102" d="M487 667 C448 679 421 684 386 684 C198 684 42 521 42 325 C42 129 188 -17 384 -17 C421 -17 453 -12 500 0 L1049 0 L1064 212 L1035 212 C997 64 942 23 784 25 L674 25 L674 326 L704 326 C813 325 845 296 849 197 L880 197 L880 469 L849 469 C849 383 808 349 707 351 L674 351 L674 642 L812 642 C935 646 985 609 1012 497 L1041 497 L1024 667 L487 667 Z M534 143 C534 87 530 72 509 50 C482 24 443 10 393 10 C332 10 283 31 256 69 C226 111 209 210 209 345 C209 469 223 556 250 595 C276 633 330 657 392 657 C439 657 485 640 509 615 C527 596 534 570 534 520 L534 143 Z " />
<glyph glyph-name="oe" unicode="&#x153;" horiz-adv-x="814" d="M788 221 C776 337 704 403 588 403 C530 403 485 389 439 358 C377 391 335 403 281 403 C148 403 35 308 35 196 C35 84 147 -10 279 -10 C332 -10 379 3 439 33 C484 4 530 -10 584 -10 C673 -10 738 29 788 113 L762 125 C720 54 670 20 609 20 C563 20 522 47 511 84 C505 104 505 104 505 221 L788 221 Z M505 246 L505 274 C505 318 507 335 513 347 C523 367 543 376 574 376 C603 376 622 368 633 352 C642 338 644 323 644 274 L644 246 L505 246 Z M270 376 C308 376 339 363 358 340 C374 319 380 281 380 195 C380 121 374 79 362 59 C345 32 311 17 270 17 C232 17 201 30 182 53 C166 74 160 112 160 196 C160 272 165 314 178 333 C195 361 229 376 270 376 L270 376 Z " />
<glyph glyph-name="Racute" unicode="&#x154;" horiz-adv-x="760" d="M121 25 L33 25 L33 0 L363 0 L363 25 L261 25 L261 343 L331 343 C420 346 449 312 457 192 C462 118 466 97 483 65 C507 19 552 -4 616 -4 C655 -4 693 3 738 18 L738 44 C716 37 700 33 685 33 C648 33 631 56 631 108 C631 117 631 123 632 134 L632 155 C632 259 553 336 429 355 C507 359 526 362 560 379 C616 407 647 455 647 512 C647 561 626 601 585 628 C538 659 491 667 355 667 L33 667 L33 642 L121 642 L121 25 Z M261 368 L261 642 L355 642 C421 642 448 637 470 620 C494 601 505 570 505 516 C505 398 474 368 355 368 L261 368 Z M395 846 L264 740 L276 726 L530 821 L530 846 L395 846 Z " />
<glyph glyph-name="racute" unicode="&#x155;" horiz-adv-x="453" d="M93 25 L20 25 L20 0 L310 0 L310 25 L213 25 L213 200 C213 262 229 300 272 338 C288 353 315 367 326 367 C333 367 337 364 337 359 C337 356 336 354 332 352 C315 340 309 331 309 316 C309 285 337 261 374 261 C414 261 443 288 443 325 C443 370 403 403 348 403 C295 403 243 371 213 318 L213 404 C169 396 137 393 50 393 L20 393 L20 368 L93 368 L93 25 Z M285 621 L205 480 L222 471 L382 596 L382 621 L285 621 Z " />
<glyph glyph-name="Rcommaaccent" unicode="&#x156;" horiz-adv-x="760" d="M121 25 L33 25 L33 0 L363 0 L363 25 L261 25 L261 343 L331 343 C420 346 449 312 457 192 C462 118 466 97 483 65 C507 19 552 -4 616 -4 C655 -4 693 3 738 18 L738 44 C716 37 700 33 685 33 C648 33 631 56 631 108 C631 117 631 123 632 134 L632 155 C632 259 553 336 429 355 C507 359 526 362 560 379 C616 407 647 455 647 512 C647 561 626 601 585 628 C538 659 491 667 355 667 L33 667 L33 642 L121 642 L121 25 Z M261 368 L261 642 L355 642 C421 642 448 637 470 620 C494 601 505 570 505 516 C505 398 474 368 355 368 L261 368 Z M353 -322 C429 -265 459 -219 459 -159 C459 -98 414 -50 357 -50 C314 -50 279 -80 279 -118 C279 -155 311 -185 349 -185 C376 -185 397 -173 411 -150 C418 -161 420 -169 420 -181 C420 -222 393 -260 336 -301 L353 -322 Z " />
<glyph glyph-name="rcommaaccent" unicode="&#x157;" horiz-adv-x="453" d="M93 25 L20 25 L20 0 L310 0 L310 25 L213 25 L213 200 C213 262 229 300 272 338 C288 353 315 367 326 367 C333 367 337 364 337 359 C337 356 336 354 332 352 C315 340 309 331 309 316 C309 285 337 261 374 261 C414 261 443 288 443 325 C443 370 403 403 348 403 C295 403 243 371 213 318 L213 404 C169 396 137 393 50 393 L20 393 L20 368 L93 368 L93 25 Z M158 -292 C225 -242 251 -203 251 -150 C251 -94 210 -50 157 -50 C118 -50 86 -78 86 -112 C86 -146 115 -174 150 -174 C175 -174 194 -163 207 -141 C212 -152 214 -159 214 -169 C214 -205 191 -237 141 -272 L158 -292 Z " />
<glyph glyph-name="Rcaron" unicode="&#x158;" horiz-adv-x="760" d="M121 25 L33 25 L33 0 L363 0 L363 25 L261 25 L261 343 L331 343 C420 346 449 312 457 192 C462 118 466 97 483 65 C507 19 552 -4 616 -4 C655 -4 693 3 738 18 L738 44 C716 37 700 33 685 33 C648 33 631 56 631 108 C631 117 631 123 632 134 L632 155 C632 259 553 336 429 355 C507 359 526 362 560 379 C616 407 647 455 647 512 C647 561 626 601 585 628 C538 659 491 667 355 667 L33 667 L33 642 L121 642 L121 25 Z M261 368 L261 642 L355 642 C421 642 448 637 470 620 C494 601 505 570 505 516 C505 398 474 368 355 368 L261 368 Z M517 847 L360 798 L203 847 L189 831 L343 727 L378 727 L531 831 L517 847 Z " />
<glyph glyph-name="rcaron" unicode="&#x159;" horiz-adv-x="453" d="M93 25 L20 25 L20 0 L310 0 L310 25 L213 25 L213 200 C213 262 229 300 272 338 C288 353 315 367 326 367 C333 367 337 364 337 359 C337 356 336 354 332 352 C315 340 309 331 309 316 C309 285 337 261 374 261 C414 261 443 288 443 325 C443 370 403 403 348 403 C295 403 243 371 213 318 L213 404 C169 396 137 393 50 393 L20 393 L20 368 L93 368 L93 25 Z M360 621 L244 559 L129 621 L116 608 L233 472 L256 472 L373 608 L360 621 Z " />
<glyph glyph-name="Sacute" unicode="&#x15a;" horiz-adv-x="583" d="M479 667 L450 667 L419 636 C367 670 323 684 270 684 C144 684 47 593 47 475 C47 415 73 364 120 331 C146 312 146 312 274 275 C378 246 384 244 406 230 C437 210 456 176 456 138 C456 67 385 10 297 10 C191 10 108 77 79 186 L50 186 L50 0 L78 0 L115 42 C180 1 236 -17 299 -17 C438 -17 541 79 541 207 C541 282 501 352 443 381 C413 397 377 407 243 442 C160 464 126 494 126 546 C126 609 186 657 265 657 C365 657 433 594 450 487 L479 487 L479 667 Z M348 846 L217 740 L229 726 L482 821 L482 846 L348 846 Z " />
<glyph glyph-name="sacute" unicode="&#x15b;" horiz-adv-x="410" d="M345 403 L317 403 C315 382 311 376 301 376 C295 376 288 378 274 383 C237 398 213 403 184 403 C105 403 42 346 42 275 C42 242 58 211 86 189 C105 173 137 162 205 146 C262 133 268 131 285 122 C303 111 314 95 314 78 C314 44 272 17 219 17 C171 17 122 39 93 74 C76 96 69 115 66 146 L37 146 L37 0 L66 0 C66 17 71 26 82 26 C89 26 94 24 104 18 C136 -1 172 -10 212 -10 C307 -10 376 51 376 137 C376 186 348 221 292 241 C270 249 226 261 173 273 C129 282 108 299 108 324 C108 355 140 376 187 376 C225 376 264 361 290 337 C307 322 313 310 317 286 L345 286 L345 403 Z M245 621 L165 480 L182 471 L342 596 L342 621 L245 621 Z " />
<glyph glyph-name="Scircumflex" unicode="&#x15c;" horiz-adv-x="583" d="M479 667 L450 667 L419 636 C367 670 323 684 270 684 C144 684 47 593 47 475 C47 415 73 364 120 331 C146 312 146 312 274 275 C378 246 384 244 406 230 C437 210 456 176 456 138 C456 67 385 10 297 10 C191 10 108 77 79 186 L50 186 L50 0 L78 0 L115 42 C180 1 236 -17 299 -17 C438 -17 541 79 541 207 C541 282 501 352 443 381 C413 397 377 407 243 442 C160 464 126 494 126 546 C126 609 186 657 265 657 C365 657 433 594 450 487 L479 487 L479 667 Z M131 726 L288 775 L444 726 L458 742 L305 846 L270 846 L117 742 L131 726 Z " />
<glyph glyph-name="scircumflex" unicode="&#x15d;" horiz-adv-x="410" d="M345 403 L317 403 C315 382 311 376 301 376 C295 376 288 378 274 383 C237 398 213 403 184 403 C105 403 42 346 42 275 C42 242 58 211 86 189 C105 173 137 162 205 146 C262 133 268 131 285 122 C303 111 314 95 314 78 C314 44 272 17 219 17 C171 17 122 39 93 74 C76 96 69 115 66 146 L37 146 L37 0 L66 0 C66 17 71 26 82 26 C89 26 94 24 104 18 C136 -1 172 -10 212 -10 C307 -10 376 51 376 137 C376 186 348 221 292 241 C270 249 226 261 173 273 C129 282 108 299 108 324 C108 355 140 376 187 376 C225 376 264 361 290 337 C307 322 313 310 317 286 L345 286 L345 403 Z M98 472 L213 534 L328 472 L342 485 L225 621 L201 621 L84 485 L98 472 Z " />
<glyph glyph-name="Scedilla" unicode="&#x15e;" horiz-adv-x="583" d="M309 -17 C444 -11 541 82 541 207 C541 265 519 318 479 356 C449 384 418 396 304 426 C205 452 205 452 178 465 C145 481 126 512 126 546 C126 609 186 657 265 657 C365 657 433 594 450 487 L479 487 L479 667 L450 667 L419 636 C367 670 323 684 270 684 C144 684 47 593 47 475 C47 415 73 364 120 331 C146 312 146 312 274 275 C378 246 384 244 406 230 C437 210 456 176 456 138 C456 67 385 10 297 10 C191 10 108 77 79 186 L50 186 L50 0 L78 0 L115 42 C166 8 216 -9 275 -16 L250 -76 C295 -87 308 -98 308 -124 C308 -155 281 -180 247 -180 C219 -180 195 -167 195 -153 C195 -151 196 -148 199 -144 C205 -137 206 -133 206 -127 C206 -114 195 -104 180 -104 C162 -104 148 -118 148 -136 C148 -176 203 -207 273 -207 C350 -207 407 -173 407 -126 C407 -86 370 -59 316 -59 C311 -59 302 -60 291 -62 L309 -17 Z " />
<glyph glyph-name="scedilla" unicode="&#x15f;" horiz-adv-x="410" d="M221 -10 C314 -4 376 54 376 137 C376 186 348 221 292 241 C270 249 226 261 173 273 C129 282 108 299 108 324 C108 355 140 376 187 376 C225 376 264 361 290 337 C307 322 313 310 317 286 L345 286 L345 403 L317 403 C315 382 311 376 301 376 C295 376 288 378 274 383 C237 398 213 403 184 403 C105 403 42 346 42 275 C42 242 58 211 86 189 C105 173 137 162 205 146 C262 133 268 131 285 122 C303 111 314 95 314 78 C314 44 272 17 219 17 C171 17 122 39 93 74 C76 96 69 115 66 146 L37 146 L37 0 L66 0 C66 17 71 26 82 26 C89 26 94 24 104 18 C127 3 160 -7 194 -9 L168 -72 C211 -74 236 -94 236 -125 C236 -154 208 -180 177 -180 C156 -180 135 -166 134 -152 C134 -150 135 -148 136 -145 C139 -138 140 -136 140 -134 C140 -123 128 -114 114 -114 C98 -114 86 -125 86 -140 C86 -172 129 -197 182 -197 C252 -197 311 -159 311 -115 C311 -77 272 -49 218 -49 C216 -49 210 -49 205 -50 L221 -10 Z " />
<glyph glyph-name="Scaron" unicode="&#x160;" horiz-adv-x="583" d="M442 847 L285 798 L129 847 L115 831 L268 727 L303 727 L456 831 L442 847 Z M479 667 L450 667 L419 636 C367 670 323 684 270 684 C144 684 47 593 47 475 C47 415 73 364 120 331 C146 312 146 312 274 275 C378 246 384 244 406 230 C437 210 456 176 456 138 C456 67 385 10 297 10 C191 10 108 77 79 186 L50 186 L50 0 L78 0 L115 42 C180 1 236 -17 299 -17 C438 -17 541 79 541 207 C541 282 501 352 443 381 C413 397 377 407 243 442 C160 464 126 494 126 546 C126 609 186 657 265 657 C365 657 433 594 450 487 L479 487 L479 667 Z " />
<glyph glyph-name="scaron" unicode="&#x161;" horiz-adv-x="410" d="M324 621 L208 559 L93 621 L79 608 L197 472 L220 472 L337 608 L324 621 Z M345 403 L317 403 C315 382 311 376 301 376 C295 376 288 378 274 383 C237 398 213 403 184 403 C105 403 42 346 42 275 C42 242 58 211 86 189 C105 173 137 162 205 146 C262 133 268 131 285 122 C303 111 314 95 314 78 C314 44 272 17 219 17 C171 17 122 39 93 74 C76 96 69 115 66 146 L37 146 L37 0 L66 0 C66 17 71 26 82 26 C89 26 94 24 104 18 C136 -1 172 -10 212 -10 C307 -10 376 51 376 137 C376 186 348 221 292 241 C270 249 226 261 173 273 C129 282 108 299 108 324 C108 355 140 376 187 376 C225 376 264 361 290 337 C307 322 313 310 317 286 L345 286 L345 403 Z " />
<glyph glyph-name="Tcommaaccent" unicode="&#x162;" horiz-adv-x="670" d="M265 25 L166 25 L166 0 L504 0 L504 25 L405 25 L405 642 L425 642 C547 649 616 588 630 462 L659 462 L645 667 L25 667 L11 462 L40 462 C53 588 119 649 235 642 L265 642 L265 25 Z M330 -322 C406 -266 436 -219 436 -159 C436 -98 391 -50 334 -50 C291 -50 256 -80 256 -118 C256 -155 288 -185 326 -185 C353 -185 374 -173 388 -150 C395 -161 397 -169 397 -181 C397 -222 370 -260 313 -301 L330 -322 Z " />
<glyph glyph-name="tcommaaccent" unicode="&#x163;" horiz-adv-x="335" d="M77 368 L77 89 C77 22 112 -10 187 -10 C235 -10 279 7 304 36 C317 51 325 68 332 97 L301 102 C293 78 291 71 286 63 C275 47 256 37 237 37 C210 37 197 54 197 89 L197 368 L300 368 L300 393 L197 393 L197 564 L169 564 C134 481 74 415 4 384 L4 368 L77 368 Z M161 -292 C228 -243 255 -203 255 -150 C255 -94 213 -50 160 -50 C121 -50 89 -78 89 -112 C89 -146 118 -174 153 -174 C178 -174 197 -163 210 -141 C216 -152 218 -159 218 -169 C218 -205 195 -237 144 -272 L161 -292 Z " />
<glyph glyph-name="Tcaron" unicode="&#x164;" horiz-adv-x="670" d="M265 25 L166 25 L166 0 L504 0 L504 25 L405 25 L405 642 L425 642 C547 649 616 588 630 462 L659 462 L645 667 L25 667 L11 462 L40 462 C53 588 119 649 235 642 L265 642 L265 25 Z M492 847 L335 798 L178 847 L164 831 L318 727 L353 727 L506 831 L492 847 Z " />
<glyph glyph-name="tcaron" unicode="&#x165;" horiz-adv-x="371" d="M77 368 L77 89 C77 22 112 -10 187 -10 C235 -10 279 7 304 36 C317 51 325 68 332 97 L301 102 C293 78 291 71 286 63 C275 47 256 37 237 37 C210 37 197 54 197 89 L197 368 L300 368 L300 393 L197 393 L197 564 L169 564 C134 481 74 415 4 384 L4 368 L77 368 Z M271 462 C337 512 364 552 364 605 C364 661 322 705 269 705 C230 705 198 677 198 643 C198 609 227 581 262 581 C287 581 307 592 319 613 C325 603 327 596 327 586 C327 550 304 518 253 483 L271 462 Z " />
<glyph glyph-name="utilde" unicode="&#x169;" horiz-adv-x="579" d="M382 0 L575 0 L575 25 L502 25 L502 404 C456 396 422 393 336 393 L296 393 L296 368 L382 368 L382 171 C382 122 378 105 362 83 C341 54 300 33 264 33 C247 33 231 39 221 50 C211 60 209 69 209 110 L209 404 C163 396 130 393 43 393 L4 393 L4 368 L89 368 L89 133 C89 74 96 47 117 25 C138 2 173 -10 217 -10 C286 -10 330 11 382 69 L382 0 Z M179 495 C197 519 210 528 230 528 C247 528 275 521 300 511 C332 498 336 497 350 497 C386 497 421 527 450 581 L429 591 C416 569 401 558 384 558 C375 558 367 560 327 575 C296 586 283 589 267 589 C225 589 196 566 159 505 L179 495 Z " />
<glyph glyph-name="Umacron" unicode="&#x16a;" horiz-adv-x="736" d="M110 642 L110 213 C110 159 111 133 114 119 C120 90 136 65 161 45 C206 8 294 -17 382 -17 C468 -17 543 7 583 47 C621 85 630 117 630 213 L630 570 C629 635 636 642 689 642 L718 642 L718 667 L509 667 L509 642 L539 642 C594 642 601 635 600 570 L600 214 C600 138 593 106 569 75 C540 39 483 18 413 18 C349 18 301 38 273 75 C255 101 250 129 250 213 L250 642 L363 642 L363 667 L22 667 L22 642 L110 642 Z M228 807 L228 761 L553 761 L553 807 L228 807 Z " />
<glyph glyph-name="umacron" unicode="&#x16b;" horiz-adv-x="579" d="M382 0 L575 0 L575 25 L502 25 L502 404 C456 396 422 393 336 393 L296 393 L296 368 L382 368 L382 171 C382 122 378 105 362 83 C341 54 300 33 264 33 C247 33 231 39 221 50 C211 60 209 69 209 110 L209 404 C163 396 130 393 43 393 L4 393 L4 368 L89 368 L89 133 C89 74 96 47 117 25 C138 2 173 -10 217 -10 C286 -10 330 11 382 69 L382 0 Z M156 563 L156 516 L436 516 L436 563 L156 563 Z " />
<glyph glyph-name="ubreve" unicode="&#x16d;" horiz-adv-x="579" d="M382 0 L575 0 L575 25 L502 25 L502 404 C456 396 422 393 336 393 L296 393 L296 368 L382 368 L382 171 C382 122 378 105 362 83 C341 54 300 33 264 33 C247 33 231 39 221 50 C211 60 209 69 209 110 L209 404 C163 396 130 393 43 393 L4 393 L4 368 L89 368 L89 133 C89 74 96 47 117 25 C138 2 173 -10 217 -10 C286 -10 330 11 382 69 L382 0 Z M387 615 C364 571 336 552 292 552 C250 552 218 574 203 615 L176 615 C185 532 232 477 295 477 C357 477 401 530 411 615 L387 615 Z " />
<glyph glyph-name="Uring" unicode="&#x16e;" horiz-adv-x="736" d="M110 642 L110 213 C110 159 111 133 114 119 C120 90 136 65 161 45 C206 8 294 -17 382 -17 C468 -17 543 7 583 47 C621 85 630 117 630 213 L630 570 C629 635 636 642 689 642 L718 642 L718 667 L509 667 L509 642 L539 642 C594 642 601 635 600 570 L600 214 C600 138 593 106 569 75 C540 39 483 18 413 18 C349 18 301 38 273 75 C255 101 250 129 250 213 L250 642 L363 642 L363 667 L22 667 L22 642 L110 642 Z M408 877 C359 877 319 840 319 795 C319 747 358 710 408 710 C456 710 496 747 496 794 C496 840 457 877 408 877 L408 877 Z M408 838 C433 838 454 818 454 793 C454 769 433 749 408 749 C382 749 361 769 361 794 C361 818 382 838 408 838 L408 838 Z " />
<glyph glyph-name="uring" unicode="&#x16f;" horiz-adv-x="579" d="M382 0 L575 0 L575 25 L502 25 L502 404 C456 396 422 393 336 393 L296 393 L296 368 L382 368 L382 171 C382 122 378 105 362 83 C341 54 300 33 264 33 C247 33 231 39 221 50 C211 60 209 69 209 110 L209 404 C163 396 130 393 43 393 L4 393 L4 368 L89 368 L89 133 C89 74 96 47 117 25 C138 2 173 -10 217 -10 C286 -10 330 11 382 69 L382 0 Z M307 630 C258 630 218 591 218 545 C218 497 257 460 307 460 C356 460 395 497 395 544 C395 592 356 630 307 630 L307 630 Z M307 591 C332 591 353 570 353 544 C353 519 332 499 307 499 C281 499 260 519 260 544 C260 570 281 591 307 591 L307 591 Z " />
<glyph glyph-name="Uhungarumlaut" unicode="&#x170;" horiz-adv-x="736" d="M110 642 L110 213 C110 159 111 133 114 119 C120 90 136 65 161 45 C206 8 294 -17 382 -17 C468 -17 543 7 583 47 C621 85 630 117 630 213 L630 570 C629 635 636 642 689 642 L718 642 L718 667 L509 667 L509 642 L539 642 C594 642 601 635 600 570 L600 214 C600 138 593 106 569 75 C540 39 483 18 413 18 C349 18 301 38 273 75 C255 101 250 129 250 213 L250 642 L363 642 L363 667 L22 667 L22 642 L110 642 Z M366 846 L250 737 L259 726 L487 823 L487 846 L366 846 Z M581 846 L465 737 L474 726 L702 823 L702 846 L581 846 Z " />
<glyph glyph-name="uhungarumlaut" unicode="&#x171;" horiz-adv-x="579" d="M382 0 L575 0 L575 25 L502 25 L502 404 C456 396 422 393 336 393 L296 393 L296 368 L382 368 L382 171 C382 122 378 105 362 83 C341 54 300 33 264 33 C247 33 231 39 221 50 C211 60 209 69 209 110 L209 404 C163 396 130 393 43 393 L4 393 L4 368 L89 368 L89 133 C89 74 96 47 117 25 C138 2 173 -10 217 -10 C286 -10 330 11 382 69 L382 0 Z M259 621 L195 478 L208 471 L345 599 L345 621 L259 621 Z M409 621 L345 478 L359 471 L496 599 L496 621 L409 621 Z " />
<glyph glyph-name="Uogonek" unicode="&#x172;" horiz-adv-x="736" d="M586 -127 C563 -134 552 -136 533 -136 C488 -136 463 -117 463 -84 C463 -60 479 -35 508 -13 C618 67 631 91 630 213 L630 570 C629 635 636 642 689 642 L718 642 L718 667 L509 667 L509 642 L539 642 C594 642 601 635 600 570 L600 214 C600 138 593 106 569 75 C540 39 483 18 413 18 C349 18 301 38 273 75 C255 101 250 129 250 213 L250 642 L363 642 L363 667 L22 667 L22 642 L110 642 L110 213 C110 159 111 133 114 119 C120 90 136 65 161 45 C206 7 294 -17 383 -17 C411 -17 437 -14 464 -9 C406 -38 379 -69 379 -107 C379 -152 416 -178 479 -178 C518 -178 545 -172 586 -154 L586 -127 Z " />
<glyph glyph-name="uogonek" unicode="&#x173;" horiz-adv-x="579" d="M575 0 L575 25 L502 25 L502 404 C456 396 422 393 336 393 L296 393 L296 368 L382 368 L382 171 C382 122 378 105 362 83 C341 54 300 33 264 33 C247 33 231 39 221 50 C211 60 209 69 209 110 L209 404 C163 396 130 393 43 393 L4 393 L4 368 L89 368 L89 133 C89 74 96 47 117 25 C138 2 173 -10 217 -10 C286 -10 330 11 382 69 L382 0 L476 0 C395 -35 364 -64 364 -104 C364 -144 399 -169 456 -169 C495 -169 512 -165 563 -145 L563 -121 C540 -127 530 -129 510 -129 C468 -129 442 -112 442 -84 C442 -57 467 -30 519 0 L575 0 Z " />
<glyph glyph-name="Wcircumflex" unicode="&#x174;" horiz-adv-x="988" d="M678 642 L740 642 L740 667 L-2 667 L-2 642 L72 642 L344 -13 L369 -13 L514 292 L643 -13 L672 -13 L892 579 C910 628 927 641 971 642 L992 642 L992 667 L788 667 L788 642 L825 642 C860 642 869 637 869 620 C869 614 868 609 862 592 L715 192 L598 469 L678 642 Z M638 642 L581 510 L530 642 L638 642 Z M367 642 L496 333 L422 179 L231 642 L367 642 Z M372 726 L528 775 L685 726 L699 742 L546 846 L511 846 L358 742 L372 726 Z " />
<glyph glyph-name="Ycircumflex" unicode="&#x176;" horiz-adv-x="659" d="M256 25 L157 25 L157 0 L495 0 L495 25 L396 25 L396 307 L567 590 C590 633 601 640 647 642 L667 642 L667 667 L454 667 L454 642 L509 642 C540 642 547 639 547 626 C547 621 542 610 536 598 L388 351 L207 642 L315 642 L315 667 L-23 667 L-23 642 L44 642 L256 307 L256 25 Z M176 726 L332 775 L489 726 L503 742 L350 846 L315 846 L162 742 L176 726 Z " />
<glyph glyph-name="ycircumflex" unicode="&#x177;" horiz-adv-x="492" d="M231 2 L178 -126 C157 -178 142 -200 131 -200 C125 -200 120 -197 116 -191 C101 -169 82 -158 59 -158 C28 -158 2 -182 2 -211 C2 -245 32 -270 73 -270 C100 -270 124 -259 145 -237 C164 -218 174 -200 201 -139 L412 329 C427 362 439 369 479 368 L505 368 L505 393 L319 393 L319 368 L353 368 C380 368 387 364 387 350 C387 344 386 340 377 322 L298 145 L187 368 L240 368 L240 393 L-13 393 L-13 368 L41 368 L231 2 Z M141 472 L257 534 L372 472 L385 485 L268 621 L245 621 L128 485 L141 472 Z " />
<glyph glyph-name="Ydieresis" unicode="&#x178;" horiz-adv-x="659" d="M223 850 C189 850 161 822 161 789 C161 755 188 727 223 727 C257 727 284 755 284 789 C284 823 257 850 223 850 L223 850 Z M461 850 C427 850 399 822 399 789 C399 755 426 727 461 727 C495 727 522 755 522 789 C522 823 495 850 461 850 L461 850 Z M256 25 L157 25 L157 0 L495 0 L495 25 L396 25 L396 307 L567 590 C590 633 601 640 647 642 L667 642 L667 667 L454 667 L454 642 L509 642 C540 642 547 639 547 626 C547 621 542 610 536 598 L388 351 L207 642 L315 642 L315 667 L-23 667 L-23 642 L44 642 L256 307 L256 25 Z " />
<glyph glyph-name="Zacute" unicode="&#x179;" horiz-adv-x="619" d="M22 32 L22 0 L568 0 L575 213 L546 213 C518 83 435 17 307 25 L191 25 L568 648 L568 667 L73 667 L60 490 L89 490 C115 600 185 649 307 642 L391 642 L22 32 Z M412 846 L281 740 L292 726 L546 821 L546 846 L412 846 Z " />
<glyph glyph-name="zacute" unicode="&#x17a;" horiz-adv-x="473" d="M433 393 L61 393 L55 246 L81 246 C101 336 150 373 239 368 L286 368 L29 20 L29 0 L433 0 L444 163 L414 163 C391 66 334 20 241 25 L178 25 L433 373 L433 393 Z M302 621 L222 480 L239 471 L399 596 L399 621 L302 621 Z " />
<glyph glyph-name="Zdotaccent" unicode="&#x17b;" horiz-adv-x="619" d="M22 32 L22 0 L568 0 L575 213 L546 213 C518 83 435 17 307 25 L191 25 L568 648 L568 667 L73 667 L60 490 L89 490 C115 600 185 649 307 642 L391 642 L22 32 Z M328 850 C294 850 266 822 266 789 C266 755 293 727 328 727 C362 727 389 755 389 789 C389 823 362 850 328 850 L328 850 Z " />
<glyph glyph-name="zdotaccent" unicode="&#x17c;" horiz-adv-x="473" d="M433 393 L61 393 L55 246 L81 246 C101 336 150 373 239 368 L286 368 L29 20 L29 0 L433 0 L444 163 L414 163 C391 66 334 20 241 25 L178 25 L433 373 L433 393 Z M256 610 C222 610 194 583 194 549 C194 514 221 487 256 487 C290 487 317 515 317 549 C317 583 290 610 256 610 L256 610 Z " />
<glyph glyph-name="Zcaron" unicode="&#x17d;" horiz-adv-x="619" d="M485 847 L328 798 L171 847 L157 831 L311 727 L346 727 L499 831 L485 847 Z M22 32 L22 0 L568 0 L575 213 L546 213 C518 83 435 17 307 25 L191 25 L568 648 L568 667 L73 667 L60 490 L89 490 C115 600 185 649 307 642 L391 642 L22 32 Z " />
<glyph glyph-name="zcaron" unicode="&#x17e;" horiz-adv-x="473" d="M378 621 L263 559 L147 621 L134 608 L251 472 L275 472 L392 608 L378 621 Z M433 393 L61 393 L55 246 L81 246 C101 336 150 373 239 368 L286 368 L29 20 L29 0 L433 0 L444 163 L414 163 C391 66 334 20 241 25 L178 25 L433 373 L433 393 Z " />
<glyph glyph-name="florin" unicode="&#x192;" horiz-adv-x="550" d="M210 315 L132 -48 C108 -162 94 -200 70 -224 C55 -239 38 -247 20 -247 C5 -247 -6 -243 -6 -237 C-6 -235 -4 -233 -1 -230 C9 -221 13 -215 13 -206 C13 -187 -4 -173 -27 -173 C-51 -173 -69 -190 -69 -213 C-69 -244 -32 -268 18 -268 C77 -268 134 -233 174 -174 C214 -113 231 -64 258 62 L312 315 L413 315 L418 340 L318 340 L341 450 C372 593 413 659 473 659 C481 659 485 656 485 651 C485 648 483 645 479 643 C459 634 453 628 453 615 C453 594 473 578 497 578 C527 578 550 598 550 624 C550 657 516 680 468 680 C408 680 348 646 304 586 C261 528 244 480 215 340 L118 340 L113 315 L210 315 Z " />
<glyph glyph-name="uni01CD" unicode="&#x1cd;" horiz-adv-x="690" d="M404 179 L463 25 L369 25 L369 0 L697 0 L697 25 L620 25 L369 667 L334 667 L104 82 C86 31 77 24 27 25 L-11 25 L-11 0 L216 0 L216 25 L158 25 C130 25 121 29 121 39 C121 45 123 51 129 67 L173 179 L404 179 Z M393 204 L183 204 L288 469 L393 204 Z M511 847 L354 798 L197 847 L183 831 L336 727 L371 727 L524 831 L511 847 Z " />
<glyph glyph-name="uni01CE" unicode="&#x1ce;" horiz-adv-x="503" d="M481 56 C471 46 461 41 450 41 C432 41 427 50 427 81 L427 263 C427 326 423 341 400 362 C370 388 315 403 251 403 C151 403 73 359 73 302 C73 272 97 249 128 249 C162 249 191 272 191 299 C191 312 186 321 171 333 C162 342 159 346 159 350 C159 365 190 376 235 376 C271 376 294 368 305 353 C314 339 314 339 315 258 L315 233 C232 227 185 218 135 198 C70 172 34 131 34 84 C34 27 84 -10 159 -10 C220 -10 274 13 315 56 C336 17 369 -5 405 -5 C440 -5 473 11 500 40 L481 56 Z M315 156 C315 109 311 90 299 73 C284 53 260 42 231 42 C182 42 146 73 146 116 C146 175 204 205 315 206 L315 156 Z M391 621 L276 559 L161 621 L147 608 L264 472 L288 472 L405 608 L391 621 Z " />
<glyph glyph-name="uni01D3" unicode="&#x1d3;" horiz-adv-x="736" d="M110 642 L110 213 C110 159 111 133 114 119 C120 90 136 65 161 45 C206 8 294 -17 382 -17 C468 -17 543 7 583 47 C621 85 630 117 630 213 L630 570 C629 635 636 642 689 642 L718 642 L718 667 L509 667 L509 642 L539 642 C594 642 601 635 600 570 L600 214 C600 138 593 106 569 75 C540 39 483 18 413 18 C349 18 301 38 273 75 C255 101 250 129 250 213 L250 642 L363 642 L363 667 L22 667 L22 642 L110 642 Z M562 847 L406 798 L249 847 L235 831 L388 727 L423 727 L576 831 L562 847 Z " />
<glyph glyph-name="uni01D4" unicode="&#x1d4;" horiz-adv-x="579" d="M382 0 L575 0 L575 25 L502 25 L502 404 C456 396 422 393 336 393 L296 393 L296 368 L382 368 L382 171 C382 122 378 105 362 83 C341 54 300 33 264 33 C247 33 231 39 221 50 C211 60 209 69 209 110 L209 404 C163 396 130 393 43 393 L4 393 L4 368 L89 368 L89 133 C89 74 96 47 117 25 C138 2 173 -10 217 -10 C286 -10 330 11 382 69 L382 0 Z M424 621 L309 559 L193 621 L180 608 L297 472 L320 472 L437 608 L424 621 Z " />
<glyph glyph-name="Gcaron" unicode="&#x1e6;" horiz-adv-x="728" d="M622 667 L593 667 L559 635 C507 668 450 684 388 684 C308 684 227 654 163 602 C80 534 38 440 38 326 C38 127 173 -17 359 -17 C423 -17 496 4 551 37 C579 55 601 72 639 109 L639 224 L719 224 L719 249 L390 249 L390 224 L499 224 L499 109 C499 52 439 10 357 10 C327 10 299 15 277 25 C240 40 223 66 216 116 C210 150 205 267 205 350 C205 490 215 560 240 596 C266 635 319 657 385 657 C448 657 508 636 539 602 C567 572 581 540 593 480 L622 480 L622 667 Z M544 847 L387 798 L230 847 L216 831 L370 727 L405 727 L558 831 L544 847 Z " />
<glyph glyph-name="gcaron" unicode="&#x1e7;" horiz-adv-x="543" d="M239 35 L146 35 L136 35 C95 35 79 43 79 64 C79 89 110 116 152 127 C188 112 221 106 259 106 C376 106 459 168 459 257 C459 282 453 304 439 327 C439 339 444 345 451 345 C455 345 457 344 460 340 C471 328 482 323 497 323 C519 323 537 340 537 363 C537 389 517 408 489 408 C458 408 437 389 422 350 C376 387 329 403 265 403 C151 403 66 339 66 253 C66 208 86 172 129 140 C71 124 30 76 30 23 C30 -25 58 -59 109 -73 C58 -86 32 -114 32 -154 C32 -222 126 -271 255 -271 C409 -271 507 -202 507 -93 C507 -53 492 -19 465 4 C437 27 404 36 344 36 L239 35 Z M183 292 C183 327 187 341 198 354 C211 368 235 376 262 376 C289 376 313 368 326 354 C337 341 341 327 341 292 L341 217 C341 182 337 168 326 155 C312 141 290 133 262 133 C234 133 212 141 198 155 C187 168 183 182 183 217 L183 292 Z M385 -81 C422 -81 440 -98 440 -132 C440 -196 365 -244 263 -244 C177 -244 121 -205 121 -146 C121 -122 130 -102 151 -81 L385 -81 Z M388 621 L273 559 L158 621 L144 608 L261 472 L285 472 L402 608 L388 621 Z " />
<glyph glyph-name="Scommaaccent" unicode="&#x218;" horiz-adv-x="583" d="M479 667 L450 667 L419 636 C367 670 323 684 270 684 C144 684 47 593 47 475 C47 415 73 364 120 331 C146 312 146 312 274 275 C378 246 384 244 406 230 C437 210 456 176 456 138 C456 67 385 10 297 10 C191 10 108 77 79 186 L50 186 L50 0 L78 0 L115 42 C180 1 236 -17 299 -17 C438 -17 541 79 541 207 C541 282 501 352 443 381 C413 397 377 407 243 442 C160 464 126 494 126 546 C126 609 186 657 265 657 C365 657 433 594 450 487 L479 487 L479 667 Z M274 -322 C351 -265 381 -219 381 -159 C381 -98 336 -50 278 -50 C235 -50 200 -80 200 -118 C200 -155 232 -185 270 -185 C297 -185 318 -173 332 -150 C340 -161 342 -169 342 -181 C342 -222 315 -260 257 -301 L274 -322 Z " />
<glyph glyph-name="scommaaccent" unicode="&#x219;" horiz-adv-x="410" d="M345 403 L317 403 C315 382 311 376 301 376 C295 376 288 378 274 383 C237 398 213 403 184 403 C105 403 42 346 42 275 C42 242 58 211 86 189 C105 173 137 162 205 146 C262 133 268 131 285 122 C303 111 314 95 314 78 C314 44 272 17 219 17 C171 17 122 39 93 74 C76 96 69 115 66 146 L37 146 L37 0 L66 0 C66 17 71 26 82 26 C89 26 94 24 104 18 C136 -1 172 -10 212 -10 C307 -10 376 51 376 137 C376 186 348 221 292 241 C270 249 226 261 173 273 C129 282 108 299 108 324 C108 355 140 376 187 376 C225 376 264 361 290 337 C307 322 313 310 317 286 L345 286 L345 403 Z M204 -292 C271 -242 297 -203 297 -150 C297 -94 256 -50 203 -50 C164 -50 132 -78 132 -112 C132 -146 161 -174 196 -174 C221 -174 240 -163 253 -141 C258 -152 260 -159 260 -169 C260 -205 237 -237 187 -272 L204 -292 Z " />
<glyph glyph-name="uni021A" unicode="&#x21a;" horiz-adv-x="670" d="M265 25 L166 25 L166 0 L504 0 L504 25 L405 25 L405 642 L425 642 C547 649 616 588 630 462 L659 462 L645 667 L25 667 L11 462 L40 462 C53 588 119 649 235 642 L265 642 L265 25 Z M330 -322 C406 -266 436 -219 436 -159 C436 -98 391 -50 334 -50 C291 -50 256 -80 256 -118 C256 -155 288 -185 326 -185 C353 -185 374 -173 388 -150 C395 -161 397 -169 397 -181 C397 -222 370 -260 313 -301 L330 -322 Z " />
<glyph glyph-name="uni021B" unicode="&#x21b;" horiz-adv-x="335" d="M77 368 L77 89 C77 22 112 -10 187 -10 C235 -10 279 7 304 36 C317 51 325 68 332 97 L301 102 C293 78 291 71 286 63 C275 47 256 37 237 37 C210 37 197 54 197 89 L197 368 L300 368 L300 393 L197 393 L197 564 L169 564 C134 481 74 415 4 384 L4 368 L77 368 Z M161 -292 C228 -243 255 -203 255 -150 C255 -94 213 -50 160 -50 C121 -50 89 -78 89 -112 C89 -146 118 -174 153 -174 C178 -174 197 -163 210 -141 C216 -152 218 -159 218 -169 C218 -205 195 -237 144 -272 L161 -292 Z " />
<glyph glyph-name="circumflex" unicode="&#x2c6;" horiz-adv-x="524" d="M146 472 L262 534 L377 472 L391 485 L274 621 L250 621 L133 485 L146 472 Z " />
<glyph glyph-name="caron" unicode="&#x2c7;" horiz-adv-x="524" d="M377 621 L262 559 L146 621 L133 608 L250 472 L274 472 L391 608 L377 621 Z " />
<glyph glyph-name="uni02C9" unicode="&#x2c9;" horiz-adv-x="347" d="M33 563 L33 516 L313 516 L313 563 L33 563 Z " />
<glyph glyph-name="breve" unicode="&#x2d8;" horiz-adv-x="527" d="M356 615 C334 571 306 552 262 552 C219 552 188 574 172 615 L146 615 C155 532 201 477 264 477 C326 477 371 530 381 615 L356 615 Z " />
<glyph glyph-name="dotaccent" unicode="&#x2d9;" horiz-adv-x="538" d="M269 610 C235 610 207 583 207 549 C207 514 234 487 269 487 C303 487 330 515 330 549 C330 583 303 610 269 610 L269 610 Z " />
<glyph glyph-name="ring" unicode="&#x2da;" horiz-adv-x="532" d="M266 630 C218 630 178 591 178 545 C178 497 217 460 266 460 C315 460 354 497 354 544 C354 592 315 630 266 630 L266 630 Z M266 591 C291 591 312 570 312 544 C312 519 292 499 266 499 C240 499 220 519 220 544 C220 570 241 591 266 591 L266 591 Z " />
<glyph glyph-name="ogonek" unicode="&#x2db;" horiz-adv-x="550" d="M436 0 C354 -36 324 -64 324 -104 C324 -144 359 -169 416 -169 C455 -169 472 -165 523 -145 L523 -121 C500 -127 490 -129 470 -129 C428 -129 402 -112 402 -84 C402 -57 427 -29 479 0 L436 0 Z " />
<glyph glyph-name="tilde" unicode="&#x2dc;" horiz-adv-x="521" d="M135 495 C153 519 166 528 186 528 C203 528 231 521 256 511 C288 498 292 497 306 497 C342 497 377 527 406 581 L385 591 C372 569 357 558 340 558 C331 558 323 560 283 575 C252 586 239 589 223 589 C181 589 152 566 115 505 L135 495 Z " />
<glyph glyph-name="hungarumlaut" unicode="&#x2dd;" horiz-adv-x="535" d="M222 621 L158 478 L171 471 L308 599 L308 621 L222 621 Z M372 621 L308 478 L322 471 L459 599 L459 621 L372 621 Z " />
<glyph glyph-name="Wdieresis" unicode="&#x1e84;" horiz-adv-x="988" d="M678 642 L740 642 L740 667 L-2 667 L-2 642 L72 642 L344 -13 L369 -13 L514 292 L643 -13 L672 -13 L892 579 C910 628 927 641 971 642 L992 642 L992 667 L788 667 L788 642 L825 642 C860 642 869 637 869 620 C869 614 868 609 862 592 L715 192 L598 469 L678 642 Z M638 642 L581 510 L530 642 L638 642 Z M367 642 L496 333 L422 179 L231 642 L367 642 Z M391 850 C357 850 329 822 329 789 C329 755 356 727 391 727 C425 727 452 755 452 789 C452 823 425 850 391 850 L391 850 Z M629 850 C595 850 567 822 567 789 C567 755 594 727 629 727 C662 727 690 755 690 789 C690 823 663 850 629 850 L629 850 Z " />
<glyph glyph-name="uni2011" unicode="&#x2011;" horiz-adv-x="237" d="M0 250 L0 167 L237 167 L237 250 L0 250 Z " />
<glyph glyph-name="figuredash" unicode="&#x2012;" horiz-adv-x="550" d="M38 250 L38 167 L512 167 L512 250 L38 250 Z " />
<glyph glyph-name="endash" unicode="&#x2013;" horiz-adv-x="550" d="M38 250 L38 167 L512 167 L512 250 L38 250 Z " />
<glyph glyph-name="emdash" unicode="&#x2014;" horiz-adv-x="722" d="M0 250 L0 167 L722 167 L722 250 L0 250 Z " />
<glyph glyph-name="afii00208" unicode="&#x2015;" horiz-adv-x="722" d="M0 250 L0 167 L722 167 L722 250 L0 250 Z " />
<glyph glyph-name="quoteleft" unicode="&#x2018;" horiz-adv-x="290" d="M172 680 C82 613 44 556 44 485 C44 416 94 362 159 362 C207 362 246 396 246 438 C246 479 210 513 167 513 C138 513 114 499 98 474 C89 487 86 497 86 511 C86 562 126 618 191 659 L172 680 Z " />
<glyph glyph-name="quoteright" unicode="&#x2019;" horiz-adv-x="291" d="M118 358 C210 425 247 481 247 552 C247 621 197 674 132 674 C83 674 44 640 44 599 C44 559 80 525 123 525 C153 525 177 539 192 565 C201 551 204 542 204 528 C204 476 164 420 100 379 L118 358 Z " />
<glyph glyph-name="quotesinglbase" unicode="&#x201a;" horiz-adv-x="291" d="M118 -172 C209 -105 247 -48 247 24 C247 93 197 147 132 147 C83 147 44 113 44 70 C44 29 80 -5 123 -5 C153 -5 177 9 192 35 C201 21 204 12 204 -3 C204 -54 164 -111 100 -151 L118 -172 Z " />
<glyph glyph-name="quotedblleft" unicode="&#x201c;" horiz-adv-x="549" d="M172 680 C81 613 44 556 44 485 C44 416 94 362 159 362 C208 362 247 396 247 438 C247 479 211 513 168 513 C138 513 113 499 98 474 C90 488 87 497 87 511 C87 562 126 619 191 659 L172 680 Z M431 680 C339 612 302 556 302 485 C302 416 352 362 417 362 C466 362 505 396 505 438 C505 479 469 513 426 513 C396 513 372 499 356 474 C348 488 345 497 345 511 C345 562 384 617 449 659 L431 680 Z " />
<glyph glyph-name="quotedblright" unicode="&#x201d;" horiz-adv-x="551" d="M118 358 C209 425 247 482 247 552 C247 621 197 674 132 674 C83 674 44 640 44 599 C44 559 80 525 123 525 C153 525 177 539 192 565 C201 551 204 542 204 528 C204 476 164 420 100 379 L118 358 Z M378 358 C469 425 507 482 507 552 C507 621 457 674 392 674 C343 674 304 640 304 599 C304 559 340 525 383 525 C413 525 438 539 452 565 C461 551 464 542 464 528 C464 476 424 419 360 379 L378 358 Z " />
<glyph glyph-name="quotedblbase" unicode="&#x201e;" horiz-adv-x="548" d="M118 -172 C209 -105 247 -47 247 24 C247 93 197 147 132 147 C83 147 44 113 44 70 C44 29 80 -5 123 -5 C153 -5 177 9 192 35 C201 21 204 12 204 -3 C204 -54 164 -111 100 -151 L118 -172 Z M376 -172 C417 -142 435 -126 454 -103 C486 -64 504 -19 504 24 C504 93 454 147 389 147 C341 147 302 113 302 70 C302 29 338 -5 381 -5 C411 -5 434 9 450 35 C458 21 461 12 461 -3 C461 -54 421 -111 357 -151 L376 -172 Z " />
<glyph glyph-name="dagger" unicode="&#x2020;" horiz-adv-x="550" d="M289 370 C343 530 354 569 354 605 C354 648 322 680 279 680 C236 680 206 650 206 607 C206 583 213 551 230 493 L252 418 C254 412 259 395 265 370 C179 405 118 423 85 423 C44 423 11 392 11 353 C11 316 43 288 87 288 C111 288 120 290 182 312 C242 333 242 333 266 342 C235 218 205 20 205 -61 C205 -140 237 -193 285 -193 C328 -193 358 -147 358 -83 C358 -5 338 116 288 342 C365 311 436 290 462 290 C508 290 538 316 538 356 C538 396 507 423 461 423 C433 423 433 423 317 380 L289 370 Z " />
<glyph glyph-name="daggerdbl" unicode="&#x2021;" horiz-adv-x="550" d="M249 42 C196 -74 194 -81 194 -119 C194 -162 224 -193 266 -193 C310 -193 343 -160 343 -115 C343 -90 343 -90 316 -7 C298 51 298 51 292 67 C384 33 437 18 463 18 C508 18 538 44 538 83 C538 123 507 150 461 150 C433 150 433 150 317 108 L292 98 C295 134 317 209 338 254 C314 306 301 347 293 401 C370 371 434 352 462 352 C508 352 538 378 538 417 C538 457 507 484 461 484 C438 484 419 479 374 463 C353 455 328 446 292 433 C335 540 343 569 343 603 C343 649 315 680 271 680 C226 680 195 649 195 604 C195 572 198 563 237 482 L261 433 C176 467 117 484 85 484 C44 484 11 453 11 414 C11 377 43 349 87 349 C111 349 121 352 182 373 C240 394 240 394 261 401 C256 355 245 318 219 254 C239 206 255 147 261 100 C118 150 118 150 84 150 C44 150 11 119 11 80 C11 43 43 15 87 15 C113 15 143 24 261 67 L249 42 Z " />
<glyph glyph-name="bullet" unicode="&#x2022;" horiz-adv-x="733" d="M368 480 C282 480 215 418 215 340 C215 263 283 200 366 200 C450 200 517 263 517 340 C517 417 450 480 368 480 L368 480 Z " />
<glyph glyph-name="ellipsis" unicode="&#x2026;" horiz-adv-x="858" d="M144 147 C97 147 59 113 59 71 C59 27 96 -7 144 -7 C190 -7 228 27 228 70 C228 113 191 147 144 147 L144 147 Z M430 147 C383 147 345 113 345 71 C345 27 382 -7 430 -7 C476 -7 514 27 514 70 C514 113 477 147 430 147 L430 147 Z M716 147 C669 147 631 113 631 71 C631 27 668 -7 716 -7 C762 -7 800 27 800 70 C800 113 763 147 716 147 L716 147 Z " />
<glyph glyph-name="perthousand" unicode="&#x2030;" horiz-adv-x="1158" d="M186 650 C101 650 30 574 30 483 C30 392 101 316 186 316 C270 316 341 392 341 481 C341 574 271 650 186 650 L186 650 Z M186 628 C210 628 229 617 236 598 C244 576 249 530 249 484 C249 440 243 391 236 368 C229 349 211 338 185 338 C160 338 144 348 136 368 C128 391 122 436 122 483 C122 530 127 575 136 598 C144 618 160 628 186 628 L186 628 Z M573 643 L532 643 L215 0 L257 0 L573 643 Z M603 327 C518 327 447 251 447 161 C447 70 518 -6 603 -6 C687 -6 758 70 758 159 C758 251 688 327 603 327 L603 327 Z M603 305 C627 305 646 294 653 275 C661 253 666 207 666 161 C666 118 660 69 653 46 C646 27 628 16 602 16 C577 16 561 26 553 46 C545 68 539 113 539 160 C539 208 544 252 553 275 C561 295 577 305 603 305 L603 305 Z M974 327 C889 327 818 251 818 161 C818 70 889 -6 974 -6 C1058 -6 1129 70 1129 159 C1129 251 1059 327 974 327 L974 327 Z M974 305 C998 305 1017 294 1024 275 C1032 253 1037 207 1037 161 C1037 118 1031 69 1024 46 C1017 27 999 16 973 16 C948 16 932 26 924 46 C916 68 910 113 910 160 C910 208 915 252 924 275 C932 295 948 305 974 305 L974 305 Z " />
<glyph glyph-name="guilsinglleft" unicode="&#x2039;" horiz-adv-x="271" d="M44 213 L134 113 L220 113 L134 213 L220 303 L134 303 L44 213 Z " />
<glyph glyph-name="guilsinglright" unicode="&#x203a;" horiz-adv-x="271" d="M227 203 L137 303 L51 303 L137 203 L51 113 L137 113 L227 203 Z " />
<glyph glyph-name="uni203E" unicode="&#x203e;" horiz-adv-x="500" d="M0 847 L0 807 L500 807 L500 847 L0 847 Z " />
<glyph glyph-name="fraction" unicode="&#x2044;" horiz-adv-x="120" d="M241 643 L196 643 L-121 0 L-75 0 L241 643 Z " />
<glyph glyph-name="franc" unicode="&#x20a3;" horiz-adv-x="903" d="M114 25 L26 25 L26 0 L380 0 L380 25 L254 25 L254 326 L302 326 C410 325 442 297 446 197 L475 197 L475 469 L446 469 C446 384 405 349 305 351 L254 351 L254 642 L380 642 C495 649 566 592 590 474 L619 474 L608 667 L26 667 L26 642 L114 642 L114 25 Z M586 25 L513 25 L513 0 L803 0 L803 25 L706 25 L706 179 C706 241 722 279 765 317 C781 332 808 346 819 346 C826 346 830 343 830 338 C830 335 829 333 825 331 C808 319 802 310 802 295 C802 264 830 240 867 240 C907 240 936 267 936 304 C936 349 896 382 841 382 C788 382 736 350 706 297 L706 383 C662 375 630 372 543 372 L513 372 L513 347 L586 347 L586 25 Z " />
<glyph glyph-name="Euro" unicode="&#x20ac;" horiz-adv-x="726" d="M265 386 C267 484 272 518 290 562 C315 622 375 657 455 657 C559 657 623 604 651 493 L680 493 L672 667 L643 667 L623 626 C578 665 522 684 452 684 C282 684 130 554 102 386 L55 386 L38 350 L98 350 C97 343 97 338 97 321 L97 317 L55 317 L38 281 L99 281 C116 108 262 -17 448 -17 C518 -17 565 0 620 48 L650 0 L679 0 L688 186 L659 186 C621 74 540 10 437 10 C367 10 314 40 290 93 C269 139 264 177 264 281 L491 281 L508 317 L264 317 L264 323 L264 347 L264 350 L524 350 L541 386 L265 386 Z " />
<glyph glyph-name="trademark" unicode="&#x2122;" horiz-adv-x="949" d="M165 309 L107 309 L107 287 L323 287 L323 309 L256 309 L256 645 L271 645 C343 649 382 615 389 545 L415 545 L406 667 L24 667 L15 545 L41 545 C47 615 84 649 152 645 L165 645 L165 309 Z M480 645 L480 345 C480 311 479 309 449 309 L428 309 L428 287 L560 287 L560 309 L538 309 C507 309 506 311 506 345 L506 623 L624 287 L645 287 L770 619 L770 309 L703 309 L703 287 L913 287 L913 309 L861 309 L861 645 L913 645 L913 667 L755 667 L671 446 L596 667 L428 667 L428 645 L480 645 Z " />
<glyph glyph-name="uni2126" unicode="&#x2126;" horiz-adv-x="768" d="M326 0 L308 155 C230 199 180 288 180 382 C180 434 195 493 221 540 C257 605 317 642 385 642 C453 642 513 605 549 540 C575 493 590 434 590 382 C590 288 540 199 462 155 L444 0 L736 0 L736 153 L712 153 C704 108 684 90 643 90 L497 90 L500 128 C535 141 557 151 580 166 C657 215 702 296 702 382 C702 449 673 522 625 578 C564 648 480 686 385 686 C290 686 206 648 145 578 C97 522 68 449 68 382 C68 296 113 215 190 166 C213 151 235 141 270 128 L273 90 L127 90 C86 90 66 108 58 153 L34 153 L34 0 L326 0 Z " />
<glyph glyph-name="partialdiff" unicode="&#x2202;" horiz-adv-x="494" d="M107 673 C152 697 184 706 219 706 C321 706 379 611 379 447 C379 418 377 394 372 346 C308 396 272 412 221 412 C172 412 131 394 95 355 C51 309 26 246 26 184 C26 76 109 -10 213 -10 C282 -10 341 22 383 84 C429 152 462 286 462 402 C462 519 429 610 360 681 C312 730 259 753 195 753 C156 753 121 745 66 724 L107 673 Z M366 312 C350 201 340 158 314 106 C288 54 245 21 201 21 C146 21 113 73 113 159 C113 273 180 367 261 367 C299 367 324 354 366 312 L366 312 Z " />
<glyph glyph-name="Delta" unicode="&#x2206;" horiz-adv-x="612" d="M6 0 L608 0 L327 688 L6 0 Z M77 51 L290 509 L479 51 L77 51 Z " />
<glyph glyph-name="product" unicode="&#x220f;" horiz-adv-x="823" d="M25 -124 L315 -124 L315 -98 L312 -98 C242 -94 221 -67 224 18 L224 594 C224 656 228 677 242 690 C260 707 272 708 413 708 C556 708 568 707 586 690 C600 677 604 656 604 594 L604 18 C607 -67 586 -94 516 -98 L513 -98 L513 -124 L803 -124 L803 -98 L800 -98 C730 -94 709 -67 712 18 L712 609 C709 694 730 721 800 725 L803 725 L803 751 L25 751 L25 725 L28 725 C98 721 119 694 116 609 L116 18 C119 -67 98 -94 28 -98 L25 -98 L25 -124 Z " />
<glyph glyph-name="summation" unicode="&#x2211;" horiz-adv-x="713" d="M176 711 L444 711 C560 710 590 688 606 587 L632 587 L622 752 L23 752 L256 285 L14 -123 L641 -123 L695 87 L669 87 C639 7 605 -12 491 -11 L163 -11 L364 341 L176 711 Z " />
<glyph glyph-name="minus" unicode="&#x2212;" horiz-adv-x="550" d="M49 340 L49 307 L501 307 L501 340 L49 340 Z " />
<glyph glyph-name="uni2215" unicode="&#x2215;" horiz-adv-x="120" d="M241 643 L196 643 L-121 0 L-75 0 L241 643 Z " />
<glyph glyph-name="uni2219" unicode="&#x2219;" horiz-adv-x="286" d="M144 280 C97 280 59 246 59 204 C59 161 96 127 144 127 C190 127 228 161 228 204 C228 246 191 280 144 280 L144 280 Z " />
<glyph glyph-name="radical" unicode="&#x221a;" horiz-adv-x="549" d="M363 -35 L515 908 L480 913 L353 123 L156 520 L10 449 L26 414 L121 461 L363 -35 Z " />
<glyph glyph-name="infinity" unicode="&#x221e;" horiz-adv-x="713" d="M357 227 C415 156 485 115 548 115 C631 115 688 176 688 266 C688 354 629 414 543 414 C476 414 412 376 357 303 C300 375 234 414 171 414 C86 414 26 351 26 263 C26 176 84 115 167 115 C224 115 281 142 327 192 L357 227 Z M391 264 C434 325 493 362 546 362 C600 362 638 321 638 264 C638 205 603 167 549 167 C495 167 461 188 391 264 L391 264 Z M324 266 C275 203 216 167 163 167 C111 167 76 207 76 266 C76 323 113 362 167 362 C218 362 258 337 324 266 L324 266 Z " />
<glyph glyph-name="integral" unicode="&#x222b;" horiz-adv-x="274" d="M180 576 C180 653 179 691 176 746 C174 774 173 800 173 815 C173 855 184 878 202 878 C208 878 213 876 215 872 C232 845 239 839 256 839 C276 839 291 853 291 871 C291 898 267 916 231 916 C186 916 152 887 138 838 C123 784 113 682 113 577 L113 232 C113 160 114 124 117 63 C119 34 120 4 120 -12 C120 -47 108 -70 89 -70 C81 -70 74 -65 68 -52 C59 -35 51 -30 37 -30 C17 -30 2 -44 2 -63 C2 -89 26 -107 62 -107 C107 -107 141 -78 155 -29 C170 25 180 126 180 232 L180 576 Z " />
<glyph glyph-name="approxequal" unicode="&#x2248;" horiz-adv-x="549" d="M489 251 C444 199 423 187 384 187 C365 187 354 190 285 211 C212 234 188 239 160 239 C101 239 54 211 14 155 L57 121 C103 174 120 184 159 184 C180 184 180 184 271 157 C350 133 354 132 385 132 C449 132 496 160 527 217 L489 251 Z M489 408 C443 356 423 344 384 344 C365 344 354 347 285 368 C212 391 188 396 160 396 C101 396 54 369 14 312 L57 278 C103 331 119 341 159 341 C180 341 180 341 271 314 C350 290 354 289 385 289 C449 289 496 317 527 374 L489 408 Z " />
<glyph glyph-name="notequal" unicode="&#x2260;" horiz-adv-x="549" d="M187 142 L115 -1 L161 -25 L246 142 L540 142 L540 197 L273 197 L344 336 L540 336 L540 391 L371 391 L439 525 L392 549 L312 391 L15 391 L15 336 L285 336 L215 197 L15 197 L15 142 L187 142 Z " />
<glyph glyph-name="lessequal" unicode="&#x2264;" horiz-adv-x="549" d="M526 55 L29 55 L29 0 L526 0 L526 55 Z M526 639 L29 405 L29 350 L526 117 L526 179 L108 378 L526 577 L526 639 Z " />
<glyph glyph-name="greaterequal" unicode="&#x2265;" horiz-adv-x="549" d="M526 55 L29 55 L29 0 L526 0 L526 55 Z M29 639 L29 577 L447 378 L29 179 L29 117 L526 350 L526 405 L29 639 Z " />
<glyph glyph-name="lozenge" unicode="&#x25ca;" horiz-adv-x="494" d="M209 0 L269 -1 L466 374 L277 740 L214 740 L18 377 L209 0 Z M240 58 L81 376 L245 683 L402 373 L240 58 Z " />
<glyph glyph-name="fi" unicode="&#xfb01;" horiz-adv-x="596" d="M208 393 L208 555 C208 618 247 647 333 647 C381 647 415 639 415 628 C415 624 412 621 401 613 C382 598 375 587 375 567 C375 530 403 503 441 503 C479 503 507 530 507 566 C507 626 430 674 333 674 C254 674 181 643 137 589 C102 547 88 499 88 426 L88 393 L15 393 L15 368 L88 368 L88 25 L15 25 L15 0 L279 0 L279 25 L208 25 L208 368 L394 368 L394 25 L323 25 L323 0 L587 0 L587 25 L514 25 L514 404 C468 396 434 393 347 393 L208 393 Z " />
<glyph glyph-name="fl" unicode="&#xfb02;" horiz-adv-x="591" d="M514 678 C475 671 449 668 402 668 C377 672 360 674 338 674 C253 674 180 644 136 591 C103 549 88 500 88 426 L88 393 L15 393 L15 368 L88 368 L88 25 L15 25 L15 0 L279 0 L279 25 L208 25 L208 368 L320 368 L320 393 L208 393 L208 555 C208 619 241 647 315 647 C351 647 377 638 386 622 C393 610 394 605 394 560 L394 25 L323 25 L323 0 L587 0 L587 25 L514 25 L514 678 Z " />
</font>
</svg>
