<?xml version="1.0" standalone="no"?>
<!DOCTYPE svg PUBLIC "-//W3C//DTD SVG 1.1//EN" "http://www.w3.org/Graphics/SVG/1.1/DTD/svg11.dtd" >
<svg xmlns="http://www.w3.org/2000/svg">
<metadata>
Created by FontPrep 20130207 at Wed Nov 23 14:29:05 2016
 By Tina Muller
Copyright (c) 2016 by Enrique Hernandez Vasquez. All rights reserved.
</metadata>
<defs>
<font id="c479b139dab46cf9b09cef56a4114719" horiz-adv-x='1024' >
  <font-face 
    font-family="IsidoraAlt-Medium"
    font-weight="500"
    font-stretch="normal"
    units-per-em="2048"
    panose-1="0 0 6 0 0 0 0 0 0 0"
    ascent="1638"
    descent="-410"
    x-height="1024"
    cap-height="1331"
    bbox="-289 -717 2636 1829.02"
    underline-thickness="102"
    underline-position="-102"
    unicode-range="U+0020-FB02"
  />
<missing-glyph horiz-adv-x="1177" 
d="M784 -289h-391v-78h166l-166 -110v-78h391v78h-239l164 110h75v78zM707 -45v-111h-236v111h236zM784 33h-391v-266h391v266zM784 440h-235v-133h80v55h78v-110h-236v188h-78v-266h391v266zM784 727h-77v-156h-314v-79h391v235zM784 868h-391v-77h156v-89h-156v-75h236
v164h155v77zM549 1096v-84h-78v84h78zM629 1178h-236v-246h391v80h-155v166zM784 1481h-389v-78h154v-88h-156v-78h391v78h-155v88h155v78zM965 1638v-2355h-746v2355h746z" />
    <glyph glyph-name="fi" unicode="fi" horiz-adv-x="1069" 
d="M823 1120q-49 0 -84 35t-34 84q0 49 34 84q35 35 84 35t84 -35t35 -84t-35 -84t-84 -35zM750 158v743h-394v-1051q0 -80 -42 -131t-114 -51t-102 27l-6 10l29 98l10 4q14 -14 35 -14q47 0 47 101v1007h-172v123h172v41q0 176 88 264t223 88q74 0 138 -35l4 -10l-48 -98
l-10 -4q-41 20 -82 20q-170 0 -170 -225v-41h537v-823q0 -100 47 -101q20 0 35 15l10 -4l29 -99q-22 -37 -102 -37q-78 -1 -120 51t-42 132z" />
    <glyph glyph-name="fl" unicode="fl" horiz-adv-x="1089" 
d="M766 158v1038q-38 96 -208 94q-83 0 -142 -56t-60 -169v-41h322v-123h-322v-1051q0 -80 -42 -131t-114 -51t-102 27l-6 10l29 98l10 4q14 -14 35 -14q47 0 47 101v1007h-172v123h172v41q0 170 101 261t259 91q158 1 247 -65t89 -174v-977q0 -100 47 -101q20 0 35 15
l10 -4l29 -99q-22 -37 -101 -37q-79 -1 -121 51t-42 132z" />
    <glyph glyph-name=".notdef" horiz-adv-x="1177" 
d="M784 -289h-391v-78h166l-166 -110v-78h391v78h-239l164 110h75v78zM707 -45v-111h-236v111h236zM784 33h-391v-266h391v266zM784 440h-235v-133h80v55h78v-110h-236v188h-78v-266h391v266zM784 727h-77v-156h-314v-79h391v235zM784 868h-391v-77h156v-89h-156v-75h236
v164h155v77zM549 1096v-84h-78v84h78zM629 1178h-236v-246h391v80h-155v166zM784 1481h-389v-78h154v-88h-156v-78h391v78h-155v88h155v78zM965 1638v-2355h-746v2355h746z" />
    <glyph glyph-name=".null" horiz-adv-x="0" 
 />
    <glyph glyph-name="nonmarkingreturn" horiz-adv-x="681" 
 />
    <glyph glyph-name="space" unicode=" " horiz-adv-x="507" 
 />
    <glyph glyph-name="exclam" unicode="!" horiz-adv-x="473" 
d="M236 188q50 0 84 -34t34 -84q0 -49 -35 -84t-83 -35t-84 35q-35 35 -35 84q0 50 35 84t84 34zM152 1325l8 6h151l8 -8l-20 -1004l-12 -10h-103l-8 10z" />
    <glyph glyph-name="quotedbl" unicode="&#x22;" horiz-adv-x="630" 
d="M397 838l-32 493h147l-33 -493h-82zM152 838l-33 493h147l-33 -493h-81z" />
    <glyph glyph-name="numbersign" unicode="#" horiz-adv-x="1191" 
d="M457 500h272l45 331h-272zM262 0l53 377h-245l16 123h246l45 331h-244l17 123h245l51 375h125l-51 -375h273l51 375h125l-51 -375h204l-16 -123h-207l-45 -331h205l-19 -123h-202l-54 -377h-125l54 377h-273l-53 -377h-125z" />
    <glyph glyph-name="dollar" unicode="$" horiz-adv-x="907" 
d="M518 -20h-127v155q-197 27 -317 182v11l92 75h10q88 -143 275 -143q98 0 160 44q63 44 63 106q1 105 -126 165q-88 44 -151 62q-212 80 -259 180q-22 47 -21 107q1 110 75 186t199 90v152h127v-154q176 -25 260 -149v-11l-92 -75h-10q-84 113 -236 112q-82 0 -129 -38
t-47 -98t47 -97q47 -38 189 -94t207 -103q112 -90 113 -216t-84 -203t-218 -91v-155z" />
    <glyph glyph-name="percent" unicode="%" horiz-adv-x="1597" 
d="M1227 94q78 0 124 73t46 193t-46 194q-46 73 -124 73t-124 -73t-46 -194q0 -122 46 -194t124 -72zM1227 -25q-135 -1 -217 105t-82 280t82 280t217 105q135 0 217 -105q82 -106 82 -280t-82 -280t-217 -105zM373 705q78 1 124 73t46 193t-46 193t-124 73q-78 0 -124 -73
q-46 -74 -46 -194t46 -192t124 -73zM221 16l1016 1315h133l4 -16l-1016 -1315h-133zM373 586q-135 0 -217 105t-82 279t82 280t217 106t217 -106t82 -279t-82 -279t-217 -106z" />
    <glyph glyph-name="ampersand" unicode="&#x26;" horiz-adv-x="1196" 
d="M240 414q0 -140 93 -224t230 -84t230 66l-379 530q-80 -40 -127 -116t-47 -172zM557 -25q-195 0 -332 120t-137 313q0 135 69 240t185 165q-98 151 -98 273t93 196t236 74q195 0 318 -160v-10l-92 -82h-11q-86 123 -210 121q-76 -2 -129 -41t-53 -119t72 -189
q8 -13 28 -43t25 -38t29 -41t25 -37l314 -438q35 66 35 141q0 141 -86 235v11l112 75h11q115 -143 115 -310t-93 -277q49 -58 82 -58t63 13l9 -7l22 -96l-4 -10q-39 -20 -86 -21q-94 0 -186 86q-131 -86 -326 -86z" />
    <glyph glyph-name="quotesingle" unicode="'" horiz-adv-x="385" 
d="M152 838l-33 493h147l-33 -493h-81z" />
    <glyph glyph-name="parenleft" unicode="(" horiz-adv-x="581" 
d="M252 573q0 -239 81 -465t224 -407h-162q-141 191 -221 417t-80 455t80 455t221 418h162q-143 -180 -224 -408t-81 -465z" />
    <glyph glyph-name="parenright" unicode=")" horiz-adv-x="581" 
d="M330 574q0 238 -81 464q-81 228 -224 408h161q142 -190 222 -416q161 -453 0 -912q-80 -226 -222 -417h-161q143 179 224 407t81 466z" />
    <glyph glyph-name="asterisk" unicode="*" horiz-adv-x="915" 
d="M401 1372h113v-272l236 137l57 -98l-236 -135l236 -138l-57 -98l-236 137v-272h-113v272l-235 -137l-57 98l235 138l-235 135l57 98l235 -137v272z" />
    <glyph glyph-name="plus" unicode="+" horiz-adv-x="1091" 
d="M1018 674v-115h-410v-397h-123v397h-411v115h411v389h123v-389h410z" />
    <glyph glyph-name="comma" unicode="," horiz-adv-x="458" 
d="M227 213q51 0 84 -34q116 -120 -151 -488h-15l-71 55v10q84 113 104 230q-70 31 -69 108q0 51 33 85q34 34 85 34z" />
    <glyph glyph-name="hyphen" unicode="-" horiz-adv-x="944" 
d="M133 674h678v-119h-678v119z" />
    <glyph glyph-name="period" unicode="." horiz-adv-x="454" 
d="M227 0q-49 0 -84 35t-34 84q0 49 34 84q35 35 84 35t84 -35t35 -84t-35 -84t-84 -35z" />
    <glyph glyph-name="slash" unicode="/" horiz-adv-x="1054" 
d="M870 1442h127l9 -12l-822 -1539h-123l-12 13z" />
    <glyph glyph-name="zero" unicode="0" horiz-adv-x="1249" 
d="M254 666q0 -246 102 -400t268 -154t269 154q102 154 102 400t-102 400t-268 153q-167 1 -269 -153t-102 -400zM1145 666q1 -310 -143 -500t-377 -190t-377 190t-144 500t144 499q144 191 376 191q234 0 378 -190t143 -500z" />
    <glyph glyph-name="one" unicode="1" horiz-adv-x="634" 
d="M424 1331v-1331h-148v1198h-235l-4 12l43 121h344z" />
    <glyph glyph-name="two" unicode="2" horiz-adv-x="1062" 
d="M983 127v-127h-915v102q399 383 479 465q231 247 231 406q0 111 -75 181t-197 69q-170 0 -309 -164h-11l-86 76v10q174 211 406 211q190 0 306 -108t116 -279q0 -82 -34 -162q-62 -146 -314 -398q-97 -98 -287 -282h690z" />
    <glyph glyph-name="three" unicode="3" horiz-adv-x="1073" 
d="M514 -25q-127 1 -251 61t-202 152v11l89 77h10q57 -74 153 -120t219 -47q123 1 206 75t83 194t-95 202t-253 82h-82v112h76q139 0 223 68t84 168t-68 156q-69 56 -186 57q-188 0 -303 -129h-10l-86 75v11q164 176 411 176q174 0 284 -90t110 -242q0 -209 -193 -299
q113 -43 175 -138t62 -239t-121 -258q-122 -114 -335 -115z" />
    <glyph glyph-name="four" unicode="4" horiz-adv-x="1120" 
d="M707 455v585l-488 -585h488zM1047 455v-127h-197v-328h-148v328h-665v102l747 901h66v-876h197z" />
    <glyph glyph-name="five" unicode="5" horiz-adv-x="1112" 
d="M563 889q199 0 334 -127t135 -332t-137 -330t-350 -125q-291 0 -457 211v11l90 79h10q58 -76 148 -122t199 -45q151 0 249 89t98 233q0 145 -98 235t-241 90q-99 0 -185 -43t-131 -107h-12l-98 49l104 676h713v-137h-592l-57 -379q128 74 278 74z" />
    <glyph glyph-name="six" unicode="6" horiz-adv-x="1120" 
d="M578 109q158 0 248 91t89 230q0 139 -90 230q-89 92 -245 92t-248 -92t-92 -230q0 -139 90 -230t248 -91zM580 885q211 0 348 -130t137 -325t-138 -325t-349 -130t-350 130q-138 130 -138 331t131 431t404 517h10l92 -75v-11q-260 -260 -401 -495q119 82 254 82z" />
    <glyph glyph-name="seven" unicode="7" horiz-adv-x="931" 
d="M905 1331v-65l-551 -1266h-153l-4 6l516 1184h-676v141h868z" />
    <glyph glyph-name="eight" unicode="8" horiz-adv-x="1171" 
d="M586 109q150 1 247 79t97 206t-97 211t-245 83t-248 -82q-98 -82 -98 -210t97 -208t247 -79zM346 1018q0 -92 68 -150t171 -59q103 0 172 58q69 59 69 151t-68 148t-172 56t-172 -56t-68 -148zM586 -25q-211 0 -353 119q-141 119 -141 301q0 121 66 215t178 146
q-146 94 -146 253t113 253t283 94t282 -95t113 -255q0 -160 -143 -250q114 -52 178 -146t63 -215q0 -182 -141 -301t-352 -119z" />
    <glyph glyph-name="nine" unicode="9" horiz-adv-x="1120" 
d="M541 578q155 0 247 91t93 230q0 139 -90 230t-248 91t-248 -90q-90 -92 -90 -231t90 -230t246 -91zM55 899q1 195 139 325t351 130t349 -126t136 -331q0 -391 -534 -952h-11l-92 75v11q279 283 410 508q-123 -94 -260 -95q-215 0 -352 130q-136 130 -136 325z" />
    <glyph glyph-name="colon" unicode=":" horiz-adv-x="507" 
d="M254 -2q-49 0 -84 35t-35 84t35 84t84 35t84 -35t35 -84t-35 -84t-84 -35zM254 834q-49 0 -84 34t-35 84q0 49 35 84t84 35t84 -35t35 -84q0 -50 -35 -84t-84 -34z" />
    <glyph glyph-name="semicolon" unicode=";" horiz-adv-x="542" 
d="M274 213q51 0 84 -34q116 -120 -151 -488h-14l-72 55v10q84 113 104 230q-70 31 -69 108q0 51 33 85q34 34 85 34zM279 836q-49 0 -84 34t-35 84q0 49 35 84t84 35t83 -35t35 -84q-1 -50 -35 -84t-83 -34z" />
    <glyph glyph-name="less" unicode="&#x3c;" horiz-adv-x="1032" 
d="M899 1067l-6 -10l-664 -398l664 -397l6 -10v-123l-10 -6l-826 489v95l826 489l10 -6v-123z" />
    <glyph glyph-name="equal" unicode="=" horiz-adv-x="1224" 
d="M141 446h942v-118h-942v118zM141 901h942v-119h-942v119z" />
    <glyph glyph-name="greater" unicode="&#x3e;" horiz-adv-x="1032" 
d="M143 1196l826 -489v-95l-826 -489l-10 6v123l6 10l664 397l-664 398l-6 10v123z" />
    <glyph glyph-name="question" unicode="?" horiz-adv-x="1030" 
d="M510 188q49 0 84 -34t35 -84q0 -49 -35 -84t-84 -35t-84 35t-35 84q0 50 35 84t84 34zM515 1356q179 0 304 -104t125 -271q0 -95 -28 -143t-40 -72q-14 -24 -48 -60q-34 -34 -45 -46t-86 -77q-75 -66 -95 -106q-20 -41 -20 -108v-50h-144v48q0 98 37 169t144 161
q108 89 127 129q42 83 42 147q0 115 -85 181t-201 67q-116 0 -200 -66q-83 -66 -105 -158l-11 -4l-125 29l-2 10q33 140 155 232t301 92z" />
    <glyph glyph-name="at" unicode="@" horiz-adv-x="1730" 
d="M551 522q-1 -123 73 -206t194 -83t197 77t77 212t-77 212t-197 77t-194 -83t-73 -206zM866 -248q-218 0 -390 96q-173 96 -278 272t-106 392q0 322 224 541t560 219t542 -202q208 -202 208 -501q0 -199 -93 -315t-235 -115q-142 0 -190 121q-111 -127 -288 -127t-283 113
q-107 114 -107 278t106 277t274 113q167 0 277 -115v116h109v-528q0 -61 28 -99t76 -38q78 0 135 92q56 92 56 238q0 252 -171 412q-172 160 -452 159q-280 0 -460 -185q-180 -186 -180 -460t178 -454q180 -180 454 -179q134 0 226 46q36 17 94 50h10l61 -88v-8
q-167 -121 -385 -121z" />
    <glyph glyph-name="A" unicode="A" horiz-adv-x="1415" 
d="M430 432h549l-272 651zM116 -25q-64 0 -104 29l-6 10l35 105l10 4q20 -14 46 -14t41 15t46 85l484 1122h82l479 -1122q31 -70 46 -85t39 -15t48 14l10 -4l35 -105q-23 -39 -101 -39q-77 0 -122 43q-45 39 -90 144l-60 139h-659l-60 -139q-45 -104 -90 -146t-109 -41z" />
    <glyph glyph-name="B" unicode="B" horiz-adv-x="1282" 
d="M731 131q133 0 215 67q82 68 82 180t-82 180t-215 67h-393v-494h393zM690 1200h-352v-455h352q133 -1 205 59t72 169t-72 168t-205 59zM1180 369q0 -165 -120 -267t-368 -102h-502v1331h482q236 0 341 -97t105 -257q0 -189 -180 -281q102 -43 172 -127t70 -200z" />
    <glyph glyph-name="C" unicode="C" horiz-adv-x="1394" 
d="M246 665.5q0 -239.5 155.5 -397t384.5 -157.5q133 0 248 57t189 160h10l98 -76v-10q-96 -125 -237.5 -196t-307.5 -71q-293 0 -492.5 198t-199.5 493t200 492.5t492 197.5q166 0 307.5 -71t237.5 -195v-11l-98 -75h-10q-74 102 -188.5 159.5t-248.5 57.5
q-229 0 -384.5 -158t-155.5 -397.5z" />
    <glyph glyph-name="D" unicode="D" horiz-adv-x="1486" 
d="M698 131q246 1 394 147t147 388q0 242 -147 388t-394 146h-360v-1069h360zM698 1331q312 0 502 -182t190 -482q0 -299 -190 -483t-502 -184h-508v1331h508z" />
    <glyph glyph-name="E" unicode="E" horiz-adv-x="1142" 
d="M1055 1200h-717v-463h567v-131h-567v-475h717v-131h-865v1331h865v-131z" />
    <glyph glyph-name="F" unicode="F" horiz-adv-x="1026" 
d="M979 1200h-641v-463h514v-131h-514v-606h-148v1331h789v-131z" />
    <glyph glyph-name="G" unicode="G" horiz-adv-x="1519" 
d="M1458 645q0 -279 -192.5 -474.5t-482.5 -195.5t-489.5 198t-199.5 493t201 492.5t493 197.5q166 0 308.5 -67.5t236.5 -190.5v-11l-100 -83h-10q-74 102 -188.5 159.5t-248.5 57.5q-229 0 -384.5 -158t-155.5 -397.5t154.5 -397t376.5 -157.5t375 143t153 332h-521v131
h660l10 -12q4 -23 4 -60z" />
    <glyph glyph-name="H" unicode="H" horiz-adv-x="1484" 
d="M1147 1331h147v-1331h-147v606h-809v-606h-148v1331h148v-594h809v594z" />
    <glyph glyph-name="I" unicode="I" horiz-adv-x="745" 
d="M662 1204h-216v-1077h216v-127h-578v127h215v1077h-215v127h578v-127z" />
    <glyph glyph-name="J" unicode="J" horiz-adv-x="1015" 
d="M254 1331h586v-936q0 -201 -116 -311t-280 -109q-256 0 -399 205v13l100 83h11q111 -166 284 -165q106 0 180 75q73 76 72 209v805h-438v131z" />
    <glyph glyph-name="K" unicode="K" horiz-adv-x="1251" 
d="M352 0h-147v1122q0 100 -49 101q-23 0 -37 -15l-10 4l-31 105q23 39 105.5 39t125.5 -51.5t43 -130.5v-515l641 672h178l5 -6l-596 -625l405 -471q104 -121 174 -120q37 0 60 14l10 -4l35 -105q-27 -39 -115 -39q-135 0 -287 177l-383 442l-127 -131v-463z" />
    <glyph glyph-name="L" unicode="L" horiz-adv-x="1011" 
d="M979 131v-131h-789v1331h148v-1200h641z" />
    <glyph glyph-name="M" unicode="M" horiz-adv-x="1796" 
d="M150 109q47 0 59 98l123 1124h82l483 -1106l483 1106h82l125 -1124q12 -98 60 -98q25 0 43 14l10 -4l35 -105q-23 -39 -101 -39q-78 -1 -125 47t-57 140l-90 801l-422 -963h-86l-422 963l-90 -801q-10 -92 -57 -139t-113 -47t-104 28l-7 10l35 105l10 4q18 -14 44 -14z
" />
    <glyph glyph-name="N" unicode="N" horiz-adv-x="1476" 
d="M1143 1331h143v-1331h-82l-870 1040v-1040h-144v1331h82l871 -1040v1040z" />
    <glyph glyph-name="O" unicode="O" horiz-adv-x="1589" 
d="M795 111q235 1 393 157t158 398t-158 398t-394 157q-236 0 -393 -157q-157 -156 -157 -398t157 -399q158 -156 394 -156zM795 -25q-299 0 -501 198t-202 493q0 294 202 492t501 198t501 -198t201 -492q1 -294 -201 -493q-202 -198 -501 -198z" />
    <glyph glyph-name="P" unicode="P" horiz-adv-x="1200" 
d="M709 653q129 0 203 77t75 196q0 118 -75 196t-203 78h-371v-547h371zM670 1331q227 0 348 -106q121 -107 121 -297t-121 -296t-348 -106h-332v-526h-148v1331h480z" />
    <glyph glyph-name="Q" unicode="Q" horiz-adv-x="1589" 
d="M328 360q72 -118 194 -184t273 -65q78 0 149 18q-121 163 -201 227q-79 64 -201 64t-214 -60zM795 1221q-236 0 -394 -157t-157 -398q0 -98 26 -179q115 68 275 68q159 0 271 -81t267 -288q121 70 192 196t71 284q0 242 -158 398t-393 157zM1558 -332q-152 0 -277 91
q-124 91 -249 253q-111 -37 -237 -37q-299 0 -501 198t-202 493q0 294 202 492t501 198t501 -198t201 -492q0 -190 -88 -346t-242 -246q105 -135 195 -203t198 -68t203 78l11 -4l61 -102l-4 -11q-121 -96 -273 -96z" />
    <glyph glyph-name="R" unicode="R" horiz-adv-x="1280" 
d="M338 690h371q131 0 204.5 72t73.5 184.5t-73.5 183t-204.5 70.5h-371v-510zM1113.5 -25q-58.5 0 -94.5 12.5t-60.5 25t-52 46t-42 50t-38 66.5t-29.5 64.5t-29 74t-27 67.5q-72 182 -155 182h-248v-563h-148v1331h480q227 0 348 -101.5t121 -270.5q0 -337 -355 -388
q63 -25 123 -190q35 -92 57.5 -140t63.5 -90t84 -42t68 14l10 -4l35 -105l-6 -10q-47 -29 -105.5 -29z" />
    <glyph glyph-name="S" unicode="S" horiz-adv-x="1107" 
d="M129 1002q0 152 120 253t306 101q272 0 428 -205v-10l-92 -86h-10q-133 166 -326 166q-119 0 -196.5 -57.5t-77.5 -145.5t66.5 -139t188 -98.5t136 -52.5t63.5 -27.5t65.5 -33t56.5 -35t55.5 -43t41 -47t45 -82t19.5 -114.5q0 -168 -126 -269.5t-303.5 -101.5t-306 66
t-210.5 172v10l88 92h10q166 -205 391 -204q137 0 221 64.5t84 161.5t-74.5 153t-182 98t-165.5 65q-112 43 -204 113q-112 84 -111 236z" />
    <glyph glyph-name="T" unicode="T" horiz-adv-x="1060" 
d="M604 1200v-1200h-147v1200h-432v131h1011v-131h-432z" />
    <glyph glyph-name="U" unicode="U" horiz-adv-x="1460" 
d="M171 1356q81 0 124 -51t43 -131v-650q0 -194 106 -304t296 -110t297 112q108 110 108 302v807h143v-811q0 -254 -146 -400t-402 -145q-255 -1 -402 145t-148 400v602q0 100 -49 101q-23 0 -37 -15l-10 4l-31 105q27 39 108 39z" />
    <glyph glyph-name="V" unicode="V" horiz-adv-x="1406" 
d="M108 1356q81 0 128 -44t88 -143l383 -919l380 919q41 99 89 143t114 44t105 -29l6 -10l-35 -105l-10 -4q-20 14 -45 14t-43 -18q-18 -20 -41 -74l-482 -1130h-81l-486 1130q-23 52 -41 72q-37 40 -88 6l-10 4l-35 105q23 39 104 39z" />
    <glyph glyph-name="W" unicode="W" horiz-adv-x="2013" 
d="M123 1356q143 0 203 -187l288 -911l326 1073h133l326 -1073l293 911q59 186 200 187q70 0 109 -29l6 -10l-35 -105l-10 -4q-24 14 -52 14t-44 -18t-35 -74l-389 -1130h-82l-352 1108l-355 -1108h-82l-391 1130q-18 52 -34 72t-43 20q-28 0 -52 -14l-10 4l-35 105
q23 39 117 39z" />
    <glyph glyph-name="X" unicode="X" horiz-adv-x="1386" 
d="M1331 14q-23 -39 -107 -39q-83 0 -143 41q-59 41 -129 144l-266 385l-293 -385q-70 -100 -128 -142q-59 -42 -127 -43q-68 0 -111 29l-7 10l35 105l11 4q23 -14 55 -14q63 0 127 92l356 465l-321 464q-39 56 -67 74t-60 18t-56 -14l-10 4l-35 105l6 10q49 29 117 29
t127 -42t129 -143l266 -385l293 385q70 101 128 143q59 42 125 42t114 -29l6 -10l-35 -105l-10 -4q-23 14 -55 14t-61 -16q-28 -18 -66 -76l-357 -464l322 -465q63 -92 127 -92q33 0 55 14l10 -4z" />
    <glyph glyph-name="Y" unicode="Y" horiz-adv-x="1368" 
d="M109 1356q75 0 125 -44t116 -143l338 -512l336 512q43 66 70 99q72 88 163 88q58 0 93 -29l6 -10l-35 -105l-10 -4q-20 14 -49 15q-47 0 -109 -93l-393 -589v-541h-148v532l-399 598q-61 92 -109 93q-27 0 -49 -15l-10 4l-35 105q23 39 99 39z" />
    <glyph glyph-name="Z" unicode="Z" horiz-adv-x="1202" 
d="M1139 155q1 -75 -51 -115t-132 -40h-901v82l834 1122h-791v127h996v-82l-834 -1122h645q100 0 101 49q0 23 -15 37l4 10l105 31q39 -24 39 -99z" />
    <glyph glyph-name="bracketleft" unicode="[" horiz-adv-x="563" 
d="M489 1327h-186v-1503h186v-123h-329v1749h329v-123z" />
    <glyph glyph-name="backslash" unicode="\" horiz-adv-x="1054" 
d="M184 1442l822 -1538l-13 -13h-123l-821 1539l8 12h127z" />
    <glyph glyph-name="bracketright" unicode="]" horiz-adv-x="563" 
d="M74 1327v123h329v-1749h-329v123h186v1503h-186z" />
    <glyph glyph-name="asciicircum" unicode="^" horiz-adv-x="1228" 
d="M672 1331l489 -764l-6 -10h-131l-10 6l-389 608l-410 -608l-10 -6h-131l-6 10l510 764h94z" />
    <glyph glyph-name="underscore" unicode="_" horiz-adv-x="983" 
d="M41 -111h901v-114h-901v114z" />
    <glyph glyph-name="grave" unicode="`" horiz-adv-x="598" 
d="M176 1503l340 -278v-11l-53 -67h-10l-371 239v11l84 106h10z" />
    <glyph glyph-name="a" unicode="a" 
d="M609 106q167 0 277 108t110 300t-109 297q-109 107 -277 107t-273 -118t-105 -289t104 -288q106 -117 273 -117zM605 -25q-230 0 -376 155q-145 155 -145 382t145 382t373 155t377 -162v137h143v-823q0 -100 47 -101q20 0 35 15l10 -4l29 -99q-22 -37 -98 -37
q-76 1 -116 49t-44 121q-150 -170 -380 -170z" />
    <glyph glyph-name="b" unicode="b" horiz-adv-x="1275" 
d="M666 106q168 0 273 117t105 289q-2 172 -105 289t-272 117t-279 -106t-110 -300t110 -300t278 -106zM135 1405q80 0 121 -47t41 -125v-346q149 162 377 162t373 -155t145 -382t-145 -382t-373 -155t-377 162v-137h-143v1180q0 100 -48 100q-20 0 -34 -14l-11 4l-28 98
q22 37 102 37z" />
    <glyph glyph-name="c" unicode="c" horiz-adv-x="1110" 
d="M84 512q0 227 154.5 382t388.5 155q270 0 417 -181v-10l-90 -74h-10q-133 134 -311 134t-290 -116t-112 -291t110 -290q111 -115 299 -115t304 134h10l90 -74v-10q-147 -180 -417 -181q-233 0 -388 155t-155 382z" />
    <glyph glyph-name="d" unicode="d" 
d="M610 106q168 0 276.5 105.5t108.5 301.5t-108.5 300.5t-276.5 104.5t-273.5 -118t-105.5 -289t105.5 -288t273.5 -117zM607 -25q-233 0 -378 155t-145 383t145.5 382t373.5 154t376 -162v485l135 25l8 -6v-1190q0 -100 47 -101q20 0 35 15l10 -4l29 -99q-22 -37 -98 -37
t-116 48.5t-44 121.5q-145 -170 -378 -170z" />
    <glyph glyph-name="e" unicode="e" horiz-adv-x="1200" 
d="M608.5 918q-150.5 0 -251.5 -86.5t-121 -239.5h739q-18 158 -117 242t-249.5 84zM631 106q102 0 202.5 41t159.5 117h11l92 -78v-10q-74 -98 -201 -149.5t-260 -51.5q-227 0 -389 144.5t-162 383t147.5 392.5t375.5 154t372.5 -149.5t144.5 -367.5q0 -34 -4 -63h-887
q12 -170 127 -266.5t271 -96.5z" />
    <glyph glyph-name="f" unicode="f" horiz-adv-x="698" 
d="M546 1290q-79 0 -134 -56t-56 -169v-41h322v-123h-322v-1051q0 -80 -42 -131t-114 -51t-102 27l-6 10l29 98l10 4q14 -14 35 -14q47 0 47 101v1007h-172v123h172v41q0 174 100 263t226 89t200 -49l4 -10l-51 -98l-10 -5q-57 35 -136 35z" />
    <glyph glyph-name="g" unicode="g" horiz-adv-x="1275" 
d="M601 213q163 0 263.5 98.5t100.5 253t-101.5 254t-262.5 99.5t-261 -99.5t-100 -254.5t99 -253t262 -98zM1102 823v-657q0 -233 -143.5 -353t-356.5 -120q-147 0 -267 58.5t-196 162.5v10l78 84h10q135 -186 375 -186q160 0 258 86t98 254v71q-135 -152 -357 -151.5
t-365.5 139.5t-143.5 345t143.5 344.5t368.5 138.5t361 -158q4 72 45 115t108.5 43t98.5 -27l6 -10l-29 -99l-10 -4q-14 14 -35 15q-47 0 -47 -101z" />
    <glyph glyph-name="h" unicode="h" horiz-adv-x="1220" 
d="M907 158v452q0 142 -80 226t-218 84t-225 -85t-87 -225v-610h-143v1180q0 100 -48 100q-20 0 -34 -14l-11 4l-28 98q22 37 102 37t121 -47t41 -125v-328q121 143 325 143t318 -117q114 -118 113 -306v-424q0 -100 47 -101q20 0 35 15l10 -4l29 -99q-26 -37 -104 -37
q-79 -1 -121 51t-42 132z" />
    <glyph glyph-name="i" unicode="i" horiz-adv-x="466" 
d="M147 158v866h144v-823q0 -100 47 -101q20 0 35 15l10 -4l29 -99q-22 -37 -102 -37q-79 -1 -121 51t-42 132zM219 1145q-49 0 -84 35t-35 84t35 84q35 34 84 34t84 -34t35 -84q0 -49 -35 -84t-84 -35z" />
    <glyph glyph-name="j" unicode="j" horiz-adv-x="485" 
d="M332 1024v-987q0 -135 -53 -213t-162 -131h-8l-56 108v9q135 68 135 206v885h-135v123h279zM221 1145q-49 0 -84 35t-35 84t35 84q35 34 84 34t84 -34t35 -84q0 -49 -35 -84t-84 -35z" />
    <glyph glyph-name="k" unicode="k" horiz-adv-x="1134" 
d="M297 610v-112h309q115 0 188.5 61.5t73.5 154.5t-62.5 150.5t-168.5 57.5q-168 0 -254 -84.5t-86 -227.5zM297 377v-377h-143v1180q0 100 -48 100q-20 0 -34 -14l-11 4l-28 98q22 37 102 37t121 -47t41 -125v-326q117 141 352 142q166 0 266.5 -92.5t100.5 -228.5
t-84 -225t-217 -116l188 -229q75 -87 139 -43l13 -4l28 -99q-22 -37 -98 -37q-109 0 -199 109l-241 293h-248z" />
    <glyph glyph-name="l" unicode="l" horiz-adv-x="477" 
d="M135 1405q80 0 121 -47t41 -125v-1032q0 -100 47 -101q20 0 35 15l10 -4l29 -99q-22 -37 -101.5 -37t-121 51.5t-41.5 131.5v1022q0 100 -48 100q-20 0 -34 -14l-11 4l-28 98q22 37 102 37z" />
    <glyph glyph-name="m" unicode="m" horiz-adv-x="1961" 
d="M1649 158v452q0 142 -75 226t-208 84t-220 -85t-87 -225v-610h-146v610q0 141 -75 226q-76 84 -209 84t-220 -85t-87 -225v-610h-146v823q0 100 -47 101q-20 0 -35 -15l-10 4l-29 99q22 37 99 37q76 0 116 -43t43 -115q119 158 342 158q260 0 361 -213q51 100 149 156
t228 57q186 0 294 -117t107 -307v-424q0 -100 47 -101q20 0 35 15l10 -4l29 -99q-22 -37 -102 -37q-80 -1 -122 51t-42 132z" />
    <glyph glyph-name="n" unicode="n" horiz-adv-x="1245" 
d="M932 158v452q0 141 -80 225.5t-218 84.5t-225 -85t-87 -225v-610h-146v823q0 100 -47 101q-20 0 -35 -15l-10 4l-29 99q22 37 97.5 37t116 -42t44.5 -112q121 154 329 154t321.5 -118t113.5 -306v-424q0 -100 47 -101q20 0 35 15l10 -4l29 -99q-22 -37 -102 -37
t-122 51.5t-42 131.5z" />
    <glyph glyph-name="o" unicode="o" horiz-adv-x="1253" 
d="M627 106q172 0 283.5 115t111.5 291t-111.5 291t-283.5 115t-284 -115t-112 -291t112 -291t284 -115zM626.5 -25q-233.5 0 -388 155t-154.5 382t154.5 382t388 155t388 -155t154.5 -382t-154.5 -382t-388 -155z" />
    <glyph glyph-name="p" unicode="p" 
d="M688 106q168 0 274 117q105 117 105 288t-105 289q-106 118 -274 118t-276 -106t-109 -300q1 -194 109 -300t276 -106zM155 1049q77 1 117 -47t41 -123q151 170 381 170t375 -155t145 -382t-145 -382t-373 -155t-377 162v-444h-143v1130q0 100 -47 101q-20 0 -35 -15
l-10 4l-29 99q23 37 100 37z" />
    <glyph glyph-name="q" unicode="q" horiz-adv-x="1296" 
d="M610 106q168 0 277 106t108 300q0 195 -108 300q-109 106 -277 106t-273 -118t-105 -289t104 -288q106 -117 274 -117zM1122 823v-1130h-143v444q-147 -162 -376 -162t-374 155t-145 382t145 382t375 155t381 -170q2 77 42 123q39 46 109 46t101 -26l6 -10l-29 -99
l-10 -4q-14 14 -35 15q-47 0 -47 -101z" />
    <glyph glyph-name="r" unicode="r" horiz-adv-x="729" 
d="M151.5 1049q74.5 0 114 -39t45.5 -105q94 143 275 144q74 0 137 -29l6 -10l-49 -111l-10 -4q-37 25 -107 25q-113 0 -178.5 -84t-65.5 -226v-610h-143v823q0 100 -47 101q-20 0 -35 -15l-10 4l-29 99q22 37 96.5 37z" />
    <glyph glyph-name="s" unicode="s" horiz-adv-x="884" 
d="M417 1049q128 0 216 -43t135 -113v-10l-92 -76h-10q-84 113 -236 113q-82 0 -129 -38t-47 -98.5t53.5 -102.5t163.5 -81q86 -34 123 -52q36 -18 100 -60q116 -77 116.5 -216t-103 -218t-256.5 -79q-244 0 -388 187v10l93 76h10q88 -143 274 -144q98 0 161 44.5t63 110.5
t-50.5 110.5t-171.5 90.5q-120 46 -160 66t-86 54q-90 66 -90 188.5t91.5 201.5t219.5 79z" />
    <glyph glyph-name="t" unicode="t" horiz-adv-x="718" 
d="M678 901h-322v-582q0 -100 45 -157.5t131 -57.5q45 0 86 27l11 -6l47 -98l-6 -11q-59 -41 -148 -41q-141 0 -225 94.5t-84 247.5v584h-172v123h172v307l135 25l8 -6v-326h322v-123z" />
    <glyph glyph-name="u" unicode="u" horiz-adv-x="1220" 
d="M586 -25q-200 0 -308 110q-110 110 -110 294v444q0 100 -47 101q-20 0 -35 -15l-10 4l-29 99q22 37 103 37q80 1 120 -47t41 -125v-484q0 -139 78 -214t209 -75t217 85t86 225v610h143v-823q0 -100 48 -101q20 0 34 15l11 -4l28 -99q-22 -37 -95 -37t-113 42t-48 110
q-123 -152 -323 -152z" />
    <glyph glyph-name="v" unicode="v" horiz-adv-x="1148" 
d="M317 399q0 -295 275 -295q135 0 226 114t91 285t-44 310t-113 217v10l104 80h10q88 -92 140 -256t51 -340q-2 -246 -135 -398q-134 -152 -324 -151q-190 0 -307 111t-117 293v444q0 100 -47 101q-20 0 -35 -15l-10 4l-29 99q22 37 103 37q80 0 120 -47t41 -125v-478z" />
    <glyph glyph-name="w" unicode="w" horiz-adv-x="1847" 
d="M1016 399q0 -295 270 -295q136 0 224 112t96 284t-35 310q-43 140 -115 220v10l105 80h10q90 -92 141 -257t43 -339q-12 -252 -142 -400t-344 -148t-325 167q-117 -168 -350 -168q-186 0 -303 110t-117 294v444q0 100 -47 101q-20 0 -35 -15l-10 4l-29 99q22 37 102 37
q79 1 121 -47t41 -125v-478q0 -145 71 -220t200 -75t207 81t77 216v623h144v-625z" />
    <glyph glyph-name="x" unicode="x" horiz-adv-x="1153" 
d="M150 1049q80 0 131 -38t104 -118l197 -293l196 293q52 80 104 118t125 38t103 -27l6 -10l-29 -99l-10 -4q-20 14 -47 15q-72 0 -135 -93l-219 -319l219 -319q63 -92 125 -93q27 0 47 15l10 -4l29 -99q-22 -37 -103 -37q-80 0 -131 38t-104 118l-197 293l-196 -293
q-53 -80 -105 -118t-124 -38q-73 0 -103 27l-6 10l29 99l10 4q20 -14 47 -15q72 0 135 93l219 319l-219 319q-63 92 -125 93q-27 0 -47 -15l-10 4l-29 99q23 37 103 37z" />
    <glyph glyph-name="y" unicode="y" horiz-adv-x="1177" 
d="M132 1049q79 1 121 -47t42 -125v-394q0 -129 75 -199q76 -70 204 -71q128 0 220 86q91 86 91 223v502h143v-858q0 -227 -136 -350t-335 -123q-272 0 -432 221v10l78 84h10q131 -186 344 -186q145 0 237 89q91 89 91 251v55q-133 -133 -327 -133t-300 107
q-106 108 -106 298v334q0 100 -48 101q-20 0 -34 -15l-11 4l-28 99q22 37 101 37z" />
    <glyph glyph-name="z" unicode="z" horiz-adv-x="946" 
d="M98 1024h758v-98l-614 -807h458q84 0 84 45q0 20 -16 37l4 10l96 29l13 -4q29 -33 28 -97q0 -139 -182 -139h-664v98l615 807h-580v119z" />
    <glyph glyph-name="braceleft" unicode="{" horiz-adv-x="614" 
d="M221 612v-73q51 0 81 -69t30 -196v-229q0 -139 33 -180t141 -41h49v-123h-55q-176 0 -244 76t-68 268v274q0 80 -5 117q-12 90 -111 88v103q78 0 97 44t19 160v275q0 192 68 268t244 76h55v-123h-49q-110 0 -142 -41t-32 -180v-229q0 -127 -30 -196t-81 -69z" />
    <glyph glyph-name="bar" unicode="|" horiz-adv-x="442" 
d="M160 -299v1749h123v-1749h-123z" />
    <glyph glyph-name="braceright" unicode="}" horiz-adv-x="614" 
d="M283 877v229q0 139 -33 180t-141 41h-50v123h56q175 0 243 -76t68 -268v-275q0 -81 5 -117t31 -62t81 -25v-103q-77 0 -97 -44t-20 -161v-274q0 -193 -68 -269t-243 -75h-56v123h50q109 0 141 41t33 180v229q0 127 29 196q30 69 81 69v73q-51 0 -81 69q-29 69 -29 196z
" />
    <glyph glyph-name="asciitilde" unicode="~" horiz-adv-x="1228" 
d="M844 565q-76 0 -228 36t-219 36q-127 0 -176 -72h-10l-68 92v11q29 31 49 47q20 17 69 33q48 16 126 16t244 -36t219 -36q113 0 160 72h10l67 -92v-10q-31 -34 -49 -48t-68 -32t-126 -17z" />
    <glyph glyph-name="exclamdown" unicode="&#xa1;" horiz-adv-x="458" 
d="M313 -301l-8 -6h-151l-9 8l21 1004l12 10h103l8 -10zM229 836q-49 0 -84 34t-34 84q0 49 34 84q35 35 84 35t84 -35t35 -84q0 -50 -35 -84t-84 -34z" />
    <glyph glyph-name="cent" unicode="&#xa2;" horiz-adv-x="1140" 
d="M639 1073q-178 0 -289.5 -115.5t-111.5 -290.5t109.5 -290t298 -115t304.5 133h11l90 -73v-11q-131 -160 -363 -178v-158h-127v160q-207 25 -339 174.5t-132 358.5t132 358.5t339 173.5v152h127v-150q231 -18 363 -178v-10l-90 -74h-11q-133 133 -311 133z" />
    <glyph glyph-name="sterling" unicode="&#xa3;" horiz-adv-x="1099" 
d="M633 1227q-113 0 -187 -72t-73 -194v-218h383v-129h-383v-485h635v-129h-906v129h123v485h-112v129h112v218q0 175 117 285t293 110q223 0 373 -176v-11l-88 -79h-11q-116 137 -276 137z" />
    <glyph glyph-name="currency" unicode="&#xa4;" horiz-adv-x="1355" 
d="M678 291q152 1 258 111t106 270t-106 270t-258 111q-152 0 -258 -111q-106 -110 -106 -270t106 -270t258 -111zM673 160q-175 0 -306 104l-129 -127l-95 94l129 127q-106 134 -106 312t104 315l-125 125l95 94l125 -125q137 105 314 105t312 -107l127 127l94 -94
l-127 -127q104 -137 104 -313t-106 -312l127 -127l-94 -94l-127 127q-141 -104 -316 -104z" />
    <glyph glyph-name="yen" unicode="&#xa5;" horiz-adv-x="1280" 
d="M1014 545v-109h-299v-145h299v-109h-299v-182h-148v182h-299v109h299v145h-299v109h295l-510 780l4 6h168l422 -653l426 653h150l4 -6l-510 -780h297z" />
    <glyph glyph-name="brokenbar" unicode="&#xa6;" horiz-adv-x="438" 
d="M158 494h123v-793h-123v793zM158 1450h123v-752h-123v752z" />
    <glyph glyph-name="section" unicode="&#xa7;" horiz-adv-x="1126" 
d="M285 590q0 -55 46 -97t100 -64q55 -23 159 -57t160 -57q121 55 120 162q0 72 -59 118q-59 45 -143 76t-236 83q-70 -20 -108 -64t-39 -100zM1022 477q0 -147 -133 -233q133 -90 133 -234t-126 -231q-126 -88 -304 -88q-336 0 -516 205v10l88 80h10q162 -178 389 -179
q135 -1 221 57t86 136t-58 126q-58 47 -131 73t-141 49t-103 35q-121 40 -195 97t-91 105q-18 48 -18 95q0 156 150 241q-150 87 -150 223t117 224t303 88q137 0 250 -49t184 -129v-11l-94 -77h-10q-141 150 -332 149q-115 0 -191 -51t-76 -122t46 -105q27 -20 51 -39
t161 -65q138 -46 181 -62q43 -17 110 -51t101 -66q88 -82 88 -201z" />
    <glyph glyph-name="dieresis" unicode="&#xa8;" horiz-adv-x="802" 
d="M582 1145q-49 0 -84 35t-35 84t35 84q35 34 84 34t84 -34q34 -34 34 -84q0 -49 -34 -84t-84 -35zM221 1145q-49 0 -84 35t-35 84t35 84q35 34 84 34t84 -34t35 -84q0 -49 -35 -84t-84 -35z" />
    <glyph glyph-name="copyright" unicode="&#xa9;" horiz-adv-x="1576" 
d="M824 262q-192 0 -311 117q-118 117 -118 289t118 288q119 116 311 117q192 0 304 -135v-8l-77 -84h-9q-86 100 -224 100t-210 -79t-72 -199t72 -200q72 -79 211 -79t223 100h9l77 -83v-9q-112 -135 -304 -135zM788 88q244 0 407 166t163 412t-163 412t-407 165
q-244 0 -406 -166q-162 -165 -163 -411q1 -246 163 -412t406 -166zM788 -25q-296 0 -494 200t-198 491q0 290 198 490t494 200t495 -200q198 -200 198 -490t-198 -491q-198 -200 -495 -200z" />
    <glyph glyph-name="ordfeminine" unicode="&#xaa;" horiz-adv-x="856" 
d="M365 801q82 0 133 47t51 110v19q-81 29 -161 29t-120 -30t-41 -75q1 -100 138 -100zM686 694q-90 0 -119 90q-76 -90 -199 -90q-124 0 -196 58t-72 155t77 149t183 52t197 -33v27q0 72 -51 106q-52 34 -114 35t-120 -23t-86 -59h-10l-55 74v8q43 51 121 82t170 31
t176 -60q82 -60 82 -174v-239q0 -84 39 -84q14 0 30 12l11 -4l22 -78l-2 -10q-31 -25 -84 -25z" />
    <glyph glyph-name="guillemotleft" unicode="&#xab;" horiz-adv-x="909" 
d="M788 907v-8l-241 -287l241 -286v-9l-75 -75h-11l-309 356v29l309 356h11zM481 899l-241 -287l241 -286v-9l-75 -75h-11l-309 356v29l309 356h11l75 -76v-8z" />
    <glyph glyph-name="registered" unicode="&#xae;" horiz-adv-x="1576" 
d="M823 721q76 0 113 39t37 96t-37 96t-113 39h-205v-270h205zM618 616v-352h-118v834h299q295 0 295 -248q0 -205 -203 -229l207 -357h-144l-204 352h-132zM788 1243q-244 0 -406 -166q-162 -165 -163 -411q0 -246 163 -412q162 -166 406 -166t407 166t163 412t-163 412
t-407 165zM788 1356q297 0 495 -200t198 -490t-198 -491q-198 -200 -495 -200q-296 0 -494 200t-198 491q0 290 198 490t494 200z" />
    <glyph glyph-name="macron" unicode="&#xaf;" horiz-adv-x="1048" 
d="M248 1307h553v-123h-553v123z" />
    <glyph glyph-name="degree" unicode="&#xb0;" horiz-adv-x="708" 
d="M203 1092q0 -64 45 -108t107 -44t107 44q44 44 44 108t-44 107q-44 44 -106 44t-108 -44q-45 -44 -45 -107zM355 827q-109 0 -187 78t-78 188q0 111 78 187t188 76t186 -77t76 -187t-76 -187q-76 -78 -187 -78z" />
    <glyph glyph-name="plusminus" unicode="&#xb1;" horiz-adv-x="1171" 
d="M115 0v119h942v-119h-942zM649 672h410v-115h-410v-397h-123v397h-411v115h411v389h123v-389z" />
    <glyph glyph-name="acute" unicode="&#xb4;" horiz-adv-x="598" 
d="M422 1503h10l84 -106v-11l-371 -239h-10l-53 67v11z" />
    <glyph glyph-name="paragraph" unicode="&#xb6;" horiz-adv-x="1382" 
d="M1128 1200v-1493h-122v1493h122zM1298 1323h-456v-1616h-123v879h-121q-248 -2 -392 103t-145 333q0 428 537 428h700v-127z" />
    <glyph glyph-name="periodcentered" unicode="&#xb7;" horiz-adv-x="532" 
d="M266 408q-57 0 -100 42t-43 101t43 101t100 42q56 0 100 -42t44 -101t-44 -101t-100 -42z" />
    <glyph glyph-name="cedilla" unicode="&#xb8;" horiz-adv-x="636" 
d="M411 -86q54 0 99 -45t45 -125t-67 -134t-157 -54q-91 0 -163 30t-109 72v10l66 76h10q70 -80 168 -80q49 0 80 20t31 52q0 33 -29 52t-78 19t-102 -24l-60 35l74 174v67h148v-67l-35 -84l2 -4q23 10 77 10z" />
    <glyph glyph-name="ordmasculine" unicode="&#xba;" horiz-adv-x="843" 
d="M422 821q86 1 142 57t57 148t-55 148t-143 57q-87 0 -143 -56q-56 -57 -56 -149t56 -148t142 -57zM422 696q-142 0 -238 94t-96 236t95 236t239 94t238 -93q96 -93 96 -237t-96 -236q-96 -94 -238 -94z" />
    <glyph glyph-name="guillemotright" unicode="&#xbb;" horiz-adv-x="909" 
d="M514 983l309 -356v-29l-309 -356h-10l-76 75v9l242 286l-242 287v8l76 76h10zM516 627v-29l-309 -356h-10l-76 75v9l241 286l-241 287v8l76 76h10z" />
    <glyph glyph-name="onequarter" unicode="&#xbc;" horiz-adv-x="1382" 
d="M1069 262v279l-209 -279h209zM1282 262v-115h-88v-147h-125v147h-356v76l389 527h92v-488h88zM115 16l1015 1315h134l4 -16l-1016 -1315h-133zM373 1331v-758h-144v637h-155l-4 11l36 110h267z" />
    <glyph glyph-name="onehalf" unicode="&#xbd;" horiz-adv-x="1486" 
d="M848 0v68q31 28 89 76t126 108t89 87q21 26 53 68t32 99t-31 90t-90 33q-94 0 -180 -94h-8l-72 81v9q43 51 114 88t146 37q129 0 197 -65q67 -65 67 -164t-66 -185t-214 -215h309l2 -121h-563zM1264 1331l4 -16l-1016 -1315h-133l-4 16l1015 1315h134zM229 573v637h-155
l-4 11l36 110h267v-758h-144z" />
    <glyph glyph-name="threequarters" unicode="&#xbe;" horiz-adv-x="1511" 
d="M1188 262v279l-209 -279h209zM1313 750v-488h88v-115h-88v-147h-125v147h-357v76l390 527h92zM1411 1331l4 -16l-1016 -1315h-133l-4 16l1016 1315h133zM631 791q0 -88 -75 -153t-206 -65q-162 0 -280 136v8l75 69h9q80 -96 196 -96q57 0 96 32t39 87t-44 89t-124 34h-45
v104h27q69 0 105 30t36 75t-28 73t-78 27q-92 0 -160 -70h-8l-76 66v8q94 111 244 111q117 0 179 -58t62 -151q0 -94 -94 -156q150 -55 150 -200z" />
    <glyph glyph-name="questiondown" unicode="&#xbf;" horiz-adv-x="1017" 
d="M507 -319q-179 0 -304 104t-125 270q0 95 28 143t46 84q19 36 99 106q79 69 83 73q68 61 87 100t19 107v49h144v-47q0 -98 -35 -167t-144 -161t-129 -131q-41 -80 -43 -148q0 -115 85 -181t202 -66t200 66t105 157l11 4l125 -29l2 -10q-33 -139 -155 -231t-301 -92z
M512 848q-49 0 -84 35t-35 84t35 84t84 35t84 -36q35 -34 35 -83t-35 -84t-84 -35z" />
    <glyph glyph-name="Agrave" unicode="&#xc0;" horiz-adv-x="1415" 
d="M430 432h549l-272 651zM116 -25q-64 0 -104 29l-6 10l35 105l10 4q20 -14 46 -14t41 15t46 85l484 1122h82l479 -1122q31 -70 46 -85t39 -15t48 14l10 -4l35 -105q-23 -39 -101 -39q-77 0 -122 43q-45 39 -90 144l-60 139h-659l-60 -139q-45 -104 -90 -146t-109 -41z
M750 1450h-11l-393 203v10l74 111h10l367 -244v-10z" />
    <glyph glyph-name="Aacute" unicode="&#xc1;" horiz-adv-x="1415" 
d="M430 432h549l-272 651zM116 -25q-64 0 -104 29l-6 10l35 105l10 4q20 -14 46 -14t41 15t46 85l484 1122h82l479 -1122q31 -70 46 -85t39 -15t48 14l10 -4l35 -105q-23 -39 -101 -39q-77 0 -122 43q-45 39 -90 144l-60 139h-659l-60 -139q-45 -104 -90 -146t-109 -41z
M678 1450h-10l-47 70v10l366 244h10l74 -111v-10z" />
    <glyph glyph-name="Acircumflex" unicode="&#xc2;" horiz-adv-x="1415" 
d="M430 432h549l-272 651zM116 -25q-64 0 -104 29l-6 10l35 105l10 4q20 -14 46 -14t41 15t46 85l484 1122h82l479 -1122q31 -70 46 -85t39 -15t48 14l10 -4l35 -105q-23 -39 -101 -39q-77 0 -122 43q-45 39 -90 144l-60 139h-659l-60 -139q-45 -104 -90 -146t-109 -41z
M428 1430h-10l-53 81v11l329 186h17l329 -186v-11l-53 -81h-10l-275 137z" />
    <glyph glyph-name="Atilde" unicode="&#xc3;" horiz-adv-x="1415" 
d="M430 432h549l-272 651zM116 -25q-64 0 -104 29l-6 10l35 105l10 4q20 -14 46 -14t41 15t46 85l484 1122h82l479 -1122q31 -70 46 -85t39 -15t48 14l10 -4l35 -105q-23 -39 -101 -39q-77 0 -122 43q-45 39 -90 144l-60 139h-659l-60 -139q-45 -104 -90 -146t-109 -41z
M537 1659q63 0 186 -37t160 -37q84 0 116 74h9l55 -105v-10q-63 -86 -180 -86q-59 0 -171 37t-186 37t-106 -74h-10l-56 105v10q66 86 183 86z" />
    <glyph glyph-name="Adieresis" unicode="&#xc4;" horiz-adv-x="1415" 
d="M430 432h549l-272 651zM116 -25q-64 0 -104 29l-6 10l35 105l10 4q20 -14 46 -14t41 15t46 85l484 1122h82l479 -1122q31 -70 46 -85t39 -15t48 14l10 -4l35 -105q-23 -39 -101 -39q-77 0 -122 43q-45 39 -90 144l-60 139h-659l-60 -139q-45 -104 -90 -146t-109 -41z
M909 1448q-49 0 -84 35t-34 84q0 49 34 84q35 35 84 35t84 -35t35 -84t-35 -84t-84 -35zM508 1448q-49 0 -84 35t-35 84t35 84t84 35t84 -35t35 -84t-35 -84t-84 -35z" />
    <glyph glyph-name="Aring" unicode="&#xc5;" horiz-adv-x="1415" 
d="M430 432h549l-272 651zM116 -25q-64 0 -104 29l-6 10l35 105l10 4q20 -14 46 -14t41 15t46 85l484 1122h82l479 -1122q31 -70 46 -85t39 -15t48 14l10 -4l35 -105q-23 -39 -101 -39q-77 0 -122 43q-45 39 -90 144l-60 139h-659l-60 -139q-45 -104 -90 -146t-109 -41z
M709 1731q-39 0 -68 -30t-29 -69q0 -38 29 -68t68 -30t67 30t29 68q-1 38 -29 69q-28 30 -67 30zM709 1436q-82 0 -142 57q-59 57 -59 139t59 140t141 57q82 0 142 -57q59 -58 59 -140t-59 -139t-141 -57z" />
    <glyph glyph-name="AE" unicode="&#xc6;" horiz-adv-x="1976" 
d="M1024 432v748l-561 -748h561zM1888 1200h-717v-463h568v-131h-568v-475h717v-131h-864v301h-659l-226 -301h-170l983 1331h936v-131z" />
    <glyph glyph-name="Ccedilla" unicode="&#xc7;" horiz-adv-x="1394" 
d="M786 1221q-229 0 -384.5 -158t-155.5 -397.5t155.5 -397t384.5 -157.5q133 0 248 57t189 160h10l98 -76v-10q-193 -248 -508 -267l-24 -59l2 -4q23 10 77 10t99 -45t45 -125t-66 -134q-68 -54 -158 -54t-162.5 29.5t-109.5 72.5v10l66 76h10q70 -80 168 -80q49 0 80 19.5
t31 52.5t-29 52.5t-78 19.5t-102 -25l-60 35l68 158q-254 37 -420 226t-166 470t200 478.5t492 197.5q166 0 307.5 -71t237.5 -195v-11l-98 -75h-10q-74 102 -189 159.5t-248 57.5z" />
    <glyph glyph-name="Egrave" unicode="&#xc8;" horiz-adv-x="1142" 
d="M1055 1200h-717v-463h567v-131h-567v-475h717v-131h-865v1331h865v-131zM481 1774l367 -244v-10l-47 -70h-10l-394 203v10l74 111h10z" />
    <glyph glyph-name="Eacute" unicode="&#xc9;" horiz-adv-x="1142" 
d="M1055 1200h-717v-463h567v-131h-567v-475h717v-131h-865v1331h865v-131zM764 1774h10l74 -111v-10l-393 -203h-11l-47 70v10z" />
    <glyph glyph-name="Ecircumflex" unicode="&#xca;" horiz-adv-x="1142" 
d="M1055 1200h-717v-463h567v-131h-567v-475h717v-131h-865v1331h865v-131zM342 1430h-10l-53 81v11l329 186h17l329 -186v-11l-53 -81h-10l-275 137z" />
    <glyph glyph-name="Edieresis" unicode="&#xcb;" horiz-adv-x="1142" 
d="M1055 1200h-717v-463h567v-131h-567v-475h717v-131h-865v1331h865v-131zM823 1448q-49 0 -83.5 35t-34.5 84t34.5 84t83.5 35t84 -35t35 -84t-35 -84t-84 -35zM422 1448q-49 0 -84 35t-35 84t35 84t84 35t84 -35t35 -84t-35 -84t-84 -35z" />
    <glyph glyph-name="Igrave" unicode="&#xcc;" horiz-adv-x="745" 
d="M662 1204h-216v-1077h216v-127h-578v127h215v1077h-215v127h578v-127zM231 1774l367 -244v-10l-47 -70h-10l-394 203v10l74 111h10z" />
    <glyph glyph-name="Iacute" unicode="&#xcd;" horiz-adv-x="745" 
d="M662 1204h-216v-1077h216v-127h-578v127h215v1077h-215v127h578v-127zM514 1774h10l74 -111v-10l-393 -203h-10l-48 70v10z" />
    <glyph glyph-name="Icircumflex" unicode="&#xce;" horiz-adv-x="745" 
d="M84 1204v127h578v-127h-216v-1077h216v-127h-578v127h215v1077h-215zM375 1708l330 -186v-11l-54 -81h-10l-274 137l-275 -137h-10l-53 81v11l329 186h17z" />
    <glyph glyph-name="Idieresis" unicode="&#xcf;" horiz-adv-x="745" 
d="M662 1204h-216v-1077h216v-127h-578v127h215v1077h-215v127h578v-127zM573 1448q-49 0 -84 35t-34 84q0 49 34 84q35 35 84 35t84 -35t35 -84t-35 -84t-84 -35zM172 1448q-49 0 -84 35t-35 84t35 84t84 35t84 -35t35 -84t-35 -84t-84 -35z" />
    <glyph glyph-name="Eth" unicode="&#xd0;" horiz-adv-x="1488" 
d="M700 131q246 1 394 147t147 388q0 242 -147 388t-394 146h-360v-465h391v-131h-391v-473h360zM700 1331q312 0 502 -182t190 -482q0 -299 -190 -483t-502 -184h-507v604h-140v131h140v596h507z" />
    <glyph glyph-name="Ntilde" unicode="&#xd1;" horiz-adv-x="1476" 
d="M1143 1331h143v-1331h-82l-870 1040v-1040h-144v1331h82l871 -1040v1040zM555 1659q72 0 208 -37t177 -37q92 0 129 74h10l62 -105v-10q-70 -86 -201 -86q-63 0 -188 37t-207 37t-119 -74h-10l-62 105v10q70 86 201 86z" />
    <glyph glyph-name="Ograve" unicode="&#xd2;" horiz-adv-x="1589" 
d="M795 111q235 1 393 157t158 398t-158 398t-394 157q-236 0 -393 -157q-157 -156 -157 -398t157 -399q158 -156 394 -156zM795 -25q-299 0 -501 198t-202 493q0 294 202 492t501 198t501 -198t201 -492q1 -294 -201 -493q-202 -198 -501 -198zM653 1774l367 -244v-10
l-47 -70h-10l-394 203v10l74 111h10z" />
    <glyph glyph-name="Oacute" unicode="&#xd3;" horiz-adv-x="1589" 
d="M795 111q235 1 393 157t158 398t-158 398t-394 157q-236 0 -393 -157q-157 -156 -157 -398t157 -399q158 -156 394 -156zM795 -25q-299 0 -501 198t-202 493q0 294 202 492t501 198t501 -198t201 -492q1 -294 -201 -493q-202 -198 -501 -198zM936 1774h10l74 -111v-10
l-393 -203h-11l-47 70v10z" />
    <glyph glyph-name="Ocircumflex" unicode="&#xd4;" horiz-adv-x="1589" 
d="M795 111q235 1 393 157t158 398t-158 398t-394 157q-236 0 -393 -157q-157 -156 -157 -398t157 -399q158 -156 394 -156zM795 1356q299 0 501 -198t201 -492q0 -294 -202 -493q-203 -198 -501 -198t-500 198t-202 493q0 294 202 492t501 198zM514 1430h-10l-53 81v11
l329 186h17l329 -186v-11l-53 -81h-10l-275 137z" />
    <glyph glyph-name="Otilde" unicode="&#xd5;" horiz-adv-x="1589" 
d="M795 111q235 1 393 157t158 398t-158 398t-394 157q-236 0 -393 -157q-157 -156 -157 -398t157 -399q158 -156 394 -156zM795 -25q-299 0 -501 198t-202 493q0 294 202 492t501 198t501 -198t201 -492q1 -294 -201 -493q-202 -198 -501 -198zM602 1659q72 0 208 -37
t177 -37q92 0 129 74h10l62 -105v-10q-70 -86 -201 -86q-67 0 -191 37t-205 37t-118 -74h-10l-62 105v10q70 86 201 86z" />
    <glyph glyph-name="Odieresis" unicode="&#xd6;" horiz-adv-x="1589" 
d="M795 111q235 1 393 157t158 398t-158 398t-394 157q-236 0 -393 -157q-157 -156 -157 -398t157 -399q158 -156 394 -156zM795 -25q-299 0 -501 198t-202 493q0 294 202 492t501 198t501 -198t201 -492q1 -294 -201 -493q-202 -198 -501 -198zM995 1448q-49 0 -84 35
t-34 84q0 49 34 84q35 35 84 35t84 -35t35 -84t-35 -84t-84 -35zM594 1448q-49 0 -84 35t-35 84t35 84t84 35t84 -35t35 -84t-35 -84t-84 -35z" />
    <glyph glyph-name="multiply" unicode="&#xd7;" horiz-adv-x="1089" 
d="M991 317l-92 -94l-358 361l-355 -355l-84 82l355 355l-359 358l95 92l358 -356l352 352l82 -84l-352 -352z" />
    <glyph glyph-name="Oslash" unicode="&#xd8;" horiz-adv-x="1589" 
d="M795 111q235 1 393 157t158 412t-191 414l-614 -926q119 -57 254 -57zM244 656q0 -252 182 -412l616 923q-113 53 -247 54q-235 -1 -393 -157t-158 -408zM1497 666q0 -295 -202 -493t-500 -198q-182 0 -330 76l-103 -153h-151l-4 16l141 211q-121 96 -188 236
q-68 140 -68 305q0 294 202 492t501 198q172 0 323 -74l111 166h147l4 -16l-145 -220q123 -96 193 -237t69 -309z" />
    <glyph glyph-name="Ugrave" unicode="&#xd9;" horiz-adv-x="1460" 
d="M171 1356q81 0 124 -51t43 -131v-650q0 -194 106 -304t296 -110t297 112q108 110 108 302v807h143v-811q0 -254 -146 -400t-402 -145q-255 -1 -402 145t-148 400v602q0 100 -49 101q-23 0 -37 -15l-10 4l-31 105q27 39 108 39zM580 1774l366 -244v-10l-47 -70h-10
l-393 203v10l73 111h11z" />
    <glyph glyph-name="Uacute" unicode="&#xda;" horiz-adv-x="1460" 
d="M171 1356q81 0 124 -51t43 -131v-650q0 -194 106 -304t296 -110t297 112q108 110 108 302v807h143v-811q0 -254 -146 -400t-402 -145q-255 -1 -402 145t-148 400v602q0 100 -49 101q-23 0 -37 -15l-10 4l-31 105q27 39 108 39zM862 1774h10l74 -111v-10l-393 -203h-10
l-47 70v10z" />
    <glyph glyph-name="Ucircumflex" unicode="&#xdb;" horiz-adv-x="1460" 
d="M171 1356q81 0 124 -51t43 -131v-650q0 -194 106 -304t296 -110t297 112q108 110 108 302v807h143v-811q0 -254 -146 -399t-402 -145t-402 144q-147 146 -148 400v602q0 100 -49 101q-23 0 -37 -15l-10 4l-31 105q27 39 108 39zM440 1430h-10l-53 81v11l330 186h16
l330 -186v-11l-54 -81h-10l-274 137z" />
    <glyph glyph-name="Udieresis" unicode="&#xdc;" horiz-adv-x="1460" 
d="M171 1356q81 0 124 -51t43 -131v-650q0 -194 106 -304t296 -110t297 112q108 110 108 302v807h143v-811q0 -254 -146 -400t-402 -145q-255 -1 -402 145t-148 400v602q0 100 -49 101q-23 0 -37 -15l-10 4l-31 105q27 39 108 39zM922 1448q-49 0 -84 35t-35 84t35 84t84 35
t84 -35q34 -35 34 -84t-34 -84t-84 -35zM520 1448q-49 0 -84 35t-35 84t35 84t84 35t84 -35t35 -84t-35 -84t-84 -35z" />
    <glyph glyph-name="Yacute" unicode="&#xdd;" horiz-adv-x="1368" 
d="M109 1356q75 0 125 -44t116 -143l338 -512l336 512q43 66 70 99q72 88 163 88q58 0 93 -29l6 -10l-35 -105l-10 -4q-20 14 -49 15q-47 0 -109 -93l-393 -589v-541h-148v532l-399 598q-61 92 -109 93q-27 0 -49 -15l-10 4l-35 105q23 39 99 39zM520 1450h-10l-47 70v10
l366 244h11l73 -111v-10z" />
    <glyph glyph-name="Thorn" unicode="&#xde;" horiz-adv-x="1224" 
d="M729 391q129 0 204 78t75 197q0 120 -75 196t-204 76h-391v-547h391zM690 1069q227 0 348 -106q121 -107 121 -297t-121 -296t-348 -108h-352v-262h-148v1331h148v-262h352z" />
    <glyph glyph-name="germandbls" unicode="&#xdf;" horiz-adv-x="1144" 
d="M623 -25q-104 0 -191 41l-4 9l47 106h10q49 -27 131 -27q123 0 210 76t87 200t-90 205t-229 81h-98v112h92q108 0 176 62t68 163q0 100 -72 163q-72 62 -194 62t-196 -75q-74 -76 -73 -197v-956h-143v965q0 175 114 283t298 108q185 0 299 -96t114 -252q0 -185 -154 -277
q115 -43 175 -133t61 -211q0 -182 -128 -297t-310 -115z" />
    <glyph glyph-name="agrave" unicode="&#xe0;" 
d="M609 106q167 0 277 108t110 300t-109 297q-109 107 -277 107t-273 -118t-105 -289t104 -288q106 -117 273 -117zM605 -25q-230 0 -376 155q-145 155 -145 382t145 382t373 155t377 -162v137h143v-823q0 -100 47 -101q20 0 35 15l10 -4l29 -99q-22 -37 -98 -37
q-76 1 -116 49t-44 121q-150 -170 -380 -170zM805 1147h-10l-371 239v11l84 106h10l340 -278v-11z" />
    <glyph glyph-name="aacute" unicode="&#xe1;" 
d="M609 106q167 0 277 108t110 300t-109 297q-109 107 -277 107t-273 -118t-105 -289t104 -288q106 -117 273 -117zM605 -25q-230 0 -376 155q-145 155 -145 382t145 382t373 155t377 -162v137h143v-823q0 -100 47 -101q20 0 35 15l10 -4l29 -99q-22 -37 -98 -37
q-76 1 -116 49t-44 121q-150 -170 -380 -170zM487 1147h-10l-53 67v11l340 278h10l84 -106v-11z" />
    <glyph glyph-name="acircumflex" unicode="&#xe2;" 
d="M609 106q167 0 277 108t110 300t-109 297q-109 107 -277 107t-273 -118t-105 -289t104 -288q106 -117 273 -117zM605 -25q-230 0 -376 155q-145 155 -145 382t145 382t373 155t377 -162v137h143v-823q0 -100 47 -101q20 0 35 15l10 -4l29 -99q-22 -37 -98 -37
q-76 1 -116 49t-44 121q-150 -170 -380 -170zM395 1147h-10l-61 78v10l303 190h28l303 -190v-10l-61 -78h-10l-246 141z" />
    <glyph glyph-name="atilde" unicode="&#xe3;" 
d="M609 106q167 0 277 108t110 300t-109 297q-109 107 -277 107t-273 -118t-105 -289t104 -288q106 -117 273 -117zM605 -25q-230 0 -376 155q-145 155 -145 382t145 382t373 155t377 -162v137h143v-823q0 -100 47 -101q20 0 35 15l10 -4l29 -99q-22 -37 -98 -37
q-76 1 -116 49t-44 121q-150 -170 -380 -170zM467 1360q67 0 189 -36t159 -36q76 0 109 72h10l47 -105v-10q-61 -84 -166 -84q-57 0 -170 36t-185 36t-104 -72h-8l-47 105v10q61 84 166 84z" />
    <glyph glyph-name="adieresis" unicode="&#xe4;" 
d="M609 106q167 0 277 108t110 300t-109 297q-109 107 -277 107t-273 -118t-105 -289t104 -288q106 -117 273 -117zM605 -25q-230 0 -376 155q-145 155 -145 382t145 382t373 155t377 -162v137h143v-823q0 -100 47 -101q20 0 35 15l10 -4l29 -99q-22 -37 -98 -37
q-76 1 -116 49t-44 121q-150 -170 -380 -170zM821 1145q-49 0 -84 35t-35 84t35 84q35 34 84 34t84 -34t35 -84q0 -49 -35 -84t-84 -35zM461 1145q-49 0 -84 35t-35 84t35 84q35 34 84 34t84 -34t35 -84q0 -49 -35 -84t-84 -35z" />
    <glyph glyph-name="aring" unicode="&#xe5;" 
d="M609 106q167 0 277 108t110 300t-109 297q-109 107 -277 107t-273 -118t-105 -289t104 -288q106 -117 273 -117zM605 -25q-230 0 -376 155q-145 155 -145 382t145 382t373 155t377 -162v137h143v-823q0 -100 47 -101q20 0 35 15l10 -4l29 -99q-22 -37 -98 -37
q-76 1 -116 49t-44 121q-150 -170 -380 -170zM641 1415q-39 -1 -65 -27t-25 -63q0 -37 26 -63q27 -26 65 -27q38 0 64 27q26 28 26 64t-26 63q-26 26 -65 26zM641 1128q-86 0 -144 58t-59 139q0 82 58 139q58 58 145 58q86 0 144 -58q59 -58 59 -139t-58 -139t-145 -58z" />
    <glyph glyph-name="ae" unicode="&#xe6;" horiz-adv-x="1951" 
d="M836 387v82q-143 57 -290 57t-233 -58t-86 -155.5t79 -152t202 -54.5t225.5 76t102.5 205zM1360.5 918q-150.5 0 -251.5 -86.5t-122 -239.5h739q-18 158 -116.5 242t-249 84zM1382 106q102 0 203 41t160 117h10l92 -78v-10q-74 -98 -200.5 -149.5t-265 -51.5t-263.5 61.5
t-198 174.5q-55 -113 -179.5 -174.5t-278 -61.5t-269 88.5t-115.5 252t128 248.5t311 85t319 -57v70q0 125 -94.5 190.5t-205 65.5t-182 -32t-145.5 -102h-10l-90 80v10q174 174 423 175q127 0 240 -50.5t166 -156.5q150 207 422 207q227 0 371.5 -149.5t144.5 -367.5
q0 -34 -4 -63h-887q12 -170 127 -266.5t270 -96.5z" />
    <glyph glyph-name="ccedilla" unicode="&#xe7;" horiz-adv-x="1110" 
d="M633 918q-178 0 -290 -116t-112 -291t110 -290t298.5 -115t304.5 134h10l90 -74v-10q-125 -154 -352 -176l-26 -64l2 -4q23 10 77 10t99 -45t45 -125t-66.5 -134t-157 -54t-163 29.5t-109.5 72.5v10l66 76h10q70 -80 168 -80q49 0 80 19.5t31 52.5t-29 52.5t-78 19.5
t-102 -25l-60 35l66 156q-203 29 -332 176t-129 364t154.5 372t388.5 155q270 0 417 -181v-10l-90 -74h-10q-133 134 -311 134z" />
    <glyph glyph-name="egrave" unicode="&#xe8;" horiz-adv-x="1200" 
d="M608.5 918q-150.5 0 -251.5 -86.5t-121 -239.5h739q-18 158 -117 242t-249.5 84zM631 106q102 0 202.5 41t159.5 117h11l92 -78v-10q-74 -98 -201 -149.5t-260 -51.5q-227 0 -389 144.5t-162 383t147.5 392.5t375.5 154t372.5 -149.5t144.5 -367.5q0 -34 -4 -63h-887
q12 -170 127 -266.5t271 -96.5zM782 1147h-10l-371 239v11l84 106h11l340 -278v-11z" />
    <glyph glyph-name="eacute" unicode="&#xe9;" horiz-adv-x="1200" 
d="M608.5 918q-150.5 0 -251.5 -86.5t-121 -239.5h739q-18 158 -117 242t-249.5 84zM631 106q102 0 202.5 41t159.5 117h11l92 -78v-10q-74 -98 -201 -149.5t-260 -51.5q-227 0 -389 144.5t-162 383t147.5 392.5t375.5 154t372.5 -149.5t144.5 -367.5q0 -34 -4 -63h-887
q12 -170 127 -266.5t271 -96.5zM465 1147h-10l-54 67v11l340 278h11l84 -106v-11z" />
    <glyph glyph-name="ecircumflex" unicode="&#xea;" horiz-adv-x="1200" 
d="M608.5 918q-150.5 0 -251.5 -86.5t-121 -239.5h739q-18 158 -117 242t-249.5 84zM631 106q102 0 202.5 41t159.5 117h11l92 -78v-10q-74 -98 -201 -149.5t-260 -51.5q-227 0 -389 144.5t-162 383t147.5 392.5t375.5 154t372.5 -149.5t144.5 -367.5q0 -34 -4 -63h-887
q12 -170 127 -266.5t271 -96.5zM373 1147h-11l-61 78v10l303 190h29l303 -190v-10l-62 -78h-10l-246 141z" />
    <glyph glyph-name="edieresis" unicode="&#xeb;" horiz-adv-x="1200" 
d="M608.5 918q-150.5 0 -251.5 -86.5t-121 -239.5h739q-18 158 -117 242t-249.5 84zM631 106q102 0 202.5 41t159.5 117h11l92 -78v-10q-74 -98 -201 -149.5t-260 -51.5q-227 0 -389 144.5t-162 383t147.5 392.5t375.5 154t372.5 -149.5t144.5 -367.5q0 -34 -4 -63h-887
q12 -170 127 -266.5t271 -96.5zM799 1145q-49 0 -84 34.5t-35 84t35 84t84 34.5t84 -34.5t35 -84t-35 -84t-84 -34.5zM438 1145q-49 0 -84 34.5t-35 84t35 84t84 34.5t84 -34.5t35 -84t-35 -84t-84 -34.5z" />
    <glyph glyph-name="igrave" unicode="&#xec;" horiz-adv-x="466" 
d="M147 158v866h144v-823q0 -100 47 -101q20 0 35 15l10 -4l29 -99q-22 -37 -102 -37q-79 -1 -121 51t-42 132zM96 1503l340 -278v-11l-53 -67h-10l-371 239v11l84 106h10z" />
    <glyph glyph-name="iacute" unicode="&#xed;" horiz-adv-x="466" 
d="M147 158v866h144v-823q0 -100 47 -101q20 0 35 15l10 -4l29 -99q-22 -37 -102 -37q-79 -1 -121 51t-42 132zM342 1503h10l84 -106v-11l-370 -239h-11l-53 67v11z" />
    <glyph glyph-name="icircumflex" unicode="&#xee;" horiz-adv-x="466" 
d="M147 158v866h144v-823q0 -100 47 -101q21 1 35 15l10 -4l29 -99q-22 -37 -102 -37q-79 -1 -121 51t-42 132zM233 1425l304 -190v-10l-62 -78h-10l-246 141l-246 -141h-10l-61 78v10l303 190h28z" />
    <glyph glyph-name="idieresis" unicode="&#xef;" horiz-adv-x="466" 
d="M147 158v866h144v-823q0 -100 47 -101q20 0 35 15l10 -4l29 -99q-22 -37 -102 -37q-79 -1 -121 51t-42 132zM399 1145q-49 0 -84 35t-34 84q0 49 34 84q35 34 84 34t84 -34t35 -84q0 -49 -35 -84t-84 -35zM39 1145q-49 0 -84 35t-35 84t35 84q35 34 84 34t84 -34t35 -84
q0 -49 -35 -84t-84 -35z" />
    <glyph glyph-name="eth" unicode="&#xf0;" horiz-adv-x="1169" 
d="M584 106q156 0 255 104t99 259q0 156 -98 257t-255 101t-256 -102t-99 -258q0 -157 98 -259q100 -102 256 -102zM82 467q0 209 143 350t359 141q96 0 188 -32q-31 43 -104 133l-215 -78l-9 12v111l140 51q-86 94 -135 143v11l92 75h10q109 -117 166 -180l274 101l10 -9
v-114l-204 -74q151 -186 221 -338t67 -303q0 -209 -143 -350t-358 -141q-214 0 -358 140q-144 142 -144 351z" />
    <glyph glyph-name="ntilde" unicode="&#xf1;" horiz-adv-x="1245" 
d="M932 158v452q0 141 -80 225.5t-218 84.5t-225 -85t-87 -225v-610h-146v823q0 100 -47 101q-20 0 -35 -15l-10 4l-29 99q22 37 97.5 37t116 -42t44.5 -112q121 154 329 154t321.5 -118t113.5 -306v-424q0 -100 47 -101q20 0 35 15l10 -4l29 -99q-22 -37 -102 -37
t-122 51.5t-42 131.5zM453 1360q66 0 188.5 -36t159.5 -36q76 0 108 72h11l47 -105v-10q-61 -84 -166 -84q-59 0 -172 36t-183.5 36t-103.5 -72h-8l-47 105v10q61 84 166 84z" />
    <glyph glyph-name="ograve" unicode="&#xf2;" horiz-adv-x="1253" 
d="M627 106q172 0 283.5 115t111.5 291t-111.5 291t-283.5 115t-284 -115t-112 -291t112 -291t284 -115zM626.5 -25q-233.5 0 -388 155t-154.5 382t154.5 382t388 155t388 -155t154.5 -382t-154.5 -382t-388 -155zM504 1503l340 -278v-11l-53 -67h-11l-370 239v11l84 106h10
z" />
    <glyph glyph-name="oacute" unicode="&#xf3;" horiz-adv-x="1253" 
d="M627 106q172 0 283.5 115t111.5 291t-111.5 291t-283.5 115t-284 -115t-112 -291t112 -291t284 -115zM626.5 -25q-233.5 0 -388 155t-154.5 382t154.5 382t388 155t388 -155t154.5 -382t-154.5 -382t-388 -155zM750 1503h10l84 -106v-11l-371 -239h-10l-53 67v11z" />
    <glyph glyph-name="ocircumflex" unicode="&#xf4;" horiz-adv-x="1253" 
d="M627 106q172 0 283.5 115t111.5 291t-111.5 291t-283.5 115t-284 -115t-112 -291t112 -291t284 -115zM626.5 1049q233.5 0 388 -155t154.5 -382t-154.5 -382t-388 -155t-388 155t-154.5 382t154.5 382t388 155zM381 1147h-10l-62 78v10l303 190h29l303 -190v-10l-61 -78
h-11l-245 141z" />
    <glyph glyph-name="otilde" unicode="&#xf5;" horiz-adv-x="1253" 
d="M627 106q172 0 283.5 115t111.5 291t-111.5 291t-283.5 115t-284 -115t-112 -291t112 -291t284 -115zM626.5 -25q-233.5 0 -388 155t-154.5 382t154.5 382t388 155t388 -155t154.5 -382t-154.5 -382t-388 -155zM453 1360q66 0 188.5 -36t159.5 -36q76 0 108 72h11
l47 -105v-10q-61 -84 -166 -84q-59 0 -172 36t-183 36t-104 -72h-8l-47 105v10q62 84 166 84z" />
    <glyph glyph-name="odieresis" unicode="&#xf6;" horiz-adv-x="1253" 
d="M627 106q172 0 283.5 115t111.5 291t-111.5 291t-283.5 115t-284 -115t-112 -291t112 -291t284 -115zM626.5 -25q-233.5 0 -388 155t-154.5 382t154.5 382t388 155t388 -155t154.5 -382t-154.5 -382t-388 -155zM807 1145q-49 0 -84 34.5t-35 84t35 84t84 34.5t84 -34.5
t35 -84t-35 -84t-84 -34.5zM446.5 1145q-49.5 0 -84 34.5t-34.5 84t34.5 84t84 34.5t84 -34.5t34.5 -84t-34.5 -84t-84 -34.5z" />
    <glyph glyph-name="divide" unicode="&#xf7;" horiz-adv-x="1064" 
d="M532 186q-50 0 -84 35t-34 84t35 84t83 35t84 -35q35 -35 35 -84t-35 -84t-84 -35zM109 672h847v-119h-847v119zM532 846q-50 0 -84 35t-34 84t35 84t83 35t84 -36q35 -34 35 -83t-35 -84t-84 -35z" />
    <glyph glyph-name="oslash" unicode="&#xf8;" horiz-adv-x="1253" 
d="M627 106q172 0 283.5 115t111.5 290t-111 292l-460 -660q88 -37 176 -37zM231 510q0 -178 113 -291l461 660q-84 39 -178 39q-172 0 -284 -115t-112 -293zM1169 522q0 -237 -154.5 -392t-387.5 -155q-135 0 -254 58l-88 -127h-146l-8 8l133 192q-180 154 -180 393.5
t154.5 394.5t388.5 155q141 0 256 -60l108 156h146l8 -8l-154 -222q178 -156 178 -393z" />
    <glyph glyph-name="ugrave" unicode="&#xf9;" horiz-adv-x="1220" 
d="M586 -25q-200 0 -308 110q-110 110 -110 294v444q0 100 -47 101q-20 0 -35 -15l-10 4l-29 99q22 37 103 37q80 1 120 -47t41 -125v-484q0 -139 78 -214t209 -75t217 85t86 225v610h143v-823q0 -100 48 -101q20 0 34 15l11 -4l28 -99q-22 -37 -95 -37t-113 42t-48 110
q-123 -152 -323 -152zM760 1147h-10l-371 239v11l84 106h10l340 -278v-11z" />
    <glyph glyph-name="uacute" unicode="&#xfa;" horiz-adv-x="1220" 
d="M586 -25q-200 0 -308 110q-110 110 -110 294v444q0 100 -47 101q-20 0 -35 -15l-10 4l-29 99q22 37 103 37q80 1 120 -47t41 -125v-484q0 -139 78 -214t209 -75t217 85t86 225v610h143v-823q0 -100 48 -101q20 0 34 15l11 -4l28 -99q-22 -37 -95 -37t-113 42t-48 110
q-123 -152 -323 -152zM442 1147h-10l-53 67v11l340 278h10l84 -106v-11z" />
    <glyph glyph-name="ucircumflex" unicode="&#xfb;" horiz-adv-x="1220" 
d="M586 -25q-200 0 -308 110q-110 110 -110 294v444q0 100 -47 101q-20 0 -35 -15l-10 4l-29 99q22 37 103 37q80 1 120 -47t41 -125v-484q0 -139 78 -214t209 -75t217 85t86 225v610h143v-823q0 -100 48 -101q20 0 34 15l11 -4l28 -99q-22 -37 -95 -37t-113 42t-48 110
q-123 -152 -323 -152zM350 1147h-10l-61 78v10l303 190h28l303 -190v-10l-61 -78h-10l-246 141z" />
    <glyph glyph-name="udieresis" unicode="&#xfc;" horiz-adv-x="1220" 
d="M586 -25q-200 0 -308 110q-110 110 -110 294v444q0 100 -47 101q-20 0 -35 -15l-10 4l-29 99q22 37 103 37q80 1 120 -47t41 -125v-484q0 -139 78 -214t209 -75t217 85t86 225v610h143v-823q0 -100 48 -101q20 0 34 15l11 -4l28 -99q-22 -37 -95 -37t-113 42t-48 110
q-123 -152 -323 -152zM776 1145q-49 0 -84 35t-35 84t35 84q35 34 84 34t84 -34t35 -84q0 -49 -35 -84t-84 -35zM416 1145q-49 0 -84 35t-35 84t35 84q35 34 84 34t84 -34t35 -84q0 -49 -35 -84t-84 -35z" />
    <glyph glyph-name="yacute" unicode="&#xfd;" horiz-adv-x="1177" 
d="M132 1049q79 1 121 -47t42 -125v-394q0 -129 75 -199q76 -70 204 -71q128 0 220 86q91 86 91 223v502h143v-858q0 -227 -136 -350t-335 -123q-272 0 -432 221v10l78 84h10q131 -186 344 -186q145 0 237 89q91 89 91 251v55q-133 -133 -327 -133t-300 107
q-106 108 -106 298v334q0 100 -48 101q-20 0 -34 -15l-11 4l-28 99q22 37 101 37zM403 1147h-10l-53 67v11l340 278h10l84 -106v-11z" />
    <glyph glyph-name="thorn" unicode="&#xfe;" horiz-adv-x="1275" 
d="M666 106q168 0 273 117t105 288t-105 289t-273 118t-277 -106t-109 -300t110 -300q108 -106 276 -106zM132 1356q77 0 118 -51t41 -131v-295q151 170 381 170t375 -155t145 -382t-145 -382t-373 -155t-377 162v-444h-143v1437q0 100 -48 101q-20 0 -34 -14l-11 4l-28 98
q22 37 99 37z" />
    <glyph glyph-name="ydieresis" unicode="&#xff;" horiz-adv-x="1177" 
d="M132 1049q79 1 121 -47t42 -125v-394q0 -129 75 -199q76 -70 204 -71q128 0 220 86q91 86 91 223v502h143v-858q0 -227 -136 -350t-335 -123q-272 0 -432 221v10l78 84h10q131 -186 344 -186q145 0 237 89q91 89 91 251v55q-133 -133 -327 -133t-300 107
q-106 108 -106 298v334q0 100 -48 101q-20 0 -34 -15l-11 4l-28 99q22 37 101 37zM737 1145q-49 0 -84 35t-35 84t35 84q35 34 84 34t84 -34t35 -84q0 -49 -35 -84t-84 -35zM377 1145q-49 0 -84 35t-35 84t35 84q35 34 84 34t84 -34t35 -84q0 -49 -35 -84t-84 -35z" />
    <glyph glyph-name="Amacron" unicode="&#x100;" horiz-adv-x="1415" 
d="M430 432h549l-272 651zM116 -25q-64 0 -104 29l-6 10l35 105l10 4q20 -14 46 -14t41 15t46 85l484 1122h82l479 -1122q31 -70 46 -85t39 -15t48 14l10 -4l35 -105q-23 -39 -101 -39q-77 0 -122 43q-45 39 -90 144l-60 139h-659l-60 -139q-45 -104 -90 -146t-109 -41z
M989 1614v-115h-561v115h561z" />
    <glyph glyph-name="amacron" unicode="&#x101;" 
d="M609 106q167 0 277 108t110 300t-109 297q-109 107 -277 107t-273 -118t-105 -289t104 -288q106 -117 273 -117zM605 -25q-230 0 -376 155q-145 155 -145 382t145 382t373 155t377 -162v137h143v-823q0 -100 47 -101q20 0 35 15l10 -4l29 -99q-22 -37 -98 -37
q-76 1 -116 49t-44 121q-150 -170 -380 -170zM918 1307v-123h-553v123h553z" />
    <glyph glyph-name="Abreve" unicode="&#x102;" horiz-adv-x="1415" 
d="M430 432h549l-272 651zM116 -25q-64 0 -104 29l-6 10l35 105l10 4q20 -14 46 -14t41 15t46 85l484 1122h82l479 -1122q31 -70 46 -85t39 -15t48 14l10 -4l35 -105q-23 -39 -101 -39q-77 0 -122 43q-45 39 -90 144l-60 139h-659l-60 -139q-45 -104 -90 -146t-109 -41z
M709 1448q-117 0 -201 75t-98 195h125q27 -158 174 -158t174 158h125q-14 -122 -98 -196t-201 -74z" />
    <glyph glyph-name="abreve" unicode="&#x103;" 
d="M609 106q167 0 277 108t110 300t-109 297q-109 107 -277 107t-273 -118t-105 -289t104 -288q106 -117 273 -117zM605 -25q-230 0 -376 155q-145 155 -145 382t145 382t373 155t377 -162v137h143v-823q0 -100 47 -101q20 0 35 15l10 -4l29 -99q-22 -37 -98 -37
q-76 1 -116 49t-44 121q-150 -170 -380 -170zM641 1147q-121 0 -203 75t-96 195h125q12 -73 60 -115t114 -42t114 43t60 114h125q-14 -121 -96 -195t-203 -75z" />
    <glyph glyph-name="Aogonek" unicode="&#x104;" horiz-adv-x="1415" 
d="M430 432h549l-272 651zM1071 -241q0 89 166 227q-35 14 -53 32q-45 39 -90 144l-60 139h-659l-60 -139q-45 -104 -90 -146t-109 -41q-64 0 -104 29l-6 10l35 105l10 4q20 -14 46 -14t41 15t46 85l484 1122h82l479 -1122q31 -70 46 -85t39 -15t48 14l10 -4l35 -105l-6 -10
q-12 -10 -39 -34t-59 -50t-45 -41q-14 -16 -40 -49t-26 -70q0 -36 22 -60t61 -26q40 -2 93 37h10l54 -67v-11q-76 -65 -164 -65t-143 51q-54 51 -54 140z" />
    <glyph glyph-name="aogonek" unicode="&#x105;" 
d="M609 106q167 0 277 108t110 300t-109 297q-109 107 -277 107t-273 -118t-105 -289t104 -288q106 -117 273 -117zM605 -25q-230 0 -376 155q-145 155 -145 382t145 382t373 155t377 -162v137h143v-823q0 -100 47 -101q20 0 35 15l10 -4l29 -99l-6 -10q-12 -10 -39 -34
t-39 -34t-35 -29q-22 -19 -32 -31t-37 -46q-27 -33 -27 -70q0 -36 22 -60t62 -26t92 37h10l54 -67v-11q-76 -65 -164 -65t-142 51t-55 131q0 43 32 93t60 77q29 27 78 70q-86 35 -92 157q-150 -170 -380 -170z" />
    <glyph glyph-name="Cacute" unicode="&#x106;" horiz-adv-x="1394" 
d="M246 665.5q0 -239.5 155.5 -397t384.5 -157.5q133 0 248 57t189 160h10l98 -76v-10q-96 -125 -237.5 -196t-307.5 -71q-293 0 -492.5 198t-199.5 493t200 492.5t492 197.5q166 0 307.5 -71t237.5 -195v-11l-98 -75h-10q-74 102 -188.5 159.5t-248.5 57.5
q-229 0 -384.5 -158t-155.5 -397.5zM928 1774h10l74 -111v-10l-394 -203h-10l-47 70v10z" />
    <glyph glyph-name="cacute" unicode="&#x107;" horiz-adv-x="1110" 
d="M84 512q0 227 154.5 382t388.5 155q270 0 417 -181v-10l-90 -74h-10q-133 134 -311 134t-290 -116t-112 -291t110 -290q111 -115 299 -115t304 134h10l90 -74v-10q-147 -180 -417 -181q-233 0 -388 155t-155 382zM748 1503h10l84 -106v-11l-371 -239h-10l-53 67v11z" />
    <glyph glyph-name="Cdotaccent" unicode="&#x10a;" horiz-adv-x="1394" 
d="M246 665.5q0 -239.5 155.5 -397t384.5 -157.5q133 0 248 57t189 160h10l98 -76v-10q-96 -125 -237.5 -196t-307.5 -71q-293 0 -492.5 198t-199.5 493t200 492.5t492 197.5q166 0 307.5 -71t237.5 -195v-11l-98 -75h-10q-74 102 -188.5 159.5t-248.5 57.5
q-229 0 -384.5 -158t-155.5 -397.5zM787 1450q-46 0 -81.5 35t-35.5 82t34.5 83t82 36t83 -36t35.5 -83t-36 -82t-82 -35z" />
    <glyph glyph-name="cdotaccent" unicode="&#x10b;" horiz-adv-x="1110" 
d="M84 512q0 227 154.5 382t388.5 155q270 0 417 -181v-10l-90 -74h-10q-133 134 -311 134t-290 -116t-112 -291t110 -290q111 -115 299 -115t304 134h10l90 -74v-10q-147 -180 -417 -181q-233 0 -388 155t-155 382zM624.5 1145q-49.5 0 -84 34.5t-34.5 84t34.5 84t84 34.5
t84 -34.5t34.5 -84t-34.5 -84t-84 -34.5z" />
    <glyph glyph-name="Ccaron" unicode="&#x10c;" horiz-adv-x="1394" 
d="M786 1221q-229 0 -384.5 -158t-155.5 -397.5t155.5 -397t384.5 -157.5q133 0 248 57t189 160h10l98 -76v-10q-96 -125 -237.5 -196t-307.5 -71q-293 0 -492.5 198t-199.5 493t200 492.5t492 197.5q166 0 307.5 -71t237.5 -195v-11l-98 -75h-10q-74 102 -189 159.5
t-248 57.5zM795 1450h-17l-329 186v11l53 82h10l274 -138l275 138h10l53 -82v-11z" />
    <glyph glyph-name="ccaron" unicode="&#x10d;" horiz-adv-x="1110" 
d="M633 918q-178 0 -290 -116t-112 -291t110 -290t298.5 -115t304.5 134h10l90 -74v-10q-147 -180 -417 -181q-233 0 -388 155t-155 382t154.5 382t388.5 155q270 0 417 -181v-10l-90 -74h-10q-133 134 -311 134zM639 1147h-29l-303 190v11l62 77h10l246 -141l245 141h11
l61 -77v-11z" />
    <glyph glyph-name="Dcaron" unicode="&#x10e;" horiz-adv-x="1486" 
d="M698 131q246 1 394 147t147 388q0 242 -147 388t-394 146h-360v-1069h360zM698 1331q312 0 502 -182t190 -482q0 -299 -190 -483t-502 -184h-508v1331h508zM666 1450h-17l-330 186v11l54 82h10l274 -138l275 138h10l53 -82v-11z" />
    <glyph glyph-name="dcaron" unicode="&#x10f;" horiz-adv-x="1351" 
d="M610 106q168 0 276.5 105.5t108.5 301.5t-108.5 300.5t-276.5 104.5t-273.5 -118t-105.5 -289t105.5 -288t273.5 -117zM607 -25q-233 0 -378 155t-145 383t145.5 382t373.5 154t376 -162v485l135 25l8 -6v-1190q0 -100 47 -101q21 1 35 15l10 -4l29 -99q-22 -37 -98 -37
t-116 48.5t-44 121.5q-145 -170 -378 -170zM1446 1454l8 -10l-108 -367l-13 -10h-78l-8 10l47 367l13 10h139z" />
    <glyph glyph-name="Dcroat" unicode="&#x110;" horiz-adv-x="1488" 
d="M700 131q246 1 394 147t147 388q0 242 -147 388t-394 146h-360v-465h391v-131h-391v-473h360zM700 1331q312 0 502 -182t190 -482q0 -299 -190 -483t-502 -184h-507v604h-140v131h140v596h507z" />
    <glyph glyph-name="dcroat" unicode="&#x111;" 
d="M610 106q168 0 276.5 105.5t108.5 301.5t-108.5 300.5t-276.5 104.5t-273.5 -118t-105.5 -289t105.5 -288t273.5 -117zM607 -25q-233 0 -378 155t-145 383t145.5 382t373.5 154t376 -162v235h-295v115h295v135l135 25l8 -6v-154h150v-115h-150v-921q0 -100 47 -101
q20 0 35 15l10 -4l29 -99q-22 -37 -98 -37t-116 48.5t-44 121.5q-145 -170 -378 -170z" />
    <glyph glyph-name="Emacron" unicode="&#x112;" horiz-adv-x="1142" 
d="M1055 1200h-717v-463h567v-131h-567v-475h717v-131h-865v1331h865v-131zM342 1614h561v-115h-561v115z" />
    <glyph glyph-name="emacron" unicode="&#x113;" horiz-adv-x="1200" 
d="M608.5 918q-150.5 0 -251.5 -86.5t-121 -239.5h739q-18 158 -117 242t-249.5 84zM631 106q102 0 202.5 41t159.5 117h11l92 -78v-10q-74 -98 -201 -149.5t-260 -51.5q-227 0 -389 144.5t-162 383t147.5 392.5t375.5 154t372.5 -149.5t144.5 -367.5q0 -34 -4 -63h-887
q12 -170 127 -266.5t271 -96.5zM895 1307v-123h-553v123h553z" />
    <glyph glyph-name="Edotaccent" unicode="&#x116;" horiz-adv-x="1142" 
d="M1055 1200h-717v-463h567v-131h-567v-475h717v-131h-865v1331h865v-131zM624 1450q-46 0 -82 35t-36 82t34.5 83t82 36t83 -36t35.5 -83t-35.5 -82t-81.5 -35z" />
    <glyph glyph-name="edotaccent" unicode="&#x117;" horiz-adv-x="1200" 
d="M608.5 918q-150.5 0 -251.5 -86.5t-121 -239.5h739q-18 158 -117 242t-249.5 84zM631 106q102 0 202.5 41t159.5 117h11l92 -78v-10q-74 -98 -201 -149.5t-260 -51.5q-227 0 -389 144.5t-162 383t147.5 392.5t375.5 154t372.5 -149.5t144.5 -367.5q0 -34 -4 -63h-887
q12 -170 127 -266.5t271 -96.5zM618.5 1145q-49.5 0 -84 34.5t-34.5 84t34.5 84t84 34.5t84 -34.5t34.5 -84t-34.5 -84t-84 -34.5z" />
    <glyph glyph-name="Eogonek" unicode="&#x118;" horiz-adv-x="1142" 
d="M725 -247q0 87 156 220l30 27h-721v1331h865v-131h-717v-463h567v-131h-567v-475h717v-131q-18 -15 -54 -46.5t-58.5 -51t-32.5 -31.5q-37 -42 -50.5 -66t-13.5 -55t21.5 -54.5t61.5 -25.5t93 37h10l53 -67v-11q-76 -66 -163.5 -65.5t-142 51.5t-54.5 138z" />
    <glyph glyph-name="eogonek" unicode="&#x119;" horiz-adv-x="1200" 
d="M608.5 918q-150.5 0 -251.5 -86.5t-121 -239.5h739q-18 158 -117 242t-249.5 84zM631 106q102 0 202.5 41t159.5 117h11l92 -78v-10q-90 -119 -258 -170q-18 -15 -54 -46.5t-59 -51t-33 -31.5q-39 -46 -51 -68t-12 -53t21.5 -54.5t61.5 -25.5t93 37h10l53 -67v-11
q-76 -66 -164 -65.5t-142 51.5t-54 138t151 216h-24q-227 0 -389 144.5t-162 383t147.5 392.5t375.5 154t372.5 -149.5t144.5 -367.5q0 -34 -4 -63h-887q12 -170 127 -266.5t271 -96.5z" />
    <glyph glyph-name="Ecaron" unicode="&#x11a;" horiz-adv-x="1142" 
d="M1055 1200h-717v-463h567v-131h-567v-475h717v-131h-865v1331h865v-131zM631 1450h-17l-329 186v11l53 82h10l275 -138l274 138h10l54 -82v-11z" />
    <glyph glyph-name="ecaron" unicode="&#x11b;" horiz-adv-x="1200" 
d="M608.5 918q-150.5 0 -251.5 -86.5t-121 -239.5h739q-18 158 -117 242t-249.5 84zM631 106q102 0 202.5 41t159.5 117h11l92 -78v-10q-74 -98 -201 -149.5t-260 -51.5q-227 0 -389 144.5t-162 383t147.5 392.5t375.5 154t372.5 -149.5t144.5 -367.5q0 -34 -4 -63h-887
q12 -170 127 -266.5t271 -96.5zM633 1147h-29l-303 190v11l61 77h11l245 -141l246 141h10l62 -77v-11z" />
    <glyph glyph-name="Gbreve" unicode="&#x11e;" horiz-adv-x="1519" 
d="M1458 645q0 -279 -192.5 -474.5t-482.5 -195.5t-489.5 198t-199.5 493t201 492.5t493 197.5q166 0 308.5 -67.5t236.5 -190.5v-11l-100 -83h-10q-74 102 -188.5 159.5t-248.5 57.5q-229 0 -384.5 -158t-155.5 -397.5t154.5 -397t376.5 -157.5t375 143t153 332h-521v131
h660l10 -12q4 -23 4 -60zM786.5 1448q-116.5 0 -200.5 74.5t-99 195.5h125q27 -158 174.5 -157.5t174.5 157.5h124q-14 -121 -98 -195.5t-200.5 -74.5z" />
    <glyph glyph-name="gbreve" unicode="&#x11f;" horiz-adv-x="1275" 
d="M601 213q163 0 263.5 98.5t100.5 253t-101.5 254t-262.5 99.5t-261 -99.5t-100 -254.5t99 -253t262 -98zM1102 823v-657q0 -233 -143.5 -353t-356.5 -120q-147 0 -267 58.5t-196 162.5v10l78 84h10q135 -186 375 -186q160 0 258 86t98 254v71q-135 -152 -357 -151.5
t-365.5 139.5t-143.5 345t143.5 344.5t368.5 138.5t361 -158q4 72 45 115t108.5 43t98.5 -27l6 -10l-29 -99l-10 -4q-14 14 -35 15q-47 0 -47 -101zM631 1147q-121 0 -203 74.5t-96 195.5h125q12 -72 60 -114.5t113.5 -42.5t114 43t60.5 114h125q-14 -121 -96 -195.5
t-203 -74.5z" />
    <glyph glyph-name="Gdotaccent" unicode="&#x120;" horiz-adv-x="1519" 
d="M1458 645q0 -279 -192.5 -474.5t-482.5 -195.5t-489.5 198t-199.5 493t201 492.5t493 197.5q166 0 308.5 -67.5t236.5 -190.5v-11l-100 -83h-10q-74 102 -188.5 159.5t-248.5 57.5q-229 0 -384.5 -158t-155.5 -397.5t154.5 -397t376.5 -157.5t375 143t153 332h-521v131
h660l10 -12q4 -23 4 -60zM787 1450q-46 0 -81.5 35t-35.5 82t34.5 83t82 36t83 -36t35.5 -83t-36 -82t-82 -35z" />
    <glyph glyph-name="gdotaccent" unicode="&#x121;" horiz-adv-x="1275" 
d="M601 213q163 0 263.5 98.5t100.5 253t-101.5 254t-262.5 99.5t-261 -99.5t-100 -254.5t99 -253t262 -98zM1102 823v-657q0 -233 -143.5 -353t-356.5 -120q-147 0 -267 58.5t-196 162.5v10l78 84h10q135 -186 375 -186q160 0 258 86t98 254v71q-135 -152 -357 -151.5
t-365.5 139.5t-143.5 345t143.5 344.5t368.5 138.5t361 -158q4 72 45 115t108.5 43t98.5 -27l6 -10l-29 -99l-10 -4q-14 14 -35 15q-47 0 -47 -101zM631 1145q-49 0 -84 34.5t-35 84t35 84t84 34.5t84 -34.5t35 -84t-35 -84t-84 -34.5z" />
    <glyph glyph-name="Gcommaaccent" unicode="&#x122;" horiz-adv-x="1519" 
d="M717 -98h139l8 -11l-100 -335l-12 -11h-82l-8 11l43 335zM1458 645q0 -279 -192.5 -474.5t-482.5 -195.5t-489.5 198t-199.5 493t201 492.5t493 197.5q166 0 308.5 -67.5t236.5 -190.5v-11l-100 -83h-10q-74 102 -188.5 159.5t-248.5 57.5q-229 0 -384.5 -158
t-155.5 -397.5t154.5 -397t376.5 -157.5t375 143t153 332h-521v131h660l10 -12q4 -23 4 -60z" />
    <glyph glyph-name="gcommaaccent" unicode="&#x123;" horiz-adv-x="1275" 
d="M601 213q163 0 263.5 98.5t100.5 253t-101.5 254t-262.5 99.5t-261 -99.5t-100 -254.5t99 -253t262 -98zM1102 823v-657q0 -233 -143.5 -353t-356.5 -120q-147 0 -267 58.5t-196 162.5v10l78 84h10q135 -186 375 -186q160 0 258 86t98 254v71q-135 -152 -357 -151.5
t-365.5 139.5t-143.5 345t143.5 344.5t368.5 138.5t361 -158q4 72 45 115t108.5 43t98.5 -27l6 -10l-29 -99l-10 -4q-14 14 -35 15q-47 0 -47 -101zM700 1147h-139l-8 10l100 336l13 10h82l8 -10l-43 -336z" />
    <glyph glyph-name="Hbar" unicode="&#x126;" horiz-adv-x="1484" 
d="M1147 737v207h-809v-207h809zM1386 1059v-115h-92v-944h-147v606h-809v-606h-148v944h-90v115h90v272h148v-272h809v272h147v-272h92z" />
    <glyph glyph-name="hbar" unicode="&#x127;" horiz-adv-x="1220" 
d="M907 158v452q0 142 -80 226t-218 84t-225 -85t-87 -225v-610h-143v1180q0 100 -48 100q-20 0 -34 -14l-11 4l-28 98q22 37 102 37t121 -47t41 -125v-25h319v-114h-319v-189q121 143 325 143t318 -117q114 -118 113 -306v-424q0 -100 47 -101q20 0 35 15l10 -4l29 -99
q-26 -37 -104 -37q-79 -1 -121 51t-42 132z" />
    <glyph glyph-name="Itilde" unicode="&#x128;" horiz-adv-x="745" 
d="M662 1204h-216v-1077h216v-127h-578v127h215v1077h-215v127h578v-127zM217 1659q57 0 167 -37t142 -37q74 0 103 74h8l49 -105v-10q-55 -86 -160 -86q-51 0 -151 37t-166 37t-94 -74h-9l-49 105v10q56 86 160 86z" />
    <glyph glyph-name="itilde" unicode="&#x129;" horiz-adv-x="466" 
d="M147 158v866h144v-823q0 -100 47 -101q20 0 35 15l10 -4l29 -99q-22 -37 -102 -37q-79 -1 -121 51t-42 132zM45 1360q67 0 189 -36t159 -36q76 0 109 72h10l47 -105v-10q-61 -84 -166 -84q-57 0 -170 36t-185 36t-104 -72h-8l-47 105v10q62 84 166 84z" />
    <glyph glyph-name="Imacron" unicode="&#x12a;" horiz-adv-x="745" 
d="M662 1204h-216v-1077h216v-127h-578v127h215v1077h-215v127h578v-127zM121 1614h506v-115h-506v115z" />
    <glyph glyph-name="imacron" unicode="&#x12b;" horiz-adv-x="466" 
d="M147 158v866h144v-823q0 -100 47 -101q20 0 35 15l10 -4l29 -99q-22 -37 -102 -37q-79 -1 -121 51t-42 132zM-57 1307h553v-123h-553v123z" />
    <glyph glyph-name="Iogonek" unicode="&#x12e;" horiz-adv-x="745" 
d="M332 -246q0 88 174 234l12 12h-434v127h215v1077h-215v127h578v-127h-216v-1077h216v-127q-12 -10 -39 -34q-30 -26 -72 -62q-43 -35 -70 -77q-28 -42 -28 -75q-1 -32 21 -56t62 -26t93 37h10l53 -67v-11q-76 -65 -164 -65t-142 51t-54 139z" />
    <glyph glyph-name="iogonek" unicode="&#x12f;" horiz-adv-x="466" 
d="M76 -244q0 88 168 232q-96 37 -97 170v866h144v-823q0 -100 47 -101q20 0 35 15l10 -4l29 -99l-6 -10q-12 -10 -39 -34q-30 -26 -72 -62q-43 -35 -70 -77q-28 -42 -28 -75q-1 -32 21 -56t62 -26t93 37h10l53 -67v-11q-76 -65 -164 -65t-142 51t-54 139zM219 1145
q-49 0 -84 35t-35 84t35 84q35 34 84 34t84 -34t35 -84q0 -49 -35 -84t-84 -35z" />
    <glyph glyph-name="Idotaccent" unicode="&#x130;" horiz-adv-x="745" 
d="M662 1204h-216v-1077h216v-127h-578v127h215v1077h-215v127h578v-127zM374 1450q-46 0 -82 35t-36 82t35 83t82 36t83 -36t36 -83t-36 -82t-82 -35z" />
    <glyph glyph-name="dotlessi" unicode="&#x131;" horiz-adv-x="466" 
d="M147 158v866h144v-823q0 -100 47 -101q20 0 35 15l10 -4l29 -99q-22 -37 -102 -37q-79 -1 -121 51t-42 132z" />
    <glyph glyph-name="IJ" unicode="&#x132;" horiz-adv-x="1761" 
d="M999 1331h586v-936q0 -201 -116 -311t-279 -109q-256 0 -399 205v13l100 83h10q111 -166 285 -165q106 -1 179 75t73 209v805h-439v131zM662 1204h-216v-1077h216v-127h-578v127h215v1077h-215v127h578v-127z" />
    <glyph glyph-name="ij" unicode="&#x133;" horiz-adv-x="952" 
d="M799 1024v-987q1 -135 -53 -213t-162 -131h-9l-55 108v9q135 68 135 206v885h-135v123h279zM147 158v866h144v-823q0 -100 47 -101q21 1 35 15l10 -4l29 -99q-22 -37 -102 -37q-79 -1 -121 51t-42 132zM688 1145q-49 0 -84 35t-35 84t35 84q35 34 84 34t84 -34t35 -84
q0 -49 -35 -84t-84 -35zM338 1264q0 -49 -35 -84t-84 -35t-84 35t-35 84t35 84q35 34 84 34t84 -34t35 -84z" />
    <glyph glyph-name="Kcommaaccent" unicode="&#x136;" horiz-adv-x="1251" 
d="M606 -98h139l9 -11l-101 -335l-12 -11h-82l-8 11l43 335zM352 0h-147v1122q0 100 -49 101q-23 0 -37 -15l-10 4l-31 105q23 39 105.5 39t125.5 -51.5t43 -130.5v-515l641 672h178l5 -6l-596 -625l405 -471q104 -121 174 -120q37 0 60 14l10 -4l35 -105q-27 -39 -115 -39
q-135 0 -287 177l-383 442l-127 -131v-463z" />
    <glyph glyph-name="kcommaaccent" unicode="&#x137;" horiz-adv-x="1134" 
d="M516 -98h139l9 -11l-101 -335l-12 -11h-82l-8 11l43 335zM297 610v-112h309q115 0 188.5 61.5t73.5 154.5t-62.5 150.5t-168.5 57.5q-168 0 -254 -84.5t-86 -227.5zM297 377v-377h-143v1180q0 100 -48 100q-20 0 -34 -14l-11 4l-28 98q22 37 102 37t121 -47t41 -125v-326
q117 141 352 142q166 0 266.5 -92.5t100.5 -228.5t-84 -225t-217 -116l188 -229q75 -87 139 -43l13 -4l28 -99q-22 -37 -98 -37q-109 0 -199 109l-241 293h-248z" />
    <glyph glyph-name="kgreenlandic" unicode="&#x138;" horiz-adv-x="1050" 
d="M299 0h-143v1024h143v-510l500 510h159l3 -8l-426 -436l350 -422q45 -57 94 -58q20 0 45 15l12 -4l29 -99q-22 -37 -98 -37q-109 0 -199 109l-330 397l-139 -143v-338z" />
    <glyph glyph-name="Lacute" unicode="&#x139;" horiz-adv-x="1011" 
d="M979 131v-131h-789v1331h148v-1200h641zM510 1774h10l74 -111v-10l-393 -203h-11l-47 70v10z" />
    <glyph glyph-name="lacute" unicode="&#x13a;" horiz-adv-x="477" 
d="M135 1405q80 0 121 -47t41 -125v-1032q0 -100 47 -101q20 0 35 15l10 -4l29 -99q-22 -37 -101.5 -37t-121 51.5t-41.5 131.5v1022q0 100 -48 100q-20 0 -34 -14l-11 4l-28 98q22 37 102 37zM408 1796h10l74 -110v-11l-394 -202h-10l-47 69v10z" />
    <glyph glyph-name="Lcommaaccent" unicode="&#x13b;" horiz-adv-x="1011" 
d="M506 -109l12 11h139l9 -11l-101 -335l-12 -11h-82l-8 11zM979 131v-131h-789v1331h148v-1200h641z" />
    <glyph glyph-name="lcommaaccent" unicode="&#x13c;" horiz-adv-x="477" 
d="M193 -109l12 11h139l8 -11l-100 -335l-12 -11h-82l-8 11zM135 1405q80 0 121 -47t41 -125v-1032q0 -100 47 -101q20 0 35 15l10 -4l29 -99q-22 -37 -101.5 -37t-121 51.5t-41.5 131.5v1022q0 100 -48 100q-20 0 -34 -14l-11 4l-28 98q22 37 102 37z" />
    <glyph glyph-name="Lcaron" unicode="&#x13d;" horiz-adv-x="1011" 
d="M979 131v-131h-789v1331h148v-1200h641zM582 1440l12 10h139l8 -10l-108 -367l-12 -10h-78l-8 10z" />
    <glyph glyph-name="lcaron" unicode="&#x13e;" horiz-adv-x="526" 
d="M135 1405q80 0 121 -47t41 -125v-1032q0 -100 47 -101q20 0 35 15l10 -4l29 -99q-22 -37 -101.5 -37t-121 51.5t-41.5 131.5v1022q0 100 -48 100q-20 0 -34 -14l-11 4l-28 98q22 37 102 37zM469 1444l12 10h140l8 -10l-109 -367l-12 -10h-78l-8 10z" />
    <glyph glyph-name="Ldot" unicode="&#x13f;" horiz-adv-x="1024" 
d="M659.5 547q-57.5 0 -100.5 42t-43 101.5t43 101.5t100.5 42t100.5 -42t43 -101.5t-43 -101.5t-100.5 -42zM979 131v-131h-789v1331h148v-1200h641z" />
    <glyph glyph-name="ldot" unicode="&#x140;" horiz-adv-x="528" 
d="M489.5 602q-59.5 0 -101.5 43t-42 100.5t42 100.5t101.5 43t101.5 -43t42 -100.5t-42 -100.5t-101.5 -43zM135 1405q80 0 121 -47t41 -125v-1032q0 -100 47 -101q20 0 35 15l10 -4l29 -99q-22 -37 -101.5 -37t-121 51.5t-41.5 131.5v1022q0 100 -48 100q-20 0 -34 -14
l-11 4l-28 98q22 37 102 37z" />
    <glyph glyph-name="Lslash" unicode="&#x141;" horiz-adv-x="1052" 
d="M379 131h641v-131h-789v522l-186 -92l-10 6v115l196 96v684h148v-612l332 164l10 -6v-115l-342 -168v-463z" />
    <glyph glyph-name="lslash" unicode="&#x142;" horiz-adv-x="618" 
d="M227 1405q80 0 121 -47t41 -125v-469l180 92h13v-115l-193 -98v-442q0 -100 47 -101q20 0 35 15l10 -4l29 -99q-22 -37 -101 -37t-121 51.5t-42 131.5v409l-180 -92h-13v115l193 98v492q0 100 -47 100q-20 0 -35 -14l-10 4l-29 98q22 37 102 37z" />
    <glyph glyph-name="Nacute" unicode="&#x143;" horiz-adv-x="1476" 
d="M1143 1331h143v-1331h-82l-870 1040v-1040h-144v1331h82l871 -1040v1040zM580 1450h-11l-47 70v10l367 244h10l74 -111v-10z" />
    <glyph glyph-name="nacute" unicode="&#x144;" horiz-adv-x="1245" 
d="M932 158v452q0 141 -80 225.5t-218 84.5t-225 -85t-87 -225v-610h-146v823q0 100 -47 101q-20 0 -35 -15l-10 4l-29 99q22 37 97.5 37t116 -42t44.5 -112q121 154 329 154t321.5 -118t113.5 -306v-424q0 -100 47 -101q20 0 35 15l10 -4l29 -99q-22 -37 -102 -37
t-122 51.5t-42 131.5zM473 1147h-10l-53 67v11l340 278h10l84 -106v-11z" />
    <glyph glyph-name="Ncommaaccent" unicode="&#x145;" horiz-adv-x="1476" 
d="M670 -98h139l8 -11l-100 -335l-12 -11h-82l-9 11l43 335zM1143 1331h143v-1331h-82l-870 1040v-1040h-144v1331h82l871 -1040v1040z" />
    <glyph glyph-name="ncommaaccent" unicode="&#x146;" horiz-adv-x="1245" 
d="M557 -98h139l9 -11l-101 -335l-12 -11h-82l-8 11l43 335zM932 158v452q0 141 -80 225.5t-218 84.5t-225 -85t-87 -225v-610h-146v823q0 100 -47 101q-20 0 -35 -15l-10 4l-29 99q22 37 97.5 37t116 -42t44.5 -112q121 154 329 154t321.5 -118t113.5 -306v-424
q0 -100 47 -101q20 0 35 15l10 -4l29 -99q-22 -37 -102 -37t-122 51.5t-42 131.5z" />
    <glyph glyph-name="Ncaron" unicode="&#x147;" horiz-adv-x="1476" 
d="M1143 1331h143v-1331h-82l-870 1040v-1040h-144v1331h82l871 -1040v1040zM756 1450h-17l-329 186v11l53 82h10l275 -138l274 138h10l53 -82v-11z" />
    <glyph glyph-name="ncaron" unicode="&#x148;" horiz-adv-x="1245" 
d="M932 158v452q0 141 -80 225.5t-218 84.5t-225 -85t-87 -225v-610h-146v823q0 100 -47 101q-20 0 -35 -15l-10 4l-29 99q22 37 97.5 37t116 -42t44.5 -112q121 154 329 154t321.5 -118t113.5 -306v-424q0 -100 47 -101q20 0 35 15l10 -4l29 -99q-22 -37 -102 -37
t-122 51.5t-42 131.5zM641 1147h-29l-303 190v11l62 77h10l246 -141l245 141h11l61 -77v-11z" />
    <glyph glyph-name="napostrophe" unicode="&#x149;" horiz-adv-x="1245" 
d="M932 158v452q0 141 -80 225.5t-218 84.5t-225 -85t-87 -225v-610h-146v823q0 100 -47 101q-20 0 -35 -15l-10 4l-29 99q22 37 97.5 37t116 -42t44.5 -112q121 154 329 154t321.5 -118t113.5 -306v-424q0 -100 47 -101q20 0 35 15l10 -4l29 -99q-22 -37 -102 -37
t-122 51.5t-42 131.5zM125 1479l8 -11l-108 -335l-13 -11h-78l-8 11l47 335l13 11h139z" />
    <glyph glyph-name="Eng" unicode="&#x14a;" horiz-adv-x="1476" 
d="M682 -182q88 -119 253 -119q85 0 147 61t63 179v133l-811 968v-1040h-144v1331h82l871 -1040v1040h143v-1413q0 -162 -108 -258t-260 -96q-104 0 -198 44t-142 116v10l94 84h10z" />
    <glyph glyph-name="eng" unicode="&#x14b;" horiz-adv-x="1214" 
d="M153 1049q75 0 115 -42t45 -112q121 154 329 154t322 -118t113 -306v-568q0 -258 -213 -364h-8l-61 106l2 8q135 68 135 230v573q0 142 -80 226t-218 84t-225 -85t-87 -225v-610h-146v823q0 100 -47 101q-20 0 -35 -15l-10 4l-29 99q23 37 98 37z" />
    <glyph glyph-name="Omacron" unicode="&#x14c;" horiz-adv-x="1589" 
d="M795 111q235 1 393 157t158 398t-158 398t-394 157q-236 0 -393 -157q-157 -156 -157 -398t157 -399q158 -156 394 -156zM795 -25q-299 0 -501 198t-202 493q0 294 202 492t501 198t501 -198t201 -492q1 -294 -201 -493q-202 -198 -501 -198zM514 1614h561v-115h-561v115
z" />
    <glyph glyph-name="omacron" unicode="&#x14d;" horiz-adv-x="1253" 
d="M627 106q172 0 283.5 115t111.5 291t-111.5 291t-283.5 115t-284 -115t-112 -291t112 -291t284 -115zM626.5 -25q-233.5 0 -388 155t-154.5 382t154.5 382t388 155t388 -155t154.5 -382t-154.5 -382t-388 -155zM350 1307h553v-123h-553v123z" />
    <glyph glyph-name="Ohungarumlaut" unicode="&#x150;" horiz-adv-x="1589" 
d="M795 111q235 1 393 157t158 398t-158 398t-394 157q-236 0 -393 -157q-157 -156 -157 -398t157 -399q158 -156 394 -156zM795 -25q-299 0 -501 198t-202 493q0 294 202 492t501 198t501 -198t201 -492q1 -294 -201 -493q-202 -198 -501 -198zM993 1802l13 10h139l8 -10
l-207 -348l-12 -10h-78l-8 10zM723 1802l12 10h139l9 -10l-207 -348l-12 -10h-78l-8 10z" />
    <glyph glyph-name="ohungarumlaut" unicode="&#x151;" horiz-adv-x="1253" 
d="M627 106q172 0 283.5 115t111.5 291t-111.5 291t-283.5 115t-284 -115t-112 -291t112 -291t284 -115zM626.5 -25q-233.5 0 -388 155t-154.5 382t154.5 382t388 155t388 -155t154.5 -382t-154.5 -382t-388 -155zM825 1503l13 10h139l8 -10l-207 -348l-12 -10h-78l-8 10z
M555 1503l12 10h140l8 -10l-207 -348l-12 -10h-78l-8 10z" />
    <glyph glyph-name="OE" unicode="&#x152;" horiz-adv-x="2299" 
d="M794.5 111q235.5 0 393.5 156.5t158 398t-158 398.5t-393.5 157t-393 -157t-157.5 -398.5t157.5 -398t393 -156.5zM2212 1200h-717v-463h567v-131h-567v-475h717v-131h-864v229q-96 -119 -240.5 -186.5t-312.5 -67.5q-299 0 -501 198t-202 493t202 492.5t501 197.5
q168 0 312 -67.5t241 -186.5v229h864v-131z" />
    <glyph glyph-name="oe" unicode="&#x153;" horiz-adv-x="2138" 
d="M1546.5 918q-150.5 0 -251.5 -86.5t-121 -239.5h739q-18 158 -117 242t-249.5 84zM627 106q172 0 283.5 115t111.5 291t-111.5 291t-283.5 115t-284 -115t-112 -291t112 -291t284 -115zM1569 106q102 0 202.5 41t159.5 117h11l92 -78v-10q-74 -98 -201 -149.5
t-268.5 -51.5t-270.5 67t-200 189q-70 -119 -193 -187.5t-274 -68.5q-233 0 -388 155t-155 382t154.5 382t388.5 155q152 0 274.5 -69t192.5 -187q68 119 186.5 187.5t265.5 68.5q227 0 371.5 -149.5t144.5 -367.5q0 -34 -4 -63h-887q12 -170 127 -266.5t271 -96.5z" />
    <glyph glyph-name="Racute" unicode="&#x154;" horiz-adv-x="1280" 
d="M338 690h371q131 0 204.5 72t73.5 184.5t-73.5 183t-204.5 70.5h-371v-510zM1113.5 -25q-58.5 0 -94.5 12.5t-60.5 25t-52 46t-42 50t-38 66.5t-29.5 64.5t-29 74t-27 67.5q-72 182 -155 182h-248v-563h-148v1331h480q227 0 348 -101.5t121 -270.5q0 -337 -355 -388
q63 -25 123 -190q35 -92 57.5 -140t63.5 -90t84 -42t68 14l10 -4l35 -105l-6 -10q-47 -29 -105.5 -29zM442 1450h-10l-47 70v10l367 244h10l74 -111v-10z" />
    <glyph glyph-name="racute" unicode="&#x155;" horiz-adv-x="729" 
d="M151.5 1049q74.5 0 114 -39t45.5 -105q94 143 275 144q74 0 137 -29l6 -10l-49 -111l-10 -4q-37 25 -107 25q-113 0 -178.5 -84t-65.5 -226v-610h-143v823q0 100 -47 101q-20 0 -35 -15l-10 4l-29 99q22 37 96.5 37zM223 1147h-10l-53 67v11l340 278h10l84 -106v-11z" />
    <glyph glyph-name="Rcommaaccent" unicode="&#x156;" horiz-adv-x="1280" 
d="M557 -98h139l9 -11l-101 -335l-12 -11h-82l-8 11l43 335zM338 690h371q131 0 204.5 72t73.5 184.5t-73.5 183t-204.5 70.5h-371v-510zM1113.5 -25q-58.5 0 -94.5 12.5t-60.5 25t-52 46t-42 50t-38 66.5t-29.5 64.5t-29 74t-27 67.5q-72 182 -155 182h-248v-563h-148v1331
h480q227 0 348 -101.5t121 -270.5q0 -337 -355 -388q63 -25 123 -190q35 -92 57.5 -140t63.5 -90t84 -42t68 14l10 -4l35 -105l-6 -10q-47 -29 -105.5 -29z" />
    <glyph glyph-name="rcommaaccent" unicode="&#x157;" horiz-adv-x="729" 
d="M178 -98h139l9 -11l-101 -335l-12 -11h-82l-8 11l43 335zM151.5 1049q74.5 0 114 -39t45.5 -105q94 143 275 144q74 0 137 -29l6 -10l-49 -111l-10 -4q-37 25 -107 25q-113 0 -178.5 -84t-65.5 -226v-610h-143v823q0 100 -47 101q-20 0 -35 -15l-10 4l-29 99
q22 37 96.5 37z" />
    <glyph glyph-name="Rcaron" unicode="&#x158;" horiz-adv-x="1280" 
d="M338 690h371q131 0 204.5 72t73.5 184.5t-73.5 183t-204.5 70.5h-371v-510zM1113.5 -25q-58.5 0 -94.5 12.5t-60.5 25t-52 46t-42 50t-38 66.5t-29.5 64.5t-29 74t-27 67.5q-72 182 -155 182h-248v-563h-148v1331h480q227 0 348 -101.5t121 -270.5q0 -337 -355 -388
q63 -25 123 -190q35 -92 57.5 -140t63.5 -90t84 -42t68 14l10 -4l35 -105l-6 -10q-47 -29 -105.5 -29zM618 1450h-16l-330 186v11l54 82h10l274 -138l275 138h10l53 -82v-11z" />
    <glyph glyph-name="rcaron" unicode="&#x159;" horiz-adv-x="729" 
d="M151.5 1049q74.5 0 114 -39t45.5 -105q94 143 275 144q74 0 137 -29l6 -10l-49 -111l-10 -4q-37 25 -107 25q-113 0 -178.5 -84t-65.5 -226v-610h-143v823q0 100 -47 101q-20 0 -35 -15l-10 4l-29 99q22 37 96.5 37zM391 1147h-29l-303 190v11l62 77h10l246 -141l246 141
h10l61 -77v-11z" />
    <glyph glyph-name="Sacute" unicode="&#x15a;" horiz-adv-x="1107" 
d="M129 1002q0 152 120 253t306 101q272 0 428 -205v-10l-92 -86h-10q-133 166 -326 166q-119 0 -196.5 -57.5t-77.5 -145.5t66.5 -139t188 -98.5t136 -52.5t63.5 -27.5t65.5 -33t56.5 -35t55.5 -43t41 -47t45 -82t19.5 -114.5q0 -168 -126 -269.5t-303.5 -101.5t-306 66
t-210.5 172v10l88 92h10q166 -205 391 -204q137 0 221 64.5t84 161.5t-74.5 153t-182 98t-165.5 65q-112 43 -204 113q-112 84 -111 236zM705 1774h10l73 -111v-10l-393 -203h-10l-47 70v10z" />
    <glyph glyph-name="sacute" unicode="&#x15b;" horiz-adv-x="884" 
d="M417 1049q128 0 216 -43t135 -113v-10l-92 -76h-10q-84 113 -236 113q-82 0 -129 -38t-47 -98.5t53.5 -102.5t163.5 -81q86 -34 123 -52q36 -18 100 -60q116 -77 116.5 -216t-103 -218t-256.5 -79q-244 0 -388 187v10l93 76h10q88 -143 274 -144q98 0 161 44.5t63 110.5
t-50.5 110.5t-171.5 90.5q-120 46 -160 66t-86 54q-90 66 -90 188.5t91.5 201.5t219.5 79zM565 1503h10l84 -106v-11l-370 -239h-10l-54 67v11z" />
    <glyph glyph-name="Scedilla" unicode="&#x15e;" horiz-adv-x="1107" 
d="M1018 346q0 -156 -111.5 -256t-292.5 -113l-24 -61l2 -4q23 10 77 10t99 -45t45 -125t-66.5 -134t-157 -54t-163 29.5t-109.5 72.5v10l66 76h10q70 -80 168 -80q49 0 80 19.5t31 52.5t-29 52.5t-78 19.5t-102 -25l-60 35l66 158q-252 37 -397 229v10l88 92h10
q166 -205 391 -204q137 0 221 64.5t84 161.5t-74.5 153t-182 98t-165.5 65q-112 43 -204 113q-112 84 -111.5 236.5t120.5 253t306 100.5q272 0 428 -205v-10l-92 -86h-10q-133 166 -326 166q-119 0 -196.5 -57.5t-77.5 -145.5t66.5 -139t188 -98.5t136 -52.5t63.5 -27.5
t65.5 -33t56.5 -35t55.5 -43t41 -47t45 -82t19.5 -114.5z" />
    <glyph glyph-name="scedilla" unicode="&#x15f;" horiz-adv-x="884" 
d="M554.5 -78q54.5 0 99 -45t44.5 -125t-66.5 -134t-156.5 -54t-162.5 29.5t-109.5 72.5v10l65 76h11q70 -80 167 -80q49 0 80 19.5t31 52.5t-28.5 52.5t-77.5 19.5t-103 -25l-59 35l67 158q-184 35 -293 178v10l93 76h10q88 -143 274 -144q98 0 161 44.5t63 105.5
q0 104 -126 166q-93 45 -151 61q-213 81 -259 181q-22 48 -22 106q0 123 91.5 202t219.5 79t216 -43t135 -113v-10l-92 -76h-10q-84 113 -236 113q-82 0 -129 -38t-47 -98.5t47 -97.5t189 -93.5t206 -103.5q113 -90 114 -218t-86 -204.5t-222 -89.5l-27 -61l2 -4
q23 10 77.5 10z" />
    <glyph glyph-name="Scaron" unicode="&#x160;" horiz-adv-x="1107" 
d="M1018 346q0 -168 -126 -269.5t-303.5 -101.5t-306 65.5t-210.5 172.5v10l88 92h10q166 -205 391 -204q137 0 221 64.5t84 161.5t-74.5 153t-182 98t-165.5 65q-112 43 -204 113q-112 84 -111.5 236.5t120.5 253t306 100.5q272 0 428 -205v-10l-92 -86h-10
q-133 166 -326 166q-119 0 -196.5 -57.5t-77.5 -145.5t66.5 -139t188 -98.5t136 -52.5t63.5 -27.5t65.5 -33t56.5 -35t55.5 -43t41 -47t45 -82t19.5 -114.5zM571 1450h-16l-330 186v11l54 82h10l274 -138l275 138h10l53 -82v-11z" />
    <glyph glyph-name="scaron" unicode="&#x161;" horiz-adv-x="884" 
d="M451 -25q-244 0 -388 187v10l93 76h10q88 -143 274 -144q98 0 161 44.5t63 105.5q0 104 -126 166q-93 45 -151 61q-213 81 -259 181q-22 48 -22 106q0 123 91.5 202t219.5 79t216 -43t135 -113v-10l-92 -76h-10q-84 113 -236 113q-82 0 -129 -38t-47 -98.5t47 -97.5
t189 -93.5t206 -103.5q113 -90 114 -223t-102.5 -212t-256.5 -79zM457 1147h-29l-303 190v11l61 77h11l245 -141l246 141h10l62 -77v-11z" />
    <glyph glyph-name="uni0162" unicode="&#x162;" horiz-adv-x="1060" 
d="M648.5 -78q54.5 0 99.5 -45t45 -125t-67 -134t-157 -54t-162.5 29.5t-109.5 72.5v10l65 76h11q70 -80 168 -80q49 0 79.5 19.5t30.5 52.5t-28.5 52.5t-77.5 19.5t-103 -25l-59 35l74 174v1200h-432v131h1011v-131h-432v-1200l-35 -84l2 -4q23 10 77.5 10z" />
    <glyph glyph-name="uni0163" unicode="&#x163;" horiz-adv-x="718" 
d="M570.5 -78q54.5 0 99.5 -45t45 -125t-66.5 -134t-157 -54t-163 29.5t-109.5 72.5v10l66 76h10q70 -80 168 -80q49 0 79.5 19.5t30.5 52.5t-28.5 52.5t-77.5 19.5t-102 -25l-60 35l74 174v8q-166 82 -166 309v584h-172v123h172v307l135 25l8 -6v-326h322v-123h-322v-582
q0 -100 45 -157.5t131 -57.5q45 0 86 27l11 -6l47 -98l-6 -11q-59 -41 -148 -41h-6l-24 -59l2 -4q22 10 76.5 10z" />
    <glyph glyph-name="Tcaron" unicode="&#x164;" horiz-adv-x="1060" 
d="M25 1331h1011v-131h-432v-1200h-147v1200h-432v131zM539 1450h-17l-329 186v11l53 82h10l274 -138l275 138h10l53 -82v-11z" />
    <glyph glyph-name="tcaron" unicode="&#x165;" horiz-adv-x="718" 
d="M678 901h-322v-582q0 -100 45 -157.5t131 -57.5q45 0 86 27l11 -6l47 -98l-6 -11q-59 -41 -148 -41q-141 0 -225 94.5t-84 247.5v584h-172v123h172v307l135 25l8 -6v-326h322v-123zM532 1147h-77l-9 10l48 367l12 10h139l8 -10l-108 -367z" />
    <glyph glyph-name="Tbar" unicode="&#x166;" horiz-adv-x="1060" 
d="M1036 1200h-432v-475h242v-115h-242v-610h-147v610h-199v115h199v475h-432v131h1011v-131z" />
    <glyph glyph-name="tbar" unicode="&#x167;" horiz-adv-x="718" 
d="M678 901h-322v-295h273v-114h-273v-173q0 -100 45 -157.5t131 -57.5q45 0 86 27l11 -6l47 -98l-6 -11q-59 -41 -148 -41q-141 0 -225 94.5t-84 247.5v175h-172v114h172v295h-172v123h172v307l135 25l8 -6v-326h322v-123z" />
    <glyph glyph-name="Utilde" unicode="&#x168;" horiz-adv-x="1460" 
d="M171 1356q81 0 124 -51t43 -131v-650q0 -194 106 -304t296 -110t297 112q108 110 108 302v807h143v-811q0 -254 -146 -400t-402 -145q-255 -1 -402 145t-148 400v602q0 100 -49 101q-23 0 -37 -15l-10 4l-31 105q27 39 108 39zM528 1659q72 0 208 -37t177 -37
q92 0 129 74h11l61 -105v-10q-70 -86 -201 -86q-67 0 -191 37t-205 37t-118 -74h-10l-61 105v10q69 86 200 86z" />
    <glyph glyph-name="utilde" unicode="&#x169;" horiz-adv-x="1220" 
d="M586 -25q-200 0 -308 110q-110 110 -110 294v444q0 100 -47 101q-20 0 -35 -15l-10 4l-29 99q22 37 103 37q80 1 120 -47t41 -125v-484q0 -139 78 -214t209 -75t217 85t86 225v610h143v-823q0 -100 48 -101q20 0 34 15l11 -4l28 -99q-22 -37 -95 -37t-113 42t-48 110
q-123 -152 -323 -152zM422 1360q66 0 188 -36t160 -36q76 0 109 72h10l47 -105v-10q-61 -84 -166 -84q-57 0 -170 36q-112 36 -184 36t-105 -72h-8l-47 105v10q61 84 166 84z" />
    <glyph glyph-name="Umacron" unicode="&#x16a;" horiz-adv-x="1460" 
d="M171 1356q81 0 124 -51t43 -131v-650q0 -194 106 -304t296 -110t297 112q108 110 108 302v807h143v-811q0 -254 -146 -400t-402 -145q-255 -1 -402 145t-148 400v602q0 100 -49 101q-23 0 -37 -15l-10 4l-31 105q27 39 108 39zM440 1614h561v-115h-561v115z" />
    <glyph glyph-name="umacron" unicode="&#x16b;" horiz-adv-x="1220" 
d="M586 -25q-200 0 -308 110q-110 110 -110 294v444q0 100 -47 101q-20 0 -35 -15l-10 4l-29 99q22 37 103 37q80 1 120 -47t41 -125v-484q0 -139 78 -214t209 -75t217 85t86 225v610h143v-823q0 -100 48 -101q20 0 34 15l11 -4l28 -99q-22 -37 -95 -37t-113 42t-48 110
q-123 -152 -323 -152zM872 1307v-123h-553v123h553z" />
    <glyph glyph-name="Uring" unicode="&#x16e;" horiz-adv-x="1460" 
d="M171 1356q81 0 124 -51t43 -131v-650q0 -194 106 -304t296 -110t297 112q108 110 108 302v807h143v-811q0 -254 -146 -400t-402 -145q-255 -1 -402 145t-148 400v602q0 100 -49 101q-23 0 -37 -15l-10 4l-31 105q27 39 108 39zM721 1534q39 0 67 30t29 68q0 38 -29 69
q-30 30 -68 30t-67 -30t-29 -69q0 -38 30 -68q28 -30 67 -30zM721 1436q-82 0 -141 57t-60 139q0 82 60 140t141 57q82 0 141 -57q60 -58 60 -140t-60 -139t-141 -57z" />
    <glyph glyph-name="uring" unicode="&#x16f;" horiz-adv-x="1220" 
d="M586 -25q-200 0 -308 110q-110 110 -110 294v444q0 100 -47 101q-20 0 -35 -15l-10 4l-29 99q22 37 103 37q80 1 120 -47t41 -125v-484q0 -139 78 -214t209 -75t217 85t86 225v610h143v-823q0 -100 48 -101q20 0 34 15l11 -4l28 -99q-22 -37 -95 -37t-113 42t-48 110
q-123 -152 -323 -152zM596 1415q-39 -1 -65 -27q-25 -26 -25 -63t26 -63t64 -27q38 0 64 27q26 28 26 64t-26 62t-64 27zM596 1128q-86 0 -144 58t-59 139q1 82 59 139q58 58 144 58t144 -58t58 -139t-58 -139t-144 -58z" />
    <glyph glyph-name="Uhungarumlaut" unicode="&#x170;" horiz-adv-x="1460" 
d="M171 1356q81 0 124 -51t43 -131v-650q0 -194 106 -304t296 -110t297 112q108 110 108 302v807h143v-811q0 -254 -146 -400t-402 -145q-255 -1 -402 145t-148 400v602q0 100 -49 101q-23 0 -37 -15l-10 4l-31 105q27 39 108 39zM920 1802l12 10h139l8 -10l-207 -348
l-12 -10h-78l-8 10zM649 1802l13 10h139l8 -10l-207 -348l-12 -10h-78l-8 10z" />
    <glyph glyph-name="uhungarumlaut" unicode="&#x171;" horiz-adv-x="1220" 
d="M586 -25q-200 0 -308 110q-110 110 -110 294v444q0 100 -47 101q-20 0 -35 -15l-10 4l-29 99q22 37 103 37q80 1 120 -47t41 -125v-484q0 -139 78 -214t209 -75t217 85t86 225v610h143v-823q0 -100 48 -101q20 0 34 15l11 -4l28 -99q-22 -37 -95 -37t-113 42t-48 110
q-123 -152 -323 -152zM657 1145l-8 10l146 348l12 10h139l8 -10l-206 -348l-13 -10h-78zM465 1145h-78l-8 10l145 348l13 10h139l8 -10l-207 -348z" />
    <glyph glyph-name="Uogonek" unicode="&#x172;" horiz-adv-x="1460" 
d="M171 1356q81 0 124 -51t43 -131v-650q0 -194 106 -304t296 -110t297 112q108 110 108 302v807h143v-811q0 -174 -70 -299t-200 -188q-54 -45 -67 -57t-32 -29q-19 -15 -29 -27t-26 -28q-52 -52 -53 -95q0 -43 22 -67q21 -24 61 -25q40 -2 93 37h10l54 -68v-10
q-76 -66 -164 -66t-143 52q-54 51 -54 134t121 196q-45 -4 -70 -5q-256 -1 -403 145t-148 400v602q0 100 -49 101q-23 0 -37 -15l-10 4l-31 105q27 39 108 39z" />
    <glyph glyph-name="uogonek" unicode="&#x173;" horiz-adv-x="1220" 
d="M150 1049q80 1 120 -47t41 -125v-484q0 -139 78 -214t209 -75t217 85t86 225v610h143v-823q0 -100 48 -101q20 0 34 15l11 -4l28 -99l-6 -10q-12 -10 -39 -34t-61 -52t-44 -42q-11 -13 -38 -46t-27 -70q0 -36 22 -60t62 -26t92 37h11l53 -67v-11q-76 -65 -164 -65
t-142 51t-55 131q0 43 32 93t61 77t77 70q-76 33 -90 139q-123 -152 -323 -152t-308 110q-110 110 -110 294v444q0 100 -47 101q-20 0 -35 -15l-10 4l-29 99q23 37 103 37z" />
    <glyph glyph-name="Wcircumflex" unicode="&#x174;" horiz-adv-x="2013" 
d="M123 1356q143 0 203 -187l288 -911l326 1073h133l326 -1073l293 911q59 186 200 187q70 0 109 -29l6 -10l-35 -105l-10 -4q-24 14 -52 14t-44 -18t-35 -74l-389 -1130h-82l-352 1108l-355 -1108h-82l-391 1130q-18 52 -34 72t-43 20q-28 0 -52 -14l-10 4l-35 105
q23 39 117 39zM725 1430h-10l-53 81v11l329 186h17l329 -186v-11l-53 -81h-10l-275 137z" />
    <glyph glyph-name="wcircumflex" unicode="&#x175;" horiz-adv-x="1847" 
d="M1016 399q0 -295 270 -295q136 0 224 112t96 284t-35 310q-43 140 -115 220v10l105 80h10q90 -92 141 -257t43 -339q-12 -252 -142 -400t-344 -148t-325 167q-117 -168 -350 -168q-186 0 -303 110t-117 294v444q0 100 -47 101q-20 0 -35 -15l-10 4l-29 99q22 37 102 37
q79 1 121 -47t41 -125v-478q0 -145 71 -220t200 -75t207 81t77 216v623h144v-625zM698 1147h-10l-61 78v10l303 190h28l304 -190v-10l-62 -78h-10l-246 141z" />
    <glyph glyph-name="Ycircumflex" unicode="&#x176;" horiz-adv-x="1368" 
d="M109 1356q75 0 125 -44t116 -143l338 -512l336 512q43 66 70 99q72 88 163 88q58 0 93 -29l6 -10l-35 -105l-10 -4q-20 14 -49 15q-47 0 -109 -93l-393 -589v-541h-148v532l-399 598q-61 92 -109 93q-27 0 -49 -15l-10 4l-35 105q23 39 99 39zM408 1430h-11l-53 81v11
l330 186h16l330 -186v-11l-53 -81h-11l-274 137z" />
    <glyph glyph-name="ycircumflex" unicode="&#x177;" horiz-adv-x="1177" 
d="M132 1049q79 1 121 -47t42 -125v-394q0 -129 75 -199q76 -70 204 -71q128 0 220 86q91 86 91 223v502h143v-858q0 -227 -136 -350t-335 -123q-272 0 -432 221v10l78 84h10q131 -186 344 -186q145 0 237 89q91 89 91 251v55q-133 -133 -327 -133t-300 107
q-106 108 -106 298v334q0 100 -48 101q-20 0 -34 -15l-11 4l-28 99q22 37 101 37zM311 1147h-10l-61 78v10l303 190h28l303 -190v-10l-61 -78h-10l-246 141z" />
    <glyph glyph-name="Ydieresis" unicode="&#x178;" horiz-adv-x="1368" 
d="M109 1356q75 0 125 -44t116 -143l338 -512l336 512q43 66 70 99q72 88 163 88q58 0 93 -29l6 -10l-35 -105l-10 -4q-20 14 -49 15q-47 0 -109 -93l-393 -589v-541h-148v532l-399 598q-61 92 -109 93q-27 0 -49 -15l-10 4l-35 105q23 39 99 39zM889 1448q-49 0 -84 35
t-35 84t35 84t84 35t84 -35t35 -84t-35 -84t-84 -35zM487 1448q-49 0 -84 35t-34 84q0 49 34 84q35 35 84 35t84 -35t35 -84t-35 -84t-84 -35z" />
    <glyph glyph-name="Zacute" unicode="&#x179;" horiz-adv-x="1202" 
d="M1139 155q1 -75 -51 -115t-132 -40h-901v82l834 1122h-791v127h996v-82l-834 -1122h645q100 0 101 49q0 23 -15 37l4 10l105 31q39 -24 39 -99zM737 1774h11l73 -111v-10l-393 -203h-10l-47 70v10z" />
    <glyph glyph-name="zacute" unicode="&#x17a;" horiz-adv-x="946" 
d="M98 1024h758v-98l-614 -807h458q84 0 84 45q0 20 -16 37l4 10l96 29l13 -4q29 -33 28 -97q0 -139 -182 -139h-664v98l615 807h-580v119zM600 1503h10l84 -106v-11l-370 -239h-11l-53 67v11z" />
    <glyph glyph-name="Zdotaccent" unicode="&#x17b;" horiz-adv-x="1202" 
d="M1139 155q1 -75 -51 -115t-132 -40h-901v82l834 1122h-791v127h996v-82l-834 -1122h645q100 0 101 49q0 23 -15 37l4 10l105 31q39 -24 39 -99zM596 1450q-47 0 -82 35t-35 82t35 83t82 36t83 -36t36 -83t-36 -82t-83 -35z" />
    <glyph glyph-name="zdotaccent" unicode="&#x17c;" horiz-adv-x="946" 
d="M98 1024h758v-98l-614 -807h458q84 0 84 45q0 20 -16 37l4 10l96 29l13 -4q29 -33 28 -97q0 -139 -182 -139h-664v98l615 807h-580v119zM477 1145q-49 0 -84 35t-35 84t35 84q35 34 84 34t84 -34t35 -84q0 -49 -35 -84t-84 -35z" />
    <glyph glyph-name="Zcaron" unicode="&#x17d;" horiz-adv-x="1202" 
d="M1139 155q1 -75 -51 -115t-132 -40h-901v82l834 1122h-791v127h996v-82l-834 -1122h645q100 0 101 49q0 23 -15 37l4 10l105 31q39 -24 39 -99zM604 1450h-16l-330 186v11l53 82h11l274 -138l274 138h11l53 -82v-11z" />
    <glyph glyph-name="zcaron" unicode="&#x17e;" horiz-adv-x="946" 
d="M727 0h-664v98l615 807h-580v119h758v-98l-614 -807h458q84 0 84 45q0 20 -16 37l4 10l96 29l13 -4q29 -33 28 -97q0 -139 -182 -139zM492 1147h-29l-303 190v11l61 77h10l246 -141l246 141h10l62 -77v-11z" />
    <glyph glyph-name="uni01EA" unicode="&#x1ea;" horiz-adv-x="1589" 
d="M244 666q0 -242 158 -399t393 -157t393 158q158 156 158 398t-158 398t-394 157q-236 -1 -392 -157q-158 -156 -158 -398zM885 -207q-1 -37 21 -61t62 -25q40 -2 93 37h10l53 -68v-10q-76 -66 -164 -66t-142 52q-54 51 -54 134t121 196q-43 -6 -90 -7q-299 0 -501 198
t-202 493q0 294 202 492t501 198t501 -198t201 -492q1 -213 -109 -380t-294 -249q-12 -10 -39 -34q-30 -26 -64 -55q-34 -28 -70 -73t-36 -82z" />
    <glyph glyph-name="uni01EB" unicode="&#x1eb;" horiz-adv-x="1253" 
d="M231 512q0 -176 112 -291t284 -115t283.5 115t111.5 291t-111.5 291t-283.5 115t-284 -115t-112 -291zM586 -255q0 -26 21.5 -49.5t61.5 -25.5t93 37h10l53 -67v-11q-76 -66 -164 -65.5t-142 51.5t-54 138t158 222q-231 2 -385 156t-154 381t154.5 382t388 155t388 -155
t154.5 -382q0 -182 -103 -322.5t-271 -189.5q-18 -15 -54 -46.5t-59 -51t-33 -31.5t-24.5 -29.5t-21.5 -30t-12 -26.5t-5 -40z" />
    <glyph glyph-name="AEacute" unicode="&#x1fc;" horiz-adv-x="1976" 
d="M1024 432v748l-561 -748h561zM1888 1200h-717v-463h568v-131h-568v-475h717v-131h-864v301h-659l-226 -301h-170l983 1331h936v-131zM1315 1450h-10l-48 70v10l367 244h10l74 -111v-10z" />
    <glyph glyph-name="aeacute" unicode="&#x1fd;" horiz-adv-x="1951" 
d="M836 387v82q-143 57 -290 57t-233 -58t-86 -155.5t79 -152t202 -54.5t225.5 76t102.5 205zM1360.5 918q-150.5 0 -251.5 -86.5t-122 -239.5h739q-18 158 -116.5 242t-249 84zM1382 106q102 0 203 41t160 117h10l92 -78v-10q-74 -98 -200.5 -149.5t-265 -51.5t-263.5 61.5
t-198 174.5q-55 -113 -179.5 -174.5t-278 -61.5t-269 88.5t-115.5 252t128 248.5t311 85t319 -57v70q0 125 -94.5 190.5t-205 65.5t-182 -32t-145.5 -102h-10l-90 80v10q174 174 423 175q127 0 240 -50.5t166 -156.5q150 207 422 207q227 0 371.5 -149.5t144.5 -367.5
q0 -34 -4 -63h-887q12 -170 127 -266.5t270 -96.5zM801 1147h-10l-54 67v11l340 278h10l84 -106v-11z" />
    <glyph glyph-name="Oslashacute" unicode="&#x1fe;" horiz-adv-x="1589" 
d="M795 111q235 1 393 157t158 412t-191 414l-614 -926q119 -57 254 -57zM244 656q0 -252 182 -412l616 923q-113 53 -247 54q-235 -1 -393 -157t-158 -408zM1497 666q0 -295 -202 -493t-500 -198q-182 0 -330 76l-103 -153h-151l-4 16l141 211q-121 96 -188 236
q-68 140 -68 305q0 294 202 492t501 198q172 0 323 -74l111 166h147l4 -16l-145 -220q123 -96 193 -237t69 -309zM625 1450h-11l-47 70v10l367 244h10l74 -111v-10z" />
    <glyph glyph-name="oslashacute" unicode="&#x1ff;" horiz-adv-x="1253" 
d="M627 106q172 0 283.5 115t111.5 290t-111 292l-460 -660q88 -37 176 -37zM231 510q0 -178 113 -291l461 660q-84 39 -178 39q-172 0 -284 -115t-112 -293zM1169 522q0 -237 -154.5 -392t-387.5 -155q-135 0 -254 58l-88 -127h-146l-8 8l133 192q-180 154 -180 393.5
t154.5 394.5t388.5 155q141 0 256 -60l108 156h146l8 -8l-154 -222q178 -156 178 -393zM473 1147h-10l-53 67v11l340 278h10l84 -106v-11z" />
    <glyph glyph-name="Scommaaccent" unicode="&#x218;" horiz-adv-x="1107" 
d="M469 -109l12 11h140l8 -11l-101 -335l-12 -11h-82l-8 11zM129 1002q0 152 120 253t306 101q272 0 428 -205v-10l-92 -86h-10q-133 166 -326 166q-119 0 -196.5 -57.5t-77.5 -145.5t66.5 -139t188 -98.5t136 -52.5t63.5 -27.5t65.5 -33t56.5 -35t55.5 -43t41 -47t45 -82
t19.5 -114.5q0 -168 -126 -269.5t-303.5 -101.5t-306 66t-210.5 172v10l88 92h10q166 -205 391 -204q137 0 221 64.5t84 161.5t-74.5 153t-182 98t-165.5 65q-112 43 -204 113q-112 84 -111 236z" />
    <glyph glyph-name="scommaaccent" unicode="&#x219;" horiz-adv-x="884" 
d="M354 -109l13 11h139l8 -11l-100 -335l-13 -11h-82l-8 11zM417 1049q128 0 216 -43t135 -113v-10l-92 -76h-10q-84 113 -236 113q-82 0 -129 -38t-47 -98.5t53.5 -102.5t163.5 -81q86 -34 123 -52q36 -18 100 -60q116 -77 116.5 -216t-103 -218t-256.5 -79
q-244 0 -388 187v10l93 76h10q88 -143 274 -144q98 0 161 44.5t63 110.5t-50.5 110.5t-171.5 90.5q-120 46 -160 66t-86 54q-90 66 -90 188.5t91.5 201.5t219.5 79z" />
    <glyph glyph-name="uni021A" unicode="&#x21a;" horiz-adv-x="1060" 
d="M449 -109l12 11h139l8 -11l-100 -335l-12 -11h-82l-8 11zM604 1200v-1200h-147v1200h-432v131h1011v-131h-432z" />
    <glyph glyph-name="uni021B" unicode="&#x21b;" horiz-adv-x="718" 
d="M383 -98h139l8 -11l-100 -335l-12 -11h-82l-8 11l43 335zM678 901h-322v-582q0 -100 45 -157.5t131 -57.5q45 0 86 27l11 -6l47 -98l-6 -11q-59 -41 -148 -41q-141 0 -225 94.5t-84 247.5v584h-172v123h172v307l135 25l8 -6v-326h322v-123z" />
    <glyph glyph-name="uni0237" unicode="&#x237;" horiz-adv-x="485" 
d="M332 1024v-987q0 -135 -53 -213t-162 -131h-8l-56 108v9q135 68 135 206v885h-135v123h279z" />
    <glyph glyph-name="uni02BC" unicode="&#x2bc;" horiz-adv-x="385" 
d="M154 1466l12 11h139l8 -11l-108 -336l-12 -10h-78l-9 10z" />
    <glyph glyph-name="circumflex" unicode="&#x2c6;" horiz-adv-x="757" 
d="M414 1425l303 -190v-10l-62 -78h-10l-246 141l-245 -141h-11l-61 78v10l303 190h29z" />
    <glyph glyph-name="caron" unicode="&#x2c7;" horiz-adv-x="778" 
d="M655 1425l62 -77v-11l-303 -190h-29l-303 190v11l61 77h11l245 -141l246 141h10z" />
    <glyph glyph-name="breve" unicode="&#x2d8;" horiz-adv-x="741" 
d="M369 1147q-121 0 -203 75t-96 195h125q12 -73 60 -115t114 -42q65 0 113 43t61 114h125q-14 -121 -96 -195t-203 -75z" />
    <glyph glyph-name="dotaccent" unicode="&#x2d9;" horiz-adv-x="317" 
d="M160 1145q-49 0 -84 35t-35 84t35 84q35 34 84 34t84 -34t35 -84q0 -49 -35 -84t-84 -35z" />
    <glyph glyph-name="ring" unicode="&#x2da;" horiz-adv-x="565" 
d="M283 1235q39 0 65 27q26 28 25 64q0 36 -26 63q-27 27 -65 27t-64 -28q-26 -26 -26 -63t26 -63t65 -27zM283 1128q-87 0 -145 58t-58 139q0 82 58 139q58 58 144 58t145 -58q58 -58 58 -139t-58 -139t-144 -58z" />
    <glyph glyph-name="ogonek" unicode="&#x2db;" horiz-adv-x="524" 
d="M258 -430q-88 0 -142 51t-54 139t174 234l12 12h143q-12 -10 -39 -34t-58 -49t-45 -41q-13 -17 -40 -50t-27 -70q0 -36 22 -60t62 -26t92 37h11l53 -67v-11q-76 -65 -164 -65z" />
    <glyph glyph-name="tilde" unicode="&#x2dc;" horiz-adv-x="843" 
d="M248 1360q66 0 188 -36t160 -36q76 0 109 72h10l47 -105v-10q-61 -84 -166 -84q-59 0 -172 36q-114 36 -184 36t-103 -72h-8l-47 105v10q62 84 166 84z" />
    <glyph glyph-name="hungarumlaut" unicode="&#x2dd;" horiz-adv-x="737" 
d="M492 1503l12 10h139l8 -10l-207 -348l-12 -10h-78l-8 10zM221 1503l12 10h140l8 -10l-207 -348l-12 -10h-78l-8 10z" />
    <glyph glyph-name="uni0326" unicode="&#x326;" horiz-adv-x="0" 
d="M-246 -115l13 11h139l8 -11l-100 -336l-13 -10h-82l-8 10z" />
    <glyph glyph-name="Wgrave" unicode="&#x1e80;" horiz-adv-x="2013" 
d="M123 1356q143 0 203 -187l288 -911l326 1073h133l326 -1073l293 911q59 186 200 187q70 0 109 -29l6 -10l-35 -105l-10 -4q-24 14 -52 14t-44 -18t-35 -74l-389 -1130h-82l-352 1108l-355 -1108h-82l-391 1130q-18 52 -34 72t-43 20q-28 0 -52 -14l-10 4l-35 105
q23 39 117 39zM864 1774l367 -244v-10l-47 -70h-10l-394 203v10l74 111h10z" />
    <glyph glyph-name="wgrave" unicode="&#x1e81;" horiz-adv-x="1847" 
d="M1016 399q0 -295 270 -295q136 0 224 112t96 284t-35 310q-43 140 -115 220v10l105 80h10q90 -92 141 -257t43 -339q-12 -252 -142 -400t-344 -148t-325 167q-117 -168 -350 -168q-186 0 -303 110t-117 294v444q0 100 -47 101q-20 0 -35 -15l-10 4l-29 99q22 37 102 37
q79 1 121 -47t41 -125v-478q0 -145 71 -220t200 -75t207 81t77 216v623h144v-625zM1108 1147h-10l-371 239v11l84 106h10l340 -278v-11z" />
    <glyph glyph-name="Wacute" unicode="&#x1e82;" horiz-adv-x="2013" 
d="M123 1356q143 0 203 -187l288 -911l326 1073h133l326 -1073l293 911q59 186 200 187q70 0 109 -29l6 -10l-35 -105l-10 -4q-24 14 -52 14t-44 -18t-35 -74l-389 -1130h-82l-352 1108l-355 -1108h-82l-391 1130q-18 52 -34 72t-43 20q-28 0 -52 -14l-10 4l-35 105
q23 39 117 39zM1147 1774h10l74 -111v-10l-393 -203h-11l-47 70v10z" />
    <glyph glyph-name="wacute" unicode="&#x1e83;" horiz-adv-x="1847" 
d="M1016 399q0 -295 270 -295q136 0 224 112t96 284t-35 310q-43 140 -115 220v10l105 80h10q90 -92 141 -257t43 -339q-12 -252 -142 -400t-344 -148t-325 167q-117 -168 -350 -168q-186 0 -303 110t-117 294v444q0 100 -47 101q-20 0 -35 -15l-10 4l-29 99q22 37 102 37
q79 1 121 -47t41 -125v-478q0 -145 71 -220t200 -75t207 81t77 216v623h144v-625zM791 1147h-11l-53 67v11l340 278h10l84 -106v-11z" />
    <glyph glyph-name="Wdieresis" unicode="&#x1e84;" horiz-adv-x="2013" 
d="M123 1356q143 0 203 -187l288 -911l326 1073h133l326 -1073l293 911q59 186 200 187q70 0 109 -29l6 -10l-35 -105l-10 -4q-24 14 -52 14t-44 -18t-35 -74l-389 -1130h-82l-352 1108l-355 -1108h-82l-391 1130q-18 52 -34 72t-43 20q-28 0 -52 -14l-10 4l-35 105
q23 39 117 39zM1206 1448q-49 0 -84 35t-35 84t35 84t84 35t84 -35t35 -84t-35 -84t-84 -35zM805 1448q-49 0 -84 35t-35 84t35 84t84 35t84 -35t35 -84t-35 -84t-84 -35z" />
    <glyph glyph-name="wdieresis" unicode="&#x1e85;" horiz-adv-x="1847" 
d="M1016 399q0 -295 270 -295q136 0 224 112t96 284t-35 310q-43 140 -115 220v10l105 80h10q90 -92 141 -257t43 -339q-12 -252 -142 -400t-344 -148t-325 167q-117 -168 -350 -168q-186 0 -303 110t-117 294v444q0 100 -47 101q-20 0 -35 -15l-10 4l-29 99q22 37 102 37
q79 1 121 -47t41 -125v-478q0 -145 71 -220t200 -75t207 81t77 216v623h144v-625zM1124 1145q-49 0 -84 35t-34 84q0 49 34 84q35 34 84 34t84 -34t35 -84q0 -49 -35 -84t-84 -35zM764 1145q-49 0 -84 35t-35 84t35 84q35 34 84 34t84 -34t35 -84q0 -49 -35 -84t-84 -35z
" />
    <glyph glyph-name="uni1E9E" unicode="&#x1e9e;" horiz-adv-x="1284" 
d="M1196 387q0 -164 -121 -288t-330 -124q-168 0 -319 91l-4 10l70 96l10 2q104 -70 238 -70t220 86q84 86 84 209t-90 205t-256 82h-67v135l278 326q-91 74 -247 74q-156 -1 -249 -107t-94 -301v-813h-147v817q0 252 137 395t371 144q287 0 418 -217l-281 -324
q182 -27 281 -145q98 -119 98 -283z" />
    <glyph glyph-name="Ygrave" unicode="&#x1ef2;" horiz-adv-x="1368" 
d="M109 1356q75 0 125 -44t116 -143l338 -512l336 512q43 66 70 99q72 88 163 88q58 0 93 -29l6 -10l-35 -105l-10 -4q-20 14 -49 15q-47 0 -109 -93l-393 -589v-541h-148v532l-399 598q-61 92 -109 93q-27 0 -49 -15l-10 4l-35 105q23 39 99 39zM866 1450h-10l-393 203v10
l74 111h10l366 -244v-10z" />
    <glyph glyph-name="ygrave" unicode="&#x1ef3;" horiz-adv-x="1177" 
d="M132 1049q79 1 121 -47t42 -125v-394q0 -129 75 -199q76 -70 204 -71q128 0 220 86q91 86 91 223v502h143v-858q0 -227 -136 -350t-335 -123q-272 0 -432 221v10l78 84h10q131 -186 344 -186q145 0 237 89q91 89 91 251v55q-133 -133 -327 -133t-300 107
q-106 108 -106 298v334q0 100 -48 101q-20 0 -34 -15l-11 4l-28 99q22 37 101 37zM721 1147h-10l-371 239v11l84 106h10l340 -278v-11z" />
    <glyph glyph-name="uni1EF8" unicode="&#x1ef8;" horiz-adv-x="1368" 
d="M109 1356q75 0 125 -44t116 -143l338 -512l336 512q43 66 70 99q72 88 163 88q58 0 93 -29l6 -10l-35 -105l-10 -4q-20 14 -49 15q-47 0 -109 -93l-393 -589v-541h-148v532l-399 598q-61 92 -109 93q-27 0 -49 -15l-10 4l-35 105q23 39 99 39zM496 1659q72 0 208 -37
t177 -37q92 0 129 74h10l61 -105v-10q-70 -86 -200 -86q-66 0 -191 37q-126 37 -206 37t-117 -74h-11l-61 105v10q70 86 201 86z" />
    <glyph glyph-name="uni1EF9" unicode="&#x1ef9;" horiz-adv-x="1177" 
d="M132 1049q79 1 121 -47t42 -125v-394q0 -129 75 -199q76 -70 204 -71q128 0 220 86q91 86 91 223v502h143v-858q0 -227 -136 -350t-335 -123q-272 0 -432 221v10l78 84h10q131 -186 344 -186q145 0 237 89q91 89 91 251v55q-133 -133 -327 -133t-300 107
q-106 108 -106 298v334q0 100 -48 101q-20 0 -34 -15l-11 4l-28 99q22 37 101 37zM383 1360q67 0 189 -36t159 -36q76 0 109 72h10l47 -105v-10q-61 -84 -166 -84q-59 0 -172 36t-183 36t-104 -72h-8l-47 105v10q61 84 166 84z" />
    <glyph glyph-name="endash" unicode="&#x2013;" horiz-adv-x="1167" 
d="M133 674h901v-119h-901v119z" />
    <glyph glyph-name="emdash" unicode="&#x2014;" horiz-adv-x="1474" 
d="M133 674h1208v-119h-1208v119z" />
    <glyph glyph-name="quoteleft" unicode="&#x2018;" horiz-adv-x="450" 
d="M215 930q-51 0 -84 34t-35 94t31 128q33 70 133 211h14l76 -56v-10q-74 -111 -86 -174q70 -31 70 -108q0 -51 -34 -85t-85 -34z" />
    <glyph glyph-name="quoteright" unicode="&#x2019;" horiz-adv-x="446" 
d="M242 1405q51 0 84 -34q32 -33 34 -93t-30 -130t-133 -210h-15l-76 55v11q74 111 87 174q-70 31 -70 108q0 51 34 85t85 34z" />
    <glyph glyph-name="quotesinglbase" unicode="&#x201a;" horiz-adv-x="468" 
d="M233 203q51 0 84 -34q33 -33 35 -93t-30 -130t-134 -210h-14l-76 55v10q74 111 86 174q-70 31 -69 109q0 51 33 85q34 34 85 34z" />
    <glyph glyph-name="quotedblleft" unicode="&#x201c;" horiz-adv-x="780" 
d="M545 930q-51 0 -84 34t-35 94t31 128q33 70 133 211h14l76 -56v-10q-74 -111 -86 -174q70 -31 70 -108q0 -51 -34 -85t-85 -34zM215 930q-51 0 -84 34t-35 94t31 128q33 70 133 211h14l76 -56v-10q-74 -111 -86 -174q70 -31 70 -108q0 -51 -34 -85t-85 -34z" />
    <glyph glyph-name="quotedblright" unicode="&#x201d;" horiz-adv-x="776" 
d="M571 1405q51 0 84 -34q33 -33 35 -93t-31 -130t-133 -210h-14l-76 55v11q74 111 86 174q-70 31 -69 108q0 51 33 85q34 34 85 34zM242 1405q51 0 84 -34q32 -33 34 -93t-30 -130t-133 -210h-15l-76 55v11q74 111 87 174q-70 31 -70 108q0 51 34 85t85 34z" />
    <glyph glyph-name="quotedblbase" unicode="&#x201e;" horiz-adv-x="798" 
d="M563 201q51 0 84 -34q33 -33 35 -93t-31 -130t-133 -210h-14l-76 55v10q74 111 86 174q-70 31 -70 109q0 51 34 85t85 34zM233 201q51 0 84 -34q33 -33 35 -93t-30 -130t-134 -210h-14l-76 55v10q74 111 86 174q-70 31 -69 109q0 51 33 85q34 34 85 34z" />
    <glyph glyph-name="dagger" unicode="&#x2020;" horiz-adv-x="1003" 
d="M891 930v-127h-316v-1122h-147v1122h-315v127h315v422h147v-422h316z" />
    <glyph glyph-name="daggerdbl" unicode="&#x2021;" horiz-adv-x="1003" 
d="M891 803h-316v-574h316v-127h-316v-421h-147v421h-315v127h315v574h-315v127h315v422h147v-422h316v-127z" />
    <glyph glyph-name="bullet" unicode="&#x2022;" horiz-adv-x="770" 
d="M385 354q-94 0 -160 66t-65 160q0 94 66 160t159 65q94 0 160 -66q65 -65 65 -159t-66 -160t-159 -66z" />
    <glyph glyph-name="ellipsis" unicode="&#x2026;" horiz-adv-x="1179" 
d="M952 0q-49 0 -84 35t-34 84q0 49 34 84q35 35 84 35t84 -35t35 -84t-35 -84t-84 -35zM592 0q-49 0 -84 35t-35 84t35 84t84 35t84 -35t35 -84t-35 -84t-84 -35zM227 0q-49 0 -84 35t-34 84q0 49 34 84q35 35 84 35t84 -35t35 -84t-35 -84t-84 -35z" />
    <glyph glyph-name="perthousand" unicode="&#x2030;" horiz-adv-x="2295" 
d="M1227 94q78 0 124 73t46 193t-46 194q-46 73 -124 73t-124 -73t-46 -194q0 -122 46 -194t124 -72zM1927 72q86 0 132 76t46 212q0 135 -46 212t-132 77t-132 -77t-46 -212q0 -136 46 -212t132 -76zM1927 -25q-135 1 -218 107t-83 278t83 278t218 107q135 0 218 -106
q83 -107 83 -279t-83 -278t-218 -107zM1227 -25q-135 -1 -217 105t-82 280t82 280t217 105q135 0 217 -105q82 -106 82 -280t-82 -280t-217 -105zM373 705q78 1 124 73t46 193t-46 193t-124 73q-78 0 -124 -73q-46 -74 -46 -194t46 -192t124 -73zM221 16l1016 1315h133
l4 -16l-1016 -1315h-133zM373 586q-135 0 -217 105t-82 279t82 280t217 106t217 -106t82 -279t-82 -279t-217 -106z" />
    <glyph glyph-name="guilsinglleft" unicode="&#x2039;" horiz-adv-x="602" 
d="M481 907v-8l-241 -287l241 -286v-9l-75 -75h-11l-309 356v29l309 356h11z" />
    <glyph glyph-name="guilsinglright" unicode="&#x203a;" horiz-adv-x="602" 
d="M207 983l309 -356v-29l-309 -356h-10l-76 75v9l241 286l-241 287v8l76 76h10z" />
    <glyph glyph-name="fraction" unicode="&#x2044;" horiz-adv-x="1150" 
d="M4 16l1016 1315h133l4 -16l-1016 -1315h-133z" />
    <glyph glyph-name="Euro" unicode="&#x20ac;" horiz-adv-x="1613" 
d="M973 -25q-233 0 -415 131q-181 131 -247 343h-243l-5 8l50 110h172q-6 49 -6 87t4 81h-174l-5 8l50 111h149q59 222 243 362t421 140q168 0 310 -71t239 -195v-11l-99 -71h-10q-155 216 -459 216q-156 0 -298 -100q-140 -102 -195 -270h680l4 -8l-49 -111h-660
q-4 -45 -4 -85t8 -83h660l4 -8l-49 -110h-582q61 -156 199 -249q138 -94 288 -94q298 -1 453 218h10l99 -80l2 -11q-94 -123 -236 -191t-309 -67z" />
    <glyph glyph-name="trademark" unicode="&#x2122;" horiz-adv-x="1482" 
d="M1352 664h-111l-45 409l-180 -409h-84l-178 409l-45 -409h-111l74 667h82l221 -508l221 508h82zM68 1245v86h507v-86h-196v-581h-117v581h-194z" />
    <glyph glyph-name="minus" unicode="&#x2212;" horiz-adv-x="1220" 
d="M139 725h942v-119h-942v119z" />
    <glyph glyph-name="approxequal" unicode="&#x2248;" horiz-adv-x="1224" 
d="M842 403q-76 0 -228 36t-219 36q-129 0 -176 -72h-10l-68 93v10q29 31 49 47q20 17 68 33t127 16q78 0 244 -36t219 -36q113 0 160 72h10l67 -92v-10q-31 -33 -49 -47t-68 -32t-126 -18zM842 727q-76 0 -228 36t-219 36q-127 0 -176 -72h-10l-68 92v10q29 31 49 47t68 33
t127 17q78 0 244 -36t219 -36q113 0 160 72h10l67 -92v-11q-31 -33 -49 -47t-68 -32t-126 -17z" />
    <glyph glyph-name="notequal" unicode="&#x2260;" horiz-adv-x="1224" 
d="M1081 772h-321l-127 -211h448v-119h-520l-178 -299h-139l-4 17l170 282h-271v119h340l127 211h-467v119h537l145 242h140l4 -17l-136 -225h252v-119z" />
    <glyph glyph-name="uniF8FF" unicode="&#xf8ff;" horiz-adv-x="2758" 
d="M1305 381q-47 0 -48 -62q0 -17 9 -55q79 12 77 74q0 43 -38 43zM1884 350v8q2 4 2 9q0 39 -37 39q-45 0 -45 -56h80zM2200 518q14 0 14 12t-14 13h-17v-25h17zM2167 557h33q31 0 30 -25q0 -18 -16 -24l16 -27h-18l-14 23h-15v-23h-16v76zM2195 457q25 0 43 18t19 43
q-1 25 -19 43q-18 19 -43 19t-43 -18t-18 -44q0 -25 18 -43t43 -18zM2120 518q0 32 22 54t54 22q30 0 53 -23t23 -53t-24 -54q-22 -22 -53 -22t-53 22t-22 54zM1591 346q0 260 252 260q105 0 167 -61t63 -172q0 -19 -11 -74h-245q6 -50 88 -50q81 1 106 32v-150
q-4 -4 -44 -18t-103 -15q-137 0 -205 67t-68 181zM1040 12q0 295 11 420l12 158h160l6 -60q8 -43 8 -94q29 170 160 170q75 0 117 -60t42 -182t-68 -194t-192 -72q0 -14 2 -22l2 -64h-260zM717 590q-4 -78 -4 -216q0 -54 32 -55q31 0 31 54l-2 60v50q-2 31 -2 107h217l6 -82
q6 -78 6 -220q1 -142 -73 -209t-234 -67q-88 0 -133 14t-57 29v170q45 -37 136 -38t136 36q20 16 23 37q-8 -6 -23 -16q-33 -14 -94 -15q-190 0 -190 152v16h-93l4 -125q25 0 58 13v-152q-33 -33 -137 -35q-150 0 -150 131l4 168h-55v170l248 82l8 -59h338zM2389 817
q48 1 48 59t-48 58t-48 -58t48 -59zM664 817q49 1 49 59t-49 58q-43 0 -43 -58t43 -59zM2142 901q0 254 246 254q140 0 194 -68q54 -67 54 -183t-62 -182t-185 -65q-123 -1 -185 65t-62 179zM1599 670q0 320 23 477h156l6 -51q6 -92 6 -101l4 21q17 50 39 80q45 59 125 59
t114 -48t35 -159l4 -278h-229l4 192q0 51 -33 51t-32 -51l10 -192h-232zM586 657q-182 0 -183 230q-1 133 63 201t208 67q238 0 237 -229v-256h-155l-19 118q-25 -131 -151 -131zM938 965v170l238 73l8 -61h352q8 -105 12 -157t4 -320h-233q0 248 4 295h-117l4 -129
q0 -4 20 -4q20 -1 38 8v-148q-2 -8 -30 -21t-97 -14q-160 0 -160 131l4 177h-47zM127 670q0 303 10 446l13 182h194q2 -46 11 -210t10 -418h-238zM1436 1174q-53 0 -87 36t-34 87q0 52 34 87t87 35t87 -35q33 -35 33 -87t-33 -88q-34 -35 -87 -35z" />
    <glyph glyph-name="H.ss01" horiz-adv-x="1513" 
d="M184 1356q82 0 125 -51t43 -131v-437h809v594h148v-1122q0 -100 49 -100q23 0 37 14l10 -4l31 -105q-23 -39 -106 -39q-83 -1 -126 51t-43 132v448h-809v-606h-147v1122q0 100 -49 101q-23 0 -37 -15l-10 4l-31 105q24 39 106 39z" />
    <glyph glyph-name="Hbar.ss01" horiz-adv-x="1513" 
d="M352 737h809v205h-809v-205zM1161 158v448h-809v-606h-147v942h-111v115h111v65q0 100 -49 101q-23 0 -37 -15l-10 4l-31 105q23 39 106 39q82 0 125 -51t43 -131v-117h809v274h148v-274h112v-115h-112v-733q0 -100 49 -100q23 0 37 14l10 -4l31 -105q-23 -39 -106 -39
q-83 -1 -126 51t-43 132z" />
    <glyph glyph-name="N.ss01" horiz-adv-x="1497" 
d="M1163 1331h144v-1331h-82l-871 1040v-882q0 -80 -42 -131.5t-116 -51.5t-106 29l-6 10l31 105l10 4q14 -14 37 -14q49 0 49 100v1122h82l870 -1040v1040z" />
    <glyph glyph-name="Nacute.ss01" horiz-adv-x="1497" 
d="M1163 1331h144v-1331h-82l-871 1040v-882q0 -80 -42 -131.5t-116 -51.5t-106 29l-6 10l31 105l10 4q14 -14 37 -14q49 0 49 100v1122h82l870 -1040v1040zM600 1450h-10l-47 70v10l366 244h11l73 -111v-10z" />
    <glyph glyph-name="Ncaron.ss01" horiz-adv-x="1497" 
d="M1163 1331h144v-1331h-82l-871 1040v-882q0 -80 -42 -131.5t-116 -51.5t-106 29l-6 10l31 105l10 4q14 -14 37 -14q49 0 49 100v1122h82l870 -1040v1040zM776 1450h-16l-330 186v11l53 82h11l274 -138l274 138h11l53 -82v-11z" />
    <glyph glyph-name="Ncommaaccent.ss01" horiz-adv-x="1497" 
d="M690 -98h139l9 -11l-101 -335l-12 -11h-82l-8 11l43 335zM1163 1331h144v-1331h-82l-871 1040v-882q0 -80 -42 -131.5t-116 -51.5t-106 29l-6 10l31 105l10 4q14 -14 37 -14q49 0 49 100v1122h82l870 -1040v1040z" />
    <glyph glyph-name="Eng.ss01" horiz-adv-x="1497" 
d="M702 -182q88 -119 254 -119q84 0 147 61q62 61 62 179v133l-811 968v-882q0 -80 -42 -131t-116 -51t-106 28l-6 10l31 105l10 4q14 -14 37 -14q49 0 49 100v1122h82l870 -1040v1040h144v-1413q0 -162 -108 -258t-261 -96q-104 0 -198 44t-142 116v10l94 84h10z" />
    <glyph glyph-name="Ntilde.ss01" horiz-adv-x="1497" 
d="M1163 1331h144v-1331h-82l-871 1040v-882q0 -80 -42 -131.5t-116 -51.5t-106 29l-6 10l31 105l10 4q14 -14 37 -14q49 0 49 100v1122h82l870 -1040v1040zM575 1659q72 0 208.5 -37t177.5 -37q92 0 129 74h10l61 -105v-10q-70 -86 -200 -86q-63 0 -188.5 37t-207.5 37
t-119 -74h-10l-61 105v10q70 86 200 86z" />
    <glyph glyph-name="Q.ss01" horiz-adv-x="1589" 
d="M244 666q0 -242 158 -399t393 -157t393 158q158 156 158 398t-158 398t-394 157q-236 -1 -392 -157q-158 -156 -158 -398zM1288 -307q-106 0 -227 102q-18 16 -95 85t-113 82t-58 13q-299 0 -501 198t-202 493q0 294 202 492t501 198t501 -198t201 -492q0 -236 -133 -414
t-348 -244q34 -23 98 -79t79 -66q62 -41 115 -41q54 0 97 37l10 -4l55 -95l-4 -10q-72 -57 -178 -57z" />
    <glyph glyph-name="W.ss01" horiz-adv-x="1978" 
d="M105 1356q81 0 129 -44t90 -143l391 -925l188 442l-285 639l5 6h145l221 -526l221 526h146l4 -6l-285 -639l189 -442l391 925q41 99 89 143t119 44t109 -29l6 -10l-34 -105l-11 -4q-20 14 -45 14t-43 -18q-18 -20 -41 -74l-493 -1130h-82l-240 565l-239 -565h-82
l-494 1130q-23 52 -41 72q-37 40 -88 6l-10 4l-35 105q23 39 105 39z" />
    <glyph glyph-name="Wacute.ss01" horiz-adv-x="1978" 
d="M105 1356q81 0 129 -44t90 -143l391 -925l188 442l-285 639l5 6h145l221 -526l221 526h146l4 -6l-285 -639l189 -442l391 925q41 99 89 143t119 44t109 -29l6 -10l-34 -105l-11 -4q-20 14 -45 14t-43 -18q-18 -20 -41 -74l-493 -1130h-82l-240 565l-239 -565h-82
l-494 1130q-23 52 -41 72q-37 40 -88 6l-10 4l-35 105q23 39 105 39zM1130 1774h11l73 -111v-10l-393 -203h-10l-47 70v10z" />
    <glyph glyph-name="Wcircumflex.ss01" horiz-adv-x="1978" 
d="M105 1356q81 0 129 -44t90 -143l391 -925l188 442l-285 639l5 6h145l221 -526l221 526h146l4 -6l-285 -639l189 -442l391 925q41 99 89 143t118 44t110 -29l6 -10l-34 -105l-11 -4q-20 14 -45 14t-43 -18q-18 -20 -41 -74l-493 -1130h-82l-240 565l-239 -565h-82
l-494 1130q-23 52 -41 72q-37 40 -88 6l-10 4l-35 105q23 39 105 39zM709 1430h-11l-53 81v11l330 186h16l330 -186v-11l-53 -81h-11l-274 137z" />
    <glyph glyph-name="Wdieresis.ss01" horiz-adv-x="1978" 
d="M105 1356q81 0 129 -44t90 -143l391 -925l188 442l-285 639l5 6h145l221 -526l221 526h146l4 -6l-285 -639l189 -442l391 925q41 99 89 143t119 44t109 -29l6 -10l-34 -105l-11 -4q-20 14 -45 14t-43 -18q-18 -20 -41 -74l-493 -1130h-82l-240 565l-239 -565h-82
l-494 1130q-23 52 -41 72q-37 40 -88 6l-10 4l-35 105q23 39 105 39zM1190 1448q-49 0 -84 35t-35 84t35 84t84 35t84 -35t35 -84t-35 -84t-84 -35zM788 1448q-50 0 -84 35t-34 84t35 84t83 35t84 -35q35 -35 35 -84t-35 -84t-84 -35z" />
    <glyph glyph-name="Wgrave.ss01" horiz-adv-x="1978" 
d="M105 1356q81 0 129 -44t90 -143l391 -925l188 442l-285 639l5 6h145l221 -526l221 526h146l4 -6l-285 -639l189 -442l391 925q41 99 89 143t119 44t109 -29l6 -10l-34 -105l-11 -4q-20 14 -45 14t-43 -18q-18 -20 -41 -74l-493 -1130h-82l-240 565l-239 -565h-82
l-494 1130q-23 52 -41 72q-37 40 -88 6l-10 4l-35 105q23 39 105 39zM848 1774l366 -244v-10l-47 -70h-10l-393 203v10l74 111h10z" />
    <glyph glyph-name="N.ss02" horiz-adv-x="1505" 
d="M1300 0h-81l-871 1040v-882q0 -80 -42 -131.5t-116 -51.5t-106 29l-6 10l31 105l10 4q14 -14 37 -14q49 0 49 100v1122h82l870 -1040v883q0 80 42 131t115.5 51t106.5 -29l6 -10l-30 -105l-11 -4q-14 14 -36 15q-49 0 -50 -101v-1122z" />
    <glyph glyph-name="Nacute.ss02" horiz-adv-x="1505" 
d="M1300 0h-81l-871 1040v-882q0 -80 -42 -131.5t-116 -51.5t-106 29l-6 10l31 105l10 4q14 -14 37 -14q49 0 49 100v1122h82l870 -1040v883q0 80 42 131t115.5 51t106.5 -29l6 -10l-30 -105l-11 -4q-14 14 -36 15q-49 0 -50 -101v-1122zM618 1450h-10l-47 70v10l367 244h10
l74 -111v-10z" />
    <glyph glyph-name="Ncaron.ss02" horiz-adv-x="1505" 
d="M1300 0h-81l-871 1040v-882q0 -80 -42 -131.5t-116 -51.5t-106 29l-6 10l31 105l10 4q14 -14 37 -14q49 0 49 100v1122h82l870 -1040v883q0 80 42 131t115.5 51t106.5 -29l6 -10l-30 -105l-11 -4q-14 14 -36 15q-49 0 -50 -101v-1122zM795 1450h-17l-329 186v11l53 82h10
l274 -138l275 138h10l53 -82v-11z" />
    <glyph glyph-name="Ncommaaccent.ss02" horiz-adv-x="1505" 
d="M684 -98h139l8 -11l-100 -335l-12 -11h-82l-8 11l43 335zM1300 0h-81l-871 1040v-882q0 -80 -42 -131.5t-116 -51.5t-106 29l-6 10l31 105l10 4q14 -14 37 -14q49 0 49 100v1122h82l870 -1040v883q0 80 42 131t115.5 51t106.5 -29l6 -10l-30 -105l-11 -4q-14 14 -36 15
q-49 0 -50 -101v-1122z" />
    <glyph glyph-name="Eng.ss02" horiz-adv-x="1505" 
d="M696 -182q88 -119 253 -119q85 0 147.5 61.5t62.5 178.5v133l-811 968v-882q0 -80 -42 -131.5t-116 -51.5t-106 29l-6 10l31 105l10 4q14 -14 37 -14q49 0 49 100v1122h82l870 -1040v883q0 80 42 131t115.5 51t106.5 -29l6 -10l-30 -105l-11 -4q-14 14 -36 15
q-49 0 -50 -101v-1204q0 -162 -107.5 -258t-260.5 -96q-104 0 -198.5 44t-141.5 116v10l94 84h10z" />
    <glyph glyph-name="Ntilde.ss02" horiz-adv-x="1505" 
d="M1300 0h-81l-871 1040v-882q0 -80 -42 -131.5t-116 -51.5t-106 29l-6 10l31 105l10 4q14 -14 37 -14q49 0 49 100v1122h82l870 -1040v883q0 80 42 131t115.5 51t106.5 -29l6 -10l-30 -105l-11 -4q-14 14 -36 15q-49 0 -50 -101v-1122zM594 1659q72 0 208 -37t177 -37
q92 0 129 74h10l62 -105v-10q-70 -86 -201 -86q-63 0 -189 37t-207 37t-118 -74h-10l-62 105v10q70 86 201 86z" />
    <glyph glyph-name="i.loclTRK" horiz-adv-x="454" 
d="M156 0v1024h143v-1024h-143zM227 1145q-49 0 -84 35t-34 84q0 49 34 84q35 34 84 34t84 -34t35 -84q0 -49 -35 -84t-84 -35z" />
    <glyph glyph-name="e.ss01" horiz-adv-x="1150" 
d="M615.5 918q-146.5 0 -251 -88.5t-126.5 -237.5q170 -94 343 -94t255 56t82 152.5t-78 154t-224.5 57.5zM84 512q0 236 151.5 386.5t373 150.5t340 -92.5t118.5 -246t-123 -244.5t-329 -91t-382 84q16 -162 122 -257.5t272 -95.5q111 0 184 32t147 102h11l90 -80v-10
q-174 -174 -423 -174.5t-400.5 150t-151.5 386.5z" />
    <glyph glyph-name="eacute.ss01" horiz-adv-x="1150" 
d="M615.5 918q-146.5 0 -251 -88.5t-126.5 -237.5q170 -94 343 -94t255 56t82 152.5t-78 154t-224.5 57.5zM84 512q0 236 151.5 386.5t373 150.5t340 -92.5t118.5 -246t-123 -244.5t-329 -91t-382 84q16 -162 122 -257.5t272 -95.5q111 0 184 32t147 102h11l90 -80v-10
q-174 -174 -423 -174.5t-400.5 150t-151.5 386.5zM455 1147h-11l-53 67v11l340 278h10l84 -106v-11z" />
    <glyph glyph-name="ecaron.ss01" horiz-adv-x="1150" 
d="M615.5 918q-146.5 0 -251 -88.5t-126.5 -237.5q170 -94 343 -94t255 56t82 152.5t-78 154t-224.5 57.5zM84 512q0 236 151.5 386.5t373 150.5t340 -92.5t118.5 -246t-123 -244.5t-329 -91t-382 84q16 -162 122 -257.5t272 -95.5q111 0 184 32t147 102h11l90 -80v-10
q-174 -174 -423 -174.5t-400.5 150t-151.5 386.5zM623 1147h-29l-303 190v11l61 77h10l246 -141l246 141h10l62 -77v-11z" />
    <glyph glyph-name="ecircumflex.ss01" horiz-adv-x="1150" 
d="M615.5 918q-146.5 0 -251 -88.5t-126.5 -237.5q170 -94 343 -94t255 56t82 152.5t-78 154t-224.5 57.5zM84 512q0 236 151.5 386.5t373 150.5t340 -92.5t118.5 -246t-123 -244.5t-329 -91t-382 84q16 -162 122 -257.5t272 -95.5q111 0 184 32t147 102h11l90 -80v-10
q-174 -174 -423 -174.5t-400.5 150t-151.5 386.5zM362 1147h-10l-61 78v10l303 190h29l303 -190v-10l-62 -78h-10l-246 141z" />
    <glyph glyph-name="edieresis.ss01" horiz-adv-x="1150" 
d="M615.5 918q-146.5 0 -251 -88.5t-126.5 -237.5q170 -94 343 -94t255 56t82 152.5t-78 154t-224.5 57.5zM84 512q0 236 151.5 386.5t373 150.5t340 -92.5t118.5 -246t-123 -244.5t-329 -91t-382 84q16 -162 122 -257.5t272 -95.5q111 0 184 32t147 102h11l90 -80v-10
q-174 -174 -423 -174.5t-400.5 150t-151.5 386.5zM788.5 1145q-49.5 0 -84 34.5t-34.5 84t34.5 84t84 34.5t84 -34.5t34.5 -84t-34.5 -84t-84 -34.5zM428 1145q-49 0 -84 34.5t-35 84t35 84t84 34.5t84 -34.5t35 -84t-35 -84t-84 -34.5z" />
    <glyph glyph-name="edotaccent.ss01" horiz-adv-x="1150" 
d="M615.5 918q-146.5 0 -251 -88.5t-126.5 -237.5q170 -94 343 -94t255 56t82 152.5t-78 154t-224.5 57.5zM84 512q0 236 151.5 386.5t373 150.5t340 -92.5t118.5 -246t-123 -244.5t-329 -91t-382 84q16 -162 122 -257.5t272 -95.5q111 0 184 32t147 102h11l90 -80v-10
q-174 -174 -423 -174.5t-400.5 150t-151.5 386.5zM608 1145q-49 0 -84 34.5t-35 84t35 84t84 34.5t84 -34.5t35 -84t-35 -84t-84 -34.5z" />
    <glyph glyph-name="egrave.ss01" horiz-adv-x="1150" 
d="M615.5 918q-146.5 0 -251 -88.5t-126.5 -237.5q170 -94 343 -94t255 56t82 152.5t-78 154t-224.5 57.5zM84 512q0 236 151.5 386.5t373 150.5t340 -92.5t118.5 -246t-123 -244.5t-329 -91t-382 84q16 -162 122 -257.5t272 -95.5q111 0 184 32t147 102h11l90 -80v-10
q-174 -174 -423 -174.5t-400.5 150t-151.5 386.5zM772 1147h-10l-371 239v11l84 106h10l340 -278v-11z" />
    <glyph glyph-name="emacron.ss01" horiz-adv-x="1150" 
d="M615.5 918q-146.5 0 -251 -88.5t-126.5 -237.5q170 -94 343 -94t255 56t82 152.5t-78 154t-224.5 57.5zM84 512q0 236 151.5 386.5t373 150.5t340 -92.5t118.5 -246t-123 -244.5t-329 -91t-382 84q16 -162 122 -257.5t272 -95.5q111 0 184 32t147 102h11l90 -80v-10
q-174 -174 -423 -174.5t-400.5 150t-151.5 386.5zM885 1307v-123h-553v123h553z" />
    <glyph glyph-name="eogonek.ss01" horiz-adv-x="1150" 
d="M615.5 918q-146.5 0 -251 -88.5t-126.5 -237.5q170 -94 343 -94t255 56t82 152.5t-78 154t-224.5 57.5zM623 -249q0 -26 21.5 -49.5t61 -25.5t93.5 37h10l53 -67v-11q-76 -66 -164 -65.5t-142 51.5t-54 138t151 216h-26q-240 0 -391.5 150.5t-151.5 386.5t151.5 386.5
t373 150.5t340 -92.5t118.5 -246t-123 -244.5t-329 -91t-382 84q16 -162 122 -257.5t272 -95.5q111 0 184 32t147 102h11l90 -80v-10q-100 -100 -228 -144q-12 -10 -38.5 -33.5t-39 -34t-35 -30t-32.5 -31.5t-24.5 -29.5t-21.5 -30t-12 -26.5t-5 -40z" />
    <glyph glyph-name="f.ss01" horiz-adv-x="686" 
d="M536 1290q-80 0 -136 -56t-56 -169v-41h322v-123h-322v-1208h-143v1208h-172v123h172v41q0 174 100 263t226 89t200 -49l4 -10l-47 -98l-10 -5q-57 35 -138 35z" />
    <glyph glyph-name="i.ss01" horiz-adv-x="497" 
d="M176 158v665q0 100 -47 101q-20 0 -35 -15l-10 4l-29 99q22 37 102 37q79 1 121 -47t41 -125v-676q0 -100 48 -101q20 0 34 15l11 -4l28 -99q-22 -37 -101 -37q-79 -1 -121 51t-42 132zM211 1145q-49 0 -84 35t-35 84t35 84q35 34 84 34t84 -34t35 -84q0 -49 -35 -84
t-84 -35z" />
    <glyph glyph-name="dotlessi.ss01" horiz-adv-x="497" 
d="M176 158v665q0 100 -47 101q-20 0 -35 -15l-10 4l-29 99q22 37 102 37q79 1 121 -47t41 -125v-676q0 -100 48 -101q20 0 34 15l11 -4l28 -99q-22 -37 -101 -37q-79 -1 -121 51t-42 132z" />
    <glyph glyph-name="iacute.ss01" horiz-adv-x="497" 
d="M176 158v665q0 100 -47 101q-20 0 -35 -15l-10 4l-29 99q22 37 102 37q79 1 121 -47t41 -125v-676q0 -100 48 -101q20 0 34 15l11 -4l28 -99q-22 -37 -101 -37q-79 -1 -121 51t-42 132zM395 1503h11l83 -106v-11l-370 -239h-10l-54 67v11z" />
    <glyph glyph-name="icircumflex.ss01" horiz-adv-x="497" 
d="M176 158v665q0 100 -47 101q-20 0 -35 -15l-10 4l-29 99q22 37 102 37q79 1 121 -47t41 -125v-676q0 -100 48 -101q20 1 34 15l11 -4l28 -99q-22 -37 -101 -37q-79 -1 -121 51t-42 132zM225 1425l273 -190v-10l-56 -78h-10l-221 139l-221 -139h-8l-56 78v10l273 190h26z
" />
    <glyph glyph-name="idieresis.ss01" horiz-adv-x="497" 
d="M176 158v665q0 100 -47 101q-20 0 -35 -15l-10 4l-29 99q22 37 102 37q79 1 121 -47t41 -125v-676q0 -100 48 -101q20 0 34 15l11 -4l28 -99q-22 -37 -101 -37q-79 -1 -121 51t-42 132zM391 1145q-49 0 -84 35t-35 84t35 84q35 34 84 34t84 -34t35 -84q0 -49 -35 -84
t-84 -35zM31 1145q-49 0 -84 35t-35 84t35 84q35 34 84 34t84 -34t35 -84q0 -49 -35 -84t-84 -35z" />
    <glyph glyph-name="igrave.ss01" horiz-adv-x="497" 
d="M176 158v665q0 100 -47 101q-20 0 -35 -15l-10 4l-29 99q22 37 102 37q79 1 121 -47t41 -125v-676q0 -100 48 -101q20 0 34 15l11 -4l28 -99q-22 -37 -101 -37q-79 -1 -121 51t-42 132zM10 1503l340 -278v-11l-53 -67h-10l-371 239v11l84 106h10z" />
    <glyph glyph-name="ij.ss01" horiz-adv-x="983" 
d="M829 1024v-987q0 -135 -53 -213t-162 -131h-8l-55 108v9q135 68 135 206v885h-135v123h278zM176 158v665q0 100 -47 101q-20 0 -35 -15l-10 4l-29 99q22 37 102 37q79 1 121 -47t41 -125v-676q0 -100 48 -101q20 1 34 15l11 -4l28 -99q-22 -37 -101 -37q-79 -1 -121 51
t-42 132zM719 1145q-49 0 -84 35t-35 84t35 84q35 34 84 34t84 -34t35 -84q0 -49 -35 -84t-84 -35zM211 1145q-49 0 -84 35t-35 84t35 84q35 34 84 34t84 -34t35 -84q0 -49 -35 -84t-84 -35z" />
    <glyph glyph-name="imacron.ss01" horiz-adv-x="497" 
d="M176 158v665q0 100 -47 101q-20 0 -35 -15l-10 4l-29 99q22 37 102 37q79 1 121 -47t41 -125v-676q0 -100 48 -101q20 0 34 15l11 -4l28 -99q-22 -37 -101 -37q-79 -1 -121 51t-42 132zM-37 1307h498v-123h-498v123z" />
    <glyph glyph-name="iogonek.ss01" horiz-adv-x="497" 
d="M157 1049q79 1 121 -47t41 -125v-676q0 -100 48 -101q20 0 34 15l11 -4l28 -99l-6 -10q-12 -10 -39 -34t-61 -52t-44 -42q-11 -13 -38 -46t-27 -70q0 -36 22 -60q21 -24 61 -26t93 37h11l53 -67v-11q-76 -65 -164 -65t-142 51q-55 51 -55 139t168 232q-96 37 -96 170v665
q0 100 -47 101q-20 0 -35 -15l-10 4l-29 99q23 37 102 37zM211 1145q-49 0 -84 35t-35 84t35 84q35 34 84 34t84 -34t35 -84q0 -49 -35 -84t-84 -35z" />
    <glyph glyph-name="itilde.ss01" horiz-adv-x="497" 
d="M176 158v665q0 100 -47 101q-20 0 -35 -15l-10 4l-29 99q22 37 102 37q79 1 121 -47t41 -125v-676q0 -100 48 -101q20 0 34 15l11 -4l28 -99q-22 -37 -101 -37q-79 -1 -121 51t-42 132zM55 1360q57 0 169 -36t145 -36q66 0 98 72h8l43 -105v-10q-57 -84 -149 -84
q-53 0 -153 36t-167 36q-66 0 -94 -72h-6l-43 105v10q53 84 149 84z" />
    <glyph glyph-name="k.ss01" horiz-adv-x="1048" 
d="M297 0h-143v1180q0 100 -48 100q-20 0 -34 -14l-11 4l-28 98q22 37 102 37t121 -47t41 -125v-719l500 510h159l2 -8l-426 -436l351 -422q51 -57 94 -58q20 0 45 15l12 -4l29 -99q-22 -37 -98 -37q-109 0 -199 109l-330 397l-139 -143v-338z" />
    <glyph glyph-name="kcommaaccent.ss01" horiz-adv-x="1048" 
d="M506 -98h139l8 -11l-100 -335l-12 -11h-82l-8 11l43 335zM297 0h-143v1180q0 100 -48 100q-20 0 -34 -14l-11 4l-28 98q22 37 102 37t121 -47t41 -125v-719l500 510h159l2 -8l-426 -436l351 -422q51 -57 94 -58q20 0 45 15l12 -4l29 -99q-22 -37 -98 -37q-109 0 -199 109
l-330 397l-139 -143v-338z" />
    <glyph glyph-name="v.ss01" horiz-adv-x="1122" 
d="M111 1049q123 0 186 -160l264 -666l275 666q63 160 176 160q59 0 96 -27l6 -10l-29 -99l-10 -4q-57 37 -90 -16q-18 -29 -49 -102l-332 -791h-86l-332 791q-31 75 -49 103q-35 55 -90 15l-10 4l-29 99q22 37 103 37z" />
    <glyph glyph-name="y.ss01" horiz-adv-x="1179" 
d="M311 -307q-96 0 -147 35l-4 8l43 98l12 4q33 -24 85 -24t90 34t77 121l47 103l-321 719q-35 79 -51 105q-33 53 -89 13l-10 4l-29 99q22 37 103 37q117 0 188 -160l289 -647l289 647q37 84 78 122t105 38t95 -27l6 -10l-28 -99l-11 -4q-58 37 -88 -14q-16 -27 -51 -104
l-385 -859q-59 -133 -128 -186t-165 -53z" />
    <glyph glyph-name="yacute.ss01" horiz-adv-x="1179" 
d="M311 -307q-96 0 -147 35l-4 8l43 98l12 4q33 -24 85 -24t90 34t77 121l47 103l-321 719q-35 79 -51 105q-33 53 -89 13l-10 4l-29 99q22 37 103 37q117 0 188 -160l289 -647l289 647q37 84 78 122t105 38t95 -27l6 -10l-28 -99l-11 -4q-58 37 -88 -14q-16 -27 -51 -104
l-385 -859q-59 -133 -128 -186t-165 -53zM432 1147h-10l-53 67v11l340 278h10l84 -106v-11z" />
    <glyph glyph-name="ycircumflex.ss01" horiz-adv-x="1179" 
d="M311 -307q-96 0 -147 35l-4 8l43 98l12 4q33 -24 85 -24t90 34t77 121l47 103l-321 719q-35 79 -51 105q-33 53 -89 13l-10 4l-29 99q22 37 103 37q117 0 188 -160l289 -647l289 647q37 84 78 122t105 38t95 -27l6 -10l-28 -99l-11 -4q-58 37 -88 -14q-16 -27 -51 -104
l-385 -859q-59 -133 -128 -186t-165 -53zM340 1147h-10l-62 78v10l303 190h29l303 -190v-10l-61 -78h-11l-245 141z" />
    <glyph glyph-name="ydieresis.ss01" horiz-adv-x="1179" 
d="M311 -307q-96 0 -147 35l-4 8l43 98l12 4q33 -24 85 -24t90 34t77 121l47 103l-321 719q-35 79 -51 105q-33 53 -89 13l-10 4l-29 99q22 37 103 37q117 0 188 -160l289 -647l289 647q37 84 78 122t105 38t95 -27l6 -10l-28 -99l-11 -4q-58 37 -88 -14q-16 -27 -51 -104
l-385 -859q-59 -133 -128 -186t-165 -53zM766 1145q-49 0 -84 35t-35 84t35 84q35 34 84 34t84 -34t35 -84q0 -49 -35 -84t-84 -35zM406 1145q-49 0 -84 35t-35 84t35 84q35 34 84 34q50 0 84 -34t34 -84q0 -49 -34 -84t-84 -35z" />
    <glyph glyph-name="ygrave.ss01" horiz-adv-x="1179" 
d="M311 -307q-96 0 -147 35l-4 8l43 98l12 4q33 -24 85 -24t90 34t77 121l47 103l-321 719q-35 79 -51 105q-33 53 -89 13l-10 4l-29 99q22 37 103 37q117 0 188 -160l289 -647l289 647q37 84 78 122t105 38t95 -27l6 -10l-28 -99l-11 -4q-58 37 -88 -14q-16 -27 -51 -104
l-385 -859q-59 -133 -128 -186t-165 -53zM750 1147h-11l-370 239v11l84 106h10l340 -278v-11z" />
    <glyph glyph-name="uni1EF9.ss01" horiz-adv-x="1179" 
d="M311 -307q-96 0 -147 35l-4 8l43 98l12 4q33 -24 85 -24t90 34t77 121l47 103l-321 719q-35 79 -51 105q-33 53 -89 13l-10 4l-29 99q22 37 103 37q117 0 188 -160l289 -647l289 647q37 84 78 122t105 38t95 -27l6 -10l-28 -99l-11 -4q-58 37 -88 -14q-16 -27 -51 -104
l-385 -859q-59 -133 -128 -186t-165 -53zM412 1360q66 0 188 -36t160 -36q76 0 108 72h11l47 -105v-10q-61 -84 -166 -84q-59 0 -172 36q-114 36 -184 36t-103 -72h-8l-47 105v10q61 84 166 84z" />
    <glyph glyph-name="f_b" horiz-adv-x="1888" 
d="M1278 106q168 0 273 117t106 289q-3 172 -107 289t-272 117t-278 -106t-110 -300t110 -300t278 -106zM1286 1049q228 0 373 -155t145 -382t-145 -382t-373 -155t-377 162v-137h-143v1196q-38 96 -208 94q-83 0 -142 -56t-60 -169v-41h322v-123h-322v-1051q0 -80 -42 -131
t-114 -51t-102 27l-6 10l29 98l10 4q14 -14 35 -14q47 0 47 101v1007h-172v123h172v41q0 170 101 261t259 91q158 1 247 -65t89 -174v-291q149 162 377 162z" />
    <glyph glyph-name="f_h" horiz-adv-x="1832" 
d="M1520 158v452q0 142 -80 226t-218 84t-226 -85t-87 -225v-610h-143v1196q-38 96 -208 94q-83 0 -142 -56t-60 -169v-41h322v-123h-322v-1051q0 -80 -42 -131t-114 -51t-102 27l-6 10l29 98l10 4q14 -14 35 -14q47 0 47 101v1007h-172v123h172v41q0 170 101 261t259 91
q158 1 247 -65t89 -174v-273q121 143 325 143t318 -117q114 -118 113 -306v-424q0 -100 47 -101q20 0 35 15l10 -4l29 -99q-22 -37 -102 -37q-80 -1 -122 51t-42 132z" />
    <glyph glyph-name="f_k" horiz-adv-x="1746" 
d="M909 610v-112h310q117 0 189 61t73 155q-1 94 -63 150q-62 57 -169 58q-168 0 -254 -84t-86 -228zM909 377v-377h-143v1196q-38 96 -208 94q-83 0 -142 -56t-60 -169v-41h322v-123h-322v-1051q0 -80 -42 -131t-114 -51t-102 27l-6 10l29 98l10 4q14 -14 35 -14
q47 0 47 101v1007h-172v123h172v41q0 170 101 261t259 91q158 1 247 -65t89 -174v-271q117 141 353 142q166 -1 266 -93t100 -228t-84 -225t-217 -116l189 -229q77 -90 139 -43l12 -4l29 -99q-22 -37 -99 -37q-109 0 -198 109l-242 293h-248z" />
    <glyph glyph-name="f_t" horiz-adv-x="1284" 
d="M922 1024h321v-123h-321v-582q0 -100 46 -157t128 -58q47 0 88 27l10 -6l47 -98l-6 -11q-59 -41 -143 -41q-142 1 -228 95t-86 247v584h-422v-1051q0 -80 -42 -131t-114 -51t-102 27l-6 10l29 98l10 4q14 -14 35 -14q47 0 47 101v1007h-172v123h172v41q0 176 88 264
t223 88q74 0 138 -35l4 -10l-48 -98l-10 -4q-41 20 -82 20q-170 0 -170 -225v-41h422v307l135 25l9 -6v-326z" />
    <glyph glyph-name="ordfeminine.ss01" horiz-adv-x="935" 
d="M418 793q94 0 155 60t61 168t-60 168q-62 60 -156 60t-155 -66q-60 -67 -60 -163t60 -162q61 -65 155 -65zM746 688q-80 0 -105 94q-90 -94 -229 -94t-232 95q-92 95 -92 237t91 238t229 96t229 -90v75h113v-479q0 -76 34 -76q14 0 27 13l8 -4l23 -74q-16 -31 -96 -31z
" />
    <glyph glyph-name="ampersand.ss01" horiz-adv-x="1286" 
d="M1239 707v-132h-180q53 -98 53 -184q0 -184 -144 -300t-368 -116t-368 116t-144 300q0 119 64 213t176 148q-148 96 -148 252t121 253q121 98 299 99q131 0 242 -56t182 -149v-10l-92 -86h-10q-133 166 -326 166q-116 1 -190 -57t-74 -151t75 -149t197 -57h80v-131h-84
q-154 0 -257 -83t-103 -202t103 -202t257 -83t257 83t103 195t-81 191v132h360z" />
    <glyph glyph-name="uni0326.001" horiz-adv-x="0" 
d="M-242 1421l13 11h139l8 -11l-108 -366l-13 -11h-78l-8 11z" />
    <glyph glyph-name="acute.case" horiz-adv-x="614" 
d="M449 1470h10l73 -110v-10l-393 -203h-10l-47 70v10z" />
    <glyph glyph-name="breve.case" horiz-adv-x="741" 
d="M369 1145q-117 0 -201 75t-98 195h125q27 -158 174 -158t174 158h125q-14 -121 -98 -195t-201 -75z" />
    <glyph glyph-name="caron.case" horiz-adv-x="757" 
d="M664 1425l53 -82v-10l-330 -186h-16l-330 186v10l53 82h10l275 -137l274 137h11z" />
    <glyph glyph-name="circumflex.case" horiz-adv-x="757" 
d="M379 1405l330 -186v-11l-54 -82h-10l-274 138l-275 -138h-10l-53 82v11l329 186h17z" />
    <glyph glyph-name="dieresis.case" horiz-adv-x="798" 
d="M600 1145q-49 0 -84 35t-35 84t35 84q35 34 84 34t84 -34t35 -84q0 -49 -35 -84t-84 -35zM199 1145q-49 0 -84 35t-35 84t35 84q35 34 84 34t84 -34t35 -84q0 -49 -36 -84q-34 -35 -83 -35z" />
    <glyph glyph-name="dotaccent.case" horiz-adv-x="399" 
d="M199 1147q-47 0 -82 35t-35 82t35 83q35 35 82 35t83 -36t36 -82q0 -47 -36 -82t-83 -35z" />
    <glyph glyph-name="grave.case" horiz-adv-x="614" 
d="M166 1470l366 -243v-10l-47 -70h-10l-393 203v10l74 110h10z" />
    <glyph glyph-name="hungarumlaut.case" horiz-adv-x="737" 
d="M492 1499l12 10h139l8 -10l-207 -348l-12 -10h-78l-8 10zM221 1499l12 10h140l8 -10l-207 -348l-12 -10h-78l-8 10z" />
    <glyph glyph-name="macron.case" horiz-adv-x="722" 
d="M82 1311h561v-115h-561v115z" />
    <glyph glyph-name="ring.case" horiz-adv-x="473" 
d="M238 1231q40 0 68 30q28 31 28 69t-29 68t-67 30t-68 -30q-29 -30 -29 -69t29 -69t68 -29zM238 1133q-82 0 -142 57q-59 57 -59 139t59 139q60 58 142 58t141 -58t59 -139q0 -82 -59 -139t-141 -57z" />
    <glyph glyph-name="tilde.case" horiz-adv-x="929" 
d="M272 1356q72 0 208 -37t177 -37q92 0 129 74h11l61 -105v-10q-70 -86 -201 -86q-63 0 -188 37t-207 37t-119 -74h-10l-61 105v10q69 86 200 86z" />
    <glyph glyph-name="IJacute" horiz-adv-x="1699" 
d="M938 1331h586v-936q0 -201 -116 -311t-280 -109q-256 0 -399 205v13l100 83h11q111 -166 284 -165q106 0 180 75q73 76 72 209v805h-438v131zM662 1204h-216v-1077h216v-127h-578v127h215v1077h-215v127h578v-127zM1372 1774h10l74 -111v-10l-393 -203h-10l-47 70v10z
M514 1774h10l74 -111v-10l-393 -203h-10l-48 70v10z" />
    <glyph glyph-name="ijacute" horiz-adv-x="983" 
d="M829 1024v-987q0 -135 -53 -213t-162 -131h-8l-55 108v9q135 68 135 206v885h-135v123h278zM176 158v665q0 100 -47 101q-20 0 -35 -15l-10 4l-29 99q22 37 102 37q79 1 121 -47t41 -125v-676q0 -100 48 -101q20 1 34 15l11 -4l28 -99q-22 -37 -101 -37q-79 -1 -121 51
t-42 132zM852 1503l84 -106v-11l-371 -239h-10l-53 67v11l340 278h10zM395 1503h11l83 -106v-11l-370 -239h-10l-54 67v11z" />
    <glyph glyph-name="slashlong.case" horiz-adv-x="1228" 
d="M106 -100l-4 16l1022 1534h148l4 -16l-1018 -1534h-152z" />
    <glyph glyph-name="slashlong" horiz-adv-x="1095" 
d="M49 59l-8 9l860 1230h146l8 -8l-860 -1231h-146z" />
    <glyph glyph-name="slashshort.case" horiz-adv-x="757" 
d="M737 760l-676 -332l-10 6v115l676 332l10 -7v-114z" />
    <glyph glyph-name="slashshort" horiz-adv-x="692" 
d="M82 440v115l516 266h12v-114l-516 -267h-12z" />
    <glyph glyph-name="strokelong" horiz-adv-x="1548" 
d="M117 1073h1286v-115h-1286v115z" />
    <glyph glyph-name="strokeshort" horiz-adv-x="710" 
d="M61 719h588v-115h-588v115z" />
    </font>
</defs>
</svg>
