<?xml version="1.0" standalone="no"?>
<!DOCTYPE svg PUBLIC "-//W3C//DTD SVG 1.1//EN" "http://www.w3.org/Graphics/SVG/1.1/DTD/svg11.dtd" >
<svg xmlns="http://www.w3.org/2000/svg">
<metadata></metadata>
<defs>
<font id="muriza_basicsemibold_italic" horiz-adv-x="1040" >
<font-face units-per-em="2048" ascent="1589" descent="-459" />
<missing-glyph horiz-adv-x="528" />
<glyph horiz-adv-x="0" />
<glyph horiz-adv-x="682" />
<glyph unicode=" "  horiz-adv-x="528" />
<glyph unicode="&#x09;" horiz-adv-x="528" />
<glyph unicode="&#xa0;" horiz-adv-x="528" />
<glyph unicode="!" horiz-adv-x="557" d="M62 120q0 62 40.5 103t103.5 41q62 0 103 -41t41 -103t-41 -103t-103 -41q-63 0 -103.5 41t-40.5 103zM165 412l170 940h256l-230 -940h-196z" />
<glyph unicode="&#x22;" horiz-adv-x="956" d="M265 844l77 508h231l-139 -508h-169zM683 844l77 508h230l-138 -508h-169z" />
<glyph unicode="#" horiz-adv-x="1075" d="M56 352l32 150h168l59 276h-192l33 150h191l67 315h178l-67 -315h228l67 315h178l-68 -315h163l-31 -150h-164l-59 -276h187l-32 -150h-186l-75 -352h-178l75 352h-228l-75 -352h-178l75 352h-168zM434 502h228l59 276h-228z" />
<glyph unicode="$" d="M56 152l61 285h191l-45 -215q94 -38 185 -38q107 0 164.5 44.5t57.5 122.5q0 56 -31 93.5t-103 83.5l-98 63q-61 40 -102 79t-71.5 100t-30.5 132q0 135 97.5 230.5t264.5 108.5l56 266h194l-60 -281q142 -33 237 -107l-61 -288h-191l45 214q-75 29 -140 29 q-99 0 -155.5 -40.5t-56.5 -109.5q0 -48 31.5 -88.5t100.5 -85.5l90 -57q108 -68 164 -138t56 -175q0 -64 -23 -123.5t-68 -109.5t-118.5 -83.5t-166.5 -40.5l-55 -263h-197l60 275q-162 32 -282 117z" />
<glyph unicode="%" horiz-adv-x="1761" d="M155 831q0 65 12.5 134.5t42 142t72 129.5t109.5 93t148 36q114 0 188 -74.5t74 -231.5q0 -65 -12.5 -134.5t-42 -142t-72.5 -129t-110.5 -92.5t-148.5 -36q-114 0 -187 74t-73 231zM337 783q0 -71 22 -98.5t64 -27.5q38 0 65 21t54 84.5t52 178.5q27 121 27 173 q0 66 -22.5 94t-65.5 28q-38 0 -65.5 -22t-54.5 -86t-50 -176q-26 -124 -26 -169zM461 -1l380 677l354 674h197l-378 -676l-357 -675h-196zM1049 291q0 83 21.5 171t64.5 172t121 138t178 54q114 0 187.5 -74.5t73.5 -231.5q0 -65 -12.5 -134.5t-42 -142t-72 -129.5 t-110 -93t-148.5 -36q-114 0 -187.5 74.5t-73.5 231.5zM1232 242q0 -71 22 -98.5t64 -27.5q38 0 64.5 21t53.5 84.5t52 178.5q28 125 28 174q0 66 -22.5 93.5t-65.5 27.5q-38 0 -65.5 -22t-54.5 -86t-50 -176q-26 -124 -26 -169z" />
<glyph unicode="&#x26;" horiz-adv-x="1212" d="M20 309q0 57 15 105.5t39.5 86.5t68 77t87.5 69.5t111 71.5q-59 154 -59 278q0 78 22 145t65.5 119.5t115 82.5t163.5 30q46 0 88 -7.5t83 -26t70.5 -47t47.5 -74t18 -103.5q0 -67 -23 -123t-75 -109.5t-108 -95t-149 -102.5q83 -167 247 -381q123 113 123 227 q0 40 -18.5 57t-60.5 17q-8 0 -28 -0.5t-21 -0.5l32 155q54 16 108 16q192 0 192 -194q0 -110 -59.5 -216t-163.5 -192q74 -90 164 -194l-179 -121q-85 90 -174 196q-167 -79 -336 -79q-55 0 -107 8.5t-108 32t-97 59.5t-67.5 96t-26.5 137zM253 327q0 -94 55 -143t148 -49 q94 0 203 48q-149 192 -247 379q-86 -61 -122.5 -113t-36.5 -122zM509 1017q0 -82 29 -178q74 47 119 84t75.5 85t30.5 100q0 103 -109 103q-145 0 -145 -194z" />
<glyph unicode="'" horiz-adv-x="538" d="M265 844l77 508h231l-139 -508h-169z" />
<glyph unicode="(" horiz-adv-x="583" d="M85 228q0 238 68.5 488.5t204 477.5t314.5 364l108 -103q-224 -239 -354 -589t-130 -685q0 -149 27.5 -288t72.5 -243l-133 -71q-79 113 -128.5 280t-49.5 369z" />
<glyph unicode=")" horiz-adv-x="583" d="M-153 -320q224 239 353.5 588.5t129.5 684.5q0 303 -100 532l134 70q79 -113 128.5 -280t49.5 -369q0 -238 -68.5 -488t-204.5 -476.5t-315 -364.5z" />
<glyph unicode="*" horiz-adv-x="860" d="M170 1021l35 167l248 -10l-102 237l157 60l76 -233l168 233l134 -104l-166 -192l242 9l-35 -167l-248 9l100 -235l-158 -61l-75 224l-160 -224l-135 103l169 193z" />
<glyph unicode="+" d="M98 509l35 171h339l73 342h195l-74 -342h332l-35 -171h-333l-74 -348h-194l74 348h-338z" />
<glyph unicode="," horiz-adv-x="489" d="M-130 -223q213 79 275 210q-54 5 -85.5 42.5t-31.5 91.5q0 63 42 103.5t105 40.5t107 -43.5t44 -132.5q0 -136 -109 -254.5t-319 -168.5z" />
<glyph unicode="-" horiz-adv-x="512" d="M48 420l36 165h398l-36 -165h-398z" />
<glyph unicode="." horiz-adv-x="489" d="M23 124q0 64 43 106t108 42q64 0 106.5 -42t42.5 -106q0 -63 -42.5 -105.5t-106.5 -42.5q-65 0 -108 42.5t-43 105.5z" />
<glyph unicode="/" horiz-adv-x="872" d="M-77 -74l896 1499h220l-896 -1499h-220z" />
<glyph unicode="0" horiz-adv-x="1079" d="M102 447q0 74 10 156.5t32 173.5t54.5 176t81 162t107 134.5t137.5 91.5t168 34q78 0 144 -26t118.5 -80.5t82.5 -148t30 -217.5q0 -87 -14.5 -184.5t-42.5 -203.5t-77 -201t-111.5 -171.5t-151.5 -121.5t-192 -45q-78 0 -144 26t-119 80.5t-83 147.5t-30 217zM343 376 q0 -227 146 -227q93 0 161.5 113.5t128.5 393.5q45 219 45 319q0 227 -145 227q-93 0 -161.5 -113.5t-129.5 -393.5q-45 -211 -45 -319z" />
<glyph unicode="1" horiz-adv-x="835" d="M-18 0l34 164h243l204 965l-274 -27l34 159l367 91h168l-249 -1188h211l-32 -164h-706z" />
<glyph unicode="2" horiz-adv-x="940" d="M-55 0l30 141l488 488q134 134 190.5 222.5t56.5 182.5q0 80 -38.5 119t-104.5 39q-88 0 -137.5 -66t-49.5 -182h-210q-4 23 -4 55q0 75 27.5 142.5t78 119.5t129.5 83t176 31q57 0 109.5 -10.5t103 -36t88 -64t60 -98.5t22.5 -135q0 -139 -77 -256t-262 -287l-301 -286 h491l-43 -202h-823z" />
<glyph unicode="3" horiz-adv-x="952" d="M-6 177l97 117q114 -112 267 -112q65 0 115 22t77.5 58.5t41 77.5t13.5 84q0 83 -46.5 134t-135.5 51h-76l33 162l77 1q54 1 97 19.5t69 47t43.5 66t24.5 72t7 68.5q0 74 -36.5 110t-97.5 36q-78 0 -120.5 -58.5t-42.5 -159.5h-205q-3 18 -3 55q0 69 25.5 131t73 110.5 t121.5 76.5t165 28q52 0 101.5 -9.5t100 -33t87.5 -59.5t60.5 -94.5t23.5 -131.5q0 -81 -25.5 -152.5t-87.5 -131.5t-154 -85q178 -72 178 -262q0 -78 -28.5 -154t-82.5 -140.5t-143.5 -104.5t-200.5 -40q-125 0 -240.5 50t-172.5 151z" />
<glyph unicode="4" horiz-adv-x="1052" d="M-4 306l23 125l669 921h200h130l-188 -884h168l-35 -162h-168l-65 -306h-238l64 306h-560zM259 468h339l128 590q14 58 26 106q-37 -62 -78 -120z" />
<glyph unicode="5" horiz-adv-x="1001" d="M34 177l95 117q116 -112 260 -112q67 0 119.5 27.5t82 72t44.5 93.5t15 98q0 90 -48.5 140t-126.5 50q-96 0 -162 -82h-138l163 771h675l-44 -203h-481l-77 -363q73 46 165 46q64 0 121 -19.5t105.5 -59t77 -108.5t28.5 -158q0 -72 -18 -143.5t-56.5 -138t-93.5 -117.5 t-134 -81.5t-172 -30.5q-121 0 -230.5 50.5t-169.5 150.5z" />
<glyph unicode="6" horiz-adv-x="1030" d="M99 447q0 169 55.5 354t143.5 310q79 125 189.5 194.5t245.5 69.5q104 0 193 -38t141 -115l-93 -115q-93 73 -214 73q-288 0 -390 -489q47 64 117 99.5t156 35.5q138 0 226.5 -87t88.5 -247q0 -71 -18 -142t-56.5 -139t-93 -120t-133.5 -83.5t-172 -31.5 q-189 0 -287.5 126t-98.5 345zM331 325q0 -81 44 -127.5t116 -46.5q77 0 132 58t79 174q14 57 14 107q0 79 -44.5 120.5t-117.5 41.5q-162 0 -210 -220q-13 -65 -13 -107z" />
<glyph unicode="7" horiz-adv-x="915" d="M59 0l702 1149h-364l-47 -217h-213l88 420h844l-27 -135l-713 -1217h-270z" />
<glyph unicode="8" horiz-adv-x="1038" d="M52 329q0 60 16.5 119.5t50 116t92 101t135.5 66.5q-132 82 -132 245q0 72 26 141t76.5 127.5t135.5 94t192 35.5q58 0 113.5 -11t109 -36t93.5 -62.5t64.5 -94t24.5 -126.5q0 -120 -67 -219.5t-197 -140.5q160 -92 160 -283q0 -81 -29.5 -156t-85 -136t-145 -97.5 t-200.5 -36.5q-58 0 -115.5 10.5t-116 36.5t-102.5 65t-71.5 101t-27.5 140zM304 311q0 -77 46.5 -121.5t119.5 -44.5q79 0 136 56.5t78 163.5q11 45 11 90q0 78 -44 125.5t-118 47.5q-80 0 -135 -57.5t-80 -167.5q-14 -64 -14 -92zM454 943q0 -72 41 -115.5t108 -43.5 q74 0 124 52t70 146q8 45 8 76q0 70 -39 108.5t-110 38.5q-153 0 -193 -187q-9 -45 -9 -75z" />
<glyph unicode="9" horiz-adv-x="1030" d="M66 129l93 115q89 -72 214 -72q289 0 389 488q-100 -134 -272 -134q-139 0 -227 87t-88 247q0 71 18 142t56.5 138.5t93 119.5t133.5 83.5t172 31.5q190 0 288 -126t98 -345q0 -169 -55.5 -353.5t-143.5 -309.5q-80 -126 -190 -195.5t-245 -69.5q-104 0 -193 38t-141 115 zM417 861q0 -78 45 -120t116 -42q161 0 209 221q15 60 15 106q0 81 -44.5 127t-115.5 46q-77 0 -132 -57.5t-80 -173.5q-13 -68 -13 -107z" />
<glyph unicode=":" horiz-adv-x="489" d="M29 118q0 61 41 101t103 40q61 0 101.5 -40t40.5 -101t-40.5 -101t-101.5 -40q-62 0 -103 40t-41 101zM179 829q0 61 41 101t103 40q61 0 101.5 -40t40.5 -101t-40.5 -101.5t-101.5 -40.5q-62 0 -103 40.5t-41 101.5z" />
<glyph unicode=";" horiz-adv-x="489" d="M-130 -223q213 79 275 210q-54 5 -85.5 42.5t-31.5 91.5q0 63 42 103.5t105 40.5t107 -43.5t44 -132.5q0 -136 -109 -254.5t-319 -168.5zM179 829q0 61 41 101t103 40q61 0 101.5 -40t40.5 -101t-40.5 -101.5t-101.5 -40.5q-62 0 -103 40.5t-41 101.5z" />
<glyph unicode="&#x3c;" d="M110 528l25 133l904 336l-41 -188l-597 -222l504 -217l-38 -180z" />
<glyph unicode="=" d="M72 308l38 171h827l-38 -171h-827zM159 713l36 170h827l-36 -170h-827z" />
<glyph unicode="&#x3e;" d="M59 192l42 192l595 223l-503 216l37 175l759 -337l-27 -133z" />
<glyph unicode="?" horiz-adv-x="854" d="M141 938l74 355q145 82 328 82q53 0 100.5 -6t103 -26t95.5 -52t66.5 -89t26.5 -132q0 -61 -16.5 -112t-54.5 -100t-85 -92t-124 -102q-97 -74 -135 -121t-61 -131h-199q15 85 42.5 145t62 100t102.5 101q47 43 69 64.5t54.5 56.5t46.5 60.5t25 59.5t11 69q0 42 -15 71 t-42 43.5t-56.5 20t-67.5 5.5q-51 0 -92 -8l-55 -262h-204zM175 120q0 62 40.5 103t102.5 41t103.5 -41t41.5 -103t-41.5 -103t-103.5 -41t-102.5 41t-40.5 103z" />
<glyph unicode="@" horiz-adv-x="1615" d="M71 348q0 127 33.5 254t102.5 244t165.5 207.5t233 144.5t293.5 54q94 0 183.5 -18t180 -63.5t157.5 -113t109 -175.5t42 -243q0 -108 -26 -211.5t-77 -192t-137 -143t-194 -54.5q-97 0 -150 39.5t-67 102.5q-32 -66 -94 -105t-145 -39q-107 0 -175 71t-68 228 q0 66 12 138t40 147t68.5 134t103.5 97t138 38q82 0 134 -40t62 -109l30 129h180l-116 -543q-9 -45 -9 -66q0 -38 27 -58t67 -20q76 0 135 72t86.5 174.5t27.5 209.5q0 106 -32.5 191t-85 138t-123 88.5t-141.5 49.5t-147 14q-136 0 -250.5 -47.5t-191.5 -125t-131 -177.5 t-78 -204t-24 -206q0 -115 33.5 -208.5t88 -154t126.5 -101.5t145.5 -58t148.5 -17q40 0 62 1l-26 -123q-35 -7 -92 -7q-64 0 -132.5 15.5t-141 47t-136.5 85t-115 123.5t-80.5 169.5t-29.5 216.5zM646 324q0 -127 98 -127q64 0 108 56.5t73 197.5q22 96 22 143 q0 67 -29.5 100.5t-78.5 33.5q-60 0 -102.5 -56t-70.5 -196q-20 -103 -20 -152z" />
<glyph unicode="A" horiz-adv-x="1204" d="M-80 0l35 164h101l584 1188h315l76 -1188h102l-34 -164h-478l33 164h140l-16 244h-391l-122 -244h129l-34 -164h-440zM464 571h308l-27 398q-2 46 -2 195q-29 -86 -85 -203z" />
<glyph unicode="B" horiz-adv-x="1155" d="M-26 0l35 164h126l218 1024h-126l35 164h501q166 0 270 -84t104 -229q0 -120 -72.5 -216.5t-209.5 -130.5q194 -65 194 -281q0 -78 -25.5 -149t-77 -131t-140 -95.5t-204.5 -35.5h-628zM377 164h196q89 0 145.5 50.5t75.5 145.5q9 40 9 75q0 80 -42 129.5t-122 49.5h-166 zM506 777h153q89 0 145 50t74 142q7 29 7 68q0 66 -42.5 108.5t-129.5 42.5h-119z" />
<glyph unicode="C" horiz-adv-x="1056" d="M111 512q0 117 23 234.5t74.5 231.5t126 201.5t186.5 141.5t246 54q203 0 350 -101l-79 -371l-216 1l58 282q-55 12 -112 12q-91 0 -159 -42t-123.5 -147t-90.5 -277q-30 -148 -30 -240q0 -71 15.5 -127t41 -91t61 -57.5t73.5 -31.5t82 -9q122 0 241 80l51 -134 q-145 -146 -356 -146q-44 0 -85.5 6t-88.5 22t-87.5 41t-78.5 67t-64.5 96.5t-42.5 132t-16 171.5z" />
<glyph unicode="D" horiz-adv-x="1216" d="M-25 0l35 164h126l218 1024h-127l35 164h457q239 0 358.5 -136.5t119.5 -374.5q0 -90 -17.5 -184.5t-52 -189.5t-91 -178.5t-129.5 -148.5t-173.5 -102.5t-216.5 -37.5h-542zM385 164h109q75 0 136.5 24.5t116 79t97.5 149t72 228.5q30 139 30 242q0 153 -60 227t-198 74 h-86z" />
<glyph unicode="E" horiz-adv-x="1062" d="M-25 0l35 164h126l218 1024h-127l35 164h904l-75 -355h-215l39 191h-312l-88 -411h293l-35 -165h-293l-95 -448h329l41 202h215l-76 -366h-919z" />
<glyph unicode="F" horiz-adv-x="1021" d="M-25 0l35 164h125l219 1024h-127l35 164h893l-77 -360h-215l39 196h-301l-92 -436h275l-34 -163h-276l-90 -425h161l-35 -164h-535z" />
<glyph unicode="G" horiz-adv-x="1155" d="M110 509q0 97 16.5 195t50 196t88.5 182.5t127 150.5t172 103.5t216 37.5q98 0 196.5 -25.5t172.5 -74.5l-75 -355h-219l57 264q-69 15 -128 15q-98 0 -169 -41t-127 -142.5t-91 -270.5q-35 -163 -35 -279q0 -88 22.5 -152.5t63.5 -100.5t91 -53t111 -17q34 0 50 2 l70 332h-143l35 163h469l-34 -163h-92l-87 -419q-149 -81 -329 -81q-47 0 -90.5 5.5t-93 21t-90.5 40t-80 66t-66 96t-43 132.5t-16 172z" />
<glyph unicode="H" horiz-adv-x="1325" d="M-25 0l35 164h124l219 1024h-126l35 164h490l-35 -164h-117l-87 -411h431l87 411h-115l35 164h489l-34 -164h-128l-216 -1024h124l-33 -164h-490l34 164h117l95 450h-431l-95 -450h116l-33 -164h-491z" />
<glyph unicode="I" horiz-adv-x="649" d="M-25 0l35 164h126l218 1024h-127l35 164h501l-35 -164h-126l-217 -1024h125l-34 -164h-501z" />
<glyph unicode="J" horiz-adv-x="659" d="M-216 -373l34 164q45 0 79.5 5.5t72 22.5t65 45.5t51.5 77.5t39 116l241 1130h-174l35 164h547l-35 -164h-124l-244 -1147q-91 -424 -469 -424q-59 0 -118 10z" />
<glyph unicode="K" horiz-adv-x="1263" d="M-25 0l35 164h126l218 1024h-127l35 164h483l-36 -164h-107l-100 -474l505 474h-142l35 164h516l-35 -164h-108l-529 -483l310 -543h126l-35 -162h-513l34 162h110l-283 511l-109 -509h108l-34 -164h-483z" />
<glyph unicode="L" horiz-adv-x="1007" d="M-25 0l35 164h126l217 1024h-126l35 164h534l-35 -164h-159l-217 -1024h308l42 202h219l-78 -366h-901z" />
<glyph unicode="M" horiz-adv-x="1693" d="M-18 0l34 164h125l220 1025h-127l35 163h499l31 -850q0 -141 -6 -267q91 226 110 270l387 847h513l-34 -163h-124l-219 -1025h123l-35 -164h-468l34 164h107l217 1022q-31 -83 -68 -169l-482 -1017h-249l-44 1034q-1 26 -1 81v74l-218 -1025h108l-34 -164h-434z" />
<glyph unicode="N" horiz-adv-x="1361" d="M-18 0l35 164h125l218 1024h-126l35 164h462l149 -805q24 -176 32 -333l205 974h-122l36 164h444l-35 -164h-123l-253 -1188h-319l-158 853q-11 87 -29 323l-216 -1012h121l-35 -164h-446z" />
<glyph unicode="O" horiz-adv-x="1181" d="M108 491q0 95 16.5 194.5t48 199.5t84.5 187.5t120 155.5t160 107.5t200 39.5q58 0 111 -10.5t112.5 -44.5t102 -88.5t71 -150.5t28.5 -222q0 -95 -16 -194t-48 -199t-84.5 -187.5t-120 -155.5t-160.5 -107.5t-200 -39.5q-58 0 -110.5 11t-112 44.5t-102.5 88t-71.5 150 t-28.5 221.5zM355 405q0 -75 17.5 -128.5t47.5 -79.5t60.5 -37t65.5 -11q53 0 97.5 24t87 79.5t79 154.5t66.5 241q41 190 41 298q0 76 -17 129t-46.5 79t-60 37t-66.5 11q-53 0 -97.5 -24t-87.5 -79.5t-79.5 -154.5t-66.5 -241q-41 -202 -41 -298z" />
<glyph unicode="P" horiz-adv-x="1122" d="M-25 0l35 164h125l218 1024h-126l35 164h528q176 0 281 -95.5t105 -255.5q0 -71 -17 -136.5t-55 -125t-92.5 -103t-135.5 -69.5t-178 -26h-234l-80 -377h160l-35 -164h-534zM499 706h169q196 0 242 215q10 48 10 77q0 85 -45 137.5t-136 52.5h-137z" />
<glyph unicode="Q" horiz-adv-x="1181" d="M108 491q0 95 16.5 194.5t48 199.5t84.5 187.5t120 155.5t160 107.5t200 39.5q58 0 111 -10.5t112.5 -44.5t102 -88.5t71 -150.5t28.5 -222q0 -123 -27 -251t-79.5 -249t-142 -216t-202.5 -137q100 -89 211 -123t242 -34q15 0 30.5 0.5t25 1t10.5 0.5l-34 -163 q-71 -7 -133 -7q-327 0 -563 296q-56 3 -106 17t-104 50t-93 90.5t-64 146.5t-25 210zM355 405q0 -75 17.5 -128.5t47.5 -79.5t60.5 -37t65.5 -11q53 0 97.5 24t87 79.5t79 154.5t66.5 241q41 190 41 298q0 76 -17 129t-46.5 79t-60 37t-66.5 11q-53 0 -97.5 -24 t-87.5 -79.5t-79.5 -154.5t-66.5 -241q-41 -202 -41 -298z" />
<glyph unicode="R" horiz-adv-x="1177" d="M-25 0l35 164h126l218 1024h-127l35 164h533q169 -4 272.5 -97t103.5 -251q0 -139 -80.5 -255t-233.5 -158l114 -359q11 -36 30 -52t51 -16h50l-34 -164q-50 -18 -109 -18q-171 0 -222 198l-121 392h-148l-86 -408h111l-34 -164h-484zM503 733h186q90 0 149 53t75 144 q6 37 6 73q0 83 -43 134t-128 51h-149z" />
<glyph unicode="S" horiz-adv-x="1026" d="M2 93l75 350l222 1l-55 -254q100 -36 184 -36q129 0 188 56t59 136q0 36 -10.5 65t-38 56.5t-42.5 39.5t-58 42l-104 72q-111 80 -168.5 161t-57.5 190q0 62 17.5 119t56 109t95 90.5t140 61t185.5 22.5q225 0 380 -107l-71 -335l-222 -1l53 246q-80 20 -143 20 q-128 0 -183 -53t-55 -130q0 -61 34 -105t107 -97l105 -72q100 -72 135 -107q102 -102 102 -245q0 -61 -16.5 -117.5t-54.5 -111t-94.5 -94.5t-143.5 -64.5t-194 -24.5q-115 0 -226.5 30t-200.5 87z" />
<glyph unicode="T" horiz-adv-x="1142" d="M140 984l79 368h1082l-79 -368h-213l42 204h-203l-216 -1024h168l-35 -164h-584l35 164h167l218 1024h-205l-43 -204h-213z" />
<glyph unicode="U" horiz-adv-x="1253" d="M169 341q0 49 11 110l159 737h-124l35 164h487l-34 -164h-114l-169 -784q-8 -48 -8 -69q0 -91 60 -139.5t148 -48.5q85 0 145 50.5t83 160.5l177 830h-116l35 164h437l-35 -164h-121l-174 -827q-40 -185 -157.5 -285t-289.5 -100q-54 0 -109 9.5t-115 35t-105.5 65 t-75.5 105.5t-30 150z" />
<glyph unicode="V" horiz-adv-x="1193" d="M160 1188l35 164h488l-35 -164h-147l46 -868q1 -38 1 -68t-1 -50q16 48 51 126l411 860h-130l35 164h449l-35 -164h-100l-582 -1188h-310l-72 1188h-104z" />
<glyph unicode="W" horiz-adv-x="1830" d="M194 1188l35 164h490l-34 -164h-145l9 -841q-4 -115 -6 -135q12 41 47 155l382 985h278l3 -966q0 -64 -4 -168q8 22 25 71t28 79l336 820h-143l35 164h464l-35 -164h-111l-498 -1188h-317l6 804q3 59 8.5 158.5t6.5 116.5q-33 -115 -81 -245l-337 -834h-320l-19 1188 h-103z" />
<glyph unicode="X" horiz-adv-x="1239" d="M-59 0l34 164h108l445 544l-204 480h-116l35 164h507l-35 -164h-142l150 -350l282 350h-128l35 164h468l-35 -164h-114l-419 -521l215 -503h126l-34 -164h-509l34 164h134l-160 376l-305 -376h130l-34 -164h-468z" />
<glyph unicode="Y" horiz-adv-x="1185" d="M158 1189l34 163h513l-35 -163h-139l100 -358q21 -100 26 -143q36 66 93 149l254 352h-129l34 163h462l-34 -163h-108l-498 -688l-71 -337h168l-35 -164h-585l35 164h168l74 348l-214 677h-113z" />
<glyph unicode="Z" horiz-adv-x="1005" d="M-57 0l27 135l821 1053h-340l-38 -183h-214l73 347h846l-29 -131l-821 -1057h400l43 202h219l-78 -366h-909z" />
<glyph unicode="[" horiz-adv-x="567" d="M-16 -371l399 1878h357l-32 -143h-165l-338 -1592h165l-30 -143h-356z" />
<glyph unicode="\" horiz-adv-x="851" d="M243 1425h191l266 -1499h-192z" />
<glyph unicode="]" horiz-adv-x="567" d="M-130 -371l32 143h165l339 1592h-165l30 143h356l-400 -1878h-357z" />
<glyph unicode="^" horiz-adv-x="950" d="M132 758l343 617h125l342 -617h-195l-210 356l-210 -356h-195z" />
<glyph unicode="_" horiz-adv-x="931" d="M-102 -299l33 159h812l-33 -159h-812z" />
<glyph unicode="`" horiz-adv-x="507" d="M213 1393q0 19 12 30.5t34 11.5h168l79 -363h-131l-150 284q-12 22 -12 37z" />
<glyph unicode="a" horiz-adv-x="1013" d="M67 324q0 77 14 161t47 171.5t80.5 157t121 113.5t161.5 44q93 0 151.5 -49.5t68.5 -134.5l38 159h216l-150 -704q-6 -27 -6 -48q0 -39 53 -39q10 0 29 0.5t21 0.5l-33 -156q-44 -17 -111 -17q-75 0 -121 40t-52 110q-38 -71 -102 -114t-150 -43q-56 0 -103.5 18.5 t-87 57.5t-62.5 108.5t-23 163.5zM302 314q0 -86 30 -123t89 -37q77 0 126.5 68t85.5 238q23 107 23 169q0 83 -33.5 123.5t-93.5 40.5q-72 0 -122.5 -69.5t-82.5 -235.5q-22 -107 -22 -174z" />
<glyph unicode="b" horiz-adv-x="1007" d="M47 0l271 1268h-113l33 157h343l-128 -592q82 138 226 138q41 0 78 -11t72 -37t60.5 -65.5t40.5 -100t15 -135.5q0 -63 -10.5 -132.5t-31 -143t-55.5 -139t-80 -118t-108.5 -83t-136.5 -30.5q-94 0 -152.5 48t-69.5 135l-39 -159h-215zM354 318q0 -82 34 -123t94 -41 q72 0 122 69t82 235q22 115 22 177q0 85 -30 121.5t-89 36.5q-77 0 -126 -68.5t-85 -238.5q-24 -112 -24 -168z" />
<glyph unicode="c" horiz-adv-x="862" d="M60 362q0 81 16 163t53.5 163t91.5 143.5t137 101t184 38.5q131 0 204.5 -60.5t73.5 -165.5q0 -67 -34 -162h-197q25 93 25 140q0 85 -86 85q-154 0 -213 -295q-17 -88 -17 -136q0 -111 52 -163.5t142 -52.5q97 0 193 49l45 -125q-124 -109 -304 -109q-52 0 -99.5 9 t-97.5 35t-86 67.5t-59.5 112t-23.5 162.5z" />
<glyph unicode="d" horiz-adv-x="1013" d="M67 326q0 63 10 132t30.5 142.5t55.5 139t80 117.5t109.5 83t139.5 31q88 0 145.5 -49.5t65.5 -131.5l101 478h-111l33 157h342l-252 -1183q-7 -33 -7 -48q0 -39 54 -39q11 0 30 0.5t20 0.5l-33 -156q-44 -17 -112 -17q-75 0 -120.5 39.5t-51.5 110.5q-38 -71 -102 -114 t-150 -43q-56 0 -103.5 18.5t-87.5 57.5t-63 109t-23 165zM303 313q0 -86 30 -122.5t89 -36.5q77 0 126 68t85 238q24 112 24 169q0 83 -34 123.5t-94 40.5q-72 0 -122 -69.5t-82 -235.5q-22 -107 -22 -175z" />
<glyph unicode="e" horiz-adv-x="868" d="M60 366q0 81 15.5 162t52.5 162t91 142.5t138.5 100t187.5 38.5q134 0 215 -65t81 -192q0 -299 -482 -331l-70 -4v-3q0 -111 51.5 -163t143.5 -52q101 0 201 49l45 -125q-124 -109 -304 -109q-53 0 -100 9t-97.5 35.5t-86.5 68.5t-59 113t-23 164zM305 515l60 6 q262 26 262 185q0 52 -26.5 78t-73.5 26q-161 0 -222 -295z" />
<glyph unicode="f" horiz-adv-x="575" d="M-212 -357l33 146q45 -9 75 -9q109 0 138 137l186 872h-109l33 157h109l41 193q68 311 354 311q72 0 155 -25l-32 -156q-50 8 -67 8q-152 0 -185 -154l-37 -177h163l-33 -157h-163l-191 -899q-31 -141 -106 -209t-202 -68q-89 0 -162 30z" />
<glyph unicode="g" horiz-adv-x="1003" d="M-4 -228l87 121q110 -97 239 -97q85 0 140 53.5t80 173.5l25 117q-80 -113 -218 -113q-54 0 -101 18.5t-87 56.5t-63 105t-23 157q0 72 13.5 150t45.5 160.5t78 147.5t118.5 107t159.5 42q94 0 151.5 -47t71.5 -132l38 154h216l-197 -932q-41 -197 -152 -299t-274 -102 q-101 0 -196 37t-152 122zM311 348q0 -78 30.5 -114.5t92.5 -36.5q74 0 123 63.5t83 225.5q18 82 18 137q0 170 -125 170q-73 0 -122.5 -65t-79.5 -215q-20 -103 -20 -165z" />
<glyph unicode="h" horiz-adv-x="1032" d="M48 0l270 1268h-114l33 157h342l-126 -585q78 131 228 131q113 0 180.5 -68.5t67.5 -179.5q0 -43 -12 -102l-82 -382q-8 -32 -8 -45q0 -39 55 -39q10 0 29 0.5t21 0.5l-33 -156q-49 -18 -120 -18q-91 0 -137 44.5t-46 124.5q0 40 12 91l77 368q9 40 9 63q0 56 -31.5 86 t-82.5 30q-61 0 -106.5 -43.5t-63.5 -124.5l-134 -621h-228z" />
<glyph unicode="i" horiz-adv-x="528" d="M89 151q0 33 12 91l115 547h-112l32 157h342l-150 -707q-8 -43 -8 -45q0 -39 57 -39q9 0 21 0.5t20.5 0.5h9.5l-33 -156q-49 -18 -121 -18q-90 0 -137.5 44.5t-47.5 124.5zM250 1253q0 62 41 102.5t105 40.5q62 0 104 -41t42 -102t-42 -101.5t-104 -40.5q-64 0 -105 40 t-41 102z" />
<glyph unicode="j" horiz-adv-x="518" d="M-212 -357l33 146q45 -9 75 -9q54 0 88.5 32.5t49.5 105.5l185 871h-109l33 157h339l-224 -1056q-30 -140 -105.5 -208.5t-201.5 -68.5q-90 0 -163 30zM260 1253q0 62 41 102.5t104 40.5q62 0 104 -41t42 -102t-42 -101.5t-104 -40.5q-64 0 -104.5 40t-40.5 102z" />
<glyph unicode="k" horiz-adv-x="989" d="M48 0l270 1268h-114l33 157h342l-213 -1001q205 96 297.5 163t92.5 135q0 69 -77 69q-6 0 -62 -2l33 157q54 17 124 17q97 0 153.5 -49.5t56.5 -136.5q0 -105 -89 -196t-274 -180l135 -193q39 -53 94 -53q30 0 49 1l-33 -156q-46 -18 -106 -18q-73 0 -116 28.5t-91 103.5 l-194 275l-83 -389h-228z" />
<glyph unicode="l" horiz-adv-x="555" d="M88 152q0 31 13 93l216 1023h-113l34 157h340l-251 -1185q-6 -32 -6 -45q0 -40 63 -40q12 0 35.5 0.5t24.5 0.5l-33 -156q-51 -18 -128 -18q-93 0 -144 45t-51 125z" />
<glyph unicode="m" horiz-adv-x="1540" d="M48 0l168 789h-114l34 157h300l-24 -139q85 164 262 164q94 0 158 -46t85 -126q93 172 265 172q116 0 185.5 -68.5t69.5 -179.5q0 -41 -14 -102l-81 -382q-8 -32 -8 -45q0 -39 55 -39q9 0 20.5 0.5t20 0.5h9.5l-33 -156q-49 -18 -119 -18q-91 0 -137.5 44.5t-46.5 123.5 q0 37 11 90l79 370q6 26 6 63q0 56 -30 86t-81 30q-63 0 -109 -43t-64 -126l-131 -620h-229l130 611q8 35 8 64q0 55 -31 84.5t-82 29.5q-61 0 -107 -43.5t-64 -124.5l-133 -621h-228z" />
<glyph unicode="n" horiz-adv-x="1032" d="M48 0l168 789h-114l34 157h299l-24 -143q84 168 261 168q116 0 186.5 -68.5t70.5 -179.5q0 -43 -12 -102l-83 -382q-7 -28 -7 -45q0 -39 54 -39q9 0 21 0.5t20.5 0.5h9.5l-33 -156q-49 -18 -118 -18q-91 0 -138 44t-47 123q0 33 12 91l77 370q7 31 7 61q0 59 -30 88.5 t-82 29.5q-63 0 -109 -44.5t-62 -123.5l-133 -621h-228z" />
<glyph unicode="o" horiz-adv-x="925" d="M57 354q0 78 15.5 159.5t51.5 164.5t89 147.5t135 105t181 40.5q67 0 124.5 -19t108 -60.5t80 -118t29.5 -180.5q0 -78 -15 -159t-51 -164.5t-89 -148t-135 -105t-182 -40.5q-67 0 -124.5 19t-108 60.5t-80 118t-29.5 180.5zM284 300q0 -83 33 -122t89 -39q74 0 126 73 t87 244q25 122 25 191q0 160 -121 160q-74 0 -126.5 -73t-87.5 -245q-25 -118 -25 -189z" />
<glyph unicode="p" horiz-adv-x="1013" d="M-141 -362l32 154h118l211 997h-114l31 157h299l-26 -155q38 86 108 133t158 47q55 0 102.5 -18.5t87 -57.5t62.5 -109t23 -165q0 -76 -14 -159.5t-46.5 -171.5t-80 -157t-121 -113t-162.5 -44q-85 0 -142.5 40t-76.5 110l-69 -334h124l-33 -154h-471zM361 318 q0 -82 34 -123t94 -41q72 0 122.5 69.5t82.5 234.5q21 110 21 176q0 86 -29.5 122.5t-88.5 36.5q-77 0 -126.5 -68.5t-85.5 -238.5q-24 -112 -24 -168z" />
<glyph unicode="q" horiz-adv-x="997" d="M67 325q0 63 10 132t30.5 142.5t55.5 139.5t79.5 118t108 83t137.5 31q94 0 153 -48t71 -136l37 159h216l-245 -1153h113l-35 -155h-457l34 155h128l67 315q-78 -132 -229 -132q-55 0 -101.5 18.5t-86.5 57.5t-63 109t-23 164zM302 313q0 -86 30 -122.5t89 -36.5 q77 0 126.5 68t85.5 238q23 107 23 169q0 83 -33.5 123.5t-93.5 40.5q-72 0 -122.5 -69.5t-82.5 -235.5q-22 -107 -22 -175z" />
<glyph unicode="r" horiz-adv-x="710" d="M48 0l168 789h-114l34 157h312l-38 -176q45 98 120 148.5t168 50.5q32 0 78 -10l-42 -196q-46 6 -73 6q-107 0 -175.5 -56t-89.5 -150l-120 -563h-228z" />
<glyph unicode="s" horiz-adv-x="817" d="M16 198q0 47 18 119h181q-8 -48 -8 -76q0 -106 129 -106q76 0 114 33t38 83q0 38 -23.5 65t-77.5 60l-71 41q-91 54 -137 115.5t-46 143.5q0 124 91.5 209.5t258.5 85.5q132 0 209.5 -56t77.5 -150q0 -29 -16 -111h-183q6 54 6 69q0 89 -98 89q-60 0 -94 -30.5t-34 -78.5 q0 -39 23 -66t70 -56l76 -45q101 -58 147.5 -113.5t46.5 -141.5q0 -134 -104.5 -219.5t-279.5 -85.5q-144 0 -229 59.5t-85 162.5z" />
<glyph unicode="t" horiz-adv-x="651" d="M104 789l32 157h117l88 267h196l-57 -267h235l-34 -157h-234l-98 -462q-14 -74 -14 -90q0 -89 119 -89q66 0 109 8l-33 -156q-68 -24 -151 -24q-132 0 -203 60t-71 167q0 39 7 74l106 512h-114z" />
<glyph unicode="u" horiz-adv-x="1028" d="M100 225q0 35 12 102l100 462h-109l33 157h338l-130 -611q-9 -41 -9 -64q0 -56 30.5 -84.5t81.5 -28.5q64 0 109.5 43.5t62.5 124.5l134 620h228l-149 -707q-9 -36 -9 -45q0 -39 54 -39q12 0 32 1h20l-33 -156q-45 -17 -111 -17q-77 0 -123 39.5t-52 108.5 q-85 -155 -255 -155q-115 0 -185 69t-70 180z" />
<glyph unicode="v" horiz-adv-x="974" d="M90 789l33 157h288l19 -785q144 172 224 319.5t80 239.5q0 38 -19 54.5t-58 16.5q-5 0 -51 -2l33 157q54 17 114 17q97 0 153.5 -52t56.5 -143q0 -135 -127 -343t-350 -425h-256l-33 789h-107z" />
<glyph unicode="w" horiz-adv-x="1445" d="M90 789l33 157h287l8 -776q265 342 265 590v9l-6 177h215l12 -783q141 165 221 313.5t80 240.5q0 39 -18 56.5t-60 17.5q-4 0 -50 -2l33 157q53 17 115 17q97 0 153.5 -52t56.5 -143q0 -136 -126 -344t-349 -424h-236l-4 352q-74 -146 -265 -352h-237l-21 789h-107z" />
<glyph unicode="x" horiz-adv-x="962" d="M-55 -5l34 158h42q44 0 74.5 9.5t70.5 41.5t87.5 96.5t111.5 171.5l-131 317h-108l33 157h251l121 -294q43 96 89 160t93 95.5t88 43t90 11.5q70 0 108 -16l-33 -157h-47q-42 0 -71 -8.5t-67 -38t-82.5 -87.5t-104.5 -155l117 -283q25 -62 95 -62h46l-33 -155 q-53 -18 -103 -18q-80 0 -131.5 41t-88.5 132l-67 164q-44 -105 -92 -175.5t-97 -105t-92 -47.5t-94 -13q-56 0 -109 17z" />
<glyph unicode="y" horiz-adv-x="1024" d="M-153 -357l32 148q58 -12 103 -12q141 0 292 130l-78 880h-107l34 157h281l58 -860q125 158 205 336t80 287q0 45 -16.5 63.5t-61.5 18.5q-4 0 -50 -2l33 157q54 17 114 17q98 0 154 -51t56 -147q0 -149 -123.5 -388.5t-332.5 -460.5q-284 -302 -518 -302q-83 0 -155 29z " />
<glyph unicode="z" horiz-adv-x="858" d="M-44 0l30 140l571 648h-246l-31 -143h-185l64 301h699l-30 -141l-567 -649h188q59 0 90 22t41 74l19 89h191l-27 -128q-23 -109 -93 -161t-194 -52h-520z" />
<glyph unicode="{" horiz-adv-x="600" d="M25 510l33 156h43q66 0 101.5 24.5t51.5 101.5l100 460q56 263 302 263q68 0 113 -12l-27 -137h-14q-81 0 -127 -31t-64 -116l-100 -469q-27 -132 -143 -182q67 -60 67 -143q0 -21 -9 -65l-84 -397q-11 -52 -10 -72q2 -60 36.5 -89t108.5 -29l-29 -143q-26 -3 -54 -3 q-69 0 -124.5 22.5t-93.5 77t-38 135.5q0 37 13 95l83 398q6 32 6 56q0 99 -99 99h-42z" />
<glyph unicode="|" horiz-adv-x="690" d="M288 -190l1 1691h191v-1691h-192z" />
<glyph unicode="}" horiz-adv-x="600" d="M-125 -364l27 136h13q83 0 128.5 30.5t63.5 116.5l107 507q25 131 142 182q-66 58 -66 145q0 21 8 63l78 360q9 53 8 72q-2 118 -143 118l30 143q16 2 52 2q50 0 94 -13t81 -40t58.5 -74t21.5 -108q0 -32 -12 -94l-76 -362q-6 -24 -6 -54q0 -100 99 -100h43l-33 -156h-43 q-65 0 -101 -25t-53 -102l-106 -496q-56 -264 -305 -264q-61 0 -110 13z" />
<glyph unicode="~" d="M90 505q41 115 113 181t167 66q77 0 179 -61l58 -35q71 -41 121 -41q47 0 80.5 29t66.5 89l130 -57q-41 -116 -113 -182.5t-168 -66.5q-35 0 -71.5 11.5t-54.5 21t-52 29.5l-58 34q-72 44 -121 44q-48 0 -80.5 -29t-67.5 -90z" />
<glyph unicode="&#xa1;" horiz-adv-x="555" d="M-27 -362l225 897h195l-165 -897h-255zM211 826q0 62 41 103.5t102 41.5q63 0 104 -41.5t41 -103.5t-41 -103t-104 -41q-61 0 -102 41t-41 103z" />
<glyph unicode="&#xa2;" d="M167 519q0 76 16 152.5t50.5 150t83.5 132.5t121 99t158 50l56 263h189l-58 -276q104 -25 177 -75l-59 -285h-195l44 202q-43 8 -79 8q-89 0 -150.5 -63.5t-94.5 -216.5q-16 -74 -16 -140q0 -112 56 -161t139 -49q87 0 190 54l44 -121q-105 -105 -263 -116l-55 -258h-189 l61 282q-100 36 -163 125t-63 243z" />
<glyph unicode="&#xa3;" d="M28 0l31 147q68 21 118.5 60t77.5 86.5t39.5 95.5t12.5 97v8h-218l33 156h161q-32 143 -32 206q0 77 27 148.5t78.5 130t135 93.5t186.5 35q70 0 131 -16.5t111.5 -51t80 -94.5t29.5 -140q0 -26 -2 -39l-159 -32q-10 101 -53 149t-125 48q-105 0 -161.5 -71.5 t-56.5 -175.5q0 -55 29 -190h251l-33 -156h-199q-1 -99 -46 -183t-132 -131h369l33 162h184l-72 -342h-829z" />
<glyph unicode="&#xa4;" d="M34 360l204 168q-21 58 -21 121q0 134 77 242l-127 171l146 112l122 -162q78 38 165 38q111 0 193 -57l199 160l109 -131l-203 -167q20 -57 20 -123q0 -134 -77 -242l127 -170l-147 -111l-120 159q-78 -38 -164 -38q-113 0 -195 59l-199 -160zM409 664q0 -77 37 -117.5 t101 -40.5q82 0 132 61.5t50 151.5q0 77 -37 117t-100 40q-83 0 -133 -61t-50 -151z" />
<glyph unicode="&#xa5;" horiz-adv-x="1015" d="M50 270l32 147h305l28 133h-306l32 150h243l-128 394h-107l33 149h417l-32 -149h-106l79 -272q18 -64 24 -102q29 51 76 117l183 257h-104l33 149h414l-33 -149h-101l-291 -394h235l-31 -150h-305l-29 -133h306l-32 -147h-305l-28 -133h142l-29 -137h-508l29 137h142 l28 133h-306z" />
<glyph unicode="&#xa6;" horiz-adv-x="690" d="M288 -190l1 563h191v-563h-192zM289 938v563h191v-563h-191z" />
<glyph unicode="&#xa7;" horiz-adv-x="948" d="M11 -138l58 280h184l-35 -178q73 -17 120 -17q94 0 138 43t44 109q0 48 -23 78t-83 72l-109 69q-109 71 -156.5 129.5t-47.5 150.5q0 100 55.5 181t162.5 134q-61 79 -61 173q0 64 24.5 123t71.5 106.5t123.5 76t172.5 28.5q87 0 179.5 -23.5t162.5 -65.5l-58 -278h-184 l36 181q-63 15 -121 15q-93 0 -137.5 -43.5t-44.5 -109.5q0 -48 23.5 -77.5t83.5 -71.5l108 -71q54 -35 86.5 -60.5t62 -59t42 -72.5t12.5 -88q0 -99 -55.5 -180t-161.5 -133q61 -79 61 -174q0 -64 -24.5 -123t-71.5 -106.5t-124 -76t-172 -28.5q-87 0 -179.5 23t-162.5 64z M317 632q0 -43 20.5 -72t82.5 -71l124 -84l30 -21q58 40 85 82t27 97q0 42 -20.5 71t-81.5 72l-124 84l-30 21q-58 -41 -85.5 -83.5t-27.5 -95.5z" />
<glyph unicode="&#xa8;" horiz-adv-x="768" d="M227 1252q0 58 39 96t97 38t96.5 -38t38.5 -96q0 -57 -38.5 -95.5t-96.5 -38.5t-97 38.5t-39 95.5zM606 1252q0 58 39 96t97 38t97 -38t39 -96q0 -57 -39 -95.5t-97 -38.5t-97 38.5t-39 95.5z" />
<glyph unicode="&#xa9;" horiz-adv-x="1531" d="M116 678q0 187 93.5 346.5t253.5 252.5t347 93t347 -93t253.5 -252.5t93.5 -346.5t-93.5 -347t-253.5 -253.5t-347 -93.5t-347 93.5t-253.5 253.5t-93.5 347zM254 678q0 -159 76 -291t204 -207t278 -75q149 0 276 75t202.5 207t75.5 291q0 118 -44.5 224.5t-119.5 182 t-177 119.5t-213 44q-112 0 -214.5 -44t-178 -119.5t-120.5 -182t-45 -224.5zM514 607q0 77 21 149.5t61.5 134.5t109.5 99.5t156 37.5q53 0 110 -12.5t93 -34.5l-45 -221h-145l30 147q-14 2 -37 2q-69 0 -110 -44.5t-62 -155.5q-11 -69 -11 -104q0 -139 137 -139 q58 0 116 29l33 -93q-78 -76 -203 -76q-35 0 -66.5 6t-67 24.5t-61 48.5t-42.5 82t-17 120z" />
<glyph unicode="&#xaa;" horiz-adv-x="641" d="M51 403l31 141h520l-30 -141h-521zM145 876q0 61 15 126t44.5 125.5t80.5 99.5t114 39q56 0 90.5 -30t39.5 -80l25 95h147l-88 -420q-4 -18 -4 -27q0 -22 29 -22h28l-24 -106q-31 -11 -69 -11q-50 0 -79.5 23t-35.5 64q-20 -39 -58 -63t-88 -24q-70 0 -118.5 51 t-48.5 160zM310 873q0 -45 13.5 -65t43.5 -20q41 0 67.5 37t45.5 130q12 64 12 92q0 93 -64 93q-37 0 -62.5 -38.5t-42.5 -130.5q-13 -67 -13 -98z" />
<glyph unicode="&#xab;" horiz-adv-x="931" d="M71 502l335 382l122 -86l-224 -312l92 -311l-154 -58zM451 502l334 382l122 -86l-224 -312l92 -311l-154 -58z" />
<glyph unicode="&#xac;" d="M97 509l36 172h798l-105 -493h-188l69 321h-610z" />
<glyph unicode="&#xad;" horiz-adv-x="512" d="M48 420l36 165h398l-36 -165h-398z" />
<glyph unicode="&#xae;" horiz-adv-x="1064" d="M183 1001q0 192 135 328t328 136q192 0 327 -136t135 -328q0 -193 -134.5 -328t-327.5 -135q-194 0 -328.5 135t-134.5 328zM292 1001q0 -159 102 -262t250 -103q149 0 252 103t103 262q0 158 -103 261t-252 103q-148 0 -250 -103t-102 -261zM434 794l16 73h39l59 274 h-40l16 75h182q57 0 91 -29.5t34 -79.5q0 -41 -21 -78t-62 -55l29 -87q9 -23 28 -23h14l-14 -70q-26 -7 -50 -7q-56 0 -75 65l-30 108h-38l-20 -93h33l-17 -73h-174zM626 1027h40q47 0 59 51q3 21 3 27q0 15 -10.5 25.5t-31.5 10.5h-36z" />
<glyph unicode="&#xaf;" horiz-adv-x="636" d="M203 1151l36 167h525l-36 -167h-525z" />
<glyph unicode="&#xb0;" horiz-adv-x="686" d="M202 1185q0 129 82 210.5t206 81.5t212 -82t88 -210q0 -127 -85 -209.5t-208 -82.5q-124 0 -209.5 82.5t-85.5 209.5zM367 1185q0 -62 36.5 -98t93.5 -36q56 0 92 36t36 98t-36 97.5t-92 35.5q-57 0 -93.5 -35.5t-36.5 -97.5z" />
<glyph unicode="&#xb1;" d="M7 0l35 164h827l-35 -164h-827zM134 594l34 164h320l56 266h195l-57 -266h314l-34 -164h-315l-59 -280h-193l59 280h-320z" />
<glyph unicode="&#xb2;" horiz-adv-x="665" d="M110 774l21 105l310 276q85 76 120 123.5t35 100.5q0 81 -84 81q-111 0 -110 -146h-158q-2 18 -2 45q0 102 75.5 171.5t201.5 69.5q71 0 129 -21t98 -73.5t40 -129.5q0 -86 -51.5 -157t-174.5 -169l-154 -124h298l-33 -152h-561z" />
<glyph unicode="&#xb3;" horiz-adv-x="663" d="M139 887l69 92q87 -66 178 -66q76 0 111.5 34.5t35.5 82.5q0 43 -28 68t-81 25h-55l26 124h50q40 1 69.5 15t44 36.5t20.5 44t6 44.5q0 73 -77 73q-97 0 -94 -118h-154q-3 15 -3 45q0 90 69.5 151t190.5 61q45 0 87 -9.5t82.5 -31.5t65 -64.5t24.5 -101.5 q0 -72 -37 -128.5t-114 -82.5q100 -45 100 -158q0 -48 -19 -93.5t-55.5 -84t-97 -62t-134.5 -23.5q-87 0 -161.5 31.5t-118.5 95.5z" />
<glyph unicode="&#xb4;" horiz-adv-x="507" d="M196 1072l228 363h191q19 0 28.5 -9.5t9.5 -23.5q0 -18 -30 -50l-275 -280h-152z" />
<glyph unicode="&#xb5;" horiz-adv-x="1021" d="M-40 -362l280 1308h228l-131 -609q-6 -46 -6 -66q0 -56 30 -84.5t80 -28.5q64 0 109.5 43.5t64.5 124.5l131 620h229l-151 -707q-6 -24 -6 -45q0 -39 53 -39q9 0 20.5 0.5t20 0.5h9.5l-32 -156q-44 -17 -112 -17q-75 0 -120.5 39.5t-51.5 108.5q-84 -155 -241 -155 q-68 0 -108 30l-68 -368h-228z" />
<glyph unicode="&#xb6;" horiz-adv-x="1355" d="M149 896q0 69 16 133t52 123.5t89.5 103.5t135 70t181.5 26h846l-35 -167h-171l-247 -1168q-44 -198 -175.5 -295.5t-327.5 -97.5h-136l37 177h125q46 0 87 12.5t78 39t65 73.5t42 110l242 1149h-145l-246 -1169h-203l111 525h-9q-180 0 -296 99t-116 256z" />
<glyph unicode="&#xb7;" horiz-adv-x="489" d="M104 503q0 64 43 106t108 42q64 0 106.5 -42t42.5 -106q0 -63 -42.5 -105.5t-106.5 -42.5q-65 0 -108 42.5t-43 105.5z" />
<glyph unicode="&#xb8;" horiz-adv-x="497" d="M-114 -355l26 121q50 -14 97 -14q45 0 71 17.5t26 46.5q0 26 -21 40.5t-68 19.5l53 160h142l-25 -119q115 -29 115 -118q0 -73 -65 -129.5t-183 -56.5q-80 0 -168 32z" />
<glyph unicode="&#xb9;" horiz-adv-x="581" d="M137 774l25 123h151l110 521l-171 -4l24 119l242 52h123l-144 -688h130l-25 -123h-465z" />
<glyph unicode="&#xba;" horiz-adv-x="595" d="M54 403l31 141h458l-31 -141h-458zM149 900q0 47 9.5 95t31.5 97.5t55 87.5t84 62t114 24q43 0 80 -11.5t69 -37t50.5 -73t18.5 -111.5q0 -47 -9.5 -96t-31.5 -98.5t-54.5 -87.5t-84 -62t-113.5 -24q-43 0 -80 12t-69.5 38t-51 73.5t-18.5 111.5zM312 869q0 -88 57 -88 q39 0 66.5 40t46.5 140q14 76 14 102q0 86 -56 86q-39 0 -66.5 -40t-46.5 -138q-15 -69 -15 -102z" />
<glyph unicode="&#xbb;" horiz-adv-x="931" d="M39 203l223 314l-91 311l154 56l170 -383l-334 -384zM418 203l223 314l-90 311l153 56l171 -383l-335 -384z" />
<glyph unicode="&#xbc;" horiz-adv-x="1570" d="M86 541l26 123h150l111 521l-172 -4l25 119l241 52h124l-144 -688h130l-26 -123h-465zM345 -1l380 677l354 674h197l-378 -676l-357 -675h-196zM801 163l19 91l419 557h149h93l-111 -522h114l-27 -126h-114l-35 -163h-172l34 163h-369zM1006 289h196l69 301q10 51 20 86 q-29 -52 -62 -94z" />
<glyph unicode="&#xbd;" horiz-adv-x="1615" d="M86 541l26 123h150l111 521l-172 -4l25 119l241 52h124l-144 -688h130l-26 -123h-465zM345 -1l380 677l354 674h197l-378 -676l-357 -675h-196zM894 0l21 105l310 276q85 76 120 123.5t35 100.5q0 81 -84 81q-111 0 -110 -146h-157q-3 27 -3 45q0 102 75.5 171.5 t201.5 69.5q71 0 129 -21t98 -73.5t40 -129.5q0 -86 -51.5 -157.5t-174.5 -169.5l-154 -123h298l-33 -152h-561z" />
<glyph unicode="&#xbe;" horiz-adv-x="1634" d="M88 654l69 92q88 -67 179 -67q76 0 111 34.5t35 83.5q0 43 -27.5 68t-80.5 25h-56l26 123h51q40 1 69 15t43.5 36.5t20.5 44.5t6 45q0 73 -77 73q-97 0 -94 -119h-154q-2 10 -2 46q0 90 69.5 150.5t190.5 60.5q35 0 68.5 -5.5t69 -20t61.5 -36.5t42.5 -59.5t16.5 -84.5 q0 -72 -37 -129t-113 -83q100 -45 100 -157q0 -48 -19 -93.5t-55.5 -84.5t-97 -62.5t-134.5 -23.5q-86 0 -161.5 32t-119.5 96zM408 -1l380 677l354 674h198l-379 -676l-356 -675h-197zM864 163l20 91l418 557h150h92l-111 -522h115l-28 -126h-114l-34 -163h-172l33 163 h-369zM1069 289h197l68 301q10 51 20 86q-29 -52 -62 -94z" />
<glyph unicode="&#xbf;" horiz-adv-x="856" d="M-72 -85q0 52 17 100.5t39.5 83t64.5 73.5t72 62t82 60q110 79 146 120.5t52 120.5h197q-5 -49 -17.5 -89t-26.5 -68.5t-43.5 -62t-52 -54.5t-67.5 -61q-52 -44 -79.5 -69.5t-60.5 -63t-47 -72.5t-14 -73q0 -142 184 -142q41 0 92 8l55 261h205l-73 -355 q-144 -81 -333 -81q-53 0 -102.5 7t-104 27t-94 52.5t-65.5 88t-26 127.5zM404 826q0 62 41.5 103.5t103.5 41.5t102.5 -41.5t40.5 -103.5t-40.5 -103t-102.5 -41t-103.5 41t-41.5 103z" />
<glyph unicode="&#xc0;" horiz-adv-x="1204" d="M-80 0l35 164h101l584 1188h315l76 -1188h102l-34 -164h-478l33 164h140l-16 244h-391l-122 -244h129l-34 -164h-440zM464 571h308l-27 398q-2 46 -2 195q-29 -86 -85 -203zM560 1740q0 29 34 29h199l85 -311h-146l-146 226q-26 39 -26 56z" />
<glyph unicode="&#xc1;" horiz-adv-x="1204" d="M-80 0l35 164h101l584 1188h315l76 -1188h102l-34 -164h-478l33 164h140l-16 244h-391l-122 -244h129l-34 -164h-440zM464 571h308l-27 398q-2 46 -2 195q-29 -86 -85 -203zM712 1459l213 310h190q15 0 24.5 -10.5t9.5 -23.5q0 -30 -36 -59l-247 -218z" />
<glyph unicode="&#xc2;" horiz-adv-x="1204" d="M-80 0l35 164h101l584 1188h315l76 -1188h102l-34 -164h-478l33 164h140l-16 244h-391l-122 -244h129l-34 -164h-440zM464 571h309l-28 398q-2 46 -2 195q-29 -86 -85 -203zM473 1458l333 311h149l163 -311h-140l-134 154l-208 -154h-163z" />
<glyph unicode="&#xc3;" horiz-adv-x="1204" d="M-80 0l35 164h101l584 1188h315l76 -1188h102l-34 -164h-478l33 164h140l-16 244h-391l-122 -244h129l-34 -164h-440zM464 571h309l-28 398q-2 46 -2 195q-29 -86 -85 -203zM468 1468q4 79 30.5 143t80 106.5t126.5 42.5t144 -60l29 -24q40 -35 82 -35q38 0 60.5 25.5 t31.5 81.5h138q-6 -120 -68 -205.5t-171 -85.5q-40 0 -71 14t-70 48l-31 22q-44 36 -83 36q-74 0 -90 -109h-138z" />
<glyph unicode="&#xc4;" horiz-adv-x="1204" d="M-80 0l35 164h101l584 1188h315l76 -1188h102l-34 -164h-478l33 164h140l-16 244h-391l-122 -244h129l-34 -164h-440zM464 571h308l-27 398q-2 46 -2 195q-29 -86 -85 -203zM485 1605q0 59 39 97t97 38t97 -38t39 -97q0 -57 -39 -95.5t-97 -38.5t-97 38.5t-39 95.5z M901 1605q0 59 39.5 97t97.5 38t96.5 -38t38.5 -97q0 -57 -38.5 -95.5t-96.5 -38.5t-97.5 38.5t-39.5 95.5z" />
<glyph unicode="&#xc5;" horiz-adv-x="1204" d="M-80 0l35 164h101l584 1188h315l76 -1188h102l-34 -164h-478l33 164h140l-16 244h-391l-122 -244h129l-34 -164h-440zM464 571h308l-27 398q-2 46 -2 195q-29 -86 -85 -203zM605 1630q0 92 65 156t162 64q99 0 163.5 -63.5t64.5 -156.5q0 -94 -64.5 -157t-163.5 -63 q-97 0 -162 63.5t-65 156.5zM750 1630q0 -38 24 -61.5t60 -23.5q35 0 59 23.5t24 61.5q0 36 -24 59.5t-59 23.5q-36 0 -60 -23.5t-24 -59.5z" />
<glyph unicode="&#xc6;" horiz-adv-x="1646" d="M-100 0l34 164h103l643 1024h-124l35 164h1158l-75 -355h-215l38 191h-406l-20 -410h319l-35 -164h-291l-22 -450h255l41 202h216l-77 -366h-854l34 164h143l13 244h-401l-151 -244h128l-34 -164h-455zM514 571h308l33 567q-43 -86 -94 -171z" />
<glyph unicode="&#xc7;" horiz-adv-x="1056" d="M111 512q0 117 23 234.5t74.5 231.5t126 201.5t186.5 141.5t246 54q203 0 350 -101l-79 -371l-216 1l58 282q-55 12 -112 12q-91 0 -159 -42t-123.5 -147t-90.5 -277q-30 -148 -30 -240q0 -71 15.5 -127t41 -91t61 -57.5t73.5 -31.5t82 -9q122 0 241 80l51 -134 q-145 -146 -356 -146h-7l-13 -59q115 -29 115 -118q0 -73 -65 -129.5t-182 -56.5q-80 0 -168 32l26 121q50 -14 97 -14q45 0 71 17.5t26 46.5q0 26 -21 40.5t-68 19.5l39 119q-64 18 -116.5 52.5t-98.5 93.5t-72 154t-26 217z" />
<glyph unicode="&#xc8;" horiz-adv-x="1062" d="M-25 0l35 164h126l218 1024h-127l35 164h904l-75 -355h-215l39 191h-312l-88 -411h293l-35 -165h-293l-95 -448h329l41 202h215l-76 -366h-919zM523 1740q0 29 35 29h199l84 -311h-146l-146 226q-26 39 -26 56z" />
<glyph unicode="&#xc9;" horiz-adv-x="1062" d="M-25 0l35 164h126l218 1024h-127l35 164h904l-75 -355h-215l39 191h-312l-88 -411h293l-35 -165h-293l-95 -448h329l41 202h215l-76 -366h-919zM675 1459l214 310h190q15 0 24 -10t9 -24q0 -30 -36 -59l-247 -218z" />
<glyph unicode="&#xca;" horiz-adv-x="1062" d="M-25 0l35 164h126l218 1024h-127l35 164h904l-75 -355h-215l39 191h-312l-88 -411h293l-35 -165h-293l-95 -448h329l41 202h215l-76 -366h-919zM436 1458l333 311h149l163 -311h-139l-135 154l-208 -154h-163z" />
<glyph unicode="&#xcb;" horiz-adv-x="1062" d="M-25 0l35 164h126l218 1024h-127l35 164h904l-75 -355h-215l39 191h-312l-88 -411h293l-35 -165h-293l-95 -448h329l41 202h215l-76 -366h-919zM448 1605q0 59 39.5 97t97.5 38t96.5 -38t38.5 -97q0 -57 -38.5 -95.5t-96.5 -38.5t-97.5 38.5t-39.5 95.5zM865 1605 q0 59 39 97t97 38t96.5 -38t38.5 -97q0 -57 -38.5 -95.5t-96.5 -38.5t-97 38.5t-39 95.5z" />
<glyph unicode="&#xcc;" horiz-adv-x="649" d="M-25 0l35 164h126l218 1024h-127l35 164h501l-35 -164h-126l-217 -1024h125l-34 -164h-501zM298 1740q0 29 34 29h199l85 -311h-146l-146 226q-26 39 -26 56z" />
<glyph unicode="&#xcd;" horiz-adv-x="649" d="M-25 0l35 164h126l218 1024h-127l35 164h501l-35 -164h-126l-217 -1024h125l-34 -164h-501zM449 1459l214 310h190q15 0 24.5 -10.5t9.5 -23.5q0 -30 -36 -59l-247 -218z" />
<glyph unicode="&#xce;" horiz-adv-x="649" d="M-25 0l35 164h126l218 1024h-127l35 164h501l-35 -164h-126l-217 -1024h125l-34 -164h-501zM210 1458l334 311h149l163 -311h-140l-134 154l-208 -154h-164z" />
<glyph unicode="&#xcf;" horiz-adv-x="649" d="M-25 0l35 164h126l218 1024h-127l35 164h501l-35 -164h-126l-217 -1024h125l-34 -164h-501zM223 1605q0 59 39 97t97 38t97 -38t39 -97q0 -57 -39 -95.5t-97 -38.5t-97 38.5t-39 95.5zM639 1605q0 59 39 97t97 38t97 -38t39 -97q0 -57 -39 -95.5t-97 -38.5t-97 38.5 t-39 95.5z" />
<glyph unicode="&#xd0;" horiz-adv-x="1216" d="M-24 0l35 164h127l96 452h-127l34 161h127l87 411h-127l35 164h457q239 0 358.5 -136.5t119.5 -374.5q0 -90 -17.5 -184.5t-52 -189.5t-91 -178.5t-129.5 -148.5t-173.5 -102.5t-216.5 -37.5h-542zM386 164h109q75 0 136.5 24.5t116 79t97.5 149t72 228.5q31 143 31 242 q0 153 -60.5 227t-198.5 74h-85l-88 -411h219l-34 -161h-219z" />
<glyph unicode="&#xd1;" horiz-adv-x="1361" d="M-18 0l35 164h125l218 1024h-126l35 164h462l149 -805q24 -176 32 -333l205 974h-122l36 164h444l-35 -164h-123l-253 -1188h-319l-158 853q-11 87 -29 323l-216 -1012h121l-35 -164h-446zM544 1468q4 79 30.5 143t80 106.5t126.5 42.5t144 -60l29 -24q40 -35 82 -35 q38 0 60.5 25.5t31.5 81.5h138q-6 -120 -68 -205.5t-171 -85.5q-40 0 -71 14t-70 48l-31 22q-44 36 -83 36q-74 0 -90 -109h-138z" />
<glyph unicode="&#xd2;" horiz-adv-x="1181" d="M108 491q0 95 16.5 194.5t48 199.5t84.5 187.5t120 155.5t160 107.5t200 39.5q58 0 111 -10.5t112.5 -44.5t102 -88.5t71 -150.5t28.5 -222q0 -95 -16 -194t-48 -199t-84.5 -187.5t-120 -155.5t-160.5 -107.5t-200 -39.5q-58 0 -110.5 11t-112 44.5t-102.5 88t-71.5 150 t-28.5 221.5zM355 405q0 -75 17.5 -128.5t47.5 -79.5t60.5 -37t65.5 -11q53 0 97.5 24t87 79.5t79 154.5t66.5 241q41 190 41 298q0 76 -17 129t-46.5 79t-60 37t-66.5 11q-53 0 -97.5 -24t-87.5 -79.5t-79.5 -154.5t-66.5 -241q-41 -202 -41 -298zM562 1740q0 29 35 29h199 l84 -311h-146l-146 226q-26 39 -26 56z" />
<glyph unicode="&#xd3;" horiz-adv-x="1181" d="M108 491q0 95 16.5 194.5t48 199.5t84.5 187.5t120 155.5t160 107.5t200 39.5q58 0 111 -10.5t112.5 -44.5t102 -88.5t71 -150.5t28.5 -222q0 -95 -16 -194t-48 -199t-84.5 -187.5t-120 -155.5t-160.5 -107.5t-200 -39.5q-58 0 -110.5 11t-112 44.5t-102.5 88t-71.5 150 t-28.5 221.5zM355 405q0 -75 17.5 -128.5t47.5 -79.5t60.5 -37t65.5 -11q53 0 97.5 24t87 79.5t79 154.5t66.5 241q41 190 41 298q0 76 -17 129t-46.5 79t-60 37t-66.5 11q-53 0 -97.5 -24t-87.5 -79.5t-79.5 -154.5t-66.5 -241q-41 -202 -41 -298zM714 1459l214 310h190 q15 0 24 -10t9 -24q0 -30 -35 -59l-248 -218z" />
<glyph unicode="&#xd4;" horiz-adv-x="1181" d="M108 491q0 95 16.5 194.5t48 199.5t84.5 187.5t120 155.5t160 107.5t200 39.5q58 0 111 -10.5t112.5 -44.5t102 -88.5t71 -150.5t28.5 -222q0 -95 -16 -194t-48 -199t-84.5 -187.5t-120 -155.5t-160.5 -107.5t-200 -39.5q-58 0 -110.5 11t-112 44.5t-102.5 88t-71.5 150 t-28.5 221.5zM355 405q0 -75 17.5 -128.5t47.5 -79.5t60.5 -37t65.5 -11q53 0 97.5 24t87 79.5t79 154.5t66.5 241q41 190 41 298q0 76 -17 129t-46.5 79t-60 37t-66.5 11q-53 0 -97.5 -24t-87.5 -79.5t-79.5 -154.5t-66.5 -241q-41 -202 -41 -298zM475 1458l333 311h149 l163 -311h-139l-135 154l-208 -154h-163z" />
<glyph unicode="&#xd5;" horiz-adv-x="1181" d="M108 491q0 95 16.5 194.5t48 199.5t84.5 187.5t120 155.5t160 107.5t200 39.5q58 0 111 -10.5t112.5 -44.5t102 -88.5t71 -150.5t28.5 -222q0 -95 -16 -194t-48 -199t-84.5 -187.5t-120 -155.5t-160.5 -107.5t-200 -39.5q-58 0 -110.5 11t-112 44.5t-102.5 88t-71.5 150 t-28.5 221.5zM355 405q0 -75 17.5 -128.5t47.5 -79.5t60.5 -37t65.5 -11q53 0 97.5 24t87 79.5t79 154.5t66.5 241q41 190 41 298q0 76 -17 129t-46.5 79t-60 37t-66.5 11q-53 0 -97.5 -24t-87.5 -79.5t-79.5 -154.5t-66.5 -241q-41 -202 -41 -298zM470 1468q4 79 30.5 143 t80 106.5t126.5 42.5t144 -60l29 -24q40 -35 82 -35q38 0 60.5 25.5t31.5 81.5h138q-6 -120 -68 -205.5t-171 -85.5q-40 0 -71 14t-70 48l-30 22q-44 36 -83 36q-75 0 -91 -109h-138z" />
<glyph unicode="&#xd6;" horiz-adv-x="1181" d="M108 491q0 95 16.5 194.5t48 199.5t84.5 187.5t120 155.5t160 107.5t200 39.5q58 0 111 -10.5t112.5 -44.5t102 -88.5t71 -150.5t28.5 -222q0 -95 -16 -194t-48 -199t-84.5 -187.5t-120 -155.5t-160.5 -107.5t-200 -39.5q-58 0 -110.5 11t-112 44.5t-102.5 88t-71.5 150 t-28.5 221.5zM355 405q0 -75 17.5 -128.5t47.5 -79.5t60.5 -37t65.5 -11q53 0 97.5 24t87 79.5t79 154.5t66.5 241q41 190 41 298q0 76 -17 129t-46.5 79t-60 37t-66.5 11q-53 0 -97.5 -24t-87.5 -79.5t-79.5 -154.5t-66.5 -241q-41 -202 -41 -298zM488 1605q0 59 39 97 t97 38t96.5 -38t38.5 -97q0 -57 -38.5 -95.5t-96.5 -38.5t-97 38.5t-39 95.5zM904 1605q0 59 39 97t97 38t96.5 -38t38.5 -97q0 -57 -38.5 -95.5t-96.5 -38.5t-97 38.5t-39 95.5z" />
<glyph unicode="&#xd7;" d="M80 309l349 290l-230 284l136 114l233 -282l336 282l107 -129l-338 -284l223 -275l-138 -114l-221 279l-350 -294z" />
<glyph unicode="&#xd8;" horiz-adv-x="1181" d="M7 -5l154 208q-53 116 -53 288q0 95 16.5 194t48.5 198.5t84.5 186.5t119.5 154t160 106t199 39q142 0 241 -65l114 155l144 -99l-139 -188q66 -122 66 -313q0 -115 -22.5 -233.5t-72 -235t-121 -206.5t-178.5 -146t-234 -56q-157 0 -262 80l-123 -168zM352 442l516 698 q-50 62 -142 62q-113 0 -194.5 -111.5t-140.5 -387.5q-31 -149 -39 -261zM387 233q50 -84 158 -84q55 0 100.5 24t88.5 79.5t79.5 154.5t66.5 241q41 198 41 298v9z" />
<glyph unicode="&#xd9;" horiz-adv-x="1253" d="M169 341q0 49 11 110l159 737h-124l35 164h487l-34 -164h-114l-169 -784q-8 -48 -8 -69q0 -91 60 -139.5t148 -48.5q85 0 145 50.5t83 160.5l177 830h-116l35 164h437l-35 -164h-121l-174 -827q-40 -185 -157.5 -285t-289.5 -100q-54 0 -109 9.5t-115 35t-105.5 65 t-75.5 105.5t-30 150zM615 1740q0 29 35 29h199l84 -311h-146l-146 226q-26 39 -26 56z" />
<glyph unicode="&#xda;" horiz-adv-x="1253" d="M169 341q0 49 11 110l159 737h-124l35 164h487l-34 -164h-114l-169 -784q-8 -48 -8 -69q0 -91 60 -139.5t148 -48.5q85 0 145 50.5t83 160.5l177 830h-116l35 164h437l-35 -164h-121l-174 -827q-40 -185 -157.5 -285t-289.5 -100q-54 0 -109 9.5t-115 35t-105.5 65 t-75.5 105.5t-30 150zM767 1459l214 310h190q15 0 24 -10t9 -24q0 -30 -35 -59l-248 -218z" />
<glyph unicode="&#xdb;" horiz-adv-x="1253" d="M169 341q0 49 11 110l159 737h-124l35 164h487l-34 -164h-114l-169 -784q-8 -48 -8 -69q0 -91 60 -139.5t148 -48.5q85 0 145 50.5t83 160.5l177 830h-116l35 164h437l-35 -164h-121l-174 -827q-40 -185 -157.5 -285t-289.5 -100q-54 0 -109 9.5t-115 35t-105.5 65 t-75.5 105.5t-30 150zM528 1458l334 311h149l162 -311h-139l-135 154l-208 -154h-163z" />
<glyph unicode="&#xdc;" horiz-adv-x="1253" d="M169 341q0 49 11 110l159 737h-124l35 164h487l-34 -164h-114l-169 -784q-8 -48 -8 -69q0 -91 60 -139.5t148 -48.5q85 0 145 50.5t83 160.5l177 830h-116l35 164h437l-35 -164h-121l-174 -827q-40 -185 -157.5 -285t-289.5 -100q-54 0 -109 9.5t-115 35t-105.5 65 t-75.5 105.5t-30 150zM541 1605q0 59 39 97t97 38t96.5 -38t38.5 -97q0 -57 -38.5 -95.5t-96.5 -38.5t-97 38.5t-39 95.5zM957 1605q0 59 39 97t97 38t96.5 -38t38.5 -97q0 -57 -38.5 -95.5t-96.5 -38.5t-97 38.5t-39 95.5z" />
<glyph unicode="&#xdd;" horiz-adv-x="1185" d="M158 1189l34 163h513l-35 -163h-139l100 -358q21 -100 26 -143q36 66 93 149l254 352h-129l34 163h462l-34 -163h-108l-498 -688l-71 -337h168l-35 -164h-585l35 164h168l74 348l-214 677h-113zM738 1459l214 310h190q15 0 24 -10t9 -24q0 -30 -35 -59l-248 -218z" />
<glyph unicode="&#xde;" horiz-adv-x="1091" d="M-25 0l35 164h126l218 1024h-127l35 164h534l-35 -164h-160l-28 -132h160q185 0 284.5 -81.5t99.5 -240.5q0 -76 -23.5 -146t-74 -133t-143 -101t-215.5 -38h-244l-32 -152h159l-35 -164h-534zM451 476h164q108 0 163 50t76 147q9 41 9 66q0 71 -45.5 115t-145.5 44h-132 z" />
<glyph unicode="&#xdf;" horiz-adv-x="1028" d="M-212 -357l33 146q45 -9 75 -9q109 0 138 138l186 871h-109l33 157h109l41 190q34 154 122.5 234t252.5 80q68 0 125.5 -15.5t107.5 -49.5t78.5 -96t28.5 -147q0 -232 -223 -437q77 -31 116.5 -105t39.5 -178q0 -63 -14.5 -125t-45 -120.5t-74.5 -103t-108 -71 t-139 -26.5q-96 0 -178 40l31 152q53 -13 94 -13q53 0 94 27t63.5 71t34 92.5t11.5 98.5q0 153 -109 153h-10l28 140q69 101 115 221t46 205q0 124 -105 124q-122 0 -157 -171l-261 -1226q-30 -141 -105 -209t-201 -68q-91 0 -164 30z" />
<glyph unicode="&#xe0;" horiz-adv-x="1013" d="M67 324q0 77 14 161t47 171.5t80.5 157t121 113.5t161.5 44q93 0 151.5 -49.5t68.5 -134.5l38 159h216l-150 -704q-6 -27 -6 -48q0 -39 53 -39q10 0 29 0.5t21 0.5l-33 -156q-44 -17 -111 -17q-75 0 -121 40t-52 110q-38 -71 -102 -114t-150 -43q-56 0 -103.5 18.5 t-87 57.5t-62.5 108.5t-23 163.5zM302 314q0 -86 30 -123t89 -37q77 0 126.5 68t85.5 238q23 107 23 169q0 83 -33.5 123.5t-93.5 40.5q-72 0 -122.5 -69.5t-82.5 -235.5q-22 -107 -22 -174zM395 1393q0 19 12.5 30.5t34.5 11.5h167l79 -363h-130l-150 284q-13 24 -13 37z " />
<glyph unicode="&#xe1;" horiz-adv-x="1013" d="M67 324q0 77 14 161t47 171.5t80.5 157t121 113.5t161.5 44q93 0 151.5 -49.5t68.5 -134.5l38 159h216l-150 -704q-6 -27 -6 -48q0 -39 53 -39q10 0 29 0.5t21 0.5l-33 -156q-44 -17 -111 -17q-75 0 -121 40t-52 110q-38 -71 -102 -114t-150 -43q-56 0 -103.5 18.5 t-87 57.5t-62.5 108.5t-23 163.5zM302 314q0 -86 30 -123t89 -37q77 0 126.5 68t85.5 238q23 107 23 169q0 83 -33.5 123.5t-93.5 40.5q-72 0 -122.5 -69.5t-82.5 -235.5q-22 -107 -22 -174zM509 1072l228 363h191q19 0 28.5 -9.5t9.5 -23.5q0 -18 -30 -50l-275 -280h-152z " />
<glyph unicode="&#xe2;" horiz-adv-x="1013" d="M67 324q0 77 14 161t47 171.5t80.5 157t121 113.5t161.5 44q93 0 151.5 -49.5t68.5 -134.5l38 159h216l-150 -704q-6 -27 -6 -48q0 -39 53 -39q10 0 29 0.5t21 0.5l-33 -156q-44 -17 -111 -17q-75 0 -121 40t-52 110q-38 -71 -102 -114t-150 -43q-56 0 -103.5 18.5 t-87 57.5t-62.5 108.5t-23 163.5zM286 1072l356 363h149l121 -363h-139l-102 171l-222 -171h-163zM302 314q0 -86 30 -123t89 -37q77 0 126.5 68t85.5 238q23 107 23 169q0 83 -33.5 123.5t-93.5 40.5q-72 0 -122.5 -69.5t-82.5 -235.5q-22 -107 -22 -174z" />
<glyph unicode="&#xe3;" horiz-adv-x="1013" d="M67 324q0 77 14 161t47 171.5t80.5 157t121 113.5t161.5 44q93 0 151.5 -49.5t68.5 -134.5l38 159h216l-150 -704q-6 -27 -6 -48q0 -39 53 -39q10 0 29 0.5t21 0.5l-33 -156q-44 -17 -111 -17q-75 0 -121 40t-52 110q-38 -71 -102 -114t-150 -43q-56 0 -103.5 18.5 t-87 57.5t-62.5 108.5t-23 163.5zM302 314q0 -86 30 -123t89 -37q77 0 126.5 68t85.5 238q23 107 23 169q0 83 -33.5 123.5t-93.5 40.5q-72 0 -122.5 -69.5t-82.5 -235.5q-22 -107 -22 -174zM304 1108q4 77 29 141t75.5 107t117.5 43q71 0 143 -60l29 -23q41 -36 79 -36 q62 0 75 107h139q-5 -120 -63 -205.5t-159 -85.5q-37 0 -68.5 14t-72.5 47l-29 23q-46 36 -81 36q-61 0 -76 -108h-138z" />
<glyph unicode="&#xe4;" horiz-adv-x="1013" d="M67 324q0 77 14 161t47 171.5t80.5 157t121 113.5t161.5 44q93 0 151.5 -49.5t68.5 -134.5l38 159h216l-150 -704q-6 -27 -6 -48q0 -39 53 -39q10 0 29 0.5t21 0.5l-33 -156q-44 -17 -111 -17q-75 0 -121 40t-52 110q-38 -71 -102 -114t-150 -43q-56 0 -103.5 18.5 t-87 57.5t-62.5 108.5t-23 163.5zM302 314q0 -86 30 -123t89 -37q77 0 126.5 68t85.5 238q23 107 23 169q0 83 -33.5 123.5t-93.5 40.5q-72 0 -122.5 -69.5t-82.5 -235.5q-22 -107 -22 -174zM323 1252q0 58 39 96t97 38t97 -38t39 -96q0 -57 -39 -95.5t-97 -38.5t-97 38.5 t-39 95.5zM702 1252q0 58 39.5 96t97.5 38t96.5 -38t38.5 -96q0 -57 -38.5 -95.5t-96.5 -38.5t-97.5 38.5t-39.5 95.5z" />
<glyph unicode="&#xe5;" horiz-adv-x="1013" d="M67 324q0 77 14 161t47 171.5t80.5 157t121 113.5t161.5 44q93 0 151.5 -49.5t68.5 -134.5l38 159h216l-150 -704q-6 -27 -6 -48q0 -39 53 -39q10 0 29 0.5t21 0.5l-33 -156q-44 -17 -111 -17q-75 0 -121 40t-52 110q-38 -71 -102 -114t-150 -43q-56 0 -103.5 18.5 t-87 57.5t-62.5 108.5t-23 163.5zM302 314q0 -86 30 -123t89 -37q77 0 126.5 68t85.5 238q23 107 23 169q0 83 -33.5 123.5t-93.5 40.5q-72 0 -122.5 -69.5t-82.5 -235.5q-22 -107 -22 -174zM421 1257q0 93 64.5 157t161.5 64q99 0 163.5 -64t64.5 -157t-64.5 -157 t-163.5 -64q-97 0 -161.5 64t-64.5 157zM565 1257q0 -38 24 -61.5t61 -23.5q35 0 59 23.5t24 61.5q0 36 -24 60t-59 24q-36 0 -60.5 -24t-24.5 -60z" />
<glyph unicode="&#xe6;" horiz-adv-x="1339" d="M10 219q0 56 20.5 106.5t61.5 93t112.5 70t165.5 33.5l197 12l13 61q9 40 9 63q0 64 -44.5 96.5t-117.5 32.5q-107 0 -208 -61l-45 132q126 113 309 113q87 0 154.5 -33t100.5 -98q111 131 287 131q58 0 108.5 -14.5t91.5 -44t64 -81t20 -118.5q-10 -295 -495 -320 l-54 -2q0 -3 -0.5 -8.5t-0.5 -8.5q0 -110 52.5 -161.5t143.5 -51.5q101 0 201 49l45 -125q-121 -109 -301 -109q-214 0 -306 150q-108 -150 -302 -150q-124 0 -203 62.5t-79 180.5zM236 248q0 -51 30 -78t82 -27q67 0 112 45.5t61 124.5l18 87l-145 -10q-78 -7 -118 -45 t-40 -97zM778 526l49 4q141 9 205 51.5t64 124.5q0 104 -96 104q-160 0 -222 -284z" />
<glyph unicode="&#xe7;" horiz-adv-x="862" d="M60 362q0 81 16 163t53.5 163t91.5 143.5t137 101t184 38.5q131 0 204.5 -60.5t73.5 -165.5q0 -67 -34 -162h-197q24 90 24 140q0 85 -85 85q-154 0 -213 -295q-17 -88 -17 -136q0 -111 52 -163.5t142 -52.5q97 0 193 49l45 -125q-107 -93 -248 -107l-13 -61 q114 -29 114 -118q0 -73 -65 -129.5t-182 -56.5q-80 0 -168 32l26 121q50 -14 97 -14q45 0 71 17.5t26 46.5q0 26 -21 40.5t-68 19.5l35 108q-56 10 -101.5 33.5t-86 66t-63.5 113.5t-23 165z" />
<glyph unicode="&#xe8;" horiz-adv-x="868" d="M60 366q0 81 15.5 162t52.5 162t91 142.5t138.5 100t187.5 38.5q134 0 215 -65t81 -192q0 -299 -482 -331l-70 -4v-3q0 -111 51.5 -163t143.5 -52q101 0 201 49l45 -125q-124 -109 -304 -109q-53 0 -100 9t-97.5 35.5t-86.5 68.5t-59 113t-23 164zM305 515l60 6 q262 26 262 185q0 52 -26.5 78t-73.5 26q-161 0 -222 -295zM354 1393q0 19 12 30.5t34 11.5h168l79 -363h-131l-150 284q-12 22 -12 37z" />
<glyph unicode="&#xe9;" horiz-adv-x="868" d="M60 366q0 81 15.5 162t52.5 162t91 142.5t138.5 100t187.5 38.5q134 0 215 -65t81 -192q0 -299 -482 -331l-70 -4v-3q0 -111 51.5 -163t143.5 -52q101 0 201 49l45 -125q-124 -109 -304 -109q-53 0 -100 9t-97.5 35.5t-86.5 68.5t-59 113t-23 164zM305 515l60 6 q262 26 262 185q0 52 -26.5 78t-73.5 26q-161 0 -222 -295zM467 1072l229 363h191q37 0 37 -33q0 -20 -29 -50l-276 -280h-152z" />
<glyph unicode="&#xea;" horiz-adv-x="868" d="M60 366q0 81 15.5 162t52.5 162t91 142.5t138.5 100t187.5 38.5q134 0 215 -65t81 -192q0 -299 -482 -331l-70 -4v-3q0 -111 51.5 -163t143.5 -52q101 0 201 49l45 -125q-124 -109 -304 -109q-53 0 -100 9t-97.5 35.5t-86.5 68.5t-59 113t-23 164zM245 1072l355 363h149 l122 -363h-140l-101 171l-222 -171h-163zM305 515l60 6q262 26 262 185q0 52 -26.5 78t-73.5 26q-161 0 -222 -295z" />
<glyph unicode="&#xeb;" horiz-adv-x="868" d="M60 366q0 81 15.5 162t52.5 162t91 142.5t138.5 100t187.5 38.5q134 0 215 -65t81 -192q0 -299 -482 -331l-70 -4v-3q0 -111 51.5 -163t143.5 -52q101 0 201 49l45 -125q-124 -109 -304 -109q-53 0 -100 9t-97.5 35.5t-86.5 68.5t-59 113t-23 164zM282 1252q0 58 39 96 t97 38t96.5 -38t38.5 -96q0 -57 -38.5 -95.5t-96.5 -38.5t-97 38.5t-39 95.5zM305 515l60 6q262 26 262 185q0 52 -26.5 78t-73.5 26q-161 0 -222 -295zM661 1252q0 58 39 96t97 38t97 -38t39 -96q0 -57 -39 -95.5t-97 -38.5t-97 38.5t-39 95.5z" />
<glyph unicode="&#xec;" horiz-adv-x="507" d="M89 151q0 33 12 91l115 547h-112l32 157h342l-150 -707q-8 -43 -8 -45q0 -39 57 -39q9 0 21 0.5t20.5 0.5h9.5l-33 -156q-49 -18 -121 -18q-90 0 -137.5 44.5t-47.5 124.5zM150 1372q0 29 38 29h190l36 -362h-142l-103 274q-19 42 -19 59z" />
<glyph unicode="&#xed;" horiz-adv-x="528" d="M89 151q0 33 12 91l115 547h-112l32 157h342l-150 -707q-8 -43 -8 -45q0 -39 57 -39q9 0 21 0.5t20.5 0.5h9.5l-33 -156q-49 -18 -121 -18q-90 0 -137.5 44.5t-47.5 124.5zM277 1072l184 363l181 -1q19 -1 29.5 -10t10.5 -23q0 -26 -41 -71l-214 -258h-150z" />
<glyph unicode="&#xee;" horiz-adv-x="507" d="M16 1039l356 362h149l121 -362h-139l-102 171l-222 -171h-163zM89 151q0 33 12 91l115 547h-112l32 157h342l-150 -707q-8 -43 -8 -45q0 -39 57 -39q9 0 21 0.5t20.5 0.5h9.5l-33 -156q-49 -18 -121 -18q-90 0 -137.5 44.5t-47.5 124.5z" />
<glyph unicode="&#xef;" horiz-adv-x="528" d="M87 1252q0 58 39 96t97 38t96.5 -38t38.5 -96q0 -57 -38.5 -95.5t-96.5 -38.5t-97 38.5t-39 95.5zM89 151q0 33 12 91l115 547h-112l32 157h342l-150 -707q-8 -43 -8 -45q0 -39 57 -39q9 0 21 0.5t20.5 0.5h9.5l-33 -156q-49 -18 -121 -18q-90 0 -137.5 44.5t-47.5 124.5 zM432 1252q0 58 39 96t97 38t97 -38t39 -96q0 -57 -39 -95.5t-97 -38.5t-97 38.5t-39 95.5z" />
<glyph unicode="&#xf0;" horiz-adv-x="927" d="M52 346q0 98 29 198t81.5 185.5t136.5 139.5t183 54q148 0 209 -125q-12 178 -123 331l-235 -118l-57 129l197 99q-53 54 -125 112l131 99q95 -55 169 -122l242 122l57 -130l-199 -100q148 -194 148 -478q0 -79 -11.5 -161.5t-35 -170t-64 -164.5t-93.5 -138t-130 -96.5 t-167 -35.5q-70 0 -130.5 21.5t-109 65t-76 116t-27.5 167.5zM282 297q0 -158 127 -158q75 0 125 67.5t84 228.5q23 107 23 167q0 163 -130 163q-77 0 -124 -68t-81 -228q-24 -115 -24 -172z" />
<glyph unicode="&#xf1;" horiz-adv-x="1032" d="M48 0l168 789h-114l34 157h299l-24 -143q84 168 261 168q116 0 186.5 -68.5t70.5 -179.5q0 -43 -12 -102l-83 -382q-7 -28 -7 -45q0 -39 54 -39q9 0 21 0.5t20.5 0.5h9.5l-33 -156q-49 -18 -118 -18q-91 0 -138 44t-47 123q0 33 12 91l77 370q7 31 7 61q0 59 -30 88.5 t-82 29.5q-63 0 -109 -44.5t-62 -123.5l-133 -621h-228zM336 1108q4 77 29 141.5t75.5 107.5t117.5 43q69 0 143 -61l29 -23q41 -36 79 -36q62 0 75 107h139q-5 -120 -63 -205.5t-159 -85.5q-37 0 -68.5 14t-72.5 47l-29 23q-46 36 -80 36q-62 0 -77 -108h-138z" />
<glyph unicode="&#xf2;" horiz-adv-x="925" d="M57 354q0 78 15.5 159.5t51.5 164.5t89 147.5t135 105t181 40.5q67 0 124.5 -19t108 -60.5t80 -118t29.5 -180.5q0 -78 -15 -159t-51 -164.5t-89 -148t-135 -105t-182 -40.5q-67 0 -124.5 19t-108 60.5t-80 118t-29.5 180.5zM284 300q0 -83 33 -122t89 -39q74 0 126 73 t87 244q25 122 25 191q0 160 -121 160q-74 0 -126.5 -73t-87.5 -245q-25 -118 -25 -189zM368 1393q0 19 12 30.5t34 11.5h168l79 -363h-131l-150 284q-12 22 -12 37z" />
<glyph unicode="&#xf3;" horiz-adv-x="925" d="M57 354q0 78 15.5 159.5t51.5 164.5t89 147.5t135 105t181 40.5q67 0 124.5 -19t108 -60.5t80 -118t29.5 -180.5q0 -78 -15 -159t-51 -164.5t-89 -148t-135 -105t-182 -40.5q-67 0 -124.5 19t-108 60.5t-80 118t-29.5 180.5zM284 300q0 -83 33 -122t89 -39q74 0 126 73 t87 244q25 122 25 191q0 160 -121 160q-74 0 -126.5 -73t-87.5 -245q-25 -118 -25 -189zM481 1072l229 363h191q37 0 37 -33q0 -20 -29 -50l-276 -280h-152z" />
<glyph unicode="&#xf4;" horiz-adv-x="925" d="M57 354q0 78 15.5 159.5t51.5 164.5t89 147.5t135 105t181 40.5q67 0 124.5 -19t108 -60.5t80 -118t29.5 -180.5q0 -78 -15 -159t-51 -164.5t-89 -148t-135 -105t-182 -40.5q-67 0 -124.5 19t-108 60.5t-80 118t-29.5 180.5zM259 1072l355 363h149l122 -363h-140 l-101 171l-222 -171h-163zM284 300q0 -83 33 -122t89 -39q74 0 126 73t87 244q25 122 25 191q0 160 -121 160q-74 0 -126.5 -73t-87.5 -245q-25 -118 -25 -189z" />
<glyph unicode="&#xf5;" horiz-adv-x="925" d="M57 354q0 78 15.5 159.5t51.5 164.5t89 147.5t135 105t181 40.5q67 0 124.5 -19t108 -60.5t80 -118t29.5 -180.5q0 -78 -15 -159t-51 -164.5t-89 -148t-135 -105t-182 -40.5q-67 0 -124.5 19t-108 60.5t-80 118t-29.5 180.5zM277 1108q7 120 64.5 206t156.5 86 q69 0 143 -61l29 -23q41 -36 79 -36q63 0 76 107h138q-5 -120 -63 -205.5t-159 -85.5q-37 0 -67.5 14t-72.5 47l-30 23q-46 36 -80 36q-61 0 -76 -108h-138zM284 300q0 -83 33 -122t89 -39q74 0 126 73t87 244q25 122 25 191q0 160 -121 160q-74 0 -126.5 -73t-87.5 -245 q-25 -118 -25 -189z" />
<glyph unicode="&#xf6;" horiz-adv-x="925" d="M57 354q0 78 15.5 159.5t51.5 164.5t89 147.5t135 105t181 40.5q67 0 124.5 -19t108 -60.5t80 -118t29.5 -180.5q0 -78 -15 -159t-51 -164.5t-89 -148t-135 -105t-182 -40.5q-67 0 -124.5 19t-108 60.5t-80 118t-29.5 180.5zM284 300q0 -83 33 -122t89 -39q74 0 126 73 t87 244q25 122 25 191q0 160 -121 160q-74 0 -126.5 -73t-87.5 -245q-25 -118 -25 -189zM296 1252q0 58 39 96t97 38t96.5 -38t38.5 -96q0 -57 -38.5 -95.5t-96.5 -38.5t-97 38.5t-39 95.5zM675 1252q0 58 39 96t97 38t97 -38t39 -96q0 -57 -39 -95.5t-97 -38.5t-97 38.5 t-39 95.5z" />
<glyph unicode="&#xf7;" d="M98 509l35 172h865l-35 -172h-865zM335 241q0 59 40.5 98.5t100.5 39.5q61 0 100.5 -39.5t39.5 -98.5t-39.5 -98.5t-100.5 -39.5q-60 0 -100.5 39.5t-40.5 98.5zM484 949q0 59 40.5 98.5t100.5 39.5q61 0 100.5 -39.5t39.5 -98.5t-39.5 -98.5t-100.5 -39.5 q-60 0 -100.5 39.5t-40.5 98.5z" />
<glyph unicode="&#xf8;" horiz-adv-x="948" d="M-31 -11l138 162q-39 86 -39 203q0 78 15.5 159.5t51.5 164.5t89 147.5t135 105t181 40.5q122 0 209 -61l122 142l110 -96l-137 -163q38 -82 38 -200q0 -78 -15 -159t-51 -164.5t-89 -148t-135 -105t-182 -40.5q-124 0 -209 60l-122 -143zM277 331l365 438 q-36 45 -104 45q-172 0 -236 -318q-21 -101 -25 -165zM310 177q36 -45 104 -45q171 0 236 317q21 101 25 165z" />
<glyph unicode="&#xf9;" horiz-adv-x="1028" d="M100 225q0 35 12 102l100 462h-109l33 157h338l-130 -611q-9 -41 -9 -64q0 -56 30.5 -84.5t81.5 -28.5q64 0 109.5 43.5t62.5 124.5l134 620h228l-149 -707q-9 -36 -9 -45q0 -39 54 -39q12 0 32 1h20l-33 -156q-45 -17 -111 -17q-77 0 -123 39.5t-52 108.5 q-85 -155 -255 -155q-115 0 -185 69t-70 180zM419 1393q0 19 12.5 30.5t34.5 11.5h167l79 -363h-130l-150 284q-13 24 -13 37z" />
<glyph unicode="&#xfa;" horiz-adv-x="1028" d="M100 225q0 35 12 102l100 462h-109l33 157h338l-130 -611q-9 -41 -9 -64q0 -56 30.5 -84.5t81.5 -28.5q64 0 109.5 43.5t62.5 124.5l134 620h228l-149 -707q-9 -36 -9 -45q0 -39 54 -39q12 0 32 1h20l-33 -156q-45 -17 -111 -17q-77 0 -123 39.5t-52 108.5 q-85 -155 -255 -155q-115 0 -185 69t-70 180zM533 1072l229 363h190q19 0 28.5 -9.5t9.5 -23.5q0 -18 -30 -50l-275 -280h-152z" />
<glyph unicode="&#xfb;" horiz-adv-x="1028" d="M100 225q0 35 12 102l100 462h-109l33 157h338l-130 -611q-9 -41 -9 -64q0 -56 30.5 -84.5t81.5 -28.5q64 0 109.5 43.5t62.5 124.5l134 620h228l-149 -707q-9 -36 -9 -45q0 -39 54 -39q12 0 32 1h20l-33 -156q-45 -17 -111 -17q-77 0 -123 39.5t-52 108.5 q-85 -155 -255 -155q-115 0 -185 69t-70 180zM310 1072l356 363h149l121 -363h-139l-102 171l-222 -171h-163z" />
<glyph unicode="&#xfc;" horiz-adv-x="1028" d="M100 225q0 35 12 102l100 462h-109l33 157h338l-130 -611q-9 -41 -9 -64q0 -56 30.5 -84.5t81.5 -28.5q64 0 109.5 43.5t62.5 124.5l134 620h228l-149 -707q-9 -36 -9 -45q0 -39 54 -39q12 0 32 1h20l-33 -156q-45 -17 -111 -17q-77 0 -123 39.5t-52 108.5 q-85 -155 -255 -155q-115 0 -185 69t-70 180zM347 1252q0 58 39 96t97 38t97 -38t39 -96q0 -57 -39 -95.5t-97 -38.5t-97 38.5t-39 95.5zM726 1252q0 58 39.5 96t97.5 38t96.5 -38t38.5 -96q0 -57 -38.5 -95.5t-96.5 -38.5t-97.5 38.5t-39.5 95.5z" />
<glyph unicode="&#xfd;" horiz-adv-x="1024" d="M-153 -357l32 148q58 -12 103 -12q141 0 292 130l-78 880h-107l34 157h281l58 -860q125 158 205 336t80 287q0 45 -16.5 63.5t-61.5 18.5q-4 0 -50 -2l33 157q54 17 114 17q98 0 154 -51t56 -147q0 -149 -123.5 -388.5t-332.5 -460.5q-284 -302 -518 -302q-83 0 -155 29z M455 1072l228 363h191q19 0 28.5 -9.5t9.5 -23.5q0 -18 -30 -50l-275 -280h-152z" />
<glyph unicode="&#xfe;" horiz-adv-x="1013" d="M-142 -362l33 154h116l315 1476h-113l33 157h340l-125 -579q79 125 222 125q53 0 99 -18.5t85.5 -57.5t62.5 -109t23 -165q0 -63 -10 -132t-30.5 -142.5t-55.5 -139t-79.5 -117.5t-108.5 -83t-138 -31q-85 0 -142 39t-77 109l-69 -332h123l-33 -154h-471zM360 318 q0 -82 34 -123t94 -41q72 0 122 69t82 235q21 110 21 176q0 86 -29.5 122.5t-88.5 36.5q-77 0 -126 -68.5t-85 -238.5q-24 -112 -24 -168z" />
<glyph unicode="&#xff;" horiz-adv-x="1024" d="M-153 -357l32 148q58 -12 103 -12q141 0 292 130l-78 880h-107l34 157h281l58 -860q125 158 205 336t80 287q0 45 -16.5 63.5t-61.5 18.5q-4 0 -50 -2l33 157q54 17 114 17q98 0 154 -51t56 -147q0 -149 -123.5 -388.5t-332.5 -460.5q-284 -302 -518 -302q-83 0 -155 29z M269 1252q0 58 39 96t97 38t97 -38t39 -96q0 -57 -39 -95.5t-97 -38.5t-97 38.5t-39 95.5zM648 1252q0 58 39 96t97 38t97 -38t39 -96q0 -57 -39 -95.5t-97 -38.5t-97 38.5t-39 95.5z" />
<glyph unicode="&#x152;" horiz-adv-x="1613" d="M101 472q0 110 30 260q139 643 634 643q98 0 184 -23h770l-75 -355h-216l39 191h-319l-87 -411h292l-34 -164h-293l-97 -449h337l40 202h216l-77 -366h-749q-69 -24 -158 -24q-39 0 -77 5.5t-82.5 20t-83 38t-75 62.5t-62.5 89t-41.5 122.5t-15.5 158.5zM346 417 q0 -70 15.5 -121t37.5 -78.5t55 -44t60.5 -20.5t61.5 -4q48 0 104 13l217 1025q-66 15 -138 15q-94 0 -159 -41.5t-119.5 -151.5t-95.5 -302q-39 -181 -39 -290z" />
<glyph unicode="&#x153;" horiz-adv-x="1425" d="M57 354q0 78 15.5 159.5t51.5 164.5t89 147.5t135 105t181 40.5q184 0 262 -147q119 147 311 147q134 0 214.5 -65t80.5 -192q0 -299 -482 -331l-70 -4v-3q0 -111 52 -163t144 -52q102 0 200 49l45 -125q-123 -109 -304 -109q-201 0 -283 152q-117 -152 -300 -152 q-67 0 -124.5 19t-108 60.5t-80 118t-29.5 180.5zM284 300q0 -83 33 -122t89 -39q74 0 126 73t87 244q25 122 25 191q0 160 -121 160q-74 0 -126.5 -73t-87.5 -245q-25 -118 -25 -189zM862 515l60 6q261 26 261 185q0 52 -26 78t-73 26q-161 0 -222 -295z" />
<glyph unicode="&#x178;" horiz-adv-x="1185" d="M158 1189l34 163h513l-35 -163h-139l100 -358q21 -100 26 -143q36 66 93 149l254 352h-129l34 163h462l-34 -163h-108l-498 -688l-71 -337h168l-35 -164h-585l35 164h168l74 348l-214 677h-113zM512 1605q0 59 39 97t97 38t96.5 -38t38.5 -97q0 -57 -38.5 -95.5 t-96.5 -38.5t-97 38.5t-39 95.5zM928 1605q0 59 39 97t97 38t97 -38t39 -97q0 -57 -39 -95.5t-97 -38.5t-97 38.5t-39 95.5z" />
<glyph unicode="&#x2c6;" horiz-adv-x="737" d="M185 1072l355 363h149l122 -363h-140l-101 171l-222 -171h-163z" />
<glyph unicode="&#x2dc;" horiz-adv-x="751" d="M200 1108q7 120 64.5 206t156.5 86q69 0 143 -61l29 -23q41 -36 79 -36q62 0 75 107h139q-5 -120 -63 -205.5t-159 -85.5q-37 0 -68.5 14t-72.5 47l-29 23q-46 36 -80 36q-62 0 -77 -108h-137z" />
<glyph unicode="&#x2000;" horiz-adv-x="925" />
<glyph unicode="&#x2001;" horiz-adv-x="1850" />
<glyph unicode="&#x2002;" horiz-adv-x="925" />
<glyph unicode="&#x2003;" horiz-adv-x="1850" />
<glyph unicode="&#x2004;" horiz-adv-x="616" />
<glyph unicode="&#x2005;" horiz-adv-x="462" />
<glyph unicode="&#x2006;" horiz-adv-x="308" />
<glyph unicode="&#x2007;" horiz-adv-x="308" />
<glyph unicode="&#x2008;" horiz-adv-x="231" />
<glyph unicode="&#x2009;" horiz-adv-x="370" />
<glyph unicode="&#x200a;" horiz-adv-x="102" />
<glyph unicode="&#x2010;" horiz-adv-x="512" d="M48 420l36 165h398l-36 -165h-398z" />
<glyph unicode="&#x2011;" horiz-adv-x="512" d="M48 420l36 165h398l-36 -165h-398z" />
<glyph unicode="&#x2012;" horiz-adv-x="512" d="M48 420l36 165h398l-36 -165h-398z" />
<glyph unicode="&#x2013;" horiz-adv-x="931" d="M51 423l33 158h814l-33 -158h-814z" />
<glyph unicode="&#x2014;" horiz-adv-x="1863" d="M50 423l33 158h1746l-33 -158h-1746z" />
<glyph unicode="&#x2018;" horiz-adv-x="546" d="M217 1006q0 87 45 166t141 143t230 92l29 -109q-208 -70 -267 -197q55 -4 87 -41t32 -89q0 -62 -41.5 -103.5t-104.5 -41.5t-107 46t-44 134z" />
<glyph unicode="&#x2019;" horiz-adv-x="546" d="M161 933q207 69 266 196q-54 4 -86 41t-32 91q0 62 40.5 103t103.5 41q64 0 108.5 -46t44.5 -134q0 -87 -45.5 -166.5t-142 -143t-229.5 -92.5z" />
<glyph unicode="&#x201a;" horiz-adv-x="546" d="M-83 -208q208 68 267 195q-54 4 -86 41t-32 91q0 62 40.5 103t103.5 41q64 0 108 -46t44 -134q0 -135 -108.5 -247t-307.5 -155z" />
<glyph unicode="&#x201c;" horiz-adv-x="964" d="M217 1006q0 87 45 166t141 143t230 92l29 -109q-208 -70 -267 -197q55 -4 87 -41t32 -89q0 -62 -41.5 -103.5t-104.5 -41.5t-107 46t-44 134zM633 1006q0 134 109 246.5t308 154.5l28 -109q-208 -70 -267 -197q55 -4 87 -41t32 -89q0 -62 -41 -103.5t-104 -41.5 t-107.5 46t-44.5 134z" />
<glyph unicode="&#x201d;" horiz-adv-x="962" d="M160 933q207 69 266 196q-54 4 -86 41t-32 91q0 62 40.5 103t103.5 41q64 0 108.5 -46t44.5 -134q0 -87 -45.5 -166.5t-142 -143t-229.5 -92.5zM576 933q208 70 267 196q-54 4 -86.5 41t-32.5 91q0 62 40.5 103t103.5 41q64 0 108.5 -46t44.5 -134q0 -65 -26.5 -127 t-77.5 -116t-131 -95.5t-181 -63.5z" />
<glyph unicode="&#x201e;" horiz-adv-x="962" d="M-83 -208q208 68 267 195q-54 4 -86 41t-32 91q0 62 40.5 103t103.5 41q64 0 108 -46t44 -134q0 -135 -108.5 -247t-307.5 -155zM334 -208q206 67 266 195q-54 4 -86 41t-32 91q0 62 41 103t104 41q64 0 108 -46t44 -134q0 -135 -109 -247t-308 -155z" />
<glyph unicode="&#x2022;" horiz-adv-x="837" d="M94 502q0 139 97 236t236 97t236 -97t97 -236t-97 -236t-236 -97t-236 97t-97 236z" />
<glyph unicode="&#x2026;" horiz-adv-x="1335" d="M23 124q0 64 43 106t108 42q64 0 106.5 -42t42.5 -106q0 -63 -42.5 -105.5t-106.5 -42.5q-65 0 -108 42.5t-43 105.5zM446 124q0 64 43 106t108 42q64 0 106.5 -42t42.5 -106q0 -63 -42.5 -105.5t-106.5 -42.5q-65 0 -108 42.5t-43 105.5zM871 124q0 64 43 106t108 42 q64 0 106 -42t42 -106q0 -63 -42 -105.5t-106 -42.5q-65 0 -108 42.5t-43 105.5z" />
<glyph unicode="&#x202f;" horiz-adv-x="370" />
<glyph unicode="&#x2039;" horiz-adv-x="550" d="M71 502l335 382l122 -86l-224 -312l92 -311l-154 -58z" />
<glyph unicode="&#x203a;" horiz-adv-x="552" d="M39 203l223 314l-91 311l154 56l170 -383l-334 -384z" />
<glyph unicode="&#x205f;" horiz-adv-x="462" />
<glyph unicode="&#x20ac;" d="M18 401l32 149h112q6 69 21 135h-105l32 148h117q35 91 84.5 166t116.5 135.5t155.5 94.5t190.5 34q87 0 180 -25.5t157 -82.5l-62 -293h-188l48 220q-57 12 -109 12q-230 0 -336 -261h293l-32 -148h-307l-9 -42q-9 -39 -16 -93h305l-32 -149h-279q9 -127 75.5 -184.5 t170.5 -57.5q66 0 123 20.5t124 61.5l44 -123q-134 -142 -335 -142q-44 0 -87 7t-91 24t-89 49t-76 77t-57.5 114t-28.5 154h-142z" />
<glyph unicode="&#x2122;" horiz-adv-x="1318" d="M173 1178l38 174h486l-37 -174h-108l18 80h-70l-81 -380h73l-19 -93h-281l19 93h74l83 380h-69l-17 -80h-109zM611 785l19 93h55l81 380h-54l19 94h261l8 -328q1 -40 0 -104q13 33 51 123l138 309h83h185l-21 -94h-53l-80 -380h52l-18 -93h-229l19 93h45l81 379 q-4 -13 -10 -27t-14.5 -32.5t-14.5 -32.5l-175 -380h-142l-17 391q-1 25 -3 82h-1l-81 -380h48l-19 -93h-213z" />
<glyph unicode="&#x25fc;" horiz-adv-x="962" d="M0 0v963h963v-963h-963z" />
</font>
</defs>
</svg>
