<?xml version="1.0" encoding="UTF-8"?>
<svg xmlns="http://www.w3.org/2000/svg" xmlns:xlink="http://www.w3.org/1999/xlink" version="1.2" >
<font id="Bodoni URW Wide">
<font-face  font-family="Bodoni URW Wide" units-per-em="1000" ascent="667" descent="-333" font-style="normal" font-weight="400" font-stretch="normal" cap-height="667" x-height="393" underline-position="-89" underline-thickness="53" />
<missing-glyph  horiz-adv-x="250" d="" />
<glyph glyph-name="NULL" d="" />
<glyph glyph-name="CR" unicode="&#xd;" horiz-adv-x="250" d="" />
<glyph glyph-name="space" unicode="&#x20;" horiz-adv-x="250" d="" />
<glyph glyph-name="exclam" unicode="&#x21;" horiz-adv-x="278" d="M151 197 C154 320 161 378 185 501 C200 575 201 579 201 609 C201 650 177 677 141 677 C106 677 80 648 80 610 C80 587 87 543 99 493 C119 409 130 310 131 197 L151 197 Z M139 110 C105 110 77 83 77 51 C77 19 104 -7 138 -7 C173 -7 201 19 201 51 C201 83 173 110 141 110 L139 110 Z " />
<glyph glyph-name="quotedbl" unicode="&#x22;" horiz-adv-x="296" d="M91 412 L117 576 C120 592 121 608 121 620 C121 653 103 677 79 677 C55 677 38 652 38 619 C38 607 39 591 42 576 L67 412 L91 412 Z M228 412 L253 576 C256 592 257 607 257 620 C257 653 239 677 215 677 C191 677 174 652 174 619 C174 608 176 592 178 576 L204 412 L228 412 Z " />
<glyph glyph-name="numbersign" unicode="&#x23;" horiz-adv-x="525" d="M222 442 L252 647 L176 647 L146 442 L52 442 L52 415 L142 415 L116 240 L22 240 L22 213 L112 213 L81 0 L157 0 L188 213 L304 213 L273 0 L349 0 L380 213 L474 213 L474 240 L384 240 L410 415 L504 415 L503 442 L414 442 L444 647 L368 647 L338 442 L222 442 Z M218 415 L334 415 L308 240 L192 240 L218 415 Z " />
<glyph glyph-name="dollar" unicode="&#x24;" horiz-adv-x="525" d="M279 638 C344 634 367 616 363 570 C363 515 384 484 423 484 C452 484 472 505 472 537 C472 606 392 657 279 661 L279 744 L245 744 L245 661 C195 653 163 642 131 619 C86 588 57 532 57 480 C57 441 73 400 99 372 C124 346 145 332 221 296 C230 292 238 288 245 284 L245 12 C216 12 198 18 179 33 C156 49 148 67 148 100 L148 112 C149 129 150 141 150 145 C150 179 126 207 95 207 C63 207 38 177 38 140 C38 64 126 -1 245 -11 L245 -101 L279 -101 L279 -11 C328 -5 358 5 390 27 C442 64 476 128 476 191 C476 241 455 282 413 314 C387 333 353 352 279 386 L279 638 Z M241 403 C160 448 135 478 135 529 C135 586 177 629 241 636 L241 403 Z M279 267 C379 219 407 191 407 137 C407 71 358 24 279 13 L279 267 Z " />
<glyph glyph-name="percent" unicode="&#x25;" horiz-adv-x="726" d="M175 653 C92 653 27 579 27 487 C27 394 92 320 174 320 C255 320 321 394 321 485 C321 579 256 653 175 653 L175 653 Z M109 557 C109 577 114 594 121 609 C130 625 150 635 174 635 C209 635 229 617 237 579 C239 569 242 496 242 464 C242 370 224 338 174 338 C123 338 106 370 106 469 L109 557 Z M511 647 L183 0 L214 0 L542 647 L511 647 Z M552 327 C470 327 405 253 405 161 C405 68 470 -6 552 -6 C632 -6 698 68 698 159 C698 253 634 327 552 327 L552 327 Z M487 231 C487 251 492 269 499 283 C508 299 528 309 552 309 C586 309 606 291 614 253 C616 243 619 170 619 138 C619 44 602 12 551 12 C500 12 484 44 484 143 L487 231 Z " />
<glyph glyph-name="ampersand" unicode="&#x26;" horiz-adv-x="628" d="M299 343 C381 368 429 413 429 463 C429 515 371 553 292 553 C202 553 140 513 140 454 C140 427 154 398 196 340 C199 336 203 331 208 323 C87 266 37 213 37 138 C37 51 112 -13 214 -13 C276 -13 323 6 389 56 L427 0 L597 0 L597 20 L520 20 L449 123 C489 168 514 240 520 323 L604 323 L604 343 L409 343 L409 323 L497 323 C495 250 471 178 437 140 L299 343 Z M289 357 C278 372 277 374 255 403 C228 439 215 467 215 488 C215 518 241 533 291 533 C340 533 359 514 359 467 C359 411 340 381 289 357 L289 357 Z M378 73 C343 42 306 24 274 24 C237 24 204 41 178 73 C143 117 119 173 119 211 C119 244 151 274 220 305 L378 73 Z " />
<glyph glyph-name="quotesingle" unicode="&#x27;" horiz-adv-x="160" d="M91 412 L117 576 C120 592 121 608 121 620 C121 653 103 677 79 677 C55 677 38 652 38 619 C38 607 39 591 42 576 L67 412 L91 412 Z " />
<glyph glyph-name="parenleft" unicode="&#x28;" horiz-adv-x="282" d="M249 -173 C218 -122 211 -110 201 -90 C155 1 127 126 127 242 C127 395 165 522 251 658 L225 674 C91 504 37 378 37 238 C37 107 99 -34 223 -186 L249 -173 Z " />
<glyph glyph-name="parenright" unicode="&#x29;" horiz-adv-x="282" d="M60 -186 C185 -33 246 107 246 242 C246 379 193 501 58 674 L32 658 C118 523 156 395 156 242 C156 126 128 1 82 -90 C72 -110 65 -122 34 -173 L60 -186 Z " />
<glyph glyph-name="asterisk" unicode="&#x2a;" horiz-adv-x="525" d="M283 475 L286 485 L340 489 C432 496 455 505 455 535 C455 556 438 572 417 572 C403 572 386 565 357 546 C347 540 338 534 330 530 L281 500 L272 506 L284 556 C294 595 300 627 300 641 C300 662 284 677 262 677 C240 677 223 661 223 640 C223 628 226 610 232 590 C235 581 238 571 241 560 L255 506 L246 500 L200 527 C147 558 122 569 106 569 C86 569 70 552 70 532 C70 505 95 492 150 490 L182 489 L240 485 L244 475 L203 441 C148 397 131 377 131 358 C131 340 149 323 170 323 C192 323 207 340 224 385 C227 393 231 402 236 413 L258 465 L269 465 L289 418 C322 343 335 325 359 325 C380 325 398 342 398 361 C398 378 385 395 352 420 C347 424 338 431 327 439 L283 475 Z " />
<glyph glyph-name="plus" unicode="&#x2b;" horiz-adv-x="525" d="M244 306 L244 130 L279 130 L279 306 L476 306 L476 341 L279 341 L279 517 L244 517 L244 341 L49 341 L49 306 L244 306 Z " />
<glyph glyph-name="comma" unicode="&#x2c;" horiz-adv-x="250" d="M102 -151 C172 -99 206 -43 206 18 C206 73 170 113 118 113 C76 113 45 86 45 50 C45 20 67 -2 98 -2 C128 -2 150 18 150 46 C150 48 150 52 149 57 C168 45 178 29 178 8 C178 -25 158 -67 126 -98 C117 -107 107 -115 85 -131 L102 -151 Z " />
<glyph glyph-name="hyphen" unicode="&#x2d;" horiz-adv-x="203" d="M0 234 L0 168 L203 168 L203 234 L0 234 Z " />
<glyph glyph-name="period" unicode="&#x2e;" horiz-adv-x="250" d="M125 110 C91 110 63 83 63 51 C63 19 90 -7 124 -7 C159 -7 187 19 187 51 C187 83 159 110 127 110 L125 110 Z " />
<glyph glyph-name="slash" unicode="&#x2f;" horiz-adv-x="425" d="M-44 -180 L16 -180 L390 667 L330 667 L-44 -180 Z " />
<glyph glyph-name="zero" unicode="0" horiz-adv-x="525" d="M263 657 C198 657 136 614 91 536 C58 479 40 404 40 324 C40 138 139 -10 263 -10 C386 -10 486 139 486 320 C486 406 470 475 435 536 C391 614 329 657 263 657 L263 657 Z M263 637 C297 637 333 618 347 592 C371 548 379 483 379 319 C379 167 372 103 349 58 C335 30 298 10 263 10 C227 10 194 29 177 58 C156 93 146 171 146 287 C146 471 153 544 177 589 C191 617 227 637 263 637 L263 637 Z " />
<glyph glyph-name="one" unicode="1" horiz-adv-x="525" d="M237 20 L127 20 L127 0 L435 0 L435 20 L330 20 L330 654 L127 643 L127 622 L208 625 L224 625 C234 625 237 619 237 600 L237 20 Z " />
<glyph glyph-name="two" unicode="2" horiz-adv-x="525" d="M454 177 L434 177 C420 82 419 80 341 80 L110 80 C275 237 358 317 359 318 C427 391 454 441 454 495 C454 588 370 657 258 657 C149 657 68 594 68 509 C68 455 99 415 142 415 C172 415 196 436 196 461 C196 486 173 506 146 506 C138 506 128 504 117 501 C113 500 108 499 105 499 C97 499 90 509 90 522 C90 578 152 629 220 629 C301 629 355 562 355 460 C355 368 319 313 164 167 C145 149 96 102 41 48 L41 0 L448 0 L454 177 Z " />
<glyph glyph-name="three" unicode="3" horiz-adv-x="525" d="M132 338 C204 338 226 336 252 329 C324 309 355 263 355 174 C355 121 342 74 320 51 C296 25 258 10 218 10 C168 10 112 38 112 63 C112 67 114 70 121 74 C141 86 152 103 152 122 C152 147 132 166 105 166 C75 166 51 141 51 111 C51 43 130 -10 230 -10 C361 -10 462 74 462 181 C462 231 438 278 398 304 C355 333 318 345 246 351 C356 371 425 434 425 514 C425 595 349 657 249 657 C159 657 89 610 89 550 C89 521 111 497 138 497 C162 497 182 517 182 541 C182 558 171 575 154 585 C148 589 146 591 146 595 C146 616 189 637 232 637 C297 637 326 600 326 519 C326 449 309 407 271 384 C243 367 221 363 132 360 L132 338 Z " />
<glyph glyph-name="four" unicode="4" horiz-adv-x="525" d="M272 173 L272 20 L167 20 L167 0 L461 0 L461 20 L365 20 L365 173 L466 173 L466 98 L489 98 L489 274 L466 274 L466 200 L365 200 L365 653 L314 653 L25 212 L25 173 L272 173 Z M272 200 L47 200 L272 543 L272 200 Z " />
<glyph glyph-name="five" unicode="5" horiz-adv-x="525" d="M145 567 L312 567 C381 568 392 571 402 587 C416 610 422 634 425 674 L408 674 C396 648 394 647 368 647 L200 647 C128 648 122 643 119 594 L103 330 C134 354 174 366 218 366 C254 366 288 353 315 330 C346 303 362 258 362 197 C362 79 313 10 228 10 C178 10 109 39 109 60 C109 64 111 67 118 70 C139 81 155 105 155 125 C155 149 135 169 110 169 C79 169 56 143 56 109 C56 43 135 -10 232 -10 C363 -10 468 80 468 192 C468 302 367 386 235 386 C199 386 172 381 133 368 L145 567 Z " />
<glyph glyph-name="six" unicode="6" horiz-adv-x="525" d="M434 686 C341 668 269 639 209 594 C103 518 42 393 42 257 C42 196 54 142 78 101 C117 32 189 -10 268 -10 C390 -10 489 92 489 218 C489 337 401 429 286 429 C238 429 201 415 168 384 C188 545 272 633 434 663 L434 686 Z M274 409 C354 409 384 353 384 205 C384 62 354 10 271 10 C187 10 150 73 150 218 C150 282 158 327 173 354 C194 389 230 409 274 409 L274 409 Z " />
<glyph glyph-name="seven" unicode="7" horiz-adv-x="525" d="M41 469 L63 464 C97 561 104 568 171 567 L428 567 C370 450 325 360 293 296 C229 174 200 96 200 48 C200 11 224 -14 259 -14 C292 -14 318 12 318 45 C318 57 315 75 310 95 C302 126 298 147 298 157 C298 211 330 302 387 409 C410 452 429 492 444 529 C460 569 478 607 484 612 C492 623 497 633 497 640 C497 645 492 647 480 647 L93 647 L41 469 Z " />
<glyph glyph-name="eight" unicode="8" horiz-adv-x="525" d="M308 339 C408 361 464 416 464 492 C464 586 377 657 262 657 C147 657 60 586 60 492 C60 416 116 362 217 339 C102 315 38 253 38 167 C38 67 136 -10 262 -10 C389 -10 487 67 487 167 C487 253 423 315 308 339 L308 339 Z M265 637 C329 637 364 586 364 494 C364 407 327 356 265 356 C201 356 165 407 165 496 C165 586 201 637 265 637 L265 637 Z M262 328 C338 328 378 273 378 167 C378 66 337 10 262 10 C187 10 146 66 146 169 C146 272 187 328 262 328 L262 328 Z " />
<glyph glyph-name="nine" unicode="9" horiz-adv-x="525" d="M82 -43 C207 -21 284 16 357 90 C437 171 484 283 484 395 C484 547 393 657 266 657 C143 657 38 550 38 424 C38 308 132 212 245 212 C290 212 323 227 357 264 C323 84 247 3 87 -21 L82 -43 Z M263 637 C344 637 377 579 377 434 C377 368 368 323 350 289 C330 253 292 232 249 232 C212 232 182 249 165 278 C150 306 144 346 144 430 C144 580 177 637 263 637 L263 637 Z " />
<glyph glyph-name="colon" unicode="&#x3a;" horiz-adv-x="251" d="M125 396 C91 396 63 369 63 337 C63 305 90 279 124 279 C159 279 187 305 187 337 C187 369 159 396 127 396 L125 396 Z M126 110 C92 110 64 83 64 51 C64 19 91 -7 125 -7 C160 -7 188 19 188 51 C188 83 160 110 128 110 L126 110 Z " />
<glyph glyph-name="semicolon" unicode="&#x3b;" horiz-adv-x="250" d="M119 400 C85 400 57 373 57 341 C57 309 84 283 118 283 C153 283 181 309 181 341 C181 373 153 400 120 400 L119 400 Z M102 -151 C172 -99 206 -43 206 18 C206 73 170 113 118 113 C77 113 45 86 45 50 C45 20 67 -2 98 -2 C128 -2 150 18 150 46 C150 48 150 52 149 57 C168 45 178 29 178 8 C178 -25 158 -67 126 -98 C117 -107 107 -115 85 -131 L102 -151 Z " />
<glyph glyph-name="less" unicode="&#x3c;" horiz-adv-x="525" d="M479 605 L47 338 L47 332 L479 60 L479 134 L126 357 L479 577 L479 605 Z " />
<glyph glyph-name="equal" unicode="&#x3d;" horiz-adv-x="525" d="M49 393 L49 358 L476 358 L476 393 L49 393 Z M49 288 L49 253 L476 253 L476 288 L49 288 Z " />
<glyph glyph-name="greater" unicode="&#x3e;" horiz-adv-x="525" d="M47 60 L479 327 L479 332 L47 605 L47 531 L399 308 L47 88 L47 60 Z " />
<glyph glyph-name="question" unicode="&#x3f;" horiz-adv-x="391" d="M152 200 C151 210 150 217 150 222 C150 265 175 300 238 341 C279 369 292 380 310 400 C340 434 355 473 355 517 C355 609 285 677 190 677 C103 677 33 619 33 547 C33 514 55 489 83 489 C106 489 125 507 125 531 C125 552 115 566 92 579 C80 585 75 591 75 597 C75 626 135 657 193 657 C258 657 308 620 308 571 C308 538 290 510 239 468 C155 398 130 348 130 251 C130 232 131 217 135 192 L152 200 Z M150 110 C116 110 88 83 88 51 C88 19 115 -7 149 -7 C184 -7 212 19 212 51 C212 83 184 110 152 110 L150 110 Z " />
<glyph glyph-name="at" unicode="&#x40;" horiz-adv-x="718" d="M590 96 C527 43 453 16 374 16 C195 16 53 153 53 327 C53 498 196 635 373 635 C535 635 666 523 666 385 C666 328 646 276 606 234 C572 196 525 169 494 169 C480 169 469 180 470 194 C471 215 476 244 485 280 L539 492 L462 492 L450 447 C437 481 409 501 373 501 C273 501 177 391 177 278 C177 205 228 149 294 149 C336 149 368 169 401 214 C404 168 430 143 476 143 C528 143 587 172 632 220 C676 267 697 321 697 384 C697 451 673 513 628 560 C566 625 471 664 375 664 C178 664 21 513 21 325 C21 136 177 -13 375 -13 C477 -13 561 22 634 96 L590 96 Z M383 483 C417 483 443 448 438 407 C432 352 407 268 382 220 C365 187 334 166 303 166 C270 166 248 192 248 230 C248 283 271 364 303 423 C324 461 353 483 383 483 L383 483 Z " />
<glyph glyph-name="A" unicode="A" horiz-adv-x="616" d="M361 215 L430 20 L339 20 L339 0 L623 0 L623 20 L549 20 L323 667 L292 667 L55 20 L4 20 L4 0 L174 0 L174 20 L83 20 L151 215 L361 215 Z M355 235 L158 235 L257 512 L355 235 Z " />
<glyph glyph-name="B" unicode="B" horiz-adv-x="642" d="M122 20 L33 20 L33 0 L281 0 C420 0 478 12 526 49 C571 85 593 126 593 177 C593 276 516 338 379 349 C500 372 564 426 564 506 C564 556 535 602 487 628 C429 660 386 667 261 667 L33 667 L33 647 L122 647 L122 20 Z M229 647 L258 647 C340 647 368 643 400 625 C435 606 455 561 455 499 C455 398 407 357 288 357 C274 357 265 357 229 358 L229 647 Z M229 20 L229 337 C258 339 275 339 292 339 C426 339 473 297 473 177 C473 124 462 88 440 62 C413 30 378 20 292 20 L229 20 Z " />
<glyph glyph-name="C" unicode="C" horiz-adv-x="614" d="M568 189 L552 189 C508 70 440 13 344 13 C279 13 219 43 197 85 C177 125 170 182 170 304 C170 480 184 563 220 603 C250 635 300 654 353 654 C453 654 524 596 552 491 L568 491 L568 667 L552 667 L517 620 C465 658 409 677 351 677 C283 677 212 648 156 596 C84 531 44 436 44 332 C44 144 179 -10 344 -10 C402 -10 458 9 517 48 L552 0 L568 0 L568 189 Z " />
<glyph glyph-name="D" unicode="D" horiz-adv-x="709" d="M121 20 L33 20 L33 0 L278 0 C416 0 468 12 529 58 C617 124 665 223 665 337 C665 440 626 528 551 594 C485 652 427 667 268 667 L33 667 L33 647 L121 647 L121 20 Z M228 20 L228 647 L270 647 C323 647 349 646 366 644 C414 639 456 623 481 600 C524 561 539 498 539 357 C539 148 521 84 453 48 C406 24 382 20 277 20 L228 20 Z " />
<glyph glyph-name="E" unicode="E" horiz-adv-x="613" d="M121 20 L33 20 L33 0 L554 0 L574 208 L560 208 C534 121 523 95 494 60 C458 23 445 19 365 20 L228 20 L228 328 L265 328 C331 328 360 314 374 276 C380 259 381 250 385 196 L400 196 L400 471 L385 471 C382 361 363 346 228 347 L228 647 L311 647 C453 652 497 620 531 484 L545 484 L537 667 L33 667 L33 647 L121 647 L121 20 Z " />
<glyph glyph-name="F" unicode="F" horiz-adv-x="561" d="M121 20 L33 20 L33 0 L320 0 L320 20 L228 20 L228 328 L265 328 C331 328 360 314 374 276 C380 259 382 248 386 196 L400 196 L400 471 L386 471 C383 361 363 346 228 347 L228 647 L297 647 C417 648 431 645 467 617 C497 592 520 545 533 481 L547 481 L533 667 L33 667 L33 647 L121 647 L121 20 Z " />
<glyph glyph-name="G" unicode="G" horiz-adv-x="669" d="M554 667 L540 667 L505 627 C448 662 402 677 348 677 C183 677 44 520 44 333 C44 145 178 -10 339 -10 C426 -10 520 36 560 99 C580 130 588 162 591 213 L658 213 L658 233 L362 233 L362 213 L467 213 C465 139 460 107 442 73 C423 39 375 13 328 13 C301 13 269 22 246 35 C210 55 188 94 181 148 C175 191 171 264 171 327 C171 458 182 541 205 586 C225 626 281 654 342 654 C400 654 449 632 486 589 C515 555 529 526 544 468 L559 468 L554 667 Z " />
<glyph glyph-name="H" unicode="H" horiz-adv-x="747" d="M519 331 L519 20 L426 20 L426 0 L713 0 L713 20 L626 20 L626 647 L713 647 L713 667 L426 667 L426 647 L519 647 L519 351 L228 351 L228 647 L320 647 L320 667 L33 667 L33 647 L121 647 L121 20 L33 20 L33 0 L320 0 L320 20 L228 20 L228 331 L519 331 Z " />
<glyph glyph-name="I" unicode="I" horiz-adv-x="348" d="M121 20 L33 20 L33 0 L315 0 L315 20 L228 20 L228 647 L315 647 L315 667 L33 667 L33 647 L121 647 L121 20 Z " />
<glyph glyph-name="J" unicode="J" horiz-adv-x="406" d="M188 647 L188 105 C188 12 187 4 174 -22 C163 -42 137 -59 116 -59 C103 -59 88 -49 88 -41 C88 -38 89 -36 92 -33 C105 -15 110 -5 110 8 C110 36 89 58 63 58 C31 58 7 34 7 2 C7 -43 54 -80 111 -80 C172 -80 235 -43 268 12 C287 45 295 85 295 148 L295 647 L388 647 L388 667 L101 667 L101 647 L188 647 Z " />
<glyph glyph-name="K" unicode="K" horiz-adv-x="686" d="M121 20 L33 20 L33 0 L320 0 L320 20 L228 20 L228 647 L320 647 L320 667 L33 667 L33 647 L121 647 L121 20 Z M333 407 L556 647 L645 647 L645 667 L421 667 L421 647 L523 647 L242 348 L499 20 L408 20 L408 0 L685 0 L685 20 L634 20 L333 407 Z " />
<glyph glyph-name="L" unicode="L" horiz-adv-x="598" d="M121 20 L33 20 L33 0 L556 0 L574 206 L560 206 C522 49 484 15 357 20 L228 20 L228 647 L320 647 L320 667 L33 667 L33 647 L121 647 L121 20 Z " />
<glyph glyph-name="M" unicode="M" horiz-adv-x="804" d="M115 20 L27 20 L27 0 L226 0 L226 20 L138 20 L138 637 L345 0 L371 0 L576 630 L576 20 L483 20 L483 0 L770 0 L770 20 L683 20 L683 647 L770 647 L770 667 L562 667 L402 175 L246 667 L27 667 L27 647 L115 647 L115 20 Z " />
<glyph glyph-name="N" unicode="N" horiz-adv-x="701" d="M114 20 L26 20 L26 0 L225 0 L225 20 L137 20 L137 628 L568 0 L591 0 L591 647 L678 647 L678 667 L479 667 L479 647 L568 647 L568 196 C539 243 514 281 449 374 L245 667 L26 667 L26 647 L114 647 L114 20 Z " />
<glyph glyph-name="O" unicode="O" horiz-adv-x="697" d="M349 677 C278 677 211 650 158 599 C85 528 44 434 44 334 C44 248 78 158 135 93 C193 25 267 -10 349 -10 C420 -10 484 16 539 67 C609 133 654 234 654 327 C654 520 517 677 349 677 L349 677 Z M349 654 C411 654 469 626 493 585 C520 538 528 475 528 307 C528 203 516 122 496 88 C469 41 414 13 349 13 C281 13 224 44 199 95 C179 134 171 204 171 329 C171 471 179 534 203 579 C227 625 284 654 349 654 L349 654 Z " />
<glyph glyph-name="P" unicode="P" horiz-adv-x="607" d="M121 20 L33 20 L33 0 L320 0 L320 20 L228 20 L228 322 L303 322 C403 322 448 330 500 358 C553 385 586 438 586 495 C586 552 555 602 501 632 C450 661 415 667 301 667 L33 667 L33 647 L121 647 L121 20 Z M228 342 L228 647 L302 647 C436 647 466 619 466 491 C466 436 457 401 436 376 C414 351 381 342 304 342 L228 342 Z " />
<glyph glyph-name="Q" unicode="Q" horiz-adv-x="697" d="M613 -204 C553 -202 524 -198 497 -189 C433 -167 406 -119 406 -26 C406 -23 406 -10 407 0 C458 11 493 29 535 65 C614 133 654 222 654 327 C654 518 516 677 351 677 C185 677 44 521 44 336 C44 175 138 47 293 0 C291 -158 376 -215 613 -218 L613 -204 Z M353 654 C423 654 475 624 502 568 C519 532 527 457 527 330 C527 223 519 144 506 109 C481 45 428 13 346 13 C279 13 228 40 202 89 C180 129 171 200 171 330 C171 424 179 516 189 551 C193 563 202 580 210 592 C241 635 285 654 353 654 L353 654 Z " />
<glyph glyph-name="R" unicode="R" horiz-adv-x="669" d="M121 20 L33 20 L33 0 L320 0 L320 20 L228 20 L228 345 L265 345 C389 345 422 314 424 195 C426 120 431 93 450 61 C472 22 522 -4 574 -4 C599 -4 618 0 648 12 L641 30 C619 21 610 19 600 19 C585 19 569 29 563 41 C554 59 552 71 553 124 C560 254 494 333 360 353 C492 361 575 424 575 514 C575 571 544 615 484 642 C438 663 403 667 274 667 L33 667 L33 647 L121 647 L121 20 Z M228 367 L228 647 L272 647 C346 647 373 643 402 626 C440 605 461 563 461 507 C461 452 441 408 406 389 C376 373 342 367 267 367 L228 367 Z " />
<glyph glyph-name="S" unicode="S" horiz-adv-x="523" d="M439 677 L424 677 L387 636 C341 665 303 677 256 677 C148 677 64 588 64 475 C64 422 84 377 120 349 C146 328 191 311 257 296 C324 282 362 268 384 250 C410 228 425 195 425 156 C425 71 363 13 272 13 C207 13 147 42 112 90 C89 122 76 154 68 206 L52 206 L52 0 L74 0 L113 48 C164 8 211 -10 269 -10 C390 -10 478 85 478 216 C478 270 463 314 433 348 C403 382 355 404 282 419 C212 433 153 456 136 477 C123 492 117 512 117 534 C117 604 175 654 255 654 C346 654 409 596 423 501 L439 501 L439 677 Z " />
<glyph glyph-name="T" unicode="T" horiz-adv-x="604" d="M248 20 L150 20 L150 0 L455 0 L455 20 L357 20 L357 647 L389 647 C459 648 479 641 512 606 C546 565 566 520 578 456 L594 456 L586 667 L18 667 L11 456 L27 456 C42 535 64 581 106 621 C134 643 150 647 212 647 L248 647 L248 20 Z " />
<glyph glyph-name="U" unicode="U" horiz-adv-x="674" d="M544 647 L544 265 C544 147 540 125 517 84 C490 37 442 13 374 13 C311 13 258 39 234 83 C215 118 214 134 214 265 L214 647 L306 647 L306 667 L19 667 L19 647 L107 647 L107 265 C107 160 112 123 132 89 C167 28 250 -10 350 -10 C444 -10 507 19 539 76 C562 119 567 148 567 265 L567 647 L655 647 L655 667 L456 667 L456 647 L544 647 Z " />
<glyph glyph-name="V" unicode="V" horiz-adv-x="611" d="M546 647 L616 647 L616 667 L418 667 L418 647 L521 647 L352 158 L178 647 L274 647 L274 667 L-4 667 L-4 647 L59 647 L299 -10 L321 -10 L546 647 Z " />
<glyph glyph-name="W" unicode="W" horiz-adv-x="839" d="M783 647 L839 647 L839 667 L661 667 L661 647 L755 647 L592 151 L487 442 L562 647 L625 647 L625 667 L-3 667 L-3 647 L55 647 L294 -10 L318 -10 L428 287 L539 -10 L562 -10 L783 647 Z M531 647 L473 482 L414 647 L531 647 Z M295 647 L416 326 L350 151 L172 647 L295 647 Z " />
<glyph glyph-name="X" unicode="X" horiz-adv-x="625" d="M276 282 L435 20 L345 20 L345 0 L625 0 L625 20 L567 20 L345 388 L516 647 L590 647 L590 667 L390 667 L390 647 L487 647 L330 410 L184 647 L281 647 L281 667 L4 667 L4 647 L53 647 L262 305 L77 20 L4 20 L4 0 L203 0 L203 20 L105 20 L276 282 Z " />
<glyph glyph-name="Y" unicode="Y" horiz-adv-x="607" d="M248 20 L150 20 L150 0 L453 0 L453 20 L355 20 L355 316 C360 324 363 330 366 335 L373 350 C375 354 378 360 382 366 C386 372 390 378 393 384 L541 647 L614 647 L614 667 L409 667 L409 647 L514 647 L344 356 C342 364 338 371 330 384 L173 647 L262 647 L262 667 L-10 667 L-10 647 L44 647 L248 316 L248 20 Z " />
<glyph glyph-name="Z" unicode="Z" horiz-adv-x="574" d="M27 0 L526 0 L546 210 L532 210 C512 131 498 96 471 64 C435 24 420 20 320 20 L140 20 L557 667 L71 667 L51 463 L65 463 C106 615 147 654 254 647 L416 647 L27 44 L27 0 Z " />
<glyph glyph-name="bracketleft" unicode="&#x5b;" horiz-adv-x="282" d="M63 -180 L277 -180 L277 -160 L150 -160 L150 647 L277 647 L277 667 L63 667 L63 -180 Z " />
<glyph glyph-name="backslash" unicode="&#x5c;" horiz-adv-x="425" d="M470 -180 L96 667 L36 667 L410 -180 L470 -180 Z " />
<glyph glyph-name="bracketright" unicode="&#x5d;" horiz-adv-x="282" d="M219 667 L6 667 L6 647 L128 647 L128 -160 L6 -160 L6 -180 L219 -180 L219 667 Z " />
<glyph glyph-name="asciicircum" unicode="&#x5e;" horiz-adv-x="525" d="M552 284 L274 700 L266 700 L-28 284 L100 284 L306 577 L504 284 L552 284 Z " />
<glyph glyph-name="underscore" unicode="&#x5f;" horiz-adv-x="502" d="M19 -89 L19 -142 L483 -142 L483 -89 L19 -89 Z " />
<glyph glyph-name="grave" unicode="&#x60;" horiz-adv-x="516" d="M206 616 L131 616 C125 616 122 613 122 608 C122 605 124 602 127 599 L294 463 L303 473 L206 616 Z " />
<glyph glyph-name="a" unicode="a" horiz-adv-x="465" d="M434 35 C416 20 413 19 403 19 C380 19 380 21 380 135 L380 245 C380 325 379 329 366 349 C344 382 292 403 232 403 C145 403 68 356 68 302 C68 277 88 259 114 259 C139 259 158 277 158 301 C158 313 153 321 141 333 C136 337 134 340 134 344 C134 364 178 386 218 386 C247 386 273 375 282 358 C289 345 290 337 290 286 L290 217 C220 216 176 209 137 195 C73 172 39 132 39 83 C39 28 85 -10 151 -10 C209 -10 258 18 290 68 C296 17 326 -10 375 -10 C403 -10 423 -2 447 20 L434 35 Z M290 180 C290 122 284 93 268 72 C248 46 224 34 194 34 C153 34 128 59 128 100 C128 136 147 163 185 181 C210 193 236 198 290 200 L290 180 Z " />
<glyph glyph-name="b" unicode="b" horiz-adv-x="522" d="M89 20 L18 20 L18 0 L179 0 L179 68 C209 14 247 -10 301 -10 C401 -10 486 87 486 202 C486 312 405 403 306 403 C249 403 203 374 179 322 L179 667 L18 667 L18 647 L89 647 L89 20 Z M379 193 C379 97 378 88 373 70 C364 36 335 13 300 13 C227 13 177 88 177 198 C177 305 227 380 297 380 C331 380 357 362 369 330 C377 310 377 308 379 199 L379 193 Z " />
<glyph glyph-name="c" unicode="c" horiz-adv-x="428" d="M384 127 C357 53 308 13 242 13 C204 13 172 29 159 54 C147 77 143 106 143 176 C143 268 154 330 174 351 C192 370 219 380 250 380 C286 380 327 363 327 349 C327 346 326 345 323 342 C307 327 298 310 298 294 C298 268 318 248 346 248 C375 248 395 269 395 299 C395 355 328 403 248 403 C134 403 37 308 37 194 C37 84 130 -10 239 -10 C320 -10 375 34 411 127 L384 127 Z " />
<glyph glyph-name="d" unicode="d" horiz-adv-x="518" d="M430 667 L266 667 L266 647 L340 647 L340 322 C306 377 266 403 215 403 C116 403 37 312 37 198 C37 84 118 -10 217 -10 C272 -10 316 21 340 76 L340 0 L500 0 L500 20 L430 20 L430 667 Z M220 380 C254 380 289 356 311 317 C329 287 338 246 338 198 C338 91 288 13 220 13 C196 13 168 29 158 50 C146 75 143 105 143 222 C143 298 151 340 168 357 C183 372 201 380 220 380 L220 380 Z " />
<glyph glyph-name="e" unicode="e" horiz-adv-x="446" d="M418 229 C412 334 339 403 236 403 C129 403 37 307 37 197 C37 87 132 -10 240 -10 C324 -10 394 48 410 132 L386 132 C366 58 312 13 243 13 C196 13 160 39 152 78 C147 100 146 129 146 209 L146 229 L418 229 Z M146 249 C146 310 146 310 150 323 C158 359 189 380 233 380 C270 380 293 365 303 334 C308 318 309 310 309 249 L146 249 Z " />
<glyph glyph-name="f" unicode="f" horiz-adv-x="319" d="M192 373 L292 373 L292 393 L192 393 L192 528 C192 608 192 608 203 630 C211 646 231 657 254 657 C266 657 273 655 283 650 C269 637 262 623 262 608 C262 584 281 565 305 565 C329 565 349 586 349 611 C349 647 307 677 258 677 C205 677 154 646 127 598 C108 563 102 534 102 474 L102 393 L32 393 L32 373 L102 373 L102 20 L32 20 L32 0 L283 0 L283 20 L192 20 L192 373 Z " />
<glyph glyph-name="g" unicode="g" horiz-adv-x="461" d="M282 22 L225 21 L166 20 L136 20 C91 20 71 31 71 57 C71 83 95 110 144 139 C171 127 193 123 224 123 C322 123 392 180 392 260 C392 293 381 322 359 350 C371 363 376 366 383 366 C389 366 392 362 395 350 C399 330 411 320 430 320 C452 320 468 336 468 358 C468 385 448 403 420 403 C395 403 373 391 344 362 C314 389 274 403 225 403 C130 403 58 343 58 262 C58 218 78 183 123 149 C61 110 31 69 31 23 C31 -20 60 -51 110 -64 C58 -79 27 -112 27 -151 C27 -218 111 -272 215 -272 C347 -272 437 -196 437 -84 C437 -41 421 -8 393 8 C374 19 357 22 317 22 L282 22 Z M228 383 C257 383 279 374 287 360 C295 346 297 328 297 274 C297 212 295 190 286 172 C277 154 253 144 222 144 C194 144 173 153 164 169 C156 182 153 204 153 245 C153 312 159 354 171 366 C180 377 202 383 228 383 L228 383 Z M341 -64 C381 -64 397 -76 397 -106 C397 -185 321 -247 224 -247 C147 -247 98 -206 98 -142 C98 -112 108 -89 132 -64 C154 -67 164 -67 188 -67 C204 -67 214 -67 293 -65 L341 -64 Z " />
<glyph glyph-name="h" unicode="h" horiz-adv-x="554" d="M88 20 L18 20 L18 0 L246 0 L246 20 L178 20 L178 165 C178 247 184 283 202 315 C223 352 262 374 306 374 C333 374 356 364 364 348 C372 332 373 322 373 258 L373 20 L310 20 L310 0 L537 0 L537 20 L463 20 L463 258 C463 319 461 334 450 354 C432 384 389 403 336 403 C297 403 257 393 229 375 C209 363 197 351 178 322 L178 667 L18 667 L18 647 L88 647 L88 20 Z " />
<glyph glyph-name="i" unicode="i" horiz-adv-x="284" d="M107 20 L32 20 L32 0 L267 0 L267 20 L197 20 L197 393 L32 393 L32 373 L107 373 L107 20 Z M145 654 C113 654 90 630 90 598 C90 565 113 540 145 540 C176 540 201 565 201 597 C201 628 175 654 145 654 L145 654 Z " />
<glyph glyph-name="j" unicode="j" horiz-adv-x="246" d="M178 393 L18 393 L18 373 L88 373 L88 -144 C88 -207 87 -218 78 -232 C71 -243 59 -250 46 -250 C32 -250 25 -243 25 -230 C25 -226 25 -223 26 -221 C33 -204 33 -204 33 -196 C33 -172 16 -155 -9 -155 C-35 -155 -52 -173 -52 -200 C-52 -240 -12 -271 41 -271 C88 -271 136 -243 156 -204 C174 -170 178 -143 178 -61 L178 393 Z M130 654 C98 654 75 630 75 598 C75 565 99 540 130 540 C161 540 186 565 186 597 C186 628 161 654 130 654 L130 654 Z " />
<glyph glyph-name="k" unicode="k" horiz-adv-x="514" d="M183 667 L18 667 L18 647 L93 647 L93 20 L18 20 L18 0 L253 0 L253 20 L183 20 L183 667 Z M272 252 L403 373 L477 373 L477 393 L265 393 L265 373 L367 373 L192 210 L343 20 L290 20 L290 0 L515 0 L515 20 L468 20 L272 252 Z " />
<glyph glyph-name="l" unicode="l" horiz-adv-x="270" d="M93 20 L18 20 L18 0 L253 0 L253 20 L183 20 L183 667 L18 667 L18 647 L93 647 L93 20 Z " />
<glyph glyph-name="m" unicode="m" horiz-adv-x="801" d="M102 20 L32 20 L32 0 L260 0 L260 20 L192 20 L192 128 C192 245 197 295 212 324 C226 350 263 370 298 370 C322 370 341 361 350 346 C357 332 360 312 360 266 L360 20 L297 20 L297 0 L517 0 L517 20 L450 20 L450 128 C450 287 450 288 469 323 C485 353 521 373 557 373 C582 373 601 364 610 348 C616 335 618 320 618 266 L618 20 L555 20 L555 0 L782 0 L782 20 L708 20 L708 266 C708 313 704 337 694 355 C677 385 636 403 587 403 C523 403 478 382 444 337 C437 355 433 363 424 371 C404 391 367 403 330 403 C272 403 230 385 192 343 L192 393 L32 393 L32 373 L102 373 L102 20 Z " />
<glyph glyph-name="n" unicode="n" horiz-adv-x="552" d="M102 20 L32 20 L32 0 L259 0 L259 20 L192 20 L192 139 C192 249 197 294 213 324 C228 351 267 373 301 373 C326 373 350 360 360 341 C372 317 375 281 375 174 L375 20 L308 20 L308 0 L535 0 L535 20 L465 20 L465 242 C465 303 462 324 450 345 C429 381 382 403 327 403 C269 403 228 384 192 341 L192 393 L32 393 L32 373 L102 373 L102 20 Z " />
<glyph glyph-name="o" unicode="o" horiz-adv-x="498" d="M250 403 C132 403 37 311 37 197 C37 82 132 -10 250 -10 C366 -10 462 82 462 194 C462 311 369 403 250 403 L250 403 Z M355 197 L356 149 C357 104 352 73 343 56 C327 27 296 13 249 13 C211 13 185 22 166 43 C146 64 144 79 144 197 C144 309 146 327 162 346 C182 370 208 380 250 380 C323 380 354 348 355 272 L355 197 Z " />
<glyph glyph-name="p" unicode="p" horiz-adv-x="519" d="M87 -247 L17 -247 L17 -267 L252 -267 L252 -247 L177 -247 L177 78 C206 18 246 -10 302 -10 C399 -10 482 88 482 204 C482 314 404 403 307 403 C249 403 206 375 177 320 L177 393 L17 393 L17 373 L87 373 L87 -247 Z M301 380 C327 380 350 367 361 347 C371 329 376 291 376 230 C376 120 372 79 356 46 C346 25 325 13 299 13 C227 13 180 86 180 200 C180 250 189 291 205 320 C227 357 263 380 301 380 L301 380 Z " />
<glyph glyph-name="q" unicode="q" horiz-adv-x="520" d="M433 373 L503 373 L503 393 L343 393 L343 321 C318 371 269 403 217 403 C117 403 37 313 37 201 C37 85 121 -10 222 -10 C274 -10 319 21 343 73 L343 -247 L258 -247 L258 -267 L503 -267 L503 -247 L433 -247 L433 373 Z M224 380 C251 380 278 367 300 343 C327 312 339 267 339 190 C339 135 333 102 318 75 C297 37 261 13 224 13 C198 13 173 27 160 49 C148 70 144 100 144 169 C144 281 147 320 159 344 C170 365 197 380 224 380 L224 380 Z " />
<glyph glyph-name="r" unicode="r" horiz-adv-x="390" d="M102 20 L32 20 L32 0 L267 0 L267 20 L192 20 L192 113 C192 215 200 270 223 315 C238 345 253 362 265 362 C273 362 275 357 276 341 C277 312 296 294 324 294 C354 294 376 316 376 345 C376 379 348 403 311 403 C260 403 222 370 192 298 L192 393 L32 393 L32 373 L102 373 L102 20 Z " />
<glyph glyph-name="s" unicode="s" horiz-adv-x="358" d="M306 398 L290 398 L273 366 C238 393 209 403 172 403 C99 403 47 351 47 279 C47 251 55 225 71 204 C91 178 130 161 191 154 C260 146 291 126 291 89 C291 46 250 13 196 13 C160 13 123 29 103 53 C83 76 72 100 58 150 L43 150 L47 0 L58 0 L83 32 C123 2 153 -10 193 -10 C271 -10 328 47 328 126 C328 200 281 242 184 254 C113 263 81 280 81 310 C81 349 121 380 172 380 C234 380 283 340 293 280 L309 280 L306 398 Z " />
<glyph glyph-name="t" unicode="t" horiz-adv-x="306" d="M182 546 L166 546 C140 475 93 423 24 387 L24 373 L92 373 L92 119 C92 66 93 56 103 39 C120 8 156 -10 201 -10 C262 -10 300 19 309 75 L288 75 C280 38 262 21 231 21 C212 21 196 29 189 42 C183 52 182 61 182 89 L182 373 L288 373 L288 393 L182 393 L182 546 Z " />
<glyph glyph-name="u" unicode="u" horiz-adv-x="557" d="M462 393 L297 393 L297 373 L372 373 L372 233 C372 128 368 101 349 66 C332 33 294 13 250 13 C222 13 201 22 193 37 C184 52 183 74 183 160 L183 393 L18 393 L18 373 L93 373 L93 160 C93 93 96 70 108 47 C129 11 175 -10 234 -10 C298 -10 342 11 372 55 L372 0 L532 0 L532 20 L462 20 L462 393 Z " />
<glyph glyph-name="v" unicode="v" horiz-adv-x="431" d="M392 373 L433 373 L433 393 L284 393 L284 373 L364 373 L255 104 L145 373 L221 373 L221 393 L-2 393 L-2 373 L42 373 L203 -10 L240 -10 L392 373 Z " />
<glyph glyph-name="w" unicode="w" horiz-adv-x="638" d="M591 373 L641 373 L641 393 L483 393 L483 373 L564 373 L483 114 L375 393 L338 393 L248 114 L150 373 L219 373 L219 393 L-2 393 L-2 373 L46 373 L200 -10 L233 -10 L322 266 L434 -10 L467 -10 L591 373 Z " />
<glyph glyph-name="x" unicode="x" horiz-adv-x="460" d="M260 233 L372 373 L444 373 L444 393 L273 393 L273 373 L342 373 L247 254 L162 373 L224 373 L224 393 L4 393 L4 373 L52 373 L189 181 L62 20 L4 20 L4 0 L172 0 L172 20 L92 20 L203 161 L304 20 L260 20 L260 0 L457 0 L457 20 L415 20 L260 233 Z " />
<glyph glyph-name="y" unicode="y" horiz-adv-x="430" d="M391 373 L433 373 L433 393 L280 393 L280 373 L362 373 L265 117 L148 373 L221 373 L221 393 L-2 393 L-2 373 L43 373 L221 0 L163 -148 C143 -197 140 -201 129 -201 C124 -201 121 -199 114 -190 C102 -176 88 -169 70 -169 C40 -169 19 -189 19 -216 C19 -244 44 -265 80 -265 C125 -265 157 -234 185 -159 L391 373 Z " />
<glyph glyph-name="z" unicode="z" horiz-adv-x="419" d="M398 393 L60 393 L60 240 L74 240 C109 357 126 373 219 373 L274 373 L21 0 L383 0 L384 167 L370 167 C338 37 320 19 224 20 L141 20 L398 393 Z " />
<glyph glyph-name="braceleft" unicode="&#x7b;" horiz-adv-x="282" d="M3 249 C55 245 62 229 62 127 L62 2 C59 -147 86 -178 227 -179 C240 -179 242 -179 256 -180 L256 -160 C176 -159 148 -124 147 -25 L147 130 C149 207 125 246 69 256 L69 260 C128 273 150 308 148 390 L148 513 C148 610 175 643 256 647 L256 667 L237 666 L202 665 C154 664 138 661 115 649 C76 624 62 586 62 503 L62 375 C61 290 49 267 3 266 L3 249 Z " />
<glyph glyph-name="bar" unicode="&#x7c;" horiz-adv-x="525" d="M227 667 L227 -167 L298 -167 L298 667 L227 667 Z " />
<glyph glyph-name="braceright" unicode="&#x7d;" horiz-adv-x="282" d="M256 266 C210 267 198 289 197 375 L197 503 C196 633 161 669 35 666 C30 666 17 666 3 667 L3 647 C84 643 111 610 111 513 L111 390 C108 307 129 273 190 260 L190 256 C133 245 109 207 111 130 L111 -25 C111 -125 83 -159 3 -160 L3 -180 C18 -179 19 -179 32 -179 C121 -178 155 -166 180 -127 C194 -101 196 -88 197 2 L197 127 C196 229 204 245 256 249 L256 266 Z " />
<glyph glyph-name="asciitilde" unicode="&#x7e;" horiz-adv-x="509" d="M403 375 C382 347 373 342 348 342 C331 342 313 345 297 351 L253 366 C227 375 216 377 199 377 C147 377 116 355 90 300 L105 291 C122 317 136 325 163 325 C178 325 201 321 220 314 L263 300 C284 293 303 289 317 289 C355 289 389 315 418 366 L403 375 Z " />
<glyph glyph-name="uni00A0" unicode="&#xa0;" horiz-adv-x="250" d="" />
<glyph glyph-name="exclamdown" unicode="&#xa1;" horiz-adv-x="279" d="M128 210 C125 87 118 29 95 -94 C79 -168 78 -172 78 -202 C78 -243 102 -270 138 -270 C173 -270 199 -241 199 -202 C199 -182 198 -178 180 -86 C157 18 151 78 148 210 L128 210 Z M140 296 C174 296 202 323 202 356 C202 387 175 413 141 413 C106 413 78 387 78 355 C78 323 106 296 138 296 L140 296 Z " />
<glyph glyph-name="cent" unicode="&#xa2;" horiz-adv-x="525" d="M301 524 C337 522 369 507 369 492 C369 488 367 486 362 482 C349 471 340 451 340 435 C340 410 362 389 389 389 C417 389 438 411 438 440 C438 494 381 536 301 542 L301 630 L273 630 L273 542 C166 534 80 442 80 336 C80 229 162 142 273 131 L273 36 L301 36 L301 132 C373 139 434 194 454 268 L427 268 C404 199 361 160 301 153 L301 524 Z M273 152 C200 165 183 194 183 309 C183 465 202 510 273 522 L273 152 Z " />
<glyph glyph-name="sterling" unicode="&#xa3;" horiz-adv-x="525" d="M279 296 C268 311 263 318 245 342 C185 419 167 458 167 512 C167 597 225 656 309 656 C370 656 417 625 417 584 C417 577 414 573 405 566 C383 550 374 537 374 520 C374 492 396 471 426 471 C463 471 492 501 492 539 C492 613 405 677 304 677 C181 677 75 588 75 483 C75 445 90 410 123 371 C139 352 147 342 189 296 L61 296 L61 263 L215 263 C252 222 265 195 265 164 C265 150 264 140 258 116 C192 138 166 143 126 143 C57 143 8 112 8 69 C8 25 54 -6 120 -6 C170 -6 199 3 256 38 C310 2 351 -13 393 -13 C483 -13 537 56 537 171 L507 171 C508 165 508 159 508 156 C508 97 472 54 422 54 C393 54 369 63 291 103 C303 137 307 161 307 192 C307 219 303 238 293 263 L435 263 L435 296 L279 296 Z M226 56 C194 32 162 21 121 21 C77 21 42 42 42 68 C42 89 63 106 90 106 C128 106 161 94 226 56 L226 56 Z " />
<glyph glyph-name="currency" unicode="&#xa4;" horiz-adv-x="525" d="M399 481 C359 512 313 528 262 528 C212 528 167 513 126 481 L56 547 L31 523 L101 457 C68 419 51 374 51 327 C51 279 67 236 101 196 L31 130 L56 106 L125 173 C166 141 213 125 262 125 C312 125 361 142 399 173 L469 106 L494 130 L424 196 C457 234 474 279 474 327 C474 375 457 418 424 457 L494 523 L469 547 L399 481 Z M263 462 C343 462 408 401 408 327 C408 251 343 191 260 191 C182 191 117 253 117 326 C117 401 182 462 263 462 L263 462 Z " />
<glyph glyph-name="yen" unicode="&#xa5;" horiz-adv-x="525" d="M213 304 L213 20 L127 20 L127 0 L396 0 L396 20 L306 20 L306 304 L456 304 L456 324 L315 324 L367 433 L498 433 L498 453 L376 453 L454 627 L518 627 L518 647 L338 647 L338 627 L427 627 L295 339 L166 627 L244 627 L244 647 L6 647 L6 627 L53 627 L140 453 L25 453 L25 433 L150 433 L204 324 L68 324 L68 304 L213 304 Z " />
<glyph glyph-name="brokenbar" unicode="&#xa6;" horiz-adv-x="525" d="M227 667 L227 326 L298 326 L298 667 L227 667 Z M227 153 L227 -167 L298 -167 L298 153 L227 153 Z " />
<glyph glyph-name="section" unicode="&#xa7;" horiz-adv-x="525" d="M368 117 C436 142 471 192 471 261 C471 334 436 367 288 435 C161 494 136 515 136 564 C136 621 186 657 266 657 C323 657 357 643 386 607 C344 599 321 578 321 546 C321 520 346 499 375 499 C411 499 440 527 440 561 C440 626 365 677 270 677 C161 677 85 612 85 518 C85 466 108 428 161 393 C95 374 56 322 56 254 C56 218 68 185 89 166 C113 143 174 109 240 80 C320 44 383 7 397 -15 C406 -29 410 -44 410 -60 C410 -127 346 -170 249 -170 C180 -170 126 -149 97 -110 C103 -111 108 -111 112 -111 C149 -111 180 -80 180 -44 C180 -11 156 13 123 13 C85 13 54 -18 54 -56 C54 -98 81 -139 125 -164 C156 -181 194 -190 241 -190 C373 -190 468 -121 468 -25 C468 9 454 43 430 68 C415 84 402 94 368 117 L368 117 Z M176 379 C197 379 207 376 241 360 C321 323 321 323 343 312 C409 276 429 254 429 213 C429 171 392 134 351 134 C331 134 319 138 264 164 C196 196 145 222 131 234 C109 252 97 272 97 291 C97 335 137 379 176 379 L176 379 Z " />
<glyph glyph-name="dieresis" unicode="&#xa8;" horiz-adv-x="520" d="M165 591 C136 591 112 568 112 541 C112 512 134 490 163 490 C192 490 215 512 215 540 C215 568 192 591 165 591 L165 591 Z M356 591 C327 591 305 569 305 541 C305 512 327 490 357 490 C387 490 408 510 408 539 C408 568 385 591 356 591 L356 591 Z " />
<glyph glyph-name="copyright" unicode="&#xa9;" horiz-adv-x="816" d="M408 677 C207 677 44 523 44 333 C44 146 207 -10 403 -10 C609 -10 772 142 772 334 C772 524 609 677 408 677 L408 677 Z M408 644 C586 644 732 505 732 334 C732 160 587 23 403 23 C229 23 84 164 84 333 C84 505 229 644 408 644 L408 644 Z M551 256 L536 256 C509 189 470 158 412 158 C373 158 338 174 326 198 C315 219 311 251 311 316 C311 365 314 413 319 435 C330 485 362 509 418 509 C478 509 520 477 535 418 L551 418 L551 523 L536 523 L516 498 C485 519 452 529 417 529 C314 529 229 440 229 333 C229 226 312 138 413 138 C448 138 480 148 516 169 L536 143 L551 143 L551 256 Z " />
<glyph glyph-name="ordfeminine" unicode="&#xaa;" horiz-adv-x="350" d="M324 330 L27 330 L27 297 L324 297 L324 330 Z M306 429 C292 417 292 417 286 417 C274 417 274 417 274 492 L274 566 C274 618 274 621 266 634 C252 659 217 674 176 674 C117 674 67 641 67 603 C67 586 81 572 98 572 C116 572 129 586 129 603 C129 612 126 618 120 625 C118 629 117 630 117 632 C117 644 144 658 167 658 C182 658 198 651 203 641 C207 633 208 627 208 593 L208 550 C105 547 48 514 48 457 C48 420 78 393 122 393 C157 393 190 411 209 440 C215 410 236 393 267 393 C286 393 300 399 317 415 L306 429 Z M207 523 C207 458 189 428 150 428 C126 428 112 443 112 470 C112 509 144 530 207 533 L207 523 Z " />
<glyph glyph-name="guillemotleft" unicode="&#xab;" horiz-adv-x="402" d="M46 198 L162 94 L229 94 L111 198 L229 304 L167 304 L46 198 Z M167 198 L283 94 L350 94 L232 198 L350 304 L287 304 L167 198 Z " />
<glyph glyph-name="logicalnot" unicode="&#xac;" horiz-adv-x="525" d="M374 0 L489 0 L489 267 L35 267 L35 217 L374 217 L374 0 Z " />
<glyph glyph-name="uni00AD" unicode="&#xad;" horiz-adv-x="203" d="M0 234 L0 168 L203 168 L203 234 L0 234 Z " />
<glyph glyph-name="registered" unicode="&#xae;" horiz-adv-x="816" d="M408 677 C207 677 44 523 44 333 C44 146 207 -10 403 -10 C609 -10 772 142 772 334 C772 524 609 677 408 677 L408 677 Z M408 644 C586 644 732 505 732 334 C732 160 587 23 403 23 C229 23 84 164 84 333 C84 505 229 644 408 644 L408 644 Z M279 161 L227 161 L227 143 L406 143 L406 161 L350 161 L350 336 L362 337 L367 337 C441 337 460 321 461 256 C462 216 465 199 476 181 C490 157 521 141 554 141 C571 141 583 143 604 151 L597 167 C581 162 576 161 570 161 C551 161 545 174 545 217 C547 287 520 323 452 343 C522 356 559 387 559 434 C559 467 541 491 504 508 C475 520 454 523 374 523 L227 523 L227 505 L279 505 L279 161 Z M350 355 L350 505 L373 505 C419 505 435 502 453 493 C473 482 484 459 484 430 C484 402 473 379 456 369 C437 359 417 355 370 355 L350 355 Z " />
<glyph glyph-name="macron" unicode="&#xaf;" horiz-adv-x="511" d="M117 544 L117 510 L394 510 L394 544 L117 544 Z " />
<glyph glyph-name="degree" unicode="&#xb0;" horiz-adv-x="400" d="M203 686 C117 686 50 619 50 534 C50 448 116 380 200 380 C284 380 350 447 350 533 C350 619 286 686 203 686 L203 686 Z M202 629 C252 629 293 586 293 533 C293 479 252 437 200 437 C148 437 106 480 106 532 C106 587 148 629 202 629 L202 629 Z " />
<glyph glyph-name="plusminus" unicode="&#xb1;" horiz-adv-x="525" d="M244 306 L244 130 L279 130 L279 306 L476 306 L476 341 L279 341 L279 517 L244 517 L244 341 L49 341 L49 306 L244 306 Z M49 33 L476 33 L476 68 L49 68 L49 33 Z " />
<glyph glyph-name="twosuperior" unicode="&#xb2;" horiz-adv-x="348" d="M298 369 L279 369 C274 334 273 333 266 320 C263 314 255 312 223 312 L87 312 C187 400 238 445 239 447 C283 491 301 521 301 554 C301 611 245 653 171 653 C100 653 48 614 48 561 C48 528 69 503 98 503 C118 503 135 517 135 534 C135 551 119 564 99 564 C94 564 90 563 86 562 C81 560 77 559 75 559 C72 559 69 564 69 569 C69 601 107 630 147 630 C195 630 227 592 227 537 C227 514 223 495 217 482 C200 450 163 409 109 363 C96 352 65 323 31 291 L31 258 L294 258 L298 369 Z " />
<glyph glyph-name="threesuperior" unicode="&#xb3;" horiz-adv-x="348" d="M88 458 C137 458 150 457 166 453 C209 441 227 415 227 364 C227 303 199 271 145 271 C118 271 82 287 82 298 C82 300 83 301 88 304 C100 312 107 323 107 334 C107 350 93 363 75 363 L74 363 C54 363 37 347 37 328 C37 286 88 253 154 253 C239 253 306 304 306 369 C306 423 268 455 186 470 C251 492 282 523 282 565 C282 615 232 653 166 653 C106 653 61 624 61 586 C61 567 76 552 95 552 C112 552 126 565 126 581 C126 591 120 602 111 608 C105 612 104 612 104 614 C102 623 132 635 154 635 C192 635 208 615 208 568 C208 523 195 498 166 486 C151 480 137 479 88 478 L88 458 Z " />
<glyph glyph-name="acute" unicode="&#xb4;" horiz-adv-x="516" d="M311 616 L214 473 L223 463 L390 599 C393 602 395 605 395 608 C395 613 392 616 386 616 L311 616 Z " />
<glyph glyph-name="mu" unicode="&#xb5;" horiz-adv-x="576" d="M442 500 L353 500 L354 131 C318 80 284 58 242 58 C184 58 150 99 150 169 L150 500 L62 500 L62 20 C62 -1 58 -26 51 -56 C34 -118 33 -123 33 -147 C33 -190 54 -219 83 -219 C112 -219 132 -189 132 -145 C132 -124 129 -110 113 -53 C102 -17 101 -8 101 21 L101 33 C143 -3 165 -13 200 -13 C250 -13 301 18 354 80 C362 48 367 36 377 21 C392 0 419 -13 449 -13 C510 -13 553 31 567 108 L540 109 C536 71 515 41 492 41 C462 41 442 77 442 131 L442 500 Z " />
<glyph glyph-name="paragraph" unicode="&#xb6;" horiz-adv-x="525" d="M243 -160 L160 -160 L160 -180 L488 -180 L488 -160 L429 -160 L429 647 L488 647 L488 667 L239 667 C173 667 118 650 86 620 C50 587 29 537 29 487 C29 380 108 308 223 308 L243 308 L243 -160 Z M294 -160 L294 647 L379 647 L379 -160 L294 -160 Z " />
<glyph glyph-name="periodcentered" unicode="&#xb7;" horiz-adv-x="250" d="M125 259 C91 259 63 232 63 199 C63 168 91 142 124 142 C159 142 187 168 187 200 C187 232 159 259 127 259 L125 259 Z " />
<glyph glyph-name="cedilla" unicode="&#xb8;" horiz-adv-x="525" d="M298 0 L277 -60 C320 -75 334 -88 334 -117 C334 -145 314 -162 282 -162 C260 -162 236 -152 236 -143 C236 -141 236 -139 237 -136 C238 -133 239 -129 239 -125 C239 -110 230 -98 218 -98 C208 -98 201 -106 201 -117 C201 -152 241 -178 295 -178 C357 -178 402 -147 402 -106 C402 -74 368 -52 320 -52 L301 -52 L319 0 L298 0 Z " />
<glyph glyph-name="onesuperior" unicode="&#xb9;" horiz-adv-x="348" d="M152 278 L82 278 L82 259 L289 259 L289 278 L223 278 L223 651 L82 644 L82 626 L137 627 L145 627 C148 627 150 627 150 626 C151 626 152 622 152 616 L152 278 Z " />
<glyph glyph-name="ordmasculine" unicode="&#xba;" horiz-adv-x="350" d="M324 330 L27 330 L27 297 L324 297 L324 330 Z M177 674 C98 674 36 612 36 534 C36 456 98 393 176 393 C252 393 315 456 315 531 C315 611 254 674 177 674 L177 674 Z M238 500 C238 434 224 414 176 414 C149 414 129 424 122 440 C115 456 114 467 114 534 C114 600 115 611 122 627 C129 644 149 653 176 653 C219 653 237 633 237 584 C237 550 237 544 238 520 L238 500 Z " />
<glyph glyph-name="guillemotright" unicode="&#xbb;" horiz-adv-x="402" d="M357 200 L240 304 L174 304 L292 200 L174 94 L236 94 L357 200 Z M236 200 L120 304 L53 304 L171 200 L53 94 L115 94 L236 200 Z " />
<glyph glyph-name="onequarter" unicode="&#xbc;" horiz-adv-x="796" d="M152 278 L82 278 L82 259 L289 259 L289 278 L223 278 L223 651 L82 644 L82 626 L137 627 L145 627 C148 627 150 627 150 626 C151 626 152 622 152 616 L152 278 Z M560 647 L232 0 L263 0 L591 647 L560 647 Z M624 102 L624 19 L558 19 L558 0 L756 0 L756 19 L695 19 L695 102 L747 102 L747 58 L768 58 L768 168 L747 168 L747 124 L695 124 L695 392 L652 392 L468 129 L468 102 L624 102 Z M624 124 L492 124 L624 313 L624 124 Z " />
<glyph glyph-name="onehalf" unicode="&#xbd;" horiz-adv-x="796" d="M152 278 L82 278 L82 259 L289 259 L289 278 L223 278 L223 651 L82 644 L82 626 L137 627 L145 627 C148 627 150 627 150 626 C151 626 152 622 152 616 L152 278 Z M546 647 L218 0 L249 0 L577 647 L546 647 Z M745 111 L726 111 C721 76 721 75 713 62 C710 56 702 54 671 54 L534 54 C634 143 685 187 686 188 C730 232 748 263 748 295 C748 352 692 394 618 394 C547 394 495 355 495 303 C495 270 516 245 545 245 C566 245 583 259 583 275 C583 292 567 305 546 305 C541 305 537 304 533 303 C528 302 524 301 522 301 C518 301 516 306 516 311 C516 342 554 371 594 371 C641 371 674 333 674 278 C674 256 670 236 664 224 C647 192 610 151 556 104 C543 94 512 65 478 33 L478 0 L741 0 L745 111 Z " />
<glyph glyph-name="threequarters" unicode="&#xbe;" horiz-adv-x="796" d="M88 458 C137 458 150 457 166 453 C209 441 227 415 227 364 C227 303 199 271 145 271 C118 271 82 287 82 298 C82 300 83 301 88 304 C100 312 107 323 107 334 C107 350 93 363 75 363 L74 363 C54 363 37 347 37 328 C37 286 88 253 154 253 C239 253 306 304 306 369 C306 423 268 455 186 470 C251 492 282 523 282 565 C282 615 232 653 166 653 C106 653 61 624 61 586 C61 567 76 552 95 552 C112 552 126 565 126 581 C126 591 120 602 111 608 C105 612 104 612 104 614 C102 623 132 635 154 635 C192 635 208 615 208 568 C208 523 195 498 166 486 C151 480 137 479 88 478 L88 458 Z M567 647 L239 0 L270 0 L598 647 L567 647 Z M624 102 L624 19 L558 19 L558 0 L756 0 L756 19 L695 19 L695 102 L747 102 L747 58 L768 58 L768 168 L747 168 L747 124 L695 124 L695 392 L652 392 L468 129 L468 102 L624 102 Z M624 124 L492 124 L624 313 L624 124 Z " />
<glyph glyph-name="questiondown" unicode="&#xbf;" horiz-adv-x="391" d="M239 207 L241 190 L241 188 C242 142 221 112 154 66 C113 38 99 27 82 7 C52 -27 37 -66 37 -110 C37 -202 107 -270 202 -270 C289 -270 359 -212 359 -140 C359 -107 337 -82 309 -82 C286 -82 267 -100 267 -123 C267 -145 276 -159 300 -172 C312 -178 317 -184 317 -190 C317 -196 312 -205 303 -214 C283 -236 241 -250 199 -250 C134 -250 84 -213 84 -164 C84 -131 102 -104 152 -61 C236 10 261 59 261 157 C261 176 260 190 257 215 L239 207 Z M241 297 C275 297 303 324 303 355 C303 387 276 413 242 413 C207 413 179 387 179 355 C179 324 207 297 240 297 L241 297 Z " />
<glyph glyph-name="Agrave" unicode="&#xc0;" horiz-adv-x="616" d="M238 837 L138 837 C126 837 122 834 122 826 C122 820 126 817 137 812 L369 720 L376 732 L238 837 Z M361 215 L430 20 L339 20 L339 0 L623 0 L623 20 L549 20 L323 667 L292 667 L55 20 L4 20 L4 0 L174 0 L174 20 L83 20 L151 215 L361 215 Z M355 235 L158 235 L257 512 L355 235 Z " />
<glyph glyph-name="Aacute" unicode="&#xc1;" horiz-adv-x="616" d="M397 837 L259 732 L267 720 L499 812 C509 816 513 820 513 826 C513 834 509 837 498 837 L397 837 Z M361 215 L430 20 L339 20 L339 0 L623 0 L623 20 L549 20 L323 667 L292 667 L55 20 L4 20 L4 0 L174 0 L174 20 L83 20 L151 215 L361 215 Z M355 235 L158 235 L257 512 L355 235 Z " />
<glyph glyph-name="Acircumflex" unicode="&#xc2;" horiz-adv-x="616" d="M304 843 L138 732 L144 720 L304 769 L465 720 L471 732 L304 843 Z M361 215 L430 20 L339 20 L339 0 L623 0 L623 20 L549 20 L323 667 L292 667 L55 20 L4 20 L4 0 L174 0 L174 20 L83 20 L151 215 L361 215 Z M355 235 L158 235 L257 512 L355 235 Z " />
<glyph glyph-name="Atilde" unicode="&#xc3;" horiz-adv-x="616" d="M461 819 C439 790 430 785 405 785 C390 785 371 788 354 794 L311 809 C286 818 274 820 256 820 C205 820 173 798 147 744 L162 734 C180 760 194 768 220 768 C236 768 258 764 278 758 L320 743 C342 736 361 732 374 732 C413 732 447 758 476 810 L461 819 Z M361 215 L430 20 L339 20 L339 0 L623 0 L623 20 L549 20 L323 667 L292 667 L55 20 L4 20 L4 0 L174 0 L174 20 L83 20 L151 215 L361 215 Z M355 235 L158 235 L257 512 L355 235 Z " />
<glyph glyph-name="Adieresis" unicode="&#xc4;" horiz-adv-x="616" d="M196 830 C168 830 144 806 144 778 C144 749 167 727 196 727 C226 727 248 749 248 779 C248 807 225 830 196 830 L196 830 Z M417 830 C389 830 365 806 365 777 C365 749 388 727 417 727 C446 727 469 749 469 779 C469 807 446 830 417 830 L417 830 Z M361 215 L430 20 L339 20 L339 0 L623 0 L623 20 L549 20 L323 667 L292 667 L55 20 L4 20 L4 0 L174 0 L174 20 L83 20 L151 215 L361 215 Z M355 235 L158 235 L257 512 L355 235 Z " />
<glyph glyph-name="Aring" unicode="&#xc5;" horiz-adv-x="616" d="M306 859 C265 859 231 825 231 782 C231 740 264 707 307 707 C349 707 382 740 382 781 C382 825 349 859 306 859 L306 859 Z M307 831 C331 831 352 808 352 783 C352 757 331 735 306 735 C282 735 261 757 261 783 C261 809 282 831 307 831 L307 831 Z M361 215 L430 20 L339 20 L339 0 L623 0 L623 20 L549 20 L323 667 L292 667 L55 20 L4 20 L4 0 L174 0 L174 20 L83 20 L151 215 L361 215 Z M355 235 L158 235 L257 512 L355 235 Z " />
<glyph glyph-name="AE" unicode="&#xc6;" horiz-adv-x="896" d="M404 209 L404 20 L316 20 L316 0 L837 0 L857 208 L843 208 C798 49 760 12 648 20 L511 20 L511 327 C528 328 535 328 548 328 C614 328 643 314 657 276 C663 259 665 248 668 196 L683 196 L683 471 L668 471 C666 361 646 346 511 347 L511 647 L594 647 C736 652 780 620 814 484 L828 484 L820 667 L274 667 L274 647 L378 647 L59 20 L-22 20 L-22 0 L192 0 L192 20 L89 20 L185 209 L404 209 Z M404 229 L192 229 L404 640 L404 229 Z " />
<glyph glyph-name="Ccedilla" unicode="&#xc7;" horiz-adv-x="614" d="M348 -10 C406 -9 462 11 517 48 L552 0 L568 0 L568 189 L552 189 C508 70 440 13 344 13 C279 13 219 43 197 85 C177 125 170 182 170 304 C170 480 184 563 220 603 C250 635 300 654 353 654 C453 654 524 596 552 491 L568 491 L568 667 L552 667 L517 620 C465 658 409 677 351 677 C283 677 212 648 156 596 C84 531 44 436 44 332 C44 150 159 11 327 -10 L309 -61 C352 -76 367 -90 367 -118 C367 -147 347 -164 314 -164 C291 -164 267 -154 267 -145 L268 -138 C269 -134 270 -131 270 -127 C270 -112 261 -100 248 -100 C238 -100 231 -108 231 -120 C231 -155 272 -181 327 -181 C390 -181 436 -150 436 -107 C436 -76 401 -53 353 -53 L334 -53 L348 -10 Z " />
<glyph glyph-name="Egrave" unicode="&#xc8;" horiz-adv-x="613" d="M283 837 L183 837 C171 837 167 834 167 826 C167 820 170 817 182 812 L414 720 L421 732 L283 837 Z M121 20 L33 20 L33 0 L554 0 L574 208 L560 208 C534 121 523 95 494 60 C458 23 445 19 365 20 L228 20 L228 328 L265 328 C331 328 360 314 374 276 C380 259 381 250 385 196 L400 196 L400 471 L385 471 C382 361 363 346 228 347 L228 647 L311 647 C453 652 497 620 531 484 L545 484 L537 667 L33 667 L33 647 L121 647 L121 20 Z " />
<glyph glyph-name="Eacute" unicode="&#xc9;" horiz-adv-x="613" d="M378 837 L240 732 L247 720 L479 812 C489 816 494 820 494 826 C494 834 490 837 478 837 L378 837 Z M121 20 L33 20 L33 0 L554 0 L574 208 L560 208 C534 121 523 95 494 60 C458 23 445 19 365 20 L228 20 L228 328 L265 328 C331 328 360 314 374 276 C380 259 381 250 385 196 L400 196 L400 471 L385 471 C382 361 363 346 228 347 L228 647 L311 647 C453 652 497 620 531 484 L545 484 L537 667 L33 667 L33 647 L121 647 L121 20 Z " />
<glyph glyph-name="Ecircumflex" unicode="&#xca;" horiz-adv-x="613" d="M321 843 L154 732 L160 720 L321 769 L482 720 L487 732 L321 843 Z M121 20 L33 20 L33 0 L554 0 L574 208 L560 208 C534 121 523 95 494 60 C458 23 445 19 365 20 L228 20 L228 328 L265 328 C331 328 360 314 374 276 C380 259 381 250 385 196 L400 196 L400 471 L385 471 C382 361 363 346 228 347 L228 647 L311 647 C453 652 497 620 531 484 L545 484 L537 667 L33 667 L33 647 L121 647 L121 20 Z " />
<glyph glyph-name="Edieresis" unicode="&#xcb;" horiz-adv-x="613" d="M212 830 C183 830 160 806 160 778 C160 749 183 727 212 727 C241 727 264 749 264 779 C264 807 240 830 212 830 L212 830 Z M432 830 C403 830 380 806 380 777 C380 749 403 727 432 727 C461 727 484 749 484 779 C484 807 460 830 432 830 L432 830 Z M121 20 L33 20 L33 0 L554 0 L574 208 L560 208 C534 121 523 95 494 60 C458 23 445 19 365 20 L228 20 L228 328 L265 328 C331 328 360 314 374 276 C380 259 381 250 385 196 L400 196 L400 471 L385 471 C382 361 363 346 228 347 L228 647 L311 647 C453 652 497 620 531 484 L545 484 L537 667 L33 667 L33 647 L121 647 L121 20 Z " />
<glyph glyph-name="Igrave" unicode="&#xcc;" horiz-adv-x="348" d="M121 20 L33 20 L33 0 L315 0 L315 20 L228 20 L228 647 L315 647 L315 667 L33 667 L33 647 L121 647 L121 20 Z M128 837 L28 837 C16 837 12 834 12 826 C12 820 16 817 27 812 L259 720 L266 732 L128 837 Z " />
<glyph glyph-name="Iacute" unicode="&#xcd;" horiz-adv-x="348" d="M121 20 L33 20 L33 0 L315 0 L315 20 L228 20 L228 647 L315 647 L315 667 L33 667 L33 647 L121 647 L121 20 Z M264 837 L126 732 L133 720 L365 812 C375 816 380 820 380 826 C380 834 375 837 364 837 L264 837 Z " />
<glyph glyph-name="Icircumflex" unicode="&#xce;" horiz-adv-x="348" d="M120 20 L32 20 L32 0 L314 0 L314 20 L227 20 L227 647 L314 647 L314 667 L32 667 L32 647 L120 647 L120 20 Z M174 843 L7 732 L13 720 L174 769 L334 720 L340 732 L174 843 Z " />
<glyph glyph-name="Idieresis" unicode="&#xcf;" horiz-adv-x="348" d="M121 20 L33 20 L33 0 L315 0 L315 20 L228 20 L228 647 L315 647 L315 667 L33 667 L33 647 L121 647 L121 20 Z M85 830 C57 830 33 806 33 778 C33 749 56 727 85 727 C114 727 137 749 137 779 C137 807 114 830 85 830 L85 830 Z M264 830 C236 830 212 806 212 778 C212 749 235 727 264 727 C294 727 316 749 316 779 C316 807 293 830 264 830 L264 830 Z " />
<glyph glyph-name="Eth" unicode="&#xd0;" horiz-adv-x="709" d="M121 20 L33 20 L33 0 L298 0 C415 0 462 10 517 47 C612 112 666 216 666 337 C666 440 628 527 554 593 C491 649 429 667 297 667 L33 667 L33 647 L121 647 L121 351 L33 351 L33 331 L121 331 L121 20 Z M228 20 L228 331 L376 331 L376 351 L228 351 L228 647 L295 647 C400 647 437 638 479 601 C524 561 539 499 539 344 C539 190 524 115 488 76 C452 36 397 20 299 20 L228 20 Z " />
<glyph glyph-name="Ntilde" unicode="&#xd1;" horiz-adv-x="701" d="M514 819 C493 790 484 785 459 785 C443 785 424 788 408 794 L364 809 C339 818 327 820 310 820 C258 820 227 798 201 744 L216 734 C233 760 247 768 274 768 C290 768 312 764 331 758 L374 743 C395 736 415 732 428 732 C466 732 500 758 529 810 L514 819 Z M114 20 L26 20 L26 0 L225 0 L225 20 L137 20 L137 628 L568 0 L591 0 L591 647 L678 647 L678 667 L479 667 L479 647 L568 647 L568 196 C539 243 514 281 449 374 L245 667 L26 667 L26 647 L114 647 L114 20 Z " />
<glyph glyph-name="Ograve" unicode="&#xd2;" horiz-adv-x="697" d="M309 837 L208 837 C196 837 192 834 192 826 C192 820 196 817 207 812 L439 720 L447 732 L309 837 Z M349 677 C278 677 211 650 158 599 C85 528 44 434 44 334 C44 248 78 158 135 93 C193 25 267 -10 349 -10 C420 -10 484 16 539 67 C609 133 654 234 654 327 C654 520 517 677 349 677 L349 677 Z M349 654 C411 654 469 626 493 585 C520 538 528 475 528 307 C528 203 516 122 496 88 C469 41 414 13 349 13 C281 13 224 44 199 95 C179 134 171 204 171 329 C171 471 179 534 203 579 C227 625 284 654 349 654 L349 654 Z " />
<glyph glyph-name="Oacute" unicode="&#xd3;" horiz-adv-x="697" d="M428 837 L290 732 L297 720 L529 812 C540 817 544 820 544 826 C544 834 540 837 528 837 L428 837 Z M349 677 C278 677 211 650 158 599 C85 528 44 434 44 334 C44 248 78 158 135 93 C193 25 267 -10 349 -10 C420 -10 484 16 539 67 C609 133 654 234 654 327 C654 520 517 677 349 677 L349 677 Z M349 654 C411 654 469 626 493 585 C520 538 528 475 528 307 C528 203 516 122 496 88 C469 41 414 13 349 13 C281 13 224 44 199 95 C179 134 171 204 171 329 C171 471 179 534 203 579 C227 625 284 654 349 654 L349 654 Z " />
<glyph glyph-name="Ocircumflex" unicode="&#xd4;" horiz-adv-x="697" d="M349 843 L182 732 L188 720 L349 769 L510 720 L516 732 L349 843 Z M349 677 C278 677 211 650 158 599 C85 528 44 434 44 334 C44 248 78 158 135 93 C193 25 267 -10 349 -10 C420 -10 484 16 539 67 C609 133 654 234 654 327 C654 520 517 677 349 677 L349 677 Z M349 654 C411 654 469 626 493 585 C520 538 528 475 528 307 C528 203 516 122 496 88 C469 41 414 13 349 13 C281 13 224 44 199 95 C179 134 171 204 171 329 C171 471 179 534 203 579 C227 625 284 654 349 654 L349 654 Z " />
<glyph glyph-name="Otilde" unicode="&#xd5;" horiz-adv-x="697" d="M505 819 C484 790 475 785 450 785 C434 785 415 788 399 794 L355 809 C330 818 318 820 301 820 C249 820 217 798 192 744 L206 734 C224 760 238 768 265 768 C281 768 303 764 322 758 L364 743 C386 736 406 732 418 732 C457 732 491 758 520 810 L505 819 Z M349 677 C278 677 211 650 158 599 C85 528 44 434 44 334 C44 248 78 158 135 93 C193 25 267 -10 349 -10 C420 -10 484 16 539 67 C609 133 654 234 654 327 C654 520 517 677 349 677 L349 677 Z M349 654 C411 654 469 626 493 585 C520 538 528 475 528 307 C528 203 516 122 496 88 C469 41 414 13 349 13 C281 13 224 44 199 95 C179 134 171 204 171 329 C171 471 179 534 203 579 C227 625 284 654 349 654 L349 654 Z " />
<glyph glyph-name="Odieresis" unicode="&#xd6;" horiz-adv-x="697" d="M239 830 C211 830 187 806 187 777 C187 749 210 727 239 727 C268 727 291 749 291 779 C291 807 268 830 239 830 L239 830 Z M459 830 C431 830 407 806 407 778 C407 749 430 727 459 727 C489 727 511 749 511 779 C511 807 488 830 459 830 L459 830 Z M349 677 C278 677 211 650 158 599 C85 528 44 434 44 334 C44 248 78 158 135 93 C193 25 267 -10 349 -10 C420 -10 484 16 539 67 C609 133 654 234 654 327 C654 520 517 677 349 677 L349 677 Z M349 654 C411 654 469 626 493 585 C520 538 528 475 528 307 C528 203 516 122 496 88 C469 41 414 13 349 13 C281 13 224 44 199 95 C179 134 171 204 171 329 C171 471 179 534 203 579 C227 625 284 654 349 654 L349 654 Z " />
<glyph glyph-name="multiply" unicode="&#xd7;" horiz-adv-x="525" d="M263 298 L416 153 L442 178 L289 323 L442 469 L416 494 L263 348 L110 494 L84 469 L237 323 L84 178 L110 153 L263 298 Z " />
<glyph glyph-name="Oslash" unicode="&#xd8;" horiz-adv-x="697" d="M598 663 L579 675 L530 609 C473 655 416 677 350 677 C277 677 213 651 158 599 C87 532 44 432 44 334 C44 238 81 147 152 74 L99 -2 L117 -14 L168 58 C225 12 282 -10 348 -10 C420 -10 484 16 539 67 C611 134 654 234 654 333 C654 429 615 524 547 592 L598 663 Z M505 542 C521 493 527 437 527 335 C527 195 519 132 495 87 C472 43 415 13 352 13 C281 13 226 45 201 101 L505 542 Z M193 126 C178 169 171 231 171 328 C171 471 179 535 203 580 C226 624 283 654 346 654 C417 654 469 624 496 567 L193 126 Z " />
<glyph glyph-name="Ugrave" unicode="&#xd9;" horiz-adv-x="674" d="M315 837 L214 837 C203 837 199 834 199 826 C199 820 203 816 213 812 L445 720 L453 732 L315 837 Z M544 647 L544 265 C544 147 540 125 517 84 C490 37 442 13 374 13 C311 13 258 39 234 83 C215 118 214 134 214 265 L214 647 L306 647 L306 667 L19 667 L19 647 L107 647 L107 265 C107 160 112 123 132 89 C167 28 250 -10 350 -10 C444 -10 507 19 539 76 C562 119 567 148 567 265 L567 647 L655 647 L655 667 L456 667 L456 647 L544 647 Z " />
<glyph glyph-name="Uacute" unicode="&#xda;" horiz-adv-x="674" d="M460 837 L322 732 L329 720 L561 812 C571 816 576 820 576 826 C576 834 571 837 560 837 L460 837 Z M544 647 L544 265 C544 147 540 125 517 84 C490 37 442 13 374 13 C311 13 258 39 234 83 C215 118 214 134 214 265 L214 647 L306 647 L306 667 L19 667 L19 647 L107 647 L107 265 C107 160 112 123 132 89 C167 28 250 -10 350 -10 C444 -10 507 19 539 76 C562 119 567 148 567 265 L567 647 L655 647 L655 667 L456 667 L456 647 L544 647 Z " />
<glyph glyph-name="Ucircumflex" unicode="&#xdb;" horiz-adv-x="674" d="M361 843 L195 732 L200 720 L361 769 L522 720 L528 732 L361 843 Z M544 647 L544 265 C544 147 540 125 517 84 C490 37 442 13 374 13 C311 13 258 39 234 83 C215 118 214 134 214 265 L214 647 L306 647 L306 667 L19 667 L19 647 L107 647 L107 265 C107 160 112 123 132 89 C167 28 250 -10 350 -10 C444 -10 507 19 539 76 C562 119 567 148 567 265 L567 647 L655 647 L655 667 L456 667 L456 647 L544 647 Z " />
<glyph glyph-name="Udieresis" unicode="&#xdc;" horiz-adv-x="674" d="M251 830 C222 830 199 806 199 777 C199 749 222 727 251 727 C280 727 303 749 303 779 C303 807 279 830 251 830 L251 830 Z M472 830 C443 830 420 806 420 778 C420 749 443 727 472 727 C501 727 524 749 524 779 C524 807 500 830 472 830 L472 830 Z M544 647 L544 265 C544 147 540 125 517 84 C490 37 442 13 374 13 C311 13 258 39 234 83 C215 118 214 134 214 265 L214 647 L306 647 L306 667 L19 667 L19 647 L107 647 L107 265 C107 160 112 123 132 89 C167 28 250 -10 350 -10 C444 -10 507 19 539 76 C562 119 567 148 567 265 L567 647 L655 647 L655 667 L456 667 L456 647 L544 647 Z " />
<glyph glyph-name="Yacute" unicode="&#xdd;" horiz-adv-x="607" d="M422 837 L284 732 L291 720 L523 812 C533 816 538 820 538 826 C538 834 533 837 522 837 L422 837 Z M248 20 L150 20 L150 0 L453 0 L453 20 L355 20 L355 316 C360 324 363 330 366 335 L373 350 C375 354 378 360 382 366 C386 372 390 378 393 384 L541 647 L614 647 L614 667 L409 667 L409 647 L514 647 L344 356 C342 364 338 371 330 384 L173 647 L262 647 L262 667 L-10 667 L-10 647 L44 647 L248 316 L248 20 Z " />
<glyph glyph-name="Thorn" unicode="&#xde;" horiz-adv-x="614" d="M121 20 L33 20 L33 0 L320 0 L320 20 L228 20 L228 203 L303 203 C403 203 448 211 500 239 C553 266 586 319 586 376 C586 433 555 483 501 513 C450 542 415 548 301 548 L228 548 L228 647 L320 647 L320 667 L33 667 L33 647 L121 647 L121 20 Z M228 223 L228 528 L302 528 C436 528 466 500 466 372 C466 317 457 282 436 257 C414 232 381 223 304 223 L228 223 Z " />
<glyph glyph-name="germandbls" unicode="&#xdf;" horiz-adv-x="519" d="M88 20 L18 20 L18 0 L232 0 L232 20 L178 20 L178 208 C178 275 186 307 210 334 C232 357 274 374 311 374 C349 374 373 351 373 317 C373 272 336 244 276 244 C275 244 267 244 262 245 L262 225 C313 224 329 222 348 211 C374 198 393 155 393 113 C393 50 373 13 338 13 C322 13 309 21 309 31 C309 34 310 36 315 41 C324 50 330 63 330 75 C330 97 312 115 290 115 L289 115 C264 115 246 97 246 70 C246 25 290 -10 348 -10 C422 -10 484 46 484 112 C484 179 424 227 330 233 C416 238 465 269 465 319 C465 371 419 403 345 403 C268 403 204 375 178 330 L178 423 C178 528 185 571 208 616 C221 639 249 657 275 657 C289 657 299 649 299 638 C299 636 298 632 295 627 C287 612 284 605 284 597 C284 577 303 562 327 562 C355 562 375 582 375 609 C375 646 335 677 284 677 C212 677 141 625 110 548 C92 504 88 476 88 384 L88 20 Z " />
<glyph glyph-name="agrave" unicode="&#xe0;" horiz-adv-x="465" d="M217 616 L141 616 C135 616 132 613 132 608 C132 605 134 603 137 599 L304 463 L313 473 L217 616 Z M434 35 C416 20 413 19 403 19 C380 19 380 21 380 135 L380 245 C380 325 379 329 366 349 C344 382 292 403 232 403 C145 403 68 356 68 302 C68 277 88 259 114 259 C139 259 158 277 158 301 C158 313 153 321 141 333 C136 337 134 340 134 344 C134 364 178 386 218 386 C247 386 273 375 282 358 C289 345 290 337 290 286 L290 217 C220 216 176 209 137 195 C73 172 39 132 39 83 C39 28 85 -10 151 -10 C209 -10 258 18 290 68 C296 17 326 -10 375 -10 C403 -10 423 -2 447 20 L434 35 Z M290 180 C290 122 284 93 268 72 C248 46 224 34 194 34 C153 34 128 59 128 100 C128 136 147 163 185 181 C210 193 236 198 290 200 L290 180 Z " />
<glyph glyph-name="aacute" unicode="&#xe1;" horiz-adv-x="465" d="M295 616 L198 473 L207 463 L374 599 C377 602 379 605 379 608 C379 613 376 616 370 616 L295 616 Z M434 35 C416 20 413 19 403 19 C380 19 380 21 380 135 L380 245 C380 325 379 329 366 349 C344 382 292 403 232 403 C145 403 68 356 68 302 C68 277 88 259 114 259 C139 259 158 277 158 301 C158 313 153 321 141 333 C136 337 134 340 134 344 C134 364 178 386 218 386 C247 386 273 375 282 358 C289 345 290 337 290 286 L290 217 C220 216 176 209 137 195 C73 172 39 132 39 83 C39 28 85 -10 151 -10 C209 -10 258 18 290 68 C296 17 326 -10 375 -10 C403 -10 423 -2 447 20 L434 35 Z M290 180 C290 122 284 93 268 72 C248 46 224 34 194 34 C153 34 128 59 128 100 C128 136 147 163 185 181 C210 193 236 198 290 200 L290 180 Z " />
<glyph glyph-name="acircumflex" unicode="&#xe2;" horiz-adv-x="465" d="M242 536 L377 463 L385 473 L242 620 L98 474 L106 464 L242 536 Z M434 35 C416 20 413 19 403 19 C380 19 380 21 380 135 L380 245 C380 325 379 329 366 349 C344 382 292 403 232 403 C145 403 68 356 68 302 C68 277 88 259 114 259 C139 259 158 277 158 301 C158 313 153 321 141 333 C136 337 134 340 134 344 C134 364 178 386 218 386 C247 386 273 375 282 358 C289 345 290 337 290 286 L290 217 C220 216 176 209 137 195 C73 172 39 132 39 83 C39 28 85 -10 151 -10 C209 -10 258 18 290 68 C296 17 326 -10 375 -10 C403 -10 423 -2 447 20 L434 35 Z M290 180 C290 122 284 93 268 72 C248 46 224 34 194 34 C153 34 128 59 128 100 C128 136 147 163 185 181 C210 193 236 198 290 200 L290 180 Z " />
<glyph glyph-name="atilde" unicode="&#xe3;" horiz-adv-x="465" d="M382 580 C363 553 355 548 334 548 C319 548 302 551 286 556 L243 571 C217 580 205 582 189 582 C143 582 121 564 96 506 L108 498 C123 523 133 530 154 530 C171 530 190 527 209 520 L252 507 C273 500 292 496 308 496 C341 496 368 519 395 572 L382 580 Z M434 35 C416 20 413 19 403 19 C380 19 380 21 380 135 L380 245 C380 325 379 329 366 349 C344 382 292 403 232 403 C145 403 68 356 68 302 C68 277 88 259 114 259 C139 259 158 277 158 301 C158 313 153 321 141 333 C136 337 134 340 134 344 C134 364 178 386 218 386 C247 386 273 375 282 358 C289 345 290 337 290 286 L290 217 C220 216 176 209 137 195 C73 172 39 132 39 83 C39 28 85 -10 151 -10 C209 -10 258 18 290 68 C296 17 326 -10 375 -10 C403 -10 423 -2 447 20 L434 35 Z M290 180 C290 122 284 93 268 72 C248 46 224 34 194 34 C153 34 128 59 128 100 C128 136 147 163 185 181 C210 193 236 198 290 200 L290 180 Z " />
<glyph glyph-name="adieresis" unicode="&#xe4;" horiz-adv-x="465" d="M147 591 C118 591 94 568 94 541 C94 512 116 490 145 490 C174 490 197 512 197 540 C197 568 174 591 147 591 L147 591 Z M338 591 C309 591 287 569 287 541 C287 512 309 490 339 490 C369 490 390 510 390 539 C390 568 367 591 338 591 L338 591 Z M434 35 C416 20 413 19 403 19 C380 19 380 21 380 135 L380 245 C380 325 379 329 366 349 C344 382 292 403 232 403 C145 403 68 356 68 302 C68 277 88 259 114 259 C139 259 158 277 158 301 C158 313 153 321 141 333 C136 337 134 340 134 344 C134 364 178 386 218 386 C247 386 273 375 282 358 C289 345 290 337 290 286 L290 217 C220 216 176 209 137 195 C73 172 39 132 39 83 C39 28 85 -10 151 -10 C209 -10 258 18 290 68 C296 17 326 -10 375 -10 C403 -10 423 -2 447 20 L434 35 Z M290 180 C290 122 284 93 268 72 C248 46 224 34 194 34 C153 34 128 59 128 100 C128 136 147 163 185 181 C210 193 236 198 290 200 L290 180 Z " />
<glyph glyph-name="aring" unicode="&#xe5;" horiz-adv-x="465" d="M244 615 C202 615 168 581 168 538 C168 496 201 463 244 463 C287 463 320 496 320 537 C320 581 287 615 244 615 L244 615 Z M245 587 C268 587 290 564 290 539 C290 513 268 491 244 491 C219 491 198 513 198 539 C198 565 219 587 245 587 L245 587 Z M434 35 C416 20 413 19 403 19 C380 19 380 21 380 135 L380 245 C380 325 379 329 366 349 C344 382 292 403 232 403 C145 403 68 356 68 302 C68 277 88 259 114 259 C139 259 158 277 158 301 C158 313 153 321 141 333 C136 337 134 340 134 344 C134 364 178 386 218 386 C247 386 273 375 282 358 C289 345 290 337 290 286 L290 217 C220 216 176 209 137 195 C73 172 39 132 39 83 C39 28 85 -10 151 -10 C209 -10 258 18 290 68 C296 17 326 -10 375 -10 C403 -10 423 -2 447 20 L434 35 Z M290 180 C290 122 284 93 268 72 C248 46 224 34 194 34 C153 34 128 59 128 100 C128 136 147 163 185 181 C210 193 236 198 290 200 L290 180 Z " />
<glyph glyph-name="ae" unicode="&#xe6;" horiz-adv-x="658" d="M630 228 C623 278 614 305 593 335 C563 377 507 403 446 403 C399 403 372 392 340 359 C307 390 272 403 224 403 C140 403 67 354 67 299 C67 275 85 257 109 257 C133 257 152 275 152 299 C152 311 148 319 136 334 C133 338 131 341 131 344 C131 361 173 379 211 379 C239 379 260 365 264 343 C267 329 268 322 269 241 L269 218 C132 217 39 162 39 82 C39 27 82 -10 146 -10 C186 -10 228 5 252 28 C266 41 275 56 289 87 C329 25 391 -10 460 -10 C539 -10 601 45 622 133 L599 133 C571 54 524 13 462 13 C438 13 415 22 396 38 C373 57 363 94 363 157 C363 183 363 197 362 228 L630 228 Z M520 248 L362 248 L362 253 L362 255 L362 267 L362 280 C362 314 364 330 372 345 C381 364 412 379 443 379 C471 379 496 367 507 349 C516 334 519 313 520 260 L520 248 Z M270 168 C270 109 262 73 246 57 C232 42 217 35 201 35 C168 35 146 61 146 101 C146 158 187 191 269 200 L270 168 Z " />
<glyph glyph-name="ccedilla" unicode="&#xe7;" horiz-adv-x="428" d="M238 -10 C319 -10 379 38 411 127 L384 127 C357 53 308 13 242 13 C204 13 172 29 159 54 C147 77 143 106 143 176 C143 268 154 330 174 351 C192 370 219 380 250 380 C286 380 327 363 327 349 C327 346 326 345 323 342 C307 327 298 310 298 294 C298 268 318 248 346 248 C375 248 395 269 395 299 C395 355 327 403 248 403 C134 403 37 308 37 194 C37 93 116 4 217 -9 L199 -60 C242 -75 256 -89 256 -117 C256 -145 236 -162 204 -162 C182 -162 158 -152 158 -143 L159 -136 C160 -133 161 -129 161 -125 C161 -110 152 -98 140 -98 C130 -98 123 -106 123 -117 C123 -152 163 -178 217 -178 C279 -178 324 -147 324 -106 C324 -74 290 -52 243 -52 L223 -52 L238 -10 Z " />
<glyph glyph-name="egrave" unicode="&#xe8;" horiz-adv-x="446" d="M193 616 L118 616 C112 616 109 613 109 608 C109 605 111 602 114 599 L281 463 L290 473 L193 616 Z M418 229 C412 334 339 403 236 403 C129 403 37 307 37 197 C37 87 132 -10 240 -10 C324 -10 394 48 410 132 L386 132 C366 58 312 13 243 13 C196 13 160 39 152 78 C147 100 146 129 146 209 L146 229 L418 229 Z M146 249 C146 310 146 310 150 323 C158 359 189 380 233 380 C270 380 293 365 303 334 C308 318 309 310 309 249 L146 249 Z " />
<glyph glyph-name="eacute" unicode="&#xe9;" horiz-adv-x="446" d="M302 616 L205 473 L215 463 L381 599 C384 602 386 605 386 608 C386 613 383 616 377 616 L302 616 Z M418 229 C412 334 339 403 236 403 C129 403 37 307 37 197 C37 87 132 -10 240 -10 C324 -10 394 48 410 132 L386 132 C366 58 312 13 243 13 C196 13 160 39 152 78 C147 100 146 129 146 209 L146 229 L418 229 Z M146 249 C146 310 146 310 150 323 C158 359 189 380 233 380 C270 380 293 365 303 334 C308 318 309 310 309 249 L146 249 Z " />
<glyph glyph-name="ecircumflex" unicode="&#xea;" horiz-adv-x="446" d="M243 536 L379 463 L387 473 L243 620 L100 474 L108 464 L243 536 Z M418 229 C412 334 339 403 236 403 C129 403 37 307 37 197 C37 87 132 -10 240 -10 C324 -10 394 48 410 132 L386 132 C366 58 312 13 243 13 C196 13 160 39 152 78 C147 100 146 129 146 209 L146 229 L418 229 Z M146 249 C146 310 146 310 150 323 C158 359 189 380 233 380 C270 380 293 365 303 334 C308 318 309 310 309 249 L146 249 Z " />
<glyph glyph-name="edieresis" unicode="&#xeb;" horiz-adv-x="446" d="M148 591 C118 591 95 568 95 540 C95 512 117 490 146 490 C175 490 198 512 198 540 C198 568 175 591 148 591 L148 591 Z M339 591 C310 591 288 569 288 541 C288 512 310 490 340 490 C370 490 391 510 391 539 C391 568 368 591 339 591 L339 591 Z M418 229 C412 334 339 403 236 403 C129 403 37 307 37 197 C37 87 132 -10 240 -10 C324 -10 394 48 410 132 L386 132 C366 58 312 13 243 13 C196 13 160 39 152 78 C147 100 146 129 146 209 L146 229 L418 229 Z M146 249 C146 310 146 310 150 323 C158 359 189 380 233 380 C270 380 293 365 303 334 C308 318 309 310 309 249 L146 249 Z " />
<glyph glyph-name="igrave" unicode="&#xec;" horiz-adv-x="284" d="M106 20 L31 20 L31 0 L266 0 L266 20 L196 20 L196 393 L31 393 L31 373 L106 373 L106 20 Z M104 616 L29 616 C23 616 20 613 20 608 C20 605 22 602 25 599 L192 463 L201 473 L104 616 Z " />
<glyph glyph-name="iacute" unicode="&#xed;" horiz-adv-x="284" d="M107 20 L32 20 L32 0 L267 0 L267 20 L197 20 L197 393 L32 393 L32 373 L107 373 L107 20 Z M207 616 L110 473 L119 463 L286 599 C289 602 291 605 291 608 C291 613 288 616 282 616 L207 616 Z " />
<glyph glyph-name="icircumflex" unicode="&#xee;" horiz-adv-x="283" d="M106 20 L31 20 L31 0 L266 0 L266 20 L196 20 L196 393 L31 393 L31 373 L106 373 L106 20 Z M141 536 L277 463 L285 473 L141 620 L-2 474 L6 464 L141 536 Z " />
<glyph glyph-name="idieresis" unicode="&#xef;" horiz-adv-x="284" d="M106 20 L31 20 L31 0 L266 0 L266 20 L196 20 L196 393 L31 393 L31 373 L106 373 L106 20 Z M64 591 C35 591 11 568 11 541 C11 512 33 490 62 490 C91 490 114 512 114 540 C114 568 91 591 64 591 L64 591 Z M220 591 C191 591 169 569 169 541 C169 512 191 490 221 490 C251 490 272 510 272 539 C272 568 249 591 220 591 L220 591 Z " />
<glyph glyph-name="eth" unicode="&#xf0;" horiz-adv-x="498" d="M158 541 L169 524 L249 578 C291 518 316 461 333 388 C297 399 278 403 250 403 C132 403 37 311 37 197 C37 83 133 -10 250 -10 C371 -10 462 82 462 204 C462 331 403 455 275 594 L357 649 L344 665 L261 610 C229 643 201 667 163 695 L152 682 C180 657 204 632 237 595 L158 541 Z M355 197 L356 149 C357 104 352 73 343 56 C327 27 296 13 249 13 C211 13 185 22 166 43 C146 64 144 79 144 197 C144 309 146 327 162 346 C182 370 208 380 250 380 C323 380 354 348 355 272 L355 197 Z " />
<glyph glyph-name="ntilde" unicode="&#xf1;" horiz-adv-x="552" d="M431 580 C412 553 404 548 383 548 C368 548 351 551 335 556 L292 571 C266 580 254 582 238 582 C192 582 170 564 145 506 L157 498 C172 523 182 530 203 530 C220 530 239 527 258 520 L301 507 C322 500 341 496 357 496 C390 496 417 519 444 572 L431 580 Z M102 20 L32 20 L32 0 L259 0 L259 20 L192 20 L192 139 C192 249 197 294 213 324 C228 351 267 373 301 373 C326 373 350 360 360 341 C372 317 375 281 375 174 L375 20 L308 20 L308 0 L535 0 L535 20 L465 20 L465 242 C465 303 462 324 450 345 C429 381 382 403 327 403 C269 403 228 384 192 341 L192 393 L32 393 L32 373 L102 373 L102 20 Z " />
<glyph glyph-name="ograve" unicode="&#xf2;" horiz-adv-x="498" d="M225 616 L150 616 C144 616 141 613 141 608 C141 605 143 602 146 599 L312 463 L322 473 L225 616 Z M250 403 C132 403 37 311 37 197 C37 82 132 -10 250 -10 C366 -10 462 82 462 194 C462 311 369 403 250 403 L250 403 Z M355 197 L356 149 C357 104 352 73 343 56 C327 27 296 13 249 13 C211 13 185 22 166 43 C146 64 144 79 144 197 C144 309 146 327 162 346 C182 370 208 380 250 380 C323 380 354 348 355 272 L355 197 Z " />
<glyph glyph-name="oacute" unicode="&#xf3;" horiz-adv-x="498" d="M318 616 L222 473 L231 463 L397 599 C400 602 402 605 402 608 C402 613 399 616 393 616 L318 616 Z M250 403 C132 403 37 311 37 197 C37 82 132 -10 250 -10 C366 -10 462 82 462 194 C462 311 369 403 250 403 L250 403 Z M355 197 L356 149 C357 104 352 73 343 56 C327 27 296 13 249 13 C211 13 185 22 166 43 C146 64 144 79 144 197 C144 309 146 327 162 346 C182 370 208 380 250 380 C323 380 354 348 355 272 L355 197 Z " />
<glyph glyph-name="ocircumflex" unicode="&#xf4;" horiz-adv-x="498" d="M249 536 L385 463 L393 473 L249 620 L106 474 L114 464 L249 536 Z M250 403 C132 403 37 311 37 197 C37 82 132 -10 250 -10 C366 -10 462 82 462 194 C462 311 369 403 250 403 L250 403 Z M355 197 L356 149 C357 104 352 73 343 56 C327 27 296 13 249 13 C211 13 185 22 166 43 C146 64 144 79 144 197 C144 309 146 327 162 346 C182 370 208 380 250 380 C323 380 354 348 355 272 L355 197 Z " />
<glyph glyph-name="otilde" unicode="&#xf5;" horiz-adv-x="498" d="M393 580 C374 553 366 548 346 548 C330 548 314 551 298 556 L254 571 C228 580 217 582 200 582 C154 582 132 564 107 506 L120 498 C134 523 144 530 165 530 C182 530 202 527 221 520 L263 507 C284 500 304 496 319 496 C352 496 379 519 406 572 L393 580 Z M250 403 C132 403 37 311 37 197 C37 82 132 -10 250 -10 C366 -10 462 82 462 194 C462 311 369 403 250 403 L250 403 Z M355 197 L356 149 C357 104 352 73 343 56 C327 27 296 13 249 13 C211 13 185 22 166 43 C146 64 144 79 144 197 C144 309 146 327 162 346 C182 370 208 380 250 380 C323 380 354 348 355 272 L355 197 Z " />
<glyph glyph-name="odieresis" unicode="&#xf6;" horiz-adv-x="498" d="M155 591 C126 591 102 568 102 541 C102 512 124 490 153 490 C182 490 205 512 205 540 C205 568 182 591 155 591 L155 591 Z M346 591 C317 591 295 569 295 541 C295 512 317 490 347 490 C377 490 398 510 398 539 C398 568 375 591 346 591 L346 591 Z M250 403 C132 403 37 311 37 197 C37 82 132 -10 250 -10 C366 -10 462 82 462 194 C462 311 369 403 250 403 L250 403 Z M355 197 L356 149 C357 104 352 73 343 56 C327 27 296 13 249 13 C211 13 185 22 166 43 C146 64 144 79 144 197 C144 309 146 327 162 346 C182 370 208 380 250 380 C323 380 354 348 355 272 L355 197 Z " />
<glyph glyph-name="divide" unicode="&#xf7;" horiz-adv-x="525" d="M49 306 L476 306 L476 341 L49 341 L49 306 Z M262 537 C228 537 200 510 200 478 C200 446 227 420 261 420 C296 420 324 446 324 479 C324 510 296 537 264 537 L262 537 Z M263 230 C229 230 201 203 201 171 C201 139 228 113 262 113 C297 113 325 139 325 171 C325 203 297 230 265 230 L263 230 Z " />
<glyph glyph-name="oslash" unicode="&#xf8;" horiz-adv-x="498" d="M69 1 L84 -12 L121 32 C159 4 202 -10 250 -10 C367 -10 462 82 462 197 C462 255 435 313 391 351 L429 395 L413 406 L376 363 C339 389 297 403 250 403 C132 403 37 311 37 197 C37 139 62 84 106 44 L69 1 Z M146 92 C144 111 144 124 144 175 C144 300 145 313 157 338 C169 364 205 380 250 380 C301 380 334 362 347 328 L146 92 Z M352 305 C355 285 355 268 355 186 C355 99 353 74 342 56 C327 28 295 13 249 13 C197 13 163 32 151 68 L352 305 Z " />
<glyph glyph-name="ugrave" unicode="&#xf9;" horiz-adv-x="557" d="M243 616 L168 616 C162 616 159 613 159 608 C159 605 160 602 164 599 L330 463 L340 473 L243 616 Z M462 393 L297 393 L297 373 L372 373 L372 233 C372 128 368 101 349 66 C332 33 294 13 250 13 C222 13 201 22 193 37 C184 52 183 74 183 160 L183 393 L18 393 L18 373 L93 373 L93 160 C93 93 96 70 108 47 C129 11 175 -10 234 -10 C298 -10 342 11 372 55 L372 0 L532 0 L532 20 L462 20 L462 393 Z " />
<glyph glyph-name="uacute" unicode="&#xfa;" horiz-adv-x="557" d="M341 616 L244 473 L254 463 L420 599 C424 603 426 605 426 608 C426 613 422 616 416 616 L341 616 Z M462 393 L297 393 L297 373 L372 373 L372 233 C372 128 368 101 349 66 C332 33 294 13 250 13 C222 13 201 22 193 37 C184 52 183 74 183 160 L183 393 L18 393 L18 373 L93 373 L93 160 C93 93 96 70 108 47 C129 11 175 -10 234 -10 C298 -10 342 11 372 55 L372 0 L532 0 L532 20 L462 20 L462 393 Z " />
<glyph glyph-name="ucircumflex" unicode="&#xfb;" horiz-adv-x="557" d="M282 536 L418 463 L425 473 L282 620 L139 474 L147 464 L282 536 Z M462 393 L297 393 L297 373 L372 373 L372 233 C372 128 368 101 349 66 C332 33 294 13 250 13 C222 13 201 22 193 37 C184 52 183 74 183 160 L183 393 L18 393 L18 373 L93 373 L93 160 C93 93 96 70 108 47 C129 11 175 -10 234 -10 C298 -10 342 11 372 55 L372 0 L532 0 L532 20 L462 20 L462 393 Z " />
<glyph glyph-name="udieresis" unicode="&#xfc;" horiz-adv-x="557" d="M182 591 C153 591 130 568 130 541 C130 512 152 490 181 490 C210 490 233 512 233 540 C233 568 209 591 182 591 L182 591 Z M374 591 C345 591 323 569 323 541 C323 512 345 490 374 490 C405 490 426 510 426 539 C426 568 402 591 374 591 L374 591 Z M462 393 L297 393 L297 373 L372 373 L372 233 C372 128 368 101 349 66 C332 33 294 13 250 13 C222 13 201 22 193 37 C184 52 183 74 183 160 L183 393 L18 393 L18 373 L93 373 L93 160 C93 93 96 70 108 47 C129 11 175 -10 234 -10 C298 -10 342 11 372 55 L372 0 L532 0 L532 20 L462 20 L462 393 Z " />
<glyph glyph-name="yacute" unicode="&#xfd;" horiz-adv-x="430" d="M304 616 L208 473 L217 463 L383 599 C386 602 388 605 388 608 C388 613 385 616 379 616 L304 616 Z M391 373 L433 373 L433 393 L280 393 L280 373 L362 373 L265 117 L148 373 L221 373 L221 393 L-2 393 L-2 373 L43 373 L221 0 L163 -148 C143 -197 140 -201 129 -201 C124 -201 121 -199 114 -190 C102 -176 88 -169 70 -169 C40 -169 19 -189 19 -216 C19 -244 44 -265 80 -265 C125 -265 157 -234 185 -159 L391 373 Z " />
<glyph glyph-name="thorn" unicode="&#xfe;" horiz-adv-x="519" d="M87 -247 L17 -247 L17 -267 L252 -267 L252 -247 L177 -247 L177 78 C206 18 246 -10 302 -10 C399 -10 482 88 482 204 C482 314 404 403 307 403 C249 403 205 375 177 320 L177 667 L17 667 L17 647 L87 647 L87 -247 Z M301 380 C327 380 350 367 361 347 C371 329 376 290 376 230 C376 120 372 79 356 46 C346 25 325 13 299 13 C227 13 180 86 180 200 C180 250 189 291 205 320 C227 357 263 380 301 380 L301 380 Z " />
<glyph glyph-name="ydieresis" unicode="&#xff;" horiz-adv-x="430" d="M139 591 C110 591 86 568 86 541 C86 512 108 490 137 490 C166 490 189 512 189 540 C189 568 166 591 139 591 L139 591 Z M330 591 C301 591 279 569 279 541 C279 512 301 490 331 490 C361 490 382 510 382 539 C382 568 359 591 330 591 L330 591 Z M391 373 L433 373 L433 393 L280 393 L280 373 L362 373 L265 117 L148 373 L221 373 L221 393 L-2 393 L-2 373 L43 373 L221 0 L163 -148 C143 -197 140 -201 129 -201 C124 -201 121 -199 114 -190 C102 -176 88 -169 70 -169 C40 -169 19 -189 19 -216 C19 -244 44 -265 80 -265 C125 -265 157 -234 185 -159 L391 373 Z " />
<glyph glyph-name="Amacron" unicode="&#x100;" horiz-adv-x="616" d="M361 215 L430 20 L339 20 L339 0 L623 0 L623 20 L549 20 L323 667 L292 667 L55 20 L4 20 L4 0 L174 0 L174 20 L83 20 L151 215 L361 215 Z M355 235 L158 235 L257 512 L355 235 Z M148 785 L148 750 L462 750 L462 785 L148 785 Z " />
<glyph glyph-name="amacron" unicode="&#x101;" horiz-adv-x="465" d="M434 35 C416 20 413 19 403 19 C380 19 380 21 380 135 L380 245 C380 325 379 329 366 349 C344 382 292 403 232 403 C145 403 68 356 68 302 C68 277 88 259 114 259 C139 259 158 277 158 301 C158 313 153 321 141 333 C136 337 134 340 134 344 C134 364 178 386 218 386 C247 386 273 375 282 358 C289 345 290 337 290 286 L290 217 C220 216 176 209 137 195 C73 172 39 132 39 83 C39 28 85 -10 151 -10 C209 -10 258 18 290 68 C296 17 326 -10 375 -10 C403 -10 423 -2 447 20 L434 35 Z M290 180 C290 122 284 93 268 72 C248 46 224 34 194 34 C153 34 128 59 128 100 C128 136 147 163 185 181 C210 193 236 198 290 200 L290 180 Z M98 544 L98 510 L375 510 L375 544 L98 544 Z " />
<glyph glyph-name="Abreve" unicode="&#x102;" horiz-adv-x="616" d="M361 215 L430 20 L339 20 L339 0 L623 0 L623 20 L549 20 L323 667 L292 667 L55 20 L4 20 L4 0 L174 0 L174 20 L83 20 L151 215 L361 215 Z M355 235 L158 235 L257 512 L355 235 Z M161 843 C172 765 223 723 307 723 C392 723 442 764 454 843 L440 843 C431 825 425 816 415 808 C393 790 354 779 307 779 C260 779 221 790 199 808 C189 817 183 825 175 843 L161 843 Z " />
<glyph glyph-name="abreve" unicode="&#x103;" horiz-adv-x="465" d="M434 35 C416 20 413 19 403 19 C380 19 380 21 380 135 L380 245 C380 325 379 329 366 349 C344 382 292 403 232 403 C145 403 68 356 68 302 C68 277 88 259 114 259 C139 259 158 277 158 301 C158 313 153 321 141 333 C136 337 134 340 134 344 C134 364 178 386 218 386 C247 386 273 375 282 358 C289 345 290 337 290 286 L290 217 C220 216 176 209 137 195 C73 172 39 132 39 83 C39 28 85 -10 151 -10 C209 -10 258 18 290 68 C296 17 326 -10 375 -10 C403 -10 423 -2 447 20 L434 35 Z M290 180 C290 122 284 93 268 72 C248 46 224 34 194 34 C153 34 128 59 128 100 C128 136 147 163 185 181 C210 193 236 198 290 200 L290 180 Z M362 613 C343 559 300 528 241 528 C183 528 140 559 124 613 L111 613 C116 526 168 467 243 467 C319 467 371 525 375 613 L362 613 Z " />
<glyph glyph-name="Aogonek" unicode="&#x104;" horiz-adv-x="616" d="M623 0 L623 20 L549 20 L323 667 L292 667 L55 20 L4 20 L4 0 L174 0 L174 20 L83 20 L151 215 L361 215 L430 20 L339 20 L339 0 L531 0 C464 -26 432 -58 432 -100 C432 -140 465 -165 519 -165 C550 -165 574 -159 606 -144 L606 -127 C584 -134 572 -136 555 -136 C516 -136 493 -118 493 -87 C493 -55 515 -29 564 0 L623 0 Z M355 235 L158 235 L257 512 L355 235 Z " />
<glyph glyph-name="aogonek" unicode="&#x105;" horiz-adv-x="465" d="M434 35 C416 20 413 19 403 19 C380 19 380 21 380 135 L380 245 C380 325 379 329 366 349 C344 382 292 403 232 403 C145 403 68 356 68 302 C68 277 88 259 114 259 C139 259 158 277 158 301 C158 313 153 321 141 333 C136 337 134 340 134 344 C134 364 178 386 218 386 C247 386 273 375 282 358 C289 345 290 337 290 286 L290 217 C220 216 176 209 137 195 C73 172 39 132 39 83 C39 28 85 -10 151 -10 C209 -10 258 18 290 68 C294 25 318 -2 360 -9 C310 -31 284 -62 284 -98 C284 -137 317 -162 369 -162 C399 -162 424 -156 454 -141 L454 -124 C433 -131 422 -133 405 -133 C367 -133 344 -115 344 -85 C344 -57 365 -30 404 -6 C421 0 430 5 447 20 L434 35 Z M290 180 C290 122 284 93 268 72 C248 46 224 34 194 34 C153 34 128 59 128 100 C128 136 147 163 185 181 C210 193 236 198 290 200 L290 180 Z " />
<glyph glyph-name="Cacute" unicode="&#x106;" horiz-adv-x="614" d="M568 189 L552 189 C508 70 440 13 344 13 C279 13 219 43 197 85 C177 125 170 182 170 304 C170 480 184 563 220 603 C250 635 300 654 353 654 C453 654 524 596 552 491 L568 491 L568 667 L552 667 L517 620 C465 658 409 677 351 677 C283 677 212 648 156 596 C84 531 44 436 44 332 C44 144 179 -10 344 -10 C402 -10 458 9 517 48 L552 0 L568 0 L568 189 Z M430 837 L292 732 L299 720 L532 812 C542 816 546 820 546 826 C546 834 542 837 530 837 L430 837 Z " />
<glyph glyph-name="cacute" unicode="&#x107;" horiz-adv-x="428" d="M384 127 C357 53 308 13 242 13 C204 13 172 29 159 54 C147 77 143 106 143 176 C143 268 154 330 174 351 C192 370 219 380 250 380 C286 380 327 363 327 349 C327 346 326 345 323 342 C307 327 298 310 298 294 C298 268 318 248 346 248 C375 248 395 269 395 299 C395 355 328 403 248 403 C134 403 37 308 37 194 C37 84 130 -10 239 -10 C320 -10 375 34 411 127 L384 127 Z M293 616 L196 473 L205 463 L372 599 C375 602 377 605 377 608 C377 613 374 616 368 616 L293 616 Z " />
<glyph glyph-name="Ccircumflex" unicode="&#x108;" horiz-adv-x="614" d="M568 189 L552 189 C508 70 440 13 344 13 C279 13 219 43 197 85 C177 125 170 182 170 304 C170 480 184 563 220 603 C250 635 300 654 353 654 C453 654 524 596 552 491 L568 491 L568 667 L552 667 L517 620 C465 658 409 677 351 677 C283 677 212 648 156 596 C84 531 44 436 44 332 C44 144 179 -10 344 -10 C402 -10 458 9 517 48 L552 0 L568 0 L568 189 Z M355 843 L188 732 L194 720 L355 769 L515 720 L521 732 L355 843 Z " />
<glyph glyph-name="Cdotaccent" unicode="&#x10a;" horiz-adv-x="614" d="M568 189 L552 189 C508 70 440 13 344 13 C279 13 219 43 197 85 C177 125 170 182 170 304 C170 480 184 563 220 603 C250 635 300 654 353 654 C453 654 524 596 552 491 L568 491 L568 667 L552 667 L517 620 C465 658 409 677 351 677 C283 677 212 648 156 596 C84 531 44 436 44 332 C44 144 179 -10 344 -10 C402 -10 458 9 517 48 L552 0 L568 0 L568 189 Z M352 832 C323 832 299 808 299 779 C299 750 322 727 352 727 C382 727 405 750 405 780 C405 808 381 832 352 832 L352 832 Z " />
<glyph glyph-name="cdotaccent" unicode="&#x10b;" horiz-adv-x="428" d="M384 127 C357 53 308 13 242 13 C204 13 172 29 159 54 C147 77 143 106 143 176 C143 268 154 330 174 351 C192 370 219 380 250 380 C286 380 327 363 327 349 C327 346 326 345 323 342 C307 327 298 310 298 294 C298 268 318 248 346 248 C375 248 395 269 395 299 C395 355 328 403 248 403 C134 403 37 308 37 194 C37 84 130 -10 239 -10 C320 -10 375 34 411 127 L384 127 Z M242 592 C213 592 191 570 191 541 C191 512 213 490 243 490 C274 490 295 510 295 540 C295 569 272 592 242 592 L242 592 Z " />
<glyph glyph-name="Ccaron" unicode="&#x10c;" horiz-adv-x="614" d="M568 189 L552 189 C508 70 440 13 344 13 C279 13 219 43 197 85 C177 125 170 182 170 304 C170 480 184 563 220 603 C250 635 300 654 353 654 C453 654 524 596 552 491 L568 491 L568 667 L552 667 L517 620 C465 658 409 677 351 677 C283 677 212 648 156 596 C84 531 44 436 44 332 C44 144 179 -10 344 -10 C402 -10 458 9 517 48 L552 0 L568 0 L568 189 Z M350 720 L517 832 L511 843 L350 795 L190 843 L184 832 L350 720 Z " />
<glyph glyph-name="ccaron" unicode="&#x10d;" horiz-adv-x="428" d="M384 127 C357 53 308 13 242 13 C204 13 172 29 159 54 C147 77 143 106 143 176 C143 268 154 330 174 351 C192 370 219 380 250 380 C286 380 327 363 327 349 C327 346 326 345 323 342 C307 327 298 310 298 294 C298 268 318 248 346 248 C375 248 395 269 395 299 C395 355 328 403 248 403 C134 403 37 308 37 194 C37 84 130 -10 239 -10 C320 -10 375 34 411 127 L384 127 Z M239 547 L103 620 L95 610 L239 463 L382 610 L374 620 L239 547 Z " />
<glyph glyph-name="Dcaron" unicode="&#x10e;" horiz-adv-x="709" d="M121 20 L33 20 L33 0 L278 0 C416 0 468 12 529 58 C617 124 665 223 665 337 C665 440 626 528 551 594 C485 652 427 667 268 667 L33 667 L33 647 L121 647 L121 20 Z M228 20 L228 647 L270 647 C323 647 349 646 366 644 C414 639 456 623 481 600 C524 561 539 498 539 357 C539 148 521 84 453 48 C406 24 382 20 277 20 L228 20 Z M332 720 L499 832 L493 843 L332 795 L172 843 L166 832 L332 720 Z " />
<glyph glyph-name="dcaron" unicode="&#x10f;" horiz-adv-x="604" d="M430 667 L266 667 L266 647 L340 647 L340 322 C306 377 266 403 215 403 C116 403 37 312 37 198 C37 84 118 -10 217 -10 C272 -10 316 21 340 76 L340 0 L500 0 L500 20 L430 20 L430 667 Z M220 380 C254 380 289 356 311 317 C329 287 338 246 338 198 C338 91 288 13 220 13 C196 13 168 29 158 50 C146 75 143 105 143 222 C143 298 151 340 168 357 C183 372 201 380 220 380 L220 380 Z M519 457 C576 496 604 537 604 583 C604 632 571 667 526 667 C489 667 461 643 461 611 C461 584 481 564 509 564 C536 564 555 582 555 607 C555 608 555 613 554 616 C569 607 577 593 577 575 C577 539 556 510 504 475 L519 457 Z " />
<glyph glyph-name="Dcroat" unicode="&#x110;" horiz-adv-x="709" d="M121 20 L33 20 L33 0 L298 0 C415 0 462 10 517 47 C612 112 666 216 666 337 C666 440 628 527 554 593 C491 649 429 667 297 667 L33 667 L33 647 L121 647 L121 351 L33 351 L33 331 L121 331 L121 20 Z M228 20 L228 331 L376 331 L376 351 L228 351 L228 647 L295 647 C400 647 437 638 479 601 C524 561 539 499 539 344 C539 190 524 115 488 76 C452 36 397 20 299 20 L228 20 Z " />
<glyph glyph-name="dcroat" unicode="&#x111;" horiz-adv-x="518" d="M430 557 L430 667 L266 667 L266 647 L340 647 L340 557 L164 557 L164 537 L340 537 L340 322 C306 377 266 403 215 403 C116 403 37 312 37 198 C37 84 118 -10 217 -10 C272 -10 316 21 340 76 L340 0 L500 0 L500 20 L430 20 L430 537 L501 537 L501 557 L430 557 Z M220 380 C254 380 289 356 311 317 C329 287 338 246 338 198 C338 91 288 13 220 13 C196 13 168 29 158 50 C146 75 143 105 143 222 C143 298 151 340 168 357 C183 372 201 380 220 380 L220 380 Z " />
<glyph glyph-name="Emacron" unicode="&#x112;" horiz-adv-x="613" d="M121 20 L33 20 L33 0 L554 0 L574 208 L560 208 C534 121 523 95 494 60 C458 23 445 19 365 20 L228 20 L228 328 L265 328 C331 328 360 314 374 276 C380 259 381 250 385 196 L400 196 L400 471 L385 471 C382 361 363 346 228 347 L228 647 L311 647 C453 652 497 620 531 484 L545 484 L537 667 L33 667 L33 647 L121 647 L121 20 Z M166 785 L166 750 L479 750 L479 785 L166 785 Z " />
<glyph glyph-name="emacron" unicode="&#x113;" horiz-adv-x="446" d="M418 229 C412 334 339 403 236 403 C129 403 37 307 37 197 C37 87 132 -10 240 -10 C324 -10 394 48 410 132 L386 132 C366 58 312 13 243 13 C196 13 160 39 152 78 C147 100 146 129 146 209 L146 229 L418 229 Z M146 249 C146 310 146 310 150 323 C158 359 189 380 233 380 C270 380 293 365 303 334 C308 318 309 310 309 249 L146 249 Z M94 544 L94 510 L370 510 L370 544 L94 544 Z " />
<glyph glyph-name="Ebreve" unicode="&#x114;" horiz-adv-x="613" d="M121 20 L33 20 L33 0 L554 0 L574 208 L560 208 C534 121 523 95 494 60 C458 23 445 19 365 20 L228 20 L228 328 L265 328 C331 328 360 314 374 276 C380 259 381 250 385 196 L400 196 L400 471 L385 471 C382 361 363 346 228 347 L228 647 L311 647 C453 652 497 620 531 484 L545 484 L537 667 L33 667 L33 647 L121 647 L121 20 Z M178 843 C189 765 240 723 324 723 C409 723 459 764 471 843 L457 843 C448 825 442 816 432 808 C410 790 371 779 324 779 C277 779 238 790 216 808 C206 817 200 825 192 843 L178 843 Z " />
<glyph glyph-name="ebreve" unicode="&#x115;" horiz-adv-x="446" d="M418 229 C412 334 339 403 236 403 C129 403 37 307 37 197 C37 87 132 -10 240 -10 C324 -10 394 48 410 132 L386 132 C366 58 312 13 243 13 C196 13 160 39 152 78 C147 100 146 129 146 209 L146 229 L418 229 Z M146 249 C146 310 146 310 150 323 C158 359 189 380 233 380 C270 380 293 365 303 334 C308 318 309 310 309 249 L146 249 Z M361 613 C342 559 299 528 241 528 C182 528 140 559 124 613 L111 613 C115 526 168 467 243 467 C318 467 371 525 374 613 L361 613 Z " />
<glyph glyph-name="Edotaccent" unicode="&#x116;" horiz-adv-x="613" d="M121 20 L33 20 L33 0 L554 0 L574 208 L560 208 C534 121 523 95 494 60 C458 23 445 19 365 20 L228 20 L228 328 L265 328 C331 328 360 314 374 276 C380 259 381 250 385 196 L400 196 L400 471 L385 471 C382 361 363 346 228 347 L228 647 L311 647 C453 652 497 620 531 484 L545 484 L537 667 L33 667 L33 647 L121 647 L121 20 Z M325 832 C296 832 272 808 272 779 C272 750 295 727 325 727 C355 727 378 750 378 780 C378 808 353 832 325 832 L325 832 Z " />
<glyph glyph-name="edotaccent" unicode="&#x117;" horiz-adv-x="446" d="M418 229 C412 334 339 403 236 403 C129 403 37 307 37 197 C37 87 132 -10 240 -10 C324 -10 394 48 410 132 L386 132 C366 58 312 13 243 13 C196 13 160 39 152 78 C147 100 146 129 146 209 L146 229 L418 229 Z M146 249 C146 310 146 310 150 323 C158 359 189 380 233 380 C270 380 293 365 303 334 C308 318 309 310 309 249 L146 249 Z M240 592 C211 592 189 570 189 541 C189 512 211 490 241 490 C272 490 293 510 293 540 C293 569 270 592 240 592 L240 592 Z " />
<glyph glyph-name="Eogonek" unicode="&#x118;" horiz-adv-x="613" d="M554 0 L574 208 L560 208 C534 121 523 95 494 60 C458 23 445 19 365 20 L228 20 L228 328 L265 328 C331 328 360 314 374 276 C380 259 381 250 385 196 L400 196 L400 471 L385 471 C382 361 363 346 228 347 L228 647 L311 647 C453 652 497 620 531 484 L545 484 L537 667 L33 667 L33 647 L121 647 L121 20 L33 20 L33 0 L477 0 C409 -26 378 -58 378 -100 C378 -140 411 -165 464 -165 C495 -165 520 -159 551 -144 L551 -127 C530 -134 517 -136 500 -136 C462 -136 439 -118 439 -87 C439 -55 460 -29 510 0 L554 0 Z " />
<glyph glyph-name="eogonek" unicode="&#x119;" horiz-adv-x="446" d="M374 -124 C353 -131 342 -133 325 -133 C286 -133 264 -115 264 -84 C264 -53 284 -23 331 15 C380 53 402 84 410 132 L386 132 C366 58 312 13 243 13 C196 13 160 39 152 78 C147 100 146 129 146 209 L146 229 L418 229 C412 334 339 403 236 403 C129 403 37 307 37 197 C37 87 132 -10 240 -10 C252 -10 261 -9 274 -7 C227 -32 204 -62 204 -98 C204 -137 237 -162 289 -162 C319 -162 344 -156 374 -141 L374 -124 Z M146 249 C146 310 146 310 150 323 C158 359 189 380 233 380 C270 380 293 365 303 334 C308 318 309 310 309 249 L146 249 Z " />
<glyph glyph-name="Ecaron" unicode="&#x11a;" horiz-adv-x="613" d="M121 20 L33 20 L33 0 L554 0 L574 208 L560 208 C534 121 523 95 494 60 C458 23 445 19 365 20 L228 20 L228 328 L265 328 C331 328 360 314 374 276 C380 259 381 250 385 196 L400 196 L400 471 L385 471 C382 361 363 346 228 347 L228 647 L311 647 C453 652 497 620 531 484 L545 484 L537 667 L33 667 L33 647 L121 647 L121 20 Z M322 720 L489 832 L483 843 L322 795 L161 843 L156 832 L322 720 Z " />
<glyph glyph-name="ecaron" unicode="&#x11b;" horiz-adv-x="446" d="M418 229 C412 334 339 403 236 403 C129 403 37 307 37 197 C37 87 132 -10 240 -10 C324 -10 394 48 410 132 L386 132 C366 58 312 13 243 13 C196 13 160 39 152 78 C147 100 146 129 146 209 L146 229 L418 229 Z M146 249 C146 310 146 310 150 323 C158 359 189 380 233 380 C270 380 293 365 303 334 C308 318 309 310 309 249 L146 249 Z M238 547 L103 620 L95 610 L238 463 L382 610 L374 620 L238 547 Z " />
<glyph glyph-name="Gcircumflex" unicode="&#x11c;" horiz-adv-x="669" d="M554 667 L540 667 L505 627 C448 662 402 677 348 677 C183 677 44 520 44 333 C44 145 178 -10 339 -10 C426 -10 520 36 560 99 C580 130 588 162 591 213 L658 213 L658 233 L362 233 L362 213 L467 213 C465 139 460 107 442 73 C423 39 375 13 328 13 C301 13 269 22 246 35 C210 55 188 94 181 148 C175 191 171 264 171 327 C171 458 182 541 205 586 C225 626 281 654 342 654 C400 654 449 632 486 589 C515 555 529 526 544 468 L559 468 L554 667 Z M347 843 L180 732 L186 720 L347 769 L508 720 L513 732 L347 843 Z " />
<glyph glyph-name="gcircumflex" unicode="&#x11d;" horiz-adv-x="461" d="M282 22 L225 21 L166 20 L136 20 C91 20 71 31 71 57 C71 83 95 110 144 139 C171 127 193 123 224 123 C322 123 392 180 392 260 C392 293 381 322 359 350 C371 363 376 366 383 366 C389 366 392 362 395 350 C399 330 411 320 430 320 C452 320 468 336 468 358 C468 385 448 403 420 403 C395 403 373 391 344 362 C314 389 274 403 225 403 C130 403 58 343 58 262 C58 218 78 183 123 149 C61 110 31 69 31 23 C31 -20 60 -51 110 -64 C58 -79 27 -112 27 -151 C27 -218 111 -272 215 -272 C347 -272 437 -196 437 -84 C437 -41 421 -8 393 8 C374 19 357 22 317 22 L282 22 Z M228 383 C257 383 279 374 287 360 C295 346 297 328 297 274 C297 212 295 190 286 172 C277 154 253 144 222 144 C194 144 173 153 164 169 C156 182 153 204 153 245 C153 312 159 354 171 366 C180 377 202 383 228 383 L228 383 Z M341 -64 C381 -64 397 -76 397 -106 C397 -185 321 -247 224 -247 C147 -247 98 -206 98 -142 C98 -112 108 -89 132 -64 C154 -67 164 -67 188 -67 C204 -67 214 -67 293 -65 L341 -64 Z M235 536 L370 463 L378 473 L235 620 L92 474 L100 464 L235 536 Z " />
<glyph glyph-name="Gbreve" unicode="&#x11e;" horiz-adv-x="669" d="M554 667 L540 667 L505 627 C448 662 402 677 348 677 C183 677 44 520 44 333 C44 145 178 -10 339 -10 C426 -10 520 36 560 99 C580 130 588 162 591 213 L658 213 L658 233 L362 233 L362 213 L467 213 C465 139 460 107 442 73 C423 39 375 13 328 13 C301 13 269 22 246 35 C210 55 188 94 181 148 C175 191 171 264 171 327 C171 458 182 541 205 586 C225 626 281 654 342 654 C400 654 449 632 486 589 C515 555 529 526 544 468 L559 468 L554 667 Z M200 843 C211 765 262 723 347 723 C432 723 481 764 493 843 L480 843 C470 825 464 816 454 808 C432 790 393 779 347 779 C300 779 261 790 239 808 C229 817 223 825 214 843 L200 843 Z " />
<glyph glyph-name="gbreve" unicode="&#x11f;" horiz-adv-x="461" d="M282 22 L225 21 L166 20 L136 20 C91 20 71 31 71 57 C71 83 95 110 144 139 C171 127 193 123 224 123 C322 123 392 180 392 260 C392 293 381 322 359 350 C371 363 376 366 383 366 C389 366 392 362 395 350 C399 330 411 320 430 320 C452 320 468 336 468 358 C468 385 448 403 420 403 C395 403 373 391 344 362 C314 389 274 403 225 403 C130 403 58 343 58 262 C58 218 78 183 123 149 C61 110 31 69 31 23 C31 -20 60 -51 110 -64 C58 -79 27 -112 27 -151 C27 -218 111 -272 215 -272 C347 -272 437 -196 437 -84 C437 -41 421 -8 393 8 C374 19 357 22 317 22 L282 22 Z M228 383 C257 383 279 374 287 360 C295 346 297 328 297 274 C297 212 295 190 286 172 C277 154 253 144 222 144 C194 144 173 153 164 169 C156 182 153 204 153 245 C153 312 159 354 171 366 C180 377 202 383 228 383 L228 383 Z M341 -64 C381 -64 397 -76 397 -106 C397 -185 321 -247 224 -247 C147 -247 98 -206 98 -142 C98 -112 108 -89 132 -64 C154 -67 164 -67 188 -67 C204 -67 214 -67 293 -65 L341 -64 Z M350 613 C331 559 287 528 229 528 C171 528 128 559 112 613 L99 613 C103 526 156 467 231 467 C307 467 359 525 363 613 L350 613 Z " />
<glyph glyph-name="Gdotaccent" unicode="&#x120;" horiz-adv-x="669" d="M554 667 L540 667 L505 627 C448 662 402 677 348 677 C183 677 44 520 44 333 C44 145 178 -10 339 -10 C426 -10 520 36 560 99 C580 130 588 162 591 213 L658 213 L658 233 L362 233 L362 213 L467 213 C465 139 460 107 442 73 C423 39 375 13 328 13 C301 13 269 22 246 35 C210 55 188 94 181 148 C175 191 171 264 171 327 C171 458 182 541 205 586 C225 626 281 654 342 654 C400 654 449 632 486 589 C515 555 529 526 544 468 L559 468 L554 667 Z M349 832 C320 832 296 808 296 779 C296 750 319 727 349 727 C379 727 402 750 402 780 C402 808 378 832 349 832 L349 832 Z " />
<glyph glyph-name="gdotaccent" unicode="&#x121;" horiz-adv-x="461" d="M282 22 L225 21 L166 20 L136 20 C91 20 71 31 71 57 C71 83 95 110 144 139 C171 127 193 123 224 123 C322 123 392 180 392 260 C392 293 381 322 359 350 C371 363 376 366 383 366 C389 366 392 362 395 350 C399 330 411 320 430 320 C452 320 468 336 468 358 C468 385 448 403 420 403 C395 403 373 391 344 362 C314 389 274 403 225 403 C130 403 58 343 58 262 C58 218 78 183 123 149 C61 110 31 69 31 23 C31 -20 60 -51 110 -64 C58 -79 27 -112 27 -151 C27 -218 111 -272 215 -272 C347 -272 437 -196 437 -84 C437 -41 421 -8 393 8 C374 19 357 22 317 22 L282 22 Z M228 383 C257 383 279 374 287 360 C295 346 297 328 297 274 C297 212 295 190 286 172 C277 154 253 144 222 144 C194 144 173 153 164 169 C156 182 153 204 153 245 C153 312 159 354 171 366 C180 377 202 383 228 383 L228 383 Z M341 -64 C381 -64 397 -76 397 -106 C397 -185 321 -247 224 -247 C147 -247 98 -206 98 -142 C98 -112 108 -89 132 -64 C154 -67 164 -67 188 -67 C204 -67 214 -67 293 -65 L341 -64 Z M234 592 C205 592 183 570 183 541 C183 512 205 490 235 490 C266 490 287 510 287 540 C287 569 264 592 234 592 L234 592 Z " />
<glyph glyph-name="Gcommaaccent" unicode="&#x122;" horiz-adv-x="669" d="M554 667 L540 667 L505 627 C448 662 402 677 348 677 C183 677 44 520 44 333 C44 145 178 -10 339 -10 C426 -10 520 36 560 99 C580 130 588 162 591 213 L658 213 L658 233 L362 233 L362 213 L467 213 C465 139 460 107 442 73 C423 39 375 13 328 13 C301 13 269 22 246 35 C210 55 188 94 181 148 C175 191 171 264 171 327 C171 458 182 541 205 586 C225 626 281 654 342 654 C400 654 449 632 486 589 C515 555 529 526 544 468 L559 468 L554 667 Z M310 -258 C369 -218 398 -175 398 -127 C398 -77 364 -40 317 -40 C279 -40 250 -65 250 -98 C250 -126 271 -147 299 -147 C326 -147 346 -128 346 -103 C346 -100 346 -96 345 -93 C361 -102 370 -117 370 -136 C370 -173 348 -203 294 -239 L310 -258 Z " />
<glyph glyph-name="gcommaaccent" unicode="&#x123;" horiz-adv-x="461" d="M282 22 L225 21 L166 20 L136 20 C91 20 71 31 71 57 C71 83 95 110 144 139 C171 127 193 123 224 123 C322 123 392 180 392 260 C392 293 381 322 359 350 C371 363 376 366 383 366 C389 366 392 362 395 350 C399 330 411 320 430 320 C452 320 468 336 468 358 C468 385 448 403 420 403 C395 403 373 391 344 362 C314 389 274 403 225 403 C130 403 58 343 58 262 C58 218 78 183 123 149 C61 110 31 69 31 23 C31 -20 60 -51 110 -64 C58 -79 27 -112 27 -151 C27 -218 111 -272 215 -272 C347 -272 437 -196 437 -84 C437 -41 421 -8 393 8 C374 19 357 22 317 22 L282 22 Z M228 383 C257 383 279 374 287 360 C295 346 297 328 297 274 C297 212 295 190 286 172 C277 154 253 144 222 144 C194 144 173 153 164 169 C156 182 153 204 153 245 C153 312 159 354 171 366 C180 377 202 383 228 383 L228 383 Z M341 -64 C381 -64 397 -76 397 -106 C397 -185 321 -247 224 -247 C147 -247 98 -206 98 -142 C98 -112 108 -89 132 -64 C154 -67 164 -67 188 -67 C204 -67 214 -67 293 -65 L341 -64 Z M244 665 C187 626 159 584 159 539 C159 490 192 455 237 455 C274 455 302 479 302 511 C302 538 282 558 254 558 C227 558 208 540 208 515 L209 505 C194 514 186 529 186 547 C186 583 207 612 259 646 L244 665 Z " />
<glyph glyph-name="Hcircumflex" unicode="&#x124;" horiz-adv-x="747" d="M519 331 L519 20 L426 20 L426 0 L713 0 L713 20 L626 20 L626 647 L713 647 L713 667 L426 667 L426 647 L519 647 L519 351 L228 351 L228 647 L320 647 L320 667 L33 667 L33 647 L121 647 L121 20 L33 20 L33 0 L320 0 L320 20 L228 20 L228 331 L519 331 Z M373 843 L206 732 L212 720 L373 769 L534 720 L539 732 L373 843 Z " />
<glyph glyph-name="Hbar" unicode="&#x126;" horiz-adv-x="747" d="M121 478 L121 20 L33 20 L33 0 L320 0 L320 20 L228 20 L228 331 L519 331 L519 20 L426 20 L426 0 L713 0 L713 20 L626 20 L626 478 L695 478 L695 498 L626 498 L626 647 L713 647 L713 667 L426 667 L426 647 L519 647 L519 498 L228 498 L228 647 L320 647 L320 667 L33 667 L33 647 L121 647 L121 498 L48 498 L48 478 L121 478 Z M228 478 L519 478 L519 351 L228 351 L228 478 Z " />
<glyph glyph-name="hbar" unicode="&#x127;" horiz-adv-x="554" d="M87 537 L87 20 L17 20 L17 0 L245 0 L245 20 L177 20 L177 165 C177 247 183 283 201 315 C222 352 261 374 305 374 C332 374 355 364 363 348 C371 332 372 322 372 258 L372 20 L309 20 L309 0 L536 0 L536 20 L462 20 L462 258 C462 319 460 334 449 354 C431 384 388 403 335 403 C296 403 257 393 228 375 C208 363 196 351 177 322 L177 537 L327 537 L327 557 L177 557 L177 667 L17 667 L17 647 L87 647 L87 557 L17 557 L17 537 L87 537 Z " />
<glyph glyph-name="Imacron" unicode="&#x12a;" horiz-adv-x="348" d="M121 20 L33 20 L33 0 L315 0 L315 20 L228 20 L228 647 L315 647 L315 667 L33 667 L33 647 L121 647 L121 20 Z M33 785 L33 750 L315 750 L315 785 L33 785 Z " />
<glyph glyph-name="imacron" unicode="&#x12b;" horiz-adv-x="284" d="M107 20 L32 20 L32 0 L267 0 L267 20 L197 20 L197 393 L32 393 L32 373 L107 373 L107 20 Z M17 544 L17 510 L255 510 L255 544 L17 544 Z " />
<glyph glyph-name="ibreve" unicode="&#x12d;" horiz-adv-x="284" d="M106 20 L31 20 L31 0 L266 0 L266 20 L196 20 L196 393 L31 393 L31 373 L106 373 L106 20 Z M268 613 C249 559 205 528 147 528 C89 528 46 559 30 613 L17 613 C21 526 74 467 149 467 C225 467 277 525 280 613 L268 613 Z " />
<glyph glyph-name="Iogonek" unicode="&#x12e;" horiz-adv-x="348" d="M315 0 L315 20 L228 20 L228 647 L315 647 L315 667 L33 667 L33 647 L121 647 L121 20 L33 20 L33 0 L215 0 C147 -26 116 -58 116 -100 C116 -140 149 -165 203 -165 C234 -165 258 -159 290 -144 L290 -127 C268 -134 256 -136 239 -136 C201 -136 178 -118 178 -87 C178 -56 200 -28 248 0 L315 0 Z " />
<glyph glyph-name="iogonek" unicode="&#x12f;" horiz-adv-x="284" d="M267 0 L267 20 L197 20 L197 393 L32 393 L32 373 L107 373 L107 20 L32 20 L32 0 L179 0 C113 -25 82 -57 82 -98 C82 -137 114 -162 167 -162 C197 -162 221 -156 252 -141 L252 -124 C231 -131 219 -133 202 -133 C164 -133 142 -115 142 -85 C142 -54 163 -28 211 0 L267 0 Z M145 654 C113 654 90 630 90 598 C90 565 113 540 145 540 C176 540 201 565 201 597 C201 628 175 654 145 654 L145 654 Z " />
<glyph glyph-name="Idotaccent" unicode="&#x130;" horiz-adv-x="348" d="M121 20 L33 20 L33 0 L315 0 L315 20 L228 20 L228 647 L315 647 L315 667 L33 667 L33 647 L121 647 L121 20 Z M174 832 C145 832 121 808 121 779 C121 750 144 727 174 727 C204 727 227 750 227 780 C227 808 202 832 174 832 L174 832 Z " />
<glyph glyph-name="dotlessi" unicode="&#x131;" horiz-adv-x="284" d="M107 20 L32 20 L32 0 L267 0 L267 20 L197 20 L197 393 L32 393 L32 373 L107 373 L107 20 Z " />
<glyph glyph-name="Kcommaaccent" unicode="&#x136;" horiz-adv-x="686" d="M121 20 L33 20 L33 0 L320 0 L320 20 L228 20 L228 647 L320 647 L320 667 L33 667 L33 647 L121 647 L121 20 Z M333 407 L556 647 L645 647 L645 667 L421 667 L421 647 L523 647 L242 348 L499 20 L408 20 L408 0 L685 0 L685 20 L634 20 L333 407 Z M322 -258 C380 -218 410 -175 410 -127 C410 -77 376 -40 329 -40 C290 -40 262 -65 262 -98 C262 -127 282 -147 311 -147 C338 -147 359 -128 359 -103 C359 -101 358 -97 357 -93 C373 -102 382 -117 382 -136 C382 -173 359 -204 306 -239 L322 -258 Z " />
<glyph glyph-name="kcommaaccent" unicode="&#x137;" horiz-adv-x="514" d="M183 667 L18 667 L18 647 L93 647 L93 20 L18 20 L18 0 L253 0 L253 20 L183 20 L183 667 Z M272 252 L403 373 L477 373 L477 393 L265 393 L265 373 L367 373 L192 210 L343 20 L290 20 L290 0 L515 0 L515 20 L468 20 L272 252 Z M244 -250 C301 -212 329 -170 329 -124 C329 -75 296 -40 251 -40 C213 -40 186 -64 186 -96 C186 -123 206 -143 233 -143 C260 -143 280 -125 280 -101 L279 -91 C294 -100 302 -115 302 -132 C302 -168 280 -197 229 -232 L244 -250 Z " />
<glyph glyph-name="Lacute" unicode="&#x139;" horiz-adv-x="598" d="M121 20 L33 20 L33 0 L556 0 L574 206 L560 206 C522 49 484 15 357 20 L228 20 L228 647 L320 647 L320 667 L33 667 L33 647 L121 647 L121 20 Z M315 837 L178 732 L185 720 L417 812 C427 816 432 820 432 826 C432 834 427 837 416 837 L315 837 Z " />
<glyph glyph-name="lacute" unicode="&#x13a;" horiz-adv-x="270" d="M93 20 L18 20 L18 0 L253 0 L253 20 L183 20 L183 667 L18 667 L18 647 L93 647 L93 20 Z M217 837 L79 732 L86 720 L318 812 C328 816 333 820 333 826 C333 834 329 837 317 837 L217 837 Z " />
<glyph glyph-name="Lcommaaccent" unicode="&#x13b;" horiz-adv-x="598" d="M121 20 L33 20 L33 0 L556 0 L574 206 L560 206 C522 49 484 15 357 20 L228 20 L228 647 L320 647 L320 667 L33 667 L33 647 L121 647 L121 20 Z M295 -258 C354 -218 384 -175 384 -127 C384 -77 350 -40 303 -40 C264 -40 236 -65 236 -98 C236 -126 256 -147 284 -147 C311 -147 332 -128 332 -103 L331 -93 C347 -102 356 -117 356 -136 C356 -173 333 -203 280 -239 L295 -258 Z " />
<glyph glyph-name="lcommaaccent" unicode="&#x13c;" horiz-adv-x="270" d="M93 20 L18 20 L18 0 L253 0 L253 20 L183 20 L183 667 L18 667 L18 647 L93 647 L93 20 Z M125 -250 C182 -212 210 -170 210 -124 C210 -75 177 -40 132 -40 C94 -40 67 -64 67 -96 C67 -123 87 -143 114 -143 C141 -143 161 -125 161 -101 L160 -91 C175 -100 183 -115 183 -132 C183 -168 161 -197 110 -232 L125 -250 Z " />
<glyph glyph-name="Lcaron" unicode="&#x13d;" horiz-adv-x="598" d="M121 20 L33 20 L33 0 L556 0 L574 206 L560 206 C522 49 484 15 357 20 L228 20 L228 647 L320 647 L320 667 L33 667 L33 647 L121 647 L121 20 Z M400 449 C459 489 489 533 489 580 C489 630 455 667 408 667 C369 667 341 642 341 609 C341 581 361 560 389 560 C416 560 437 579 437 604 L436 615 C452 605 461 590 461 572 C461 534 438 504 385 468 L400 449 Z " />
<glyph glyph-name="lcaron" unicode="&#x13e;" horiz-adv-x="357" d="M93 20 L18 20 L18 0 L253 0 L253 20 L183 20 L183 667 L18 667 L18 647 L93 647 L93 20 Z M272 457 C329 496 358 537 358 583 C358 632 325 667 280 667 C242 667 215 643 215 611 C215 584 234 564 262 564 C288 564 308 582 308 607 L307 616 C322 607 331 593 331 575 C331 539 309 510 257 475 L272 457 Z " />
<glyph glyph-name="Ldot" unicode="&#x13f;" horiz-adv-x="598" d="M121 20 L33 20 L33 0 L556 0 L574 206 L560 206 C522 49 484 15 357 20 L228 20 L228 647 L320 647 L320 667 L33 667 L33 647 L121 647 L121 20 Z M353 371 C324 371 302 349 302 320 C302 291 324 269 354 269 C384 269 406 289 406 319 C406 348 382 371 353 371 L353 371 Z " />
<glyph glyph-name="ldot" unicode="&#x140;" horiz-adv-x="312" d="M93 20 L18 20 L18 0 L253 0 L253 20 L183 20 L183 667 L18 667 L18 647 L93 647 L93 20 Z M273 375 C244 375 222 353 222 324 C222 295 244 273 274 273 C304 273 326 293 326 323 C326 352 302 375 273 375 L273 375 Z " />
<glyph glyph-name="Lslash" unicode="&#x141;" horiz-adv-x="598" d="M121 286 L33 220 L33 195 L121 261 L121 20 L33 20 L33 0 L556 0 L574 206 L560 206 C521 49 484 15 357 20 L228 20 L228 323 L397 444 L397 469 L228 348 L228 647 L320 647 L320 667 L33 667 L33 647 L121 647 L121 286 Z " />
<glyph glyph-name="lslash" unicode="&#x142;" horiz-adv-x="270" d="M92 337 L22 285 L22 260 L92 311 L92 20 L18 20 L18 0 L252 0 L252 20 L182 20 L182 360 L257 412 L257 437 L182 386 L182 667 L18 667 L18 647 L92 647 L92 337 Z " />
<glyph glyph-name="Nacute" unicode="&#x143;" horiz-adv-x="701" d="M114 20 L26 20 L26 0 L225 0 L225 20 L137 20 L137 628 L568 0 L591 0 L591 647 L678 647 L678 667 L479 667 L479 647 L568 647 L568 196 C539 243 514 281 449 374 L245 667 L26 667 L26 647 L114 647 L114 20 Z M440 837 L302 732 L309 720 L541 812 C553 817 557 820 557 826 C557 834 552 837 540 837 L440 837 Z " />
<glyph glyph-name="nacute" unicode="&#x144;" horiz-adv-x="552" d="M102 20 L32 20 L32 0 L259 0 L259 20 L192 20 L192 139 C192 249 197 294 213 324 C228 351 267 373 301 373 C326 373 350 360 360 341 C372 317 375 281 375 174 L375 20 L308 20 L308 0 L535 0 L535 20 L465 20 L465 242 C465 303 462 324 450 345 C429 381 382 403 327 403 C269 403 228 384 192 341 L192 393 L32 393 L32 373 L102 373 L102 20 Z M344 616 L248 473 L257 463 L423 599 C426 602 428 605 428 608 C428 613 425 616 419 616 L344 616 Z " />
<glyph glyph-name="Ncommaaccent" unicode="&#x145;" horiz-adv-x="701" d="M114 20 L26 20 L26 0 L225 0 L225 20 L137 20 L137 628 L568 0 L591 0 L591 647 L678 647 L678 667 L479 667 L479 647 L568 647 L568 196 C539 243 514 281 449 374 L245 667 L26 667 L26 647 L114 647 L114 20 Z M344 -258 C403 -218 433 -175 433 -127 C433 -76 399 -40 351 -40 C313 -40 284 -65 284 -98 C284 -127 304 -147 333 -147 C360 -147 381 -128 381 -103 L380 -93 C396 -102 405 -117 405 -136 C405 -173 382 -204 328 -239 L344 -258 Z " />
<glyph glyph-name="ncommaaccent" unicode="&#x146;" horiz-adv-x="552" d="M102 20 L32 20 L32 0 L259 0 L259 20 L192 20 L192 139 C192 249 197 294 213 324 C228 351 267 373 301 373 C326 373 350 360 360 341 C372 317 375 281 375 174 L375 20 L308 20 L308 0 L535 0 L535 20 L465 20 L465 242 C465 303 462 324 450 345 C429 381 382 403 327 403 C269 403 228 384 192 341 L192 393 L32 393 L32 373 L102 373 L102 20 Z M274 -250 C331 -211 359 -170 359 -124 C359 -75 326 -40 281 -40 C244 -40 216 -64 216 -96 C216 -123 236 -143 263 -143 C290 -143 309 -125 309 -101 C309 -98 309 -94 308 -91 C324 -100 332 -115 332 -132 C332 -168 311 -197 259 -232 L274 -250 Z " />
<glyph glyph-name="Ncaron" unicode="&#x147;" horiz-adv-x="701" d="M114 20 L26 20 L26 0 L225 0 L225 20 L137 20 L137 628 L568 0 L591 0 L591 647 L678 647 L678 667 L479 667 L479 647 L568 647 L568 196 C539 243 514 281 449 374 L245 667 L26 667 L26 647 L114 647 L114 20 Z M362 720 L529 832 L523 843 L362 795 L202 843 L196 832 L362 720 Z " />
<glyph glyph-name="ncaron" unicode="&#x148;" horiz-adv-x="552" d="M102 20 L32 20 L32 0 L259 0 L259 20 L192 20 L192 139 C192 249 197 294 213 324 C228 351 267 373 301 373 C326 373 350 360 360 341 C372 317 375 281 375 174 L375 20 L308 20 L308 0 L535 0 L535 20 L465 20 L465 242 C465 303 462 324 450 345 C429 381 382 403 327 403 C269 403 228 384 192 341 L192 393 L32 393 L32 373 L102 373 L102 20 Z M298 547 L163 620 L155 610 L298 463 L442 610 L434 620 L298 547 Z " />
<glyph glyph-name="Omacron" unicode="&#x14c;" horiz-adv-x="697" d="M349 677 C278 677 211 650 158 599 C85 528 44 434 44 334 C44 248 78 158 135 93 C193 25 267 -10 349 -10 C420 -10 484 16 539 67 C609 133 654 234 654 327 C654 520 517 677 349 677 L349 677 Z M349 654 C411 654 469 626 493 585 C520 538 528 475 528 307 C528 203 516 122 496 88 C469 41 414 13 349 13 C281 13 224 44 199 95 C179 134 171 204 171 329 C171 471 179 534 203 579 C227 625 284 654 349 654 L349 654 Z M192 785 L192 750 L506 750 L506 785 L192 785 Z " />
<glyph glyph-name="omacron" unicode="&#x14d;" horiz-adv-x="498" d="M250 403 C132 403 37 311 37 197 C37 82 132 -10 250 -10 C366 -10 462 82 462 194 C462 311 369 403 250 403 L250 403 Z M355 197 L356 149 C357 104 352 73 343 56 C327 27 296 13 249 13 C211 13 185 22 166 43 C146 64 144 79 144 197 C144 309 146 327 162 346 C182 370 208 380 250 380 C323 380 354 348 355 272 L355 197 Z M111 544 L111 510 L388 510 L388 544 L111 544 Z " />
<glyph glyph-name="Ohungarumlaut" unicode="&#x150;" horiz-adv-x="697" d="M349 677 C278 677 211 650 158 599 C85 528 44 434 44 334 C44 248 78 158 135 93 C193 25 267 -10 349 -10 C420 -10 484 16 539 67 C609 133 654 234 654 327 C654 520 517 677 349 677 L349 677 Z M349 654 C411 654 469 626 493 585 C520 538 528 475 528 307 C528 203 516 122 496 88 C469 41 414 13 349 13 C281 13 224 44 199 95 C179 134 171 204 171 329 C171 471 179 534 203 579 C227 625 284 654 349 654 L349 654 Z M551 837 L438 732 L445 720 L631 812 C643 818 645 820 645 826 C645 834 641 837 630 837 L551 837 Z M373 837 L260 732 L267 720 L453 812 C466 818 468 820 468 826 C468 834 464 837 452 837 L373 837 Z " />
<glyph glyph-name="ohungarumlaut" unicode="&#x151;" horiz-adv-x="499" d="M250 403 C132 403 37 311 37 197 C37 82 132 -10 250 -10 C366 -10 462 82 462 194 C462 311 369 403 250 403 L250 403 Z M355 197 L356 149 C357 104 352 73 343 56 C327 27 296 13 249 13 C211 13 185 22 166 43 C146 64 144 79 144 197 C144 309 146 327 162 346 C182 370 208 380 250 380 C323 380 354 348 355 272 L355 197 Z M406 616 L310 473 L319 463 L479 599 C482 602 484 605 484 608 C484 613 481 616 475 616 L406 616 Z M260 616 L163 473 L173 463 L333 599 C335 602 337 605 337 608 C337 613 334 616 329 616 L260 616 Z " />
<glyph glyph-name="OE" unicode="&#x152;" horiz-adv-x="966" d="M891 667 L465 667 C432 675 412 677 382 677 C189 677 44 530 44 332 C44 205 108 90 211 31 C259 3 311 -10 374 -10 C406 -10 428 -8 465 0 L908 0 L927 208 L913 208 C887 120 876 95 847 60 C812 23 798 19 719 20 L581 20 L581 328 L618 328 C684 328 713 314 727 276 C733 259 735 248 739 196 L753 196 L753 471 L739 471 C736 361 716 346 581 347 L581 647 L664 647 C807 652 850 620 884 484 L898 484 L891 667 Z M474 29 C432 17 408 13 371 13 C313 13 268 26 236 53 C187 94 171 161 171 329 C171 462 180 532 202 573 C227 621 299 654 378 654 C411 654 434 650 474 639 L474 29 Z " />
<glyph glyph-name="oe" unicode="&#x153;" horiz-adv-x="734" d="M705 227 C703 272 694 298 673 328 C641 374 584 403 525 403 C471 403 431 383 391 337 C351 381 301 403 245 403 C134 403 37 305 37 191 C37 83 131 -10 240 -10 C297 -10 345 13 386 58 C426 12 474 -10 536 -10 C622 -10 686 44 705 135 L677 135 C658 58 607 13 537 13 C499 13 469 27 455 52 C442 76 437 109 437 186 L438 227 L705 227 Z M437 247 L437 276 C437 315 444 343 457 356 C471 370 495 379 520 379 C551 379 577 366 588 346 C596 330 597 321 597 272 C597 268 597 258 598 247 L437 247 Z M335 152 C336 101 332 71 321 53 C308 28 277 13 240 13 C203 13 175 27 160 52 C148 75 143 113 143 193 L143 235 L143 249 C143 298 146 319 157 339 C169 364 201 379 238 379 C274 379 306 364 319 340 C332 317 334 298 334 201 L335 152 Z " />
<glyph glyph-name="Racute" unicode="&#x154;" horiz-adv-x="669" d="M121 20 L33 20 L33 0 L320 0 L320 20 L228 20 L228 345 L265 345 C389 345 422 314 424 195 C426 120 431 93 450 61 C472 22 522 -4 574 -4 C599 -4 618 0 648 12 L641 30 C619 21 610 19 600 19 C585 19 569 29 563 41 C554 59 552 71 553 124 C560 254 494 333 360 353 C492 361 575 424 575 514 C575 571 544 615 484 642 C438 663 403 667 274 667 L33 667 L33 647 L121 647 L121 20 Z M228 367 L228 647 L272 647 C346 647 373 643 402 626 C440 605 461 563 461 507 C461 452 441 408 406 389 C376 373 342 367 267 367 L228 367 Z M388 837 L250 732 L258 720 L490 812 C500 816 505 820 505 826 C505 834 500 837 489 837 L388 837 Z " />
<glyph glyph-name="racute" unicode="&#x155;" horiz-adv-x="390" d="M102 20 L32 20 L32 0 L267 0 L267 20 L192 20 L192 113 C192 215 200 270 223 315 C238 345 253 362 265 362 C273 362 275 357 276 341 C277 312 296 294 324 294 C354 294 376 316 376 345 C376 379 348 403 311 403 C260 403 222 370 192 298 L192 393 L32 393 L32 373 L102 373 L102 20 Z M284 616 L187 473 L196 463 L363 599 C367 602 368 605 368 608 C368 613 365 616 359 616 L284 616 Z " />
<glyph glyph-name="Rcommaaccent" unicode="&#x156;" horiz-adv-x="669" d="M121 20 L33 20 L33 0 L320 0 L320 20 L228 20 L228 345 L265 345 C389 345 422 314 424 195 C426 120 431 93 450 61 C472 22 522 -4 574 -4 C599 -4 618 0 648 12 L641 30 C619 21 610 19 600 19 C585 19 569 29 563 41 C554 59 552 71 553 124 C560 254 494 333 360 353 C492 361 575 424 575 514 C575 571 544 615 484 642 C438 663 403 667 274 667 L33 667 L33 647 L121 647 L121 20 Z M228 367 L228 647 L272 647 C346 647 373 643 402 626 C440 605 461 563 461 507 C461 452 441 408 406 389 C376 373 342 367 267 367 L228 367 Z M316 -258 C374 -218 404 -175 404 -127 C404 -77 370 -40 323 -40 C284 -40 256 -65 256 -98 C256 -127 276 -147 305 -147 C332 -147 353 -128 353 -103 C353 -101 352 -97 351 -93 C367 -102 376 -117 376 -136 C376 -173 353 -204 300 -239 L316 -258 Z " />
<glyph glyph-name="rcommaaccent" unicode="&#x157;" horiz-adv-x="390" d="M102 20 L32 20 L32 0 L267 0 L267 20 L192 20 L192 113 C192 215 200 270 223 315 C238 345 253 362 265 362 C273 362 275 357 276 341 C277 312 296 294 324 294 C354 294 376 316 376 345 C376 379 348 403 311 403 C260 403 222 370 192 298 L192 393 L32 393 L32 373 L102 373 L102 20 Z M138 -250 C195 -212 223 -170 223 -124 C223 -75 190 -40 145 -40 C108 -40 80 -64 80 -96 C80 -123 100 -143 127 -143 C154 -143 173 -125 173 -101 C173 -99 173 -95 172 -91 C188 -100 196 -115 196 -132 C196 -168 175 -197 123 -232 L138 -250 Z " />
<glyph glyph-name="Rcaron" unicode="&#x158;" horiz-adv-x="669" d="M121 20 L33 20 L33 0 L320 0 L320 20 L228 20 L228 345 L265 345 C389 345 422 314 424 195 C426 120 431 93 450 61 C472 22 522 -4 574 -4 C599 -4 618 0 648 12 L641 30 C619 21 610 19 600 19 C585 19 569 29 563 41 C554 59 552 71 553 124 C560 254 494 333 360 353 C492 361 575 424 575 514 C575 571 544 615 484 642 C438 663 403 667 274 667 L33 667 L33 647 L121 647 L121 20 Z M228 367 L228 647 L272 647 C346 647 373 643 402 626 C440 605 461 563 461 507 C461 452 441 408 406 389 C376 373 342 367 267 367 L228 367 Z M317 720 L484 832 L478 843 L317 795 L156 843 L150 832 L317 720 Z " />
<glyph glyph-name="rcaron" unicode="&#x159;" horiz-adv-x="390" d="M102 20 L32 20 L32 0 L267 0 L267 20 L192 20 L192 113 C192 215 200 270 223 315 C238 345 253 362 265 362 C273 362 275 357 276 341 C277 312 296 294 324 294 C354 294 376 316 376 345 C376 379 348 403 311 403 C260 403 222 370 192 298 L192 393 L32 393 L32 373 L102 373 L102 20 Z M215 547 L79 620 L71 610 L215 463 L358 610 L350 620 L215 547 Z " />
<glyph glyph-name="Sacute" unicode="&#x15a;" horiz-adv-x="523" d="M439 677 L424 677 L387 636 C341 665 303 677 256 677 C148 677 64 588 64 475 C64 422 84 377 120 349 C146 328 191 311 257 296 C324 282 362 268 384 250 C410 228 425 195 425 156 C425 71 363 13 272 13 C207 13 147 42 112 90 C89 122 76 154 68 206 L52 206 L52 0 L74 0 L113 48 C164 8 211 -10 269 -10 C390 -10 478 85 478 216 C478 270 463 314 433 348 C403 382 355 404 282 419 C212 433 153 456 136 477 C123 492 117 512 117 534 C117 604 175 654 255 654 C346 654 409 596 423 501 L439 501 L439 677 Z M347 837 L209 732 L217 720 L449 812 C460 817 464 820 464 826 C464 834 460 837 448 837 L347 837 Z " />
<glyph glyph-name="sacute" unicode="&#x15b;" horiz-adv-x="358" d="M306 398 L290 398 L273 366 C238 393 209 403 172 403 C99 403 47 351 47 279 C47 251 55 225 71 204 C91 178 130 161 191 154 C260 146 291 126 291 89 C291 46 250 13 196 13 C160 13 123 29 103 53 C83 76 72 100 58 150 L43 150 L47 0 L58 0 L83 32 C123 2 153 -10 193 -10 C271 -10 328 47 328 126 C328 200 281 242 184 254 C113 263 81 280 81 310 C81 349 121 380 172 380 C234 380 283 340 293 280 L309 280 L306 398 Z M242 616 L145 473 L154 463 L321 599 C324 602 326 605 326 608 C326 613 323 616 317 616 L242 616 Z " />
<glyph glyph-name="Scircumflex" unicode="&#x15c;" horiz-adv-x="523" d="M439 677 L424 677 L387 636 C341 665 303 677 256 677 C148 677 64 588 64 475 C64 422 84 377 120 349 C146 328 191 311 257 296 C324 282 362 268 384 250 C410 228 425 195 425 156 C425 71 363 13 272 13 C207 13 147 42 112 90 C89 122 76 154 68 206 L52 206 L52 0 L74 0 L113 48 C164 8 211 -10 269 -10 C390 -10 478 85 478 216 C478 270 463 314 433 348 C403 382 355 404 282 419 C212 433 153 456 136 477 C123 492 117 512 117 534 C117 604 175 654 255 654 C346 654 409 596 423 501 L439 501 L439 677 Z M265 843 L99 732 L105 720 L265 769 L426 720 L432 732 L265 843 Z " />
<glyph glyph-name="scircumflex" unicode="&#x15d;" horiz-adv-x="358" d="M305 398 L290 398 L273 366 C237 393 209 403 172 403 C99 403 47 351 47 279 C47 251 55 225 71 204 C91 178 130 161 191 154 C260 146 291 126 291 89 C291 46 249 13 195 13 C160 13 123 29 103 53 C83 77 72 100 58 150 L43 150 L46 0 L58 0 L82 32 C123 2 153 -10 193 -10 C271 -10 328 47 328 126 C328 200 281 242 184 254 C113 263 81 280 81 310 C81 349 121 380 172 380 C234 380 283 340 293 280 L309 280 L305 398 Z M185 536 L321 463 L329 473 L185 620 L42 474 L50 464 L185 536 Z " />
<glyph glyph-name="Scedilla" unicode="&#x15e;" horiz-adv-x="523" d="M278 -10 C395 -5 478 89 478 216 C478 270 463 314 433 348 C403 382 355 404 282 419 C212 433 153 456 136 477 C123 492 117 512 117 534 C117 604 175 654 255 654 C346 654 409 596 423 501 L439 501 L439 677 L424 677 L387 636 C341 665 303 677 256 677 C148 677 64 588 64 475 C64 422 84 377 120 349 C146 328 191 311 257 296 C324 282 362 268 384 250 C410 228 425 195 425 156 C425 71 363 13 272 13 C207 13 147 42 112 90 C89 122 76 154 68 206 L52 206 L52 0 L74 0 L113 48 C155 13 206 -8 257 -10 L239 -61 C283 -76 298 -90 298 -118 C298 -147 278 -164 245 -164 C221 -164 197 -154 197 -145 L198 -138 C199 -135 200 -131 200 -128 C200 -112 191 -100 179 -100 C169 -100 162 -108 162 -120 C162 -155 203 -181 260 -181 C321 -181 367 -149 367 -107 C367 -76 332 -53 284 -53 L264 -53 L278 -10 Z " />
<glyph glyph-name="scedilla" unicode="&#x15f;" horiz-adv-x="358" d="M205 -10 C277 -4 328 52 328 126 C328 200 281 242 184 254 C113 263 81 280 81 310 C81 349 121 380 172 380 C234 380 283 340 293 280 L309 280 L306 398 L290 398 L273 366 C238 393 209 403 172 403 C99 403 47 351 47 279 C47 251 55 225 71 204 C91 178 130 161 191 154 C260 146 291 126 291 89 C291 46 250 13 196 13 C160 13 123 29 103 53 C83 76 72 100 58 150 L43 150 L47 0 L58 0 L83 32 C117 5 148 -8 184 -10 L166 -60 C210 -75 223 -88 223 -117 C223 -145 203 -162 171 -162 C149 -162 125 -152 125 -143 C125 -141 125 -139 126 -136 C127 -133 128 -129 128 -125 C128 -110 119 -98 107 -98 C97 -98 90 -106 90 -117 C90 -152 130 -178 184 -178 C246 -178 291 -147 291 -106 C291 -74 257 -52 210 -52 L191 -52 L205 -10 Z " />
<glyph glyph-name="Scaron" unicode="&#x160;" horiz-adv-x="523" d="M268 720 L434 832 L428 843 L268 795 L107 843 L101 832 L268 720 Z M439 677 L424 677 L387 636 C341 665 303 677 256 677 C148 677 64 588 64 475 C64 422 84 377 120 349 C146 328 191 311 257 296 C324 282 362 268 384 250 C410 228 425 195 425 156 C425 71 363 13 272 13 C207 13 147 42 112 90 C89 122 76 154 68 206 L52 206 L52 0 L74 0 L113 48 C164 8 211 -10 269 -10 C390 -10 478 85 478 216 C478 270 463 314 433 348 C403 382 355 404 282 419 C212 433 153 456 136 477 C123 492 117 512 117 534 C117 604 175 654 255 654 C346 654 409 596 423 501 L439 501 L439 677 Z " />
<glyph glyph-name="scaron" unicode="&#x161;" horiz-adv-x="358" d="M306 398 L290 398 L273 366 C238 393 209 403 172 403 C99 403 47 351 47 279 C47 251 55 225 71 204 C91 178 130 161 191 154 C260 146 291 126 291 89 C291 46 250 13 196 13 C160 13 123 29 103 53 C83 76 72 100 58 150 L43 150 L47 0 L58 0 L83 32 C123 2 153 -10 193 -10 C271 -10 328 47 328 126 C328 200 281 242 184 254 C113 263 81 280 81 310 C81 349 121 380 172 380 C234 380 283 340 293 280 L309 280 L306 398 Z M183 547 L48 620 L40 610 L183 463 L327 610 L319 620 L183 547 Z " />
<glyph glyph-name="Tcommaaccent" unicode="&#x162;" horiz-adv-x="604" d="M248 20 L150 20 L150 0 L455 0 L455 20 L357 20 L357 647 L389 647 C459 648 479 641 512 606 C546 565 566 520 578 456 L594 456 L586 667 L18 667 L11 456 L27 456 C42 535 64 581 106 621 C134 643 150 647 212 647 L248 647 L248 20 Z M295 -258 C354 -218 383 -175 383 -127 C383 -77 349 -40 302 -40 C264 -40 235 -65 235 -98 C235 -126 256 -147 284 -147 C311 -147 331 -128 331 -103 L331 -93 C347 -102 355 -117 355 -136 C355 -173 332 -204 279 -239 L295 -258 Z " />
<glyph glyph-name="tcommaaccent" unicode="&#x163;" horiz-adv-x="306" d="M182 546 L166 546 C140 475 93 423 24 387 L24 373 L92 373 L92 119 C92 66 93 56 103 39 C120 8 156 -10 201 -10 C262 -10 300 19 309 75 L288 75 C280 38 262 21 231 21 C212 21 196 29 189 42 C183 52 182 61 182 89 L182 373 L288 373 L288 393 L182 393 L182 546 Z M163 -250 C220 -212 248 -170 248 -124 C248 -75 215 -40 170 -40 C133 -40 105 -64 105 -96 C105 -123 125 -143 152 -143 C179 -143 198 -125 198 -101 L198 -91 C213 -100 221 -115 221 -132 C221 -168 200 -198 148 -232 L163 -250 Z " />
<glyph glyph-name="Tcaron" unicode="&#x164;" horiz-adv-x="604" d="M248 20 L150 20 L150 0 L455 0 L455 20 L357 20 L357 647 L389 647 C459 648 479 641 512 606 C546 565 566 520 578 456 L594 456 L586 667 L18 667 L11 456 L27 456 C42 535 64 581 106 621 C134 643 150 647 212 647 L248 647 L248 20 Z M303 720 L469 832 L463 843 L303 795 L142 843 L136 832 L303 720 Z " />
<glyph glyph-name="tcaron" unicode="&#x165;" horiz-adv-x="352" d="M182 546 L166 546 C140 475 93 423 24 387 L24 373 L92 373 L92 119 C92 66 93 56 103 39 C120 8 156 -10 201 -10 C262 -10 300 19 309 75 L288 75 C280 38 262 21 231 21 C212 21 196 29 189 42 C183 52 182 61 182 89 L182 373 L288 373 L288 393 L182 393 L182 546 Z M264 461 C321 500 349 542 349 587 C349 636 316 671 271 671 C234 671 206 647 206 615 C206 588 226 568 253 568 C280 568 299 586 299 611 L299 621 C314 612 322 597 322 579 C322 543 301 514 249 479 L264 461 Z " />
<glyph glyph-name="utilde" unicode="&#x169;" horiz-adv-x="557" d="M462 393 L297 393 L297 373 L372 373 L372 233 C372 128 368 101 349 66 C332 33 294 13 250 13 C222 13 201 22 193 37 C184 52 183 74 183 160 L183 393 L18 393 L18 373 L93 373 L93 160 C93 93 96 70 108 47 C129 11 175 -10 234 -10 C298 -10 342 11 372 55 L372 0 L532 0 L532 20 L462 20 L462 393 Z M424 580 C405 553 397 548 376 548 C361 548 344 551 328 556 L285 571 C259 580 247 582 230 582 C185 582 163 564 138 506 L150 498 C165 523 175 530 196 530 C213 530 232 527 251 520 L294 507 C315 500 334 496 350 496 C383 496 410 519 437 572 L424 580 Z " />
<glyph glyph-name="Umacron" unicode="&#x16a;" horiz-adv-x="674" d="M544 647 L544 265 C544 147 540 125 517 84 C490 37 442 13 374 13 C311 13 258 39 234 83 C215 118 214 134 214 265 L214 647 L306 647 L306 667 L19 667 L19 647 L107 647 L107 265 C107 160 112 123 132 89 C167 28 250 -10 350 -10 C444 -10 507 19 539 76 C562 119 567 148 567 265 L567 647 L655 647 L655 667 L456 667 L456 647 L544 647 Z M193 785 L193 750 L506 750 L506 785 L193 785 Z " />
<glyph glyph-name="umacron" unicode="&#x16b;" horiz-adv-x="557" d="M462 393 L297 393 L297 373 L372 373 L372 233 C372 128 368 101 349 66 C332 33 294 13 250 13 C222 13 201 22 193 37 C184 52 183 74 183 160 L183 393 L18 393 L18 373 L93 373 L93 160 C93 93 96 70 108 47 C129 11 175 -10 234 -10 C298 -10 342 11 372 55 L372 0 L532 0 L532 20 L462 20 L462 393 Z M141 544 L141 510 L417 510 L417 544 L141 544 Z " />
<glyph glyph-name="ubreve" unicode="&#x16d;" horiz-adv-x="557" d="M462 393 L297 393 L297 373 L372 373 L372 233 C372 128 368 101 349 66 C332 33 294 13 250 13 C222 13 201 22 193 37 C184 52 183 74 183 160 L183 393 L18 393 L18 373 L93 373 L93 160 C93 93 96 70 108 47 C129 11 175 -10 234 -10 C298 -10 342 11 372 55 L372 0 L532 0 L532 20 L462 20 L462 393 Z M393 613 C374 559 331 528 273 528 C214 528 172 559 156 613 L143 613 C147 526 200 467 275 467 C350 467 403 525 406 613 L393 613 Z " />
<glyph glyph-name="Uring" unicode="&#x16e;" horiz-adv-x="674" d="M544 647 L544 265 C544 147 540 125 517 84 C490 37 442 13 374 13 C311 13 258 39 234 83 C215 118 214 134 214 265 L214 647 L306 647 L306 667 L19 667 L19 647 L107 647 L107 265 C107 160 112 123 132 89 C167 28 250 -10 350 -10 C444 -10 507 19 539 76 C562 119 567 148 567 265 L567 647 L655 647 L655 667 L456 667 L456 647 L544 647 Z M367 859 C325 859 292 825 292 782 C292 740 325 707 368 707 C410 707 444 740 444 781 C444 825 410 859 367 859 L367 859 Z M368 831 C392 831 414 808 414 783 C414 757 392 735 367 735 C343 735 322 757 322 783 C322 809 343 831 368 831 L368 831 Z " />
<glyph glyph-name="uring" unicode="&#x16f;" horiz-adv-x="557" d="M462 393 L297 393 L297 373 L372 373 L372 233 C372 128 368 101 349 66 C332 33 294 13 250 13 C222 13 201 22 193 37 C184 52 183 74 183 160 L183 393 L18 393 L18 373 L93 373 L93 160 C93 93 96 70 108 47 C129 11 175 -10 234 -10 C298 -10 342 11 372 55 L372 0 L532 0 L532 20 L462 20 L462 393 Z M285 615 C243 615 210 581 210 538 C210 496 243 463 286 463 C328 463 362 496 362 537 C362 581 328 615 285 615 L285 615 Z M286 587 C310 587 332 564 332 539 C332 513 310 491 285 491 C261 491 240 513 240 539 C240 565 261 587 286 587 L286 587 Z " />
<glyph glyph-name="Uhungarumlaut" unicode="&#x170;" horiz-adv-x="674" d="M544 647 L544 265 C544 147 540 125 517 84 C490 37 442 13 374 13 C311 13 258 39 234 83 C215 118 214 134 214 265 L214 647 L306 647 L306 667 L19 667 L19 647 L107 647 L107 265 C107 160 112 123 132 89 C167 28 250 -10 350 -10 C444 -10 507 19 539 76 C562 119 567 148 567 265 L567 647 L655 647 L655 667 L456 667 L456 647 L544 647 Z M549 837 L436 732 L444 720 L629 812 C642 818 644 820 644 826 C644 834 639 837 628 837 L549 837 Z M371 837 L259 732 L266 720 L451 812 C464 818 466 820 466 826 C466 834 462 837 450 837 L371 837 Z " />
<glyph glyph-name="uhungarumlaut" unicode="&#x171;" horiz-adv-x="557" d="M462 393 L297 393 L297 373 L372 373 L372 233 C372 128 368 101 349 66 C332 33 294 13 250 13 C222 13 201 22 193 37 C184 52 183 74 183 160 L183 393 L18 393 L18 373 L93 373 L93 160 C93 93 96 70 108 47 C129 11 175 -10 234 -10 C298 -10 342 11 372 55 L372 0 L532 0 L532 20 L462 20 L462 393 Z M425 616 L328 473 L337 463 L497 599 C501 603 503 605 503 608 C503 613 500 616 493 616 L425 616 Z M279 616 L182 473 L191 463 L351 599 C355 603 357 605 357 608 C357 613 353 616 347 616 L279 616 Z " />
<glyph glyph-name="Uogonek" unicode="&#x172;" horiz-adv-x="674" d="M518 -127 C496 -134 484 -136 467 -136 C429 -136 406 -118 406 -87 C406 -58 422 -35 464 -2 C554 69 568 106 567 265 L567 647 L655 647 L655 667 L456 667 L456 647 L544 647 L544 265 C544 147 540 125 517 84 C490 37 442 13 374 13 C311 13 258 39 234 83 C215 118 214 134 214 265 L214 647 L306 647 L306 667 L19 667 L19 647 L107 647 L107 265 C107 160 112 122 132 89 C168 28 249 -10 345 -10 C372 -10 397 -7 425 -2 C374 -25 345 -60 345 -99 C345 -140 378 -165 431 -165 C462 -165 487 -159 518 -144 L518 -127 Z " />
<glyph glyph-name="uogonek" unicode="&#x173;" horiz-adv-x="557" d="M532 0 L532 20 L462 20 L462 393 L297 393 L297 373 L372 373 L372 233 C372 128 368 101 349 66 C332 33 294 13 250 13 C222 13 201 22 193 37 C184 52 183 74 183 160 L183 393 L18 393 L18 373 L93 373 L93 160 C93 93 96 70 108 47 C129 11 175 -10 234 -10 C298 -10 342 11 372 55 L372 0 L445 0 C379 -25 348 -57 348 -98 C348 -137 380 -162 433 -162 C463 -162 487 -156 518 -141 L518 -124 C497 -131 485 -133 468 -133 C430 -133 408 -115 408 -85 C408 -54 429 -28 477 0 L532 0 Z " />
<glyph glyph-name="Wcircumflex" unicode="&#x174;" horiz-adv-x="839" d="M783 647 L839 647 L839 667 L661 667 L661 647 L755 647 L592 151 L487 442 L562 647 L625 647 L625 667 L-3 667 L-3 647 L55 647 L294 -10 L318 -10 L428 287 L539 -10 L562 -10 L783 647 Z M531 647 L473 482 L414 647 L531 647 Z M295 647 L416 326 L350 151 L172 647 L295 647 Z M437 843 L270 732 L276 720 L437 769 L598 720 L604 732 L437 843 Z " />
<glyph glyph-name="Ycircumflex" unicode="&#x176;" horiz-adv-x="607" d="M248 20 L150 20 L150 0 L453 0 L453 20 L355 20 L355 316 C360 324 363 330 366 335 L373 350 C375 354 378 360 382 366 C386 372 390 378 393 384 L541 647 L614 647 L614 667 L409 667 L409 647 L514 647 L344 356 C342 364 338 371 330 384 L173 647 L262 647 L262 667 L-10 667 L-10 647 L44 647 L248 316 L248 20 Z M314 843 L147 732 L153 720 L314 769 L475 720 L481 732 L314 843 Z " />
<glyph glyph-name="ycircumflex" unicode="&#x177;" horiz-adv-x="430" d="M391 373 L433 373 L433 393 L280 393 L280 373 L362 373 L265 117 L148 373 L221 373 L221 393 L-2 393 L-2 373 L43 373 L221 0 L163 -148 C143 -197 140 -201 129 -201 C124 -201 121 -199 114 -190 C102 -176 88 -169 70 -169 C40 -169 19 -189 19 -216 C19 -244 44 -265 80 -265 C125 -265 157 -234 185 -159 L391 373 Z M226 536 L361 463 L369 473 L226 620 L82 474 L90 464 L226 536 Z " />
<glyph glyph-name="Ydieresis" unicode="&#x178;" horiz-adv-x="607" d="M206 830 C177 830 154 806 154 777 C154 749 177 727 206 727 C235 727 258 749 258 779 C258 807 234 830 206 830 L206 830 Z M426 830 C397 830 374 806 374 778 C374 749 397 727 426 727 C455 727 478 749 478 779 C478 807 454 830 426 830 L426 830 Z M248 20 L150 20 L150 0 L453 0 L453 20 L355 20 L355 316 C360 324 363 330 366 335 L373 350 C375 354 378 360 382 366 C386 372 390 378 393 384 L541 647 L614 647 L614 667 L409 667 L409 647 L514 647 L344 356 C342 364 338 371 330 384 L173 647 L262 647 L262 667 L-10 667 L-10 647 L44 647 L248 316 L248 20 Z " />
<glyph glyph-name="Zacute" unicode="&#x179;" horiz-adv-x="574" d="M27 0 L526 0 L546 210 L532 210 C512 131 498 96 471 64 C435 24 420 20 320 20 L140 20 L557 667 L71 667 L51 463 L65 463 C106 615 147 654 254 647 L416 647 L27 44 L27 0 Z M401 837 L263 732 L270 720 L503 812 C513 816 517 820 517 826 C517 834 513 837 502 837 L401 837 Z " />
<glyph glyph-name="zacute" unicode="&#x17a;" horiz-adv-x="419" d="M398 393 L60 393 L60 240 L74 240 C109 357 126 373 219 373 L274 373 L21 0 L383 0 L384 167 L370 167 C338 37 320 19 224 20 L141 20 L398 393 Z M300 616 L203 473 L212 463 L379 599 C382 602 384 605 384 608 C384 613 381 616 375 616 L300 616 Z " />
<glyph glyph-name="Zdotaccent" unicode="&#x17b;" horiz-adv-x="574" d="M27 0 L526 0 L546 210 L532 210 C512 131 498 96 471 64 C435 24 420 20 320 20 L140 20 L557 667 L71 667 L51 463 L65 463 C106 615 147 654 254 647 L416 647 L27 44 L27 0 Z M313 832 C284 832 260 808 260 779 C260 750 283 727 313 727 C343 727 366 750 366 780 C366 808 342 832 313 832 L313 832 Z " />
<glyph glyph-name="zdotaccent" unicode="&#x17c;" horiz-adv-x="419" d="M398 393 L60 393 L60 240 L74 240 C109 357 126 373 219 373 L274 373 L21 0 L383 0 L384 167 L370 167 C338 37 320 19 224 20 L141 20 L398 393 Z M238 592 C209 592 187 570 187 541 C187 512 209 490 239 490 C270 490 291 510 291 540 C291 569 268 592 238 592 L238 592 Z " />
<glyph glyph-name="Zcaron" unicode="&#x17d;" horiz-adv-x="574" d="M330 720 L496 832 L490 843 L330 795 L169 843 L163 832 L330 720 Z M27 0 L526 0 L546 210 L532 210 C512 131 498 96 471 64 C435 24 420 20 320 20 L140 20 L557 667 L71 667 L51 463 L65 463 C106 615 147 654 254 647 L416 647 L27 44 L27 0 Z " />
<glyph glyph-name="zcaron" unicode="&#x17e;" horiz-adv-x="419" d="M241 547 L106 620 L98 610 L241 463 L385 610 L377 620 L241 547 Z M398 393 L60 393 L60 240 L74 240 C109 357 126 373 219 373 L274 373 L21 0 L383 0 L384 167 L370 167 C338 37 320 19 224 20 L141 20 L398 393 Z " />
<glyph glyph-name="florin" unicode="&#x192;" horiz-adv-x="525" d="M210 317 L135 -48 C112 -162 104 -189 82 -220 C69 -239 47 -250 25 -250 C10 -250 -1 -245 -1 -238 C-1 -236 1 -233 5 -229 C12 -221 15 -214 15 -206 C15 -189 -1 -176 -20 -176 C-41 -176 -57 -192 -57 -213 C-57 -244 -23 -267 21 -267 C85 -267 139 -229 181 -152 C211 -97 225 -54 249 62 L301 317 L397 317 L401 337 L305 337 L328 449 C357 594 396 660 452 660 C462 660 468 656 468 650 C468 646 466 643 460 640 C447 633 442 626 442 615 L442 614 C442 595 459 580 481 580 C507 580 527 599 527 623 C527 655 496 677 453 677 C386 677 326 634 281 556 C251 504 238 461 214 337 L121 337 L117 317 L210 317 Z " />
<glyph glyph-name="uni01CD" unicode="&#x1cd;" horiz-adv-x="616" d="M361 215 L430 20 L339 20 L339 0 L623 0 L623 20 L549 20 L323 667 L292 667 L55 20 L4 20 L4 0 L174 0 L174 20 L83 20 L151 215 L361 215 Z M355 235 L158 235 L257 512 L355 235 Z M305 720 L472 832 L466 843 L305 795 L144 843 L139 832 L305 720 Z " />
<glyph glyph-name="uni01CE" unicode="&#x1ce;" horiz-adv-x="465" d="M434 35 C416 20 413 19 403 19 C380 19 380 21 380 135 L380 245 C380 325 379 329 366 349 C344 382 292 403 232 403 C145 403 68 356 68 302 C68 277 88 259 114 259 C139 259 158 277 158 301 C158 313 153 321 141 333 C136 337 134 340 134 344 C134 364 178 386 218 386 C247 386 273 375 282 358 C289 345 290 337 290 286 L290 217 C220 216 176 209 137 195 C73 172 39 132 39 83 C39 28 85 -10 151 -10 C209 -10 258 18 290 68 C296 17 326 -10 375 -10 C403 -10 423 -2 447 20 L434 35 Z M290 180 C290 122 284 93 268 72 C248 46 224 34 194 34 C153 34 128 59 128 100 C128 136 147 163 185 181 C210 193 236 198 290 200 L290 180 Z M243 547 L108 620 L100 610 L243 463 L386 610 L378 620 L243 547 Z " />
<glyph glyph-name="uni01D3" unicode="&#x1d3;" horiz-adv-x="674" d="M544 647 L544 265 C544 147 540 125 517 84 C490 37 442 13 374 13 C311 13 258 39 234 83 C215 118 214 134 214 265 L214 647 L306 647 L306 667 L19 667 L19 647 L107 647 L107 265 C107 160 112 123 132 89 C167 28 250 -10 350 -10 C444 -10 507 19 539 76 C562 119 567 148 567 265 L567 647 L655 647 L655 667 L456 667 L456 647 L544 647 Z M366 720 L533 832 L527 843 L366 795 L205 843 L199 832 L366 720 Z " />
<glyph glyph-name="uni01D4" unicode="&#x1d4;" horiz-adv-x="557" d="M462 393 L297 393 L297 373 L372 373 L372 233 C372 128 368 101 349 66 C332 33 294 13 250 13 C222 13 201 22 193 37 C184 52 183 74 183 160 L183 393 L18 393 L18 373 L93 373 L93 160 C93 93 96 70 108 47 C129 11 175 -10 234 -10 C298 -10 342 11 372 55 L372 0 L532 0 L532 20 L462 20 L462 393 Z M283 547 L147 620 L140 610 L283 463 L426 610 L418 620 L283 547 Z " />
<glyph glyph-name="Gcaron" unicode="&#x1e6;" horiz-adv-x="669" d="M554 667 L540 667 L505 627 C448 662 402 677 348 677 C183 677 44 520 44 333 C44 145 178 -10 339 -10 C426 -10 520 36 560 99 C580 130 588 162 591 213 L658 213 L658 233 L362 233 L362 213 L467 213 C465 139 460 107 442 73 C423 39 375 13 328 13 C301 13 269 22 246 35 C210 55 188 94 181 148 C175 191 171 264 171 327 C171 458 182 541 205 586 C225 626 281 654 342 654 C400 654 449 632 486 589 C515 555 529 526 544 468 L559 468 L554 667 Z M347 720 L513 832 L508 843 L347 795 L186 843 L180 832 L347 720 Z " />
<glyph glyph-name="gcaron" unicode="&#x1e7;" horiz-adv-x="461" d="M282 22 L225 21 L166 20 L136 20 C91 20 71 31 71 57 C71 83 95 110 144 139 C171 127 193 123 224 123 C322 123 392 180 392 260 C392 293 381 322 359 350 C371 363 376 366 383 366 C389 366 392 362 395 350 C399 330 411 320 430 320 C452 320 468 336 468 358 C468 385 448 403 420 403 C395 403 373 391 344 362 C314 389 274 403 225 403 C130 403 58 343 58 262 C58 218 78 183 123 149 C61 110 31 69 31 23 C31 -20 60 -51 110 -64 C58 -79 27 -112 27 -151 C27 -218 111 -272 215 -272 C347 -272 437 -196 437 -84 C437 -41 421 -8 393 8 C374 19 357 22 317 22 L282 22 Z M228 383 C257 383 279 374 287 360 C295 346 297 328 297 274 C297 212 295 190 286 172 C277 154 253 144 222 144 C194 144 173 153 164 169 C156 182 153 204 153 245 C153 312 159 354 171 366 C180 377 202 383 228 383 L228 383 Z M341 -64 C381 -64 397 -76 397 -106 C397 -185 321 -247 224 -247 C147 -247 98 -206 98 -142 C98 -112 108 -89 132 -64 C154 -67 164 -67 188 -67 C204 -67 214 -67 293 -65 L341 -64 Z M231 547 L95 620 L87 610 L231 463 L374 610 L366 620 L231 547 Z " />
<glyph glyph-name="Scommaaccent" unicode="&#x218;" horiz-adv-x="523" d="M439 677 L424 677 L387 636 C341 665 303 677 256 677 C148 677 64 588 64 475 C64 422 84 377 120 349 C146 328 191 311 257 296 C324 282 362 268 384 250 C410 228 425 195 425 156 C425 71 363 13 272 13 C207 13 147 42 112 90 C89 122 76 154 68 206 L52 206 L52 0 L74 0 L113 48 C164 8 211 -10 269 -10 C390 -10 478 85 478 216 C478 270 463 314 433 348 C403 382 355 404 282 419 C212 433 153 456 136 477 C123 492 117 512 117 534 C117 604 175 654 255 654 C346 654 409 596 423 501 L439 501 L439 677 Z M251 -258 C311 -218 340 -175 340 -127 C340 -76 306 -40 259 -40 C220 -40 191 -65 191 -98 C191 -127 212 -147 240 -147 C268 -147 288 -128 288 -103 C288 -101 288 -97 287 -93 C303 -102 312 -117 312 -136 C312 -173 289 -204 236 -239 L251 -258 Z " />
<glyph glyph-name="scommaaccent" unicode="&#x219;" horiz-adv-x="358" d="M306 398 L290 398 L273 366 C238 393 209 403 172 403 C99 403 47 351 47 279 C47 251 55 225 71 204 C91 178 130 161 191 154 C260 146 291 126 291 89 C291 46 250 13 196 13 C160 13 123 29 103 53 C83 76 72 100 58 150 L43 150 L47 0 L58 0 L83 32 C123 2 153 -10 193 -10 C271 -10 328 47 328 126 C328 200 281 242 184 254 C113 263 81 280 81 310 C81 349 121 380 172 380 C234 380 283 340 293 280 L309 280 L306 398 Z M171 -250 C228 -212 256 -170 256 -124 C256 -75 223 -40 178 -40 C141 -40 113 -64 113 -96 C113 -123 133 -143 161 -143 C187 -143 207 -125 207 -101 C207 -99 207 -95 206 -91 C221 -100 229 -115 229 -132 C229 -168 208 -197 156 -232 L171 -250 Z " />
<glyph glyph-name="uni021A" unicode="&#x21a;" horiz-adv-x="604" d="M248 20 L150 20 L150 0 L455 0 L455 20 L357 20 L357 647 L389 647 C459 648 479 641 512 606 C546 565 566 520 578 456 L594 456 L586 667 L18 667 L11 456 L27 456 C42 535 64 581 106 621 C134 643 150 647 212 647 L248 647 L248 20 Z M295 -258 C354 -218 383 -175 383 -127 C383 -77 349 -40 302 -40 C264 -40 235 -65 235 -98 C235 -126 256 -147 284 -147 C311 -147 331 -128 331 -103 L331 -93 C347 -102 355 -117 355 -136 C355 -173 332 -204 279 -239 L295 -258 Z " />
<glyph glyph-name="uni021B" unicode="&#x21b;" horiz-adv-x="306" d="M182 546 L166 546 C140 475 93 423 24 387 L24 373 L92 373 L92 119 C92 66 93 56 103 39 C120 8 156 -10 201 -10 C262 -10 300 19 309 75 L288 75 C280 38 262 21 231 21 C212 21 196 29 189 42 C183 52 182 61 182 89 L182 373 L288 373 L288 393 L182 393 L182 546 Z M163 -250 C220 -212 248 -170 248 -124 C248 -75 215 -40 170 -40 C133 -40 105 -64 105 -96 C105 -123 125 -143 152 -143 C179 -143 198 -125 198 -101 L198 -91 C213 -100 221 -115 221 -132 C221 -168 200 -198 148 -232 L163 -250 Z " />
<glyph glyph-name="circumflex" unicode="&#x2c6;" horiz-adv-x="511" d="M255 536 L391 463 L399 473 L255 620 L112 474 L120 464 L255 536 Z " />
<glyph glyph-name="caron" unicode="&#x2c7;" horiz-adv-x="511" d="M255 547 L120 620 L112 610 L255 463 L399 610 L391 620 L255 547 Z " />
<glyph glyph-name="uni02C9" unicode="&#x2c9;" horiz-adv-x="511" d="M117 544 L117 510 L394 510 L394 544 L117 544 Z " />
<glyph glyph-name="breve" unicode="&#x2d8;" horiz-adv-x="512" d="M375 613 C356 559 312 528 254 528 C196 528 153 559 137 613 L124 613 C128 526 181 467 256 467 C332 467 384 525 387 613 L375 613 Z " />
<glyph glyph-name="dotaccent" unicode="&#x2d9;" horiz-adv-x="520" d="M259 592 C230 592 208 570 208 541 C208 512 230 490 260 490 C291 490 312 510 312 540 C312 569 289 592 259 592 L259 592 Z " />
<glyph glyph-name="ring" unicode="&#x2da;" horiz-adv-x="517" d="M244 615 C203 615 169 581 169 538 C169 496 202 463 245 463 C287 463 320 496 320 537 C320 581 287 615 244 615 L244 615 Z M245 587 C269 587 290 564 290 539 C290 513 269 491 244 491 C220 491 199 513 199 539 C199 565 220 587 245 587 L245 587 Z " />
<glyph glyph-name="ogonek" unicode="&#x2db;" horiz-adv-x="525" d="M407 0 C341 -26 310 -57 310 -98 C310 -137 343 -162 395 -162 C425 -162 449 -156 480 -141 L480 -124 C459 -131 448 -133 431 -133 C393 -133 370 -115 370 -85 C370 -54 391 -28 440 0 L407 0 Z " />
<glyph glyph-name="tilde" unicode="&#x2dc;" horiz-adv-x="510" d="M392 580 C373 553 365 548 345 548 C329 548 313 551 297 556 L253 571 C227 580 216 582 199 582 C153 582 131 564 106 506 L119 498 C133 523 143 530 164 530 C181 530 201 527 220 520 L262 507 C283 500 303 496 318 496 C351 496 378 519 405 572 L392 580 Z " />
<glyph glyph-name="hungarumlaut" unicode="&#x2dd;" horiz-adv-x="516" d="M405 616 L308 473 L317 463 L477 599 C480 602 482 605 482 608 C482 613 479 616 473 616 L405 616 Z M259 616 L162 473 L171 463 L331 599 C334 602 336 605 336 608 C336 613 333 616 327 616 L259 616 Z " />
<glyph glyph-name="Wdieresis" unicode="&#x1e84;" horiz-adv-x="839" d="M783 647 L839 647 L839 667 L661 667 L661 647 L755 647 L592 151 L487 442 L562 647 L625 647 L625 667 L-3 667 L-3 647 L55 647 L294 -10 L318 -10 L428 287 L539 -10 L562 -10 L783 647 Z M531 647 L473 482 L414 647 L531 647 Z M295 647 L416 326 L350 151 L172 647 L295 647 Z M335 830 C307 830 283 806 283 778 C283 749 306 727 335 727 C364 727 387 750 387 779 C387 807 363 830 335 830 L335 830 Z M556 830 C528 830 504 806 504 778 C504 749 527 727 556 727 C586 727 608 749 608 779 C608 807 585 830 556 830 L556 830 Z " />
<glyph glyph-name="uni2011" unicode="&#x2011;" horiz-adv-x="203" d="M0 234 L0 168 L203 168 L203 234 L0 234 Z " />
<glyph glyph-name="figuredash" unicode="&#x2012;" horiz-adv-x="525" d="M39 234 L39 168 L485 168 L485 234 L39 234 Z " />
<glyph glyph-name="endash" unicode="&#x2013;" horiz-adv-x="525" d="M39 234 L39 168 L485 168 L485 234 L39 234 Z " />
<glyph glyph-name="emdash" unicode="&#x2014;" horiz-adv-x="611" d="M0 234 L0 168 L611 168 L611 234 L0 234 Z " />
<glyph glyph-name="afii00208" unicode="&#x2015;" horiz-adv-x="611" d="M0 234 L0 168 L611 168 L611 234 L0 234 Z " />
<glyph glyph-name="quoteleft" unicode="&#x2018;" horiz-adv-x="251" d="M148 677 C82 625 49 568 49 508 C49 452 83 412 132 412 C172 412 202 439 202 475 C202 506 181 528 151 528 C123 528 102 508 102 480 C102 478 102 473 103 469 C86 480 77 496 77 517 C77 551 96 592 125 623 C134 633 143 640 164 656 L148 677 Z " />
<glyph glyph-name="quoteright" unicode="&#x2019;" horiz-adv-x="251" d="M103 412 C169 464 202 521 202 581 C202 637 167 677 119 677 C79 677 49 650 49 614 C49 583 70 561 100 561 C128 561 149 581 149 609 C149 611 149 616 148 620 C165 609 174 593 174 572 C174 538 155 496 126 466 C117 456 108 449 87 432 L103 412 Z " />
<glyph glyph-name="quotesinglbase" unicode="&#x201a;" horiz-adv-x="259" d="M106 -151 C175 -99 210 -42 210 18 C210 74 174 114 122 114 C80 114 49 87 49 51 C49 20 71 -2 102 -2 C132 -2 154 18 154 46 C154 48 154 52 153 57 C172 46 182 29 182 8 C182 -25 162 -67 130 -97 C121 -107 111 -115 89 -131 L106 -151 Z " />
<glyph glyph-name="quotedblleft" unicode="&#x201c;" horiz-adv-x="472" d="M369 677 C303 625 270 568 270 507 C270 452 305 412 353 412 C393 412 423 439 423 475 C423 506 402 528 373 528 C345 528 324 507 324 480 L324 469 C307 480 298 496 298 517 C298 551 317 593 346 623 C355 632 364 640 385 656 L369 677 Z M148 677 C82 625 49 568 49 508 C49 452 83 412 132 412 C172 412 202 439 202 475 C202 506 181 528 151 528 C123 528 102 508 102 480 C102 478 102 473 103 468 C86 480 77 496 77 517 C77 551 96 592 125 623 C134 632 143 640 164 656 L148 677 Z " />
<glyph glyph-name="quotedblright" unicode="&#x201d;" horiz-adv-x="472" d="M103 412 C169 464 202 521 202 582 C202 637 167 677 119 677 C79 677 49 650 49 614 C49 583 70 561 100 561 C128 561 149 581 149 608 C149 611 149 616 148 620 C166 609 174 593 174 572 C174 538 155 496 126 466 C117 456 108 449 87 432 L103 412 Z M325 412 C390 464 423 521 423 581 C423 637 388 677 340 677 C300 677 270 650 270 614 C270 583 291 561 321 561 C349 561 370 581 370 609 C370 612 370 616 369 620 C386 609 395 593 395 572 C395 538 376 496 347 466 C338 456 330 449 309 432 L325 412 Z " />
<glyph glyph-name="quotedblbase" unicode="&#x201e;" horiz-adv-x="480" d="M106 -151 C175 -99 210 -42 210 19 C210 74 174 114 123 114 C80 114 49 87 49 51 C49 20 71 -2 102 -2 C132 -2 154 18 154 45 C154 48 154 52 153 57 C172 46 182 29 182 8 C182 -25 162 -67 130 -97 C121 -107 112 -114 89 -131 L106 -151 Z M328 -151 C396 -99 431 -42 431 18 C431 74 395 114 343 114 C301 114 270 87 270 51 C270 20 292 -2 323 -2 C353 -2 375 18 375 46 C375 48 375 53 374 57 C393 46 403 29 403 8 C403 -25 383 -67 352 -97 C342 -107 333 -114 311 -131 L328 -151 Z " />
<glyph glyph-name="dagger" unicode="&#x2020;" horiz-adv-x="525" d="M254 369 C247 302 244 281 239 245 C210 44 204 -13 204 -84 C204 -156 223 -190 262 -190 C281 -190 299 -179 308 -162 C317 -146 321 -123 321 -81 C321 -35 313 57 303 126 L286 245 L281 281 C277 315 277 317 271 369 C319 355 323 354 379 336 C433 319 441 317 464 317 C499 317 524 339 524 370 C524 398 500 420 469 420 C457 420 443 418 428 415 C343 396 338 395 272 381 C281 424 291 468 302 513 C313 556 320 598 320 620 C320 654 297 677 262 677 C228 677 205 654 205 620 C205 596 212 555 223 513 C230 489 238 454 253 381 C196 393 188 394 144 404 C73 420 73 420 56 420 C25 420 1 398 1 370 C1 339 26 317 61 317 C84 317 92 319 146 336 C153 338 167 343 189 350 L222 359 L254 369 Z " />
<glyph glyph-name="daggerdbl" unicode="&#x2021;" horiz-adv-x="525" d="M254 407 C251 353 240 307 216 248 C240 190 251 144 254 89 C213 97 198 100 144 112 C73 128 73 128 56 128 C25 128 1 106 1 78 C1 47 26 25 61 25 C84 25 94 27 146 44 C162 49 169 52 222 67 L254 77 C250 64 247 55 247 51 L236 11 C235 7 230 -10 223 -35 C213 -67 208 -100 208 -126 C208 -164 231 -190 266 -190 C300 -190 321 -165 321 -123 C321 -96 316 -72 303 -31 C296 -8 291 8 290 13 C288 20 285 33 280 53 C278 61 276 69 274 76 L303 67 C358 51 365 49 379 44 C431 27 441 25 464 25 C499 25 524 47 524 78 C524 106 500 128 469 128 C457 128 443 126 428 123 C339 103 333 102 275 90 C276 144 286 187 312 248 C286 310 276 352 275 406 L303 397 C357 381 365 379 379 374 C431 357 441 355 464 355 C499 355 524 377 524 408 C524 436 500 458 469 458 C457 458 443 456 428 453 C341 433 335 432 274 420 C279 444 280 446 290 473 C311 535 321 577 321 610 C321 652 300 677 266 677 C232 677 208 651 208 614 C208 579 219 527 236 476 C245 450 247 445 254 420 C214 427 205 429 144 442 C77 457 73 458 56 458 C25 458 1 436 1 408 C1 377 26 355 61 355 C84 355 94 357 146 374 C162 379 168 381 222 397 L254 407 Z " />
<glyph glyph-name="bullet" unicode="&#x2022;" horiz-adv-x="700" d="M353 480 C270 480 206 418 206 340 C206 263 271 200 351 200 C430 200 495 263 495 340 C495 417 430 480 353 480 L353 480 Z " />
<glyph glyph-name="ellipsis" unicode="&#x2026;" horiz-adv-x="750" d="M125 110 C91 110 63 83 63 51 C63 19 90 -7 124 -7 C159 -7 187 19 187 51 C187 83 159 110 127 110 L125 110 Z M375 110 C341 110 313 83 313 51 C313 19 340 -7 374 -7 C409 -7 437 19 437 51 C437 83 409 110 377 110 L375 110 Z M625 110 C591 110 563 83 563 51 C563 19 590 -7 624 -7 C659 -7 687 19 687 51 C687 83 659 110 627 110 L625 110 Z " />
<glyph glyph-name="perthousand" unicode="&#x2030;" horiz-adv-x="1074" d="M175 653 C92 653 27 579 27 487 C27 394 92 320 174 320 C255 320 321 394 321 485 C321 579 256 653 175 653 L175 653 Z M109 557 C109 577 114 594 121 609 C130 625 150 635 174 635 C209 635 229 617 237 579 C239 569 242 496 242 464 C242 370 224 338 174 338 C123 338 106 370 106 469 L109 557 Z M511 647 L183 0 L214 0 L542 647 L511 647 Z M552 327 C470 327 405 253 405 161 C405 68 470 -6 552 -6 C632 -6 698 68 698 159 C698 253 634 327 552 327 L552 327 Z M487 231 C487 251 492 269 499 283 C508 299 528 309 552 309 C586 309 606 291 614 253 C616 243 619 170 619 138 C619 44 602 12 551 12 C500 12 484 44 484 143 L487 231 Z M901 327 C818 327 753 253 753 160 C753 68 818 -6 900 -6 C980 -6 1047 68 1047 158 C1047 253 983 327 901 327 L901 327 Z M835 231 C835 251 839 268 847 283 C856 299 876 309 900 309 C935 309 955 291 963 253 C965 243 968 170 968 138 C968 44 950 12 900 12 C848 12 832 44 832 143 L835 231 Z " />
<glyph glyph-name="guilsinglleft" unicode="&#x2039;" horiz-adv-x="281" d="M46 198 L162 94 L229 94 L111 198 L229 304 L167 304 L46 198 Z " />
<glyph glyph-name="guilsinglright" unicode="&#x203a;" horiz-adv-x="281" d="M236 200 L120 304 L53 304 L171 200 L53 94 L115 94 L236 200 Z " />
<glyph glyph-name="uni203E" unicode="&#x203e;" horiz-adv-x="500" d="M0 847 L0 807 L500 807 L500 847 L0 847 Z " />
<glyph glyph-name="fraction" unicode="&#x2044;" horiz-adv-x="100" d="M198 647 L-130 0 L-99 0 L229 647 L198 647 Z " />
<glyph glyph-name="franc" unicode="&#x20a3;" horiz-adv-x="754" d="M121 20 L33 20 L33 0 L320 0 L320 20 L228 20 L228 328 L265 328 C331 328 360 314 374 276 C380 259 382 248 386 196 L400 196 L400 471 L386 471 C383 361 363 346 228 347 L228 647 L297 647 C417 648 431 645 467 617 C497 592 520 545 533 481 L547 481 L533 667 L33 667 L33 647 L121 647 L121 20 Z M504 20 L434 20 L434 0 L668 0 L668 20 L594 20 L594 88 C594 190 602 244 625 290 C639 320 654 337 667 337 C674 337 676 332 677 316 C678 287 697 269 726 269 C755 269 778 291 778 320 C778 354 750 378 712 378 C661 378 624 345 594 273 L594 368 L434 368 L434 348 L504 348 L504 20 Z " />
<glyph glyph-name="Euro" unicode="&#x20ac;" horiz-adv-x="660" d="M224 381 C229 515 241 567 273 602 C302 635 352 654 406 654 C506 654 577 596 605 491 L621 491 L621 667 L605 667 L569 620 C518 658 462 677 404 677 C303 677 199 613 144 517 C121 476 107 433 99 381 L54 381 L40 349 L97 349 L97 346 L97 334 L97 320 L97 317 L54 317 L40 285 L99 285 C119 118 248 -10 397 -10 C455 -10 511 9 569 48 L605 0 L621 0 L621 189 L605 189 C561 71 493 13 397 13 C356 13 315 25 286 45 C259 64 244 88 235 125 C227 159 225 192 223 285 L451 285 L466 317 L223 317 L223 339 L223 346 L223 349 L480 349 L494 381 L224 381 Z " />
<glyph glyph-name="trademark" unicode="&#x2122;" horiz-adv-x="885" d="M161 306 L103 306 L103 287 L294 287 L294 306 L233 306 L233 648 L251 648 C310 653 342 622 359 541 L377 541 L372 667 L26 667 L21 541 L38 541 C55 622 86 653 144 648 L161 648 L161 306 Z M451 306 L399 306 L399 287 L526 287 L526 306 L473 306 L473 621 L589 287 L610 287 L724 617 L724 306 L669 306 L669 287 L847 287 L847 306 L795 306 L795 648 L847 648 L847 667 L717 667 L625 402 L536 667 L399 667 L399 648 L451 648 L451 306 Z " />
<glyph glyph-name="uni2126" unicode="&#x2126;" horiz-adv-x="768" d="M326 0 L308 155 C230 199 180 288 180 382 C180 434 195 493 221 540 C257 605 317 642 385 642 C453 642 513 605 549 540 C575 493 590 434 590 382 C590 288 540 199 462 155 L444 0 L736 0 L736 153 L712 153 C704 108 684 90 643 90 L497 90 L500 128 C535 141 557 151 580 166 C657 215 702 296 702 382 C702 449 673 522 625 578 C564 648 480 686 385 686 C290 686 206 648 145 578 C97 522 68 449 68 382 C68 296 113 215 190 166 C213 151 235 141 270 128 L273 90 L127 90 C86 90 66 108 58 153 L34 153 L34 0 L326 0 Z " />
<glyph glyph-name="partialdiff" unicode="&#x2202;" horiz-adv-x="494" d="M107 673 C152 697 184 706 219 706 C321 706 379 611 379 447 C379 418 377 394 372 346 C308 396 272 412 221 412 C172 412 131 394 95 355 C51 309 26 246 26 184 C26 76 109 -10 213 -10 C282 -10 341 22 383 84 C429 152 462 286 462 402 C462 519 429 610 360 681 C312 730 259 753 195 753 C156 753 121 745 66 724 L107 673 Z M366 312 C350 201 340 158 314 106 C288 54 245 21 201 21 C146 21 113 73 113 159 C113 273 180 367 261 367 C299 367 324 354 366 312 L366 312 Z " />
<glyph glyph-name="Delta" unicode="&#x2206;" horiz-adv-x="612" d="M6 0 L608 0 L327 688 L6 0 Z M77 51 L290 509 L479 51 L77 51 Z " />
<glyph glyph-name="product" unicode="&#x220f;" horiz-adv-x="823" d="M25 -124 L315 -124 L315 -98 L312 -98 C242 -94 221 -67 224 18 L224 594 C224 656 228 677 242 690 C260 707 272 708 413 708 C556 708 568 707 586 690 C600 677 604 656 604 594 L604 18 C607 -67 586 -94 516 -98 L513 -98 L513 -124 L803 -124 L803 -98 L800 -98 C730 -94 709 -67 712 18 L712 609 C709 694 730 721 800 725 L803 725 L803 751 L25 751 L25 725 L28 725 C98 721 119 694 116 609 L116 18 C119 -67 98 -94 28 -98 L25 -98 L25 -124 Z " />
<glyph glyph-name="summation" unicode="&#x2211;" horiz-adv-x="713" d="M176 711 L444 711 C560 710 590 688 606 587 L632 587 L622 752 L23 752 L256 285 L14 -123 L641 -123 L695 87 L669 87 C639 7 605 -12 491 -11 L163 -11 L364 341 L176 711 Z " />
<glyph glyph-name="minus" unicode="&#x2212;" horiz-adv-x="525" d="M49 341 L49 306 L476 306 L476 341 L49 341 Z " />
<glyph glyph-name="uni2215" unicode="&#x2215;" horiz-adv-x="100" d="M198 647 L-130 0 L-99 0 L229 647 L198 647 Z " />
<glyph glyph-name="uni2219" unicode="&#x2219;" horiz-adv-x="250" d="M125 259 C91 259 63 232 63 199 C63 168 91 142 124 142 C159 142 187 168 187 200 C187 232 159 259 127 259 L125 259 Z " />
<glyph glyph-name="radical" unicode="&#x221a;" horiz-adv-x="549" d="M363 -35 L515 908 L480 913 L353 123 L156 520 L10 449 L26 414 L121 461 L363 -35 Z " />
<glyph glyph-name="infinity" unicode="&#x221e;" horiz-adv-x="713" d="M357 227 C415 156 485 115 548 115 C631 115 688 176 688 266 C688 354 629 414 543 414 C476 414 412 376 357 303 C300 375 234 414 171 414 C86 414 26 351 26 263 C26 176 84 115 167 115 C224 115 281 142 327 192 L357 227 Z M391 264 C434 325 493 362 546 362 C600 362 638 321 638 264 C638 205 603 167 549 167 C495 167 461 188 391 264 L391 264 Z M324 266 C275 203 216 167 163 167 C111 167 76 207 76 266 C76 323 113 362 167 362 C218 362 258 337 324 266 L324 266 Z " />
<glyph glyph-name="integral" unicode="&#x222b;" horiz-adv-x="274" d="M180 576 C180 653 179 691 176 746 C174 774 173 800 173 815 C173 855 184 878 202 878 C208 878 213 876 215 872 C232 845 239 839 256 839 C276 839 291 853 291 871 C291 898 267 916 231 916 C186 916 152 887 138 838 C123 784 113 682 113 577 L113 232 C113 160 114 124 117 63 C119 34 120 4 120 -12 C120 -47 108 -70 89 -70 C81 -70 74 -65 68 -52 C59 -35 51 -30 37 -30 C17 -30 2 -44 2 -63 C2 -89 26 -107 62 -107 C107 -107 141 -78 155 -29 C170 25 180 126 180 232 L180 576 Z " />
<glyph glyph-name="approxequal" unicode="&#x2248;" horiz-adv-x="549" d="M489 251 C444 199 423 187 384 187 C365 187 354 190 285 211 C212 234 188 239 160 239 C101 239 54 211 14 155 L57 121 C103 174 120 184 159 184 C180 184 180 184 271 157 C350 133 354 132 385 132 C449 132 496 160 527 217 L489 251 Z M489 408 C443 356 423 344 384 344 C365 344 354 347 285 368 C212 391 188 396 160 396 C101 396 54 369 14 312 L57 278 C103 331 119 341 159 341 C180 341 180 341 271 314 C350 290 354 289 385 289 C449 289 496 317 527 374 L489 408 Z " />
<glyph glyph-name="notequal" unicode="&#x2260;" horiz-adv-x="549" d="M187 142 L115 -1 L161 -25 L246 142 L540 142 L540 197 L273 197 L344 336 L540 336 L540 391 L371 391 L439 525 L392 549 L312 391 L15 391 L15 336 L285 336 L215 197 L15 197 L15 142 L187 142 Z " />
<glyph glyph-name="lessequal" unicode="&#x2264;" horiz-adv-x="549" d="M526 55 L29 55 L29 0 L526 0 L526 55 Z M526 639 L29 405 L29 350 L526 117 L526 179 L108 378 L526 577 L526 639 Z " />
<glyph glyph-name="greaterequal" unicode="&#x2265;" horiz-adv-x="549" d="M526 55 L29 55 L29 0 L526 0 L526 55 Z M29 639 L29 577 L447 378 L29 179 L29 117 L526 350 L526 405 L29 639 Z " />
<glyph glyph-name="lozenge" unicode="&#x25ca;" horiz-adv-x="494" d="M209 0 L269 -1 L466 374 L277 740 L214 740 L18 377 L209 0 Z M240 58 L81 376 L245 683 L402 373 L240 58 Z " />
<glyph glyph-name="fi" unicode="&#xfb01;" horiz-adv-x="543" d="M455 393 L192 393 L192 528 C192 599 193 604 202 622 C214 644 252 659 297 659 C330 659 355 653 382 640 C365 624 359 611 359 591 C359 560 382 537 413 537 C442 537 464 561 464 592 C464 643 398 680 304 680 C219 680 159 651 127 593 C108 560 102 531 102 474 L102 393 L32 393 L32 373 L102 373 L102 20 L32 20 L32 0 L260 0 L260 20 L192 20 L192 373 L365 373 L365 20 L297 20 L297 0 L525 0 L525 20 L455 20 L455 393 Z " />
<glyph glyph-name="fl" unicode="&#xfb02;" horiz-adv-x="543" d="M192 20 L192 373 L292 373 L292 393 L192 393 L192 528 C192 599 193 604 202 622 C214 644 249 659 287 659 C326 659 350 646 360 618 C364 605 365 601 365 547 L365 20 L297 20 L297 0 L525 0 L525 20 L455 20 L455 680 L374 673 C340 678 318 680 295 680 C220 680 158 648 127 592 C108 559 102 531 102 474 L102 393 L32 393 L32 373 L102 373 L102 20 L32 20 L32 0 L260 0 L260 20 L192 20 Z " />
</font>
</svg>
