<?xml version="1.0" standalone="no"?>
<!DOCTYPE svg PUBLIC "-//W3C//DTD SVG 1.1//EN" "http://www.w3.org/Graphics/SVG/1.1/DTD/svg11.dtd" >
<svg xmlns="http://www.w3.org/2000/svg">
<metadata>
Created by FontPrep 20130207 at Fri May 26 16:13:10 2017
 By Lizzy Knight
Copyright 2016 by URW++ Design &#38; Development GmbH
</metadata>
<defs>
<font id="18a2e458e2ce2a86832477c75d56be7a" horiz-adv-x='1024' >
  <font-face 
    font-family="URWDINSemiCond-Bold"
    font-weight="700"
    font-stretch="normal"
    units-per-em="2048"
    panose-1="0 0 8 0 0 0 0 0 0 0"
    ascent="1462"
    descent="-586"
    x-height="1061"
    cap-height="1462"
    bbox="-188 -502 2474 2132"
    underline-thickness="188"
    underline-position="-96"
    unicode-range="U+0020-FB04"
  />
<missing-glyph horiz-adv-x="368" 
 />
    <glyph glyph-name="ff" unicode="ff" horiz-adv-x="1210" 
d="M731 842h-102v219h102v86q-2 186 70 253t262 62h121v-202h-62q-78 2 -98 -21t-20 -109v-69h188v-219h-188v-842h-273v842zM156 842h-109v219h109v86q-2 186 69 253q72 67 264 62h107v-202h-45q-79 2 -101 -21t-22 -109v-69h129v-219h-129v-842h-272v842z" />
    <glyph glyph-name="fi" unicode="fi" horiz-adv-x="1144" 
d="M754 0v1061h272v-1061h-272zM754 1202v273h272v-273h-272zM156 842h-109v219h109v86q-2 186 69 253q72 67 264 62h121v-202h-61q-77 2 -99 -21t-22 -109v-69h190v-219h-190v-842h-272v842z" />
    <glyph glyph-name="fl" unicode="fl" horiz-adv-x="1206" 
d="M750 1462h272v-1028q-2 -121 33 -166t131 -45h24v-223h-36q-262 0 -344 88q-81 88 -80 375v999zM156 842h-109v219h109v86q-2 186 69 253q72 67 264 62h121v-202h-61q-77 2 -99 -21t-22 -109v-69h190v-219h-190v-842h-272v842z" />
    <glyph glyph-name="ffi" unicode="ffi" horiz-adv-x="1718" 
d="M1327 0v1061h272v-1061h-272zM1327 1202v273h272v-273h-272zM729 842h-100v219h100v86q-2 186 70 253t264 62h121v-202h-62q-78 2 -100 -21t-21 -109v-69h191v-219h-191v-842h-272v842zM156 842h-109v219h109v86q-2 186 69 253q72 67 264 62h107v-202h-45q-79 2 -101 -21
t-22 -109v-69h129v-219h-129v-842h-272v842z" />
    <glyph glyph-name="ffl" unicode="ffl" horiz-adv-x="1779" 
d="M1325 1462h272v-1028q-2 -121 33 -166t131 -45h25v-223h-37q-262 0 -343 88t-81 375v999zM729 842h-100v219h100v86q-2 186 70 253t264 62h121v-202h-62q-78 2 -100 -21t-21 -109v-69h191v-219h-191v-842h-272v842zM156 842h-109v219h109v86q-2 186 69 253q72 67 264 62
h107v-202h-45q-79 2 -101 -21t-22 -109v-69h129v-219h-129v-842h-272v842z" />
    <glyph glyph-name=".notdef" horiz-adv-x="368" 
 />
    <glyph glyph-name=".null" horiz-adv-x="0" 
 />
    <glyph glyph-name="nonmarkingreturn" horiz-adv-x="681" 
 />
    <glyph glyph-name="space" unicode=" " horiz-adv-x="368" 
 />
    <glyph glyph-name="exclam" unicode="!" horiz-adv-x="626" 
d="M178 0v272h275v-272h-275zM203 420l-43 1042h309l-41 -1042h-225z" />
    <glyph glyph-name="quotedbl" unicode="&#x22;" horiz-adv-x="847" 
d="M494 860l-21 602h285l-21 -602h-243zM111 860l-21 602h285l-21 -602h-243z" />
    <glyph glyph-name="numbersign" unicode="#" horiz-adv-x="983" 
d="M408 600h143l24 197h-143zM182 600l25 197h-135l24 172h133l45 340h224l-43 -340h143l43 340h225l-43 -340h135l-24 -172h-133l-25 -197h135l-22 -172h-135l-43 -332h-226l43 332h-143l-43 -332h-225l43 332h-135l24 172h133z" />
    <glyph glyph-name="dollar" unicode="$" horiz-adv-x="983" 
d="M483 238q182 0 183 184q0 121 -102 166q-26 10 -152 47q-188 55 -271 153q-82 98 -82 271q0 330 299 385v223h281v-233q203 -55 262 -293l-239 -70q-33 90 -72 123t-111 33q-147 0 -147 -150q0 -82 49 -127t207 -92t227 -100q123 -94 123 -316q0 -180 -73 -281t-226 -136
v-301h-281v294q-152 35 -230 115t-112 234l242 71q29 -112 80 -156t145 -44z" />
    <glyph glyph-name="percent" unicode="%" horiz-adv-x="1773" 
d="M557 0l406 1462h254l-406 -1462h-254zM1481 317v127q0 94 -22 132t-74 38q-51 0 -73 -38t-22 -132v-127q0 -96 22 -134t74 -38t73 38q22 38 22 134zM1055 317v125q0 184 75 261q76 77 256 77t255 -77t75 -261v-125q0 -184 -75 -261q-75 -76 -255 -76t-256 76
q-75 77 -75 261zM483 1020v127q0 94 -21 133q-22 39 -74 39t-74 -39t-21 -133v-127q-1 -94 21 -132t74 -38t74 38q21 38 21 132zM57 1022v125q0 184 76 261t256 77t255 -77t75 -261v-125q0 -184 -75 -261t-255 -77t-256 77t-76 261z" />
    <glyph glyph-name="ampersand" unicode="&#x26;" horiz-adv-x="1402" 
d="M543 172q88 0 180 47q4 4 72 53l-240 322q-82 -53 -111 -80q-76 -72 -75 -178q0 -164 174 -164zM780 1128q0 143 -125 144q-59 0 -93 -35t-34 -111t97 -204q20 12 22 14q133 78 133 192zM500 -61q-210 0 -314 104t-104 293t147 340q45 45 166 125q-137 180 -137 338
t104 254t288 96t292 -95q109 -95 109 -261q0 -231 -273 -408l180 -248q49 96 82 232h267q-66 -266 -181 -443l207 -266h-327l-62 82q-176 -143 -444 -143z" />
    <glyph glyph-name="quotesingle" unicode="'" horiz-adv-x="464" 
d="M111 860l-21 602h285l-21 -602h-243z" />
    <glyph glyph-name="parenleft" unicode="(" horiz-adv-x="798" 
d="M725 -139l-193 -125q-182 242 -260 467t-77 504q-1 279 77 503t260 467l193 -127q-129 -220 -186 -418t-57 -425t56 -425t187 -421z" />
    <glyph glyph-name="parenright" unicode=")" horiz-adv-x="798" 
d="M604 706q0 -278 -78 -503t-260 -467l-192 125q131 225 187 422t56 423t-56 422t-187 422l192 127q182 -244 260 -468q78 -225 78 -503z" />
    <glyph glyph-name="asterisk" unicode="*" horiz-adv-x="983" 
d="M492 989l-138 -254l-211 137l174 236l-254 59l66 224l248 -95l-15 287h259l-15 -287l248 95l66 -224l-254 -59l174 -236l-211 -137z" />
    <glyph glyph-name="plus" unicode="+" horiz-adv-x="983" 
d="M78 618v216h297v329h235v-329h297v-216h-297v-327h-235v327h-297z" />
    <glyph glyph-name="comma" unicode="," horiz-adv-x="528" 
d="M55 -385l86 653h301l-139 -653h-248z" />
    <glyph glyph-name="hyphen" unicode="-" horiz-adv-x="813" 
d="M119 608v236h577v-236h-577z" />
    <glyph glyph-name="period" unicode="." horiz-adv-x="530" 
d="M121 0v272h289v-272h-289z" />
    <glyph glyph-name="slash" unicode="/" horiz-adv-x="712" 
d="M8 -41l428 1544h269l-429 -1544h-268z" />
    <glyph glyph-name="zero" unicode="0" horiz-adv-x="983" 
d="M625 535v393q0 184 -29 254q-28 70 -104 70t-105 -70t-29 -254v-393q0 -184 29 -254t105 -70t104 70t29 254zM76 510v442q0 276 95 404t329 129q234 0 336 -162q72 -115 71 -371v-442q0 -276 -88 -395q-103 -137 -337 -137t-335 161q-71 115 -71 371z" />
    <glyph glyph-name="one" unicode="1" horiz-adv-x="983" 
d="M371 0v1157l-193 -94l-98 223l391 176h188v-1462h-288z" />
    <glyph glyph-name="two" unicode="2" horiz-adv-x="983" 
d="M55 0v195l359 487q180 246 180 408t-115 161q-131 0 -143 -211l-264 11q10 223 109 328t298 105t300 -100t101 -281t-87 -337q-43 -78 -197 -281l-186 -249h469v-236h-824z" />
    <glyph glyph-name="three" unicode="3" horiz-adv-x="983" 
d="M57 1081q19 403 415 403t396 -413q0 -211 -129 -299q88 -59 125 -141t37 -217q0 -436 -426 -437q-428 0 -436 422l266 17q14 -205 158 -205q152 0 151 211q0 113 -48 174t-138 61h-119v224h101q90 0 131 45t41 143q0 182 -127 182q-63 0 -95 -42t-41 -138z" />
    <glyph glyph-name="four" unicode="4" horiz-adv-x="983" 
d="M561 0v254h-506v174l394 1034h296l-368 -977h184v316h258v-316h111v-231h-111v-254h-258z" />
    <glyph glyph-name="five" unicode="5" horiz-adv-x="983" 
d="M854 1462v-235h-442l-21 -312q72 23 135 23q199 0 289 -115q78 -98 78 -353t-95 -374q-96 -119 -314 -119q-218 -1 -318 101t-111 321l269 17q8 -205 145 -205t137 252q0 143 -29 197q-30 54 -113 54t-136 -85l-209 43l49 790h686z" />
    <glyph glyph-name="six" unicode="6" horiz-adv-x="983" 
d="M493 205q73 0 99 55q26 54 26 202t-27 204t-99 55q-72 0 -100 -55q-28 -54 -28 -202t28 -204q28 -55 101 -55zM580 936q121 0 206 -72q64 -55 90 -146t26 -250t-24 -246q-22 -87 -77 -138q-104 -106 -319 -106t-320 126q-80 94 -80 347q0 141 21 231q22 90 92 227
l272 553h317l-272 -532h14l33 4q6 2 21 2z" />
    <glyph glyph-name="seven" unicode="7" horiz-adv-x="983" 
d="M98 1227v235h752v-172l-375 -1290h-305l389 1227h-461z" />
    <glyph glyph-name="eight" unicode="8" horiz-adv-x="983" 
d="M629 428q1 127 -29 176t-109 49t-109 -48t-30 -176t30 -176t108 -48t109 48q30 48 30 175zM491 1272q-69 0 -95 -43t-26 -161t26 -163t95 -45t95 45t24 162q0 117 -25 161t-94 44zM874 1075q0 -211 -102 -301q76 -47 108 -128t31 -224q0 -236 -99 -340
q-98 -104 -322 -104t-322 104t-98 340q0 143 31 223q32 80 108 129q-102 88 -103 301q0 213 94 311t292 98t290 -98q92 -100 92 -311z" />
    <glyph glyph-name="nine" unicode="9" horiz-adv-x="983" 
d="M492 1257q-72 0 -100 -49t-28 -181t28 -182t100 -50t100 52t26 180q0 128 -27 179t-99 51zM408 582q-139 0 -218 71q-56 49 -82 137t-26 238q0 260 100 358q109 98 322 98t315 -118q82 -90 82 -328q0 -135 -18 -216t-80 -206l-299 -616h-318l293 588q-49 -6 -71 -6z" />
    <glyph glyph-name="colon" unicode=":" horiz-adv-x="530" 
d="M121 788v273h289v-273h-289zM121 0v272h289v-272h-289z" />
    <glyph glyph-name="semicolon" unicode=";" horiz-adv-x="528" 
d="M152 788v273h288v-273h-288zM55 -385l86 653h301l-139 -653h-248z" />
    <glyph glyph-name="less" unicode="&#x3c;" horiz-adv-x="983" 
d="M395 737l432 -217v-250l-716 387v162l716 387v-250z" />
    <glyph glyph-name="equal" unicode="=" horiz-adv-x="983" 
d="M109 807v205h763v-205h-763zM109 440v207h763v-207h-763z" />
    <glyph glyph-name="greater" unicode="&#x3e;" horiz-adv-x="983" 
d="M590 737l-432 219v250l716 -387v-162l-716 -387v250z" />
    <glyph glyph-name="question" unicode="?" horiz-adv-x="1026" 
d="M369 0v272h274v-272h-274zM393 414v80q-2 128 29 198t116 158t107 133q23 45 23 115t-34 110t-100 41q-66 0 -101 -48q-34 -48 -56 -177l-266 25q18 213 128 323t306 111q410 0 409 -391q0 -123 -45 -208t-178 -210q-63 -58 -90 -108t-25 -107v-45h-223z" />
    <glyph glyph-name="at" unicode="@" horiz-adv-x="1708" 
d="M903 870q-76 0 -129 -135q-45 -111 -45 -229t55 -117q68 0 131 121q63 120 63 240t-75 120zM1145 453q0 -76 57 -76q90 0 150 109q59 110 59 276q0 252 -142 400t-398 148t-412 -201t-156 -533t142 -490t458 -158q213 0 428 92l64 -157q-240 -117 -500 -117
q-182 0 -340 50t-258 141q-217 199 -217 625t215 677q215 252 569 252t558 -198t204 -525q0 -250 -126 -411t-322 -160q-84 1 -131 35t-68 114q-59 -82 -113 -116t-129 -33q-113 1 -175 77t-62 213q0 233 114 408q106 156 269 156q69 0 107 -25t69 -90l22 92h164l-84 -459
q-16 -88 -16 -116z" />
    <glyph glyph-name="A" unicode="A" horiz-adv-x="1114" 
d="M715 512l-156 588l-153 -588h309zM774 283h-430l-74 -283h-311l469 1462h262l469 -1462h-311z" />
    <glyph glyph-name="B" unicode="B" horiz-adv-x="1150" 
d="M426 231h190q96 0 136 44q39 44 39 153t-38 155t-128 46h-199v-398zM426 860h178q86 0 125 44t39 143t-38 141t-128 43h-176v-371zM139 0v1462h482q127 0 199 -20t126 -70q109 -104 109 -315t-125 -293q78 -57 112 -140t35 -218q0 -225 -119 -328q-92 -78 -294 -78h-525z
" />
    <glyph glyph-name="C" unicode="C" horiz-adv-x="1107" 
d="M577 -23q-267 0 -382 164q-84 119 -84 389v398q0 295 102 413q119 139 351 139t342 -106t118 -330l-264 -8q-10 115 -51 163t-136 48t-135 -72q-39 -73 -39 -268v-356q0 -195 39 -267q38 -72 138 -73q100 0 145 53t55 172l266 -16q-8 -193 -81 -289q-117 -154 -384 -154z
" />
    <glyph glyph-name="D" unicode="D" horiz-adv-x="1196" 
d="M428 231h123q145 -1 193 61t51 251v377q-3 188 -51 249t-193 62h-123v-1000zM139 0v1462h434q270 6 394 -116q123 -123 116 -392v-446q7 -268 -115 -390t-395 -118h-434z" />
    <glyph glyph-name="E" unicode="E" horiz-adv-x="1034" 
d="M141 0v1462h811v-235h-524v-371h442v-235h-442v-385h533v-236h-820z" />
    <glyph glyph-name="F" unicode="F" horiz-adv-x="983" 
d="M141 0v1462h799v-235h-510v-383h424v-236h-424v-608h-289z" />
    <glyph glyph-name="G" unicode="G" horiz-adv-x="1173" 
d="M612 590v221h469v-258q0 -283 -84 -406q-121 -170 -400 -170t-400 164q-86 117 -86 389v400q0 160 24 254q79 296 455 297q223 -1 335 -107t119 -327l-264 -11q-10 113 -53 162t-143 49q-100 -1 -143 -73q-42 -72 -42 -265v-358q0 -195 43 -267q42 -72 152 -73
q110 0 157 64q46 65 46 217v98h-185z" />
    <glyph glyph-name="H" unicode="H" horiz-adv-x="1214" 
d="M139 0v1462h289v-606h356v606h289v-1462h-289v621h-356v-621h-289z" />
    <glyph glyph-name="I" unicode="I" horiz-adv-x="569" 
d="M139 0v1462h289v-1462h-289z" />
    <glyph glyph-name="J" unicode="J" horiz-adv-x="860" 
d="M440 1462h289v-923q0 -176 -9 -255t-38 -134q-88 -172 -338 -173q-119 0 -209 38t-186 128l162 187q111 -119 201 -119t116 111q12 63 12 213v927z" />
    <glyph glyph-name="K" unicode="K" horiz-adv-x="1099" 
d="M143 0v1462h287v-569l369 569h325l-426 -602l441 -860h-326l-293 647l-90 -137v-510h-287z" />
    <glyph glyph-name="L" unicode="L" horiz-adv-x="978" 
d="M139 0v1462h289v-1226h530v-236h-819z" />
    <glyph glyph-name="M" unicode="M" horiz-adv-x="1460" 
d="M139 0v1462h269l321 -790l322 790h268v-1462h-277v877l-221 -562h-184l-221 562v-877h-277z" />
    <glyph glyph-name="N" unicode="N" horiz-adv-x="1269" 
d="M139 0v1462h283l434 -934v934h274v-1462h-276l-440 940v-940h-275z" />
    <glyph glyph-name="O" unicode="O" horiz-adv-x="1196" 
d="M795 535v393q0 184 -42 254t-155 70t-156 -70t-43 -254v-393q0 -184 43 -254t156 -70t155 70t42 254zM111 510v442q0 268 100 389q117 143 397 143t393 -167q82 -117 82 -365v-442q0 -268 -100 -389q-117 -143 -395 -143t-398 167q-79 117 -79 365z" />
    <glyph glyph-name="P" unicode="P" horiz-adv-x="1079" 
d="M422 752h143q100 0 142 54q41 54 41 185t-42 185t-141 55h-143v-479zM428 520v-520h-289v1462h424q145 0 229 -26q242 -76 242 -445q0 -258 -119 -370q-102 -100 -352 -101h-135z" />
    <glyph glyph-name="Q" unicode="Q" horiz-adv-x="1196" 
d="M795 535v393q0 184 -42 254t-155 70t-156 -70t-43 -254v-393q0 -184 43 -254t156 -70q55 0 90 16l-182 158l145 154l140 -121q4 78 4 117zM598 -23q-289 0 -408 168q-80 117 -79 365v442q0 268 100 389q117 143 397 143t393 -167q82 -117 82 -365v-442q0 -190 -47 -303
l121 -107l-145 -153l-113 98q-104 -68 -301 -68z" />
    <glyph glyph-name="R" unicode="R" horiz-adv-x="1146" 
d="M424 815h156q102 0 145 47t43 160t-43 161t-145 48h-156v-416zM430 594v-594h-289v1462h459q139 0 219 -24q235 -69 236 -404q0 -186 -50 -279t-178 -139l277 -616h-320l-237 594h-117z" />
    <glyph glyph-name="S" unicode="S" horiz-adv-x="1034" 
d="M498 211q102 0 151 47q49 46 49 146q0 134 -104 174q-27 10 -191 58q-165 48 -247 146t-82 288t114 302t310 111q198 0 298 -80t142 -260l-242 -70q-33 104 -71 141q-39 37 -115 37t-118 -47t-42 -133t50 -133t178 -84t176 -57q47 -20 94 -56q127 -94 127 -319
q0 -444 -477 -445q-274 0 -392 146q-57 76 -90 215l246 72q29 -109 81 -154q53 -45 155 -45z" />
    <glyph glyph-name="T" unicode="T" horiz-adv-x="962" 
d="M338 0v1227h-322v235h930v-235h-319v-1227h-289z" />
    <glyph glyph-name="U" unicode="U" horiz-adv-x="1218" 
d="M135 1462h289v-960q0 -174 37 -232t149 -59q112 0 148 58q37 58 37 233v960h288v-960q0 -152 -16 -232t-61 -137q-117 -156 -409 -156t-400 181q-61 96 -62 344v960z" />
    <glyph glyph-name="V" unicode="V" horiz-adv-x="1107" 
d="M428 0l-430 1462h289l268 -1046l266 1046h289l-430 -1462h-252z" />
    <glyph glyph-name="W" unicode="W" horiz-adv-x="1679" 
d="M346 0l-313 1462h289l170 -1024l237 1024h223l238 -1024l172 1024h287l-314 -1462h-260l-233 965l-236 -965h-260z" />
    <glyph glyph-name="X" unicode="X" horiz-adv-x="1067" 
d="M369 776l-357 686h316l237 -463l199 463h303l-360 -727l383 -735h-316l-264 510l-221 -510h-303z" />
    <glyph glyph-name="Y" unicode="Y" horiz-adv-x="985" 
d="M352 0v516l-399 946h305l240 -635l237 635h305l-399 -946v-516h-289z" />
    <glyph glyph-name="Z" unicode="Z" horiz-adv-x="987" 
d="M63 0v172l519 1055h-482v235h803v-172l-520 -1054h545v-236h-865z" />
    <glyph glyph-name="bracketleft" unicode="[" horiz-adv-x="798" 
d="M246 -201v1813h442v-199h-166v-1415h166v-199h-442z" />
    <glyph glyph-name="backslash" unicode="\" horiz-adv-x="712" 
d="M705 -41h-269l-428 1544h268z" />
    <glyph glyph-name="bracketright" unicode="]" horiz-adv-x="798" 
d="M555 1612v-1813h-442v199h166v1415h-166v199h442z" />
    <glyph glyph-name="asciicircum" unicode="^" horiz-adv-x="983" 
d="M489 1145l-157 -379h-316l394 704h161l392 -704h-314z" />
    <glyph glyph-name="underscore" unicode="_" horiz-adv-x="839" 
d="M-45 -379v189h928v-189h-928z" />
    <glyph glyph-name="grave" unicode="`" 
d="M655 1188h-202l-250 317h301z" />
    <glyph glyph-name="a" unicode="a" horiz-adv-x="972" 
d="M592 461h-109q-85 0 -119 -33t-34 -109q0 -75 28 -103t104 -28q74 0 102 34t28 126v113zM592 645v33q0 100 -29 142t-93 42t-94 -26t-52 -95l-230 70q70 272 383 272q254 0 340 -163q47 -88 47 -277v-643h-213l-16 59q-80 -82 -249 -82t-246 77q-77 78 -77 262t78 256
t285 73h166z" />
    <glyph glyph-name="b" unicode="b" horiz-adv-x="1021" 
d="M655 442v197q0 115 -30 167q-31 52 -101 52q-137 0 -137 -219v-217q0 -219 137 -219q70 0 101 56q30 56 30 183zM115 0v1462h272v-440q86 61 201 61q178 0 259 -105t81 -337v-192q0 -250 -81 -361t-265 -111q-86 1 -136 19t-106 72l-16 -68h-209z" />
    <glyph glyph-name="c" unicode="c" horiz-adv-x="890" 
d="M367 432q1 -233 127 -233q64 1 94 29q31 28 47 94l233 -50q-23 -123 -77 -186q-99 -109 -305 -109t-299 115t-93 365v147q0 254 94 368t306 113q162 -1 246 -65t118 -215l-231 -70q-33 129 -131 129q-70 0 -100 -55t-29 -182v-195z" />
    <glyph glyph-name="d" unicode="d" horiz-adv-x="1021" 
d="M367 639v-195q1 -127 31 -184t100 -57q135 0 135 219v217q0 219 -137 219q-68 0 -98 -52t-31 -167zM427 -23q-169 0 -251 110t-82 362v192q0 231 81 337t257 105q115 0 201 -61v440h274v-1462h-211l-16 68q-84 -91 -253 -91z" />
    <glyph glyph-name="e" unicode="e" horiz-adv-x="1001" 
d="M367 655h290v31q0 190 -145 191q-145 0 -145 -191v-31zM369 463v-51q-1 -115 35 -166t118 -51q125 0 156 127l231 -52q-33 -160 -125 -226t-294 -67q-202 0 -300 115q-96 115 -96 377v117q0 266 96 382t316 116t315 -116q96 -116 97 -382v-123h-549z" />
    <glyph glyph-name="f" unicode="f" horiz-adv-x="636" 
d="M156 842h-109v219h109v86q-2 186 69 253q72 67 264 62h121v-202h-61q-77 2 -99 -21t-22 -109v-69h190v-219h-190v-842h-272v842z" />
    <glyph glyph-name="g" unicode="g" horiz-adv-x="1021" 
d="M367 639v-193q1 -129 31 -186t100 -57q137 0 137 219v217q0 219 -137 219q-70 0 -100 -52t-31 -167zM635 -20v53q-82 -55 -197 -56q-182 0 -263 111t-81 361v192q0 231 81 337t244 105q163 0 253 -90l26 68h209v-1049q0 -258 -102 -377t-322 -118q-164 0 -249 63
t-117 211l227 59q24 -72 52 -96t98 -24t106 58q35 58 35 192z" />
    <glyph glyph-name="h" unicode="h" horiz-adv-x="1028" 
d="M115 0v1462h272v-438q90 59 202 59q113 0 191 -47t110 -127t32 -266v-643h-273v616q0 127 -28 181q-29 53 -101 53t-102 -55t-31 -191v-604h-272z" />
    <glyph glyph-name="i" unicode="i" horiz-adv-x="509" 
d="M119 0v1061h272v-1061h-272zM119 1202v273h272v-273h-272z" />
    <glyph glyph-name="j" unicode="j" horiz-adv-x="520" 
d="M129 1202v273h272v-273h-272zM129 1061h272v-1022q4 -309 -91 -411t-386 -99v223q117 -4 162 52t43 206v1051z" />
    <glyph glyph-name="k" unicode="k" horiz-adv-x="972" 
d="M119 0v1462h272v-835l295 434h299l-328 -445l334 -616h-297l-205 418l-98 -137v-281h-272z" />
    <glyph glyph-name="l" unicode="l" horiz-adv-x="571" 
d="M115 1462h272v-1028q-2 -121 33 -166t131 -45h24v-223h-36q-262 0 -343 88t-81 375v999z" />
    <glyph glyph-name="m" unicode="m" horiz-adv-x="1511" 
d="M115 0v1061h202l21 -80q84 102 246 102t245 -114q82 115 248 114q227 0 297 -178q31 -76 31 -262v-643h-272v610q0 132 -27 186t-91 54t-91 -55t-27 -191v-604h-274v608q0 134 -26 188q-25 54 -91 54t-92 -56t-27 -198v-596h-272z" />
    <glyph glyph-name="n" unicode="n" horiz-adv-x="1028" 
d="M115 0v1061h202l23 -84q86 106 250 106q110 0 188 -47t111 -127t33 -266v-643h-273v608q0 133 -28 188q-29 54 -102 54t-103 -56t-29 -200v-594h-272z" />
    <glyph glyph-name="o" unicode="o" horiz-adv-x="1013" 
d="M647 432v199q0 129 -31 180q-30 51 -108 51t-110 -52t-31 -179v-199q-1 -129 31 -181t110 -52t108 52t31 181zM94 432v199q0 242 96 347t316 105t317 -105q96 -105 97 -347v-199q0 -244 -96 -349t-317 -105t-317 106t-96 348z" />
    <glyph glyph-name="p" unicode="p" horiz-adv-x="1021" 
d="M655 442v197q0 115 -30 167q-31 52 -101 52q-137 0 -137 -219v-217q0 -219 137 -219q70 0 101 56q30 56 30 183zM115 -461v1522h209l26 -68q96 90 236 90q180 0 261 -104t81 -338v-192q0 -252 -81 -362t-267 -110q-104 0 -193 54v-492h-272z" />
    <glyph glyph-name="q" unicode="q" horiz-adv-x="1021" 
d="M367 639v-195q1 -127 31 -184t100 -57q135 0 135 219v217q0 219 -137 219q-68 0 -98 -52t-31 -167zM633 -461v492q-82 -53 -191 -54q-186 0 -267 111t-81 361v192q0 233 81 337t259 105q139 0 236 -90l26 68h211v-1522h-274z" />
    <glyph glyph-name="r" unicode="r" horiz-adv-x="722" 
d="M115 0v1061h207l34 -76q45 55 86 77t119 22t189 -68l-119 -228q-68 60 -128 60t-88 -78t-28 -258v-512h-272z" />
    <glyph glyph-name="s" unicode="s" horiz-adv-x="901" 
d="M590 311q0 47 -25 71t-82 34q-209 41 -274 76q-133 68 -133 264q0 158 94 242t264 85q170 0 257 -63t122 -209l-225 -59q-16 59 -48 86t-89 26q-119 0 -119 -106q0 -49 33 -74t114 -39q209 -35 277 -90q90 -74 90 -245t-100 -252t-298 -81q-198 -1 -291 67t-128 226
l233 52q20 -74 57 -101t117 -26q154 0 154 116z" />
    <glyph glyph-name="t" unicode="t" horiz-adv-x="647" 
d="M145 842h-108v219h108l17 299h256v-299h186v-219h-186v-434q0 -109 31 -148t118 -37h35v-223h-53q-254 0 -330 81t-74 353v408z" />
    <glyph glyph-name="u" unicode="u" horiz-adv-x="1007" 
d="M109 1061h274v-608q0 -133 26 -187q25 -54 93 -55q68 0 94 56t27 200v594h272v-1061h-193l-28 88q-45 -63 -97 -87t-143 -24q-225 0 -295 179q-31 76 -30 262v643z" />
    <glyph glyph-name="v" unicode="v" horiz-adv-x="923" 
d="M330 0l-312 1061h279l166 -711l168 711h276l-311 -1061h-266z" />
    <glyph glyph-name="w" unicode="w" horiz-adv-x="1400" 
d="M299 0l-264 1061h278l121 -688l168 688h195l168 -688l122 688h279l-264 -1061h-238l-164 627l-163 -627h-238z" />
    <glyph glyph-name="x" unicode="x" horiz-adv-x="882" 
d="M289 545l-285 516h303l158 -291l141 291h295l-305 -522l299 -539h-303l-168 309l-148 -309h-296z" />
    <glyph glyph-name="y" unicode="y" horiz-adv-x="925" 
d="M78 -471v223q118 0 154 31t73 162l17 67l-306 1049h277l170 -723l164 723h278l-319 -1139q-74 -256 -163 -324t-345 -69z" />
    <glyph glyph-name="z" unicode="z" horiz-adv-x="835" 
d="M41 0v164l389 676h-350v221h678v-166l-389 -674h413v-221h-741z" />
    <glyph glyph-name="braceleft" unicode="{" horiz-adv-x="798" 
d="M524 1161v-121q2 -160 -15 -213t-85 -94q68 -39 85 -93t15 -216v-174q0 -164 25 -216t104 -52h45v-183h-108q-217 -2 -284 80t-60 340v221q2 133 -18 171t-93 40h-16v162h16q74 4 93 41t18 170v168q-6 258 60 340q67 82 284 80h108v-182h-45q-81 0 -105 -52t-24 -217z
" />
    <glyph glyph-name="bar" unicode="|" horiz-adv-x="983" 
d="M373 -201v1813h235v-1813h-235z" />
    <glyph glyph-name="braceright" unicode="}" horiz-adv-x="798" 
d="M276 250v174q-4 162 15 217q18 55 86 92q-68 41 -85 94t-16 213v121q0 164 -24 215q-25 51 -107 54h-45v182h111q217 2 284 -80t60 -340v-168q-2 -133 17 -170t94 -41h14v-162h-14q-74 -2 -94 -40t-17 -171v-221q9 -258 -59 -340t-285 -80h-111v183h45q82 2 107 52
q24 50 24 216z" />
    <glyph glyph-name="asciitilde" unicode="~" horiz-adv-x="983" 
d="M346 897q49 0 78 -11t90 -55q100 -66 135 -65q61 0 105 123l153 -47q-35 -119 -78 -174q-82 -106 -196 -107q-47 -1 -81 15t-106 66t-108 50q-63 0 -102 -133l-158 37q35 158 98 230t170 71z" />
    <glyph glyph-name="uni00A0" unicode="&#xa0;" horiz-adv-x="368" 
 />
    <glyph glyph-name="exclamdown" unicode="&#xa1;" horiz-adv-x="626" 
d="M451 1055v-273h-275v273h275zM428 633l41 -1041h-309l43 1041h225z" />
    <glyph glyph-name="cent" unicode="&#xa2;" horiz-adv-x="983" 
d="M389 43v240q-137 33 -201 144q-63 112 -61 312v148q-2 205 60 315t202 148v227h281v-234q90 -29 141 -90t76 -176l-219 -57q-18 72 -50 102t-98 31q-64 0 -96 -57t-33 -187v-194q1 -235 135 -237q66 0 100 30q34 31 52 102l221 -55q-29 -121 -79 -181t-150 -87v-244h-281
z" />
    <glyph glyph-name="sterling" unicode="&#xa3;" horiz-adv-x="983" 
d="M82 0v203q203 57 203 272q0 53 -13 105h-192v235h98q-59 139 -59 268q0 195 100 297q99 102 289 102t294 -94q104 -95 132 -292l-250 -52q-23 115 -58 162q-36 47 -102 47q-119 0 -118 -166q0 -113 79 -272h295v-235h-231q6 -59 6 -84q0 -166 -94 -260h500v-236h-879z
" />
    <glyph glyph-name="currency" unicode="&#xa4;" horiz-adv-x="983" 
d="M680 678q0 116 -49 184q-49 66 -138 66t-139 -65t-49 -183q0 -118 50 -184q51 -66 139 -66t137 66t49 182zM80 679q0 136 63 247l-147 164l137 124l139 -155q96 63 220 63t221 -63l139 155l137 -124l-147 -164q63 -106 63 -246t-63 -250l147 -162l-137 -125l-139 154
q-100 -61 -221 -61t-220 61l-139 -154l-137 125l147 162q-63 113 -63 249z" />
    <glyph glyph-name="yen" unicode="&#xa5;" horiz-adv-x="983" 
d="M352 0v281h-252v151h252v103h-252v151h187l-328 776h305l234 -641l229 641h305l-327 -776h186v-151h-250v-103h250v-151h-250v-281h-289z" />
    <glyph glyph-name="brokenbar" unicode="&#xa6;" horiz-adv-x="892" 
d="M315 0v551h263v-551h-263zM315 885v577h263v-577h-263z" />
    <glyph glyph-name="section" unicode="&#xa7;" horiz-adv-x="983" 
d="M336 660q0 -68 37 -103t162 -86l69 -29l8 13l17 18q31 39 31 103t-39 100q-38 35 -158 86l-70 29l-22 -25q-35 -38 -35 -106zM509 1485q198 0 294 -115q41 -45 67 -149l-231 -66q0 4 -8 19q-39 88 -121 88q-53 0 -84 -29t-31 -86t31 -85q32 -28 60 -40t120 -45
q180 -63 247 -139t67 -203q0 -81 -34 -145t-116 -132q63 -45 88 -97t25 -134q1 -183 -105 -277t-298 -94t-292 66t-143 217l234 63q36 -72 74 -98q38 -25 102 -24q152 0 151 112q0 57 -37 89t-193 83t-228 128q-73 77 -72 202q0 84 34 147t117 133q-59 46 -84 104t-24 148
q0 174 96 266t294 93z" />
    <glyph glyph-name="dieresis" unicode="&#xa8;" 
d="M575 1194v264h242v-264h-242zM207 1194v264h242v-264h-242z" />
    <glyph glyph-name="copyright" unicode="&#xa9;" horiz-adv-x="1667" 
d="M834 1321q-240 0 -395 -165t-155 -424t156 -425q154 -166 395 -166t395 166t154 422t-154 424q-156 168 -396 168zM837 1501q329 0 543 -220t215 -552q0 -332 -216 -550q-215 -218 -545 -218t-546 218t-216 551t215 552q221 219 550 219zM537 774q0 170 65 238
q74 82 228 82t221 -54q68 -54 71 -174l-192 -6q-6 46 -26 64t-68 18t-68 -33t-20 -114v-127q0 -82 20 -115t70 -33t72 18t30 64l195 -10q-2 -104 -56 -154q-77 -70 -241 -70t-233 74t-68 246v86z" />
    <glyph glyph-name="ordfeminine" unicode="&#xaa;" horiz-adv-x="649" 
d="M385 1069h-66q-47 0 -67 -19t-21 -65q0 -84 74 -84q80 0 80 78v90zM375 1188v45q0 100 -72 100q-53 0 -80 -65l-153 49q60 160 246 160t237 -101q25 -55 25 -172v-428h-162l-6 39q-53 -53 -161 -53t-158 49t-50 165t60 164t212 48h62z" />
    <glyph glyph-name="guillemotleft" unicode="&#xab;" horiz-adv-x="925" 
d="M324 604l147 -258l-170 -117l-268 375l268 373l170 -115zM743 604l146 -258l-168 -117l-268 375l268 373l168 -115z" />
    <glyph glyph-name="logicalnot" unicode="&#xac;" horiz-adv-x="983" 
d="M94 618v216h752v-611h-262v395h-490z" />
    <glyph glyph-name="uni00AD" unicode="&#xad;" horiz-adv-x="813" 
d="M119 608v236h577v-236h-577z" />
    <glyph glyph-name="registered" unicode="&#xae;" horiz-adv-x="1402" 
d="M700 1638q-196 0 -316 -127t-120 -325t120 -326q120 -127 316 -127t317 129q120 129 120 326q0 198 -121 324q-120 126 -316 126zM703 1802q268 0 444 -177t176 -440t-178 -439q-177 -176 -445 -177q-268 0 -445 175q-177 174 -177 442t178 442q179 174 447 174z
M643 1206h70q37 0 53 18t16 58q0 72 -69 72h-70v-148zM647 1110v-211h-176v574h260q121 0 173 -41t52 -136q0 -129 -90 -168l121 -229h-188l-97 211h-55z" />
    <glyph glyph-name="macron" unicode="&#xaf;" 
d="M217 1231v196h590v-196h-590z" />
    <glyph glyph-name="degree" unicode="&#xb0;" horiz-adv-x="802" 
d="M401 1352q-135 0 -135 -160t135 -160t136 160q-1 160 -136 160zM402 1530q170 0 263 -89t93 -249t-93 -248t-263 -88t-264 88q-93 88 -93 249t93 249q94 88 264 88z" />
    <glyph glyph-name="plusminus" unicode="&#xb1;" horiz-adv-x="983" 
d="M78 12v215h829v-215h-829zM78 645v215h297v318h235v-318h297v-215h-297v-317h-235v317h-297z" />
    <glyph glyph-name="twosuperior" unicode="&#xb2;" horiz-adv-x="675" 
d="M45 791v139l229 284q111 134 111 216t-61 81q-72 0 -80 -120l-201 8q2 281 284 281t281 -244q0 -94 -32 -156t-150 -205l-92 -114h270v-170h-559z" />
    <glyph glyph-name="threesuperior" unicode="&#xb3;" horiz-adv-x="675" 
d="M205 1180v145h84q96 0 96 100q0 88 -70 88q-35 1 -53 -21t-24 -73l-197 6q8 121 51 172q72 84 234 84q276 0 276 -245q0 -125 -72 -181q92 -63 92 -204t-70 -207t-222 -66t-225 64t-76 202l202 13q6 -109 90 -109t85 103q0 129 -107 129h-94z" />
    <glyph glyph-name="acute" unicode="&#xb4;" 
d="M369 1188l151 317h301l-250 -317h-202z" />
    <glyph glyph-name="mu" unicode="&#xb5;" horiz-adv-x="983" 
d="M104 1055h265v-590q0 -145 26 -204q27 -58 95 -58t96 63q29 63 28 215v574h265v-1055h-177l-34 102q-33 -72 -76 -100t-113 -27q-70 0 -110 35v-471h-265v1516z" />
    <glyph glyph-name="paragraph" unicode="&#xb6;" horiz-adv-x="1263" 
d="M389 -279v943h-35q-130 0 -204 48t-117 141t-43 214t48 218t130 138q53 27 100 33t197 6h600v-1741h-256v1518h-164v-1518h-256z" />
    <glyph glyph-name="periodcentered" unicode="&#xb7;" horiz-adv-x="530" 
d="M121 590v272h289v-272h-289z" />
    <glyph glyph-name="cedilla" unicode="&#xb8;" 
d="M348 -489l86 360h258l-160 -360h-184z" />
    <glyph glyph-name="onesuperior" unicode="&#xb9;" horiz-adv-x="600" 
d="M227 791v667l-123 -49l-59 143l254 115h147v-876h-219z" />
    <glyph glyph-name="ordmasculine" unicode="&#xba;" horiz-adv-x="655" 
d="M406 1044v148q0 129 -78 129t-78 -129v-148q0 -125 78 -124q78 -1 78 124zM47 1047v145q0 154 65 220q64 66 216 65q152 0 216 -66t64 -219v-145q0 -152 -64 -218q-64 -65 -216 -65t-216 66t-65 217z" />
    <glyph glyph-name="guillemotright" unicode="&#xbb;" horiz-adv-x="925" 
d="M602 604l-145 258l170 115l266 -373l-266 -375l-170 117zM184 604l-147 258l170 115l268 -373l-268 -375l-170 117z" />
    <glyph glyph-name="onequarter" unicode="&#xbc;" horiz-adv-x="1697" 
d="M453 0l405 1462h252l-405 -1462h-252zM1309 0v141h-342v125l250 611h223l-234 -570h103v162h186v-162h70v-166h-70v-141h-186zM264 586v661l-127 -49l-65 158l264 106h147v-876h-219z" />
    <glyph glyph-name="onehalf" unicode="&#xbd;" horiz-adv-x="1697" 
d="M424 0l405 1462h252l-403 -1462h-254zM997 0v139l228 285q111 133 111 216t-62 83q-70 0 -78 -123l-203 8q8 150 76 216t213 67q276 0 277 -246q0 -95 -31 -155t-152 -205l-92 -115h270v-170h-557zM246 586v661l-127 -49l-66 158l264 106h148v-876h-219z" />
    <glyph glyph-name="threequarters" unicode="&#xbe;" horiz-adv-x="1697" 
d="M539 0l405 1462h254l-405 -1462h-254zM1366 0v141h-344v125l252 611h223l-235 -570h104v162h186v-162h70v-166h-70v-141h-186zM215 975v145h84q96 0 96 99q1 88 -67 88t-80 -93l-197 7q8 119 51 170q72 84 234 84q276 0 276 -244q0 -125 -71 -180q92 -63 92 -205
t-71 -207q-70 -66 -222 -66q-152 -1 -224 63t-77 204l203 12q6 -111 90 -111t84 103q0 131 -107 131h-94z" />
    <glyph glyph-name="questiondown" unicode="&#xbf;" horiz-adv-x="1028" 
d="M684 1055v-273h-274v273h274zM659 641v-80q1 -127 -29 -200t-114 -158t-108 -131t-23 -115q0 -70 34 -112q35 -42 101 -42q66 -1 101 49t55 177l266 -23q-40 -436 -442 -436t-402 391q0 125 44 209t144 178t125 142q26 48 25 106v45h223z" />
    <glyph glyph-name="Agrave" unicode="&#xc0;" horiz-adv-x="1114" 
d="M674 1593h-203l-250 318h301zM715 512l-156 588l-153 -588h309zM774 283h-430l-74 -283h-311l469 1462h262l469 -1462h-311z" />
    <glyph glyph-name="Aacute" unicode="&#xc1;" horiz-adv-x="1114" 
d="M440 1593l152 318h301l-250 -318h-203zM715 512l-156 588l-153 -588h309zM774 283h-430l-74 -283h-311l469 1462h262l469 -1462h-311z" />
    <glyph glyph-name="Acircumflex" unicode="&#xc2;" horiz-adv-x="1114" 
d="M557 1751l-94 -156h-254l248 310h200l248 -310h-254zM715 512l-156 588l-153 -588h309zM774 283h-430l-74 -283h-311l469 1462h262l469 -1462h-311z" />
    <glyph glyph-name="Atilde" unicode="&#xc3;" horiz-adv-x="1114" 
d="M437 1905q89 1 151 -61t88 -62q43 0 55 108h162q-12 -125 -35 -178q-47 -125 -180 -125q-92 1 -150 63t-79 62q-54 1 -68 -110h-162q25 164 77 234t141 69zM715 512l-156 588l-153 -588h309zM774 283h-430l-74 -283h-311l469 1462h262l469 -1462h-311z" />
    <glyph glyph-name="Adieresis" unicode="&#xc4;" horiz-adv-x="1114" 
d="M627 1599v263h241v-263h-241zM248 1599v263h241v-263h-241zM715 512l-156 588l-153 -588h309zM774 283h-430l-74 -283h-311l469 1462h262l469 -1462h-311z" />
    <glyph glyph-name="Aring" unicode="&#xc5;" horiz-adv-x="1114" 
d="M643 1808q0 108 -86 109q-86 0 -86 -109t86 -108q86 0 86 108zM305 1811q1 105 69 168t183 63t183 -64t69 -168q0 -106 -70 -172q-71 -66 -183 -66t-182 68q-70 66 -69 171zM715 512l-156 588l-153 -588h309zM774 283h-430l-74 -283h-311l469 1462h262l469 -1462h-311z
" />
    <glyph glyph-name="AE" unicode="&#xc6;" horiz-adv-x="1714" 
d="M825 545v682h-22l-328 -682h350zM825 313h-460l-152 -313h-334l785 1462h968v-235h-524v-371h444v-235h-444v-385h534v-236h-817v313z" />
    <glyph glyph-name="Ccedilla" unicode="&#xc7;" horiz-adv-x="1107" 
d="M375 -489l86 360h258l-160 -360h-184zM577 -23q-267 0 -382 164q-84 119 -84 389v398q0 295 102 413q119 139 351 139t342 -106t118 -330l-264 -8q-10 115 -51 163t-136 48t-135 -72q-39 -73 -39 -268v-356q0 -195 39 -267q38 -72 138 -73q100 0 145 53t55 172l266 -16
q-8 -193 -81 -289q-117 -154 -384 -154z" />
    <glyph glyph-name="Egrave" unicode="&#xc8;" horiz-adv-x="1034" 
d="M702 1593h-202l-250 318h301zM141 0v1462h811v-235h-524v-371h442v-235h-442v-385h533v-236h-820z" />
    <glyph glyph-name="Eacute" unicode="&#xc9;" horiz-adv-x="1034" 
d="M416 1593l151 318h301l-250 -318h-202zM141 0v1462h811v-235h-524v-371h442v-235h-442v-385h533v-236h-820z" />
    <glyph glyph-name="Ecircumflex" unicode="&#xca;" horiz-adv-x="1034" 
d="M541 1751l-95 -156h-253l247 310h201l248 -310h-254zM141 0v1462h811v-235h-524v-371h442v-235h-442v-385h533v-236h-820z" />
    <glyph glyph-name="Edieresis" unicode="&#xcb;" horiz-adv-x="1034" 
d="M623 1599v263h241v-263h-241zM244 1599v263h241v-263h-241zM141 0v1462h811v-235h-524v-371h442v-235h-442v-385h533v-236h-820z" />
    <glyph glyph-name="Igrave" unicode="&#xcc;" horiz-adv-x="569" 
d="M403 1593h-202l-250 318h301zM139 0v1462h289v-1462h-289z" />
    <glyph glyph-name="Iacute" unicode="&#xcd;" horiz-adv-x="569" 
d="M160 1593l151 318h301l-250 -318h-202zM137 0v1462h289v-1462h-289z" />
    <glyph glyph-name="Icircumflex" unicode="&#xce;" horiz-adv-x="569" 
d="M285 1753l-95 -158h-253l247 312h201l248 -312h-254zM139 0v1462h289v-1462h-289z" />
    <glyph glyph-name="Idieresis" unicode="&#xcf;" horiz-adv-x="569" 
d="M352 1599v263h242v-263h-242zM-25 1599v263h242v-263h-242zM141 0v1462h289v-1462h-289z" />
    <glyph glyph-name="Eth" unicode="&#xd0;" horiz-adv-x="1193" 
d="M428 852h184v-229h-184v-392h123q145 -1 192 61t50 251v375q-3 188 -51 250t-191 63h-123v-379zM139 852v610h432q270 6 394 -116q123 -123 116 -392v-446q5 -268 -117 -390t-393 -118h-432v623h-127v229h127z" />
    <glyph glyph-name="Ntilde" unicode="&#xd1;" horiz-adv-x="1269" 
d="M519 1905q89 1 151 -61t88 -62q43 0 55 108h162q-12 -125 -35 -178q-47 -125 -180 -125q-92 1 -150 63t-80 62q-53 1 -67 -110h-162q25 164 77 234t141 69zM139 0v1462h283l434 -934v934h274v-1462h-276l-440 940v-940h-275z" />
    <glyph glyph-name="Ograve" unicode="&#xd2;" horiz-adv-x="1196" 
d="M739 1593h-202l-250 318h301zM795 535v393q0 184 -42 254t-155 70t-156 -70t-43 -254v-393q0 -184 43 -254t156 -70t155 70t42 254zM111 510v442q0 268 100 389q117 143 397 143t393 -167q82 -117 82 -365v-442q0 -268 -100 -389q-117 -143 -395 -143t-398 167
q-79 117 -79 365z" />
    <glyph glyph-name="Oacute" unicode="&#xd3;" horiz-adv-x="1196" 
d="M455 1593l151 318h301l-250 -318h-202zM795 535v393q0 184 -42 254t-155 70t-156 -70t-43 -254v-393q0 -184 43 -254t156 -70t155 70t42 254zM111 510v442q0 268 100 389q117 143 397 143t393 -167q82 -117 82 -365v-442q0 -268 -100 -389q-117 -143 -395 -143t-398 167
q-79 117 -79 365z" />
    <glyph glyph-name="Ocircumflex" unicode="&#xd4;" horiz-adv-x="1196" 
d="M598 1751l-94 -156h-254l248 310h200l248 -310h-254zM795 535v393q0 184 -42 254t-155 70t-156 -70t-43 -254v-393q0 -184 43 -254t156 -70t155 70t42 254zM111 510v442q0 268 100 389q117 143 397 143t393 -167q82 -117 82 -365v-442q0 -268 -100 -389
q-117 -143 -395 -143t-398 167q-79 117 -79 365z" />
    <glyph glyph-name="Otilde" unicode="&#xd5;" horiz-adv-x="1196" 
d="M478 1905q90 1 152 -61t87 -62q43 0 55 108h162q-12 -125 -35 -178q-47 -125 -180 -125q-91 1 -149 63t-81 62q-53 1 -67 -110h-162q25 164 77 234t141 69zM795 535v393q0 184 -42 254t-155 70t-156 -70t-43 -254v-393q0 -184 43 -254t156 -70t155 70t42 254zM111 510
v442q0 268 100 389q117 143 397 143t393 -167q82 -117 82 -365v-442q0 -268 -100 -389q-117 -143 -395 -143t-398 167q-79 117 -79 365z" />
    <glyph glyph-name="Odieresis" unicode="&#xd6;" horiz-adv-x="1196" 
d="M666 1599v263h241v-263h-241zM287 1599v263h241v-263h-241zM795 535v393q0 184 -42 254t-155 70t-156 -70t-43 -254v-393q0 -184 43 -254t156 -70t155 70t42 254zM111 510v442q0 268 100 389q117 143 397 143t393 -167q82 -117 82 -365v-442q0 -268 -100 -389
q-117 -143 -395 -143t-398 167q-79 117 -79 365z" />
    <glyph glyph-name="multiply" unicode="&#xd7;" horiz-adv-x="983" 
d="M340 727l-264 264l151 152l265 -264l264 264l151 -152l-264 -264l264 -264l-151 -152l-264 264l-265 -264l-151 152z" />
    <glyph glyph-name="Oslash" unicode="&#xd8;" horiz-adv-x="1196" 
d="M590 1251q-106 1 -149 -69q-42 -70 -42 -254v-316l342 586q-45 53 -151 53zM606 211q106 0 148 70q43 70 43 254v315l-342 -586q45 -53 151 -53zM1085 952v-442q0 -268 -100 -389q-117 -143 -387 -144q-180 0 -281 56l-49 -88l-192 112l84 146q-49 115 -49 307v442
q0 268 100 389q117 143 385 144q186 0 283 -55l49 86l194 -113l-86 -143q49 -119 49 -308z" />
    <glyph glyph-name="Ugrave" unicode="&#xd9;" horiz-adv-x="1218" 
d="M756 1593h-203l-250 318h301zM135 1462h289v-960q0 -174 37 -232t149 -59q112 0 148 58q37 58 37 233v960h288v-960q0 -152 -16 -232t-61 -137q-117 -156 -409 -156t-400 181q-61 96 -62 344v960z" />
    <glyph glyph-name="Uacute" unicode="&#xda;" horiz-adv-x="1218" 
d="M473 1593l152 318h301l-250 -318h-203zM135 1462h289v-960q0 -174 37 -232t149 -59q112 0 148 58q37 58 37 233v960h288v-960q0 -152 -16 -232t-61 -137q-117 -156 -409 -156t-400 181q-61 96 -62 344v960z" />
    <glyph glyph-name="Ucircumflex" unicode="&#xdb;" horiz-adv-x="1218" 
d="M610 1751l-94 -156h-254l248 310h201l247 -310h-253zM135 1462h289v-960q0 -174 37 -232t149 -59q112 0 148 58q37 58 37 233v960h288v-960q0 -152 -16 -232t-61 -137q-117 -156 -409 -156t-400 181q-61 96 -62 344v960z" />
    <glyph glyph-name="Udieresis" unicode="&#xdc;" horiz-adv-x="1218" 
d="M680 1599v263h242v-263h-242zM301 1599v263h242v-263h-242zM135 1462h289v-960q0 -174 37 -232t149 -59q112 0 148 58q37 58 37 233v960h288v-960q0 -152 -16 -232t-61 -137q-117 -156 -409 -156t-400 181q-61 96 -62 344v960z" />
    <glyph glyph-name="Yacute" unicode="&#xdd;" horiz-adv-x="985" 
d="M373 1593l151 318h301l-250 -318h-202zM352 0v516l-399 946h305l240 -635l237 635h305l-399 -946v-516h-289z" />
    <glyph glyph-name="Thorn" unicode="&#xde;" horiz-adv-x="1079" 
d="M424 526h141q97 0 139 56t42 185q0 130 -41 184t-140 55h-141v-480zM428 295v-295h-289v1462h289v-225h135q145 0 229 -27q240 -78 240 -444q0 -256 -117 -371q-57 -53 -137 -77t-215 -23h-135z" />
    <glyph glyph-name="germandbls" unicode="&#xdf;" horiz-adv-x="1030" 
d="M113 0v1085q0 207 91 301q90 94 284 94t292 -83q98 -85 98 -237t-77 -261q147 -98 145 -375v-63q2 -259 -84 -359t-307 -102h-74v217h41q96 2 124 43t28 184v95q-2 139 -31 180t-121 39h-26v196h30q100 0 101 166q0 78 -30 113q-29 35 -95 35t-92 -39t-25 -142v-1087
h-272z" />
    <glyph glyph-name="agrave" unicode="&#xe0;" horiz-adv-x="972" 
d="M649 1188h-203l-249 317h301zM592 461h-109q-85 0 -119 -33t-34 -109q0 -75 28 -103t104 -28q74 0 102 34t28 126v113zM592 645v33q0 100 -29 142t-93 42t-94 -26t-52 -95l-230 70q70 272 383 272q254 0 340 -163q47 -88 47 -277v-643h-213l-16 59q-80 -82 -249 -82
t-246 77q-77 78 -77 262t78 256t285 73h166z" />
    <glyph glyph-name="aacute" unicode="&#xe1;" horiz-adv-x="972" 
d="M365 1188l151 317h301l-250 -317h-202zM592 461h-109q-85 0 -119 -33t-34 -109q0 -75 28 -103t104 -28q74 0 102 34t28 126v113zM592 645v33q0 100 -29 142t-93 42t-94 -26t-52 -95l-230 70q70 272 383 272q254 0 340 -163q47 -88 47 -277v-643h-213l-16 59
q-80 -82 -249 -82t-246 77q-77 78 -77 262t78 256t285 73h166z" />
    <glyph glyph-name="acircumflex" unicode="&#xe2;" horiz-adv-x="972" 
d="M494 1348l-95 -158h-254l248 311h201l248 -311h-254zM592 461h-109q-85 0 -119 -33t-34 -109q0 -75 28 -103t104 -28q74 0 102 34t28 126v113zM592 645v33q0 100 -29 142t-93 42t-94 -26t-52 -95l-230 70q70 272 383 272q254 0 340 -163q47 -88 47 -277v-643h-213l-16 59
q-80 -82 -249 -82t-246 77q-77 78 -77 262t78 256t285 73h166z" />
    <glyph glyph-name="atilde" unicode="&#xe3;" horiz-adv-x="972" 
d="M383 1499q80 0 143 -61t86 -62q43 0 56 109h161q-12 -119 -34 -180q-47 -123 -181 -123q-94 0 -150 61t-79 62q-54 0 -68 -109h-161q18 125 45 180q57 123 182 123zM592 461h-109q-85 0 -119 -33t-34 -109q0 -75 28 -103t104 -28q74 0 102 34t28 126v113zM592 645v33
q0 100 -29 142t-93 42t-94 -26t-52 -95l-230 70q70 272 383 272q254 0 340 -163q47 -88 47 -277v-643h-213l-16 59q-80 -82 -249 -82t-246 77q-77 78 -77 262t78 256t285 73h166z" />
    <glyph glyph-name="adieresis" unicode="&#xe4;" horiz-adv-x="972" 
d="M555 1194v264h242v-264h-242zM186 1194v264h242v-264h-242zM592 461h-109q-85 0 -119 -33t-34 -109q0 -75 28 -103t104 -28q74 0 102 34t28 126v113zM592 645v33q0 100 -29 142t-93 42t-94 -26t-52 -95l-230 70q70 272 383 272q254 0 340 -163q47 -88 47 -277v-643h-213
l-16 59q-80 -82 -249 -82t-246 77q-77 78 -77 262t78 256t285 73h166z" />
    <glyph glyph-name="aring" unicode="&#xe5;" horiz-adv-x="972" 
d="M494 1292q86 0 86 108t-86 109q-86 -1 -86 -109t86 -108zM494 1634q116 0 184 -63t68 -167t-70 -171q-70 -66 -182 -66t-183 66q-69 66 -69 171t68 168q69 62 184 62zM592 461h-109q-85 0 -119 -33t-34 -109q0 -75 28 -103t104 -28q74 0 102 34t28 126v113zM592 645v33
q0 100 -29 142t-93 42t-94 -26t-52 -95l-230 70q70 272 383 272q254 0 340 -163q47 -88 47 -277v-643h-213l-16 59q-80 -82 -249 -82t-246 77q-77 78 -77 262t78 256t285 73h166z" />
    <glyph glyph-name="ae" unicode="&#xe6;" horiz-adv-x="1501" 
d="M866 651h291v37q0 188 -147 189q-143 0 -144 -191v-35zM590 461h-109q-84 0 -119 -33q-34 -33 -34 -109q0 -77 28 -105t103 -28t103 36t28 132v107zM1030 1083q203 -1 295 -117t92 -380v-123h-551v-51q0 -115 37 -166t119 -51q123 0 156 127l231 -52q-33 -156 -124 -224
t-281 -69q-190 0 -279 117q-92 -117 -332 -117q-180 0 -256 77t-76 261t79 257t284 73h166v33q0 100 -30 142t-102 42t-108 -45l-37 -69l-219 67q56 269 385 269q166 0 256 -99q92 98 295 98z" />
    <glyph glyph-name="ccedilla" unicode="&#xe7;" horiz-adv-x="890" 
d="M264 -489l86 360h258l-159 -360h-185zM367 432q1 -233 127 -233q64 1 94 29q31 28 47 94l233 -50q-23 -123 -77 -186q-99 -109 -305 -109t-299 115t-93 365v147q0 254 94 368t306 113q162 -1 246 -65t118 -215l-231 -70q-33 129 -131 129q-70 0 -100 -55t-29 -182v-195z
" />
    <glyph glyph-name="egrave" unicode="&#xe8;" horiz-adv-x="1001" 
d="M657 1188h-202l-250 317h301zM367 655h290v31q0 190 -145 191q-145 0 -145 -191v-31zM369 463v-51q-1 -115 35 -166t118 -51q125 0 156 127l231 -52q-33 -160 -125 -226t-294 -67q-202 0 -300 115q-96 115 -96 377v117q0 266 96 382t316 116t315 -116q96 -116 97 -382
v-123h-549z" />
    <glyph glyph-name="eacute" unicode="&#xe9;" horiz-adv-x="1001" 
d="M371 1188l151 317h301l-250 -317h-202zM367 655h290v31q0 190 -145 191q-145 0 -145 -191v-31zM369 463v-51q-1 -115 35 -166t118 -51q125 0 156 127l231 -52q-33 -160 -125 -226t-294 -67q-202 0 -300 115q-96 115 -96 377v117q0 266 96 382t316 116t315 -116
q96 -116 97 -382v-123h-549z" />
    <glyph glyph-name="ecircumflex" unicode="&#xea;" horiz-adv-x="1001" 
d="M514 1348l-94 -158h-254l248 311h200l248 -311h-254zM367 655h290v31q0 190 -145 191q-145 0 -145 -191v-31zM369 463v-51q-1 -115 35 -166t118 -51q125 0 156 127l231 -52q-33 -160 -125 -226t-294 -67q-202 0 -300 115q-96 115 -96 377v117q0 266 96 382t316 116
t315 -116q96 -116 97 -382v-123h-549z" />
    <glyph glyph-name="edieresis" unicode="&#xeb;" horiz-adv-x="1001" 
d="M578 1194v264h241v-264h-241zM209 1194v264h242v-264h-242zM367 655h290v31q0 190 -145 191q-145 0 -145 -191v-31zM369 463v-51q-1 -115 35 -166t118 -51q125 0 156 127l231 -52q-33 -160 -125 -226t-294 -67q-202 0 -300 115q-96 115 -96 377v117q0 266 96 382t316 116
t315 -116q96 -116 97 -382v-123h-549z" />
    <glyph glyph-name="igrave" unicode="&#xec;" horiz-adv-x="509" 
d="M385 1188h-203l-250 317h301zM119 0v1061h272v-1061h-272z" />
    <glyph glyph-name="iacute" unicode="&#xed;" horiz-adv-x="509" 
d="M117 1188l151 317h301l-250 -317h-202zM113 0v1061h272v-1061h-272z" />
    <glyph glyph-name="icircumflex" unicode="&#xee;" horiz-adv-x="509" 
d="M254 1348l-94 -158h-254l248 311h200l248 -311h-254zM117 0v1061h272v-1061h-272z" />
    <glyph glyph-name="idieresis" unicode="&#xef;" horiz-adv-x="509" 
d="M317 1194v264h242v-264h-242zM-51 1194v264h241v-264h-241zM117 0v1061h272v-1061h-272z" />
    <glyph glyph-name="eth" unicode="&#xf0;" horiz-adv-x="1013" 
d="M647 438v154q0 129 -33 183q-32 54 -108 54t-108 -54t-31 -183v-154q-1 -131 31 -185t109 -54t109 54t31 185zM94 418v194q0 223 87 331t270 108q82 0 127 -29q-31 92 -86 149l-181 -112l-88 119l137 84l-36 18q-35 18 -95 31l35 182q170 -23 307 -98l154 94l86 -117
l-117 -72q221 -236 226 -690v-192q0 -236 -96 -338t-317 -102t-317 102t-96 338z" />
    <glyph glyph-name="ntilde" unicode="&#xf1;" horiz-adv-x="1028" 
d="M406 1499q80 0 143 -61t86 -62q43 0 55 109h162q-12 -119 -35 -180q-47 -123 -180 -123q-95 0 -151 61t-78 62q-54 0 -68 -109h-162q18 125 45 180q57 123 183 123zM115 0v1061h202l23 -84q86 106 250 106q110 0 188 -47t111 -127t33 -266v-643h-273v608q0 133 -28 188
q-29 54 -102 54t-103 -56t-29 -200v-594h-272z" />
    <glyph glyph-name="ograve" unicode="&#xf2;" horiz-adv-x="1013" 
d="M651 1188h-202l-250 317h301zM647 432v199q0 129 -31 180q-30 51 -108 51t-110 -52t-31 -179v-199q-1 -129 31 -181t110 -52t108 52t31 181zM94 432v199q0 242 96 347t316 105t317 -105q96 -105 97 -347v-199q0 -244 -96 -349t-317 -105t-317 106t-96 348z" />
    <glyph glyph-name="oacute" unicode="&#xf3;" horiz-adv-x="1013" 
d="M365 1188l151 317h301l-250 -317h-202zM647 432v199q0 129 -31 180q-30 51 -108 51t-110 -52t-31 -179v-199q-1 -129 31 -181t110 -52t108 52t31 181zM94 432v199q0 242 96 347t316 105t317 -105q96 -105 97 -347v-199q0 -244 -96 -349t-317 -105t-317 106t-96 348z" />
    <glyph glyph-name="ocircumflex" unicode="&#xf4;" horiz-adv-x="1013" 
d="M508 1348l-94 -158h-254l248 311h200l248 -311h-254zM647 432v199q0 129 -31 180q-30 51 -108 51t-110 -52t-31 -179v-199q-1 -129 31 -181t110 -52t108 52t31 181zM94 432v199q0 242 96 347t316 105t317 -105q96 -105 97 -347v-199q0 -244 -96 -349t-317 -105t-317 106
t-96 348z" />
    <glyph glyph-name="otilde" unicode="&#xf5;" horiz-adv-x="1013" 
d="M397 1499q79 0 143 -61t87 -62q43 0 55 109h162q-12 -119 -35 -180q-47 -123 -180 -123q-95 0 -151 61t-79 62q-53 0 -67 -109h-162q18 125 45 180q57 123 182 123zM647 432v199q0 129 -31 180q-30 51 -108 51t-110 -52t-31 -179v-199q-1 -129 31 -181t110 -52t108 52
t31 181zM94 432v199q0 242 96 347t316 105t317 -105q96 -105 97 -347v-199q0 -244 -96 -349t-317 -105t-317 106t-96 348z" />
    <glyph glyph-name="odieresis" unicode="&#xf6;" horiz-adv-x="1013" 
d="M571 1194v264h242v-264h-242zM203 1194v264h241v-264h-241zM647 432v199q0 129 -31 180q-30 51 -108 51t-110 -52t-31 -179v-199q-1 -129 31 -181t110 -52t108 52t31 181zM94 432v199q0 242 96 347t316 105t317 -105q96 -105 97 -347v-199q0 -244 -96 -349t-317 -105
t-317 106t-96 348z" />
    <glyph glyph-name="divide" unicode="&#xf7;" horiz-adv-x="983" 
d="M371 965v227h243v-227h-243zM371 262v227h243v-227h-243zM78 618v216h829v-216h-829z" />
    <glyph glyph-name="oslash" unicode="&#xf8;" horiz-adv-x="1015" 
d="M498 862q-68 0 -101 -52t-32 -177v-170l235 366q-34 33 -102 33zM647 430v172l-237 -369q34 -35 104 -35t102 54q32 53 31 178zM920 430q0 -242 -96 -347t-314 -106q-150 0 -236 43l-45 -69l-135 88l60 90q-61 104 -62 301v203q0 240 96 345t316 105q139 0 231 -43l45 70
l135 -86l-57 -90q61 -98 62 -301v-203z" />
    <glyph glyph-name="ugrave" unicode="&#xf9;" horiz-adv-x="1007" 
d="M647 1188h-203l-249 317h301zM109 1061h274v-608q0 -133 26 -187q25 -54 93 -55q68 0 94 56t27 200v594h272v-1061h-193l-28 88q-45 -63 -97 -87t-143 -24q-225 0 -295 179q-31 76 -30 262v643z" />
    <glyph glyph-name="uacute" unicode="&#xfa;" horiz-adv-x="1007" 
d="M360 1188l152 317h301l-250 -317h-203zM109 1061h274v-608q0 -133 26 -187q25 -54 93 -55q68 0 94 56t27 200v594h272v-1061h-193l-28 88q-45 -63 -97 -87t-143 -24q-225 0 -295 179q-31 76 -30 262v643z" />
    <glyph glyph-name="ucircumflex" unicode="&#xfb;" horiz-adv-x="1007" 
d="M504 1348l-94 -158h-254l247 311h201l248 -311h-254zM109 1061h274v-608q0 -133 26 -187q25 -54 93 -55q68 0 94 56t27 200v594h272v-1061h-193l-28 88q-45 -63 -97 -87t-143 -24q-225 0 -295 179q-31 76 -30 262v643z" />
    <glyph glyph-name="udieresis" unicode="&#xfc;" horiz-adv-x="1007" 
d="M567 1194v264h242v-264h-242zM199 1194v264h241v-264h-241zM109 1061h274v-608q0 -133 26 -187q25 -54 93 -55q68 0 94 56t27 200v594h272v-1061h-193l-28 88q-45 -63 -97 -87t-143 -24q-225 0 -295 179q-31 76 -30 262v643z" />
    <glyph glyph-name="yacute" unicode="&#xfd;" horiz-adv-x="925" 
d="M346 1188l152 317h301l-250 -317h-203zM78 -471v223q118 0 154 31t73 162l17 67l-306 1049h277l170 -723l164 723h278l-319 -1139q-74 -256 -163 -324t-345 -69z" />
    <glyph glyph-name="thorn" unicode="&#xfe;" horiz-adv-x="1021" 
d="M657 442v197q0 115 -30 167q-31 52 -102 52t-103 -52t-33 -167v-217q0 -115 33 -167q34 -52 104 -52t101 56q30 56 30 183zM389 -461h-272v1923h272v-438q78 59 197 59q182 0 263 -104t81 -338v-192q0 -252 -81 -362t-267 -110q-111 1 -193 54v-492z" />
    <glyph glyph-name="ydieresis" unicode="&#xff;" horiz-adv-x="925" 
d="M526 1194v264h242v-264h-242zM158 1194v264h241v-264h-241zM78 -471v223q118 0 154 31t73 162l17 67l-306 1049h277l170 -723l164 723h278l-319 -1139q-74 -256 -163 -324t-345 -69z" />
    <glyph glyph-name="Amacron" unicode="&#x100;" horiz-adv-x="1114" 
d="M262 1636v197h590v-197h-590zM715 512l-156 588l-153 -588h309zM774 283h-430l-74 -283h-311l469 1462h262l469 -1462h-311z" />
    <glyph glyph-name="amacron" unicode="&#x101;" horiz-adv-x="972" 
d="M190 1231v196h590v-196h-590zM592 461h-109q-85 0 -119 -33t-34 -109q0 -75 28 -103t104 -28q74 0 102 34t28 126v113zM592 645v33q0 100 -29 142t-93 42t-94 -26t-52 -95l-230 70q70 272 383 272q254 0 340 -163q47 -88 47 -277v-643h-213l-16 59q-80 -82 -249 -82
t-246 77q-77 78 -77 262t78 256t285 73h166z" />
    <glyph glyph-name="Abreve" unicode="&#x102;" horiz-adv-x="1114" 
d="M556 1767q79 0 112 29t43 107h168q-4 -143 -39 -203q-70 -127 -291 -127t-289 147q-23 54 -27 183h168q10 -78 43 -107t112 -29zM715 512l-156 588l-153 -588h309zM774 283h-430l-74 -283h-311l469 1462h262l469 -1462h-311z" />
    <glyph glyph-name="abreve" unicode="&#x103;" horiz-adv-x="972" 
d="M493 1362q79 0 111 29t43 106h168q-4 -143 -37 -203q-74 -127 -294 -127t-287 148q-23 53 -27 182h168q10 -79 43 -107t112 -28zM592 461h-109q-85 0 -119 -33t-34 -109q0 -75 28 -103t104 -28q74 0 102 34t28 126v113zM592 645v33q0 100 -29 142t-93 42t-94 -26t-52 -95
l-230 70q70 272 383 272q254 0 340 -163q47 -88 47 -277v-643h-213l-16 59q-80 -82 -249 -82t-246 77q-77 78 -77 262t78 256t285 73h166z" />
    <glyph glyph-name="Aogonek" unicode="&#x104;" horiz-adv-x="1114" 
d="M715 512l-156 588l-153 -588h309zM1083 -289q51 0 111 25l31 -135q-90 -41 -208 -41q-117 0 -183 46t-66 127t42 137t153 130h-115l-74 283h-430l-74 -283h-311l469 1462h262l469 -1462l-20 -20q-80 -76 -105 -113t-24 -84q0 -72 73 -72z" />
    <glyph glyph-name="aogonek" unicode="&#x105;" horiz-adv-x="972" 
d="M592 461h-109q-85 0 -119 -33t-34 -109q0 -75 28 -103t104 -28q74 0 102 34t28 126v113zM788 -289q51 0 111 25l29 -135q-88 -41 -206 -41t-184 46t-65 125q0 79 44 139t149 130h-15l-16 59q-80 -82 -249 -82t-246 77q-77 78 -77 262t78 256t285 73h166v33q0 100 -29 142
t-93 42t-94 -26t-52 -95l-230 70q70 272 383 272q254 0 340 -163q47 -88 47 -277v-643l-4 -4q-94 -88 -121 -127t-26 -86q0 -72 75 -72z" />
    <glyph glyph-name="Cacute" unicode="&#x106;" horiz-adv-x="1107" 
d="M432 1593l152 318h301l-250 -318h-203zM577 -23q-267 0 -382 164q-84 119 -84 389v398q0 295 102 413q119 139 351 139t342 -106t118 -330l-264 -8q-10 115 -51 163t-136 48t-135 -72q-39 -73 -39 -268v-356q0 -195 39 -267q38 -72 138 -73q100 0 145 53t55 172l266 -16
q-8 -193 -81 -289q-117 -154 -384 -154z" />
    <glyph glyph-name="cacute" unicode="&#x107;" horiz-adv-x="890" 
d="M365 1188l151 317h301l-250 -317h-202zM367 432q1 -233 127 -233q64 1 94 29q31 28 47 94l233 -50q-23 -123 -77 -186q-99 -109 -305 -109t-299 115t-93 365v147q0 254 94 368t306 113q162 -1 246 -65t118 -215l-231 -70q-33 129 -131 129q-70 0 -100 -55t-29 -182v-195z
" />
    <glyph glyph-name="Ccircumflex" unicode="&#x108;" horiz-adv-x="1107" 
d="M575 1751l-94 -156h-254l248 310h201l248 -310h-254zM577 -23q-267 0 -382 164q-84 119 -84 389v398q0 295 102 413q119 139 351 139t342 -106t118 -330l-264 -8q-10 115 -51 163t-136 48t-135 -72q-39 -73 -39 -268v-356q0 -195 39 -267q38 -72 138 -73q100 0 145 53
t55 172l266 -16q-8 -193 -81 -289q-117 -154 -384 -154z" />
    <glyph glyph-name="ccircumflex" unicode="&#x109;" horiz-adv-x="890" 
d="M492 1348l-95 -158h-254l248 311h201l248 -311h-254zM367 432q1 -233 127 -233q64 1 94 29q31 28 47 94l233 -50q-23 -123 -77 -186q-99 -109 -305 -109t-299 115t-93 365v147q0 254 94 368t306 113q162 -1 246 -65t118 -215l-231 -70q-33 129 -131 129q-70 0 -100 -55
t-29 -182v-195z" />
    <glyph glyph-name="Cdotaccent" unicode="&#x10a;" horiz-adv-x="1107" 
d="M446 1597v265h265v-265h-265zM577 -23q-267 0 -382 164q-84 119 -84 389v398q0 295 102 413q119 139 351 139t342 -106t118 -330l-264 -8q-10 115 -51 163t-136 48t-135 -72q-39 -73 -39 -268v-356q0 -195 39 -267q38 -72 138 -73q100 0 145 53t55 172l266 -16
q-8 -193 -81 -289q-117 -154 -384 -154z" />
    <glyph glyph-name="cdotaccent" unicode="&#x10b;" horiz-adv-x="890" 
d="M360 1194v264h265v-264h-265zM367 432q1 -233 127 -233q64 1 94 29q31 28 47 94l233 -50q-23 -123 -77 -186q-99 -109 -305 -109t-299 115t-93 365v147q0 254 94 368t306 113q162 -1 246 -65t118 -215l-231 -70q-33 129 -131 129q-70 0 -100 -55t-29 -182v-195z" />
    <glyph glyph-name="Ccaron" unicode="&#x10c;" horiz-adv-x="1107" 
d="M578 1743l94 158h254l-248 -312h-201l-248 312h254zM577 -23q-267 0 -382 164q-84 119 -84 389v398q0 295 102 413q119 139 351 139t342 -106t118 -330l-264 -8q-10 115 -51 163t-136 48t-135 -72q-39 -73 -39 -268v-356q0 -195 39 -267q38 -72 138 -73q100 0 145 53
t55 172l266 -16q-8 -193 -81 -289q-117 -154 -384 -154z" />
    <glyph glyph-name="ccaron" unicode="&#x10d;" horiz-adv-x="890" 
d="M496 1337l94 158h254l-248 -309h-201l-248 309h254zM367 432q1 -233 127 -233q64 1 94 29q31 28 47 94l233 -50q-23 -123 -77 -186q-99 -109 -305 -109t-299 115t-93 365v147q0 254 94 368t306 113q162 -1 246 -65t118 -215l-231 -70q-33 129 -131 129q-70 0 -100 -55
t-29 -182v-195z" />
    <glyph glyph-name="Dcaron" unicode="&#x10e;" horiz-adv-x="1193" 
d="M553 1743l94 158h254l-248 -312h-200l-248 312h254zM428 231h123q145 -1 193 61t51 251v377q-3 188 -51 249t-193 62h-123v-1000zM139 0v1462h434q270 6 394 -116q123 -123 116 -392v-446q7 -268 -115 -390t-395 -118h-434z" />
    <glyph glyph-name="dcaron" unicode="&#x10f;" horiz-adv-x="1259" 
d="M991 924l64 573h256l-129 -573h-191zM367 639v-195q1 -127 31 -184t100 -57q135 0 135 219v217q0 219 -137 219q-68 0 -98 -52t-31 -167zM427 -23q-169 0 -251 110t-82 362v192q0 231 81 337t257 105q115 0 201 -61v440h274v-1462h-211l-16 68q-84 -91 -253 -91z" />
    <glyph glyph-name="Dcroat" unicode="&#x110;" horiz-adv-x="1193" 
d="M428 852h184v-229h-184v-392h123q145 -1 192 61t50 251v375q-3 188 -51 250t-191 63h-123v-379zM139 852v610h432q270 6 394 -116q123 -123 116 -392v-446q5 -268 -117 -390t-393 -118h-432v623h-127v229h127z" />
    <glyph glyph-name="dcroat" unicode="&#x111;" horiz-adv-x="1021" 
d="M367 639v-195q1 -129 31 -185t100 -56q137 0 137 219v217q0 219 -139 219q-70 0 -100 -51t-29 -168zM635 1157h-252v184h252v121h272v-121h131v-184h-131v-1157h-209l-16 68l-14 -13q-80 -78 -224 -78q-186 0 -268 110t-82 362v192q0 231 81 337t257 105q117 0 203 -61
v135z" />
    <glyph glyph-name="Emacron" unicode="&#x112;" horiz-adv-x="1034" 
d="M246 1636v197h590v-197h-590zM141 0v1462h811v-235h-524v-371h442v-235h-442v-385h533v-236h-820z" />
    <glyph glyph-name="emacron" unicode="&#x113;" horiz-adv-x="1001" 
d="M215 1231v196h590v-196h-590zM367 655h290v31q0 190 -145 191q-145 0 -145 -191v-31zM369 463v-51q-1 -115 35 -166t118 -51q125 0 156 127l231 -52q-33 -160 -125 -226t-294 -67q-202 0 -300 115q-96 115 -96 377v117q0 266 96 382t316 116t315 -116q96 -116 97 -382
v-123h-549z" />
    <glyph glyph-name="Ebreve" unicode="&#x114;" horiz-adv-x="1034" 
d="M554 1767q79 0 112 29t43 107h168q-4 -143 -39 -203q-70 -127 -291 -127t-289 147q-23 54 -27 183h168q10 -78 43 -107t112 -29zM141 0v1462h811v-235h-524v-371h442v-235h-442v-385h533v-236h-820z" />
    <glyph glyph-name="ebreve" unicode="&#x115;" horiz-adv-x="1001" 
d="M511 1362q79 0 112 29t43 106h168q-4 -143 -37 -203q-74 -127 -295 -127t-287 148q-23 53 -27 182h168q10 -79 43 -107t112 -28zM367 655h290v31q0 190 -145 191q-145 0 -145 -191v-31zM369 463v-51q-1 -115 35 -166t118 -51q125 0 156 127l231 -52q-33 -160 -125 -226
t-294 -67q-202 0 -300 115q-96 115 -96 377v117q0 266 96 382t316 116t315 -116q96 -116 97 -382v-123h-549z" />
    <glyph glyph-name="Edotaccent" unicode="&#x116;" horiz-adv-x="1034" 
d="M430 1597v265h264v-265h-264zM141 0v1462h811v-235h-524v-371h442v-235h-442v-385h533v-236h-820z" />
    <glyph glyph-name="edotaccent" unicode="&#x117;" horiz-adv-x="1001" 
d="M383 1194v264h264v-264h-264zM367 655h290v31q0 190 -145 191q-145 0 -145 -191v-31zM369 463v-51q-1 -115 35 -166t118 -51q125 0 156 127l231 -52q-33 -160 -125 -226t-294 -67q-202 0 -300 115q-96 115 -96 377v117q0 266 96 382t316 116t315 -116q96 -116 97 -382
v-123h-549z" />
    <glyph glyph-name="Eogonek" unicode="&#x118;" horiz-adv-x="1034" 
d="M141 0v1462h811v-235h-524v-371h442v-235h-442v-385h533v-236l-21 -20q-129 -111 -129 -190t76 -79q43 0 108 25l29 -135q-92 -41 -197 -41q-258 0 -258 178q0 74 45 135t150 127h-623z" />
    <glyph glyph-name="eogonek" unicode="&#x119;" horiz-adv-x="1001" 
d="M369 655h290v31q0 190 -145 191q-145 0 -145 -191v-31zM532 -211q0 -72 76 -72q47 0 113 23l29 -135q-92 -39 -199 -39q-258 0 -258 178q0 68 36 120t124 116q-188 14 -274 130q-85 116 -83 359v117q0 266 96 382t316 116q219 0 315 -116t97 -382v-123h-549v-51
q0 -115 36 -165t108 -50t110 29q37 30 55 96l231 -52q-25 -118 -81 -184t-152 -88q-84 -76 -115 -119t-31 -90z" />
    <glyph glyph-name="Ecaron" unicode="&#x11a;" horiz-adv-x="1034" 
d="M561 1743l94 158h254l-247 -312h-201l-248 312h254zM141 0v1462h811v-235h-524v-371h442v-235h-442v-385h533v-236h-820z" />
    <glyph glyph-name="ecaron" unicode="&#x11b;" horiz-adv-x="1001" 
d="M514 1335l94 158h254l-248 -309h-200l-248 309h254zM367 655h290v31q0 190 -145 191q-145 0 -145 -191v-31zM369 463v-51q-1 -115 35 -166t118 -51q125 0 156 127l231 -52q-33 -160 -125 -226t-294 -67q-202 0 -300 115q-96 115 -96 377v117q0 266 96 382t316 116
t315 -116q96 -116 97 -382v-123h-549z" />
    <glyph glyph-name="Gcircumflex" unicode="&#x11c;" horiz-adv-x="1173" 
d="M590 1753l-94 -156h-254l247 310h201l248 -310h-254zM612 590v221h469v-258q0 -283 -84 -406q-121 -170 -400 -170t-400 164q-86 117 -86 389v400q0 160 24 254q79 296 455 297q223 -1 335 -107t119 -327l-264 -11q-10 113 -53 162t-143 49q-100 -1 -143 -73
q-42 -72 -42 -265v-358q0 -195 43 -267q42 -72 152 -73q110 0 157 64q46 65 46 217v98h-185z" />
    <glyph glyph-name="gcircumflex" unicode="&#x11d;" horiz-adv-x="1021" 
d="M522 1348l-94 -158h-254l248 311h201l247 -311h-254zM367 639v-193q1 -129 31 -186t100 -57q137 0 137 219v217q0 219 -137 219q-70 0 -100 -52t-31 -167zM635 -20v53q-82 -55 -197 -56q-182 0 -263 111t-81 361v192q0 231 81 337t244 105q163 0 253 -90l26 68h209v-1049
q0 -258 -102 -377t-322 -118q-164 0 -249 63t-117 211l227 59q24 -72 52 -96t98 -24t106 58q35 58 35 192z" />
    <glyph glyph-name="Gbreve" unicode="&#x11e;" horiz-adv-x="1173" 
d="M587 1767q79 0 111 29t43 107h168q-4 -143 -39 -203q-70 -127 -290 -127t-289 147q-23 54 -27 183h168q10 -78 43 -107t112 -29zM612 590v221h469v-258q0 -283 -84 -406q-121 -170 -400 -170t-400 164q-86 117 -86 389v400q0 160 24 254q79 296 455 297q223 -1 335 -107
t119 -327l-264 -11q-10 113 -53 162t-143 49q-100 -1 -143 -73q-42 -72 -42 -265v-358q0 -195 43 -267q42 -72 152 -73q110 0 157 64q46 65 46 217v98h-185z" />
    <glyph glyph-name="gbreve" unicode="&#x11f;" horiz-adv-x="1021" 
d="M532 1362q78 0 111 29t43 106h168q-4 -143 -37 -203q-74 -127 -295 -127t-286 148q-23 53 -27 182h168q10 -79 43 -107q34 -28 112 -28zM367 639v-193q1 -129 31 -186t100 -57q137 0 137 219v217q0 219 -137 219q-70 0 -100 -52t-31 -167zM635 -20v53q-82 -55 -197 -56
q-182 0 -263 111t-81 361v192q0 231 81 337t244 105q163 0 253 -90l26 68h209v-1049q0 -258 -102 -377t-322 -118q-164 0 -249 63t-117 211l227 59q24 -72 52 -96t98 -24t106 58q35 58 35 192z" />
    <glyph glyph-name="Gdotaccent" unicode="&#x120;" horiz-adv-x="1173" 
d="M455 1597v265h264v-265h-264zM612 590v221h469v-258q0 -283 -84 -406q-121 -170 -400 -170t-400 164q-86 117 -86 389v400q0 160 24 254q79 296 455 297q223 -1 335 -107t119 -327l-264 -11q-10 113 -53 162t-143 49q-100 -1 -143 -73q-42 -72 -42 -265v-358
q0 -195 43 -267q42 -72 152 -73q110 0 157 64q46 65 46 217v98h-185z" />
    <glyph glyph-name="gdotaccent" unicode="&#x121;" horiz-adv-x="1021" 
d="M418 1194v264h264v-264h-264zM367 639v-193q1 -129 31 -186t100 -57q137 0 137 219v217q0 219 -137 219q-70 0 -100 -52t-31 -167zM635 -20v53q-82 -55 -197 -56q-182 0 -263 111t-81 361v192q0 231 81 337t244 105q163 0 253 -90l26 68h209v-1049q0 -258 -102 -377
t-322 -118q-164 0 -249 63t-117 211l227 59q24 -72 52 -96t98 -24t106 58q35 58 35 192z" />
    <glyph glyph-name="Gcommaaccent" unicode="&#x122;" horiz-adv-x="1173" 
d="M399 -489l86 360h258l-159 -360h-185zM612 590v221h469v-258q0 -283 -84 -406q-121 -170 -400 -170t-400 164q-86 117 -86 389v400q0 160 24 254q79 296 455 297q223 -1 335 -107t119 -327l-264 -11q-10 113 -53 162t-143 49q-100 -1 -143 -73q-42 -72 -42 -265v-358
q0 -195 43 -267q42 -72 152 -73q110 0 157 64q46 65 46 217v98h-185z" />
    <glyph glyph-name="gcommaaccent" unicode="&#x123;" horiz-adv-x="1021" 
d="M375 1188l250 317h202l-151 -317h-301zM367 639v-193q1 -129 31 -186t100 -57q137 0 137 219v217q0 219 -137 219q-70 0 -100 -52t-31 -167zM635 -20v53q-82 -55 -197 -56q-182 0 -263 111t-81 361v192q0 231 81 337t244 105q163 0 253 -90l26 68h209v-1049
q0 -258 -102 -377t-322 -118q-164 0 -249 63t-117 211l227 59q24 -72 52 -96t98 -24t106 58q35 58 35 192z" />
    <glyph glyph-name="Hcircumflex" unicode="&#x124;" horiz-adv-x="1214" 
d="M606 1751l-94 -156h-254l248 310h201l247 -310h-254zM139 0v1462h289v-606h356v606h289v-1462h-289v621h-356v-621h-289z" />
    <glyph glyph-name="hcircumflex" unicode="&#x125;" horiz-adv-x="1028" 
d="M340 1753l-94 -158h-254l248 312h200l248 -312h-254zM113 0v1462h272v-438q90 59 202 59q113 0 191 -47t110 -127t32 -266v-643h-273v616q0 126 -29 180q-28 54 -100 54t-102 -55t-31 -191v-604h-272z" />
    <glyph glyph-name="Hbar" unicode="&#x126;" horiz-adv-x="1214" 
d="M430 856h356v160h-356v-160zM141 0v1016h-141v203h141v243h289v-243h356v243h289v-243h139v-203h-139v-1016h-289v621h-356v-621h-289z" />
    <glyph glyph-name="hbar" unicode="&#x127;" horiz-adv-x="1032" 
d="M117 1157h-133v184h133v121h274v-121h248v-184h-248v-133q88 59 199 59q112 0 190 -47t111 -127t33 -266v-643h-273v616q0 123 -29 179q-30 55 -101 55t-101 -55t-29 -191v-604h-274v1157z" />
    <glyph glyph-name="Itilde" unicode="&#x128;" horiz-adv-x="569" 
d="M165 1905q89 1 152 -61t86 -62q43 0 56 108h162q-12 -117 -35 -178q-47 -125 -180 -125q-90 -1 -148 61t-82 62q-53 1 -67 -108h-162q25 164 77 234t141 69zM139 0v1462h289v-1462h-289z" />
    <glyph glyph-name="itilde" unicode="&#x129;" horiz-adv-x="509" 
d="M145 1499q81 0 143 -61t87 -62q41 0 55 109h162q-12 -119 -35 -180q-47 -123 -180 -123q-95 0 -151 61t-79 62q-53 0 -67 -109h-162q18 125 45 180q57 123 182 123zM119 0v1061h272v-1061h-272z" />
    <glyph glyph-name="Imacron" unicode="&#x12a;" horiz-adv-x="569" 
d="M-10 1636v197h590v-197h-590zM141 0v1462h289v-1462h-289z" />
    <glyph glyph-name="imacron" unicode="&#x12b;" horiz-adv-x="509" 
d="M-41 1231v196h590v-196h-590zM117 0v1061h272v-1061h-272z" />
    <glyph glyph-name="Ibreve" unicode="&#x12c;" horiz-adv-x="569" 
d="M284 1767q76 0 110 29t44 107h168q-4 -92 -11 -131t-28 -72q-73 -127 -293 -127t-286 147q-23 54 -27 183h168q10 -78 44 -107t111 -29zM139 0v1462h289v-1462h-289z" />
    <glyph glyph-name="ibreve" unicode="&#x12d;" horiz-adv-x="509" 
d="M255 1362q77 0 111 29t44 106h168q-4 -92 -12 -131t-27 -72q-72 -127 -292 -127t-288 148q-23 53 -27 182h168q10 -79 44 -107t111 -28zM119 0v1061h272v-1061h-272z" />
    <glyph glyph-name="Iogonek" unicode="&#x12e;" horiz-adv-x="569" 
d="M356 -289q51 0 111 25l29 -135q-88 -41 -199 -41q-256 0 -256 180q0 70 43 130t147 130h-92v1462h289v-1462q-98 -98 -122 -134t-23 -81q0 -74 73 -74z" />
    <glyph glyph-name="iogonek" unicode="&#x12f;" horiz-adv-x="509" 
d="M119 1202v273h274v-273h-274zM4 -270q0 152 191 270h-76v1061h274v-1061q-102 -102 -125 -136t-22 -81q0 -72 73 -72q49 0 113 25l29 -135q-88 -41 -207 -41q-118 0 -184 46t-66 124z" />
    <glyph glyph-name="Idotaccent" unicode="&#x130;" horiz-adv-x="569" 
d="M152 1597v265h264v-265h-264zM139 0v1462h289v-1462h-289z" />
    <glyph glyph-name="dotlessi" unicode="&#x131;" horiz-adv-x="509" 
d="M119 0v1061h272v-1061h-272z" />
    <glyph glyph-name="IJ" unicode="&#x132;" horiz-adv-x="1136" 
d="M709 1462h288v-1403q0 -174 -9 -254t-38 -135q-86 -172 -334 -172q-115 0 -229 45l105 213q51 -25 90 -24q92 0 114 110q12 51 13 213v1407zM139 0v1462h289v-1462h-289z" />
    <glyph glyph-name="ij" unicode="&#x133;" horiz-adv-x="1028" 
d="M637 1202v273h272v-273h-272zM637 1061h272v-1022q4 -309 -91 -411t-386 -99v223q117 -4 162 52t43 206v1051zM119 0v1061h272v-1061h-272zM119 1202v273h272v-273h-272z" />
    <glyph glyph-name="Jcircumflex" unicode="&#x134;" horiz-adv-x="860" 
d="M547 1751l-94 -156h-254l247 310h201l248 -310h-254zM440 1462h289v-923q0 -176 -9 -255t-38 -134q-88 -172 -338 -173q-119 0 -209 38t-186 128l162 187q111 -119 201 -119t116 111q12 63 12 213v927z" />
    <glyph glyph-name="jcircumflex" unicode="&#x135;" horiz-adv-x="520" 
d="M256 1348l-94 -158h-254l248 311h200l248 -311h-254zM125 1061h274v-1022q4 -309 -91 -411t-388 -99v223q117 -4 162 52t43 206v1051z" />
    <glyph glyph-name="Kcommaaccent" unicode="&#x136;" horiz-adv-x="1099" 
d="M397 -489l86 360h258l-159 -360h-185zM143 0v1462h287v-569l369 569h325l-426 -602l441 -860h-326l-293 647l-90 -137v-510h-287z" />
    <glyph glyph-name="kcommaaccent" unicode="&#x137;" horiz-adv-x="972" 
d="M322 -489l86 360h258l-160 -360h-184zM119 0v1462h272v-835l295 434h299l-328 -445l334 -616h-297l-205 418l-98 -137v-281h-272z" />
    <glyph glyph-name="kgreenlandic" unicode="&#x138;" horiz-adv-x="968" 
d="M115 0v1061h272v-434l295 434h299l-328 -445l334 -616h-297l-205 418l-98 -137v-281h-272z" />
    <glyph glyph-name="Lacute" unicode="&#x139;" horiz-adv-x="978" 
d="M199 1593l151 318h301l-250 -318h-202zM139 0v1462h289v-1226h530v-236h-819z" />
    <glyph glyph-name="lacute" unicode="&#x13a;" horiz-adv-x="571" 
d="M141 1593l152 318h301l-250 -318h-203zM115 1462h272v-1028q-2 -121 33 -166t131 -45h24v-223h-36q-262 0 -343 88t-81 375v999z" />
    <glyph glyph-name="Lcommaaccent" unicode="&#x13b;" horiz-adv-x="978" 
d="M338 -489l86 360h258l-160 -360h-184zM139 0v1462h289v-1226h530v-236h-819z" />
    <glyph glyph-name="lcommaaccent" unicode="&#x13c;" horiz-adv-x="571" 
d="M119 -489l86 360h258l-160 -360h-184zM113 1462h272v-1028q-2 -121 33 -166t131 -45h24v-223h-36q-262 0 -343 88t-81 375v999z" />
    <glyph glyph-name="Lcaron" unicode="&#x13d;" horiz-adv-x="978" 
d="M569 924l64 573h256l-129 -573h-191zM139 0v1462h289v-1226h530v-236h-819z" />
    <glyph glyph-name="lcaron" unicode="&#x13e;" horiz-adv-x="788" 
d="M518 924l64 573h256l-129 -573h-191zM115 1462h272v-1028q-2 -121 33 -166t131 -45h24v-223h-36q-262 0 -343 88t-81 375v999z" />
    <glyph glyph-name="Ldot" unicode="&#x13f;" horiz-adv-x="978" 
d="M641 590v272h240v-272h-240zM139 0v1462h289v-1226h530v-236h-819z" />
    <glyph glyph-name="ldot" unicode="&#x140;" horiz-adv-x="729" 
d="M496 590v272h239v-272h-239zM115 1462h272v-1028q-2 -121 33 -166t131 -45h24v-223h-36q-262 0 -343 88t-81 375v999z" />
    <glyph glyph-name="Lslash" unicode="&#x141;" horiz-adv-x="978" 
d="M141 0v375l-118 -80v252l118 80v835h289v-651l307 207v-252l-307 -207v-323h528v-236h-817z" />
    <glyph glyph-name="lslash" unicode="&#x142;" horiz-adv-x="622" 
d="M141 1462h273v-544l200 131v-261l-200 -131v-223q-2 -121 32 -166t132 -45h24v-223h-37q-248 0 -334 80t-90 319v86l-151 -102v262l151 100v717z" />
    <glyph glyph-name="Nacute" unicode="&#x143;" horiz-adv-x="1269" 
d="M518 1593l152 318h301l-250 -318h-203zM139 0v1462h283l434 -934v934h274v-1462h-276l-440 940v-940h-275z" />
    <glyph glyph-name="nacute" unicode="&#x144;" horiz-adv-x="1028" 
d="M385 1188l152 317h301l-250 -317h-203zM115 0v1061h202l23 -84q86 106 250 106q110 0 188 -47t111 -127t33 -266v-643h-273v608q0 133 -28 188q-29 54 -102 54t-103 -56t-29 -200v-594h-272z" />
    <glyph glyph-name="Ncommaaccent" unicode="&#x145;" horiz-adv-x="1269" 
d="M455 -489l86 360h258l-160 -360h-184zM139 0v1462h283l434 -934v934h274v-1462h-276l-440 940v-940h-275z" />
    <glyph glyph-name="ncommaaccent" unicode="&#x146;" horiz-adv-x="1028" 
d="M330 -489l86 360h258l-160 -360h-184zM115 0v1061h202l23 -84q86 106 250 106q110 0 188 -47t111 -127t33 -266v-643h-273v608q0 133 -28 188q-29 54 -102 54t-103 -56t-29 -200v-594h-272z" />
    <glyph glyph-name="Ncaron" unicode="&#x147;" horiz-adv-x="1269" 
d="M647 1743l94 158h254l-247 -312h-201l-248 312h254zM139 0v1462h283l434 -934v934h274v-1462h-276l-440 940v-940h-275z" />
    <glyph glyph-name="ncaron" unicode="&#x148;" horiz-adv-x="1028" 
d="M508 1335l94 158h254l-248 -309h-200l-248 309h254zM115 0v1061h202l23 -84q86 106 250 106q110 0 188 -47t111 -127t33 -266v-643h-273v608q0 133 -28 188q-29 54 -102 54t-103 -56t-29 -200v-594h-272z" />
    <glyph glyph-name="napostrophe" unicode="&#x149;" horiz-adv-x="1220" 
d="M-20 926l55 536h295l-111 -536h-239zM307 0v1061h203l22 -86q50 59 106 84t154 25t178 -48q80 -47 112 -128t32 -265v-643h-272v608q0 134 -29 188t-101 54t-103 -56q-30 -56 -29 -200v-594h-273z" />
    <glyph glyph-name="Eng" unicode="&#x14a;" horiz-adv-x="1269" 
d="M139 0v1462h283l434 -927v927h274v-1439q4 -297 -91 -397t-380 -97v215q113 -4 160 50t47 190v28l-452 928v-940h-275z" />
    <glyph glyph-name="eng" unicode="&#x14b;" horiz-adv-x="1028" 
d="M115 0v1061h202l23 -86q51 61 105 85t154 24q101 0 179 -48q78 -47 111 -127t33 -266v-602q4 -309 -92 -413t-388 -99v223q117 -4 163 53t44 207v596q0 133 -28 188q-29 54 -102 54t-103 -56t-29 -200v-594h-272z" />
    <glyph glyph-name="Omacron" unicode="&#x14c;" horiz-adv-x="1196" 
d="M301 1636v197h590v-197h-590zM795 535v393q0 184 -42 254t-155 70t-156 -70t-43 -254v-393q0 -184 43 -254t156 -70t155 70t42 254zM111 510v442q0 268 100 389q117 143 397 143t393 -167q82 -117 82 -365v-442q0 -268 -100 -389q-117 -143 -395 -143t-398 167
q-79 117 -79 365z" />
    <glyph glyph-name="omacron" unicode="&#x14d;" horiz-adv-x="1013" 
d="M213 1231v196h590v-196h-590zM647 432v199q0 129 -31 180q-30 51 -108 51t-110 -52t-31 -179v-199q-1 -129 31 -181t110 -52t108 52t31 181zM94 432v199q0 242 96 347t316 105t317 -105q96 -105 97 -347v-199q0 -244 -96 -349t-317 -105t-317 106t-96 348z" />
    <glyph glyph-name="Obreve" unicode="&#x14e;" horiz-adv-x="1196" 
d="M597 1767q79 0 112 29t43 107h168q-4 -143 -39 -203q-70 -127 -291 -127t-289 147q-23 54 -27 183h168q10 -78 43 -107t112 -29zM795 535v393q0 184 -42 254t-155 70t-156 -70t-43 -254v-393q0 -184 43 -254t156 -70t155 70t42 254zM111 510v442q0 268 100 389
q117 143 397 143t393 -167q82 -117 82 -365v-442q0 -268 -100 -389q-117 -143 -395 -143t-398 167q-79 117 -79 365z" />
    <glyph glyph-name="obreve" unicode="&#x14f;" horiz-adv-x="1013" 
d="M507 1362q79 0 111 29t44 106h167q-4 -143 -36 -203q-74 -127 -295 -127t-287 148q-23 53 -27 182h168q10 -79 43 -107t112 -28zM647 432v199q0 129 -31 180q-30 51 -108 51t-110 -52t-31 -179v-199q-1 -129 31 -181t110 -52t108 52t31 181zM94 432v199q0 242 96 347
t316 105t317 -105q96 -105 97 -347v-199q0 -244 -96 -349t-317 -105t-317 106t-96 348z" />
    <glyph glyph-name="Ohungarumlaut" unicode="&#x150;" horiz-adv-x="1196" 
d="M641 1593l119 318h280l-211 -318h-188zM315 1593l119 318h281l-211 -318h-189zM795 535v393q0 184 -42 254t-155 70t-156 -70t-43 -254v-393q0 -184 43 -254t156 -70t155 70t42 254zM111 510v442q0 268 100 389q117 143 397 143t393 -167q82 -117 82 -365v-442
q0 -268 -100 -389q-117 -143 -395 -143t-398 167q-79 117 -79 365z" />
    <glyph glyph-name="ohungarumlaut" unicode="&#x151;" horiz-adv-x="1013" 
d="M551 1188l119 317h280l-211 -317h-188zM225 1188l119 317h281l-211 -317h-189zM647 432v199q0 129 -31 180q-30 51 -108 51t-110 -52t-31 -179v-199q-1 -129 31 -181t110 -52t108 52t31 181zM94 432v199q0 242 96 347t316 105t317 -105q96 -105 97 -347v-199
q0 -244 -96 -349t-317 -105t-317 106t-96 348z" />
    <glyph glyph-name="OE" unicode="&#x152;" horiz-adv-x="1691" 
d="M399 930v-400q0 -182 43 -250t157 -69q114 0 157 70t43 249v400q0 182 -43 252t-157 70t-157 -70t-43 -252zM850 0v74q-94 -96 -295 -97q-258 0 -369 168q-76 123 -75 363v446q0 264 94 387q113 143 331 143t314 -93v71h758v-235h-523v-371h443v-235h-443v-385h533v-236
h-768z" />
    <glyph glyph-name="oe" unicode="&#x153;" horiz-adv-x="1556" 
d="M924 655h290v31q0 98 -35 144q-36 46 -112 47q-143 0 -143 -191v-31zM649 434v195q0 127 -32 180q-33 53 -109 53t-109 -53t-32 -180v-195q1 -127 33 -181t108 -54t108 54t33 181zM94 432v199q0 237 93 345t296 108t305 -105q90 104 296 104q206 -1 298 -117t93 -380
v-123h-551v-51q0 -115 37 -166t118 -51q121 0 156 127l231 -52q-35 -158 -124 -226t-263 -67q-104 0 -170 25t-118 82q-53 -57 -122 -82t-177 -25q-210 1 -304 107t-94 348z" />
    <glyph glyph-name="Racute" unicode="&#x154;" horiz-adv-x="1146" 
d="M430 1593l152 318h301l-250 -318h-203zM424 815h156q102 0 145 47t43 160t-43 161t-145 48h-156v-416zM430 594v-594h-289v1462h459q139 0 219 -24q235 -69 236 -404q0 -186 -50 -279t-178 -139l277 -616h-320l-237 594h-117z" />
    <glyph glyph-name="racute" unicode="&#x155;" horiz-adv-x="722" 
d="M254 1188l152 317h301l-250 -317h-203zM115 0v1061h207l34 -76q45 55 86 77t119 22t189 -68l-119 -228q-68 60 -128 60t-88 -78t-28 -258v-512h-272z" />
    <glyph glyph-name="Rcommaaccent" unicode="&#x156;" horiz-adv-x="1146" 
d="M406 -489l86 360h258l-160 -360h-184zM424 815h156q102 0 145 47t43 160t-43 161t-145 48h-156v-416zM430 594v-594h-289v1462h459q139 0 219 -24q235 -69 236 -404q0 -186 -50 -279t-178 -139l277 -616h-320l-237 594h-117z" />
    <glyph glyph-name="rcommaaccent" unicode="&#x157;" horiz-adv-x="722" 
d="M37 -489l86 360h258l-160 -360h-184zM115 0v1061h207l34 -76q78 98 180 98t214 -67l-119 -228q-68 60 -128 60t-88 -78t-28 -258v-512h-272z" />
    <glyph glyph-name="Rcaron" unicode="&#x158;" horiz-adv-x="1146" 
d="M543 1743l94 158h254l-248 -312h-201l-247 312h254zM424 815h156q102 0 145 47t43 160t-43 161t-145 48h-156v-416zM430 594v-594h-289v1462h459q139 0 219 -24q235 -69 236 -404q0 -186 -50 -279t-178 -139l277 -616h-320l-237 594h-117z" />
    <glyph glyph-name="rcaron" unicode="&#x159;" horiz-adv-x="722" 
d="M401 1337l95 158h254l-248 -311h-201l-248 311h254zM115 0v1061h207l34 -76q78 98 180 98t214 -67l-119 -228q-68 60 -128 60t-88 -78t-28 -258v-512h-272z" />
    <glyph glyph-name="Sacute" unicode="&#x15a;" horiz-adv-x="1034" 
d="M377 1593l151 318h301l-249 -318h-203zM498 211q102 0 151 47q49 46 49 146q0 134 -104 174q-27 10 -191 58q-165 48 -247 146t-82 288t114 302t310 111q198 0 298 -80t142 -260l-242 -70q-33 104 -71 141q-39 37 -115 37t-118 -47t-42 -133t50 -133t178 -84t176 -57
q47 -20 94 -56q127 -94 127 -319q0 -444 -477 -445q-274 0 -392 146q-57 76 -90 215l246 72q29 -109 81 -154q53 -45 155 -45z" />
    <glyph glyph-name="sacute" unicode="&#x15b;" horiz-adv-x="901" 
d="M307 1188l152 317h301l-250 -317h-203zM590 311q0 47 -25 71t-82 34q-209 41 -274 76q-133 68 -133 264q0 158 94 242t264 85q170 0 257 -63t122 -209l-225 -59q-16 59 -48 86t-89 26q-119 0 -119 -106q0 -49 33 -74t114 -39q209 -35 277 -90q90 -74 90 -245t-100 -252
t-298 -81q-198 -1 -291 67t-128 226l233 52q20 -74 57 -101t117 -26q154 0 154 116z" />
    <glyph glyph-name="Scircumflex" unicode="&#x15c;" horiz-adv-x="1034" 
d="M518 1753l-94 -156h-254l248 310h200l248 -310h-254zM498 211q102 0 151 47q49 46 49 146q0 134 -104 174q-27 10 -191 58q-165 48 -247 146t-82 288t114 302t310 111q198 0 298 -80t142 -260l-242 -70q-33 104 -71 141q-39 37 -115 37t-118 -47t-42 -133t50 -133
t178 -84t176 -57q47 -20 94 -56q127 -94 127 -319q0 -444 -477 -445q-274 0 -392 146q-57 76 -90 215l246 72q29 -109 81 -154q53 -45 155 -45z" />
    <glyph glyph-name="scircumflex" unicode="&#x15d;" horiz-adv-x="901" 
d="M449 1348l-95 -158h-254l248 311h201l248 -311h-254zM590 311q0 47 -25 71t-82 34q-209 41 -274 76q-133 68 -133 264q0 158 94 242t264 85q170 0 257 -63t122 -209l-225 -59q-16 59 -48 86t-89 26q-119 0 -119 -106q0 -49 33 -74t114 -39q209 -35 277 -90
q90 -74 90 -245t-100 -252t-298 -81q-198 -1 -291 67t-128 226l233 52q20 -74 57 -101t117 -26q154 0 154 116z" />
    <glyph glyph-name="Scedilla" unicode="&#x15e;" horiz-adv-x="1034" 
d="M315 -489l86 360h258l-159 -360h-185zM498 211q102 0 151 47q49 46 49 146q0 134 -104 174q-27 10 -191 58q-165 48 -247 146t-82 288t114 302t310 111q198 0 298 -80t142 -260l-242 -70q-33 104 -71 141q-39 37 -115 37t-118 -47t-42 -133t50 -133t178 -84t176 -57
q47 -20 94 -56q127 -94 127 -319q0 -444 -477 -445q-274 0 -392 146q-57 76 -90 215l246 72q29 -109 81 -154q53 -45 155 -45z" />
    <glyph glyph-name="scedilla" unicode="&#x15f;" horiz-adv-x="901" 
d="M250 -489l86 360h258l-160 -360h-184zM590 311q0 47 -25 71t-82 34q-209 41 -274 76q-133 68 -133 264q0 158 94 242t264 85q170 0 257 -63t122 -209l-225 -59q-16 59 -48 86t-89 26q-119 0 -119 -106q0 -49 33 -74t114 -39q209 -35 277 -90q90 -74 90 -245t-100 -252
t-298 -81q-198 -1 -291 67t-128 226l233 52q20 -74 57 -101t117 -26q154 0 154 116z" />
    <glyph glyph-name="Scaron" unicode="&#x160;" horiz-adv-x="1034" 
d="M514 1743l94 158h254l-248 -312h-200l-248 312h254zM498 211q102 0 151 47q49 46 49 146q0 134 -104 174q-27 10 -191 58q-165 48 -247 146t-82 288t114 302t310 111q198 0 298 -80t142 -260l-242 -70q-33 104 -71 141q-39 37 -115 37t-118 -47t-42 -133t50 -133t178 -84
t176 -57q47 -20 94 -56q127 -94 127 -319q0 -444 -477 -445q-274 0 -392 146q-57 76 -90 215l246 72q29 -109 81 -154q53 -45 155 -45z" />
    <glyph glyph-name="scaron" unicode="&#x161;" horiz-adv-x="901" 
d="M451 1337l94 158h254l-248 -309h-201l-248 309h254zM590 311q0 47 -25 71t-82 34q-209 41 -274 76q-133 68 -133 264q0 158 94 242t264 85q170 0 257 -63t122 -209l-225 -59q-16 59 -48 86t-89 26q-119 0 -119 -106q0 -49 33 -74t114 -39q209 -35 277 -90q90 -74 90 -245
t-100 -252t-298 -81q-198 -1 -291 67t-128 226l233 52q20 -74 57 -101t117 -26q154 0 154 116z" />
    <glyph glyph-name="Tcommaaccent" unicode="&#x162;" horiz-adv-x="962" 
d="M272 -489l86 360h258l-159 -360h-185zM338 0v1227h-322v235h930v-235h-319v-1227h-289z" />
    <glyph glyph-name="tcommaaccent" unicode="&#x163;" horiz-adv-x="647" 
d="M160 -489l86 360h258l-160 -360h-184zM145 842h-108v219h108l17 299h256v-299h186v-219h-186v-434q0 -109 31 -148t118 -37h35v-223h-53q-254 0 -330 81t-74 353v408z" />
    <glyph glyph-name="Tcaron" unicode="&#x164;" horiz-adv-x="962" 
d="M481 1743l94 158h254l-247 -312h-201l-248 312h254zM338 0v1227h-322v235h930v-235h-319v-1227h-289z" />
    <glyph glyph-name="tcaron" unicode="&#x165;" horiz-adv-x="841" 
d="M588 1128l49 463h256l-115 -463h-190zM145 842h-108v219h108l17 299h256v-299h186v-219h-186v-434q0 -109 31 -148t118 -37h35v-223h-53q-254 0 -330 81t-74 353v408z" />
    <glyph glyph-name="Tbar" unicode="&#x166;" horiz-adv-x="962" 
d="M338 0v625h-211v227h211v375h-322v235h930v-235h-319v-375h209v-227h-209v-625h-289z" />
    <glyph glyph-name="tbar" unicode="&#x167;" horiz-adv-x="651" 
d="M152 842h-109v219h109l16 299h256v-299h186v-219h-186v-127h180v-185h-180v-135q0 -100 32 -137t117 -35h35v-223h-55q-248 0 -324 76t-77 325v129h-109v185h109v127z" />
    <glyph glyph-name="Utilde" unicode="&#x168;" horiz-adv-x="1218" 
d="M490 1905q90 1 152 -61t87 -62q43 0 55 108h162q-12 -125 -35 -178q-47 -125 -180 -125q-91 1 -149 63t-80 62q-54 1 -68 -110h-162q25 164 77 234q51 70 141 69zM135 1462h289v-960q0 -174 37 -232t149 -59q112 0 148 58q37 58 37 233v960h288v-960q0 -152 -16 -232
t-61 -137q-117 -156 -409 -156t-400 181q-61 96 -62 344v960z" />
    <glyph glyph-name="utilde" unicode="&#x169;" horiz-adv-x="1007" 
d="M397 1499q79 0 143 -61t87 -62q43 0 55 109h162q-12 -119 -35 -180q-47 -123 -180 -123q-95 0 -151 61t-79 62q-53 0 -67 -109h-162q18 125 45 180q57 123 182 123zM109 1061h274v-608q0 -133 26 -187q25 -54 93 -55q68 0 94 56t27 200v594h272v-1061h-193l-28 88
q-45 -63 -97 -87t-143 -24q-225 0 -295 179q-31 76 -30 262v643z" />
    <glyph glyph-name="Umacron" unicode="&#x16a;" horiz-adv-x="1218" 
d="M315 1636v197h590v-197h-590zM135 1462h289v-960q0 -174 37 -232t149 -59q112 0 148 58q37 58 37 233v960h288v-960q0 -152 -16 -232t-61 -137q-117 -156 -409 -156t-400 181q-61 96 -62 344v960z" />
    <glyph glyph-name="umacron" unicode="&#x16b;" horiz-adv-x="1007" 
d="M209 1231v196h590v-196h-590zM109 1061h274v-608q0 -133 26 -187q25 -54 93 -55q68 0 94 56t27 200v594h272v-1061h-193l-28 88q-45 -63 -97 -87t-143 -24q-225 0 -295 179q-31 76 -30 262v643z" />
    <glyph glyph-name="Ubreve" unicode="&#x16c;" horiz-adv-x="1218" 
d="M610 1767q78 0 111 29t43 107h168q-4 -143 -39 -203q-70 -127 -291 -127t-289 147q-22 54 -26 183h168q10 -78 43 -107q34 -29 112 -29zM135 1462h289v-960q0 -174 37 -232t149 -59q112 0 148 58q37 58 37 233v960h288v-960q0 -152 -16 -232t-61 -137
q-117 -156 -409 -156t-400 181q-61 96 -62 344v960z" />
    <glyph glyph-name="ubreve" unicode="&#x16d;" horiz-adv-x="1007" 
d="M505 1362q79 0 111 29t43 106h168q-4 -143 -36 -203q-74 -127 -295 -127t-287 148q-23 53 -27 182h168q10 -79 43 -107t112 -28zM109 1061h274v-608q0 -133 26 -187q25 -54 93 -55q68 0 94 56t27 200v594h272v-1061h-193l-28 88q-45 -63 -97 -87t-143 -24
q-225 0 -295 179q-31 76 -30 262v643z" />
    <glyph glyph-name="Uring" unicode="&#x16e;" horiz-adv-x="1218" 
d="M696 1808q0 108 -86 109q-86 0 -86 -109t86 -108q86 0 86 108zM610 2042q115 0 184 -64q68 -64 68 -168q0 -106 -70 -172t-182 -66t-182 68q-70 66 -70 171t68 168t184 63zM135 1462h289v-960q0 -174 37 -232t149 -59q112 0 148 58q37 58 37 233v960h288v-960
q0 -152 -16 -232t-61 -137q-117 -156 -409 -156t-400 181q-61 96 -62 344v960z" />
    <glyph glyph-name="uring" unicode="&#x16f;" horiz-adv-x="1007" 
d="M504 1292q86 0 86 108t-86 109q-86 -1 -86 -109t86 -108zM504 1167q-112 0 -182 66t-70 171q0 106 68 168t184 62t184 -63t68 -167t-70 -171q-70 -66 -182 -66zM109 1061h274v-608q0 -133 26 -187q25 -54 93 -55q68 0 94 56t27 200v594h272v-1061h-193l-28 88
q-45 -63 -97 -87t-143 -24q-225 0 -295 179q-31 76 -30 262v643z" />
    <glyph glyph-name="Uhungarumlaut" unicode="&#x170;" horiz-adv-x="1218" 
d="M655 1593l119 318h281l-211 -318h-189zM330 1593l119 318h280l-211 -318h-188zM135 1462h289v-960q0 -174 37 -232t149 -59q112 0 148 58q37 58 37 233v960h288v-960q0 -152 -16 -232t-61 -137q-117 -156 -409 -156t-400 181q-61 96 -62 344v960z" />
    <glyph glyph-name="uhungarumlaut" unicode="&#x171;" horiz-adv-x="1007" 
d="M549 1188l119 317h280l-211 -317h-188zM223 1188l119 317h281l-211 -317h-189zM109 1061h274v-608q0 -133 26 -187q25 -54 93 -55q68 0 94 56t27 200v594h272v-1061h-193l-28 88q-45 -63 -97 -87t-143 -24q-225 0 -295 179q-31 76 -30 262v643z" />
    <glyph glyph-name="Uogonek" unicode="&#x172;" horiz-adv-x="1218" 
d="M137 1462h289v-960q0 -148 22 -200t60 -72q37 -20 104 -19q109 0 147 60t38 231v960h288v-960q4 -209 -50 -321t-191 -169q-135 -129 -135 -227q0 -74 75 -74q51 0 111 25l29 -135q-92 -41 -199 -41q-256 0 -256 182q0 129 131 235q-129 4 -206 29t-138 82
q-72 72 -96 158q-25 86 -23 256v960z" />
    <glyph glyph-name="uogonek" unicode="&#x173;" horiz-adv-x="1007" 
d="M743 -217q0 -72 76 -72q51 0 111 25l28 -135q-88 -41 -206 -41t-183 46q-66 46 -65 132q0 147 198 264l-28 86q-45 -63 -97 -87t-143 -24q-225 0 -295 179q-31 76 -30 262v643h274v-608q0 -133 26 -187q25 -54 93 -55q68 0 94 56t27 200v594h272v-1061l-4 -4
q-94 -88 -121 -127t-27 -86z" />
    <glyph glyph-name="Wcircumflex" unicode="&#x174;" horiz-adv-x="1679" 
d="M842 1751l-94 -156h-254l247 310h201l248 -310h-254zM346 0l-313 1462h289l170 -1024l237 1024h223l238 -1024l172 1024h287l-314 -1462h-260l-233 965l-236 -965h-260z" />
    <glyph glyph-name="wcircumflex" unicode="&#x175;" horiz-adv-x="1400" 
d="M700 1348l-94 -158h-254l248 311h201l248 -311h-254zM299 0l-264 1061h278l121 -688l168 688h195l168 -688l122 688h279l-264 -1061h-238l-164 627l-163 -627h-238z" />
    <glyph glyph-name="Ycircumflex" unicode="&#x176;" horiz-adv-x="985" 
d="M494 1751l-95 -156h-254l248 310h201l248 -310h-254zM352 0v516l-399 946h305l240 -635l237 635h305l-399 -946v-516h-289z" />
    <glyph glyph-name="ycircumflex" unicode="&#x177;" horiz-adv-x="925" 
d="M463 1348l-94 -158h-254l247 311h201l248 -311h-254zM78 -471v223q118 0 154 31t73 162l17 67l-306 1049h277l170 -723l164 723h278l-319 -1139q-74 -256 -163 -324t-345 -69z" />
    <glyph glyph-name="Ydieresis" unicode="&#x178;" horiz-adv-x="985" 
d="M561 1599v263h242v-263h-242zM182 1599v263h242v-263h-242zM352 0v516l-399 946h305l240 -635l237 635h305l-399 -946v-516h-289z" />
    <glyph glyph-name="Zacute" unicode="&#x179;" horiz-adv-x="987" 
d="M397 1593l152 318h301l-250 -318h-203zM63 0v172l519 1055h-482v235h803v-172l-520 -1054h545v-236h-865z" />
    <glyph glyph-name="zacute" unicode="&#x17a;" horiz-adv-x="835" 
d="M317 1188l152 317h301l-250 -317h-203zM41 0v164l389 676h-350v221h678v-166l-389 -674h413v-221h-741z" />
    <glyph glyph-name="Zdotaccent" unicode="&#x17b;" horiz-adv-x="987" 
d="M395 1597v265h264v-265h-264zM63 0v172l519 1055h-482v235h803v-172l-520 -1054h545v-236h-865z" />
    <glyph glyph-name="zdotaccent" unicode="&#x17c;" horiz-adv-x="835" 
d="M305 1194v264h264v-264h-264zM41 0v164l389 676h-350v221h678v-166l-389 -674h413v-221h-741z" />
    <glyph glyph-name="Zcaron" unicode="&#x17d;" horiz-adv-x="987" 
d="M537 1743l94 158h254l-248 -312h-201l-248 312h254zM63 0v172l519 1055h-482v235h803v-172l-520 -1054h545v-236h-865z" />
    <glyph glyph-name="zcaron" unicode="&#x17e;" horiz-adv-x="835" 
d="M444 1335l95 158h254l-248 -309h-201l-248 309h254zM41 0v164l389 676h-350v221h678v-166l-389 -674h413v-221h-741z" />
    <glyph glyph-name="Ohorn" unicode="&#x1a0;" horiz-adv-x="1280" 
d="M795 535v393q0 184 -42 254t-155 70t-156 -70t-43 -254v-393q0 -184 43 -254t156 -70t155 70t42 254zM1339 1380q0 -114 -54 -188t-204 -166q2 -33 2 -74v-442q0 -268 -100 -389q-117 -143 -395 -143t-398 167q-80 117 -79 365v442q0 268 100 389q117 143 389 144
q194 0 304 -72t155 -225q69 63 69 146t-41 153h236q16 -51 16 -107z" />
    <glyph glyph-name="ohorn" unicode="&#x1a1;" horiz-adv-x="1120" 
d="M647 432v199q0 129 -31 180q-30 51 -108 51t-110 -52t-31 -179v-199q-1 -129 31 -181t110 -52t108 52t31 181zM1169 969q0 -195 -251 -342q2 -25 2 -66v-129q0 -244 -96 -349t-317 -105t-317 106t-96 348v199q0 242 96 347t297 105q201 1 294 -67t126 -221q91 137 11 284
h233q18 -57 18 -110z" />
    <glyph glyph-name="Uhorn" unicode="&#x1af;" horiz-adv-x="1361" 
d="M135 1462h289v-960q0 -148 22 -200t60 -72q37 -20 104 -19q109 0 147 60t38 231v960h288v-317q70 41 101 88q30 47 30 117t-38 137h233q16 -55 16 -107q0 -168 -165 -293q-57 -43 -177 -108v-477q0 -152 -17 -231t-71 -149q-111 -144 -397 -145q-287 0 -399 181
q-35 55 -49 130t-15 214v960z" />
    <glyph glyph-name="uhorn" unicode="&#x1b0;" horiz-adv-x="1183" 
d="M109 1061h274v-608q0 -133 26 -187q27 -54 93 -55q66 0 92 56t27 200v594h272v-324q131 74 131 201q0 74 -39 141h234q16 -57 16 -108q0 -166 -166 -291q-49 -37 -176 -111v-569h-193l-28 88q-46 -63 -98 -87t-140 -24q-225 0 -295 179q-31 76 -30 262v643z" />
    <glyph glyph-name="uni01C4" unicode="&#x1c4;" horiz-adv-x="2134" 
d="M1683 1743l95 158h252l-246 -312h-201l-248 312h252zM1210 0v172l519 1055h-482v235h801v-172l-518 -1054h543v-236h-863zM428 231h123q145 -1 193 61t51 251v377q-3 188 -51 249t-193 62h-123v-1000zM139 0v1462h434q270 6 394 -116q123 -123 116 -392v-446
q7 -268 -115 -390t-395 -118h-434z" />
    <glyph glyph-name="uni01C5" unicode="&#x1c5;" horiz-adv-x="2029" 
d="M1638 1337l95 158h254l-248 -311h-201l-248 311h254zM1235 0v164l389 676h-350v221h676v-166l-389 -674h415v-221h-741zM428 231h123q145 -1 193 61t51 251v377q-3 188 -51 249t-193 62h-123v-1000zM139 0v1462h434q270 6 394 -116q123 -123 116 -392v-446
q7 -268 -115 -390t-395 -118h-434z" />
    <glyph glyph-name="uni01C6" unicode="&#x1c6;" horiz-adv-x="1855" 
d="M1466 1337l95 158h251l-247 -311h-199l-248 311h252zM1063 0v164l389 676h-352v221h678v-166l-389 -674h415v-221h-741zM635 639q0 219 -139 219q-68 0 -98 -52t-31 -167v-195q1 -127 31 -184t100 -57q137 0 137 219v217zM428 -23q-170 0 -252 110t-82 362v192
q0 231 81 337t257 105q117 0 203 -61v440h274v-1462h-211l-16 68q-84 -91 -254 -91z" />
    <glyph glyph-name="uni01C7" unicode="&#x1c7;" horiz-adv-x="1548" 
d="M1118 1462h289v-1403q0 -174 -9 -254t-38 -135q-86 -172 -334 -172q-115 0 -229 45l104 213q51 -25 90 -24q92 0 115 110q12 51 12 213v1407zM139 0v1462h289v-1226h530v-236h-819z" />
    <glyph glyph-name="uni01C8" unicode="&#x1c8;" horiz-adv-x="1499" 
d="M1108 1061h272v-1022q4 -309 -91 -411t-386 -99v223q117 -4 162 52t43 206v1051zM1108 1202v273h272v-273h-272zM139 0v1462h289v-1226h530v-236h-819z" />
    <glyph glyph-name="uni01C9" unicode="&#x1c9;" horiz-adv-x="1091" 
d="M700 1061h273v-1022q4 -309 -91 -411t-388 -99v223q120 -4 164 52t42 206v1051zM700 1202v273h273v-273h-273zM115 1462h272v-1028q-2 -121 33 -166t131 -45h24v-223h-36q-262 0 -343 88t-81 375v999z" />
    <glyph glyph-name="uni01CA" unicode="&#x1ca;" horiz-adv-x="1839" 
d="M1409 1462h289v-1403q0 -174 -9 -254t-38 -135q-86 -172 -334 -172q-115 0 -230 45l105 213q51 -25 90 -24q92 0 115 110q12 51 12 213v1407zM139 0v1462h283l432 -934v934h274v-1462h-276l-438 940v-940h-275z" />
    <glyph glyph-name="uni01CB" unicode="&#x1cb;" horiz-adv-x="1789" 
d="M1399 1202v273h272v-273h-272zM1399 1061h272v-1022q4 -309 -91 -411t-386 -99v223q117 -4 162 52t43 206v1051zM139 0v1462h283l432 -934v934h274v-1462h-276l-438 940v-940h-275z" />
    <glyph glyph-name="uni01CC" unicode="&#x1cc;" horiz-adv-x="1548" 
d="M1159 1202v273h273v-273h-273zM1159 1061h273v-1022q4 -309 -92 -411t-386 -99v223q117 -4 162 52t43 206v1051zM115 0v1061h202l23 -84q86 106 250 106q110 0 188 -47t111 -127t33 -266v-643h-273v608q0 133 -28 188q-29 54 -102 54t-103 -56t-29 -200v-594h-272z" />
    <glyph glyph-name="uni01CD" unicode="&#x1cd;" horiz-adv-x="1114" 
d="M557 1743l94 158h254l-248 -312h-200l-248 312h254zM715 512l-156 588l-153 -588h309zM774 283h-430l-74 -283h-311l469 1462h262l469 -1462h-311z" />
    <glyph glyph-name="uni01CE" unicode="&#x1ce;" horiz-adv-x="972" 
d="M494 1335l94 158h254l-248 -309h-201l-248 309h254zM592 461h-109q-85 0 -119 -33t-34 -109q0 -75 28 -103t104 -28q74 0 102 34t28 126v113zM592 645v33q0 100 -29 142t-93 42t-94 -26t-52 -95l-230 70q70 272 383 272q254 0 340 -163q47 -88 47 -277v-643h-213l-16 59
q-80 -82 -249 -82t-246 77q-77 78 -77 262t78 256t285 73h166z" />
    <glyph glyph-name="uni01CF" unicode="&#x1cf;" horiz-adv-x="569" 
d="M285 1743l94 158h254l-248 -312h-201l-247 312h253zM139 0v1462h289v-1462h-289z" />
    <glyph glyph-name="uni01D0" unicode="&#x1d0;" horiz-adv-x="509" 
d="M254 1337l94 158h254l-248 -311h-200l-248 311h254zM117 0v1061h272v-1061h-272z" />
    <glyph glyph-name="uni01D1" unicode="&#x1d1;" horiz-adv-x="1196" 
d="M598 1743l94 158h252l-246 -312h-200l-248 312h252zM795 535v393q0 184 -43 254t-156 70t-155 -70t-42 -254v-393q0 -184 42 -254t155 -70t156 70t43 254zM111 510v442q0 268 100 389q117 143 397 143t393 -167q82 -117 82 -365v-442q0 -268 -100 -389
q-117 -143 -397 -143t-393 167q-82 117 -82 365z" />
    <glyph glyph-name="uni01D2" unicode="&#x1d2;" horiz-adv-x="1013" 
d="M508 1335l94 158h254l-248 -309h-200l-248 309h254zM647 432v199q0 129 -31 180q-30 51 -108 51t-110 -52t-31 -179v-199q-1 -129 31 -181t110 -52t108 52t31 181zM94 432v199q0 242 96 347t316 105t317 -105q96 -105 97 -347v-199q0 -244 -96 -349t-317 -105t-317 106
t-96 348z" />
    <glyph glyph-name="uni01D3" unicode="&#x1d3;" horiz-adv-x="1218" 
d="M610 1743l95 158h253l-247 -312h-201l-248 312h254zM135 1462h289v-960q0 -174 37 -232t149 -59q112 0 148 58q37 58 37 233v960h288v-960q0 -152 -16 -232t-61 -137q-117 -156 -409 -156t-400 181q-61 96 -62 344v960z" />
    <glyph glyph-name="uni01D4" unicode="&#x1d4;" horiz-adv-x="1007" 
d="M504 1335l94 158h254l-248 -309h-201l-247 309h254zM109 1061h274v-608q0 -133 26 -187q25 -54 93 -55q68 0 94 56t27 200v594h272v-1061h-193l-28 88q-45 -63 -97 -87t-143 -24q-225 0 -295 179q-31 76 -30 262v643z" />
    <glyph glyph-name="Gcaron" unicode="&#x1e6;" horiz-adv-x="1173" 
d="M588 1743l94 158h254l-248 -312h-201l-247 312h254zM612 590v221h469v-258q0 -283 -84 -406q-121 -170 -400 -170t-400 164q-86 117 -86 389v400q0 160 24 254q79 296 455 297q223 -1 335 -107t119 -327l-264 -11q-10 113 -53 162t-143 49q-100 -1 -143 -73
q-42 -72 -42 -265v-358q0 -195 43 -267q42 -72 152 -73q110 0 157 64q46 65 46 217v98h-185z" />
    <glyph glyph-name="gcaron" unicode="&#x1e7;" horiz-adv-x="1021" 
d="M532 1335l95 158h254l-248 -309h-201l-248 309h254zM367 639v-193q1 -129 31 -186t100 -57q137 0 137 219v217q0 219 -137 219q-70 0 -100 -52t-31 -167zM635 -20v53q-82 -55 -197 -56q-182 0 -263 111t-81 361v192q0 231 81 337t244 105q163 0 253 -90l26 68h209v-1049
q0 -258 -102 -377t-322 -118q-164 0 -249 63t-117 211l227 59q24 -72 52 -96t98 -24t106 58q35 58 35 192z" />
    <glyph glyph-name="uni01EA" unicode="&#x1ea;" horiz-adv-x="1196" 
d="M801 535v393q0 184 -42 254t-155 70q-114 0 -156 -70t-42 -254v-393q0 -184 43 -254t155 -70t155 70q42 70 42 254zM1090 952v-442q4 -200 -54 -318t-186 -176q-84 -82 -116 -132t-32 -99q0 -74 74 -74q51 0 111 25l28 -135q-90 -41 -198 -41q-256 0 -256 180
q0 127 137 237q-254 0 -370 129t-111 404v442q0 268 100 389q117 143 397 143t394 -167q82 -117 82 -365z" />
    <glyph glyph-name="uni01EB" unicode="&#x1eb;" horiz-adv-x="1013" 
d="M649 432v199q0 129 -31 180q-30 51 -108 51t-110 -52t-31 -179v-199q-1 -129 31 -181t110 -52t108 52t31 181zM922 631v-199q0 -172 -44 -269t-143 -145q-77 -86 -103 -134t-26 -99q0 -74 76 -74q47 0 111 25l28 -135q-88 -41 -198 -41q-258 0 -258 182q0 123 118 235
q-207 7 -298 113t-89 342v199q0 242 96 347t317 105t317 -105t96 -347z" />
    <glyph glyph-name="uni01F1" unicode="&#x1f1;" horiz-adv-x="2134" 
d="M1210 0v172l519 1055h-482v235h801v-172l-518 -1054h543v-236h-863zM428 231h123q145 -1 193 61t51 251v377q-3 188 -51 249t-193 62h-123v-1000zM139 0v1462h434q270 6 394 -116q123 -123 116 -392v-446q7 -268 -115 -390t-395 -118h-434z" />
    <glyph glyph-name="uni01F2" unicode="&#x1f2;" horiz-adv-x="2029" 
d="M1235 0v164l389 676h-350v221h676v-166l-389 -674h415v-221h-741zM428 231h123q145 -1 193 61t51 251v377q-3 188 -51 249t-193 62h-123v-1000zM139 0v1462h434q270 6 394 -116q123 -123 116 -392v-446q7 -268 -115 -390t-395 -118h-434z" />
    <glyph glyph-name="uni01F3" unicode="&#x1f3;" horiz-adv-x="1855" 
d="M1063 0v164l389 676h-352v221h678v-166l-389 -674h415v-221h-741zM635 639q0 219 -139 219q-68 0 -98 -52t-31 -167v-195q1 -127 31 -184t100 -57q137 0 137 219v217zM428 -23q-170 0 -252 110t-82 362v192q0 231 81 337t257 105q117 0 203 -61v440h274v-1462h-211
l-16 68q-84 -91 -254 -91z" />
    <glyph glyph-name="uni01F4" unicode="&#x1f4;" horiz-adv-x="1173" 
d="M451 1593l151 318h301l-250 -318h-202zM612 590v221h469v-258q0 -283 -84 -406q-121 -170 -400 -170t-400 164q-86 117 -86 389v400q0 160 24 254q79 296 455 297q223 -1 335 -107t119 -327l-264 -11q-10 113 -53 162t-143 49q-100 -1 -143 -73q-42 -72 -42 -265v-358
q0 -195 43 -267q42 -72 152 -73q110 0 157 64q46 65 46 217v98h-185z" />
    <glyph glyph-name="uni01F5" unicode="&#x1f5;" horiz-adv-x="1021" 
d="M389 1188l152 317h301l-250 -317h-203zM367 639v-193q1 -129 31 -186t100 -57q137 0 137 219v217q0 219 -137 219q-70 0 -100 -52t-31 -167zM635 -20v53q-82 -55 -197 -56q-182 0 -263 111t-81 361v192q0 231 81 337t244 105q163 0 253 -90l26 68h209v-1049
q0 -258 -102 -377t-322 -118q-164 0 -249 63t-117 211l227 59q24 -72 52 -96t98 -24t106 58q35 58 35 192z" />
    <glyph glyph-name="Aringacute" unicode="&#x1fa;" horiz-adv-x="1114" 
d="M446 1845l113 266h320l-256 -266h-177zM557 1464q86 0 86 108t-86 109q-86 -1 -86 -109t86 -108zM715 512l-156 588l-153 -588h309zM305 1566q0 114 69 178q70 62 184 62t182 -62t69 -173q0 -111 -94 -187l444 -1384h-311l-74 283h-430l-74 -283h-311l444 1382
q-98 70 -98 184z" />
    <glyph glyph-name="aringacute" unicode="&#x1fb;" horiz-adv-x="972" 
d="M377 1673l112 266h320l-256 -266h-176zM573 1378q0 108 -86 109q-86 0 -86 -109t86 -108q86 0 86 108zM488 1614q116 0 184 -64t68 -168q0 -106 -70 -172t-183 -66t-183 66t-68 172q0 106 68 169q69 63 184 63zM592 461h-109q-85 0 -119 -33t-34 -109q0 -75 28 -103
t104 -28q74 0 102 34t28 126v113zM592 645v33q0 100 -29 142t-93 42t-94 -26t-52 -95l-230 70q70 272 383 272q254 0 340 -163q47 -88 47 -277v-643h-213l-16 59q-80 -82 -249 -82t-246 77q-77 78 -77 262t78 256t285 73h166z" />
    <glyph glyph-name="AEacute" unicode="&#x1fc;" horiz-adv-x="1714" 
d="M989 1593l152 318h301l-250 -318h-203zM825 545v682h-22l-328 -682h350zM825 313h-460l-152 -313h-334l785 1462h968v-235h-524v-371h444v-235h-444v-385h534v-236h-817v313z" />
    <glyph glyph-name="aeacute" unicode="&#x1fd;" horiz-adv-x="1501" 
d="M606 1188l152 317h301l-250 -317h-203zM866 651h291v37q0 188 -147 189q-143 0 -144 -191v-35zM590 461h-109q-84 0 -119 -33q-34 -33 -34 -109q0 -77 28 -105t103 -28t103 36t28 132v107zM1030 1083q203 -1 295 -117t92 -380v-123h-551v-51q0 -115 37 -166t119 -51
q123 0 156 127l231 -52q-33 -156 -124 -224t-281 -69q-190 0 -279 117q-92 -117 -332 -117q-180 0 -256 77t-76 261t79 257t284 73h166v33q0 100 -30 142t-102 42t-108 -45l-37 -69l-219 67q56 269 385 269q166 0 256 -99q92 98 295 98z" />
    <glyph glyph-name="Oslashacute" unicode="&#x1fe;" horiz-adv-x="1196" 
d="M455 1593l151 318h301l-250 -318h-202zM590 1251q-106 1 -149 -69q-42 -70 -42 -254v-316l342 586q-45 53 -151 53zM606 211q106 0 148 70q43 70 43 254v315l-342 -586q45 -53 151 -53zM1085 952v-442q0 -268 -100 -389q-117 -143 -387 -144q-180 0 -281 56l-49 -88
l-192 112l84 146q-49 115 -49 307v442q0 268 100 389q117 143 385 144q186 0 283 -55l49 86l194 -113l-86 -143q49 -119 49 -308z" />
    <glyph glyph-name="oslashacute" unicode="&#x1ff;" horiz-adv-x="1015" 
d="M362 1188l152 317h301l-250 -317h-203zM498 862q-68 0 -101 -52t-32 -177v-170l235 366q-34 33 -102 33zM647 430v172l-237 -369q34 -35 104 -35t102 54q32 53 31 178zM920 430q0 -242 -96 -347t-314 -106q-150 0 -236 43l-45 -69l-135 88l60 90q-61 104 -62 301v203
q0 240 96 345t316 105q139 0 231 -43l45 70l135 -86l-57 -90q61 -98 62 -301v-203z" />
    <glyph glyph-name="uni0200" unicode="&#x200;" horiz-adv-x="1114" 
d="M512 1593h-188l-211 318h280zM838 1593h-189l-211 318h281zM715 512l-156 588l-153 -588h309zM774 283h-430l-74 -283h-311l469 1462h262l469 -1462h-311z" />
    <glyph glyph-name="uni0201" unicode="&#x201;" horiz-adv-x="972" 
d="M449 1188h-189l-211 317h281zM774 1188h-188l-211 317h280zM580 461h-109q-84 0 -119 -33t-35 -109q0 -75 29 -103q28 -28 102 -28t103 34t29 126v113zM580 645v33q0 102 -30 143t-94 41t-95 -25q-30 -26 -50 -96l-231 70q72 272 383 272q256 0 342 -163q47 -88 47 -277
v-643h-213l-16 59q-82 -82 -250 -82t-245 77q-77 78 -77 262t78 256t283 73h168z" />
    <glyph glyph-name="uni0202" unicode="&#x202;" horiz-adv-x="1114" 
d="M559 1729q-78 0 -112 -29t-44 -107h-167q8 150 36 203q74 127 294 127t288 -147q23 -54 27 -183h-168q-10 78 -43 107t-111 29zM715 512l-156 588l-153 -588h309zM774 283h-430l-74 -283h-311l469 1462h262l469 -1462h-311z" />
    <glyph glyph-name="uni0203" unicode="&#x203;" horiz-adv-x="972" 
d="M487 1323q-77 0 -111 -29t-44 -106h-168q8 150 37 203q73 127 293 127t288 -148q23 -53 27 -182h-168q-10 78 -43 106t-111 29zM592 461h-109q-85 0 -119 -33t-34 -109q0 -75 28 -103t104 -28q74 0 102 34t28 126v113zM592 645v33q0 100 -29 142t-93 42t-94 -26t-52 -95
l-230 70q70 272 383 272q254 0 340 -163q47 -88 47 -277v-643h-213l-16 59q-80 -82 -249 -82t-246 77q-77 78 -77 262t78 256t285 73h166z" />
    <glyph glyph-name="uni0204" unicode="&#x204;" horiz-adv-x="1034" 
d="M489 1593h-188l-211 318h281zM815 1593h-188l-211 318h280zM133 0v1462h809v-235h-522v-371h442v-235h-442v-385h532v-236h-819z" />
    <glyph glyph-name="uni0205" unicode="&#x205;" horiz-adv-x="1001" 
d="M451 1188h-189l-211 317h281zM776 1188h-188l-211 317h280zM362 655h291v31q0 98 -36 144t-111 47q-143 0 -144 -191v-31zM362 463v-51q0 -115 37 -166t119 -51q123 0 156 127l231 -52q-33 -160 -126 -226t-295 -67q-202 0 -300 115q-96 115 -96 377v117q0 266 96 382
t316 116t317 -116q96 -116 96 -382v-123h-551z" />
    <glyph glyph-name="uni0206" unicode="&#x206;" horiz-adv-x="1034" 
d="M536 1729q-78 0 -111 -29q-34 -29 -44 -107h-168q8 150 37 203q74 127 294 127t287 -147q23 -54 27 -183h-168q-10 78 -43 107t-111 29zM141 0v1462h811v-235h-524v-371h442v-235h-442v-385h533v-236h-820z" />
    <glyph glyph-name="uni0207" unicode="&#x207;" horiz-adv-x="1001" 
d="M502 1323q-78 0 -112 -29t-44 -106h-168q8 150 37 203q74 127 294 127t288 -148q22 -53 26 -182h-168q-10 78 -43 106q-32 28 -110 29zM367 655h290v31q0 190 -145 191q-145 0 -145 -191v-31zM369 463v-51q-1 -115 35 -166t118 -51q125 0 156 127l231 -52
q-33 -160 -125 -226t-294 -67q-202 0 -300 115q-96 115 -96 377v117q0 266 96 382t316 116t315 -116q96 -116 97 -382v-123h-549z" />
    <glyph glyph-name="uni0208" unicode="&#x208;" horiz-adv-x="569" 
d="M240 1593h-189l-211 318h281zM565 1593h-188l-211 318h280zM139 0v1462h289v-1462h-289z" />
    <glyph glyph-name="uni0209" unicode="&#x209;" horiz-adv-x="509" 
d="M211 1188h-188l-211 317h280zM537 1188h-189l-211 317h281zM119 0v1061h274v-1061h-274z" />
    <glyph glyph-name="uni020A" unicode="&#x20a;" horiz-adv-x="569" 
d="M286 1729q-78 0 -111 -29q-34 -29 -44 -107h-168q8 150 37 203q74 127 294 127t288 -147q22 -54 26 -183h-168q-10 78 -43 107t-111 29zM141 0v1462h289v-1462h-289z" />
    <glyph glyph-name="uni020B" unicode="&#x20b;" horiz-adv-x="509" 
d="M256 1323q-78 0 -112 -29t-44 -106h-168q8 150 37 203q74 127 294 127t288 -148q23 -53 27 -182h-168q-10 78 -43 106t-111 29zM119 0v1061h272v-1061h-272z" />
    <glyph glyph-name="uni020C" unicode="&#x20c;" horiz-adv-x="1196" 
d="M553 1593h-188l-211 318h280zM879 1593h-189l-211 318h281zM795 535v393q0 184 -42 254t-155 70t-156 -70t-43 -254v-393q0 -184 43 -254t156 -70t155 70t42 254zM111 510v442q0 268 100 389q117 143 397 143t393 -167q82 -117 82 -365v-442q0 -268 -100 -389
q-117 -143 -395 -143t-398 167q-79 117 -79 365z" />
    <glyph glyph-name="uni020D" unicode="&#x20d;" horiz-adv-x="1013" 
d="M455 1188h-189l-211 317h281zM780 1188h-188l-211 317h281zM639 432v199q0 129 -31 180q-30 51 -108 51t-109 -51t-31 -180v-199q0 -129 31 -181t109 -52t108 52t31 181zM86 432v199q0 242 97 347t317 105t315 -105q96 -105 96 -347v-199q0 -242 -96 -348t-316 -106
q-221 0 -317 104q-96 106 -96 350z" />
    <glyph glyph-name="uni020E" unicode="&#x20e;" horiz-adv-x="1196" 
d="M598 1729q-78 0 -112 -29t-44 -107h-168q8 150 37 203q74 127 294 127t288 -147q23 -54 27 -183h-168q-10 78 -43 107t-111 29zM795 535v393q0 184 -42 254t-155 70t-156 -70t-43 -254v-393q0 -184 43 -254t156 -70t155 70t42 254zM111 510v442q0 268 100 389
q117 143 397 143t393 -167q82 -117 82 -365v-442q0 -268 -100 -389q-117 -143 -395 -143t-398 167q-79 117 -79 365z" />
    <glyph glyph-name="uni020F" unicode="&#x20f;" horiz-adv-x="1013" 
d="M508 1323q-78 0 -112 -29t-44 -106h-168q8 150 37 203q74 127 294 127t288 -148q22 -53 26 -182h-167q-10 78 -44 106q-32 28 -110 29zM647 432v199q0 129 -31 180q-30 51 -108 51t-110 -52t-31 -179v-199q-1 -129 31 -181t110 -52t108 52t31 181zM94 432v199
q0 242 96 347t316 105t317 -105q96 -105 97 -347v-199q0 -244 -96 -349t-317 -105t-317 106t-96 348z" />
    <glyph glyph-name="uni0210" unicode="&#x210;" horiz-adv-x="1146" 
d="M489 1593h-188l-211 318h281zM815 1593h-188l-211 318h280zM420 815h155q102 0 146 47q43 47 43 160t-43 161t-146 48h-155v-416zM426 594v-594h-289v1462h459q139 0 219 -22q234 -66 236 -406q-1 -186 -51 -279t-177 -139l277 -616h-320l-237 594h-117z" />
    <glyph glyph-name="uni0211" unicode="&#x211;" horiz-adv-x="722" 
d="M326 1188h-189l-211 317h281zM651 1188h-188l-211 317h280zM113 0v1061h209l34 -76q78 98 182 98t212 -67l-119 -228q-66 60 -127 60t-89 -78t-28 -258v-512h-274z" />
    <glyph glyph-name="uni0212" unicode="&#x212;" horiz-adv-x="1146" 
d="M542 1729q-78 0 -111 -29q-34 -29 -44 -107h-168q8 150 37 203q74 127 294 127t288 -147q22 -54 26 -183h-168q-10 78 -43 107t-111 29zM424 815h156q102 0 145 47t43 160t-43 161t-145 48h-156v-416zM430 594v-594h-289v1462h459q139 0 219 -24q235 -69 236 -404
q0 -186 -50 -279t-178 -139l277 -616h-320l-237 594h-117z" />
    <glyph glyph-name="uni0213" unicode="&#x213;" horiz-adv-x="722" 
d="M383 1323q-78 0 -112 -29t-44 -106h-168q8 150 37 203q74 127 294 127t288 -148q23 -53 27 -182h-168q-10 78 -43 106t-111 29zM113 0v1061h206l35 -76q45 55 86 77t119 22t189 -68l-119 -228q-68 60 -128 60t-88 -78t-28 -258v-512h-272z" />
    <glyph glyph-name="uni0214" unicode="&#x214;" horiz-adv-x="1218" 
d="M565 1593h-188l-211 318h280zM891 1593h-189l-210 318h280zM135 1462h289v-960q0 -174 37 -232t149 -59q112 0 148 58q37 58 37 233v960h288v-960q0 -152 -16 -232t-61 -137q-117 -156 -409 -156t-400 181q-61 96 -62 344v960z" />
    <glyph glyph-name="uni0215" unicode="&#x215;" horiz-adv-x="1007" 
d="M455 1188h-189l-211 317h281zM780 1188h-188l-211 317h281zM102 1061h275v-608q0 -133 25 -188q26 -54 94 -54t94 56t26 200v594h273v-1061h-193l-28 88q-46 -63 -98 -87t-142 -24q-225 0 -295 179q-31 80 -31 262v643z" />
    <glyph glyph-name="uni0216" unicode="&#x216;" horiz-adv-x="1218" 
d="M612 1729q-78 0 -112 -29t-43 -107h-168q8 150 37 203q74 127 294 127t287 -147q23 -54 27 -183h-168q-10 78 -43 107t-111 29zM135 1462h289v-960q0 -174 37 -232t149 -59q112 0 148 58q37 58 37 233v960h288v-960q0 -152 -16 -232t-61 -137q-117 -156 -409 -156
t-400 181q-61 96 -62 344v960z" />
    <glyph glyph-name="uni0217" unicode="&#x217;" horiz-adv-x="1007" 
d="M506 1323q-78 0 -112 -29t-44 -106h-168q8 150 37 203q74 127 294 127t288 -148q22 -53 26 -182h-168q-10 78 -43 106q-32 28 -110 29zM109 1061h274v-608q0 -133 26 -187q25 -54 93 -55q68 0 94 56t27 200v594h272v-1061h-193l-28 88q-45 -63 -97 -87t-143 -24
q-225 0 -295 179q-31 76 -30 262v643z" />
    <glyph glyph-name="Scommaaccent" unicode="&#x218;" horiz-adv-x="1034" 
d="M301 -489l86 360h258l-160 -360h-184zM498 211q102 0 151 47q49 46 49 146q0 134 -104 174q-27 10 -191 58q-165 48 -247 146t-82 288t114 302t310 111q198 0 298 -80t142 -260l-242 -70q-33 104 -71 141q-39 37 -115 37t-118 -47t-42 -133t50 -133t178 -84t176 -57
q47 -20 94 -56q127 -94 127 -319q0 -444 -477 -445q-274 0 -392 146q-57 76 -90 215l246 72q29 -109 81 -154q53 -45 155 -45z" />
    <glyph glyph-name="scommaaccent" unicode="&#x219;" horiz-adv-x="901" 
d="M242 -489l86 360h258l-160 -360h-184zM590 311q0 47 -25 71t-82 34q-209 41 -274 76q-133 68 -133 264q0 158 94 242t264 85q170 0 257 -63t122 -209l-225 -59q-16 59 -48 86t-89 26q-119 0 -119 -106q0 -49 33 -74t114 -39q209 -35 277 -90q90 -74 90 -245t-100 -252
t-298 -81q-198 -1 -291 67t-128 226l233 52q20 -74 57 -101t117 -26q154 0 154 116z" />
    <glyph glyph-name="uni021A" unicode="&#x21a;" horiz-adv-x="962" 
d="M272 -489l86 360h258l-159 -360h-185zM338 0v1227h-322v235h930v-235h-319v-1227h-289z" />
    <glyph glyph-name="uni021B" unicode="&#x21b;" horiz-adv-x="647" 
d="M160 -489l86 360h258l-160 -360h-184zM145 842h-108v219h108l17 299h256v-299h186v-219h-186v-434q0 -109 31 -148t118 -37h35v-223h-53q-254 0 -330 81t-74 353v408z" />
    <glyph glyph-name="uni0226" unicode="&#x226;" horiz-adv-x="1114" 
d="M424 1597v265h264v-265h-264zM715 512l-156 588l-153 -588h309zM774 283h-430l-74 -283h-311l469 1462h262l469 -1462h-311z" />
    <glyph glyph-name="uni0227" unicode="&#x227;" horiz-adv-x="972" 
d="M362 1194v264h265v-264h-265zM592 461h-109q-85 0 -119 -33t-34 -109q0 -75 28 -103t104 -28q74 0 102 34t28 126v113zM592 645v33q0 100 -29 142t-93 42t-94 -26t-52 -95l-230 70q70 272 383 272q254 0 340 -163q47 -88 47 -277v-643h-213l-16 59q-80 -82 -249 -82
t-246 77q-77 78 -77 262t78 256t285 73h166z" />
    <glyph glyph-name="uni0237" unicode="&#x237;" horiz-adv-x="520" 
d="M129 1061h272v-1022q4 -309 -91 -411t-386 -99v223q117 -4 162 52t43 206v1051z" />
    <glyph glyph-name="afii57929" unicode="&#x2bc;" horiz-adv-x="419" 
d="M39 930l55 532h285l-107 -532h-233z" />
    <glyph glyph-name="uni02C0" unicode="&#x2c0;" 
d="M614 1575h-182q0 98 9 130t53 85q18 25 18 43q0 35 -40 35t-124 -37l-47 164q123 39 219 39t154 -49t57 -138q0 -45 -13 -69t-69 -82q-23 -28 -29 -48t-6 -73z" />
    <glyph glyph-name="circumflex" unicode="&#x2c6;" 
d="M512 1348l-94 -158h-254l248 311h200l248 -311h-254z" />
    <glyph glyph-name="caron" unicode="&#x2c7;" 
d="M512 1337l94 158h254l-248 -309h-200l-248 309h254z" />
    <glyph glyph-name="uni02C9" unicode="&#x2c9;" 
d="M217 1231v196h590v-196h-590z" />
    <glyph glyph-name="breve" unicode="&#x2d8;" 
d="M511 1362q79 0 112 29t43 106h168q-4 -143 -37 -203q-74 -127 -295 -127t-287 148q-23 53 -27 182h168q10 -79 43 -107t112 -28z" />
    <glyph glyph-name="dotaccent" unicode="&#x2d9;" 
d="M379 1194v264h264v-264h-264z" />
    <glyph glyph-name="ring" unicode="&#x2da;" 
d="M512 1292q86 0 86 108t-86 109q-86 -1 -86 -109t86 -108zM512 1167q-112 0 -182 66t-70 171q0 106 68 168t184 62t184 -63t68 -167t-70 -171q-70 -66 -182 -66z" />
    <glyph glyph-name="ogonek" unicode="&#x2db;" 
d="M610 -217q0 -72 74 -72q53 0 113 25l28 -135q-90 -41 -198 -41q-258 0 -258 178q0 94 73 168q44 44 119 94h201l-17 -14q-79 -76 -107 -117t-28 -86z" />
    <glyph glyph-name="tilde" unicode="&#x2dc;" 
d="M401 1499q79 0 143 -61t87 -62q43 0 55 109h162q-12 -119 -35 -180q-47 -123 -180 -123q-95 0 -151 61t-79 62q-53 0 -67 -109h-162q18 125 45 180q57 123 182 123z" />
    <glyph glyph-name="hungarumlaut" unicode="&#x2dd;" 
d="M557 1188l119 317h280l-211 -317h-188zM231 1188l119 317h281l-211 -317h-189z" />
    <glyph glyph-name="uni0309" unicode="&#x309;" 
d="M614 1178h-182q0 98 9 132t53 85q18 25 18 43q0 35 -41 35t-123 -37l-47 161q119 41 217 41t156 -49t57 -137q0 -45 -13 -70t-69 -82q-23 -29 -29 -49t-6 -73z" />
    <glyph glyph-name="uni0312" unicode="&#x312;" 
d="M369 1188l249 317h203l-151 -317h-301z" />
    <glyph glyph-name="uni0313" unicode="&#x313;" horiz-adv-x="237" 
d="M-29 924l64 573h256l-129 -573h-191z" />
    <glyph glyph-name="uni031B" unicode="&#x31b;" horiz-adv-x="237" 
d="M-29 924l64 573h256l-129 -573h-191z" />
    <glyph glyph-name="uni0323" unicode="&#x323;" 
d="M379 -430v264h264v-264h-264z" />
    <glyph glyph-name="uni037E" unicode="&#x37e;" horiz-adv-x="528" 
d="M152 788v273h288v-273h-288zM55 -385l86 653h301l-139 -653h-248z" />
    <glyph glyph-name="uni0387" unicode="&#x387;" horiz-adv-x="530" 
d="M121 590v272h289v-272h-289z" />
    <glyph glyph-name="uni04D4" unicode="&#x4d4;" horiz-adv-x="1714" 
d="M825 545v682h-22l-328 -682h350zM825 313h-460l-152 -313h-334l785 1462h968v-235h-524v-371h444v-235h-444v-385h534v-236h-817v313z" />
    <glyph glyph-name="uni04D5" unicode="&#x4d5;" horiz-adv-x="1501" 
d="M866 651h291v37q0 188 -147 189q-143 0 -144 -191v-35zM590 461h-109q-84 0 -119 -33q-34 -33 -34 -109q0 -77 28 -105t103 -28t103 36t28 132v107zM1030 1083q203 -1 295 -117t92 -380v-123h-551v-51q0 -115 37 -166t119 -51q123 0 156 127l231 -52q-33 -156 -124 -224
t-281 -69q-190 0 -279 117q-92 -117 -332 -117q-180 0 -256 77t-76 261t79 257t284 73h166v33q0 100 -30 142t-102 42t-108 -45l-37 -69l-219 67q56 269 385 269q166 0 256 -99q92 98 295 98z" />
    <glyph glyph-name="uni1E02" unicode="&#x1e02;" horiz-adv-x="1150" 
d="M410 1597v265h264v-265h-264zM426 231h190q96 0 136 44q39 44 39 153t-38 155t-128 46h-199v-398zM426 860h178q86 0 125 44t39 143t-38 141t-128 43h-176v-371zM139 0v1462h482q127 0 199 -20t126 -70q109 -104 109 -315t-125 -293q78 -57 112 -140t35 -218
q0 -225 -119 -328q-92 -78 -294 -78h-525z" />
    <glyph glyph-name="uni1E03" unicode="&#x1e03;" horiz-adv-x="1021" 
d="M528 1194v264h265v-264h-265zM655 442v197q0 115 -30 167q-31 52 -101 52q-137 0 -137 -219v-217q0 -219 137 -219q70 0 101 56q30 56 30 183zM115 0v1462h272v-440q86 61 201 61q178 0 259 -105t81 -337v-192q0 -250 -81 -361t-265 -111q-86 1 -136 19t-106 72l-16 -68
h-209z" />
    <glyph glyph-name="uni1E0C" unicode="&#x1e0c;" horiz-adv-x="1196" 
d="M416 -430v264h264v-264h-264zM428 231h123q145 -1 193 61t51 251v377q-3 188 -51 249t-193 62h-123v-1000zM139 0v1462h434q270 6 394 -116q123 -123 116 -392v-446q7 -268 -115 -390t-395 -118h-434z" />
    <glyph glyph-name="uni1E0D" unicode="&#x1e0d;" horiz-adv-x="1021" 
d="M412 -430v264h264v-264h-264zM367 639v-195q1 -127 31 -184t100 -57q135 0 135 219v217q0 219 -137 219q-68 0 -98 -52t-31 -167zM427 -23q-169 0 -251 110t-82 362v192q0 231 81 337t257 105q115 0 201 -61v440h274v-1462h-211l-16 68q-84 -91 -253 -91z" />
    <glyph glyph-name="uni1E1E" unicode="&#x1e1e;" horiz-adv-x="983" 
d="M426 1597v265h264v-265h-264zM141 0v1462h799v-235h-510v-383h424v-236h-424v-608h-289z" />
    <glyph glyph-name="uni1E1F" unicode="&#x1e1f;" horiz-adv-x="636" 
d="M266 1597v265h264v-265h-264zM156 842h-109v219h109v86q-2 186 69 253q72 67 264 62h121v-202h-61q-77 2 -99 -21t-22 -109v-69h190v-219h-190v-842h-272v842z" />
    <glyph glyph-name="uni1E24" unicode="&#x1e24;" horiz-adv-x="1214" 
d="M473 -430v264h264v-264h-264zM139 0v1462h289v-606h356v606h289v-1462h-289v621h-356v-621h-289z" />
    <glyph glyph-name="uni1E25" unicode="&#x1e25;" horiz-adv-x="1028" 
d="M383 -430v264h264v-264h-264zM115 0v1462h272v-438q90 59 202 59q113 0 191 -47t110 -127t32 -266v-643h-273v616q0 127 -28 181q-29 53 -101 53t-102 -55t-31 -191v-604h-272z" />
    <glyph glyph-name="uni1E44" unicode="&#x1e44;" horiz-adv-x="1269" 
d="M522 1597v265h264v-265h-264zM139 0v1462h283l434 -934v934h274v-1462h-276l-440 940v-940h-275z" />
    <glyph glyph-name="uni1E45" unicode="&#x1e45;" horiz-adv-x="1028" 
d="M383 1194v264h264v-264h-264zM115 0v1061h202l23 -84q86 106 250 106q110 0 188 -47t111 -127t33 -266v-643h-273v608q0 133 -28 188q-29 54 -102 54t-103 -56t-29 -200v-594h-272z" />
    <glyph glyph-name="uni1E5A" unicode="&#x1e5a;" horiz-adv-x="1146" 
d="M446 -430v264h265v-264h-265zM424 815h156q102 0 145 47t43 160t-43 161t-145 48h-156v-416zM430 594v-594h-289v1462h459q139 0 219 -24q235 -69 236 -404q0 -186 -50 -279t-178 -139l277 -616h-320l-237 594h-117z" />
    <glyph glyph-name="uni1E5B" unicode="&#x1e5b;" horiz-adv-x="722" 
d="M119 -430v264h264v-264h-264zM115 0v1061h207l34 -76q45 55 86 77t119 22t189 -68l-119 -228q-68 60 -128 60t-88 -78t-28 -258v-512h-272z" />
    <glyph glyph-name="uni1E62" unicode="&#x1e62;" horiz-adv-x="1034" 
d="M344 -430v264h264v-264h-264zM498 211q102 0 151 47q49 46 49 146q0 134 -104 174q-27 10 -191 58q-165 48 -247 146t-82 288t114 302t310 111q198 0 298 -80t142 -260l-242 -70q-33 104 -71 141q-39 37 -115 37t-118 -47t-42 -133t50 -133t178 -84t176 -57
q47 -20 94 -56q127 -94 127 -319q0 -444 -477 -445q-274 0 -392 146q-57 76 -90 215l246 72q29 -109 81 -154q53 -45 155 -45z" />
    <glyph glyph-name="uni1E63" unicode="&#x1e63;" horiz-adv-x="901" 
d="M293 -430v264h264v-264h-264zM590 311q0 47 -25 71t-82 34q-209 41 -274 76q-133 68 -133 264q0 158 94 242t264 85q170 0 257 -63t122 -209l-225 -59q-16 59 -48 86t-89 26q-119 0 -119 -106q0 -49 33 -74t114 -39q209 -35 277 -90q90 -74 90 -245t-100 -252t-298 -81
q-198 -1 -291 67t-128 226l233 52q20 -74 57 -101t117 -26q154 0 154 116z" />
    <glyph glyph-name="uni1E6C" unicode="&#x1e6c;" horiz-adv-x="962" 
d="M348 -430v264h264v-264h-264zM338 0v1227h-322v235h930v-235h-319v-1227h-289z" />
    <glyph glyph-name="uni1E6D" unicode="&#x1e6d;" horiz-adv-x="647" 
d="M190 -430v264h265v-264h-265zM145 842h-108v219h108l17 299h256v-299h186v-219h-186v-434q0 -109 31 -148t118 -37h35v-223h-53q-254 0 -330 81t-74 353v408z" />
    <glyph glyph-name="Wgrave" unicode="&#x1e80;" horiz-adv-x="1679" 
d="M985 1593h-203l-250 318h302zM346 0l-313 1462h289l170 -1024l237 1024h223l238 -1024l172 1024h287l-314 -1462h-260l-233 965l-236 -965h-260z" />
    <glyph glyph-name="wgrave" unicode="&#x1e81;" horiz-adv-x="1400" 
d="M844 1188h-203l-250 317h301zM299 0l-264 1061h278l121 -688l168 688h195l168 -688l122 688h279l-264 -1061h-238l-164 627l-163 -627h-238z" />
    <glyph glyph-name="Wacute" unicode="&#x1e82;" horiz-adv-x="1679" 
d="M698 1593l152 318h301l-250 -318h-203zM346 0l-313 1462h289l170 -1024l237 1024h223l238 -1024l172 1024h287l-314 -1462h-260l-233 965l-236 -965h-260z" />
    <glyph glyph-name="wacute" unicode="&#x1e83;" horiz-adv-x="1400" 
d="M557 1188l152 317h301l-250 -317h-203zM299 0l-264 1061h278l121 -688l168 688h195l168 -688l122 688h279l-264 -1061h-238l-164 627l-163 -627h-238z" />
    <glyph glyph-name="Wdieresis" unicode="&#x1e84;" horiz-adv-x="1679" 
d="M909 1599v263h242v-263h-242zM530 1599v263h242v-263h-242zM346 0l-313 1462h289l170 -1024l237 1024h223l238 -1024l172 1024h287l-314 -1462h-260l-233 965l-236 -965h-260z" />
    <glyph glyph-name="wdieresis" unicode="&#x1e85;" horiz-adv-x="1400" 
d="M764 1194v264h242v-264h-242zM395 1194v264h242v-264h-242zM299 0l-264 1061h278l121 -688l168 688h195l168 -688l122 688h279l-264 -1061h-238l-164 627l-163 -627h-238z" />
    <glyph glyph-name="uni1E92" unicode="&#x1e92;" horiz-adv-x="987" 
d="M362 -430v264h265v-264h-265zM63 0v172l519 1055h-482v235h803v-172l-520 -1054h545v-236h-865z" />
    <glyph glyph-name="uni1E93" unicode="&#x1e93;" horiz-adv-x="835" 
d="M287 -430v264h264v-264h-264zM41 0v164l389 676h-350v221h678v-166l-389 -674h413v-221h-741z" />
    <glyph glyph-name="uni1EA0" unicode="&#x1ea0;" horiz-adv-x="1114" 
d="M424 -430v264h264v-264h-264zM715 512l-156 588l-153 -588h309zM774 283h-430l-74 -283h-311l469 1462h262l469 -1462h-311z" />
    <glyph glyph-name="uni1EA1" unicode="&#x1ea1;" horiz-adv-x="972" 
d="M352 -430v264h264v-264h-264zM592 461h-109q-85 0 -119 -33t-34 -109q0 -75 28 -103t104 -28q74 0 102 34t28 126v113zM592 645v33q0 100 -29 142t-93 42t-94 -26t-52 -95l-230 70q70 272 383 272q254 0 340 -163q47 -88 47 -277v-643h-213l-16 59q-80 -82 -249 -82
t-246 77q-77 78 -77 262t78 256t285 73h166z" />
    <glyph glyph-name="uni1EA2" unicode="&#x1ea2;" horiz-adv-x="1114" 
d="M477 1575q0 98 9 129t40 71t31 58q0 35 -41 35t-123 -37l-47 164q123 39 219 39q95 0 153 -49t58 -138q0 -45 -13 -69t-69 -82q-23 -28 -29 -48t-8 -73h-180zM715 512l-156 588l-153 -588h309zM774 283h-430l-74 -283h-311l469 1462h262l469 -1462h-311z" />
    <glyph glyph-name="uni1EA3" unicode="&#x1ea3;" horiz-adv-x="972" 
d="M510 1438q0 35 -42 35t-120 -37l-49 161q117 41 216 41t157 -49t57 -137q0 -45 -13 -70t-67 -82q-23 -27 -29 -48t-8 -74h-182q2 98 11 131t39 72t30 57zM592 461h-109q-85 0 -119 -33t-34 -109q0 -75 28 -103t104 -28q74 0 102 34t28 126v113zM592 645v33q0 100 -29 142
t-93 42t-94 -26t-52 -95l-230 70q70 272 383 272q254 0 340 -163q47 -88 47 -277v-643h-213l-16 59q-80 -82 -249 -82t-246 77q-77 78 -77 262t78 256t285 73h166z" />
    <glyph glyph-name="uni1EA4" unicode="&#x1ea4;" horiz-adv-x="1114" 
d="M557 1667l-90 -108h-238l234 251h186l236 -251h-238zM471 1866l109 241h208l-170 -241h-147zM715 512l-156 588l-153 -588h309zM774 283h-430l-74 -283h-311l469 1462h262l469 -1462h-311z" />
    <glyph glyph-name="uni1EA5" unicode="&#x1ea5;" horiz-adv-x="972" 
d="M498 1262l-90 -109h-238l233 252h187l235 -252h-237zM412 1460l108 242h209l-170 -242h-147zM592 461h-109q-85 0 -119 -33t-34 -109q0 -75 28 -103t104 -28q74 0 102 34t28 126v113zM592 645v33q0 100 -29 142t-93 42t-94 -26t-52 -95l-230 70q70 272 383 272
q254 0 340 -163q47 -88 47 -277v-643h-213l-16 59q-80 -82 -249 -82t-246 77q-77 78 -77 262t78 256t285 73h166z" />
    <glyph glyph-name="uni1EA6" unicode="&#x1ea6;" horiz-adv-x="1114" 
d="M557 1667l-90 -108h-238l234 251h188l234 -251h-238zM637 1866h-145l-173 241h209zM715 512l-156 588l-153 -588h309zM774 283h-430l-74 -283h-311l469 1462h262l469 -1462h-311z" />
    <glyph glyph-name="uni1EA7" unicode="&#x1ea7;" horiz-adv-x="972" 
d="M498 1262l-92 -109h-236l233 252h189l233 -252h-237zM578 1460h-146l-172 242h209zM592 461h-109q-85 0 -119 -33t-34 -109q0 -75 28 -103t104 -28q74 0 102 34t28 126v113zM592 645v33q0 100 -29 142t-93 42t-94 -26t-52 -95l-230 70q70 272 383 272q254 0 340 -163
q47 -88 47 -277v-643h-213l-16 59q-80 -82 -249 -82t-246 77q-77 78 -77 262t78 256t285 73h166z" />
    <glyph glyph-name="uni1EA8" unicode="&#x1ea8;" horiz-adv-x="1114" 
d="M555 1661l-90 -102h-238l236 231h186l236 -231h-238zM473 1821v14q0 72 26 107t25 49q0 18 -24 18t-78 -27l-37 115q74 33 154 33t123 -37t43 -100q-1 -29 -11 -46t-47 -55q-16 -20 -18 -71h-156zM715 512l-156 588l-153 -588h309zM774 283h-430l-74 -283h-311l469 1462
h262l469 -1462h-311z" />
    <glyph glyph-name="uni1EA9" unicode="&#x1ea9;" horiz-adv-x="972" 
d="M496 1255l-90 -102h-238l235 229h187l235 -229h-237zM414 1415v15q0 53 6 73t26 43t19 40q0 18 -25 18t-78 -27l-36 115q78 32 154 32t121 -36q44 -36 44 -101q0 -27 -10 -44t-47 -56q-17 -21 -19 -72h-155zM592 461h-109q-85 0 -119 -33t-34 -109q0 -75 28 -103t104 -28
q74 0 102 34t28 126v113zM592 645v33q0 100 -29 142t-93 42t-94 -26t-52 -95l-230 70q70 272 383 272q254 0 340 -163q47 -88 47 -277v-643h-213l-16 59q-80 -82 -249 -82t-246 77q-77 78 -77 262t78 256t285 73h166z" />
    <glyph glyph-name="uni1EAA" unicode="&#x1eaa;" horiz-adv-x="1114" 
d="M559 1667l-92 -108h-238l236 251h186l236 -251h-238zM456 2105q73 0 124 -50t69 -50q35 0 45 90h133q-14 -133 -54 -188t-118 -55t-125 50t-65 50q-19 0 -35 -24t-20 -64h-134q20 131 64 186t116 55zM715 512l-156 588l-153 -588h309zM774 283h-430l-74 -283h-311
l469 1462h262l469 -1462h-311z" />
    <glyph glyph-name="uni1EAB" unicode="&#x1eab;" horiz-adv-x="972" 
d="M494 1262l-91 -109h-237l235 252h187l235 -252h-237zM391 1702q74 0 125 -50t70 -50q35 0 45 88h133q-10 -100 -31 -146q-39 -98 -147 -98q-70 0 -119 51t-67 51t-34 -26t-22 -64h-131q23 133 63 189q41 55 115 55zM592 461h-109q-85 0 -119 -33t-34 -109q0 -75 28 -103
t104 -28q74 0 102 34t28 126v113zM592 645v33q0 100 -29 142t-93 42t-94 -26t-52 -95l-230 70q70 272 383 272q254 0 340 -163q47 -88 47 -277v-643h-213l-16 59q-80 -82 -249 -82t-246 77q-77 78 -77 262t78 256t285 73h166z" />
    <glyph glyph-name="uni1EAC" unicode="&#x1eac;" horiz-adv-x="1114" 
d="M424 -430v264h264v-264h-264zM557 1753l-94 -158h-254l248 312h200l248 -312h-254zM715 512l-156 588l-153 -588h309zM774 283h-430l-74 -283h-311l469 1462h262l469 -1462h-311z" />
    <glyph glyph-name="uni1EAD" unicode="&#x1ead;" horiz-adv-x="972" 
d="M352 -430v264h264v-264h-264zM492 1348l-95 -158h-252l246 311h201l248 -311h-252zM592 461h-109q-85 0 -119 -33t-34 -109q0 -75 28 -103t104 -28q74 0 102 34t28 126v113zM592 645v33q0 100 -29 142t-93 42t-94 -26t-52 -95l-230 70q70 272 383 272q254 0 340 -163
q47 -88 47 -277v-643h-213l-16 59q-80 -82 -249 -82t-246 77q-77 78 -77 262t78 256t285 73h166z" />
    <glyph glyph-name="uni1EAE" unicode="&#x1eae;" horiz-adv-x="1114" 
d="M548 1548q-208 0 -269 138q-23 48 -27 167h158q10 -69 41 -95t107 -26t106 26q31 26 41 95h155q-4 -137 -35 -188q-69 -117 -277 -117zM471 1866l109 241h208l-170 -241h-147zM715 512l-156 588l-153 -588h309zM774 283h-430l-74 -283h-311l469 1462h262l469 -1462h-311z
" />
    <glyph glyph-name="uni1EAF" unicode="&#x1eaf;" horiz-adv-x="972" 
d="M486 1325q74 0 106 26q31 26 41 95h158q-8 -137 -37 -189q-68 -117 -277 -117t-270 138q-23 49 -25 168h156q8 -70 41 -96t107 -25zM399 1460l111 242h209l-172 -242h-148zM592 461h-109q-85 0 -119 -33t-34 -109q0 -75 28 -103t104 -28q74 0 102 34t28 126v113zM592 645
v33q0 100 -29 142t-93 42t-94 -26t-52 -95l-230 70q70 272 383 272q254 0 340 -163q47 -88 47 -277v-643h-213l-16 59q-80 -82 -249 -82t-246 77q-77 78 -77 262t78 256t285 73h166z" />
    <glyph glyph-name="uni1EB0" unicode="&#x1eb0;" horiz-adv-x="1114" 
d="M548 1548q-208 0 -269 138q-23 48 -27 167h158q10 -69 41 -95t107 -26t106 26q31 26 41 95h155q-4 -137 -35 -188q-69 -117 -277 -117zM653 1866h-147l-172 241h209zM715 512l-156 588l-153 -588h309zM774 283h-430l-74 -283h-311l469 1462h262l469 -1462h-311z" />
    <glyph glyph-name="uni1EB1" unicode="&#x1eb1;" horiz-adv-x="972" 
d="M486 1325q74 0 106 26q31 26 41 95h158q-8 -137 -37 -189q-68 -117 -277 -117t-270 138q-23 49 -25 168h156q8 -70 41 -96t107 -25zM586 1460h-146l-172 242h209zM592 461h-109q-85 0 -119 -33t-34 -109q0 -75 28 -103t104 -28q74 0 102 34t28 126v113zM592 645v33
q0 100 -29 142t-93 42t-94 -26t-52 -95l-230 70q70 272 383 272q254 0 340 -163q47 -88 47 -277v-643h-213l-16 59q-80 -82 -249 -82t-246 77q-77 78 -77 262t78 256t285 73h166z" />
    <glyph glyph-name="uni1EB2" unicode="&#x1eb2;" horiz-adv-x="1114" 
d="M556 1726q77 0 110 28t43 99h151q-4 -137 -35 -188q-69 -117 -277 -117t-269 138q-23 48 -27 167h154q10 -75 42 -101t108 -26zM631 1815h-156q0 59 5 79t26 50t20 45q0 47 -102 -7l-37 117q74 33 153 33t123 -38t44 -101q1 -29 -9 -46t-47 -55q-20 -22 -20 -77zM715 512
l-156 588l-153 -588h309zM774 283h-430l-74 -283h-311l469 1462h262l469 -1462h-311z" />
    <glyph glyph-name="uni1EB3" unicode="&#x1eb3;" horiz-adv-x="972" 
d="M488 1319q76 0 110 28q33 28 43 99h154q-8 -137 -37 -189q-68 -117 -277 -117t-270 138q-23 49 -25 168h152q10 -74 42 -100t108 -27zM563 1407h-155q0 59 5 79t25 51q20 30 21 44q0 23 -24 23t-77 -27l-39 115q78 32 155 32t121 -36t44 -103q0 -29 -9 -46t-46 -54
q-21 -23 -21 -78zM592 461h-109q-85 0 -119 -33t-34 -109q0 -75 28 -103t104 -28q74 0 102 34t28 126v113zM592 645v33q0 100 -29 142t-93 42t-94 -26t-52 -95l-230 70q70 272 383 272q254 0 340 -163q47 -88 47 -277v-643h-213l-16 59q-80 -82 -249 -82t-246 77
q-77 78 -77 262t78 256t285 73h166z" />
    <glyph glyph-name="uni1EB4" unicode="&#x1eb4;" horiz-adv-x="1114" 
d="M544 1716q72 0 104 23t40 84h150q-4 -123 -35 -170q-67 -105 -267 -105t-260 123q-22 48 -24 152h147q10 -61 41 -84t104 -23zM453 2126q73 0 123 -50t71 -51q33 0 43 91h133q-12 -106 -28 -146q-41 -98 -148 -98q-72 0 -120 50t-64 50q-43 0 -57 -88h-134q23 130 65 186
t116 56zM715 512l-156 588l-153 -588h309zM774 283h-430l-74 -283h-311l469 1462h262l469 -1462h-311z" />
    <glyph glyph-name="uni1EB5" unicode="&#x1eb5;" horiz-adv-x="972" 
d="M468 1143q-200 0 -259 123q-19 38 -25 151h148q10 -61 41 -84t105 -23t104 24q31 22 41 83h147q-4 -81 -10 -111t-25 -59q-67 -104 -267 -104zM386 1720q73 0 124 -50t70 -50q33 0 43 90h133q-8 -98 -29 -145q-39 -98 -147 -99q-72 0 -120 50t-65 49q-43 0 -57 -86h-131
q20 131 63 186t116 55zM592 461h-109q-85 0 -119 -33t-34 -109q0 -75 28 -103t104 -28q74 0 102 34t28 126v113zM592 645v33q0 100 -29 142t-93 42t-94 -26t-52 -95l-230 70q70 272 383 272q254 0 340 -163q47 -88 47 -277v-643h-213l-16 59q-80 -82 -249 -82t-246 77
q-77 78 -77 262t78 256t285 73h166z" />
    <glyph glyph-name="uni1EB6" unicode="&#x1eb6;" horiz-adv-x="1114" 
d="M424 -430v264h264v-264h-264zM557 1767q78 0 111 29t43 107h168q-8 -150 -37 -203q-74 -127 -294 -127t-286 147q-25 54 -29 183h168q12 -78 45 -107t111 -29zM715 512l-156 588l-153 -588h309zM774 283h-430l-74 -283h-311l469 1462h262l469 -1462h-311z" />
    <glyph glyph-name="uni1EB7" unicode="&#x1eb7;" horiz-adv-x="972" 
d="M352 -430v264h264v-264h-264zM492 1362q78 0 112 29t43 106h168q-4 -143 -39 -203q-70 -127 -290 -127t-289 148q-23 53 -27 182h168q10 -79 43 -107t111 -28zM592 461h-109q-85 0 -119 -33t-34 -109q0 -75 28 -103t104 -28q74 0 102 34t28 126v113zM592 645v33
q0 100 -29 142t-93 42t-94 -26t-52 -95l-230 70q70 272 383 272q254 0 340 -163q47 -88 47 -277v-643h-213l-16 59q-80 -82 -249 -82t-246 77q-77 78 -77 262t78 256t285 73h166z" />
    <glyph glyph-name="uni1EB8" unicode="&#x1eb8;" horiz-adv-x="1034" 
d="M430 -430v264h264v-264h-264zM141 0v1462h811v-235h-524v-371h442v-235h-442v-385h533v-236h-820z" />
    <glyph glyph-name="uni1EB9" unicode="&#x1eb9;" horiz-adv-x="1001" 
d="M369 -430v264h264v-264h-264zM367 655h290v31q0 190 -145 191q-145 0 -145 -191v-31zM369 463v-51q-1 -115 35 -166t118 -51q125 0 156 127l231 -52q-33 -160 -125 -226t-294 -67q-202 0 -300 115q-96 115 -96 377v117q0 266 96 382t316 116t315 -116q96 -116 97 -382
v-123h-549z" />
    <glyph glyph-name="uni1EBA" unicode="&#x1eba;" horiz-adv-x="1034" 
d="M643 1575h-182q2 100 10 131q9 31 39 70t31 57q0 35 -42 35t-120 -37l-49 164q123 39 219 39t153 -49t58 -138q0 -43 -14 -69t-68 -82q-23 -26 -29 -48t-6 -73zM141 0v1462h811v-235h-524v-371h442v-235h-442v-385h533v-236h-820z" />
    <glyph glyph-name="uni1EBB" unicode="&#x1ebb;" horiz-adv-x="1001" 
d="M458 1473q-42 0 -120 -37l-49 161q117 41 216 41t157 -49t57 -137q0 -45 -13 -70t-67 -82q-23 -27 -29 -47t-8 -75h-182q2 102 10 133t38 70t32 57q0 35 -42 35zM367 655h290v31q0 190 -145 191q-145 0 -145 -191v-31zM369 463v-51q-1 -115 35 -166t118 -51
q125 0 156 127l231 -52q-33 -160 -125 -226t-294 -67q-202 0 -300 115q-96 115 -96 377v117q0 266 96 382t316 116t315 -116q96 -116 97 -382v-123h-549z" />
    <glyph glyph-name="uni1EBC" unicode="&#x1ebc;" horiz-adv-x="1034" 
d="M427 1905q89 1 151 -61t88 -62q43 0 55 108h162q-12 -125 -35 -178q-47 -125 -180 -125q-92 1 -150 63t-80 62q-53 1 -67 -110h-162q25 164 77 234t141 69zM141 0v1462h811v-235h-524v-371h442v-235h-442v-385h533v-236h-820z" />
    <glyph glyph-name="uni1EBD" unicode="&#x1ebd;" horiz-adv-x="1001" 
d="M391 1499q79 0 143 -61t87 -62q43 0 55 109h162q-12 -119 -35 -180q-47 -123 -180 -123q-95 0 -151 61t-79 62q-53 0 -67 -109h-162q18 125 45 180q57 123 182 123zM367 655h290v31q0 190 -145 191q-145 0 -145 -191v-31zM369 463v-51q-1 -115 35 -166t118 -51
q125 0 156 127l231 -52q-33 -160 -125 -226t-294 -67q-202 0 -300 115q-96 115 -96 377v117q0 266 96 382t316 116t315 -116q96 -116 97 -382v-123h-549z" />
    <glyph glyph-name="uni1EBE" unicode="&#x1ebe;" horiz-adv-x="1034" 
d="M549 1667l-90 -108h-238l234 251h186l236 -251h-238zM463 1866l110 241h209l-172 -241h-147zM141 0v1462h811v-235h-524v-371h442v-235h-442v-385h533v-236h-820z" />
    <glyph glyph-name="uni1EBF" unicode="&#x1ebf;" horiz-adv-x="1001" 
d="M512 1262l-90 -109h-238l234 252h188l234 -252h-236zM428 1460l109 242h208l-172 -242h-145zM367 655h290v31q0 190 -145 191q-145 0 -145 -191v-31zM369 463v-51q-1 -115 35 -166t118 -51q125 0 156 127l231 -52q-33 -160 -125 -226t-294 -67q-202 0 -300 115
q-96 115 -96 377v117q0 266 96 382t316 116t315 -116q96 -116 97 -382v-123h-549z" />
    <glyph glyph-name="uni1EC0" unicode="&#x1ec0;" horiz-adv-x="1034" 
d="M549 1667l-90 -108h-238l234 251h188l234 -251h-238zM629 1866h-146l-172 241h209zM141 0v1462h811v-235h-524v-371h442v-235h-442v-385h533v-236h-820z" />
    <glyph glyph-name="uni1EC1" unicode="&#x1ec1;" horiz-adv-x="1001" 
d="M512 1262l-90 -109h-238l236 252h186l234 -252h-238zM592 1460h-146l-172 242h209zM367 655h290v31q0 190 -145 191q-145 0 -145 -191v-31zM369 463v-51q-1 -115 35 -166t118 -51q125 0 156 127l231 -52q-33 -160 -125 -226t-294 -67q-202 0 -300 115q-96 115 -96 377
v117q0 266 96 382t316 116t315 -116q96 -116 97 -382v-123h-549z" />
    <glyph glyph-name="uni1EC2" unicode="&#x1ec2;" horiz-adv-x="1034" 
d="M549 1661l-92 -102h-238l236 231h186l236 -231h-238zM465 1821v14q2 76 27 109t24 47q0 18 -24 18t-76 -27l-39 115q75 33 153 33t122 -37t44 -100q0 -27 -10 -45t-36 -47t-29 -80h-156zM141 0v1462h811v-235h-524v-371h442v-235h-442v-385h533v-236h-820z" />
    <glyph glyph-name="uni1EC3" unicode="&#x1ec3;" horiz-adv-x="1001" 
d="M512 1255l-92 -102h-236l234 229h186l236 -229h-238zM428 1415v15q2 53 8 72t24 43t19 41q-1 18 -25 18t-75 -27l-39 115q78 32 156 32t120 -36t43 -101q0 -29 -9 -45t-46 -55q-18 -21 -20 -72h-156zM367 655h290v31q0 190 -145 191q-145 0 -145 -191v-31zM369 463v-51
q-1 -115 35 -166t118 -51q125 0 156 127l231 -52q-33 -160 -125 -226t-294 -67q-202 0 -300 115q-96 115 -96 377v117q0 266 96 382t316 116t315 -116q96 -116 97 -382v-123h-549z" />
    <glyph glyph-name="uni1EC4" unicode="&#x1ec4;" horiz-adv-x="1034" 
d="M551 1667l-92 -108h-238l236 251h186l236 -251h-238zM448 2105q74 0 124 -50t69 -50q35 0 45 90h133q-10 -100 -31 -145q-39 -98 -145 -99q-72 1 -121 51t-66 50t-34 -24t-21 -64h-133q20 131 64 186t116 55zM141 0v1462h811v-235h-524v-371h442v-235h-442v-385h533v-236
h-820z" />
    <glyph glyph-name="uni1EC5" unicode="&#x1ec5;" horiz-adv-x="1001" 
d="M514 1262l-90 -109h-238l234 252h186l236 -252h-238zM410 1702q72 0 124 -50t70 -50q35 0 45 88h133q-10 -98 -28 -146q-41 -98 -148 -98q-74 0 -121 51t-65 51t-35 -25q-16 -26 -20 -65h-134q19 132 63 188t116 56zM367 655h290v31q0 190 -145 191q-145 0 -145 -191v-31
zM369 463v-51q-1 -115 35 -166t118 -51q125 0 156 127l231 -52q-33 -160 -125 -226t-294 -67q-202 0 -300 115q-96 115 -96 377v117q0 266 96 382t316 116t315 -116q96 -116 97 -382v-123h-549z" />
    <glyph glyph-name="uni1EC6" unicode="&#x1ec6;" horiz-adv-x="1034" 
d="M434 -430v264h264v-264h-264zM539 1753l-95 -158h-251l245 312h201l248 -312h-252zM141 0v1462h811v-235h-524v-371h442v-235h-442v-385h533v-236h-820z" />
    <glyph glyph-name="uni1EC7" unicode="&#x1ec7;" horiz-adv-x="1001" 
d="M369 -430v264h264v-264h-264zM514 1348l-94 -158h-254l248 311h200l248 -311h-254zM367 655h290v31q0 190 -145 191q-145 0 -145 -191v-31zM369 463v-51q-1 -115 35 -166t118 -51q125 0 156 127l231 -52q-33 -160 -125 -226t-294 -67q-202 0 -300 115q-96 115 -96 377
v117q0 266 96 382t316 116t315 -116q96 -116 97 -382v-123h-549z" />
    <glyph glyph-name="uni1EC8" unicode="&#x1ec8;" horiz-adv-x="569" 
d="M387 1575h-182q0 98 9 130q10 32 40 71t31 57q0 35 -40 35t-124 -37l-47 164q123 39 219 39t153 -49t58 -138q0 -45 -14 -69t-68 -82q-23 -28 -29 -48t-6 -73zM141 0v1462h289v-1462h-289z" />
    <glyph glyph-name="uni1EC9" unicode="&#x1ec9;" horiz-adv-x="509" 
d="M356 1178h-182q0 98 9 132t53 85q18 25 18 43q0 35 -41 35t-123 -37l-47 161q119 41 217 41t156 -49t57 -137q0 -45 -13 -70t-69 -82q-23 -29 -29 -49t-6 -73zM117 0v1061h272v-1061h-272z" />
    <glyph glyph-name="uni1ECA" unicode="&#x1eca;" horiz-adv-x="569" 
d="M152 -430v264h264v-264h-264zM139 0v1462h289v-1462h-289z" />
    <glyph glyph-name="uni1ECB" unicode="&#x1ecb;" horiz-adv-x="509" 
d="M123 -430v264h264v-264h-264zM119 0v1061h272v-1061h-272zM119 1202v273h272v-273h-272z" />
    <glyph glyph-name="uni1ECC" unicode="&#x1ecc;" horiz-adv-x="1196" 
d="M465 -430v264h264v-264h-264zM795 535v393q0 184 -42 254t-155 70t-156 -70t-43 -254v-393q0 -184 43 -254t156 -70t155 70t42 254zM111 510v442q0 268 100 389q117 143 397 143t393 -167q82 -117 82 -365v-442q0 -268 -100 -389q-117 -143 -395 -143t-398 167
q-79 117 -79 365z" />
    <glyph glyph-name="uni1ECD" unicode="&#x1ecd;" horiz-adv-x="1013" 
d="M375 -430v264h264v-264h-264zM647 432v199q0 129 -31 180q-30 51 -108 51t-110 -52t-31 -179v-199q-1 -129 31 -181t110 -52t108 52t31 181zM94 432v199q0 242 96 347t316 105t317 -105q96 -105 97 -347v-199q0 -244 -96 -349t-317 -105t-317 106t-96 348z" />
    <glyph glyph-name="uni1ECE" unicode="&#x1ece;" horiz-adv-x="1196" 
d="M596 1833q0 35 -42 35t-120 -37l-49 164q125 39 220 39t153 -49t57 -138q0 -43 -13 -69t-67 -82q-23 -28 -29 -48t-8 -73h-182q2 100 11 131t39 70t30 57zM795 535v393q0 184 -42 254t-155 70t-156 -70t-43 -254v-393q0 -184 43 -254t156 -70t155 70t42 254zM111 510v442
q0 268 100 389q117 143 397 143t393 -167q82 -117 82 -365v-442q0 -268 -100 -389q-117 -143 -395 -143t-398 167q-79 117 -79 365z" />
    <glyph glyph-name="uni1ECF" unicode="&#x1ecf;" horiz-adv-x="1013" 
d="M428 1178q0 100 9 132t39 71t32 57q0 35 -41 35t-123 -37l-47 161q123 41 219 41t154 -49t57 -137q0 -43 -13 -69t-69 -83q-23 -27 -29 -48t-8 -74h-180zM647 432v199q0 129 -31 180q-30 51 -108 51t-110 -52t-31 -179v-199q-1 -129 31 -181t110 -52t108 52t31 181z
M94 432v199q0 242 96 347t316 105t317 -105q96 -105 97 -347v-199q0 -244 -96 -349t-317 -105t-317 106t-96 348z" />
    <glyph glyph-name="uni1ED0" unicode="&#x1ed0;" horiz-adv-x="1196" 
d="M596 1667l-90 -108h-238l236 251h186l236 -251h-238zM512 1866l109 241h208l-172 -241h-145zM795 535v393q0 184 -42 254t-155 70t-156 -70t-43 -254v-393q0 -184 43 -254t156 -70t155 70t42 254zM111 510v442q0 268 100 389q117 143 397 143t393 -167q82 -117 82 -365
v-442q0 -268 -100 -389q-117 -143 -395 -143t-398 167q-79 117 -79 365z" />
    <glyph glyph-name="uni1ED1" unicode="&#x1ed1;" horiz-adv-x="1013" 
d="M508 1262l-92 -109h-236l234 252h186l236 -252h-238zM422 1460l108 242h209l-172 -242h-145zM647 432v199q0 129 -31 180q-30 51 -108 51t-110 -52t-31 -179v-199q-1 -129 31 -181t110 -52t108 52t31 181zM94 432v199q0 242 96 347t316 105t317 -105q96 -105 97 -347
v-199q0 -244 -96 -349t-317 -105t-317 106t-96 348z" />
    <glyph glyph-name="uni1ED2" unicode="&#x1ed2;" horiz-adv-x="1196" 
d="M598 1667l-92 -108h-238l236 251h186l236 -251h-238zM678 1866h-148l-172 241h209zM795 535v393q0 184 -42 254t-155 70t-156 -70t-43 -254v-393q0 -184 43 -254t156 -70t155 70t42 254zM111 510v442q0 268 100 389q117 143 397 143t393 -167q82 -117 82 -365v-442
q0 -268 -100 -389q-117 -143 -395 -143t-398 167q-79 117 -79 365z" />
    <glyph glyph-name="uni1ED3" unicode="&#x1ed3;" horiz-adv-x="1013" 
d="M508 1262l-92 -109h-238l236 252h188l234 -252h-238zM588 1460h-148l-170 242h209zM647 432v199q0 129 -31 180q-30 51 -108 51t-110 -52t-31 -179v-199q-1 -129 31 -181t110 -52t108 52t31 181zM94 432v199q0 242 96 347t316 105t317 -105q96 -105 97 -347v-199
q0 -244 -96 -349t-317 -105t-317 106t-96 348z" />
    <glyph glyph-name="uni1ED4" unicode="&#x1ed4;" horiz-adv-x="1196" 
d="M596 1661l-90 -102h-238l234 231h188l234 -231h-238zM512 1821v14q2 53 8 73t26 42q20 24 19 42t-25 17q-24 0 -77 -27l-37 115q72 33 152 33t124 -37t43 -100q0 -27 -10 -44t-47 -57q-18 -20 -20 -71h-156zM795 535v393q0 184 -42 254t-155 70t-156 -70t-43 -254v-393
q0 -184 43 -254t156 -70t155 70t42 254zM111 510v442q0 268 100 389q117 143 397 143t393 -167q82 -117 82 -365v-442q0 -268 -100 -389q-117 -143 -395 -143t-398 167q-79 117 -79 365z" />
    <glyph glyph-name="uni1ED5" unicode="&#x1ed5;" horiz-adv-x="1013" 
d="M506 1255l-90 -102h-238l236 229h186l236 -229h-238zM424 1415v15q0 72 26 106t25 49q-1 19 -25 19t-77 -27l-37 115q78 32 156 32t120 -36t43 -101q0 -27 -10 -44t-47 -56q-16 -21 -20 -72h-154zM647 432v199q0 129 -31 180q-30 51 -108 51t-110 -52t-31 -179v-199
q-1 -129 31 -181t110 -52t108 52t31 181zM94 432v199q0 242 96 347t316 105t317 -105q96 -105 97 -347v-199q0 -244 -96 -349t-317 -105t-317 106t-96 348z" />
    <glyph glyph-name="uni1ED6" unicode="&#x1ed6;" horiz-adv-x="1196" 
d="M598 1667l-90 -108h-238l234 251h188l234 -251h-236zM504 2105q66 0 116 -50t70 -50q37 0 43 90h133q-8 -96 -28 -145q-39 -98 -148 -99q-72 1 -120 51t-66 50t-34 -26t-21 -62h-134q18 102 39 145q47 96 150 96zM795 535v393q0 184 -42 254t-155 70t-156 -70t-43 -254
v-393q0 -184 43 -254t156 -70t155 70t42 254zM111 510v442q0 268 100 389q117 143 397 143t393 -167q82 -117 82 -365v-442q0 -268 -100 -389q-117 -143 -395 -143t-398 167q-79 117 -79 365z" />
    <glyph glyph-name="uni1ED7" unicode="&#x1ed7;" horiz-adv-x="1013" 
d="M508 1262l-90 -109h-238l236 252h186l236 -252h-238zM406 1702q74 0 124 -50t70 -50q35 0 45 88h131q-12 -132 -52 -188t-117 -56t-126 51t-66 51t-34 -26t-23 -64h-131q23 132 64 188t115 56zM647 432v199q0 129 -31 180q-30 51 -108 51t-110 -52t-31 -179v-199
q-1 -129 31 -181t110 -52t108 52t31 181zM94 432v199q0 242 96 347t316 105t317 -105q96 -105 97 -347v-199q0 -244 -96 -349t-317 -105t-317 106t-96 348z" />
    <glyph glyph-name="uni1ED8" unicode="&#x1ed8;" horiz-adv-x="1196" 
d="M465 -430v264h264v-264h-264zM596 1753l-94 -158h-252l246 312h200l248 -312h-252zM795 535v393q0 184 -42 254t-155 70t-156 -70t-43 -254v-393q0 -184 43 -254t156 -70t155 70t42 254zM111 510v442q0 268 100 389q117 143 397 143t393 -167q82 -117 82 -365v-442
q0 -268 -100 -389q-117 -143 -395 -143t-398 167q-79 117 -79 365z" />
    <glyph glyph-name="uni1ED9" unicode="&#x1ed9;" horiz-adv-x="1013" 
d="M375 -430v264h264v-264h-264zM508 1348l-94 -158h-254l248 311h198l250 -311h-254zM647 432v199q0 129 -31 180q-30 51 -108 51t-110 -52t-31 -179v-199q-1 -129 31 -181t110 -52t108 52t31 181zM94 432v199q0 242 96 347t316 105t317 -105q96 -105 97 -347v-199
q0 -244 -96 -349t-317 -105t-317 106t-96 348z" />
    <glyph glyph-name="uni1EDA" unicode="&#x1eda;" horiz-adv-x="1280" 
d="M498 1593l151 318h303l-252 -318h-202zM795 535v393q0 184 -42 254t-155 70t-156 -70t-43 -254v-393q0 -184 43 -254t156 -70t155 70t42 254zM1339 1380q0 -114 -54 -188t-204 -166q2 -33 2 -74v-442q0 -268 -100 -389q-117 -143 -395 -143t-398 167q-80 117 -79 365v442
q0 268 100 389q117 143 389 144q194 0 304 -72t155 -225q69 63 69 146t-41 153h236q16 -51 16 -107z" />
    <glyph glyph-name="uni1EDB" unicode="&#x1edb;" horiz-adv-x="1120" 
d="M406 1188l151 317h301l-250 -317h-202zM647 432v199q0 129 -31 180q-30 51 -108 51t-110 -52t-31 -179v-199q-1 -129 31 -181t110 -52t108 52t31 181zM1169 969q0 -195 -251 -342q2 -25 2 -66v-129q0 -244 -96 -349t-317 -105t-317 106t-96 348v199q0 242 96 347t297 105
q201 1 294 -67t126 -221q91 137 11 284h233q18 -57 18 -110z" />
    <glyph glyph-name="uni1EDC" unicode="&#x1edc;" horiz-adv-x="1280" 
d="M750 1593h-203l-252 318h303zM795 535v393q0 184 -42 254t-155 70t-156 -70t-43 -254v-393q0 -184 43 -254t156 -70t155 70t42 254zM1339 1380q0 -114 -54 -188t-204 -166q2 -33 2 -74v-442q0 -268 -100 -389q-117 -143 -395 -143t-398 167q-80 117 -79 365v442
q0 268 100 389q117 143 389 144q194 0 304 -72t155 -225q69 63 69 146t-41 153h236q16 -51 16 -107z" />
    <glyph glyph-name="uni1EDD" unicode="&#x1edd;" horiz-adv-x="1120" 
d="M645 1188h-203l-249 317h301zM647 432v199q0 129 -31 180q-30 51 -108 51t-110 -52t-31 -179v-199q-1 -129 31 -181t110 -52t108 52t31 181zM1169 969q0 -195 -251 -342q2 -25 2 -66v-129q0 -244 -96 -349t-317 -105t-317 106t-96 348v199q0 242 96 347t297 105
q201 1 294 -67t126 -221q91 137 11 284h233q18 -57 18 -110z" />
    <glyph glyph-name="uni1EDE" unicode="&#x1ede;" horiz-adv-x="1280" 
d="M596 1833q0 35 -40 35t-122 -37l-49 164q125 39 220 39t153 -49t57 -138q0 -43 -13 -69t-67 -82q-23 -28 -29 -48t-8 -73h-182q2 98 11 129t39 71t30 58zM795 535v393q0 184 -42 254t-155 70t-156 -70t-43 -254v-393q0 -184 43 -254t156 -70t155 70t42 254zM1339 1380
q0 -114 -54 -188t-204 -166q2 -33 2 -74v-442q0 -268 -100 -389q-117 -143 -395 -143t-398 167q-80 117 -79 365v442q0 268 100 389q117 143 389 144q194 0 304 -72t155 -225q69 63 69 146t-41 153h236q16 -51 16 -107z" />
    <glyph glyph-name="uni1EDF" unicode="&#x1edf;" horiz-adv-x="1120" 
d="M466 1473q-42 0 -120 -37l-49 161q117 41 216 41t157 -49t57 -137q0 -45 -13 -70t-67 -82q-23 -27 -29 -47t-8 -75h-182q2 102 10 133t38 70t32 57q0 35 -42 35zM647 432v199q0 129 -31 180q-30 51 -108 51t-110 -52t-31 -179v-199q-1 -129 31 -181t110 -52t108 52
t31 181zM1169 969q0 -195 -251 -342q2 -25 2 -66v-129q0 -244 -96 -349t-317 -105t-317 106t-96 348v199q0 242 96 347t297 105q201 1 294 -67t126 -221q91 137 11 284h233q18 -57 18 -110z" />
    <glyph glyph-name="uni1EE0" unicode="&#x1ee0;" horiz-adv-x="1280" 
d="M476 1905q88 1 152 -61t87 -62q43 0 55 108h162q-12 -127 -35 -178q-47 -125 -180 -125q-91 1 -149 63t-81 62q-53 1 -67 -110h-162q25 164 77 234t141 69zM795 535v393q0 184 -42 254t-155 70t-156 -70t-43 -254v-393q0 -184 43 -254t156 -70t155 70t42 254zM1339 1380
q0 -114 -54 -188t-204 -166q2 -33 2 -74v-442q0 -268 -100 -389q-117 -143 -395 -143t-398 167q-80 117 -79 365v442q0 268 100 389q117 143 389 144q194 0 304 -72t155 -225q69 63 69 146t-41 153h236q16 -51 16 -107z" />
    <glyph glyph-name="uni1EE1" unicode="&#x1ee1;" horiz-adv-x="1120" 
d="M395 1499q81 0 143 -61t87 -62q43 0 55 109h164q-14 -127 -35 -180q-51 -123 -182 -123q-91 0 -149 61t-81 62q-51 0 -65 -109h-164q18 119 47 180q57 123 180 123zM647 432v199q0 129 -31 180q-30 51 -108 51t-110 -52t-31 -179v-199q-1 -129 31 -181t110 -52t108 52
t31 181zM1169 969q0 -195 -251 -342q2 -25 2 -66v-129q0 -244 -96 -349t-317 -105t-317 106t-96 348v199q0 242 96 347t297 105q201 1 294 -67t126 -221q91 137 11 284h233q18 -57 18 -110z" />
    <glyph glyph-name="uni1EE2" unicode="&#x1ee2;" horiz-adv-x="1280" 
d="M494 -430v264h264v-264h-264zM795 535v393q0 184 -42 254t-155 70t-156 -70t-43 -254v-393q0 -184 43 -254t156 -70t155 70t42 254zM1339 1380q0 -114 -54 -188t-204 -166q2 -33 2 -74v-442q0 -268 -100 -389q-117 -143 -395 -143t-398 167q-80 117 -79 365v442
q0 268 100 389q117 143 389 144q194 0 304 -72t155 -225q69 63 69 146t-41 153h236q16 -51 16 -107z" />
    <glyph glyph-name="uni1EE3" unicode="&#x1ee3;" horiz-adv-x="1120" 
d="M385 -430v264h264v-264h-264zM647 432v199q0 129 -31 180q-30 51 -108 51t-110 -52t-31 -179v-199q-1 -129 31 -181t110 -52t108 52t31 181zM1169 969q0 -195 -251 -342q2 -25 2 -66v-129q0 -244 -96 -349t-317 -105t-317 106t-96 348v199q0 242 96 347t297 105
q201 1 294 -67t126 -221q91 137 11 284h233q18 -57 18 -110z" />
    <glyph glyph-name="uni1EE4" unicode="&#x1ee4;" horiz-adv-x="1218" 
d="M477 -430v264h264v-264h-264zM135 1462h289v-960q0 -174 37 -232t149 -59q112 0 148 58q37 58 37 233v960h288v-960q0 -152 -16 -232t-61 -137q-117 -156 -409 -156t-400 181q-61 96 -62 344v960z" />
    <glyph glyph-name="uni1EE5" unicode="&#x1ee5;" horiz-adv-x="1007" 
d="M373 -430v264h264v-264h-264zM109 1061h274v-608q0 -133 26 -187q25 -54 93 -55q68 0 94 56t27 200v594h272v-1061h-193l-28 88q-45 -63 -97 -87t-143 -24q-225 0 -295 179q-31 76 -30 262v643z" />
    <glyph glyph-name="uni1EE6" unicode="&#x1ee6;" horiz-adv-x="1218" 
d="M530 1575q0 100 10 131q9 31 52 84q18 25 18 43q0 35 -43 35t-121 -37l-47 164q123 39 219 39t154 -49t57 -138q0 -43 -13 -69t-68 -82q-23 -28 -29 -48t-8 -73h-181zM135 1462h289v-960q0 -174 37 -232t149 -59q112 0 148 58q37 58 37 233v960h288v-960q0 -152 -16 -232
t-61 -137q-117 -156 -409 -156t-400 181q-61 96 -62 344v960z" />
    <glyph glyph-name="uni1EE7" unicode="&#x1ee7;" horiz-adv-x="1007" 
d="M606 1178h-182q2 100 10 131t38 71t32 58q0 35 -42 35t-120 -37l-49 161q119 41 217 41t156 -49t57 -137q0 -43 -13 -69t-67 -83q-23 -27 -30 -48t-7 -74zM109 1061h274v-608q0 -133 26 -187q25 -54 93 -55q68 0 94 56t27 200v594h272v-1061h-193l-28 88q-45 -63 -97 -87
t-143 -24q-225 0 -295 179q-31 76 -30 262v643z" />
    <glyph glyph-name="uni1EE8" unicode="&#x1ee8;" horiz-adv-x="1361" 
d="M526 1593l152 318h303l-250 -318h-205zM135 1462h289v-960q0 -148 22 -200t60 -72q37 -20 104 -19q109 0 147 60t38 231v960h288v-317q70 41 101 88q30 47 30 117t-38 137h233q16 -55 16 -107q0 -168 -165 -293q-57 -43 -177 -108v-477q0 -152 -17 -231t-71 -149
q-111 -144 -397 -145q-287 0 -399 181q-35 55 -49 130t-15 214v960z" />
    <glyph glyph-name="uni1EE9" unicode="&#x1ee9;" horiz-adv-x="1183" 
d="M414 1188l151 317h303l-252 -317h-202zM109 1061h274v-608q0 -133 26 -187q27 -54 93 -55q66 0 92 56t27 200v594h272v-324q131 74 131 201q0 74 -39 141h234q16 -57 16 -108q0 -166 -166 -291q-49 -37 -176 -111v-569h-193l-28 88q-46 -63 -98 -87t-140 -24
q-225 0 -295 179q-31 76 -30 262v643z" />
    <glyph glyph-name="uni1EEA" unicode="&#x1eea;" horiz-adv-x="1361" 
d="M737 1593h-202l-250 318h301zM135 1462h289v-960q0 -148 22 -200t60 -72q37 -20 104 -19q109 0 147 60t38 231v960h288v-317q70 41 101 88q30 47 30 117t-38 137h233q16 -55 16 -107q0 -168 -165 -293q-57 -43 -177 -108v-477q0 -152 -17 -231t-71 -149
q-111 -144 -397 -145q-287 0 -399 181q-35 55 -49 130t-15 214v960z" />
    <glyph glyph-name="uni1EEB" unicode="&#x1eeb;" horiz-adv-x="1183" 
d="M641 1188h-203l-250 317h301zM109 1061h274v-608q0 -133 26 -187q27 -54 93 -55q66 0 92 56t27 200v594h272v-324q131 74 131 201q0 74 -39 141h234q16 -57 16 -108q0 -166 -166 -291q-49 -37 -176 -111v-569h-193l-28 88q-46 -63 -98 -87t-140 -24q-225 0 -295 179
q-31 76 -30 262v643z" />
    <glyph glyph-name="uni1EEC" unicode="&#x1eec;" horiz-adv-x="1361" 
d="M616 1833q0 35 -40 35t-121 -37l-49 164q126 39 220 39t152 -49t58 -138q0 -45 -14 -69t-51 -67q-38 -43 -44 -63t-8 -73h-182q2 98 11 130q8 32 38 71t30 57zM135 1462h289v-960q0 -148 22 -200t60 -72q37 -20 104 -19q109 0 147 60t38 231v960h288v-317q70 41 101 88
q30 47 30 117t-38 137h233q16 -55 16 -107q0 -168 -165 -293q-57 -43 -177 -108v-477q0 -152 -17 -231t-71 -149q-111 -144 -397 -145q-287 0 -399 181q-35 55 -49 130t-15 214v960z" />
    <glyph glyph-name="uni1EED" unicode="&#x1eed;" horiz-adv-x="1183" 
d="M616 1178h-182q2 100 10 132t52 85q18 25 18 43q0 35 -41 35t-123 -37l-47 161q119 41 217 41t156 -49t57 -137q0 -45 -13 -70t-69 -82q-23 -27 -29 -48t-6 -74zM109 1061h274v-608q0 -133 26 -187q27 -54 93 -55q66 0 92 56t27 200v594h272v-324q131 74 131 201
q0 74 -39 141h234q16 -57 16 -108q0 -166 -166 -291q-49 -37 -176 -111v-569h-193l-28 88q-46 -63 -98 -87t-140 -24q-225 0 -295 179q-31 76 -30 262v643z" />
    <glyph glyph-name="uni1EEE" unicode="&#x1eee;" horiz-adv-x="1361" 
d="M510 1905q80 1 142 -61t87 -62q41 0 56 108h161q-12 -117 -34 -178q-47 -125 -181 -125q-92 1 -149 63t-82 62q-26 0 -44 -30t-22 -80h-161q18 125 45 180q57 123 182 123zM135 1462h289v-960q0 -148 22 -200t60 -72q37 -20 104 -19q109 0 147 60t38 231v960h288v-317
q70 41 101 88q30 47 30 117t-38 137h233q16 -55 16 -107q0 -168 -165 -293q-57 -43 -177 -108v-477q0 -152 -17 -231t-71 -149q-111 -144 -397 -145q-287 0 -399 181q-35 55 -49 130t-15 214v960z" />
    <glyph glyph-name="uni1EEF" unicode="&#x1eef;" horiz-adv-x="1183" 
d="M420 1499q80 0 143 -61t86 -62q43 0 56 109h161q-12 -129 -35 -180q-47 -123 -180 -123q-94 0 -150 61t-79 62q-54 0 -68 -109h-161q18 117 45 180q59 123 182 123zM109 1061h274v-608q0 -133 26 -187q27 -54 93 -55q66 0 92 56t27 200v594h272v-324q131 74 131 201
q0 74 -39 141h234q16 -57 16 -108q0 -166 -166 -291q-49 -37 -176 -111v-569h-193l-28 88q-46 -63 -98 -87t-140 -24q-225 0 -295 179q-31 76 -30 262v643z" />
    <glyph glyph-name="uni1EF0" unicode="&#x1ef0;" horiz-adv-x="1361" 
d="M481 -430v264h264v-264h-264zM135 1462h289v-960q0 -148 22 -200t60 -72q37 -20 104 -19q109 0 147 60t38 231v960h288v-317q70 41 101 88q30 47 30 117t-38 137h233q16 -55 16 -107q0 -168 -165 -293q-57 -43 -177 -108v-477q0 -152 -17 -231t-71 -149
q-111 -144 -397 -145q-287 0 -399 181q-35 55 -49 130t-15 214v960z" />
    <glyph glyph-name="uni1EF1" unicode="&#x1ef1;" horiz-adv-x="1183" 
d="M438 -430v264h264v-264h-264zM109 1061h274v-608q0 -133 26 -187q27 -54 93 -55q66 0 92 56t27 200v594h272v-324q131 74 131 201q0 74 -39 141h234q16 -57 16 -108q0 -166 -166 -291q-49 -37 -176 -111v-569h-193l-28 88q-46 -63 -98 -87t-140 -24q-225 0 -295 179
q-31 76 -30 262v643z" />
    <glyph glyph-name="Ygrave" unicode="&#x1ef2;" horiz-adv-x="985" 
d="M635 1593h-203l-250 318h301zM352 0v516l-399 946h305l240 -635l237 635h305l-399 -946v-516h-289z" />
    <glyph glyph-name="ygrave" unicode="&#x1ef3;" horiz-adv-x="925" 
d="M602 1188h-203l-249 317h301zM78 -471v223q118 0 154 31t73 162l17 67l-306 1049h277l170 -723l164 723h278l-319 -1139q-74 -256 -163 -324t-345 -69z" />
    <glyph glyph-name="uni1EF4" unicode="&#x1ef4;" horiz-adv-x="985" 
d="M360 -430v264h265v-264h-265zM352 0v516l-399 946h305l240 -635l237 635h305l-399 -946v-516h-289z" />
    <glyph glyph-name="uni1EF5" unicode="&#x1ef5;" horiz-adv-x="925" 
d="M668 -430v264h264v-264h-264zM78 -471v223q118 0 154 31t73 162l17 67l-306 1049h277l170 -723l164 723h278l-319 -1139q-74 -256 -163 -324t-345 -69z" />
    <glyph glyph-name="uni1EF6" unicode="&#x1ef6;" horiz-adv-x="985" 
d="M450 1868q-42 0 -120 -37l-49 164q125 39 220 39t152 -49t58 -138q1 -43 -13 -69t-52 -67q-38 -43 -44 -63t-8 -73h-182q2 100 10 131t38 70t32 57q0 35 -42 35zM352 0v516l-399 946h305l240 -635l237 635h305l-399 -946v-516h-289z" />
    <glyph glyph-name="uni1EF7" unicode="&#x1ef7;" horiz-adv-x="925" 
d="M565 1178h-182q0 100 9 132q10 32 40 71t31 57q0 35 -40 35t-124 -37l-47 161q123 41 219 41q95 0 153 -49t58 -137q0 -45 -13 -70t-69 -82q-23 -27 -29 -48t-6 -74zM78 -471v223q118 0 154 31t73 162l17 67l-306 1049h277l170 -723l164 723h278l-319 -1139
q-74 -256 -163 -324t-345 -69z" />
    <glyph glyph-name="uni1EF8" unicode="&#x1ef8;" horiz-adv-x="985" 
d="M383 1905q80 1 142 -61t87 -62q41 0 56 108h161q-12 -117 -34 -178q-47 -125 -181 -125q-92 0 -155 70q-33 35 -46 45t-34 10t-39 -30t-23 -80h-161q18 125 45 180q57 123 182 123zM352 0v516l-399 946h305l240 -635l237 635h305l-399 -946v-516h-289z" />
    <glyph glyph-name="uni1EF9" unicode="&#x1ef9;" horiz-adv-x="925" 
d="M352 1499q82 0 144 -61t86 -62q43 0 55 109h164q-14 -127 -35 -180q-51 -123 -182 -123q-92 0 -150 61t-81 61q-24 0 -42 -29q-18 -30 -22 -79h-164q18 119 47 180q57 123 180 123zM78 -471v223q118 0 154 31t73 162l17 67l-306 1049h277l170 -723l164 723h278
l-319 -1139q-74 -256 -163 -324t-345 -69z" />
    <glyph glyph-name="uni2002" unicode="&#x2002;" 
 />
    <glyph glyph-name="uni2003" unicode="&#x2003;" horiz-adv-x="2048" 
 />
    <glyph glyph-name="uni2004" unicode="&#x2004;" horiz-adv-x="681" 
 />
    <glyph glyph-name="uni2005" unicode="&#x2005;" horiz-adv-x="512" 
 />
    <glyph glyph-name="uni2006" unicode="&#x2006;" horiz-adv-x="342" 
 />
    <glyph glyph-name="uni2007" unicode="&#x2007;" horiz-adv-x="983" 
 />
    <glyph glyph-name="uni2008" unicode="&#x2008;" horiz-adv-x="0" 
 />
    <glyph glyph-name="uni2009" unicode="&#x2009;" horiz-adv-x="409" 
 />
    <glyph glyph-name="uni200A" unicode="&#x200a;" horiz-adv-x="256" 
 />
    <glyph glyph-name="uni2011" unicode="&#x2011;" horiz-adv-x="813" 
d="M119 608v236h577v-236h-577z" />
    <glyph glyph-name="figuredash" unicode="&#x2012;" horiz-adv-x="976" 
d="M104 608v236h768v-236h-768z" />
    <glyph glyph-name="endash" unicode="&#x2013;" horiz-adv-x="976" 
d="M104 608v236h768v-236h-768z" />
    <glyph glyph-name="emdash" unicode="&#x2014;" horiz-adv-x="983" 
d="M-4 608v236h993v-236h-993z" />
    <glyph glyph-name="afii00208" unicode="&#x2015;" horiz-adv-x="983" 
d="M-4 608v236h993v-236h-993z" />
    <glyph glyph-name="underscoredbl" unicode="&#x2017;" horiz-adv-x="839" 
d="M-45 -268v143h928v-143h-928zM-45 -483v143h928v-143h-928z" />
    <glyph glyph-name="quoteleft" unicode="&#x2018;" horiz-adv-x="419" 
d="M379 1462l-55 -532h-285l108 532h232z" />
    <glyph glyph-name="quoteright" unicode="&#x2019;" horiz-adv-x="419" 
d="M39 930l55 532h285l-107 -532h-233z" />
    <glyph glyph-name="quotesinglbase" unicode="&#x201a;" horiz-adv-x="419" 
d="M39 -264l55 532h285l-107 -532h-233z" />
    <glyph glyph-name="quotedblleft" unicode="&#x201c;" horiz-adv-x="817" 
d="M379 1462l-55 -532h-285l108 532h232zM778 1462l-57 -532h-285l109 532h233z" />
    <glyph glyph-name="quotedblright" unicode="&#x201d;" horiz-adv-x="817" 
d="M436 930l58 532h284l-108 -532h-234zM39 930l55 532h285l-107 -532h-233z" />
    <glyph glyph-name="quotedblbase" unicode="&#x201e;" horiz-adv-x="817" 
d="M436 -264l58 532h284l-108 -532h-234zM39 -264l55 532h285l-107 -532h-233z" />
    <glyph glyph-name="dagger" unicode="&#x2020;" horiz-adv-x="983" 
d="M352 803h-274v233h274v426h281v-426h274v-233h-274v-1112h-281v1112z" />
    <glyph glyph-name="daggerdbl" unicode="&#x2021;" horiz-adv-x="983" 
d="M352 803h-274v233h274v426h281v-426h274v-233h-274v-236h248v-233h-248v-643h-281v643h-250v233h250v236z" />
    <glyph glyph-name="bullet" unicode="&#x2022;" horiz-adv-x="983" 
d="M494 1087q158 0 268 -106t108 -262q0 -156 -108 -261q-108 -106 -270 -106t-270 106t-108 261q0 156 111 262t269 106z" />
    <glyph glyph-name="ellipsis" unicode="&#x2026;" horiz-adv-x="1591" 
d="M1182 0v272h288v-272h-288zM651 0v272h289v-272h-289zM121 0v272h289v-272h-289z" />
    <glyph glyph-name="perthousand" unicode="&#x2030;" horiz-adv-x="2531" 
d="M557 0l406 1462h254l-406 -1462h-254zM2238 317v127q0 94 -21 133q-22 37 -74 37q-51 0 -73 -38t-22 -132v-127q0 -96 22 -134t74 -38t73 38t21 134zM1812 317v125q0 184 76 261t256 77t255 -77t75 -261v-125q0 -184 -75 -261q-75 -76 -255 -76t-256 76t-76 261z
M1481 317v127q0 94 -22 132t-74 38q-51 0 -73 -38t-22 -132v-127q0 -96 22 -134t74 -38t73 38q22 38 22 134zM1055 317v125q0 184 75 261q76 77 256 77t255 -77t75 -261v-125q0 -184 -75 -261q-75 -76 -255 -76t-256 76q-75 77 -75 261zM483 1020v127q0 94 -21 133
q-22 39 -74 39t-74 -39t-21 -133v-127q-1 -94 21 -132t74 -38t74 38q21 38 21 132zM57 1022v125q0 184 76 261t256 77t255 -77t75 -261v-125q0 -184 -75 -261t-255 -77t-256 77t-76 261z" />
    <glyph glyph-name="guilsinglleft" unicode="&#x2039;" horiz-adv-x="505" 
d="M324 604l147 -258l-170 -117l-268 375l268 373l170 -115z" />
    <glyph glyph-name="guilsinglright" unicode="&#x203a;" horiz-adv-x="505" 
d="M184 604l-147 258l170 115l268 -373l-268 -375l-170 117z" />
    <glyph glyph-name="uni203E" unicode="&#x203e;" horiz-adv-x="839" 
d="M-45 1651v188h928v-188h-928z" />
    <glyph glyph-name="fraction" unicode="&#x2044;" horiz-adv-x="346" 
d="M-125 0l406 1462h251l-405 -1462h-252z" />
    <glyph glyph-name="zerosuperior" unicode="&#x2070;" horiz-adv-x="679" 
d="M416 1116v225q0 97 -18 137t-59 40q-42 0 -59 -39t-18 -138v-225q0 -98 18 -137t59 -39t59 39t18 137zM47 1110v238q0 180 67 256q68 76 226 76t224 -76t67 -256v-238q0 -180 -67 -256q-68 -76 -226 -76t-224 76t-67 256z" />
    <glyph glyph-name="foursuperior" unicode="&#x2074;" horiz-adv-x="677" 
d="M381 791v141h-342v125l250 610h223l-233 -569h102v162h186v-162h72v-166h-72v-141h-186z" />
    <glyph glyph-name="fivesuperior" unicode="&#x2075;" horiz-adv-x="677" 
d="M592 1667v-170h-291l-12 -147q43 10 78 10q137 0 196 -70q53 -59 53 -217t-59 -219q-76 -76 -226 -76t-219 64t-71 200l201 15q8 -111 84 -111t75 117q0 75 -16 107t-62 32t-77 -53l-164 31l33 487h477z" />
    <glyph glyph-name="sixsuperior" unicode="&#x2076;" horiz-adv-x="677" 
d="M338 1208q-43 0 -59 -28q-17 -28 -17 -106q0 -76 16 -106t60 -30q43 0 59 29q17 29 17 105t-16 106t-60 30zM408 1360q80 0 137 -43q80 -57 80 -231t-66 -240q-65 -68 -221 -68t-222 65t-65 220q0 90 15 141q14 51 63 137l186 326h252l-184 -307h25z" />
    <glyph glyph-name="sevensuperior" unicode="&#x2077;" horiz-adv-x="608" 
d="M41 1497v170h504v-123l-228 -753h-239l239 706h-276z" />
    <glyph glyph-name="eightsuperior" unicode="&#x2078;" horiz-adv-x="677" 
d="M339 1171q-46 0 -65 -25q-18 -26 -18 -92t17 -90q17 -26 65 -26t65 26q19 26 19 92t-18 90q-18 25 -65 25zM339 1532q-42 0 -58 -24q-17 -24 -17 -85t16 -86t59 -25q42 0 58 26q17 24 17 84t-16 85t-59 25zM70 1434q0 126 63 186t207 59q144 0 206 -59q62 -60 62 -186
t-57 -177q82 -57 82 -207t-69 -210q-68 -62 -226 -62t-226 62t-67 210q0 150 82 207q-57 51 -57 177z" />
    <glyph glyph-name="ninesuperior" unicode="&#x2079;" horiz-adv-x="677" 
d="M341 1520q-42 0 -59 -27q-18 -27 -18 -95t18 -96q18 -26 58 -26q41 0 58 28q18 28 18 94t-16 94t-59 28zM287 1124q-96 0 -156 43q-78 55 -78 219t66 228q65 66 221 66t222 -63q66 -62 65 -208q-1 -90 -13 -138t-55 -124l-197 -356h-251l192 333h-16z" />
    <glyph glyph-name="zeroinferior" unicode="&#x2080;" horiz-adv-x="679" 
d="M416 121v225q0 98 -18 137t-59 39q-42 0 -59 -39t-18 -137v-225q0 -98 18 -137t59 -39t59 39t18 137zM47 115v237q0 180 67 256q68 76 226 76t224 -76t67 -256v-237q0 -180 -67 -256q-68 -76 -226 -76t-224 76t-67 256z" />
    <glyph glyph-name="oneinferior" unicode="&#x2081;" horiz-adv-x="600" 
d="M227 -205v668l-123 -49l-59 143l254 115h147v-877h-219z" />
    <glyph glyph-name="twoinferior" unicode="&#x2082;" horiz-adv-x="675" 
d="M45 -205v139l229 285q111 137 111 218t-61 81q-72 0 -80 -123l-201 8q2 283 284 283t281 -246q0 -94 -32 -155t-150 -205l-92 -115h270v-170h-559z" />
    <glyph glyph-name="threeinferior" unicode="&#x2083;" horiz-adv-x="675" 
d="M205 182v146h84q96 0 96 100q0 88 -70 88q-35 0 -53 -22t-24 -72l-197 8q8 119 51 170q72 84 234 84q276 0 276 -246q0 -125 -72 -180q92 -62 92 -204t-71 -207q-73 -65 -223 -65t-223 64q-73 63 -76 201l202 12q6 -109 88 -108q86 0 87 102q0 129 -107 129h-94z" />
    <glyph glyph-name="fourinferior" unicode="&#x2084;" horiz-adv-x="677" 
d="M381 -205v142h-342v124l250 611h223l-233 -570h102v162h186v-162h72v-165h-72v-142h-186z" />
    <glyph glyph-name="fiveinferior" unicode="&#x2085;" horiz-adv-x="677" 
d="M592 672v-170h-291l-12 -148q43 10 78 11q137 0 196 -70q53 -59 53 -217t-59 -219q-76 -76 -226 -76t-219 63t-71 201l201 14q8 -111 82 -110q78 0 77 117q0 76 -16 108t-62 31q-46 0 -77 -53l-164 30l33 488h477z" />
    <glyph glyph-name="sixinferior" unicode="&#x2086;" horiz-adv-x="677" 
d="M338 213q-43 0 -59 -29q-17 -30 -17 -106t16 -106t60 -30q43 0 59 30q17 28 17 105t-16 107t-60 29zM408 365q80 0 137 -43q80 -56 80 -230t-66 -242q-65 -68 -221 -68t-222 66q-66 64 -65 220q0 90 15 141q14 51 63 137l186 326h252l-184 -307h25z" />
    <glyph glyph-name="seveninferior" unicode="&#x2087;" horiz-adv-x="608" 
d="M43 502v170h504v-123l-228 -754h-239l239 707h-276z" />
    <glyph glyph-name="eightinferior" unicode="&#x2088;" horiz-adv-x="677" 
d="M256 59q0 -65 17 -91t65 -26t65 26q19 26 19 92t-18 90q-18 26 -65 26q-46 0 -65 -25q-18 -26 -18 -92zM339 537q-42 0 -58 -24q-17 -24 -17 -85t16 -86t59 -25q42 0 58 25q17 25 17 85t-16 85t-59 25zM70 439q0 125 63 185t207 60t206 -59t62 -185t-57 -178
q82 -56 82 -206t-69 -212q-68 -62 -226 -61q-158 0 -226 61t-67 211q0 150 82 207q-57 51 -57 177z" />
    <glyph glyph-name="nineinferior" unicode="&#x2089;" horiz-adv-x="677" 
d="M341 524q-42 0 -59 -26q-18 -26 -18 -96t18 -96t58 -26q41 0 58 28q18 28 18 94t-16 94t-59 28zM287 129q-96 0 -156 43q-78 55 -78 218q0 162 66 228q65 66 221 66t222 -62t65 -208q-1 -90 -13 -138t-55 -124l-197 -357h-251l192 334h-16z" />
    <glyph glyph-name="franc" unicode="&#x20a3;" horiz-adv-x="1437" 
d="M831 0v922h201l35 -88q57 70 94 90t110 20t175 -55l-115 -219q-57 57 -102 57q-70 0 -102 -83t-31 -267v-377h-265zM137 0v1462h690v-235h-409v-383h323v-236h-323v-608h-281z" />
    <glyph glyph-name="lira" unicode="&#x20a4;" horiz-adv-x="983" 
d="M82 0v203q182 45 201 268h-222v152h199q-25 61 -43 102h-156v152h93q-35 111 -35 208q0 195 100 296q99 101 289 101t294 -94q104 -95 132 -292l-250 -52q-20 111 -57 160t-103 49q-119 0 -118 -166q0 -100 51 -210h329v-152h-258q16 -59 23 -102h235v-152h-237v-8
l-2 -25q-10 -115 -86 -202h500v-236h-879z" />
    <glyph glyph-name="peseta" unicode="&#x20a7;" horiz-adv-x="983" 
d="M416 1059h233q-10 100 -50 142t-120 40h-63v-182zM416 907v-198h63q82 -2 122 44t50 154h-235zM141 907h-141v152h141v403h324q223 6 334 -91t125 -312h120v-152h-120q-10 -223 -122 -324t-337 -96h-43v-487h-281v907z" />
    <glyph glyph-name="uni20AB" unicode="&#x20ab;" horiz-adv-x="983" 
d="M319 639v-195q0 -129 31 -185t101 -56q137 0 137 219v217q0 219 -139 219q-70 0 -100 -51t-30 -168zM588 1157h-252v184h252v121h272v-121h131v-184h-131v-1157h-209l-16 68l-14 -13q-80 -78 -224 -78q-186 0 -268 110t-82 362v192q0 231 81 337t257 105q117 0 203 -61
v135zM63 -379v189h857v-189h-857z" />
    <glyph glyph-name="Euro" unicode="&#x20ac;" horiz-adv-x="983" 
d="M125 621v106h-152l58 152h94v55q0 289 92 407q111 139 323 139t311 -106t107 -330l-266 -10q-8 117 -39 165t-105 48q-74 -1 -104 -73q-31 -72 -30 -252v-43h422l-58 -152h-364v-106h325l-57 -152h-266q2 -143 38 -203t116 -59q80 0 114 38t41 120l256 -17
q-7 -194 -109 -284t-314 -90t-318 119q-106 120 -113 376h-154l58 152h94z" />
    <glyph glyph-name="uni20B4" unicode="&#x20b4;" horiz-adv-x="983" 
d="M483 1262q-55 0 -86 -28t-51 -93l-237 55q35 147 128 217t269 70q176 1 275 -101t100 -297q0 -135 -52 -243l103 -31l-41 -145l-162 49q-51 -41 -170 -90l305 -93l-41 -145l-450 135q-41 -53 -41 -146t38 -134t119 -41q81 -1 123 27t70 98l240 -58q-36 -150 -142 -220
t-295 -71q-420 0 -419 408q0 119 38 217l-106 33l41 145l156 -47q43 33 163 90l-292 90l40 146l443 -133q66 66 65 178q0 158 -131 158z" />
    <glyph glyph-name="uni2101" unicode="&#x2101;" horiz-adv-x="1695" 
d="M1645 256q0 -272 -299 -270q-131 0 -209 39t-123 127l174 100q30 -57 60 -79t83 -21q100 0 101 96q0 43 -26 62t-134 52q-108 34 -160 94q-51 60 -51 176t76 187q76 70 217 70q201 0 280 -154l-170 -96q-46 84 -118 84t-72 -78q0 -45 29 -71t123 -54t137 -59
q82 -57 82 -205zM485 881l-96 329l-96 -329h192zM756 717l207 745h221l-406 -1462h-221l162 586h-146l-45 151h-278l-43 -151h-232l324 876h182z" />
    <glyph glyph-name="afii61248" unicode="&#x2105;" horiz-adv-x="1691" 
d="M512 0l406 1462h221l-406 -1462h-221zM1419 354v99q0 106 -27 152q-28 46 -92 46t-90 -46q-27 -46 -26 -152v-99q0 -106 26 -152t90 -46q63 0 91 44t28 154zM967 342v123q0 190 79 274t256 84q176 0 254 -84t78 -274v-123q0 -190 -78 -274t-254 -84t-256 84
q-79 84 -79 274zM373 635q-317 0 -318 393v47q0 401 314 402q203 0 293 -170l-160 -90q-42 88 -110 88q-68 -1 -95 -55t-27 -175v-45q0 -223 119 -223q41 0 69 19q27 20 56 69l160 -90q-90 -170 -301 -170z" />
    <glyph glyph-name="afii61289" unicode="&#x2113;" horiz-adv-x="964" 
d="M723 1220q0 85 -47 85q-101 0 -164 -547q94 119 153 248q58 129 58 214zM213 336v20q-76 -96 -95 -96t-35 29q-15 29 -15 61t10 46q10 16 56 70t89 116q41 346 125 587q109 322 311 322q95 0 155 -68t60 -176q0 -317 -380 -686q-31 -260 -31 -342t37 -82q16 -1 28 15
t35 67q27 66 66 66q51 0 51 -64q0 -104 -77 -188t-173 -84q-217 0 -217 387z" />
    <glyph glyph-name="afii61352" unicode="&#x2116;" horiz-adv-x="2117" 
d="M1280 0v215h743v-215h-743zM1757 778v76q0 109 -24 153q-25 44 -82 44t-82 -44t-25 -153v-76q0 -110 24 -154t83 -44t83 44t23 154zM1280 762v108q0 212 88 306t284 94t284 -94t87 -306v-108q0 -211 -89 -305q-88 -95 -284 -95t-283 96t-87 304zM139 0v1462h283l434 -934
v934h274v-1462h-276l-440 942v-942h-275z" />
    <glyph glyph-name="trademark" unicode="&#x2122;" horiz-adv-x="1585" 
d="M711 586v876h202l195 -448l195 448h204v-876h-207v479l-114 -297h-154l-114 297v-479h-207zM211 586v708h-217v168h651v-168h-213v-708h-221z" />
    <glyph glyph-name="uni2126" unicode="&#x2126;" horiz-adv-x="1191" 
d="M90 0v207h209v61q-195 104 -188 467v217q1 148 23 236t77 153q117 143 397 143t393 -167q82 -117 82 -365v-217q6 -360 -188 -467v-61h207v-207h-430v420q68 24 96 96t27 223v189q0 184 -43 254t-156 70t-155 -70t-42 -254v-189q-2 -153 26 -225t95 -94v-420h-430z" />
    <glyph glyph-name="estimated" unicode="&#x212e;" horiz-adv-x="1071" 
d="M741 797v176q-41 219 -200 219q-76 0 -122 -50t-75 -167v-178h397zM344 618v-212q25 -100 47 -144q51 -88 158 -88q168 0 223 225h195q-37 -176 -95 -260q-118 -164 -332 -164q-214 1 -340 185t-126 514t126 522t343 193q139 0 243 -82q104 -83 156 -225t55 -464h-653z
" />
    <glyph glyph-name="onethird" unicode="&#x2153;" horiz-adv-x="1697" 
d="M422 0l405 1462h252l-403 -1462h-254zM1149 387v145h84q98 0 98 101q-1 88 -71 88t-78 -94l-197 8q6 133 74 193t211 61q276 0 276 -244q0 -125 -71 -182q51 -37 71 -83t21 -124q0 -139 -72 -204t-223 -64q-195 0 -262 110q-35 49 -37 154l203 12q2 -109 90 -108
q86 0 86 102q0 129 -109 129h-94zM244 586v661l-127 -49l-66 158l264 106h148v-876h-219z" />
    <glyph glyph-name="twothirds" unicode="&#x2154;" horiz-adv-x="1697" 
d="M526 0l406 1462h252l-406 -1462h-252zM1217 387v145h83q98 0 99 101q0 88 -72 88q-66 0 -78 -94l-196 8q8 135 74 194q67 59 210 60q276 0 277 -244q0 -127 -72 -182q52 -37 72 -84t20 -125q0 -137 -72 -202t-221 -64q-195 0 -264 110q-31 51 -37 154l203 12
q6 -109 90 -108q86 0 86 102q0 129 -108 129h-94zM59 586v139l230 285q111 137 111 218t-62 81q-72 0 -80 -123l-201 8q2 283 284 283t282 -246q0 -93 -32 -155t-151 -206l-92 -114h270v-170h-559z" />
    <glyph glyph-name="uni2155" unicode="&#x2155;" horiz-adv-x="1697" 
d="M436 0l406 1462h254l-406 -1462h-254zM1548 877v-170h-293l-10 -148q43 8 78 8q137 0 193 -64t57 -219q0 -155 -60 -221q-76 -75 -227 -75t-219 62t-70 202l201 14q6 -111 82 -110q78 0 78 114q0 76 -16 108t-62 32q-45 0 -78 -52l-166 31l35 488h477zM260 586v661
l-127 -49l-65 158l264 106h147v-876h-219z" />
    <glyph glyph-name="uni2156" unicode="&#x2156;" horiz-adv-x="1697" 
d="M526 0l406 1462h252l-406 -1462h-252zM1587 877v-170h-291l-12 -148q43 8 78 8q138 0 194 -64t56 -221t-60 -219q-76 -75 -226 -75t-219 62t-71 202l203 14q6 -111 80 -110q78 0 78 118q-1 74 -17 105t-60 31t-79 -52l-164 31l33 488h477zM57 586v139l230 285
q111 137 111 218t-62 81q-72 0 -80 -123l-201 8q2 283 284 283t282 -246q0 -93 -32 -155t-151 -206l-92 -114h270v-170h-559z" />
    <glyph glyph-name="uni2157" unicode="&#x2157;" horiz-adv-x="1697" 
d="M520 0l406 1462h254l-406 -1462h-254zM1585 877v-170h-291l-10 -148q41 8 76 8q137 0 193 -64q57 -64 57 -221t-60 -219q-76 -75 -226 -75t-219 62t-71 202l203 14q6 -111 80 -110q78 0 78 116q-1 76 -17 107t-61 31t-78 -52l-164 31l33 488h477zM219 975v145h84
q96 0 96 99q1 88 -67 88t-80 -93l-197 7q8 119 51 170q72 84 234 84q276 0 276 -244q0 -125 -71 -180q92 -63 92 -205t-71 -207q-70 -66 -222 -66q-152 -1 -224 63t-77 204l203 12q6 -111 90 -111t84 103q0 131 -107 131h-94z" />
    <glyph glyph-name="uni2158" unicode="&#x2158;" horiz-adv-x="1697" 
d="M530 0l406 1462h254l-406 -1462h-254zM1591 877v-170h-291l-10 -148q41 8 76 8q138 0 194 -64t56 -221t-60 -219q-76 -75 -226 -75t-219 62t-71 202l203 14q2 -111 80 -110q78 0 78 116q-1 76 -17 107t-61 31t-78 -52l-164 31l33 488h477zM391 586v141h-344v125l252 610
h223l-235 -569h104v162h187v-162h69v-166h-69v-141h-187z" />
    <glyph glyph-name="uni2159" unicode="&#x2159;" horiz-adv-x="1697" 
d="M453 0l405 1462h252l-405 -1462h-252zM1264 418q-44 0 -60 -30t-16 -106t16 -105q16 -30 60 -30t59 29q16 29 16 106q0 76 -16 106t-59 30zM977 272q0 90 14 142t64 137l186 326h252l-186 -308q170 0 219 -113q25 -58 24 -171q0 -162 -66 -230q-66 -67 -224 -67t-228 75
q-55 57 -55 209zM268 586v661l-127 -49l-65 158l264 106h147v-876h-219z" />
    <glyph glyph-name="uni215A" unicode="&#x215a;" horiz-adv-x="1697" 
d="M537 0l405 1462h254l-405 -1462h-254zM1315 418q-43 0 -59 -30t-17 -106q0 -76 16 -106q15 -29 59 -29t60 29t16 106q0 76 -16 106t-59 30zM1602 260q0 -138 -66 -205t-224 -67t-229 75q-55 61 -55 211q0 88 14 140t64 137l186 326h252l-186 -308q170 0 219 -113
q25 -58 25 -196zM608 1462v-170h-291l-12 -147q41 10 78 10q137 -1 193 -65t57 -222q0 -158 -60 -219q-76 -76 -226 -76q-150 -1 -219 63t-71 202l201 14q8 -111 84 -111t76 117q0 76 -16 108t-61 32q-44 0 -79 -54l-164 31l33 487h477z" />
    <glyph glyph-name="oneeighth" unicode="&#x215b;" horiz-adv-x="1697" 
d="M440 0l406 1462h252l-404 -1462h-254zM1285 381q-46 0 -64 -26q-19 -25 -19 -91t18 -92t64 -25q47 0 66 27q18 27 18 90t-18 90q-19 27 -65 27zM1285 741q-42 1 -58 -23q-17 -24 -17 -85t16 -86t59 -25q42 0 58 25q17 25 17 85t-16 84t-59 25zM1016 644q0 126 63 185
t205 59t206 -58q64 -60 64 -186t-57 -177q82 -57 82 -207t-69 -210q-68 -62 -226 -62t-226 61t-67 213q0 152 82 205q-57 51 -57 177zM262 586v661l-127 -49l-65 158l264 106h147v-876h-219z" />
    <glyph glyph-name="threeeighths" unicode="&#x215c;" horiz-adv-x="1697" 
d="M514 0l406 1462h254l-406 -1462h-254zM1421 264q-1 66 -19 92t-64 25q-46 0 -64 -26q-18 -25 -18 -91t18 -92t65 -25q47 0 65 26q17 25 17 91zM1339 741q-41 -1 -58 -25t-17 -84t16 -85t58 -25t59 25q16 25 16 85t-16 85q-17 24 -58 24zM1069 644q-1 126 63 185t207 59
t205 -58q62 -60 64 -186q0 -126 -58 -177q82 -57 82 -207t-68 -211q-69 -61 -227 -61q-157 0 -225 61t-68 211t82 207q-57 51 -57 177zM217 975v145h84q96 0 96 99q1 88 -67 88t-80 -93l-197 7q8 119 51 170q72 84 234 84q276 0 276 -244q0 -125 -71 -180q92 -63 92 -205
t-71 -207q-70 -66 -222 -66q-152 -1 -224 63t-77 204l203 12q6 -111 90 -111t84 103q0 131 -107 131h-94z" />
    <glyph glyph-name="fiveeighths" unicode="&#x215d;" horiz-adv-x="1697" 
d="M520 0l406 1462h252l-406 -1462h-252zM1347 381q-47 0 -65 -26q-18 -25 -18 -91t17 -92t65 -25q48 0 65 26q19 25 19 91t-18 92t-65 25zM1348 741q-41 0 -59 -23q-17 -24 -17 -85t16 -86t58 -25t59 25q16 25 16 85t-16 84t-57 25zM1346 -12q-158 0 -226 61t-68 213
t83 205q-57 51 -57 177t62 185q64 59 206 59t206 -58q64 -60 64 -186t-57 -177q81 -57 81 -205t-68 -212q-68 -62 -226 -62zM604 1462v-170h-291l-12 -147q41 10 78 10q137 0 196 -70q53 -59 53 -217t-59 -219q-76 -76 -226 -76q-150 -1 -219 63t-71 202l201 14
q8 -111 84 -111t76 117q0 76 -16 108t-61 32q-44 0 -79 -54l-164 31l33 487h477z" />
    <glyph glyph-name="seveneighths" unicode="&#x215e;" horiz-adv-x="1697" 
d="M461 0l405 1462h254l-405 -1462h-254zM1384 264q0 66 -18 92t-65 25q-47 0 -65 -26q-18 -25 -19 -91q0 -66 18 -92t65 -25q47 0 66 26q18 25 18 91zM1376 632q0 60 -16 84t-59 25q-43 0 -60 -23q-16 -24 -16 -85t16 -86t58 -25t60 25q17 25 17 85zM1595 260
q0 -150 -68 -211q-69 -61 -227 -61t-226 61t-68 213t84 205q-60 51 -60 177t64 185t206 59t206 -58q64 -60 64 -186t-57 -177q82 -57 82 -207zM104 1292v170h523v-123l-246 -753h-240l258 706h-295z" />
    <glyph glyph-name="arrowleft" unicode="&#x2190;" horiz-adv-x="1638" 
d="M1511 608h-1042l338 -338l-168 -166l-549 572v100l549 574l168 -168l-338 -338h1042v-236z" />
    <glyph glyph-name="arrowup" unicode="&#x2191;" horiz-adv-x="1638" 
d="M690 0v1092l-338 -338l-166 166l572 548h102l572 -548l-166 -166l-338 338v-1092h-238z" />
    <glyph glyph-name="arrowright" unicode="&#x2192;" horiz-adv-x="1638" 
d="M127 608v236h1042l-338 338l168 168l549 -574v-100l-549 -572l-168 166l338 338h-1042z" />
    <glyph glyph-name="arrowdown" unicode="&#x2193;" horiz-adv-x="1638" 
d="M690 1462h238v-1091l338 338l166 -166l-572 -549h-102l-572 549l166 166l338 -338v1091z" />
    <glyph glyph-name="arrowboth" unicode="&#x2194;" horiz-adv-x="1638" 
d="M1235 608h-829l260 -260l-168 -168l-471 496v100l471 496l168 -168l-260 -260h829l-260 260l168 168l471 -496v-100l-471 -496l-168 168z" />
    <glyph glyph-name="arrowupdn" unicode="&#x2195;" horiz-adv-x="1638" 
d="M692 313v836l-260 -260l-168 166l496 471h100l494 -471l-166 -166l-260 260v-836l260 260l166 -165l-494 -471h-100l-496 471l168 165z" />
    <glyph glyph-name="uni2196" unicode="&#x2196;" horiz-adv-x="1638" 
d="M516 403h-237v789l92 92h788v-235h-477l739 -742l-168 -166l-737 742v-480z" />
    <glyph glyph-name="uni2197" unicode="&#x2197;" horiz-adv-x="1638" 
d="M479 1049v235h789l92 -92v-789h-238v480l-739 -742l-166 166l739 742h-477z" />
    <glyph glyph-name="uni2198" unicode="&#x2198;" horiz-adv-x="1638" 
d="M1122 1020h238v-789l-94 -92h-787v236h477l-739 741l166 166l739 -741v479z" />
    <glyph glyph-name="uni2199" unicode="&#x2199;" horiz-adv-x="1638" 
d="M1159 375v-236h-788l-92 92v787h237v-477l737 739l168 -166l-739 -739h477z" />
    <glyph glyph-name="partialdiff" unicode="&#x2202;" horiz-adv-x="983" 
d="M631 432v158q0 133 -33 188q-33 56 -109 56q-75 0 -107 -56t-32 -188v-158q0 -131 32 -187q32 -57 108 -57t108 56q33 56 33 188zM86 414v194q0 222 85 328t261 106q82 0 129 -32q-96 248 -350 297l35 176q311 -31 475 -252t174 -625v-192q0 -232 -95 -334
q-96 -102 -312 -102t-309 102q-93 103 -93 334z" />
    <glyph glyph-name="emptyset" unicode="&#x2205;" horiz-adv-x="983" 
d="M506 422q104 0 176 86q72 80 72 218t-72 237l-229 -535q39 -6 53 -6zM227 732q0 -146 86 -238l234 544q-49 10 -70 11q-111 0 -181 -86q-70 -85 -69 -231zM940 735q0 -213 -125 -348t-323 -135q-51 0 -107 12l-152 -356l-143 53l152 361q-201 137 -201 415q0 211 124 347
t318 137q65 -1 131 -19l134 311l143 -53l-137 -321q186 -143 186 -404z" />
    <glyph glyph-name="Delta" unicode="&#x2206;" horiz-adv-x="983" 
d="M713 225l-219 850l-218 -850h437zM1096 0h-1202l479 1462h241z" />
    <glyph glyph-name="product" unicode="&#x220f;" horiz-adv-x="1169" 
d="M141 -422v1884h887v-1884h-276v1641h-334v-1641h-277z" />
    <glyph glyph-name="summation" unicode="&#x2211;" horiz-adv-x="1073" 
d="M90 -422v193l348 790l-325 701v200h854v-235h-535l311 -662l-309 -751h561v-236h-905z" />
    <glyph glyph-name="minus" unicode="&#x2212;" horiz-adv-x="983" 
d="M78 618v216h829v-216h-829z" />
    <glyph glyph-name="uni2215" unicode="&#x2215;" horiz-adv-x="346" 
d="M-125 0l406 1462h251l-405 -1462h-252z" />
    <glyph glyph-name="uni2218" unicode="&#x2218;" horiz-adv-x="983" 
d="M492 971q-106 0 -178 -71q-72 -72 -70 -180q0 -108 70 -180t176 -71q108 0 179 72t71 179t-71 179t-177 72zM96 720q0 164 115 274t282 110t281 -111t113 -273q0 -162 -114 -274q-115 -110 -283 -110t-281 110t-113 274z" />
    <glyph glyph-name="uni2219" unicode="&#x2219;" horiz-adv-x="530" 
d="M121 590v272h289v-272h-289z" />
    <glyph glyph-name="radical" unicode="&#x221a;" horiz-adv-x="983" 
d="M6 567v230h316l114 -424l309 1466h558v-188h-326l-387 -1651h-281l-188 567h-115z" />
    <glyph glyph-name="infinity" unicode="&#x221e;" horiz-adv-x="1488" 
d="M1067 567q55 0 92 42t37 113t-37 114t-91 43t-95 -27t-113 -109l-18 -20l22 -23q74 -84 111 -108t92 -25zM420 879q-53 0 -89 -43t-36 -113t37 -113t97 -43t120 51q16 14 76 82l20 23l-18 20q-70 80 -112 108t-95 28zM402 373q-144 0 -231 93t-87 257t87 257t235 93
t256 -90q31 -29 81 -96q63 82 97 106q102 80 246 80t232 -93q87 -93 87 -257t-87 -257q-88 -93 -238 -93t-255 90q-31 24 -82 96q-61 -82 -94 -106q-103 -80 -247 -80z" />
    <glyph glyph-name="integral" unicode="&#x222b;" horiz-adv-x="798" 
d="M207 4q43 0 56 45t13 221v793q0 289 25 379q49 182 244 182q88 0 200 -33l-49 -209q-45 23 -88 23t-56 -46t-13 -218v-795q0 -289 -27 -381q-47 -180 -244 -180q-96 0 -198 31l49 211q45 -23 88 -23z" />
    <glyph glyph-name="similar" unicode="&#x223c;" horiz-adv-x="983" 
d="M346 897q49 0 78 -11t90 -55q100 -66 135 -65q61 0 105 123l153 -47q-35 -119 -78 -174q-82 -106 -196 -107q-47 -1 -81 15t-106 66t-108 50q-63 0 -102 -133l-158 37q35 158 98 230t170 71z" />
    <glyph glyph-name="uni2243" unicode="&#x2243;" horiz-adv-x="983" 
d="M344 1090q49 0 77 -10t91 -56q63 -45 87 -56t48 -12q63 0 105 125l153 -49q-37 -117 -78 -172q-82 -106 -196 -106q-45 0 -80 15t-107 65t-108 51q-64 0 -103 -133l-157 36q35 158 98 230t170 72zM109 440v207h763v-207h-763z" />
    <glyph glyph-name="approxequal" unicode="&#x2248;" horiz-adv-x="983" 
d="M346 1090q49 0 77 -10q29 -10 93 -56q64 -45 86 -56t47 -12q63 0 105 125l153 -49q-37 -117 -78 -172q-82 -106 -196 -106q-45 0 -80 15t-107 65t-108 51q-63 0 -102 -133l-158 36q35 158 98 230t170 72zM346 705q49 1 78 -11q30 -12 110 -66t115 -55q61 0 105 123
l153 -47q-35 -119 -78 -174q-82 -106 -196 -106q-45 0 -80 15q-35 16 -107 66t-108 50q-63 0 -102 -133l-158 36q35 158 98 230t170 72z" />
    <glyph glyph-name="notequal" unicode="&#x2260;" horiz-adv-x="983" 
d="M109 440v207h231l66 160h-297v205h383l96 235l203 -84l-62 -151h143v-205h-231l-63 -160h294v-207h-383l-96 -235l-203 84l62 151h-143z" />
    <glyph glyph-name="lessequal" unicode="&#x2264;" horiz-adv-x="983" 
d="M111 12v215h714v-215h-714zM393 762l432 -201v-250l-716 371v162l716 370v-249z" />
    <glyph glyph-name="greaterequal" unicode="&#x2265;" horiz-adv-x="983" 
d="M158 12v215h712v-215h-712zM590 762l-432 203v249l716 -370v-162l-716 -371v250z" />
    <glyph glyph-name="dotmath" unicode="&#x22c5;" horiz-adv-x="530" 
d="M121 590v272h289v-272h-289z" />
    <glyph glyph-name="filledrect" unicode="&#x25ac;" horiz-adv-x="983" 
d="M152 379v680h679v-680h-679z" />
    <glyph glyph-name="uni25B4" unicode="&#x25b4;" horiz-adv-x="983" 
d="M86 367l406 813l407 -813h-813z" />
    <glyph glyph-name="uni25B8" unicode="&#x25b8;" horiz-adv-x="983" 
d="M184 313v813l811 -407z" />
    <glyph glyph-name="uni25BE" unicode="&#x25be;" horiz-adv-x="983" 
d="M86 1073h813l-407 -813z" />
    <glyph glyph-name="uni25C2" unicode="&#x25c2;" horiz-adv-x="983" 
d="M799 313l-811 406l811 407v-813z" />
    <glyph glyph-name="lozenge" unicode="&#x25ca;" horiz-adv-x="983" 
d="M270 723l222 -354l221 354l-221 356zM-29 723l521 788l520 -788l-520 -786z" />
    <glyph glyph-name="openbullet" unicode="&#x25e6;" horiz-adv-x="983" 
d="M492 971q-106 0 -178 -71q-72 -72 -70 -180q0 -108 70 -180t176 -71q108 0 179 72t71 179t-71 179t-177 72zM96 720q0 164 115 274t282 110t281 -111t113 -273q0 -162 -114 -274q-115 -110 -283 -110t-281 110t-113 274z" />
    <glyph glyph-name="commaaccent" unicode="&#xf6c3;" 
d="M348 -489l86 360h258l-160 -360h-184z" />
    <glyph glyph-name="Acute" unicode="&#xf6c9;" 
d="M369 1593l151 318h301l-250 -318h-202z" />
    <glyph glyph-name="Caron" unicode="&#xf6ca;" 
d="M512 1743l94 158h254l-248 -312h-200l-248 312h254z" />
    <glyph glyph-name="Dieresis" unicode="&#xf6cb;" 
d="M582 1599v263h241v-263h-241zM203 1599v263h241v-263h-241z" />
    <glyph glyph-name="Grave" unicode="&#xf6ce;" 
d="M655 1593h-202l-250 318h301z" />
    <glyph glyph-name="Hungarumlaut" unicode="&#xf6cf;" 
d="M557 1593l119 318h280l-211 -318h-188zM231 1593l119 318h281l-211 -318h-189z" />
    <glyph glyph-name="Macron" unicode="&#xf6d0;" 
d="M217 1636v197h590v-197h-590z" />
    <glyph glyph-name="zerooldstyle" unicode="&#xf730;" horiz-adv-x="1001" 
d="M629 485v162q0 164 -28 223q-29 60 -103 60t-100 -58t-25 -223v-164q1 -164 27 -223t100 -59t102 59t27 223zM90 475v184q0 264 88 373q102 123 331 123t329 -145q74 -109 73 -351v-184q0 -264 -90 -375q-103 -123 -333 -123t-326 148q-72 106 -72 350z" />
    <glyph glyph-name="oneoldstyle" unicode="&#xf731;" horiz-adv-x="688" 
d="M240 0v827l-185 -84l-96 220l381 170h188v-1133h-288z" />
    <glyph glyph-name="twooldstyle" unicode="&#xf732;" horiz-adv-x="856" 
d="M10 0v182l314 326q203 211 202 311q0 111 -110 111q-123 0 -135 -152l-261 29q16 180 114 264t286 84q383 0 383 -321q0 -180 -150 -336q-25 -27 -139 -136l-139 -141h434v-221h-799z" />
    <glyph glyph-name="threeoldstyle" unicode="&#xf733;" horiz-adv-x="901" 
d="M227 338v223h109q104 0 149 44t45 145q0 182 -112 182q-98 0 -111 -148l-262 31q21 174 115 258t276 84t282 -99t99 -304q0 -205 -149 -301q98 -57 140 -139t42 -216q0 -426 -426 -426q-195 0 -294 79t-122 251l266 49q8 -154 138 -153q152 0 151 208q0 112 -54 172
t-155 60h-127z" />
    <glyph glyph-name="fouroldstyle" unicode="&#xf734;" horiz-adv-x="874" 
d="M514 -305v305h-510v172l371 961h299l-363 -912h203v318h250v-318h129v-221h-129v-305h-250z" />
    <glyph glyph-name="fiveoldstyle" unicode="&#xf735;" horiz-adv-x="923" 
d="M805 1133v-236h-422l-21 -311q72 25 140 24q184 0 272 -112q72 -94 72 -342t-88 -357q-102 -127 -330 -127q-188 0 -288 80q-99 80 -120 250l267 49q6 -154 129 -153q76 0 110 59t33 193q0 134 -28 188q-27 54 -105 53q-78 0 -125 -84l-209 43l47 783h666z" />
    <glyph glyph-name="sixoldstyle" unicode="&#xf736;" horiz-adv-x="980" 
d="M495 197q73 0 99 57t27 209t-27 209t-100 57t-100 -56t-28 -210t28 -210t101 -56zM582 936q125 0 197 -64q73 -64 99 -154q26 -91 26 -250t-24 -246q-22 -87 -77 -138q-104 -106 -319 -106t-320 126q-80 94 -80 347q0 137 25 236t88 222l272 523h317l-272 -502h14l33 6
h21z" />
    <glyph glyph-name="sevenoldstyle" unicode="&#xf737;" horiz-adv-x="743" 
d="M-16 897v236h718v-172l-340 -1266h-307l355 1202h-426z" />
    <glyph glyph-name="eightoldstyle" unicode="&#xf738;" horiz-adv-x="1003" 
d="M502 193q80 0 110 49t29 179q1 130 -29 177t-110 47t-110 -47t-30 -177t30 -179t110 -49zM502 842q70 0 94 43t25 159t-25 160t-94 43q-68 0 -94 -42q-26 -41 -25 -159q0 -118 25 -161q24 -43 94 -43zM502 1454q199 0 291 -96t92 -303q0 -115 -25 -179t-86 -110
q82 -49 115 -128t33 -220q0 -232 -100 -336t-320 -104t-320 104t-100 336q0 141 33 219q32 78 112 129q-109 80 -108 287q0 207 92 304t291 97z" />
    <glyph glyph-name="nineoldstyle" unicode="&#xf739;" horiz-adv-x="980" 
d="M487 936q-71 0 -99 -56t-28 -208t27 -209t99 -57t101 56q27 56 27 209t-27 209q-28 56 -100 56zM399 199q-121 0 -206 71q-63 54 -89 146t-26 251t22 245q64 244 398 243q216 0 319 -127q80 -94 80 -346q0 -139 -24 -233t-89 -226l-272 -538h-317l272 520q-8 -2 -14 -2
l-33 -4h-21z" />
    <glyph glyph-name="Dbreve" horiz-adv-x="1193" 
d="M564 1767q78 0 112 29q33 29 43 107h168q-4 -143 -39 -203q-70 -127 -291 -127t-289 147q-22 54 -26 183h168q10 -78 43 -107t111 -29zM428 231h123q145 -1 193 61t51 251v377q-3 188 -51 249t-193 62h-123v-1000zM139 0v1462h434q270 6 394 -116q123 -123 116 -392v-446
q7 -268 -115 -390t-395 -118h-434z" />
    <glyph glyph-name="ahungarumlaut" horiz-adv-x="972" 
d="M530 1188l119 317h281l-211 -317h-189zM205 1188l119 317h280l-211 -317h-188zM592 461h-109q-85 0 -119 -33t-34 -109q0 -75 28 -103t104 -28q74 0 102 34t28 126v113zM592 645v33q0 100 -29 142t-93 42t-94 -26t-52 -95l-230 70q70 272 383 272q254 0 340 -163
q47 -88 47 -277v-643h-213l-16 59q-80 -82 -249 -82t-246 77q-77 78 -77 262t78 256t285 73h166z" />
    <glyph glyph-name="uni0204.sc" horiz-adv-x="888" 
d="M428 1260h-188l-211 317h280zM754 1260h-189l-211 317h281zM121 0v1135h698v-222h-420v-231h355v-221h-355v-240h428v-221h-706z" />
    <glyph glyph-name="uni0206.sc" horiz-adv-x="888" 
d="M475 1395q-77 0 -111 -29t-45 -106h-167q8 150 36 202q74 127 295 127t287 -147q23 -53 27 -182h-168q-10 78 -43 106t-111 29zM125 0v1135h698v-222h-420v-231h355v-223h-355v-238h428v-221h-706z" />
    <glyph glyph-name="uni0208.sc" horiz-adv-x="526" 
d="M219 1260h-188l-211 317h280zM545 1260h-189l-211 317h281zM123 0v1133h278v-1133h-278z" />
    <glyph glyph-name="uni020A.sc" horiz-adv-x="526" 
d="M264 1395q-78 0 -112 -29t-43 -106h-168q8 150 36 202q74 127 295 127t287 -147q23 -53 27 -182h-168q-10 78 -43 106t-111 29zM123 0v1133h278v-1133h-278z" />
    <glyph glyph-name="uni020C.sc" 
d="M455 1260h-189l-211 317h281zM780 1260h-188l-211 317h281zM637 440v252q0 136 -31 188q-30 52 -108 52t-108 -52t-30 -188v-252q0 -133 31 -186t108 -53t107 53t31 186zM82 422v289q0 227 84 325q96 117 341 117t341 -137q68 -96 67 -305v-289q0 -227 -84 -326
q-95 -116 -341 -116t-340 137q-68 98 -68 305z" />
    <glyph glyph-name="uni020E.sc" 
d="M508 1395q-78 0 -112 -29t-44 -106h-168q8 150 37 202q74 127 295 127t287 -147q22 -53 26 -182h-167q-10 78 -44 106q-32 28 -110 29zM651 440v252q0 135 -29 188q-30 52 -108 52t-108 -52t-31 -188v-252q0 -133 31 -186q32 -53 108 -53t107 53q30 53 30 186zM96 422
v289q0 227 84 325q96 117 342 117t340 -137q68 -96 68 -305v-289q0 -227 -84 -326q-96 -116 -342 -116t-340 137q-68 96 -68 305z" />
    <glyph glyph-name="uni0210.sc" horiz-adv-x="993" 
d="M414 1260h-189l-211 317h281zM739 1260h-188l-211 317h281zM401 645h101q70 0 100 32q30 33 29 105q0 72 -30 103t-97 30h-103v-270zM406 440v-440h-279v1135h375q225 0 317 -77t92 -265q0 -131 -42 -202t-142 -108l242 -483h-318l-188 440h-57z" />
    <glyph glyph-name="uni0212.sc" horiz-adv-x="993" 
d="M477 1395q-77 0 -111 -29t-44 -106h-168q8 150 36 202q74 127 295 127t287 -147q23 -53 27 -182h-168q-10 78 -43 106t-111 29zM401 645h101q68 0 98 32q30 33 29 105q0 72 -29 103t-96 30h-103v-270zM406 440v-440h-279v1135h375q223 0 315 -77t92 -265q0 -129 -42 -201
t-140 -109l242 -483h-318l-188 440h-57z" />
    <glyph glyph-name="uni0214.sc" horiz-adv-x="1050" 
d="M463 1260h-189l-211 317h281zM788 1260h-188l-211 317h281zM106 1133h279v-740q0 -111 27 -151q26 -40 100 -41q74 0 102 41t27 151v740h279v-740q0 -121 -14 -183q-54 -230 -402 -230q-250 0 -344 139q-53 78 -54 274v740z" />
    <glyph glyph-name="uni0216.sc" horiz-adv-x="1048" 
d="M520 1395q-78 0 -112 -29t-43 -106h-168q8 150 36 202q74 127 295 127t287 -147q23 -53 27 -182h-168q-10 78 -43 106t-111 29zM119 1133h278v-740q0 -113 27 -153q26 -40 100 -39q74 0 101 41t26 151v740h279v-740q0 -123 -14 -184q-55 -229 -401 -229q-249 0 -343 139
q-53 78 -53 274v740z" />
    <glyph glyph-name="uni1E24.sc" horiz-adv-x="1054" 
d="M397 -430v264h265v-264h-265zM125 0v1133h278v-451h250v451h279v-1133h-279v459h-250v-459h-278z" />
    <glyph glyph-name="uni1E5A.sc" horiz-adv-x="993" 
d="M391 -430v264h264v-264h-264zM401 645h101q68 0 98 32q30 33 29 105q0 72 -29 103t-96 30h-103v-270zM406 440v-440h-279v1135h375q223 0 315 -77t92 -265q0 -129 -42 -201t-140 -109l242 -483h-318l-188 440h-57z" />
    <glyph glyph-name="uni1E62.sc" horiz-adv-x="872" 
d="M293 -430v264h264v-264h-264zM428 201q131 0 131 125q0 55 -37 84q-28 18 -178 59t-218 117t-69 232t95 245q96 88 271 88t262 -68t124 -225l-240 -67q-29 83 -57 111t-78 28q-51 0 -79 -29q-27 -29 -27 -83t37 -84t165 -64t191 -78q109 -70 108 -258q0 -354 -397 -354
q-188 0 -285 71q-96 72 -135 240l246 67q20 -84 59 -120t111 -37z" />
    <glyph glyph-name="uni1E6C.sc" horiz-adv-x="796" 
d="M266 -430v264h264v-264h-264zM258 0v913h-258v222h797v-222h-260v-913h-279z" />
    <glyph glyph-name="uni1E92.sc" horiz-adv-x="833" 
d="M303 -430v264h264v-264h-264zM47 0v164l399 749h-368v222h692v-164l-399 -750h420v-221h-744z" />
    <glyph glyph-name="uni1E44.sc" horiz-adv-x="1093" 
d="M424 1266v264h264v-264h-264zM125 0v1133h270l310 -631v631h266v-1133h-242l-338 662v-662h-266z" />
    <glyph glyph-name="uni1E0C.sc" horiz-adv-x="1026" 
d="M336 -430v264h264v-264h-264zM403 219h74q104 0 138 42t36 171v270q-2 129 -36 171t-138 42h-74v-696zM125 0v1135h369q236 5 338 -91t98 -315v-323q4 -220 -98 -314t-338 -92h-369z" />
    <glyph glyph-name="uni1E02.sc" horiz-adv-x="983" 
d="M344 1266v264h264v-264h-264zM399 215h140q59 0 86 30q27 31 27 99t-26 98t-83 31h-144v-258zM399 680h129q106 0 106 120t-108 120h-127v-240zM125 0v1135h414q203 0 287 -76t85 -234q0 -158 -80 -235q53 -50 75 -110t22 -158q0 -182 -103 -263q-76 -59 -252 -59h-448z
" />
    <glyph glyph-name="idotaccent" horiz-adv-x="509" 
d="M119 0v1061h272v-1061h-272zM119 1202v273h272v-273h-272z" />
    <glyph glyph-name="one.fitted" horiz-adv-x="688" 
d="M240 0v1157l-185 -84l-96 219l381 170h188v-1462h-288z" />
    <glyph glyph-name="two.fitted" horiz-adv-x="917" 
d="M2 0v195l358 487q180 246 180 408t-114 161q-131 0 -143 -211l-265 11q8 223 110 328t299 105q198 0 299 -100t101 -281t-88 -337q-43 -78 -196 -281l-187 -249h469v-236h-823z" />
    <glyph glyph-name="three.fitted" horiz-adv-x="903" 
d="M2 1081q18 403 414 403t397 -412q0 -210 -129 -300q88 -59 125 -141t37 -217q0 -436 -426 -437q-424 0 -436 422l266 17q12 -205 158 -205q152 0 151 211q0 113 -48 174t-134 61h-123v224h104q88 0 128 46t40 142q0 182 -125 182q-63 0 -96 -43t-43 -137z" />
    <glyph glyph-name="four.fitted" horiz-adv-x="962" 
d="M541 0v254h-506v174l393 1034h297l-369 -977h185v316h258v-316h110v-231h-110v-254h-258z" />
    <glyph glyph-name="five.fitted" horiz-adv-x="968" 
d="M838 1462v-235h-443l-20 -312q72 23 135 23q199 0 289 -115q78 -98 78 -353q1 -255 -95 -374t-342 -119t-344 177q-49 84 -57 245l268 17q12 -205 144 -205q139 0 139 252q0 143 -30 197t-112 54t-137 -85l-209 43l50 790h686z" />
    <glyph glyph-name="six.fitted" horiz-adv-x="985" 
d="M501 205q73 0 99 55q26 54 27 202t-27 204t-100 55q-72 0 -100 -55q-28 -54 -28 -202t28 -204q28 -55 101 -55zM588 936q126 0 198 -64t98 -154q26 -91 26 -250t-24 -246q-22 -87 -77 -138q-104 -106 -319 -106t-320 126q-80 94 -80 347q0 141 22 231t91 227l272 553h318
l-273 -532h15l32 6h21z" />
    <glyph glyph-name="seven.fitted" horiz-adv-x="743" 
d="M-16 1227v235h718v-172l-340 -1290h-307l355 1227h-426z" />
    <glyph glyph-name="eight.fitted" horiz-adv-x="1011" 
d="M645 428q1 127 -29 176t-109 49t-109 -48t-30 -176t30 -176t109 -48t109 48t29 175zM508 860q68 0 94 45t25 162q1 117 -25 161t-95 44t-95 -43t-25 -161q0 -118 26 -163q27 -45 95 -45zM123 1075q0 213 93 311t292 98t291 -98q92 -100 92 -311t-103 -301
q76 -47 108 -128t32 -224q0 -236 -100 -340t-322 -104q-224 0 -322 104t-98 340q0 143 32 223q31 80 107 129q-102 88 -102 301z" />
    <glyph glyph-name="nine.fitted" horiz-adv-x="985" 
d="M487 1257q-71 0 -99 -49t-28 -181t28 -182t100 -50t99 52t27 180t-27 179q-28 51 -100 51zM403 582q-139 0 -217 71q-57 49 -83 137t-25 238q0 260 100 358q110 98 322 98t315 -118q82 -90 82 -328q0 -135 -18 -216t-80 -206l-299 -616h-318l293 588q-49 -6 -72 -6z" />
    <glyph glyph-name="zero.fitted" horiz-adv-x="1028" 
d="M647 535v393q0 184 -29 254q-28 70 -104 70t-104 -70t-29 -254v-393q0 -184 29 -254q28 -70 104 -70t104 70t29 254zM98 510v442q0 276 95 404t329 129q234 0 336 -162q72 -115 72 -371v-442q0 -276 -88 -395q-104 -137 -338 -137t-334 161q-72 115 -72 371z" />
    <glyph glyph-name="sterling.fitted" horiz-adv-x="993" 
d="M88 0v203q203 57 203 272q0 53 -12 105h-193v235h98q-59 139 -59 268q0 195 100 297t291 103q238 0 342 -156q33 -45 47 -91t31 -140l-246 -52q-20 90 -39 130q-41 80 -121 79q-119 0 -118 -166q0 -63 14 -112t63 -160h297v-235h-231q6 -59 6 -84q0 -166 -94 -260h500
v-236h-879z" />
    <glyph glyph-name="dollar.fitted" horiz-adv-x="1038" 
d="M510 238q180 0 180 184q0 122 -101 166q-26 10 -153 47q-188 55 -270 153t-82 271q0 330 299 385v223h281v-233q102 -27 164 -98t98 -195l-238 -72q-33 88 -73 123t-111 35q-147 0 -148 -150q0 -82 50 -127t206 -92q158 -47 228 -100q123 -94 123 -316q0 -180 -73 -281
t-226 -136v-301h-281v294q-151 33 -229 115t-113 234l242 73q25 -106 77 -154t150 -48z" />
    <glyph glyph-name="cent.fitted" horiz-adv-x="931" 
d="M375 43v240q-137 33 -201 144q-63 112 -61 312v148q-2 205 60 315t202 148v227h280v-234q172 -49 217 -266l-219 -57q-18 72 -50 102q-33 30 -97 31q-64 0 -96 -57t-33 -187v-194q0 -125 34 -181t107 -57q115 0 146 135l221 -57q-25 -115 -80 -179t-150 -89v-244h-280z
" />
    <glyph glyph-name="Euro.fitted" horiz-adv-x="1040" 
d="M166 621v106h-152l58 152h94v55q0 289 92 407q111 139 323 139t311 -106t107 -330l-266 -10q-10 119 -40 166q-29 47 -103 47q-74 -1 -105 -73t-30 -252v-43h422l-58 -152h-364v-106h325l-57 -152h-266q6 -147 42 -205q37 -58 113 -57q76 0 112 38t42 120l256 -17
q-8 -194 -110 -284t-313 -90q-212 0 -318 119q-106 120 -113 376h-154l58 152h94z" />
    <glyph glyph-name="yen.fitted" horiz-adv-x="1046" 
d="M379 0v281h-252v151h252v103h-252v151h186l-327 776h305l233 -641l230 641h305l-328 -776h187v-151h-250v-103h250v-151h-250v-281h-289z" />
    <glyph glyph-name="one.numerator" horiz-adv-x="649" 
d="M231 586v661l-127 -49l-65 158l264 106h148v-876h-220z" />
    <glyph glyph-name="two.numerator" horiz-adv-x="649" 
d="M31 586v139l229 285q111 137 111 218t-62 81q-72 0 -80 -123l-200 8q1 283 283 283t282 -246q0 -93 -32 -155t-150 -206l-93 -114h271v-170h-559z" />
    <glyph glyph-name="three.numerator" horiz-adv-x="649" 
d="M190 975v145h84q96 0 97 99q0 88 -68 88t-80 -93l-196 7q8 119 51 170q72 84 233 84q276 0 277 -244q0 -125 -72 -180q92 -63 92 -205t-70 -207q-70 -66 -223 -66q-153 -1 -225 63t-76 204l203 12q6 -111 90 -111t84 103q0 131 -106 131h-95z" />
    <glyph glyph-name="four.numerator" horiz-adv-x="649" 
d="M367 586v141h-342v125l249 610h224l-234 -569h103v162h186v-162h72v-166h-72v-141h-186z" />
    <glyph glyph-name="five.numerator" horiz-adv-x="649" 
d="M578 1462v-170h-291l-13 -147q41 10 78 10q138 -1 194 -65t56 -222t-59 -219q-77 -76 -227 -76q-150 -1 -219 63t-70 202l200 14q8 -111 84 -111t76 117q0 76 -16 108q-17 32 -61 32t-79 -54l-163 31l32 487h478z" />
    <glyph glyph-name="six.numerator" horiz-adv-x="649" 
d="M324 1004q-44 0 -60 -29t-16 -106t16 -107t60 -29q44 0 59 29q16 30 16 106t-16 106t-59 30zM324 573q-156 0 -222 65t-65 220q0 90 14 141t64 138l186 325h252l-184 -307q171 0 218 -115q24 -59 23 -172q0 -160 -66 -228q-64 -68 -220 -67z" />
    <glyph glyph-name="seven.numerator" horiz-adv-x="649" 
d="M53 1292v170h522v-123l-245 -753h-240l258 706h-295z" />
    <glyph glyph-name="eight.numerator" horiz-adv-x="649" 
d="M325 967q-47 0 -65 -26q-18 -25 -18 -91t17 -92t65 -25q48 0 65 26q19 25 19 91t-18 92t-65 25zM399 1218q0 60 -16 84t-58 25q-42 0 -59 -23q-16 -24 -16 -85t16 -86t58 -25t59 25q16 25 16 85zM113 1053q-57 51 -57 177t62 185q64 59 208 59t205 -58q63 -60 63 -186
t-57 -177q81 -57 81 -207t-68 -211t-226 -61t-226 60q-68 62 -68 212t83 207z" />
    <glyph glyph-name="nine.numerator" horiz-adv-x="649" 
d="M399 1194q0 66 -16 94t-58 27q-41 0 -59 -27q-18 -28 -18 -96t17 -94t59 -27q42 0 58 28q17 29 17 95zM270 920q-96 0 -155 43q-78 55 -78 218q-1 163 65 229t222 65t222 -63t64 -208q0 -90 -12 -138t-55 -124l-197 -356h-252l193 334h-17z" />
    <glyph glyph-name="zero.numerator" horiz-adv-x="649" 
d="M401 911v226q0 98 -17 137t-59 39q-41 0 -59 -39t-18 -137v-226q0 -98 17 -137t59 -39t60 39q17 39 17 137zM33 905v238q0 180 66 256q67 76 226 76t225 -76t66 -256v-238q0 -180 -66 -256t-226 -76q-158 0 -225 76q-66 76 -66 256z" />
    <glyph glyph-name="one.denominator" horiz-adv-x="649" 
d="M231 0v662l-127 -50l-65 158l264 107h148v-877h-220z" />
    <glyph glyph-name="two.denominator" horiz-adv-x="649" 
d="M31 0v139l229 285q111 137 111 218t-62 81q-72 0 -80 -123l-200 8q1 283 283 283t282 -246q0 -93 -32 -155t-150 -205l-93 -115h271v-170h-559z" />
    <glyph glyph-name="three.denominator" horiz-adv-x="649" 
d="M190 387v145h84q96 0 97 101q0 88 -70 88q-35 0 -53 -22t-25 -72l-196 8q8 119 51 170q72 84 233 84q276 0 277 -246q0 -125 -72 -180q92 -63 92 -205t-72 -206t-222 -64q-152 0 -224 63t-76 201l203 12q6 -109 88 -108q86 0 86 102q0 129 -106 129h-95z" />
    <glyph glyph-name="four.denominator" horiz-adv-x="649" 
d="M367 0v141h-342v125l249 611h224l-234 -570h103v162h186v-162h72v-166h-72v-141h-186z" />
    <glyph glyph-name="five.denominator" horiz-adv-x="649" 
d="M578 877v-170h-291l-13 -148q43 8 78 8q138 0 194 -64t56 -221t-59 -219q-77 -75 -227 -75t-219 63t-70 201l200 14q8 -111 82 -110q78 0 78 116q0 76 -16 107q-15 31 -61 31t-79 -52l-163 31l32 488h478z" />
    <glyph glyph-name="six.denominator" horiz-adv-x="649" 
d="M399 282q0 76 -16 106t-59 30q-44 0 -60 -29t-16 -105t16 -107q16 -30 60 -30t59 29q16 29 16 106zM553 877l-184 -308q168 0 217 -113q25 -58 24 -171q0 -162 -66 -230q-66 -67 -220 -67q-156 0 -222 64t-65 220q0 90 14 142t64 137l186 326h252z" />
    <glyph glyph-name="seven.denominator" horiz-adv-x="649" 
d="M53 707v170h522v-123l-245 -754h-240l258 707h-295z" />
    <glyph glyph-name="eight.denominator" horiz-adv-x="649" 
d="M325 381q-47 0 -65 -26q-18 -25 -18 -91t17 -92t65 -25q48 0 65 26q19 25 19 91t-18 92t-65 25zM399 632q0 60 -16 84t-58 25q-42 0 -59 -23q-16 -24 -16 -85t16 -86t58 -25t59 25q16 25 16 85zM324 -12q-158 0 -226 61t-68 211t83 207q-57 51 -57 177t62 185
q64 59 208 59t205 -58q63 -60 63 -186t-57 -177q81 -57 81 -207t-68 -211t-226 -61z" />
    <glyph glyph-name="nine.denominator" horiz-adv-x="649" 
d="M399 608q0 66 -16 94t-58 27q-41 0 -59 -27q-18 -28 -18 -96t17 -94t59 -27q42 0 58 28q17 29 17 95zM270 334q-96 0 -155 43q-78 55 -78 218q-1 163 65 229t222 65t222 -63t64 -208q0 -90 -12 -138t-55 -124l-197 -356h-252l193 334h-17z" />
    <glyph glyph-name="zero.denominator" horiz-adv-x="649" 
d="M401 326v225q0 98 -17 137t-59 39q-41 0 -59 -39t-18 -137v-225q0 -98 17 -138t59 -38q42 0 60 39q17 39 17 137zM33 319v238q0 180 66 256q67 76 226 76t225 -76t66 -256v-238q0 -180 -66 -256q-66 -75 -226 -75q-158 0 -225 75q-66 76 -66 256z" />
    <glyph glyph-name="oneone" horiz-adv-x="1697" 
d="M449 0l405 1462h252l-406 -1462h-251zM1212 0v662l-127 -50l-65 158l264 107h148v-877h-220zM268 586v661l-127 -49l-65 158l264 106h147v-876h-219z" />
    <glyph glyph-name="Dotaccent" 
d="M379 1597v265h264v-265h-264z" />
    <glyph glyph-name="Ring" 
d="M598 1808q0 108 -86 109q-86 0 -86 -109t86 -108q86 0 86 108zM260 1811q0 105 68 168t184 63t184 -64t68 -168q0 -106 -70 -172t-182 -66t-182 68q-70 66 -70 171z" />
    <glyph glyph-name="Circumflex" 
d="M512 1753l-94 -156h-254l248 310h200l248 -310h-254z" />
    <glyph glyph-name="Breve" 
d="M511 1767q79 0 112 29t43 107h168q-4 -143 -39 -203q-70 -127 -291 -127t-289 147q-23 54 -27 183h168q10 -78 43 -107t112 -29z" />
    <glyph glyph-name="Tilde" 
d="M392 1905q90 1 152 -61t87 -62q43 0 55 108h162q-12 -125 -35 -178q-47 -125 -180 -125q-91 1 -149 63t-81 62q-53 1 -67 -110h-162q25 164 77 234t141 69z" />
    <glyph glyph-name="Cedilla" 
d="M348 -489l86 360h258l-160 -360h-184z" />
    <glyph glyph-name="Ogonek" 
d="M610 -217q0 -72 74 -72q53 0 113 25l28 -135q-90 -41 -198 -41q-258 0 -258 178q0 94 73 168q44 44 119 94h201l-17 -14q-79 -76 -107 -117t-28 -86z" />
    <glyph glyph-name="Commaaccent" 
d="M348 -489l86 360h258l-160 -360h-184z" />
    <glyph glyph-name="Comma.high" horiz-adv-x="299" 
d="M-8 924l63 573h256l-129 -573h-190z" />
    <glyph glyph-name="Croatumlaut" 
d="M467 1593h-188l-211 318h280zM793 1593h-189l-211 318h281z" />
    <glyph glyph-name="Croatbreve" 
d="M514 1729q-78 0 -112 -29t-44 -107h-168q8 150 37 203q74 127 294 127t288 -147q23 -54 27 -183h-168q-10 78 -43 107t-111 29z" />
    <glyph glyph-name="Cicumflexacute" 
d="M741 1745l136 287h278l-250 -320h-139l94 -115h-254l-94 156l-94 -156h-254l248 310h200z" />
    <glyph glyph-name="Ringacute" 
d="M401 1845l113 266h320l-256 -266h-177zM512 1462q86 0 86 110t-86 109q-86 1 -86 -109t86 -110zM512 1337q-112 0 -182 67t-70 172q0 106 68 168t184 62t184 -63t68 -169t-70 -171q-70 -66 -182 -66z" />
    <glyph glyph-name="croatumlaut" 
d="M467 1188h-188l-211 317h280zM793 1188h-189l-211 317h281z" />
    <glyph glyph-name="croatbreve" 
d="M514 1323q-78 0 -112 -29t-44 -106h-168q8 150 37 203q74 127 294 127t288 -148q23 -53 27 -182h-168q-10 78 -43 106t-111 29z" />
    <glyph glyph-name="cicumflexacute" 
d="M741 1337l136 287h278l-250 -319h-139l94 -115h-254l-94 156l-94 -156h-254l248 309h200z" />
    <glyph glyph-name="ringacute" 
d="M401 1673l113 266h320l-256 -266h-177zM512 1292q86 0 86 108t-86 109q-86 -1 -86 -109t86 -108zM512 1167q-112 0 -182 66t-70 171q0 106 68 168t184 62t184 -63t68 -167t-70 -171q-70 -66 -182 -66z" />
    <glyph glyph-name="Ohorn.sc" horiz-adv-x="1128" 
d="M651 440v252q0 135 -29 188q-30 52 -108 52t-108 -52t-31 -188v-252q0 -133 31 -186q32 -53 108 -53t107 53q30 53 30 186zM930 422q0 -227 -84 -326q-96 -116 -342 -116t-340 137q-68 98 -68 305v289q0 227 84 325q96 117 332 117q186 0 282 -68t126 -217q47 66 47 138
t-37 145h231q18 -55 19 -111q0 -193 -250 -342v-276z" />
    <glyph glyph-name="Uhorn.sc" horiz-adv-x="1220" 
d="M119 1133h278v-740q0 -111 27 -151q26 -40 100 -41q74 0 101 41t26 151v740h279v-324q131 76 131 201q0 70 -39 141h233q16 -57 17 -109q0 -166 -166 -290q-41 -33 -176 -111v-248q0 -121 -14 -183q-54 -230 -401 -230q-249 0 -343 139q-53 78 -53 274v740z" />
    <glyph glyph-name="uni1EA0.sc" horiz-adv-x="921" 
d="M328 -430v264h264v-264h-264zM571 416l-108 409l-109 -409h217zM623 209h-320l-55 -209h-305l383 1133h274l383 -1133h-305z" />
    <glyph glyph-name="uni1EA2.sc" horiz-adv-x="921" 
d="M551 1251h-182q2 100 10 132q9 32 39 71t31 57q-1 35 -41 35t-121 -37l-49 162q121 41 218 41t154 -49t58 -139q0 -43 -14 -68t-68 -82q-23 -26 -29 -48t-6 -75zM571 416l-108 409l-109 -409h217zM623 209h-320l-55 -209h-305l383 1133h274l383 -1133h-305z" />
    <glyph glyph-name="uni1EA4.sc" horiz-adv-x="921" 
d="M461 1333l-90 -108h-238l234 254h186l235 -254h-237zM375 1532l108 242h209l-170 -242h-147zM571 416l-108 409l-109 -409h217zM623 209h-320l-55 -209h-305l383 1133h274l383 -1133h-305z" />
    <glyph glyph-name="uni1EA6.sc" horiz-adv-x="921" 
d="M461 1333l-92 -108h-236l234 254h188l233 -254h-237zM541 1532h-146l-172 242h209zM571 416l-108 409l-109 -409h217zM623 209h-320l-55 -209h-305l383 1133h274l383 -1133h-305z" />
    <glyph glyph-name="uni1EA8.sc" horiz-adv-x="921" 
d="M459 1327l-90 -102h-238l236 231h186l235 -231h-237zM377 1487v14q-1 72 25 107t26 51t-24 16t-78 -26l-37 114q77 33 155 33t121 -37t43 -100q0 -29 -10 -46t-47 -54q-17 -19 -19 -72h-155zM571 416l-108 409l-109 -409h217zM623 209h-320l-55 -209h-305l383 1133h274
l383 -1133h-305z" />
    <glyph glyph-name="uni1EAA.sc" horiz-adv-x="921" 
d="M461 1333l-90 -108h-238l236 254h186l236 -254h-238zM553 1673q35 0 45 90h133q-14 -133 -54 -188t-118 -55t-125 50t-65 50t-35 -26t-23 -62h-131q20 133 64 188q44 56 116 56q74 0 124 -52t69 -51zM571 416l-108 409l-109 -409h217zM623 209h-320l-55 -209h-305
l383 1133h274l383 -1133h-305z" />
    <glyph glyph-name="uni1EAC.sc" horiz-adv-x="921" 
d="M328 -430v264h264v-264h-264zM461 1421l-96 -157h-252l247 311h199l250 -311h-254zM571 416l-108 409l-109 -409h217zM623 209h-320l-55 -209h-305l383 1133h274l383 -1133h-305z" />
    <glyph glyph-name="uni1EAE.sc" horiz-adv-x="921" 
d="M452 1214q-208 0 -270 138q-22 49 -26 168h157q10 -70 41 -96t106 -26q74 0 106 26t42 96h156q-4 -137 -35 -189q-69 -117 -277 -117zM375 1532l108 242h209l-170 -242h-147zM571 416l-108 409l-109 -409h217zM623 209h-320l-55 -209h-305l383 1133h274l383 -1133h-305z
" />
    <glyph glyph-name="uni1EB0.sc" horiz-adv-x="921" 
d="M452 1214q-208 0 -270 138q-22 49 -26 168h157q10 -70 41 -96t106 -26q74 0 106 26t42 96h156q-4 -137 -35 -189q-69 -117 -277 -117zM561 1532h-145l-172 242h209zM571 416l-108 409l-109 -409h217zM623 209h-320l-55 -209h-305l383 1133h274l383 -1133h-305z" />
    <glyph glyph-name="uni1EB2.sc" horiz-adv-x="921" 
d="M452 1214q-208 0 -270 138q-22 49 -26 168h153q10 -74 42 -101t109 -27q76 0 108 28t42 100h154q-4 -137 -35 -189q-69 -117 -277 -117zM379 1481q0 86 26 123t25 51q0 46 -102 -6l-37 116q75 33 153 33t122 -37t44 -102q0 -29 -9 -46t-46 -54q-18 -23 -20 -78h-156z
M571 416l-108 409l-109 -409h217zM623 209h-320l-55 -209h-305l383 1133h274l383 -1133h-305z" />
    <glyph glyph-name="uni1EB4.sc" horiz-adv-x="921" 
d="M450 1384q72 0 104 23t40 84h147q-4 -123 -34 -170q-63 -104 -264 -104t-261 122q-22 43 -26 152h149q8 -61 40 -84t105 -23zM358 1792q74 0 124 -50t69 -50q35 0 45 90h133q-10 -96 -29 -146q-41 -98 -147 -98q-72 0 -120 50t-66 50t-35 -24t-21 -64h-133q23 130 65 186
t115 56zM571 416l-108 409l-109 -409h217zM623 209h-320l-55 -209h-305l383 1133h274l383 -1133h-305z" />
    <glyph glyph-name="uni1EB6.sc" horiz-adv-x="921" 
d="M328 -430v264h264v-264h-264zM452 1239q-220 0 -288 147q-23 56 -27 185h168q10 -78 43 -108q33 -29 112 -29q80 0 112 28t42 109h168q-4 -94 -11 -132t-26 -73q-73 -127 -293 -127zM571 416l-108 409l-109 -409h217zM623 209h-320l-55 -209h-305l383 1133h274l383 -1133
h-305z" />
    <glyph glyph-name="uni1EB8.sc" horiz-adv-x="888" 
d="M350 -430v264h264v-264h-264zM125 0v1135h698v-222h-420v-231h355v-221h-355v-240h428v-221h-706z" />
    </font>
</defs>
</svg>
