<?xml version="1.0" encoding="UTF-8"?>
<svg xmlns="http://www.w3.org/2000/svg" xmlns:xlink="http://www.w3.org/1999/xlink" version="1.2" >
<font id="Bodoni URW Extra Narrow Medium Oblique">
<font-face  font-family="Bodoni URW Extra Narrow" units-per-em="1000" ascent="678" descent="-322" font-style="italic" font-weight="500" font-stretch="semi-condensed" cap-height="667" x-height="393" underline-position="-91" underline-thickness="69" />
<missing-glyph  horiz-adv-x="250" d="" />
<glyph glyph-name="NULL" d="" />
<glyph glyph-name="CR" unicode="&#xd;" horiz-adv-x="250" d="" />
<glyph glyph-name="space" unicode="&#x20;" horiz-adv-x="250" d="" />
<glyph glyph-name="exclam" unicode="&#x21;" horiz-adv-x="260" d="M108 228 L119 228 C143 339 163 392 236 545 C254 584 259 598 259 620 C259 657 238 679 204 679 C155 679 114 631 114 574 C114 567 114 557 115 545 C117 508 119 454 119 433 C119 356 115 322 97 228 L108 228 Z M90 147 C45 147 2 101 2 52 C2 18 24 -7 56 -7 C102 -7 144 39 144 88 C144 123 122 147 90 147 L90 147 Z " />
<glyph glyph-name="quotedbl" unicode="&#x22;" horiz-adv-x="271" d="M79 413 L106 413 L166 567 C178 596 183 618 183 634 C183 660 169 677 149 677 C112 677 86 634 84 567 L79 413 Z M199 413 L227 413 L287 567 C297 594 303 618 303 634 C303 660 289 677 269 677 C232 677 207 634 205 567 L199 413 Z " />
<glyph glyph-name="numbersign" unicode="&#x23;" horiz-adv-x="450" d="M227 444 L296 647 L199 647 L131 444 L56 444 L50 414 L120 414 L62 241 L-13 241 L-20 211 L52 211 L-20 0 L76 0 L148 211 L221 211 L149 0 L246 0 L317 211 L392 211 L397 241 L327 241 L386 414 L461 414 L466 444 L396 444 L465 647 L368 647 L300 444 L227 444 Z M217 414 L290 414 L231 241 L158 241 L217 414 Z " />
<glyph glyph-name="dollar" unicode="&#x24;" horiz-adv-x="450" d="M108 -99 L144 -99 L165 0 C217 4 261 22 300 56 C357 107 395 190 395 267 C395 315 378 358 351 379 C334 391 303 405 255 421 L301 637 C352 621 376 580 376 508 C376 501 376 493 375 479 L397 479 L433 650 L411 650 L382 621 C357 645 336 657 306 664 L324 747 L287 747 L270 666 C221 664 179 646 141 612 C88 565 53 489 53 421 C53 393 59 368 71 348 C86 323 102 312 146 295 L188 278 L134 27 C64 39 22 103 24 192 L2 192 L-36 16 L-14 16 L23 56 C55 25 88 8 129 2 L108 -99 Z M226 432 L219 434 C153 456 133 475 133 515 C133 581 194 637 270 641 L226 432 Z M222 267 C257 252 257 252 270 242 C289 229 298 207 298 177 C298 103 241 35 171 26 L222 267 Z " />
<glyph glyph-name="percent" unicode="&#x25;" horiz-adv-x="645" d="M218 650 C135 650 51 544 51 438 C51 368 92 316 147 316 C231 316 315 422 315 528 C315 599 274 650 218 650 L218 650 Z M214 628 C227 628 235 617 235 599 C235 565 220 483 203 419 C185 354 175 338 152 338 C138 338 131 348 131 368 C131 403 145 479 163 547 C180 610 192 628 214 628 L214 628 Z M534 643 L501 643 L105 0 L139 0 L534 643 Z M491 327 C408 327 324 221 324 116 C324 46 365 -6 420 -6 C504 -6 588 99 588 205 C588 276 548 327 491 327 L491 327 Z M487 305 C500 305 508 294 508 276 C508 242 493 161 476 97 C458 32 448 16 425 16 C411 16 404 26 404 45 C404 81 417 156 436 224 C453 286 465 305 487 305 L487 305 Z " />
<glyph glyph-name="ampersand" unicode="&#x26;" horiz-adv-x="565" d="M296 336 C345 357 366 368 388 385 C417 408 435 441 435 474 C435 524 391 557 323 557 C234 557 158 484 158 400 C158 374 163 352 177 310 C57 266 -19 183 -19 94 C-19 28 32 -18 104 -18 C161 -18 222 6 276 50 L293 0 L471 0 L477 25 L415 25 L373 140 C398 171 433 222 450 254 C475 302 486 311 523 310 L542 310 L547 336 L376 336 L370 310 L414 310 C439 310 443 308 443 296 C443 275 413 222 366 161 L296 336 Z M263 428 C262 431 259 457 259 467 C259 505 287 537 320 537 C342 537 355 520 355 492 C355 432 326 374 289 360 L263 428 Z M268 69 C240 44 212 30 187 30 C166 30 151 41 139 63 C125 89 112 148 112 186 C112 239 136 275 186 293 L268 69 Z " />
<glyph glyph-name="quotesingle" unicode="&#x27;" horiz-adv-x="150" d="M79 413 L106 413 L166 567 C178 596 183 618 183 634 C183 660 169 677 149 677 C112 677 86 634 84 567 L79 413 Z " />
<glyph glyph-name="parenleft" unicode="&#x28;" horiz-adv-x="269" d="M139 -173 C115 -102 106 -50 106 22 C106 115 125 231 157 336 C199 470 249 573 316 661 L303 677 C206 599 143 530 91 446 C31 347 -2 240 -2 138 C-2 18 36 -85 119 -190 L139 -173 Z " />
<glyph glyph-name="parenright" unicode="&#x29;" horiz-adv-x="269" d="M92 661 C116 586 124 537 124 465 C124 368 106 256 73 151 C31 16 -17 -82 -85 -173 L-72 -190 C30 -106 87 -44 138 40 C200 140 233 248 233 347 C233 417 216 493 187 558 C168 599 151 627 112 677 L92 661 Z " />
<glyph glyph-name="asterisk" unicode="&#x2a;" horiz-adv-x="450" d="M251 502 C176 562 158 574 142 574 C120 574 98 549 98 523 C98 495 118 489 240 480 C124 389 112 377 112 352 C112 334 125 320 141 320 C166 320 184 344 253 466 C275 330 278 320 304 320 C327 320 350 345 350 369 C350 386 328 417 273 480 C361 487 388 490 405 496 C424 503 437 522 437 543 C437 561 426 574 410 574 C395 574 358 555 271 502 C315 604 327 635 327 651 C327 668 316 680 299 680 C282 680 267 670 259 653 C252 639 250 615 250 544 C250 531 250 521 251 502 L251 502 Z " />
<glyph glyph-name="plus" unicode="&#x2b;" horiz-adv-x="450" d="M204 307 L166 128 L199 128 L237 307 L404 307 L411 340 L244 340 L282 519 L249 519 L211 340 L41 340 L34 307 L204 307 Z " />
<glyph glyph-name="comma" unicode="&#x2c;" horiz-adv-x="234" d="M-13 -172 C38 -133 63 -109 87 -76 C119 -31 137 17 137 60 C137 111 107 147 65 147 C19 147 -24 101 -24 52 C-24 19 -3 -5 26 -5 C51 -5 73 9 92 35 C86 -37 48 -98 -24 -151 L-13 -172 Z " />
<glyph glyph-name="hyphen" unicode="&#x2d;" horiz-adv-x="194" d="M-17 250 L-35 167 L159 167 L176 250 L-17 250 Z " />
<glyph glyph-name="period" unicode="&#x2e;" horiz-adv-x="234" d="M78 147 C33 147 -10 101 -10 52 C-10 18 12 -7 44 -7 C90 -7 132 39 132 88 C132 123 110 147 78 147 L78 147 Z " />
<glyph glyph-name="slash" unicode="&#x2f;" horiz-adv-x="395" d="M439 667 L353 667 L-151 -180 L-64 -180 L439 667 Z " />
<glyph glyph-name="zero" unicode="0" horiz-adv-x="450" d="M294 654 C159 654 16 424 16 209 C16 82 73 -10 151 -10 C286 -10 429 220 429 435 C429 562 372 654 294 654 L294 654 Z M289 627 C309 627 323 606 323 574 C323 497 270 238 228 105 C208 44 187 17 157 17 C135 17 122 38 122 70 C122 147 175 407 217 539 C237 601 258 627 289 627 L289 627 Z " />
<glyph glyph-name="one" unicode="1" horiz-adv-x="450" d="M103 25 L21 25 L16 0 L325 0 L330 25 L235 25 L371 662 C337 652 273 644 230 644 L176 644 L153 644 L147 616 L228 616 L103 25 Z " />
<glyph glyph-name="two" unicode="2" horiz-adv-x="450" d="M373 208 L349 208 C325 114 324 113 279 113 L52 113 C80 134 80 134 139 175 C234 242 269 270 316 315 C400 397 432 454 432 521 C432 599 376 654 297 654 C179 654 69 553 69 446 C69 408 90 383 120 383 C155 383 189 421 189 461 C189 490 170 510 142 510 L136 510 C132 509 129 509 127 509 C122 509 120 512 120 517 C120 524 125 535 135 550 C163 590 196 611 228 611 C265 611 291 576 291 526 C291 446 261 367 204 299 C149 231 84 169 -27 76 L-43 0 L319 0 L373 208 Z " />
<glyph glyph-name="three" unicode="3" horiz-adv-x="450" d="M107 334 C124 335 132 335 139 335 C206 335 238 307 238 248 C238 217 226 159 211 119 C186 54 148 18 104 18 C78 18 53 33 53 49 C53 56 55 60 64 67 C90 86 105 116 105 146 C105 177 87 197 61 197 C22 197 -13 152 -13 102 C-13 36 39 -10 115 -10 C252 -10 376 100 376 222 C376 300 318 347 221 350 C336 375 414 453 414 545 C414 610 358 654 275 654 C180 654 100 592 100 517 C100 488 116 468 137 468 C177 468 205 501 205 546 C205 565 201 578 194 587 C190 591 189 592 189 595 C189 611 221 629 250 629 C273 629 288 609 288 576 C288 532 271 463 251 426 C228 384 193 363 142 363 C136 363 127 363 113 365 L107 334 Z " />
<glyph glyph-name="four" unicode="4" horiz-adv-x="450" d="M181 170 L150 25 L84 25 L79 0 L325 0 L331 25 L277 25 L308 170 L344 170 C367 170 371 167 371 151 C371 146 370 139 368 128 L361 96 L387 96 L424 267 L397 267 L393 246 C385 207 378 199 350 200 L314 200 L409 643 L334 643 L-16 200 L-22 170 L181 170 Z M188 200 L15 200 L253 508 L188 200 Z " />
<glyph glyph-name="five" unicode="5" horiz-adv-x="450" d="M150 528 L342 528 C379 527 391 535 415 573 C432 603 445 637 453 674 L428 674 C422 651 410 642 388 643 L203 643 C165 644 150 631 139 584 L77 350 L99 334 C129 354 155 364 178 364 C221 364 250 318 250 252 C250 132 182 15 112 15 C87 15 54 34 54 49 C54 53 57 58 63 61 C93 79 111 109 111 143 C111 173 92 195 64 195 C24 195 -14 146 -14 94 C-14 34 39 -10 110 -10 C258 -10 383 106 383 244 C383 335 314 397 213 397 C175 397 141 388 106 370 L150 528 Z " />
<glyph glyph-name="six" unicode="6" horiz-adv-x="450" d="M438 671 C375 671 327 657 273 621 C118 520 17 349 17 188 C17 73 76 -10 157 -10 C281 -10 403 137 403 284 C403 366 353 425 283 425 C248 425 209 406 177 374 C216 521 321 632 432 645 L438 671 Z M258 392 C280 392 291 376 291 344 C291 297 275 209 253 132 C229 49 205 17 166 17 C139 17 125 37 125 78 C125 138 148 254 171 310 C192 361 225 392 258 392 L258 392 Z " />
<glyph glyph-name="seven" unicode="7" horiz-adv-x="450" d="M75 431 L102 431 L121 471 C146 524 154 530 204 530 L403 530 C200 249 117 106 117 38 C117 4 134 -16 163 -16 C186 -16 209 2 224 30 C233 48 237 63 245 118 C264 261 299 335 466 583 C487 615 489 618 489 627 C489 641 483 643 452 643 L171 643 L75 431 Z " />
<glyph glyph-name="eight" unicode="8" horiz-adv-x="450" d="M284 336 C385 375 445 445 445 524 C445 599 381 654 293 654 C179 654 74 563 74 463 C74 407 104 366 168 336 C60 304 -15 220 -15 132 C-15 49 55 -10 153 -10 C278 -10 394 89 394 196 C394 260 353 313 284 336 L284 336 Z M289 627 C310 627 322 610 322 580 C322 552 306 467 292 421 C277 370 259 350 229 350 C206 350 195 364 195 393 C195 421 209 493 225 550 C239 602 260 627 289 627 L289 627 Z M225 321 C252 321 267 300 267 262 C267 224 250 134 234 91 C216 41 192 17 160 17 C132 17 117 38 117 76 C117 112 134 199 150 244 C168 295 193 321 225 321 L225 321 Z " />
<glyph glyph-name="nine" unicode="9" horiz-adv-x="450" d="M-10 -43 C89 -39 174 2 260 88 C369 198 430 326 430 448 C430 569 368 654 280 654 C224 654 163 618 111 554 C66 499 42 436 42 373 C42 281 92 218 165 218 C202 218 235 232 271 264 C217 95 132 8 -4 -17 L-10 -43 Z M280 627 C306 627 321 605 321 567 C321 526 300 415 281 350 C262 288 230 252 194 252 C170 252 157 272 157 309 C157 349 171 427 192 509 C214 592 240 627 280 627 L280 627 Z " />
<glyph glyph-name="colon" unicode="&#x3a;" horiz-adv-x="234" d="M78 147 C33 147 -10 101 -10 52 C-10 18 12 -7 44 -7 C90 -7 132 39 132 88 C132 123 110 147 78 147 L78 147 Z M132 400 C86 400 44 354 44 305 C44 271 66 246 98 246 C143 246 186 292 186 341 C186 376 164 400 132 400 L132 400 Z " />
<glyph glyph-name="semicolon" unicode="&#x3b;" horiz-adv-x="234" d="M118 400 C73 400 30 354 30 305 C30 271 52 246 84 246 C130 246 172 292 172 341 C172 376 150 400 118 400 L118 400 Z M-13 -172 C38 -133 63 -109 88 -76 C120 -31 138 17 138 60 C138 111 108 147 66 147 C19 147 -24 101 -24 53 C-24 19 -3 -5 26 -5 C51 -5 74 9 92 35 C86 -37 48 -98 -24 -151 L-13 -172 Z " />
<glyph glyph-name="less" unicode="&#x3c;" horiz-adv-x="450" d="M468 607 L41 340 L40 334 L352 61 L369 140 L119 360 L462 577 L468 607 Z " />
<glyph glyph-name="equal" unicode="&#x3d;" horiz-adv-x="450" d="M29 280 L22 247 L392 247 L399 280 L29 280 Z M54 400 L48 367 L418 367 L425 400 L54 400 Z " />
<glyph glyph-name="greater" unicode="&#x3e;" horiz-adv-x="450" d="M-18 61 L409 328 L410 333 L98 607 L81 527 L332 307 L-12 91 L-18 61 Z " />
<glyph glyph-name="question" unicode="&#x3f;" horiz-adv-x="355" d="M117 205 C123 257 146 288 203 322 C254 353 283 377 311 411 C347 454 369 507 369 552 C369 626 319 679 248 679 C164 679 70 601 70 531 C70 505 85 488 109 488 C145 488 178 519 178 554 C178 572 170 586 152 597 C143 603 143 604 143 606 C143 623 200 652 233 652 C270 652 295 626 295 590 C295 557 278 531 236 494 C136 409 97 336 97 237 C97 226 97 219 99 205 L117 205 Z M102 147 C57 147 14 101 14 52 C14 18 36 -7 68 -7 C114 -7 156 39 156 88 C156 123 134 147 102 147 L102 147 Z " />
<glyph glyph-name="at" unicode="&#x40;" horiz-adv-x="685" d="M461 494 L442 447 C438 488 421 506 386 506 C277 506 157 366 157 240 C157 182 185 148 232 148 C275 148 309 170 353 227 C351 212 350 203 350 196 C350 164 367 148 403 148 C450 148 504 175 554 223 C619 286 654 368 654 455 C654 580 559 671 430 671 C229 671 38 463 38 243 C38 93 136 -13 276 -13 C371 -13 445 19 517 93 L470 93 C417 49 356 27 287 27 C167 27 82 120 82 250 C82 447 246 630 422 630 C527 630 610 548 610 444 C610 385 586 317 547 264 C516 223 467 187 442 187 C436 187 434 189 434 194 C434 198 435 203 438 209 L553 494 L461 494 Z M390 484 C410 484 423 463 423 428 C423 388 389 305 349 247 C319 203 281 173 254 173 C245 173 239 179 239 189 C239 210 263 275 301 359 C344 453 366 484 390 484 L390 484 Z " />
<glyph glyph-name="A" unicode="A" horiz-adv-x="564" d="M297 179 L314 25 L236 25 L231 0 L499 0 L505 25 L441 25 L373 667 L344 667 L31 82 C6 31 -3 24 -44 25 L-75 25 L-80 0 L106 0 L111 25 L63 25 C42 25 36 28 36 36 C36 42 38 47 49 67 L109 179 L297 179 Z M294 204 L122 204 L264 469 L294 204 Z " />
<glyph glyph-name="B" unicode="B" horiz-adv-x="588" d="M31 25 L-39 25 L-44 0 L231 0 C295 0 327 2 352 8 C399 19 437 41 467 75 C501 114 522 167 522 216 C522 260 503 296 468 321 C444 338 423 344 378 348 C424 353 458 367 491 394 C537 431 565 486 565 538 C565 598 537 637 480 657 C455 666 439 667 360 667 L98 667 L92 642 L162 642 L31 25 Z M242 358 L302 642 L355 642 C412 642 428 628 428 580 C428 543 414 472 398 434 C376 377 350 358 297 358 L242 358 Z M171 25 L236 333 L292 333 C333 333 341 331 352 321 C366 309 373 288 373 258 C373 185 340 80 306 46 C288 28 277 25 236 25 L171 25 Z " />
<glyph glyph-name="C" unicode="C" horiz-adv-x="557" d="M576 667 L552 667 L527 626 C499 665 457 684 402 684 C209 684 22 460 22 227 C22 82 113 -17 245 -17 C305 -17 347 0 401 48 L416 0 L440 0 L487 186 L463 186 C411 74 337 10 260 10 C199 10 167 50 167 127 C167 168 174 211 200 327 C233 478 243 512 269 562 C301 623 352 657 412 657 C484 657 522 606 522 508 L522 493 L546 493 L576 667 Z " />
<glyph glyph-name="D" unicode="D" horiz-adv-x="641" d="M31 25 L-39 25 L-44 0 L246 0 C314 0 332 1 356 7 C404 20 452 52 493 98 C571 187 618 317 618 444 C618 519 593 588 550 627 C515 660 488 667 387 667 L98 667 L92 642 L162 642 L31 25 Z M171 25 L302 642 L383 642 C418 642 433 638 446 624 C462 606 470 577 470 537 C470 491 462 438 440 334 C409 189 390 132 357 80 C330 39 304 25 252 25 L171 25 Z " />
<glyph glyph-name="E" unicode="E" horiz-adv-x="564" d="M33 25 L-39 25 L-44 0 L449 0 L507 212 L483 212 C423 65 371 23 250 25 L173 25 L237 326 L258 326 C314 326 339 306 339 262 L339 258 L339 249 C338 238 337 228 331 197 L353 197 L411 469 L389 469 C371 383 336 349 266 351 L243 351 L304 642 L400 642 C460 642 482 635 501 611 C517 590 525 560 525 517 L525 497 L549 497 L571 667 L98 667 L92 642 L164 642 L33 25 Z " />
<glyph glyph-name="F" unicode="F" horiz-adv-x="512" d="M27 25 L-45 25 L-50 0 L240 0 L245 25 L167 25 L231 326 L261 326 C319 326 342 307 342 258 C342 242 340 226 335 197 L359 197 L417 469 L393 469 C375 384 339 349 268 351 L237 351 L298 642 L376 642 C426 642 443 638 464 623 C494 601 513 553 513 498 C513 493 513 484 512 474 L536 474 L568 667 L92 667 L86 642 L158 642 L27 25 Z " />
<glyph glyph-name="G" unicode="G" horiz-adv-x="595" d="M580 667 L556 667 L522 635 C486 667 443 684 395 684 C198 684 19 465 19 225 C19 154 37 96 73 54 C110 11 171 -17 228 -17 C267 -17 312 -8 353 9 C404 29 440 53 501 109 L525 224 L565 224 L571 249 L301 249 L296 224 L385 224 L361 109 C349 52 296 10 237 10 C186 10 157 37 157 83 C157 119 174 221 202 355 C230 492 257 572 287 607 C314 639 355 657 400 657 C476 657 518 610 518 522 C518 514 518 501 516 480 L540 480 L580 667 Z " />
<glyph glyph-name="H" unicode="H" horiz-adv-x="660" d="M33 25 L-39 25 L-44 0 L235 0 L240 25 L173 25 L238 330 L420 330 L355 25 L288 25 L283 0 L562 0 L567 25 L495 25 L626 642 L698 642 L703 667 L424 667 L419 642 L486 642 L425 355 L243 355 L304 642 L371 642 L377 667 L98 667 L92 642 L164 642 L33 25 Z " />
<glyph glyph-name="I" unicode="I" horiz-adv-x="338" d="M33 25 L-39 25 L-44 0 L240 0 L245 25 L173 25 L304 642 L376 642 L382 667 L98 667 L92 642 L164 642 L33 25 Z " />
<glyph glyph-name="J" unicode="J" horiz-adv-x="401" d="M250 642 L125 54 C113 -4 105 -26 91 -46 C77 -65 62 -76 51 -76 C41 -76 35 -70 35 -60 C35 -54 37 -47 41 -39 C52 -15 57 1 57 16 C57 44 37 64 9 64 C-33 64 -69 22 -69 -27 C-69 -73 -31 -103 26 -103 C86 -103 160 -71 206 -25 C247 17 266 60 286 151 L390 642 L430 642 L435 667 L183 667 L178 642 L250 642 Z " />
<glyph glyph-name="K" unicode="K" horiz-adv-x="626" d="M33 25 L-39 25 L-44 0 L226 0 L231 25 L173 25 L304 642 L362 642 L368 667 L98 667 L92 642 L164 642 L33 25 Z M354 427 L533 596 C574 635 589 643 629 642 L648 642 L653 667 L452 667 L446 642 L495 642 C515 642 523 639 523 632 C523 625 520 621 506 607 L234 347 L364 25 L293 25 L288 0 L555 0 L560 25 L516 25 L354 427 Z " />
<glyph glyph-name="L" unicode="L" horiz-adv-x="524" d="M33 25 L-39 25 L-44 0 L414 0 L476 210 L452 210 C402 88 321 19 232 25 L173 25 L304 642 L362 642 L368 667 L98 667 L92 642 L164 642 L33 25 Z " />
<glyph glyph-name="M" unicode="M" horiz-adv-x="708" d="M158 642 L43 97 C30 33 23 25 -21 25 L-45 25 L-50 0 L121 0 L126 25 L104 25 C74 25 65 30 65 49 C65 57 67 73 73 97 L188 642 L220 0 L240 0 L533 635 L403 25 L336 25 L331 0 L610 0 L615 25 L543 25 L674 642 L746 642 L751 667 L523 667 L334 254 L313 667 L92 667 L86 642 L158 642 Z " />
<glyph glyph-name="N" unicode="N" horiz-adv-x="623" d="M435 -7 L458 -7 L580 570 C593 634 600 642 644 642 L668 642 L673 667 L502 667 L497 642 L519 642 C550 642 558 637 558 618 C558 609 556 598 550 570 L480 241 L286 667 L92 667 L86 642 L109 642 C140 642 148 637 148 618 C148 609 146 599 140 570 L40 97 C27 33 20 24 -22 25 L-45 25 L-50 0 L133 0 L138 25 L103 25 C71 25 62 30 62 49 C62 57 64 73 70 97 L173 585 L435 -7 Z " />
<glyph glyph-name="O" unicode="O" horiz-adv-x="659" d="M404 684 C308 684 218 639 144 553 C69 467 25 353 25 247 C25 88 115 -17 251 -17 C351 -17 439 27 514 114 C589 202 633 314 633 420 C633 581 544 684 404 684 L404 684 Z M397 657 C457 657 488 621 488 552 C488 475 451 281 416 171 C379 56 334 10 258 10 C201 10 170 47 170 115 C170 193 206 386 242 496 C278 610 324 657 397 657 L397 657 Z " />
<glyph glyph-name="P" unicode="P" horiz-adv-x="563" d="M33 25 L-39 25 L-44 0 L235 0 L240 25 L173 25 L234 312 L290 312 C357 312 395 315 421 321 C467 332 503 355 534 394 C565 435 582 483 582 531 C582 565 572 598 553 620 C523 658 485 667 365 667 L98 667 L92 642 L164 642 L33 25 Z M240 337 L304 642 L358 642 C417 642 437 626 437 578 C437 533 419 447 401 406 C379 357 348 337 295 337 L240 337 Z " />
<glyph glyph-name="Q" unicode="Q" horiz-adv-x="659" d="M189 -24 C179 -76 177 -91 177 -112 C177 -153 195 -181 236 -203 C276 -225 322 -233 405 -233 C422 -233 432 -233 456 -231 L462 -202 C434 -204 431 -204 423 -204 C341 -204 305 -177 305 -113 C305 -84 308 -60 319 -10 C491 29 634 224 634 420 C634 581 544 684 405 684 C308 684 219 639 145 553 C69 465 26 354 26 247 C26 114 89 17 192 -9 L189 -24 Z M398 657 C458 657 489 621 489 552 C489 475 452 281 417 171 C380 56 335 10 259 10 C202 10 171 47 171 115 C171 193 207 386 243 496 C279 610 325 657 398 657 L398 657 Z " />
<glyph glyph-name="R" unicode="R" horiz-adv-x="621" d="M33 25 L-39 25 L-44 0 L226 0 L231 25 L173 25 L241 343 L281 343 C340 343 357 326 357 268 C357 246 355 226 349 192 C341 141 339 126 339 103 C339 31 370 -4 436 -4 C465 -4 499 3 536 18 L542 44 C522 36 508 33 496 33 C476 33 463 47 463 69 C463 84 466 101 474 134 C482 165 484 181 484 204 C484 283 436 339 356 355 C427 359 451 366 487 391 C540 429 571 488 571 550 C571 582 561 608 541 628 C510 659 474 667 363 667 L98 667 L92 642 L164 642 L33 25 Z M246 368 L304 642 L358 642 C417 642 434 628 434 580 C434 550 422 488 407 448 C386 387 360 368 300 368 L246 368 Z " />
<glyph glyph-name="S" unicode="S" horiz-adv-x="477" d="M463 667 L439 667 L407 636 C372 669 339 684 297 684 C175 684 63 560 63 425 C63 386 74 354 94 331 C112 312 112 312 204 275 C279 246 283 244 298 230 C312 215 320 193 320 166 C320 86 245 10 166 10 C83 10 33 77 33 186 L9 186 L-30 0 L-7 0 L32 42 C77 1 119 -17 172 -17 C303 -17 422 117 422 264 C422 298 414 331 399 355 C382 384 361 396 277 426 C200 454 193 457 179 472 C167 485 161 501 161 521 C161 593 224 657 294 657 C362 657 402 605 402 518 C402 509 402 503 401 487 L425 487 L463 667 Z " />
<glyph glyph-name="T" unicode="T" horiz-adv-x="574" d="M151 25 L70 25 L65 0 L367 0 L372 25 L291 25 L422 642 L456 642 C505 642 525 636 543 615 C562 593 572 556 572 513 C572 497 571 486 568 462 L592 462 L624 667 L91 667 L36 462 L60 462 C97 588 164 649 258 642 L282 642 L151 25 Z " />
<glyph glyph-name="U" unicode="U" horiz-adv-x="602" d="M156 642 L65 213 C51 150 48 130 48 112 C48 34 124 -17 239 -17 C310 -17 375 7 417 48 C456 86 469 117 490 213 L566 570 C579 634 586 642 630 642 L653 642 L658 667 L487 667 L482 642 L504 642 C535 642 543 637 543 618 C543 610 540 591 536 570 L460 214 C444 138 432 106 408 76 C379 39 334 18 282 18 C225 18 188 51 188 103 C188 127 192 153 205 213 L296 642 L363 642 L368 667 L89 667 L84 642 L156 642 Z " />
<glyph glyph-name="V" unicode="V" horiz-adv-x="559" d="M249 642 L321 642 L326 667 L66 667 L61 642 L117 642 L207 -13 L230 -13 L533 580 C556 627 575 642 612 642 L627 642 L632 667 L459 667 L454 642 L478 642 C516 642 524 639 524 626 C524 620 522 613 515 601 L310 197 L249 642 Z " />
<glyph glyph-name="W" unicode="W" horiz-adv-x="809" d="M621 642 L671 642 L676 667 L69 667 L64 642 L125 642 L208 -13 L228 -13 L412 292 L452 -13 L477 -13 L782 579 C807 628 824 641 860 642 L877 642 L882 667 L716 667 L710 642 L741 642 C767 642 773 639 773 626 C773 618 773 617 760 592 L555 192 L518 469 L621 642 Z M597 642 L512 510 L490 642 L597 642 Z M366 642 L406 333 L313 179 L254 642 L366 642 Z " />
<glyph glyph-name="X" unicode="X" horiz-adv-x="559" d="M225 304 L44 78 C10 34 -6 25 -55 25 L-69 25 L-74 0 L117 0 L122 25 L89 25 C63 25 52 29 52 39 C52 46 58 57 74 77 L233 275 L305 25 L234 25 L228 0 L497 0 L502 25 L449 25 L338 405 L487 592 C522 636 531 641 574 642 L586 642 L591 667 L421 667 L415 642 L444 642 C473 642 479 640 479 631 C479 624 474 613 462 598 L330 434 L267 642 L327 642 L332 667 L68 667 L62 642 L125 642 L225 304 Z " />
<glyph glyph-name="Y" unicode="Y" horiz-adv-x="539" d="M143 25 L62 25 L57 0 L359 0 L364 25 L283 25 L343 307 L518 590 C544 632 557 641 594 642 L610 642 L616 667 L442 667 L436 642 L481 642 C505 642 509 640 509 630 C509 623 508 621 494 598 L344 351 L252 642 L323 642 L328 667 L51 667 L46 642 L101 642 L203 307 L143 25 Z " />
<glyph glyph-name="Z" unicode="Z" horiz-adv-x="507" d="M-46 32 L-53 0 L394 0 L445 213 L421 213 C371 83 288 17 186 25 L90 25 L531 648 L536 667 L130 667 L82 490 L106 490 C151 600 219 649 316 642 L385 642 L-46 32 Z " />
<glyph glyph-name="bracketleft" unicode="&#x5b;" horiz-adv-x="269" d="M-52 -180 L140 -180 L146 -155 L58 -155 L228 642 L315 642 L320 667 L128 667 L-52 -180 Z " />
<glyph glyph-name="backslash" unicode="&#x5c;" horiz-adv-x="396" d="M98 667 L242 -180 L328 -180 L184 667 L98 667 Z " />
<glyph glyph-name="bracketright" unicode="&#x5d;" horiz-adv-x="269" d="M283 667 L91 667 L86 642 L173 642 L4 -155 L-84 -155 L-89 -180 L103 -180 L283 667 Z " />
<glyph glyph-name="asciicircum" unicode="&#x5e;" horiz-adv-x="450" d="M465 280 L316 700 L309 700 L-38 280 L102 280 L318 542 L412 280 L465 280 Z " />
<glyph glyph-name="underscore" unicode="&#x5f;" horiz-adv-x="498" d="M-80 -91 L-95 -160 L383 -160 L397 -91 L-80 -91 Z " />
<glyph glyph-name="grave" unicode="&#x60;" horiz-adv-x="468" d="M270 621 L173 621 L168 596 L302 471 L321 480 L270 621 Z " />
<glyph glyph-name="a" unicode="a" horiz-adv-x="412" d="M336 56 C326 46 318 41 309 41 C301 41 296 47 296 57 C296 61 296 63 300 81 L339 263 C346 296 349 315 349 325 C349 372 299 403 222 403 C129 403 49 349 49 287 C49 264 62 249 81 249 C103 249 128 266 137 288 C141 298 144 315 145 333 C146 350 147 354 151 359 C159 369 179 376 201 376 C228 376 241 365 241 342 C241 331 240 328 226 258 L221 233 C145 226 97 213 53 185 C2 154 -27 108 -27 60 C-27 17 2 -10 50 -10 C97 -10 142 13 183 56 C193 19 219 -5 250 -5 C283 -5 317 11 347 40 L336 56 Z M204 156 C187 73 166 42 128 42 C106 42 92 62 92 92 C92 161 140 205 215 206 L204 156 Z " />
<glyph glyph-name="b" unicode="b" horiz-adv-x="489" d="M-5 25 L-63 25 L-68 0 L110 0 L123 59 C144 12 176 -10 226 -10 C278 -10 327 16 367 65 C412 120 438 189 438 253 C438 345 389 403 313 403 C264 403 220 379 180 330 L254 678 C210 670 179 667 101 667 L74 667 L68 642 L126 642 L-5 25 Z M284 373 C308 373 323 355 323 325 C323 291 296 160 275 93 C259 40 239 20 203 20 C165 20 137 61 137 116 C137 163 151 226 171 275 C196 334 241 373 284 373 L284 373 Z " />
<glyph glyph-name="c" unicode="c" horiz-adv-x="388" d="M312 118 C270 54 224 20 177 20 C137 20 115 44 115 89 C115 128 126 188 146 259 C169 345 197 376 249 376 C271 376 281 371 292 355 C262 337 243 305 243 276 C243 250 262 231 288 231 C326 231 361 270 361 312 C361 365 312 403 245 403 C115 403 -6 279 -6 145 C-6 55 59 -10 150 -10 C219 -10 282 30 331 106 L312 118 Z " />
<glyph glyph-name="d" unicode="d" horiz-adv-x="471" d="M217 0 L397 0 L403 25 L343 25 L481 678 C440 670 409 667 333 667 L311 667 L306 642 L354 642 L288 335 C267 383 241 403 200 403 C96 403 -7 270 -7 136 C-7 50 42 -10 113 -10 C157 -10 194 12 230 60 L217 0 Z M226 373 C253 373 275 337 275 293 C275 164 211 21 153 21 C130 21 116 41 116 73 C116 133 134 235 156 293 C174 345 200 373 226 373 L226 373 Z " />
<glyph glyph-name="e" unicode="e" horiz-adv-x="396" d="M351 221 C356 242 357 252 357 267 C357 349 305 403 228 403 C103 403 -6 282 -6 144 C-6 56 58 -10 143 -10 C211 -10 271 29 327 110 L308 121 C262 55 213 20 164 20 C125 20 102 44 102 85 C102 101 102 101 123 199 L127 221 L351 221 Z M133 246 L139 274 C148 318 153 335 161 348 C173 367 191 376 217 376 C247 376 262 363 262 338 C262 324 260 310 252 274 L246 246 L133 246 Z " />
<glyph glyph-name="f" unicode="f" horiz-adv-x="286" d="M6 25 L-54 25 L-59 0 L191 0 L197 25 L126 25 L199 368 L269 368 L275 393 L205 393 L239 555 C247 594 253 613 262 625 C272 638 284 647 295 647 C304 647 309 642 309 634 C309 630 308 629 303 620 C295 606 290 591 290 579 C290 559 304 545 324 545 C355 545 383 577 383 614 C383 650 357 674 318 674 C264 674 204 641 161 589 C128 548 108 501 92 426 L85 393 L25 393 L19 368 L79 368 L6 25 Z " />
<glyph glyph-name="g" unicode="g" horiz-adv-x="444" d="M140 35 L66 35 L55 35 C29 35 19 42 19 58 C19 84 53 114 96 127 C120 112 145 106 173 106 C274 106 362 189 362 286 C362 301 360 311 354 327 C357 339 362 345 368 345 C371 345 373 344 375 340 C382 328 390 323 403 323 C426 323 447 347 447 375 C447 394 433 408 413 408 C386 408 363 390 341 350 C313 387 278 403 228 403 C126 403 34 320 34 227 C34 192 46 166 75 141 C8 121 -44 60 -44 0 C-44 -38 -27 -61 10 -73 C-46 -88 -80 -125 -80 -172 C-80 -231 -15 -271 81 -271 C221 -271 327 -178 327 -55 C327 7 294 36 224 36 L140 35 Z M162 292 C175 353 192 376 223 376 C244 376 255 363 255 338 C255 327 254 318 248 292 L232 217 C219 156 203 133 171 133 C152 133 140 147 140 171 C140 182 142 198 146 217 L162 292 Z M246 -81 C277 -81 291 -92 291 -117 C291 -186 199 -244 88 -244 C11 -244 -35 -214 -35 -163 C-35 -133 -20 -106 12 -81 L246 -81 Z " />
<glyph glyph-name="h" unicode="h" horiz-adv-x="493" d="M3 25 L-57 25 L-62 0 L154 0 L159 25 L123 25 L160 196 C171 249 182 279 198 304 C221 338 254 360 283 360 C304 360 317 346 317 325 C317 316 315 302 308 271 L256 25 L208 25 L203 0 L419 0 L424 25 L376 25 L428 271 C434 297 437 320 437 331 C437 377 402 403 343 403 C285 403 239 380 187 326 L262 678 C218 670 186 667 108 667 L80 667 L74 642 L134 642 L3 25 Z " />
<glyph glyph-name="i" unicode="i" horiz-adv-x="252" d="M-2 25 L-50 25 L-55 0 L173 0 L178 25 L118 25 L199 404 C157 396 127 393 51 393 L29 393 L23 368 L71 368 L-2 25 Z M184 636 C141 636 101 597 101 555 C101 525 124 502 154 502 C197 502 237 541 237 583 C237 614 214 636 184 636 L184 636 Z " />
<glyph glyph-name="j" unicode="j" horiz-adv-x="222" d="M58 368 L-51 -144 C-68 -227 -75 -243 -93 -243 C-99 -243 -103 -240 -103 -234 L-103 -232 L-102 -227 C-102 -227 -102 -225 -101 -223 C-101 -215 -100 -210 -99 -206 C-96 -191 -96 -191 -96 -186 C-96 -167 -109 -153 -126 -153 C-152 -153 -179 -185 -179 -215 C-179 -248 -152 -270 -112 -270 C-57 -270 -5 -233 39 -162 C69 -115 86 -67 104 18 L186 404 C144 396 112 393 35 393 L9 393 L4 368 L58 368 Z M171 636 C128 636 88 597 88 555 C88 524 110 502 141 502 C184 502 224 541 224 583 C224 614 202 636 171 636 L171 636 Z " />
<glyph glyph-name="k" unicode="k" horiz-adv-x="478" d="M-15 25 L-63 25 L-68 0 L148 0 L153 25 L105 25 L244 678 C202 670 172 667 96 667 L74 667 L68 642 L116 642 L-15 25 Z M255 268 L326 328 C368 365 375 368 409 368 L431 368 L436 393 L256 393 L251 368 L289 368 C313 368 317 367 317 359 C317 352 312 346 290 328 L151 212 L235 25 L188 25 L182 0 L404 0 L409 25 L365 25 L255 268 Z " />
<glyph glyph-name="l" unicode="l" horiz-adv-x="246" d="M-3 25 L-63 25 L-68 0 L172 0 L177 25 L117 25 L256 678 C214 670 184 667 108 667 L74 667 L68 642 L128 642 L-3 25 Z " />
<glyph glyph-name="m" unicode="m" horiz-adv-x="735" d="M15 25 L-45 25 L-50 0 L166 0 L171 25 L135 25 L176 217 C188 274 196 294 217 321 C238 346 266 363 289 363 C308 363 319 350 319 327 C319 316 319 316 309 269 L257 25 L209 25 L204 0 L408 0 L413 25 L377 25 L418 217 C429 268 439 293 459 319 C481 346 508 363 531 363 C550 363 562 351 562 334 C562 324 562 324 550 269 L498 25 L450 25 L445 0 L661 0 L666 25 L618 25 L670 269 C677 299 680 320 680 331 C680 374 643 403 588 403 C532 403 485 378 441 325 C436 374 400 403 347 403 C295 403 246 380 201 333 L216 404 C172 396 139 393 62 393 L34 393 L28 368 L88 368 L15 25 Z " />
<glyph glyph-name="n" unicode="n" horiz-adv-x="502" d="M15 25 L-45 25 L-50 0 L166 0 L171 25 L135 25 L176 218 C188 272 194 288 215 314 C237 343 270 363 295 363 C315 363 326 350 326 328 C326 318 323 298 318 274 L265 25 L217 25 L212 0 L428 0 L433 25 L385 25 L438 274 C443 298 446 319 446 329 C446 374 409 403 353 403 C299 403 244 377 200 331 L216 404 C172 396 139 393 62 393 L34 393 L28 368 L88 368 L15 25 Z " />
<glyph glyph-name="o" unicode="o" horiz-adv-x="461" d="M245 403 C115 403 -5 283 -5 152 C-5 57 61 -10 155 -10 C288 -10 408 109 408 241 C408 338 343 403 245 403 L245 403 Z M240 376 C271 376 292 354 292 320 C292 282 270 167 251 105 C232 45 204 17 162 17 C132 17 111 40 111 73 C111 112 133 226 152 288 C171 348 199 376 240 376 L240 376 Z " />
<glyph glyph-name="p" unicode="p" horiz-adv-x="471" d="M-59 -242 L-119 -242 L-124 -267 L116 -267 L121 -242 L61 -242 L128 70 C149 13 174 -10 217 -10 C318 -10 420 123 420 255 C420 341 371 403 305 403 C261 403 227 382 183 329 L199 404 C155 396 124 393 44 393 L16 393 L11 368 L71 368 L-59 -242 Z M268 373 C289 373 301 356 301 326 C301 280 285 187 265 122 C245 52 222 20 194 20 C165 20 144 60 144 116 C144 233 212 373 268 373 L268 373 Z " />
<glyph glyph-name="q" unicode="q" horiz-adv-x="472" d="M166 -242 L106 -242 L101 -267 L341 -267 L346 -242 L286 -242 L416 368 L476 368 L481 393 L442 393 C381 393 339 396 304 405 L289 337 C279 359 274 368 267 376 C252 392 226 403 202 403 C96 403 -6 275 -6 143 C-6 49 39 -10 112 -10 C154 -10 186 10 231 63 L166 -242 Z M222 373 C252 373 272 340 272 288 C272 235 255 162 228 103 C204 50 172 20 142 20 C123 20 112 38 112 69 C112 116 125 192 147 267 C169 343 190 373 222 373 L222 373 Z " />
<glyph glyph-name="r" unicode="r" horiz-adv-x="371" d="M11 25 L-49 25 L-54 0 L186 0 L191 25 L131 25 L168 200 C181 261 198 299 228 337 C239 352 256 367 262 367 C263 367 265 365 265 362 C265 360 264 355 262 352 C254 335 249 316 249 302 C249 278 267 261 292 261 C331 261 364 299 364 345 C364 379 342 403 309 403 C270 403 226 371 194 318 L212 404 C168 396 137 393 54 393 L30 393 L24 368 L84 368 L11 25 Z " />
<glyph glyph-name="s" unicode="s" horiz-adv-x="335" d="M297 403 L274 403 C268 382 264 376 255 376 C250 376 245 378 234 383 C208 398 189 403 165 403 C91 403 18 326 18 248 C18 215 32 186 55 172 C67 166 94 155 120 146 C164 133 166 132 177 122 C187 113 192 102 192 89 C192 51 151 17 106 17 C51 17 11 60 11 119 C11 127 12 133 14 146 L-10 146 L-41 0 L-18 0 C-13 17 -7 26 2 26 C7 26 11 24 18 18 C39 0 67 -10 100 -10 C188 -10 269 74 269 166 C269 200 254 226 224 241 C207 250 181 259 138 273 C109 281 98 294 98 315 C98 348 131 376 170 376 C214 376 250 342 250 299 C250 297 250 291 249 286 L272 286 L297 403 Z " />
<glyph glyph-name="t" unicode="t" horiz-adv-x="274" d="M71 368 L12 89 C9 75 7 62 7 52 C7 11 32 -10 81 -10 C145 -10 193 26 222 97 L198 102 C179 55 165 37 145 37 C135 37 128 46 128 60 C128 68 129 79 132 89 L191 368 L254 368 L259 393 L196 393 L233 564 L205 564 C156 482 86 415 15 384 L11 368 L71 368 Z " />
<glyph glyph-name="u" unicode="u" horiz-adv-x="473" d="M220 0 L400 0 L405 25 L345 25 L426 404 C384 396 353 393 278 393 L255 393 L250 368 L298 368 L256 171 C244 116 236 95 214 71 C193 48 166 33 144 33 C128 33 116 47 116 64 C116 72 117 78 124 110 L186 404 C144 396 114 393 38 393 L16 393 L11 368 L59 368 L9 133 C3 105 -1 78 -1 64 C-1 17 29 -10 84 -10 C139 -10 180 11 234 69 L220 0 Z " />
<glyph glyph-name="v" unicode="v" horiz-adv-x="401" d="M150 368 L206 368 L211 393 L2 393 L-3 368 L37 368 L117 -13 L141 -13 L335 320 C361 365 365 367 399 368 L420 368 L425 393 L272 393 L267 368 L301 368 C321 368 326 365 326 356 C326 351 323 344 314 329 L200 132 L150 368 Z " />
<glyph glyph-name="w" unicode="w" horiz-adv-x="577" d="M156 368 L214 368 L220 393 L2 393 L-3 368 L40 368 L97 -13 L119 -13 L261 237 L305 -13 L325 -13 L510 322 C531 362 540 368 575 368 L595 368 L601 393 L448 393 L442 368 L480 368 C495 368 500 366 500 358 C500 352 499 349 488 329 L391 149 L353 393 L325 393 L186 149 L156 368 Z " />
<glyph glyph-name="x" unicode="x" horiz-adv-x="438" d="M141 168 L38 69 C0 32 -13 25 -42 25 L-68 25 L-73 0 L84 0 L89 25 L52 25 C41 25 38 26 38 31 C38 37 43 44 64 64 L150 148 L206 25 L154 25 L149 0 L365 0 L371 25 L334 25 L237 234 L345 339 C371 364 382 369 412 368 L430 368 L435 393 L284 393 L279 368 L305 368 C327 368 330 367 330 360 C330 356 328 354 314 339 L228 254 L174 368 L227 368 L232 393 L11 393 L5 368 L46 368 L141 168 Z " />
<glyph glyph-name="y" unicode="y" horiz-adv-x="402" d="M118 2 L48 -126 C19 -177 3 -200 -7 -200 C-12 -200 -15 -197 -17 -191 C-25 -169 -38 -158 -57 -158 C-87 -158 -116 -190 -116 -224 C-116 -252 -97 -270 -69 -270 C-47 -270 -25 -259 -3 -237 C16 -218 29 -199 64 -139 L336 329 C355 362 366 369 399 368 L420 368 L425 393 L273 393 L267 368 L296 368 C316 368 320 366 320 355 C320 348 317 341 306 322 L204 145 L160 368 L204 368 L209 393 L2 393 L-4 368 L41 368 L118 2 Z " />
<glyph glyph-name="z" unicode="z" horiz-adv-x="387" d="M367 393 L62 393 L27 246 L47 246 C84 336 131 373 203 368 L242 368 L-43 20 L-47 0 L283 0 L327 163 L303 163 C263 66 207 20 132 25 L80 25 L363 373 L367 393 Z " />
<glyph glyph-name="braceleft" unicode="&#x7b;" horiz-adv-x="269" d="M-2 247 C15 244 20 237 20 219 C20 204 18 194 0 105 L-17 22 C-27 -25 -36 -82 -36 -100 C-36 -134 -20 -158 10 -170 C32 -177 57 -180 126 -180 L132 -155 C83 -152 67 -140 67 -104 C67 -82 71 -55 84 7 L105 103 C115 153 118 169 118 186 C118 210 107 234 90 245 C81 251 72 254 51 256 L52 260 C120 266 152 306 169 403 L188 495 C208 603 234 637 301 642 L306 667 C204 664 192 662 161 645 C116 614 99 578 78 469 L62 398 C35 276 33 273 2 269 L-2 247 Z " />
<glyph glyph-name="bar" unicode="&#x7c;" horiz-adv-x="459" d="M255 667 L78 -167 L169 -167 L346 667 L255 667 Z " />
<glyph glyph-name="braceright" unicode="&#x7d;" horiz-adv-x="269" d="M239 269 C222 270 216 278 216 296 C216 306 216 306 233 398 L249 469 C262 533 265 552 265 579 C265 616 251 642 226 654 C206 663 197 664 104 667 L99 642 C141 639 162 618 162 578 C162 565 157 532 149 495 L130 403 C121 362 118 344 118 328 C118 288 144 262 186 260 L185 256 C116 250 84 209 66 103 L45 7 C18 -130 2 -152 -71 -155 L-76 -180 C13 -180 45 -175 77 -154 C116 -125 125 -103 153 22 L171 105 C199 236 202 241 234 247 L239 269 Z " />
<glyph glyph-name="asciitilde" unicode="&#x7e;" horiz-adv-x="482" d="M89 284 C114 310 133 320 159 320 C175 320 191 316 230 301 C259 290 269 287 282 287 C323 287 358 310 411 372 L394 382 C371 356 355 347 335 347 C321 347 313 349 274 365 C247 376 228 381 210 381 C163 381 121 354 72 293 L89 284 Z " />
<glyph glyph-name="uni00A0" unicode="&#xa0;" horiz-adv-x="250" d="" />
<glyph glyph-name="exclamdown" unicode="&#xa1;" horiz-adv-x="260" d="M87 181 C62 68 43 17 -30 -136 C-49 -176 -53 -189 -53 -211 C-53 -248 -32 -270 2 -270 C50 -270 91 -222 91 -165 C91 -157 91 -148 90 -136 C89 -100 87 -47 87 -24 C87 54 91 89 108 181 L87 181 Z M150 415 C104 415 62 369 62 320 C62 286 85 262 116 262 C161 262 204 308 204 356 C204 390 181 415 150 415 L150 415 Z " />
<glyph glyph-name="cent" unicode="&#xa2;" horiz-adv-x="450" d="M161 41 L195 41 L215 136 C284 142 344 182 386 251 L367 264 C325 199 273 164 221 166 L297 522 L303 522 C324 522 336 516 348 501 C318 481 300 451 300 421 C300 396 319 377 344 377 C381 377 416 416 416 458 C416 511 371 547 303 549 L322 639 L288 639 L268 546 C143 523 49 413 49 290 C49 208 100 149 181 137 L161 41 Z M189 173 C172 187 168 197 168 227 C168 269 185 360 207 428 C223 481 237 504 262 516 L189 173 Z " />
<glyph glyph-name="sterling" unicode="&#xa3;" horiz-adv-x="450" d="M146 271 C162 235 166 221 166 203 C166 192 164 176 161 161 C159 148 158 142 158 136 L158 127 C124 142 92 150 61 150 C-5 150 -65 105 -65 55 C-65 16 -32 -10 16 -10 C56 -10 82 0 139 34 C171 2 214 -18 252 -18 C297 -18 342 9 372 56 C394 90 406 120 417 173 L389 173 C374 109 337 69 293 69 C272 69 238 82 200 104 C228 147 243 200 243 253 C243 260 243 263 241 271 L349 271 L356 307 L235 307 C231 320 231 320 210 376 C203 397 198 429 198 461 C198 560 258 649 325 649 C353 649 379 624 379 597 C379 592 376 587 370 582 C347 564 332 535 332 511 C332 484 352 464 379 464 C421 464 458 508 458 560 C458 631 396 680 307 680 C175 680 66 580 66 457 C66 405 84 359 124 307 L33 307 L26 271 L146 271 Z M108 58 C87 39 53 26 22 26 C-5 26 -25 41 -25 60 C-25 81 -6 98 18 98 C44 98 80 82 108 58 L108 58 Z " />
<glyph glyph-name="currency" unicode="&#xa4;" horiz-adv-x="450" d="M374 485 C348 515 310 532 269 532 C224 532 182 517 140 485 L94 552 L65 525 L110 459 C63 409 35 344 35 282 C35 252 41 228 55 198 L-19 132 L-1 106 L73 172 C99 143 138 125 178 125 C222 125 268 142 308 172 L353 106 L383 132 L337 198 C385 249 412 313 412 375 C412 406 406 432 392 459 L466 525 L448 552 L374 485 Z M252 457 C303 454 335 417 335 360 C335 279 267 200 196 200 C147 200 112 240 112 297 C112 379 183 461 252 457 L252 457 Z " />
<glyph glyph-name="yen" unicode="&#xa5;" horiz-adv-x="450" d="M152 298 L94 25 L25 25 L20 0 L287 0 L293 25 L224 25 L282 298 L389 298 L394 323 L292 323 L351 431 L438 431 L443 456 L364 456 L427 569 C447 607 463 618 498 618 L507 618 L512 643 L357 643 L351 618 L391 618 L402 619 C409 620 415 614 415 607 C415 601 414 600 402 577 L278 342 L230 618 L301 618 L307 643 L56 643 L51 618 L96 618 L128 456 L42 456 L36 431 L133 431 L155 323 L37 323 L32 298 L152 298 Z " />
<glyph glyph-name="brokenbar" unicode="&#xa6;" horiz-adv-x="459" d="M255 667 L181 316 L272 316 L346 667 L255 667 Z M146 153 L78 -167 L169 -167 L237 153 L146 153 Z " />
<glyph glyph-name="section" unicode="&#xa7;" horiz-adv-x="450" d="M267 108 C306 126 329 142 352 169 C384 207 403 256 403 298 C403 352 393 363 233 483 C205 504 194 522 194 548 C194 604 245 653 305 653 C339 653 368 637 368 618 C368 611 365 605 359 602 C332 589 316 565 316 539 C316 515 333 498 356 498 C397 498 430 536 430 584 C430 640 376 680 302 680 C245 680 194 655 155 608 C126 573 108 530 108 494 C108 461 119 434 143 403 C60 361 14 293 14 214 C14 169 29 145 75 111 C93 97 112 83 131 69 C156 49 174 35 184 29 C228 -2 241 -20 241 -50 C241 -112 178 -166 106 -166 C61 -166 14 -142 14 -119 C14 -114 17 -111 26 -109 C55 -103 79 -68 79 -33 C79 -6 62 12 35 12 C-4 12 -41 -33 -41 -82 C-41 -151 13 -193 100 -193 C226 -193 329 -105 329 4 C329 53 311 84 267 108 L267 108 Z M160 376 C175 376 186 371 209 353 C228 339 241 329 247 325 C305 282 305 282 315 269 C324 258 329 242 329 225 C329 180 293 139 254 139 C231 139 214 148 161 189 C146 200 134 210 126 216 C95 239 85 255 85 280 C85 307 90 332 99 342 C116 363 139 376 160 376 L160 376 Z " />
<glyph glyph-name="dieresis" unicode="&#xa8;" horiz-adv-x="359" d="M155 611 C115 611 78 575 78 536 C78 508 99 487 127 487 C167 487 204 523 204 562 C204 590 183 611 155 611 L155 611 Z M324 611 C284 611 247 575 247 536 C247 508 268 487 296 487 C336 487 373 523 373 562 C373 590 352 611 324 611 L324 611 Z " />
<glyph glyph-name="copyright" unicode="&#xa9;" horiz-adv-x="706" d="M521 523 L501 523 L488 502 C470 523 444 533 411 533 C293 533 181 408 181 277 C181 192 238 134 322 134 C358 134 383 143 415 168 L424 143 L443 143 L472 254 L452 254 C421 191 379 156 332 156 C296 156 277 178 277 222 C277 254 303 380 319 425 C339 483 371 511 416 511 C459 511 483 482 483 431 L483 427 L483 419 L503 419 L521 523 Z M431 684 C222 684 26 476 26 254 C26 96 131 -17 277 -17 C484 -17 680 192 680 414 C680 570 575 684 431 684 L431 684 Z M422 644 C549 638 631 545 631 408 C631 211 463 23 286 23 C163 23 75 121 75 260 C75 457 251 652 422 644 L422 644 Z " />
<glyph glyph-name="ordfeminine" unicode="&#xaa;" horiz-adv-x="310" d="M291 330 L7 330 L0 297 L284 297 L291 330 Z M311 444 C303 435 297 432 291 432 C285 432 282 436 282 441 C282 444 283 449 284 457 L310 578 C315 602 317 613 317 619 C317 652 279 673 220 673 C149 673 89 637 89 595 C89 578 101 565 117 565 C142 565 166 587 166 610 C166 615 165 619 162 626 C161 630 160 633 160 634 C160 643 179 650 203 650 C227 650 238 643 238 627 C238 620 238 620 228 574 L225 560 C108 551 35 507 35 444 C35 413 60 393 99 393 C135 393 172 408 201 435 C209 412 228 397 251 397 C275 397 300 408 323 429 L311 444 Z M216 506 C205 453 189 433 157 433 C136 433 123 447 123 468 C123 510 161 536 222 537 L216 506 Z " />
<glyph glyph-name="guillemotleft" unicode="&#xab;" horiz-adv-x="333" d="M10 213 L62 113 L133 113 L83 213 L173 303 L102 303 L10 213 Z M121 213 L173 113 L244 113 L194 213 L284 303 L214 303 L121 213 Z " />
<glyph glyph-name="logicalnot" unicode="&#xac;" horiz-adv-x="450" d="M202 0 L351 0 L408 267 L14 267 L0 203 L245 203 L202 0 Z " />
<glyph glyph-name="uni00AD" unicode="&#xad;" horiz-adv-x="194" d="M-17 250 L-35 167 L159 167 L176 250 L-17 250 Z " />
<glyph glyph-name="registered" unicode="&#xae;" horiz-adv-x="706" d="M191 164 L147 164 L143 143 L314 143 L318 164 L283 164 L320 335 L341 335 C377 335 386 327 386 293 C386 282 385 272 382 254 C378 226 377 217 377 206 C377 163 398 141 438 141 C458 141 478 145 503 154 L507 176 C492 171 484 169 476 169 C465 169 458 176 458 187 C458 195 460 204 464 222 C469 239 470 248 470 260 C470 300 451 325 409 343 C474 350 519 395 519 453 C519 473 512 488 499 500 C479 518 457 523 389 523 L224 523 L219 502 L263 502 L191 164 Z M324 356 L355 502 L385 502 C419 502 428 495 428 470 C428 453 421 418 414 398 C402 366 388 356 354 356 L324 356 Z M431 684 C222 684 26 476 26 254 C26 96 131 -17 277 -17 C484 -17 680 192 680 414 C680 570 575 684 431 684 L431 684 Z M422 644 C549 638 631 545 631 408 C631 211 463 23 286 23 C163 23 75 121 75 260 C75 457 251 652 422 644 L422 644 Z " />
<glyph glyph-name="macron" unicode="&#xaf;" horiz-adv-x="477" d="M154 563 L144 516 L411 516 L421 563 L154 563 Z " />
<glyph glyph-name="degree" unicode="&#xb0;" horiz-adv-x="400" d="M204 686 C117 686 50 619 50 534 C50 448 116 380 200 380 C284 380 350 447 350 533 C350 619 286 686 204 686 L204 686 Z M202 629 C252 629 293 586 293 533 C293 479 252 437 200 437 C148 437 106 480 106 532 C106 587 148 629 202 629 L202 629 Z " />
<glyph glyph-name="plusminus" unicode="&#xb1;" horiz-adv-x="450" d="M205 307 L167 128 L199 128 L237 307 L405 307 L412 340 L244 340 L282 519 L250 519 L212 340 L41 340 L34 307 L205 307 Z M-28 14 L342 14 L349 47 L-21 47 L-28 14 Z " />
<glyph glyph-name="twosuperior" unicode="&#xb2;" horiz-adv-x="303" d="M278 387 L256 387 C251 364 245 346 242 341 C238 332 235 331 215 331 L79 331 C91 339 91 339 125 362 C186 401 208 417 238 445 C289 492 312 529 312 566 C312 614 273 650 221 650 C145 650 74 590 74 525 C74 501 88 484 109 484 C133 484 157 509 157 533 C157 553 142 565 120 565 C113 565 112 565 112 568 C112 571 115 576 120 584 C136 605 157 618 175 618 C198 618 214 597 214 567 C214 487 171 430 17 307 L6 257 L244 257 L278 387 Z " />
<glyph glyph-name="threesuperior" unicode="&#xb3;" horiz-adv-x="303" d="M98 453 C110 455 115 455 121 455 C163 455 183 439 183 404 C183 387 176 353 167 331 C153 294 131 274 104 274 C89 274 74 282 74 290 C74 293 75 294 79 297 C95 307 106 328 106 347 C106 367 93 380 74 380 C49 380 24 351 24 322 C24 280 61 251 113 251 C200 251 279 317 279 391 L279 394 C277 434 248 461 197 469 C264 493 300 532 300 581 C300 622 263 649 207 649 C145 649 93 611 93 565 C93 546 104 533 120 533 C147 533 166 554 166 584 C166 595 163 604 158 608 C156 610 156 611 156 612 C156 618 176 627 190 627 C204 627 212 616 212 598 C212 572 202 533 191 513 C177 489 156 478 124 478 C120 478 114 478 104 479 L98 453 Z " />
<glyph glyph-name="acute" unicode="&#xb4;" horiz-adv-x="468" d="M320 621 L210 480 L225 471 L411 596 L417 621 L320 621 Z " />
<glyph glyph-name="mu" unicode="&#xb5;" horiz-adv-x="576" d="M442 500 L353 500 L354 131 C318 80 284 58 242 58 C184 58 150 99 150 169 L150 500 L62 500 L62 20 C62 -1 58 -26 51 -56 C34 -118 33 -123 33 -147 C33 -190 54 -219 83 -219 C112 -219 132 -189 132 -146 C132 -124 129 -111 113 -53 C103 -17 101 -8 101 21 L101 33 C143 -2 166 -13 200 -13 C250 -13 301 18 354 80 C362 48 367 36 377 21 C392 0 419 -13 449 -13 C510 -13 553 31 567 108 L540 109 C536 71 515 41 492 41 C462 41 442 77 442 131 L442 500 Z " />
<glyph glyph-name="paragraph" unicode="&#xb6;" horiz-adv-x="450" d="M94 -155 L30 -155 L25 -180 L317 -180 L323 -155 L275 -155 L444 642 L492 642 L497 667 L268 667 C211 667 165 651 131 619 C80 573 49 502 49 435 C49 350 96 301 177 301 L191 301 L94 -155 Z M149 -155 L318 642 L390 642 L220 -155 L149 -155 Z " />
<glyph glyph-name="periodcentered" unicode="&#xb7;" horiz-adv-x="234" d="M107 280 C62 280 19 235 19 186 C19 152 41 127 73 127 C119 127 161 173 161 222 C161 256 138 280 107 280 L107 280 Z " />
<glyph glyph-name="cedilla" unicode="&#xb8;" horiz-adv-x="450" d="M177 0 L154 0 L115 -72 C136 -74 146 -86 146 -110 C146 -143 121 -180 98 -180 C85 -180 78 -169 78 -152 L78 -147 L78 -136 C79 -121 74 -114 61 -114 C45 -114 31 -131 31 -150 C31 -174 64 -198 98 -198 C128 -198 173 -181 195 -161 C211 -146 224 -120 224 -101 C224 -72 196 -49 161 -49 C159 -49 155 -49 150 -50 L177 0 Z " />
<glyph glyph-name="onesuperior" unicode="&#xb9;" horiz-adv-x="303" d="M100 280 L49 280 L44 257 L248 257 L253 280 L192 280 L271 655 C249 648 210 643 178 643 L144 643 L126 643 L121 620 L173 620 L100 280 Z " />
<glyph glyph-name="ordmasculine" unicode="&#xba;" horiz-adv-x="325" d="M303 330 L19 330 L12 297 L296 297 L303 330 Z M234 674 C136 674 47 594 47 506 C47 440 99 393 173 393 C273 393 362 472 362 560 C362 628 310 674 234 674 L234 674 Z M229 651 C259 651 276 635 276 608 C276 582 262 509 250 472 C237 434 215 416 179 416 C150 416 133 432 133 459 C133 485 147 559 159 595 C172 633 194 651 229 651 L229 651 Z " />
<glyph glyph-name="guillemotright" unicode="&#xbb;" horiz-adv-x="333" d="M269 203 L217 303 L146 303 L196 203 L106 113 L177 113 L269 203 Z M158 203 L106 303 L35 303 L85 203 L-5 113 L66 113 L158 203 Z " />
<glyph glyph-name="onequarter" unicode="&#xbc;" horiz-adv-x="705" d="M100 280 L49 280 L44 257 L248 257 L253 280 L192 280 L271 655 C249 648 210 643 178 643 L144 643 L126 643 L121 620 L173 620 L100 280 Z M585 643 L547 643 L151 0 L189 0 L585 643 Z M495 100 L479 23 L436 23 L431 0 L595 0 L600 23 L558 23 L574 100 L600 100 C615 100 617 99 617 91 C617 89 617 89 615 79 L612 65 L636 65 L656 161 L632 161 L630 148 C625 126 622 123 605 124 L579 124 L635 386 L582 386 L370 122 L365 100 L495 100 Z M496 124 L398 124 L533 299 L496 124 Z " />
<glyph glyph-name="onehalf" unicode="&#xbd;" horiz-adv-x="705" d="M100 280 L49 280 L44 257 L248 257 L253 280 L192 280 L271 655 C249 648 210 643 178 643 L144 643 L126 643 L121 620 L173 620 L100 280 Z M567 643 L529 643 L133 0 L171 0 L567 643 Z M625 130 L603 130 C597 106 592 89 589 84 C584 75 582 74 562 74 L426 74 L440 83 C554 158 572 172 613 215 C643 246 659 279 659 308 C659 356 620 392 569 392 C492 392 421 331 421 267 C421 243 435 226 456 226 C480 226 504 251 504 275 C504 293 490 307 471 307 L467 307 C464 306 462 306 462 306 C460 306 459 307 459 309 C459 312 462 318 467 325 C484 347 503 359 522 359 C545 359 561 339 561 309 C561 229 519 174 364 50 L353 0 L591 0 L625 130 Z " />
<glyph glyph-name="threequarters" unicode="&#xbe;" horiz-adv-x="705" d="M98 453 C110 455 115 455 121 455 C163 455 183 439 183 404 C183 387 176 353 167 331 C153 294 131 274 104 274 C89 274 74 282 74 290 C74 293 75 294 79 297 C95 307 106 328 106 347 C106 367 93 380 74 380 C49 380 24 351 24 322 C24 280 61 251 113 251 C200 251 279 317 279 391 L279 394 C277 434 248 461 197 469 C264 493 300 532 300 581 C300 622 263 649 207 649 C145 649 93 611 93 565 C93 546 104 533 120 533 C147 533 166 554 166 584 C166 595 163 604 158 608 C156 610 156 611 156 612 C156 618 176 627 190 627 C204 627 212 616 212 598 C212 572 202 533 191 513 C177 489 156 478 124 478 C120 478 114 478 104 479 L98 453 Z M584 643 L547 643 L151 0 L189 0 L584 643 Z M495 100 L478 23 L436 23 L431 0 L595 0 L600 23 L557 23 L574 100 L599 100 C613 100 616 99 616 91 L616 90 C616 89 615 81 614 79 L612 65 L635 65 L656 161 L632 161 L629 148 C625 126 622 124 604 124 L579 124 L635 386 L581 386 L369 122 L365 100 L495 100 Z M496 124 L398 124 L533 299 L496 124 Z " />
<glyph glyph-name="questiondown" unicode="&#xbf;" horiz-adv-x="355" d="M182 204 C177 152 153 120 97 86 C-13 20 -69 -58 -69 -144 C-69 -218 -20 -270 50 -270 C135 -270 229 -193 229 -123 C229 -97 214 -80 190 -80 C154 -80 121 -111 121 -145 C121 -164 129 -177 147 -189 C157 -195 157 -195 157 -197 C157 -214 100 -243 66 -243 C30 -243 4 -217 4 -181 C4 -149 21 -121 63 -86 C163 -1 203 73 203 171 C203 181 202 189 201 204 L182 204 Z M232 415 C187 415 144 369 144 321 C144 286 167 262 198 262 C243 262 286 308 286 356 C286 390 263 415 232 415 L232 415 Z " />
<glyph glyph-name="Agrave" unicode="&#xc0;" horiz-adv-x="564" d="M355 846 L221 846 L215 821 L449 726 L463 740 L355 846 Z M297 179 L314 25 L236 25 L231 0 L499 0 L505 25 L441 25 L373 667 L344 667 L31 82 C6 31 -3 24 -44 25 L-75 25 L-80 0 L106 0 L111 25 L63 25 C42 25 36 28 36 36 C36 42 38 47 49 67 L109 179 L297 179 Z M294 204 L122 204 L264 469 L294 204 Z " />
<glyph glyph-name="Aacute" unicode="&#xc1;" horiz-adv-x="564" d="M478 846 L324 740 L333 726 L607 821 L612 846 L478 846 Z M297 179 L314 25 L236 25 L231 0 L499 0 L505 25 L441 25 L373 667 L344 667 L31 82 C6 31 -3 24 -44 25 L-75 25 L-80 0 L106 0 L111 25 L63 25 C42 25 36 28 36 36 C36 42 38 47 49 67 L109 179 L297 179 Z M294 204 L122 204 L264 469 L294 204 Z " />
<glyph glyph-name="Acircumflex" unicode="&#xc2;" horiz-adv-x="564" d="M211 726 L378 775 L525 726 L542 742 L411 846 L376 846 L201 742 L211 726 Z M297 179 L314 25 L236 25 L231 0 L499 0 L505 25 L441 25 L373 667 L344 667 L31 82 C6 31 -3 24 -44 25 L-75 25 L-80 0 L106 0 L111 25 L63 25 C42 25 36 28 36 36 C36 42 38 47 49 67 L109 179 L297 179 Z M294 204 L122 204 L264 469 L294 204 Z " />
<glyph glyph-name="Atilde" unicode="&#xc3;" horiz-adv-x="564" d="M236 737 C261 763 280 773 306 773 C322 773 338 769 377 754 C406 743 416 740 429 740 C470 740 505 763 558 825 L542 836 C518 809 502 800 482 800 C468 800 459 803 421 818 C394 829 376 834 358 834 C309 834 268 808 219 746 L236 737 Z M297 179 L314 25 L236 25 L231 0 L499 0 L505 25 L441 25 L373 667 L344 667 L31 82 C6 31 -3 24 -44 25 L-75 25 L-80 0 L106 0 L111 25 L63 25 C42 25 36 28 36 36 C36 42 38 47 49 67 L109 179 L297 179 Z M294 204 L122 204 L264 469 L294 204 Z " />
<glyph glyph-name="Adieresis" unicode="&#xc4;" horiz-adv-x="564" d="M303 850 C263 850 226 814 226 776 C226 748 247 727 275 727 C315 727 352 763 352 802 C352 830 331 850 303 850 L303 850 Z M494 850 C454 850 417 814 417 776 C417 748 438 727 466 727 C506 727 543 763 543 802 C543 830 522 850 494 850 L494 850 Z M297 179 L314 25 L236 25 L231 0 L499 0 L505 25 L441 25 L373 667 L344 667 L31 82 C6 31 -3 24 -44 25 L-75 25 L-80 0 L106 0 L111 25 L63 25 C42 25 36 28 36 36 C36 42 38 47 49 67 L109 179 L297 179 Z M294 204 L122 204 L264 469 L294 204 Z " />
<glyph glyph-name="Aring" unicode="&#xc5;" horiz-adv-x="564" d="M405 877 C348 877 296 829 296 777 C296 738 327 710 369 710 C425 710 477 759 477 810 C477 849 446 877 405 877 L405 877 Z M397 838 C418 838 434 823 434 803 C434 775 406 749 376 749 C355 749 339 764 339 785 C339 812 367 838 397 838 L397 838 Z M297 179 L314 25 L236 25 L231 0 L499 0 L505 25 L441 25 L373 667 L344 667 L31 82 C6 31 -3 24 -44 25 L-75 25 L-80 0 L106 0 L111 25 L63 25 C42 25 36 28 36 36 C36 42 38 47 49 67 L109 179 L297 179 Z M294 204 L122 204 L264 469 L294 204 Z " />
<glyph glyph-name="AE" unicode="&#xc6;" horiz-adv-x="834" d="M337 182 L303 25 L231 25 L226 0 L719 0 L777 212 L753 212 C693 65 641 23 520 25 L443 25 L507 326 L528 326 C585 326 609 306 609 260 L609 258 L609 249 C608 238 607 228 601 197 L623 197 L681 469 L659 469 C641 383 606 349 535 351 L512 351 L574 642 L670 642 C730 642 752 635 771 610 C787 590 795 560 795 517 L795 497 L819 497 L841 667 L366 667 L361 642 L393 642 C415 642 420 640 420 630 C420 623 414 612 402 596 L15 64 C-10 33 -28 24 -61 25 L-84 25 L-89 0 L100 0 L105 25 L67 25 C38 25 33 27 33 38 C33 46 37 53 49 70 L130 182 L337 182 Z M342 207 L149 207 L422 582 L342 207 Z " />
<glyph glyph-name="Ccedilla" unicode="&#xc7;" horiz-adv-x="557" d="M252 -17 C309 -15 352 4 401 48 L416 0 L440 0 L487 186 L463 186 C411 74 337 10 260 10 C199 10 167 50 167 127 C167 168 174 211 200 327 C233 478 243 512 269 562 C301 623 352 657 412 657 C484 657 522 606 522 508 L522 493 L546 493 L576 667 L552 667 L527 626 C499 665 457 684 402 684 C208 684 22 460 22 227 C22 90 97 -1 224 -16 L191 -76 C206 -84 213 -93 213 -106 C213 -142 187 -180 163 -180 C149 -180 138 -171 138 -158 C138 -157 140 -145 141 -139 C144 -126 144 -125 144 -120 C144 -111 137 -104 127 -104 C109 -104 93 -124 93 -147 C93 -181 130 -207 179 -207 C253 -207 311 -165 311 -110 C311 -78 287 -59 248 -59 C243 -59 237 -60 228 -62 L252 -17 Z " />
<glyph glyph-name="Egrave" unicode="&#xc8;" horiz-adv-x="564" d="M383 846 L249 846 L243 821 L477 726 L491 740 L383 846 Z M33 25 L-39 25 L-44 0 L449 0 L507 212 L483 212 C423 65 371 23 250 25 L173 25 L237 326 L258 326 C314 326 339 306 339 262 L339 258 L339 249 C338 238 337 228 331 197 L353 197 L411 469 L389 469 C371 383 336 349 266 351 L243 351 L304 642 L400 642 C460 642 482 635 501 611 C517 590 525 560 525 517 L525 497 L549 497 L571 667 L98 667 L92 642 L164 642 L33 25 Z " />
<glyph glyph-name="Eacute" unicode="&#xc9;" horiz-adv-x="564" d="M457 846 L303 740 L312 726 L586 821 L591 846 L457 846 Z M33 25 L-39 25 L-44 0 L449 0 L507 212 L483 212 C423 65 371 23 250 25 L173 25 L237 326 L258 326 C314 326 339 306 339 262 L339 258 L339 249 C338 238 337 228 331 197 L353 197 L411 469 L389 469 C371 383 336 349 266 351 L243 351 L304 642 L400 642 C460 642 482 635 501 611 C517 590 525 560 525 517 L525 497 L549 497 L571 667 L98 667 L92 642 L164 642 L33 25 Z " />
<glyph glyph-name="Ecircumflex" unicode="&#xca;" horiz-adv-x="564" d="M229 726 L396 775 L543 726 L560 742 L429 846 L394 846 L219 742 L229 726 Z M33 25 L-39 25 L-44 0 L449 0 L507 212 L483 212 C423 65 371 23 250 25 L173 25 L237 326 L258 326 C314 326 339 306 339 262 L339 258 L339 249 C338 238 337 228 331 197 L353 197 L411 469 L389 469 C371 383 336 349 266 351 L243 351 L304 642 L400 642 C460 642 482 635 501 611 C517 590 525 560 525 517 L525 497 L549 497 L571 667 L98 667 L92 642 L164 642 L33 25 Z " />
<glyph glyph-name="Edieresis" unicode="&#xcb;" horiz-adv-x="564" d="M312 850 C272 850 235 814 235 776 C235 748 256 727 284 727 C324 727 361 763 361 802 C361 830 340 850 312 850 L312 850 Z M504 850 C464 850 427 814 427 776 C427 748 448 727 476 727 C516 727 553 763 553 802 C553 830 532 850 504 850 L504 850 Z M33 25 L-39 25 L-44 0 L449 0 L507 212 L483 212 C423 65 371 23 250 25 L173 25 L237 326 L258 326 C314 326 339 306 339 262 L339 258 L339 249 C338 238 337 228 331 197 L353 197 L411 469 L389 469 C371 383 336 349 266 351 L243 351 L304 642 L400 642 C460 642 482 635 501 611 C517 590 525 560 525 517 L525 497 L549 497 L571 667 L98 667 L92 642 L164 642 L33 25 Z " />
<glyph glyph-name="Igrave" unicode="&#xcc;" horiz-adv-x="338" d="M33 25 L-39 25 L-44 0 L240 0 L245 25 L173 25 L304 642 L376 642 L382 667 L98 667 L92 642 L164 642 L33 25 Z M258 846 L124 846 L118 821 L352 726 L366 740 L258 846 Z " />
<glyph glyph-name="Iacute" unicode="&#xcd;" horiz-adv-x="338" d="M33 25 L-39 25 L-44 0 L240 0 L245 25 L173 25 L304 642 L376 642 L382 667 L98 667 L92 642 L164 642 L33 25 Z M344 846 L190 740 L199 726 L473 821 L478 846 L344 846 Z " />
<glyph glyph-name="Icircumflex" unicode="&#xce;" horiz-adv-x="338" d="M33 25 L-39 25 L-44 0 L240 0 L245 25 L173 25 L304 642 L376 642 L382 667 L98 667 L92 642 L164 642 L33 25 Z M96 726 L263 775 L409 726 L426 742 L296 846 L260 846 L85 742 L96 726 Z " />
<glyph glyph-name="Idieresis" unicode="&#xcf;" horiz-adv-x="338" d="M33 25 L-39 25 L-44 0 L240 0 L245 25 L173 25 L304 642 L376 642 L382 667 L98 667 L92 642 L164 642 L33 25 Z M203 850 C163 850 126 814 126 776 C126 748 147 727 175 727 C215 727 252 763 252 802 C252 830 231 850 203 850 L203 850 Z M356 850 C316 850 279 814 279 776 C279 748 300 727 328 727 C368 727 405 763 405 802 C405 830 384 850 356 850 L356 850 Z " />
<glyph glyph-name="Eth" unicode="&#xd0;" horiz-adv-x="641" d="M101 355 L31 355 L26 330 L96 330 L31 25 L-39 25 L-44 0 L246 0 C314 0 332 1 356 7 C404 20 452 52 493 98 C571 187 618 317 618 444 C618 519 593 588 550 627 C515 660 488 667 387 667 L98 667 L92 642 L162 642 L101 355 Z M241 355 L302 642 L383 642 C418 642 433 638 446 624 C462 606 470 577 470 537 C470 491 462 437 440 334 C409 189 390 132 357 81 C330 39 304 25 252 25 L171 25 L236 330 L350 330 L355 355 L241 355 Z " />
<glyph glyph-name="Ntilde" unicode="&#xd1;" horiz-adv-x="623" d="M272 737 C297 763 316 773 342 773 C358 773 374 769 413 754 C442 743 452 740 465 740 C506 740 541 763 594 825 L578 836 C554 809 538 800 518 800 C504 800 495 803 457 818 C430 829 412 834 394 834 C345 834 304 808 255 746 L272 737 Z M435 -7 L458 -7 L580 570 C593 634 600 642 644 642 L668 642 L673 667 L502 667 L497 642 L519 642 C550 642 558 637 558 618 C558 609 556 598 550 570 L480 241 L286 667 L92 667 L86 642 L109 642 C140 642 148 637 148 618 C148 609 146 599 140 570 L40 97 C27 33 20 24 -22 25 L-45 25 L-50 0 L133 0 L138 25 L103 25 C71 25 62 30 62 49 C62 57 64 73 70 97 L173 585 L435 -7 Z " />
<glyph glyph-name="Ograve" unicode="&#xd2;" horiz-adv-x="659" d="M413 846 L279 846 L274 821 L507 726 L522 740 L413 846 Z M404 684 C308 684 218 639 144 553 C69 467 25 353 25 247 C25 88 115 -17 251 -17 C351 -17 439 27 514 114 C589 202 633 314 633 420 C633 581 544 684 404 684 L404 684 Z M397 657 C457 657 488 621 488 552 C488 475 451 281 416 171 C379 56 334 10 258 10 C201 10 170 47 170 115 C170 193 206 386 242 496 C278 610 324 657 397 657 L397 657 Z " />
<glyph glyph-name="Oacute" unicode="&#xd3;" horiz-adv-x="659" d="M498 846 L345 740 L354 726 L627 821 L633 846 L498 846 Z M404 684 C308 684 218 639 144 553 C69 467 25 353 25 247 C25 88 115 -17 251 -17 C351 -17 439 27 514 114 C589 202 633 314 633 420 C633 581 544 684 404 684 L404 684 Z M397 657 C457 657 488 621 488 552 C488 475 451 281 416 171 C379 56 334 10 258 10 C201 10 170 47 170 115 C170 193 206 386 242 496 C278 610 324 657 397 657 L397 657 Z " />
<glyph glyph-name="Ocircumflex" unicode="&#xd4;" horiz-adv-x="659" d="M255 726 L422 775 L568 726 L585 742 L455 846 L419 846 L244 742 L255 726 Z M404 684 C308 684 218 639 144 553 C69 467 25 353 25 247 C25 88 115 -17 251 -17 C351 -17 439 27 514 114 C589 202 633 314 633 420 C633 581 544 684 404 684 L404 684 Z M397 657 C457 657 488 621 488 552 C488 475 451 281 416 171 C379 56 334 10 258 10 C201 10 170 47 170 115 C170 193 206 386 242 496 C278 610 324 657 397 657 L397 657 Z " />
<glyph glyph-name="Otilde" unicode="&#xd5;" horiz-adv-x="659" d="M283 737 C309 763 328 773 353 773 C369 773 385 769 425 754 C453 743 464 740 476 740 C517 740 552 763 606 825 L589 836 C565 809 550 800 529 800 C515 800 507 802 469 818 C441 829 422 834 405 834 C357 834 316 808 266 746 L283 737 Z M404 684 C308 684 218 639 144 553 C69 467 25 353 25 247 C25 88 115 -17 251 -17 C351 -17 439 27 514 114 C589 202 633 314 633 420 C633 581 544 684 404 684 L404 684 Z M397 657 C457 657 488 621 488 552 C488 475 451 281 416 171 C379 56 334 10 258 10 C201 10 170 47 170 115 C170 193 206 386 242 496 C278 610 324 657 397 657 L397 657 Z " />
<glyph glyph-name="Odieresis" unicode="&#xd6;" horiz-adv-x="659" d="M344 850 C304 850 267 814 267 776 C267 748 288 727 316 727 C356 727 393 763 393 802 C393 829 372 850 344 850 L344 850 Z M535 850 C495 850 458 814 458 776 C458 748 479 727 508 727 C548 727 585 763 585 802 C585 829 564 850 535 850 L535 850 Z M404 684 C308 684 218 639 144 553 C69 467 25 353 25 247 C25 88 115 -17 251 -17 C351 -17 439 27 514 114 C589 202 633 314 633 420 C633 581 544 684 404 684 L404 684 Z M397 657 C457 657 488 621 488 552 C488 475 451 281 416 171 C379 56 334 10 258 10 C201 10 170 47 170 115 C170 193 206 386 242 496 C278 610 324 657 397 657 L397 657 Z " />
<glyph glyph-name="multiply" unicode="&#xd7;" horiz-adv-x="450" d="M218 300 L319 152 L345 175 L243 323 L408 471 L392 494 L227 346 L126 494 L100 471 L202 323 L37 175 L53 152 L218 300 Z " />
<glyph glyph-name="Oslash" unicode="&#xd8;" horiz-adv-x="659" d="M684 662 L668 683 L582 598 C541 656 482 684 404 684 C308 684 219 639 145 553 C69 465 26 354 26 247 C26 187 38 138 63 91 L-25 5 L-9 -17 L77 68 C118 12 178 -17 255 -17 C352 -17 441 28 515 114 C591 202 634 313 634 420 C634 479 622 528 596 576 L684 662 Z M482 465 C465 354 439 238 417 171 C380 58 334 10 261 10 C201 10 170 46 170 117 C170 130 171 141 172 161 L482 465 Z M177 202 C190 292 221 430 242 496 C279 610 325 657 398 657 C459 657 489 621 489 549 C489 535 489 526 487 505 L177 202 Z " />
<glyph glyph-name="Ugrave" unicode="&#xd9;" horiz-adv-x="602" d="M401 846 L267 846 L261 821 L495 726 L509 740 L401 846 Z M156 642 L65 213 C51 150 48 130 48 112 C48 34 124 -17 239 -17 C310 -17 375 7 417 48 C456 86 469 117 490 213 L566 570 C579 634 586 642 630 642 L653 642 L658 667 L487 667 L482 642 L504 642 C535 642 543 637 543 618 C543 610 540 591 536 570 L460 214 C444 138 432 106 408 76 C379 39 334 18 282 18 C225 18 188 51 188 103 C188 127 192 153 205 213 L296 642 L363 642 L368 667 L89 667 L84 642 L156 642 Z " />
<glyph glyph-name="Uacute" unicode="&#xda;" horiz-adv-x="602" d="M492 846 L338 740 L347 726 L621 821 L626 846 L492 846 Z M156 642 L65 213 C51 150 48 130 48 112 C48 34 124 -17 239 -17 C310 -17 375 7 417 48 C456 86 469 117 490 213 L566 570 C579 634 586 642 630 642 L653 642 L658 667 L487 667 L482 642 L504 642 C535 642 543 637 543 618 C543 610 540 591 536 570 L460 214 C444 138 432 106 408 76 C379 39 334 18 282 18 C225 18 188 51 188 103 C188 127 192 153 205 213 L296 642 L363 642 L368 667 L89 667 L84 642 L156 642 Z " />
<glyph glyph-name="Ucircumflex" unicode="&#xdb;" horiz-adv-x="602" d="M253 726 L420 775 L567 726 L584 742 L453 846 L418 846 L242 742 L253 726 Z M156 642 L65 213 C51 150 48 130 48 112 C48 34 124 -17 239 -17 C310 -17 375 7 417 48 C456 86 469 117 490 213 L566 570 C579 634 586 642 630 642 L653 642 L658 667 L487 667 L482 642 L504 642 C535 642 543 637 543 618 C543 610 540 591 536 570 L460 214 C444 138 432 106 408 76 C379 39 334 18 282 18 C225 18 188 51 188 103 C188 127 192 153 205 213 L296 642 L363 642 L368 667 L89 667 L84 642 L156 642 Z " />
<glyph glyph-name="Udieresis" unicode="&#xdc;" horiz-adv-x="602" d="M334 850 C294 850 257 814 257 776 C257 748 278 727 306 727 C346 727 383 763 383 802 C383 829 362 850 334 850 L334 850 Z M525 850 C485 850 448 814 448 776 C448 748 469 727 497 727 C537 727 574 763 574 802 C574 829 553 850 525 850 L525 850 Z M156 642 L65 213 C51 150 48 130 48 112 C48 34 124 -17 239 -17 C310 -17 375 7 417 48 C456 86 469 117 490 213 L566 570 C579 634 586 642 630 642 L653 642 L658 667 L487 667 L482 642 L504 642 C535 642 543 637 543 618 C543 610 540 591 536 570 L460 214 C444 138 432 106 408 76 C379 39 334 18 282 18 C225 18 188 51 188 103 C188 127 192 153 205 213 L296 642 L363 642 L368 667 L89 667 L84 642 L156 642 Z " />
<glyph glyph-name="Yacute" unicode="&#xdd;" horiz-adv-x="539" d="M471 846 L318 740 L327 726 L600 821 L606 846 L471 846 Z M143 25 L62 25 L57 0 L359 0 L364 25 L283 25 L343 307 L518 590 C544 632 557 641 594 642 L610 642 L616 667 L442 667 L436 642 L481 642 C505 642 509 640 509 630 C509 623 508 621 494 598 L344 351 L252 642 L323 642 L328 667 L51 667 L46 642 L101 642 L203 307 L143 25 Z " />
<glyph glyph-name="Thorn" unicode="&#xde;" horiz-adv-x="566" d="M33 25 L-39 25 L-44 0 L235 0 L240 25 L173 25 L211 200 L266 200 C333 200 371 203 397 209 C443 220 479 243 510 282 C541 323 558 371 558 419 C558 454 548 486 530 508 C499 546 461 555 341 555 L286 555 L304 642 L371 642 L377 667 L98 667 L92 642 L164 642 L33 25 Z M216 225 L281 530 L334 530 C393 530 413 514 413 466 C413 420 395 335 377 294 C355 245 324 225 271 225 L216 225 Z " />
<glyph glyph-name="germandbls" unicode="&#xdf;" horiz-adv-x="497" d="M-57 25 L-62 0 L154 0 L159 25 L123 25 L171 250 C182 301 190 319 211 339 C235 362 266 376 290 376 C317 376 336 354 336 325 C336 292 316 262 284 249 C271 244 267 244 220 244 L215 219 C256 219 262 219 272 216 C298 207 310 185 310 148 C310 90 275 20 246 20 C239 20 235 25 235 32 C235 36 237 40 240 44 C255 63 261 76 261 92 C261 110 248 123 231 123 C200 123 174 94 174 58 C174 17 208 -10 260 -10 C345 -10 423 61 423 138 C423 185 393 217 337 228 C396 235 439 276 439 327 C439 376 401 403 329 403 C273 403 237 389 192 349 L225 504 C241 580 249 602 264 622 C278 640 301 652 319 652 C333 652 346 643 346 634 C346 630 345 627 341 621 C333 610 327 592 327 579 C327 558 342 545 365 545 C396 545 425 576 425 610 C425 649 391 674 338 674 C271 674 197 640 156 589 C124 550 104 496 82 393 L3 25 L-57 25 Z " />
<glyph glyph-name="agrave" unicode="&#xe0;" horiz-adv-x="412" d="M262 621 L165 621 L160 596 L294 471 L312 480 L262 621 Z M336 56 C326 46 318 41 309 41 C301 41 296 47 296 57 C296 61 296 63 300 81 L339 263 C346 296 349 315 349 325 C349 372 299 403 222 403 C129 403 49 349 49 287 C49 264 62 249 81 249 C103 249 128 266 137 288 C141 298 144 315 145 333 C146 350 147 354 151 359 C159 369 179 376 201 376 C228 376 241 365 241 342 C241 331 240 328 226 258 L221 233 C145 226 97 213 53 185 C2 154 -27 108 -27 60 C-27 17 2 -10 50 -10 C97 -10 142 13 183 56 C193 19 219 -5 250 -5 C283 -5 317 11 347 40 L336 56 Z M204 156 C187 73 166 42 128 42 C106 42 92 62 92 92 C92 161 140 205 215 206 L204 156 Z " />
<glyph glyph-name="aacute" unicode="&#xe1;" horiz-adv-x="412" d="M329 621 L219 480 L234 471 L421 596 L426 621 L329 621 Z M336 56 C326 46 318 41 309 41 C301 41 296 47 296 57 C296 61 296 63 300 81 L339 263 C346 296 349 315 349 325 C349 372 299 403 222 403 C129 403 49 349 49 287 C49 264 62 249 81 249 C103 249 128 266 137 288 C141 298 144 315 145 333 C146 350 147 354 151 359 C159 369 179 376 201 376 C228 376 241 365 241 342 C241 331 240 328 226 258 L221 233 C145 226 97 213 53 185 C2 154 -27 108 -27 60 C-27 17 2 -10 50 -10 C97 -10 142 13 183 56 C193 19 219 -5 250 -5 C283 -5 317 11 347 40 L336 56 Z M204 156 C187 73 166 42 128 42 C106 42 92 62 92 92 C92 161 140 205 215 206 L204 156 Z " />
<glyph glyph-name="acircumflex" unicode="&#xe2;" horiz-adv-x="412" d="M135 472 L264 534 L366 472 L383 485 L294 621 L271 621 L125 485 L135 472 Z M336 56 C326 46 318 41 309 41 C301 41 296 47 296 57 C296 61 296 63 300 81 L339 263 C346 296 349 315 349 325 C349 372 299 403 222 403 C129 403 49 349 49 287 C49 264 62 249 81 249 C103 249 128 266 137 288 C141 298 144 315 145 333 C146 350 147 354 151 359 C159 369 179 376 201 376 C228 376 241 365 241 342 C241 331 240 328 226 258 L221 233 C145 226 97 213 53 185 C2 154 -27 108 -27 60 C-27 17 2 -10 50 -10 C97 -10 142 13 183 56 C193 19 219 -5 250 -5 C283 -5 317 11 347 40 L336 56 Z M204 156 C187 73 166 42 128 42 C106 42 92 62 92 92 C92 161 140 205 215 206 L204 156 Z " />
<glyph glyph-name="atilde" unicode="&#xe3;" horiz-adv-x="412" d="M129 495 C153 519 168 528 188 528 C204 528 231 521 254 511 C284 498 287 497 300 497 C337 497 378 526 418 581 L400 591 C382 569 365 558 348 558 C339 558 331 561 295 575 C266 586 253 589 237 589 C196 589 161 566 112 505 L129 495 Z M336 56 C326 46 318 41 309 41 C301 41 296 47 296 57 C296 61 296 63 300 81 L339 263 C346 296 349 315 349 325 C349 372 299 403 222 403 C129 403 49 349 49 287 C49 264 62 249 81 249 C103 249 128 266 137 288 C141 298 144 315 145 333 C146 350 147 354 151 359 C159 369 179 376 201 376 C228 376 241 365 241 342 C241 331 240 328 226 258 L221 233 C145 226 97 213 53 185 C2 154 -27 108 -27 60 C-27 17 2 -10 50 -10 C97 -10 142 13 183 56 C193 19 219 -5 250 -5 C283 -5 317 11 347 40 L336 56 Z M204 156 C187 73 166 42 128 42 C106 42 92 62 92 92 C92 161 140 205 215 206 L204 156 Z " />
<glyph glyph-name="adieresis" unicode="&#xe4;" horiz-adv-x="412" d="M196 611 C156 611 119 575 119 536 C119 508 140 487 168 487 C208 487 245 523 245 562 C245 590 224 611 196 611 L196 611 Z M365 611 C325 611 288 575 288 536 C288 508 309 487 337 487 C377 487 414 523 414 562 C414 590 393 611 365 611 L365 611 Z M336 56 C326 46 318 41 309 41 C301 41 296 47 296 57 C296 61 296 63 300 81 L339 263 C346 296 349 315 349 325 C349 372 299 403 222 403 C129 403 49 349 49 287 C49 264 62 249 81 249 C103 249 128 266 137 288 C141 298 144 315 145 333 C146 350 147 354 151 359 C159 369 179 376 201 376 C228 376 241 365 241 342 C241 331 240 328 226 258 L221 233 C145 226 97 213 53 185 C2 154 -27 108 -27 60 C-27 17 2 -10 50 -10 C97 -10 142 13 183 56 C193 19 219 -5 250 -5 C283 -5 317 11 347 40 L336 56 Z M204 156 C187 73 166 42 128 42 C106 42 92 62 92 92 C92 161 140 205 215 206 L204 156 Z " />
<glyph glyph-name="aring" unicode="&#xe5;" horiz-adv-x="412" d="M284 630 C228 630 175 580 175 527 C175 488 205 460 247 460 C303 460 355 508 355 561 C355 601 325 630 284 630 L284 630 Z M275 591 C297 591 312 575 312 554 C312 525 285 499 255 499 C234 499 218 514 218 534 C218 563 246 591 275 591 L275 591 Z M336 56 C326 46 318 41 309 41 C301 41 296 47 296 57 C296 61 296 63 300 81 L339 263 C346 296 349 315 349 325 C349 372 299 403 222 403 C129 403 49 349 49 287 C49 264 62 249 81 249 C103 249 128 266 137 288 C141 298 144 315 145 333 C146 350 147 354 151 359 C159 369 179 376 201 376 C228 376 241 365 241 342 C241 331 240 328 226 258 L221 233 C145 226 97 213 53 185 C2 154 -27 108 -27 60 C-27 17 2 -10 50 -10 C97 -10 142 13 183 56 C193 19 219 -5 250 -5 C283 -5 317 11 347 40 L336 56 Z M204 156 C187 73 166 42 128 42 C106 42 92 62 92 92 C92 161 140 205 215 206 L204 156 Z " />
<glyph glyph-name="ae" unicode="&#xe6;" horiz-adv-x="605" d="M561 221 C563 239 564 247 564 259 C564 347 514 403 436 403 C399 403 365 392 324 368 C301 392 271 403 224 403 C133 403 48 345 48 283 C48 261 64 244 85 244 C123 244 145 278 145 337 L145 344 C145 360 176 376 207 376 C230 376 243 364 243 342 C243 335 242 324 239 313 L221 228 C170 228 116 217 76 198 C16 170 -26 115 -26 66 C-26 21 8 -10 57 -10 C118 -10 171 18 223 77 C234 20 276 -10 343 -10 C394 -10 437 6 476 39 C496 56 509 71 537 110 L520 122 C470 51 426 20 374 20 C336 20 311 45 311 82 C311 93 314 118 319 141 L336 221 L561 221 Z M342 246 L348 274 C365 357 379 376 421 376 C447 376 460 363 460 339 C460 325 459 317 450 274 L444 246 L342 246 Z M203 141 C194 102 191 89 183 77 C169 54 145 39 123 39 C100 39 88 55 88 85 C88 151 138 203 204 203 C208 203 210 203 216 202 L203 141 Z " />
<glyph glyph-name="ccedilla" unicode="&#xe7;" horiz-adv-x="388" d="M150 -10 C220 -9 288 35 330 106 L312 118 C270 54 224 20 177 20 C137 20 115 44 115 89 C115 128 126 187 146 259 C169 345 197 376 249 376 C271 376 281 371 292 355 C262 336 243 305 243 275 C243 250 262 231 288 231 C326 231 361 270 361 312 C361 365 312 403 245 403 C115 403 -6 279 -6 145 C-6 63 49 0 127 -9 L93 -72 C115 -74 126 -86 126 -110 C126 -142 99 -181 77 -181 C65 -181 56 -169 56 -155 C56 -154 56 -154 57 -145 L56 -137 C56 -119 52 -114 39 -114 C23 -114 10 -131 10 -149 C10 -175 41 -198 77 -198 C107 -198 152 -181 174 -161 C191 -146 203 -120 203 -102 C203 -72 175 -49 140 -49 C137 -49 133 -49 128 -50 L150 -10 Z " />
<glyph glyph-name="egrave" unicode="&#xe8;" horiz-adv-x="396" d="M258 621 L161 621 L156 596 L290 471 L308 480 L258 621 Z M351 221 C356 242 357 252 357 267 C357 349 305 403 228 403 C103 403 -6 282 -6 144 C-6 56 58 -10 143 -10 C211 -10 271 29 327 110 L308 121 C262 55 213 20 164 20 C125 20 102 44 102 85 C102 101 102 101 123 199 L127 221 L351 221 Z M133 246 L139 274 C148 318 153 335 161 348 C173 367 191 376 217 376 C247 376 262 363 262 338 C262 324 260 310 252 274 L246 246 L133 246 Z " />
<glyph glyph-name="eacute" unicode="&#xe9;" horiz-adv-x="396" d="M324 621 L214 480 L228 471 L415 596 L421 621 L324 621 Z M351 221 C356 242 357 252 357 267 C357 349 305 403 228 403 C103 403 -6 282 -6 144 C-6 56 58 -10 143 -10 C211 -10 271 29 327 110 L308 121 C262 55 213 20 164 20 C125 20 102 44 102 85 C102 101 102 101 123 199 L127 221 L351 221 Z M133 246 L139 274 C148 318 153 335 161 348 C173 367 191 376 217 376 C247 376 262 363 262 338 C262 324 260 310 252 274 L246 246 L133 246 Z " />
<glyph glyph-name="ecircumflex" unicode="&#xea;" horiz-adv-x="396" d="M128 472 L256 534 L358 472 L375 485 L286 621 L263 621 L117 485 L128 472 Z M351 221 C356 242 357 252 357 267 C357 349 305 403 228 403 C103 403 -6 282 -6 144 C-6 56 58 -10 143 -10 C211 -10 271 29 327 110 L308 121 C262 55 213 20 164 20 C125 20 102 44 102 85 C102 101 102 101 123 199 L127 221 L351 221 Z M133 246 L139 274 C148 318 153 335 161 348 C173 367 191 376 217 376 C247 376 262 363 262 338 C262 324 260 310 252 274 L246 246 L133 246 Z " />
<glyph glyph-name="edieresis" unicode="&#xeb;" horiz-adv-x="396" d="M188 611 C148 611 111 575 111 536 C111 508 132 487 160 487 C200 487 237 523 237 562 C237 590 216 611 188 611 L188 611 Z M357 611 C317 611 280 575 280 536 C280 508 301 487 329 487 C369 487 406 523 406 562 C406 590 385 611 357 611 L357 611 Z M351 221 C356 242 357 252 357 267 C357 349 305 403 228 403 C103 403 -6 282 -6 144 C-6 56 58 -10 143 -10 C211 -10 271 29 327 110 L308 121 C262 55 213 20 164 20 C125 20 102 44 102 85 C102 101 102 101 123 199 L127 221 L351 221 Z M133 246 L139 274 C148 318 153 335 161 348 C173 367 191 376 217 376 C247 376 262 363 262 338 C262 324 260 310 252 274 L246 246 L133 246 Z " />
<glyph glyph-name="igrave" unicode="&#xec;" horiz-adv-x="252" d="M-2 25 L-50 25 L-55 0 L173 0 L178 25 L118 25 L199 404 C157 396 127 393 51 393 L29 393 L23 368 L71 368 L-2 25 Z M174 621 L78 621 L72 596 L206 471 L225 480 L174 621 Z " />
<glyph glyph-name="iacute" unicode="&#xed;" horiz-adv-x="252" d="M-2 25 L-50 25 L-55 0 L173 0 L178 25 L118 25 L199 404 C157 396 127 393 51 393 L29 393 L23 368 L71 368 L-2 25 Z M245 621 L135 480 L150 471 L337 596 L342 621 L245 621 Z " />
<glyph glyph-name="icircumflex" unicode="&#xee;" horiz-adv-x="251" d="M-2 25 L-50 25 L-55 0 L173 0 L178 25 L118 25 L199 404 C157 396 127 393 51 393 L29 393 L23 368 L71 368 L-2 25 Z M40 472 L168 534 L270 472 L287 485 L199 621 L175 621 L29 485 L40 472 Z " />
<glyph glyph-name="idieresis" unicode="&#xef;" horiz-adv-x="251" d="M-2 25 L-50 25 L-55 0 L173 0 L178 25 L118 25 L199 404 C157 396 127 393 51 393 L29 393 L23 368 L71 368 L-2 25 Z M104 611 C64 611 27 575 27 536 C27 508 48 487 76 487 C116 487 153 523 153 562 C153 590 132 611 104 611 L104 611 Z M252 611 C212 611 175 575 175 536 C175 508 196 487 224 487 C264 487 301 523 301 562 C301 590 280 611 252 611 L252 611 Z " />
<glyph glyph-name="eth" unicode="&#xf0;" horiz-adv-x="461" d="M199 517 L208 497 L294 555 C308 517 314 477 314 416 C314 410 314 398 313 383 C289 399 276 403 248 403 C195 403 143 385 101 353 C36 303 -5 225 -5 152 C-5 55 60 -10 157 -10 C234 -10 306 27 354 92 C395 146 414 211 414 294 C414 396 389 488 336 581 L423 639 L413 660 L326 602 C319 610 315 615 313 617 C306 626 298 635 291 645 C284 654 271 667 252 684 L231 661 C247 646 273 608 286 578 L199 517 Z M240 376 C271 376 292 354 292 320 C292 282 270 167 251 105 C232 45 204 17 162 17 C132 17 111 40 111 73 C111 112 133 226 152 288 C171 348 199 376 240 376 L240 376 Z " />
<glyph glyph-name="ntilde" unicode="&#xf1;" horiz-adv-x="502" d="M169 495 C192 519 208 528 228 528 C244 528 271 521 294 511 C324 498 327 497 340 497 C377 497 418 526 458 581 L440 591 C422 569 405 558 388 558 C379 558 370 561 335 575 C306 586 293 589 277 589 C235 589 201 566 152 505 L169 495 Z M15 25 L-45 25 L-50 0 L166 0 L171 25 L135 25 L176 218 C188 272 194 288 215 314 C237 343 270 363 295 363 C315 363 326 350 326 328 C326 318 323 298 318 274 L265 25 L217 25 L212 0 L428 0 L433 25 L385 25 L438 274 C443 298 446 319 446 329 C446 374 409 403 353 403 C299 403 244 377 200 331 L216 404 C172 396 139 393 62 393 L34 393 L28 368 L88 368 L15 25 Z " />
<glyph glyph-name="ograve" unicode="&#xf2;" horiz-adv-x="461" d="M283 621 L186 621 L181 596 L315 471 L333 480 L283 621 Z M245 403 C115 403 -5 283 -5 152 C-5 57 61 -10 155 -10 C288 -10 408 109 408 241 C408 338 343 403 245 403 L245 403 Z M240 376 C271 376 292 354 292 320 C292 282 270 167 251 105 C232 45 204 17 162 17 C132 17 111 40 111 73 C111 112 133 226 152 288 C171 348 199 376 240 376 L240 376 Z " />
<glyph glyph-name="oacute" unicode="&#xf3;" horiz-adv-x="461" d="M349 621 L239 480 L254 471 L440 596 L446 621 L349 621 Z M245 403 C115 403 -5 283 -5 152 C-5 57 61 -10 155 -10 C288 -10 408 109 408 241 C408 338 343 403 245 403 L245 403 Z M240 376 C271 376 292 354 292 320 C292 282 270 167 251 105 C232 45 204 17 162 17 C132 17 111 40 111 73 C111 112 133 226 152 288 C171 348 199 376 240 376 L240 376 Z " />
<glyph glyph-name="ocircumflex" unicode="&#xf4;" horiz-adv-x="461" d="M154 472 L283 534 L385 472 L401 485 L313 621 L290 621 L144 485 L154 472 Z M245 403 C115 403 -5 283 -5 152 C-5 57 61 -10 155 -10 C288 -10 408 109 408 241 C408 338 343 403 245 403 L245 403 Z M240 376 C271 376 292 354 292 320 C292 282 270 167 251 105 C232 45 204 17 162 17 C132 17 111 40 111 73 C111 112 133 226 152 288 C171 348 199 376 240 376 L240 376 Z " />
<glyph glyph-name="otilde" unicode="&#xf5;" horiz-adv-x="461" d="M151 495 C174 519 189 528 210 528 C226 528 253 521 275 511 C305 498 308 497 321 497 C359 497 400 526 440 581 L422 591 C404 569 386 558 370 558 C360 558 352 561 316 575 C287 586 274 589 259 589 C217 589 183 566 133 505 L151 495 Z M245 403 C115 403 -5 283 -5 152 C-5 57 61 -10 155 -10 C288 -10 408 109 408 241 C408 338 343 403 245 403 L245 403 Z M240 376 C271 376 292 354 292 320 C292 282 270 167 251 105 C232 45 204 17 162 17 C132 17 111 40 111 73 C111 112 133 226 152 288 C171 348 199 376 240 376 L240 376 Z " />
<glyph glyph-name="odieresis" unicode="&#xf6;" horiz-adv-x="461" d="M213 611 C173 611 136 575 136 536 C136 508 157 487 186 487 C226 487 263 523 263 562 C263 590 242 611 213 611 L213 611 Z M383 611 C343 611 306 575 306 536 C306 508 327 487 355 487 C395 487 432 523 432 562 C432 590 411 611 383 611 L383 611 Z M245 403 C115 403 -5 283 -5 152 C-5 57 61 -10 155 -10 C288 -10 408 109 408 241 C408 338 343 403 245 403 L245 403 Z M240 376 C271 376 292 354 292 320 C292 282 270 167 251 105 C232 45 204 17 162 17 C132 17 111 40 111 73 C111 112 133 226 152 288 C171 348 199 376 240 376 L240 376 Z " />
<glyph glyph-name="divide" unicode="&#xf7;" horiz-adv-x="450" d="M34 307 L404 307 L411 340 L41 340 L34 307 Z M208 253 C166 253 126 210 126 164 C126 132 147 109 177 109 C219 109 259 152 259 198 C259 230 238 253 208 253 L208 253 Z M270 545 C228 545 188 502 188 456 C188 424 209 401 239 401 C281 401 321 444 321 490 C321 522 300 545 270 545 L270 545 Z " />
<glyph glyph-name="oslash" unicode="&#xf8;" horiz-adv-x="460" d="M427 397 L412 417 L357 364 C326 391 292 403 245 403 C115 403 -5 283 -5 152 C-5 111 6 77 30 46 L-23 -5 L-8 -25 L47 28 C77 2 112 -10 158 -10 C288 -10 408 110 408 241 C408 281 397 315 374 345 L427 397 Z M285 259 C276 203 261 139 251 105 C232 45 204 17 163 17 C132 17 111 39 111 73 C111 77 111 84 112 91 L285 259 Z M117 131 C129 197 142 254 153 288 C171 348 199 376 240 376 C272 376 292 354 292 319 C292 315 292 310 291 300 L117 131 Z " />
<glyph glyph-name="ugrave" unicode="&#xf9;" horiz-adv-x="473" d="M285 621 L188 621 L183 596 L317 471 L335 480 L285 621 Z M220 0 L400 0 L405 25 L345 25 L426 404 C384 396 353 393 278 393 L255 393 L250 368 L298 368 L256 171 C244 116 236 95 214 71 C193 48 166 33 144 33 C128 33 116 47 116 64 C116 72 117 78 124 110 L186 404 C144 396 114 393 38 393 L16 393 L11 368 L59 368 L9 133 C3 105 -1 78 -1 64 C-1 17 29 -10 84 -10 C139 -10 180 11 234 69 L220 0 Z " />
<glyph glyph-name="uacute" unicode="&#xfa;" horiz-adv-x="473" d="M346 621 L236 480 L251 471 L438 596 L443 621 L346 621 Z M220 0 L400 0 L405 25 L345 25 L426 404 C384 396 353 393 278 393 L255 393 L250 368 L298 368 L256 171 C244 116 236 95 214 71 C193 48 166 33 144 33 C128 33 116 47 116 64 C116 72 117 78 124 110 L186 404 C144 396 114 393 38 393 L16 393 L11 368 L59 368 L9 133 C3 105 -1 78 -1 64 C-1 17 29 -10 84 -10 C139 -10 180 11 234 69 L220 0 Z " />
<glyph glyph-name="ucircumflex" unicode="&#xfb;" horiz-adv-x="473" d="M154 472 L282 534 L384 472 L401 485 L312 621 L289 621 L143 485 L154 472 Z M220 0 L400 0 L405 25 L345 25 L426 404 C384 396 353 393 278 393 L255 393 L250 368 L298 368 L256 171 C244 116 236 95 214 71 C193 48 166 33 144 33 C128 33 116 47 116 64 C116 72 117 78 124 110 L186 404 C144 396 114 393 38 393 L16 393 L11 368 L59 368 L9 133 C3 105 -1 78 -1 64 C-1 17 29 -10 84 -10 C139 -10 180 11 234 69 L220 0 Z " />
<glyph glyph-name="udieresis" unicode="&#xfc;" horiz-adv-x="473" d="M217 611 C177 611 140 575 140 536 C140 508 161 487 189 487 C229 487 266 523 266 562 C266 591 245 611 217 611 L217 611 Z M386 611 C346 611 309 575 309 536 C309 508 330 487 358 487 C398 487 435 523 435 562 C435 591 414 611 386 611 L386 611 Z M220 0 L400 0 L405 25 L345 25 L426 404 C384 396 353 393 278 393 L255 393 L250 368 L298 368 L256 171 C244 116 236 95 214 71 C193 48 166 33 144 33 C128 33 116 47 116 64 C116 72 117 78 124 110 L186 404 C144 396 114 393 38 393 L16 393 L11 368 L59 368 L9 133 C3 105 -1 78 -1 64 C-1 17 29 -10 84 -10 C139 -10 180 11 234 69 L220 0 Z " />
<glyph glyph-name="yacute" unicode="&#xfd;" horiz-adv-x="402" d="M328 621 L217 480 L232 471 L419 596 L424 621 L328 621 Z M118 2 L48 -126 C19 -177 3 -200 -7 -200 C-12 -200 -15 -197 -17 -191 C-25 -169 -38 -158 -57 -158 C-87 -158 -116 -190 -116 -224 C-116 -252 -97 -270 -69 -270 C-47 -270 -25 -259 -3 -237 C16 -218 29 -199 64 -139 L336 329 C355 362 366 369 399 368 L420 368 L425 393 L273 393 L267 368 L296 368 C316 368 320 366 320 355 C320 348 317 341 306 322 L204 145 L160 368 L204 368 L209 393 L2 393 L-4 368 L41 368 L118 2 Z " />
<glyph glyph-name="thorn" unicode="&#xfe;" horiz-adv-x="471" d="M-59 -242 L-119 -242 L-124 -267 L116 -267 L121 -242 L61 -242 L128 70 C149 12 173 -10 216 -10 C317 -10 420 124 420 255 C420 341 371 403 305 403 C261 403 227 382 183 329 L257 678 C214 670 182 667 102 667 L74 667 L69 642 L129 642 L-59 -242 Z M284 373 C299 373 305 362 305 337 C305 298 284 184 266 122 C245 52 222 20 194 20 C165 20 145 60 145 116 C145 239 218 373 284 373 L284 373 Z " />
<glyph glyph-name="ydieresis" unicode="&#xff;" horiz-adv-x="402" d="M181 611 C141 611 104 575 104 536 C104 508 125 487 153 487 C193 487 230 523 230 562 C230 590 209 611 181 611 L181 611 Z M351 611 C311 611 274 575 274 536 C274 508 295 487 323 487 C363 487 400 523 400 562 C400 590 379 611 351 611 L351 611 Z M118 2 L48 -126 C19 -177 3 -200 -7 -200 C-12 -200 -15 -197 -17 -191 C-25 -169 -38 -158 -57 -158 C-87 -158 -116 -190 -116 -224 C-116 -252 -97 -270 -69 -270 C-47 -270 -25 -259 -3 -237 C16 -218 29 -199 64 -139 L336 329 C355 362 366 369 399 368 L420 368 L425 393 L273 393 L267 368 L296 368 C316 368 320 366 320 355 C320 348 317 341 306 322 L204 145 L160 368 L204 368 L209 393 L2 393 L-4 368 L41 368 L118 2 Z " />
<glyph glyph-name="Amacron" unicode="&#x100;" horiz-adv-x="564" d="M297 179 L314 25 L236 25 L231 0 L499 0 L505 25 L441 25 L373 667 L344 667 L31 82 C6 31 -3 24 -44 25 L-75 25 L-80 0 L106 0 L111 25 L63 25 C42 25 36 28 36 36 C36 42 38 47 49 67 L109 179 L297 179 Z M294 204 L122 204 L264 469 L294 204 Z M238 807 L228 761 L528 761 L538 807 L238 807 Z " />
<glyph glyph-name="amacron" unicode="&#x101;" horiz-adv-x="412" d="M336 56 C326 46 318 41 309 41 C301 41 296 47 296 57 C296 61 296 63 300 81 L339 263 C346 296 349 315 349 325 C349 372 299 403 222 403 C129 403 49 349 49 287 C49 264 62 249 81 249 C103 249 128 266 137 288 C141 298 144 315 145 333 C146 350 147 354 151 359 C159 369 179 376 201 376 C228 376 241 365 241 342 C241 331 240 328 226 258 L221 233 C145 226 97 213 53 185 C2 154 -27 108 -27 60 C-27 17 2 -10 50 -10 C97 -10 142 13 183 56 C193 19 219 -5 250 -5 C283 -5 317 11 347 40 L336 56 Z M204 156 C187 73 166 42 128 42 C106 42 92 62 92 92 C92 161 140 205 215 206 L204 156 Z M134 563 L124 516 L391 516 L401 563 L134 563 Z " />
<glyph glyph-name="Abreve" unicode="&#x102;" horiz-adv-x="564" d="M297 179 L314 25 L236 25 L231 0 L499 0 L505 25 L441 25 L373 667 L344 667 L31 82 C6 31 -3 24 -44 25 L-75 25 L-80 0 L106 0 L111 25 L63 25 C42 25 36 28 36 36 C36 42 38 47 49 67 L109 179 L297 179 Z M294 204 L122 204 L264 469 L294 204 Z M248 848 C253 772 299 726 370 726 C442 726 507 771 545 848 L518 848 C482 812 442 796 385 796 C328 796 295 812 275 848 L248 848 Z " />
<glyph glyph-name="abreve" unicode="&#x103;" horiz-adv-x="412" d="M336 56 C326 46 318 41 309 41 C301 41 296 47 296 57 C296 61 296 63 300 81 L339 263 C346 296 349 315 349 325 C349 372 299 403 222 403 C129 403 49 349 49 287 C49 264 62 249 81 249 C103 249 128 266 137 288 C141 298 144 315 145 333 C146 350 147 354 151 359 C159 369 179 376 201 376 C228 376 241 365 241 342 C241 331 240 328 226 258 L221 233 C145 226 97 213 53 185 C2 154 -27 108 -27 60 C-27 17 2 -10 50 -10 C97 -10 142 13 183 56 C193 19 219 -5 250 -5 C283 -5 317 11 347 40 L336 56 Z M204 156 C187 73 166 42 128 42 C106 42 92 62 92 92 C92 161 140 205 215 206 L204 156 Z M372 615 C339 570 308 552 264 552 C221 552 194 574 188 615 L161 615 C160 603 160 598 160 590 C160 521 195 477 250 477 C312 477 368 530 396 615 L372 615 Z " />
<glyph glyph-name="Aogonek" unicode="&#x104;" horiz-adv-x="564" d="M499 0 L505 25 L441 25 L373 667 L344 667 L31 82 C6 31 -3 24 -44 25 L-75 25 L-80 0 L106 0 L111 25 L63 25 C42 25 36 28 36 36 C36 42 38 47 49 67 L109 179 L297 179 L314 25 L236 25 L231 0 L397 0 C311 -42 280 -75 280 -124 C280 -159 304 -178 350 -178 C380 -178 405 -171 441 -154 L447 -127 C430 -134 422 -136 408 -136 C383 -136 369 -123 369 -100 C369 -67 390 -38 438 0 L499 0 Z M294 204 L122 204 L264 469 L294 204 Z " />
<glyph glyph-name="aogonek" unicode="&#x105;" horiz-adv-x="412" d="M336 56 C326 46 318 41 309 41 C301 41 296 47 296 57 C296 61 296 63 300 81 L339 263 C346 296 349 315 349 325 C349 372 299 403 222 403 C129 403 49 349 49 287 C49 264 62 249 81 249 C103 249 128 266 137 288 C141 298 144 315 145 333 C146 350 147 354 151 359 C159 369 179 376 201 376 C228 376 241 365 241 342 C241 331 240 328 226 258 L221 233 C145 226 97 213 53 185 C2 154 -27 108 -27 60 C-27 17 2 -10 50 -10 C97 -10 142 13 183 56 C191 23 217 -2 246 -4 C168 -44 139 -75 139 -120 C139 -151 162 -169 202 -169 C234 -169 249 -165 295 -145 L300 -121 C283 -127 275 -129 261 -129 C236 -129 222 -117 222 -95 C222 -64 246 -33 298 6 C318 15 331 24 347 40 L336 56 Z M204 156 C187 73 166 42 128 42 C106 42 92 62 92 92 C92 161 140 205 215 206 L204 156 Z " />
<glyph glyph-name="Cacute" unicode="&#x106;" horiz-adv-x="557" d="M576 667 L552 667 L527 626 C499 665 457 684 402 684 C209 684 22 460 22 227 C22 82 113 -17 245 -17 C305 -17 347 0 401 48 L416 0 L440 0 L487 186 L463 186 C411 74 337 10 260 10 C199 10 167 50 167 127 C167 168 174 211 200 327 C233 478 243 512 269 562 C301 623 352 657 412 657 C484 657 522 606 522 508 L522 493 L546 493 L576 667 Z M475 846 L321 740 L330 726 L603 821 L609 846 L475 846 Z " />
<glyph glyph-name="cacute" unicode="&#x107;" horiz-adv-x="388" d="M312 118 C270 54 224 20 177 20 C137 20 115 44 115 89 C115 128 126 188 146 259 C169 345 197 376 249 376 C271 376 281 371 292 355 C262 337 243 305 243 276 C243 250 262 231 288 231 C326 231 361 270 361 312 C361 365 312 403 245 403 C115 403 -6 279 -6 145 C-6 55 59 -10 150 -10 C219 -10 282 30 331 106 L312 118 Z M324 621 L214 480 L228 471 L415 596 L420 621 L324 621 Z " />
<glyph glyph-name="Ccircumflex" unicode="&#x108;" horiz-adv-x="557" d="M576 667 L552 667 L527 626 C499 665 457 684 402 684 C209 684 22 460 22 227 C22 82 113 -17 245 -17 C305 -17 347 0 401 48 L416 0 L440 0 L487 186 L463 186 C411 74 337 10 260 10 C199 10 167 50 167 127 C167 168 174 211 200 327 C233 478 243 512 269 562 C301 623 352 657 412 657 C484 657 522 606 522 508 L522 493 L546 493 L576 667 Z M258 726 L425 775 L572 726 L589 742 L458 846 L423 846 L247 742 L258 726 Z " />
<glyph glyph-name="Cdotaccent" unicode="&#x10a;" horiz-adv-x="557" d="M576 667 L552 667 L527 626 C499 665 457 684 402 684 C209 684 22 460 22 227 C22 82 113 -17 245 -17 C305 -17 347 0 401 48 L416 0 L440 0 L487 186 L463 186 C411 74 337 10 260 10 C199 10 167 50 167 127 C167 168 174 211 200 327 C233 478 243 512 269 562 C301 623 352 657 412 657 C484 657 522 606 522 508 L522 493 L546 493 L576 667 Z M431 850 C391 850 354 814 354 776 C354 748 375 727 403 727 C443 727 480 763 480 801 C480 829 459 850 431 850 L431 850 Z " />
<glyph glyph-name="cdotaccent" unicode="&#x10b;" horiz-adv-x="388" d="M312 118 C270 54 224 20 177 20 C137 20 115 44 115 89 C115 128 126 188 146 259 C169 345 197 376 249 376 C271 376 281 371 292 355 C262 337 243 305 243 276 C243 250 262 231 288 231 C326 231 361 270 361 312 C361 365 312 403 245 403 C115 403 -6 279 -6 145 C-6 55 59 -10 150 -10 C219 -10 282 30 331 106 L312 118 Z M283 611 C243 611 206 575 206 536 C206 508 227 487 255 487 C295 487 332 523 332 562 C332 590 311 611 283 611 L283 611 Z " />
<glyph glyph-name="Ccaron" unicode="&#x10c;" horiz-adv-x="557" d="M576 667 L552 667 L527 626 C499 665 457 684 402 684 C209 684 22 460 22 227 C22 82 113 -17 245 -17 C305 -17 347 0 401 48 L416 0 L440 0 L487 186 L463 186 C411 74 337 10 260 10 C199 10 167 50 167 127 C167 168 174 211 200 327 C233 478 243 512 269 562 C301 623 352 657 412 657 C484 657 522 606 522 508 L522 493 L546 493 L576 667 Z M586 847 L419 798 L273 847 L256 831 L387 727 L422 727 L597 831 L586 847 Z " />
<glyph glyph-name="ccaron" unicode="&#x10d;" horiz-adv-x="388" d="M312 118 C270 54 224 20 177 20 C137 20 115 44 115 89 C115 128 126 188 146 259 C169 345 197 376 249 376 C271 376 281 371 292 355 C262 337 243 305 243 276 C243 250 262 231 288 231 C326 231 361 270 361 312 C361 365 312 403 245 403 C115 403 -6 279 -6 145 C-6 55 59 -10 150 -10 C219 -10 282 30 331 106 L312 118 Z M402 621 L273 559 L171 621 L154 608 L243 472 L266 472 L412 608 L402 621 Z " />
<glyph glyph-name="Dcaron" unicode="&#x10e;" horiz-adv-x="641" d="M31 25 L-39 25 L-44 0 L246 0 C314 0 332 1 356 7 C404 20 452 52 493 98 C571 187 618 317 618 444 C618 519 593 588 550 627 C515 660 488 667 387 667 L98 667 L92 642 L162 642 L31 25 Z M171 25 L302 642 L383 642 C418 642 433 638 446 624 C462 606 470 577 470 537 C470 491 462 438 440 334 C409 189 390 132 357 80 C330 39 304 25 252 25 L171 25 Z M555 847 L388 798 L242 847 L225 831 L356 727 L391 727 L566 831 L555 847 Z " />
<glyph glyph-name="dcaron" unicode="&#x10f;" horiz-adv-x="581" d="M217 0 L397 0 L403 25 L343 25 L481 678 C440 670 409 667 333 667 L311 667 L306 642 L354 642 L288 335 C267 383 241 403 200 403 C96 403 -7 270 -7 136 C-7 50 42 -10 113 -10 C157 -10 194 12 230 60 L217 0 Z M226 373 C253 373 275 337 275 293 C275 164 211 21 153 21 C130 21 116 41 116 73 C116 133 134 235 156 293 C174 345 200 373 226 373 L226 373 Z M517 436 C599 494 633 544 633 606 C633 649 610 678 574 678 C535 678 499 641 499 600 C499 573 516 553 540 553 C561 553 580 565 594 586 C591 532 564 492 506 455 L517 436 Z " />
<glyph glyph-name="Dcroat" unicode="&#x110;" horiz-adv-x="641" d="M101 355 L31 355 L26 330 L96 330 L31 25 L-39 25 L-44 0 L246 0 C314 0 332 1 356 7 C404 20 452 52 493 98 C571 187 618 317 618 444 C618 519 593 588 550 627 C515 660 488 667 387 667 L98 667 L92 642 L162 642 L101 355 Z M241 355 L302 642 L383 642 C418 642 433 638 446 624 C462 606 470 577 470 537 C470 491 462 437 440 334 C409 189 390 132 357 81 C330 39 304 25 252 25 L171 25 L236 330 L350 330 L355 355 L241 355 Z " />
<glyph glyph-name="dcroat" unicode="&#x111;" horiz-adv-x="471" d="M331 534 L288 335 C267 383 241 403 200 403 C96 403 -7 270 -7 136 C-7 50 42 -10 113 -10 C157 -10 194 12 230 60 L217 0 L397 0 L403 25 L343 25 L451 534 L511 534 L516 559 L456 559 L481 678 C440 670 409 667 333 667 L311 667 L306 642 L354 642 L336 559 L203 559 L198 534 L331 534 Z M226 373 C253 373 275 337 275 293 C275 164 211 21 153 21 C130 21 116 41 116 73 C116 133 134 235 156 293 C174 345 200 373 226 373 L226 373 Z " />
<glyph glyph-name="Emacron" unicode="&#x112;" horiz-adv-x="564" d="M33 25 L-39 25 L-44 0 L449 0 L507 212 L483 212 C423 65 371 23 250 25 L173 25 L237 326 L258 326 C314 326 339 306 339 262 L339 258 L339 249 C338 238 337 228 331 197 L353 197 L411 469 L389 469 C371 383 336 349 266 351 L243 351 L304 642 L400 642 C460 642 482 635 501 611 C517 590 525 560 525 517 L525 497 L549 497 L571 667 L98 667 L92 642 L164 642 L33 25 Z M239 807 L229 761 L529 761 L539 807 L239 807 Z " />
<glyph glyph-name="emacron" unicode="&#x113;" horiz-adv-x="396" d="M351 221 C356 242 357 252 357 267 C357 349 305 403 228 403 C103 403 -6 282 -6 144 C-6 56 58 -10 143 -10 C211 -10 271 29 327 110 L308 121 C262 55 213 20 164 20 C125 20 102 44 102 85 C102 101 102 101 123 199 L127 221 L351 221 Z M133 246 L139 274 C148 318 153 335 161 348 C173 367 191 376 217 376 C247 376 262 363 262 338 C262 324 260 310 252 274 L246 246 L133 246 Z M121 563 L111 516 L378 516 L388 563 L121 563 Z " />
<glyph glyph-name="Ebreve" unicode="&#x114;" horiz-adv-x="564" d="M33 25 L-39 25 L-44 0 L449 0 L507 212 L483 212 C423 65 371 23 250 25 L173 25 L237 326 L258 326 C314 326 339 306 339 262 L339 258 L339 249 C338 238 337 228 331 197 L353 197 L411 469 L389 469 C371 383 336 349 266 351 L243 351 L304 642 L400 642 C460 642 482 635 501 611 C517 590 525 560 525 517 L525 497 L549 497 L571 667 L98 667 L92 642 L164 642 L33 25 Z M255 848 C260 772 307 726 378 726 C450 726 514 771 553 848 L526 848 C490 812 450 796 393 796 C336 796 303 812 282 848 L255 848 Z " />
<glyph glyph-name="ebreve" unicode="&#x115;" horiz-adv-x="396" d="M351 221 C356 242 357 252 357 267 C357 349 305 403 228 403 C103 403 -6 282 -6 144 C-6 56 58 -10 143 -10 C211 -10 271 29 327 110 L308 121 C262 55 213 20 164 20 C125 20 102 44 102 85 C102 101 102 101 123 199 L127 221 L351 221 Z M133 246 L139 274 C148 318 153 335 161 348 C173 367 191 376 217 376 C247 376 262 363 262 338 C262 324 260 310 252 274 L246 246 L133 246 Z M371 615 C339 570 307 552 263 552 C221 552 194 574 187 615 L161 615 C159 604 159 599 159 591 C159 521 194 477 249 477 C312 477 367 530 396 615 L371 615 Z " />
<glyph glyph-name="Edotaccent" unicode="&#x116;" horiz-adv-x="564" d="M33 25 L-39 25 L-44 0 L449 0 L507 212 L483 212 C423 65 371 23 250 25 L173 25 L237 326 L258 326 C314 326 339 306 339 262 L339 258 L339 249 C338 238 337 228 331 197 L353 197 L411 469 L389 469 C371 383 336 349 266 351 L243 351 L304 642 L400 642 C460 642 482 635 501 611 C517 590 525 560 525 517 L525 497 L549 497 L571 667 L98 667 L92 642 L164 642 L33 25 Z M403 850 C363 850 326 814 326 776 C326 748 347 727 375 727 C415 727 452 763 452 802 C452 830 431 850 403 850 L403 850 Z " />
<glyph glyph-name="edotaccent" unicode="&#x117;" horiz-adv-x="396" d="M351 221 C356 242 357 252 357 267 C357 349 305 403 228 403 C103 403 -6 282 -6 144 C-6 56 58 -10 143 -10 C211 -10 271 29 327 110 L308 121 C262 55 213 20 164 20 C125 20 102 44 102 85 C102 101 102 101 123 199 L127 221 L351 221 Z M133 246 L139 274 C148 318 153 335 161 348 C173 367 191 376 217 376 C247 376 262 363 262 338 C262 324 260 310 252 274 L246 246 L133 246 Z M272 611 C232 611 195 575 195 536 C195 508 216 487 244 487 C284 487 321 523 321 562 C321 590 300 611 272 611 L272 611 Z " />
<glyph glyph-name="Eogonek" unicode="&#x118;" horiz-adv-x="564" d="M449 0 L507 212 L483 212 C423 65 371 23 250 25 L173 25 L237 326 L258 326 C314 326 339 306 339 262 L339 258 L339 249 C338 238 337 228 331 197 L353 197 L411 469 L389 469 C371 383 336 349 266 351 L243 351 L304 642 L400 642 C460 642 482 635 501 611 C517 590 525 560 525 517 L525 497 L549 497 L571 667 L98 667 L92 642 L164 642 L33 25 L-39 25 L-44 0 L365 0 C279 -42 248 -75 248 -124 C248 -159 272 -178 318 -178 C347 -178 373 -171 409 -154 L415 -127 C398 -134 389 -136 376 -136 C351 -136 337 -123 337 -100 C337 -67 358 -37 406 0 L449 0 Z " />
<glyph glyph-name="eogonek" unicode="&#x119;" horiz-adv-x="396" d="M232 -121 C216 -127 207 -129 193 -129 C168 -129 154 -117 154 -95 C154 -63 180 -29 242 20 C281 50 298 68 327 110 L308 121 C262 55 213 20 164 20 C125 20 102 44 102 85 C102 101 102 101 123 199 L127 221 L351 221 C356 242 357 252 357 267 C357 349 305 403 228 403 C103 403 -6 282 -6 144 C-6 56 58 -10 143 -10 C153 -10 161 -9 172 -7 C102 -43 71 -77 71 -120 C71 -151 94 -169 134 -169 C167 -169 181 -165 227 -145 L232 -121 Z M133 246 L139 274 C148 318 153 335 161 348 C173 367 191 376 217 376 C247 376 262 363 262 338 C262 324 260 310 252 274 L246 246 L133 246 Z " />
<glyph glyph-name="Ecaron" unicode="&#x11a;" horiz-adv-x="564" d="M33 25 L-39 25 L-44 0 L449 0 L507 212 L483 212 C423 65 371 23 250 25 L173 25 L237 326 L258 326 C314 326 339 306 339 262 L339 258 L339 249 C338 238 337 228 331 197 L353 197 L411 469 L389 469 C371 383 336 349 266 351 L243 351 L304 642 L400 642 C460 642 482 635 501 611 C517 590 525 560 525 517 L525 497 L549 497 L571 667 L98 667 L92 642 L164 642 L33 25 Z M565 847 L397 798 L251 847 L234 831 L365 727 L400 727 L575 831 L565 847 Z " />
<glyph glyph-name="ecaron" unicode="&#x11b;" horiz-adv-x="396" d="M351 221 C356 242 357 252 357 267 C357 349 305 403 228 403 C103 403 -6 282 -6 144 C-6 56 58 -10 143 -10 C211 -10 271 29 327 110 L308 121 C262 55 213 20 164 20 C125 20 102 44 102 85 C102 101 102 101 123 199 L127 221 L351 221 Z M133 246 L139 274 C148 318 153 335 161 348 C173 367 191 376 217 376 C247 376 262 363 262 338 C262 324 260 310 252 274 L246 246 L133 246 Z M391 621 L262 559 L160 621 L144 608 L232 472 L256 472 L401 608 L391 621 Z " />
<glyph glyph-name="Gcircumflex" unicode="&#x11c;" horiz-adv-x="595" d="M580 667 L556 667 L522 635 C486 667 443 684 395 684 C198 684 19 465 19 225 C19 154 37 96 73 54 C110 11 171 -17 228 -17 C267 -17 312 -8 353 9 C404 29 440 53 501 109 L525 224 L565 224 L571 249 L301 249 L296 224 L385 224 L361 109 C349 52 296 10 237 10 C186 10 157 37 157 83 C157 119 174 221 202 355 C230 492 257 572 287 607 C314 639 355 657 400 657 C476 657 518 610 518 522 C518 514 518 501 516 480 L540 480 L580 667 Z M249 726 L416 775 L563 726 L580 742 L449 846 L414 846 L239 742 L249 726 Z " />
<glyph glyph-name="gcircumflex" unicode="&#x11d;" horiz-adv-x="444" d="M140 35 L66 35 L55 35 C29 35 19 42 19 58 C19 84 53 114 96 127 C120 112 145 106 173 106 C274 106 362 189 362 286 C362 301 360 311 354 327 C357 339 362 345 368 345 C371 345 373 344 375 340 C382 328 390 323 403 323 C426 323 447 347 447 375 C447 394 433 408 413 408 C386 408 363 390 341 350 C313 387 278 403 228 403 C126 403 34 320 34 227 C34 192 46 166 75 141 C8 121 -44 60 -44 0 C-44 -38 -27 -61 10 -73 C-46 -88 -80 -125 -80 -172 C-80 -231 -15 -271 81 -271 C221 -271 327 -178 327 -55 C327 7 294 36 224 36 L140 35 Z M162 292 C175 353 192 376 223 376 C244 376 255 363 255 338 C255 327 254 318 248 292 L232 217 C219 156 203 133 171 133 C152 133 140 147 140 171 C140 182 142 198 146 217 L162 292 Z M246 -81 C277 -81 291 -92 291 -117 C291 -186 199 -244 88 -244 C11 -244 -35 -214 -35 -163 C-35 -133 -20 -106 12 -81 L246 -81 Z M133 472 L262 534 L364 472 L380 485 L292 621 L268 621 L122 485 L133 472 Z " />
<glyph glyph-name="Gbreve" unicode="&#x11e;" horiz-adv-x="595" d="M580 667 L556 667 L522 635 C486 667 443 684 395 684 C198 684 19 465 19 225 C19 154 37 96 73 54 C110 11 171 -17 228 -17 C267 -17 312 -8 353 9 C404 29 440 53 501 109 L525 224 L565 224 L571 249 L301 249 L296 224 L385 224 L361 109 C349 52 296 10 237 10 C186 10 157 37 157 83 C157 119 174 221 202 355 C230 492 257 572 287 607 C314 639 355 657 400 657 C476 657 518 610 518 522 C518 514 518 501 516 480 L540 480 L580 667 Z M275 848 C280 772 326 726 397 726 C469 726 534 771 572 848 L545 848 C509 811 469 796 412 796 C355 796 322 812 302 848 L275 848 Z " />
<glyph glyph-name="gbreve" unicode="&#x11f;" horiz-adv-x="444" d="M140 35 L66 35 L55 35 C29 35 19 42 19 58 C19 84 53 114 96 127 C120 112 145 106 173 106 C274 106 362 189 362 286 C362 301 360 311 354 327 C357 339 362 345 368 345 C371 345 373 344 375 340 C382 328 390 323 403 323 C426 323 447 347 447 375 C447 394 433 408 413 408 C386 408 363 390 341 350 C313 387 278 403 228 403 C126 403 34 320 34 227 C34 192 46 166 75 141 C8 121 -44 60 -44 0 C-44 -38 -27 -61 10 -73 C-46 -88 -80 -125 -80 -172 C-80 -231 -15 -271 81 -271 C221 -271 327 -178 327 -55 C327 7 294 36 224 36 L140 35 Z M162 292 C175 353 192 376 223 376 C244 376 255 363 255 338 C255 327 254 318 248 292 L232 217 C219 156 203 133 171 133 C152 133 140 147 140 171 C140 182 142 198 146 217 L162 292 Z M246 -81 C277 -81 291 -92 291 -117 C291 -186 199 -244 88 -244 C11 -244 -35 -214 -35 -163 C-35 -133 -20 -106 12 -81 L246 -81 Z M374 615 C342 571 310 552 266 552 C223 552 196 574 190 615 L164 615 C162 603 162 597 162 590 C162 521 197 477 252 477 C315 477 370 530 398 615 L374 615 Z " />
<glyph glyph-name="Gdotaccent" unicode="&#x120;" horiz-adv-x="595" d="M580 667 L556 667 L522 635 C486 667 443 684 395 684 C198 684 19 465 19 225 C19 154 37 96 73 54 C110 11 171 -17 228 -17 C267 -17 312 -8 353 9 C404 29 440 53 501 109 L525 224 L565 224 L571 249 L301 249 L296 224 L385 224 L361 109 C349 52 296 10 237 10 C186 10 157 37 157 83 C157 119 174 221 202 355 C230 492 257 572 287 607 C314 639 355 657 400 657 C476 657 518 610 518 522 C518 514 518 501 516 480 L540 480 L580 667 Z M427 850 C387 850 350 814 350 776 C350 748 371 727 399 727 C439 727 476 763 476 802 C476 830 455 850 427 850 L427 850 Z " />
<glyph glyph-name="gdotaccent" unicode="&#x121;" horiz-adv-x="444" d="M140 35 L66 35 L55 35 C29 35 19 42 19 58 C19 84 53 114 96 127 C120 112 145 106 173 106 C274 106 362 189 362 286 C362 301 360 311 354 327 C357 339 362 345 368 345 C371 345 373 344 375 340 C382 328 390 323 403 323 C426 323 447 347 447 375 C447 394 433 408 413 408 C386 408 363 390 341 350 C313 387 278 403 228 403 C126 403 34 320 34 227 C34 192 46 166 75 141 C8 121 -44 60 -44 0 C-44 -38 -27 -61 10 -73 C-46 -88 -80 -125 -80 -172 C-80 -231 -15 -271 81 -271 C221 -271 327 -178 327 -55 C327 7 294 36 224 36 L140 35 Z M162 292 C175 353 192 376 223 376 C244 376 255 363 255 338 C255 327 254 318 248 292 L232 217 C219 156 203 133 171 133 C152 133 140 147 140 171 C140 182 142 198 146 217 L162 292 Z M246 -81 C277 -81 291 -92 291 -117 C291 -186 199 -244 88 -244 C11 -244 -35 -214 -35 -163 C-35 -133 -20 -106 12 -81 L246 -81 Z M283 611 C243 611 206 575 206 536 C206 508 227 487 255 487 C295 487 332 523 332 562 C332 590 311 611 283 611 L283 611 Z " />
<glyph glyph-name="Gcommaaccent" unicode="&#x122;" horiz-adv-x="595" d="M580 667 L556 667 L522 635 C486 667 443 684 395 684 C198 684 19 465 19 225 C19 154 37 96 73 54 C110 11 171 -17 228 -17 C267 -17 312 -8 353 9 C404 29 440 53 501 109 L525 224 L565 224 L571 249 L301 249 L296 224 L385 224 L361 109 C349 52 296 10 237 10 C186 10 157 37 157 83 C157 119 174 221 202 355 C230 492 257 572 287 607 C314 639 355 657 400 657 C476 657 518 610 518 522 C518 514 518 501 516 480 L540 480 L580 667 Z M154 -320 C245 -256 285 -197 285 -128 C285 -81 258 -49 220 -49 C179 -49 140 -90 140 -133 C140 -163 159 -185 185 -185 C207 -185 228 -173 244 -150 C240 -210 208 -258 144 -300 L154 -320 Z " />
<glyph glyph-name="gcommaaccent" unicode="&#x123;" horiz-adv-x="444" d="M140 35 L66 35 L55 35 C29 35 19 42 19 58 C19 84 53 114 96 127 C120 112 145 106 173 106 C274 106 362 189 362 286 C362 301 360 311 354 327 C357 339 362 345 368 345 C371 345 373 344 375 340 C382 328 390 323 403 323 C426 323 447 347 447 375 C447 394 433 408 413 408 C386 408 363 390 341 350 C313 387 278 403 228 403 C126 403 34 320 34 227 C34 192 46 166 75 141 C8 121 -44 60 -44 0 C-44 -38 -27 -61 10 -73 C-46 -88 -80 -125 -80 -172 C-80 -231 -15 -271 81 -271 C221 -271 327 -178 327 -55 C327 7 294 36 224 36 L140 35 Z M162 292 C175 353 192 376 223 376 C244 376 255 363 255 338 C255 327 254 318 248 292 L232 217 C219 156 203 133 171 133 C152 133 140 147 140 171 C140 182 142 198 146 217 L162 292 Z M246 -81 C277 -81 291 -92 291 -117 C291 -186 199 -244 88 -244 C11 -244 -35 -214 -35 -163 C-35 -133 -20 -106 12 -81 L246 -81 Z M315 684 C233 627 198 576 198 515 C198 471 221 442 257 442 C297 442 332 479 332 520 C332 547 315 567 291 567 C271 567 252 556 237 534 C241 588 268 628 326 665 L315 684 Z " />
<glyph glyph-name="Hcircumflex" unicode="&#x124;" horiz-adv-x="660" d="M33 25 L-39 25 L-44 0 L235 0 L240 25 L173 25 L238 330 L420 330 L355 25 L288 25 L283 0 L562 0 L567 25 L495 25 L626 642 L698 642 L703 667 L424 667 L419 642 L486 642 L425 355 L243 355 L304 642 L371 642 L377 667 L98 667 L92 642 L164 642 L33 25 Z M257 726 L424 775 L570 726 L587 742 L456 846 L421 846 L246 742 L257 726 Z " />
<glyph glyph-name="Hbar" unicode="&#x126;" horiz-adv-x="660" d="M125 458 L33 25 L-39 25 L-44 0 L235 0 L240 25 L173 25 L238 330 L420 330 L355 25 L288 25 L283 0 L562 0 L567 25 L495 25 L587 458 L645 458 L650 483 L592 483 L626 642 L698 642 L703 667 L424 667 L419 642 L486 642 L452 483 L271 483 L304 642 L371 642 L377 667 L98 667 L92 642 L164 642 L131 483 L69 483 L63 458 L125 458 Z M265 458 L447 458 L425 355 L243 355 L265 458 Z " />
<glyph glyph-name="hbar" unicode="&#x127;" horiz-adv-x="493" d="M112 534 L3 25 L-57 25 L-62 0 L154 0 L159 25 L123 25 L160 196 C171 249 182 279 198 304 C221 338 254 360 283 360 C304 360 317 346 317 325 C317 316 315 302 308 271 L256 25 L208 25 L203 0 L419 0 L424 25 L376 25 L428 271 C434 297 437 320 437 331 C437 377 402 403 343 403 C285 403 239 380 187 326 L232 534 L385 534 L391 559 L237 559 L262 678 C218 670 186 667 108 667 L80 667 L74 642 L134 642 L117 559 L57 559 L51 534 L112 534 Z " />
<glyph glyph-name="Imacron" unicode="&#x12a;" horiz-adv-x="338" d="M33 25 L-39 25 L-44 0 L240 0 L245 25 L173 25 L304 642 L376 642 L382 667 L98 667 L92 642 L164 642 L33 25 Z M119 807 L110 761 L410 761 L419 807 L119 807 Z " />
<glyph glyph-name="imacron" unicode="&#x12b;" horiz-adv-x="252" d="M-2 25 L-50 25 L-55 0 L173 0 L178 25 L118 25 L199 404 C157 396 127 393 51 393 L29 393 L23 368 L71 368 L-2 25 Z M45 563 L35 516 L281 516 L291 563 L45 563 Z " />
<glyph glyph-name="ibreve" unicode="&#x12d;" horiz-adv-x="252" d="M-2 25 L-50 25 L-55 0 L173 0 L178 25 L118 25 L199 404 C157 396 127 393 51 393 L29 393 L23 368 L71 368 L-2 25 Z M283 615 C251 571 219 552 175 552 C132 552 105 574 99 615 L72 615 C71 603 71 598 71 590 C71 521 106 477 161 477 C223 477 279 530 307 615 L283 615 Z " />
<glyph glyph-name="Iogonek" unicode="&#x12e;" horiz-adv-x="338" d="M240 0 L245 25 L173 25 L304 642 L376 642 L382 667 L98 667 L92 642 L164 642 L33 25 L-39 25 L-44 0 L140 0 C54 -42 23 -75 23 -124 C23 -159 47 -178 93 -178 C123 -178 148 -171 185 -154 L190 -127 C173 -134 165 -136 151 -136 C126 -136 112 -123 112 -100 C112 -67 133 -38 182 0 L240 0 Z " />
<glyph glyph-name="iogonek" unicode="&#x12f;" horiz-adv-x="252" d="M173 0 L178 25 L118 25 L199 404 C157 396 127 393 51 393 L29 393 L23 368 L71 368 L-2 25 L-50 25 L-55 0 L88 0 C3 -41 -28 -74 -28 -120 C-28 -151 -5 -169 35 -169 C67 -169 82 -165 128 -145 L133 -121 C117 -127 108 -129 94 -129 C69 -129 55 -117 55 -95 C55 -66 78 -34 123 0 L173 0 Z M184 636 C141 636 101 597 101 555 C101 525 124 502 154 502 C197 502 237 541 237 583 C237 614 214 636 184 636 L184 636 Z " />
<glyph glyph-name="Idotaccent" unicode="&#x130;" horiz-adv-x="338" d="M33 25 L-39 25 L-44 0 L240 0 L245 25 L173 25 L304 642 L376 642 L382 667 L98 667 L92 642 L164 642 L33 25 Z M279 850 C240 850 202 814 202 776 C202 748 223 727 252 727 C292 727 329 763 329 802 C329 830 308 850 279 850 L279 850 Z " />
<glyph glyph-name="dotlessi" unicode="&#x131;" horiz-adv-x="252" d="M-2 25 L-50 25 L-55 0 L173 0 L178 25 L118 25 L199 404 C157 396 127 393 51 393 L29 393 L23 368 L71 368 L-2 25 Z " />
<glyph glyph-name="Kcommaaccent" unicode="&#x136;" horiz-adv-x="626" d="M33 25 L-39 25 L-44 0 L226 0 L231 25 L173 25 L304 642 L362 642 L368 667 L98 667 L92 642 L164 642 L33 25 Z M354 427 L533 596 C574 635 589 643 629 642 L648 642 L653 667 L452 667 L446 642 L495 642 C515 642 523 639 523 632 C523 625 520 621 506 607 L234 347 L364 25 L293 25 L288 0 L555 0 L560 25 L516 25 L354 427 Z M158 -320 C248 -256 289 -197 289 -128 C289 -81 262 -49 224 -49 C183 -49 144 -90 144 -133 C144 -163 163 -185 189 -185 C211 -185 231 -173 247 -150 C244 -210 212 -257 147 -300 L158 -320 Z " />
<glyph glyph-name="kcommaaccent" unicode="&#x137;" horiz-adv-x="478" d="M-15 25 L-63 25 L-68 0 L148 0 L153 25 L105 25 L244 678 C202 670 172 667 96 667 L74 667 L68 642 L116 642 L-15 25 Z M255 268 L326 328 C368 365 375 368 409 368 L431 368 L436 393 L256 393 L251 368 L289 368 C313 368 317 367 317 359 C317 352 312 346 290 328 L151 212 L235 25 L188 25 L182 0 L404 0 L409 25 L365 25 L255 268 Z M85 -291 C168 -233 202 -183 202 -121 C202 -78 179 -49 143 -49 C104 -49 68 -86 68 -126 C68 -153 85 -173 109 -173 C130 -173 148 -162 163 -141 C160 -195 133 -235 75 -272 L85 -291 Z " />
<glyph glyph-name="Lacute" unicode="&#x139;" horiz-adv-x="524" d="M33 25 L-39 25 L-44 0 L414 0 L476 210 L452 210 C402 88 321 19 232 25 L173 25 L304 642 L362 642 L368 667 L98 667 L92 642 L164 642 L33 25 Z M396 846 L242 740 L251 726 L525 821 L530 846 L396 846 Z " />
<glyph glyph-name="lacute" unicode="&#x13a;" horiz-adv-x="246" d="M-3 25 L-63 25 L-68 0 L172 0 L177 25 L117 25 L256 678 C214 670 184 667 108 667 L74 667 L68 642 L128 642 L-3 25 Z M287 846 L134 740 L143 726 L416 821 L422 846 L287 846 Z " />
<glyph glyph-name="Lcommaaccent" unicode="&#x13b;" horiz-adv-x="524" d="M33 25 L-39 25 L-44 0 L414 0 L476 210 L452 210 C402 88 321 19 232 25 L173 25 L304 642 L362 642 L368 667 L98 667 L92 642 L164 642 L33 25 Z M107 -320 C198 -256 238 -197 238 -128 C238 -81 211 -49 173 -49 C132 -49 93 -90 93 -133 C93 -163 112 -185 138 -185 C160 -185 180 -173 197 -150 C193 -210 161 -257 96 -300 L107 -320 Z " />
<glyph glyph-name="lcommaaccent" unicode="&#x13c;" horiz-adv-x="246" d="M-3 25 L-63 25 L-68 0 L172 0 L177 25 L117 25 L256 678 C214 670 184 667 108 667 L74 667 L68 642 L128 642 L-3 25 Z M-18 -291 C65 -233 99 -183 99 -121 C99 -78 76 -49 40 -49 C1 -49 -35 -86 -35 -126 C-35 -153 -18 -173 6 -173 C27 -173 45 -162 60 -141 C57 -195 30 -235 -28 -272 L-18 -291 Z " />
<glyph glyph-name="Lcaron" unicode="&#x13d;" horiz-adv-x="524" d="M33 25 L-39 25 L-44 0 L414 0 L476 210 L452 210 C402 88 321 19 232 25 L173 25 L304 642 L362 642 L368 667 L98 667 L92 642 L164 642 L33 25 Z M383 395 C474 460 514 519 514 588 C514 635 487 667 449 667 C408 667 369 626 369 582 C369 552 388 530 414 530 C436 530 456 542 473 566 C469 505 437 458 372 415 L383 395 Z " />
<glyph glyph-name="lcaron" unicode="&#x13e;" horiz-adv-x="355" d="M-3 25 L-63 25 L-68 0 L172 0 L177 25 L117 25 L256 678 C214 670 184 667 108 667 L74 667 L68 642 L128 642 L-3 25 Z M290 436 C372 493 407 544 407 605 C407 649 384 678 348 678 C309 678 273 641 273 600 C273 573 290 553 314 553 C334 553 353 565 368 586 C364 532 338 492 280 455 L290 436 Z " />
<glyph glyph-name="Ldot" unicode="&#x13f;" horiz-adv-x="524" d="M33 25 L-39 25 L-44 0 L414 0 L476 210 L452 210 C402 88 321 19 232 25 L173 25 L304 642 L362 642 L368 667 L98 667 L92 642 L164 642 L33 25 Z M357 390 C317 390 280 354 280 315 C280 287 301 266 330 266 C370 266 407 302 407 341 C407 369 386 390 357 390 L357 390 Z " />
<glyph glyph-name="ldot" unicode="&#x140;" horiz-adv-x="333" d="M-3 25 L-63 25 L-68 0 L172 0 L177 25 L117 25 L256 678 C214 670 184 667 108 667 L74 667 L68 642 L128 642 L-3 25 Z M298 390 C258 390 221 354 221 315 C221 287 242 266 270 266 C310 266 347 302 347 341 C347 369 326 390 298 390 L298 390 Z " />
<glyph glyph-name="Lslash" unicode="&#x141;" horiz-adv-x="524" d="M88 282 L3 222 L-4 189 L81 249 L33 25 L-39 25 L-44 0 L414 0 L476 210 L452 210 C402 88 321 19 232 25 L173 25 L245 363 L381 458 L388 491 L252 395 L304 642 L362 642 L368 667 L98 667 L92 642 L164 642 L88 282 Z " />
<glyph glyph-name="lslash" unicode="&#x142;" horiz-adv-x="246" d="M56 303 L-15 252 L-21 220 L50 271 L-3 25 L-63 25 L-68 0 L172 0 L177 25 L117 25 L191 373 L262 424 L269 456 L198 404 L256 678 C213 670 181 667 102 667 L74 667 L68 642 L128 642 L56 303 Z " />
<glyph glyph-name="Nacute" unicode="&#x143;" horiz-adv-x="623" d="M435 -7 L458 -7 L580 570 C593 634 600 642 644 642 L668 642 L673 667 L502 667 L497 642 L519 642 C550 642 558 637 558 618 C558 609 556 598 550 570 L480 241 L286 667 L92 667 L86 642 L109 642 C140 642 148 637 148 618 C148 609 146 599 140 570 L40 97 C27 33 20 24 -22 25 L-45 25 L-50 0 L133 0 L138 25 L103 25 C71 25 62 30 62 49 C62 57 64 73 70 97 L173 585 L435 -7 Z M482 846 L329 740 L338 726 L611 821 L617 846 L482 846 Z " />
<glyph glyph-name="nacute" unicode="&#x144;" horiz-adv-x="502" d="M15 25 L-45 25 L-50 0 L166 0 L171 25 L135 25 L176 218 C188 272 194 288 215 314 C237 343 270 363 295 363 C315 363 326 350 326 328 C326 318 323 298 318 274 L265 25 L217 25 L212 0 L428 0 L433 25 L385 25 L438 274 C443 298 446 319 446 329 C446 374 409 403 353 403 C299 403 244 377 200 331 L216 404 C172 396 139 393 62 393 L34 393 L28 368 L88 368 L15 25 Z M373 621 L263 480 L278 471 L464 596 L470 621 L373 621 Z " />
<glyph glyph-name="Ncommaaccent" unicode="&#x145;" horiz-adv-x="623" d="M435 -7 L458 -7 L580 570 C593 634 600 642 644 642 L668 642 L673 667 L502 667 L497 642 L519 642 C550 642 558 637 558 618 C558 609 556 598 550 570 L480 241 L286 667 L92 667 L86 642 L109 642 C140 642 148 637 148 618 C148 609 146 599 140 570 L40 97 C27 33 20 24 -22 25 L-45 25 L-50 0 L133 0 L138 25 L103 25 C71 25 62 30 62 49 C62 57 64 73 70 97 L173 585 L435 -7 Z M154 -320 C244 -256 285 -197 285 -128 C285 -81 258 -49 220 -49 C179 -49 140 -90 140 -133 C140 -163 159 -185 185 -185 C207 -185 227 -173 243 -150 C240 -210 208 -257 143 -300 L154 -320 Z " />
<glyph glyph-name="ncommaaccent" unicode="&#x146;" horiz-adv-x="502" d="M15 25 L-45 25 L-50 0 L166 0 L171 25 L135 25 L176 218 C188 272 194 288 215 314 C237 343 270 363 295 363 C315 363 326 350 326 328 C326 318 323 298 318 274 L265 25 L217 25 L212 0 L428 0 L433 25 L385 25 L438 274 C443 298 446 319 446 329 C446 374 409 403 353 403 C299 403 244 377 200 331 L216 404 C172 396 139 393 62 393 L34 393 L28 368 L88 368 L15 25 Z M119 -291 C201 -233 236 -183 236 -121 C236 -78 213 -49 177 -49 C138 -49 102 -86 102 -126 C102 -153 119 -173 143 -173 C163 -173 182 -162 197 -141 C193 -195 166 -235 109 -272 L119 -291 Z " />
<glyph glyph-name="Ncaron" unicode="&#x147;" horiz-adv-x="623" d="M435 -7 L458 -7 L580 570 C593 634 600 642 644 642 L668 642 L673 667 L502 667 L497 642 L519 642 C550 642 558 637 558 618 C558 609 556 598 550 570 L480 241 L286 667 L92 667 L86 642 L109 642 C140 642 148 637 148 618 C148 609 146 599 140 570 L40 97 C27 33 20 24 -22 25 L-45 25 L-50 0 L133 0 L138 25 L103 25 C71 25 62 30 62 49 C62 57 64 73 70 97 L173 585 L435 -7 Z M588 847 L421 798 L274 847 L257 831 L388 727 L423 727 L599 831 L588 847 Z " />
<glyph glyph-name="ncaron" unicode="&#x148;" horiz-adv-x="502" d="M15 25 L-45 25 L-50 0 L166 0 L171 25 L135 25 L176 218 C188 272 194 288 215 314 C237 343 270 363 295 363 C315 363 326 350 326 328 C326 318 323 298 318 274 L265 25 L217 25 L212 0 L428 0 L433 25 L385 25 L438 274 C443 298 446 319 446 329 C446 374 409 403 353 403 C299 403 244 377 200 331 L216 404 C172 396 139 393 62 393 L34 393 L28 368 L88 368 L15 25 Z M449 621 L320 559 L218 621 L202 608 L290 472 L314 472 L460 608 L449 621 Z " />
<glyph glyph-name="Omacron" unicode="&#x14c;" horiz-adv-x="659" d="M404 684 C308 684 218 639 144 553 C69 467 25 353 25 247 C25 88 115 -17 251 -17 C351 -17 439 27 514 114 C589 202 633 314 633 420 C633 581 544 684 404 684 L404 684 Z M397 657 C457 657 488 621 488 552 C488 475 451 281 416 171 C379 56 334 10 258 10 C201 10 170 47 170 115 C170 193 206 386 242 496 C278 610 324 657 397 657 L397 657 Z M280 807 L270 761 L570 761 L580 807 L280 807 Z " />
<glyph glyph-name="omacron" unicode="&#x14d;" horiz-adv-x="461" d="M245 403 C115 403 -5 283 -5 152 C-5 57 61 -10 155 -10 C288 -10 408 109 408 241 C408 338 343 403 245 403 L245 403 Z M240 376 C271 376 292 354 292 320 C292 282 270 167 251 105 C232 45 204 17 162 17 C132 17 111 40 111 73 C111 112 133 226 152 288 C171 348 199 376 240 376 L240 376 Z M146 563 L136 516 L403 516 L413 563 L146 563 Z " />
<glyph glyph-name="Ohungarumlaut" unicode="&#x150;" horiz-adv-x="659" d="M404 684 C308 684 218 639 144 553 C69 467 25 353 25 247 C25 88 115 -17 251 -17 C351 -17 439 27 514 114 C589 202 633 314 633 420 C633 581 544 684 404 684 L404 684 Z M397 657 C457 657 488 621 488 552 C488 475 451 281 416 171 C379 56 334 10 258 10 C201 10 170 47 170 115 C170 193 206 386 242 496 C278 610 324 657 397 657 L397 657 Z M442 846 L303 737 L310 726 L558 823 L563 846 L442 846 Z M618 846 L479 737 L486 726 L734 823 L739 846 L618 846 Z " />
<glyph glyph-name="ohungarumlaut" unicode="&#x151;" horiz-adv-x="461" d="M245 403 C115 403 -5 283 -5 152 C-5 57 61 -10 155 -10 C288 -10 408 109 408 241 C408 338 343 403 245 403 L245 403 Z M240 376 C271 376 292 354 292 320 C292 282 270 167 251 105 C232 45 204 17 162 17 C132 17 111 40 111 73 C111 112 133 226 152 288 C171 348 199 376 240 376 L240 376 Z M280 621 L186 478 L198 471 L362 599 L367 621 L280 621 Z M403 621 L309 478 L321 471 L485 599 L490 621 L403 621 Z " />
<glyph glyph-name="OE" unicode="&#x152;" horiz-adv-x="902" d="M469 667 C440 679 419 684 393 684 C207 684 23 461 23 234 C23 81 107 -17 238 -17 C270 -17 297 -12 338 0 L787 0 L845 212 L821 212 C761 65 709 23 587 25 L511 25 L575 326 L596 326 C654 326 676 307 676 258 C676 241 674 226 669 197 L691 197 L749 469 L727 469 C709 384 673 349 603 351 L580 351 L642 642 L738 642 C798 642 820 635 839 611 C855 590 863 560 863 518 L863 497 L887 497 L909 667 L469 667 Z M396 143 C382 78 373 59 342 35 C320 19 294 10 264 10 C205 10 173 48 173 118 C173 174 185 262 207 358 C236 492 264 569 295 606 C322 638 363 657 405 657 C453 657 485 626 485 581 C485 567 482 549 476 520 L396 143 Z " />
<glyph glyph-name="oe" unicode="&#x153;" horiz-adv-x="666" d="M621 221 C623 241 624 249 624 262 C624 351 577 403 497 403 C448 403 408 389 365 358 C319 392 289 403 243 403 C119 403 -5 278 -5 153 C-5 60 63 -10 154 -10 C198 -10 240 3 296 33 C326 4 361 -10 405 -10 C478 -10 538 28 598 113 L579 125 C529 54 481 20 431 20 C394 20 365 49 365 86 C365 107 365 107 382 188 L390 221 L621 221 Z M395 246 L401 274 C410 318 415 334 423 347 C435 367 454 376 479 376 C508 376 524 363 524 338 C524 324 522 310 514 274 L508 246 L395 246 Z M242 376 C277 376 300 353 300 316 C300 279 278 165 259 104 C240 45 210 17 164 17 C129 17 106 41 106 76 C106 113 128 227 147 288 C166 348 196 376 242 376 L242 376 Z " />
<glyph glyph-name="Racute" unicode="&#x154;" horiz-adv-x="621" d="M33 25 L-39 25 L-44 0 L226 0 L231 25 L173 25 L241 343 L281 343 C340 343 357 326 357 268 C357 246 355 226 349 192 C341 141 339 126 339 103 C339 31 370 -4 436 -4 C465 -4 499 3 536 18 L542 44 C522 36 508 33 496 33 C476 33 463 47 463 69 C463 84 466 101 474 134 C482 165 484 181 484 204 C484 283 436 339 356 355 C427 359 451 366 487 391 C540 429 571 488 571 550 C571 582 561 608 541 628 C510 659 474 667 363 667 L98 667 L92 642 L164 642 L33 25 Z M246 368 L304 642 L358 642 C417 642 434 628 434 580 C434 550 422 488 407 448 C386 387 360 368 300 368 L246 368 Z M433 846 L280 740 L289 726 L562 821 L568 846 L433 846 Z " />
<glyph glyph-name="racute" unicode="&#x155;" horiz-adv-x="371" d="M11 25 L-49 25 L-54 0 L186 0 L191 25 L131 25 L168 200 C181 261 198 299 228 337 C239 352 256 367 262 367 C263 367 265 365 265 362 C265 360 264 355 262 352 C254 335 249 316 249 302 C249 278 267 261 292 261 C331 261 364 299 364 345 C364 379 342 403 309 403 C270 403 226 371 194 318 L212 404 C168 396 137 393 54 393 L30 393 L24 368 L84 368 L11 25 Z M297 621 L187 480 L202 471 L389 596 L394 621 L297 621 Z " />
<glyph glyph-name="Rcommaaccent" unicode="&#x156;" horiz-adv-x="621" d="M33 25 L-39 25 L-44 0 L226 0 L231 25 L173 25 L241 343 L281 343 C340 343 357 326 357 268 C357 246 355 226 349 192 C341 141 339 126 339 103 C339 31 370 -4 436 -4 C465 -4 499 3 536 18 L542 44 C522 36 508 33 496 33 C476 33 463 47 463 69 C463 84 466 101 474 134 C482 165 484 181 484 204 C484 283 436 339 356 355 C427 359 451 366 487 391 C540 429 571 488 571 550 C571 582 561 608 541 628 C510 659 474 667 363 667 L98 667 L92 642 L164 642 L33 25 Z M246 368 L304 642 L358 642 C417 642 434 628 434 580 C434 550 422 488 407 448 C386 387 360 368 300 368 L246 368 Z M145 -320 C235 -256 276 -197 276 -128 C276 -81 249 -49 211 -49 C170 -49 131 -90 131 -133 C131 -163 150 -185 176 -185 C198 -185 218 -173 234 -150 C231 -210 199 -257 134 -300 L145 -320 Z " />
<glyph glyph-name="rcommaaccent" unicode="&#x157;" horiz-adv-x="371" d="M11 25 L-49 25 L-54 0 L186 0 L191 25 L131 25 L168 200 C181 261 198 299 228 337 C239 352 256 367 262 367 C263 367 265 365 265 362 C265 360 264 355 262 352 C254 335 249 316 249 302 C249 278 267 261 292 261 C331 261 364 299 364 345 C364 379 342 403 309 403 C270 403 226 371 194 318 L212 404 C168 396 137 393 54 393 L30 393 L24 368 L84 368 L11 25 Z M-3 -291 C80 -233 114 -183 114 -121 C114 -78 91 -49 55 -49 C16 -49 -20 -86 -20 -126 C-20 -153 -3 -173 21 -173 C41 -173 60 -162 75 -141 C71 -195 44 -235 -13 -272 L-3 -291 Z " />
<glyph glyph-name="Rcaron" unicode="&#x158;" horiz-adv-x="621" d="M33 25 L-39 25 L-44 0 L226 0 L231 25 L173 25 L241 343 L281 343 C340 343 357 326 357 268 C357 246 355 226 349 192 C341 141 339 126 339 103 C339 31 370 -4 436 -4 C465 -4 499 3 536 18 L542 44 C522 36 508 33 496 33 C476 33 463 47 463 69 C463 84 466 101 474 134 C482 165 484 181 484 204 C484 283 436 339 356 355 C427 359 451 366 487 391 C540 429 571 488 571 550 C571 582 561 608 541 628 C510 659 474 667 363 667 L98 667 L92 642 L164 642 L33 25 Z M246 368 L304 642 L358 642 C417 642 434 628 434 580 C434 550 422 488 407 448 C386 387 360 368 300 368 L246 368 Z M554 847 L386 798 L240 847 L223 831 L354 727 L389 727 L564 831 L554 847 Z " />
<glyph glyph-name="rcaron" unicode="&#x159;" horiz-adv-x="371" d="M11 25 L-49 25 L-54 0 L186 0 L191 25 L131 25 L168 200 C181 261 198 299 228 337 C239 352 256 367 262 367 C263 367 265 365 265 362 C265 360 264 355 262 352 C254 335 249 316 249 302 C249 278 267 261 292 261 C331 261 364 299 364 345 C364 379 342 403 309 403 C270 403 226 371 194 318 L212 404 C168 396 137 393 54 393 L30 393 L24 368 L84 368 L11 25 Z M377 621 L249 559 L146 621 L130 608 L218 472 L242 472 L388 608 L377 621 Z " />
<glyph glyph-name="Sacute" unicode="&#x15a;" horiz-adv-x="477" d="M463 667 L439 667 L407 636 C372 669 339 684 297 684 C175 684 63 560 63 425 C63 386 74 354 94 331 C112 312 112 312 204 275 C279 246 283 244 298 230 C312 215 320 193 320 166 C320 86 245 10 166 10 C83 10 33 77 33 186 L9 186 L-30 0 L-7 0 L32 42 C77 1 119 -17 172 -17 C303 -17 422 117 422 264 C422 298 414 331 399 355 C382 384 361 396 277 426 C200 454 193 457 179 472 C167 485 161 501 161 521 C161 593 224 657 294 657 C362 657 402 605 402 518 C402 509 402 503 401 487 L425 487 L463 667 Z M393 846 L239 740 L248 726 L522 821 L527 846 L393 846 Z " />
<glyph glyph-name="sacute" unicode="&#x15b;" horiz-adv-x="335" d="M297 403 L274 403 C268 382 264 376 255 376 C250 376 245 378 234 383 C208 398 189 403 165 403 C91 403 18 326 18 248 C18 215 32 186 55 172 C67 166 94 155 120 146 C164 133 166 132 177 122 C187 113 192 102 192 89 C192 51 151 17 106 17 C51 17 11 60 11 119 C11 127 12 133 14 146 L-10 146 L-41 0 L-18 0 C-13 17 -7 26 2 26 C7 26 11 24 18 18 C39 0 67 -10 100 -10 C188 -10 269 74 269 166 C269 200 254 226 224 241 C207 250 181 259 138 273 C109 281 98 294 98 315 C98 348 131 376 170 376 C214 376 250 342 250 299 C250 297 250 291 249 286 L272 286 L297 403 Z M263 621 L153 480 L168 471 L354 596 L360 621 L263 621 Z " />
<glyph glyph-name="Scircumflex" unicode="&#x15c;" horiz-adv-x="477" d="M463 667 L439 667 L407 636 C372 669 339 684 297 684 C175 684 63 560 63 425 C63 386 74 354 94 331 C112 312 112 312 204 275 C279 246 283 244 298 230 C312 215 320 193 320 166 C320 86 245 10 166 10 C83 10 33 77 33 186 L9 186 L-30 0 L-7 0 L32 42 C77 1 119 -17 172 -17 C303 -17 422 117 422 264 C422 298 414 331 399 355 C382 384 361 396 277 426 C200 454 193 457 179 472 C167 485 161 501 161 521 C161 593 224 657 294 657 C362 657 402 605 402 518 C402 509 402 503 401 487 L425 487 L463 667 Z M168 726 L335 775 L481 726 L498 742 L367 846 L332 846 L157 742 L168 726 Z " />
<glyph glyph-name="scircumflex" unicode="&#x15d;" horiz-adv-x="335" d="M297 403 L274 403 C268 382 264 376 255 376 C250 376 245 378 234 383 C208 398 189 403 165 403 C91 403 18 326 18 248 C18 215 32 186 55 172 C67 166 94 155 120 146 C164 133 166 132 177 122 C187 113 192 102 192 89 C192 51 151 17 106 17 C51 17 11 60 11 119 C11 127 12 133 14 146 L-10 146 L-41 0 L-18 0 C-13 17 -7 26 2 26 C7 26 11 24 18 18 C39 0 67 -10 100 -10 C188 -10 269 74 269 166 C269 200 254 226 224 241 C207 250 181 259 138 273 C109 281 98 294 98 315 C98 348 131 376 170 376 C214 376 250 342 250 299 C250 297 250 291 249 286 L272 286 L297 403 Z M81 472 L209 534 L311 472 L328 485 L240 621 L216 621 L70 485 L81 472 Z " />
<glyph glyph-name="Scedilla" unicode="&#x15e;" horiz-adv-x="477" d="M180 -16 C311 -9 422 120 422 264 C422 298 414 331 399 355 C382 383 360 396 277 426 C200 454 193 457 179 472 C167 485 161 501 161 521 C161 593 224 657 294 657 C362 657 402 605 402 518 C402 509 402 503 401 487 L425 487 L463 667 L439 667 L407 636 C372 669 339 684 297 684 C175 684 63 560 63 425 C63 386 74 354 94 331 C112 312 112 312 204 275 C279 246 283 244 298 230 C312 215 320 193 320 166 C320 86 245 10 166 10 C83 10 33 77 33 186 L9 186 L-30 0 L-7 0 L32 42 C67 8 105 -10 152 -16 L119 -76 C133 -84 141 -94 141 -105 L141 -106 C138 -133 136 -138 127 -153 C116 -171 104 -180 91 -180 C77 -180 66 -171 66 -158 C66 -157 68 -145 69 -139 C72 -126 72 -125 72 -120 C72 -111 65 -104 55 -104 C37 -104 21 -124 21 -146 C21 -181 58 -207 107 -207 C180 -207 239 -164 239 -110 C239 -79 214 -59 175 -59 C171 -59 164 -60 155 -62 L180 -16 Z " />
<glyph glyph-name="scedilla" unicode="&#x15f;" horiz-adv-x="335" d="M110 -10 C195 -3 269 78 269 166 C269 200 254 226 224 241 C207 250 178 260 138 273 C109 281 98 294 98 315 C98 348 131 376 170 376 C214 376 250 342 250 299 C250 297 250 291 249 286 L272 286 L297 403 L274 403 C268 382 264 376 255 376 C250 376 245 378 234 383 C208 398 189 403 165 403 C91 403 18 326 18 248 C18 215 32 186 55 172 C67 166 94 155 120 146 C164 133 166 132 177 122 C187 113 192 102 192 89 C192 51 151 17 106 17 C51 17 11 60 11 119 C11 127 12 133 14 146 L-10 146 L-41 0 L-18 0 C-13 17 -7 26 2 26 C7 26 11 24 18 18 C34 3 60 -7 88 -9 L54 -72 C75 -74 85 -86 85 -110 C85 -143 59 -180 36 -180 C25 -180 16 -169 16 -155 C16 -154 16 -154 17 -147 C17 -123 17 -123 13 -119 C10 -116 5 -114 0 -114 C-16 -114 -30 -130 -30 -149 C-30 -175 1 -198 37 -198 C67 -198 111 -181 134 -161 C150 -146 163 -120 163 -101 C163 -72 136 -49 100 -49 C98 -49 93 -49 88 -50 L110 -10 Z " />
<glyph glyph-name="Scaron" unicode="&#x160;" horiz-adv-x="477" d="M501 847 L334 798 L187 847 L170 831 L301 727 L336 727 L511 831 L501 847 Z M463 667 L439 667 L407 636 C372 669 339 684 297 684 C175 684 63 560 63 425 C63 386 74 354 94 331 C112 312 112 312 204 275 C279 246 283 244 298 230 C312 215 320 193 320 166 C320 86 245 10 166 10 C83 10 33 77 33 186 L9 186 L-30 0 L-7 0 L32 42 C77 1 119 -17 172 -17 C303 -17 422 117 422 264 C422 298 414 331 399 355 C382 384 361 396 277 426 C200 454 193 457 179 472 C167 485 161 501 161 521 C161 593 224 657 294 657 C362 657 402 605 402 518 C402 509 402 503 401 487 L425 487 L463 667 Z " />
<glyph glyph-name="scaron" unicode="&#x161;" horiz-adv-x="335" d="M350 621 L221 559 L119 621 L103 608 L191 472 L215 472 L361 608 L350 621 Z M297 403 L274 403 C268 382 264 376 255 376 C250 376 245 378 234 383 C208 398 189 403 165 403 C91 403 18 326 18 248 C18 215 32 186 55 172 C67 166 94 155 120 146 C164 133 166 132 177 122 C187 113 192 102 192 89 C192 51 151 17 106 17 C51 17 11 60 11 119 C11 127 12 133 14 146 L-10 146 L-41 0 L-18 0 C-13 17 -7 26 2 26 C7 26 11 24 18 18 C39 0 67 -10 100 -10 C188 -10 269 74 269 166 C269 200 254 226 224 241 C207 250 181 259 138 273 C109 281 98 294 98 315 C98 348 131 376 170 376 C214 376 250 342 250 299 C250 297 250 291 249 286 L272 286 L297 403 Z " />
<glyph glyph-name="Tcommaaccent" unicode="&#x162;" horiz-adv-x="574" d="M151 25 L70 25 L65 0 L367 0 L372 25 L291 25 L422 642 L456 642 C505 642 525 636 543 615 C562 593 572 556 572 513 C572 497 571 486 568 462 L592 462 L624 667 L91 667 L36 462 L60 462 C97 588 164 649 258 642 L282 642 L151 25 Z M133 -320 C224 -256 264 -197 264 -128 C264 -81 237 -49 199 -49 C158 -49 119 -90 119 -133 C119 -163 138 -185 164 -185 C186 -185 207 -173 223 -150 C219 -210 187 -258 123 -300 L133 -320 Z " />
<glyph glyph-name="tcommaaccent" unicode="&#x163;" horiz-adv-x="274" d="M71 368 L11 89 C9 77 7 63 7 52 C7 11 32 -10 81 -10 C145 -10 192 25 222 97 L197 102 C179 54 165 37 145 37 C135 37 128 46 128 60 C128 69 129 80 131 89 L191 368 L254 368 L259 393 L196 393 L232 564 L205 564 C155 482 86 416 14 384 L11 368 L71 368 Z M-3 -291 C79 -234 114 -183 114 -122 C114 -78 91 -49 55 -49 C16 -49 -20 -86 -20 -126 C-20 -153 -3 -173 21 -173 C42 -173 60 -162 75 -141 C72 -195 45 -235 -13 -272 L-3 -291 Z " />
<glyph glyph-name="Tcaron" unicode="&#x164;" horiz-adv-x="574" d="M151 25 L70 25 L65 0 L367 0 L372 25 L291 25 L422 642 L456 642 C505 642 525 636 543 615 C562 593 572 556 572 513 C572 497 571 486 568 462 L592 462 L624 667 L91 667 L36 462 L60 462 C97 588 164 649 258 642 L282 642 L151 25 Z M553 847 L385 798 L239 847 L222 831 L353 727 L388 727 L563 831 L553 847 Z " />
<glyph glyph-name="tcaron" unicode="&#x165;" horiz-adv-x="344" d="M71 368 L12 89 C9 75 7 62 7 52 C7 11 32 -10 81 -10 C145 -10 193 26 222 97 L198 102 C179 55 165 37 145 37 C135 37 128 46 128 60 C128 68 129 79 132 89 L191 368 L254 368 L259 393 L196 393 L233 564 L205 564 C156 482 86 415 15 384 L11 368 L71 368 Z M282 465 C364 522 399 573 399 634 C399 678 376 707 340 707 C301 707 265 670 265 630 C265 603 282 583 306 583 C327 583 345 594 360 615 C357 561 330 521 272 484 L282 465 Z " />
<glyph glyph-name="utilde" unicode="&#x169;" horiz-adv-x="473" d="M220 0 L400 0 L405 25 L345 25 L426 404 C384 396 353 393 278 393 L255 393 L250 368 L298 368 L256 171 C244 116 236 95 214 71 C193 48 166 33 144 33 C128 33 116 47 116 64 C116 72 117 78 124 110 L186 404 C144 396 114 393 38 393 L16 393 L11 368 L59 368 L9 133 C3 105 -1 78 -1 64 C-1 17 29 -10 84 -10 C139 -10 180 11 234 69 L220 0 Z M154 495 C177 519 193 528 213 528 C229 528 256 521 279 511 C309 498 312 497 325 497 C362 497 403 526 443 581 L425 591 C407 569 390 558 373 558 C364 558 356 561 320 575 C291 586 278 589 262 589 C221 589 186 566 137 505 L154 495 Z " />
<glyph glyph-name="Umacron" unicode="&#x16a;" horiz-adv-x="602" d="M156 642 L65 213 C51 150 48 130 48 112 C48 34 124 -17 239 -17 C310 -17 375 7 417 48 C456 86 469 117 490 213 L566 570 C579 634 586 642 630 642 L653 642 L658 667 L487 667 L482 642 L504 642 C535 642 543 637 543 618 C543 610 540 591 536 570 L460 214 C444 138 432 106 408 76 C379 39 334 18 282 18 C225 18 188 51 188 103 C188 127 192 153 205 213 L296 642 L363 642 L368 667 L89 667 L84 642 L156 642 Z M262 807 L252 761 L552 761 L562 807 L262 807 Z " />
<glyph glyph-name="umacron" unicode="&#x16b;" horiz-adv-x="473" d="M220 0 L400 0 L405 25 L345 25 L426 404 C384 396 353 393 278 393 L255 393 L250 368 L298 368 L256 171 C244 116 236 95 214 71 C193 48 166 33 144 33 C128 33 116 47 116 64 C116 72 117 78 124 110 L186 404 C144 396 114 393 38 393 L16 393 L11 368 L59 368 L9 133 C3 105 -1 78 -1 64 C-1 17 29 -10 84 -10 C139 -10 180 11 234 69 L220 0 Z M153 563 L143 516 L409 516 L419 563 L153 563 Z " />
<glyph glyph-name="ubreve" unicode="&#x16d;" horiz-adv-x="473" d="M220 0 L400 0 L405 25 L345 25 L426 404 C384 396 353 393 278 393 L255 393 L250 368 L298 368 L256 171 C244 116 236 95 214 71 C193 48 166 33 144 33 C128 33 116 47 116 64 C116 72 117 78 124 110 L186 404 C144 396 114 393 38 393 L16 393 L11 368 L59 368 L9 133 C3 105 -1 78 -1 64 C-1 17 29 -10 84 -10 C139 -10 180 11 234 69 L220 0 Z M390 615 C358 571 326 552 282 552 C239 552 212 574 206 615 L180 615 C178 604 178 598 178 590 C178 521 213 477 268 477 C330 477 386 530 414 615 L390 615 Z " />
<glyph glyph-name="Uring" unicode="&#x16e;" horiz-adv-x="602" d="M156 642 L65 213 C51 150 48 130 48 112 C48 34 124 -17 239 -17 C310 -17 375 7 417 48 C456 86 469 117 490 213 L566 570 C579 634 586 642 630 642 L653 642 L658 667 L487 667 L482 642 L504 642 C535 642 543 637 543 618 C543 610 540 591 536 570 L460 214 C444 138 432 106 408 76 C379 39 334 18 282 18 C225 18 188 51 188 103 C188 127 192 153 205 213 L296 642 L363 642 L368 667 L89 667 L84 642 L156 642 Z M445 877 C388 877 336 829 336 777 C336 739 367 710 408 710 C464 710 516 758 516 810 C516 849 486 877 445 877 L445 877 Z M436 838 C457 838 473 823 473 802 C473 775 446 749 416 749 C395 749 379 764 379 785 C379 812 406 838 436 838 L436 838 Z " />
<glyph glyph-name="uring" unicode="&#x16f;" horiz-adv-x="473" d="M220 0 L400 0 L405 25 L345 25 L426 404 C384 396 353 393 278 393 L255 393 L250 368 L298 368 L256 171 C244 116 236 95 214 71 C193 48 166 33 144 33 C128 33 116 47 116 64 C116 72 117 78 124 110 L186 404 C144 396 114 393 38 393 L16 393 L11 368 L59 368 L9 133 C3 105 -1 78 -1 64 C-1 17 29 -10 84 -10 C139 -10 180 11 234 69 L220 0 Z M307 630 C251 630 198 580 198 527 C198 488 229 460 270 460 C326 460 378 508 378 561 C378 601 348 630 307 630 L307 630 Z M299 591 C320 591 335 575 335 554 C335 525 308 499 278 499 C257 499 241 514 241 535 C241 563 269 591 299 591 L299 591 Z " />
<glyph glyph-name="Uhungarumlaut" unicode="&#x170;" horiz-adv-x="602" d="M156 642 L65 213 C51 150 48 130 48 112 C48 34 124 -17 239 -17 C310 -17 375 7 417 48 C456 86 469 117 490 213 L566 570 C579 634 586 642 630 642 L653 642 L658 667 L487 667 L482 642 L504 642 C535 642 543 637 543 618 C543 610 540 591 536 570 L460 214 C444 138 432 106 408 76 C379 39 334 18 282 18 C225 18 188 51 188 103 C188 127 192 153 205 213 L296 642 L363 642 L368 667 L89 667 L84 642 L156 642 Z M420 846 L281 737 L287 726 L536 823 L541 846 L420 846 Z M596 846 L457 737 L463 726 L712 823 L717 846 L596 846 Z " />
<glyph glyph-name="uhungarumlaut" unicode="&#x171;" horiz-adv-x="473" d="M220 0 L400 0 L405 25 L345 25 L426 404 C384 396 353 393 278 393 L255 393 L250 368 L298 368 L256 171 C244 116 236 95 214 71 C193 48 166 33 144 33 C128 33 116 47 116 64 C116 72 117 78 124 110 L186 404 C144 396 114 393 38 393 L16 393 L11 368 L59 368 L9 133 C3 105 -1 78 -1 64 C-1 17 29 -10 84 -10 C139 -10 180 11 234 69 L220 0 Z M271 621 L177 478 L189 471 L353 599 L358 621 L271 621 Z M394 621 L300 478 L312 471 L476 599 L481 621 L394 621 Z " />
<glyph glyph-name="Uogonek" unicode="&#x172;" horiz-adv-x="602" d="M373 -127 C356 -134 347 -136 334 -136 C308 -136 295 -123 295 -99 C295 -64 314 -37 378 15 C449 70 468 103 490 213 L566 570 C579 634 586 642 630 642 L653 642 L658 667 L487 667 L482 642 L504 642 C535 642 543 637 543 618 C543 610 540 591 536 570 L460 214 C444 138 432 106 408 76 C379 39 334 18 282 18 C225 18 188 51 188 103 C188 127 192 153 205 213 L296 642 L363 642 L368 667 L89 667 L84 642 L156 642 L65 213 C51 150 48 130 48 112 C48 34 124 -17 239 -17 C262 -17 282 -15 302 -10 C235 -45 206 -79 206 -124 C206 -159 230 -178 276 -178 C305 -178 330 -171 367 -154 L373 -127 Z " />
<glyph glyph-name="uogonek" unicode="&#x173;" horiz-adv-x="473" d="M400 0 L405 25 L345 25 L426 404 C384 396 353 393 278 393 L255 393 L250 368 L298 368 L256 171 C244 116 236 95 214 71 C193 48 166 33 144 33 C128 33 116 47 116 64 C116 72 117 78 124 110 L186 404 C144 396 114 393 38 393 L16 393 L11 368 L59 368 L9 133 C3 105 -1 78 -1 64 C-1 17 29 -10 84 -10 C139 -10 180 11 234 69 L220 0 L308 0 C225 -41 193 -74 193 -119 C193 -151 216 -169 256 -169 C288 -169 303 -165 349 -145 L354 -121 C337 -127 329 -129 315 -129 C290 -129 276 -117 276 -95 C276 -66 299 -33 344 0 L400 0 Z " />
<glyph glyph-name="Wcircumflex" unicode="&#x174;" horiz-adv-x="809" d="M621 642 L671 642 L676 667 L69 667 L64 642 L125 642 L208 -13 L228 -13 L412 292 L452 -13 L477 -13 L782 579 C807 628 824 641 860 642 L877 642 L882 667 L716 667 L710 642 L741 642 C767 642 773 639 773 626 C773 618 773 617 760 592 L555 192 L518 469 L621 642 Z M597 642 L512 510 L490 642 L597 642 Z M366 642 L406 333 L313 179 L254 642 L366 642 Z M353 726 L520 775 L666 726 L684 742 L553 846 L517 846 L342 742 L353 726 Z " />
<glyph glyph-name="Ycircumflex" unicode="&#x176;" horiz-adv-x="539" d="M143 25 L62 25 L57 0 L359 0 L364 25 L283 25 L343 307 L518 590 C544 632 557 641 594 642 L610 642 L616 667 L442 667 L436 642 L481 642 C505 642 509 640 509 630 C509 623 508 621 494 598 L344 351 L252 642 L323 642 L328 667 L51 667 L46 642 L101 642 L203 307 L143 25 Z M210 726 L378 775 L524 726 L541 742 L410 846 L375 846 L200 742 L210 726 Z " />
<glyph glyph-name="ycircumflex" unicode="&#x177;" horiz-adv-x="402" d="M118 2 L48 -126 C19 -177 3 -200 -7 -200 C-12 -200 -15 -197 -17 -191 C-25 -169 -38 -158 -57 -158 C-87 -158 -116 -190 -116 -224 C-116 -252 -97 -270 -69 -270 C-47 -270 -25 -259 -3 -237 C16 -218 29 -199 64 -139 L336 329 C355 362 366 369 399 368 L420 368 L425 393 L273 393 L267 368 L296 368 C316 368 320 366 320 355 C320 348 317 341 306 322 L204 145 L160 368 L204 368 L209 393 L2 393 L-4 368 L41 368 L118 2 Z M123 472 L252 534 L354 472 L370 485 L282 621 L258 621 L113 485 L123 472 Z " />
<glyph glyph-name="Ydieresis" unicode="&#x178;" horiz-adv-x="539" d="M307 850 C267 850 230 814 230 776 C230 748 251 727 279 727 C319 727 356 763 356 801 C356 829 335 850 307 850 L307 850 Z M499 850 C459 850 422 814 422 776 C422 748 443 727 471 727 C511 727 548 763 548 801 C548 829 527 850 499 850 L499 850 Z M143 25 L62 25 L57 0 L359 0 L364 25 L283 25 L343 307 L518 590 C544 632 557 641 594 642 L610 642 L616 667 L442 667 L436 642 L481 642 C505 642 509 640 509 630 C509 623 508 621 494 598 L344 351 L252 642 L323 642 L328 667 L51 667 L46 642 L101 642 L203 307 L143 25 Z " />
<glyph glyph-name="Zacute" unicode="&#x179;" horiz-adv-x="507" d="M-46 32 L-53 0 L394 0 L445 213 L421 213 C371 83 288 17 186 25 L90 25 L531 648 L536 667 L130 667 L82 490 L106 490 C151 600 219 649 316 642 L385 642 L-46 32 Z M430 846 L276 740 L285 726 L559 821 L564 846 L430 846 Z " />
<glyph glyph-name="zacute" unicode="&#x17a;" horiz-adv-x="387" d="M367 393 L62 393 L27 246 L47 246 C84 336 131 373 203 368 L242 368 L-43 20 L-47 0 L283 0 L327 163 L303 163 C263 66 207 20 132 25 L80 25 L363 373 L367 393 Z M305 621 L195 480 L209 471 L396 596 L402 621 L305 621 Z " />
<glyph glyph-name="Zdotaccent" unicode="&#x17b;" horiz-adv-x="507" d="M-46 32 L-53 0 L394 0 L445 213 L421 213 C371 83 288 17 186 25 L90 25 L531 648 L536 667 L130 667 L82 490 L106 490 C151 600 219 649 316 642 L385 642 L-46 32 Z M376 850 C336 850 299 814 299 776 C299 748 320 727 348 727 C388 727 425 763 425 802 C425 830 404 850 376 850 L376 850 Z " />
<glyph glyph-name="zdotaccent" unicode="&#x17c;" horiz-adv-x="387" d="M367 393 L62 393 L27 246 L47 246 C84 336 131 373 203 368 L242 368 L-43 20 L-47 0 L283 0 L327 163 L303 163 C263 66 207 20 132 25 L80 25 L363 373 L367 393 Z M268 611 C228 611 191 575 191 536 C191 508 212 487 240 487 C280 487 317 523 317 562 C317 590 296 611 268 611 L268 611 Z " />
<glyph glyph-name="Zcaron" unicode="&#x17d;" horiz-adv-x="507" d="M539 847 L372 798 L225 847 L208 831 L339 727 L374 727 L550 831 L539 847 Z M-46 32 L-53 0 L394 0 L445 213 L421 213 C371 83 288 17 186 25 L90 25 L531 648 L536 667 L130 667 L82 490 L106 490 C151 600 219 649 316 642 L385 642 L-46 32 Z " />
<glyph glyph-name="zcaron" unicode="&#x17e;" horiz-adv-x="387" d="M385 621 L256 559 L154 621 L137 608 L226 472 L249 472 L395 608 L385 621 Z M367 393 L62 393 L27 246 L47 246 C84 336 131 373 203 368 L242 368 L-43 20 L-47 0 L283 0 L327 163 L303 163 C263 66 207 20 132 25 L80 25 L363 373 L367 393 Z " />
<glyph glyph-name="florin" unicode="&#x192;" horiz-adv-x="450" d="M167 315 L27 -48 C-2 -121 -17 -160 -19 -164 C-29 -187 -45 -212 -56 -224 C-70 -239 -84 -247 -98 -247 C-108 -247 -115 -243 -115 -238 C-115 -236 -114 -234 -112 -230 C-106 -218 -103 -207 -103 -198 C-103 -183 -113 -173 -129 -173 C-152 -173 -174 -197 -174 -223 C-174 -250 -150 -268 -114 -268 C-65 -268 -10 -233 34 -174 C80 -113 105 -64 154 62 L251 315 L334 315 L343 340 L261 340 L304 450 C351 572 368 605 405 640 C417 652 432 659 444 659 C449 659 452 657 452 653 C452 650 450 646 447 643 C435 633 429 621 429 608 C429 590 441 578 458 578 C486 578 512 605 512 634 C512 663 491 680 456 680 C407 680 349 645 302 586 C254 526 230 478 177 340 L98 340 L88 315 L167 315 Z " />
<glyph glyph-name="uni01CD" unicode="&#x1cd;" horiz-adv-x="564" d="M297 179 L314 25 L236 25 L231 0 L499 0 L505 25 L441 25 L373 667 L344 667 L31 82 C6 31 -3 24 -44 25 L-75 25 L-80 0 L106 0 L111 25 L63 25 C42 25 36 28 36 36 C36 42 38 47 49 67 L109 179 L297 179 Z M294 204 L122 204 L264 469 L294 204 Z M553 847 L386 798 L239 847 L222 831 L353 727 L388 727 L563 831 L553 847 Z " />
<glyph glyph-name="uni01CE" unicode="&#x1ce;" horiz-adv-x="412" d="M336 56 C326 46 318 41 309 41 C301 41 296 47 296 57 C296 61 296 63 300 81 L339 263 C346 296 349 315 349 325 C349 372 299 403 222 403 C129 403 49 349 49 287 C49 264 62 249 81 249 C103 249 128 266 137 288 C141 298 144 315 145 333 C146 350 147 354 151 359 C159 369 179 376 201 376 C228 376 241 365 241 342 C241 331 240 328 226 258 L221 233 C145 226 97 213 53 185 C2 154 -27 108 -27 60 C-27 17 2 -10 50 -10 C97 -10 142 13 183 56 C193 19 219 -5 250 -5 C283 -5 317 11 347 40 L336 56 Z M204 156 C187 73 166 42 128 42 C106 42 92 62 92 92 C92 161 140 205 215 206 L204 156 Z M398 621 L269 559 L167 621 L150 608 L239 472 L262 472 L408 608 L398 621 Z " />
<glyph glyph-name="uni01D3" unicode="&#x1d3;" horiz-adv-x="602" d="M156 642 L65 213 C51 150 48 130 48 112 C48 34 124 -17 239 -17 C310 -17 375 7 417 48 C456 86 469 117 490 213 L566 570 C579 634 586 642 630 642 L653 642 L658 667 L487 667 L482 642 L504 642 C535 642 543 637 543 618 C543 610 540 591 536 570 L460 214 C444 138 432 106 408 76 C379 39 334 18 282 18 C225 18 188 51 188 103 C188 127 192 153 205 213 L296 642 L363 642 L368 667 L89 667 L84 642 L156 642 Z M592 847 L425 798 L278 847 L261 831 L392 727 L427 727 L603 831 L592 847 Z " />
<glyph glyph-name="uni01D4" unicode="&#x1d4;" horiz-adv-x="473" d="M220 0 L400 0 L405 25 L345 25 L426 404 C384 396 353 393 278 393 L255 393 L250 368 L298 368 L256 171 C244 116 236 95 214 71 C193 48 166 33 144 33 C128 33 116 47 116 64 C116 72 117 78 124 110 L186 404 C144 396 114 393 38 393 L16 393 L11 368 L59 368 L9 133 C3 105 -1 78 -1 64 C-1 17 29 -10 84 -10 C139 -10 180 11 234 69 L220 0 Z M424 621 L296 559 L193 621 L177 608 L265 472 L289 472 L435 608 L424 621 Z " />
<glyph glyph-name="Gcaron" unicode="&#x1e6;" horiz-adv-x="595" d="M580 667 L556 667 L522 635 C486 667 443 684 395 684 C198 684 19 465 19 225 C19 154 37 96 73 54 C110 11 171 -17 228 -17 C267 -17 312 -8 353 9 C404 29 440 53 501 109 L525 224 L565 224 L571 249 L301 249 L296 224 L385 224 L361 109 C349 52 296 10 237 10 C186 10 157 37 157 83 C157 119 174 221 202 355 C230 492 257 572 287 607 C314 639 355 657 400 657 C476 657 518 610 518 522 C518 514 518 501 516 480 L540 480 L580 667 Z M580 847 L413 798 L266 847 L249 831 L380 727 L415 727 L591 831 L580 847 Z " />
<glyph glyph-name="gcaron" unicode="&#x1e7;" horiz-adv-x="444" d="M140 35 L66 35 L55 35 C29 35 19 42 19 58 C19 84 53 114 96 127 C120 112 145 106 173 106 C274 106 362 189 362 286 C362 301 360 311 354 327 C357 339 362 345 368 345 C371 345 373 344 375 340 C382 328 390 323 403 323 C426 323 447 347 447 375 C447 394 433 408 413 408 C386 408 363 390 341 350 C313 387 278 403 228 403 C126 403 34 320 34 227 C34 192 46 166 75 141 C8 121 -44 60 -44 0 C-44 -38 -27 -61 10 -73 C-46 -88 -80 -125 -80 -172 C-80 -231 -15 -271 81 -271 C221 -271 327 -178 327 -55 C327 7 294 36 224 36 L140 35 Z M162 292 C175 353 192 376 223 376 C244 376 255 363 255 338 C255 327 254 318 248 292 L232 217 C219 156 203 133 171 133 C152 133 140 147 140 171 C140 182 142 198 146 217 L162 292 Z M246 -81 C277 -81 291 -92 291 -117 C291 -186 199 -244 88 -244 C11 -244 -35 -214 -35 -163 C-35 -133 -20 -106 12 -81 L246 -81 Z M396 621 L267 559 L165 621 L148 608 L237 472 L260 472 L406 608 L396 621 Z " />
<glyph glyph-name="Scommaaccent" unicode="&#x218;" horiz-adv-x="477" d="M463 667 L439 667 L407 636 C372 669 339 684 297 684 C175 684 63 560 63 425 C63 386 74 354 94 331 C112 312 112 312 204 275 C279 246 283 244 298 230 C312 215 320 193 320 166 C320 86 245 10 166 10 C83 10 33 77 33 186 L9 186 L-30 0 L-7 0 L32 42 C77 1 119 -17 172 -17 C303 -17 422 117 422 264 C422 298 414 331 399 355 C382 384 361 396 277 426 C200 454 193 457 179 472 C167 485 161 501 161 521 C161 593 224 657 294 657 C362 657 402 605 402 518 C402 509 402 503 401 487 L425 487 L463 667 Z M79 -320 C169 -256 210 -197 210 -128 C210 -81 183 -49 145 -49 C104 -49 65 -90 65 -133 C65 -163 84 -185 110 -185 C132 -185 152 -173 168 -150 C165 -210 133 -257 68 -300 L79 -320 Z " />
<glyph glyph-name="scommaaccent" unicode="&#x219;" horiz-adv-x="335" d="M297 403 L274 403 C268 382 264 376 255 376 C250 376 245 378 234 383 C208 398 189 403 165 403 C91 403 18 326 18 248 C18 215 32 186 55 172 C67 166 94 155 120 146 C164 133 166 132 177 122 C187 113 192 102 192 89 C192 51 151 17 106 17 C51 17 11 60 11 119 C11 127 12 133 14 146 L-10 146 L-41 0 L-18 0 C-13 17 -7 26 2 26 C7 26 11 24 18 18 C39 0 67 -10 100 -10 C188 -10 269 74 269 166 C269 200 254 226 224 241 C207 250 181 259 138 273 C109 281 98 294 98 315 C98 348 131 376 170 376 C214 376 250 342 250 299 C250 297 250 291 249 286 L272 286 L297 403 Z M20 -291 C102 -233 136 -183 136 -121 C136 -78 113 -49 77 -49 C38 -49 2 -86 2 -126 C2 -153 19 -173 43 -173 C64 -173 83 -162 97 -141 C94 -195 67 -235 9 -272 L20 -291 Z " />
<glyph glyph-name="uni021A" unicode="&#x21a;" horiz-adv-x="574" d="M151 25 L70 25 L65 0 L367 0 L372 25 L291 25 L422 642 L456 642 C505 642 525 636 543 615 C562 593 572 556 572 513 C572 497 571 486 568 462 L592 462 L624 667 L91 667 L36 462 L60 462 C97 588 164 649 258 642 L282 642 L151 25 Z M133 -320 C224 -256 264 -197 264 -128 C264 -81 237 -49 199 -49 C158 -49 119 -90 119 -133 C119 -163 138 -185 164 -185 C186 -185 207 -173 223 -150 C219 -210 187 -258 123 -300 L133 -320 Z " />
<glyph glyph-name="uni021B" unicode="&#x21b;" horiz-adv-x="274" d="M71 368 L11 89 C9 77 7 63 7 52 C7 11 32 -10 81 -10 C145 -10 192 25 222 97 L197 102 C179 54 165 37 145 37 C135 37 128 46 128 60 C128 69 129 80 131 89 L191 368 L254 368 L259 393 L196 393 L232 564 L205 564 C155 482 86 416 14 384 L11 368 L71 368 Z M-3 -291 C79 -234 114 -183 114 -122 C114 -78 91 -49 55 -49 C16 -49 -20 -86 -20 -126 C-20 -153 -3 -173 21 -173 C42 -173 60 -162 75 -141 C72 -195 45 -235 -13 -272 L-3 -291 Z " />
<glyph glyph-name="circumflex" unicode="&#x2c6;" horiz-adv-x="476" d="M152 472 L280 534 L382 472 L399 485 L311 621 L287 621 L141 485 L152 472 Z " />
<glyph glyph-name="caron" unicode="&#x2c7;" horiz-adv-x="476" d="M414 621 L286 559 L183 621 L167 608 L255 472 L279 472 L425 608 L414 621 Z " />
<glyph glyph-name="uni02C9" unicode="&#x2c9;" horiz-adv-x="477" d="M154 563 L144 516 L411 516 L421 563 L154 563 Z " />
<glyph glyph-name="breve" unicode="&#x2d8;" horiz-adv-x="473" d="M390 615 C357 570 326 552 282 552 C239 552 212 574 206 615 L180 615 C178 604 178 599 178 591 C178 521 213 477 268 477 C331 477 385 529 414 615 L390 615 Z " />
<glyph glyph-name="dotaccent" unicode="&#x2d9;" horiz-adv-x="462" d="M291 611 C251 611 214 575 214 536 C214 508 235 487 263 487 C303 487 340 523 340 562 C340 590 319 611 291 611 L291 611 Z " />
<glyph glyph-name="ring" unicode="&#x2da;" horiz-adv-x="468" d="M298 630 C242 630 189 580 189 527 C189 488 219 460 261 460 C317 460 369 508 369 561 C369 601 339 630 298 630 L298 630 Z M289 591 C311 591 326 575 326 554 C326 525 299 499 269 499 C248 499 232 514 232 534 C232 563 260 591 289 591 L289 591 Z " />
<glyph glyph-name="ogonek" unicode="&#x2db;" horiz-adv-x="450" d="M286 0 C203 -39 170 -74 170 -119 C170 -151 193 -169 233 -169 C266 -169 279 -166 326 -145 L331 -121 C315 -127 306 -129 292 -129 C267 -129 253 -117 253 -95 C253 -66 276 -34 321 0 L286 0 Z " />
<glyph glyph-name="tilde" unicode="&#x2dc;" horiz-adv-x="479" d="M149 495 C172 519 187 528 207 528 C224 528 251 521 273 511 C303 498 306 497 319 497 C357 497 398 526 438 581 L419 591 C402 569 384 558 368 558 C358 558 350 561 314 575 C285 586 272 589 256 589 C215 589 181 566 131 505 L149 495 Z " />
<glyph glyph-name="hungarumlaut" unicode="&#x2dd;" horiz-adv-x="465" d="M254 621 L160 478 L172 471 L336 599 L341 621 L254 621 Z M377 621 L283 478 L295 471 L459 599 L464 621 L377 621 Z " />
<glyph glyph-name="Wdieresis" unicode="&#x1e84;" horiz-adv-x="809" d="M621 642 L671 642 L676 667 L69 667 L64 642 L125 642 L208 -13 L228 -13 L412 292 L452 -13 L477 -13 L782 579 C807 628 824 641 860 642 L877 642 L882 667 L716 667 L710 642 L741 642 C767 642 773 639 773 626 C773 618 773 617 760 592 L555 192 L518 469 L621 642 Z M597 642 L512 510 L490 642 L597 642 Z M366 642 L406 333 L313 179 L254 642 L366 642 Z M443 850 C403 850 366 814 366 776 C366 748 387 727 415 727 C455 727 492 763 492 801 C492 829 471 850 443 850 L443 850 Z M634 850 C594 850 557 814 557 776 C557 748 578 727 607 727 C647 727 684 763 684 802 C684 829 663 850 634 850 L634 850 Z " />
<glyph glyph-name="uni2011" unicode="&#x2011;" horiz-adv-x="194" d="M-17 250 L-35 167 L159 167 L176 250 L-17 250 Z " />
<glyph glyph-name="figuredash" unicode="&#x2012;" horiz-adv-x="450" d="M14 250 L-4 167 L384 167 L402 250 L14 250 Z " />
<glyph glyph-name="endash" unicode="&#x2013;" horiz-adv-x="450" d="M14 250 L-4 167 L384 167 L402 250 L14 250 Z " />
<glyph glyph-name="emdash" unicode="&#x2014;" horiz-adv-x="591" d="M-17 250 L-35 167 L556 167 L573 250 L-17 250 Z " />
<glyph glyph-name="afii00208" unicode="&#x2015;" horiz-adv-x="591" d="M-17 250 L-35 167 L556 167 L573 250 L-17 250 Z " />
<glyph glyph-name="quoteleft" unicode="&#x2018;" horiz-adv-x="238" d="M214 680 C163 641 139 618 114 584 C82 540 64 492 64 449 C64 398 94 362 136 362 C182 362 225 408 225 456 C225 489 204 513 175 513 C150 513 128 500 110 474 C115 545 153 606 225 659 L214 680 Z " />
<glyph glyph-name="quoteright" unicode="&#x2019;" horiz-adv-x="238" d="M102 358 C153 397 178 421 202 453 C234 497 252 545 252 586 C252 636 222 674 184 674 C134 674 91 631 91 582 C91 549 112 525 141 525 C166 525 188 539 207 565 C201 493 163 432 92 379 L102 358 Z " />
<glyph glyph-name="quotesinglbase" unicode="&#x201a;" horiz-adv-x="238" d="M-11 -172 C40 -133 65 -109 89 -76 C121 -31 139 17 139 60 C139 111 109 147 67 147 C21 147 -22 101 -22 52 C-22 19 -1 -5 28 -5 C53 -5 75 9 94 35 C88 -37 50 -98 -22 -151 L-11 -172 Z " />
<glyph glyph-name="quotedblleft" unicode="&#x201c;" horiz-adv-x="449" d="M214 680 C162 641 139 618 114 584 C82 540 64 492 64 449 C64 398 94 362 136 362 C182 362 225 408 225 456 C225 488 204 513 176 513 C151 513 129 500 110 474 C115 546 153 606 225 659 L214 680 Z M426 680 C373 640 349 617 325 584 C293 540 275 492 275 449 C275 398 305 362 348 362 C394 362 437 408 437 456 C437 489 416 513 387 513 C362 513 340 500 321 474 C327 546 364 605 436 659 L426 680 Z " />
<glyph glyph-name="quotedblright" unicode="&#x201d;" horiz-adv-x="450" d="M102 358 C153 397 178 420 202 454 C234 498 252 545 252 587 C252 637 222 674 183 674 C134 674 91 631 91 582 C91 550 112 525 140 525 C166 525 188 539 207 565 C202 493 163 432 92 379 L102 358 Z M315 358 C366 397 391 420 415 454 C448 498 465 545 465 587 C465 636 435 674 397 674 C347 674 304 631 304 582 C304 549 325 525 354 525 C379 525 402 539 420 565 C414 494 376 432 304 379 L315 358 Z " />
<glyph glyph-name="quotedblbase" unicode="&#x201e;" horiz-adv-x="449" d="M-11 -172 C41 -133 65 -109 90 -76 C122 -32 140 17 140 59 C140 111 111 147 67 147 C22 147 -22 101 -22 53 C-22 20 -1 -5 27 -5 C52 -5 75 9 94 35 C88 -37 50 -99 -22 -151 L-11 -172 Z M200 -172 C251 -133 276 -109 300 -76 C332 -32 350 17 350 59 C350 111 321 147 278 147 C232 147 189 101 189 52 C189 19 210 -5 239 -5 C264 -5 287 9 304 35 C299 -37 261 -98 189 -151 L200 -172 Z " />
<glyph glyph-name="dagger" unicode="&#x2020;" horiz-adv-x="450" d="M225 370 C162 405 116 423 89 423 C50 423 12 381 12 338 C12 308 32 288 62 288 C83 288 125 302 220 342 C190 270 155 175 130 96 C87 -39 77 -79 77 -124 C77 -165 95 -193 121 -193 C165 -193 198 -137 213 -39 C225 43 233 157 238 342 C294 311 348 290 370 290 C413 290 447 327 447 373 C447 404 428 423 397 423 C374 423 357 417 244 370 C336 557 350 590 350 626 C350 660 332 680 302 680 L300 680 C278 680 252 663 239 638 C226 614 222 589 222 534 C222 521 222 507 223 493 L225 418 L225 370 Z " />
<glyph glyph-name="daggerdbl" unicode="&#x2021;" horiz-adv-x="450" d="M143 42 C90 -49 90 -49 83 -64 C69 -95 61 -122 61 -141 C61 -172 79 -193 106 -193 C153 -193 190 -143 190 -78 C190 -65 189 -51 184 47 L183 67 C249 34 291 18 312 18 C355 18 389 55 389 100 C389 131 370 150 339 150 C316 150 316 150 212 108 L190 98 C200 135 233 210 260 254 C255 286 252 321 252 350 C252 362 252 370 254 401 C312 370 359 352 383 352 C426 352 460 389 460 434 C460 465 441 484 410 484 C391 484 374 479 334 463 C307 452 283 442 261 433 C328 559 341 591 341 630 C341 660 323 680 296 680 C250 680 214 633 214 572 C214 553 216 536 226 482 L235 433 C172 467 128 484 102 484 C63 484 25 442 25 399 C25 369 45 349 75 349 C96 349 137 363 228 401 C214 354 199 319 163 254 C166 225 168 196 168 165 C168 144 167 130 164 100 C153 105 153 105 140 111 C97 132 97 132 90 135 C66 145 46 150 31 150 C-8 150 -46 108 -46 65 C-46 35 -26 15 4 15 C25 15 49 23 157 67 L143 42 Z " />
<glyph glyph-name="bullet" unicode="&#x2022;" horiz-adv-x="600" d="M332 480 C251 480 174 396 174 307 C174 245 214 200 270 200 C351 200 428 284 428 373 C428 435 388 480 332 480 L332 480 Z " />
<glyph glyph-name="ellipsis" unicode="&#x2026;" horiz-adv-x="702" d="M78 147 C33 147 -10 101 -10 52 C-10 18 12 -7 44 -7 C90 -7 132 39 132 88 C132 123 110 147 78 147 L78 147 Z M312 147 C267 147 224 101 224 52 C224 18 246 -7 278 -7 C324 -7 366 39 366 88 C366 123 344 147 312 147 L312 147 Z M546 147 C501 147 458 101 458 52 C458 18 480 -7 512 -7 C558 -7 600 39 600 88 C600 123 578 147 546 147 L546 147 Z " />
<glyph glyph-name="perthousand" unicode="&#x2030;" horiz-adv-x="948" d="M218 650 C135 650 51 544 51 438 C51 368 92 316 147 316 C231 316 315 422 315 528 C315 599 274 650 218 650 L218 650 Z M214 628 C227 628 235 617 235 599 C235 565 220 483 203 419 C185 354 175 338 152 338 C138 338 131 348 131 368 C131 403 145 479 163 547 C180 610 192 628 214 628 L214 628 Z M534 643 L501 643 L105 0 L139 0 L534 643 Z M491 327 C408 327 324 221 324 116 C324 46 365 -6 420 -6 C504 -6 588 99 588 205 C588 276 548 327 491 327 L491 327 Z M487 305 C500 305 508 294 508 276 C508 242 493 161 476 97 C458 32 448 16 425 16 C411 16 404 26 404 45 C404 81 417 156 436 224 C453 286 465 305 487 305 L487 305 Z M794 327 C711 327 627 221 627 116 C627 46 668 -6 723 -6 C807 -6 891 99 891 205 C891 276 851 327 794 327 L794 327 Z M790 305 C803 305 811 294 811 276 C811 242 796 161 779 97 C761 32 751 16 728 16 C714 16 707 26 707 45 C707 81 720 156 739 224 C756 286 768 305 790 305 L790 305 Z " />
<glyph glyph-name="guilsinglleft" unicode="&#x2039;" horiz-adv-x="222" d="M10 213 L62 113 L133 113 L83 213 L173 303 L102 303 L10 213 Z " />
<glyph glyph-name="guilsinglright" unicode="&#x203a;" horiz-adv-x="222" d="M158 203 L106 303 L35 303 L85 203 L-5 113 L66 113 L158 203 Z " />
<glyph glyph-name="uni203E" unicode="&#x203e;" horiz-adv-x="500" d="M110 847 L101 807 L601 807 L610 847 L110 847 Z " />
<glyph glyph-name="fraction" unicode="&#x2044;" horiz-adv-x="99" d="M263 643 L226 643 L-170 0 L-132 0 L263 643 Z " />
<glyph glyph-name="franc" unicode="&#x20a3;" horiz-adv-x="761" d="M27 25 L-45 25 L-50 0 L240 0 L245 25 L167 25 L231 326 L261 326 C319 326 342 307 342 258 C342 242 340 226 335 197 L359 197 L417 469 L393 469 C375 384 339 349 268 351 L237 351 L298 642 L376 642 C426 642 443 638 464 623 C494 601 513 553 513 498 C513 493 513 484 512 474 L536 474 L568 667 L92 667 L86 642 L158 642 L27 25 Z M422 25 L362 25 L356 0 L596 0 L602 25 L542 25 L574 177 C587 239 603 277 633 314 C644 329 661 344 667 344 C668 344 670 342 670 339 C670 337 669 332 667 329 C660 312 655 294 655 279 C655 255 673 238 697 238 C736 238 769 276 769 322 C769 356 747 380 714 380 C675 380 632 349 599 295 L618 381 C574 373 541 370 460 370 L435 370 L430 345 L490 345 L422 25 Z " />
<glyph glyph-name="Euro" unicode="&#x20ac;" horiz-adv-x="639" d="M255 386 C285 513 285 513 311 562 C344 623 394 657 454 657 C526 657 564 606 564 509 C564 507 564 500 563 493 L587 493 L618 667 L594 667 L569 626 C540 665 499 684 444 684 C301 684 155 560 92 386 L52 386 L31 350 L81 350 C78 339 75 326 73 317 L37 317 L16 281 L67 281 C65 260 64 245 64 228 C64 82 154 -17 287 -17 C347 -17 388 0 443 48 L458 0 L482 0 L529 186 L505 186 C452 74 379 10 302 10 C240 10 209 50 209 131 C209 163 213 189 232 281 L387 281 L408 317 L239 317 C241 326 244 337 247 350 L428 350 L449 386 L255 386 Z " />
<glyph glyph-name="trademark" unicode="&#x2122;" horiz-adv-x="777" d="M130 309 L82 309 L77 287 L254 287 L259 309 L220 309 L292 645 L301 645 C348 645 366 626 366 575 C366 565 365 559 363 545 L384 545 L403 667 L90 667 L57 545 L78 545 C98 615 136 649 190 645 L201 645 L130 309 Z M459 645 L395 345 C388 311 387 309 363 309 L345 309 L341 287 L449 287 L453 309 L437 309 C421 309 417 311 417 319 C417 323 419 333 421 345 L480 623 L501 287 L518 287 L675 619 L609 309 L570 309 L565 287 L737 287 L742 309 L699 309 L771 645 L813 645 L818 667 L676 667 L573 446 L558 667 L421 667 L417 645 L459 645 Z " />
<glyph glyph-name="uni2126" unicode="&#x2126;" horiz-adv-x="768" d="M326 0 L308 155 C230 199 180 288 180 383 C180 434 196 493 221 540 C257 605 316 642 385 642 C454 642 513 605 549 540 C575 493 590 435 590 381 C590 288 540 199 462 155 L444 0 L736 0 L736 153 L712 153 C704 108 684 90 643 90 L497 90 L500 128 C535 141 557 151 580 166 C657 215 702 296 702 382 C702 449 673 522 625 578 C564 648 480 686 385 686 C290 686 206 648 145 578 C97 522 68 448 68 382 C68 296 114 215 190 166 C213 151 234 141 270 128 L273 90 L127 90 C86 90 66 108 58 153 L34 153 L34 0 L326 0 Z " />
<glyph glyph-name="partialdiff" unicode="&#x2202;" horiz-adv-x="494" d="M107 673 C152 696 185 705 219 705 C321 705 379 610 379 447 C379 417 377 394 372 346 C308 396 272 412 221 412 C172 412 131 394 95 355 C51 309 26 246 26 184 C26 76 109 -10 213 -10 C282 -10 341 23 383 84 C429 151 462 286 462 402 C462 518 428 610 360 680 C312 729 259 752 194 752 C155 752 122 745 66 724 L107 673 Z M366 312 C350 201 340 158 314 106 C288 54 245 21 201 21 C147 21 113 74 113 159 C113 273 180 367 261 367 C299 367 324 354 366 312 L366 312 Z " />
<glyph glyph-name="Delta" unicode="&#x2206;" horiz-adv-x="612" d="M6 0 L608 0 L327 688 L6 0 Z M77 51 L290 509 L479 51 L77 51 Z " />
<glyph glyph-name="product" unicode="&#x220f;" horiz-adv-x="823" d="M25 -124 L315 -124 L315 -98 L312 -98 C242 -94 221 -67 224 18 L224 594 C224 656 228 677 242 690 C260 707 271 708 413 708 C557 708 567 707 586 690 C600 677 604 656 604 594 L604 18 C607 -67 586 -94 516 -98 L513 -98 L513 -124 L803 -124 L803 -98 L800 -98 C730 -94 709 -67 712 18 L712 609 C709 694 730 721 800 725 L803 725 L803 751 L25 751 L25 725 L28 725 C98 721 119 694 116 609 L116 18 C119 -67 98 -94 28 -98 L25 -98 L25 -124 Z " />
<glyph glyph-name="summation" unicode="&#x2211;" horiz-adv-x="713" d="M176 711 L444 711 C560 710 590 688 606 587 L632 587 L622 752 L23 752 L256 285 L14 -123 L641 -123 L695 87 L669 87 C639 7 605 -12 491 -11 L163 -11 L364 341 L176 711 Z " />
<glyph glyph-name="minus" unicode="&#x2212;" horiz-adv-x="450" d="M41 340 L34 307 L404 307 L411 340 L41 340 Z " />
<glyph glyph-name="uni2215" unicode="&#x2215;" horiz-adv-x="99" d="M263 643 L226 643 L-170 0 L-132 0 L263 643 Z " />
<glyph glyph-name="uni2219" unicode="&#x2219;" horiz-adv-x="234" d="M107 280 C62 280 19 235 19 186 C19 152 41 127 73 127 C119 127 161 173 161 222 C161 256 138 280 107 280 L107 280 Z " />
<glyph glyph-name="radical" unicode="&#x221a;" horiz-adv-x="549" d="M363 -35 L515 908 L480 913 L353 123 L156 520 L10 449 L26 414 L121 461 L363 -35 Z " />
<glyph glyph-name="infinity" unicode="&#x221e;" horiz-adv-x="713" d="M357 227 C415 156 485 115 549 115 C631 115 688 176 688 266 C688 354 629 414 543 414 C476 414 412 376 357 303 C300 375 234 414 171 414 C87 414 26 351 26 263 C26 176 84 115 167 115 C224 115 281 142 327 192 L357 227 Z M391 264 C434 325 493 362 546 362 C600 362 638 321 638 264 C638 205 603 167 549 167 C495 167 461 188 391 264 L391 264 Z M324 266 C276 204 215 167 163 167 C111 167 76 208 76 266 C76 323 113 362 167 362 C218 362 258 338 324 266 L324 266 Z " />
<glyph glyph-name="integral" unicode="&#x222b;" horiz-adv-x="274" d="M180 576 C180 653 179 691 176 746 C174 774 173 800 173 815 C173 855 184 878 202 878 C208 878 213 876 215 872 C232 845 239 839 256 839 C276 839 291 853 291 871 C291 898 267 916 231 916 C186 916 152 887 138 838 C123 784 113 682 113 577 L113 232 C113 160 114 124 117 63 C119 34 120 4 120 -12 C120 -47 108 -70 89 -70 C81 -70 75 -65 68 -52 C59 -35 51 -30 37 -30 C17 -30 2 -44 2 -63 C2 -89 26 -107 62 -107 C107 -107 141 -79 155 -29 C170 25 180 126 180 232 L180 576 Z " />
<glyph glyph-name="approxequal" unicode="&#x2248;" horiz-adv-x="549" d="M489 251 C444 199 423 187 384 187 C365 187 354 190 285 211 C212 234 188 239 160 239 C101 239 54 212 14 155 L57 121 C103 174 120 184 159 184 C180 184 180 184 271 157 C350 133 354 132 385 132 C449 132 496 160 527 217 L489 251 Z M489 408 C443 356 423 344 384 344 C365 344 354 347 285 368 C212 391 188 396 160 396 C101 396 54 368 14 312 L57 278 C103 331 119 341 159 341 C180 341 180 341 271 314 C350 290 354 289 385 289 C449 289 496 317 527 374 L489 408 Z " />
<glyph glyph-name="notequal" unicode="&#x2260;" horiz-adv-x="549" d="M187 142 L115 -1 L161 -25 L246 142 L540 142 L540 197 L273 197 L344 336 L540 336 L540 391 L371 391 L439 525 L392 549 L312 391 L15 391 L15 336 L285 336 L215 197 L15 197 L15 142 L187 142 Z " />
<glyph glyph-name="lessequal" unicode="&#x2264;" horiz-adv-x="549" d="M467 55 L-30 55 L-42 0 L455 0 L467 55 Z M591 639 L44 405 L32 350 L480 117 L493 179 L117 378 L578 577 L591 639 Z " />
<glyph glyph-name="greaterequal" unicode="&#x2265;" horiz-adv-x="549" d="M467 55 L-30 55 L-42 0 L455 0 L467 55 Z M94 639 L81 577 L457 378 L-4 179 L-17 117 L529 350 L541 405 L94 639 Z " />
<glyph glyph-name="lozenge" unicode="&#x25ca;" horiz-adv-x="494" d="M209 0 L269 -1 L466 374 L277 740 L214 740 L18 377 L209 0 Z M240 58 L81 376 L245 683 L402 373 L240 58 Z " />
<glyph glyph-name="fi" unicode="&#xfb01;" horiz-adv-x="488" d="M205 393 L239 555 C252 618 279 647 324 647 C347 647 364 640 364 631 C364 627 362 623 357 613 C345 592 339 570 339 550 C339 522 359 503 388 503 C430 503 465 540 465 583 C465 636 415 674 344 674 C280 674 214 643 166 589 C129 547 108 501 92 426 L85 393 L25 393 L19 368 L79 368 L6 25 L-54 25 L-59 0 L157 0 L162 25 L126 25 L199 368 L308 368 L235 25 L199 25 L194 0 L410 0 L415 25 L355 25 L436 404 C394 396 364 393 289 393 L205 393 Z " />
<glyph glyph-name="fl" unicode="&#xfb02;" horiz-adv-x="484" d="M494 678 C453 671 426 668 379 668 C361 672 349 674 332 674 C269 674 207 644 163 591 C129 549 107 500 92 426 L85 393 L25 393 L19 368 L79 368 L6 25 L-54 25 L-59 0 L157 0 L162 25 L126 25 L199 368 L269 368 L275 393 L205 393 L239 555 C253 619 278 647 321 647 C346 647 358 636 358 614 C358 604 357 599 349 560 L235 25 L199 25 L194 0 L410 0 L415 25 L355 25 L494 678 Z " />
</font>
</svg>
