<?xml version="1.0" standalone="no"?>
<!DOCTYPE svg PUBLIC "-//W3C//DTD SVG 1.1//EN" "http://www.w3.org/Graphics/SVG/1.1/DTD/svg11.dtd" >
<svg xmlns="http://www.w3.org/2000/svg">
<metadata>
Created by FontPrep 20130207 at Tue Jul 25 16:14:41 2017
 By Louise Stroud
Copyright (c) 2017 by Emil Bertell. All rights reserved.
</metadata>
<defs>
<font id="55926d2fcc2b10d2bb6e8930e3aabe07" horiz-adv-x='1024' >
  <font-face 
    font-family="Karu-Black"
    font-weight="900"
    font-stretch="normal"
    units-per-em="2048"
    panose-1="0 0 10 0 0 0 0 0 0 0"
    ascent="1638"
    descent="-410"
    x-height="981"
    cap-height="1430"
    bbox="-1212 -803 2478 2185"
    underline-thickness="102"
    underline-position="-102"
    unicode-range="U+0020-FB02"
  />
<missing-glyph horiz-adv-x="1021" 
d="M680 -139h-340v-66h143l-143 -96v-68h340v68h-209l143 96h66v66zM612 72v-97h-204v97h204zM680 139h-340v-231h340v231zM680 494h-205v-115h70v47h67v-96h-204v164h-68v-232h340v232zM680 741h-68v-135h-272v-69h340v204zM680 864h-340v-67h135v-76h-135v-68h205v144h135
v67zM475 1063v-74h-67v74h67zM545 1133h-205v-213h340v69h-135v144zM680 1395h-338v-68h133v-76h-135v-65h340v65h-135v76h135v68zM838 1532v-2042h-648v2042h648z" />
    <glyph glyph-name="fi" unicode="fi" horiz-adv-x="1259" 
d="M770 981h428v-981h-428v981zM547 995v-14h121v-317h-121v-664h-428v664h-82v317h82v47q0 285 130 412t402 127q209 0 342 -66l-116 -344q-64 47 -177 47t-140 -94q-13 -45 -13 -115z" />
    <glyph glyph-name="fl" unicode="fl" horiz-adv-x="1243" 
d="M684 1204q-137 0 -137 -133v-90h121v-317h-121v-664h-428v664h-82v317h82v90q1 268 121 382t403 114q172 0 323 -31t224 -80v-1456h-428v1200q-37 4 -78 4z" />
    <glyph glyph-name="f_b" unicode="fb" horiz-adv-x="1871" 
d="M1313 348q51 0 85 34t34 108t-32 110q-32 37 -85 37q-84 0 -125 -80v-129q37 -80 123 -80zM1853 458q-1 -112 -39 -217t-102 -163q-125 -113 -281 -113q-157 0 -241 96v-61h-428v1200q-31 4 -80 4q-103 0 -124 -74q-11 -37 -11 -106v-43h121v-317h-121v-664h-428v664h-82
v317h82v43q0 305 142 429q73 62 175 88t257 26t289 -29t208 -76v-544q98 98 249 98t258 -86q156 -124 156 -472z" />
    <glyph glyph-name="f_f_i" unicode="ffi" horiz-adv-x="1968" 
d="M1479 981h428v-981h-428v981zM1255 981h121v-317h-121v-664h-428v664h-82v317h82v47q0 375 236 484q117 54 311 54t328 -65l-117 -344q-63 47 -176 47t-140 -94q-13 -45 -14 -115v-14zM616 1204q-70 0 -69 -106v-117h121v-317h-121v-664h-428v664h-82v317h82v176
q0 410 370 410q199 0 336 -88l-100 -310q-48 35 -109 35z" />
    <glyph glyph-name="f_f_l" unicode="ffl" horiz-adv-x="1910" 
d="M1311 1567q173 0 323 -31t224 -80v-1456h-428v1200q-36 4 -92 4t-90 -32t-34 -101v-90h121v-317h-121v-664h-428v664h-81v317h81v90q0 268 121 382t404 114zM547 1098v-117h121v-317h-121v-664h-428v664h-82v317h82v176q0 410 370 410q199 0 336 -88l-100 -310
q-47 35 -109 35q-69 0 -69 -106z" />
    <glyph glyph-name="f_h" unicode="fh" horiz-adv-x="1804" 
d="M1454 1018q145 0 224 -85t79 -255v-678h-428v545q0 94 -67 94q-47 0 -72 -51v-588h-428v1196q-38 8 -94 8q-122 0 -121 -153v-70h121v-317h-121v-664h-428v664h-82v317h82v90q0 268 122 382t408 114q161 0 284 -25q170 -35 257 -92v-569q82 137 264 137z" />
    <glyph glyph-name="f_k" unicode="fk" horiz-adv-x="1857" 
d="M1190 0h-428v1196q-37 8 -82 8t-74 -14q-59 -28 -59 -143v-66h121v-317h-121v-664h-428v664h-82v317h82v82q0 285 117 395t395 109q179 0 329 -32t230 -75v-731l186 252h498l-293 -336l285 -645h-508l-103 270l-65 -75v-195z" />
    <glyph glyph-name=".notdef" horiz-adv-x="1021" 
d="M680 -139h-340v-66h143l-143 -96v-68h340v68h-209l143 96h66v66zM612 72v-97h-204v97h204zM680 139h-340v-231h340v231zM680 494h-205v-115h70v47h67v-96h-204v164h-68v-232h340v232zM680 741h-68v-135h-272v-69h340v204zM680 864h-340v-67h135v-76h-135v-68h205v144h135
v67zM475 1063v-74h-67v74h67zM545 1133h-205v-213h340v69h-135v144zM680 1395h-338v-68h133v-76h-135v-65h340v65h-135v76h135v68zM838 1532v-2042h-648v2042h648z" />
    <glyph glyph-name=".null" 
 />
    <glyph glyph-name="nonmarkingreturn" horiz-adv-x="681" 
 />
    <glyph glyph-name="space" unicode=" " horiz-adv-x="286" 
 />
    <glyph glyph-name="exclam" unicode="!" horiz-adv-x="702" 
d="M123 193q1 97 67 163t161 66t162 -67t67 -161t-67 -162q-67 -67 -162 -67t-162 66q-66 66 -66 162zM573 1430l-20 -951h-408l-20 951h448z" />
    <glyph glyph-name="quotedbl" unicode="&#x22;" horiz-adv-x="976" 
d="M932 1532l-82 -588h-309l-41 588h432zM477 1532l-41 -588h-309l-82 588h432z" />
    <glyph glyph-name="numbersign" unicode="#" horiz-adv-x="1320" 
d="M694 645l29 139h-100l-29 -139h100zM1296 784h-166l-28 -139h94v-362h-172l-61 -283h-408l61 283h-100l-61 -283h-408l62 283h-84v362h161l29 139h-90v363h168l61 283h408l-62 -283h101l61 283h408l-62 -283h88v-363z" />
    <glyph glyph-name="dollar" unicode="$" horiz-adv-x="1026" 
d="M997 475q0 -317 -258 -426v-199h-387v162q-176 20 -321 97l98 401q166 -100 324 -100q109 0 108 43q0 23 -20 35t-90 34q-219 66 -314 179q-94 114 -94 283t80 279t233 152v156h387v-148q135 -20 236 -65l-148 -381q-143 72 -266 72q-74 0 -73 -41q0 -25 26 -44t105 -44
q170 -53 272 -155t102 -290z" />
    <glyph glyph-name="percent" unicode="%" horiz-adv-x="1734" 
d="M1440 323q0 37 -23 63t-61 26t-61 -26q-21 -26 -21 -64t22 -62t61 -24t61 24t22 63zM999 321q-1 153 97 255t260 102t260 -102t98 -256q0 -152 -97 -254t-261 -102t-260 102t-97 255zM378 1024q38 0 60 24t23 63q0 38 -23 64q-24 25 -62 25t-60 -26t-22 -63q0 -39 24 -63
q22 -24 60 -24zM1370 1430l-573 -1430h-430l573 1430h430zM377 752q-165 0 -261 102t-96 255t98 255t259 102q162 0 260 -102t98 -255t-97 -255t-261 -102z" />
    <glyph glyph-name="ampersand" unicode="&#x26;" horiz-adv-x="1351" 
d="M428 413q0 -46 32 -70t82 -24t72 3l-147 172q-39 -35 -39 -81zM618 1108q-40 0 -62 -22t-22 -56t20 -70q19 -34 69 -92l2 -4q81 64 81 154t-88 90zM494 -35q-228 0 -351 92t-123 277q0 254 263 377q-68 88 -102 169t-34 179q0 190 123 298q122 107 346 107t340 -94
t117 -264q0 -170 -82 -281t-190 -159l102 -119q20 68 21 149h374q0 -279 -124 -456l210 -240h-493l-17 18q-152 -53 -380 -53z" />
    <glyph glyph-name="quotesingle" unicode="'" horiz-adv-x="522" 
d="M477 1532l-61 -588h-310l-61 588h432z" />
    <glyph glyph-name="parenleft" unicode="(" horiz-adv-x="690" 
d="M469 645q0 -578 209 -924l-342 -194q-133 182 -219 470t-86 648t86 648t219 470l342 -194q-209 -346 -209 -924z" />
    <glyph glyph-name="parenright" unicode=")" horiz-adv-x="700" 
d="M221 655q0 588 -209 934l342 195q133 -182 219 -476t86 -658t-86 -653q-86 -288 -219 -470l-342 194q209 346 209 934z" />
    <glyph glyph-name="asterisk" unicode="*" horiz-adv-x="919" 
d="M895 1110l-236 -37l203 -199l-301 -174l-90 279l-92 -279l-301 174l198 195l-251 41l125 324l202 -150l-71 268h348l-60 -266l201 148z" />
    <glyph glyph-name="plus" unicode="+" horiz-adv-x="1144" 
d="M1038 866v-374h-274v-295h-385v295h-275v374h275v295h385v-295h274z" />
    <glyph glyph-name="comma" unicode="," horiz-adv-x="581" 
d="M300 418q99 0 164 -76t64 -221q0 -199 -98 -366t-262 -240l-135 196q176 104 227 252q-80 9 -134 69t-54 160t64 163q65 63 164 63z" />
    <glyph glyph-name="hyphen" unicode="-" horiz-adv-x="843" 
d="M66 375v362h712v-362h-712z" />
    <glyph glyph-name="period" unicode="." horiz-adv-x="620" 
d="M72 193q0 97 66 163t162 66q95 0 162 -67q66 -67 66 -161t-66 -162q-66 -67 -161 -67q-96 0 -163 66q-66 66 -66 162z" />
    <glyph glyph-name="slash" unicode="/" horiz-adv-x="1105" 
d="M1092 1661l-648 -1890h-430l648 1890h430z" />
    <glyph glyph-name="zero" unicode="0" horiz-adv-x="1404" 
d="M702 395q193 0 193 322q0 168 -47 244t-143 75q-195 0 -195 -320t192 -321zM705 -35q-317 0 -493 198q-175 198 -175 552t180 552q179 197 487 197t486 -196t178 -554q0 -357 -173 -553t-490 -196z" />
    <glyph glyph-name="one" unicode="1" horiz-adv-x="759" 
d="M614 1430v-1430h-448v1042h-117v388h565z" />
    <glyph glyph-name="two" unicode="2" horiz-adv-x="1173" 
d="M1128 401v-401h-1044v365l213 182q270 231 270 375q0 120 -123 120t-260 -110l-213 332q223 201 555 200q236 0 378 -116t142 -324q0 -206 -83 -348q-84 -142 -244 -273l-2 -2h411z" />
    <glyph glyph-name="three" unicode="3" horiz-adv-x="1169" 
d="M1118 387q0 -211 -150 -316t-411 -106q-168 0 -306 51t-233 134l203 354q68 -55 128 -83t157 -28q133 0 133 96q0 43 -39 65t-98 21h-125l2 289h108q139 0 140 90q0 88 -123 88q-150 0 -277 -92l-190 326q217 188 584 188q215 0 350 -101t135 -296q0 -242 -201 -338
q213 -104 213 -342z" />
    <glyph glyph-name="four" unicode="4" horiz-adv-x="1241" 
d="M637 606v312l-148 -312h148zM1241 606v-385h-168v-221h-436v221h-596v371l467 838h565v-824h168z" />
    <glyph glyph-name="five" unicode="5" horiz-adv-x="1107" 
d="M674 903q411 0 416 -426q0 -383 -347 -483q-100 -29 -225 -29q-322 0 -532 170l182 375q125 -119 293 -119q63 0 106 27t43 76q0 84 -84 84q-68 0 -114 -60l-320 111v801h903v-406h-481v-152q78 31 160 31z" />
    <glyph glyph-name="six" unicode="6" horiz-adv-x="1239" 
d="M526 479q0 -100 131 -100q45 0 78 27q33 26 33 72t-31 71t-86 24q-125 0 -125 -94zM762 895q148 0 244 -42t156 -139t61 -239q0 -227 -152 -369q-151 -142 -435 -141q-284 -1 -442 191t-157 547q0 355 181 559q182 204 478 202q296 0 467 -155l-229 -338q-86 74 -203 73
q-195 0 -217 -231q100 82 248 82z" />
    <glyph glyph-name="seven" unicode="7" horiz-adv-x="993" 
d="M18 1430h1026l-360 -1430h-491l290 1024h-465v406z" />
    <glyph glyph-name="eight" unicode="8" horiz-adv-x="1224" 
d="M612 563q-123 0 -123 -92t123 -92t123 92t-123 92zM612 1055q-48 0 -74 -27t-26 -75q0 -47 26 -75t74 -28t75 28q26 28 26 75q0 48 -27 75t-74 27zM1188 371q0 -209 -144 -307t-432 -99q-287 0 -431 98t-144 308q0 248 205 346q-164 115 -164 344q0 184 134 294
q134 109 400 109t401 -109q134 -110 134 -294q0 -229 -162 -344q203 -100 203 -346z" />
    <glyph glyph-name="nine" unicode="9" horiz-adv-x="1245" 
d="M618 856q51 0 83 26t32 70t-28 72q-29 27 -82 27q-111 0 -111 -99q0 -44 28 -70t78 -26zM562 -35q-326 0 -523 174l205 361q113 -115 272 -115q215 0 229 229q-96 -80 -272 -80t-293 106q-117 104 -117 328q-1 224 145 360t402 136q293 0 453 -194t160 -522
q2 -385 -166 -584q-169 -199 -495 -199z" />
    <glyph glyph-name="colon" unicode=":" horiz-adv-x="641" 
d="M72 199q0 97 66 163t162 66q95 0 162 -67q66 -67 66 -163t-66 -161q-66 -66 -161 -66q-96 0 -163 66q-66 66 -66 162zM72 907q0 96 66 163q67 67 162 67t162 -67q66 -67 66 -163t-66 -162q-66 -65 -161 -65q-96 0 -163 65q-66 66 -66 162z" />
    <glyph glyph-name="semicolon" unicode=";" horiz-adv-x="602" 
d="M300 418q99 0 164 -76t64 -221q0 -199 -98 -366t-262 -240l-135 196q176 104 227 252q-80 9 -134 69t-54 160t64 163q65 63 164 63zM297 680q-96 0 -163 66t-66 161q0 96 66 163q67 67 162 67t162 -67q66 -67 66 -163t-65 -162q-66 -65 -162 -65z" />
    <glyph glyph-name="less" unicode="&#x3c;" horiz-adv-x="980" 
d="M874 1210v-415l-436 -136l436 -147v-416l-851 348v439z" />
    <glyph glyph-name="equal" unicode="=" horiz-adv-x="1142" 
d="M104 614h934v-374h-934v374zM104 1087h934v-374h-934v374z" />
    <glyph glyph-name="greater" unicode="&#x3e;" horiz-adv-x="980" 
d="M104 1210l852 -327v-439l-852 -348v416l437 147l-437 136v415z" />
    <glyph glyph-name="question" unicode="?" horiz-adv-x="1044" 
d="M276 193q0 97 67 163t162 66t162 -67t67 -163t-66 -161q-66 -66 -162 -66t-163 66t-67 162zM551 1464q191 0 313 -84q142 -94 142 -340q0 -210 -132 -319q-63 -53 -153 -80l-6 -162h-408l-8 365h68q186 0 186 123q-1 92 -111 92t-213 -84l-200 301q213 188 522 188z" />
    <glyph glyph-name="at" unicode="@" horiz-adv-x="1867" 
d="M932 680q-98 0 -98 -140t94 -141q70 0 98 56v153q-29 72 -94 72zM1364 940v-491q0 -137 63 -138q27 -1 43 19q39 48 39 220q0 171 -28 270q-104 356 -518 360q-257 0 -427 -174q-83 -84 -130 -215q-48 -131 -48 -264q-2 -492 378 -611q98 -31 234 -31t246 25t236 82
l68 -256q-242 -119 -564 -119q-260 -2 -456 97t-310 301q-113 202 -112 483q0 219 70 400q136 346 473 481q160 65 337 65q353 0 585 -200q115 -99 181 -265t66 -383q0 -325 -163 -469q-93 -82 -241 -82q-106 0 -188 44t-127 124q-97 -117 -247 -117t-240 104t-90 334
t96 334t239 104t220 -106l14 74h301z" />
    <glyph glyph-name="A" unicode="A" horiz-adv-x="1300" 
d="M547 582h151l-84 348zM838 0l-54 221h-307l-43 -221h-442l373 1430h524l420 -1430h-471z" />
    <glyph glyph-name="B" unicode="B" horiz-adv-x="1310" 
d="M717 397q49 0 80 25t30 76q0 88 -112 88h-162v-189h164zM653 860q113 0 113 87t-113 87h-100v-174h100zM727 0h-623v1430h660q211 0 326 -92q114 -92 114 -282t-164 -284q111 -35 172 -119t62 -213q0 -208 -135 -324t-412 -116z" />
    <glyph glyph-name="C" unicode="C" horiz-adv-x="1335" 
d="M735 -35q-326 0 -509 197.5t-183 549.5t207 552t529 200t538 -188l-236 -375q-115 127 -293 127q-121 0 -196.5 -80t-77.5 -230t70.5 -231t206.5 -81q207 0 329 153l195 -397q-82 -90 -238 -143.5t-342 -53.5z" />
    <glyph glyph-name="D" unicode="D" horiz-adv-x="1417" 
d="M588 1026h-35v-620h35q305 -1 309 327q2 145 -71.5 219t-237.5 74zM627 1430q350 0 548.5 -172.5t198.5 -526.5t-201.5 -542.5t-545.5 -188.5h-523v1430h523z" />
    <glyph glyph-name="E" unicode="E" horiz-adv-x="1157" 
d="M1110 1028h-555v-121h403v-358h-403v-143h555v-406h-1006v1430h1006v-402z" />
    <glyph glyph-name="F" unicode="F" horiz-adv-x="1112" 
d="M1102 1024h-547v-145h395v-369h-395v-510h-451v1430h998v-406z" />
    <glyph glyph-name="G" unicode="G" horiz-adv-x="1406" 
d="M688 868h653v-805q-291 -98 -607 -98t-503.5 194.5t-187.5 552.5t197.5 555t536.5 197t546 -196l-270 -332q-113 96 -257 96t-217 -86t-73 -234t67.5 -231.5t198.5 -83.5q72 0 121 13v100h-205v358z" />
    <glyph glyph-name="H" unicode="H" horiz-adv-x="1402" 
d="M850 1430h448v-1430h-448v514h-297v-514h-449v1430h449v-502h297v502z" />
    <glyph glyph-name="I" unicode="I" horiz-adv-x="657" 
d="M553 1430v-1430h-449v1430h449z" />
    <glyph glyph-name="J" unicode="J" horiz-adv-x="960" 
d="M336 -35q-223 0 -367 109l115 409q82 -115 207 -114q74 0 110.5 44t36.5 150v867h449v-824q0 -641 -551 -641z" />
    <glyph glyph-name="K" unicode="K" horiz-adv-x="1318" 
d="M553 0h-449v1430h449v-390l252 390h518l-377 -521l371 -909h-531l-163 461l-70 -94v-367z" />
    <glyph glyph-name="L" unicode="L" horiz-adv-x="1028" 
d="M104 1430h451v-1024h457v-406h-908v1430z" />
    <glyph glyph-name="M" unicode="M" horiz-adv-x="1734" 
d="M1198 0v602l-176 -483h-326l-178 489v-608h-414v1430h539l236 -594l211 594h516l24 -1430h-432z" />
    <glyph glyph-name="N" unicode="N" horiz-adv-x="1382" 
d="M864 1430h414v-1430h-420l-340 569v-569h-414v1430h416l344 -582v582z" />
    <glyph glyph-name="O" unicode="O" horiz-adv-x="1568" 
d="M784 399q127 0 199 84t72 231.5t-71 232.5t-200 85t-199.5 -85t-70.5 -232.5t71.5 -231.5t198.5 -84zM784 -35q-338 0 -540.5 198.5t-202.5 548.5t208 551t535.5 201t535.5 -200.5t208 -550.5t-203 -549t-541 -199z" />
    <glyph glyph-name="P" unicode="P" horiz-adv-x="1249" 
d="M662 834q109 0 108 100q0 90 -111 90h-106v-190h109zM707 1430q535 0 534 -492q0 -498 -530 -498h-158v-440h-449v1430h603z" />
    <glyph glyph-name="Q" unicode="Q" horiz-adv-x="1566" 
d="M1370 -440h-813v354h813v-354zM784 399q127 0 199 84t72 231.5t-71 232.5t-200 85t-199.5 -85t-70.5 -232.5t71.5 -231.5t198.5 -84zM784 -35q-338 0 -540.5 198.5t-202.5 548.5t208 551t535.5 201t535.5 -200.5t208 -550.5t-203 -549t-541 -199z" />
    <glyph glyph-name="R" unicode="R" horiz-adv-x="1325" 
d="M670 834q100 0 100 95t-102 95h-115v-190h117zM553 473v-473h-449v1430h617q248 0 384 -119t136 -357q0 -125 -52 -227t-149 -166l279 -561h-531l-196 473h-39z" />
    <glyph glyph-name="S" unicode="S" horiz-adv-x="1067" 
d="M478 -35q-269 0 -474 135l152 410q139 -129 315 -129q111 0 111 51q0 27 -23.5 40t-87.5 32q-219 63 -325.5 181t-106.5 319.5t128 329.5t368 128q305 0 516 -121l-207 -387q-57 47 -135 74t-145.5 27t-67.5 -41q0 -24 24 -40q26 -16 104 -38q168 -48 280 -146
q134 -115 134 -348t-145.5 -355t-414.5 -122z" />
    <glyph glyph-name="T" unicode="T" horiz-adv-x="1073" 
d="M1053 1430v-414h-291v-1016h-449v1016h-290v414h1030z" />
    <glyph glyph-name="U" unicode="U" horiz-adv-x="1296" 
d="M650 -35q-286 0 -443.5 168t-157.5 481v816h449v-846q0 -190 151 -191q150 0 150 191v846h448v-816q0 -319 -155.5 -484t-441.5 -165z" />
    <glyph glyph-name="V" unicode="V" horiz-adv-x="1361" 
d="M893 1430h465l-436 -1430h-525l-393 1430h481l144 -697q27 -129 45 -248q25 139 53 256z" />
    <glyph glyph-name="W" unicode="W" horiz-adv-x="1957" 
d="M1483 1430h461l-297 -1430h-519l-104 428q-20 86 -53 242q-37 -158 -58 -240l-110 -430h-518l-271 1430h486l47 -642q2 -29 6 -79t7 -92t7 -78q27 158 51 249l166 639h414l143 -616q31 -127 50 -264q23 176 30 256z" />
    <glyph glyph-name="X" unicode="X" horiz-adv-x="1304" 
d="M1296 0h-485l-164 432l-147 -432h-492l354 737l-333 693h485l148 -410l133 410h481l-324 -680z" />
    <glyph glyph-name="Y" unicode="Y" horiz-adv-x="1286" 
d="M874 0h-448v446l-418 984h486l153 -537l152 537h481l-406 -941v-489z" />
    <glyph glyph-name="Z" unicode="Z" horiz-adv-x="1142" 
d="M1112 401v-401h-1053v375l437 649h-461v406h1040v-375l-463 -654h500z" />
    <glyph glyph-name="bracketleft" unicode="[" horiz-adv-x="690" 
d="M647 1389h-155v-1491h155v-328h-584v2146h584v-327z" />
    <glyph glyph-name="backslash" unicode="\" horiz-adv-x="1024" 
d="M1092 -229h-430l-648 1890h430z" />
    <glyph glyph-name="bracketright" unicode="]" horiz-adv-x="690" 
d="M43 1716h584v-2146h-584v328h156v1491h-156v327z" />
    <glyph glyph-name="asciicircum" unicode="^" horiz-adv-x="1196" 
d="M1155 678h-416l-135 436l-147 -436h-416l348 852h438z" />
    <glyph glyph-name="underscore" unicode="_" horiz-adv-x="1038" 
d="M66 -322v291h907v-291h-907z" />
    <glyph glyph-name="grave" unicode="`" horiz-adv-x="1228" 
d="M616 1128h-288l-287 467h416z" />
    <glyph glyph-name="a" unicode="a" horiz-adv-x="1028" 
d="M481 238q55 0 80 41v45q-31 41 -80 41q-68 0 -67 -66q-1 -61 67 -61zM530 1016q229 0 337 -106.5t108 -346.5v-563h-414v47q-96 -82 -238.5 -82t-224.5 79t-82 237t95 225t228.5 67t221.5 -55v4q0 76 -29.5 105.5t-101.5 29.5q-127 0 -231 -57l-140 297q186 119 471 119z
" />
    <glyph glyph-name="b" unicode="b" horiz-adv-x="1163" 
d="M723 487q0 150 -117 150q-84 0 -125 -80v-129q37 -80 123 -80q51 0 85 34t34 105zM746 1016q167 0 283 -127t116 -404q0 -139 -39 -244q-68 -183 -238 -248q-72 -28 -147 -28q-156 0 -240 96v-61h-428v1532h428v-614q98 98 265 98z" />
    <glyph glyph-name="c" unicode="c" horiz-adv-x="929" 
d="M570 637q-134 -1 -134 -143q0 -64 32 -104t89 -40q88 0 139 70l236 -285q-63 -78 -176 -124t-248 -46q-215 0 -352.5 134t-137.5 389.5t148.5 391.5t382 136t379.5 -146l-252 -280q-36 47 -106 47z" />
    <glyph glyph-name="d" unicode="d" horiz-adv-x="1161" 
d="M567 346q82 0 117 60v176q-35 63 -115 63q-129 0 -129 -151q0 -113 77 -140q23 -8 50 -8zM684 1532h428v-1532h-428v63q-98 -98 -257 -98q-159 1 -277 113q-60 58 -95 164t-35 247.5t37 248t99 164.5q121 114 281.5 114t246.5 -101v617z" />
    <glyph glyph-name="e" unicode="e" horiz-adv-x="1015" 
d="M516 694q-71 0 -82 -106h156q-4 57 -21.5 81.5t-52.5 24.5zM999 537v-115h-559q12 -49 49 -69.5t138.5 -20.5t242.5 53l127 -307q-178 -113 -446 -113t-401.5 135.5t-133.5 382t140.5 390t367.5 143.5t351 -117.5t124 -361.5z" />
    <glyph glyph-name="f" unicode="f" horiz-adv-x="708" 
d="M616 1204q-70 0 -69 -106v-117h121v-317h-121v-664h-428v664h-82v317h82v176q0 410 370 410q199 0 336 -88l-100 -310q-48 35 -109 35z" />
    <glyph glyph-name="g" unicode="g" horiz-adv-x="1003" 
d="M491 -225q133 0 134 57q0 39 -64 39h-186q-16 -14 -17 -39q0 -57 133 -57zM479 717q-94 0 -94 -76t94 -76t94 76t-94 76zM485 -545q-477 0 -477 287q0 139 98 215q-80 80 -79.5 213t114.5 219q-88 99 -88 235q1 136 51 221q102 171 355 171q119 0 213 -35h297v-303h-66
q2 -16 2 -35q0 -178 -124 -280.5t-322 -102.5q-49 0 -94 8q-10 -16 -11 -30q0 -41 41 -41h207q184 0 289.5 -87t105.5 -253q0 -401 -512 -402z" />
    <glyph glyph-name="h" unicode="h" horiz-adv-x="1095" 
d="M745 1018q145 0 224.5 -85t79.5 -255v-678h-428v545q0 94 -68 94q-47 0 -72 -51v-588h-428v1532h428v-651q82 137 264 137z" />
    <glyph glyph-name="i" unicode="i" horiz-adv-x="550" 
d="M61 0v981h428v-981h-428zM514 1286q0 -98 -69 -168t-167 -69q-98 -1 -168 69t-71 168q0 98 71 169q72 71 168 71t166 -71t70 -169z" />
    <glyph glyph-name="j" unicode="j" horiz-adv-x="616" 
d="M88 -37v1018h428v-1020q0 -256 -110 -380t-379 -148l-115 356q90 2 133 43t43 131zM90 1325q0 98 71 169t168 71t167 -71t70 -169t-70 -168q-68 -70 -166 -70t-169 70t-71 168z" />
    <glyph glyph-name="k" unicode="k" horiz-adv-x="1148" 
d="M481 0h-428v1532h428v-803l187 252h497l-293 -336l285 -645h-508l-102 270l-66 -75v-195z" />
    <glyph glyph-name="l" unicode="l" horiz-adv-x="534" 
d="M481 1532v-1532h-428v1532h428z" />
    <glyph glyph-name="m" unicode="m" horiz-adv-x="1622" 
d="M1286 1016q289 0 289 -338v-678h-428v551q0 84 -55 84q-41 0 -64 -45v-590h-428v551q0 84 -59 84q-39 0 -60 -45v-590h-428v981h428v-104q84 139 262 139q203 0 263 -180q77 180 280 180z" />
    <glyph glyph-name="n" unicode="n" horiz-adv-x="1095" 
d="M748 1016q141 0 221 -86t80 -252v-678h-428v541q0 94 -68 94q-47 0 -72 -49v-586h-428v981h428v-102q83 137 267 137z" />
    <glyph glyph-name="o" unicode="o" horiz-adv-x="1122" 
d="M561.5 354q59.5 0 92 36t32.5 103.5t-32.5 103.5t-92 36t-92.5 -36t-33 -103.5t33 -103.5t92.5 -36zM561 -35q-248 0 -396.5 139.5t-148.5 387t149.5 386t395.5 138.5t395.5 -138.5t149.5 -386t-148.5 -387t-396.5 -139.5z" />
    <glyph glyph-name="p" unicode="p" horiz-adv-x="1167" 
d="M725 487q0 139 -123 142q-100 0 -121 -105v-47q17 -123 117 -123q89 0 118 75q9 26 9 58zM766 1016q148 0 257 -109q56 -57 89 -166t33 -241q0 -344 -186 -468q-96 -65 -245 -66t-233 93v-563h-428v1485h428v-119q92 154 285 154z" />
    <glyph glyph-name="q" unicode="q" horiz-adv-x="1157" 
d="M567 346q82 0 117 60v176q-35 63 -115 63q-129 0 -129 -151q0 -111 77 -140q23 -8 50 -8zM684 981h428v-1491h-428v573q-98 -98 -256 -98t-277 113q-59 58 -95 164t-36 247t37 247t99 166q122 114 282 114t246 -101v66z" />
    <glyph glyph-name="r" unicode="r" horiz-adv-x="784" 
d="M698 1012q53 0 80 -17l-2 -370q-246 43 -295 -211v-414h-428v981h428v-178q67 209 217 209z" />
    <glyph glyph-name="s" unicode="s" horiz-adv-x="878" 
d="M39 670q-1 223 191 307q94 41 223 41q227 0 374 -82l-131 -305q-100 57 -221 57q-45 0 -45 -17t76 -32q330 -53 330 -320q0 -172 -118 -263t-335 -91t-350 82l100 311q123 -72 236 -71q70 0 69 18q0 15 -53 21q-346 55 -346 344z" />
    <glyph glyph-name="t" unicode="t" horiz-adv-x="776" 
d="M447.5 -35q-187.5 0 -276.5 97.5t-89 312.5v289h-72v317h72v279h428v-279h197v-317h-197v-232q0 -90 59 -90q50 0 103 33l104 -328q-141 -82 -328.5 -82z" />
    <glyph glyph-name="u" unicode="u" horiz-adv-x="1085" 
d="M604 981h428v-981h-428v98q-80 -133 -264 -133q-293 0 -293 338v678h428v-541q0 -94 64 -94q43 0 65 45v590z" />
    <glyph glyph-name="v" unicode="v" horiz-adv-x="1134" 
d="M688 981h457l-354 -981h-492l-309 981h454l115 -573z" />
    <glyph glyph-name="w" unicode="w" horiz-adv-x="1607" 
d="M1161 981h443l-304 -981h-413l-115 406l-139 -406h-402l-227 981h440l43 -418l121 412h375l102 -391z" />
    <glyph glyph-name="x" unicode="x" horiz-adv-x="1089" 
d="M1081 0h-454l-84 205l-78 -205h-457l277 475l-273 506h455l80 -221l74 221h456l-276 -481z" />
    <glyph glyph-name="y" unicode="y" horiz-adv-x="1150" 
d="M700 981h445l-559 -1491h-445l219 510l-354 981h455l114 -451z" />
    <glyph glyph-name="z" unicode="z" horiz-adv-x="870" 
d="M852 330v-330h-815v324l264 329h-281v328h805v-315l-280 -336h307z" />
    <glyph glyph-name="braceleft" unicode="{" horiz-adv-x="751" 
d="M590 1405q-66 0 -66 -78q0 -51 34 -186t34 -240q0 -186 -160 -242q160 -57 160 -243q0 -104 -34 -240t-34 -186q0 -78 66 -78q49 0 117 27v-340q-127 -29 -277 -29t-242 74t-92 235q0 72 42 252q42 181 42 243t-24 88q-25 26 -93 25v342q68 0 93 26q24 26 24 88
q0 63 -42 243t-42 252q0 162 92 236t242 73q150 0 277 -29v-340q-68 27 -117 27z" />
    <glyph glyph-name="bar" unicode="|" horiz-adv-x="780" 
d="M604 1663v-1894h-428v1894h428z" />
    <glyph glyph-name="braceright" unicode="}" horiz-adv-x="751" 
d="M688 487q-68 1 -92 -25t-25 -88q0 -62 42 -242t42 -253q0 -161 -92 -235q-91 -74 -241 -74t-277 29v340q66 -27 117 -27q66 0 65 78q0 51 -33 186q-34 135 -34 240q0 186 159 243q-160 55 -159 242q0 103 34 239t33 187q0 78 -65 78q-51 0 -117 -27v340q127 29 277 29
t241 -74q92 -74 92 -235q0 -72 -42 -252t-42 -242t25 -89q25 -26 92 -26v-342z" />
    <glyph glyph-name="asciitilde" unicode="~" horiz-adv-x="991" 
d="M686 469q-76 -1 -211 69t-180 70q-79 0 -157 -55q-24 -16 -72 -55v354q115 119 239 119q63 0 201 -70t186 -70q82 0 161 56q24 16 73 55v-358q-106 -115 -240 -115z" />
    <glyph glyph-name="exclamdown" unicode="&#xa1;" horiz-adv-x="702" 
d="M573 -446h-448l20 950h408zM351 1018q95 0 162 -67t67 -161t-67 -162q-67 -67 -162 -67t-162 67t-66 163q1 95 67 161t161 66z" />
    <glyph glyph-name="cent" unicode="&#xa2;" horiz-adv-x="948" 
d="M324 -2v252q-145 49 -230 181q-84 132 -84 339q0 267 153 411q71 67 165 101v248h387v-236q127 -31 217 -96l-189 -311q-61 49 -155 49q-160 0 -160 -164t154 -164q113 0 186 74l166 -313q-66 -68 -209 -111l-14 -260h-387z" />
    <glyph glyph-name="sterling" unicode="&#xa3;" horiz-adv-x="1153" 
d="M1106 403v-403h-1059v403h180q-10 41 -37 129h-147v359h72v43q0 266 139 398t387 132q137 0 260 -34t203 -89l-193 -362q-92 74 -194 74q-131 0 -131 -150v-12h340v-359h-285q34 -123 35 -129h430z" />
    <glyph glyph-name="currency" unicode="&#xa4;" horiz-adv-x="1122" 
d="M561 903q-69 0 -107 -43t-38 -116q0 -74 39 -118t107 -44t106 45q39 45 39 117t-39 116q-39 43 -107 43zM1106 742q0 -173 -76 -296l111 -161l-320 -219l-112 163q-70 -14 -142 -14t-133 10l-110 -159l-320 219l98 145q-86 127 -86 312t93 315l-105 153l320 220l118 -175
q135 24 258 -4l121 179l320 -220l-115 -170q80 -125 80 -298z" />
    <glyph glyph-name="yen" unicode="&#xa5;" horiz-adv-x="1286" 
d="M1174 942v-358h-300v-49h300v-359h-300v-176h-448v176h-299v359h299v49h-299v358h127l-246 488h486l155 -457l150 457h481l-250 -488h144z" />
    <glyph glyph-name="brokenbar" unicode="&#xa6;" horiz-adv-x="780" 
d="M604 653v-884h-428v884h428zM604 1663v-885h-428v885h428z" />
    <glyph glyph-name="section" unicode="&#xa7;" horiz-adv-x="1136" 
d="M748 514q0 39 -85 61q-41 11 -60 17t-65 18q-46 11 -92 27q-24 -16 -24 -51q0 -36 41 -62t116 -44t103 -25q66 12 66 59zM518 1059q0 -63 207 -105q311 -65 390 -203q32 -56 32 -146q0 -89 -55 -163t-154 -106q121 -102 121 -282t-126 -296q-125 -114 -401 -114t-520 125
l152 342q162 -100 344 -101q123 0 123 43q0 19 -47 35t-199 45q-176 45 -269 125t-93 229q0 98 48 169t136 108q-117 109 -117 311q0 166 125 277t379 112q322 -4 522 -102l-162 -361q-178 94 -336 93q-100 4 -100 -35z" />
    <glyph glyph-name="dieresis" unicode="&#xa8;" horiz-adv-x="1228" 
d="M516 1368q0 90 64.5 155.5t155.5 65.5t154.5 -64.5t63.5 -155.5t-63.5 -155.5t-154.5 -64.5t-155.5 64.5t-64.5 154.5zM41 1368q0 90 64.5 155.5t155.5 65.5t154.5 -64.5t63.5 -155.5t-63.5 -155.5t-154.5 -64.5t-155.5 64.5t-64.5 154.5z" />
    <glyph glyph-name="copyright" unicode="&#xa9;" horiz-adv-x="1832" 
d="M995 909q-119 0 -119 -132t124 -132q66 0 133 64l190 -275q-129 -156 -387 -155q-205 0 -336 127q-131 128 -131 368t138 369q139 129 355 129t351 -121l-205 -287q-53 45 -113 45zM1567 762q-1 307 -191 493q-190 187 -460 187t-459 -186q-191 -186 -191 -494t186 -488
t464 -180t464 180t187 488zM121 760q0 352 216 577t577 225q362 0 580 -230q218 -232 218 -571t-217 -567t-582 -228t-579 220q-214 222 -213 574z" />
    <glyph glyph-name="guillemotleft" unicode="&#xab;" horiz-adv-x="1161" 
d="M1096 1087v-415l-193 -97l193 -104v-416l-504 328v397zM43 383v397l485 307v-415l-184 -97l184 -104v-416z" />
    <glyph glyph-name="logicalnot" unicode="&#xac;" horiz-adv-x="1142" 
d="M1055 928v-586h-375v211h-576v375h951z" />
    <glyph glyph-name="registered" unicode="&#xae;" horiz-adv-x="1126" 
d="M598 1178q0 31 -39 30h-22v-61h22q39 0 39 31zM788 1192q0 -96 -67 -145l96 -201h-213l-59 164h-8v-164h-183v528h236q198 0 198 -182zM563 688q168 0 278 104t109 293q0 188 -109 297q-110 109 -278 109q-167 0 -277 -109t-110 -297q0 -189 110 -293t277 -104zM66 1085
q0 221 135 361t361 141q226 0 362 -145q136 -144 137 -356q0 -212 -136 -355q-135 -143 -363 -143t-362 138t-134 359z" />
    <glyph glyph-name="macron" unicode="&#xaf;" horiz-adv-x="1228" 
d="M41 1532h741v-354h-741v354z" />
    <glyph glyph-name="degree" unicode="&#xb0;" horiz-adv-x="749" 
d="M385 1018q43 0 74 31t31 78t-15 73q-30 57 -89 57q-60 1 -93 -33t-33 -79t15 -73t41 -41t69 -13zM374 782q-165 0 -262 98q-98 98 -98 254q0 157 96 255t264 98q167 1 264 -101t97 -252t-98 -252q-98 -100 -263 -100z" />
    <glyph glyph-name="plusminus" unicode="&#xb1;" horiz-adv-x="1144" 
d="M104 20v375h934v-375h-934zM764 1042h274v-374h-274v-213h-385v213h-275v374h275v213h385v-213z" />
    <glyph glyph-name="acute" unicode="&#xb4;" horiz-adv-x="1228" 
d="M614 1595l-286 -467h-289l160 467h415z" />
    <glyph glyph-name="paragraph" unicode="&#xb6;" horiz-adv-x="1105" 
d="M569 1430h447v-1649h-449v659q-545 0 -544 498q-1 492 546 492z" />
    <glyph glyph-name="periodcentered" unicode="&#xb7;" horiz-adv-x="620" 
d="M72 702q0 96 66 163q67 67 162 67t162 -67q66 -67 66 -163t-66 -162t-161 -65q-97 -1 -163 65t-66 162z" />
    <glyph glyph-name="cedilla" unicode="&#xb8;" horiz-adv-x="1228" 
d="M458 -100q36 0 66 -8q134 -37 135 -214q0 -143 -91 -216.5t-253 -73.5t-280 73l94 213q96 -57 170 -57t74 49q0 41 -35 41q-27 0 -47 -31l-185 60l101 295h248l-64 -140q31 9 67 9z" />
    <glyph glyph-name="guillemotright" unicode="&#xbb;" horiz-adv-x="1161" 
d="M633 1087l485 -307v-397l-485 -328v416l184 104l-184 97v415zM66 672v415l503 -307v-397l-503 -328v416l192 104z" />
    <glyph glyph-name="questiondown" unicode="&#xbf;" horiz-adv-x="1044" 
d="M471 -481q-191 0 -313 84q-142 94 -142 340q0 314 287 399l4 162h408l8 -365h-68q-186 0 -186 -123q0 -92 111 -92t213 84l200 -301q-213 -188 -522 -188zM517 561q-95 0 -162 67t-67 162q0 96 68 162q66 66 161 66t162 -66t67 -162t-68 -162q-66 -67 -161 -67z" />
    <glyph glyph-name="Agrave" unicode="&#xc0;" horiz-adv-x="1300" 
d="M547 582h151l-84 348zM838 0l-54 221h-307l-43 -221h-442l373 1430h524l420 -1430h-471zM760 1577h-289l-287 467h416z" />
    <glyph glyph-name="Aacute" unicode="&#xc1;" horiz-adv-x="1300" 
d="M547 582h151l-84 348zM838 0l-54 221h-307l-43 -221h-442l373 1430h524l420 -1430h-471zM1161 2007l-405 -430h-330l279 430h456z" />
    <glyph glyph-name="Acircumflex" unicode="&#xc2;" horiz-adv-x="1300" 
d="M547 582h151l-84 348zM838 0l-54 221h-307l-43 -221h-442l373 1430h524l420 -1430h-471zM612 1733l-120 -156h-330l282 487h334l283 -487h-330z" />
    <glyph glyph-name="Atilde" unicode="&#xc3;" horiz-adv-x="1300" 
d="M547 582h151l-84 348zM838 0l-54 221h-307l-43 -221h-442l373 1430h524l420 -1430h-471zM475 1495h-309q-23 446 233 447q75 0 137 -40q20 -14 66.5 -46.5t71.5 -32.5q49 0 49 112h309q25 -446 -244 -446q-76 0 -186 80q-53 39 -80 39q-47 0 -47 -113z" />
    <glyph glyph-name="Adieresis" unicode="&#xc4;" horiz-adv-x="1300" 
d="M547 582h151l-84 348zM838 0l-54 221h-307l-43 -221h-442l373 1430h524l420 -1430h-471zM853 1577q-139 0 -201 134q-18 40 -19 85q0 89 64 155t155.5 66t155 -64.5t63.5 -156.5t-63.5 -155.5t-154.5 -63.5zM378 1577q-44 0 -85 17.5t-69.5 47t-47 69.5t-18.5 85
q0 89 64 155t140 66t126.5 -29.5t79 -81t28.5 -103.5t-16.5 -92t-46 -69.5t-70.5 -47t-85 -17.5z" />
    <glyph glyph-name="Aring" unicode="&#xc5;" horiz-adv-x="1300" 
d="M547 582h151l-84 348zM838 0l-54 221h-307l-43 -221h-442l373 1430h524l420 -1430h-471zM615.5 1929q-33.5 0 -55 -22.5t-21.5 -60.5t21.5 -59.5t55 -21.5t54 21.5t20.5 59.5t-20.5 60.5t-54 22.5zM614.5 1556q-147.5 0 -228.5 77t-81 212t81 213t228.5 78t228.5 -80
t81 -210t-81 -210t-228.5 -80z" />
    <glyph glyph-name="AE" unicode="&#xc6;" horiz-adv-x="1691" 
d="M803 582l-10 448h-33l-150 -448h193zM1645 1028h-402l4 -121h246v-358h-238l5 -143h385v-406h-826l-6 221h-321l-74 -221h-443l537 1430h1133v-402z" />
    <glyph glyph-name="Ccedilla" unicode="&#xc7;" horiz-adv-x="1335" 
d="M791 406q207 0 329 153l195 -397q-70 -76 -194 -126t-275 -65l-21 -45q31 8 66 8q96 0 150.5 -56t54.5 -158t-42 -168q-83 -129 -306 -130q-160 0 -277 74l94 213q96 -57 170 -57t74 49q0 41 -35 41q-29 0 -47 -31l-184 60l67 202q-268 37 -417.5 230.5t-149.5 527.5
t207 533.5t529 199.5t538 -188l-236 -375q-115 127 -293 127q-121 0 -196.5 -80t-77.5 -230.5t71 -231t206 -80.5z" />
    <glyph glyph-name="Egrave" unicode="&#xc8;" horiz-adv-x="1157" 
d="M1110 1028h-555v-121h403v-358h-403v-143h555v-406h-1006v1430h1006v-402zM723 1577h-289l-287 467h416z" />
    <glyph glyph-name="Eacute" unicode="&#xc9;" horiz-adv-x="1157" 
d="M104 0v1430h1006v-402h-555v-121h403v-358h-403v-143h555v-406h-1006zM1122 2007l-405 -430h-330l279 430h456z" />
    <glyph glyph-name="Ecircumflex" unicode="&#xca;" horiz-adv-x="1157" 
d="M1110 1028h-555v-121h403v-358h-403v-143h555v-406h-1006v1430h1006v-402zM573 1733l-118 -156h-330l283 487h333l283 -487h-330z" />
    <glyph glyph-name="Edieresis" unicode="&#xcb;" horiz-adv-x="1157" 
d="M1110 1028h-555v-121h403v-358h-403v-143h555v-406h-1006v1430h1006v-402zM816 1577q-91 0 -155.5 64.5t-64.5 154.5t64.5 155.5t155.5 65.5t154.5 -64.5t63.5 -155.5t-63.5 -155.5t-154.5 -64.5zM341 1577q-91 0 -155.5 64.5t-64.5 154.5t64.5 155.5t155.5 65.5
t154.5 -64.5t63.5 -155.5t-63.5 -155.5t-154.5 -64.5z" />
    <glyph glyph-name="Igrave" unicode="&#xcc;" horiz-adv-x="657" 
d="M553 1430v-1430h-449v1430h449zM186 1577l-286 467h415l160 -467h-289z" />
    <glyph glyph-name="Iacute" unicode="&#xcd;" horiz-adv-x="657" 
d="M553 1430v-1430h-449v1430h449zM874 2007l-405 -430h-330l279 430h456z" />
    <glyph glyph-name="Icircumflex" unicode="&#xce;" horiz-adv-x="657" 
d="M104 0v1430h449v-1430h-449zM328 1733l-121 -156h-330l283 487h334l282 -487h-330z" />
    <glyph glyph-name="Idieresis" unicode="&#xcf;" horiz-adv-x="657" 
d="M553 1430v-1430h-449v1430h449zM568 1577q-91 0 -155.5 64.5t-64.5 154.5t64.5 155.5t155.5 65.5t154.5 -64.5t63.5 -155.5t-63.5 -155.5t-154.5 -64.5zM93 1577q-91 0 -155.5 64.5t-64.5 154.5t64.5 155.5t155.5 65.5t154.5 -64.5t63.5 -155.5t-63.5 -155.5
t-154.5 -64.5z" />
    <glyph glyph-name="Eth" unicode="&#xd0;" horiz-adv-x="1417" 
d="M588 1026h-35v-129h162v-362h-162v-129h35q305 -1 309 327q2 145 -71.5 219t-237.5 74zM627 1430q350 0 548.5 -172.5t198.5 -526.5t-201.5 -542.5t-545.5 -188.5h-523v535h-102v362h102v533h523z" />
    <glyph glyph-name="Ntilde" unicode="&#xd1;" horiz-adv-x="1382" 
d="M864 1430h414v-1430h-420l-340 569v-569h-414v1430h416l344 -582v582zM553 1495h-309q-23 446 233 447q73 0 137 -40q22 -14 67.5 -46.5t70.5 -32.5q49 0 49 112h309q23 -446 -244 -446q-76 0 -186 80q-55 39 -80 39q-47 0 -47 -113z" />
    <glyph glyph-name="Ograve" unicode="&#xd2;" horiz-adv-x="1568" 
d="M784 399q127 0 199 84t72 231.5t-71 232.5t-200 85t-199.5 -85t-70.5 -232.5t71.5 -231.5t198.5 -84zM784 -35q-338 0 -540.5 198.5t-202.5 548.5t208 551t535.5 201t535.5 -200.5t208 -550.5t-203 -549t-541 -199zM641 1577l-287 467h416l160 -467h-289z" />
    <glyph glyph-name="Oacute" unicode="&#xd3;" horiz-adv-x="1568" 
d="M784 399q127 0 199 84t72 231.5t-71 232.5t-200 85t-199.5 -85t-70.5 -232.5t71.5 -231.5t198.5 -84zM784 -35q-338 0 -540.5 198.5t-202.5 548.5t208 551t535.5 201t535.5 -200.5t208 -550.5t-203 -549t-541 -199zM1329 2007l-405 -430h-330l278 430h457z" />
    <glyph glyph-name="Ocircumflex" unicode="&#xd4;" horiz-adv-x="1568" 
d="M784 399q127 0 199 84t72 231.5t-71 232.5t-200 85t-199.5 -85t-70.5 -232.5t71.5 -231.5t198.5 -84zM784.5 1464q327.5 0 535.5 -200.5t208 -550.5t-203 -549t-541 -199t-540.5 198.5t-202.5 548.5t208 551t535.5 201zM782 1733l-120 -156h-330l282 487h334l283 -487
h-330z" />
    <glyph glyph-name="Otilde" unicode="&#xd5;" horiz-adv-x="1568" 
d="M784 399q127 0 199 84t72 232q1 200 -123 278q-62 39 -148 39q-129 0 -199.5 -85t-70.5 -232.5t71.5 -231.5t198.5 -84zM784 -35q-223 0 -390 87t-260 258t-93 405q0 348 208 548.5t535.5 200.5t535.5 -200.5t208 -550.5t-203 -549t-541 -199zM692 1608q-47 0 -47 -113
h-309q-23 446 233 447q73 0 137 -40q22 -14 67.5 -46.5t70.5 -32.5q49 0 49 112h309q23 -446 -244 -446q-68 0 -145 51q-12 8 -54 38t-67 30z" />
    <glyph glyph-name="Odieresis" unicode="&#xd6;" horiz-adv-x="1568" 
d="M784 399q127 0 199 84t72 231.5t-71 232.5t-200 85t-199.5 -85t-70.5 -232.5t71.5 -231.5t198.5 -84zM784 -35q-338 0 -540.5 198.5t-202.5 549t208 551t535.5 200.5t535.5 -200.5t208 -550.5t-203 -549t-541 -199zM1023 1577q-91 0 -155.5 64.5t-64.5 154.5t64.5 155.5
t155.5 65.5t154.5 -64.5t63.5 -155.5t-63.5 -155.5t-154.5 -64.5zM548 1577q-91 0 -155.5 64.5t-64.5 154.5t64.5 155.5t155.5 65.5t154.5 -64.5t63.5 -155.5t-63.5 -155.5t-154.5 -64.5z" />
    <glyph glyph-name="multiply" unicode="&#xd7;" horiz-adv-x="1120" 
d="M1049 950l-244 -266l244 -264l-267 -244l-221 242l-223 -242l-266 244l243 264l-243 266l266 244l223 -242l221 242z" />
    <glyph glyph-name="Oslash" unicode="&#xd8;" horiz-adv-x="1568" 
d="M1077 715v24l-319 -364q14 -2 26 -2q137 0 215 91t78 251zM492 715v-27l321 369q-12 2 -29 2q-139 0 -215.5 -92t-76.5 -252zM784 -35q-182 0 -329 62l-99 -113l-342 225l131 152q-104 176 -104 424q0 348 208 548.5t535 200.5q180 0 330 -63l98 115l344 -228l-135 -153
q106 -178 107 -420q0 -352 -203 -551t-541 -199z" />
    <glyph glyph-name="Ugrave" unicode="&#xd9;" horiz-adv-x="1296" 
d="M650 -35q-286 0 -443.5 168t-157.5 481v816h449v-846q0 -190 151 -191q150 0 150 191v846h448v-816q0 -319 -155.5 -484t-441.5 -165zM506 1577l-287 467h416l160 -467h-289z" />
    <glyph glyph-name="Uacute" unicode="&#xda;" horiz-adv-x="1296" 
d="M650 -35q-286 0 -443.5 168t-157.5 481v816h449v-846q0 -190 151 -191q150 0 150 191v846h448v-816q0 -319 -155.5 -484t-441.5 -165zM1194 2007l-406 -430h-329l278 430h457z" />
    <glyph glyph-name="Ucircumflex" unicode="&#xdb;" horiz-adv-x="1296" 
d="M799 1430h448v-816q0 -319 -155.5 -484t-441.5 -165t-443.5 168t-157.5 481v816h449v-846q0 -190 151 -191q150 0 150 191v846zM647 1733l-121 -156h-329l282 487h334l283 -487h-330z" />
    <glyph glyph-name="Udieresis" unicode="&#xdc;" horiz-adv-x="1296" 
d="M650 -35q-286 0 -443.5 168t-157.5 481v816h449v-846q0 -190 151 -191q150 0 150 191v846h448v-816q0 -319 -155.5 -484t-441.5 -165zM888 1577q-91 0 -155.5 64.5t-64.5 154.5t64.5 155.5t155.5 65.5t154.5 -64.5t63.5 -155.5t-63.5 -155.5t-154.5 -64.5zM413 1577
q-91 0 -155.5 64.5t-64.5 154.5t64.5 155.5t155.5 65.5t154.5 -64.5t63.5 -155.5t-63.5 -155.5t-154.5 -64.5z" />
    <glyph glyph-name="Yacute" unicode="&#xdd;" horiz-adv-x="1286" 
d="M874 0h-448v446l-418 984h486l153 -537l152 537h481l-406 -941v-489zM1188 2007l-406 -430h-329l278 430h457z" />
    <glyph glyph-name="Thorn" unicode="&#xde;" horiz-adv-x="1224" 
d="M625 643q115 0 114 100q0 90 -116 91h-70v-191h72zM666 1239q535 0 534 -491q0 -498 -530 -498h-117v-250h-449v1430h449v-191h113z" />
    <glyph glyph-name="germandbls" unicode="&#xdf;" horiz-adv-x="1171" 
d="M610 307q78 0 106 86q7 25 7 73t-35 85t-98 37h-49v309h26q51 0 75 53t24 123q0 150 -93 150q-98 0 -98 -179v-1044h-428v946q0 366 136 498q73 70 171 96t248 27q211 -1 336 -101t125 -317q0 -90 -51 -196t-166 -169q137 -48 210 -156t72 -255q0 -197 -108 -294
t-297 -102q-123 -2 -211 33l31 324q31 -27 67 -27z" />
    <glyph glyph-name="agrave" unicode="&#xe0;" horiz-adv-x="1028" 
d="M481 238q55 0 80 41v45q-31 41 -80 41q-68 0 -67 -66q-1 -61 67 -61zM530 1016q229 0 337 -106.5t108 -346.5v-563h-414v47q-96 -82 -238.5 -82t-224.5 79t-82 237t95 225t228.5 67t221.5 -55v4q0 76 -29.5 105.5t-101.5 29.5q-127 0 -231 -57l-140 297q186 119 471 119z
M700 1128h-288l-287 467h416z" />
    <glyph glyph-name="aacute" unicode="&#xe1;" horiz-adv-x="1028" 
d="M481 238q55 0 80 41v45q-31 41 -80 41q-68 0 -67 -66q-1 -61 67 -61zM530 1016q229 0 337 -106.5t108 -346.5v-563h-414v47q-96 -82 -238.5 -82t-224.5 79t-82 237t95 225t228.5 67t221.5 -55v4q0 76 -29.5 105.5t-101.5 29.5q-127 0 -231 -57l-140 297q186 119 471 119z
M946 1595l-287 -467h-288l159 467h416z" />
    <glyph glyph-name="acircumflex" unicode="&#xe2;" horiz-adv-x="1028" 
d="M481 238q55 0 80 41v45q-31 41 -80 41q-68 0 -67 -66q-1 -61 67 -61zM530 1016q229 0 337 -106.5t108 -346.5v-563h-414v47q-96 -82 -238.5 -82t-224.5 79t-82 237t95 225t228.5 67t221.5 -55v4q0 76 -29.5 105.5t-101.5 29.5q-127 0 -231 -57l-140 297q186 119 471 119z
M541 1300l-121 -172h-289l242 467h334l241 -467h-289z" />
    <glyph glyph-name="atilde" unicode="&#xe3;" horiz-adv-x="1028" 
d="M481 238q55 0 80 41v45q-31 41 -80 41q-68 0 -67 -66q-1 -61 67 -61zM530 1016q229 0 337 -106.5t108 -346.5v-563h-414v47q-96 -82 -238.5 -82t-224.5 79t-82 237t95 225t228.5 67t221.5 -55v4q0 76 -29.5 105.5t-101.5 29.5q-127 0 -231 -57l-140 297q186 119 471 119z
M416 1128h-310q-23 446 218 447q106 0 206 -78q59 -41 84 -41q49 0 50 113h309q23 -446 -223 -447q-78 0 -146 40q-22 12 -55 34q-59 45 -86 45q-47 0 -47 -113z" />
    <glyph glyph-name="adieresis" unicode="&#xe4;" horiz-adv-x="1028" 
d="M481 238q55 0 80 41v45q-31 41 -80 41q-68 0 -67 -66q-1 -61 67 -61zM530 1016q229 0 337 -106.5t108 -346.5v-563h-414v47q-96 -82 -238.5 -82t-224.5 79t-82 237.5t95 225t228.5 66.5t221.5 -55v4q0 76 -29.5 105.5t-101.5 29.5q-127 0 -231 -57l-140 297
q186 119 471 119zM778 1149q-45 0 -85 17.5t-69.5 46t-47 69.5t-17.5 85q0 91 65.5 156.5t139 65.5t125 -30.5t80 -81t28.5 -102.5t-17 -93t-46 -69.5t-70 -46t-86 -17.5zM305 1589q90 0 153.5 -65.5t63.5 -156.5t-63.5 -154.5t-154 -63.5t-155.5 63t-65 154.5t65.5 157
t155.5 65.5z" />
    <glyph glyph-name="aring" unicode="&#xe5;" horiz-adv-x="1028" 
d="M481 238q55 0 80 41v45q-31 41 -80 41q-68 0 -67 -66q-1 -61 67 -61zM530 1016q229 0 337 -106.5t108 -346.5v-563h-414v47q-96 -82 -238.5 -82t-224.5 79t-82 237.5t95 225t228.5 66.5t221.5 -55v4q0 76 -29.5 105.5t-101.5 29.5q-127 0 -231 -57l-140 297
q186 119 471 119zM541 1530q-43 0 -70 -28.5t-27 -76t26 -74t70 -26.5t70.5 26.5t26.5 74t-26.5 76t-69.5 28.5zM539 1116q-154 0 -241 85t-87 223.5t87 225.5t243 87q102 0 178 -43q151 -85 151 -269q0 -133 -88.5 -221t-242.5 -88z" />
    <glyph glyph-name="ae" unicode="&#xe6;" horiz-adv-x="1556" 
d="M481 238q55 0 80 41v45q-31 41 -80 41q-68 0 -67 -66q-1 -61 67 -61zM1135 588q-7 106 -74 106q-71 0 -82 -106h156zM16 283q0 292 354 292q96 0 191 -43q-5 90 -57 113q-28 12 -74 12q-127 0 -231 -57l-140 297q186 119 426 119t326 -105q109 104 298 104.5t302 -118.5
t113 -360v-115h-541q19 -63 80 -81q31 -9 78 -9q133 0 272 53l127 -307q-178 -113 -431 -113t-353 154q-61 -76 -165 -115t-218 -39q-168 0 -262.5 79t-94.5 239z" />
    <glyph glyph-name="ccedilla" unicode="&#xe7;" horiz-adv-x="929" 
d="M570 637q-134 -1 -134 -143q0 -64 32 -104t89 -40q88 0 139 70l236 -285q-55 -68 -147.5 -111.5t-206.5 -54.5l-52 -112q31 8 66 8q96 0 150.5 -56.5t54.5 -158.5t-43 -168q-84 -129 -305 -129q-160 0 -277 74l94 213q96 -57 170 -57.5t74 48.5q0 41 -35 41
q-29 0 -47 -30l-184 59l96 289q-147 45 -234.5 172t-87.5 330q0 252 148.5 388t382 136t379.5 -146l-252 -280q-36 47 -106 47z" />
    <glyph glyph-name="egrave" unicode="&#xe8;" horiz-adv-x="1015" 
d="M516 694q-71 0 -82 -106h156q-4 57 -21.5 81.5t-52.5 24.5zM999 537v-115h-559q12 -49 49 -69.5t138.5 -20.5t242.5 53l127 -307q-178 -113 -446 -113t-401.5 135.5t-133.5 382t140.5 390t367.5 143.5t351 -117.5t124 -361.5zM715 1128h-289l-287 467h416z" />
    <glyph glyph-name="eacute" unicode="&#xe9;" horiz-adv-x="1015" 
d="M516 694q-71 0 -82 -106h156q-4 57 -21.5 81.5t-52.5 24.5zM999 537v-115h-559q12 -49 49 -69.5t138.5 -20.5t242.5 53l127 -307q-178 -113 -446 -113t-401.5 135.5t-133.5 382t140.5 390t367.5 143.5t351 -117.5t124 -361.5zM961 1595l-287 -467h-289l160 467h416z" />
    <glyph glyph-name="ecircumflex" unicode="&#xea;" horiz-adv-x="1015" 
d="M516 694q-71 0 -82 -106h156q-4 57 -21.5 81.5t-52.5 24.5zM999 537v-115h-559q12 -49 49 -69.5t138.5 -20.5t242.5 53l127 -307q-178 -113 -446 -113t-401.5 135.5t-133.5 382t140.5 390t367.5 143.5t351 -117.5t124 -361.5zM555 1300l-119 -172h-289l242 467h334
l242 -467h-289z" />
    <glyph glyph-name="edieresis" unicode="&#xeb;" horiz-adv-x="1013" 
d="M516 694q-71 0 -82 -106h156q-4 57 -21.5 81.5t-52.5 24.5zM999 537v-115h-559q12 -49 49 -69.5t138.5 -20.5t242.5 53l127 -307q-178 -113 -446 -113t-401.5 135.5t-133.5 382t140.5 390t367.5 143.5t351 -117.5t124 -361.5zM771 1169q-91 0 -155.5 64.5t-64.5 155
t64.5 156t155.5 65.5t154.5 -64.5t63.5 -155.5t-63.5 -156t-154.5 -65zM296 1169q-91 0 -155.5 64.5t-64.5 155t64.5 156t155.5 65.5t154.5 -64.5t63.5 -155.5t-63.5 -156t-154.5 -65z" />
    <glyph glyph-name="igrave" unicode="&#xec;" horiz-adv-x="550" 
d="M489 981v-981h-428v981h428zM436 1128h-289l-286 467h415z" />
    <glyph glyph-name="iacute" unicode="&#xed;" horiz-adv-x="550" 
d="M489 981v-981h-428v981h428zM682 1595l-287 -467h-289l160 467h416z" />
    <glyph glyph-name="icircumflex" unicode="&#xee;" horiz-adv-x="550" 
d="M61 0v981h428v-981h-428zM276 1300l-120 -172h-287l242 467h331l242 -467h-287z" />
    <glyph glyph-name="idieresis" unicode="&#xef;" horiz-adv-x="550" 
d="M489 981v-981h-428v981h428zM295 1368q0 90 64.5 155.5t155.5 65.5t154.5 -64.5t63.5 -155.5t-63.5 -155.5t-154.5 -64.5t-155.5 64.5t-64.5 154.5zM-180 1368q0 90 64.5 155.5t155.5 65.5t154.5 -64.5t63.5 -155.5t-63.5 -155.5t-154.5 -64.5t-155.5 64.5t-64.5 154.5z
" />
    <glyph glyph-name="eth" unicode="&#xf0;" horiz-adv-x="1161" 
d="M659 459q0 74 -94 73q-31 0 -55 -20t-23 -54q0 -34 24 -56q24 -23 54 -23q94 0 94 80zM1130 702q0 -340 -148 -538t-445 -199q-244 0 -374 118t-130 345q0 131 60 224q112 173 353 173q139 0 230 -63q-2 127 -47 211l-215 -127l-133 213l122 74q-123 29 -303 10l-16 389
q461 39 733 -154l164 97l133 -211l-117 -72q133 -203 133 -490z" />
    <glyph glyph-name="ntilde" unicode="&#xf1;" horiz-adv-x="1095" 
d="M748 1016q141 0 221 -86t80 -252v-678h-428v541q0 94 -68 94q-47 0 -72 -49v-586h-428v981h428v-102q83 137 267 137zM426 1128h-309q-25 446 215 447q86 0 152 -40q22 -13 68 -46t73 -33q49 0 49 113h309q23 -446 -223 -447q-84 0 -148 40q-20 12 -67 45.5t-72 33.5
q-47 0 -47 -113z" />
    <glyph glyph-name="ograve" unicode="&#xf2;" horiz-adv-x="1122" 
d="M561.5 354q59.5 0 92 36t32.5 103.5t-32.5 103.5t-92 36t-92.5 -36t-33 -103.5t33 -103.5t92.5 -36zM561 -35q-248 0 -396.5 139.5t-148.5 387t149.5 386t395.5 138.5t395.5 -138.5t149.5 -386t-148.5 -387t-396.5 -139.5zM721 1128h-289l-287 467h416z" />
    <glyph glyph-name="oacute" unicode="&#xf3;" horiz-adv-x="1122" 
d="M561.5 354q59.5 0 92 36t32.5 103.5t-32.5 103.5t-92 36t-92.5 -36t-33 -103.5t33 -103.5t92.5 -36zM561 -35q-248 0 -396.5 139.5t-148.5 387t149.5 386t395.5 138.5t395.5 -138.5t149.5 -386t-148.5 -387t-396.5 -139.5zM967 1595l-287 -467h-289l160 467h416z" />
    <glyph glyph-name="ocircumflex" unicode="&#xf4;" horiz-adv-x="1122" 
d="M561.5 354q59.5 0 92 36t32.5 103.5t-32.5 103.5t-92 36t-92.5 -36t-33 -103.5t33 -103.5t92.5 -36zM561 1016q246 0 395.5 -138.5t149.5 -386t-148.5 -387t-396.5 -139.5t-396.5 139.5t-148.5 387t149.5 386t395.5 138.5zM561 1300l-119 -172h-290l241 467h336l242 -467
h-291z" />
    <glyph glyph-name="otilde" unicode="&#xf5;" horiz-adv-x="1122" 
d="M561.5 354q59.5 0 92 36t32.5 103.5t-32.5 103.5t-92 36t-92.5 -36t-33 -103.5t33 -103.5t92.5 -36zM561 -35q-248 0 -396.5 139.5t-148.5 387t149.5 386t395.5 138.5t395.5 -138.5t149.5 -386t-148.5 -387t-396.5 -139.5zM485 1241q-47 0 -47 -113h-309q-25 446 215 447
q86 0 152 -40q22 -13 68 -46t73 -33q49 0 49 113h309q23 -446 -223 -447q-84 0 -148 40q-20 12 -67 45.5t-72 33.5z" />
    <glyph glyph-name="odieresis" unicode="&#xf6;" horiz-adv-x="1122" 
d="M561.5 354q59.5 0 92 36t32.5 103.5t-32.5 103.5t-92 36t-92.5 -36t-33 -103.5t33 -103.5t92.5 -36zM561 -35q-248 0 -396.5 139.5t-148.5 387t149.5 386t395.5 138.5t395.5 -138.5t149.5 -386t-148.5 -387t-396.5 -139.5zM580 1368q0 90 64.5 155.5t155.5 65.5
t154.5 -64.5t63.5 -155.5t-63.5 -155.5t-154.5 -64.5t-155.5 64.5t-64.5 154.5zM104 1368q0 90 64 156t156 65.5t155.5 -65t63.5 -155.5t-63.5 -155.5t-154.5 -64.5t-156 64.5t-65 154.5z" />
    <glyph glyph-name="divide" unicode="&#xf7;" horiz-adv-x="1142" 
d="M330 233q0 102 72 175q73 72 173 72t174 -72q73 -72 73 -174t-74 -175q-72 -71 -172 -71t-174 71q-72 72 -72 174zM104 870h934v-374h-934v374zM330 1135q0 102 72 174q73 71 173 71t174 -71q73 -72 73 -174t-74 -174q-72 -72 -172 -72t-174 72q-72 72 -72 174z" />
    <glyph glyph-name="oslash" unicode="&#xf8;" horiz-adv-x="1122" 
d="M725 479.5q0 24.5 -2 34.5l-135 -201q97 12 127 110q10 32 10 56.5zM397 494q0 -6 2 -15l129 195q-61 -10 -96 -57t-35 -123zM1106 486.5q0 -242.5 -148.5 -382t-396.5 -139.5q-104 0 -192 25l-107 -156l-207 137l99 146q-137 139 -137.5 381t149 380t395.5 138
q98 0 184 -23l103 152l219 -123l-102 -152q141 -141 141 -383.5z" />
    <glyph glyph-name="ugrave" unicode="&#xf9;" horiz-adv-x="1085" 
d="M604 981h428v-981h-428v98q-80 -133 -264 -133q-293 0 -293 338v678h428v-541q0 -94 64 -94q43 0 65 45v590zM702 1128h-288l-287 467h416z" />
    <glyph glyph-name="uacute" unicode="&#xfa;" horiz-adv-x="1085" 
d="M604 981h428v-981h-428v98q-80 -133 -264 -133q-293 0 -293 338v678h428v-541q0 -94 64 -94q43 0 65 45v590zM948 1595l-286 -467h-289l159 467h416z" />
    <glyph glyph-name="ucircumflex" unicode="&#xfb;" horiz-adv-x="1085" 
d="M604 981h428v-981h-428v98q-80 -133 -264 -133q-293 0 -293 338v678h428v-541q0 -94 64 -94q43 0 65 45v590zM543 1300l-121 -172h-287l242 467h332l241 -467h-286z" />
    <glyph glyph-name="udieresis" unicode="&#xfc;" horiz-adv-x="1085" 
d="M604 981h428v-981h-428v98q-80 -133 -264 -133q-293 0 -293 338v678h428v-541q0 -94 64 -94q43 0 65 45v590zM781 1149q-91 0 -155.5 64.5t-64.5 154.5t64.5 155.5t155.5 65.5t154.5 -64.5t63.5 -155.5t-63.5 -155.5t-154.5 -64.5zM306 1149q-91 0 -155.5 64.5
t-64.5 154.5t64.5 155.5t155.5 65.5t154.5 -64.5t63.5 -155.5t-63.5 -155.5t-154.5 -64.5z" />
    <glyph glyph-name="yacute" unicode="&#xfd;" horiz-adv-x="1150" 
d="M700 981h445l-559 -1491h-445l219 510l-354 981h455l114 -451zM981 1595l-287 -467h-288l159 467h416z" />
    <glyph glyph-name="thorn" unicode="&#xfe;" horiz-adv-x="1167" 
d="M725 487q0 139 -123 142q-100 0 -121 -105v-47q17 -123 117 -123q89 0 118 75q9 26 9 58zM766 1016q148 0 257 -109q56 -57 89 -166t33 -241q0 -344 -186 -468q-96 -65 -245 -66t-233 93v-563h-428v2036h428v-670q92 154 285 154z" />
    <glyph glyph-name="ydieresis" unicode="&#xff;" horiz-adv-x="1150" 
d="M700 981h445l-559 -1491h-445l219 510l-354 981h455l114 -451zM814 1149q-91 0 -155.5 64.5t-64.5 154.5t64.5 155.5t155.5 65.5t154.5 -64.5t63.5 -155.5t-63.5 -155.5t-154.5 -64.5zM339 1149q-91 0 -155.5 64.5t-64.5 154.5t64.5 155.5t155.5 65.5t154.5 -64.5
t63.5 -155.5t-63.5 -155.5t-154.5 -64.5z" />
    <glyph glyph-name="Amacron" unicode="&#x100;" horiz-adv-x="1300" 
d="M547 582h151l-84 348zM838 0l-54 221h-307l-43 -221h-442l373 1430h524l420 -1430h-471zM985 1964v-354h-741v354h741z" />
    <glyph glyph-name="amacron" unicode="&#x101;" horiz-adv-x="1028" 
d="M481 238q55 0 80 41v45q-31 41 -80 41q-68 0 -67 -66q-1 -61 67 -61zM530 1016q229 0 337 -106.5t108 -346.5v-563h-414v47q-96 -82 -238.5 -82t-224.5 79t-82 237t95 225t228.5 67t221.5 -55v4q0 76 -29.5 105.5t-101.5 29.5q-127 0 -231 -57l-140 297q186 119 471 119z
M911 1532v-354h-741v354h741z" />
    <glyph glyph-name="Abreve" unicode="&#x102;" horiz-adv-x="1300" 
d="M547 582h151l-84 348zM838 0l-54 221h-307l-43 -221h-442l373 1430h524l420 -1430h-471zM620.5 1577q-432.5 0 -409.5 467h330q0 -126 23.5 -160.5t64.5 -34.5t55 48.5t14 146.5h330q25 -467 -407.5 -467z" />
    <glyph glyph-name="abreve" unicode="&#x103;" horiz-adv-x="1028" 
d="M481 238q55 0 80 41v45q-31 41 -80 41q-68 0 -67 -66q-1 -61 67 -61zM530 1016q229 0 337 -106.5t108 -346.5v-563h-414v47q-96 -82 -238.5 -82t-224.5 79t-82 237.5t95 225t228.5 66.5t221.5 -55v4q0 76 -29.5 105.5t-101.5 29.5q-127 0 -231 -57l-140 297
q186 119 471 119zM540 1128q-433 0 -409 467h330q0 -98 16.5 -146t64.5 -48t62 47t14 147h330q25 -467 -408 -467z" />
    <glyph glyph-name="Aogonek" unicode="&#x104;" horiz-adv-x="1300" 
d="M547 582h151l-84 348zM1012 -621q-139 0 -210 70t-71 178q0 215 279 373h-172l-54 221h-307l-43 -221h-442l373 1430h524l420 -1430h2q-157 -106 -197 -182q-20 -37 -20 -72q0 -63 61 -63q56 -1 111 32l61 -270q-127 -66 -315 -66z" />
    <glyph glyph-name="aogonek" unicode="&#x105;" horiz-adv-x="1028" 
d="M481 238q55 0 80 41v45q-31 41 -80 41q-68 0 -67 -66q-1 -61 67 -61zM719.5 -621q-162.5 0 -233 70t-70.5 178q0 215 250 373h-105v47q-96 -82 -238.5 -82t-224.5 79t-82 237.5t95 225t228.5 66.5t221.5 -55v4q0 76 -29.5 105.5t-101.5 29.5q-127 0 -231 -57l-140 297
q186 119 471 119q229 0 337 -106.5t108 -346.5v-563q-197 -145 -197 -254q0 -63 64 -63q55 0 131 45l61 -271q-152 -78 -314.5 -78z" />
    <glyph glyph-name="Cacute" unicode="&#x106;" horiz-adv-x="1335" 
d="M735 -35q-326 0 -509 197.5t-183 549.5t207 552t529 200t538 -188l-236 -375q-115 127 -293 127q-121 0 -196.5 -80t-77.5 -230t70.5 -231t206.5 -81q207 0 329 153l195 -397q-82 -90 -238 -143.5t-342 -53.5zM1159 2044l-287 -467h-288l159 467h416z" />
    <glyph glyph-name="cacute" unicode="&#x107;" horiz-adv-x="929" 
d="M570 637q-134 -1 -134 -143q0 -64 32 -104t89 -40q88 0 139 70l236 -285q-63 -78 -176 -124t-248 -46q-215 0 -352.5 134t-137.5 389.5t148.5 391.5t382 136t379.5 -146l-252 -280q-36 47 -106 47zM940 1595l-287 -467h-288l159 467h416z" />
    <glyph glyph-name="Cdotaccent" unicode="&#x10a;" horiz-adv-x="1335" 
d="M735 -35q-326 0 -509 197.5t-183 550t207 552t529 199.5t538 -188l-236 -375q-115 127 -293 127q-121 0 -196.5 -80t-77.5 -230.5t70.5 -231t206.5 -80.5q207 0 329 153l195 -397q-82 -90 -238 -143.5t-342 -53.5zM535 1824q0 52 29.5 103t80.5 81t110.5 30t109.5 -30
t79 -81t29 -125.5t-63.5 -139.5t-153.5 -65q-90 -1 -156 65t-65 162z" />
    <glyph glyph-name="cdotaccent" unicode="&#x10b;" horiz-adv-x="929" 
d="M570 637q-134 -1 -134 -143q0 -64 32 -104t89 -40q88 0 139 70l236 -285q-63 -78 -176 -124t-248 -46q-215 0 -352.5 134t-137.5 389.5t148.5 391.5t382 136t379.5 -146l-252 -280q-36 47 -106 47zM381.5 1524q66.5 65 140.5 65t124 -29.5t79 -81t29 -126t-63.5 -139
t-153 -64.5t-156 65t-66.5 155t66.5 155z" />
    <glyph glyph-name="Ccaron" unicode="&#x10c;" horiz-adv-x="1335" 
d="M791 406q207 0 329 153l195 -397q-82 -90 -237.5 -143.5t-342.5 -53.5q-326 0 -509 197.5t-183 549.5t207 552t529 200t538 -188l-236 -375q-115 127 -293 127q-121 0 -196.5 -80t-77.5 -230t71 -231t206 -81zM938 1577h-334l-282 487h329l121 -155l119 155h330z" />
    <glyph glyph-name="ccaron" unicode="&#x10d;" horiz-adv-x="929" 
d="M570 637q-134 -1 -134 -143q0 -64 32 -104t89 -40q88 0 139 70l236 -285q-63 -78 -176 -124t-248 -46q-215 0 -352.5 134t-137.5 389.5t148.5 391.5t382 136t379.5 -146l-252 -280q-36 47 -106 47zM702 1128h-333l-242 467h289l119 -172l120 172h289z" />
    <glyph glyph-name="Dcaron" unicode="&#x10e;" horiz-adv-x="1417" 
d="M588 1026h-35v-620h35q305 -1 309 327q2 145 -71.5 219t-237.5 74zM627 1430q350 0 548.5 -172.5t198.5 -526.5t-201.5 -542.5t-545.5 -188.5h-523v1430h523zM842 1577h-334l-283 487h330l119 -155l121 155h329z" />
    <glyph glyph-name="dcaron" unicode="&#x10f;" horiz-adv-x="1447" 
d="M567 346q82 0 117 60v176q-35 63 -115 63q-129 0 -129 -151q0 -113 77 -140q23 -8 50 -8zM1149 1532h416l-105 -625h-289zM684 1532h428v-1532h-428v63q-98 -98 -257 -98q-159 1 -277 113q-60 58 -95 164t-35 247.5t37 248t99 164.5q121 114 281.5 113.5t246.5 -100.5
v617z" />
    <glyph glyph-name="Dcroat" unicode="&#x110;" horiz-adv-x="1417" 
d="M588 1026h-35v-129h162v-362h-162v-129h35q305 -1 309 327q2 145 -71.5 219t-237.5 74zM627 1430q350 0 548.5 -172.5t198.5 -526.5t-201.5 -542.5t-545.5 -188.5h-523v535h-102v362h102v533h523z" />
    <glyph glyph-name="dcroat" unicode="&#x111;" horiz-adv-x="1161" 
d="M567 346q82 0 117 60v176q-35 63 -115 63q-129 0 -129 -151q0 -113 77 -140q23 -8 50 -8zM1192 1458v-321h-80v-1137h-428v63q-98 -98 -257 -98q-159 1 -277 113q-60 58 -95 164t-35 247.5t37 248t99 164.5q121 114 281.5 114t246.5 -101v222h-285v321h285v74h428v-74h80
z" />
    <glyph glyph-name="Emacron" unicode="&#x112;" horiz-adv-x="1157" 
d="M1110 1028h-555v-121h403v-358h-403v-143h555v-406h-1006v1430h1006v-402zM948 1964v-354h-741v354h741z" />
    <glyph glyph-name="emacron" unicode="&#x113;" horiz-adv-x="1015" 
d="M516 694q-71 0 -82 -106h156q-4 57 -21.5 81.5t-52.5 24.5zM999 537v-115h-559q12 -49 49 -69.5t138.5 -20.5t242.5 53l127 -307q-178 -113 -446 -113t-401.5 135.5t-133.5 382t140.5 390t367.5 143.5t351 -117.5t124 -361.5zM926 1532v-354h-742v354h742z" />
    <glyph glyph-name="Edotaccent" unicode="&#x116;" horiz-adv-x="1157" 
d="M1110 1028h-555v-121h403v-358h-403v-143h555v-406h-1006v1430h1006v-402zM579 1597q-91 0 -156 64.5t-65 155t64.5 156t156 65.5t155 -64.5t63.5 -155.5t-63.5 -156t-154.5 -65z" />
    <glyph glyph-name="edotaccent" unicode="&#x117;" horiz-adv-x="1015" 
d="M516 694q-71 0 -82 -106h156q-4 57 -21.5 81.5t-52.5 24.5zM999 537v-115h-559q12 -49 49 -69.5t138.5 -20.5t242.5 53l127 -307q-178 -113 -446 -113t-401.5 135.5t-133.5 382t140.5 390t367.5 143.5t351 -117.5t124 -361.5zM541.5 1589q74.5 0 125 -29.5t79 -81
t28.5 -126t-63.5 -139t-153.5 -64.5t-155.5 65.5t-65.5 154.5t65.5 154.5t140 65.5z" />
    <glyph glyph-name="Eogonek" unicode="&#x118;" horiz-adv-x="1157" 
d="M1110 1028h-555v-121h403v-358h-403v-143h555v-406h-98q-186 -129 -187 -233q1 -63 59 -63t113 32l62 -271q-127 -65 -291 -65t-234.5 69.5t-70.5 178.5q0 203 244 352h-603v1430h1006v-402z" />
    <glyph glyph-name="eogonek" unicode="&#x119;" horiz-adv-x="1015" 
d="M516 694q-71 0 -82 -106h156q-4 57 -21.5 81.5t-52.5 24.5zM736.5 -545q-162.5 0 -233.5 71t-71 177q0 147 109 262h-2q-256 0 -389.5 135.5t-133.5 382t140.5 390t367.5 143.5t351 -118t124 -361v-115h-559q12 -49 49 -69.5t138.5 -20.5t242.5 53l127 -307
q-12 -6 -24 -15q-178 -135 -178 -241q0 -63 59 -63.5t135 44.5l62 -270q-152 -78 -314.5 -78z" />
    <glyph glyph-name="Ecaron" unicode="&#x11a;" horiz-adv-x="1157" 
d="M1110 1028h-555v-121h403v-358h-403v-143h555v-406h-1006v1430h1006v-402zM762 1577h-334l-283 487h330l119 -155l121 155h329z" />
    <glyph glyph-name="ecaron" unicode="&#x11b;" horiz-adv-x="1015" 
d="M516 694q-71 0 -82 -106h156q-4 57 -21.5 81.5t-52.5 24.5zM999 537v-115h-559q12 -49 49 -69.5t138.5 -20.5t242.5 53l127 -307q-178 -113 -446 -113t-401.5 135.5t-133.5 382t140.5 390t367.5 143.5t351 -117.5t124 -361.5zM723 1128h-334l-242 467h289l119 -172
l121 172h289z" />
    <glyph glyph-name="Gbreve" unicode="&#x11e;" horiz-adv-x="1406" 
d="M688 868h653v-805q-291 -98 -606.5 -98t-503.5 194.5t-188 552t197.5 555t536.5 197.5t546 -196l-270 -332q-113 96 -256.5 96t-217 -86t-73.5 -234.5t67.5 -231.5t198.5 -83q72 0 121 13v100h-205v358zM767 1577q-433 0 -409 467h330q0 -98 15.5 -146.5t63.5 -48.5
t63.5 47.5t15.5 147.5h330q24 -467 -409 -467z" />
    <glyph glyph-name="gbreve" unicode="&#x11f;" horiz-adv-x="1003" 
d="M491 -225q133 0 134 57q0 39 -64 39h-186q-16 -14 -17 -39q0 -57 133 -57zM479 717q-94 0 -94 -76t94 -76t94 76t-94 76zM485 -545q-477 0 -477 287q0 139 98 215q-80 80 -79.5 213t114.5 219q-88 99 -88 235q1 136 51 221q102 171 355 171q119 0 213 -35h297v-303h-66
q2 -16 2 -35q0 -178 -124 -280.5t-322 -102.5q-49 0 -94 8q-10 -16 -11 -30q0 -41 41 -41h207q184 0 289.5 -87t105.5 -253q0 -401 -512 -402zM506 1128q-432 0 -410 467h330q0 -98 16.5 -146t64.5 -48t62.5 47t14.5 147h329q25 -467 -407 -467z" />
    <glyph glyph-name="Gdotaccent" unicode="&#x120;" horiz-adv-x="1406" 
d="M688 868h653v-805q-291 -98 -606.5 -98t-503.5 194.5t-188 552t197.5 555t536.5 197.5t546 -196l-270 -332q-113 96 -256.5 96t-217 -86t-73.5 -234.5t67.5 -231.5t198.5 -83q72 0 121 13v100h-205v358zM549 1802q0 74 29.5 125t80 81t109.5 30t109.5 -30t80 -81
t29.5 -125.5t-64.5 -139.5t-155 -65t-154.5 65.5t-64 139.5z" />
    <glyph glyph-name="gdotaccent" unicode="&#x121;" horiz-adv-x="1003" 
d="M491 -225q133 0 134 57q0 39 -64 39h-186q-16 -14 -17 -39q0 -57 133 -57zM479 717q-94 0 -94 -76t94 -76t94 76t-94 76zM485 -545q-477 0 -477 287q0 139 98 215q-80 80 -79.5 213t114.5 219q-88 99 -88 235q1 136 51 221q102 171 355 171q119 0 213 -35h297v-303h-66
q2 -16 2 -35q0 -178 -124 -280.5t-322 -102.5q-49 0 -94 8q-10 -16 -11 -30q0 -41 41 -41h207q184 0 289.5 -87t105.5 -253q0 -401 -512 -402zM507 1149q-91 0 -155.5 64.5t-64.5 154.5t64.5 155.5t155.5 65.5t154.5 -64.5t63.5 -155.5t-63.5 -155.5t-154.5 -64.5z" />
    <glyph glyph-name="Gcommaaccent" unicode="&#x122;" horiz-adv-x="1406" 
d="M770.5 -88q100.5 0 169 -78t68.5 -203q0 -291 -324 -434l-135 197q129 57 170 104q-95 16 -143 103q-24 45 -24.5 119.5t59 133t160 58.5zM688 868h653v-805q-291 -98 -606.5 -98t-503.5 194.5t-188 552t197.5 555t536.5 197.5t546 -196l-270 -332q-113 96 -256.5 96
t-217 -86t-73.5 -234.5t67.5 -231.5t198.5 -83q72 0 121 13v100h-205v358z" />
    <glyph glyph-name="gcommaaccent" unicode="&#x123;" horiz-adv-x="1003" 
d="M491 -225q133 0 134 57q0 39 -64 39h-186q-16 -14 -17 -39q0 -57 133 -57zM479 717q-94 0 -94 -76t94 -76t94 76t-94 76zM485 -545q-477 0 -477 287q0 139 98 215q-80 80 -79.5 213t114.5 219q-88 99 -88 235q1 136 51 221q102 171 355 171q119 0 213 -35h297v-303h-66
q2 -16 2 -35q0 -178 -124 -280.5t-322 -102.5q-49 0 -94 8q-10 -16 -11 -30q0 -41 41 -41h207q184 0 289.5 -87t105.5 -253q0 -401 -512 -402zM471.5 1135q-103.5 0 -166.5 71.5t-63 205.5t87 254t236 163l135 -197q-133 -57 -184 -123h8q96 0 146 -71q28 -41 28 -101
q0 -98 -61.5 -150t-165 -52z" />
    <glyph glyph-name="Hbar" unicode="&#x126;" horiz-adv-x="1402" 
d="M850 784v162h-297v-162h297zM1364 1309v-363h-66v-946h-448v391h-297v-391h-449v946h-65v363h65v121h449v-121h297v121h448v-121h66z" />
    <glyph glyph-name="hbar" unicode="&#x127;" horiz-adv-x="1095" 
d="M745 1018q145 0 224.5 -85t79.5 -255v-678h-428v545q0 94 -68 94q-47 0 -72 -51v-588h-428v1083h-67v332h67v117h428v-117h297v-332h-297v-202q82 137 264 137z" />
    <glyph glyph-name="Imacron" unicode="&#x12a;" horiz-adv-x="657" 
d="M553 1430v-1430h-449v1430h449zM-41 1610v354h741v-354h-741z" />
    <glyph glyph-name="imacron" unicode="&#x12b;" horiz-adv-x="550" 
d="M489 981v-981h-428v981h428zM-94 1532h741v-354h-741v354z" />
    <glyph glyph-name="Iogonek" unicode="&#x12e;" horiz-adv-x="657" 
d="M256 -621q-139 0 -210 70t-71 178q0 215 279 373h-150v1430h449v-1430h2q-59 -41 -100 -73.5t-79 -83t-38 -97.5q0 -63 61 -63q56 -1 111 32l61 -270q-127 -66 -315 -66z" />
    <glyph glyph-name="iogonek" unicode="&#x12f;" horiz-adv-x="550" 
d="M240.5 -600q-162.5 0 -233 69.5t-70.5 178.5q0 203 219 352h-95v981h428v-952l7 -9l-7 -4v-16h-20q-170 -129 -170 -233q0 -63 59.5 -63.5t135.5 44.5l61 -270q-152 -78 -314.5 -78zM277 1149q-91 0 -155.5 64.5t-64.5 154.5t64.5 155.5t155.5 65.5t155 -64.5t64 -155.5
t-64 -155.5t-155 -64.5z" />
    <glyph glyph-name="Idotaccent" unicode="&#x130;" horiz-adv-x="657" 
d="M553 1430v-1430h-449v1430h449zM111 1816.5q0 90.5 64.5 156t155.5 65.5t154.5 -64.5t63.5 -155.5t-63.5 -156t-154.5 -65t-155.5 64.5t-64.5 155z" />
    <glyph glyph-name="dotlessi" unicode="&#x131;" horiz-adv-x="550" 
d="M489 981v-981h-428v981h428z" />
    <glyph glyph-name="Kcommaaccent" unicode="&#x136;" horiz-adv-x="1318" 
d="M664.5 -88q101.5 0 169 -78t67.5 -203q0 -291 -323 -434l-136 197q129 57 170 104q-72 12 -120 65.5t-48 142.5t59.5 147.5t161 58.5zM553 0h-449v1430h449v-390l252 390h518l-377 -521l371 -909h-531l-163 461l-70 -94v-367z" />
    <glyph glyph-name="kcommaaccent" unicode="&#x137;" horiz-adv-x="1148" 
d="M580.5 -88q101.5 0 169 -78t67.5 -203q0 -291 -323 -434l-136 197q129 57 170 104q-72 12 -120 65.5t-48 142.5t59.5 147.5t161 58.5zM481 0h-428v1532h428v-803l187 252h497l-293 -336l285 -645h-508l-102 270l-66 -75v-195z" />
    <glyph glyph-name="Lacute" unicode="&#x139;" horiz-adv-x="1028" 
d="M104 1430h451v-1024h457v-406h-908v1430zM735 2044l-286 -467h-289l159 467h416z" />
    <glyph glyph-name="lacute" unicode="&#x13a;" horiz-adv-x="534" 
d="M481 1532v-1532h-428v1532h428zM682 2081l-287 -467h-289l160 467h416z" />
    <glyph glyph-name="Lcommaaccent" unicode="&#x13b;" horiz-adv-x="1028" 
d="M580.5 -88q101.5 0 169 -78t67.5 -203q0 -291 -323 -434l-136 197q129 57 170 104q-72 12 -120 65.5t-48 142.5t59.5 147.5t161 58.5zM555 406h457v-406h-908v1430h451v-1024z" />
    <glyph glyph-name="lcommaaccent" unicode="&#x13c;" horiz-adv-x="534" 
d="M273.5 -88q101.5 0 169 -78t67.5 -203q0 -291 -324 -434l-135 197q129 57 170 104q-72 12 -120 65.5t-48 142.5t59.5 147.5t161 58.5zM481 1532v-1532h-428v1532h428z" />
    <glyph glyph-name="Lcaron" unicode="&#x13d;" horiz-adv-x="1028" 
d="M555 406h457v-406h-908v1430h451v-1024zM514 1577h-334l-282 487h329l121 -155l119 155h330z" />
    <glyph glyph-name="lcaron" unicode="&#x13e;" horiz-adv-x="759" 
d="M934 1532l-105 -625h-288l-23 625h416zM481 1532v-1532h-428v1532h428z" />
    <glyph glyph-name="Lslash" unicode="&#x141;" horiz-adv-x="1028" 
d="M555 406h457v-406h-908v446l-86 -36l-149 338l235 100v582h451v-396l252 107l149 -334l-401 -172v-229z" />
    <glyph glyph-name="lslash" unicode="&#x142;" horiz-adv-x="1026" 
d="M707 0h-428v453l-56 -35l-211 332l267 161v621h428v-361l147 91l199 -340l-346 -209v-713z" />
    <glyph glyph-name="Nacute" unicode="&#x143;" horiz-adv-x="1382" 
d="M864 1430h414v-1430h-420l-340 569v-569h-414v1430h416l344 -582v582zM1098 2044l-287 -467h-289l160 467h416z" />
    <glyph glyph-name="nacute" unicode="&#x144;" horiz-adv-x="1095" 
d="M748 1016q141 0 221 -86t80 -252v-678h-428v541q0 94 -68 94q-47 0 -72 -49v-586h-428v981h428v-102q83 137 267 137zM954 1595l-286 -467h-289l160 467h415z" />
    <glyph glyph-name="Ncommaaccent" unicode="&#x145;" horiz-adv-x="1382" 
d="M697.5 -88q101.5 0 169 -78t67.5 -203q0 -291 -324 -434l-135 197q129 57 170 104q-72 12 -120 65.5t-48 142.5t59.5 147.5t161 58.5zM864 1430h414v-1430h-420l-340 569v-569h-414v1430h416l344 -582v582z" />
    <glyph glyph-name="ncommaaccent" unicode="&#x146;" horiz-adv-x="1095" 
d="M554.5 -88q101.5 0 169 -78t67.5 -203q0 -291 -324 -434l-135 197q129 57 170 104q-72 12 -120 65.5t-48 142.5t59.5 147.5t161 58.5zM748 1016q141 0 221 -86t80 -252v-678h-428v541q0 94 -68 94q-47 0 -72 -49v-586h-428v981h428v-102q83 137 267 137z" />
    <glyph glyph-name="Ncaron" unicode="&#x147;" horiz-adv-x="1382" 
d="M864 1430h414v-1430h-420l-340 569v-569h-414v1430h416l344 -582v582zM877 1577h-334l-283 487h330l119 -155l120 155h330z" />
    <glyph glyph-name="ncaron" unicode="&#x148;" horiz-adv-x="1095" 
d="M748 1016q141 0 221 -86t80 -252v-678h-428v541q0 94 -68 94q-47 0 -72 -49v-586h-428v981h428v-102q83 137 267 137zM717 1128h-336l-242 467h291l119 -172l119 172h290z" />
    <glyph glyph-name="Eng" unicode="&#x14a;" horiz-adv-x="1368" 
d="M864 1430h414v-1350q0 -303 -127 -455t-363 -151q-195 0 -317 73l94 367q72 -53 172 -53q113 0 125 131l-344 577v-569h-414v1430h416l344 -582v582z" />
    <glyph glyph-name="eng" unicode="&#x14b;" horiz-adv-x="1095" 
d="M748 1016q141 0 221 -86t80 -252v-643q0 -281 -110 -411t-380 -154l-115 356q90 2 134 43q43 41 43 131v541q0 94 -68 94q-47 0 -72 -49v-586h-428v981h428v-102q83 137 267 137z" />
    <glyph glyph-name="Omacron" unicode="&#x14c;" horiz-adv-x="1568" 
d="M784 399q127 0 199 84t72 231.5t-71 232.5t-200 85t-199.5 -85t-70.5 -232.5t71.5 -231.5t198.5 -84zM784 -35q-338 0 -540.5 198.5t-202.5 548.5t208 551t535.5 201t535.5 -200.5t208 -550.5t-203 -549t-541 -199zM414 1610v354h741v-354h-741z" />
    <glyph glyph-name="omacron" unicode="&#x14d;" horiz-adv-x="1122" 
d="M561.5 354q59.5 0 92 36t32.5 103.5t-32.5 103.5t-92 36t-92.5 -36t-33 -103.5t33 -103.5t92.5 -36zM561 -35q-248 0 -396.5 139.5t-148.5 387t149.5 386t395.5 138.5t395.5 -138.5t149.5 -386t-148.5 -387t-396.5 -139.5zM190 1532h742v-354h-742v354z" />
    <glyph glyph-name="Ohungarumlaut" unicode="&#x150;" horiz-adv-x="1568" 
d="M784 399q127 0 199 84t72 231.5t-71 232.5t-200 85t-199.5 -85t-70.5 -232.5t71.5 -231.5t198.5 -84zM784 -35q-338 0 -540.5 198.5t-202.5 548.5t208 551t535.5 201t535.5 -200.5t208 -550.5t-203 -549t-541 -199zM1460 2044l-354 -467h-289l227 467h416zM930 2044
l-217 -467h-256l73 467h400z" />
    <glyph glyph-name="ohungarumlaut" unicode="&#x151;" horiz-adv-x="1122" 
d="M561.5 354q59.5 0 92 36t32.5 103.5t-32.5 103.5t-92 36t-92.5 -36t-33 -103.5t33 -103.5t92.5 -36zM561 -35q-248 0 -396.5 139.5t-148.5 387t149.5 386t395.5 138.5t395.5 -138.5t149.5 -386t-148.5 -387t-396.5 -139.5zM1245 1595l-354 -467h-289l227 467h416z
M715 1595l-217 -467h-256l73 467h400z" />
    <glyph glyph-name="OE" unicode="&#x152;" horiz-adv-x="2086" 
d="M815.5 399q147.5 0 235.5 86v435q-80 113 -232.5 112.5t-228.5 -85.5t-76 -232.5t77 -231.5t224.5 -84zM2040 1028h-555v-121h403v-358h-403v-143h555v-406h-989v2q-125 -37 -246 -37q-348 0 -556 198.5t-208 549t213 551t551 200.5q119 0 246 -49v15h989v-402z" />
    <glyph glyph-name="oe" unicode="&#x153;" horiz-adv-x="1677" 
d="M561 354q59 0 92 36t33 104t-33 104t-92 35q-59 0 -92 -36q-33 -35 -33 -103t33 -104t92 -36zM1172 694q-62 0 -76 -106h157q-4 39 -13 62q-16 44 -68 44zM1661 537v-115h-559q14 -50 50 -70t137 -20t243 53l127 -307q-178 -113 -459 -113q-197 0 -311 105
q-131 -104 -328 -105q-248 0 -396 139q-149 140 -149 388t150 386t395 138q203 0 334 -111q119 111 319 111t323 -118q124 -118 124 -361z" />
    <glyph glyph-name="Racute" unicode="&#x154;" horiz-adv-x="1325" 
d="M670 834q100 0 100 95t-102 95h-115v-190h117zM553 473v-473h-449v1430h617q248 0 384 -119t136 -357q0 -125 -52 -227t-149 -166l279 -561h-531l-196 473h-39zM1069 2044l-287 -467h-288l159 467h416z" />
    <glyph glyph-name="racute" unicode="&#x155;" horiz-adv-x="784" 
d="M698 1012q53 0 80 -17l-2 -370q-246 43 -295 -211v-414h-428v981h428v-178q68 209 217 209zM799 1595l-287 -467h-289l160 467h416z" />
    <glyph glyph-name="Rcommaaccent" unicode="&#x156;" horiz-adv-x="1325" 
d="M668.5 -88q101.5 0 169 -78t67.5 -203q0 -291 -323 -434l-136 197q129 57 170 104q-72 12 -119.5 65.5t-47.5 142.5t59 147.5t160.5 58.5zM670 834q100 0 100 95t-102 95h-115v-190h117zM553 473v-473h-449v1430h617q248 0 384 -119t136 -357q0 -125 -52 -227t-149 -166
l279 -561h-531l-196 473h-39z" />
    <glyph glyph-name="rcommaaccent" unicode="&#x157;" horiz-adv-x="784" 
d="M288.5 -88q101.5 0 169.5 -78t68 -203q0 -291 -323 -434l-135 197q127 57 168 104q-72 12 -119 65.5t-47 142.5t58.5 147.5t160 58.5zM698 1012q53 0 80 -17l-2 -370q-246 43 -295 -211v-414h-428v981h428v-178q67 209 217 209z" />
    <glyph glyph-name="Rcaron" unicode="&#x158;" horiz-adv-x="1325" 
d="M670 834q100 0 100 95t-102 95h-115v-190h117zM553 473v-473h-449v1430h617q248 0 384 -119t136 -357q0 -125 -52 -227t-149 -166l279 -561h-531l-196 473h-39zM848 1577h-334l-283 487h330l119 -155l121 155h329z" />
    <glyph glyph-name="rcaron" unicode="&#x159;" horiz-adv-x="784" 
d="M698 1012q53 0 80 -17l-2 -370q-246 43 -295 -211v-414h-428v981h428v-178q68 209 217 209zM561 1128h-336l-241 467h290l119 -172l119 172h291z" />
    <glyph glyph-name="Sacute" unicode="&#x15a;" horiz-adv-x="1067" 
d="M478 -35q-269 0 -474 135l152 410q139 -129 315 -129q111 0 111 51q0 27 -23.5 40t-87.5 32q-219 63 -325.5 181t-106.5 319.5t128 329.5t368 128q305 0 516 -121l-207 -387q-57 47 -135 74t-145.5 27t-67.5 -41q0 -24 24 -40q26 -16 104 -38q168 -48 280 -146
q134 -115 134 -348t-145.5 -355t-414.5 -122zM940 2044l-287 -467h-288l159 467h416z" />
    <glyph glyph-name="sacute" unicode="&#x15b;" horiz-adv-x="878" 
d="M39 670q-1 223 191 307q94 41 223 41q227 0 374 -82l-131 -305q-100 57 -221 57q-45 0 -45 -17t76 -32q330 -53 330 -320q0 -172 -118 -263t-335 -91t-350 82l100 311q123 -72 236 -71q70 0 69 18q0 15 -53 21q-346 55 -346 344zM844 1595l-287 -467h-289l160 467h416z
" />
    <glyph glyph-name="Scedilla" unicode="&#x15e;" horiz-adv-x="1067" 
d="M662 -135q96 0 150 -56.5t54 -158.5t-43 -168q-84 -129 -305 -129q-160 0 -276 74l94 213q96 -57 170 -57.5t74 48.5q0 41 -35 41q-29 0 -47 -30l-185 59l90 266q-221 16 -399 133l152 410q139 -129 315 -129q111 0 111 51q0 27 -23.5 40t-87.5 32q-219 63 -325.5 181
t-106.5 319.5t128 329.5t368 128q305 0 516 -121l-207 -387q-57 47 -135 74t-145.5 27t-67.5 -41q0 -23 24 -39.5t103 -38.5q169 -48 281 -146q134 -115 134 -326.5t-100 -330.5t-285 -153l-57 -123q31 8 66 8z" />
    <glyph glyph-name="scedilla" unicode="&#x15f;" horiz-adv-x="878" 
d="M836 319q0 -139 -79 -226t-231 -116l-55 -120q31 8 64 8q96 0 150 -56.5t54 -158.5t-42 -168q-82 -129 -306 -129q-158 0 -276 74l94 213q96 -57 170 -57.5t74 48.5q0 41 -35 41q-27 0 -47 -30l-185 59l93 270q-147 14 -246 76l100 311q43 -25 67 -37q67 -34 153 -34
t85 18q0 15 -53 21q-346 55 -346 344q-1 223 191 307q94 41 223 41q227 0 374 -82l-131 -305q-100 57 -221 57q-45 0 -45 -17t76 -32q330 -54 330 -320z" />
    <glyph glyph-name="Scaron" unicode="&#x160;" horiz-adv-x="1067" 
d="M478.5 -35q-269.5 0 -474.5 135l152 410q139 -129 315 -129q111 0 111 51q0 27 -23.5 40t-87.5 32q-219 63 -325.5 181t-106.5 319.5t128 329.5t368 128q305 0 516 -121l-207 -387q-57 47 -135 74t-145.5 27t-67.5 -41q0 -23 24 -39.5t103 -38.5q169 -48 281 -146
q134 -115 134 -348t-145 -355t-414.5 -122zM719 1577h-334l-283 487h330l121 -155l119 155h329z" />
    <glyph glyph-name="scaron" unicode="&#x161;" horiz-adv-x="878" 
d="M836 319q0 -172 -118 -263t-335 -91t-350 82l100 311q43 -25 67 -37q67 -34 153 -34t85 18q0 15 -53 21q-346 55 -346 344q-1 223 191 307q94 41 223 41q227 0 374 -82l-131 -305q-100 57 -221 57q-45 0 -45 -17.5t76 -31.5q330 -53 330 -320zM606 1128h-336l-241 467
h290l119 -172l119 172h291z" />
    <glyph glyph-name="uni0162" unicode="&#x162;" horiz-adv-x="1073" 
d="M664 -135q96 0 150 -56.5t54 -158.5t-43 -168q-84 -129 -305 -129q-160 0 -276 74l94 213q96 -57 170 -57.5t74 48.5q0 41 -35 41q-29 0 -47 -30l-185 59l101 295h248l-66 -139q31 8 66 8zM23 1430h1030v-414h-291v-1016h-449v1016h-290v414z" />
    <glyph glyph-name="uni0163" unicode="&#x163;" horiz-adv-x="776" 
d="M518 -135q96 0 150.5 -56.5t54.5 -158.5t-43 -168q-84 -129 -305 -129q-160 0 -277 74l95 213q96 -57 170 -57.5t73 48.5q0 41 -35 41q-29 0 -47 -30l-184 59l98 293q-186 78 -186 381v289h-72v317h72v279h428v-279h197v-317h-197v-232q0 -90 59 -90q49 0 103 33
l104 -328q-117 -68 -272 -80l-51 -110q30 8 65 8z" />
    <glyph glyph-name="Tcaron" unicode="&#x164;" horiz-adv-x="1073" 
d="M1053 1430v-414h-291v-1016h-449v1016h-290v414h1030zM721 1577h-334l-283 487h330l119 -155l121 155h330z" />
    <glyph glyph-name="tcaron" unicode="&#x165;" horiz-adv-x="780" 
d="M569 342q49 0 103 33l104 -328q-140 -82 -328 -82t-277 97.5t-89 312.5v289h-72v317h72v279h428v-279h197v-317h-197v-232q0 -90 59 -90zM563 1616h375l-123 -524h-248z" />
    <glyph glyph-name="Tbar" unicode="&#x166;" horiz-adv-x="1073" 
d="M1053 1016h-291v-285h172v-362h-172v-369h-449v369h-174v362h174v285h-290v414h1030v-414z" />
    <glyph glyph-name="tbar" unicode="&#x167;" horiz-adv-x="780" 
d="M447.5 -35q-187.5 0 -276.5 97.5t-89 312.5v49h-66v221h66v60h-72v276h72v279h428v-279h197v-276h-197v-60h197v-221h-197v-29q0 -74 70 -73q63 -1 116 32l80 -307q-141 -82 -328.5 -82z" />
    <glyph glyph-name="Umacron" unicode="&#x16a;" horiz-adv-x="1296" 
d="M650 -35q-286 0 -443.5 168t-157.5 481v816h449v-846q0 -190 151 -191q150 0 150 191v846h448v-816q0 -319 -155.5 -484t-441.5 -165zM279 1610v354h741v-354h-741z" />
    <glyph glyph-name="umacron" unicode="&#x16b;" horiz-adv-x="1085" 
d="M604 981h428v-981h-428v98q-80 -133 -264 -133q-293 0 -293 338v678h428v-541q0 -94 64 -94q43 0 65 45v590zM913 1532v-354h-741v354h741z" />
    <glyph glyph-name="Uring" unicode="&#x16e;" horiz-adv-x="1296" 
d="M650 -35q-286 0 -443.5 168t-157.5 481v816h449v-846q0 -190 151 -191q150 0 150 191v846h448v-816q0 -319 -155.5 -484t-441.5 -165zM745 1874q0 47 -26.5 75.5t-69.5 28.5t-69.5 -28.5t-26.5 -75.5t26.5 -73.5t69.5 -26.5t69.5 26.5t26.5 73.5zM319 1874
q0 137 88.5 224t242 87t241.5 -89t88 -222t-88 -221t-241.5 -88t-242 86t-88.5 223z" />
    <glyph glyph-name="uring" unicode="&#x16f;" horiz-adv-x="1085" 
d="M604 981h428v-981h-428v98q-80 -133 -264 -133q-293 0 -293 338v678h428v-541q0 -94 64 -94q43 0 65 45v590zM543 1530q-43 0 -70 -28.5t-27 -76t27 -74t70 -26.5t69.5 26.5t26.5 74t-26.5 76t-69.5 28.5zM542.5 1116q-153.5 0 -241.5 86t-88 223.5t88 224.5t241.5 87
t241.5 -89t88 -222.5t-88 -221.5t-241.5 -88z" />
    <glyph glyph-name="Uhungarumlaut" unicode="&#x170;" horiz-adv-x="1296" 
d="M650 -35q-286 0 -443.5 168t-157.5 481v816h449v-846q0 -190 151 -191q150 0 150 191v846h448v-816q0 -319 -155.5 -484t-441.5 -165zM1325 2044l-354 -467h-289l227 467h416zM795 2044l-217 -467h-256l73 467h400z" />
    <glyph glyph-name="uhungarumlaut" unicode="&#x171;" horiz-adv-x="1085" 
d="M604 981h428v-981h-428v98q-80 -133 -264 -133q-293 0 -293 338v678h428v-541q0 -94 64 -94q42 0 65 45v590zM872 1128h-288l227 467h416zM696 1595l-217 -467h-256l74 467h399z" />
    <glyph glyph-name="Uogonek" unicode="&#x172;" horiz-adv-x="1296" 
d="M799 1430h448v-816q0 -240 -89 -393t-257 -215q-197 -135 -196 -239q0 -63 59 -63t113 32l61 -271q-128 -65 -290 -65t-234 69.5t-72 178.5q0 182 201 323q-236 31 -365 196t-129 447v816h449v-846q0 -190 151 -191q150 0 150 191v846z" />
    <glyph glyph-name="uogonek" unicode="&#x173;" horiz-adv-x="1085" 
d="M777.5 -621q-162.5 0 -233.5 70t-71 178q0 215 250 373h-119v98q-80 -133 -264 -133q-293 0 -293 338v678h428v-541q0 -94 64 -94q43 0 65 45v590h428v-981q-197 -145 -196 -254q0 -63 63 -63q55 0 131 45l62 -271q-152 -78 -314.5 -78z" />
    <glyph glyph-name="Wcircumflex" unicode="&#x174;" horiz-adv-x="1957" 
d="M1483 1430h461l-297 -1430h-519l-104 428q-20 86 -53 242q-37 -158 -58 -240l-110 -430h-518l-271 1430h486l47 -642q2 -29 6 -79t7 -92t7 -78q27 158 51 249l166 639h414l143 -616q31 -127 50 -264q23 176 30 256zM975 1733l-119 -156h-330l283 487h334l282 -487h-329z
" />
    <glyph glyph-name="wcircumflex" unicode="&#x175;" horiz-adv-x="1607" 
d="M1161 981h443l-304 -981h-413l-115 406l-139 -406h-402l-227 981h440l43 -418l121 412h375l102 -391zM778 1300l-119 -172h-288l241 467h334l242 -467h-289z" />
    <glyph glyph-name="Ycircumflex" unicode="&#x176;" horiz-adv-x="1286" 
d="M874 0h-448v446l-418 984h486l153 -537l152 537h481l-406 -941v-489zM639 1733l-119 -156h-330l283 487h334l283 -487h-330z" />
    <glyph glyph-name="ycircumflex" unicode="&#x177;" horiz-adv-x="1150" 
d="M700 981h445l-559 -1491h-445l219 510l-354 981h455l114 -451zM575 1300l-120 -172h-287l242 467h331l242 -467h-287z" />
    <glyph glyph-name="Ydieresis" unicode="&#x178;" horiz-adv-x="1286" 
d="M874 0h-448v446l-418 984h486l153 -537l152 537h481l-406 -941v-489zM882 1577q-91 0 -155.5 64.5t-64.5 154.5t64.5 155.5t155.5 65.5t154.5 -64.5t63.5 -155.5t-63.5 -155.5t-154.5 -64.5zM407 1577q-91 0 -156 64.5t-65 154.5t64.5 155.5t156 65.5t155 -64.5
t63.5 -155.5t-63.5 -155.5t-154.5 -64.5z" />
    <glyph glyph-name="Zacute" unicode="&#x179;" horiz-adv-x="1142" 
d="M1112 401v-401h-1053v375l437 649h-461v406h1040v-375l-463 -654h500zM977 2044l-287 -467h-289l160 467h416z" />
    <glyph glyph-name="zacute" unicode="&#x17a;" horiz-adv-x="870" 
d="M852 330v-330h-815v324l264 329h-281v328h805v-315l-280 -336h307zM842 1595l-287 -467h-289l160 467h416z" />
    <glyph glyph-name="Zdotaccent" unicode="&#x17b;" horiz-adv-x="1142" 
d="M1112 401v-401h-1053v375l437 649h-461v406h1040v-375l-463 -654h500zM572 1597q-91 0 -155.5 64.5t-64.5 155t64.5 156t155.5 65.5t155 -64.5t64 -155.5t-64 -156t-155 -65z" />
    <glyph glyph-name="zdotaccent" unicode="&#x17c;" horiz-adv-x="870" 
d="M852 330v-330h-815v324l264 329h-281v328h805v-315l-280 -336h307zM437 1149q-91 0 -155.5 64.5t-64.5 154.5t64.5 155.5t155.5 65.5t154.5 -64.5t63.5 -155.5t-63.5 -155.5t-154.5 -64.5z" />
    <glyph glyph-name="Zcaron" unicode="&#x17d;" horiz-adv-x="1142" 
d="M1112 401v-401h-1053v375l437 649h-461v406h1040v-375l-463 -654h500zM756 1577h-334l-283 487h330l121 -155l119 155h329z" />
    <glyph glyph-name="zcaron" unicode="&#x17e;" horiz-adv-x="870" 
d="M852 330v-330h-815v324l264 329h-281v328h805v-315l-280 -336h307zM602 1128h-332l-241 467h286l121 -172l121 172h287z" />
    <glyph glyph-name="uni01CD" unicode="&#x1cd;" horiz-adv-x="1300" 
d="M547 582h151l-84 348zM838 0l-54 221h-307l-43 -221h-442l373 1430h524l420 -1430h-471zM799 1577h-334l-283 487h330l121 -155l119 155h329z" />
    <glyph glyph-name="uni01CE" unicode="&#x1ce;" horiz-adv-x="1028" 
d="M481 238q55 0 80 41v45q-31 41 -80 41q-68 0 -67 -66q-1 -61 67 -61zM530 1016q229 0 337 -106.5t108 -346.5v-563h-414v47q-96 -82 -238.5 -82t-224.5 79t-82 237t95 225t228.5 67t221.5 -55v4q0 76 -29.5 105.5t-101.5 29.5q-127 0 -231 -57l-140 297q186 119 471 119z
M707 1128h-334l-242 467h289l121 -174l118 174h289z" />
    <glyph glyph-name="uni01CF" unicode="&#x1cf;" horiz-adv-x="657" 
d="M104 0v1430h449v-1430h-449zM514 1577h-334l-282 487h329l121 -155l119 155h330z" />
    <glyph glyph-name="uni01D0" unicode="&#x1d0;" horiz-adv-x="550" 
d="M61 0v981h428v-981h-428zM442 1128h-331l-242 467h287l120 -172l121 172h287z" />
    <glyph glyph-name="uni01D1" unicode="&#x1d1;" horiz-adv-x="1568" 
d="M784 399q127 0 199 84t72 231.5t-71 232.5t-200 85t-199.5 -85t-70.5 -232.5t71.5 -231.5t198.5 -84zM784.5 1464q327.5 0 535.5 -200.5t208 -550.5t-203 -549t-541 -199t-540.5 198.5t-202.5 548.5t208 551t535.5 201zM969 1577h-334l-283 487h330l121 -155l119 155h329
z" />
    <glyph glyph-name="uni01D2" unicode="&#x1d2;" horiz-adv-x="1122" 
d="M561.5 354q59.5 0 92 36t32.5 103.5t-32.5 103.5t-92 36t-92.5 -36t-33 -103.5t33 -103.5t92.5 -36zM561 1016q246 0 395.5 -138.5t149.5 -386t-148.5 -387t-396.5 -139.5t-396.5 139.5t-148.5 387t149.5 386t395.5 138.5zM729 1128h-336l-241 467h290l119 -172l119 172
h291z" />
    <glyph glyph-name="uni01D3" unicode="&#x1d3;" horiz-adv-x="1296" 
d="M799 1430h448v-816q0 -319 -155.5 -484t-441.5 -165t-443.5 168t-157.5 481v816h449v-846q0 -190 151 -191q150 0 150 191v846zM834 1577h-334l-283 487h330l121 -155l118 155h330z" />
    <glyph glyph-name="uni01D4" unicode="&#x1d4;" horiz-adv-x="1085" 
d="M604 981h428v-981h-428v98q-80 -133 -264 -133q-293 0 -293 338v678h428v-541q0 -94 64 -94q43 0 65 45v590zM709 1128h-332l-242 467h287l121 -172l121 172h286z" />
    <glyph glyph-name="Scommaaccent" unicode="&#x218;" horiz-adv-x="1067" 
d="M539.5 -88q101.5 0 169 -78t67.5 -203q0 -291 -323 -434l-136 197q129 57 170 104q-72 12 -120 65.5t-48 142.5t59.5 147.5t161 58.5zM478.5 -35q-269.5 0 -474.5 135l152 410q139 -129 315 -129q111 0 111 51q0 27 -23.5 40t-87.5 32q-219 63 -325.5 181t-106.5 319.5
t128 329.5t368 128q305 0 516 -121l-207 -387q-57 47 -135 74t-145.5 27t-67.5 -41q0 -23 24 -39.5t103 -38.5q169 -48 281 -146q134 -115 134 -348t-145 -355t-414.5 -122z" />
    <glyph glyph-name="scommaaccent" unicode="&#x219;" horiz-adv-x="878" 
d="M396 -88q82 0 138 -35q117 -73 117 -246q0 -291 -323 -434l-135 197q129 57 169 104q-72 12 -119.5 65.5t-47.5 142.5t59.5 147.5t141.5 58.5zM836 319q0 -172 -118 -263t-335 -91t-350 82l100 311q43 -25 67 -37q67 -34 153 -34t85 18q0 15 -53 21q-346 55 -346 344
q-1 223 191 307q94 41 223 41q227 0 374 -82l-131 -305q-100 57 -221 57q-45 0 -45 -17.5t76 -31.5q330 -53 330 -320z" />
    <glyph glyph-name="uni021A" unicode="&#x21a;" horiz-adv-x="1073" 
d="M541.5 -88q101.5 0 169 -78t67.5 -203q0 -291 -323 -434l-136 197q129 57 170 104q-72 12 -119.5 65.5t-47.5 142.5t59 147.5t160.5 58.5zM23 1430h1030v-414h-291v-1016h-449v1016h-290v414z" />
    <glyph glyph-name="uni021B" unicode="&#x21b;" horiz-adv-x="776" 
d="M396.5 -88q101.5 0 169 -78t67.5 -203q0 -291 -324 -434l-135 197q129 57 170 104q-72 12 -120 65.5t-48 142.5t59.5 147.5t161 58.5zM447.5 -35q-187.5 0 -276.5 97.5t-89 312.5v289h-72v317h72v279h428v-279h197v-317h-197v-232q0 -90 59 -90q49 0 103 33l104 -328
q-141 -82 -328.5 -82z" />
    <glyph glyph-name="circumflex" unicode="&#x2c6;" horiz-adv-x="1228" 
d="M858 1128h-289l-118 172l-121 -172h-289l242 467h333z" />
    <glyph glyph-name="caron" unicode="&#x2c7;" horiz-adv-x="1228" 
d="M569 1595h289l-242 -467h-333l-242 467h289l121 -172z" />
    <glyph glyph-name="breve" unicode="&#x2d8;" horiz-adv-x="1228" 
d="M373 1595q0 -98 15 -146t63.5 -48t63.5 47t15 147h330q25 -467 -408.5 -467t-408.5 467h330z" />
    <glyph glyph-name="dotaccent" unicode="&#x2d9;" horiz-adv-x="1228" 
d="M41 1368q0 90 64.5 155.5t155.5 65.5t154.5 -64.5t63.5 -155.5t-63.5 -155.5t-154.5 -64.5t-155.5 64.5t-64.5 154.5z" />
    <glyph glyph-name="ring" unicode="&#x2da;" horiz-adv-x="659" 
d="M426 1425.5q0 47.5 -26.5 76t-69.5 28.5t-70 -28.5t-27 -76t27 -74t70 -26.5t69.5 26.5t26.5 74zM0 1425.5q0 137.5 88 224.5t241.5 87t241.5 -89t88 -222.5t-88 -221.5t-241.5 -88t-241.5 86t-88 223.5z" />
    <glyph glyph-name="ogonek" unicode="&#x2db;" horiz-adv-x="1228" 
d="M322 -573q-94 1 -159 35q-122 65 -122 211q0 145 112 265t365 224l82 -115q-197 -145 -197 -254q0 -63 64 -63q55 0 131 45l61 -271q-151 -77 -337 -77z" />
    <glyph glyph-name="tilde" unicode="&#x2dc;" horiz-adv-x="1228" 
d="M399 1241q-47 0 -47 -113h-309q-23 446 217 447q86 0 152 -40q22 -13 68 -46t71 -33q49 0 49 113h309q23 -446 -223 -447q-84 0 -148 40q-20 12 -67 45.5t-72 33.5z" />
    <glyph glyph-name="hungarumlaut" unicode="&#x2dd;" horiz-adv-x="1228" 
d="M1061 1595l-354 -467h-289l227 467h416zM530 1595l-217 -467h-256l74 467h399z" />
    <glyph glyph-name="gravecomb" unicode="&#x300;" 
d="M-41 1128h-289l-286 467h415z" />
    <glyph glyph-name="acutecomb" unicode="&#x301;" 
d="M-37 1595l-287 -467h-288l159 467h416z" />
    <glyph glyph-name="uni0302" unicode="&#x302;" 
d="M-41 1128h-289l-121 172l-118 -172h-289l242 467h333z" />
    <glyph glyph-name="tildecomb" unicode="&#x303;" 
d="M-553 1241q-47 0 -47 -113h-309q-23 446 217 447q73 0 124 -27t96.5 -59.5t70.5 -32.5q49 0 49 113h309q23 -446 -223 -447q-84 0 -148 40q-20 12 -67 45.5t-72 33.5z" />
    <glyph glyph-name="uni0304" unicode="&#x304;" 
d="M-782 1532h741v-354h-741v354z" />
    <glyph glyph-name="uni0306" unicode="&#x306;" 
d="M-530 1595q0 -127 23.5 -160.5t64 -33.5t55 47t14.5 147h330q25 -467 -407.5 -467t-409.5 467h330z" />
    <glyph glyph-name="uni0307" unicode="&#x307;" 
d="M-479 1368q0 90 64.5 155.5t155.5 65.5t154.5 -64.5t63.5 -155.5t-63.5 -155.5t-154.5 -64.5t-155.5 64.5t-64.5 154.5z" />
    <glyph glyph-name="uni0308" unicode="&#x308;" 
d="M-479 1368q0 90 64.5 155.5t155.5 65.5t154.5 -64.5t63.5 -155.5t-63.5 -155.5t-154.5 -64.5t-155.5 64.5t-64.5 154.5zM-954 1368q0 90 64.5 155.5t155.5 65.5t154.5 -64.5t63.5 -155.5t-63.5 -155.5t-154.5 -64.5t-155.5 64.5t-64.5 154.5z" />
    <glyph glyph-name="uni030A" unicode="&#x30a;" 
d="M-213 1425.5q0 47.5 -26.5 76t-69.5 28.5t-70 -28.5t-27 -76t27 -74t70 -26.5t69.5 26.5t26.5 74zM-639 1425.5q0 137.5 88 224.5t241.5 87t241.5 -89t88 -222.5t-88 -221.5t-241.5 -88t-241.5 86t-88 223.5z" />
    <glyph glyph-name="uni030B" unicode="&#x30b;" 
d="M-41 1595l-354 -467h-289l227 467h416zM-571 1595l-217 -467h-256l73 467h400z" />
    <glyph glyph-name="uni030C" unicode="&#x30c;" 
d="M-330 1595h289l-242 -467h-333l-242 467h289l118 -172z" />
    <glyph glyph-name="uni0312" unicode="&#x312;" 
d="M-200 1509q22 0 61 -15t67.5 -56t28.5 -101q0 -98 -61.5 -150t-146.5 -52q-85 -1 -139 33q-110 68 -110 223t86 275t238 163l135 -197q-135 -57 -184 -123h25z" />
    <glyph glyph-name="uni0326" unicode="&#x326;" 
d="M-290.5 -88q100.5 0 169 -78t68.5 -203q0 -291 -324 -434l-135 197q127 57 170 104q-72 12 -120 65.5t-48 142.5t59.5 147.5t160 58.5z" />
    <glyph glyph-name="uni0327" unicode="&#x327;" 
d="M-237 -100q47 0 93 -24q96 -50 96.5 -195.5t-90.5 -219t-253 -73.5t-281 73l94 213q96 -57 170 -57t74 49q0 41 -35 41q-27 0 -47 -31l-184 60l100 295h248l-63 -140q30 9 78 9z" />
    <glyph glyph-name="uni0328" unicode="&#x328;" 
d="M-355.5 -573q-162.5 0 -233 69.5t-70.5 177.5q0 145 111.5 264t365.5 224l82 -115q-197 -145 -197 -254q0 -63 64 -63q55 0 131 45l61 -271q-152 -77 -314.5 -77z" />
    <glyph glyph-name="uni0335" unicode="&#x335;" 
d="M-834 375v362h793v-362h-793z" />
    <glyph glyph-name="uni0336" unicode="&#x336;" 
 />
    <glyph glyph-name="uni0337" unicode="&#x337;" 
d="M-856 14l-356 275l847 962l371 -258z" />
    <glyph glyph-name="uni0338" unicode="&#x338;" 
 />
    <glyph glyph-name="Wgrave" unicode="&#x1e80;" horiz-adv-x="1957" 
d="M1483 1430h461l-297 -1430h-519l-104 428q-20 86 -53 242q-37 -158 -58 -240l-110 -430h-518l-271 1430h486l47 -642q2 -29 6 -79t7 -92t7 -78q27 158 51 249l166 639h414l143 -616q31 -127 50 -264q23 176 30 256zM1124 1577h-288l-287 467h416z" />
    <glyph glyph-name="wgrave" unicode="&#x1e81;" horiz-adv-x="1607" 
d="M1161 981h443l-304 -981h-413l-115 406l-139 -406h-402l-227 981h440l43 -418l121 412h375l102 -391zM938 1128h-289l-287 467h416z" />
    <glyph glyph-name="Wacute" unicode="&#x1e82;" horiz-adv-x="1957" 
d="M1483 1430h461l-297 -1430h-519l-104 428q-20 86 -53 242q-37 -158 -58 -240l-110 -430h-518l-271 1430h486l47 -642q2 -29 6 -79t7 -92t7 -78q27 158 51 249l166 639h414l143 -616q31 -127 50 -264q23 176 30 256zM1524 2007l-406 -430h-330l279 430h457z" />
    <glyph glyph-name="wacute" unicode="&#x1e83;" horiz-adv-x="1607" 
d="M1161 981h443l-304 -981h-413l-115 406l-139 -406h-402l-227 981h440l43 -418l121 412h375l102 -391zM1184 1595l-287 -467h-289l160 467h416z" />
    <glyph glyph-name="Wdieresis" unicode="&#x1e84;" horiz-adv-x="1957" 
d="M1483 1430h461l-297 -1430h-519l-104 428q-20 86 -53 242q-37 -158 -58 -240l-110 -430h-518l-271 1430h486l47 -642q2 -29 6 -79t7 -92t7 -78q27 158 51 249l166 639h414l143 -616q31 -127 50 -264q23 176 30 256zM1218 1577q-91 0 -156 64.5t-65 154.5t64.5 155.5
t156 65.5t155 -64.5t63.5 -155.5t-63.5 -155.5t-154.5 -64.5zM742 1577q-91 0 -155.5 64.5t-64.5 154.5t64.5 155.5t155.5 65.5t155 -64.5t64 -155.5t-64 -155.5t-155 -64.5z" />
    <glyph glyph-name="wdieresis" unicode="&#x1e85;" horiz-adv-x="1607" 
d="M1161 981h443l-304 -981h-413l-115 406l-139 -406h-402l-227 981h440l43 -418l121 412h375l102 -391zM1018 1589q90 0 153.5 -64.5t63.5 -155.5t-63.5 -155.5t-153.5 -64.5t-155.5 65.5t-65.5 154.5t65.5 154.5t155.5 65.5zM543.5 1589q89.5 0 153 -64.5t63.5 -155.5
t-63.5 -155.5t-153 -64.5t-155.5 64.5t-66 155.5t66 155.5t155.5 64.5z" />
    <glyph glyph-name="Ygrave" unicode="&#x1ef2;" horiz-adv-x="1286" 
d="M874 0h-448v446l-418 984h486l153 -537l152 537h481l-406 -941v-489zM788 1577h-288l-287 467h416z" />
    <glyph glyph-name="ygrave" unicode="&#x1ef3;" horiz-adv-x="1150" 
d="M700 981h445l-559 -1491h-445l219 510l-354 981h455l114 -451zM735 1128h-289l-286 467h415z" />
    <glyph glyph-name="endash" unicode="&#x2013;" horiz-adv-x="1144" 
d="M66 375v362h1013v-362h-1013z" />
    <glyph glyph-name="emdash" unicode="&#x2014;" horiz-adv-x="1417" 
d="M66 375v362h1286v-362h-1286z" />
    <glyph glyph-name="quoteleft" unicode="&#x2018;" horiz-adv-x="561" 
d="M291 1221q78 1 131 -49t53 -138t-55 -142t-156 -54t-162 70t-61 188q0 223 147 363q70 67 164 108l135 -197q-158 -55 -198 -149h2z" />
    <glyph glyph-name="quoteright" unicode="&#x2019;" horiz-adv-x="561" 
d="M86 1370q0 88 56 142t156 55q100 0 161 -70q61 -71 61 -215t-84 -262t-227 -182l-135 196q158 55 198 150h-2q-78 0 -131 49t-53 137z" />
    <glyph glyph-name="quotesinglbase" unicode="&#x201a;" horiz-adv-x="610" 
d="M308 418q99 0 164 -76t65 -221q-1 -199 -99 -366t-262 -240l-135 196q176 104 227 252q-80 9 -134 69t-54 160t64 163q65 63 164 63z" />
    <glyph glyph-name="quotedblleft" unicode="&#x201c;" horiz-adv-x="1013" 
d="M291 1221q78 1 131 -49t53 -138t-55 -142t-156 -54t-162 70t-61 188q0 223 147 363q70 67 164 108l135 -197q-158 -55 -198 -149h2zM743 1223q78 0 131 -49q54 -50 54 -138t-56 -142t-156 -54t-161 70t-61 214t84 262t227 183l135 -197q-158 -55 -199 -149h2z" />
    <glyph glyph-name="quotedblright" unicode="&#x201d;" horiz-adv-x="1030" 
d="M555 1364q-1 88 55 142t156 55q100 0 162 -70q61 -71 61 -215t-84 -262t-227 -183l-135 197q158 55 198 150h-2q-78 0 -131 49t-53 137zM86 1370q0 88 56 142t156 55q100 0 161 -70q61 -71 61 -215t-84 -262t-227 -182l-135 196q158 55 198 150h-2q-78 0 -131 49t-53 137
z" />
    <glyph glyph-name="quotedblbase" unicode="&#x201e;" horiz-adv-x="1099" 
d="M798 418q99 0 164 -76t64 -221q0 -199 -98 -366t-262 -240l-136 196q176 104 228 252q-80 9 -134 69t-54 160t64 163q65 63 164 63zM308 418q99 0 164 -76t65 -221q-1 -199 -99 -366t-262 -240l-135 196q176 104 227 252q-80 9 -134 69t-54 160t64 163q65 63 164 63z" />
    <glyph glyph-name="dagger" unicode="&#x2020;" horiz-adv-x="866" 
d="M840 979v-363h-195v-1009h-428v1009h-192v363h192v451h428v-451h195z" />
    <glyph glyph-name="daggerdbl" unicode="&#x2021;" horiz-adv-x="866" 
d="M840 616h-195v-235h195v-363h-195v-411h-428v411h-192v363h192v235h-192v363h192v451h428v-451h195v-363z" />
    <glyph glyph-name="bullet" unicode="&#x2022;" horiz-adv-x="649" 
d="M31 674q0 123 85 209t208 86q124 0 208 -86t84 -209t-84 -207t-208 -84t-208 84q-85 84 -85 207z" />
    <glyph glyph-name="ellipsis" unicode="&#x2026;" horiz-adv-x="1611" 
d="M1063 193q1 97 67 163t162 66q62 0 114 -31t83 -83t31 -130t-67 -146q-67 -67 -162 -67t-162 66q-66 66 -66 162zM567 193q0 97 67 163q66 66 146 66t132 -31t82 -83t30 -130t-66 -146q-66 -67 -162 -67t-162 66q-67 66 -67 162zM72 193q0 97 66 163t162 66q95 0 162 -67
q66 -67 66 -161t-66 -162q-66 -67 -161 -67q-96 0 -163 66q-66 66 -66 162z" />
    <glyph glyph-name="perthousand" unicode="&#x2030;" horiz-adv-x="2476" 
d="M2159 260q22 25 22 70t-39 69q-18 13 -51 13t-55 -26t-21 -64q0 -38 23 -62q22 -24 60 -24t61 24zM1440 323q0 37 -23 63t-61 26t-61 -26q-21 -26 -21 -64t22 -62t61 -24t61 24t22 63zM1741 321q0 153 97 255t259 102t260 -102q99 -102 99 -256q0 -152 -98 -254
t-261 -102q-164 0 -260 102t-96 255zM999 321q-1 153 97 255t260 102t260 -102t98 -256q0 -152 -97 -254t-261 -102t-260 102t-97 255zM378 1024q38 0 60 24t23 63q0 38 -23 64q-24 25 -62 25t-60 -26t-22 -63q0 -39 24 -63q22 -24 60 -24zM1370 1430l-573 -1430h-430
l573 1430h430zM377 752q-165 0 -261 102t-96 255t98 255t259 102q162 0 260 -102t98 -255t-97 -255t-261 -102z" />
    <glyph glyph-name="guilsinglleft" unicode="&#x2039;" horiz-adv-x="776" 
d="M670 1087v-415l-250 -97l250 -104v-416l-627 328v397z" />
    <glyph glyph-name="guilsinglright" unicode="&#x203a;" horiz-adv-x="776" 
d="M106 1087l627 -307v-397l-627 -328v416l250 104l-250 97v415z" />
    <glyph glyph-name="fraction" unicode="&#x2044;" horiz-adv-x="1044" 
d="M1024 1430l-573 -1430h-431l574 1430h430z" />
    <glyph glyph-name="Euro" unicode="&#x20ac;" horiz-adv-x="1294" 
d="M791 406q207 0 329 153l195 -397q-82 -90 -238 -144t-342 -53q-276 1 -452 145t-224 412h-108v160h92v76h-92v160h112q57 258 252 402t469 144q317 0 533 -188l-236 -375q-59 67 -127 97t-166 30q-145 0 -221 -110h310v-160h-361q-2 -16 -2 -36t2 -40h361v-160h-318
q70 -116 232 -116z" />
    <glyph glyph-name="trademark" unicode="&#x2122;" horiz-adv-x="1593" 
d="M1288 692v176q0 74 10 179l-100 -252h-162l-88 254q4 -76 4 -181v-176h-256v738h334l98 -308l99 308h313l14 -738h-266zM25 1163v267h616v-267h-158v-471h-301v471h-157z" />
    <glyph glyph-name="partialdiff" unicode="&#x2202;" horiz-adv-x="1228" 
 />
    <glyph glyph-name="emptyset" unicode="&#x2205;" horiz-adv-x="1228" 
 />
    <glyph glyph-name="product" unicode="&#x220f;" horiz-adv-x="1228" 
 />
    <glyph glyph-name="summation" unicode="&#x2211;" horiz-adv-x="1228" 
 />
    <glyph glyph-name="minus" unicode="&#x2212;" horiz-adv-x="1142" 
d="M104 866h934v-374h-934v374z" />
    <glyph glyph-name="radical" unicode="&#x221a;" horiz-adv-x="1228" 
 />
    <glyph glyph-name="infinity" unicode="&#x221e;" horiz-adv-x="1228" 
 />
    <glyph glyph-name="integral" unicode="&#x222b;" horiz-adv-x="1228" 
 />
    <glyph glyph-name="approxequal" unicode="&#x2248;" horiz-adv-x="1228" 
 />
    <glyph glyph-name="notequal" unicode="&#x2260;" horiz-adv-x="1142" 
d="M1038 713h-262l-39 -99h301v-374h-450l-88 -222l-326 129l37 93h-107v374h256l39 99h-295v374h445l82 203l325 -129l-28 -74h110v-374z" />
    <glyph glyph-name="lessequal" unicode="&#x2264;" horiz-adv-x="1228" 
 />
    <glyph glyph-name="greaterequal" unicode="&#x2265;" horiz-adv-x="1228" 
 />
    <glyph glyph-name="lozenge" unicode="&#x25ca;" horiz-adv-x="1228" 
 />
    <glyph glyph-name="G.ss01" horiz-adv-x="1544" 
d="M727 885h733v-135q0 -385 -202.5 -585t-521 -200t-507 198.5t-188.5 551t201.5 551t545.5 198.5q234 0 415 -102q87 -49 143 -115l-295 -321q-117 100 -258.5 100t-215 -83t-73.5 -227t63.5 -224t180.5 -80q154 0 221 98h-242v375z" />
    <glyph glyph-name="Gbreve.ss01" horiz-adv-x="1544" 
d="M727 885h733v-135q0 -385 -202.5 -585t-521 -200t-507 198.5t-188.5 551t201.5 551t545.5 198.5q234 0 415 -102q87 -49 143 -115l-295 -321q-117 100 -258.5 100t-215 -83t-73.5 -227t63.5 -224t180.5 -80q154 0 221 98h-242v375zM777 1577q-433 0 -408 467h329
q0 -98 15.5 -146.5t63.5 -48.5t63.5 48.5t15.5 146.5h330q24 -467 -409 -467z" />
    <glyph glyph-name="Gcommaaccent.ss01" horiz-adv-x="1544" 
d="M777.5 -88q101.5 0 169 -78t67.5 -203q0 -291 -324 -434l-135 197q129 57 170 104q-97 17 -143 103q-24 45 -24.5 119.5t59 133t161 58.5zM727 885h733v-135q0 -385 -202.5 -585t-521 -200t-507 198.5t-188.5 551t201.5 551t545.5 198.5q234 0 415 -102q87 -49 143 -115
l-295 -321q-117 100 -258.5 100t-215 -83t-73.5 -227t63.5 -224t180.5 -80q154 0 221 98h-242v375z" />
    <glyph glyph-name="Q.ss01" horiz-adv-x="1566" 
d="M514 714.5q0 -147.5 71.5 -231.5t198.5 -84t199 84t72 232q1 200 -123 278q-62 39 -148 39q-129 0 -199.5 -85t-70.5 -232.5zM1528 722q0 -341 -187 -540l156 -198l-332 -271l-211 267q-80 -14 -170 -15q-338 0 -540.5 198.5t-202.5 549t208 551t535.5 200.5
t535.5 -200.5t208 -541.5z" />
    <glyph glyph-name="W.ss01" horiz-adv-x="2277" 
d="M1825 1430h461l-576 -1430h-457l-131 305l-145 -305h-457l-528 1430h485l307 -934l134 286l-279 648h461l55 -134l62 131h444l-297 -620l127 -297z" />
    <glyph glyph-name="Gdotaccent.sso1" horiz-adv-x="1406" 
d="M688 868h653v-805q-291 -98 -606.5 -98t-503.5 194.5t-188 552t197.5 555t536.5 197.5t546 -196l-270 -332q-113 96 -256.5 96t-217 -86t-73.5 -234.5t67.5 -231.5t198.5 -83q72 0 121 13v100h-205v358zM766 1577q-57 0 -107.5 29.5t-80 80t-29.5 102.5q0 99 64.5 163.5
t139 64.5t125 -29.5t80 -81t29.5 -127t-64.5 -139t-156.5 -63.5z" />
    <glyph glyph-name="A.swsh" horiz-adv-x="1759" 
d="M1006 582h151l-84 348zM-20 926q0 504 667 504h701l419 -1430h-471l-53 221h-307l-43 -221h-442l278 1067h-164q-113 0 -162 -35q-49 -34 -49 -108q0 -142 178 -142l-92 -336q-258 24 -365 176q-95 134 -95 304z" />
    <glyph glyph-name="Aacute.swsh" horiz-adv-x="1759" 
d="M1006 582h151l-84 348zM-20 926q0 504 667 504h701l419 -1430h-471l-53 221h-307l-43 -221h-442l278 1067h-164q-113 0 -162 -35q-49 -34 -49 -108q0 -142 178 -142l-92 -336q-258 24 -365 176q-95 134 -95 304zM1610 2007l-406 -430h-330l279 430h457z" />
    <glyph glyph-name="Abreve.swsh" horiz-adv-x="1759" 
d="M1006 582h151l-84 348zM-20 926q0 504 667 504h701l419 -1430h-471l-53 221h-307l-43 -221h-442l278 1067h-164q-113 0 -162 -35q-49 -34 -49 -108q0 -142 178 -142l-92 -336q-258 24 -365 176q-95 134 -95 304zM1070 1577q-433 0 -408 467h329q0 -126 22.5 -160.5
t63.5 -34.5t56.5 48.5t15.5 146.5h330q24 -467 -409 -467z" />
    <glyph glyph-name="uni01CD.swsh" horiz-adv-x="1759" 
d="M1006 582h151l-84 348zM-20 926q0 504 667 504h701l419 -1430h-471l-53 221h-307l-43 -221h-442l278 1067h-164q-113 0 -162 -35q-49 -34 -49 -108q0 -142 178 -142l-92 -336q-258 24 -365 176q-95 134 -95 304zM1249 1577h-334l-282 487h330l118 -155l121 155h330z" />
    <glyph glyph-name="Acircumflex.swsh" horiz-adv-x="1759" 
d="M1006 582h151l-84 348zM-20 926q0 504 667 504h701l419 -1430h-471l-53 221h-307l-43 -221h-442l278 1067h-164q-113 0 -162 -35q-49 -34 -49 -108q0 -142 178 -142l-92 -336q-258 24 -365 176q-95 134 -95 304zM1061 1733l-119 -156h-330l283 487h334l282 -487h-329z
" />
    <glyph glyph-name="Adieresis.swsh" horiz-adv-x="1759" 
d="M1006 582h151l-84 348zM-20 926q0 504 667 504h701l419 -1430h-471l-53 221h-307l-43 -221h-442l278 1067h-164q-113 0 -162 -35q-49 -34 -49 -108q0 -142 178 -142l-92 -336q-258 24 -365 176q-95 134 -95 304zM1302 1577q-88 1 -154 65q-65 64 -65 154q0 93 65.5 157
t155 64t154 -64.5t64.5 -156t-66 -155.5t-154 -64zM827 1577q-45 0 -85 17.5t-69.5 47t-47 69.5t-17.5 85q0 92 64.5 156.5t139 64.5t125 -29.5t80.5 -81t30 -103.5t-17.5 -92t-47.5 -69.5t-70 -47t-85 -17.5z" />
    <glyph glyph-name="Agrave.swsh" horiz-adv-x="1759" 
d="M1006 582h151l-84 348zM-20 926q0 504 667 504h701l419 -1430h-471l-53 221h-307l-43 -221h-442l278 1067h-164q-113 0 -162 -35q-49 -34 -49 -108q0 -142 178 -142l-92 -336q-258 24 -365 176q-95 134 -95 304zM1210 1577h-288l-287 467h416z" />
    <glyph glyph-name="Amacron.swsh" horiz-adv-x="1759" 
d="M1006 582h151l-84 348zM-20 926q0 504 667 504h701l419 -1430h-471l-53 221h-307l-43 -221h-442l278 1067h-164q-113 0 -162 -35q-49 -34 -49 -108q0 -142 178 -142l-92 -336q-258 24 -365 176q-95 134 -95 304zM1436 1964v-354h-742v354h742z" />
    <glyph glyph-name="Aogonek.swsh" horiz-adv-x="1759" 
d="M1006 582h151l-84 348zM-20 926q0 504 667 504h701l419 -1430h2q-217 -145 -217 -254q0 -63 62 -63q55 -1 110 32l62 -270q-127 -66 -316 -66q-139 0 -209.5 70t-70.5 178q0 215 278 373h-172l-53 221h-307l-43 -221h-442l278 1067h-164q-113 0 -162 -35
q-49 -34 -49 -108q0 -142 178 -142l-92 -336q-258 24 -365 176q-95 134 -95 304z" />
    <glyph glyph-name="Aring.swsh" horiz-adv-x="1759" 
d="M1006 582h151l-84 348zM-20 926q0 504 667 504h701l419 -1430h-471l-53 221h-307l-43 -221h-442l278 1067h-164q-113 0 -162 -35q-49 -34 -49 -108q0 -142 178 -142l-92 -336q-258 24 -365 176q-95 134 -95 304zM1064 1929q-34 0 -54.5 -22.5t-20.5 -60.5t20.5 -59.5
t54.5 -21.5t55.5 21.5t21.5 59.5t-21.5 60.5t-55.5 22.5zM1062.5 1556q-147.5 0 -227 77t-79.5 212t79.5 213t227 78t229.5 -80t82 -210t-82 -210t-229.5 -80z" />
    <glyph glyph-name="Atilde.swsh" horiz-adv-x="1759" 
d="M1006 582h151l-84 348zM-20 926q0 504 667 504h701l419 -1430h-471l-53 221h-307l-43 -221h-442l278 1067h-164q-113 0 -162 -35q-49 -34 -49 -108q0 -142 178 -142l-92 -336q-258 24 -365 176q-95 134 -95 304zM926 1495h-310q-23 446 234 447q74 0 136 -40
q20 -14 66.5 -46.5t71.5 -32.5q49 0 50 112h309q23 -446 -244 -446q-59 0 -104.5 26.5t-91 59.5t-70.5 33q-47 0 -47 -113z" />
    <glyph glyph-name="B.swsh" horiz-adv-x="1826" 
d="M1235 397q107 0 111 101q0 88 -113 88h-162v-189h164zM1284 948q0 46 -28 66t-85 20h-100v-174h100q113 0 113 88zM1792 440q0 -208 -135 -324t-412 -116h-622v1038h-91q-125 0 -160 -55q-18 -27 -18 -81q-1 -120 178 -120v-364q-435 0 -542 315q-31 87 -31 181t16 164
q56 249 343 324q108 28 247 28h717q211 0 326 -92t115 -282t-164 -284q111 -35 172 -119t61 -213z" />
    <glyph glyph-name="C.swsh" horiz-adv-x="1337" 
d="M756 -76q-334 0 -523.5 205t-189.5 566t206 565t535 204q290 0 426 -204q50 -76 73.5 -205t4.5 -297h-414q20 123 -15.5 196.5t-126.5 73.5t-153.5 -84t-64.5 -246.5t77 -253t220 -90.5q207 0 330 154l194 -387q-82 -90 -237.5 -143.5t-341.5 -53.5z" />
    <glyph glyph-name="Cacute.swsh" horiz-adv-x="1337" 
d="M756 -76q-334 0 -523.5 205t-189.5 566t206 565t535 204q290 0 426 -204q50 -76 73.5 -205t4.5 -297h-414q20 123 -15.5 196.5t-126.5 73.5t-153.5 -84t-64.5 -246.5t77 -253t220 -90.5q207 0 330 154l194 -387q-82 -90 -237.5 -143.5t-341.5 -53.5zM1300 2007l-405 -430
h-330l279 430h456z" />
    <glyph glyph-name="Ccaron.swsh" horiz-adv-x="1337" 
d="M756 -76q-334 0 -523.5 205t-189.5 566t206 565t535 204q290 0 426 -204q50 -76 73.5 -205t4.5 -297h-414q20 123 -15.5 196.5t-126.5 73.5t-153.5 -84t-64.5 -246.5t77 -253t220 -90.5q207 0 330 154l194 -387q-82 -90 -237.5 -143.5t-341.5 -53.5zM938 1577h-334
l-282 487h329l121 -155l119 155h330z" />
    <glyph glyph-name="Ccedilla.swsh" horiz-adv-x="1337" 
d="M891 -115q96 0 150.5 -55t54.5 -158.5t-42 -169.5q-83 -129 -306 -129q-160 0 -277 74l94 213q96 -57 170 -57t74 49q0 41 -35 41q-29 0 -47 -31l-184 59l71 213q-270 43 -420.5 242t-150.5 539.5t206 544.5t535 204q290 0 426 -204q50 -76 73.5 -205t4.5 -297h-414
q20 123 -15.5 196.5t-126.5 73.5t-153.5 -84t-64.5 -246.5t77 -253t220 -90.5q207 0 330 154l194 -387q-72 -78 -200.5 -129t-284.5 -64l-25 -51q31 8 66 8z" />
    <glyph glyph-name="Cdotaccent.swsh" horiz-adv-x="1337" 
d="M756 -76q-334 0 -523.5 205t-189.5 566t206 565t535 204q290 0 426 -204q50 -76 73.5 -205t4.5 -297h-414q20 123 -15.5 196.5t-126.5 73.5t-153.5 -84t-64.5 -246.5t77 -253t220 -90.5q207 0 330 154l194 -387q-82 -90 -237.5 -143.5t-341.5 -53.5zM535 1789
q0 99 66 163.5t140 64.5t124 -29.5t79 -81t29 -127t-63.5 -139t-155.5 -63.5q-57 0 -107.5 29.5t-81 80t-30.5 102.5z" />
    <glyph glyph-name="D.swsh" horiz-adv-x="1957" 
d="M1094 1026v-620h34q162 0 236 87.5t74 239.5q6 293 -310 293h-34zM1167 1430q350 0 549 -172.5t199 -526.5t-202 -542.5t-546 -188.5h-522v1038h-51q-111 0 -155 -29.5t-44 -95.5t36 -98.5t122 -32.5v-364q-295 0 -424 147t-129 361q0 504 647 504h520z" />
    <glyph glyph-name="Eth.swsh" horiz-adv-x="2101" 
d="M1237 1026v-135h211v-363h-211v-122h35q110 0 180 44q130 81 129 283q6 293 -309 293h-35zM1311 1430q350 0 548.5 -172.5t198.5 -526.5t-201.5 -542.5t-545.5 -188.5h-523v528h-133v363h133v147h-112q-158 0 -221.5 -51t-63.5 -145q0 -202 223 -203v-365q-164 0 -288 46
t-193 126q-137 156 -137 394q0 322 223 470q181 120 531 120h561z" />
    <glyph glyph-name="Dcaron.swsh" horiz-adv-x="1957" 
d="M1094 1026v-620h34q162 0 236 87.5t74 239.5q6 293 -310 293h-34zM1167 1430q350 0 549 -172.5t199 -526.5t-202 -542.5t-546 -188.5h-522v1038h-51q-111 0 -155 -29.5t-44 -95.5t36 -98.5t122 -32.5v-364q-295 0 -424 147t-129 361q0 504 647 504h520zM1382 1577h-333
l-283 487h330l118 -155l121 155h330z" />
    <glyph glyph-name="Dcroat.swsh" horiz-adv-x="2101" 
d="M1237 1026v-135h211v-363h-211v-122h35q110 0 180 44q130 81 129 283q6 293 -309 293h-35zM1311 1430q350 0 548.5 -172.5t198.5 -526.5t-201.5 -542.5t-545.5 -188.5h-523v528h-133v363h133v147h-112q-158 0 -221.5 -51t-63.5 -145q0 -202 223 -203v-365q-164 0 -288 46
t-193 126q-137 156 -137 394q0 322 223 470q181 120 531 120h561z" />
    <glyph glyph-name="E.swsh" horiz-adv-x="1732" 
d="M1688 1028h-555v-121h403v-358h-403v-143h555v-406h-1006v1038h-104q-98 0 -140.5 -29.5t-42.5 -95.5t36 -98.5t122 -32.5v-364q-295 0 -424 147t-129 361q0 504 631 504h1057v-402z" />
    <glyph glyph-name="Eacute.swsh" horiz-adv-x="1732" 
d="M1688 1028h-555v-121h403v-358h-403v-143h555v-406h-1006v1038h-104q-98 0 -140.5 -29.5t-42.5 -95.5t36 -98.5t122 -32.5v-364q-295 0 -424 147t-129 361q0 504 631 504h1057v-402zM1411 2007l-405 -430h-330l278 430h457z" />
    <glyph glyph-name="Ecaron.swsh" horiz-adv-x="1732" 
d="M1688 1028h-555v-121h403v-358h-403v-143h555v-406h-1006v1038h-104q-98 0 -140.5 -29.5t-42.5 -95.5t36 -98.5t122 -32.5v-364q-295 0 -424 147t-129 361q0 504 631 504h1057v-402zM1051 1577h-334l-283 487h330l121 -155l119 155h329z" />
    <glyph glyph-name="Ecircumflex.swsh" horiz-adv-x="1732" 
d="M1688 1028h-555v-121h403v-358h-403v-143h555v-406h-1006v1038h-104q-98 0 -140.5 -29.5t-42.5 -95.5t36 -98.5t122 -32.5v-364q-295 0 -424 147t-129 361q0 504 631 504h1057v-402zM864 1733l-121 -156h-329l282 487h334l283 -487h-330z" />
    <glyph glyph-name="Edieresis.swsh" horiz-adv-x="1732" 
d="M1688 1028h-555v-121h403v-358h-403v-143h555v-406h-1006v1038h-104q-98 0 -140.5 -29.5t-42.5 -95.5t36 -98.5t122 -32.5v-364q-295 0 -424 147t-129 361q0 504 631 504h1057v-402zM1105 1577q-91 0 -155.5 64.5t-64.5 154.5t64.5 155.5t155.5 65.5t154.5 -64.5
t63.5 -155.5t-63.5 -155.5t-154.5 -64.5zM630 1577q-91 0 -155.5 64.5t-64.5 154.5t64.5 155.5t155.5 65.5t154.5 -64.5t63.5 -155.5t-63.5 -155.5t-154.5 -64.5z" />
    <glyph glyph-name="Edotaccent.swsh" horiz-adv-x="1732" 
d="M1688 1028h-555v-121h403v-358h-403v-143h555v-406h-1006v1038h-104q-98 0 -140.5 -29.5t-42.5 -95.5t36 -98.5t122 -32.5v-364q-295 0 -424 147t-129 361q0 504 631 504h1057v-402zM882.5 1577q-75.5 0 -125.5 29.5t-80 80t-30 102.5q0 99 64.5 163.5t155.5 64.5
t154.5 -65.5t63.5 -156.5t-63.5 -154.5t-139 -63.5z" />
    <glyph glyph-name="Egrave.swsh" horiz-adv-x="1732" 
d="M1688 1028h-555v-121h403v-358h-403v-143h555v-406h-1006v1038h-104q-98 0 -140.5 -29.5t-42.5 -95.5t36 -98.5t122 -32.5v-364q-295 0 -424 147t-129 361q0 504 631 504h1057v-402zM1012 1577h-289l-287 467h416z" />
    <glyph glyph-name="Emacron.swsh" horiz-adv-x="1732" 
d="M1688 1028h-555v-121h403v-358h-403v-143h555v-406h-1006v1038h-104q-98 0 -140.5 -29.5t-42.5 -95.5t36 -98.5t122 -32.5v-364q-295 0 -424 147t-129 361q0 504 631 504h1057v-402zM1237 1964v-354h-741v354h741z" />
    <glyph glyph-name="Eogonek.swsh" horiz-adv-x="1732" 
d="M1688 1028h-555v-121h403v-358h-403v-143h555v-406h-27q-59 -41 -100 -73.5t-79 -83t-38 -97.5q0 -63 59 -63t113 32l61 -270q-127 -66 -315 -66q-137 0 -209 70t-72 178q0 215 281 373h-680v1038h-104q-98 0 -140.5 -29.5t-42.5 -95.5t36 -98.5t122 -32.5v-364
q-295 0 -424 147t-129 361q0 504 631 504h1057v-402z" />
    <glyph glyph-name="F.swsh" horiz-adv-x="1720" 
d="M600 1038q-184 0 -184 -114q0 -54 15 -82q32 -59 163 -60v-364q-306 0 -440 147t-134 361q0 504 611 504h1079v-406h-547v-145h396v-369h-396v-510h-450v1038h-113z" />
    <glyph glyph-name="G.swsh" horiz-adv-x="1406" 
d="M643.5 -541q-149.5 0 -276.5 40t-193 102l148 376q133 -115 346 -114.5t231 176.5q-103 -31 -247 -31q-288 0 -469 174.5t-181 531.5t197.5 553.5t528.5 196.5t456 -186q105 -157 78 -455h-420q12 100 -16.5 154.5t-118 54.5t-141.5 -40q-101 -78 -101 -271
q0 -137 65.5 -209t178.5 -72t186 27l-2 170h448l5 -475q6 -458 -273 -614q-88 -50 -184 -69.5t-245.5 -19.5z" />
    <glyph glyph-name="Gbreve.swsh" horiz-adv-x="1406" 
d="M643.5 -541q-149.5 0 -276.5 40t-193 102l148 376q133 -115 346 -114.5t231 176.5q-103 -31 -247 -31q-288 0 -469 174.5t-181 531.5t197.5 553.5t528.5 196.5t456 -186q105 -157 78 -455h-420q12 100 -16.5 154.5t-118 54.5t-141.5 -40q-101 -78 -101 -271
q0 -137 65.5 -209t178.5 -72t186 27l-2 170h448l5 -475q6 -458 -273 -614q-88 -50 -184 -69.5t-245.5 -19.5zM772 1577q-432 0 -407 467h327q0 -126 23.5 -160.5t64.5 -34.5t56.5 48.5t15.5 146.5h328q24 -467 -408 -467z" />
    <glyph glyph-name="Gdotaccent.swsh" horiz-adv-x="1406" 
d="M643.5 -541q-149.5 0 -276.5 40t-193 102l148 376q133 -115 346 -114.5t231 176.5q-103 -31 -247 -31q-288 0 -469 174.5t-181 531.5t197.5 553.5t528.5 196.5t456 -186q105 -157 78 -455h-420q12 100 -16.5 154.5t-118 54.5t-141.5 -40q-101 -78 -101 -271
q0 -137 65.5 -209t178.5 -72t186 27l-2 170h448l5 -475q6 -458 -273 -614q-88 -50 -184 -69.5t-245.5 -19.5zM766 1577q-57 0 -107.5 29.5t-80 80t-29.5 102.5q0 99 64.5 163.5t139 64.5t125 -29.5t80 -81t29.5 -127t-64.5 -139t-156.5 -63.5z" />
    <glyph glyph-name="H.swsh" horiz-adv-x="1955" 
d="M1403 1430h448v-1430h-448v514h-297v-514h-449v1038h-77q-100 0 -142.5 -29.5t-42.5 -94t40 -98.5t138 -34v-364q-306 0 -440 148q-133 148 -133 364q0 270 186 398q147 102 424 102h496v-502h297v502z" />
    <glyph glyph-name="I.swsh" horiz-adv-x="1241" 
d="M629 1430h508v-1430h-449v1038h-90q-113 0 -158 -28.5t-45 -94t40 -99.5t138 -34v-364q-306 0 -440 148q-133 148 -133 364q0 500 629 500z" />
    <glyph glyph-name="Iacute.swsh" horiz-adv-x="1241" 
d="M629 1430h508v-1430h-449v1038h-90q-113 0 -158 -28.5t-45 -94t40 -99.5t138 -34v-364q-306 0 -440 148q-133 148 -133 364q0 500 629 500zM1464 2007l-405 -430h-330l279 430h456z" />
    <glyph glyph-name="uni01CF.swsh" horiz-adv-x="1241" 
d="M629 1430h508v-1430h-449v1038h-90q-113 0 -158 -28.5t-45 -94t40 -99.5t138 -34v-364q-306 0 -440 148q-133 148 -133 364q0 500 629 500zM1104 1577h-334l-283 487h330l121 -155l119 155h329z" />
    <glyph glyph-name="Icircumflex.swsh" horiz-adv-x="1241" 
d="M629 1430h508v-1430h-449v1038h-90q-113 0 -158 -28.5t-45 -94t40 -99.5t138 -34v-364q-306 0 -440 148q-133 148 -133 364q0 500 629 500zM918 1733l-121 -156h-330l283 487h333l283 -487h-330z" />
    <glyph glyph-name="Idieresis.swsh" horiz-adv-x="1241" 
d="M629 1430h508v-1430h-449v1038h-90q-113 0 -158 -28.5t-45 -94t40 -99.5t138 -34v-364q-306 0 -440 148q-133 148 -133 364q0 500 629 500zM1157 2017q92 0 155.5 -64.5t63.5 -155.5t-63.5 -155.5t-155.5 -64.5t-155 66q-64 66 -64 139t29.5 124.5t81 81t108.5 29.5z
M463 1782q0 73 29.5 124.5t81 81t108.5 29.5q92 0 155.5 -64.5t63.5 -155.5t-63.5 -155.5t-155 -64.5t-155.5 66t-64 139z" />
    <glyph glyph-name="Idotaccent.swsh" horiz-adv-x="1241" 
d="M629 1430h508v-1430h-449v1038h-90q-113 0 -158 -28.5t-45 -94t40 -99.5t138 -34v-364q-306 0 -440 148q-133 148 -133 364q0 500 629 500zM700 1782q0 73 30 124.5t81 81t109 29.5q92 0 155.5 -65.5t63.5 -155.5t-63.5 -154.5t-155 -64.5t-156 66t-64.5 139z" />
    <glyph glyph-name="Igrave.swsh" horiz-adv-x="1241" 
d="M629 1430h508v-1430h-449v1038h-90q-113 0 -158 -28.5t-45 -94t40 -99.5t138 -34v-364q-306 0 -440 148q-133 148 -133 364q0 500 629 500zM1065 1577h-289l-287 467h416z" />
    <glyph glyph-name="Imacron.swsh" horiz-adv-x="1241" 
d="M629 1430h508v-1430h-449v1038h-90q-113 0 -158 -28.5t-45 -94t40 -99.5t138 -34v-364q-306 0 -440 148q-133 148 -133 364q0 500 629 500zM549 1964h741v-354h-741v354z" />
    <glyph glyph-name="Iogonek.swsh" horiz-adv-x="1241" 
d="M541 -352q0 203 243 352h-96v1038h-90q-113 0 -158 -28.5t-45 -94t40 -99.5t138 -34v-364q-306 0 -440 148q-133 148 -133 364q0 500 629 500h508v-1430h-47q-186 -129 -187 -233q0 -63 58.5 -63.5t113.5 32.5l62 -271q-127 -66 -291 -65.5t-234.5 70t-70.5 178.5z" />
    <glyph glyph-name="J.swsh" horiz-adv-x="1277" 
d="M342 1430h862v-1143q0 -468 -260 -623q-147 -88 -371 -88q-268 0 -420.5 150.5t-152.5 418.5q0 167 84 303q47 76 116.5 132.5t182.5 93.5t256 37v-375q-78 0 -130 -30q-91 -52 -91 -161q0 -168 151 -174q186 -6 187 279v788h-414v392z" />
    <glyph glyph-name="K.swsh" horiz-adv-x="1914" 
d="M1149 0h-449v1038h-127q-125 0 -161 -55q-18 -27 -17 -81q0 -120 178 -120v-364q-305 0 -439 147t-134 361q0 274 186 402q147 102 420 102h543v-390l252 390h518l-377 -521l371 -909h-531l-163 461l-70 -94v-367z" />
    <glyph glyph-name="Kcommaaccent.swsh" horiz-adv-x="1914" 
d="M1259.5 -88q100.5 0 169 -78t68.5 -203q0 -291 -323 -434l-136 197q127 57 170 104q-72 12 -120 65.5t-48 142.5t59.5 147.5t160 58.5zM1149 0h-449v1038h-127q-125 0 -161 -55q-18 -27 -17 -81q0 -120 178 -120v-364q-305 0 -439 147t-134 361q0 274 186 402
q147 102 420 102h543v-390l252 390h518l-377 -521l371 -909h-531l-163 461l-70 -94v-367z" />
    <glyph glyph-name="L.swsh" horiz-adv-x="1574" 
d="M1102 406h457v-406h-908v1038h-78q-139 0 -169 -70q-10 -22 -9 -53q0 -68 41 -100.5t137 -32.5v-364q-305 0 -439 147t-134 361q0 274 186 402q147 102 420 102h496v-1024z" />
    <glyph glyph-name="Lacute.swsh" horiz-adv-x="1574" 
d="M1102 406h457v-406h-908v1038h-78q-139 0 -169 -70q-10 -22 -9 -53q0 -68 41 -100.5t137 -32.5v-364q-305 0 -439 147t-134 361q0 274 186 402q147 102 420 102h496v-1024zM1432 2007l-406 -430h-330l279 430h457z" />
    <glyph glyph-name="Lcaron.swsh" horiz-adv-x="1574" 
d="M1102 406h457v-406h-908v1038h-78q-139 0 -169 -70q-10 -22 -9 -53q0 -68 41 -100.5t137 -32.5v-364q-305 0 -439 147t-134 361q0 274 186 402q147 102 420 102h496v-1024zM1071 1577h-334l-282 487h329l121 -155l119 155h330z" />
    <glyph glyph-name="Lcommaaccent.swsh" horiz-adv-x="1574" 
d="M1157.5 -88q100.5 0 169 -78t68.5 -203q0 -291 -324 -434l-135 197q127 57 170 104q-72 12 -120 65.5t-48 142.5t59.5 147.5t160 58.5zM1102 406h457v-406h-908v1038h-78q-139 0 -169 -70q-10 -22 -9 -53q0 -68 41 -100.5t137 -32.5v-364q-305 0 -439 147t-134 361
q0 274 186 402q147 102 420 102h496v-1024z" />
    <glyph glyph-name="Lslash.swsh" horiz-adv-x="1511" 
d="M1038 406h457v-406h-907v334l-84 -41l-158 311l242 119v315h-76q-135 0 -135 -94q0 -55 37 -102l-318 -156q-96 129 -96 307t123 308q123 129 420 129h495v-484l158 78l178 -301l-336 -166v-151z" />
    <glyph glyph-name="M.swsh" horiz-adv-x="2297" 
d="M1761 0v602l-176 -483h-325l-179 489v-608h-413v1038h-95q-125 0 -160 -55q-17 -27 -17 -81q-1 -120 177 -120v-364q-435 0 -542 315q-31 87 -31 181t16 164q56 249 343 324q108 28 247 28h600l236 -594l211 594h516l24 -1430h-432z" />
    <glyph glyph-name="N.swsh" horiz-adv-x="1941" 
d="M1423 1430h414v-1430h-420l-340 569v-569h-413v1038h-91q-139 0 -169 -70q-10 -22 -9 -53q0 -68 41 -100.5t137 -32.5v-364q-305 0 -439 147t-134 361q0 274 186 402q147 102 420 102h473l344 -582v582z" />
    <glyph glyph-name="Nacute.swsh" horiz-adv-x="1941" 
d="M1423 1430h414v-1430h-420l-340 569v-569h-413v1038h-91q-139 0 -169 -70q-10 -22 -9 -53q0 -68 41 -100.5t137 -32.5v-364q-305 0 -439 147t-134 361q0 274 186 402q147 102 420 102h473l344 -582v582zM1796 2007l-405 -430h-330l278 430h457z" />
    <glyph glyph-name="Ncaron.swsh" horiz-adv-x="1941" 
d="M1423 1430h414v-1430h-420l-340 569v-569h-413v1038h-91q-139 0 -169 -70q-10 -22 -9 -53q0 -68 41 -100.5t137 -32.5v-364q-305 0 -439 147t-134 361q0 274 186 402q147 102 420 102h473l344 -582v582zM1436 1577h-334l-283 487h330l121 -155l119 155h329z" />
    <glyph glyph-name="Ncommaaccent.swsh" horiz-adv-x="1941" 
d="M1256.5 -88q101.5 0 169 -78t67.5 -203q0 -291 -324 -434l-135 197q129 57 170 104q-72 12 -120 65.5t-48 142.5t59.5 147.5t161 58.5zM1423 1430h414v-1430h-420l-340 569v-569h-413v1038h-91q-139 0 -169 -70q-10 -22 -9 -53q0 -68 41 -100.5t137 -32.5v-364
q-305 0 -439 147t-134 361q0 274 186 402q147 102 420 102h473l344 -582v582z" />
    <glyph glyph-name="Ntilde.swsh" horiz-adv-x="1941" 
d="M1423 1430h414v-1430h-420l-340 569v-569h-413v1038h-91q-139 0 -169 -70q-10 -22 -9 -53q0 -68 41 -100.5t137 -32.5v-364q-305 0 -439 147t-134 361q0 274 186 402q147 102 420 102h473l344 -582v582zM1112 1495h-309q-23 446 233 447q76 0 138 -40q20 -14 66 -46.5
t71 -32.5q49 0 49 112h309q23 -446 -244 -446q-76 0 -186 80q-55 39 -80 39q-47 0 -47 -113z" />
    <glyph glyph-name="O.swsh" horiz-adv-x="1568" 
d="M788 399q133 0 206 70t73 168v29q-150 -113 -426 -113l6 371q125 0 125 61q0 47 -76 47t-129 -83t-53 -228.5t70.5 -233.5t203.5 -88zM41 711.5q0 351.5 208 552t535 200.5q244 0 345.5 -116t105.5 -279l96 76q88 -68 142.5 -184.5t58.5 -268.5q10 -330 -196 -529.5
t-554 -197.5t-544.5 198.5t-196.5 548z" />
    <glyph glyph-name="Oacute.swsh" horiz-adv-x="1568" 
d="M788 399q133 0 206 70t73 168v29q-150 -113 -426 -113l6 371q125 0 125 61q0 47 -76 47t-129 -83t-53 -228.5t70.5 -233.5t203.5 -88zM41 711.5q0 351.5 208 552t535 200.5q244 0 345.5 -116t105.5 -279l96 76q88 -68 142.5 -184.5t58.5 -268.5q10 -330 -196 -529.5
t-554 -197.5t-544.5 198.5t-196.5 548zM1329 2007l-405 -430h-330l278 430h457z" />
    <glyph glyph-name="uni01D1.swsh" horiz-adv-x="1568" 
d="M788 399q133 0 206 70t73 168v29q-150 -113 -426 -113l6 371q125 0 125 61q0 47 -76 47t-129 -83t-53 -228.5t70.5 -233.5t203.5 -88zM41 711.5q0 351.5 208 552t535 200.5q244 0 345.5 -116t105.5 -279l96 76q88 -68 142.5 -184.5t58.5 -268.5q10 -330 -196 -529.5
t-554 -197.5t-544.5 198.5t-196.5 548zM969 1577h-334l-283 487h330l121 -155l119 155h329z" />
    <glyph glyph-name="Ocircumflex.swsh" horiz-adv-x="1568" 
d="M788 399q133 0 206 70t73 168v29q-150 -113 -426 -113l6 371q125 0 125 61q0 47 -76 47t-129 -83t-53 -228.5t70.5 -233.5t203.5 -88zM41 711.5q0 351.5 208 552t535 200.5q244 0 345.5 -116t105.5 -279l96 76q88 -68 142.5 -184.5t58.5 -268.5q10 -330 -196 -529.5
t-554 -197.5t-544.5 198.5t-196.5 548zM782 1733l-120 -156h-330l282 487h334l283 -487h-330z" />
    <glyph glyph-name="Odieresis.swsh" horiz-adv-x="1568" 
d="M788 399q133 0 206 70t73 168v29q-150 -113 -426 -113l6 371q125 0 125 61q0 47 -76 47t-129 -83t-53 -228.5t70.5 -233.5t203.5 -88zM41 711.5q0 351.5 208 552t535 200.5q244 0 345.5 -116t105.5 -279l96 76q88 -68 142.5 -184.5t58.5 -268.5q10 -330 -196 -529.5
t-554 -197.5t-544.5 198.5t-196.5 548zM1023 1577q-91 0 -155.5 64.5t-64.5 154.5t64.5 155.5t155.5 65.5t154.5 -64.5t63.5 -155.5t-63.5 -155.5t-154.5 -64.5zM548 1577q-91 0 -155.5 64.5t-64.5 154.5t64.5 155.5t155.5 65.5t154.5 -64.5t63.5 -155.5t-63.5 -155.5
t-154.5 -64.5z" />
    <glyph glyph-name="Ograve.swsh" horiz-adv-x="1568" 
d="M788 399q133 0 206 70t73 168v29q-150 -113 -426 -113l6 371q125 0 125 61q0 47 -76 47t-129 -83t-53 -228.5t70.5 -233.5t203.5 -88zM41 711.5q0 351.5 208 552t535 200.5q244 0 345.5 -116t105.5 -279l96 76q88 -68 142.5 -184.5t58.5 -268.5q10 -330 -196 -529.5
t-554 -197.5t-544.5 198.5t-196.5 548zM930 1577h-289l-287 467h416z" />
    <glyph glyph-name="Ohungarumlaut.swsh" horiz-adv-x="1568" 
d="M788 399q133 0 206 70t73 168v29q-150 -113 -426 -113l6 371q125 0 125 61q0 47 -76 47t-129 -83t-53 -228.5t70.5 -233.5t203.5 -88zM41 711.5q0 351.5 208 552t535 200.5q244 0 345.5 -116t105.5 -279l96 76q88 -68 142.5 -184.5t58.5 -268.5q10 -330 -196 -529.5
t-554 -197.5t-544.5 198.5t-196.5 548zM1106 1577h-289l227 467h416zM930 2044l-217 -467h-256l73 467h400z" />
    <glyph glyph-name="Omacron.swsh" horiz-adv-x="1568" 
d="M788 399q133 0 206 70t73 168v29q-150 -113 -426 -113l6 371q125 0 125 61q0 47 -76 47t-129 -83t-53 -228.5t70.5 -233.5t203.5 -88zM41 711.5q0 351.5 208 552t535 200.5q244 0 345.5 -116t105.5 -279l96 76q88 -68 142.5 -184.5t58.5 -268.5q10 -330 -196 -529.5
t-554 -197.5t-544.5 198.5t-196.5 548zM1155 1964v-354h-741v354h741z" />
    <glyph glyph-name="Otilde.swsh" horiz-adv-x="1568" 
d="M788 399q133 0 206 70t73 168v29q-150 -113 -426 -113l6 371q125 0 125 61q0 47 -76 47t-129 -83t-53 -228.5t70.5 -233.5t203.5 -88zM41 711.5q0 351.5 208 552t535 200.5q244 0 345.5 -116t105.5 -279l96 76q88 -68 142.5 -184.5t58.5 -268.5q10 -330 -196 -529.5
t-554 -197.5t-544.5 198.5t-196.5 548zM645 1495h-309q-23 446 233 447q73 0 137 -40q22 -14 67.5 -46.5t70.5 -32.5q49 0 49 112h309q23 -446 -244 -446q-68 0 -145 51q-12 8 -54 38t-67 30q-47 0 -47 -113z" />
    <glyph glyph-name="P.swsh" horiz-adv-x="1812" 
d="M1225 834q109 0 108 100q0 90 -110 90h-107v-190h109zM1270 1430q535 0 534 -492q0 -172 -66 -286t-183 -163q-116 -49 -281 -49h-158v-440h-448v1038h-95q-142 0 -169 -69q-9 -23 -9 -54q0 -69 41 -101t137 -32v-364q-435 0 -542 315q-31 87 -31 181t16 164
q56 249 343 324q108 28 247 28h664z" />
    <glyph glyph-name="Q.swsh" horiz-adv-x="1568" 
d="M772 985q0 47 -76 47t-129 -83t-53 -228.5t70.5 -233.5t203.5 -88t206 70t73 168v29q-150 -113 -426 -113l6 371q125 0 125 61zM1497 -41l31 -395q-115 -43 -218.5 -43t-189.5 17.5t-158 43.5t-140 50q-166 60 -276 59.5t-296 -94.5l-19 389q98 41 179 57
q-178 86 -273.5 257t-95.5 415q0 348 208 548.5t535 200.5q244 0 345.5 -116t105.5 -279l96 76q192 -149 202 -470q5 -169 -62.5 -319.5t-198.5 -248t-309 -127.5q8 -2 44.5 -16.5t46.5 -18.5q10 -5 42 -15q104 -34 199.5 -34t201.5 63z" />
    <glyph glyph-name="R.swsh" horiz-adv-x="1892" 
d="M1337 928q0 47 -27.5 71.5t-74.5 24.5h-115v-190h117q45 0 72.5 23.5t27.5 70.5zM1120 473v-473h-448v1038h-99q-125 0 -161 -55q-18 -27 -17 -81q0 -120 178 -120v-364q-305 0 -439 147t-134 361q0 274 186 402q147 102 420 102h682q248 0 384 -119t136 -357
q0 -125 -52 -227t-148 -166l278 -561h-530l-197 473h-39z" />
    <glyph glyph-name="Racute.swsh" horiz-adv-x="1892" 
d="M1337 928q0 47 -27.5 71.5t-74.5 24.5h-115v-190h117q45 0 72.5 23.5t27.5 70.5zM1120 473v-473h-448v1038h-99q-125 0 -161 -55q-18 -27 -17 -81q0 -120 178 -120v-364q-305 0 -439 147t-134 361q0 274 186 402q147 102 420 102h682q248 0 384 -119t136 -357
q0 -125 -52 -227t-148 -166l278 -561h-530l-197 473h-39zM1776 2007l-406 -430h-330l279 430h457z" />
    <glyph glyph-name="Rcaron.swsh" horiz-adv-x="1892" 
d="M1337 928q0 47 -27.5 71.5t-74.5 24.5h-115v-190h117q45 0 72.5 23.5t27.5 70.5zM1120 473v-473h-448v1038h-99q-125 0 -161 -55q-18 -27 -17 -81q0 -120 178 -120v-364q-305 0 -439 147t-134 361q0 274 186 402q147 102 420 102h682q248 0 384 -119t136 -357
q0 -125 -52 -227t-148 -166l278 -561h-530l-197 473h-39zM1415 1577h-334l-282 487h329l119 -155l121 155h330z" />
    <glyph glyph-name="Rcommaaccent.swsh" horiz-adv-x="1892" 
d="M1236.5 -88q101.5 0 169 -78t67.5 -203q0 -291 -324 -434l-135 197q129 57 170 104q-72 12 -120 65.5t-48 142.5t59.5 147.5t161 58.5zM1337 928q0 47 -27.5 71.5t-74.5 24.5h-115v-190h117q45 0 72.5 23.5t27.5 70.5zM1120 0h-448v1038h-99q-125 0 -161 -55
q-18 -27 -17 -81q0 -120 178 -120v-364q-305 0 -439 147t-134 361q0 274 186 402q147 102 420 102h682q248 0 384 -119t136 -357q0 -125 -52 -227t-148 -166l278 -561h-530l-197 473h-39v-473z" />
    <glyph glyph-name="S.swsh" horiz-adv-x="1216" 
d="M606 63q135 -1 135 115q0 58 -41 96.5t-155 96.5q-229 115 -331.5 262t-102.5 358t139 341t412 130t399 -162q105 -136 78 -405l-398 2q10 70 -16.5 114t-72.5 44q-91 0 -91 -84q0 -49 48 -92t182 -115q199 -100 301 -236.5t102 -359.5t-159.5 -366.5t-437 -143.5
t-437.5 163t-160 478l414 72q-16 -307 192 -308z" />
    <glyph glyph-name="Sacute.swsh" horiz-adv-x="1216" 
d="M606 63q135 -1 135 115q0 58 -41 96.5t-155 96.5q-229 115 -331.5 262t-102.5 358t139 341t412 130t399 -162q105 -136 78 -405l-398 2q10 70 -16.5 114t-72.5 44q-91 0 -91 -84q0 -49 48 -92t182 -115q199 -100 301 -236.5t102 -359.5t-159.5 -366.5t-437 -143.5
t-437.5 163t-160 478l414 72q-16 -307 192 -308zM1192 2007l-406 -430h-329l278 430h457z" />
    <glyph glyph-name="Scaron.swsh" horiz-adv-x="1216" 
d="M606 63q135 -1 135 115q0 58 -41 96.5t-155 96.5q-229 115 -331.5 262t-102.5 358t139 341t412 130t399 -162q105 -136 78 -405l-398 2q10 70 -16.5 114t-72.5 44q-91 0 -91 -84q0 -49 48.5 -92t181.5 -115q199 -100 301 -236.5t102 -359.5t-160 -366.5t-437 -143.5
t-437 163t-160 478l414 72q-16 -307 192 -308zM831 1577h-333l-283 487h330l119 -155l120 155h330z" />
    <glyph glyph-name="T.swsh" horiz-adv-x="1554" 
d="M1534 1430v-410h-289v-1020h-448v1020h-224q-125 0 -161 -66q-18 -32 -17 -96q0 -137 199 -137v-365q-158 0 -276 43q-120 43 -186 118q-132 149 -132 364q0 298 186 437q149 112 420 112h928z" />
    <glyph glyph-name="Tbar.swsh" horiz-adv-x="1554" 
d="M1534 1020h-289v-330h170v-362h-170v-328h-448v328h-174v362h174v330h-265q-158 0 -157 -115q0 -51 31.5 -76.5t105.5 -25.5v-365q-141 0 -247.5 39t-166.5 107q-118 131 -118 336q0 206 138 351q72 75 202.5 117t306.5 42h907v-410z" />
    <glyph glyph-name="Tcaron.swsh" horiz-adv-x="1554" 
d="M1534 1430v-410h-289v-1020h-448v1020h-224q-125 0 -161 -66q-18 -32 -17 -96q0 -137 199 -137v-365q-158 0 -276 43q-120 43 -186 118q-132 149 -132 364q0 298 186 437q149 112 420 112h928zM1204 1577h-334l-282 487h330l118 -155l121 155h330z" />
    <glyph glyph-name="uni0162.swsh" horiz-adv-x="1554" 
d="M1245 0h-117l-34 -74q31 8 65 8q96 0 150.5 -56t54.5 -158t-43 -168q-85 -130 -305 -130q-160 0 -277 74l95 213q96 -57 170 -57t73 49q0 41 -35 41q-29 0 -47 -31l-184 60l78 229h-92v1020h-224q-125 0 -161 -66q-18 -32 -17 -96q0 -137 199 -137v-365q-158 0 -276 43
q-120 43 -186 118q-132 149 -132 364q0 298 186 437q149 112 420 112h928v-410h-289v-1020z" />
    <glyph glyph-name="uni021A.swsh" horiz-adv-x="1554" 
d="M1024.5 -88q100.5 0 169 -78t68.5 -203q0 -291 -324 -434l-135 197q127 57 170 104q-72 12 -120 65.5t-48 142.5t59.5 147.5t160 58.5zM606 1430h928v-410h-289v-1020h-448v1020h-224q-125 0 -161 -66q-18 -32 -17 -96q0 -137 199 -137v-365q-158 0 -276 43
q-120 43 -186 118q-132 149 -132 364q0 298 186 437q148 112 420 112z" />
    <glyph glyph-name="U.swsh" horiz-adv-x="1912" 
d="M1415 1430h449v-816q0 -319 -156 -484t-441.5 -165t-443 168t-157.5 481v424h-93q-139 0 -169 -70q-10 -22 -9 -53q0 -68 41 -100.5t137 -32.5v-364q-305 0 -439 147t-134 361q0 274 186 402q147 102 420 102h508v-846q0 -190 152 -191q150 0 149 191v846z" />
    <glyph glyph-name="Uacute.swsh" horiz-adv-x="1912" 
d="M1415 1430h449v-816q0 -319 -156 -484t-441.5 -165t-443 168t-157.5 481v424h-93q-139 0 -169 -70q-10 -22 -9 -53q0 -68 41 -100.5t137 -32.5v-364q-305 0 -439 147t-134 361q0 274 186 402q147 102 420 102h508v-846q0 -190 152 -191q150 0 149 191v846zM1825 2007
l-406 -430h-329l278 430h457z" />
    <glyph glyph-name="uni01D3.swsh" horiz-adv-x="1912" 
d="M1415 1430h449v-816q0 -319 -156 -484t-441.5 -165t-443 168t-157.5 481v424h-93q-139 0 -169 -70q-10 -22 -9 -53q0 -68 41 -100.5t137 -32.5v-364q-305 0 -439 147t-134 361q0 274 186 402q147 102 420 102h508v-846q0 -190 152 -191q150 0 149 191v846zM1464 1577
h-334l-282 487h330l118 -155l121 155h330z" />
    <glyph glyph-name="Ucircumflex.swsh" horiz-adv-x="1912" 
d="M1415 1430h449v-816q0 -319 -156 -484t-441.5 -165t-443 168t-157.5 481v424h-93q-139 0 -169 -70q-10 -22 -9 -53q0 -68 41 -100.5t137 -32.5v-364q-305 0 -439 147t-134 361q0 274 186 402q147 102 420 102h508v-846q0 -190 152 -191q150 0 149 191v846zM1276 1733
l-119 -156h-330l283 487h334l282 -487h-329z" />
    <glyph glyph-name="Udieresis.swsh" horiz-adv-x="1912" 
d="M1415 1430h449v-816q0 -319 -156 -484t-441.5 -165t-443 168t-157.5 481v424h-93q-139 0 -169 -70q-10 -22 -9 -53q0 -68 41 -100.5t137 -32.5v-364q-305 0 -439 147t-134 361q0 274 186 402q147 102 420 102h508v-846q0 -190 152 -191q150 0 149 191v846zM1363.5 1953
q65.5 64 156 64t154 -64.5t63.5 -155t-63 -155.5t-154 -65t-156.5 64t-65.5 156t65.5 156zM888.5 1953q65.5 64 155.5 64t154 -64.5t64 -155t-63.5 -155.5t-154 -65t-156 64t-65.5 156t65.5 156z" />
    <glyph glyph-name="Ugrave.swsh" horiz-adv-x="1912" 
d="M1415 1430h449v-816q0 -319 -156 -484t-441.5 -165t-443 168t-157.5 481v424h-93q-139 0 -169 -70q-10 -22 -9 -53q0 -68 41 -100.5t137 -32.5v-364q-305 0 -439 147t-134 361q0 274 186 402q147 102 420 102h508v-846q0 -190 152 -191q150 0 149 191v846zM1425 1577
h-288l-287 467h416z" />
    <glyph glyph-name="Uhungarumlaut.swsh" horiz-adv-x="1912" 
d="M1415 584v846h449v-816q0 -319 -156 -484t-441.5 -165t-443 168t-157.5 481v424h-93q-139 0 -169 -70q-10 -22 -9 -53q0 -68 41 -100.5t137 -32.5v-364q-305 0 -439 147t-134 361q0 274 186 402q147 102 420 102h508v-846q0 -190 152 -191q149 1 149 191zM1602 1577h-289
l227 467h416zM1425 2044l-217 -467h-256l74 467h399z" />
    <glyph glyph-name="Umacron.swsh" horiz-adv-x="1912" 
d="M1415 1430h449v-816q0 -319 -156 -484t-441.5 -165t-443 168t-157.5 481v424h-93q-139 0 -169 -70q-10 -22 -9 -53q0 -68 41 -100.5t137 -32.5v-364q-305 0 -439 147t-134 361q0 274 186 402q147 102 420 102h508v-846q0 -190 152 -191q150 0 149 191v846zM1651 1964
v-354h-742v354h742z" />
    <glyph glyph-name="Uogonek.swsh" horiz-adv-x="1912" 
d="M1415 1430h449v-816q0 -310 -151 -478q-73 -81 -177 -124q-207 -139 -207 -245q0 -63 58.5 -63.5t113.5 32.5l62 -271q-127 -66 -291 -65.5t-234.5 70t-70.5 178.5q0 182 200 323q-242 29 -371.5 194t-129.5 449v424h-93q-139 0 -169 -70q-10 -22 -9 -53q0 -68 41 -100.5
t137 -32.5v-364q-305 0 -439 147t-134 361q0 274 186 402q147 102 420 102h508v-846q0 -190 152 -191q150 0 149 191v846z" />
    <glyph glyph-name="Uring.swsh" horiz-adv-x="1912" 
d="M1415 1430h449v-816q0 -319 -156 -484t-441.5 -165t-443 168t-157.5 481v424h-93q-139 0 -169 -70q-10 -22 -9 -53q0 -68 41 -100.5t137 -32.5v-364q-305 0 -439 147t-134 361q0 274 186 402q147 102 420 102h508v-846q0 -190 152 -191q150 0 149 191v846zM1279 1929
q-34 0 -54.5 -22.5t-20.5 -60.5t20.5 -59.5t55.5 -21.5t55.5 21.5t20.5 59.5t-21.5 60.5t-55.5 22.5zM1277.5 1556q-147.5 0 -227 77t-79.5 212t81 213t227 78t228 -80t82 -210t-82 -210t-229.5 -80z" />
    <glyph glyph-name="V.swsh" horiz-adv-x="1918" 
d="M573 1038q-96 0 -137 -30t-41 -95q0 -67 41 -99t137 -32v-364q-435 0 -542 315q-31 89 -31 191t27 185q65 199 261 271q114 43 273 50h481l144 -697q27 -129 45 -248q25 139 53 256l166 689h465l-436 -1430h-525l-286 1038h-95z" />
    <glyph glyph-name="W.swsh" horiz-adv-x="2492" 
d="M573 1038q-96 0 -137 -29.5t-41 -95.5t41 -98.5t137 -32.5v-364q-305 0 -439 147t-134 361q0 479 549 501v3h485l47 -642q0 -14 8.5 -107t12.5 -142q27 158 51 249l166 639h414l143 -616q31 -127 49 -264q23 176 31 256l61 627h461l-297 -1430h-518l-104 428
q-20 86 -54 242q-37 -156 -57 -240l-111 -430h-518l-196 1038h-50z" />
    <glyph glyph-name="Wacute.swsh" horiz-adv-x="2492" 
d="M573 1038q-96 0 -137 -29.5t-41 -95.5t41 -98.5t137 -32.5v-364q-305 0 -439 147t-134 361q0 479 549 501v3h485l47 -642q0 -14 8.5 -107t12.5 -142q27 158 51 249l166 639h414l143 -616q31 -127 49 -264q23 176 31 256l61 627h461l-297 -1430h-518l-104 428
q-20 86 -54 242q-37 -156 -57 -240l-111 -430h-518l-196 1038h-50zM2058 2007l-405 -430h-330l279 430h456z" />
    <glyph glyph-name="Wcircumflex.swsh" horiz-adv-x="2492" 
d="M573 1038q-96 0 -137 -29.5t-41 -95.5t41 -98.5t137 -32.5v-364q-305 0 -439 147t-134 361q0 479 549 501v3h485l47 -642q0 -14 8.5 -107t12.5 -142q27 158 51 249l166 639h414l143 -616q31 -127 49 -264q23 176 31 256l61 627h461l-297 -1430h-518l-104 428
q-20 86 -54 242q-37 -156 -57 -240l-111 -430h-518l-196 1038h-50zM1509 1733l-118 -156h-330l282 487h334l283 -487h-330z" />
    <glyph glyph-name="Wdieresis.swsh" horiz-adv-x="2492" 
d="M573 1038q-96 0 -137 -29.5t-41 -95.5t41 -98.5t137 -32.5v-364q-305 0 -439 147t-134 361q0 479 549 501v3h485l47 -642q0 -14 8.5 -107t12.5 -142q27 158 51 249l166 639h414l143 -616q31 -127 49 -264q23 176 31 256l61 627h461l-297 -1430h-518l-104 428
q-20 86 -54 242q-37 -156 -57 -240l-111 -430h-518l-196 1038h-50zM1596.5 1641.5q-64.5 64.5 -64.5 154.5q0 92 64.5 156.5t155.5 64.5t154.5 -64.5t63.5 -155t-63 -155.5t-154.5 -65t-156 64.5zM1121.5 1952.5q64.5 64.5 155.5 64.5t154.5 -64.5t63.5 -155t-63 -155.5
t-155 -65q-91 0 -155.5 64.5t-64.5 155.5t64.5 155.5z" />
    <glyph glyph-name="Wgrave.swsh" horiz-adv-x="2492" 
d="M573 1038q-96 0 -137 -29.5t-41 -95.5t41 -98.5t137 -32.5v-364q-305 0 -439 147t-134 361q0 479 549 501v3h485l47 -642q0 -14 8.5 -107t12.5 -142q27 158 51 249l166 639h414l143 -616q31 -127 49 -264q23 176 31 256l61 627h461l-297 -1430h-518l-104 428
q-20 86 -54 242q-37 -156 -57 -240l-111 -430h-518l-196 1038h-50zM1659 1577h-289l-287 467h416z" />
    <glyph glyph-name="X.swsh" horiz-adv-x="1812" 
d="M573 1038q-96 0 -137 -30t-41 -95q0 -67 41 -99t137 -32v-364q-435 0 -542 315q-31 88 -31 193q0 473 539 501l-2 3h485l149 -410l132 410h481l-322 -680l342 -750h-485l-164 432l-147 -432h-492l354 737l-145 301h-152z" />
    <glyph glyph-name="Y.swsh" horiz-adv-x="1769" 
d="M1337 0h-448v492q-55 240 -153.5 393t-207.5 153q-63 0 -98 -34.5t-35 -91t42 -93.5t136 -37v-364q-305 0 -439 147t-134 356t124 359t404 150q442 0 605 -490q66 240 190 490h481q-12 -20 -71.5 -134t-168.5 -322t-227 -485v-489z" />
    <glyph glyph-name="Yacute.swsh" horiz-adv-x="1769" 
d="M1337 0h-448v492q-55 240 -153.5 393t-207.5 153q-63 0 -98 -34.5t-35 -91t42 -93.5t136 -37v-364q-305 0 -439 147t-134 356t124 359t404 150q442 0 605 -490q66 240 190 490h481q-12 -20 -71.5 -134t-168.5 -322t-227 -485v-489zM1651 2007l-406 -430h-330l279 430h457
z" />
    <glyph glyph-name="Ycircumflex.swsh" horiz-adv-x="1769" 
d="M1337 0h-448v492q-55 240 -153.5 393t-207.5 153q-63 0 -98 -34.5t-35 -91t42 -93.5t136 -37v-364q-305 0 -439 147t-134 356t124 359t404 150q442 0 605 -490q66 240 190 490h481q-12 -20 -71.5 -134t-168.5 -322t-227 -485v-489zM1102 1733l-119 -156h-330l283 487h334
l282 -487h-329z" />
    <glyph glyph-name="Ydieresis.swsh" horiz-adv-x="1769" 
d="M1337 0h-448v492q-55 240 -153.5 393t-207.5 153q-63 0 -98 -34.5t-35 -91t42 -93.5t136 -37v-364q-305 0 -439 147t-134 356.5t124 359t404 149.5q442 0 605 -490q66 240 190 490h481q-12 -20 -71.5 -134t-169 -322t-226.5 -485v-489zM1189.5 1953q65.5 64 155.5 64
t154 -64.5t64 -155t-63.5 -155.5t-154 -65t-156 64t-65.5 156t65.5 156zM713.5 1641.5q-64.5 64.5 -64.5 154.5q0 92 64.5 156.5t155.5 64.5t154.5 -64.5t63.5 -155.5t-63 -155.5t-154.5 -64.5t-156 64.5z" />
    <glyph glyph-name="Ygrave.swsh" horiz-adv-x="1769" 
d="M1337 0h-448v492q-55 240 -153.5 393t-207.5 153q-63 0 -98 -34.5t-35 -91t42 -93.5t136 -37v-364q-305 0 -439 147t-134 356t124 359t404 150q442 0 605 -490q66 240 190 490h481q-12 -20 -71.5 -134t-168.5 -322t-227 -485v-489zM1251 1577h-288l-287 467h416z" />
    <glyph glyph-name="Z.swsh" horiz-adv-x="1409" 
d="M973 330q0 57 -26.5 95t-80.5 69l244 321q113 -47 192.5 -177t79.5 -341q0 -141 -44 -245q-44 -106 -118 -164q-143 -113 -343 -113q-88 0 -183.5 26.5t-161.5 56.5q-177 82 -259.5 82.5t-151.5 -34.5l-90 375l553 743h-539v406h1131v-375l-594 -764q2 -2 18 -10.5
t20.5 -11.5t19.5 -11t21.5 -10t21.5 -9.5t25 -9.5l24 -6q39 -10 91 -10q150 0 150 117z" />
    <glyph glyph-name="Zacute.swsh" horiz-adv-x="1409" 
d="M973 330q0 57 -26.5 95t-80.5 69l244 321q113 -47 192.5 -177t79.5 -341q0 -141 -44 -245q-44 -106 -118 -164q-143 -113 -343 -113q-88 0 -183.5 26.5t-161.5 56.5q-177 82 -259.5 82.5t-151.5 -34.5l-90 375l553 743h-539v406h1131v-375l-594 -764q2 -2 18 -10.5
t20.5 -11.5t19.5 -11t21.5 -10t21.5 -9.5t25 -9.5l24 -6q39 -10 91 -10q150 0 150 117zM1237 2007l-406 -430h-329l278 430h457z" />
    <glyph glyph-name="Zcaron.swsh" horiz-adv-x="1409" 
d="M973 330q0 57 -26.5 95t-80.5 69l244 321q113 -47 192.5 -177t79.5 -341q0 -141 -44 -245q-44 -106 -118 -164q-143 -113 -343 -113q-88 0 -183.5 26.5t-161.5 56.5q-177 82 -259.5 82.5t-151.5 -34.5l-90 375l553 743h-539v406h1131v-375l-594 -764q2 -2 18 -10.5
t20.5 -11.5t19.5 -11t21.5 -10t21.5 -9.5t25 -9.5l24 -6q39 -10 91 -10q150 0 150 117zM877 1577h-334l-283 487h330l121 -155l118 155h330z" />
    <glyph glyph-name="Zdotaccent.swsh" horiz-adv-x="1409" 
d="M973 330q0 57 -26.5 95t-80.5 69l244 321q113 -47 192.5 -177t79.5 -341q0 -141 -44 -245q-44 -106 -118 -164q-143 -113 -343 -113q-88 0 -183.5 26.5t-161.5 56.5q-177 82 -259.5 82.5t-151.5 -34.5l-90 375l553 743h-539v406h1131v-375l-594 -764q2 -2 18 -10.5
t20.5 -11.5t19.5 -11t21.5 -10t21.5 -9.5t25 -9.5l24 -6q39 -10 91 -10q150 0 150 117zM692 1577q-57 0 -108.5 29.5t-81 80t-29.5 102.5q0 99 64.5 163.5t140 64.5t126 -29.5t79 -81t28.5 -127t-63.5 -139t-155.5 -63.5z" />
    <glyph glyph-name="i.loclTRK" horiz-adv-x="550" 
d="M489 981v-981h-428v981h428zM57 1368q0 90 64.5 155.5t155.5 65.5t155 -64.5t64 -155.5t-64 -155q-62 -64 -154 -64.5t-156.5 64t-64.5 154.5z" />
    <glyph glyph-name="a.ss01" horiz-adv-x="1161" 
d="M561 346q84 0 119 60v176q-36 63 -104 63q-140 0 -140 -149.5t125 -149.5zM680 981h428v-981h-428v63q-98 -98 -267 -98t-283 124t-114 399t119 401.5t288 126.5t257 -103v68z" />
    <glyph glyph-name="aacute.ss01" horiz-adv-x="1161" 
d="M561 346q84 0 119 60v176q-36 63 -104 63q-140 0 -140 -149.5t125 -149.5zM680 981h428v-981h-428v63q-98 -98 -267 -98t-283 124t-114 399t119 401.5t288 126.5t257 -103v68zM1042 1595l-286 -467h-289l160 467h415z" />
    <glyph glyph-name="abreve.ss01" horiz-adv-x="1161" 
d="M561 346q84 0 119 60v176q-36 63 -104 63q-140 0 -140 -149.5t125 -149.5zM680 981h428v-981h-428v63q-98 -98 -267 -98t-283 124t-114 399t119 401.5t288 126.5t257 -103v68zM637 1128q-432 0 -410 467h330q0 -98 16.5 -146t64.5 -48t62.5 47t14.5 147h329
q25 -467 -407 -467z" />
    <glyph glyph-name="acircumflex.ss01" horiz-adv-x="1161" 
d="M561 346q84 0 119 60v176q-36 63 -104 63q-140 0 -140 -149.5t125 -149.5zM680 981h428v-981h-428v63q-98 -98 -267 -98t-283 124t-114 399t119 401.5t288 126.5t257 -103v68zM637 1300l-121 -172h-287l242 467h332l241 -467h-286z" />
    <glyph glyph-name="adieresis.ss01" horiz-adv-x="1161" 
d="M561 346q84 0 119 60v176q-36 63 -104 63q-140 0 -140 -149.5t125 -149.5zM680 981h428v-981h-428v63q-98 -98 -267 -98t-283 124t-114 399t119 401.5t288 126.5t257 -103v68zM875 1149q-91 0 -155.5 64.5t-64.5 154.5t64.5 155.5t155.5 65.5t155 -64.5t64 -155.5
t-64 -155.5t-155 -64.5zM400 1149q-91 0 -155.5 64.5t-64.5 154.5t64.5 155.5t155.5 65.5t154.5 -64.5t63.5 -155.5t-63.5 -155.5t-154.5 -64.5z" />
    <glyph glyph-name="agrave.ss01" horiz-adv-x="1161" 
d="M561 346q84 0 119 60v176q-36 63 -104 63q-140 0 -140 -149.5t125 -149.5zM680 981h428v-981h-428v63q-98 -98 -267 -98t-283 124t-114 399t119 401.5t288 126.5t257 -103v68zM797 1128h-289l-287 467h416z" />
    <glyph glyph-name="amacron.ss01" horiz-adv-x="1161" 
d="M561 346q84 0 119 60v176q-36 63 -104 63q-140 0 -140 -149.5t125 -149.5zM680 981h428v-981h-428v63q-98 -98 -267 -98t-283 124t-114 399t119 401.5t288 126.5t257 -103v68zM1008 1532v-354h-742v354h742z" />
    <glyph glyph-name="aogonek.ss01" horiz-adv-x="1161" 
d="M561 346q84 0 119 60v176q-36 63 -104 63q-140 0 -140 -149.5t125 -149.5zM852.5 -621q-162.5 0 -233 70t-70.5 178q0 215 250 373h-119v63q-98 -98 -267 -98t-283 124t-114 399t119 401.5t288 126.5t257 -103v68h428v-981q-197 -145 -197 -254q0 -63 64 -63q55 0 131 45
l61 -271q-152 -78 -314.5 -78z" />
    <glyph glyph-name="aring.ss01" horiz-adv-x="1161" 
d="M561 346q84 0 119 60v176q-36 63 -104 63q-140 0 -140 -149.5t125 -149.5zM680 981h428v-981h-428v63q-98 -98 -267 -98t-283 124t-114 399t119 401.5t288 126.5t257 -103v68zM637 1530q-43 0 -69.5 -28.5t-26.5 -76t26.5 -74t69.5 -26.5t69.5 26.5t26.5 74t-26.5 76
t-69.5 28.5zM637 1116q-154 0 -242 86t-88 223.5t88 224.5t242 87t242 -89t88 -222.5t-88 -221.5t-242 -88z" />
    <glyph glyph-name="atilde.ss01" horiz-adv-x="1161" 
d="M576 645q-140 1 -140 -151q0 -76 35 -112t90 -36q84 0 119 60v176q-36 63 -104 63zM680 981h428v-981h-428v63q-98 -98 -263.5 -98t-283 119.5t-117.5 405.5q0 398 262 498q72 28 156 28q158 0 246 -103v68zM514 1128h-309q-25 446 215 447q86 0 152 -40q22 -13 68 -46
t73 -33q49 0 49 113h309q23 -446 -223 -447q-84 0 -148 40q-20 12 -67 45.5t-72 33.5q-47 0 -47 -113z" />
    <glyph glyph-name="g.ss01" horiz-adv-x="1155" 
d="M561 346q84 0 119 60v176q-36 63 -104 63q-140 0 -140 -149.5t125 -149.5zM680 981h428v-885q0 -156 -39 -274.5t-98.5 -187t-144.5 -110.5q-144 -71 -328 -71q-295 0 -467 152l170 329q111 -121 262 -120q217 0 217 204v45q-98 -98 -267 -98t-283 124t-114 399
t119 401.5t288 126.5t257 -103v68z" />
    <glyph glyph-name="gbreve.ss01" horiz-adv-x="1155" 
d="M561 346q84 0 119 60v176q-36 63 -104 63q-140 0 -140 -149.5t125 -149.5zM680 981h428v-885q0 -156 -39 -274.5t-98.5 -187t-144.5 -110.5q-144 -71 -328 -71q-295 0 -467 152l170 329q111 -121 262 -120q217 0 217 204v45q-98 -98 -267 -98t-283 124t-114 399
t119 401.5t288 126.5t257 -103v68zM643 1128q-432 0 -410 467h330q0 -98 16.5 -146t64.5 -48t62.5 47t14.5 147h330q24 -467 -408 -467z" />
    <glyph glyph-name="gcommaaccent.ss01" horiz-adv-x="1155" 
d="M576 645q-140 1 -140 -151q0 -76 35 -112t90 -36q84 0 119 60v176q-36 63 -104 63zM680 981h428v-885q0 -156 -39 -274.5t-98.5 -187t-144.5 -110.5q-144 -71 -328 -71q-295 0 -467 152l170 329q111 -121 262 -120q217 0 217 204v45q-98 -98 -263.5 -98t-283 119.5
t-117.5 405.5q0 398 262 498q72 28 156 28q158 0 246 -103v68zM628 1135q-86 -1 -140 33q-110 67 -109.5 222.5t86.5 275.5t237 163l136 -197q-135 -57 -185 -123h6q68 0 122.5 -43t54.5 -135t-61.5 -144t-146.5 -52z" />
    <glyph glyph-name="gdotaccent.ss01" horiz-adv-x="1155" 
d="M561 346q84 0 119 60v176q-36 63 -104 63q-140 0 -140 -149.5t125 -149.5zM680 981h428v-885q0 -156 -39 -274.5t-98.5 -187t-144.5 -110.5q-144 -71 -328 -71q-295 0 -467 152l170 329q111 -121 262 -120q217 0 217 204v45q-98 -98 -267 -98t-283 124t-114 399
t119 401.5t288 126.5t257 -103v68zM488.5 1213.5q-64.5 64.5 -64.5 154.5q0 92 64.5 156.5t155.5 64.5t154.5 -64.5t63.5 -155t-63 -155.5t-154.5 -65t-156 64.5z" />
    <glyph glyph-name="w.ss01" horiz-adv-x="1519" 
d="M1104 981h409l-282 -981h-422l-82 258l-111 -258h-401l-207 981h420l53 -590l90 346l-77 244h540l-88 -207l66 -332z" />
    <glyph glyph-name="wacute.ss01" horiz-adv-x="1519" 
d="M1104 981h409l-282 -981h-422l-82 258l-111 -258h-401l-207 981h420l53 -590l90 346l-77 244h540l-88 -207l66 -332zM1165 1595l-286 -467h-289l160 467h415z" />
    <glyph glyph-name="wcircumflex.ss01" horiz-adv-x="1519" 
d="M1104 981h409l-282 -981h-422l-82 258l-111 -258h-401l-207 981h420l53 -590l90 346l-77 244h540l-88 -207l66 -332zM760 1300l-121 -172h-287l242 467h332l241 -467h-286z" />
    <glyph glyph-name="wdieresis.ss01" horiz-adv-x="1519" 
d="M1104 981h409l-282 -981h-422l-82 258l-111 -258h-401l-207 981h420l53 -590l90 346l-77 244h540l-88 -207l66 -332zM998 1149q-91 0 -155.5 64.5t-64.5 154.5t64.5 155.5t155.5 65.5t155 -64.5t64 -155.5t-64 -155.5t-155 -64.5zM523 1149q-91 0 -155.5 64.5
t-64.5 154.5t64.5 155.5t155.5 65.5t154.5 -64.5t63.5 -155.5t-63.5 -155.5t-154.5 -64.5z" />
    <glyph glyph-name="wgrave.ss01" horiz-adv-x="1519" 
d="M1104 981h409l-282 -981h-422l-82 258l-111 -258h-401l-207 981h420l53 -590l90 346l-77 244h540l-88 -207l66 -332zM920 1128h-289l-287 467h416z" />
    <glyph glyph-name="y.ss01" horiz-adv-x="1140" 
d="M266 -539q-152 0 -262 76l94 367q72 -53 119 -54q84 0 127 97l16 37l-358 997h455l112 -449l121 449h445l-414 -1143q-135 -377 -455 -377z" />
    <glyph glyph-name="yacute.ss01" horiz-adv-x="1140" 
d="M266 -539q-152 0 -262 76l94 367q72 -53 119 -54q84 0 127 97l16 37l-358 997h455l112 -449l121 449h445l-414 -1143q-135 -377 -455 -377zM977 1595l-287 -467h-289l160 467h416z" />
    <glyph glyph-name="ycircumflex.ss01" horiz-adv-x="1140" 
d="M266 -539q-152 0 -262 76l94 367q72 -53 119 -54q84 0 127 97l16 37l-358 997h455l112 -449l121 449h445l-414 -1143q-135 -377 -455 -377zM571 1300l-120 -172h-287l242 467h331l242 -467h-287z" />
    <glyph glyph-name="ydieresis.ss01" horiz-adv-x="1140" 
d="M266 -539q-152 0 -262 76l94 367q72 -53 119 -54q84 0 127 97l16 37l-358 997h455l112 -449l121 449h445l-414 -1143q-135 -377 -455 -377zM810 1149q-91 0 -155.5 64.5t-64.5 154.5t64.5 155.5t155.5 65.5t154.5 -64.5t63.5 -155.5t-63.5 -155.5t-154.5 -64.5zM335 1149
q-91 0 -155.5 64.5t-64.5 154.5t64.5 155.5t155.5 65.5t154.5 -64.5t63.5 -155.5t-63.5 -155.5t-154.5 -64.5z" />
    <glyph glyph-name="a.sc" horiz-adv-x="1241" 
d="M516 406h158l-86 301zM791 0l-33 117h-309l-27 -117h-412l332 1061h512l377 -1061h-440z" />
    <glyph glyph-name="aacute.sc" horiz-adv-x="1241" 
d="M516 406h158l-86 301zM791 0l-33 117h-309l-27 -117h-412l332 1061h512l377 -1061h-440zM1014 1665l-287 -467h-289l160 467h416z" />
    <glyph glyph-name="abreve.sc" horiz-adv-x="1241" 
d="M516 406h158l-86 301zM791 0l-33 117h-309l-27 -117h-412l332 1061h512l377 -1061h-440zM609 1198q-433 0 -408 467h329q0 -98 15.5 -146.5t63.5 -48.5t63.5 48.5t15.5 146.5h330q24 -467 -409 -467z" />
    <glyph glyph-name="uni01CE.sc" horiz-adv-x="1241" 
d="M516 406h158l-86 301zM791 0l-33 117h-309l-27 -117h-412l332 1061h512l377 -1061h-440zM776 1198h-334l-241 467h288l119 -172l121 172h289z" />
    <glyph glyph-name="acircumflex.sc" horiz-adv-x="1241" 
d="M516 406h158l-86 301zM791 0l-33 117h-309l-27 -117h-412l332 1061h512l377 -1061h-440zM608 1372l-119 -174h-288l241 467h334l242 -467h-289z" />
    <glyph glyph-name="adieresis.sc" horiz-adv-x="1241" 
d="M516 406h158l-86 301zM791 0l-33 117h-309l-27 -117h-412l332 1061h512l377 -1061h-440zM846 1219q-57 0 -107.5 29.5t-81 79.5t-30.5 102q0 98 65.5 163.5t155.5 65.5t153.5 -64.5t63.5 -155.5t-63.5 -155.5t-155.5 -64.5zM371 1219q-57 0 -107.5 29.5t-81 79.5
t-30.5 102q0 99 66 164t140 65t124 -30t79 -81t29 -125.5t-63.5 -139t-155.5 -64.5z" />
    <glyph glyph-name="agrave.sc" horiz-adv-x="1241" 
d="M516 406h158l-86 301zM791 0l-33 117h-309l-27 -117h-412l332 1061h512l377 -1061h-440zM768 1198h-289l-286 467h415z" />
    <glyph glyph-name="amacron.sc" horiz-adv-x="1241" 
d="M516 406h158l-86 301zM791 0l-33 117h-309l-27 -117h-412l332 1061h512l377 -1061h-440zM979 1602v-355h-741v355h741z" />
    <glyph glyph-name="aogonek.sc" horiz-adv-x="1241" 
d="M516 406h158l-86 301zM918.5 -584q-162.5 0 -233.5 71t-71 183q0 199 201 330h-24l-33 117h-309l-27 -117h-412l332 1061h512l377 -1061h-57q-94 -57 -145.5 -107.5t-51.5 -112t63 -61.5q55 0 131 45l62 -272q-152 -76 -314.5 -76z" />
    <glyph glyph-name="aring.sc" horiz-adv-x="1241" 
d="M516 406h158l-86 301zM791 0l-33 117h-309l-27 -117h-412l332 1061h512l377 -1061h-440zM598 1395q107 0 107 99q0 48 -26 76.5t-70 28.5t-70.5 -28.5t-26.5 -75.5t26.5 -73.5t59.5 -26.5zM608.5 1186q-153.5 0 -241.5 86t-88 224t88 224t241.5 86t241.5 -89t88 -222
t-88 -221t-241.5 -88z" />
    <glyph glyph-name="atilde.sc" horiz-adv-x="1241" 
d="M516 406h158l-86 301zM791 0l-33 117h-309l-27 -117h-412l332 1061h512l377 -1061h-440zM485 1198h-309q-23 446 217 447q96 1 167 -49q15 -10 57 -40t67 -30q49 0 49 112h309q23 -446 -223 -446q-81 0 -147 39q-20 12 -67.5 46t-72.5 34q-47 0 -47 -113z" />
    <glyph glyph-name="ae.sc" horiz-adv-x="1417" 
d="M692 426l-6 274h-35l-69 -274h110zM1364 700h-266l2 -75h184v-205h-180l2 -58h258v-362h-662l-4 137h-190l-35 -137h-416l361 1061h946v-361z" />
    <glyph glyph-name="b.sc" horiz-adv-x="1114" 
d="M592 367q59 0 59 51q0 41 -59 41h-84v-92h84zM563 600q64 0 64 51q0 45 -64 45h-55v-96h55zM649 1061q365 0 365 -255q0 -92 -44 -156t-124 -93q102 -6 160 -65t59 -173q0 -145 -113 -232t-348 -87h-514v1061h559z" />
    <glyph glyph-name="c.sc" horiz-adv-x="1079" 
d="M625 -27q-270 0 -419 145.5t-149 418t162 413t413 140.5t419 -115l-224 -352q-78 51 -165.5 51t-123.5 -58q-20 -30 -21 -69q-2 -71 39.5 -114.5t107.5 -43.5q117 0 196 64l172 -365q-59 -49 -176.5 -82t-230.5 -33z" />
    <glyph glyph-name="cacute.sc" horiz-adv-x="1079" 
d="M625 -27q-270 0 -419 145.5t-149 418t162 413t413 140.5t419 -115l-224 -352q-78 51 -165.5 51t-123.5 -58q-20 -30 -21 -69q-2 -71 39.5 -114.5t107.5 -43.5q117 0 196 64l172 -365q-59 -49 -176.5 -82t-230.5 -33zM1036 1675l-286 -467h-289l160 467h415z" />
    <glyph glyph-name="ccaron.sc" horiz-adv-x="1079" 
d="M664 389q117 0 196 64l172 -365q-59 -49 -177 -82q-117 -33 -241 -33q-259 0 -408 145.5t-149 418t162 413t413 140.5t419 -115l-224 -352q-78 51 -165.5 51t-123.5 -58q-20 -30 -21 -69q-2 -71 39.5 -114.5t107.5 -43.5zM799 1208h-334l-242 467h289l119 -174l121 174
h288z" />
    <glyph glyph-name="ccedilla.sc" horiz-adv-x="1079" 
d="M762 -135q96 0 150.5 -56.5t54.5 -158.5t-42 -168q-82 -129 -307 -129q-158 0 -276 74l94 213q96 -57 170 -57.5t74 48.5q0 41 -35 41q-29 0 -47 -30l-184 59l94 279q-215 31 -333 174t-118 399t162 396.5t413 140.5t419 -115l-224 -352q-78 51 -165 51q-142 0 -145 -144
q-1 -56 41 -98.5t106 -42.5q117 0 196 64l172 -365q-90 -74 -276 -104l-58 -127q31 8 64 8z" />
    <glyph glyph-name="cdotaccent.sc" horiz-adv-x="1079" 
d="M625 -27q-270 0 -419 145.5t-149 418t162 413t413 140.5t419 -115l-224 -352q-78 51 -165 51q-142 0 -145 -144q-1 -56 41 -98.5t106 -42.5q117 0 196 64l172 -365q-59 -49 -176.5 -82t-230.5 -33zM477 1605.5q65 63.5 140 63.5t125.5 -29.5t79 -81t28.5 -127t-63.5 -139
t-153.5 -63.5t-155.5 62t-65.5 156.5t65 158z" />
    <glyph glyph-name="d.sc" horiz-adv-x="1189" 
d="M555 666h-27v-271h27q139 1 141 142q2 129 -141 129zM557 1061q606 0 606 -520q0 -274 -156.5 -407.5t-449.5 -133.5h-467v1061h467z" />
    <glyph glyph-name="eth.sc" horiz-adv-x="1189" 
d="M555 666h-27v-58h70v-145h-70v-68h27q139 1 141 142q2 129 -141 129zM557 1061q606 0 606 -520q0 -274 -156.5 -407.5t-449.5 -133.5h-467v463h-61v145h61v453h467z" />
    <glyph glyph-name="dcaron.sc" horiz-adv-x="1189" 
d="M555 666h-27v-271h27q139 1 141 142q2 129 -141 129zM557 1061q606 0 606 -520q0 -274 -156.5 -407.5t-449.5 -133.5h-467v1061h467zM743 1208h-333l-242 467h289l121 -174l118 174h289z" />
    <glyph glyph-name="dcroat.sc" horiz-adv-x="1189" 
d="M555 666h-27v-58h70v-145h-70v-68h27q139 1 141 142q2 129 -141 129zM557 1061q606 0 606 -520q0 -274 -156.5 -407.5t-449.5 -133.5h-467v463h-61v145h61v453h467z" />
    <glyph glyph-name="e.sc" horiz-adv-x="976" 
d="M924 688h-389v-55h268v-201h-268v-57h389v-375h-830v1061h830v-373z" />
    <glyph glyph-name="eacute.sc" horiz-adv-x="976" 
d="M94 0v1061h830v-373h-389v-55h268v-201h-268v-57h389v-375h-830zM924 1675l-287 -467h-289l160 467h416z" />
    <glyph glyph-name="ecaron.sc" horiz-adv-x="976" 
d="M94 0v1061h830v-373h-389v-55h268v-201h-268v-57h389v-375h-830zM686 1208h-334l-241 467h288l119 -174l121 174h289z" />
    <glyph glyph-name="ecircumflex.sc" horiz-adv-x="976" 
d="M94 0v1061h830v-373h-389v-55h268v-201h-268v-57h389v-375h-830zM518 1380l-119 -172h-288l241 467h334l242 -467h-289z" />
    <glyph glyph-name="edieresis.sc" horiz-adv-x="976" 
d="M94 0v1061h830v-373h-389v-55h268v-201h-268v-57h389v-375h-830zM758.5 1669q89.5 0 153 -65.5t63.5 -156.5t-63.5 -154.5t-152.5 -63.5t-155.5 63t-66.5 155.5t66 157t155.5 64.5zM128 1292.5q-67 63.5 -67 154.5t66 157q66 65 156 65t153.5 -65.5t63.5 -156.5
t-63.5 -154.5t-152.5 -63.5t-156 63.5z" />
    <glyph glyph-name="edotaccent.sc" horiz-adv-x="976" 
d="M924 688h-389v-55h268v-201h-268v-57h389v-375h-830v1061h830v-373zM504.5 1669q74.5 0 125 -29.5t79 -81t28.5 -127t-63.5 -139t-153 -63.5t-155.5 64t-66 154.5t65.5 156t140 65.5z" />
    <glyph glyph-name="egrave.sc" horiz-adv-x="976" 
d="M924 688h-389v-55h268v-201h-268v-57h389v-375h-830v1061h830v-373zM678 1208h-289l-287 467h416z" />
    <glyph glyph-name="emacron.sc" horiz-adv-x="976" 
d="M924 688h-389v-55h268v-201h-268v-57h389v-375h-830v1061h830v-373zM889 1612v-355h-742v355h742z" />
    <glyph glyph-name="eogonek.sc" horiz-adv-x="976" 
d="M668.5 -584q-162.5 0 -233 71t-70.5 183q0 199 200 330h-471v1061h830v-373h-389v-55h268v-201h-268v-57h389v-375q-96 -57 -146.5 -107.5t-50.5 -112t64 -61.5q55 0 131 45l61 -272q-152 -76 -314.5 -76z" />
    <glyph glyph-name="f.sc" horiz-adv-x="942" 
d="M920 690h-385v-94h264v-324h-264v-272h-441v1061h826v-371z" />
    <glyph glyph-name="g.sc" horiz-adv-x="1173" 
d="M672 672q-174 0 -174 -144q0 -131 157 -131h11v191h424v-545q-227 -70 -453 -70q-281 0 -436.5 142.5t-155.5 413.5t160 419t434 148t414 -105l-189 -362q-72 43 -192 43z" />
    <glyph glyph-name="gbreve.sc" horiz-adv-x="1173" 
d="M672 672q-174 0 -174 -144q0 -131 157 -131h11v191h424v-545q-227 -70 -453 -70q-281 0 -436.5 142.5t-155.5 413.5t160 419t434 148t414 -105l-189 -362q-72 43 -192 43zM635 1208q-432 0 -410 467h330q0 -127 23.5 -160.5t64.5 -33.5t55.5 47t14.5 147h329
q25 -467 -407 -467z" />
    <glyph glyph-name="gcommaaccent.sc" horiz-adv-x="1173" 
d="M673.5 -88q101.5 0 169.5 -78t68 -203q0 -291 -323 -434l-135 197q127 57 168 104q-72 12 -119 65.5t-47 142.5t58.5 147.5t160 58.5zM672 672q-174 0 -174 -144q0 -131 157 -131h11v191h424v-545q-227 -70 -453 -70q-281 0 -436.5 142.5t-155.5 413.5t160 419t434 148
t414 -105l-189 -362q-72 43 -192 43z" />
    <glyph glyph-name="gdotaccent.sc" horiz-adv-x="1173" 
d="M672 672q-174 0 -174 -144q0 -131 157 -131h11v191h424v-545q-227 -70 -453 -70q-281 0 -436.5 142.5t-155.5 413.5t160 419t434 148t414 -105l-189 -362q-72 43 -192 43zM480.5 1604.5q64.5 64.5 155.5 64.5t154.5 -65.5t63.5 -155t-63 -154.5t-154 -65t-156 63
t-65 155.5t64.5 157z" />
    <glyph glyph-name="h.sc" horiz-adv-x="1216" 
d="M684 1061h438v-1061h-438v344h-152v-344h-438v1061h438v-334h152v334z" />
    <glyph glyph-name="hbar.sc" horiz-adv-x="1177" 
d="M645 549v113h-113v-113h113zM1120 967v-305h-39v-662h-436v205h-113v-205h-438v662h-37v305h37v94h438v-94h113v94h436v-94h39z" />
    <glyph glyph-name="i.sc" horiz-adv-x="626" 
d="M532 1061v-1061h-438v1061h438z" />
    <glyph glyph-name="iacute.sc" horiz-adv-x="626" 
d="M532 1061v-1061h-438v1061h438zM719 1675l-287 -467h-289l160 467h416z" />
    <glyph glyph-name="uni01D0.sc" horiz-adv-x="626" 
d="M94 0v1061h438v-1061h-438zM481 1208h-334l-241 467h289l118 -174l121 174h289z" />
    <glyph glyph-name="icircumflex.sc" horiz-adv-x="626" 
d="M94 0v1061h438v-1061h-438zM313 1380l-118 -172h-289l241 467h334l242 -467h-289z" />
    <glyph glyph-name="idieresis.sc" horiz-adv-x="626" 
d="M532 1061v-1061h-438v1061h438zM396 1603q64 66 140 66t126.5 -29.5t79 -81t28.5 -103.5q0 -99 -63.5 -162.5t-154.5 -63.5t-155.5 64.5t-64.5 154t64 155.5zM-79 1603q64 66 155.5 66t155 -65.5t63.5 -156.5t-63.5 -154.5t-154.5 -63.5t-155.5 64.5t-64.5 154t64 155.5z
" />
    <glyph glyph-name="i.sc.loclTRK" horiz-adv-x="626" 
d="M532 1061v-1061h-438v1061h438zM158 1603q64 66 155.5 66t155 -65.5t63.5 -156.5t-63 -154.5t-154.5 -63.5t-156 64.5t-64.5 154t64 155.5z" />
    <glyph glyph-name="igrave.sc" horiz-adv-x="626" 
d="M532 1061v-1061h-438v1061h438zM473 1208h-289l-286 467h415z" />
    <glyph glyph-name="imacron.sc" horiz-adv-x="626" 
d="M532 1061v-1061h-438v1061h438zM-57 1612h741v-355h-741v355z" />
    <glyph glyph-name="iogonek.sc" horiz-adv-x="626" 
d="M277.5 -584q-162.5 0 -233.5 71t-71 183q0 199 201 330h-80v1061h438v-1061q-61 -37 -100 -65.5t-67.5 -69.5t-28.5 -84q0 -61 59 -61.5t135 44.5l62 -272q-152 -76 -314.5 -76z" />
    <glyph glyph-name="j.sc" horiz-adv-x="833" 
d="M227 365q96 0 97 114v582h438v-598q0 -339 -198 -437q-106 -53 -282.5 -53t-293.5 64l100 387q68 -59 139 -59z" />
    <glyph glyph-name="k.sc" horiz-adv-x="1148" 
d="M528 0h-438v1061h438v-248l142 248h479l-262 -367l262 -694h-512l-70 248l-39 -55v-193z" />
    <glyph glyph-name="kcommaaccent.sc" horiz-adv-x="1148" 
d="M552 -88q84 0 140 -35q118 -73 117 -246q0 -291 -324 -434l-135 197q127 57 170 104q-72 12 -120 65.5t-48 142.5t58.5 147.5t141.5 58.5zM528 0h-438v1061h438v-248l142 248h479l-262 -367l262 -694h-512l-70 248l-39 -55v-193z" />
    <glyph glyph-name="l.sc" horiz-adv-x="874" 
d="M535 375h319v-375h-760v1061h441v-686z" />
    <glyph glyph-name="lacute.sc" horiz-adv-x="874" 
d="M535 1061v-686h319v-375h-760v1061h441zM903 1675l-287 -467h-288l159 467h416z" />
    <glyph glyph-name="lcaron.sc" horiz-adv-x="874" 
d="M535 1061v-686h319v-375h-760v1061h441zM666 1208h-334l-242 467h289l119 -174l120 174h289z" />
    <glyph glyph-name="lcommaaccent.sc" horiz-adv-x="874" 
d="M516.5 -88q100.5 0 169 -78t68.5 -203q0 -291 -324 -434l-135 197q127 57 170 104q-72 12 -120 65.5t-48 142.5t59.5 147.5t160 58.5zM535 375h319v-375h-760v1061h441v-686z" />
    <glyph glyph-name="lslash.sc" horiz-adv-x="974" 
d="M612 375h320v-375h-760v393l-57 -22l-115 313l172 57v320h440v-164l123 39l111 -311l-234 -76v-174z" />
    <glyph glyph-name="m.sc" horiz-adv-x="1437" 
d="M928 0v186q0 127 10 256q-49 -166 -92 -278l-23 -60h-223l-16 41q-55 152 -105 295q12 -147 13 -247v-193h-398v1061h479l160 -369l131 369h455l24 -1061h-415z" />
    <glyph glyph-name="n.sc" horiz-adv-x="1163" 
d="M680 1061h389v-1061h-393l-195 305v-305h-387v1061h389l197 -318v318z" />
    <glyph glyph-name="nacute.sc" horiz-adv-x="1163" 
d="M680 1061h389v-1061h-393l-195 305v-305h-387v1061h389l197 -318v318zM987 1675l-287 -467h-288l159 467h416z" />
    <glyph glyph-name="ncaron.sc" horiz-adv-x="1163" 
d="M680 1061h389v-1061h-393l-195 305v-305h-387v1061h389l197 -318v318zM750 1208h-334l-242 467h289l121 -174l118 174h289z" />
    <glyph glyph-name="ncommaaccent.sc" horiz-adv-x="1163" 
d="M570 -88q82 0 138 -35q117 -73 117 -246q0 -291 -323 -434l-135 197q127 57 170 104q-72 12 -120 65.5t-48 142.5t59.5 147.5t141.5 58.5zM680 1061h389v-1061h-393l-195 305v-305h-387v1061h389l197 -318v318z" />
    <glyph glyph-name="eng.sc" horiz-adv-x="1148" 
d="M666 1061h403v-1022q1 -217 -107 -338t-311 -121q-131 0 -207 39l76 358q37 -20 86 -20t60 39l-168 287v-283h-404v1061h406l166 -293v293z" />
    <glyph glyph-name="ntilde.sc" horiz-adv-x="1163" 
d="M680 1061h389v-1061h-393l-195 305v-305h-387v1061h389l197 -318v318zM459 1208h-309q-23 446 217 447q106 0 206 -78q59 -41 84 -41q49 0 50 113h309q23 -446 -223 -447q-81 0 -147 39q-20 12 -67.5 46t-72.5 34q-47 0 -47 -113z" />
    <glyph glyph-name="o.sc" horiz-adv-x="1296" 
d="M648.5 389q66.5 0 102 38t35.5 101.5t-35.5 104.5t-91 41t-87.5 -20q-64 -38 -64 -113.5t37 -113.5t103.5 -38zM647 -35q-285 0 -443.5 147.5t-158.5 416t163 418t439 149.5q377 0 527 -260q74 -129 74.5 -306.5t-71 -304.5t-207 -193.5t-323.5 -66.5z" />
    <glyph glyph-name="oacute.sc" horiz-adv-x="1296" 
d="M648.5 389q66.5 0 102 38t35.5 101.5t-35.5 104.5t-91 41t-87.5 -20q-64 -38 -64 -113.5t37 -113.5t103.5 -38zM647 -35q-285 0 -443.5 147.5t-158.5 416t163 418t439 149.5q377 0 527 -260q74 -129 74.5 -306.5t-71 -304.5t-207 -193.5t-323.5 -66.5zM1053 1675
l-287 -467h-289l160 467h416z" />
    <glyph glyph-name="uni01D2.sc" horiz-adv-x="1296" 
d="M648.5 389q66.5 0 102 38t35.5 101.5t-35.5 104.5t-91 41t-87.5 -20q-64 -38 -64 -113.5t37 -113.5t103.5 -38zM647 1096q377 0 527 -260q74 -128 74 -306q2 -178 -70 -305q-146 -260 -531 -260q-285 0 -443.5 147.5t-158.5 416t163 418t439 149.5zM815 1208h-334
l-241 467h288l119 -174l121 174h289z" />
    <glyph glyph-name="ocircumflex.sc" horiz-adv-x="1296" 
d="M648.5 389q66.5 0 102 38t35.5 101.5t-35.5 104.5t-91 41t-87.5 -20q-64 -38 -64 -113.5t37 -113.5t103.5 -38zM647 1096q377 0 527 -260q74 -128 74 -306q2 -178 -70 -305q-146 -260 -531 -260q-285 0 -443.5 147.5t-158.5 416t163 418t439 149.5zM647 1380l-119 -172
h-288l241 467h334l242 -467h-289z" />
    <glyph glyph-name="odieresis.sc" horiz-adv-x="1296" 
d="M648.5 389q66.5 0 102 38t35.5 101.5t-35.5 104.5t-91 41t-87.5 -20q-64 -38 -64 -113.5t37 -113.5t103.5 -38zM647 -35q-285 0 -443.5 147.5t-158.5 416t163 418t439 149.5q377 0 527 -260q74 -129 74.5 -306.5t-71 -304.5t-207 -193.5t-323.5 -66.5zM730 1603.5
q64 65.5 155.5 65.5t155 -65.5t63.5 -156.5t-63.5 -154.5t-154 -63.5t-155.5 63.5t-65 154.5t64 156.5zM254.5 1603q64.5 66 140.5 66t126 -29.5t79 -81t29 -127t-63.5 -139t-154 -63.5t-156 64t-65.5 154t64.5 156z" />
    <glyph glyph-name="ograve.sc" horiz-adv-x="1296" 
d="M648.5 389q66.5 0 102 38t35.5 101.5t-35.5 104.5t-91 41t-87.5 -20q-64 -38 -64 -113.5t37 -113.5t103.5 -38zM647 -35q-285 0 -443.5 147.5t-158.5 416t163 418t439 149.5q377 0 527 -260q74 -129 74.5 -306.5t-71 -304.5t-207 -193.5t-323.5 -66.5zM807 1208h-289
l-287 467h416z" />
    <glyph glyph-name="ohungarumlaut.sc" horiz-adv-x="1296" 
d="M648.5 389q66.5 0 102 38t35.5 101.5t-35.5 104.5t-91 41t-87.5 -20q-64 -38 -64 -113.5t37 -113.5t103.5 -38zM647 -35q-285 0 -443.5 147.5t-158.5 416t163 418t439 149.5q377 0 527 -260q74 -129 74.5 -306.5t-71 -304.5t-207 -193.5t-323.5 -66.5zM1331 1675
l-354 -467h-289l227 467h416zM801 1675l-217 -467h-256l73 467h400z" />
    <glyph glyph-name="omacron.sc" horiz-adv-x="1296" 
d="M648.5 389q66.5 0 102 38t35.5 101.5t-35.5 104.5t-91 41t-87.5 -20q-64 -38 -64 -113.5t37 -113.5t103.5 -38zM647 -35q-285 0 -443.5 147.5t-158.5 416t163 418t439 149.5q377 0 527 -260q74 -129 74.5 -306.5t-71 -304.5t-207 -193.5t-323.5 -66.5zM276 1612h742v-355
h-742v355z" />
    <glyph glyph-name="oslash.sc" horiz-adv-x="1329" 
d="M508 528q0 -139 152 -139q56 0 91 38q36 38 35 101q0 63 -35 105q-35 41 -91 41t-89 -20q-63 -38 -63 -126zM1249 520q1 -168 -71 -295q-146 -260 -531 -260q-117 0 -215 25l-67 -74l-336 217l86 94q-70 125 -70 301q0 268 163 418t439 150q131 0 238 -35l82 88l333 -217
l-112 -123q61 -121 61 -289z" />
    <glyph glyph-name="otilde.sc" horiz-adv-x="1296" 
d="M659.5 389q55.5 0 91 38t35.5 101.5t-35.5 104.5t-91 41t-88 -19.5t-48 -52.5t-15.5 -74t15.5 -72.5t48 -49t88 -17.5zM647 -35q-285 0 -443.5 147.5t-158.5 416t163 418t439.5 149.5t439 -149.5t162.5 -418.5q0 -176 -71.5 -303t-207 -193.5t-323.5 -66.5zM571 1321
q-47 0 -47 -113h-309q-23 446 217 447q104 0 207 -78q59 -41 84 -41q49 0 49 113h309q23 -446 -223 -447q-82 0 -148 39q-20 12 -67 46t-72 34z" />
    <glyph glyph-name="oe.sc" horiz-adv-x="1644" 
d="M508 528q0 -61 37 -96t106.5 -35t118.5 27v217q-51 25 -120 25t-105.5 -38.5t-36.5 -99.5zM1591 688h-397v-45h274v-223h-274v-45h397v-375h-772q-102 -27 -215 -27q-254 0 -406.5 137.5t-152.5 415.5q0 186 77 318q148 252 482 252q109 0 219 -35h768v-373z" />
    <glyph glyph-name="p.sc" horiz-adv-x="1067" 
d="M532 514q74 0 74 88t-74 88v-176zM532 1061q259 0 387 -95t128 -330q0 -234 -117 -340t-328 -106h-70v-190h-438v1061h438z" />
    <glyph glyph-name="thorn.sc" horiz-adv-x="1054" 
d="M561 596h-29v-90h31q49 0 51 49q0 41 -53 41zM575 952q446 0 447 -393q0 -395 -442 -395h-48v-164h-438v1061h438v-109h43z" />
    <glyph glyph-name="q.sc" horiz-adv-x="1327" 
d="M1141 -395h-672v325h672v-325zM648.5 389q66.5 0 102 38t35.5 101.5t-35.5 104.5t-91 41t-87.5 -20q-64 -38 -64 -113.5t37 -113.5t103.5 -38zM647 -35q-285 0 -443.5 147.5t-158.5 416t163 418t439 149.5q377 0 527 -260q74 -129 74.5 -306.5t-71 -304.5t-207 -193.5
t-323.5 -66.5z" />
    <glyph glyph-name="r.sc" horiz-adv-x="1122" 
d="M547 690h-25v-141h25q82 0 80 76q0 35 -18.5 50t-61.5 15zM522 0h-428v1061h492q240 0 358.5 -86t118.5 -270.5t-131 -278.5l194 -426h-497l-107 303v-303z" />
    <glyph glyph-name="racute.sc" horiz-adv-x="1122" 
d="M547 690h-25v-141h25q82 0 80 76q0 35 -18.5 50t-61.5 15zM522 0h-428v1061h492q240 0 358.5 -86t118.5 -270.5t-131 -278.5l194 -426h-497l-107 303v-303zM971 1675l-287 -467h-289l160 467h416z" />
    <glyph glyph-name="rcaron.sc" horiz-adv-x="1122" 
d="M547 690h-25v-141h25q82 0 80 76q0 35 -18.5 50t-61.5 15zM522 0h-428v1061h492q240 0 358.5 -86t118.5 -270.5t-131 -278.5l194 -426h-497l-107 303v-303zM731 1208h-334l-241 467h288l121 -174l119 174h289z" />
    <glyph glyph-name="rcommaaccent.sc" horiz-adv-x="1122" 
d="M551 -88q82 0 138 -35t87 -99.5t31 -146.5q0 -291 -324 -434l-135 197q127 57 170 104q-72 12 -120 65.5t-48 142.5t59.5 147.5t141.5 58.5zM547 690h-25v-141h25q82 0 80 76q0 35 -18.5 50t-61.5 15zM522 0h-428v1061h492q240 0 358.5 -86t118.5 -270.5t-131 -278.5
l194 -426h-497l-107 303v-303z" />
    <glyph glyph-name="s.sc" horiz-adv-x="894" 
d="M449 -35q-260 0 -429 94l130 379q109 -88 229 -88q41 0 41 21q0 14 -18.5 21t-45.5 14q-313 72 -313 339q0 158 110.5 254.5t342 96.5t389.5 -82l-170 -355q-94 59 -191 60q-37 0 -37 -17.5t54 -31.5q162 -49 242.5 -129t80.5 -222q0 -182 -111 -268t-304 -86z" />
    <glyph glyph-name="sacute.sc" horiz-adv-x="894" 
d="M449 -35q-260 0 -429 94l130 379q109 -88 229 -88q41 0 41 21q0 12 -12.5 19t-51.5 16q-313 72 -313 339q0 158 110.5 254.5t342.5 96.5t389 -82l-170 -355q-94 59 -191 60q-37 1 -37 -17t54 -32q162 -49 242.5 -129t80.5 -222q0 -182 -111 -268t-304 -86zM854 1675
l-287 -467h-288l159 467h416z" />
    <glyph glyph-name="scaron.sc" horiz-adv-x="894" 
d="M864 319q0 -182 -111.5 -268t-303.5 -86q-260 0 -429 94l130 379q109 -88 229 -88q41 0 41 21q0 14 -18.5 21t-45.5 14q-313 72 -313 339q0 158 110.5 254.5t342 96.5t389.5 -82l-170 -355q-94 59 -191 60q-37 0 -37 -19q1 -16 54 -30q162 -49 242.5 -129t80.5 -222z
M616 1208h-333l-242 467h289l119 -174l120 174h289z" />
    <glyph glyph-name="scedilla.sc" horiz-adv-x="894" 
d="M864 311q0 -150 -86 -236.5t-239 -105.5l-33 -71q31 8 65 8q96 0 150.5 -56.5t54.5 -164.5q0 -145 -91 -218t-254 -73t-279 74l94 213q96 -57 170 -57.5t73 48.5q0 41 -31.5 41t-49.5 -30l-185 59l78 229q-156 18 -281 88l130 379q109 -88 229 -88q41 0 41 21
q0 14 -18.5 21t-45.5 14q-313 72 -313 339q0 158 110.5 254.5t342 96.5t389.5 -82l-170 -355q-94 59 -191 60q-37 0 -37 -19q1 -16 54 -30q162 -49 242.5 -129t80.5 -230z" />
    <glyph glyph-name="scommaaccent.sc" horiz-adv-x="894" 
d="M449.5 -88q101.5 0 169 -78t67.5 -203q0 -291 -324 -434l-135 197q129 57 170 104q-72 12 -120 65.5t-48 142.5t59.5 147.5t161 58.5zM864 319q0 -182 -111.5 -268t-303.5 -86q-260 0 -429 94l130 379q109 -88 229 -88q41 0 41 21q0 14 -18.5 21t-45.5 14
q-313 72 -313 339q0 158 110.5 254.5t342 96.5t389.5 -82l-170 -355q-94 59 -191 60q-37 0 -37 -19q1 -16 54 -30q162 -49 242.5 -129t80.5 -222z" />
    <glyph glyph-name="t.sc" horiz-adv-x="1005" 
d="M961 1061v-371h-238v-690h-438v690h-238v371h914z" />
    <glyph glyph-name="tcaron.sc" horiz-adv-x="1005" 
d="M961 1061v-371h-238v-690h-438v690h-238v371h914zM670 1208h-334l-242 467h289l121 -174l119 174h288z" />
    <glyph glyph-name="uni0163.sc" horiz-adv-x="923" 
d="M723 0h-133l-66 -143q31 8 64 8q96 0 150.5 -56.5t54.5 -158.5t-42 -168q-82 -129 -307 -129q-158 0 -276 74l94 213q96 -57 170 -57.5t74 48.5q0 41 -35 41q-27 0 -47 -30l-184 59l106 299h-61v690h-238v371h914v-371h-238v-690z" />
    <glyph glyph-name="uni021B.sc" horiz-adv-x="1005" 
d="M508.5 -88q100.5 0 168.5 -78t68 -203q0 -291 -323 -434l-135 197q127 57 170 104q-72 12 -120 65.5t-48 142.5t59.5 147.5t160 58.5zM47 1061h914v-371h-238v-690h-438v690h-238v371z" />
    <glyph glyph-name="u.sc" horiz-adv-x="1069" 
d="M536.5 -35q-239.5 0 -368.5 124t-129 355v617h438v-584q0 -51 12.5 -73.5t41.5 -22.5t45 15t16 81v584h438v-617q0 -236 -127 -357.5t-366.5 -121.5z" />
    <glyph glyph-name="uacute.sc" horiz-adv-x="1069" 
d="M536.5 -35q-239.5 0 -368.5 124t-129 355v617h438v-584q0 -51 12.5 -73.5t41.5 -22.5t45 15t16 81v584h438v-617q0 -236 -127 -357.5t-366.5 -121.5zM940 1675l-287 -467h-288l159 467h416z" />
    <glyph glyph-name="uni01D4.sc" horiz-adv-x="1069" 
d="M592 1061h438v-617q0 -236 -127 -357.5t-366.5 -121.5t-368.5 124t-129 355v617h438v-584q0 -51 12.5 -73.5t41.5 -22.5t45 15t16 81v584zM702 1208h-333l-242 467h289l121 -174l118 174h289z" />
    <glyph glyph-name="ucircumflex.sc" horiz-adv-x="1069" 
d="M592 1061h438v-617q0 -236 -127 -357.5t-366.5 -121.5t-368.5 124t-129 355v617h438v-584q0 -51 12.5 -73.5t41.5 -22.5t45 15t16 81v584zM537 1380l-121 -172h-289l242 467h333l242 -467h-289z" />
    <glyph glyph-name="udieresis.sc" horiz-adv-x="1069" 
d="M536.5 -35q-239.5 0 -368.5 124t-129 355v617h438v-584q0 -51 12.5 -73.5t41.5 -22.5t45 14.5t16 81.5v584h438v-617q0 -236 -127 -357.5t-366.5 -121.5zM619.5 1604.5q64.5 64.5 139 64.5t125 -29.5t80 -81t29.5 -127t-64.5 -139t-154 -63.5t-154.5 63t-65 155.5
t64.5 157zM144.5 1604.5q64.5 64.5 154.5 64.5t154.5 -65.5t64.5 -156.5t-64.5 -154.5t-154 -63.5t-154.5 63t-65 155.5t64.5 157z" />
    <glyph glyph-name="ugrave.sc" horiz-adv-x="1069" 
d="M536.5 -35q-239.5 0 -368.5 124t-129 355v617h438v-584q0 -51 12.5 -73.5t41.5 -22.5t45 15t16 81v584h438v-617q0 -236 -127 -357.5t-366.5 -121.5zM696 1208h-288l-287 467h416z" />
    <glyph glyph-name="uhungarumlaut.sc" horiz-adv-x="1069" 
d="M536.5 -35q-239.5 0 -368.5 124t-129 355v617h438v-584q0 -51 12.5 -73.5t41.5 -22.5t45 15t16 81v584h438v-617q0 -236 -127 -357.5t-366.5 -121.5zM1221 1675l-355 -467h-288l227 467h416zM690 1675l-217 -467h-256l74 467h399z" />
    <glyph glyph-name="umacron.sc" horiz-adv-x="1069" 
d="M536.5 -35q-239.5 0 -368.5 124t-129 355v617h438v-584q0 -51 12.5 -73.5t41.5 -22.5t45 15t16 81v584h438v-617q0 -236 -127 -357.5t-366.5 -121.5zM166 1612h741v-355h-741v355z" />
    <glyph glyph-name="uogonek.sc" horiz-adv-x="1069" 
d="M592 1061h438v-617q0 -319 -229 -428v-2q-94 -55 -145.5 -106t-51.5 -112.5t64 -61.5q55 0 131 45l61 -273q-152 -76 -314.5 -75.5t-233 71t-70.5 183.5q0 172 149 292q-170 35 -261 154t-91 313v617h438v-584q0 -51 12.5 -73.5t41.5 -22.5t45 15t16 81v584z" />
    <glyph glyph-name="uring.sc" horiz-adv-x="1069" 
d="M536.5 -35q-239.5 0 -368.5 124t-129 355v617h438v-584q0 -51 12.5 -73.5t41.5 -22.5t45 14.5t16 81.5v584h438v-617q0 -236 -127 -357.5t-366.5 -121.5zM633 1516q0 36 -26.5 65t-70.5 29t-70 -29t-26 -76t26 -73.5t58.5 -26.5t50 7t30.5 19.5t20.5 30.5t7.5 54z
M207 1505q0 137 87 224.5t241 87.5t242.5 -89.5t88.5 -222.5t-89 -221t-242.5 -88t-240.5 86t-87 223z" />
    <glyph glyph-name="v.sc" horiz-adv-x="1179" 
d="M678 1061h496l-326 -1061h-553l-289 1061h510l43 -412q16 -129 27 -280q14 162 32 278z" />
    <glyph glyph-name="w.sc" horiz-adv-x="1654" 
d="M1174 1061h448l-217 -1061h-500l-28 135q-25 119 -56 273q-31 -158 -57 -273l-31 -135h-500l-200 1061h467l10 -316q2 -57 2 -294q31 178 57 294l70 299h401l56 -280q43 -217 55 -303q4 78 10 295z" />
    <glyph glyph-name="wacute.sc" horiz-adv-x="1654" 
d="M1174 1061h448l-217 -1061h-500l-28 135q-25 119 -56 273q-31 -158 -57 -273l-31 -135h-500l-200 1061h467l10 -316q2 -57 2 -294q31 178 57 294l70 299h401l56 -280q43 -217 55 -303q4 78 10 295zM1233 1675l-287 -467h-289l160 467h416z" />
    <glyph glyph-name="wcircumflex.sc" horiz-adv-x="1654" 
d="M1174 1061h448l-217 -1061h-500l-28 135q-25 119 -56 273q-31 -158 -57 -273l-31 -135h-500l-200 1061h467l10 -316q2 -57 2 -294q31 178 57 294l70 299h401l56 -280q43 -217 55 -303q4 78 10 295zM827 1380l-118 -172h-289l242 467h333l242 -467h-289z" />
    <glyph glyph-name="wdieresis.sc" horiz-adv-x="1654" 
d="M1174 1061h448l-217 -1061h-500l-28 135q-25 119 -56 273q-31 -158 -57 -273l-31 -135h-500l-200 1061h467l10 -316q2 -57 2 -294q31 178 57 294l70 299h401l56 -280q43 -217 55 -303q4 78 10 295zM1066 1669q91 0 154.5 -65.5t63.5 -156.5t-63.5 -154.5t-154 -63.5
t-155.5 63t-65 155.5t64.5 157t155.5 64.5zM575.5 1669q75.5 0 126 -29.5t79 -81t28.5 -127t-63.5 -139t-154 -63.5t-155.5 63t-65 155.5t64.5 157t140 64.5z" />
    <glyph glyph-name="wgrave.sc" horiz-adv-x="1654" 
d="M1174 1061h448l-217 -1061h-500l-28 135q-25 119 -56 273q-31 -158 -57 -273l-31 -135h-500l-200 1061h467l10 -316q2 -57 2 -294q31 178 57 294l70 299h401l56 -280q43 -217 55 -303q4 78 10 295zM987 1208h-289l-286 467h415z" />
    <glyph glyph-name="x.sc" horiz-adv-x="1126" 
d="M1110 0h-471l-76 256l-69 -256h-478l244 545l-227 516h473l65 -246l56 246h467l-217 -508z" />
    <glyph glyph-name="y.sc" horiz-adv-x="1132" 
d="M795 0h-439v266l-323 795h473l63 -338l66 338h467l-307 -768v-293z" />
    <glyph glyph-name="yacute.sc" horiz-adv-x="1132" 
d="M795 0h-439v266l-323 795h473l63 -338l66 338h467l-307 -768v-293zM971 1675l-287 -467h-289l160 467h416z" />
    <glyph glyph-name="ycircumflex.sc" horiz-adv-x="1132" 
d="M795 0h-439v266l-323 795h473l63 -338l66 338h467l-307 -768v-293zM567 1380l-121 -172h-288l241 467h334l242 -467h-289z" />
    <glyph glyph-name="ydieresis.sc" horiz-adv-x="1132" 
d="M795 0h-439v266l-323 795h473l63 -338l66 338h467l-307 -768v-293zM805 1229q-45 0 -85 17.5t-69.5 46t-47 69.5t-17.5 86q0 92 64.5 156.5t139 64.5t125 -29.5t80 -81t29.5 -103.5t-17.5 -92t-47 -69.5t-69.5 -47t-85 -17.5zM111 1434q0 108 65 171.5t154.5 63.5
t154 -65.5t64.5 -156.5t-64.5 -154.5t-163.5 -63.5t-167 90q-42 56 -43 115z" />
    <glyph glyph-name="ygrave.sc" horiz-adv-x="1132" 
d="M795 0h-439v266l-323 795h473l63 -338l66 338h467l-307 -768v-293zM727 1208h-289l-286 467h415z" />
    <glyph glyph-name="z.sc" horiz-adv-x="956" 
d="M922 375v-375h-865v365l271 325h-289v371h860v-367l-268 -319h291z" />
    <glyph glyph-name="zacute.sc" horiz-adv-x="956" 
d="M922 375v-375h-865v365l271 325h-289v371h860v-367l-268 -319h291zM872 1675l-286 -467h-289l160 467h415z" />
    <glyph glyph-name="zcaron.sc" horiz-adv-x="956" 
d="M922 375v-375h-865v365l271 325h-289v371h860v-367l-268 -319h291zM633 1208h-334l-242 467h289l121 -174l119 174h288z" />
    <glyph glyph-name="zdotaccent.sc" horiz-adv-x="956" 
d="M922 375v-375h-865v365l271 325h-289v371h860v-367l-268 -319h291zM451.5 1669q74.5 0 126 -29.5t80 -81t28.5 -127t-63.5 -139t-154 -63.5t-155.5 63t-65 155.5t64.5 157t139 64.5z" />
    <glyph glyph-name="zero.lf" horiz-adv-x="1404" 
d="M702 395q193 0 193 322q0 168 -47 244t-143 75q-195 0 -195 -320t192 -321zM705 -35q-317 0 -493 198q-175 198 -175 552t180 552q179 197 487 197t486 -196t178 -554q0 -357 -173 -553t-490 -196z" />
    <glyph glyph-name="one.lf" horiz-adv-x="759" 
d="M614 1430v-1430h-448v1042h-117v388h565z" />
    <glyph glyph-name="two.lf" horiz-adv-x="1173" 
d="M1128 401v-401h-1044v365l213 182q270 231 270 375q0 120 -123 120t-260 -110l-213 332q223 201 555 200q236 0 378 -116t142 -324q0 -206 -83 -348q-84 -142 -244 -273l-2 -2h411z" />
    <glyph glyph-name="three.lf" horiz-adv-x="1169" 
d="M1118 387q0 -211 -150 -316t-411 -106q-168 0 -306 51t-233 134l203 354q68 -55 128 -83t157 -28q133 0 133 96q0 43 -39 65t-98 21h-125l2 289h108q139 0 140 90q0 88 -123 88q-150 0 -277 -92l-190 326q217 188 584 188q215 0 350 -101t135 -296q0 -242 -201 -338
q213 -104 213 -342z" />
    <glyph glyph-name="four.lf" horiz-adv-x="1241" 
d="M637 606v312l-148 -312h148zM1241 606v-385h-168v-221h-436v221h-596v371l467 838h565v-824h168z" />
    <glyph glyph-name="five.lf" horiz-adv-x="1107" 
d="M674 903q411 0 416 -426q0 -383 -347 -483q-100 -29 -225 -29q-322 0 -532 170l182 375q125 -119 293 -119q63 0 106 27t43 76q0 84 -84 84q-68 0 -114 -60l-320 111v801h903v-406h-481v-152q78 31 160 31z" />
    <glyph glyph-name="six.lf" horiz-adv-x="1239" 
d="M526 479q0 -100 131 -100q45 0 78 27q33 26 33 72t-31 71t-86 24q-125 0 -125 -94zM762 895q148 0 244 -42t156 -139t61 -239q0 -227 -152 -369q-151 -142 -435 -141q-284 -1 -442 191t-157 547q0 355 181 559q182 204 478 202q296 0 467 -155l-229 -338q-86 74 -203 73
q-195 0 -217 -231q100 82 248 82z" />
    <glyph glyph-name="seven.lf" horiz-adv-x="993" 
d="M18 1430h1026l-360 -1430h-491l290 1024h-465v406z" />
    <glyph glyph-name="eight.lf" horiz-adv-x="1224" 
d="M612 563q-123 0 -123 -92t123 -92t123 92t-123 92zM612 1055q-48 0 -74 -27t-26 -75q0 -47 26 -75t74 -28t75 28q26 28 26 75q0 48 -27 75t-74 27zM1188 371q0 -209 -144 -307t-432 -99q-287 0 -431 98t-144 308q0 248 205 346q-164 115 -164 344q0 184 134 294
q134 109 400 109t401 -109q134 -110 134 -294q0 -229 -162 -344q203 -100 203 -346z" />
    <glyph glyph-name="nine.lf" horiz-adv-x="1245" 
d="M618 856q51 0 83 26t32 70t-28 72q-29 27 -82 27q-111 0 -111 -99q0 -44 28 -70t78 -26zM562 -35q-326 0 -523 174l205 361q113 -115 272 -115q215 0 229 229q-96 -80 -272 -80t-293 106q-117 104 -117 328q-1 224 145 360t402 136q293 0 453 -194t160 -522
q2 -385 -166 -584q-169 -199 -495 -199z" />
    <glyph glyph-name="zero.osf" horiz-adv-x="1282" 
d="M641 360q65 0 105 46t40 129q0 84 -37 129q-38 45 -108 45q-69 0 -107 -45t-38 -129q0 -83 40 -129t105 -46zM641 -35q-270 0 -419 151q-148 151 -148 418t151 414q152 148 416 148t416 -148q151 -148 151 -414q0 -267 -148 -418t-419 -151z" />
    <glyph glyph-name="one.osf" horiz-adv-x="661" 
d="M561 1061v-1061h-440v696h-84v365h524z" />
    <glyph glyph-name="two.osf" horiz-adv-x="1087" 
d="M-8 922q211 174 554 174q186 0 308 -87t121 -270q1 -150 -91 -248t-231 -147h381v-344h-938l2 350q238 92 328 154t90 131q0 82 -96 82q-61 0 -130 -32t-120 -79z" />
    <glyph glyph-name="three.osf" horiz-adv-x="985" 
d="M-6 924q172 172 518 172q186 0 309 -94t123 -291q0 -253 -242 -359q119 -37 189 -121t70 -219q1 -201 -141 -307t-363 -106q-279 0 -490 149l170 326q117 -98 261 -98t145 110q0 111 -170 111h-115v286h98q78 0 120 31t42 82q0 117 -128 117t-224 -76z" />
    <glyph glyph-name="four.osf" horiz-adv-x="1189" 
d="M594 342v336l-186 -336h186zM1165 342v-344h-143v-363h-428v363h-567v330l430 733h565v-719h143z" />
    <glyph glyph-name="five.osf" horiz-adv-x="1054" 
d="M664 496q170 0 270 -108t100 -316q0 -359 -333 -461q-95 -29 -209 -29q-258 0 -451 121l127 375q119 -115 283 -115t163 131q0 55 -26 83q-27 28 -72 28q-74 0 -119 -66l-288 101v821h817v-406h-434v-194q82 35 172 35z" />
    <glyph glyph-name="six.osf" horiz-adv-x="1171" 
d="M469 477q0 -117 128 -117q40 0 73 31q32 31 32 76t-15 71q-30 52 -90 52t-94 -31t-34 -82zM750 887q145 0 256 -95q55 -48 87 -132t31 -195q0 -229 -144 -365t-380 -135q-295 -1 -428 185t-133 548t176 567q176 204 479 199q244 -2 424 -100l-176 -336q-108 60 -226 62
q-232 5 -239 -316q91 113 273 113z" />
    <glyph glyph-name="seven.osf" horiz-adv-x="993" 
d="M18 1063h957l-287 -1430h-477l240 1029h-433v401z" />
    <glyph glyph-name="eight.osf" horiz-adv-x="1130" 
d="M442 476q0 -56 34 -88t89 -32t89 32t34 88t-34 88t-89 32t-89 -32t-34 -88zM574 838q44 0 73 35t29 91t-30 87t-81 31t-81 -32q-30 -30 -30 -77t13 -75q12 -28 38 -44q25 -16 69 -16zM1096 373q0 -209 -140 -308t-391 -99q-252 0 -391 98q-139 100 -139 309
q0 256 201 344q-160 109 -160 338t178 338q116 71 331 71q216 0 343 -108t127 -295q0 -236 -160 -342q201 -88 201 -346z" />
    <glyph glyph-name="nine.osf" horiz-adv-x="1150" 
d="M674 595q0 52 -29 81t-77 29t-78 -29t-30 -82t28 -83t76 -31t79 31t31 84zM424 180q-164 0 -274 114t-111 328q0 214 135 342q135 130 392 130q258 0 398 -202t140 -556t-174 -547t-465 -190q-233 4 -414 100l117 358q115 -84 250 -84q136 0 200 76t64 209v14
q-94 -92 -258 -92z" />
    <glyph glyph-name="three.ss01" horiz-adv-x="1146" 
d="M1083 422q0 -236 -139 -346t-387 -111q-328 0 -539 185l199 364q127 -123 264 -123q61 0 98 31q36 31 35 90q0 143 -237 131v170l143 211h-409v406h954v-347l-209 -284q115 -43 171 -141t56 -236z" />
    <glyph glyph-name="uni0308.case" 
d="M-259 1128q-91 0 -155.5 64.5t-64.5 155t64.5 156t155.5 65.5t154.5 -64.5t63.5 -155.5t-63.5 -156t-154.5 -65zM-734 1128q-91 0 -155.5 64.5t-64.5 155t64.5 156t155.5 65.5t154.5 -64.5t63.5 -155.5t-63.5 -156t-154.5 -65z" />
    <glyph glyph-name="uni0307.case" 
d="M-479 1347.5q0 90.5 64.5 156t155.5 65.5t154.5 -64.5t63.5 -155.5t-63.5 -156t-154.5 -65t-155.5 64.5t-64.5 155z" />
    <glyph glyph-name="gravecomb.case" 
d="M-330 1128l-286 467h415l160 -467h-289z" />
    <glyph glyph-name="acutecomb.case" 
d="M123 1559l-406 -431h-329l278 431h457z" />
    <glyph glyph-name="uni030B.case" 
d="M-41 1595l-354 -467h-289l227 467h416zM-571 1595l-217 -467h-256l73 467h400z" />
    <glyph glyph-name="uni0302.case" 
d="M-20 1128h-330l-121 156l-119 -156h-330l283 488h334z" />
    <glyph glyph-name="uni030C.case" 
d="M-309 1616h329l-282 -488h-334l-283 488h330l119 -156z" />
    <glyph glyph-name="uni0306.case" 
d="M-530 1595q0 -151 38 -181q16 -13 41 -13q49 0 63.5 48t14.5 146h330q25 -467 -407.5 -467t-409.5 467h330z" />
    <glyph glyph-name="uni030A.case" 
d="M-254 1398q0 38 -20.5 60.5t-55.5 22.5t-55.5 -22.5t-20.5 -60.5t20.5 -59.5t55.5 -21.5t55.5 21.5t20.5 59.5zM-639 1397q0 135 81 213t227 78t228.5 -80t82.5 -210t-81 -210t-228.5 -80t-228.5 77t-81 212z" />
    <glyph glyph-name="tildecomb.case" 
d="M-553 1303q-47 0 -47 -113h-309q-23 446 233 446q78 0 138 -40q20 -14 66 -46t71 -32q49 0 49 112h309q23 -446 -244 -446q-65 0 -131 42q-18 12 -64 44.5t-71 32.5z" />
    <glyph glyph-name="uni0304.case" 
d="M-782 1161v355h741v-355h-741z" />
    <glyph glyph-name="uni0327.case" 
d="M-231 -66q47 0 93 -24q96 -50 96.5 -196t-90.5 -219t-253 -73t-281 74l95 213q96 -57 170 -57t73 49q0 41 -31.5 41t-50.5 -31l-184 60l100 295h248l-65 -140q32 8 80 8z" />
    <glyph glyph-name="uni0328.case" 
d="M-584 -573q-139 0 -209.5 69.5t-70.5 177.5q0 264 418 441l161 -68q-217 -145 -217 -254q0 -63 62 -63q55 0 110 32l62 -270q-128 -65 -316 -65z" />
    <glyph glyph-name="caron.alt" horiz-adv-x="497" 
d="M457 1532l-103 -625h-288l-25 625h416z" />
    <glyph glyph-name="uni0328.sc" horiz-adv-x="700" 
d="M346 -573q-162 1 -234 71q-71 70 -71 183q0 307 477 450l82 -121q-94 -57 -145 -107t-52 -112q0 -61 64 -61q55 0 131 45l61 -273q-151 -75 -313 -75z" />
    <glyph glyph-name="ogonek.sc" horiz-adv-x="700" 
d="M322 -573q-94 1 -159 35q-122 65 -122 211q0 145 112 265t365 224l82 -115q-197 -145 -197 -254q0 -63 64 -63q55 0 131 45l61 -271q-151 -77 -337 -77z" />
    </font>
</defs>
</svg>
