<?xml version="1.0" standalone="no"?>
<!DOCTYPE svg PUBLIC "-//W3C//DTD SVG 1.1//EN" "http://www.w3.org/Graphics/SVG/1.1/DTD/svg11.dtd" >
<svg xmlns="http://www.w3.org/2000/svg">
<metadata>
Created by FontPrep 20130207 at Wed Sep 28 15:16:40 2016
 By Tina Muller
Copyright (c) 2016 by Typetype. Designers Ivan Gladkikh &#38; Olexa Volochay. All rights reserved.
</metadata>
<defs>
<font id="aa9fa78df8ddfecbf237ee2769fdf92f" horiz-adv-x='1024' >
  <font-face 
    font-family="TTCorals-ThinItalic"
    font-weight="250"
    font-style="italic"
    font-stretch="normal"
    units-per-em="2048"
    panose-1="2 0 5 6 2 0 0 9 0 3"
    ascent="1638"
    descent="-410"
    x-height="983"
    cap-height="1434"
    bbox="-178.723 -389 2314 1904"
    underline-thickness="102"
    underline-position="-102"
    unicode-range="U+000D-F6D4"
  />
<missing-glyph horiz-adv-x="0" 
 />
    <glyph glyph-name=".notdef" horiz-adv-x="0" 
 />
    <glyph glyph-name=".null" horiz-adv-x="0" 
 />
    <glyph glyph-name=".null" horiz-adv-x="0" 
 />
    <glyph glyph-name="nonmarkingreturn" horiz-adv-x="681" 
 />
    <glyph glyph-name="CR" unicode="&#xd;" horiz-adv-x="0" 
 />
    <glyph glyph-name="space" unicode=" " horiz-adv-x="327" 
 />
    <glyph glyph-name="exclam" unicode="!" horiz-adv-x="532" 
d="M195 369l149 1065h41l-149 -1065h-41zM123 0l10 82h82l-10 -82h-82z" />
    <glyph glyph-name="quotedbl" unicode="&#x22;" horiz-adv-x="593" 
d="M418 942l71 512h41l-71 -512h-41zM193 942l71 512h41l-72 -512h-40z" />
    <glyph glyph-name="numbersign" unicode="#" horiz-adv-x="1085" 
d="M469 942l-166 -450h307l166 450h-307zM430 0l164 451h-307l-164 -451h-41l164 451h-205l6 41h215l166 450h-215l6 41h223l168 451h41l-166 -451h306l167 451h41l-165 -451h204l-6 -41h-215l-166 -450h215l-6 -41h-225l-164 -451h-41z" />
    <glyph glyph-name="dollar" unicode="$" horiz-adv-x="1024" 
d="M412 20q154 0 264 96t131 242q16 111 -42 188q-57 77 -151 123t-187 90t-153 118q-59 75 -42 195q16 120 112 206t238 94l34 246h41l-34 -246q98 -4 170 -58t94 -106l22 -51l-32 -20q-6 22 -31 61t-53 65q-29 25 -81 47t-116 21q-129 0 -219 -77t-108 -203t106 -205
q55 -35 123 -68q68 -32 134 -68t120 -79q53 -43 81 -113t15 -160q-22 -160 -140 -265t-282 -113l-35 -246h-41l35 246q-72 2 -134 30t-100 68q-86 88 -106 141l-12 27l35 20q13 -31 46 -79q34 -48 70 -81q36 -34 98 -60q60 -26 130 -26z" />
    <glyph glyph-name="percent" unicode="%" horiz-adv-x="1290" 
d="M852 20q82 0 148 76t87 221q20 145 -24 222q-45 75 -128 75t-150 -76t-87 -220q-20 -146 26 -222t128 -76zM846 -20q-98 0 -155 88q-55 88 -33 250t103 249q81 88 179 88t154 -89t34 -249q-24 -161 -104 -249t-178 -88zM113 0l1009 1434h52l-1010 -1434h-51zM349 819
q83 0 150 76t87 221t-25 221t-128 76t-149 -76t-87 -221q-19 -145 25 -221t127 -76zM438 1454q98 0 154 -89t34 -249t-103 -249t-179 -89t-155 88q-56 88 -33 250t103 250q81 88 179 88z" />
    <glyph glyph-name="ampersand" unicode="&#x26;" horiz-adv-x="1177" 
d="M585 1331q-79 0 -135 -57t-71 -168q-9 -59 15 -131t52 -115l27 -41q29 12 76 45t80 66q87 86 105 216q11 78 -29 132q-41 53 -120 53zM113 369q-23 -154 63 -251q86 -98 230 -98t240 84t124 138l14 24l-329 502q-33 -11 -98 -54q-64 -42 -108 -85t-85 -113t-51 -147z
M426 1303q70 69 165 69t145 -66t36 -174q-14 -106 -85 -190t-134 -119l-64 -35l322 -481q92 154 137 471h41q-20 -150 -59 -278t-66 -181l-28 -53l178 -266h-51l-154 225q-93 -155 -254 -219q-68 -27 -139 -26q-176 0 -273 109q-96 110 -71 280q12 85 54 159t93 121
q112 103 187 133l32 17q-44 50 -77 145q-32 94 -23 162q18 127 88 197z" />
    <glyph glyph-name="quotesingle" unicode="'" horiz-adv-x="368" 
d="M193 942l71 512h41l-72 -512h-40z" />
    <glyph glyph-name="parenleft" unicode="(" horiz-adv-x="665" 
d="M684 1597l-6 -41q-68 0 -125 -36t-117 -125q-122 -181 -192 -678q-119 -840 198 -840l-6 -41q-358 0 -234 880t482 881z" />
    <glyph glyph-name="parenright" unicode=")" horiz-adv-x="665" 
d="M217 1556l6 41q359 -1 235 -881t-483 -880l7 41q318 -1 436 839t-201 840z" />
    <glyph glyph-name="asterisk" unicode="*" horiz-adv-x="798" 
d="M518 1434l-41 -297l299 92l4 -41l-299 -92l158 -256l-43 -21l-150 246l-219 -246l-39 21l232 256l-275 92l17 41l274 -92l41 297h41z" />
    <glyph glyph-name="plus" unicode="+" horiz-adv-x="716" 
d="M74 676l6 41h256l39 276h41l-39 -276h256l-6 -41h-256l-39 -277h-41l39 277h-256z" />
    <glyph glyph-name="comma" unicode="," horiz-adv-x="327" 
d="M61 0h-41l11 82h82l-9 -62q-6 -40 -28 -66t-39 -32l-19 -4l-8 21q43 10 51 61z" />
    <glyph glyph-name="hyphen" unicode="-" horiz-adv-x="593" 
d="M74 676l6 41h430l-6 -41h-430z" />
    <glyph glyph-name="period" unicode="." horiz-adv-x="327" 
d="M20 0l11 82h82l-11 -82h-82z" />
    <glyph glyph-name="slash" unicode="/" horiz-adv-x="634" 
d="M-59 -266l671 1720h41l-671 -1720h-41z" />
    <glyph glyph-name="zero" unicode="0" horiz-adv-x="1146" 
d="M664 1372q170 0 273 -183t58 -513t-201 -513t-327 -183q-169 0 -273 183t-59 513t202 513t327 183zM473 20q154 0 295 170t186 486t-49 485q-94 170 -248 170t-295 -170t-186 -485q-45 -316 49 -486t248 -170z" />
    <glyph glyph-name="one" unicode="1" horiz-adv-x="583" 
d="M373 1208q-80 -72 -172 -71l4 41q17 0 56 12q75 23 113 82q24 35 29 80h41l-188 -1352h-41l168 1208h-10z" />
    <glyph glyph-name="two" unicode="2" horiz-adv-x="1064" 
d="M607 1331q-153 0 -271 -99t-135 -239q-10 -78 8 -141t43 -90l24 -25l-24 -30q-4 4 -12 11q-39 34 -55 78q-42 120 -25 197q23 156 153 268q131 111 300 111t267 -116t74 -283q-33 -227 -169 -378q-75 -83 -145 -144t-189 -154l-322 -246l-2 -10h666l-5 -41h-747l4 41
l367 276q118 89 184 145t142 140q147 162 175 371q23 154 -65 256t-241 102z" />
    <glyph glyph-name="three" unicode="3" horiz-adv-x="1044" 
d="M586 1331q-128 0 -226 -82q-96 -82 -112 -205q-8 -78 12 -133l-33 -20q-8 12 -18 64q-10 51 -2 89q20 140 130 234t255 94t228 -94t63 -234q-25 -174 -184 -267q-36 -22 -60 -27l-25 -9v-8q30 -6 85 -39q55 -34 87 -70t55 -104q22 -68 9 -151q-23 -162 -155 -276
t-300 -113q-215 0 -308 172q-22 39 -28 65l-6 29l43 10q30 -150 172 -210q59 -26 133 -26q154 0 270 100t137 248t-67 248t-241 101h-92l6 41h92q128 0 224 82t112 204q16 123 -56 205t-200 82z" />
    <glyph glyph-name="four" unicode="4" horiz-adv-x="983" 
d="M88 410h522l119 850h-10l-631 -840v-10zM37 410l704 942h41l-131 -942h226l-7 -41h-225l-51 -369h-41l51 369h-573z" />
    <glyph glyph-name="five" unicode="5" horiz-adv-x="1013" 
d="M412 20q156 0 272 108t141 282t-62 282t-243 107q-100 0 -182 -41t-115 -82l-33 -41h-40l172 717h552l-6 -41h-512l-143 -584h10q14 13 39 31t104 50t160 32q172 0 270 -120t70 -310q-27 -190 -157 -311q-131 -120 -303 -119q-84 0 -151 28t-101 66q-72 81 -84 143l-7 29
l43 10q6 -31 29 -77q22 -46 53 -77q30 -30 90 -56t134 -26z" />
    <glyph glyph-name="six" unicode="6" horiz-adv-x="1064" 
d="M557 840q-157 0 -273 -111t-143 -299t59 -299t242 -111q158 0 274 111t142 299q27 188 -58 299t-243 111zM657 1331q-154 0 -296 -172t-187 -493h10q12 23 51 68q39 44 79 72t108 52t141 23q172 0 268 -124q95 -124 67 -327t-159 -327q-131 -123 -308 -123t-268 122
t-61 349l33 225q45 330 202 513t327 183q86 0 154 -46t91 -93l25 -45l-33 -21q-6 19 -32 53q-84 111 -212 111z" />
    <glyph glyph-name="seven" unicode="7" 
d="M889 1311h-686l-37 -267h-41l43 308h778l-6 -41q-74 -85 -175 -236t-179 -295t-160 -359q-82 -214 -119 -421h-41q37 203 115 412q78 210 162 362q171 310 295 463l51 63v11z" />
    <glyph glyph-name="eight" unicode="8" horiz-adv-x="1085" 
d="M627 1331q-137 0 -239 -86t-120 -211t60 -211t215 -86t239 86t119 211q18 125 -59 211q-78 86 -215 86zM536 696q-152 0 -268 -100q-117 -100 -137 -238q-20 -139 70 -238q89 -100 241 -100t269 100t137 238t-70 238t-242 100zM634 1372q152 0 240 -99t68 -239
q-20 -161 -183 -270q-36 -25 -61 -35l-24 -8l-2 -8q10 -5 27 -11t59 -34t72 -65q30 -35 50 -101t9 -144q-23 -156 -154 -268t-299 -110q-168 0 -268 112t-78 266q10 78 47 143t81 103q92 78 159 101l29 8l2 8q-8 4 -22 10t-51 33q-36 26 -61 58t-41 89t-8 123
q21 138 139 238t270 100z" />
    <glyph glyph-name="nine" unicode="9" horiz-adv-x="1064" 
d="M492 512q158 0 274 111t141 299q27 188 -58 299t-243 111t-274 -112q-116 -110 -143 -298t59 -299t244 -111zM485 471q-172 0 -268 124t-67 327q30 202 160 326t306 124t268 -123t60 -348l-31 -225q-45 -330 -201 -513t-327 -183q-86 0 -154 46t-92 93l-24 45l32 20
q4 -14 31 -50q82 -112 213 -114q154 0 296 172t187 494h-10q-13 -25 -51 -69q-39 -43 -79 -71t-108 -52t-141 -23z" />
    <glyph glyph-name="colon" unicode=":" horiz-adv-x="327" 
d="M145 901l11 82h82l-11 -82h-82zM20 0l11 82h82l-11 -82h-82z" />
    <glyph glyph-name="semicolon" unicode=";" horiz-adv-x="327" 
d="M145 901l11 82h82l-11 -82h-82zM61 0h-41l11 82h82l-9 -62q-6 -40 -28 -66t-39 -32l-19 -4l-8 21q43 10 51 61z" />
    <glyph glyph-name="less" unicode="&#x3c;" horiz-adv-x="665" 
d="M518 266l-8 -51l-455 338l6 41l549 338l-6 -51l-504 -308z" />
    <glyph glyph-name="equal" unicode="=" horiz-adv-x="655" 
d="M55 553l6 41h492l-6 -41h-492zM90 799l6 41h492l-6 -41h-492z" />
    <glyph glyph-name="greater" unicode="&#x3e;" horiz-adv-x="665" 
d="M102 881l7 51l454 -338l-6 -41l-549 -338l8 51l504 307z" />
    <glyph glyph-name="question" unicode="?" horiz-adv-x="1024" 
d="M287 0l10 82h82l-10 -82h-82zM500 717q160 0 272 97t135 251t-64 251t-247 97t-272 -97t-134 -251h-40q23 170 149 280q127 109 303 109t272 -110t72 -279q-24 -170 -150 -280t-302 -109h-52l-43 -307h-41l50 358q31 -10 92 -10z" />
    <glyph glyph-name="at" unicode="@" horiz-adv-x="1638" 
d="M784 338q-116 0 -182 101t-41 277t120 278q95 101 210 102q45 0 81 -16t48 -31l14 -15h10l9 51h41l-88 -624q6 -9 16 -23t45 -37t72 -22q106 0 188 94t111 285q42 295 -102 475t-409 180q-265 -1 -473 -193t-251 -502t111 -504t425 -194q97 0 187 26t133 52l43 25l16 -31
q-54 -41 -167 -77t-218 -35q-289 0 -453 206t-118 531q45 325 267 531q223 206 503 206t435 -192t112 -504q-29 -205 -126 -313t-220 -107q-41 0 -79 22t-55 46l-18 24q-11 -10 -27 -26t-68 -40q-52 -26 -102 -26zM791 379q45 0 89 20t64 41l21 21l71 512q-6 8 -16 22
t-50 37t-85 23q-98 0 -179 -89t-104 -249t34 -249t155 -89z" />
    <glyph glyph-name="A" unicode="A" horiz-adv-x="1177" 
d="M674 1372l-451 -942h645l-184 942h-10zM713 1434l280 -1434h-41l-80 389h-665l-187 -389h-40l682 1434h51z" />
    <glyph glyph-name="B" unicode="B" horiz-adv-x="1249" 
d="M668 819q152 0 251 82t117 216t-68 215q-87 81 -280 81t-299 -37l-35 -14l-75 -543h389zM692 778h-420l-104 -737h420q182 0 306 102q123 103 146 267t-71 266t-277 102zM584 0h-461l194 1393q141 61 363 61t320 -93q97 -93 77 -245q-16 -110 -81 -186t-119 -99l-58 -22
l-2 -10q44 -7 100 -38q56 -30 93 -68q37 -37 60 -113t11 -170q-27 -178 -163 -294t-334 -116z" />
    <glyph glyph-name="C" unicode="C" horiz-adv-x="1208" 
d="M797 1454q136 0 230 -71t126 -121l14 -23l-37 -31q-63 126 -213 183t-321 -26q-211 -103 -329 -354q-62 -134 -85 -294q-45 -315 82 -505t332 -192q141 0 257 84q117 84 159 138l18 24l27 -20q-7 -10 -21 -28t-61 -65q-47 -46 -97 -81t-129 -64t-159 -28q-219 0 -358 203
q-138 204 -91 534q45 329 241 533t415 204z" />
    <glyph glyph-name="D" unicode="D" horiz-adv-x="1269" 
d="M647 1413q-86 0 -160 -12t-102 -25l-31 -14l-186 -1321h307q211 -1 387 183t221 497t-86 503t-350 189zM662 1454q224 0 366 -203t96 -531q-45 -328 -236 -524t-417 -196h-348l194 1393q121 61 345 61z" />
    <glyph glyph-name="E" unicode="E" horiz-adv-x="1044" 
d="M123 0l201 1434h696l-6 -41h-656l-57 -410h573l-6 -41h-573l-127 -901h696l-4 -41h-737z" />
    <glyph glyph-name="F" unicode="F" horiz-adv-x="983" 
d="M123 0l201 1434h696l-6 -41h-656l-57 -410h512l-6 -41h-512l-131 -942h-41z" />
    <glyph glyph-name="G" unicode="G" horiz-adv-x="1310" 
d="M585 -20q-214 0 -353 203q-138 204 -91 534q45 329 241 533t415 204q136 0 230 -71t126 -121l14 -23l-37 -31q-63 126 -213 183t-321 -26q-211 -103 -329 -354q-62 -134 -85 -294q-45 -315 82 -505t332 -192q165 0 325 133q36 30 54 52l18 20l58 410h-389l6 41h430
l-94 -676h-41l20 154h-10q-174 -174 -388 -174z" />
    <glyph glyph-name="H" unicode="H" horiz-adv-x="1372" 
d="M1004 0l131 942h-840l-131 -942h-41l201 1434h41l-64 -451h840l63 451h41l-201 -1434h-40z" />
    <glyph glyph-name="I" unicode="I" horiz-adv-x="491" 
d="M123 0l201 1434h41l-201 -1434h-41z" />
    <glyph glyph-name="J" unicode="J" horiz-adv-x="665" 
d="M344 338l154 1096h41l-154 -1096q-49 -338 -365 -338l5 41q278 0 319 297z" />
    <glyph glyph-name="K" unicode="K" horiz-adv-x="1157" 
d="M1112 1434l-571 -635l452 -799h-51l-436 768l-281 -317l-61 -451h-41l201 1434h41l-129 -922l825 922h51z" />
    <glyph glyph-name="L" unicode="L" horiz-adv-x="1024" 
d="M123 0l201 1434h41l-197 -1393h676l-4 -41h-717z" />
    <glyph glyph-name="M" unicode="M" horiz-adv-x="1525" 
d="M739 389h-51l-328 942h-10l-186 -1331h-41l201 1434h51l342 -983h10l621 983h51l-201 -1434h-41l186 1331h-10z" />
    <glyph glyph-name="N" unicode="N" horiz-adv-x="1372" 
d="M1004 0l-644 1331h-10l-186 -1331h-41l201 1434h41l643 -1332h10l186 1332h41l-201 -1434h-40z" />
    <glyph glyph-name="O" unicode="O" horiz-adv-x="1392" 
d="M791 1413q-97 0 -195 -48q-212 -103 -329 -354q-62 -134 -85 -294q-45 -315 82 -505t332 -192q205 0 385 190t224 506t-83 506t-331 191zM797 1454q219 0 357 -204t92 -534t-242 -533t-414 -203q-219 0 -358 203q-138 204 -91 534q45 329 241 533t415 204z" />
    <glyph glyph-name="P" unicode="P" horiz-adv-x="1290" 
d="M580 492q220 0 374 130t183 331q29 202 -93 331t-336 129q-213 0 -319 -37l-35 -14l-123 -870h349zM701 1454q243 0 375 -141t102 -359t-200 -361q-169 -142 -405 -142h-348l-61 -451h-41l194 1393q141 61 384 61z" />
    <glyph glyph-name="Q" unicode="Q" horiz-adv-x="1392" 
d="M791 1413q-97 0 -195 -48q-212 -103 -329 -354q-62 -134 -85 -294q-45 -315 82 -505t332 -192q170 0 328 136q-63 110 -140 110l17 41q84 0 155 -121q203 198 248 522t-82 514t-331 191zM590 -20q-219 0 -358 203q-138 204 -91 534q45 329 241 533t415 204t357 -204
t91 -544t-268 -552q23 -38 39 -58q43 -55 104 -55l-14 -41q-37 0 -70 20t-49 42t-43 63q-168 -145 -354 -145z" />
    <glyph glyph-name="R" unicode="R" horiz-adv-x="1310" 
d="M739 1413q-115 0 -211 -12t-135 -25l-39 -14l-114 -809h399q203 0 350 125t173 309t-89 305t-334 121zM745 1454q233 0 359 -134t98 -337q-14 -100 -62 -183t-106 -131q-123 -103 -207 -124l-36 -13l-3 -10l277 -522h-51l-266 512h-512l-72 -512h-41l194 1393
q152 61 428 61z" />
    <glyph glyph-name="S" unicode="S" horiz-adv-x="1085" 
d="M432 20q160 0 279 102t141 257q23 183 -104 275q-71 52 -209 113t-195 99t-88 102t-18 148q20 146 131 242t273 96t274 -138q26 -32 36 -54l11 -23l-37 -31q-7 26 -34 67q-28 41 -58 67t-86 49q-55 23 -121 22q-137 0 -233 -83t-116 -222q-19 -139 112 -217
q58 -35 130 -66t144 -65t129 -81q127 -103 101 -286q-26 -184 -159 -299t-309 -114q-80 0 -151 28t-113 66q-91 85 -117 143l-12 29l35 20q11 -28 50 -77q38 -50 76 -83q38 -34 102 -60t136 -26z" />
    <glyph glyph-name="T" unicode="T" horiz-adv-x="942" 
d="M584 1393l-195 -1393h-41l195 1393h-389l6 41h819l-6 -41h-389z" />
    <glyph glyph-name="U" unicode="U" horiz-adv-x="1372" 
d="M580 -20q-209 0 -317 132t-75 359l136 963h41l-136 -963q-31 -213 65 -332t292 -119t324 119t159 332l135 963h41l-135 -963q-33 -227 -177 -359t-353 -132z" />
    <glyph glyph-name="V" unicode="V" horiz-adv-x="1157" 
d="M451 0l-271 1434h41l258 -1373h10l644 1373h41l-672 -1434h-51z" />
    <glyph glyph-name="W" unicode="W" horiz-adv-x="1720" 
d="M1014 0l-148 778l-364 -778h-51l-271 1434h41l258 -1373h10l365 779l-111 594h41l99 -533l250 533h41l-279 -594l147 -779h11l643 1373h41l-672 -1434h-51z" />
    <glyph glyph-name="X" unicode="X" horiz-adv-x="1126" 
d="M1102 1434l-516 -686l356 -748h-51l-332 707l-528 -707h-51l565 748l-324 686h51l299 -646l480 646h51z" />
    <glyph glyph-name="Y" unicode="Y" horiz-adv-x="1064" 
d="M410 0l106 758l-356 676h51l328 -625h8l504 625h51l-545 -676l-106 -758h-41z" />
    <glyph glyph-name="Z" unicode="Z" horiz-adv-x="1044" 
d="M-20 0l4 41l1020 1352h-768l6 41h819l-6 -41l-1020 -1352h829l-4 -41h-880z" />
    <glyph glyph-name="bracketleft" unicode="[" horiz-adv-x="573" 
d="M78 -164l248 1761h266l-6 -41h-226l-235 -1679h225l-6 -41h-266z" />
    <glyph glyph-name="backslash" unicode="\" horiz-adv-x="634" 
d="M223 1454l189 -1720h-41l-189 1720h41z" />
    <glyph glyph-name="bracketright" unicode="]" horiz-adv-x="573" 
d="M489 1597l-247 -1761h-267l7 41h225l235 1679h-225l6 41h266z" />
    <glyph glyph-name="asciicircum" unicode="^" horiz-adv-x="778" 
d="M508 1434l197 -635h-52l-174 573l-338 -573h-51l377 635h41z" />
    <glyph glyph-name="underscore" unicode="_" horiz-adv-x="593" 
d="M-133 -225l6 41h592l-6 -41h-592z" />
    <glyph glyph-name="grave" unicode="`" horiz-adv-x="307" 
d="M201 1434l110 -226h-41l-110 226h41z" />
    <glyph glyph-name="a" unicode="a" horiz-adv-x="952" 
d="M381 20q79 0 147 38t99 77l30 39l91 635q-5 14 -28 47q-73 104 -209 106q-136 1 -254 -125q-119 -126 -149 -345q-30 -220 52 -346t221 -126zM649 102h-10q-37 -43 -117 -83t-147 -39q-154 0 -247 138t-60 374q36 236 166 374t284 138q68 0 125 -31t82 -62l23 -30h10
l14 102h41l-115 -819l-12 -164h-41z" />
    <glyph glyph-name="b" unicode="b" horiz-adv-x="942" 
d="M494 963q-78 0 -148 -39t-100 -76l-31 -39l-98 -707q8 -8 23 -22q16 -14 74 -37t126 -23q154 0 274 125t150 345q31 220 -50 347q-81 126 -220 126zM498 1004q156 0 248 -138t58 -376q-32 -236 -167 -373t-303 -137q-78 0 -144 26t-92 51l-26 25l190 1352h41l-78 -553h11
q38 44 116 84q78 39 146 39z" />
    <glyph glyph-name="c" unicode="c" horiz-adv-x="839" 
d="M375 -20q-154 0 -247 138t-60 374q36 236 166 374t284 138q104 0 165 -51t91 -103l-35 -21q-8 14 -24 37q-17 23 -75 60t-126 37q-139 0 -257 -126q-119 -126 -149 -345q-30 -220 52 -346t221 -126q77 0 149 41t105 82l35 41l28 -20q-10 -22 -48 -60t-72 -62
q-88 -62 -203 -62z" />
    <glyph glyph-name="d" unicode="d" horiz-adv-x="942" 
d="M381 20q79 0 147 38t99 77l30 39l91 635q-5 14 -28 47q-73 104 -209 106q-136 1 -254 -125q-119 -126 -149 -345q-30 -220 52 -346t221 -126zM635 0l14 102h-10q-37 -43 -117 -83t-147 -39q-154 0 -247 138t-60 374q36 236 166 374t284 138q68 0 125 -31t82 -62l23 -30
h10l78 553h41l-201 -1434h-41z" />
    <glyph glyph-name="e" unicode="e" 
d="M494 963q-122 0 -228 -109t-149 -301h635q12 193 -62 301t-196 109zM381 20q77 0 149 41t105 82l35 41l28 -20q-10 -22 -48 -60t-72 -62q-88 -62 -203 -62q-154 0 -247 138t-60 377q34 239 158 373t272 136q148 0 234 -132q87 -132 56 -360h-675l-4 -20q-31 -220 51 -346
t221 -126z" />
    <glyph glyph-name="f" unicode="f" horiz-adv-x="450" 
d="M385 1434h82l-6 -41h-82q-59 0 -70 -62l-49 -348h143l-6 -41h-143l-131 -942h-41l131 942h-123l6 41h123l49 348q6 45 38 74t79 29z" />
    <glyph glyph-name="g" unicode="g" horiz-adv-x="942" 
d="M381 20q79 0 147 38t99 77l30 39l91 635q-5 14 -28 47q-73 104 -209 106q-136 1 -254 -125q-119 -126 -149 -345q-30 -220 52 -346t221 -126zM338 -287q-78 0 -140 26t-87 52l-25 25l25 30q27 -34 96 -63t137 -29q117 0 197 72t96 194l12 82h-10q-37 -43 -117 -83
t-147 -39q-154 0 -247 138t-60 374q36 236 166 374t284 138q68 0 125 -31t82 -62l23 -30h10l14 102h41l-135 -963q-20 -137 -114 -222t-226 -85z" />
    <glyph glyph-name="h" unicode="h" 
d="M494 963q-78 0 -148 -39t-100 -76l-31 -39l-113 -809h-41l201 1434h41l-78 -553h11q38 44 116 84q78 39 146 39q130 0 202 -85t52 -223l-97 -696h-41l97 696q18 123 -41 195t-176 72z" />
    <glyph glyph-name="i" unicode="i" horiz-adv-x="368" 
d="M244 1372l8 62h61l-8 -62h-61zM61 0l138 983h41l-138 -983h-41z" />
    <glyph glyph-name="j" unicode="j" horiz-adv-x="368" 
d="M244 1372l8 62h61l-8 -62h-61zM-33 -225q61 0 70 61l162 1147h41l-162 -1147q-6 -45 -38 -74t-79 -28h-10l-4 41h20z" />
    <glyph glyph-name="k" unicode="k" horiz-adv-x="839" 
d="M145 307l-43 -307h-41l201 1434h41l-149 -1065l587 614h52l-410 -430l313 -553h-51l-297 522z" />
    <glyph glyph-name="l" unicode="l" horiz-adv-x="409" 
d="M168 41h20l-14 -41h-10q-48 0 -72 28t-16 74l186 1332h41l-186 -1332q-10 -61 51 -61z" />
    <glyph glyph-name="m" unicode="m" horiz-adv-x="1310" 
d="M940 963q-84 0 -143 -39t-84 -76l-27 -39l-113 -809h-41l103 737q14 105 -34 165t-132 60t-143 -38q-59 -39 -84 -76l-27 -39l-113 -809h-41l138 983h41l-15 -102h11q10 14 28 34q18 21 76 55t114 34q114 0 161 -52q46 -52 53 -88l4 -14h10q100 151 246 154
q117 0 176 -72t43 -195l-103 -737h-40l102 737q14 106 -34 166t-132 60z" />
    <glyph glyph-name="n" unicode="n" 
d="M494 963q-78 0 -148 -39t-100 -76l-31 -39l-113 -809h-41l138 983h41l-15 -102h11q38 44 116 84q78 39 146 39q130 0 202 -85t52 -223l-97 -696h-41l97 696q18 123 -41 195t-176 72z" />
    <glyph glyph-name="o" unicode="o" horiz-adv-x="962" 
d="M381 20q139 0 256 126t147 346t-50 345q-81 126 -220 126q-138 0 -256 -126t-149 -345q-31 -220 51 -346t221 -126zM376 -20q-155 0 -248 138t-60 374q36 236 166 374t285 138t247 -138t59 -374t-163 -374t-286 -138z" />
    <glyph glyph-name="p" unicode="p" horiz-adv-x="942" 
d="M494 963q-78 0 -148 -39t-100 -76l-31 -39l-90 -635q6 -18 40 -63t90 -68q56 -22 105 -23q139 0 256 126t148 346t-50 345q-81 126 -220 126zM498 1004q156 0 248 -138t58 -374q-32 -236 -163 -374t-287 -138q-68 0 -125 30t-79 62l-23 30h-10l-54 -368h-40l176 1249h41
l-15 -102h11q38 44 116 84q78 39 146 39z" />
    <glyph glyph-name="q" unicode="q" horiz-adv-x="942" 
d="M381 20q79 0 147 38t99 77l30 39l91 635q-5 14 -28 47q-73 104 -209 106q-136 1 -254 -125q-119 -126 -149 -345q-30 -220 52 -346t221 -126zM596 -266l53 368h-10q-37 -43 -117 -83t-147 -39q-154 0 -247 138t-60 374q36 236 166 374t284 138q68 0 125 -31t82 -62
l23 -30h10l14 102h41l-176 -1249h-41z" />
    <glyph glyph-name="r" unicode="r" horiz-adv-x="624" 
d="M439 1004q53 0 95 -31t56 -62l14 -30l-33 -21q-2 4 -5 11q-23 55 -91 84q-68 30 -152 -31q-54 -39 -81 -76l-27 -39l-113 -809h-41l138 983h41l-15 -102h11q10 14 27 34q17 21 71 55t105 34z" />
    <glyph glyph-name="s" unicode="s" horiz-adv-x="778" 
d="M394 1004q94 0 157 -39t88 -76l23 -39l-35 -21q-9 14 -25 37t-74 60t-139 37q-81 -1 -145 -55t-75 -136t35 -132t117 -78t143 -58t115 -90q45 -61 29 -168t-109 -187q-93 -79 -214 -79t-189 61q-67 61 -86 102l-8 21l33 20q6 -17 32 -52q83 -110 222 -112q106 0 185 68
t92 160q23 162 -148 228q-72 28 -143 56t-115 88q-44 58 -32 153q13 95 92 163q80 68 174 68z" />
    <glyph glyph-name="t" unicode="t" horiz-adv-x="501" 
d="M188 41h113l-14 -41h-103q-48 0 -72 29t-16 73l117 840h-123l6 41h123l35 246l43 20l-37 -266h154l-6 -41h-154l-117 -840q-10 -61 51 -61z" />
    <glyph glyph-name="u" unicode="u" 
d="M360 20q78 0 147 38t99 77l31 39l115 809h41l-138 -983h-41l15 102h-11q-38 -44 -117 -84q-79 -39 -147 -38q-132 0 -202 85t-52 222l99 696h41l-99 -696q-16 -123 43 -195t176 -72z" />
    <glyph glyph-name="v" unicode="v" horiz-adv-x="798" 
d="M772 983l-455 -983h-41l-180 983h41l168 -922l426 922h41z" />
    <glyph glyph-name="w" unicode="w" horiz-adv-x="1085" 
d="M1059 983l-414 -983h-41l-80 573h-8l-240 -573h-40l-140 983h41l127 -911l246 583l-45 328h41l127 -911l385 911h41z" />
    <glyph glyph-name="x" unicode="x" horiz-adv-x="757" 
d="M-41 0l369 512l-211 471h51l184 -430l307 430h52l-342 -471l225 -512h-51l-201 471l-332 -471h-51z" />
    <glyph glyph-name="y" unicode="y" horiz-adv-x="757" 
d="M100 -225q51 0 80 61l76 164l-160 983h41l148 -911l405 911h41l-510 -1147q-25 -55 -53 -79t-74 -23h-31l7 41h30z" />
    <glyph glyph-name="z" unicode="z" horiz-adv-x="716" 
d="M152 942l6 41h512l-6 -41l-629 -901h502l-5 -41h-552l4 41l628 901h-460z" />
    <glyph glyph-name="braceleft" unicode="{" horiz-adv-x="614" 
d="M360 -123h31l-6 -41h-31q-106 0 -144 43t-22 152l72 512q12 92 -14 123q-27 31 -119 30h-10l6 41h10q92 0 127 31t49 123l72 512q16 109 65 151t156 43h31l-6 -41h-31q-92 0 -127 -30t-47 -123l-72 -512q-13 -90 -43 -124q-30 -33 -63 -46l-2 -8q8 -1 21 -9t29 -50
t9 -111l-72 -512q-14 -92 13 -123t118 -31z" />
    <glyph glyph-name="bar" unicode="|" horiz-adv-x="491" 
d="M84 -266l242 1720h41l-242 -1720h-41z" />
    <glyph glyph-name="braceright" unicode="}" horiz-adv-x="614" 
d="M254 1597q110 0 146 -44t22 -150l-72 -512q-14 -92 12 -123t119 -31h11l-7 -41h-10q-92 0 -127 -30t-47 -123l-72 -512q-14 -107 -64 -151t-159 -44h-31l7 41h30q92 0 127 31t49 123l72 512q16 112 73 153q9 7 32 17l2 8q-8 2 -22 9q-13 7 -30 50q-16 43 -6 111l72 512
q12 92 -14 123q-27 31 -119 30h-31l6 41h31z" />
    <glyph glyph-name="asciitilde" unicode="~" horiz-adv-x="727" 
d="M238 696q54 0 118 -61t106 -61q44 0 79 30q35 31 51 62l16 30l29 -20q-9 -16 -23 -40t-60 -64t-100 -40t-118 62t-106 61q-44 -1 -78 -31t-52 -61l-16 -31l-29 21q28 56 79 100q50 43 104 43z" />
    <glyph glyph-name="nbspace" unicode="&#xa0;" horiz-adv-x="327" 
 />
    <glyph glyph-name="exclamdown" unicode="&#xa1;" horiz-adv-x="532" 
d="M90 -369l139 983h41l-139 -983h-41zM248 901l12 82h82l-12 -82h-82z" />
    <glyph glyph-name="cent" unicode="&#xa2;" horiz-adv-x="839" 
d="M514 963q-139 0 -257 -126q-119 -126 -149 -345q-30 -220 52 -346t221 -126q77 0 149 41t105 82l35 41l28 -20q-76 -113 -197 -160q-52 -20 -106 -24l-35 -246h-41l35 246q-139 8 -229 147t-57 365t160 364q128 139 270 148l34 245h41l-34 -245q76 -4 134 -43t81 -76
l20 -35l-35 -21q-8 14 -24 37q-17 23 -75 60t-126 37z" />
    <glyph glyph-name="sterling" unicode="&#xa3;" horiz-adv-x="993" 
d="M653 1372q81 0 145 -39t87 -76l22 -38l-33 -21q-8 14 -24 37t-76 59t-127 37q-244 0 -289 -297l-36 -276h430l-7 -41h-430l-69 -492q-8 -63 -33 -107t-45 -57l-18 -10l-3 -10h687l-5 -41h-809l5 41h61q10 4 28 15q17 10 50 58t41 111l69 492h-153l6 41h154l36 276
q25 166 114 252t222 86z" />
    <glyph glyph-name="currency" unicode="&#xa4;" horiz-adv-x="1228" 
d="M678 1331q-90 0 -169 -12t-112 -25l-35 -14l-110 -788h328q205 0 344 116t166 304q27 187 -83 303t-329 116zM688 1372q229 0 350 -129t92 -331q-28 -202 -182 -332t-375 -129h-327l-25 -185h533l-6 -41h-533l-31 -225h-41l31 225h-164l6 41h164l25 185h-164l6 41h164
l115 819q133 61 362 61z" />
    <glyph glyph-name="yen" unicode="&#xa5;" horiz-adv-x="1024" 
d="M229 471l7 41h225l24 184l-338 656h52l311 -604h8l479 604h52l-523 -656l-24 -184h225l-6 -41h-225l-29 -205h225l-6 -41h-225l-31 -225h-41l31 225h-225l6 41h225l29 205h-226z" />
    <glyph glyph-name="brokenbar" unicode="&#xa6;" horiz-adv-x="491" 
d="M84 -266l104 737h41l-104 -737h-41zM223 717l103 737h41l-103 -737h-41z" />
    <glyph glyph-name="section" unicode="&#xa7;" 
d="M706 662q9 62 -12 112q-36 91 -211 171q-83 38 -108 59q-135 -45 -164 -226q-12 -82 25 -142t88 -89q50 -29 120 -62t97 -55q138 46 165 232zM533 1413q-79 0 -143 -54t-76 -136q-12 -83 34 -137q45 -54 115 -88q71 -34 141 -70t113 -106q43 -69 31 -159t-55 -151
q-42 -61 -79 -82l-34 -20l-2 -11q10 -6 23 -18t31 -59t11 -107q-14 -100 -93 -168q-79 -67 -186 -67t-165 51t-88 102l32 21q9 -14 25 -37t76 -60t139 -37q81 0 145 54t74 137q17 142 -149 224q-70 34 -141 71q-72 38 -114 106t-29 158t55 152t79 82l35 20v10q-10 6 -24 18
t-31 60q-18 47 -11 107q14 99 94 167t184 68q105 0 168 -51q62 -51 89 -103l-35 -20q-8 14 -24 37t-76 59t-139 37z" />
    <glyph glyph-name="dieresis" unicode="&#xa8;" horiz-adv-x="430" 
d="M385 1290l8 62h62l-9 -62h-61zM139 1290l8 62h62l-8 -62h-62z" />
    <glyph glyph-name="copyright" unicode="&#xa9;" horiz-adv-x="1679" 
d="M784 338q-116 0 -182 101t-41 277t120 278t201 102t170 -73q16 -18 27 -40l-32 -20q-5 10 -17 25t-54 41t-91 26q-98 0 -179 -89t-104 -249q-22 -160 34 -249t155 -89q55 0 104 28t72 56l22 29l29 -21q-10 -14 -28 -37q-18 -24 -80 -60t-126 -36zM739 20q272 0 482 194
q209 194 252 503t-111 503t-427 194t-481 -194q-208 -192 -251 -502t111 -504t425 -194zM940 1454q289 0 454 -206q164 -206 118 -532t-268 -531t-511 -205t-453 206t-118 531q45 325 267 531t511 206z" />
    <glyph glyph-name="ordfeminine" unicode="&#xaa;" horiz-adv-x="778" 
d="M399 737q55 0 105 29t74 57l22 27l64 450q-23 47 -50 67q-58 46 -120 46q-98 0 -180 -88t-104 -250t34 -250t155 -88zM392 696q-114 0 -180 102t-42 277q25 175 120 277t210 102q49 0 90 -20t57 -41l17 -21h10l8 62h41l-84 -594l-6 -123h-41l-2 61h-10q-74 -82 -188 -82z
" />
    <glyph glyph-name="guillemotleft" unicode="&#xab;" horiz-adv-x="675" 
d="M555 819l27 -20l-224 -277v-10l146 -276l-35 -21l-154 287l4 30zM309 819l27 -20l-223 -277v-10l145 -276l-35 -21l-153 287l4 30z" />
    <glyph glyph-name="logicalnot" unicode="&#xac;" horiz-adv-x="706" 
d="M59 573l7 41h542l-35 -245h-41l29 204h-502z" />
    <glyph glyph-name="uni00AD" unicode="&#xad;" horiz-adv-x="583" 
d="M66 614l4 41h419l-4 -41h-419z" />
    <glyph glyph-name="registered" unicode="&#xae;" horiz-adv-x="1679" 
d="M834 686q98 0 164 52t75 132q10 80 -44 132t-159 52t-186 -38l-22 -12l-44 -318h216zM948 672l-16 -6l-2 -11l143 -297h-51l-133 287h-277l-41 -287h-41l95 676q102 62 237 62q134 0 200 -65t53 -157t-72 -143q-60 -50 -95 -59zM739 20q272 0 482 194q209 194 252 503
t-111 503t-427 194t-481 -194q-208 -192 -251 -502t111 -504t425 -194zM940 1454q289 0 454 -206q164 -206 118 -532t-268 -531t-511 -205t-453 206t-118 531q45 325 267 531t511 206z" />
    <glyph glyph-name="macron" unicode="&#xaf;" horiz-adv-x="512" 
d="M147 1341h390l-7 -41h-389z" />
    <glyph glyph-name="degree" unicode="&#xb0;" horiz-adv-x="675" 
d="M379 1024q70 0 129 54t70 130q10 76 -34 130t-114 54t-130 -54t-71 -130q-10 -76 35 -130t115 -54zM436 1434q86 0 142 -67t42 -159t-88 -158t-160 -67q-86 1 -140 67q-56 66 -44 158q14 92 88 159t160 67z" />
    <glyph glyph-name="plusminus" unicode="&#xb1;" horiz-adv-x="716" 
d="M4 184l6 41h553l-6 -41h-553zM74 676l6 41h256l39 276h41l-39 -276h256l-6 -41h-256l-39 -277h-41l39 277h-256z" />
    <glyph glyph-name="twosuperior" unicode="&#xb2;" horiz-adv-x="655" 
d="M438 1454q92 0 146 -59t42 -141q-21 -155 -148 -284q-128 -129 -212 -179l-37 -23v-10h308l-7 -41h-378l6 41q46 23 126 84q81 61 135 115q54 55 104 135q51 80 61 154t-33 120q-43 47 -119 47t-131 -47q-55 -46 -63 -104t5 -92t29 -44l17 -12l-25 -29q-29 12 -53 60
q-24 49 -14 119t79 131q70 59 162 59z" />
    <glyph glyph-name="threesuperior" unicode="&#xb3;" horiz-adv-x="645" 
d="M401 1413q-67 0 -115 -45t-48 -130q0 -12 4 -30l-35 -22q-20 40 -8 84q10 78 68 131q59 53 141 53t126 -53t34 -119t-38 -107q-29 -40 -53 -53l-24 -12l-2 -8q4 -2 12 -5q62 -23 82 -107q8 -36 2 -79q-12 -92 -83 -153q-71 -62 -163 -62t-135 52t-49 92l43 10
q0 -11 11 -35q35 -76 140 -77q74 -1 129 48q56 49 66 126t-32 125t-118 48h-30l6 41h30q68 0 111 40t52 104t-23 103q-33 40 -101 40z" />
    <glyph glyph-name="acute" unicode="&#xb4;" horiz-adv-x="307" 
d="M127 1208l176 226h41l-176 -226h-41z" />
    <glyph glyph-name="mu" unicode="&#xb5;" 
d="M360 20q78 0 147 38t99 77l31 39l115 809h41l-138 -983h-41l15 102h-11q-38 -44 -117 -84q-157 -78 -281 -5q-56 34 -75 67l-18 33h-10l-54 -379h-40l176 1249h41l-99 -696q-16 -123 43 -195t176 -72z" />
    <glyph glyph-name="paragraph" unicode="&#xb6;" horiz-adv-x="1075" 
d="M627 -266l233 1659h-246l-233 -1659h-41l135 962q-141 0 -215 98t-49 271q25 172 126 270t243 99h471l-7 -41h-143l-233 -1659h-41z" />
    <glyph glyph-name="periodcentered" unicode="&#xb7;" horiz-adv-x="327" 
d="M96 553l10 82h82l-10 -82h-82z" />
    <glyph glyph-name="cedilla" unicode="&#xb8;" horiz-adv-x="471" 
d="M147 -102q61 0 97 -39t28 -99t-65 -104q-57 -45 -140 -45t-137 37l-20 14l24 31q56 -41 132 -41t118 32t47 76q6 44 -18 70q-25 27 -70 27h-61l20 143h41l-16 -102h20z" />
    <glyph glyph-name="onesuperior" unicode="&#xb9;" horiz-adv-x="409" 
d="M289 1331h-10q-14 -20 -58 -41l-16 31q27 11 61 45q33 35 37 68h41l-100 -717h-41z" />
    <glyph glyph-name="ordmasculine" unicode="&#xba;" horiz-adv-x="798" 
d="M399 737q98 0 180 89q81 89 103 249t-34 249t-154 89t-179 -88t-104 -250t33 -250t155 -88zM500 1454q116 0 182 -101t41 -277t-120 -278t-210 -102t-181 102t-42 277q25 175 120 277t210 102z" />
    <glyph glyph-name="guillemotright" unicode="&#xbb;" horiz-adv-x="675" 
d="M111 799l34 20l154 -287l-4 -30l-236 -287l-26 21l223 276v10zM356 799l35 20l154 -287l-4 -30l-236 -287l-26 21l223 276v10z" />
    <glyph glyph-name="onequarter" unicode="&#xbc;" horiz-adv-x="1249" 
d="M668 246l-2 -10h266l53 378h-10zM604 236l393 460h41l-65 -460h102l-6 -41h-102l-29 -215h-41l29 215h-328zM309 1331h-10q-14 -20 -57 -41l-17 31q29 12 62 46t37 67h41l-101 -717h-41zM51 0l1010 1434h51l-1010 -1434h-51z" />
    <glyph glyph-name="onehalf" unicode="&#xbd;" horiz-adv-x="1361" 
d="M1022 737q92 0 145 -59q53 -60 42 -142t-56 -160t-101 -133q-121 -121 -202 -169l-37 -23v-10h307l-6 -41h-379l6 41q39 20 124 82q83 63 137 117t105 135q50 79 60 153t-32 121q-43 47 -119 47t-131 -47t-63 -105t4 -90q13 -34 30 -44l16 -13l-24 -28q-10 4 -24 14
q-13 10 -33 52q-21 43 -11 113t80 130t162 59zM309 1331h-10q-14 -20 -57 -41l-17 31q29 12 62 46t37 67h41l-101 -717h-41zM51 0l1010 1434h51l-1010 -1434h-51z" />
    <glyph glyph-name="threequarters" unicode="&#xbe;" horiz-adv-x="1402" 
d="M821 246l-2 -10h266l54 378h-11zM758 236l393 460h41l-66 -460h103l-6 -41h-103l-28 -215h-41l28 215h-327zM401 1413q-67 0 -115 -45t-48 -130q0 -12 4 -30l-35 -22q-20 40 -8 84q10 78 68 131q59 53 141 53t126 -53t34 -119t-38 -107q-29 -40 -53 -53l-24 -12l-2 -8
q4 -2 12 -5q62 -23 82 -107q8 -36 2 -79q-12 -92 -83 -153q-71 -62 -163 -62t-135 52t-49 92l43 10q0 -11 11 -35q35 -76 140 -77q74 -1 129 48q56 49 66 126t-32 125t-118 48h-30l6 41h30q68 0 111 40t52 104t-23 103q-33 40 -101 40zM205 0l1009 1434h52l-1010 -1434h-51z
" />
    <glyph glyph-name="questiondown" unicode="&#xbf;" horiz-adv-x="1024" 
d="M670 983l-13 -82h-82l13 82h82zM367 -369q-176 0 -273 110q-96 109 -72 279t151 280q128 110 304 110h51l29 204h41l-37 -256q-29 10 -90 11q-161 1 -273 -97t-135 -252t63 -250t247 -98q161 0 273 98t134 250h41q-25 -170 -151 -280t-303 -109z" />
    <glyph glyph-name="Agrave" unicode="&#xc0;" horiz-adv-x="1177" 
d="M621 1843l112 -225h-41l-112 225h41zM674 1372l-451 -942h645l-184 942h-10zM713 1434l280 -1434h-41l-80 389h-665l-187 -389h-40l682 1434h51z" />
    <glyph glyph-name="Aacute" unicode="&#xc1;" horiz-adv-x="1177" 
d="M692 1618l174 225h41l-174 -225h-41zM674 1372l-451 -942h645l-184 942h-10zM713 1434l280 -1434h-41l-80 389h-665l-187 -389h-40l682 1434h51z" />
    <glyph glyph-name="Acircumflex" unicode="&#xc2;" horiz-adv-x="1177" 
d="M764 1843l154 -225h-41l-138 194l-190 -194h-41l215 225h41zM674 1372l-451 -942h645l-184 942h-10zM713 1434l280 -1434h-41l-80 389h-665l-187 -389h-40l682 1434h51z" />
    <glyph glyph-name="Atilde" unicode="&#xc3;" horiz-adv-x="1177" 
d="M634 1812q46 0 100 -61t89 -61q70 0 101 122h41q-17 -82 -57 -122t-86 -41q-46 0 -101 61t-90 62q-68 0 -99 -123h-40q18 79 57 121t85 42zM674 1372l-451 -942h645l-184 942h-10zM713 1434l280 -1434h-41l-80 389h-665l-187 -389h-40l682 1434h51z" />
    <glyph glyph-name="Adieresis" unicode="&#xc4;" horiz-adv-x="1177" 
d="M815 1700l8 61h62l-8 -61h-62zM569 1700l9 61h61l-8 -61h-62zM674 1372l-451 -942h645l-184 942h-10zM713 1434l280 -1434h-41l-80 389h-665l-187 -389h-40l682 1434h51z" />
    <glyph glyph-name="Aring" unicode="&#xc5;" horiz-adv-x="1177" 
d="M563 1731q11 77 65 125t124 48t110 -48q40 -50 29 -126t-65 -124q-54 -50 -124 -50t-110 50t-29 125zM710 1597q54 0 93 36q39 35 47 97t-21 98t-84 36t-94 -36t-47 -97t22 -97t84 -37zM674 1372l-451 -942h645l-184 942h-10zM713 1434l280 -1434h-41l-80 389h-665
l-187 -389h-40l682 1434h51z" />
    <glyph glyph-name="AE" unicode="&#xc6;" horiz-adv-x="1556" 
d="M686 1393l-463 -963h512l135 963h-184zM676 0l53 389h-522l-187 -389h-40l682 1434h870l-6 -41h-615l-57 -410h532l-6 -41h-532l-127 -901h655l-4 -41h-696z" />
    <glyph glyph-name="Ccedilla" unicode="&#xc7;" horiz-adv-x="1208" 
d="M797 1454q136 0 230 -71t126 -121l14 -23l-37 -31q-63 126 -213 183t-321 -26q-211 -103 -329 -354q-62 -134 -85 -294q-45 -315 82 -505t332 -192q141 0 257 84q117 84 159 138l18 24l27 -20q-7 -10 -21 -28t-60 -62q-46 -45 -95 -80t-126 -65t-155 -31l-12 -82h20
q62 0 98 -39t28 -99t-66 -104q-57 -45 -138 -45t-141 37l-18 14l24 31q57 -41 133 -41t116 32q42 32 48 76t-18 70q-25 27 -70 27h-61l16 123q-205 16 -334 217t-84 525t241 528t415 204z" />
    <glyph glyph-name="Egrave" unicode="&#xc8;" horiz-adv-x="1044" 
d="M627 1843l112 -225h-41l-112 225h41zM123 0l201 1434h696l-6 -41h-656l-57 -410h573l-6 -41h-573l-127 -901h696l-4 -41h-737z" />
    <glyph glyph-name="Eacute" unicode="&#xc9;" horiz-adv-x="1044" 
d="M657 1618l174 225h41l-174 -225h-41zM123 0l201 1434h696l-6 -41h-656l-57 -410h573l-6 -41h-573l-127 -901h696l-4 -41h-737z" />
    <glyph glyph-name="Ecircumflex" unicode="&#xca;" horiz-adv-x="1044" 
d="M750 1843l153 -225h-41l-137 194l-190 -194h-41l215 225h41zM123 0l201 1434h696l-6 -41h-656l-57 -410h573l-6 -41h-573l-127 -901h696l-4 -41h-737z" />
    <glyph glyph-name="Edieresis" unicode="&#xcb;" horiz-adv-x="1044" 
d="M801 1700l8 61h61l-8 -61h-61zM555 1700l8 61h62l-9 -61h-61zM123 0l201 1434h696l-6 -41h-656l-57 -410h573l-6 -41h-573l-127 -901h696l-4 -41h-737z" />
    <glyph glyph-name="Igrave" unicode="&#xcc;" horiz-adv-x="512" 
d="M289 1843l112 -225h-41l-112 225h41zM133 0l201 1434h41l-201 -1434h-41z" />
    <glyph glyph-name="Iacute" unicode="&#xcd;" horiz-adv-x="512" 
d="M360 1618l175 225h40l-174 -225h-41zM133 0l201 1434h41l-201 -1434h-41z" />
    <glyph glyph-name="Icircumflex" unicode="&#xce;" horiz-adv-x="512" 
d="M432 1843l154 -225h-41l-137 194l-191 -194h-41l215 225h41zM133 0l201 1434h41l-201 -1434h-41z" />
    <glyph glyph-name="Idieresis" unicode="&#xcf;" horiz-adv-x="512" 
d="M483 1700l9 61h61l-8 -61h-62zM238 1700l8 61h61l-8 -61h-61zM133 0l201 1434h41l-201 -1434h-41z" />
    <glyph glyph-name="Eth" unicode="&#xd0;" horiz-adv-x="1269" 
d="M647 1413q-86 0 -160 -12t-102 -25l-31 -14l-53 -379h348l-6 -41h-348l-127 -901h307q211 -1 387 183t221 497t-86 503t-350 189zM662 1454q224 0 366 -203t96 -531q-45 -328 -236 -524t-417 -196h-348l131 942h-143l6 41h143l57 410q121 61 345 61z" />
    <glyph glyph-name="Ntilde" unicode="&#xd1;" horiz-adv-x="1372" 
d="M732 1812q46 0 100 -61t90 -61q70 0 100 122h41q-18 -82 -57 -122t-85 -41q-45 0 -101 61t-91 62q-67 0 -98 -123h-41q18 79 57 121t85 42zM1004 0l-644 1331h-10l-186 -1331h-41l201 1434h41l643 -1332h10l186 1332h41l-201 -1434h-40z" />
    <glyph glyph-name="Ograve" unicode="&#xd2;" horiz-adv-x="1392" 
d="M750 1843l112 -225h-41l-112 225h41zM791 1413q-97 0 -195 -48q-212 -103 -329 -354q-62 -134 -85 -294q-45 -315 82 -505t332 -192q205 0 385 190t224 506t-83 506t-331 191zM797 1454q219 0 357 -204t92 -534t-242 -533t-414 -203q-219 0 -358 203q-138 204 -91 534
q45 329 241 533t415 204z" />
    <glyph glyph-name="Oacute" unicode="&#xd3;" horiz-adv-x="1392" 
d="M780 1618l174 225h41l-174 -225h-41zM791 1413q-97 0 -195 -48q-212 -103 -329 -354q-62 -134 -85 -294q-45 -315 82 -505t332 -192q205 0 385 190t224 506t-83 506t-331 191zM797 1454q219 0 357 -204t92 -534t-242 -533t-414 -203q-219 0 -358 203q-138 204 -91 534
q45 329 241 533t415 204z" />
    <glyph glyph-name="Ocircumflex" unicode="&#xd4;" horiz-adv-x="1392" 
d="M872 1843l154 -225h-41l-137 194l-191 -194h-41l215 225h41zM791 1413q-97 0 -195 -48q-212 -103 -329 -354q-62 -134 -85 -294q-45 -315 82 -505t332 -192q205 0 385 190t224 506t-83 506t-331 191zM797 1454q219 0 357 -204t92 -534t-242 -533t-414 -203
q-219 0 -358 203q-138 204 -91 534q45 329 241 533t415 204z" />
    <glyph glyph-name="Otilde" unicode="&#xd5;" horiz-adv-x="1392" 
d="M742 1812q46 0 100 -61t90 -61q70 0 100 122h41q-18 -82 -57 -122t-85 -41q-45 0 -101 61t-91 62q-67 0 -98 -123h-41q18 79 57 121t85 42zM791 1413q-97 0 -195 -48q-212 -103 -329 -354q-62 -134 -85 -294q-45 -315 82 -505t332 -192q205 0 385 190t224 506t-83 506
t-331 191zM797 1454q219 0 357 -204t92 -534t-242 -533t-414 -203q-219 0 -358 203q-138 204 -91 534q45 329 241 533t415 204z" />
    <glyph glyph-name="Odieresis" unicode="&#xd6;" horiz-adv-x="1392" 
d="M924 1700l8 61h61l-8 -61h-61zM678 1700l8 61h62l-9 -61h-61zM791 1413q-97 0 -195 -48q-212 -103 -329 -354q-62 -134 -85 -294q-45 -315 82 -505t332 -192q205 0 385 190t224 506t-83 506t-331 191zM797 1454q219 0 357 -204t92 -534t-242 -533t-414 -203
q-219 0 -358 203q-138 204 -91 534q45 329 241 533t415 204z" />
    <glyph glyph-name="multiply" unicode="&#xd7;" horiz-adv-x="614" 
d="M270 696l-166 195l35 31l166 -197l223 197l27 -31l-223 -195l168 -194l-35 -31l-168 197l-221 -197l-27 31z" />
    <glyph glyph-name="Oslash" unicode="&#xd8;" horiz-adv-x="1392" 
d="M596 20q205 0 385 191t225 506q34 277 -55 460q-20 42 -37 60l-16 20l-787 -1107q12 -14 34 -36q21 -22 95 -58t156 -36zM784 1413q-88 0 -188 -48q-212 -103 -329 -354q-63 -133 -81 -269q-32 -234 8 -364q39 -129 80 -181l17 -21l786 1108q-12 14 -34 36q-23 22 -97 58
t-162 35zM797 1454q87 0 163 -34t109 -68l33 -33l82 115h41l-103 -142q36 -36 58 -85q22 -48 45 -107t30 -182q6 -122 -8 -201q-47 -330 -243 -534t-414 -203q-86 0 -163 34t-110 68l-32 33l-80 -115h-41l100 141q-44 44 -80 140t-43 151q-19 176 0 285q45 329 241 533
t415 204z" />
    <glyph glyph-name="Ugrave" unicode="&#xd9;" horiz-adv-x="1372" 
d="M739 1843l113 -225h-41l-113 225h41zM580 -20q-209 0 -317 132t-75 359l136 963h41l-136 -963q-31 -213 65 -332t292 -119t324 119t159 332l135 963h41l-135 -963q-33 -227 -177 -359t-353 -132z" />
    <glyph glyph-name="Uacute" unicode="&#xda;" horiz-adv-x="1372" 
d="M770 1618l174 225h41l-174 -225h-41zM580 -20q-209 0 -317 132t-75 359l136 963h41l-136 -963q-31 -213 65 -332t292 -119t324 119t159 332l135 963h41l-135 -963q-33 -227 -177 -359t-353 -132z" />
    <glyph glyph-name="Ucircumflex" unicode="&#xdb;" horiz-adv-x="1372" 
d="M862 1843l154 -225h-41l-137 194l-191 -194h-41l215 225h41zM580 -20q-209 0 -317 132t-75 359l136 963h41l-136 -963q-31 -213 65 -332t292 -119t324 119t159 332l135 963h41l-135 -963q-33 -227 -177 -359t-353 -132z" />
    <glyph glyph-name="Udieresis" unicode="&#xdc;" horiz-adv-x="1372" 
d="M913 1700l9 61h61l-8 -61h-62zM668 1700l8 61h61l-8 -61h-61zM580 -20q-209 0 -317 132t-75 359l136 963h41l-136 -963q-31 -213 65 -332t292 -119t324 119t159 332l135 963h41l-135 -963q-33 -227 -177 -359t-353 -132z" />
    <glyph glyph-name="Yacute" unicode="&#xdd;" horiz-adv-x="1064" 
d="M616 1618l175 225h40l-174 -225h-41zM410 0l106 758l-356 676h51l328 -625h8l504 625h51l-545 -676l-106 -758h-41z" />
    <glyph glyph-name="Thorn" unicode="&#xde;" horiz-adv-x="1249" 
d="M557 328q213 0 359 122t174 318t-88 318t-326 122t-316 -37l-34 -14l-117 -829h348zM684 1249q224 0 350 -135t96 -345q-28 -210 -190 -346t-389 -136h-348l-39 -287h-41l201 1434h41l-33 -236q128 51 352 51z" />
    <glyph glyph-name="germandbls" unicode="&#xdf;" horiz-adv-x="962" 
d="M621 1434h225q-36 -254 -194 -382q-36 -30 -58 -40l-25 -8v-11q37 -6 92 -45q56 -39 89 -89t52 -147t3 -220q-33 -238 -168 -375t-303 -137q-73 0 -105 16l-14 4l14 41q39 -20 111 -21q154 0 274 125t150 345q31 220 -50 347q-81 126 -220 126h-72l4 41q129 0 239 110
t134 279h-185q-137 1 -242 -111t-134 -319l-136 -963h-41l136 963q31 221 150 346q120 125 274 125z" />
    <glyph glyph-name="agrave" unicode="&#xe0;" horiz-adv-x="952" 
d="M477 1434l111 -226h-41l-111 226h41zM381 20q79 0 147 38t99 77l30 39l91 635q-5 14 -28 47q-73 104 -209 106q-136 1 -254 -125q-119 -126 -149 -345q-30 -220 52 -346t221 -126zM649 102h-10q-37 -43 -117 -83t-147 -39q-154 0 -247 138t-60 374q36 236 166 374
t284 138q68 0 125 -31t82 -62l23 -30h10l14 102h41l-115 -819l-12 -164h-41z" />
    <glyph glyph-name="aacute" unicode="&#xe1;" horiz-adv-x="952" 
d="M526 1208l176 226h41l-176 -226h-41zM381 20q79 0 147 38t99 77l30 39l91 635q-5 14 -28 47q-73 104 -209 106q-136 1 -254 -125q-119 -126 -149 -345q-30 -220 52 -346t221 -126zM649 102h-10q-37 -43 -117 -83t-147 -39q-154 0 -247 138t-60 374q36 236 166 374
t284 138q68 0 125 -31t82 -62l23 -30h10l14 102h41l-115 -819l-12 -164h-41z" />
    <glyph glyph-name="acircumflex" unicode="&#xe2;" horiz-adv-x="952" 
d="M600 1434l152 -226h-41l-136 195l-192 -195h-41l217 226h41zM381 20q79 0 147 38t99 77l30 39l91 635q-5 14 -28 47q-73 104 -209 106q-136 1 -254 -125q-119 -126 -149 -345q-30 -220 52 -346t221 -126zM649 102h-10q-37 -43 -117 -83t-147 -39q-154 0 -247 138t-60 374
q36 236 166 374t284 138q68 0 125 -31t82 -62l23 -30h10l14 102h41l-115 -819l-12 -164h-41z" />
    <glyph glyph-name="atilde" unicode="&#xe3;" horiz-adv-x="952" 
d="M470 1403q46 1 100 -61t89 -62q68 0 101 123h41q-17 -82 -57 -123t-86 -41t-101 61t-90 62q-67 0 -98 -123h-41q18 80 57 122t85 42zM381 20q79 0 147 38t99 77l30 39l91 635q-5 14 -28 47q-73 104 -209 106q-136 1 -254 -125q-119 -126 -149 -345q-30 -220 52 -346
t221 -126zM649 102h-10q-37 -43 -117 -83t-147 -39q-154 0 -247 138t-60 374q36 236 166 374t284 138q68 0 125 -31t82 -62l23 -30h10l14 102h41l-115 -819l-12 -164h-41z" />
    <glyph glyph-name="adieresis" unicode="&#xe4;" horiz-adv-x="952" 
d="M651 1290l8 62h62l-8 -62h-62zM406 1290l8 62h61l-8 -62h-61zM381 20q79 0 147 38t99 77l30 39l91 635q-5 14 -28 47q-73 104 -209 106q-136 1 -254 -125q-119 -126 -149 -345q-30 -220 52 -346t221 -126zM649 102h-10q-37 -43 -117 -83t-147 -39q-154 0 -247 138
t-60 374q36 236 166 374t284 138q68 0 125 -31t82 -62l23 -30h10l14 102h41l-115 -819l-12 -164h-41z" />
    <glyph glyph-name="aring" unicode="&#xe5;" horiz-adv-x="952" 
d="M588 1495q70 0 110 -49t29 -125q-10 -76 -64 -125t-124 -49t-110 49t-30 125q11 76 65 125t124 49zM546 1188q54 0 93 36t47 97t-20 97q-29 36 -84 36q-54 0 -94 -36t-48 -97t22 -97t84 -36zM381 20q79 0 147 38t99 77l30 39l91 635q-5 14 -28 47q-73 104 -209 106
q-136 1 -254 -125q-119 -126 -149 -345q-30 -220 52 -346t221 -126zM649 102h-10q-37 -43 -117 -83t-147 -39q-154 0 -247 138t-60 374q36 236 166 374t284 138q68 0 125 -31t82 -62l23 -30h10l14 102h41l-115 -819l-12 -164h-41z" />
    <glyph glyph-name="ae" unicode="&#xe6;" horiz-adv-x="1495" 
d="M1087 963q-123 0 -218 -109t-138 -301h594q13 193 -51 301t-187 109zM348 512q-122 0 -198 -66t-92 -182t40 -180q58 -64 189 -64t248 126t147 346l4 20h-338zM975 20q79 0 145 41t94 82l29 41l29 -20q-12 -24 -44 -60q-108 -124 -241 -124q-171 0 -238 115
q-52 90 -65 179l-2 33h-8q-10 -34 -52 -101q-43 -68 -84 -112q-42 -43 -114 -79t-152 -35q-138 0 -206 78t-50 208q18 131 108 209t228 78h338q12 199 -55 304q-68 105 -182 106q-68 0 -135 -33t-99 -66l-33 -35l-26 21q12 16 36 42t102 69t153 43q76 0 129 -31
q54 -31 80 -74q51 -82 63 -162l4 -30h10q9 28 48 90q39 63 76 103t99 72t132 32q143 0 222 -134t48 -358h-635l-4 -20q-33 -224 43 -348t209 -124z" />
    <glyph glyph-name="ccedilla" unicode="&#xe7;" horiz-adv-x="839" 
d="M514 963q-139 0 -257 -126q-119 -126 -149 -345q-30 -220 52 -346t221 -126q77 0 149 41t105 82l35 41l28 -20l-12 -18t-38 -44q-116 -120 -253 -122l-12 -82h20q61 0 97 -39t28 -99t-65 -104q-57 -45 -138 -45t-141 37l-18 14l24 31q56 -41 132 -41t118 32t47 76
q6 44 -18 70q-25 27 -70 27h-61l16 123q-139 8 -229 147t-56 370q35 231 165 369t284 138q104 0 165 -51t91 -103l-35 -21q-8 14 -24 37q-17 23 -75 60t-126 37z" />
    <glyph glyph-name="egrave" unicode="&#xe8;" 
d="M457 1434l110 -226h-41l-110 226h41zM494 963q-122 0 -228 -109t-149 -301h635q12 193 -62 301t-196 109zM381 20q77 0 149 41t105 82l35 41l28 -20q-10 -22 -48 -60t-72 -62q-88 -62 -203 -62q-154 0 -247 138t-60 377q34 239 158 373t272 136q148 0 234 -132
q87 -132 56 -360h-675l-4 -20q-31 -220 51 -346t221 -126z" />
    <glyph glyph-name="eacute" unicode="&#xe9;" 
d="M506 1208l176 226h41l-176 -226h-41zM494 963q-122 0 -228 -109t-149 -301h635q12 193 -62 301t-196 109zM381 20q77 0 149 41t105 82l35 41l28 -20q-10 -22 -48 -60t-72 -62q-88 -62 -203 -62q-154 0 -247 138t-60 377q34 239 158 373t272 136q148 0 234 -132
q87 -132 56 -360h-675l-4 -20q-31 -220 51 -346t221 -126z" />
    <glyph glyph-name="ecircumflex" unicode="&#xea;" 
d="M580 1434l151 -226h-41l-135 195l-193 -195h-40l217 226h41zM494 963q-122 0 -228 -109t-149 -301h635q12 193 -62 301t-196 109zM381 20q77 0 149 41t105 82l35 41l28 -20q-10 -22 -48 -60t-72 -62q-88 -62 -203 -62q-154 0 -247 138t-60 377q34 239 158 373t272 136
q148 0 234 -132q87 -132 56 -360h-675l-4 -20q-31 -220 51 -346t221 -126z" />
    <glyph glyph-name="edieresis" unicode="&#xeb;" 
d="M631 1290l8 62h61l-8 -62h-61zM385 1290l8 62h62l-9 -62h-61zM494 963q-122 0 -228 -109t-149 -301h635q12 193 -62 301t-196 109zM381 20q77 0 149 41t105 82l35 41l28 -20q-10 -22 -48 -60t-72 -62q-88 -62 -203 -62q-154 0 -247 138t-60 377q34 239 158 373t272 136
q148 0 234 -132q87 -132 56 -360h-675l-4 -20q-31 -220 51 -346t221 -126z" />
    <glyph glyph-name="igrave" unicode="&#xec;" horiz-adv-x="368" 
d="M160 1434l110 -226h-41l-110 226h41zM61 0l138 983h41l-138 -983h-41z" />
    <glyph glyph-name="iacute" unicode="&#xed;" horiz-adv-x="368" 
d="M229 1208l177 226h40l-176 -226h-41zM61 0l138 983h41l-138 -983h-41z" />
    <glyph glyph-name="icircumflex" unicode="&#xee;" horiz-adv-x="368" 
d="M303 1434l152 -226h-41l-135 195l-193 -195h-41l217 226h41zM61 0l138 983h41l-138 -983h-41z" />
    <glyph glyph-name="idieresis" unicode="&#xef;" horiz-adv-x="368" 
d="M354 1290l8 62h62l-8 -62h-62zM109 1290l8 62h61l-8 -62h-61zM61 0l138 983h41l-138 -983h-41z" />
    <glyph glyph-name="eth" unicode="&#xf0;" horiz-adv-x="983" 
d="M508 922q-145 0 -259 -119t-144 -332q-29 -213 51 -332t225 -119t258 118q112 118 143 333q29 215 -50 333t-224 118zM375 -20q-162 0 -252 131t-57 360t159 360q127 131 289 132q72 0 128 -26t100 -78t61 -118l4 -24h10q0 170 -70 304t-120 193l-23 25l-162 -123l-26 31
l162 123q-85 89 -175 145l-28 19h71q76 -41 166 -134l160 123l27 -30l-160 -123q29 -29 79 -108q50 -80 79 -150t46 -173t3 -204l-23 -164q-33 -229 -159 -360t-289 -131z" />
    <glyph glyph-name="ntilde" unicode="&#xf1;" 
d="M450 1403q46 1 100 -61t89 -62q68 0 100 123h41q-18 -82 -57 -123t-85 -41t-101 61t-91 62q-67 0 -98 -123h-41q17 80 57 122t86 42zM494 963q-78 0 -148 -39t-100 -76l-31 -39l-113 -809h-41l138 983h41l-15 -102h11q38 44 116 84q78 39 146 39q130 0 202 -85t52 -223
l-97 -696h-41l97 696q18 123 -41 195t-176 72z" />
    <glyph glyph-name="ograve" unicode="&#xf2;" horiz-adv-x="962" 
d="M477 1434l111 -226h-41l-111 226h41zM381 20q139 0 256 126t147 346t-50 345q-81 126 -220 126q-138 0 -256 -126t-149 -345q-31 -220 51 -346t221 -126zM376 -20q-155 0 -248 138t-60 374q36 236 166 374t285 138t247 -138t59 -374t-163 -374t-286 -138z" />
    <glyph glyph-name="oacute" unicode="&#xf3;" horiz-adv-x="962" 
d="M506 1208l176 226h41l-176 -226h-41zM381 20q139 0 256 126t147 346t-50 345q-81 126 -220 126q-138 0 -256 -126t-149 -345q-31 -220 51 -346t221 -126zM376 -20q-155 0 -248 138t-60 374q36 236 166 374t285 138t247 -138t59 -374t-163 -374t-286 -138z" />
    <glyph glyph-name="ocircumflex" unicode="&#xf4;" horiz-adv-x="962" 
d="M600 1434l152 -226h-41l-136 195l-192 -195h-41l217 226h41zM381 20q139 0 256 126t147 346t-50 345q-81 126 -220 126q-138 0 -256 -126t-149 -345q-31 -220 51 -346t221 -126zM376 -20q-155 0 -248 138t-60 374q36 236 166 374t285 138t247 -138t59 -374t-163 -374
t-286 -138z" />
    <glyph glyph-name="otilde" unicode="&#xf5;" horiz-adv-x="962" 
d="M470 1403q46 1 100 -61t89 -62q68 0 101 123h41q-17 -82 -57 -123t-86 -41t-101 61t-90 62q-67 0 -98 -123h-41q18 80 57 122t85 42zM381 20q139 0 256 126t147 346t-50 345q-81 126 -220 126q-138 0 -256 -126t-149 -345q-31 -220 51 -346t221 -126zM376 -20
q-155 0 -248 138t-60 374q36 236 166 374t285 138t247 -138t59 -374t-163 -374t-286 -138z" />
    <glyph glyph-name="odieresis" unicode="&#xf6;" horiz-adv-x="962" 
d="M651 1290l8 62h62l-8 -62h-62zM406 1290l8 62h61l-8 -62h-61zM381 20q139 0 256 126t147 346t-50 345q-81 126 -220 126q-138 0 -256 -126t-149 -345q-31 -220 51 -346t221 -126zM376 -20q-155 0 -248 138t-60 374q36 236 166 374t285 138t247 -138t59 -374t-163 -374
t-286 -138z" />
    <glyph glyph-name="divide" unicode="&#xf7;" horiz-adv-x="716" 
d="M350 963l10 81h82l-10 -81h-82zM262 348l12 82h82l-12 -82h-82zM74 676l6 41h553l-6 -41h-553z" />
    <glyph glyph-name="oslash" unicode="&#xf8;" horiz-adv-x="962" 
d="M381 20q139 0 256 126q116 127 147 346q25 215 -34 319l-23 37l-539 -742q26 -33 82 -59q55 -27 111 -27zM514 963q-138 0 -256 -126t-149 -345q-22 -226 34 -320l25 -39l537 744q-26 33 -81 59q-55 27 -110 27zM375 -20q-59 0 -113 22t-78 47l-22 23l-49 -72h-41l69 98
q-12 14 -29 43t-39 130t-5 221q36 236 166 374t284 138q60 0 112 -23t75 -47l24 -23l53 72h41l-71 -98q4 -6 25 -34t34 -88q37 -160 14 -271q-33 -236 -163 -374t-287 -138z" />
    <glyph glyph-name="ugrave" unicode="&#xf9;" 
d="M457 1434l110 -226h-41l-110 226h41zM360 20q78 0 147 38t99 77l31 39l115 809h41l-138 -983h-41l15 102h-11q-38 -44 -117 -84q-79 -39 -147 -38q-132 0 -202 85t-52 222l99 696h41l-99 -696q-16 -123 43 -195t176 -72z" />
    <glyph glyph-name="uacute" unicode="&#xfa;" 
d="M485 1208l177 226h40l-176 -226h-41zM360 20q78 0 147 38t99 77l31 39l115 809h41l-138 -983h-41l15 102h-11q-38 -44 -117 -84q-79 -39 -147 -38q-132 0 -202 85t-52 222l99 696h41l-99 -696q-16 -123 43 -195t176 -72z" />
    <glyph glyph-name="ucircumflex" unicode="&#xfb;" 
d="M580 1434l151 -226h-41l-135 195l-193 -195h-40l217 226h41zM360 20q78 0 147 38t99 77l31 39l115 809h41l-138 -983h-41l15 102h-11q-38 -44 -117 -84q-79 -39 -147 -38q-132 0 -202 85t-52 222l99 696h41l-99 -696q-16 -123 43 -195t176 -72z" />
    <glyph glyph-name="udieresis" unicode="&#xfc;" 
d="M631 1290l8 62h61l-8 -62h-61zM385 1290l8 62h62l-9 -62h-61zM360 20q78 0 147 38t99 77l31 39l115 809h41l-138 -983h-41l15 102h-11q-38 -44 -117 -84q-79 -39 -147 -38q-132 0 -202 85t-52 222l99 696h41l-99 -696q-16 -123 43 -195t176 -72z" />
    <glyph glyph-name="yacute" unicode="&#xfd;" horiz-adv-x="757" 
d="M403 1208l177 226h41l-177 -226h-41zM100 -225q51 0 80 61l76 164l-160 983h41l148 -911l405 911h41l-510 -1147q-25 -55 -53 -79t-74 -23h-31l7 41h30z" />
    <glyph glyph-name="thorn" unicode="&#xfe;" horiz-adv-x="942" 
d="M494 963q-78 0 -148 -39t-100 -76l-31 -39l-90 -635q6 -18 40 -63t90 -68q56 -22 105 -23q139 0 256 126t148 346t-50 345q-81 126 -220 126zM498 1004q156 0 248 -138t58 -374q-32 -236 -163 -374t-287 -138q-68 0 -125 30t-79 62l-23 30h-10l-54 -368h-40l239 1700h41
l-78 -553h11q38 44 116 84q78 39 146 39z" />
    <glyph glyph-name="ydieresis" unicode="&#xff;" horiz-adv-x="757" 
d="M549 1290l8 62h61l-8 -62h-61zM303 1290l8 62h62l-8 -62h-62zM100 -225q51 0 80 61l76 164l-160 983h41l148 -911l405 911h41l-510 -1147q-25 -55 -53 -79t-74 -23h-31l7 41h30z" />
    <glyph glyph-name="Amacron" unicode="&#x100;" horiz-adv-x="1177" 
d="M537 1751h389l-6 -41h-390zM674 1372l-451 -942h645l-184 942h-10zM713 1434l280 -1434h-41l-80 389h-665l-187 -389h-40l682 1434h51z" />
    <glyph glyph-name="amacron" unicode="&#x101;" horiz-adv-x="952" 
d="M373 1341h389l-6 -41h-389zM381 20q79 0 147 38t99 77l30 39l91 635q-5 14 -28 47q-73 104 -209 106q-136 1 -254 -125q-119 -126 -149 -345q-30 -220 52 -346t221 -126zM649 102h-10q-37 -43 -117 -83t-147 -39q-154 0 -247 138t-60 374q36 236 166 374t284 138
q68 0 125 -31t82 -62l23 -30h10l14 102h41l-115 -819l-12 -164h-41z" />
    <glyph glyph-name="Abreve" unicode="&#x102;" horiz-adv-x="1177" 
d="M713 1618q-92 0 -143 59q-50 59 -42 166h41q-8 -184 150 -184t199 184h40q-23 -105 -88 -165t-157 -60zM674 1372l-451 -942h645l-184 942h-10zM713 1434l280 -1434h-41l-80 389h-665l-187 -389h-40l682 1434h51z" />
    <glyph glyph-name="abreve" unicode="&#x103;" horiz-adv-x="952" 
d="M547 1208q-92 0 -141 60t-41 166h41q-12 -184 147 -185q158 0 201 185h41q-23 -106 -89 -166t-159 -60zM381 20q79 0 147 38t99 77l30 39l91 635q-5 14 -28 47q-73 104 -209 106q-136 1 -254 -125q-119 -126 -149 -345q-30 -220 52 -346t221 -126zM649 102h-10
q-37 -43 -117 -83t-147 -39q-154 0 -247 138t-60 374q36 236 166 374t284 138q68 0 125 -31t82 -62l23 -30h10l14 102h41l-115 -819l-12 -164h-41z" />
    <glyph glyph-name="Aogonek" unicode="&#x104;" horiz-adv-x="1177" 
d="M674 1372l-451 -942h645l-184 942h-10zM870 -389q-80 0 -118 40t-30 101q9 60 66 122t111 93l53 33l-80 389h-665l-187 -389h-40l682 1434h51l280 -1434q-79 -44 -149 -118q-72 -73 -80 -124t20 -79q28 -27 88 -27q59 0 117 41l17 -31q-56 -51 -136 -51z" />
    <glyph glyph-name="aogonek" unicode="&#x105;" horiz-adv-x="952" 
d="M381 20q79 0 147 38t99 77l30 39l91 635q-5 14 -28 47q-73 104 -209 106q-136 1 -254 -125q-119 -126 -149 -345q-30 -220 52 -346t221 -126zM562 -389q-79 0 -118 40q-40 40 -30 101q10 60 67 122t111 93l53 33l4 102h-10q-37 -43 -117 -83t-147 -39q-154 0 -247 138
t-60 374q36 236 166 374t284 138q68 0 125 -31t82 -62l23 -30h10l14 102h41l-115 -819l-12 -164q-78 -44 -149 -117q-72 -74 -80 -125q-7 -51 21 -79q28 -27 87 -27t117 41l16 -31q-57 -51 -136 -51z" />
    <glyph glyph-name="Cacute" unicode="&#x106;" horiz-adv-x="1208" 
d="M780 1618l174 225h41l-174 -225h-41zM797 1454q136 0 230 -71t126 -121l14 -23l-37 -31q-63 126 -213 183t-321 -26q-211 -103 -329 -354q-62 -134 -85 -294q-45 -315 82 -505t332 -192q141 0 257 84q117 84 159 138l18 24l27 -20q-7 -10 -21 -28t-61 -65
q-47 -46 -97 -81t-129 -64t-159 -28q-219 0 -358 203q-138 204 -91 534q45 329 241 533t415 204z" />
    <glyph glyph-name="cacute" unicode="&#x107;" horiz-adv-x="839" 
d="M506 1208l176 226h41l-176 -226h-41zM375 -20q-154 0 -247 138t-60 374q36 236 166 374t284 138q104 0 165 -51t91 -103l-35 -21q-8 14 -24 37q-17 23 -75 60t-126 37q-139 0 -257 -126q-119 -126 -149 -345q-30 -220 52 -346t221 -126q77 0 149 41t105 82l35 41l28 -20
q-10 -22 -48 -60t-72 -62q-88 -62 -203 -62z" />
    <glyph glyph-name="Ccircumflex" unicode="&#x108;" horiz-adv-x="1208" 
d="M872 1843l154 -225h-41l-137 194l-191 -194h-41l215 225h41zM797 1454q136 0 230 -71t126 -121l14 -23l-37 -31q-63 126 -213 183t-321 -26q-211 -103 -329 -354q-62 -134 -85 -294q-45 -315 82 -505t332 -192q141 0 257 84q117 84 159 138l18 24l27 -20q-7 -10 -21 -28
t-61 -65q-47 -46 -97 -81t-129 -64t-159 -28q-219 0 -358 203q-138 204 -91 534q45 329 241 533t415 204z" />
    <glyph glyph-name="ccircumflex" unicode="&#x109;" horiz-adv-x="839" 
d="M580 1434l151 -226h-41l-135 195l-193 -195h-40l217 226h41zM375 -20q-154 0 -247 138t-60 374q36 236 166 374t284 138q104 0 165 -51t91 -103l-35 -21q-8 14 -24 37q-17 23 -75 60t-126 37q-139 0 -257 -126q-119 -126 -149 -345q-30 -220 52 -346t221 -126
q77 0 149 41t105 82l35 41l28 -20q-10 -22 -48 -60t-72 -62q-88 -62 -203 -62z" />
    <glyph glyph-name="Ccaron" unicode="&#x10c;" horiz-adv-x="1208" 
d="M801 1618l-154 225h41l137 -194l191 194h41l-215 -225h-41zM797 1454q136 0 230 -71t126 -121l14 -23l-37 -31q-63 126 -213 183t-321 -26q-211 -103 -329 -354q-62 -134 -85 -294q-45 -315 82 -505t332 -192q141 0 257 84q117 84 159 138l18 24l27 -20q-7 -10 -21 -28
t-61 -65q-47 -46 -97 -81t-129 -64t-159 -28q-219 0 -358 203q-138 204 -91 534q45 329 241 533t415 204z" />
    <glyph glyph-name="ccaron" unicode="&#x10d;" horiz-adv-x="839" 
d="M506 1208l-152 226h41l137 -195l191 195h41l-217 -226h-41zM375 -20q-154 0 -247 138t-60 374q36 236 166 374t284 138q104 0 165 -51t91 -103l-35 -21q-8 14 -24 37q-17 23 -75 60t-126 37q-139 0 -257 -126q-119 -126 -149 -345q-30 -220 52 -346t221 -126q77 0 149 41
t105 82l35 41l28 -20q-10 -22 -48 -60t-72 -62q-88 -62 -203 -62z" />
    <glyph glyph-name="Dcaron" unicode="&#x10e;" horiz-adv-x="1269" 
d="M657 1618l-153 225h41l137 -194l190 194h41l-215 -225h-41zM647 1413q-86 0 -160 -12t-102 -25l-31 -14l-186 -1321h307q211 -1 387 183t221 497t-86 503t-350 189zM662 1454q224 0 366 -203t96 -531q-45 -328 -236 -524t-417 -196h-348l194 1393q121 61 345 61z" />
    <glyph glyph-name="dcaron" unicode="&#x10f;" horiz-adv-x="993" 
d="M1038 1352h-41l13 82h82l-9 -62q-5 -40 -27 -66t-40 -32l-19 -4l-8 20q43 11 49 62zM381 20q79 0 147 38t99 77l30 39l91 635q-5 14 -28 47q-73 104 -209 106q-136 1 -254 -125q-119 -126 -149 -345q-30 -220 52 -346t221 -126zM635 0l14 102h-10q-37 -43 -117 -83
t-147 -39q-154 0 -247 138t-60 374q36 236 166 374t284 138q68 0 125 -31t82 -62l23 -30h10l78 553h41l-201 -1434h-41z" />
    <glyph glyph-name="Dcroat" unicode="&#x110;" horiz-adv-x="1269" 
d="M647 1413q-86 0 -160 -12t-102 -25l-31 -14l-53 -379h348l-6 -41h-348l-127 -901h307q211 -1 387 183t221 497t-86 503t-350 189zM662 1454q224 0 366 -203t96 -531q-45 -328 -236 -524t-417 -196h-348l131 942h-143l6 41h143l57 410q121 61 345 61z" />
    <glyph glyph-name="dcroat" unicode="&#x111;" horiz-adv-x="962" 
d="M381 20q79 0 147 38t99 77l30 39l78 553q-6 18 -38 63q-33 45 -89 67q-57 23 -106 24q-152 0 -260 -111q-108 -112 -139 -320q-29 -208 49 -319t229 -111zM508 922q68 0 125 -31t80 -62l22 -30h10l48 327h-236l6 41h236l37 267h41l-37 -267h123l-7 -41h-122l-158 -1126
h-41l14 102h-10q-37 -43 -117 -83t-147 -39q-168 0 -256 124q-89 124 -57 346q32 224 155 348t291 124z" />
    <glyph glyph-name="Emacron" unicode="&#x112;" horiz-adv-x="1044" 
d="M522 1751h389l-6 -41h-389zM123 0l201 1434h696l-6 -41h-656l-57 -410h573l-6 -41h-573l-127 -901h696l-4 -41h-737z" />
    <glyph glyph-name="emacron" unicode="&#x113;" 
d="M352 1341h389l-6 -41h-389zM494 963q-122 0 -228 -109t-149 -301h635q12 193 -62 301t-196 109zM381 20q77 0 149 41t105 82l35 41l28 -20q-10 -22 -48 -60t-72 -62q-88 -62 -203 -62q-154 0 -247 138t-60 377q34 239 158 373t272 136q148 0 234 -132q87 -132 56 -360
h-675l-4 -20q-31 -220 51 -346t221 -126z" />
    <glyph glyph-name="Edotaccent" unicode="&#x116;" horiz-adv-x="1044" 
d="M678 1700l8 61h62l-9 -61h-61zM123 0l201 1434h696l-6 -41h-656l-57 -410h573l-6 -41h-573l-127 -901h696l-4 -41h-737z" />
    <glyph glyph-name="edotaccent" unicode="&#x117;" 
d="M520 1372l8 62h62l-8 -62h-62zM494 963q-122 0 -228 -109t-149 -301h635q12 193 -62 301t-196 109zM381 20q77 0 149 41t105 82l35 41l28 -20q-10 -22 -48 -60t-72 -62q-88 -62 -203 -62q-154 0 -247 138t-60 377q34 239 158 373t272 136q148 0 234 -132q87 -132 56 -360
h-675l-4 -20q-31 -220 51 -346t221 -126z" />
    <glyph glyph-name="Eogonek" unicode="&#x118;" horiz-adv-x="1044" 
d="M736 -389q-79 0 -118 40q-40 40 -30 101q10 60 67 122t111 93l53 33h-696l201 1434h696l-6 -41h-656l-57 -410h573l-6 -41h-573l-127 -901h696l-4 -41q-78 -44 -149 -117q-72 -74 -80 -125q-7 -51 21 -79q28 -27 83 -27t121 41l16 -31q-57 -51 -136 -51z" />
    <glyph glyph-name="eogonek" unicode="&#x119;" 
d="M494 963q-122 0 -228 -109t-149 -301h635q12 193 -62 301t-196 109zM368 -389q-79 0 -118 40t-30 99q10 60 58 116t93 85l45 29h-41q-154 0 -247 138t-60 377q34 239 158 373t272 136q148 0 234 -132q87 -132 56 -360h-675l-4 -20q-31 -220 51 -346t221 -126q77 0 149 41
t105 82l35 41l28 -20q-30 -45 -90 -93t-116 -71q-81 -45 -151 -118q-71 -73 -79 -124t21 -79q29 -27 84 -27t120 41l17 -31q-57 -51 -136 -51z" />
    <glyph glyph-name="Ecaron" unicode="&#x11a;" horiz-adv-x="1044" 
d="M678 1618l-154 225h41l137 -194l191 194h41l-215 -225h-41zM123 0l201 1434h696l-6 -41h-656l-57 -410h573l-6 -41h-573l-127 -901h696l-4 -41h-737z" />
    <glyph glyph-name="ecaron" unicode="&#x11b;" 
d="M506 1208l-152 226h41l137 -195l191 195h41l-217 -226h-41zM494 963q-122 0 -228 -109t-149 -301h635q12 193 -62 301t-196 109zM381 20q77 0 149 41t105 82l35 41l28 -20q-10 -22 -48 -60t-72 -62q-88 -62 -203 -62q-154 0 -247 138t-60 377q34 239 158 373t272 136
q148 0 234 -132q87 -132 56 -360h-675l-4 -20q-31 -220 51 -346t221 -126z" />
    <glyph glyph-name="Gbreve" unicode="&#x11e;" horiz-adv-x="1310" 
d="M801 1618q-92 0 -143 59q-50 59 -42 166h41q-10 -184 149 -184t200 184h41q-23 -105 -89 -165t-157 -60zM585 -20q-214 0 -353 203q-138 204 -91 534q45 329 241 533t415 204q136 0 230 -71t126 -121l14 -23l-37 -31q-63 126 -213 183t-321 -26q-211 -103 -329 -354
q-62 -134 -85 -294q-45 -315 82 -505t332 -192q165 0 325 133q36 30 54 52l18 20l58 410h-389l6 41h430l-94 -676h-41l20 154h-10q-174 -174 -388 -174z" />
    <glyph glyph-name="gbreve" unicode="&#x11f;" horiz-adv-x="942" 
d="M547 1208q-92 0 -141 60t-41 166h41q-12 -184 147 -185q158 0 201 185h41q-23 -106 -89 -166t-159 -60zM381 20q79 0 147 38t99 77l30 39l91 635q-5 14 -28 47q-73 104 -209 106q-136 1 -254 -125q-119 -126 -149 -345q-30 -220 52 -346t221 -126zM338 -287
q-78 0 -140 26t-87 52l-25 25l25 30q27 -34 96 -63t137 -29q117 0 197 72t96 194l12 82h-10q-37 -43 -117 -83t-147 -39q-154 0 -247 138t-60 374q36 236 166 374t284 138q68 0 125 -31t82 -62l23 -30h10l14 102h41l-135 -963q-20 -137 -114 -222t-226 -85z" />
    <glyph glyph-name="Gcommaaccent" unicode="&#x122;" horiz-adv-x="1310" 
d="M561 -225h-41l12 82h82l-10 -62q-6 -41 -28 -67t-39 -31l-19 -4l-6 20q43 11 49 62zM585 -20q-214 0 -353 203q-138 204 -91 534q45 329 241 533t415 204q136 0 230 -71t126 -121l14 -23l-37 -31q-63 126 -213 183t-321 -26q-211 -103 -329 -354q-62 -134 -85 -294
q-45 -315 82 -505t332 -192q165 0 325 133q36 30 54 52l18 20l58 410h-389l6 41h430l-94 -676h-41l20 154h-10q-174 -174 -388 -174z" />
    <glyph glyph-name="gcommaaccent" unicode="&#x123;" horiz-adv-x="942" 
d="M563 1321h41l-10 -82h-82l8 61q6 41 28 67t40 30l18 6l6 -21q-41 -10 -49 -61zM381 20q79 0 147 38t99 77l30 39l91 635q-5 14 -28 47q-73 104 -209 106q-136 1 -254 -125q-119 -126 -149 -345q-30 -220 52 -346t221 -126zM338 -287q-78 0 -140 26t-87 52l-25 25l25 30
q27 -34 96 -63t137 -29q117 0 197 72t96 194l12 82h-10q-37 -43 -117 -83t-147 -39q-154 0 -247 138t-60 374q36 236 166 374t284 138q68 0 125 -31t82 -62l23 -30h10l14 102h41l-135 -963q-20 -137 -114 -222t-226 -85z" />
    <glyph glyph-name="Imacron" unicode="&#x12a;" horiz-adv-x="512" 
d="M205 1751h389l-6 -41h-389zM133 0l201 1434h41l-201 -1434h-41z" />
    <glyph glyph-name="imacron" unicode="&#x12b;" horiz-adv-x="368" 
d="M76 1341h389l-6 -41h-389zM61 0l138 983h41l-138 -983h-41z" />
    <glyph glyph-name="Iogonek" unicode="&#x12e;" horiz-adv-x="512" 
d="M50 -389q-79 0 -117 40q-37 40 -29 101q8 60 65 122t111 93l53 33l201 1434h41l-201 -1434q-78 -44 -149 -117q-72 -74 -80 -125q-7 -51 21 -79q28 -27 87 -27t117 41l16 -31q-57 -51 -136 -51z" />
    <glyph glyph-name="iogonek" unicode="&#x12f;" horiz-adv-x="378" 
d="M233 1372l9 62h61l-8 -62h-62zM-31 -389q-79 0 -117 40t-29 101q9 60 65 122t110 93l53 33l137 983h41l-137 -983q-8 -4 -22 -13q-190 -122 -207 -239q-7 -41 21 -69q28 -27 87 -27t117 41l16 -31q-57 -51 -135 -51z" />
    <glyph glyph-name="Idotaccent" unicode="&#x130;" horiz-adv-x="512" 
d="M360 1700l9 61h61l-8 -61h-62zM133 0l201 1434h41l-201 -1434h-41z" />
    <glyph glyph-name="dotlessi" unicode="&#x131;" horiz-adv-x="368" 
d="M61 0l138 983h41l-138 -983h-41z" />
    <glyph glyph-name="Kcommaaccent" unicode="&#x136;" horiz-adv-x="1157" 
d="M500 -225h-41l12 82h82l-10 -62q-13 -86 -86 -102l-6 20q43 11 49 62zM1112 1434l-571 -635l452 -799h-51l-436 768l-281 -317l-61 -451h-41l201 1434h41l-129 -922l825 922h51z" />
    <glyph glyph-name="kcommaaccent" unicode="&#x137;" horiz-adv-x="839" 
d="M326 -225h-41l12 82h82l-10 -62q-13 -86 -86 -102l-7 20q44 11 50 62zM145 307l-43 -307h-41l201 1434h41l-149 -1065l587 614h52l-410 -430l313 -553h-51l-297 522z" />
    <glyph glyph-name="Lacute" unicode="&#x139;" horiz-adv-x="1024" 
d="M350 1618l174 225h41l-174 -225h-41zM123 0l201 1434h41l-197 -1393h676l-4 -41h-717z" />
    <glyph glyph-name="lacute" unicode="&#x13a;" horiz-adv-x="409" 
d="M289 1618l174 225h41l-174 -225h-41zM168 41h20l-14 -41h-10q-48 0 -72 28t-16 74l186 1332h41l-186 -1332q-10 -61 51 -61z" />
    <glyph glyph-name="Lcommaaccent" unicode="&#x13b;" horiz-adv-x="1024" 
d="M449 -225h-41l12 82h82l-10 -62q-13 -86 -86 -102l-7 20q44 11 50 62zM123 0l201 1434h41l-197 -1393h676l-4 -41h-717z" />
    <glyph glyph-name="lcommaaccent" unicode="&#x13c;" horiz-adv-x="409" 
d="M90 -225h-41l12 82h82l-10 -62q-6 -41 -28 -67t-39 -31l-19 -4l-6 20q43 11 49 62zM168 41h20l-14 -41h-10q-48 0 -72 28t-16 74l186 1332h41l-186 -1332q-10 -61 51 -61z" />
    <glyph glyph-name="Lcaron" unicode="&#x13d;" horiz-adv-x="1024" 
d="M578 1352h-41l12 82h82l-8 -62q-13 -86 -86 -102l-9 20q44 11 50 62zM123 0l201 1434h41l-197 -1393h676l-4 -41h-717z" />
    <glyph glyph-name="lcaron" unicode="&#x13e;" horiz-adv-x="419" 
d="M465 1352h-41l12 82h82l-8 -62q-13 -86 -86 -102l-8 20q43 11 49 62zM168 41h20l-14 -41h-10q-48 0 -72 28t-16 74l186 1332h41l-186 -1332q-10 -61 51 -61z" />
    <glyph glyph-name="Lslash" unicode="&#x141;" horiz-adv-x="1034" 
d="M133 0l86 614l-188 -102l4 41l188 102l111 779h41l-107 -758l455 246l-6 -41l-455 -246l-84 -594h676l-4 -41h-717z" />
    <glyph glyph-name="lslash" unicode="&#x142;" horiz-adv-x="399" 
d="M168 41h20l-14 -41h-10q-47 0 -72 29t-16 73l96 697l-135 -92l6 41l135 92l84 594h41l-80 -564l170 113l-6 -41l-170 -113l-100 -727q-10 -61 51 -61z" />
    <glyph glyph-name="Nacute" unicode="&#x143;" horiz-adv-x="1372" 
d="M770 1618l174 225h41l-174 -225h-41zM1004 0l-644 1331h-10l-186 -1331h-41l201 1434h41l643 -1332h10l186 1332h41l-201 -1434h-40z" />
    <glyph glyph-name="nacute" unicode="&#x144;" 
d="M465 1208l176 226h41l-176 -226h-41zM494 963q-78 0 -148 -39t-100 -76l-31 -39l-113 -809h-41l138 983h41l-15 -102h11q38 44 116 84q78 39 146 39q130 0 202 -85t52 -223l-97 -696h-41l97 696q18 123 -41 195t-176 72z" />
    <glyph glyph-name="Ncommaaccent" unicode="&#x145;" horiz-adv-x="1372" 
d="M551 -225h-41l12 82h82l-10 -62q-13 -86 -86 -102l-6 20q43 11 49 62zM1004 0l-644 1331h-10l-186 -1331h-41l201 1434h41l643 -1332h10l186 1332h41l-201 -1434h-40z" />
    <glyph glyph-name="ncommaaccent" unicode="&#x146;" 
d="M326 -225h-41l12 82h82l-10 -62q-13 -86 -86 -102l-7 20q44 11 50 62zM494 963q-78 0 -148 -39t-100 -76l-31 -39l-113 -809h-41l138 983h41l-15 -102h11q38 44 116 84q78 39 146 39q130 0 202 -85t52 -223l-97 -696h-41l97 696q18 123 -41 195t-176 72z" />
    <glyph glyph-name="Ncaron" unicode="&#x147;" horiz-adv-x="1372" 
d="M791 1618l-154 225h41l137 -194l191 194h41l-216 -225h-40zM1004 0l-644 1331h-10l-186 -1331h-41l201 1434h41l643 -1332h10l186 1332h41l-201 -1434h-40z" />
    <glyph glyph-name="ncaron" unicode="&#x148;" 
d="M506 1208l-152 226h41l137 -195l191 195h41l-217 -226h-41zM494 963q-78 0 -148 -39t-100 -76l-31 -39l-113 -809h-41l138 983h41l-15 -102h11q38 44 116 84q78 39 146 39q130 0 202 -85t52 -223l-97 -696h-41l97 696q18 123 -41 195t-176 72z" />
    <glyph glyph-name="Omacron" unicode="&#x14c;" horiz-adv-x="1392" 
d="M645 1751h389l-6 -41h-389zM791 1413q-97 0 -195 -48q-212 -103 -329 -354q-62 -134 -85 -294q-45 -315 82 -505t332 -192q205 0 385 190t224 506t-83 506t-331 191zM797 1454q219 0 357 -204t92 -534t-242 -533t-414 -203q-219 0 -358 203q-138 204 -91 534
q45 329 241 533t415 204z" />
    <glyph glyph-name="omacron" unicode="&#x14d;" horiz-adv-x="962" 
d="M373 1341h389l-6 -41h-389zM381 20q139 0 256 126t147 346t-50 345q-81 126 -220 126q-138 0 -256 -126t-149 -345q-31 -220 51 -346t221 -126zM376 -20q-155 0 -248 138t-60 374q36 236 166 374t285 138t247 -138t59 -374t-163 -374t-286 -138z" />
    <glyph glyph-name="Ohungarumlaut" unicode="&#x150;" horiz-adv-x="1392" 
d="M944 1618l174 225h41l-174 -225h-41zM657 1618l174 225h41l-174 -225h-41zM791 1413q-97 0 -195 -48q-212 -103 -329 -354q-62 -134 -85 -294q-45 -315 82 -505t332 -192q205 0 385 190t224 506t-83 506t-331 191zM797 1454q219 0 357 -204t92 -534t-242 -533t-414 -203
q-219 0 -358 203q-138 204 -91 534q45 329 241 533t415 204z" />
    <glyph glyph-name="ohungarumlaut" unicode="&#x151;" horiz-adv-x="962" 
d="M670 1208l176 226h41l-176 -226h-41zM383 1208l176 226h41l-176 -226h-41zM381 20q139 0 256 126t147 346t-50 345q-81 126 -220 126q-138 0 -256 -126t-149 -345q-31 -220 51 -346t221 -126zM376 -20q-155 0 -248 138t-60 374q36 236 166 374t285 138t247 -138t59 -374
t-163 -374t-286 -138z" />
    <glyph glyph-name="OE" unicode="&#x152;" horiz-adv-x="1587" 
d="M788 1393q-211 1 -387 -183t-220 -493t81 -493t336 -183h113l190 1352h-113zM594 0q-225 0 -362 197q-136 197 -91 521t237 520t417 196h768l-7 -41h-614l-57 -410h532l-6 -41h-532l-127 -901h655l-4 -41h-809z" />
    <glyph glyph-name="oe" unicode="&#x153;" horiz-adv-x="1556" 
d="M360 20q132 0 242 123t142 349t-43 348q-75 123 -207 123t-242 -123t-143 -348q-33 -224 43 -348t208 -124zM1149 963q-123 0 -218 -109t-138 -301h593q12 193 -51 301t-186 109zM1153 1004q143 0 222 -134t48 -358h-635l-4 -20q-33 -224 43 -348t209 -124q78 0 145 41
t95 82l29 41l28 -20q-12 -24 -44 -60q-108 -124 -238 -124q-168 0 -238 111q-55 87 -68 173l-4 33h-8q-15 -44 -52 -105q-38 -61 -78 -102q-39 -41 -107 -76t-142 -34q-147 0 -233 135t-53 377q34 242 158 376t272 136q74 0 131 -33t86 -80q60 -97 69 -172l4 -33h9
q4 12 11 34t37 77t67 96q38 41 103 76t138 35z" />
    <glyph glyph-name="Racute" unicode="&#x154;" horiz-adv-x="1310" 
d="M729 1618l174 225h41l-174 -225h-41zM739 1413q-115 0 -211 -12t-135 -25l-39 -14l-114 -809h399q203 0 350 125t173 309t-89 305t-334 121zM745 1454q233 0 359 -134t98 -337q-14 -100 -62 -183t-106 -131q-123 -103 -207 -124l-36 -13l-3 -10l277 -522h-51l-266 512
h-512l-72 -512h-41l194 1393q152 61 428 61z" />
    <glyph glyph-name="racute" unicode="&#x155;" horiz-adv-x="624" 
d="M403 1208l177 226h41l-177 -226h-41zM439 1004q53 0 95 -31t56 -62l14 -30l-33 -21q-2 4 -5 11q-23 55 -91 84q-68 30 -152 -31q-54 -39 -81 -76l-27 -39l-113 -809h-41l138 983h41l-15 -102h11q10 14 27 34q17 21 71 55t105 34z" />
    <glyph glyph-name="Rcommaaccent" unicode="&#x156;" horiz-adv-x="1310" 
d="M530 -225h-41l13 82h82l-11 -62q-5 -41 -27 -67t-40 -31l-19 -4l-6 20q43 11 49 62zM739 1413q-115 0 -211 -12t-135 -25l-39 -14l-114 -809h399q203 0 350 125t173 309t-89 305t-334 121zM745 1454q233 0 359 -134t98 -337q-14 -100 -62 -183t-106 -131
q-123 -103 -207 -124l-36 -13l-3 -10l277 -522h-51l-266 512h-512l-72 -512h-41l194 1393q152 61 428 61z" />
    <glyph glyph-name="rcommaaccent" unicode="&#x157;" horiz-adv-x="624" 
d="M49 -225h-41l12 82h82l-10 -62q-6 -41 -28 -67t-39 -31l-19 -4l-6 20q43 11 49 62zM439 1004q53 0 95 -31t56 -62l14 -30l-33 -21q-2 4 -5 11q-23 55 -91 84q-68 30 -152 -31q-54 -39 -81 -76l-27 -39l-113 -809h-41l138 983h41l-15 -102h11q10 14 27 34q17 21 71 55
t105 34z" />
    <glyph glyph-name="Rcaron" unicode="&#x158;" horiz-adv-x="1310" 
d="M750 1618l-154 225h41l137 -194l191 194h41l-215 -225h-41zM739 1413q-115 0 -211 -12t-135 -25l-39 -14l-114 -809h399q203 0 350 125t173 309t-89 305t-334 121zM745 1454q233 0 359 -134t98 -337q-14 -100 -62 -183t-106 -131q-123 -103 -207 -124l-36 -13l-3 -10
l277 -522h-51l-266 512h-512l-72 -512h-41l194 1393q152 61 428 61z" />
    <glyph glyph-name="rcaron" unicode="&#x159;" horiz-adv-x="624" 
d="M414 1208l-152 226h41l137 -195l191 195h41l-217 -226h-41zM439 1004q53 0 95 -31t56 -62l14 -30l-33 -21q-2 4 -5 11q-23 55 -91 84q-68 30 -152 -31q-54 -39 -81 -76l-27 -39l-113 -809h-41l138 983h41l-15 -102h11q10 14 27 34q17 21 71 55t105 34z" />
    <glyph glyph-name="Sacute" unicode="&#x15a;" horiz-adv-x="1085" 
d="M616 1618l175 225h40l-174 -225h-41zM432 20q160 0 279 102t141 257q23 183 -104 275q-71 52 -209 113t-195 99t-88 102t-18 148q20 146 131 242t273 96t274 -138q26 -32 36 -54l11 -23l-37 -31q-7 26 -34 67q-28 41 -58 67t-86 49q-55 23 -121 22q-137 0 -233 -83
t-116 -222q-19 -139 112 -217q58 -35 130 -66t144 -65t129 -81q127 -103 101 -286q-26 -184 -159 -299t-309 -114q-80 0 -151 28t-113 66q-91 85 -117 143l-12 29l35 20q11 -28 50 -77q38 -50 76 -83q38 -34 102 -60t136 -26z" />
    <glyph glyph-name="sacute" unicode="&#x15b;" horiz-adv-x="778" 
d="M414 1208l176 226h41l-176 -226h-41zM394 1004q94 0 157 -39t88 -76l23 -39l-35 -21q-9 14 -25 37t-74 60t-139 37q-81 -1 -145 -55t-75 -136t35 -132t117 -78t143 -58t115 -90q45 -61 29 -168t-109 -187q-93 -79 -214 -79t-189 61q-67 61 -86 102l-8 21l33 20
q6 -17 32 -52q83 -110 222 -112q106 0 185 68t92 160q23 162 -148 228q-72 28 -143 56t-115 88q-44 58 -32 153q13 95 92 163q80 68 174 68z" />
    <glyph glyph-name="Scedilla" unicode="&#x15e;" horiz-adv-x="1085" 
d="M432 20q160 0 279 102t141 257q23 183 -104 275q-71 52 -209 113t-195 99t-88 102t-18 148q20 146 131 242t273 96t274 -138q26 -32 36 -54l11 -23l-37 -31q-7 26 -34 67q-28 41 -58 67t-86 49q-55 23 -121 22q-137 0 -233 -83t-116 -222q-19 -139 112 -217
q58 -35 130 -66t144 -65t129 -81q57 -46 86 -122t14 -178q-25 -168 -150 -280t-297 -119l-12 -82h21q61 0 97 -39t28 -99t-66 -104q-58 -45 -118 -45q-106 0 -158 37l-21 14l25 31q57 -41 132 -41q74 0 116 32t48 76t-18 70q-25 27 -69 27h-62l17 123q-78 2 -145 30t-107 68
q-89 88 -109 141l-12 27l35 20q11 -28 50 -77q38 -50 76 -83q38 -34 102 -60t136 -26z" />
    <glyph glyph-name="scedilla" unicode="&#x15f;" horiz-adv-x="778" 
d="M394 1004q94 0 157 -39t88 -76l23 -39l-35 -21q-9 14 -25 37t-74 60t-139 37q-81 -1 -145 -55t-75 -136t35 -132t117 -78t143 -58t115 -90q43 -61 29 -167q-14 -107 -101 -183t-204 -84l-12 -82h20q61 0 97 -39t28 -99t-65 -104q-57 -45 -140 -45t-137 37l-20 14l24 31
q56 -41 132 -41t118 32t47 76q6 44 -18 70q-25 27 -70 27h-61l16 123q-86 4 -150 50t-87 89l-23 45l33 20q6 -17 32 -52q83 -110 222 -112q106 0 185 68t92 160q23 162 -148 228q-72 28 -143 56t-115 88q-44 58 -32 153q13 95 92 163q80 68 174 68z" />
    <glyph glyph-name="Scaron" unicode="&#x160;" horiz-adv-x="1085" 
d="M637 1618l-154 225h41l138 -194l190 194h41l-215 -225h-41zM432 20q160 0 279 102t141 257q23 183 -104 275q-71 52 -209 113t-195 99t-88 102t-18 148q20 146 131 242t273 96t274 -138q26 -32 36 -54l11 -23l-37 -31q-7 26 -34 67q-28 41 -58 67t-86 49q-55 23 -121 22
q-137 0 -233 -83t-116 -222q-19 -139 112 -217q58 -35 130 -66t144 -65t129 -81q127 -103 101 -286q-26 -184 -159 -299t-309 -114q-80 0 -151 28t-113 66q-91 85 -117 143l-12 29l35 20q11 -28 50 -77q38 -50 76 -83q38 -34 102 -60t136 -26z" />
    <glyph glyph-name="scaron" unicode="&#x161;" horiz-adv-x="778" 
d="M414 1208l-152 226h41l137 -195l191 195h41l-217 -226h-41zM394 1004q94 0 157 -39t88 -76l23 -39l-35 -21q-9 14 -25 37t-74 60t-139 37q-81 -1 -145 -55t-75 -136t35 -132t117 -78t143 -58t115 -90q45 -61 29 -168t-109 -187q-93 -79 -214 -79t-189 61q-67 61 -86 102
l-8 21l33 20q6 -17 32 -52q83 -110 222 -112q106 0 185 68t92 160q23 162 -148 228q-72 28 -143 56t-115 88q-44 58 -32 153q13 95 92 163q80 68 174 68z" />
    <glyph glyph-name="Tcommaaccent" unicode="&#x162;" horiz-adv-x="942" 
d="M336 -225h-41l12 82h82l-10 -62q-13 -86 -86 -102l-6 20q43 11 49 62zM584 1393l-195 -1393h-41l195 1393h-389l6 41h819l-6 -41h-389z" />
    <glyph glyph-name="tcommaaccent" unicode="&#x163;" horiz-adv-x="501" 
d="M152 -225h-41l12 82h82l-10 -62q-13 -86 -86 -102l-7 20q44 11 50 62zM188 41h113l-14 -41h-103q-48 0 -72 29t-16 73l117 840h-123l6 41h123l35 246l43 20l-37 -266h154l-6 -41h-154l-117 -840q-10 -61 51 -61z" />
    <glyph glyph-name="Tcaron" unicode="&#x164;" horiz-adv-x="942" 
d="M575 1618l-153 225h41l137 -194l191 194h40l-215 -225h-41zM584 1393l-195 -1393h-41l195 1393h-389l6 41h819l-6 -41h-389z" />
    <glyph glyph-name="tcaron" unicode="&#x165;" horiz-adv-x="501" 
d="M485 1352h-41l13 82h82l-9 -62q-6 -40 -28 -66t-39 -32l-19 -4l-8 20q43 11 49 62zM188 41h113l-14 -41h-103q-48 0 -72 29t-16 73l117 840h-123l6 41h123l35 246l43 20l-37 -266h154l-6 -41h-154l-117 -840q-10 -61 51 -61z" />
    <glyph glyph-name="Umacron" unicode="&#x16a;" horiz-adv-x="1372" 
d="M635 1751h389l-6 -41h-389zM580 -20q-209 0 -317 132t-75 359l136 963h41l-136 -963q-31 -213 65 -332t292 -119t324 119t159 332l135 963h41l-135 -963q-33 -227 -177 -359t-353 -132z" />
    <glyph glyph-name="umacron" unicode="&#x16b;" 
d="M352 1341h389l-6 -41h-389zM360 20q78 0 147 38t99 77l31 39l115 809h41l-138 -983h-41l15 102h-11q-38 -44 -117 -84q-79 -39 -147 -38q-132 0 -202 85t-52 222l99 696h41l-99 -696q-16 -123 43 -195t176 -72z" />
    <glyph glyph-name="Uring" unicode="&#x16e;" horiz-adv-x="1372" 
d="M662 1731q10 77 64 125t124 48t110 -48q40 -50 29 -126q-10 -76 -64 -124q-54 -50 -124 -50q-69 0 -109 50t-30 125zM808 1597q54 0 93 36q39 35 47 97t-20 98q-29 36 -84 36q-54 0 -94 -36t-48 -97t22 -97t84 -37zM580 -20q-209 0 -317 132t-75 359l136 963h41
l-136 -963q-31 -213 65 -332t292 -119t324 119t159 332l135 963h41l-135 -963q-33 -227 -177 -359t-353 -132z" />
    <glyph glyph-name="uring" unicode="&#x16f;" 
d="M567 1495q70 0 110 -49t30 -125q-11 -76 -65 -125t-124 -49t-110 49t-29 125q10 76 64 125t124 49zM525 1188q54 0 93 36t48 97q8 61 -21 97t-84 36t-94 -36t-47 -97t22 -97t83 -36zM360 20q78 0 147 38t99 77l31 39l115 809h41l-138 -983h-41l15 102h-11
q-38 -44 -117 -84q-79 -39 -147 -38q-132 0 -202 85t-52 222l99 696h41l-99 -696q-16 -123 43 -195t176 -72z" />
    <glyph glyph-name="Uhungarumlaut" unicode="&#x170;" horiz-adv-x="1372" 
d="M913 1618l174 225h41l-174 -225h-41zM627 1618l174 225h41l-174 -225h-41zM580 -20q-209 0 -317 132t-75 359l136 963h41l-136 -963q-31 -213 65 -332t292 -119t324 119t159 332l135 963h41l-135 -963q-33 -227 -177 -359t-353 -132z" />
    <glyph glyph-name="uhungarumlaut" unicode="&#x171;" 
d="M639 1208l176 226h41l-176 -226h-41zM352 1208l176 226h41l-176 -226h-41zM360 20q78 0 147 38t99 77l31 39l115 809h41l-138 -983h-41l15 102h-11q-38 -44 -117 -84q-79 -39 -147 -38q-132 0 -202 85t-52 222l99 696h41l-99 -696q-16 -123 43 -195t176 -72z" />
    <glyph glyph-name="Uogonek" unicode="&#x172;" horiz-adv-x="1372" 
d="M552 -389q-79 0 -118 40q-40 40 -30 99q10 60 58 116t93 85l45 29h-20q-209 0 -317 132t-75 359l136 963h41l-136 -963q-31 -213 65 -332t292 -119t324 119t159 332l135 963h41l-135 -963q-31 -217 -161 -346t-308 -145q-64 -39 -126 -107q-61 -69 -69 -117t21 -77
q29 -28 89 -27t99 31l17 10l16 -31q-57 -51 -136 -51z" />
    <glyph glyph-name="uogonek" unicode="&#x173;" 
d="M532 -389q-80 0 -118 40t-30 101q8 60 66 122t111 93l53 33l15 102h-11q-38 -44 -117 -84q-79 -39 -147 -38q-132 0 -202 85t-52 222l99 696h41l-99 -696q-16 -123 43 -195t176 -72q78 0 147 38t99 77l31 39l115 809h41l-138 -983q-79 -44 -149 -118q-72 -73 -80 -124
t20 -79q28 -27 84 -27q55 0 121 41l17 -31q-56 -51 -136 -51z" />
    <glyph glyph-name="Ydieresis" unicode="&#x178;" horiz-adv-x="1064" 
d="M760 1700l8 61h61l-8 -61h-61zM514 1700l8 61h62l-9 -61h-61zM410 0l106 758l-356 676h51l328 -625h8l504 625h51l-545 -676l-106 -758h-41z" />
    <glyph glyph-name="Zacute" unicode="&#x179;" horiz-adv-x="1044" 
d="M637 1618l174 225h41l-174 -225h-41zM-20 0l4 41l1020 1352h-768l6 41h819l-6 -41l-1020 -1352h829l-4 -41h-880z" />
    <glyph glyph-name="zacute" unicode="&#x17a;" horiz-adv-x="716" 
d="M403 1208l177 226h41l-177 -226h-41zM152 942l6 41h512l-6 -41l-629 -901h502l-5 -41h-552l4 41l628 901h-460z" />
    <glyph glyph-name="Zdotaccent" unicode="&#x17b;" horiz-adv-x="1044" 
d="M657 1700l9 61h61l-8 -61h-62zM-20 0l4 41l1020 1352h-768l6 41h819l-6 -41l-1020 -1352h829l-4 -41h-880z" />
    <glyph glyph-name="zdotaccent" unicode="&#x17c;" horiz-adv-x="716" 
d="M428 1372l8 62h62l-9 -62h-61zM152 942l6 41h512l-6 -41l-629 -901h502l-5 -41h-552l4 41l628 901h-460z" />
    <glyph glyph-name="Zcaron" unicode="&#x17d;" horiz-adv-x="1044" 
d="M637 1618l-154 225h41l138 -194l190 194h41l-215 -225h-41zM-20 0l4 41l1020 1352h-768l6 41h819l-6 -41l-1020 -1352h829l-4 -41h-880z" />
    <glyph glyph-name="zcaron" unicode="&#x17e;" horiz-adv-x="716" 
d="M414 1208l-152 226h41l137 -195l191 195h41l-217 -226h-41zM152 942l6 41h512l-6 -41l-629 -901h502l-5 -41h-552l4 41l628 901h-460z" />
    <glyph glyph-name="florin" unicode="&#x192;" horiz-adv-x="471" 
d="M393 1352h82l-6 -41h-82q-59 0 -70 -62l-36 -266h143l-6 -41h-144l-155 -1106q-6 -45 -38 -74t-79 -28h-10l-4 41h20q61 0 70 61l155 1106h-122l6 41h123l36 266q6 45 38 74t79 29z" />
    <glyph glyph-name="Scommaaccent" unicode="&#x218;" horiz-adv-x="1085" 
d="M397 -225h-41l13 82h82l-11 -62q-6 -41 -28 -67t-39 -31l-19 -4l-6 20q43 11 49 62zM432 20q160 0 279 102t141 257q23 183 -104 275q-71 52 -209 113t-195 99t-88 102t-18 148q20 146 131 242t273 96t274 -138q26 -32 36 -54l11 -23l-37 -31q-7 26 -34 67q-28 41 -58 67
t-86 49q-55 23 -121 22q-137 0 -233 -83t-116 -222q-19 -139 112 -217q58 -35 130 -66t144 -65t129 -81q127 -103 101 -286q-26 -184 -159 -299t-309 -114q-80 0 -151 28t-113 66q-91 85 -117 143l-12 29l35 20q11 -28 50 -77q38 -50 76 -83q38 -34 102 -60t136 -26z" />
    <glyph glyph-name="scommaaccent" unicode="&#x219;" horiz-adv-x="778" 
d="M254 -225h-41l12 82h82l-10 -62q-13 -86 -86 -102l-6 20q43 11 49 62zM394 1004q94 0 157 -39t88 -76l23 -39l-35 -21q-9 14 -25 37t-74 60t-139 37q-81 -1 -145 -55t-75 -136t35 -132t117 -78t143 -58t115 -90q45 -61 29 -168t-109 -187q-93 -79 -214 -79t-189 61
q-67 61 -86 102l-8 21l33 20q6 -17 32 -52q83 -110 222 -112q106 0 185 68t92 160q23 162 -148 228q-72 28 -143 56t-115 88q-44 58 -32 153q13 95 92 163q80 68 174 68z" />
    <glyph glyph-name="afii57929" unicode="&#x2bc;" horiz-adv-x="204" 
d="M188 1352h-41l13 82h82l-9 -62q-5 -40 -27 -66t-40 -32l-19 -4l-8 20q43 11 49 62z" />
    <glyph glyph-name="circumflex" unicode="&#x2c6;" horiz-adv-x="532" 
d="M385 1434l152 -226h-41l-136 195l-192 -195h-41l217 226h41z" />
    <glyph glyph-name="caron" unicode="&#x2c7;" horiz-adv-x="532" 
d="M311 1208l-151 226h41l137 -195l190 195h41l-217 -226h-41z" />
    <glyph glyph-name="breve" unicode="&#x2d8;" horiz-adv-x="552" 
d="M342 1208q-92 0 -141 60t-41 166h41q-12 -184 147 -185q158 0 201 185h41q-24 -106 -90 -166t-158 -60z" />
    <glyph glyph-name="dotaccent" unicode="&#x2d9;" horiz-adv-x="184" 
d="M152 1372l8 62h61l-8 -62h-61z" />
    <glyph glyph-name="ring" unicode="&#x2da;" horiz-adv-x="450" 
d="M332 1495q70 0 110 -49t29 -125q-10 -76 -64 -125t-124 -49t-110 49t-30 125q11 76 65 125t124 49zM289 1188q55 0 94 36t47 97t-20 97q-29 36 -84 36q-54 0 -94 -36t-48 -97t21 -97t84 -36z" />
    <glyph glyph-name="ogonek" unicode="&#x2db;" horiz-adv-x="419" 
d="M71 -389q-79 0 -118 40t-30 101q9 60 67 122t110 93l54 33h41q-81 -45 -151 -118t-78 -124t20 -79q29 -27 88 -27t116 41l17 -31q-57 -51 -136 -51z" />
    <glyph glyph-name="tilde" unicode="&#x2dc;" horiz-adv-x="573" 
d="M276 1403q46 1 100 -61t89 -62q68 0 100 123h41q-18 -82 -57 -123t-85 -41t-102 61t-90 62q-67 0 -98 -123h-41q18 80 57 122q40 42 86 42z" />
    <glyph glyph-name="hungarumlaut" unicode="&#x2dd;" horiz-adv-x="593" 
d="M414 1208l176 226h41l-176 -226h-41zM127 1208l176 226h41l-176 -226h-41z" />
    <glyph glyph-name="afii10023" unicode="&#x401;" horiz-adv-x="1044" 
d="M801 1700l8 61h61l-8 -61h-61zM555 1700l8 61h62l-9 -61h-61zM123 0l201 1434h696l-6 -41h-656l-57 -410h573l-6 -41h-573l-127 -901h696l-4 -41h-737z" />
    <glyph glyph-name="afii10051" unicode="&#x402;" horiz-adv-x="1280" 
d="M724 860q194 0 304 -125t86 -305q-25 -180 -171 -305t-349 -125l4 41q188 -1 319 111t156 278t-75 278t-289 111q-86 0 -165 -12t-114 -25l-37 -14l-106 -768h-41l194 1393h-348l6 41h758l-6 -41h-369l-82 -584q131 51 325 51z" />
    <glyph glyph-name="afii10052" unicode="&#x403;" horiz-adv-x="942" 
d="M647 1618l174 225h41l-174 -225h-41zM123 0l201 1434h675l-6 -41h-635l-194 -1393h-41z" />
    <glyph glyph-name="afii10053" unicode="&#x404;" horiz-adv-x="1208" 
d="M797 1454q136 0 230 -71t126 -121l14 -23l-37 -31q-63 126 -214 183q-60 23 -125 22q-191 0 -359 -163t-231 -431h641l-6 -41h-646l-8 -61q-45 -315 82 -505t332 -192q141 0 257 84q117 84 159 138l18 24l27 -20q-7 -10 -21 -28t-61 -65q-47 -46 -97 -81t-129 -64
t-159 -28q-219 0 -358 203q-138 204 -91 534q45 329 241 533t415 204z" />
    <glyph glyph-name="afii10054" unicode="&#x405;" horiz-adv-x="1085" 
d="M432 20q160 0 279 102t141 257q23 183 -104 275q-71 52 -209 113t-195 99t-88 102t-18 148q20 146 131 242t273 96t274 -138q26 -32 36 -54l11 -23l-37 -31q-7 26 -34 67q-28 41 -58 67t-86 49q-55 23 -121 22q-137 0 -233 -83t-116 -222q-19 -139 112 -217
q58 -35 130 -66t144 -65t129 -81q127 -103 101 -286q-26 -184 -159 -299t-309 -114q-80 0 -151 28t-113 66q-91 85 -117 143l-12 29l35 20q11 -28 50 -77q38 -50 76 -83q38 -34 102 -60t136 -26z" />
    <glyph glyph-name="afii10055" unicode="&#x406;" horiz-adv-x="491" 
d="M123 0l201 1434h41l-201 -1434h-41z" />
    <glyph glyph-name="afii10056" unicode="&#x407;" horiz-adv-x="512" 
d="M483 1700l9 61h61l-8 -61h-62zM238 1700l8 61h61l-8 -61h-61zM133 0l201 1434h41l-201 -1434h-41z" />
    <glyph glyph-name="afii10057" unicode="&#x408;" horiz-adv-x="665" 
d="M344 338l154 1096h41l-154 -1096q-49 -338 -365 -338l5 41q278 0 319 297z" />
    <glyph glyph-name="afii10058" unicode="&#x409;" horiz-adv-x="1925" 
d="M1303 963q-95 -1 -175 -13t-110 -24l-31 -15l-123 -870h328q216 0 362 126t175 335t-85 335t-341 126zM1188 0h-369l195 1393h-522l-230 -1055q-78 -338 -364 -338l4 41q258 0 319 297l236 1096h604l-68 -482q109 52 333 52t350 -138q124 -138 93 -363
q-31 -224 -191 -364q-161 -139 -390 -139z" />
    <glyph glyph-name="afii10059" unicode="&#x40a;" horiz-adv-x="2017" 
d="M1391 942h-308l-127 -901h328q213 0 360 125q146 125 175 327q29 201 -86 325t-342 124zM1397 983q245 0 369 -137t94 -354q-30 -216 -190 -354q-161 -138 -390 -138h-369l131 942h-747l-131 -942h-41l201 1434h41l-64 -451h748l63 451h41l-63 -451h307z" />
    <glyph glyph-name="afii10060" unicode="&#x40b;" horiz-adv-x="1290" 
d="M729 819q-96 0 -180 -12t-119 -25l-37 -14l-106 -768h-41l194 1393h-348l6 41h758l-6 -41h-369l-82 -584q131 51 335 51t302 -104t76 -275l-68 -481h-40l67 481q23 158 -65 248t-277 90z" />
    <glyph glyph-name="afii10061" unicode="&#x40c;" horiz-adv-x="1126" 
d="M668 1618l174 225h41l-174 -225h-41zM1081 1434l-499 -635l381 -799h-52l-362 778h-277l-108 -778h-41l201 1434h41l-86 -615h276l475 615h51z" />
    <glyph glyph-name="afii10062" unicode="&#x40e;" horiz-adv-x="1064" 
d="M657 1618q92 0 158 59t88 166h41q-24 -123 -104 -195t-189 -71q-109 0 -168 72t-51 194h41q-8 -105 42 -165t142 -60zM502 297l538 1137h41l-567 -1198q-57 -120 -134 -178t-196 -58l4 41q201 0 285 195l-293 1198h41z" />
    <glyph glyph-name="afii10145" unicode="&#x40f;" horiz-adv-x="1372" 
d="M123 0l201 1434h41l-197 -1393h840l196 1393h41l-201 -1434h-440l-39 -266h-41l39 266h-440z" />
    <glyph glyph-name="afii10017" unicode="&#x410;" horiz-adv-x="1177" 
d="M674 1372l-451 -942h645l-184 942h-10zM713 1434l280 -1434h-41l-80 389h-665l-187 -389h-40l682 1434h51z" />
    <glyph glyph-name="afii10018" unicode="&#x411;" horiz-adv-x="1290" 
d="M668 901q-115 0 -211 -12t-135 -25l-39 -14l-115 -809h399q203 0 351 125q147 125 173 309q27 184 -89 305t-334 121zM673 942q234 0 360 -134t97 -334q-28 -200 -188 -337t-379 -137h-440l201 1434h798l-6 -41h-758l-69 -502q150 51 384 51z" />
    <glyph glyph-name="afii10019" unicode="&#x412;" horiz-adv-x="1249" 
d="M668 819q152 0 251 82t117 216t-68 215q-87 81 -280 81t-299 -37l-35 -14l-75 -543h389zM692 778h-420l-104 -737h420q182 0 306 102q123 103 146 267t-71 266t-277 102zM584 0h-461l194 1393q141 61 363 61t320 -93q97 -93 77 -245q-16 -110 -81 -186t-119 -99l-58 -22
l-2 -10q44 -7 100 -38q56 -30 93 -68q37 -37 60 -113t11 -170q-27 -178 -163 -294t-334 -116z" />
    <glyph glyph-name="afii10020" unicode="&#x413;" horiz-adv-x="942" 
d="M123 0l201 1434h675l-6 -41h-635l-194 -1393h-41z" />
    <glyph glyph-name="afii10021" unicode="&#x414;" horiz-adv-x="1228" 
d="M823 41l191 1352h-553l-230 -1055q-41 -205 -161 -281l-13 -6l-2 -10h768zM190 338l236 1096h635l-197 -1393h144l-43 -307h-41l39 266h-1004l-39 -266h-39l41 307h72q19 6 64 42q46 36 82 110q36 75 50 145z" />
    <glyph glyph-name="afii10022" unicode="&#x415;" horiz-adv-x="1044" 
d="M123 0l201 1434h696l-6 -41h-656l-57 -410h573l-6 -41h-573l-127 -901h696l-4 -41h-737z" />
    <glyph glyph-name="afii10024" unicode="&#x416;" horiz-adv-x="1679" 
d="M831 819l87 615h40l-86 -615h277l444 615h41l-458 -635l340 -799h-52l-321 778h-277l-108 -778h-41l108 778h-276l-539 -778h-51l561 799l-278 635h41l272 -615h276z" />
    <glyph glyph-name="afii10025" unicode="&#x417;" horiz-adv-x="1024" 
d="M391 20q162 0 280 106t142 273q23 167 -65 273t-250 106h-164l6 41h143q152 0 251 82q100 82 118 214t-55 215t-225 83t-284 -132q-30 -30 -44 -52l-15 -21l-24 31q69 92 144 140q42 28 108 52t135 23q154 0 238 -95t63 -243q-10 -72 -41 -130q-65 -121 -203 -171l-24 -6
l-2 -10q30 -6 85 -41q54 -35 86 -76t52 -116t8 -167q-27 -184 -159 -302t-310 -117q-80 0 -151 28q-70 28 -112 66q-91 85 -118 143l-12 29l35 20q11 -28 50 -77q38 -50 76 -83q39 -34 103 -60t135 -26z" />
    <glyph glyph-name="afii10026" unicode="&#x418;" horiz-adv-x="1372" 
d="M1182 1341l-1018 -1341h-41l201 1434h41l-189 -1342h10l1018 1342h41l-201 -1434h-40l188 1341h-10z" />
    <glyph glyph-name="afii10027" unicode="&#x419;" horiz-adv-x="1372" 
d="M811 1618q92 0 158 59t88 166h41q-25 -123 -105 -195q-81 -72 -189 -71q-108 0 -167 72t-51 194h41q-8 -105 42 -165t142 -60zM1182 1341l-1018 -1341h-41l201 1434h41l-189 -1342h10l1018 1342h41l-201 -1434h-40l188 1341h-10z" />
    <glyph glyph-name="afii10028" unicode="&#x41a;" horiz-adv-x="1105" 
d="M1081 1434l-499 -635l381 -799h-52l-362 778h-277l-108 -778h-41l201 1434h41l-86 -615h276l475 615h51z" />
    <glyph glyph-name="afii10029" unicode="&#x41b;" horiz-adv-x="1249" 
d="M221 338l236 1096h665l-200 -1434h-41l194 1393h-583l-230 -1055q-78 -338 -364 -338l4 41q258 0 319 297z" />
    <glyph glyph-name="afii10030" unicode="&#x41c;" horiz-adv-x="1525" 
d="M739 389h-51l-328 942h-10l-186 -1331h-41l201 1434h51l342 -983h10l621 983h51l-201 -1434h-41l186 1331h-10z" />
    <glyph glyph-name="afii10031" unicode="&#x41d;" horiz-adv-x="1372" 
d="M1004 0l131 942h-840l-131 -942h-41l201 1434h41l-64 -451h840l63 451h41l-201 -1434h-40z" />
    <glyph glyph-name="afii10032" unicode="&#x41e;" horiz-adv-x="1392" 
d="M791 1413q-97 0 -195 -48q-212 -103 -329 -354q-62 -134 -85 -294q-45 -315 82 -505t332 -192q205 0 385 190t224 506t-83 506t-331 191zM797 1454q219 0 357 -204t92 -534t-242 -533t-414 -203q-219 0 -358 203q-138 204 -91 534q45 329 241 533t415 204z" />
    <glyph glyph-name="afii10033" unicode="&#x41f;" horiz-adv-x="1372" 
d="M1004 0l194 1393h-840l-194 -1393h-41l201 1434h921l-201 -1434h-40z" />
    <glyph glyph-name="afii10034" unicode="&#x420;" horiz-adv-x="1290" 
d="M580 492q220 0 374 130t183 331q29 202 -93 331t-336 129q-213 0 -319 -37l-35 -14l-123 -870h349zM701 1454q243 0 375 -141t102 -359t-200 -361q-169 -142 -405 -142h-348l-61 -451h-41l194 1393q141 61 384 61z" />
    <glyph glyph-name="afii10035" unicode="&#x421;" horiz-adv-x="1208" 
d="M797 1454q136 0 230 -71t126 -121l14 -23l-37 -31q-63 126 -213 183t-321 -26q-211 -103 -329 -354q-62 -134 -85 -294q-45 -315 82 -505t332 -192q141 0 257 84q117 84 159 138l18 24l27 -20q-7 -10 -21 -28t-61 -65q-47 -46 -97 -81t-129 -64t-159 -28q-219 0 -358 203
q-138 204 -91 534q45 329 241 533t415 204z" />
    <glyph glyph-name="afii10036" unicode="&#x422;" horiz-adv-x="942" 
d="M584 1393l-195 -1393h-41l195 1393h-389l6 41h819l-6 -41h-389z" />
    <glyph glyph-name="afii10037" unicode="&#x423;" horiz-adv-x="1064" 
d="M502 297l538 1137h41l-567 -1198q-57 -120 -134 -178t-196 -58l4 41q201 0 285 195l-293 1198h41z" />
    <glyph glyph-name="afii10038" unicode="&#x424;" horiz-adv-x="1474" 
d="M182 727q-28 -211 98 -346t367 -135l135 962q-242 0 -406 -135t-194 -346zM1288 727q29 211 -97 346t-368 135l-135 -962q242 0 407 135q164 135 193 346zM614 0l29 205q-258 0 -395 148q-138 149 -106 375t210 374t436 147l27 185h41l-27 -185q257 0 395 -148
q138 -149 106 -375t-210 -374t-436 -147l-29 -205h-41z" />
    <glyph glyph-name="afii10039" unicode="&#x425;" horiz-adv-x="1126" 
d="M1102 1434l-516 -686l356 -748h-51l-332 707l-528 -707h-51l565 748l-324 686h51l299 -646l480 646h51z" />
    <glyph glyph-name="afii10040" unicode="&#x426;" horiz-adv-x="1413" 
d="M123 0l201 1434h41l-197 -1393h840l196 1393h41l-196 -1393h143l-43 -307h-41l39 266h-1024z" />
    <glyph glyph-name="afii10041" unicode="&#x427;" horiz-adv-x="1228" 
d="M860 0l86 625q-109 -51 -324 -51t-313 102q-98 104 -73 276l67 482h41l-68 -482q-22 -158 66 -248t275 -90t301 37l34 15l109 768h41l-201 -1434h-41z" />
    <glyph glyph-name="afii10042" unicode="&#x428;" horiz-adv-x="1884" 
d="M123 0l201 1434h41l-197 -1393h655l197 1393h41l-197 -1393h656l196 1393h41l-201 -1434h-1433z" />
    <glyph glyph-name="afii10043" unicode="&#x429;" horiz-adv-x="1925" 
d="M123 0l201 1434h41l-197 -1393h655l197 1393h41l-197 -1393h656l196 1393h41l-196 -1393h143l-43 -307h-41l39 266h-1536z" />
    <glyph glyph-name="afii10044" unicode="&#x42a;" horiz-adv-x="1351" 
d="M709 963q-97 -1 -181 -13t-118 -24l-37 -15l-123 -870h348q219 0 374 132q154 132 183 332t-92 329t-354 129zM594 0h-389l194 1393h-286l6 41h327l-67 -482q129 51 334 52q250 0 382 -142t101 -356t-200 -360t-402 -146z" />
    <glyph glyph-name="afii10045" unicode="&#x42b;" horiz-adv-x="1617" 
d="M1249 0l201 1434h41l-201 -1434h-41zM627 963q-97 -1 -181 -13t-118 -24l-37 -15l-123 -870h348q219 0 374 132q154 132 183 332t-92 329t-354 129zM512 0h-389l201 1434h41l-68 -482q129 51 334 52q250 0 382 -142t101 -356t-200 -360t-402 -146z" />
    <glyph glyph-name="afii10046" unicode="&#x42c;" horiz-adv-x="1290" 
d="M647 963q-104 -1 -193 -13t-126 -24l-37 -15l-123 -870h369q219 0 373 132t184 332t-92 329t-355 129zM532 0h-409l201 1434h41l-68 -482q139 52 371 52t365 -142q131 -142 101 -356t-199 -360t-403 -146z" />
    <glyph glyph-name="afii10047" unicode="&#x42d;" horiz-adv-x="1208" 
d="M412 20q205 0 385 190t225 507l8 61h-645l6 41h645q6 262 -121 428t-309 166q-133 0 -234 -67q-102 -67 -145 -117l-18 -21l-25 31q8 9 22 23t58 52q169 143 348 140q220 0 358 -204t92 -534t-242 -533q-196 -204 -414 -203q-80 0 -151 28t-113 66q-89 83 -117 143
l-13 29l35 20q11 -28 50 -77q38 -50 76 -83q39 -34 103 -60t136 -26z" />
    <glyph glyph-name="afii10048" unicode="&#x42e;" horiz-adv-x="1761" 
d="M1200 1413q-190 0 -356 -184t-212 -512t68 -512q114 -185 306 -185q190 0 356 184t213 513q45 328 -70 512t-305 184zM123 0l201 1434h41l-99 -697h328q47 328 227 523q180 194 386 194t331 -198t78 -539q-33 -229 -132 -401q-98 -172 -226 -255q-128 -82 -259 -81
q-205 0 -329 194t-82 522h-328l-96 -696h-41z" />
    <glyph glyph-name="afii10049" unicode="&#x42f;" horiz-adv-x="1320" 
d="M627 532h399l117 830q-117 51 -359 51q-242 1 -390 -121t-176 -318t84 -319t325 -123zM776 1454q123 0 226 -15t145 -30l41 -16l-195 -1393h-41l68 492h-512l-385 -492h-51l397 502l2 10q-14 4 -38 11t-80 42t-97 81t-68 133t-12 194q29 211 194 346t406 135z" />
    <glyph glyph-name="afii10065" unicode="&#x430;" horiz-adv-x="952" 
d="M381 20q79 0 147 38t99 77l30 39l91 635q-5 14 -28 47q-73 104 -209 106q-136 1 -254 -125q-119 -126 -149 -345q-30 -220 52 -346t221 -126zM649 102h-10q-37 -43 -117 -83t-147 -39q-154 0 -247 138t-60 374q36 236 166 374t284 138q68 0 125 -31t82 -62l23 -30h10
l14 102h41l-115 -819l-12 -164h-41z" />
    <glyph glyph-name="afii10066" unicode="&#x431;" horiz-adv-x="983" 
d="M401 20q145 0 258 118t144 333q29 215 -50 333t-225 118t-258 -119q-114 -119 -144 -332t50 -332t225 -119zM535 963q161 1 251 -131t58 -361t-160 -360q-127 -131 -289 -131t-252 131t-57 360l16 123q80 563 266 695q87 62 234 91l338 64l-6 -41l-336 -62
q-125 -23 -199 -75q-158 -110 -237 -549h10q11 27 48 77q38 50 76 83t102 59t137 27z" />
    <glyph glyph-name="afii10067" unicode="&#x432;" horiz-adv-x="849" 
d="M418 573q98 1 164 55t77 141q12 87 -41 140t-143 53q-153 1 -225 -36l-21 -15l-47 -338h236zM383 41q109 -1 183 65t87 181q16 115 -38 181t-162 64h-277l-70 -491h277zM379 0h-318l132 942q111 62 251 62t206 -67t50 -169q-8 -62 -46 -114t-72 -72l-33 -19l-2 -10
q113 -28 143 -149q12 -52 4 -117q-18 -129 -105 -208t-210 -79z" />
    <glyph glyph-name="afii10068" unicode="&#x433;" horiz-adv-x="696" 
d="M61 0l138 983h512l-6 -41h-472l-131 -942h-41z" />
    <glyph glyph-name="afii10069" unicode="&#x434;" horiz-adv-x="890" 
d="M37 51l-2 -10h522l127 901h-399l-152 -717q-12 -59 -37 -102t-43 -57zM-27 41q10 6 26 18q15 11 48 59t45 107l158 758h481l-133 -942h113l-37 -266h-41l33 225h-727l-33 -225h-39l35 266h71z" />
    <glyph glyph-name="afii10070" unicode="&#x435;" 
d="M494 963q-122 0 -228 -109t-149 -301h635q12 193 -62 301t-196 109zM381 20q77 0 149 41t105 82l35 41l28 -20q-10 -22 -48 -60t-72 -62q-88 -62 -203 -62q-154 0 -247 138t-60 377q34 239 158 373t272 136q148 0 234 -132q87 -132 56 -360h-675l-4 -20q-31 -220 51 -346
t221 -126z" />
    <glyph glyph-name="afii10072" unicode="&#x436;" horiz-adv-x="1208" 
d="M604 584l-82 -584h-41l82 584h-205l-368 -584h-51l380 604l-202 379h51l194 -358h205l51 358h41l-51 -358h205l297 358h51l-309 -379l213 -604h-51l-205 584h-205z" />
    <glyph glyph-name="afii10073" unicode="&#x437;" horiz-adv-x="768" 
d="M346 573q92 1 156 55t76 140t-36 140t-128 54t-148 -32q-66 -33 -98 -66l-33 -35l-26 21q12 16 35 42q24 26 102 69t172 43t154 -68t48 -155t-55 -139t-82 -69l-37 -16l-2 -8q28 -7 63 -31t59 -52t38 -79t6 -111q-16 -124 -118 -210t-240 -86q-90 0 -158 46t-90 93
l-22 45l32 20q5 -14 31 -50q27 -36 53 -58q65 -55 173 -55q108 -1 196 73t103 182t-52 183q-68 74 -188 73h-72l6 41h82z" />
    <glyph glyph-name="afii10074" unicode="&#x438;" horiz-adv-x="942" 
d="M102 0h-41l138 983h41l-125 -891h10l647 891h41l-137 -983h-41l125 891h-10z" />
    <glyph glyph-name="afii10075" unicode="&#x439;" horiz-adv-x="942" 
d="M537 1208q-91 0 -141 60t-42 166h41q-12 -184 147 -184t201 184h41q-23 -106 -89 -166t-158 -60zM102 0h-41l138 983h41l-125 -891h10l647 891h41l-137 -983h-41l125 891h-10z" />
    <glyph glyph-name="afii10076" unicode="&#x43a;" horiz-adv-x="819" 
d="M184 584l-82 -584h-41l138 983h41l-52 -358h185l348 358h51l-371 -379l275 -604h-51l-267 584h-174z" />
    <glyph glyph-name="afii10077" unicode="&#x43b;" horiz-adv-x="890" 
d="M-82 0h-20l4 41h20q92 0 135 39t66 145l158 758h481l-137 -983h-41l131 942h-400l-151 -717q-27 -123 -82 -174t-164 -51z" />
    <glyph glyph-name="afii10078" unicode="&#x43c;" horiz-adv-x="1095" 
d="M788 0l125 901h-10l-391 -532h-31l-243 532h-11l-125 -901h-41l138 983h51l250 -553h10l405 553h52l-138 -983h-41z" />
    <glyph glyph-name="afii10079" unicode="&#x43d;" 
d="M793 983l-138 -983h-41l80 573h-512l-80 -573h-41l138 983h41l-52 -369h512l52 369h41z" />
    <glyph glyph-name="afii10080" unicode="&#x43e;" horiz-adv-x="962" 
d="M381 20q139 0 256 126t147 346t-50 345q-81 126 -220 126q-138 0 -256 -126t-149 -345q-31 -220 51 -346t221 -126zM376 -20q-155 0 -248 138t-60 374q36 236 166 374t285 138t247 -138t59 -374t-163 -374t-286 -138z" />
    <glyph glyph-name="afii10081" unicode="&#x43f;" 
d="M793 983l-138 -983h-41l131 942h-512l-131 -942h-41l138 983h594z" />
    <glyph glyph-name="afii10082" unicode="&#x440;" horiz-adv-x="942" 
d="M494 963q-78 0 -148 -39t-100 -76l-31 -39l-90 -635q6 -18 40 -63t90 -68q56 -22 105 -23q139 0 256 126t148 346t-50 345q-81 126 -220 126zM498 1004q156 0 248 -138t58 -374q-32 -236 -163 -374t-287 -138q-68 0 -125 30t-79 62l-23 30h-10l-54 -368h-40l176 1249h41
l-15 -102h11q38 44 116 84q78 39 146 39z" />
    <glyph glyph-name="afii10083" unicode="&#x441;" horiz-adv-x="839" 
d="M375 -20q-154 0 -247 138t-60 374q36 236 166 374t284 138q104 0 165 -51t91 -103l-35 -21q-8 14 -24 37q-17 23 -75 60t-126 37q-139 0 -257 -126q-119 -126 -149 -345q-30 -220 52 -346t221 -126q77 0 149 41t105 82l35 41l28 -20q-10 -22 -48 -60t-72 -62
q-88 -62 -203 -62z" />
    <glyph glyph-name="afii10084" unicode="&#x442;" horiz-adv-x="655" 
d="M70 942l6 41h573l-6 -41h-266l-131 -942h-41l131 942h-266z" />
    <glyph glyph-name="afii10085" unicode="&#x443;" horiz-adv-x="757" 
d="M100 -225q51 0 80 61l76 164l-160 983h41l148 -911l405 911h41l-510 -1147q-25 -55 -53 -79t-74 -23h-31l7 41h30z" />
    <glyph glyph-name="afii10086" unicode="&#x444;" horiz-adv-x="1187" 
d="M475 41l127 901q-193 0 -329 -122q-137 -122 -165 -328t73 -329q101 -122 294 -122zM1010 492q30 206 -72 328t-295 122l-127 -901q193 0 329 122t165 329zM512 0l-39 -266h-41l39 266q-209 0 -321 135t-81 357q32 222 181 356q150 135 358 135l35 246h41l-35 -246
q209 0 322 -135t81 -356q-32 -220 -182 -356t-358 -136z" />
    <glyph glyph-name="afii10087" unicode="&#x445;" horiz-adv-x="757" 
d="M-41 0l369 512l-211 471h51l184 -430l307 430h52l-342 -471l225 -512h-51l-201 471l-332 -471h-51z" />
    <glyph glyph-name="afii10088" unicode="&#x446;" horiz-adv-x="952" 
d="M61 0l138 983h41l-134 -942h512l134 942h41l-134 -942h113l-37 -266h-41l33 225h-666z" />
    <glyph glyph-name="afii10089" unicode="&#x447;" horiz-adv-x="860" 
d="M384 369q-138 0 -204 78q-65 79 -49 208l47 328h41l-47 -328q-14 -115 40 -181t163 -64q68 0 129 15t88 30l26 16l72 512h41l-137 -983h-41l57 420h-10q-78 -51 -216 -51z" />
    <glyph glyph-name="afii10090" unicode="&#x448;" horiz-adv-x="1310" 
d="M61 0l138 983h41l-134 -942h431l133 942h41l-133 -942h430l133 942h41l-138 -983h-983z" />
    <glyph glyph-name="afii10091" unicode="&#x449;" horiz-adv-x="1341" 
d="M61 0l138 983h41l-134 -942h431l133 942h41l-133 -942h430l133 942h41l-133 -942h112l-37 -266h-41l33 225h-1055z" />
    <glyph glyph-name="afii10092" unicode="&#x44a;" horiz-adv-x="880" 
d="M403 41q111 0 195 79t102 208t-43 208t-172 78q-59 0 -115 -20t-83 -41l-29 -21l-70 -491h215zM399 0h-256l131 942h-245l6 41h287l-56 -399h10q80 72 209 72t203 -93q74 -92 54 -235q-20 -144 -119 -236q-98 -92 -224 -92z" />
    <glyph glyph-name="afii10093" unicode="&#x44b;" horiz-adv-x="1085" 
d="M956 983l-137 -983h-41l137 983h41zM322 41q110 0 194 79t102 208t-43 208t-172 78q-59 0 -115 -20t-83 -41l-29 -21l-70 -491h216zM317 0h-256l138 983h41l-56 -399h11q80 72 209 72q128 0 202 -93q74 -92 54 -235q-20 -144 -119 -236q-98 -92 -224 -92z" />
    <glyph glyph-name="afii10094" unicode="&#x44c;" horiz-adv-x="819" 
d="M342 41q111 0 195 79t102 208t-43 208t-172 78q-68 0 -130 -20t-89 -41l-29 -21l-70 -491h236zM338 0h-277l138 983h41l-56 -399h11q80 72 219 72t213 -93q73 -92 53 -235q-20 -144 -118 -236t-224 -92z" />
    <glyph glyph-name="afii10095" unicode="&#x44d;" horiz-adv-x="839" 
d="M395 1004q156 0 248 -138t59 -374q-34 -236 -164 -374t-286 -138q-90 0 -158 46t-90 93l-22 45l32 20q5 -14 31 -50q82 -112 217 -113t252 125t148 346l6 40h-420l6 41h416q6 181 -73 285t-206 105q-69 0 -135 -33t-98 -66l-33 -35l-27 21q12 16 36 42t102 69t159 43z
" />
    <glyph glyph-name="afii10096" unicode="&#x44e;" horiz-adv-x="1228" 
d="M678 20q124 0 232 123t141 349t-41 348q-74 123 -199 123t-233 -123t-142 -348q-33 -224 42 -348t200 -124zM821 1004q135 0 219 -136t52 -376t-156 -376q-123 -136 -264 -136t-226 136q-84 136 -51 376l6 40h-225l-74 -532h-41l138 983h41l-58 -410h230q39 193 156 312
q118 119 253 119z" />
    <glyph glyph-name="afii10097" unicode="&#x44f;" horiz-adv-x="849" 
d="M346 430h256l68 481q-74 51 -216 51t-225 -71q-84 -72 -101 -195q-17 -122 42 -194t176 -72zM446 1004q78 0 145 -16t95 -30l29 -16l-131 -942h-41l53 389h-297l-289 -389h-51l289 389l2 10q-25 6 -62 31q-128 86 -101 269q19 137 117 221t242 84z" />
    <glyph glyph-name="afii10071" unicode="&#x451;" 
d="M631 1290l8 62h61l-8 -62h-61zM385 1290l8 62h62l-9 -62h-61zM494 963q-122 0 -228 -109t-149 -301h635q12 193 -62 301t-196 109zM381 20q77 0 149 41t105 82l35 41l28 -20q-10 -22 -48 -60t-72 -62q-88 -62 -203 -62q-154 0 -247 138t-60 377q34 239 158 373t272 136
q148 0 234 -132q87 -132 56 -360h-675l-4 -20q-31 -220 51 -346t221 -126z" />
    <glyph glyph-name="afii10099" unicode="&#x452;" horiz-adv-x="942" 
d="M508 922q131 0 202 -85t52 -223l-82 -573q-18 -137 -114 -222t-226 -85l6 41q117 -1 197 71t96 195l82 573q16 123 -43 195t-176 72q-78 0 -148 -39t-100 -76l-31 -39l-100 -727h-41l158 1126h-123l6 41h123l37 267h41l-37 -267h235l-6 -41h-235l-48 -327h11
q39 46 118 84q79 39 146 39z" />
    <glyph glyph-name="afii10100" unicode="&#x453;" horiz-adv-x="696" 
d="M444 1208l177 226h41l-177 -226h-41zM61 0l138 983h512l-6 -41h-472l-131 -942h-41z" />
    <glyph glyph-name="afii10101" unicode="&#x454;" horiz-adv-x="839" 
d="M381 20q77 0 149 41t105 82l35 41l28 -20q-10 -22 -48 -60t-72 -62q-88 -62 -203 -62q-154 0 -247 138t-60 374q36 236 166 374t284 138q104 0 165 -51t91 -103l-35 -21q-8 14 -24 37q-17 23 -75 60t-126 37q-128 -1 -236 -105t-153 -285h416l-6 -41h-420l-6 -40
q-31 -220 51 -346t221 -126z" />
    <glyph glyph-name="afii10102" unicode="&#x455;" horiz-adv-x="778" 
d="M394 1004q94 0 157 -39t88 -76l23 -39l-35 -21q-9 14 -25 37t-74 60t-139 37q-81 -1 -145 -55t-75 -136t35 -132t117 -78t143 -58t115 -90q45 -61 29 -168t-109 -187q-93 -79 -214 -79t-189 61q-67 61 -86 102l-8 21l33 20q6 -17 32 -52q83 -110 222 -112q106 0 185 68
t92 160q23 162 -148 228q-72 28 -143 56t-115 88q-44 58 -32 153q13 95 92 163q80 68 174 68z" />
    <glyph glyph-name="afii10103" unicode="&#x456;" horiz-adv-x="368" 
d="M244 1372l8 62h61l-8 -62h-61zM61 0l138 983h41l-138 -983h-41z" />
    <glyph glyph-name="afii10104" unicode="&#x457;" horiz-adv-x="389" 
d="M365 1290l8 62h61l-8 -62h-61zM119 1290l8 62h61l-8 -62h-61zM72 0l137 983h41l-137 -983h-41z" />
    <glyph glyph-name="afii10105" unicode="&#x458;" horiz-adv-x="368" 
d="M244 1372l8 62h61l-8 -62h-61zM-33 -225q61 0 70 61l162 1147h41l-162 -1147q-6 -45 -38 -74t-79 -28h-10l-4 41h20z" />
    <glyph glyph-name="afii10106" unicode="&#x459;" horiz-adv-x="1320" 
d="M844 41q111 0 195 79t102 208t-43 208t-172 78q-60 0 -116 -20t-85 -41l-27 -21l-69 -491h215zM-82 0h-20l4 41h20q92 0 135 39t66 145l158 758h481l-55 -399h10q80 72 209 72q128 0 202 -93q74 -92 54 -235q-20 -144 -118 -236t-224 -92h-256l131 942h-400l-151 -717
q-27 -123 -82 -174t-164 -51z" />
    <glyph glyph-name="afii10107" unicode="&#x45a;" horiz-adv-x="1351" 
d="M874 41q117 -1 197 71t98 195q16 123 -43 195t-176 71h-215l-76 -532h215zM956 614q131 0 202 -85q72 -85 52 -222t-114 -222t-226 -85h-256l80 573h-512l-80 -573h-41l138 983h41l-52 -369h512l52 369h41l-52 -369h215z" />
    <glyph glyph-name="afii10108" unicode="&#x45b;" horiz-adv-x="942" 
d="M508 922q131 0 202 -85t52 -223l-86 -614h-41l86 614q16 123 -43 195t-176 72q-78 0 -148 -39t-100 -76l-31 -39l-100 -727h-41l158 1126h-123l6 41h123l37 267h41l-37 -267h235l-6 -41h-235l-48 -327h11q39 46 118 84q79 39 146 39z" />
    <glyph glyph-name="afii10109" unicode="&#x45c;" horiz-adv-x="819" 
d="M475 1208l176 226h41l-176 -226h-41zM184 584l-82 -584h-41l138 983h41l-52 -358h185l348 358h51l-371 -379l275 -604h-51l-267 584h-174z" />
    <glyph glyph-name="afii10110" unicode="&#x45e;" horiz-adv-x="757" 
d="M444 1208q-92 0 -141 60t-41 166h41q-12 -184 147 -184t201 184h41q-24 -106 -90 -166t-158 -60zM100 -225q51 0 80 61l76 164l-160 983h41l148 -911l405 911h41l-510 -1147q-25 -55 -53 -79t-74 -23h-31l7 41h30z" />
    <glyph glyph-name="afii10193" unicode="&#x45f;" 
d="M61 0l138 983h41l-134 -942h512l134 942h41l-138 -983h-276l-33 -225h-41l33 225h-277z" />
    <glyph glyph-name="afii10050" unicode="&#x490;" horiz-adv-x="942" 
d="M123 0l201 1434h634l37 266h41l-43 -307h-635l-194 -1393h-41z" />
    <glyph glyph-name="afii10098" unicode="&#x491;" horiz-adv-x="696" 
d="M670 983l28 205h41l-34 -246h-472l-131 -942h-41l138 983h471z" />
    <glyph glyph-name="uni1E9E" unicode="&#x1e9e;" horiz-adv-x="1208" 
d="M726 1413q-182 0 -310 -119t-158 -331l-135 -963h-41l135 963q33 227 176 359t352 132q97 0 177 -15t110 -30l33 -16q-12 -84 -47 -160t-97 -151t-126 -113l-27 -17l-2 -10q139 0 225 -131q85 -131 55 -350t-153 -350t-262 -131q-90 0 -158 46t-90 93l-23 45l33 20
q6 -17 32 -52q25 -34 51 -56q65 -55 175 -55q109 -1 217 117t138 323t-46 323t-200 117h-92l6 41q37 12 98 57q61 44 105 86q43 43 84 118t53 157q-106 53 -288 53z" />
    <glyph glyph-name="endash" unicode="&#x2013;" horiz-adv-x="808" 
d="M66 614l4 41h645l-4 -41h-645z" />
    <glyph glyph-name="emdash" unicode="&#x2014;" horiz-adv-x="1085" 
d="M66 614l4 41h921l-4 -41h-921z" />
    <glyph glyph-name="quoteleft" unicode="&#x2018;" horiz-adv-x="327" 
d="M264 1454h41l-10 -82h-82l8 62q13 86 86 102l8 -20q-43 -11 -51 -62z" />
    <glyph glyph-name="quoteright" unicode="&#x2019;" horiz-adv-x="327" 
d="M254 1372h-41l10 82h82l-8 -61q-6 -41 -28 -67t-40 -32l-18 -4l-8 21q43 10 51 61z" />
    <glyph glyph-name="quotesinglbase" unicode="&#x201a;" horiz-adv-x="327" 
d="M61 0h-41l11 82h82l-9 -62q-6 -40 -28 -66t-39 -32l-19 -4l-8 21q43 10 51 61z" />
    <glyph glyph-name="quotedblleft" unicode="&#x201c;" horiz-adv-x="552" 
d="M489 1454h41l-10 -82h-82l8 62q13 86 86 102l9 -20q-44 -11 -52 -62zM264 1454h41l-10 -82h-82l8 62q13 86 86 102l8 -20q-43 -11 -51 -62z" />
    <glyph glyph-name="quotedblright" unicode="&#x201d;" horiz-adv-x="552" 
d="M479 1372h-41l11 82h81l-8 -61q-6 -41 -28 -67t-39 -32l-19 -4l-8 21q43 10 51 61zM254 1372h-41l10 82h82l-8 -61q-6 -41 -28 -67t-40 -32l-18 -4l-8 21q43 10 51 61z" />
    <glyph glyph-name="quotedblbase" unicode="&#x201e;" horiz-adv-x="552" 
d="M287 0h-41l10 82h82l-8 -62q-13 -86 -86 -102l-8 21q43 10 51 61zM61 0h-41l11 82h82l-9 -62q-6 -40 -28 -66t-39 -32l-19 -4l-8 21q43 10 51 61z" />
    <glyph glyph-name="dagger" unicode="&#x2020;" horiz-adv-x="757" 
d="M184 1055q-24 0 -40 12q-15 12 -11 29q4 41 68 41l157 -31h62l12 82l-2 205q4 29 18 45t31 16q41 0 33 -61l-59 -205l-13 -82h62q150 31 174 31q24 -1 39 -13q14 -12 12 -28q-8 -41 -68 -41l-159 30h-62l-12 -81l2 -205l-162 -942h-20l100 942l60 205l12 81h-62
q-148 -30 -172 -30z" />
    <glyph glyph-name="daggerdbl" unicode="&#x2021;" horiz-adv-x="798" 
d="M180 1024q-25 0 -40 12t-11 29q4 41 66 41l159 -31h82l17 113l-2 205q4 29 18 45t31 16q41 0 32 -61l-59 -205l-16 -113h82q147 31 172 31t40 -12t13 -29q-8 -41 -68 -41l-159 31h-82l-27 -195q10 -143 -1 -210t-46 -163l-12 -36l-27 -195h82q147 31 172 31q25 -1 40 -13
t11 -28q-4 -41 -65 -41l-160 31h-82l-16 -113l2 -205q-10 -61 -50 -61q-16 0 -26 16t-6 45l59 205l16 113h-81q-147 -31 -172 -31t-40 12t-14 29q9 41 68 41l160 -31h82l26 195q-3 27 -5 106q-1 79 3 103t47 163l15 37l26 195h-82q-147 -31 -172 -31z" />
    <glyph glyph-name="bullet" unicode="&#x2022;" horiz-adv-x="512" 
d="M254 717q40 0 62 -27q22 -28 17 -66t-36 -65t-70 -27t-61 27t-19 66q6 39 37 65t70 27z" />
    <glyph glyph-name="ellipsis" unicode="&#x2026;" horiz-adv-x="983" 
d="M676 0l10 82h82l-10 -82h-82zM348 0l10 82h82l-10 -82h-82zM20 0l11 82h82l-11 -82h-82z" />
    <glyph glyph-name="perthousand" unicode="&#x2030;" horiz-adv-x="1843" 
d="M1405 20q83 0 149 76t86 221t-24 222q-45 75 -128 75t-150 -76t-87 -220q-20 -146 26 -222t128 -76zM1399 -20q-98 0 -155 88q-56 88 -34 250t104 249q81 88 179 88q99 0 155 -89t33 -249q-23 -161 -103 -249t-179 -88zM852 20q82 0 148 76t87 221q20 145 -24 222
q-45 75 -128 75t-150 -76t-87 -220q-20 -146 26 -222t128 -76zM846 -20q-98 0 -155 88q-55 88 -33 250t103 249q81 88 179 88t154 -89t34 -249q-24 -161 -104 -249t-178 -88zM113 0l1009 1434h52l-1010 -1434h-51zM349 819q83 0 150 76t87 221t-25 221t-128 76t-149 -76
t-87 -221q-19 -145 25 -221t127 -76zM438 1454q98 0 154 -89t34 -249t-103 -249t-179 -89t-155 88q-56 88 -33 250t103 250q81 88 179 88z" />
    <glyph glyph-name="guilsinglleft" unicode="&#x2039;" horiz-adv-x="430" 
d="M309 819l27 -20l-223 -277v-10l145 -276l-35 -21l-153 287l4 30z" />
    <glyph glyph-name="guilsinglright" unicode="&#x203a;" horiz-adv-x="430" 
d="M111 799l34 20l154 -287l-4 -30l-236 -287l-26 21l223 276v10z" />
    <glyph glyph-name="fraction" unicode="&#x2044;" horiz-adv-x="860" 
d="M-102 0l1009 1434h51l-1009 -1434h-51z" />
    <glyph glyph-name="foursuperior" unicode="&#x2074;" horiz-adv-x="655" 
d="M199 983l-2 -10h266l53 379h-10zM135 973l393 461h41l-65 -461h102l-6 -41h-102l-29 -215h-41l29 215h-328z" />
    <glyph glyph-name="Euro" unicode="&#x20ac;" horiz-adv-x="1198" 
d="M770 1331q-174 0 -328 -146t-219 -386h666l-4 -41h-670q-12 -31 -18 -82l-9 -82h672l-6 -41h-666q-2 -240 111 -386q113 -147 282 -147t338 146q38 33 56 55l20 25l29 -21q-126 -158 -296 -219q-75 -27 -148 -26q-188 0 -313 158q-124 159 -120 415h-112l6 41h106
q0 31 9 82l18 82h-108l4 41h112q66 257 236 415t358 158q136 0 224 -69t114 -115l12 -21l-34 -20q-11 21 -47 59q-35 37 -69 62t-90 44t-116 19z" />
    <glyph glyph-name="uni20B4" unicode="&#x20b4;" horiz-adv-x="1064" 
d="M652 1331q-114 0 -198 -49q-83 -49 -118 -98l-33 -47l-29 20q164 218 369 215q145 0 224 -89t59 -228q-10 -77 -56 -139t-84 -85l-38 -22l-3 -10h205l-4 -41h-819l4 41h533q127 63 188 167q27 44 33 89q17 123 -51 199t-182 77zM229 553h-133l6 41h820l-7 -41h-624
l-27 -21t-52 -70t-42 -124q-20 -139 58 -228q78 -90 215 -90q136 0 241 82t143 140l19 24l26 -20q-21 -36 -70 -87q-48 -52 -94 -87t-118 -64t-144 -28q-160 0 -250 102t-67 256q8 62 34 114t46 72l20 19v10z" />
    <glyph glyph-name="uni20BD" unicode="&#x20bd;" horiz-adv-x="1228" 
d="M678 1331q-90 0 -169 -12t-112 -25l-35 -14l-110 -788h328q205 0 344 116t166 304q27 187 -83 303t-329 116zM688 1372q229 0 350 -129t92 -331q-28 -202 -182 -332t-375 -129h-327l-25 -185h533l-6 -41h-533l-31 -225h-41l31 225h-164l6 41h164l25 185h-164l6 41h164
l115 819q133 61 362 61z" />
    <glyph glyph-name="afii61352" unicode="&#x2116;" horiz-adv-x="1894" 
d="M1298 573l7 41h430l-6 -41h-431zM1630 1413q-82 0 -148 -76t-87 -221t25 -221t128 -76t149 76t87 221t-26 221t-128 76zM1542 778q-98 0 -154 88t-34 250q23 162 103 250q81 88 179 88t155 -89t34 -249t-104 -249t-179 -89zM963 0l-603 1331h-10l-186 -1331h-41l201 1434
h41l602 -1332h10l186 1332h41l-200 -1434h-41z" />
    <glyph glyph-name="trademark" unicode="&#x2122;" horiz-adv-x="1280" 
d="M1108 819l74 533h-11l-276 -369h-31l-174 369h-10l-74 -533h-41l86 615h51l181 -390h10l291 390h51l-86 -615h-41zM133 1393l6 41h410l-6 -41h-185l-79 -574h-41l79 574h-184z" />
    <glyph glyph-name="minus" unicode="&#x2212;" horiz-adv-x="716" 
d="M74 676l6 41h553l-6 -41h-553z" />
    <glyph glyph-name="Breve" unicode="&#xf406;" horiz-adv-x="552" 
d="M401 1618q-92 0 -142 59t-42 166h41q-8 -184 150 -184t198 184h41q-23 -106 -88 -166q-66 -59 -158 -59z" />
    <glyph glyph-name="Circumflex" unicode="&#xf408;" horiz-adv-x="532" 
d="M442 1843l154 -225h-41l-137 194l-191 -194h-41l215 225h41z" />
    <glyph glyph-name="Dotaccent" unicode="&#xf40b;" horiz-adv-x="184" 
d="M197 1700l8 61h61l-8 -61h-61z" />
    <glyph glyph-name="Ring" unicode="&#xf40c;" horiz-adv-x="450" 
d="M201 1731q10 77 64 125t124 48t110 -48q39 -50 29 -126t-64 -124q-54 -50 -124 -50t-110 50t-29 125zM346 1597q55 0 94 36q39 35 47 97t-20 98q-29 36 -84 36t-94 -36t-47 -97t20 -98q29 -36 84 -36z" />
    <glyph glyph-name="Tilde" unicode="&#xf40d;" horiz-adv-x="573" 
d="M333 1812q46 0 100 -61t89 -61q70 0 101 122h41q-18 -82 -58 -122t-85 -41q-46 0 -101 61t-90 62q-68 0 -99 -123h-41q18 79 58 121t85 42z" />
    <glyph glyph-name="commaaccent" unicode="&#xf6c3;" horiz-adv-x="204" 
d="M-33 -225h-41l13 82h81l-10 -62q-6 -41 -28 -67t-39 -31l-19 -4l-6 20q43 11 49 62z" />
    <glyph glyph-name="Acute" unicode="&#xf6c9;" horiz-adv-x="307" 
d="M186 1618l174 225h41l-174 -225h-41z" />
    <glyph glyph-name="Caron" unicode="&#xf6ca;" horiz-adv-x="532" 
d="M371 1618l-154 225h41l137 -194l191 194h41l-215 -225h-41z" />
    <glyph glyph-name="Dieresis" unicode="&#xf6cb;" horiz-adv-x="430" 
d="M442 1700l9 61h61l-8 -61h-62zM197 1700l8 61h61l-8 -61h-61z" />
    <glyph glyph-name="Grave" unicode="&#xf6ce;" horiz-adv-x="307" 
d="M258 1843l113 -225h-41l-113 225h41z" />
    <glyph glyph-name="Hungarumlaut" unicode="&#xf6cf;" horiz-adv-x="593" 
d="M473 1618l174 225h41l-174 -225h-41zM186 1618l174 225h41l-174 -225h-41z" />
    <glyph glyph-name="Macron" unicode="&#xf6d0;" horiz-adv-x="512" 
d="M205 1751h389l-6 -41h-389z" />
    <glyph glyph-name="cyrBreve" unicode="&#xf6d1;" horiz-adv-x="634" 
d="M442 1618q92 0 158 59t88 166h41q-25 -123 -105 -195t-188 -71q-109 0 -168 72t-51 194h41q-8 -105 42 -165t142 -60z" />
    <glyph glyph-name="cyrbreve" unicode="&#xf6d4;" horiz-adv-x="552" 
d="M342 1208q-92 0 -141 60t-41 166h41q-12 -184 147 -185q158 0 201 185h41q-24 -106 -90 -166t-158 -60z" />
    <glyph glyph-name="Germandbls" horiz-adv-x="1208" 
d="M726 1413q-182 0 -310 -119t-158 -331l-135 -963h-41l135 963q33 227 176 359t352 132q97 0 177 -15t110 -30l33 -16q-12 -84 -47 -160t-97 -151t-126 -113l-27 -17l-2 -10q139 0 225 -131q85 -131 55 -350t-153 -350t-262 -131q-90 0 -158 46t-90 93l-23 45l33 20
q6 -17 32 -52q25 -34 51 -56q65 -55 175 -55q109 -1 217 117t138 323t-46 323t-200 117h-92l6 41q37 12 98 57q61 44 105 86q43 43 84 118t53 157q-106 53 -288 53z" />
    <glyph glyph-name="foundryicon" horiz-adv-x="2519" 
d="M1526 440q16 0 28 12t13 28q1 14 -13 28t-28 14h-113v-82h113zM1526 1075q16 1 28 13t13 27t-13 29t-28 13h-113v-82h113zM1976 1249v-92h-235q-19 76 -82 92h317zM1976 614v-92h-235q-19 76 -82 92h317zM1618 184v133q41 8 78 43t45 80h164v-92h-174v-72h245v-92h-358z
M1618 819v133q41 8 78 43t45 80h164v-92h-174v-72h245v-92h-358zM614 1157h-133v92h338l51 -92h-143v-338h-113v338zM614 522h-133v92h338l51 -92h-143v-338h-113v338zM1126 819h-112v164l-154 266h123l82 -153h10l82 153h133l-164 -266v-164zM1126 184h-112v164l-154 266
h123l82 -153h10l82 153h133l-164 -266v-164zM1300 614h226q74 0 119 -39t45 -94t-45 -94t-119 -39h-113v-164h-113v430zM1300 1249h226q74 0 119 -39t45 -94t-45 -94t-119 -39h-113v-164h-113v430zM2273 -184v1802h-2027v-1802h2027zM205 -225v1884h2109v-1884h-2109z" />
    </font>
</defs>
</svg>
