<?xml version="1.0" standalone="no"?>
<!DOCTYPE svg PUBLIC "-//W3C//DTD SVG 1.1//EN" "http://www.w3.org/Graphics/SVG/1.1/DTD/svg11.dtd" >
<svg xmlns="http://www.w3.org/2000/svg">
<metadata>
Created by FontPrep 20130207 at Fri May 26 16:19:42 2017
 By Lizzy Knight
Copyright 2016 by URW++ Design &#38; Development GmbH
</metadata>
<defs>
<font id="03f771f1fb63811d32635e4a80049453" horiz-adv-x='1024' >
  <font-face 
    font-family="URWDINSemiCond-ThinItalic"
    font-weight="200"
    font-style="italic"
    font-stretch="normal"
    units-per-em="2048"
    panose-1="0 0 3 0 0 0 0 0 0 0"
    ascent="1462"
    descent="-586"
    x-height="1004"
    cap-height="1462"
    bbox="-342 -494 2023 2048"
    underline-thickness="57"
    underline-position="-252"
    slope="-10"
    unicode-range="U+0020-FB04"
  />
<missing-glyph horiz-adv-x="372" 
 />
    <glyph glyph-name="ff" unicode="ff" horiz-adv-x="1054" 
d="M805 946h-111l11 58h110l41 235q23 131 73 178t163 45h55l-10 -53h-39q-88 2 -124 -35t-59 -151l-38 -219h196l-10 -58h-197l-166 -946h-61zM293 946h-109l11 58h108l43 235q20 131 70 178t166 45h53l-8 -53h-39q-88 2 -125 -35t-60 -151l-38 -219h196l-10 -58h-197
l-166 -946h-61z" />
    <glyph glyph-name="fi" unicode="fi" horiz-adv-x="958" 
d="M631 0l176 1004h61l-176 -1004h-61zM858 1294l31 168h61l-30 -168h-62zM293 946h-109l11 58h108l43 235q20 131 70 178t166 45h53l-8 -53h-39q-88 2 -125 -35t-60 -151l-38 -219h196l-10 -58h-197l-166 -946h-61z" />
    <glyph glyph-name="fl" unicode="fl" horiz-adv-x="1019" 
d="M836 0q-177 0 -177 114q0 52 13 126l215 1222h61l-215 -1224q-10 -57 -10 -98q0 -42 27 -62t98 -21h43l-10 -57h-45zM293 946h-109l11 58h108l43 235q20 131 70 178t166 45h53l-8 -53h-39q-88 2 -125 -35t-60 -151l-38 -219h196l-10 -58h-197l-166 -946h-61z" />
    <glyph glyph-name="ffi" unicode="ffi" horiz-adv-x="1468" 
d="M1141 0l178 1004h61l-178 -1004h-61zM1370 1294l29 168h61l-28 -168h-62zM805 946h-111l11 58h110l41 235q23 131 73 178t163 45h55l-10 -53h-39q-88 2 -124 -35t-59 -151l-38 -219h196l-10 -58h-197l-166 -946h-61zM293 946h-109l11 58h108l43 235q20 131 70 178t166 45
h53l-8 -53h-39q-88 2 -125 -35t-60 -151l-38 -219h196l-10 -58h-197l-166 -946h-61z" />
    <glyph glyph-name="ffl" unicode="ffl" horiz-adv-x="1529" 
d="M1346 0q-177 0 -177 118q0 56 13 122l215 1222h61l-215 -1224q-10 -49 -10 -94q0 -46 27 -66t98 -21h43l-10 -57h-45zM805 946h-111l11 58h110l41 235q23 131 73 178t163 45h55l-10 -53h-39q-88 2 -124 -35t-59 -151l-38 -219h196l-10 -58h-197l-166 -946h-61zM293 946
h-109l11 58h108l43 235q20 131 70 178t166 45h53l-8 -53h-39q-88 2 -125 -35t-60 -151l-38 -219h196l-10 -58h-197l-166 -946h-61z" />
    <glyph glyph-name=".notdef" horiz-adv-x="372" 
 />
    <glyph glyph-name=".null" horiz-adv-x="0" 
 />
    <glyph glyph-name="nonmarkingreturn" horiz-adv-x="681" 
 />
    <glyph glyph-name="space" unicode=" " horiz-adv-x="372" 
 />
    <glyph glyph-name="exclam" unicode="!" horiz-adv-x="477" 
d="M121 0l24 141h62l-25 -141h-61zM188 365l185 1097h69l-200 -1097h-54z" />
    <glyph glyph-name="quotedbl" unicode="&#x22;" horiz-adv-x="608" 
d="M487 981l82 481h64l-88 -481h-58zM233 981l82 481h62l-88 -481h-56z" />
    <glyph glyph-name="numbersign" unicode="#" horiz-adv-x="993" 
d="M383 575h229l80 279h-229zM324 575l79 279h-264l21 57h264l119 398h57l-119 -398h232l116 398h60l-119 -398h240l-19 -57h-239l-80 -279h235l-20 -57h-234l-121 -422h-59l121 422h-229l-121 -422h-58l119 422h-268l20 57h267z" />
    <glyph glyph-name="dollar" unicode="$" horiz-adv-x="983" 
d="M412 80q227 0 323 158q63 102 63 208t-37 153q-38 47 -74 65q-37 18 -173 61t-204 118t-66 193q0 184 121 301q100 100 272 103l39 219h55l-39 -221q114 -8 178 -70t68 -162l-64 -14q-25 190 -233 190q-174 0 -264 -120q-70 -102 -70 -211q-1 -109 59 -168t182 -99
t160 -56q40 -17 74 -50q82 -72 82 -209q0 -195 -127 -328q-109 -109 -295 -118l-49 -289h-57l51 289q-147 7 -227 77t-80 191l61 12q18 -223 271 -223z" />
    <glyph glyph-name="percent" unicode="%" horiz-adv-x="1382" 
d="M387 0l631 1462h59l-628 -1462h-62zM1249 588q0 141 -141 141q-84 0 -130 -53t-67 -174l-41 -232q-8 -66 -8 -84q0 -143 142 -143q82 0 128 53q45 53 68 174l37 215q12 61 12 103zM1104 784q102 0 154 -48t53 -136q0 -35 -11 -100l-43 -242q-49 -270 -251 -270
q-102 0 -152 48q-51 48 -51 136q0 50 12 111l41 237q25 136 86 200q60 64 162 64zM600 1280q0 141 -141 141q-84 0 -130 -53t-67 -174l-39 -229q-10 -47 -10 -84q0 -143 141 -144q82 -1 128 53t69 175l39 213q10 68 10 102zM154 866q0 39 12 109l41 237q25 136 86 200
t163 64t153 -48q52 -48 53 -136q0 -41 -11 -98l-43 -244q-48 -268 -250 -268q-102 0 -153 48t-51 136z" />
    <glyph glyph-name="ampersand" unicode="&#x26;" horiz-adv-x="1386" 
d="M240 209q0 -103 55 -159t156 -56q139 0 282 110q41 33 131 127l-217 510q-119 -73 -169 -109q-238 -168 -238 -423zM807 1456q-92 0 -160 -86t-67 -217q0 -80 49 -197l51 -127q127 90 197 162q117 123 116 285q0 84 -47 132t-139 48zM442 -63q-126 -1 -196 71t-70 199
q0 209 152 371q46 48 74 70t114 76t109 71q-65 155 -87 225t-22 133q0 156 85 258t207 102q248 0 249 -253t-355 -484l209 -485q131 160 195 346h63q-90 -231 -231 -412l98 -225h-71l-74 168q-225 -231 -449 -231z" />
    <glyph glyph-name="quotesingle" unicode="'" horiz-adv-x="354" 
d="M233 981l82 481h62l-88 -481h-56z" />
    <glyph glyph-name="parenleft" unicode="(" horiz-adv-x="708" 
d="M262 297q0 424 178 870q119 291 248 478l43 -29q-182 -276 -294 -640t-111 -683q0 -226 84 -502l-52 -22q-96 270 -96 528z" />
    <glyph glyph-name="parenright" unicode=")" horiz-adv-x="708" 
d="M514 1116q0 -424 -178 -870q-113 -285 -250 -477l-41 28q184 281 295 642t111 683q0 230 -84 500l51 23q96 -270 96 -529z" />
    <glyph glyph-name="asterisk" unicode="*" horiz-adv-x="993" 
d="M621 1145l-236 -287l-63 49l264 279l-320 137l37 70l305 -164l49 348l78 -12l-73 -346l344 51l10 -80l-346 -19l151 -352l-76 -24z" />
    <glyph glyph-name="plus" unicode="+" horiz-adv-x="993" 
d="M133 731l10 57h375l74 410h57l-74 -410h377l-10 -57h-375l-73 -409h-58l72 409h-375z" />
    <glyph glyph-name="comma" unicode="," horiz-adv-x="454" 
d="M-37 -385l172 526h72l-197 -526h-47z" />
    <glyph glyph-name="hyphen" unicode="-" horiz-adv-x="811" 
d="M233 731l11 57h426l-11 -57h-426z" />
    <glyph glyph-name="period" unicode="." horiz-adv-x="456" 
d="M111 0l24 141h62l-25 -141h-61z" />
    <glyph glyph-name="slash" unicode="/" horiz-adv-x="692" 
d="M20 -47l672 1556h64l-670 -1556h-66z" />
    <glyph glyph-name="zero" unicode="0" horiz-adv-x="993" 
d="M877 1165q0 255 -238 255q-250 -1 -326 -414l-96 -549q-16 -98 -16 -162q0 -123 57 -189t166 -65q147 0 238 127q63 90 100 289l96 549q18 109 19 159zM638 1477q150 0 225 -79t75 -222q0 -57 -18 -172l-101 -570q-79 -452 -379 -451q-301 1 -301 304q1 74 17 172
l100 569q39 219 136 334q96 115 246 115z" />
    <glyph glyph-name="one" unicode="1" horiz-adv-x="993" 
d="M408 0l245 1393l-247 -119l-23 49l295 139h49l-258 -1462h-61z" />
    <glyph glyph-name="two" unicode="2" horiz-adv-x="983" 
d="M815 1223q0 199 -199 198q-215 0 -303 -280l-61 8q98 330 362 330q127 0 196 -66t69 -204q0 -139 -75 -291t-261 -373l-410 -488h557l-10 -57h-641l8 45l453 541q182 221 248 362t67 275z" />
    <glyph glyph-name="three" unicode="3" horiz-adv-x="983" 
d="M469 799q160 1 260 113t100 290q0 219 -211 219q-217 0 -294 -254l-64 7q37 147 128 226t228 79q276 0 277 -279q0 -158 -77 -270t-214 -158q195 -59 195 -301q0 -184 -97 -324q-111 -162 -325 -161q-150 0 -228 66t-77 194q0 29 4 57l63 4q-4 -20 -4 -45
q0 -219 240 -219q197 0 291 160q70 119 70 259t-71 210t-204 69h-101l11 58h100z" />
    <glyph glyph-name="four" unicode="4" horiz-adv-x="993" 
d="M573 0l52 287h-535l8 43l623 1132h67l-616 -1118h463l94 541h62l-95 -541h140l-11 -59h-139l-51 -285h-62z" />
    <glyph glyph-name="five" unicode="5" horiz-adv-x="983" 
d="M555 881q270 0 270 -291q-1 -117 -31 -241t-77 -195q-113 -168 -328 -168q-137 0 -215 68t-78 190q0 33 4 59l64 4q-4 -20 -4 -47q0 -104 59 -160t172 -57q193 0 287 168q34 63 58 169t24 218q0 111 -51 168t-168 57t-258 -98l-43 10l188 727h524l-10 -57h-473l-156 -604
q109 80 242 80z" />
    <glyph glyph-name="six" unicode="6" horiz-adv-x="993" 
d="M565 819q-174 0 -262 -151q-41 -72 -69 -190q-103 -435 186 -435q188 0 274 193q76 172 76 362q0 106 -53 164q-54 57 -152 57zM834 606q0 -209 -82 -393q-102 -227 -330 -227q-131 0 -205 72t-74 198q0 193 70 360q27 70 100 183l418 663h70l-404 -637q81 51 189 51
t178 -71q70 -72 70 -199z" />
    <glyph glyph-name="seven" unicode="7" horiz-adv-x="993" 
d="M219 0l684 1405h-565l10 57h633l-6 -39l-682 -1423h-74z" />
    <glyph glyph-name="eight" unicode="8" horiz-adv-x="993" 
d="M176 256q0 -104 62 -160t180 -55q188 0 272 135q37 64 62 162q102 404 -209 403q-199 0 -283 -143t-84 -342zM657 1421q-168 0 -245 -127q-74 -129 -74 -307q0 -188 211 -188q172 0 246 132t73 302q0 90 -54 139q-55 49 -157 49zM653 1479q133 -1 206 -63t73 -179
q0 -176 -74 -319q-53 -102 -176 -148q158 -51 158 -238q0 -102 -28 -213t-71 -178q-100 -158 -321 -157q-150 0 -229 68t-78 200q-1 90 25 196t65 175q64 112 203 151q-131 55 -132 207q0 88 24 185t58 159q90 154 297 154z" />
    <glyph glyph-name="nine" unicode="9" horiz-adv-x="993" 
d="M657 1419q-176 0 -258 -137q-35 -66 -61 -171t-25 -201q-1 -96 55 -151q56 -54 158 -54q176 0 260 153q39 66 63 163q61 246 -33 342q-57 56 -159 56zM504 647q-114 0 -185 69q-69 69 -69 180t28 228t66 187q98 166 307 166q137 0 211 -70t74 -197q0 -240 -143 -469
l-459 -741h-70l436 702q-82 -55 -196 -55z" />
    <glyph glyph-name="colon" unicode=":" horiz-adv-x="456" 
d="M260 862l25 142h61l-24 -142h-62zM109 0l24 141h62l-25 -141h-61z" />
    <glyph glyph-name="semicolon" unicode=";" horiz-adv-x="456" 
d="M262 862l25 142h61l-24 -142h-62zM-37 -385l172 526h72l-197 -526h-47z" />
    <glyph glyph-name="less" unicode="&#x3c;" horiz-adv-x="993" 
d="M219 756l580 -359l-11 -63l-649 409l6 33l793 410l-12 -72z" />
    <glyph glyph-name="equal" unicode="=" horiz-adv-x="993" 
d="M174 856l10 57h772l-10 -57h-772zM131 606l10 58h770l-10 -58h-770z" />
    <glyph glyph-name="greater" unicode="&#x3e;" horiz-adv-x="993" 
d="M866 764l-579 358l10 64l649 -410l-6 -33l-793 -409l13 72z" />
    <glyph glyph-name="question" unicode="?" horiz-adv-x="985" 
d="M365 0l24 141h62l-25 -141h-61zM668 1421q-264 0 -355 -325l-59 4q98 379 412 379q139 0 216 -78q76 -78 76 -217t-86 -273q-39 -59 -163 -170q-109 -92 -153 -155t-58 -152l-13 -69h-53l12 65q18 108 64 182t162 174q78 72 108 104t53 75q63 115 63 223t-58 171
q-59 62 -168 62z" />
    <glyph glyph-name="at" unicode="@" horiz-adv-x="1503" 
d="M905 1051q-137 0 -246 -174q-53 -92 -88 -203q-68 -217 -3 -295q32 -37 87 -37q151 0 265 202t114 355q0 70 -35 111t-94 41zM162 420q0 -461 504 -461q131 0 230 25t218 84l25 -48q-217 -118 -483 -118t-412 130q-145 130 -146 380q0 206 64 416t166 350
q229 309 614 309q258 0 400 -130t143 -366q0 -285 -133 -493t-316 -207q-121 0 -121 104q0 14 7 62q-115 -172 -267 -172q-88 0 -135 49t-47 142t37 211t96 214q127 207 301 207q78 0 119 -38t55 -122l52 137h51l-187 -536q-25 -70 -24 -129q0 -72 80 -72q137 0 243 168
q55 90 90 222t35 253q0 213 -125 326t-362 113q-383 0 -600 -355q-78 -129 -125 -307t-47 -348z" />
    <glyph glyph-name="A" unicode="A" horiz-adv-x="987" 
d="M762 412l-113 944l-448 -944h561zM768 354h-590l-168 -354h-69l696 1462h53l182 -1462h-63z" />
    <glyph glyph-name="B" unicode="B" horiz-adv-x="1105" 
d="M539 57q164 0 247 103q106 137 107 319q0 131 -54 191t-173 59h-355l-118 -672h346zM657 786q150 0 243 109t93 279q0 121 -58 176t-185 55h-320l-108 -619h335zM743 1462q168 0 240 -72t72 -213q0 -142 -68 -257t-180 -160q149 -66 149 -281t-122 -360q-53 -63 -121 -91
t-170 -28h-422l258 1462h364z" />
    <glyph glyph-name="C" unicode="C" horiz-adv-x="1089" 
d="M476 -16q-158 0 -237 82t-79 237q0 78 22 205l82 471q45 258 146 367q119 133 311 133q145 0 226 -73t81 -202q0 -20 -6 -74l-61 -2q4 53 4 58q0 111 -66 173t-180 62q-162 -1 -257 -109t-136 -341l-86 -479q-18 -104 -19 -179q0 -272 250 -272q137 0 234 82
q95 82 126 225l64 -4q-33 -168 -147 -264t-272 -96z" />
    <glyph glyph-name="D" unicode="D" horiz-adv-x="1161" 
d="M1020 1130q0 147 -96 222q-70 53 -205 53h-289l-237 -1348h288q178 -4 290 106t144 318l89 500q16 94 16 149zM723 1462q166 0 250 -71q109 -90 108 -250q0 -68 -16 -162l-92 -520q-33 -219 -160 -340t-324 -119h-368l258 1462h344z" />
    <glyph glyph-name="E" unicode="E" horiz-adv-x="980" 
d="M123 0l258 1462h659l-10 -57h-598l-113 -635h512l-8 -57h-514l-114 -656h596l-11 -57h-657z" />
    <glyph glyph-name="F" unicode="F" horiz-adv-x="921" 
d="M123 0l258 1462h657l-10 -57h-596l-115 -647h512l-10 -58h-512l-123 -700h-61z" />
    <glyph glyph-name="G" unicode="G" horiz-adv-x="1128" 
d="M513 -16q-177 0 -264 85t-87 242q0 68 22 197l82 471q45 254 146 367q125 133 319 133q147 0 231 -74t85 -205q0 -25 -7 -70l-61 -2q4 25 4 52q0 115 -68 178t-188 63q-166 -1 -263 -109t-138 -341l-84 -479q-18 -102 -19 -170q0 -281 277 -281q176 0 284 125
q86 96 119 287l39 219h-293l10 57h355l-49 -280q-23 -125 -56 -201t-92 -137q-127 -127 -304 -127z" />
    <glyph glyph-name="H" unicode="H" horiz-adv-x="1159" 
d="M123 0l258 1462h61l-123 -692h617l123 692h61l-258 -1462h-61l125 713h-617l-125 -713h-61z" />
    <glyph glyph-name="I" unicode="I" horiz-adv-x="481" 
d="M123 0l258 1462h61l-258 -1462h-61z" />
    <glyph glyph-name="J" unicode="J" horiz-adv-x="747" 
d="M164 43q166 0 248 156q35 68 73 284l172 979h62l-174 -985q-31 -176 -46 -232t-50 -110q-100 -150 -287 -149q-152 0 -244 104l47 43q76 -90 199 -90z" />
    <glyph glyph-name="K" unicode="K" horiz-adv-x="1052" 
d="M123 0l258 1462h61l-161 -917l780 917h72l-500 -594l297 -868h-66l-278 811l-326 -377l-76 -434h-61z" />
    <glyph glyph-name="L" unicode="L" horiz-adv-x="903" 
d="M123 0l258 1462h61l-247 -1405h608l-10 -57h-670z" />
    <glyph glyph-name="M" unicode="M" horiz-adv-x="1384" 
d="M123 0l258 1462h63l228 -1063l602 1063h69l-258 -1462h-61l233 1315l-585 -1032h-35l-221 1032l-232 -1315h-61z" />
    <glyph glyph-name="N" unicode="N" horiz-adv-x="1236" 
d="M123 0l258 1462h57l463 -1329l234 1329h61l-256 -1462h-59l-463 1329l-234 -1329h-61z" />
    <glyph glyph-name="O" unicode="O" horiz-adv-x="1157" 
d="M508 41q178 0 287 133q79 98 116 305l88 504q16 82 17 156q0 131 -77 207t-210 75q-174 0 -287 -133q-80 -98 -114 -305l-90 -504q-16 -102 -17 -153q0 -133 77 -209t210 -76zM715 1479q176 0 269 -89t93 -245q0 -78 -16 -164l-92 -524q-23 -131 -55 -206t-91 -138
q-127 -129 -302 -129t-268 88t-93 243q0 68 16 166l94 525q23 132 55 206t91 138q123 129 299 129z" />
    <glyph glyph-name="P" unicode="P" horiz-adv-x="1040" 
d="M575 670q109 0 180 30t124 103q104 141 104 348q1 135 -67 195t-207 59h-275l-129 -735h270zM707 1462q184 0 262 -82t78 -233q0 -225 -119 -381q-113 -154 -346 -154h-287l-109 -612h-61l258 1462h324z" />
    <glyph glyph-name="Q" unicode="Q" horiz-adv-x="1157" 
d="M522 41q148 0 252 111l-180 192l45 37l172 -184q41 61 61 116t39 166l88 504q16 82 17 156q0 131 -77 207t-210 75q-174 0 -287 -133q-80 -98 -114 -305l-90 -504q-16 -102 -17 -153q0 -133 77 -209q76 -76 224 -76zM160 315q0 68 16 166l94 525q23 132 55 206t91 138
q123 129 299 129t269 -89t93 -245q0 -78 -16 -164l-92 -524q-35 -199 -115 -307l125 -138l-45 -35l-119 129q-117 -122 -293 -122t-269 88t-93 243z" />
    <glyph glyph-name="R" unicode="R" horiz-adv-x="1103" 
d="M610 733q104 0 170 28t117 95q96 127 96 311q0 113 -63 175t-215 63h-281l-119 -672h295zM717 1462q186 0 266 -80q74 -80 74 -211q-1 -199 -101 -337t-251 -150l151 -684h-65l-148 676h-338l-119 -676h-61l258 1462h334z" />
    <glyph glyph-name="S" unicode="S" horiz-adv-x="995" 
d="M420 41q219 0 317 162q70 117 70 237q0 170 -123 226q-31 14 -165 59t-202 122t-67 197q0 162 96 298t301 137q289 0 301 -252l-61 -10q-13 106 -69 155t-169 49q-182 0 -270 -141q-66 -102 -66 -216q-1 -114 59 -176t182 -104t166 -62q151 -75 151 -251
q-1 -176 -91 -315q-115 -172 -362 -172q-168 0 -249 70t-87 216l61 13q12 -125 79 -183t198 -59z" />
    <glyph glyph-name="T" unicode="T" horiz-adv-x="903" 
d="M334 0l248 1405h-355l11 57h770l-11 -57h-354l-248 -1405h-61z" />
    <glyph glyph-name="U" unicode="U" horiz-adv-x="1181" 
d="M242 291q0 -121 71 -185q72 -63 205 -63q193 0 303 150q55 80 88 256l178 1013h62l-180 -1026q-23 -126 -49 -190t-72 -119q-127 -141 -328 -141q-162 0 -251 76t-89 217q0 72 21 182l176 1001h61l-178 -1013q-18 -111 -18 -158z" />
    <glyph glyph-name="V" unicode="V" horiz-adv-x="929" 
d="M354 0l-137 1462h62l120 -1325l590 1325h64l-654 -1462h-45z" />
    <glyph glyph-name="W" unicode="W" horiz-adv-x="1437" 
d="M272 0l-26 1462h59l21 -1298l544 1298h33l86 -1298l479 1298h64l-541 -1462h-45l-86 1298l-543 -1298h-45z" />
    <glyph glyph-name="X" unicode="X" horiz-adv-x="931" 
d="M479 768l-196 694h63l182 -641l400 641h69l-446 -710l213 -752h-64l-198 696l-436 -696h-70z" />
    <glyph glyph-name="Y" unicode="Y" horiz-adv-x="901" 
d="M332 0l96 545l-223 917h61l203 -835l498 835h67l-545 -917l-96 -545h-61z" />
    <glyph glyph-name="Z" unicode="Z" horiz-adv-x="897" 
d="M4 0l8 47l842 1358h-567l10 57h633l-8 -47l-840 -1358h627l-11 -57h-694z" />
    <glyph glyph-name="bracketleft" unicode="[" horiz-adv-x="708" 
d="M170 -201l319 1813h265l-11 -58h-202l-299 -1697h200l-8 -58h-264z" />
    <glyph glyph-name="backslash" unicode="\" horiz-adv-x="692" 
d="M477 -47h-63l-123 1556h65z" />
    <glyph glyph-name="bracketright" unicode="]" horiz-adv-x="708" 
d="M612 1612l-319 -1813h-264l10 58h201l301 1697h-203l10 58h264z" />
    <glyph glyph-name="asciicircum" unicode="^" horiz-adv-x="993" 
d="M657 1395l-395 -600h-69l462 680h29l221 -680h-61z" />
    <glyph glyph-name="underscore" unicode="_" horiz-adv-x="786" 
d="M-188 -338l10 57h868l-10 -57h-868z" />
    <glyph glyph-name="grave" unicode="`" 
d="M694 1196h-47l-112 266h81z" />
    <glyph glyph-name="a" unicode="a" horiz-adv-x="890" 
d="M424 500q-174 0 -245 -84t-70 -232q0 -84 55 -114t166 -29q166 0 229 84q37 45 55 158l39 217h-229zM698 795q0 168 -188 168q-88 0 -148 -42t-108 -137l-55 19q98 217 307 217q254 0 254 -217q0 -37 -17 -144l-116 -659h-54l7 74q-44 -50 -102 -70t-180 -20
q-254 0 -253 190q0 178 80 275q84 109 301 108h238l20 117q14 86 14 121z" />
    <glyph glyph-name="b" unicode="b" horiz-adv-x="964" 
d="M784 762q0 84 -52 142t-150 59q-260 0 -330 -400l-21 -123q-16 -88 -16 -155q0 -244 211 -244q244 0 305 344l39 221q14 72 14 156zM582 1020q128 0 196 -70t68 -200q0 -57 -17 -162l-38 -213q-68 -391 -363 -391q-201 0 -250 168l-35 -152h-51l258 1462h62l-107 -600
q94 158 277 158z" />
    <glyph glyph-name="c" unicode="c" horiz-adv-x="833" 
d="M383 -16q-264 0 -264 274q0 68 14 148l35 196q39 218 126 318t243 100t208 -92q23 -43 29 -125l-59 -12q-10 94 -49 133t-127 39q-127 1 -203 -89t-109 -282l-34 -205q-12 -63 -13 -123q0 -223 201 -223q94 0 153 42q58 42 93 136l61 -12q-70 -223 -305 -223z" />
    <glyph glyph-name="d" unicode="d" horiz-adv-x="964" 
d="M387 41q258 0 328 399l20 123q16 98 17 158q0 242 -213 242q-242 -1 -303 -345l-41 -233q-12 -72 -13 -121q0 -223 205 -223zM537 1020q201 0 249 -166l109 608h61l-258 -1462h-53l19 143q-94 -160 -279 -159q-129 0 -197 70t-67 202q0 63 14 143l41 230q35 199 124 295
t237 96z" />
    <glyph glyph-name="e" unicode="e" horiz-adv-x="917" 
d="M223 563h506q20 115 21 180q0 219 -205 220q-127 0 -204 -85t-110 -262zM394 41q101 0 161 42q59 42 94 136l58 -12q-74 -223 -326 -223q-127 0 -195 70t-67 202q0 63 16 158l35 200q37 201 113 291q100 115 262 115q129 0 197 -69t69 -199q0 -82 -31 -246h-567l-20 -113
q-12 -78 -13 -125q0 -111 56 -169t158 -58z" />
    <glyph glyph-name="f" unicode="f" horiz-adv-x="542" 
d="M293 946h-109l11 58h108l43 235q20 131 70 178t166 45h53l-8 -53h-39q-88 2 -125 -35t-60 -151l-38 -219h196l-10 -58h-197l-166 -946h-61z" />
    <glyph glyph-name="g" unicode="g" horiz-adv-x="962" 
d="M385 41q258 0 328 399l20 123q16 92 17 158q0 119 -56 180t-157 62q-243 -1 -304 -345l-40 -233q-12 -74 -13 -121q0 -223 205 -223zM535 1020q203 0 251 -170l35 154h51l-192 -1094q-66 -385 -385 -385q-119 0 -177 47t-67 147l60 11q8 -147 184 -148q135 0 215 82
t111 254l38 223q-94 -158 -276 -157q-129 0 -197 70t-67 206q0 53 14 139l41 230q35 199 124 295t237 96z" />
    <glyph glyph-name="h" unicode="h" horiz-adv-x="962" 
d="M586 1020q116 0 180 -62t63 -170q0 -68 -20 -178l-107 -610h-61l109 614q16 104 16 148q0 201 -186 201q-135 1 -213 -99t-117 -323l-96 -541h-62l258 1462h62l-105 -594q102 152 279 152z" />
    <glyph glyph-name="i" unicode="i" horiz-adv-x="419" 
d="M92 0l176 1004h62l-176 -1004h-62zM319 1294l31 168h62l-31 -168h-62z" />
    <glyph glyph-name="j" unicode="j" horiz-adv-x="430" 
d="M328 1294l28 168h62l-29 -168h-61zM276 1004h62l-193 -1084q-33 -213 -113 -304t-231 -87l11 59q114 -8 180 71t92 253z" />
    <glyph glyph-name="k" unicode="k" horiz-adv-x="866" 
d="M92 0l258 1462h62l-199 -1126l551 668h76l-353 -426l218 -578h-66l-195 524l-251 -299l-39 -225h-62z" />
    <glyph glyph-name="l" unicode="l" horiz-adv-x="481" 
d="M297 0q-176 0 -176 114q0 52 12 126l215 1222h62l-215 -1224q-11 -57 -11 -98q0 -42 27 -62t98 -21h43l-10 -57h-45z" />
    <glyph glyph-name="m" unicode="m" horiz-adv-x="1441" 
d="M563 1020q205 0 230 -182q96 182 284 182q109 0 170 -59t61 -153t-20 -198l-106 -610h-62l109 614q16 98 16 156q0 193 -172 193q-125 1 -197 -99t-112 -319l-96 -545h-62l109 618q16 88 16 150q0 195 -172 195q-125 1 -198 -99t-113 -323l-94 -541h-62l176 1004h54
l-19 -142q90 158 260 158z" />
    <glyph glyph-name="n" unicode="n" horiz-adv-x="962" 
d="M580 1020q118 0 184 -62t65 -170q0 -70 -20 -178l-107 -610h-61l109 614q16 98 16 150q0 199 -188 199q-135 1 -212 -99t-118 -323l-94 -541h-62l176 1004h54l-19 -142q94 158 277 158z" />
    <glyph glyph-name="o" unicode="o" horiz-adv-x="948" 
d="M768 745q0 217 -221 218q-131 0 -207 -83t-107 -257l-43 -242q-12 -70 -12 -121q0 -219 221 -219q131 0 207 83t107 257l43 242q12 68 12 122zM538 1020q294 0 291 -266q0 -51 -14 -148l-41 -233q-37 -203 -127 -296q-91 -93 -239 -93q-294 0 -291 268q0 65 14 145
l41 234q35 201 126 295q92 94 240 94z" />
    <glyph glyph-name="p" unicode="p" horiz-adv-x="964" 
d="M784 739q0 223 -204 224q-258 0 -328 -400l-21 -123q-16 -92 -16 -157q0 -242 211 -242q244 0 305 344l41 233q12 74 12 121zM582 1020q128 0 196 -70t68 -202q0 -63 -15 -144l-40 -229q-70 -391 -363 -391q-195 0 -250 161l-106 -606h-62l258 1465h51l-12 -138
q92 154 275 154z" />
    <glyph glyph-name="q" unicode="q" horiz-adv-x="964" 
d="M385 41q258 0 328 399l20 123q16 92 17 156q0 244 -213 244q-243 -1 -304 -345l-40 -233q-12 -66 -13 -121q0 -223 205 -223zM535 1020q205 0 249 -166l37 150h51l-258 -1465h-61l106 598q-53 -82 -119 -118q-66 -35 -176 -35t-178 70t-67 204q0 68 14 141l41 230
q35 199 123 295t238 96z" />
    <glyph glyph-name="r" unicode="r" horiz-adv-x="622" 
d="M543 1020q84 0 143 -43l-37 -53q-49 39 -110 39q-113 0 -184 -111t-113 -356l-88 -496h-62l176 1004h54l-23 -148q88 164 244 164z" />
    <glyph glyph-name="s" unicode="s" horiz-adv-x="802" 
d="M322 41q120 0 201 75t81 199q0 100 -98 141q-24 8 -136 34t-161 74t-49 160t76 204q80 92 236 92t216 -94q25 -39 27 -121l-60 -10q-8 168 -190 168q-109 0 -175 -71t-67 -183q0 -70 41 -105q41 -36 160 -62t170 -59q74 -49 74 -159q0 -160 -96 -250t-248 -90t-220 54
q-67 54 -81 171l61 14q10 -94 64 -138t174 -44z" />
    <glyph glyph-name="t" unicode="t" horiz-adv-x="540" 
d="M330 0q-182 0 -180 121q0 57 16 145l119 680h-107l10 58h107l63 352h60l-62 -352h158l-10 -58h-158l-123 -700q-12 -63 -12 -104q0 -85 113 -85h34l-10 -57h-18z" />
    <glyph glyph-name="u" unicode="u" horiz-adv-x="942" 
d="M195 238q0 -197 178 -197q129 0 205 100t114 322l96 541h62l-178 -1004h-51l18 141q-94 -158 -268 -157q-113 0 -175 61t-62 149t20 205l106 605h62l-109 -615q-18 -106 -18 -151z" />
    <glyph glyph-name="v" unicode="v" horiz-adv-x="806" 
d="M293 0l-135 1004h59l115 -900l430 900h65l-489 -1004h-45z" />
    <glyph glyph-name="w" unicode="w" horiz-adv-x="1298" 
d="M264 0l-86 1004h62l65 -887l410 887h39l96 -887l381 887h63l-438 -1004h-41l-100 881l-410 -881h-41z" />
    <glyph glyph-name="x" unicode="x" horiz-adv-x="757" 
d="M344 516l-158 488h66l141 -433l295 433h72l-344 -500l162 -504h-66l-147 446l-308 -446h-71z" />
    <glyph glyph-name="y" unicode="y" horiz-adv-x="806" 
d="M293 -18l-143 1022h57l131 -941l422 941h63l-571 -1254q-64 -131 -122 -175t-175 -46l10 57q90 2 134 36t96 140z" />
    <glyph glyph-name="z" unicode="z" horiz-adv-x="800" 
d="M10 0l6 39l637 907h-442l10 58h516l-6 -39l-637 -908h504l-10 -57h-578z" />
    <glyph glyph-name="braceleft" unicode="{" horiz-adv-x="708" 
d="M401 -201q-190 0 -190 159q0 79 27 228l41 238q29 164 28 199q0 115 -133 114h-12l8 47h12q106 4 148 66t69 260l25 139q33 211 95 287t202 76h37l-10 -53h-29q-113 -2 -159 -75t-87 -306l-16 -93q-27 -172 -60 -234t-114 -91q88 -31 88 -133q0 -33 -29 -193l-43 -241
q-27 -157 -27 -217q0 -124 148 -123h26l-8 -54h-37z" />
    <glyph glyph-name="bar" unicode="|" horiz-adv-x="993" 
d="M344 -201l320 1813h57l-320 -1813h-57z" />
    <glyph glyph-name="braceright" unicode="}" horiz-adv-x="708" 
d="M430 895q0 33 29 190l22 134q25 141 25 209t-34 99q-34 32 -110 32h-28l10 53h35q100 0 145 -40t45 -120t-24 -227l-23 -127q-29 -154 -28 -201q0 -113 133 -113h12l-8 -47h-13q-106 -6 -147 -67t-70 -260l-45 -248q-35 -213 -95 -288t-202 -75h-34l10 54h26
q115 3 161 75t85 305l37 201q27 174 59 236q33 61 115 92q-88 31 -88 133z" />
    <glyph glyph-name="asciitilde" unicode="~" horiz-adv-x="993" 
d="M710 643q-64 0 -95 17q-32 18 -87 72t-84 70t-63 17q-98 0 -178 -160l-47 15q53 110 106 156q54 46 114 46t99 -18q39 -20 93 -74t81 -68q27 -15 64 -16q90 0 168 156l47 -14q-54 -111 -104 -155t-114 -44z" />
    <glyph glyph-name="uni00A0" unicode="&#xa0;" horiz-adv-x="372" 
 />
    <glyph glyph-name="exclamdown" unicode="&#xa1;" horiz-adv-x="477" 
d="M356 1004l-24 -142h-62l25 142h61zM289 639l-187 -1098h-67l201 1098h53z" />
    <glyph glyph-name="cent" unicode="&#xa2;" horiz-adv-x="983" 
d="M659 1305q-133 0 -209 -88t-108 -283l-35 -203q-12 -63 -12 -123q0 -225 209 -225q186 0 254 178l55 -8q-66 -217 -285 -227l-39 -224h-57l39 226q-121 12 -179 79t-59 193q0 70 15 148l35 196q35 213 125 314t247 104l37 215h58l-39 -219q188 -25 194 -213l-59 -12
q-10 94 -53 133t-134 39z" />
    <glyph glyph-name="sterling" unicode="&#xa3;" horiz-adv-x="983" 
d="M342 563q0 47 -8 103h-178l10 57h156q-41 143 -51 187q-9 44 -9 100q0 184 96 319q111 150 312 150q311 0 311 -293q0 -31 -6 -96l-62 -7q6 61 7 91q0 248 -254 247q-164 0 -251 -124t-87 -277q0 -53 10 -98t55 -199h312l-11 -57h-293q6 -51 7 -86q0 -309 -250 -523h653
l-10 -57h-758l8 49q86 47 174 164q117 158 117 350z" />
    <glyph glyph-name="currency" unicode="&#xa4;" horiz-adv-x="993" 
d="M831 686q-1 144 -85 242q-84 96 -214 96t-216 -94t-87 -240q0 -146 86 -242t216 -96t215 95t85 239zM168 688q0 156 92 275l-158 178l39 35l156 -181q109 86 233 86t234 -86l156 181l38 -35l-157 -178q92 -117 92 -275t-92 -274l157 -178l-38 -35l-156 178
q-111 -84 -234 -84t-233 84l-156 -178l-39 35l158 178q-92 118 -92 274z" />
    <glyph glyph-name="yen" unicode="&#xa5;" horiz-adv-x="993" 
d="M377 0l59 334h-293l11 57h292l31 170h-293l11 57h268l-213 844h61l207 -819l496 819h67l-510 -844h271l-11 -57h-292l-31 -170h293l-10 -57h-293l-60 -334h-61z" />
    <glyph glyph-name="brokenbar" unicode="&#xa6;" horiz-adv-x="835" 
d="M299 0l84 479h61l-84 -479h-61zM469 969l88 493h61l-88 -493h-61z" />
    <glyph glyph-name="section" unicode="&#xa7;" horiz-adv-x="983" 
d="M246 630q0 -90 32 -122t160 -82l121 -47q127 63 176 131t49 157t-32 119t-160 82l-123 50q-119 -57 -171 -127q-52 -71 -52 -161zM352 -125q131 0 214 81t83 208q0 78 -39 114q-40 36 -184 88t-194 100t-50 138q0 137 80 230q39 47 156 110q-49 33 -69 69q-19 37 -19 99
t24 134q76 232 310 231q209 0 235 -187l-59 -18q-25 147 -172 147q-121 0 -198 -83t-77 -212q0 -88 56 -125q29 -18 163 -73t170 -82q66 -53 66 -156q0 -145 -96 -246q-51 -47 -142 -90q57 -34 80 -72t23 -98q-1 -164 -101 -264t-262 -100q-221 0 -262 215l57 18
q23 -98 69 -137t138 -39z" />
    <glyph glyph-name="dieresis" unicode="&#xa8;" 
d="M768 1219l29 167h59l-29 -167h-59zM451 1219l28 167h62l-31 -167h-59z" />
    <glyph glyph-name="copyright" unicode="&#xa9;" horiz-adv-x="1550" 
d="M768 1425q-288 0 -465 -202q-178 -203 -178 -499t183 -492t465 -196t465 196t183 497t-182 499q-183 197 -471 197zM775 1479q308 0 507 -213t199 -537q0 -325 -200 -535t-508 -210t-508 211q-199 211 -199 537t200 537q201 210 509 210zM788 371q-119 -1 -173 69
t-54 224v135q0 153 53 223t172 70q199 0 209 -172l-53 -2q-16 121 -154 120q-90 0 -131 -57t-41 -182v-135q0 -124 42 -182t133 -58q141 0 157 121l53 -2q-10 -172 -213 -172z" />
    <glyph glyph-name="ordfeminine" unicode="&#xaa;" horiz-adv-x="546" 
d="M373 1147q-111 0 -146 -48q-35 -47 -35 -107t29 -78q29 -17 105 -17t114 30q39 30 52 101l20 119h-139zM424 1419q-90 0 -148 -78l-45 21q68 111 199 111q170 0 170 -130q0 -27 -10 -88l-72 -401h-51l4 45q-35 -33 -67 -44t-91 -11q-182 0 -182 123q0 106 51 168
q59 66 201 65h135l10 55q8 47 9 70q0 94 -113 94z" />
    <glyph glyph-name="guillemotleft" unicode="&#xab;" horiz-adv-x="630" 
d="M172 600l113 -252l-39 -22l-148 278l246 281l31 -31zM420 600l112 -252l-38 -22l-148 278l246 281l31 -31z" />
    <glyph glyph-name="logicalnot" unicode="&#xac;" horiz-adv-x="993" 
d="M152 731l10 57h717l-84 -466h-62l74 409h-655z" />
    <glyph glyph-name="uni00AD" unicode="&#xad;" horiz-adv-x="811" 
d="M233 731l11 57h426l-11 -57h-426z" />
    <glyph glyph-name="registered" unicode="&#xae;" horiz-adv-x="1159" 
d="M578 1669q-205 0 -329 -136t-124 -347t124 -347q124 -137 331 -137q206 0 330 138t124 348q0 209 -126 345t-330 136zM581 1724q224 0 369 -154q146 -154 146 -385q0 -232 -146 -385t-370 -153q-223 0 -370 153q-146 154 -146 388t146 385q147 151 371 151zM473 1202h143
q111 0 111 106t-121 105h-133v-211zM473 1153v-244h-53v553h188q174 0 174 -153q0 -133 -116 -152l120 -248h-59l-117 244h-137z" />
    <glyph glyph-name="macron" unicode="&#xaf;" 
d="M475 1300l8 50h359l-8 -50h-359z" />
    <glyph glyph-name="degree" unicode="&#xb0;" horiz-adv-x="626" 
d="M442 1464q-100 0 -160 -63t-60 -172t60 -172t160 -63t160 64q59 65 60 171q0 107 -60 171t-160 64zM160 1229q0 131 78 211t204 80q127 0 204 -81t77 -211t-77 -210t-204 -80q-126 0 -204 80t-78 211z" />
    <glyph glyph-name="plusminus" unicode="&#xb1;" horiz-adv-x="993" 
d="M16 76l11 57h809l-11 -57h-809zM131 731l10 57h377l72 410h57l-72 -410h375l-10 -57h-375l-71 -409h-58l72 409h-377z" />
    <glyph glyph-name="twosuperior" unicode="&#xb2;" horiz-adv-x="614" 
d="M614 1499q0 125 -122 125q-68 0 -111 -38t-76 -126l-55 6q64 211 244 211t180 -172q0 -96 -46 -186t-159 -211l-244 -264h334l-10 -53h-414l8 40l285 318q186 203 186 350z" />
    <glyph glyph-name="threesuperior" unicode="&#xb3;" horiz-adv-x="614" 
d="M408 1278q88 0 147 61t59 154q0 129 -128 129t-177 -147l-55 8q53 193 236 193t184 -177q0 -174 -156 -246q102 -51 102 -182t-73 -210q-74 -79 -197 -79q-205 0 -205 160q0 20 2 39l58 10q-2 -8 -2 -18q0 -137 145 -137q94 0 154 65q59 66 59 153t-43 129t-115 42h-81
l10 53h76z" />
    <glyph glyph-name="acute" unicode="&#xb4;" 
d="M582 1196l163 266h89l-203 -266h-49z" />
    <glyph glyph-name="mu" unicode="&#xb5;" horiz-adv-x="993" 
d="M406 41q128 0 202 100t115 322l94 541h62l-177 -1004h-51l19 141q-94 -158 -269 -157q-147 0 -206 114l-103 -559h-61l258 1465h61l-108 -619q-16 -95 -16 -169t46 -124q47 -50 134 -51z" />
    <glyph glyph-name="paragraph" unicode="&#xb6;" horiz-adv-x="942" 
d="M401 729q-121 0 -176 39q-88 61 -88 221q0 121 46 239t116 173q51 43 99 52t214 9h322l-307 -1741h-62l297 1684h-225l-297 -1684h-61l178 1008h-56z" />
    <glyph glyph-name="periodcentered" unicode="&#xb7;" horiz-adv-x="454" 
d="M231 690l25 139h61l-24 -139h-62z" />
    <glyph glyph-name="cedilla" unicode="&#xb8;" 
d="M268 -422l140 266h75l-168 -266h-47z" />
    <glyph glyph-name="onesuperior" unicode="&#xb9;" horiz-adv-x="468" 
d="M274 791l142 808l-148 -65l-22 47l194 86h45l-153 -876h-58z" />
    <glyph glyph-name="ordmasculine" unicode="&#xba;" horiz-adv-x="587" 
d="M236 1009q0 -46 34 -78t95 -32q153 0 182 176l26 150q11 53 11 91t-34 72q-34 32 -95 31q-156 0 -187 -178l-26 -149q-6 -37 -6 -83zM370 846q-196 0 -196 168q0 24 8 90l27 141q39 227 237 227t197 -172q0 -33 -10 -86l-25 -143q-42 -225 -238 -225z" />
    <glyph glyph-name="guillemotright" unicode="&#xbb;" horiz-adv-x="630" 
d="M496 608l-111 254l39 23l147 -281l-245 -278l-31 30zM248 608l-111 254l39 23l148 -281l-246 -278l-31 30z" />
    <glyph glyph-name="onequarter" unicode="&#xbc;" horiz-adv-x="1488" 
d="M393 0l629 1462h61l-630 -1462h-60zM1118 0l33 178h-336l6 43l385 656h64l-379 -641h268l47 262h58l-47 -262h88l-11 -60h-88l-30 -176h-58zM315 586l142 809l-148 -66l-22 47l194 86h45l-153 -876h-58z" />
    <glyph glyph-name="onehalf" unicode="&#xbd;" horiz-adv-x="1478" 
d="M365 0l630 1462h62l-631 -1462h-61zM1298 709q0 125 -126 125t-185 -164l-53 6q60 211 242 211t182 -172q0 -97 -46 -187t-159 -211l-244 -264h334l-10 -53h-414l6 41l287 317q100 111 143 192t43 159zM297 586l141 809l-147 -66l-23 47l195 86h45l-154 -876h-57z" />
    <glyph glyph-name="threequarters" unicode="&#xbe;" horiz-adv-x="1478" 
d="M440 0l629 1462h61l-628 -1462h-62zM1110 0l33 178h-336l6 43l385 656h64l-379 -641h268l47 262h57l-47 -262h88l-8 -60h-88l-33 -176h-57zM379 1073q88 1 147 63t60 152q0 129 -128 129t-177 -147l-56 8q55 192 237 192t183 -175q0 -175 -156 -246q103 -51 103 -173
t-65 -210t-205 -88q-205 0 -205 157q0 18 2 41l57 10q-2 -6 -2 -12q-4 -68 34 -106t122 -37q84 0 143 65q59 66 59 153t-43 129t-114 42h-82l10 53h76z" />
    <glyph glyph-name="questiondown" unicode="&#xbf;" horiz-adv-x="985" 
d="M625 1004l-27 -142h-61l26 142h62zM324 -475q-139 0 -216 78t-77 217t86 272q39 59 164 170q109 92 153 156t58 151l12 70h53l-12 -64q-19 -111 -65 -185t-161 -173q-77 -71 -107 -103t-54 -75q-64 -115 -64 -223t60 -171q60 -62 168 -63q264 0 354 326l59 -4
q-98 -379 -411 -379z" />
    <glyph glyph-name="Agrave" unicode="&#xc0;" horiz-adv-x="987" 
d="M731 1638h-47l-113 267h82zM762 412l-113 944l-448 -944h561zM768 354h-590l-168 -354h-69l696 1462h53l182 -1462h-63z" />
    <glyph glyph-name="Aacute" unicode="&#xc1;" horiz-adv-x="987" 
d="M653 1638l164 267h88l-203 -267h-49zM762 412l-113 944l-448 -944h561zM768 354h-590l-168 -354h-69l696 1462h53l182 -1462h-63z" />
    <glyph glyph-name="Acircumflex" unicode="&#xc2;" horiz-adv-x="987" 
d="M715 1825l-160 -172h-88l242 237h26l158 -237h-80zM762 412l-113 944l-448 -944h561zM768 354h-590l-168 -354h-69l696 1462h53l182 -1462h-63z" />
    <glyph glyph-name="Atilde" unicode="&#xc3;" horiz-adv-x="987" 
d="M801 1720q49 0 98 119h47q-36 -92 -70 -130t-88 -38t-108 68q-54 67 -82 67q-29 0 -48 -24t-50 -94h-47q37 92 70 130q34 38 85 38t109 -68q53 -68 84 -68zM762 412l-113 944l-448 -944h561zM768 354h-590l-168 -354h-69l696 1462h53l182 -1462h-63z" />
    <glyph glyph-name="Adieresis" unicode="&#xc4;" horiz-adv-x="987" 
d="M809 1661l29 168h59l-29 -168h-59zM492 1661l28 168h62l-31 -168h-59zM762 412l-113 944l-448 -944h561zM768 354h-590l-168 -354h-69l696 1462h53l182 -1462h-63z" />
    <glyph glyph-name="Aring" unicode="&#xc5;" horiz-adv-x="987" 
d="M729 1942q-59 0 -97 -48t-38 -125q0 -96 92 -96q57 0 95 49t38 121q0 99 -90 99zM723 1991q158 0 158 -163q-1 -81 -57 -142q-56 -62 -133 -62t-118 40t-41 122t56 144t135 61zM762 412l-113 944l-448 -944h561zM768 354h-590l-168 -354h-69l696 1462h53l182 -1462h-63z
" />
    <glyph glyph-name="AE" unicode="&#xc6;" horiz-adv-x="1591" 
d="M805 416l174 989h-16l-711 -989h553zM795 358h-584l-258 -358h-72l1055 1462h713l-9 -57h-600l-112 -635h514l-10 -57h-514l-115 -656h596l-10 -57h-658z" />
    <glyph glyph-name="Ccedilla" unicode="&#xc7;" horiz-adv-x="1089" 
d="M270 -422l140 266h75l-168 -266h-47zM476 -16q-158 0 -237 82t-79 237q0 78 22 205l82 471q45 258 146 367q119 133 311 133q145 0 226 -73t81 -202q0 -20 -6 -74l-61 -2q4 53 4 58q0 111 -66 173t-180 62q-162 -1 -257 -109t-136 -341l-86 -479q-18 -104 -19 -179
q0 -272 250 -272q137 0 234 82q95 82 126 225l64 -4q-33 -168 -147 -264t-272 -96z" />
    <glyph glyph-name="Egrave" unicode="&#xc8;" horiz-adv-x="980" 
d="M786 1638h-47l-112 267h82zM123 0l258 1462h659l-10 -57h-598l-113 -635h512l-8 -57h-514l-114 -656h596l-11 -57h-657z" />
    <glyph glyph-name="Eacute" unicode="&#xc9;" horiz-adv-x="980" 
d="M674 1638l164 267h88l-203 -267h-49zM123 0l258 1462h659l-10 -57h-598l-113 -635h512l-8 -57h-514l-114 -656h596l-11 -57h-657z" />
    <glyph glyph-name="Ecircumflex" unicode="&#xca;" horiz-adv-x="980" 
d="M764 1825l-160 -172h-88l242 237h26l158 -237h-80zM123 0l258 1462h659l-10 -57h-598l-113 -635h512l-8 -57h-514l-114 -656h596l-11 -57h-657z" />
    <glyph glyph-name="Edieresis" unicode="&#xcb;" horiz-adv-x="980" 
d="M860 1661l29 168h59l-28 -168h-60zM543 1661l28 168h62l-31 -168h-59zM123 0l258 1462h659l-10 -57h-598l-113 -635h512l-8 -57h-514l-114 -656h596l-11 -57h-657z" />
    <glyph glyph-name="Igrave" unicode="&#xcc;" horiz-adv-x="481" 
d="M502 1638h-47l-113 267h82zM123 0l258 1462h61l-258 -1462h-61z" />
    <glyph glyph-name="Iacute" unicode="&#xcd;" horiz-adv-x="481" 
d="M389 1638l164 267h88l-203 -267h-49zM123 0l258 1462h61l-258 -1462h-61z" />
    <glyph glyph-name="Icircumflex" unicode="&#xce;" horiz-adv-x="481" 
d="M479 1825l-160 -172h-88l242 237h27l157 -237h-79zM123 0l258 1462h61l-258 -1462h-61z" />
    <glyph glyph-name="Idieresis" unicode="&#xcf;" horiz-adv-x="481" 
d="M573 1661l31 168h60l-29 -168h-62zM258 1661l29 168h59l-29 -168h-59zM123 0l258 1462h61l-258 -1462h-61z" />
    <glyph glyph-name="Eth" unicode="&#xd0;" horiz-adv-x="1161" 
d="M1022 1130q0 145 -98 222q-66 53 -203 53h-289l-113 -635h349l-11 -57h-348l-114 -656h288q178 -4 290 106t145 318l88 500q16 90 16 149zM723 1462q168 0 252 -71q109 -90 108 -250q0 -59 -16 -162l-92 -520q-35 -221 -161 -341t-325 -118h-366l125 713h-154l10 57h154
l123 692h342z" />
    <glyph glyph-name="Ntilde" unicode="&#xd1;" horiz-adv-x="1236" 
d="M934 1720q49 0 98 119h47q-37 -92 -71 -130t-87 -38t-107 68q-54 67 -83 67t-48 -24t-50 -94h-47q37 92 70 130q34 38 86 38t108 -68q53 -68 84 -68zM123 0l258 1462h57l463 -1329l234 1329h61l-256 -1462h-59l-463 1329l-234 -1329h-61z" />
    <glyph glyph-name="Ograve" unicode="&#xd2;" horiz-adv-x="1157" 
d="M838 1638h-47l-113 267h82zM508 41q178 0 287 133q79 98 116 305l88 504q16 82 17 156q0 131 -77 207t-210 75q-174 0 -287 -133q-80 -98 -114 -305l-90 -504q-16 -102 -17 -153q0 -133 77 -209t210 -76zM715 1479q176 0 269 -89t93 -245q0 -78 -16 -164l-92 -524
q-23 -131 -55 -206t-91 -138q-127 -129 -302 -129t-268 88t-93 243q0 68 16 166l94 525q23 132 55 206t91 138q123 129 299 129z" />
    <glyph glyph-name="Oacute" unicode="&#xd3;" horiz-adv-x="1157" 
d="M725 1638l164 267h88l-203 -267h-49zM508 41q178 0 287 133q79 98 116 305l88 504q16 82 17 156q0 131 -77 207t-210 75q-174 0 -287 -133q-80 -98 -114 -305l-90 -504q-16 -102 -17 -153q0 -133 77 -209t210 -76zM715 1479q176 0 269 -89t93 -245q0 -78 -16 -164
l-92 -524q-23 -131 -55 -206t-91 -138q-127 -129 -302 -129t-268 88t-93 243q0 68 16 166l94 525q23 132 55 206t91 138q123 129 299 129z" />
    <glyph glyph-name="Ocircumflex" unicode="&#xd4;" horiz-adv-x="1157" 
d="M815 1825l-160 -172h-88l242 237h27l157 -237h-80zM508 41q178 0 287 133q79 98 116 305l88 504q16 82 17 156q0 131 -77 207t-210 75q-174 0 -287 -133q-80 -98 -114 -305l-90 -504q-16 -102 -17 -153q0 -133 77 -209t210 -76zM715 1479q176 0 269 -89t93 -245
q0 -78 -16 -164l-92 -524q-23 -131 -55 -206t-91 -138q-127 -129 -302 -129t-268 88t-93 243q0 68 16 166l94 525q23 132 55 206t91 138q123 129 299 129z" />
    <glyph glyph-name="Otilde" unicode="&#xd5;" horiz-adv-x="1157" 
d="M903 1720q49 0 98 119h48q-37 -92 -71 -130t-88 -38t-108 68q-54 67 -82 67q-29 0 -48 -24t-50 -94h-47q37 92 71 130t85 38t108 -68q53 -68 84 -68zM508 41q178 0 287 133q79 98 116 305l88 504q16 82 17 156q0 131 -77 207t-210 75q-174 0 -287 -133q-80 -98 -114 -305
l-90 -504q-16 -102 -17 -153q0 -133 77 -209t210 -76zM715 1479q176 0 269 -89t93 -245q0 -78 -16 -164l-92 -524q-23 -131 -55 -206t-91 -138q-127 -129 -302 -129t-268 88t-93 243q0 68 16 166l94 525q23 132 55 206t91 138q123 129 299 129z" />
    <glyph glyph-name="Odieresis" unicode="&#xd6;" horiz-adv-x="1157" 
d="M911 1661l29 168h59l-28 -168h-60zM594 1661l29 168h61l-31 -168h-59zM508 41q178 0 287 133q79 98 116 305l88 504q16 82 17 156q0 131 -77 207t-210 75q-174 0 -287 -133q-80 -98 -114 -305l-90 -504q-16 -102 -17 -153q0 -133 77 -209t210 -76zM715 1479
q176 0 269 -89t93 -245q0 -78 -16 -164l-92 -524q-23 -131 -55 -206t-91 -138q-127 -129 -302 -129t-268 88t-93 243q0 68 16 166l94 525q23 132 55 206t91 138q123 129 299 129z" />
    <glyph glyph-name="multiply" unicode="&#xd7;" horiz-adv-x="993" 
d="M502 760l-264 319l47 39l262 -319l377 319l32 -39l-376 -319l264 -320l-47 -39l-262 320l-377 -320l-33 39z" />
    <glyph glyph-name="Oslash" unicode="&#xd8;" horiz-adv-x="1155" 
d="M730 1421q-177 0 -286 -133q-82 -98 -116 -305l-88 -504q-18 -104 -18 -149t11 -92l750 1048q-76 135 -253 135zM510 41q176 0 285 133q47 57 71 123q25 66 45 182l90 504q17 103 17 147t-10 95l-752 -1051q78 -133 254 -133zM504 -16q-196 0 -287 133l-100 -140l-47 31
l116 164q-26 68 -26 136t18 173l92 525q23 132 55 206t91 138q124 129 320 129t288 -136l94 134l47 -33l-112 -156q27 -56 27 -130t-17 -177l-94 -524q-23 -133 -55 -207t-91 -137q-123 -129 -319 -129z" />
    <glyph glyph-name="Ugrave" unicode="&#xd9;" horiz-adv-x="1181" 
d="M852 1638h-47l-113 267h82zM242 291q0 -121 71 -185q72 -63 205 -63q193 0 303 150q55 80 88 256l178 1013h62l-180 -1026q-23 -126 -49 -190t-72 -119q-127 -141 -328 -141q-162 0 -251 76t-89 217q0 72 21 182l176 1001h61l-178 -1013q-18 -111 -18 -158z" />
    <glyph glyph-name="Uacute" unicode="&#xda;" horiz-adv-x="1181" 
d="M737 1638l164 267h88l-203 -267h-49zM242 291q0 -121 71 -185q72 -63 205 -63q193 0 303 150q55 80 88 256l178 1013h62l-180 -1026q-23 -126 -49 -190t-72 -119q-127 -141 -328 -141q-162 0 -251 76t-89 217q0 72 21 182l176 1001h61l-178 -1013q-18 -111 -18 -158z" />
    <glyph glyph-name="Ucircumflex" unicode="&#xdb;" horiz-adv-x="1181" 
d="M825 1825l-159 -172h-88l241 237h27l158 -237h-80zM242 291q0 -121 71 -185q72 -63 205 -63q193 0 303 150q55 80 88 256l178 1013h62l-180 -1026q-23 -126 -49 -190t-72 -119q-127 -141 -328 -141q-162 0 -251 76t-89 217q0 72 21 182l176 1001h61l-178 -1013
q-18 -111 -18 -158z" />
    <glyph glyph-name="Udieresis" unicode="&#xdc;" horiz-adv-x="1181" 
d="M926 1661l28 168h60l-29 -168h-59zM608 1661l29 168h61l-30 -168h-60zM242 291q0 -121 71 -185q72 -63 205 -63q193 0 303 150q55 80 88 256l178 1013h62l-180 -1026q-23 -126 -49 -190t-72 -119q-127 -141 -328 -141q-162 0 -251 76t-89 217q0 72 21 182l176 1001h61
l-178 -1013q-18 -111 -18 -158z" />
    <glyph glyph-name="Yacute" unicode="&#xdd;" horiz-adv-x="901" 
d="M606 1638l164 267h88l-203 -267h-49zM332 0l96 545l-223 917h61l203 -835l498 835h67l-545 -917l-96 -545h-61z" />
    <glyph glyph-name="Thorn" unicode="&#xde;" horiz-adv-x="1040" 
d="M532 424q109 0 180 31t124 102q104 141 104 348q0 127 -64 191t-210 63h-275l-131 -735h272zM664 1217q176 0 258 -77t82 -239q0 -225 -119 -381q-113 -154 -346 -153h-287l-66 -367h-61l258 1462h61l-43 -245h263z" />
    <glyph glyph-name="germandbls" unicode="&#xdf;" horiz-adv-x="964" 
d="M621 1477q258 0 258 -238q0 -102 -38 -187t-106 -132q59 -31 81 -76t22 -125t-17 -172l-26 -150q-33 -211 -108 -305t-210 -92h-100l8 57h84q117 -2 174 75t92 276l25 133q16 94 16 183t-33 126t-118 37h-33l8 53h27q90 0 141 98q47 82 47 199q0 182 -197 182
q-113 1 -176 -65t-88 -209l-202 -1145h-62l203 1149q29 168 108 248q80 80 220 80z" />
    <glyph glyph-name="agrave" unicode="&#xe0;" horiz-adv-x="890" 
d="M627 1196h-47l-113 266h82zM424 500q-174 0 -245 -84t-70 -232q0 -84 55 -114t166 -29q166 0 229 84q37 45 55 158l39 217h-229zM698 795q0 168 -188 168q-88 0 -148 -42t-108 -137l-55 19q98 217 307 217q254 0 254 -217q0 -37 -17 -144l-116 -659h-54l7 74
q-44 -50 -102 -70t-180 -20q-254 0 -253 190q0 178 80 275q84 109 301 108h238l20 117q14 86 14 121z" />
    <glyph glyph-name="aacute" unicode="&#xe1;" horiz-adv-x="890" 
d="M512 1196l164 266h88l-203 -266h-49zM424 500q-174 0 -245 -84t-70 -232q0 -84 55 -114t166 -29q166 0 229 84q37 45 55 158l39 217h-229zM698 795q0 168 -188 168q-88 0 -148 -42t-108 -137l-55 19q98 217 307 217q254 0 254 -217q0 -37 -17 -144l-116 -659h-54l7 74
q-44 -50 -102 -70t-180 -20q-254 0 -253 190q0 178 80 275q84 109 301 108h238l20 117q14 86 14 121z" />
    <glyph glyph-name="acircumflex" unicode="&#xe2;" horiz-adv-x="890" 
d="M600 1382l-160 -172h-88l242 238h27l157 -238h-80zM424 500q-174 0 -245 -84t-70 -232q0 -84 55 -114t166 -29q166 0 229 84q37 45 55 158l39 217h-229zM698 795q0 168 -188 168q-88 0 -148 -42t-108 -137l-55 19q98 217 307 217q254 0 254 -217q0 -37 -17 -144
l-116 -659h-54l7 74q-44 -50 -102 -70t-180 -20q-254 0 -253 190q0 178 80 275q84 109 301 108h238l20 117q14 86 14 121z" />
    <glyph glyph-name="atilde" unicode="&#xe3;" horiz-adv-x="890" 
d="M492 1413q52 0 108 -67q51 -68 84 -68q49 0 98 119h47q-37 -92 -71 -130t-87 -38q-53 -1 -107 67t-85 68q-47 0 -96 -119h-47q37 92 71 130q33 38 85 38zM424 500q-174 0 -245 -84t-70 -232q0 -84 55 -114t166 -29q166 0 229 84q37 45 55 158l39 217h-229zM698 795
q0 168 -188 168q-88 0 -148 -42t-108 -137l-55 19q98 217 307 217q254 0 254 -217q0 -37 -17 -144l-116 -659h-54l7 74q-44 -50 -102 -70t-180 -20q-254 0 -253 190q0 178 80 275q84 109 301 108h238l20 117q14 86 14 121z" />
    <glyph glyph-name="adieresis" unicode="&#xe4;" horiz-adv-x="890" 
d="M700 1219l29 167h59l-28 -167h-60zM383 1219l29 167h61l-31 -167h-59zM424 500q-174 0 -245 -84t-70 -232q0 -84 55 -114t166 -29q166 0 229 84q37 45 55 158l39 217h-229zM698 795q0 168 -188 168q-88 0 -148 -42t-108 -137l-55 19q98 217 307 217q254 0 254 -217
q0 -37 -17 -144l-116 -659h-54l7 74q-44 -50 -102 -70t-180 -20q-254 0 -253 190q0 178 80 275q84 109 301 108h238l20 117q14 86 14 121z" />
    <glyph glyph-name="aring" unicode="&#xe5;" horiz-adv-x="890" 
d="M711 1403q0 96 -98 96q-51 0 -89 -48t-39 -124q0 -96 93 -96q57 0 95 49t38 123zM582 1182q-158 0 -158 162q0 82 56 143q57 61 135 61q157 0 157 -162q0 -80 -56 -142t-134 -62zM424 500q-174 0 -245 -84t-70 -232q0 -84 55 -114t166 -29q166 0 229 84q37 45 55 158
l39 217h-229zM698 795q0 168 -188 168q-88 0 -148 -42t-108 -137l-55 19q98 217 307 217q254 0 254 -217q0 -37 -17 -144l-116 -659h-54l7 74q-44 -50 -102 -70t-180 -20q-254 0 -253 190q0 178 80 275q84 109 301 108h238l20 117q14 86 14 121z" />
    <glyph glyph-name="ae" unicode="&#xe6;" horiz-adv-x="1423" 
d="M1255 743q0 219 -204 220q-252 0 -312 -347l-10 -53h506q20 119 20 180zM426 502q-176 0 -247 -85t-70 -233q0 -84 55 -114t164 -29q160 0 225 88q45 61 65 176l35 197h-227zM512 1020q215 0 242 -170q102 170 295 170q131 0 199 -70t69 -200q0 -84 -31 -244h-569
l-21 -117q-12 -70 -12 -119q0 -111 58 -170t160 -59t160 42t93 136l57 -12q-72 -223 -313 -223q-209 0 -260 188q-45 -104 -116 -146t-209 -42t-203 45q-66 45 -66 145q0 172 80 277q88 109 303 108h236l20 115q12 68 12 114q0 174 -180 174t-262 -180l-51 21
q94 217 309 217z" />
    <glyph glyph-name="ccedilla" unicode="&#xe7;" horiz-adv-x="833" 
d="M176 -422l139 266h76l-168 -266h-47zM383 -16q-264 0 -264 274q0 68 14 148l35 196q39 218 126 318t243 100t208 -92q23 -43 29 -125l-59 -12q-10 94 -49 133t-127 39q-127 1 -203 -89t-109 -282l-34 -205q-12 -63 -13 -123q0 -223 201 -223q94 0 153 42q58 42 93 136
l61 -12q-70 -223 -305 -223z" />
    <glyph glyph-name="egrave" unicode="&#xe8;" horiz-adv-x="917" 
d="M643 1196h-47l-113 266h82zM223 563h506q20 115 21 180q0 219 -205 220q-127 0 -204 -85t-110 -262zM394 41q101 0 161 42q59 42 94 136l58 -12q-74 -223 -326 -223q-127 0 -195 70t-67 202q0 63 16 158l35 200q37 201 113 291q100 115 262 115q129 0 197 -69t69 -199
q0 -82 -31 -246h-567l-20 -113q-12 -78 -13 -125q0 -111 56 -169t158 -58z" />
    <glyph glyph-name="eacute" unicode="&#xe9;" horiz-adv-x="917" 
d="M530 1196l164 266h88l-202 -266h-50zM223 563h506q20 115 21 180q0 219 -205 220q-127 0 -204 -85t-110 -262zM394 41q101 0 161 42q59 42 94 136l58 -12q-74 -223 -326 -223q-127 0 -195 70t-67 202q0 63 16 158l35 200q37 201 113 291q100 115 262 115q129 0 197 -69
t69 -199q0 -82 -31 -246h-567l-20 -113q-12 -78 -13 -125q0 -111 56 -169t158 -58z" />
    <glyph glyph-name="ecircumflex" unicode="&#xea;" horiz-adv-x="917" 
d="M621 1382l-160 -172h-88l241 238h27l158 -238h-80zM223 563h506q20 115 21 180q0 219 -205 220q-127 0 -204 -85t-110 -262zM394 41q101 0 161 42q59 42 94 136l58 -12q-74 -223 -326 -223q-127 0 -195 70t-67 202q0 63 16 158l35 200q37 201 113 291q100 115 262 115
q129 0 197 -69t69 -199q0 -82 -31 -246h-567l-20 -113q-12 -78 -13 -125q0 -111 56 -169t158 -58z" />
    <glyph glyph-name="edieresis" unicode="&#xeb;" horiz-adv-x="917" 
d="M717 1219l28 167h60l-29 -167h-59zM399 1219l29 167h61l-30 -167h-60zM223 563h506q20 115 21 180q0 219 -205 220q-127 0 -204 -85t-110 -262zM394 41q101 0 161 42q59 42 94 136l58 -12q-74 -223 -326 -223q-127 0 -195 70t-67 202q0 63 16 158l35 200q37 201 113 291
q100 115 262 115q129 0 197 -69t69 -199q0 -82 -31 -246h-567l-20 -113q-12 -78 -13 -125q0 -111 56 -169t158 -58z" />
    <glyph glyph-name="igrave" unicode="&#xec;" horiz-adv-x="419" 
d="M393 1196h-47l-113 266h82zM92 0l176 1004h62l-176 -1004h-62z" />
    <glyph glyph-name="iacute" unicode="&#xed;" horiz-adv-x="419" 
d="M281 1196l163 266h88l-202 -266h-49zM92 0l176 1004h62l-176 -1004h-62z" />
    <glyph glyph-name="icircumflex" unicode="&#xee;" horiz-adv-x="419" 
d="M371 1382l-160 -172h-88l242 238h26l158 -238h-80zM92 0l176 1004h62l-176 -1004h-62z" />
    <glyph glyph-name="idieresis" unicode="&#xef;" horiz-adv-x="419" 
d="M465 1219l31 167h59l-29 -167h-61zM150 1219l28 167h60l-29 -167h-59zM92 0l176 1004h62l-176 -1004h-62z" />
    <glyph glyph-name="eth" unicode="&#xf0;" horiz-adv-x="948" 
d="M770 745q0 217 -219 218q-258 0 -318 -340l-40 -242q-12 -70 -13 -119q0 -221 219 -221q257 0 316 340l41 229q14 86 14 135zM542 1020q146 0 222 -78q-16 172 -68 283l-209 -82l-14 49l197 76q-82 119 -226 151l17 47q168 -23 270 -174l164 64l12 -47l-151 -62
q78 -172 78 -424q0 -125 -21 -237l-39 -213q-68 -389 -366 -389q-292 0 -289 268q0 51 14 145l41 234q69 389 368 389z" />
    <glyph glyph-name="ntilde" unicode="&#xf1;" horiz-adv-x="962" 
d="M529 1413q52 0 108 -67q51 -68 84 -68q49 0 98 119h47q-36 -92 -70 -130t-88 -38q-54 -1 -108 67t-84 68q-47 0 -96 -119h-47q37 92 70 130q34 38 86 38zM580 1020q118 0 184 -62t65 -170q0 -70 -20 -178l-107 -610h-61l109 614q16 98 16 150q0 199 -188 199
q-135 1 -212 -99t-118 -323l-94 -541h-62l176 1004h54l-19 -142q94 158 277 158z" />
    <glyph glyph-name="ograve" unicode="&#xf2;" horiz-adv-x="948" 
d="M655 1196h-47l-112 266h82zM768 745q0 217 -221 218q-131 0 -207 -83t-107 -257l-43 -242q-12 -70 -12 -121q0 -219 221 -219q131 0 207 83t107 257l43 242q12 68 12 122zM538 1020q294 0 291 -266q0 -51 -14 -148l-41 -233q-37 -203 -127 -296q-91 -93 -239 -93
q-294 0 -291 268q0 65 14 145l41 234q35 201 126 295q92 94 240 94z" />
    <glyph glyph-name="oacute" unicode="&#xf3;" horiz-adv-x="948" 
d="M543 1196l164 266h88l-203 -266h-49zM768 745q0 217 -221 218q-131 0 -207 -83t-107 -257l-43 -242q-12 -70 -12 -121q0 -219 221 -219q131 0 207 83t107 257l43 242q12 68 12 122zM538 1020q294 0 291 -266q0 -51 -14 -148l-41 -233q-37 -203 -127 -296
q-91 -93 -239 -93q-294 0 -291 268q0 65 14 145l41 234q35 201 126 295q92 94 240 94z" />
    <glyph glyph-name="ocircumflex" unicode="&#xf4;" horiz-adv-x="948" 
d="M633 1382l-160 -172h-88l242 238h26l158 -238h-80zM768 745q0 217 -221 218q-131 0 -207 -83t-107 -257l-43 -242q-12 -70 -12 -121q0 -219 221 -219q131 0 207 83t107 257l43 242q12 68 12 122zM538 1020q294 0 291 -266q0 -51 -14 -148l-41 -233q-37 -203 -127 -296
q-91 -93 -239 -93q-294 0 -291 268q0 65 14 145l41 234q35 201 126 295q92 94 240 94z" />
    <glyph glyph-name="otilde" unicode="&#xf5;" horiz-adv-x="948" 
d="M529 1413q52 0 108 -67q51 -68 84 -68q49 0 98 119h47q-36 -92 -70 -130t-88 -38q-54 -1 -108 67t-84 68q-47 0 -96 -119h-47q37 92 70 130q34 38 86 38zM768 745q0 217 -221 218q-131 0 -207 -83t-107 -257l-43 -242q-12 -70 -12 -121q0 -219 221 -219q131 0 207 83
t107 257l43 242q12 68 12 122zM538 1020q294 0 291 -266q0 -51 -14 -148l-41 -233q-37 -203 -127 -296q-91 -93 -239 -93q-294 0 -291 268q0 65 14 145l41 234q35 201 126 295q92 94 240 94z" />
    <glyph glyph-name="odieresis" unicode="&#xf6;" horiz-adv-x="948" 
d="M729 1219l29 167h59l-29 -167h-59zM412 1219l28 167h62l-31 -167h-59zM768 745q0 217 -221 218q-131 0 -207 -83t-107 -257l-43 -242q-12 -70 -12 -121q0 -219 221 -219q131 0 207 83t107 257l43 242q12 68 12 122zM538 1020q294 0 291 -266q0 -51 -14 -148l-41 -233
q-37 -203 -127 -296q-91 -93 -239 -93q-294 0 -291 268q0 65 14 145l41 234q35 201 126 295q92 94 240 94z" />
    <glyph glyph-name="divide" unicode="&#xf7;" horiz-adv-x="993" 
d="M551 979l24 141h62l-25 -141h-61zM449 399l24 142h62l-25 -142h-61zM133 731l10 57h809l-10 -57h-809z" />
    <glyph glyph-name="oslash" unicode="&#xf8;" horiz-adv-x="948" 
d="M544 963q-130 0 -206 -83t-107 -257l-43 -242q-12 -66 -12 -118t12 -89l541 711q-55 78 -185 78zM398 41q128 0 205 82t110 258l41 242q14 85 14 127t-12 79l-541 -710q55 -78 183 -78zM402 -16q-152 0 -228 82l-68 -91l-43 33l80 105q-47 103 -12 284l41 234
q35 201 126 295t246 94t224 -82l70 90l43 -33l-80 -104q29 -57 29 -125t-17 -160l-41 -233q-35 -201 -126 -295q-92 -94 -244 -94z" />
    <glyph glyph-name="ugrave" unicode="&#xf9;" horiz-adv-x="942" 
d="M653 1196h-47l-112 266h81zM195 238q0 -197 178 -197q129 0 205 100t114 322l96 541h62l-178 -1004h-51l18 141q-94 -158 -268 -157q-113 0 -175 61t-62 149t20 205l106 605h62l-109 -615q-18 -106 -18 -151z" />
    <glyph glyph-name="uacute" unicode="&#xfa;" horiz-adv-x="942" 
d="M539 1196l163 266h89l-203 -266h-49zM195 238q0 -197 178 -197q129 0 205 100t114 322l96 541h62l-178 -1004h-51l18 141q-94 -158 -268 -157q-113 0 -175 61t-62 149t20 205l106 605h62l-109 -615q-18 -106 -18 -151z" />
    <glyph glyph-name="ucircumflex" unicode="&#xfb;" horiz-adv-x="942" 
d="M623 1382l-160 -172h-88l241 238h27l158 -238h-80zM195 238q0 -197 178 -197q129 0 205 100t114 322l96 541h62l-178 -1004h-51l18 141q-94 -158 -268 -157q-113 0 -175 61t-62 149t20 205l106 605h62l-109 -615q-18 -106 -18 -151z" />
    <glyph glyph-name="udieresis" unicode="&#xfc;" horiz-adv-x="942" 
d="M725 1219l29 167h59l-29 -167h-59zM408 1219l28 167h62l-31 -167h-59zM195 238q0 -197 178 -197q129 0 205 100t114 322l96 541h62l-178 -1004h-51l18 141q-94 -158 -268 -157q-113 0 -175 61t-62 149t20 205l106 605h62l-109 -615q-18 -106 -18 -151z" />
    <glyph glyph-name="yacute" unicode="&#xfd;" horiz-adv-x="806" 
d="M477 1196l164 266h88l-203 -266h-49zM293 -18l-143 1022h57l131 -941l422 941h63l-571 -1254q-64 -131 -122 -175t-175 -46l10 57q90 2 134 36t96 140z" />
    <glyph glyph-name="thorn" unicode="&#xfe;" horiz-adv-x="962" 
d="M782 739q0 109 -52 166t-150 58q-258 0 -328 -400l-21 -123q-16 -88 -16 -155q0 -119 54 -181t157 -63q244 0 305 344l41 233q10 57 10 121zM582 1020q126 0 194 -70t68 -202q0 -76 -13 -144l-40 -229q-70 -391 -363 -391q-195 -1 -250 157l-106 -602h-62l340 1923h62
l-107 -604q94 162 277 162z" />
    <glyph glyph-name="ydieresis" unicode="&#xff;" horiz-adv-x="806" 
d="M645 1219l29 167h59l-28 -167h-60zM328 1219l28 167h62l-31 -167h-59zM293 -18l-143 1022h57l131 -941l422 941h63l-571 -1254q-64 -131 -122 -175t-175 -46l10 57q90 2 134 36t96 140z" />
    <glyph glyph-name="Amacron" unicode="&#x100;" horiz-adv-x="987" 
d="M532 1743l9 49h358l-8 -49h-359zM762 412l-113 944l-448 -944h561zM768 354h-590l-168 -354h-69l696 1462h53l182 -1462h-63z" />
    <glyph glyph-name="amacron" unicode="&#x101;" horiz-adv-x="890" 
d="M389 1300l8 50h359l-8 -50h-359zM424 500q-174 0 -245 -84t-70 -232q0 -84 55 -114t166 -29q166 0 229 84q37 45 55 158l39 217h-229zM698 795q0 168 -188 168q-88 0 -148 -42t-108 -137l-55 19q98 217 307 217q254 0 254 -217q0 -37 -17 -144l-116 -659h-54l7 74
q-44 -50 -102 -70t-180 -20q-254 0 -253 190q0 178 80 275q84 109 301 108h238l20 117q14 86 14 121z" />
    <glyph glyph-name="Abreve" unicode="&#x102;" horiz-adv-x="987" 
d="M518 1786q0 33 8 90h56q-6 -53 -7 -68q0 -111 113 -110q70 0 107 39t61 139h55q-27 -133 -75 -184t-150 -52q-168 0 -168 146zM762 412l-113 944l-448 -944h561zM768 354h-590l-168 -354h-69l696 1462h53l182 -1462h-63z" />
    <glyph glyph-name="abreve" unicode="&#x103;" horiz-adv-x="890" 
d="M455 1366q0 -111 112 -111q70 0 108 40t60 139h56q-25 -132 -74 -184t-152 -52q-168 0 -168 145q1 32 9 91h55q-6 -55 -6 -68zM424 500q-174 0 -245 -84t-70 -232q0 -84 55 -114t166 -29q166 0 229 84q37 45 55 158l39 217h-229zM698 795q0 168 -188 168q-88 0 -148 -42
t-108 -137l-55 19q98 217 307 217q254 0 254 -217q0 -37 -17 -144l-116 -659h-54l7 74q-44 -50 -102 -70t-180 -20q-254 0 -253 190q0 178 80 275q84 109 301 108h238l20 117q14 86 14 121z" />
    <glyph glyph-name="Aogonek" unicode="&#x104;" horiz-adv-x="987" 
d="M762 412l-113 944l-448 -944h561zM649 -240q0 -64 90 -63q41 0 99 14l-4 -55q-63 -16 -109 -16q-139 0 -139 108q0 78 60 148t163 108l-41 350h-590l-168 -354h-69l696 1462h53l182 -1462q-121 -66 -172 -121t-51 -119z" />
    <glyph glyph-name="aogonek" unicode="&#x105;" horiz-adv-x="890" 
d="M424 500q-174 0 -245 -84t-70 -232q0 -84 55 -114t166 -29q166 0 229 84q37 45 55 158l39 217h-229zM492 -303q43 0 98 14l-2 -55q-63 -16 -111 -16q-139 0 -139 108q0 82 62 151t175 111l5 64q-44 -50 -102 -70t-180 -20q-254 0 -253 190q0 178 80 275q84 109 301 108
h238l20 117q14 86 14 121q0 168 -188 168q-88 0 -148 -42t-108 -137l-55 19q98 217 307 217q254 0 254 -217q-1 -38 -17 -144l-116 -659q-86 -45 -127 -78q-98 -76 -99 -162q0 -63 91 -63z" />
    <glyph glyph-name="Cacute" unicode="&#x106;" horiz-adv-x="1089" 
d="M719 1638l164 267h88l-203 -267h-49zM476 -16q-158 0 -237 82t-79 237q0 78 22 205l82 471q45 258 146 367q119 133 311 133q145 0 226 -73t81 -202q0 -20 -6 -74l-61 -2q4 53 4 58q0 111 -66 173t-180 62q-162 -1 -257 -109t-136 -341l-86 -479q-18 -104 -19 -179
q0 -272 250 -272q137 0 234 82q95 82 126 225l64 -4q-33 -168 -147 -264t-272 -96z" />
    <glyph glyph-name="cacute" unicode="&#x107;" horiz-adv-x="833" 
d="M522 1196l164 266h88l-203 -266h-49zM383 -16q-264 0 -264 274q0 68 14 148l35 196q39 218 126 318t243 100t208 -92q23 -43 29 -125l-59 -12q-10 94 -49 133t-127 39q-127 1 -203 -89t-109 -282l-34 -205q-12 -63 -13 -123q0 -223 201 -223q94 0 153 42q58 42 93 136
l61 -12q-70 -223 -305 -223z" />
    <glyph glyph-name="Ccircumflex" unicode="&#x108;" horiz-adv-x="1089" 
d="M786 1825l-159 -172h-88l241 237h27l158 -237h-80zM476 -16q-158 0 -237 82t-79 237q0 78 22 205l82 471q45 258 146 367q119 133 311 133q145 0 226 -73t81 -202q0 -20 -6 -74l-61 -2q4 53 4 58q0 111 -66 173t-180 62q-162 -1 -257 -109t-136 -341l-86 -479
q-18 -104 -19 -179q0 -272 250 -272q137 0 234 82q95 82 126 225l64 -4q-33 -168 -147 -264t-272 -96z" />
    <glyph glyph-name="ccircumflex" unicode="&#x109;" horiz-adv-x="833" 
d="M608 1382l-159 -172h-89l242 238h27l157 -238h-79zM383 -16q-264 0 -264 274q0 68 14 148l35 196q39 218 126 318t243 100t208 -92q23 -43 29 -125l-59 -12q-10 94 -49 133t-127 39q-127 1 -203 -89t-109 -282l-34 -205q-12 -63 -13 -123q0 -223 201 -223q94 0 153 42
q58 42 93 136l61 -12q-70 -223 -305 -223z" />
    <glyph glyph-name="Cdotaccent" unicode="&#x10a;" horiz-adv-x="1089" 
d="M727 1661l29 168h61l-29 -168h-61zM476 -16q-158 0 -237 82t-79 237q0 78 22 205l82 471q45 258 146 367q119 133 311 133q145 0 226 -73t81 -202q0 -20 -6 -74l-61 -2q4 53 4 58q0 111 -66 173t-180 62q-162 -1 -257 -109t-136 -341l-86 -479q-18 -104 -19 -179
q0 -272 250 -272q137 0 234 82q95 82 126 225l64 -4q-33 -168 -147 -264t-272 -96z" />
    <glyph glyph-name="cdotaccent" unicode="&#x10b;" horiz-adv-x="833" 
d="M539 1219l28 167h62l-29 -167h-61zM383 -16q-264 0 -264 274q0 68 14 148l35 196q39 218 126 318t243 100t208 -92q23 -43 29 -125l-59 -12q-10 94 -49 133t-127 39q-127 1 -203 -89t-109 -282l-34 -205q-12 -63 -13 -123q0 -223 201 -223q94 0 153 42q58 42 93 136
l61 -12q-70 -223 -305 -223z" />
    <glyph glyph-name="Ccaron" unicode="&#x10c;" horiz-adv-x="1089" 
d="M764 1718l160 172h88l-242 -237h-27l-157 237h80zM476 -16q-158 0 -237 82t-79 237q0 78 22 205l82 471q45 258 146 367q119 133 311 133q145 0 226 -73t81 -202q0 -20 -6 -74l-61 -2q4 53 4 58q0 111 -66 173t-180 62q-162 -1 -257 -109t-136 -341l-86 -479
q-18 -104 -19 -179q0 -272 250 -272q137 0 234 82q95 82 126 225l64 -4q-33 -168 -147 -264t-272 -96z" />
    <glyph glyph-name="ccaron" unicode="&#x10d;" horiz-adv-x="833" 
d="M578 1276l159 172h88l-241 -238h-27l-158 238h80zM383 -16q-264 0 -264 274q0 68 14 148l35 196q39 218 126 318t243 100t208 -92q23 -43 29 -125l-59 -12q-10 94 -49 133t-127 39q-127 1 -203 -89t-109 -282l-34 -205q-12 -63 -13 -123q0 -223 201 -223q94 0 153 42
q58 42 93 136l61 -12q-70 -223 -305 -223z" />
    <glyph glyph-name="Dcaron" unicode="&#x10e;" horiz-adv-x="1161" 
d="M725 1718l160 172h88l-242 -237h-26l-158 237h80zM1020 1130q0 147 -96 222q-70 53 -205 53h-289l-237 -1348h288q178 -4 290 106t144 318l89 500q16 94 16 149zM723 1462q166 0 250 -71q109 -90 108 -250q0 -68 -16 -162l-92 -520q-33 -219 -160 -340t-324 -119h-368
l258 1462h344z" />
    <glyph glyph-name="dcaron" unicode="&#x10f;" horiz-adv-x="1028" 
d="M1059 1087l100 375h72l-129 -375h-43zM387 41q258 0 328 399l20 123q16 98 17 158q0 242 -213 242q-242 -1 -303 -345l-41 -233q-12 -72 -13 -121q0 -223 205 -223zM537 1020q201 0 249 -166l109 608h61l-258 -1462h-53l19 143q-94 -160 -279 -159q-129 0 -197 70
t-67 202q0 63 14 143l41 230q35 199 124 295t237 96z" />
    <glyph glyph-name="Dcroat" unicode="&#x110;" horiz-adv-x="1161" 
d="M1022 1130q0 145 -98 222q-66 53 -203 53h-289l-113 -635h349l-11 -57h-348l-114 -656h288q178 -4 290 106t145 318l88 500q16 90 16 149zM723 1462q168 0 252 -71q109 -90 108 -250q0 -59 -16 -162l-92 -520q-35 -221 -161 -341t-325 -118h-366l125 713h-154l10 57h154
l123 692h342z" />
    <glyph glyph-name="dcroat" unicode="&#x111;" horiz-adv-x="964" 
d="M387 41q258 0 328 399l20 123q16 98 17 158q0 242 -213 242q-242 -1 -303 -345l-41 -233q-12 -72 -13 -121q0 -223 205 -223zM539 1020q199 0 249 -162l58 328h-266l10 57h266l39 219h61l-38 -219h139l-10 -57h-140l-209 -1186h-53l19 147q-92 -164 -279 -163
q-129 0 -197 70t-67 202q0 63 14 143l41 230q35 201 124 296t239 95z" />
    <glyph glyph-name="Emacron" unicode="&#x112;" horiz-adv-x="980" 
d="M573 1743l9 49h358l-8 -49h-359zM123 0l258 1462h659l-10 -57h-598l-113 -635h512l-8 -57h-514l-114 -656h596l-11 -57h-657z" />
    <glyph glyph-name="emacron" unicode="&#x113;" horiz-adv-x="917" 
d="M410 1300l8 50h358l-8 -50h-358zM223 563h506q20 115 21 180q0 219 -205 220q-127 0 -204 -85t-110 -262zM394 41q101 0 161 42q59 42 94 136l58 -12q-74 -223 -326 -223q-127 0 -195 70t-67 202q0 63 16 158l35 200q37 201 113 291q100 115 262 115q129 0 197 -69
t69 -199q0 -82 -31 -246h-567l-20 -113q-12 -78 -13 -125q0 -111 56 -169t158 -58z" />
    <glyph glyph-name="Ebreve" unicode="&#x114;" horiz-adv-x="980" 
d="M627 1808q0 -111 112 -110q70 0 107 39t61 139h56q-27 -133 -75 -184t-151 -52q-168 0 -168 146q1 33 9 90h55q-6 -53 -6 -68zM123 0l258 1462h659l-10 -57h-598l-113 -635h512l-8 -57h-514l-114 -656h596l-11 -57h-657z" />
    <glyph glyph-name="ebreve" unicode="&#x115;" horiz-adv-x="917" 
d="M483 1366q0 -111 113 -111q70 0 108 40t60 139h55q-25 -132 -74 -184t-151 -52q-168 0 -168 145q0 32 8 91h55q-6 -55 -6 -68zM223 563h506q20 115 21 180q0 219 -205 220q-127 0 -204 -85t-110 -262zM394 41q101 0 161 42q59 42 94 136l58 -12q-74 -223 -326 -223
q-127 0 -195 70t-67 202q0 63 16 158l35 200q37 201 113 291q100 115 262 115q129 0 197 -69t69 -199q0 -82 -31 -246h-567l-20 -113q-12 -78 -13 -125q0 -111 56 -169t158 -58z" />
    <glyph glyph-name="Edotaccent" unicode="&#x116;" horiz-adv-x="980" 
d="M698 1661l29 168h61l-28 -168h-62zM123 0l258 1462h659l-10 -57h-598l-113 -635h512l-8 -57h-514l-114 -656h596l-11 -57h-657z" />
    <glyph glyph-name="edotaccent" unicode="&#x117;" horiz-adv-x="917" 
d="M555 1219l29 167h61l-29 -167h-61zM223 563h506q20 115 21 180q0 219 -205 220q-127 0 -204 -85t-110 -262zM394 41q101 0 161 42q59 42 94 136l58 -12q-74 -223 -326 -223q-127 0 -195 70t-67 202q0 63 16 158l35 200q37 201 113 291q100 115 262 115q129 0 197 -69
t69 -199q0 -82 -31 -246h-567l-20 -113q-12 -78 -13 -125q0 -111 56 -169t158 -58z" />
    <glyph glyph-name="Eogonek" unicode="&#x118;" horiz-adv-x="980" 
d="M555 -240q0 -63 90 -63q43 0 98 14l-2 -55q-63 -16 -110 -16q-139 0 -139 108q0 74 56 142t152 110h-577l258 1462h659l-10 -57h-598l-113 -635h512l-8 -57h-514l-114 -656h596l-11 -57q-86 -47 -127 -78q-98 -76 -98 -162z" />
    <glyph glyph-name="eogonek" unicode="&#x119;" horiz-adv-x="917" 
d="M223 563h506q20 115 21 180q0 219 -205 220q-127 0 -204 -85t-110 -262zM344 -242q0 -61 90 -61q41 0 98 14l-2 -55q-66 -16 -110 -16q-139 0 -139 106q0 133 135 240q-14 -2 -35 -2q-127 0 -195 70t-67 202q0 63 16 158l35 200q37 201 113 291q100 115 262 115
q129 0 197 -69t69 -199q0 -82 -31 -246h-567l-20 -113q-12 -78 -13 -125q0 -111 56 -169t158 -58q101 0 161 42q59 42 94 136l58 -12q-45 -143 -164 -193q-199 -125 -199 -256z" />
    <glyph glyph-name="Ecaron" unicode="&#x11a;" horiz-adv-x="980" 
d="M737 1718l160 172h88l-242 -237h-26l-158 237h80zM123 0l258 1462h659l-10 -57h-598l-113 -635h512l-8 -57h-514l-114 -656h596l-11 -57h-657z" />
    <glyph glyph-name="ecaron" unicode="&#x11b;" horiz-adv-x="917" 
d="M594 1276l160 172h88l-242 -238h-27l-157 238h80zM223 563h506q20 115 21 180q0 219 -205 220q-127 0 -204 -85t-110 -262zM394 41q101 0 161 42q59 42 94 136l58 -12q-74 -223 -326 -223q-127 0 -195 70t-67 202q0 63 16 158l35 200q37 201 113 291q100 115 262 115
q129 0 197 -69t69 -199q0 -82 -31 -246h-567l-20 -113q-12 -78 -13 -125q0 -111 56 -169t158 -58z" />
    <glyph glyph-name="Gcircumflex" unicode="&#x11c;" horiz-adv-x="1128" 
d="M795 1825l-160 -172h-88l241 237h27l158 -237h-80zM513 -16q-177 0 -264 85t-87 242q0 68 22 197l82 471q45 254 146 367q125 133 319 133q147 0 231 -74t85 -205q0 -25 -7 -70l-61 -2q4 25 4 52q0 115 -68 178t-188 63q-166 -1 -263 -109t-138 -341l-84 -479
q-18 -102 -19 -170q0 -281 277 -281q176 0 284 125q86 96 119 287l39 219h-293l10 57h355l-49 -280q-23 -125 -56 -201t-92 -137q-127 -127 -304 -127z" />
    <glyph glyph-name="gcircumflex" unicode="&#x11d;" horiz-adv-x="962" 
d="M643 1382l-160 -172h-88l242 238h27l157 -238h-80zM385 41q258 0 328 399l20 123q16 92 17 158q0 119 -56 180t-157 62q-243 -1 -304 -345l-40 -233q-12 -74 -13 -121q0 -223 205 -223zM535 1020q203 0 251 -170l35 154h51l-192 -1094q-66 -385 -385 -385q-119 0 -177 47
t-67 147l60 11q8 -147 184 -148q135 0 215 82t111 254l38 223q-94 -158 -276 -157q-129 0 -197 70t-67 206q0 53 14 139l41 230q35 199 124 295t237 96z" />
    <glyph glyph-name="Gbreve" unicode="&#x11e;" horiz-adv-x="1128" 
d="M643 1808q0 -111 113 -110q70 0 106 39t62 139h55q-27 -133 -75 -184t-150 -52q-168 0 -168 146q0 33 8 90h55q-6 -53 -6 -68zM513 -16q-177 0 -264 85t-87 242q0 68 22 197l82 471q45 254 146 367q125 133 319 133q147 0 231 -74t85 -205q0 -25 -7 -70l-61 -2q4 25 4 52
q0 115 -68 178t-188 63q-166 -1 -263 -109t-138 -341l-84 -479q-18 -102 -19 -170q0 -281 277 -281q176 0 284 125q86 96 119 287l39 219h-293l10 57h355l-49 -280q-23 -125 -56 -201t-92 -137q-127 -127 -304 -127z" />
    <glyph glyph-name="gbreve" unicode="&#x11f;" horiz-adv-x="962" 
d="M512 1366q0 -111 113 -111q69 0 107 40t61 139h55q-25 -132 -74 -184t-151 -52q-168 0 -168 145q0 32 8 91h55q-6 -55 -6 -68zM385 41q258 0 328 399l20 123q16 92 17 158q0 119 -56 180t-157 62q-243 -1 -304 -345l-40 -233q-12 -74 -13 -121q0 -223 205 -223zM535 1020
q203 0 251 -170l35 154h51l-192 -1094q-66 -385 -385 -385q-119 0 -177 47t-67 147l60 11q8 -147 184 -148q135 0 215 82t111 254l38 223q-94 -158 -276 -157q-129 0 -197 70t-67 206q0 53 14 139l41 230q35 199 124 295t237 96z" />
    <glyph glyph-name="Gdotaccent" unicode="&#x120;" horiz-adv-x="1128" 
d="M729 1661l29 168h61l-28 -168h-62zM513 -16q-177 0 -264 85t-87 242q0 68 22 197l82 471q45 254 146 367q125 133 319 133q147 0 231 -74t85 -205q0 -25 -7 -70l-61 -2q4 25 4 52q0 115 -68 178t-188 63q-166 -1 -263 -109t-138 -341l-84 -479q-18 -102 -19 -170
q0 -281 277 -281q176 0 284 125q86 96 119 287l39 219h-293l10 57h355l-49 -280q-23 -125 -56 -201t-92 -137q-127 -127 -304 -127z" />
    <glyph glyph-name="gdotaccent" unicode="&#x121;" horiz-adv-x="962" 
d="M586 1219l28 167h62l-29 -167h-61zM385 41q258 0 328 399l20 123q16 92 17 158q0 119 -56 180t-157 62q-243 -1 -304 -345l-40 -233q-12 -74 -13 -121q0 -223 205 -223zM535 1020q203 0 251 -170l35 154h51l-192 -1094q-66 -385 -385 -385q-119 0 -177 47t-67 147l60 11
q8 -147 184 -148q135 0 215 82t111 254l38 223q-94 -158 -276 -157q-129 0 -197 70t-67 206q0 53 14 139l41 230q35 199 124 295t237 96z" />
    <glyph glyph-name="Gcommaaccent" unicode="&#x122;" horiz-adv-x="1128" 
d="M289 -422l139 266h76l-168 -266h-47zM513 -16q-177 0 -264 85t-87 242q0 68 22 197l82 471q45 254 146 367q125 133 319 133q147 0 231 -74t85 -205q0 -25 -7 -70l-61 -2q4 25 4 52q0 115 -68 178t-188 63q-166 -1 -263 -109t-138 -341l-84 -479q-18 -102 -19 -170
q0 -281 277 -281q176 0 284 125q86 96 119 287l39 219h-293l10 57h355l-49 -280q-23 -125 -56 -201t-92 -137q-127 -127 -304 -127z" />
    <glyph glyph-name="gcommaaccent" unicode="&#x123;" horiz-adv-x="962" 
d="M567 1196l203 266h49l-164 -266h-88zM385 41q258 0 328 399l20 123q16 92 17 158q0 119 -56 180t-157 62q-243 -1 -304 -345l-40 -233q-12 -74 -13 -121q0 -223 205 -223zM535 1020q203 0 251 -170l35 154h51l-192 -1094q-66 -385 -385 -385q-119 0 -177 47t-67 147
l60 11q8 -147 184 -148q135 0 215 82t111 254l38 223q-94 -158 -276 -157q-129 0 -197 70t-67 206q0 53 14 139l41 230q35 199 124 295t237 96z" />
    <glyph glyph-name="Hcircumflex" unicode="&#x124;" horiz-adv-x="1159" 
d="M815 1825l-160 -172h-88l242 237h27l157 -237h-80zM123 0l258 1462h61l-123 -692h617l123 692h61l-258 -1462h-61l125 713h-617l-125 -713h-61z" />
    <glyph glyph-name="hcircumflex" unicode="&#x125;" horiz-adv-x="962" 
d="M465 1825l-160 -172h-88l242 237h26l158 -237h-80zM586 1020q116 0 180 -62t63 -170q0 -68 -20 -178l-107 -610h-61l109 614q16 104 16 148q0 201 -186 201q-135 1 -213 -99t-117 -323l-96 -541h-62l258 1462h62l-105 -594q102 152 279 152z" />
    <glyph glyph-name="Hbar" unicode="&#x126;" horiz-adv-x="1159" 
d="M319 770h617l43 246h-614zM123 0l180 1016h-96l8 57h96l70 389h61l-69 -389h616l70 389h61l-69 -389h96l-10 -57h-97l-178 -1016h-61l125 713h-617l-125 -713h-61z" />
    <glyph glyph-name="hbar" unicode="&#x127;" horiz-adv-x="962" 
d="M584 1020q114 0 180 -62t65 -170q0 -68 -20 -178l-107 -610h-61l109 614q16 96 16 148q0 201 -186 201q-137 1 -214 -99t-116 -323l-96 -541h-62l209 1186h-143l10 57h143l39 219h62l-39 -219h264l-10 -57h-265l-55 -318q102 152 277 152z" />
    <glyph glyph-name="Itilde" unicode="&#x128;" horiz-adv-x="481" 
d="M565 1720q49 0 99 119h47q-37 -92 -71 -130t-88 -38t-108 68q-54 67 -82 67q-29 0 -48 -24t-50 -94h-47q37 92 71 130t86 38t106 -68t85 -68zM123 0l258 1462h61l-258 -1462h-61z" />
    <glyph glyph-name="itilde" unicode="&#x129;" horiz-adv-x="419" 
d="M267 1413q52 0 108 -67q51 -68 84 -68q49 0 98 119h47q-36 -92 -70 -130t-88 -38q-54 -1 -108 67t-84 68q-47 0 -96 -119h-47q37 92 70 130q34 38 86 38zM92 0l176 1004h62l-176 -1004h-62z" />
    <glyph glyph-name="Imacron" unicode="&#x12a;" horiz-adv-x="481" 
d="M283 1743l8 49h358l-8 -49h-358zM123 0l258 1462h61l-258 -1462h-61z" />
    <glyph glyph-name="imacron" unicode="&#x12b;" horiz-adv-x="419" 
d="M174 1300l8 50h359l-9 -50h-358zM92 0l176 1004h62l-176 -1004h-62z" />
    <glyph glyph-name="Ibreve" unicode="&#x12c;" horiz-adv-x="481" 
d="M342 1808q0 -111 113 -110q71 0 107 39t61 139h55q-27 -133 -75 -184t-150 -52q-168 0 -168 146q0 33 8 90h55q-6 -53 -6 -68zM123 0l258 1462h61l-258 -1462h-61z" />
    <glyph glyph-name="ibreve" unicode="&#x12d;" horiz-adv-x="419" 
d="M346 1255q70 0 108 40t60 139h55q-25 -133 -73 -185q-49 -51 -152 -51q-168 0 -168 145q0 32 8 91h56q-6 -55 -7 -68q0 -111 113 -111zM92 0l176 1004h62l-176 -1004h-62z" />
    <glyph glyph-name="Iogonek" unicode="&#x12e;" horiz-adv-x="481" 
d="M-25 -233q0 -70 84 -70q37 0 88 14l-2 -55q-55 -16 -100 -16q-133 0 -133 112q0 78 57 147q58 68 156 109l256 1454h61l-258 -1462q-209 -109 -209 -233z" />
    <glyph glyph-name="iogonek" unicode="&#x12f;" horiz-adv-x="419" 
d="M322 1294l28 168h62l-29 -168h-61zM-55 -233q0 -70 84 -70q37 0 88 14l-2 -55q-55 -16 -101 -16q-133 0 -133 112q1 78 59 148t154 106l176 998h62l-178 -1004q-115 -66 -162 -118t-47 -115z" />
    <glyph glyph-name="Idotaccent" unicode="&#x130;" horiz-adv-x="481" 
d="M414 1661l28 168h62l-29 -168h-61zM123 0l258 1462h61l-258 -1462h-61z" />
    <glyph glyph-name="dotlessi" unicode="&#x131;" horiz-adv-x="419" 
d="M92 0l176 1004h62l-176 -1004h-62z" />
    <glyph glyph-name="IJ" unicode="&#x132;" horiz-adv-x="964" 
d="M274 -494q-63 0 -133 23l31 55q55 -20 104 -20q172 0 254 155q37 68 76 285l256 1458h62l-258 -1464q-43 -256 -101 -342q-102 -150 -291 -150zM123 0l258 1462h61l-258 -1462h-61z" />
    <glyph glyph-name="ij" unicode="&#x133;" horiz-adv-x="839" 
d="M686 1004h62l-193 -1084q-31 -213 -112 -304t-232 -87l10 59q115 -8 181 71t92 253zM737 1294l29 168h61l-28 -168h-62zM92 0l176 1004h62l-176 -1004h-62zM319 1294l31 168h62l-31 -168h-62z" />
    <glyph glyph-name="Jcircumflex" unicode="&#x134;" horiz-adv-x="747" 
d="M713 1825l-160 -172h-88l242 237h26l158 -237h-80zM164 43q166 0 248 156q35 68 73 284l172 979h62l-174 -985q-31 -176 -46 -232t-50 -110q-100 -150 -287 -149q-152 0 -244 104l47 43q76 -90 199 -90z" />
    <glyph glyph-name="jcircumflex" unicode="&#x135;" horiz-adv-x="430" 
d="M356 1382l-159 -172h-88l241 238h27l158 -238h-80zM276 1004h62l-193 -1084q-33 -213 -113 -304t-231 -87l11 59q114 -8 180 71t92 253z" />
    <glyph glyph-name="Kcommaaccent" unicode="&#x136;" horiz-adv-x="1052" 
d="M315 -422l140 266h75l-168 -266h-47zM123 0l258 1462h61l-161 -917l780 917h72l-500 -594l297 -868h-66l-278 811l-326 -377l-76 -434h-61z" />
    <glyph glyph-name="kcommaaccent" unicode="&#x137;" horiz-adv-x="866" 
d="M203 -422l139 266h76l-168 -266h-47zM92 0l258 1462h62l-199 -1126l551 668h76l-353 -426l218 -578h-66l-195 524l-251 -299l-39 -225h-62z" />
    <glyph glyph-name="kgreenlandic" unicode="&#x138;" horiz-adv-x="866" 
d="M92 0l176 1004h62l-117 -668l551 668h76l-353 -426l218 -578h-66l-195 524l-251 -299l-39 -225h-62z" />
    <glyph glyph-name="Lacute" unicode="&#x139;" horiz-adv-x="903" 
d="M436 1638l164 267h88l-203 -267h-49zM123 0l258 1462h61l-247 -1405h608l-10 -57h-670z" />
    <glyph glyph-name="lacute" unicode="&#x13a;" horiz-adv-x="481" 
d="M373 1638l164 267h88l-203 -267h-49zM293 0q-176 0 -176 114q0 52 12 126l215 1222h62l-216 -1224q-10 -57 -10 -98q0 -42 27 -62t98 -21h43l-10 -57h-45z" />
    <glyph glyph-name="Lcommaaccent" unicode="&#x13b;" horiz-adv-x="903" 
d="M279 -422l139 266h76l-168 -266h-47zM123 0l258 1462h61l-247 -1405h608l-10 -57h-670z" />
    <glyph glyph-name="lcommaaccent" unicode="&#x13c;" horiz-adv-x="481" 
d="M-4 -422l139 266h76l-168 -266h-47zM297 0q-176 0 -176 117q0 55 10 123l217 1222h62l-217 -1224q-9 -53 -9 -96q0 -44 27 -64t98 -21h43l-10 -57h-45z" />
    <glyph glyph-name="Lcaron" unicode="&#x13d;" horiz-adv-x="903" 
d="M600 1087l100 375h72l-129 -375h-43zM123 0l258 1462h61l-247 -1405h608l-10 -57h-670z" />
    <glyph glyph-name="lcaron" unicode="&#x13e;" horiz-adv-x="483" 
d="M514 1087l100 375h72l-129 -375h-43zM297 0q-176 0 -176 114q0 52 12 126l215 1222h62l-215 -1224q-11 -57 -11 -98q0 -42 27 -62t98 -21h43l-10 -57h-45z" />
    <glyph glyph-name="Ldot" unicode="&#x13f;" horiz-adv-x="903" 
d="M674 690l24 139h62l-25 -139h-61zM123 0l258 1462h61l-247 -1405h608l-10 -57h-670z" />
    <glyph glyph-name="ldot" unicode="&#x140;" horiz-adv-x="481" 
d="M446 690l25 139h61l-24 -139h-62zM297 0q-176 0 -176 114q0 52 12 126l215 1222h62l-215 -1224q-11 -57 -11 -98q0 -42 27 -62t98 -21h43l-10 -57h-45z" />
    <glyph glyph-name="Lslash" unicode="&#x141;" horiz-adv-x="903" 
d="M123 0l86 492l-158 -117l15 78l157 118l158 891h61l-147 -835l428 323l-14 -80l-428 -321l-86 -492h606l-8 -57h-670z" />
    <glyph glyph-name="lslash" unicode="&#x142;" horiz-adv-x="481" 
d="M297 0q-94 0 -135 31t-41 100q0 33 10 109l76 426l-191 -144l15 80l190 143l127 717h62l-117 -659l229 174l-12 -80l-231 -174l-86 -485q-9 -57 -9 -98q0 -42 27 -62t98 -21h43l-10 -57h-45z" />
    <glyph glyph-name="Nacute" unicode="&#x143;" horiz-adv-x="1236" 
d="M766 1638l164 267h88l-203 -267h-49zM123 0l258 1462h57l463 -1329l234 1329h61l-256 -1462h-59l-463 1329l-234 -1329h-61z" />
    <glyph glyph-name="nacute" unicode="&#x144;" horiz-adv-x="962" 
d="M549 1196l164 266h88l-203 -266h-49zM580 1020q118 0 184 -62t65 -170q0 -70 -20 -178l-107 -610h-61l109 614q16 98 16 150q0 199 -188 199q-135 1 -212 -99t-118 -323l-94 -541h-62l176 1004h54l-19 -142q94 158 277 158z" />
    <glyph glyph-name="Ncommaaccent" unicode="&#x145;" horiz-adv-x="1236" 
d="M358 -422l140 266h75l-167 -266h-48zM123 0l258 1462h57l463 -1329l234 1329h61l-256 -1462h-59l-463 1329l-234 -1329h-61z" />
    <glyph glyph-name="ncommaaccent" unicode="&#x146;" horiz-adv-x="962" 
d="M217 -422l139 266h76l-168 -266h-47zM580 1020q118 0 184 -62t65 -170q0 -70 -20 -178l-107 -610h-61l109 614q16 98 16 150q0 199 -188 199q-135 1 -212 -99t-118 -323l-94 -541h-62l176 1004h54l-19 -142q94 158 277 158z" />
    <glyph glyph-name="Ncaron" unicode="&#x147;" horiz-adv-x="1236" 
d="M825 1718l160 172h88l-242 -237h-26l-158 237h80zM123 0l258 1462h57l463 -1329l234 1329h61l-256 -1462h-59l-463 1329l-234 -1329h-61z" />
    <glyph glyph-name="ncaron" unicode="&#x148;" horiz-adv-x="962" 
d="M612 1276l160 172h88l-242 -238h-26l-158 238h80zM580 1020q118 0 184 -62t65 -170q0 -70 -20 -178l-107 -610h-61l109 614q16 98 16 150q0 199 -188 199q-135 1 -212 -99t-118 -323l-94 -541h-62l176 1004h54l-19 -142q94 158 277 158z" />
    <glyph glyph-name="napostrophe" unicode="&#x149;" horiz-adv-x="970" 
d="M145 1018l144 444h63l-162 -444h-45zM588 1020q118 0 184 -62t66 -170q0 -68 -21 -178l-106 -610h-62l109 614q16 98 16 150q0 199 -188 199q-135 1 -212 -99t-118 -323l-94 -541h-62l176 1004h54l-19 -142q94 158 277 158z" />
    <glyph glyph-name="Eng" unicode="&#x14a;" horiz-adv-x="1236" 
d="M123 0l258 1462h57l463 -1329l234 1329h61l-272 -1548q-33 -207 -113 -297t-231 -88l10 59q114 -8 180 70t92 254l17 92l-461 1325l-234 -1329h-61z" />
    <glyph glyph-name="eng" unicode="&#x14b;" horiz-adv-x="962" 
d="M580 1020q118 0 184 -62t65 -170q0 -70 -20 -178l-123 -696q-33 -207 -114 -297t-230 -88l10 59q114 -8 180 70t93 254l125 702q16 98 16 150q0 199 -188 199q-135 1 -212 -99t-118 -323l-94 -541h-62l176 1004h54l-19 -142q94 158 277 158z" />
    <glyph glyph-name="Omacron" unicode="&#x14c;" horiz-adv-x="1157" 
d="M606 1743l8 49h359l-8 -49h-359zM508 41q178 0 287 133q79 98 116 305l88 504q16 82 17 156q0 131 -77 207t-210 75q-174 0 -287 -133q-80 -98 -114 -305l-90 -504q-16 -102 -17 -153q0 -133 77 -209t210 -76zM715 1479q176 0 269 -89t93 -245q0 -78 -16 -164l-92 -524
q-23 -131 -55 -206t-91 -138q-127 -129 -302 -129t-268 88t-93 243q0 68 16 166l94 525q23 132 55 206t91 138q123 129 299 129z" />
    <glyph glyph-name="omacron" unicode="&#x14d;" horiz-adv-x="948" 
d="M430 1300l8 50h359l-9 -50h-358zM768 745q0 217 -221 218q-131 0 -207 -83t-107 -257l-43 -242q-12 -70 -12 -121q0 -219 221 -219q131 0 207 83t107 257l43 242q12 68 12 122zM538 1020q294 0 291 -266q0 -51 -14 -148l-41 -233q-37 -203 -127 -296q-91 -93 -239 -93
q-294 0 -291 268q0 65 14 145l41 234q35 201 126 295q92 94 240 94z" />
    <glyph glyph-name="Obreve" unicode="&#x14e;" horiz-adv-x="1157" 
d="M678 1808q0 -111 113 -110q71 0 107 39t60 139h56q-27 -133 -75 -184t-151 -52q-168 0 -167 146q0 33 8 90h55q-6 -53 -6 -68zM508 41q178 0 287 133q79 98 116 305l88 504q16 82 17 156q0 131 -77 207t-210 75q-174 0 -287 -133q-80 -98 -114 -305l-90 -504
q-16 -102 -17 -153q0 -133 77 -209t210 -76zM715 1479q176 0 269 -89t93 -245q0 -78 -16 -164l-92 -524q-23 -131 -55 -206t-91 -138q-127 -129 -302 -129t-268 88t-93 243q0 68 16 166l94 525q23 132 55 206t91 138q123 129 299 129z" />
    <glyph glyph-name="obreve" unicode="&#x14f;" horiz-adv-x="948" 
d="M496 1366q0 -111 112 -111q70 0 108 40t60 139h55q-25 -133 -73 -185q-49 -51 -152 -51q-168 0 -168 145q0 32 8 91h56q-6 -55 -6 -68zM768 745q0 217 -221 218q-131 0 -207 -83t-107 -257l-43 -242q-12 -70 -12 -121q0 -219 221 -219q131 0 207 83t107 257l43 242
q12 68 12 122zM538 1020q294 0 291 -266q0 -51 -14 -148l-41 -233q-37 -203 -127 -296q-91 -93 -239 -93q-294 0 -291 268q0 65 14 145l41 234q35 201 126 295q92 94 240 94z" />
    <glyph glyph-name="Ohungarumlaut" unicode="&#x150;" horiz-adv-x="1157" 
d="M838 1638l141 267h76l-170 -267h-47zM659 1638l142 267h76l-170 -267h-48zM508 41q178 0 287 133q79 98 116 305l88 504q16 82 17 156q0 131 -77 207t-210 75q-174 0 -287 -133q-80 -98 -114 -305l-90 -504q-16 -102 -17 -153q0 -133 77 -209t210 -76zM715 1479
q176 0 269 -89t93 -245q0 -78 -16 -164l-92 -524q-23 -131 -55 -206t-91 -138q-127 -129 -302 -129t-268 88t-93 243q0 68 16 166l94 525q23 132 55 206t91 138q123 129 299 129z" />
    <glyph glyph-name="ohungarumlaut" unicode="&#x151;" horiz-adv-x="948" 
d="M655 1196l142 266h75l-170 -266h-47zM477 1196l141 266h76l-170 -266h-47zM768 745q0 217 -221 218q-131 0 -207 -83t-107 -257l-43 -242q-12 -70 -12 -121q0 -219 221 -219q131 0 207 83t107 257l43 242q12 68 12 122zM538 1020q294 0 291 -266q0 -51 -14 -148l-41 -233
q-37 -203 -127 -296q-91 -93 -239 -93q-294 0 -291 268q0 65 14 145l41 234q35 201 126 295q92 94 240 94z" />
    <glyph glyph-name="OE" unicode="&#x152;" horiz-adv-x="1685" 
d="M504 41q332 0 409 438l86 486q18 109 19 161q0 144 -73 220t-210 75q-174 0 -286 -133q-84 -98 -119 -305l-90 -504q-16 -104 -17 -157q0 -131 75 -206t206 -75zM492 -16q-146 0 -238 88t-92 239q0 72 16 170l94 525q23 128 56 204t92 140q127 129 311 129t275 -109
q16 -20 49 -94l32 186h660l-10 -57h-598l-113 -635h512l-10 -57h-512l-115 -656h596l-10 -57h-658l31 170q-58 -72 -72 -86t-51 -37q-99 -63 -245 -63z" />
    <glyph glyph-name="oe" unicode="&#x153;" horiz-adv-x="1505" 
d="M811 563h506q23 121 22 180q0 219 -204 220q-252 0 -314 -347zM768 745q0 217 -221 218q-131 0 -207 -83t-107 -257l-43 -242q-10 -57 -10 -121q0 -219 221 -219q129 0 205 83t107 257l43 242q12 61 12 122zM551 1020q231 0 270 -195q104 195 307 195q133 0 203 -69
t70 -199q0 -82 -33 -246h-569l-21 -115q-12 -68 -12 -121q0 -111 58 -170t160 -59t160 42t93 136l57 -12q-72 -223 -313 -223q-106 0 -175 52t-89 148q-96 -201 -320 -200q-137 0 -209 68t-71 198q0 63 14 141l41 234q37 205 128 300t251 95z" />
    <glyph glyph-name="Racute" unicode="&#x154;" horiz-adv-x="1103" 
d="M662 1638l163 267h88l-202 -267h-49zM610 733q104 0 170 28t117 95q96 127 96 311q0 113 -63 175t-215 63h-281l-119 -672h295zM717 1462q186 0 266 -80q74 -80 74 -211q-1 -199 -101 -337t-251 -150l151 -684h-65l-148 676h-338l-119 -676h-61l258 1462h334z" />
    <glyph glyph-name="racute" unicode="&#x155;" horiz-adv-x="622" 
d="M442 1196l164 266h88l-202 -266h-50zM543 1020q84 0 143 -43l-37 -53q-49 39 -110 39q-113 0 -184 -111t-113 -356l-88 -496h-62l176 1004h54l-23 -148q88 164 244 164z" />
    <glyph glyph-name="Rcommaaccent" unicode="&#x156;" horiz-adv-x="1103" 
d="M287 -422l139 266h76l-168 -266h-47zM610 733q104 0 170 28t117 95q96 127 96 311q0 113 -63 175t-215 63h-281l-119 -672h295zM717 1462q186 0 266 -80q74 -80 74 -211q-1 -199 -101 -337t-251 -150l151 -684h-65l-148 676h-338l-119 -676h-61l258 1462h334z" />
    <glyph glyph-name="rcommaaccent" unicode="&#x157;" horiz-adv-x="622" 
d="M-63 -422l139 266h76l-168 -266h-47zM543 1020q80 0 143 -43l-37 -53q-49 39 -110 39q-113 0 -184 -111t-113 -356l-88 -496h-62l176 1004h54l-23 -148q86 164 244 164z" />
    <glyph glyph-name="Rcaron" unicode="&#x158;" horiz-adv-x="1103" 
d="M705 1718l159 172h88l-241 -237h-27l-158 237h80zM610 733q104 0 170 28t117 95q96 127 96 311q0 113 -63 175t-215 63h-281l-119 -672h295zM717 1462q186 0 266 -80q74 -80 74 -211q-1 -199 -101 -337t-251 -150l151 -684h-65l-148 676h-338l-119 -676h-61l258 1462h334
z" />
    <glyph glyph-name="rcaron" unicode="&#x159;" horiz-adv-x="622" 
d="M477 1276l160 172h88l-242 -238h-26l-158 238h80zM543 1020q84 0 143 -43l-37 -53q-49 39 -110 39q-113 0 -184 -111t-113 -356l-88 -496h-62l176 1004h54l-23 -148q88 164 244 164z" />
    <glyph glyph-name="Sacute" unicode="&#x15a;" horiz-adv-x="995" 
d="M645 1638l164 267h88l-203 -267h-49zM420 41q219 0 317 162q70 117 70 237q0 170 -123 226q-31 14 -165 59t-202 122t-67 197q0 162 96 298t301 137q289 0 301 -252l-61 -10q-13 106 -69 155t-169 49q-182 0 -270 -141q-66 -102 -66 -216q-1 -114 59 -176t182 -104
t166 -62q151 -75 151 -251q-1 -176 -91 -315q-115 -172 -362 -172q-168 0 -249 70t-87 216l61 13q12 -125 79 -183t198 -59z" />
    <glyph glyph-name="sacute" unicode="&#x15b;" horiz-adv-x="802" 
d="M471 1196l164 266h88l-203 -266h-49zM322 41q120 0 201 75t81 199q0 100 -98 141q-24 8 -136 34t-161 74t-49 160t76 204q80 92 236 92t216 -94q25 -39 27 -121l-60 -10q-8 168 -190 168q-109 0 -175 -71t-67 -183q0 -70 41 -105q41 -36 160 -62t170 -59q74 -49 74 -159
q0 -160 -96 -250t-248 -90t-220 54q-67 54 -81 171l61 14q10 -94 64 -138t174 -44z" />
    <glyph glyph-name="Scircumflex" unicode="&#x15c;" horiz-adv-x="995" 
d="M727 1825l-160 -172h-88l242 237h27l157 -237h-80zM420 41q219 0 317 162q70 117 70 237q0 170 -123 226q-31 14 -165 59t-202 122t-67 197q0 162 96 298t301 137q289 0 301 -252l-61 -10q-13 106 -69 155t-169 49q-182 0 -270 -141q-66 -102 -66 -216q-1 -114 59 -176
t182 -104t166 -62q151 -75 151 -251q-1 -176 -91 -315q-115 -172 -362 -172q-168 0 -249 70t-87 216l61 13q12 -125 79 -183t198 -59z" />
    <glyph glyph-name="scircumflex" unicode="&#x15d;" horiz-adv-x="802" 
d="M555 1382l-160 -172h-88l242 238h26l158 -238h-80zM322 41q120 0 201 75t81 199q0 100 -98 141q-24 8 -136 34t-161 74t-49 160t76 204q80 92 236 92t216 -94q25 -39 27 -121l-60 -10q-8 168 -190 168q-109 0 -175 -71t-67 -183q0 -70 41 -105q41 -36 160 -62t170 -59
q74 -49 74 -159q0 -160 -96 -250t-248 -90t-220 54q-67 54 -81 171l61 14q10 -94 64 -138t174 -44z" />
    <glyph glyph-name="Scedilla" unicode="&#x15e;" horiz-adv-x="995" 
d="M223 -422l139 266h76l-168 -266h-47zM420 41q219 0 317 162q70 117 70 237q0 170 -123 226q-31 14 -165 59t-202 122t-67 197q0 162 96 298t301 137q289 0 301 -252l-61 -10q-13 106 -69 155t-169 49q-182 0 -270 -141q-66 -102 -66 -216q-1 -114 59 -176t182 -104
t166 -62q151 -75 151 -251q-1 -176 -91 -315q-115 -172 -362 -172q-168 0 -249 70t-87 216l61 13q12 -125 79 -183t198 -59z" />
    <glyph glyph-name="scedilla" unicode="&#x15f;" horiz-adv-x="802" 
d="M147 -422l140 266h75l-167 -266h-48zM322 41q120 0 201 75t81 199q0 100 -98 141q-24 8 -136 34t-161 74t-49 160t76 204q80 92 236 92t216 -94q25 -39 27 -121l-60 -10q-8 168 -190 168q-109 0 -175 -71t-67 -183q0 -70 41 -105q41 -36 160 -62t170 -59q74 -49 74 -159
q0 -160 -96 -250t-248 -90t-220 54q-67 54 -81 171l61 14q10 -94 64 -138t174 -44z" />
    <glyph glyph-name="Scaron" unicode="&#x160;" horiz-adv-x="995" 
d="M690 1718l160 172h88l-242 -237h-26l-158 237h80zM420 41q219 0 317 162q70 117 70 237q0 170 -123 226q-31 14 -165 59t-202 122t-67 197q0 162 96 298t301 137q289 0 301 -252l-61 -10q-13 106 -69 155t-169 49q-182 0 -270 -141q-66 -102 -66 -216q-1 -114 59 -176
t182 -104t166 -62q151 -75 151 -251q-1 -176 -91 -315q-115 -172 -362 -172q-168 0 -249 70t-87 216l61 13q12 -125 79 -183t198 -59z" />
    <glyph glyph-name="scaron" unicode="&#x161;" horiz-adv-x="802" 
d="M522 1276l160 172h88l-242 -238h-26l-158 238h80zM322 41q120 0 201 75t81 199q0 100 -98 141q-24 8 -136 34t-161 74t-49 160t76 204q80 92 236 92t216 -94q25 -39 27 -121l-60 -10q-8 168 -190 168q-109 0 -175 -71t-67 -183q0 -70 41 -105q41 -36 160 -62t170 -59
q74 -49 74 -159q0 -160 -96 -250t-248 -90t-220 54q-67 54 -81 171l61 14q10 -94 64 -138t174 -44z" />
    <glyph glyph-name="Tcommaaccent" unicode="&#x162;" horiz-adv-x="903" 
d="M166 -422l139 266h76l-168 -266h-47zM336 0l246 1405h-355l11 57h770l-11 -57h-354l-246 -1405h-61z" />
    <glyph glyph-name="tcommaaccent" unicode="&#x163;" horiz-adv-x="540" 
d="M27 -422l139 266h76l-168 -266h-47zM211 140q0 -82 115 -83h34l-10 -57h-20q-96 0 -139 32q-42 32 -41 103q0 37 16 131l121 680h-109l10 58h109l61 352h62l-64 -352h160l-10 -58h-158l-125 -700q-12 -68 -12 -106z" />
    <glyph glyph-name="Tcaron" unicode="&#x164;" horiz-adv-x="903" 
d="M662 1718l159 172h88l-241 -237h-27l-158 237h80zM334 0l248 1405h-355l11 57h770l-11 -57h-354l-248 -1405h-61z" />
    <glyph glyph-name="tcaron" unicode="&#x165;" horiz-adv-x="536" 
d="M565 1167l101 375h71l-129 -375h-43zM330 0q-182 0 -180 121q0 57 16 145l119 680h-107l10 58h107l63 352h60l-62 -352h158l-10 -58h-158l-123 -700q-12 -63 -12 -104q0 -85 113 -85h34l-10 -57h-18z" />
    <glyph glyph-name="Tbar" unicode="&#x166;" horiz-adv-x="903" 
d="M336 0l125 713h-254l10 57h254l113 635h-357l11 57h770l-11 -57h-352l-113 -635h252l-10 -57h-252l-125 -713h-61z" />
    <glyph glyph-name="tbar" unicode="&#x167;" horiz-adv-x="540" 
d="M211 140q0 -84 113 -83h34l-10 -57h-18q-98 0 -140 31q-41 31 -40 104q0 39 16 131l67 391h-106l10 58h107l41 231h-107l10 58h107l63 352h60l-62 -352h158l-10 -58h-158l-41 -231h160l-10 -58h-160l-72 -411q-12 -66 -12 -106z" />
    <glyph glyph-name="Utilde" unicode="&#x168;" horiz-adv-x="1181" 
d="M915 1720q49 0 99 119h47q-37 -92 -71 -130t-88 -38t-105 68q-55 67 -84 67t-49 -24t-50 -94h-47q37 92 71 130t85 38t108 -68q53 -68 84 -68zM242 291q0 -121 71 -185q72 -63 205 -63q193 0 303 150q55 80 88 256l178 1013h62l-180 -1026q-23 -126 -49 -190t-72 -119
q-127 -141 -328 -141q-162 0 -251 76t-89 217q0 72 21 182l176 1001h61l-178 -1013q-18 -111 -18 -158z" />
    <glyph glyph-name="utilde" unicode="&#x169;" horiz-adv-x="942" 
d="M525 1413q52 0 108 -67q51 -68 84 -68q49 0 98 119h47q-36 -92 -70 -130t-88 -38q-54 -1 -108 67t-84 68q-47 0 -96 -119h-47q37 92 70 130q34 38 86 38zM195 238q0 -197 178 -197q129 0 205 100t114 322l96 541h62l-178 -1004h-51l18 141q-94 -158 -268 -157
q-113 0 -175 61t-62 149t20 205l106 605h62l-109 -615q-18 -106 -18 -151z" />
    <glyph glyph-name="Umacron" unicode="&#x16a;" horiz-adv-x="1181" 
d="M625 1743l8 49h358l-8 -49h-358zM242 291q0 -121 71 -185q72 -63 205 -63q193 0 303 150q55 80 88 256l178 1013h62l-180 -1026q-23 -126 -49 -190t-72 -119q-127 -141 -328 -141q-162 0 -251 76t-89 217q0 72 21 182l176 1001h61l-178 -1013q-18 -111 -18 -158z" />
    <glyph glyph-name="umacron" unicode="&#x16b;" horiz-adv-x="942" 
d="M426 1300l8 50h359l-9 -50h-358zM195 238q0 -197 178 -197q129 0 205 100t114 322l96 541h62l-178 -1004h-51l18 141q-94 -158 -268 -157q-113 0 -175 61t-62 149t20 205l106 605h62l-109 -615q-18 -106 -18 -151z" />
    <glyph glyph-name="Ubreve" unicode="&#x16c;" horiz-adv-x="1181" 
d="M692 1808q0 -111 113 -110q71 0 107 39t61 139h55q-27 -133 -75 -184t-150 -52q-168 0 -168 146q0 33 8 90h55q-6 -53 -6 -68zM242 291q0 -121 71 -185q72 -63 205 -63q193 0 303 150q55 80 88 256l178 1013h62l-180 -1026q-23 -126 -49 -190t-72 -119
q-127 -141 -328 -141q-162 0 -251 76t-89 217q0 72 21 182l176 1001h61l-178 -1013q-18 -111 -18 -158z" />
    <glyph glyph-name="ubreve" unicode="&#x16d;" horiz-adv-x="942" 
d="M473 1366q0 -111 113 -111q70 0 108 40t60 139h55q-25 -132 -74 -184t-151 -52q-168 0 -168 145q0 32 8 91h55q-6 -55 -6 -68zM195 238q0 -197 178 -197q129 0 205 100t114 322l96 541h62l-178 -1004h-51l18 141q-94 -158 -268 -157q-113 0 -175 61t-62 149t20 205
l106 605h62l-109 -615q-18 -106 -18 -151z" />
    <glyph glyph-name="Uring" unicode="&#x16e;" horiz-adv-x="1181" 
d="M846 1942q-59 0 -97 -48t-38 -125q0 -96 92 -96q57 0 95 49t38 121q0 99 -90 99zM840 1991q157 0 157 -163q0 -81 -56 -142q-56 -62 -134 -62t-118 40t-40 122q1 82 57 144t134 61zM242 291q0 -121 71 -185q72 -63 205 -63q193 0 303 150q55 80 88 256l178 1013h62
l-180 -1026q-23 -126 -49 -190t-72 -119q-127 -141 -328 -141q-162 0 -251 76t-89 217q0 72 21 182l176 1001h61l-178 -1013q-18 -111 -18 -158z" />
    <glyph glyph-name="uring" unicode="&#x16f;" horiz-adv-x="942" 
d="M735 1403q0 96 -90 96q-59 0 -97 -48t-38 -124q0 -96 92 -96q57 0 95 49t38 123zM606 1182q-158 0 -158 162q0 82 57 142q56 62 134 62q158 0 158 -162q-1 -80 -57 -142t-134 -62zM195 238q0 -197 178 -197q129 0 205 100t114 322l96 541h62l-178 -1004h-51l18 141
q-94 -158 -268 -157q-113 0 -175 61t-62 149t20 205l106 605h62l-109 -615q-18 -106 -18 -151z" />
    <glyph glyph-name="Uhungarumlaut" unicode="&#x170;" horiz-adv-x="1181" 
d="M852 1638l141 267h76l-170 -267h-47zM674 1638l141 267h76l-170 -267h-47zM242 291q0 -121 71 -185q72 -63 205 -63q193 0 303 150q55 80 88 256l178 1013h62l-180 -1026q-23 -126 -49 -190t-72 -119q-127 -141 -328 -141q-162 0 -251 76t-89 217q0 72 21 182l176 1001
h61l-178 -1013q-18 -111 -18 -158z" />
    <glyph glyph-name="uhungarumlaut" unicode="&#x171;" horiz-adv-x="942" 
d="M653 1196l142 266h75l-170 -266h-47zM475 1196l141 266h76l-170 -266h-47zM195 238q0 -197 178 -197q129 0 205 100t114 322l96 541h62l-178 -1004h-51l18 141q-94 -158 -268 -157q-113 0 -175 61t-62 149t20 205l106 605h62l-109 -615q-18 -106 -18 -151z" />
    <glyph glyph-name="Uogonek" unicode="&#x172;" horiz-adv-x="1181" 
d="M436 -240q0 -63 90 -63q43 0 99 14l-2 -55q-63 -16 -111 -16q-139 0 -139 108q0 133 166 238h-27q-156 0 -244 78t-88 215q0 72 21 182l176 1001h61l-178 -1013q-18 -111 -18 -158q0 -121 71 -185q72 -63 205 -63q193 0 303 150q55 80 88 256l178 1013h62l-180 -1026
q-27 -182 -103 -288t-213 -146q-6 -4 -16 -8q-201 -109 -201 -234z" />
    <glyph glyph-name="uogonek" unicode="&#x173;" horiz-adv-x="942" 
d="M449 -240q0 -63 90 -63q43 0 98 14l-4 -55q-63 -16 -109 -16q-139 0 -139 108q0 164 238 268l16 125q-94 -158 -268 -157q-113 0 -175 61t-62 149t20 205l106 605h62l-109 -615q-18 -106 -18 -151q0 -197 178 -197q129 0 205 100t114 322l96 541h62l-178 -1004
q-223 -113 -223 -240z" />
    <glyph glyph-name="Wcircumflex" unicode="&#x174;" horiz-adv-x="1437" 
d="M934 1825l-160 -172h-88l242 237h26l158 -237h-80zM272 0l-26 1462h59l21 -1298l544 1298h33l86 -1298l479 1298h64l-541 -1462h-45l-86 1298l-543 -1298h-45z" />
    <glyph glyph-name="wcircumflex" unicode="&#x175;" horiz-adv-x="1298" 
d="M797 1382l-160 -172h-88l242 238h26l158 -238h-80zM264 0l-86 1004h62l65 -887l410 887h39l96 -887l381 887h63l-438 -1004h-41l-100 881l-410 -881h-41z" />
    <glyph glyph-name="Ycircumflex" unicode="&#x176;" horiz-adv-x="901" 
d="M680 1825l-160 -172h-88l242 237h26l158 -237h-80zM332 0l96 545l-223 917h61l203 -835l498 835h67l-545 -917l-96 -545h-61z" />
    <glyph glyph-name="ycircumflex" unicode="&#x177;" horiz-adv-x="806" 
d="M549 1382l-160 -172h-88l242 238h26l158 -238h-80zM293 -18l-143 1022h57l131 -941l422 941h63l-571 -1254q-64 -131 -122 -175t-175 -46l10 57q90 2 134 36t96 140z" />
    <glyph glyph-name="Ydieresis" unicode="&#x178;" horiz-adv-x="901" 
d="M784 1661l29 168h59l-28 -168h-60zM467 1661l29 168h61l-31 -168h-59zM332 0l96 545l-223 917h61l203 -835l498 835h67l-545 -917l-96 -545h-61z" />
    <glyph glyph-name="Zacute" unicode="&#x179;" horiz-adv-x="897" 
d="M594 1638l164 267h88l-203 -267h-49zM4 0l8 47l842 1358h-567l10 57h633l-8 -47l-840 -1358h627l-11 -57h-694z" />
    <glyph glyph-name="zacute" unicode="&#x17a;" horiz-adv-x="800" 
d="M473 1196l164 266h88l-203 -266h-49zM10 0l6 39l637 907h-442l10 58h516l-6 -39l-637 -908h504l-10 -57h-578z" />
    <glyph glyph-name="Zdotaccent" unicode="&#x17b;" horiz-adv-x="897" 
d="M608 1661l29 168h61l-28 -168h-62zM4 0l8 47l842 1358h-567l10 57h633l-8 -47l-840 -1358h627l-11 -57h-694z" />
    <glyph glyph-name="zdotaccent" unicode="&#x17c;" horiz-adv-x="800" 
d="M483 1219l29 167h61l-28 -167h-62zM10 0l6 39l637 907h-442l10 58h516l-6 -39l-637 -908h504l-10 -57h-578z" />
    <glyph glyph-name="Zcaron" unicode="&#x17d;" horiz-adv-x="897" 
d="M655 1718l160 172h88l-241 -237h-27l-158 237h80zM4 0l8 47l842 1358h-567l10 57h633l-8 -47l-840 -1358h627l-11 -57h-694z" />
    <glyph glyph-name="zcaron" unicode="&#x17e;" horiz-adv-x="800" 
d="M514 1276l160 172h88l-242 -238h-26l-158 238h80zM10 0l6 39l637 907h-442l10 58h516l-6 -39l-637 -908h504l-10 -57h-578z" />
    <glyph glyph-name="Ohorn" unicode="&#x1a0;" horiz-adv-x="1187" 
d="M508 41q178 0 287 133q79 98 116 305l88 504q16 82 17 156q0 131 -77 207t-210 75q-174 0 -287 -133q-80 -98 -114 -305l-90 -504q-16 -102 -17 -153q0 -133 77 -209t210 -76zM1264 1479h61q4 -111 -49 -182t-199 -152q0 -70 -16 -164l-92 -524q-23 -131 -55 -206
t-91 -138q-127 -129 -302 -129t-268 88t-93 243q0 68 16 166l94 525q23 132 55 206t91 138q123 129 315 129q145 0 235 -72t109 -203q186 93 189 246v29z" />
    <glyph glyph-name="ohorn" unicode="&#x1a1;" horiz-adv-x="960" 
d="M768 745q0 217 -221 218q-131 0 -207 -83t-107 -257l-43 -242q-12 -70 -12 -121q0 -219 221 -219q131 0 207 83t107 257l43 242q12 68 12 122zM1057 1020v-29q0 -178 -230 -301q-2 -10 -5 -38t-7 -46l-41 -233q-37 -203 -127 -296q-91 -93 -239 -93q-294 0 -291 268
q0 66 14 145l41 234q35 199 126 294t249 95q279 0 282 -268q168 100 168 237q0 17 -4 31h64z" />
    <glyph glyph-name="Uhorn" unicode="&#x1af;" horiz-adv-x="1220" 
d="M242 291q0 -121 71 -185q72 -63 205 -63q193 0 303 150q55 80 88 256l178 1013h62l-51 -293q104 55 151 97q90 78 90 184q0 14 -2 29h62v-17q2 -116 -69 -196t-245 -160l-116 -670q-23 -126 -49 -190t-72 -119q-127 -141 -328 -141q-162 0 -251 76t-89 217q0 72 21 182
l176 1001h61l-178 -1013q-18 -111 -18 -158z" />
    <glyph glyph-name="uhorn" unicode="&#x1b0;" horiz-adv-x="972" 
d="M195 238q0 -197 178 -197q129 0 205 100t114 322l96 541h62l-53 -293q96 47 151 92q94 82 94 186q0 16 -4 31h62q2 -12 2 -31q0 -106 -69 -181t-247 -163l-114 -645h-51l18 141q-94 -158 -268 -157q-113 0 -175 61t-62 149t20 205l106 605h62l-109 -615
q-18 -106 -18 -151z" />
    <glyph glyph-name="uni01C4" unicode="&#x1c4;" horiz-adv-x="1988" 
d="M1747 1718l160 172h88l-242 -237h-27l-157 237h80zM1096 0l8 47l842 1358h-568l11 57h634l-8 -47l-841 -1358h628l-10 -57h-696zM1020 1130q0 147 -96 222q-70 53 -205 53h-289l-237 -1348h288q178 -4 290 106t144 318l89 500q16 94 16 149zM723 1462q166 0 250 -71
q109 -90 108 -250q0 -68 -16 -162l-92 -520q-33 -219 -160 -340t-324 -119h-368l258 1462h344z" />
    <glyph glyph-name="uni01C5" unicode="&#x1c5;" horiz-adv-x="1961" 
d="M1675 1276l160 172h88l-242 -238h-26l-158 238h80zM1171 0l7 39l637 907h-443l10 58h516l-6 -39l-637 -908h504l-10 -57h-578zM1020 1130q0 147 -96 222q-70 53 -205 53h-289l-237 -1348h288q178 -4 290 106t144 318l89 500q16 94 16 149zM723 1462q166 0 250 -71
q109 -90 108 -250q0 -68 -16 -162l-92 -520q-33 -219 -160 -340t-324 -119h-368l258 1462h344z" />
    <glyph glyph-name="uni01C6" unicode="&#x1c6;" horiz-adv-x="1765" 
d="M1481 1276l159 172h89l-242 -238h-27l-157 238h77zM975 0l6 39l637 907h-440l8 58h518l-8 -39l-637 -908h504l-11 -57h-577zM387 41q258 0 328 399l20 123q16 98 17 158q0 242 -213 242q-242 -1 -303 -345l-41 -233q-12 -72 -13 -121q0 -223 205 -223zM537 1020
q201 0 249 -166l109 608h61l-258 -1462h-53l19 143q-94 -160 -279 -159q-129 0 -197 70t-67 202q0 63 14 143l41 230q35 199 124 295t237 96z" />
    <glyph glyph-name="uni01C7" unicode="&#x1c7;" horiz-adv-x="1384" 
d="M694 -494q-63 0 -133 23l31 55q55 -20 104 -20q170 0 256 155q35 68 74 285l256 1458h61l-256 -1464q-47 -258 -102 -342q-102 -150 -291 -150zM123 0l258 1462h61l-247 -1405h608l-10 -57h-670z" />
    <glyph glyph-name="uni01C8" unicode="&#x1c8;" horiz-adv-x="1333" 
d="M1180 1004h61l-192 -1084q-33 -213 -113 -304t-231 -87l10 59q113 -8 179 70t93 254zM1231 1294l29 168h61l-29 -168h-61zM123 0l258 1462h61l-247 -1405h608l-10 -57h-670z" />
    <glyph glyph-name="uni01C9" unicode="&#x1c9;" horiz-adv-x="913" 
d="M758 1004h61l-190 -1084q-33 -213 -114 -304t-232 -87l10 59q115 -8 181 70t91 254zM809 1294l31 168h61l-31 -168h-61zM297 0q-176 0 -176 114q0 52 12 126l215 1222h62l-215 -1224q-11 -57 -11 -98q0 -42 27 -62t98 -21h43l-10 -57h-45z" />
    <glyph glyph-name="uni01CA" unicode="&#x1ca;" horiz-adv-x="1718" 
d="M1028 -494q-63 0 -133 23l31 55q55 -20 104 -20q174 0 256 155q37 68 74 285l258 1458h61l-258 -1464q-47 -258 -102 -342q-100 -150 -291 -150zM123 0l258 1462h57l463 -1329l234 1329h61l-256 -1462h-59l-463 1329l-234 -1329h-61z" />
    <glyph glyph-name="uni01CB" unicode="&#x1cb;" horiz-adv-x="1667" 
d="M1513 1004h62l-193 -1084q-32 -213 -112 -304t-232 -87l11 59q115 -8 181 71t91 253zM1565 1294l28 168h62l-29 -168h-61zM123 0l258 1462h57l463 -1329l234 1329h61l-256 -1462h-59l-463 1329l-234 -1329h-61z" />
    <glyph glyph-name="uni01CC" unicode="&#x1cc;" horiz-adv-x="1392" 
d="M1237 1004h61l-190 -1084q-33 -213 -113 -304t-231 -87l10 59q116 -8 180 71t90 253zM1288 1294l31 168h61l-30 -168h-62zM580 1020q118 0 184 -62t65 -170q0 -70 -20 -178l-107 -610h-61l109 614q16 98 16 150q0 199 -188 199q-135 1 -212 -99t-118 -323l-94 -541h-62
l176 1004h54l-19 -142q94 158 277 158z" />
    <glyph glyph-name="uni01CD" unicode="&#x1cd;" horiz-adv-x="987" 
d="M686 1718l160 172h88l-242 -237h-26l-158 237h80zM762 412l-113 944l-448 -944h561zM768 354h-590l-168 -354h-69l696 1462h53l182 -1462h-63z" />
    <glyph glyph-name="uni01CE" unicode="&#x1ce;" horiz-adv-x="890" 
d="M573 1276l160 172h88l-241 -238h-27l-158 238h80zM424 500q-174 0 -245 -84t-70 -232q0 -84 55 -114t166 -29q166 0 229 84q37 45 55 158l39 217h-229zM698 795q0 168 -188 168q-88 0 -148 -42t-108 -137l-55 19q98 217 307 217q254 0 254 -217q0 -37 -17 -144l-116 -659
h-54l7 74q-44 -50 -102 -70t-180 -20q-254 0 -253 190q0 178 80 275q84 109 301 108h238l20 117q14 86 14 121z" />
    <glyph glyph-name="uni01CF" unicode="&#x1cf;" horiz-adv-x="481" 
d="M453 1718l159 172h88l-241 -237h-27l-158 237h78zM123 0l258 1462h61l-258 -1462h-61z" />
    <glyph glyph-name="uni01D0" unicode="&#x1d0;" horiz-adv-x="419" 
d="M344 1276l160 172h88l-242 -238h-26l-158 238h80zM92 0l176 1004h62l-176 -1004h-62z" />
    <glyph glyph-name="uni01D1" unicode="&#x1d1;" horiz-adv-x="1157" 
d="M788 1718l160 172h88l-241 -237h-27l-158 237h80zM508 41q178 0 287 133q79 98 116 305l88 504q16 82 17 156q0 131 -77 207t-210 75q-174 0 -287 -133q-80 -98 -114 -305l-90 -504q-16 -102 -17 -153q0 -133 77 -209t210 -76zM715 1479q176 0 269 -89t93 -245
q0 -78 -16 -164l-92 -524q-23 -131 -55 -206t-91 -138q-127 -129 -302 -129t-268 88t-93 243q0 68 16 166l94 525q23 132 55 206t91 138q123 129 299 129z" />
    <glyph glyph-name="uni01D2" unicode="&#x1d2;" horiz-adv-x="948" 
d="M606 1276l160 172h88l-242 -238h-26l-158 238h80zM768 745q0 217 -221 218q-131 0 -207 -83t-107 -257l-43 -242q-12 -70 -12 -121q0 -219 221 -219q131 0 207 83t107 257l43 242q12 68 12 122zM538 1020q294 0 291 -266q0 -51 -14 -148l-41 -233q-37 -203 -127 -296
q-91 -93 -239 -93q-294 0 -291 268q0 65 14 145l41 234q35 201 126 295q92 94 240 94z" />
    <glyph glyph-name="uni01D3" unicode="&#x1d3;" horiz-adv-x="1181" 
d="M784 1718l160 172h88l-241 -237h-27l-158 237h80zM242 291q0 -121 71 -185q72 -63 205 -63q193 0 303 150q55 80 88 256l178 1013h62l-180 -1026q-23 -126 -49 -190t-72 -119q-127 -141 -328 -141q-162 0 -251 76t-89 217q0 72 21 182l176 1001h61l-178 -1013
q-18 -111 -18 -158z" />
    <glyph glyph-name="uni01D4" unicode="&#x1d4;" horiz-adv-x="942" 
d="M602 1276l160 172h88l-242 -238h-26l-158 238h80zM195 238q0 -197 178 -197q129 0 205 100t114 322l96 541h62l-178 -1004h-51l18 141q-94 -158 -268 -157q-113 0 -175 61t-62 149t20 205l106 605h62l-109 -615q-18 -106 -18 -151z" />
    <glyph glyph-name="Gcaron" unicode="&#x1e6;" horiz-adv-x="1128" 
d="M768 1718l160 172h88l-242 -237h-26l-158 237h80zM513 -16q-177 0 -264 85t-87 242q0 68 22 197l82 471q45 254 146 367q125 133 319 133q147 0 231 -74t85 -205q0 -25 -7 -70l-61 -2q4 25 4 52q0 115 -68 178t-188 63q-166 -1 -263 -109t-138 -341l-84 -479
q-18 -102 -19 -170q0 -281 277 -281q176 0 284 125q86 96 119 287l39 219h-293l10 57h355l-49 -280q-23 -125 -56 -201t-92 -137q-127 -127 -304 -127z" />
    <glyph glyph-name="gcaron" unicode="&#x1e7;" horiz-adv-x="962" 
d="M614 1276l160 172h88l-241 -238h-27l-158 238h80zM385 41q258 0 328 399l20 123q16 92 17 158q0 119 -56 180t-157 62q-243 -1 -304 -345l-40 -233q-12 -74 -13 -121q0 -223 205 -223zM535 1020q203 0 251 -170l35 154h51l-192 -1094q-66 -385 -385 -385q-119 0 -177 47
t-67 147l60 11q8 -147 184 -148q135 0 215 82t111 254l38 223q-94 -158 -276 -157q-129 0 -197 70t-67 206q0 53 14 139l41 230q35 199 124 295t237 96z" />
    <glyph glyph-name="uni01EA" unicode="&#x1ea;" horiz-adv-x="1157" 
d="M508 41q178 0 287 133q79 98 116 305l88 504q16 82 17 156q0 131 -77 207t-210 75q-174 0 -287 -133q-80 -98 -114 -305l-90 -504q-16 -102 -17 -153q0 -133 77 -209t210 -76zM434 -240q0 -63 90 -63q43 0 99 14l-2 -55q-63 -16 -111 -16q-139 0 -139 106q0 141 164 238
h-25q-164 0 -257 88t-93 243q0 68 16 166l94 525q23 132 55 206t91 138q123 129 299 129t269 -89t93 -245q0 -78 -16 -164l-92 -524q-51 -360 -316 -453q-219 -121 -219 -244z" />
    <glyph glyph-name="uni01EB" unicode="&#x1eb;" horiz-adv-x="948" 
d="M768 745q0 217 -221 218q-131 0 -207 -83t-107 -257l-43 -242q-12 -70 -12 -121q0 -219 221 -219q131 0 207 83t107 257l43 242q12 68 12 122zM420 -303q43 0 98 14l-2 -55q-63 -16 -110 -16q-139 0 -140 106q0 127 154 238h-25q-135 0 -207 68t-71 200q0 66 14 145
l41 234q35 201 126 295q92 94 240 94q294 0 291 -266q0 -51 -14 -148l-41 -233q-27 -147 -81 -233t-148 -130q-216 -127 -215 -252q0 -61 90 -61z" />
    <glyph glyph-name="uni01F1" unicode="&#x1f1;" horiz-adv-x="1988" 
d="M1096 0l8 47l842 1358h-568l11 57h634l-8 -47l-841 -1358h628l-10 -57h-696zM1020 1130q0 147 -96 222q-70 53 -205 53h-289l-237 -1348h288q178 -4 290 106t144 318l89 500q16 94 16 149zM723 1462q166 0 250 -71q109 -90 108 -250q0 -68 -16 -162l-92 -520
q-33 -219 -160 -340t-324 -119h-368l258 1462h344z" />
    <glyph glyph-name="uni01F2" unicode="&#x1f2;" horiz-adv-x="1961" 
d="M1171 0l7 39l637 907h-443l10 58h516l-6 -39l-637 -908h504l-10 -57h-578zM1020 1130q0 147 -96 222q-70 53 -205 53h-289l-237 -1348h288q178 -4 290 106t144 318l89 500q16 94 16 149zM723 1462q166 0 250 -71q109 -90 108 -250q0 -68 -16 -162l-92 -520
q-33 -219 -160 -340t-324 -119h-368l258 1462h344z" />
    <glyph glyph-name="uni01F3" unicode="&#x1f3;" horiz-adv-x="1765" 
d="M975 0l6 39l637 907h-440l8 58h518l-8 -39l-637 -908h504l-11 -57h-577zM387 41q258 0 328 399l20 123q16 98 17 158q0 242 -213 242q-242 -1 -303 -345l-41 -233q-12 -72 -13 -121q0 -223 205 -223zM537 1020q201 0 249 -166l109 608h61l-258 -1462h-53l19 143
q-94 -160 -279 -159q-129 0 -197 70t-67 202q0 63 14 143l41 230q35 199 124 295t237 96z" />
    <glyph glyph-name="uni01F4" unicode="&#x1f4;" horiz-adv-x="1128" 
d="M711 1638l163 267h89l-203 -267h-49zM513 -16q-177 0 -264 85t-87 242q0 68 22 197l82 471q45 254 146 367q125 133 319 133q147 0 231 -74t85 -205q0 -25 -7 -70l-61 -2q4 25 4 52q0 115 -68 178t-188 63q-166 -1 -263 -109t-138 -341l-84 -479q-18 -102 -19 -170
q0 -281 277 -281q176 0 284 125q86 96 119 287l39 219h-293l10 57h355l-49 -280q-23 -125 -56 -201t-92 -137q-127 -127 -304 -127z" />
    <glyph glyph-name="uni01F5" unicode="&#x1f5;" horiz-adv-x="962" 
d="M557 1196l164 266h88l-203 -266h-49zM385 41q258 0 328 399l20 123q16 92 17 158q0 119 -56 180t-157 62q-243 -1 -304 -345l-40 -233q-12 -74 -13 -121q0 -223 205 -223zM535 1020q203 0 251 -170l35 154h51l-192 -1094q-66 -385 -385 -385q-119 0 -177 47t-67 147
l60 11q8 -147 184 -148q135 0 215 82t111 254l38 223q-94 -158 -276 -157q-129 0 -197 70t-67 206q0 53 14 139l41 230q35 199 124 295t237 96z" />
    <glyph glyph-name="Aringacute" unicode="&#x1fa;" horiz-adv-x="987" 
d="M682 1827l129 221h96l-184 -221h-41zM801 1640q0 97 -97 97q-50 0 -88 -48t-38 -124q0 -96 92 -97q55 0 93 50t38 122zM762 412l-113 944l-448 -944h561zM862 1630q0 -76 -47 -137t-119 -72l176 -1421h-63l-41 354h-590l-168 -354h-69l680 1423q-104 27 -105 148
q0 92 55 153q55 62 133 62t118 -40t40 -116z" />
    <glyph glyph-name="aringacute" unicode="&#x1fb;" horiz-adv-x="890" 
d="M602 1589l129 221h98l-184 -221h-43zM717 1362q0 96 -98 96q-51 0 -89 -48t-38 -124q0 -96 92 -96q57 0 95 49t38 123zM588 1141q-158 -1 -158 161q0 82 56 144q57 61 135 61q157 1 157 -161q0 -82 -56 -144t-134 -61zM424 500q-174 0 -245 -84t-70 -232q0 -84 55 -114
t166 -29q166 0 229 84q37 45 55 158l39 217h-229zM698 795q0 168 -188 168q-88 0 -148 -42t-108 -137l-55 19q98 217 307 217q254 0 254 -217q0 -37 -17 -144l-116 -659h-54l7 74q-44 -50 -102 -70t-180 -20q-254 0 -253 190q0 178 80 275q84 109 301 108h238l20 117
q14 86 14 121z" />
    <glyph glyph-name="AEacute" unicode="&#x1fc;" horiz-adv-x="1591" 
d="M1268 1638l164 267h88l-203 -267h-49zM805 416l174 989h-16l-711 -989h553zM795 358h-584l-258 -358h-72l1055 1462h713l-9 -57h-600l-112 -635h514l-10 -57h-514l-115 -656h596l-10 -57h-658z" />
    <glyph glyph-name="aeacute" unicode="&#x1fd;" horiz-adv-x="1423" 
d="M780 1196l164 266h88l-203 -266h-49zM1255 743q0 219 -204 220q-252 0 -312 -347l-10 -53h506q20 119 20 180zM426 502q-176 0 -247 -85t-70 -233q0 -84 55 -114t164 -29q160 0 225 88q45 61 65 176l35 197h-227zM512 1020q215 0 242 -170q102 170 295 170q131 0 199 -70
t69 -200q0 -84 -31 -244h-569l-21 -117q-12 -70 -12 -119q0 -111 58 -170t160 -59t160 42t93 136l57 -12q-72 -223 -313 -223q-209 0 -260 188q-45 -104 -116 -146t-209 -42t-203 45q-66 45 -66 145q0 172 80 277q88 109 303 108h236l20 115q12 68 12 114q0 174 -180 174
t-262 -180l-51 21q94 217 309 217z" />
    <glyph glyph-name="Oslashacute" unicode="&#x1fe;" horiz-adv-x="1155" 
d="M725 1638l164 267h88l-203 -267h-49zM730 1421q-177 0 -286 -133q-82 -98 -116 -305l-88 -504q-18 -104 -18 -149t11 -92l750 1048q-76 135 -253 135zM510 41q176 0 285 133q47 57 71 123q25 66 45 182l90 504q17 103 17 147t-10 95l-752 -1051q78 -133 254 -133z
M504 -16q-196 0 -287 133l-100 -140l-47 31l116 164q-26 68 -26 136t18 173l92 525q23 132 55 206t91 138q124 129 320 129t288 -136l94 134l47 -33l-112 -156q27 -56 27 -130t-17 -177l-94 -524q-23 -133 -55 -207t-91 -137q-123 -129 -319 -129z" />
    <glyph glyph-name="oslashacute" unicode="&#x1ff;" horiz-adv-x="948" 
d="M543 1196l164 266h88l-203 -266h-49zM544 963q-130 0 -206 -83t-107 -257l-43 -242q-12 -66 -12 -118t12 -89l541 711q-55 78 -185 78zM398 41q128 0 205 82t110 258l41 242q14 85 14 127t-12 79l-541 -710q55 -78 183 -78zM402 -16q-152 0 -228 82l-68 -91l-43 33
l80 105q-47 103 -12 284l41 234q35 201 126 295t246 94t224 -82l70 90l43 -33l-80 -104q29 -57 29 -125t-17 -160l-41 -233q-35 -201 -126 -295q-92 -94 -244 -94z" />
    <glyph glyph-name="uni0200" unicode="&#x200;" horiz-adv-x="987" 
d="M635 1638h-47l-76 267h76zM813 1638h-47l-76 267h76zM762 412l-113 944l-448 -944h561zM768 354h-590l-168 -354h-69l696 1462h53l182 -1462h-63z" />
    <glyph glyph-name="uni0201" unicode="&#x201;" horiz-adv-x="890" 
d="M535 1196h-48l-75 266h75zM713 1196h-47l-76 266h76zM424 500q-174 0 -245 -84t-70 -232q0 -84 55 -114t166 -29q166 0 229 84q37 45 55 158l39 217h-229zM698 795q0 168 -188 168q-88 0 -148 -42t-108 -137l-55 19q98 217 307 217q254 0 254 -217q0 -37 -17 -144
l-116 -659h-54l7 74q-44 -50 -102 -70t-180 -20q-254 0 -253 190q0 178 80 275q84 109 301 108h238l20 117q14 86 14 121z" />
    <glyph glyph-name="uni0202" unicode="&#x202;" horiz-adv-x="987" 
d="M842 1724q0 111 -113 111q-69 0 -107 -40t-61 -138h-55q25 133 74 184t151 51q168 0 168 -145q0 -31 -10 -90h-55q8 47 8 67zM762 412l-113 944l-448 -944h561zM768 354h-590l-168 -354h-69l696 1462h53l182 -1462h-63z" />
    <glyph glyph-name="uni0203" unicode="&#x203;" horiz-adv-x="890" 
d="M733 1282q0 111 -112 111q-70 0 -107 -39t-61 -140h-56q27 132 75 184t151 52q168 0 168 -145q-1 -38 -11 -91h-55q8 43 8 68zM424 500q-174 0 -245 -84t-70 -232q0 -84 55 -114t166 -29q166 0 229 84q37 45 55 158l39 217h-229zM698 795q0 168 -188 168q-88 0 -148 -42
t-108 -137l-55 19q98 217 307 217q254 0 254 -217q0 -37 -17 -144l-116 -659h-54l7 74q-44 -50 -102 -70t-180 -20q-254 0 -253 190q0 178 80 275q84 109 301 108h238l20 117q14 86 14 121z" />
    <glyph glyph-name="uni0204" unicode="&#x204;" horiz-adv-x="980" 
d="M694 1638h-47l-76 267h76zM872 1638h-47l-75 267h75zM123 0l258 1462h659l-10 -57h-598l-113 -635h512l-8 -57h-514l-114 -656h596l-11 -57h-657z" />
    <glyph glyph-name="uni0205" unicode="&#x205;" horiz-adv-x="917" 
d="M543 1196h-47l-76 266h76zM721 1196h-47l-76 266h76zM223 563h506q20 115 21 180q0 219 -205 220q-127 0 -204 -85t-110 -262zM394 41q101 0 161 42q59 42 94 136l58 -12q-74 -223 -326 -223q-127 0 -195 70t-67 202q0 63 16 158l35 200q37 201 113 291q100 115 262 115
q129 0 197 -69t69 -199q0 -82 -31 -246h-567l-20 -113q-12 -78 -13 -125q0 -111 56 -169t158 -58z" />
    <glyph glyph-name="uni0206" unicode="&#x206;" horiz-adv-x="980" 
d="M893 1724q0 111 -113 111q-70 0 -108 -40t-60 -138h-55q25 133 74 184t151 51q168 0 168 -145q0 -31 -10 -90h-55q8 47 8 67zM123 0l258 1462h659l-10 -57h-598l-113 -635h512l-8 -57h-514l-114 -656h596l-11 -57h-657z" />
    <glyph glyph-name="uni0207" unicode="&#x207;" horiz-adv-x="917" 
d="M733 1282q0 111 -112 111q-70 0 -107 -39t-61 -140h-56q27 132 75 184t151 52q168 0 168 -145q-1 -38 -11 -91h-55q8 43 8 68zM223 563h506q20 115 21 180q0 219 -205 220q-127 0 -204 -85t-110 -262zM394 41q101 0 161 42q59 42 94 136l58 -12q-74 -223 -326 -223
q-127 0 -195 70t-67 202q0 63 16 158l35 200q37 201 113 291q100 115 262 115q129 0 197 -69t69 -199q0 -82 -31 -246h-567l-20 -113q-12 -78 -13 -125q0 -111 56 -169t158 -58z" />
    <glyph glyph-name="uni0208" unicode="&#x208;" horiz-adv-x="481" 
d="M383 1638h-47l-76 267h76zM561 1638h-47l-76 267h76zM123 0l258 1462h61l-258 -1462h-61z" />
    <glyph glyph-name="uni0209" unicode="&#x209;" horiz-adv-x="419" 
d="M274 1196h-47l-75 266h75zM453 1196h-47l-76 266h76zM92 0l176 1004h62l-176 -1004h-62z" />
    <glyph glyph-name="uni020A" unicode="&#x20a;" horiz-adv-x="481" 
d="M588 1724q0 111 -113 111q-69 0 -107 -40t-61 -138h-55q25 133 74 184t151 51q168 0 168 -145q0 -31 -10 -90h-55q8 47 8 67zM123 0l258 1462h61l-258 -1462h-61z" />
    <glyph glyph-name="uni020B" unicode="&#x20b;" horiz-adv-x="419" 
d="M481 1282q0 111 -112 111q-70 0 -107 -39t-61 -140h-56q27 132 75 184t151 52q168 0 168 -145q-1 -38 -11 -91h-55q8 43 8 68zM92 0l176 1004h62l-176 -1004h-62z" />
    <glyph glyph-name="uni020C" unicode="&#x20c;" horiz-adv-x="1157" 
d="M719 1638h-47l-76 267h76zM897 1638h-47l-76 267h76zM508 41q178 0 287 133q79 98 116 305l88 504q16 82 17 156q0 131 -77 207t-210 75q-174 0 -287 -133q-80 -98 -114 -305l-90 -504q-16 -102 -17 -153q0 -133 77 -209t210 -76zM715 1479q176 0 269 -89t93 -245
q0 -78 -16 -164l-92 -524q-23 -131 -55 -206t-91 -138q-127 -129 -302 -129t-268 88t-93 243q0 68 16 166l94 525q23 132 55 206t91 138q123 129 299 129z" />
    <glyph glyph-name="uni020D" unicode="&#x20d;" horiz-adv-x="948" 
d="M537 1196h-48l-75 266h75zM715 1196h-47l-76 266h76zM768 745q0 217 -221 218q-131 0 -207 -83t-107 -257l-43 -242q-12 -70 -12 -121q0 -219 221 -219q131 0 207 83t107 257l43 242q12 68 12 122zM538 1020q294 0 291 -266q0 -51 -14 -148l-41 -233q-37 -203 -127 -296
q-91 -93 -239 -93q-294 0 -291 268q0 65 14 145l41 234q35 201 126 295q92 94 240 94z" />
    <glyph glyph-name="uni020E" unicode="&#x20e;" horiz-adv-x="1157" 
d="M926 1724q0 111 -113 111q-69 0 -107 -40t-61 -138h-55q25 133 74 184t151 51q168 0 168 -145q0 -31 -10 -90h-55q8 47 8 67zM508 41q178 0 287 133q79 98 116 305l88 504q16 82 17 156q0 131 -77 207t-210 75q-174 0 -287 -133q-80 -98 -114 -305l-90 -504
q-16 -102 -17 -153q0 -133 77 -209t210 -76zM715 1479q176 0 269 -89t93 -245q0 -78 -16 -164l-92 -524q-23 -131 -55 -206t-91 -138q-127 -129 -302 -129t-268 88t-93 243q0 68 16 166l94 525q23 132 55 206t91 138q123 129 299 129z" />
    <glyph glyph-name="uni020F" unicode="&#x20f;" horiz-adv-x="948" 
d="M741 1282q0 111 -112 111q-70 0 -107 -39t-61 -140h-55q27 133 74 185q48 51 151 51q168 0 168 -145q-1 -38 -11 -91h-55q8 43 8 68zM768 745q0 217 -221 218q-131 0 -207 -83t-107 -257l-43 -242q-12 -70 -12 -121q0 -219 221 -219q131 0 207 83t107 257l43 242
q12 68 12 122zM538 1020q294 0 291 -266q0 -51 -14 -148l-41 -233q-37 -203 -127 -296q-91 -93 -239 -93q-294 0 -291 268q0 65 14 145l41 234q35 201 126 295q92 94 240 94z" />
    <glyph glyph-name="uni0210" unicode="&#x210;" horiz-adv-x="1103" 
d="M627 1638h-47l-76 267h76zM805 1638h-47l-76 267h76zM610 733q104 0 170 28t117 95q96 127 96 311q0 113 -63 175t-215 63h-281l-119 -672h295zM717 1462q186 0 266 -80q74 -80 74 -211q-1 -199 -101 -337t-251 -150l151 -684h-65l-148 676h-338l-119 -676h-61l258 1462
h334z" />
    <glyph glyph-name="uni0211" unicode="&#x211;" horiz-adv-x="622" 
d="M401 1196h-47l-75 266h75zM580 1196h-48l-75 266h75zM543 1020q84 0 143 -43l-37 -53q-49 39 -110 39q-113 0 -184 -111t-113 -356l-88 -496h-62l176 1004h54l-23 -148q88 164 244 164z" />
    <glyph glyph-name="uni0212" unicode="&#x212;" horiz-adv-x="1103" 
d="M852 1724q0 111 -113 111q-69 0 -107 -40t-61 -138h-55q25 133 74 184t151 51q168 0 168 -145q0 -31 -10 -90h-55q8 47 8 67zM610 733q104 0 170 28t117 95q96 127 96 311q0 113 -63 175t-215 63h-281l-119 -672h295zM717 1462q186 0 266 -80q74 -80 74 -211
q-1 -199 -101 -337t-251 -150l151 -684h-65l-148 676h-338l-119 -676h-61l258 1462h334z" />
    <glyph glyph-name="uni0213" unicode="&#x213;" horiz-adv-x="622" 
d="M641 1282q0 111 -113 111q-70 0 -106 -39t-62 -140h-55q27 132 75 184t150 52q168 0 168 -145q0 -38 -10 -91h-55q8 43 8 68zM543 1020q84 0 143 -43l-37 -53q-49 39 -110 39q-113 0 -184 -111t-113 -356l-88 -496h-62l176 1004h54l-23 -148q88 164 244 164z" />
    <glyph glyph-name="uni0214" unicode="&#x214;" horiz-adv-x="1181" 
d="M733 1638h-47l-76 267h76zM911 1638h-47l-76 267h76zM242 291q0 -121 71 -185q72 -63 205 -63q193 0 303 150q55 80 88 256l178 1013h62l-180 -1026q-23 -126 -49 -190t-72 -119q-127 -141 -328 -141q-162 0 -251 76t-89 217q0 72 21 182l176 1001h61l-178 -1013
q-18 -111 -18 -158z" />
    <glyph glyph-name="uni0215" unicode="&#x215;" horiz-adv-x="942" 
d="M535 1196h-48l-75 266h75zM713 1196h-47l-76 266h76zM195 238q0 -197 178 -197q129 0 205 100t114 322l96 541h62l-178 -1004h-51l18 141q-94 -158 -268 -157q-113 0 -175 61t-62 149t20 205l106 605h62l-109 -615q-18 -106 -18 -151z" />
    <glyph glyph-name="uni0216" unicode="&#x216;" horiz-adv-x="1181" 
d="M938 1724q0 111 -113 111q-69 0 -107 -40t-61 -138h-55q25 133 74 184t151 51q168 0 168 -145q0 -31 -10 -90h-55q8 47 8 67zM242 291q0 -121 71 -185q72 -63 205 -63q193 0 303 150q55 80 88 256l178 1013h62l-180 -1026q-23 -126 -49 -190t-72 -119
q-127 -141 -328 -141q-162 0 -251 76t-89 217q0 72 21 182l176 1001h61l-178 -1013q-18 -111 -18 -158z" />
    <glyph glyph-name="uni0217" unicode="&#x217;" horiz-adv-x="942" 
d="M739 1282q0 111 -112 111q-70 0 -107 -39t-61 -140h-56q27 132 75 184t151 52q168 0 168 -145q-1 -38 -11 -91h-55q8 43 8 68zM195 238q0 -197 178 -197q129 0 205 100t114 322l96 541h62l-178 -1004h-51l18 141q-94 -158 -268 -157q-113 0 -175 61t-62 149t20 205
l106 605h62l-109 -615q-18 -106 -18 -151z" />
    <glyph glyph-name="Scommaaccent" unicode="&#x218;" horiz-adv-x="995" 
d="M219 -422l139 266h76l-168 -266h-47zM420 41q219 0 317 162q70 117 70 237q0 170 -123 226q-31 14 -165 59t-202 122t-67 197q0 162 96 298t301 137q289 0 301 -252l-61 -10q-13 106 -69 155t-169 49q-182 0 -270 -141q-66 -102 -66 -216q-1 -114 59 -176t182 -104
t166 -62q151 -75 151 -251q-1 -176 -91 -315q-115 -172 -362 -172q-168 0 -249 70t-87 216l61 13q12 -125 79 -183t198 -59z" />
    <glyph glyph-name="scommaaccent" unicode="&#x219;" horiz-adv-x="802" 
d="M135 -422l139 266h76l-168 -266h-47zM322 41q120 0 201 75t81 199q0 100 -98 141q-24 8 -136 34t-161 74t-49 160t76 204q80 92 236 92t216 -94q25 -39 27 -121l-60 -10q-8 168 -190 168q-109 0 -175 -71t-67 -183q0 -70 41 -105q41 -36 160 -62t170 -59q74 -49 74 -159
q0 -160 -96 -250t-248 -90t-220 54q-67 54 -81 171l61 14q10 -94 64 -138t174 -44z" />
    <glyph glyph-name="uni021A" unicode="&#x21a;" horiz-adv-x="903" 
d="M166 -422l139 266h76l-168 -266h-47zM336 0l246 1405h-355l11 57h770l-11 -57h-354l-246 -1405h-61z" />
    <glyph glyph-name="uni021B" unicode="&#x21b;" horiz-adv-x="540" 
d="M27 -422l139 266h76l-168 -266h-47zM211 140q0 -82 115 -83h34l-10 -57h-20q-96 0 -139 32q-42 32 -41 103q0 37 16 131l121 680h-109l10 58h109l61 352h62l-64 -352h160l-10 -58h-158l-125 -700q-12 -68 -12 -106z" />
    <glyph glyph-name="uni0226" unicode="&#x226;" horiz-adv-x="987" 
d="M666 1661l28 168h62l-29 -168h-61zM762 412l-113 944l-448 -944h561zM768 354h-590l-168 -354h-69l696 1462h53l182 -1462h-63z" />
    <glyph glyph-name="uni0227" unicode="&#x227;" horiz-adv-x="890" 
d="M539 1219l28 167h62l-29 -167h-61zM424 500q-174 0 -245 -84t-70 -232q0 -84 55 -114t166 -29q166 0 229 84q37 45 55 158l39 217h-229zM698 795q0 168 -188 168q-88 0 -148 -42t-108 -137l-55 19q98 217 307 217q254 0 254 -217q0 -37 -17 -144l-116 -659h-54l7 74
q-44 -50 -102 -70t-180 -20q-254 0 -253 190q0 178 80 275q84 109 301 108h238l20 117q14 86 14 121z" />
    <glyph glyph-name="uni0237" unicode="&#x237;" horiz-adv-x="430" 
d="M276 1004h62l-193 -1084q-33 -213 -113 -304t-231 -87l11 59q114 -8 180 71t92 253z" />
    <glyph glyph-name="afii57929" unicode="&#x2bc;" horiz-adv-x="264" 
d="M158 1018l143 444h68l-164 -444h-47z" />
    <glyph glyph-name="uni02C0" unicode="&#x2c0;" 
d="M723 1870q-35 0 -84 -19l-8 43q49 23 100 23q123 0 123 -96q0 -51 -46 -103t-54 -63q-8 -12 -13 -45h-57q8 41 15 56q7 14 49 68t43 87q0 49 -68 49z" />
    <glyph glyph-name="circumflex" unicode="&#x2c6;" 
d="M672 1382l-160 -172h-88l242 238h26l158 -238h-80z" />
    <glyph glyph-name="caron" unicode="&#x2c7;" 
d="M645 1276l160 172h88l-242 -238h-26l-158 238h80z" />
    <glyph glyph-name="uni02C9" unicode="&#x2c9;" 
d="M475 1300l8 50h359l-8 -50h-359z" />
    <glyph glyph-name="breve" unicode="&#x2d8;" 
d="M535 1366q0 -111 112 -111q70 0 108 40t60 139h55q-25 -133 -73 -185q-49 -51 -152 -51q-168 0 -168 145q0 32 8 91h56q-6 -55 -6 -68z" />
    <glyph glyph-name="dotaccent" unicode="&#x2d9;" 
d="M606 1219l29 167h61l-28 -167h-62z" />
    <glyph glyph-name="ring" unicode="&#x2da;" 
d="M778 1403q0 96 -90 96q-59 0 -97 -48t-38 -124q0 -96 92 -96q57 0 95 49t38 123zM649 1182q-157 0 -157 162q0 82 56 142q56 62 134 62q158 0 158 -162q0 -80 -56 -142t-135 -62z" />
    <glyph glyph-name="ogonek" unicode="&#x2db;" 
d="M459 -303q43 0 98 14l-2 -55q-63 -16 -111 -16q-139 0 -139 108q-1 76 55 142t154 110h80q-102 -55 -150 -96q-76 -70 -75 -144q0 -63 90 -63z" />
    <glyph glyph-name="tilde" unicode="&#x2dc;" 
d="M566 1413q52 0 108 -67q51 -68 84 -68q49 0 98 119h47q-37 -92 -71 -130t-87 -38q-53 -1 -107 67t-85 68q-47 0 -96 -119h-47q37 92 70 130q34 38 86 38z" />
    <glyph glyph-name="hungarumlaut" unicode="&#x2dd;" 
d="M694 1196l142 266h75l-170 -266h-47zM516 1196l141 266h76l-170 -266h-47z" />
    <glyph glyph-name="uni0309" unicode="&#x309;" 
d="M649 1438q-37 0 -86 -19l-8 43q53 23 100 23q123 0 123 -96q0 -49 -45 -99t-53 -65q-8 -14 -14 -47h-58q8 41 16 56q6 14 48 68t43 87q0 49 -66 49z" />
    <glyph glyph-name="uni0312" unicode="&#x312;" 
d="M485 1196l203 266h49l-164 -266h-88z" />
    <glyph glyph-name="uni0313" unicode="&#x313;" horiz-adv-x="63" 
d="M94 1087l101 375h71l-129 -375h-43z" />
    <glyph glyph-name="uni031B" unicode="&#x31b;" horiz-adv-x="63" 
d="M94 1087l101 375h71l-129 -375h-43z" />
    <glyph glyph-name="uni0323" unicode="&#x323;" 
d="M326 -367l28 168h62l-29 -168h-61z" />
    <glyph glyph-name="uni037E" unicode="&#x37e;" horiz-adv-x="456" 
d="M262 862l25 142h61l-24 -142h-62zM-37 -385l172 526h72l-197 -526h-47z" />
    <glyph glyph-name="uni0387" unicode="&#x387;" horiz-adv-x="454" 
d="M231 690l25 139h61l-24 -139h-62z" />
    <glyph glyph-name="uni04D4" unicode="&#x4d4;" horiz-adv-x="1591" 
d="M805 416l174 989h-16l-711 -989h553zM795 358h-584l-258 -358h-72l1055 1462h713l-9 -57h-600l-112 -635h514l-10 -57h-514l-115 -656h596l-10 -57h-658z" />
    <glyph glyph-name="uni04D5" unicode="&#x4d5;" horiz-adv-x="1423" 
d="M1255 743q0 219 -204 220q-252 0 -312 -347l-10 -53h506q20 119 20 180zM426 502q-176 0 -247 -85t-70 -233q0 -84 55 -114t164 -29q160 0 225 88q45 61 65 176l35 197h-227zM512 1020q215 0 242 -170q102 170 295 170q131 0 199 -70t69 -200q0 -84 -31 -244h-569
l-21 -117q-12 -70 -12 -119q0 -111 58 -170t160 -59t160 42t93 136l57 -12q-72 -223 -313 -223q-209 0 -260 188q-45 -104 -116 -146t-209 -42t-203 45q-66 45 -66 145q0 172 80 277q88 109 303 108h236l20 115q12 68 12 114q0 174 -180 174t-262 -180l-51 21
q94 217 309 217z" />
    <glyph glyph-name="uni1E02" unicode="&#x1e02;" horiz-adv-x="1105" 
d="M705 1661l28 168h62l-29 -168h-61zM539 57q164 0 247 103q106 137 107 319q0 131 -54 191t-173 59h-355l-118 -672h346zM657 786q150 0 243 109t93 279q0 121 -58 176t-185 55h-320l-108 -619h335zM743 1462q168 0 240 -72t72 -213q0 -142 -68 -257t-180 -160
q149 -66 149 -281t-122 -360q-53 -63 -121 -91t-170 -28h-422l258 1462h364z" />
    <glyph glyph-name="uni1E03" unicode="&#x1e03;" horiz-adv-x="964" 
d="M637 1219l29 167h61l-29 -167h-61zM784 762q0 84 -52 142t-150 59q-260 0 -330 -400l-21 -123q-16 -88 -16 -155q0 -244 211 -244q244 0 305 344l39 221q14 72 14 156zM582 1020q128 0 196 -70t68 -200q0 -57 -17 -162l-38 -213q-68 -391 -363 -391q-201 0 -250 168
l-35 -152h-51l258 1462h62l-107 -600q94 158 277 158z" />
    <glyph glyph-name="uni1E0C" unicode="&#x1e0c;" horiz-adv-x="1161" 
d="M348 -367l29 168h61l-28 -168h-62zM1020 1130q0 147 -96 222q-70 53 -205 53h-289l-237 -1348h288q178 -4 290 106t144 318l89 500q16 94 16 149zM723 1462q166 0 250 -71q109 -90 108 -250q0 -68 -16 -162l-92 -520q-33 -219 -160 -340t-324 -119h-368l258 1462h344z
" />
    <glyph glyph-name="uni1E0D" unicode="&#x1e0d;" horiz-adv-x="964" 
d="M332 -367l28 168h62l-29 -168h-61zM387 41q258 0 328 399l20 123q16 98 17 158q0 242 -213 242q-242 -1 -303 -345l-41 -233q-12 -72 -13 -121q0 -223 205 -223zM537 1020q201 0 249 -166l109 608h61l-258 -1462h-53l19 143q-94 -160 -279 -159q-129 0 -197 70t-67 202
q0 63 14 143l41 230q35 199 124 295t237 96z" />
    <glyph glyph-name="uni1E1E" unicode="&#x1e1e;" horiz-adv-x="921" 
d="M702 1661l29 168h62l-29 -168h-62zM123 0l258 1462h657l-10 -57h-596l-115 -647h512l-10 -58h-512l-123 -700h-61z" />
    <glyph glyph-name="uni1E1F" unicode="&#x1e1f;" horiz-adv-x="542" 
d="M504 1661l28 168h62l-29 -168h-61zM293 946h-109l11 58h108l43 235q20 131 70 178t166 45h53l-8 -53h-39q-88 2 -125 -35t-60 -151l-38 -219h196l-10 -58h-197l-166 -946h-61z" />
    <glyph glyph-name="uni1E24" unicode="&#x1e24;" horiz-adv-x="1159" 
d="M395 -367l29 168h61l-28 -168h-62zM123 0l258 1462h61l-123 -692h617l123 692h61l-258 -1462h-61l125 713h-617l-125 -713h-61z" />
    <glyph glyph-name="uni1E25" unicode="&#x1e25;" horiz-adv-x="962" 
d="M295 -367l29 168h61l-29 -168h-61zM586 1020q116 0 180 -62t63 -170q0 -68 -20 -178l-107 -610h-61l109 614q16 104 16 148q0 201 -186 201q-135 1 -213 -99t-117 -323l-96 -541h-62l258 1462h62l-105 -594q102 152 279 152z" />
    <glyph glyph-name="uni1E44" unicode="&#x1e44;" horiz-adv-x="1236" 
d="M819 1661l29 168h61l-28 -168h-62zM123 0l258 1462h57l463 -1329l234 1329h61l-256 -1462h-59l-463 1329l-234 -1329h-61z" />
    <glyph glyph-name="uni1E45" unicode="&#x1e45;" horiz-adv-x="962" 
d="M596 1219l29 167h61l-29 -167h-61zM580 1020q118 0 184 -62t65 -170q0 -70 -20 -178l-107 -610h-61l109 614q16 98 16 150q0 199 -188 199q-135 1 -212 -99t-118 -323l-94 -541h-62l176 1004h54l-19 -142q94 158 277 158z" />
    <glyph glyph-name="uni1E5A" unicode="&#x1e5a;" horiz-adv-x="1103" 
d="M369 -367l28 168h62l-29 -168h-61zM610 733q104 0 170 28t117 95q96 127 96 311q0 113 -63 175t-215 63h-281l-119 -672h295zM717 1462q186 0 266 -80q74 -80 74 -211q-1 -199 -101 -337t-251 -150l151 -684h-65l-148 676h-338l-119 -676h-61l258 1462h334z" />
    <glyph glyph-name="uni1E5B" unicode="&#x1e5b;" horiz-adv-x="622" 
d="M29 -367l28 168h62l-29 -168h-61zM543 1020q82 0 145 -43l-37 -53q-49 39 -110 39q-115 0 -186 -111t-113 -356l-86 -496h-62l176 1004h52l-21 -148q88 164 242 164z" />
    <glyph glyph-name="uni1E62" unicode="&#x1e62;" horiz-adv-x="995" 
d="M307 -367l29 168h61l-28 -168h-62zM420 41q219 0 317 162q70 117 70 237q0 170 -123 226q-31 14 -165 59t-202 122t-67 197q0 162 96 298t301 137q289 0 301 -252l-61 -10q-13 106 -69 155t-169 49q-182 0 -270 -141q-66 -102 -66 -216q-1 -114 59 -176t182 -104t166 -62
q151 -75 151 -251q-1 -176 -91 -315q-115 -172 -362 -172q-168 0 -249 70t-87 216l61 13q12 -125 79 -183t198 -59z" />
    <glyph glyph-name="uni1E63" unicode="&#x1e63;" horiz-adv-x="802" 
d="M203 -367l28 168h62l-29 -168h-61zM322 41q120 0 201 75t81 199q0 100 -98 141q-24 8 -136 34t-161 74t-49 160t76 204q80 92 236 92t216 -94q25 -39 27 -121l-60 -10q-8 168 -190 168q-109 0 -175 -71t-67 -183q0 -70 41 -105q41 -36 160 -62t170 -59q74 -49 74 -159
q0 -160 -96 -250t-248 -90t-220 54q-67 54 -81 171l61 14q10 -94 64 -138t174 -44z" />
    <glyph glyph-name="uni1E6C" unicode="&#x1e6c;" horiz-adv-x="903" 
d="M266 -367l29 168h61l-28 -168h-62zM334 0l248 1405h-355l11 57h770l-11 -57h-354l-248 -1405h-61z" />
    <glyph glyph-name="uni1E6D" unicode="&#x1e6d;" horiz-adv-x="540" 
d="M86 -367l29 168h61l-29 -168h-61zM330 0q-178 0 -178 126q0 62 14 140l121 680h-107l10 58h107l61 352h62l-62 -352h158l-10 -58h-158l-125 -700q-10 -59 -10 -102q0 -87 113 -87h34l-10 -57h-20z" />
    <glyph glyph-name="Wgrave" unicode="&#x1e80;" horiz-adv-x="1437" 
d="M979 1638h-47l-113 267h82zM272 0l-26 1462h59l21 -1298l544 1298h33l86 -1298l479 1298h64l-541 -1462h-45l-86 1298l-543 -1298h-45z" />
    <glyph glyph-name="wgrave" unicode="&#x1e81;" horiz-adv-x="1298" 
d="M831 1196h-47l-112 266h82zM264 0l-86 1004h62l65 -887l410 887h39l96 -887l381 887h63l-438 -1004h-41l-100 881l-410 -881h-41z" />
    <glyph glyph-name="Wacute" unicode="&#x1e82;" horiz-adv-x="1437" 
d="M866 1638l164 267h88l-203 -267h-49zM272 0l-26 1462h59l21 -1298l544 1298h33l86 -1298l479 1298h64l-541 -1462h-45l-86 1298l-543 -1298h-45z" />
    <glyph glyph-name="wacute" unicode="&#x1e83;" horiz-adv-x="1298" 
d="M717 1196l164 266h88l-203 -266h-49zM264 0l-86 1004h62l65 -887l410 887h39l96 -887l381 887h63l-438 -1004h-41l-100 881l-410 -881h-41z" />
    <glyph glyph-name="Wdieresis" unicode="&#x1e84;" horiz-adv-x="1437" 
d="M1038 1661l29 168h59l-28 -168h-60zM721 1661l29 168h61l-31 -168h-59zM272 0l-26 1462h59l21 -1298l544 1298h33l86 -1298l479 1298h64l-541 -1462h-45l-86 1298l-543 -1298h-45z" />
    <glyph glyph-name="wdieresis" unicode="&#x1e85;" horiz-adv-x="1298" 
d="M889 1219l29 167h59l-29 -167h-59zM571 1219l29 167h62l-31 -167h-60zM264 0l-86 1004h62l65 -887l410 887h39l96 -887l381 887h63l-438 -1004h-41l-100 881l-410 -881h-41z" />
    <glyph glyph-name="uni1E92" unicode="&#x1e92;" horiz-adv-x="897" 
d="M262 -367l29 168h61l-28 -168h-62zM4 0l8 47l842 1358h-567l10 57h633l-8 -47l-840 -1358h627l-11 -57h-694z" />
    <glyph glyph-name="uni1E93" unicode="&#x1e93;" horiz-adv-x="800" 
d="M215 -367l29 168h61l-29 -168h-61zM10 0l6 39l637 907h-442l10 58h516l-6 -39l-637 -908h504l-10 -57h-578z" />
    <glyph glyph-name="uni1EA0" unicode="&#x1ea0;" horiz-adv-x="987" 
d="M356 -367l29 168h61l-28 -168h-62zM762 412l-113 944l-448 -944h561zM768 354h-590l-168 -354h-69l696 1462h53l182 -1462h-63z" />
    <glyph glyph-name="uni1EA1" unicode="&#x1ea1;" horiz-adv-x="890" 
d="M258 -367l31 168h61l-31 -168h-61zM424 500q-174 0 -245 -84t-70 -232q0 -84 55 -114t166 -29q166 0 229 84q37 45 55 158l39 217h-229zM698 795q0 168 -188 168q-88 0 -148 -42t-108 -137l-55 19q98 217 307 217q254 0 254 -217q0 -37 -17 -144l-116 -659h-54l7 74
q-44 -50 -102 -70t-180 -20q-254 0 -253 190q0 178 80 275q84 109 301 108h238l20 117q14 86 14 121z" />
    <glyph glyph-name="uni1EA2" unicode="&#x1ea2;" horiz-adv-x="987" 
d="M774 1821q0 49 -67 49q-35 0 -84 -19l-9 43q47 23 99 23q125 0 125 -96q0 -53 -62 -117q-31 -35 -38 -47t-13 -47h-59q8 41 15 56q7 14 50 68t43 87zM762 412l-113 944l-448 -944h561zM768 354h-590l-168 -354h-69l696 1462h53l182 -1462h-63z" />
    <glyph glyph-name="uni1EA3" unicode="&#x1ea3;" horiz-adv-x="890" 
d="M647 1389q0 49 -67 49q-39 0 -84 -19l-9 43q49 23 99 23q125 0 125 -96q0 -49 -62 -117q-31 -35 -39 -48t-12 -46h-59q8 39 15 54q7 14 50 68t43 89zM424 500q-174 0 -245 -84t-70 -232q0 -84 55 -114t166 -29q166 0 229 84q37 45 55 158l39 217h-229zM698 795
q0 168 -188 168q-88 0 -148 -42t-108 -137l-55 19q98 217 307 217q254 0 254 -217q0 -37 -17 -144l-116 -659h-54l7 74q-44 -50 -102 -70t-180 -20q-254 0 -253 190q0 178 80 275q84 109 301 108h238l20 117q14 86 14 121z" />
    <glyph glyph-name="uni1EA4" unicode="&#x1ea4;" horiz-adv-x="987" 
d="M707 1686l-162 -123h-90l247 188h25l182 -188h-84zM670 1806l137 226h90l-180 -226h-47zM762 412l-113 944l-448 -944h561zM768 354h-590l-168 -354h-69l696 1462h53l182 -1462h-63z" />
    <glyph glyph-name="uni1EA5" unicode="&#x1ea5;" horiz-adv-x="890" 
d="M580 1243l-162 -123h-90l247 189h25l180 -189h-82zM543 1364l137 225h90l-180 -225h-47zM424 500q-174 0 -245 -84t-70 -232q0 -84 55 -114t166 -29q166 0 229 84q37 45 55 158l39 217h-229zM698 795q0 168 -188 168q-88 0 -148 -42t-108 -137l-55 19q98 217 307 217
q254 0 254 -217q0 -37 -17 -144l-116 -659h-54l7 74q-44 -50 -102 -70t-180 -20q-254 0 -253 190q0 178 80 275q84 109 301 108h238l20 117q14 86 14 121z" />
    <glyph glyph-name="uni1EA6" unicode="&#x1ea6;" horiz-adv-x="987" 
d="M707 1686l-162 -123h-90l247 188h25l182 -188h-84zM778 1806h-47l-100 226h80zM762 412l-113 944l-448 -944h561zM768 354h-590l-168 -354h-69l696 1462h53l182 -1462h-63z" />
    <glyph glyph-name="uni1EA7" unicode="&#x1ea7;" horiz-adv-x="890" 
d="M580 1243l-162 -123h-90l247 189h25l180 -189h-82zM651 1364h-47l-100 225h78zM424 500q-174 0 -245 -84t-70 -232q0 -84 55 -114t166 -29q166 0 229 84q37 45 55 158l39 217h-229zM698 795q0 168 -188 168q-88 0 -148 -42t-108 -137l-55 19q98 217 307 217
q254 0 254 -217q0 -37 -17 -144l-116 -659h-54l7 74q-44 -50 -102 -70t-180 -20q-254 0 -253 190q0 178 80 275q84 109 301 108h238l20 117q14 86 14 121z" />
    <glyph glyph-name="uni1EA8" unicode="&#x1ea8;" horiz-adv-x="987" 
d="M700 1686l-161 -123h-93l248 188h27l180 -188h-82zM750 1784h-56q8 43 49 88t41 70q0 43 -59 43q-33 0 -74 -15l-8 45q47 16 90 17q111 0 111 -82q0 -27 -12 -47t-60 -68q-22 -26 -22 -51zM762 412l-113 944l-448 -944h561zM768 354h-590l-168 -354h-69l696 1462h53
l182 -1462h-63z" />
    <glyph glyph-name="uni1EA9" unicode="&#x1ea9;" horiz-adv-x="890" 
d="M571 1243l-161 -123h-91l248 189h25l182 -189h-84zM655 1499q0 43 -57 43q-33 0 -76 -14l-6 45q43 16 88 16q111 0 111 -82q1 -27 -13 -47t-59 -67q-18 -23 -22 -52h-56q8 43 49 88t41 70zM424 500q-174 0 -245 -84t-70 -232q0 -84 55 -114t166 -29q166 0 229 84
q37 45 55 158l39 217h-229zM698 795q0 168 -188 168q-88 0 -148 -42t-108 -137l-55 19q98 217 307 217q254 0 254 -217q0 -37 -17 -144l-116 -659h-54l7 74q-44 -50 -102 -70t-180 -20q-254 0 -253 190q0 178 80 275q84 109 301 108h238l20 117q14 86 14 121z" />
    <glyph glyph-name="uni1EAA" unicode="&#x1eaa;" horiz-adv-x="987" 
d="M719 1686l-162 -123h-90l248 188h24l181 -188h-82zM674 2019q57 1 96 -65t64 -66q43 0 86 115h51q-35 -90 -67 -129t-81 -39t-86 66q-41 65 -67 65t-48 -24t-53 -91h-51q66 168 156 168zM762 412l-113 944l-448 -944h561zM768 354h-590l-168 -354h-69l696 1462h53
l182 -1462h-63z" />
    <glyph glyph-name="uni1EAB" unicode="&#x1eab;" horiz-adv-x="890" 
d="M590 1243l-162 -123h-90l248 189h24l183 -189h-84zM547 1577q57 0 95 -66t63 -65q45 0 86 115h51q-33 -90 -65 -129t-81 -39q-49 -1 -88 65t-65 66q-48 0 -103 -115h-51q66 168 158 168zM424 500q-174 0 -245 -84t-70 -232q0 -84 55 -114t166 -29q166 0 229 84
q37 45 55 158l39 217h-229zM698 795q0 168 -188 168q-88 0 -148 -42t-108 -137l-55 19q98 217 307 217q254 0 254 -217q0 -37 -17 -144l-116 -659h-54l7 74q-44 -50 -102 -70t-180 -20q-254 0 -253 190q0 178 80 275q84 109 301 108h238l20 117q14 86 14 121z" />
    <glyph glyph-name="uni1EAC" unicode="&#x1eac;" horiz-adv-x="987" 
d="M356 -367l29 168h61l-28 -168h-62zM715 1825l-160 -172h-88l240 237h28l158 -237h-80zM762 412l-113 944l-448 -944h561zM768 354h-590l-168 -354h-69l696 1462h53l182 -1462h-63z" />
    <glyph glyph-name="uni1EAD" unicode="&#x1ead;" horiz-adv-x="890" 
d="M266 -367l29 168h61l-28 -168h-62zM600 1382l-160 -172h-88l242 238h27l157 -238h-78zM424 500q-174 0 -245 -84t-70 -232q0 -84 55 -114t166 -29q166 0 229 84q37 45 55 158l39 217h-229zM698 795q0 168 -188 168q-88 0 -148 -42t-108 -137l-55 19q98 217 307 217
q254 0 254 -217q0 -37 -17 -144l-116 -659h-54l7 74q-44 -50 -102 -70t-180 -20q-254 0 -253 190q0 178 80 275q84 109 301 108h238l20 117q14 86 14 121z" />
    <glyph glyph-name="uni1EAE" unicode="&#x1eae;" horiz-adv-x="987" 
d="M549 1731q0 -115 127 -115q74 0 115 36t63 120h55q-27 -119 -78 -166t-151 -47q-100 -1 -143 35t-43 112l4 66h53q-2 -29 -2 -41zM653 1806l138 226h90l-181 -226h-47zM762 412l-113 944l-448 -944h561zM768 354h-590l-168 -354h-69l696 1462h53l182 -1462h-63z" />
    <glyph glyph-name="uni1EAF" unicode="&#x1eaf;" horiz-adv-x="890" 
d="M436 1288q0 -115 127 -114q74 0 116 36t62 119h58q-27 -121 -78 -167t-153 -46t-144 35q-43 35 -43 111q0 18 6 67h53q-4 -23 -4 -41zM543 1364l137 225h90l-180 -225h-47zM424 500q-174 0 -245 -84t-70 -232q0 -84 55 -114t166 -29q166 0 229 84q37 45 55 158l39 217
h-229zM698 795q0 168 -188 168q-88 0 -148 -42t-108 -137l-55 19q98 217 307 217q254 0 254 -217q0 -37 -17 -144l-116 -659h-54l7 74q-44 -50 -102 -70t-180 -20q-254 0 -253 190q0 178 80 275q84 109 301 108h238l20 117q14 86 14 121z" />
    <glyph glyph-name="uni1EB0" unicode="&#x1eb0;" horiz-adv-x="987" 
d="M549 1731q0 -115 127 -115q74 0 115 36t63 120h55q-27 -119 -78 -166t-151 -47q-100 -1 -143 35t-43 112l4 66h53q-2 -29 -2 -41zM762 1806h-47l-101 226h78zM762 412l-113 944l-448 -944h561zM768 354h-590l-168 -354h-69l696 1462h53l182 -1462h-63z" />
    <glyph glyph-name="uni1EB1" unicode="&#x1eb1;" horiz-adv-x="890" 
d="M436 1288q0 -115 127 -114q74 0 116 36t62 119h58q-27 -121 -78 -167t-153 -46t-144 35q-43 35 -43 111q0 18 6 67h53q-4 -23 -4 -41zM649 1364h-47l-100 225h80zM424 500q-174 0 -245 -84t-70 -232q0 -84 55 -114t166 -29q166 0 229 84q37 45 55 158l39 217h-229z
M698 795q0 168 -188 168q-88 0 -148 -42t-108 -137l-55 19q98 217 307 217q254 0 254 -217q0 -37 -17 -144l-116 -659h-54l7 74q-44 -50 -102 -70t-180 -20q-254 0 -253 190q0 178 80 275q84 109 301 108h238l20 117q14 86 14 121z" />
    <glyph glyph-name="uni1EB2" unicode="&#x1eb2;" horiz-adv-x="987" 
d="M549 1731q0 -115 127 -115q74 0 115 36t63 120h55q-27 -119 -78 -166t-151 -47q-100 -1 -143 35t-43 112l4 66h53q-2 -29 -2 -41zM768 1942q0 43 -59 43q-33 0 -74 -15l-8 45q43 16 90 17q111 0 110 -88q0 -40 -47 -92t-53 -93h-55q10 47 53 99t43 84zM762 412l-113 944
l-448 -944h561zM768 354h-590l-168 -354h-69l696 1462h53l182 -1462h-63z" />
    <glyph glyph-name="uni1EB3" unicode="&#x1eb3;" horiz-adv-x="890" 
d="M436 1288q0 -115 127 -114q74 0 116 36t62 119h58q-27 -121 -78 -167t-153 -46t-144 35q-43 35 -43 111q0 18 6 67h53q-4 -23 -4 -41zM655 1499q0 43 -57 43q-33 0 -76 -14l-6 45q43 16 88 16q111 0 111 -88q-1 -41 -49 -93t-52 -91h-53q10 51 52 101t42 81zM424 500
q-174 0 -245 -84t-70 -232q0 -84 55 -114t166 -29q166 0 229 84q37 45 55 158l39 217h-229zM698 795q0 168 -188 168q-88 0 -148 -42t-108 -137l-55 19q98 217 307 217q254 0 254 -217q0 -37 -17 -144l-116 -659h-54l7 74q-44 -50 -102 -70t-180 -20q-254 0 -253 190
q0 178 80 275q84 109 301 108h238l20 117q14 86 14 121z" />
    <glyph glyph-name="uni1EB4" unicode="&#x1eb4;" horiz-adv-x="987" 
d="M547 1731q0 -115 127 -115q76 0 116 35t62 121h57q-29 -119 -80 -166t-151 -47q-100 1 -143 35t-43 110q0 19 6 68h51q-2 -27 -2 -41zM657 2019q57 1 97 -65t63 -66q41 0 86 115h51q-34 -90 -66 -129t-81 -39t-88 66t-66 65q-47 0 -100 -115h-51q66 168 155 168zM762 412
l-113 944l-448 -944h561zM768 354h-590l-168 -354h-69l696 1462h53l182 -1462h-63z" />
    <glyph glyph-name="uni1EB5" unicode="&#x1eb5;" horiz-adv-x="890" 
d="M436 1288q0 -115 127 -114q74 0 115 36t63 119h56q-27 -121 -78 -167t-160 -46q-178 0 -178 146q0 1 4 67h53q-2 -29 -2 -41zM547 1577q55 0 93 -66t65 -65q45 0 86 115h51q-33 -90 -65 -129t-81 -39q-49 -1 -88 65t-65 66q-50 0 -103 -115h-51q66 168 158 168zM424 500
q-174 0 -245 -84t-70 -232q0 -84 55 -114t166 -29q166 0 229 84q37 45 55 158l39 217h-229zM698 795q0 168 -188 168q-88 0 -148 -42t-108 -137l-55 19q98 217 307 217q254 0 254 -217q0 -37 -17 -144l-116 -659h-54l7 74q-44 -50 -102 -70t-180 -20q-254 0 -253 190
q0 178 80 275q84 109 301 108h238l20 117q14 86 14 121z" />
    <glyph glyph-name="uni1EB6" unicode="&#x1eb6;" horiz-adv-x="987" 
d="M356 -367l29 168h61l-28 -168h-62zM559 1810q0 -113 113 -112q70 0 106 39t62 139h55q-27 -135 -74 -185t-149 -51q-170 0 -170 148q0 27 10 88h55q-8 -43 -8 -66zM762 412l-113 944l-448 -944h561zM768 354h-590l-168 -354h-69l696 1462h53l182 -1462h-63z" />
    <glyph glyph-name="uni1EB7" unicode="&#x1eb7;" horiz-adv-x="890" 
d="M272 -367l29 168h61l-28 -168h-62zM455 1366q0 -111 112 -111q70 0 108 40t60 139h56q-25 -132 -73 -184t-151 -52q-170 0 -170 148q1 29 11 88h55q-8 -51 -8 -68zM424 500q-174 0 -245 -84t-70 -232q0 -84 55 -114t166 -29q166 0 229 84q37 45 55 158l39 217h-229z
M698 795q0 168 -188 168q-88 0 -148 -42t-108 -137l-55 19q98 217 307 217q254 0 254 -217q0 -37 -17 -144l-116 -659h-54l7 74q-44 -50 -102 -70t-180 -20q-254 0 -253 190q0 178 80 275q84 109 301 108h238l20 117q14 86 14 121z" />
    <glyph glyph-name="uni1EB8" unicode="&#x1eb8;" horiz-adv-x="980" 
d="M408 -367l28 168h62l-29 -168h-61zM123 0l258 1462h659l-10 -57h-598l-113 -635h512l-8 -57h-514l-114 -656h596l-11 -57h-657z" />
    <glyph glyph-name="uni1EB9" unicode="&#x1eb9;" horiz-adv-x="917" 
d="M293 -367l31 168h61l-31 -168h-61zM223 563h506q20 115 21 180q0 219 -205 220q-127 0 -204 -85t-110 -262zM394 41q101 0 161 42q59 42 94 136l58 -12q-74 -223 -326 -223q-127 0 -195 70t-67 202q0 63 16 158l35 200q37 201 113 291q100 115 262 115q129 0 197 -69
t69 -199q0 -82 -31 -246h-567l-20 -113q-12 -78 -13 -125q0 -111 56 -169t158 -58z" />
    <glyph glyph-name="uni1EBA" unicode="&#x1eba;" horiz-adv-x="980" 
d="M811 1821q0 49 -68 49q-35 0 -84 -19l-8 43q49 23 101 23q123 0 122 -96q0 -51 -46 -103t-53 -63q-7 -12 -13 -45h-60q10 41 18 56q7 14 49 68t42 87zM123 0l258 1462h659l-10 -57h-598l-113 -635h512l-8 -57h-514l-114 -656h596l-11 -57h-657z" />
    <glyph glyph-name="uni1EBB" unicode="&#x1ebb;" horiz-adv-x="917" 
d="M647 1389q0 49 -67 49q-39 0 -84 -19l-9 43q49 23 99 23q125 0 125 -96q1 -49 -47 -101t-55 -66q-7 -13 -11 -44h-59q8 39 15 54q7 16 50 68t43 89zM223 563h506q20 115 21 180q0 219 -205 220q-127 0 -204 -85t-110 -262zM394 41q101 0 161 42q59 42 94 136l58 -12
q-74 -223 -326 -223q-127 0 -195 70t-67 202q0 63 16 158l35 200q37 201 113 291q100 115 262 115q129 0 197 -69t69 -199q0 -82 -31 -246h-567l-20 -113q-12 -78 -13 -125q0 -111 56 -169t158 -58z" />
    <glyph glyph-name="uni1EBC" unicode="&#x1ebc;" horiz-adv-x="980" 
d="M829 1720q49 0 99 119h47q-37 -92 -71 -130t-88 -38t-105 68q-55 67 -84 67t-49 -24t-50 -94h-47q37 92 71 130t85 38t108 -68q53 -68 84 -68zM123 0l258 1462h659l-10 -57h-598l-113 -635h512l-8 -57h-514l-114 -656h596l-11 -57h-657z" />
    <glyph glyph-name="uni1EBD" unicode="&#x1ebd;" horiz-adv-x="917" 
d="M513 1413q52 0 108 -67q51 -68 84 -68q49 0 98 119h47q-37 -92 -71 -130t-88 -38q-54 -1 -107 67t-84 68q-48 0 -97 -119h-47q37 92 71 130t86 38zM223 563h506q20 115 21 180q0 219 -205 220q-127 0 -204 -85t-110 -262zM394 41q101 0 161 42q59 42 94 136l58 -12
q-74 -223 -326 -223q-127 0 -195 70t-67 202q0 63 16 158l35 200q37 201 113 291q100 115 262 115q129 0 197 -69t69 -199q0 -82 -31 -246h-567l-20 -113q-12 -78 -13 -125q0 -111 56 -169t158 -58z" />
    <glyph glyph-name="uni1EBE" unicode="&#x1ebe;" horiz-adv-x="980" 
d="M750 1686l-162 -123h-92l247 188h27l180 -188h-82zM713 1806l137 226h90l-180 -226h-47zM123 0l258 1462h659l-10 -57h-598l-113 -635h512l-8 -57h-514l-114 -656h596l-11 -57h-657z" />
    <glyph glyph-name="uni1EBF" unicode="&#x1ebf;" horiz-adv-x="917" 
d="M594 1243l-164 -123h-90l248 189h24l183 -189h-82zM555 1364l137 225h90l-178 -225h-49zM223 563h506q20 115 21 180q0 219 -205 220q-127 0 -204 -85t-110 -262zM394 41q101 0 161 42q59 42 94 136l58 -12q-74 -223 -326 -223q-127 0 -195 70t-67 202q0 63 16 158
l35 200q37 201 113 291q100 115 262 115q129 0 197 -69t69 -199q0 -82 -31 -246h-567l-20 -113q-12 -78 -13 -125q0 -111 56 -169t158 -58z" />
    <glyph glyph-name="uni1EC0" unicode="&#x1ec0;" horiz-adv-x="980" 
d="M750 1686l-162 -123h-92l247 188h27l180 -188h-82zM821 1806h-47l-100 226h78zM123 0l258 1462h659l-10 -57h-598l-113 -635h512l-8 -57h-514l-114 -656h596l-11 -57h-657z" />
    <glyph glyph-name="uni1EC1" unicode="&#x1ec1;" horiz-adv-x="917" 
d="M594 1243l-164 -123h-90l248 189h24l183 -189h-82zM666 1364h-48l-102 225h80zM223 563h506q20 115 21 180q0 219 -205 220q-127 0 -204 -85t-110 -262zM394 41q101 0 161 42q59 42 94 136l58 -12q-74 -223 -326 -223q-127 0 -195 70t-67 202q0 63 16 158l35 200
q37 201 113 291q100 115 262 115q129 0 197 -69t69 -199q0 -82 -31 -246h-567l-20 -113q-12 -78 -13 -125q0 -111 56 -169t158 -58z" />
    <glyph glyph-name="uni1EC2" unicode="&#x1ec2;" horiz-adv-x="980" 
d="M741 1686l-161 -123h-91l248 188h25l182 -188h-84zM825 1942q0 43 -59 43q-31 0 -74 -15l-6 45q43 16 88 17q111 0 111 -82q-1 -27 -13 -47t-59 -68q-18 -22 -22 -51h-56q8 43 49 88t41 70zM123 0l258 1462h659l-10 -57h-598l-113 -635h512l-8 -57h-514l-114 -656h596
l-11 -57h-657z" />
    <glyph glyph-name="uni1EC3" unicode="&#x1ec3;" horiz-adv-x="917" 
d="M586 1243l-162 -123h-90l248 189h24l180 -189h-81zM670 1499q0 43 -60 43q-31 0 -73 -14l-9 45q47 16 90 16q111 0 111 -82q0 -27 -13 -47t-59 -67q-18 -19 -22 -52h-55q8 43 49 88t41 70zM223 563h506q20 115 21 180q0 219 -205 220q-127 0 -204 -85t-110 -262zM394 41
q101 0 161 42q59 42 94 136l58 -12q-74 -223 -326 -223q-127 0 -195 70t-67 202q0 63 16 158l35 200q37 201 113 291q100 115 262 115q129 0 197 -69t69 -199q0 -82 -31 -246h-567l-20 -113q-12 -78 -13 -125q0 -111 56 -169t158 -58z" />
    <glyph glyph-name="uni1EC4" unicode="&#x1ec4;" horiz-adv-x="980" 
d="M760 1686l-162 -123h-90l248 188h24l183 -188h-84zM717 2019q55 1 94 -65t63 -66q43 0 87 115h51q-33 -90 -65 -129t-81 -39t-88 66t-65 65q-27 0 -49 -26t-54 -89h-51q66 168 158 168zM123 0l258 1462h659l-10 -57h-598l-113 -635h512l-8 -57h-514l-114 -656h596
l-11 -57h-657z" />
    <glyph glyph-name="uni1EC5" unicode="&#x1ec5;" horiz-adv-x="917" 
d="M604 1243l-162 -123h-90l248 189h25l180 -189h-82zM559 1577q57 0 96 -66t64 -65q41 0 86 115h51q-32 -90 -64 -129t-81 -39q-49 -1 -88 65t-68 66q-45 0 -100 -115h-52q66 168 156 168zM223 563h506q20 115 21 180q0 219 -205 220q-127 0 -204 -85t-110 -262zM394 41
q101 0 161 42q59 42 94 136l58 -12q-74 -223 -326 -223q-127 0 -195 70t-67 202q0 63 16 158l35 200q37 201 113 291q100 115 262 115q129 0 197 -69t69 -199q0 -82 -31 -246h-567l-20 -113q-12 -78 -13 -125q0 -111 56 -169t158 -58z" />
    <glyph glyph-name="uni1EC6" unicode="&#x1ec6;" horiz-adv-x="980" 
d="M393 -367l31 168h61l-30 -168h-62zM764 1825l-160 -172h-88l242 237h26l158 -237h-78zM123 0l258 1462h659l-10 -57h-598l-113 -635h512l-8 -57h-514l-114 -656h596l-11 -57h-657z" />
    <glyph glyph-name="uni1EC7" unicode="&#x1ec7;" horiz-adv-x="917" 
d="M272 -367l31 168h62l-31 -168h-62zM621 1382l-160 -172h-88l241 238h27l158 -238h-78zM223 563h506q20 115 21 180q0 219 -205 220q-127 0 -204 -85t-110 -262zM394 41q101 0 161 42q59 42 94 136l58 -12q-74 -223 -326 -223q-127 0 -195 70t-67 202q0 63 16 158l35 200
q37 201 113 291q100 115 262 115q129 0 197 -69t69 -199q0 -82 -31 -246h-567l-20 -113q-12 -78 -13 -125q0 -111 56 -169t158 -58z" />
    <glyph glyph-name="uni1EC8" unicode="&#x1ec8;" horiz-adv-x="481" 
d="M520 1821q0 49 -67 49q-35 0 -84 -19l-9 43q49 23 101 23q123 0 123 -96q0 -51 -46 -103t-54 -63q-7 -12 -13 -45h-57q8 41 15 56q7 14 49 68t42 87zM123 0l258 1462h61l-258 -1462h-61z" />
    <glyph glyph-name="uni1EC9" unicode="&#x1ec9;" horiz-adv-x="419" 
d="M346 1438q-35 0 -84 -19l-8 43q49 23 100 23q123 0 123 -96q0 -51 -46 -101t-54 -64q-8 -13 -12 -46h-60q10 54 59 114t50 97q0 49 -68 49zM92 0l176 1004h62l-176 -1004h-62z" />
    <glyph glyph-name="uni1ECA" unicode="&#x1eca;" horiz-adv-x="481" 
d="M55 -367l29 168h61l-28 -168h-62zM123 0l256 1462h61l-256 -1462h-61z" />
    <glyph glyph-name="uni1ECB" unicode="&#x1ecb;" horiz-adv-x="419" 
d="M25 -367l28 168h62l-29 -168h-61zM92 0l176 1004h62l-176 -1004h-62zM319 1294l29 168h62l-29 -168h-62z" />
    <glyph glyph-name="uni1ECC" unicode="&#x1ecc;" horiz-adv-x="1157" 
d="M393 -367l29 168h61l-28 -168h-62zM508 41q178 0 287 133q79 98 116 305l88 504q16 82 17 156q0 131 -77 207t-210 75q-174 0 -287 -133q-80 -98 -114 -305l-90 -504q-16 -102 -17 -153q0 -133 77 -209t210 -76zM715 1479q176 0 269 -89t93 -245q0 -78 -16 -164l-92 -524
q-23 -131 -55 -206t-91 -138q-127 -129 -302 -129t-268 88t-93 243q0 68 16 166l94 525q23 132 55 206t91 138q123 129 299 129z" />
    <glyph glyph-name="uni1ECD" unicode="&#x1ecd;" horiz-adv-x="948" 
d="M289 -367l28 168h62l-29 -168h-61zM768 745q0 217 -221 218q-131 0 -207 -83t-107 -257l-43 -242q-12 -70 -12 -121q0 -219 221 -219q131 0 207 83t107 257l43 242q12 68 12 122zM538 1020q294 0 291 -266q0 -51 -14 -148l-41 -233q-37 -203 -127 -296q-91 -93 -239 -93
q-294 0 -291 268q0 65 14 145l41 234q35 201 126 295q92 94 240 94z" />
    <glyph glyph-name="uni1ECE" unicode="&#x1ece;" horiz-adv-x="1157" 
d="M858 1821q0 49 -67 49q-35 0 -84 -19l-11 43q49 23 101 23q125 0 125 -96q0 -53 -62 -117q-33 -37 -40 -49t-13 -45h-57q10 54 59 116t49 95zM508 41q178 0 287 133q79 98 116 305l88 504q16 82 17 156q0 131 -77 207t-210 75q-174 0 -287 -133q-80 -98 -114 -305
l-90 -504q-16 -102 -17 -153q0 -133 77 -209t210 -76zM715 1479q176 0 269 -89t93 -245q0 -78 -16 -164l-92 -524q-23 -131 -55 -206t-91 -138q-127 -129 -302 -129t-268 88t-93 243q0 68 16 166l94 525q23 132 55 206t91 138q123 129 299 129z" />
    <glyph glyph-name="uni1ECF" unicode="&#x1ecf;" horiz-adv-x="948" 
d="M676 1389q0 49 -68 49q-35 0 -84 -19l-8 43q49 23 98 23q125 0 125 -96q0 -51 -46 -101t-54 -64q-8 -13 -12 -46h-60q9 54 59 116t50 95zM768 745q0 217 -221 218q-131 0 -207 -83t-107 -257l-43 -242q-12 -70 -12 -121q0 -219 221 -219q131 0 207 83t107 257l43 242
q12 68 12 122zM538 1020q294 0 291 -266q0 -51 -14 -148l-41 -233q-37 -203 -127 -296q-91 -93 -239 -93q-294 0 -291 268q0 65 14 145l41 234q35 201 126 295q92 94 240 94z" />
    <glyph glyph-name="uni1ED0" unicode="&#x1ed0;" horiz-adv-x="1157" 
d="M791 1686l-162 -123h-90l247 188h25l182 -188h-84zM754 1806l137 226h90l-180 -226h-47zM508 41q178 0 287 133q79 98 116 305l88 504q16 82 17 156q0 131 -77 207t-210 75q-174 0 -287 -133q-80 -98 -114 -305l-90 -504q-16 -102 -17 -153q0 -133 77 -209t210 -76z
M715 1479q176 0 269 -89t93 -245q0 -78 -16 -164l-92 -524q-23 -131 -55 -206t-91 -138q-127 -129 -302 -129t-268 88t-93 243q0 68 16 166l94 525q23 132 55 206t91 138q123 129 299 129z" />
    <glyph glyph-name="uni1ED1" unicode="&#x1ed1;" horiz-adv-x="948" 
d="M608 1243l-162 -123h-90l248 189h25l180 -189h-82zM571 1364l138 225h90l-181 -225h-47zM768 745q0 217 -221 218q-131 0 -207 -83t-107 -257l-43 -242q-12 -70 -12 -121q0 -219 221 -219q131 0 207 83t107 257l43 242q12 68 12 122zM538 1020q294 0 291 -266
q0 -51 -14 -148l-41 -233q-37 -203 -127 -296q-91 -93 -239 -93q-294 0 -291 268q0 65 14 145l41 234q35 201 126 295q92 94 240 94z" />
    <glyph glyph-name="uni1ED2" unicode="&#x1ed2;" horiz-adv-x="1157" 
d="M791 1686l-162 -123h-90l247 188h25l182 -188h-84zM862 1806h-47l-100 226h80zM508 41q178 0 287 133q79 98 116 305l88 504q16 82 17 156q0 131 -77 207t-210 75q-174 0 -287 -133q-80 -98 -114 -305l-90 -504q-16 -102 -17 -153q0 -133 77 -209t210 -76zM715 1479
q176 0 269 -89t93 -245q0 -78 -16 -164l-92 -524q-23 -131 -55 -206t-91 -138q-127 -129 -302 -129t-268 88t-93 243q0 68 16 166l94 525q23 132 55 206t91 138q123 129 299 129z" />
    <glyph glyph-name="uni1ED3" unicode="&#x1ed3;" horiz-adv-x="948" 
d="M608 1243l-162 -123h-90l248 189h25l180 -189h-82zM680 1364h-47l-101 225h78zM768 745q0 217 -221 218q-131 0 -207 -83t-107 -257l-43 -242q-12 -70 -12 -121q0 -219 221 -219q131 0 207 83t107 257l43 242q12 68 12 122zM538 1020q294 0 291 -266q0 -51 -14 -148
l-41 -233q-37 -203 -127 -296q-91 -93 -239 -93q-294 0 -291 268q0 65 14 145l41 234q35 201 126 295q92 94 240 94z" />
    <glyph glyph-name="uni1ED4" unicode="&#x1ed4;" horiz-adv-x="1157" 
d="M784 1686l-163 -123h-91l248 188h25l182 -188h-82zM834 1784h-56q6 31 13 43q5 12 41 51t36 64q0 43 -59 43q-33 0 -74 -15l-8 45q43 16 90 17q111 0 111 -82q0 -27 -14 -47t-58 -68q-22 -26 -22 -51zM508 41q178 0 287 133q79 98 116 305l88 504q16 82 17 156
q0 131 -77 207t-210 75q-174 0 -287 -133q-80 -98 -114 -305l-90 -504q-16 -102 -17 -153q0 -133 77 -209t210 -76zM715 1479q176 0 269 -89t93 -245q0 -78 -16 -164l-92 -524q-23 -131 -55 -206t-91 -138q-127 -129 -302 -129t-268 88t-93 243q0 68 16 166l94 525
q23 132 55 206t91 138q123 129 299 129z" />
    <glyph glyph-name="uni1ED5" unicode="&#x1ed5;" horiz-adv-x="948" 
d="M600 1243l-162 -123h-90l248 189h25l182 -189h-82zM684 1499q0 43 -57 43q-33 0 -76 -14l-6 45q43 16 88 16q111 0 110 -82q0 -27 -13 -47t-46 -55t-35 -64h-53q6 43 47 87t41 71zM768 745q0 217 -221 218q-131 0 -207 -83t-107 -257l-43 -242q-12 -70 -12 -121
q0 -219 221 -219q131 0 207 83t107 257l43 242q12 68 12 122zM538 1020q294 0 291 -266q0 -51 -14 -148l-41 -233q-37 -203 -127 -296q-91 -93 -239 -93q-294 0 -291 268q0 65 14 145l41 234q35 201 126 295q92 94 240 94z" />
    <glyph glyph-name="uni1ED6" unicode="&#x1ed6;" horiz-adv-x="1157" 
d="M803 1686l-164 -123h-90l248 188h24l183 -188h-82zM758 2019q57 0 96 -65q25 -39 37 -52t27 -14q41 0 86 115h51q-35 -90 -67 -129t-81 -39t-88 66t-65 65q-50 0 -101 -115h-51q66 168 156 168zM508 41q178 0 287 133q79 98 116 305l88 504q16 82 17 156q0 131 -77 207
t-210 75q-174 0 -287 -133q-80 -98 -114 -305l-90 -504q-16 -102 -17 -153q0 -133 77 -209t210 -76zM715 1479q176 0 269 -89t93 -245q0 -78 -16 -164l-92 -524q-23 -131 -55 -206t-91 -138q-127 -129 -302 -129t-268 88t-93 243q0 68 16 166l94 525q23 132 55 206t91 138
q123 129 299 129z" />
    <glyph glyph-name="uni1ED7" unicode="&#x1ed7;" horiz-adv-x="948" 
d="M618 1243l-161 -123h-90l247 189h25l182 -189h-82zM575 1577q57 0 97 -66t61 -65q43 0 88 115h51q-34 -90 -66 -129t-81 -39q-49 -1 -88 65t-66 66q-49 0 -100 -115h-51q66 168 155 168zM768 745q0 217 -221 218q-131 0 -207 -83t-107 -257l-43 -242q-12 -70 -12 -121
q0 -219 221 -219q131 0 207 83t107 257l43 242q12 68 12 122zM538 1020q294 0 291 -266q0 -51 -14 -148l-41 -233q-37 -203 -127 -296q-91 -93 -239 -93q-294 0 -291 268q0 65 14 145l41 234q35 201 126 295q92 94 240 94z" />
    <glyph glyph-name="uni1ED8" unicode="&#x1ed8;" horiz-adv-x="1157" 
d="M393 -367l29 168h61l-28 -168h-62zM815 1825l-160 -172h-88l242 237h27l159 -237h-80zM508 41q178 0 287 133q79 98 116 305l88 504q16 82 17 156q0 131 -77 207t-210 75q-174 0 -287 -133q-80 -98 -114 -305l-90 -504q-16 -102 -17 -153q0 -133 77 -209t210 -76z
M715 1479q176 0 269 -89t93 -245q0 -78 -16 -164l-92 -524q-23 -131 -55 -206t-91 -138q-127 -129 -302 -129t-268 88t-93 243q0 68 16 166l94 525q23 132 55 206t91 138q123 129 299 129z" />
    <glyph glyph-name="uni1ED9" unicode="&#x1ed9;" horiz-adv-x="948" 
d="M289 -367l28 168h62l-29 -168h-61zM633 1382l-160 -172h-88l242 238h26l158 -238h-78zM768 745q0 217 -221 218q-131 0 -207 -83t-107 -257l-43 -242q-12 -70 -12 -121q0 -219 221 -219q131 0 207 83t107 257l43 242q12 68 12 122zM538 1020q294 0 291 -266
q0 -51 -14 -148l-41 -233q-37 -203 -127 -296q-91 -93 -239 -93q-294 0 -291 268q0 65 14 145l41 234q35 201 126 295q92 94 240 94z" />
    <glyph glyph-name="uni1EDA" unicode="&#x1eda;" horiz-adv-x="1187" 
d="M770 1638l162 267h88l-203 -267h-47zM508 41q178 0 287 133q79 98 116 305l88 504q16 82 17 156q0 131 -77 207t-210 75q-174 0 -287 -133q-80 -98 -114 -305l-90 -504q-16 -102 -17 -153q0 -133 77 -209t210 -76zM1264 1479h61q4 -111 -49 -182t-199 -152
q0 -70 -16 -164l-92 -524q-23 -131 -55 -206t-91 -138q-127 -129 -302 -129t-268 88t-93 243q0 68 16 166l94 525q23 132 55 206t91 138q123 129 315 129q145 0 235 -72t109 -203q186 93 189 246v29z" />
    <glyph glyph-name="uni1EDB" unicode="&#x1edb;" horiz-adv-x="960" 
d="M582 1196l163 266h89l-203 -266h-49zM768 745q0 217 -221 218q-131 0 -207 -83t-107 -257l-43 -242q-12 -70 -12 -121q0 -219 221 -219q131 0 207 83t107 257l43 242q12 68 12 122zM1057 1020v-29q0 -178 -230 -301q-2 -10 -5 -38t-7 -46l-41 -233q-37 -203 -127 -296
q-91 -93 -239 -93q-294 0 -291 268q0 66 14 145l41 234q35 199 126 294t249 95q279 0 282 -268q168 100 168 237q0 17 -4 31h64z" />
    <glyph glyph-name="uni1EDC" unicode="&#x1edc;" horiz-adv-x="1187" 
d="M846 1638h-47l-113 267h82zM508 41q178 0 287 133q79 98 116 305l88 504q16 82 17 156q0 131 -77 207t-210 75q-174 0 -287 -133q-80 -98 -114 -305l-90 -504q-16 -102 -17 -153q0 -133 77 -209t210 -76zM1264 1479h61q4 -111 -49 -182t-199 -152q0 -70 -16 -164
l-92 -524q-23 -131 -55 -206t-91 -138q-127 -129 -302 -129t-268 88t-93 243q0 68 16 166l94 525q23 132 55 206t91 138q123 129 315 129q145 0 235 -72t109 -203q186 93 189 246v29z" />
    <glyph glyph-name="uni1EDD" unicode="&#x1edd;" horiz-adv-x="960" 
d="M692 1196h-47l-113 266h82zM768 745q0 217 -221 218q-131 0 -207 -83t-107 -257l-43 -242q-12 -70 -12 -121q0 -219 221 -219q131 0 207 83t107 257l43 242q12 68 12 122zM1057 1020v-29q0 -178 -230 -301q-2 -10 -5 -38t-7 -46l-41 -233q-37 -203 -127 -296
q-91 -93 -239 -93q-294 0 -291 268q0 66 14 145l41 234q35 199 126 294t249 95q279 0 282 -268q168 100 168 237q0 17 -4 31h64z" />
    <glyph glyph-name="uni1EDE" unicode="&#x1ede;" horiz-adv-x="1187" 
d="M850 1821q0 49 -68 49q-33 0 -86 -19l-8 43q49 23 100 23q125 0 125 -96q0 -49 -47 -101t-54 -65q-7 -12 -13 -45h-58q9 54 59 116t50 95zM508 41q178 0 287 133q79 98 116 305l88 504q16 82 17 156q0 131 -77 207t-210 75q-174 0 -287 -133q-80 -98 -114 -305l-90 -504
q-16 -102 -17 -153q0 -133 77 -209t210 -76zM1264 1479h61q4 -111 -49 -182t-199 -152q0 -70 -16 -164l-92 -524q-23 -131 -55 -206t-91 -138q-127 -129 -302 -129t-268 88t-93 243q0 68 16 166l94 525q23 132 55 206t91 138q123 129 315 129q145 0 235 -72t109 -203
q186 93 189 246v29z" />
    <glyph glyph-name="uni1EDF" unicode="&#x1edf;" horiz-adv-x="960" 
d="M678 1389q0 49 -68 49q-37 0 -84 -19l-10 43q53 23 100 23q125 0 125 -96q0 -49 -47 -101t-54 -64q-7 -13 -11 -46h-60q8 39 16 54q7 14 50 68t43 89zM768 745q0 217 -221 218q-131 0 -207 -83t-107 -257l-43 -242q-12 -70 -12 -121q0 -219 221 -219q131 0 207 83
t107 257l43 242q12 68 12 122zM1057 1020v-29q0 -178 -230 -301q-2 -10 -5 -38t-7 -46l-41 -233q-37 -203 -127 -296q-91 -93 -239 -93q-294 0 -291 268q0 66 14 145l41 234q35 199 126 294t249 95q279 0 282 -268q168 100 168 237q0 17 -4 31h64z" />
    <glyph glyph-name="uni1EE0" unicode="&#x1ee0;" horiz-adv-x="1187" 
d="M907 1720q49 0 97 119h47q-35 -92 -69 -130t-88 -38t-106 68q-52 67 -83 67q-30 0 -49 -24t-50 -94h-47q37 92 71 130t86 38t107 -68t84 -68zM508 41q178 0 287 133q79 98 116 305l88 504q16 82 17 156q0 131 -77 207t-210 75q-174 0 -287 -133q-80 -98 -114 -305
l-90 -504q-16 -102 -17 -153q0 -133 77 -209t210 -76zM1264 1479h61q4 -111 -49 -182t-199 -152q0 -70 -16 -164l-92 -524q-23 -131 -55 -206t-91 -138q-127 -129 -302 -129t-268 88t-93 243q0 68 16 166l94 525q23 132 55 206t91 138q123 129 315 129q145 0 235 -72
t109 -203q186 93 189 246v29z" />
    <glyph glyph-name="uni1EE1" unicode="&#x1ee1;" horiz-adv-x="960" 
d="M522 1413q53 0 107 -67q51 -68 84 -68q51 0 98 119h47q-37 -92 -71 -130q-35 -38 -87 -38q-52 -1 -106 67t-86 68q-47 0 -96 -119h-47q37 92 70 130q34 38 87 38zM768 745q0 217 -221 218q-131 0 -207 -83t-107 -257l-43 -242q-12 -70 -12 -121q0 -219 221 -219
q131 0 207 83t107 257l43 242q12 68 12 122zM1057 1020v-29q0 -178 -230 -301q-2 -10 -5 -38t-7 -46l-41 -233q-37 -203 -127 -296q-91 -93 -239 -93q-294 0 -291 268q0 66 14 145l41 234q35 199 126 294t249 95q279 0 282 -268q168 100 168 237q0 17 -4 31h64z" />
    <glyph glyph-name="uni1EE2" unicode="&#x1ee2;" horiz-adv-x="1187" 
d="M420 -367l29 168h61l-29 -168h-61zM508 41q178 0 287 133q79 98 116 305l88 504q16 82 17 156q0 131 -77 207t-210 75q-174 0 -287 -133q-80 -98 -114 -305l-90 -504q-16 -102 -17 -153q0 -133 77 -209t210 -76zM1264 1479h61q4 -111 -49 -182t-199 -152q0 -70 -16 -164
l-92 -524q-23 -131 -55 -206t-91 -138q-127 -129 -302 -129t-268 88t-93 243q0 68 16 166l94 525q23 132 55 206t91 138q123 129 315 129q145 0 235 -72t109 -203q186 93 189 246v29z" />
    <glyph glyph-name="uni1EE3" unicode="&#x1ee3;" horiz-adv-x="960" 
d="M283 -367l30 168h62l-31 -168h-61zM768 745q0 217 -221 218q-131 0 -207 -83t-107 -257l-43 -242q-12 -70 -12 -121q0 -219 221 -219q131 0 207 83t107 257l43 242q12 68 12 122zM1057 1020v-29q0 -178 -230 -301q-2 -10 -5 -38t-7 -46l-41 -233q-37 -203 -127 -296
q-91 -93 -239 -93q-294 0 -291 268q0 66 14 145l41 234q35 199 126 294t249 95q279 0 282 -268q168 100 168 237q0 17 -4 31h64z" />
    <glyph glyph-name="uni1EE4" unicode="&#x1ee4;" horiz-adv-x="1181" 
d="M406 -367l30 168h62l-31 -168h-61zM242 291q0 -121 71 -185q72 -63 205 -63q193 0 303 150q55 80 88 256l178 1013h62l-180 -1026q-23 -126 -49 -190t-72 -119q-127 -141 -328 -141q-162 0 -251 76t-89 217q0 72 21 182l176 1001h61l-178 -1013q-18 -111 -18 -158z" />
    <glyph glyph-name="uni1EE5" unicode="&#x1ee5;" horiz-adv-x="942" 
d="M305 -367l31 168h61l-30 -168h-62zM195 238q0 -197 178 -197q129 0 205 100t114 322l96 541h62l-178 -1004h-51l18 141q-94 -158 -268 -157q-113 0 -175 61t-62 149t20 205l106 605h62l-109 -615q-18 -106 -18 -151z" />
    <glyph glyph-name="uni1EE6" unicode="&#x1ee6;" horiz-adv-x="1181" 
d="M858 1821q0 49 -67 49q-33 0 -86 -19l-9 43q49 23 101 23q125 0 125 -96q0 -49 -48 -101t-54 -65q-7 -12 -13 -45h-57q10 54 59 116t49 95zM242 291q0 -121 71 -185q72 -63 205 -63q193 0 303 150q55 80 88 256l178 1013h62l-180 -1026q-23 -126 -49 -190t-72 -119
q-127 -141 -328 -141q-162 0 -251 76t-89 217q0 72 21 182l176 1001h61l-178 -1013q-18 -111 -18 -158z" />
    <glyph glyph-name="uni1EE7" unicode="&#x1ee7;" horiz-adv-x="942" 
d="M600 1438q-37 0 -86 -19l-8 43q53 23 100 23q123 0 123 -96q0 -49 -45 -99q-46 -50 -54 -65q-8 -14 -14 -47h-57q8 41 15 56q7 14 49 68t43 87q0 49 -66 49zM195 238q0 -197 178 -197q129 0 205 100t114 322l96 541h62l-178 -1004h-51l18 141q-94 -158 -268 -157
q-113 0 -175 61t-62 149t20 205l106 605h62l-109 -615q-18 -106 -18 -151z" />
    <glyph glyph-name="uni1EE8" unicode="&#x1ee8;" horiz-adv-x="1220" 
d="M793 1638l163 267h88l-202 -267h-49zM242 291q0 -121 71 -185q72 -63 205 -63q193 0 303 150q55 80 88 256l178 1013h62l-51 -293q104 55 151 97q90 78 90 184q0 14 -2 29h62v-17q2 -116 -69 -196t-245 -160l-116 -670q-23 -126 -49 -190t-72 -119q-127 -141 -328 -141
q-162 0 -251 76t-89 217q0 72 21 182l176 1001h61l-178 -1013q-18 -111 -18 -158z" />
    <glyph glyph-name="uni1EE9" unicode="&#x1ee9;" horiz-adv-x="972" 
d="M561 1196l162 266h88l-203 -266h-47zM195 238q0 -197 178 -197q129 0 205 100t114 322l96 541h62l-53 -293q96 47 151 92q94 82 94 186q0 16 -4 31h62q2 -12 2 -31q0 -106 -69 -181t-247 -163l-114 -645h-51l18 141q-94 -158 -268 -157q-113 0 -175 61t-62 149t20 205
l106 605h62l-109 -615q-18 -106 -18 -151z" />
    <glyph glyph-name="uni1EEA" unicode="&#x1eea;" horiz-adv-x="1220" 
d="M862 1638h-47l-113 267h82zM242 291q0 -121 71 -185q72 -63 205 -63q193 0 303 150q55 80 88 256l178 1013h62l-51 -293q104 55 151 97q90 78 90 184q0 14 -2 29h62v-17q2 -116 -69 -196t-245 -160l-116 -670q-23 -126 -49 -190t-72 -119q-127 -141 -328 -141
q-162 0 -251 76t-89 217q0 72 21 182l176 1001h61l-178 -1013q-18 -111 -18 -158z" />
    <glyph glyph-name="uni1EEB" unicode="&#x1eeb;" horiz-adv-x="972" 
d="M651 1196h-47l-112 266h81zM195 238q0 -197 178 -197q129 0 205 100t114 322l96 541h62l-53 -293q96 47 151 92q94 82 94 186q0 16 -4 31h62q2 -12 2 -31q0 -106 -69 -181t-247 -163l-114 -645h-51l18 141q-94 -158 -268 -157q-113 0 -175 61t-62 149t20 205l106 605h62
l-109 -615q-18 -106 -18 -151z" />
    <glyph glyph-name="uni1EEC" unicode="&#x1eec;" horiz-adv-x="1220" 
d="M811 1870q-35 0 -84 -19l-8 43q49 23 100 23q123 0 123 -96q0 -51 -46 -103t-54 -63q-8 -12 -13 -45h-57q8 41 15 56q7 14 49 68t43 87q0 49 -68 49zM242 291q0 -121 71 -185q72 -63 205 -63q193 0 303 150q55 80 88 256l178 1013h62l-51 -293q104 55 151 97
q90 78 90 184q0 14 -2 29h62v-17q2 -116 -69 -196t-245 -160l-116 -670q-23 -126 -49 -190t-72 -119q-127 -141 -328 -141q-162 0 -251 76t-89 217q0 72 21 182l176 1001h61l-178 -1013q-18 -111 -18 -158z" />
    <glyph glyph-name="uni1EED" unicode="&#x1eed;" horiz-adv-x="972" 
d="M682 1389q0 49 -66 49q-37 0 -86 -19l-8 43q53 23 101 23q123 0 122 -96q0 -49 -46 -101t-53 -64q-7 -13 -13 -46h-58q8 39 16 54q7 14 49 68t42 89zM195 238q0 -197 178 -197q129 0 205 100t114 322l96 541h62l-53 -293q96 47 151 92q94 82 94 186q0 16 -4 31h62
q2 -12 2 -31q0 -106 -69 -181t-247 -163l-114 -645h-51l18 141q-94 -158 -268 -157q-113 0 -175 61t-62 149t20 205l106 605h62l-109 -615q-18 -106 -18 -151z" />
    <glyph glyph-name="uni1EEE" unicode="&#x1eee;" horiz-adv-x="1220" 
d="M930 1720q51 0 98 119h47q-37 -92 -71 -130t-86 -38q-53 0 -107 68q-33 41 -49 54t-39 13t-43 -25t-51 -93h-47q37 92 70 130q34 38 87 38t107 -68t84 -68zM242 291q0 -121 71 -185q72 -63 205 -63q193 0 303 150q55 80 88 256l178 1013h62l-51 -293q104 55 151 97
q90 78 90 184q0 14 -2 29h62v-17q2 -116 -69 -196t-245 -160l-116 -670q-23 -126 -49 -190t-72 -119q-127 -141 -328 -141q-162 0 -251 76t-89 217q0 72 21 182l176 1001h61l-178 -1013q-18 -111 -18 -158z" />
    <glyph glyph-name="uni1EEF" unicode="&#x1eef;" horiz-adv-x="972" 
d="M534 1413q53 0 107 -67q51 -68 84 -68q51 0 98 119h47q-36 -92 -70 -130t-87 -38q-53 -1 -107 67t-86 68q-47 0 -96 -119h-47q37 92 70 130q34 38 87 38zM195 238q0 -197 178 -197q129 0 205 100t114 322l96 541h62l-53 -293q96 47 151 92q94 82 94 186q0 16 -4 31h62
q2 -12 2 -31q0 -106 -69 -181t-247 -163l-114 -645h-51l18 141q-94 -158 -268 -157q-113 0 -175 61t-62 149t20 205l106 605h62l-109 -615q-18 -106 -18 -151z" />
    <glyph glyph-name="uni1EF0" unicode="&#x1ef0;" horiz-adv-x="1220" 
d="M430 -367l29 168h61l-28 -168h-62zM242 291q0 -121 71 -185q72 -63 205 -63q193 0 303 150q55 80 88 256l178 1013h62l-51 -293q104 55 151 97q90 78 90 184q0 14 -2 29h62v-17q2 -116 -69 -196t-245 -160l-116 -670q-23 -126 -49 -190t-72 -119q-127 -141 -328 -141
q-162 0 -251 76t-89 217q0 72 21 182l176 1001h61l-178 -1013q-18 -111 -18 -158z" />
    <glyph glyph-name="uni1EF1" unicode="&#x1ef1;" horiz-adv-x="972" 
d="M309 -367l29 168h61l-28 -168h-62zM195 238q0 -197 178 -197q129 0 205 100t114 322l96 541h62l-53 -293q96 47 151 92q94 82 94 186q0 16 -4 31h62q2 -12 2 -31q0 -106 -69 -181t-247 -163l-114 -645h-51l18 141q-94 -158 -268 -157q-113 0 -175 61t-62 149t20 205
l106 605h62l-109 -615q-18 -106 -18 -151z" />
    <glyph glyph-name="Ygrave" unicode="&#x1ef2;" horiz-adv-x="901" 
d="M711 1638h-47l-113 267h82zM332 0l96 545l-223 917h61l203 -835l498 835h67l-545 -917l-96 -545h-61z" />
    <glyph glyph-name="ygrave" unicode="&#x1ef3;" horiz-adv-x="806" 
d="M588 1196h-47l-113 266h82zM293 -18l-143 1022h57l131 -941l422 941h63l-571 -1254q-64 -131 -122 -175t-175 -46l10 57q90 2 134 36t96 140z" />
    <glyph glyph-name="uni1EF4" unicode="&#x1ef4;" horiz-adv-x="901" 
d="M264 -367l31 168h61l-30 -168h-62zM332 0l96 545l-223 917h61l203 -835l498 835h67l-545 -917l-96 -545h-61z" />
    <glyph glyph-name="uni1EF5" unicode="&#x1ef5;" horiz-adv-x="806" 
d="M436 -367l31 168h61l-30 -168h-62zM293 -18l-143 1022h57l131 -941l422 941h63l-571 -1254q-64 -131 -122 -175t-175 -46l10 57q90 2 134 36t96 140z" />
    <glyph glyph-name="uni1EF6" unicode="&#x1ef6;" horiz-adv-x="901" 
d="M702 1821q0 49 -67 49q-35 0 -84 -19l-8 43q47 23 98 23q125 0 125 -96q0 -53 -61 -117q-31 -35 -39 -47t-13 -47h-59q8 41 15 56q7 14 50 68t43 87zM332 0l96 545l-223 917h61l203 -835l498 835h67l-545 -917l-96 -545h-61z" />
    <glyph glyph-name="uni1EF7" unicode="&#x1ef7;" horiz-adv-x="806" 
d="M520 1438q-37 0 -86 -19l-8 43q49 23 100 23q125 0 125 -96q0 -49 -47 -101t-54 -64q-7 -13 -13 -46h-58q8 41 16 56q7 14 49 68t44 87q0 49 -68 49zM293 -18l-143 1022h57l131 -941l422 941h63l-571 -1254q-64 -131 -122 -175t-175 -46l10 57q90 2 134 36t96 140z" />
    <glyph glyph-name="uni1EF8" unicode="&#x1ef8;" horiz-adv-x="901" 
d="M754 1720q49 0 98 119h47q-37 -92 -71 -130t-86 -38t-108 68q-54 67 -83 67t-48 -24t-50 -94h-47q37 92 70 130q34 38 87 38t107 -68t84 -68zM332 0l96 545l-223 917h61l203 -835l498 835h67l-545 -917l-96 -545h-61z" />
    <glyph glyph-name="uni1EF9" unicode="&#x1ef9;" horiz-adv-x="806" 
d="M446 1413q53 0 107 -67q51 -68 84 -68q51 0 98 119h47q-36 -92 -70 -130t-87 -38t-97 54q-44 53 -59 67q-16 14 -37 14q-47 0 -96 -119h-47q37 92 70 130q34 38 87 38zM293 -18l-143 1022h57l131 -941l422 941h63l-571 -1254q-64 -131 -122 -175t-175 -46l10 57
q90 2 134 36t96 140z" />
    <glyph glyph-name="uni2002" unicode="&#x2002;" 
 />
    <glyph glyph-name="uni2003" unicode="&#x2003;" horiz-adv-x="2048" 
 />
    <glyph glyph-name="uni2004" unicode="&#x2004;" horiz-adv-x="681" 
 />
    <glyph glyph-name="uni2005" unicode="&#x2005;" horiz-adv-x="512" 
 />
    <glyph glyph-name="uni2006" unicode="&#x2006;" horiz-adv-x="342" 
 />
    <glyph glyph-name="uni2007" unicode="&#x2007;" horiz-adv-x="993" 
 />
    <glyph glyph-name="uni2008" unicode="&#x2008;" horiz-adv-x="0" 
 />
    <glyph glyph-name="uni2009" unicode="&#x2009;" horiz-adv-x="409" 
 />
    <glyph glyph-name="uni200A" unicode="&#x200a;" horiz-adv-x="256" 
 />
    <glyph glyph-name="uni2011" unicode="&#x2011;" horiz-adv-x="811" 
d="M233 731l11 57h426l-11 -57h-426z" />
    <glyph glyph-name="figuredash" unicode="&#x2012;" horiz-adv-x="993" 
d="M215 731l10 57h643l-10 -57h-643z" />
    <glyph glyph-name="endash" unicode="&#x2013;" horiz-adv-x="993" 
d="M215 731l10 57h643l-10 -57h-643z" />
    <glyph glyph-name="emdash" unicode="&#x2014;" horiz-adv-x="993" 
d="M102 731l11 57h868l-10 -57h-869z" />
    <glyph glyph-name="afii00208" unicode="&#x2015;" horiz-adv-x="993" 
d="M102 731l11 57h868l-10 -57h-869z" />
    <glyph glyph-name="underscoredbl" unicode="&#x2017;" horiz-adv-x="786" 
d="M-174 -258l10 57h869l-11 -57h-868zM-199 -395l11 57h868l-10 -57h-869z" />
    <glyph glyph-name="quoteleft" unicode="&#x2018;" horiz-adv-x="264" 
d="M369 1462l-144 -444h-67l164 444h47z" />
    <glyph glyph-name="quoteright" unicode="&#x2019;" horiz-adv-x="264" 
d="M158 1018l143 444h68l-164 -444h-47z" />
    <glyph glyph-name="quotesinglbase" unicode="&#x201a;" horiz-adv-x="264" 
d="M-76 -303l144 444h67l-164 -444h-47z" />
    <glyph glyph-name="quotedblleft" unicode="&#x201c;" horiz-adv-x="526" 
d="M369 1462l-144 -444h-67l164 444h47zM633 1462l-144 -444h-69l166 444h47z" />
    <glyph glyph-name="quotedblright" unicode="&#x201d;" horiz-adv-x="526" 
d="M420 1018l145 444h68l-166 -444h-47zM158 1018l143 444h68l-164 -444h-47z" />
    <glyph glyph-name="quotedblbase" unicode="&#x201e;" horiz-adv-x="526" 
d="M186 -303l146 444h67l-166 -444h-47zM-76 -303l144 444h67l-164 -444h-47z" />
    <glyph glyph-name="dagger" unicode="&#x2020;" horiz-adv-x="993" 
d="M541 922h-318l10 57h318l86 483h61l-86 -483h318l-10 -57h-318l-221 -1256h-62z" />
    <glyph glyph-name="daggerdbl" unicode="&#x2021;" horiz-adv-x="993" 
d="M541 922h-318l10 57h318l84 483h61l-84 -483h318l-10 -57h-318l-72 -400h297l-10 -57h-297l-139 -799h-62l140 799h-297l10 57h297z" />
    <glyph glyph-name="bullet" unicode="&#x2022;" horiz-adv-x="993" 
d="M498 1065q133 0 224 -87t91 -218t-91 -218t-226 -87t-226 88q-90 88 -90 218t92 217q93 87 226 87z" />
    <glyph glyph-name="ellipsis" unicode="&#x2026;" horiz-adv-x="1370" 
d="M1024 0l25 141h61l-25 -141h-61zM567 0l25 141h61l-24 -141h-62zM111 0l24 141h62l-25 -141h-61z" />
    <glyph glyph-name="perthousand" unicode="&#x2030;" horiz-adv-x="1955" 
d="M387 0l631 1462h59l-628 -1462h-62zM1683 729q-84 0 -129 -53t-67 -174l-41 -232q-8 -41 -8 -84q0 -143 141 -143q82 0 128 53t69 174l36 215q12 63 13 103q0 141 -142 141zM1680 784q102 0 154 -48t52 -136q0 -29 -10 -100l-43 -242q-49 -270 -251 -270q-102 0 -152 48
q-51 48 -52 136q1 37 13 111l41 237q25 136 86 200q60 64 162 64zM1249 588q0 141 -141 141q-84 0 -130 -53t-67 -174l-41 -232q-8 -66 -8 -84q0 -143 142 -143q82 0 128 53q45 53 68 174l37 215q12 61 12 103zM1104 784q102 0 154 -48t53 -136q0 -35 -11 -100l-43 -242
q-49 -270 -251 -270q-102 0 -152 48q-51 48 -51 136q0 50 12 111l41 237q25 136 86 200q60 64 162 64zM600 1280q0 141 -141 141q-84 0 -130 -53t-67 -174l-39 -229q-10 -47 -10 -84q0 -143 141 -144q82 -1 128 53t69 175l39 213q10 68 10 102zM154 866q0 39 12 109l41 237
q25 136 86 200t163 64t153 -48q52 -48 53 -136q0 -41 -11 -98l-43 -244q-48 -268 -250 -268q-102 0 -153 48t-51 136z" />
    <glyph glyph-name="guilsinglleft" unicode="&#x2039;" horiz-adv-x="382" 
d="M172 600l113 -252l-39 -22l-148 278l246 281l31 -31z" />
    <glyph glyph-name="guilsinglright" unicode="&#x203a;" horiz-adv-x="382" 
d="M246 606l-111 256l39 23l148 -281l-246 -278l-31 30z" />
    <glyph glyph-name="uni203E" unicode="&#x203e;" horiz-adv-x="786" 
d="M166 1671l10 58h868l-10 -58h-868z" />
    <glyph glyph-name="fraction" unicode="&#x2044;" horiz-adv-x="239" 
d="M-184 0l628 1462h62l-629 -1462h-61z" />
    <glyph glyph-name="zerosuperior" unicode="&#x2070;" horiz-adv-x="628" 
d="M641 1502q0 52 -34 86q-34 36 -97 36q-156 0 -197 -231l-57 -326q-10 -53 -10 -105t35 -90t107 -36q72 0 118 55t69 176l58 326q8 57 8 109zM700 1506q0 -74 -10 -122l-57 -333q-25 -137 -86 -203t-168 -66q-193 0 -193 189q1 43 13 104l57 334q48 269 246 269
q100 0 149 -50q49 -48 49 -122z" />
    <glyph glyph-name="foursuperior" unicode="&#x2074;" horiz-adv-x="624" 
d="M461 791l31 178h-336l6 43l385 655h63l-377 -641h269l45 262h57l-45 -262h88l-10 -59h-88l-31 -176h-57z" />
    <glyph glyph-name="fivesuperior" unicode="&#x2075;" horiz-adv-x="614" 
d="M453 1327q182 0 182 -177t-72 -272t-205 -96q-199 0 -198 168q0 16 2 31l57 10q-2 -8 -2 -16q0 -139 141 -139q100 0 159 80q58 82 58 220t-126 138q-80 0 -166 -60l-39 9l116 444h349l-9 -53h-299l-86 -322q63 35 138 35z" />
    <glyph glyph-name="sixsuperior" unicode="&#x2076;" horiz-adv-x="624" 
d="M455 1270q-103 0 -157 -88t-54 -217q0 -61 34 -95t93 -34q102 0 155 87t54 218q0 59 -34 94t-91 35zM459 1323q86 0 133 -45t47 -120q0 -76 -19 -154t-47 -121q-61 -100 -198 -101q-90 0 -139 46t-50 130q0 164 105 320l260 389h70l-240 -358q37 14 78 14z" />
    <glyph glyph-name="sevensuperior" unicode="&#x2077;" horiz-adv-x="503" 
d="M156 791l401 821h-344l8 55h410l-6 -41l-400 -835h-69z" />
    <glyph glyph-name="eightsuperior" unicode="&#x2078;" horiz-adv-x="624" 
d="M440 1223q-110 0 -162 -72t-53 -197q0 -121 144 -120q106 0 157 69q55 70 56 199q-1 121 -142 121zM637 1513q-1 111 -115 111t-158 -72t-42 -168q0 -109 124 -108q102 0 148 70q43 72 43 167zM168 948q0 251 160 305q-63 45 -64 125q0 125 55 212t191 87q88 0 136 -40
t48 -113q0 -119 -51 -203q-25 -39 -80 -68q80 -41 80 -141q0 -63 -18 -135t-45 -107q-68 -90 -209 -90q-203 0 -203 168z" />
    <glyph glyph-name="ninesuperior" unicode="&#x2079;" horiz-adv-x="624" 
d="M512 1624q-104 0 -154 -79t-49 -201q0 -122 127 -121q96 0 150 79t53 199q0 57 -34 90t-93 33zM248 1326q0 68 18 143t43 114q59 94 199 94q190 0 190 -170q0 -150 -88 -282l-286 -434h-68l258 395q-48 -16 -110 -16t-109 43q-47 45 -47 113z" />
    <glyph glyph-name="zeroinferior" unicode="&#x2080;" horiz-adv-x="628" 
d="M465 504q0 50 -34 88q-34 37 -97 37q-156 0 -197 -232l-57 -327q-10 -60 -10 -108t34 -85t97 -37q157 1 198 230l58 327q8 57 8 107zM326 682q100 0 149 -49t49 -121t-10 -123l-57 -334q-25 -137 -86 -203t-168 -65q-193 0 -193 188q1 44 13 105l57 334q25 140 86 204
q60 64 160 64z" />
    <glyph glyph-name="oneinferior" unicode="&#x2081;" horiz-adv-x="468" 
d="M98 -205l142 809l-148 -65l-22 47l194 86h45l-153 -877h-58z" />
    <glyph glyph-name="twoinferior" unicode="&#x2082;" horiz-adv-x="614" 
d="M438 504q0 125 -125 125q-67 0 -109 -38t-75 -126l-55 6q63 211 243 211t181 -172q0 -96 -46 -186t-159 -211l-244 -265h334l-10 -53h-414l8 41l285 318q186 203 186 350z" />
    <glyph glyph-name="threeinferior" unicode="&#x2083;" horiz-adv-x="614" 
d="M233 283q88 0 148 62q59 62 59 153q0 129 -128 129t-177 -148l-55 8q55 193 237 193t183 -176q0 -174 -156 -246q102 -51 102 -172t-64 -210t-206 -89q-205 0 -205 158q0 18 2 41l58 10q-2 -8 -2 -16q0 -139 145 -140q94 0 154 66q59 66 59 153t-43 129t-115 41h-82
l11 54h75z" />
    <glyph glyph-name="fourinferior" unicode="&#x2084;" horiz-adv-x="624" 
d="M285 -205l30 178h-335l6 43l385 656h63l-377 -641h269l45 262h57l-45 -262h88l-10 -60h-88l-31 -176h-57z" />
    <glyph glyph-name="fiveinferior" unicode="&#x2085;" horiz-adv-x="614" 
d="M276 332q182 0 182 -177t-71 -273q-72 -96 -205 -95q-199 0 -198 166q0 16 2 33l57 10q-2 -8 -2 -19q0 -137 141 -137q100 0 159 81q58 81 58 219t-127 139q-80 0 -166 -60l-38 8l116 445h348l-8 -54h-299l-86 -321q63 35 137 35z" />
    <glyph glyph-name="sixinferior" unicode="&#x2086;" horiz-adv-x="624" 
d="M279 274q-103 0 -157 -88t-54 -217q0 -61 34 -95t93 -34q100 0 153 87t53 218q0 59 -32 95q-33 34 -90 34zM461 164q-1 -74 -19 -153t-45 -124q-61 -100 -200 -100q-186 0 -187 176q0 164 105 320l260 389h69l-239 -359q37 15 99 15t110 -45q47 -45 47 -119z" />
    <glyph glyph-name="seveninferior" unicode="&#x2087;" horiz-adv-x="503" 
d="M-20 -205l401 821h-344l8 56h410l-6 -41l-400 -836h-69z" />
    <glyph glyph-name="eightinferior" unicode="&#x2088;" horiz-adv-x="624" 
d="M266 227q-109 1 -162 -71t-53 -195t144 -123q106 0 157 70q55 70 56 198q-1 121 -142 121zM340 629q-102 0 -148 -72t-45 -168q0 -109 125 -108q102 0 148 69q43 72 43 168q0 111 -123 111zM336 682q88 0 136 -40t48 -114q0 -117 -51 -204q-27 -39 -80 -66
q80 -41 80 -141q0 -67 -18 -137t-45 -105q-68 -90 -209 -90q-203 0 -203 168q0 61 17 130q34 138 143 175q-63 45 -64 125q0 125 55 212t191 87z" />
    <glyph glyph-name="nineinferior" unicode="&#x2089;" horiz-adv-x="624" 
d="M336 629q-106 0 -156 -79t-49 -201q0 -122 127 -122q98 0 152 79t53 200q0 57 -34 90t-93 33zM248 174q-84 0 -130 44t-46 112t18 144q18 75 43 114q59 94 199 94q190 0 190 -170q0 -150 -88 -283l-287 -434h-67l258 395q-47 -16 -90 -16z" />
    <glyph glyph-name="franc" unicode="&#x20a3;" horiz-adv-x="1245" 
d="M1151 891q76 0 135 -43l-37 -55q-51 41 -112 41q-113 0 -184 -112t-113 -357l-64 -365h-61l153 874h52l-23 -153q94 170 254 170zM88 0l258 1462h557l-10 -57h-496l-114 -647h411l-10 -58h-412l-122 -700h-62z" />
    <glyph glyph-name="lira" unicode="&#x20a4;" horiz-adv-x="983" 
d="M262 1016q0 178 106 320t310 143q150 0 226 -77t77 -224q0 -31 -6 -88l-60 -7q4 82 5 86q0 252 -244 252q-166 0 -258 -124t-92 -277q0 -68 34 -180h365l-10 -58h-336q23 -86 27 -168h278l-10 -57h-266q-4 -137 -72 -272t-178 -228h653l-10 -57h-758l8 49q125 72 209 218
t82 290h-207l10 57h195q-6 84 -35 168h-129l10 58h103q-27 100 -27 176z" />
    <glyph glyph-name="peseta" unicode="&#x20a7;" horiz-adv-x="993" 
d="M373 1008l-60 -338h183q307 -12 391 338h-514zM903 1139q0 139 -65 202q-66 63 -209 64h-187l-59 -340h514q6 43 6 74zM627 1462q176 0 258 -77t82 -242q0 -33 -6 -78h133l-11 -57h-133q-86 -406 -448 -396h-199l-108 -612h-62l178 1008h-172l11 57h172l69 397h236z" />
    <glyph glyph-name="uni20AB" unicode="&#x20ab;" horiz-adv-x="983" 
d="M156 264q0 -223 204 -223q254 0 328 399l21 123q16 102 16 158q0 242 -213 242q-242 -1 -303 -345l-41 -233q-12 -66 -12 -121zM94 256q0 66 15 143l41 230q35 201 123 296q89 95 239 95q199 0 248 -162l59 328h-266l8 57h268l37 219h62l-37 -219h139l-10 -57h-139
l-209 -1186h-54l19 147q-96 -164 -279 -163q-128 0 -196 70t-68 202zM-29 -338l11 57h718l-10 -57h-719z" />
    <glyph glyph-name="Euro" unicode="&#x20ac;" horiz-adv-x="983" 
d="M707 1479q139 0 218 -73t79 -202q0 -20 -7 -74l-59 -2q4 53 4 60q0 111 -62 172t-175 61q-156 -1 -248 -109t-133 -341l-25 -135h551l-31 -58h-530l-33 -190h461l-33 -58h-438q-25 -150 -25 -221q0 -268 240 -268q133 0 225 78t119 215l59 -2q-35 -164 -141 -256
t-260 -92q-303 0 -303 325q0 72 24 221h-164l33 58h142l32 190h-164l33 58h142l24 143q45 256 141 367q119 133 304 133z" />
    <glyph glyph-name="uni20B4" unicode="&#x20b4;" horiz-adv-x="983" 
d="M662 1419q-182 0 -271 -172l-53 17q102 213 328 213q134 0 204 -73t70 -212q0 -229 -166 -361l176 -57l-24 -55l-213 69q-68 -43 -158 -68t-117 -34l-24 -8l-15 -6l449 -144l-25 -55l-495 160q-158 -117 -158 -346q0 -244 244 -244q121 0 212 53t124 144l55 -9
q-92 -246 -395 -245q-147 0 -225 79q-77 79 -76 228q0 225 147 362l-147 47l24 56l191 -62q53 31 169 67t144 50l-426 135l22 56l469 -148q174 125 174 344t-214 219z" />
    <glyph glyph-name="uni2101" unicode="&#x2101;" horiz-adv-x="1392" 
d="M408 0l630 1462h60l-629 -1462h-61zM1006 49q100 1 166 63t65 156q-1 54 -29 82t-44 36t-104 35q-87 28 -130 75t-43 122q0 119 72 193q73 74 192 74q156 0 203 -94l-56 -35q-31 72 -139 72t-164 -76q-45 -57 -45 -131q0 -100 160 -152q113 -35 152 -76t38 -121
q0 -124 -82 -202t-214 -78q-185 0 -230 121l55 28q33 -92 177 -92zM532 846l-73 518l-254 -518h327zM541 788h-363l-100 -202h-66l439 876h49l129 -876h-60z" />
    <glyph glyph-name="afii61248" unicode="&#x2105;" horiz-adv-x="1497" 
d="M430 0l629 1462h59l-629 -1462h-59zM1380 586q0 180 -184 180q-221 0 -268 -266l-33 -187q-8 -45 -8 -88q0 -176 184 -176q221 0 268 264l33 181q8 61 8 92zM1196 823q244 0 244 -229q0 -47 -10 -105l-33 -186q-53 -311 -326 -311q-119 0 -181 58t-63 169q1 50 11 105
l32 186q55 313 326 313zM508 1475q142 0 199 -117l-56 -29q-47 88 -155 88t-172 -74t-91 -231l-22 -129q-10 -61 -10 -100q0 -184 174 -185q122 0 192 86l45 -36q-98 -106 -241 -107q-228 0 -230 231q0 51 11 117l24 139q33 178 111 262q79 84 221 85z" />
    <glyph glyph-name="afii61289" unicode="&#x2113;" horiz-adv-x="903" 
d="M690 1331q0 113 -63 113q-37 0 -63 -30q-55 -64 -106 -340q-26 -136 -63 -372q143 170 201 287q94 184 94 342zM109 386q1 12 71 72t142 142q74 484 112 630t81 208q45 62 105 63q60 0 94 -47t34 -138t-43 -219q-43 -129 -113 -233t-209 -264q-59 -360 -59 -462t69 -101
q43 0 76 33t72 114q19 39 39 39t20 -18q0 -61 -68 -143t-149 -82q-117 0 -117 147t43 395q-57 -63 -113 -113q-56 -51 -64 -51t-16 8q-7 8 -7 20z" />
    <glyph glyph-name="afii61352" unicode="&#x2116;" horiz-adv-x="1892" 
d="M1145 0l10 57h547l-10 -57h-547zM1602 1057q-207 0 -263 -297l-22 -131q-10 -61 -10 -105q0 -193 176 -192q207 0 258 297l22 131q10 57 11 104q0 193 -172 193zM1597 1114q115 0 177 -61t61 -179q0 -63 -12 -126l-23 -132q-61 -342 -319 -342q-115 0 -175 62t-61 180
q0 55 12 123l23 131q61 344 317 344zM111 0l258 1462h57l463 -1329l233 1329h62l-256 -1462h-60l-462 1329l-234 -1329h-61z" />
    <glyph glyph-name="trademark" unicode="&#x2122;" horiz-adv-x="1441" 
d="M684 586l156 876h53l147 -612l365 612h57l-153 -876h-56l127 725l-336 -559h-36l-140 559l-129 -725h-55zM283 586l143 819h-227l10 57h508l-10 -57h-226l-143 -819h-55z" />
    <glyph glyph-name="uni2126" unicode="&#x2126;" horiz-adv-x="1136" 
d="M172 414q0 98 18 207l70 385q20 128 54 204t94 140q127 129 301 129t266 -89t92 -245q0 -78 -16 -164l-68 -385q-63 -393 -344 -483l-10 -64h278l-8 -49h-332l27 154q133 36 218 154t114 310l63 365q16 88 17 154q0 133 -76 209t-209 75q-172 0 -285 -133
q-84 -100 -119 -305l-65 -365q-18 -104 -19 -178q0 -231 189 -286l-29 -154h-332l9 49h280l12 70q-90 33 -140 115t-50 180z" />
    <glyph glyph-name="estimated" unicode="&#x212e;" horiz-adv-x="1003" 
d="M809 731v297q-80 307 -301 307q-106 -1 -172 -67t-123 -236v-301h596zM213 690v-334q43 -176 111 -250t186 -73q213 0 309 280h47q-33 -115 -78 -178q-112 -151 -292 -151t-285 181t-105 510t109 519t295 190q125 0 217 -89t135 -251q37 -127 39 -354h-688z" />
    <glyph glyph-name="onethird" unicode="&#x2153;" horiz-adv-x="1478" 
d="M367 0l630 1462h62l-631 -1462h-61zM1077 487q87 1 147 63t60 152q0 129 -127 129t-176 -147l-57 8q55 193 237 193t182 -175t-153 -247q100 -51 100 -172t-64 -210t-206 -89q-205 0 -205 160q0 20 2 38l57 11q-2 -82 33 -119t121 -37t144 66t58 153q0 86 -42 128
q-43 42 -115 42h-82l10 53h76zM301 586l141 809l-147 -66l-23 47l195 86h45l-154 -876h-57z" />
    <glyph glyph-name="twothirds" unicode="&#x2154;" horiz-adv-x="1468" 
d="M422 0l629 1462h61l-631 -1462h-59zM920 182q0 -137 145 -137q94 0 153 66q58 66 58 153q0 86 -43 128t-115 42h-82l11 53h75q88 1 148 63t59 152q0 129 -128 129t-177 -147l-55 8q55 193 237 193t183 -176q0 -174 -154 -246q100 -51 100 -172q-1 -121 -65 -210t-205 -89
q-205 0 -205 160q0 20 2 38l58 11v-19zM463 1419q-68 0 -112 -38t-75 -126l-55 7q63 211 243 211t181 -173q0 -96 -46 -187t-159 -210l-243 -264h333l-10 -53h-414l9 41l284 317q186 203 187 350q0 125 -123 125z" />
    <glyph glyph-name="uni2155" unicode="&#x2155;" horiz-adv-x="1478" 
d="M350 0l629 1462h61l-628 -1462h-62zM1104 537q182 0 182 -179q0 -170 -68 -268t-208 -98q-197 0 -197 168q0 16 2 30l55 11v-19q0 -137 140 -137q100 0 158 80t59 219q0 139 -127 139q-80 0 -164 -59l-41 8l119 445h348l-10 -54h-297l-86 -321q63 35 135 35zM297 586
l141 809l-147 -66l-23 47l195 86h45l-154 -876h-57z" />
    <glyph glyph-name="uni2156" unicode="&#x2156;" horiz-adv-x="1468" 
d="M416 0l631 1462h59l-629 -1462h-61zM1149 537q182 0 182 -179q1 -172 -67 -269t-209 -97q-199 0 -199 168q0 16 2 30l57 11q-2 -8 -2 -19q-4 -63 34 -100t108 -37q100 0 158 81q59 81 59 219t-127 138q-76 0 -164 -59l-41 8l119 445h348l-10 -54h-297l-86 -321
q63 35 135 35zM455 1419q-68 0 -112 -38t-75 -126l-55 7q63 211 243 211t181 -173q0 -96 -46 -187t-159 -210l-244 -264h334l-10 -53h-414l8 41l285 317q186 203 187 350q0 125 -123 125z" />
    <glyph glyph-name="uni2157" unicode="&#x2157;" horiz-adv-x="1468" 
d="M418 0l631 1462h61l-631 -1462h-61zM1147 537q182 0 182 -179q1 -172 -67 -269t-209 -97q-199 0 -199 168q0 14 2 30l55 11v-19q0 -137 142 -137q100 0 158 81q59 81 59 219t-127 138q-78 0 -166 -59l-39 8l117 445h348l-10 -54h-297l-86 -321q63 35 137 35zM373 1073
q88 1 147 63t60 152q0 129 -128 129t-178 -147l-55 8q55 192 237 192t183 -175q0 -175 -156 -246q103 -51 103 -173t-65 -210t-206 -88q-205 0 -204 157q0 18 2 41l57 10q-2 -6 -2 -12q-4 -68 34 -106t122 -37q84 0 143 65q59 66 59 153t-43 129t-114 42h-82l10 53h76z" />
    <glyph glyph-name="uni2158" unicode="&#x2158;" horiz-adv-x="1478" 
d="M428 0l631 1462h59l-629 -1462h-61zM1147 537q182 0 182 -179q1 -172 -67 -269t-209 -97q-199 0 -199 168q0 16 2 30l55 11v-19q0 -137 142 -137q100 0 158 81q59 81 59 219t-127 138q-78 0 -166 -59l-39 8l117 445h348l-8 -54h-299l-86 -321q63 35 137 35zM424 586
l31 178h-336l6 43l385 655h63l-376 -641h268l45 262h57l-45 -262h88l-10 -59h-88l-31 -176h-57z" />
    <glyph glyph-name="uni2159" unicode="&#x2159;" horiz-adv-x="1488" 
d="M375 0l631 1462h61l-631 -1462h-61zM1087 479q-102 0 -156 -88t-54 -217q-1 -61 33 -95t94 -34q104 0 155 87t51 218q0 59 -32 94q-34 35 -91 35zM1090 532q86 0 133 -45t47 -120t-18 -153t-46 -122q-61 -100 -200 -100q-186 0 -187 176q0 166 105 319l260 390h67
l-237 -359q37 14 76 14zM315 586l142 809l-148 -66l-22 47l194 86h45l-153 -876h-58z" />
    <glyph glyph-name="uni215A" unicode="&#x215a;" horiz-adv-x="1478" 
d="M459 0l628 1462h62l-629 -1462h-61zM1145 479q-98 0 -154 -84q-57 -92 -57 -221q0 -61 34 -95t95 -34q100 0 153 87t54 218q0 59 -34 94t-91 35zM1149 532q86 0 133 -45t47 -120t-19 -153t-46 -122q-61 -100 -199 -100q-188 0 -188 176q0 164 104 319l260 390h70
l-240 -359q37 14 78 14zM440 1122q182 0 182 -177t-71 -272q-72 -95 -205 -95q-199 0 -199 165q0 16 3 33l57 10q-2 -8 -2 -18q0 -137 141 -137q100 0 159 81q58 81 58 219t-127 138q-80 0 -166 -59l-39 8l117 444h348l-8 -53h-299l-86 -322q63 35 137 35z" />
    <glyph glyph-name="oneeighth" unicode="&#x215b;" horiz-adv-x="1488" 
d="M332 0l629 1462h61l-629 -1462h-61zM1069 432q-109 0 -162 -72t-53 -194t143 -123q105 0 159 72t54 194q0 59 -36 91q-37 32 -105 32zM1143 834q-103 0 -147 -72t-44 -168q0 -109 125 -109q100 0 146 70q43 72 43 168q0 111 -123 111zM893 588q0 125 55 212t191 87
q88 0 136 -40t48 -114q0 -117 -51 -205q-27 -37 -80 -65q80 -41 80 -141q0 -64 -18 -136t-46 -106q-68 -90 -209 -90q-203 0 -202 168q0 145 61 235q32 45 98 70q-63 45 -63 125zM305 586l141 809l-147 -66l-23 47l195 86h45l-154 -876h-57z" />
    <glyph glyph-name="threeeighths" unicode="&#x215c;" horiz-adv-x="1478" 
d="M410 0l628 1462h62l-629 -1462h-61zM1106 432q-109 0 -162 -72t-53 -194t143 -123q106 0 160 70t53 198q0 121 -141 121zM1303 723q-1 111 -115 111t-158 -72t-43 -168q0 -109 125 -109q102 0 148 70q43 72 43 168zM930 588q0 129 55 214t191 85q88 0 136 -40t48 -114
q0 -117 -51 -205q-20 -33 -80 -65q80 -39 80 -141q-1 -64 -19 -136t-45 -106q-68 -90 -209 -90q-203 0 -202 168q0 247 159 305q-63 43 -63 125zM383 1073q88 1 147 63t60 152q0 129 -128 129t-177 -147l-56 8q55 192 237 192t183 -175q0 -175 -155 -246q102 -51 102 -173
t-64 -210t-206 -88q-205 0 -205 157q0 18 2 41l57 10q-2 -6 -2 -12q-4 -68 34 -106t122 -37q84 -1 143 65t59 153t-42 129q-43 42 -115 42h-82l10 53h76z" />
    <glyph glyph-name="fiveeighths" unicode="&#x215d;" horiz-adv-x="1478" 
d="M410 0l628 1462h62l-631 -1462h-59zM1106 432q-109 0 -162 -70t-53 -194t143 -125q106 0 160 72t53 196q-1 57 -37 89t-104 32zM1178 834q-104 0 -148 -72t-43 -168q0 -109 125 -109q100 0 145 70q43 72 43 168q1 111 -122 111zM930 588q0 125 55 212t191 87
q88 0 135 -40t47 -114q0 -117 -51 -205q-20 -35 -78 -65q80 -41 80 -141q-1 -64 -19 -136t-45 -106q-68 -90 -209 -90q-203 0 -202 168q0 150 61 235q33 43 96 70q-61 41 -61 125zM426 1122q182 0 182 -180q0 -174 -72 -269t-204 -95q-199 0 -199 165q0 16 2 33l58 10
q-2 -8 -3 -18q0 -137 142 -137q100 0 158 81t58 219t-126 138q-80 0 -166 -59l-39 8l117 444h348l-8 -53h-299l-86 -322q63 35 137 35z" />
    <glyph glyph-name="seveneighths" unicode="&#x215e;" horiz-adv-x="1488" 
d="M352 0l629 1462h61l-628 -1462h-62zM1100 432q-111 0 -164 -72t-53 -194t143 -123q109 0 162 72q53 73 53 195t-141 122zM1171 834q-104 0 -147 -72t-43 -168q0 -109 125 -109q100 0 145 70q43 72 43 168q0 111 -123 111zM924 588q0 125 55 212t190 87q87 0 135 -40
t48 -114q0 -117 -52 -205q-23 -37 -79 -65q82 -39 82 -141q1 -66 -19 -137t-47 -105q-66 -90 -207 -90q-205 0 -205 168q0 63 19 131q18 67 48 109t93 65q-61 41 -61 125zM190 586l424 821h-356l10 55h420l-6 -41l-422 -835h-70z" />
    <glyph glyph-name="arrowleft" unicode="&#x2190;" horiz-adv-x="1638" 
d="M1491 731h-1284l418 -420l-41 -41l-475 478v24l475 477l41 -41l-420 -420h1286v-57z" />
    <glyph glyph-name="arrowup" unicode="&#x2191;" horiz-adv-x="1638" 
d="M733 0v1384l-418 -417l-41 41l476 475h26l477 -475l-41 -41l-417 417v-1384h-62z" />
    <glyph glyph-name="arrowright" unicode="&#x2192;" horiz-adv-x="1638" 
d="M147 731v57h1287l-420 420l41 41l475 -477v-24l-475 -478l-41 41l420 420h-1287z" />
    <glyph glyph-name="arrowdown" unicode="&#x2193;" horiz-adv-x="1638" 
d="M733 1462h62v-1384l417 418l41 -41l-477 -475h-26l-476 475l41 41l418 -418v1384z" />
    <glyph glyph-name="arrowboth" unicode="&#x2194;" horiz-adv-x="1638" 
d="M1434 731h-1227l418 -420l-41 -41l-475 478v24l475 477l41 -41l-420 -420h1229l-420 420l41 41l475 -477v-24l-475 -478l-41 41z" />
    <glyph glyph-name="arrowupdn" unicode="&#x2195;" horiz-adv-x="1638" 
d="M735 78v1308l-420 -419l-41 41l476 475h26l477 -475l-41 -41l-419 419v-1310l419 420l41 -41l-477 -475h-26l-476 475l41 41z" />
    <glyph glyph-name="uni2196" unicode="&#x2196;" horiz-adv-x="1638" 
d="M373 582h-58v671l19 19h672v-58h-592l923 -923l-41 -41l-923 924v-592z" />
    <glyph glyph-name="uni2197" unicode="&#x2197;" horiz-adv-x="1638" 
d="M633 1214v58h672l18 -19v-671h-57v592l-926 -924l-39 41l924 923h-592z" />
    <glyph glyph-name="uni2198" unicode="&#x2198;" horiz-adv-x="1638" 
d="M1266 952h57v-671l-18 -19h-672v57h592l-924 924l39 43l926 -926v592z" />
    <glyph glyph-name="uni2199" unicode="&#x2199;" horiz-adv-x="1638" 
d="M1006 319v-57h-672l-19 19v671h58v-592l925 926l39 -43l-923 -924h592z" />
    <glyph glyph-name="partialdiff" unicode="&#x2202;" horiz-adv-x="993" 
d="M203 260q0 -219 215 -219q262 0 319 340l43 242q12 68 13 122q0 217 -215 218q-260 0 -320 -340l-43 -242q-12 -74 -12 -121zM856 821q0 -113 -18 -227l-39 -213q-69 -397 -369 -397q-290 0 -289 266q0 68 15 145l41 232q68 393 368 393q145 0 221 -78l-2 8l-2 43
q-43 362 -315 426l16 47q182 -29 278 -192q95 -164 95 -453z" />
    <glyph glyph-name="emptyset" unicode="&#x2205;" horiz-adv-x="993" 
d="M831 762q0 209 -145 328l-324 -689q68 -27 134 -26q150 1 242 109t93 278zM489 1151q-145 0 -239 -108t-94 -275q-1 -233 159 -342l326 692q-78 33 -152 33zM891 764q0 -197 -110 -320t-285 -122q-78 0 -156 28l-190 -403l-48 22l189 406q-195 123 -195 389
q0 196 110 318t286 122q90 0 172 -35l172 367l49 -20l-174 -373q180 -123 180 -379z" />
    <glyph glyph-name="Delta" unicode="&#x2206;" horiz-adv-x="993" 
d="M805 57l-154 1299l-610 -1299h764zM879 0h-934l698 1462h53z" />
    <glyph glyph-name="product" unicode="&#x220f;" horiz-adv-x="993" 
d="M-27 -424l332 1886h723l-332 -1886h-63l323 1829h-598l-323 -1829h-62z" />
    <glyph glyph-name="summation" unicode="&#x2211;" horiz-adv-x="993" 
d="M-4 -424l4 23l543 991l-205 842l6 30h735l-10 -57h-657l198 -817l-520 -955h682l-10 -57h-766z" />
    <glyph glyph-name="minus" unicode="&#x2212;" horiz-adv-x="993" 
d="M133 731l10 57h809l-10 -57h-809z" />
    <glyph glyph-name="uni2215" unicode="&#x2215;" horiz-adv-x="239" 
d="M-184 0l628 1462h62l-629 -1462h-61z" />
    <glyph glyph-name="uni2218" unicode="&#x2218;" horiz-adv-x="993" 
d="M498 1008q-111 0 -186 -71q-74 -71 -74 -177t74 -178q74 -70 185 -70t185 71t74 177t-74 177t-184 71zM498 1065q133 0 224 -87t91 -218t-91 -218t-226 -87t-226 88q-90 88 -90 218t92 217q93 87 226 87z" />
    <glyph glyph-name="uni2219" unicode="&#x2219;" horiz-adv-x="454" 
d="M231 690l25 139h61l-24 -139h-62z" />
    <glyph glyph-name="radical" unicode="&#x221a;" horiz-adv-x="993" 
d="M330 0l-62 649h-139l8 58h187l47 -631l659 1653h371l-10 -58h-326l-670 -1671h-65z" />
    <glyph glyph-name="infinity" unicode="&#x221e;" horiz-adv-x="1282" 
d="M914 541q92 0 148 62q56 63 56 161t-56 160t-145 63q-89 0 -153 -76t-82 -127l-8 -20l8 -23q25 -61 78 -120q62 -80 154 -80zM366 987q-88 0 -146 -62q-56 -63 -56 -161t56 -160t146 -63q90 0 156 80q53 59 78 120l8 23l-8 20q-23 61 -78 123q-68 80 -156 80zM104 764
q0 125 70 201q70 75 173 75t170 -52t124 -173q57 119 124 172t171 53t172 -76q70 -76 70 -200q0 -125 -70 -201t-173 -76q-103 1 -170 53t-124 171q-57 -119 -124 -171t-171 -52t-172 75q-70 76 -70 201z" />
    <glyph glyph-name="integral" unicode="&#x222b;" horiz-adv-x="954" 
d="M512 82v1251q0 157 44 221t151 64q37 0 69 -8l-10 -58q-33 8 -57 9q-72 -1 -102 -51t-29 -173v-1259q0 -156 -44 -220t-151 -65q-37 0 -70 8l11 58q33 -8 59 -9q73 0 101 52t28 180z" />
    <glyph glyph-name="similar" unicode="&#x223c;" horiz-adv-x="993" 
d="M710 643q-64 0 -95 17q-32 18 -87 72t-84 70t-63 17q-98 0 -178 -160l-47 15q53 110 106 156q54 46 114 46t99 -18q39 -20 93 -74t81 -68q27 -15 64 -16q90 0 168 156l47 -14q-54 -111 -104 -155t-114 -44z" />
    <glyph glyph-name="uni2243" unicode="&#x2243;" horiz-adv-x="993" 
d="M402 1012q62 0 99 -20q38 -20 91 -72q53 -54 82 -70t63 -16q90 0 168 157l47 -14q-51 -113 -102 -157q-50 -44 -114 -44t-96 18t-87 72q-55 56 -84 72t-63 16q-99 1 -177 -161l-49 14q96 205 222 205zM131 606l10 58h770l-10 -58h-770z" />
    <glyph glyph-name="approxequal" unicode="&#x2248;" horiz-adv-x="993" 
d="M402 1012q62 0 99 -20q38 -20 92 -74t81 -69t63 -15q90 0 168 157l47 -14q-51 -113 -102 -157q-50 -44 -114 -44t-96 18t-87 72q-55 56 -84 72t-63 16q-99 1 -179 -161l-47 14q96 205 222 205zM354 743q62 0 100 -20q38 -19 92 -73t81 -69t63 -16q90 0 168 158l47 -14
q-51 -113 -102 -157t-115 -44t-95 17q-32 17 -87 73t-84 72t-64 16q-96 0 -178 -160l-47 13q53 111 107 157q52 46 114 47z" />
    <glyph glyph-name="notequal" unicode="&#x2260;" horiz-adv-x="993" 
d="M131 606l10 58h318l110 192h-395l10 57h416l143 261l50 -19l-134 -242h297l-10 -57h-317l-111 -192h393l-10 -58h-416l-143 -260l-47 19l131 241h-295z" />
    <glyph glyph-name="lessequal" unicode="&#x2264;" horiz-adv-x="993" 
d="M39 76l10 57h703l-11 -57h-702zM219 756l580 -359l-11 -63l-649 409l6 33l793 410l-12 -72z" />
    <glyph glyph-name="greaterequal" unicode="&#x2265;" horiz-adv-x="993" 
d="M102 76l11 57h702l-10 -57h-703zM866 764l-579 358l12 64l647 -410l-4 -33l-795 -409l13 72z" />
    <glyph glyph-name="dotmath" unicode="&#x22c5;" horiz-adv-x="454" 
d="M231 690l25 139h61l-24 -139h-62z" />
    <glyph glyph-name="filledrect" unicode="&#x25ac;" horiz-adv-x="993" 
d="M203 467v586h585v-586h-585z" />
    <glyph glyph-name="uni25B4" unicode="&#x25b4;" horiz-adv-x="993" 
d="M143 457l353 704l352 -704h-705z" />
    <glyph glyph-name="uni25B8" unicode="&#x25b8;" horiz-adv-x="993" 
d="M203 408v704l704 -352z" />
    <glyph glyph-name="uni25BE" unicode="&#x25be;" horiz-adv-x="993" 
d="M143 1061h705l-352 -705z" />
    <glyph glyph-name="uni25C2" unicode="&#x25c2;" horiz-adv-x="993" 
d="M791 408l-705 352l705 352v-704z" />
    <glyph glyph-name="lozenge" unicode="&#x25ca;" horiz-adv-x="993" 
d="M129 705l367 -646l368 646l-368 643zM66 705l430 755l432 -755l-432 -756z" />
    <glyph glyph-name="openbullet" unicode="&#x25e6;" horiz-adv-x="993" 
d="M498 1008q-111 0 -186 -71q-74 -71 -74 -177t74 -178q74 -70 185 -70t185 71t74 177t-74 177t-184 71zM498 1065q133 0 224 -87t91 -218t-91 -218t-226 -87t-226 88q-90 88 -90 218t92 217q93 87 226 87z" />
    <glyph glyph-name="commaaccent" unicode="&#xf6c3;" 
d="M268 -422l140 266h75l-168 -266h-47z" />
    <glyph glyph-name="Acute" unicode="&#xf6c9;" 
d="M659 1638l164 267h88l-202 -267h-50z" />
    <glyph glyph-name="Caron" unicode="&#xf6ca;" 
d="M723 1718l160 172h88l-242 -237h-27l-157 237h80z" />
    <glyph glyph-name="Dieresis" unicode="&#xf6cb;" 
d="M846 1661l28 168h60l-29 -168h-59zM528 1661l29 168h61l-30 -168h-60z" />
    <glyph glyph-name="Grave" unicode="&#xf6ce;" 
d="M772 1638h-47l-113 267h82z" />
    <glyph glyph-name="Hungarumlaut" unicode="&#xf6cf;" 
d="M772 1638l141 267h76l-170 -267h-47zM594 1638l141 267h76l-170 -267h-47z" />
    <glyph glyph-name="Macron" unicode="&#xf6d0;" 
d="M553 1743l8 49h359l-9 -49h-358z" />
    <glyph glyph-name="zerooldstyle" unicode="&#xf730;" horiz-adv-x="929" 
d="M766 815q0 209 -217 209q-129 0 -200 -77t-101 -251l-58 -323q-14 -78 -14 -127q0 -205 217 -205q129 0 200 78q70 78 101 252l58 323q14 84 14 121zM549 1081q129 1 204 -69t74 -189q0 -55 -14 -135l-61 -346q-63 -358 -359 -358q-127 0 -203 68t-75 188q0 53 16 139
l59 344q63 358 359 358z" />
    <glyph glyph-name="oneoldstyle" unicode="&#xf731;" horiz-adv-x="569" 
d="M180 0l176 995l-250 -118l-20 49l295 139h49l-188 -1065h-62z" />
    <glyph glyph-name="twooldstyle" unicode="&#xf732;" horiz-adv-x="796" 
d="M651 846q0 178 -198 178q-109 0 -177 -54t-110 -177l-53 12q74 276 340 276q127 0 195 -61t67 -177q1 -116 -63 -215t-236 -251l-357 -320h539l-10 -57h-623l8 45l410 373q152 139 210 232t58 196z" />
    <glyph glyph-name="threeoldstyle" unicode="&#xf733;" horiz-adv-x="849" 
d="M356 449q135 0 231 108q95 109 95 264q0 95 -51 149t-146 54q-186 0 -256 -188l-55 14q35 111 118 171q82 60 200 60q118 1 186 -67t68 -202t-73 -241q-73 -106 -202 -149q199 -57 199 -283q0 -176 -92 -307q-117 -162 -331 -162t-274 127q-14 35 -16 117l57 12v-14
q0 -27 16 -68t31 -59q51 -57 181 -57q195 0 295 159q69 113 69 239t-70 196q-71 70 -186 69h-125l11 58h120z" />
    <glyph glyph-name="fouroldstyle" unicode="&#xf734;" horiz-adv-x="833" 
d="M442 -315l56 315h-543l8 43l604 1022h66l-596 -1008h471l96 541h62l-97 -541h144l-11 -59h-143l-55 -313h-62z" />
    <glyph glyph-name="fiveoldstyle" unicode="&#xf735;" horiz-adv-x="948" 
d="M460 524q132 0 203 -74t70 -214q0 -231 -100 -386q-113 -180 -336 -180q-96 0 -167 34t-99 93q-14 33 -17 117l58 12v-14q0 -27 15 -68t32 -59q51 -57 176 -57q199 0 297 178q78 135 78 325q0 236 -217 236q-121 0 -265 -98l-41 10l181 686h518l-10 -57h-465l-150 -562
q107 78 239 78z" />
    <glyph glyph-name="sixoldstyle" unicode="&#xf736;" horiz-adv-x="952" 
d="M549 819q-174 0 -260 -151q-43 -78 -71 -190t-28 -216t54 -163q54 -58 157 -58q180 0 263 160q38 71 64 187t26 215t-54 157t-151 59zM568 877q110 0 180 -72q70 -73 70 -189t-28 -239t-69 -203q-94 -190 -318 -190q-131 0 -203 72t-73 206q0 186 70 352q25 61 98 179
l414 628h69l-391 -587q71 43 181 43z" />
    <glyph glyph-name="sevenoldstyle" unicode="&#xf737;" horiz-adv-x="659" 
d="M-45 -315l639 1323h-535l11 57h602l-8 -39l-635 -1341h-74z" />
    <glyph glyph-name="eightoldstyle" unicode="&#xf738;" horiz-adv-x="976" 
d="M535 721q-186 0 -273 -119q-40 -54 -66 -156t-26 -199t63 -151t183 -55q184 0 264 125q38 56 64 158t26 195t-61 147t-174 55zM643 1380q-166 0 -231 -116q-31 -52 -53 -140t-21 -163q0 -182 201 -183q167 0 237 124t70 296q0 88 -53 135q-54 47 -150 47zM274 956
q0 92 26 194t62 159q90 129 275 129q131 0 202 -62q121 -105 38 -390q-33 -110 -80 -161q-55 -55 -125 -75q162 -47 162 -232q0 -100 -29 -212t-72 -175q-100 -147 -317 -147q-147 0 -229 68q-81 69 -81 196t39 248t99 178t153 82q-123 47 -123 200z" />
    <glyph glyph-name="nineoldstyle" unicode="&#xf739;" horiz-adv-x="952" 
d="M567 1024q-182 0 -264 -160q-39 -74 -65 -188t-25 -215q0 -99 54 -157t155 -58q170 0 256 151q43 78 71 190q68 274 -27 378q-55 59 -155 59zM398 188q-110 0 -179 72t-69 188t27 240q28 123 69 203q94 190 317 190q131 -1 204 -73t73 -205q0 -285 -170 -531l-404 -587
h-69l383 546q-72 -43 -182 -43z" />
    <glyph glyph-name="Dbreve" horiz-adv-x="1161" 
d="M592 1808q0 -111 113 -110q71 0 107 39t60 139h56q-27 -133 -75 -184t-151 -52q-168 0 -167 146q0 33 8 90h55q-6 -53 -6 -68zM1020 1130q0 147 -96 222q-70 53 -205 53h-289l-237 -1348h288q178 -4 290 106t144 318l89 500q16 94 16 149zM723 1462q166 0 250 -71
q109 -90 108 -250q0 -68 -16 -162l-92 -520q-33 -219 -160 -340t-324 -119h-368l258 1462h344z" />
    <glyph glyph-name="ahungarumlaut" horiz-adv-x="890" 
d="M627 1196l141 266h76l-170 -266h-47zM449 1196l141 266h76l-170 -266h-47zM424 500q-174 0 -245 -84t-70 -232q0 -84 55 -114t166 -29q166 0 229 84q37 45 55 158l39 217h-229zM698 795q0 168 -188 168q-88 0 -148 -42t-108 -137l-55 19q98 217 307 217q254 0 254 -217
q0 -37 -17 -144l-116 -659h-54l7 74q-44 -50 -102 -70t-180 -20q-254 0 -253 190q0 178 80 275q84 109 301 108h238l20 117q14 86 14 121z" />
    <glyph glyph-name="uni0204.sc" horiz-adv-x="798" 
d="M539 1241h-47l-76 266h76zM717 1241h-47l-76 266h76zM102 0l189 1065h518l-10 -57h-457l-78 -441h389l-10 -57h-389l-80 -453h455l-11 -57h-516z" />
    <glyph glyph-name="uni0206.sc" horiz-adv-x="798" 
d="M731 1327q0 111 -113 111q-70 0 -106 -39t-61 -139h-56q27 133 75 184t151 51q168 0 167 -145q0 -37 -10 -90h-55q8 43 8 67zM102 0l189 1065h518l-10 -57h-457l-78 -441h389l-10 -57h-389l-80 -453h455l-11 -57h-516z" />
    <glyph glyph-name="uni0208.sc" horiz-adv-x="442" 
d="M293 1241h-47l-76 266h76zM471 1241h-47l-76 266h76zM102 0l189 1065h61l-188 -1065h-62z" />
    <glyph glyph-name="uni020A.sc" horiz-adv-x="442" 
d="M385 1438q-71 0 -107 -39t-61 -139h-55q27 133 75 184t150 51q168 0 168 -145q0 -37 -10 -90h-56q8 43 9 67q0 111 -113 111zM102 0l189 1065h61l-188 -1065h-62z" />
    <glyph glyph-name="uni020C.sc" horiz-adv-x="948" 
d="M545 1241h-47l-76 266h76zM723 1241h-47l-76 266h76zM776 821q0 95 -57 149t-160 54q-135 0 -215 -98q-59 -72 -86 -224l-61 -342q-12 -78 -13 -114q0 -96 58 -150t159 -55q135 0 215 98q57 69 86 221l60 342q14 78 14 119zM548 1081q138 -1 214 -69t76 -183
q0 -51 -15 -129l-63 -360q-29 -172 -113 -260q-95 -96 -235 -96t-214 68t-75 188q0 53 14 125l64 360q16 95 41 153t71 105q97 98 235 98z" />
    <glyph glyph-name="uni020E.sc" horiz-adv-x="948" 
d="M639 1438q-70 0 -107 -39t-61 -139h-55q27 133 74 184q48 51 151 51q168 0 168 -145q0 -37 -10 -90h-56q8 43 9 67q0 111 -113 111zM776 821q0 95 -57 149t-160 54q-135 0 -215 -98q-59 -72 -86 -224l-61 -342q-12 -78 -13 -114q0 -96 58 -150t159 -55q135 0 215 98
q57 69 86 221l60 342q14 78 14 119zM548 1081q138 -1 214 -69t76 -183q0 -51 -15 -129l-63 -360q-29 -172 -113 -260q-95 -96 -235 -96t-214 68t-75 188q0 53 14 125l64 360q16 95 41 153t71 105q97 98 235 98z" />
    <glyph glyph-name="uni0210.sc" horiz-adv-x="915" 
d="M528 1241h-47l-75 266h75zM707 1241h-48l-75 266h75zM483 541q145 0 214 83t69 216q0 88 -50 128t-159 40h-213l-84 -467h223zM559 1065q270 0 270 -223q0 -143 -73 -240q-74 -96 -195 -110l127 -492h-63l-121 483h-252l-86 -483h-62l189 1065h266z" />
    <glyph glyph-name="uni0212.sc" horiz-adv-x="915" 
d="M715 1327q0 111 -113 111q-70 0 -106 -39t-62 -139h-55q27 133 75 184t150 51q168 0 168 -145q0 -37 -10 -90h-55q8 43 8 67zM483 541q145 0 214 83t69 216q0 88 -50 128t-159 40h-213l-84 -467h223zM559 1065q270 0 270 -223q0 -143 -73 -240q-74 -96 -195 -110
l127 -492h-63l-121 483h-252l-86 -483h-62l189 1065h266z" />
    <glyph glyph-name="uni0214.sc" horiz-adv-x="978" 
d="M561 1241h-47l-76 266h76zM739 1241h-47l-76 266h76zM205 201q0 -51 39 -101q51 -59 184 -59t211 104q41 53 66 183l129 737h61l-133 -750q-16 -98 -34 -143t-58 -86q-96 -102 -240 -102t-216 58q-71 58 -71 165q0 53 19 145l125 713h61l-129 -725q-14 -88 -14 -139z" />
    <glyph glyph-name="uni0216.sc" horiz-adv-x="978" 
d="M766 1327q0 111 -113 111q-71 0 -107 -39t-61 -139h-55q27 133 75 184t150 51q168 0 168 -145q0 -37 -10 -90h-55q8 43 8 67zM205 201q0 -51 39 -101q51 -59 184 -59t211 104q41 53 66 183l129 737h61l-133 -750q-16 -98 -34 -143t-58 -86q-96 -102 -240 -102t-216 58
q-71 58 -71 165q0 53 19 145l125 713h61l-129 -725q-14 -88 -14 -139z" />
    <glyph glyph-name="uni1E24.sc" horiz-adv-x="964" 
d="M297 -367l29 168h61l-29 -168h-61zM102 0l189 1065h61l-88 -498h461l88 498h61l-186 -1065h-61l88 510h-461l-90 -510h-62z" />
    <glyph glyph-name="uni1E5A.sc" horiz-adv-x="915" 
d="M272 -367l29 168h61l-28 -168h-62zM483 541q145 0 214 83t69 216q0 88 -50 128t-159 40h-213l-84 -467h223zM559 1065q270 0 270 -223q0 -143 -73 -240q-74 -96 -195 -110l127 -492h-63l-121 483h-252l-86 -483h-62l189 1065h266z" />
    </font>
</defs>
</svg>
