<?xml version="1.0" encoding="UTF-8"?>
<svg xmlns="http://www.w3.org/2000/svg" xmlns:xlink="http://www.w3.org/1999/xlink" version="1.2" >
<font id="Clarendon URW Narrow Extra Bold Oblique">
<font-face  font-family="Clarendon URW Narrow" units-per-em="1000" ascent="667" descent="-333" font-style="italic" font-weight="800" font-stretch="semi-condensed" cap-height="667" x-height="469" underline-position="-48" underline-thickness="113" />
<missing-glyph  horiz-adv-x="250" d="" />
<glyph glyph-name="NULL" d="" />
<glyph glyph-name="CR" unicode="&#xd;" horiz-adv-x="250" d="" />
<glyph glyph-name="space" unicode="&#x20;" horiz-adv-x="250" d="" />
<glyph glyph-name="exclam" unicode="&#x21;" horiz-adv-x="330" d="M217 207 C240 284 254 325 273 376 C337 541 343 559 343 600 C343 657 317 687 268 687 C230 687 195 667 173 633 C147 594 136 548 133 466 C128 321 128 314 115 207 L217 207 Z M161 166 C102 166 50 115 50 56 C50 11 77 -17 120 -17 C175 -17 228 37 228 94 C228 135 200 166 161 166 L161 166 Z " />
<glyph glyph-name="quotedbl" unicode="&#x22;" horiz-adv-x="428" d="M178 399 L264 667 L94 667 L66 399 L178 399 Z M389 399 L475 667 L305 667 L277 399 L389 399 Z " />
<glyph glyph-name="numbersign" unicode="&#x23;" horiz-adv-x="610" d="M554 299 L458 299 L488 381 L583 381 L625 498 L530 498 L591 667 L465 667 L403 498 L321 498 L384 667 L258 667 L198 498 L103 498 L61 381 L156 381 L126 299 L30 299 L-12 182 L84 182 L17 0 L141 0 L208 182 L289 182 L220 0 L350 0 L416 182 L512 182 L554 299 Z M361 381 L331 299 L251 299 L280 381 L361 381 Z " />
<glyph glyph-name="dollar" unicode="&#x24;" horiz-adv-x="613" d="M174 -112 L250 -112 L273 -3 C375 6 423 23 472 69 C517 110 544 169 544 227 C544 272 525 309 490 331 C460 350 438 358 355 380 L386 528 C425 526 435 523 459 509 C427 486 413 465 413 436 C413 404 439 382 477 382 C534 382 580 432 580 493 C580 532 561 561 524 580 C493 596 467 601 403 606 L418 677 L342 677 L326 605 C247 597 201 580 152 542 C94 498 58 432 58 369 C58 334 68 308 91 287 C115 264 147 250 245 222 L213 71 L204 71 C155 71 141 75 109 97 C149 110 170 135 170 171 C170 204 143 228 104 228 C45 228 -3 176 -3 113 C-3 71 16 41 55 22 C91 4 121 -1 197 -3 L174 -112 Z M282 396 C247 406 236 417 236 442 C236 489 263 520 310 526 L282 396 Z M317 204 C355 193 371 178 371 151 C371 132 361 110 345 95 C332 83 320 78 290 74 L317 204 Z " />
<glyph glyph-name="percent" unicode="&#x25;" horiz-adv-x="910" d="M152 -17 L243 -17 L739 623 L650 623 L152 -17 Z M271 622 C144 622 43 513 43 377 C43 294 101 240 190 240 C316 240 418 349 418 484 C418 568 360 622 271 622 L271 622 Z M255 547 C283 547 294 532 294 496 C294 459 279 391 263 358 C248 328 231 315 207 315 C179 315 168 330 168 366 C168 405 183 471 199 504 C215 534 231 547 255 547 L255 547 Z M703 365 C576 365 475 256 475 120 C475 37 533 -17 622 -17 C748 -17 850 92 850 227 C850 311 792 365 703 365 L703 365 Z M686 290 C714 290 725 275 725 239 C725 201 710 134 694 101 C679 71 662 58 638 58 C610 58 599 73 599 109 C599 148 614 214 630 247 C646 277 662 290 686 290 L686 290 Z " />
<glyph glyph-name="ampersand" unicode="&#x26;" horiz-adv-x="826" d="M688 230 C678 187 673 170 661 149 C644 118 616 98 591 98 C573 98 559 109 537 138 C576 179 594 200 612 225 C673 312 681 319 761 329 L779 415 L510 415 L491 329 C539 327 555 322 555 309 C555 289 536 262 484 212 C452 255 425 311 403 379 C461 416 497 448 514 477 C532 507 543 543 543 574 C543 646 493 687 406 687 C287 687 199 605 199 494 C199 469 203 449 215 406 C122 367 82 340 46 293 C11 249 -8 193 -8 138 C-8 32 56 -20 188 -20 C261 -20 306 -8 393 35 C442 -4 487 -20 550 -20 C627 -20 690 14 729 76 C755 118 770 159 785 230 L688 230 Z M363 473 C349 499 344 513 344 531 C344 569 369 597 404 597 C429 597 443 583 443 559 C443 522 419 495 363 473 L363 473 Z M240 301 C282 191 296 163 332 112 C299 95 282 89 262 89 C214 89 181 126 181 181 C181 226 198 261 240 301 L240 301 Z " />
<glyph glyph-name="quotesingle" unicode="&#x27;" horiz-adv-x="222" d="M183 399 L269 667 L93 667 L66 399 L183 399 Z " />
<glyph glyph-name="parenleft" unicode="&#x28;" horiz-adv-x="406" d="M460 687 C381 677 344 667 298 643 C201 593 131 507 82 376 C44 277 22 166 22 74 C22 -27 64 -120 128 -161 C164 -184 203 -194 273 -196 L291 -111 C258 -99 246 -89 237 -70 C223 -42 215 -4 215 39 C215 86 225 163 242 244 C270 375 298 457 340 522 C370 569 390 584 442 601 L460 687 Z " />
<glyph glyph-name="parenright" unicode="&#x29;" horiz-adv-x="406" d="M-94 -196 C-15 -186 22 -176 68 -153 C165 -102 235 -16 284 114 C322 214 344 325 344 416 C344 518 302 611 238 652 C202 675 163 684 93 687 L75 602 C108 589 119 580 129 561 C143 533 151 495 151 451 C151 405 141 328 123 246 C96 115 68 34 26 -32 C-4 -78 -24 -94 -76 -110 L-94 -196 Z " />
<glyph glyph-name="asterisk" unicode="&#x2a;" horiz-adv-x="486" d="M266 483 C238 508 232 516 217 553 C200 597 191 606 165 606 C130 606 95 568 95 531 C95 520 98 511 104 504 C116 491 120 490 167 488 C206 485 225 480 251 464 C217 448 200 444 160 441 C112 438 102 435 88 425 C71 412 61 392 61 371 C61 342 79 322 105 322 C131 322 141 329 179 376 C212 415 227 428 259 445 C250 414 240 395 214 355 C182 308 179 302 179 281 C179 257 196 242 224 242 C262 242 293 272 293 309 C293 319 291 329 284 353 C277 376 275 390 275 406 C275 414 276 427 278 447 C299 430 306 420 326 377 C348 326 353 321 376 321 C412 321 448 360 448 399 C448 411 445 419 438 426 C428 437 421 439 377 441 C338 443 319 449 291 465 C321 479 338 484 384 488 C435 491 439 492 455 505 C471 518 481 538 481 558 C481 586 463 607 439 607 C413 607 402 599 364 553 C332 515 316 501 284 483 C298 526 308 546 329 575 C360 618 364 626 364 644 C364 671 346 687 317 687 C280 687 250 657 250 621 C250 611 251 606 260 576 C266 555 269 538 269 521 C269 513 268 498 266 483 L266 483 Z " />
<glyph glyph-name="plus" unicode="&#x2b;" horiz-adv-x="613" d="M86 387 L57 252 L221 252 L186 87 L322 87 L357 252 L521 252 L549 387 L386 387 L421 552 L285 552 L250 387 L86 387 Z " />
<glyph glyph-name="comma" unicode="&#x2c;" horiz-adv-x="307" d="M-37 -131 C20 -123 51 -112 90 -83 C150 -39 188 26 188 83 C188 134 157 166 108 166 C49 166 -2 113 -2 53 C-2 16 20 -8 53 -8 C59 -8 67 -7 75 -6 C48 -49 32 -59 -24 -68 L-37 -131 Z " />
<glyph glyph-name="hyphen" unicode="&#x2d;" horiz-adv-x="275" d="M-38 154 L237 154 L271 312 L-5 312 L-38 154 Z " />
<glyph glyph-name="period" unicode="&#x2e;" horiz-adv-x="307" d="M120 166 C61 166 9 115 9 56 C9 11 36 -17 79 -17 C134 -17 187 37 187 94 C187 135 159 166 120 166 L120 166 Z " />
<glyph glyph-name="slash" unicode="&#x2f;" horiz-adv-x="377" d="M5 -92 L414 686 L328 686 L-81 -92 L5 -92 Z " />
<glyph glyph-name="zero" unicode="0" horiz-adv-x="613" d="M366 622 C267 622 171 574 101 489 C43 418 6 307 6 206 C6 73 96 -17 230 -17 C329 -17 423 31 493 116 C551 187 589 298 589 398 C589 532 499 622 366 622 L366 622 Z M345 525 C373 525 385 503 385 452 C385 397 362 275 335 191 C311 114 284 80 249 80 C222 80 210 101 210 151 C210 209 232 327 260 414 C284 491 310 525 345 525 L345 525 Z " />
<glyph glyph-name="one" unicode="1" horiz-adv-x="613" d="M150 439 L243 439 L181 148 C171 94 167 91 100 87 L76 87 L57 0 L432 0 L450 87 L429 87 C388 87 373 93 373 109 C373 117 373 122 375 128 L476 605 L319 605 C291 557 249 535 169 528 L150 439 Z " />
<glyph glyph-name="two" unicode="2" horiz-adv-x="613" d="M72 0 C87 21 99 29 119 29 C135 29 152 26 168 21 C282 -15 291 -17 341 -17 C407 -17 458 9 493 61 C516 94 527 126 544 213 L448 213 C435 155 420 136 391 136 C385 136 379 137 375 138 C290 160 289 160 257 160 C217 160 189 152 131 125 C159 169 175 177 315 214 C385 233 441 256 475 280 C535 325 571 390 571 456 C571 558 489 622 358 622 C268 622 190 593 129 536 C84 495 57 438 57 386 C57 338 85 311 133 311 C196 311 247 361 247 423 C247 461 231 474 185 475 C218 503 244 514 281 514 C331 514 360 492 360 452 C360 394 326 355 232 302 C57 205 -2 136 -27 0 L72 0 Z " />
<glyph glyph-name="three" unicode="3" horiz-adv-x="613" d="M245 272 C300 270 323 250 323 205 C323 175 312 144 294 121 C270 90 236 75 189 75 C152 75 136 79 106 97 C144 103 161 110 176 126 C191 142 200 167 200 192 C200 234 173 257 126 257 C55 257 -6 194 -6 119 C-6 29 72 -17 223 -17 C342 -17 432 15 486 75 C518 109 536 158 536 205 C536 264 511 295 439 325 C472 336 491 345 507 356 C549 387 575 436 575 487 C575 575 506 622 378 622 C280 622 200 598 144 551 C101 516 73 463 73 418 C73 374 100 349 148 349 C209 349 252 389 252 445 C252 477 239 490 205 493 C234 521 253 529 288 529 C340 529 369 502 369 455 C369 421 352 388 328 372 C312 363 298 359 262 355 L245 272 Z " />
<glyph glyph-name="four" unicode="4" horiz-adv-x="613" d="M457 173 L545 173 L563 257 L474 257 L548 605 L371 605 L17 279 L-6 173 L278 173 L272 148 C263 95 258 91 187 88 L162 88 L143 0 L509 0 L527 87 L505 87 C461 87 445 93 445 109 C445 116 446 122 447 128 L457 173 Z M115 257 L343 469 L296 257 L115 257 Z " />
<glyph glyph-name="five" unicode="5" horiz-adv-x="613" d="M74 307 L176 307 C208 332 225 339 252 339 C299 339 323 311 323 257 C323 158 256 71 180 71 C153 71 139 78 116 100 C145 107 157 111 168 120 C187 135 201 168 201 196 C201 237 172 262 126 262 C53 262 -1 203 -1 124 C-1 35 75 -18 203 -18 C393 -18 536 106 536 271 C536 316 522 354 492 385 C455 423 406 440 335 440 C280 440 254 434 202 409 L221 487 C278 482 304 480 332 480 C408 480 478 501 531 542 C560 564 582 594 582 612 C582 623 577 629 567 629 C561 629 553 628 546 626 C467 609 442 606 376 606 C319 606 267 609 157 618 L74 307 Z " />
<glyph glyph-name="six" unicode="6" horiz-adv-x="613" d="M246 345 C264 414 277 445 302 475 C332 513 374 536 411 536 C421 536 430 534 448 529 C414 508 401 488 401 458 C401 420 429 397 474 397 C537 397 584 443 584 505 C584 577 518 622 411 622 C301 622 198 572 132 486 C69 405 32 296 32 194 C32 55 110 -17 260 -17 C426 -17 545 88 545 236 C545 328 485 382 384 382 C338 382 307 374 246 345 L246 345 Z M309 285 C330 285 346 264 346 237 C346 202 337 141 329 116 C320 89 291 67 265 67 C241 67 225 91 225 130 C225 208 267 285 309 285 L309 285 Z " />
<glyph glyph-name="seven" unicode="7" horiz-adv-x="613" d="M320 0 C362 182 388 231 538 416 C620 520 629 537 643 605 L562 605 C557 579 546 569 523 569 C510 569 498 573 464 590 C426 608 393 617 360 617 C303 617 267 598 223 543 L236 605 L124 605 L64 324 L176 324 C188 384 190 392 197 407 C211 438 238 457 270 457 C279 457 284 456 325 447 C348 443 369 440 389 440 C419 440 439 445 476 461 C450 435 436 423 407 399 C213 251 160 176 127 0 L320 0 Z " />
<glyph glyph-name="eight" unicode="8" horiz-adv-x="613" d="M129 299 C75 275 52 260 29 234 C2 203 -13 163 -13 122 C-13 80 1 50 31 28 C71 -1 138 -17 221 -17 C419 -17 552 78 552 219 C552 281 534 308 459 354 C501 369 518 380 537 400 C562 426 576 460 576 495 C576 577 502 622 370 622 C261 622 177 590 122 528 C91 492 73 446 73 403 C73 363 86 339 129 299 L129 299 Z M326 415 C286 429 264 448 264 469 C264 506 304 534 357 534 C405 534 435 513 435 480 C435 447 419 425 375 398 L326 415 Z M289 211 C329 193 350 169 350 143 C350 95 306 65 236 65 C170 65 128 95 128 143 C128 184 152 217 207 249 L289 211 Z " />
<glyph glyph-name="nine" unicode="9" horiz-adv-x="613" d="M354 260 C336 191 323 160 299 130 C268 92 226 69 190 69 C179 69 171 70 152 75 C186 96 199 116 199 147 C199 184 171 207 126 207 C62 207 16 162 16 99 C16 27 82 -17 190 -17 C299 -17 401 33 468 119 C531 199 567 304 567 405 C567 544 486 622 341 622 C178 622 55 513 55 370 C55 277 115 223 216 223 C262 223 293 231 354 260 L354 260 Z M335 538 C360 538 375 514 375 475 C375 396 333 320 291 320 C269 320 254 341 254 373 C254 402 264 468 271 490 C281 517 309 538 335 538 L335 538 Z " />
<glyph glyph-name="colon" unicode="&#x3a;" horiz-adv-x="330" d="M209 448 C150 448 98 397 98 338 C98 294 125 265 168 265 C222 265 275 319 275 376 C275 417 247 448 209 448 L209 448 Z M148 166 C89 166 37 115 37 56 C37 12 64 -17 107 -17 C162 -17 215 37 215 94 C215 135 187 166 148 166 L148 166 Z " />
<glyph glyph-name="semicolon" unicode="&#x3b;" horiz-adv-x="330" d="M1 -131 C58 -123 89 -112 128 -83 C188 -39 226 26 226 83 C226 134 195 166 146 166 C87 166 36 113 36 53 C36 16 58 -8 91 -8 C97 -8 105 -7 113 -6 C86 -49 70 -59 14 -68 L1 -131 Z M214 448 C155 448 103 397 103 339 C103 294 130 265 173 265 C227 265 280 319 280 376 C280 417 252 448 214 448 L214 448 Z " />
<glyph glyph-name="less" unicode="&#x3c;" horiz-adv-x="475" d="M512 657 L49 415 L15 253 L375 10 L416 204 L228 333 L471 463 L512 657 Z " />
<glyph glyph-name="equal" unicode="&#x3d;" horiz-adv-x="613" d="M105 475 L78 348 L541 348 L568 475 L105 475 Z M64 284 L37 157 L501 157 L528 284 L64 284 Z " />
<glyph glyph-name="greater" unicode="&#x3e;" horiz-adv-x="475" d="M100 657 L59 463 L248 333 L4 204 L-37 10 L426 253 L461 415 L100 657 Z " />
<glyph glyph-name="question" unicode="&#x3f;" horiz-adv-x="566" d="M246 166 C187 166 136 115 136 55 C136 11 163 -17 205 -17 C260 -17 313 37 313 94 C313 135 285 166 246 166 L246 166 Z M311 209 C323 256 332 267 382 300 C450 343 486 370 515 401 C550 437 571 490 571 540 C571 633 500 687 376 687 C289 687 218 658 163 600 C120 553 94 494 94 440 C94 381 121 352 174 352 C236 352 288 404 288 466 C288 500 269 520 236 520 C227 520 211 518 195 514 C218 565 248 586 293 586 C333 586 358 561 358 520 C358 483 333 432 283 367 C214 277 210 271 201 209 L311 209 Z " />
<glyph glyph-name="at" unicode="&#x40;" horiz-adv-x="702" d="M486 493 L471 455 C460 485 428 504 388 504 C286 504 174 378 174 262 C174 192 216 144 279 144 C328 144 378 168 412 207 C414 175 440 153 474 153 C577 153 689 307 689 450 C689 590 592 682 444 682 C332 682 223 631 141 539 C65 455 22 350 22 250 C22 183 41 121 78 75 C124 15 198 -15 295 -15 C366 -15 436 -5 497 15 L495 96 C432 75 376 66 315 66 C235 66 180 89 148 136 C124 171 111 215 111 264 C111 439 264 601 431 601 C540 601 609 537 609 436 C609 385 592 331 562 284 C538 248 513 226 494 226 C485 226 479 234 479 244 C479 256 483 269 496 301 L572 493 L486 493 Z M383 408 C410 408 427 389 427 358 C427 300 373 235 325 235 C297 235 279 255 279 284 C279 344 333 408 383 408 L383 408 Z " />
<glyph glyph-name="A" unicode="A" horiz-adv-x="665" d="M254 0 L638 0 L658 94 L625 94 C582 97 579 100 573 165 L531 667 L302 667 L28 163 C0 112 -18 97 -54 94 L-79 94 L-99 0 L185 0 L205 94 L173 94 C146 94 132 100 132 110 C132 117 135 124 149 151 L183 214 L354 214 L361 143 L361 135 C361 98 356 94 303 94 L274 94 L254 0 Z M343 310 L232 310 L330 512 L343 310 Z " />
<glyph glyph-name="B" unicode="B" horiz-adv-x="708" d="M-57 0 L317 0 C445 0 514 16 562 58 C609 97 639 162 639 222 C639 255 630 280 610 302 C588 325 565 336 509 352 C570 374 597 391 626 422 C658 456 676 500 676 542 C676 578 664 609 642 628 C611 656 561 667 468 667 L85 667 L65 572 L93 572 C124 572 134 567 134 549 C134 544 133 535 128 515 L51 152 C42 102 35 95 -8 94 L-37 94 L-57 0 Z M322 392 L359 570 L396 570 C441 570 462 554 462 519 C462 491 452 454 439 433 C421 404 396 392 356 392 L322 392 Z M258 94 L303 305 L342 305 C395 305 419 285 419 240 C419 207 408 166 391 140 C371 106 346 94 298 94 L258 94 Z " />
<glyph glyph-name="C" unicode="C" horiz-adv-x="698" d="M548 258 C528 193 513 165 483 134 C449 99 407 79 366 79 C306 79 274 119 274 192 C274 249 297 365 324 447 C353 535 405 585 468 585 C519 585 549 558 560 501 C564 479 565 465 565 402 L678 402 L736 676 L633 676 L610 640 C547 678 512 687 437 687 C319 687 214 640 137 552 C62 469 16 344 16 227 C16 158 32 105 66 65 C111 11 194 -20 293 -20 C401 -20 493 15 558 81 C602 125 623 165 650 258 L548 258 Z " />
<glyph glyph-name="D" unicode="D" horiz-adv-x="764" d="M-57 0 L291 0 C444 0 537 31 616 108 C692 182 742 311 742 432 C742 504 724 554 684 595 C633 647 562 667 433 667 L85 667 L65 573 L93 573 C124 573 134 567 134 550 C134 544 132 533 128 515 L51 152 C42 101 36 95 -8 94 L-37 94 L-57 0 Z M261 97 L362 570 L411 570 C466 570 491 539 491 469 C491 411 473 317 447 235 C417 140 374 97 311 97 L261 97 Z " />
<glyph glyph-name="E" unicode="E" horiz-adv-x="736" d="M749 667 L85 667 L65 573 L93 573 C126 573 136 567 136 550 C136 544 135 538 130 515 L53 152 C44 101 37 95 -7 94 L-37 94 L-57 0 L611 0 L669 275 L565 275 C519 114 488 88 348 94 L258 94 L302 301 L327 301 C370 301 385 290 385 256 C385 244 383 224 377 191 L454 191 L519 495 L442 495 C422 410 406 393 344 389 L320 389 L359 573 L438 573 C572 577 597 553 596 419 L696 419 L749 667 Z " />
<glyph glyph-name="F" unicode="F" horiz-adv-x="679" d="M728 667 L85 667 L65 573 L93 573 C126 573 136 567 136 550 C136 544 135 538 130 515 L53 152 C44 101 37 95 -7 94 L-37 94 L-57 0 L320 0 L340 94 L306 94 C275 94 264 100 264 117 C264 122 265 129 270 152 L302 302 L326 302 C369 302 383 290 383 257 C383 245 380 224 375 191 L454 191 L519 495 L440 495 C419 409 404 392 343 389 L320 389 L359 573 L436 573 C506 573 523 570 542 557 C563 542 575 513 575 475 C575 455 573 434 567 393 L670 393 L728 667 Z " />
<glyph glyph-name="G" unicode="G" horiz-adv-x="778" d="M376 261 L396 261 C428 261 438 255 438 238 C438 232 437 225 432 203 L421 153 C416 126 409 107 403 100 C393 90 366 81 343 81 C292 81 265 119 265 188 C265 244 288 363 315 447 C344 535 395 585 455 585 C520 585 546 542 546 437 L546 402 L659 402 L717 676 L614 676 L591 640 C535 678 504 687 429 687 C315 687 214 640 135 552 C61 467 15 344 15 226 C15 156 30 104 63 63 C105 10 182 -22 266 -22 C332 -22 382 -8 464 34 L477 -7 L600 -7 L645 203 C654 254 660 260 705 261 L726 261 L746 355 L396 355 L376 261 Z " />
<glyph glyph-name="H" unicode="H" horiz-adv-x="797" d="M438 667 L88 667 L68 572 L98 572 C129 572 139 567 139 550 C139 544 137 531 134 515 L56 152 C47 101 41 95 -4 94 L-34 94 L-54 0 L297 0 L317 94 C282 94 272 99 272 117 C272 122 273 130 278 151 L310 301 L474 301 L443 151 C432 100 425 94 379 94 L359 0 L710 0 L730 94 L700 94 C668 94 658 100 658 117 C658 123 660 134 663 152 L741 515 C751 565 758 572 802 572 L832 572 L852 667 L501 667 L481 572 C516 572 525 568 525 550 C525 544 523 529 520 515 L494 395 L330 395 L355 515 C365 566 372 573 418 572 L438 667 Z " />
<glyph glyph-name="I" unicode="I" horiz-adv-x="415" d="M-52 0 L325 0 L345 94 L315 94 C283 94 273 100 273 118 C273 123 275 133 279 152 L356 515 C366 565 373 572 417 573 L446 573 L466 667 L90 667 L70 573 L99 573 C131 573 141 567 141 550 C141 543 139 531 136 515 L59 152 C49 102 41 95 -3 94 L-32 94 L-52 0 Z " />
<glyph glyph-name="J" unicode="J" horiz-adv-x="604" d="M261 572 L294 572 C327 572 337 566 337 549 C337 544 336 538 331 515 L271 234 C253 150 249 138 228 115 C210 96 180 83 151 83 C116 83 100 96 87 132 C100 130 109 129 117 129 C167 129 212 183 212 242 C212 286 186 310 139 310 C54 310 -20 227 -20 131 C-20 38 60 -20 189 -20 C267 -20 338 0 389 37 C445 77 468 121 490 224 L552 515 C561 565 568 571 612 572 L639 572 L659 667 L281 667 L261 572 Z " />
<glyph glyph-name="K" unicode="K" horiz-adv-x="802" d="M431 667 L85 667 L65 572 L94 572 C126 572 136 567 136 549 C136 543 134 529 131 515 L54 151 C44 101 36 95 -8 94 L-37 94 L-57 0 L304 0 L324 94 L304 94 C275 94 265 100 265 117 C265 123 267 137 270 151 L282 208 L388 285 L449 137 C452 131 453 125 453 119 C453 101 440 94 404 94 L374 94 L354 0 L744 0 L765 94 L727 94 C698 94 683 105 668 139 L554 408 L706 523 C746 553 786 573 806 572 L838 572 L858 667 L505 667 L485 572 L538 572 C562 572 572 568 572 557 C572 550 564 538 551 529 L313 350 L348 515 C358 566 364 572 411 572 L431 667 Z " />
<glyph glyph-name="L" unicode="L" horiz-adv-x="651" d="M466 667 L85 667 L65 573 L94 573 C126 573 136 567 136 550 C136 544 134 531 131 515 L54 152 C44 102 36 95 -8 95 L-37 95 L-57 0 L539 0 L598 278 L500 278 C456 121 426 93 303 97 L263 97 L352 515 C361 566 367 572 412 573 L446 573 L466 667 Z " />
<glyph glyph-name="M" unicode="M" horiz-adv-x="977" d="M1029 667 L663 667 L463 269 L440 667 L85 667 L65 573 L92 573 C125 573 136 567 136 549 C136 544 135 537 130 515 L53 152 C43 102 36 95 -9 94 L-37 94 L-57 0 L227 0 L247 94 L224 94 C192 94 181 100 181 118 C181 123 183 134 187 152 L273 557 L305 0 L454 0 L729 557 L642 152 C633 101 627 95 582 94 L560 94 L540 0 L887 0 L908 94 L878 94 C847 94 836 100 836 117 C836 123 838 133 842 152 L919 515 C928 566 935 572 980 573 L1009 573 L1029 667 Z " />
<glyph glyph-name="N" unicode="N" horiz-adv-x="769" d="M398 667 L85 667 L65 572 L95 572 C128 572 139 566 139 548 C139 544 138 536 133 515 L56 152 C46 102 38 95 -7 94 L-37 94 L-57 0 L222 0 L243 94 L215 94 C183 94 172 100 172 118 C172 124 174 138 177 152 L246 478 L388 0 L608 0 L717 515 C727 565 735 572 780 572 L802 572 L822 667 L543 667 L523 572 L558 572 C591 572 602 566 602 549 C602 545 602 545 595 515 L532 218 L398 667 Z " />
<glyph glyph-name="O" unicode="O" horiz-adv-x="797" d="M473 687 C336 687 222 641 140 551 C66 471 21 353 21 238 C21 170 38 118 76 73 C127 10 207 -20 322 -20 C462 -20 572 24 657 116 C730 195 776 314 776 428 C776 497 759 550 721 594 C668 658 590 687 473 687 L473 687 Z M452 586 C502 586 528 549 528 477 C528 423 505 304 478 220 C450 132 401 82 345 82 C294 82 268 119 268 192 C268 244 292 366 318 448 C346 535 395 586 452 586 L452 586 Z " />
<glyph glyph-name="P" unicode="P" horiz-adv-x="708" d="M304 295 L421 295 C540 295 601 313 653 362 C696 403 722 465 722 525 C722 564 711 595 689 618 C655 654 603 667 500 667 L85 667 L65 573 L94 573 C126 573 136 567 136 550 C136 543 134 530 131 515 L54 151 C44 101 36 95 -8 94 L-37 94 L-57 0 L324 0 L344 94 L311 94 C278 94 268 100 268 117 C268 123 270 132 274 151 L304 295 Z M322 377 L363 569 L406 569 C468 569 491 553 491 511 C491 480 480 441 466 420 C445 389 417 377 362 377 L322 377 Z " />
<glyph glyph-name="Q" unicode="Q" horiz-adv-x="821" d="M727 149 C717 108 714 98 705 85 C698 74 683 66 670 66 C657 66 645 73 627 90 C672 133 692 158 715 200 C750 265 772 354 772 428 C772 593 663 687 473 687 C331 687 222 643 137 551 C63 471 18 352 18 240 C18 78 127 -21 306 -21 C360 -21 398 -14 469 9 C511 -49 543 -68 600 -68 C655 -68 698 -46 733 0 C762 37 776 70 797 149 L727 149 Z M435 96 C392 71 368 63 336 63 C297 63 274 82 274 113 C274 150 303 182 337 182 C374 182 403 156 435 96 L435 96 Z M261 223 C288 372 303 432 324 479 C357 551 401 586 456 586 C516 586 545 548 545 472 C545 425 532 348 504 235 C482 267 472 279 459 290 C437 308 408 318 380 318 C326 318 292 291 261 223 L261 223 Z " />
<glyph glyph-name="R" unicode="R" horiz-adv-x="774" d="M65 573 L94 573 C126 573 136 567 136 549 C136 543 134 530 131 515 L54 152 C44 101 36 95 -8 94 L-37 94 L-57 0 L324 0 L344 94 L311 94 C278 94 268 100 268 117 C268 123 269 132 274 152 L305 300 L359 300 C411 300 431 288 431 257 C431 247 427 222 422 197 L410 142 C406 122 404 104 404 85 C404 18 449 -16 539 -16 C604 -16 644 -1 676 36 C707 70 721 106 737 188 L674 188 C661 120 649 96 630 96 C620 96 613 105 613 119 C613 133 613 133 627 203 C632 228 636 258 636 274 C636 323 617 340 549 353 C604 367 630 380 659 406 C696 440 718 489 718 538 C718 575 706 605 684 626 C653 655 605 667 521 667 L85 667 L65 573 Z M323 391 L361 568 L419 568 C472 568 489 555 489 512 C489 482 478 446 463 424 C446 400 422 391 376 391 L323 391 Z " />
<glyph glyph-name="S" unicode="S" horiz-adv-x="665" d="M32 245 L-21 -3 L66 -3 L97 34 C177 -8 220 -20 296 -20 C480 -20 617 93 617 246 C617 344 558 395 403 431 C303 455 303 455 287 469 C281 475 276 486 276 496 C276 543 327 579 393 579 C436 579 471 565 494 539 C515 516 523 491 525 438 L631 438 L680 670 L590 670 L566 637 C497 673 448 686 375 686 C279 686 200 659 142 605 C89 556 57 485 57 418 C57 382 65 355 84 330 C107 301 170 270 271 239 C356 213 365 209 379 190 C384 184 386 175 386 165 C386 117 340 82 279 82 C234 82 189 102 161 133 C139 159 130 186 123 245 L32 245 Z " />
<glyph glyph-name="T" unicode="T" horiz-adv-x="703" d="M128 414 C152 516 189 556 263 562 L289 562 L202 152 C193 101 186 95 141 94 L95 94 L75 0 L490 0 L510 94 L460 94 C428 94 417 100 417 118 C417 123 419 132 423 152 L510 562 L536 562 C585 562 616 530 616 481 C616 465 614 449 608 414 L702 414 L755 667 L89 667 L35 414 L128 414 Z " />
<glyph glyph-name="U" unicode="U" horiz-adv-x="736" d="M486 573 L517 573 C549 573 560 567 560 550 C560 544 558 531 555 516 L491 214 C471 122 429 83 348 83 C297 83 270 107 270 152 C270 168 272 185 280 222 L343 516 C353 566 360 573 404 573 L437 573 L457 667 L76 667 L56 573 L86 573 C118 573 128 567 128 550 C128 544 126 531 123 516 L53 189 C49 171 47 151 47 137 C47 38 135 -20 284 -20 C474 -20 592 56 622 197 L690 519 C699 566 708 573 752 573 L779 573 L799 667 L506 667 L486 573 Z " />
<glyph glyph-name="V" unicode="V" horiz-adv-x="679" d="M27 573 L57 573 C94 573 112 550 118 491 L160 0 L376 0 L643 508 C669 559 686 571 730 573 L752 573 L772 667 L478 667 L458 573 L490 573 C520 573 533 568 533 557 C533 548 529 537 522 523 L345 181 L317 522 L317 525 C317 563 328 573 371 573 L406 573 L426 667 L47 667 L27 573 Z " />
<glyph glyph-name="W" unicode="W" horiz-adv-x="939" d="M362 667 L71 667 L51 573 C93 569 108 549 112 489 L137 0 L338 0 L460 272 L463 0 L658 0 L904 508 C931 559 948 571 994 573 L1014 667 L759 667 L739 573 C777 572 790 568 790 556 C790 549 787 540 780 523 L630 184 L626 521 C627 566 634 572 680 573 L700 573 L721 667 L410 667 L390 573 C446 568 452 562 452 499 L312 184 L295 521 C297 564 304 571 341 573 L362 667 Z " />
<glyph glyph-name="X" unicode="X" horiz-adv-x="698" d="M49 573 L71 573 C95 571 105 563 122 530 L235 315 L66 148 C26 107 8 97 -34 94 L-65 94 L-85 0 L230 0 L250 94 L215 94 C199 94 188 99 188 107 C188 112 193 120 200 127 L304 230 L344 149 C350 136 353 126 353 119 C353 103 342 94 321 94 L301 94 L281 0 L641 0 L661 94 L636 94 C607 98 590 110 580 133 L470 369 L649 542 C672 564 696 573 723 573 L740 573 L760 667 L471 667 L451 573 L478 573 C494 573 505 567 505 560 C505 554 501 546 493 539 L398 448 L365 517 C357 533 355 540 355 548 C355 564 366 573 388 573 L404 573 L424 667 L69 667 L49 573 Z " />
<glyph glyph-name="Y" unicode="Y" horiz-adv-x="651" d="M27 573 L46 573 C82 571 101 555 118 510 L200 268 L175 152 C166 101 160 95 115 94 L82 94 L62 0 L447 0 L467 94 L433 94 C401 94 391 100 391 117 C391 124 393 135 396 152 L421 268 L607 506 C641 552 669 571 702 573 L722 573 L742 667 L458 667 L438 573 L465 573 C487 573 502 567 502 558 C502 551 494 534 485 523 L378 394 L328 521 C325 530 323 538 323 544 C323 563 340 573 373 573 L396 573 L416 667 L47 667 L27 573 Z " />
<glyph glyph-name="Z" unicode="Z" horiz-adv-x="637" d="M-57 0 L539 0 L595 267 L483 267 C446 132 401 90 296 94 L210 94 L660 573 L681 667 L101 667 L48 418 L156 418 C191 541 226 572 332 573 L416 573 L-37 94 L-57 0 Z " />
<glyph glyph-name="bracketleft" unicode="&#x5b;" horiz-adv-x="406" d="M264 -182 L286 -82 L191 -82 L329 569 L424 569 L445 667 L164 667 L-16 -182 L264 -182 Z " />
<glyph glyph-name="backslash" unicode="&#x5c;" horiz-adv-x="377" d="M191 -92 L278 -92 L200 686 L113 686 L191 -92 Z " />
<glyph glyph-name="bracketright" unicode="&#x5d;" horiz-adv-x="406" d="M-78 -182 L202 -182 L383 667 L102 667 L82 569 L176 569 L38 -82 L-57 -82 L-78 -182 Z " />
<glyph glyph-name="asciicircum" unicode="&#x5e;" horiz-adv-x="475" d="M166 335 L282 541 L310 335 L471 335 L412 672 L207 672 L5 335 L166 335 Z " />
<glyph glyph-name="underscore" unicode="&#x5f;" horiz-adv-x="500" d="M-81 -47 L-105 -160 L395 -160 L419 -47 L-81 -47 Z " />
<glyph glyph-name="grave" unicode="&#x60;" horiz-adv-x="489" d="M370 534 L259 686 C232 723 215 735 190 735 C154 735 120 703 120 668 C120 649 132 634 161 618 L312 534 L370 534 Z " />
<glyph glyph-name="a" unicode="a" horiz-adv-x="599" d="M559 189 L492 189 L480 133 C475 109 470 103 456 103 C448 103 441 108 441 115 C441 117 442 123 444 133 L482 313 C488 340 492 369 492 384 C492 451 423 486 290 486 C139 486 36 425 36 335 C36 295 63 272 110 272 C168 272 211 308 211 357 C211 381 202 393 173 404 C200 417 214 421 236 421 C281 421 306 399 306 361 C306 340 299 318 287 304 C267 280 237 269 163 258 C80 246 35 227 3 191 C-21 164 -35 123 -35 80 C-35 16 8 -17 88 -17 C160 -17 214 4 263 50 C287 0 315 -17 377 -17 C427 -17 467 -4 496 23 C522 46 534 72 546 128 L559 189 Z M267 157 C258 114 233 87 199 87 C177 87 164 101 164 124 C164 145 178 166 202 178 L240 197 C246 200 262 208 279 218 L267 157 Z " />
<glyph glyph-name="b" unicode="b" horiz-adv-x="609" d="M52 580 L59 580 C93 582 105 575 105 556 C105 550 104 540 102 533 L-11 0 L116 0 L174 65 C219 2 249 -16 311 -16 C389 -16 451 17 495 83 C536 145 564 242 564 325 C564 425 511 486 424 486 C368 486 325 466 273 416 L326 667 L71 667 L52 580 Z M321 382 C345 382 356 365 356 326 C356 286 346 228 328 173 C309 112 287 84 257 84 C234 84 222 106 222 148 C222 188 243 287 259 323 C277 362 298 382 321 382 L321 382 Z " />
<glyph glyph-name="c" unicode="c" horiz-adv-x="500" d="M324 163 C308 102 282 74 244 74 C214 74 197 97 197 137 C197 173 212 251 230 311 C248 367 279 397 321 397 C341 397 350 391 357 373 C331 369 318 363 304 346 C290 329 282 307 282 285 C282 247 308 226 353 226 C426 226 477 280 477 357 C477 439 414 487 308 487 C217 487 135 454 79 394 C25 336 -9 250 -9 168 C-9 51 66 -19 194 -19 C247 -19 296 -7 338 18 C389 47 413 82 439 163 L324 163 Z " />
<glyph glyph-name="d" unicode="d" horiz-adv-x="608" d="M318 580 L333 580 C374 580 383 576 383 555 C383 549 382 540 380 533 L356 416 C324 466 290 486 235 486 C168 486 105 450 61 386 C16 322 -13 224 -13 134 C-13 37 39 -16 135 -16 C194 -16 229 1 299 65 L285 0 L522 0 L540 87 L520 87 C496 87 488 93 488 108 C488 115 489 126 491 134 L604 667 L337 667 L318 580 Z M293 382 C317 382 329 362 329 326 C329 282 309 186 291 145 C273 105 253 84 231 84 C207 84 196 102 196 140 C196 185 211 263 231 314 C249 362 267 382 293 382 L293 382 Z " />
<glyph glyph-name="e" unicode="e" horiz-adv-x="538" d="M356 163 C329 101 296 74 247 74 C202 74 176 101 176 147 C176 160 178 178 184 207 L479 207 C488 248 494 292 494 315 C494 423 423 487 304 487 C128 487 -9 348 -9 168 C-9 48 65 -18 199 -18 C271 -18 341 3 386 39 C421 66 443 98 472 163 L356 163 Z M203 294 C214 334 220 351 232 366 C247 385 272 398 295 398 C325 398 345 376 345 341 C345 332 342 312 339 294 L203 294 Z " />
<glyph glyph-name="f" unicode="f" horiz-adv-x="382" d="M95 378 L43 134 C34 94 27 88 -11 87 L-33 87 L-52 0 L284 0 L302 87 L263 87 C235 87 226 93 226 110 C226 116 227 126 229 135 L281 378 L362 378 L381 469 L300 469 L313 532 C324 581 329 592 345 606 C354 614 366 619 379 619 C386 619 391 618 402 614 C371 596 355 573 355 545 C355 514 379 494 417 494 C471 494 515 537 515 589 C515 650 462 685 369 685 C312 685 257 673 218 651 C163 620 138 581 120 496 L114 469 L48 469 L28 378 L95 378 Z " />
<glyph glyph-name="g" unicode="g" horiz-adv-x="585" d="M43 167 C-22 140 -56 98 -56 44 C-56 17 -47 -2 -23 -27 C-71 -45 -100 -79 -100 -119 C-100 -142 -91 -160 -72 -176 C-41 -200 35 -214 145 -214 C343 -214 454 -147 454 -26 C454 46 415 72 306 72 C297 72 280 72 268 71 C160 68 160 68 136 68 C92 68 83 72 83 89 C83 100 87 108 99 118 C138 106 155 103 184 103 C342 103 456 204 456 343 C456 368 453 381 438 410 C467 429 483 436 496 436 C505 436 511 433 520 424 C491 401 480 384 480 363 C480 335 504 316 538 316 C586 316 623 356 623 409 C623 456 584 488 526 488 C492 488 466 479 417 449 C351 480 334 485 284 485 C203 485 140 465 92 424 C42 382 12 317 12 253 C12 217 19 196 43 167 L43 167 Z M260 416 C273 416 280 406 280 386 C280 356 266 280 251 233 C238 190 225 172 208 172 C194 172 188 183 188 204 C188 242 202 312 218 362 C231 400 243 416 260 416 L260 416 Z M183 -70 C226 -70 263 -72 289 -77 C307 -80 315 -86 315 -98 C315 -129 273 -141 170 -141 C75 -141 38 -132 38 -108 C38 -81 79 -70 183 -70 L183 -70 Z " />
<glyph glyph-name="h" unicode="h" horiz-adv-x="646" d="M580 87 L569 87 C544 87 535 93 535 108 C535 114 536 123 539 134 L576 308 C582 340 587 373 587 389 C587 448 539 482 457 482 C385 482 344 463 278 398 L335 667 L85 667 L66 580 L81 580 C105 580 114 574 114 558 C114 552 113 540 111 533 L26 134 C17 95 11 88 -24 87 L-38 87 L-57 0 L238 0 L257 87 L253 87 C227 87 219 92 219 108 C219 115 220 126 222 134 L255 288 C267 347 299 383 339 383 C367 383 383 367 383 338 C383 328 382 315 379 303 L343 134 C335 94 327 87 293 87 L288 87 L270 0 L561 0 L580 87 Z " />
<glyph glyph-name="i" unicode="i" horiz-adv-x="344" d="M276 87 L261 87 C236 87 227 93 227 108 C227 116 228 123 230 134 L301 469 L48 469 L29 382 L48 382 C76 382 85 376 85 359 C85 351 84 343 82 335 L40 134 C31 95 23 88 -14 87 L-33 87 L-52 0 L257 0 L276 87 Z M238 686 C179 686 127 634 127 577 C127 536 157 507 198 507 C256 507 309 559 309 615 C309 656 279 686 238 686 L238 686 Z " />
<glyph glyph-name="j" unicode="j" horiz-adv-x="335" d="M299 469 L32 469 L14 382 L38 382 C68 382 79 375 78 358 C78 351 76 343 75 335 L-17 -98 C-23 -124 -38 -141 -56 -141 C-63 -141 -71 -138 -84 -133 C-54 -111 -44 -95 -44 -71 C-44 -37 -65 -18 -102 -18 C-155 -18 -198 -65 -198 -122 C-198 -184 -149 -215 -51 -215 C64 -215 136 -181 169 -111 C179 -91 182 -81 196 -12 L299 469 Z M239 686 C181 686 128 634 128 577 C128 536 158 507 200 507 C258 507 311 559 311 615 C311 656 281 686 239 686 L239 686 Z " />
<glyph glyph-name="k" unicode="k" horiz-adv-x="637" d="M67 580 L87 580 C112 580 121 574 121 558 C121 552 120 544 117 533 L33 134 C24 95 17 88 -18 87 L-35 87 L-54 0 L236 0 L255 87 C230 88 222 93 222 110 C222 117 225 132 230 152 L302 203 L326 141 C333 123 336 113 336 104 C336 91 330 88 300 87 L281 0 L572 0 L590 87 C548 90 536 97 526 124 L456 307 L530 359 C554 374 574 380 611 382 L630 469 L362 469 L344 382 L354 382 C373 382 379 379 379 371 C379 363 373 355 361 346 L254 269 L339 667 L86 667 L67 580 Z " />
<glyph glyph-name="l" unicode="l" horiz-adv-x="335" d="M337 667 L81 667 L62 580 L83 580 C111 580 120 574 120 557 C120 549 119 541 117 533 L33 134 C24 95 16 88 -21 87 L-42 87 L-61 0 L249 0 L268 87 L254 87 C229 87 220 93 220 109 C220 115 221 124 223 134 L337 667 Z " />
<glyph glyph-name="m" unicode="m" horiz-adv-x="920" d="M290 469 L48 469 L29 382 L45 382 C69 382 78 376 78 361 C78 354 77 342 75 335 L33 134 C24 95 17 88 -18 87 L-33 87 L-52 0 L236 0 L254 87 C232 88 225 92 225 108 C225 115 226 126 228 134 L258 273 C274 351 297 383 336 383 C358 383 368 371 368 345 C368 335 366 320 362 303 L327 134 C317 91 313 87 283 87 L264 0 L529 0 L547 87 L541 87 C523 87 517 91 517 103 C517 111 518 121 521 134 L551 275 C567 351 591 383 629 383 C651 383 662 371 662 346 C662 335 660 321 656 303 L620 134 C611 95 607 90 576 87 L557 0 L838 0 L857 87 L846 87 C822 87 813 93 813 108 C813 115 814 127 816 134 L854 312 C860 344 865 376 865 393 C865 450 817 486 740 486 C680 486 635 470 572 424 C549 471 519 487 457 487 C392 487 348 468 278 410 L290 469 Z " />
<glyph glyph-name="n" unicode="n" horiz-adv-x="651" d="M590 87 L573 87 C548 87 539 93 539 109 C539 115 540 127 542 134 L579 308 C586 340 590 371 590 388 C590 446 541 482 462 482 C387 482 338 459 272 396 L287 469 L39 469 L20 382 L42 382 C67 382 76 376 76 361 C76 354 75 345 73 335 L30 134 C21 95 14 88 -21 87 L-42 87 L-61 0 L244 0 L262 87 L258 87 C233 85 222 92 222 108 C222 115 223 124 225 134 L258 288 C270 347 303 383 343 383 C371 383 387 367 387 339 C387 330 385 316 382 303 L347 134 C337 93 331 87 292 87 L273 0 L571 0 L590 87 Z " />
<glyph glyph-name="o" unicode="o" horiz-adv-x="580" d="M323 486 C128 486 -9 353 -9 165 C-9 51 75 -17 215 -17 C313 -17 401 18 460 80 C513 136 546 219 546 299 C546 417 464 486 323 486 L323 486 Z M302 394 C331 394 343 377 343 339 C343 303 328 225 309 159 C292 102 268 75 236 75 C207 75 195 91 195 131 C195 167 210 244 229 310 C246 367 270 394 302 394 L302 394 Z " />
<glyph glyph-name="p" unicode="p" horiz-adv-x="609" d="M279 469 L43 469 L25 382 L44 382 C68 382 77 376 77 361 C77 355 76 347 73 335 L-15 -80 C-24 -119 -31 -126 -64 -127 L-83 -127 L-102 -214 L209 -214 L227 -127 C186 -127 178 -123 178 -103 C178 -96 179 -87 181 -80 L209 53 C241 3 274 -17 329 -17 C396 -17 459 19 503 83 C548 147 577 245 577 334 C577 432 525 485 431 485 C371 485 332 466 266 404 L279 469 Z M333 385 C357 385 368 367 368 330 C368 283 353 206 334 155 C316 108 297 87 271 87 C247 87 235 109 235 150 C235 187 257 286 274 324 C291 364 312 385 333 385 L333 385 Z " />
<glyph glyph-name="q" unicode="q" horiz-adv-x="609" d="M370 404 C330 467 300 485 238 485 C163 485 101 451 57 386 C16 324 -12 227 -12 144 C-12 44 41 -17 127 -17 C183 -17 224 2 278 53 L250 -80 C242 -119 231 -127 190 -127 L183 -127 L165 -214 L475 -214 L494 -127 L474 -127 C451 -127 442 -121 442 -106 C442 -99 443 -90 445 -80 L533 335 C542 374 549 381 582 382 L602 382 L620 469 L384 469 L370 404 Z M294 385 C316 385 328 363 328 322 C328 282 307 182 291 146 C274 107 253 87 231 87 C207 87 196 104 196 142 C196 182 207 241 224 296 C242 357 265 385 294 385 L294 385 Z " />
<glyph glyph-name="r" unicode="r" horiz-adv-x="486" d="M290 469 L48 469 L29 382 L45 382 C69 382 78 376 78 361 C78 354 77 342 75 335 L33 134 C24 95 17 88 -18 87 L-33 87 L-52 0 L269 0 L288 87 L259 87 C234 87 225 93 225 109 C225 116 226 126 228 134 L257 272 C267 317 280 348 299 372 C317 395 344 412 364 412 C368 412 375 411 384 409 C344 387 327 363 327 328 C327 293 350 272 388 272 C448 272 498 329 498 399 C498 454 465 485 408 485 C362 485 329 469 280 423 L290 469 Z " />
<glyph glyph-name="s" unicode="s" horiz-adv-x="538" d="M23 -7 L47 30 C94 -3 147 -17 218 -17 C359 -17 461 65 461 177 C461 209 452 231 433 250 C413 268 395 277 316 305 C233 335 232 336 232 357 C232 385 259 403 298 403 C315 403 331 400 346 393 C375 381 386 367 401 330 L475 330 L507 478 L437 478 L418 450 C355 479 326 486 265 486 C180 486 114 464 68 419 C34 387 14 341 14 296 C14 240 44 213 149 176 C246 141 246 141 246 119 C246 90 221 74 178 74 C157 74 138 78 122 86 C95 99 83 119 76 164 L-8 164 L-44 -7 L23 -7 Z " />
<glyph glyph-name="t" unicode="t" horiz-adv-x="434" d="M72 383 L26 167 C19 133 14 102 14 88 C14 22 70 -19 161 -19 C225 -19 276 -2 311 32 C340 60 353 89 367 158 L381 221 L296 221 L286 178 C270 99 256 73 231 73 C217 73 209 82 209 99 C209 108 211 122 216 142 L267 383 L392 383 L410 469 L285 469 L324 652 L207 652 C155 513 115 471 33 469 L15 383 L72 383 Z " />
<glyph glyph-name="u" unicode="u" horiz-adv-x="651" d="M324 0 L565 0 L583 87 L566 87 C542 87 534 93 534 108 C534 115 535 127 537 134 L608 469 L347 469 L328 381 L348 381 C377 381 387 376 387 358 C387 353 386 343 384 335 L351 181 C339 123 308 86 270 86 C243 86 228 102 228 130 C228 139 230 153 232 166 L297 469 L39 469 L20 381 L36 381 C66 381 77 375 76 358 C76 351 75 343 73 335 L35 156 C28 125 24 94 24 76 C24 18 72 -17 151 -17 C224 -17 273 5 338 69 L324 0 Z " />
<glyph glyph-name="v" unicode="v" horiz-adv-x="542" d="M332 382 C365 380 378 373 378 359 C378 353 375 343 371 335 L262 124 L246 335 C246 375 255 383 302 382 L320 469 L34 469 L15 382 L32 382 C56 382 61 375 65 335 L93 0 L292 0 L474 329 C494 368 517 381 561 382 L580 469 L351 469 L332 382 Z " />
<glyph glyph-name="w" unicode="w" horiz-adv-x="807" d="M269 0 L380 227 L386 0 L566 0 L737 329 C756 368 778 382 819 382 L838 469 L634 469 L615 382 C640 378 649 372 649 359 C649 354 646 344 642 335 L542 124 L540 335 C540 368 549 382 573 382 L583 382 L601 469 L337 469 L318 382 C342 378 351 372 351 359 C351 353 348 344 344 335 L238 119 L234 335 C233 370 243 382 271 382 L278 382 L297 469 L34 469 L15 382 L36 382 C62 382 65 376 69 310 L79 0 L269 0 Z " />
<glyph glyph-name="x" unicode="x" horiz-adv-x="599" d="M550 87 L543 87 C502 90 486 99 460 134 L375 254 L498 348 C534 376 553 382 606 382 L625 469 L381 469 L363 386 L367 386 C381 386 388 383 388 376 C388 371 384 366 374 356 L329 313 L312 351 C303 368 303 368 303 372 C303 382 312 387 329 387 L347 469 L49 469 L30 382 C75 379 79 376 110 335 L181 229 L33 110 C15 96 -14 87 -45 87 L-52 87 L-71 0 L168 0 L185 83 C158 84 155 85 155 93 C155 98 161 107 169 114 L224 164 L250 118 C257 107 259 101 259 96 C259 87 252 83 236 83 L222 83 L204 0 L532 0 L550 87 Z " />
<glyph glyph-name="y" unicode="y" horiz-adv-x="547" d="M326 382 C372 379 381 376 381 362 C381 357 378 349 371 337 L276 174 L254 338 C252 350 251 358 251 359 C251 375 261 380 296 382 L314 469 L27 469 L9 382 L26 382 C55 380 60 373 74 306 L143 -51 C98 -117 61 -147 24 -147 C10 -147 3 -143 -6 -130 C43 -117 68 -88 68 -44 C68 -10 43 12 4 12 C-61 12 -111 -42 -111 -111 C-111 -176 -66 -214 13 -214 C103 -214 173 -162 249 -40 L477 329 C500 369 519 381 565 382 L583 469 L344 469 L326 382 Z " />
<glyph glyph-name="z" unicode="z" horiz-adv-x="486" d="M-57 0 L387 0 L431 206 L346 206 C323 106 310 91 234 87 L171 87 L466 373 L487 469 L59 469 L19 280 L104 280 C128 368 138 378 202 382 L264 382 L-36 96 L-57 0 Z " />
<glyph glyph-name="braceleft" unicode="&#x7b;" horiz-adv-x="406" d="M315 476 C330 549 331 552 351 562 C361 567 375 569 409 569 C412 569 418 569 424 568 L444 665 C385 668 373 668 357 668 C266 668 237 663 204 640 C172 618 151 581 139 523 L106 369 C93 308 78 288 39 279 L19 185 C42 180 54 165 54 142 C54 132 51 111 48 96 L15 -59 C11 -78 9 -96 9 -112 C9 -154 24 -178 58 -192 C78 -200 105 -203 161 -203 C184 -203 204 -203 261 -201 L281 -104 C252 -104 241 -104 229 -102 C210 -100 200 -91 200 -75 C200 -66 200 -66 211 -12 L236 106 C240 123 242 144 242 159 C242 192 232 210 203 232 C255 261 273 288 290 358 L315 476 Z " />
<glyph glyph-name="bar" unicode="&#x7c;" horiz-adv-x="485" d="M215 667 L38 -167 L234 -167 L411 667 L215 667 Z " />
<glyph glyph-name="braceright" unicode="&#x7d;" horiz-adv-x="406" d="M48 -12 C30 -103 27 -105 -62 -104 L-82 -200 C-20 -203 -6 -203 6 -203 C96 -203 125 -198 158 -175 C191 -153 211 -116 224 -59 L256 96 C269 156 285 177 323 185 L343 279 C320 285 308 300 308 323 C308 334 310 348 314 369 L347 523 C352 547 354 561 354 577 C354 619 339 643 305 657 C285 665 258 668 202 668 C177 668 164 668 102 665 L81 569 L98 569 C149 569 163 563 163 540 C163 533 161 522 159 512 C156 498 153 483 151 476 L126 359 C122 338 120 321 120 305 C120 273 130 254 159 232 C108 203 90 177 73 106 L48 -12 Z " />
<glyph glyph-name="asciitilde" unicode="&#x7e;" horiz-adv-x="658" d="M222 534 C252 575 269 588 292 588 C303 588 315 585 341 574 C419 542 438 536 458 536 C499 536 542 557 580 595 C602 618 618 641 648 689 L573 767 C541 725 526 714 502 714 C488 714 484 715 434 736 C364 763 361 764 334 764 C266 764 209 718 146 613 L222 534 Z " />
<glyph glyph-name="uni00A0" unicode="&#xa0;" horiz-adv-x="250" d="" />
<glyph glyph-name="exclamdown" unicode="&#xa1;" horiz-adv-x="326" d="M97 259 C74 183 61 142 41 90 C-23 -74 -29 -92 -29 -133 C-29 -190 -3 -220 46 -220 C84 -220 119 -200 141 -166 C167 -127 178 -81 181 0 C186 144 186 150 199 259 L97 259 Z M193 483 C138 483 86 429 86 372 C86 331 114 300 152 300 C211 300 263 352 263 410 C263 454 236 483 193 483 L193 483 Z " />
<glyph glyph-name="cent" unicode="&#xa2;" horiz-adv-x="613" d="M364 254 C386 246 397 243 412 243 C481 243 534 300 534 374 C534 403 527 421 503 455 L579 564 L506 564 L452 487 C405 501 379 506 353 506 C185 506 46 361 46 184 C46 107 66 71 132 26 L39 -107 L112 -107 L190 5 C220 2 247 0 267 0 C325 0 384 22 427 59 C458 86 474 115 494 180 L379 180 C363 119 336 91 293 91 C280 91 273 94 260 106 L364 254 Z M241 183 C253 221 256 234 264 265 C280 332 280 332 286 345 C305 389 337 414 372 414 C392 414 401 408 413 389 C372 384 359 372 342 327 L241 183 Z " />
<glyph glyph-name="sterling" unicode="&#xa3;" horiz-adv-x="613" d="M9 -17 C75 25 109 39 144 39 C163 39 188 33 216 22 C312 -16 317 -17 359 -17 C428 -17 483 12 514 67 C536 105 545 136 559 216 L470 216 C460 156 442 131 409 131 C397 131 386 133 376 137 C312 164 312 164 289 164 C259 164 234 156 177 130 C253 185 260 194 281 260 L402 260 L422 351 L292 351 C293 359 294 367 295 374 L297 400 C301 435 304 450 309 464 C328 512 370 542 419 542 C447 542 460 536 478 516 C442 496 427 473 427 437 C427 402 454 378 495 378 C553 378 600 427 600 487 C600 572 523 622 395 622 C304 622 235 599 180 551 C130 508 102 450 102 392 C102 382 103 367 104 351 L32 351 L12 260 L111 260 C107 180 77 140 -18 88 L9 -17 Z " />
<glyph glyph-name="currency" unicode="&#xa4;" horiz-adv-x="694" d="M-20 107 L53 9 L174 112 C216 86 249 76 294 76 C338 76 380 88 428 112 L504 8 L619 108 L542 213 C585 276 604 331 604 394 C604 421 601 439 591 470 L714 575 L641 674 L515 566 C476 588 445 597 403 597 C361 597 327 588 278 565 L196 675 L80 575 L160 468 C113 402 93 346 93 280 C93 254 95 236 102 213 L-20 107 Z M370 434 C406 434 432 404 432 362 C432 302 381 244 328 244 C292 244 266 274 266 316 C266 377 316 434 370 434 L370 434 Z " />
<glyph glyph-name="yen" unicode="&#xa5;" horiz-adv-x="651" d="M364 346 L317 472 C315 480 313 487 313 492 C313 510 328 519 357 519 L377 519 L395 605 L73 605 L54 519 L71 519 C104 517 121 503 137 462 L158 404 L91 404 L72 313 L191 313 L213 252 L71 252 L52 161 L199 161 L194 138 C186 92 180 86 137 86 L104 86 L86 0 L425 0 L443 86 L411 86 C380 86 370 91 370 107 C370 113 372 125 375 138 L379 161 L524 161 L543 252 L404 252 L454 313 L569 313 L588 404 L527 404 L570 458 C602 501 626 517 657 519 L674 519 L692 605 L444 605 L426 519 L447 519 C466 519 479 514 479 506 C479 499 472 484 464 474 L364 346 Z " />
<glyph glyph-name="brokenbar" unicode="&#xa6;" horiz-adv-x="485" d="M215 667 L138 304 L334 304 L411 667 L215 667 Z M106 153 L38 -167 L234 -167 L302 153 L106 153 Z " />
<glyph glyph-name="section" unicode="&#xa7;" horiz-adv-x="590" d="M118 -111 C145 -87 154 -71 154 -44 C154 -7 129 18 90 18 C37 18 -7 -32 -7 -91 C-7 -165 60 -210 169 -210 C325 -210 449 -110 449 16 C449 55 436 79 393 119 C449 146 471 164 494 203 C514 234 524 269 524 302 C524 366 483 407 371 456 C276 498 262 508 262 535 C262 580 308 614 366 614 C391 614 402 611 423 597 C397 576 388 562 388 538 C388 504 414 481 453 481 C505 481 548 525 548 578 C548 645 480 687 370 687 C285 687 218 662 173 614 C139 579 117 526 117 483 C117 448 128 425 163 389 C109 362 87 345 63 316 C38 286 23 245 23 207 C23 171 37 138 61 118 C86 97 114 82 216 38 C280 10 302 -10 302 -39 C302 -94 255 -131 187 -131 C154 -131 143 -128 118 -111 L118 -111 Z M232 342 C251 342 264 336 321 305 C372 277 383 265 383 238 C383 201 345 163 311 165 C294 166 258 181 212 208 C176 228 163 245 163 271 C163 306 197 342 232 342 L232 342 Z " />
<glyph glyph-name="dieresis" unicode="&#xa8;" horiz-adv-x="483" d="M225 715 C174 715 126 670 126 622 C126 584 152 559 191 559 C240 559 285 604 285 652 C285 688 260 715 225 715 L225 715 Z M426 715 C375 715 327 670 327 622 C327 584 353 559 392 559 C441 559 486 604 486 652 C486 688 461 715 426 715 L426 715 Z " />
<glyph glyph-name="copyright" unicode="&#xa9;" horiz-adv-x="791" d="M495 294 C475 228 441 194 395 194 C363 194 345 216 345 255 C345 286 358 352 373 396 C388 444 416 471 451 471 C473 471 490 460 496 440 C502 424 503 412 503 368 L574 368 L608 528 L543 528 L531 509 C496 529 476 534 434 534 C298 534 191 419 191 274 C191 182 248 132 352 132 C414 132 468 152 505 190 C531 215 544 239 560 294 L495 294 Z M479 703 C243 703 24 488 24 257 C24 87 147 -36 315 -36 C549 -36 767 180 767 410 C767 580 646 703 479 703 L479 703 Z M463 631 C591 631 683 534 683 398 C683 211 512 36 331 36 C201 36 108 134 108 269 C108 456 279 631 463 631 L463 631 Z " />
<glyph glyph-name="ordfeminine" unicode="&#xaa;" horiz-adv-x="396" d="M413 446 L363 446 L356 410 C353 397 351 395 344 395 C340 395 337 397 337 400 C337 402 337 405 338 410 L361 516 C364 531 366 546 366 556 C366 599 320 621 231 621 C132 621 64 584 64 531 C64 508 84 495 117 495 C157 495 184 514 184 542 C184 556 179 563 164 570 C176 575 184 576 195 576 C223 576 239 564 239 542 C239 509 218 495 151 486 C60 474 21 442 21 380 C21 339 50 318 105 318 C150 318 186 330 217 356 C233 328 253 318 293 318 C358 318 391 344 405 407 L413 446 Z M217 424 C212 400 197 386 178 386 C165 386 157 393 157 405 C157 417 165 427 178 433 C186 437 194 441 203 444 C205 446 214 450 222 454 L217 424 Z " />
<glyph glyph-name="guillemotleft" unicode="&#xab;" horiz-adv-x="476" d="M181 67 C164 162 160 187 160 212 C160 240 170 269 196 316 C228 373 229 375 246 406 L152 406 C48 294 16 250 16 222 C16 205 27 177 80 67 L181 67 Z M386 67 C368 163 365 187 365 212 C365 240 375 269 401 316 L451 406 L356 406 C253 294 221 251 221 222 C221 205 233 176 285 67 L386 67 Z " />
<glyph glyph-name="logicalnot" unicode="&#xac;" horiz-adv-x="475" d="M182 0 L372 0 L436 299 L24 299 L-12 128 L210 128 L182 0 Z " />
<glyph glyph-name="uni00AD" unicode="&#xad;" horiz-adv-x="275" d="M-38 154 L237 154 L271 312 L-5 312 L-38 154 Z " />
<glyph glyph-name="registered" unicode="&#xae;" horiz-adv-x="791" d="M221 464 L241 464 C257 464 262 461 262 453 C262 450 261 441 259 435 L216 231 C211 205 209 203 185 202 L166 202 L153 143 L376 143 L389 202 L367 202 C350 202 345 205 345 213 C345 215 345 218 348 231 L365 311 L393 311 C420 311 431 305 431 290 C431 284 429 270 426 257 L420 226 C417 215 416 204 416 194 C416 154 443 134 496 134 C566 134 596 165 613 255 L570 255 C563 217 558 203 548 203 C544 203 541 207 541 214 L542 227 C553 281 554 285 554 300 C554 326 545 337 516 345 C568 360 601 399 601 448 C601 500 566 523 485 523 L234 523 L221 464 Z M377 369 L396 461 L426 461 C455 461 464 454 464 433 C464 416 458 397 450 385 C442 373 429 369 404 369 L377 369 Z M479 703 C243 703 24 488 24 257 C24 87 147 -36 315 -36 C549 -36 767 180 767 410 C767 580 646 703 479 703 L479 703 Z M463 631 C591 631 683 534 683 399 C683 212 512 36 331 36 C201 36 108 134 108 269 C108 457 279 631 463 631 L463 631 Z " />
<glyph glyph-name="macron" unicode="&#xaf;" horiz-adv-x="491" d="M141 585 L456 585 L475 672 L159 672 L141 585 Z " />
<glyph glyph-name="degree" unicode="&#xb0;" horiz-adv-x="400" d="M203 686 C117 686 50 619 50 534 C50 448 116 381 200 381 C284 381 350 448 350 533 C350 619 286 686 203 686 L203 686 Z M202 629 C252 629 293 586 293 534 C293 480 252 438 200 438 C148 438 106 481 106 533 C106 587 148 629 202 629 L202 629 Z " />
<glyph glyph-name="plusminus" unicode="&#xb1;" horiz-adv-x="549" d="M11 55 L11 0 L535 0 L535 55 L11 55 Z M302 662 L247 662 L247 423 L10 423 L10 368 L247 368 L247 129 L302 129 L302 368 L539 368 L539 423 L302 423 L302 662 Z " />
<glyph glyph-name="twosuperior" unicode="&#xb2;" horiz-adv-x="354" d="M68 266 C76 278 83 282 95 282 C103 282 114 280 123 278 C189 258 194 257 224 257 C262 257 291 272 312 301 C325 319 331 337 341 386 L285 386 C277 354 269 343 252 343 C249 343 245 343 243 344 C193 356 192 356 174 356 C151 356 134 352 101 337 C117 361 127 366 208 387 C307 412 355 456 355 522 C355 579 307 615 231 615 C137 615 57 555 57 483 C57 456 73 441 102 441 C138 441 167 469 167 503 C167 524 157 532 131 533 C150 549 165 555 186 555 C215 555 232 542 232 520 C232 488 213 466 158 436 C57 381 24 343 10 266 L68 266 Z " />
<glyph glyph-name="threesuperior" unicode="&#xb3;" horiz-adv-x="354" d="M169 419 C203 418 216 407 216 381 C216 337 185 308 138 308 C117 308 107 311 90 321 C128 326 144 342 144 373 C144 397 128 410 101 410 C60 410 25 375 25 334 C25 283 70 257 159 257 C268 257 339 306 339 381 C339 414 324 432 282 448 C335 466 360 496 360 539 C360 588 319 615 245 615 C188 615 143 601 110 575 C86 556 70 526 70 501 C70 476 86 462 114 462 C148 462 173 484 173 515 C173 534 165 542 145 543 C162 558 173 563 194 563 C224 563 241 548 241 521 C241 502 231 483 217 475 C208 470 200 468 179 466 L169 419 Z " />
<glyph glyph-name="acute" unicode="&#xb4;" horiz-adv-x="489" d="M180 534 L238 534 L424 617 C470 638 491 661 491 691 C491 717 473 735 446 735 C420 735 399 724 355 686 L180 534 Z " />
<glyph glyph-name="mu" unicode="&#xb5;" horiz-adv-x="576" d="M442 500 L353 500 L354 131 C318 80 284 58 242 58 C184 58 150 99 150 169 L150 500 L62 500 L62 20 C62 -1 58 -26 51 -56 C34 -118 33 -123 33 -147 C33 -190 54 -219 83 -219 C112 -219 132 -189 132 -145 C132 -124 129 -110 113 -53 C102 -17 101 -8 101 21 L101 33 C143 -3 165 -13 200 -13 C250 -13 301 18 354 80 C362 48 367 36 377 21 C392 0 419 -13 449 -13 C510 -13 553 31 567 108 L540 109 C536 71 515 41 492 41 C462 41 442 77 442 131 L442 500 Z " />
<glyph glyph-name="paragraph" unicode="&#xb6;" horiz-adv-x="588" d="M114 -92 L226 -92 L366 565 L436 565 L297 -92 L409 -92 L548 565 L612 565 L634 667 L316 667 C232 667 170 649 127 612 C83 573 54 509 54 448 C54 370 107 321 190 321 L202 321 L114 -92 Z " />
<glyph glyph-name="periodcentered" unicode="&#xb7;" horiz-adv-x="307" d="M154 326 C95 326 43 275 43 216 C43 171 70 143 113 143 C168 143 221 197 221 254 C221 295 193 326 154 326 L154 326 Z " />
<glyph glyph-name="cedilla" unicode="&#xb8;" horiz-adv-x="475" d="M-11 -182 C55 -217 96 -230 140 -230 C215 -230 273 -180 273 -115 C273 -74 248 -49 207 -49 C197 -49 181 -50 166 -53 L178 0 L133 0 L112 -98 C124 -96 136 -94 142 -94 C164 -94 177 -105 177 -123 C177 -151 156 -171 126 -171 C94 -171 63 -159 23 -130 L-11 -182 Z " />
<glyph glyph-name="onesuperior" unicode="&#xb9;" horiz-adv-x="354" d="M109 513 L169 513 L134 350 C128 320 126 318 91 316 L78 316 L68 267 L274 267 L284 316 L273 316 C253 316 245 319 245 327 C245 332 245 335 246 339 L303 605 L212 605 C195 578 169 566 119 562 L109 513 Z " />
<glyph glyph-name="ordmasculine" unicode="&#xba;" horiz-adv-x="384" d="M256 622 C127 622 38 544 38 431 C38 361 95 318 188 318 C314 318 404 397 404 506 C404 578 348 622 256 622 L256 622 Z M241 561 C258 561 265 552 265 529 C265 508 256 463 245 425 C236 394 222 379 203 379 C185 379 178 388 178 412 C178 432 187 478 198 515 C207 546 221 561 241 561 L241 561 Z " />
<glyph glyph-name="guillemotright" unicode="&#xbb;" horiz-adv-x="476" d="M287 67 C299 80 309 92 322 106 C349 136 364 152 367 157 C409 205 422 226 422 247 C422 269 399 327 360 406 L265 406 C276 323 279 294 279 266 C279 232 269 204 237 153 L186 67 L287 67 Z M82 67 C152 145 152 145 163 157 C206 206 218 226 218 246 C218 269 195 328 155 406 L60 406 C72 325 75 294 75 266 C75 232 65 204 33 153 C21 134 3 104 -19 67 L82 67 Z " />
<glyph glyph-name="onequarter" unicode="&#xbc;" horiz-adv-x="863" d="M109 513 L169 513 L134 350 C129 320 127 318 88 316 L74 316 L64 267 L279 267 L290 316 L278 316 C254 316 244 320 245 328 C245 331 246 334 247 339 L304 605 L213 605 C195 578 170 566 120 562 L109 513 Z M130 -17 L218 -17 L734 622 L645 622 L130 -17 Z M743 97 L794 97 L804 144 L753 144 L794 339 L692 339 L489 156 L477 97 L640 97 L637 83 C631 53 629 51 588 49 L573 49 L563 0 L773 0 L783 49 L770 49 C745 49 736 52 736 61 C736 64 736 68 737 72 L743 97 Z M546 144 L676 263 L650 144 L546 144 Z " />
<glyph glyph-name="onehalf" unicode="&#xbd;" horiz-adv-x="863" d="M109 513 L169 513 L134 350 C129 320 127 318 88 316 L74 316 L64 267 L279 267 L290 316 L278 316 C254 316 244 320 245 328 C245 331 246 334 247 339 L304 605 L213 605 C195 578 170 566 120 562 L109 513 Z M130 -17 L218 -17 L734 622 L645 622 L130 -17 Z M523 0 C532 12 539 16 550 16 C559 16 569 14 578 12 C644 -8 649 -9 678 -9 C716 -9 745 6 765 34 C778 53 784 71 794 119 L739 119 C731 87 723 76 706 76 C703 76 699 76 697 77 C648 89 647 89 629 89 C606 89 590 85 556 70 C573 95 582 99 662 120 C760 145 808 189 808 255 C808 312 760 348 685 348 C592 348 513 288 513 216 C513 189 529 174 557 174 C594 174 623 202 623 236 C623 258 613 265 587 266 C605 282 620 288 640 288 C669 288 685 275 685 253 C685 221 666 199 612 169 C513 114 480 76 466 0 L523 0 Z " />
<glyph glyph-name="threequarters" unicode="&#xbe;" horiz-adv-x="863" d="M169 419 C203 418 216 407 216 381 C216 337 185 308 138 308 C117 308 107 311 90 321 C128 326 144 342 144 373 C144 397 128 410 101 410 C60 410 25 375 25 334 C25 283 70 257 159 257 C268 257 339 306 339 381 C339 414 324 432 282 448 C335 466 360 496 360 539 C360 588 319 615 245 615 C188 615 143 601 110 575 C86 556 70 526 70 501 C70 476 86 462 114 462 C148 462 173 484 173 515 C173 534 165 542 145 543 C162 558 173 563 194 563 C224 563 241 548 241 521 C241 502 231 483 217 475 C208 470 200 468 179 466 L169 419 Z M124 -17 L213 -17 L732 622 L643 622 L124 -17 Z M742 97 L793 97 L803 144 L752 144 L793 339 L690 339 L486 156 L473 97 L638 97 L635 83 C629 53 627 51 586 49 L571 49 L560 0 L773 0 L783 49 L770 49 C744 49 735 52 735 61 C735 64 735 68 736 72 L742 97 Z M543 144 L674 263 L648 144 L543 144 Z " />
<glyph glyph-name="questiondown" unicode="&#xbf;" horiz-adv-x="561" d="M335 483 C281 483 228 429 228 372 C228 331 256 300 295 300 C354 300 405 352 405 411 C405 455 378 483 335 483 L335 483 Z M230 257 C218 210 209 199 159 166 C91 124 55 96 25 65 C-9 29 -30 -23 -30 -73 C-30 -166 41 -220 165 -220 C251 -220 323 -191 378 -133 C421 -87 447 -28 447 26 C447 85 420 114 366 114 C305 114 253 62 253 0 C253 -34 272 -54 305 -54 C314 -54 330 -52 346 -48 C323 -98 293 -119 248 -119 C208 -119 183 -94 183 -54 C183 -16 208 34 258 100 C328 189 331 195 340 257 L230 257 Z " />
<glyph glyph-name="Agrave" unicode="&#xc0;" horiz-adv-x="665" d="M254 0 L638 0 L658 94 L625 94 C582 97 579 100 573 165 L531 667 L302 667 L28 163 C0 112 -18 97 -54 94 L-79 94 L-99 0 L185 0 L205 94 L173 94 C146 94 132 100 132 110 C132 117 135 124 149 151 L183 214 L354 214 L361 143 L361 135 C361 98 356 94 303 94 L274 94 L254 0 Z M343 310 L232 310 L330 512 L343 310 Z M477 723 L534 723 L416 851 C397 872 384 879 367 879 C338 879 307 849 307 821 C307 803 320 786 342 777 L477 723 Z " />
<glyph glyph-name="Aacute" unicode="&#xc1;" horiz-adv-x="665" d="M254 0 L638 0 L658 94 L625 94 C582 97 579 100 573 165 L531 667 L302 667 L28 163 C0 112 -18 97 -54 94 L-79 94 L-99 0 L185 0 L205 94 L173 94 C146 94 132 100 132 110 C132 117 135 124 149 151 L183 214 L354 214 L361 143 L361 135 C361 98 356 94 303 94 L274 94 L254 0 Z M343 310 L232 310 L330 512 L343 310 Z M355 723 L512 777 C548 790 570 814 570 839 C570 863 554 879 531 879 C514 879 498 872 471 851 L298 723 L355 723 Z " />
<glyph glyph-name="Acircumflex" unicode="&#xc2;" horiz-adv-x="665" d="M254 0 L638 0 L658 94 L625 94 C582 97 579 100 573 165 L531 667 L302 667 L28 163 C0 112 -18 97 -54 94 L-79 94 L-99 0 L185 0 L205 94 L173 94 C146 94 132 100 132 110 C132 117 135 124 149 151 L183 214 L354 214 L361 143 L361 135 C361 98 356 94 303 94 L274 94 L254 0 Z M343 310 L232 310 L330 512 L343 310 Z M256 723 L305 723 L432 782 L533 723 L583 723 L512 869 L389 869 L256 723 Z " />
<glyph glyph-name="Atilde" unicode="&#xc3;" horiz-adv-x="665" d="M254 0 L638 0 L658 94 L625 94 C582 97 579 100 573 165 L531 667 L302 667 L28 163 C0 112 -18 97 -54 94 L-79 94 L-99 0 L185 0 L205 94 L173 94 C146 94 132 100 132 110 C132 117 135 124 149 151 L183 214 L354 214 L361 143 L361 135 C361 98 356 94 303 94 L274 94 L254 0 Z M343 310 L232 310 L330 512 L343 310 Z M296 723 C311 753 327 766 350 766 C360 766 370 765 381 761 L435 746 C446 743 457 741 467 741 C496 741 523 752 547 774 C571 797 584 818 606 869 L567 869 C548 837 535 827 512 827 C505 827 497 828 490 830 L433 846 C421 849 409 851 396 851 C334 851 296 816 256 723 L296 723 Z " />
<glyph glyph-name="Adieresis" unicode="&#xc4;" horiz-adv-x="665" d="M254 0 L638 0 L658 94 L625 94 C582 97 579 100 573 165 L531 667 L302 667 L28 163 C0 112 -18 97 -54 94 L-79 94 L-99 0 L185 0 L205 94 L173 94 C146 94 132 100 132 110 C132 117 135 124 149 151 L183 214 L354 214 L361 143 L361 135 C361 98 356 94 303 94 L274 94 L254 0 Z M343 310 L232 310 L330 512 L343 310 Z M367 878 C318 878 271 834 271 788 C271 751 295 726 331 726 C379 726 426 770 426 815 C426 850 400 878 367 878 L367 878 Z M565 878 C516 878 469 834 469 788 C469 751 493 726 529 726 C578 726 624 770 624 816 C624 850 598 878 565 878 L565 878 Z " />
<glyph glyph-name="Aring" unicode="&#xc5;" horiz-adv-x="665" d="M254 0 L638 0 L658 94 L625 94 C581 97 579 100 573 165 L528 654 L299 654 L28 163 C0 112 -17 98 -54 94 L-79 94 L-99 0 L185 0 L205 94 L173 94 C146 94 132 100 132 110 C132 117 135 124 149 151 L183 214 L354 214 L361 143 L361 135 C361 98 356 94 303 94 L274 94 L254 0 Z M343 310 L232 310 L330 512 L343 310 Z M464 922 C388 922 320 859 320 788 C320 732 358 691 410 691 C483 691 555 760 555 831 C555 884 517 922 464 922 L464 922 Z M448 851 C469 850 483 835 483 814 C483 788 455 761 427 761 C406 761 391 777 391 798 C391 825 420 853 448 851 L448 851 Z " />
<glyph glyph-name="AE" unicode="&#xc6;" horiz-adv-x="1047" d="M391 214 L378 152 C368 101 362 95 318 94 L285 94 L265 0 L923 0 L982 275 L880 275 C833 113 804 88 666 94 L574 94 L618 301 L646 301 C688 301 703 290 703 256 C703 245 701 224 696 191 L771 191 L835 495 L760 495 C740 410 724 393 664 389 L636 389 L675 573 L757 573 C888 577 913 553 911 419 L1009 419 L1062 667 L253 667 L232 573 L266 573 C307 573 314 570 314 555 C314 546 309 534 299 521 L35 159 C-2 112 -25 97 -66 94 L-89 94 L-109 0 L196 0 L216 94 L186 94 C160 94 146 100 146 110 C146 119 154 135 164 150 L210 214 L391 214 Z M411 310 L276 310 L450 573 L467 573 L411 310 Z " />
<glyph glyph-name="Ccedilla" unicode="&#xc7;" horiz-adv-x="698" d="M288 -20 C368 -21 437 -4 497 32 C581 87 616 139 650 258 L548 258 C528 194 514 166 483 135 C449 100 407 80 366 80 C306 80 274 120 274 193 C274 250 297 366 324 447 C353 535 405 585 468 585 C519 585 549 558 560 501 C565 479 565 466 565 402 L678 402 L736 676 L633 676 L610 640 C548 678 513 687 438 687 C320 687 214 640 137 553 C62 469 16 344 16 227 C16 81 90 2 244 -17 L227 -99 C238 -97 251 -95 257 -95 C279 -95 292 -106 292 -124 C292 -151 270 -171 241 -171 C209 -171 178 -159 137 -130 L103 -182 C169 -217 210 -230 255 -230 C331 -230 390 -180 390 -117 C390 -76 363 -50 322 -50 C312 -50 296 -52 281 -54 L288 -20 Z " />
<glyph glyph-name="Egrave" unicode="&#xc8;" horiz-adv-x="736" d="M749 667 L85 667 L65 573 L93 573 C126 573 136 567 136 550 C136 544 135 538 130 515 L53 152 C44 101 37 95 -7 94 L-37 94 L-57 0 L611 0 L669 275 L565 275 C519 114 488 88 348 94 L258 94 L302 301 L327 301 C370 301 385 290 385 256 C385 244 383 224 377 191 L454 191 L519 495 L442 495 C422 410 406 393 344 389 L320 389 L359 573 L438 573 C572 577 597 553 596 419 L696 419 L749 667 Z M493 723 L550 723 L432 851 C413 872 400 879 382 879 C353 879 322 849 322 821 C322 803 335 787 358 777 L493 723 Z " />
<glyph glyph-name="Eacute" unicode="&#xc9;" horiz-adv-x="736" d="M749 667 L85 667 L65 573 L93 573 C126 573 136 567 136 550 C136 544 135 538 130 515 L53 152 C44 101 37 95 -7 94 L-37 94 L-57 0 L611 0 L669 275 L565 275 C519 114 488 88 348 94 L258 94 L302 301 L327 301 C370 301 385 290 385 256 C385 244 383 224 377 191 L454 191 L519 495 L442 495 C422 410 406 393 344 389 L320 389 L359 573 L438 573 C572 577 597 553 596 419 L696 419 L749 667 Z M390 723 L547 777 C583 790 605 814 605 839 C605 863 589 879 566 879 C549 879 533 872 506 851 L333 723 L390 723 Z " />
<glyph glyph-name="Ecircumflex" unicode="&#xca;" horiz-adv-x="736" d="M749 667 L85 667 L65 573 L93 573 C126 573 136 567 136 550 C136 544 135 538 130 515 L53 152 C44 101 37 95 -7 94 L-37 94 L-57 0 L611 0 L669 275 L565 275 C519 114 488 88 348 94 L258 94 L302 301 L327 301 C370 301 385 290 385 256 C385 244 383 224 377 191 L454 191 L519 495 L442 495 C422 410 406 393 344 389 L320 389 L359 573 L438 573 C572 577 597 553 596 419 L696 419 L749 667 Z M287 723 L336 723 L463 782 L564 723 L614 723 L543 869 L420 869 L287 723 Z " />
<glyph glyph-name="Edieresis" unicode="&#xcb;" horiz-adv-x="736" d="M749 667 L85 667 L65 573 L93 573 C126 573 136 567 136 550 C136 544 135 538 130 515 L53 152 C44 101 37 95 -7 94 L-37 94 L-57 0 L611 0 L669 275 L565 275 C519 114 488 88 348 94 L258 94 L302 301 L327 301 C370 301 385 290 385 256 C385 244 383 224 377 191 L454 191 L519 495 L442 495 C422 410 406 393 344 389 L320 389 L359 573 L438 573 C572 577 597 553 596 419 L696 419 L749 667 Z M387 878 C338 878 291 834 291 788 C291 751 315 726 351 726 C399 726 446 770 446 816 C446 850 420 878 387 878 L387 878 Z M585 878 C536 878 489 834 489 788 C489 751 514 726 549 726 C598 726 644 770 644 816 C644 850 618 878 585 878 L585 878 Z " />
<glyph glyph-name="Igrave" unicode="&#xcc;" horiz-adv-x="415" d="M-52 0 L325 0 L345 94 L315 94 C283 94 273 100 273 118 C273 123 275 133 279 152 L356 515 C366 565 373 572 417 573 L446 573 L466 667 L90 667 L70 573 L99 573 C131 573 141 567 141 550 C141 543 139 531 136 515 L59 152 C49 102 41 95 -3 94 L-32 94 L-52 0 Z M332 723 L389 723 L271 851 C252 872 240 879 222 879 C193 879 162 849 162 821 C162 803 175 787 198 777 L332 723 Z " />
<glyph glyph-name="Iacute" unicode="&#xcd;" horiz-adv-x="415" d="M-52 0 L325 0 L345 94 L315 94 C283 94 273 100 273 118 C273 123 275 133 279 152 L356 515 C366 565 373 572 417 573 L446 573 L466 667 L90 667 L70 573 L99 573 C131 573 141 567 141 550 C141 543 139 531 136 515 L59 152 C49 102 41 95 -3 94 L-32 94 L-52 0 Z M242 723 L400 777 C435 790 457 814 457 839 C457 863 441 879 418 879 C401 879 385 872 358 851 L185 723 L242 723 Z " />
<glyph glyph-name="Icircumflex" unicode="&#xce;" horiz-adv-x="415" d="M-52 0 L325 0 L345 94 L315 94 C283 94 273 100 273 118 C273 123 275 133 279 152 L356 515 C366 565 373 572 417 573 L446 573 L466 667 L90 667 L70 573 L99 573 C131 573 141 567 141 550 C141 543 139 531 136 515 L59 152 C49 102 41 95 -3 94 L-32 94 L-52 0 Z M127 723 L176 723 L302 782 L404 723 L453 723 L382 869 L260 869 L127 723 Z " />
<glyph glyph-name="Idieresis" unicode="&#xcf;" horiz-adv-x="415" d="M-52 0 L325 0 L345 94 L315 94 C283 94 273 100 273 118 C273 123 275 133 279 152 L356 515 C366 565 373 572 417 573 L446 573 L466 667 L90 667 L70 573 L99 573 C131 573 141 567 141 550 C141 543 139 531 136 515 L59 152 C49 102 41 95 -3 94 L-32 94 L-52 0 Z M231 878 C182 878 135 834 135 788 C135 751 159 726 195 726 C243 726 290 770 290 816 C290 850 264 878 231 878 L231 878 Z M420 878 C371 878 324 834 324 788 C324 751 349 726 384 726 C433 726 479 770 479 816 C479 850 453 878 420 878 L420 878 Z " />
<glyph glyph-name="Eth" unicode="&#xd0;" horiz-adv-x="769" d="M-53 0 L294 0 C448 0 540 31 620 108 C696 182 746 311 746 431 C746 503 728 554 688 595 C637 647 566 667 436 667 L89 667 L69 573 L98 573 C130 573 140 567 140 550 C140 544 139 536 134 515 L108 391 L17 391 L-1 306 L90 306 L57 152 C48 101 42 95 -3 94 L-33 94 L-53 0 Z M263 97 L308 306 L401 306 L419 391 L326 391 L364 570 L418 570 C474 570 499 538 499 468 C499 409 482 316 455 235 C425 140 382 97 317 97 L263 97 Z " />
<glyph glyph-name="Ntilde" unicode="&#xd1;" horiz-adv-x="769" d="M398 667 L85 667 L65 572 L95 572 C128 572 139 566 139 548 C139 544 138 536 133 515 L56 152 C46 102 38 95 -7 94 L-37 94 L-57 0 L222 0 L243 94 L215 94 C183 94 172 100 172 118 C172 124 174 138 177 152 L246 478 L388 0 L608 0 L717 515 C727 565 735 572 780 572 L802 572 L822 667 L543 667 L523 572 L558 572 C591 572 602 566 602 549 C602 545 602 545 595 515 L532 218 L398 667 Z M347 723 C362 753 379 766 402 766 C412 766 421 765 432 761 L487 746 C498 743 509 741 519 741 C547 741 574 752 598 774 C622 797 636 818 658 869 L618 869 C599 837 587 827 563 827 C557 827 549 828 541 830 L485 846 C473 849 461 851 447 851 C386 851 347 816 307 723 L347 723 Z " />
<glyph glyph-name="Ograve" unicode="&#xd2;" horiz-adv-x="797" d="M473 687 C336 687 222 641 140 551 C66 471 21 353 21 238 C21 170 38 118 76 73 C127 10 207 -20 322 -20 C462 -20 572 24 657 116 C730 195 776 314 776 428 C776 497 759 550 721 594 C668 658 590 687 473 687 L473 687 Z M452 586 C502 586 528 549 528 477 C528 423 505 304 478 220 C450 132 401 82 345 82 C294 82 268 119 268 192 C268 244 292 366 318 448 C346 535 395 586 452 586 L452 586 Z M527 723 L584 723 L466 851 C447 872 434 879 416 879 C387 879 356 849 356 821 C356 803 369 787 392 777 L527 723 Z " />
<glyph glyph-name="Oacute" unicode="&#xd3;" horiz-adv-x="797" d="M473 687 C336 687 222 641 140 551 C66 471 21 353 21 238 C21 170 38 118 76 73 C127 10 207 -20 322 -20 C462 -20 572 24 657 116 C730 195 776 314 776 428 C776 497 759 550 721 594 C668 658 590 687 473 687 L473 687 Z M452 586 C502 586 528 549 528 477 C528 423 505 304 478 220 C450 132 401 82 345 82 C294 82 268 119 268 192 C268 244 292 366 318 448 C346 535 395 586 452 586 L452 586 Z M424 723 L581 777 C617 790 639 814 639 839 C639 863 623 879 600 879 C583 879 567 872 540 851 L367 723 L424 723 Z " />
<glyph glyph-name="Ocircumflex" unicode="&#xd4;" horiz-adv-x="797" d="M473 687 C336 687 222 641 140 551 C66 471 21 353 21 238 C21 170 38 118 76 73 C127 10 207 -20 322 -20 C462 -20 572 24 657 116 C730 195 776 314 776 428 C776 497 759 550 721 594 C668 658 590 687 473 687 L473 687 Z M452 586 C502 586 528 549 528 477 C528 423 505 304 478 220 C450 132 401 82 345 82 C294 82 268 119 268 192 C268 244 292 366 318 448 C346 535 395 586 452 586 L452 586 Z M321 723 L370 723 L497 782 L598 723 L648 723 L577 869 L454 869 L321 723 Z " />
<glyph glyph-name="Otilde" unicode="&#xd5;" horiz-adv-x="797" d="M473 687 C336 687 222 641 140 551 C66 471 21 353 21 238 C21 170 38 118 76 73 C127 10 207 -20 322 -20 C462 -20 572 24 657 116 C730 195 776 314 776 428 C776 497 759 550 721 594 C668 658 590 687 473 687 L473 687 Z M452 586 C502 586 528 549 528 477 C528 423 505 304 478 220 C450 132 401 82 345 82 C294 82 268 119 268 192 C268 244 292 366 318 448 C346 535 395 586 452 586 L452 586 Z M365 723 C380 753 396 766 419 766 C429 766 438 765 450 761 L504 746 C515 743 526 741 536 741 C565 741 592 752 616 774 C640 797 653 818 675 869 L636 869 C617 837 604 827 581 827 C574 827 566 828 559 830 L502 846 C490 849 478 851 465 851 C403 851 365 816 325 723 L365 723 Z " />
<glyph glyph-name="Odieresis" unicode="&#xd6;" horiz-adv-x="797" d="M473 687 C336 687 222 641 140 551 C66 471 21 353 21 238 C21 170 38 118 76 73 C127 10 207 -20 322 -20 C462 -20 572 24 657 116 C730 195 776 314 776 428 C776 497 759 550 721 594 C668 658 590 687 473 687 L473 687 Z M453 586 C502 586 528 548 528 477 C528 423 505 304 478 220 C450 132 401 82 345 82 C294 82 268 119 268 191 C268 244 292 365 318 448 C346 536 395 586 453 586 L453 586 Z M423 878 C374 878 327 834 327 788 C327 751 351 726 387 726 C435 726 482 770 482 815 C482 850 455 878 423 878 L423 878 Z M621 878 C572 878 525 834 525 788 C525 751 549 726 585 726 C634 726 680 770 680 816 C680 850 654 878 621 878 L621 878 Z " />
<glyph glyph-name="multiply" unicode="&#xd7;" horiz-adv-x="613" d="M48 178 L119 82 L283 223 L387 82 L498 178 L394 319 L558 460 L488 556 L324 415 L220 556 L108 460 L212 319 L48 178 Z " />
<glyph glyph-name="Oslash" unicode="&#xd8;" horiz-adv-x="797" d="M765 707 L679 633 C630 669 562 687 474 687 C335 687 225 642 141 551 C67 471 22 353 22 240 C22 182 32 141 58 98 L-32 20 L11 -46 L110 39 C164 -2 229 -20 324 -20 C463 -20 573 25 657 116 C731 196 776 314 776 427 C776 489 764 532 734 577 L810 642 L765 707 Z M281 290 C293 356 304 401 319 448 C347 535 396 586 452 586 C497 586 520 560 527 502 L281 290 Z M519 392 C482 174 430 82 346 82 C298 82 274 111 269 176 L519 392 Z " />
<glyph glyph-name="Ugrave" unicode="&#xd9;" horiz-adv-x="736" d="M486 573 L517 573 C549 573 560 567 560 550 C560 544 558 531 555 516 L491 214 C471 122 429 83 348 83 C297 83 270 107 270 152 C270 168 272 185 280 222 L343 516 C353 566 360 573 404 573 L437 573 L457 667 L76 667 L56 573 L86 573 C118 573 128 567 128 550 C128 544 126 531 123 516 L53 189 C49 171 47 151 47 137 C47 38 135 -20 284 -20 C474 -20 592 56 622 197 L690 519 C699 566 708 573 752 573 L779 573 L799 667 L506 667 L486 573 Z M493 723 L550 723 L432 851 C413 872 401 879 383 879 C354 879 323 849 323 821 C323 803 336 786 359 777 L493 723 Z " />
<glyph glyph-name="Uacute" unicode="&#xda;" horiz-adv-x="736" d="M486 573 L517 573 C549 573 560 567 560 550 C560 544 558 531 555 516 L491 214 C471 122 429 83 348 83 C297 83 270 107 270 152 C270 168 272 185 280 222 L343 516 C353 566 360 573 404 573 L437 573 L457 667 L76 667 L56 573 L86 573 C118 573 128 567 128 550 C128 544 126 531 123 516 L53 189 C49 171 47 151 47 137 C47 38 135 -20 284 -20 C474 -20 592 56 622 197 L690 519 C699 566 708 573 752 573 L779 573 L799 667 L506 667 L486 573 Z M390 723 L548 777 C584 790 606 814 606 839 C606 863 590 879 567 879 C550 879 533 871 506 851 L333 723 L390 723 Z " />
<glyph glyph-name="Ucircumflex" unicode="&#xdb;" horiz-adv-x="736" d="M486 573 L517 573 C549 573 560 567 560 550 C560 544 558 531 555 516 L491 214 C471 122 429 83 348 83 C297 83 270 107 270 152 C270 168 272 185 280 222 L343 516 C353 566 360 573 404 573 L437 573 L457 667 L76 667 L56 573 L86 573 C118 573 128 567 128 550 C128 544 126 531 123 516 L53 189 C49 171 47 151 47 137 C47 38 135 -20 284 -20 C474 -20 592 56 622 197 L690 519 C699 566 708 573 752 573 L779 573 L799 667 L506 667 L486 573 Z M287 723 L337 723 L463 782 L565 723 L614 723 L543 869 L420 869 L287 723 Z " />
<glyph glyph-name="Udieresis" unicode="&#xdc;" horiz-adv-x="736" d="M486 573 L517 573 C549 573 560 567 560 550 C560 544 558 531 555 516 L491 214 C471 122 429 83 348 83 C297 83 270 107 270 152 C270 168 272 185 280 222 L343 516 C353 566 360 573 404 573 L437 573 L457 667 L76 667 L56 573 L86 573 C118 573 128 567 128 550 C128 544 126 531 123 516 L53 189 C49 171 47 151 47 137 C47 38 135 -20 284 -20 C474 -20 592 56 622 197 L690 519 C699 566 708 573 752 573 L779 573 L799 667 L506 667 L486 573 Z M402 878 C353 878 306 834 306 788 C306 751 331 726 366 726 C415 726 462 770 462 816 C462 850 435 878 402 878 L402 878 Z M601 878 C551 878 504 834 504 788 C504 751 529 726 565 726 C613 726 660 770 660 816 C660 851 634 878 601 878 L601 878 Z " />
<glyph glyph-name="Yacute" unicode="&#xdd;" horiz-adv-x="651" d="M27 573 L46 573 C82 571 101 555 118 510 L200 268 L175 152 C166 101 160 95 115 94 L82 94 L62 0 L447 0 L467 94 L433 94 C401 94 391 100 391 117 C391 124 393 135 396 152 L421 268 L607 506 C641 552 669 571 702 573 L722 573 L742 667 L458 667 L438 573 L465 573 C487 573 502 567 502 558 C502 551 494 534 485 523 L378 394 L328 521 C325 530 323 538 323 544 C323 563 340 573 373 573 L396 573 L416 667 L47 667 L27 573 Z M366 723 L524 777 C560 790 582 814 582 839 C582 863 566 879 543 879 C526 879 509 871 482 851 L309 723 L366 723 Z " />
<glyph glyph-name="Thorn" unicode="&#xde;" horiz-adv-x="708" d="M-57 0 L324 0 L344 94 L308 94 C274 94 263 100 263 118 C263 123 264 134 267 145 L269 154 L391 154 C510 154 571 172 623 222 C666 263 692 325 692 384 C692 423 681 455 659 477 C625 513 573 526 470 526 L348 526 L349 532 C357 566 368 573 410 573 L446 573 L466 667 L85 667 L65 573 L96 573 C132 573 143 567 142 547 C142 543 141 538 140 532 L58 145 C49 102 40 94 -5 94 L-37 94 L-57 0 Z M288 243 L329 435 L375 435 C440 435 463 419 463 376 C463 346 452 307 438 286 C417 255 387 243 331 243 L288 243 Z " />
<glyph glyph-name="germandbls" unicode="&#xdf;" horiz-adv-x="627" d="M-33 88 L-52 0 L208 0 L312 490 C324 548 331 567 348 585 C358 596 373 603 387 603 C410 603 424 588 424 561 C424 537 417 509 404 487 C389 461 376 453 341 449 L322 361 C342 360 354 359 358 357 C382 349 395 328 395 300 C395 272 382 200 364 125 C355 88 348 76 337 76 C332 76 328 82 328 88 C328 95 329 104 332 116 L344 174 L273 174 L260 113 C257 100 256 87 256 73 C256 53 259 40 266 28 C280 3 315 -13 357 -13 C420 -13 478 19 522 78 C561 132 587 206 587 268 C587 308 578 337 557 362 C538 385 516 396 466 411 C530 429 558 445 583 478 C605 506 617 541 617 575 C617 647 546 687 417 687 C322 687 250 666 195 623 C147 586 129 549 108 449 L41 135 C33 96 24 88 -16 88 L-33 88 Z " />
<glyph glyph-name="agrave" unicode="&#xe0;" horiz-adv-x="599" d="M559 189 L492 189 L480 133 C475 109 470 103 456 103 C448 103 441 108 441 115 C441 117 442 123 444 133 L482 313 C488 340 492 369 492 384 C492 451 423 486 290 486 C139 486 36 425 36 335 C36 295 63 272 110 272 C168 272 211 308 211 357 C211 381 202 393 173 404 C200 417 214 421 236 421 C281 421 306 399 306 361 C306 340 299 318 287 304 C267 280 237 269 163 258 C80 246 35 227 3 191 C-21 164 -35 123 -35 80 C-35 16 8 -17 88 -17 C160 -17 214 4 263 50 C287 0 315 -17 377 -17 C427 -17 467 -4 496 23 C522 46 534 72 546 128 L559 189 Z M267 157 C258 114 233 87 199 87 C177 87 164 101 164 124 C164 145 178 166 202 178 L240 197 C246 200 262 208 279 218 L267 157 Z M425 534 L314 686 C288 722 270 735 245 735 C209 735 175 703 175 668 C175 649 187 634 217 618 L367 534 L425 534 Z " />
<glyph glyph-name="aacute" unicode="&#xe1;" horiz-adv-x="599" d="M559 189 L492 189 L480 133 C475 109 470 103 456 103 C448 103 441 108 441 115 C441 117 442 123 444 133 L482 313 C488 340 492 369 492 384 C492 451 423 486 290 486 C139 486 36 425 36 335 C36 295 63 272 110 272 C168 272 211 308 211 357 C211 381 202 393 173 404 C200 417 214 421 236 421 C281 421 306 399 306 361 C306 340 299 318 287 304 C267 280 237 269 163 258 C80 246 35 227 3 191 C-21 164 -35 123 -35 80 C-35 16 8 -17 88 -17 C160 -17 214 4 263 50 C287 0 315 -17 377 -17 C427 -17 467 -4 496 23 C522 46 534 72 546 128 L559 189 Z M267 157 C258 114 233 87 199 87 C177 87 164 101 164 124 C164 145 178 166 202 178 L240 197 C246 200 262 208 279 218 L267 157 Z M229 534 L287 534 L472 617 C520 639 540 661 540 691 C540 717 522 735 495 735 C469 735 447 723 404 686 L229 534 Z " />
<glyph glyph-name="acircumflex" unicode="&#xe2;" horiz-adv-x="599" d="M559 189 L492 189 L480 133 C475 109 470 103 456 103 C448 103 441 108 441 115 C441 117 442 123 444 133 L482 313 C488 340 492 369 492 384 C492 451 423 486 290 486 C139 486 36 425 36 335 C36 295 63 272 110 272 C168 272 211 308 211 357 C211 381 202 393 173 404 C200 417 214 421 236 421 C281 421 306 399 306 361 C306 340 299 318 287 304 C267 280 237 269 163 258 C80 246 35 227 3 191 C-21 164 -35 123 -35 80 C-35 16 8 -17 88 -17 C160 -17 214 4 263 50 C287 0 315 -17 377 -17 C427 -17 467 -4 496 23 C522 46 534 72 546 128 L559 189 Z M267 157 C258 114 233 87 199 87 C177 87 164 101 164 124 C164 145 178 166 202 178 L240 197 C246 200 262 208 279 218 L267 157 Z M155 534 L207 534 L339 622 L434 534 L485 534 L408 724 L313 724 L155 534 Z " />
<glyph glyph-name="atilde" unicode="&#xe3;" horiz-adv-x="599" d="M559 189 L492 189 L480 133 C475 109 470 103 456 103 C448 103 441 108 441 115 C441 117 442 123 444 133 L482 313 C488 340 492 369 492 384 C492 451 423 486 290 486 C139 486 36 425 36 335 C36 295 63 272 110 272 C168 272 211 308 211 357 C211 381 202 393 173 404 C200 417 214 421 236 421 C281 421 306 399 306 361 C306 340 299 318 287 304 C267 280 237 269 163 258 C80 246 35 227 3 191 C-21 164 -35 123 -35 80 C-35 16 8 -17 88 -17 C160 -17 214 4 263 50 C287 0 315 -17 377 -17 C427 -17 467 -4 496 23 C522 46 534 72 546 128 L559 189 Z M267 157 C258 114 233 87 199 87 C177 87 164 101 164 124 C164 145 178 166 202 178 L240 197 C246 200 262 208 279 218 L267 157 Z M195 549 C211 583 229 597 253 597 C264 597 273 596 285 592 L342 576 C353 573 364 571 375 571 C405 571 435 583 458 605 C482 629 496 651 522 708 L480 708 C459 671 446 661 422 661 C415 661 406 662 398 664 L340 681 C327 684 314 686 300 686 C274 686 248 677 227 661 C198 639 180 613 152 549 L195 549 Z " />
<glyph glyph-name="adieresis" unicode="&#xe4;" horiz-adv-x="599" d="M559 189 L492 189 L480 133 C475 109 470 103 456 103 C448 103 441 108 441 115 C441 117 442 123 444 133 L482 313 C488 340 492 369 492 384 C492 451 423 486 290 486 C139 486 36 425 36 335 C36 295 63 272 110 272 C168 272 211 308 211 357 C211 381 202 393 173 404 C200 417 214 421 236 421 C281 421 306 399 306 361 C306 340 299 318 287 304 C267 280 237 269 163 258 C80 246 35 227 3 191 C-21 164 -35 123 -35 80 C-35 16 8 -17 88 -17 C160 -17 214 4 263 50 C287 0 315 -17 377 -17 C427 -17 467 -4 496 23 C522 46 534 72 546 128 L559 189 Z M267 157 C258 114 233 87 199 87 C177 87 164 101 164 124 C164 145 178 166 202 178 L240 197 C246 200 262 208 279 218 L267 157 Z M263 715 C212 715 164 670 164 622 C164 584 190 559 229 559 C278 559 323 604 323 652 C323 688 298 715 263 715 L263 715 Z M464 715 C413 715 365 670 365 622 C365 584 391 559 430 559 C479 559 524 604 524 652 C524 688 499 715 464 715 L464 715 Z " />
<glyph glyph-name="aring" unicode="&#xe5;" horiz-adv-x="599" d="M559 189 L492 189 L480 133 C475 109 470 103 456 103 C448 103 441 108 441 115 C441 117 442 123 444 133 L482 313 C488 340 492 369 492 384 C492 451 423 486 290 486 C139 486 36 425 36 335 C36 295 63 272 110 272 C168 272 211 308 211 357 C211 381 202 393 173 404 C200 417 214 421 236 421 C281 421 306 399 306 361 C306 340 299 318 287 304 C267 280 237 269 163 258 C80 246 35 227 3 191 C-21 164 -35 123 -35 80 C-35 16 8 -17 88 -17 C160 -17 214 4 263 50 C287 0 315 -17 377 -17 C427 -17 467 -4 496 23 C522 46 534 72 546 128 L559 189 Z M267 157 C258 114 233 87 199 87 C177 87 164 101 164 124 C164 145 178 166 202 178 L240 197 C246 200 262 208 279 218 L267 157 Z M376 793 C285 793 204 717 204 631 C204 565 248 520 311 520 C399 520 482 599 482 683 C482 746 436 793 376 793 L376 793 Z M356 715 C384 713 402 694 402 667 C402 632 366 598 329 598 C301 598 283 617 283 645 C283 681 321 717 356 715 L356 715 Z " />
<glyph glyph-name="ae" unicode="&#xe6;" horiz-adv-x="802" d="M620 163 C593 101 561 74 513 74 C470 74 445 101 445 147 C445 160 447 178 453 207 L740 207 C749 248 755 294 755 316 C755 423 689 486 575 486 C525 486 494 477 430 442 C371 477 339 486 281 486 C140 486 36 422 36 335 C36 295 63 272 110 272 C168 272 211 308 211 357 C211 381 202 393 174 404 C198 417 212 420 234 420 C282 420 306 401 306 362 C306 341 299 318 287 304 C266 279 234 267 163 257 C77 246 35 228 3 191 C-21 163 -35 122 -35 82 C-35 16 11 -17 100 -17 C142 -17 184 -9 220 7 C249 19 268 34 305 69 C349 4 393 -18 475 -18 C541 -18 604 3 648 39 C682 66 703 97 732 163 L620 163 Z M472 294 C483 335 489 351 500 366 C514 385 540 398 562 398 C591 398 610 376 610 342 C610 332 607 312 604 294 L472 294 Z M268 156 C259 113 233 87 199 87 C178 87 164 101 164 124 C164 135 168 146 174 154 C186 169 186 169 241 197 C246 199 262 208 280 218 L268 156 Z " />
<glyph glyph-name="ccedilla" unicode="&#xe7;" horiz-adv-x="500" d="M186 -19 L197 -19 C247 -19 296 -6 339 18 C389 46 414 82 439 163 L325 163 C308 102 283 74 245 74 C214 74 197 97 197 137 C197 173 212 250 231 311 C248 368 279 397 321 397 C342 397 351 391 358 373 C312 367 283 333 283 285 C283 247 308 226 354 226 C426 226 477 280 477 357 C477 439 414 487 308 487 C217 487 135 454 79 394 C25 336 -9 250 -9 168 C-9 65 39 7 143 -14 L125 -98 C136 -96 149 -94 155 -94 C177 -94 190 -105 190 -123 C190 -151 169 -171 139 -171 C107 -171 77 -159 36 -130 L1 -182 C67 -217 108 -230 153 -230 C228 -230 286 -180 286 -115 C286 -74 260 -49 219 -49 C209 -49 194 -51 179 -53 L186 -19 Z " />
<glyph glyph-name="egrave" unicode="&#xe8;" horiz-adv-x="538" d="M356 163 C329 101 296 74 247 74 C202 74 176 101 176 147 C176 160 178 178 184 207 L479 207 C488 248 494 292 494 315 C494 423 423 487 304 487 C128 487 -9 348 -9 168 C-9 48 65 -18 199 -18 C271 -18 341 3 386 39 C421 66 443 98 472 163 L356 163 Z M203 294 C214 334 220 351 232 366 C247 385 272 398 295 398 C325 398 345 376 345 341 C345 332 342 312 339 294 L203 294 Z M394 534 L284 686 C257 722 239 735 214 735 C178 735 144 703 144 668 C144 649 156 634 186 618 L336 534 L394 534 Z " />
<glyph glyph-name="eacute" unicode="&#xe9;" horiz-adv-x="538" d="M356 163 C329 101 296 74 247 74 C202 74 176 101 176 147 C176 160 178 178 184 207 L479 207 C488 248 494 292 494 315 C494 423 423 487 304 487 C128 487 -9 348 -9 168 C-9 48 65 -18 199 -18 C271 -18 341 3 386 39 C421 66 443 98 472 163 L356 163 Z M203 294 C214 334 220 351 232 366 C247 385 272 398 295 398 C325 398 345 376 345 341 C345 332 342 312 339 294 L203 294 Z M204 534 L262 534 L448 617 C496 639 516 661 516 691 C516 717 498 735 471 735 C445 735 422 723 380 686 L204 534 Z " />
<glyph glyph-name="ecircumflex" unicode="&#xea;" horiz-adv-x="538" d="M356 163 C329 101 296 74 247 74 C202 74 176 101 176 147 C176 160 178 178 184 207 L479 207 C488 248 494 292 494 315 C494 423 423 487 304 487 C128 487 -9 348 -9 168 C-9 48 65 -18 199 -18 C271 -18 341 3 386 39 C421 66 443 98 472 163 L356 163 Z M203 294 C214 334 220 351 232 366 C247 385 272 398 295 398 C325 398 345 376 345 341 C345 332 342 312 339 294 L203 294 Z M147 534 L198 534 L330 622 L425 534 L477 534 L400 724 L305 724 L147 534 Z " />
<glyph glyph-name="edieresis" unicode="&#xeb;" horiz-adv-x="538" d="M356 163 C329 101 296 74 247 74 C202 74 176 101 176 147 C176 160 178 178 184 207 L479 207 C488 248 494 292 494 315 C494 423 423 487 304 487 C128 487 -9 348 -9 168 C-9 48 65 -18 199 -18 C271 -18 341 3 386 39 C421 66 443 98 472 163 L356 163 Z M203 294 C214 334 220 351 232 366 C247 385 272 398 295 398 C325 398 345 376 345 341 C345 332 342 312 339 294 L203 294 Z M253 715 C202 715 154 670 154 622 C154 584 180 559 219 559 C268 559 313 604 313 652 C313 688 288 715 253 715 L253 715 Z M454 715 C403 715 355 670 355 622 C355 584 381 559 420 559 C469 559 514 604 514 652 C514 688 489 715 454 715 L454 715 Z " />
<glyph glyph-name="igrave" unicode="&#xec;" horiz-adv-x="345" d="M-51 0 L258 0 L277 87 L262 87 C237 87 228 93 228 108 C228 116 229 123 231 134 L302 469 L49 469 L30 382 L49 382 C77 382 86 376 86 359 C86 351 85 343 83 335 L41 134 C32 95 24 88 -13 87 L-32 87 L-51 0 Z M302 534 L220 684 C200 723 185 735 160 735 C123 735 93 707 93 673 C93 654 105 636 130 618 L249 534 L302 534 Z " />
<glyph glyph-name="iacute" unicode="&#xed;" horiz-adv-x="344" d="M-52 0 L257 0 L276 87 L261 87 C236 87 227 93 227 108 C227 116 228 123 230 134 L301 469 L48 469 L29 382 L48 382 C76 382 85 376 85 359 C85 351 84 343 82 335 L40 134 C31 95 23 88 -14 87 L-33 87 L-52 0 Z M112 534 L164 534 L319 618 C363 642 384 667 384 696 C384 719 366 735 338 735 C314 735 294 723 257 684 L112 534 Z " />
<glyph glyph-name="icircumflex" unicode="&#xee;" horiz-adv-x="352" d="M-44 0 L265 0 L284 87 L269 87 C244 87 235 93 235 108 C235 116 236 123 238 134 L309 469 L56 469 L37 382 L56 382 C84 382 93 376 93 359 C93 351 92 343 90 335 L48 134 C39 95 31 88 -6 87 L-25 87 L-44 0 Z M56 534 L107 534 L229 622 L314 534 L365 534 L297 724 L204 724 L56 534 Z " />
<glyph glyph-name="idieresis" unicode="&#xef;" horiz-adv-x="352" d="M280 87 L265 87 C240 87 231 93 231 108 C231 116 232 123 234 134 L305 469 L52 469 L33 382 L52 382 C80 382 89 376 89 359 C89 351 88 343 86 335 L44 134 C35 95 27 88 -10 87 L-29 87 L-48 0 L261 0 L280 87 Z M156 715 C105 715 57 670 57 623 C57 584 83 559 122 559 C171 559 216 604 216 652 C216 688 191 715 156 715 L156 715 Z M346 715 C295 715 247 670 247 623 C247 584 273 559 312 559 C361 559 406 604 406 652 C406 688 381 715 346 715 L346 715 Z " />
<glyph glyph-name="eth" unicode="&#xf0;" horiz-adv-x="580" d="M240 667 C253 641 258 628 268 603 L188 573 L202 506 L291 540 C303 509 305 504 312 481 C303 483 300 483 293 483 C217 483 130 445 76 389 C24 334 -9 248 -9 166 C-9 52 75 -17 214 -17 C313 -17 400 18 460 80 C513 136 547 223 547 305 C547 348 536 391 515 431 C496 469 494 471 429 565 L414 586 L484 613 L470 680 L373 643 C365 655 365 655 356 667 L240 667 Z M302 394 C331 394 343 377 343 338 C343 303 328 225 309 159 C292 102 268 75 236 75 C207 75 195 92 195 131 C195 167 210 244 229 310 C246 367 270 394 302 394 L302 394 Z " />
<glyph glyph-name="ntilde" unicode="&#xf1;" horiz-adv-x="651" d="M590 87 L573 87 C548 87 539 93 539 109 C539 115 540 127 542 134 L579 308 C586 340 590 371 590 388 C590 446 541 482 462 482 C387 482 338 459 272 396 L287 469 L39 469 L20 382 L42 382 C67 382 76 376 76 361 C76 354 75 345 73 335 L30 134 C21 95 14 88 -21 87 L-42 87 L-61 0 L244 0 L262 87 L258 87 C233 85 222 92 222 108 C222 115 223 124 225 134 L258 288 C270 347 303 383 343 383 C371 383 387 367 387 339 C387 330 385 316 382 303 L347 134 C337 93 331 87 292 87 L273 0 L571 0 L590 87 Z M247 549 C263 583 280 597 305 597 C316 597 325 596 336 592 L393 576 C404 573 415 571 426 571 C457 571 486 583 510 605 C534 629 548 651 574 708 L531 708 C511 671 498 661 473 661 C466 661 458 662 450 664 L391 681 C378 684 366 686 352 686 C326 686 300 677 279 661 C250 639 232 613 204 549 L247 549 Z " />
<glyph glyph-name="ograve" unicode="&#xf2;" horiz-adv-x="580" d="M326 486 C224 486 136 452 76 389 C24 334 -9 248 -9 166 C-9 52 75 -17 214 -17 C313 -17 401 18 460 80 C513 136 546 219 546 299 C546 416 463 486 326 486 L326 486 Z M302 394 C331 394 343 377 343 338 C343 303 328 225 309 159 C292 102 268 75 236 75 C207 75 195 92 195 131 C195 167 210 244 229 310 C246 367 270 394 302 394 L302 394 Z M415 534 L304 686 C278 722 260 735 235 735 C199 735 165 703 165 668 C165 649 177 634 207 618 L357 534 L415 534 Z " />
<glyph glyph-name="oacute" unicode="&#xf3;" horiz-adv-x="580" d="M326 486 C224 486 136 452 76 389 C24 334 -9 248 -9 166 C-9 52 75 -17 214 -17 C313 -17 401 18 460 80 C513 136 546 219 546 299 C546 416 463 486 326 486 L326 486 Z M302 394 C331 394 343 377 343 338 C343 303 328 225 309 159 C292 102 268 75 236 75 C207 75 195 92 195 131 C195 167 210 244 229 310 C246 367 270 394 302 394 L302 394 Z M225 534 L283 534 L469 617 C516 638 536 661 536 691 C536 717 518 735 491 735 C465 735 444 723 400 686 L225 534 Z " />
<glyph glyph-name="ocircumflex" unicode="&#xf4;" horiz-adv-x="580" d="M326 486 C224 486 136 452 76 389 C24 334 -9 248 -9 166 C-9 52 75 -17 214 -17 C313 -17 401 18 460 80 C513 136 546 219 546 299 C546 416 463 486 326 486 L326 486 Z M302 394 C331 394 343 377 343 338 C343 303 328 225 309 159 C292 102 268 75 236 75 C207 75 195 92 195 131 C195 167 210 244 229 310 C246 367 270 394 302 394 L302 394 Z M167 534 L219 534 L351 622 L446 534 L498 534 L421 724 L325 724 L167 534 Z " />
<glyph glyph-name="otilde" unicode="&#xf5;" horiz-adv-x="580" d="M326 486 C224 486 136 452 76 389 C24 334 -9 248 -9 166 C-9 52 75 -17 214 -17 C313 -17 401 18 460 80 C513 136 546 219 546 299 C546 416 463 486 326 486 L326 486 Z M302 394 C331 394 343 377 343 338 C343 303 328 225 309 159 C292 102 268 75 236 75 C207 75 195 92 195 131 C195 167 210 244 229 310 C246 367 270 394 302 394 L302 394 Z M210 549 C227 583 244 597 269 597 C279 597 289 596 300 592 L357 576 C368 573 379 571 390 571 C421 571 450 583 473 605 C498 629 512 651 537 708 L495 708 C475 671 462 661 437 661 C430 661 422 662 414 664 L355 681 C342 684 330 686 316 686 C290 686 264 677 243 661 C214 639 196 613 168 549 L210 549 Z " />
<glyph glyph-name="odieresis" unicode="&#xf6;" horiz-adv-x="580" d="M325 486 C223 486 135 452 75 389 C23 334 -10 248 -10 166 C-10 52 74 -17 213 -17 C312 -17 400 18 459 80 C512 136 545 219 545 299 C545 416 462 486 325 486 L325 486 Z M301 394 C330 394 342 377 342 338 C342 303 327 225 308 159 C291 102 267 75 235 75 C206 75 194 92 194 131 C194 167 209 244 228 310 C245 367 269 394 301 394 L301 394 Z M274 715 C223 715 175 670 175 622 C175 584 201 559 240 559 C289 559 334 604 334 652 C334 688 309 715 274 715 L274 715 Z M476 715 C425 715 377 670 377 622 C377 584 403 559 442 559 C491 559 536 604 536 652 C536 688 511 715 476 715 L476 715 Z " />
<glyph glyph-name="divide" unicode="&#xf7;" horiz-adv-x="549" d="M273 126 C239 126 211 99 211 64 C211 30 238 2 273 2 C306 2 334 30 334 64 C334 98 306 126 273 126 L273 126 Z M273 525 C239 525 211 498 211 463 C211 429 238 401 273 401 C306 401 334 429 334 463 C334 497 306 525 273 525 L273 525 Z M10 294 L10 239 L536 239 L536 294 L10 294 Z " />
<glyph glyph-name="oslash" unicode="&#xf8;" horiz-adv-x="580" d="M528 517 L459 456 C421 476 375 486 322 486 C224 486 136 451 77 389 C24 334 -8 249 -8 166 C-8 124 -1 97 19 66 L-50 6 L-8 -50 L70 18 C108 -5 158 -17 216 -17 C406 -17 546 117 546 299 C546 346 537 378 513 410 L572 463 L528 517 Z M207 233 C233 358 258 402 304 402 C331 402 344 388 346 357 L207 233 Z M335 253 C307 113 282 67 234 67 C203 67 192 82 191 126 L335 253 Z " />
<glyph glyph-name="ugrave" unicode="&#xf9;" horiz-adv-x="651" d="M324 0 L565 0 L583 87 L566 87 C542 87 534 93 534 108 C534 115 535 127 537 134 L608 469 L347 469 L328 381 L348 381 C377 381 387 376 387 358 C387 353 386 343 384 335 L351 181 C339 123 308 86 270 86 C243 86 228 102 228 130 C228 139 230 153 232 166 L297 469 L39 469 L20 381 L36 381 C66 381 77 375 76 358 C76 351 75 343 73 335 L35 156 C28 125 24 94 24 76 C24 18 72 -17 151 -17 C224 -17 273 5 338 69 L324 0 Z M451 534 L340 686 C314 722 296 735 271 735 C235 735 201 703 201 668 C201 649 213 634 243 618 L393 534 L451 534 Z " />
<glyph glyph-name="uacute" unicode="&#xfa;" horiz-adv-x="651" d="M324 0 L565 0 L583 87 L566 87 C542 87 534 93 534 108 C534 115 535 127 537 134 L608 469 L347 469 L328 381 L348 381 C377 381 387 376 387 358 C387 353 386 343 384 335 L351 181 C339 123 308 86 270 86 C243 86 228 102 228 130 C228 139 230 153 232 166 L297 469 L39 469 L20 381 L36 381 C66 381 77 375 76 358 C76 351 75 343 73 335 L35 156 C28 125 24 94 24 76 C24 18 72 -17 151 -17 C224 -17 273 5 338 69 L324 0 Z M261 534 L319 534 L505 617 C553 639 573 661 573 691 C573 718 555 735 527 735 C502 735 479 723 436 686 L261 534 Z " />
<glyph glyph-name="ucircumflex" unicode="&#xfb;" horiz-adv-x="651" d="M324 0 L565 0 L583 87 L566 87 C542 87 534 93 534 108 C534 115 535 127 537 134 L608 469 L347 469 L328 381 L348 381 C377 381 387 376 387 358 C387 353 386 343 384 335 L351 181 C339 123 308 86 270 86 C243 86 228 102 228 130 C228 139 230 153 232 166 L297 469 L39 469 L20 381 L36 381 C66 381 77 375 76 358 C76 351 75 343 73 335 L35 156 C28 125 24 94 24 76 C24 18 72 -17 151 -17 C224 -17 273 5 338 69 L324 0 Z M194 534 L246 534 L378 622 L472 534 L524 534 L447 724 L352 724 L194 534 Z " />
<glyph glyph-name="udieresis" unicode="&#xfc;" horiz-adv-x="651" d="M324 0 L565 0 L583 87 L566 87 C542 87 534 93 534 108 C534 115 535 127 537 134 L608 469 L347 469 L328 381 L348 381 C377 381 387 376 387 358 C387 353 386 343 384 335 L351 181 C339 123 308 86 270 86 C243 86 228 102 228 130 C228 139 230 153 232 166 L297 469 L39 469 L20 381 L36 381 C66 381 77 375 76 358 C76 351 75 343 73 335 L35 156 C28 125 24 94 24 76 C24 18 72 -17 151 -17 C224 -17 273 5 338 69 L324 0 Z M313 715 C262 715 214 670 214 622 C214 584 240 559 279 559 C328 559 373 604 373 652 C373 688 348 715 313 715 L313 715 Z M514 715 C463 715 415 670 415 623 C415 584 441 559 480 559 C529 559 574 604 574 652 C574 688 549 715 514 715 L514 715 Z " />
<glyph glyph-name="yacute" unicode="&#xfd;" horiz-adv-x="547" d="M326 382 C372 379 381 376 381 362 C381 357 378 349 371 337 L276 174 L254 338 C252 350 251 358 251 359 C251 375 261 380 296 382 L314 469 L27 469 L9 382 L26 382 C55 380 60 373 74 306 L143 -51 C98 -117 61 -147 24 -147 C10 -147 3 -143 -6 -130 C43 -117 68 -88 68 -44 C68 -10 43 12 4 12 C-61 12 -111 -42 -111 -111 C-111 -176 -66 -214 13 -214 C103 -214 173 -162 249 -40 L477 329 C500 369 519 381 565 382 L583 469 L344 469 L326 382 Z M209 534 L267 534 L453 617 C501 639 521 661 521 691 C521 717 503 735 476 735 C450 735 427 723 384 686 L209 534 Z " />
<glyph glyph-name="thorn" unicode="&#xfe;" horiz-adv-x="612" d="M342 667 L86 667 L68 580 L87 580 C112 580 121 574 121 558 C121 552 120 539 118 533 L-12 -80 C-21 -119 -28 -126 -61 -127 L-80 -127 L-99 -214 L212 -214 L230 -127 C189 -127 181 -123 181 -103 C181 -96 182 -87 184 -80 L212 53 C244 3 277 -17 332 -17 C398 -17 462 19 506 83 C551 146 580 245 580 335 C580 432 529 485 437 485 C382 485 345 468 289 419 L342 667 Z M336 385 C360 385 371 367 371 330 C371 283 356 206 337 155 C319 108 300 87 274 87 C250 87 238 109 238 150 C238 187 260 286 277 324 C294 364 315 385 336 385 L336 385 Z " />
<glyph glyph-name="ydieresis" unicode="&#xff;" horiz-adv-x="547" d="M326 382 C372 379 381 376 381 362 C381 357 378 349 371 337 L276 174 L254 338 C252 350 251 358 251 359 C251 375 261 380 296 382 L314 469 L27 469 L9 382 L26 382 C55 380 60 373 74 306 L143 -51 C98 -117 61 -147 24 -147 C10 -147 3 -143 -6 -130 C43 -117 68 -88 68 -44 C68 -10 43 12 4 12 C-61 12 -111 -42 -111 -111 C-111 -176 -66 -214 13 -214 C103 -214 173 -162 249 -40 L477 329 C500 369 519 381 565 382 L583 469 L344 469 L326 382 Z M261 715 C210 715 162 670 162 622 C162 584 188 559 227 559 C276 559 321 604 321 652 C321 688 296 715 261 715 L261 715 Z M462 715 C411 715 363 670 363 622 C363 584 389 559 428 559 C477 559 522 604 522 652 C522 688 497 715 462 715 L462 715 Z " />
<glyph glyph-name="Amacron" unicode="&#x100;" horiz-adv-x="665" d="M254 0 L638 0 L658 94 L625 94 C582 97 579 100 573 165 L531 667 L302 667 L28 163 C0 112 -18 97 -54 94 L-79 94 L-99 0 L185 0 L205 94 L173 94 C146 94 132 100 132 110 C132 117 135 124 149 151 L183 214 L354 214 L361 143 L361 135 C361 98 356 94 303 94 L274 94 L254 0 Z M343 310 L232 310 L330 512 L343 310 Z M269 754 L575 754 L593 838 L287 838 L269 754 Z " />
<glyph glyph-name="amacron" unicode="&#x101;" horiz-adv-x="599" d="M559 189 L492 189 L480 133 C475 109 470 103 456 103 C448 103 441 108 441 115 C441 117 442 123 444 133 L482 313 C488 340 492 369 492 384 C492 451 423 486 290 486 C139 486 36 425 36 335 C36 295 63 272 110 272 C168 272 211 308 211 357 C211 381 202 393 173 404 C200 417 214 421 236 421 C281 421 306 399 306 361 C306 340 299 318 287 304 C267 280 237 269 163 258 C80 246 35 227 3 191 C-21 164 -35 123 -35 80 C-35 16 8 -17 88 -17 C160 -17 214 4 263 50 C287 0 315 -17 377 -17 C427 -17 467 -4 496 23 C522 46 534 72 546 128 L559 189 Z M267 157 C258 114 233 87 199 87 C177 87 164 101 164 124 C164 145 178 166 202 178 L240 197 C246 200 262 208 279 218 L267 157 Z M173 585 L488 585 L506 672 L191 672 L173 585 Z " />
<glyph glyph-name="Abreve" unicode="&#x102;" horiz-adv-x="665" d="M254 0 L638 0 L658 94 L625 94 C582 97 579 100 573 165 L531 667 L302 667 L28 163 C0 112 -18 97 -54 94 L-79 94 L-99 0 L185 0 L205 94 L173 94 C146 94 132 100 132 110 C132 117 135 124 149 151 L183 214 L354 214 L361 143 L361 135 C361 98 356 94 303 94 L274 94 L254 0 Z M343 310 L232 310 L330 512 L343 310 Z M280 869 C281 817 287 793 305 769 C328 740 368 723 415 723 C463 723 511 740 547 769 C575 793 590 816 613 869 L565 869 C540 829 506 814 436 814 C365 814 337 828 328 869 L280 869 Z " />
<glyph glyph-name="abreve" unicode="&#x103;" horiz-adv-x="599" d="M559 189 L492 189 L480 133 C475 109 470 103 456 103 C448 103 441 108 441 115 C441 117 442 123 444 133 L482 313 C488 340 492 369 492 384 C492 451 423 486 290 486 C139 486 36 425 36 335 C36 295 63 272 110 272 C168 272 211 308 211 357 C211 381 202 393 173 404 C200 417 214 421 236 421 C281 421 306 399 306 361 C306 340 299 318 287 304 C267 280 237 269 163 258 C80 246 35 227 3 191 C-21 164 -35 123 -35 80 C-35 16 8 -17 88 -17 C160 -17 214 4 263 50 C287 0 315 -17 377 -17 C427 -17 467 -4 496 23 C522 46 534 72 546 128 L559 189 Z M267 157 C258 114 233 87 199 87 C177 87 164 101 164 124 C164 145 178 166 202 178 L240 197 C246 200 262 208 279 218 L267 157 Z M212 708 C214 648 214 645 219 628 C236 580 284 550 345 550 C393 550 442 568 477 598 C506 623 523 648 547 708 L499 708 C483 680 471 668 452 660 C430 650 399 645 367 645 C333 645 303 650 286 660 C271 668 264 681 259 708 L212 708 Z " />
<glyph glyph-name="Aogonek" unicode="&#x104;" horiz-adv-x="665" d="M638 0 L658 94 L625 94 C582 97 579 100 573 165 L531 667 L302 667 L28 163 C0 112 -18 97 -54 94 L-79 94 L-99 0 L185 0 L205 94 L173 94 C146 94 133 99 133 111 C133 117 138 129 149 151 L183 214 L354 214 L361 143 L361 135 C361 98 356 94 303 94 L274 94 L254 0 L571 0 C477 -59 429 -118 429 -174 C429 -212 455 -233 500 -233 C550 -233 593 -204 635 -141 L620 -131 C594 -159 583 -166 562 -166 C541 -166 531 -155 531 -131 C531 -90 559 -44 611 0 L638 0 Z M343 310 L232 310 L330 512 L343 310 Z " />
<glyph glyph-name="aogonek" unicode="&#x105;" horiz-adv-x="599" d="M559 189 L492 189 L480 133 C475 109 471 103 457 103 C447 103 440 108 441 115 C441 118 442 125 444 133 L482 313 C488 341 492 369 492 386 C492 451 421 486 290 486 C139 486 36 425 36 335 C36 295 63 272 110 272 C168 272 211 308 211 357 C211 381 201 393 173 404 C200 417 214 421 236 421 C281 421 306 399 306 360 C306 340 299 318 287 304 C267 280 237 269 163 258 C79 246 34 227 3 191 C-21 163 -35 122 -35 80 C-35 17 8 -17 88 -17 C160 -17 214 4 263 50 C285 0 314 -17 381 -17 C309 -69 273 -121 273 -171 C273 -208 298 -229 342 -229 C392 -229 435 -200 477 -137 L462 -126 C435 -156 425 -162 404 -162 C383 -162 373 -151 373 -128 C373 -88 400 -41 438 -16 C520 37 528 47 546 128 L559 189 Z M267 157 C258 114 233 87 199 87 C177 87 164 101 164 124 C164 145 178 166 202 178 L240 197 C246 200 262 208 279 218 L267 157 Z " />
<glyph glyph-name="Cacute" unicode="&#x106;" horiz-adv-x="698" d="M548 258 C528 193 513 165 483 134 C449 99 407 79 366 79 C306 79 274 119 274 192 C274 249 297 365 324 447 C353 535 405 585 468 585 C519 585 549 558 560 501 C564 479 565 465 565 402 L678 402 L736 676 L633 676 L610 640 C547 678 512 687 437 687 C319 687 214 640 137 552 C62 469 16 344 16 227 C16 158 32 105 66 65 C111 11 194 -20 293 -20 C401 -20 493 15 558 81 C602 125 623 165 650 258 L548 258 Z M384 723 L542 777 C577 790 600 814 600 839 C600 863 584 879 561 879 C543 879 527 872 500 851 L327 723 L384 723 Z " />
<glyph glyph-name="cacute" unicode="&#x107;" horiz-adv-x="500" d="M324 163 C308 102 282 74 244 74 C214 74 197 97 197 137 C197 173 212 251 230 311 C248 367 279 397 321 397 C341 397 350 391 357 373 C331 369 318 363 304 346 C290 329 282 307 282 285 C282 247 308 226 353 226 C426 226 477 280 477 357 C477 439 414 487 308 487 C217 487 135 454 79 394 C25 336 -9 250 -9 168 C-9 51 66 -19 194 -19 C247 -19 296 -7 338 18 C389 47 413 82 439 163 L324 163 Z M185 534 L244 534 L429 617 C477 639 497 661 497 691 C497 718 479 735 452 735 C425 735 404 723 361 686 L185 534 Z " />
<glyph glyph-name="Ccaron" unicode="&#x10c;" horiz-adv-x="698" d="M548 258 C528 193 513 165 483 134 C449 99 407 79 366 79 C306 79 274 119 274 192 C274 249 297 365 324 447 C353 535 405 585 468 585 C519 585 549 558 560 501 C564 479 565 465 565 402 L678 402 L736 676 L633 676 L610 640 C547 678 512 687 437 687 C319 687 214 640 137 552 C62 469 16 344 16 227 C16 158 32 105 66 65 C111 11 194 -20 293 -20 C401 -20 493 15 558 81 C602 125 623 165 650 258 L548 258 Z M300 869 L371 723 L494 723 L627 869 L577 869 L451 810 L349 869 L300 869 Z " />
<glyph glyph-name="ccaron" unicode="&#x10d;" horiz-adv-x="500" d="M324 163 C308 102 282 74 244 74 C214 74 197 97 197 137 C197 173 212 251 230 311 C248 367 279 397 321 397 C341 397 350 391 357 373 C331 369 318 363 304 346 C290 329 282 307 282 285 C282 247 308 226 353 226 C426 226 477 280 477 357 C477 439 414 487 308 487 C217 487 135 454 79 394 C25 336 -9 250 -9 168 C-9 51 66 -19 194 -19 C247 -19 296 -7 338 18 C389 47 413 82 439 163 L324 163 Z M168 724 L245 534 L340 534 L498 724 L447 724 L314 636 L220 724 L168 724 Z " />
<glyph glyph-name="Dcaron" unicode="&#x10e;" horiz-adv-x="764" d="M-57 0 L291 0 C444 0 537 31 616 108 C692 182 742 311 742 432 C742 504 724 554 684 595 C633 647 562 667 433 667 L85 667 L65 573 L93 573 C124 573 134 567 134 550 C134 544 132 533 128 515 L51 152 C42 101 36 95 -8 94 L-37 94 L-57 0 Z M261 97 L362 570 L411 570 C466 570 491 539 491 469 C491 411 473 317 447 235 C417 140 374 97 311 97 L261 97 Z M207 869 L278 723 L401 723 L534 869 L485 869 L358 810 L257 869 L207 869 Z " />
<glyph glyph-name="dcaron" unicode="&#x10f;" horiz-adv-x="609" d="M318 580 L333 580 C374 580 383 576 383 555 C383 549 382 540 380 533 L356 416 C324 466 290 486 235 486 C168 486 105 450 61 386 C16 322 -13 224 -13 134 C-13 37 39 -16 135 -16 C194 -16 229 1 299 65 L285 0 L522 0 L540 87 L520 87 C496 87 488 93 488 108 C488 115 489 126 491 134 L604 667 L337 667 L318 580 Z M293 382 C317 382 329 362 329 326 C329 282 309 186 291 145 C273 105 253 84 231 84 C207 84 196 102 196 140 C196 185 211 263 231 314 C249 362 267 382 293 382 L293 382 Z M615 426 C663 434 688 443 720 466 C767 500 797 550 797 596 C797 636 770 663 729 663 C680 663 637 621 637 574 C637 547 656 526 682 526 C688 526 696 527 705 529 C684 497 672 489 627 479 L615 426 Z " />
<glyph glyph-name="Dcroat" unicode="&#x110;" horiz-adv-x="769" d="M-53 0 L294 0 C448 0 540 31 620 108 C696 182 746 311 746 431 C746 503 728 554 688 595 C637 647 566 667 436 667 L89 667 L69 573 L98 573 C130 573 140 567 140 550 C140 544 139 536 134 515 L108 391 L17 391 L-1 306 L90 306 L57 152 C48 101 42 95 -3 94 L-33 94 L-53 0 Z M263 97 L308 306 L401 306 L419 391 L326 391 L364 570 L418 570 C474 570 499 538 499 468 C499 409 482 316 455 235 C425 140 382 97 317 97 L263 97 Z " />
<glyph glyph-name="dcroat" unicode="&#x111;" horiz-adv-x="608" d="M584 572 L604 667 L337 667 L318 579 C358 579 370 578 378 572 L252 572 L237 496 L373 496 L356 416 C324 467 290 486 235 486 C168 486 105 450 61 387 C16 322 -13 224 -13 134 C-13 37 39 -16 135 -16 C194 -16 229 1 299 65 L285 0 L522 0 L540 87 L520 87 C496 87 488 93 488 109 C488 115 489 126 491 134 L568 496 L626 496 L641 572 L584 572 Z M293 382 C317 382 329 362 329 326 C329 282 309 186 291 145 C273 105 253 84 231 84 C207 84 196 102 196 140 C196 185 211 263 231 314 C249 362 267 382 293 382 L293 382 Z " />
<glyph glyph-name="Emacron" unicode="&#x112;" horiz-adv-x="736" d="M749 667 L85 667 L65 573 L93 573 C126 573 136 567 136 550 C136 544 135 538 130 515 L53 152 C44 101 37 95 -7 94 L-37 94 L-57 0 L611 0 L669 275 L565 275 C519 114 488 88 348 94 L258 94 L302 301 L327 301 C370 301 385 290 385 256 C385 244 383 224 377 191 L454 191 L519 495 L442 495 C422 410 406 393 344 389 L320 389 L359 573 L438 573 C572 577 597 553 596 419 L696 419 L749 667 Z M273 754 L580 754 L598 838 L291 838 L273 754 Z " />
<glyph glyph-name="emacron" unicode="&#x113;" horiz-adv-x="538" d="M356 163 C329 101 296 74 247 74 C202 74 176 101 176 147 C176 160 178 178 184 207 L479 207 C488 248 494 292 494 315 C494 423 423 487 304 487 C128 487 -9 348 -9 168 C-9 48 65 -18 199 -18 C271 -18 341 3 386 39 C421 66 443 98 472 163 L356 163 Z M203 294 C214 334 220 351 232 366 C247 385 272 398 295 398 C325 398 345 376 345 341 C345 332 342 312 339 294 L203 294 Z M165 585 L480 585 L499 672 L183 672 L165 585 Z " />
<glyph glyph-name="Edotaccent" unicode="&#x116;" horiz-adv-x="736" d="M749 667 L85 667 L65 573 L93 573 C126 573 136 567 136 550 C136 544 135 538 130 515 L53 152 C44 101 37 95 -7 94 L-37 94 L-57 0 L611 0 L669 275 L565 275 C519 114 488 88 348 94 L258 94 L302 301 L327 301 C370 301 385 290 385 256 C385 244 383 224 377 191 L454 191 L519 495 L442 495 C422 410 406 393 344 389 L320 389 L359 573 L438 573 C572 577 597 553 596 419 L696 419 L749 667 Z M483 866 C436 866 389 823 389 779 C389 743 414 717 447 717 C495 717 541 760 541 805 C541 839 515 866 483 866 L483 866 Z " />
<glyph glyph-name="edotaccent" unicode="&#x117;" horiz-adv-x="538" d="M356 163 C329 101 296 74 247 74 C202 74 176 101 176 147 C176 160 178 178 184 207 L479 207 C488 248 494 292 494 315 C494 423 423 487 304 487 C128 487 -9 348 -9 168 C-9 48 65 -18 199 -18 C271 -18 341 3 386 39 C421 66 443 98 472 163 L356 163 Z M203 294 C214 334 220 351 232 366 C247 385 272 398 295 398 C325 398 345 376 345 341 C345 332 342 312 339 294 L203 294 Z M352 707 C302 707 254 662 254 616 C254 579 280 553 318 553 C366 553 411 598 411 645 C411 680 386 707 352 707 L352 707 Z " />
<glyph glyph-name="Eogonek" unicode="&#x118;" horiz-adv-x="736" d="M611 0 L669 275 L565 275 C519 114 488 88 348 94 L258 94 L302 301 L327 301 C371 301 385 290 385 254 C385 243 382 221 377 191 L454 191 L519 495 L442 495 C422 410 406 393 344 389 L320 389 L359 573 L438 573 C572 577 597 553 596 419 L696 419 L749 667 L85 667 L65 573 L93 573 C124 573 136 567 136 552 C136 546 134 532 130 515 L53 152 C44 101 37 95 -7 94 L-37 94 L-57 0 L541 0 C441 -61 390 -121 390 -180 C390 -217 416 -239 461 -239 C511 -239 552 -211 595 -147 L580 -136 C553 -166 544 -172 523 -172 C502 -172 492 -161 492 -137 C492 -94 520 -49 578 0 L611 0 Z " />
<glyph glyph-name="eogonek" unicode="&#x119;" horiz-adv-x="538" d="M356 163 C329 102 296 75 247 75 C202 75 176 102 176 148 C176 160 179 179 184 207 L479 207 C488 248 494 292 494 315 C494 423 423 487 303 487 C127 487 -9 348 -9 167 C-9 49 66 -18 198 -18 C208 -18 222 -17 239 -16 C171 -68 140 -114 140 -162 C140 -199 165 -220 209 -220 C259 -220 302 -190 344 -128 L329 -118 C302 -147 292 -153 271 -153 C250 -153 240 -142 240 -120 C240 -98 249 -71 262 -52 C278 -27 282 -24 343 12 C414 57 438 85 472 163 L356 163 Z M203 294 C214 334 220 351 232 366 C247 385 272 398 295 398 C325 398 345 376 345 341 C345 332 342 312 339 294 L203 294 Z " />
<glyph glyph-name="Ecaron" unicode="&#x11a;" horiz-adv-x="736" d="M749 667 L85 667 L65 573 L93 573 C126 573 136 567 136 550 C136 544 135 538 130 515 L53 152 C44 101 37 95 -7 94 L-37 94 L-57 0 L611 0 L669 275 L565 275 C519 114 488 88 348 94 L258 94 L302 301 L327 301 C370 301 385 290 385 256 C385 244 383 224 377 191 L454 191 L519 495 L442 495 C422 410 406 393 344 389 L320 389 L359 573 L438 573 C572 577 597 553 596 419 L696 419 L749 667 Z M318 869 L389 723 L512 723 L645 869 L595 869 L469 810 L367 869 L318 869 Z " />
<glyph glyph-name="ecaron" unicode="&#x11b;" horiz-adv-x="538" d="M356 163 C329 101 296 74 247 74 C202 74 176 101 176 147 C176 160 178 178 184 207 L479 207 C488 248 494 292 494 315 C494 423 423 487 304 487 C128 487 -9 348 -9 168 C-9 48 65 -18 199 -18 C271 -18 341 3 386 39 C421 66 443 98 472 163 L356 163 Z M203 294 C214 334 220 351 232 366 C247 385 272 398 295 398 C325 398 345 376 345 341 C345 332 342 312 339 294 L203 294 Z M187 724 L264 534 L359 534 L517 724 L466 724 L333 636 L239 724 L187 724 Z " />
<glyph glyph-name="Gbreve" unicode="&#x11e;" horiz-adv-x="778" d="M376 261 L396 261 C428 261 438 255 438 238 C438 232 437 225 432 203 L421 153 C416 126 409 107 403 100 C393 90 366 81 343 81 C292 81 265 119 265 188 C265 244 288 363 315 447 C344 535 395 585 455 585 C520 585 546 542 546 437 L546 402 L659 402 L717 676 L614 676 L591 640 C535 678 504 687 429 687 C315 687 214 640 135 552 C61 467 15 344 15 226 C15 156 30 104 63 63 C105 10 182 -22 266 -22 C332 -22 382 -8 464 34 L477 -7 L600 -7 L645 203 C654 254 660 260 705 261 L726 261 L746 355 L396 355 L376 261 Z M305 869 C305 817 311 793 330 769 C353 740 392 723 440 723 C488 723 536 740 572 769 C600 793 615 816 638 869 L590 869 C565 829 530 814 461 814 C390 814 362 828 353 869 L305 869 Z " />
<glyph glyph-name="gbreve" unicode="&#x11f;" horiz-adv-x="585" d="M43 167 C-22 140 -56 98 -56 44 C-56 17 -47 -2 -23 -27 C-71 -45 -100 -79 -100 -119 C-100 -142 -91 -160 -72 -176 C-41 -200 35 -214 145 -214 C343 -214 454 -147 454 -26 C454 46 415 72 306 72 C297 72 280 72 268 71 C160 68 160 68 136 68 C92 68 83 72 83 89 C83 100 87 108 99 118 C138 106 155 103 184 103 C342 103 456 204 456 343 C456 368 453 381 438 410 C467 429 483 436 496 436 C505 436 511 433 520 424 C491 401 480 384 480 363 C480 335 504 316 538 316 C586 316 623 356 623 409 C623 456 584 488 526 488 C492 488 466 479 417 449 C351 480 334 485 284 485 C203 485 140 465 92 424 C42 382 12 317 12 253 C12 217 19 196 43 167 L43 167 Z M260 416 C273 416 280 406 280 386 C280 356 266 280 251 233 C238 190 225 172 208 172 C194 172 188 183 188 204 C188 242 202 312 218 362 C231 400 243 416 260 416 L260 416 Z M183 -70 C226 -70 263 -72 289 -77 C307 -80 315 -86 315 -98 C315 -129 273 -141 170 -141 C75 -141 38 -132 38 -108 C38 -81 79 -70 183 -70 L183 -70 Z M142 708 C144 648 144 645 149 628 C166 580 214 550 275 550 C323 550 372 568 407 598 C436 623 453 648 477 708 L429 708 C413 680 401 668 382 660 C360 650 329 645 297 645 C263 645 233 650 216 660 C201 668 194 681 189 708 L142 708 Z " />
<glyph glyph-name="Gcommaaccent" unicode="&#x122;" horiz-adv-x="778" d="M376 261 L396 261 C428 261 438 255 438 238 C438 232 437 225 432 203 L421 153 C416 126 409 107 403 100 C393 90 366 81 343 81 C292 81 265 119 265 188 C265 244 288 363 315 447 C344 535 395 585 455 585 C520 585 546 542 546 437 L546 402 L659 402 L717 676 L614 676 L591 640 C535 678 504 687 429 687 C315 687 214 640 135 552 C61 467 15 344 15 226 C15 156 30 104 63 63 C105 10 182 -22 266 -22 C332 -22 382 -8 464 34 L477 -7 L600 -7 L645 203 C654 254 660 260 705 261 L726 261 L746 355 L396 355 L376 261 Z M189 -290 C237 -283 262 -274 293 -251 C340 -217 370 -166 370 -121 C370 -80 343 -53 303 -53 C254 -53 211 -95 211 -143 C211 -170 230 -191 256 -191 C262 -191 270 -190 279 -188 C258 -220 246 -228 200 -238 L189 -290 Z " />
<glyph glyph-name="gcommaaccent" unicode="&#x123;" horiz-adv-x="585" d="M43 167 C-22 140 -56 98 -56 44 C-56 17 -47 -2 -23 -27 C-71 -45 -100 -79 -100 -119 C-100 -142 -91 -160 -72 -176 C-41 -200 35 -214 145 -214 C343 -214 454 -147 454 -26 C454 46 415 72 306 72 C297 72 280 72 268 71 C160 68 160 68 136 68 C92 68 83 72 83 89 C83 100 87 108 99 118 C138 106 155 103 184 103 C342 103 456 204 456 343 C456 368 453 381 438 410 C467 429 483 436 496 436 C505 436 511 433 520 424 C491 401 480 384 480 363 C480 335 504 316 538 316 C586 316 623 356 623 409 C623 456 584 488 526 488 C492 488 466 479 417 449 C351 480 334 485 284 485 C203 485 140 465 92 424 C42 382 12 317 12 253 C12 217 19 196 43 167 L43 167 Z M260 416 C273 416 280 406 280 386 C280 356 266 280 251 233 C238 190 225 172 208 172 C194 172 188 183 188 204 C188 242 202 312 218 362 C231 400 243 416 260 416 L260 416 Z M183 -70 C226 -70 263 -72 289 -77 C307 -80 315 -86 315 -98 C315 -129 273 -141 170 -141 C75 -141 38 -132 38 -108 C38 -81 79 -70 183 -70 L183 -70 Z M419 762 C372 754 347 745 315 722 C268 689 238 638 238 592 C238 552 265 525 305 525 C354 525 397 567 397 614 C397 641 378 662 352 662 C347 662 338 661 330 659 C351 691 363 699 408 709 L419 762 Z " />
<glyph glyph-name="Imacron" unicode="&#x12a;" horiz-adv-x="415" d="M-52 0 L325 0 L345 94 L315 94 C283 94 273 100 273 118 C273 123 275 133 279 152 L356 515 C366 565 373 572 417 573 L446 573 L466 667 L90 667 L70 573 L99 573 C131 573 141 567 141 550 C141 543 139 531 136 515 L59 152 C49 102 41 95 -3 94 L-32 94 L-52 0 Z M143 754 L450 754 L468 838 L161 838 L143 754 Z " />
<glyph glyph-name="imacron" unicode="&#x12b;" horiz-adv-x="344" d="M276 87 L261 87 C236 87 227 93 227 108 C227 116 228 123 230 134 L301 469 L48 469 L29 382 L48 382 C76 382 85 376 85 359 C85 351 84 343 82 335 L40 134 C31 95 23 88 -14 87 L-33 87 L-52 0 L257 0 L276 87 Z M40 585 L355 585 L374 672 L58 672 L40 585 Z " />
<glyph glyph-name="Iogonek" unicode="&#x12e;" horiz-adv-x="415" d="M325 0 L345 94 L315 94 C285 94 273 100 273 116 C273 122 275 136 279 152 L356 515 C366 565 373 572 417 573 L446 573 L466 667 L90 667 L70 573 L99 573 C130 573 141 567 141 552 C141 544 139 531 136 515 L59 152 C49 102 41 95 -3 94 L-32 94 L-52 0 L243 0 C149 -59 101 -118 101 -174 C101 -212 127 -233 172 -233 C222 -233 264 -204 306 -141 L292 -131 C265 -160 255 -166 234 -166 C213 -166 203 -155 203 -131 C203 -90 231 -43 283 0 L325 0 Z " />
<glyph glyph-name="iogonek" unicode="&#x12f;" horiz-adv-x="344" d="M257 0 L276 87 L261 87 C235 87 227 93 227 109 C227 115 228 124 230 134 L301 469 L48 469 L29 382 L48 382 C76 382 85 376 85 359 C85 351 84 343 82 335 L40 134 C31 95 23 88 -14 87 L-33 87 L-52 0 L186 0 C94 -59 48 -116 48 -171 C48 -209 74 -230 119 -230 C169 -230 212 -201 254 -138 L239 -128 C212 -157 202 -163 181 -163 C160 -163 150 -152 150 -128 C150 -88 176 -44 227 0 L257 0 Z M237 686 C179 686 126 634 126 577 C126 536 156 507 198 507 C256 507 309 559 309 615 C309 656 279 686 237 686 L237 686 Z " />
<glyph glyph-name="Idotaccent" unicode="&#x130;" horiz-adv-x="415" d="M-52 0 L325 0 L345 94 L315 94 C283 94 273 100 273 118 C273 123 275 133 279 152 L356 515 C366 565 373 572 417 573 L446 573 L466 667 L90 667 L70 573 L99 573 C131 573 141 567 141 550 C141 543 139 531 136 515 L59 152 C49 102 41 95 -3 94 L-32 94 L-52 0 Z M323 866 C276 866 229 823 229 779 C229 743 254 717 287 717 C335 717 381 760 381 805 C381 839 355 866 323 866 L323 866 Z " />
<glyph glyph-name="dotlessi" unicode="&#x131;" horiz-adv-x="344" d="M276 87 L261 87 C236 87 227 93 227 108 C227 116 228 123 230 134 L301 469 L48 469 L29 382 L48 382 C76 382 85 376 85 359 C85 351 84 343 82 335 L40 134 C31 95 23 88 -14 87 L-33 87 L-52 0 L257 0 L276 87 Z " />
<glyph glyph-name="Kcommaaccent" unicode="&#x136;" horiz-adv-x="802" d="M431 667 L85 667 L65 572 L94 572 C126 572 136 567 136 549 C136 543 134 529 131 515 L54 151 C44 101 36 95 -8 94 L-37 94 L-57 0 L304 0 L324 94 L304 94 C275 94 265 100 265 117 C265 123 267 137 270 151 L282 208 L388 285 L449 137 C452 131 453 125 453 119 C453 101 440 94 404 94 L374 94 L354 0 L744 0 L765 94 L727 94 C698 94 683 105 668 139 L554 408 L706 523 C746 553 786 573 806 572 L838 572 L858 667 L505 667 L485 572 L538 572 C562 572 572 568 572 557 C572 550 564 538 551 529 L313 350 L348 515 C358 566 364 572 411 572 L431 667 Z M201 -290 C249 -283 274 -273 305 -251 C352 -217 382 -167 382 -121 C382 -80 355 -53 315 -53 C266 -53 223 -95 223 -143 C223 -170 242 -191 268 -191 C274 -191 282 -190 291 -188 C270 -220 258 -228 213 -238 L201 -290 Z " />
<glyph glyph-name="kcommaaccent" unicode="&#x137;" horiz-adv-x="637" d="M67 580 L87 580 C112 580 121 574 121 558 C121 552 120 544 117 533 L33 134 C24 95 17 88 -18 87 L-35 87 L-54 0 L236 0 L255 87 C230 88 222 93 222 110 C222 117 225 132 230 152 L302 203 L326 141 C333 123 336 113 336 104 C336 91 330 88 300 87 L281 0 L572 0 L590 87 C548 90 536 97 526 124 L456 307 L530 359 C554 374 574 380 611 382 L630 469 L362 469 L344 382 L354 382 C373 382 379 379 379 371 C379 363 373 355 361 346 L254 269 L339 667 L86 667 L67 580 Z M119 -290 C167 -283 192 -273 224 -251 C271 -217 301 -167 301 -121 C301 -80 274 -53 233 -53 C184 -53 141 -95 141 -143 C141 -170 160 -191 186 -191 C192 -191 200 -190 209 -188 C188 -220 176 -228 131 -238 L119 -290 Z " />
<glyph glyph-name="Lacute" unicode="&#x139;" horiz-adv-x="651" d="M466 667 L85 667 L65 573 L94 573 C126 573 136 567 136 550 C136 544 134 531 131 515 L54 152 C44 102 36 95 -8 95 L-37 95 L-57 0 L539 0 L598 278 L500 278 C456 121 426 93 303 97 L263 97 L352 515 C361 566 367 572 412 573 L446 573 L466 667 Z M360 723 L518 777 C553 790 575 814 575 839 C575 863 559 879 536 879 C519 879 503 872 476 851 L303 723 L360 723 Z " />
<glyph glyph-name="lacute" unicode="&#x13a;" horiz-adv-x="335" d="M337 667 L81 667 L62 580 L83 580 C111 580 120 574 120 557 C120 549 119 541 117 533 L33 134 C24 95 16 88 -21 87 L-42 87 L-61 0 L249 0 L268 87 L254 87 C229 87 220 93 220 109 C220 115 221 124 223 134 L337 667 Z M215 720 L273 720 L459 803 C507 825 527 847 527 877 C527 904 509 921 481 921 C455 921 433 909 390 872 L215 720 Z " />
<glyph glyph-name="Lcommaaccent" unicode="&#x13b;" horiz-adv-x="651" d="M466 667 L85 667 L65 573 L94 573 C126 573 136 567 136 550 C136 544 134 531 131 515 L54 152 C44 102 36 95 -8 95 L-37 95 L-57 0 L539 0 L598 278 L500 278 C456 121 426 93 303 97 L263 97 L352 515 C361 566 367 572 412 573 L446 573 L466 667 Z M126 -290 C173 -283 199 -273 230 -251 C277 -217 307 -166 307 -121 C307 -80 280 -53 240 -53 C191 -53 148 -95 148 -143 C148 -170 167 -191 193 -191 C198 -191 206 -190 215 -188 C195 -220 182 -228 137 -238 L126 -290 Z " />
<glyph glyph-name="lcommaaccent" unicode="&#x13c;" horiz-adv-x="335" d="M337 667 L81 667 L62 580 L83 580 C111 580 120 574 120 557 C120 549 119 541 117 533 L33 134 C24 95 16 88 -21 87 L-42 87 L-61 0 L249 0 L268 87 L254 87 C229 87 220 93 220 109 C220 115 221 124 223 134 L337 667 Z M-32 -290 C16 -283 41 -273 73 -251 C120 -217 150 -167 150 -121 C150 -80 123 -53 82 -53 C33 -53 -10 -95 -10 -143 C-10 -170 9 -191 35 -191 C41 -191 49 -190 58 -188 C37 -220 25 -228 -20 -238 L-32 -290 Z " />
<glyph glyph-name="Lcaron" unicode="&#x13d;" horiz-adv-x="651" d="M466 667 L85 667 L65 573 L94 573 C126 573 136 567 136 550 C136 544 134 531 131 515 L54 152 C44 102 36 95 -8 95 L-37 95 L-57 0 L539 0 L598 278 L500 278 C456 121 426 93 303 97 L263 97 L352 515 C361 566 367 572 412 573 L446 573 L466 667 Z M474 443 C519 451 543 460 573 483 C619 517 648 568 648 613 C648 653 623 680 584 680 C538 680 496 638 496 591 C496 563 514 543 538 543 C544 543 552 544 560 546 C540 513 528 506 485 496 L474 443 Z " />
<glyph glyph-name="lcaron" unicode="&#x13e;" horiz-adv-x="335" d="M337 667 L81 667 L62 580 L83 580 C111 580 120 574 120 557 C120 549 119 541 117 533 L33 134 C24 95 16 88 -21 87 L-42 87 L-61 0 L249 0 L268 87 L254 87 C229 87 220 93 220 109 C220 115 221 124 223 134 L337 667 Z M371 440 C419 447 444 457 476 479 C523 513 553 564 553 609 C553 650 526 677 485 677 C436 677 393 635 393 588 C393 561 412 540 438 540 C445 540 452 541 461 542 C440 510 428 502 383 493 L371 440 Z " />
<glyph glyph-name="Lslash" unicode="&#x141;" horiz-adv-x="656" d="M470 667 L89 667 L69 573 L98 573 C130 573 140 567 140 550 C140 544 138 530 135 515 L93 318 L-18 249 L-38 153 L73 223 L58 152 C48 102 40 95 -4 95 L-33 95 L-53 0 L543 0 L602 278 L504 278 C460 121 430 94 307 97 L267 97 L313 315 L467 411 L487 506 L334 411 L356 515 C365 566 371 572 416 573 L450 573 L470 667 Z " />
<glyph glyph-name="lslash" unicode="&#x142;" horiz-adv-x="349" d="M63 263 L36 134 C27 95 20 88 -15 87 L-34 87 L-53 0 L257 0 L276 87 L262 87 C237 87 228 93 228 108 C228 115 229 124 231 134 L275 339 L365 395 L381 473 L291 417 L345 667 L89 667 L70 580 L90 580 C115 580 124 574 124 558 C124 552 123 543 121 533 L80 341 L-10 285 L-27 206 L63 263 Z " />
<glyph glyph-name="Nacute" unicode="&#x143;" horiz-adv-x="769" d="M398 667 L85 667 L65 572 L95 572 C128 572 139 566 139 548 C139 544 138 536 133 515 L56 152 C46 102 38 95 -7 94 L-37 94 L-57 0 L222 0 L243 94 L215 94 C183 94 172 100 172 118 C172 124 174 138 177 152 L246 478 L388 0 L608 0 L717 515 C727 565 735 572 780 572 L802 572 L822 667 L543 667 L523 572 L558 572 C591 572 602 566 602 549 C602 545 602 545 595 515 L532 218 L398 667 Z M419 723 L577 777 C612 790 634 814 634 839 C634 863 618 879 595 879 C578 879 562 872 535 851 L362 723 L419 723 Z " />
<glyph glyph-name="nacute" unicode="&#x144;" horiz-adv-x="651" d="M590 87 L573 87 C548 87 539 93 539 109 C539 115 540 127 542 134 L579 308 C586 340 590 371 590 388 C590 446 541 482 462 482 C387 482 338 459 272 396 L287 469 L39 469 L20 382 L42 382 C67 382 76 376 76 361 C76 354 75 345 73 335 L30 134 C21 95 14 88 -21 87 L-42 87 L-61 0 L244 0 L262 87 L258 87 C233 85 222 92 222 108 C222 115 223 124 225 134 L258 288 C270 347 303 383 343 383 C371 383 387 367 387 339 C387 330 385 316 382 303 L347 134 C337 93 331 87 292 87 L273 0 L571 0 L590 87 Z M261 534 L319 534 L505 617 C553 639 573 661 573 691 C573 718 555 735 527 735 C501 735 479 723 436 686 L261 534 Z " />
<glyph glyph-name="Ncommaaccent" unicode="&#x145;" horiz-adv-x="769" d="M398 667 L85 667 L65 572 L95 572 C128 572 139 566 139 548 C139 544 138 536 133 515 L56 152 C46 102 38 95 -7 94 L-37 94 L-57 0 L222 0 L243 94 L215 94 C183 94 172 100 172 118 C172 124 174 138 177 152 L246 478 L388 0 L608 0 L717 515 C727 565 735 572 780 572 L802 572 L822 667 L543 667 L523 572 L558 572 C591 572 602 566 602 549 C602 545 602 545 595 515 L532 218 L398 667 Z M185 -290 C232 -283 257 -273 289 -251 C336 -217 366 -167 366 -121 C366 -80 339 -53 299 -53 C250 -53 207 -95 207 -143 C207 -170 226 -191 252 -191 C257 -191 266 -190 274 -188 C254 -220 241 -228 196 -238 L185 -290 Z " />
<glyph glyph-name="ncommaaccent" unicode="&#x146;" horiz-adv-x="651" d="M590 87 L573 87 C548 87 539 93 539 109 C539 115 540 127 542 134 L579 308 C586 340 590 371 590 388 C590 446 541 482 462 482 C387 482 338 459 272 396 L287 469 L39 469 L20 382 L42 382 C67 382 76 376 76 361 C76 354 75 345 73 335 L30 134 C21 95 14 88 -21 87 L-42 87 L-61 0 L244 0 L262 87 L258 87 C233 85 222 92 222 108 C222 115 223 124 225 134 L258 288 C270 347 303 383 343 383 C371 383 387 367 387 339 C387 330 385 316 382 303 L347 134 C337 93 331 87 292 87 L273 0 L571 0 L590 87 Z M126 -290 C174 -283 199 -273 231 -251 C278 -217 308 -167 308 -121 C308 -80 281 -53 240 -53 C191 -53 148 -95 148 -143 C148 -170 167 -191 193 -191 C199 -191 207 -190 216 -188 C195 -220 183 -228 138 -238 L126 -290 Z " />
<glyph glyph-name="Ncaron" unicode="&#x147;" horiz-adv-x="769" d="M398 667 L85 667 L65 572 L95 572 C128 572 139 566 139 548 C139 544 138 536 133 515 L56 152 C46 102 38 95 -7 94 L-37 94 L-57 0 L222 0 L243 94 L215 94 C183 94 172 100 172 118 C172 124 174 138 177 152 L246 478 L388 0 L608 0 L717 515 C727 565 735 572 780 572 L802 572 L822 667 L543 667 L523 572 L558 572 C591 572 602 566 602 549 C602 545 602 545 595 515 L532 218 L398 667 Z M335 869 L406 723 L528 723 L661 869 L612 869 L485 810 L384 869 L335 869 Z " />
<glyph glyph-name="ncaron" unicode="&#x148;" horiz-adv-x="651" d="M590 87 L573 87 C548 87 539 93 539 109 C539 115 540 127 542 134 L579 308 C586 340 590 371 590 388 C590 446 541 482 462 482 C387 482 338 459 272 396 L287 469 L39 469 L20 382 L42 382 C67 382 76 376 76 361 C76 354 75 345 73 335 L30 134 C21 95 14 88 -21 87 L-42 87 L-61 0 L244 0 L262 87 L258 87 C233 85 222 92 222 108 C222 115 223 124 225 134 L258 288 C270 347 303 383 343 383 C371 383 387 367 387 339 C387 330 385 316 382 303 L347 134 C337 93 331 87 292 87 L273 0 L571 0 L590 87 Z M244 724 L321 534 L416 534 L574 724 L522 724 L390 636 L295 724 L244 724 Z " />
<glyph glyph-name="Omacron" unicode="&#x14c;" horiz-adv-x="797" d="M473 687 C336 687 222 641 140 551 C66 471 21 353 21 238 C21 170 38 118 76 73 C127 10 207 -20 322 -20 C462 -20 572 24 657 116 C730 195 776 314 776 428 C776 497 759 550 721 594 C668 658 590 687 473 687 L473 687 Z M452 586 C502 586 528 549 528 477 C528 423 505 304 478 220 C450 132 401 82 345 82 C294 82 268 119 268 192 C268 244 292 366 318 448 C346 535 395 586 452 586 L452 586 Z M334 754 L641 754 L659 838 L352 838 L334 754 Z " />
<glyph glyph-name="omacron" unicode="&#x14d;" horiz-adv-x="580" d="M323 486 C128 486 -9 353 -9 165 C-9 51 75 -17 215 -17 C313 -17 401 18 460 80 C513 136 546 219 546 299 C546 417 464 486 323 486 L323 486 Z M302 394 C331 394 343 377 343 339 C343 303 328 225 309 159 C292 102 268 75 236 75 C207 75 195 91 195 131 C195 167 210 244 229 310 C246 367 270 394 302 394 L302 394 Z M186 585 L501 585 L519 672 L204 672 L186 585 Z " />
<glyph glyph-name="Ohungarumlaut" unicode="&#x150;" horiz-adv-x="797" d="M473 687 C336 687 222 641 140 551 C66 471 21 353 21 238 C21 170 38 118 76 73 C127 10 207 -20 322 -20 C462 -20 572 24 657 116 C730 195 776 314 776 428 C776 497 759 550 721 594 C668 658 590 687 473 687 L473 687 Z M452 586 C502 586 528 549 528 477 C528 423 505 304 478 220 C450 132 401 82 345 82 C294 82 268 119 268 192 C268 244 292 366 318 448 C346 535 395 586 452 586 L452 586 Z M404 721 L519 789 C545 805 558 823 558 842 C558 862 542 877 522 877 C502 877 485 866 461 838 L364 721 L404 721 Z M533 721 L675 787 C707 802 722 819 722 840 C722 860 706 877 687 877 C669 877 654 869 627 845 L492 721 L533 721 Z " />
<glyph glyph-name="ohungarumlaut" unicode="&#x151;" horiz-adv-x="580" d="M323 486 C128 486 -9 353 -9 165 C-9 51 75 -17 215 -17 C313 -17 401 18 460 80 C513 136 546 219 546 299 C546 417 464 486 323 486 L323 486 Z M302 394 C331 394 343 377 343 339 C343 303 328 225 309 159 C292 102 268 75 236 75 C207 75 195 91 195 131 C195 167 210 244 229 310 C246 367 270 394 302 394 L302 394 Z M210 535 L256 535 L392 637 C421 658 436 680 436 699 C436 721 420 737 397 737 C369 737 352 724 314 674 L210 535 Z M337 535 L383 535 L553 632 C589 653 606 673 606 696 C606 718 590 735 568 735 C540 735 527 726 483 683 L337 535 Z " />
<glyph glyph-name="OE" unicode="&#x152;" horiz-adv-x="1137" d="M1152 667 L710 667 L451 687 C334 687 216 635 137 551 C64 471 18 352 18 240 C18 75 127 -20 317 -20 C348 -20 386 -18 421 -15 L525 -4 C552 -1 581 0 611 0 L1014 0 L1073 275 L972 275 C927 114 896 88 761 94 L675 94 L719 301 L743 301 C784 301 798 290 798 257 C798 245 796 224 791 191 L865 191 L929 495 L855 495 C835 409 820 392 760 389 L738 389 L777 573 L852 573 C981 577 1006 552 1003 418 L1099 418 L1152 667 Z M496 251 C480 177 465 137 444 115 C425 94 390 81 355 81 C297 81 267 120 267 196 C267 265 298 408 327 475 C360 549 405 586 464 586 C515 586 544 561 544 517 C544 492 539 456 530 415 L496 251 Z " />
<glyph glyph-name="oe" unicode="&#x153;" horiz-adv-x="882" d="M694 163 C667 101 634 74 585 74 C540 74 514 101 514 147 C514 160 516 178 522 207 L817 207 C826 248 832 293 832 315 C832 423 760 488 641 488 C584 488 545 476 474 435 C416 475 383 486 317 486 C223 486 134 450 75 389 C23 334 -10 248 -10 166 C-10 55 74 -17 205 -17 C267 -17 310 -5 393 37 C429 -1 478 -18 548 -18 C614 -18 678 2 724 39 C759 66 780 97 810 163 L694 163 Z M306 394 C338 394 352 376 352 335 C352 300 337 221 318 158 C301 103 275 75 240 75 C208 75 194 93 194 134 C194 170 209 247 228 310 C245 367 271 394 306 394 L306 394 Z M540 294 C552 335 558 351 570 366 C585 386 610 399 633 399 C663 399 683 376 683 341 C683 332 680 312 676 294 L540 294 Z " />
<glyph glyph-name="Racute" unicode="&#x154;" horiz-adv-x="774" d="M65 573 L94 573 C126 573 136 567 136 549 C136 543 134 530 131 515 L54 152 C44 101 36 95 -8 94 L-37 94 L-57 0 L324 0 L344 94 L311 94 C278 94 268 100 268 117 C268 123 269 132 274 152 L305 300 L359 300 C411 300 431 288 431 257 C431 247 427 222 422 197 L410 142 C406 122 404 104 404 85 C404 18 449 -16 539 -16 C604 -16 644 -1 676 36 C707 70 721 106 737 188 L674 188 C661 120 649 96 630 96 C620 96 613 105 613 119 C613 133 613 133 627 203 C632 228 636 258 636 274 C636 323 617 340 549 353 C604 367 630 380 659 406 C696 440 718 489 718 538 C718 575 706 605 684 626 C653 655 605 667 521 667 L85 667 L65 573 Z M323 391 L361 568 L419 568 C472 568 489 555 489 512 C489 482 478 446 463 424 C446 400 422 391 376 391 L323 391 Z M318 723 L476 777 C511 790 534 814 534 839 C534 863 518 879 495 879 C478 879 461 872 434 851 L261 723 L318 723 Z " />
<glyph glyph-name="racute" unicode="&#x155;" horiz-adv-x="486" d="M290 469 L48 469 L29 382 L45 382 C69 382 78 376 78 361 C78 354 77 342 75 335 L33 134 C24 95 17 88 -18 87 L-33 87 L-52 0 L269 0 L288 87 L259 87 C234 87 225 93 225 109 C225 116 226 126 228 134 L257 272 C267 317 280 348 299 372 C317 395 344 412 364 412 C368 412 375 411 384 409 C344 387 327 363 327 328 C327 293 350 272 388 272 C448 272 498 329 498 399 C498 454 465 485 408 485 C362 485 329 469 280 423 L290 469 Z M178 534 L236 534 L422 617 C470 639 490 661 490 691 C490 718 472 735 444 735 C418 735 396 723 353 686 L178 534 Z " />
<glyph glyph-name="Rcommaaccent" unicode="&#x156;" horiz-adv-x="774" d="M65 573 L94 573 C126 573 136 567 136 549 C136 543 134 530 131 515 L54 152 C44 101 36 95 -8 94 L-37 94 L-57 0 L324 0 L344 94 L311 94 C278 94 268 100 268 117 C268 123 269 132 274 152 L305 300 L359 300 C411 300 431 288 431 257 C431 247 427 222 422 197 L410 142 C406 122 404 104 404 85 C404 18 449 -16 539 -16 C604 -16 644 -1 676 36 C707 70 721 106 737 188 L674 188 C661 120 649 96 630 96 C620 96 613 105 613 119 C613 133 613 133 627 203 C632 228 636 258 636 274 C636 323 617 340 549 353 C604 367 630 380 659 406 C696 440 718 489 718 538 C718 575 706 605 684 626 C653 655 605 667 521 667 L85 667 L65 573 Z M323 391 L361 568 L419 568 C472 568 489 555 489 512 C489 482 478 446 463 424 C446 400 422 391 376 391 L323 391 Z M187 -290 C235 -283 260 -273 291 -251 C338 -217 368 -166 368 -121 C368 -80 341 -53 301 -53 C252 -53 209 -95 209 -143 C209 -170 228 -191 254 -191 C260 -191 268 -190 277 -188 C256 -220 244 -228 198 -238 L187 -290 Z " />
<glyph glyph-name="rcommaaccent" unicode="&#x157;" horiz-adv-x="486" d="M290 469 L48 469 L29 382 L45 382 C69 382 78 376 78 361 C78 354 77 342 75 335 L33 134 C24 95 17 88 -18 87 L-33 87 L-52 0 L269 0 L288 87 L259 87 C234 87 225 93 225 109 C225 116 226 126 228 134 L257 272 C267 317 280 348 299 372 C317 395 344 412 364 412 C368 412 375 411 384 409 C344 387 327 363 327 328 C327 293 350 272 388 272 C448 272 498 329 498 399 C498 454 465 485 408 485 C362 485 329 469 280 423 L290 469 Z M-20 -290 C27 -283 53 -273 84 -251 C131 -217 161 -166 161 -121 C161 -80 134 -53 94 -53 C45 -53 2 -95 2 -143 C2 -170 21 -191 47 -191 C52 -191 60 -190 69 -188 C49 -220 36 -228 -9 -238 L-20 -290 Z " />
<glyph glyph-name="Rcaron" unicode="&#x158;" horiz-adv-x="774" d="M65 573 L94 573 C126 573 136 567 136 549 C136 543 134 530 131 515 L54 152 C44 101 36 95 -8 94 L-37 94 L-57 0 L324 0 L344 94 L311 94 C278 94 268 100 268 117 C268 123 269 132 274 152 L305 300 L359 300 C411 300 431 288 431 257 C431 247 427 222 422 197 L410 142 C406 122 404 104 404 85 C404 18 449 -16 539 -16 C604 -16 644 -1 676 36 C707 70 721 106 737 188 L674 188 C661 120 649 96 630 96 C620 96 613 105 613 119 C613 133 613 133 627 203 C632 228 636 258 636 274 C636 323 617 340 549 353 C604 367 630 380 659 406 C696 440 718 489 718 538 C718 575 706 605 684 626 C653 655 605 667 521 667 L85 667 L65 573 Z M323 391 L361 568 L419 568 C472 568 489 555 489 512 C489 482 478 446 463 424 C446 400 422 391 376 391 L323 391 Z M226 869 L297 723 L420 723 L553 869 L504 869 L377 810 L276 869 L226 869 Z " />
<glyph glyph-name="rcaron" unicode="&#x159;" horiz-adv-x="486" d="M290 469 L48 469 L29 382 L45 382 C69 382 78 376 78 361 C78 354 77 342 75 335 L33 134 C24 95 17 88 -18 87 L-33 87 L-52 0 L269 0 L288 87 L259 87 C234 87 225 93 225 109 C225 116 226 126 228 134 L257 272 C267 317 280 348 299 372 C317 395 344 412 364 412 C368 412 375 411 384 409 C344 387 327 363 327 328 C327 293 350 272 388 272 C448 272 498 329 498 399 C498 454 465 485 408 485 C362 485 329 469 280 423 L290 469 Z M161 724 L238 534 L333 534 L491 724 L440 724 L307 636 L213 724 L161 724 Z " />
<glyph glyph-name="Sacute" unicode="&#x15a;" horiz-adv-x="665" d="M32 245 L-21 -3 L66 -3 L97 34 C177 -8 220 -20 296 -20 C480 -20 617 93 617 246 C617 344 558 395 403 431 C303 455 303 455 287 469 C281 475 276 486 276 496 C276 543 327 579 393 579 C436 579 471 565 494 539 C515 516 523 491 525 438 L631 438 L680 670 L590 670 L566 637 C497 673 448 686 375 686 C279 686 200 659 142 605 C89 556 57 485 57 418 C57 382 65 355 84 330 C107 301 170 270 271 239 C356 213 365 209 379 190 C384 184 386 175 386 165 C386 117 340 82 279 82 C234 82 189 102 161 133 C139 159 130 186 123 245 L32 245 Z M367 723 L525 777 C560 790 582 814 582 839 C582 863 566 879 543 879 C526 879 510 872 483 851 L310 723 L367 723 Z " />
<glyph glyph-name="sacute" unicode="&#x15b;" horiz-adv-x="538" d="M23 -7 L47 30 C94 -3 147 -17 218 -17 C359 -17 461 65 461 177 C461 209 452 231 433 250 C413 268 395 277 316 305 C233 335 232 336 232 357 C232 385 259 403 298 403 C315 403 331 400 346 393 C375 381 386 367 401 330 L475 330 L507 478 L437 478 L418 450 C355 479 326 486 265 486 C180 486 114 464 68 419 C34 387 14 341 14 296 C14 240 44 213 149 176 C246 141 246 141 246 119 C246 90 221 74 178 74 C157 74 138 78 122 86 C95 99 83 119 76 164 L-8 164 L-44 -7 L23 -7 Z M204 534 L262 534 L448 617 C494 638 515 661 515 691 C515 717 497 735 470 735 C444 735 423 724 379 686 L204 534 Z " />
<glyph glyph-name="Scedilla" unicode="&#x15e;" horiz-adv-x="665" d="M270 -19 C281 -20 289 -20 296 -20 C481 -20 617 93 617 248 C617 343 557 395 403 431 C303 455 303 455 287 469 C280 475 276 485 276 496 C276 542 328 579 393 579 C436 579 471 566 494 539 C515 516 523 491 525 438 L631 438 L680 670 L590 670 L566 637 C497 673 448 686 375 686 C279 686 200 658 142 605 C89 555 57 485 57 417 C57 382 66 354 84 330 C107 301 170 270 271 239 C356 213 365 209 379 190 C384 184 386 175 386 165 C386 117 340 82 279 82 C234 82 189 102 161 133 C139 159 130 186 123 245 L32 245 L-21 -3 L66 -3 L97 34 C160 1 183 -7 227 -14 L209 -99 C220 -97 232 -95 239 -95 C260 -95 273 -106 273 -124 C273 -151 252 -171 223 -171 C191 -171 159 -158 120 -130 L86 -182 C153 -218 192 -230 237 -230 C312 -230 371 -181 371 -117 C371 -76 345 -50 303 -50 C293 -50 278 -51 263 -54 L270 -19 Z " />
<glyph glyph-name="scedilla" unicode="&#x15f;" horiz-adv-x="538" d="M205 -17 C360 -17 461 60 461 178 C461 209 452 231 433 250 C413 268 396 276 316 305 C233 336 232 336 232 357 C232 385 259 403 298 403 C315 403 331 400 346 393 C375 381 386 367 401 330 L475 330 L507 478 L437 478 L418 450 C355 479 326 486 265 486 C117 486 14 408 14 296 C14 240 44 213 149 176 C246 141 246 141 246 119 C246 90 222 74 177 74 C115 74 86 100 76 164 L-8 164 L-44 -7 L23 -7 L47 30 C80 6 107 -4 162 -13 L144 -98 C155 -96 167 -94 173 -94 C195 -94 208 -105 208 -123 C208 -151 187 -171 157 -171 C125 -171 95 -159 54 -130 L20 -182 C86 -217 127 -230 171 -230 C246 -230 304 -180 304 -115 C304 -75 278 -49 238 -49 C228 -49 212 -51 198 -53 L205 -17 Z " />
<glyph glyph-name="Scaron" unicode="&#x160;" horiz-adv-x="665" d="M32 245 L-21 -3 L66 -3 L97 34 C177 -8 220 -20 296 -20 C480 -20 617 93 617 246 C617 344 558 395 403 431 C303 455 303 455 287 469 C281 475 276 486 276 496 C276 543 327 579 393 579 C436 579 471 565 494 539 C515 516 523 491 525 438 L631 438 L680 670 L590 670 L566 637 C497 673 448 686 375 686 C279 686 200 659 142 605 C89 556 57 485 57 418 C57 382 65 355 84 330 C107 301 170 270 271 239 C356 213 365 209 379 190 C384 184 386 175 386 165 C386 117 340 82 279 82 C234 82 189 102 161 133 C139 159 130 186 123 245 L32 245 Z M276 869 L347 723 L470 723 L603 869 L554 869 L427 810 L326 869 L276 869 Z " />
<glyph glyph-name="scaron" unicode="&#x161;" horiz-adv-x="538" d="M23 -7 L47 30 C94 -3 147 -17 218 -17 C359 -17 461 65 461 177 C461 209 452 231 433 250 C413 268 395 277 316 305 C233 335 232 336 232 357 C232 385 259 403 298 403 C315 403 331 400 346 393 C375 381 386 367 401 330 L475 330 L507 478 L437 478 L418 450 C355 479 326 486 265 486 C180 486 114 464 68 419 C34 387 14 341 14 296 C14 240 44 213 149 176 C246 141 246 141 246 119 C246 90 221 74 178 74 C157 74 138 78 122 86 C95 99 83 119 76 164 L-8 164 L-44 -7 L23 -7 Z M174 724 L251 534 L346 534 L504 724 L453 724 L320 636 L226 724 L174 724 Z " />
<glyph glyph-name="Tcommaaccent" unicode="&#x162;" horiz-adv-x="703" d="M128 414 C152 516 189 556 263 562 L289 562 L202 152 C193 101 186 95 141 94 L95 94 L75 0 L490 0 L510 94 L460 94 C428 94 417 100 417 118 C417 123 419 132 423 152 L510 562 L536 562 C585 562 616 530 616 481 C616 465 614 449 608 414 L702 414 L755 667 L89 667 L35 414 L128 414 Z M152 -290 C199 -283 225 -273 256 -251 C303 -217 333 -166 333 -121 C333 -80 306 -53 266 -53 C217 -53 174 -95 174 -143 C174 -170 193 -191 219 -191 C224 -191 232 -190 241 -188 C221 -220 208 -228 163 -238 L152 -290 Z " />
<glyph glyph-name="tcommaaccent" unicode="&#x163;" horiz-adv-x="434" d="M72 383 L26 167 C19 133 14 102 14 88 C14 22 70 -19 161 -19 C225 -19 275 -2 311 32 C340 60 353 89 367 158 L381 221 L295 221 L286 178 C270 99 256 73 231 73 C217 73 209 82 209 99 C209 107 211 122 216 142 L267 383 L392 383 L410 469 L285 469 L324 652 L207 652 C154 513 114 471 33 469 L15 383 L72 383 Z M-23 -290 C25 -283 50 -273 81 -251 C128 -217 158 -166 158 -121 C158 -80 131 -53 91 -53 C42 -53 -1 -95 -1 -143 C-1 -170 18 -191 44 -191 C50 -191 58 -190 67 -188 C46 -220 34 -228 -12 -238 L-23 -290 Z " />
<glyph glyph-name="Tcaron" unicode="&#x164;" horiz-adv-x="703" d="M128 414 C152 516 189 556 263 562 L289 562 L202 152 C193 101 186 95 141 94 L95 94 L75 0 L490 0 L510 94 L460 94 C428 94 417 100 417 118 C417 123 419 132 423 152 L510 562 L536 562 C585 562 616 530 616 481 C616 465 614 449 608 414 L702 414 L755 667 L89 667 L35 414 L128 414 Z M302 869 L373 723 L495 723 L628 869 L579 869 L452 810 L351 869 L302 869 Z " />
<glyph glyph-name="tcaron" unicode="&#x165;" horiz-adv-x="434" d="M72 383 L26 167 C19 133 14 102 14 88 C14 22 70 -19 161 -19 C225 -19 276 -2 311 32 C340 60 353 89 367 158 L381 221 L296 221 L286 178 C270 99 256 73 231 73 C217 73 209 82 209 99 C209 108 211 122 216 142 L267 383 L392 383 L410 469 L285 469 L324 652 L207 652 C155 513 115 471 33 469 L15 383 L72 383 Z M386 526 C434 533 459 543 490 565 C537 599 567 650 567 695 C567 736 540 763 500 763 C451 763 408 721 408 674 C408 647 427 626 453 626 C460 626 467 627 476 628 C455 596 443 588 397 579 L386 526 Z " />
<glyph glyph-name="Umacron" unicode="&#x16a;" horiz-adv-x="736" d="M486 573 L517 573 C549 573 560 567 560 550 C560 544 558 531 555 516 L491 214 C471 122 429 83 348 83 C297 83 270 107 270 152 C270 168 272 185 280 222 L343 516 C353 566 360 573 404 573 L437 573 L457 667 L76 667 L56 573 L86 573 C118 573 128 567 128 550 C128 544 126 531 123 516 L53 189 C49 171 47 151 47 137 C47 38 135 -20 284 -20 C474 -20 592 56 622 197 L690 519 C699 566 708 573 752 573 L779 573 L799 667 L506 667 L486 573 Z M304 754 L611 754 L628 838 L322 838 L304 754 Z " />
<glyph glyph-name="umacron" unicode="&#x16b;" horiz-adv-x="651" d="M324 0 L565 0 L583 87 L566 87 C542 87 534 93 534 108 C534 115 535 127 537 134 L608 469 L347 469 L328 381 L348 381 C377 381 387 376 387 358 C387 353 386 343 384 335 L351 181 C339 123 308 86 270 86 C243 86 228 102 228 130 C228 139 230 153 232 166 L297 469 L39 469 L20 381 L36 381 C66 381 77 375 76 358 C76 351 75 343 73 335 L35 156 C28 125 24 94 24 76 C24 18 72 -17 151 -17 C224 -17 273 5 338 69 L324 0 Z M187 585 L502 585 L520 672 L205 672 L187 585 Z " />
<glyph glyph-name="Uring" unicode="&#x16e;" horiz-adv-x="736" d="M486 573 L517 573 C549 573 560 567 560 550 C560 544 558 531 555 516 L491 214 C471 122 429 83 348 83 C297 83 270 107 270 152 C270 168 272 185 280 222 L343 516 C353 566 360 573 404 573 L437 573 L457 667 L76 667 L56 573 L86 573 C118 573 128 567 128 550 C128 544 126 531 123 516 L53 189 C49 171 47 151 47 137 C47 38 135 -20 284 -20 C474 -20 592 56 622 197 L690 519 C699 566 708 573 752 573 L779 573 L799 667 L506 667 L486 573 Z M496 922 C420 922 352 859 352 788 C352 732 390 691 442 691 C515 691 587 760 587 831 C587 884 549 922 496 922 L496 922 Z M480 851 C501 850 515 835 515 814 C515 787 487 761 458 761 C438 761 423 777 423 798 C423 825 452 852 480 851 L480 851 Z " />
<glyph glyph-name="uring" unicode="&#x16f;" horiz-adv-x="651" d="M324 0 L565 0 L583 87 L566 87 C542 87 534 93 534 108 C534 115 535 127 537 134 L608 469 L347 469 L328 381 L348 381 C377 381 387 376 387 358 C387 353 386 343 384 335 L351 181 C339 123 308 86 270 86 C243 86 228 102 228 130 C228 139 230 153 232 166 L297 469 L39 469 L20 381 L36 381 C66 381 77 375 76 358 C76 351 75 343 73 335 L35 156 C28 125 24 94 24 76 C24 18 72 -17 151 -17 C224 -17 273 5 338 69 L324 0 Z M404 793 C314 793 233 717 233 631 C233 565 276 520 340 520 C428 520 511 599 511 683 C511 746 465 793 404 793 L404 793 Z M385 715 C413 713 431 694 431 667 C431 632 395 598 358 598 C330 598 312 617 312 645 C312 681 350 717 385 715 L385 715 Z " />
<glyph glyph-name="Uhungarumlaut" unicode="&#x170;" horiz-adv-x="736" d="M486 573 L517 573 C549 573 560 567 560 550 C560 544 558 531 555 516 L491 214 C471 122 429 83 348 83 C297 83 270 107 270 152 C270 168 272 185 280 222 L343 516 C353 566 360 573 404 573 L437 573 L457 667 L76 667 L56 573 L86 573 C118 573 128 567 128 550 C128 544 126 531 123 516 L53 189 C49 171 47 151 47 137 C47 38 135 -20 284 -20 C474 -20 592 56 622 197 L690 519 C699 566 708 573 752 573 L779 573 L799 667 L506 667 L486 573 Z M374 721 L488 789 C515 805 528 823 528 842 C528 862 512 877 492 877 C472 877 455 866 431 838 L334 721 L374 721 Z M503 721 L645 787 C677 802 692 819 692 840 C692 860 676 877 657 877 C639 877 623 869 597 845 L462 721 L503 721 Z " />
<glyph glyph-name="uhungarumlaut" unicode="&#x171;" horiz-adv-x="651" d="M324 0 L565 0 L583 87 L566 87 C542 87 534 93 534 108 C534 115 535 127 537 134 L608 469 L347 469 L328 381 L348 381 C377 381 387 376 387 358 C387 353 386 343 384 335 L351 181 C339 123 308 86 270 86 C243 86 228 102 228 130 C228 139 230 153 232 166 L297 469 L39 469 L20 381 L36 381 C66 381 77 375 76 358 C76 351 75 343 73 335 L35 156 C28 125 24 94 24 76 C24 18 72 -17 151 -17 C224 -17 273 5 338 69 L324 0 Z M246 535 L292 535 L428 637 C457 658 472 680 472 699 C472 721 456 737 433 737 C405 737 388 724 350 674 L246 535 Z M373 535 L419 535 L589 632 C625 653 642 673 642 696 C642 718 626 735 604 735 C576 735 563 726 519 683 L373 535 Z " />
<glyph glyph-name="Uogonek" unicode="&#x172;" horiz-adv-x="736" d="M779 573 L799 667 L506 667 L486 573 L517 573 C548 573 560 567 560 552 C560 545 558 531 555 515 L491 214 C471 120 430 82 347 82 C296 82 270 106 270 153 C270 168 273 186 280 222 L343 515 C353 566 360 573 404 573 L437 573 L457 667 L76 667 L56 573 L86 573 C117 573 128 567 128 552 C128 545 126 531 123 515 L53 189 C49 170 47 150 47 135 C47 38 136 -21 283 -21 C306 -21 327 -20 350 -17 C275 -71 238 -121 238 -171 C238 -209 264 -230 309 -230 C359 -230 402 -201 444 -138 L429 -128 C402 -157 392 -163 371 -163 C350 -163 340 -152 340 -129 C340 -83 378 -26 421 -8 L490 20 C518 32 546 54 570 86 C594 117 614 159 622 197 L690 519 C699 566 708 573 752 573 L779 573 Z " />
<glyph glyph-name="uogonek" unicode="&#x173;" horiz-adv-x="651" d="M565 0 L583 87 L566 87 C542 87 534 93 534 109 C534 115 535 127 537 134 L608 469 L347 469 L328 381 L348 381 C377 381 387 376 387 358 C387 353 386 343 384 335 L351 181 C339 123 308 86 270 86 C243 86 228 102 228 130 C228 139 230 153 232 166 L297 469 L39 469 L20 381 L36 381 C66 381 77 375 76 358 C76 351 75 343 73 335 L35 156 C28 125 24 94 24 76 C24 18 72 -17 151 -17 C224 -17 273 6 338 69 L324 0 L479 0 C389 -56 340 -117 340 -174 C340 -211 365 -232 409 -232 C459 -232 502 -202 543 -140 L529 -130 C502 -159 492 -165 471 -165 C450 -165 440 -154 440 -130 C440 -90 469 -42 519 0 L565 0 Z " />
<glyph glyph-name="Ydieresis" unicode="&#x178;" horiz-adv-x="651" d="M27 573 L46 573 C82 571 101 555 118 510 L200 268 L175 152 C166 101 160 95 115 94 L82 94 L62 0 L447 0 L467 94 L433 94 C401 94 391 100 391 117 C391 124 393 135 396 152 L421 268 L607 506 C641 552 669 571 702 573 L722 573 L742 667 L458 667 L438 573 L465 573 C487 573 502 567 502 558 C502 551 494 534 485 523 L378 394 L328 521 C325 530 323 538 323 544 C323 563 340 573 373 573 L396 573 L416 667 L47 667 L27 573 Z M351 878 C302 878 255 834 255 788 C255 751 279 726 315 726 C363 726 410 770 410 816 C410 850 384 878 351 878 L351 878 Z M549 878 C500 878 453 834 453 788 C453 751 478 726 513 726 C562 726 608 770 608 816 C608 850 582 878 549 878 L549 878 Z " />
<glyph glyph-name="Zacute" unicode="&#x179;" horiz-adv-x="637" d="M-57 0 L539 0 L595 267 L483 267 C446 132 401 90 296 94 L210 94 L660 573 L681 667 L101 667 L48 418 L156 418 C191 541 226 572 332 573 L416 573 L-37 94 L-57 0 Z M353 723 L511 777 C546 790 568 814 568 839 C568 863 552 879 529 879 C512 879 496 872 469 851 L296 723 L353 723 Z " />
<glyph glyph-name="zacute" unicode="&#x17a;" horiz-adv-x="486" d="M-57 0 L387 0 L431 206 L346 206 C323 106 310 91 234 87 L171 87 L466 373 L487 469 L59 469 L19 280 L104 280 C128 368 138 378 202 382 L264 382 L-36 96 L-57 0 Z M178 534 L236 534 L422 617 C469 638 489 661 489 691 C489 717 471 735 444 735 C418 735 397 724 353 686 L178 534 Z " />
<glyph glyph-name="Zdotaccent" unicode="&#x17b;" horiz-adv-x="637" d="M-57 0 L539 0 L595 267 L483 267 C446 132 401 90 296 94 L210 94 L660 573 L681 667 L101 667 L48 418 L156 418 C191 541 226 572 332 573 L416 573 L-37 94 L-57 0 Z M434 866 C387 866 340 823 340 779 C340 743 365 717 398 717 C446 717 492 760 492 805 C492 839 466 866 434 866 L434 866 Z " />
<glyph glyph-name="zdotaccent" unicode="&#x17c;" horiz-adv-x="486" d="M-57 0 L387 0 L431 206 L346 206 C323 106 310 91 234 87 L171 87 L466 373 L487 469 L59 469 L19 280 L104 280 C128 368 138 378 202 382 L264 382 L-36 96 L-57 0 Z M325 707 C275 707 227 662 227 616 C227 579 253 553 291 553 C339 553 384 598 384 645 C384 680 359 707 325 707 L325 707 Z " />
<glyph glyph-name="Zcaron" unicode="&#x17d;" horiz-adv-x="637" d="M-57 0 L539 0 L595 267 L483 267 C446 132 401 90 296 94 L210 94 L660 573 L681 667 L101 667 L48 418 L156 418 C191 541 226 572 332 573 L416 573 L-37 94 L-57 0 Z M269 869 L339 723 L462 723 L595 869 L546 869 L419 810 L318 869 L269 869 Z " />
<glyph glyph-name="zcaron" unicode="&#x17e;" horiz-adv-x="486" d="M-57 0 L387 0 L431 206 L346 206 C323 106 310 91 234 87 L171 87 L466 373 L487 469 L59 469 L19 280 L104 280 C128 368 138 378 202 382 L264 382 L-36 96 L-57 0 Z M161 724 L238 534 L333 534 L491 724 L439 724 L307 636 L212 724 L161 724 Z " />
<glyph glyph-name="florin" unicode="&#x192;" horiz-adv-x="629" d="M441 469 L464 532 C481 579 488 591 506 605 C517 613 530 618 542 618 C549 618 554 617 565 614 C528 595 507 567 507 537 C507 510 527 494 562 494 C621 494 675 545 675 602 C675 654 628 684 548 684 C473 684 402 661 354 621 C322 593 301 560 278 496 L268 469 L201 469 L168 378 L235 378 L91 -18 C75 -61 70 -74 61 -84 C47 -101 28 -111 10 -111 C4 -111 -2 -110 -12 -106 C26 -86 46 -59 46 -29 C46 -2 26 14 -9 14 C-68 14 -122 -38 -122 -95 C-122 -146 -74 -177 6 -177 C78 -177 152 -153 198 -113 C234 -83 251 -54 282 32 L408 378 L489 378 L522 469 L441 469 Z " />
<glyph glyph-name="uni01D3" unicode="&#x1d3;" horiz-adv-x="736" d="M486 573 L517 573 C549 573 560 567 560 550 C560 544 558 531 555 516 L491 214 C471 122 429 83 348 83 C297 83 270 107 270 152 C270 168 272 185 280 222 L343 516 C353 566 360 573 404 573 L437 573 L457 667 L76 667 L56 573 L86 573 C118 573 128 567 128 550 C128 544 126 531 123 516 L53 189 C49 171 47 151 47 137 C47 38 135 -20 284 -20 C474 -20 592 56 622 197 L690 519 C699 566 708 573 752 573 L779 573 L799 667 L506 667 L486 573 Z M318 869 L389 723 L512 723 L645 869 L596 869 L469 810 L368 869 L318 869 Z " />
<glyph glyph-name="Scommaaccent" unicode="&#x218;" horiz-adv-x="665" d="M32 245 L-21 -3 L66 -3 L97 34 C177 -8 220 -20 296 -20 C480 -20 617 93 617 246 C617 344 558 395 403 431 C303 455 303 455 287 469 C281 475 276 486 276 496 C276 543 327 579 393 579 C436 579 471 565 494 539 C515 516 523 491 525 438 L631 438 L680 670 L590 670 L566 637 C497 673 448 686 375 686 C279 686 200 659 142 605 C89 556 57 485 57 418 C57 382 65 355 84 330 C107 301 170 270 271 239 C356 213 365 209 379 190 C384 184 386 175 386 165 C386 117 340 82 279 82 C234 82 189 102 161 133 C139 159 130 186 123 245 L32 245 Z M149 -290 C197 -283 222 -273 253 -251 C300 -217 330 -166 330 -121 C330 -80 303 -53 263 -53 C214 -53 171 -95 171 -143 C171 -170 190 -191 216 -191 C221 -191 230 -190 238 -188 C218 -220 206 -228 160 -238 L149 -290 Z " />
<glyph glyph-name="scommaaccent" unicode="&#x219;" horiz-adv-x="538" d="M23 -7 L47 30 C94 -3 147 -17 218 -17 C359 -17 461 65 461 177 C461 209 452 231 433 250 C413 268 395 277 316 305 C233 335 232 336 232 357 C232 385 259 403 298 403 C315 403 331 400 346 393 C375 381 386 367 401 330 L475 330 L507 478 L437 478 L418 450 C355 479 326 486 265 486 C180 486 114 464 68 419 C34 387 14 341 14 296 C14 240 44 213 149 176 C246 141 246 141 246 119 C246 90 221 74 178 74 C157 74 138 78 122 86 C95 99 83 119 76 164 L-8 164 L-44 -7 L23 -7 Z M69 -290 C117 -283 142 -273 173 -251 C220 -217 250 -167 250 -121 C250 -80 223 -53 183 -53 C134 -53 91 -95 91 -143 C91 -170 110 -191 136 -191 C142 -191 150 -190 159 -188 C138 -220 126 -228 81 -238 L69 -290 Z " />
<glyph glyph-name="uni021A" unicode="&#x21a;" horiz-adv-x="703" d="M128 414 C152 516 189 556 263 562 L289 562 L202 152 C193 101 186 95 141 94 L95 94 L75 0 L490 0 L510 94 L460 94 C428 94 417 100 417 118 C417 123 419 132 423 152 L510 562 L536 562 C585 562 616 530 616 481 C616 465 614 449 608 414 L702 414 L755 667 L89 667 L35 414 L128 414 Z M152 -290 C199 -283 225 -273 256 -251 C303 -217 333 -166 333 -121 C333 -80 306 -53 266 -53 C217 -53 174 -95 174 -143 C174 -170 193 -191 219 -191 C224 -191 232 -190 241 -188 C221 -220 208 -228 163 -238 L152 -290 Z " />
<glyph glyph-name="uni021B" unicode="&#x21b;" horiz-adv-x="434" d="M72 383 L26 167 C19 133 14 102 14 88 C14 22 70 -19 161 -19 C225 -19 275 -2 311 32 C340 60 353 89 367 158 L381 221 L295 221 L286 178 C270 99 256 73 231 73 C217 73 209 82 209 99 C209 107 211 122 216 142 L267 383 L392 383 L410 469 L285 469 L324 652 L207 652 C154 513 114 471 33 469 L15 383 L72 383 Z M-23 -290 C25 -283 50 -273 81 -251 C128 -217 158 -166 158 -121 C158 -80 131 -53 91 -53 C42 -53 -1 -95 -1 -143 C-1 -170 18 -191 44 -191 C50 -191 58 -190 67 -188 C46 -220 34 -228 -12 -238 L-23 -290 Z " />
<glyph glyph-name="afii57929" unicode="&#x2bc;" horiz-adv-x="259" d="M51 393 C108 401 139 412 178 441 C238 485 276 550 276 607 C276 658 245 690 196 690 C137 690 86 637 86 577 C86 540 108 516 141 516 C147 516 155 517 163 518 C136 475 120 465 64 455 L51 393 Z " />
<glyph glyph-name="circumflex" unicode="&#x2c6;" horiz-adv-x="491" d="M123 534 L175 534 L307 622 L402 534 L453 534 L376 724 L281 724 L123 534 Z " />
<glyph glyph-name="caron" unicode="&#x2c7;" horiz-adv-x="492" d="M164 724 L241 534 L336 534 L494 724 L443 724 L310 636 L216 724 L164 724 Z " />
<glyph glyph-name="uni02C9" unicode="&#x2c9;" horiz-adv-x="491" d="M141 585 L456 585 L475 672 L159 672 L141 585 Z " />
<glyph glyph-name="breve" unicode="&#x2d8;" horiz-adv-x="492" d="M158 708 C158 664 160 646 166 628 C182 580 229 550 291 550 C339 550 388 568 424 598 C453 623 469 648 493 708 L445 708 C429 680 418 668 398 660 C376 650 345 645 313 645 C279 645 250 650 232 660 C218 668 210 681 206 708 L158 708 Z " />
<glyph glyph-name="dotaccent" unicode="&#x2d9;" horiz-adv-x="483" d="M324 707 C274 707 226 662 226 616 C226 579 252 553 290 553 C338 553 383 598 383 645 C383 680 358 707 324 707 L324 707 Z " />
<glyph glyph-name="ring" unicode="&#x2da;" horiz-adv-x="613" d="M385 793 C295 793 214 717 214 631 C214 565 257 520 321 520 C409 520 492 599 492 683 C492 746 446 793 385 793 L385 793 Z M366 715 C394 713 412 694 412 667 C412 632 376 598 339 598 C311 598 293 617 293 645 C293 681 331 717 366 715 L366 715 Z " />
<glyph glyph-name="ogonek" unicode="&#x2db;" horiz-adv-x="475" d="M212 25 C92 -42 33 -107 33 -171 C33 -209 58 -230 102 -230 C152 -230 195 -200 237 -138 L222 -128 C195 -157 185 -163 164 -163 C143 -163 133 -152 133 -129 C133 -104 145 -73 167 -44 C182 -23 194 -12 240 25 L212 25 Z " />
<glyph glyph-name="tilde" unicode="&#x2dc;" horiz-adv-x="492" d="M167 549 C183 583 201 597 225 597 C236 597 245 596 257 592 L313 576 C324 573 336 571 346 571 C377 571 406 583 430 605 C454 629 468 651 494 708 L451 708 C431 671 418 661 393 661 C386 661 378 662 370 664 L311 681 C298 684 286 686 272 686 C246 686 220 677 199 661 C170 639 152 613 124 549 L167 549 Z " />
<glyph glyph-name="hungarumlaut" unicode="&#x2dd;" horiz-adv-x="486" d="M163 535 L209 535 L345 637 C374 658 389 680 389 699 C389 721 373 737 350 737 C322 737 305 724 267 674 L163 535 Z M290 535 L337 535 L506 632 C544 653 560 673 560 696 C560 718 544 735 522 735 C494 735 479 726 436 683 L290 535 Z " />
<glyph glyph-name="uni2011" unicode="&#x2011;" horiz-adv-x="275" d="M-38 154 L237 154 L271 312 L-5 312 L-38 154 Z " />
<glyph glyph-name="figuredash" unicode="&#x2012;" horiz-adv-x="522" d="M-9 170 L463 170 L489 295 L18 295 L-9 170 Z " />
<glyph glyph-name="endash" unicode="&#x2013;" horiz-adv-x="522" d="M-9 170 L463 170 L489 295 L18 295 L-9 170 Z " />
<glyph glyph-name="emdash" unicode="&#x2014;" horiz-adv-x="774" d="M-35 170 L739 170 L765 295 L-8 295 L-35 170 Z " />
<glyph glyph-name="afii00208" unicode="&#x2015;" horiz-adv-x="774" d="M-35 170 L739 170 L765 295 L-8 295 L-35 170 Z " />
<glyph glyph-name="quoteleft" unicode="&#x2018;" horiz-adv-x="259" d="M290 687 C232 679 202 667 163 639 C102 594 64 530 64 473 C64 422 95 390 144 390 C203 390 255 442 255 502 C255 539 233 563 200 563 C192 563 186 563 178 562 C205 605 221 615 277 624 L290 687 Z " />
<glyph glyph-name="quoteright" unicode="&#x2019;" horiz-adv-x="259" d="M51 393 C108 401 139 412 178 441 C238 485 276 550 276 607 C276 658 245 690 196 690 C137 690 86 637 86 577 C86 540 108 516 141 516 C147 516 155 517 163 518 C136 475 120 465 64 455 L51 393 Z " />
<glyph glyph-name="quotesinglbase" unicode="&#x201a;" horiz-adv-x="259" d="M-60 -131 C-3 -123 28 -112 67 -83 C127 -39 165 26 165 83 C165 134 134 166 85 166 C26 166 -25 113 -25 53 C-25 16 -3 -8 30 -8 C36 -8 44 -7 52 -6 C25 -49 9 -59 -47 -68 L-60 -131 Z " />
<glyph glyph-name="quotedblleft" unicode="&#x201c;" horiz-adv-x="481" d="M508 692 C451 684 420 673 381 644 C321 599 283 535 283 478 C283 427 314 395 363 395 C422 395 474 448 474 508 C474 545 452 569 419 569 C413 569 404 568 396 567 C423 610 439 620 495 629 L508 692 Z M286 692 C228 684 198 673 159 644 C98 600 60 535 60 478 C60 427 91 395 140 395 C199 395 251 448 251 508 C251 545 229 569 196 569 C190 569 182 568 174 567 C201 610 216 620 273 629 L286 692 Z " />
<glyph glyph-name="quotedblright" unicode="&#x201d;" horiz-adv-x="481" d="M273 393 C331 401 362 412 400 441 C461 485 499 550 499 607 C499 658 468 690 418 690 C360 690 308 637 308 577 C308 540 330 516 363 516 C370 516 377 517 386 518 C358 475 343 465 287 455 L273 393 Z M51 393 C108 401 139 412 178 441 C238 485 276 550 276 607 C276 658 245 690 196 690 C137 690 86 637 86 577 C86 540 108 516 141 516 C147 516 155 517 163 518 C136 475 120 465 64 455 L51 393 Z " />
<glyph glyph-name="quotedblbase" unicode="&#x201e;" horiz-adv-x="481" d="M-60 -131 C-3 -123 28 -112 67 -83 C127 -39 165 26 165 83 C165 134 134 166 85 166 C26 166 -25 113 -25 53 C-25 16 -3 -8 30 -8 C36 -8 44 -7 52 -6 C25 -49 9 -59 -47 -68 L-60 -131 Z M162 -131 C220 -123 251 -112 289 -83 C350 -39 388 26 388 83 C388 134 357 166 307 166 C249 166 197 113 197 53 C197 16 219 -8 252 -8 C258 -8 266 -7 275 -6 C247 -49 232 -59 176 -68 L162 -131 Z " />
<glyph glyph-name="dagger" unicode="&#x2020;" horiz-adv-x="590" d="M237 431 L220 439 C187 454 175 458 159 458 C108 458 69 415 69 359 C69 324 87 305 119 305 C154 305 171 311 268 358 C262 319 252 285 198 122 C129 -69 122 -95 122 -137 C122 -177 144 -199 184 -199 C216 -199 244 -182 262 -152 C280 -119 291 -66 297 33 C308 207 319 309 333 358 C425 305 425 305 459 305 C505 305 542 349 542 403 C542 437 520 458 485 458 C464 458 457 456 346 412 C356 448 362 464 381 501 C429 593 434 605 434 638 C434 671 414 688 373 688 C307 688 274 651 274 575 C274 568 274 562 275 559 C283 477 283 477 283 460 C283 446 282 435 278 412 L237 431 Z " />
<glyph glyph-name="daggerdbl" unicode="&#x2021;" horiz-adv-x="590" d="M227 372 C235 375 251 380 274 385 C266 353 234 297 194 244 C208 206 217 164 217 133 C217 127 216 117 215 105 C184 112 184 112 135 136 C125 141 102 145 86 145 C40 145 4 106 4 56 C4 24 26 4 62 4 C83 4 102 10 201 46 C192 15 186 1 168 -32 C122 -113 118 -123 118 -153 C118 -184 139 -199 183 -199 C245 -199 277 -166 277 -102 C277 -89 277 -86 269 -32 C267 -15 266 -2 266 10 C266 17 267 31 269 46 C287 39 301 33 311 29 C316 26 322 24 327 22 C361 7 373 4 389 4 C439 4 477 43 477 93 C477 127 459 145 426 145 C409 145 385 141 373 136 L327 118 C319 115 303 110 280 105 C288 136 320 193 359 244 C345 288 337 329 337 357 C337 362 338 373 340 385 C370 378 370 378 420 354 C429 349 452 345 468 345 C514 345 550 384 550 434 C550 466 528 486 492 486 C471 486 455 481 353 443 C362 475 368 490 386 522 C432 602 436 612 436 642 C436 673 416 688 375 688 C308 688 277 657 277 592 C277 579 278 574 285 522 C288 504 289 493 289 480 C289 473 288 459 285 443 C281 445 261 454 227 468 C193 483 182 486 165 486 C115 486 77 447 77 397 C77 363 95 345 128 345 C146 345 169 349 181 354 L227 372 Z " />
<glyph glyph-name="bullet" unicode="&#x2022;" horiz-adv-x="633" d="M349 480 C264 480 184 397 184 309 C184 245 227 200 287 200 C372 200 452 283 452 371 C452 435 409 480 349 480 L349 480 Z " />
<glyph glyph-name="ellipsis" unicode="&#x2026;" horiz-adv-x="920" d="M120 166 C61 166 9 115 9 56 C9 11 36 -17 79 -17 C134 -17 187 37 187 94 C187 135 159 166 120 166 L120 166 Z M427 166 C368 166 316 115 316 56 C316 11 343 -17 386 -17 C440 -17 493 37 493 94 C493 135 465 166 427 166 L427 166 Z M734 166 C675 166 623 115 623 56 C623 11 650 -17 693 -17 C747 -17 800 37 800 94 C800 135 772 166 734 166 L734 166 Z " />
<glyph glyph-name="perthousand" unicode="&#x2030;" horiz-adv-x="1319" d="M271 622 C144 622 43 513 43 377 C43 294 101 240 190 240 C316 240 418 349 418 484 C418 568 360 622 271 622 L271 622 Z M255 547 C283 547 294 532 294 496 C294 459 279 391 263 358 C248 328 231 315 207 315 C179 315 168 330 168 366 C168 405 183 471 199 504 C215 534 231 547 255 547 L255 547 Z M703 365 C576 365 475 256 475 120 C475 37 533 -17 622 -17 C748 -17 850 92 850 227 C850 311 792 365 703 365 L703 365 Z M686 290 C714 290 725 275 725 239 C725 201 710 134 694 101 C679 71 662 58 638 58 C610 58 599 73 599 109 C599 148 614 214 630 247 C646 277 662 290 686 290 L686 290 Z M152 -17 L243 -17 L739 623 L650 623 L152 -17 Z M1112 365 C985 365 884 256 884 120 C884 37 942 -17 1031 -17 C1157 -17 1259 92 1259 227 C1259 311 1201 365 1112 365 L1112 365 Z M1095 290 C1123 290 1134 275 1134 239 C1134 201 1119 134 1103 101 C1088 71 1071 58 1047 58 C1019 58 1008 73 1008 109 C1008 148 1023 214 1039 247 C1055 277 1071 290 1095 290 L1095 290 Z " />
<glyph glyph-name="guilsinglleft" unicode="&#x2039;" horiz-adv-x="274" d="M181 67 C164 162 160 187 160 212 C160 240 170 269 196 316 C228 373 229 375 246 406 L152 406 C48 294 16 250 16 222 C16 205 27 177 80 67 L181 67 Z " />
<glyph glyph-name="guilsinglright" unicode="&#x203a;" horiz-adv-x="274" d="M82 67 C152 145 152 145 163 157 C206 206 218 226 218 246 C218 269 195 328 155 406 L60 406 C72 325 75 294 75 266 C75 232 65 204 33 153 C21 134 3 104 -19 67 L82 67 Z " />
<glyph glyph-name="uni203E" unicode="&#x203e;" horiz-adv-x="500" d="M-81 787 L-105 674 L395 674 L419 787 L-81 787 Z " />
<glyph glyph-name="fraction" unicode="&#x2044;" horiz-adv-x="156" d="M-230 -17 L-141 -17 L378 622 L289 622 L-230 -17 Z " />
<glyph glyph-name="Euro" unicode="&#x20ac;" horiz-adv-x="846" d="M118 355 C112 329 111 326 108 310 L62 310 L7 221 L101 221 C102 183 105 162 113 136 C143 36 239 -20 377 -20 C485 -20 578 15 643 81 C686 125 707 165 735 258 L632 258 C612 193 597 165 567 134 C533 99 492 79 450 79 C391 79 359 119 359 195 C359 201 359 211 360 221 L437 221 L492 310 L373 310 C376 322 381 349 383 355 L521 355 L576 444 L407 444 C438 537 489 586 553 586 C603 586 633 559 644 502 C648 480 649 465 649 402 L763 402 L821 676 L717 676 L694 640 C631 678 597 687 521 687 C360 687 221 596 150 444 L90 444 L35 355 L118 355 Z " />
<glyph glyph-name="trademark" unicode="&#x2122;" horiz-adv-x="1071" d="M116 518 C130 577 150 598 196 601 L209 601 L161 375 C156 348 154 347 127 346 L95 346 L82 287 L350 287 L363 346 L328 346 C310 346 304 349 304 357 C304 361 305 368 306 375 L355 601 L368 601 C398 601 417 584 417 556 C417 549 416 538 413 518 L477 518 L509 667 L83 667 L51 518 L116 518 Z M1130 667 L894 667 L778 452 L758 667 L529 667 L516 608 L537 608 C556 608 562 605 562 597 C562 594 561 589 559 579 L516 375 C510 349 508 347 481 346 L461 346 L448 287 L633 287 L646 346 L629 346 C610 346 604 349 604 357 C604 361 605 368 607 375 L650 581 L677 287 L775 287 L931 582 L887 375 C882 349 880 347 854 346 L837 346 L824 287 L1050 287 L1062 346 L1041 346 C1022 346 1016 349 1016 357 C1016 359 1016 361 1019 375 L1063 579 C1068 605 1070 607 1096 608 L1118 608 L1130 667 Z " />
<glyph glyph-name="uni2126" unicode="&#x2126;" horiz-adv-x="768" d="M326 0 L308 155 C230 199 180 288 180 382 C180 434 195 493 221 540 C257 605 317 642 385 642 C453 642 513 605 549 540 C575 493 590 434 590 382 C590 288 540 199 462 155 L444 0 L736 0 L736 153 L712 153 C704 108 684 90 643 90 L497 90 L500 128 C535 141 557 151 580 166 C657 215 702 296 702 382 C702 449 673 522 625 578 C564 648 480 686 385 686 C290 686 206 648 145 578 C97 522 68 449 68 382 C68 296 113 215 190 166 C213 151 235 141 270 128 L273 90 L127 90 C86 90 66 108 58 153 L34 153 L34 0 L326 0 Z " />
<glyph glyph-name="partialdiff" unicode="&#x2202;" horiz-adv-x="494" d="M107 674 C152 697 184 706 219 706 C321 706 379 611 379 447 C379 418 377 394 372 346 C308 396 272 412 221 412 C172 412 131 394 95 355 C51 309 26 246 26 184 C26 76 109 -10 213 -10 C282 -10 341 22 383 84 C429 152 462 286 462 403 C462 519 428 611 360 681 C312 730 259 753 195 753 C155 753 122 746 66 725 L107 674 Z M366 312 C350 201 340 158 314 107 C288 54 245 21 201 21 C146 21 113 73 113 159 C113 273 180 367 261 367 C299 367 324 354 366 312 L366 312 Z " />
<glyph glyph-name="Delta" unicode="&#x2206;" horiz-adv-x="612" d="M6 0 L608 0 L327 688 L6 0 Z M77 51 L290 509 L479 51 L77 51 Z " />
<glyph glyph-name="product" unicode="&#x220f;" horiz-adv-x="823" d="M25 -124 L315 -124 L315 -98 L312 -98 C242 -94 221 -67 224 18 L224 594 C224 656 228 677 242 690 C260 707 272 708 413 708 C556 708 568 707 586 690 C600 677 604 656 604 594 L604 18 C607 -67 586 -94 516 -98 L513 -98 L513 -124 L803 -124 L803 -98 L800 -98 C730 -94 709 -67 712 18 L712 609 C709 694 730 721 800 725 L803 725 L803 751 L25 751 L25 725 L28 725 C98 721 119 694 116 609 L116 18 C119 -67 98 -94 28 -98 L25 -98 L25 -124 Z " />
<glyph glyph-name="summation" unicode="&#x2211;" horiz-adv-x="713" d="M176 711 L444 711 C560 710 590 688 606 587 L632 587 L622 752 L23 752 L256 285 L14 -123 L641 -123 L695 87 L669 87 C639 7 605 -12 491 -11 L163 -11 L364 341 L176 711 Z " />
<glyph glyph-name="minus" unicode="&#x2212;" horiz-adv-x="613" d="M86 387 L57 252 L521 252 L549 387 L86 387 Z " />
<glyph glyph-name="uni2215" unicode="&#x2215;" horiz-adv-x="156" d="M-230 -17 L-141 -17 L378 622 L289 622 L-230 -17 Z " />
<glyph glyph-name="uni2219" unicode="&#x2219;" horiz-adv-x="307" d="M154 326 C95 326 43 275 43 216 C43 171 70 143 113 143 C168 143 221 197 221 254 C221 295 193 326 154 326 L154 326 Z " />
<glyph glyph-name="radical" unicode="&#x221a;" horiz-adv-x="549" d="M363 -35 L515 908 L480 913 L353 123 L156 520 L10 449 L26 414 L121 461 L363 -35 Z " />
<glyph glyph-name="infinity" unicode="&#x221e;" horiz-adv-x="713" d="M357 227 C415 156 485 115 548 115 C631 115 688 176 688 266 C688 354 629 414 543 414 C476 414 412 376 357 303 C300 375 234 414 171 414 C86 414 26 351 26 263 C26 176 84 115 167 115 C224 115 281 142 327 192 L357 227 Z M391 264 C434 325 493 362 546 362 C600 362 638 321 638 264 C638 205 603 167 549 167 C495 167 461 188 391 264 L391 264 Z M324 266 C275 203 216 167 163 167 C111 167 76 207 76 266 C76 323 113 362 167 362 C218 362 258 337 324 266 L324 266 Z " />
<glyph glyph-name="integral" unicode="&#x222b;" horiz-adv-x="274" d="M180 576 C180 653 179 691 176 746 C174 774 173 800 173 815 C173 855 184 878 202 878 C208 878 213 876 215 872 C232 845 239 839 256 839 C276 839 291 853 291 871 C291 898 267 916 231 916 C186 916 152 887 138 838 C123 784 113 682 113 577 L113 232 C113 160 114 124 117 63 C119 34 120 4 120 -12 C120 -47 108 -70 89 -70 C81 -70 74 -65 68 -52 C59 -35 51 -30 37 -30 C17 -30 2 -44 2 -63 C2 -89 26 -107 62 -107 C107 -107 141 -78 155 -29 C170 25 180 126 180 232 L180 576 Z " />
<glyph glyph-name="approxequal" unicode="&#x2248;" horiz-adv-x="549" d="M489 251 C444 199 423 187 384 187 C365 187 354 190 285 211 C212 234 188 239 160 239 C101 239 54 211 14 155 L57 121 C103 174 120 184 159 184 C180 184 180 184 271 157 C350 133 354 132 385 132 C449 132 496 160 527 217 L489 251 Z M489 408 C444 356 423 344 384 344 C365 344 354 347 285 368 C212 391 188 396 160 396 C101 396 54 369 14 312 L57 278 C103 331 120 341 159 341 C180 341 180 341 271 314 C350 290 354 289 385 289 C449 289 496 318 527 375 L489 408 Z " />
<glyph glyph-name="notequal" unicode="&#x2260;" horiz-adv-x="549" d="M187 142 L115 -1 L161 -25 L246 142 L540 142 L540 197 L273 197 L344 336 L540 336 L540 391 L371 391 L439 525 L392 549 L312 391 L15 391 L15 336 L285 336 L215 197 L15 197 L15 142 L187 142 Z " />
<glyph glyph-name="lessequal" unicode="&#x2264;" horiz-adv-x="549" d="M526 55 L29 55 L29 0 L526 0 L526 55 Z M526 639 L29 405 L29 350 L526 117 L526 179 L108 378 L526 577 L526 639 Z " />
<glyph glyph-name="greaterequal" unicode="&#x2265;" horiz-adv-x="549" d="M526 55 L29 55 L29 0 L526 0 L526 55 Z M29 639 L29 577 L447 378 L29 179 L29 117 L526 350 L526 405 L29 639 Z " />
<glyph glyph-name="lozenge" unicode="&#x25ca;" horiz-adv-x="494" d="M209 0 L269 -1 L466 374 L277 740 L214 740 L18 377 L209 0 Z M240 58 L81 376 L245 683 L402 373 L240 58 Z " />
<glyph glyph-name="fi" unicode="&#xfb01;" horiz-adv-x="675" d="M96 378 L44 134 C35 95 27 88 -10 87 L-33 87 L-52 0 L255 0 L273 87 L264 87 C235 87 225 93 226 110 C226 118 228 126 230 135 L281 378 L379 378 C403 378 412 372 412 357 C412 351 411 343 408 331 L367 134 C358 97 352 90 323 87 L312 87 L294 0 L588 0 L606 87 L592 87 C568 87 559 93 559 108 C559 115 560 127 562 134 L633 469 L301 469 L308 504 C324 580 365 616 438 616 C459 616 470 614 493 607 C460 586 448 568 448 541 C448 506 473 489 524 489 C588 489 633 529 633 585 C633 647 556 685 427 685 C366 685 307 677 263 662 C182 634 142 588 123 504 L116 469 L48 469 L28 378 L96 378 Z " />
<glyph glyph-name="fl" unicode="&#xfb02;" horiz-adv-x="675" d="M95 378 L44 134 C35 95 27 88 -11 87 L-33 87 L-52 0 L254 0 L273 87 L264 87 C234 87 225 93 226 110 C226 118 228 126 229 135 L281 378 L360 378 L379 469 L300 469 L311 520 C323 577 370 615 430 615 C444 615 452 614 472 609 C450 589 442 573 442 548 C442 537 444 531 452 517 L371 134 C362 97 356 90 327 87 L317 87 L298 0 L588 0 L606 87 L592 87 C567 87 558 93 558 108 C558 114 559 123 562 134 L675 667 L552 667 C491 680 462 684 416 684 C330 684 253 665 202 632 C162 606 136 563 122 500 L116 469 L48 469 L28 378 L95 378 Z " />
</font>
</svg>
