<?xml version="1.0" encoding="UTF-8"?>
<svg xmlns="http://www.w3.org/2000/svg" xmlns:xlink="http://www.w3.org/1999/xlink" version="1.2" >
<font id="Futura Display P">
<font-face  font-family="Futura Display P" units-per-em="1000" ascent="667" descent="-333" font-style="normal" font-weight="400" font-stretch="normal" cap-height="667" x-height="512" underline-position="-52" underline-thickness="102" />
<missing-glyph  horiz-adv-x="150" d="" />
<glyph glyph-name="NULL" d="" />
<glyph glyph-name="CR" unicode="&#xd;" horiz-adv-x="250" d="" />
<glyph glyph-name="space" unicode="&#x20;" horiz-adv-x="150" d="" />
<glyph glyph-name="exclam" unicode="&#x21;" horiz-adv-x="238" d="M46 667 L46 164 L215 164 L215 667 L46 667 Z M46 106 L46 0 L215 0 L215 106 L46 106 Z " />
<glyph glyph-name="quotedbl" unicode="&#x22;" horiz-adv-x="396" d="M205 502 L217 399 L342 399 L375 667 L225 667 L205 502 Z M179 399 L212 667 L22 667 L55 399 L179 399 Z " />
<glyph glyph-name="numbersign" unicode="&#x23;" horiz-adv-x="500" d="M354 205 L438 205 L451 295 L367 295 L379 385 L463 385 L476 476 L392 476 L412 615 L319 615 L299 476 L230 476 L250 615 L157 615 L138 476 L62 476 L49 385 L125 385 L112 295 L37 295 L24 205 L100 205 L78 52 L171 52 L192 205 L261 205 L240 52 L332 52 L354 205 Z M287 385 L274 295 L205 295 L218 385 L287 385 Z " />
<glyph glyph-name="dollar" unicode="&#x24;" horiz-adv-x="317" d="M300 667 L198 667 L198 725 L121 725 L121 667 C75 662 57 655 42 637 C26 617 19 587 19 538 L19 378 C19 319 20 309 26 294 C35 270 59 259 103 259 L121 259 L121 145 L19 145 L19 0 L121 0 L121 -58 L198 -58 L198 0 C275 5 300 35 300 121 L300 309 C300 357 299 363 290 378 C279 397 258 404 218 404 L198 404 L198 522 L300 522 L300 667 Z " />
<glyph glyph-name="percent" unicode="&#x25;" horiz-adv-x="612" d="M441 667 L362 667 L296 437 L296 393 C296 323 289 305 254 289 L171 0 L250 0 L316 230 L316 274 C316 344 323 362 358 378 L441 667 Z M167 293 C270 293 282 304 282 392 L282 567 C282 657 270 667 167 667 L127 667 C24 667 12 657 12 567 L12 392 C12 304 24 293 127 293 L167 293 Z M164 405 C164 381 161 375 147 375 C133 375 130 380 130 405 L130 553 C130 577 133 583 147 583 C161 583 164 577 164 553 L164 405 Z M486 0 C589 0 601 11 601 99 L601 273 C601 363 589 373 486 373 L445 373 C342 373 330 363 330 273 L330 99 C330 11 342 0 445 0 L486 0 Z M483 112 C483 88 480 82 466 82 C451 82 448 87 448 112 L448 259 C448 283 451 289 465 289 C480 289 483 283 483 259 L483 112 Z " />
<glyph glyph-name="ampersand" unicode="&#x26;" horiz-adv-x="556" d="M471 294 L399 245 L320 349 L342 365 C385 397 399 425 399 482 L399 536 C399 582 389 623 374 640 C358 659 317 667 246 667 L176 667 C123 667 83 660 64 648 C41 634 27 597 27 554 L27 519 C27 455 36 426 65 394 L97 358 L77 343 C40 314 21 279 21 240 L21 142 C21 107 22 91 26 71 C32 36 53 14 85 7 C105 4 144 0 166 0 L250 0 C302 0 318 4 357 31 L374 0 L551 0 L482 120 L556 174 L471 294 Z M209 441 C181 462 173 476 173 505 C173 535 182 546 209 546 C236 546 245 535 245 504 C245 476 237 462 209 441 L209 441 Z M281 161 C258 143 250 139 235 139 L176 139 L176 187 C176 230 179 240 200 265 L281 161 Z " />
<glyph glyph-name="quotesingle" unicode="&#x27;" horiz-adv-x="239" d="M184 399 L217 667 L22 667 L55 399 L184 399 Z " />
<glyph glyph-name="parenleft" unicode="&#x28;" horiz-adv-x="262" d="M254 0 C203 103 176 223 176 341 C176 458 203 569 254 667 L87 667 C40 576 16 467 16 341 C16 213 41 96 87 0 L254 0 Z " />
<glyph glyph-name="parenright" unicode="&#x29;" horiz-adv-x="262" d="M7 667 C58 564 85 445 85 326 C85 208 59 98 7 0 L174 0 C221 90 245 200 245 326 C245 454 220 572 174 667 L7 667 Z " />
<glyph glyph-name="asterisk" unicode="&#x2a;" horiz-adv-x="350" d="M220 336 L220 418 L292 375 L339 459 L270 497 L339 539 L292 619 L220 574 L220 667 L127 667 L127 579 L58 619 L12 539 L86 497 L12 452 L58 375 L127 415 L127 336 L220 336 Z " />
<glyph glyph-name="plus" unicode="&#x2b;" horiz-adv-x="500" d="M39 387 L39 280 L194 280 L194 125 L304 125 L304 280 L460 280 L460 387 L304 387 L304 542 L194 542 L194 387 L39 387 Z " />
<glyph glyph-name="comma" unicode="&#x2c;" horiz-adv-x="234" d="M70 140 L-25 -89 L98 -89 L222 140 L70 140 Z " />
<glyph glyph-name="hyphen" unicode="&#x2d;" horiz-adv-x="236" d="M12 333 L12 216 L225 216 L225 333 L12 333 Z " />
<glyph glyph-name="period" unicode="&#x2e;" horiz-adv-x="188" d="M96 139 C49 139 12 108 12 68 C12 30 49 -2 94 -2 C139 -2 176 30 176 68 C176 107 140 139 96 139 L96 139 Z " />
<glyph glyph-name="slash" unicode="&#x2f;" horiz-adv-x="380" d="M229 667 L7 0 L152 0 L373 667 L229 667 Z " />
<glyph glyph-name="zero" unicode="0" horiz-adv-x="456" d="M260 0 C276 0 320 2 342 4 C379 7 399 14 413 29 C431 50 436 76 436 160 L436 508 C436 617 426 643 379 657 C362 662 304 667 260 667 L196 667 C180 667 136 665 115 663 C78 660 58 653 44 638 C26 617 21 592 21 508 L21 160 C21 50 31 24 78 10 C94 5 153 0 196 0 L260 0 Z M266 181 C266 133 257 118 228 118 C199 118 190 132 190 181 L190 483 C190 532 199 546 228 546 C257 546 266 532 266 483 L266 181 Z " />
<glyph glyph-name="one" unicode="1" horiz-adv-x="262" d="M236 667 L57 667 L0 535 L67 535 L67 0 L236 0 L236 667 Z " />
<glyph glyph-name="two" unicode="2" horiz-adv-x="438" d="M427 145 L253 145 C345 245 368 276 395 336 C418 389 430 449 430 517 C430 645 408 667 280 667 L147 667 C90 667 54 657 35 637 C19 618 12 585 12 519 L12 394 L181 394 L181 486 C181 526 193 544 220 544 C247 544 259 525 259 483 C259 415 243 376 188 305 C139 241 100 204 12 133 L12 0 L427 0 L427 145 Z " />
<glyph glyph-name="three" unicode="3" horiz-adv-x="447" d="M181 458 L181 490 C181 526 194 545 219 545 C246 545 258 522 258 473 C258 440 255 422 247 412 C237 398 218 390 198 390 L180 390 L180 277 L196 277 C214 277 233 269 243 258 C253 247 257 230 257 198 C257 144 245 122 218 122 C193 122 181 141 181 178 L181 207 L12 207 L12 144 C12 78 18 50 35 32 C57 8 93 0 172 0 L279 0 C335 0 374 7 392 19 C415 35 426 71 426 130 L426 193 C426 298 413 316 330 329 C405 342 426 366 426 443 L426 545 C426 642 395 667 275 667 L159 667 C128 667 86 664 74 660 C31 649 12 614 12 547 L12 458 L181 458 Z " />
<glyph glyph-name="four" unicode="4" horiz-adv-x="505" d="M425 667 L186 667 L1 125 L256 125 L256 0 L425 0 L425 125 L498 125 L498 253 L425 253 L425 667 Z M256 253 L170 253 L256 501 L256 253 Z " />
<glyph glyph-name="five" unicode="5" horiz-adv-x="458" d="M438 667 L21 667 L21 323 L269 323 L269 191 C269 139 259 123 229 123 C200 123 190 139 190 185 L190 233 L21 233 L21 148 C21 23 43 0 166 0 L288 0 C418 0 438 21 438 160 L438 323 C438 431 415 452 294 452 L190 452 L190 541 L438 541 L438 667 Z " />
<glyph glyph-name="six" unicode="6" horiz-adv-x="458" d="M437 467 L437 533 C437 582 429 620 414 637 C395 660 365 667 283 667 L184 667 C43 667 21 647 21 523 L21 162 C21 78 25 55 43 33 C63 8 97 0 176 0 L266 0 C414 0 437 20 437 147 L437 260 C437 329 428 359 402 376 C381 391 359 394 282 394 L190 394 L190 483 C190 522 208 545 239 545 C271 545 289 524 289 486 L289 467 L437 467 Z M268 179 C268 138 258 124 229 124 C200 124 190 138 190 179 L190 217 C190 258 200 272 229 272 C258 272 268 258 268 217 L268 179 Z " />
<glyph glyph-name="seven" unicode="7" horiz-adv-x="414" d="M7 667 L7 541 L197 541 L7 0 L177 0 L414 667 L7 667 Z " />
<glyph glyph-name="eight" unicode="8" horiz-adv-x="454" d="M19 130 C19 85 29 45 45 29 C67 7 102 0 189 0 L266 0 C353 0 388 7 410 29 C425 44 436 86 436 130 L436 223 C436 260 427 290 411 305 C397 318 387 322 344 331 C352 333 358 335 361 335 C419 350 436 377 436 456 L436 548 C436 594 426 627 408 643 C386 662 358 667 266 667 L189 667 C97 667 69 662 47 643 C29 627 19 594 19 548 L19 456 C19 377 36 350 94 335 C96 335 103 333 111 331 C73 323 64 320 51 311 C30 296 19 266 19 223 L19 130 Z M188 498 C188 531 202 549 228 549 C253 549 267 531 267 498 L267 449 C267 416 253 398 228 398 C202 398 188 416 188 449 L188 498 Z M267 172 C267 136 255 120 228 120 C201 120 188 136 188 172 L188 226 C188 261 201 277 228 277 C254 277 267 261 267 226 L267 172 Z " />
<glyph glyph-name="nine" unicode="9" horiz-adv-x="458" d="M21 205 L21 134 C21 21 45 0 175 0 L274 0 C415 0 437 20 437 144 L437 505 C437 589 433 612 415 634 C395 659 362 667 282 667 L192 667 C44 667 21 647 21 520 L21 407 C21 338 30 308 56 291 C78 276 98 273 176 273 L268 273 L268 184 C268 143 250 122 214 122 C180 122 162 142 162 181 L162 205 L21 205 Z M190 488 C190 529 200 543 229 543 C258 543 268 529 268 488 L268 450 C268 409 258 395 229 395 C200 395 190 409 190 450 L190 488 Z " />
<glyph glyph-name="colon" unicode="&#x3a;" horiz-adv-x="211" d="M119 492 C72 492 35 461 35 421 C35 382 72 350 117 350 C162 350 199 382 199 421 C199 460 163 492 119 492 L119 492 Z M119 139 C72 139 35 108 35 68 C35 30 72 -2 117 -2 C162 -2 199 30 199 68 C199 107 163 139 119 139 L119 139 Z " />
<glyph glyph-name="semicolon" unicode="&#x3b;" horiz-adv-x="241" d="M150 492 C103 492 66 461 66 421 C66 382 103 350 148 350 C193 350 230 382 230 421 C230 460 194 492 150 492 L150 492 Z M70 140 L-25 -89 L98 -89 L222 140 L70 140 Z " />
<glyph glyph-name="less" unicode="&#x3c;" horiz-adv-x="500" d="M466 646 L33 411 L33 265 L466 30 L466 202 L218 337 L466 473 L466 646 Z " />
<glyph glyph-name="equal" unicode="&#x3d;" horiz-adv-x="500" d="M39 474 L39 367 L460 367 L460 474 L39 474 Z M39 300 L39 193 L460 193 L460 300 L39 300 Z " />
<glyph glyph-name="greater" unicode="&#x3e;" horiz-adv-x="500" d="M33 30 L466 265 L466 411 L33 646 L33 474 L281 338 L33 203 L33 30 Z " />
<glyph glyph-name="question" unicode="&#x3f;" horiz-adv-x="412" d="M236 164 C234 239 241 255 287 277 C333 299 359 318 373 339 C388 363 392 391 392 466 L392 544 C392 604 377 640 345 654 C324 664 295 667 232 667 L159 667 C46 667 21 642 21 532 L21 466 L166 466 L166 541 L233 541 L233 439 C233 386 225 373 179 353 L149 340 C122 328 101 313 88 295 C71 273 67 257 67 209 L67 164 L236 164 Z M67 106 L67 0 L236 0 L236 106 L67 106 Z " />
<glyph glyph-name="at" unicode="&#x40;" horiz-adv-x="709" d="M493 487 L398 487 L392 455 L387 464 C374 485 367 488 334 488 L314 488 C273 488 257 472 249 422 L220 258 C218 251 216 223 216 215 C216 187 230 178 272 178 L291 178 C319 178 330 185 350 213 L344 180 L542 180 C635 180 669 195 683 244 C689 264 689 264 689 329 L689 469 C688 597 688 597 671 624 C651 656 617 667 543 667 L167 667 C74 667 41 652 26 603 C20 582 20 582 20 517 L20 198 C21 69 21 69 37 44 C58 11 92 0 166 0 L548 0 L548 91 L224 91 C168 91 161 100 161 170 L161 491 C161 562 170 576 220 576 L485 576 C541 576 548 567 548 497 L548 336 C548 265 539 251 489 251 L452 251 L493 487 Z M337 383 C341 406 350 417 364 417 C375 417 381 410 381 397 C381 394 380 387 379 383 L363 288 C359 264 350 253 336 253 C325 253 319 260 319 273 L320 288 L337 383 Z " />
<glyph glyph-name="A" unicode="A" horiz-adv-x="479" d="M202 141 L277 141 L277 0 L456 0 L456 531 C456 589 446 624 425 642 C404 660 363 667 276 667 L203 667 C116 667 75 660 54 642 C33 624 23 589 23 531 L23 0 L202 0 L202 141 Z M202 289 L202 465 C202 507 214 527 239 527 C265 527 277 508 277 465 L277 289 L202 289 Z " />
<glyph glyph-name="B" unicode="B" horiz-adv-x="472" d="M23 667 L23 0 L332 0 C394 0 411 4 427 22 C445 42 455 85 455 144 L455 186 C455 229 447 263 432 282 C414 305 396 313 325 328 C389 338 406 343 424 360 C447 381 455 414 455 494 L455 529 C455 638 427 667 319 667 L23 667 Z M202 405 L202 520 L234 520 C266 520 278 502 278 457 C278 423 264 405 235 405 L202 405 Z M202 144 L202 259 L228 259 C266 259 278 244 278 198 C278 160 263 144 228 144 L202 144 Z " />
<glyph glyph-name="C" unicode="C" horiz-adv-x="324" d="M312 667 L198 667 C131 666 118 665 103 662 C64 654 42 630 31 585 C26 562 21 494 21 453 L21 240 C21 73 35 25 88 7 C105 2 110 1 198 0 L317 0 L317 145 L280 145 C232 145 225 146 213 158 C202 170 200 178 200 226 L200 441 C200 489 201 497 213 509 C225 521 232 522 280 522 L312 522 L312 667 Z " />
<glyph glyph-name="D" unicode="D" horiz-adv-x="479" d="M23 667 L23 0 L275 0 C340 1 354 2 358 2 C407 5 437 34 446 87 C453 125 457 195 457 263 L457 443 C457 521 451 583 442 607 C431 638 406 656 365 663 C350 666 350 666 275 667 L23 667 Z M202 147 L202 522 L234 522 C271 522 278 512 278 463 L278 205 C278 157 271 147 234 147 L202 147 Z " />
<glyph glyph-name="E" unicode="E" horiz-adv-x="373" d="M365 667 L198 667 C131 666 118 665 103 662 C64 654 42 630 32 585 C26 562 21 495 21 453 L21 240 C21 73 35 25 88 7 C104 2 110 1 198 0 L365 0 L365 145 L200 145 L200 261 L365 261 L365 406 L200 406 L200 522 L365 522 L365 667 Z " />
<glyph glyph-name="F" unicode="F" horiz-adv-x="322" d="M315 667 L23 667 L23 0 L202 0 L202 261 L315 261 L315 406 L202 406 L202 522 L315 522 L315 667 Z " />
<glyph glyph-name="G" unicode="G" horiz-adv-x="475" d="M453 381 L260 381 C270 353 274 331 274 306 L274 145 L245 145 C204 145 200 152 200 224 L200 461 C200 517 205 522 260 522 L323 522 C369 522 424 514 453 503 L453 667 L202 667 C107 667 76 660 53 633 C30 606 21 547 21 432 L21 232 C22 121 23 109 23 101 C27 42 43 17 86 7 C108 1 128 0 202 0 L276 0 C379 0 401 4 425 24 C448 44 453 66 453 148 L453 381 Z " />
<glyph glyph-name="H" unicode="H" horiz-adv-x="479" d="M23 667 L23 0 L202 0 L202 261 L278 261 L278 0 L457 0 L457 667 L278 667 L278 406 L202 406 L202 667 L23 667 Z " />
<glyph glyph-name="I" unicode="I" horiz-adv-x="225" d="M23 667 L23 0 L202 0 L202 667 L23 667 Z " />
<glyph glyph-name="J" unicode="J" horiz-adv-x="308" d="M106 667 L106 237 C106 181 95 163 60 163 C47 163 38 165 21 172 L5 14 C37 1 68 -5 110 -5 C180 -5 228 16 259 58 C280 87 285 114 285 186 L285 667 L106 667 Z " />
<glyph glyph-name="K" unicode="K" horiz-adv-x="479" d="M23 667 L23 0 L202 0 L202 261 L225 261 C264 261 277 239 277 178 L277 117 C277 52 280 33 298 0 L470 0 C458 40 456 56 456 120 L456 214 C456 293 431 324 356 337 C353 337 344 339 335 340 C341 342 346 342 348 343 C397 352 415 360 433 382 C452 405 456 421 456 482 L456 561 C456 619 458 635 470 667 L292 667 C281 639 277 619 277 580 L277 503 C277 423 268 406 228 406 L202 406 L202 667 L23 667 Z " />
<glyph glyph-name="L" unicode="L" horiz-adv-x="327" d="M323 152 L203 145 L203 503 C203 563 208 614 219 667 L14 667 C21 625 24 577 24 498 L24 0 L291 0 L323 152 Z " />
<glyph glyph-name="M" unicode="M" horiz-adv-x="729" d="M7 667 C20 610 24 578 24 515 L24 0 L203 0 L203 459 C203 496 215 514 239 514 C264 514 276 497 276 461 L276 0 L455 0 L455 450 C455 496 465 513 492 513 C519 513 528 497 528 450 L528 0 L707 0 L707 535 C707 643 685 667 586 667 C504 667 477 649 457 579 C447 618 438 635 419 650 C402 663 380 667 330 667 C250 667 222 648 205 579 C201 616 199 629 188 667 L7 667 Z " />
<glyph glyph-name="N" unicode="N" horiz-adv-x="477" d="M7 667 C21 610 24 579 24 515 L24 0 L203 0 L203 459 C203 496 215 514 239 514 C264 514 275 497 275 461 L275 0 L454 0 L454 450 C454 592 454 592 439 619 C419 657 396 667 327 667 C249 667 223 648 205 579 C202 614 199 627 188 667 L7 667 Z " />
<glyph glyph-name="O" unicode="O" horiz-adv-x="477" d="M455 396 C455 507 449 549 428 594 C404 645 358 667 278 667 L198 667 C118 667 72 644 48 594 C27 549 21 507 21 396 L21 271 C21 160 27 118 48 73 C72 23 118 0 198 0 L278 0 C358 0 404 23 428 73 C449 118 455 160 455 271 L455 396 Z M276 189 C276 156 261 136 238 136 C215 136 200 156 200 189 L200 476 C200 508 215 529 238 529 C261 529 276 508 276 476 L276 189 Z " />
<glyph glyph-name="P" unicode="P" horiz-adv-x="475" d="M23 667 L23 0 L202 0 L202 261 L327 261 C393 261 406 264 425 281 C445 300 458 362 458 443 L458 493 C458 579 447 627 422 648 C406 661 372 667 312 667 L23 667 Z M202 406 L202 522 L227 522 C265 522 278 507 278 462 C278 419 267 406 232 406 L202 406 Z " />
<glyph glyph-name="Q" unicode="Q" horiz-adv-x="477" d="M273 0 L273 -82 C273 -122 274 -129 281 -139 C293 -156 306 -160 348 -160 L455 -160 L455 -52 L408 -52 C388 -52 379 -44 379 -23 L379 15 C431 45 455 115 455 238 L455 396 C455 507 449 549 428 594 C405 645 358 667 278 667 L202 667 C65 667 21 603 21 407 L21 287 C21 57 57 0 202 0 L273 0 Z M276 189 C276 154 263 136 239 136 C215 136 200 156 200 189 L200 476 C200 508 215 529 239 529 C263 529 276 510 276 476 L276 189 Z " />
<glyph glyph-name="R" unicode="R" horiz-adv-x="477" d="M23 667 L23 0 L202 0 L202 261 L225 261 C262 261 277 244 277 201 L277 112 C277 61 280 34 291 0 L470 0 C461 33 456 71 456 112 L456 215 C456 294 437 319 358 342 C403 347 423 359 440 387 C453 412 456 430 456 495 L456 538 C456 595 442 635 416 652 C395 665 386 667 296 667 L23 667 Z M202 406 L202 522 L227 522 C265 522 278 507 278 463 C278 416 269 406 227 406 L202 406 Z " />
<glyph glyph-name="S" unicode="S" horiz-adv-x="389" d="M355 667 L201 667 C104 667 83 664 60 644 C33 621 19 567 19 485 L19 444 C19 363 24 332 43 303 C62 271 92 261 161 261 L189 261 L189 145 L22 145 L22 0 L188 0 C244 1 244 1 261 1 C306 3 328 12 346 37 C364 63 373 111 373 188 L373 229 C373 371 345 406 230 406 L198 406 L198 522 L355 522 L355 667 Z " />
<glyph glyph-name="T" unicode="T" horiz-adv-x="354" d="M348 667 L7 667 L7 522 L88 522 L88 0 L267 0 L267 522 L348 522 L348 667 Z " />
<glyph glyph-name="U" unicode="U" horiz-adv-x="479" d="M277 667 L277 201 C277 159 265 140 239 140 C214 140 202 159 202 201 L202 667 L23 667 L23 136 C23 78 33 43 54 25 C75 7 116 0 203 0 L276 0 C362 0 404 7 425 25 C446 43 456 78 456 136 L456 667 L277 667 Z " />
<glyph glyph-name="V" unicode="V" horiz-adv-x="472" d="M273 667 L273 281 C273 209 263 170 236 135 C210 170 200 211 200 283 L200 667 L21 667 L21 369 C21 265 64 131 140 0 L333 0 C408 128 452 266 452 369 L452 667 L273 667 Z " />
<glyph glyph-name="W" unicode="W" horiz-adv-x="731" d="M455 667 L276 667 L276 239 C276 186 267 169 238 169 C210 169 202 185 202 240 L202 667 L23 667 L23 183 C23 86 26 65 40 39 C57 8 88 0 184 0 C330 0 352 10 365 79 C378 10 402 0 545 0 C642 0 673 8 690 39 C704 65 707 86 707 183 L707 667 L528 667 L528 240 C528 185 520 169 492 169 C464 169 455 186 455 239 L455 667 Z " />
<glyph glyph-name="X" unicode="X" horiz-adv-x="472" d="M200 667 L21 667 L21 475 C21 433 24 416 33 397 C47 368 66 351 108 334 C66 315 49 301 35 276 C23 254 21 238 21 176 L21 0 L200 0 L200 180 C200 225 210 250 236 272 C262 250 272 225 272 180 L272 0 L451 0 L451 176 C451 232 449 248 440 269 C428 297 409 313 364 334 C403 350 420 364 435 389 C448 411 451 428 451 475 L451 667 L272 667 L272 490 C272 435 266 417 236 390 C207 417 200 435 200 490 L200 667 Z " />
<glyph glyph-name="Y" unicode="Y" horiz-adv-x="473" d="M21 667 L21 450 L21 409 C21 313 68 225 147 173 L147 0 L326 0 L326 173 C372 203 406 246 429 298 C448 343 451 363 451 450 L451 667 L272 667 L272 447 C273 350 269 334 236 297 C203 334 200 350 200 447 L200 667 L21 667 Z " />
<glyph glyph-name="Z" unicode="Z" horiz-adv-x="382" d="M25 667 L4 522 L153 522 L2 0 L360 0 L380 145 L220 145 L369 667 L25 667 Z " />
<glyph glyph-name="bracketleft" unicode="&#x5b;" horiz-adv-x="289" d="M280 667 L136 667 C64 667 39 655 28 618 C23 602 23 602 23 552 L23 152 C24 53 24 53 36 33 C52 9 78 0 135 0 L280 0 L280 121 L230 121 C188 121 182 128 182 182 L182 481 C182 536 189 546 227 546 L280 546 L280 667 Z " />
<glyph glyph-name="backslash" unicode="&#x5c;" horiz-adv-x="380" d="M152 667 L7 667 L229 0 L373 0 L152 667 Z " />
<glyph glyph-name="bracketright" unicode="&#x5d;" horiz-adv-x="289" d="M9 0 L153 0 C225 0 250 12 261 49 C266 65 266 65 266 115 L266 515 C265 614 265 614 253 634 C237 658 211 667 154 667 L9 667 L9 546 L59 546 C101 546 107 539 107 485 L107 186 C107 131 100 121 62 121 L9 121 L9 0 Z " />
<glyph glyph-name="asciicircum" unicode="&#x5e;" horiz-adv-x="500" d="M162 342 L250 554 L337 342 L490 342 L346 671 L153 671 L9 342 L162 342 Z " />
<glyph glyph-name="underscore" unicode="&#x5f;" horiz-adv-x="500" d="M0 -52 L0 -154 L500 -154 L500 -52 L0 -52 Z " />
<glyph glyph-name="grave" unicode="&#x60;" horiz-adv-x="500" d="M263 678 L117 678 L203 545 L316 545 L263 678 Z " />
<glyph glyph-name="a" unicode="a" horiz-adv-x="433" d="M410 512 L251 512 L251 458 L239 473 C212 507 195 515 144 515 L110 515 C81 515 57 506 41 489 C26 474 21 452 21 404 L21 131 C21 83 28 43 40 25 C55 4 74 -2 131 -2 L163 -2 C213 -2 224 5 251 56 L251 0 L410 0 L410 512 Z M180 338 C180 377 191 396 215 396 C240 396 251 378 251 338 L251 180 C251 141 240 122 216 122 C191 122 180 140 180 180 L180 338 Z " />
<glyph glyph-name="b" unicode="b" horiz-adv-x="433" d="M23 667 L23 0 L182 0 L182 56 C208 6 220 -2 270 -2 L302 -2 C359 -2 378 4 393 25 C405 43 412 84 412 131 L412 405 C412 448 408 470 396 485 C380 506 357 515 323 515 L289 515 C236 515 221 509 194 474 L182 459 L182 667 L23 667 Z M253 180 C253 141 242 122 218 122 C193 122 182 140 182 180 L182 338 C182 378 193 396 217 396 C242 396 253 378 253 338 L253 180 Z " />
<glyph glyph-name="c" unicode="c" horiz-adv-x="285" d="M278 512 L134 512 C62 512 37 500 26 463 C21 447 21 447 21 397 L21 152 C22 53 22 53 34 33 C50 9 76 0 133 0 L278 0 L278 121 L228 121 C186 121 180 128 180 182 L180 326 C180 381 187 391 225 391 L278 391 L278 512 Z " />
<glyph glyph-name="d" unicode="d" horiz-adv-x="433" d="M410 667 L251 667 L251 459 L239 474 C212 509 197 515 144 515 L110 515 C78 515 57 507 41 490 C26 474 21 452 21 405 L21 131 C21 84 28 43 40 25 C55 4 74 -2 131 -2 L163 -2 C213 -2 225 6 251 56 L251 0 L410 0 L410 667 Z M251 180 C251 140 240 122 216 122 C191 122 180 140 180 180 L180 338 C180 377 191 396 215 396 C240 396 251 378 251 338 L251 180 Z " />
<glyph glyph-name="e" unicode="e" horiz-adv-x="431" d="M410 192 L410 402 C410 461 407 473 386 489 C366 505 332 512 277 512 L152 512 C92 512 61 505 45 489 C29 473 21 445 21 409 L21 138 L21 108 C21 18 41 0 143 0 L410 0 L410 121 L236 121 C192 121 180 130 180 165 L180 192 L410 192 Z M180 289 L180 335 C180 370 193 391 215 391 C238 391 251 370 251 335 L251 289 L180 289 Z " />
<glyph glyph-name="f" unicode="f" horiz-adv-x="273" d="M266 667 L159 667 C76 667 50 638 50 546 L50 493 L7 493 L7 372 L50 372 L50 0 L209 0 L209 372 L266 372 L266 493 L209 493 L209 510 C209 536 219 546 243 546 L266 546 L266 667 Z " />
<glyph glyph-name="g" unicode="g" horiz-adv-x="433" d="M251 0 L251 -40 C251 -73 237 -85 200 -85 C167 -85 155 -73 154 -40 L21 -40 L21 -87 C21 -154 41 -169 132 -169 L281 -169 C288 -169 290 -169 322 -166 C366 -162 372 -160 389 -144 C406 -125 410 -108 410 -40 L410 369 C410 502 399 512 264 512 L174 512 C97 512 63 505 43 486 C23 467 21 457 21 369 L21 140 C21 53 23 42 42 23 C61 3 76 0 154 0 L251 0 Z M251 174 C251 137 240 119 217 119 C191 119 180 135 180 174 L180 335 C180 373 191 390 216 390 C240 390 251 373 251 335 L251 174 Z " />
<glyph glyph-name="h" unicode="h" horiz-adv-x="438" d="M23 667 L23 0 L182 0 L182 336 C182 378 193 396 220 396 C247 396 256 381 256 338 L256 0 L415 0 L415 339 C414 453 414 453 405 472 C390 502 359 514 296 514 C234 514 209 502 182 457 L182 667 L23 667 Z " />
<glyph glyph-name="i" unicode="i" horiz-adv-x="206" d="M23 512 L23 0 L182 0 L182 512 L23 512 Z M23 667 L23 558 L182 558 L182 667 L23 667 Z " />
<glyph glyph-name="j" unicode="j" horiz-adv-x="206" d="M23 512 L23 -164 L182 -164 L182 512 L23 512 Z M23 667 L23 558 L182 558 L182 667 L23 667 Z " />
<glyph glyph-name="k" unicode="k" horiz-adv-x="431" d="M23 667 L23 0 L182 0 L182 188 L206 188 C237 188 253 166 253 123 L253 98 C253 54 256 30 264 0 L424 0 C413 33 412 38 412 103 L412 147 C412 216 378 250 293 266 C389 291 412 318 412 407 L412 512 L253 512 L253 400 C253 334 242 316 202 316 L182 316 L182 667 L23 667 Z " />
<glyph glyph-name="l" unicode="l" horiz-adv-x="206" d="M23 667 L23 0 L182 0 L182 667 L23 667 Z " />
<glyph glyph-name="m" unicode="m" horiz-adv-x="671" d="M23 512 L23 0 L182 0 L182 336 C182 378 193 396 220 396 C246 396 256 380 256 338 L256 0 L415 0 L415 339 C415 378 427 396 453 396 C478 396 488 380 488 341 L488 0 L647 0 L647 406 C647 493 623 514 525 514 C464 514 447 504 415 451 C401 499 373 514 297 514 C234 514 209 502 182 457 L182 512 L23 512 Z " />
<glyph glyph-name="n" unicode="n" horiz-adv-x="438" d="M23 512 L23 0 L182 0 L182 336 C182 378 193 396 220 396 C245 396 256 379 256 338 L256 0 L415 0 L415 339 C414 453 414 453 405 472 C390 502 359 514 296 514 C234 514 209 502 182 457 L182 512 L23 512 Z " />
<glyph glyph-name="o" unicode="o" horiz-adv-x="433" d="M174 512 C97 512 63 505 43 486 C23 467 21 457 21 369 L21 142 C21 55 23 45 43 26 C63 7 97 0 174 0 L260 0 C336 0 370 7 390 26 C410 45 412 55 412 142 L412 369 C412 457 410 467 390 486 C370 505 336 512 260 512 L174 512 Z M253 174 C253 136 242 119 217 119 C191 119 180 136 180 174 L180 335 C180 373 191 390 215 390 C242 390 253 374 253 335 L253 174 Z " />
<glyph glyph-name="p" unicode="p" horiz-adv-x="433" d="M23 -164 L182 -164 L182 54 C207 10 229 -2 289 -2 L323 -2 C355 -2 375 6 392 23 C407 39 412 60 412 108 L412 382 C412 429 405 469 393 487 C379 508 355 515 302 515 L270 515 C222 515 207 505 182 456 L182 512 L23 512 L23 -164 Z M182 335 C182 375 193 393 217 393 C242 393 253 375 253 335 L253 177 C253 138 242 119 218 119 C193 119 182 137 182 177 L182 335 Z " />
<glyph glyph-name="q" unicode="q" horiz-adv-x="433" d="M410 -164 L410 512 L251 512 L251 456 C226 505 210 515 163 515 L131 515 C78 515 54 508 40 487 C28 469 21 429 21 382 L21 108 C21 65 25 42 37 28 C53 7 76 -2 110 -2 L144 -2 C197 -2 212 4 239 39 C244 46 246 49 251 54 L251 -164 L410 -164 Z M180 335 C180 374 191 393 215 393 C240 393 251 374 251 335 L251 177 C251 138 240 119 216 119 C191 119 180 137 180 177 L180 335 Z " />
<glyph glyph-name="r" unicode="r" horiz-adv-x="320" d="M23 512 L23 0 L182 0 L182 383 C233 367 254 359 301 336 L313 509 C301 514 295 515 285 515 C239 515 212 497 182 446 L182 512 L23 512 Z " />
<glyph glyph-name="s" unicode="s" horiz-adv-x="356" d="M322 512 L126 512 C88 512 69 509 55 502 C29 489 19 465 19 420 L19 299 C20 225 21 222 32 206 C42 191 60 186 98 186 L176 186 L176 121 L19 121 L19 0 L219 0 C259 1 267 2 275 3 C302 7 327 32 333 58 C336 71 340 105 340 119 L340 189 C340 267 338 281 326 300 C312 322 285 331 234 331 L178 331 L178 391 L322 391 L322 512 Z " />
<glyph glyph-name="t" unicode="t" horiz-adv-x="292" d="M285 0 L285 121 L243 121 C218 121 209 131 209 157 L209 372 L285 372 L285 493 L209 493 L209 614 L50 614 L50 493 L7 493 L7 372 L50 372 L50 121 C50 29 76 0 159 0 L285 0 Z " />
<glyph glyph-name="u" unicode="u" horiz-adv-x="438" d="M182 512 L23 512 L23 157 C23 86 30 61 55 36 C83 7 108 0 190 0 L249 0 C330 0 355 7 383 36 C408 61 414 86 414 157 L414 512 L255 512 L255 174 C255 135 244 119 218 119 C193 119 182 136 182 174 L182 512 Z " />
<glyph glyph-name="v" unicode="v" horiz-adv-x="433" d="M180 512 L21 512 L21 326 C21 265 30 205 46 163 C70 99 100 45 138 0 L294 0 C329 41 354 85 379 144 C401 197 411 255 411 326 L411 512 L252 512 L252 327 C252 228 244 184 216 132 C188 183 180 228 180 327 L180 512 Z " />
<glyph glyph-name="w" unicode="w" horiz-adv-x="669" d="M413 512 L254 512 L254 221 C254 182 253 172 248 161 C244 151 231 143 217 143 C190 143 182 162 182 221 L182 512 L23 512 L23 161 C23 79 36 42 74 18 C100 2 130 -3 200 -3 C285 -3 305 8 334 75 C362 9 382 -3 463 -3 C539 -3 568 2 594 18 C632 42 645 79 645 161 L645 512 L486 512 L486 221 C486 161 477 143 449 143 C436 143 423 150 419 161 C414 173 413 182 413 221 L413 512 Z " />
<glyph glyph-name="x" unicode="x" horiz-adv-x="435" d="M180 512 L21 512 L21 387 C21 314 36 290 97 266 C41 248 21 222 21 166 L21 0 L180 0 L180 126 C180 170 189 188 217 206 C246 188 254 170 254 126 L254 0 L413 0 L413 166 C413 222 393 248 337 266 C398 290 413 314 413 387 L413 512 L254 512 L254 390 C254 337 245 317 217 306 C189 316 180 337 180 390 L180 512 Z " />
<glyph glyph-name="y" unicode="y" horiz-adv-x="433" d="M180 512 L21 512 L21 326 C21 270 29 190 38 161 C58 91 90 40 139 0 L139 -164 L294 -164 L294 0 C322 24 333 36 351 64 C386 120 402 169 407 240 C410 283 411 312 411 326 L411 512 L252 512 L252 318 C250 179 249 175 216 118 C183 175 182 179 180 318 L180 512 Z " />
<glyph glyph-name="z" unicode="z" horiz-adv-x="324" d="M27 512 L27 391 L120 391 L0 0 L316 0 L316 121 L198 121 L314 512 L27 512 Z " />
<glyph glyph-name="braceleft" unicode="&#x7b;" horiz-adv-x="289" d="M185 491 C186 527 187 532 199 541 C206 546 223 549 247 549 L260 549 L260 667 L155 667 C97 667 77 662 55 643 C35 625 26 599 26 556 L26 452 C26 409 14 391 -17 384 L-17 283 C14 276 26 258 26 215 L26 111 C26 72 34 46 50 29 C72 6 94 0 155 0 L260 0 L260 118 L247 118 C225 118 208 121 200 125 C188 133 186 139 185 176 L185 238 C185 288 174 311 140 334 C174 355 185 379 185 429 L185 491 Z " />
<glyph glyph-name="bar" unicode="&#x7c;" horiz-adv-x="500" d="M162 667 L162 -167 L338 -167 L338 667 L162 667 Z " />
<glyph glyph-name="braceright" unicode="&#x7d;" horiz-adv-x="289" d="M105 176 C104 140 103 135 91 126 C84 121 66 118 42 118 L29 118 L29 0 L135 0 C193 0 213 5 235 24 C255 42 264 68 264 111 L264 215 C264 258 275 276 306 283 L306 384 C275 391 264 409 264 452 L264 556 C264 595 256 621 240 638 C218 661 196 667 135 667 L29 667 L29 549 L42 549 C64 549 82 546 90 542 C102 534 104 528 105 491 L105 429 C105 379 116 355 150 334 C116 311 105 288 105 238 L105 176 Z " />
<glyph glyph-name="asciitilde" unicode="&#x7e;" horiz-adv-x="667" d="M176 542 C198 583 215 599 239 599 C254 599 272 594 308 579 C378 550 391 546 420 546 C492 546 535 585 577 690 L493 760 C471 719 454 703 428 703 C414 703 410 704 357 725 C296 749 270 757 246 757 C179 757 131 712 92 613 L176 542 Z " />
<glyph glyph-name="uni00A0" unicode="&#xa0;" horiz-adv-x="150" d="" />
<glyph glyph-name="exclamdown" unicode="&#xa1;" horiz-adv-x="238" d="M23 0 L192 0 L192 502 L23 502 L23 0 Z M23 561 L192 561 L192 667 L23 667 L23 561 Z " />
<glyph glyph-name="cent" unicode="&#xa2;" horiz-adv-x="285" d="M278 589 L197 589 L197 647 L120 647 L120 589 C55 586 36 576 26 540 C21 524 21 524 21 474 L21 229 L21 199 C21 183 21 176 22 164 C22 140 25 126 34 110 C52 86 69 79 120 77 L120 19 L197 19 L197 77 L278 77 L278 198 L229 198 C186 198 180 205 180 259 L180 403 C180 457 188 468 226 468 L278 468 L278 589 Z " />
<glyph glyph-name="sterling" unicode="&#xa3;" horiz-adv-x="345" d="M339 667 L216 667 C155 667 129 660 107 639 C85 619 72 580 72 535 L72 362 L7 362 L7 294 L72 294 L72 209 C72 135 54 102 7 88 L7 0 L339 0 L339 143 C288 139 234 127 184 109 C236 168 248 192 248 244 L248 294 L339 294 L339 362 L248 362 L248 443 C248 483 250 495 262 507 C271 517 284 522 301 522 L339 522 L339 667 Z " />
<glyph glyph-name="currency" unicode="&#xa4;" horiz-adv-x="610" d="M547 169 C581 219 597 272 597 334 C597 395 581 446 546 499 L619 572 L544 648 L470 574 C417 609 365 626 307 626 C249 626 194 609 141 575 L69 647 L-9 569 L63 497 C30 446 13 391 13 332 C13 273 29 221 64 168 L-9 95 L67 19 L140 92 C191 58 246 41 306 41 C365 41 418 57 469 91 L541 19 L619 97 L547 169 Z M303 517 C404 517 485 434 485 329 C485 233 401 150 305 150 C206 150 125 233 125 333 C125 432 207 517 303 517 L303 517 Z " />
<glyph glyph-name="yen" unicode="&#xa5;" horiz-adv-x="473" d="M356 329 C387 357 412 393 429 432 C448 477 451 496 451 583 L451 667 L272 667 L272 580 C273 484 269 468 236 431 C203 468 200 483 200 580 L200 667 L21 667 L21 583 L21 542 C21 460 54 386 116 329 L50 329 L50 261 L147 261 L147 209 L50 209 L50 141 L147 141 L147 0 L326 0 L326 141 L422 141 L422 209 L326 209 L326 261 L422 261 L422 329 L356 329 Z " />
<glyph glyph-name="brokenbar" unicode="&#xa6;" horiz-adv-x="500" d="M162 667 L162 309 L338 309 L338 667 L162 667 Z M162 153 L162 -167 L338 -167 L338 153 L162 153 Z " />
<glyph glyph-name="section" unicode="&#xa7;" horiz-adv-x="447" d="M29 58 C28 44 28 32 28 24 C28 -23 36 -52 56 -73 C81 -100 106 -107 179 -107 L264 -107 C390 -107 429 -73 429 36 C429 104 412 136 363 160 C414 193 431 224 431 287 C431 369 405 399 294 445 C180 493 173 499 175 551 L287 551 L287 502 L417 502 C416 589 399 632 357 653 C335 665 321 667 270 667 L168 667 C66 667 28 630 28 531 C28 467 43 437 93 406 C36 386 16 352 16 280 C16 200 34 178 137 135 C229 95 234 93 245 87 C274 72 283 57 283 28 L283 9 L162 9 L162 58 L29 58 Z M223 347 C259 347 271 331 271 287 C271 255 270 246 263 237 C256 226 241 220 224 220 C189 220 176 239 176 290 C176 330 190 347 223 347 L223 347 Z " />
<glyph glyph-name="dieresis" unicode="&#xa8;" horiz-adv-x="500" d="M97 667 L97 558 L243 558 L243 667 L97 667 Z M257 667 L257 558 L403 558 L403 667 L257 667 Z " />
<glyph glyph-name="copyright" unicode="&#xa9;" horiz-adv-x="720" d="M442 523 L373 523 C311 522 303 521 288 507 C274 493 266 457 266 400 L266 281 C266 185 274 157 307 147 C317 144 319 144 373 143 L444 143 L444 229 L421 229 C378 229 376 231 376 272 L376 394 C376 435 378 437 421 437 L442 437 L442 523 Z M365 670 C174 670 20 521 20 336 C20 148 171 -3 360 -3 C548 -3 700 148 700 334 C700 517 548 670 365 670 L365 670 Z M364 582 C495 582 606 468 606 334 C606 196 496 85 360 85 C223 85 114 196 114 335 C114 473 225 582 364 582 L364 582 Z " />
<glyph glyph-name="ordfeminine" unicode="&#xaa;" horiz-adv-x="293" d="M270 575 L164 575 L164 551 C147 572 134 577 102 577 L80 577 C38 577 21 558 21 508 L21 347 C21 282 36 265 94 265 L113 265 C138 265 152 271 164 288 L164 267 L270 267 L270 575 Z M163 376 L163 365 C163 353 156 345 146 345 C134 345 128 355 128 376 L128 469 C128 490 134 500 146 500 C156 500 163 492 163 480 L163 469 L163 376 Z " />
<glyph glyph-name="guillemotleft" unicode="&#xab;" horiz-adv-x="458" d="M446 102 L329 263 L446 423 L293 423 L177 263 L293 102 L446 102 Z M281 102 L164 263 L281 423 L128 423 L12 263 L128 102 L281 102 Z " />
<glyph glyph-name="logicalnot" unicode="&#xac;" horiz-adv-x="500" d="M296 0 L466 0 L466 295 L33 295 L33 142 L296 142 L296 0 Z " />
<glyph glyph-name="uni00AD" unicode="&#xad;" horiz-adv-x="236" d="M12 333 L12 216 L225 216 L225 333 L12 333 Z " />
<glyph glyph-name="registered" unicode="&#xae;" horiz-adv-x="720" d="M231 523 L231 143 L340 143 L340 290 L352 290 C373 290 381 281 381 258 L381 208 C381 179 383 164 389 143 L499 143 C493 164 490 184 490 208 L490 266 C490 309 479 325 440 337 C479 344 490 363 490 425 L490 449 C490 482 481 505 466 514 C453 522 447 523 394 523 L231 523 Z M340 376 L340 438 L353 438 C375 438 382 431 382 407 C382 381 377 376 353 376 L340 376 Z M365 670 C174 670 20 521 20 336 C20 148 171 -3 360 -3 C548 -3 700 148 700 334 C700 517 548 670 365 670 L365 670 Z M364 582 C495 582 606 468 606 334 C606 196 496 85 360 85 C223 85 114 196 114 335 C114 473 225 582 364 582 L364 582 Z " />
<glyph glyph-name="macron" unicode="&#xaf;" horiz-adv-x="500" d="M95 660 L95 565 L404 565 L404 660 L95 660 Z " />
<glyph glyph-name="degree" unicode="&#xb0;" horiz-adv-x="500" d="M250 675 C160 675 88 602 88 512 C88 422 161 350 251 350 C339 350 412 423 412 511 C412 603 341 675 250 675 L250 675 Z M249 591 C292 591 327 555 327 511 C327 470 291 434 250 434 C208 434 173 469 173 513 C173 555 208 591 249 591 L249 591 Z " />
<glyph glyph-name="plusminus" unicode="&#xb1;" horiz-adv-x="500" d="M39 387 L39 280 L194 280 L194 125 L304 125 L304 280 L460 280 L460 387 L304 387 L304 542 L194 542 L194 387 L39 387 Z M39 107 L39 0 L460 0 L460 107 L39 107 Z " />
<glyph glyph-name="twosuperior" unicode="&#xb2;" horiz-adv-x="433" d="M347 357 L242 357 C327 446 349 490 349 576 C349 653 335 667 254 667 L172 667 C101 667 86 651 86 577 L86 501 L195 501 L195 558 C195 580 202 590 217 590 C233 590 240 579 240 555 C240 516 230 492 196 451 C165 413 141 391 86 349 L86 267 L347 267 L347 357 Z " />
<glyph glyph-name="threesuperior" unicode="&#xb3;" horiz-adv-x="433" d="M192 539 L192 560 C192 580 199 590 214 590 C229 590 236 577 236 550 C236 514 227 502 200 502 L187 502 L187 431 L199 431 C225 431 235 418 235 386 C235 356 228 343 213 343 C199 343 192 354 192 375 L192 394 L83 394 L83 354 C83 279 97 266 184 266 L251 266 C327 266 344 280 344 346 L344 384 C344 443 336 455 294 464 C331 472 344 489 344 532 L344 592 C344 652 324 667 248 667 L176 667 C157 667 130 665 123 663 C95 656 83 634 83 593 L83 539 L192 539 Z " />
<glyph glyph-name="acute" unicode="&#xb4;" horiz-adv-x="500" d="M237 678 L184 545 L297 545 L383 678 L237 678 Z " />
<glyph glyph-name="mu" unicode="&#xb5;" horiz-adv-x="437" d="M23 512 L23 -172 L184 -172 L171 0 L249 0 C330 0 355 7 383 36 C408 61 414 86 414 157 L414 512 L255 512 L255 174 C255 135 244 119 218 119 C193 119 182 136 182 174 L182 512 L23 512 Z " />
<glyph glyph-name="paragraph" unicode="&#xb6;" horiz-adv-x="416" d="M402 -53 L402 667 L217 667 L217 611 C192 660 178 669 129 669 L124 669 C68 669 47 663 33 642 C20 624 13 584 13 536 L13 462 C13 419 17 397 29 382 C45 361 68 352 102 352 L110 352 C163 352 178 358 205 393 L217 408 L217 -53 L303 -53 L303 557 L316 557 L316 -53 L402 -53 Z " />
<glyph glyph-name="periodcentered" unicode="&#xb7;" horiz-adv-x="473" d="M239 330 C193 330 157 299 157 259 C157 221 193 189 237 189 C280 189 316 221 316 259 C316 298 281 330 239 330 L239 330 Z " />
<glyph glyph-name="cedilla" unicode="&#xb8;" horiz-adv-x="500" d="M225 -54 L149 -237 L247 -237 L347 -54 L225 -54 Z " />
<glyph glyph-name="onesuperior" unicode="&#xb9;" horiz-adv-x="433" d="M283 667 L168 667 L132 584 L174 584 L174 267 L283 267 L283 667 Z " />
<glyph glyph-name="ordmasculine" unicode="&#xba;" horiz-adv-x="293" d="M119 575 C67 575 44 570 32 555 C22 543 21 536 21 488 L21 355 C21 308 22 302 30 290 C41 273 64 267 119 267 L174 267 C227 267 250 272 262 287 C272 299 273 307 273 355 L273 488 C273 534 272 540 264 552 C252 569 230 575 174 575 L119 575 Z M166 373 C166 353 160 344 147 344 C133 344 127 352 127 373 L127 468 C127 488 133 497 146 497 C160 497 166 489 166 468 L166 373 Z " />
<glyph glyph-name="guillemotright" unicode="&#xbb;" horiz-adv-x="458" d="M12 102 L166 102 L281 263 L166 423 L12 423 L129 263 L12 102 Z M177 102 L331 102 L446 263 L331 423 L177 423 L294 263 L177 102 Z " />
<glyph glyph-name="onequarter" unicode="&#xbc;" horiz-adv-x="653" d="M224 667 L109 667 L73 584 L115 584 L115 267 L224 267 L224 667 Z M383 667 L191 0 L271 0 L462 667 L383 667 Z M599 400 L447 400 L331 74 L490 74 L490 0 L599 0 L599 74 L645 74 L645 154 L599 154 L599 400 Z M490 154 L442 154 L490 288 L490 154 Z " />
<glyph glyph-name="onehalf" unicode="&#xbd;" horiz-adv-x="653" d="M463 667 L383 667 L191 0 L271 0 L353 286 L353 310 C353 367 359 385 386 402 L463 667 Z M627 90 L522 90 C607 179 629 223 629 309 C629 386 615 400 534 400 L452 400 C381 400 366 384 366 310 L366 234 L475 234 L475 291 C475 313 482 323 497 323 C513 323 520 312 520 288 C520 249 510 225 476 184 C445 146 421 124 366 82 L366 0 L627 0 L627 90 Z M224 667 L109 667 L73 584 L115 584 L115 267 L224 267 L224 667 Z " />
<glyph glyph-name="threequarters" unicode="&#xbe;" horiz-adv-x="653" d="M191 0 L270 0 L462 667 L383 667 L301 383 L301 346 C301 301 291 276 267 264 L191 0 Z M136 539 L136 560 C136 580 143 590 157 590 C172 590 179 577 179 550 C179 514 170 502 144 502 L131 502 L131 431 L143 431 C168 431 178 418 178 386 C178 356 172 343 156 343 C143 343 136 353 136 375 L136 394 L27 394 L27 354 C27 279 41 266 128 266 L194 266 C270 266 287 280 287 346 L287 384 C287 443 279 455 237 464 C274 472 287 489 287 532 L287 592 C287 652 267 667 191 667 L120 667 C101 667 74 665 67 663 C39 656 27 634 27 593 L27 539 L136 539 Z M599 400 L447 400 L331 74 L490 74 L490 0 L599 0 L599 74 L645 74 L645 154 L599 154 L599 400 Z M490 154 L442 154 L490 288 L490 154 Z " />
<glyph glyph-name="questiondown" unicode="&#xbf;" horiz-adv-x="412" d="M177 502 C179 426 172 412 126 389 C43 350 21 318 21 235 L21 201 L21 123 C21 63 36 27 68 13 C88 3 119 0 181 0 L254 0 C367 0 392 24 392 135 L392 201 L247 201 L247 126 L180 126 L180 228 C180 281 188 293 234 314 L265 327 C293 339 312 353 326 371 C343 394 347 409 347 457 L347 502 L177 502 Z M346 561 L346 667 L177 667 L177 561 L346 561 Z " />
<glyph glyph-name="Agrave" unicode="&#xc0;" horiz-adv-x="479" d="M125 664 C83 660 69 655 54 642 C32 623 23 589 23 530 L23 0 L202 0 L202 141 L277 141 L277 0 L456 0 L456 530 C456 601 442 636 409 652 C390 661 358 665 298 667 L335 573 L184 573 L125 664 Z M202 289 L202 465 C202 507 213 526 239 526 C266 526 277 508 277 465 L277 289 L202 289 Z M257 733 L97 733 L191 587 L316 587 L257 733 Z " />
<glyph glyph-name="Aacute" unicode="&#xc1;" horiz-adv-x="479" d="M181 667 C122 665 97 662 78 656 C38 641 23 606 23 530 L23 0 L202 0 L202 141 L277 141 L277 0 L456 0 L456 530 C456 589 447 623 425 642 C409 656 396 660 353 664 L295 573 L144 573 L181 667 Z M202 289 L202 465 C202 507 213 526 239 526 C266 526 277 508 277 465 L277 289 L202 289 Z M222 733 L163 587 L288 587 L382 733 L222 733 Z " />
<glyph glyph-name="Acircumflex" unicode="&#xc2;" horiz-adv-x="479" d="M107 662 C43 653 23 621 23 530 L23 0 L202 0 L202 141 L277 141 L277 0 L456 0 L456 530 C456 621 435 654 372 662 L428 573 L282 573 L239 640 L196 573 L51 573 L107 662 Z M202 289 L202 465 C202 508 214 527 239 527 C265 527 277 508 277 465 L277 289 L202 289 Z M168 733 L75 587 L189 587 L239 665 L290 587 L404 587 L311 733 L168 733 Z " />
<glyph glyph-name="Atilde" unicode="&#xc3;" horiz-adv-x="479" d="M56 643 C31 620 23 592 23 530 L23 0 L202 0 L202 141 L277 141 L277 0 L456 0 L456 530 C456 593 446 625 421 645 C413 603 390 586 342 586 C327 586 310 588 281 593 L220 604 L195 608 L188 610 C186 610 184 609 184 608 L186 591 C186 590 185 587 182 584 L56 584 L56 643 Z M202 289 L202 465 C202 508 214 527 239 527 C265 527 277 508 277 465 L277 289 L202 289 Z M309 720 C307 707 302 702 288 702 C282 702 272 703 260 706 L181 720 C172 722 152 723 138 723 C89 723 69 704 69 659 L69 597 L170 597 C171 617 175 623 185 623 C189 623 189 623 222 617 L283 606 C315 601 328 599 341 599 C393 599 410 619 410 677 L410 720 L309 720 Z " />
<glyph glyph-name="Adieresis" unicode="&#xc4;" horiz-adv-x="479" d="M422 587 L57 587 L57 644 C31 621 23 593 23 531 L23 0 L202 0 L202 141 L277 141 L277 0 L456 0 L456 531 C456 593 448 620 422 644 L422 587 Z M202 289 L202 465 C202 507 214 527 239 527 C265 527 277 508 277 465 L277 289 L202 289 Z M71 720 L71 600 L233 600 L233 720 L71 720 Z M246 720 L246 600 L408 600 L408 720 L246 720 Z " />
<glyph glyph-name="Aring" unicode="&#xc5;" horiz-adv-x="479" d="M23 0 L202 0 L202 141 L277 141 L277 0 L456 0 L456 531 C456 589 447 623 425 642 C409 656 395 660 349 664 C352 652 353 645 353 635 C353 578 316 534 258 522 C273 510 277 499 277 466 L277 289 L202 289 L202 466 C202 499 206 510 221 522 C164 533 126 578 126 634 C126 644 127 651 131 664 C85 660 70 656 54 642 C32 623 23 589 23 531 L23 0 Z M242 734 C185 734 139 690 139 635 C139 579 184 534 239 534 C294 534 339 579 339 634 C339 688 295 734 242 734 L242 734 Z M240 671 C259 671 276 654 276 634 C276 614 259 597 239 597 C218 597 201 614 201 635 C201 655 218 671 240 671 L240 671 Z " />
<glyph glyph-name="AE" unicode="&#xc6;" horiz-adv-x="630" d="M203 667 C116 667 75 660 54 642 C33 624 23 589 23 531 L23 0 L202 0 L202 141 L277 141 L277 0 L622 0 L622 145 L456 145 L456 261 L622 261 L622 406 L456 406 L456 522 L622 522 L622 667 L454 667 C419 667 378 661 364 654 C344 662 308 667 276 667 L203 667 Z M202 289 L202 465 C202 507 214 527 239 527 C265 527 277 508 277 465 L277 289 L202 289 Z " />
<glyph glyph-name="Ccedilla" unicode="&#xc7;" horiz-adv-x="324" d="M246 0 L317 0 L317 145 L280 145 C232 145 225 146 213 158 C202 170 200 178 200 226 L200 441 C200 489 201 497 213 509 C225 521 232 522 280 522 L312 522 L312 667 L198 667 C131 666 118 665 103 662 C64 654 42 630 31 585 C26 562 21 494 21 453 L21 240 C21 67 35 23 95 5 L128 87 L293 87 L246 0 Z M137 74 L54 -128 L162 -128 L271 74 L137 74 Z " />
<glyph glyph-name="Egrave" unicode="&#xc8;" horiz-adv-x="373" d="M89 658 C65 648 52 637 43 619 C29 590 21 528 21 453 L21 240 C21 73 35 25 88 7 C104 2 110 1 198 0 L365 0 L365 145 L200 145 L200 261 L365 261 L365 406 L200 406 L200 522 L365 522 L365 667 L258 667 L296 573 L144 573 L89 658 Z M218 733 L57 733 L151 587 L276 587 L218 733 Z " />
<glyph glyph-name="Eacute" unicode="&#xc9;" horiz-adv-x="373" d="M141 666 C71 663 45 643 32 584 C26 561 21 495 21 453 L21 240 C21 73 35 25 88 7 C104 2 110 1 198 0 L365 0 L365 145 L200 145 L200 261 L365 261 L365 406 L200 406 L200 522 L365 522 L365 667 L316 667 L256 573 L104 573 L141 666 Z M182 733 L124 587 L248 587 L343 733 L182 733 Z " />
<glyph glyph-name="Ecircumflex" unicode="&#xca;" horiz-adv-x="373" d="M365 610 L365 667 L329 667 L365 610 Z M365 573 L243 573 L200 640 L157 573 L29 573 C25 541 21 488 21 453 L21 240 C21 73 35 25 88 7 C104 2 110 1 198 0 L365 0 L365 145 L200 145 L200 261 L365 261 L365 406 L200 406 L200 522 L365 522 L365 573 Z M128 733 L36 587 L149 587 L200 665 L250 587 L364 587 L272 733 L128 733 Z " />
<glyph glyph-name="Edieresis" unicode="&#xcb;" horiz-adv-x="373" d="M365 587 L32 587 C26 560 21 500 21 453 L21 240 C21 73 35 25 88 7 C104 2 110 1 198 0 L365 0 L365 145 L200 145 L200 261 L365 261 L365 406 L200 406 L200 522 L365 522 L365 587 Z M28 720 L28 600 L190 600 L190 720 L28 720 Z M203 720 L203 600 L365 600 L365 720 L203 720 Z " />
<glyph glyph-name="Igrave" unicode="&#xcc;" horiz-adv-x="225" d="M202 573 L70 573 L23 645 L23 0 L202 0 L202 573 Z M144 733 L-17 733 L77 587 L202 587 L144 733 Z " />
<glyph glyph-name="Iacute" unicode="&#xcd;" horiz-adv-x="225" d="M202 645 L155 573 L23 573 L23 0 L202 0 L202 645 Z M81 733 L23 587 L148 587 L242 733 L81 733 Z " />
<glyph glyph-name="Icircumflex" unicode="&#xce;" horiz-adv-x="225" d="M203 573 L142 573 L113 629 L84 573 L24 573 L24 0 L203 0 L203 573 Z M54 733 L-38 587 L76 587 L113 658 L150 587 L264 587 L171 733 L54 733 Z " />
<glyph glyph-name="Idieresis" unicode="&#xcf;" horiz-adv-x="225" d="M202 587 L23 587 L23 0 L202 0 L202 587 Z M-19 720 L-19 600 L106 600 L106 720 L-19 720 Z M118 720 L118 600 L243 600 L243 720 L118 720 Z " />
<glyph glyph-name="Eth" unicode="&#xd0;" horiz-adv-x="479" d="M23 268 L23 0 L276 0 C340 1 355 2 359 2 C408 5 438 34 447 87 C454 125 458 195 458 263 L458 442 C458 520 452 583 443 607 C432 638 407 656 366 663 C351 666 351 666 276 667 L23 667 L23 399 L202 399 L202 522 L234 522 C272 522 279 512 279 463 L279 206 C279 156 272 147 234 147 L202 147 L202 268 L23 268 Z M0 386 L0 281 L240 281 L240 386 L0 386 Z " />
<glyph glyph-name="Ntilde" unicode="&#xd1;" horiz-adv-x="477" d="M55 667 L7 667 C21 610 24 579 24 515 L24 0 L203 0 L203 459 C203 496 215 514 239 514 C264 514 275 497 275 461 L275 0 L454 0 L454 450 L454 540 C453 572 453 579 450 590 C444 614 435 631 419 646 C412 603 389 586 341 586 C325 586 309 588 279 593 L220 604 L194 608 L187 610 C185 610 183 609 183 608 L185 591 C185 590 184 587 182 584 L55 584 L55 667 Z M308 720 C306 707 301 702 287 702 C281 702 271 703 259 706 L180 720 C171 722 151 723 137 723 C88 723 68 704 68 659 L68 597 L169 597 C170 617 174 623 184 623 C188 623 188 623 221 617 L282 606 C314 601 327 599 340 599 C392 599 409 619 409 677 L409 720 L308 720 Z " />
<glyph glyph-name="Ograve" unicode="&#xd2;" horiz-adv-x="477" d="M128 659 C88 648 64 628 48 594 C27 549 21 507 21 396 L21 271 C21 160 27 118 48 73 C72 23 118 0 198 0 L278 0 C358 0 404 23 428 73 C449 118 455 160 455 271 L455 396 C455 524 445 577 414 617 C389 649 355 663 297 666 L334 573 L183 573 L128 659 Z M276 189 C276 156 261 136 238 136 C215 136 200 156 200 189 L200 476 C200 508 214 528 238 528 C262 528 276 508 276 476 L276 189 Z M256 733 L96 733 L190 587 L315 587 L256 733 Z " />
<glyph glyph-name="Oacute" unicode="&#xd3;" horiz-adv-x="477" d="M180 667 C128 664 96 652 71 627 C33 588 21 533 21 396 L21 271 C21 160 27 118 48 73 C72 23 118 0 198 0 L278 0 C358 0 404 23 428 73 C449 118 455 160 455 271 L455 396 C455 507 449 548 428 594 C412 628 388 647 349 659 L294 573 L143 573 L180 667 Z M276 189 C276 156 261 136 238 136 C215 136 200 156 200 189 L200 476 C200 508 214 528 238 528 C262 528 276 508 276 476 L276 189 Z M221 733 L162 587 L287 587 L382 733 L221 733 Z " />
<glyph glyph-name="Ocircumflex" unicode="&#xd4;" horiz-adv-x="477" d="M97 646 C65 628 50 607 37 565 C25 526 21 488 21 396 L21 271 C21 160 27 118 48 73 C72 23 118 0 198 0 L278 0 C358 0 404 23 428 73 C449 118 455 160 455 271 L455 396 C455 478 452 515 444 550 C431 599 414 625 381 645 L427 573 L281 573 L239 640 L196 573 L50 573 L97 646 Z M276 189 C276 156 261 136 238 136 C215 136 200 156 200 189 L200 476 C200 508 215 528 238 528 C261 528 276 508 276 476 L276 189 Z M167 733 L75 587 L188 587 L239 665 L289 587 L403 587 L310 733 L167 733 Z " />
<glyph glyph-name="Otilde" unicode="&#xd5;" horiz-adv-x="477" d="M55 607 C28 558 21 517 21 396 L21 271 C21 160 27 118 48 73 C71 23 118 0 198 0 L278 0 C358 0 404 23 428 73 C449 118 455 160 455 271 L455 396 C455 526 445 577 412 619 C396 594 378 586 341 586 C326 586 309 588 280 593 L219 604 L194 608 L187 610 C185 610 183 609 183 608 L185 591 C185 590 184 587 181 584 L55 584 L55 607 Z M276 189 C276 156 261 136 238 136 C215 136 200 156 200 189 L200 476 C200 508 215 528 238 528 C261 528 276 508 276 476 L276 189 Z M308 720 C306 707 301 702 287 702 C281 702 271 703 259 706 L180 720 C171 722 151 723 137 723 C88 723 68 704 68 659 L68 597 L169 597 C170 617 174 623 184 623 C188 623 188 623 221 617 L282 606 C314 601 327 599 340 599 C392 599 409 619 409 677 L409 720 L308 720 Z " />
<glyph glyph-name="Odieresis" unicode="&#xd6;" horiz-adv-x="477" d="M421 587 L57 587 L57 609 C28 559 21 519 21 396 L21 271 C21 160 27 118 48 73 C72 23 119 0 198 0 L278 0 C358 0 405 23 428 73 C449 118 455 160 455 271 L455 396 C455 517 448 558 421 608 L421 587 Z M276 189 C276 156 261 136 238 136 C215 136 200 156 200 189 L200 476 C200 508 214 528 238 528 C262 528 276 508 276 476 L276 189 Z M70 720 L70 600 L232 600 L232 720 L70 720 Z M245 720 L245 600 L407 600 L407 720 L245 720 Z " />
<glyph glyph-name="multiply" unicode="&#xd7;" horiz-adv-x="500" d="M249 256 L368 137 L446 215 L327 334 L447 454 L371 530 L251 410 L132 529 L54 451 L173 332 L54 213 L130 137 L249 256 Z " />
<glyph glyph-name="Oslash" unicode="&#xd8;" horiz-adv-x="477" d="M127 8 C150 2 170 0 197 0 L278 0 C358 0 404 23 428 73 C449 118 455 160 455 271 L455 396 C455 511 450 547 426 599 L276 303 L276 189 C276 156 261 136 238 136 C223 136 212 144 204 160 L127 8 Z M200 365 L200 476 C200 508 215 529 238 529 C252 529 262 522 271 507 L348 659 C326 665 306 667 279 667 L198 667 C118 667 72 644 48 594 C27 549 21 507 21 396 L21 271 C21 156 26 120 50 68 L200 365 Z M98 -21 L454 684 L375 684 L20 -21 L98 -21 Z " />
<glyph glyph-name="Ugrave" unicode="&#xd9;" horiz-adv-x="479" d="M298 667 L335 573 L277 573 L277 201 C277 159 265 140 239 140 C214 140 202 159 202 201 L202 573 L184 573 L123 667 L23 667 L23 136 C23 78 33 43 54 25 C75 7 116 0 203 0 L276 0 C362 0 404 7 425 25 C446 43 456 78 456 136 L456 667 L298 667 Z M257 733 L97 733 L191 587 L316 587 L257 733 Z " />
<glyph glyph-name="Uacute" unicode="&#xda;" horiz-adv-x="479" d="M356 667 L295 573 L277 573 L277 201 C277 159 265 140 239 140 C214 140 202 159 202 201 L202 573 L144 573 L181 667 L23 667 L23 136 C23 78 33 43 54 25 C75 7 116 0 203 0 L276 0 C362 0 404 7 425 25 C446 43 456 78 456 136 L456 667 L356 667 Z M222 733 L163 587 L288 587 L382 733 L222 733 Z " />
<glyph glyph-name="Ucircumflex" unicode="&#xdb;" horiz-adv-x="479" d="M369 667 L428 573 L277 573 L277 201 C277 159 265 140 239 140 C214 140 202 159 202 201 L202 573 L51 573 L110 667 L23 667 L23 136 C23 78 33 43 54 25 C75 7 116 0 203 0 L276 0 C362 0 404 7 425 25 C446 43 456 78 456 136 L456 667 L369 667 Z M168 733 L75 587 L189 587 L239 665 L290 587 L404 587 L311 733 L168 733 Z " />
<glyph glyph-name="Udieresis" unicode="&#xdc;" horiz-adv-x="479" d="M277 587 L277 201 C277 159 265 140 239 140 C214 140 202 159 202 201 L202 587 L57 587 L57 667 L23 667 L23 136 C23 78 32 43 54 25 C74 7 116 0 203 0 L276 0 C363 0 405 7 425 25 C447 43 456 78 456 136 L456 667 L422 667 L422 587 L277 587 Z M71 720 L71 600 L233 600 L233 720 L71 720 Z M246 720 L246 600 L408 600 L408 720 L246 720 Z " />
<glyph glyph-name="Yacute" unicode="&#xdd;" horiz-adv-x="473" d="M178 667 L21 667 L21 449 C21 362 24 343 43 298 C66 245 101 203 147 173 L147 0 L326 0 L326 173 C372 203 406 245 429 298 C448 343 451 363 451 449 L451 667 L353 667 L292 573 L272 573 L272 446 C273 350 269 334 236 297 C203 334 200 349 200 446 L200 573 L141 573 L178 667 Z M219 733 L160 587 L285 587 L379 733 L219 733 Z " />
<glyph glyph-name="Thorn" unicode="&#xde;" horiz-adv-x="475" d="M23 667 L23 0 L202 0 L202 141 L327 141 C393 141 406 144 425 161 C445 180 458 242 458 323 L458 373 C458 459 447 507 422 528 C406 541 372 547 312 547 L202 547 L202 667 L23 667 Z M202 286 L202 402 L227 402 C265 402 278 387 278 342 C278 299 267 286 232 286 L202 286 Z " />
<glyph glyph-name="germandbls" unicode="&#xdf;" horiz-adv-x="438" d="M182 0 L182 479 C182 525 195 546 222 546 C245 546 258 526 258 488 L258 453 C258 406 246 393 207 392 L207 273 C245 270 258 254 258 215 L258 186 C258 141 246 127 207 124 L207 0 L288 0 C395 0 417 23 417 135 L417 208 C416 301 411 313 363 334 C408 351 417 372 417 466 L417 526 C417 658 406 667 248 667 L171 667 C36 667 23 654 23 511 L23 0 L182 0 Z " />
<glyph glyph-name="agrave" unicode="&#xe0;" horiz-adv-x="433" d="M410 512 L251 512 L251 458 L239 473 C212 507 195 515 144 515 L110 515 C81 515 57 506 41 489 C26 474 21 452 21 404 L21 131 C21 83 28 43 40 25 C55 4 74 -2 131 -2 L163 -2 C213 -2 224 5 251 56 L251 0 L410 0 L410 512 Z M180 338 C180 377 191 396 215 396 C240 396 251 378 251 338 L251 180 C251 141 240 122 216 122 C191 122 180 140 180 180 L180 338 Z M236 678 L90 678 L176 545 L290 545 L236 678 Z " />
<glyph glyph-name="aacute" unicode="&#xe1;" horiz-adv-x="433" d="M410 512 L251 512 L251 458 L239 473 C212 507 195 515 144 515 L110 515 C81 515 57 506 41 489 C26 474 21 452 21 404 L21 131 C21 83 28 43 40 25 C55 4 74 -2 131 -2 L163 -2 C213 -2 224 5 251 56 L251 0 L410 0 L410 512 Z M180 338 C180 377 191 396 215 396 C240 396 251 378 251 338 L251 180 C251 141 240 122 216 122 C191 122 180 140 180 180 L180 338 Z M210 678 L157 545 L270 545 L356 678 L210 678 Z " />
<glyph glyph-name="acircumflex" unicode="&#xe2;" horiz-adv-x="433" d="M410 512 L251 512 L251 458 L239 473 C212 507 195 515 144 515 L110 515 C81 515 57 506 41 489 C26 474 21 452 21 404 L21 131 C21 83 28 43 40 25 C55 4 74 -2 131 -2 L163 -2 C213 -2 224 5 251 56 L251 0 L410 0 L410 512 Z M180 338 C180 377 191 396 215 396 C240 396 251 378 251 338 L251 180 C251 141 240 122 216 122 C191 122 180 140 180 180 L180 338 Z M158 678 L74 545 L177 545 L223 616 L269 545 L372 545 L288 678 L158 678 Z " />
<glyph glyph-name="atilde" unicode="&#xe3;" horiz-adv-x="433" d="M410 512 L251 512 L251 458 L239 473 C212 507 195 515 144 515 L110 515 C81 515 57 506 41 489 C26 474 21 452 21 404 L21 131 C21 83 28 43 40 25 C55 4 74 -2 131 -2 L163 -2 C213 -2 224 5 251 56 L251 0 L410 0 L410 512 Z M180 338 C180 377 191 396 215 396 C240 396 251 378 251 338 L251 180 C251 141 240 122 216 122 C191 122 180 140 180 180 L180 338 Z M287 667 C284 654 280 650 267 650 C263 650 263 650 241 654 L170 667 C160 669 145 670 131 670 C87 670 68 653 68 611 L68 556 L159 556 C161 573 164 578 173 578 C177 578 177 578 207 574 L263 564 C292 559 304 557 315 557 C362 557 378 575 378 628 L378 667 L287 667 Z " />
<glyph glyph-name="adieresis" unicode="&#xe4;" horiz-adv-x="433" d="M410 512 L251 512 L251 458 L239 473 C212 507 195 515 144 515 L110 515 C81 515 57 506 41 489 C26 474 21 452 21 404 L21 131 C21 83 28 43 40 25 C55 4 74 -2 131 -2 L163 -2 C213 -2 224 5 251 56 L251 0 L410 0 L410 512 Z M180 338 C180 377 191 396 215 396 C240 396 251 378 251 338 L251 180 C251 141 240 122 216 122 C191 122 180 140 180 180 L180 338 Z M70 667 L70 558 L216 558 L216 667 L70 667 Z M230 667 L230 558 L376 558 L376 667 L230 667 Z " />
<glyph glyph-name="aring" unicode="&#xe5;" horiz-adv-x="433" d="M410 512 L251 512 L251 458 L239 473 C212 507 195 515 144 515 L110 515 C81 515 57 506 41 489 C26 474 21 452 21 404 L21 131 C21 83 28 43 40 25 C55 4 74 -2 131 -2 L163 -2 C213 -2 224 5 251 56 L251 0 L410 0 L410 512 Z M180 338 C180 377 191 396 215 396 C240 396 251 378 251 338 L251 180 C251 141 240 122 216 122 C191 122 180 140 180 180 L180 338 Z M226 726 C169 726 123 682 123 626 C123 570 168 525 223 525 C278 525 323 570 323 626 C323 680 279 726 226 726 L226 726 Z M224 663 C243 663 260 646 260 626 C260 606 243 589 223 589 C202 589 185 606 185 627 C185 647 202 663 224 663 L224 663 Z " />
<glyph glyph-name="ae" unicode="&#xe6;" horiz-adv-x="662" d="M641 192 L641 402 C641 461 638 473 617 489 C597 505 563 512 508 512 L382 512 C356 512 351 511 337 501 C327 510 316 512 289 512 L21 512 L21 391 L195 391 C239 391 251 382 251 347 L251 320 L122 320 C33 320 21 309 21 228 L21 110 C21 51 24 39 45 23 C65 7 99 0 154 0 L280 0 C299 0 315 4 325 11 C336 3 347 0 373 0 L641 0 L641 121 L467 121 C423 121 411 130 411 165 L411 192 L641 192 Z M251 172 C251 141 237 121 215 121 C191 121 180 138 180 172 L180 186 C180 216 194 236 215 236 C237 236 251 216 251 186 L251 172 Z M411 289 L411 335 C411 370 424 391 446 391 C469 391 482 370 482 335 L482 289 L411 289 Z " />
<glyph glyph-name="ccedilla" unicode="&#xe7;" horiz-adv-x="285" d="M218 0 L278 0 L278 121 L228 121 C186 121 180 128 180 182 L180 326 C180 381 187 391 225 391 L278 391 L278 512 L134 512 C62 512 37 500 26 463 C21 447 21 447 21 397 L21 152 L21 103 C22 66 22 63 27 48 C39 22 51 12 78 5 L109 80 L262 80 L218 0 Z M118 66 L42 -117 L140 -117 L240 66 L118 66 Z " />
<glyph glyph-name="egrave" unicode="&#xe8;" horiz-adv-x="431" d="M410 192 L410 402 C410 461 407 473 386 489 C366 505 332 512 277 512 L152 512 C92 512 61 505 45 489 C29 473 21 445 21 409 L21 138 L21 108 C21 18 41 0 143 0 L410 0 L410 121 L236 121 C192 121 180 130 180 165 L180 192 L410 192 Z M180 289 L180 335 C180 370 193 391 215 391 C238 391 251 370 251 335 L251 289 L180 289 Z M229 678 L83 678 L168 545 L282 545 L229 678 Z " />
<glyph glyph-name="eacute" unicode="&#xe9;" horiz-adv-x="431" d="M410 192 L410 402 C410 461 407 473 386 489 C366 505 332 512 277 512 L152 512 C92 512 61 505 45 489 C29 473 21 445 21 409 L21 138 L21 108 C21 18 41 0 143 0 L410 0 L410 121 L236 121 C192 121 180 130 180 165 L180 192 L410 192 Z M180 289 L180 335 C180 370 193 391 215 391 C238 391 251 370 251 335 L251 289 L180 289 Z M202 678 L149 545 L263 545 L348 678 L202 678 Z " />
<glyph glyph-name="ecircumflex" unicode="&#xea;" horiz-adv-x="431" d="M410 192 L410 402 C410 461 407 473 386 489 C366 505 332 512 277 512 L152 512 C92 512 61 505 45 489 C29 473 21 445 21 409 L21 138 L21 108 C21 18 41 0 143 0 L410 0 L410 121 L236 121 C192 121 180 130 180 165 L180 192 L410 192 Z M180 289 L180 335 C180 370 193 391 215 391 C238 391 251 370 251 335 L251 289 L180 289 Z M150 678 L66 545 L170 545 L216 616 L261 545 L365 545 L281 678 L150 678 Z " />
<glyph glyph-name="edieresis" unicode="&#xeb;" horiz-adv-x="431" d="M410 192 L410 402 C410 461 407 473 386 489 C366 505 332 512 277 512 L152 512 C92 512 61 505 45 489 C29 473 21 445 21 409 L21 138 L21 108 C21 18 41 0 143 0 L410 0 L410 121 L236 121 C192 121 180 130 180 165 L180 192 L410 192 Z M180 289 L180 335 C180 370 193 391 215 391 C238 391 251 370 251 335 L251 289 L180 289 Z M63 667 L63 558 L209 558 L209 667 L63 667 Z M222 667 L222 558 L368 558 L368 667 L222 667 Z " />
<glyph glyph-name="igrave" unicode="&#xec;" horiz-adv-x="206" d="M23 512 L23 0 L182 0 L182 512 L23 512 Z M116 678 L-30 678 L56 545 L169 545 L116 678 Z " />
<glyph glyph-name="iacute" unicode="&#xed;" horiz-adv-x="206" d="M23 512 L23 0 L182 0 L182 512 L23 512 Z M90 678 L37 545 L150 545 L236 678 L90 678 Z " />
<glyph glyph-name="icircumflex" unicode="&#xee;" horiz-adv-x="206" d="M23 512 L23 0 L182 0 L182 512 L23 512 Z M44 678 L-40 545 L63 545 L103 609 L142 545 L245 545 L161 678 L44 678 Z " />
<glyph glyph-name="idieresis" unicode="&#xef;" horiz-adv-x="206" d="M23 512 L23 0 L182 0 L182 512 L23 512 Z M-30 667 L-30 558 L96 558 L96 667 L-30 667 Z M110 667 L110 558 L236 558 L236 667 L110 667 Z " />
<glyph glyph-name="eth" unicode="&#xf0;" horiz-adv-x="433" d="M221 503 C226 485 228 475 235 445 L174 445 C97 445 63 438 43 419 C23 400 21 390 21 302 L21 142 C21 55 23 45 43 26 C63 7 97 0 174 0 L260 0 C336 0 370 7 390 26 C410 45 412 55 412 142 L412 269 C412 350 409 378 392 441 L365 542 L221 503 Z M253 174 C253 136 242 119 217 119 C191 119 180 136 180 174 L180 268 C180 306 191 323 215 323 C242 323 253 307 253 268 L253 174 Z M324 651 L316 667 L162 667 L176 633 C179 626 180 622 183 613 L324 651 Z M106 578 L129 493 L428 573 L405 659 L106 578 Z " />
<glyph glyph-name="ntilde" unicode="&#xf1;" horiz-adv-x="438" d="M23 512 L23 0 L182 0 L182 336 C182 378 193 396 220 396 C245 396 256 379 256 338 L256 0 L415 0 L415 339 C414 453 414 453 405 472 C390 502 359 514 296 514 C234 514 209 502 182 457 L182 512 L23 512 Z M282 667 C280 654 275 650 263 650 C258 650 258 650 237 654 L166 667 C155 669 141 670 127 670 C82 670 64 653 64 611 L64 556 L155 556 C157 573 160 578 169 578 C173 578 173 578 203 574 L258 564 C287 559 299 557 311 557 C357 557 373 575 373 628 L373 667 L282 667 Z " />
<glyph glyph-name="ograve" unicode="&#xf2;" horiz-adv-x="433" d="M174 512 C97 512 63 505 43 486 C23 467 21 457 21 369 L21 142 C21 55 23 45 43 26 C63 7 97 0 174 0 L260 0 C336 0 370 7 390 26 C410 45 412 55 412 142 L412 369 C412 457 410 467 390 486 C370 505 336 512 260 512 L174 512 Z M253 174 C253 136 242 119 217 119 C191 119 180 136 180 174 L180 335 C180 373 191 390 215 390 C242 390 253 374 253 335 L253 174 Z M230 678 L84 678 L169 545 L283 545 L230 678 Z " />
<glyph glyph-name="oacute" unicode="&#xf3;" horiz-adv-x="433" d="M174 512 C97 512 63 505 43 486 C23 467 21 457 21 369 L21 142 C21 55 23 45 43 26 C63 7 97 0 174 0 L260 0 C336 0 370 7 390 26 C410 45 412 55 412 142 L412 369 C412 457 410 467 390 486 C370 505 336 512 260 512 L174 512 Z M253 174 C253 136 242 119 217 119 C191 119 180 136 180 174 L180 335 C180 373 191 390 215 390 C242 390 253 374 253 335 L253 174 Z M203 678 L150 545 L264 545 L350 678 L203 678 Z " />
<glyph glyph-name="ocircumflex" unicode="&#xf4;" horiz-adv-x="433" d="M174 512 C97 512 63 505 43 486 C23 467 21 457 21 369 L21 142 C21 55 23 45 43 26 C63 7 97 0 174 0 L260 0 C336 0 370 7 390 26 C410 45 412 55 412 142 L412 369 C412 457 410 467 390 486 C370 505 336 512 260 512 L174 512 Z M253 174 C253 136 242 119 217 119 C191 119 180 136 180 174 L180 335 C180 373 191 390 215 390 C242 390 253 374 253 335 L253 174 Z M151 678 L67 545 L171 545 L217 616 L263 545 L366 545 L282 678 L151 678 Z " />
<glyph glyph-name="otilde" unicode="&#xf5;" horiz-adv-x="433" d="M174 512 C97 512 63 505 43 486 C23 467 21 457 21 369 L21 142 C21 55 23 45 43 26 C63 7 97 0 174 0 L260 0 C336 0 370 7 390 26 C410 45 412 55 412 142 L412 369 C412 457 410 467 390 486 C370 505 336 512 260 512 L174 512 Z M253 174 C253 136 242 119 217 119 C191 119 180 136 180 174 L180 335 C180 373 191 390 215 390 C242 390 253 374 253 335 L253 174 Z M280 667 C278 654 273 650 261 650 C256 650 256 650 235 654 L164 667 C153 669 139 670 125 670 C80 670 62 653 62 611 L62 556 L153 556 C155 573 158 578 167 578 C171 578 171 578 201 574 L256 564 C285 559 297 557 309 557 C355 557 371 575 371 628 L371 667 L280 667 Z " />
<glyph glyph-name="odieresis" unicode="&#xf6;" horiz-adv-x="433" d="M174 512 C97 512 63 505 43 486 C23 467 21 457 21 369 L21 142 C21 55 23 45 43 26 C63 7 97 0 174 0 L260 0 C336 0 370 7 390 26 C410 45 412 55 412 142 L412 369 C412 457 410 467 390 486 C370 505 336 512 260 512 L174 512 Z M253 174 C253 136 242 119 217 119 C191 119 180 136 180 174 L180 335 C180 373 191 390 215 390 C242 390 253 374 253 335 L253 174 Z M64 667 L64 558 L210 558 L210 667 L64 667 Z M223 667 L223 558 L369 558 L369 667 L223 667 Z " />
<glyph glyph-name="divide" unicode="&#xf7;" horiz-adv-x="500" d="M39 387 L39 280 L460 280 L460 387 L39 387 Z M252 555 C205 555 168 524 168 484 C168 446 205 414 250 414 C295 414 332 446 332 484 C332 523 296 555 252 555 L252 555 Z M252 253 C205 253 168 222 168 182 C168 143 205 111 250 111 C295 111 332 143 332 182 C332 221 296 253 252 253 L252 253 Z " />
<glyph glyph-name="oslash" unicode="&#xf8;" horiz-adv-x="433" d="M316 510 C297 512 285 512 259 512 L174 512 C97 512 63 505 43 486 C23 467 21 457 21 369 L21 142 C21 65 22 55 36 33 L180 278 L180 335 C180 374 191 390 219 390 C227 390 232 388 240 381 L316 510 Z M253 229 L253 174 C253 135 242 119 215 119 C207 119 202 121 193 127 L120 2 C139 0 150 0 175 0 L260 0 C336 0 370 7 390 26 C410 45 412 55 412 143 L412 369 C412 445 410 456 398 477 L253 229 Z M92 -19 L412 527 L341 527 L21 -19 L92 -19 Z " />
<glyph glyph-name="ugrave" unicode="&#xf9;" horiz-adv-x="438" d="M182 512 L23 512 L23 157 C23 86 30 61 55 36 C83 7 108 0 190 0 L249 0 C330 0 355 7 383 36 C408 61 414 86 414 157 L414 512 L255 512 L255 174 C255 135 244 119 218 119 C193 119 182 136 182 174 L182 512 Z M232 678 L86 678 L171 545 L285 545 L232 678 Z " />
<glyph glyph-name="uacute" unicode="&#xfa;" horiz-adv-x="438" d="M182 512 L23 512 L23 157 C23 86 30 61 55 36 C83 7 108 0 190 0 L249 0 C330 0 355 7 383 36 C408 61 414 86 414 157 L414 512 L255 512 L255 174 C255 135 244 119 218 119 C193 119 182 136 182 174 L182 512 Z M206 678 L152 545 L266 545 L352 678 L206 678 Z " />
<glyph glyph-name="ucircumflex" unicode="&#xfb;" horiz-adv-x="438" d="M182 512 L23 512 L23 157 C23 86 30 61 55 36 C83 7 108 0 190 0 L249 0 C330 0 355 7 383 36 C408 61 414 86 414 157 L414 512 L255 512 L255 174 C255 135 244 119 218 119 C193 119 182 136 182 174 L182 512 Z M153 678 L69 545 L173 545 L219 616 L265 545 L368 545 L284 678 L153 678 Z " />
<glyph glyph-name="udieresis" unicode="&#xfc;" horiz-adv-x="438" d="M182 512 L23 512 L23 157 C23 86 30 61 55 36 C83 7 108 0 190 0 L249 0 C330 0 355 7 383 36 C408 61 414 86 414 157 L414 512 L255 512 L255 174 C255 135 244 119 218 119 C193 119 182 136 182 174 L182 512 Z M66 667 L66 558 L212 558 L212 667 L66 667 Z M225 667 L225 558 L371 558 L371 667 L225 667 Z " />
<glyph glyph-name="yacute" unicode="&#xfd;" horiz-adv-x="433" d="M180 512 L21 512 L21 326 C21 270 29 190 38 161 C58 91 90 40 139 0 L139 -164 L294 -164 L294 0 C322 24 333 36 351 64 C386 120 402 169 407 240 C410 283 411 312 411 326 L411 512 L252 512 L252 318 C250 179 249 175 216 118 C183 175 182 179 180 318 L180 512 Z M203 678 L150 545 L264 545 L350 678 L203 678 Z " />
<glyph glyph-name="thorn" unicode="&#xfe;" horiz-adv-x="433" d="M23 -164 L182 -164 L182 54 C207 10 229 -2 289 -2 L323 -2 C355 -2 375 6 392 23 C407 39 412 60 412 108 L412 382 C412 430 405 469 393 487 C378 508 357 515 302 515 L270 515 C221 515 208 506 182 457 L182 667 L23 667 L23 -164 Z M182 335 C182 375 193 393 217 393 C242 393 253 375 253 335 L253 177 C253 138 242 119 218 119 C193 119 182 137 182 177 L182 335 Z " />
<glyph glyph-name="ydieresis" unicode="&#xff;" horiz-adv-x="433" d="M180 512 L21 512 L21 326 C21 270 29 190 38 161 C58 91 90 40 139 0 L139 -164 L294 -164 L294 0 C322 24 333 36 351 64 C386 120 402 169 407 240 C410 283 411 312 411 326 L411 512 L252 512 L252 318 C250 179 249 175 216 118 C183 175 182 179 180 318 L180 512 Z M64 667 L64 558 L210 558 L210 667 L64 667 Z M223 667 L223 558 L369 558 L369 667 L223 667 Z " />
<glyph glyph-name="Amacron" unicode="&#x100;" horiz-adv-x="479" d="M56 643 C31 619 23 592 23 530 L23 0 L202 0 L202 141 L277 141 L277 0 L456 0 L456 530 C456 591 448 618 423 643 L423 594 L56 594 L56 643 Z M202 289 L202 465 C202 507 213 526 239 526 C266 526 277 508 277 465 L277 289 L202 289 Z M69 713 L69 608 L410 608 L410 713 L69 713 Z " />
<glyph glyph-name="amacron" unicode="&#x101;" horiz-adv-x="433" d="M410 512 L251 512 L251 458 L239 473 C212 507 195 515 144 515 L110 515 C81 515 57 506 41 489 C26 474 21 452 21 404 L21 131 C21 83 28 43 40 25 C55 4 74 -2 131 -2 L163 -2 C213 -2 224 5 251 56 L251 0 L410 0 L410 512 Z M180 338 C180 377 191 396 215 396 C240 396 251 378 251 338 L251 180 C251 141 240 122 216 122 C191 122 180 140 180 180 L180 338 Z M68 660 L68 565 L378 565 L378 660 L68 660 Z " />
<glyph glyph-name="Abreve" unicode="&#x102;" horiz-adv-x="479" d="M23 0 L202 0 L202 141 L277 141 L277 0 L456 0 L456 530 C456 606 441 640 402 655 C366 599 319 577 238 577 C159 577 113 599 77 655 C38 640 23 606 23 530 L23 0 Z M202 289 L202 465 C202 507 214 526 239 526 C265 526 277 507 277 465 L277 289 L202 289 Z M65 730 C80 635 136 590 237 590 C303 590 348 607 377 643 C400 671 410 695 414 730 L326 730 C315 706 287 694 241 694 C194 694 170 704 152 730 L65 730 Z " />
<glyph glyph-name="abreve" unicode="&#x103;" horiz-adv-x="433" d="M410 512 L251 512 L251 458 L239 473 C212 507 195 515 144 515 L110 515 C81 515 57 506 41 489 C26 474 21 452 21 404 L21 131 C21 83 28 43 40 25 C55 4 74 -2 131 -2 L163 -2 C213 -2 224 5 251 56 L251 0 L410 0 L410 512 Z M180 338 C180 377 191 396 215 396 C240 396 251 378 251 338 L251 180 C251 141 240 122 216 122 C191 122 180 140 180 180 L180 338 Z M65 676 C79 590 129 549 221 549 C281 549 322 564 349 597 C369 622 378 644 382 676 L302 676 C292 654 266 643 224 643 C182 643 160 652 144 676 L65 676 Z " />
<glyph glyph-name="Aogonek" unicode="&#x104;" horiz-adv-x="479" d="M456 6 L456 531 C456 589 446 624 425 642 C404 660 363 667 276 667 L203 667 C116 667 75 660 54 642 C33 624 23 589 23 531 L23 0 L202 0 L202 141 L277 141 L277 0 L305 0 C312 6 315 8 322 12 L398 63 L456 6 Z M202 289 L202 465 C202 507 214 527 239 527 C265 527 277 508 277 465 L277 289 L202 289 Z M443 0 L397 46 L329 1 C291 -24 273 -53 273 -87 C273 -119 293 -150 321 -162 C339 -169 347 -170 389 -170 L444 -170 L469 -84 L450 -84 C412 -84 408 -83 400 -80 C389 -75 382 -66 382 -57 C382 -46 384 -44 414 -22 L443 0 Z " />
<glyph glyph-name="aogonek" unicode="&#x105;" horiz-adv-x="433" d="M410 6 L410 512 L251 512 L251 458 L239 473 C212 507 195 515 144 515 L110 515 C81 515 57 506 41 489 C26 474 21 452 21 404 L21 131 C21 83 28 43 40 25 C55 4 74 -2 131 -2 L163 -2 C213 -2 225 6 251 56 L251 0 L259 0 C267 6 270 8 276 12 L353 63 L410 6 Z M180 338 C180 377 191 396 215 396 C240 396 251 378 251 338 L251 180 C251 140 240 122 216 122 C191 122 180 140 180 180 L180 338 Z M397 0 L351 46 L284 1 C245 -24 227 -53 227 -87 C227 -119 247 -150 275 -162 C293 -169 302 -170 343 -170 L391 -170 L416 -84 L404 -84 C366 -84 362 -83 354 -80 C343 -75 336 -66 336 -57 C336 -46 338 -44 368 -22 L397 0 Z " />
<glyph glyph-name="Cacute" unicode="&#x106;" horiz-adv-x="324" d="M123 665 C83 661 57 646 44 619 C30 591 21 527 21 453 L21 240 C21 73 35 25 88 7 C105 2 110 1 198 0 L317 0 L317 145 L280 145 C232 145 225 146 213 158 C202 170 200 178 200 226 L200 441 C200 489 201 497 213 509 C225 521 232 522 280 522 L312 522 L312 667 L298 667 L238 573 L86 573 L123 665 Z M164 733 L106 587 L231 587 L325 733 L164 733 Z " />
<glyph glyph-name="cacute" unicode="&#x107;" horiz-adv-x="285" d="M278 512 L134 512 C62 512 37 500 26 463 C21 447 21 447 21 397 L21 152 C22 53 22 53 34 33 C50 9 76 0 133 0 L278 0 L278 121 L228 121 C186 121 180 128 180 182 L180 326 C180 381 187 391 225 391 L278 391 L278 512 Z M156 678 L103 545 L216 545 L302 678 L156 678 Z " />
<glyph glyph-name="cdotaccent" unicode="&#x10b;" horiz-adv-x="285" d="M278 512 L134 512 C62 512 37 500 26 463 C21 447 21 447 21 397 L21 152 C22 53 22 53 34 33 C50 9 76 0 133 0 L278 0 L278 121 L228 121 C186 121 180 128 180 182 L180 326 C180 381 187 391 225 391 L278 391 L278 512 Z M83 667 L83 558 L242 558 L242 667 L83 667 Z " />
<glyph glyph-name="Ccaron" unicode="&#x10c;" horiz-adv-x="324" d="M312 643 L268 573 L110 573 L65 644 C48 631 43 622 35 596 C27 571 21 506 21 453 L21 240 C21 73 35 25 88 7 C105 2 110 1 198 0 L317 0 L317 145 L280 145 C232 145 225 146 213 158 C202 170 200 178 200 226 L200 441 C200 489 201 497 213 509 C225 521 232 522 280 522 L312 522 L312 643 Z M261 587 L353 733 L239 733 L189 655 L138 733 L25 733 L117 587 L261 587 Z " />
<glyph glyph-name="ccaron" unicode="&#x10d;" horiz-adv-x="285" d="M278 512 L134 512 C62 512 37 500 26 463 C21 447 21 447 21 397 L21 152 C22 53 22 53 34 33 C50 9 76 0 133 0 L278 0 L278 121 L228 121 C186 121 180 128 180 182 L180 326 C180 381 187 391 225 391 L278 391 L278 512 Z M234 545 L318 678 L215 678 L169 608 L123 678 L20 678 L104 545 L234 545 Z " />
<glyph glyph-name="Dcaron" unicode="&#x10e;" horiz-adv-x="479" d="M95 667 L23 667 L23 0 L275 0 C339 1 354 2 358 2 C407 5 437 34 446 87 C453 125 457 195 457 263 L457 442 C457 554 449 605 429 630 C415 648 397 657 368 663 L311 573 L154 573 L95 667 Z M202 147 L202 521 L234 521 C271 521 278 511 278 463 L278 205 C278 157 271 147 234 147 L202 147 Z M305 587 L397 733 L283 733 L233 655 L182 733 L69 733 L161 587 L305 587 Z " />
<glyph glyph-name="dcaron" unicode="&#x10f;" horiz-adv-x="490" d="M410 470 L292 470 L373 667 L251 667 L251 458 C247 463 243 469 239 473 C212 509 197 515 144 515 L110 515 C78 515 58 507 41 490 C26 474 21 452 21 404 L21 131 C21 83 28 43 40 25 C55 4 74 -2 131 -2 L163 -2 C213 -2 225 6 251 56 L251 0 L410 0 L410 470 Z M251 180 C251 140 240 122 216 122 C191 122 180 140 180 180 L180 338 C180 377 191 396 215 396 C240 396 251 378 251 338 L251 180 Z M388 667 L312 484 L410 484 L510 667 L388 667 Z " />
<glyph glyph-name="Dcroat" unicode="&#x110;" horiz-adv-x="479" d="M23 268 L23 0 L276 0 C340 1 355 2 359 2 C408 5 438 34 447 87 C454 125 458 195 458 263 L458 442 C458 520 452 583 443 607 C432 638 407 656 366 663 C351 666 351 666 276 667 L23 667 L23 399 L202 399 L202 522 L234 522 C272 522 279 512 279 463 L279 206 C279 156 272 147 234 147 L202 147 L202 268 L23 268 Z M0 386 L0 281 L240 281 L240 386 L0 386 Z " />
<glyph glyph-name="dcroat" unicode="&#x111;" horiz-adv-x="433" d="M410 640 L410 667 L251 667 L251 640 L410 640 Z M410 525 L251 525 L251 458 L239 473 C212 507 195 515 144 515 L110 515 C81 515 57 506 41 489 C26 474 21 452 21 404 L21 131 C21 83 28 43 40 25 C55 4 74 -2 131 -2 L163 -2 C213 -2 224 5 251 56 L251 0 L410 0 L410 525 Z M251 180 C251 141 240 122 216 122 C191 122 180 140 180 180 L180 338 C180 377 191 396 215 396 C240 396 251 378 251 338 L251 180 Z M123 627 L123 538 L433 538 L433 627 L123 627 Z " />
<glyph glyph-name="Emacron" unicode="&#x112;" horiz-adv-x="373" d="M365 594 L34 594 C27 566 21 506 21 453 L21 240 C21 73 35 25 88 7 C104 2 110 1 198 0 L365 0 L365 145 L200 145 L200 261 L365 261 L365 406 L200 406 L200 521 L365 521 L365 594 Z M25 713 L25 608 L365 608 L365 713 L25 713 Z " />
<glyph glyph-name="emacron" unicode="&#x113;" horiz-adv-x="431" d="M410 192 L410 402 C410 461 407 473 386 489 C366 505 332 512 277 512 L152 512 C92 512 61 505 45 489 C29 473 21 445 21 409 L21 138 L21 108 C21 18 41 0 143 0 L410 0 L410 121 L236 121 C192 121 180 130 180 165 L180 192 L410 192 Z M180 289 L180 335 C180 370 193 391 215 391 C238 391 251 370 251 335 L251 289 L180 289 Z M61 660 L61 565 L370 565 L370 660 L61 660 Z " />
<glyph glyph-name="Ebreve" unicode="&#x114;" horiz-adv-x="373" d="M365 660 C329 602 281 578 198 578 C129 578 89 593 53 634 C37 611 31 594 27 560 C24 527 21 480 21 453 L21 240 C21 73 35 25 88 7 C104 2 110 1 198 0 L365 0 L365 145 L200 145 L200 261 L365 261 L365 406 L200 406 L200 522 L365 522 L365 660 Z M26 730 C41 635 96 590 197 590 C263 590 308 607 338 643 C361 671 371 695 374 730 L286 730 C275 706 247 694 201 694 C154 694 130 704 113 730 L26 730 Z " />
<glyph glyph-name="ebreve" unicode="&#x115;" horiz-adv-x="431" d="M410 192 L410 402 C410 461 407 473 386 489 C366 505 332 512 277 512 L152 512 C92 512 61 505 45 489 C29 473 21 445 21 409 L21 138 L21 108 C21 18 41 0 143 0 L410 0 L410 121 L236 121 C192 121 180 130 180 165 L180 192 L410 192 Z M180 289 L180 335 C180 370 193 391 215 391 C238 391 251 370 251 335 L251 289 L180 289 Z M57 676 C71 590 121 549 213 549 C273 549 314 564 341 597 C362 622 371 644 374 676 L294 676 C284 654 258 643 217 643 C174 643 152 652 136 676 L57 676 Z " />
<glyph glyph-name="Edotaccent" unicode="&#x116;" horiz-adv-x="373" d="M99 661 C71 653 54 640 44 619 C30 591 21 528 21 453 L21 240 C21 73 35 25 88 7 C105 2 110 1 198 0 L365 0 L365 145 L200 145 L200 261 L365 261 L365 406 L200 406 L200 522 L365 522 L365 667 L300 667 L300 587 L99 587 L99 661 Z M112 720 L112 600 L287 600 L287 720 L112 720 Z " />
<glyph glyph-name="edotaccent" unicode="&#x117;" horiz-adv-x="431" d="M410 192 L410 402 C410 461 407 473 386 489 C366 505 332 512 277 512 L152 512 C92 512 61 505 45 489 C29 473 21 445 21 409 L21 138 L21 108 C21 18 41 0 143 0 L410 0 L410 121 L236 121 C192 121 180 130 180 165 L180 192 L410 192 Z M180 289 L180 335 C180 370 193 391 215 391 C238 391 251 370 251 335 L251 289 L180 289 Z M136 667 L136 558 L295 558 L295 667 L136 667 Z " />
<glyph glyph-name="Eogonek" unicode="&#x118;" horiz-adv-x="373" d="M365 6 L365 145 L200 145 L200 261 L365 261 L365 406 L200 406 L200 522 L365 522 L365 667 L198 667 C131 666 118 665 103 662 C64 654 42 630 32 585 C26 562 21 495 21 453 L21 240 C21 73 35 25 88 7 C104 2 110 1 198 0 L215 0 C222 6 225 8 232 12 L308 63 L365 6 Z M352 0 L306 46 L239 1 C200 -24 182 -52 182 -87 C182 -119 202 -150 230 -162 C248 -169 257 -170 298 -170 L353 -170 L378 -84 L359 -84 C321 -84 317 -83 309 -80 C298 -75 291 -66 291 -57 C291 -46 293 -44 323 -22 L352 0 Z " />
<glyph glyph-name="eogonek" unicode="&#x119;" horiz-adv-x="431" d="M410 6 L410 121 L236 121 C192 121 180 130 180 165 L180 192 L410 192 L410 402 C410 461 407 473 386 489 C366 505 332 512 277 512 L152 512 C92 512 61 505 45 489 C29 473 21 445 21 409 L21 138 L21 108 C21 18 41 0 143 0 L260 0 C267 6 269 7 277 12 L353 63 L410 6 Z M180 289 L180 335 C180 370 193 391 215 391 C238 391 251 370 251 335 L251 289 L180 289 Z M397 0 L351 46 L284 1 C245 -25 227 -53 227 -87 C227 -119 247 -150 275 -162 C293 -169 302 -170 344 -170 L392 -170 L417 -84 L404 -84 C366 -84 362 -83 354 -80 C343 -75 336 -66 336 -57 C336 -46 338 -44 368 -22 L397 0 Z " />
<glyph glyph-name="Ecaron" unicode="&#x11a;" horiz-adv-x="373" d="M72 650 C52 637 44 625 35 596 C27 571 21 506 21 453 L21 240 C21 73 35 25 88 7 C104 2 110 1 198 0 L365 0 L365 145 L200 145 L200 261 L365 261 L365 406 L200 406 L200 522 L365 522 L365 667 L338 667 L279 573 L121 573 L72 650 Z M272 587 L364 733 L250 733 L200 655 L149 733 L36 733 L128 587 L272 587 Z " />
<glyph glyph-name="ecaron" unicode="&#x11b;" horiz-adv-x="431" d="M410 192 L410 402 C410 461 407 473 386 489 C366 505 332 512 277 512 L152 512 C92 512 61 505 45 489 C29 473 21 445 21 409 L21 138 L21 108 C21 18 41 0 143 0 L410 0 L410 121 L236 121 C192 121 180 130 180 165 L180 192 L410 192 Z M180 289 L180 335 C180 370 193 391 215 391 C238 391 251 370 251 335 L251 289 L180 289 Z M281 545 L365 678 L261 678 L216 608 L170 678 L66 678 L150 545 L281 545 Z " />
<glyph glyph-name="Gbreve" unicode="&#x11e;" horiz-adv-x="475" d="M21 232 C22 121 23 109 23 101 C27 42 43 17 86 7 C108 1 128 0 202 0 L276 0 C379 0 401 4 425 24 C448 44 453 66 453 148 L453 381 L260 381 C270 353 274 331 274 306 L274 145 L245 145 C204 145 200 152 200 224 L200 461 C200 517 205 522 260 522 L323 522 C369 522 424 514 453 503 L453 667 L420 667 C383 603 335 578 249 578 C169 578 124 600 88 656 C35 634 21 587 21 432 L21 232 Z M77 730 C92 635 147 590 248 590 C314 590 359 607 389 643 C412 671 422 695 425 730 L337 730 C326 706 298 694 252 694 C205 694 181 704 164 730 L77 730 Z " />
<glyph glyph-name="gbreve" unicode="&#x11f;" horiz-adv-x="433" d="M251 0 L251 -40 C251 -73 237 -85 200 -85 C167 -85 155 -73 154 -40 L21 -40 L21 -87 C21 -154 41 -169 132 -169 L281 -169 C288 -169 290 -169 322 -166 C366 -162 372 -160 389 -144 C406 -125 410 -108 410 -40 L410 369 C410 502 399 512 264 512 L174 512 C97 512 63 505 43 486 C23 467 21 457 21 369 L21 140 C21 53 23 42 42 23 C61 3 76 0 154 0 L251 0 Z M251 174 C251 137 240 119 217 119 C191 119 180 135 180 174 L180 335 C180 373 191 390 216 390 C240 390 251 373 251 335 L251 174 Z M58 676 C73 590 123 549 215 549 C275 549 315 564 342 597 C363 622 372 644 375 676 L296 676 C285 654 260 643 218 643 C176 643 154 652 138 676 L58 676 Z " />
<glyph glyph-name="Gcommaaccent" unicode="&#x122;" horiz-adv-x="475" d="M308 0 C371 1 382 3 403 11 C444 28 453 52 453 148 L453 381 L260 381 C270 353 274 331 274 306 L274 145 L245 145 C204 145 200 152 200 224 L200 461 C200 517 205 522 260 522 L323 522 C369 522 424 514 453 503 L453 667 L202 667 C107 667 76 660 53 633 C30 606 21 547 21 432 L21 232 L22 140 C22 85 26 58 39 37 C57 10 85 1 154 0 L190 87 L355 87 L308 0 Z M199 74 L115 -128 L224 -128 L333 74 L199 74 Z " />
<glyph glyph-name="gcommaaccent" unicode="&#x123;" horiz-adv-x="433" d="M251 0 L251 -40 C251 -73 237 -85 200 -85 C167 -85 155 -73 154 -40 L21 -40 L21 -87 C21 -154 41 -169 132 -169 L281 -169 C288 -169 290 -169 322 -166 C366 -162 372 -160 389 -144 C406 -125 410 -108 410 -40 L410 369 C410 502 399 512 264 512 L174 512 C97 512 63 505 43 486 C23 467 21 457 21 369 L21 140 C21 53 23 42 42 23 C61 3 76 0 154 0 L251 0 Z M251 174 C251 137 240 119 217 119 C191 119 180 135 180 174 L180 335 C180 373 191 390 216 390 C240 390 251 373 251 335 L251 174 Z M260 550 L336 733 L237 733 L138 550 L260 550 Z " />
<glyph glyph-name="Imacron" unicode="&#x12a;" horiz-adv-x="225" d="M202 594 L23 594 L23 0 L202 0 L202 594 Z M-18 713 L-18 608 L242 608 L242 713 L-18 713 Z " />
<glyph glyph-name="imacron" unicode="&#x12b;" horiz-adv-x="206" d="M24 512 L24 0 L183 0 L183 512 L24 512 Z M-18 660 L-18 565 L225 565 L225 660 L-18 660 Z " />
<glyph glyph-name="Iogonek" unicode="&#x12e;" horiz-adv-x="225" d="M202 6 L202 667 L23 667 L23 0 L51 0 C59 6 62 8 68 12 L145 63 L202 6 Z M189 0 L143 46 L76 1 C37 -24 19 -53 19 -87 C19 -119 39 -150 67 -162 C85 -169 94 -170 135 -170 L190 -170 L215 -84 L196 -84 C158 -84 154 -83 146 -80 C135 -75 128 -66 128 -57 C128 -46 130 -44 160 -22 L189 0 Z " />
<glyph glyph-name="iogonek" unicode="&#x12f;" horiz-adv-x="206" d="M182 6 L182 512 L23 512 L23 0 L32 0 C39 6 41 8 49 12 L125 63 L182 6 Z M169 0 L123 46 L56 1 C17 -24 -1 -53 -1 -87 C-1 -119 19 -150 47 -162 C65 -169 74 -170 115 -170 L163 -170 L188 -84 L176 -84 C138 -84 134 -83 126 -80 C115 -75 108 -66 108 -57 C108 -46 110 -44 140 -22 L169 0 Z M23 667 L23 558 L182 558 L182 667 L23 667 Z " />
<glyph glyph-name="Idotaccent" unicode="&#x130;" horiz-adv-x="225" d="M202 587 L23 587 L23 0 L202 0 L202 587 Z M23 720 L23 600 L201 600 L201 720 L23 720 Z " />
<glyph glyph-name="dotlessi" unicode="&#x131;" horiz-adv-x="206" d="M23 512 L23 0 L182 0 L182 512 L23 512 Z " />
<glyph glyph-name="Kcommaaccent" unicode="&#x136;" horiz-adv-x="479" d="M303 0 L470 0 C458 40 456 56 456 120 L456 214 C456 293 431 324 356 337 C353 337 344 339 335 340 C341 342 346 342 348 343 C397 352 415 360 433 382 C452 405 456 421 456 482 L456 561 C456 619 458 635 470 667 L292 667 C281 639 277 619 277 580 L277 503 C277 423 268 406 228 406 L202 406 L202 667 L23 667 L23 0 L150 0 L186 87 L202 87 L202 261 L225 261 C263 261 277 239 277 178 L277 117 L277 87 L350 87 L303 0 Z M194 74 L111 -128 L219 -128 L328 74 L194 74 Z " />
<glyph glyph-name="kcommaaccent" unicode="&#x137;" horiz-adv-x="431" d="M272 0 L424 0 C413 33 412 38 412 103 L412 147 C412 216 378 250 293 266 C389 291 412 318 412 407 L412 512 L253 512 L253 400 C253 334 242 316 202 316 L182 316 L182 667 L23 667 L23 0 L128 0 L161 80 L182 80 L182 188 L206 188 C237 188 253 166 253 123 L253 98 L253 80 L315 80 L272 0 Z M171 66 L95 -117 L193 -117 L292 66 L171 66 Z " />
<glyph glyph-name="Lacute" unicode="&#x139;" horiz-adv-x="327" d="M101 667 L14 667 C21 625 24 576 24 498 L24 0 L291 0 L323 152 L203 145 L203 502 C203 526 204 545 206 573 L64 573 L101 667 Z M142 733 L84 587 L209 587 L303 733 L142 733 Z " />
<glyph glyph-name="lacute" unicode="&#x13a;" horiz-adv-x="206" d="M182 610 L158 573 L23 573 L23 0 L182 0 L182 610 Z M85 733 L27 587 L151 587 L246 733 L85 733 Z " />
<glyph glyph-name="Lcommaaccent" unicode="&#x13b;" horiz-adv-x="327" d="M234 0 L291 0 L323 152 L203 145 L203 503 C203 563 208 614 219 667 L14 667 C21 625 24 577 24 498 L24 0 L80 0 L116 87 L281 87 L234 0 Z M125 74 L42 -128 L150 -128 L259 74 L125 74 Z " />
<glyph glyph-name="lcommaaccent" unicode="&#x13c;" horiz-adv-x="206" d="M182 80 L182 667 L23 667 L23 0 L36 0 L69 80 L182 80 Z M78 66 L2 -117 L100 -117 L200 66 L78 66 Z " />
<glyph glyph-name="Lcaron" unicode="&#x13d;" horiz-adv-x="327" d="M191 667 L14 667 C21 625 24 577 24 498 L24 0 L291 0 L323 152 L203 145 L203 452 L101 452 L191 667 Z M205 667 L122 465 L230 465 L339 667 L205 667 Z " />
<glyph glyph-name="lcaron" unicode="&#x13e;" horiz-adv-x="262" d="M145 667 L23 667 L23 0 L182 0 L182 470 L64 470 L145 667 Z M160 667 L84 484 L182 484 L282 667 L160 667 Z " />
<glyph glyph-name="Lslash" unicode="&#x141;" horiz-adv-x="327" d="M24 203 L24 0 L291 0 L323 152 L203 145 L203 320 L24 203 Z M203 475 L203 503 C203 563 208 614 219 667 L14 667 C21 629 24 580 24 498 L24 358 L203 475 Z M-2 324 L-2 202 L273 382 L273 504 L-2 324 Z " />
<glyph glyph-name="lslash" unicode="&#x142;" horiz-adv-x="206" d="M182 478 L182 667 L23 667 L23 376 L182 478 Z M23 236 L23 0 L182 0 L182 338 L23 236 Z M-13 337 L-13 229 L218 377 L218 484 L-13 337 Z " />
<glyph glyph-name="Nacute" unicode="&#x143;" horiz-adv-x="477" d="M181 667 L7 667 C21 610 24 579 24 514 L24 0 L203 0 L203 459 C203 497 214 514 239 514 C264 514 275 498 275 461 L275 0 L454 0 L454 450 L454 513 C454 538 454 544 453 559 C453 583 449 599 439 619 C419 655 401 664 354 666 L294 573 L143 573 L181 667 Z M221 733 L162 587 L287 587 L382 733 L221 733 Z " />
<glyph glyph-name="nacute" unicode="&#x144;" horiz-adv-x="438" d="M23 512 L23 0 L182 0 L182 336 C182 378 193 396 220 396 C245 396 256 379 256 338 L256 0 L415 0 L415 339 C414 453 414 453 405 472 C390 502 359 514 296 514 C234 514 209 502 182 457 L182 512 L23 512 Z M206 678 L152 545 L266 545 L352 678 L206 678 Z " />
<glyph glyph-name="Ncommaaccent" unicode="&#x145;" horiz-adv-x="477" d="M309 0 L454 0 L454 450 C454 592 454 592 439 619 C419 657 397 667 328 667 C249 667 222 648 204 579 C200 614 198 627 187 667 L7 667 C21 610 24 579 24 515 L24 0 L155 0 L191 87 L202 87 L202 459 C202 496 214 514 239 514 C264 514 276 497 276 461 L276 87 L356 87 L309 0 Z M200 74 L117 -128 L225 -128 L334 74 L200 74 Z " />
<glyph glyph-name="ncommaaccent" unicode="&#x146;" horiz-adv-x="438" d="M282 0 L415 0 L415 339 C414 453 414 453 405 472 C390 502 359 514 296 514 C234 514 209 502 182 457 L182 512 L23 512 L23 0 L138 0 L171 80 L182 80 L182 336 C182 378 193 396 220 396 C245 396 256 379 256 338 L256 80 L325 80 L282 0 Z M181 66 L105 -117 L203 -117 L302 66 L181 66 Z " />
<glyph glyph-name="Ncaron" unicode="&#x147;" horiz-adv-x="477" d="M101 667 L7 667 C21 610 24 579 24 514 L24 0 L203 0 L203 459 C203 497 214 514 239 514 C264 514 275 498 275 461 L275 0 L454 0 L454 450 L454 513 C454 538 454 544 453 559 C453 583 449 599 439 619 C424 648 403 662 375 664 L317 573 L160 573 L101 667 Z M310 587 L403 733 L289 733 L239 655 L188 733 L75 733 L167 587 L310 587 Z " />
<glyph glyph-name="ncaron" unicode="&#x148;" horiz-adv-x="438" d="M23 512 L23 0 L182 0 L182 336 C182 378 193 396 220 396 C245 396 256 379 256 338 L256 0 L415 0 L415 339 C414 453 414 453 405 472 C390 502 359 514 296 514 C234 514 209 502 182 457 L182 512 L23 512 Z M284 545 L368 678 L265 678 L219 608 L173 678 L70 678 L153 545 L284 545 Z " />
<glyph glyph-name="Omacron" unicode="&#x14c;" horiz-adv-x="477" d="M48 594 C27 549 21 507 21 396 L21 271 C21 160 27 118 48 73 C72 23 118 0 198 0 L278 0 C358 0 404 23 428 73 C449 118 455 160 455 271 L455 396 C455 508 449 551 428 594 L48 594 Z M276 189 C276 156 261 136 238 136 C215 136 200 156 200 189 L200 476 C200 508 214 528 238 528 C262 528 276 508 276 476 L276 189 Z M64 713 L64 608 L414 608 L414 713 L64 713 Z " />
<glyph glyph-name="omacron" unicode="&#x14d;" horiz-adv-x="433" d="M174 512 C97 512 63 505 43 486 C23 467 21 457 21 369 L21 142 C21 55 23 45 43 26 C63 7 97 0 174 0 L260 0 C336 0 370 7 390 26 C410 45 412 55 412 142 L412 369 C412 457 410 467 390 486 C370 505 336 512 260 512 L174 512 Z M253 174 C253 136 242 119 217 119 C191 119 180 136 180 174 L180 335 C180 373 191 390 215 390 C242 390 253 374 253 335 L253 174 Z M62 660 L62 565 L371 565 L371 660 L62 660 Z " />
<glyph glyph-name="Ohungarumlaut" unicode="&#x150;" horiz-adv-x="477" d="M363 573 L68 573 L123 658 C84 644 63 627 48 594 C27 548 21 507 21 396 L21 271 C21 160 27 118 48 73 C72 23 118 0 198 0 L278 0 C358 0 404 23 428 73 C449 118 455 160 455 271 L455 396 C455 479 452 514 443 549 C433 589 422 611 400 632 L363 573 Z M276 189 C276 156 261 136 238 136 C215 136 200 156 200 189 L200 476 C200 508 214 528 238 528 C262 528 276 508 276 476 L276 189 Z M187 733 L93 587 L217 587 L312 733 L187 733 Z M325 733 L231 587 L356 587 L450 733 L325 733 Z " />
<glyph glyph-name="ohungarumlaut" unicode="&#x151;" horiz-adv-x="433" d="M174 512 C97 512 63 505 43 486 C23 467 21 457 21 369 L21 142 C21 55 23 45 43 26 C63 7 97 0 174 0 L260 0 C336 0 370 7 390 26 C410 45 412 55 412 142 L412 369 C412 457 410 467 390 486 C370 505 336 512 260 512 L174 512 Z M253 174 C253 136 242 119 217 119 C191 119 180 136 180 174 L180 335 C180 373 191 390 215 390 C242 390 253 374 253 335 L253 174 Z M173 678 L87 545 L200 545 L286 678 L173 678 Z M299 678 L214 545 L327 545 L413 678 L299 678 Z " />
<glyph glyph-name="OE" unicode="&#x152;" horiz-adv-x="627" d="M620 145 L454 145 L454 261 L620 261 L620 406 L454 406 L454 522 L620 522 L620 667 L452 667 C396 667 363 662 347 653 C327 662 305 667 278 667 L198 667 C118 667 72 644 48 594 C27 549 21 507 21 396 L21 271 C21 160 27 118 48 73 C72 23 118 0 198 0 L278 0 C302 0 325 5 343 13 C360 4 373 2 452 0 L620 0 L620 145 Z M276 188 C276 156 262 136 238 136 C214 136 200 156 200 188 L200 476 C200 508 215 529 238 529 C261 529 276 508 276 476 L276 188 Z " />
<glyph glyph-name="oe" unicode="&#x153;" horiz-adv-x="662" d="M174 512 C97 512 63 505 43 486 C23 467 21 457 21 369 L21 143 C21 55 23 45 43 26 C63 7 97 0 174 0 L265 0 C302 0 309 1 322 10 C332 1 338 0 380 0 L642 0 L642 121 L468 121 C423 121 411 130 411 165 L411 192 L642 192 L642 402 C642 461 639 473 618 489 C598 505 564 512 509 512 L383 512 C356 512 339 509 327 500 C313 509 298 512 259 512 L174 512 Z M252 175 C252 137 241 119 216 119 C191 119 180 136 180 175 L180 335 C180 373 191 390 215 390 C241 390 252 374 252 335 L252 175 Z M411 289 L411 335 C411 369 425 391 447 391 C469 391 483 369 483 335 L483 289 L411 289 Z " />
<glyph glyph-name="Racute" unicode="&#x154;" horiz-adv-x="477" d="M180 667 L23 667 L23 0 L202 0 L202 261 L225 261 C262 261 277 244 277 201 L277 112 C277 61 280 34 291 0 L470 0 C461 33 456 71 456 112 L456 215 C456 294 437 319 358 342 C403 347 423 359 440 387 C453 412 456 430 456 495 L456 538 C456 595 442 635 416 652 C400 662 394 664 354 666 L294 573 L143 573 L180 667 Z M202 406 L202 522 L227 522 C265 522 278 507 278 463 C278 416 269 406 227 406 L202 406 Z M221 733 L162 587 L287 587 L381 733 L221 733 Z " />
<glyph glyph-name="racute" unicode="&#x155;" horiz-adv-x="320" d="M23 512 L23 0 L182 0 L182 383 C233 367 254 359 301 336 L313 509 C301 514 295 515 285 515 C239 515 212 497 182 446 L182 512 L23 512 Z M173 678 L120 545 L234 545 L319 678 L173 678 Z " />
<glyph glyph-name="Rcommaaccent" unicode="&#x156;" horiz-adv-x="477" d="M309 0 L470 0 C461 34 456 71 456 112 L456 215 C456 294 437 319 358 342 C403 347 423 359 440 387 C453 412 456 430 456 495 L456 538 C456 595 442 635 416 652 C395 665 386 667 296 667 L23 667 L23 0 L155 0 L191 87 L202 87 L202 261 L225 261 C262 261 277 244 277 201 L277 112 L277 87 L356 87 L309 0 Z M202 406 L202 522 L227 522 C265 522 278 507 278 463 C278 416 269 406 227 406 L202 406 Z M200 74 L116 -128 L224 -128 L334 74 L200 74 Z " />
<glyph glyph-name="rcommaaccent" unicode="&#x157;" horiz-adv-x="320" d="M182 80 L182 383 C233 367 254 359 301 336 L313 509 C301 514 295 515 285 515 C239 515 212 497 182 446 L182 512 L23 512 L23 0 L66 0 L99 80 L182 80 Z M109 66 L33 -117 L131 -117 L230 66 L109 66 Z " />
<glyph glyph-name="Rcaron" unicode="&#x158;" horiz-adv-x="477" d="M100 667 L23 667 L23 0 L202 0 L202 261 L225 261 C262 261 277 244 277 201 L277 112 C277 61 280 34 291 0 L470 0 C461 33 456 71 456 112 L456 215 C456 294 437 319 358 342 C403 347 423 359 440 387 C453 412 456 430 456 495 L456 538 C456 620 430 660 375 665 L318 573 L160 573 L100 667 Z M202 406 L202 522 L227 522 C265 522 278 507 278 463 C278 416 269 406 227 406 L202 406 Z M310 587 L403 733 L289 733 L238 655 L188 733 L74 733 L167 587 L310 587 Z " />
<glyph glyph-name="rcaron" unicode="&#x159;" horiz-adv-x="320" d="M23 512 L23 0 L182 0 L182 383 C233 367 254 359 301 336 L313 509 C301 514 295 515 285 515 C239 515 212 497 182 446 L182 512 L23 512 Z M231 545 L315 678 L212 678 L166 608 L120 678 L17 678 L101 545 L231 545 Z " />
<glyph glyph-name="Sacute" unicode="&#x15a;" horiz-adv-x="389" d="M139 666 C94 664 68 655 52 635 C30 609 19 557 19 485 L19 444 C19 363 24 332 43 303 C62 271 92 261 161 261 L189 261 L189 145 L22 145 L22 0 L188 0 C244 1 244 1 261 1 C306 3 328 12 346 37 C364 63 373 111 373 188 L373 229 C373 371 345 406 230 406 L198 406 L198 522 L355 522 L355 667 L314 667 L254 573 L102 573 L139 666 Z M180 733 L122 587 L247 587 L341 733 L180 733 Z " />
<glyph glyph-name="sacute" unicode="&#x15b;" horiz-adv-x="356" d="M322 512 L126 512 C88 512 69 509 55 502 C29 489 19 465 19 420 L19 299 C20 225 21 222 32 206 C42 191 60 186 98 186 L176 186 L176 121 L19 121 L19 0 L219 0 C259 1 267 2 275 3 C302 7 327 32 333 58 C336 71 340 105 340 119 L340 189 C340 267 338 281 326 300 C312 322 285 331 234 331 L178 331 L178 391 L322 391 L322 512 Z M166 678 L112 545 L226 545 L312 678 L166 678 Z " />
<glyph glyph-name="scircumflex" unicode="&#x15d;" horiz-adv-x="356" d="M322 512 L126 512 C88 512 69 509 55 502 C29 489 19 465 19 420 L19 299 C20 225 21 222 32 206 C42 191 60 186 98 186 L176 186 L176 121 L19 121 L19 0 L219 0 C259 1 267 2 275 3 C302 7 327 32 333 58 C336 71 340 105 340 119 L340 189 C340 267 338 281 326 300 C312 322 285 331 234 331 L178 331 L178 391 L322 391 L322 512 Z M113 678 L30 545 L133 545 L179 616 L225 545 L328 545 L244 678 L113 678 Z " />
<glyph glyph-name="Scedilla" unicode="&#x15e;" horiz-adv-x="389" d="M246 1 L259 1 C348 4 373 46 373 188 L373 229 C373 371 345 406 230 406 L198 406 L198 522 L355 522 L355 667 L201 667 C104 667 83 664 60 644 C33 621 19 567 19 485 L19 444 C19 363 24 332 43 303 C62 271 92 261 161 261 L189 261 L189 145 L22 145 L22 0 L92 0 L128 87 L293 87 L246 1 Z M137 74 L53 -128 L161 -128 L270 74 L137 74 Z " />
<glyph glyph-name="scedilla" unicode="&#x15f;" horiz-adv-x="356" d="M228 0 L237 1 C288 2 305 9 323 36 C333 50 340 85 340 119 L340 189 C340 267 338 281 326 300 C312 322 285 331 234 331 L178 331 L178 391 L322 391 L322 512 L126 512 C88 512 69 509 55 502 C29 489 19 465 19 420 L19 299 C20 225 21 222 32 206 C42 191 60 186 98 186 L176 186 L176 121 L19 121 L19 0 L85 0 L119 80 L271 80 L228 0 Z M127 66 L51 -117 L150 -117 L249 66 L127 66 Z " />
<glyph glyph-name="Scaron" unicode="&#x160;" horiz-adv-x="389" d="M68 650 C34 626 19 574 19 485 L19 444 C19 363 24 332 43 303 C62 271 92 261 161 261 L189 261 L189 145 L22 145 L22 0 L188 0 C244 1 244 1 261 1 C306 3 328 12 346 37 C364 63 373 111 373 188 L373 229 C373 371 345 406 230 406 L198 406 L198 522 L355 522 L355 667 L333 667 L274 573 L116 573 L68 650 Z M267 587 L359 733 L245 733 L195 655 L144 733 L31 733 L123 587 L267 587 Z " />
<glyph glyph-name="scaron" unicode="&#x161;" horiz-adv-x="356" d="M322 512 L126 512 C88 512 69 509 55 502 C29 489 19 465 19 420 L19 299 C20 225 21 222 32 206 C42 191 60 186 98 186 L176 186 L176 121 L19 121 L19 0 L219 0 C259 1 267 2 275 3 C302 7 327 32 333 58 C336 71 340 105 340 119 L340 189 C340 267 338 281 326 300 C312 322 285 331 234 331 L178 331 L178 391 L322 391 L322 512 Z M244 545 L328 678 L225 678 L179 608 L133 678 L30 678 L113 545 L244 545 Z " />
<glyph glyph-name="Tcommaaccent" unicode="&#x162;" horiz-adv-x="354" d="M267 87 L267 522 L348 522 L348 667 L7 667 L7 522 L88 522 L88 0 L107 0 L143 87 L267 87 Z M152 74 L68 -128 L177 -128 L286 74 L152 74 Z " />
<glyph glyph-name="tcommaaccent" unicode="&#x163;" horiz-adv-x="292" d="M222 0 L285 0 L285 121 L243 121 C218 121 209 131 209 157 L209 372 L285 372 L285 493 L209 493 L209 614 L50 614 L50 493 L7 493 L7 372 L50 372 L50 121 C50 60 58 37 86 16 L112 80 L265 80 L222 0 Z M121 66 L45 -117 L144 -117 L243 66 L121 66 Z " />
<glyph glyph-name="Tcaron" unicode="&#x164;" horiz-adv-x="354" d="M39 667 L7 667 L7 522 L88 522 L88 0 L267 0 L267 522 L348 522 L348 667 L315 667 L256 573 L98 573 L39 667 Z M249 587 L341 733 L228 733 L177 655 L127 733 L13 733 L105 587 L249 587 Z " />
<glyph glyph-name="tcaron" unicode="&#x165;" horiz-adv-x="345" d="M206 614 L50 614 L50 493 L7 493 L7 372 L50 372 L50 121 C50 29 76 0 159 0 L285 0 L285 121 L243 121 C218 121 209 131 209 157 L209 372 L285 372 L285 492 L273 470 L147 470 L206 614 Z M243 667 L167 484 L265 484 L365 667 L243 667 Z " />
<glyph glyph-name="Umacron" unicode="&#x16a;" horiz-adv-x="479" d="M423 667 L423 594 L277 594 L277 201 C277 159 265 140 239 140 C214 140 202 159 202 201 L202 594 L56 594 L56 667 L23 667 L23 136 C23 78 33 43 54 25 C75 7 117 0 203 0 L276 0 C362 0 404 7 425 25 C446 44 456 78 456 136 L456 667 L423 667 Z M69 713 L69 608 L410 608 L410 713 L69 713 Z " />
<glyph glyph-name="umacron" unicode="&#x16b;" horiz-adv-x="438" d="M182 512 L23 512 L23 157 C23 86 30 61 55 36 C83 7 108 0 190 0 L249 0 C330 0 355 7 383 36 C408 61 414 86 414 157 L414 512 L255 512 L255 174 C255 135 244 119 218 119 C193 119 182 136 182 174 L182 512 Z M64 660 L64 565 L373 565 L373 660 L64 660 Z " />
<glyph glyph-name="Uring" unicode="&#x16e;" horiz-adv-x="479" d="M348 667 C352 653 353 646 353 635 C353 585 326 546 277 527 L277 201 C277 159 265 140 239 140 C214 140 202 159 202 201 L202 527 C154 546 126 585 126 634 C126 645 127 653 131 667 L23 667 L23 136 C23 78 33 43 54 25 C75 7 116 0 203 0 L276 0 C362 0 404 7 425 25 C446 43 456 78 456 136 L456 667 L348 667 Z M242 734 C185 734 139 690 139 635 C139 579 184 534 239 534 C294 534 339 579 339 634 C339 688 295 734 242 734 L242 734 Z M240 671 C259 671 276 654 276 634 C276 614 259 597 239 597 C218 597 201 614 201 635 C201 655 218 671 240 671 L240 671 Z " />
<glyph glyph-name="uring" unicode="&#x16f;" horiz-adv-x="438" d="M182 512 L23 512 L23 157 C23 86 30 61 55 36 C83 7 108 0 190 0 L249 0 C330 0 355 7 383 36 C408 61 414 86 414 157 L414 512 L255 512 L255 174 C255 135 244 119 218 119 C193 119 182 136 182 174 L182 512 Z M222 726 C165 726 119 682 119 626 C119 570 164 525 219 525 C274 525 319 570 319 626 C319 680 275 726 222 726 L222 726 Z M220 663 C239 663 256 646 256 626 C256 606 239 589 219 589 C198 589 181 606 181 627 C181 647 198 663 220 663 L220 663 Z " />
<glyph glyph-name="Uhungarumlaut" unicode="&#x170;" horiz-adv-x="479" d="M277 573 L277 201 C277 159 265 140 239 140 C214 140 202 159 202 201 L202 573 L69 573 L130 667 L23 667 L23 136 C23 78 33 43 54 25 C75 7 116 0 203 0 L276 0 C362 0 404 7 425 25 C446 43 456 78 456 136 L456 667 L424 667 L364 573 L277 573 Z M188 733 L94 587 L218 587 L313 733 L188 733 Z M326 733 L232 587 L356 587 L451 733 L326 733 Z " />
<glyph glyph-name="uhungarumlaut" unicode="&#x171;" horiz-adv-x="438" d="M182 512 L23 512 L23 157 C23 86 30 61 55 36 C83 7 108 0 190 0 L249 0 C330 0 355 7 383 36 C408 61 414 86 414 157 L414 512 L255 512 L255 174 C255 135 244 119 218 119 C193 119 182 136 182 174 L182 512 Z M175 678 L89 545 L202 545 L288 678 L175 678 Z M301 678 L216 545 L329 545 L415 678 L301 678 Z " />
<glyph glyph-name="Uogonek" unicode="&#x172;" horiz-adv-x="479" d="M431 31 C449 54 456 82 456 136 L456 667 L277 667 L277 201 C277 159 265 140 239 140 C214 140 202 159 202 201 L202 667 L23 667 L23 136 C23 78 33 43 54 25 C75 7 116 0 203 0 L276 0 C285 0 292 0 306 1 C313 6 315 8 322 12 L399 63 L431 31 Z M443 0 L397 46 L329 1 C291 -24 273 -53 273 -87 C273 -119 293 -150 321 -162 C339 -169 347 -170 389 -170 L444 -170 L469 -84 L450 -84 C412 -84 408 -83 400 -80 C389 -75 382 -66 382 -57 C382 -46 384 -44 414 -22 L443 0 Z " />
<glyph glyph-name="uogonek" unicode="&#x173;" horiz-adv-x="438" d="M383 36 C408 64 414 86 414 157 L414 512 L255 512 L255 174 C255 135 244 119 218 119 C193 119 182 136 182 174 L182 512 L23 512 L23 157 C23 86 30 61 55 36 C83 7 108 0 190 0 L263 0 C271 6 274 8 280 12 L357 63 L383 36 Z M400 0 L354 46 L287 1 C248 -25 230 -53 230 -87 C230 -119 250 -150 278 -162 C296 -169 305 -170 347 -170 L395 -170 L420 -84 L407 -84 C369 -84 365 -83 357 -80 C346 -75 339 -66 339 -57 C339 -46 341 -44 371 -22 L400 0 Z " />
<glyph glyph-name="Ydieresis" unicode="&#x178;" horiz-adv-x="473" d="M272 587 L272 446 C273 350 269 334 236 297 C203 334 200 349 200 446 L200 587 L54 587 L54 667 L21 667 L21 449 L21 408 C21 312 68 224 147 173 L147 0 L326 0 L326 173 C372 203 407 245 429 298 C448 343 451 363 451 449 L451 667 L419 667 L419 587 L272 587 Z M68 720 L68 600 L230 600 L230 720 L68 720 Z M243 720 L243 600 L405 600 L405 720 L243 720 Z " />
<glyph glyph-name="Zacute" unicode="&#x179;" horiz-adv-x="382" d="M132 667 L25 667 L4 522 L153 522 L2 0 L360 0 L380 145 L220 145 L369 667 L307 667 L247 573 L95 573 L132 667 Z M173 733 L115 587 L239 587 L334 733 L173 733 Z " />
<glyph glyph-name="zacute" unicode="&#x17a;" horiz-adv-x="324" d="M27 512 L27 391 L120 391 L0 0 L316 0 L316 121 L198 121 L314 512 L27 512 Z M156 678 L103 545 L216 545 L302 678 L156 678 Z " />
<glyph glyph-name="Zdotaccent" unicode="&#x17b;" horiz-adv-x="382" d="M88 667 L24 667 L4 522 L153 522 L2 0 L359 0 L380 145 L220 145 L369 667 L293 667 L293 587 L88 587 L88 667 Z M102 720 L102 600 L280 600 L280 720 L102 720 Z " />
<glyph glyph-name="zdotaccent" unicode="&#x17c;" horiz-adv-x="324" d="M27 512 L27 391 L120 391 L0 0 L316 0 L316 121 L198 121 L314 512 L27 512 Z M89 667 L89 558 L248 558 L248 667 L89 667 Z " />
<glyph glyph-name="Zcaron" unicode="&#x17d;" horiz-adv-x="382" d="M53 667 L25 667 L4 522 L153 522 L2 0 L360 0 L380 145 L220 145 L369 667 L329 667 L270 573 L112 573 L53 667 Z M263 587 L355 733 L241 733 L191 655 L140 733 L27 733 L119 587 L263 587 Z " />
<glyph glyph-name="zcaron" unicode="&#x17e;" horiz-adv-x="324" d="M27 512 L27 391 L120 391 L0 0 L316 0 L316 121 L198 121 L314 512 L27 512 Z M234 545 L318 678 L215 678 L169 608 L123 678 L20 678 L104 545 L234 545 Z " />
<glyph glyph-name="florin" unicode="&#x192;" horiz-adv-x="453" d="M320 396 L377 396 L390 473 L334 473 L352 577 C357 606 365 613 392 613 L415 613 L436 733 L325 733 C235 733 212 711 194 613 L170 473 L127 473 L113 396 L156 396 L90 23 C85 -7 78 -13 50 -13 L27 -13 L6 -133 L117 -133 C207 -133 231 -111 248 -13 L320 396 Z " />
<glyph glyph-name="uni01D3" unicode="&#x1d3;" horiz-adv-x="479" d="M378 667 L318 573 L277 573 L277 201 C277 159 265 140 239 140 C214 140 202 159 202 201 L202 573 L160 573 L101 667 L23 667 L23 136 C23 78 33 43 54 25 C75 7 116 0 203 0 L276 0 C362 0 404 7 425 25 C446 43 456 78 456 136 L456 667 L378 667 Z M311 587 L404 733 L290 733 L239 655 L189 733 L75 733 L168 587 L311 587 Z " />
<glyph glyph-name="uni01D4" unicode="&#x1d4;" horiz-adv-x="438" d="M182 512 L23 512 L23 157 C23 86 30 61 55 36 C83 7 108 0 190 0 L249 0 C330 0 355 7 383 36 C408 61 414 86 414 157 L414 512 L255 512 L255 174 C255 135 244 119 218 119 C193 119 182 136 182 174 L182 512 Z M284 545 L368 678 L265 678 L219 608 L173 678 L69 678 L153 545 L284 545 Z " />
<glyph glyph-name="Scommaaccent" unicode="&#x218;" horiz-adv-x="389" d="M246 1 L259 1 C348 4 373 46 373 188 L373 229 C373 371 345 406 230 406 L198 406 L198 522 L355 522 L355 667 L201 667 C104 667 83 664 60 644 C33 621 19 567 19 485 L19 444 C19 363 24 332 43 303 C62 271 92 261 161 261 L189 261 L189 145 L22 145 L22 0 L92 0 L128 87 L293 87 L246 1 Z M137 74 L53 -128 L161 -128 L270 74 L137 74 Z " />
<glyph glyph-name="scommaaccent" unicode="&#x219;" horiz-adv-x="356" d="M228 0 L237 1 C288 2 305 9 323 36 C333 50 340 85 340 119 L340 189 C340 267 338 281 326 300 C312 322 285 331 234 331 L178 331 L178 391 L322 391 L322 512 L126 512 C88 512 69 509 55 502 C29 489 19 465 19 420 L19 299 C20 225 21 222 32 206 C42 191 60 186 98 186 L176 186 L176 121 L19 121 L19 0 L85 0 L119 80 L271 80 L228 0 Z M127 66 L51 -117 L150 -117 L249 66 L127 66 Z " />
<glyph glyph-name="uni021A" unicode="&#x21a;" horiz-adv-x="354" d="M267 87 L267 522 L348 522 L348 667 L7 667 L7 522 L88 522 L88 0 L107 0 L143 87 L267 87 Z M152 74 L68 -128 L177 -128 L286 74 L152 74 Z " />
<glyph glyph-name="uni021B" unicode="&#x21b;" horiz-adv-x="292" d="M222 0 L285 0 L285 121 L243 121 C218 121 209 131 209 157 L209 372 L285 372 L285 493 L209 493 L209 614 L50 614 L50 493 L7 493 L7 372 L50 372 L50 121 C50 60 58 37 86 16 L112 80 L265 80 L222 0 Z M121 66 L45 -117 L144 -117 L243 66 L121 66 Z " />
<glyph glyph-name="circumflex" unicode="&#x2c6;" horiz-adv-x="500" d="M185 678 L101 545 L204 545 L250 616 L296 545 L399 545 L315 678 L185 678 Z " />
<glyph glyph-name="caron" unicode="&#x2c7;" horiz-adv-x="500" d="M315 545 L399 678 L296 678 L250 608 L204 678 L101 678 L185 545 L315 545 Z " />
<glyph glyph-name="uni02C9" unicode="&#x2c9;" horiz-adv-x="500" d="M95 660 L95 565 L404 565 L404 660 L95 660 Z " />
<glyph glyph-name="breve" unicode="&#x2d8;" horiz-adv-x="500" d="M92 676 C106 590 156 549 248 549 C308 549 349 564 376 597 C396 622 406 644 409 676 L329 676 C319 654 293 643 252 643 C209 643 187 652 171 676 L92 676 Z " />
<glyph glyph-name="dotaccent" unicode="&#x2d9;" horiz-adv-x="500" d="M170 667 L170 558 L329 558 L329 667 L170 667 Z " />
<glyph glyph-name="ring" unicode="&#x2da;" horiz-adv-x="500" d="M253 726 C196 726 150 682 150 626 C150 570 195 525 250 525 C305 525 350 570 350 626 C350 680 306 726 253 726 L253 726 Z M251 663 C270 663 287 646 287 626 C287 606 270 589 250 589 C229 589 212 606 212 627 C212 647 229 663 251 663 L251 663 Z " />
<glyph glyph-name="ogonek" unicode="&#x2db;" horiz-adv-x="500" d="M459 0 L413 46 L346 1 C307 -24 289 -53 289 -87 C289 -119 309 -150 337 -162 C355 -169 364 -170 405 -170 L453 -170 L478 -84 L466 -84 C428 -84 424 -83 416 -80 C405 -75 398 -66 398 -57 C398 -46 400 -44 430 -22 L459 0 Z " />
<glyph glyph-name="tilde" unicode="&#x2dc;" horiz-adv-x="500" d="M314 667 C311 654 307 650 294 650 C290 650 290 650 268 654 L197 667 C187 669 172 670 158 670 C114 670 95 653 95 611 L95 556 L186 556 C188 573 191 578 200 578 C204 578 204 578 234 574 L290 564 C319 559 331 557 342 557 C389 557 405 575 405 628 L405 667 L314 667 Z " />
<glyph glyph-name="hungarumlaut" unicode="&#x2dd;" horiz-adv-x="500" d="M206 678 L120 545 L233 545 L319 678 L206 678 Z M333 678 L247 545 L360 545 L446 678 L333 678 Z " />
<glyph glyph-name="uni2011" unicode="&#x2011;" horiz-adv-x="236" d="M12 333 L12 216 L225 216 L225 333 L12 333 Z " />
<glyph glyph-name="figuredash" unicode="&#x2012;" horiz-adv-x="449" d="M12 332 L12 215 L439 215 L439 332 L12 332 Z " />
<glyph glyph-name="endash" unicode="&#x2013;" horiz-adv-x="449" d="M12 332 L12 215 L439 215 L439 332 L12 332 Z " />
<glyph glyph-name="emdash" unicode="&#x2014;" horiz-adv-x="646" d="M12 332 L12 215 L635 215 L635 332 L12 332 Z " />
<glyph glyph-name="afii00208" unicode="&#x2015;" horiz-adv-x="646" d="M12 332 L12 215 L635 215 L635 332 L12 332 Z " />
<glyph glyph-name="quoteleft" unicode="&#x2018;" horiz-adv-x="262" d="M159 438 L254 667 L131 667 L7 438 L159 438 Z " />
<glyph glyph-name="quoteright" unicode="&#x2019;" horiz-adv-x="292" d="M124 667 L29 438 L152 438 L276 667 L124 667 Z " />
<glyph glyph-name="quotesinglbase" unicode="&#x201a;" horiz-adv-x="262" d="M102 140 L7 -89 L130 -89 L254 140 L102 140 Z " />
<glyph glyph-name="quotedblleft" unicode="&#x201c;" horiz-adv-x="429" d="M326 438 L421 667 L298 667 L203 438 L326 438 Z M190 438 L285 667 L162 667 L38 438 L190 438 Z " />
<glyph glyph-name="quotedblright" unicode="&#x201d;" horiz-adv-x="398" d="M102 667 L7 438 L130 438 L254 667 L102 667 Z M267 667 L143 438 L266 438 L390 667 L267 667 Z " />
<glyph glyph-name="quotedblbase" unicode="&#x201e;" horiz-adv-x="398" d="M102 140 L7 -89 L130 -89 L254 140 L102 140 Z M267 140 L143 -89 L266 -89 L390 140 L267 140 Z " />
<glyph glyph-name="dagger" unicode="&#x2020;" horiz-adv-x="442" d="M144 0 L298 0 L298 353 L426 353 L426 476 L298 476 L298 667 L144 667 L144 476 L16 476 L16 353 L144 353 L144 0 Z " />
<glyph glyph-name="daggerdbl" unicode="&#x2021;" horiz-adv-x="442" d="M144 399 L144 267 L16 267 L16 144 L144 144 L144 0 L298 0 L298 144 L426 144 L426 267 L298 267 L298 399 L426 399 L426 522 L298 522 L298 667 L144 667 L144 522 L16 522 L16 399 L144 399 Z " />
<glyph glyph-name="bullet" unicode="&#x2022;" horiz-adv-x="667" d="M337 477 C258 477 196 416 196 338 C196 262 259 200 335 200 C411 200 473 262 473 339 C473 414 411 477 337 477 L337 477 Z " />
<glyph glyph-name="ellipsis" unicode="&#x2026;" horiz-adv-x="676" d="M115 139 C69 139 33 108 33 68 C33 30 69 -2 113 -2 C156 -2 192 30 192 68 C192 107 157 139 115 139 L115 139 Z M340 139 C294 139 258 108 258 68 C258 30 294 -2 338 -2 C381 -2 417 30 417 68 C417 107 382 139 340 139 L340 139 Z M565 139 C520 139 484 108 484 68 C484 30 520 -2 563 -2 C606 -2 642 30 642 68 C642 107 607 139 565 139 L565 139 Z " />
<glyph glyph-name="perthousand" unicode="&#x2030;" horiz-adv-x="896" d="M441 667 L362 667 L296 437 L296 393 C296 323 289 305 254 289 L171 0 L250 0 L316 230 L316 274 C316 344 323 362 358 378 L441 667 Z M167 293 C270 293 282 304 282 392 L282 567 C282 657 270 667 167 667 L127 667 C24 667 12 657 12 567 L12 392 C12 304 24 293 127 293 L167 293 Z M164 405 C164 381 161 375 147 375 C133 375 130 380 130 405 L130 553 C130 577 133 583 147 583 C161 583 164 577 164 553 L164 405 Z M486 0 C589 0 601 11 601 99 L601 273 C601 363 589 373 486 373 L445 373 C342 373 330 363 330 273 L330 99 C330 11 342 0 445 0 L486 0 Z M483 112 C483 88 480 82 466 82 C451 82 448 87 448 112 L448 259 C448 283 451 289 465 289 C480 289 483 283 483 259 L483 112 Z M770 0 C873 0 885 11 885 99 L885 273 C885 363 873 373 770 373 L729 373 C626 373 614 363 614 273 L614 99 C614 11 626 0 729 0 L770 0 Z M767 112 C767 88 764 82 750 82 C735 82 732 87 732 112 L732 259 C732 283 735 289 749 289 C764 289 767 283 767 259 L767 112 Z " />
<glyph glyph-name="guilsinglleft" unicode="&#x2039;" horiz-adv-x="292" d="M281 102 L164 263 L281 423 L128 423 L12 263 L128 102 L281 102 Z " />
<glyph glyph-name="guilsinglright" unicode="&#x203a;" horiz-adv-x="292" d="M12 102 L166 102 L281 263 L166 423 L12 423 L129 263 L12 102 Z " />
<glyph glyph-name="uni203E" unicode="&#x203e;" horiz-adv-x="500" d="M0 821 L0 719 L500 719 L500 821 L0 821 Z " />
<glyph glyph-name="fraction" unicode="&#x2044;" horiz-adv-x="67" d="M90 667 L-102 0 L-23 0 L169 667 L90 667 Z " />
<glyph glyph-name="franc" unicode="&#x20a3;" horiz-adv-x="641" d="M315 667 L23 667 L23 0 L202 0 L202 261 L315 261 L315 406 L202 406 L202 522 L315 522 L315 667 Z M345 512 L345 0 L504 0 L504 383 C555 367 576 359 623 336 L635 509 C623 514 617 515 607 515 C561 515 534 497 504 446 L504 512 L345 512 Z " />
<glyph glyph-name="peseta" unicode="&#x20a7;" horiz-adv-x="789" d="M760 309 L635 309 C580 309 565 296 565 251 L565 180 C566 136 566 133 574 123 C581 114 593 110 618 110 L662 110 L662 78 L565 78 L565 0 L692 0 C736 1 739 2 753 15 C766 26 772 46 772 73 L772 115 C772 162 771 170 762 182 C752 196 734 202 701 202 L671 202 L671 231 L760 231 L760 309 Z M467 369 C460 284 435 252 371 248 L371 219 L397 219 L397 74 C397 19 415 0 469 0 L551 0 L551 78 L521 78 C508 78 504 82 504 96 L504 219 L551 219 L551 297 L504 297 L504 369 L467 369 Z M23 667 L23 0 L202 0 L202 261 L327 261 C393 261 406 264 425 281 C445 300 458 362 458 443 L458 493 C458 579 447 627 422 648 C406 661 372 667 312 667 L23 667 Z M202 406 L202 522 L227 522 C265 522 278 507 278 462 C278 419 267 406 232 406 L202 406 Z " />
<glyph glyph-name="Euro" unicode="&#x20ac;" horiz-adv-x="384" d="M247 424 L247 441 C247 489 248 497 260 509 C272 521 279 522 327 522 L359 522 L359 667 L245 667 C178 666 165 665 150 662 C111 654 89 630 78 585 C73 562 68 494 68 453 L68 424 L37 424 L21 355 L68 355 L68 326 L37 326 L21 257 L68 257 L68 240 C68 73 82 25 135 7 C152 2 157 1 245 0 L364 0 L364 145 L327 145 C279 145 272 146 260 158 C249 170 247 178 247 225 L247 257 L290 257 L306 326 L247 326 L247 355 L312 355 L328 424 L247 424 Z " />
<glyph glyph-name="afii61248" unicode="&#x2105;" horiz-adv-x="500" d="M252 404 C205 404 168 373 168 333 C168 295 205 263 250 263 C295 263 332 295 332 333 C332 372 296 404 252 404 L252 404 Z " />
<glyph glyph-name="trademark" unicode="&#x2122;" horiz-adv-x="666" d="M220 667 L15 667 L15 581 L63 581 L63 287 L172 287 L172 581 L220 581 L220 667 Z M233 667 L233 287 L342 287 L342 548 C342 568 349 577 362 577 C377 577 383 569 383 549 L383 287 L492 287 L492 543 C492 568 497 576 512 576 C526 576 531 568 531 543 L531 287 L640 287 L640 591 C640 653 626 667 567 667 C520 667 503 657 491 623 C481 659 466 667 416 667 C372 667 352 656 342 626 C341 637 339 645 333 667 L233 667 Z " />
<glyph glyph-name="uni2126" unicode="&#x2126;" horiz-adv-x="666" d="M28 0 L300 0 L300 132 C228 168 192 238 192 342 C192 454 252 538 334 538 C415 538 475 455 475 340 C475 240 437 167 367 132 L367 0 L639 0 L639 143 L513 143 C551 167 568 181 587 204 C623 247 643 305 643 370 C643 546 506 684 333 684 C161 684 24 545 24 371 C24 268 62 201 154 143 L28 143 L28 0 Z " />
<glyph glyph-name="partialdiff" unicode="&#x2202;" horiz-adv-x="500" d="M52 536 C204 523 288 480 328 395 C295 422 264 432 214 432 C100 432 14 342 14 223 C14 89 110 -8 244 -8 C394 -8 485 96 485 268 C485 391 445 485 362 556 C291 617 203 649 71 663 L52 536 Z M250 310 C298 310 336 269 336 216 C336 164 297 122 248 122 C200 122 160 164 160 216 C160 268 200 310 250 310 L250 310 Z " />
<glyph glyph-name="emptyset" unicode="&#x2205;" horiz-adv-x="618" d="M102 31 L174 -6 L233 110 C261 101 282 98 309 98 C450 98 563 211 563 350 C563 431 526 504 458 554 L499 636 L428 673 L385 590 C358 599 336 602 310 602 C170 602 56 489 56 350 C56 269 93 197 160 147 L102 31 Z M207 239 C175 271 159 307 159 350 C159 435 226 502 310 502 C320 502 327 501 339 498 L207 239 Z M411 462 C443 431 460 393 460 350 C460 265 393 198 309 198 C299 198 292 199 279 202 L411 462 Z " />
<glyph glyph-name="Delta" unicode="&#x2206;" horiz-adv-x="657" d="M9 0 L648 0 L413 667 L242 667 L9 0 Z M219 143 L329 493 L434 143 L219 143 Z " />
<glyph glyph-name="product" unicode="&#x220f;" horiz-adv-x="667" d="M16 750 L16 618 L89 618 L89 -118 L16 -118 L16 -250 L296 -250 L296 -118 L236 -118 L236 618 L431 618 L431 -118 L369 -118 L369 -250 L650 -250 L650 -118 L579 -118 L579 618 L650 618 L650 750 L16 750 Z " />
<glyph glyph-name="summation" unicode="&#x2211;" horiz-adv-x="667" d="M629 750 L34 750 L34 575 L263 264 L34 -75 L34 -250 L638 -250 L638 19 L481 19 L471 -98 L221 -98 L459 265 L219 598 L462 598 L480 487 L629 487 L629 750 Z " />
<glyph glyph-name="minus" unicode="&#x2212;" horiz-adv-x="500" d="M39 387 L39 280 L460 280 L460 387 L39 387 Z " />
<glyph glyph-name="uni2219" unicode="&#x2219;" horiz-adv-x="473" d="M239 330 C193 330 157 299 157 259 C157 221 193 189 237 189 C280 189 316 221 316 259 C316 298 281 330 239 330 L239 330 Z " />
<glyph glyph-name="radical" unicode="&#x221a;" horiz-adv-x="667" d="M667 827 L385 827 L291 446 C266 349 247 241 235 140 L226 140 C222 192 214 255 208 284 L185 381 L0 381 L0 244 L91 244 L144 0 L338 0 L506 690 L667 690 L667 827 Z " />
<glyph glyph-name="infinity" unicode="&#x221e;" horiz-adv-x="667" d="M336 265 C379 209 432 179 491 179 C583 179 649 246 649 339 C649 433 583 499 489 499 C429 499 373 469 331 414 C286 470 234 499 177 499 C84 499 17 432 17 339 C17 245 83 179 177 179 C236 179 288 207 336 265 L336 265 Z M389 339 C418 380 443 397 472 397 C506 397 532 372 532 339 C532 306 506 281 472 281 C442 281 419 298 389 339 L389 339 Z M277 339 C248 298 224 281 194 281 C160 281 134 306 134 339 C134 372 160 397 194 397 C224 397 249 380 277 339 L277 339 Z " />
<glyph glyph-name="integral" unicode="&#x222b;" horiz-adv-x="500" d="M30 -240 C59 -246 86 -249 119 -249 C241 -249 315 -193 334 -86 C339 -56 339 -55 339 90 L339 501 C339 538 340 548 344 559 C353 581 372 593 398 593 C413 593 424 591 443 583 L470 740 C427 748 406 750 377 750 C272 750 194 699 172 614 C161 573 161 573 161 415 L161 54 C161 -46 161 -46 156 -59 C148 -80 127 -93 101 -93 C87 -93 76 -91 57 -83 L30 -240 Z " />
<glyph glyph-name="approxequal" unicode="&#x2248;" horiz-adv-x="500" d="M92 348 C115 382 131 394 154 394 C169 394 189 388 224 374 C292 345 307 341 336 341 C408 341 451 380 493 484 L409 543 C383 507 371 498 345 498 C335 498 322 501 310 505 C205 547 189 552 162 552 C95 552 47 507 8 407 L92 348 Z M92 116 C115 150 131 162 154 162 C169 162 189 156 224 142 C292 113 307 109 336 109 C408 109 451 148 493 252 L409 311 C383 275 371 266 345 266 C335 266 322 269 310 273 C205 315 189 320 162 320 C95 320 47 275 8 175 L92 116 Z " />
<glyph glyph-name="notequal" unicode="&#x2260;" horiz-adv-x="500" d="M413 474 L441 514 L353 575 L282 474 L39 474 L39 367 L207 367 L161 300 L39 300 L39 193 L86 193 L58 153 L146 92 L217 193 L460 193 L460 300 L292 300 L338 367 L460 367 L460 474 L413 474 Z " />
<glyph glyph-name="lessequal" unicode="&#x2264;" horiz-adv-x="500" d="M466 662 L33 502 L33 356 L466 196 L466 359 L223 429 L466 499 L466 662 Z M466 170 L33 170 L33 17 L466 17 L466 170 Z " />
<glyph glyph-name="greaterequal" unicode="&#x2265;" horiz-adv-x="500" d="M33 196 L466 356 L466 502 L33 662 L33 499 L276 429 L33 359 L33 196 Z M33 17 L466 17 L466 170 L33 170 L33 17 Z " />
<glyph glyph-name="fi" unicode="&#xfb01;" horiz-adv-x="455" d="M260 667 L159 667 C76 667 50 638 50 546 L50 493 L14 493 L14 372 L50 372 L50 0 L209 0 L209 372 L260 372 L260 493 L209 493 L209 510 C209 536 219 546 244 546 L260 546 L260 667 Z M273 512 L273 0 L432 0 L432 512 L273 512 Z M273 667 L273 558 L432 558 L432 667 L273 667 Z " />
<glyph glyph-name="fl" unicode="&#xfb02;" horiz-adv-x="455" d="M260 667 L159 667 C76 667 50 638 50 546 L50 493 L14 493 L14 372 L50 372 L50 0 L209 0 L209 372 L260 372 L260 493 L209 493 L209 510 C209 536 219 546 244 546 L260 546 L260 667 Z M273 667 L273 0 L432 0 L432 667 L273 667 Z " />
</font>
</svg>
