<?xml version="1.0" standalone="no"?>
<!DOCTYPE svg PUBLIC "-//W3C//DTD SVG 1.1//EN" "http://www.w3.org/Graphics/SVG/1.1/DTD/svg11.dtd" >
<svg xmlns="http://www.w3.org/2000/svg">
<metadata>
Created by FontPrep 20130207 at Wed Sep 28 15:16:38 2016
 By Tina Muller
Copyright (c) 2016 by Typetype. Designers Ivan Gladkikh &#38; Olexa Volochay. All rights reserved.
</metadata>
<defs>
<font id="ccf10fe64429d06b517324e81f72a237" horiz-adv-x='1024' >
  <font-face 
    font-family="TTCorals-ThinBoldItalic"
    font-weight="300"
    font-style="italic"
    font-stretch="normal"
    units-per-em="2048"
    panose-1="2 0 8 6 2 0 0 9 0 3"
    ascent="1638"
    descent="-410"
    x-height="983"
    cap-height="1434"
    bbox="-170.528 -430 2314 1915"
    underline-thickness="102"
    underline-position="-102"
    unicode-range="U+000D-F6D4"
  />
<missing-glyph horiz-adv-x="0" 
 />
    <glyph glyph-name=".notdef" horiz-adv-x="0" 
 />
    <glyph glyph-name=".null" horiz-adv-x="0" 
 />
    <glyph glyph-name=".null" horiz-adv-x="0" 
 />
    <glyph glyph-name="nonmarkingreturn" horiz-adv-x="681" 
 />
    <glyph glyph-name="CR" unicode="&#xd;" horiz-adv-x="0" 
 />
    <glyph glyph-name="space" unicode=" " horiz-adv-x="348" 
 />
    <glyph glyph-name="exclam" unicode="!" horiz-adv-x="552" 
d="M113 0l16 123h123l-16 -123h-123zM340 901l-82 -512h-61l61 512l76 533h82z" />
    <glyph glyph-name="quotedbl" unicode="&#x22;" horiz-adv-x="634" 
d="M438 942l62 512h82l-82 -512h-62zM193 942l61 512h82l-82 -512h-61z" />
    <glyph glyph-name="numbersign" unicode="#" horiz-adv-x="1136" 
d="M496 901l-136 -369h277l133 369h-274zM53 532h226l133 369h-205l12 82h225l166 451h82l-164 -451h275l166 451h82l-166 -451h205l-13 -82h-225l-133 -369h205l-13 -81h-225l-164 -451h-82l164 451h-276l-164 -451h-82l164 451h-205z" />
    <glyph glyph-name="dollar" unicode="$" 
d="M428 61q143 0 248 86q104 85 120 201t-44 190q-58 74 -152 114q-94 42 -187 86t-152 123q-58 79 -42 198q17 119 117 208t235 105l35 246h82l-35 -246q120 -13 195 -74t94 -94l12 -16l-67 -51q-63 95 -182 137q-49 16 -105 16q-121 0 -203 -66t-96 -169
q-19 -133 105 -210q54 -34 122 -65q68 -30 136 -64t120 -78q118 -99 95 -280q-21 -145 -143 -254t-279 -124l-35 -246h-82l35 246q-138 12 -226 90t-116 131l-13 24l68 51q68 -137 210 -191q60 -24 130 -24z" />
    <glyph glyph-name="percent" unicode="%" horiz-adv-x="1320" 
d="M960 573q-74 0 -127 -62q-55 -61 -73 -193t18 -194t111 -62q74 0 127 62t71 193t-17 194q-36 62 -110 62zM877 -20q-106 0 -164 88q-57 88 -33 250t104 249q82 88 188 88t162 -88q58 -88 35 -250q-23 -161 -105 -249t-187 -88zM113 0l999 1434h92l-999 -1434h-92z
M428 1372q-74 0 -128 -62t-73 -194q-18 -131 19 -193t110 -63q162 0 199 256q18 131 -17 194q-36 62 -110 62zM439 1454q105 0 163 -88t34 -250q-22 -162 -104 -250t-187 -88t-164 88t-36 250q25 162 107 250t187 88z" />
    <glyph glyph-name="ampersand" unicode="&#x26;" horiz-adv-x="1198" 
d="M578 1290q-70 0 -118 -49t-58 -127q-11 -78 11 -144q22 -67 46 -104l24 -37q124 62 191 183q27 50 37 118t-26 114q-37 46 -107 46zM416 61q137 0 228 68t114 107l14 20l-321 481q-93 -37 -185 -129q-39 -40 -76 -104t-47 -135q-20 -137 58 -223t215 -85zM591 1372
q101 0 159 -72t42 -180q-15 -108 -82 -195t-124 -122l-60 -35l289 -430q78 123 121 430h82q-23 -156 -63 -281t-70 -172l-29 -49l178 -266h-92l-127 195q-66 -88 -147 -141q-43 -28 -112 -52t-140 -22q-182 0 -281 109q-98 110 -74 280q13 85 53 159t88 121q106 104 175 133
l31 17q-12 14 -31 41q-18 26 -44 104t-16 152q17 128 95 202t179 74z" />
    <glyph glyph-name="quotesingle" unicode="'" horiz-adv-x="389" 
d="M193 942l61 512h82l-82 -512h-61z" />
    <glyph glyph-name="parenleft" unicode="(" horiz-adv-x="665" 
d="M684 1597l-10 -81q-62 0 -116 -34t-110 -118q-117 -174 -184 -647q-29 -246 -32 -402q-3 -155 32 -243t78 -121t107 -33l-13 -82q-379 0 -254 881q71 508 208 694t294 186z" />
    <glyph glyph-name="parenright" unicode=")" horiz-adv-x="665" 
d="M213 1516l10 81q377 -1 254 -881t-502 -880l13 82q297 0 409 799q29 245 32 401t-32 244t-78 121t-106 33z" />
    <glyph glyph-name="asterisk" unicode="*" horiz-adv-x="839" 
d="M184 1249l262 -112l31 297h82l-51 -297l291 112l20 -82l-301 -92l170 -246l-67 -51l-158 266l-232 -266l-55 51l240 246l-273 92z" />
    <glyph glyph-name="plus" unicode="+" horiz-adv-x="737" 
d="M70 645l10 82h246l39 266h81l-38 -266h245l-10 -82h-246l-37 -266h-81l36 266h-245z" />
    <glyph glyph-name="comma" unicode="," horiz-adv-x="348" 
d="M72 0h-62l17 123h123l-13 -92q-8 -49 -41 -83t-63 -42l-29 -8l-4 30q64 21 72 72z" />
    <glyph glyph-name="hyphen" unicode="-" horiz-adv-x="614" 
d="M70 645l10 82h450l-10 -82h-450z" />
    <glyph glyph-name="period" unicode="." horiz-adv-x="348" 
d="M10 0l17 123h123l-17 -123h-123z" />
    <glyph glyph-name="slash" unicode="/" horiz-adv-x="675" 
d="M694 1454l-671 -1720h-82l671 1720h82z" />
    <glyph glyph-name="zero" unicode="0" horiz-adv-x="1167" 
d="M489 61q147 0 276 154q128 154 171 461t-42 461q-85 153 -232 153t-280 -154q-132 -155 -175 -460t46 -460t236 -155zM674 1372q180 0 290 -180t62 -516t-208 -516q-161 -180 -341 -180t-290 180q-109 180 -62 516t208 516t341 180z" />
    <glyph glyph-name="one" unicode="1" horiz-adv-x="604" 
d="M358 1167q-82 -61 -184 -61l10 72q118 0 183 89q27 36 36 85h72l-188 -1352h-82l164 1167h-11z" />
    <glyph glyph-name="two" unicode="2" horiz-adv-x="1075" 
d="M610 1290q-138 0 -246 -93t-126 -224q-8 -68 11 -129t42 -90l24 -27l-57 -51q-14 12 -35 34q-20 22 -50 100t-17 163q22 163 160 281t308 118t272 -122t75 -308t-172 -352q-145 -164 -398 -344l-215 -154l-2 -10h645l-10 -82h-778l10 82l342 246q242 174 358 307t138 297
t-60 262q-82 96 -219 96z" />
    <glyph glyph-name="three" unicode="3" horiz-adv-x="1044" 
d="M508 778q121 0 209 74t103 182t-52 183q-68 73 -188 73t-209 -74q-88 -74 -101 -164q-13 -91 11 -141l-68 -51q-16 25 -26 75q-9 50 -3 99q20 138 138 238t270 100t241 -99t68 -239q-8 -66 -39 -121t-84 -101t-110 -62l-25 -9v-8q34 -7 82 -38q47 -31 78 -67t50 -103
t9 -146q-23 -162 -161 -281t-306 -118q-85 0 -151 28t-102 69q-75 83 -89 150l-8 29l84 20q2 -8 5 -22q2 -14 22 -52t47 -66t81 -52t124 -23q138 -1 246 93t126 225q16 131 -65 224q-82 93 -219 93h-82l12 82h82z" />
    <glyph glyph-name="four" unicode="4" horiz-adv-x="1013" 
d="M133 440l-2 -10h481l107 758h-10zM39 430l702 922h82l-129 -922h215l-12 -82h-215l-47 -348h-82l47 348h-573z" />
    <glyph glyph-name="five" unicode="5" horiz-adv-x="1034" 
d="M541 860q172 0 272 -125q99 -125 73 -315t-164 -316t-316 -124q-84 0 -151 28t-103 69q-72 81 -91 150l-6 29l84 20q2 -8 5 -22q2 -14 22 -52t47 -66t81 -52t124 -23q147 -1 257 99t130 260q23 160 -59 259t-217 99q-136 0 -210 -55q-75 -55 -98 -92l-12 -17l-70 21
l172 717h594l-10 -82h-522l-125 -522h10q40 40 123 76q82 36 160 36z" />
    <glyph glyph-name="six" unicode="6" horiz-adv-x="1085" 
d="M459 61q147 -1 257 101t132 268q23 166 -58 267q-80 101 -228 101t-258 -100q-110 -102 -132 -268t58 -268q82 -102 229 -101zM441 -20q-183 0 -280 129t-65 362l29 205q47 336 208 516t341 180q114 0 187 -61t93 -103l11 -20l-78 -41q-5 15 -39 58t-87 64q-54 21 -99 21
q-147 0 -280 -150q-132 -151 -173 -444h10l15 20q10 12 46 45q134 117 305 119q171 1 271 -126t74 -324t-166 -324q-140 -126 -323 -126z" />
    <glyph glyph-name="seven" unicode="7" horiz-adv-x="931" 
d="M967 1352l-11 -82q-75 -87 -173 -228q-97 -141 -173 -281t-156 -349t-116 -412h-92q39 200 118 404t202 424t245 372l51 60l2 10h-624l-35 -246h-82l45 328h799z" />
    <glyph glyph-name="eight" unicode="8" horiz-adv-x="1085" 
d="M547 758q121 0 214 79t109 187t-56 188q-72 78 -194 78q-120 0 -214 -78t-109 -188t57 -188t193 -78zM535 676q-137 0 -246 -91t-125 -216t66 -216t218 -91q138 0 246 90q108 92 125 217q16 125 -65 216q-82 91 -219 91zM633 1372q152 0 245 -104t74 -244
q-14 -100 -79 -174t-121 -98l-58 -25v-10q158 -63 199 -210q18 -65 8 -138q-23 -156 -160 -273q-137 -116 -305 -116t-272 116t-82 273q10 74 45 137t78 100q91 78 155 101l27 10v10q-22 6 -63 35q-40 30 -64 60t-38 84q-15 54 -7 118q18 140 142 244t276 104z" />
    <glyph glyph-name="nine" unicode="9" horiz-adv-x="1085" 
d="M610 1290q-147 0 -257 -101q-109 -101 -133 -267t58 -268t228 -101q147 0 257 101q109 102 133 268t-57 267q-82 101 -229 101zM628 1372q183 0 280 -129t65 -362l-29 -205q-47 -336 -208 -516t-341 -180q-114 0 -187 62t-93 101l-11 21l78 41q6 -18 28 -46
q76 -95 208 -97q131 -1 258 138q63 68 112 186t70 269h-10l-15 -20q-9 -12 -45 -44q-133 -120 -304 -120t-272 127t-73 324q27 198 167 324t322 126z" />
    <glyph glyph-name="colon" unicode=":" horiz-adv-x="348" 
d="M131 870l16 123h123l-16 -123h-123zM10 0l17 123h123l-17 -123h-123z" />
    <glyph glyph-name="semicolon" unicode=";" horiz-adv-x="348" 
d="M131 870l16 123h123l-16 -123h-123zM72 0h-62l17 123h123l-13 -92q-8 -49 -41 -83t-63 -42l-29 -8l-4 30q64 21 72 72z" />
    <glyph glyph-name="less" unicode="&#x3c;" horiz-adv-x="696" 
d="M551 287l-10 -82l-486 338l8 61l580 338l-10 -82l-502 -287z" />
    <glyph glyph-name="equal" unicode="=" horiz-adv-x="686" 
d="M51 512l10 82h523l-11 -82h-522zM88 778l12 82h523l-13 -82h-522z" />
    <glyph glyph-name="greater" unicode="&#x3e;" horiz-adv-x="696" 
d="M8 205l10 82l502 286l-420 287l11 82l485 -338l-8 -61z" />
    <glyph glyph-name="question" unicode="?" horiz-adv-x="1024" 
d="M276 0l17 123h123l-17 -123h-123zM592 1372q-137 0 -246 -93t-127 -224h-82q23 163 160 281t305 118t272 -119t82 -281t-160 -280q-138 -119 -307 -119h-20l-47 -266h-62l41 359q39 -10 101 -11q137 0 246 93q108 92 126 224t-63 225q-82 93 -219 93z" />
    <glyph glyph-name="at" unicode="@" horiz-adv-x="1607" 
d="M774 420q54 0 102 28t68 56l21 28l51 369q-2 4 -5 12q-23 61 -89 88q-29 12 -64 13q-90 0 -164 -79t-93 -218t32 -218t141 -79zM916 1372q-254 0 -448 -180t-236 -475t102 -475t401 -181q97 0 185 26t129 52l38 25l43 -62q-54 -42 -178 -83q-124 -40 -229 -39
q-289 0 -454 206t-117 531q45 325 267 531t507 206q284 0 440 -192t113 -504q-29 -203 -123 -312t-203 -108q-49 0 -90 22t-55 46l-17 24h-10q-9 -10 -27 -26t-74 -40q-56 -26 -116 -26q-121 0 -195 104t-49 274t127 275q102 104 223 105q45 0 84 -18t54 -36l16 -18h10l6 51
h82l-80 -573q4 -8 12 -22t38 -38q31 -23 71 -22q78 0 144 83t90 255q39 282 -94 448t-387 166z" />
    <glyph glyph-name="A" unicode="A" horiz-adv-x="1198" 
d="M676 1321l-410 -870h584l-164 870h-10zM743 1434l281 -1434h-82l-72 369h-645l-174 -369h-82l682 1434h92z" />
    <glyph glyph-name="B" unicode="B" horiz-adv-x="1259" 
d="M680 840q134 0 226 74t109 193q17 121 -63 193t-264 72t-274 -31l-33 -10l-70 -491h369zM700 758h-399l-96 -676h399q174 0 284 91q109 91 132 247q22 156 -62 247t-258 91zM594 0h-481l194 1393q151 61 379 61t330 -98t80 -250q-20 -150 -159 -248q-32 -23 -52 -31
l-23 -8l-2 -10q36 -6 90 -39q55 -33 88 -72q32 -38 54 -112t10 -166q-27 -186 -165 -303t-343 -117z" />
    <glyph glyph-name="C" unicode="C" horiz-adv-x="1228" 
d="M807 1454q79 0 147 -24t133 -74q65 -51 97 -103l12 -24l-70 -51q-32 64 -111 126q-34 26 -93 48t-125 20q-203 0 -372 -177t-212 -478t77 -478t312 -177t357 151q38 35 57 59l18 25l53 -51q-8 -10 -22 -28q-13 -18 -63 -65q-50 -46 -103 -81t-134 -64t-165 -28
q-233 0 -375 202q-141 203 -94 535q45 333 244 535t432 202z" />
    <glyph glyph-name="D" unicode="D" horiz-adv-x="1290" 
d="M653 1372q-172 0 -245 -31l-27 -10l-176 -1249h287q208 0 374 170t208 469t-81 475t-340 176zM675 1454q237 0 381 -202t99 -532t-240 -524q-195 -196 -434 -196h-368l194 1393q131 61 368 61z" />
    <glyph glyph-name="E" unicode="E" 
d="M113 0l200 1434h727l-12 -82h-645l-51 -369h563l-12 -82h-564l-114 -819h686l-10 -82h-768z" />
    <glyph glyph-name="F" unicode="F" horiz-adv-x="1003" 
d="M113 0l200 1434h727l-12 -82h-645l-51 -369h502l-13 -82h-502l-124 -901h-82z" />
    <glyph glyph-name="G" unicode="G" horiz-adv-x="1331" 
d="M807 1454q79 0 147 -24t133 -74q65 -51 97 -103l12 -24l-70 -51q-32 64 -111 126q-34 26 -93 48t-125 20q-203 0 -372 -177t-212 -478t77 -478t322 -178q159 0 310 119q33 27 49 45l14 21l53 368h-379l11 82h460l-96 -696h-82l17 123h-11q-14 -16 -43 -40t-121 -64
t-194 -39q-233 0 -375 202q-141 203 -94 535q45 333 244 535t432 202z" />
    <glyph glyph-name="H" unicode="H" horiz-adv-x="1372" 
d="M395 1434l-63 -451h778l64 451h81l-200 -1434h-82l125 901h-779l-124 -901h-82l200 1434h82z" />
    <glyph glyph-name="I" unicode="I" horiz-adv-x="512" 
d="M395 1434l-200 -1434h-82l200 1434h82z" />
    <glyph glyph-name="J" unicode="J" horiz-adv-x="665" 
d="M0 0l10 82q139 0 213 68t94 219l150 1065h82l-150 -1065q-51 -369 -399 -369z" />
    <glyph glyph-name="K" unicode="K" horiz-adv-x="1146" 
d="M922 0l-400 737l-266 -286l-61 -451h-82l200 1434h82l-119 -850l775 850h102l-569 -625l440 -809h-102z" />
    <glyph glyph-name="L" unicode="L" horiz-adv-x="1003" 
d="M113 0l200 1434h82l-190 -1352h645l-10 -82h-727z" />
    <glyph glyph-name="M" unicode="M" horiz-adv-x="1525" 
d="M1409 1434l-201 -1434h-82l174 1239h-10l-536 -829h-72l-303 829h-10l-174 -1239h-82l200 1434h82l332 -912h10l590 912h82z" />
    <glyph glyph-name="N" unicode="N" horiz-adv-x="1392" 
d="M993 0l-612 1260h-10l-176 -1260h-82l200 1434h82l611 -1260h10l178 1260h82l-201 -1434h-82z" />
    <glyph glyph-name="O" unicode="O" horiz-adv-x="1413" 
d="M796 1372q-202 0 -371 -177t-212 -478t77 -478t322 -177t372 176q169 178 212 479t-77 478q-121 177 -323 177zM807 1454q233 0 375 -203t95 -535q-46 -332 -245 -534t-432 -202t-375 202q-141 203 -94 535q45 333 244 535t432 202z" />
    <glyph glyph-name="P" unicode="P" horiz-adv-x="1300" 
d="M594 512q205 0 349 122t171 309t-87 308t-315 121t-296 -31l-35 -10l-115 -819h328zM707 1454q248 0 384 -146t105 -364t-205 -366q-174 -147 -409 -148h-328l-59 -430h-82l194 1393q152 61 400 61z" />
    <glyph glyph-name="Q" unicode="Q" horiz-adv-x="1413" 
d="M796 1372q-202 0 -371 -177t-212 -478t77 -478t322 -178q78 0 153 28t112 56l36 29q0 10 -12 28q-41 64 -137 64l31 82q67 0 115 -29t61 -57l14 -26q108 108 171 305q28 84 40 176q43 301 -77 478q-121 177 -323 177zM807 1454q233 0 375 -203t96 -534
q-41 -281 -194 -476q-36 -46 -58 -67l-22 -20q0 -26 38 -59q38 -32 113 -34l-33 -81q-68 0 -114 28t-62 58l-12 26q-55 -41 -154 -77q-98 -36 -180 -35q-233 0 -375 202q-141 203 -94 535q45 333 244 535t432 202z" />
    <glyph glyph-name="R" unicode="R" horiz-adv-x="1320" 
d="M653 573q190 0 327 114q136 114 159 286q25 171 -83 285t-317 114t-319 -31l-39 -10l-107 -758h379zM756 1454q233 0 363 -139t102 -342q-15 -98 -61 -181t-102 -130q-119 -100 -202 -127l-37 -13v-10l266 -512h-92l-250 492h-481l-67 -492h-82l194 1393q162 61 449 61z
" />
    <glyph glyph-name="S" unicode="S" horiz-adv-x="1105" 
d="M633 1372q-129 0 -218 -73t-103 -170q-26 -172 151 -247q207 -87 322 -159q73 -45 114 -133t25 -211q-23 -164 -164 -282q-142 -117 -324 -117q-84 0 -156 28t-118 66q-98 85 -125 143l-14 29l69 51q13 -32 48 -77q36 -46 73 -77t100 -57t136 -25q151 1 263 93t129 219
t-45 207t-162 124t-198 88q-100 44 -163 123q-62 80 -44 211q19 132 137 230t284 98t297 -132q30 -30 44 -52l13 -21l-68 -51q-116 174 -303 174z" />
    <glyph glyph-name="T" unicode="T" horiz-adv-x="962" 
d="M608 1352l-188 -1352h-82l188 1352h-379l13 82h839l-12 -82h-379z" />
    <glyph glyph-name="U" unicode="U" horiz-adv-x="1372" 
d="M580 -20q-208 0 -321 137q-112 137 -79 364l133 953h82l-133 -953q-28 -197 62 -309t268 -111t298 111t150 309l134 953h81l-133 -953q-34 -229 -184 -365t-358 -136z" />
    <glyph glyph-name="V" unicode="V" horiz-adv-x="1157" 
d="M430 0l-260 1434h82l235 -1311h11l604 1311h82l-662 -1434h-92z" />
    <glyph glyph-name="W" unicode="W" horiz-adv-x="1740" 
d="M1014 0l-135 758h-9l-348 -758h-92l-260 1434h82l235 -1311h11l354 768l-98 543h82l71 -410h8l187 410h82l-250 -543l137 -768h10l605 1311h81l-661 -1434h-92z" />
    <glyph glyph-name="X" unicode="X" horiz-adv-x="1105" 
d="M850 0l-303 666h-8l-488 -666h-92l555 748l-313 686h92l268 -605h8l441 605h92l-506 -686l346 -748h-92z" />
    <glyph glyph-name="Y" unicode="Y" 
d="M549 829l471 605h92l-537 -686l-104 -748h-82l105 748l-344 686h92l299 -605h8z" />
    <glyph glyph-name="Z" unicode="Z" 
d="M967 1352h-738l13 82h839l-12 -82l-975 -1260l-2 -10h799l-10 -82h-901l10 82l977 1259v11z" />
    <glyph glyph-name="bracketleft" unicode="[" horiz-adv-x="614" 
d="M78 -164l248 1761h307l-10 -81h-226l-225 -1598h225l-12 -82h-307z" />
    <glyph glyph-name="backslash" unicode="\" horiz-adv-x="675" 
d="M371 -266l-189 1720h82l189 -1720h-82z" />
    <glyph glyph-name="bracketright" unicode="]" horiz-adv-x="614" 
d="M530 1597l-247 -1761h-308l13 82h225l225 1598h-225l10 81h307z" />
    <glyph glyph-name="asciicircum" unicode="^" horiz-adv-x="819" 
d="M549 1434l196 -646h-81l-168 553l-324 -553h-82l377 646h82z" />
    <glyph glyph-name="underscore" unicode="_" horiz-adv-x="624" 
d="M-137 -256l12 82h623l-13 -82h-622z" />
    <glyph glyph-name="grave" unicode="`" horiz-adv-x="348" 
d="M244 1444l108 -236h-61l-129 236h82z" />
    <glyph glyph-name="a" unicode="a" horiz-adv-x="972" 
d="M390 61q124 0 218 86q26 23 43 48l84 593q-4 11 -25 41q-64 90 -193 92q-130 1 -234 -112t-133 -317q-28 -204 44 -318q72 -113 196 -113zM647 92h-10q-41 -41 -118 -77t-144 -35q-154 0 -247 138t-60 374q36 236 166 374t284 138q62 0 118 -26t81 -52l22 -25h11l12 82
h82l-111 -788q-8 -55 -8 -166l2 -29h-82z" />
    <glyph glyph-name="b" unicode="b" horiz-adv-x="972" 
d="M513 922q-126 0 -216 -86q-26 -23 -43 -48l-92 -655q20 -27 81 -49q60 -22 124 -23q145 0 251 112t136 318q30 207 -43 319q-72 112 -198 112zM528 1004q156 0 248 -138t60 -376q-32 -236 -169 -373q-136 -137 -313 -137q-82 0 -152 26t-100 51l-30 25l190 1352h82
l-76 -533h11q37 37 111 70q75 33 138 33z" />
    <glyph glyph-name="c" unicode="c" horiz-adv-x="880" 
d="M408 61q82 0 150 38t97 77l29 39l55 -51l-15 -20t-43 -45q-126 -119 -290 -119t-260 137t-63 375q35 238 169 374t302 138q85 0 155 -39t97 -76l24 -39l-70 -51q-60 120 -217 123q-137 0 -243 -112t-135 -318t46 -319q75 -112 212 -112z" />
    <glyph glyph-name="d" unicode="d" horiz-adv-x="972" 
d="M390 61q124 0 218 86q26 23 43 48l84 593q-4 11 -25 41q-64 90 -193 92q-130 1 -234 -112t-133 -317q-28 -204 44 -318q72 -113 196 -113zM635 82h-10q-36 -36 -112 -70q-75 -33 -138 -32q-154 0 -247 138t-60 374q36 236 166 374t284 138q62 0 118 -26t81 -52l22 -25h11
l75 533h82l-200 -1434h-82z" />
    <glyph glyph-name="e" unicode="e" horiz-adv-x="954" 
d="M505 922q-116 0 -211 -92t-132 -257h583q14 157 -55 253t-185 96zM408 61q82 0 150 38t97 77l29 39l55 -51l-15 -20t-43 -45q-126 -119 -290 -119t-260 137t-63 377q34 240 164 374t286 136q156 0 244 -135t55 -377h-667q-29 -207 46 -319t212 -112z" />
    <glyph glyph-name="f" unicode="f" horiz-adv-x="532" 
d="M426 1434h102l-12 -82h-92q-51 -1 -57 -52l-45 -317h143l-12 -82h-144l-125 -901h-82l125 901h-123l13 82h123l45 328q8 53 48 88t93 35z" />
    <glyph glyph-name="g" unicode="g" horiz-adv-x="962" 
d="M284 814q-103 -108 -132 -312t44 -313q73 -107 198 -107t216 86q25 22 43 47l82 573q-4 11 -25 41q-66 93 -194 93q-129 0 -232 -108zM348 -287q-82 0 -152 26t-102 52l-28 25l61 71q35 -35 101 -63q66 -29 130 -29q109 0 183 66t88 180l10 61h-10q-34 -34 -111 -68
q-76 -34 -139 -34q-156 0 -249 134t-60 368t162 367q130 134 286 135q62 0 118 -26t81 -52l22 -25h11l12 82h82l-133 -942q-20 -145 -122 -237t-241 -91z" />
    <glyph glyph-name="h" unicode="h" horiz-adv-x="942" 
d="M518 1004q131 0 207 -92t55 -236l-94 -676h-82l94 676q14 114 -39 180t-167 66t-205 -86q-26 -23 -43 -48l-111 -788h-82l201 1434h82l-76 -533h10q36 36 112 70q75 33 138 33z" />
    <glyph glyph-name="i" unicode="i" horiz-adv-x="389" 
d="M227 1331l15 103h102l-14 -103h-103zM51 0l137 983h82l-137 -983h-82z" />
    <glyph glyph-name="j" unicode="j" horiz-adv-x="399" 
d="M227 1331l15 103h102l-14 -103h-103zM-29 -266h-30l-9 82h41q52 0 58 51l157 1116h82l-157 -1126q-8 -53 -48 -88t-94 -35z" />
    <glyph glyph-name="k" unicode="k" horiz-adv-x="860" 
d="M635 0l-281 492l-168 -175l-43 -317h-82l201 1434h82l-139 -994h10l516 543h103l-410 -430l313 -553h-102z" />
    <glyph glyph-name="l" unicode="l" horiz-adv-x="450" 
d="M205 82h41l-31 -82h-31q-53 0 -84 35t-22 88l184 1311h82l-182 -1301q-6 -51 43 -51z" />
    <glyph glyph-name="m" unicode="m" horiz-adv-x="1351" 
d="M484 1004q104 0 154 -49t67 -95h8q12 16 32 40q21 24 89 64t135 40q117 0 181 -79t46 -208l-100 -717h-82l100 717q14 98 -30 151q-44 54 -144 54t-177 -86q-19 -20 -30 -33l-8 -15l-111 -788h-82l101 717q14 98 -30 151q-44 54 -144 54q-126 1 -215 -134l-111 -788h-82
l137 983h82l-12 -82h10q29 35 97 69q67 34 119 34z" />
    <glyph glyph-name="n" unicode="n" horiz-adv-x="942" 
d="M518 1004q131 0 207 -92t55 -236l-94 -676h-82l94 676q14 114 -39 180t-167 66t-205 -86q-26 -23 -43 -48l-111 -788h-82l137 983h82l-12 -82h10q36 36 112 70q75 33 138 33z" />
    <glyph glyph-name="o" unicode="o" horiz-adv-x="1003" 
d="M408 61q137 0 242 112t134 319q29 206 -45 318t-211 112t-243 -112t-135 -318q-29 -207 46 -319t212 -112zM395 -20q-168 0 -264 137t-63 375q35 238 169 374t303 138q169 0 265 -138t62 -374q-34 -238 -169 -375t-303 -137z" />
    <glyph glyph-name="p" unicode="p" horiz-adv-x="962" 
d="M503 922q-126 0 -216 -86q-26 -23 -43 -48l-84 -593q4 -11 33 -52t84 -61t100 -21q131 0 234 113t132 318q29 206 -43 318t-197 112zM518 1004q156 0 248 -138t59 -374t-163 -374t-287 -138q-63 0 -119 26t-80 51l-22 25h-11l-49 -348h-82l176 1249h82l-12 -82h10
q36 36 112 70q75 33 138 33z" />
    <glyph glyph-name="q" unicode="q" horiz-adv-x="962" 
d="M194 174q73 -113 196 -113t218 86q26 23 43 48l84 593q-4 11 -25 41q-66 93 -194 93q-129 0 -233 -113t-133 -317t44 -318zM739 901h11l12 82h82l-176 -1249h-82l49 348h-10q-36 -36 -112 -70q-75 -33 -138 -32q-154 0 -247 138t-60 374q36 236 166 374t284 138
q62 0 118 -26t81 -52z" />
    <glyph glyph-name="r" unicode="r" horiz-adv-x="624" 
d="M432 922q-45 0 -93 -33t-73 -66l-22 -35l-111 -788h-82l137 983h82l-12 -82h10q24 36 82 70q58 33 110 33t94 -29t56 -57l17 -27l-70 -51l-11 22q-7 14 -38 37t-76 23z" />
    <glyph glyph-name="s" unicode="s" horiz-adv-x="798" 
d="M402 1004q100 0 170 -39t96 -76l24 -39l-69 -51q-61 121 -236 123q-63 0 -121 -45t-67 -112q-10 -67 37 -114q48 -47 118 -76t141 -61t115 -98q44 -64 28 -168t-116 -186t-228 -82t-199 60t-95 103l-8 21l67 51q4 -13 27 -47q70 -105 219 -107q98 -1 170 57t82 136
q18 137 -151 208q-72 30 -143 62t-115 93t-30 153t99 163t185 71z" />
    <glyph glyph-name="t" unicode="t" horiz-adv-x="552" 
d="M246 82h112l-10 -82h-123q-53 0 -84 35t-22 88l108 778h-123l13 82h123l34 246l88 41l-40 -287h143l-12 -82h-144l-106 -768q-6 -51 43 -51z" />
    <glyph glyph-name="u" unicode="u" horiz-adv-x="942" 
d="M381 61q113 0 207 86q26 23 43 48l110 788h82l-137 -983h-82l10 82h-10q-36 -36 -112 -70q-75 -33 -138 -32q-133 0 -207 92t-53 235l94 676h82l-94 -676q-16 -115 38 -181t167 -65z" />
    <glyph glyph-name="v" unicode="v" horiz-adv-x="808" 
d="M168 983l149 -829h11l383 829h82l-455 -983h-72l-180 983h82z" />
    <glyph glyph-name="w" unicode="w" horiz-adv-x="1126" 
d="M547 983l121 -819h10l350 819h82l-424 -983h-72l-77 512h-9l-221 -512h-71l-150 983h82l121 -819h10l213 502l-47 317h82z" />
    <glyph glyph-name="x" unicode="x" horiz-adv-x="778" 
d="M31 0h-92l368 512l-211 471h94l175 -399h8l284 399h95l-342 -471l225 -512h-92l-191 440h-8z" />
    <glyph glyph-name="y" unicode="y" horiz-adv-x="778" 
d="M115 -266h-62l13 82h51q51 0 80 61l59 133l-170 973h82l139 -829h10l363 829h82l-483 -1106q-33 -75 -72 -109t-92 -34z" />
    <glyph glyph-name="z" unicode="z" horiz-adv-x="727" 
d="M575 901h-440l12 82h543l-10 -72l-596 -819l-2 -10h481l-10 -82h-584l8 72l598 819v10z" />
    <glyph glyph-name="braceleft" unicode="{" horiz-adv-x="624" 
d="M367 -82h41l-13 -82h-41q-116 0 -158 49t-26 166l70 492q10 85 -10 109t-105 24h-10l12 82h10q84 0 112 24t40 109l67 491q16 115 74 165t172 50h41l-10 -81h-41q-84 0 -113 -25t-41 -109l-67 -491q-15 -107 -75 -154q-9 -7 -32 -16l-2 -8q8 -1 22 -9t30 -50t8 -111
l-70 -492q-12 -85 10 -109t105 -24z" />
    <glyph glyph-name="bar" unicode="|" horiz-adv-x="512" 
d="M74 -266l241 1720h82l-241 -1720h-82z" />
    <glyph glyph-name="braceright" unicode="}" horiz-adv-x="624" 
d="M254 1516h-41l10 81h41q115 0 158 -50t27 -165l-68 -491q-13 -84 9 -109t106 -24h10l-12 -82h-11q-85 0 -113 -25t-38 -108l-70 -492q-16 -117 -74 -166t-172 -49h-41l13 82h41q83 0 111 24t40 109l70 492q13 93 42 125t62 45l2 8q-8 2 -21 9t-30 50q-16 43 -6 111
l68 491q11 84 -9 109t-104 25z" />
    <glyph glyph-name="asciitilde" unicode="~" horiz-adv-x="778" 
d="M264 696q45 0 120 -51t113 -51q37 0 69 26t48 52l15 24l57 -30q-4 -6 -10 -16t-35 -51q-29 -40 -74 -64q-45 -23 -89 -23t-120 51t-114 51t-69 -26q-32 -26 -48 -51l-14 -25l-58 31q51 76 75 98q24 23 56 39t78 16z" />
    <glyph glyph-name="nbspace" unicode="&#xa0;" horiz-adv-x="348" 
 />
    <glyph glyph-name="exclamdown" unicode="&#xa1;" horiz-adv-x="552" 
d="M373 983l-17 -123h-123l17 123h123zM156 164l69 430h62l-49 -430l-76 -533h-82z" />
    <glyph glyph-name="cent" unicode="&#xa2;" horiz-adv-x="880" 
d="M408 61q82 0 150 38t97 77l29 39l55 -51q-12 -18 -37 -46q-26 -28 -104 -79t-162 -59l-35 -246h-82l35 246q-145 16 -232 151t-54 361t155 360q123 135 275 152l34 247h82l-34 -247q114 -15 199 -105q20 -21 36 -49l-70 -51q-60 120 -217 123q-137 0 -243 -112t-135 -318
t46 -319q75 -112 212 -112z" />
    <glyph glyph-name="sterling" unicode="&#xa3;" horiz-adv-x="1013" 
d="M664 1372q78 0 144 -39t93 -76l27 -38l-68 -52q-8 15 -22 35t-68 54t-119 34q-227 0 -264 -276l-33 -236h404l-13 -82h-403l-59 -430q-8 -59 -32 -102t-44 -58l-21 -14l-2 -10h676l-10 -82h-840l10 82h62q10 6 28 18q17 12 50 60t41 106l59 430h-154l13 82h153l33 236
q25 172 121 265t238 93z" />
    <glyph glyph-name="currency" unicode="&#xa4;" horiz-adv-x="1239" 
d="M594 512q190 0 320 108t153 281q25 172 -79 281t-306 108q-156 0 -258 -30l-35 -11l-102 -737h307zM698 1372q228 0 354 -134t97 -337t-187 -337t-380 -134h-308l-20 -143h522l-10 -82h-522l-29 -205h-82l29 205h-154l10 82h154l21 143h-154l12 82h154l112 801
q152 59 381 59z" />
    <glyph glyph-name="yen" unicode="&#xa5;" horiz-adv-x="1024" 
d="M229 1352l285 -574h8l445 574h92l-512 -656l-23 -164h226l-13 -81h-225l-23 -164h226l-10 -82h-226l-28 -205h-82l28 205h-225l10 82h226l22 164h-225l12 81h225l23 164l-328 656h92z" />
    <glyph glyph-name="brokenbar" unicode="&#xa6;" horiz-adv-x="512" 
d="M213 717l102 737h82l-102 -737h-82zM74 -266l104 737h82l-104 -737h-82z" />
    <glyph glyph-name="section" unicode="&#xa7;" horiz-adv-x="942" 
d="M768 1249q-62 123 -236 123q-64 0 -120 -45q-58 -45 -68 -113t36 -120q46 -51 116 -86t140 -73t114 -106q43 -68 29 -165t-71 -161q-58 -64 -98 -83v-10q30 -23 51 -79t13 -116q-12 -95 -99 -165t-201 -70t-183 55q-68 55 -80 84l-11 14l68 51q62 -120 238 -122
q64 0 120 44q56 45 66 114t-35 120t-116 86t-141 73q-70 37 -113 105q-44 68 -31 164t70 159q56 63 100 87l2 10q-10 6 -24 20t-32 64t-10 111q14 95 100 165t186 70t169 -39q70 -39 94 -76l27 -39zM383 983q-124 -62 -143 -215q-10 -68 28 -124t85 -85q48 -29 114 -61
t86 -47q55 27 77 57q55 71 67 158q11 88 -42 147t-157 111t-115 59z" />
    <glyph glyph-name="dieresis" unicode="&#xa8;" horiz-adv-x="471" 
d="M393 1280l15 92h92l-15 -92h-92zM137 1280l15 92h92l-15 -92h-92z" />
    <glyph glyph-name="copyright" unicode="&#xa9;" horiz-adv-x="1658" 
d="M774 338q-120 0 -194 104t-50 274t127 275q102 105 216 105t178 -73q17 -18 28 -40l-69 -51q-4 8 -14 22t-46 37q-37 23 -82 23q-90 0 -164 -79t-92 -218q-20 -139 31 -218t141 -79q54 0 102 28t68 56l21 28l55 -51q-59 -89 -167 -128q-44 -15 -89 -15zM920 1372
q-258 0 -452 -180t-236 -475t102 -475t401 -180q258 0 451 180t235 475q41 295 -101 475t-400 180zM930 1454q290 0 454 -206t119 -530t-268 -532q-223 -206 -512 -206t-454 205q-164 206 -117 532q45 325 267 531t511 206z" />
    <glyph glyph-name="ordfeminine" unicode="&#xaa;" horiz-adv-x="798" 
d="M509 1372q-99 0 -173 -79t-93 -218t32 -218t141 -79q55 0 102 26t68 52l18 25l55 389q-51 102 -150 102zM403 696q-121 0 -195 104t-48 275q25 171 127 275t223 104q45 0 84 -20t53 -41l17 -21h10l8 62h82l-84 -594l-6 -123h-72v71h-10q-27 -34 -84 -63q-56 -29 -105 -29
z" />
    <glyph glyph-name="guillemotleft" unicode="&#xab;" horiz-adv-x="757" 
d="M629 840l37 -31l-238 -293l-2 -8l156 -293l-45 -31l-183 297l8 62zM342 840l37 -31l-238 -293l-2 -8l156 -293l-45 -31l-182 297l8 62z" />
    <glyph glyph-name="logicalnot" unicode="&#xac;" horiz-adv-x="737" 
d="M55 553l13 82h573l-41 -287h-82l29 205h-492z" />
    <glyph glyph-name="uni00AD" unicode="&#xad;" horiz-adv-x="593" 
d="M61 584l11 82h430l-10 -82h-431z" />
    <glyph glyph-name="registered" unicode="&#xae;" horiz-adv-x="1658" 
d="M920 1372q-258 0 -452 -180t-236 -475t102 -475t401 -180q258 0 451 180t235 475q41 295 -101 475t-400 180zM930 1454q290 0 454 -206t119 -530t-268 -532q-223 -206 -512 -206t-454 205q-164 206 -117 532q45 325 267 531t511 206zM618 625l-36 -267h-82l96 678
q111 60 256 60t216 -64t56 -172q-10 -74 -54 -125t-83 -65l-37 -15v-10l123 -287h-92l-117 267h-246zM825 707q88 0 148 45q59 44 69 114t-37 109q-48 39 -157 39t-178 -31l-39 -276h194z" />
    <glyph glyph-name="macron" unicode="&#xaf;" horiz-adv-x="552" 
d="M139 1290l11 72h430l-11 -72h-430z" />
    <glyph glyph-name="degree" unicode="&#xb0;" horiz-adv-x="696" 
d="M434 1352q-61 0 -108 -42q-46 -42 -56 -111t25 -112t96 -43t109 43q47 43 56 112t-26 111t-96 42zM446 1434q92 0 150 -68t43 -167q-14 -99 -90 -168t-168 -69t-150 69q-57 69 -43 168t90 167t168 68z" />
    <glyph glyph-name="plusminus" unicode="&#xb1;" horiz-adv-x="737" 
d="M2 164l10 82h574l-11 -82h-573zM70 645l10 82h246l39 266h81l-38 -266h245l-10 -82h-246l-37 -266h-81l36 266h-245z" />
    <glyph glyph-name="twosuperior" unicode="&#xb2;" horiz-adv-x="655" 
d="M428 1372q-66 0 -110 -37t-51 -87t6 -81t30 -41l16 -10l-59 -61q-58 29 -76 114q-6 33 0 70q12 91 84 153t171 62t154 -62q54 -63 40 -163q-8 -65 -47 -133t-112 -145t-146 -122l-31 -20l-2 -10h256l-10 -82h-400l9 61q42 24 120 82q78 56 128 108t98 124q47 72 56 138
t-25 104q-33 38 -99 38z" />
    <glyph glyph-name="threesuperior" unicode="&#xb3;" horiz-adv-x="645" 
d="M365 1147q51 0 86 31t43 82q8 52 -19 82t-78 30t-86 -31t-43 -81l2 -52l-75 -30q-20 40 -9 82q12 84 74 139t148 55q84 0 132 -55t38 -121t-38 -106q-28 -38 -53 -50l-24 -12l-2 -8q4 -2 12 -5q62 -23 83 -102q9 -33 3 -73q-14 -100 -86 -162t-159 -64q-87 0 -135 39
t-60 76l-10 39l84 20q0 -5 11 -25q36 -67 105 -67q70 0 115 39t53 105q11 66 -23 104t-100 39h-30l10 82h31z" />
    <glyph glyph-name="acute" unicode="&#xb4;" horiz-adv-x="348" 
d="M127 1208l178 236h82l-199 -236h-61z" />
    <glyph glyph-name="mu" unicode="&#xb5;" horiz-adv-x="942" 
d="M381 61q113 0 207 86q26 23 43 48l110 788h82l-137 -983h-82l10 82h-10q-29 -35 -103 -69q-143 -66 -256 -5q-52 29 -71 58l-18 26h-11l-51 -358h-82l176 1249h82l-94 -676q-16 -115 38 -181t167 -65z" />
    <glyph glyph-name="paragraph" unicode="&#xb6;" horiz-adv-x="1130" 
d="M647 -266l227 1618h-215l-227 -1618h-82l129 921q-147 1 -227 105t-55 284t135 285q111 104 258 105h522l-12 -82h-144l-227 -1618h-82z" />
    <glyph glyph-name="periodcentered" unicode="&#xb7;" horiz-adv-x="389" 
d="M104 537l17 122h123l-17 -122h-123z" />
    <glyph glyph-name="cedilla" unicode="&#xb8;" horiz-adv-x="491" 
d="M68 -348q66 0 100 26q35 26 40 60t-14 56t-57 22h-82l27 184h82l-17 -102q68 0 111 -46t33 -113t-75 -118t-150 -51t-144 37l-18 14l51 72q47 -41 113 -41z" />
    <glyph glyph-name="onesuperior" unicode="&#xb9;" horiz-adv-x="440" 
d="M272 1290q-23 -20 -65 -30l-10 71q29 6 62 36q34 30 44 67h82l-100 -717h-82l80 573h-11z" />
    <glyph glyph-name="ordmasculine" unicode="&#xba;" horiz-adv-x="798" 
d="M406 778q90 0 158 75t87 222q20 147 -25 222q-46 75 -136 75t-160 -76q-68 -76 -88 -221t26 -221q48 -76 138 -76zM500 1454q122 0 190 -101t43 -277t-122 -278t-218 -102t-189 102t-44 277q25 175 122 277t218 102z" />
    <glyph glyph-name="guillemotright" unicode="&#xbb;" horiz-adv-x="757" 
d="M66 184l-37 31l237 293l2 8l-155 293l45 31l184 -297l-8 -62zM352 184l-37 31l238 293l2 8l-156 293l45 31l185 -297l-8 -62z" />
    <glyph glyph-name="onequarter" unicode="&#xbc;" horiz-adv-x="1280" 
d="M946 268l43 307h-10l-256 -296l-2 -11h225zM1098 186h-82l-25 -184h-82l25 184h-328l12 82l392 451h82l-64 -451h82zM293 1290q-23 -20 -66 -30l-10 71q30 6 64 36q33 30 43 67h82l-101 -717h-82l80 573h-10zM51 0l1000 1434h92l-1000 -1434h-92z" />
    <glyph glyph-name="onehalf" unicode="&#xbd;" horiz-adv-x="1382" 
d="M1022 655q-66 0 -110 -37t-51 -87q-7 -51 6 -81t30 -40l16 -11l-59 -61q-58 29 -76 115q-6 33 0 69q12 92 84 154t171 61q99 0 154 -62q54 -63 40 -163q-20 -163 -227 -339q-46 -40 -78 -60l-31 -21l-2 -10h256l-10 -82h-400l8 61q49 28 123 84t125 107t99 123
q47 71 56 137t-25 104q-33 38 -99 39zM293 1290q-23 -20 -66 -30l-10 71q30 6 64 36q33 30 43 67h82l-101 -717h-82l80 573h-10zM51 0l1000 1434h92l-1000 -1434h-92z" />
    <glyph glyph-name="threequarters" unicode="&#xbe;" horiz-adv-x="1433" 
d="M375 1147q51 0 86 31t43 82q8 52 -19 82t-77 30t-86 -31q-35 -31 -43 -81l2 -52l-76 -30q-19 39 -8 82q12 84 74 139q63 55 147 55t132 -55t38 -121t-38 -106q-28 -38 -52 -50l-25 -12l-2 -8q4 -2 12 -5q62 -23 83 -102q9 -33 3 -73q-14 -100 -86 -162t-159 -64
q-87 0 -135 39t-58 76l-12 39l84 20q0 -5 16 -34t47 -44q31 -14 58 -14q66 0 110 39t53 105q11 66 -23 104t-99 39h-31l10 82h31zM1100 266l43 307h-10l-256 -297l-3 -10h226zM1251 184h-82l-24 -184h-82l24 184h-327l12 82l391 451h82l-63 -451h82zM205 0l999 1434h92
l-999 -1434h-92z" />
    <glyph glyph-name="questiondown" unicode="&#xbf;" horiz-adv-x="1003" 
d="M670 983l-17 -123h-123l17 123h123zM457 348q-137 0 -245 -93t-126 -224t64 -225t219 -93q137 0 245 93t127 225h82q-23 -162 -161 -281t-306 -119t-271 119t-81 281q23 163 160 281t305 118h20l33 164h62l-25 -256q-41 10 -102 10z" />
    <glyph glyph-name="Agrave" unicode="&#xc0;" horiz-adv-x="1198" 
d="M637 1843l113 -225h-62l-133 225h82zM676 1321l-410 -870h584l-164 870h-10zM743 1434l281 -1434h-82l-72 369h-645l-174 -369h-82l682 1434h92z" />
    <glyph glyph-name="Aacute" unicode="&#xc1;" horiz-adv-x="1198" 
d="M698 1618l174 225h82l-194 -225h-62zM676 1321l-410 -870h584l-164 870h-10zM743 1434l281 -1434h-82l-72 369h-645l-174 -369h-82l682 1434h92z" />
    <glyph glyph-name="Acircumflex" unicode="&#xc2;" horiz-adv-x="1198" 
d="M795 1843l153 -225h-82l-121 174l-165 -174h-82l215 225h82zM676 1321l-410 -870h584l-164 870h-10zM743 1434l281 -1434h-82l-72 369h-645l-174 -369h-82l682 1434h92z" />
    <glyph glyph-name="Atilde" unicode="&#xc3;" horiz-adv-x="1198" 
d="M635 1731q-47 0 -72 -82h-82q51 164 166 163q45 0 107 -40t86 -41q48 -1 73 81h82q-53 -164 -166 -163q-45 0 -108 41t-86 41zM676 1321l-410 -870h584l-164 870h-10zM743 1434l281 -1434h-82l-72 369h-645l-174 -369h-82l682 1434h92z" />
    <glyph glyph-name="Adieresis" unicode="&#xc4;" horiz-adv-x="1198" 
d="M813 1690l14 92h93l-15 -92h-92zM557 1690l14 92h93l-15 -92h-92zM676 1321l-410 -870h584l-164 870h-10zM743 1434l281 -1434h-82l-72 369h-645l-174 -369h-82l682 1434h92z" />
    <glyph glyph-name="Aring" unicode="&#xc5;" horiz-adv-x="1198" 
d="M764 1915q70 0 114 -54t34 -130t-70 -130q-59 -55 -129 -55t-115 54t-35 131q11 76 71 130t130 54zM723 1618q43 0 77 32t40 81q8 49 -18 81t-68 31q-42 1 -77 -31q-34 -32 -41 -81q-8 -49 18 -81t69 -32zM676 1321l-410 -870h584l-164 870h-10zM743 1434l281 -1434h-82
l-72 369h-645l-174 -369h-82l682 1434h92z" />
    <glyph glyph-name="AE" unicode="&#xc6;" horiz-adv-x="1566" 
d="M659 1352l-423 -901h471l127 901h-175zM645 0l51 369h-501l-175 -369h-81l682 1434h921l-12 -82h-615l-51 -369h533l-13 -82h-532l-115 -819h656l-11 -82h-737z" />
    <glyph glyph-name="Ccedilla" unicode="&#xc7;" horiz-adv-x="1228" 
d="M548 -348q66 0 101 26t40 60t-14 56t-57 22h-81l22 164q-211 16 -342 216t-86 526t244 530q199 202 432 202q79 0 147 -24t133 -74q65 -51 97 -103l12 -24l-70 -51q-32 64 -111 126q-34 26 -93 48t-125 20q-203 0 -372 -177t-212 -478t77 -478t312 -177t357 151
q38 35 57 59l18 25l53 -51q-8 -10 -21 -26t-58 -61q-94 -92 -192 -133q-99 -41 -175 -46l-12 -82q69 0 111 -46t32 -113t-75 -118t-152 -51t-142 37l-18 14l51 72q46 -41 112 -41z" />
    <glyph glyph-name="Egrave" unicode="&#xc8;" 
d="M647 1843l113 -225h-62l-133 225h82zM113 0l200 1434h727l-12 -82h-645l-51 -369h563l-12 -82h-564l-114 -819h686l-10 -82h-768z" />
    <glyph glyph-name="Eacute" unicode="&#xc9;" 
d="M657 1618l174 225h82l-194 -225h-62zM113 0l200 1434h727l-12 -82h-645l-51 -369h563l-12 -82h-564l-114 -819h686l-10 -82h-768z" />
    <glyph glyph-name="Ecircumflex" unicode="&#xca;" 
d="M770 1843l154 -225h-82l-121 174l-166 -174h-82l215 225h82zM113 0l200 1434h727l-12 -82h-645l-51 -369h563l-12 -82h-564l-114 -819h686l-10 -82h-768z" />
    <glyph glyph-name="Edieresis" unicode="&#xcb;" 
d="M788 1690l15 92h92l-14 -92h-93zM532 1690l15 92h92l-14 -92h-93zM113 0l200 1434h727l-12 -82h-645l-51 -369h563l-12 -82h-564l-114 -819h686l-10 -82h-768z" />
    <glyph glyph-name="Igrave" unicode="&#xcc;" horiz-adv-x="512" 
d="M299 1843l113 -225h-62l-133 225h82zM395 1434l-200 -1434h-82l200 1434h82z" />
    <glyph glyph-name="Iacute" unicode="&#xcd;" horiz-adv-x="512" 
d="M350 1618l174 225h82l-194 -225h-62zM395 1434l-200 -1434h-82l200 1434h82z" />
    <glyph glyph-name="Icircumflex" unicode="&#xce;" horiz-adv-x="512" 
d="M453 1843l153 -225h-82l-121 174l-165 -174h-82l215 225h82zM395 1434l-200 -1434h-82l200 1434h82z" />
    <glyph glyph-name="Idieresis" unicode="&#xcf;" horiz-adv-x="512" 
d="M471 1690l14 92h93l-15 -92h-92zM215 1690l14 92h93l-15 -92h-92zM395 1434l-200 -1434h-82l200 1434h82z" />
    <glyph glyph-name="Eth" unicode="&#xd0;" horiz-adv-x="1290" 
d="M653 1372q-172 0 -245 -31l-27 -10l-49 -348h338l-13 -82h-338l-114 -819h287q208 0 374 170t208 469t-81 475t-340 176zM675 1454q237 0 381 -202t99 -532t-240 -524q-195 -196 -434 -196h-368l125 901h-134l13 82h133l57 410q131 61 368 61z" />
    <glyph glyph-name="Ntilde" unicode="&#xd1;" horiz-adv-x="1392" 
d="M733 1731q-47 0 -71 -82h-82q51 164 165 163q45 0 107 -40t86 -41q49 -1 74 81h82q-53 -164 -166 -163q-44 0 -108 41t-87 41zM993 0l-612 1260h-10l-176 -1260h-82l200 1434h82l611 -1260h10l178 1260h82l-201 -1434h-82z" />
    <glyph glyph-name="Ograve" unicode="&#xd2;" horiz-adv-x="1413" 
d="M770 1843l113 -225h-62l-133 225h82zM796 1372q-202 0 -371 -177t-212 -478t77 -478t322 -177t372 176q169 178 212 479t-77 478q-121 177 -323 177zM807 1454q233 0 375 -203t95 -535q-46 -332 -245 -534t-432 -202t-375 202q-141 203 -94 535q45 333 244 535t432 202z
" />
    <glyph glyph-name="Oacute" unicode="&#xd3;" horiz-adv-x="1413" 
d="M780 1618l174 225h82l-194 -225h-62zM796 1372q-202 0 -371 -177t-212 -478t77 -478t322 -177t372 176q169 178 212 479t-77 478q-121 177 -323 177zM807 1454q233 0 375 -203t95 -535q-46 -332 -245 -534t-432 -202t-375 202q-141 203 -94 535q45 333 244 535t432 202z
" />
    <glyph glyph-name="Ocircumflex" unicode="&#xd4;" horiz-adv-x="1413" 
d="M903 1843l154 -225h-82l-121 174l-166 -174h-82l215 225h82zM796 1372q-202 0 -371 -177t-212 -478t77 -478t322 -177t372 176q169 178 212 479t-77 478q-121 177 -323 177zM807 1454q233 0 375 -203t95 -535q-46 -332 -245 -534t-432 -202t-375 202q-141 203 -94 535
q45 333 244 535t432 202z" />
    <glyph glyph-name="Otilde" unicode="&#xd5;" horiz-adv-x="1413" 
d="M743 1731q-47 0 -71 -82h-82q51 164 166 163q45 0 107 -40t85 -41q49 -1 74 81h82q-53 -164 -166 -163q-44 0 -108 41t-87 41zM796 1372q-202 0 -371 -177t-212 -478t77 -478t322 -177t372 176q169 178 212 479t-77 478q-121 177 -323 177zM807 1454q233 0 375 -203
t95 -535q-46 -332 -245 -534t-432 -202t-375 202q-141 203 -94 535q45 333 244 535t432 202z" />
    <glyph glyph-name="Odieresis" unicode="&#xd6;" horiz-adv-x="1413" 
d="M922 1690l14 92h92l-14 -92h-92zM666 1690l14 92h92l-14 -92h-92zM796 1372q-202 0 -371 -177t-212 -478t77 -478t322 -177t372 176q169 178 212 479t-77 478q-121 177 -323 177zM807 1454q233 0 375 -203t95 -535q-46 -332 -245 -534t-432 -202t-375 202
q-141 203 -94 535q45 333 244 535t432 202z" />
    <glyph glyph-name="multiply" unicode="&#xd7;" horiz-adv-x="655" 
d="M270 686l-168 195l58 51l168 -195l221 195l45 -51l-221 -195l166 -194l-58 -52l-168 195l-221 -195l-45 52z" />
    <glyph glyph-name="Oslash" unicode="&#xd8;" horiz-adv-x="1413" 
d="M612 61q203 -1 372 177t212 479q20 151 -2 273t-51 169l-33 49l-770 -1034q33 -39 114 -76t158 -37zM797 1372q-203 0 -372 -177t-212 -478q-30 -252 41 -416q16 -39 29 -57l14 -19l770 1035q-31 37 -112 75q-81 37 -158 37zM807 1454q86 0 164 -31t112 -61l35 -31
l76 103h82l-115 -154q80 -106 96 -184q17 -78 29 -175t-8 -204q-47 -332 -246 -535t-432 -202q-86 0 -164 30t-112 62l-33 30l-76 -102h-82l113 154l-16 22q-10 14 -40 66q-29 52 -42 113q-46 210 -17 362q45 333 244 535t432 202z" />
    <glyph glyph-name="Ugrave" unicode="&#xd9;" horiz-adv-x="1372" 
d="M750 1843l112 -225h-61l-133 225h82zM580 -20q-208 0 -321 137q-112 137 -79 364l133 953h82l-133 -953q-28 -197 62 -309t268 -111t298 111t150 309l134 953h81l-133 -953q-34 -229 -184 -365t-358 -136z" />
    <glyph glyph-name="Uacute" unicode="&#xda;" horiz-adv-x="1372" 
d="M760 1618l174 225h82l-195 -225h-61zM580 -20q-208 0 -321 137q-112 137 -79 364l133 953h82l-133 -953q-28 -197 62 -309t268 -111t298 111t150 309l134 953h81l-133 -953q-34 -229 -184 -365t-358 -136z" />
    <glyph glyph-name="Ucircumflex" unicode="&#xdb;" horiz-adv-x="1372" 
d="M883 1843l153 -225h-82l-120 174l-166 -174h-82l215 225h82zM580 -20q-208 0 -321 137q-112 137 -79 364l133 953h82l-133 -953q-28 -197 62 -309t268 -111t298 111t150 309l134 953h81l-133 -953q-34 -229 -184 -365t-358 -136z" />
    <glyph glyph-name="Udieresis" unicode="&#xdc;" horiz-adv-x="1372" 
d="M901 1690l14 92h93l-15 -92h-92zM645 1690l14 92h93l-15 -92h-92zM580 -20q-208 0 -321 137q-112 137 -79 364l133 953h82l-133 -953q-28 -197 62 -309t268 -111t298 111t150 309l134 953h81l-133 -953q-34 -229 -184 -365t-358 -136z" />
    <glyph glyph-name="Yacute" unicode="&#xdd;" 
d="M606 1618l174 225h82l-194 -225h-62zM549 829l471 605h92l-537 -686l-104 -748h-82l105 748l-344 686h92l299 -605h8z" />
    <glyph glyph-name="Thorn" unicode="&#xde;" horiz-adv-x="1259" 
d="M686 1249q238 0 366 -141t100 -339t-192 -340t-389 -142h-336l-40 -287h-82l200 1434h82l-33 -236q129 51 324 51zM584 369q196 -1 328 115t157 284t-81 284t-312 115q-86 0 -168 -12t-119 -25l-38 -14l-105 -747h338z" />
    <glyph glyph-name="germandbls" unicode="&#xdf;" horiz-adv-x="983" 
d="M618 1352q-129 0 -227 -104t-125 -292l-133 -956h-82l133 954q31 220 158 350t287 130h248q-13 -94 -47 -174t-92 -153t-115 -101l-23 -13l-2 -10q6 -2 16 -5t51 -21t88 -74q48 -56 62 -106q15 -50 27 -123t-6 -162q-33 -238 -168 -375t-303 -137q-76 0 -140 30l23 82
q47 -31 129 -31q137 0 243 112q105 112 134 319q29 206 -45 318t-211 112h-72l10 82q27 0 86 24t102 58q42 34 88 104t70 162h-164z" />
    <glyph glyph-name="agrave" unicode="&#xe0;" horiz-adv-x="972" 
d="M500 1444l108 -236h-61l-129 236h82zM390 61q124 0 218 86q26 23 43 48l84 593q-4 11 -25 41q-64 90 -193 92q-130 1 -234 -112t-133 -317q-28 -204 44 -318q72 -113 196 -113zM647 92h-10q-41 -41 -118 -77t-144 -35q-154 0 -247 138t-60 374q36 236 166 374t284 138
q62 0 118 -26t81 -52l22 -25h11l12 82h82l-111 -788q-8 -55 -8 -166l2 -29h-82z" />
    <glyph glyph-name="aacute" unicode="&#xe1;" horiz-adv-x="972" 
d="M526 1208l179 236h81l-198 -236h-62zM390 61q124 0 218 86q26 23 43 48l84 593q-4 11 -25 41q-64 90 -193 92q-130 1 -234 -112t-133 -317q-28 -204 44 -318q72 -113 196 -113zM647 92h-10q-41 -41 -118 -77t-144 -35q-154 0 -247 138t-60 374q36 236 166 374t284 138
q62 0 118 -26t81 -52l22 -25h11l12 82h82l-111 -788q-8 -55 -8 -166l2 -29h-82z" />
    <glyph glyph-name="acircumflex" unicode="&#xe2;" horiz-adv-x="972" 
d="M633 1444l149 -236h-82l-116 185l-170 -185h-82l219 236h82zM390 61q124 0 218 86q26 23 43 48l84 593q-4 11 -25 41q-64 90 -193 92q-130 1 -234 -112t-133 -317q-28 -204 44 -318q72 -113 196 -113zM647 92h-10q-41 -41 -118 -77t-144 -35q-154 0 -247 138t-60 374
q36 236 166 374t284 138q62 0 118 -26t81 -52l22 -25h11l12 82h82l-111 -788q-8 -55 -8 -166l2 -29h-82z" />
    <glyph glyph-name="atilde" unicode="&#xe3;" horiz-adv-x="972" 
d="M666 1239q-44 0 -106 51t-85 51q-49 0 -76 -102h-82q53 184 168 184q45 0 107 -51t84 -51q49 0 76 102h82q-53 -184 -168 -184zM390 61q124 0 218 86q26 23 43 48l84 593q-4 11 -25 41q-64 90 -193 92q-130 1 -234 -112t-133 -317q-28 -204 44 -318q72 -113 196 -113z
M647 92h-10q-41 -41 -118 -77t-144 -35q-154 0 -247 138t-60 374q36 236 166 374t284 138q62 0 118 -26t81 -52l22 -25h11l12 82h82l-111 -788q-8 -55 -8 -166l2 -29h-82z" />
    <glyph glyph-name="adieresis" unicode="&#xe4;" horiz-adv-x="972" 
d="M649 1280l15 92h92l-15 -92h-92zM393 1280l15 92h92l-15 -92h-92zM390 61q124 0 218 86q26 23 43 48l84 593q-4 11 -25 41q-64 90 -193 92q-130 1 -234 -112t-133 -317q-28 -204 44 -318q72 -113 196 -113zM647 92h-10q-41 -41 -118 -77t-144 -35q-154 0 -247 138
t-60 374q36 236 166 374t284 138q62 0 118 -26t81 -52l22 -25h11l12 82h82l-111 -788q-8 -55 -8 -166l2 -29h-82z" />
    <glyph glyph-name="aring" unicode="&#xe5;" horiz-adv-x="972" 
d="M549 1147q-70 0 -114 54t-34 130q11 76 71 130q60 55 130 55t114 -54t34 -131q-10 -76 -70 -130t-131 -54zM592 1444q-42 0 -78 -32q-35 -32 -42 -81q-8 -49 18 -81t69 -32t77 32t41 82t-18 81t-67 31zM390 61q124 0 218 86q26 23 43 48l84 593q-4 11 -25 41
q-64 90 -193 92q-130 1 -234 -112t-133 -317q-28 -204 44 -318q72 -113 196 -113zM647 92h-10q-41 -41 -118 -77t-144 -35q-154 0 -247 138t-60 374q36 236 166 374t284 138q62 0 118 -26t81 -52l22 -25h11l12 82h82l-111 -788q-8 -55 -8 -166l2 -29h-82z" />
    <glyph glyph-name="ae" unicode="&#xe6;" horiz-adv-x="1525" 
d="M1090 922q-100 0 -190 -92t-134 -257h551q9 153 -59 251t-168 98zM295 61q137 0 243 112q105 112 134 319h-297q-121 0 -191 -56t-85 -158t37 -160t159 -57zM1303 164q-137 -184 -331 -184q-62 0 -118 30q-55 30 -85 71q-61 85 -77 157l-6 28h-8l-16 -32q-10 -19 -46 -68
t-78 -87t-112 -69t-143 -30q-137 0 -210 82t-56 215q17 132 117 214t253 82h297q8 169 -53 259t-174 90q-73 0 -137 -31t-91 -62l-26 -30l-53 51q9 13 48 47q124 105 269 107q174 0 254 -165q18 -38 24 -65l5 -26h10q6 10 15 27t43 61t71 78t95 62t118 28q141 0 230 -140
t57 -372h-635q-29 -205 43 -318t194 -113q146 0 256 154z" />
    <glyph glyph-name="ccedilla" unicode="&#xe7;" horiz-adv-x="880" 
d="M408 61q82 0 150 38t97 77l29 39l55 -51q-12 -18 -37 -46q-26 -28 -104 -79t-162 -59l-12 -82q68 0 111 -46t33 -113t-76 -118q-64 -51 -154 -51q-41 0 -80 12t-57 25l-21 14l51 72q47 -41 113 -41t100 26q35 26 40 60t-14 56t-56 22h-82l22 164q-145 16 -232 151
t-53 367t168 368t302 138q85 0 155 -39t97 -76l24 -39l-70 -51q-60 120 -217 123q-137 0 -243 -112t-135 -318t46 -319q75 -112 212 -112z" />
    <glyph glyph-name="egrave" unicode="&#xe8;" horiz-adv-x="954" 
d="M489 1444l109 -236h-61l-129 236h81zM505 922q-116 0 -211 -92t-132 -257h583q14 157 -55 253t-185 96zM408 61q82 0 150 38t97 77l29 39l55 -51l-15 -20t-43 -45q-126 -119 -290 -119t-260 137t-63 377q34 240 164 374t286 136q156 0 244 -135t55 -377h-667
q-29 -207 46 -319t212 -112z" />
    <glyph glyph-name="eacute" unicode="&#xe9;" horiz-adv-x="954" 
d="M516 1208l178 236h82l-198 -236h-62zM505 922q-116 0 -211 -92t-132 -257h583q14 157 -55 253t-185 96zM408 61q82 0 150 38t97 77l29 39l55 -51l-15 -20t-43 -45q-126 -119 -290 -119t-260 137t-63 377q34 240 164 374t286 136q156 0 244 -135t55 -377h-667
q-29 -207 46 -319t212 -112z" />
    <glyph glyph-name="ecircumflex" unicode="&#xea;" horiz-adv-x="954" 
d="M623 1444l149 -236h-82l-117 185l-170 -185h-81l219 236h82zM505 922q-116 0 -211 -92t-132 -257h583q14 157 -55 253t-185 96zM408 61q82 0 150 38t97 77l29 39l55 -51l-15 -20t-43 -45q-126 -119 -290 -119t-260 137t-63 377q34 240 164 374t286 136q156 0 244 -135
t55 -377h-667q-29 -207 46 -319t212 -112z" />
    <glyph glyph-name="edieresis" unicode="&#xeb;" horiz-adv-x="954" 
d="M639 1280l14 92h92l-14 -92h-92zM383 1280l14 92h92l-14 -92h-92zM505 922q-116 0 -211 -92t-132 -257h583q14 157 -55 253t-185 96zM408 61q82 0 150 38t97 77l29 39l55 -51l-15 -20t-43 -45q-126 -119 -290 -119t-260 137t-63 377q34 240 164 374t286 136
q156 0 244 -135t55 -377h-667q-29 -207 46 -319t212 -112z" />
    <glyph glyph-name="igrave" unicode="&#xec;" horiz-adv-x="389" 
d="M182 1444l109 -236h-62l-129 236h82zM51 0l137 983h82l-137 -983h-82z" />
    <glyph glyph-name="iacute" unicode="&#xed;" horiz-adv-x="389" 
d="M229 1208l179 236h81l-198 -236h-62zM51 0l137 983h82l-137 -983h-82z" />
    <glyph glyph-name="icircumflex" unicode="&#xee;" horiz-adv-x="389" 
d="M336 1444l149 -236h-82l-116 185l-170 -185h-82l219 236h82zM51 0l137 983h82l-137 -983h-82z" />
    <glyph glyph-name="idieresis" unicode="&#xef;" horiz-adv-x="389" 
d="M352 1280l15 92h92l-15 -92h-92zM96 1280l15 92h92l-15 -92h-92zM51 0l137 983h82l-137 -983h-82z" />
    <glyph glyph-name="eth" unicode="&#xf0;" horiz-adv-x="1013" 
d="M522 881q-137 0 -242 -109q-104 -110 -132 -302t48 -300t212 -109q137 1 242 109t132 301t-48 301t-212 109zM395 -20q-168 0 -264 134t-65 357t165 357q135 134 299 134t249 -132q19 -30 28 -52l6 -20h10q-6 126 -54 242t-93 167l-45 52l-180 -123l-35 51l172 123
q-47 51 -93 84q-45 34 -65 49t-45 31h102q74 -51 156 -134l170 123l35 -51l-160 -112q10 -10 43 -52q33 -41 79 -133t57 -162q11 -71 21 -156t-7 -173l-17 -113q-31 -223 -166 -357t-303 -134z" />
    <glyph glyph-name="ntilde" unicode="&#xf1;" horiz-adv-x="942" 
d="M645 1239q-45 0 -106 51t-84 51q-49 0 -76 -102h-82q53 184 168 184q45 0 106 -51t84 -51q49 0 76 102h82q-53 -184 -168 -184zM518 1004q131 0 207 -92t55 -236l-94 -676h-82l94 676q14 114 -39 180t-167 66t-205 -86q-26 -23 -43 -48l-111 -788h-82l137 983h82l-12 -82
h10q36 36 112 70q75 33 138 33z" />
    <glyph glyph-name="ograve" unicode="&#xf2;" horiz-adv-x="1003" 
d="M510 1444l108 -236h-61l-129 236h82zM408 61q137 0 242 112t134 319q29 206 -45 318t-211 112t-243 -112t-135 -318q-29 -207 46 -319t212 -112zM395 -20q-168 0 -264 137t-63 375q35 238 169 374t303 138q169 0 265 -138t62 -374q-34 -238 -169 -375t-303 -137z" />
    <glyph glyph-name="oacute" unicode="&#xf3;" horiz-adv-x="1003" 
d="M516 1208l178 236h82l-198 -236h-62zM408 61q137 0 242 112t134 319q29 206 -45 318t-211 112t-243 -112t-135 -318q-29 -207 46 -319t212 -112zM395 -20q-168 0 -264 137t-63 375q35 238 169 374t303 138q169 0 265 -138t62 -374q-34 -238 -169 -375t-303 -137z" />
    <glyph glyph-name="ocircumflex" unicode="&#xf4;" horiz-adv-x="1003" 
d="M643 1444l150 -236h-82l-117 185l-170 -185h-82l219 236h82zM408 61q137 0 242 112t134 319q29 206 -45 318t-211 112t-243 -112t-135 -318q-29 -207 46 -319t212 -112zM395 -20q-168 0 -264 137t-63 375q35 238 169 374t303 138q169 0 265 -138t62 -374
q-34 -238 -169 -375t-303 -137z" />
    <glyph glyph-name="otilde" unicode="&#xf5;" horiz-adv-x="1003" 
d="M676 1239q-44 0 -106 51t-85 51q-51 0 -75 -102h-82q53 184 168 184q45 0 106 -51t84 -51q51 0 76 102h82q-53 -184 -168 -184zM408 61q137 0 242 112t134 319q29 206 -45 318t-211 112t-243 -112t-135 -318q-29 -207 46 -319t212 -112zM395 -20q-168 0 -264 137t-63 375
q35 238 169 374t303 138q169 0 265 -138t62 -374q-34 -238 -169 -375t-303 -137z" />
    <glyph glyph-name="odieresis" unicode="&#xf6;" horiz-adv-x="1003" 
d="M659 1280l15 92h92l-14 -92h-93zM403 1280l15 92h92l-14 -92h-93zM408 61q137 0 242 112t134 319q29 206 -45 318t-211 112t-243 -112t-135 -318q-29 -207 46 -319t212 -112zM395 -20q-168 0 -264 137t-63 375q35 238 169 374t303 138q169 0 265 -138t62 -374
q-34 -238 -169 -375t-303 -137z" />
    <glyph glyph-name="divide" unicode="&#xf7;" horiz-adv-x="747" 
d="M389 440l-16 -112h-113l16 112h113zM70 645l10 82h584l-11 -82h-583zM344 932l16 112h113l-16 -112h-113z" />
    <glyph glyph-name="oslash" unicode="&#xf8;" horiz-adv-x="1003" 
d="M150 492q-22 -185 22 -275l16 -33l514 666q-6 8 -17 20t-56 32t-101 20q-137 0 -243 -112t-135 -318zM784 492q21 182 -22 274l-17 33l-512 -666q5 -8 17 -20q12 -11 57 -31t101 -21q137 0 242 112t134 319zM395 -20q-63 0 -116 20t-74 41l-23 20l-49 -61h-82l86 113
q-12 12 -28 39q-17 27 -37 124t-4 216q35 238 169 374t302 138q63 0 117 -20t77 -42l21 -20l49 61h82l-88 -113q13 -13 38 -61q24 -47 35 -145q10 -97 -4 -172q-33 -238 -168 -375t-303 -137z" />
    <glyph glyph-name="ugrave" unicode="&#xf9;" horiz-adv-x="942" 
d="M479 1444l109 -236h-62l-129 236h82zM381 61q113 0 207 86q26 23 43 48l110 788h82l-137 -983h-82l10 82h-10q-36 -36 -112 -70q-75 -33 -138 -32q-133 0 -207 92t-53 235l94 676h82l-94 -676q-16 -115 38 -181t167 -65z" />
    <glyph glyph-name="uacute" unicode="&#xfa;" horiz-adv-x="942" 
d="M485 1208l179 236h81l-198 -236h-62zM381 61q113 0 207 86q26 23 43 48l110 788h82l-137 -983h-82l10 82h-10q-36 -36 -112 -70q-75 -33 -138 -32q-133 0 -207 92t-53 235l94 676h82l-94 -676q-16 -115 38 -181t167 -65z" />
    <glyph glyph-name="ucircumflex" unicode="&#xfb;" horiz-adv-x="942" 
d="M612 1444l150 -236h-82l-117 185l-170 -185h-82l219 236h82zM381 61q113 0 207 86q26 23 43 48l110 788h82l-137 -983h-82l10 82h-10q-36 -36 -112 -70q-75 -33 -138 -32q-133 0 -207 92t-53 235l94 676h82l-94 -676q-16 -115 38 -181t167 -65z" />
    <glyph glyph-name="udieresis" unicode="&#xfc;" horiz-adv-x="942" 
d="M629 1280l14 92h92l-14 -92h-92zM373 1280l14 92h92l-14 -92h-92zM381 61q113 0 207 86q26 23 43 48l110 788h82l-137 -983h-82l10 82h-10q-36 -36 -112 -70q-75 -33 -138 -32q-133 0 -207 92t-53 235l94 676h82l-94 -676q-16 -115 38 -181t167 -65z" />
    <glyph glyph-name="yacute" unicode="&#xfd;" horiz-adv-x="778" 
d="M403 1208l179 236h82l-199 -236h-62zM115 -266h-62l13 82h51q51 0 80 61l59 133l-170 973h82l139 -829h10l363 829h82l-483 -1106q-33 -75 -72 -109t-92 -34z" />
    <glyph glyph-name="thorn" unicode="&#xfe;" horiz-adv-x="962" 
d="M503 922q-126 0 -216 -86q-26 -23 -43 -48l-84 -593q4 -11 33 -52t84 -61t100 -21q131 0 234 113t132 318q29 206 -43 318t-197 112zM518 1004q156 0 248 -138t59 -374t-163 -374t-287 -138q-63 0 -119 26t-80 51l-22 25h-11l-49 -348h-82l240 1700h82l-76 -533h10
q36 36 112 70q75 33 138 33z" />
    <glyph glyph-name="ydieresis" unicode="&#xff;" horiz-adv-x="778" 
d="M547 1280l14 92h92l-14 -92h-92zM291 1280l14 92h92l-14 -92h-92zM115 -266h-62l13 82h51q51 0 80 61l59 133l-170 973h82l139 -829h10l363 829h82l-483 -1106q-33 -75 -72 -109t-92 -34z" />
    <glyph glyph-name="Amacron" unicode="&#x100;" horiz-adv-x="1198" 
d="M516 1690l12 82h430l-12 -82h-430zM676 1321l-410 -870h584l-164 870h-10zM743 1434l281 -1434h-82l-72 369h-645l-174 -369h-82l682 1434h92z" />
    <glyph glyph-name="amacron" unicode="&#x101;" horiz-adv-x="972" 
d="M354 1290l11 72h430l-11 -72h-430zM390 61q124 0 218 86q26 23 43 48l84 593q-4 11 -25 41q-64 90 -193 92q-130 1 -234 -112t-133 -317q-28 -204 44 -318q72 -113 196 -113zM647 92h-10q-41 -41 -118 -77t-144 -35q-154 0 -247 138t-60 374q36 236 166 374t284 138
q62 0 118 -26t81 -52l22 -25h11l12 82h82l-111 -788q-8 -55 -8 -166l2 -29h-82z" />
    <glyph glyph-name="Abreve" unicode="&#x102;" horiz-adv-x="1198" 
d="M723 1618q-100 0 -152 59q-51 59 -43 166h82q-4 -143 124 -143t163 143h82q-23 -109 -89 -167t-167 -58zM676 1321l-410 -870h584l-164 870h-10zM743 1434l281 -1434h-82l-72 369h-645l-174 -369h-82l682 1434h92z" />
    <glyph glyph-name="abreve" unicode="&#x103;" horiz-adv-x="972" 
d="M557 1208q-100 0 -149 60t-41 176h82q-7 -154 121 -154t165 154h82q-51 -236 -260 -236zM390 61q124 0 218 86q26 23 43 48l84 593q-4 11 -25 41q-64 90 -193 92q-130 1 -234 -112t-133 -317q-28 -204 44 -318q72 -113 196 -113zM647 92h-10q-41 -41 -118 -77t-144 -35
q-154 0 -247 138t-60 374q36 236 166 374t284 138q62 0 118 -26t81 -52l22 -25h11l12 82h82l-111 -788q-8 -55 -8 -166l2 -29h-82z" />
    <glyph glyph-name="Aogonek" unicode="&#x104;" horiz-adv-x="1198" 
d="M676 1321l-410 -870h584l-164 870h-10zM892 -430q-91 0 -136 48t-36 121t64 137t107 95l51 29l-72 369h-645l-174 -369h-82l682 1434h92l281 -1434q-8 -4 -22 -12q-178 -109 -198 -237q-6 -44 20 -72q26 -27 87 -27t119 41l31 -72q-78 -51 -169 -51z" />
    <glyph glyph-name="aogonek" unicode="&#x105;" horiz-adv-x="972" 
d="M390 61q124 0 218 86q26 23 43 48l84 593q-4 11 -25 41q-64 90 -193 92q-130 1 -234 -112t-133 -317q-28 -204 44 -318q72 -113 196 -113zM595 -430q-91 0 -136 48t-36 121t64 137t107 95l51 29l2 92h-10q-41 -41 -118 -77t-144 -35q-154 0 -247 138t-60 374
q36 236 166 374t284 138q62 0 118 -26t81 -52l22 -25h11l12 82h82l-111 -788q-8 -55 -8 -166l2 -29q-8 -4 -21 -12q-179 -110 -199 -237q-7 -44 19 -72q26 -27 84 -27q57 0 123 41l31 -72q-78 -51 -169 -51z" />
    <glyph glyph-name="Cacute" unicode="&#x106;" horiz-adv-x="1228" 
d="M780 1618l174 225h82l-194 -225h-62zM807 1454q79 0 147 -24t133 -74q65 -51 97 -103l12 -24l-70 -51q-32 64 -111 126q-34 26 -93 48t-125 20q-203 0 -372 -177t-212 -478t77 -478t312 -177t357 151q38 35 57 59l18 25l53 -51q-8 -10 -22 -28q-13 -18 -63 -65
q-50 -46 -103 -81t-134 -64t-165 -28q-233 0 -375 202q-141 203 -94 535q45 333 244 535t432 202z" />
    <glyph glyph-name="cacute" unicode="&#x107;" horiz-adv-x="880" 
d="M516 1208l178 236h82l-198 -236h-62zM408 61q82 0 150 38t97 77l29 39l55 -51l-15 -20t-43 -45q-126 -119 -290 -119t-260 137t-63 375q35 238 169 374t302 138q85 0 155 -39t97 -76l24 -39l-70 -51q-60 120 -217 123q-137 0 -243 -112t-135 -318t46 -319
q75 -112 212 -112z" />
    <glyph glyph-name="Ccircumflex" unicode="&#x108;" horiz-adv-x="1228" 
d="M903 1843l154 -225h-82l-121 174l-166 -174h-82l215 225h82zM807 1454q79 0 147 -24t133 -74q65 -51 97 -103l12 -24l-70 -51q-32 64 -111 126q-34 26 -93 48t-125 20q-203 0 -372 -177t-212 -478t77 -478t312 -177t357 151q38 35 57 59l18 25l53 -51q-8 -10 -22 -28
q-13 -18 -63 -65q-50 -46 -103 -81t-134 -64t-165 -28q-233 0 -375 202q-141 203 -94 535q45 333 244 535t432 202z" />
    <glyph glyph-name="ccircumflex" unicode="&#x109;" horiz-adv-x="880" 
d="M643 1444l150 -236h-82l-117 185l-170 -185h-82l219 236h82zM408 61q82 0 150 38t97 77l29 39l55 -51l-15 -20t-43 -45q-126 -119 -290 -119t-260 137t-63 375q35 238 169 374t302 138q85 0 155 -39t97 -76l24 -39l-70 -51q-60 120 -217 123q-137 0 -243 -112t-135 -318
t46 -319q75 -112 212 -112z" />
    <glyph glyph-name="Ccaron" unicode="&#x10c;" horiz-adv-x="1228" 
d="M791 1618l-154 225h82l119 -174l168 174h81l-215 -225h-81zM807 1454q79 0 147 -24t133 -74q65 -51 97 -103l12 -24l-70 -51q-32 64 -111 126q-34 26 -93 48t-125 20q-203 0 -372 -177t-212 -478t77 -478t312 -177t357 151q38 35 57 59l18 25l53 -51q-8 -10 -22 -28
q-13 -18 -63 -65q-50 -46 -103 -81t-134 -64t-165 -28q-233 0 -375 202q-141 203 -94 535q45 333 244 535t432 202z" />
    <glyph glyph-name="ccaron" unicode="&#x10d;" horiz-adv-x="880" 
d="M526 1208l-149 236h82l116 -184l170 184h82l-219 -236h-82zM408 61q82 0 150 38t97 77l29 39l55 -51l-15 -20t-43 -45q-126 -119 -290 -119t-260 137t-63 375q35 238 169 374t302 138q85 0 155 -39t97 -76l24 -39l-70 -51q-60 120 -217 123q-137 0 -243 -112t-135 -318
t46 -319q75 -112 212 -112z" />
    <glyph glyph-name="Dcaron" unicode="&#x10e;" horiz-adv-x="1290" 
d="M637 1618l-154 225h82l119 -174l168 174h82l-215 -225h-82zM653 1372q-172 0 -245 -31l-27 -10l-176 -1249h287q208 0 374 170t208 469t-81 475t-340 176zM675 1454q237 0 381 -202t99 -532t-240 -524q-195 -196 -434 -196h-368l194 1393q131 61 368 61z" />
    <glyph glyph-name="dcaron" unicode="&#x10f;" horiz-adv-x="1003" 
d="M1077 1331h-51l14 103h103l-10 -72q-8 -49 -36 -83t-53 -42l-22 -8l-6 31q53 20 61 71zM390 61q124 0 218 86q26 23 43 48l84 593q-4 11 -25 41q-64 90 -193 92q-130 1 -234 -112t-133 -317q-28 -204 44 -318q72 -113 196 -113zM635 82h-10q-36 -36 -112 -70
q-75 -33 -138 -32q-154 0 -247 138t-60 374q36 236 166 374t284 138q62 0 118 -26t81 -52l22 -25h11l75 533h82l-200 -1434h-82z" />
    <glyph glyph-name="Dcroat" unicode="&#x110;" horiz-adv-x="1290" 
d="M653 1372q-172 0 -245 -31l-27 -10l-49 -348h338l-13 -82h-338l-114 -819h287q208 0 374 170t208 469t-81 475t-340 176zM675 1454q237 0 381 -202t99 -532t-240 -524q-195 -196 -434 -196h-368l125 901h-134l13 82h133l57 410q131 61 368 61z" />
    <glyph glyph-name="dcroat" unicode="&#x111;" horiz-adv-x="983" 
d="M384 61q130 0 224 86q26 23 43 48l72 512q-4 11 -25 40q-66 90 -201 92q-133 1 -229 -97t-124 -292t41 -292t199 -97zM508 922q62 0 118 -26t79 -52l24 -25h10l39 287h-235l12 82h236l34 246h82l-35 -246h123l-12 -82h-123l-153 -1106h-82l10 82h-10q-36 -36 -112 -70
q-75 -33 -138 -32q-168 0 -256 124q-89 124 -57 346q32 224 155 348t291 124z" />
    <glyph glyph-name="Emacron" unicode="&#x112;" 
d="M492 1690l12 82h430l-12 -82h-430zM113 0l200 1434h727l-12 -82h-645l-51 -369h563l-12 -82h-564l-114 -819h686l-10 -82h-768z" />
    <glyph glyph-name="emacron" unicode="&#x113;" horiz-adv-x="954" 
d="M344 1290l10 72h430l-10 -72h-430zM505 922q-116 0 -211 -92t-132 -257h583q14 157 -55 253t-185 96zM408 61q82 0 150 38t97 77l29 39l55 -51l-15 -20t-43 -45q-126 -119 -290 -119t-260 137t-63 377q34 240 164 374t286 136q156 0 244 -135t55 -377h-667
q-29 -207 46 -319t212 -112z" />
    <glyph glyph-name="Edotaccent" unicode="&#x116;" 
d="M655 1679l15 103h102l-14 -103h-103zM113 0l200 1434h727l-12 -82h-645l-51 -369h563l-12 -82h-564l-114 -819h686l-10 -82h-768z" />
    <glyph glyph-name="edotaccent" unicode="&#x117;" horiz-adv-x="954" 
d="M514 1331l14 103h103l-15 -103h-102zM505 922q-116 0 -211 -92t-132 -257h583q14 157 -55 253t-185 96zM408 61q82 0 150 38t97 77l29 39l55 -51l-15 -20t-43 -45q-126 -119 -290 -119t-260 137t-63 377q34 240 164 374t286 136q156 0 244 -135t55 -377h-667
q-29 -207 46 -319t212 -112z" />
    <glyph glyph-name="Eogonek" unicode="&#x118;" 
d="M749 -430q-91 0 -137 48t-36 121t65 137t107 95l51 29h-686l200 1434h727l-12 -82h-645l-51 -369h563l-12 -82h-564l-114 -819h686l-10 -82q-8 -4 -22 -12q-181 -111 -199 -237q-6 -44 20 -72q26 -27 86 -27q59 0 121 41l31 -72q-78 -51 -169 -51z" />
    <glyph glyph-name="eogonek" unicode="&#x119;" horiz-adv-x="954" 
d="M505 922q-116 0 -211 -92t-132 -257h583q14 157 -55 253t-185 96zM390 -430q-91 0 -136 48t-36 118t56 130t91 87l41 27h-11q-168 0 -264 137t-63 377q34 240 164 374t286 136q156 0 244 -136t55 -376h-667q-29 -207 46 -319t212 -112q82 0 150 38t97 77l29 39l55 -51
q-88 -113 -217 -164q-19 -9 -62 -40q-141 -98 -157 -206q-8 -47 19 -75q27 -27 84 -27t122 41l31 -72q-78 -51 -169 -51z" />
    <glyph glyph-name="Ecaron" unicode="&#x11a;" 
d="M657 1618l-153 225h82l119 -174l167 174h82l-215 -225h-82zM113 0l200 1434h727l-12 -82h-645l-51 -369h563l-12 -82h-564l-114 -819h686l-10 -82h-768z" />
    <glyph glyph-name="ecaron" unicode="&#x11b;" horiz-adv-x="954" 
d="M506 1208l-150 236h82l117 -184l170 184h82l-219 -236h-82zM505 922q-116 0 -211 -92t-132 -257h583q14 157 -55 253t-185 96zM408 61q82 0 150 38t97 77l29 39l55 -51l-15 -20t-43 -45q-126 -119 -290 -119t-260 137t-63 377q34 240 164 374t286 136q156 0 244 -135
t55 -377h-667q-29 -207 46 -319t212 -112z" />
    <glyph glyph-name="Gbreve" unicode="&#x11e;" horiz-adv-x="1331" 
d="M831 1618q-100 0 -151 59t-43 166h82q-4 -143 124 -143t163 143h81q-23 -109 -89 -167t-167 -58zM807 1454q79 0 147 -24t133 -74q65 -51 97 -103l12 -24l-70 -51q-32 64 -111 126q-34 26 -93 48t-125 20q-203 0 -372 -177t-212 -478t77 -478t322 -178q159 0 310 119
q33 27 49 45l14 21l53 368h-379l11 82h460l-96 -696h-82l17 123h-11q-14 -16 -43 -40t-121 -64t-194 -39q-233 0 -375 202q-141 203 -94 535q45 333 244 535t432 202z" />
    <glyph glyph-name="gbreve" unicode="&#x11f;" horiz-adv-x="962" 
d="M557 1208q-100 0 -149 60t-41 176h82q-7 -154 121 -154t165 154h82q-51 -236 -260 -236zM284 814q-103 -108 -132 -312t44 -313q73 -107 198 -107t216 86q25 22 43 47l82 573q-4 11 -25 41q-66 93 -194 93q-129 0 -232 -108zM348 -287q-82 0 -152 26t-102 52l-28 25
l61 71q35 -35 101 -63q66 -29 130 -29q109 0 183 66t88 180l10 61h-10q-34 -34 -111 -68q-76 -34 -139 -34q-156 0 -249 134t-60 368t162 367q130 134 286 135q62 0 118 -26t81 -52l22 -25h11l12 82h82l-133 -942q-20 -145 -122 -237t-241 -91z" />
    <glyph glyph-name="Gcommaaccent" unicode="&#x122;" horiz-adv-x="1331" 
d="M559 -246h-51l14 103h103l-11 -72q-8 -49 -36 -83t-50 -42l-24 -8l-6 31q53 20 61 71zM807 1454q79 0 147 -24t133 -74q65 -51 97 -103l12 -24l-70 -51q-32 64 -111 126q-34 26 -93 48t-125 20q-203 0 -372 -177t-212 -478t77 -478t322 -178q159 0 310 119q33 27 49 45
l14 21l53 368h-379l11 82h460l-96 -696h-82l17 123h-11q-14 -16 -43 -40t-121 -64t-194 -39q-233 0 -375 202q-141 203 -94 535q45 333 244 535t432 202z" />
    <glyph glyph-name="gcommaaccent" unicode="&#x123;" horiz-adv-x="962" 
d="M284 814q-103 -108 -132 -312t44 -313q73 -107 198 -107t216 86q25 22 43 47l82 573q-4 11 -25 41q-66 93 -194 93q-129 0 -232 -108zM348 -287q-82 0 -152 26t-102 52l-28 25l61 71q35 -35 101 -63q66 -29 130 -29q109 0 183 66t88 180l10 61h-10q-34 -34 -111 -68
q-76 -34 -139 -34q-156 0 -249 134t-60 368t162 367q130 134 286 135q62 0 118 -26t81 -52l22 -25h11l12 82h82l-133 -942q-20 -145 -122 -237t-241 -91zM565 1331h51l-14 -102h-102l10 71q6 49 34 83t52 42l25 9l6 -31q-56 -21 -62 -72z" />
    <glyph glyph-name="Imacron" unicode="&#x12a;" horiz-adv-x="512" 
d="M174 1690l12 82h430l-12 -82h-430zM395 1434l-200 -1434h-82l200 1434h82z" />
    <glyph glyph-name="imacron" unicode="&#x12b;" horiz-adv-x="389" 
d="M57 1290l11 72h430l-11 -72h-430zM51 0l137 983h82l-137 -983h-82z" />
    <glyph glyph-name="Iogonek" unicode="&#x12e;" horiz-adv-x="512" 
d="M62 -430q-91 0 -135 48t-33 126q16 113 147 210q31 24 51 34l21 12l200 1434h82l-200 -1434q-129 -64 -189 -165q-25 -40 -32 -84t20 -72q66 -69 207 14l30 -72q-78 -51 -169 -51z" />
    <glyph glyph-name="iogonek" unicode="&#x12f;" horiz-adv-x="389" 
d="M227 1331l15 103h102l-14 -103h-103zM1 -430q-91 0 -135 48t-35 121t65 137t104 95l51 29l137 983h82l-137 -983q-8 -4 -21 -12q-179 -110 -199 -237q-7 -44 19 -72q26 -27 84 -27q57 0 123 41l31 -72q-78 -51 -169 -51z" />
    <glyph glyph-name="Idotaccent" unicode="&#x130;" horiz-adv-x="512" 
d="M338 1679l14 103h103l-15 -103h-102zM395 1434l-200 -1434h-82l200 1434h82z" />
    <glyph glyph-name="dotlessi" unicode="&#x131;" horiz-adv-x="389" 
d="M51 0l137 983h82l-137 -983h-82z" />
    <glyph glyph-name="Kcommaaccent" unicode="&#x136;" horiz-adv-x="1167" 
d="M508 -246h-51l14 103h102l-10 -72q-8 -49 -36 -83t-52 -42l-22 -8l-7 31q54 20 62 71zM922 0l-400 737l-266 -286l-61 -451h-82l200 1434h82l-119 -850l775 850h102l-569 -625l440 -809h-102z" />
    <glyph glyph-name="kcommaaccent" unicode="&#x137;" horiz-adv-x="860" 
d="M344 -246h-51l14 103h103l-11 -72q-7 -49 -35 -83t-53 -42l-22 -8l-6 31q53 20 61 71zM635 0l-281 492l-168 -175l-43 -317h-82l201 1434h82l-139 -994h10l516 543h103l-410 -430l313 -553h-102z" />
    <glyph glyph-name="Lacute" unicode="&#x139;" horiz-adv-x="1003" 
d="M350 1618l174 225h82l-194 -225h-62zM113 0l200 1434h82l-190 -1352h645l-10 -82h-727z" />
    <glyph glyph-name="lacute" unicode="&#x13a;" horiz-adv-x="450" 
d="M299 1618l174 225h82l-195 -225h-61zM205 82h41l-31 -82h-31q-53 0 -84 35t-22 88l184 1311h82l-182 -1301q-6 -51 43 -51z" />
    <glyph glyph-name="Lcommaaccent" unicode="&#x13b;" horiz-adv-x="1003" 
d="M446 -246h-51l15 103h102l-10 -72q-8 -49 -36 -83t-52 -42l-23 -8l-6 31q53 20 61 71zM113 0l200 1434h82l-190 -1352h645l-10 -82h-727z" />
    <glyph glyph-name="lcommaaccent" unicode="&#x13c;" horiz-adv-x="450" 
d="M109 -246h-52l15 103h102l-10 -72q-8 -49 -36 -83t-50 -42l-25 -8l-6 31q54 20 62 71zM205 82h41l-31 -82h-31q-53 0 -84 35t-22 88l184 1311h82l-182 -1301q-6 -51 43 -51z" />
    <glyph glyph-name="Lcaron" unicode="&#x13d;" horiz-adv-x="1003" 
d="M606 1331h-51l14 103h103l-10 -72q-8 -49 -36 -83t-53 -42l-22 -8l-6 31q53 20 61 71zM113 0l200 1434h82l-190 -1352h645l-10 -82h-727z" />
    <glyph glyph-name="lcaron" unicode="&#x13e;" horiz-adv-x="440" 
d="M514 1331h-51l14 103h103l-11 -72q-7 -49 -35 -83t-51 -42l-24 -8l-6 31q53 20 61 71zM205 82h41l-31 -82h-31q-53 0 -84 35t-22 88l184 1311h82l-182 -1301q-6 -51 43 -51z" />
    <glyph glyph-name="Lslash" unicode="&#x141;" horiz-adv-x="1013" 
d="M123 0l82 584l-178 -92l14 92l176 92l107 758h82l-101 -717l420 225l-12 -92l-422 -225l-76 -543h645l-10 -82h-727z" />
    <glyph glyph-name="lslash" unicode="&#x142;" horiz-adv-x="440" 
d="M205 82h41l-31 -82h-31q-53 0 -84 35t-22 88l88 625l-137 -93l14 93l135 92l84 594h82l-76 -543l168 113l-12 -93l-170 -112l-92 -666q-6 -51 43 -51z" />
    <glyph glyph-name="Nacute" unicode="&#x143;" horiz-adv-x="1392" 
d="M770 1618l174 225h82l-195 -225h-61zM993 0l-612 1260h-10l-176 -1260h-82l200 1434h82l611 -1260h10l178 1260h82l-201 -1434h-82z" />
    <glyph glyph-name="nacute" unicode="&#x144;" horiz-adv-x="942" 
d="M465 1208l178 236h82l-199 -236h-61zM518 1004q131 0 207 -92t55 -236l-94 -676h-82l94 676q14 114 -39 180t-167 66t-205 -86q-26 -23 -43 -48l-111 -788h-82l137 983h82l-12 -82h10q36 36 112 70q75 33 138 33z" />
    <glyph glyph-name="Ncommaaccent" unicode="&#x145;" horiz-adv-x="1392" 
d="M559 -246h-51l14 103h103l-11 -72q-8 -49 -36 -83t-50 -42l-24 -8l-6 31q53 20 61 71zM993 0l-612 1260h-10l-176 -1260h-82l200 1434h82l611 -1260h10l178 1260h82l-201 -1434h-82z" />
    <glyph glyph-name="ncommaaccent" unicode="&#x146;" horiz-adv-x="942" 
d="M334 -246h-51l14 103h102l-10 -72q-8 -49 -36 -83t-50 -42l-24 -8l-7 31q54 20 62 71zM518 1004q131 0 207 -92t55 -236l-94 -676h-82l94 676q14 114 -39 180t-167 66t-205 -86q-26 -23 -43 -48l-111 -788h-82l137 983h82l-12 -82h10q36 36 112 70q75 33 138 33z" />
    <glyph glyph-name="Ncaron" unicode="&#x147;" horiz-adv-x="1392" 
d="M780 1618l-153 225h82l118 -174l168 174h82l-215 -225h-82zM993 0l-612 1260h-10l-176 -1260h-82l200 1434h82l611 -1260h10l178 1260h82l-201 -1434h-82z" />
    <glyph glyph-name="ncaron" unicode="&#x148;" horiz-adv-x="942" 
d="M496 1208l-150 236h82l117 -184l170 184h82l-219 -236h-82zM518 1004q131 0 207 -92t55 -236l-94 -676h-82l94 676q14 114 -39 180t-167 66t-205 -86q-26 -23 -43 -48l-111 -788h-82l137 983h82l-12 -82h10q36 36 112 70q75 33 138 33z" />
    <glyph glyph-name="Omacron" unicode="&#x14c;" horiz-adv-x="1413" 
d="M625 1690l12 82h430l-12 -82h-430zM796 1372q-202 0 -371 -177t-212 -478t77 -478t322 -177t372 176q169 178 212 479t-77 478q-121 177 -323 177zM807 1454q233 0 375 -203t95 -535q-46 -332 -245 -534t-432 -202t-375 202q-141 203 -94 535q45 333 244 535t432 202z
" />
    <glyph glyph-name="omacron" unicode="&#x14d;" horiz-adv-x="1003" 
d="M365 1290l10 72h430l-10 -72h-430zM408 61q137 0 242 112t134 319q29 206 -45 318t-211 112t-243 -112t-135 -318q-29 -207 46 -319t212 -112zM395 -20q-168 0 -264 137t-63 375q35 238 169 374t303 138q169 0 265 -138t62 -374q-34 -238 -169 -375t-303 -137z" />
    <glyph glyph-name="Ohungarumlaut" unicode="&#x150;" horiz-adv-x="1413" 
d="M934 1618l174 225h82l-195 -225h-61zM668 1618l174 225h82l-195 -225h-61zM796 1372q-202 0 -371 -177t-212 -478t77 -478t322 -177t372 176q169 178 212 479t-77 478q-121 177 -323 177zM807 1454q233 0 375 -203t95 -535q-46 -332 -245 -534t-432 -202t-375 202
q-141 203 -94 535q45 333 244 535t432 202z" />
    <glyph glyph-name="ohungarumlaut" unicode="&#x151;" horiz-adv-x="1003" 
d="M670 1208l178 236h82l-199 -236h-61zM403 1208l179 236h82l-199 -236h-62zM408 61q137 0 242 112t134 319q29 206 -45 318t-211 112t-243 -112t-135 -318q-29 -207 46 -319t212 -112zM395 -20q-168 0 -264 137t-63 375q35 238 169 374t303 138q169 0 265 -138t62 -374
q-34 -238 -169 -375t-303 -137z" />
    <glyph glyph-name="OE" unicode="&#x152;" horiz-adv-x="1617" 
d="M793 1352q-209 0 -374 -169t-206 -466t76 -466t325 -169h103l178 1270h-102zM604 0q-240 0 -379 196t-94 522t240 520q195 196 434 196h788l-12 -82h-604l-51 -369h522l-12 -82h-523l-114 -819h645l-10 -82h-830z" />
    <glyph glyph-name="oe" unicode="&#x153;" horiz-adv-x="1597" 
d="M1161 922q-100 0 -189 -92t-134 -257h551q8 153 -60 251t-168 98zM388 61q122 0 224 113t131 318q29 206 -42 318t-193 112t-226 -112q-103 -112 -132 -318q-29 -205 43 -318q73 -113 195 -113zM1074 61q134 0 245 154l55 -51l-15 -20t-42 -45q-123 -119 -248 -119
q-154 0 -223 87t-84 150l-8 29h-9q-13 -33 -54 -86q-40 -53 -80 -88t-103 -64t-133 -28q-154 0 -247 138t-60 374q36 236 166 374t284 138q72 0 128 -29t86 -69q63 -84 75 -150l6 -29h8q5 9 15 29t44 67t71 84q39 37 99 67t124 30q141 0 230 -140t56 -372h-635
q-29 -205 43 -318t206 -113z" />
    <glyph glyph-name="Racute" unicode="&#x154;" horiz-adv-x="1320" 
d="M719 1618l174 225h82l-195 -225h-61zM653 573q190 0 327 114q136 114 159 286q25 171 -83 285t-317 114t-319 -31l-39 -10l-107 -758h379zM756 1454q233 0 363 -139t102 -342q-15 -98 -61 -181t-102 -130q-119 -100 -202 -127l-37 -13v-10l266 -512h-92l-250 492h-481
l-67 -492h-82l194 1393q162 61 449 61z" />
    <glyph glyph-name="racute" unicode="&#x155;" horiz-adv-x="624" 
d="M403 1208l179 236h82l-199 -236h-62zM432 922q-45 0 -93 -33t-73 -66l-22 -35l-111 -788h-82l137 983h82l-12 -82h10q24 36 82 70q58 33 110 33t94 -29t56 -57l17 -27l-70 -51l-11 22q-7 14 -38 37t-76 23z" />
    <glyph glyph-name="Rcommaaccent" unicode="&#x156;" horiz-adv-x="1320" 
d="M528 -246h-51l15 103h102l-10 -72q-8 -49 -36 -83t-52 -42l-23 -8l-6 31q53 20 61 71zM653 573q190 0 327 114q136 114 159 286q25 171 -83 285t-317 114t-319 -31l-39 -10l-107 -758h379zM756 1454q233 0 363 -139t102 -342q-15 -98 -61 -181t-102 -130
q-119 -100 -202 -127l-37 -13v-10l266 -512h-92l-250 492h-481l-67 -492h-82l194 1393q162 61 449 61z" />
    <glyph glyph-name="rcommaaccent" unicode="&#x157;" horiz-adv-x="624" 
d="M57 -246h-51l14 103h103l-10 -72q-8 -49 -36 -83t-52 -42l-23 -8l-6 31q53 20 61 71zM432 922q-45 0 -93 -33t-73 -66l-22 -35l-111 -788h-82l137 983h82l-12 -82h10q24 36 82 70q58 33 110 33t94 -29t56 -57l17 -27l-70 -51l-11 22q-7 14 -38 37t-76 23z" />
    <glyph glyph-name="Rcaron" unicode="&#x158;" horiz-adv-x="1320" 
d="M729 1618l-154 225h82l119 -174l168 174h82l-215 -225h-82zM653 573q190 0 327 114q136 114 159 286q25 171 -83 285t-317 114t-319 -31l-39 -10l-107 -758h379zM756 1454q233 0 363 -139t102 -342q-15 -98 -61 -181t-102 -130q-119 -100 -202 -127l-37 -13v-10l266 -512
h-92l-250 492h-481l-67 -492h-82l194 1393q162 61 449 61z" />
    <glyph glyph-name="rcaron" unicode="&#x159;" horiz-adv-x="624" 
d="M403 1208l-149 236h82l117 -184l170 184h82l-220 -236h-82zM432 922q-45 0 -93 -33t-73 -66l-22 -35l-111 -788h-82l137 983h82l-12 -82h10q24 36 82 70q58 33 110 33t94 -29t56 -57l17 -27l-70 -51l-11 22q-7 14 -38 37t-76 23z" />
    <glyph glyph-name="Sacute" unicode="&#x15a;" horiz-adv-x="1105" 
d="M616 1618l175 225h81l-194 -225h-62zM633 1372q-129 0 -218 -73t-103 -170q-26 -172 151 -247q207 -87 322 -159q73 -45 114 -133t25 -211q-23 -164 -164 -282q-142 -117 -324 -117q-84 0 -156 28t-118 66q-98 85 -125 143l-14 29l69 51q13 -32 48 -77q36 -46 73 -77
t100 -57t136 -25q151 1 263 93t129 219t-45 207t-162 124t-198 88q-100 44 -163 123q-62 80 -44 211q19 132 137 230t284 98t297 -132q30 -30 44 -52l13 -21l-68 -51q-116 174 -303 174z" />
    <glyph glyph-name="sacute" unicode="&#x15b;" horiz-adv-x="798" 
d="M414 1208l178 236h82l-199 -236h-61zM402 1004q100 0 170 -39t96 -76l24 -39l-69 -51q-61 121 -236 123q-63 0 -121 -45t-67 -112q-10 -67 37 -114q48 -47 118 -76t141 -61t115 -98q44 -64 28 -168t-116 -186t-228 -82t-199 60t-95 103l-8 21l67 51q4 -13 27 -47
q70 -105 219 -107q98 -1 170 57t82 136q18 137 -151 208q-72 30 -143 62t-115 93t-30 153t99 163t185 71z" />
    <glyph glyph-name="Scedilla" unicode="&#x15e;" horiz-adv-x="1105" 
d="M633 1372q-129 0 -218 -73t-103 -170q-26 -172 151 -247q207 -87 322 -159q73 -45 114 -133t21 -226t-149 -254q-130 -114 -294 -130l-12 -82q69 0 111 -46t32 -113t-74 -118t-155 -51q-41 0 -80 12t-57 25l-21 14l51 72q46 -41 112 -41t101 26t40 60t-14 56t-56 22h-82
l22 164q-73 6 -139 36t-129 88q-63 59 -90 117l-14 25l69 51q13 -32 48 -77q36 -46 73 -77t100 -57t136 -25q151 1 263 93t129 219t-45 207t-162 124t-198 88q-100 44 -163 123q-62 80 -44 211q19 132 137 230t284 98t297 -132q30 -30 44 -52l13 -21l-68 -51
q-116 174 -303 174z" />
    <glyph glyph-name="scedilla" unicode="&#x15f;" horiz-adv-x="798" 
d="M402 1004q100 0 170 -39t96 -76l24 -39l-69 -51q-61 121 -236 123q-63 0 -121 -45t-67 -112q-10 -67 37 -114q48 -47 118 -76t141 -61t115 -98q44 -64 29 -161q-14 -97 -100 -175t-205 -100l-12 -82q68 0 110 -46t33 -113q-10 -67 -75 -118t-151 -51t-141 37l-20 14
l51 72q47 -41 113 -41t100 26q35 26 40 60t-14 56t-57 22h-82l23 164q-109 12 -171 71q-63 58 -89 113l67 51q4 -13 27 -47q70 -105 219 -107q98 -1 170 57t82 136q18 137 -151 208q-72 30 -143 62t-115 93t-30 153t99 163t185 71z" />
    <glyph glyph-name="Scaron" unicode="&#x160;" horiz-adv-x="1105" 
d="M627 1618l-154 225h82l119 -174l168 174h82l-215 -225h-82zM633 1372q-129 0 -218 -73t-103 -170q-26 -172 151 -247q207 -87 322 -159q73 -45 114 -133t25 -211q-23 -164 -164 -282q-142 -117 -324 -117q-84 0 -156 28t-118 66q-98 85 -125 143l-14 29l69 51
q13 -32 48 -77q36 -46 73 -77t100 -57t136 -25q151 1 263 93t129 219t-45 207t-162 124t-198 88q-100 44 -163 123q-62 80 -44 211q19 132 137 230t284 98t297 -132q30 -30 44 -52l13 -21l-68 -51q-116 174 -303 174z" />
    <glyph glyph-name="scaron" unicode="&#x161;" horiz-adv-x="798" 
d="M403 1208l-149 236h82l117 -184l170 184h82l-220 -236h-82zM402 1004q100 0 170 -39t96 -76l24 -39l-69 -51q-61 121 -236 123q-63 0 -121 -45t-67 -112q-10 -67 37 -114q48 -47 118 -76t141 -61t115 -98q44 -64 28 -168t-116 -186t-228 -82t-199 60t-95 103l-8 21l67 51
q4 -13 27 -47q70 -105 219 -107q98 -1 170 57t82 136q18 137 -151 208q-72 30 -143 62t-115 93t-30 153t99 163t185 71z" />
    <glyph glyph-name="Tcommaaccent" unicode="&#x162;" horiz-adv-x="962" 
d="M344 -246h-51l14 103h103l-11 -72q-7 -49 -35 -83t-53 -42l-22 -8l-6 31q53 20 61 71zM608 1352l-188 -1352h-82l188 1352h-379l13 82h839l-12 -82h-379z" />
    <glyph glyph-name="tcommaaccent" unicode="&#x163;" horiz-adv-x="532" 
d="M170 -246h-51l14 103h103l-11 -72q-8 -49 -36 -83t-50 -42l-24 -8l-6 31q53 20 61 71zM225 82h113l-10 -82h-123q-53 0 -84 35t-23 88l109 778h-123l12 82h123l35 246l88 41l-41 -287h143l-12 -82h-143l-107 -768q-6 -51 43 -51z" />
    <glyph glyph-name="Tcaron" unicode="&#x164;" horiz-adv-x="962" 
d="M565 1618l-153 225h82l118 -174l168 174h82l-215 -225h-82zM608 1352l-188 -1352h-82l188 1352h-379l13 82h839l-12 -82h-379z" />
    <glyph glyph-name="tcaron" unicode="&#x165;" horiz-adv-x="542" 
d="M535 1331h-52l15 103h102l-10 -72q-8 -49 -36 -83t-50 -42l-25 -8l-6 31q54 20 62 71zM225 82h113l-10 -82h-123q-53 0 -84 35t-23 88l109 778h-123l12 82h123l35 246l88 41l-41 -287h143l-12 -82h-143l-107 -768q-6 -51 43 -51z" />
    <glyph glyph-name="Umacron" unicode="&#x16a;" horiz-adv-x="1372" 
d="M604 1690l12 82h431l-13 -82h-430zM580 -20q-208 0 -321 137q-112 137 -79 364l133 953h82l-133 -953q-28 -197 62 -309t268 -111t298 111t150 309l134 953h81l-133 -953q-34 -229 -184 -365t-358 -136z" />
    <glyph glyph-name="umacron" unicode="&#x16b;" horiz-adv-x="942" 
d="M334 1290l10 72h430l-10 -72h-430zM381 61q113 0 207 86q26 23 43 48l110 788h82l-137 -983h-82l10 82h-10q-36 -36 -112 -70q-75 -33 -138 -32q-133 0 -207 92t-53 235l94 676h82l-94 -676q-16 -115 38 -181t167 -65z" />
    <glyph glyph-name="Uring" unicode="&#x16e;" horiz-adv-x="1372" 
d="M852 1915q70 0 114 -54t34 -130t-70 -130q-59 -55 -129 -55t-115 54t-35 131q11 76 71 130t130 54zM811 1618q43 0 77 32t40 81q8 49 -18 81t-68 31q-42 1 -77 -31q-34 -32 -41 -81q-8 -49 18 -81t69 -32zM580 -20q-208 0 -321 137q-112 137 -79 364l133 953h82
l-133 -953q-28 -197 62 -309t268 -111t298 111t150 309l134 953h81l-133 -953q-34 -229 -184 -365t-358 -136z" />
    <glyph glyph-name="uring" unicode="&#x16f;" horiz-adv-x="942" 
d="M528 1147q-70 0 -114 54t-33 130t71 130q60 55 130 55t114 -54t33 -131q-11 -76 -71 -130t-130 -54zM571 1444q-43 0 -77 -32t-42 -81t18 -81t69 -32t77 32t40 82q7 50 -17 81q-25 31 -68 31zM381 61q113 0 207 86q26 23 43 48l110 788h82l-137 -983h-82l10 82h-10
q-36 -36 -112 -70q-75 -33 -138 -32q-133 0 -207 92t-53 235l94 676h82l-94 -676q-16 -115 38 -181t167 -65z" />
    <glyph glyph-name="Uhungarumlaut" unicode="&#x170;" horiz-adv-x="1372" 
d="M913 1618l174 225h82l-194 -225h-62zM647 1618l174 225h82l-194 -225h-62zM580 -20q-208 0 -321 137q-112 137 -79 364l133 953h82l-133 -953q-28 -197 62 -309t268 -111t298 111t150 309l134 953h81l-133 -953q-34 -229 -184 -365t-358 -136z" />
    <glyph glyph-name="uhungarumlaut" unicode="&#x171;" horiz-adv-x="942" 
d="M639 1208l178 236h82l-199 -236h-61zM373 1208l178 236h82l-199 -236h-61zM381 61q113 0 207 86q26 23 43 48l110 788h82l-137 -983h-82l10 82h-10q-36 -36 -112 -70q-75 -33 -138 -32q-133 0 -207 92t-53 235l94 676h82l-94 -676q-16 -115 38 -181t167 -65z" />
    <glyph glyph-name="Uogonek" unicode="&#x172;" horiz-adv-x="1372" 
d="M564 -430q-91 0 -136 48t-36 118q8 70 56 130t89 87l43 27q-209 0 -321 137t-79 364l133 953h82l-133 -953q-28 -197 62 -309t268 -111q178 0 299 111t149 309l134 953h81l-133 -953q-30 -207 -156 -337t-292 -154q-9 -4 -52 -37q-129 -98 -143 -184q-20 -117 105 -117
q61 0 118 41l31 -72q-78 -51 -169 -51z" />
    <glyph glyph-name="uogonek" unicode="&#x173;" horiz-adv-x="942" 
d="M554 -430q-91 0 -136 48t-36 121t64 137t107 95l51 29l10 82h-10q-36 -36 -112 -70q-75 -33 -138 -32q-133 0 -207 92t-53 235l94 676h82l-94 -676q-16 -115 38 -181t167 -65q113 0 207 86q26 23 43 48l110 788h82l-137 -983q-8 -4 -21 -12q-179 -110 -199 -237
q-6 -44 20 -72q26 -27 83 -27t123 41l31 -72q-78 -51 -169 -51z" />
    <glyph glyph-name="Ydieresis" unicode="&#x178;" 
d="M748 1690l14 92h92l-14 -92h-92zM492 1690l14 92h92l-14 -92h-92zM549 829l471 605h92l-537 -686l-104 -748h-82l105 748l-344 686h92l299 -605h8z" />
    <glyph glyph-name="Zacute" unicode="&#x179;" 
d="M637 1618l174 225h82l-195 -225h-61zM967 1352h-738l13 82h839l-12 -82l-975 -1260l-2 -10h799l-10 -82h-901l10 82l977 1259v11z" />
    <glyph glyph-name="zacute" unicode="&#x17a;" horiz-adv-x="727" 
d="M393 1208l178 236h82l-198 -236h-62zM575 901h-440l12 82h543l-10 -72l-596 -819l-2 -10h481l-10 -82h-584l8 72l598 819v10z" />
    <glyph glyph-name="Zdotaccent" unicode="&#x17b;" 
d="M625 1679l14 103h102l-14 -103h-102zM967 1352h-738l13 82h839l-12 -82l-975 -1260l-2 -10h799l-10 -82h-901l10 82l977 1259v11z" />
    <glyph glyph-name="zdotaccent" unicode="&#x17c;" horiz-adv-x="727" 
d="M401 1331l15 103h102l-14 -103h-103zM575 901h-440l12 82h543l-10 -72l-596 -819l-2 -10h481l-10 -82h-584l8 72l598 819v10z" />
    <glyph glyph-name="Zcaron" unicode="&#x17d;" 
d="M627 1618l-154 225h82l119 -174l168 174h82l-215 -225h-82zM967 1352h-738l13 82h839l-12 -82l-975 -1260l-2 -10h799l-10 -82h-901l10 82l977 1259v11z" />
    <glyph glyph-name="zcaron" unicode="&#x17e;" horiz-adv-x="727" 
d="M393 1208l-149 236h82l116 -184l170 184h82l-219 -236h-82zM575 901h-440l12 82h543l-10 -72l-596 -819l-2 -10h481l-10 -82h-584l8 72l598 819v10z" />
    <glyph glyph-name="florin" unicode="&#x192;" horiz-adv-x="512" 
d="M414 1352h102l-10 -82h-92q-23 0 -40 -14t-20 -37l-32 -236h143l-12 -82h-144l-145 -1044q-8 -53 -48 -88t-93 -35h-31l-8 82h41q51 0 57 51l145 1034h-123l13 82h123l34 246q8 53 48 88t92 35z" />
    <glyph glyph-name="Scommaaccent" unicode="&#x218;" horiz-adv-x="1105" 
d="M406 -246h-52l15 103h102l-10 -72q-8 -49 -36 -83t-52 -42l-23 -8l-6 31q54 20 62 71zM633 1372q-129 0 -218 -73t-103 -170q-26 -172 151 -247q207 -87 322 -159q73 -45 114 -133t25 -211q-23 -164 -164 -282q-142 -117 -324 -117q-84 0 -156 28t-118 66
q-98 85 -125 143l-14 29l69 51q13 -32 48 -77q36 -46 73 -77t100 -57t136 -25q151 1 263 93t129 219t-45 207t-162 124t-198 88q-100 44 -163 123q-62 80 -44 211q19 132 137 230t284 98t297 -132q30 -30 44 -52l13 -21l-68 -51q-116 174 -303 174z" />
    <glyph glyph-name="scommaaccent" unicode="&#x219;" horiz-adv-x="798" 
d="M262 -246h-51l14 103h103l-11 -72q-7 -49 -35 -83t-53 -42l-22 -8l-6 31q53 20 61 71zM402 1004q100 0 170 -39t96 -76l24 -39l-69 -51q-61 121 -236 123q-63 0 -121 -45t-67 -112q-10 -67 37 -114q48 -47 118 -76t141 -61t115 -98q44 -64 28 -168t-116 -186t-228 -82
t-199 60t-95 103l-8 21l67 51q4 -13 27 -47q70 -105 219 -107q98 -1 170 57t82 136q18 137 -151 208q-72 30 -143 62t-115 93t-30 153t99 163t185 71z" />
    <glyph glyph-name="afii57929" unicode="&#x2bc;" horiz-adv-x="225" 
d="M197 1331h-52l15 103h102l-10 -72q-8 -49 -36 -83t-52 -42l-23 -8l-6 31q54 20 62 71z" />
    <glyph glyph-name="circumflex" unicode="&#x2c6;" horiz-adv-x="573" 
d="M428 1444l150 -236h-82l-117 185l-170 -185h-82l219 236h82z" />
    <glyph glyph-name="caron" unicode="&#x2c7;" horiz-adv-x="573" 
d="M311 1208l-149 236h82l116 -184l170 184h82l-219 -236h-82z" />
    <glyph glyph-name="breve" unicode="&#x2d8;" horiz-adv-x="573" 
d="M352 1208q-100 0 -149 60t-41 176h82q-6 -154 122 -154t164 154h82q-51 -236 -260 -236z" />
    <glyph glyph-name="dotaccent" unicode="&#x2d9;" horiz-adv-x="225" 
d="M145 1331l15 103h102l-14 -103h-103z" />
    <glyph glyph-name="ring" unicode="&#x2da;" horiz-adv-x="471" 
d="M293 1147q-70 0 -114 54t-34 130q11 76 71 130q60 55 130 55t114 -54t34 -131q-10 -76 -70 -130t-131 -54zM334 1444q-44 0 -77 -32q-34 -32 -41 -81q-8 -49 18 -81t69 -32t77 32t41 82t-18 81t-69 31z" />
    <glyph glyph-name="ogonek" unicode="&#x2db;" horiz-adv-x="481" 
d="M93 -430q-91 0 -136 48t-36 121t65 137t106 95l51 29h82q-19 -9 -62 -40q-141 -98 -157 -206q-8 -47 19 -75q27 -27 88 -27t118 41l31 -72q-78 -51 -169 -51z" />
    <glyph glyph-name="tilde" unicode="&#x2dc;" horiz-adv-x="614" 
d="M481 1239q-45 0 -106 51t-84 51q-49 0 -76 -102h-82q53 184 168 184q45 0 107 -51t84 -51q48 0 75 102h82q-53 -184 -168 -184z" />
    <glyph glyph-name="hungarumlaut" unicode="&#x2dd;" horiz-adv-x="614" 
d="M393 1208l178 236h82l-198 -236h-62zM127 1208l178 236h82l-199 -236h-61z" />
    <glyph glyph-name="afii10023" unicode="&#x401;" 
d="M799 1690l14 92h92l-14 -92h-92zM543 1690l14 92h92l-14 -92h-92zM113 0l200 1434h727l-12 -82h-645l-51 -369h563l-12 -82h-564l-114 -819h686l-10 -82h-768z" />
    <glyph glyph-name="afii10051" unicode="&#x402;" horiz-adv-x="1300" 
d="M764 860q194 0 302 -118t79 -312t-168 -312t-352 -118l10 82q182 0 294 92q111 92 134 256t-63 256t-259 92q-174 0 -282 -30l-39 -11l-103 -737h-81l188 1352h-338l12 82h779l-13 -82h-358l-74 -533q138 41 332 41z" />
    <glyph glyph-name="afii10052" unicode="&#x403;" horiz-adv-x="931" 
d="M637 1618l174 225h82l-195 -225h-61zM113 0l200 1434h697l-13 -82h-614l-188 -1352h-82z" />
    <glyph glyph-name="afii10053" unicode="&#x404;" horiz-adv-x="1228" 
d="M807 1454q79 0 147 -24t133 -74q65 -51 97 -103l12 -24l-70 -51q-32 64 -111 126q-34 26 -93 48t-125 20q-188 0 -344 -145t-213 -387h614l-10 -82h-625l-6 -41q-43 -301 77 -478t312 -177t357 151q38 35 57 59l18 25l53 -51q-8 -10 -22 -28q-13 -18 -63 -65
q-50 -46 -103 -81t-134 -64t-165 -28q-233 0 -375 202q-141 203 -94 535q45 333 244 535t432 202z" />
    <glyph glyph-name="afii10054" unicode="&#x405;" horiz-adv-x="1105" 
d="M633 1372q-129 0 -218 -73t-103 -170q-26 -172 151 -247q207 -87 322 -159q73 -45 114 -133t25 -211q-23 -164 -164 -282q-142 -117 -324 -117q-84 0 -156 28t-118 66q-98 85 -125 143l-14 29l69 51q13 -32 48 -77q36 -46 73 -77t100 -57t136 -25q151 1 263 93t129 219
t-45 207t-162 124t-198 88q-100 44 -163 123q-62 80 -44 211q19 132 137 230t284 98t297 -132q30 -30 44 -52l13 -21l-68 -51q-116 174 -303 174z" />
    <glyph glyph-name="afii10055" unicode="&#x406;" horiz-adv-x="512" 
d="M395 1434l-200 -1434h-82l200 1434h82z" />
    <glyph glyph-name="afii10056" unicode="&#x407;" horiz-adv-x="512" 
d="M471 1690l14 92h93l-15 -92h-92zM215 1690l14 92h93l-15 -92h-92zM395 1434l-200 -1434h-82l200 1434h82z" />
    <glyph glyph-name="afii10057" unicode="&#x408;" horiz-adv-x="665" 
d="M0 0l10 82q139 0 213 68t94 219l150 1065h82l-150 -1065q-51 -369 -399 -369z" />
    <glyph glyph-name="afii10058" unicode="&#x409;" horiz-adv-x="1945" 
d="M1249 82q184 0 314 115q129 115 157 307t-73 304q-100 114 -299 114q-96 0 -180 -12t-119 -25l-37 -15l-111 -788h348zM1239 0h-430l188 1352h-491l-213 -1004q-35 -168 -138 -258t-257 -90l10 82q246 0 303 266l235 1086h646l-68 -482q139 52 351 52t334 -140t91 -361
q-31 -222 -188 -363q-158 -140 -373 -140z" />
    <glyph glyph-name="afii10059" unicode="&#x40a;" horiz-adv-x="2027" 
d="M1331 82q184 0 313 113q128 113 154 297q28 184 -70 296t-282 113h-338l-115 -819h338zM1458 983q215 0 334 -138t89 -353t-187 -354q-158 -138 -373 -138h-420l125 901h-707l-124 -901h-82l200 1434h82l-63 -451h706l64 451h82l-64 -451h338z" />
    <glyph glyph-name="afii10060" unicode="&#x40b;" horiz-adv-x="1320" 
d="M764 860q192 0 296 -109q103 -110 79 -290l-64 -461h-82l64 461q20 149 -62 233t-255 84t-281 -30l-39 -11l-103 -737h-81l188 1352h-338l12 82h779l-13 -82h-358l-74 -533q140 41 332 41z" />
    <glyph glyph-name="afii10061" unicode="&#x40c;" horiz-adv-x="1116" 
d="M678 1618l174 225h82l-195 -225h-61zM901 0l-344 758h-256l-106 -758h-82l200 1434h82l-84 -594h246l473 594h92l-497 -625l368 -809h-92z" />
    <glyph glyph-name="afii10062" unicode="&#x40e;" 
d="M172 0l10 82q197 0 273 174l-295 1178h82l262 -1045h10l506 1045h82l-563 -1168q-70 -142 -151 -204t-216 -62zM672 1577q-115 0 -177 72t-53 194h82q-4 -84 38 -134t119 -50t134 50t78 134h82q-25 -123 -107 -195t-196 -71z" />
    <glyph glyph-name="afii10145" unicode="&#x40f;" horiz-adv-x="1372" 
d="M395 1434l-190 -1352h778l191 1352h81l-200 -1434h-430l-39 -266h-82l39 266h-430l200 1434h82z" />
    <glyph glyph-name="afii10017" unicode="&#x410;" horiz-adv-x="1198" 
d="M676 1321l-410 -870h584l-164 870h-10zM743 1434l281 -1434h-82l-72 369h-645l-174 -369h-82l682 1434h92z" />
    <glyph glyph-name="afii10018" unicode="&#x411;" horiz-adv-x="1300" 
d="M584 82q196 0 328 108t157 282q25 173 -79 281t-316 107q-109 0 -201 -12t-129 -25l-37 -14l-102 -727h379zM692 942q234 0 361 -133t98 -337t-189 -338t-389 -134h-460l200 1434h830l-13 -82h-747l-64 -461q139 51 373 51z" />
    <glyph glyph-name="afii10019" unicode="&#x412;" horiz-adv-x="1259" 
d="M680 840q134 0 226 74t109 193q17 121 -63 193t-264 72t-274 -31l-33 -10l-70 -491h369zM700 758h-399l-96 -676h399q174 0 284 91q109 91 132 247q22 156 -62 247t-258 91zM594 0h-481l194 1393q151 61 379 61t330 -98t80 -250q-20 -150 -159 -248q-32 -23 -52 -31
l-23 -8l-2 -10q36 -6 90 -39q55 -33 88 -72q32 -38 54 -112t10 -166q-27 -186 -165 -303t-343 -117z" />
    <glyph glyph-name="afii10020" unicode="&#x413;" horiz-adv-x="931" 
d="M113 0l200 1434h697l-13 -82h-614l-188 -1352h-82z" />
    <glyph glyph-name="afii10021" unicode="&#x414;" horiz-adv-x="1239" 
d="M113 82l706 -6l178 1276h-522l-213 -1004q-20 -100 -57 -164t-64 -78l-26 -14zM913 -266l39 266h-952l-39 -266h-80l47 348h72q82 27 143 152q25 50 37 114l236 1086h676l-191 -1352h143l-49 -348h-82z" />
    <glyph glyph-name="afii10022" unicode="&#x415;" 
d="M113 0l200 1434h727l-12 -82h-645l-51 -369h563l-12 -82h-564l-114 -819h686l-10 -82h-768z" />
    <glyph glyph-name="afii10024" unicode="&#x416;" horiz-adv-x="1638" 
d="M958 1434l-84 -594h246l432 594h93l-457 -625l328 -809h-93l-303 758h-256l-106 -758h-82l106 758h-256l-516 -758h-92l553 809l-281 625h93l264 -594h246l84 594h81z" />
    <glyph glyph-name="afii10025" unicode="&#x417;" horiz-adv-x="1054" 
d="M418 61q154 -1 266 97t131 252q23 154 -61 250t-238 98h-164l10 82h154q142 0 230 70t104 196q18 125 -46 196q-65 71 -202 70q-90 0 -178 -43t-131 -88l-43 -43l-55 51q21 28 70 68q172 140 343 138q172 -1 259 -97t65 -252q-14 -108 -79 -184t-120 -99l-57 -20l-2 -8
q28 -6 81 -40q52 -34 83 -73t51 -112t8 -160q-27 -184 -167 -308t-324 -122q-84 0 -157 28t-118 66q-94 81 -127 143l-12 29l69 51q12 -29 48 -76q37 -47 73 -78t100 -57t136 -25z" />
    <glyph glyph-name="afii10026" unicode="&#x418;" horiz-adv-x="1372" 
d="M973 0l176 1260h-10l-944 -1260h-82l200 1434h82l-178 -1260h10l947 1260h81l-200 -1434h-82z" />
    <glyph glyph-name="afii10027" unicode="&#x419;" horiz-adv-x="1372" 
d="M973 0l176 1260h-10l-944 -1260h-82l200 1434h82l-178 -1260h10l947 1260h81l-200 -1434h-82zM805 1577q-115 0 -177 72t-53 194h82q-4 -84 38 -134t119 -50t134 50t78 134h82q-24 -123 -106 -195t-197 -71z" />
    <glyph glyph-name="afii10028" unicode="&#x41a;" horiz-adv-x="1116" 
d="M901 0l-344 758h-256l-106 -758h-82l200 1434h82l-84 -594h246l473 594h92l-497 -625l368 -809h-92z" />
    <glyph glyph-name="afii10029" unicode="&#x41b;" horiz-adv-x="1259" 
d="M-102 0l10 82q246 0 303 266l235 1086h697l-201 -1434h-82l189 1352h-543l-213 -1004q-35 -168 -138 -258t-257 -90z" />
    <glyph glyph-name="afii10030" unicode="&#x41c;" horiz-adv-x="1525" 
d="M1409 1434l-201 -1434h-82l174 1239h-10l-536 -829h-72l-303 829h-10l-174 -1239h-82l200 1434h82l332 -912h10l590 912h82z" />
    <glyph glyph-name="afii10031" unicode="&#x41d;" horiz-adv-x="1372" 
d="M395 1434l-63 -451h778l64 451h81l-200 -1434h-82l125 901h-779l-124 -901h-82l200 1434h82z" />
    <glyph glyph-name="afii10032" unicode="&#x41e;" horiz-adv-x="1413" 
d="M796 1372q-202 0 -371 -177t-212 -478t77 -478t322 -177t372 176q169 178 212 479t-77 478q-121 177 -323 177zM807 1454q233 0 375 -203t95 -535q-46 -332 -245 -534t-432 -202t-375 202q-141 203 -94 535q45 333 244 535t432 202z" />
    <glyph glyph-name="afii10033" unicode="&#x41f;" horiz-adv-x="1372" 
d="M1255 1434l-200 -1434h-82l188 1352h-778l-188 -1352h-82l200 1434h942z" />
    <glyph glyph-name="afii10034" unicode="&#x420;" horiz-adv-x="1300" 
d="M594 512q205 0 349 122t171 309t-87 308t-315 121t-296 -31l-35 -10l-115 -819h328zM707 1454q248 0 384 -146t105 -364t-205 -366q-174 -147 -409 -148h-328l-59 -430h-82l194 1393q152 61 400 61z" />
    <glyph glyph-name="afii10035" unicode="&#x421;" horiz-adv-x="1228" 
d="M807 1454q79 0 147 -24t133 -74q65 -51 97 -103l12 -24l-70 -51q-32 64 -111 126q-34 26 -93 48t-125 20q-203 0 -372 -177t-212 -478t77 -478t312 -177t357 151q38 35 57 59l18 25l53 -51q-8 -10 -22 -28q-13 -18 -63 -65q-50 -46 -103 -81t-134 -64t-165 -28
q-233 0 -375 202q-141 203 -94 535q45 333 244 535t432 202z" />
    <glyph glyph-name="afii10036" unicode="&#x422;" horiz-adv-x="962" 
d="M608 1352l-188 -1352h-82l188 1352h-379l13 82h839l-12 -82h-379z" />
    <glyph glyph-name="afii10037" unicode="&#x423;" 
d="M172 0l10 82q197 0 273 174l-295 1178h82l262 -1045h10l506 1045h82l-563 -1168q-70 -142 -151 -204t-216 -62z" />
    <glyph glyph-name="afii10038" unicode="&#x424;" horiz-adv-x="1495" 
d="M1278 727q29 195 -86 317t-342 123l-125 -880q227 1 377 123t176 317zM392 1046q-148 -122 -176 -319t87 -319t340 -121l125 880q-227 0 -376 -121zM860 1249q258 -1 396 -149t105 -374q-32 -226 -210 -374t-436 -147l-29 -205h-82l29 205q-258 0 -395 148
q-138 149 -106 375t210 374t436 147l27 185h82z" />
    <glyph glyph-name="afii10039" unicode="&#x425;" horiz-adv-x="1105" 
d="M850 0l-303 666h-8l-488 -666h-92l555 748l-313 686h92l268 -605h8l441 605h92l-506 -686l346 -748h-92z" />
    <glyph glyph-name="afii10040" unicode="&#x426;" horiz-adv-x="1413" 
d="M395 1434l-190 -1352h778l191 1352h81l-190 -1352h154l-50 -348h-82l39 266h-1013l200 1434h82z" />
    <glyph glyph-name="afii10041" unicode="&#x427;" horiz-adv-x="1249" 
d="M604 573q-192 0 -297 110q-104 110 -80 290l66 461h82l-66 -461q-20 -150 62 -234t251 -84t287 31l37 10l105 738h82l-201 -1434h-82l86 614q-140 -41 -332 -41z" />
    <glyph glyph-name="afii10042" unicode="&#x428;" horiz-adv-x="1884" 
d="M113 0l200 1434h82l-190 -1352h604l190 1352h82l-190 -1352h604l191 1352h81l-200 -1434h-1454z" />
    <glyph glyph-name="afii10043" unicode="&#x429;" horiz-adv-x="1925" 
d="M113 0l200 1434h82l-190 -1352h604l190 1352h82l-190 -1352h604l191 1352h81l-190 -1352h154l-50 -348h-82l39 266h-1525z" />
    <glyph glyph-name="afii10044" unicode="&#x42a;" horiz-adv-x="1372" 
d="M655 82q190 0 327 118q136 118 163 303t-79 302t-307 117q-200 0 -315 -37l-36 -15l-111 -788h358zM645 0h-440l190 1358h-286l10 76h368l-67 -482q140 52 360 52t348 -142t98 -359q-30 -215 -195 -359t-386 -144z" />
    <glyph glyph-name="afii10045" unicode="&#x42b;" horiz-adv-x="1669" 
d="M563 82q190 0 327 118q136 118 163 303t-79 302t-307 117q-200 0 -315 -37l-37 -15l-110 -788h358zM553 0h-440l200 1434h82l-67 -482q140 52 360 52t348 -142t98 -359q-30 -215 -195 -359t-386 -144zM1270 0l200 1434h82l-200 -1434h-82z" />
    <glyph glyph-name="afii10046" unicode="&#x42c;" horiz-adv-x="1300" 
d="M584 82q190 0 326 118t163 303t-79 302t-312 117q-109 0 -201 -12t-129 -25l-37 -15l-110 -788h379zM573 0h-460l200 1434h82l-67 -482q140 52 370 52t359 -142t98 -359q-31 -215 -196 -359t-386 -144z" />
    <glyph glyph-name="afii10047" unicode="&#x42d;" horiz-adv-x="1228" 
d="M428 61q203 -1 372 177t212 479l6 41h-625l10 82h615q12 242 -103 387t-303 145q-104 0 -201 -49t-141 -98l-45 -47l-53 51q15 19 69 68t103 79t125 54q76 25 154 24q233 0 374 -203t95 -535t-244 -534q-199 -203 -432 -202q-84 0 -157 28t-118 66q-98 85 -125 143
l-14 29l70 51q13 -32 48 -77q36 -46 73 -77t100 -57t135 -25z" />
    <glyph glyph-name="afii10048" unicode="&#x42e;" horiz-adv-x="1792" 
d="M1217 1372q-188 0 -344 -171t-200 -484t62 -485q105 -172 295 -171q190 0 345 171q155 170 199 484t-62 485t-295 171zM1232 1454q216 0 345 -197t80 -541t-233 -540t-399 -196q-216 0 -346 189t-93 507h-297l-94 -676h-82l200 1434h82l-94 -676h297q50 316 234 506
t400 190z" />
    <glyph glyph-name="afii10049" unicode="&#x42f;" horiz-adv-x="1331" 
d="M629 553h379l110 778q-117 41 -340 41t-364 -114t-167 -294q-27 -179 79 -295t303 -116zM776 1454q127 0 236 -15t151 -30l45 -16l-194 -1393h-82l65 471h-481l-362 -471h-93l385 492l3 10q-49 14 -108 53q-60 39 -100 86t-65 133t-10 189q31 211 200 351t410 140z" />
    <glyph glyph-name="afii10065" unicode="&#x430;" horiz-adv-x="972" 
d="M390 61q124 0 218 86q26 23 43 48l84 593q-4 11 -25 41q-64 90 -193 92q-130 1 -234 -112t-133 -317q-28 -204 44 -318q72 -113 196 -113zM647 92h-10q-41 -41 -118 -77t-144 -35q-154 0 -247 138t-60 374q36 236 166 374t284 138q62 0 118 -26t81 -52l22 -25h11l12 82
h82l-111 -788q-8 -55 -8 -166l2 -29h-82z" />
    <glyph glyph-name="afii10066" unicode="&#x431;" horiz-adv-x="1013" 
d="M418 61q137 0 242 109q104 110 132 302t-48 300t-212 109q-137 -1 -242 -109t-132 -301t48 -301t212 -109zM545 963q168 -1 264 -135t65 -357q-32 -223 -166 -357t-302 -134t-265 134q-96 134 -65 357l18 127q61 441 186 599q66 85 142 125t190 60l338 62l-12 -82
l-336 -62q-176 -33 -268 -146t-148 -406h11q12 24 49 68q70 84 173 123q60 24 126 24z" />
    <glyph glyph-name="afii10067" unicode="&#x432;" horiz-adv-x="870" 
d="M480 922q-138 0 -204 -31l-20 -10l-41 -287h215q90 0 150 46q59 46 69 118t-39 118q-48 46 -130 46zM389 82q106 0 174 57t82 157t-37 158t-157 58h-246l-62 -430h246zM379 0h-328l131 942q120 62 270 62t222 -72t57 -174q-8 -62 -49 -112t-76 -66l-37 -17l-2 -10
q120 -30 154 -147q14 -49 6 -109q-19 -131 -115 -214t-233 -83z" />
    <glyph glyph-name="afii10068" unicode="&#x433;" horiz-adv-x="696" 
d="M51 0l137 983h533l-12 -82h-451l-125 -901h-82z" />
    <glyph glyph-name="afii10069" unicode="&#x434;" horiz-adv-x="921" 
d="M84 92l-2 -10h481l115 819h-369l-131 -645q-12 -59 -36 -100t-40 -54zM96 256l154 727h522l-127 -901h113l-43 -307h-82l33 225h-686l-33 -225h-80l41 307h72q54 27 93 105q15 32 23 69z" />
    <glyph glyph-name="afii10070" unicode="&#x435;" horiz-adv-x="954" 
d="M505 922q-116 0 -211 -92t-132 -257h583q14 157 -55 253t-185 96zM408 61q82 0 150 38t97 77l29 39l55 -51l-15 -20t-43 -45q-126 -119 -290 -119t-260 137t-63 377q34 240 164 374t286 136q156 0 244 -135t55 -377h-667q-29 -207 46 -319t212 -112z" />
    <glyph glyph-name="afii10072" unicode="&#x436;" horiz-adv-x="1208" 
d="M680 983l-47 -338h194l263 338h92l-299 -379l202 -604h-92l-188 563h-184l-78 -563h-82l78 563h-185l-344 -563h-92l371 604l-193 379h92l168 -338h195l47 338h82z" />
    <glyph glyph-name="afii10073" unicode="&#x437;" horiz-adv-x="798" 
d="M358 512h-90l11 82h90q83 0 141 47t68 117t-35 116t-123 48q-78 0 -141 -31t-91 -62l-26 -30l-53 51q9 13 48 47q124 105 269 107q116 0 182 -73t51 -173q-10 -68 -53 -118t-82 -67l-37 -16l-2 -8q25 -6 60 -31q35 -26 57 -52t35 -74q14 -48 6 -105q-19 -131 -121 -219
t-234 -88t-205 62t-91 101l-10 21l67 51q6 -17 27 -49q71 -103 219 -105q106 1 179 63t87 162t-41 164q-55 62 -162 62z" />
    <glyph glyph-name="afii10074" unicode="&#x438;" horiz-adv-x="962" 
d="M133 0h-82l137 983h82l-114 -819h10l596 819h82l-137 -983h-82l114 819h-10z" />
    <glyph glyph-name="afii10075" unicode="&#x439;" horiz-adv-x="962" 
d="M133 0h-82l137 983h82l-114 -819h10l596 819h82l-137 -983h-82l114 819h-10zM547 1208q-99 0 -149 60t-42 176h82q-6 -154 122 -154t165 154h82q-51 -236 -260 -236z" />
    <glyph glyph-name="afii10076" unicode="&#x43a;" horiz-adv-x="829" 
d="M614 0l-249 563h-154l-78 -563h-82l137 983h82l-47 -338h164l324 338h92l-361 -379l265 -604h-93z" />
    <glyph glyph-name="afii10077" unicode="&#x43b;" horiz-adv-x="921" 
d="M-82 0h-20l10 82h20q86 0 134 41t65 133l154 727h522l-137 -983h-82l125 901h-369l-131 -645q-25 -124 -101 -190t-190 -66z" />
    <glyph glyph-name="afii10078" unicode="&#x43c;" horiz-adv-x="1116" 
d="M997 983l-137 -983h-82l115 829h-10l-353 -471h-51l-221 471h-10l-115 -829h-82l137 983h93l237 -502h10l377 502h92z" />
    <glyph glyph-name="afii10079" unicode="&#x43d;" horiz-adv-x="942" 
d="M823 983l-137 -983h-82l76 553h-471l-76 -553h-82l137 983h82l-49 -348h471l49 348h82z" />
    <glyph glyph-name="afii10080" unicode="&#x43e;" horiz-adv-x="1003" 
d="M408 61q137 0 242 112t134 319q29 206 -45 318t-211 112t-243 -112t-135 -318q-29 -207 46 -319t212 -112zM395 -20q-168 0 -264 137t-63 375q35 238 169 374t303 138q169 0 265 -138t62 -374q-34 -238 -169 -375t-303 -137z" />
    <glyph glyph-name="afii10081" unicode="&#x43f;" horiz-adv-x="942" 
d="M823 983l-137 -983h-82l125 901h-471l-125 -901h-82l137 983h635z" />
    <glyph glyph-name="afii10082" unicode="&#x440;" horiz-adv-x="962" 
d="M503 922q-126 0 -216 -86q-26 -23 -43 -48l-84 -593q4 -11 33 -52t84 -61t100 -21q131 0 234 113t132 318q29 206 -43 318t-197 112zM518 1004q156 0 248 -138t59 -374t-163 -374t-287 -138q-63 0 -119 26t-80 51l-22 25h-11l-49 -348h-82l176 1249h82l-12 -82h10
q36 36 112 70q75 33 138 33z" />
    <glyph glyph-name="afii10083" unicode="&#x441;" horiz-adv-x="880" 
d="M408 61q82 0 150 38t97 77l29 39l55 -51l-15 -20t-43 -45q-126 -119 -290 -119t-260 137t-63 375q35 238 169 374t302 138q85 0 155 -39t97 -76l24 -39l-70 -51q-60 120 -217 123q-137 0 -243 -112t-135 -318t46 -319q75 -112 212 -112z" />
    <glyph glyph-name="afii10084" unicode="&#x442;" horiz-adv-x="696" 
d="M63 901l13 82h614l-12 -82h-266l-125 -901h-82l125 901h-267z" />
    <glyph glyph-name="afii10085" unicode="&#x443;" horiz-adv-x="778" 
d="M115 -266h-62l13 82h51q51 0 80 61l59 133l-170 973h82l139 -829h10l363 829h82l-483 -1106q-33 -75 -72 -109t-92 -34z" />
    <glyph glyph-name="afii10086" unicode="&#x444;" horiz-adv-x="1208" 
d="M471 82l115 819q-178 1 -299 -109t-148 -300t63 -300t269 -110zM999 492q27 190 -63 300t-268 109l-115 -819q178 0 299 109q120 111 147 301zM543 0l-39 -266h-82l39 266q-209 0 -322 135t-81 357t182 356q150 135 358 135l35 248h82l-35 -248q210 0 322 -135t80 -356
q-32 -220 -181 -356t-358 -136z" />
    <glyph glyph-name="afii10087" unicode="&#x445;" horiz-adv-x="778" 
d="M31 0h-92l368 512l-211 471h94l175 -399h8l284 399h95l-342 -471l225 -512h-92l-191 440h-8z" />
    <glyph glyph-name="afii10088" unicode="&#x446;" horiz-adv-x="972" 
d="M51 0l137 983h82l-127 -901h471l127 901h82l-127 -901h113l-43 -307h-82l33 225h-666z" />
    <glyph glyph-name="afii10089" unicode="&#x447;" horiz-adv-x="880" 
d="M387 430q63 0 119 12t80 25l24 14l70 502h82l-137 -983h-82l55 399h-10q-70 -51 -207 -51t-208 85t-52 222l47 328h82l-47 -328q-14 -105 35 -165t149 -60z" />
    <glyph glyph-name="afii10090" unicode="&#x448;" horiz-adv-x="1331" 
d="M51 0l137 983h82l-127 -901h389l127 901h82l-127 -901h390l126 901h82l-137 -983h-1024z" />
    <glyph glyph-name="afii10091" unicode="&#x449;" horiz-adv-x="1361" 
d="M51 0l137 983h82l-127 -901h389l127 901h82l-127 -901h390l126 901h82l-127 -901h113l-43 -307h-82l33 225h-1055z" />
    <glyph glyph-name="afii10092" unicode="&#x44a;" horiz-adv-x="901" 
d="M430 82q100 0 172 66t88 179q16 115 -36 181t-154 65q-58 0 -112 -15t-77 -30l-24 -16l-62 -430h205zM514 655q127 0 203 -91q75 -91 55 -235q-20 -145 -120 -237t-232 -92h-287l125 901h-235l12 82h317l-53 -379h10q78 51 205 51z" />
    <glyph glyph-name="afii10093" unicode="&#x44b;" horiz-adv-x="1136" 
d="M348 82q100 0 172 66t88 179q16 115 -36 181t-154 65q-58 0 -112 -15t-77 -30l-24 -16l-62 -430h205zM432 655q127 0 203 -91q75 -91 55 -235q-20 -145 -120 -237t-232 -92h-287l137 983h82l-53 -379h10q78 51 205 51zM1018 983l-137 -983h-82l137 983h82z" />
    <glyph glyph-name="afii10094" unicode="&#x44c;" horiz-adv-x="839" 
d="M358 82q109 0 182 66t89 180t-38 180t-163 65q-64 0 -120 -15t-79 -30l-24 -16l-62 -430h215zM441 655q136 0 213 -91t57 -236q-19 -144 -121 -236t-242 -92h-297l137 983h82l-53 -379h10q78 51 214 51z" />
    <glyph glyph-name="afii10095" unicode="&#x44d;" horiz-adv-x="880" 
d="M666 594q0 160 -68 244t-192 84q-74 0 -138 -31t-90 -62l-26 -30l-54 51q7 11 48 46q125 106 270 108q170 0 266 -138t62 -374q-34 -238 -169 -375t-294 -137t-258 118q-23 27 -31 45l-10 21l67 51q31 -94 140 -137q44 -16 96 -17q137 0 242 112t135 319l4 20h-410l10 82
h400z" />
    <glyph glyph-name="afii10096" unicode="&#x44e;" horiz-adv-x="1269" 
d="M705 61q123 0 220 110t126 321q31 210 -36 320t-190 110t-220 -110t-127 -320q-30 -211 37 -321t190 -110zM846 1004q146 0 232 -136t54 -376q-32 -242 -158 -377t-282 -135t-243 135t-54 377l4 20h-184l-72 -512h-82l138 985h82l-56 -391h195q41 180 161 295
q119 115 265 115z" />
    <glyph glyph-name="afii10097" unicode="&#x44f;" horiz-adv-x="880" 
d="M474 922q-138 0 -215 -64t-92 -172q-15 -109 40 -172t162 -63h235l62 430q-54 41 -192 41zM-41 0l289 389l2 10q-25 6 -62 31q-36 26 -60 54t-38 82t-4 120q18 139 124 228t257 90q82 0 154 -16t104 -30l31 -16l-131 -942h-82l51 369h-266l-277 -369h-92z" />
    <glyph glyph-name="afii10071" unicode="&#x451;" horiz-adv-x="954" 
d="M639 1280l14 92h92l-14 -92h-92zM383 1280l14 92h92l-14 -92h-92zM505 922q-116 0 -211 -92t-132 -257h583q14 157 -55 253t-185 96zM408 61q82 0 150 38t97 77l29 39l55 -51l-15 -20t-43 -45q-126 -119 -290 -119t-260 137t-63 377q34 240 164 374t286 136
q156 0 244 -135t55 -377h-667q-29 -207 46 -319t212 -112z" />
    <glyph glyph-name="afii10099" unicode="&#x452;" horiz-adv-x="972" 
d="M539 922q133 0 207 -92t53 -236l-74 -533q-21 -145 -123 -236t-242 -91l13 82q109 0 181 66t89 179l74 533q16 114 -38 180t-169 66t-205 -86q-25 -22 -43 -47l-98 -707h-82l154 1106h-123l12 82h123l35 246h82l-35 -246h235l-12 -82h-236l-38 -287h10q36 36 112 70
q75 33 138 33z" />
    <glyph glyph-name="afii10100" unicode="&#x453;" horiz-adv-x="696" 
d="M434 1208l178 236h82l-198 -236h-62zM51 0l137 983h533l-12 -82h-451l-125 -901h-82z" />
    <glyph glyph-name="afii10101" unicode="&#x454;" horiz-adv-x="880" 
d="M408 61q82 0 150 38t97 77l29 39l55 -51l-15 -20t-43 -45q-126 -119 -290 -119t-260 137t-63 375q35 238 169 374t302 138q85 0 155 -39t97 -76l24 -39l-70 -51q-60 120 -217 123q-125 0 -217 -84t-137 -244h389l-10 -82h-399l-4 -20q-29 -207 46 -319t212 -112z" />
    <glyph glyph-name="afii10102" unicode="&#x455;" horiz-adv-x="798" 
d="M402 1004q100 0 170 -39t96 -76l24 -39l-69 -51q-61 121 -236 123q-63 0 -121 -45t-67 -112q-10 -67 37 -114q48 -47 118 -76t141 -61t115 -98q44 -64 28 -168t-116 -186t-228 -82t-199 60t-95 103l-8 21l67 51q4 -13 27 -47q70 -105 219 -107q98 -1 170 57t82 136
q18 137 -151 208q-72 30 -143 62t-115 93t-30 153t99 163t185 71z" />
    <glyph glyph-name="afii10103" unicode="&#x456;" horiz-adv-x="389" 
d="M227 1331l15 103h102l-14 -103h-103zM51 0l137 983h82l-137 -983h-82z" />
    <glyph glyph-name="afii10104" unicode="&#x457;" horiz-adv-x="389" 
d="M352 1280l15 92h92l-15 -92h-92zM96 1280l15 92h92l-15 -92h-92zM51 0l137 983h82l-137 -983h-82z" />
    <glyph glyph-name="afii10105" unicode="&#x458;" horiz-adv-x="399" 
d="M227 1331l15 103h102l-14 -103h-103zM-29 -266h-30l-9 82h41q52 0 58 51l157 1116h82l-157 -1126q-8 -53 -48 -88t-94 -35z" />
    <glyph glyph-name="afii10106" unicode="&#x459;" horiz-adv-x="1361" 
d="M881 82q100 0 172 66t88 179q16 115 -36 181t-155 65q-59 0 -112 -15t-76 -30l-25 -16l-61 -430h205zM-82 0h-20l10 82h20q86 0 133 41t66 133l154 727h522l-53 -379h10q78 51 205 51t203 -91t55 -235q-21 -145 -121 -237t-232 -92h-286l125 901h-369l-131 -645
q-25 -124 -101 -190t-190 -66z" />
    <glyph glyph-name="afii10107" unicode="&#x45a;" horiz-adv-x="1382" 
d="M977 553h-214l-65 -471h213q100 0 167 61t81 174q16 113 -33 175t-149 61zM989 635q133 0 203 -87q70 -88 50 -232t-116 -230q-94 -86 -225 -86h-297l76 553h-471l-76 -553h-82l137 983h82l-49 -348h471l49 348h82l-48 -348h214z" />
    <glyph glyph-name="afii10108" unicode="&#x45b;" horiz-adv-x="972" 
d="M539 922q133 0 207 -92t53 -236l-82 -594h-82l82 594q16 114 -38 180t-169 66t-205 -86q-25 -22 -43 -47l-98 -707h-82l154 1106h-123l12 82h123l35 246h82l-35 -246h235l-12 -82h-236l-38 -287h10q36 36 112 70q75 33 138 33z" />
    <glyph glyph-name="afii10109" unicode="&#x45c;" horiz-adv-x="829" 
d="M485 1208l179 236h81l-198 -236h-62zM614 0l-249 563h-154l-78 -563h-82l137 983h82l-47 -338h164l324 338h92l-361 -379l265 -604h-93z" />
    <glyph glyph-name="afii10110" unicode="&#x45e;" horiz-adv-x="778" 
d="M455 1208q-99 0 -149 60t-42 176h82q-6 -154 122 -154t165 154h82q-51 -236 -260 -236zM115 -266h-62l13 82h51q51 0 80 61l59 133l-170 973h82l139 -829h10l363 829h82l-483 -1106q-33 -75 -72 -109t-92 -34z" />
    <glyph glyph-name="afii10193" unicode="&#x45f;" horiz-adv-x="942" 
d="M823 983l-137 -983h-276l-33 -225h-82l33 225h-277l137 983h82l-127 -901h471l127 901h82z" />
    <glyph glyph-name="afii10050" unicode="&#x490;" horiz-adv-x="931" 
d="M113 0l200 1434h615l37 266h82l-50 -350h-614l-188 -1350h-82z" />
    <glyph glyph-name="afii10098" unicode="&#x491;" horiz-adv-x="692" 
d="M639 983l29 205h77l-40 -287h-447l-125 -901h-82l137 983h451z" />
    <glyph glyph-name="uni1E9E" unicode="&#x1e9e;" horiz-adv-x="1218" 
d="M734 1372q-175 0 -298 -112t-151 -318l-131 -942h-82l131 942q33 236 184 374q152 138 369 138q104 0 189 -20t116 -41l33 -21q-12 -80 -46 -152t-99 -142q-65 -71 -122 -101l-26 -14l-2 -11q133 0 217 -131t52 -355t-159 -355t-288 -131q-114 0 -176 51t-80 88l-9 14
l68 51q60 -120 209 -123q129 -1 227 105t127 305t-41 304t-198 106h-93l13 82q38 13 97 49q58 36 100 74t81 105t49 140q-86 41 -261 41z" />
    <glyph glyph-name="endash" unicode="&#x2013;" horiz-adv-x="829" 
d="M61 584l11 82h665l-10 -82h-666z" />
    <glyph glyph-name="emdash" unicode="&#x2014;" horiz-adv-x="1116" 
d="M61 584l11 82h952l-10 -82h-953z" />
    <glyph glyph-name="quoteleft" unicode="&#x2018;" horiz-adv-x="358" 
d="M285 1454h51l-14 -113h-113l10 82q8 49 38 83t56 42l27 8l6 -30q-53 -21 -61 -72z" />
    <glyph glyph-name="quoteright" unicode="&#x2019;" horiz-adv-x="358" 
d="M260 1341h-51l14 113h113l-10 -82q-8 -49 -38 -83t-57 -42l-26 -8l-6 31q53 20 61 71z" />
    <glyph glyph-name="quotesinglbase" unicode="&#x201a;" horiz-adv-x="358" 
d="M72 0h-52l15 113h112l-10 -82q-8 -49 -39 -83t-57 -42l-27 -8l-4 30q54 21 62 72z" />
    <glyph glyph-name="quotedblleft" unicode="&#x201c;" horiz-adv-x="593" 
d="M520 1454h51l-14 -113h-113l11 82q8 49 38 83t56 42l26 8l7 -30q-54 -21 -62 -72zM285 1454h51l-14 -113h-113l10 82q8 49 38 83t56 42l27 8l6 -30q-53 -21 -61 -72z" />
    <glyph glyph-name="quotedblright" unicode="&#x201d;" horiz-adv-x="593" 
d="M496 1341h-52l15 113h112l-10 -82q-8 -49 -38 -83t-56 -42l-27 -8l-6 31q54 20 62 71zM260 1341h-51l14 113h113l-10 -82q-8 -49 -38 -83t-57 -42l-26 -8l-6 31q53 20 61 71z" />
    <glyph glyph-name="quotedblbase" unicode="&#x201e;" horiz-adv-x="593" 
d="M307 0h-51l14 113h113l-10 -82q-8 -49 -39 -83t-58 -42l-26 -8l-4 30q53 21 61 72zM72 0h-52l15 113h112l-10 -82q-8 -49 -39 -83t-57 -42l-27 -8l-4 30q54 21 62 72z" />
    <glyph glyph-name="dagger" unicode="&#x2020;" horiz-adv-x="819" 
d="M714 1147q42 1 59 -17t13 -45q-8 -61 -79 -61q-51 0 -138 31l-30 10h-62l-10 -72q20 -202 8 -235l-168 -901h-41l86 901q9 60 58 190l16 45l10 72h-61q-129 -41 -171 -41t-60 17q-17 17 -13 44q8 61 80 62q50 0 137 -31l31 -10h61l11 72l-5 44q-22 174 16 212
q20 20 48 20q27 0 46 -25q26 -35 -48 -212l-16 -39l-11 -72h62q129 41 171 41z" />
    <glyph glyph-name="daggerdbl" unicode="&#x2021;" horiz-adv-x="819" 
d="M89 205q-42 0 -59 17t-14 44q8 61 80 62q44 0 137 -31l31 -10h62l16 112q-23 181 -6 264q17 82 61 207l17 41l16 113h-61q-129 -41 -171 -41t-60 17q-17 17 -13 44q10 62 71 62t148 -31l31 -10h61l15 113l-5 44q-22 174 16 212q20 20 48 20q27 0 46 -25q26 -35 -48 -212
l-16 -39l-15 -113h62q127 41 169 41t59 -17t13 -45q-8 -61 -80 -61q-50 0 -137 31l-31 10h-61l-16 -113q4 -31 9 -125t-5 -131q-13 -97 -62 -215l-14 -41l-16 -112h61q129 41 171 41t59 -18t14 -44q-10 -61 -72 -61t-147 31l-31 10h-62l-14 -113q18 -141 12 -205
q-6 -33 -25 -52t-46 -19t-42 19t-9 62t53 156l16 39l14 113h-61q-127 -41 -169 -41z" />
    <glyph glyph-name="bullet" unicode="&#x2022;" horiz-adv-x="552" 
d="M277 737q46 0 75 -34q29 -33 22 -79t-45 -79t-84 -33t-75 34t-22 80t45 78t84 33z" />
    <glyph glyph-name="ellipsis" unicode="&#x2026;" horiz-adv-x="1044" 
d="M696 0l17 123h123l-17 -123h-123zM358 0l17 123h123l-17 -123h-123zM20 0l17 123h123l-17 -123h-123z" />
    <glyph glyph-name="perthousand" unicode="&#x2030;" horiz-adv-x="1894" 
d="M1534 573q-74 0 -128 -62q-54 -61 -72 -193t18 -194t110 -62t128 62t71 193q18 131 -17 194q-36 62 -110 62zM1450 -20q-106 0 -164 88t-34 250t106 249q82 88 187 88t163 -88t35 -250q-23 -161 -105 -249t-188 -88zM960 573q-74 0 -127 -62q-55 -61 -73 -193t18 -194
t111 -62q74 0 127 62t71 193t-17 194q-36 62 -110 62zM877 -20q-106 0 -164 88q-57 88 -33 250t104 249q82 88 188 88t162 -88q58 -88 35 -250q-23 -161 -105 -249t-187 -88zM113 0l999 1434h92l-999 -1434h-92zM428 1372q-74 0 -128 -62t-73 -194q-18 -131 19 -193t110 -63
q162 0 199 256q18 131 -17 194q-36 62 -110 62zM439 1454q105 0 163 -88t34 -250q-22 -162 -104 -250t-187 -88t-164 88t-36 250q25 162 107 250t187 88z" />
    <glyph glyph-name="guilsinglleft" unicode="&#x2039;" horiz-adv-x="471" 
d="M342 840l37 -31l-238 -293l-2 -8l156 -293l-45 -31l-182 297l8 62z" />
    <glyph glyph-name="guilsinglright" unicode="&#x203a;" horiz-adv-x="471" 
d="M66 184l-37 31l237 293l2 8l-155 293l45 31l184 -297l-8 -62z" />
    <glyph glyph-name="fraction" unicode="&#x2044;" horiz-adv-x="890" 
d="M-102 0l999 1434h92l-999 -1434h-92z" />
    <glyph glyph-name="foursuperior" unicode="&#x2074;" horiz-adv-x="655" 
d="M455 983l43 307h-11l-256 -297l-2 -10h226zM606 901h-82l-24 -184h-82l24 184h-327l12 82l391 451h82l-63 -451h81z" />
    <glyph glyph-name="Euro" unicode="&#x20ac;" horiz-adv-x="1218" 
d="M469 1161q-141 -129 -201 -342h635l-12 -82h-645l-17 -123h645l-12 -82h-635q-1 -213 105 -342t271 -129t317 139q35 32 51 54l18 22l55 -51q-79 -99 -175 -159q-50 -33 -126 -60t-153 -26q-195 0 -321 154t-124 398h-112l12 82h102l17 123h-103l13 82h112
q62 244 234 399t366 154q142 0 232 -68q91 -68 117 -116l12 -21l-70 -51q-4 6 -11 18t-34 43q-102 113 -262 113t-301 -129z" />
    <glyph glyph-name="uni20B4" unicode="&#x20b4;" horiz-adv-x="1085" 
d="M801 819h184l-12 -82h-860l12 82h543q18 4 58 31t67 51q27 25 51 67q25 42 30 87q14 102 -49 169t-184 66q-152 0 -276 -111q-29 -26 -41 -44l-15 -19l-53 51q96 128 258 183q68 23 139 22q153 0 237 -92t66 -225q-13 -95 -63 -150q-51 -55 -92 -76v-10zM482 61
q148 0 295 139q34 32 50 54l19 22l55 -51q-126 -158 -296 -219q-75 -27 -148 -26q-166 0 -263 105t-75 253q8 55 29 101q22 46 40 65l17 18l2 10h-123l12 82h860l-12 -82h-635q-33 -27 -67 -83q-33 -56 -41 -111q-15 -117 59 -197t222 -80z" />
    <glyph glyph-name="uni20BD" unicode="&#x20bd;" horiz-adv-x="1239" 
d="M594 512q190 0 320 108t153 281q25 172 -79 281t-306 108q-156 0 -258 -30l-35 -11l-102 -737h307zM698 1372q228 0 354 -134t97 -337t-187 -337t-380 -134h-308l-20 -143h522l-10 -82h-522l-29 -205h-82l29 205h-154l10 82h154l21 143h-154l12 82h154l112 801
q152 59 381 59z" />
    <glyph glyph-name="afii61352" unicode="&#x2116;" horiz-adv-x="1925" 
d="M952 0l-573 1249h-10l-174 -1249h-82l200 1434h82l572 -1250h10l176 1250h82l-201 -1434h-82zM1646 1372q-74 0 -127 -62q-55 -62 -73 -194t18 -193q36 -62 111 -63q162 0 199 256q18 132 -18 194t-110 62zM1564 778q-105 0 -164 88q-58 88 -36 250q25 162 106 250
q82 88 188 88t162 -88q58 -88 35 -250t-105 -250t-186 -88zM1305 543l10 82h450l-10 -82h-450z" />
    <glyph glyph-name="trademark" unicode="&#x2122;" horiz-adv-x="1280" 
d="M117 1352l12 82h430l-12 -82h-174l-74 -533h-82l74 533h-174zM1245 1434l-86 -615h-82l64 461h-11l-233 -287h-31l-155 287h-11l-63 -461h-82l86 615h82l170 -318h10l260 318h82z" />
    <glyph glyph-name="minus" unicode="&#x2212;" horiz-adv-x="737" 
d="M70 645l10 82h573l-10 -82h-573z" />
    <glyph glyph-name="Breve" unicode="&#xf406;" horiz-adv-x="573" 
d="M412 1618q-100 0 -152 59q-51 59 -43 166h82q-4 -143 124 -143t163 143h82q-24 -109 -90 -167t-166 -58z" />
    <glyph glyph-name="Circumflex" unicode="&#xf408;" horiz-adv-x="573" 
d="M483 1843l154 -225h-82l-121 174l-166 -174h-82l215 225h82z" />
    <glyph glyph-name="Dotaccent" unicode="&#xf40b;" horiz-adv-x="225" 
d="M195 1679l14 103h102l-14 -103h-102z" />
    <glyph glyph-name="Ring" unicode="&#xf40c;" horiz-adv-x="471" 
d="M401 1915q70 0 114 -54t34 -130q-9 -76 -69 -130q-60 -55 -130 -55t-114 54t-35 131q10 76 70 130t130 54zM360 1618q42 0 77 32q34 32 40 81q9 49 -17 81t-69 31q-43 1 -77 -31t-41 -81t19 -81t68 -32z" />
    <glyph glyph-name="Tilde" unicode="&#xf40d;" horiz-adv-x="614" 
d="M344 1731q-47 0 -72 -82h-82q51 164 166 163q46 0 108 -40t85 -41q49 -1 74 81h82q-53 -164 -166 -163q-45 0 -109 41t-86 41z" />
    <glyph glyph-name="commaaccent" unicode="&#xf6c3;" horiz-adv-x="225" 
d="M-25 -246h-51l15 103h102l-10 -72q-8 -49 -36 -83t-52 -42l-23 -8l-6 31q53 20 61 71z" />
    <glyph glyph-name="Acute" unicode="&#xf6c9;" horiz-adv-x="348" 
d="M186 1618l174 225h82l-194 -225h-62z" />
    <glyph glyph-name="Caron" unicode="&#xf6ca;" horiz-adv-x="573" 
d="M371 1618l-154 225h82l119 -174l168 174h82l-215 -225h-82z" />
    <glyph glyph-name="Dieresis" unicode="&#xf6cb;" horiz-adv-x="471" 
d="M451 1690l14 92h92l-14 -92h-92zM195 1690l14 92h92l-14 -92h-92z" />
    <glyph glyph-name="Grave" unicode="&#xf6ce;" horiz-adv-x="348" 
d="M299 1843l113 -225h-62l-133 225h82z" />
    <glyph glyph-name="Hungarumlaut" unicode="&#xf6cf;" horiz-adv-x="614" 
d="M453 1618l174 225h82l-195 -225h-61zM186 1618l174 225h82l-194 -225h-62z" />
    <glyph glyph-name="Macron" unicode="&#xf6d0;" horiz-adv-x="552" 
d="M195 1690l12 82h430l-12 -82h-430z" />
    <glyph glyph-name="cyrBreve" unicode="&#xf6d1;" horiz-adv-x="655" 
d="M446 1577q-115 0 -177 72t-52 194h82q-4 -84 38 -134t119 -50t134 50t78 134h82q-25 -123 -107 -195t-197 -71z" />
    <glyph glyph-name="cyrbreve" unicode="&#xf6d4;" horiz-adv-x="573" 
d="M352 1208q-100 0 -149 60t-41 176h82q-6 -154 122 -154t164 154h82q-51 -236 -260 -236z" />
    <glyph glyph-name="Germandbls" horiz-adv-x="1218" 
d="M734 1372q-175 0 -298 -112t-151 -318l-131 -942h-82l131 942q33 236 184 374q152 138 369 138q104 0 189 -20t116 -41l33 -21q-12 -80 -46 -152t-99 -142q-65 -71 -122 -101l-26 -14l-2 -11q133 0 217 -131t52 -355t-159 -355t-288 -131q-114 0 -176 51t-80 88l-9 14
l68 51q60 -120 209 -123q129 -1 227 105t127 305t-41 304t-198 106h-93l13 82q38 13 97 49q58 36 100 74t81 105t49 140q-86 41 -261 41z" />
    <glyph glyph-name="foundryicon" horiz-adv-x="2519" 
d="M1526 440q16 0 28 12t13 28q1 14 -13 28t-28 14h-113v-82h113zM1526 1075q16 1 28 13t13 27t-13 29t-28 13h-113v-82h113zM1976 1249v-92h-235q-19 76 -82 92h317zM1976 614v-92h-235q-19 76 -82 92h317zM1618 184v133q41 8 78 43t45 80h164v-92h-174v-72h245v-92h-358z
M1618 819v133q41 8 78 43t45 80h164v-92h-174v-72h245v-92h-358zM614 1157h-133v92h338l51 -92h-143v-338h-113v338zM614 522h-133v92h338l51 -92h-143v-338h-113v338zM1126 819h-112v164l-154 266h123l82 -153h10l82 153h133l-164 -266v-164zM1126 184h-112v164l-154 266
h123l82 -153h10l82 153h133l-164 -266v-164zM1300 614h226q74 0 119 -39t45 -94t-45 -94t-119 -39h-113v-164h-113v430zM1300 1249h226q74 0 119 -39t45 -94t-45 -94t-119 -39h-113v-164h-113v430zM2273 -184v1802h-2027v-1802h2027zM205 -225v1884h2109v-1884h-2109z" />
    </font>
</defs>
</svg>
