<?xml version="1.0" encoding="UTF-8"?>
<svg xmlns="http://www.w3.org/2000/svg" xmlns:xlink="http://www.w3.org/1999/xlink" version="1.2" >
<font id="FranklinGothic URW Book">
<font-face  font-family="FranklinGothic URW" units-per-em="1000" ascent="667" descent="-333" font-style="normal" font-weight="400" font-stretch="normal" cap-height="667" x-height="493" underline-position="-67" underline-thickness="67" />
<missing-glyph  horiz-adv-x="250" d="" />
<glyph glyph-name="NULL" d="" />
<glyph glyph-name="CR" unicode="&#xd;" horiz-adv-x="250" d="" />
<glyph glyph-name="space" unicode="&#x20;" horiz-adv-x="250" d="" />
<glyph glyph-name="exclam" unicode="&#x21;" horiz-adv-x="269" d="M186 0 L186 103 L84 103 L84 0 L186 0 Z M154 166 L192 667 L77 667 L113 166 L154 166 Z " />
<glyph glyph-name="quotedbl" unicode="&#x22;" horiz-adv-x="316" d="M115 409 L130 667 L52 667 L67 409 L115 409 Z M250 409 L265 667 L187 667 L201 409 L250 409 Z " />
<glyph glyph-name="numbersign" unicode="&#x23;" horiz-adv-x="587" d="M555 471 L451 471 L486 667 L423 667 L388 471 L247 471 L282 667 L218 667 L184 471 L77 471 L66 411 L173 411 L148 272 L42 272 L31 212 L138 212 L100 0 L163 0 L201 212 L343 212 L305 0 L369 0 L406 212 L509 212 L519 272 L417 272 L442 411 L544 411 L555 471 Z M377 411 L353 272 L212 272 L237 411 L377 411 Z " />
<glyph glyph-name="dollar" unicode="&#x24;" horiz-adv-x="587" d="M315 -73 L315 21 C371 28 396 34 427 50 C481 79 517 139 517 200 C517 260 483 318 431 345 C400 361 378 368 315 382 L315 591 C377 587 421 557 438 505 L504 527 C473 605 413 646 315 655 L315 736 L256 736 L256 655 C210 648 188 641 160 627 C106 599 74 545 74 484 C74 430 100 381 143 356 C172 339 194 331 256 315 L256 88 C188 93 137 133 113 200 L47 174 C77 84 146 33 256 21 L256 -73 L315 -73 Z M315 301 C357 294 375 289 397 275 C425 258 442 227 442 194 C442 132 395 93 315 88 L315 301 Z M256 391 C180 406 145 438 145 493 C145 548 185 583 256 591 L256 391 Z " />
<glyph glyph-name="percent" unicode="&#x25;" horiz-adv-x="720" d="M173 674 C91 674 37 605 37 501 C37 398 94 327 175 327 C255 327 312 399 312 499 C312 604 256 674 173 674 L173 674 Z M173 636 C227 636 259 583 259 494 C259 414 227 366 176 366 C121 366 89 416 89 503 C89 588 119 636 173 636 L173 636 Z M190 0 L593 667 L532 667 L128 0 L190 0 Z M546 340 C464 340 410 271 410 167 C410 64 466 -7 547 -7 C627 -7 684 65 684 165 C684 270 629 340 546 340 L546 340 Z M545 302 C600 302 632 250 632 160 C632 80 600 32 548 32 C493 32 461 82 461 169 C461 254 492 302 545 302 L545 302 Z " />
<glyph glyph-name="ampersand" unicode="&#x26;" horiz-adv-x="667" d="M630 70 C594 67 582 66 569 66 C538 66 521 73 495 100 C548 154 605 271 618 350 L547 365 C531 276 504 213 456 152 L316 365 C418 416 456 463 456 538 C456 622 393 680 302 680 C215 680 152 621 152 540 C152 499 171 455 216 389 C105 351 43 278 43 185 C43 71 140 -13 270 -13 C339 -13 383 3 446 53 C501 0 514 -7 557 -7 C579 -7 592 -6 630 0 L630 70 Z M408 103 C364 63 331 50 277 50 C227 50 178 70 153 101 C135 123 126 153 126 189 C126 260 156 297 248 339 L408 103 Z M282 413 C232 492 223 512 223 544 C223 586 258 618 305 618 C355 618 393 581 393 533 C393 492 371 464 312 430 C306 427 295 420 282 413 L282 413 Z " />
<glyph glyph-name="quotesingle" unicode="&#x27;" horiz-adv-x="181" d="M115 409 L130 667 L52 667 L67 409 L115 409 Z " />
<glyph glyph-name="parenleft" unicode="&#x28;" horiz-adv-x="293" d="M247 -167 C162 -30 123 102 123 254 C123 406 162 536 246 667 L195 667 C100 536 52 397 52 250 C52 98 100 -41 196 -167 L247 -167 Z " />
<glyph glyph-name="parenright" unicode="&#x29;" horiz-adv-x="293" d="M46 667 C131 530 170 398 170 246 C170 94 131 -36 47 -167 L98 -167 C193 -36 241 103 241 250 C241 402 193 541 97 667 L46 667 Z " />
<glyph glyph-name="asterisk" unicode="&#x2a;" horiz-adv-x="587" d="M274 483 L101 559 L78 489 L267 451 L142 314 L203 271 L293 429 L383 271 L444 314 L319 451 L508 489 L485 559 L312 483 L331 667 L255 667 L274 483 Z " />
<glyph glyph-name="plus" unicode="&#x2b;" horiz-adv-x="587" d="M60 368 L60 300 L257 300 L257 95 L330 95 L330 300 L527 300 L527 368 L330 368 L330 573 L257 573 L257 368 L60 368 Z " />
<glyph glyph-name="comma" unicode="&#x2c;" horiz-adv-x="250" d="M179 111 L72 111 L72 0 L122 0 L64 -125 L105 -125 L179 11 L179 111 Z " />
<glyph glyph-name="hyphen" unicode="&#x2d;" horiz-adv-x="250" d="M236 280 L15 280 L15 220 L236 220 L236 280 Z " />
<glyph glyph-name="period" unicode="&#x2e;" horiz-adv-x="250" d="M180 109 L71 109 L71 0 L180 0 L180 109 Z " />
<glyph glyph-name="slash" unicode="&#x2f;" horiz-adv-x="454" d="M18 -167 L421 667 L355 667 L-47 -167 L18 -167 Z " />
<glyph glyph-name="zero" unicode="0" horiz-adv-x="587" d="M291 680 C203 680 134 637 90 553 C58 492 41 417 41 335 C41 130 145 -13 294 -13 C378 -13 450 32 492 110 C526 172 546 255 546 330 C546 411 528 488 495 553 C451 637 382 680 291 680 L291 680 Z M291 615 C352 615 399 581 426 517 C448 465 460 393 460 319 C460 259 451 204 433 157 C406 88 360 52 295 52 C189 52 126 158 126 337 C126 513 186 615 291 615 L291 615 Z " />
<glyph glyph-name="one" unicode="1" horiz-adv-x="587" d="M559 62 L372 62 L372 680 L312 680 C260 614 197 563 109 517 L109 433 C177 471 229 512 292 577 L292 62 L92 62 L92 0 L559 0 L559 62 Z " />
<glyph glyph-name="two" unicode="2" horiz-adv-x="587" d="M525 69 L157 69 C224 116 276 155 333 202 C477 319 523 386 523 479 C523 594 424 680 291 680 C218 680 154 654 111 606 C81 574 67 545 52 485 L130 461 C134 502 142 524 162 550 C192 590 239 614 290 614 C375 614 440 555 440 478 C440 402 402 349 272 240 C198 178 198 178 52 69 L52 0 L525 0 L525 69 Z " />
<glyph glyph-name="three" unicode="3" horiz-adv-x="587" d="M194 313 L270 313 C382 313 449 264 449 183 C449 150 436 119 411 95 C385 69 342 55 286 55 C231 55 183 69 155 94 C134 112 122 134 108 175 L30 149 C50 97 68 72 107 42 C156 5 212 -13 283 -13 C433 -13 536 67 536 185 C536 272 479 333 382 351 C462 369 510 426 510 503 C510 605 419 680 293 680 C229 680 173 663 129 630 C94 603 76 578 54 527 L130 506 C142 538 151 552 167 568 C196 597 240 614 286 614 C368 614 425 566 425 497 C425 422 369 380 270 380 L194 380 L194 313 Z " />
<glyph glyph-name="four" unicode="4" horiz-adv-x="587" d="M441 0 L441 159 L549 159 L549 225 L441 225 L441 681 L336 681 L31 215 L31 159 L360 159 L360 0 L441 0 Z M360 225 L118 225 L326 551 C338 571 345 583 362 614 C360 580 360 570 360 540 L360 225 Z " />
<glyph glyph-name="five" unicode="5" horiz-adv-x="587" d="M489 667 L94 667 L72 306 L138 292 C181 355 230 383 295 383 C387 383 452 316 452 222 C452 121 383 53 279 53 C199 53 147 90 114 169 L43 144 C57 103 70 82 99 55 C146 10 208 -13 279 -13 C425 -13 533 86 533 221 C533 352 433 452 303 452 C240 452 198 433 140 379 L154 595 L482 595 L489 667 Z " />
<glyph glyph-name="six" unicode="6" horiz-adv-x="587" d="M536 530 C499 631 429 680 321 680 C239 680 176 652 131 595 C80 529 51 428 51 318 C51 115 151 -13 309 -13 C443 -13 546 87 546 217 C546 340 451 437 330 437 C278 437 228 419 189 386 C162 363 148 345 128 302 C129 392 138 447 159 496 C190 571 246 611 320 611 C389 611 432 580 461 510 L536 530 Z M316 370 C402 370 469 300 469 210 C469 123 398 54 308 54 C218 54 147 122 147 208 C147 296 224 370 316 370 L316 370 Z " />
<glyph glyph-name="seven" unicode="7" horiz-adv-x="587" d="M281 0 L281 22 C281 144 320 295 382 412 C423 489 470 561 518 617 L518 667 L77 667 L69 594 L431 594 C373 531 308 429 271 345 C224 239 195 113 195 19 L195 0 L281 0 Z " />
<glyph glyph-name="eight" unicode="8" horiz-adv-x="587" d="M194 346 C88 305 36 248 36 173 C36 64 143 -13 295 -13 C447 -13 550 63 550 175 C550 227 525 277 484 307 C460 324 446 332 392 358 C477 388 521 440 521 510 C521 613 433 680 298 680 C161 680 68 610 68 507 C68 435 109 383 194 346 L194 346 Z M295 388 C207 409 152 457 152 514 C152 576 211 617 301 617 C391 617 448 577 448 514 C448 453 404 416 295 388 L295 388 Z M286 311 C412 276 468 231 468 165 C468 96 399 50 293 50 C187 50 118 97 118 169 C118 237 173 284 286 311 L286 311 Z " />
<glyph glyph-name="nine" unicode="9" horiz-adv-x="587" d="M57 122 C75 76 89 55 119 31 C157 2 207 -14 263 -14 C350 -14 427 26 469 93 C512 161 535 250 535 349 C535 460 504 557 451 612 C410 655 346 680 275 680 C142 680 41 582 41 451 C41 326 135 231 260 231 C348 231 408 268 457 351 C454 157 386 53 263 53 C197 53 152 83 124 146 L57 122 Z M281 611 C373 611 440 546 440 457 C440 370 367 298 279 298 C188 298 122 363 122 452 C122 547 186 611 281 611 L281 611 Z " />
<glyph glyph-name="colon" unicode="&#x3a;" horiz-adv-x="250" d="M180 110 L71 110 L71 0 L180 0 L180 110 Z M180 493 L71 493 L71 384 L180 384 L180 493 Z " />
<glyph glyph-name="semicolon" unicode="&#x3b;" horiz-adv-x="250" d="M178 493 L71 493 L71 385 L178 385 L178 493 Z M178 111 L71 111 L71 0 L121 0 L64 -125 L104 -125 L178 11 L178 111 Z " />
<glyph glyph-name="less" unicode="&#x3c;" horiz-adv-x="587" d="M500 566 L67 363 L67 298 L500 94 L500 169 L147 330 L500 492 L500 566 Z " />
<glyph glyph-name="equal" unicode="&#x3d;" horiz-adv-x="587" d="M60 454 L60 387 L527 387 L527 454 L60 454 Z M60 296 L60 229 L527 229 L527 296 L60 296 Z " />
<glyph glyph-name="greater" unicode="&#x3e;" horiz-adv-x="587" d="M87 94 L520 298 L520 363 L87 566 L87 492 L440 330 L87 169 L87 94 Z " />
<glyph glyph-name="question" unicode="&#x3f;" horiz-adv-x="505" d="M279 96 L180 96 L180 0 L279 0 L279 96 Z M262 166 L262 190 L262 210 C261 269 265 274 341 316 C427 362 466 416 466 490 C466 603 378 680 247 680 C176 680 122 659 81 615 C47 579 32 547 20 483 L93 468 C104 516 113 538 131 562 C156 593 200 612 245 612 C323 612 380 562 380 493 C380 446 355 405 309 379 C287 367 266 355 245 343 C227 333 213 317 204 298 C193 268 192 257 192 187 L192 166 L262 166 Z " />
<glyph glyph-name="at" unicode="&#x40;" horiz-adv-x="745" d="M543 509 L478 509 L472 460 C444 501 414 517 367 517 C269 517 195 432 195 320 C195 216 260 138 348 138 C394 138 423 154 458 199 C472 160 498 140 537 140 C628 140 705 251 705 381 C705 551 568 680 388 680 C192 680 40 529 40 334 C40 208 104 94 207 34 C261 3 328 -13 402 -13 C489 -13 557 3 641 44 L620 103 C607 98 606 97 599 94 C531 62 474 49 401 49 C339 49 286 62 243 86 C157 136 105 230 105 334 C105 495 228 620 388 620 C538 620 645 518 645 376 C645 287 597 203 546 203 C524 203 513 214 513 237 C513 247 514 265 516 281 L543 509 Z M374 452 C424 452 459 408 459 346 C459 270 409 203 353 203 C305 203 271 251 271 317 C271 394 315 452 374 452 L374 452 Z " />
<glyph glyph-name="A" unicode="A" horiz-adv-x="551" d="M532 0 L315 667 L219 667 L3 0 L73 0 L132 195 L379 195 L446 0 L532 0 Z M361 258 L156 258 L259 578 L361 258 Z " />
<glyph glyph-name="B" unicode="B" horiz-adv-x="605" d="M83 0 L346 0 C405 0 444 9 479 30 C533 63 563 118 563 185 C563 235 545 276 510 311 C488 332 470 341 425 354 C461 366 478 375 496 391 C525 418 543 461 543 504 C543 558 518 605 472 636 C438 658 404 667 347 667 L83 667 L83 0 Z M164 73 L164 318 L331 318 C387 318 419 307 444 280 C466 257 479 223 479 189 C479 116 428 73 343 73 L164 73 Z M164 381 L164 599 L330 599 C413 599 460 561 460 495 C460 459 444 425 419 406 C395 388 364 381 309 381 L164 381 Z " />
<glyph glyph-name="C" unicode="C" horiz-adv-x="579" d="M483 224 C468 170 458 147 438 119 C411 82 363 58 315 58 C204 58 133 165 133 331 C133 505 202 609 318 609 C400 609 448 562 481 451 L559 466 C524 609 444 680 319 680 C151 680 42 546 42 340 C42 232 73 136 130 68 C175 15 237 -13 313 -13 C388 -13 449 14 492 65 C525 104 541 138 559 207 L483 224 Z " />
<glyph glyph-name="D" unicode="D" horiz-adv-x="647" d="M83 0 L334 0 C490 0 605 143 605 336 C605 441 569 532 504 594 C451 644 390 667 306 667 L83 667 L83 0 Z M166 71 L166 597 L301 597 C367 597 414 578 450 539 C495 489 520 417 520 336 C520 253 493 173 448 126 C415 91 362 71 302 71 L166 71 Z " />
<glyph glyph-name="E" unicode="E" horiz-adv-x="548" d="M514 73 L166 73 L166 313 L435 313 L435 381 L166 381 L166 594 L505 594 L505 667 L83 667 L83 0 L514 0 L514 73 Z " />
<glyph glyph-name="F" unicode="F" horiz-adv-x="508" d="M166 0 L166 316 L436 316 L436 383 L166 383 L166 594 L491 594 L491 667 L83 667 L83 0 L166 0 Z " />
<glyph glyph-name="G" unicode="G" horiz-adv-x="647" d="M577 336 L327 336 L327 266 L491 266 C492 252 492 240 492 230 C492 124 426 54 328 54 C265 54 207 87 176 140 C149 188 133 256 133 329 C133 403 149 473 177 523 C206 577 260 609 323 609 C372 609 417 590 448 557 C469 534 479 514 491 468 L570 487 C554 544 540 571 512 603 C467 654 407 680 331 680 C158 680 42 538 42 326 C42 223 71 136 127 71 C177 14 238 -14 317 -14 C401 -14 455 12 503 75 L525 -9 L577 -9 L577 336 Z " />
<glyph glyph-name="H" unicode="H" horiz-adv-x="643" d="M559 0 L559 667 L476 667 L476 391 L166 391 L166 667 L83 667 L83 0 L166 0 L166 318 L476 318 L476 0 L559 0 Z " />
<glyph glyph-name="I" unicode="I" horiz-adv-x="250" d="M166 0 L166 667 L83 667 L83 0 L166 0 Z " />
<glyph glyph-name="J" unicode="J" horiz-adv-x="373" d="M297 667 L214 667 L214 204 C214 137 211 120 193 97 C174 71 140 59 89 59 C59 59 39 61 0 68 L0 0 C41 -10 63 -13 96 -13 C233 -13 297 56 297 204 L297 667 Z " />
<glyph glyph-name="K" unicode="K" horiz-adv-x="628" d="M610 0 L377 433 L558 667 L468 667 L166 280 L166 667 L83 667 L83 0 L166 0 L166 178 L319 368 L518 0 L610 0 Z " />
<glyph glyph-name="L" unicode="L" horiz-adv-x="490" d="M476 73 L168 73 L168 667 L83 667 L83 0 L476 0 L476 73 Z " />
<glyph glyph-name="M" unicode="M" horiz-adv-x="810" d="M726 0 L726 667 L604 667 L407 134 L207 667 L83 667 L83 0 L154 0 L154 582 L372 0 L429 0 L645 582 L645 0 L726 0 Z " />
<glyph glyph-name="N" unicode="N" horiz-adv-x="657" d="M574 0 L574 667 L508 667 L508 218 C508 211 508 194 509 169 L510 123 L187 667 L83 667 L83 0 L150 0 L150 495 C150 511 149 531 148 581 L493 0 L574 0 Z " />
<glyph glyph-name="O" unicode="O" horiz-adv-x="631" d="M316 680 C154 680 42 538 42 332 C42 228 71 139 124 73 C171 16 235 -13 314 -13 C392 -13 452 14 500 71 C557 138 589 234 589 334 C589 542 480 680 316 680 L316 680 Z M315 612 C432 612 502 508 502 335 C502 166 428 55 316 55 C203 55 129 165 129 331 C129 501 202 612 315 612 L315 612 Z " />
<glyph glyph-name="P" unicode="P" horiz-adv-x="559" d="M166 0 L166 271 L328 271 C449 271 535 353 535 468 C535 529 506 591 462 625 C427 653 379 667 319 667 L83 667 L83 0 L166 0 Z M166 340 L166 597 L325 597 C399 597 450 544 450 468 C450 391 398 340 319 340 L166 340 Z " />
<glyph glyph-name="Q" unicode="Q" horiz-adv-x="637" d="M553 -82 C524 -87 508 -88 479 -88 C438 -88 418 -81 403 -61 C393 -48 388 -34 388 -16 L388 0 C443 16 471 32 504 69 C565 134 596 226 596 337 C596 543 485 680 319 680 C153 680 42 540 42 331 C42 201 84 100 164 40 C208 7 247 -6 320 -11 C325 -70 337 -101 365 -125 C391 -147 435 -160 481 -160 C505 -160 521 -157 553 -149 L553 -82 Z M320 607 C439 607 506 508 506 331 C506 160 434 59 313 59 C199 59 131 160 131 328 C131 412 150 492 181 539 C210 582 260 607 320 607 L320 607 Z " />
<glyph glyph-name="R" unicode="R" horiz-adv-x="613" d="M563 0 L432 309 C471 323 490 334 510 357 C538 388 556 436 556 480 C556 591 470 667 345 667 L83 667 L83 0 L161 0 L161 289 L352 289 L475 0 L563 0 Z M161 357 L161 594 L345 594 C424 594 473 551 473 482 C473 448 461 417 439 394 C414 368 383 357 335 357 L161 357 Z " />
<glyph glyph-name="S" unicode="S" horiz-adv-x="569" d="M10 178 C34 115 52 86 87 53 C137 8 198 -13 282 -13 C432 -13 529 66 529 188 C529 283 471 345 357 372 L233 402 C155 421 124 450 124 503 C124 566 184 612 265 612 C311 612 356 596 389 567 C411 548 422 530 431 495 L506 516 C469 624 387 680 268 680 C133 680 43 607 43 498 C43 446 62 402 97 369 C123 346 152 332 207 319 L340 285 C405 269 442 231 442 180 C442 104 382 58 282 58 C180 58 116 102 85 194 L10 178 Z " />
<glyph glyph-name="T" unicode="T" horiz-adv-x="485" d="M284 0 L284 594 L475 594 L475 667 L10 667 L10 594 L201 594 L201 0 L284 0 Z " />
<glyph glyph-name="U" unicode="U" horiz-adv-x="606" d="M463 667 L463 231 C463 172 454 137 430 109 C404 78 359 60 307 60 C255 60 206 79 183 109 C164 134 156 169 156 231 L156 667 L73 667 L73 231 C73 155 85 107 113 66 C150 13 212 -13 300 -13 C384 -13 448 14 487 66 C519 108 532 155 532 231 L532 667 L463 667 Z " />
<glyph glyph-name="V" unicode="V" horiz-adv-x="537" d="M533 667 L460 667 L276 117 L90 667 L3 667 L228 0 L308 0 L533 667 Z " />
<glyph glyph-name="W" unicode="W" horiz-adv-x="817" d="M798 667 L725 667 L601 127 L448 667 L381 667 L239 127 L105 667 L19 667 L188 0 L273 0 L409 517 L554 0 L638 0 L798 667 Z " />
<glyph glyph-name="X" unicode="X" horiz-adv-x="520" d="M490 667 L414 667 L265 420 L118 667 L25 667 L216 345 L2 0 L80 0 L254 284 L423 0 L517 0 L303 362 L490 667 Z " />
<glyph glyph-name="Y" unicode="Y" horiz-adv-x="510" d="M519 667 L443 667 L265 360 L88 667 L-10 667 L213 281 L213 0 L296 0 L296 281 L519 667 Z " />
<glyph glyph-name="Z" unicode="Z" horiz-adv-x="521" d="M497 71 L120 71 L486 607 L486 662 L44 662 L44 594 L389 594 L27 71 L27 0 L497 0 L497 71 Z " />
<glyph glyph-name="bracketleft" unicode="&#x5b;" horiz-adv-x="293" d="M252 -167 L252 -114 L146 -114 L146 617 L252 617 L252 667 L79 667 L79 -167 L252 -167 Z " />
<glyph glyph-name="backslash" unicode="&#x5c;" horiz-adv-x="454" d="M435 -167 L501 -167 L98 667 L33 667 L435 -167 Z " />
<glyph glyph-name="bracketright" unicode="&#x5d;" horiz-adv-x="293" d="M41 667 L41 614 L147 614 L147 -117 L41 -117 L41 -167 L214 -167 L214 667 L41 667 Z " />
<glyph glyph-name="asciicircum" unicode="&#x5e;" horiz-adv-x="500" d="M476 364 L300 669 L201 669 L25 364 L106 364 L250 610 L395 364 L476 364 Z " />
<glyph glyph-name="underscore" unicode="&#x5f;" horiz-adv-x="500" d="M0 -66 L0 -133 L500 -133 L500 -66 L0 -66 Z " />
<glyph glyph-name="grave" unicode="&#x60;" horiz-adv-x="500" d="M92 662 L295 570 L315 609 L122 721 L92 662 Z " />
<glyph glyph-name="a" unicode="a" horiz-adv-x="529" d="M463 0 C456 25 453 56 452 96 L452 305 C452 377 443 416 419 449 C390 488 340 507 266 507 C184 507 122 487 83 447 C62 426 53 407 46 370 L117 358 C130 417 175 448 249 448 C343 448 378 414 378 321 L378 305 C347 307 332 307 314 307 C228 307 161 295 116 271 C65 245 33 192 33 136 C33 48 103 -13 205 -13 C289 -13 338 16 378 89 C382 33 382 24 387 0 L463 0 Z M378 247 C379 234 379 224 379 215 C379 120 310 46 220 46 C156 46 115 81 115 134 C115 209 185 249 313 249 C325 249 351 248 378 247 L378 247 Z " />
<glyph glyph-name="b" unicode="b" horiz-adv-x="537" d="M114 0 L142 82 C181 17 229 -13 296 -13 C415 -13 499 95 499 249 C499 402 418 506 299 506 C235 506 194 479 154 411 L154 667 L77 667 L77 0 L114 0 Z M154 304 C161 348 170 370 193 397 C220 427 252 443 288 443 C324 443 359 425 378 397 C403 360 418 300 418 239 C418 124 367 50 288 50 C249 50 208 70 184 101 C166 126 159 147 154 193 L154 304 Z " />
<glyph glyph-name="c" unicode="c" horiz-adv-x="466" d="M368 173 C352 92 310 50 248 50 C166 50 118 124 118 248 C118 368 168 443 249 443 C287 443 320 426 342 396 C355 377 362 359 368 321 L437 334 C417 446 351 506 250 506 C122 506 38 402 38 246 C38 89 120 -13 246 -13 C301 -13 344 4 379 40 C411 72 425 101 437 161 L368 173 Z " />
<glyph glyph-name="d" unicode="d" horiz-adv-x="538" d="M461 667 L384 667 L384 426 C340 484 301 506 239 506 C120 506 37 398 37 242 C37 92 119 -14 235 -14 C306 -14 350 14 391 84 L391 0 L461 0 L461 667 Z M384 200 C380 151 372 128 348 99 C321 68 285 49 248 49 C168 49 121 124 121 252 C121 369 172 445 251 445 C290 445 332 425 355 394 C374 370 380 349 384 303 L384 200 Z " />
<glyph glyph-name="e" unicode="e" horiz-adv-x="520" d="M402 147 C391 121 383 107 372 95 C347 66 309 50 269 50 C216 50 165 80 143 125 C128 156 123 182 123 240 L482 240 C481 308 473 349 453 392 C418 464 350 506 267 506 C132 506 38 399 38 244 C38 90 129 -13 264 -13 C364 -13 441 41 473 132 L402 147 Z M127 297 C132 344 140 368 162 396 C189 429 225 447 268 447 C312 447 345 430 370 395 C390 366 397 343 398 297 L127 297 Z " />
<glyph glyph-name="f" unicode="f" horiz-adv-x="300" d="M281 493 L161 493 C161 547 161 551 170 572 C181 603 213 619 264 619 C279 619 289 618 310 612 L310 674 C276 679 258 681 237 681 C173 681 123 651 106 603 C95 574 92 554 90 493 L3 493 L3 433 L90 433 L90 0 L161 0 L161 433 L281 433 L281 493 Z " />
<glyph glyph-name="g" unicode="g" horiz-adv-x="491" d="M479 570 C469 571 465 571 459 571 C413 571 393 566 376 549 C359 533 350 514 345 485 C313 501 281 508 244 508 C136 508 56 436 56 340 C56 286 74 249 120 209 C70 185 52 162 52 122 C52 88 64 68 100 42 C48 22 25 -8 25 -56 C25 -141 103 -186 250 -186 C414 -186 498 -138 498 -45 C498 -4 479 31 444 53 C413 74 380 79 278 82 C187 85 167 87 150 95 C133 103 125 115 125 131 C125 155 151 178 177 178 C181 178 193 176 209 173 C219 171 230 170 243 170 C353 170 432 238 432 334 C432 376 416 417 385 453 C392 497 414 510 479 509 L479 570 Z M246 447 C309 447 355 399 355 335 C355 273 309 229 245 229 C179 229 135 272 135 337 C135 402 181 447 246 447 L246 447 Z M153 20 C176 17 222 14 272 13 C358 11 367 10 391 -1 C414 -11 425 -26 425 -48 C425 -76 407 -98 373 -109 C339 -120 296 -127 256 -127 C198 -127 144 -113 117 -90 C106 -81 99 -64 99 -48 C99 -17 112 0 153 20 L153 20 Z " />
<glyph glyph-name="h" unicode="h" horiz-adv-x="540" d="M464 0 L464 299 C464 381 459 406 434 442 C406 484 359 507 305 507 C237 507 194 477 154 402 L154 667 L77 667 L77 0 L154 0 L154 266 C154 324 166 363 195 396 C220 425 257 443 291 443 C329 443 364 421 377 388 C385 368 387 350 387 299 L387 0 L464 0 Z " />
<glyph glyph-name="i" unicode="i" horiz-adv-x="229" d="M153 493 L76 493 L76 0 L153 0 L153 493 Z M156 667 L73 667 L73 582 L156 582 L156 667 Z " />
<glyph glyph-name="j" unicode="j" horiz-adv-x="229" d="M153 499 L76 499 L76 -16 C76 -81 53 -108 -5 -108 C-23 -108 -36 -106 -61 -100 L-61 -161 C-28 -168 -11 -171 9 -171 C104 -171 153 -119 153 -16 L153 499 Z M157 667 L70 667 L70 582 L157 582 L157 667 Z " />
<glyph glyph-name="k" unicode="k" horiz-adv-x="501" d="M485 0 L311 319 L465 493 L383 493 L154 240 L154 667 L77 667 L77 0 L154 0 L154 152 L261 275 L405 0 L485 0 Z " />
<glyph glyph-name="l" unicode="l" horiz-adv-x="230" d="M154 0 L154 667 L77 667 L77 0 L154 0 Z " />
<glyph glyph-name="m" unicode="m" horiz-adv-x="814" d="M738 0 L738 306 C738 377 733 407 715 436 C689 479 641 506 589 506 C521 506 466 465 433 388 C414 463 364 506 295 506 C230 506 178 469 143 398 L143 493 L77 493 L77 0 L150 0 L150 295 C150 378 203 443 271 443 C299 443 326 430 345 407 C361 387 368 363 368 324 L368 0 L442 0 L442 278 C442 333 452 365 480 397 C505 424 537 440 568 440 C599 440 631 423 647 396 C660 374 663 360 663 306 L663 0 L738 0 Z " />
<glyph glyph-name="n" unicode="n" horiz-adv-x="542" d="M466 0 L466 285 C466 358 461 395 448 420 C420 474 368 506 306 506 C238 506 199 480 148 402 L148 493 L77 493 L77 0 L154 0 L154 271 C154 368 212 440 292 440 C358 440 394 397 394 317 L394 0 L466 0 Z " />
<glyph glyph-name="o" unicode="o" horiz-adv-x="519" d="M261 506 C129 506 38 401 38 248 C38 91 124 -13 253 -13 C386 -13 481 93 481 241 C481 402 395 506 261 506 L261 506 Z M258 443 C298 443 337 423 362 390 C386 356 397 312 397 245 C397 123 345 50 259 50 C172 50 122 122 122 249 C122 309 134 357 156 389 C179 422 219 443 258 443 L258 443 Z " />
<glyph glyph-name="p" unicode="p" horiz-adv-x="534" d="M154 -167 L154 75 C196 11 236 -13 300 -13 C417 -13 497 92 497 247 C497 401 418 506 301 506 C232 506 185 473 146 397 L146 493 L77 493 L77 -167 L154 -167 Z M154 317 C174 393 224 439 285 439 C365 439 413 366 413 242 C413 176 401 128 376 96 C355 69 318 50 285 50 C222 50 166 104 154 179 L154 317 Z " />
<glyph glyph-name="q" unicode="q" horiz-adv-x="536" d="M459 500 L420 500 L390 412 C345 485 309 507 241 507 C120 507 38 400 38 243 C38 89 116 -13 233 -13 C301 -13 349 21 382 90 L382 -167 L459 -167 L459 500 Z M382 219 C378 171 373 150 357 122 C333 78 294 53 249 53 C171 53 122 128 122 246 C122 364 173 443 250 443 C283 443 318 427 342 401 C367 373 376 346 382 285 L382 219 Z " />
<glyph glyph-name="r" unicode="r" horiz-adv-x="329" d="M154 0 L154 261 C156 366 227 440 320 432 L320 505 C309 506 298 507 292 507 C254 507 217 490 195 464 C177 442 168 427 144 378 L144 493 L77 493 L77 0 L154 0 Z " />
<glyph glyph-name="s" unicode="s" horiz-adv-x="464" d="M10 128 C22 85 35 64 61 42 C103 5 159 -13 229 -13 C351 -13 432 48 432 138 C432 218 383 266 282 284 L185 301 C133 311 108 333 108 370 C108 414 150 443 214 443 C277 443 317 419 340 366 L410 381 C386 463 319 506 216 506 C104 506 30 448 30 361 C30 291 79 241 163 225 L267 206 C323 195 352 170 352 130 C352 82 305 50 236 50 C190 50 143 64 115 87 C99 100 91 115 83 143 L10 128 Z " />
<glyph glyph-name="t" unicode="t" horiz-adv-x="308" d="M300 53 C273 48 259 47 241 47 C188 47 161 73 161 124 L161 433 L272 433 L272 493 L161 493 L161 623 L89 617 L86 493 L-1 493 L-1 433 L86 433 L86 136 C86 37 134 -14 227 -14 C250 -14 266 -13 300 -8 L300 53 Z " />
<glyph glyph-name="u" unicode="u" horiz-adv-x="541" d="M465 0 L465 493 L388 493 L388 215 C388 124 327 50 251 50 C224 50 197 62 179 84 C162 104 154 133 154 178 L154 493 L77 493 L77 178 C77 59 139 -13 239 -13 C308 -13 361 24 396 94 L396 0 L465 0 Z " />
<glyph glyph-name="v" unicode="v" horiz-adv-x="450" d="M438 493 L370 493 L234 92 L97 493 L12 493 L188 0 L268 0 L438 493 Z " />
<glyph glyph-name="w" unicode="w" horiz-adv-x="664" d="M645 493 L583 493 L472 124 L362 493 L306 493 L203 126 L96 493 L19 493 L167 0 L230 0 L331 366 L441 0 L503 0 L645 493 Z " />
<glyph glyph-name="x" unicode="x" horiz-adv-x="424" d="M420 0 L250 272 L394 493 L320 493 L213 325 L107 493 L19 493 L169 256 L3 0 L78 0 L206 200 L331 0 L420 0 Z " />
<glyph glyph-name="y" unicode="y" horiz-adv-x="415" d="M415 493 L350 493 L215 122 L83 493 L5 493 L175 9 C162 -35 153 -56 143 -72 C125 -101 100 -114 65 -114 C50 -114 38 -112 14 -107 L14 -168 C39 -174 52 -176 72 -176 C107 -176 131 -170 149 -157 C179 -136 200 -105 217 -58 L415 493 Z " />
<glyph glyph-name="z" unicode="z" horiz-adv-x="423" d="M396 59 L125 59 L396 451 L396 493 L53 493 L53 433 L295 433 L33 59 L33 0 L396 0 L396 59 Z " />
<glyph glyph-name="braceleft" unicode="&#x7b;" horiz-adv-x="293" d="M182 528 C181 594 203 614 274 615 L274 667 L253 667 C156 667 115 628 115 536 L115 363 C114 310 100 287 58 275 L58 227 C100 215 115 192 115 136 L115 -24 C115 -128 153 -167 253 -167 L274 -167 L274 -115 C201 -115 182 -96 182 -25 L182 137 C182 198 165 229 120 249 C166 270 180 294 182 359 L182 528 Z " />
<glyph glyph-name="bar" unicode="&#x7c;" horiz-adv-x="500" d="M213 667 L213 -167 L288 -167 L288 667 L213 667 Z " />
<glyph glyph-name="braceright" unicode="&#x7d;" horiz-adv-x="293" d="M112 -28 C113 -94 91 -114 20 -115 L20 -167 L41 -167 C138 -167 179 -128 179 -36 L179 137 C180 190 194 213 236 225 L236 273 C194 285 179 308 179 364 L179 524 C179 628 141 667 41 667 L20 667 L20 615 C93 615 112 596 112 525 L112 363 C112 302 129 271 174 251 C128 230 114 206 112 141 L112 -28 Z " />
<glyph glyph-name="asciitilde" unicode="&#x7e;" horiz-adv-x="587" d="M97 257 C127 310 151 330 184 330 C205 330 238 320 272 304 C337 273 365 264 396 264 C423 264 458 278 478 297 C498 316 513 337 534 377 L489 404 C459 354 436 337 399 337 C376 337 349 346 302 368 C254 391 218 402 190 402 C131 402 92 369 53 286 L97 257 Z " />
<glyph glyph-name="uni00A0" unicode="&#xa0;" horiz-adv-x="250" d="" />
<glyph glyph-name="exclamdown" unicode="&#xa1;" horiz-adv-x="269" d="M84 493 L84 390 L186 390 L186 493 L84 493 Z M115 334 L77 -167 L192 -167 L156 334 L115 334 Z " />
<glyph glyph-name="cent" unicode="&#xa2;" horiz-adv-x="587" d="M326 -28 L326 110 C412 123 463 173 484 265 L417 275 C407 219 372 178 326 170 L326 516 C366 513 406 466 417 408 L484 421 C470 504 408 564 326 573 L326 695 L271 695 L271 573 C220 564 194 552 166 526 C121 484 96 417 96 340 C96 263 122 198 169 155 C197 130 221 119 271 110 L271 -28 L326 -28 Z M271 170 C204 190 173 244 173 339 C173 437 209 502 271 514 L271 170 Z " />
<glyph glyph-name="sterling" unicode="&#xa3;" horiz-adv-x="587" d="M512 149 C483 93 441 73 353 73 L197 73 C253 119 275 168 275 248 C275 268 274 283 272 317 L408 316 L408 374 L265 374 C255 461 255 463 255 496 C255 563 297 613 354 613 C391 613 415 597 455 547 L510 589 C463 653 415 680 350 680 C242 680 168 593 168 468 C168 438 170 417 177 374 L76 374 L76 316 L183 317 C190 267 192 242 192 221 C192 172 180 142 150 113 C118 83 90 74 22 73 L-2 72 L-2 0 L403 0 C480 1 546 42 576 108 L512 149 Z " />
<glyph glyph-name="currency" unicode="&#xa4;" horiz-adv-x="667" d="M51 125 L95 80 L191 175 C249 138 285 126 335 126 C387 126 424 139 478 176 L574 80 L618 125 L522 221 C560 279 571 311 571 362 C571 413 560 446 521 504 L617 599 L572 644 L476 549 C418 587 387 598 334 598 C281 598 250 587 190 548 L94 644 L49 599 L145 503 C108 448 96 413 96 363 C96 311 110 271 146 220 L51 125 Z M336 531 C426 531 502 454 502 362 C502 269 427 193 333 193 C241 193 165 269 165 362 C165 456 240 531 336 531 L336 531 Z " />
<glyph glyph-name="yen" unicode="&#xa5;" horiz-adv-x="587" d="M412 413 L558 667 L482 667 L304 360 L127 667 L29 667 L176 413 L52 413 L52 356 L209 356 L253 279 L52 278 L52 220 L254 220 L254 0 L334 0 L334 220 L535 220 L535 278 L335 279 L378 356 L535 356 L535 413 L412 413 Z " />
<glyph glyph-name="brokenbar" unicode="&#xa6;" horiz-adv-x="500" d="M213 667 L213 333 L288 333 L288 667 L213 667 Z M213 153 L213 -167 L288 -167 L288 153 L213 153 Z " />
<glyph glyph-name="section" unicode="&#xa7;" horiz-adv-x="587" d="M66 -35 C84 -79 98 -100 128 -125 C172 -162 228 -180 297 -180 C427 -180 522 -103 522 1 C522 63 491 108 427 138 C485 187 507 224 507 272 C507 336 461 388 385 409 L295 434 C214 457 176 491 176 540 C176 590 222 625 287 625 C352 625 392 600 417 542 L491 551 C463 635 392 681 289 681 C175 681 101 621 101 528 C101 471 124 433 181 399 C113 354 87 314 87 255 C87 183 133 139 238 111 L339 84 C410 65 442 35 442 -11 C442 -71 381 -117 303 -117 C264 -117 225 -104 195 -81 C175 -65 166 -53 152 -23 L66 -35 Z M348 342 C400 326 435 289 435 251 C435 214 410 180 366 157 L270 184 C197 205 164 234 164 278 C164 317 187 347 240 375 L348 342 Z " />
<glyph glyph-name="dieresis" unicode="&#xa8;" horiz-adv-x="500" d="M328 686 C299 686 276 664 276 637 C276 609 299 587 327 587 C356 587 379 609 379 637 C379 664 356 686 328 686 L328 686 Z M172 686 C143 686 121 664 121 636 C121 609 143 587 171 587 C199 587 222 609 222 637 C222 664 199 686 172 686 L172 686 Z " />
<glyph glyph-name="copyright" unicode="&#xa9;" horiz-adv-x="773" d="M483 273 C469 209 432 173 381 173 C316 173 273 235 273 332 C273 432 314 493 383 493 C433 493 461 465 481 398 L540 409 C518 497 466 541 384 541 C276 541 206 461 206 337 C206 210 276 125 381 125 C464 125 515 168 540 261 L483 273 Z M392 678 C198 678 42 526 42 336 C42 143 195 -11 387 -11 C577 -11 731 143 731 334 C731 521 577 678 392 678 L392 678 Z M391 629 C549 629 682 494 682 334 C682 170 550 38 387 38 C222 38 91 170 91 336 C91 407 119 478 167 531 C226 596 301 629 391 629 L391 629 Z " />
<glyph glyph-name="ordfeminine" unicode="&#xaa;" horiz-adv-x="349" d="M304 374 C298 394 297 407 296 434 L296 558 C296 647 262 680 173 680 C115 680 71 664 48 634 C39 622 37 616 32 594 L87 585 C97 624 117 638 165 638 C222 638 240 620 239 562 L205 562 C151 562 108 555 79 541 C45 524 24 492 24 458 C24 403 70 366 137 366 C184 366 217 381 240 414 C242 397 243 389 245 374 L304 374 Z M239 520 C240 514 240 508 240 504 C240 450 199 408 146 408 C109 408 86 427 86 456 C86 499 127 521 204 521 L239 520 Z " />
<glyph glyph-name="guillemotleft" unicode="&#xab;" horiz-adv-x="344" d="M124 117 L168 117 L116 260 L168 398 L124 398 L40 260 L124 117 Z M253 117 L297 117 L245 260 L297 398 L252 398 L168 260 L253 117 Z " />
<glyph glyph-name="logicalnot" unicode="&#xac;" horiz-adv-x="587" d="M510 0 L510 266 L77 266 L77 199 L435 199 L435 0 L510 0 Z " />
<glyph glyph-name="uni00AD" unicode="&#xad;" horiz-adv-x="250" d="M236 280 L15 280 L15 220 L236 220 L236 280 Z " />
<glyph glyph-name="registered" unicode="&#xae;" horiz-adv-x="773" d="M549 133 L466 316 C515 333 543 371 543 419 C543 486 487 533 407 533 L238 533 L238 133 L297 133 L297 303 L407 303 L483 133 L549 133 Z M297 350 L297 483 L407 483 C452 483 480 459 480 420 C480 377 450 350 400 350 L297 350 Z M392 678 C198 678 42 526 42 336 C42 143 195 -11 387 -11 C577 -11 731 143 731 334 C731 521 577 678 392 678 L392 678 Z M391 629 C549 629 682 494 682 334 C682 170 550 38 387 38 C222 38 91 170 91 336 C91 407 119 478 167 531 C226 596 301 629 391 629 L391 629 Z " />
<glyph glyph-name="macron" unicode="&#xaf;" horiz-adv-x="500" d="M401 657 L98 657 L98 604 L401 604 L401 657 Z " />
<glyph glyph-name="degree" unicode="&#xb0;" horiz-adv-x="587" d="M294 680 C220 680 161 621 161 548 C161 476 220 416 291 416 C367 416 426 474 426 548 C426 621 367 680 294 680 L294 680 Z M293 624 C335 624 369 590 369 549 C369 506 335 473 292 473 C251 473 218 507 218 548 C218 590 252 624 293 624 L293 624 Z " />
<glyph glyph-name="plusminus" unicode="&#xb1;" horiz-adv-x="587" d="M60 368 L60 300 L257 300 L257 95 L330 95 L330 300 L527 300 L527 368 L330 368 L330 573 L257 573 L257 368 L60 368 Z M60 48 L60 -20 L527 -20 L527 48 L60 48 Z " />
<glyph glyph-name="twosuperior" unicode="&#xb2;" horiz-adv-x="387" d="M340 314 L119 314 C283 424 339 485 339 553 C339 623 275 675 192 675 C110 675 60 635 39 554 L94 538 C100 595 137 629 191 629 C242 629 281 596 281 552 C281 496 242 457 61 327 L40 312 L40 267 L340 267 L340 314 Z " />
<glyph glyph-name="threesuperior" unicode="&#xb3;" horiz-adv-x="387" d="M128 452 L179 452 C247 452 287 425 287 378 C287 334 249 306 189 306 C127 306 98 325 80 378 L25 361 C52 293 106 259 186 259 C282 259 347 308 347 379 C347 428 315 465 263 477 C306 492 331 525 331 566 C331 629 273 675 193 675 C117 675 68 644 40 578 L93 564 C111 609 141 629 189 629 C238 629 272 602 272 563 C272 521 238 497 179 497 L128 497 L128 452 Z " />
<glyph glyph-name="acute" unicode="&#xb4;" horiz-adv-x="500" d="M408 662 L378 721 L185 609 L206 570 L408 662 Z " />
<glyph glyph-name="mu" unicode="&#xb5;" horiz-adv-x="587" d="M99 -167 L176 -167 L176 64 C205 11 241 -13 293 -13 C349 -13 381 10 417 77 L417 0 L487 0 L487 493 L410 493 L410 223 C410 170 404 138 388 111 C368 75 332 55 291 55 C252 55 222 72 200 106 C181 135 176 159 176 216 L176 493 L99 493 L99 -167 Z " />
<glyph glyph-name="paragraph" unicode="&#xb6;" horiz-adv-x="587" d="M530 667 L246 667 C179 667 140 661 114 648 C66 623 36 567 36 501 C36 439 63 394 112 371 C139 359 178 354 245 354 L318 354 L318 -167 L367 -167 L367 620 L414 620 L414 -167 L463 -167 L463 620 L530 620 L530 667 Z M318 401 L249 401 C155 401 117 432 117 508 C117 544 126 574 144 591 C165 614 192 620 264 620 L318 620 L318 401 Z " />
<glyph glyph-name="periodcentered" unicode="&#xb7;" horiz-adv-x="109" d="M109 308 L0 308 L0 199 L109 199 L109 308 Z " />
<glyph glyph-name="cedilla" unicode="&#xb8;" horiz-adv-x="500" d="M214 0 L188 -79 C204 -78 212 -77 221 -77 C260 -77 281 -89 281 -111 C281 -132 261 -146 230 -146 C207 -146 190 -142 162 -128 L150 -160 C178 -176 203 -182 236 -182 C294 -182 330 -155 330 -111 C330 -87 314 -64 291 -55 C275 -49 263 -47 233 -45 L246 0 L214 0 Z " />
<glyph glyph-name="onesuperior" unicode="&#xb9;" horiz-adv-x="387" d="M347 310 L245 310 L245 675 L203 675 C170 636 132 606 75 577 L75 520 C119 543 150 566 188 603 L188 310 L78 310 L78 267 L347 267 L347 310 Z " />
<glyph glyph-name="ordmasculine" unicode="&#xba;" horiz-adv-x="344" d="M172 680 C87 680 28 616 28 525 C28 430 83 367 167 367 C253 367 315 431 315 521 C315 617 259 680 172 680 L172 680 Z M171 636 C222 636 252 594 252 523 C252 453 222 411 171 411 C120 411 91 452 91 525 C91 595 121 636 171 636 L171 636 Z " />
<glyph glyph-name="guillemotright" unicode="&#xbb;" horiz-adv-x="344" d="M220 398 L176 398 L228 255 L176 117 L220 117 L304 255 L220 398 Z M92 398 L47 398 L99 255 L47 117 L92 117 L176 255 L92 398 Z " />
<glyph glyph-name="onequarter" unicode="&#xbc;" horiz-adv-x="880" d="M322 310 L220 310 L220 675 L178 675 C145 636 107 606 50 577 L50 520 C94 543 125 566 163 603 L163 310 L53 310 L53 267 L322 267 L322 310 Z M262 0 L665 667 L605 667 L201 0 L262 0 Z M773 0 L773 93 L841 93 L841 139 L773 139 L773 408 L703 408 L513 131 L513 93 L716 93 L716 0 L773 0 Z M716 139 L576 139 L701 327 C706 334 710 341 716 352 L716 322 L716 139 Z " />
<glyph glyph-name="onehalf" unicode="&#xbd;" horiz-adv-x="880" d="M315 310 L213 310 L213 675 L171 675 C138 636 100 606 43 577 L43 520 C87 543 118 566 156 603 L156 310 L46 310 L46 267 L315 267 L315 310 Z M255 0 L658 667 L598 667 L194 0 L255 0 Z M839 47 L618 47 C782 156 838 218 838 286 C838 356 774 408 690 408 C608 408 558 368 537 286 L593 271 C598 328 635 362 689 362 C740 362 779 329 779 285 C779 229 741 190 559 60 L538 45 L538 0 L839 0 L839 47 Z " />
<glyph glyph-name="threequarters" unicode="&#xbe;" horiz-adv-x="880" d="M123 452 L174 452 C242 452 282 425 282 378 C282 334 244 306 184 306 C122 306 93 325 75 378 L20 361 C47 293 101 259 181 259 C277 259 342 308 342 379 C342 428 310 465 258 477 C301 492 326 525 326 566 C326 629 268 675 188 675 C112 675 63 644 35 578 L88 564 C106 609 136 629 184 629 C233 629 267 602 267 563 C267 521 233 497 174 497 L123 497 L123 452 Z M296 0 L699 667 L638 667 L235 0 L296 0 Z M787 0 L787 93 L854 93 L854 139 L787 139 L787 408 L717 408 L526 131 L526 93 L730 93 L730 0 L787 0 Z M730 139 L589 139 L715 327 C720 335 724 342 730 352 L730 322 L730 139 Z " />
<glyph glyph-name="questiondown" unicode="&#xbf;" horiz-adv-x="505" d="M227 397 L326 397 L326 493 L227 493 L227 397 Z M243 334 C243 313 243 310 244 290 C245 231 241 226 165 184 C79 138 40 84 40 10 C40 -103 128 -180 258 -180 C329 -180 384 -159 425 -115 C459 -79 474 -47 485 17 L413 32 C402 -17 393 -38 374 -62 C350 -93 307 -112 262 -112 C184 -112 127 -62 127 7 C127 55 152 95 197 121 C219 133 240 145 261 157 C279 167 293 183 301 202 C313 232 314 244 313 312 C313 315 313 324 314 334 L243 334 Z " />
<glyph glyph-name="Agrave" unicode="&#xc0;" horiz-adv-x="551" d="M532 0 L315 667 L219 667 L3 0 L73 0 L132 195 L379 195 L446 0 L532 0 Z M361 258 L156 258 L259 578 L361 258 Z M108 816 L310 730 L331 769 L138 874 L108 816 Z " />
<glyph glyph-name="Aacute" unicode="&#xc1;" horiz-adv-x="551" d="M532 0 L315 667 L219 667 L3 0 L73 0 L132 195 L379 195 L446 0 L532 0 Z M361 258 L156 258 L259 578 L361 258 Z M426 816 L396 874 L203 769 L223 730 L426 816 Z " />
<glyph glyph-name="Acircumflex" unicode="&#xc2;" horiz-adv-x="551" d="M532 0 L315 667 L219 667 L3 0 L73 0 L132 195 L379 195 L446 0 L532 0 Z M361 258 L156 258 L259 578 L361 258 Z M429 743 L269 863 L106 743 L177 733 L267 792 L360 733 L429 743 Z " />
<glyph glyph-name="Atilde" unicode="&#xc3;" horiz-adv-x="551" d="M532 0 L315 667 L219 667 L3 0 L73 0 L132 195 L379 195 L446 0 L532 0 Z M361 258 L156 258 L259 578 L361 258 Z M397 831 C373 811 358 805 337 805 C323 805 309 808 295 814 C232 840 232 840 210 840 C166 840 129 819 101 778 L142 749 C163 774 180 782 207 782 C222 782 237 779 251 773 C312 746 312 746 334 746 C370 746 393 757 434 795 L397 831 Z " />
<glyph glyph-name="Adieresis" unicode="&#xc4;" horiz-adv-x="551" d="M532 0 L315 667 L219 667 L3 0 L73 0 L132 195 L379 195 L446 0 L532 0 Z M361 258 L156 258 L259 578 L361 258 Z M346 842 C317 842 294 820 294 793 C294 765 317 743 345 743 C374 743 397 765 397 793 C397 820 374 842 346 842 L346 842 Z M189 842 C160 842 138 820 138 792 C138 765 160 743 188 743 C216 743 239 765 239 793 C239 820 216 842 189 842 L189 842 Z " />
<glyph glyph-name="Aring" unicode="&#xc5;" horiz-adv-x="551" d="M532 0 L315 667 L219 667 L3 0 L73 0 L132 195 L379 195 L446 0 L532 0 Z M361 258 L156 258 L259 578 L361 258 Z M270 887 C220 887 180 848 180 799 C180 751 220 711 269 711 C317 711 356 750 356 798 C356 847 317 887 270 887 L270 887 Z M269 843 C293 843 312 823 312 798 C312 774 293 754 269 754 C244 754 224 774 224 799 C224 823 244 843 269 843 L269 843 Z " />
<glyph glyph-name="AE" unicode="&#xc6;" horiz-adv-x="906" d="M873 73 L498 73 L498 315 L791 315 L791 382 L498 382 L498 598 L861 598 L861 667 L384 667 L-13 0 L68 0 L190 206 L415 206 L415 0 L873 0 L873 73 Z M415 271 L227 271 L415 594 L415 271 Z " />
<glyph glyph-name="Ccedilla" unicode="&#xc7;" horiz-adv-x="579" d="M317 -14 C441 -13 524 63 559 207 L483 224 C468 169 458 146 438 118 C411 81 363 57 315 57 C204 57 133 164 133 330 C133 505 202 609 318 609 C400 609 448 562 481 450 L559 466 C524 609 444 680 319 680 C151 680 42 546 42 340 C42 146 136 6 278 -11 L252 -88 C270 -86 278 -85 289 -85 C333 -85 355 -98 355 -123 C355 -147 334 -161 298 -161 C273 -161 256 -157 223 -142 L211 -177 C245 -195 269 -201 305 -201 C370 -201 411 -171 411 -125 C411 -82 373 -51 322 -51 L305 -52 L317 -14 Z " />
<glyph glyph-name="Egrave" unicode="&#xc8;" horiz-adv-x="548" d="M514 73 L166 73 L166 313 L435 313 L435 381 L166 381 L166 594 L505 594 L505 667 L83 667 L83 0 L514 0 L514 73 Z M157 816 L360 730 L380 769 L187 874 L157 816 Z " />
<glyph glyph-name="Eacute" unicode="&#xc9;" horiz-adv-x="548" d="M514 73 L166 73 L166 313 L435 313 L435 381 L166 381 L166 594 L505 594 L505 667 L83 667 L83 0 L514 0 L514 73 Z M444 816 L414 874 L220 769 L241 730 L444 816 Z " />
<glyph glyph-name="Ecircumflex" unicode="&#xca;" horiz-adv-x="548" d="M514 73 L166 73 L166 313 L435 313 L435 381 L166 381 L166 594 L505 594 L505 667 L83 667 L83 0 L514 0 L514 73 Z M457 743 L297 863 L133 743 L205 733 L295 792 L388 733 L457 743 Z " />
<glyph glyph-name="Edieresis" unicode="&#xcb;" horiz-adv-x="548" d="M514 73 L166 73 L166 313 L435 313 L435 381 L166 381 L166 594 L505 594 L505 667 L83 667 L83 0 L514 0 L514 73 Z M373 842 C344 842 321 820 321 793 C321 765 344 743 372 743 C401 743 424 765 424 793 C424 820 401 842 373 842 L373 842 Z M217 842 C188 842 166 820 166 792 C166 765 188 743 216 743 C244 743 267 765 267 793 C267 820 244 842 217 842 L217 842 Z " />
<glyph glyph-name="Igrave" unicode="&#xcc;" horiz-adv-x="250" d="M167 0 L167 667 L84 667 L84 0 L167 0 Z M-13 818 L170 730 L190 769 L17 874 L-13 818 Z " />
<glyph glyph-name="Iacute" unicode="&#xcd;" horiz-adv-x="250" d="M166 0 L166 667 L83 667 L83 0 L166 0 Z M263 818 L233 874 L60 769 L81 730 L263 818 Z " />
<glyph glyph-name="Icircumflex" unicode="&#xce;" horiz-adv-x="250" d="M166 0 L166 667 L83 667 L83 0 L166 0 Z M267 743 L126 863 L-17 743 L51 733 L125 792 L201 733 L267 743 Z " />
<glyph glyph-name="Idieresis" unicode="&#xcf;" horiz-adv-x="250" d="M166 0 L166 667 L83 667 L83 0 L166 0 Z M192 842 C163 842 140 820 140 793 C140 765 163 743 191 743 C220 743 243 765 243 793 C243 820 220 842 192 842 L192 842 Z M57 842 C28 842 6 820 6 792 C6 765 28 743 56 743 C84 743 107 765 107 793 C107 820 84 842 57 842 L57 842 Z " />
<glyph glyph-name="Eth" unicode="&#xd0;" horiz-adv-x="647" d="M17 320 L84 320 L84 0 L334 0 C490 0 605 143 605 336 C605 441 569 532 504 594 C451 644 389 667 306 667 L84 667 L84 387 L17 387 L17 320 Z M167 387 L167 597 L301 597 C366 597 414 578 450 539 C495 489 520 417 520 336 C520 253 493 173 448 126 C415 91 362 71 302 71 L167 71 L167 320 L326 320 L326 387 L167 387 Z " />
<glyph glyph-name="Ntilde" unicode="&#xd1;" horiz-adv-x="657" d="M574 0 L574 667 L508 667 L508 218 C508 211 508 194 509 169 L510 123 L187 667 L83 667 L83 0 L150 0 L150 495 C150 511 149 531 148 581 L493 0 L574 0 Z M461 831 C437 811 422 805 401 805 C387 805 373 808 359 814 C297 840 297 840 274 840 C230 840 193 819 165 778 L206 749 C227 774 244 782 271 782 C286 782 302 779 315 773 C377 746 377 746 398 746 C434 746 457 757 499 795 L461 831 Z " />
<glyph glyph-name="Ograve" unicode="&#xd2;" horiz-adv-x="631" d="M316 680 C154 680 42 538 42 332 C42 228 71 139 124 73 C171 16 235 -13 314 -13 C392 -13 452 14 500 71 C557 138 589 234 589 334 C589 542 480 680 316 680 L316 680 Z M315 612 C432 612 502 508 502 335 C502 166 428 55 316 55 C203 55 129 165 129 331 C129 501 202 612 315 612 L315 612 Z M171 816 L373 730 L394 769 L201 874 L171 816 Z " />
<glyph glyph-name="Oacute" unicode="&#xd3;" horiz-adv-x="631" d="M316 680 C154 680 42 538 42 332 C42 228 71 139 124 73 C171 16 235 -13 314 -13 C392 -13 452 14 500 71 C557 138 589 234 589 334 C589 542 480 680 316 680 L316 680 Z M315 612 C432 612 502 508 502 335 C502 166 428 55 316 55 C203 55 129 165 129 331 C129 501 202 612 315 612 L315 612 Z M467 816 L437 874 L244 769 L265 730 L467 816 Z " />
<glyph glyph-name="Ocircumflex" unicode="&#xd4;" horiz-adv-x="631" d="M316 680 C154 680 42 538 42 332 C42 228 71 139 124 73 C171 16 235 -13 314 -13 C392 -13 452 14 500 71 C557 138 589 234 589 334 C589 542 480 680 316 680 L316 680 Z M315 612 C432 612 502 508 502 335 C502 166 428 55 316 55 C203 55 129 165 129 331 C129 501 202 612 315 612 L315 612 Z M478 743 L317 863 L154 743 L226 733 L316 792 L409 733 L478 743 Z " />
<glyph glyph-name="Otilde" unicode="&#xd5;" horiz-adv-x="631" d="M316 680 C154 680 42 538 42 332 C42 228 71 139 124 73 C171 16 235 -13 314 -13 C392 -13 452 14 500 71 C557 138 589 234 589 334 C589 542 480 680 316 680 L316 680 Z M315 612 C432 612 502 508 502 335 C502 166 428 55 316 55 C203 55 129 165 129 331 C129 501 202 612 315 612 L315 612 Z M452 831 C428 811 413 805 391 805 C378 805 364 808 350 814 C287 840 287 840 265 840 C221 840 184 819 155 778 L196 749 C218 774 235 782 261 782 C277 782 292 779 306 773 C367 746 367 746 389 746 C425 746 448 757 489 795 L452 831 Z " />
<glyph glyph-name="Odieresis" unicode="&#xd6;" horiz-adv-x="631" d="M316 680 C154 680 42 538 42 332 C42 228 71 139 124 73 C171 16 235 -13 314 -13 C392 -13 452 14 500 71 C557 138 589 234 589 334 C589 542 480 680 316 680 L316 680 Z M315 612 C432 612 502 508 502 335 C502 166 428 55 316 55 C203 55 129 165 129 331 C129 501 202 612 315 612 L315 612 Z M394 842 C365 842 342 820 342 793 C342 765 365 743 393 743 C422 743 445 765 445 793 C445 820 422 842 394 842 L394 842 Z M237 842 C208 842 186 820 186 792 C186 765 208 743 236 743 C264 743 287 765 287 793 C287 820 264 842 237 842 L237 842 Z " />
<glyph glyph-name="multiply" unicode="&#xd7;" horiz-adv-x="587" d="M444 135 L492 183 L341 334 L492 485 L444 533 L294 382 L143 533 L95 485 L246 334 L95 183 L143 135 L294 286 L444 135 Z " />
<glyph glyph-name="Oslash" unicode="&#xd8;" horiz-adv-x="631" d="M31 -24 L101 -24 L148 48 C203 2 243 -13 312 -13 C395 -13 457 16 506 79 C560 148 589 238 589 338 C589 434 565 516 518 579 L595 693 L524 693 L476 625 C423 665 379 680 316 680 C153 680 42 539 42 331 C42 238 63 163 108 94 L31 -24 Z M162 163 C139 213 129 266 129 335 C129 502 202 612 314 612 C359 612 399 596 428 567 L162 163 Z M466 515 C492 463 502 411 502 338 C502 253 483 180 447 125 C416 78 373 55 315 55 C264 55 232 70 198 109 L466 515 Z " />
<glyph glyph-name="Ugrave" unicode="&#xd9;" horiz-adv-x="606" d="M463 667 L463 231 C463 172 454 137 430 109 C404 78 359 60 307 60 C255 60 206 79 183 109 C164 134 156 169 156 231 L156 667 L73 667 L73 231 C73 155 85 107 113 66 C150 13 212 -13 300 -13 C384 -13 448 14 487 66 C519 108 532 155 532 231 L532 667 L463 667 Z M155 816 L357 730 L378 769 L185 874 L155 816 Z " />
<glyph glyph-name="Uacute" unicode="&#xda;" horiz-adv-x="606" d="M463 667 L463 231 C463 172 454 137 430 109 C404 78 359 60 307 60 C255 60 206 79 183 109 C164 134 156 169 156 231 L156 667 L73 667 L73 231 C73 155 85 107 113 66 C150 13 212 -13 300 -13 C384 -13 448 14 487 66 C519 108 532 155 532 231 L532 667 L463 667 Z M464 816 L434 874 L241 769 L262 730 L464 816 Z " />
<glyph glyph-name="Ucircumflex" unicode="&#xdb;" horiz-adv-x="606" d="M463 667 L463 231 C463 172 454 137 430 109 C404 78 359 60 307 60 C255 60 206 79 183 109 C164 134 156 169 156 231 L156 667 L73 667 L73 231 C73 155 85 107 113 66 C150 13 212 -13 300 -13 C384 -13 448 14 487 66 C519 108 532 155 532 231 L532 667 L463 667 Z M468 743 L307 863 L144 743 L216 733 L306 792 L399 733 L468 743 Z " />
<glyph glyph-name="Udieresis" unicode="&#xdc;" horiz-adv-x="606" d="M463 667 L463 231 C463 172 454 137 430 109 C404 78 359 60 307 60 C255 60 206 79 183 109 C164 134 156 169 156 231 L156 667 L73 667 L73 231 C73 155 85 107 113 66 C150 13 212 -13 300 -13 C384 -13 448 14 487 66 C519 108 532 155 532 231 L532 667 L463 667 Z M384 842 C355 842 332 820 332 793 C332 765 355 743 383 743 C412 743 435 765 435 793 C435 820 412 842 384 842 L384 842 Z M228 842 C199 842 177 820 177 792 C177 765 199 743 227 743 C255 743 278 765 278 793 C278 820 255 842 228 842 L228 842 Z " />
<glyph glyph-name="Yacute" unicode="&#xdd;" horiz-adv-x="510" d="M519 667 L443 667 L265 360 L88 667 L-10 667 L213 281 L213 0 L296 0 L296 281 L519 667 Z M417 816 L387 874 L193 769 L214 730 L417 816 Z " />
<glyph glyph-name="Thorn" unicode="&#xde;" horiz-adv-x="566" d="M166 0 L166 174 L328 174 C449 174 535 256 535 371 C535 431 506 494 462 529 C428 556 378 570 319 570 L166 570 L166 667 L83 667 L83 0 L166 0 Z M166 243 L166 500 L325 500 C399 500 450 447 450 371 C450 294 398 243 319 243 L166 243 Z " />
<glyph glyph-name="germandbls" unicode="&#xdf;" horiz-adv-x="567" d="M77 -43 L154 -43 L154 474 C154 574 207 636 292 636 C352 636 393 604 393 558 C393 504 334 466 241 458 C218 456 211 453 205 443 C194 424 188 406 188 389 C188 357 213 330 264 307 L386 254 C430 234 457 198 457 158 C457 91 399 41 321 41 C301 41 282 43 244 51 L222 -5 C273 -17 298 -21 332 -21 C452 -21 541 60 541 168 C541 260 489 310 331 368 C274 389 261 396 261 407 C261 414 265 416 280 416 C398 416 477 471 477 554 C477 636 397 699 293 699 C212 699 144 660 111 594 C89 551 82 519 77 448 L25 448 L25 386 L77 386 L77 -43 Z " />
<glyph glyph-name="agrave" unicode="&#xe0;" horiz-adv-x="529" d="M463 0 C456 25 453 56 452 96 L452 305 C452 377 443 416 419 449 C390 488 340 507 266 507 C184 507 122 487 83 447 C62 426 53 407 46 370 L117 358 C130 417 175 448 249 448 C343 448 378 414 378 321 L378 305 C347 307 332 307 314 307 C228 307 161 295 116 271 C65 245 33 192 33 136 C33 48 103 -13 205 -13 C289 -13 338 16 378 89 C382 33 382 24 387 0 L463 0 Z M378 247 C379 234 379 224 379 215 C379 120 310 46 220 46 C156 46 115 81 115 134 C115 209 185 249 313 249 C325 249 351 248 378 247 L378 247 Z M123 662 L325 570 L346 609 L153 721 L123 662 Z " />
<glyph glyph-name="aacute" unicode="&#xe1;" horiz-adv-x="529" d="M463 0 C456 25 453 56 452 96 L452 305 C452 377 443 416 419 449 C390 488 340 507 266 507 C184 507 122 487 83 447 C62 426 53 407 46 370 L117 358 C130 417 175 448 249 448 C343 448 378 414 378 321 L378 305 C347 307 332 307 314 307 C228 307 161 295 116 271 C65 245 33 192 33 136 C33 48 103 -13 205 -13 C289 -13 338 16 378 89 C382 33 382 24 387 0 L463 0 Z M378 247 C379 234 379 224 379 215 C379 120 310 46 220 46 C156 46 115 81 115 134 C115 209 185 249 313 249 C325 249 351 248 378 247 L378 247 Z M406 662 L376 721 L183 609 L204 570 L406 662 Z " />
<glyph glyph-name="acircumflex" unicode="&#xe2;" horiz-adv-x="529" d="M463 0 C456 25 453 56 452 96 L452 305 C452 377 443 416 419 449 C390 488 340 507 266 507 C184 507 122 487 83 447 C62 426 53 407 46 370 L117 358 C130 417 175 448 249 448 C343 448 378 414 378 321 L378 305 C347 307 332 307 314 307 C228 307 161 295 116 271 C65 245 33 192 33 136 C33 48 103 -13 205 -13 C289 -13 338 16 378 89 C382 33 382 24 387 0 L463 0 Z M378 247 C379 234 379 224 379 215 C379 120 310 46 220 46 C156 46 115 81 115 134 C115 209 185 249 313 249 C325 249 351 248 378 247 L378 247 Z M423 583 L262 710 L99 583 L171 573 L261 639 L354 573 L423 583 Z " />
<glyph glyph-name="atilde" unicode="&#xe3;" horiz-adv-x="529" d="M463 0 C456 25 453 56 452 96 L452 305 C452 377 443 416 419 449 C390 488 340 507 266 507 C184 507 122 487 83 447 C62 426 53 407 46 370 L117 358 C130 417 175 448 249 448 C343 448 378 414 378 321 L378 305 C347 307 332 307 314 307 C228 307 161 295 116 271 C65 245 33 192 33 136 C33 48 103 -13 205 -13 C289 -13 338 16 378 89 C382 33 382 24 387 0 L463 0 Z M378 247 C379 234 379 224 379 215 C379 120 310 46 220 46 C156 46 115 81 115 134 C115 209 185 249 313 249 C325 249 351 248 378 247 L378 247 Z M394 674 C370 655 355 649 334 649 C320 649 306 652 292 658 C229 684 229 684 207 684 C163 684 126 663 98 622 L139 593 C160 617 177 626 203 626 C219 626 234 623 248 617 C309 590 309 590 331 590 C367 590 389 601 431 639 L394 674 Z " />
<glyph glyph-name="adieresis" unicode="&#xe4;" horiz-adv-x="529" d="M463 0 C456 25 453 56 452 96 L452 305 C452 377 443 416 419 449 C390 488 340 507 266 507 C184 507 122 487 83 447 C62 426 53 407 46 370 L117 358 C130 417 175 448 249 448 C343 448 378 414 378 321 L378 305 C347 307 332 307 314 307 C228 307 161 295 116 271 C65 245 33 192 33 136 C33 48 103 -13 205 -13 C289 -13 338 16 378 89 C382 33 382 24 387 0 L463 0 Z M378 247 C379 234 379 224 379 215 C379 120 310 46 220 46 C156 46 115 81 115 134 C115 209 185 249 313 249 C325 249 351 248 378 247 L378 247 Z M339 686 C310 686 287 664 287 637 C287 609 310 587 338 587 C367 587 390 609 390 637 C390 664 367 686 339 686 L339 686 Z M183 686 C154 686 132 664 132 636 C132 609 154 587 182 587 C210 587 233 609 233 637 C233 664 210 686 183 686 L183 686 Z " />
<glyph glyph-name="aring" unicode="&#xe5;" horiz-adv-x="529" d="M463 0 C456 25 453 56 452 96 L452 305 C452 377 443 416 419 449 C390 488 340 507 266 507 C184 507 122 487 83 447 C62 426 53 407 46 370 L117 358 C130 417 175 448 249 448 C343 448 378 414 378 321 L378 305 C347 307 332 307 314 307 C228 307 161 295 116 271 C65 245 33 192 33 136 C33 48 103 -13 205 -13 C289 -13 338 16 378 89 C382 33 382 24 387 0 L463 0 Z M378 247 C379 234 379 224 379 215 C379 120 310 46 220 46 C156 46 115 81 115 134 C115 209 185 249 313 249 C325 249 351 248 378 247 L378 247 Z M263 733 C214 733 176 695 176 648 C176 601 215 563 262 563 C309 563 346 601 346 647 C346 695 309 733 263 733 L263 733 Z M262 693 C286 693 306 673 306 648 C306 623 286 603 262 603 C237 603 216 624 216 648 C216 673 237 693 262 693 L262 693 Z " />
<glyph glyph-name="ae" unicode="&#xe6;" horiz-adv-x="841" d="M724 145 C693 79 654 50 592 50 C541 50 494 76 470 118 C451 151 445 179 445 238 L802 238 C798 317 789 361 767 401 C729 468 665 506 588 506 C523 506 473 484 428 435 C386 487 341 506 261 506 C195 506 142 491 102 460 C74 438 60 416 49 375 L122 362 C135 417 180 449 246 449 C329 449 372 410 372 334 C372 326 372 314 371 302 C341 304 327 305 305 305 C230 305 162 293 121 273 C64 245 31 193 31 133 C31 45 100 -14 203 -14 C293 -14 352 26 387 112 C435 25 495 -13 586 -13 C686 -13 763 40 793 132 L724 145 Z M448 295 C455 388 508 446 588 446 C666 446 714 391 718 295 L448 295 Z M369 219 C369 173 359 141 335 111 C306 73 258 50 211 50 C155 50 115 87 115 138 C115 207 186 250 302 250 C322 250 337 249 369 245 L369 219 Z " />
<glyph glyph-name="ccedilla" unicode="&#xe7;" horiz-adv-x="466" d="M247 -14 C345 -15 419 52 437 160 L368 172 C351 92 310 50 248 50 C166 50 118 124 118 248 C118 368 168 443 249 443 C287 443 320 426 342 396 C355 377 362 359 368 321 L437 334 C417 446 351 506 250 506 C122 506 38 402 38 245 C38 103 105 5 214 -12 L192 -80 C208 -78 216 -77 226 -77 C265 -77 285 -89 285 -111 C285 -132 265 -146 234 -146 C211 -146 194 -142 166 -129 L154 -160 C182 -176 207 -182 241 -182 C298 -182 334 -155 334 -111 C334 -87 318 -64 295 -55 C279 -49 268 -47 238 -46 L247 -14 Z " />
<glyph glyph-name="egrave" unicode="&#xe8;" horiz-adv-x="520" d="M402 147 C391 121 383 107 372 95 C347 66 309 50 269 50 C216 50 165 80 143 125 C128 156 123 182 123 240 L482 240 C481 308 473 349 453 392 C418 464 350 506 267 506 C132 506 38 399 38 244 C38 90 129 -13 264 -13 C364 -13 441 41 473 132 L402 147 Z M127 297 C132 344 140 368 162 396 C189 429 225 447 268 447 C312 447 345 430 370 395 C390 366 397 343 398 297 L127 297 Z M132 662 L334 570 L355 609 L162 721 L132 662 Z " />
<glyph glyph-name="eacute" unicode="&#xe9;" horiz-adv-x="520" d="M402 147 C391 121 383 107 372 95 C347 66 309 50 269 50 C216 50 165 80 143 125 C128 156 123 182 123 240 L482 240 C481 308 473 349 453 392 C418 464 350 506 267 506 C132 506 38 399 38 244 C38 90 129 -13 264 -13 C364 -13 441 41 473 132 L402 147 Z M127 297 C132 344 140 368 162 396 C189 429 225 447 268 447 C312 447 345 430 370 395 C390 366 397 343 398 297 L127 297 Z M415 662 L385 721 L192 609 L212 570 L415 662 Z " />
<glyph glyph-name="ecircumflex" unicode="&#xea;" horiz-adv-x="520" d="M402 147 C391 121 383 107 372 95 C347 66 309 50 269 50 C216 50 165 80 143 125 C128 156 123 182 123 240 L482 240 C481 308 473 349 453 392 C418 464 350 506 267 506 C132 506 38 399 38 244 C38 90 129 -13 264 -13 C364 -13 441 41 473 132 L402 147 Z M127 297 C132 344 140 368 162 396 C189 429 225 447 268 447 C312 447 345 430 370 395 C390 366 397 343 398 297 L127 297 Z M428 583 L268 710 L105 583 L176 573 L266 639 L359 573 L428 583 Z " />
<glyph glyph-name="edieresis" unicode="&#xeb;" horiz-adv-x="520" d="M402 147 C391 121 383 107 372 95 C347 66 309 50 269 50 C216 50 165 80 143 125 C128 156 123 182 123 240 L482 240 C481 308 473 349 453 392 C418 464 350 506 267 506 C132 506 38 399 38 244 C38 90 129 -13 264 -13 C364 -13 441 41 473 132 L402 147 Z M127 297 C132 344 140 368 162 396 C189 429 225 447 268 447 C312 447 345 430 370 395 C390 366 397 343 398 297 L127 297 Z M343 686 C314 686 291 664 291 637 C291 609 314 587 342 587 C371 587 394 609 394 637 C394 664 371 686 343 686 L343 686 Z M193 686 C164 686 142 664 142 636 C142 609 164 587 192 587 C220 587 243 609 243 637 C243 664 220 686 193 686 L193 686 Z " />
<glyph glyph-name="igrave" unicode="&#xec;" horiz-adv-x="229" d="M153 493 L76 493 L76 0 L153 0 L153 493 Z M-15 668 L150 570 L173 609 L16 721 L-15 668 Z " />
<glyph glyph-name="iacute" unicode="&#xed;" horiz-adv-x="229" d="M153 493 L76 493 L76 0 L153 0 L153 493 Z M244 668 L213 721 L56 609 L79 570 L244 668 Z " />
<glyph glyph-name="icircumflex" unicode="&#xee;" horiz-adv-x="229" d="M154 493 L77 493 L77 0 L154 0 L154 493 Z M247 583 L116 710 L-17 583 L49 573 L115 639 L183 573 L247 583 Z " />
<glyph glyph-name="idieresis" unicode="&#xef;" horiz-adv-x="229" d="M153 493 L76 493 L76 0 L153 0 L153 493 Z M182 686 C153 686 130 664 130 637 C130 609 153 587 181 587 C210 587 233 609 233 637 C233 664 210 686 182 686 L182 686 Z M47 686 C18 686 -4 664 -4 636 C-4 609 18 587 46 587 C74 587 97 609 97 637 C97 664 74 686 47 686 L47 686 Z " />
<glyph glyph-name="eth" unicode="&#xf0;" horiz-adv-x="518" d="M168 568 L198 525 L283 575 C325 531 348 493 365 437 C327 478 294 493 246 493 C130 493 38 381 38 240 C38 184 53 129 80 83 C118 19 177 -14 256 -14 C311 -14 362 5 401 42 C452 87 479 165 479 262 C479 404 435 516 344 609 L418 651 L384 693 L298 645 C268 668 231 686 197 697 L160 657 C203 636 215 629 240 611 L168 568 Z M257 430 C340 430 395 353 395 237 C395 123 342 49 259 49 C173 49 122 122 122 243 C122 356 176 430 257 430 L257 430 Z " />
<glyph glyph-name="ntilde" unicode="&#xf1;" horiz-adv-x="542" d="M466 0 L466 285 C466 358 461 395 448 420 C420 474 368 506 306 506 C238 506 199 480 148 402 L148 493 L77 493 L77 0 L154 0 L154 271 C154 368 212 440 292 440 C358 440 394 397 394 317 L394 0 L466 0 Z M404 674 C380 655 365 649 344 649 C330 649 316 652 302 658 C240 684 240 684 217 684 C173 684 137 663 108 622 L149 593 C170 617 187 626 214 626 C229 626 245 623 258 617 C320 590 320 590 341 590 C377 590 400 601 442 639 L404 674 Z " />
<glyph glyph-name="ograve" unicode="&#xf2;" horiz-adv-x="519" d="M261 506 C129 506 38 401 38 248 C38 91 124 -13 253 -13 C386 -13 481 93 481 241 C481 402 395 506 261 506 L261 506 Z M258 443 C298 443 337 423 362 390 C386 356 397 312 397 245 C397 123 345 50 259 50 C172 50 122 122 122 249 C122 309 134 357 156 389 C179 422 219 443 258 443 L258 443 Z M121 662 L324 570 L344 609 L151 721 L121 662 Z " />
<glyph glyph-name="oacute" unicode="&#xf3;" horiz-adv-x="519" d="M261 506 C129 506 38 401 38 248 C38 91 124 -13 253 -13 C386 -13 481 93 481 241 C481 402 395 506 261 506 L261 506 Z M258 443 C298 443 337 423 362 390 C386 356 397 312 397 245 C397 123 345 50 259 50 C172 50 122 122 122 249 C122 309 134 357 156 389 C179 422 219 443 258 443 L258 443 Z M404 662 L374 721 L181 609 L202 570 L404 662 Z " />
<glyph glyph-name="ocircumflex" unicode="&#xf4;" horiz-adv-x="519" d="M261 506 C129 506 38 401 38 248 C38 91 124 -13 253 -13 C386 -13 481 93 481 241 C481 402 395 506 261 506 L261 506 Z M258 443 C298 443 337 423 362 390 C386 356 397 312 397 245 C397 123 345 50 259 50 C172 50 122 122 122 249 C122 309 134 357 156 389 C179 422 219 443 258 443 L258 443 Z M421 583 L261 710 L97 583 L169 573 L259 639 L352 573 L421 583 Z " />
<glyph glyph-name="otilde" unicode="&#xf5;" horiz-adv-x="519" d="M261 506 C129 506 38 401 38 248 C38 91 124 -13 253 -13 C386 -13 481 93 481 241 C481 402 395 506 261 506 L261 506 Z M258 443 C298 443 337 423 362 390 C386 356 397 312 397 245 C397 123 345 50 259 50 C172 50 122 122 122 249 C122 309 134 357 156 389 C179 422 219 443 258 443 L258 443 Z M396 674 C372 655 356 649 335 649 C321 649 307 652 294 658 C231 684 231 684 208 684 C164 684 128 663 99 622 L140 593 C161 617 178 626 205 626 C221 626 236 623 250 617 C311 590 311 590 333 590 C368 590 391 601 433 639 L396 674 Z " />
<glyph glyph-name="odieresis" unicode="&#xf6;" horiz-adv-x="519" d="M261 506 C129 506 38 401 38 248 C38 91 124 -13 253 -13 C386 -13 481 93 481 241 C481 402 395 506 261 506 L261 506 Z M258 443 C298 443 337 423 362 390 C386 356 397 312 397 245 C397 123 345 50 259 50 C172 50 122 122 122 249 C122 309 134 357 156 389 C179 422 219 443 258 443 L258 443 Z M337 686 C308 686 285 664 285 637 C285 609 308 587 336 587 C365 587 388 609 388 637 C388 664 365 686 337 686 L337 686 Z M181 686 C152 686 130 664 130 636 C130 609 152 587 180 587 C208 587 231 609 231 637 C231 664 208 686 181 686 L181 686 Z " />
<glyph glyph-name="divide" unicode="&#xf7;" horiz-adv-x="587" d="M294 236 C267 236 246 215 246 189 C246 163 267 142 293 142 C319 142 340 163 340 189 C340 215 319 236 294 236 L294 236 Z M294 531 C267 531 246 510 246 484 C246 458 267 437 293 437 C319 437 340 458 340 484 C340 510 319 531 294 531 L294 531 Z M60 368 L60 300 L527 300 L527 368 L60 368 Z " />
<glyph glyph-name="oslash" unicode="&#xf8;" horiz-adv-x="519" d="M18 -27 L84 -27 L127 29 C165 -1 201 -13 252 -13 C388 -13 481 92 481 247 C481 321 464 377 427 428 L500 525 L431 525 L387 467 C348 495 312 506 263 506 C130 506 39 402 39 249 C39 176 54 123 89 71 L18 -27 Z M141 135 C128 171 123 203 123 249 C123 311 135 358 159 392 C181 423 221 443 259 443 C288 443 314 433 339 413 L141 135 Z M375 368 C391 335 397 298 397 242 C397 125 343 50 259 50 C226 50 200 61 175 85 L375 368 Z " />
<glyph glyph-name="ugrave" unicode="&#xf9;" horiz-adv-x="541" d="M465 0 L465 493 L388 493 L388 215 C388 124 327 50 251 50 C224 50 197 62 179 84 C162 104 154 133 154 178 L154 493 L77 493 L77 178 C77 59 139 -13 239 -13 C308 -13 361 24 396 94 L396 0 L465 0 Z M119 662 L322 570 L343 609 L149 721 L119 662 Z " />
<glyph glyph-name="uacute" unicode="&#xfa;" horiz-adv-x="541" d="M465 0 L465 493 L388 493 L388 215 C388 124 327 50 251 50 C224 50 197 62 179 84 C162 104 154 133 154 178 L154 493 L77 493 L77 178 C77 59 139 -13 239 -13 C308 -13 361 24 396 94 L396 0 L465 0 Z M426 662 L396 721 L203 609 L223 570 L426 662 Z " />
<glyph glyph-name="ucircumflex" unicode="&#xfb;" horiz-adv-x="541" d="M465 0 L465 493 L388 493 L388 215 C388 124 327 50 251 50 C224 50 197 62 179 84 C162 104 154 133 154 178 L154 493 L77 493 L77 178 C77 59 139 -13 239 -13 C308 -13 361 24 396 94 L396 0 L465 0 Z M433 583 L272 710 L109 583 L181 573 L271 639 L364 573 L433 583 Z " />
<glyph glyph-name="udieresis" unicode="&#xfc;" horiz-adv-x="541" d="M465 0 L465 493 L388 493 L388 215 C388 124 327 50 251 50 C224 50 197 62 179 84 C162 104 154 133 154 178 L154 493 L77 493 L77 178 C77 59 139 -13 239 -13 C308 -13 361 24 396 94 L396 0 L465 0 Z M349 686 C320 686 297 664 297 637 C297 609 320 587 348 587 C377 587 400 609 400 637 C400 664 377 686 349 686 L349 686 Z M193 686 C164 686 142 664 142 636 C142 609 164 587 192 587 C220 587 243 609 243 637 C243 664 220 686 193 686 L193 686 Z " />
<glyph glyph-name="yacute" unicode="&#xfd;" horiz-adv-x="415" d="M415 493 L350 493 L215 122 L83 493 L5 493 L175 9 C162 -35 153 -56 143 -72 C125 -101 100 -114 65 -114 C50 -114 38 -112 14 -107 L14 -168 C39 -174 52 -176 72 -176 C107 -176 131 -170 149 -157 C179 -136 200 -105 217 -58 L415 493 Z M375 662 L345 721 L152 609 L172 570 L375 662 Z " />
<glyph glyph-name="thorn" unicode="&#xfe;" horiz-adv-x="534" d="M154 -167 L154 75 C196 11 236 -13 300 -13 C417 -13 497 92 497 247 C497 400 418 506 304 506 C238 506 192 476 154 407 L154 667 L77 667 L77 -167 L154 -167 Z M154 317 C174 393 224 439 285 439 C365 439 413 366 413 242 C413 176 401 128 376 96 C355 69 318 50 285 50 C222 50 166 104 154 179 L154 317 Z " />
<glyph glyph-name="ydieresis" unicode="&#xff;" horiz-adv-x="415" d="M415 493 L350 493 L215 122 L83 493 L5 493 L175 9 C162 -35 153 -56 143 -72 C125 -101 100 -114 65 -114 C50 -114 38 -112 14 -107 L14 -168 C39 -174 52 -176 72 -176 C107 -176 131 -170 149 -157 C179 -136 200 -105 217 -58 L415 493 Z M291 686 C262 686 239 664 239 637 C239 609 262 587 290 587 C319 587 342 609 342 637 C342 664 319 686 291 686 L291 686 Z M135 686 C106 686 84 664 84 636 C84 609 106 587 134 587 C162 587 185 609 185 637 C185 664 162 686 135 686 L135 686 Z " />
<glyph glyph-name="Amacron" unicode="&#x100;" horiz-adv-x="551" d="M532 0 L315 667 L219 667 L3 0 L73 0 L132 195 L379 195 L446 0 L532 0 Z M361 258 L156 258 L259 578 L361 258 Z M428 810 L108 810 L108 757 L428 757 L428 810 Z " />
<glyph glyph-name="amacron" unicode="&#x101;" horiz-adv-x="529" d="M463 0 C456 25 453 56 452 96 L452 305 C452 377 443 416 419 449 C390 488 340 507 266 507 C184 507 122 487 83 447 C62 426 53 407 46 370 L117 358 C130 417 175 448 249 448 C343 448 378 414 378 321 L378 305 C347 307 332 307 314 307 C228 307 161 295 116 271 C65 245 33 192 33 136 C33 48 103 -13 205 -13 C289 -13 338 16 378 89 C382 33 382 24 387 0 L463 0 Z M378 247 C379 234 379 224 379 215 C379 120 310 46 220 46 C156 46 115 81 115 134 C115 209 185 249 313 249 C325 249 351 248 378 247 L378 247 Z M413 657 L109 657 L109 604 L413 604 L413 657 Z " />
<glyph glyph-name="Abreve" unicode="&#x102;" horiz-adv-x="551" d="M532 0 L315 667 L219 667 L3 0 L73 0 L132 195 L379 195 L446 0 L532 0 Z M361 258 L156 258 L259 578 L361 258 Z M122 855 C136 774 182 737 268 737 C353 737 399 774 413 855 L358 855 C347 812 322 795 269 795 C213 795 188 811 177 855 L122 855 Z " />
<glyph glyph-name="abreve" unicode="&#x103;" horiz-adv-x="529" d="M463 0 C456 25 453 56 452 96 L452 305 C452 377 443 416 419 449 C390 488 340 507 266 507 C184 507 122 487 83 447 C62 426 53 407 46 370 L117 358 C130 417 175 448 249 448 C343 448 378 414 378 321 L378 305 C347 307 332 307 314 307 C228 307 161 295 116 271 C65 245 33 192 33 136 C33 48 103 -13 205 -13 C289 -13 338 16 378 89 C382 33 382 24 387 0 L463 0 Z M378 247 C379 234 379 224 379 215 C379 120 310 46 220 46 C156 46 115 81 115 134 C115 209 185 249 313 249 C325 249 351 248 378 247 L378 247 Z M115 702 C130 616 175 577 261 577 C347 577 393 617 407 702 L352 702 C340 653 316 635 261 635 C206 635 181 654 171 702 L115 702 Z " />
<glyph glyph-name="Aogonek" unicode="&#x104;" horiz-adv-x="551" d="M483 0 C431 -22 407 -52 407 -93 C407 -140 442 -168 501 -168 C528 -168 549 -163 574 -151 L565 -117 C548 -122 538 -124 523 -124 C486 -124 467 -108 467 -77 C467 -49 484 -29 532 0 L315 667 L219 667 L3 0 L73 0 L132 195 L379 195 L446 0 L483 0 Z M361 258 L156 258 L259 578 L361 258 Z " />
<glyph glyph-name="aogonek" unicode="&#x105;" horiz-adv-x="529" d="M416 0 C365 -23 343 -48 343 -85 C343 -127 378 -153 435 -153 C463 -153 483 -149 507 -138 L498 -107 C480 -111 469 -113 457 -113 C421 -113 402 -98 402 -70 C402 -47 412 -35 451 -8 C455 -6 459 -3 463 0 C457 11 453 54 452 96 L452 305 C452 377 443 416 419 449 C390 488 340 507 266 507 C184 507 122 487 83 447 C62 426 53 407 46 370 L117 358 C130 417 175 448 249 448 C343 448 378 414 378 321 L378 305 C347 307 332 307 314 307 C228 307 161 295 116 271 C65 245 33 192 33 136 C33 48 103 -13 205 -13 C289 -13 338 16 378 89 C382 33 382 24 387 0 L416 0 Z M378 247 C379 234 379 224 379 215 C379 120 310 46 220 46 C156 46 115 81 115 134 C115 209 185 249 313 249 C325 249 351 248 378 247 L378 247 Z " />
<glyph glyph-name="Cacute" unicode="&#x106;" horiz-adv-x="579" d="M483 224 C468 170 458 147 438 119 C411 82 363 58 315 58 C204 58 133 165 133 331 C133 505 202 609 318 609 C400 609 448 562 481 451 L559 466 C524 609 444 680 319 680 C151 680 42 546 42 340 C42 232 73 136 130 68 C175 15 237 -13 313 -13 C388 -13 449 14 492 65 C525 104 541 138 559 207 L483 224 Z M472 816 L442 874 L249 769 L270 730 L472 816 Z " />
<glyph glyph-name="cacute" unicode="&#x107;" horiz-adv-x="466" d="M368 173 C352 92 310 50 248 50 C166 50 118 124 118 248 C118 368 168 443 249 443 C287 443 320 426 342 396 C355 377 362 359 368 321 L437 334 C417 446 351 506 250 506 C122 506 38 402 38 246 C38 89 120 -13 246 -13 C301 -13 344 4 379 40 C411 72 425 101 437 161 L368 173 Z M396 662 L366 721 L173 609 L193 570 L396 662 Z " />
<glyph glyph-name="Ccircumflex" unicode="&#x108;" horiz-adv-x="579" d="M483 224 C468 170 458 147 438 119 C411 82 363 58 315 58 C204 58 133 165 133 331 C133 505 202 609 318 609 C400 609 448 562 481 451 L559 466 C524 609 444 680 319 680 C151 680 42 546 42 340 C42 232 73 136 130 68 C175 15 237 -13 313 -13 C388 -13 449 14 492 65 C525 104 541 138 559 207 L483 224 Z M479 743 L319 863 L155 743 L227 733 L317 792 L410 733 L479 743 Z " />
<glyph glyph-name="ccircumflex" unicode="&#x109;" horiz-adv-x="466" d="M368 173 C352 92 310 50 248 50 C166 50 118 124 118 248 C118 368 168 443 249 443 C287 443 320 426 342 396 C355 377 362 359 368 321 L437 334 C417 446 351 506 250 506 C122 506 38 402 38 246 C38 89 120 -13 246 -13 C301 -13 344 4 379 40 C411 72 425 101 437 161 L368 173 Z M413 583 L252 710 L89 583 L161 573 L251 639 L344 573 L413 583 Z " />
<glyph glyph-name="Cdotaccent" unicode="&#x10a;" horiz-adv-x="579" d="M483 224 C468 170 458 147 438 119 C411 82 363 58 315 58 C204 58 133 165 133 331 C133 505 202 609 318 609 C400 609 448 562 481 451 L559 466 C524 609 444 680 319 680 C151 680 42 546 42 340 C42 232 73 136 130 68 C175 15 237 -13 313 -13 C388 -13 449 14 492 65 C525 104 541 138 559 207 L483 224 Z M316 845 C287 845 263 823 263 794 C263 766 287 743 316 743 C345 743 369 766 369 794 C369 822 345 845 316 845 L316 845 Z " />
<glyph glyph-name="cdotaccent" unicode="&#x10b;" horiz-adv-x="466" d="M368 173 C352 92 310 50 248 50 C166 50 118 124 118 248 C118 368 168 443 249 443 C287 443 320 426 342 396 C355 377 362 359 368 321 L437 334 C417 446 351 506 250 506 C122 506 38 402 38 246 C38 89 120 -13 246 -13 C301 -13 344 4 379 40 C411 72 425 101 437 161 L368 173 Z M246 686 C217 686 194 664 194 637 C194 609 217 587 245 587 C274 587 297 609 297 637 C297 664 274 686 246 686 L246 686 Z " />
<glyph glyph-name="Ccaron" unicode="&#x10c;" horiz-adv-x="579" d="M483 224 C468 170 458 147 438 119 C411 82 363 58 315 58 C204 58 133 165 133 331 C133 505 202 609 318 609 C400 609 448 562 481 451 L559 466 C524 609 444 680 319 680 C151 680 42 546 42 340 C42 232 73 136 130 68 C175 15 237 -13 313 -13 C388 -13 449 14 492 65 C525 104 541 138 559 207 L483 224 Z M155 847 L316 727 L479 847 L407 857 L318 798 L225 857 L155 847 Z " />
<glyph glyph-name="ccaron" unicode="&#x10d;" horiz-adv-x="466" d="M368 173 C352 92 310 50 248 50 C166 50 118 124 118 248 C118 368 168 443 249 443 C287 443 320 426 342 396 C355 377 362 359 368 321 L437 334 C417 446 351 506 250 506 C122 506 38 402 38 246 C38 89 120 -13 246 -13 C301 -13 344 4 379 40 C411 72 425 101 437 161 L368 173 Z M86 693 L246 567 L410 693 L338 703 L248 638 L155 703 L86 693 Z " />
<glyph glyph-name="Dcaron" unicode="&#x10e;" horiz-adv-x="647" d="M83 0 L334 0 C490 0 605 143 605 336 C605 441 569 532 504 594 C451 644 390 667 306 667 L83 667 L83 0 Z M166 71 L166 597 L301 597 C367 597 414 578 450 539 C495 489 520 417 520 336 C520 253 493 173 448 126 C415 91 362 71 302 71 L166 71 Z M141 847 L302 727 L465 847 L393 857 L303 798 L210 857 L141 847 Z " />
<glyph glyph-name="dcaron" unicode="&#x10f;" horiz-adv-x="629" d="M461 667 L384 667 L384 426 C340 484 301 506 239 506 C120 506 37 398 37 242 C37 92 119 -14 235 -14 C306 -14 350 14 391 84 L391 0 L461 0 L461 667 Z M384 200 C380 151 372 128 348 99 C321 68 285 49 248 49 C168 49 121 124 121 252 C121 369 172 445 251 445 C290 445 332 425 355 394 C374 370 380 349 384 303 L384 200 Z M541 667 L509 481 L547 481 L622 667 L541 667 Z " />
<glyph glyph-name="Dcroat" unicode="&#x110;" horiz-adv-x="647" d="M17 320 L84 320 L84 0 L334 0 C490 0 605 143 605 336 C605 441 569 532 504 594 C451 644 389 667 306 667 L84 667 L84 387 L17 387 L17 320 Z M167 387 L167 597 L301 597 C366 597 414 578 450 539 C495 489 520 417 520 336 C520 253 493 173 448 126 C415 91 362 71 302 71 L167 71 L167 320 L326 320 L326 387 L167 387 Z " />
<glyph glyph-name="dcroat" unicode="&#x111;" horiz-adv-x="538" d="M385 667 L385 609 L243 609 L243 552 L385 552 L385 426 C341 484 302 506 240 506 C121 506 38 398 38 242 C38 92 120 -14 236 -14 C307 -14 351 14 392 84 L392 0 L462 0 L462 552 L529 552 L529 609 L462 609 L462 667 L385 667 Z M385 200 C381 151 373 128 349 99 C322 68 286 49 249 49 C169 49 122 124 122 252 C122 369 173 445 251 445 C291 445 333 425 356 394 C375 370 382 348 385 303 L385 200 Z " />
<glyph glyph-name="Emacron" unicode="&#x112;" horiz-adv-x="548" d="M514 73 L166 73 L166 313 L435 313 L435 381 L166 381 L166 594 L505 594 L505 667 L83 667 L83 0 L514 0 L514 73 Z M455 810 L135 810 L135 757 L455 757 L455 810 Z " />
<glyph glyph-name="emacron" unicode="&#x113;" horiz-adv-x="520" d="M402 147 C391 121 383 107 372 95 C347 66 309 50 269 50 C216 50 165 80 143 125 C128 156 123 182 123 240 L482 240 C481 308 473 349 453 392 C418 464 350 506 267 506 C132 506 38 399 38 244 C38 90 129 -13 264 -13 C364 -13 441 41 473 132 L402 147 Z M127 297 C132 344 140 368 162 396 C189 429 225 447 268 447 C312 447 345 430 370 395 C390 366 397 343 398 297 L127 297 Z M418 657 L115 657 L115 604 L418 604 L418 657 Z " />
<glyph glyph-name="Ebreve" unicode="&#x114;" horiz-adv-x="548" d="M514 73 L166 73 L166 313 L435 313 L435 381 L166 381 L166 594 L505 594 L505 667 L83 667 L83 0 L514 0 L514 73 Z M148 855 C163 774 208 737 294 737 C380 737 426 774 440 855 L385 855 C373 812 349 795 295 795 C239 795 214 811 204 855 L148 855 Z " />
<glyph glyph-name="ebreve" unicode="&#x115;" horiz-adv-x="520" d="M402 147 C391 121 383 107 372 95 C347 66 309 50 269 50 C216 50 165 80 143 125 C128 156 123 182 123 240 L482 240 C481 308 473 349 453 392 C418 464 350 506 267 506 C132 506 38 399 38 244 C38 90 129 -13 264 -13 C364 -13 441 41 473 132 L402 147 Z M127 297 C132 344 140 368 162 396 C189 429 225 447 268 447 C312 447 345 430 370 395 C390 366 397 343 398 297 L127 297 Z M119 702 C134 616 179 577 265 577 C351 577 397 617 411 702 L356 702 C344 653 320 635 265 635 C210 635 185 654 175 702 L119 702 Z " />
<glyph glyph-name="Edotaccent" unicode="&#x116;" horiz-adv-x="548" d="M514 73 L166 73 L166 313 L435 313 L435 381 L166 381 L166 594 L505 594 L505 667 L83 667 L83 0 L514 0 L514 73 Z M297 845 C268 845 244 823 244 794 C244 766 268 743 297 743 C326 743 350 766 350 794 C350 822 326 845 297 845 L297 845 Z " />
<glyph glyph-name="edotaccent" unicode="&#x117;" horiz-adv-x="520" d="M402 147 C391 121 383 107 372 95 C347 66 309 50 269 50 C216 50 165 80 143 125 C128 156 123 182 123 240 L482 240 C481 308 473 349 453 392 C418 464 350 506 267 506 C132 506 38 399 38 244 C38 90 129 -13 264 -13 C364 -13 441 41 473 132 L402 147 Z M127 297 C132 344 140 368 162 396 C189 429 225 447 268 447 C312 447 345 430 370 395 C390 366 397 343 398 297 L127 297 Z M267 686 C238 686 215 664 215 637 C215 609 238 587 266 587 C295 587 318 609 318 637 C318 664 295 686 267 686 L267 686 Z " />
<glyph glyph-name="Eogonek" unicode="&#x118;" horiz-adv-x="548" d="M514 73 L166 73 L166 313 L435 313 L435 381 L166 381 L166 594 L505 594 L505 667 L83 667 L83 0 L466 0 C413 -22 389 -52 389 -93 C389 -140 424 -168 483 -168 C510 -168 531 -163 556 -151 L547 -117 C530 -122 519 -124 505 -124 C468 -124 449 -108 449 -77 C449 -49 464 -31 514 0 L514 73 Z " />
<glyph glyph-name="eogonek" unicode="&#x119;" horiz-adv-x="520" d="M423 -103 C404 -108 393 -110 381 -110 C345 -110 326 -95 326 -67 C326 -44 339 -26 391 21 C443 66 458 86 473 132 L402 147 C391 121 383 107 372 95 C347 66 309 50 269 50 C216 50 165 80 143 125 C128 156 123 182 123 240 L482 240 C481 308 473 349 453 392 C418 464 350 506 267 506 C132 506 38 399 38 244 C38 90 129 -13 264 -13 C284 -13 296 -12 318 -8 C283 -29 268 -51 268 -81 C268 -124 302 -150 360 -150 C387 -150 407 -146 432 -134 L423 -103 Z M127 297 C132 344 140 368 162 396 C189 429 225 447 268 447 C312 447 345 430 370 395 C390 366 397 343 398 297 L127 297 Z " />
<glyph glyph-name="Ecaron" unicode="&#x11a;" horiz-adv-x="548" d="M514 73 L166 73 L166 313 L435 313 L435 381 L166 381 L166 594 L505 594 L505 667 L83 667 L83 0 L514 0 L514 73 Z M133 847 L294 727 L457 847 L385 857 L296 798 L203 857 L133 847 Z " />
<glyph glyph-name="ecaron" unicode="&#x11b;" horiz-adv-x="520" d="M402 147 C391 121 383 107 372 95 C347 66 309 50 269 50 C216 50 165 80 143 125 C128 156 123 182 123 240 L482 240 C481 308 473 349 453 392 C418 464 350 506 267 506 C132 506 38 399 38 244 C38 90 129 -13 264 -13 C364 -13 441 41 473 132 L402 147 Z M127 297 C132 344 140 368 162 396 C189 429 225 447 268 447 C312 447 345 430 370 395 C390 366 397 343 398 297 L127 297 Z M105 693 L265 567 L428 693 L357 703 L267 638 L174 703 L105 693 Z " />
<glyph glyph-name="Gcircumflex" unicode="&#x11c;" horiz-adv-x="647" d="M577 336 L327 336 L327 266 L491 266 C492 252 492 240 492 230 C492 124 426 54 328 54 C265 54 207 87 176 140 C149 188 133 256 133 329 C133 403 149 473 177 523 C206 577 260 609 323 609 C372 609 417 590 448 557 C469 534 479 514 491 468 L570 487 C554 544 540 571 512 603 C467 654 407 680 331 680 C158 680 42 538 42 326 C42 223 71 136 127 71 C177 14 238 -14 317 -14 C401 -14 455 12 503 75 L525 -9 L577 -9 L577 336 Z M490 743 L330 863 L166 743 L238 733 L328 792 L421 733 L490 743 Z " />
<glyph glyph-name="gcircumflex" unicode="&#x11d;" horiz-adv-x="491" d="M407 600 L246 727 L83 600 L155 590 L245 655 L338 590 L407 600 Z M510 518 C485 526 459 530 443 530 C409 530 382 510 365 471 C332 497 294 508 244 508 C136 508 56 436 56 340 C56 286 74 249 120 209 C70 185 52 162 52 122 C52 88 64 68 100 42 C48 22 25 -8 25 -56 C25 -141 103 -186 250 -186 C414 -186 498 -138 498 -45 C498 -4 479 31 444 53 C413 74 380 79 278 82 C187 85 167 87 150 95 C133 103 125 115 125 131 C125 155 151 178 177 178 C181 178 193 176 209 173 C219 171 230 170 243 170 C353 170 432 238 432 334 C432 369 421 401 399 435 C411 457 425 466 448 466 C461 466 475 464 498 458 L510 518 Z M246 447 C309 447 355 399 355 335 C355 273 309 229 245 229 C179 229 135 272 135 337 C135 402 181 447 246 447 L246 447 Z M153 20 C176 17 222 14 272 13 C358 11 367 10 391 -1 C414 -11 425 -26 425 -48 C425 -76 407 -98 373 -109 C339 -120 296 -127 256 -127 C198 -127 144 -113 117 -90 C106 -81 99 -64 99 -48 C99 -17 112 0 153 20 L153 20 Z " />
<glyph glyph-name="Gbreve" unicode="&#x11e;" horiz-adv-x="647" d="M577 336 L327 336 L327 266 L491 266 C492 252 492 240 492 230 C492 124 426 54 328 54 C265 54 207 87 176 140 C149 188 133 256 133 329 C133 403 149 473 177 523 C206 577 260 609 323 609 C372 609 417 590 448 557 C469 534 479 514 491 468 L570 487 C554 544 540 571 512 603 C467 654 407 680 331 680 C158 680 42 538 42 326 C42 223 71 136 127 71 C177 14 238 -14 317 -14 C401 -14 455 12 503 75 L525 -9 L577 -9 L577 336 Z M184 855 C198 774 244 737 330 737 C416 737 462 774 476 855 L420 855 C409 812 384 795 331 795 C275 795 250 811 239 855 L184 855 Z " />
<glyph glyph-name="gbreve" unicode="&#x11f;" horiz-adv-x="491" d="M102 702 C117 616 162 577 248 577 C334 577 380 617 394 702 L339 702 C327 653 303 635 248 635 C193 635 168 654 158 702 L102 702 Z M510 518 C485 526 459 530 443 530 C409 530 382 510 365 471 C332 497 294 508 244 508 C136 508 56 436 56 340 C56 286 74 249 120 209 C70 185 52 162 52 122 C52 88 64 68 100 42 C48 22 25 -8 25 -56 C25 -141 103 -186 250 -186 C414 -186 498 -138 498 -45 C498 -4 479 31 444 53 C413 74 380 79 278 82 C187 85 167 87 150 95 C133 103 125 115 125 131 C125 155 151 178 177 178 C181 178 193 176 209 173 C219 171 230 170 243 170 C353 170 432 238 432 334 C432 369 421 401 399 435 C411 457 425 466 448 466 C461 466 475 464 498 458 L510 518 Z M246 447 C309 447 355 399 355 335 C355 273 309 229 245 229 C179 229 135 272 135 337 C135 402 181 447 246 447 L246 447 Z M153 20 C176 17 222 14 272 13 C358 11 367 10 391 -1 C414 -11 425 -26 425 -48 C425 -76 407 -98 373 -109 C339 -120 296 -127 256 -127 C198 -127 144 -113 117 -90 C106 -81 99 -64 99 -48 C99 -17 112 0 153 20 L153 20 Z " />
<glyph glyph-name="Gdotaccent" unicode="&#x120;" horiz-adv-x="647" d="M577 336 L327 336 L327 266 L491 266 C492 252 492 240 492 230 C492 124 426 54 328 54 C265 54 207 87 176 140 C149 188 133 256 133 329 C133 403 149 473 177 523 C206 577 260 609 323 609 C372 609 417 590 448 557 C469 534 479 514 491 468 L570 487 C554 544 540 571 512 603 C467 654 407 680 331 680 C158 680 42 538 42 326 C42 223 71 136 127 71 C177 14 238 -14 317 -14 C401 -14 455 12 503 75 L525 -9 L577 -9 L577 336 Z M328 845 C299 845 275 823 275 794 C275 766 299 743 328 743 C357 743 381 766 381 794 C381 822 357 845 328 845 L328 845 Z " />
<glyph glyph-name="gdotaccent" unicode="&#x121;" horiz-adv-x="491" d="M248 686 C219 686 196 664 196 637 C196 609 219 587 247 587 C276 587 299 609 299 637 C299 664 276 686 248 686 L248 686 Z M510 518 C485 526 459 530 443 530 C409 530 382 510 365 471 C332 497 294 508 244 508 C136 508 56 436 56 340 C56 286 74 249 120 209 C70 185 52 162 52 122 C52 88 64 68 100 42 C48 22 25 -8 25 -56 C25 -141 103 -186 250 -186 C414 -186 498 -138 498 -45 C498 -4 479 31 444 53 C413 74 380 79 278 82 C187 85 167 87 150 95 C133 103 125 115 125 131 C125 155 151 178 177 178 C181 178 193 176 209 173 C219 171 230 170 243 170 C353 170 432 238 432 334 C432 369 421 401 399 435 C411 457 425 466 448 466 C461 466 475 464 498 458 L510 518 Z M246 447 C309 447 355 399 355 335 C355 273 309 229 245 229 C179 229 135 272 135 337 C135 402 181 447 246 447 L246 447 Z M153 20 C176 17 222 14 272 13 C358 11 367 10 391 -1 C414 -11 425 -26 425 -48 C425 -76 407 -98 373 -109 C339 -120 296 -127 256 -127 C198 -127 144 -113 117 -90 C106 -81 99 -64 99 -48 C99 -17 112 0 153 20 L153 20 Z " />
<glyph glyph-name="Gcommaaccent" unicode="&#x122;" horiz-adv-x="647" d="M577 336 L327 336 L327 266 L491 266 C492 252 492 240 492 230 C492 124 426 54 328 54 C265 54 207 87 176 140 C149 188 133 256 133 329 C133 403 149 473 177 523 C206 577 260 609 323 609 C372 609 417 590 448 557 C469 534 479 514 491 468 L570 487 C554 544 540 571 512 603 C467 654 407 680 331 680 C158 680 42 538 42 326 C42 223 71 136 127 71 C177 14 238 -14 317 -14 C401 -14 455 12 503 75 L525 -9 L577 -9 L577 336 Z M281 -53 L248 -239 L288 -239 L364 -53 L281 -53 Z " />
<glyph glyph-name="gcommaaccent" unicode="&#x123;" horiz-adv-x="491" d="M285 577 L318 753 L280 753 L205 577 L285 577 Z M510 518 C485 526 459 530 443 530 C409 530 382 510 365 471 C332 497 294 508 244 508 C136 508 56 436 56 340 C56 286 74 249 120 209 C70 185 52 162 52 122 C52 88 64 68 100 42 C48 22 25 -8 25 -56 C25 -141 103 -186 250 -186 C414 -186 498 -138 498 -45 C498 -4 479 31 444 53 C413 74 380 79 278 82 C187 85 167 87 150 95 C133 103 125 115 125 131 C125 155 151 178 177 178 C181 178 193 176 209 173 C219 171 230 170 243 170 C353 170 432 238 432 334 C432 369 421 401 399 435 C411 457 425 466 448 466 C461 466 475 464 498 458 L510 518 Z M246 447 C309 447 355 399 355 335 C355 273 309 229 245 229 C179 229 135 272 135 337 C135 402 181 447 246 447 L246 447 Z M153 20 C176 17 222 14 272 13 C358 11 367 10 391 -1 C414 -11 425 -26 425 -48 C425 -76 407 -98 373 -109 C339 -120 296 -127 256 -127 C198 -127 144 -113 117 -90 C106 -81 99 -64 99 -48 C99 -17 112 0 153 20 L153 20 Z " />
<glyph glyph-name="Hcircumflex" unicode="&#x124;" horiz-adv-x="643" d="M559 0 L559 667 L476 667 L476 391 L166 391 L166 667 L83 667 L83 0 L166 0 L166 318 L476 318 L476 0 L559 0 Z M483 743 L322 863 L159 743 L231 733 L321 792 L414 733 L483 743 Z " />
<glyph glyph-name="hcircumflex" unicode="&#x125;" horiz-adv-x="540" d="M464 0 L464 299 C464 381 459 406 434 442 C406 484 359 507 305 507 C237 507 194 477 154 402 L154 667 L77 667 L77 0 L154 0 L154 266 C154 324 166 363 195 396 C220 425 257 443 291 443 C329 443 364 421 377 388 C385 368 387 350 387 299 L387 0 L464 0 Z M289 743 L128 863 L-35 743 L37 733 L127 792 L220 733 L289 743 Z " />
<glyph glyph-name="Hbar" unicode="&#x126;" horiz-adv-x="643" d="M20 501 L83 501 L83 0 L166 0 L166 317 L476 317 L476 0 L559 0 L559 501 L623 501 L623 568 L559 568 L559 667 L476 667 L476 568 L166 568 L166 667 L83 667 L83 568 L20 568 L20 501 Z M166 501 L476 501 L476 384 L166 384 L166 501 Z " />
<glyph glyph-name="hbar" unicode="&#x127;" horiz-adv-x="540" d="M10 552 L77 552 L77 0 L154 0 L154 266 C154 324 166 363 194 396 C220 425 256 443 290 443 C328 443 363 421 376 388 C384 368 386 350 386 299 L386 0 L463 0 L463 299 C463 381 458 406 433 442 C405 483 358 507 304 507 C237 507 194 477 154 402 L154 552 L295 552 L295 609 L154 609 L154 667 L77 667 L77 609 L10 609 L10 552 Z " />
<glyph glyph-name="Itilde" unicode="&#x128;" horiz-adv-x="250" d="M166 0 L166 667 L83 667 L83 0 L166 0 Z M255 831 C231 811 215 805 194 805 C180 805 166 808 152 814 C90 840 90 840 67 840 C23 840 -14 819 -42 778 L-1 749 C20 774 37 782 64 782 C80 782 95 779 109 773 C170 746 170 746 192 746 C227 746 250 757 292 795 L255 831 Z " />
<glyph glyph-name="itilde" unicode="&#x129;" horiz-adv-x="229" d="M154 493 L77 493 L77 0 L154 0 L154 493 Z M245 674 C221 655 205 649 184 649 C170 649 156 652 142 658 C80 684 80 684 57 684 C13 684 -23 663 -52 622 L-11 593 C10 617 27 626 54 626 C70 626 85 623 99 617 C160 590 160 590 182 590 C217 590 240 601 282 639 L245 674 Z " />
<glyph glyph-name="Imacron" unicode="&#x12a;" horiz-adv-x="250" d="M166 0 L166 667 L83 667 L83 0 L166 0 Z M235 810 L15 810 L15 757 L235 757 L235 810 Z " />
<glyph glyph-name="imacron" unicode="&#x12b;" horiz-adv-x="229" d="M154 493 L77 493 L77 0 L154 0 L154 493 Z M220 657 L10 657 L10 604 L220 604 L220 657 Z " />
<glyph glyph-name="Ibreve" unicode="&#x12c;" horiz-adv-x="250" d="M166 0 L166 667 L83 667 L83 0 L166 0 Z M-21 855 C-6 774 39 737 125 737 C211 737 257 774 271 855 L215 855 C204 812 180 795 126 795 C70 795 45 811 35 855 L-21 855 Z " />
<glyph glyph-name="ibreve" unicode="&#x12d;" horiz-adv-x="229" d="M153 493 L76 493 L76 0 L153 0 L153 493 Z M-5 702 C7 616 44 577 114 577 C184 577 222 617 234 702 L178 702 C170 653 153 635 114 635 C76 635 58 653 51 702 L-5 702 Z " />
<glyph glyph-name="Iogonek" unicode="&#x12e;" horiz-adv-x="250" d="M119 0 C77 -23 54 -56 54 -93 C54 -139 88 -168 141 -168 C165 -168 181 -164 208 -151 L199 -117 C181 -122 172 -124 162 -124 C131 -124 114 -107 114 -77 C114 -48 129 -26 166 0 L166 667 L83 667 L83 0 L119 0 Z " />
<glyph glyph-name="iogonek" unicode="&#x12f;" horiz-adv-x="229" d="M154 493 L77 493 L77 0 L111 0 C68 -24 50 -49 50 -84 C50 -128 79 -153 131 -153 C157 -153 171 -150 199 -138 L189 -107 C174 -111 165 -113 153 -113 C124 -113 109 -99 109 -72 C109 -45 124 -21 154 0 L154 493 Z M157 667 L74 667 L74 582 L157 582 L157 667 Z " />
<glyph glyph-name="Idotaccent" unicode="&#x130;" horiz-adv-x="250" d="M167 0 L167 667 L84 667 L84 0 L167 0 Z M125 845 C96 845 72 823 72 794 C72 766 96 743 125 743 C154 743 178 766 178 794 C178 822 154 845 125 845 L125 845 Z " />
<glyph glyph-name="dotlessi" unicode="&#x131;" horiz-adv-x="229" d="M153 493 L76 493 L76 0 L153 0 L153 493 Z " />
<glyph glyph-name="IJ" unicode="&#x132;" horiz-adv-x="620" d="M166 0 L166 667 L83 667 L83 0 L166 0 Z M543 667 L460 667 L460 204 C460 137 457 120 439 97 C420 71 386 59 335 59 C305 59 285 61 246 68 L246 0 C287 -10 309 -13 342 -13 C479 -13 543 56 543 204 L543 667 Z " />
<glyph glyph-name="ij" unicode="&#x133;" horiz-adv-x="455" d="M153 493 L76 493 L76 0 L153 0 L153 493 Z M156 667 L73 667 L73 582 L156 582 L156 667 Z M379 499 L302 499 L302 -16 C302 -81 279 -108 221 -108 C203 -108 190 -106 165 -100 L165 -161 C198 -168 215 -171 235 -171 C330 -171 379 -119 379 -16 L379 499 Z M383 667 L296 667 L296 582 L383 582 L383 667 Z " />
<glyph glyph-name="Jcircumflex" unicode="&#x134;" horiz-adv-x="373" d="M297 667 L214 667 L214 204 C214 137 211 120 193 97 C174 71 140 59 89 59 C59 59 39 61 0 68 L0 0 C41 -10 63 -13 96 -13 C233 -13 297 56 297 204 L297 667 Z M410 743 L249 863 L86 743 L158 733 L248 792 L341 733 L410 743 Z " />
<glyph glyph-name="jcircumflex" unicode="&#x135;" horiz-adv-x="229" d="M153 499 L76 499 L76 -16 C76 -81 53 -108 -5 -108 C-23 -108 -36 -106 -61 -100 L-61 -161 C-28 -168 -11 -171 9 -171 C104 -171 153 -119 153 -16 L153 499 Z M275 583 L114 710 L-49 583 L23 573 L112 639 L205 573 L275 583 Z " />
<glyph glyph-name="Kcommaaccent" unicode="&#x136;" horiz-adv-x="628" d="M610 0 L377 433 L558 667 L468 667 L166 280 L166 667 L83 667 L83 0 L166 0 L166 178 L319 368 L518 0 L610 0 Z M294 -53 L262 -239 L302 -239 L378 -53 L294 -53 Z " />
<glyph glyph-name="kcommaaccent" unicode="&#x137;" horiz-adv-x="501" d="M485 0 L311 319 L465 492 L383 492 L154 240 L154 667 L77 667 L77 0 L154 0 L154 152 L261 275 L405 0 L485 0 Z M235 -53 L202 -229 L240 -229 L315 -53 L235 -53 Z " />
<glyph glyph-name="kgreenlandic" unicode="&#x138;" horiz-adv-x="501" d="M485 0 L311 320 L465 493 L383 493 L154 240 L154 493 L77 493 L77 0 L154 0 L154 153 L261 275 L405 0 L485 0 Z " />
<glyph glyph-name="Lacute" unicode="&#x139;" horiz-adv-x="490" d="M476 73 L168 73 L168 667 L83 667 L83 0 L476 0 L476 73 Z M291 816 L261 874 L68 769 L89 730 L291 816 Z " />
<glyph glyph-name="lacute" unicode="&#x13a;" horiz-adv-x="230" d="M154 0 L154 667 L77 667 L77 0 L154 0 Z M245 818 L216 874 L57 769 L78 730 L245 818 Z " />
<glyph glyph-name="Lcommaaccent" unicode="&#x13b;" horiz-adv-x="490" d="M476 73 L168 73 L168 667 L83 667 L83 0 L476 0 L476 73 Z M248 -53 L216 -239 L256 -239 L332 -53 L248 -53 Z " />
<glyph glyph-name="lcommaaccent" unicode="&#x13c;" horiz-adv-x="230" d="M154 0 L154 667 L77 667 L77 0 L154 0 Z M76 -53 L44 -229 L82 -229 L157 -53 L76 -53 Z " />
<glyph glyph-name="Lcaron" unicode="&#x13d;" horiz-adv-x="490" d="M476 73 L168 73 L168 667 L83 667 L83 0 L476 0 L476 73 Z M303 667 L271 481 L310 481 L386 667 L303 667 Z " />
<glyph glyph-name="lcaron" unicode="&#x13e;" horiz-adv-x="314" d="M154 0 L154 667 L77 667 L77 0 L154 0 Z M234 667 L201 481 L239 481 L314 667 L234 667 Z " />
<glyph glyph-name="Ldot" unicode="&#x13f;" horiz-adv-x="490" d="M476 73 L168 73 L168 667 L83 667 L83 0 L476 0 L476 73 Z M414 385 L325 385 L325 296 L414 296 L414 385 Z " />
<glyph glyph-name="ldot" unicode="&#x140;" horiz-adv-x="339" d="M154 0 L154 667 L77 667 L77 0 L154 0 Z M325 380 L245 380 L245 299 L325 299 L325 380 Z " />
<glyph glyph-name="Lslash" unicode="&#x141;" horiz-adv-x="490" d="M476 73 L169 73 L169 310 L296 424 L296 504 L169 390 L169 667 L84 667 L84 337 L19 275 L19 195 L84 257 L84 0 L476 0 L476 73 Z " />
<glyph glyph-name="lslash" unicode="&#x142;" horiz-adv-x="230" d="M154 0 L154 335 L218 396 L218 470 L154 408 L154 667 L75 667 L75 364 L11 300 L11 227 L75 290 L75 0 L154 0 Z " />
<glyph glyph-name="Nacute" unicode="&#x143;" horiz-adv-x="657" d="M574 0 L574 667 L508 667 L508 218 C508 211 508 194 509 169 L510 123 L187 667 L83 667 L83 0 L150 0 L150 495 C150 511 149 531 148 581 L493 0 L574 0 Z M485 816 L455 874 L261 769 L282 730 L485 816 Z " />
<glyph glyph-name="nacute" unicode="&#x144;" horiz-adv-x="542" d="M466 0 L466 285 C466 358 461 395 448 420 C420 474 368 506 306 506 C238 506 199 480 148 402 L148 493 L77 493 L77 0 L154 0 L154 271 C154 368 212 440 292 440 C358 440 394 397 394 317 L394 0 L466 0 Z M423 662 L393 721 L200 609 L220 570 L423 662 Z " />
<glyph glyph-name="Ncommaaccent" unicode="&#x145;" horiz-adv-x="657" d="M574 0 L574 667 L508 667 L508 218 C508 211 508 194 509 169 L510 123 L187 667 L83 667 L83 0 L150 0 L150 495 C150 511 149 531 148 581 L493 0 L574 0 Z M292 -53 L260 -239 L300 -239 L376 -53 L292 -53 Z " />
<glyph glyph-name="ncommaaccent" unicode="&#x146;" horiz-adv-x="542" d="M466 0 L466 285 C466 358 461 395 448 420 C420 474 368 506 306 506 C238 506 199 480 148 402 L148 493 L77 493 L77 0 L154 0 L154 271 C154 368 212 440 292 440 C358 440 394 397 394 317 L394 0 L466 0 Z M237 -53 L205 -229 L243 -229 L318 -53 L237 -53 Z " />
<glyph glyph-name="Ncaron" unicode="&#x147;" horiz-adv-x="657" d="M574 0 L574 667 L508 667 L508 218 C508 211 508 194 509 169 L510 123 L187 667 L83 667 L83 0 L150 0 L150 495 C150 511 149 531 148 581 L493 0 L574 0 Z M166 847 L327 727 L490 847 L418 857 L329 798 L236 857 L166 847 Z " />
<glyph glyph-name="ncaron" unicode="&#x148;" horiz-adv-x="542" d="M466 0 L466 285 C466 358 461 395 448 420 C420 474 368 506 306 506 C238 506 199 480 148 402 L148 493 L77 493 L77 0 L154 0 L154 271 C154 368 212 440 292 440 C358 440 394 397 394 317 L394 0 L466 0 Z M109 693 L270 567 L433 693 L361 703 L272 638 L179 703 L109 693 Z " />
<glyph glyph-name="napostrophe" unicode="&#x149;" horiz-adv-x="675" d="M170 667 L70 667 L70 568 L118 568 L70 451 L104 451 L170 568 L170 667 Z M599 0 L599 285 C599 358 594 395 581 420 C553 474 501 506 439 506 C371 506 332 480 281 402 L281 493 L210 493 L210 0 L287 0 L287 271 C287 368 345 440 425 440 C491 440 527 397 527 317 L527 0 L599 0 Z " />
<glyph glyph-name="Eng" unicode="&#x14a;" horiz-adv-x="643" d="M83 667 L83 0 L166 0 L166 383 C166 514 243 612 347 612 C389 612 430 592 450 562 C466 536 476 494 476 445 L476 27 C476 -63 447 -103 382 -103 C361 -103 345 -101 315 -93 L315 -161 C348 -169 366 -172 388 -172 C442 -172 485 -154 515 -120 C546 -85 559 -37 559 38 L559 386 C559 483 553 533 538 567 C506 639 441 680 359 680 C271 680 216 643 159 544 L159 667 L83 667 Z " />
<glyph glyph-name="eng" unicode="&#x14b;" horiz-adv-x="542" d="M77 493 L77 0 L154 0 L154 271 C154 368 213 440 291 440 C355 440 389 397 389 317 L389 -15 C389 -81 366 -108 308 -108 C290 -108 277 -106 252 -100 L252 -161 C285 -168 303 -171 322 -171 C418 -171 466 -119 466 -15 L466 285 C466 358 461 395 448 420 C420 474 368 506 306 506 C238 506 199 480 148 402 L148 493 L77 493 Z " />
<glyph glyph-name="Omacron" unicode="&#x14c;" horiz-adv-x="631" d="M316 680 C154 680 42 538 42 332 C42 228 71 139 124 73 C171 16 235 -13 314 -13 C392 -13 452 14 500 71 C557 138 589 234 589 334 C589 542 480 680 316 680 L316 680 Z M315 612 C432 612 502 508 502 335 C502 166 428 55 316 55 C203 55 129 165 129 331 C129 501 202 612 315 612 L315 612 Z M476 810 L156 810 L156 757 L476 757 L476 810 Z " />
<glyph glyph-name="omacron" unicode="&#x14d;" horiz-adv-x="519" d="M261 506 C129 506 38 401 38 248 C38 91 124 -13 253 -13 C386 -13 481 93 481 241 C481 402 395 506 261 506 L261 506 Z M258 443 C298 443 337 423 362 390 C386 356 397 312 397 245 C397 123 345 50 259 50 C172 50 122 122 122 249 C122 309 134 357 156 389 C179 422 219 443 258 443 L258 443 Z M411 657 L108 657 L108 604 L411 604 L411 657 Z " />
<glyph glyph-name="Obreve" unicode="&#x14e;" horiz-adv-x="631" d="M316 680 C154 680 42 538 42 332 C42 228 71 139 124 73 C171 16 235 -13 314 -13 C392 -13 452 14 500 71 C557 138 589 234 589 334 C589 542 480 680 316 680 L316 680 Z M315 612 C432 612 502 508 502 335 C502 166 428 55 316 55 C203 55 129 165 129 331 C129 501 202 612 315 612 L315 612 Z M170 855 C184 774 230 737 316 737 C402 737 448 774 462 855 L406 855 C395 812 370 795 317 795 C261 795 236 811 225 855 L170 855 Z " />
<glyph glyph-name="obreve" unicode="&#x14f;" horiz-adv-x="519" d="M261 506 C129 506 38 401 38 248 C38 91 124 -13 253 -13 C386 -13 481 93 481 241 C481 402 395 506 261 506 L261 506 Z M258 443 C298 443 337 423 362 390 C386 356 397 312 397 245 C397 123 345 50 259 50 C172 50 122 122 122 249 C122 309 134 357 156 389 C179 422 219 443 258 443 L258 443 Z M113 702 C128 616 173 577 260 577 C345 577 391 617 405 702 L350 702 C339 653 314 635 259 635 C205 635 179 654 169 702 L113 702 Z " />
<glyph glyph-name="Ohungarumlaut" unicode="&#x150;" horiz-adv-x="631" d="M316 680 C154 680 42 538 42 332 C42 228 71 139 124 73 C171 16 235 -13 314 -13 C392 -13 452 14 500 71 C557 138 589 234 589 334 C589 542 480 680 316 680 L316 680 Z M315 612 C432 612 502 508 502 335 C502 166 428 55 316 55 C203 55 129 165 129 331 C129 501 202 612 315 612 L315 612 Z M370 821 L336 874 L188 768 L213 730 L370 821 Z M537 821 L503 874 L355 768 L379 730 L537 821 Z " />
<glyph glyph-name="ohungarumlaut" unicode="&#x151;" horiz-adv-x="519" d="M261 506 C129 506 38 401 38 248 C38 91 124 -13 253 -13 C386 -13 481 93 481 241 C481 402 395 506 261 506 L261 506 Z M258 443 C298 443 337 423 362 390 C386 356 397 312 397 245 C397 123 345 50 259 50 C172 50 122 122 122 249 C122 309 134 357 156 389 C179 422 219 443 258 443 L258 443 Z M319 668 L285 721 L137 608 L162 570 L319 668 Z M479 668 L445 721 L297 608 L322 570 L479 668 Z " />
<glyph glyph-name="OE" unicode="&#x152;" horiz-adv-x="963" d="M930 70 L595 70 L595 315 L865 315 L865 381 L595 381 L595 599 L930 599 L930 667 L507 667 L507 599 C455 658 408 680 332 680 C161 680 41 536 41 331 C41 130 161 -13 329 -13 C407 -13 457 11 507 70 L507 0 L930 0 L930 70 Z M507 194 C495 153 486 133 468 113 C435 76 385 55 330 55 C208 55 128 165 128 333 C128 503 208 612 333 612 C421 612 488 564 507 486 L507 194 Z " />
<glyph glyph-name="oe" unicode="&#x153;" horiz-adv-x="853" d="M738 148 C709 82 670 53 611 53 C548 53 495 94 477 157 C470 181 468 195 468 241 L815 241 C812 311 804 353 784 394 C748 466 685 506 606 506 C537 506 489 482 435 422 C384 480 332 506 265 506 C132 506 38 398 38 246 C38 91 128 -13 260 -13 C332 -13 383 12 435 72 C484 13 536 -13 605 -13 C663 -13 719 10 758 50 C780 73 792 94 807 135 L738 148 Z M470 298 C474 338 480 358 494 382 C518 422 559 446 606 446 C680 446 729 389 733 298 L470 298 Z M264 441 C353 441 401 372 401 244 C401 191 388 135 370 107 C346 70 306 48 262 48 C223 48 188 65 162 95 C137 124 124 175 124 241 C124 372 173 441 264 441 L264 441 Z " />
<glyph glyph-name="Racute" unicode="&#x154;" horiz-adv-x="613" d="M563 0 L432 309 C471 323 490 334 510 357 C538 388 556 436 556 480 C556 591 470 667 345 667 L83 667 L83 0 L161 0 L161 289 L352 289 L475 0 L563 0 Z M161 357 L161 594 L345 594 C424 594 473 551 473 482 C473 448 461 417 439 394 C414 368 383 357 335 357 L161 357 Z M445 816 L415 874 L221 769 L242 730 L445 816 Z " />
<glyph glyph-name="racute" unicode="&#x155;" horiz-adv-x="329" d="M154 0 L154 261 C156 366 227 440 320 432 L320 505 C309 506 298 507 292 507 C254 507 217 490 195 464 C177 442 168 427 144 378 L144 493 L77 493 L77 0 L154 0 Z M337 662 L307 721 L127 609 L147 570 L337 662 Z " />
<glyph glyph-name="Rcommaaccent" unicode="&#x156;" horiz-adv-x="613" d="M563 0 L432 309 C471 323 490 334 510 357 C538 388 556 436 556 480 C556 591 470 667 345 667 L83 667 L83 0 L161 0 L161 289 L352 289 L475 0 L563 0 Z M161 357 L161 594 L345 594 C424 594 473 551 473 482 C473 448 461 417 439 394 C414 368 383 357 335 357 L161 357 Z M271 -53 L239 -239 L279 -239 L355 -53 L271 -53 Z " />
<glyph glyph-name="rcommaaccent" unicode="&#x157;" horiz-adv-x="329" d="M154 0 L154 261 C156 366 227 440 320 432 L320 505 C309 506 298 507 292 507 C254 507 217 490 195 464 C177 442 168 427 144 378 L144 493 L77 493 L77 0 L154 0 Z M77 -53 L45 -229 L83 -229 L158 -53 L77 -53 Z " />
<glyph glyph-name="Rcaron" unicode="&#x158;" horiz-adv-x="613" d="M563 0 L432 309 C471 323 490 334 510 357 C538 388 556 436 556 480 C556 591 470 667 345 667 L83 667 L83 0 L161 0 L161 289 L352 289 L475 0 L563 0 Z M161 357 L161 594 L345 594 C424 594 473 551 473 482 C473 448 461 417 439 394 C414 368 383 357 335 357 L161 357 Z M128 847 L289 727 L452 847 L380 857 L290 798 L197 857 L128 847 Z " />
<glyph glyph-name="rcaron" unicode="&#x159;" horiz-adv-x="329" d="M154 0 L154 261 C156 366 227 440 320 432 L320 505 C309 506 298 507 292 507 C254 507 217 490 195 464 C177 442 168 427 144 378 L144 493 L77 493 L77 0 L154 0 Z M33 693 L187 567 L343 693 L272 703 L188 638 L102 703 L33 693 Z " />
<glyph glyph-name="Sacute" unicode="&#x15a;" horiz-adv-x="569" d="M10 178 C34 115 52 86 87 53 C137 8 198 -13 282 -13 C432 -13 529 66 529 188 C529 283 471 345 357 372 L233 402 C155 421 124 450 124 503 C124 566 184 612 265 612 C311 612 356 596 389 567 C411 548 422 530 431 495 L506 516 C469 624 387 680 268 680 C133 680 43 607 43 498 C43 446 62 402 97 369 C123 346 152 332 207 319 L340 285 C405 269 442 231 442 180 C442 104 382 58 282 58 C180 58 116 102 85 194 L10 178 Z M428 816 L398 874 L204 769 L225 730 L428 816 Z " />
<glyph glyph-name="sacute" unicode="&#x15b;" horiz-adv-x="464" d="M10 128 C22 85 35 64 61 42 C103 5 159 -13 229 -13 C351 -13 432 48 432 138 C432 218 383 266 282 284 L185 301 C133 311 108 333 108 370 C108 414 150 443 214 443 C277 443 317 419 340 366 L410 381 C386 463 319 506 216 506 C104 506 30 448 30 361 C30 291 79 241 163 225 L267 206 C323 195 352 170 352 130 C352 82 305 50 236 50 C190 50 143 64 115 87 C99 100 91 115 83 143 L10 128 Z M369 662 L339 721 L146 609 L167 570 L369 662 Z " />
<glyph glyph-name="Scircumflex" unicode="&#x15c;" horiz-adv-x="569" d="M10 178 C34 115 52 86 87 53 C137 8 198 -13 282 -13 C432 -13 529 66 529 188 C529 283 471 345 357 372 L233 402 C155 421 124 450 124 503 C124 566 184 612 265 612 C311 612 356 596 389 567 C411 548 422 530 431 495 L506 516 C469 624 387 680 268 680 C133 680 43 607 43 498 C43 446 62 402 97 369 C123 346 152 332 207 319 L340 285 C405 269 442 231 442 180 C442 104 382 58 282 58 C180 58 116 102 85 194 L10 178 Z M435 743 L274 863 L111 743 L183 733 L273 792 L366 733 L435 743 Z " />
<glyph glyph-name="scircumflex" unicode="&#x15d;" horiz-adv-x="464" d="M10 128 C22 85 35 64 61 42 C103 5 159 -13 229 -13 C351 -13 432 48 432 138 C432 218 383 266 282 284 L185 301 C133 311 108 333 108 370 C108 414 150 443 214 443 C277 443 317 419 340 366 L410 381 C386 463 319 506 216 506 C104 506 30 448 30 361 C30 291 79 241 163 225 L267 206 C323 195 352 170 352 130 C352 82 305 50 236 50 C190 50 143 64 115 87 C99 100 91 115 83 143 L10 128 Z M382 583 L221 710 L58 583 L130 573 L220 639 L313 573 L382 583 Z " />
<glyph glyph-name="Scedilla" unicode="&#x15e;" horiz-adv-x="569" d="M269 -13 C322 -13 350 -9 385 1 C473 28 529 100 529 188 C529 283 471 345 357 372 L233 402 C155 421 124 450 124 503 C124 566 184 612 265 612 C311 612 356 596 389 567 C411 548 422 530 431 495 L506 516 C469 624 387 680 268 680 C133 680 43 607 43 498 C43 446 62 402 97 369 C123 346 152 332 207 319 L340 285 C405 269 442 231 442 180 C442 104 382 58 282 58 C180 58 116 102 85 194 L10 178 C48 66 123 2 230 -10 L204 -88 C222 -86 231 -85 241 -85 C285 -85 307 -98 307 -123 C307 -147 286 -161 250 -161 C225 -161 208 -156 175 -142 L163 -177 C197 -195 221 -201 257 -201 C322 -201 363 -171 363 -125 C363 -82 325 -51 274 -51 C271 -51 264 -51 257 -52 L269 -13 Z " />
<glyph glyph-name="scedilla" unicode="&#x15f;" horiz-adv-x="464" d="M10 128 C29 47 98 -4 199 -12 L177 -80 C193 -78 201 -78 210 -78 C249 -78 270 -90 270 -112 C270 -132 250 -146 219 -146 C196 -146 178 -142 150 -129 L139 -160 C167 -176 191 -182 225 -182 C283 -182 319 -155 319 -111 C319 -87 303 -64 280 -55 C264 -49 252 -47 222 -46 L231 -14 C354 -12 432 47 432 138 C432 218 383 266 282 284 L185 301 C133 310 108 333 108 370 C108 414 150 443 214 443 C277 443 317 419 340 366 L410 381 C386 463 319 506 216 506 C104 506 30 448 30 361 C30 290 79 241 163 225 L267 205 C323 195 352 169 352 130 C352 81 305 49 236 49 C189 49 143 63 115 86 C99 100 91 114 83 143 L10 128 Z " />
<glyph glyph-name="Scaron" unicode="&#x160;" horiz-adv-x="569" d="M10 178 C34 115 52 86 87 53 C137 8 198 -13 282 -13 C432 -13 529 66 529 188 C529 283 471 345 357 372 L233 402 C155 421 124 450 124 503 C124 566 184 612 265 612 C311 612 356 596 389 567 C411 548 422 530 431 495 L506 516 C469 624 387 680 268 680 C133 680 43 607 43 498 C43 446 62 402 97 369 C123 346 152 332 207 319 L340 285 C405 269 442 231 442 180 C442 104 382 58 282 58 C180 58 116 102 85 194 L10 178 Z M111 847 L272 727 L435 847 L363 857 L273 798 L180 857 L111 847 Z " />
<glyph glyph-name="scaron" unicode="&#x161;" horiz-adv-x="464" d="M10 128 C22 85 35 64 61 42 C103 5 159 -13 229 -13 C351 -13 432 48 432 138 C432 218 383 266 282 284 L185 301 C133 311 108 333 108 370 C108 414 150 443 214 443 C277 443 317 419 340 366 L410 381 C386 463 319 506 216 506 C104 506 30 448 30 361 C30 291 79 241 163 225 L267 206 C323 195 352 170 352 130 C352 82 305 50 236 50 C190 50 143 64 115 87 C99 100 91 115 83 143 L10 128 Z M58 693 L219 567 L382 693 L310 703 L220 638 L127 703 L58 693 Z " />
<glyph glyph-name="Tcommaaccent" unicode="&#x162;" horiz-adv-x="485" d="M284 0 L284 594 L475 594 L475 667 L10 667 L10 594 L201 594 L201 0 L284 0 Z M201 -53 L168 -239 L208 -239 L284 -53 L201 -53 Z " />
<glyph glyph-name="tcommaaccent" unicode="&#x163;" horiz-adv-x="308" d="M300 53 C273 48 259 47 241 47 C188 47 161 73 161 124 L161 433 L272 433 L272 493 L161 493 L161 623 L89 617 L86 493 L-1 493 L-1 433 L86 433 L86 136 C86 37 134 -14 227 -14 C250 -14 266 -13 300 -8 L300 53 Z M159 -53 L126 -229 L164 -229 L239 -53 L159 -53 Z " />
<glyph glyph-name="Tcaron" unicode="&#x164;" horiz-adv-x="485" d="M284 0 L284 594 L475 594 L475 667 L10 667 L10 594 L201 594 L201 0 L284 0 Z M81 847 L242 727 L405 847 L333 857 L243 798 L150 857 L81 847 Z " />
<glyph glyph-name="tcaron" unicode="&#x165;" horiz-adv-x="327" d="M300 53 C273 48 259 47 241 47 C188 47 161 73 161 124 L161 433 L272 433 L272 493 L161 493 L161 623 L89 617 L86 493 L-1 493 L-1 433 L86 433 L86 136 C86 37 134 -14 227 -14 C250 -14 266 -13 300 -8 L300 53 Z M246 732 L214 547 L252 547 L327 732 L246 732 Z " />
<glyph glyph-name="Tbar" unicode="&#x166;" horiz-adv-x="485" d="M69 391 L201 391 L201 0 L284 0 L284 391 L416 391 L416 458 L284 458 L284 594 L475 594 L475 667 L10 667 L10 594 L201 594 L201 458 L69 458 L69 391 Z " />
<glyph glyph-name="tbar" unicode="&#x167;" horiz-adv-x="308" d="M268 355 L161 355 L161 433 L272 433 L272 493 L161 493 L161 623 L89 617 L86 493 L-1 493 L-1 433 L86 433 L86 355 L3 355 L3 298 L86 298 L86 136 C86 37 134 -14 227 -14 C250 -14 266 -13 300 -8 L300 53 C273 48 260 47 241 47 C188 47 161 73 161 124 L161 298 L268 298 L268 355 Z " />
<glyph glyph-name="Utilde" unicode="&#x168;" horiz-adv-x="606" d="M463 667 L463 231 C463 172 454 137 430 109 C404 78 359 60 307 60 C255 60 206 79 183 109 C164 134 156 169 156 231 L156 667 L73 667 L73 231 C73 155 85 107 113 66 C150 13 212 -13 300 -13 C384 -13 448 14 487 66 C519 108 532 155 532 231 L532 667 L463 667 Z M442 831 C418 811 403 805 382 805 C368 805 354 808 340 814 C278 840 278 840 255 840 C211 840 174 819 146 778 L187 749 C208 774 225 782 252 782 C267 782 283 779 296 773 C358 746 358 746 379 746 C415 746 438 757 480 795 L442 831 Z " />
<glyph glyph-name="utilde" unicode="&#x169;" horiz-adv-x="541" d="M465 0 L465 493 L388 493 L388 215 C388 124 327 50 251 50 C224 50 197 62 179 84 C162 104 154 133 154 178 L154 493 L77 493 L77 178 C77 59 139 -13 239 -13 C308 -13 361 24 396 94 L396 0 L465 0 Z M401 674 C377 655 361 649 340 649 C326 649 312 652 299 658 C236 684 236 684 213 684 C169 684 133 663 104 622 L145 593 C166 617 183 626 210 626 C226 626 241 623 255 617 C316 590 316 590 338 590 C373 590 396 601 438 639 L401 674 Z " />
<glyph glyph-name="Umacron" unicode="&#x16a;" horiz-adv-x="606" d="M463 667 L463 231 C463 172 454 137 430 109 C404 78 359 60 307 60 C255 60 206 79 183 109 C164 134 156 169 156 231 L156 667 L73 667 L73 231 C73 155 85 107 113 66 C150 13 212 -13 300 -13 C384 -13 448 14 487 66 C519 108 532 155 532 231 L532 667 L463 667 Z M466 810 L146 810 L146 757 L466 757 L466 810 Z " />
<glyph glyph-name="umacron" unicode="&#x16b;" horiz-adv-x="541" d="M465 0 L465 493 L388 493 L388 215 C388 124 327 50 251 50 C224 50 197 62 179 84 C162 104 154 133 154 178 L154 493 L77 493 L77 178 C77 59 139 -13 239 -13 C308 -13 361 24 396 94 L396 0 L465 0 Z M423 657 L119 657 L119 604 L423 604 L423 657 Z " />
<glyph glyph-name="Ubreve" unicode="&#x16c;" horiz-adv-x="606" d="M463 667 L463 231 C463 172 454 137 430 109 C404 78 359 60 307 60 C255 60 206 79 183 109 C164 134 156 169 156 231 L156 667 L73 667 L73 231 C73 155 85 107 113 66 C150 13 212 -13 300 -13 C384 -13 448 14 487 66 C519 108 532 155 532 231 L532 667 L463 667 Z M157 855 C171 774 217 737 303 737 C389 737 435 774 449 855 L393 855 C382 812 357 795 304 795 C248 795 223 811 212 855 L157 855 Z " />
<glyph glyph-name="ubreve" unicode="&#x16d;" horiz-adv-x="541" d="M465 0 L465 493 L388 493 L388 215 C388 124 327 50 251 50 C224 50 197 62 179 84 C162 104 154 133 154 178 L154 493 L77 493 L77 178 C77 59 139 -13 239 -13 C308 -13 361 24 396 94 L396 0 L465 0 Z M125 702 C140 616 185 577 271 577 C357 577 403 617 417 702 L362 702 C350 653 326 635 271 635 C216 635 191 654 181 702 L125 702 Z " />
<glyph glyph-name="Uring" unicode="&#x16e;" horiz-adv-x="606" d="M463 667 L463 231 C463 172 454 137 430 109 C404 78 359 60 307 60 C255 60 206 79 183 109 C164 134 156 169 156 231 L156 667 L73 667 L73 231 C73 155 85 107 113 66 C150 13 212 -13 300 -13 C384 -13 448 14 487 66 C519 108 532 155 532 231 L532 667 L463 667 Z M308 887 C258 887 218 848 218 799 C218 751 258 711 307 711 C355 711 394 750 394 798 C394 847 355 887 308 887 L308 887 Z M307 843 C331 843 350 823 350 798 C350 774 331 754 307 754 C282 754 262 774 262 799 C262 823 282 843 307 843 L307 843 Z " />
<glyph glyph-name="uring" unicode="&#x16f;" horiz-adv-x="541" d="M465 0 L465 493 L388 493 L388 215 C388 124 327 50 251 50 C224 50 197 62 179 84 C162 104 154 133 154 178 L154 493 L77 493 L77 178 C77 59 139 -13 239 -13 C308 -13 361 24 396 94 L396 0 L465 0 Z M273 733 C224 733 186 695 186 648 C186 601 225 563 272 563 C319 563 356 601 356 647 C356 695 319 733 273 733 L273 733 Z M272 693 C296 693 316 673 316 648 C316 623 296 603 272 603 C247 603 226 624 226 648 C226 673 247 693 272 693 L272 693 Z " />
<glyph glyph-name="Uhungarumlaut" unicode="&#x170;" horiz-adv-x="606" d="M463 667 L463 231 C463 172 454 137 430 109 C404 78 359 60 307 60 C255 60 206 79 183 109 C164 134 156 169 156 231 L156 667 L73 667 L73 231 C73 155 85 107 113 66 C150 13 212 -13 300 -13 C384 -13 448 14 487 66 C519 108 532 155 532 231 L532 667 L463 667 Z M360 821 L326 874 L178 768 L203 730 L360 821 Z M527 821 L493 874 L345 768 L370 730 L527 821 Z " />
<glyph glyph-name="uhungarumlaut" unicode="&#x171;" horiz-adv-x="541" d="M465 0 L465 493 L388 493 L388 215 C388 124 327 50 251 50 C224 50 197 62 179 84 C162 104 154 133 154 178 L154 493 L77 493 L77 178 C77 59 139 -13 239 -13 C308 -13 361 24 396 94 L396 0 L465 0 Z M329 668 L295 721 L147 608 L172 570 L329 668 Z M489 668 L455 721 L307 608 L332 570 L489 668 Z " />
<glyph glyph-name="Uogonek" unicode="&#x172;" horiz-adv-x="606" d="M479 -114 C462 -119 452 -121 437 -121 C401 -121 381 -104 381 -74 C381 -52 395 -31 434 8 C513 83 530 122 532 231 L532 667 L463 667 L463 231 C463 172 454 137 430 109 C404 78 359 60 307 60 C255 60 206 79 183 109 C164 134 156 169 156 231 L156 667 L73 667 L73 231 C73 136 93 78 139 37 C176 4 231 -13 299 -13 C331 -13 353 -10 385 -2 C340 -26 321 -52 321 -90 C321 -137 356 -165 415 -165 C443 -165 464 -160 488 -148 L479 -114 Z " />
<glyph glyph-name="uogonek" unicode="&#x173;" horiz-adv-x="541" d="M418 0 C367 -23 345 -48 345 -85 C345 -127 380 -153 437 -153 C465 -153 485 -149 510 -138 L500 -107 C482 -111 471 -113 458 -113 C423 -113 403 -98 403 -70 C403 -47 413 -35 453 -8 L465 0 L465 493 L388 493 L388 215 C388 124 327 50 251 50 C224 50 197 62 179 84 C162 104 154 133 154 178 L154 493 L77 493 L77 178 C77 59 139 -13 239 -13 C308 -13 361 24 396 94 L396 0 L418 0 Z " />
<glyph glyph-name="Wcircumflex" unicode="&#x174;" horiz-adv-x="817" d="M798 667 L725 667 L601 127 L448 667 L381 667 L239 127 L105 667 L19 667 L188 0 L273 0 L409 517 L554 0 L638 0 L798 667 Z M577 743 L416 863 L253 743 L325 733 L415 792 L508 733 L577 743 Z " />
<glyph glyph-name="wcircumflex" unicode="&#x175;" horiz-adv-x="664" d="M645 493 L583 493 L472 124 L362 493 L306 493 L203 126 L96 493 L19 493 L167 0 L230 0 L331 366 L441 0 L503 0 L645 493 Z M494 583 L333 710 L170 583 L242 573 L332 639 L425 573 L494 583 Z " />
<glyph glyph-name="Ycircumflex" unicode="&#x176;" horiz-adv-x="510" d="M519 667 L443 667 L265 360 L88 667 L-10 667 L213 281 L213 0 L296 0 L296 281 L519 667 Z M424 743 L263 863 L100 743 L172 733 L262 792 L355 733 L424 743 Z " />
<glyph glyph-name="ycircumflex" unicode="&#x177;" horiz-adv-x="415" d="M415 493 L350 493 L215 122 L83 493 L5 493 L175 9 C162 -35 153 -56 143 -72 C125 -101 100 -114 65 -114 C50 -114 38 -112 14 -107 L14 -168 C39 -174 52 -176 72 -176 C107 -176 131 -170 149 -157 C179 -136 200 -105 217 -58 L415 493 Z M374 583 L213 710 L50 583 L122 573 L212 639 L305 573 L374 583 Z " />
<glyph glyph-name="Ydieresis" unicode="&#x178;" horiz-adv-x="510" d="M519 667 L443 667 L265 360 L88 667 L-10 667 L213 281 L213 0 L296 0 L296 281 L519 667 Z M340 842 C311 842 288 820 288 793 C288 765 311 743 339 743 C368 743 391 765 391 793 C391 820 368 842 340 842 L340 842 Z M183 842 C154 842 132 820 132 792 C132 765 154 743 182 743 C210 743 233 765 233 793 C233 820 210 842 183 842 L183 842 Z " />
<glyph glyph-name="Zacute" unicode="&#x179;" horiz-adv-x="521" d="M497 71 L120 71 L486 607 L486 662 L44 662 L44 594 L389 594 L27 71 L27 0 L497 0 L497 71 Z M425 816 L395 874 L201 769 L222 730 L425 816 Z " />
<glyph glyph-name="zacute" unicode="&#x17a;" horiz-adv-x="423" d="M396 59 L125 59 L396 451 L396 493 L53 493 L53 433 L295 433 L33 59 L33 0 L396 0 L396 59 Z M380 662 L350 721 L156 609 L177 570 L380 662 Z " />
<glyph glyph-name="Zdotaccent" unicode="&#x17b;" horiz-adv-x="521" d="M497 71 L120 71 L486 607 L486 662 L44 662 L44 594 L389 594 L27 71 L27 0 L497 0 L497 71 Z M265 845 C236 845 212 823 212 794 C212 766 236 743 265 743 C294 743 318 766 318 794 C318 822 294 845 265 845 L265 845 Z " />
<glyph glyph-name="zdotaccent" unicode="&#x17c;" horiz-adv-x="423" d="M396 59 L125 59 L396 451 L396 493 L53 493 L53 433 L295 433 L33 59 L33 0 L396 0 L396 59 Z M224 686 C195 686 172 664 172 637 C172 609 195 587 223 587 C252 587 275 609 275 637 C275 664 252 686 224 686 L224 686 Z " />
<glyph glyph-name="Zcaron" unicode="&#x17d;" horiz-adv-x="521" d="M497 71 L120 71 L486 607 L486 662 L44 662 L44 594 L389 594 L27 71 L27 0 L497 0 L497 71 Z M103 847 L264 727 L427 847 L355 857 L266 798 L173 857 L103 847 Z " />
<glyph glyph-name="zcaron" unicode="&#x17e;" horiz-adv-x="423" d="M396 59 L125 59 L396 451 L396 493 L53 493 L53 433 L295 433 L33 59 L33 0 L396 0 L396 59 Z M63 693 L224 567 L387 693 L315 703 L225 638 L132 703 L63 693 Z " />
<glyph glyph-name="uni018F" unicode="&#x18f;" horiz-adv-x="631" d="M147 446 C162 501 172 523 192 552 C220 590 265 612 316 612 C427 612 502 502 502 337 L42 337 L42 325 C42 126 155 -13 315 -13 C477 -13 589 129 589 335 C589 438 560 528 507 594 C460 651 396 680 318 680 C238 680 175 651 131 596 C103 560 89 530 71 463 L147 446 Z M497 264 C478 132 412 55 316 55 C217 55 149 132 133 264 L497 264 Z " />
<glyph glyph-name="florin" unicode="&#x192;" horiz-adv-x="587" d="M491 571 L371 571 C387 669 415 692 512 689 L522 748 C505 751 498 752 486 752 C440 752 394 736 360 709 C324 678 307 645 294 571 L203 571 L191 504 L282 504 L204 59 C191 -11 187 -26 174 -44 C154 -72 128 -84 84 -84 C80 -84 69 -84 60 -83 L49 -143 C64 -144 81 -145 89 -145 C142 -145 184 -129 219 -96 C248 -68 265 -31 276 30 L359 504 L479 504 L491 571 Z " />
<glyph glyph-name="uni01DD" unicode="&#x1dd;" horiz-adv-x="520" d="M117 347 C142 410 188 443 250 443 C309 443 361 409 382 355 C393 330 396 306 396 254 L38 254 C39 186 47 144 67 102 C102 29 170 -13 253 -13 C388 -13 482 95 482 250 C482 403 391 506 255 506 C156 506 78 453 46 361 L117 347 Z M393 197 C390 161 384 140 373 119 C348 73 303 46 251 46 C172 46 124 102 122 197 L393 197 Z " />
<glyph glyph-name="Aringacute" unicode="&#x1fa;" horiz-adv-x="551" d="M3 0 L73 0 L132 195 L379 195 L446 0 L532 0 L315 665 C342 680 356 706 356 738 C356 788 318 827 269 827 C219 827 180 788 180 737 C180 706 193 683 219 666 L3 0 Z M361 258 L156 258 L259 578 L361 258 Z M269 788 C293 788 312 766 312 738 C312 713 293 692 269 692 C244 692 224 713 224 740 C224 766 245 788 269 788 L269 788 Z M376 896 L346 954 L152 849 L173 810 L376 896 Z " />
<glyph glyph-name="aringacute" unicode="&#x1fb;" horiz-adv-x="529" d="M463 0 C456 25 453 56 452 96 L452 305 C452 377 443 416 419 449 C390 488 340 507 266 507 C184 507 122 487 83 447 C62 426 53 407 46 370 L117 358 C130 417 175 448 249 448 C343 448 378 414 378 321 L378 305 C347 307 332 307 314 307 C228 307 161 295 116 271 C65 245 33 192 33 136 C33 48 103 -13 205 -13 C289 -13 338 16 378 89 C382 33 382 24 387 0 L463 0 Z M378 247 C379 234 379 224 379 215 C379 120 310 46 220 46 C156 46 115 81 115 134 C115 209 185 249 313 249 C325 249 351 248 378 247 L378 247 Z M263 716 C215 716 176 679 176 631 C176 585 215 547 262 547 C309 547 346 584 346 631 C346 678 309 716 263 716 L263 716 Z M262 676 C286 676 306 656 306 631 C306 607 286 587 262 587 C237 587 216 607 216 632 C216 656 237 676 262 676 L262 676 Z M366 809 L336 867 L143 756 L164 717 L366 809 Z " />
<glyph glyph-name="AEacute" unicode="&#x1fc;" horiz-adv-x="906" d="M873 73 L498 73 L498 315 L791 315 L791 382 L498 382 L498 598 L861 598 L861 667 L384 667 L-13 0 L68 0 L190 206 L415 206 L415 0 L873 0 L873 73 Z M415 271 L227 271 L415 594 L415 271 Z M735 816 L705 874 L511 769 L532 730 L735 816 Z " />
<glyph glyph-name="aeacute" unicode="&#x1fd;" horiz-adv-x="841" d="M724 145 C693 79 654 50 592 50 C541 50 494 76 470 118 C451 151 445 179 445 238 L802 238 C798 317 789 361 767 401 C729 468 665 506 588 506 C523 506 473 484 428 435 C386 487 341 506 261 506 C195 506 142 491 102 460 C74 438 60 416 49 375 L122 362 C135 417 180 449 246 449 C329 449 372 410 372 334 C372 326 372 314 371 302 C341 304 327 305 305 305 C230 305 162 293 121 273 C64 245 31 193 31 133 C31 45 100 -14 203 -14 C293 -14 352 26 387 112 C435 25 495 -13 586 -13 C686 -13 763 40 793 132 L724 145 Z M448 295 C455 388 508 446 588 446 C666 446 714 391 718 295 L448 295 Z M369 219 C369 173 359 141 335 111 C306 73 258 50 211 50 C155 50 115 87 115 138 C115 207 186 250 302 250 C322 250 337 249 369 245 L369 219 Z M575 662 L545 721 L352 609 L372 570 L575 662 Z " />
<glyph glyph-name="Oslashacute" unicode="&#x1fe;" horiz-adv-x="631" d="M31 -24 L101 -24 L148 48 C203 2 243 -13 312 -13 C395 -13 457 16 506 79 C560 148 589 238 589 338 C589 434 565 516 518 579 L595 693 L524 693 L476 625 C423 665 379 680 316 680 C153 680 42 539 42 331 C42 238 63 163 108 94 L31 -24 Z M162 163 C139 213 129 266 129 335 C129 502 202 612 314 612 C359 612 399 596 428 567 L162 163 Z M466 515 C492 463 502 411 502 338 C502 253 483 180 447 125 C416 78 373 55 315 55 C264 55 232 70 198 109 L466 515 Z M435 816 L405 874 L211 769 L232 730 L435 816 Z " />
<glyph glyph-name="oslashacute" unicode="&#x1ff;" horiz-adv-x="519" d="M18 -27 L84 -27 L127 29 C165 -1 201 -13 252 -13 C388 -13 481 92 481 247 C481 321 464 377 427 428 L500 525 L431 525 L387 467 C348 495 312 506 263 506 C130 506 39 402 39 249 C39 176 54 123 89 71 L18 -27 Z M141 135 C128 171 123 203 123 249 C123 311 135 358 159 392 C181 423 221 443 259 443 C288 443 314 433 339 413 L141 135 Z M375 368 C391 335 397 298 397 242 C397 125 343 50 259 50 C226 50 200 61 175 85 L375 368 Z M384 662 L354 721 L161 609 L181 570 L384 662 Z " />
<glyph glyph-name="Scommaaccent" unicode="&#x218;" horiz-adv-x="569" d="M10 178 C34 115 52 86 87 53 C137 8 198 -13 282 -13 C432 -13 529 66 529 188 C529 283 471 345 357 372 L233 402 C155 421 124 450 124 503 C124 566 184 612 265 612 C311 612 356 596 389 567 C411 548 422 530 431 495 L506 516 C469 624 387 680 268 680 C133 680 43 607 43 498 C43 446 62 402 97 369 C123 346 152 332 207 319 L340 285 C405 269 442 231 442 180 C442 104 382 58 282 58 C180 58 116 102 85 194 L10 178 Z M224 -53 L192 -229 L229 -229 L305 -53 L224 -53 Z " />
<glyph glyph-name="scommaaccent" unicode="&#x219;" horiz-adv-x="464" d="M10 128 C22 85 35 64 61 42 C103 5 159 -13 229 -13 C351 -13 432 48 432 138 C432 218 383 266 282 284 L185 301 C133 311 108 333 108 370 C108 414 150 443 214 443 C277 443 317 419 340 366 L410 381 C386 463 319 506 216 506 C104 506 30 448 30 361 C30 291 79 241 163 225 L267 206 C323 195 352 170 352 130 C352 82 305 50 236 50 C190 50 143 64 115 87 C99 100 91 115 83 143 L10 128 Z M180 -53 L148 -229 L185 -229 L261 -53 L180 -53 Z " />
<glyph glyph-name="uni021A" unicode="&#x21a;" horiz-adv-x="485" d="M284 0 L284 594 L475 594 L475 667 L10 667 L10 594 L201 594 L201 0 L284 0 Z M201 -53 L168 -239 L208 -239 L284 -53 L201 -53 Z " />
<glyph glyph-name="uni021B" unicode="&#x21b;" horiz-adv-x="308" d="M300 53 C273 48 259 47 241 47 C188 47 161 73 161 124 L161 433 L272 433 L272 493 L161 493 L161 623 L89 617 L86 493 L-1 493 L-1 433 L86 433 L86 136 C86 37 134 -14 227 -14 C250 -14 266 -13 300 -8 L300 53 Z M159 -53 L126 -229 L164 -229 L239 -53 L159 -53 Z " />
<glyph glyph-name="uni0259" unicode="&#x259;" horiz-adv-x="520" d="M117 347 C142 410 188 443 250 443 C309 443 361 409 382 355 C393 330 396 306 396 254 L38 254 C39 186 47 144 67 102 C102 29 170 -13 253 -13 C388 -13 482 95 482 250 C482 403 391 506 255 506 C156 506 78 453 46 361 L117 347 Z M393 197 C390 161 384 140 373 119 C348 73 303 46 251 46 C172 46 124 102 122 197 L393 197 Z " />
<glyph glyph-name="afii57929" unicode="&#x2bc;" horiz-adv-x="250" d="M175 667 L75 667 L75 568 L123 568 L75 451 L109 451 L175 568 L175 667 Z " />
<glyph glyph-name="circumflex" unicode="&#x2c6;" horiz-adv-x="500" d="M412 583 L251 710 L88 583 L160 573 L250 639 L343 573 L412 583 Z " />
<glyph glyph-name="caron" unicode="&#x2c7;" horiz-adv-x="500" d="M88 693 L249 567 L412 693 L340 703 L250 638 L157 703 L88 693 Z " />
<glyph glyph-name="uni02C9" unicode="&#x2c9;" horiz-adv-x="500" d="M401 657 L98 657 L98 604 L401 604 L401 657 Z " />
<glyph glyph-name="breve" unicode="&#x2d8;" horiz-adv-x="500" d="M104 702 C119 616 164 577 250 577 C335 577 382 617 396 702 L340 702 C329 653 305 635 250 635 C195 635 170 654 160 702 L104 702 Z " />
<glyph glyph-name="dotaccent" unicode="&#x2d9;" horiz-adv-x="500" d="M250 686 C221 686 198 664 198 637 C198 609 221 587 249 587 C278 587 301 609 301 637 C301 664 278 686 250 686 L250 686 Z " />
<glyph glyph-name="ring" unicode="&#x2da;" horiz-adv-x="500" d="M251 733 C203 733 165 695 165 648 C165 601 203 563 250 563 C297 563 334 601 334 647 C334 695 297 733 251 733 L251 733 Z M251 693 C275 693 294 673 294 648 C294 623 275 603 250 603 C226 603 205 624 205 648 C205 673 225 693 251 693 L251 693 Z " />
<glyph glyph-name="ogonek" unicode="&#x2db;" horiz-adv-x="500" d="M444 0 L398 0 C346 -23 324 -48 324 -85 C324 -127 359 -153 416 -153 C443 -153 464 -149 488 -138 L479 -107 C461 -111 450 -113 437 -113 C401 -113 382 -98 382 -70 C382 -47 392 -35 432 -8 L444 0 Z " />
<glyph glyph-name="tilde" unicode="&#x2dc;" horiz-adv-x="500" d="M380 674 C356 655 340 649 319 649 C305 649 291 652 277 658 C215 684 215 684 192 684 C148 684 112 663 83 622 L124 593 C145 617 162 626 189 626 C205 626 220 623 234 617 C295 590 295 590 317 590 C352 590 375 601 417 639 L380 674 Z " />
<glyph glyph-name="hungarumlaut" unicode="&#x2dd;" horiz-adv-x="500" d="M315 668 L281 721 L133 608 L158 570 L315 668 Z M475 668 L441 721 L293 608 L318 570 L475 668 Z " />
<glyph glyph-name="uni037E" unicode="&#x37e;" horiz-adv-x="250" d="M178 493 L71 493 L71 385 L178 385 L178 493 Z M178 111 L71 111 L71 0 L121 0 L64 -125 L104 -125 L178 11 L178 111 Z " />
<glyph glyph-name="tonos" unicode="&#x384;" horiz-adv-x="451" d="M95 675 L9 702 L-39 501 L19 483 L95 675 Z " />
<glyph glyph-name="dieresistonos" unicode="&#x385;" horiz-adv-x="500" d="M328 688 C294 688 268 663 268 631 C268 599 295 573 328 573 C360 573 387 599 387 631 C387 662 360 688 328 688 L328 688 Z M171 688 C139 688 113 663 113 631 C113 599 139 573 171 573 C204 573 230 599 230 631 C230 662 204 688 171 688 L171 688 Z M365 823 L290 868 L206 715 L256 683 L365 823 Z " />
<glyph glyph-name="Alphatonos" unicode="&#x386;" horiz-adv-x="536" d="M539 0 L321 667 L226 667 L3 0 L79 0 L139 195 L388 195 L449 0 L539 0 Z M368 258 L162 258 L267 593 L368 258 Z M131 666 L56 690 L10 499 L59 484 L131 666 Z " />
<glyph glyph-name="Epsilontonos" unicode="&#x388;" horiz-adv-x="606" d="M141 0 L572 0 L572 73 L224 73 L224 313 L493 313 L493 381 L224 381 L224 594 L563 594 L563 667 L141 667 L141 0 Z M101 666 L26 690 L-20 499 L29 484 L101 666 Z " />
<glyph glyph-name="Etatonos" unicode="&#x389;" horiz-adv-x="700" d="M141 0 L224 0 L224 318 L534 318 L534 0 L617 0 L617 667 L534 667 L534 391 L224 391 L224 667 L141 667 L141 0 Z M101 666 L26 690 L-20 499 L29 484 L101 666 Z " />
<glyph glyph-name="Iotatonos" unicode="&#x38a;" horiz-adv-x="308" d="M141 0 L224 0 L224 667 L141 667 L141 0 Z M101 666 L26 690 L-20 499 L29 484 L101 666 Z " />
<glyph glyph-name="Omicrontonos" unicode="&#x38c;" horiz-adv-x="665" d="M352 680 C274 680 215 654 165 596 C109 531 76 433 76 333 C76 125 185 -13 350 -13 C512 -13 624 129 624 335 C624 439 595 529 541 594 C494 652 431 680 352 680 L352 680 Z M350 612 C462 612 537 502 537 336 C537 166 464 55 351 55 C233 55 163 159 163 332 C163 501 237 612 350 612 L350 612 Z M101 666 L26 690 L-20 499 L29 484 L101 666 Z " />
<glyph glyph-name="Upsilontonos" unicode="&#x38e;" horiz-adv-x="651" d="M355 0 L438 0 L438 281 L661 667 L582 667 L407 360 L230 667 L132 667 L355 281 L355 0 Z M101 666 L26 690 L-20 499 L29 484 L101 666 Z " />
<glyph glyph-name="Omegatonos" unicode="&#x38f;" horiz-adv-x="672" d="M64 0 L308 0 L308 73 C260 106 236 129 214 165 C182 214 164 286 164 363 C164 514 238 612 354 612 C469 612 544 514 544 363 C544 286 526 214 494 165 C472 129 448 107 399 73 L399 0 L644 0 L644 73 L485 73 C588 140 631 224 631 362 C631 452 610 522 566 578 C515 643 439 680 354 680 C268 680 192 643 142 578 C98 522 77 452 77 362 C77 224 119 140 223 73 L64 73 L64 0 Z M101 666 L26 690 L-20 499 L29 484 L101 666 Z " />
<glyph glyph-name="iotadieresistonos" unicode="&#x390;" horiz-adv-x="223" d="M74 0 L151 0 L151 493 L74 493 L74 0 Z M190 678 C159 678 135 655 135 626 C135 597 160 573 190 573 C220 573 244 597 244 626 C244 654 220 678 190 678 L190 678 Z M34 677 C4 677 -20 654 -20 625 C-20 596 4 573 33 573 C63 573 87 596 87 625 C87 654 63 677 34 677 L34 677 Z M219 816 L154 855 L75 711 L116 684 L219 816 Z " />
<glyph glyph-name="Alpha" unicode="&#x391;" horiz-adv-x="536" d="M539 0 L321 667 L226 667 L3 0 L79 0 L139 195 L388 195 L449 0 L539 0 Z M368 258 L162 258 L267 593 L368 258 Z " />
<glyph glyph-name="Beta" unicode="&#x392;" horiz-adv-x="605" d="M83 0 L339 0 C398 0 436 9 471 30 C525 63 555 117 555 184 C555 234 537 275 502 310 C480 331 463 340 417 353 C453 365 470 374 488 390 C517 417 535 460 535 504 C535 558 510 605 464 636 C430 658 395 667 339 667 L83 667 L83 0 Z M164 383 L164 599 L322 599 C405 599 452 561 452 496 C452 460 436 426 411 408 C386 390 355 383 301 383 L164 383 Z M164 73 L164 314 L323 314 C378 314 410 304 436 277 C458 254 471 222 471 187 C471 116 421 73 339 73 L164 73 Z " />
<glyph glyph-name="Gamma" unicode="&#x393;" horiz-adv-x="446" d="M83 0 L166 0 L166 594 L445 594 L445 667 L83 667 L83 0 Z " />
<glyph glyph-name="uni0394" unicode="&#x394;" horiz-adv-x="562" d="M-10 0 L569 0 L333 667 L221 667 L-10 0 Z M87 73 L263 601 L273 601 L449 73 L87 73 Z " />
<glyph glyph-name="Epsilon" unicode="&#x395;" horiz-adv-x="548" d="M83 0 L514 0 L514 73 L166 73 L166 313 L435 313 L435 381 L166 381 L166 594 L505 594 L505 667 L83 667 L83 0 Z " />
<glyph glyph-name="Zeta" unicode="&#x396;" horiz-adv-x="521" d="M497 73 L120 73 L486 607 L486 667 L44 667 L44 594 L389 594 L27 73 L27 0 L497 0 L497 73 Z " />
<glyph glyph-name="Eta" unicode="&#x397;" horiz-adv-x="643" d="M83 0 L166 0 L166 318 L476 318 L476 0 L559 0 L559 667 L476 667 L476 391 L166 391 L166 667 L83 667 L83 0 Z " />
<glyph glyph-name="Theta" unicode="&#x398;" horiz-adv-x="631" d="M409 381 L223 381 L223 308 L409 308 L409 381 Z M317 680 C239 680 181 654 131 596 C75 531 42 433 42 333 C42 125 151 -13 315 -13 C477 -13 589 129 589 335 C589 439 560 529 507 594 C459 652 397 680 317 680 L317 680 Z M315 612 C428 612 502 502 502 336 C502 166 429 55 316 55 C199 55 129 159 129 332 C129 501 203 612 315 612 L315 612 Z " />
<glyph glyph-name="Iota" unicode="&#x399;" horiz-adv-x="250" d="M83 0 L166 0 L166 667 L83 667 L83 0 Z " />
<glyph glyph-name="Kappa" unicode="&#x39a;" horiz-adv-x="585" d="M83 0 L166 0 L166 178 L321 371 L515 0 L610 0 L377 433 L558 667 L468 667 L166 280 L166 667 L83 667 L83 0 Z " />
<glyph glyph-name="Lambda" unicode="&#x39b;" horiz-adv-x="539" d="M73 0 L253 578 L261 578 L450 0 L549 0 L319 667 L213 667 L-3 0 L73 0 Z " />
<glyph glyph-name="Mu" unicode="&#x39c;" horiz-adv-x="823" d="M90 0 L161 0 L161 495 C161 539 160 561 157 605 C172 557 182 525 196 488 L383 0 L436 0 L629 520 C638 546 644 564 657 605 C653 548 652 524 652 495 L652 0 L733 0 L733 667 L613 667 L414 127 L210 667 L90 667 L90 0 Z " />
<glyph glyph-name="Nu" unicode="&#x39d;" horiz-adv-x="657" d="M83 0 L150 0 L150 515 L150 555 C149 564 149 572 147 595 C157 571 163 559 184 524 L493 0 L574 0 L574 667 L509 667 L509 218 C509 201 510 190 511 163 C511 143 511 134 512 108 C500 138 498 141 475 180 L188 667 L83 667 L83 0 Z " />
<glyph glyph-name="Xi" unicode="&#x39e;" horiz-adv-x="507" d="M38 0 L469 0 L469 73 L38 73 L38 0 Z M85 317 L420 317 L420 390 L85 390 L85 317 Z M38 594 L469 594 L469 667 L38 667 L38 594 Z " />
<glyph glyph-name="Omicron" unicode="&#x39f;" horiz-adv-x="631" d="M317 680 C239 680 181 654 131 596 C75 531 42 433 42 333 C42 125 151 -13 315 -13 C477 -13 589 129 589 335 C589 439 560 529 507 594 C459 652 397 680 317 680 L317 680 Z M315 612 C428 612 502 502 502 336 C502 166 429 55 316 55 C199 55 129 159 129 332 C129 501 203 612 315 612 L315 612 Z " />
<glyph glyph-name="Pi" unicode="&#x3a0;" horiz-adv-x="622" d="M87 0 L170 0 L170 594 L451 594 L451 0 L534 0 L534 667 L87 667 L87 0 Z " />
<glyph glyph-name="Rho" unicode="&#x3a1;" horiz-adv-x="559" d="M83 0 L166 0 L166 271 L328 271 C449 271 535 353 535 468 C535 529 506 591 462 625 C427 653 379 667 319 667 L83 667 L83 0 Z M166 340 L166 597 L325 597 C399 597 450 544 450 468 C450 391 398 340 319 340 L166 340 Z " />
<glyph glyph-name="Sigma" unicode="&#x3a3;" horiz-adv-x="489" d="M41 0 L477 0 L477 73 L134 73 L348 362 L153 600 L450 600 L450 667 L51 667 L51 604 L250 348 L41 62 L41 0 Z " />
<glyph glyph-name="Tau" unicode="&#x3a4;" horiz-adv-x="465" d="M191 0 L274 0 L274 594 L465 594 L465 667 L0 667 L0 594 L191 594 L191 0 Z " />
<glyph glyph-name="Upsilon" unicode="&#x3a5;" horiz-adv-x="510" d="M213 0 L296 0 L296 281 L519 667 L440 667 L265 360 L88 667 L-10 667 L213 281 L213 0 Z " />
<glyph glyph-name="Phi" unicode="&#x3a6;" horiz-adv-x="731" d="M327 -20 L404 -20 L404 62 C583 77 681 173 681 334 C681 494 583 590 404 606 L404 687 L327 687 L327 606 C148 590 50 494 50 334 C50 173 148 77 327 62 L327 -20 Z M327 123 C201 139 137 210 137 334 C137 457 201 528 327 544 L327 123 Z M404 544 C530 528 594 457 594 334 C594 210 531 140 404 123 L404 544 Z " />
<glyph glyph-name="Chi" unicode="&#x3a7;" horiz-adv-x="529" d="M259 284 L428 0 L522 0 L308 362 L495 667 L419 667 L270 420 L123 667 L30 667 L221 345 L7 0 L85 0 L259 284 Z " />
<glyph glyph-name="Psi" unicode="&#x3a8;" horiz-adv-x="761" d="M346 0 L429 0 L429 127 C638 145 701 225 694 468 L694 667 L611 667 L611 468 C612 330 605 293 568 249 C538 217 488 197 429 195 L429 667 L346 667 L346 195 C295 197 251 212 220 237 C174 279 164 320 165 468 L165 667 L82 667 L82 468 C75 225 138 145 346 127 L346 0 Z " />
<glyph glyph-name="uni03A9" unicode="&#x3a9;" horiz-adv-x="637" d="M28 0 L273 0 L273 73 C224 107 200 129 178 165 C146 214 128 286 128 363 C128 514 203 612 318 612 C434 612 508 514 508 363 C508 286 490 214 458 165 C436 129 412 106 364 73 L364 0 L608 0 L608 73 L449 73 C553 140 595 224 595 362 C595 452 574 522 530 578 C480 643 404 680 319 680 C233 680 157 643 106 578 C62 522 41 452 41 362 C41 224 84 140 187 73 L28 73 L28 0 Z " />
<glyph glyph-name="Iotadieresis" unicode="&#x3aa;" horiz-adv-x="250" d="M84 0 L167 0 L167 667 L84 667 L84 0 Z M203 842 C174 842 151 820 151 793 C151 765 174 743 202 743 C231 743 254 765 254 793 C254 820 231 842 203 842 L203 842 Z M47 842 C18 842 -4 820 -4 792 C-4 765 18 743 46 743 C74 743 97 765 97 793 C97 820 74 842 47 842 L47 842 Z " />
<glyph glyph-name="Upsilondieresis" unicode="&#x3ab;" horiz-adv-x="510" d="M213 0 L296 0 L296 281 L519 667 L440 667 L265 360 L88 667 L-10 667 L213 281 L213 0 Z M333 842 C304 842 281 820 281 793 C281 765 304 743 332 743 C361 743 384 765 384 793 C384 820 361 842 333 842 L333 842 Z M177 842 C148 842 126 820 126 792 C126 765 148 743 176 743 C204 743 227 765 227 793 C227 820 204 842 177 842 L177 842 Z " />
<glyph glyph-name="alphatonos" unicode="&#x3ac;" horiz-adv-x="538" d="M461 493 L384 493 L384 428 C346 485 307 506 241 506 C119 506 37 399 37 242 C37 92 119 -14 235 -14 C306 -14 350 14 391 84 L391 0 L461 0 L461 493 Z M384 209 C384 116 320 45 242 50 C165 55 121 128 121 252 C121 371 172 445 254 445 C328 445 384 375 384 283 L384 209 Z M381 719 L308 758 L225 578 L278 551 L381 719 Z " />
<glyph glyph-name="epsilontonos" unicode="&#x3ad;" horiz-adv-x="444" d="M275 289 L260 289 C230 289 212 291 193 296 C160 304 139 333 139 368 C139 415 172 443 229 443 C293 443 327 416 343 354 L414 367 C397 458 331 506 227 506 C124 506 55 453 55 375 C55 322 80 291 147 261 C78 242 43 200 43 138 C43 98 59 60 88 31 C119 1 162 -14 220 -14 C330 -14 404 43 430 146 L358 159 C347 124 339 107 323 90 C300 64 265 49 228 49 C167 49 127 86 127 143 C127 200 161 225 240 225 L253 225 C256 225 264 225 275 226 L275 289 Z M340 712 L277 745 L199 575 L243 553 L340 712 Z " />
<glyph glyph-name="etatonos" unicode="&#x3ae;" horiz-adv-x="532" d="M462 -167 L462 285 C462 357 457 396 444 424 C420 477 371 506 305 506 C234 506 196 482 144 402 L144 493 L73 493 L73 0 L150 0 L150 271 C150 369 208 440 290 440 C356 440 385 400 385 310 L385 -167 L462 -167 Z M384 712 L321 745 L243 575 L287 553 L384 712 Z " />
<glyph glyph-name="iotatonos" unicode="&#x3af;" horiz-adv-x="223" d="M73 0 L150 0 L150 493 L73 493 L73 0 Z M216 712 L153 745 L75 575 L119 553 L216 712 Z " />
<glyph glyph-name="upsilondieresistonos" unicode="&#x3b0;" horiz-adv-x="507" d="M144 493 L67 493 L67 181 C67 130 72 97 83 71 C108 15 165 -13 254 -13 C337 -13 393 11 419 60 C435 87 441 123 441 181 L441 493 L364 493 L364 181 C364 138 362 117 355 101 C341 68 305 50 254 50 C208 50 172 66 157 94 C147 111 144 133 144 181 L144 493 Z M332 678 C301 678 277 655 277 626 C277 597 302 573 332 573 C362 573 386 597 386 626 C386 654 362 678 332 678 L332 678 Z M176 677 C146 677 122 654 122 625 C122 596 146 573 175 573 C205 573 229 596 229 625 C229 654 205 677 176 677 L176 677 Z M361 816 L296 855 L217 711 L258 684 L361 816 Z " />
<glyph glyph-name="alpha" unicode="&#x3b1;" horiz-adv-x="538" d="M461 493 L384 493 L384 428 C346 485 307 506 241 506 C119 506 37 399 37 242 C37 92 119 -14 235 -14 C306 -14 350 14 391 84 L391 0 L461 0 L461 493 Z M384 209 C384 116 320 45 242 50 C165 55 121 128 121 252 C121 371 172 445 254 445 C328 445 384 375 384 283 L384 209 Z " />
<glyph glyph-name="beta" unicode="&#x3b2;" horiz-adv-x="540" d="M80 -167 L157 -167 L157 45 C190 3 227 -14 290 -14 C413 -14 496 70 496 195 C496 291 451 349 353 379 C422 411 454 457 454 524 C454 620 381 680 264 680 C192 680 141 659 113 618 C87 582 80 547 80 461 L80 -167 Z M157 464 C157 534 162 560 178 586 C194 611 222 623 262 623 C333 623 375 583 375 514 C375 440 340 406 260 403 L260 343 C300 342 326 336 347 325 C389 303 412 258 412 199 C412 108 354 47 268 47 C219 47 191 60 157 99 L157 464 Z " />
<glyph glyph-name="gamma" unicode="&#x3b3;" horiz-adv-x="427" d="M175 -167 L252 -167 L252 15 L421 493 L347 493 L218 111 L87 493 L0 493 L175 15 L175 -167 Z " />
<glyph glyph-name="delta" unicode="&#x3b4;" horiz-adv-x="512" d="M415 667 L94 667 L94 607 L256 475 C204 474 175 467 144 447 C76 406 42 334 42 234 C42 82 125 -13 258 -13 C388 -13 469 85 469 241 C469 334 443 401 387 455 C366 475 314 518 289 538 L198 607 L415 607 L415 667 Z M256 436 C338 436 385 366 385 244 C385 121 338 50 256 50 C216 50 179 70 158 103 C136 137 126 181 126 247 C126 366 174 436 256 436 L256 436 Z " />
<glyph glyph-name="epsilon" unicode="&#x3b5;" horiz-adv-x="444" d="M275 289 L260 289 C230 289 212 291 193 296 C160 304 139 333 139 368 C139 415 172 443 229 443 C293 443 327 416 343 354 L414 367 C397 458 331 506 227 506 C124 506 55 453 55 375 C55 322 80 291 147 261 C78 242 43 200 43 138 C43 98 59 60 88 31 C119 1 162 -14 220 -14 C330 -14 404 43 430 146 L358 159 C347 124 339 107 323 90 C300 64 265 49 228 49 C167 49 127 86 127 143 C127 200 161 225 240 225 L253 225 C256 225 264 225 275 226 L275 289 Z " />
<glyph glyph-name="zeta" unicode="&#x3b6;" horiz-adv-x="362" d="M78 607 L253 607 C217 574 192 544 157 495 C78 385 43 292 43 193 C43 116 67 53 108 23 C129 8 158 0 200 -2 C254 -4 268 -12 268 -43 C268 -68 257 -102 231 -154 L285 -174 C326 -112 344 -65 344 -19 C344 41 316 66 245 71 C195 74 175 79 160 93 C138 111 127 150 127 202 C127 344 191 473 337 622 L337 667 L78 667 L78 607 Z " />
<glyph glyph-name="eta" unicode="&#x3b7;" horiz-adv-x="532" d="M462 -167 L462 285 C462 357 457 396 444 424 C420 477 371 506 305 506 C234 506 196 482 144 402 L144 493 L73 493 L73 0 L150 0 L150 271 C150 369 208 440 290 440 C356 440 385 400 385 310 L385 -167 L462 -167 Z " />
<glyph glyph-name="theta" unicode="&#x3b8;" horiz-adv-x="524" d="M262 680 C126 680 48 555 48 338 C48 110 123 -13 262 -13 C398 -13 475 111 475 333 C475 556 399 680 262 680 L262 680 Z M127 376 C132 445 138 486 149 520 C171 584 212 621 262 621 C307 621 345 590 368 535 C384 498 391 455 396 376 L127 376 Z M396 320 C392 230 387 185 375 150 C352 83 311 46 262 46 C216 46 179 76 155 133 C137 177 129 229 127 320 L396 320 Z " />
<glyph glyph-name="iota" unicode="&#x3b9;" horiz-adv-x="223" d="M73 0 L150 0 L150 493 L73 493 L73 0 Z " />
<glyph glyph-name="kappa" unicode="&#x3ba;" horiz-adv-x="481" d="M286 328 L443 493 L359 493 L195 314 C190 309 170 286 170 286 C166 282 157 271 147 258 C149 292 150 304 150 331 L150 493 L73 493 L73 0 L150 0 L150 185 L232 271 L375 0 L465 0 L286 328 Z " />
<glyph glyph-name="lambda" unicode="&#x3bb;" horiz-adv-x="413" d="M2 0 L74 0 L199 373 L327 0 L410 0 L174 667 L94 667 L167 460 L2 0 Z " />
<glyph glyph-name="uni03BC" unicode="&#x3bc;" horiz-adv-x="535" d="M73 -167 L150 -167 L150 64 C179 11 215 -13 267 -13 C323 -13 355 10 391 77 L391 0 L461 0 L461 493 L384 493 L384 223 C384 170 378 138 362 111 C342 75 306 55 265 55 C226 55 196 72 174 106 C155 135 150 159 150 216 L150 493 L73 493 L73 -167 Z " />
<glyph glyph-name="nu" unicode="&#x3bd;" horiz-adv-x="411" d="M417 493 L347 493 L233 155 C224 129 219 111 211 85 C206 107 203 116 190 155 L74 493 L-11 493 L165 0 L245 0 L417 493 Z " />
<glyph glyph-name="xi" unicode="&#x3be;" horiz-adv-x="410" d="M357 -174 C389 -123 406 -73 406 -27 C406 38 371 70 294 73 C207 78 204 78 184 86 C144 102 122 139 122 190 C122 239 141 279 176 303 C205 323 242 330 308 330 L336 330 L336 390 L308 390 C206 390 153 425 153 491 C153 534 177 570 219 590 C249 604 286 610 338 610 L395 610 L395 667 L66 667 L66 613 L197 613 C117 589 74 542 74 480 C74 421 112 381 187 364 C88 342 38 283 38 185 C38 75 105 8 221 2 C289 -2 289 -2 302 -7 C319 -14 327 -28 327 -50 C327 -79 319 -108 300 -154 L357 -174 Z " />
<glyph glyph-name="omicron" unicode="&#x3bf;" horiz-adv-x="519" d="M266 506 C133 506 38 400 38 252 C38 91 124 -13 258 -13 C390 -13 481 92 481 245 C481 314 465 373 432 420 C391 479 338 506 266 506 L266 506 Z M260 443 C347 443 397 371 397 244 C397 184 386 137 363 104 C341 71 300 50 261 50 C221 50 181 70 157 103 C133 137 122 181 122 248 C122 370 174 443 260 443 L260 443 Z " />
<glyph glyph-name="pi" unicode="&#x3c0;" horiz-adv-x="534" d="M92 0 L169 0 L169 433 L366 433 L366 0 L443 0 L443 433 L504 433 L504 493 L30 493 L30 433 L92 433 L92 0 Z " />
<glyph glyph-name="rho" unicode="&#x3c1;" horiz-adv-x="529" d="M60 -167 L137 -167 L137 102 C176 25 221 -5 293 -5 C413 -5 492 97 492 249 C492 407 408 506 274 506 C187 506 121 464 86 387 C66 344 60 294 60 181 L60 -167 Z M273 443 C361 443 408 376 408 252 C408 130 360 59 278 59 C191 59 143 130 143 260 C143 380 188 443 273 443 L273 443 Z " />
<glyph glyph-name="uni03C2" unicode="&#x3c2;" horiz-adv-x="452" d="M381 -174 C409 -129 428 -71 428 -29 C428 1 418 27 401 43 C383 60 362 67 301 77 C232 89 195 101 171 121 C134 151 118 193 118 262 C118 378 163 443 242 443 C306 443 341 405 354 321 L428 334 C408 449 346 506 241 506 C116 506 38 411 38 258 C38 153 79 78 156 42 C186 28 230 17 286 10 C342 2 355 -8 355 -44 C355 -76 344 -116 325 -154 L381 -174 Z " />
<glyph glyph-name="sigma" unicode="&#x3c3;" horiz-adv-x="510" d="M497 493 L313 493 C289 498 277 500 257 500 C123 500 38 399 38 239 C38 84 121 -14 250 -14 C381 -14 464 83 464 236 C464 321 435 385 373 433 L497 433 L497 493 Z M251 436 C333 436 380 366 380 243 C380 183 369 136 348 103 C328 71 289 49 252 49 C215 49 178 70 155 103 C132 137 122 180 122 246 C122 365 170 436 251 436 L251 436 Z " />
<glyph glyph-name="tau" unicode="&#x3c4;" horiz-adv-x="359" d="M141 0 L218 0 L218 433 L366 433 L366 493 L-7 493 L-7 433 L141 433 L141 0 Z " />
<glyph glyph-name="upsilon" unicode="&#x3c5;" horiz-adv-x="507" d="M144 493 L67 493 L67 181 C67 130 72 97 83 71 C108 15 165 -13 254 -13 C337 -13 393 11 419 60 C435 87 441 123 441 181 L441 493 L364 493 L364 181 C364 138 362 117 355 101 C341 68 305 50 254 50 C208 50 172 66 157 94 C147 111 144 133 144 181 L144 493 Z " />
<glyph glyph-name="phi" unicode="&#x3c6;" horiz-adv-x="627" d="M276 -167 L349 -167 L349 -14 C412 -8 446 4 486 34 C547 81 582 157 582 244 C582 338 543 418 474 465 C434 492 382 506 321 506 C304 506 296 505 276 502 L276 46 C168 67 123 127 123 248 C123 331 146 380 203 415 L172 474 C87 433 43 355 43 247 C43 155 77 78 138 34 C177 6 211 -6 276 -14 L276 -167 Z M349 448 C448 440 502 370 502 251 C502 128 451 60 349 46 L349 448 Z " />
<glyph glyph-name="chi" unicode="&#x3c7;" horiz-adv-x="448" d="M175 190 L-11 -167 L67 -167 L215 130 L355 -167 L442 -167 L266 180 L432 493 L357 493 L231 248 L108 493 L21 493 L175 190 Z " />
<glyph glyph-name="psi" unicode="&#x3c8;" horiz-adv-x="680" d="M309 -167 L386 -167 L386 -14 C551 -9 621 64 614 225 L614 493 L537 493 L537 225 C540 95 504 54 386 50 L386 493 L309 493 L309 50 C190 54 154 95 157 225 L157 493 L80 493 L80 225 C73 64 143 -9 309 -14 L309 -167 Z " />
<glyph glyph-name="omega" unicode="&#x3c9;" horiz-adv-x="672" d="M374 371 L297 371 L297 193 C297 142 295 118 288 99 C278 67 257 50 229 50 C163 50 126 115 126 228 C126 322 152 401 206 468 L151 506 C77 428 42 342 42 234 C42 164 57 103 83 65 C117 16 169 -13 225 -13 C276 -13 308 11 336 71 C362 12 395 -13 446 -13 C494 -13 538 8 573 46 C610 87 629 151 629 234 C629 342 595 428 520 506 L465 468 C519 401 545 322 545 229 C545 115 508 50 442 50 C416 50 396 64 385 92 C377 112 374 137 374 193 L374 371 Z " />
<glyph glyph-name="iotadieresis" unicode="&#x3ca;" horiz-adv-x="223" d="M73 0 L150 0 L150 493 L73 493 L73 0 Z M189 686 C160 686 137 664 137 637 C137 609 160 587 188 587 C217 587 240 609 240 637 C240 664 217 686 189 686 L189 686 Z M33 686 C4 686 -18 664 -18 636 C-18 609 4 587 32 587 C60 587 83 609 83 637 C83 664 60 686 33 686 L33 686 Z " />
<glyph glyph-name="upsilondieresis" unicode="&#x3cb;" horiz-adv-x="507" d="M144 493 L67 493 L67 181 C67 130 72 97 83 71 C108 15 165 -13 254 -13 C337 -13 393 11 419 60 C435 87 441 123 441 181 L441 493 L364 493 L364 181 C364 138 362 117 355 101 C341 68 305 50 254 50 C208 50 172 66 157 94 C147 111 144 133 144 181 L144 493 Z M332 686 C303 686 280 664 280 637 C280 609 303 587 331 587 C360 587 383 609 383 637 C383 664 360 686 332 686 L332 686 Z M176 686 C147 686 125 664 125 636 C125 609 147 587 175 587 C203 587 226 609 226 637 C226 664 203 686 176 686 L176 686 Z " />
<glyph glyph-name="omicrontonos" unicode="&#x3cc;" horiz-adv-x="519" d="M266 506 C133 506 38 400 38 252 C38 91 124 -13 258 -13 C390 -13 481 92 481 245 C481 314 465 373 432 420 C391 479 338 506 266 506 L266 506 Z M260 443 C347 443 397 371 397 244 C397 184 386 137 363 104 C341 71 300 50 261 50 C221 50 181 70 157 103 C133 137 122 181 122 248 C122 370 174 443 260 443 L260 443 Z M371 712 L308 745 L230 575 L274 553 L371 712 Z " />
<glyph glyph-name="upsilontonos" unicode="&#x3cd;" horiz-adv-x="507" d="M144 493 L67 493 L67 181 C67 130 72 97 83 71 C108 15 165 -13 254 -13 C337 -13 393 11 419 60 C435 87 441 123 441 181 L441 493 L364 493 L364 181 C364 138 362 117 355 101 C341 68 305 50 254 50 C208 50 172 66 157 94 C147 111 144 133 144 181 L144 493 Z M366 712 L302 745 L224 575 L268 553 L366 712 Z " />
<glyph glyph-name="omegatonos" unicode="&#x3ce;" horiz-adv-x="672" d="M374 371 L297 371 L297 193 C297 142 295 118 288 99 C278 67 257 50 229 50 C163 50 126 115 126 228 C126 322 152 401 206 468 L151 506 C77 428 42 342 42 234 C42 164 57 103 83 65 C117 16 169 -13 225 -13 C276 -13 308 11 336 71 C362 12 395 -13 446 -13 C494 -13 538 8 573 46 C610 87 629 151 629 234 C629 342 595 428 520 506 L465 468 C519 401 545 322 545 229 C545 115 508 50 442 50 C416 50 396 64 385 92 C377 112 374 137 374 193 L374 371 Z M441 712 L378 745 L299 575 L343 553 L441 712 Z " />
<glyph glyph-name="phi1" unicode="&#x3d5;" horiz-adv-x="626" d="M280 -167 L347 -167 L347 0 C494 12 587 109 587 249 C587 387 496 479 347 493 L347 653 L280 653 L280 493 C131 479 40 387 40 249 C40 109 133 12 280 0 L280 -167 Z M280 59 C174 79 124 139 124 248 C124 355 174 415 280 435 L280 59 Z M347 435 C453 415 503 354 503 246 C503 139 453 79 347 59 L347 435 Z " />
<glyph glyph-name="afii10023" unicode="&#x401;" horiz-adv-x="535" d="M514 73 L166 73 L166 313 L435 313 L435 381 L166 381 L166 594 L505 594 L505 667 L83 667 L83 0 L514 0 L514 73 Z M222 842 C193 842 171 820 171 792 C171 765 193 743 221 743 C249 743 272 765 272 793 C272 820 249 842 222 842 L222 842 Z M378 842 C349 842 326 820 326 793 C326 765 349 743 377 743 C406 743 429 765 429 793 C429 820 406 842 378 842 L378 842 Z " />
<glyph glyph-name="afii10051" unicode="&#x402;" horiz-adv-x="614" d="M114 0 L197 0 L197 209 C197 263 204 287 229 317 C258 354 300 372 355 372 C451 372 477 322 477 132 C477 29 467 -31 443 -63 C424 -89 402 -98 342 -102 L347 -174 C417 -171 454 -159 490 -127 C540 -82 560 0 560 163 C560 241 554 294 540 334 C515 405 462 439 375 439 C296 439 237 408 197 345 L197 594 L461 594 L461 667 L0 667 L0 594 L114 594 L114 0 Z " />
<glyph glyph-name="afii10052" unicode="&#x403;" horiz-adv-x="459" d="M83 0 L166 0 L166 594 L459 594 L459 667 L83 667 L83 0 Z M181 769 L202 730 L404 816 L361 881 L181 769 Z " />
<glyph glyph-name="afii10053" unicode="&#x404;" horiz-adv-x="589" d="M392 384 L135 384 C144 525 213 609 317 609 C396 609 449 569 479 485 L560 501 C522 619 439 680 317 680 C237 680 171 652 126 599 C72 536 42 444 42 340 C42 233 73 137 130 68 C176 13 238 -13 321 -13 C448 -13 530 50 570 175 L491 192 C461 105 403 58 323 58 C208 58 136 154 134 311 L392 311 L392 384 Z " />
<glyph glyph-name="afii10054" unicode="&#x405;" horiz-adv-x="569" d="M10 178 C34 115 52 86 87 53 C137 8 198 -13 282 -13 C432 -13 529 66 529 188 C529 243 506 293 468 323 C433 349 395 364 314 382 C210 406 210 406 183 417 C146 433 124 464 124 503 C124 566 184 612 265 612 C311 612 356 596 389 567 C411 548 422 530 431 495 L506 516 C469 624 387 680 268 680 C133 680 43 607 43 498 C43 446 63 400 97 369 C129 341 165 326 248 308 C334 289 362 280 392 263 C424 246 442 216 442 180 C442 104 382 58 282 58 C180 58 116 102 85 194 L10 178 Z " />
<glyph glyph-name="afii10055" unicode="&#x406;" horiz-adv-x="250" d="M166 667 L83 667 L83 0 L166 0 L166 667 Z " />
<glyph glyph-name="afii10056" unicode="&#x407;" horiz-adv-x="250" d="M166 667 L83 667 L83 0 L166 0 L166 667 Z M57 842 C28 842 6 820 6 792 C6 765 28 743 56 743 C84 743 107 765 107 793 C107 820 84 842 57 842 L57 842 Z M192 842 C163 842 140 820 140 793 C140 765 163 743 191 743 C220 743 243 765 243 793 C243 820 220 842 192 842 L192 842 Z " />
<glyph glyph-name="afii10057" unicode="&#x408;" horiz-adv-x="357" d="M277 667 L194 667 L194 204 C194 169 193 149 191 138 C187 115 174 94 158 81 C138 65 110 59 61 59 C33 59 18 61 -20 68 L-20 0 C21 -10 43 -13 77 -13 C213 -13 277 57 277 204 L277 667 Z " />
<glyph glyph-name="afii10058" unicode="&#x409;" horiz-adv-x="788" d="M402 401 L335 667 L217 667 L-3 0 L76 0 L256 578 L282 578 L410 0 L552 0 C694 0 769 69 769 198 C769 271 743 331 697 365 C658 393 618 401 515 401 L402 401 Z M484 73 L421 328 L548 328 C641 328 685 287 685 201 C685 114 641 73 548 73 L484 73 Z " />
<glyph glyph-name="afii10059" unicode="&#x40a;" horiz-adv-x="913" d="M522 391 L522 667 L439 667 L439 391 L166 391 L166 667 L83 667 L83 0 L166 0 L166 318 L439 318 L439 0 L675 0 C734 0 772 9 807 30 C864 64 892 118 892 193 C892 267 867 324 821 356 C781 384 742 391 638 391 L522 391 Z M522 73 L522 318 L671 318 C765 318 808 280 808 197 C808 116 761 73 671 73 L522 73 Z " />
<glyph glyph-name="afii10060" unicode="&#x40b;" horiz-adv-x="620" d="M197 594 L464 594 L464 667 L0 667 L0 594 L114 594 L114 0 L197 0 L197 290 C237 345 288 371 356 371 C439 371 477 326 477 228 L477 0 L560 0 L560 221 C560 294 551 332 524 369 C491 415 437 440 371 440 C299 440 243 412 197 352 L197 594 Z " />
<glyph glyph-name="afii10061" unicode="&#x40c;" horiz-adv-x="604" d="M610 0 L377 433 L558 667 L468 667 L166 280 L166 667 L83 667 L83 0 L166 0 L166 178 L319 368 L518 0 L610 0 Z M240 769 L261 730 L463 816 L420 881 L240 769 Z " />
<glyph glyph-name="afii10062" unicode="&#x40e;" horiz-adv-x="501" d="M230 188 L218 158 C190 88 174 74 117 73 L86 73 L86 0 L104 0 C203 -1 242 32 293 157 L505 667 L424 667 L272 286 L91 667 L1 667 L230 188 Z M97 858 C113 765 166 720 258 720 C349 720 403 766 418 858 L357 858 C345 810 315 789 256 789 C200 789 169 811 158 858 L97 858 Z " />
<glyph glyph-name="afii10145" unicode="&#x40f;" horiz-adv-x="643" d="M173 73 L173 667 L90 667 L90 0 L277 0 L287 -140 L351 -140 L361 0 L553 0 L553 667 L470 667 L470 73 L173 73 Z " />
<glyph glyph-name="afii10017" unicode="&#x410;" horiz-adv-x="536" d="M539 0 L321 667 L226 667 L3 0 L79 0 L139 195 L388 195 L449 0 L539 0 Z M368 258 L162 258 L267 593 L368 258 Z " />
<glyph glyph-name="afii10018" unicode="&#x411;" horiz-adv-x="578" d="M83 0 L320 0 C379 0 417 9 452 30 C508 63 537 118 537 191 C537 255 515 314 477 347 C439 380 392 391 282 391 L164 391 L164 594 L467 594 L467 667 L83 667 L83 0 Z M164 73 L164 318 L304 318 C348 318 383 312 403 300 C435 282 453 245 453 197 C453 116 406 73 316 73 L164 73 Z " />
<glyph glyph-name="afii10019" unicode="&#x412;" horiz-adv-x="605" d="M83 0 L339 0 C398 0 436 9 471 30 C525 63 555 117 555 184 C555 234 537 275 502 310 C480 331 463 340 417 353 C453 365 470 374 488 390 C517 417 535 460 535 504 C535 558 510 605 464 636 C430 658 395 667 339 667 L83 667 L83 0 Z M164 383 L164 599 L322 599 C405 599 452 561 452 496 C452 460 436 426 411 408 C386 390 355 383 301 383 L164 383 Z M164 73 L164 314 L323 314 C378 314 410 304 436 277 C458 254 471 222 471 187 C471 116 421 73 339 73 L164 73 Z " />
<glyph glyph-name="afii10020" unicode="&#x413;" horiz-adv-x="426" d="M83 0 L166 0 L166 594 L425 594 L425 667 L83 667 L83 0 Z " />
<glyph glyph-name="afii10021" unicode="&#x414;" horiz-adv-x="577" d="M25 73 L-14 73 L-14 -140 L53 -140 L63 0 L514 0 L524 -140 L591 -140 L591 73 L552 73 L355 667 L217 667 L25 73 Z M103 73 L264 601 L299 601 L462 73 L103 73 Z " />
<glyph glyph-name="afii10022" unicode="&#x415;" horiz-adv-x="535" d="M514 73 L166 73 L166 313 L435 313 L435 381 L166 381 L166 594 L505 594 L505 667 L83 667 L83 0 L514 0 L514 73 Z " />
<glyph glyph-name="afii10024" unicode="&#x416;" horiz-adv-x="738" d="M515 383 L722 667 L633 667 L432 383 L408 375 L408 667 L331 667 L331 375 L307 383 L105 667 L6 667 L221 359 L-10 0 L75 0 L288 332 L331 318 L331 0 L408 0 L408 318 L451 332 L664 0 L763 0 L515 383 Z " />
<glyph glyph-name="afii10025" unicode="&#x417;" horiz-adv-x="544" d="M8 186 C34 55 122 -13 264 -13 C344 -13 401 5 444 45 C485 82 508 135 508 192 C508 283 458 337 360 353 C446 377 489 427 489 503 C489 550 469 594 433 626 C393 663 340 680 267 680 C131 680 57 623 26 494 L106 484 C123 571 174 612 264 612 C349 612 402 568 402 497 C402 428 352 384 273 384 L215 384 L215 312 L278 312 C324 312 348 306 372 289 C404 268 421 231 421 187 C421 105 364 55 271 55 C164 55 110 98 84 204 L8 186 Z " />
<glyph glyph-name="afii10026" unicode="&#x418;" horiz-adv-x="651" d="M166 56 L406 381 C451 442 461 459 488 508 C485 434 485 424 485 388 L485 0 L568 0 L568 667 L485 667 L485 602 L245 277 C207 224 191 200 163 149 C165 185 166 203 166 236 L166 667 L83 667 L83 0 L166 0 L166 56 Z " />
<glyph glyph-name="afii10027" unicode="&#x419;" horiz-adv-x="651" d="M172 858 C188 765 241 720 333 720 C424 720 478 766 493 858 L432 858 C420 810 390 789 331 789 C275 789 244 811 233 858 L172 858 Z M166 56 L406 381 C451 442 461 459 488 508 C485 434 485 424 485 388 L485 0 L568 0 L568 667 L485 667 L485 602 L245 277 C207 224 191 200 163 149 C165 185 166 203 166 236 L166 667 L83 667 L83 0 L166 0 L166 56 Z " />
<glyph glyph-name="afii10028" unicode="&#x41a;" horiz-adv-x="604" d="M610 0 L377 433 L558 667 L468 667 L166 280 L166 667 L83 667 L83 0 L166 0 L166 178 L319 368 L518 0 L610 0 Z " />
<glyph glyph-name="afii10029" unicode="&#x41b;" horiz-adv-x="539" d="M76 0 L256 578 L282 578 L457 0 L549 0 L335 667 L217 667 L-3 0 L76 0 Z " />
<glyph glyph-name="afii10030" unicode="&#x41c;" horiz-adv-x="810" d="M83 0 L154 0 L154 495 C154 539 153 561 150 605 C165 557 175 525 189 488 L376 0 L429 0 L622 520 C631 546 637 564 650 605 C646 548 645 524 645 495 L645 0 L726 0 L726 667 L606 667 L407 127 L203 667 L83 667 L83 0 Z " />
<glyph glyph-name="afii10031" unicode="&#x41d;" horiz-adv-x="643" d="M559 0 L559 667 L476 667 L476 391 L166 391 L166 667 L83 667 L83 0 L166 0 L166 318 L476 318 L476 0 L559 0 Z " />
<glyph glyph-name="afii10032" unicode="&#x41e;" horiz-adv-x="631" d="M317 680 C239 680 181 654 131 596 C75 531 42 433 42 333 C42 125 151 -13 315 -13 C477 -13 589 129 589 335 C589 439 560 529 507 594 C459 652 397 680 317 680 L317 680 Z M315 612 C428 612 502 502 502 336 C502 166 429 55 316 55 C199 55 129 159 129 332 C129 501 203 612 315 612 L315 612 Z " />
<glyph glyph-name="afii10033" unicode="&#x41f;" horiz-adv-x="629" d="M83 0 L166 0 L166 594 L463 594 L463 0 L546 0 L546 667 L83 667 L83 0 Z " />
<glyph glyph-name="afii10034" unicode="&#x420;" horiz-adv-x="559" d="M166 0 L166 271 L328 271 C449 271 535 353 535 468 C535 529 506 591 462 625 C427 653 379 667 319 667 L83 667 L83 0 L166 0 Z M166 340 L166 597 L325 597 C399 597 450 544 450 468 C450 391 398 340 319 340 L166 340 Z " />
<glyph glyph-name="afii10035" unicode="&#x421;" horiz-adv-x="589" d="M483 224 C468 170 458 147 438 119 C411 82 363 58 315 58 C204 58 133 165 133 331 C133 505 202 609 318 609 C400 609 448 562 481 451 L559 466 C524 609 444 680 319 680 C151 680 42 546 42 340 C42 232 73 136 130 68 C175 15 237 -13 313 -13 C388 -13 449 14 492 65 C525 104 541 138 559 207 L483 224 Z " />
<glyph glyph-name="afii10036" unicode="&#x422;" horiz-adv-x="485" d="M284 0 L284 594 L475 594 L475 667 L10 667 L10 594 L201 594 L201 0 L284 0 Z " />
<glyph glyph-name="afii10037" unicode="&#x423;" horiz-adv-x="491" d="M225 188 L213 158 C185 88 169 74 112 73 L81 73 L81 0 L99 0 C198 -1 237 32 288 157 L500 667 L419 667 L267 286 L86 667 L-4 667 L225 188 Z " />
<glyph glyph-name="afii10038" unicode="&#x424;" horiz-adv-x="731" d="M327 -20 L404 -20 L404 62 C583 77 681 173 681 334 C681 494 583 590 404 606 L404 687 L327 687 L327 606 C148 590 50 494 50 334 C50 173 148 77 327 62 L327 -20 Z M327 123 C201 139 137 210 137 334 C137 457 201 528 327 544 L327 123 Z M404 544 C530 528 594 457 594 334 C594 210 531 140 404 123 L404 544 Z " />
<glyph glyph-name="afii10039" unicode="&#x425;" horiz-adv-x="502" d="M481 667 L405 667 L256 420 L109 667 L16 667 L207 345 L-7 0 L71 0 L245 284 L414 0 L508 0 L294 362 L481 667 Z " />
<glyph glyph-name="afii10040" unicode="&#x426;" horiz-adv-x="646" d="M90 0 L563 0 L573 -140 L639 -140 L639 73 L556 73 L556 667 L473 667 L473 73 L173 73 L173 667 L90 667 L90 0 Z " />
<glyph glyph-name="afii10041" unicode="&#x427;" horiz-adv-x="591" d="M425 0 L508 0 L508 667 L425 667 L425 377 C383 322 330 296 259 296 C170 296 131 340 131 439 L131 667 L48 667 L48 446 C48 375 58 338 87 298 C121 251 174 227 243 227 C318 227 377 255 425 315 L425 0 Z " />
<glyph glyph-name="afii10042" unicode="&#x428;" horiz-adv-x="904" d="M90 0 L814 0 L814 667 L731 667 L731 73 L493 73 L493 667 L410 667 L410 73 L173 73 L173 667 L90 667 L90 0 Z " />
<glyph glyph-name="afii10043" unicode="&#x429;" horiz-adv-x="911" d="M814 73 L814 667 L731 667 L731 73 L493 73 L493 667 L410 667 L410 73 L173 73 L173 667 L90 667 L90 0 L827 0 L837 -140 L904 -140 L904 73 L814 73 Z " />
<glyph glyph-name="afii10044" unicode="&#x42a;" horiz-adv-x="624" d="M158 594 L158 0 L387 0 C529 0 605 69 605 198 C605 271 579 331 533 365 C494 393 454 401 350 401 L241 401 L241 667 L-20 667 L-20 594 L158 594 Z M241 73 L241 328 L384 328 C477 328 521 287 521 201 C521 114 477 73 384 73 L241 73 Z " />
<glyph glyph-name="afii10045" unicode="&#x42b;" horiz-adv-x="807" d="M632 0 L715 0 L715 667 L632 667 L632 0 Z M91 0 L320 0 C462 0 538 69 538 198 C538 271 512 331 466 365 C427 393 387 401 283 401 L174 401 L174 667 L91 667 L91 0 Z M174 73 L174 328 L317 328 C410 328 454 287 454 201 C454 114 410 73 317 73 L174 73 Z " />
<glyph glyph-name="afii10046" unicode="&#x42c;" horiz-adv-x="550" d="M83 0 L312 0 C454 0 530 69 530 198 C530 271 504 331 458 365 C419 393 379 401 275 401 L166 401 L166 667 L83 667 L83 0 Z M166 73 L166 328 L309 328 C402 328 446 287 446 201 C446 114 402 73 309 73 L166 73 Z " />
<glyph glyph-name="afii10047" unicode="&#x42d;" horiz-adv-x="589" d="M198 311 L456 311 C454 154 382 58 267 58 C187 58 129 105 99 192 L20 175 C59 50 142 -13 268 -13 C352 -13 414 13 459 68 C516 137 548 233 548 340 C548 444 518 536 464 599 C419 652 352 680 273 680 C150 680 67 619 30 501 L110 485 C141 569 194 609 272 609 C377 609 445 525 455 384 L198 384 L198 311 Z " />
<glyph glyph-name="afii10048" unicode="&#x42e;" horiz-adv-x="884" d="M295 318 C296 245 308 190 334 138 C383 39 462 -13 566 -13 C644 -13 703 14 752 71 C810 140 841 234 841 339 C841 542 730 680 567 680 C472 680 397 635 346 547 C319 501 306 459 296 391 L166 391 L166 667 L83 667 L83 0 L166 0 L166 318 L295 318 Z M567 612 C682 612 754 508 754 340 C754 167 681 55 568 55 C454 55 381 165 381 336 C381 501 456 612 567 612 L567 612 Z " />
<glyph glyph-name="afii10049" unicode="&#x42f;" horiz-adv-x="603" d="M441 289 L441 0 L519 0 L519 667 L257 667 C132 667 46 591 46 480 C46 436 64 388 92 357 C112 334 131 323 170 309 L33 0 L120 0 L250 289 L441 289 Z M441 594 L441 357 L267 357 C219 357 188 368 163 394 C141 417 129 448 129 482 C129 551 178 594 257 594 L441 594 Z " />
<glyph glyph-name="afii10065" unicode="&#x430;" horiz-adv-x="529" d="M463 0 C454 25 452 44 452 96 L452 305 C452 377 443 417 420 449 C391 488 341 507 266 507 C184 507 123 487 83 447 C63 426 54 407 47 370 L118 358 C131 417 176 447 251 447 C340 447 378 412 378 330 L378 305 C348 307 333 307 315 307 C228 307 161 295 116 271 C65 245 33 192 33 136 C33 47 103 -13 206 -13 C289 -13 341 18 378 89 C382 35 383 23 387 0 L463 0 Z M378 247 C380 236 380 231 380 224 C380 118 314 46 217 46 C155 46 115 80 115 134 C115 210 182 249 314 249 C326 249 352 248 378 247 L378 247 Z " />
<glyph glyph-name="afii10066" unicode="&#x431;" horiz-adv-x="530" d="M345 711 C341 683 327 670 295 662 C235 652 235 652 221 648 C185 637 156 619 133 594 C80 536 52 425 52 272 C52 173 69 109 110 58 C148 11 201 -13 270 -13 C407 -13 487 82 487 246 C487 328 469 390 432 435 C396 479 338 506 279 506 C220 506 180 484 142 430 C155 534 195 587 271 600 C390 618 423 642 428 711 L345 711 Z M270 443 C352 443 404 367 404 247 C404 126 352 50 270 50 C185 50 132 126 132 249 C132 367 186 443 270 443 L270 443 Z " />
<glyph glyph-name="afii10067" unicode="&#x432;" horiz-adv-x="524" d="M80 0 L346 0 C429 0 481 53 481 137 C481 203 449 241 377 263 C436 286 462 321 462 374 C462 419 442 455 408 474 C383 488 359 493 310 493 L80 493 L80 0 Z M157 288 L157 433 L310 433 C359 433 383 410 383 364 C383 314 358 288 310 288 L157 288 Z M157 60 L157 230 L310 230 C368 230 397 201 397 144 C397 87 369 60 310 60 L157 60 Z " />
<glyph glyph-name="afii10068" unicode="&#x433;" horiz-adv-x="360" d="M73 0 L150 0 L150 433 L359 433 L359 493 L73 493 L73 0 Z " />
<glyph glyph-name="afii10069" unicode="&#x434;" horiz-adv-x="436" d="M25 60 L-10 60 L-10 -113 L47 -113 L57 0 L379 0 L389 -113 L446 -113 L446 60 L411 60 L281 493 L168 493 L25 60 Z M97 60 L208 419 L230 419 L332 60 L97 60 Z " />
<glyph glyph-name="afii10070" unicode="&#x435;" horiz-adv-x="520" d="M402 147 C377 83 332 50 270 50 C211 50 159 84 137 138 C127 164 124 188 123 240 L482 240 C481 308 473 349 453 392 C418 464 350 506 267 506 C132 506 38 399 38 244 C38 90 129 -13 264 -13 C364 -13 441 41 473 132 L402 147 Z M127 297 C130 333 135 353 147 374 C172 421 216 447 269 447 C348 447 396 392 398 297 L127 297 Z " />
<glyph glyph-name="afii10072" unicode="&#x436;" horiz-adv-x="582" d="M420 286 L564 493 L487 493 L345 282 L329 275 L329 493 L257 493 L257 275 L240 282 L99 493 L11 493 L168 265 L-12 0 L67 0 L225 237 L257 222 L257 0 L329 0 L329 222 L361 237 L511 0 L602 0 L420 286 Z " />
<glyph glyph-name="afii10073" unicode="&#x437;" horiz-adv-x="437" d="M166 226 C223 226 242 224 260 218 C296 206 314 181 314 142 C314 84 274 46 212 46 C147 46 111 80 90 159 L18 146 C42 41 111 -14 218 -14 C324 -14 398 48 398 139 C398 200 363 242 294 261 C361 291 386 322 386 375 C386 453 317 506 215 506 C113 506 54 461 33 367 L105 354 C119 418 152 446 212 446 C268 446 302 417 302 370 C302 333 281 305 245 296 C222 291 208 289 166 289 L166 226 Z " />
<glyph glyph-name="afii10074" unicode="&#x438;" horiz-adv-x="532" d="M150 47 L321 269 C363 324 365 327 385 362 C383 319 382 306 382 248 L382 0 L459 0 L459 493 L382 493 L382 440 L210 213 C181 174 174 164 147 120 C149 169 150 191 150 234 L150 493 L73 493 L73 0 L150 0 L150 47 Z " />
<glyph glyph-name="afii10075" unicode="&#x439;" horiz-adv-x="532" d="M117 699 C132 610 178 568 263 568 C348 568 395 610 409 699 L354 699 C342 650 318 632 263 632 C208 632 183 651 173 699 L117 699 Z M150 47 L321 269 C363 324 365 327 385 362 C383 319 382 306 382 248 L382 0 L459 0 L459 493 L382 493 L382 440 L210 213 C181 174 174 164 147 120 C149 169 150 191 150 234 L150 493 L73 493 L73 0 L150 0 L150 47 Z " />
<glyph glyph-name="afii10076" unicode="&#x43a;" horiz-adv-x="473" d="M307 319 L461 493 L377 493 L195 289 C175 267 167 257 147 226 C148 241 149 255 149 260 C150 266 150 282 150 306 L150 493 L73 493 L73 0 L150 0 L150 152 L250 270 L394 0 L481 0 L307 319 Z " />
<glyph glyph-name="afii10077" unicode="&#x43b;" horiz-adv-x="405" d="M-5 0 L67 0 L191 399 L206 399 L330 0 L409 0 L250 493 L158 493 L-5 0 Z " />
<glyph glyph-name="afii10078" unicode="&#x43c;" horiz-adv-x="690" d="M73 0 L140 0 L140 432 L147 432 L299 0 L382 0 L536 426 L543 426 L543 0 L616 0 L616 493 L499 493 L344 68 L198 493 L73 493 L73 0 Z " />
<glyph glyph-name="afii10079" unicode="&#x43d;" horiz-adv-x="535" d="M73 0 L150 0 L150 229 L385 229 L385 0 L462 0 L462 493 L385 493 L385 289 L150 289 L150 493 L73 493 L73 0 Z " />
<glyph glyph-name="afii10080" unicode="&#x43e;" horiz-adv-x="519" d="M260 506 C132 506 38 397 38 250 C38 95 129 -13 260 -13 C389 -13 481 95 481 247 C481 398 389 506 260 506 L260 506 Z M260 443 C345 443 397 369 397 247 C397 124 346 50 260 50 C173 50 122 123 122 249 C122 369 174 443 260 443 L260 443 Z " />
<glyph glyph-name="afii10081" unicode="&#x43f;" horiz-adv-x="518" d="M73 0 L150 0 L150 433 L367 433 L367 0 L444 0 L444 493 L73 493 L73 0 Z " />
<glyph glyph-name="afii10082" unicode="&#x440;" horiz-adv-x="534" d="M150 -167 L150 75 C192 11 232 -13 296 -13 C413 -13 493 92 493 247 C493 401 414 506 297 506 C228 506 181 473 142 397 L142 493 L73 493 L73 -167 L150 -167 Z M150 297 C150 371 213 439 281 439 C361 439 409 366 409 242 C409 176 397 128 372 96 C351 69 314 50 281 50 C213 50 150 118 150 192 L150 297 Z " />
<glyph glyph-name="afii10083" unicode="&#x441;" horiz-adv-x="466" d="M368 173 C352 92 310 50 248 50 C166 50 118 124 118 248 C118 369 168 443 251 443 C316 443 355 402 368 321 L437 334 C417 446 351 506 250 506 C122 506 38 402 38 246 C38 89 120 -13 246 -13 C301 -13 344 4 379 40 C411 72 425 101 437 161 L368 173 Z " />
<glyph glyph-name="afii10084" unicode="&#x442;" horiz-adv-x="352" d="M137 0 L214 0 L214 433 L352 433 L352 493 L0 493 L0 433 L137 433 L137 0 Z " />
<glyph glyph-name="afii10085" unicode="&#x443;" horiz-adv-x="410" d="M410 493 L337 493 L210 119 L68 493 L-13 493 L171 9 C144 -83 116 -114 59 -114 C45 -114 34 -112 9 -107 L9 -168 C34 -174 47 -176 69 -176 C142 -176 181 -144 212 -58 L410 493 Z " />
<glyph glyph-name="afii10086" unicode="&#x444;" horiz-adv-x="626" d="M280 -167 L347 -167 L347 0 C494 12 587 109 587 249 C587 387 496 479 347 493 L347 653 L280 653 L280 493 C131 479 40 387 40 249 C40 109 133 12 280 0 L280 -167 Z M280 59 C174 79 124 139 124 248 C124 355 174 415 280 435 L280 59 Z M347 435 C453 415 503 354 503 246 C503 139 453 79 347 59 L347 435 Z " />
<glyph glyph-name="afii10087" unicode="&#x445;" horiz-adv-x="424" d="M420 0 L250 272 L394 493 L320 493 L213 325 L107 493 L19 493 L169 256 L3 0 L78 0 L206 200 L331 0 L420 0 Z " />
<glyph glyph-name="afii10088" unicode="&#x446;" horiz-adv-x="516" d="M73 0 L449 0 L459 -113 L515 -113 L515 60 L442 60 L442 493 L365 493 L365 60 L150 60 L150 493 L73 493 L73 0 Z " />
<glyph glyph-name="afii10089" unicode="&#x447;" horiz-adv-x="489" d="M339 0 L416 0 L416 493 L339 493 L339 260 C305 237 270 227 223 227 C161 227 130 255 130 310 L130 493 L53 493 L53 291 C53 252 61 229 81 208 C109 179 153 163 204 163 C257 163 295 177 339 212 L339 0 Z " />
<glyph glyph-name="afii10090" unicode="&#x448;" horiz-adv-x="766" d="M80 0 L686 0 L686 493 L609 493 L609 60 L422 60 L422 493 L345 493 L345 60 L157 60 L157 493 L80 493 L80 0 Z " />
<glyph glyph-name="afii10091" unicode="&#x449;" horiz-adv-x="769" d="M81 0 L702 0 L712 -99 L768 -99 L768 60 L687 60 L687 493 L610 493 L610 60 L423 60 L423 493 L346 493 L346 60 L158 60 L158 493 L81 493 L81 0 Z " />
<glyph glyph-name="afii10092" unicode="&#x44a;" horiz-adv-x="508" d="M115 0 L339 0 C434 0 492 55 492 143 C492 242 434 303 339 303 L192 303 L192 493 L-20 493 L-20 433 L115 433 L115 0 Z M192 60 L192 243 L321 243 C378 243 408 209 408 145 C408 87 381 60 321 60 L192 60 Z " />
<glyph glyph-name="afii10093" unicode="&#x44b;" horiz-adv-x="682" d="M80 0 L304 0 C399 0 457 55 457 143 C457 242 399 303 304 303 L157 303 L157 493 L80 493 L80 0 Z M157 60 L157 243 L286 243 C343 243 373 209 373 145 C373 87 346 60 286 60 L157 60 Z M525 0 L602 0 L602 493 L525 493 L525 0 Z " />
<glyph glyph-name="afii10094" unicode="&#x44c;" horiz-adv-x="467" d="M73 0 L297 0 C392 0 450 55 450 143 C450 242 392 303 297 303 L150 303 L150 493 L73 493 L73 0 Z M150 60 L150 243 L279 243 C336 243 366 209 366 145 C366 87 339 60 279 60 L150 60 Z " />
<glyph glyph-name="afii10095" unicode="&#x44d;" horiz-adv-x="474" d="M162 224 L355 224 C355 119 301 50 218 50 C156 50 111 86 88 153 L17 137 C46 39 117 -13 220 -13 C356 -13 437 83 437 244 C437 406 355 506 223 506 C128 506 62 460 26 366 L97 349 C117 410 161 443 220 443 C299 443 344 389 355 284 L162 284 L162 224 Z " />
<glyph glyph-name="afii10096" unicode="&#x44e;" horiz-adv-x="745" d="M152 234 L263 234 C270 82 352 -13 478 -13 C612 -13 706 93 706 244 C706 402 618 506 486 506 C369 506 282 422 266 294 L152 294 L152 493 L73 493 L73 0 L152 0 L152 234 Z M483 443 C525 443 562 424 587 390 C611 357 622 312 622 247 C622 121 572 50 483 50 C391 50 340 121 340 251 C340 371 393 443 483 443 L483 443 Z " />
<glyph glyph-name="afii10097" unicode="&#x44f;" horiz-adv-x="505" d="M355 0 L432 0 L432 493 L208 493 C112 493 54 438 54 345 C54 277 84 237 150 215 L29 0 L109 0 L219 200 L355 200 L355 0 Z M355 260 L215 260 C164 260 138 288 138 343 C138 374 146 398 161 414 C174 428 190 433 221 433 L355 433 L355 260 Z " />
<glyph glyph-name="afii10071" unicode="&#x451;" horiz-adv-x="520" d="M402 147 C377 83 332 50 270 50 C211 50 159 84 137 138 C127 164 124 188 123 240 L482 240 C481 308 473 349 453 392 C418 464 350 506 267 506 C132 506 38 399 38 244 C38 90 129 -13 264 -13 C364 -13 441 41 473 132 L402 147 Z M127 297 C130 333 135 353 147 374 C172 421 216 447 269 447 C348 447 396 392 398 297 L127 297 Z M193 686 C164 686 142 664 142 636 C142 609 164 587 192 587 C220 587 243 609 243 637 C243 664 220 686 193 686 L193 686 Z M343 686 C314 686 291 664 291 637 C291 609 314 587 342 587 C371 587 394 609 394 637 C394 664 371 686 343 686 L343 686 Z " />
<glyph glyph-name="afii10099" unicode="&#x452;" horiz-adv-x="506" d="M70 0 L147 0 L147 252 C147 310 159 350 185 383 C210 413 244 430 278 430 C323 430 354 403 366 351 C374 318 379 241 379 146 C379 -50 359 -100 278 -108 L288 -171 C330 -169 368 -155 396 -129 C443 -86 456 -26 456 150 C456 260 451 333 439 378 C421 451 369 493 296 493 C229 493 186 464 147 389 L147 558 L350 558 L350 618 L147 618 L147 677 L70 677 L70 618 L-24 618 L-24 558 L70 558 L70 0 Z " />
<glyph glyph-name="afii10100" unicode="&#x453;" horiz-adv-x="360" d="M73 0 L150 0 L150 433 L359 433 L359 493 L73 493 L73 0 Z M348 667 L311 727 L124 609 L145 570 L348 667 Z " />
<glyph glyph-name="afii10101" unicode="&#x454;" horiz-adv-x="474" d="M313 284 L120 284 C131 389 176 443 254 443 C314 443 357 410 377 349 L449 366 C412 460 347 506 252 506 C119 506 38 407 38 244 C38 83 119 -13 254 -13 C358 -13 428 39 458 137 L387 153 C364 86 319 50 257 50 C174 50 120 119 120 224 L313 224 L313 284 Z " />
<glyph glyph-name="afii10102" unicode="&#x455;" horiz-adv-x="464" d="M10 128 C22 85 35 64 61 42 C103 5 159 -13 229 -13 C351 -13 432 48 432 139 C432 185 413 223 379 247 C350 268 320 278 253 289 C182 301 172 303 149 312 C122 323 109 342 109 369 C109 414 150 443 214 443 C277 443 317 419 340 366 L410 381 C386 463 319 506 216 506 C104 506 30 448 30 361 C30 320 48 281 78 260 C108 238 139 228 215 215 C275 205 295 200 317 189 C339 177 352 156 352 130 C352 82 306 50 235 50 C189 50 143 64 115 87 C99 100 91 115 83 143 L10 128 Z " />
<glyph glyph-name="afii10103" unicode="&#x456;" horiz-adv-x="229" d="M156 667 L73 667 L73 582 L156 582 L156 667 Z M153 493 L76 493 L76 0 L153 0 L153 493 Z " />
<glyph glyph-name="afii10104" unicode="&#x457;" horiz-adv-x="229" d="M153 493 L76 493 L76 0 L153 0 L153 493 Z M47 686 C18 686 -4 664 -4 636 C-4 609 18 587 46 587 C74 587 97 609 97 637 C97 664 74 686 47 686 L47 686 Z M182 686 C153 686 130 664 130 637 C130 609 153 587 181 587 C210 587 233 609 233 637 C233 664 210 686 182 686 L182 686 Z " />
<glyph glyph-name="afii10105" unicode="&#x458;" horiz-adv-x="229" d="M157 667 L70 667 L70 582 L157 582 L157 667 Z M153 493 L76 493 L76 -16 C76 -81 53 -108 -5 -108 C-23 -108 -36 -106 -61 -100 L-61 -161 C-27 -169 -10 -171 12 -171 C104 -171 153 -117 153 -16 L153 493 Z " />
<glyph glyph-name="afii10106" unicode="&#x459;" horiz-adv-x="609" d="M299 303 L250 493 L158 493 L-5 0 L67 0 L191 399 L206 399 L297 0 L449 0 C544 0 602 55 602 143 C602 242 544 303 449 303 L299 303 Z M357 60 L313 243 L432 243 C488 243 518 209 518 145 C518 87 491 60 432 60 L357 60 Z " />
<glyph glyph-name="afii10107" unicode="&#x45a;" horiz-adv-x="759" d="M442 290 L442 493 L365 493 L365 289 L150 289 L150 493 L73 493 L73 0 L150 0 L150 229 L365 229 L365 0 L589 0 C683 0 742 55 742 142 C742 234 684 290 589 290 L442 290 Z M442 60 L442 230 L571 230 C629 230 658 201 658 144 C658 87 630 60 571 60 L442 60 Z " />
<glyph glyph-name="afii10108" unicode="&#x45b;" horiz-adv-x="507" d="M70 618 L-24 618 L-24 558 L70 558 L70 0 L147 0 L147 252 C147 311 159 350 188 383 C213 412 249 430 284 430 C322 430 356 408 369 375 C377 355 379 337 379 286 L379 0 L456 0 L456 286 C456 367 451 393 426 428 C398 470 352 493 298 493 C230 493 187 463 147 389 L147 558 L350 558 L350 618 L147 618 L147 677 L70 677 L70 618 Z " />
<glyph glyph-name="afii10109" unicode="&#x45c;" horiz-adv-x="473" d="M307 319 L461 493 L377 493 L195 289 C175 267 167 257 147 226 C148 241 149 255 149 260 C150 266 150 282 150 306 L150 493 L73 493 L73 0 L150 0 L150 152 L257 275 L401 0 L481 0 L307 319 Z M391 667 L354 727 L168 609 L189 570 L391 667 Z " />
<glyph glyph-name="afii10110" unicode="&#x45e;" horiz-adv-x="410" d="M410 493 L337 493 L210 119 L68 493 L-13 493 L171 9 C144 -83 116 -114 59 -114 C45 -114 34 -112 9 -107 L9 -168 C34 -174 47 -176 69 -176 C142 -176 181 -144 212 -58 L410 493 Z M63 699 C77 610 124 568 209 568 C293 568 340 610 354 699 L299 699 C288 650 263 632 208 632 C154 632 129 651 118 699 L63 699 Z " />
<glyph glyph-name="afii10193" unicode="&#x45f;" horiz-adv-x="516" d="M73 0 L220 0 L230 -113 L286 -113 L296 0 L442 0 L442 493 L365 493 L365 60 L150 60 L150 493 L73 493 L73 0 Z " />
<glyph glyph-name="afii10050" unicode="&#x490;" horiz-adv-x="446" d="M445 787 L368 787 L368 667 L83 667 L83 0 L166 0 L166 594 L445 594 L445 787 Z " />
<glyph glyph-name="afii10098" unicode="&#x491;" horiz-adv-x="360" d="M292 493 L73 493 L73 0 L150 0 L150 433 L359 433 L359 587 L292 587 L292 493 Z " />
<glyph glyph-name="uni0492" unicode="&#x492;" horiz-adv-x="508" d="M83 316 L83 0 L166 0 L166 316 L436 316 L436 383 L166 383 L166 594 L491 594 L491 667 L83 667 L83 383 L51 383 L51 316 L83 316 Z " />
<glyph glyph-name="uni0493" unicode="&#x493;" horiz-adv-x="360" d="M73 213 L73 0 L150 0 L150 213 L286 213 L286 273 L150 273 L150 433 L360 433 L360 493 L73 493 L73 273 L36 273 L36 213 L73 213 Z " />
<glyph glyph-name="uni0496" unicode="&#x496;" horiz-adv-x="797" d="M722 63 L515 383 L721 667 L633 667 L432 383 L408 375 L408 667 L331 667 L331 375 L307 383 L105 667 L6 667 L221 359 L-10 0 L75 0 L288 332 L331 318 L331 0 L408 0 L408 318 L451 332 L664 0 L711 0 L712 -10 L722 -150 L789 -150 L789 63 L722 63 Z " />
<glyph glyph-name="uni0497" unicode="&#x497;" horiz-adv-x="642" d="M558 69 L420 286 L563 493 L486 493 L345 282 L329 275 L329 493 L257 493 L257 275 L240 282 L99 493 L11 493 L168 265 L-12 0 L67 0 L225 237 L257 222 L257 0 L329 0 L329 222 L361 237 L511 0 L551 0 L551 -5 L561 -131 L625 -131 L625 69 L558 69 Z " />
<glyph glyph-name="uni049A" unicode="&#x49a;" horiz-adv-x="667" d="M571 73 L377 433 L558 667 L468 667 L166 279 L166 667 L83 667 L83 0 L166 0 L166 177 L319 368 L518 0 L577 0 L587 -140 L654 -140 L654 73 L571 73 Z " />
<glyph glyph-name="uni049B" unicode="&#x49b;" horiz-adv-x="473" d="M307 319 L461 493 L377 493 L195 289 C175 267 167 257 147 226 C148 241 149 255 149 260 C150 266 150 283 150 306 L150 493 L73 493 L73 0 L150 0 L150 152 L250 270 L394 0 L454 0 L464 -113 L521 -113 L521 60 L448 60 L307 319 Z " />
<glyph glyph-name="uni049C" unicode="&#x49c;" horiz-adv-x="604" d="M290 331 L319 368 L518 0 L610 0 L378 433 L558 667 L468 667 L290 438 L290 608 L228 608 L228 359 L166 279 L166 667 L83 667 L83 0 L166 0 L166 178 L228 254 L228 117 L290 117 L290 331 Z " />
<glyph glyph-name="uni049D" unicode="&#x49d;" horiz-adv-x="473" d="M251 268 L394 0 L480 0 L306 320 L460 493 L376 493 L251 353 L251 452 L189 452 L189 284 C171 262 165 255 147 227 C148 242 149 255 149 260 C150 267 150 283 150 306 L150 493 L73 493 L73 0 L150 0 L150 153 L189 199 L189 105 L251 105 L251 268 Z " />
<glyph glyph-name="uni04A2" unicode="&#x4a2;" horiz-adv-x="655" d="M559 73 L559 667 L476 667 L476 391 L166 391 L166 667 L83 667 L83 0 L166 0 L166 318 L476 318 L476 0 L566 0 L576 -140 L642 -140 L642 73 L559 73 Z " />
<glyph glyph-name="uni04A3" unicode="&#x4a3;" horiz-adv-x="535" d="M73 0 L150 0 L150 229 L385 229 L385 0 L469 0 L479 -113 L535 -113 L535 60 L462 60 L462 493 L385 493 L385 289 L150 289 L150 493 L73 493 L73 0 Z " />
<glyph glyph-name="uni04AE" unicode="&#x4ae;" horiz-adv-x="510" d="M519 667 L443 667 L265 360 L88 667 L-10 667 L213 281 L213 0 L296 0 L296 281 L519 667 Z " />
<glyph glyph-name="uni04AF" unicode="&#x4af;" horiz-adv-x="410" d="M175 -167 L252 -167 L252 15 L421 493 L347 493 L218 111 L87 493 L0 493 L175 15 L175 -167 Z " />
<glyph glyph-name="uni04B0" unicode="&#x4b0;" horiz-adv-x="510" d="M296 278 L296 281 L519 667 L443 667 L264 360 L88 667 L-10 667 L213 281 L213 278 L57 278 L57 205 L213 205 L213 0 L296 0 L296 205 L453 205 L453 278 L296 278 Z " />
<glyph glyph-name="uni04B1" unicode="&#x4b1;" horiz-adv-x="410" d="M175 -30 L175 -167 L252 -167 L252 -30 L367 -30 L367 30 L257 30 L420 493 L347 493 L218 111 L87 493 L0 493 L170 30 L53 30 L53 -30 L175 -30 Z " />
<glyph glyph-name="uni04B2" unicode="&#x4b2;" horiz-adv-x="559" d="M481 667 L405 667 L256 420 L109 667 L16 667 L206 345 L-7 0 L71 0 L245 284 L414 0 L471 0 L481 -140 L548 -140 L548 73 L465 73 L294 362 L481 667 Z " />
<glyph glyph-name="uni04B3" unicode="&#x4b3;" horiz-adv-x="437" d="M383 60 L250 272 L394 493 L320 493 L213 325 L107 493 L19 493 L169 256 L3 0 L78 0 L206 200 L331 0 L389 0 L399 -113 L456 -113 L456 60 L383 60 Z " />
<glyph glyph-name="uni04B8" unicode="&#x4b8;" horiz-adv-x="591" d="M308 234 C354 245 400 276 430 315 L430 0 L513 0 L513 667 L430 667 L430 377 C401 337 354 307 308 300 L308 544 L246 544 L246 297 C171 303 134 351 136 439 L136 667 L53 667 L53 446 C48 311 121 228 246 227 L246 93 L308 93 L308 234 Z " />
<glyph glyph-name="uni04B9" unicode="&#x4b9;" horiz-adv-x="489" d="M273 172 C298 179 320 192 344 212 L344 0 L421 0 L421 493 L344 493 L344 259 C320 243 303 236 273 230 L273 371 L211 371 L211 227 C162 230 136 258 135 309 L135 493 L58 493 L58 291 C53 214 114 163 211 163 L211 66 L273 66 L273 172 Z " />
<glyph glyph-name="uni04BA" unicode="&#x4ba;" horiz-adv-x="591" d="M166 667 L83 667 L83 0 L166 0 L166 290 C208 345 261 371 332 371 C421 371 460 327 460 228 L460 0 L543 0 L543 221 C543 292 533 329 504 369 C470 416 417 440 348 440 C273 440 214 412 166 352 L166 667 Z " />
<glyph glyph-name="uni04BB" unicode="&#x4bb;" horiz-adv-x="540" d="M464 0 L464 299 C464 381 459 406 434 442 C406 484 359 507 305 507 C237 507 194 477 154 402 L154 667 L77 667 L77 0 L154 0 L154 266 C154 324 166 363 195 396 C220 425 257 443 291 443 C329 443 364 421 377 388 C385 368 387 350 387 299 L387 0 L464 0 Z " />
<glyph glyph-name="uni04C0" unicode="&#x4c0;" horiz-adv-x="250" d="M166 667 L83 667 L83 0 L166 0 L166 667 Z " />
<glyph glyph-name="uni04CF" unicode="&#x4cf;" horiz-adv-x="250" d="M166 667 L83 667 L83 0 L166 0 L166 667 Z " />
<glyph glyph-name="uni04D8" unicode="&#x4d8;" horiz-adv-x="631" d="M147 446 C162 501 172 523 192 552 C220 590 265 612 316 612 C427 612 502 502 502 337 L42 337 L42 325 C42 126 155 -13 315 -13 C477 -13 589 129 589 335 C589 438 560 528 507 594 C460 651 396 680 318 680 C238 680 175 651 131 596 C103 560 89 530 71 463 L147 446 Z M497 264 C478 132 412 55 316 55 C217 55 149 132 133 264 L497 264 Z " />
<glyph glyph-name="afii10846" unicode="&#x4d9;" horiz-adv-x="520" d="M117 347 C142 410 188 443 250 443 C309 443 361 409 382 355 C393 330 396 306 396 254 L38 254 C39 186 47 144 67 102 C102 29 170 -13 253 -13 C388 -13 482 95 482 250 C482 403 391 506 255 506 C156 506 78 453 46 361 L117 347 Z M393 197 C390 161 384 140 373 119 C348 73 303 46 251 46 C172 46 124 102 122 197 L393 197 Z " />
<glyph glyph-name="uni04E8" unicode="&#x4e8;" horiz-adv-x="631" d="M317 680 C239 680 181 654 131 596 C75 531 42 433 42 333 C42 125 151 -13 315 -13 C477 -13 589 129 589 335 C589 438 560 529 507 594 C459 652 397 680 317 680 L317 680 Z M501 300 C492 150 420 55 316 55 C207 55 139 144 130 300 L501 300 Z M131 373 C147 527 212 612 315 612 C419 612 489 522 501 373 L131 373 Z " />
<glyph glyph-name="uni04E9" unicode="&#x4e9;" horiz-adv-x="519" d="M260 506 C132 506 38 398 38 250 C38 95 129 -13 260 -13 C389 -13 481 96 481 247 C481 398 389 506 260 506 L260 506 Z M395 215 C388 112 337 50 259 50 C182 50 130 112 123 215 L395 215 Z M123 275 C126 307 129 327 136 346 C157 407 203 443 259 443 C311 443 354 413 377 361 C388 337 393 315 396 275 L123 275 Z " />
<glyph glyph-name="Wdieresis" unicode="&#x1e84;" horiz-adv-x="817" d="M798 667 L725 667 L601 127 L448 667 L381 667 L239 127 L105 667 L19 667 L188 0 L273 0 L409 517 L554 0 L638 0 L798 667 Z M493 842 C464 842 441 820 441 793 C441 765 464 743 492 743 C521 743 544 765 544 793 C544 820 521 842 493 842 L493 842 Z M337 842 C308 842 286 820 286 792 C286 765 308 743 336 743 C364 743 387 765 387 793 C387 820 364 842 337 842 L337 842 Z " />
<glyph glyph-name="uni2011" unicode="&#x2011;" horiz-adv-x="250" d="M236 280 L15 280 L15 220 L236 220 L236 280 Z " />
<glyph glyph-name="figuredash" unicode="&#x2012;" horiz-adv-x="587" d="M487 280 L98 280 L98 220 L487 220 L487 280 Z " />
<glyph glyph-name="endash" unicode="&#x2013;" horiz-adv-x="587" d="M487 280 L98 280 L98 220 L487 220 L487 280 Z " />
<glyph glyph-name="emdash" unicode="&#x2014;" horiz-adv-x="667" d="M665 280 L2 280 L2 220 L665 220 L665 280 Z " />
<glyph glyph-name="afii00208" unicode="&#x2015;" horiz-adv-x="667" d="M665 280 L2 280 L2 220 L665 220 L665 280 Z " />
<glyph glyph-name="underscoredbl" unicode="&#x2017;" horiz-adv-x="500" d="M0 -56 L0 -105 L500 -105 L500 -56 L0 -56 Z M0 -173 L0 -222 L500 -222 L500 -173 L0 -173 Z " />
<glyph glyph-name="quoteleft" unicode="&#x2018;" horiz-adv-x="250" d="M75 451 L175 451 L175 550 L127 550 L175 667 L141 667 L75 550 L75 451 Z " />
<glyph glyph-name="quoteright" unicode="&#x2019;" horiz-adv-x="250" d="M175 667 L75 667 L75 568 L123 568 L75 451 L109 451 L175 568 L175 667 Z " />
<glyph glyph-name="quotesinglbase" unicode="&#x201a;" horiz-adv-x="250" d="M175 99 L75 99 L75 0 L123 0 L75 -117 L109 -117 L175 0 L175 99 Z " />
<glyph glyph-name="quotedblleft" unicode="&#x201c;" horiz-adv-x="401" d="M75 453 L171 453 L171 549 L131 549 L186 667 L151 667 L75 536 L75 453 Z M221 453 L319 453 L319 549 L279 549 L336 667 L300 667 L221 536 L221 453 Z " />
<glyph glyph-name="quotedblright" unicode="&#x201d;" horiz-adv-x="401" d="M331 667 L235 667 L235 571 L275 571 L220 453 L255 453 L331 584 L331 667 Z M185 667 L87 667 L87 571 L127 571 L70 453 L106 453 L185 584 L185 667 Z " />
<glyph glyph-name="quotedblbase" unicode="&#x201e;" horiz-adv-x="401" d="M331 96 L235 96 L235 0 L275 0 L220 -117 L255 -117 L331 13 L331 96 Z M185 96 L87 96 L87 0 L127 0 L70 -117 L106 -117 L185 13 L185 96 Z " />
<glyph glyph-name="dagger" unicode="&#x2020;" horiz-adv-x="587" d="M258 667 L258 472 L72 472 L72 406 L258 406 L258 -167 L329 -167 L329 406 L515 406 L515 472 L329 472 L329 667 L258 667 Z " />
<glyph glyph-name="daggerdbl" unicode="&#x2021;" horiz-adv-x="587" d="M258 667 L258 472 L72 472 L72 406 L258 406 L258 100 L72 100 L72 34 L258 34 L258 -167 L329 -167 L329 34 L515 34 L515 100 L329 100 L329 406 L515 406 L515 472 L329 472 L329 667 L258 667 Z " />
<glyph glyph-name="bullet" unicode="&#x2022;" horiz-adv-x="667" d="M335 479 C257 479 196 418 196 339 C196 262 258 200 334 200 C410 200 471 262 471 340 C471 416 410 479 335 479 L335 479 Z " />
<glyph glyph-name="ellipsis" unicode="&#x2026;" horiz-adv-x="745" d="M179 109 L70 109 L70 0 L179 0 L179 109 Z M427 109 L319 109 L319 0 L427 0 L427 109 Z M675 109 L566 109 L566 0 L675 0 L675 109 Z " />
<glyph glyph-name="perthousand" unicode="&#x2030;" horiz-adv-x="1061" d="M173 674 C91 674 37 605 37 501 C37 398 94 327 175 327 C255 327 312 399 312 499 C312 604 256 674 173 674 L173 674 Z M173 636 C227 636 259 583 259 494 C259 414 227 366 176 366 C121 366 89 416 89 503 C89 588 119 636 173 636 L173 636 Z M190 0 L593 667 L532 667 L128 0 L190 0 Z M546 340 C464 340 410 271 410 167 C410 64 466 -7 547 -7 C627 -7 684 65 684 165 C684 270 629 340 546 340 L546 340 Z M545 302 C600 302 632 250 632 160 C632 80 600 32 548 32 C493 32 461 82 461 169 C461 254 492 302 545 302 L545 302 Z M886 340 C804 340 750 271 750 167 C750 64 806 -7 887 -7 C967 -7 1024 65 1024 165 C1024 270 969 340 886 340 L886 340 Z M885 302 C939 302 971 249 971 160 C971 80 940 32 888 32 C834 32 802 82 802 169 C802 253 832 302 885 302 L885 302 Z " />
<glyph glyph-name="guilsinglleft" unicode="&#x2039;" horiz-adv-x="214" d="M124 117 L168 117 L116 260 L168 398 L124 398 L40 260 L124 117 Z " />
<glyph glyph-name="guilsinglright" unicode="&#x203a;" horiz-adv-x="214" d="M91 398 L47 398 L99 255 L47 117 L91 117 L175 255 L91 398 Z " />
<glyph glyph-name="uni203E" unicode="&#x203e;" horiz-adv-x="500" d="M0 864 L0 797 L500 797 L500 864 L0 864 Z " />
<glyph glyph-name="fraction" unicode="&#x2044;" horiz-adv-x="531" d="M94 0 L497 667 L437 667 L33 0 L94 0 Z " />
<glyph glyph-name="franc" unicode="&#x20a3;" horiz-adv-x="587" d="M164 0 L164 316 L400 316 L400 383 L164 383 L164 594 L489 594 L489 667 L84 667 L84 0 L164 0 Z M476 0 L477 169 C483 224 523 259 574 255 L580 255 L580 305 C567 306 561 306 557 306 C522 306 493 289 474 256 L470 248 L470 298 L417 298 L417 0 L476 0 Z " />
<glyph glyph-name="lira" unicode="&#x20a4;" horiz-adv-x="587" d="M76 240 L191 240 C192 232 192 222 192 217 C192 174 178 140 150 113 C118 83 90 74 22 73 L-2 72 L-2 0 L403 0 C480 1 546 42 576 108 L512 150 C483 94 441 73 353 73 L197 73 C247 110 274 168 276 240 L408 240 L408 297 L274 297 C272 317 271 322 269 347 L408 347 L408 404 L262 404 C257 446 255 473 255 497 C255 563 297 613 354 613 C391 613 415 597 455 547 L510 589 C463 653 415 680 350 680 C242 680 168 593 168 469 C168 449 169 432 173 404 L76 404 L76 347 L180 347 L185 297 L76 297 L76 240 Z " />
<glyph glyph-name="peseta" unicode="&#x20a7;" horiz-adv-x="967" d="M166 0 L166 271 L281 271 C403 271 489 353 489 468 C489 529 460 591 416 625 C381 653 332 667 272 667 L86 667 L86 0 L166 0 Z M166 340 L166 597 L282 597 C356 597 408 544 408 468 C408 391 355 340 276 340 L166 340 Z M648 39 C627 36 619 35 606 35 C576 35 562 48 562 76 L562 256 L631 256 L631 298 L562 298 L562 375 L507 371 L505 298 L450 298 L450 256 L505 256 L505 84 C505 23 537 -8 599 -8 C614 -8 619 -8 648 -4 L648 39 Z M668 81 C686 22 734 -8 811 -8 C889 -8 942 30 942 85 C942 134 910 163 844 174 L784 185 C754 190 741 201 741 222 C741 246 764 262 801 262 C840 262 861 249 876 215 L929 226 C914 279 871 306 802 306 C730 306 681 270 681 217 C681 173 713 143 769 133 L834 121 C865 116 881 102 881 80 C881 53 855 36 814 36 C762 36 734 54 724 92 L668 81 Z " />
<glyph glyph-name="Euro" unicode="&#x20ac;" horiz-adv-x="587" d="M182 410 C204 543 264 609 362 609 C423 609 459 587 499 524 L533 609 C474 664 435 680 363 680 C215 680 115 580 90 410 L42 410 L19 353 L86 353 L86 339 C86 322 86 305 88 290 L42 290 L19 232 L97 232 C103 200 114 168 129 138 C178 37 253 -13 354 -13 C419 -13 449 -3 498 31 L498 123 C459 77 418 58 361 58 C272 58 209 121 186 232 L382 232 L405 290 L178 290 C177 305 177 318 177 331 L177 353 L431 353 L454 410 L182 410 Z " />
<glyph glyph-name="afii61248" unicode="&#x2105;" horiz-adv-x="293" d="M147 385 C119 385 97 363 97 336 C97 308 119 286 147 286 C174 286 196 308 196 336 C196 363 174 385 147 385 L147 385 Z " />
<glyph glyph-name="afii61289" unicode="&#x2113;" horiz-adv-x="587" d="M207 188 C200 132 198 106 198 81 C198 22 223 -14 266 -14 C294 -14 319 2 342 34 C359 59 368 79 368 94 C368 103 363 108 355 108 C347 108 342 103 336 90 C320 54 303 36 286 36 C274 36 268 44 268 62 C268 94 276 147 300 269 C348 319 371 347 394 379 C445 454 475 535 475 601 C475 647 449 679 412 679 C332 679 272 550 216 258 C196 234 182 219 166 206 C152 194 146 186 146 179 C146 171 152 163 159 163 C169 163 180 172 209 201 L207 188 Z M311 333 C326 419 340 484 355 539 C373 609 389 636 413 636 C427 636 435 620 435 596 C435 516 391 422 311 333 L311 333 Z " />
<glyph glyph-name="afii61352" unicode="&#x2116;" horiz-adv-x="1000" d="M574 0 L574 667 L508 667 L508 218 C508 211 508 194 509 169 L510 123 L187 667 L83 667 L83 0 L150 0 L150 495 C150 511 149 531 148 581 L493 0 L574 0 Z M796 513 C707 513 645 446 645 350 C645 250 703 184 791 184 C881 184 945 251 945 346 C945 447 886 513 796 513 L796 513 Z M794 461 C845 461 875 419 875 348 C875 278 845 236 795 236 C744 236 715 277 715 350 C715 419 745 461 794 461 L794 461 Z M938 60 L649 60 L649 0 L938 0 L938 60 Z " />
<glyph glyph-name="trademark" unicode="&#x2122;" horiz-adv-x="777" d="M176 287 L176 619 L291 619 L291 667 L1 667 L1 619 L115 619 L115 287 L176 287 Z M733 287 L733 667 L650 667 L536 379 L420 667 L336 667 L336 287 L389 287 L389 589 L511 287 L553 287 L674 589 L674 287 L733 287 Z " />
<glyph glyph-name="uni2126" unicode="&#x2126;" horiz-adv-x="587" d="M23 0 L261 0 L261 73 C215 106 192 129 171 165 C140 214 123 286 123 363 C123 514 190 612 293 612 C396 612 463 514 463 363 C463 286 446 214 415 165 C394 129 371 106 325 73 L325 0 L563 0 L563 73 L411 73 C510 140 550 224 550 362 C550 452 531 522 490 578 C443 643 372 680 293 680 C214 680 143 643 96 578 C55 522 36 452 36 361 C36 224 73 140 162 73 L23 73 L23 0 Z " />
<glyph glyph-name="oneeighth" unicode="&#x215b;" horiz-adv-x="880" d="M322 310 L220 310 L220 675 L178 675 C145 636 107 606 50 577 L50 520 C94 543 125 566 163 603 L163 310 L53 310 L53 267 L322 267 L322 310 Z M249 0 L652 667 L591 667 L188 0 L249 0 Z M608 208 C547 184 516 149 516 105 C516 39 584 -8 680 -8 C776 -8 841 38 841 106 C841 138 825 169 799 187 C785 196 776 201 749 214 C797 231 824 264 824 305 C824 367 768 408 682 408 C595 408 536 365 536 303 C536 261 561 228 608 208 L608 208 Z M680 235 C628 247 595 275 595 306 C595 341 630 364 684 364 C738 364 772 342 772 306 C772 272 745 251 680 235 L680 235 Z M674 183 C750 164 784 138 784 101 C784 62 742 36 679 36 C616 36 574 62 574 103 C574 141 607 168 674 183 L674 183 Z " />
<glyph glyph-name="threeeighths" unicode="&#x215c;" horiz-adv-x="880" d="M120 452 L171 452 C239 452 279 425 279 378 C279 334 241 306 181 306 C119 306 90 325 72 378 L17 361 C44 293 98 259 178 259 C274 259 339 308 339 380 C339 430 311 462 255 477 C299 493 323 524 323 567 C323 629 265 675 185 675 C109 675 60 644 32 578 L85 564 C103 609 133 629 181 629 C230 629 264 602 264 563 C264 521 230 497 171 497 L120 497 L120 452 Z M273 0 L676 667 L615 667 L212 0 L273 0 Z M626 208 C564 184 533 149 533 105 C533 39 601 -8 697 -8 C793 -8 859 38 859 106 C859 138 843 169 816 187 C802 197 794 201 766 214 C814 231 841 264 841 305 C841 367 785 408 699 408 C612 408 553 365 553 303 C553 261 578 228 626 208 L626 208 Z M697 235 C645 247 612 275 612 306 C612 341 647 364 701 364 C755 364 789 342 789 306 C789 272 762 251 697 235 L697 235 Z M691 183 C768 164 802 138 802 101 C802 62 760 36 697 36 C633 36 591 62 591 103 C591 141 624 168 691 183 L691 183 Z " />
<glyph glyph-name="fiveeighths" unicode="&#x215d;" horiz-adv-x="880" d="M309 667 L58 667 L44 448 L90 438 C116 476 145 492 185 492 C241 492 279 454 279 400 C279 342 238 304 175 304 C126 304 95 326 75 374 L25 357 C46 294 101 258 175 258 C268 258 336 318 336 399 C336 478 273 539 190 539 C153 539 125 528 93 501 L101 618 L304 618 L309 667 Z M269 0 L672 667 L612 667 L208 0 L269 0 Z M625 208 C564 184 533 149 533 105 C533 39 601 -8 697 -8 C793 -8 858 38 858 106 C858 138 842 169 816 187 C802 197 793 201 766 214 C814 231 841 264 841 305 C841 367 785 408 699 408 C612 408 553 365 553 303 C553 261 578 228 625 208 L625 208 Z M697 235 C645 247 612 275 612 306 C612 341 647 364 701 364 C755 364 789 342 789 306 C789 272 762 252 697 235 L697 235 Z M691 183 C767 163 801 138 801 101 C801 62 759 36 696 36 C633 36 591 62 591 103 C591 141 624 168 691 183 L691 183 Z " />
<glyph glyph-name="seveneighths" unicode="&#x215e;" horiz-adv-x="880" d="M186 267 L186 283 C186 398 241 530 333 633 L333 667 L54 667 L48 617 L268 617 C185 528 126 389 126 282 L126 267 L186 267 Z M225 0 L628 667 L568 667 L164 0 L225 0 Z M618 208 C557 184 526 149 526 105 C526 39 594 -8 690 -8 C786 -8 851 38 851 106 C851 138 835 169 809 187 C795 197 786 201 759 214 C807 231 834 264 834 305 C834 367 778 408 692 408 C605 408 546 365 546 303 C546 261 571 228 618 208 L618 208 Z M690 235 C638 247 605 275 605 306 C605 341 640 364 694 364 C748 364 782 342 782 306 C782 272 755 252 690 235 L690 235 Z M684 183 C760 163 794 138 794 101 C794 62 752 36 689 36 C626 36 584 62 584 103 C584 141 617 168 684 183 L684 183 Z " />
<glyph glyph-name="partialdiff" unicode="&#x2202;" horiz-adv-x="587" d="M453 667 L132 667 L132 607 L294 475 C242 474 213 467 182 447 C114 406 80 334 80 234 C80 82 163 -13 296 -13 C426 -13 507 85 507 241 C507 334 481 401 425 455 C404 475 352 518 327 538 L236 607 L453 607 L453 667 Z M294 436 C376 436 423 366 423 244 C423 121 376 50 294 50 C254 50 217 70 196 103 C174 137 164 181 164 247 C164 366 212 436 294 436 L294 436 Z " />
<glyph glyph-name="Delta" unicode="&#x2206;" horiz-adv-x="587" d="M2 0 L581 0 L345 667 L233 667 L2 0 Z M99 73 L275 601 L285 601 L461 73 L99 73 Z " />
<glyph glyph-name="product" unicode="&#x220f;" horiz-adv-x="667" d="M20 750 L20 683 L99 683 L99 -183 L20 -183 L20 -250 L256 -250 L256 -183 L174 -183 L174 683 L492 683 L492 -183 L410 -183 L410 -250 L647 -250 L647 -183 L568 -183 L568 683 L647 683 L647 750 L20 750 Z " />
<glyph glyph-name="summation" unicode="&#x2211;" horiz-adv-x="667" d="M599 750 L28 750 L28 675 L276 270 L28 -174 L28 -250 L609 -250 L609 -23 L538 -23 L534 -183 L111 -183 L364 269 L112 683 L524 683 L531 523 L599 523 L599 750 Z " />
<glyph glyph-name="minus" unicode="&#x2212;" horiz-adv-x="587" d="M60 368 L60 300 L527 300 L527 368 L60 368 Z " />
<glyph glyph-name="uni2215" unicode="&#x2215;" horiz-adv-x="531" d="M94 0 L497 667 L437 667 L33 0 L94 0 Z " />
<glyph glyph-name="uni2218" unicode="&#x2218;" horiz-adv-x="500" d="M252 479 C174 479 113 418 113 339 C113 262 175 200 251 200 C327 200 388 262 388 340 C388 416 327 479 252 479 L252 479 Z M252 431 C300 431 341 389 341 340 C341 289 300 248 251 248 C201 248 160 289 160 339 C160 390 200 431 252 431 L252 431 Z " />
<glyph glyph-name="uni2219" unicode="&#x2219;" horiz-adv-x="109" d="M109 308 L0 308 L0 199 L109 199 L109 308 Z " />
<glyph glyph-name="radical" unicode="&#x221a;" horiz-adv-x="587" d="M667 827 L407 827 L208 99 L145 365 L0 365 L0 298 L84 298 L165 0 L257 0 L471 760 L667 760 L667 827 Z " />
<glyph glyph-name="infinity" unicode="&#x221e;" horiz-adv-x="667" d="M335 290 C383 218 434 186 498 186 C586 186 648 249 648 339 C648 429 586 493 498 493 C432 493 381 461 332 390 C283 460 231 493 169 493 C82 493 18 428 18 341 C18 250 80 186 168 186 C233 186 283 217 335 290 L335 290 Z M370 340 C411 401 445 426 487 426 C535 426 571 389 571 340 C571 290 536 253 488 253 C445 253 411 278 370 340 L370 340 Z M296 339 C254 278 221 253 179 253 C131 253 95 290 95 339 C95 389 130 426 178 426 C221 426 254 402 296 339 L296 339 Z " />
<glyph glyph-name="integral" unicode="&#x222b;" horiz-adv-x="587" d="M136 -240 C164 -248 185 -251 208 -251 C255 -251 295 -230 314 -196 C328 -168 331 -146 331 -49 L331 528 C331 623 332 626 334 640 C339 668 358 683 388 683 C403 683 413 681 433 673 L450 740 C418 748 403 750 381 750 C331 750 289 729 272 695 C257 665 255 646 255 549 L255 -62 C255 -130 253 -146 245 -161 C238 -175 218 -184 198 -184 C183 -184 172 -181 152 -173 L136 -240 Z " />
<glyph glyph-name="uni2243" unicode="&#x2243;" horiz-adv-x="587" d="M77 295 L77 227 L510 227 L510 295 L77 295 Z M97 344 C127 396 151 416 184 416 C205 416 238 406 272 390 C337 359 365 350 396 350 C423 350 458 364 478 383 C498 402 513 423 534 463 L489 490 C460 441 436 423 399 423 C376 423 349 431 302 454 C254 477 219 488 190 488 C131 488 92 455 53 372 L97 344 Z " />
<glyph glyph-name="approxequal" unicode="&#x2248;" horiz-adv-x="587" d="M97 344 C127 396 151 416 184 416 C205 416 238 406 272 390 C337 359 365 350 396 350 C423 350 458 364 478 383 C498 402 513 423 534 463 L489 490 C460 441 436 423 399 423 C376 423 349 431 302 454 C254 477 219 488 190 488 C131 488 92 455 53 372 L97 344 Z M97 176 C127 228 151 248 184 248 C205 248 238 238 272 222 C337 191 365 182 396 182 C423 182 458 196 478 215 C498 234 513 255 534 295 L489 322 C459 273 436 255 399 255 C376 255 349 264 302 286 C254 309 218 320 190 320 C131 320 92 287 53 204 L97 176 Z " />
<glyph glyph-name="notequal" unicode="&#x2260;" horiz-adv-x="587" d="M315 444 L77 444 L77 376 L285 376 L241 286 L77 286 L77 218 L210 218 L166 126 L217 105 L272 218 L510 218 L510 286 L303 286 L346 376 L510 376 L510 444 L377 444 L421 535 L370 556 L315 444 Z " />
<glyph glyph-name="lessequal" unicode="&#x2264;" horiz-adv-x="587" d="M500 608 L67 411 L67 346 L500 149 L500 220 L147 378 L500 537 L500 608 Z M500 120 L67 120 L67 52 L500 52 L500 120 Z " />
<glyph glyph-name="greaterequal" unicode="&#x2265;" horiz-adv-x="587" d="M87 149 L520 346 L520 411 L87 608 L87 537 L440 379 L87 220 L87 149 Z M87 52 L520 52 L520 120 L87 120 L87 52 Z " />
<glyph glyph-name="lozenge" unicode="&#x25ca;" horiz-adv-x="667" d="M334 693 L74 333 L334 -26 L593 333 L334 693 Z M334 604 L531 333 L334 63 L137 333 L334 604 Z " />
<glyph glyph-name="fi" unicode="&#xfb01;" horiz-adv-x="483" d="M281 493 L167 493 C167 552 168 562 175 579 C186 605 209 620 240 620 C253 620 263 619 281 614 L281 675 C258 679 247 680 233 680 C173 680 128 653 105 602 C94 576 91 559 90 493 L3 493 L3 433 L90 433 L90 0 L167 0 L167 433 L281 433 L281 493 Z M405 493 L328 493 L328 0 L405 0 L405 493 Z M408 667 L325 667 L325 582 L408 582 L408 667 Z " />
<glyph glyph-name="fl" unicode="&#xfb02;" horiz-adv-x="482" d="M281 493 L167 493 C167 547 167 551 172 571 C180 601 206 619 241 619 C253 619 262 618 281 614 L281 675 C262 679 252 680 236 680 C173 680 129 654 105 602 C94 576 91 559 90 493 L3 493 L3 433 L90 433 L90 0 L167 0 L167 433 L281 433 L281 493 Z M405 0 L405 667 L328 667 L328 0 L405 0 Z " />
</font>
</svg>
