<?xml version="1.0" standalone="no"?>
<!DOCTYPE svg PUBLIC "-//W3C//DTD SVG 1.1//EN" "http://www.w3.org/Graphics/SVG/1.1/DTD/svg11.dtd" >
<svg xmlns="http://www.w3.org/2000/svg">
<metadata>
Created by FontPrep 20130207 at Fri May 26 16:13:13 2017
 By Lizzy Knight
Copyright 2016 by URW++ Design &#38; Development GmbH
</metadata>
<defs>
<font id="7d428efbca16565880d188db91e9d39c" horiz-adv-x='1024' >
  <font-face 
    font-family="URWDINSemiCond-Demi"
    font-weight="600"
    font-stretch="normal"
    units-per-em="2048"
    panose-1="0 0 7 0 0 0 0 0 0 0"
    ascent="1462"
    descent="-586"
    x-height="1051"
    cap-height="1462"
    bbox="-180 -500 2359.01 2114"
    underline-thickness="163"
    underline-position="-125"
    unicode-range="U+0020-FB04"
  />
<missing-glyph horiz-adv-x="368" 
 />
    <glyph glyph-name="ff" unicode="ff" horiz-adv-x="1179" 
d="M727 862h-100v189h100v110q-2 176 65 241t242 60h109v-176h-58q-81 2 -103 -24t-21 -117v-94h190v-189h-190v-862h-234v862zM166 862h-109v189h109v110q-2 176 64 241q67 65 243 60h98v-176h-47q-80 2 -102 -24t-23 -117v-94h140v-189h-140v-862h-233v862z" />
    <glyph glyph-name="fi" unicode="fi" horiz-adv-x="1107" 
d="M745 0v1051h234v-1051h-234zM745 1221v252h234v-252h-234zM166 862h-109v189h109v110q-2 176 64 241q67 65 243 60h109v-176h-58q-80 2 -102 -24t-23 -117v-94h191v-189h-191v-862h-233v862z" />
    <glyph glyph-name="fl" unicode="fl" horiz-adv-x="1171" 
d="M743 1462h234v-1065q-2 -119 32 -161t126 -43h30v-193h-41q-233 0 -307 82t-74 338v1042zM166 862h-109v189h109v110q-2 176 64 241q67 65 243 60h109v-176h-58q-80 2 -102 -24t-23 -117v-94h191v-189h-191v-862h-233v862z" />
    <glyph glyph-name="ffi" unicode="ffi" horiz-adv-x="1671" 
d="M1307 0v1051h233v-1051h-233zM1307 1221v252h233v-252h-233zM727 862h-100v189h100v110q-2 176 65 241t242 60h109v-176h-58q-81 2 -103 -24t-21 -117v-94h190v-189h-190v-862h-234v862zM166 862h-109v189h109v110q-2 176 64 241q67 65 243 60h98v-176h-47
q-80 2 -102 -24t-23 -117v-94h140v-189h-140v-862h-233v862z" />
    <glyph glyph-name="ffl" unicode="ffl" horiz-adv-x="1732" 
d="M1305 1462h233v-1065q-2 -119 32 -161t124 -43h30v-193h-38q-233 2 -308 83q-74 81 -73 337v1042zM727 862h-100v189h100v110q-2 176 65 241t242 60h109v-176h-58q-81 2 -103 -24t-21 -117v-94h190v-189h-190v-862h-234v862zM166 862h-109v189h109v110q-2 176 64 241
q67 65 243 60h98v-176h-47q-80 2 -102 -24t-23 -117v-94h140v-189h-140v-862h-233v862z" />
    <glyph glyph-name=".notdef" horiz-adv-x="368" 
 />
    <glyph glyph-name=".null" horiz-adv-x="0" 
 />
    <glyph glyph-name="nonmarkingreturn" horiz-adv-x="681" 
 />
    <glyph glyph-name="space" unicode=" " horiz-adv-x="368" 
 />
    <glyph glyph-name="exclam" unicode="!" horiz-adv-x="598" 
d="M184 0v248h236v-248h-236zM205 410l-37 1052h264l-35 -1052h-192z" />
    <glyph glyph-name="quotedbl" unicode="&#x22;" horiz-adv-x="802" 
d="M477 883l-18 579h243l-18 -579h-207zM119 883l-19 579h244l-18 -579h-207z" />
    <glyph glyph-name="numbersign" unicode="#" horiz-adv-x="983" 
d="M399 596h160l25 213h-160zM205 596l26 213h-157l20 149h158l43 351h194l-45 -351h160l43 351h195l-45 -351h159l-20 -149h-158l-26 -213h157l-20 -152h-158l-45 -348h-192l45 348h-160l-45 -348h-195l45 348h-157l22 152h156z" />
    <glyph glyph-name="dollar" unicode="$" horiz-adv-x="983" 
d="M485 209q209 0 209 207q0 144 -110 186q-27 10 -158 49q-188 55 -270 151t-82 265q0 229 153 326q53 33 152 49v223h239v-231q209 -45 267 -281l-205 -59q-35 90 -78 126t-124 36t-126 -45q-45 -44 -45 -131t52 -138q51 -51 181 -89t177 -57t90 -55q121 -92 121 -305
q0 -350 -310 -411v-299h-239v294q-152 29 -233 108q-80 79 -111 224l207 62q29 -109 85 -157t158 -48z" />
    <glyph glyph-name="percent" unicode="%" horiz-adv-x="1699" 
d="M541 0l399 1462h217l-399 -1462h-217zM1436 309v146q0 98 -25 140t-84 42t-84 -42t-24 -140v-146q1 -98 25 -140t83 -42t84 42t25 140zM1016 309v146q0 176 71 252q72 75 240 75t240 -76t71 -251v-146q0 -176 -72 -252q-72 -75 -239 -75q-168 0 -240 75q-71 76 -71 252z
M479 1010v145q0 98 -24 140q-25 42 -83 42t-83 -42t-25 -140v-145q0 -98 25 -140t83 -43q58 0 83 42q24 43 24 141zM61 1010v147q0 174 72 250t239 76q166 0 238 -75t72 -251v-147q0 -176 -72 -252t-238 -76t-239 76q-72 76 -72 252z" />
    <glyph glyph-name="ampersand" unicode="&#x26;" horiz-adv-x="1398" 
d="M354 328q0 -188 187 -189q131 -1 237 93q29 26 37 32l-250 357q-80 -49 -121 -89q-90 -84 -90 -204zM655 1305q-139 0 -139 -163q0 -83 109 -239q96 61 133 113t37 127q0 76 -37 119t-103 43zM109 331q0 192 151 341q40 38 96 76t72 51q-143 201 -143 355t97 246
q97 93 268 93q172 0 274 -93t102 -253q0 -236 -272 -414l202 -291q59 111 93 252h227q-63 -254 -176 -434l194 -260h-280l-70 100q-184 -162 -442 -161q-188 0 -291 100q-102 100 -102 292z" />
    <glyph glyph-name="quotesingle" unicode="'" horiz-adv-x="444" 
d="M119 883l-19 579h244l-18 -579h-207z" />
    <glyph glyph-name="parenleft" unicode="(" horiz-adv-x="780" 
d="M209 706q0 278 76 507q76 230 239 458l166 -108q-125 -219 -180 -422t-55 -434t55 -435t180 -424l-166 -108q-164 228 -240 458t-75 508z" />
    <glyph glyph-name="parenright" unicode=")" horiz-adv-x="780" 
d="M90 1563l164 108q166 -229 242 -459t76 -506q0 -278 -76 -507q-74 -229 -242 -459l-164 108q125 223 180 424q56 202 56 434t-56 434q-55 202 -180 423z" />
    <glyph glyph-name="asterisk" unicode="*" horiz-adv-x="983" 
d="M492 1018l-148 -266l-184 118l182 250l-270 64l57 196l264 -98l-14 299h223l-12 -299l262 98l57 -196l-270 -64l182 -250l-184 -118z" />
    <glyph glyph-name="plus" unicode="+" horiz-adv-x="983" 
d="M80 639v186h311v344h201v-344h313v-186h-313v-342h-201v342h-311z" />
    <glyph glyph-name="comma" unicode="," horiz-adv-x="514" 
d="M68 -385l84 631h258l-131 -631h-211z" />
    <glyph glyph-name="hyphen" unicode="-" horiz-adv-x="813" 
d="M133 631v203h549v-203h-549z" />
    <glyph glyph-name="period" unicode="." horiz-adv-x="516" 
d="M135 0v248h246v-248h-246z" />
    <glyph glyph-name="slash" unicode="/" horiz-adv-x="708" 
d="M29 -43l422 1548h231l-424 -1548h-229z" />
    <glyph glyph-name="zero" unicode="0" horiz-adv-x="983" 
d="M649 520v422q0 186 -36 263q-37 77 -123 77t-122 -77t-36 -263v-422q0 -186 36 -263t123 -77t123 77t35 263zM90 500v465q0 266 86 383q102 135 324 135t319 -160q72 -113 72 -358v-465q0 -268 -86 -385q-103 -135 -325 -135t-318 159q-72 113 -72 361z" />
    <glyph glyph-name="one" unicode="1" horiz-adv-x="983" 
d="M393 0v1200l-200 -98l-84 192l368 168h162v-1462h-246z" />
    <glyph glyph-name="two" unicode="2" horiz-adv-x="983" 
d="M70 0v166l358 498q184 256 184 437t-139 181q-145 0 -162 -221l-227 8q12 213 108 313t285 100t285 -98t96 -274t-82 -326q-32 -61 -56 -97t-136 -189l-211 -295h485v-203h-788z" />
    <glyph glyph-name="three" unicode="3" horiz-adv-x="983" 
d="M465 1483q387 -1 387 -409q0 -208 -147 -302q96 -57 138 -141t42 -223q0 -428 -412 -428q-205 0 -308 97t-114 304l230 16q12 -217 180 -217q178 0 178 236q0 122 -55 190t-158 68h-115v192h101q194 0 194 208t-151 208q-72 0 -110 -45t-48 -145l-223 8q18 383 391 383z
" />
    <glyph glyph-name="four" unicode="4" horiz-adv-x="983" 
d="M578 0v260h-510v150l397 1052h254l-379 -1003h238v356h221v-356h116v-199h-116v-260h-221z" />
    <glyph glyph-name="five" unicode="5" horiz-adv-x="983" 
d="M840 1462v-202h-449l-24 -367q82 35 153 35q197 0 285 -123q74 -100 74 -346t-86 -353q-103 -126 -311 -126t-305 97t-107 304l229 16q8 -217 166 -217q168 0 168 277q0 154 -36 216t-129 62t-157 -88l-178 37l51 778h656z" />
    <glyph glyph-name="six" unicode="6" horiz-adv-x="983" 
d="M647 456q1 155 -33 218t-119 63t-120 -63t-35 -219t35 -217q35 -62 119 -62t118 62t35 218zM567 924q123 0 207 -72q61 -55 87 -144t26 -245t-22 -240q-64 -243 -381 -243q-205 0 -310 126q-76 96 -76 338q0 138 20 222t87 221l278 575h271l-277 -551h15l38 11q10 2 37 2
z" />
    <glyph glyph-name="seven" unicode="7" horiz-adv-x="983" 
d="M113 1260v202h729v-147l-385 -1315h-260l395 1260h-479z" />
    <glyph glyph-name="eight" unicode="8" horiz-adv-x="983" 
d="M494 672q-92 0 -130 -54t-38 -193q0 -138 36 -194q36 -55 130 -55t131 55t37 191t-38 194q-36 56 -128 56zM492 850q80 0 112 50t31 174q1 124 -31 174t-112 50t-112 -49t-32 -174t32 -175t112 -50zM862 1081q0 -117 -26 -187t-91 -120q84 -47 119 -129t35 -227
q0 -230 -96 -334t-311 -104t-312 103q-96 103 -96 335q0 145 35 226t119 130q-63 49 -91 119q-27 70 -26 186q0 209 89 306t282 97q194 0 282 -96q88 -98 88 -305z" />
    <glyph glyph-name="nine" unicode="9" horiz-adv-x="983" 
d="M643 1034q-1 136 -35 194t-118 58t-119 -57t-35 -197t35 -196q35 -58 119 -58t118 60q35 60 35 196zM410 596q-127 0 -207 70q-107 94 -107 360t100 361t304 95t307 -118q78 -92 78 -320q1 -130 -17 -204t-77 -199l-306 -641h-270l297 608q-70 -12 -102 -12z" />
    <glyph glyph-name="colon" unicode=":" horiz-adv-x="516" 
d="M135 803v248h246v-248h-246zM135 0v248h246v-248h-246z" />
    <glyph glyph-name="semicolon" unicode=";" horiz-adv-x="514" 
d="M160 803v248h246v-248h-246zM68 -385l84 631h258l-131 -631h-211z" />
    <glyph glyph-name="less" unicode="&#x3c;" horiz-adv-x="983" 
d="M352 741l471 -243v-215l-717 391v137l717 391v-215z" />
    <glyph glyph-name="equal" unicode="=" horiz-adv-x="983" 
d="M109 815v178h765v-178h-765zM109 471v180h765v-180h-765z" />
    <glyph glyph-name="greater" unicode="&#x3e;" horiz-adv-x="983" 
d="M631 741l-471 246v215l717 -391v-137l-717 -391v215z" />
    <glyph glyph-name="question" unicode="?" horiz-adv-x="1019" 
d="M383 0v248h235v-248h-235zM403 403v76q-2 125 30 197t118 162t111 139q24 49 24 128t-42 128t-120 49t-118 -55t-62 -189l-227 19q14 207 122 317q107 110 299 109t292 -99t102 -271q0 -173 -86 -288q-36 -47 -144 -155t-108 -217v-50h-191z" />
    <glyph glyph-name="at" unicode="@" horiz-adv-x="1669" 
d="M887 903q-83 0 -139 -126t-56 -262t76 -136q82 0 146 131t65 260q-1 63 -25 98t-67 35zM1116 449q0 -78 64 -78q96 -1 158 113t63 288q1 260 -143 410t-406 150t-419 -204q-157 -203 -157 -542q0 -340 148 -496t455 -156q215 0 428 95l55 -138q-236 -117 -490 -116
q-178 0 -330 49t-247 137q-211 195 -211 615t208 667q208 246 554 246t544 -195t197 -518q0 -248 -120 -406t-308 -157q-84 0 -129 37t-59 119q-59 -86 -113 -121t-129 -35q-111 0 -172 76t-61 213q0 231 112 407q102 152 260 152q70 0 110 -27t71 -96l22 100h143l-84 -473
q-14 -70 -14 -116z" />
    <glyph glyph-name="A" unicode="A" horiz-adv-x="1089" 
d="M727 494l-178 653l-178 -653h356zM778 295h-459l-79 -295h-267l463 1462h223l463 -1462h-264z" />
    <glyph glyph-name="B" unicode="B" horiz-adv-x="1140" 
d="M399 199h219q106 0 152 51q45 51 45 171t-44 173t-142 53h-230v-448zM399 846h207q94 0 139 50t45 160t-44 158t-144 50h-203v-418zM154 0v1462h462q123 0 193 -20t121 -70q106 -100 106 -311t-137 -297q88 -59 124 -142t36 -221q0 -223 -117 -323q-88 -78 -285 -78h-503
z" />
    <glyph glyph-name="C" unicode="C" horiz-adv-x="1103" 
d="M125 522v414q0 156 22 249q23 93 76 156q115 139 350 140q416 0 431 -420l-226 -8q-10 119 -58 173t-152 54t-151 -80q-46 -80 -46 -280v-381q0 -201 46 -280q47 -79 155 -79t160 58t61 182l227 -14q-8 -180 -78 -273q-113 -153 -369 -153t-368 163q-80 115 -80 379z" />
    <glyph glyph-name="D" unicode="D" horiz-adv-x="1187" 
d="M399 199h154q152 -3 208 69t58 264v400q-2 194 -58 264t-208 68h-154v-1065zM154 0v1462h419q258 4 378 -118t114 -381v-461q4 -262 -115 -384t-377 -118h-419z" />
    <glyph glyph-name="E" unicode="E" 
d="M154 0v1462h782v-202h-539v-420h455v-203h-455v-434h545v-203h-788z" />
    <glyph glyph-name="F" unicode="F" horiz-adv-x="970" 
d="M154 0v1462h770v-202h-525v-431h441v-202h-441v-627h-245z" />
    <glyph glyph-name="G" unicode="G" horiz-adv-x="1165" 
d="M371 920v-381q0 -201 49 -280t170 -79t174 73t53 230v121h-203v191h447v-260q1 -150 -19 -239t-69 -155q-117 -161 -383 -161t-381 163q-84 117 -84 379v414q0 289 102 407q119 137 359 138q422 0 436 -420l-225 -8q-16 227 -207 227q-121 0 -170 -80t-49 -280z" />
    <glyph glyph-name="H" unicode="H" horiz-adv-x="1202" 
d="M154 0v1462h245v-622h406v622h246v-1462h-246v637h-406v-637h-245z" />
    <glyph glyph-name="I" unicode="I" horiz-adv-x="552" 
d="M154 0v1462h245v-1462h-245z" />
    <glyph glyph-name="J" unicode="J" horiz-adv-x="839" 
d="M449 1462h245v-934q0 -172 -9 -248t-38 -133q-82 -168 -323 -167q-111 0 -197 36t-170 117l139 160q104 -113 206 -113t132 119q14 59 15 225v938z" />
    <glyph glyph-name="K" unicode="K" horiz-adv-x="1089" 
d="M156 0v1462h243v-635l416 635h277l-418 -600l440 -862h-276l-318 676l-121 -178v-498h-243z" />
    <glyph glyph-name="L" unicode="L" horiz-adv-x="964" 
d="M154 0v1462h245v-1259h545v-203h-790z" />
    <glyph glyph-name="M" unicode="M" horiz-adv-x="1443" 
d="M154 0v1462h231l338 -841l338 841h231v-1462h-235v956l-256 -647h-156l-256 647v-956h-235z" />
    <glyph glyph-name="N" unicode="N" horiz-adv-x="1263" 
d="M154 0v1462h241l482 -1007v1007h233v-1462h-233l-488 1012v-1012h-235z" />
    <glyph glyph-name="O" unicode="O" horiz-adv-x="1187" 
d="M817 524v414q0 188 -50 266t-173 78t-173 -78t-50 -266v-414q0 -188 50 -266t173 -78t173 78t50 266zM125 502v459q0 260 98 380q117 141 381 141t379 -165q80 -115 80 -356v-459q0 -260 -98 -381q-119 -141 -381 -141t-379 163q-80 117 -80 359z" />
    <glyph glyph-name="P" unicode="P" horiz-adv-x="1071" 
d="M395 737h166q113 -1 162 61t49 208t-57 208q-47 49 -154 50h-166v-527zM399 537v-537h-245v1462h407q139 0 220 -26q235 -78 235 -446q0 -240 -108 -346q-108 -107 -347 -107h-162z" />
    <glyph glyph-name="Q" unicode="Q" horiz-adv-x="1187" 
d="M817 524v414q0 188 -50 266t-173 78t-173 -78t-50 -266v-414q0 -188 50 -266t173 -78q76 0 123 29l-191 168l127 133l156 -135q8 55 8 149zM125 502v459q0 260 98 380q117 141 381 141t379 -165q80 -115 80 -356v-459q0 -184 -51 -305l129 -111l-127 -135l-119 104
q-106 -76 -299 -75q-274 0 -391 163q-80 117 -80 359z" />
    <glyph glyph-name="R" unicode="R" horiz-adv-x="1138" 
d="M397 799h181q114 0 162 54t48 178t-49 178t-164 55h-178v-465zM401 606v-606h-245v1462h438q133 0 211 -24t131 -80q98 -100 98 -300t-54 -295t-181 -136l276 -627h-272l-244 606h-158z" />
    <glyph glyph-name="S" unicode="S" horiz-adv-x="1028" 
d="M496 178q227 0 227 223q0 109 -57 156q-31 27 -59 37t-158 49q-195 57 -278 155t-83 282q0 186 111 294t298 109q187 0 283 -77t135 -247l-206 -59q-35 104 -77 144t-127 40t-133 -53t-48 -149t53 -149q53 -52 186 -91q133 -38 179 -58t94 -55q122 -96 122 -314
q-1 -438 -460 -438q-262 0 -373 142q-53 62 -88 207l211 61q29 -113 86 -161t162 -48z" />
    <glyph glyph-name="T" unicode="T" horiz-adv-x="950" 
d="M354 0v1260h-327v202h899v-202h-326v-1260h-246z" />
    <glyph glyph-name="U" unicode="U" horiz-adv-x="1210" 
d="M147 1462h246v-970q0 -180 45 -246t167 -66t167 66t45 246v970h246v-970q0 -148 -16 -224t-60 -135q-117 -153 -393 -153t-387 176q-59 96 -60 336v970z" />
    <glyph glyph-name="V" unicode="V" horiz-adv-x="1073" 
d="M430 0l-422 1462h246l285 -1097l282 1097h246l-422 -1462h-215z" />
    <glyph glyph-name="W" unicode="W" horiz-adv-x="1634" 
d="M348 0l-307 1462h246l184 -1073l252 1073h188l252 -1073l185 1073h245l-307 -1462h-219l-250 1026l-250 -1026h-219z" />
    <glyph glyph-name="X" unicode="X" horiz-adv-x="1040" 
d="M381 774l-350 688h268l248 -495l217 495h256l-352 -725l374 -737h-268l-272 545l-240 -545h-258z" />
    <glyph glyph-name="Y" unicode="Y" horiz-adv-x="968" 
d="M365 0v520l-396 942h258l260 -671l261 671h260l-398 -942v-520h-245z" />
    <glyph glyph-name="Z" unicode="Z" horiz-adv-x="970" 
d="M70 0v150l534 1110h-498v202h771v-149l-535 -1110h559v-203h-831z" />
    <glyph glyph-name="bracketleft" unicode="[" horiz-adv-x="780" 
d="M254 -201v1813h410v-172h-175v-1469h175v-172h-410z" />
    <glyph glyph-name="backslash" unicode="\" horiz-adv-x="708" 
d="M680 -43h-231l-422 1548h229z" />
    <glyph glyph-name="bracketright" unicode="]" horiz-adv-x="780" 
d="M526 1612v-1813h-407v172h172v1469h-172v172h407z" />
    <glyph glyph-name="asciicircum" unicode="^" horiz-adv-x="983" 
d="M489 1190l-182 -420h-268l383 703h137l383 -703h-268z" />
    <glyph glyph-name="underscore" unicode="_" horiz-adv-x="829" 
d="M-43 -371v164h917v-164h-917z" />
    <glyph glyph-name="grave" unicode="`" 
d="M641 1188h-174l-234 309h263z" />
    <glyph glyph-name="a" unicode="a" horiz-adv-x="956" 
d="M604 469h-131q-96 0 -136 -37t-40 -122q0 -86 34 -116t122 -30q87 0 119 36t32 136v133zM604 631v47q0 113 -33 159t-105 46t-108 -30t-55 -103l-199 59q70 264 363 264q242 0 326 -155q45 -88 45 -271v-647h-183l-14 63q-45 -47 -99 -65t-147 -18q-176 0 -251 74
q-74 74 -74 253q0 180 77 252q78 72 279 72h178z" />
    <glyph glyph-name="b" unicode="b" horiz-adv-x="1009" 
d="M672 432v203q0 244 -152 244q-160 0 -160 -254v-199q0 -252 160 -252q78 0 115 62t37 196zM127 0v1462h233v-461q92 72 209 72q174 0 255 -104t81 -332v-201q0 -242 -81 -350t-261 -106q-84 0 -134 19t-107 73l-15 -72h-180z" />
    <glyph glyph-name="c" unicode="c" horiz-adv-x="880" 
d="M338 424q0 -254 148 -254q72 0 106 30q35 30 51 101l201 -41q-27 -145 -115 -213q-87 -67 -265 -67t-268 112t-92 352v158q0 246 92 359t293 112q152 0 231 -61t111 -207l-198 -60q-18 74 -51 106q-32 32 -102 32q-142 0 -142 -262v-197z" />
    <glyph glyph-name="d" unicode="d" horiz-adv-x="1009" 
d="M338 635v-201q0 -135 37 -197t114 -63q160 0 160 252v199q0 254 -160 254q-151 0 -151 -244zM104 436v201q0 227 80 331t254 105q125 0 211 -72v461h234v-1462h-181l-14 72q-93 -93 -239 -92q-182 0 -264 107q-81 108 -81 349z" />
    <glyph glyph-name="e" unicode="e" horiz-adv-x="985" 
d="M338 639h332v35q0 217 -166 217t-166 -217v-35zM338 471v-63q0 -124 43 -182t135 -58q131 0 166 135l197 -43q-29 -150 -117 -216t-280 -64q-192 0 -284 112q-93 112 -94 365v133q0 254 92 368t302 115q209 0 301 -114t92 -369v-119h-553z" />
    <glyph glyph-name="f" unicode="f" horiz-adv-x="618" 
d="M166 862h-109v189h109v110q-2 176 64 241q67 65 243 60h109v-176h-58q-80 2 -102 -24t-23 -117v-94h191v-189h-191v-862h-233v862z" />
    <glyph glyph-name="g" unicode="g" horiz-adv-x="1011" 
d="M338 635v-199q0 -137 37 -199t117 -63q160 0 159 252v199q0 254 -159 254q-80 -1 -117 -59t-37 -185zM651 -33v78q-86 -66 -211 -65q-176 0 -256 110t-80 348v199q0 227 80 331t242 105q162 0 256 -96l23 74h180v-1055q-1 -248 -99 -363t-307 -114q-153 0 -235 60
t-115 200l197 49q22 -72 54 -98t95 -27q94 1 135 63t41 201z" />
    <glyph glyph-name="h" unicode="h" horiz-adv-x="1015" 
d="M127 0v1462h233v-458q86 70 213 69q225 0 293 -178q31 -76 31 -256v-639h-233v614q0 138 -34 198t-116 60t-118 -64t-36 -216v-592h-233z" />
    <glyph glyph-name="i" unicode="i" horiz-adv-x="493" 
d="M129 0v1051h233v-1051h-233zM129 1221v252h233v-252h-233z" />
    <glyph glyph-name="j" unicode="j" horiz-adv-x="503" 
d="M139 1221v252h234v-252h-234zM139 1051h234v-1033q4 -291 -86 -391t-355 -98v192q117 -3 163 57t44 216v1057z" />
    <glyph glyph-name="k" unicode="k" horiz-adv-x="952" 
d="M131 0v1462h234v-889l321 478h256l-319 -443l331 -608h-254l-219 436l-116 -166v-270h-234z" />
    <glyph glyph-name="l" unicode="l" horiz-adv-x="555" 
d="M127 1462h233v-1065q-2 -119 32 -161t126 -43h31v-193h-41q-233 0 -307 82t-74 338v1042z" />
    <glyph glyph-name="m" unicode="m" horiz-adv-x="1497" 
d="M127 0v1051h176l16 -86q82 109 246 109t244 -126q82 125 250 125q221 0 291 -178q29 -80 28 -256v-639h-233v610q0 142 -31 202q-30 60 -106 60t-108 -64t-32 -214v-594h-233v608q0 148 -30 206q-29 58 -105 58t-108 -66t-32 -220v-586h-233z" />
    <glyph glyph-name="n" unicode="n" horiz-adv-x="1015" 
d="M127 0v1051h176l19 -88q49 61 104 86t143 24q227 0 297 -178q31 -76 31 -256v-639h-233v610q0 142 -33 202t-117 60t-119 -64t-35 -224v-584h-233z" />
    <glyph glyph-name="o" unicode="o" horiz-adv-x="1001" 
d="M662 422v207q0 137 -37 195t-125 58t-125 -58t-37 -195v-207q0 -136 37 -194t125 -58t125 58t37 194zM104 422v207q0 236 94 340t302 104q209 0 302 -104t93 -340v-207q0 -234 -93 -338t-302 -104q-208 0 -302 104t-94 338z" />
    <glyph glyph-name="p" unicode="p" horiz-adv-x="1009" 
d="M672 432v203q0 244 -152 244q-160 0 -160 -254v-199q0 -252 160 -252q78 0 115 62t37 196zM127 -461v1512h180l23 -72q96 94 254 94t240 -103q81 -103 81 -333v-201q0 -242 -81 -350t-261 -106q-113 0 -203 61v-502h-233z" />
    <glyph glyph-name="q" unicode="q" horiz-adv-x="1009" 
d="M338 635v-201q0 -135 37 -197t114 -63q160 0 160 252v199q0 254 -160 254q-151 0 -151 -244zM649 -461v502q-88 -61 -203 -61q-180 0 -261 108t-81 348v201q0 227 81 331t241 105q160 0 252 -94l24 72h181v-1512h-234z" />
    <glyph glyph-name="r" unicode="r" horiz-adv-x="704" 
d="M127 0v1051h178l29 -82q76 104 196 104q90 0 191 -63l-100 -195q-69 55 -133 55t-96 -84t-32 -276v-510h-233z" />
    <glyph glyph-name="s" unicode="s" horiz-adv-x="882" 
d="M428 168q172 0 172 137q0 72 -49 98q-27 16 -148 41q-172 31 -237 93q-80 69 -80 221t89 234t275 81q186 0 273 -112q37 -49 63 -152l-194 -49q-16 66 -52 96t-101 29q-65 0 -99 -33t-35 -91q0 -58 36 -87t126 -45q199 -37 266 -90q86 -68 86 -238q0 -322 -393 -321
q-174 0 -265 65t-122 215l201 43q20 -75 62 -105t126 -30z" />
    <glyph glyph-name="t" unicode="t" horiz-adv-x="626" 
d="M156 862h-107v189h107l14 309h219v-309h182v-189h-182v-485q-2 -107 30 -147t116 -37h34v-193h-49q-227 0 -297 76t-67 323v463z" />
    <glyph glyph-name="u" unicode="u" horiz-adv-x="995" 
d="M121 1051h233v-611q0 -143 31 -201q31 -59 107 -59t110 65q33 65 33 222v584h233v-1051h-168l-22 92q-47 -63 -99 -88t-139 -24q-221 0 -290 178q-29 74 -29 254v639z" />
    <glyph glyph-name="v" unicode="v" horiz-adv-x="901" 
d="M338 0l-311 1051h237l187 -746l186 746h235l-311 -1051h-223z" />
    <glyph glyph-name="w" unicode="w" horiz-adv-x="1380" 
d="M309 0l-264 1051h238l141 -723l182 723h166l184 -723l142 723h235l-262 -1051h-201l-180 674l-182 -674h-199z" />
    <glyph glyph-name="x" unicode="x" horiz-adv-x="860" 
d="M299 539l-276 512h258l168 -320l157 320h252l-297 -519l291 -532h-260l-178 338l-162 -338h-254z" />
    <glyph glyph-name="y" unicode="y" horiz-adv-x="903" 
d="M86 -279q110 0 148 32t73 157l27 96l-309 1045h235l193 -764l182 764h237l-325 -1160q-47 -161 -94 -233t-127 -100t-240 -29v192z" />
    <glyph glyph-name="z" unicode="z" horiz-adv-x="827" 
d="M51 0v141l406 717h-369v193h647v-144l-405 -714h432v-193h-711z" />
    <glyph glyph-name="braceleft" unicode="{" horiz-adv-x="780" 
d="M489 1163v-114q2 -160 -16 -216t-88 -96q70 -35 89 -93t15 -218v-178q0 -178 27 -234t113 -55h41v-160h-95q-203 0 -266 80t-57 332v225q2 144 -20 186t-101 46h-14v141h14q79 2 101 44t20 185v162q-6 252 57 332t266 80h95v-160h-41q-86 0 -113 -56t-27 -233z" />
    <glyph glyph-name="bar" unicode="|" horiz-adv-x="983" 
d="M391 -201v1813h203v-1813h-203z" />
    <glyph glyph-name="braceright" unicode="}" horiz-adv-x="780" 
d="M291 248v178q-4 162 15 219t89 92q-70 39 -89 94t-15 218v114q0 177 -27 233t-114 56h-41v160h96q203 2 266 -80t57 -332v-162q-2 -143 20 -185t99 -44h15v-141h-15q-77 -4 -99 -46t-20 -186v-225q6 -250 -57 -331t-266 -81h-96v160h41q88 -1 114 55t27 234z" />
    <glyph glyph-name="asciitilde" unicode="~" horiz-adv-x="983" 
d="M340 893q49 0 80 -12q30 -12 110 -71t123 -58q68 0 113 131l133 -41q-41 -138 -103 -202t-157 -65q-47 -1 -82 17t-107 72t-116 53q-70 0 -111 -139l-137 32q33 150 93 216t161 67z" />
    <glyph glyph-name="uni00A0" unicode="&#xa0;" horiz-adv-x="368" 
 />
    <glyph glyph-name="exclamdown" unicode="&#xa1;" horiz-adv-x="598" 
d="M418 1044v-247h-236v247h236zM395 635l37 -1053h-264l37 1053h190z" />
    <glyph glyph-name="cent" unicode="&#xa2;" horiz-adv-x="983" 
d="M414 55v236q-139 29 -206 139t-65 309v158q-2 207 63 315t208 140v225h239v-231q95 -25 145 -83t74 -171l-188 -50q-18 76 -53 108t-110 32t-113 -62t-37 -205v-196q0 -133 40 -195t126 -63q127 0 157 141l191 -47q-25 -119 -77 -177t-155 -83v-240h-239z" />
    <glyph glyph-name="sterling" unicode="&#xa3;" horiz-adv-x="983" 
d="M92 0v174q96 31 151 110q54 79 54 189q0 59 -18 123h-191v203h111q-72 156 -72 288q0 193 99 294q100 101 284 101t284 -94q100 -95 126 -294l-213 -43q-17 125 -61 180t-124 55q-152 0 -151 -196q0 -111 90 -291h297v-203h-244q12 -59 12 -104q0 -180 -108 -289h528
v-203h-854z" />
    <glyph glyph-name="currency" unicode="&#xa4;" horiz-adv-x="983" 
d="M702 682q0 120 -56 192t-153 72t-154 -70q-56 -71 -56 -194t56 -194q55 -70 153 -70t154 72t56 192zM88 678q0 139 70 256l-150 166l119 108l143 -159q96 65 220 65t225 -65l143 159l117 -108l-150 -166q70 -111 70 -252t-70 -254l150 -166l-117 -108l-143 159
q-102 -65 -224 -65t-221 65l-143 -159l-119 108l150 166q-70 111 -70 250z" />
    <glyph glyph-name="yen" unicode="&#xa5;" horiz-adv-x="983" 
d="M373 0v291h-260v135h260v113h-260v135h202l-333 788h260l254 -674l254 674h260l-334 -788h201v-135h-259v-113h259v-135h-259v-291h-245z" />
    <glyph glyph-name="brokenbar" unicode="&#xa6;" horiz-adv-x="882" 
d="M328 0v537h225v-537h-225zM328 899v563h225v-563h-225z" />
    <glyph glyph-name="section" unicode="&#xa7;" horiz-adv-x="983" 
d="M311 666q0 -78 39 -115t166 -88l80 -33l10 12l21 21q47 45 47 118t-40 113t-163 88l-80 31q-6 -4 -10 -8l-21 -19q-49 -42 -49 -120zM897 635q0 -83 -36 -147t-120 -130q63 -45 90 -97t27 -134q0 -176 -100 -268t-282 -92q-182 1 -275 65q-94 64 -135 205l198 57
q10 -14 10 -20q35 -66 72 -90t112 -25q75 0 120 36t45 98q0 99 -95 139q-33 15 -125 47q-175 57 -245 130t-70 178t36 170t122 130q-61 47 -87 103t-26 147q0 168 93 257t279 89t277 -109q39 -47 64 -141l-199 -55q-42 112 -143 112q-64 0 -100 -35t-36 -101t40 -99
q36 -37 198 -93t219 -122q72 -78 72 -205z" />
    <glyph glyph-name="dieresis" unicode="&#xa8;" 
d="M588 1198v246h207v-246h-207zM229 1198v246h207v-246h-207z" />
    <glyph glyph-name="copyright" unicode="&#xa9;" horiz-adv-x="1644" 
d="M825 1339q-249 0 -409 -170t-160 -437t160 -438t408 -171t408 171q161 171 161 435t-160 437t-408 173zM824 -35q-324 0 -538 217t-214 550t215 549t539 216t537 -219q212 -219 212 -549t-213 -547t-538 -217zM543 778q0 168 66 242q67 74 212 74t211 -52t68 -165
l-166 -5q-12 88 -100 89q-59 0 -84 -37t-25 -127v-131q0 -90 25 -127t84 -37q96 0 110 90l168 -8q-6 -102 -53 -148q-72 -68 -228 -68q-157 0 -223 74t-65 242v94z" />
    <glyph glyph-name="ordfeminine" unicode="&#xaa;" horiz-adv-x="630" 
d="M387 1083h-80q-53 0 -77 -20q-24 -21 -24 -71t20 -70q19 -20 67 -21q94 0 94 86v96zM377 1190v47q-1 59 -19 85t-71 26t-82 -66l-133 43q57 150 232 150t226 -97q25 -49 25 -164v-423h-141l-6 38q-53 -51 -161 -51t-157 47t-49 159t58 159t204 47h74z" />
    <glyph glyph-name="guillemotleft" unicode="&#xab;" horiz-adv-x="870" 
d="M291 604l149 -258l-145 -98l-254 356l254 357l145 -99zM678 604l149 -258l-145 -98l-254 356l254 357l145 -99z" />
    <glyph glyph-name="logicalnot" unicode="&#xac;" horiz-adv-x="983" 
d="M96 639v186h744v-583h-224v397h-520z" />
    <glyph glyph-name="uni00AD" unicode="&#xad;" horiz-adv-x="813" 
d="M133 631v203h549v-203h-549z" />
    <glyph glyph-name="registered" unicode="&#xae;" horiz-adv-x="1355" 
d="M676 1645q-196 0 -317 -130q-119 -130 -119 -328t120 -329t319 -131q201 0 319 130t118 330t-122 329t-318 129zM680 1788q260 0 430 -173t170 -431t-171 -429t-431 -171t-431 171t-171 432t172 431t432 170zM610 1204h84q78 0 78 81t-80 81h-82v-162zM614 1118v-217
h-153v569h246q117 0 167 -40t50 -132q0 -129 -95 -163l121 -234h-164l-100 217h-72z" />
    <glyph glyph-name="macron" unicode="&#xaf;" 
d="M240 1245v168h546v-168h-546z" />
    <glyph glyph-name="degree" unicode="&#xb0;" horiz-adv-x="768" 
d="M537 1200q0 174 -152 174t-152 -174t152 -174t152 174zM386 1528q161 0 251 -87t90 -242t-90 -241t-252 -86t-252 86t-90 242t91 242t252 86z" />
    <glyph glyph-name="plusminus" unicode="&#xb1;" horiz-adv-x="983" 
d="M80 25v186h825v-186h-825zM80 659v187h311v336h201v-336h313v-187h-313v-333h-201v333h-311z" />
    <glyph glyph-name="twosuperior" unicode="&#xb2;" horiz-adv-x="663" 
d="M51 791v122l230 289q113 144 113 238t-81 94q-80 0 -90 -129l-174 8q1 268 269 268t268 -241q0 -92 -30 -152t-144 -205l-111 -143h281v-149h-531z" />
    <glyph glyph-name="threesuperior" unicode="&#xb3;" horiz-adv-x="663" 
d="M203 1186v129h82q53 1 83 29t30 79q-1 107 -87 107q-80 0 -92 -103l-170 9q7 127 71 184t199 57q264 0 265 -239q0 -131 -80 -185q53 -35 76 -84t22 -129q0 -262 -280 -262q-186 0 -252 107q-29 49 -35 145l174 12q8 -117 104 -116q102 0 103 116q0 68 -32 106t-89 38
h-92z" />
    <glyph glyph-name="acute" unicode="&#xb4;" 
d="M385 1188l145 309h263l-234 -309h-174z" />
    <glyph glyph-name="mu" unicode="&#xb5;" horiz-adv-x="983" 
d="M123 1044h225v-593q0 -152 32 -214q32 -63 110 -63t113 70q34 70 34 233v567h225v-1044h-151l-31 111q-35 -72 -81 -103t-124 -31t-127 48v-486h-225v1505z" />
    <glyph glyph-name="paragraph" unicode="&#xb6;" horiz-adv-x="1202" 
d="M393 -279v955h-39q-128 0 -200 47t-114 140t-42 212t45 213t125 135q49 27 96 33t195 6h549v-1741h-220v1549h-176v-1549h-219z" />
    <glyph glyph-name="periodcentered" unicode="&#xb7;" horiz-adv-x="516" 
d="M135 608v248h246v-248h-246z" />
    <glyph glyph-name="cedilla" unicode="&#xb8;" 
d="M365 -477l88 344h223l-154 -344h-157z" />
    <glyph glyph-name="onesuperior" unicode="&#xb9;" horiz-adv-x="575" 
d="M225 791v694l-125 -53l-53 127l240 108h127v-876h-189z" />
    <glyph glyph-name="ordmasculine" unicode="&#xba;" horiz-adv-x="643" 
d="M414 1055v143q0 139 -92 139t-93 -139v-143q0 -139 93 -140q92 1 92 140zM53 1055v143q1 147 63 212t206 65t205 -65q62 -65 63 -212v-143q0 -147 -62 -212t-206 -65q-143 0 -206 65t-63 212z" />
    <glyph glyph-name="guillemotright" unicode="&#xbb;" horiz-adv-x="870" 
d="M578 604l-148 258l143 99l256 -357l-256 -356l-143 98zM193 604l-150 258l143 99l256 -357l-256 -356l-143 98z" />
    <glyph glyph-name="onequarter" unicode="&#xbc;" horiz-adv-x="1654" 
d="M453 0l399 1462h217l-399 -1462h-217zM1280 0v150h-342v110l254 617h192l-239 -582h135v180h162v-180h74v-148h-74v-147h-162zM272 586v688l-129 -53l-59 139l248 102h129v-876h-189z" />
    <glyph glyph-name="onehalf" unicode="&#xbd;" horiz-adv-x="1654" 
d="M426 0l399 1462h215l-397 -1462h-217zM979 0v123l227 289q115 143 115 236t-80 93t-92 -127l-174 7q9 141 73 204t201 64q264 0 264 -242q1 -92 -29 -152t-145 -202l-112 -143h282v-150h-530zM256 586v688l-129 -53l-59 139l247 102h129v-876h-188z" />
    <glyph glyph-name="threequarters" unicode="&#xbe;" horiz-adv-x="1654" 
d="M539 0l399 1462h215l-397 -1462h-217zM1337 0v150h-342v110l254 617h193l-240 -582h135v180h162v-180h74v-148h-74v-147h-162zM215 981v129h82q113 0 113 113q0 49 -23 77t-63 27q-80 0 -93 -104l-170 8q7 129 71 186t200 58q264 0 264 -242q0 -131 -80 -184
q53 -35 76 -84t22 -129q0 -262 -280 -263q-186 0 -252 107q-29 49 -35 145l174 13q8 -117 105 -117q102 0 102 117q0 68 -32 106t-89 37h-92z" />
    <glyph glyph-name="questiondown" unicode="&#xbf;" horiz-adv-x="1019" 
d="M655 1044v-247h-235v247h235zM635 641v-76q2 -127 -29 -199t-131 -171q-75 -78 -99 -128t-24 -128t42 -127q42 -50 119 -50t119 56t62 188l228 -18q-35 -426 -418 -426q-195 0 -296 98q-102 98 -102 272t87 287q43 57 147 160t104 213v49h191z" />
    <glyph glyph-name="Agrave" unicode="&#xc0;" horiz-adv-x="1089" 
d="M653 1602h-174l-233 307h262zM727 494l-178 653l-178 -653h356zM778 295h-459l-79 -295h-267l463 1462h223l463 -1462h-264z" />
    <glyph glyph-name="Aacute" unicode="&#xc1;" horiz-adv-x="1089" 
d="M440 1602l146 307h262l-234 -307h-174zM727 494l-178 653l-178 -653h356zM778 295h-459l-79 -295h-267l463 1462h223l463 -1462h-264z" />
    <glyph glyph-name="Acircumflex" unicode="&#xc2;" horiz-adv-x="1089" 
d="M545 1767l-101 -159h-221l238 297h168l239 -297h-221zM727 494l-178 653l-178 -653h356zM778 295h-459l-79 -295h-267l463 1462h223l463 -1462h-264z" />
    <glyph glyph-name="Atilde" unicode="&#xc3;" horiz-adv-x="1089" 
d="M664 1772q45 0 59 110h141q-12 -109 -35 -168q-47 -111 -163 -110q-84 0 -144 62t-82 63q-55 0 -69 -111h-142q20 117 45 166q51 113 164 112q76 0 138 -62t88 -62zM727 494l-178 653l-178 -653h356zM778 295h-459l-79 -295h-267l463 1462h223l463 -1462h-264z" />
    <glyph glyph-name="Adieresis" unicode="&#xc4;" horiz-adv-x="1089" 
d="M627 1612v246h207v-246h-207zM260 1612v246h207v-246h-207zM727 494l-178 653l-178 -653h356zM778 295h-459l-79 -295h-267l463 1462h223l463 -1462h-264z" />
    <glyph glyph-name="Aring" unicode="&#xc5;" horiz-adv-x="1089" 
d="M637 1806q0 112 -90 113q-90 0 -90 -113t90 -112q90 0 90 112zM546 2032q106 0 172 -62q64 -62 64 -162t-66 -163t-169 -63q-104 0 -170 62q-66 64 -66 165q1 101 65 162t170 61zM727 494l-178 653l-178 -653h356zM778 295h-459l-79 -295h-267l463 1462h223l463 -1462
h-264z" />
    <glyph glyph-name="AE" unicode="&#xc6;" horiz-adv-x="1689" 
d="M821 520v740h-22l-367 -740h389zM821 322h-485l-160 -322h-282l786 1462h922v-202h-539v-420h457v-203h-457v-434h547v-203h-789v322z" />
    <glyph glyph-name="Ccedilla" unicode="&#xc7;" horiz-adv-x="1103" 
d="M387 -477l88 344h223l-153 -344h-158zM125 522v414q0 156 22 249q23 93 76 156q115 139 350 140q416 0 431 -420l-226 -8q-10 119 -58 173t-152 54t-151 -80q-46 -80 -46 -280v-381q0 -201 46 -280q47 -79 155 -79t160 58t61 182l227 -14q-8 -180 -78 -273
q-113 -153 -369 -153t-368 163q-80 115 -80 379z" />
    <glyph glyph-name="Egrave" unicode="&#xc8;" 
d="M684 1602h-174l-234 307h263zM154 0v1462h782v-202h-539v-420h455v-203h-455v-434h545v-203h-788z" />
    <glyph glyph-name="Eacute" unicode="&#xc9;" 
d="M430 1602l145 307h263l-234 -307h-174zM154 0v1462h782v-202h-539v-420h455v-203h-455v-434h545v-203h-788z" />
    <glyph glyph-name="Ecircumflex" unicode="&#xca;" 
d="M539 1767l-101 -159h-221l238 297h168l239 -297h-221zM154 0v1462h782v-202h-539v-420h455v-203h-455v-434h545v-203h-788z" />
    <glyph glyph-name="Edieresis" unicode="&#xcb;" 
d="M629 1612v246h207v-246h-207zM262 1612v246h207v-246h-207zM154 0v1462h782v-202h-539v-420h455v-203h-455v-434h545v-203h-788z" />
    <glyph glyph-name="Igrave" unicode="&#xcc;" horiz-adv-x="552" 
d="M387 1602h-174l-233 307h262zM154 0v1462h245v-1462h-245z" />
    <glyph glyph-name="Iacute" unicode="&#xcd;" horiz-adv-x="552" 
d="M158 1602l145 307h262l-233 -307h-174zM145 0v1462h246v-1462h-246z" />
    <glyph glyph-name="Icircumflex" unicode="&#xce;" horiz-adv-x="552" 
d="M274 1767l-100 -159h-221l237 297h168l240 -297h-221zM152 0v1462h245v-1462h-245z" />
    <glyph glyph-name="Idieresis" unicode="&#xcf;" horiz-adv-x="552" 
d="M356 1612v246h207v-246h-207zM-10 1612v246h207v-246h-207zM154 0v1462h245v-1462h-245z" />
    <glyph glyph-name="Eth" unicode="&#xd0;" horiz-adv-x="1187" 
d="M397 838h217v-197h-217v-442h154q152 -3 208 69t58 264v400q-2 194 -58 264t-208 68h-154v-426zM152 838v624h417q258 4 379 -118t115 -381v-461q6 -262 -114 -384t-380 -118h-417v641h-132v197h132z" />
    <glyph glyph-name="Ntilde" unicode="&#xd1;" horiz-adv-x="1263" 
d="M754 1772q45 0 59 110h141q-12 -109 -34 -168q-47 -111 -164 -110q-84 0 -144 62t-82 63q-55 0 -69 -111h-142q20 117 46 166q51 113 163 112q76 0 138 -62t88 -62zM154 0v1462h241l482 -1007v1007h233v-1462h-233l-488 1012v-1012h-235z" />
    <glyph glyph-name="Ograve" unicode="&#xd2;" horiz-adv-x="1187" 
d="M723 1602h-174l-234 307h263zM817 524v414q0 188 -50 266t-173 78t-173 -78t-50 -266v-414q0 -188 50 -266t173 -78t173 78t50 266zM125 502v459q0 260 98 380q117 141 381 141t379 -165q80 -115 80 -356v-459q0 -260 -98 -381q-119 -141 -381 -141t-379 163
q-80 117 -80 359z" />
    <glyph glyph-name="Oacute" unicode="&#xd3;" horiz-adv-x="1187" 
d="M469 1602l145 307h263l-234 -307h-174zM817 524v414q0 188 -50 266t-173 78t-173 -78t-50 -266v-414q0 -188 50 -266t173 -78t173 78t50 266zM125 502v459q0 260 98 380q117 141 381 141t379 -165q80 -115 80 -356v-459q0 -260 -98 -381q-119 -141 -381 -141t-379 163
q-80 117 -80 359z" />
    <glyph glyph-name="Ocircumflex" unicode="&#xd4;" horiz-adv-x="1187" 
d="M594 1767l-100 -159h-222l238 297h168l240 -297h-222zM817 524v414q0 188 -50 266t-173 78t-173 -78t-50 -266v-414q0 -188 50 -266t173 -78t173 78t50 266zM125 502v459q0 260 98 380q117 141 381 141t379 -165q80 -115 80 -356v-459q0 -260 -98 -381
q-119 -141 -381 -141t-379 163q-80 117 -80 359z" />
    <glyph glyph-name="Otilde" unicode="&#xd5;" horiz-adv-x="1187" 
d="M711 1772q45 0 59 110h141q-12 -109 -34 -168q-47 -111 -164 -110q-83 0 -143 62t-83 63q-55 0 -69 -111h-142q20 117 46 166q51 113 163 112q77 0 139 -62t87 -62zM817 524v414q0 188 -50 266t-173 78t-173 -78t-50 -266v-414q0 -188 50 -266t173 -78t173 78t50 266z
M125 502v459q0 260 98 380q117 141 381 141t379 -165q80 -115 80 -356v-459q0 -260 -98 -381q-119 -141 -381 -141t-379 163q-80 117 -80 359z" />
    <glyph glyph-name="Odieresis" unicode="&#xd6;" horiz-adv-x="1187" 
d="M674 1612v246h207v-246h-207zM307 1612v246h207v-246h-207zM817 524v414q0 188 -50 266t-173 78t-173 -78t-50 -266v-414q0 -188 50 -266t173 -78t173 78t50 266zM125 502v459q0 260 98 380q117 141 381 141t379 -165q80 -115 80 -356v-459q0 -260 -98 -381
q-119 -141 -381 -141t-379 163q-80 117 -80 359z" />
    <glyph glyph-name="multiply" unicode="&#xd7;" horiz-adv-x="983" 
d="M360 733l-274 275l131 131l275 -275l274 275l129 -131l-274 -275l274 -274l-129 -131l-274 274l-275 -274l-131 131z" />
    <glyph glyph-name="Oslash" unicode="&#xd8;" horiz-adv-x="1187" 
d="M588 1282q-119 0 -169 -78t-50 -266v-406l391 680q-53 70 -172 70zM599 180q118 0 168 78t50 266v404l-391 -680q55 -68 173 -68zM1063 961v-459q0 -260 -98 -381q-119 -141 -371 -141q-178 0 -285 63l-53 -92l-166 98l84 146q-51 121 -51 307v459q0 262 98 380
q119 141 373 142q184 0 285 -66l51 90l166 -96l-84 -145q51 -117 51 -305z" />
    <glyph glyph-name="Ugrave" unicode="&#xd9;" horiz-adv-x="1210" 
d="M739 1602h-174l-233 307h262zM147 1462h246v-970q0 -180 45 -246t167 -66t167 66t45 246v970h246v-970q0 -148 -16 -224t-60 -135q-117 -153 -393 -153t-387 176q-59 96 -60 336v970z" />
    <glyph glyph-name="Uacute" unicode="&#xda;" horiz-adv-x="1210" 
d="M485 1602l146 307h262l-234 -307h-174zM147 1462h246v-970q0 -180 45 -246t167 -66t167 66t45 246v970h246v-970q0 -148 -16 -224t-60 -135q-117 -153 -393 -153t-387 176q-59 96 -60 336v970z" />
    <glyph glyph-name="Ucircumflex" unicode="&#xdb;" horiz-adv-x="1210" 
d="M604 1767l-100 -159h-221l237 297h168l240 -297h-221zM147 1462h246v-970q0 -180 45 -246t167 -66t167 66t45 246v970h246v-970q0 -148 -16 -224t-60 -135q-117 -153 -393 -153t-387 176q-59 96 -60 336v970z" />
    <glyph glyph-name="Udieresis" unicode="&#xdc;" horiz-adv-x="1210" 
d="M686 1612v246h207v-246h-207zM319 1612v246h207v-246h-207zM147 1462h246v-970q0 -180 45 -246t167 -66t167 66t45 246v970h246v-970q0 -148 -16 -224t-60 -135q-117 -153 -393 -153t-387 176q-59 96 -60 336v970z" />
    <glyph glyph-name="Yacute" unicode="&#xdd;" horiz-adv-x="968" 
d="M381 1602l145 307h262l-233 -307h-174zM365 0v520l-396 942h258l260 -671l261 671h260l-398 -942v-520h-245z" />
    <glyph glyph-name="Thorn" unicode="&#xde;" horiz-adv-x="1071" 
d="M395 510h166q113 0 162 61t49 208t-59 206q-45 51 -152 51h-166v-526zM399 309v-309h-245v1462h245v-227h162q139 0 220 -28q235 -81 235 -433q0 -250 -108 -357t-347 -108h-162z" />
    <glyph glyph-name="germandbls" unicode="&#xdf;" horiz-adv-x="1017" 
d="M125 0v1094q0 200 88 292t270 92q183 0 277 -82q94 -84 94 -234t-80 -259q78 -47 113 -138t35 -245v-67q2 -251 -79 -351t-288 -102h-78v188h49q100 0 131 48t31 202v94q-2 154 -34 203t-126 47h-26v170h30q106 0 106 171t-142 171q-76 0 -107 -44t-31 -154v-1096h-233z
" />
    <glyph glyph-name="agrave" unicode="&#xe0;" horiz-adv-x="956" 
d="M627 1188h-174l-234 309h262zM604 469h-131q-96 0 -136 -37t-40 -122q0 -86 34 -116t122 -30q87 0 119 36t32 136v133zM604 631v47q0 113 -33 159t-105 46t-108 -30t-55 -103l-199 59q70 264 363 264q242 0 326 -155q45 -88 45 -271v-647h-183l-14 63q-45 -47 -99 -65
t-147 -18q-176 0 -251 74q-74 74 -74 253q0 180 77 252q78 72 279 72h178z" />
    <glyph glyph-name="aacute" unicode="&#xe1;" horiz-adv-x="956" 
d="M371 1188l145 309h262l-233 -309h-174zM604 469h-131q-96 0 -136 -37t-40 -122q0 -86 34 -116t122 -30q87 0 119 36t32 136v133zM604 631v47q0 113 -33 159t-105 46t-108 -30t-55 -103l-199 59q70 264 363 264q242 0 326 -155q45 -88 45 -271v-647h-183l-14 63
q-45 -47 -99 -65t-147 -18q-176 0 -251 74q-74 74 -74 253q0 180 77 252q78 72 279 72h178z" />
    <glyph glyph-name="acircumflex" unicode="&#xe2;" horiz-adv-x="956" 
d="M483 1354l-100 -160h-221l237 297h168l240 -297h-221zM604 469h-131q-96 0 -136 -37t-40 -122q0 -86 34 -116t122 -30q87 0 119 36t32 136v133zM604 631v47q0 113 -33 159t-105 46t-108 -30t-55 -103l-199 59q70 264 363 264q242 0 326 -155q45 -88 45 -271v-647h-183
l-14 63q-45 -47 -99 -65t-147 -18q-176 0 -251 74q-74 74 -74 253q0 180 77 252q78 72 279 72h178z" />
    <glyph glyph-name="atilde" unicode="&#xe3;" horiz-adv-x="956" 
d="M377 1483q76 -1 138 -63t87 -62q43 0 60 110h141q-16 -119 -35 -165q-47 -111 -164 -111q-84 0 -143 62t-82 63q-56 0 -70 -111h-141q20 117 45 166q51 111 164 111zM604 469h-131q-96 0 -136 -37t-40 -122q0 -86 34 -116t122 -30q87 0 119 36t32 136v133zM604 631v47
q0 113 -33 159t-105 46t-108 -30t-55 -103l-199 59q70 264 363 264q242 0 326 -155q45 -88 45 -271v-647h-183l-14 63q-45 -47 -99 -65t-147 -18q-176 0 -251 74q-74 74 -74 253q0 180 77 252q78 72 279 72h178z" />
    <glyph glyph-name="adieresis" unicode="&#xe4;" horiz-adv-x="956" 
d="M559 1198v246h207v-246h-207zM201 1198v246h207v-246h-207zM604 469h-131q-96 0 -136 -37t-40 -122q0 -86 34 -116t122 -30q87 0 119 36t32 136v133zM604 631v47q0 113 -33 159t-105 46t-108 -30t-55 -103l-199 59q70 264 363 264q242 0 326 -155q45 -88 45 -271v-647
h-183l-14 63q-45 -47 -99 -65t-147 -18q-176 0 -251 74q-74 74 -74 253q0 180 77 252q78 72 279 72h178z" />
    <glyph glyph-name="aring" unicode="&#xe5;" horiz-adv-x="956" 
d="M487 1282q90 0 90 114t-90 113q-90 1 -90 -113t90 -114zM488 1620q106 0 170 -61t65 -161q0 -100 -66 -164t-170 -64t-170 62q-65 64 -65 166t64 162q66 60 172 60zM604 469h-131q-96 0 -136 -37t-40 -122q0 -86 34 -116t122 -30q87 0 119 36t32 136v133zM604 631v47
q0 113 -33 159t-105 46t-108 -30t-55 -103l-199 59q70 264 363 264q242 0 326 -155q45 -88 45 -271v-647h-183l-14 63q-45 -47 -99 -65t-147 -18q-176 0 -251 74q-74 74 -74 253q0 180 77 252q78 72 279 72h178z" />
    <glyph glyph-name="ae" unicode="&#xe6;" horiz-adv-x="1488" 
d="M840 635h334v39q0 217 -167 217t-167 -219v-37zM604 469h-131q-94 0 -135 -38t-41 -123t34 -117q34 -31 120 -31q85 0 119 40t34 148v121zM1395 588v-119h-555v-61q0 -126 43 -184t135 -58q133 0 166 135l198 -43q-28 -145 -114 -212t-250 -66q-205 0 -295 126
q-82 -127 -328 -126q-176 0 -251 74q-74 74 -74 252q0 179 78 252q79 73 278 73h178v45q0 113 -34 160t-105 47q-71 -1 -105 -27t-65 -102l-189 59q27 125 118 193t237 67q188 0 268 -112q92 113 290 113t287 -116q89 -115 89 -370z" />
    <glyph glyph-name="ccedilla" unicode="&#xe7;" horiz-adv-x="880" 
d="M276 -477l89 344h223l-154 -344h-158zM338 424q0 -254 148 -254q72 0 106 30q35 30 51 101l201 -41q-27 -145 -115 -213q-87 -67 -265 -67t-268 112t-92 352v158q0 246 92 359t293 112q152 0 231 -61t111 -207l-198 -60q-18 74 -51 106q-32 32 -102 32q-142 0 -142 -262
v-197z" />
    <glyph glyph-name="egrave" unicode="&#xe8;" horiz-adv-x="985" 
d="M635 1188h-174l-234 309h262zM338 639h332v35q0 217 -166 217t-166 -217v-35zM338 471v-63q0 -124 43 -182t135 -58q131 0 166 135l197 -43q-29 -150 -117 -216t-280 -64q-192 0 -284 112q-93 112 -94 365v133q0 254 92 368t302 115q209 0 301 -114t92 -369v-119h-553z
" />
    <glyph glyph-name="eacute" unicode="&#xe9;" horiz-adv-x="985" 
d="M379 1188l145 309h262l-233 -309h-174zM338 639h332v35q0 217 -166 217t-166 -217v-35zM338 471v-63q0 -124 43 -182t135 -58q131 0 166 135l197 -43q-29 -150 -117 -216t-280 -64q-192 0 -284 112q-93 112 -94 365v133q0 254 92 368t302 115q209 0 301 -114t92 -369
v-119h-553z" />
    <glyph glyph-name="ecircumflex" unicode="&#xea;" horiz-adv-x="985" 
d="M506 1354l-100 -160h-222l238 297h168l239 -297h-221zM338 639h332v35q0 217 -166 217t-166 -217v-35zM338 471v-63q0 -124 43 -182t135 -58q131 0 166 135l197 -43q-29 -150 -117 -216t-280 -64q-192 0 -284 112q-93 112 -94 365v133q0 254 92 368t302 115
q209 0 301 -114t92 -369v-119h-553z" />
    <glyph glyph-name="edieresis" unicode="&#xeb;" horiz-adv-x="985" 
d="M582 1198v246h206v-246h-206zM223 1198v246h207v-246h-207zM338 639h332v35q0 217 -166 217t-166 -217v-35zM338 471v-63q0 -124 43 -182t135 -58q131 0 166 135l197 -43q-29 -150 -117 -216t-280 -64q-192 0 -284 112q-93 112 -94 365v133q0 254 92 368t302 115
q209 0 301 -114t92 -369v-119h-553z" />
    <glyph glyph-name="igrave" unicode="&#xec;" horiz-adv-x="493" 
d="M365 1188h-175l-233 309h262zM129 0v1051h233v-1051h-233z" />
    <glyph glyph-name="iacute" unicode="&#xed;" horiz-adv-x="491" 
d="M121 1188l145 309h262l-233 -309h-174zM121 0v1051h233v-1051h-233z" />
    <glyph glyph-name="icircumflex" unicode="&#xee;" horiz-adv-x="491" 
d="M246 1354l-101 -160h-221l238 297h168l239 -297h-221zM129 0v1051h233v-1051h-233z" />
    <glyph glyph-name="idieresis" unicode="&#xef;" horiz-adv-x="491" 
d="M322 1198v246h206v-246h-206zM-37 1198v246h207v-246h-207zM129 0v1051h233v-1051h-233z" />
    <glyph glyph-name="eth" unicode="&#xf0;" horiz-adv-x="1001" 
d="M662 428v170q0 136 -38 196t-124 60t-124 -59t-38 -197v-170q0 -138 38 -198t124 -60t124 60t38 198zM104 412v200q0 223 80 318q92 115 269 114q92 0 143 -36q-35 113 -88 170l-182 -107l-78 109l145 84q-80 51 -153 65l28 158q172 -20 307 -111l152 88l76 -108
l-121 -70q98 -111 154 -292t59 -386v-196q0 -228 -93 -330t-302 -102q-208 0 -302 102t-94 330z" />
    <glyph glyph-name="ntilde" unicode="&#xf1;" horiz-adv-x="1015" 
d="M399 1483q77 -1 139 -63t87 -62q43 0 59 110h141q-16 -119 -34 -165q-47 -111 -164 -111q-83 0 -143 62t-83 63q-55 0 -69 -111h-142q20 117 46 166q51 111 163 111zM127 0v1051h176l19 -88q49 61 104 86t143 24q227 0 297 -178q31 -76 31 -256v-639h-233v610
q0 142 -33 202t-117 60t-119 -64t-35 -224v-584h-233z" />
    <glyph glyph-name="ograve" unicode="&#xf2;" horiz-adv-x="1001" 
d="M629 1188h-174l-234 309h262zM662 422v207q0 137 -37 195t-125 58t-125 -58t-37 -195v-207q0 -136 37 -194t125 -58t125 58t37 194zM104 422v207q0 236 94 340t302 104q209 0 302 -104t93 -340v-207q0 -234 -93 -338t-302 -104q-208 0 -302 104t-94 338z" />
    <glyph glyph-name="oacute" unicode="&#xf3;" horiz-adv-x="1001" 
d="M375 1188l145 309h262l-233 -309h-174zM662 422v207q0 137 -37 195t-125 58t-125 -58t-37 -195v-207q0 -136 37 -194t125 -58t125 58t37 194zM104 422v207q0 236 94 340t302 104q209 0 302 -104t93 -340v-207q0 -234 -93 -338t-302 -104q-208 0 -302 104t-94 338z" />
    <glyph glyph-name="ocircumflex" unicode="&#xf4;" horiz-adv-x="1001" 
d="M500 1354l-101 -160h-221l238 297h168l239 -297h-221zM662 422v207q0 137 -37 195t-125 58t-125 -58t-37 -195v-207q0 -136 37 -194t125 -58t125 58t37 194zM104 422v207q0 236 94 340t302 104q209 0 302 -104t93 -340v-207q0 -234 -93 -338t-302 -104q-208 0 -302 104
t-94 338z" />
    <glyph glyph-name="otilde" unicode="&#xf5;" horiz-adv-x="1001" 
d="M391 1483q76 -1 138 -63t87 -62q43 0 60 110h141q-16 -119 -35 -165q-47 -111 -164 -111q-84 0 -143 62t-82 63q-55 0 -69 -111h-142q20 117 45 166q51 111 164 111zM662 422v207q0 137 -37 195t-125 58t-125 -58t-37 -195v-207q0 -136 37 -194t125 -58t125 58t37 194z
M104 422v207q0 236 94 340t302 104q209 0 302 -104t93 -340v-207q0 -234 -93 -338t-302 -104q-208 0 -302 104t-94 338z" />
    <glyph glyph-name="odieresis" unicode="&#xf6;" horiz-adv-x="1001" 
d="M575 1198v246h207v-246h-207zM217 1198v246h207v-246h-207zM662 422v207q0 137 -37 195t-125 58t-125 -58t-37 -195v-207q0 -136 37 -194t125 -58t125 58t37 194zM104 422v207q0 236 94 340t302 104q209 0 302 -104t93 -340v-207q0 -234 -93 -338t-302 -104
q-208 0 -302 104t-94 338z" />
    <glyph glyph-name="divide" unicode="&#xf7;" horiz-adv-x="983" 
d="M387 965v213h209v-213h-209zM387 289v213h209v-213h-209zM80 639v186h825v-186h-825z" />
    <glyph glyph-name="oslash" unicode="&#xf8;" horiz-adv-x="1001" 
d="M488 883q-78 -1 -116 -59t-38 -193v-225l272 436q-40 41 -118 41zM504 170q80 0 118 58t37 194v229l-274 -440q39 -41 119 -41zM893 422q0 -234 -93 -338t-300 -104q-147 0 -232 47l-45 -74l-123 80l60 96q-59 100 -60 293v209q0 233 94 337t300 105q145 0 229 -47l45 72
l123 -80l-60 -92q61 -94 62 -295v-209z" />
    <glyph glyph-name="ugrave" unicode="&#xf9;" horiz-adv-x="995" 
d="M627 1188h-174l-234 309h262zM121 1051h233v-611q0 -143 31 -201q31 -59 107 -59t110 65q33 65 33 222v584h233v-1051h-168l-22 92q-47 -63 -99 -88t-139 -24q-221 0 -290 178q-29 74 -29 254v639z" />
    <glyph glyph-name="uacute" unicode="&#xfa;" horiz-adv-x="995" 
d="M373 1188l145 309h262l-233 -309h-174zM121 1051h233v-611q0 -143 31 -201q31 -59 107 -59t110 65q33 65 33 222v584h233v-1051h-168l-22 92q-47 -63 -99 -88t-139 -24q-221 0 -290 178q-29 74 -29 254v639z" />
    <glyph glyph-name="ucircumflex" unicode="&#xfb;" horiz-adv-x="995" 
d="M498 1354l-101 -160h-221l238 297h168l239 -297h-221zM121 1051h233v-611q0 -143 31 -201q31 -59 107 -59t110 65q33 65 33 222v584h233v-1051h-168l-22 92q-47 -63 -99 -88t-139 -24q-221 0 -290 178q-29 74 -29 254v639z" />
    <glyph glyph-name="udieresis" unicode="&#xfc;" horiz-adv-x="995" 
d="M573 1198v246h207v-246h-207zM215 1198v246h207v-246h-207zM121 1051h233v-611q0 -143 31 -201q31 -59 107 -59t110 65q33 65 33 222v584h233v-1051h-168l-22 92q-47 -63 -99 -88t-139 -24q-221 0 -290 178q-29 74 -29 254v639z" />
    <glyph glyph-name="yacute" unicode="&#xfd;" horiz-adv-x="903" 
d="M348 1188l146 309h262l-234 -309h-174zM86 -279q110 0 148 32t73 157l27 96l-309 1045h235l193 -764l182 764h237l-325 -1160q-47 -161 -94 -233t-127 -100t-240 -29v192z" />
    <glyph glyph-name="thorn" unicode="&#xfe;" horiz-adv-x="1009" 
d="M676 432v203q0 127 -37 185t-119 58t-120 -60q-38 -62 -38 -193v-199q0 -132 39 -192t120 -60t118 62t37 196zM362 -461h-233v1923h233v-458q82 70 209 69q174 0 255 -104t81 -332v-201q0 -242 -81 -350t-261 -106q-119 0 -203 61v-502z" />
    <glyph glyph-name="ydieresis" unicode="&#xff;" horiz-adv-x="903" 
d="M526 1198v246h207v-246h-207zM168 1198v246h207v-246h-207zM86 -279q110 0 148 32t73 157l27 96l-309 1045h235l193 -764l182 764h237l-325 -1160q-47 -161 -94 -233t-127 -100t-240 -29v192z" />
    <glyph glyph-name="Amacron" unicode="&#x100;" horiz-adv-x="1089" 
d="M272 1657v168h547v-168h-547zM727 494l-178 653l-178 -653h356zM778 295h-459l-79 -295h-267l463 1462h223l463 -1462h-264z" />
    <glyph glyph-name="amacron" unicode="&#x101;" horiz-adv-x="956" 
d="M207 1245v168h547v-168h-547zM604 469h-131q-96 0 -136 -37t-40 -122q0 -86 34 -116t122 -30q87 0 119 36t32 136v133zM604 631v47q0 113 -33 159t-105 46t-108 -30t-55 -103l-199 59q70 264 363 264q242 0 326 -155q45 -88 45 -271v-647h-183l-14 63q-45 -47 -99 -65
t-147 -18q-176 0 -251 74q-74 74 -74 253q0 180 77 252q78 72 279 72h178z" />
    <glyph glyph-name="Abreve" unicode="&#x102;" horiz-adv-x="1089" 
d="M546 1755q78 0 110 31t40 112h148q-4 -135 -35 -192q-67 -121 -271 -121t-264 139q-22 51 -26 174h147q8 -82 41 -112t110 -31zM727 494l-178 653l-178 -653h356zM778 295h-459l-79 -295h-267l463 1462h223l463 -1462h-264z" />
    <glyph glyph-name="abreve" unicode="&#x103;" horiz-adv-x="956" 
d="M486 1343q76 0 108 30q33 30 43 112h147q-8 -137 -34 -191q-68 -120 -272 -120t-263 139q-23 49 -27 172h148q8 -80 41 -111t109 -31zM604 469h-131q-96 0 -136 -37t-40 -122q0 -86 34 -116t122 -30q87 0 119 36t32 136v133zM604 631v47q0 113 -33 159t-105 46t-108 -30
t-55 -103l-199 59q70 264 363 264q242 0 326 -155q45 -88 45 -271v-647h-183l-14 63q-45 -47 -99 -65t-147 -18q-176 0 -251 74q-74 74 -74 253q0 180 77 252q78 72 279 72h178z" />
    <glyph glyph-name="Aogonek" unicode="&#x104;" horiz-adv-x="1089" 
d="M727 494l-178 653l-178 -653h356zM1047 -291q45 0 106 21l27 -119q-86 -37 -185 -37q-238 0 -237 170q0 147 190 256h-90l-80 295h-459l-79 -295h-267l463 1462h223l463 -1462q-90 -76 -124 -122t-33 -95q0 -74 82 -74z" />
    <glyph glyph-name="aogonek" unicode="&#x105;" horiz-adv-x="956" 
d="M604 469h-131q-96 0 -136 -37t-40 -122q0 -86 34 -116t122 -30q87 0 119 36t32 136v133zM680 -217q0 -74 80 -74q45 0 108 21l25 -119q-86 -37 -182 -37q-238 0 -238 170q0 143 189 256h-7l-14 63q-45 -47 -99 -65t-147 -18q-176 0 -251 74q-74 74 -74 253q0 180 77 252
q78 72 279 72h178v47q0 113 -33 159t-105 46t-108 -30t-55 -103l-199 59q70 264 363 264q242 0 326 -155q45 -88 45 -271v-647q-158 -122 -158 -217z" />
    <glyph glyph-name="Cacute" unicode="&#x106;" horiz-adv-x="1103" 
d="M449 1602l145 307h262l-233 -307h-174zM125 522v414q0 156 22 249q23 93 76 156q115 139 350 140q416 0 431 -420l-226 -8q-10 119 -58 173t-152 54t-151 -80q-46 -80 -46 -280v-381q0 -201 46 -280q47 -79 155 -79t160 58t61 182l227 -14q-8 -180 -78 -273
q-113 -153 -369 -153t-368 163q-80 115 -80 379z" />
    <glyph glyph-name="cacute" unicode="&#x107;" horiz-adv-x="880" 
d="M371 1188l145 309h262l-233 -309h-174zM338 424q0 -254 148 -254q72 0 106 30q35 30 51 101l201 -41q-27 -145 -115 -213q-87 -67 -265 -67t-268 112t-92 352v158q0 246 92 359t293 112q152 0 231 -61t111 -207l-198 -60q-18 74 -51 106q-32 32 -102 32q-142 0 -142 -262
v-197z" />
    <glyph glyph-name="Ccircumflex" unicode="&#x108;" horiz-adv-x="1103" 
d="M571 1767l-100 -159h-221l237 297h168l240 -297h-221zM125 522v414q0 156 22 249q23 93 76 156q115 139 350 140q416 0 431 -420l-226 -8q-10 119 -58 173t-152 54t-151 -80q-46 -80 -46 -280v-381q0 -201 46 -280q47 -79 155 -79t160 58t61 182l227 -14
q-8 -180 -78 -273q-113 -153 -369 -153t-368 163q-80 115 -80 379z" />
    <glyph glyph-name="ccircumflex" unicode="&#x109;" horiz-adv-x="880" 
d="M481 1354l-100 -160h-221l237 297h168l240 -297h-221zM338 424q0 -254 148 -254q72 0 106 30q35 30 51 101l201 -41q-27 -145 -115 -213q-87 -67 -265 -67t-268 112t-92 352v158q0 246 92 359t293 112q152 0 231 -61t111 -207l-198 -60q-18 74 -51 106q-32 32 -102 32
q-142 0 -142 -262v-197z" />
    <glyph glyph-name="Cdotaccent" unicode="&#x10a;" horiz-adv-x="1103" 
d="M463 1610v245h225v-245h-225zM125 522v414q0 156 22 249q23 93 76 156q115 139 350 140q416 0 431 -420l-226 -8q-10 119 -58 173t-152 54t-151 -80q-46 -80 -46 -280v-381q0 -201 46 -280q47 -79 155 -79t160 58t61 182l227 -14q-8 -180 -78 -273q-113 -153 -369 -153
t-368 163q-80 115 -80 379z" />
    <glyph glyph-name="cdotaccent" unicode="&#x10b;" horiz-adv-x="880" 
d="M371 1198v246h225v-246h-225zM338 424q0 -254 148 -254q72 0 106 30q35 30 51 101l201 -41q-27 -145 -115 -213q-87 -67 -265 -67t-268 112t-92 352v158q0 246 92 359t293 112q152 0 231 -61t111 -207l-198 -60q-18 74 -51 106q-32 32 -102 32q-142 0 -142 -262v-197z
" />
    <glyph glyph-name="Ccaron" unicode="&#x10c;" horiz-adv-x="1103" 
d="M578 1739l100 159h221l-240 -296h-165l-240 296h221zM125 522v414q0 156 22 249q23 93 76 156q115 139 350 140q416 0 431 -420l-226 -8q-10 119 -58 173t-152 54t-151 -80q-46 -80 -46 -280v-381q0 -201 46 -280q47 -79 155 -79t160 58t61 182l227 -14q-8 -180 -78 -273
q-113 -153 -369 -153t-368 163q-80 115 -80 379z" />
    <glyph glyph-name="ccaron" unicode="&#x10d;" horiz-adv-x="880" 
d="M489 1327l101 160h221l-240 -297h-165l-240 297h221zM338 424q0 -254 148 -254q72 0 106 30q35 30 51 101l201 -41q-27 -145 -115 -213q-87 -67 -265 -67t-268 112t-92 352v158q0 246 92 359t293 112q152 0 231 -61t111 -207l-198 -60q-18 74 -51 106q-32 32 -102 32
q-142 0 -142 -262v-197z" />
    <glyph glyph-name="Dcaron" unicode="&#x10e;" horiz-adv-x="1187" 
d="M551 1739l100 159h221l-239 -296h-166l-240 296h222zM399 199h154q152 -3 208 69t58 264v400q-2 194 -58 264t-208 68h-154v-1065zM154 0v1462h419q258 4 378 -118t114 -381v-461q4 -262 -115 -384t-377 -118h-419z" />
    <glyph glyph-name="dcaron" unicode="&#x10f;" horiz-adv-x="1214" 
d="M983 954l57 537h224l-117 -537h-164zM338 635v-201q0 -135 37 -197t114 -63q160 0 160 252v199q0 254 -160 254q-151 0 -151 -244zM104 436v201q0 227 80 331t254 105q125 0 211 -72v461h234v-1462h-181l-14 72q-93 -93 -239 -92q-182 0 -264 107q-81 108 -81 349z" />
    <glyph glyph-name="Dcroat" unicode="&#x110;" horiz-adv-x="1187" 
d="M397 838h217v-197h-217v-442h154q152 -3 208 69t58 264v400q-2 194 -58 264t-208 68h-154v-426zM152 838v624h417q258 4 379 -118t115 -381v-461q6 -262 -114 -384t-380 -118h-417v641h-132v197h132z" />
    <glyph glyph-name="dcroat" unicode="&#x111;" horiz-adv-x="1009" 
d="M336 635v-201q0 -135 37 -197t116 -63q160 0 160 252v199q0 254 -162 254q-151 0 -151 -244zM104 436v201q0 227 80 331t252 105q125 0 213 -72v162h-254v160h254v139h234v-139h133v-160h-133v-1163h-181l-14 72q-93 -93 -258 -93q-164 1 -245 109t-81 348z" />
    <glyph glyph-name="Emacron" unicode="&#x112;" 
d="M266 1657v168h547v-168h-547zM154 0v1462h782v-202h-539v-420h455v-203h-455v-434h545v-203h-788z" />
    <glyph glyph-name="emacron" unicode="&#x113;" horiz-adv-x="985" 
d="M229 1245v168h547v-168h-547zM338 639h332v35q0 217 -166 217t-166 -217v-35zM338 471v-63q0 -124 43 -182t135 -58q131 0 166 135l197 -43q-29 -150 -117 -216t-280 -64q-192 0 -284 112q-93 112 -94 365v133q0 254 92 368t302 115q209 0 301 -114t92 -369v-119h-553z
" />
    <glyph glyph-name="Ebreve" unicode="&#x114;" 
d="M550 1755q78 0 110 31t40 112h148q-4 -135 -35 -192q-67 -121 -271 -121t-263 139q-23 51 -27 174h147q8 -82 41 -112t110 -31zM154 0v1462h782v-202h-539v-420h455v-203h-455v-434h545v-203h-788z" />
    <glyph glyph-name="ebreve" unicode="&#x115;" horiz-adv-x="985" 
d="M500 1343q76 0 108 30t43 112h148q-8 -137 -35 -191q-68 -120 -272 -120t-263 139q-22 49 -26 172h147q8 -80 41 -111t109 -31zM338 639h332v35q0 217 -166 217t-166 -217v-35zM338 471v-63q0 -124 43 -182t135 -58q131 0 166 135l197 -43q-29 -150 -117 -216t-280 -64
q-192 0 -284 112q-93 112 -94 365v133q0 254 92 368t302 115q209 0 301 -114t92 -369v-119h-553z" />
    <glyph glyph-name="Edotaccent" unicode="&#x116;" 
d="M444 1610v245h226v-245h-226zM154 0v1462h782v-202h-539v-420h455v-203h-455v-434h545v-203h-788z" />
    <glyph glyph-name="edotaccent" unicode="&#x117;" horiz-adv-x="985" 
d="M393 1198v246h225v-246h-225zM338 639h332v35q0 217 -166 217t-166 -217v-35zM338 471v-63q0 -124 43 -182t135 -58q131 0 166 135l197 -43q-29 -150 -117 -216t-280 -64q-192 0 -284 112q-93 112 -94 365v133q0 254 92 368t302 115q209 0 301 -114t92 -369v-119h-553z
" />
    <glyph glyph-name="Eogonek" unicode="&#x118;" 
d="M154 0v1462h782v-202h-539v-420h455v-203h-455v-434h545v-203q-6 -4 -16 -14q-84 -72 -113 -113t-29 -90q0 -74 82 -74q43 0 107 21l24 -119q-82 -37 -180 -37q-240 0 -239 170q0 143 188 256h-612z" />
    <glyph glyph-name="eogonek" unicode="&#x119;" horiz-adv-x="985" 
d="M340 639h332v35q0 217 -166 217t-166 -217v-35zM516 -211q0 -74 80 -74q49 0 109 23l24 -121q-82 -37 -182 -37q-238 0 -238 170q0 66 34 118t116 114q-186 12 -271 124q-84 113 -82 351v133q0 254 92 368t302 115q209 0 301 -114t92 -369v-119h-553v-63q0 -124 43 -182
t135 -58q131 0 166 135l197 -43q-39 -217 -217 -262q-84 -72 -116 -116t-32 -93z" />
    <glyph glyph-name="Ecaron" unicode="&#x11a;" 
d="M557 1739l100 159h222l-240 -296h-166l-240 296h222zM154 0v1462h782v-202h-539v-420h455v-203h-455v-434h545v-203h-788z" />
    <glyph glyph-name="ecaron" unicode="&#x11b;" horiz-adv-x="985" 
d="M508 1327l100 160h221l-239 -297h-166l-240 297h222zM338 639h332v35q0 217 -166 217t-166 -217v-35zM338 471v-63q0 -124 43 -182t135 -58q131 0 166 135l197 -43q-29 -150 -117 -216t-280 -64q-192 0 -284 112q-93 112 -94 365v133q0 254 92 368t302 115
q209 0 301 -114t92 -369v-119h-553z" />
    <glyph glyph-name="Gcircumflex" unicode="&#x11c;" horiz-adv-x="1165" 
d="M586 1767l-101 -159h-221l238 297h168l239 -297h-221zM371 920v-381q0 -201 49 -280t170 -79t174 73t53 230v121h-203v191h447v-260q1 -150 -19 -239t-69 -155q-117 -161 -383 -161t-381 163q-84 117 -84 379v414q0 289 102 407q119 137 359 138q422 0 436 -420l-225 -8
q-16 227 -207 227q-121 0 -170 -80t-49 -280z" />
    <glyph glyph-name="gcircumflex" unicode="&#x11d;" horiz-adv-x="1011" 
d="M514 1354l-100 -160h-221l237 297h168l240 -297h-222zM338 635v-199q0 -137 37 -199t117 -63q160 0 159 252v199q0 254 -159 254q-80 -1 -117 -59t-37 -185zM651 -33v78q-86 -66 -211 -65q-176 0 -256 110t-80 348v199q0 227 80 331t242 105q162 0 256 -96l23 74h180
v-1055q-1 -248 -99 -363t-307 -114q-153 0 -235 60t-115 200l197 49q22 -72 54 -98t95 -27q94 1 135 63t41 201z" />
    <glyph glyph-name="Gbreve" unicode="&#x11e;" horiz-adv-x="1165" 
d="M585 1755q77 0 109 31t41 112h148q-4 -135 -35 -192q-68 -121 -272 -121t-263 139q-22 51 -26 174h147q8 -82 41 -112t110 -31zM371 920v-381q0 -201 49 -280t170 -79t174 73t53 230v121h-203v191h447v-260q1 -150 -19 -239t-69 -155q-117 -161 -383 -161t-381 163
q-84 117 -84 379v414q0 289 102 407q119 137 359 138q422 0 436 -420l-225 -8q-16 227 -207 227q-121 0 -170 -80t-49 -280z" />
    <glyph glyph-name="gbreve" unicode="&#x11f;" horiz-adv-x="1011" 
d="M524 1343q76 0 109 30t43 112h147q-8 -137 -35 -191q-68 -120 -272 -120t-262 139q-23 49 -27 172h148q8 -80 41 -111q32 -31 108 -31zM338 635v-199q0 -137 37 -199t117 -63q160 0 159 252v199q0 254 -159 254q-80 -1 -117 -59t-37 -185zM651 -33v78q-86 -66 -211 -65
q-176 0 -256 110t-80 348v199q0 227 80 331t242 105q162 0 256 -96l23 74h180v-1055q-1 -248 -99 -363t-307 -114q-153 0 -235 60t-115 200l197 49q22 -72 54 -98t95 -27q94 1 135 63t41 201z" />
    <glyph glyph-name="Gdotaccent" unicode="&#x120;" horiz-adv-x="1165" 
d="M469 1610v245h225v-245h-225zM371 920v-381q0 -201 49 -280t170 -79t174 73t53 230v121h-203v191h447v-260q1 -150 -19 -239t-69 -155q-117 -161 -383 -161t-381 163q-84 117 -84 379v414q0 289 102 407q119 137 359 138q422 0 436 -420l-225 -8q-16 227 -207 227
q-121 0 -170 -80t-49 -280z" />
    <glyph glyph-name="gdotaccent" unicode="&#x121;" horiz-adv-x="1011" 
d="M426 1198v246h225v-246h-225zM338 635v-199q0 -137 37 -199t117 -63q160 0 159 252v199q0 254 -159 254q-80 -1 -117 -59t-37 -185zM651 -33v78q-86 -66 -211 -65q-176 0 -256 110t-80 348v199q0 227 80 331t242 105q162 0 256 -96l23 74h180v-1055q-1 -248 -99 -363
t-307 -114q-153 0 -235 60t-115 200l197 49q22 -72 54 -98t95 -27q94 1 135 63t41 201z" />
    <glyph glyph-name="Gcommaaccent" unicode="&#x122;" horiz-adv-x="1165" 
d="M414 -477l88 344h223l-154 -344h-157zM371 920v-381q0 -201 49 -280t170 -79t174 73t53 230v121h-203v191h447v-260q1 -150 -19 -239t-69 -155q-117 -161 -383 -161t-381 163q-84 117 -84 379v414q0 289 102 407q119 137 359 138q422 0 436 -420l-225 -8
q-16 227 -207 227q-121 0 -170 -80t-49 -280z" />
    <glyph glyph-name="gcommaaccent" unicode="&#x123;" horiz-adv-x="1011" 
d="M387 1188l234 309h174l-146 -309h-262zM338 635v-199q0 -137 37 -199t117 -63q160 0 159 252v199q0 254 -159 254q-80 -1 -117 -59t-37 -185zM651 -33v78q-86 -66 -211 -65q-176 0 -256 110t-80 348v199q0 227 80 331t242 105q162 0 256 -96l23 74h180v-1055
q-1 -248 -99 -363t-307 -114q-153 0 -235 60t-115 200l197 49q22 -72 54 -98t95 -27q94 1 135 63t41 201z" />
    <glyph glyph-name="Hcircumflex" unicode="&#x124;" horiz-adv-x="1202" 
d="M602 1767l-100 -159h-221l237 297h168l240 -297h-221zM154 0v1462h245v-622h406v622h246v-1462h-246v637h-406v-637h-245z" />
    <glyph glyph-name="hcircumflex" unicode="&#x125;" horiz-adv-x="1015" 
d="M324 1767l-101 -159h-221l238 297h168l239 -297h-221zM127 0v1462h233v-458q86 70 213 69q225 0 293 -178q31 -76 31 -256v-639h-233v614q0 138 -34 198t-116 60t-118 -64t-36 -216v-592h-233z" />
    <glyph glyph-name="Hbar" unicode="&#x126;" horiz-adv-x="1202" 
d="M399 840h404v176h-404v-176zM154 0v1016h-134v176h134v270h245v-270h404v270h246v-270h133v-176h-133v-1016h-246v637h-404v-637h-245z" />
    <glyph glyph-name="hbar" unicode="&#x127;" horiz-adv-x="1019" 
d="M129 1163h-135v160h135v139h233v-139h252v-160h-252v-159q90 70 211 69q225 0 293 -178q31 -76 31 -256v-639h-233v614q0 142 -33 200t-115 58t-118 -64t-36 -216v-592h-233v1163z" />
    <glyph glyph-name="Itilde" unicode="&#x128;" horiz-adv-x="552" 
d="M393 1772q45 0 60 110h141q-16 -121 -37 -168q-45 -111 -164 -110q-86 0 -143 62t-80 63q-56 0 -70 -111h-141q18 117 45 166q51 113 164 112q76 0 138 -62t87 -62zM154 0v1462h245v-1462h-245z" />
    <glyph glyph-name="itilde" unicode="&#x129;" horiz-adv-x="491" 
d="M137 1483q76 1 137 -61t88 -62q43 0 60 108h141q-16 -121 -37 -165q-45 -111 -164 -111q-86 0 -143 62t-80 63q-55 0 -69 -111h-142q18 117 45 166q53 111 164 111zM129 0v1051h233v-1051h-233z" />
    <glyph glyph-name="Imacron" unicode="&#x12a;" horiz-adv-x="552" 
d="M4 1657v168h547v-168h-547zM154 0v1462h245v-1462h-245z" />
    <glyph glyph-name="imacron" unicode="&#x12b;" horiz-adv-x="491" 
d="M-27 1245v168h547v-168h-547zM129 0v1051h233v-1051h-233z" />
    <glyph glyph-name="Ibreve" unicode="&#x12c;" horiz-adv-x="552" 
d="M276 1755q76 0 109 31t41 112h147q-8 -141 -34 -192q-68 -121 -272 -121t-263 139q-23 51 -27 174h148q8 -82 41 -112q34 -30 110 -31zM154 0v1462h245v-1462h-245z" />
    <glyph glyph-name="ibreve" unicode="&#x12d;" horiz-adv-x="491" 
d="M246 1343q76 0 108 30t43 112h148q-8 -139 -37 -191q-66 -120 -270 -120t-263 139q-22 51 -26 172h147q8 -80 41 -111t109 -31zM131 0v1051h234v-1051h-234z" />
    <glyph glyph-name="Iogonek" unicode="&#x12e;" horiz-adv-x="552" 
d="M250 -215q0 -76 80 -76q45 0 108 21l25 -119q-86 -37 -182 -37q-238 0 -238 172q0 139 184 254h-73v1462h245v-1462l-8 -6q-81 -70 -111 -116t-30 -93z" />
    <glyph glyph-name="iogonek" unicode="&#x12f;" horiz-adv-x="493" 
d="M129 1221v252h233v-252h-233zM215 -215q0 -76 78 -76q45 0 106 21l27 -119q-82 -37 -182 -37q-236 0 -236 170q0 139 180 256h-59v1051h233v-1051q-84 -74 -116 -120t-31 -95z" />
    <glyph glyph-name="Idotaccent" unicode="&#x130;" horiz-adv-x="552" 
d="M164 1610v245h225v-245h-225zM154 0v1462h245v-1462h-245z" />
    <glyph glyph-name="dotlessi" unicode="&#x131;" horiz-adv-x="493" 
d="M129 0v1051h233v-1051h-233z" />
    <glyph glyph-name="IJ" unicode="&#x132;" horiz-adv-x="1103" 
d="M707 1462h245v-1411q0 -172 -9 -251t-38 -132q-84 -168 -319 -168q-106 0 -213 41l90 185q51 -25 92 -25q106 0 137 119q14 63 15 227v1415zM154 0v1462h245v-1462h-245z" />
    <glyph glyph-name="ij" unicode="&#x133;" horiz-adv-x="991" 
d="M629 1221v252h233v-252h-233zM629 1051h233v-1033q4 -291 -86 -391t-354 -98v192q117 -3 163 57t44 216v1057zM129 0v1051h233v-1051h-233zM129 1221v252h233v-252h-233z" />
    <glyph glyph-name="Jcircumflex" unicode="&#x134;" horiz-adv-x="839" 
d="M537 1767l-101 -159h-221l238 297h168l239 -297h-221zM449 1462h245v-934q0 -172 -9 -248t-38 -133q-82 -168 -323 -167q-111 0 -197 36t-170 117l139 160q104 -113 206 -113t132 119q14 59 15 225v938z" />
    <glyph glyph-name="jcircumflex" unicode="&#x135;" horiz-adv-x="503" 
d="M244 1354l-101 -160h-221l238 297h168l239 -297h-221zM133 1051h234v-1033q4 -291 -86 -391t-355 -98v192q117 -3 163 57t44 216v1057z" />
    <glyph glyph-name="Kcommaaccent" unicode="&#x136;" horiz-adv-x="1089" 
d="M410 -477l88 344h223l-154 -344h-157zM156 0v1462h243v-635l416 635h277l-418 -600l440 -862h-276l-318 676l-121 -178v-498h-243z" />
    <glyph glyph-name="kcommaaccent" unicode="&#x137;" horiz-adv-x="952" 
d="M328 -477l88 344h223l-154 -344h-157zM131 0v1462h234v-889l321 478h256l-319 -443l331 -608h-254l-219 436l-116 -166v-270h-234z" />
    <glyph glyph-name="kgreenlandic" unicode="&#x138;" horiz-adv-x="950" 
d="M127 0v1051h233v-478l322 478h256l-320 -443l332 -608h-254l-219 436l-117 -166v-270h-233z" />
    <glyph glyph-name="Lacute" unicode="&#x139;" horiz-adv-x="964" 
d="M207 1602l145 307h262l-233 -307h-174zM154 0v1462h245v-1259h545v-203h-790z" />
    <glyph glyph-name="lacute" unicode="&#x13a;" horiz-adv-x="555" 
d="M152 1602l145 309h262l-233 -309h-174zM127 1462h233v-1065q-2 -119 32 -161t126 -43h31v-193h-41q-233 0 -307 82t-74 338v1042z" />
    <glyph glyph-name="Lcommaaccent" unicode="&#x13b;" horiz-adv-x="964" 
d="M352 -477l88 344h224l-154 -344h-158zM154 0v1462h245v-1259h545v-203h-790z" />
    <glyph glyph-name="lcommaaccent" unicode="&#x13c;" horiz-adv-x="555" 
d="M125 -477l88 344h223l-153 -344h-158zM123 1462h233v-1065q-2 -119 32 -161t126 -43h31v-193h-41q-233 0 -307 82t-74 338v1042z" />
    <glyph glyph-name="Lcaron" unicode="&#x13d;" horiz-adv-x="964" 
d="M553 954l57 537h224l-117 -537h-164zM154 0v1462h245v-1259h545v-203h-790z" />
    <glyph glyph-name="lcaron" unicode="&#x13e;" horiz-adv-x="733" 
d="M498 954l57 537h223l-116 -537h-164zM127 1462h233v-1065q-2 -119 32 -161t126 -43h31v-193h-41q-233 0 -307 82t-74 338v1042z" />
    <glyph glyph-name="Ldot" unicode="&#x13f;" horiz-adv-x="964" 
d="M641 608v248h207v-248h-207zM154 0v1462h245v-1259h545v-203h-790z" />
    <glyph glyph-name="ldot" unicode="&#x140;" horiz-adv-x="681" 
d="M479 608v248h207v-248h-207zM127 1462h233v-1065q-2 -119 32 -161t126 -43h31v-193h-41q-233 0 -307 82t-74 338v1042z" />
    <glyph glyph-name="Lslash" unicode="&#x141;" horiz-adv-x="962" 
d="M152 0v397l-121 -86v219l121 86v846h245v-686l320 230v-220l-320 -229v-354h545v-203h-790z" />
    <glyph glyph-name="lslash" unicode="&#x142;" horiz-adv-x="595" 
d="M147 1462h234v-567l199 139v-225l-199 -139v-273q-2 -119 32 -161t124 -43h30v-193h-39q-221 0 -298 75t-80 294v149l-156 -108v227l153 108v717z" />
    <glyph glyph-name="Nacute" unicode="&#x143;" horiz-adv-x="1263" 
d="M535 1602l145 307h262l-233 -307h-174zM154 0v1462h241l482 -1007v1007h233v-1462h-233l-488 1012v-1012h-235z" />
    <glyph glyph-name="nacute" unicode="&#x144;" horiz-adv-x="1015" 
d="M393 1188l146 309h262l-234 -309h-174zM127 0v1051h176l19 -88q49 61 104 86t143 24q227 0 297 -178q31 -76 31 -256v-639h-233v610q0 142 -33 202t-117 60t-119 -64t-35 -224v-584h-233z" />
    <glyph glyph-name="Ncommaaccent" unicode="&#x145;" horiz-adv-x="1263" 
d="M465 -477l88 344h223l-153 -344h-158zM154 0v1462h241l482 -1007v1007h233v-1462h-233l-488 1012v-1012h-235z" />
    <glyph glyph-name="ncommaaccent" unicode="&#x146;" horiz-adv-x="1015" 
d="M338 -477l88 344h223l-153 -344h-158zM127 0v1051h176l19 -88q49 61 104 86t143 24q227 0 297 -178q31 -76 31 -256v-639h-233v610q0 142 -33 202t-117 60t-119 -64t-35 -224v-584h-233z" />
    <glyph glyph-name="Ncaron" unicode="&#x147;" horiz-adv-x="1263" 
d="M647 1739l101 159h221l-240 -296h-166l-239 296h221zM154 0v1462h241l482 -1007v1007h233v-1462h-233l-488 1012v-1012h-235z" />
    <glyph glyph-name="ncaron" unicode="&#x148;" horiz-adv-x="1015" 
d="M504 1327l100 160h221l-239 -297h-166l-240 297h221zM127 0v1051h176l19 -88q49 61 104 86t143 24q227 0 297 -178q31 -76 31 -256v-639h-233v610q0 142 -33 202t-117 60t-119 -64t-35 -224v-584h-233z" />
    <glyph glyph-name="napostrophe" unicode="&#x149;" horiz-adv-x="1173" 
d="M-6 942l57 520h252l-104 -520h-205zM287 0v1051h176l18 -95q49 62 105 90t143 27q227 0 295 -178q31 -76 31 -256v-639h-234v610q0 142 -33 202q-34 60 -116 60t-117 -64t-35 -224v-584h-233z" />
    <glyph glyph-name="Eng" unicode="&#x14a;" horiz-adv-x="1263" 
d="M154 0v1462h241l482 -1001v1001h233v-1458q4 -281 -86 -379t-346 -96v186q113 -3 161 55t46 199v43l-496 1000v-1012h-235z" />
    <glyph glyph-name="eng" unicode="&#x14b;" horiz-adv-x="1015" 
d="M127 0v1051h176l19 -95q51 66 106 92t143 25q225 0 295 -178q31 -76 31 -256v-621q4 -291 -87 -392t-353 -97v195q115 -6 161 55t46 215v616q0 142 -33 202t-117 60t-119 -64t-35 -224v-584h-233z" />
    <glyph glyph-name="Omacron" unicode="&#x14c;" horiz-adv-x="1187" 
d="M322 1657v168h546v-168h-546zM817 524v414q0 188 -50 266t-173 78t-173 -78t-50 -266v-414q0 -188 50 -266t173 -78t173 78t50 266zM125 502v459q0 260 98 380q117 141 381 141t379 -165q80 -115 80 -356v-459q0 -260 -98 -381q-119 -141 -381 -141t-379 163
q-80 117 -80 359z" />
    <glyph glyph-name="omacron" unicode="&#x14d;" horiz-adv-x="1001" 
d="M227 1245v168h547v-168h-547zM662 422v207q0 137 -37 195t-125 58t-125 -58t-37 -195v-207q0 -136 37 -194t125 -58t125 58t37 194zM104 422v207q0 236 94 340t302 104q209 0 302 -104t93 -340v-207q0 -234 -93 -338t-302 -104q-208 0 -302 104t-94 338z" />
    <glyph glyph-name="Obreve" unicode="&#x14e;" horiz-adv-x="1187" 
d="M595 1755q77 0 110 31t40 112h148q-4 -135 -35 -192q-68 -121 -272 -121t-262 139q-23 51 -27 174h147q8 -82 41 -112t110 -31zM817 524v414q0 188 -50 266t-173 78t-173 -78t-50 -266v-414q0 -188 50 -266t173 -78t173 78t50 266zM125 502v459q0 260 98 380
q117 141 381 141t379 -165q80 -115 80 -356v-459q0 -260 -98 -381q-119 -141 -381 -141t-379 163q-80 117 -80 359z" />
    <glyph glyph-name="obreve" unicode="&#x14f;" horiz-adv-x="1001" 
d="M500 1343q76 0 108 30t43 112h148q-8 -137 -35 -191q-68 -120 -272 -120t-263 139q-22 49 -26 172h147q8 -80 41 -111t109 -31zM662 422v207q0 137 -37 195t-125 58t-125 -58t-37 -195v-207q0 -136 37 -194t125 -58t125 58t37 194zM104 422v207q0 236 94 340t302 104
q209 0 302 -104t93 -340v-207q0 -234 -93 -338t-302 -104q-208 0 -302 104t-94 338z" />
    <glyph glyph-name="Ohungarumlaut" unicode="&#x150;" horiz-adv-x="1187" 
d="M641 1599l115 310h243l-196 -310h-162zM344 1599l115 310h241l-194 -310h-162zM817 524v414q0 188 -50 266t-173 78t-173 -78t-50 -266v-414q0 -188 50 -266t173 -78t173 78t50 266zM125 502v459q0 260 98 380q117 141 381 141t379 -165q80 -115 80 -356v-459
q0 -260 -98 -381q-119 -141 -381 -141t-379 163q-80 117 -80 359z" />
    <glyph glyph-name="ohungarumlaut" unicode="&#x151;" horiz-adv-x="1001" 
d="M547 1188l115 309h243l-196 -309h-162zM250 1188l115 309h241l-194 -309h-162zM662 422v207q0 137 -37 195t-125 58t-125 -58t-37 -195v-207q0 -136 37 -194t125 -58t125 58t37 194zM104 422v207q0 236 94 340t302 104q209 0 302 -104t93 -340v-207q0 -234 -93 -338
t-302 -104q-208 0 -302 104t-94 338z" />
    <glyph glyph-name="OE" unicode="&#x152;" horiz-adv-x="1689" 
d="M371 940v-420q0 -186 51 -263t173 -77t174 78t52 262v420q0 184 -52 263t-174 79t-173 -78t-51 -264zM862 0v86q-94 -106 -299 -106q-252 0 -360 165q-78 119 -78 355v463q0 258 94 378q111 141 329 141t314 -102v82h740v-202h-537v-420h455v-203h-455v-434h545v-203
h-748z" />
    <glyph glyph-name="oe" unicode="&#x153;" horiz-adv-x="1548" 
d="M897 639h334v35q0 217 -167 217t-167 -219v-33zM664 422v205q0 137 -38 196t-125 59t-125 -58q-38 -60 -38 -197v-205q0 -132 38 -192t125 -60t125 60t38 192zM899 406q0 -240 166 -240q82 0 121 32t57 103l199 -43q-29 -147 -115 -213t-250 -65q-106 0 -172 26t-121 90
q-50 -63 -118 -90t-179 -26q-201 0 -292 106t-91 338v203q0 233 92 339t290 107q198 0 296 -119q84 119 289 119t294 -115t89 -370v-119h-555v-63z" />
    <glyph glyph-name="Racute" unicode="&#x154;" horiz-adv-x="1138" 
d="M444 1602l146 307h262l-234 -307h-174zM397 799h181q114 0 162 54t48 178t-49 178t-164 55h-178v-465zM401 606v-606h-245v1462h438q133 0 211 -24t131 -80q98 -100 98 -300t-54 -295t-181 -136l276 -627h-272l-244 606h-158z" />
    <glyph glyph-name="racute" unicode="&#x155;" horiz-adv-x="704" 
d="M266 1188l146 309h262l-234 -309h-174zM127 0v1051h178l29 -82q76 104 196 104q90 0 191 -63l-100 -195q-69 55 -133 55t-96 -84t-32 -276v-510h-233z" />
    <glyph glyph-name="Rcommaaccent" unicode="&#x156;" horiz-adv-x="1138" 
d="M414 -477l88 344h223l-154 -344h-157zM397 799h181q114 0 162 54t48 178t-49 178t-164 55h-178v-465zM401 606v-606h-245v1462h438q133 0 211 -24t131 -80q98 -100 98 -300t-54 -295t-181 -136l276 -627h-272l-244 606h-158z" />
    <glyph glyph-name="rcommaaccent" unicode="&#x157;" horiz-adv-x="704" 
d="M47 -477l86 344h225l-153 -344h-158zM127 0v1051h178l29 -82q76 104 196 104q88 0 193 -63l-102 -195q-69 55 -133 55t-96 -84t-32 -276v-510h-233z" />
    <glyph glyph-name="Rcaron" unicode="&#x158;" horiz-adv-x="1138" 
d="M543 1739l100 159h221l-239 -296h-166l-240 296h221zM397 799h181q114 0 162 54t48 178t-49 178t-164 55h-178v-465zM401 606v-606h-245v1462h438q133 0 211 -24t131 -80q98 -100 98 -300t-54 -295t-181 -136l276 -627h-272l-244 606h-158z" />
    <glyph glyph-name="rcaron" unicode="&#x159;" horiz-adv-x="704" 
d="M393 1327l103 160h221l-240 -297h-166l-239 297h221zM127 0v1051h178l29 -82q74 104 196 104q88 0 193 -63l-102 -195q-69 55 -133 55q-128 0 -128 -360v-510h-233z" />
    <glyph glyph-name="Sacute" unicode="&#x15a;" horiz-adv-x="1028" 
d="M393 1602l146 307h262l-234 -307h-174zM496 178q227 0 227 223q0 109 -57 156q-31 27 -59 37t-158 49q-195 57 -278 155t-83 282q0 186 111 294t298 109q187 0 283 -77t135 -247l-206 -59q-35 104 -77 144t-127 40t-133 -53t-48 -149t53 -149q53 -52 186 -91
q133 -38 179 -58t94 -55q122 -96 122 -314q-1 -438 -460 -438q-262 0 -373 142q-53 62 -88 207l211 61q29 -113 86 -161t162 -48z" />
    <glyph glyph-name="sacute" unicode="&#x15b;" horiz-adv-x="882" 
d="M315 1188l146 309h262l-234 -309h-174zM428 168q172 0 172 137q0 72 -49 98q-27 16 -148 41q-172 31 -237 93q-80 69 -80 221t89 234t275 81q186 0 273 -112q37 -49 63 -152l-194 -49q-16 66 -52 96t-101 29q-65 0 -99 -33t-35 -91q0 -58 36 -87t126 -45q199 -37 266 -90
q86 -68 86 -238q0 -322 -393 -321q-174 0 -265 65t-122 215l201 43q20 -75 62 -105t126 -30z" />
    <glyph glyph-name="Scircumflex" unicode="&#x15c;" horiz-adv-x="1028" 
d="M516 1767l-100 -159h-221l237 297h168l240 -297h-222zM496 178q227 0 227 223q0 109 -57 156q-31 27 -59 37t-158 49q-195 57 -278 155t-83 282q0 186 111 294t298 109q187 0 283 -77t135 -247l-206 -59q-35 104 -77 144t-127 40t-133 -53t-48 -149t53 -149
q53 -52 186 -91q133 -38 179 -58t94 -55q122 -96 122 -314q-1 -438 -460 -438q-262 0 -373 142q-53 62 -88 207l211 61q29 -113 86 -161t162 -48z" />
    <glyph glyph-name="scircumflex" unicode="&#x15d;" horiz-adv-x="882" 
d="M438 1354l-100 -160h-221l237 297h168l240 -297h-221zM428 168q172 0 172 137q0 72 -49 98q-27 16 -148 41q-172 31 -237 93q-80 69 -80 221t89 234t275 81q186 0 273 -112q37 -49 63 -152l-194 -49q-16 66 -52 96t-101 29q-65 0 -99 -33t-35 -91q0 -58 36 -87t126 -45
q199 -37 266 -90q86 -68 86 -238q0 -322 -393 -321q-174 0 -265 65t-122 215l201 43q20 -75 62 -105t126 -30z" />
    <glyph glyph-name="Scedilla" unicode="&#x15e;" horiz-adv-x="1028" 
d="M326 -477l88 344h223l-154 -344h-157zM496 178q227 0 227 223q0 109 -57 156q-31 27 -59 37t-158 49q-195 57 -278 155t-83 282q0 186 111 294t298 109q187 0 283 -77t135 -247l-206 -59q-35 104 -77 144t-127 40t-133 -53t-48 -149t53 -149q53 -52 186 -91
q133 -38 179 -58t94 -55q122 -96 122 -314q-1 -438 -460 -438q-262 0 -373 142q-53 62 -88 207l211 61q29 -113 86 -161t162 -48z" />
    <glyph glyph-name="scedilla" unicode="&#x15f;" horiz-adv-x="882" 
d="M258 -477l88 344h223l-153 -344h-158zM428 168q172 0 172 137q0 72 -49 98q-27 16 -148 41q-172 31 -237 93q-80 69 -80 221t89 234t275 81q186 0 273 -112q37 -49 63 -152l-194 -49q-16 66 -52 96t-101 29q-65 0 -99 -33t-35 -91q0 -58 36 -87t126 -45q199 -37 266 -90
q86 -68 86 -238q0 -322 -393 -321q-174 0 -265 65t-122 215l201 43q20 -75 62 -105t126 -30z" />
    <glyph glyph-name="Scaron" unicode="&#x160;" horiz-adv-x="1028" 
d="M514 1739l100 159h222l-240 -296h-166l-240 296h222zM496 178q227 0 227 223q0 109 -57 156q-31 27 -59 37t-158 49q-195 57 -278 155t-83 282q0 186 111 294t298 109q187 0 283 -77t135 -247l-206 -59q-35 104 -77 144t-127 40t-133 -53t-48 -149t53 -149
q53 -52 186 -91q133 -38 179 -58t94 -55q122 -96 122 -314q-1 -438 -460 -438q-262 0 -373 142q-53 62 -88 207l211 61q29 -113 86 -161t162 -48z" />
    <glyph glyph-name="scaron" unicode="&#x161;" horiz-adv-x="882" 
d="M442 1327l101 160h221l-240 -297h-166l-239 297h221zM428 168q172 0 172 137q0 72 -49 98q-27 16 -148 41q-172 31 -237 93q-80 69 -80 221t89 234t275 81q186 0 273 -112q37 -49 63 -152l-194 -49q-16 66 -52 96t-101 29q-65 0 -99 -33t-35 -91q0 -58 36 -87t126 -45
q199 -37 266 -90q86 -68 86 -238q0 -322 -393 -321q-174 0 -265 65t-122 215l201 43q20 -75 62 -105t126 -30z" />
    <glyph glyph-name="Tcommaaccent" unicode="&#x162;" horiz-adv-x="950" 
d="M283 -477l88 344h223l-154 -344h-157zM354 0v1260h-327v202h899v-202h-326v-1260h-246z" />
    <glyph glyph-name="tcommaaccent" unicode="&#x163;" horiz-adv-x="626" 
d="M166 -477l88 344h223l-153 -344h-158zM156 862h-107v189h107l14 309h219v-309h182v-189h-182v-485q-2 -107 30 -147t116 -37h34v-193h-49q-227 0 -297 76t-67 323v463z" />
    <glyph glyph-name="Tcaron" unicode="&#x164;" horiz-adv-x="950" 
d="M477 1739l101 159h221l-240 -296h-166l-239 296h221zM354 0v1260h-327v202h899v-202h-326v-1260h-246z" />
    <glyph glyph-name="tcaron" unicode="&#x165;" horiz-adv-x="788" 
d="M567 1126l47 447h224l-107 -447h-164zM156 862h-107v189h107l14 309h219v-309h182v-189h-182v-485q-2 -107 30 -147t116 -37h34v-193h-49q-227 0 -297 76t-67 323v463z" />
    <glyph glyph-name="Tbar" unicode="&#x166;" horiz-adv-x="950" 
d="M354 0v641h-219v197h219v422h-327v202h899v-202h-326v-422h217v-197h-217v-641h-246z" />
    <glyph glyph-name="tbar" unicode="&#x167;" horiz-adv-x="630" 
d="M162 862h-109v189h109l14 309h219v-309h180v-189h-180v-147h176v-160h-176v-190q0 -99 32 -137t114 -35h34v-193h-49q-223 0 -293 72t-71 299v184h-109v160h109v147z" />
    <glyph glyph-name="Utilde" unicode="&#x168;" horiz-adv-x="1210" 
d="M723 1772q45 0 59 110h142q-12 -109 -35 -168q-47 -111 -164 -110q-83 0 -143 62t-82 63q-56 0 -70 -111h-141q20 117 45 166q51 113 164 112q76 0 138 -62t87 -62zM147 1462h246v-970q0 -180 45 -246t167 -66t167 66t45 246v970h246v-970q0 -148 -16 -224t-60 -135
q-117 -153 -393 -153t-387 176q-59 96 -60 336v970z" />
    <glyph glyph-name="utilde" unicode="&#x169;" horiz-adv-x="995" 
d="M391 1483q76 -1 138 -63t87 -62q43 0 60 110h141q-16 -119 -35 -165q-47 -111 -164 -111q-84 0 -143 62t-82 63q-55 0 -69 -111h-142q20 117 45 166q51 111 164 111zM121 1051h233v-611q0 -143 31 -201q31 -59 107 -59t110 65q33 65 33 222v584h233v-1051h-168l-22 92
q-47 -63 -99 -88t-139 -24q-221 0 -290 178q-29 74 -29 254v639z" />
    <glyph glyph-name="Umacron" unicode="&#x16a;" horiz-adv-x="1210" 
d="M332 1657v168h547v-168h-547zM147 1462h246v-970q0 -180 45 -246t167 -66t167 66t45 246v970h246v-970q0 -148 -16 -224t-60 -135q-117 -153 -393 -153t-387 176q-59 96 -60 336v970z" />
    <glyph glyph-name="umacron" unicode="&#x16b;" horiz-adv-x="995" 
d="M225 1245v168h547v-168h-547zM121 1051h233v-611q0 -143 31 -201q31 -59 107 -59t110 65q33 65 33 222v584h233v-1051h-168l-22 92q-47 -63 -99 -88t-139 -24q-221 0 -290 178q-29 74 -29 254v639z" />
    <glyph glyph-name="Ubreve" unicode="&#x16c;" horiz-adv-x="1210" 
d="M606 1755q76 0 109 31t41 112h147q-4 -135 -35 -192q-68 -121 -272 -121t-262 139q-23 51 -27 174h148q8 -82 41 -112q34 -30 110 -31zM147 1462h246v-970q0 -180 45 -246t167 -66t167 66t45 246v970h246v-970q0 -148 -16 -224t-60 -135q-117 -153 -393 -153t-387 176
q-59 96 -60 336v970z" />
    <glyph glyph-name="ubreve" unicode="&#x16d;" horiz-adv-x="995" 
d="M498 1343q76 0 108 30t43 112h148q-8 -137 -35 -191q-68 -120 -272 -120t-263 139q-22 49 -26 172h147q8 -80 41 -111t109 -31zM121 1051h233v-611q0 -143 31 -201q31 -59 107 -59t110 65q33 65 33 222v584h233v-1051h-168l-22 92q-47 -63 -99 -88t-139 -24
q-221 0 -290 178q-29 74 -29 254v639z" />
    <glyph glyph-name="Uring" unicode="&#x16e;" horiz-adv-x="1210" 
d="M694 1806q0 112 -90 113q-90 0 -90 -113t90 -112q90 0 90 112zM604 2032q106 0 171 -62t65 -162t-66 -163t-170 -63t-170 62q-66 64 -66 165t65 162t171 61zM147 1462h246v-970q0 -180 45 -246t167 -66t167 66t45 246v970h246v-970q0 -148 -16 -224t-60 -135
q-117 -153 -393 -153t-387 176q-59 96 -60 336v970z" />
    <glyph glyph-name="uring" unicode="&#x16f;" horiz-adv-x="995" 
d="M498 1282q90 0 90 114t-90 113q-90 1 -90 -113t90 -114zM262 1398q0 102 64 162t172 60q106 0 171 -61t65 -161t-66 -165q-66 -63 -170 -63t-170 62q-66 64 -66 166zM121 1051h233v-611q0 -143 31 -201q31 -59 107 -59t110 65q33 65 33 222v584h233v-1051h-168l-22 92
q-47 -63 -99 -88t-139 -24q-221 0 -290 178q-29 74 -29 254v639z" />
    <glyph glyph-name="Uhungarumlaut" unicode="&#x170;" horiz-adv-x="1210" 
d="M653 1599l115 310h244l-197 -310h-162zM356 1599l115 310h242l-195 -310h-162zM147 1462h246v-970q0 -180 45 -246t167 -66t167 66t45 246v970h246v-970q0 -148 -16 -224t-60 -135q-117 -153 -393 -153t-387 176q-59 96 -60 336v970z" />
    <glyph glyph-name="uhungarumlaut" unicode="&#x171;" horiz-adv-x="995" 
d="M545 1188l114 309h244l-196 -309h-162zM248 1188l114 309h242l-194 -309h-162zM121 1051h233v-611q0 -143 31 -201q31 -59 107 -59t110 65q33 65 33 222v584h233v-1051h-168l-22 92q-47 -63 -99 -88t-139 -24q-221 0 -290 178q-29 74 -29 254v639z" />
    <glyph glyph-name="Uogonek" unicode="&#x172;" horiz-adv-x="1210" 
d="M162 1462h246v-970q0 -154 28 -210t71 -80q42 -22 116 -22q73 0 117 26t69 85q23 59 22 201v970h246v-970q4 -203 -51 -314t-190 -168q-139 -127 -140 -225q0 -76 80 -76q45 0 109 21l24 -119q-88 -37 -180 -37q-240 0 -240 174q0 123 127 232q-244 0 -354 124t-100 388
v970z" />
    <glyph glyph-name="uogonek" unicode="&#x173;" horiz-adv-x="995" 
d="M793 -291q45 0 106 21l25 -119q-82 -37 -183 -37q-238 0 -237 170q0 145 194 260l-20 88q-47 -63 -99 -88t-139 -24q-221 0 -290 178q-29 74 -29 254v639h233v-611q0 -143 31 -201q31 -59 107 -59t110 65q33 65 33 222v584h233v-1051q-90 -72 -124 -121t-33 -96
q0 -74 82 -74z" />
    <glyph glyph-name="Wcircumflex" unicode="&#x174;" horiz-adv-x="1634" 
d="M817 1767l-100 -159h-221l237 297h168l240 -297h-221zM348 0l-307 1462h246l184 -1073l252 1073h188l252 -1073l185 1073h245l-307 -1462h-219l-250 1026l-250 -1026h-219z" />
    <glyph glyph-name="wcircumflex" unicode="&#x175;" horiz-adv-x="1380" 
d="M688 1354l-100 -160h-221l237 297h168l240 -297h-221zM309 0l-264 1051h238l141 -723l182 723h166l184 -723l142 723h235l-262 -1051h-201l-180 674l-182 -674h-199z" />
    <glyph glyph-name="Ycircumflex" unicode="&#x176;" horiz-adv-x="968" 
d="M485 1767l-100 -159h-221l237 297h168l240 -297h-221zM365 0v520l-396 942h258l260 -671l261 671h260l-398 -942v-520h-245z" />
    <glyph glyph-name="ycircumflex" unicode="&#x177;" horiz-adv-x="903" 
d="M451 1354l-101 -160h-221l238 297h168l239 -297h-221zM86 -279q110 0 148 32t73 157l27 96l-309 1045h235l193 -764l182 764h237l-325 -1160q-47 -161 -94 -233t-127 -100t-240 -29v192z" />
    <glyph glyph-name="Ydieresis" unicode="&#x178;" horiz-adv-x="968" 
d="M565 1612v246h207v-246h-207zM199 1612v246h207v-246h-207zM365 0v520l-396 942h258l260 -671l261 671h260l-398 -942v-520h-245z" />
    <glyph glyph-name="Zacute" unicode="&#x179;" horiz-adv-x="970" 
d="M406 1602l145 307h262l-233 -307h-174zM70 0v150l534 1110h-498v202h771v-149l-535 -1110h559v-203h-831z" />
    <glyph glyph-name="zacute" unicode="&#x17a;" horiz-adv-x="827" 
d="M326 1188l145 309h262l-233 -309h-174zM51 0v141l406 717h-369v193h647v-144l-405 -714h432v-193h-711z" />
    <glyph glyph-name="Zdotaccent" unicode="&#x17b;" horiz-adv-x="970" 
d="M403 1610v245h226v-245h-226zM70 0v150l534 1110h-498v202h771v-149l-535 -1110h559v-203h-831z" />
    <glyph glyph-name="zdotaccent" unicode="&#x17c;" horiz-adv-x="827" 
d="M317 1198v246h226v-246h-226zM51 0v141l406 717h-369v193h647v-144l-405 -714h432v-193h-711z" />
    <glyph glyph-name="Zcaron" unicode="&#x17d;" horiz-adv-x="970" 
d="M528 1739l101 159h221l-240 -296h-166l-239 296h221zM70 0v150l534 1110h-498v202h771v-149l-535 -1110h559v-203h-831z" />
    <glyph glyph-name="zcaron" unicode="&#x17e;" horiz-adv-x="827" 
d="M440 1327l101 160h221l-240 -297h-166l-239 297h221zM51 0v141l406 717h-369v193h647v-144l-405 -714h432v-193h-711z" />
    <glyph glyph-name="Ohorn" unicode="&#x1a0;" horiz-adv-x="1261" 
d="M817 524v414q0 188 -50 266t-173 78t-173 -78t-50 -266v-414q0 -188 50 -266t173 -78t173 78t50 266zM1063 961v-459q0 -260 -98 -381q-119 -141 -381 -141t-379 163q-80 117 -80 359v459q0 262 98 380q115 141 373 142q184 0 290 -71t152 -222q84 74 84 154t-35 141h203
q14 -49 15 -94q1 -109 -51 -182t-195 -160q4 -39 4 -88z" />
    <glyph glyph-name="ohorn" unicode="&#x1a1;" horiz-adv-x="1089" 
d="M662 422v207q0 137 -37 194t-125 57t-125 -56q-37 -58 -37 -195v-207q0 -136 37 -194t125 -58t125 58t37 194zM1130 967q0 -184 -237 -328q2 -25 2 -68v-149q0 -234 -93 -338t-302 -104t-302 104t-94 338v207q0 233 94 339t284 105q188 -1 279 -69t122 -218q41 53 52 82
t11 82t-33 119h201q16 -57 16 -102z" />
    <glyph glyph-name="Uhorn" unicode="&#x1af;" horiz-adv-x="1335" 
d="M147 1462h246v-970q0 -154 31 -216q47 -96 182 -96q76 0 120 26t69 85q23 59 22 201v970h246v-313q78 45 111 93q32 48 32 117t-32 126h200q14 -55 15 -99q0 -158 -156 -278q-35 -27 -170 -107v-509q0 -148 -16 -224t-62 -135q-61 -82 -150 -118t-229 -35
q-287 0 -397 176q-61 96 -62 336v970z" />
    <glyph glyph-name="uhorn" unicode="&#x1b0;" horiz-adv-x="1142" 
d="M121 1051h233v-611q0 -143 31 -201q31 -59 109 -59t110 65t33 222v584h233v-320q80 45 112 92t32 113t-33 133h201q14 -57 14 -100q0 -158 -156 -279q-47 -35 -170 -106v-584h-168l-22 92q-45 -63 -98 -88t-142 -24q-221 0 -290 178q-29 74 -29 254v639z" />
    <glyph glyph-name="uni01C4" unicode="&#x1c4;" horiz-adv-x="2107" 
d="M1663 1739l102 159h220l-238 -296h-168l-238 296h222zM1206 0v150l535 1110h-498v202h770v-149l-534 -1110h559v-203h-832zM399 199h154q152 -3 208 69t58 264v400q-2 194 -58 264t-208 68h-154v-1065zM154 0v1462h419q258 4 378 -118t114 -381v-461q4 -262 -115 -384
t-377 -118h-419z" />
    <glyph glyph-name="uni01C5" unicode="&#x1c5;" horiz-adv-x="2017" 
d="M1626 1327l103 160h221l-240 -297h-166l-239 297h221zM1239 0v141l406 717h-367v193h645v-144l-403 -714h430v-193h-711zM399 199h154q152 -3 208 69t58 264v400q-2 194 -58 264t-208 68h-154v-1065zM154 0v1462h419q258 4 378 -118t114 -381v-461q4 -262 -115 -384
t-377 -118h-419z" />
    <glyph glyph-name="uni01C6" unicode="&#x1c6;" horiz-adv-x="1839" 
d="M1448 1327l102 160h222l-240 -297h-168l-238 297h222zM1061 0v141l405 717h-366v193h645v-144l-404 -714h431v-193h-711zM338 635v-201q0 -135 37 -197t114 -63q160 0 160 252v199q0 254 -160 254q-151 0 -151 -244zM104 436v201q0 227 80 331t254 105q125 0 211 -72v461
h234v-1462h-181l-14 72q-93 -93 -239 -92q-182 0 -264 107q-81 108 -81 349z" />
    <glyph glyph-name="uni01C7" unicode="&#x1c7;" horiz-adv-x="1517" 
d="M1118 1462h246v-1411q0 -172 -9 -251t-38 -132q-84 -168 -320 -168q-106 0 -213 41l90 185q51 -25 93 -25q106 0 137 119q14 63 14 227v1415zM154 0v1462h245v-1259h545v-203h-790z" />
    <glyph glyph-name="uni01C8" unicode="&#x1c8;" horiz-adv-x="1468" 
d="M1104 1051h233v-1033q4 -291 -86 -391t-354 -98v192q117 -3 163 57t44 216v1057zM1104 1221v252h233v-252h-233zM154 0v1462h245v-1259h545v-203h-790z" />
    <glyph glyph-name="uni01C9" unicode="&#x1c9;" horiz-adv-x="1056" 
d="M694 1051h234v-1033q4 -291 -86 -391t-355 -98v192q117 -3 163 57t44 216v1057zM694 1221v252h234v-252h-234zM127 1462h233v-1065q-2 -119 32 -161t126 -43h31v-193h-41q-233 0 -307 82t-74 338v1042z" />
    <glyph glyph-name="uni01CA" unicode="&#x1ca;" horiz-adv-x="1814" 
d="M1417 1462h246v-1411q0 -172 -9 -251t-38 -132q-82 -168 -324 -168q-104 0 -209 41l91 185q51 -25 92 -25q106 0 137 119q14 63 14 227v1415zM154 0v1462h241l482 -1007v1007h233v-1462h-233l-488 1012v-1012h-235z" />
    <glyph glyph-name="uni01CB" unicode="&#x1cb;" horiz-adv-x="1765" 
d="M1403 1221v252h233v-252h-233zM1403 1051h233v-1033q4 -291 -86 -391t-354 -98v192q117 -3 163 57t44 216v1057zM154 0v1462h241l482 -1007v1007h233v-1462h-233l-488 1012v-1012h-235z" />
    <glyph glyph-name="uni01CC" unicode="&#x1cc;" horiz-adv-x="1519" 
d="M1155 1221v252h234v-252h-234zM1155 1051h234v-1033q4 -289 -86 -390t-353 -99v192q115 -3 161 57t44 216v1057zM127 0v1051h176l19 -88q49 61 104 86t143 24q227 0 297 -178q31 -76 31 -256v-639h-233v610q0 142 -33 202t-117 60t-119 -64t-35 -224v-584h-233z" />
    <glyph glyph-name="uni01CD" unicode="&#x1cd;" horiz-adv-x="1089" 
d="M547 1739l100 159h221l-239 -296h-166l-240 296h221zM727 494l-178 653l-178 -653h356zM778 295h-459l-79 -295h-267l463 1462h223l463 -1462h-264z" />
    <glyph glyph-name="uni01CE" unicode="&#x1ce;" horiz-adv-x="956" 
d="M487 1327l101 160h221l-240 -297h-166l-239 297h221zM604 469h-131q-96 0 -136 -37t-40 -122q0 -86 34 -116t122 -30q87 0 119 36t32 136v133zM604 631v47q0 113 -33 159t-105 46t-108 -30t-55 -103l-199 59q70 264 363 264q242 0 326 -155q45 -88 45 -271v-647h-183
l-14 63q-45 -47 -99 -65t-147 -18q-176 0 -251 74q-74 74 -74 253q0 180 77 252q78 72 279 72h178z" />
    <glyph glyph-name="uni01CF" unicode="&#x1cf;" horiz-adv-x="552" 
d="M274 1739l103 159h221l-240 -296h-165l-240 296h221zM152 0v1462h245v-1462h-245z" />
    <glyph glyph-name="uni01D0" unicode="&#x1d0;" horiz-adv-x="491" 
d="M246 1327l102 160h221l-239 -297h-166l-240 297h221zM129 0v1051h233v-1051h-233z" />
    <glyph glyph-name="uni01D1" unicode="&#x1d1;" horiz-adv-x="1187" 
d="M594 1739l102 159h222l-240 -296h-168l-238 296h222zM817 524v414q0 188 -50 266t-173 78t-173 -78t-50 -266v-414q0 -188 50 -266t173 -78t173 78t50 266zM125 502v459q0 260 98 380q117 141 381 141t379 -165q80 -115 80 -356v-459q0 -260 -98 -381
q-119 -141 -382 -141t-376 163q-82 117 -82 359z" />
    <glyph glyph-name="uni01D2" unicode="&#x1d2;" horiz-adv-x="1001" 
d="M502 1327l100 160h221l-239 -297h-166l-240 297h221zM662 422v207q0 137 -37 195t-125 58t-125 -58t-37 -195v-207q0 -136 37 -194t125 -58t125 58t37 194zM104 422v207q0 236 94 340t302 104q209 0 302 -104t93 -340v-207q0 -234 -93 -338t-302 -104q-208 0 -302 104
t-94 338z" />
    <glyph glyph-name="uni01D3" unicode="&#x1d3;" horiz-adv-x="1210" 
d="M606 1739l101 159h221l-240 -296h-166l-239 296h221zM147 1462h246v-970q0 -180 45 -246t167 -66t167 66t45 246v970h246v-970q0 -148 -16 -224t-60 -135q-117 -153 -393 -153t-387 176q-59 96 -60 336v970z" />
    <glyph glyph-name="uni01D4" unicode="&#x1d4;" horiz-adv-x="995" 
d="M500 1327l100 160h221l-239 -297h-166l-240 297h221zM121 1051h233v-611q0 -143 31 -201q31 -59 107 -59t110 65q33 65 33 222v584h233v-1051h-168l-22 92q-47 -63 -99 -88t-139 -24q-221 0 -290 178q-29 74 -29 254v639z" />
    <glyph glyph-name="Gcaron" unicode="&#x1e6;" horiz-adv-x="1165" 
d="M586 1739l100 159h221l-239 -296h-166l-240 296h221zM371 920v-381q0 -201 49 -280t170 -79t174 73t53 230v121h-203v191h447v-260q1 -150 -19 -239t-69 -155q-117 -161 -383 -161t-381 163q-84 117 -84 379v414q0 289 102 407q119 137 359 138q422 0 436 -420l-225 -8
q-16 227 -207 227q-121 0 -170 -80t-49 -280z" />
    <glyph glyph-name="gcaron" unicode="&#x1e7;" horiz-adv-x="1011" 
d="M524 1327l101 160h221l-240 -297h-166l-239 297h221zM338 635v-199q0 -137 37 -199t117 -63q160 0 159 252v199q0 254 -159 254q-80 -1 -117 -59t-37 -185zM651 -33v78q-86 -66 -211 -65q-176 0 -256 110t-80 348v199q0 227 80 331t242 105q162 0 256 -96l23 74h180
v-1055q-1 -248 -99 -363t-307 -114q-153 0 -235 60t-115 200l197 49q22 -72 54 -98t95 -27q94 1 135 63t41 201z" />
    <glyph glyph-name="uni01EA" unicode="&#x1ea;" horiz-adv-x="1187" 
d="M825 524v414q0 188 -50 266t-173 78t-173 -78t-50 -266v-414q0 -188 50 -266t173 -78t173 78t50 266zM1071 961v-459q4 -195 -54 -313t-186 -175q-8 -6 -14 -12q-139 -125 -139 -217q0 -74 80 -74q45 0 108 19l25 -119q-84 -35 -182 -35q-238 0 -238 170q0 123 133 234
q-244 -4 -360 126t-111 396v459q0 260 98 380q119 141 382 141t378 -165q80 -114 80 -356z" />
    <glyph glyph-name="uni01EB" unicode="&#x1eb;" horiz-adv-x="1001" 
d="M664 422v207q0 137 -37 195t-125 58t-125 -58t-37 -195v-207q0 -136 37 -194t125 -58t125 58t37 194zM897 629v-207q0 -168 -43 -263t-141 -141q-78 -82 -107 -130t-28 -101q0 -76 79 -76q41 0 109 19l25 -119q-84 -35 -183 -35q-238 0 -237 172q0 123 116 232
q-205 6 -293 109t-88 333v207q0 236 94 340t302 104q209 0 302 -104t93 -340z" />
    <glyph glyph-name="uni01F1" unicode="&#x1f1;" horiz-adv-x="2107" 
d="M1206 0v150l535 1110h-498v202h770v-149l-534 -1110h559v-203h-832zM399 199h154q152 -3 208 69t58 264v400q-2 194 -58 264t-208 68h-154v-1065zM154 0v1462h419q258 4 378 -118t114 -381v-461q4 -262 -115 -384t-377 -118h-419z" />
    <glyph glyph-name="uni01F2" unicode="&#x1f2;" horiz-adv-x="2017" 
d="M1239 0v141l406 717h-367v193h645v-144l-403 -714h430v-193h-711zM399 199h154q152 -3 208 69t58 264v400q-2 194 -58 264t-208 68h-154v-1065zM154 0v1462h419q258 4 378 -118t114 -381v-461q4 -262 -115 -384t-377 -118h-419z" />
    <glyph glyph-name="uni01F3" unicode="&#x1f3;" horiz-adv-x="1839" 
d="M1061 0v141l405 717h-366v193h645v-144l-404 -714h431v-193h-711zM338 635v-201q0 -135 37 -197t114 -63q160 0 160 252v199q0 254 -160 254q-151 0 -151 -244zM104 436v201q0 227 80 331t254 105q125 0 211 -72v461h234v-1462h-181l-14 72q-93 -93 -239 -92
q-182 0 -264 107q-81 108 -81 349z" />
    <glyph glyph-name="uni01F4" unicode="&#x1f4;" horiz-adv-x="1165" 
d="M465 1602l145 307h262l-233 -307h-174zM371 920v-381q0 -201 49 -280t170 -79t174 73t53 230v121h-203v191h447v-260q1 -150 -19 -239t-69 -155q-117 -161 -383 -161t-381 163q-84 117 -84 379v414q0 289 102 407q119 137 359 138q422 0 436 -420l-225 -8
q-16 227 -207 227q-121 0 -170 -80t-49 -280z" />
    <glyph glyph-name="uni01F5" unicode="&#x1f5;" horiz-adv-x="1011" 
d="M397 1188l146 309h262l-234 -309h-174zM338 635v-199q0 -137 37 -199t117 -63q160 0 159 252v199q0 254 -159 254q-80 -1 -117 -59t-37 -185zM651 -33v78q-86 -66 -211 -65q-176 0 -256 110t-80 348v199q0 227 80 331t242 105q162 0 256 -96l23 74h180v-1055
q-1 -248 -99 -363t-307 -114q-153 0 -235 60t-115 200l197 49q22 -72 54 -98t95 -27q94 1 135 63t41 201z" />
    <glyph glyph-name="Aringacute" unicode="&#x1fa;" horiz-adv-x="1089" 
d="M449 1841l106 258h279l-236 -258h-149zM546 1692q-89 0 -89 -114t89 -114t89 114t-89 114zM727 494l-178 653l-178 -653h356zM544 1802q106 0 172 -60q64 -60 64 -171t-98 -180l440 -1391h-264l-80 295h-459l-79 -295h-267l441 1386q-102 68 -102 182t62 174
q64 60 170 60z" />
    <glyph glyph-name="aringacute" unicode="&#x1fb;" horiz-adv-x="956" 
d="M385 1657l107 258h278l-235 -258h-150zM571 1366q0 113 -89 113t-89 -113t89 -113t89 113zM482 1591q106 0 170 -61q64 -62 64 -162t-65 -164q-66 -64 -169 -63q-103 0 -169 63q-65 62 -65 164t64 162t170 61zM604 469h-131q-96 0 -136 -37t-40 -122q0 -86 34 -116
t122 -30q87 0 119 36t32 136v133zM604 631v47q0 113 -33 159t-105 46t-108 -30t-55 -103l-199 59q70 264 363 264q242 0 326 -155q45 -88 45 -271v-647h-183l-14 63q-45 -47 -99 -65t-147 -18q-176 0 -251 74q-74 74 -74 253q0 180 77 252q78 72 279 72h178z" />
    <glyph glyph-name="AEacute" unicode="&#x1fc;" horiz-adv-x="1689" 
d="M1008 1602l145 307h262l-233 -307h-174zM821 520v740h-22l-367 -740h389zM821 322h-485l-160 -322h-282l786 1462h922v-202h-539v-420h457v-203h-457v-434h547v-203h-789v322z" />
    <glyph glyph-name="aeacute" unicode="&#x1fd;" horiz-adv-x="1488" 
d="M618 1188l146 309h262l-233 -309h-175zM840 635h334v39q0 217 -167 217t-167 -219v-37zM604 469h-131q-94 0 -135 -38t-41 -123t34 -117q34 -31 120 -31q85 0 119 40t34 148v121zM1395 588v-119h-555v-61q0 -126 43 -184t135 -58q133 0 166 135l198 -43
q-28 -145 -114 -212t-250 -66q-205 0 -295 126q-82 -127 -328 -126q-176 0 -251 74q-74 74 -74 252q0 179 78 252q79 73 278 73h178v45q0 113 -34 160t-105 47q-71 -1 -105 -27t-65 -102l-189 59q27 125 118 193t237 67q188 0 268 -112q92 113 290 113t287 -116
q89 -115 89 -370z" />
    <glyph glyph-name="Oslashacute" unicode="&#x1fe;" horiz-adv-x="1187" 
d="M467 1602l145 307h262l-233 -307h-174zM588 1282q-119 0 -169 -78t-50 -266v-406l391 680q-53 70 -172 70zM599 180q118 0 168 78t50 266v404l-391 -680q55 -68 173 -68zM1063 961v-459q0 -260 -98 -381q-119 -141 -371 -141q-178 0 -285 63l-53 -92l-166 98l84 146
q-51 121 -51 307v459q0 262 98 380q119 141 373 142q184 0 285 -66l51 90l166 -96l-84 -145q51 -117 51 -305z" />
    <glyph glyph-name="oslashacute" unicode="&#x1ff;" horiz-adv-x="1001" 
d="M371 1188l145 309h262l-233 -309h-174zM488 883q-78 -1 -116 -59t-38 -193v-225l272 436q-40 41 -118 41zM504 170q80 0 118 58t37 194v229l-274 -440q39 -41 119 -41zM893 422q0 -234 -93 -338t-300 -104q-147 0 -232 47l-45 -74l-123 80l60 96q-59 100 -60 293v209
q0 233 94 337t300 105q145 0 229 -47l45 72l123 -80l-60 -92q61 -94 62 -295v-209z" />
    <glyph glyph-name="uni0200" unicode="&#x200;" horiz-adv-x="1089" 
d="M500 1599h-162l-195 310h242zM799 1599h-162l-197 310h244zM727 494l-178 653l-178 -653h356zM778 295h-459l-79 -295h-267l463 1462h223l463 -1462h-264z" />
    <glyph glyph-name="uni0201" unicode="&#x201;" horiz-adv-x="956" 
d="M436 1188h-162l-194 309h242zM735 1188h-162l-196 309h244zM594 469h-131q-96 0 -136 -37t-40 -122q0 -86 34 -116q33 -30 121 -30t120 36t32 136v133zM594 631v47q0 113 -33 159t-105 46t-108 -30q-35 -30 -55 -103l-199 59q70 264 363 264q242 0 325 -155
q45 -88 45 -271v-647h-182l-14 63q-45 -47 -99 -65t-147 -18q-176 0 -251 74t-75 253q0 180 78 252t279 72h178z" />
    <glyph glyph-name="uni0202" unicode="&#x202;" horiz-adv-x="1089" 
d="M546 1747q-76 0 -110 -30q-33 -30 -41 -111h-147q4 133 35 190q67 121 271 121t263 -139q23 -51 27 -172h-148q-8 80 -41 110t-109 31zM727 494l-178 653l-178 -653h356zM778 295h-459l-79 -295h-267l463 1462h223l463 -1462h-264z" />
    <glyph glyph-name="uni0203" unicode="&#x203;" horiz-adv-x="956" 
d="M488 1505q204 0 264 -139q20 -51 26 -174h-147q-8 82 -41 113t-110 31q-78 0 -110 -32q-32 -30 -40 -112h-148q4 141 35 192q67 121 271 121zM604 469h-131q-96 0 -136 -37t-40 -122q0 -86 34 -116t122 -30q87 0 119 36t32 136v133zM604 631v47q0 113 -33 159t-105 46
t-108 -30t-55 -103l-199 59q70 264 363 264q242 0 326 -155q45 -88 45 -271v-647h-183l-14 63q-45 -47 -99 -65t-147 -18q-176 0 -251 74q-74 74 -74 253q0 180 77 252q78 72 279 72h178z" />
    <glyph glyph-name="uni0204" unicode="&#x204;" 
d="M477 1599h-162l-194 310h241zM776 1599h-162l-196 310h244zM137 0v1462h781v-202h-537v-420h455v-203h-455v-434h545v-203h-789z" />
    <glyph glyph-name="uni0205" unicode="&#x205;" horiz-adv-x="985" 
d="M432 1188h-162l-194 309h241zM731 1188h-162l-196 309h243zM326 639h331v35q0 217 -166 217t-165 -217v-35zM326 408q0 -240 166 -240q82 0 120 32t58 103l196 -43q-28 -150 -116 -216t-280 -64q-192 0 -285 112t-93 365v133q0 256 93 370t301 113q208 0 300 -114
t93 -369v-119h-553v-63z" />
    <glyph glyph-name="uni0206" unicode="&#x206;" 
d="M531 1747q-77 0 -109 -30t-41 -111h-148q4 133 35 190q68 121 272 121t263 -139q22 -51 26 -172h-147q-8 80 -41 110t-110 31zM154 0v1462h782v-202h-539v-420h455v-203h-455v-434h545v-203h-788z" />
    <glyph glyph-name="uni0207" unicode="&#x207;" horiz-adv-x="985" 
d="M501 1505q204 0 263 -139q21 -51 27 -174h-148q-8 82 -41 113q-34 31 -110 31t-109 -32q-33 -30 -41 -112h-147q4 141 34 192q68 121 272 121zM338 639h332v35q0 217 -166 217t-166 -217v-35zM338 471v-63q0 -124 43 -182t135 -58q131 0 166 135l197 -43
q-29 -150 -117 -216t-280 -64q-192 0 -284 112q-93 112 -94 365v133q0 254 92 368t302 115q209 0 301 -114t92 -369v-119h-553z" />
    <glyph glyph-name="uni0208" unicode="&#x208;" horiz-adv-x="552" 
d="M227 1599h-161l-195 310h242zM526 1599h-161l-197 310h244zM152 0v1462h245v-1462h-245z" />
    <glyph glyph-name="uni0209" unicode="&#x209;" horiz-adv-x="491" 
d="M199 1188h-162l-195 309h242zM498 1188h-162l-197 309h244zM129 0v1051h233v-1051h-233z" />
    <glyph glyph-name="uni020A" unicode="&#x20a;" horiz-adv-x="552" 
d="M278 1747q-76 0 -110 -30q-33 -30 -41 -111h-147q4 133 34 190q68 121 272 121t263 -139q22 -51 26 -172h-147q-8 80 -41 110t-109 31zM154 0v1462h245v-1462h-245z" />
    <glyph glyph-name="uni020B" unicode="&#x20b;" horiz-adv-x="491" 
d="M256 1505q204 0 262 -139q21 -51 27 -174h-148q-8 82 -41 113q-34 31 -110 31t-109 -32q-33 -30 -41 -112h-147q4 141 35 192q68 121 272 121zM129 0v1051h233v-1051h-233z" />
    <glyph glyph-name="uni020C" unicode="&#x20c;" horiz-adv-x="1187" 
d="M547 1599h-162l-195 310h242zM846 1599h-162l-197 310h244zM817 524v414q0 188 -50 266t-173 78t-173 -78t-50 -266v-414q0 -188 50 -266t173 -78t173 78t50 266zM125 502v459q0 260 98 380q117 141 381 141t379 -165q80 -115 80 -356v-459q0 -260 -98 -381
q-119 -141 -381 -141t-379 163q-80 117 -80 359z" />
    <glyph glyph-name="uni020D" unicode="&#x20d;" horiz-adv-x="1001" 
d="M434 1188h-162l-194 309h241zM733 1188h-162l-196 309h243zM645 422v207q0 137 -37 195t-126 58t-126 -58t-37 -195v-207q0 -136 38 -194t126 -58t125 58t37 194zM86 422v207q0 236 93 340t303 104t303 -104t94 -340v-207q1 -234 -93 -338t-304 -104t-303 103t-93 339z
" />
    <glyph glyph-name="uni020E" unicode="&#x20e;" horiz-adv-x="1187" 
d="M595 1747q-77 0 -110 -30t-41 -111h-147q4 133 35 190q68 121 272 121t262 -139q23 -51 27 -172h-148q-9 80 -41 110t-109 31zM817 524v414q0 188 -50 266t-173 78t-173 -78t-50 -266v-414q0 -188 50 -266t173 -78t173 78t50 266zM125 502v459q0 260 98 380
q117 141 381 141t379 -165q80 -115 80 -356v-459q0 -260 -98 -381q-119 -141 -381 -141t-379 163q-80 117 -80 359z" />
    <glyph glyph-name="uni020F" unicode="&#x20f;" horiz-adv-x="1001" 
d="M510 1505q204 0 262 -139q21 -51 27 -174h-148q-8 82 -41 113q-34 31 -110 31t-109 -32q-33 -30 -41 -112h-147q4 141 35 192q68 121 272 121zM662 422v207q0 137 -37 195t-125 58t-125 -58t-37 -195v-207q0 -136 37 -194t125 -58t125 58t37 194zM104 422v207
q0 236 94 340t302 104q209 0 302 -104t93 -340v-207q0 -234 -93 -338t-302 -104q-208 0 -302 104t-94 338z" />
    <glyph glyph-name="uni0210" unicode="&#x210;" horiz-adv-x="1138" 
d="M477 1599h-162l-194 310h241zM776 1599h-162l-196 310h244zM389 799h180q111 0 161 54t50 178t-49 178t-164 55h-178v-465zM393 606v-606h-246v1462h439q133 0 211 -24t131 -80q98 -100 98 -300t-54 -295t-181 -136l276 -627h-272l-244 606h-158z" />
    <glyph glyph-name="uni0211" unicode="&#x211;" horiz-adv-x="704" 
d="M322 1188h-162l-195 309h242zM621 1188h-162l-197 309h244zM127 0v1051h178l29 -82q76 104 196 104q88 0 193 -63l-102 -195q-69 55 -133 55t-96 -84t-32 -276v-510h-233z" />
    <glyph glyph-name="uni0212" unicode="&#x212;" horiz-adv-x="1138" 
d="M534 1747q-76 0 -110 -30q-33 -30 -41 -111h-147q4 133 34 190q68 121 272 121t263 -139q22 -51 26 -172h-147q-8 80 -41 110t-109 31zM397 799h181q114 0 162 54t48 178t-49 178t-164 55h-178v-465zM401 606v-606h-245v1462h438q133 0 211 -24t131 -80q98 -100 98 -300
t-54 -295t-181 -136l276 -627h-272l-244 606h-158z" />
    <glyph glyph-name="uni0213" unicode="&#x213;" horiz-adv-x="704" 
d="M388 1505q204 0 263 -139q21 -51 27 -174h-148q-8 82 -41 113t-109 31t-110 -32q-33 -30 -41 -112h-147q4 141 35 192q67 121 271 121zM127 0v1051h178l29 -82q76 104 196 104q90 0 191 -63l-100 -195q-69 55 -133 55t-96 -84t-32 -276v-510h-233z" />
    <glyph glyph-name="uni0214" unicode="&#x214;" horiz-adv-x="1210" 
d="M557 1599h-162l-194 310h241zM856 1599h-162l-196 310h243zM147 1462h246v-970q0 -180 45 -246t167 -66t167 66t45 246v970h246v-970q0 -148 -16 -224t-60 -135q-117 -153 -393 -153t-387 176q-59 96 -60 336v970z" />
    <glyph glyph-name="uni0215" unicode="&#x215;" horiz-adv-x="995" 
d="M442 1188h-161l-195 309h242zM741 1188h-161l-197 309h244zM113 1051h233v-611q0 -143 31 -201q31 -59 107 -59t110 65q33 65 33 222v584h233v-1051h-168l-22 92q-44 -63 -98 -88t-140 -24q-221 0 -291 178q-29 74 -28 254v639z" />
    <glyph glyph-name="uni0216" unicode="&#x216;" horiz-adv-x="1210" 
d="M605 1747q-77 0 -109 -30t-41 -111h-148q4 133 35 190q68 121 272 121t263 -139q22 -51 26 -172h-147q-8 80 -41 110t-110 31zM147 1462h246v-970q0 -180 45 -246t167 -66t167 66t45 246v970h246v-970q0 -148 -16 -224t-60 -135q-117 -153 -393 -153t-387 176
q-59 96 -60 336v970z" />
    <glyph glyph-name="uni0217" unicode="&#x217;" horiz-adv-x="995" 
d="M508 1505q204 0 262 -139q21 -51 27 -174h-148q-8 82 -41 113q-34 31 -110 31t-109 -32q-33 -30 -41 -112h-147q4 141 35 192q68 121 272 121zM121 1051h233v-611q0 -143 31 -201q31 -59 107 -59t110 65q33 65 33 222v584h233v-1051h-168l-22 92q-47 -63 -99 -88
t-139 -24q-221 0 -290 178q-29 74 -29 254v639z" />
    <glyph glyph-name="Scommaaccent" unicode="&#x218;" horiz-adv-x="1028" 
d="M315 -477l88 344h224l-154 -344h-158zM496 178q227 0 227 223q0 109 -57 156q-31 27 -59 37t-158 49q-195 57 -278 155t-83 282q0 186 111 294t298 109q187 0 283 -77t135 -247l-206 -59q-35 104 -77 144t-127 40t-133 -53t-48 -149t53 -149q53 -52 186 -91
q133 -38 179 -58t94 -55q122 -96 122 -314q-1 -438 -460 -438q-262 0 -373 142q-53 62 -88 207l211 61q29 -113 86 -161t162 -48z" />
    <glyph glyph-name="scommaaccent" unicode="&#x219;" horiz-adv-x="882" 
d="M250 -477l88 344h223l-153 -344h-158zM428 168q172 0 172 137q0 72 -49 98q-27 16 -148 41q-172 31 -237 93q-80 69 -80 221t89 234t275 81q186 0 273 -112q37 -49 63 -152l-194 -49q-16 66 -52 96t-101 29q-65 0 -99 -33t-35 -91q0 -58 36 -87t126 -45q199 -37 266 -90
q86 -68 86 -238q0 -322 -393 -321q-174 0 -265 65t-122 215l201 43q20 -75 62 -105t126 -30z" />
    <glyph glyph-name="uni021A" unicode="&#x21a;" horiz-adv-x="950" 
d="M283 -477l88 344h223l-154 -344h-157zM354 0v1260h-327v202h899v-202h-326v-1260h-246z" />
    <glyph glyph-name="uni021B" unicode="&#x21b;" horiz-adv-x="626" 
d="M166 -477l88 344h223l-153 -344h-158zM156 862h-107v189h107l14 309h219v-309h182v-189h-182v-485q-2 -107 30 -147t116 -37h34v-193h-49q-227 0 -297 76t-67 323v463z" />
    <glyph glyph-name="uni0226" unicode="&#x226;" horiz-adv-x="1089" 
d="M432 1610v245h225v-245h-225zM727 494l-178 653l-178 -653h356zM778 295h-459l-79 -295h-267l463 1462h223l463 -1462h-264z" />
    <glyph glyph-name="uni0227" unicode="&#x227;" horiz-adv-x="956" 
d="M375 1198v246h225v-246h-225zM604 469h-131q-96 0 -136 -37t-40 -122q0 -86 34 -116t122 -30q87 0 119 36t32 136v133zM604 631v47q0 113 -33 159t-105 46t-108 -30t-55 -103l-199 59q70 264 363 264q242 0 326 -155q45 -88 45 -271v-647h-183l-14 63q-45 -47 -99 -65
t-147 -18q-176 0 -251 74q-74 74 -74 253q0 180 77 252q78 72 279 72h178z" />
    <glyph glyph-name="uni0237" unicode="&#x237;" horiz-adv-x="503" 
d="M139 1051h234v-1033q4 -291 -86 -391t-355 -98v192q117 -3 163 57t44 216v1057z" />
    <glyph glyph-name="afii57929" unicode="&#x2bc;" horiz-adv-x="389" 
d="M45 946l57 516h244l-102 -516h-199z" />
    <glyph glyph-name="uni02C0" unicode="&#x2c0;" 
d="M602 1581h-160l2 29q0 68 10 94t50 80q18 31 18 47q0 39 -45 39t-117 -35l-43 141q111 37 199 37t141 -45t54 -127q-1 -41 -13 -65t-48 -63t-42 -61t-6 -71z" />
    <glyph glyph-name="circumflex" unicode="&#x2c6;" 
d="M512 1354l-100 -160h-222l238 297h168l240 -297h-222z" />
    <glyph glyph-name="caron" unicode="&#x2c7;" 
d="M514 1327l100 160h222l-240 -297h-166l-240 297h222z" />
    <glyph glyph-name="uni02C9" unicode="&#x2c9;" 
d="M240 1245v168h546v-168h-546z" />
    <glyph glyph-name="breve" unicode="&#x2d8;" 
d="M510 1343q76 0 108 30t44 112h147q-8 -137 -35 -191q-68 -120 -272 -120t-262 139q-23 49 -27 172h147q8 -80 41 -111t109 -31z" />
    <glyph glyph-name="dotaccent" unicode="&#x2d9;" 
d="M399 1198v246h226v-246h-226z" />
    <glyph glyph-name="ring" unicode="&#x2da;" 
d="M512 1282q90 0 90 114t-90 113q-90 1 -90 -113t90 -114zM748 1398q0 -100 -66 -164t-170 -64t-170 62q-66 64 -66 166t64 162t172 60q106 0 171 -61t65 -161z" />
    <glyph glyph-name="ogonek" unicode="&#x2db;" 
d="M588 -215q0 -74 80 -74q45 0 108 19l25 -119q-80 -35 -183 -35q-238 0 -237 168q0 72 43 131t145 125h176q-93 -78 -125 -122t-32 -93z" />
    <glyph glyph-name="tilde" unicode="&#x2dc;" 
d="M403 1483q77 -1 139 -63t87 -62q43 0 59 110h141q-16 -119 -34 -165q-47 -111 -164 -111q-83 0 -143 62t-82 63q-56 0 -70 -111h-141q20 117 45 166q51 111 163 111z" />
    <glyph glyph-name="hungarumlaut" unicode="&#x2dd;" 
d="M559 1188l115 309h244l-197 -309h-162zM262 1188l115 309h241l-194 -309h-162z" />
    <glyph glyph-name="uni0309" unicode="&#x309;" 
d="M602 1178h-160l2 30q0 66 10 92t50 80q18 27 18 47q0 39 -44 39t-118 -32l-43 139q109 37 198 37t142 -45t54 -125q-1 -41 -13 -65t-48 -65t-42 -61t-6 -71z" />
    <glyph glyph-name="uni0312" unicode="&#x312;" 
d="M385 1188l233 309h175l-146 -309h-262z" />
    <glyph glyph-name="uni0313" unicode="&#x313;" horiz-adv-x="204" 
d="M-25 954l58 537h223l-117 -537h-164z" />
    <glyph glyph-name="uni031B" unicode="&#x31b;" horiz-adv-x="204" 
d="M-25 954l58 537h223l-117 -537h-164z" />
    <glyph glyph-name="uni0323" unicode="&#x323;" 
d="M399 -418v246h226v-246h-226z" />
    <glyph glyph-name="uni037E" unicode="&#x37e;" horiz-adv-x="514" 
d="M160 803v248h246v-248h-246zM68 -385l84 631h258l-131 -631h-211z" />
    <glyph glyph-name="uni0387" unicode="&#x387;" horiz-adv-x="516" 
d="M135 608v248h246v-248h-246z" />
    <glyph glyph-name="uni04D4" unicode="&#x4d4;" horiz-adv-x="1689" 
d="M821 520v740h-22l-367 -740h389zM821 322h-485l-160 -322h-282l786 1462h922v-202h-539v-420h457v-203h-457v-434h547v-203h-789v322z" />
    <glyph glyph-name="uni04D5" unicode="&#x4d5;" horiz-adv-x="1488" 
d="M840 635h334v39q0 217 -167 217t-167 -219v-37zM604 469h-131q-94 0 -135 -38t-41 -123t34 -117q34 -31 120 -31q85 0 119 40t34 148v121zM1395 588v-119h-555v-61q0 -126 43 -184t135 -58q133 0 166 135l198 -43q-28 -145 -114 -212t-250 -66q-205 0 -295 126
q-82 -127 -328 -126q-176 0 -251 74q-74 74 -74 252q0 179 78 252q79 73 278 73h178v45q0 113 -34 160t-105 47q-71 -1 -105 -27t-65 -102l-189 59q27 125 118 193t237 67q188 0 268 -112q92 113 290 113t287 -116q89 -115 89 -370z" />
    <glyph glyph-name="uni1E02" unicode="&#x1e02;" horiz-adv-x="1140" 
d="M428 1610v245h225v-245h-225zM399 199h219q106 0 152 51q45 51 45 171t-44 173t-142 53h-230v-448zM399 846h207q94 0 139 50t45 160t-44 158t-144 50h-203v-418zM154 0v1462h462q123 0 193 -20t121 -70q106 -100 106 -311t-137 -297q88 -59 124 -142t36 -221
q0 -223 -117 -323q-88 -78 -285 -78h-503z" />
    <glyph glyph-name="uni1E03" unicode="&#x1e03;" horiz-adv-x="1009" 
d="M514 1198v246h225v-246h-225zM672 432v203q0 244 -152 244q-160 0 -160 -254v-199q0 -252 160 -252q78 0 115 62t37 196zM127 0v1462h233v-461q92 72 209 72q174 0 255 -104t81 -332v-201q0 -242 -81 -350t-261 -106q-84 0 -134 19t-107 73l-15 -72h-180z" />
    <glyph glyph-name="uni1E0C" unicode="&#x1e0c;" horiz-adv-x="1187" 
d="M436 -418v246h226v-246h-226zM399 199h154q152 -3 208 69t58 264v400q-2 194 -58 264t-208 68h-154v-1065zM154 0v1462h419q258 4 378 -118t114 -381v-461q4 -262 -115 -384t-377 -118h-419z" />
    <glyph glyph-name="uni1E0D" unicode="&#x1e0d;" horiz-adv-x="1009" 
d="M422 -418v246h225v-246h-225zM338 635v-201q0 -135 37 -197t114 -63q160 0 160 252v199q0 254 -160 254q-151 0 -151 -244zM104 436v201q0 227 80 331t254 105q125 0 211 -72v461h234v-1462h-181l-14 72q-93 -93 -239 -92q-182 0 -264 107q-81 108 -81 349z" />
    <glyph glyph-name="uni1E1E" unicode="&#x1e1e;" horiz-adv-x="970" 
d="M440 1610v245h226v-245h-226zM154 0v1462h770v-202h-525v-431h441v-202h-441v-627h-245z" />
    <glyph glyph-name="uni1E1F" unicode="&#x1e1f;" horiz-adv-x="618" 
d="M274 1610v245h226v-245h-226zM166 862h-109v189h109v110q-2 176 64 241q67 65 243 60h109v-176h-58q-80 2 -102 -24t-23 -117v-94h191v-189h-191v-862h-233v862z" />
    <glyph glyph-name="uni1E24" unicode="&#x1e24;" horiz-adv-x="1202" 
d="M489 -418v246h226v-246h-226zM154 0v1462h245v-622h406v622h246v-1462h-246v637h-406v-637h-245z" />
    <glyph glyph-name="uni1E25" unicode="&#x1e25;" horiz-adv-x="1015" 
d="M395 -418v246h226v-246h-226zM127 0v1462h233v-458q86 70 213 69q225 0 293 -178q31 -76 31 -256v-639h-233v614q0 138 -34 198t-116 60t-118 -64t-36 -216v-592h-233z" />
    <glyph glyph-name="uni1E44" unicode="&#x1e44;" horiz-adv-x="1263" 
d="M539 1610v245h225v-245h-225zM154 0v1462h241l482 -1007v1007h233v-1462h-233l-488 1012v-1012h-235z" />
    <glyph glyph-name="uni1E45" unicode="&#x1e45;" horiz-adv-x="1015" 
d="M395 1198v246h226v-246h-226zM127 0v1051h176l19 -88q49 61 104 86t143 24q227 0 297 -178q31 -76 31 -256v-639h-233v610q0 142 -33 202t-117 60t-119 -64t-35 -224v-584h-233z" />
    <glyph glyph-name="uni1E5A" unicode="&#x1e5a;" horiz-adv-x="1138" 
d="M467 -418v246h225v-246h-225zM397 799h181q114 0 162 54t48 178t-49 178t-164 55h-178v-465zM401 606v-606h-245v1462h438q133 0 211 -24t131 -80q98 -100 98 -300t-54 -295t-181 -136l276 -627h-272l-244 606h-158z" />
    <glyph glyph-name="uni1E5B" unicode="&#x1e5b;" horiz-adv-x="704" 
d="M131 -418v246h225v-246h-225zM127 0v1051h178l29 -82q76 104 196 104q90 0 191 -63l-100 -195q-69 55 -133 55t-96 -84t-32 -276v-510h-233z" />
    <glyph glyph-name="uni1E62" unicode="&#x1e62;" horiz-adv-x="1028" 
d="M367 -418v246h225v-246h-225zM496 178q227 0 227 223q0 109 -57 156q-31 27 -59 37t-158 49q-195 57 -278 155t-83 282q0 186 111 294t298 109q187 0 283 -77t135 -247l-206 -59q-35 104 -77 144t-127 40t-133 -53t-48 -149t53 -149q53 -52 186 -91q133 -38 179 -58
t94 -55q122 -96 122 -314q-1 -438 -460 -438q-262 0 -373 142q-53 62 -88 207l211 61q29 -113 86 -161t162 -48z" />
    <glyph glyph-name="uni1E63" unicode="&#x1e63;" horiz-adv-x="882" 
d="M311 -418v246h226v-246h-226zM428 168q172 0 172 137q0 72 -49 98q-27 16 -148 41q-172 31 -237 93q-80 69 -80 221t89 234t275 81q186 0 273 -112q37 -49 63 -152l-194 -49q-16 66 -52 96t-101 29q-65 0 -99 -33t-35 -91q0 -58 36 -87t126 -45q199 -37 266 -90
q86 -68 86 -238q0 -322 -393 -321q-174 0 -265 65t-122 215l201 43q20 -75 62 -105t126 -30z" />
    <glyph glyph-name="uni1E6C" unicode="&#x1e6c;" horiz-adv-x="950" 
d="M362 -418v246h226v-246h-226zM354 0v1260h-327v202h899v-202h-326v-1260h-246z" />
    <glyph glyph-name="uni1E6D" unicode="&#x1e6d;" horiz-adv-x="626" 
d="M201 -418v246h225v-246h-225zM156 862h-107v189h107l14 309h219v-309h182v-189h-182v-485q-2 -107 30 -147t116 -37h34v-193h-49q-227 0 -297 76t-67 323v463z" />
    <glyph glyph-name="Wgrave" unicode="&#x1e80;" horiz-adv-x="1634" 
d="M946 1602h-174l-233 307h262zM348 0l-307 1462h246l184 -1073l252 1073h188l252 -1073l185 1073h245l-307 -1462h-219l-250 1026l-250 -1026h-219z" />
    <glyph glyph-name="wgrave" unicode="&#x1e81;" horiz-adv-x="1380" 
d="M819 1188h-174l-233 309h262zM309 0l-264 1051h238l141 -723l182 723h166l184 -723l142 723h235l-262 -1051h-201l-180 674l-182 -674h-199z" />
    <glyph glyph-name="Wacute" unicode="&#x1e82;" horiz-adv-x="1634" 
d="M692 1602l146 307h262l-234 -307h-174zM348 0l-307 1462h246l184 -1073l252 1073h188l252 -1073l185 1073h245l-307 -1462h-219l-250 1026l-250 -1026h-219z" />
    <glyph glyph-name="wacute" unicode="&#x1e83;" horiz-adv-x="1380" 
d="M563 1188l146 309h262l-234 -309h-174zM309 0l-264 1051h238l141 -723l182 723h166l184 -723l142 723h235l-262 -1051h-201l-180 674l-182 -674h-199z" />
    <glyph glyph-name="Wdieresis" unicode="&#x1e84;" horiz-adv-x="1634" 
d="M897 1612v246h207v-246h-207zM530 1612v246h207v-246h-207zM348 0l-307 1462h246l184 -1073l252 1073h188l252 -1073l185 1073h245l-307 -1462h-219l-250 1026l-250 -1026h-219z" />
    <glyph glyph-name="wdieresis" unicode="&#x1e85;" horiz-adv-x="1380" 
d="M766 1198v246h207v-246h-207zM408 1198v246h206v-246h-206zM309 0l-264 1051h238l141 -723l182 723h166l184 -723l142 723h235l-262 -1051h-201l-180 674l-182 -674h-199z" />
    <glyph glyph-name="uni1E92" unicode="&#x1e92;" horiz-adv-x="970" 
d="M373 -418v246h225v-246h-225zM70 0v150l534 1110h-498v202h771v-149l-535 -1110h559v-203h-831z" />
    <glyph glyph-name="uni1E93" unicode="&#x1e93;" horiz-adv-x="827" 
d="M301 -418v246h225v-246h-225zM51 0v141l406 717h-369v193h647v-144l-405 -714h432v-193h-711z" />
    <glyph glyph-name="uni1EA0" unicode="&#x1ea0;" horiz-adv-x="1089" 
d="M432 -418v246h225v-246h-225zM727 494l-178 653l-178 -653h356zM778 295h-459l-79 -295h-267l463 1462h223l463 -1462h-264z" />
    <glyph glyph-name="uni1EA1" unicode="&#x1ea1;" horiz-adv-x="956" 
d="M367 -418v246h225v-246h-225zM604 469h-131q-96 0 -136 -37t-40 -122q0 -86 34 -116t122 -30q87 0 119 36t32 136v133zM604 631v47q0 113 -33 159t-105 46t-108 -30t-55 -103l-199 59q70 264 363 264q242 0 326 -155q45 -88 45 -271v-647h-183l-14 63q-45 -47 -99 -65
t-147 -18q-176 0 -251 74q-74 74 -74 253q0 180 77 252q78 72 279 72h178z" />
    <glyph glyph-name="uni1EA2" unicode="&#x1ea2;" horiz-adv-x="1089" 
d="M635 1581h-158q0 88 9 118t51 85q18 27 18 47q0 39 -45 39t-117 -35l-43 141q113 37 201 37t140 -45t52 -127q0 -41 -12 -65t-61 -76q-23 -30 -29 -50t-6 -69zM727 494l-178 653l-178 -653h356zM778 295h-459l-79 -295h-267l463 1462h223l463 -1462h-264z" />
    <glyph glyph-name="uni1EA3" unicode="&#x1ea3;" horiz-adv-x="956" 
d="M592 1178h-158q0 90 8 118t52 84q18 31 18 47q0 39 -44 39t-118 -32l-43 139q109 37 199 37t142 -44t52 -126q0 -41 -12 -66t-48 -65t-42 -60t-6 -71zM604 469h-131q-96 0 -136 -37t-40 -122q0 -86 34 -116t122 -30q87 0 119 36t32 136v133zM604 631v47q0 113 -33 159
t-105 46t-108 -30t-55 -103l-199 59q70 264 363 264q242 0 326 -155q45 -88 45 -271v-647h-183l-14 63q-45 -47 -99 -65t-147 -18q-176 0 -251 74q-74 74 -74 253q0 180 77 252q78 72 279 72h178z" />
    <glyph glyph-name="uni1EA4" unicode="&#x1ea4;" horiz-adv-x="1089" 
d="M547 1671l-101 -112h-208l229 241h158l231 -241h-209zM467 1855l106 238h187l-166 -238h-127zM727 494l-178 653l-178 -653h356zM778 295h-459l-79 -295h-267l463 1462h223l463 -1462h-264z" />
    <glyph glyph-name="uni1EA5" unicode="&#x1ea5;" horiz-adv-x="956" 
d="M492 1260l-99 -113h-209l230 242h157l230 -242h-209zM414 1442l106 237h187l-166 -237h-127zM604 469h-131q-96 0 -136 -37t-40 -122q0 -86 34 -116t122 -30q87 0 119 36t32 136v133zM604 631v47q0 113 -33 159t-105 46t-108 -30t-55 -103l-199 59q70 264 363 264
q242 0 326 -155q45 -88 45 -271v-647h-183l-14 63q-45 -47 -99 -65t-147 -18q-176 0 -251 74q-74 74 -74 253q0 180 77 252q78 72 279 72h178z" />
    <glyph glyph-name="uni1EA6" unicode="&#x1ea6;" horiz-adv-x="1089" 
d="M547 1671l-101 -112h-208l231 241h156l229 -241h-207zM621 1855h-127l-166 238h186zM727 494l-178 653l-178 -653h356zM778 295h-459l-79 -295h-267l463 1462h223l463 -1462h-264z" />
    <glyph glyph-name="uni1EA7" unicode="&#x1ea7;" horiz-adv-x="956" 
d="M492 1260l-101 -113h-207l230 242h157l230 -242h-209zM567 1442h-127l-166 237h187zM604 469h-131q-96 0 -136 -37t-40 -122q0 -86 34 -116t122 -30q87 0 119 36t32 136v133zM604 631v47q0 113 -33 159t-105 46t-108 -30t-55 -103l-199 59q70 264 363 264q242 0 326 -155
q45 -88 45 -271v-647h-183l-14 63q-45 -47 -99 -65t-147 -18q-176 0 -251 74q-74 74 -74 253q0 180 77 252q78 72 279 72h178z" />
    <glyph glyph-name="uni1EA8" unicode="&#x1ea8;" horiz-adv-x="1089" 
d="M545 1665l-101 -106h-208l229 223h158l231 -223h-209zM473 1815v14q2 49 8 66q5 17 25 44t20 43q0 23 -28 23t-80 -25l-33 103q71 29 143 29t114 -34t42 -91q0 -27 -9 -43t-44 -56q-19 -24 -21 -73h-137zM727 494l-178 653l-178 -653h356zM778 295h-459l-79 -295h-267
l463 1462h223l463 -1462h-264z" />
    <glyph glyph-name="uni1EA9" unicode="&#x1ea9;" horiz-adv-x="956" 
d="M489 1253l-98 -106h-209l230 223h155l232 -223h-209zM557 1401h-137v14q2 66 26 103q27 37 27 53q0 23 -29 23t-79 -27l-33 104q70 29 142 29t115 -34q42 -34 42 -77t-9 -59t-37 -48t-28 -81zM604 469h-131q-96 0 -136 -37t-40 -122q0 -86 34 -116t122 -30q87 0 119 36
t32 136v133zM604 631v47q0 113 -33 159t-105 46t-108 -30t-55 -103l-199 59q70 264 363 264q242 0 326 -155q45 -88 45 -271v-647h-183l-14 63q-45 -47 -99 -65t-147 -18q-176 0 -251 74q-74 74 -74 253q0 180 77 252q78 72 279 72h178z" />
    <glyph glyph-name="uni1EAA" unicode="&#x1eaa;" horiz-adv-x="1089" 
d="M549 1671l-100 -112h-209l231 241h156l231 -241h-209zM459 2085q59 0 110 -50t72 -50q37 0 49 90h117q-14 -98 -31 -138q-37 -88 -135 -88q-66 1 -115 51t-68 50t-37 -26t-24 -64h-116q18 100 38 137q45 88 140 88zM727 494l-178 653l-178 -653h356zM778 295h-459
l-79 -295h-267l463 1462h223l463 -1462h-264z" />
    <glyph glyph-name="uni1EAB" unicode="&#x1eab;" horiz-adv-x="956" 
d="M487 1260l-100 -113h-209l232 242h155l232 -242h-209zM389 1673q67 0 119 -50t72 -50q37 0 49 90h116q-16 -127 -53 -177q-38 -50 -110 -50t-119 51t-67 51t-36 -26q-18 -26 -24 -66h-117q23 125 63 176t107 51zM604 469h-131q-96 0 -136 -37t-40 -122q0 -86 34 -116
t122 -30q87 0 119 36t32 136v133zM604 631v47q0 113 -33 159t-105 46t-108 -30t-55 -103l-199 59q70 264 363 264q242 0 326 -155q45 -88 45 -271v-647h-183l-14 63q-45 -47 -99 -65t-147 -18q-176 0 -251 74q-74 74 -74 253q0 180 77 252q78 72 279 72h178z" />
    <glyph glyph-name="uni1EAC" unicode="&#x1eac;" horiz-adv-x="1089" 
d="M432 -418v246h225v-246h-225zM545 1767l-101 -159h-221l240 297h166l239 -297h-221zM727 494l-178 653l-178 -653h356zM778 295h-459l-79 -295h-267l463 1462h223l463 -1462h-264z" />
    <glyph glyph-name="uni1EAD" unicode="&#x1ead;" horiz-adv-x="956" 
d="M367 -418v246h225v-246h-225zM483 1354l-100 -160h-221l239 297h166l240 -297h-221zM604 469h-131q-96 0 -136 -37t-40 -122q0 -86 34 -116t122 -30q87 0 119 36t32 136v133zM604 631v47q0 113 -33 159t-105 46t-108 -30t-55 -103l-199 59q70 264 363 264q242 0 326 -155
q45 -88 45 -271v-647h-183l-14 63q-45 -47 -99 -65t-147 -18q-176 0 -251 74q-74 74 -74 253q0 180 77 252q78 72 279 72h178z" />
    <glyph glyph-name="uni1EAE" unicode="&#x1eae;" horiz-adv-x="1089" 
d="M546 1710q76 0 108 28t40 99h137q-4 -129 -34 -178q-63 -111 -257 -111t-253 129q-23 45 -27 160h137q8 -71 41 -99t108 -28zM467 1855l106 238h187l-166 -238h-127zM727 494l-178 653l-178 -653h356zM778 295h-459l-79 -295h-267l463 1462h223l463 -1462h-264z" />
    <glyph glyph-name="uni1EAF" unicode="&#x1eaf;" horiz-adv-x="956" 
d="M480 1298q76 0 106 28q31 28 41 99h137q-4 -129 -35 -178q-63 -111 -257 -111t-253 130q-18 40 -24 159h137q10 -71 41 -99t107 -28zM399 1442l107 237h186l-166 -237h-127zM604 469h-131q-96 0 -136 -37t-40 -122q0 -86 34 -116t122 -30q87 0 119 36t32 136v133z
M604 631v47q0 113 -33 159t-105 46t-108 -30t-55 -103l-199 59q70 264 363 264q242 0 326 -155q45 -88 45 -271v-647h-183l-14 63q-45 -47 -99 -65t-147 -18q-176 0 -251 74q-74 74 -74 253q0 180 77 252q78 72 279 72h178z" />
    <glyph glyph-name="uni1EB0" unicode="&#x1eb0;" horiz-adv-x="1089" 
d="M546 1710q76 0 108 28t40 99h137q-4 -129 -34 -178q-63 -111 -257 -111t-253 129q-23 45 -27 160h137q8 -71 41 -99t108 -28zM635 1855h-129l-166 238h186zM727 494l-178 653l-178 -653h356zM778 295h-459l-79 -295h-267l463 1462h223l463 -1462h-264z" />
    <glyph glyph-name="uni1EB1" unicode="&#x1eb1;" horiz-adv-x="956" 
d="M480 1298q76 0 106 28q31 28 41 99h137q-4 -129 -35 -178q-63 -111 -257 -111t-253 130q-18 40 -24 159h137q10 -71 41 -99t107 -28zM571 1442h-127l-165 237h186zM604 469h-131q-96 0 -136 -37t-40 -122q0 -86 34 -116t122 -30q87 0 119 36t32 136v133zM604 631v47
q0 113 -33 159t-105 46t-108 -30t-55 -103l-199 59q70 264 363 264q242 0 326 -155q45 -88 45 -271v-647h-183l-14 63q-45 -47 -99 -65t-147 -18q-176 0 -251 74q-74 74 -74 253q0 180 77 252q78 72 279 72h178z" />
    <glyph glyph-name="uni1EB2" unicode="&#x1eb2;" horiz-adv-x="1089" 
d="M545 1704q77 0 109 29t42 104h135q-4 -129 -34 -178q-63 -111 -257 -111t-253 129q-23 45 -27 160h135q8 -77 41 -105t109 -28zM610 1804h-137l2 15q0 67 28 105t27 54q0 29 -30 29t-80 -27l-33 103q71 31 143 31t114 -35t42 -97q0 -27 -9 -43t-38 -50t-29 -85zM727 494
l-178 653l-178 -653h356zM778 295h-459l-79 -295h-267l463 1462h223l463 -1462h-264z" />
    <glyph glyph-name="uni1EB3" unicode="&#x1eb3;" horiz-adv-x="956" 
d="M488 1292q76 0 109 29q34 29 42 104h133q-4 -129 -35 -178q-63 -111 -257 -111t-253 130q-18 40 -24 159h133q10 -77 43 -105t109 -28zM416 1391v14q2 71 28 107t27 53q0 59 -111 2l-32 104q70 29 144 29t114 -35q41 -35 41 -96q1 -27 -9 -43t-38 -48t-29 -87h-135z
M604 469h-131q-96 0 -136 -37t-40 -122q0 -86 34 -116t122 -30q87 0 119 36t32 136v133zM604 631v47q0 113 -33 159t-105 46t-108 -30t-55 -103l-199 59q70 264 363 264q242 0 326 -155q45 -88 45 -271v-647h-183l-14 63q-45 -47 -99 -65t-147 -18q-176 0 -251 74
q-74 74 -74 253q0 180 77 252q78 72 279 72h178z" />
    <glyph glyph-name="uni1EB4" unicode="&#x1eb4;" horiz-adv-x="1089" 
d="M258 1815h129q10 -66 42 -91q32 -24 105 -24q74 0 106 26t40 89h129q-4 -117 -33 -162q-62 -101 -250 -101t-243 117q-19 40 -25 146zM444 2105q68 0 119 -51t72 -51q37 0 49 92h117q-12 -94 -31 -139q-41 -88 -135 -88q-68 0 -116 51t-66 51q-48 0 -62 -92h-117
q23 125 63 176q39 51 107 51zM727 494l-178 653l-178 -653h356zM778 295h-459l-79 -295h-267l463 1462h223l463 -1462h-264z" />
    <glyph glyph-name="uni1EB5" unicode="&#x1eb5;" horiz-adv-x="956" 
d="M476 1286q74 0 104 25q31 25 41 90h131q-4 -117 -33 -162q-65 -100 -253 -100t-243 116q-18 40 -24 146h131q8 -67 40 -91t106 -24zM391 1692q63 0 115 -52t69 -51q37 0 50 92h116q-12 -96 -30 -139q-37 -88 -136 -88q-67 0 -115 51t-68 51t-37 -25q-17 -26 -23 -65h-117
q18 100 39 138q45 88 137 88zM604 469h-131q-96 0 -136 -37t-40 -122q0 -86 34 -116t122 -30q87 0 119 36t32 136v133zM604 631v47q0 113 -33 159t-105 46t-108 -30t-55 -103l-199 59q70 264 363 264q242 0 326 -155q45 -88 45 -271v-647h-183l-14 63q-45 -47 -99 -65
t-147 -18q-176 0 -251 74q-74 74 -74 253q0 180 77 252q78 72 279 72h178z" />
    <glyph glyph-name="uni1EB6" unicode="&#x1eb6;" horiz-adv-x="1089" 
d="M432 -418v246h225v-246h-225zM546 1755q78 0 110 31t40 112h148q-8 -141 -35 -192q-67 -121 -271 -121t-264 139q-22 51 -26 174h147q8 -82 41 -112t110 -31zM727 494l-178 653l-178 -653h356zM778 295h-459l-79 -295h-267l463 1462h223l463 -1462h-264z" />
    <glyph glyph-name="uni1EB7" unicode="&#x1eb7;" horiz-adv-x="956" 
d="M367 -418v246h225v-246h-225zM486 1343q76 0 107 30q32 30 44 112h145q-4 -137 -34 -191q-68 -120 -271 -120t-264 139q-19 47 -25 172h146q10 -80 43 -111t109 -31zM604 469h-131q-96 0 -136 -37t-40 -122q0 -86 34 -116t122 -30q87 0 119 36t32 136v133zM604 631v47
q0 113 -33 159t-105 46t-108 -30t-55 -103l-199 59q70 264 363 264q242 0 326 -155q45 -88 45 -271v-647h-183l-14 63q-45 -47 -99 -65t-147 -18q-176 0 -251 74q-74 74 -74 253q0 180 77 252q78 72 279 72h178z" />
    <glyph glyph-name="uni1EB8" unicode="&#x1eb8;" 
d="M446 -418v246h226v-246h-226zM154 0v1462h782v-202h-539v-420h455v-203h-455v-434h545v-203h-788z" />
    <glyph glyph-name="uni1EB9" unicode="&#x1eb9;" horiz-adv-x="985" 
d="M379 -418v246h225v-246h-225zM338 639h332v35q0 217 -166 217t-166 -217v-35zM338 471v-63q0 -124 43 -182t135 -58q131 0 166 135l197 -43q-29 -150 -117 -216t-280 -64q-192 0 -284 112q-93 112 -94 365v133q0 254 92 368t302 115q209 0 301 -114t92 -369v-119h-553z
" />
    <glyph glyph-name="uni1EBA" unicode="&#x1eba;" 
d="M469 1581q0 88 9 118q10 30 40 71t31 61q0 39 -44 39t-120 -35l-41 141q111 37 199 37t141 -45t53 -127q0 -41 -12 -65t-61 -76q-23 -30 -29 -50t-8 -69h-158zM154 0v1462h782v-202h-539v-420h455v-203h-455v-434h545v-203h-788z" />
    <glyph glyph-name="uni1EBB" unicode="&#x1ebb;" horiz-adv-x="985" 
d="M582 1178h-160q2 90 10 118t51 84q18 31 19 47q0 39 -44 39t-118 -32l-43 139q109 37 199 37t142 -45t52 -127q0 -39 -12 -63t-62 -79q-22 -29 -28 -49t-6 -69zM338 639h332v35q0 217 -166 217t-166 -217v-35zM338 471v-63q0 -124 43 -182t135 -58q131 0 166 135l197 -43
q-29 -150 -117 -216t-280 -64q-192 0 -284 112q-93 112 -94 365v133q0 254 92 368t302 115q209 0 301 -114t92 -369v-119h-553z" />
    <glyph glyph-name="uni1EBC" unicode="&#x1ebc;" 
d="M659 1772q45 0 60 110h141q-12 -109 -35 -168q-47 -111 -163 -110q-84 0 -144 62t-82 63q-55 0 -69 -111h-142q20 117 45 166q51 113 164 112q76 0 138 -62t87 -62zM154 0v1462h782v-202h-539v-420h455v-203h-455v-434h545v-203h-788z" />
    <glyph glyph-name="uni1EBD" unicode="&#x1ebd;" horiz-adv-x="985" 
d="M383 1483q76 -1 138 -63t87 -62q43 0 60 110h141q-16 -119 -35 -165q-47 -111 -164 -111q-84 0 -143 62t-82 63q-56 0 -70 -111h-141q20 117 45 166q51 111 164 111zM338 639h332v35q0 217 -166 217t-166 -217v-35zM338 471v-63q0 -124 43 -182t135 -58q131 0 166 135
l197 -43q-29 -150 -117 -216t-280 -64q-192 0 -284 112q-93 112 -94 365v133q0 254 92 368t302 115q209 0 301 -114t92 -369v-119h-553z" />
    <glyph glyph-name="uni1EBE" unicode="&#x1ebe;" 
d="M547 1671l-101 -112h-208l229 241h158l231 -241h-209zM467 1855l106 238h187l-166 -238h-127zM154 0v1462h782v-202h-539v-420h455v-203h-455v-434h545v-203h-788z" />
    <glyph glyph-name="uni1EBF" unicode="&#x1ebf;" horiz-adv-x="985" 
d="M504 1260l-101 -113h-208l231 242h156l231 -242h-209zM424 1442l106 237h187l-166 -237h-127zM338 639h332v35q0 217 -166 217t-166 -217v-35zM338 471v-63q0 -124 43 -182t135 -58q131 0 166 135l197 -43q-29 -150 -117 -216t-280 -64q-192 0 -284 112q-93 112 -94 365
v133q0 254 92 368t302 115q209 0 301 -114t92 -369v-119h-553z" />
    <glyph glyph-name="uni1EC0" unicode="&#x1ec0;" 
d="M547 1671l-101 -112h-208l231 241h156l229 -241h-209zM621 1855h-127l-166 238h186zM154 0v1462h782v-202h-539v-420h455v-203h-455v-434h545v-203h-788z" />
    <glyph glyph-name="uni1EC1" unicode="&#x1ec1;" horiz-adv-x="985" 
d="M504 1260l-101 -113h-208l231 242h156l231 -242h-209zM580 1442h-129l-166 237h186zM338 639h332v35q0 217 -166 217t-166 -217v-35zM338 471v-63q0 -124 43 -182t135 -58q131 0 166 135l197 -43q-29 -150 -117 -216t-280 -64q-192 0 -284 112q-93 112 -94 365v133
q0 254 92 368t302 115q209 0 301 -114t92 -369v-119h-553z" />
    <glyph glyph-name="uni1EC2" unicode="&#x1ec2;" 
d="M545 1665l-101 -106h-208l229 223h158l231 -223h-209zM610 1815h-137v14q2 49 8 66q5 17 25 44t20 43q0 23 -28 23t-80 -25l-33 103q71 29 143 29t114 -34t42 -91q0 -27 -9 -43t-44 -56q-21 -28 -21 -73zM154 0v1462h782v-202h-539v-420h455v-203h-455v-434h545v-203
h-788z" />
    <glyph glyph-name="uni1EC3" unicode="&#x1ec3;" horiz-adv-x="985" 
d="M502 1253l-101 -106h-208l231 223h156l231 -223h-209zM430 1401v14q2 47 8 67t26 46q20 28 21 43q-1 23 -31 23t-77 -27l-35 104q70 29 144 29t115 -34q42 -34 42 -77t-9 -59t-37 -47t-30 -82h-137zM338 639h332v35q0 217 -166 217t-166 -217v-35zM338 471v-63
q0 -124 43 -182t135 -58q131 0 166 135l197 -43q-29 -150 -117 -216t-280 -64q-192 0 -284 112q-93 112 -94 365v133q0 254 92 368t302 115q209 0 301 -114t92 -369v-119h-553z" />
    <glyph glyph-name="uni1EC4" unicode="&#x1ec4;" 
d="M549 1671l-100 -112h-209l231 241h156l231 -241h-209zM452 2085q68 0 118 -50t71 -50q37 0 49 90h117q-10 -86 -31 -138q-37 -88 -135 -88q-66 1 -115 51t-68 50t-37 -26t-24 -64h-116q23 125 62 175q41 50 109 50zM154 0v1462h782v-202h-539v-420h455v-203h-455v-434
h545v-203h-788z" />
    <glyph glyph-name="uni1EC5" unicode="&#x1ec5;" horiz-adv-x="985" 
d="M506 1260l-98 -113h-209l229 242h158l229 -242h-209zM408 1673q68 0 120 -50q51 -50 72 -50q35 0 47 90h117q-16 -127 -52 -177t-108 -50t-120 51t-68 51t-38 -26t-24 -66h-116q23 125 62 176q40 51 108 51zM338 639h332v35q0 217 -166 217t-166 -217v-35zM338 471v-63
q0 -124 43 -182t135 -58q131 0 166 135l197 -43q-29 -150 -117 -216t-280 -64q-192 0 -284 112q-93 112 -94 365v133q0 254 92 368t302 115q209 0 301 -114t92 -369v-119h-553z" />
    <glyph glyph-name="uni1EC6" unicode="&#x1ec6;" 
d="M449 -418v246h225v-246h-225zM539 1767l-101 -159h-221l238 297h168l239 -297h-221zM154 0v1462h782v-202h-539v-420h455v-203h-455v-434h545v-203h-788z" />
    <glyph glyph-name="uni1EC7" unicode="&#x1ec7;" horiz-adv-x="985" 
d="M379 -418v246h225v-246h-225zM506 1354l-100 -160h-222l238 297h168l237 -297h-221zM338 639h332v35q0 217 -166 217t-166 -217v-35zM338 471v-63q0 -124 43 -182t135 -58q131 0 166 135l197 -43q-29 -150 -117 -216t-280 -64q-192 0 -284 112q-93 112 -94 365v133
q0 254 92 368t302 115q209 0 301 -114t92 -369v-119h-553z" />
    <glyph glyph-name="uni1EC8" unicode="&#x1ec8;" horiz-adv-x="552" 
d="M367 1581h-160l2 29q0 68 9 94t50 80q18 31 19 47q0 39 -45 39t-117 -35l-43 141q110 37 198 37t142 -45t53 -127q0 -41 -12 -65q-13 -24 -49 -63t-42 -61t-5 -71zM154 0v1462h245v-1462h-245z" />
    <glyph glyph-name="uni1EC9" unicode="&#x1ec9;" horiz-adv-x="493" 
d="M336 1178h-160l2 30q0 66 9 92t51 80q18 27 18 47q0 39 -44 39t-118 -32l-43 139q109 37 198 37t142 -45t53 -125q0 -41 -12 -65t-48 -65t-42 -61t-6 -71zM129 0v1051h233v-1051h-233z" />
    <glyph glyph-name="uni1ECA" unicode="&#x1eca;" horiz-adv-x="552" 
d="M164 -418v246h225v-246h-225zM154 0v1462h245v-1462h-245z" />
    <glyph glyph-name="uni1ECB" unicode="&#x1ecb;" horiz-adv-x="493" 
d="M133 -418v246h225v-246h-225zM129 0v1051h233v-1051h-233zM129 1221v252h233v-252h-233z" />
    <glyph glyph-name="uni1ECC" unicode="&#x1ecc;" horiz-adv-x="1187" 
d="M481 -418v246h226v-246h-226zM817 524v414q0 188 -50 266t-173 78t-173 -78t-50 -266v-414q0 -188 50 -266t173 -78t173 78t50 266zM125 502v459q0 260 98 380q117 141 381 141t379 -165q80 -115 80 -356v-459q0 -260 -98 -381q-119 -141 -381 -141t-379 163
q-80 117 -80 359z" />
    <glyph glyph-name="uni1ECD" unicode="&#x1ecd;" horiz-adv-x="1001" 
d="M387 -418v246h225v-246h-225zM662 422v207q0 137 -37 195t-125 58t-125 -58t-37 -195v-207q0 -136 37 -194t125 -58t125 58t37 194zM104 422v207q0 236 94 340t302 104q209 0 302 -104t93 -340v-207q0 -234 -93 -338t-302 -104q-208 0 -302 104t-94 338z" />
    <glyph glyph-name="uni1ECE" unicode="&#x1ece;" horiz-adv-x="1187" 
d="M684 1581h-160q2 90 11 119q8 29 51 84q18 27 18 47q0 39 -44 39t-120 -35l-41 141q111 37 200 37t141 -45t53 -127q-1 -41 -13 -65t-61 -76q-23 -30 -29 -50t-6 -69zM817 524v414q0 188 -50 266t-173 78t-173 -78t-50 -266v-414q0 -188 50 -266t173 -78t173 78t50 266z
M125 502v459q0 260 98 380q117 141 381 141t379 -165q80 -115 80 -356v-459q0 -260 -98 -381q-119 -141 -381 -141t-379 163q-80 117 -80 359z" />
    <glyph glyph-name="uni1ECF" unicode="&#x1ecf;" horiz-adv-x="1001" 
d="M590 1178h-160q2 90 10 118t52 84q18 27 18 47q0 39 -44 39t-118 -32l-43 139q109 37 199 37t142 -45t52 -127q0 -39 -12 -63t-61 -79q-23 -29 -29 -49t-6 -69zM662 422v207q0 137 -37 195t-125 58t-125 -58t-37 -195v-207q0 -136 37 -194t125 -58t125 58t37 194z
M104 422v207q0 236 94 340t302 104q209 0 302 -104t93 -340v-207q0 -234 -93 -338t-302 -104q-208 0 -302 104t-94 338z" />
    <glyph glyph-name="uni1ED0" unicode="&#x1ed0;" horiz-adv-x="1187" 
d="M594 1671l-100 -112h-209l231 241h156l231 -241h-209zM514 1855l109 238h186l-166 -238h-129zM817 524v414q0 188 -50 266t-173 78t-173 -78t-50 -266v-414q0 -188 50 -266t173 -78t173 78t50 266zM125 502v459q0 260 98 380q117 141 381 141t379 -165q80 -115 80 -356
v-459q0 -260 -98 -381q-119 -141 -381 -141t-379 163q-80 117 -80 359z" />
    <glyph glyph-name="uni1ED1" unicode="&#x1ed1;" horiz-adv-x="1001" 
d="M500 1260l-101 -113h-209l232 242h156l231 -242h-209zM420 1442l108 237h187l-166 -237h-129zM662 422v207q0 137 -37 195t-125 58t-125 -58t-37 -195v-207q0 -136 37 -194t125 -58t125 58t37 194zM104 422v207q0 236 94 340t302 104q209 0 302 -104t93 -340v-207
q0 -234 -93 -338t-302 -104q-208 0 -302 104t-94 338z" />
    <glyph glyph-name="uni1ED2" unicode="&#x1ed2;" horiz-adv-x="1187" 
d="M594 1671l-100 -112h-209l231 241h156l231 -241h-209zM670 1855h-127l-166 238h186zM817 524v414q0 188 -50 266t-173 78t-173 -78t-50 -266v-414q0 -188 50 -266t173 -78t173 78t50 266zM125 502v459q0 260 98 380q117 141 381 141t379 -165q80 -115 80 -356v-459
q0 -260 -98 -381q-119 -141 -381 -141t-379 163q-80 117 -80 359z" />
    <glyph glyph-name="uni1ED3" unicode="&#x1ed3;" horiz-adv-x="1001" 
d="M500 1260l-101 -113h-209l232 242h158l229 -242h-209zM575 1442h-126l-166 237h186zM662 422v207q0 137 -37 195t-125 58t-125 -58t-37 -195v-207q0 -136 37 -194t125 -58t125 58t37 194zM104 422v207q0 236 94 340t302 104q209 0 302 -104t93 -340v-207q0 -234 -93 -338
t-302 -104q-208 0 -302 104t-94 338z" />
    <glyph glyph-name="uni1ED4" unicode="&#x1ed4;" horiz-adv-x="1187" 
d="M592 1665l-100 -106h-209l231 223h156l231 -223h-209zM522 1815q0 77 27 115t26 52q-1 23 -29 23t-79 -25l-33 103q66 29 141 29t117 -34t41 -77q0 -43 -9 -59t-37 -47t-30 -80h-135zM817 524v414q0 188 -50 266t-173 78t-173 -78t-50 -266v-414q0 -188 50 -266t173 -78
t173 78t50 266zM125 502v459q0 260 98 380q117 141 381 141t379 -165q80 -115 80 -356v-459q0 -260 -98 -381q-119 -141 -381 -141t-379 163q-80 117 -80 359z" />
    <glyph glyph-name="uni1ED5" unicode="&#x1ed5;" horiz-adv-x="1001" 
d="M498 1253l-101 -106h-209l232 223h155l232 -223h-209zM428 1401v14q2 49 8 69t35 56q10 20 10 31q-1 23 -29 23t-79 -27l-33 104q70 29 142 29t115 -34q42 -34 42 -77t-9 -59t-37 -48t-30 -81h-135zM662 422v207q0 137 -37 195t-125 58t-125 -58t-37 -195v-207
q0 -136 37 -194t125 -58t125 58t37 194zM104 422v207q0 236 94 340t302 104q209 0 302 -104t93 -340v-207q0 -234 -93 -338t-302 -104q-208 0 -302 104t-94 338z" />
    <glyph glyph-name="uni1ED6" unicode="&#x1ed6;" horiz-adv-x="1187" 
d="M598 1671l-100 -112h-209l231 241h156l231 -241h-209zM506 2085q61 0 112 -50t72 -50q37 0 49 90h117q-14 -100 -33 -138q-35 -88 -133 -88q-68 1 -116 51t-67 50t-37 -26t-24 -64h-116q18 100 39 137q45 88 137 88zM817 524v414q0 188 -50 266t-173 78t-173 -78
t-50 -266v-414q0 -188 50 -266t173 -78t173 78t50 266zM125 502v459q0 260 98 380q117 141 381 141t379 -165q80 -115 80 -356v-459q0 -260 -98 -381q-119 -141 -381 -141t-379 163q-80 117 -80 359z" />
    <glyph glyph-name="uni1ED7" unicode="&#x1ed7;" horiz-adv-x="1001" 
d="M504 1260l-101 -113h-208l231 242h156l231 -242h-209zM404 1673q68 0 120 -50q51 -50 72 -50q37 0 49 90h117q-12 -96 -31 -139q-41 -88 -135 -88q-70 0 -116 51t-66 51q-48 0 -62 -92h-116q23 127 61 177q39 50 107 50zM662 422v207q0 137 -37 195t-125 58t-125 -58
t-37 -195v-207q0 -136 37 -194t125 -58t125 58t37 194zM104 422v207q0 236 94 340t302 104q209 0 302 -104t93 -340v-207q0 -234 -93 -338t-302 -104q-208 0 -302 104t-94 338z" />
    <glyph glyph-name="uni1ED8" unicode="&#x1ed8;" horiz-adv-x="1187" 
d="M481 -418v246h226v-246h-226zM594 1767l-100 -159h-222l238 297h168l240 -297h-222zM817 524v414q0 188 -50 266t-173 78t-173 -78t-50 -266v-414q0 -188 50 -266t173 -78t173 78t50 266zM125 502v459q0 260 98 380q117 141 381 141t379 -165q80 -115 80 -356v-459
q0 -260 -98 -381q-119 -141 -381 -141t-379 163q-80 117 -80 359z" />
    <glyph glyph-name="uni1ED9" unicode="&#x1ed9;" horiz-adv-x="1001" 
d="M387 -418v246h225v-246h-225zM500 1354l-101 -160h-221l238 297h168l239 -297h-221zM662 422v207q0 137 -37 195t-125 58t-125 -58t-37 -195v-207q0 -136 37 -194t125 -58t125 58t37 194zM104 422v207q0 236 94 340t302 104q209 0 302 -104t93 -340v-207q0 -234 -93 -338
t-302 -104q-208 0 -302 104t-94 338z" />
    <glyph glyph-name="uni1EDA" unicode="&#x1eda;" horiz-adv-x="1261" 
d="M512 1602l145 307h263l-234 -307h-174zM817 524v414q0 188 -50 266t-173 78t-173 -78t-50 -266v-414q0 -188 50 -266t173 -78t173 78t50 266zM1063 961v-459q0 -260 -98 -381q-119 -141 -381 -141t-379 163q-80 117 -80 359v459q0 262 98 380q115 141 373 142
q184 0 290 -71t152 -222q84 74 84 154t-35 141h203q14 -49 15 -94q1 -109 -51 -182t-195 -160q4 -39 4 -88z" />
    <glyph glyph-name="uni1EDB" unicode="&#x1edb;" horiz-adv-x="1089" 
d="M414 1188l145 309h262l-233 -309h-174zM662 422v207q0 137 -37 194t-125 57t-125 -56q-37 -58 -37 -195v-207q0 -136 37 -194t125 -58t125 58t37 194zM1130 967q0 -184 -237 -328q2 -25 2 -68v-149q0 -234 -93 -338t-302 -104t-302 104t-94 338v207q0 233 94 339t284 105
q188 -1 279 -69t122 -218q41 53 52 82t11 82t-33 119h201q16 -57 16 -102z" />
    <glyph glyph-name="uni1EDC" unicode="&#x1edc;" horiz-adv-x="1261" 
d="M739 1602h-174l-233 307h262zM817 524v414q0 188 -50 266t-173 78t-173 -78t-50 -266v-414q0 -188 50 -266t173 -78t173 78t50 266zM1063 961v-459q0 -260 -98 -381q-119 -141 -381 -141t-379 163q-80 117 -80 359v459q0 262 98 380q115 141 373 142q184 0 290 -71
t152 -222q84 74 84 154t-35 141h203q14 -49 15 -94q1 -109 -51 -182t-195 -160q4 -39 4 -88z" />
    <glyph glyph-name="uni1EDD" unicode="&#x1edd;" horiz-adv-x="1089" 
d="M635 1188h-174l-234 309h262zM662 422v207q0 137 -37 194t-125 57t-125 -56q-37 -58 -37 -195v-207q0 -136 37 -194t125 -58t125 58t37 194zM1130 967q0 -184 -237 -328q2 -25 2 -68v-149q0 -234 -93 -338t-302 -104t-302 104t-94 338v207q0 233 94 339t284 105
q188 -1 279 -69t122 -218q41 53 52 82t11 82t-33 119h201q16 -57 16 -102z" />
    <glyph glyph-name="uni1EDE" unicode="&#x1ede;" horiz-adv-x="1261" 
d="M690 1581h-158q0 88 10 118q9 30 50 85q18 31 18 47q0 39 -45 39t-116 -35l-43 141q114 37 200 37t139 -45t54 -127q-1 -41 -13 -65t-48 -65q-36 -43 -42 -63t-6 -67zM817 524v414q0 188 -50 266t-173 78t-173 -78t-50 -266v-414q0 -188 50 -266t173 -78t173 78t50 266z
M1063 961v-459q0 -260 -98 -381q-119 -141 -381 -141t-379 163q-80 117 -80 359v459q0 262 98 380q115 141 373 142q184 0 290 -71t152 -222q84 74 84 154t-35 141h203q14 -49 15 -94q1 -109 -51 -182t-195 -160q4 -39 4 -88z" />
    <glyph glyph-name="uni1EDF" unicode="&#x1edf;" horiz-adv-x="1089" 
d="M590 1178h-160l2 30q2 68 11 95t49 77q18 27 18 47q0 39 -44 39t-118 -32l-43 139q109 37 198 37t142 -45t53 -125q0 -41 -12 -66t-48 -65t-42 -60t-6 -71zM662 422v207q0 137 -37 194t-125 57t-125 -56q-37 -58 -37 -195v-207q0 -136 37 -194t125 -58t125 58t37 194z
M1130 967q0 -184 -237 -328q2 -25 2 -68v-149q0 -234 -93 -338t-302 -104t-302 104t-94 338v207q0 233 94 339t284 105q188 -1 279 -69t122 -218q41 53 52 82t11 82t-33 119h201q16 -57 16 -102z" />
    <glyph glyph-name="uni1EE0" unicode="&#x1ee0;" horiz-adv-x="1261" 
d="M711 1772q45 0 59 110h139q-14 -119 -35 -168q-45 -111 -163 -110q-87 0 -145 62t-81 63q-53 0 -69 -111h-142q23 121 45 166q55 113 164 112q76 0 140 -61q61 -63 88 -63zM817 524v414q0 188 -50 266t-173 78t-173 -78t-50 -266v-414q0 -188 50 -266t173 -78t173 78
t50 266zM1063 961v-459q0 -260 -98 -381q-119 -141 -381 -141t-379 163q-80 117 -80 359v459q0 262 98 380q115 141 373 142q184 0 290 -71t152 -222q84 74 84 154t-35 141h203q14 -49 15 -94q1 -109 -51 -182t-195 -160q4 -39 4 -88z" />
    <glyph glyph-name="uni1EE1" unicode="&#x1ee1;" horiz-adv-x="1089" 
d="M393 1483q76 -1 138 -63t87 -62q45 0 62 110h139q-12 -109 -35 -165q-47 -111 -163 -111q-83 0 -143 62t-83 63q-55 0 -69 -111h-142q20 117 45 166q53 111 164 111zM662 422v207q0 137 -37 194t-125 57t-125 -56q-37 -58 -37 -195v-207q0 -136 37 -194t125 -58t125 58
t37 194zM1130 967q0 -184 -237 -328q2 -25 2 -68v-149q0 -234 -93 -338t-302 -104t-302 104t-94 338v207q0 233 94 339t284 105q188 -1 279 -69t122 -218q41 53 52 82t11 82t-33 119h201q16 -57 16 -102z" />
    <glyph glyph-name="uni1EE2" unicode="&#x1ee2;" horiz-adv-x="1261" 
d="M510 -418v246h225v-246h-225zM817 524v414q0 188 -50 266t-173 78t-173 -78t-50 -266v-414q0 -188 50 -266t173 -78t173 78t50 266zM1063 961v-459q0 -260 -98 -381q-119 -141 -381 -141t-379 163q-80 117 -80 359v459q0 262 98 380q115 141 373 142q184 0 290 -71
t152 -222q84 74 84 154t-35 141h203q14 -49 15 -94q1 -109 -51 -182t-195 -160q4 -39 4 -88z" />
    <glyph glyph-name="uni1EE3" unicode="&#x1ee3;" horiz-adv-x="1089" 
d="M399 -418v246h226v-246h-226zM662 422v207q0 137 -37 194t-125 57t-125 -56q-37 -58 -37 -195v-207q0 -136 37 -194t125 -58t125 58t37 194zM1130 967q0 -184 -237 -328q2 -25 2 -68v-149q0 -234 -93 -338t-302 -104t-302 104t-94 338v207q0 233 94 339t284 105
q188 -1 279 -69t122 -218q41 53 52 82t11 82t-33 119h201q16 -57 16 -102z" />
    <glyph glyph-name="uni1EE4" unicode="&#x1ee4;" horiz-adv-x="1210" 
d="M492 -418v246h225v-246h-225zM147 1462h246v-970q0 -180 45 -246t167 -66t167 66t45 246v970h246v-970q0 -148 -16 -224t-60 -135q-117 -153 -393 -153t-387 176q-59 96 -60 336v970z" />
    <glyph glyph-name="uni1EE5" unicode="&#x1ee5;" horiz-adv-x="995" 
d="M385 -418v246h225v-246h-225zM121 1051h233v-611q0 -143 31 -201q31 -59 107 -59t110 65q33 65 33 222v584h233v-1051h-168l-22 92q-47 -63 -99 -88t-139 -24q-221 0 -290 178q-29 74 -29 254v639z" />
    <glyph glyph-name="uni1EE6" unicode="&#x1ee6;" horiz-adv-x="1210" 
d="M694 1581h-159q2 90 10 119t51 84q18 31 18 47q0 39 -45 39t-116 -35l-43 141q112 37 200 37t140 -45t53 -127q0 -41 -12 -65t-62 -76q-23 -30 -29 -50t-6 -69zM147 1462h246v-970q0 -180 45 -246t167 -66t167 66t45 246v970h246v-970q0 -148 -16 -224t-60 -135
q-117 -153 -393 -153t-387 176q-59 96 -60 336v970z" />
    <glyph glyph-name="uni1EE7" unicode="&#x1ee7;" horiz-adv-x="995" 
d="M588 1178h-160q2 90 10 118t51 84q18 31 19 47q0 39 -44 39t-118 -32l-43 139q109 37 199 37t142 -45t52 -127q0 -39 -12 -63t-61 -79q-23 -29 -29 -49t-6 -69zM121 1051h233v-611q0 -143 31 -201q31 -59 107 -59t110 65q33 65 33 222v584h233v-1051h-168l-22 92
q-47 -63 -99 -88t-139 -24q-221 0 -290 178q-29 74 -29 254v639z" />
    <glyph glyph-name="uni1EE8" unicode="&#x1ee8;" horiz-adv-x="1335" 
d="M537 1602l145 307h262l-233 -307h-174zM147 1462h246v-970q0 -154 31 -216q47 -96 182 -96q76 0 120 26t69 85q23 59 22 201v970h246v-313q78 45 111 93q32 48 32 117t-32 126h200q14 -55 15 -99q0 -158 -156 -278q-35 -27 -170 -107v-509q0 -148 -16 -224t-62 -135
q-61 -82 -150 -118t-229 -35q-287 0 -397 176q-61 96 -62 336v970z" />
    <glyph glyph-name="uni1EE9" unicode="&#x1ee9;" horiz-adv-x="1142" 
d="M424 1188l145 309h262l-233 -309h-174zM121 1051h233v-611q0 -143 31 -201q31 -59 109 -59t110 65t33 222v584h233v-320q80 45 112 92t32 113t-33 133h201q14 -57 14 -100q0 -158 -156 -279q-47 -35 -170 -106v-584h-168l-22 92q-45 -63 -98 -88t-142 -24
q-221 0 -290 178q-29 74 -29 254v639z" />
    <glyph glyph-name="uni1EEA" unicode="&#x1eea;" horiz-adv-x="1335" 
d="M717 1602h-174l-234 307h262zM147 1462h246v-970q0 -154 31 -216q47 -96 182 -96q76 0 120 26t69 85q23 59 22 201v970h246v-313q78 45 111 93q32 48 32 117t-32 126h200q14 -55 15 -99q0 -158 -156 -278q-35 -27 -170 -107v-509q0 -148 -16 -224t-62 -135
q-61 -82 -150 -118t-229 -35q-287 0 -397 176q-61 96 -62 336v970z" />
    <glyph glyph-name="uni1EEB" unicode="&#x1eeb;" horiz-adv-x="1142" 
d="M616 1188h-174l-233 309h262zM121 1051h233v-611q0 -143 31 -201q31 -59 109 -59t110 65t33 222v584h233v-320q80 45 112 92t32 113t-33 133h201q14 -57 14 -100q0 -158 -156 -279q-47 -35 -170 -106v-584h-168l-22 92q-45 -63 -98 -88t-142 -24q-221 0 -290 178
q-29 74 -29 254v639z" />
    <glyph glyph-name="uni1EEC" unicode="&#x1eec;" horiz-adv-x="1335" 
d="M576 1870q-44 0 -119 -35l-41 141q110 37 198 37t142 -45t53 -127q0 -41 -12 -65q-13 -24 -49 -63t-42 -61t-8 -71h-157q2 90 10 119q9 29 39 71t31 60q-1 39 -45 39zM147 1462h246v-970q0 -154 31 -216q47 -96 182 -96q76 0 120 26t69 85q23 59 22 201v970h246v-313
q78 45 111 93q32 48 32 117t-32 126h200q14 -55 15 -99q0 -158 -156 -278q-35 -27 -170 -107v-509q0 -148 -16 -224t-62 -135q-61 -82 -150 -118t-229 -35q-287 0 -397 176q-61 96 -62 336v970z" />
    <glyph glyph-name="uni1EED" unicode="&#x1eed;" horiz-adv-x="1142" 
d="M434 1178q0 88 9 118t40 71q31 42 31 60q0 39 -45 39t-119 -32l-41 139q109 37 199 37t142 -45t52 -127q0 -41 -12 -65t-61 -77q-23 -29 -29 -49t-8 -69h-158zM121 1051h233v-611q0 -143 31 -201q31 -59 109 -59t110 65t33 222v584h233v-320q80 45 112 92t32 113t-33 133
h201q14 -57 14 -100q0 -158 -156 -279q-47 -35 -170 -106v-584h-168l-22 92q-45 -63 -98 -88t-142 -24q-221 0 -290 178q-29 74 -29 254v639z" />
    <glyph glyph-name="uni1EEE" unicode="&#x1eee;" horiz-adv-x="1335" 
d="M725 1772q45 0 59 110h142q-12 -109 -35 -168q-47 -111 -166 -110q-82 0 -141 62t-82 63q-58 0 -70 -111h-141q20 121 45 166q51 113 164 112q76 0 137 -62t88 -62zM147 1462h246v-970q0 -154 31 -216q47 -96 182 -96q76 0 120 26t69 85q23 59 22 201v970h246v-313
q78 45 111 93q32 48 32 117t-32 126h200q14 -55 15 -99q0 -158 -156 -278q-35 -27 -170 -107v-509q0 -148 -16 -224t-62 -135q-61 -82 -150 -118t-229 -35q-287 0 -397 176q-61 96 -62 336v970z" />
    <glyph glyph-name="uni1EEF" unicode="&#x1eef;" horiz-adv-x="1142" 
d="M406 1483q78 -1 140 -63t87 -62q43 0 59 110h142q-16 -121 -37 -165q-45 -111 -164 -111q-85 0 -143 62t-80 63q-56 0 -72 -111h-139q18 117 43 166q53 111 164 111zM121 1051h233v-611q0 -143 31 -201q31 -59 109 -59t110 65t33 222v584h233v-320q80 45 112 92t32 113
t-33 133h201q14 -57 14 -100q0 -158 -156 -279q-47 -35 -170 -106v-584h-168l-22 92q-45 -63 -98 -88t-142 -24q-221 0 -290 178q-29 74 -29 254v639z" />
    <glyph glyph-name="uni1EF0" unicode="&#x1ef0;" horiz-adv-x="1335" 
d="M502 -418v246h225v-246h-225zM147 1462h246v-970q0 -154 31 -216q47 -96 182 -96q76 0 120 26t69 85q23 59 22 201v970h246v-313q78 45 111 93q32 48 32 117t-32 126h200q14 -55 15 -99q0 -158 -156 -278q-35 -27 -170 -107v-509q0 -148 -16 -224t-62 -135
q-61 -82 -150 -118t-229 -35q-287 0 -397 176q-61 96 -62 336v970z" />
    <glyph glyph-name="uni1EF1" unicode="&#x1ef1;" horiz-adv-x="1142" 
d="M442 -418v246h226v-246h-226zM121 1051h233v-611q0 -143 31 -201q31 -59 109 -59t110 65t33 222v584h233v-320q80 45 112 92t32 113t-33 133h201q14 -57 14 -100q0 -158 -156 -279q-47 -35 -170 -106v-584h-168l-22 92q-45 -63 -98 -88t-142 -24q-221 0 -290 178
q-29 74 -29 254v639z" />
    <glyph glyph-name="Ygrave" unicode="&#x1ef2;" horiz-adv-x="968" 
d="M614 1602h-174l-233 307h262zM365 0v520l-396 942h258l260 -671l261 671h260l-398 -942v-520h-245z" />
    <glyph glyph-name="ygrave" unicode="&#x1ef3;" horiz-adv-x="903" 
d="M573 1188h-174l-233 309h262zM86 -279q110 0 148 32t73 157l27 96l-309 1045h235l193 -764l182 764h237l-325 -1160q-47 -161 -94 -233t-127 -100t-240 -29v192z" />
    <glyph glyph-name="uni1EF4" unicode="&#x1ef4;" horiz-adv-x="968" 
d="M373 -418v246h225v-246h-225zM365 0v520l-396 942h258l260 -671l261 671h260l-398 -942v-520h-245z" />
    <glyph glyph-name="uni1EF5" unicode="&#x1ef5;" horiz-adv-x="903" 
d="M631 -418v246h225v-246h-225zM86 -279q110 0 148 32t73 157l27 96l-309 1045h235l193 -764l182 764h237l-325 -1160q-47 -161 -94 -233t-127 -100t-240 -29v192z" />
    <glyph glyph-name="uni1EF6" unicode="&#x1ef6;" horiz-adv-x="968" 
d="M416 1581q0 88 9 118t39 71t32 61q0 39 -44 39t-120 -35l-41 141q111 37 199 37t140 -45q54 -45 54 -127q0 -41 -12 -65t-62 -76q-23 -30 -29 -50t-8 -69h-157zM365 0v520l-396 942h258l260 -671l261 671h260l-398 -942v-520h-245z" />
    <glyph glyph-name="uni1EF7" unicode="&#x1ef7;" horiz-adv-x="903" 
d="M541 1178h-160q2 90 10 118t51 84q18 31 19 47q0 39 -44 39t-118 -32l-43 139q109 37 199 37t142 -45t52 -127q0 -41 -12 -65t-62 -77q-23 -29 -29 -49t-5 -69zM86 -279q110 0 148 32t73 157l27 96l-309 1045h235l193 -764l182 764h237l-325 -1160q-47 -161 -94 -233
t-127 -100t-240 -29v192z" />
    <glyph glyph-name="uni1EF8" unicode="&#x1ef8;" horiz-adv-x="968" 
d="M602 1772q45 0 60 110h141q-12 -109 -35 -168q-47 -111 -166 -110q-82 0 -141 62t-82 63q-56 0 -72 -111h-139q18 119 43 166q55 113 166 112q76 0 137 -62t88 -62zM365 0v520l-396 942h258l260 -671l261 671h260l-398 -942v-520h-245z" />
    <glyph glyph-name="uni1EF9" unicode="&#x1ef9;" horiz-adv-x="903" 
d="M342 1483q78 -1 139 -63t88 -62q41 0 60 110h139q-12 -111 -35 -165q-45 -111 -164 -111q-86 0 -143 62t-82 63q-54 0 -70 -111h-141q23 117 45 166q53 111 164 111zM86 -279q110 0 148 32t73 157l27 96l-309 1045h235l193 -764l182 764h237l-325 -1160
q-47 -161 -94 -233t-127 -100t-240 -29v192z" />
    <glyph glyph-name="uni2002" unicode="&#x2002;" 
 />
    <glyph glyph-name="uni2003" unicode="&#x2003;" horiz-adv-x="2048" 
 />
    <glyph glyph-name="uni2004" unicode="&#x2004;" horiz-adv-x="681" 
 />
    <glyph glyph-name="uni2005" unicode="&#x2005;" horiz-adv-x="512" 
 />
    <glyph glyph-name="uni2006" unicode="&#x2006;" horiz-adv-x="342" 
 />
    <glyph glyph-name="uni2007" unicode="&#x2007;" horiz-adv-x="983" 
 />
    <glyph glyph-name="uni2008" unicode="&#x2008;" horiz-adv-x="0" 
 />
    <glyph glyph-name="uni2009" unicode="&#x2009;" horiz-adv-x="409" 
 />
    <glyph glyph-name="uni200A" unicode="&#x200a;" horiz-adv-x="256" 
 />
    <glyph glyph-name="uni2011" unicode="&#x2011;" horiz-adv-x="813" 
d="M133 631v203h549v-203h-549z" />
    <glyph glyph-name="figuredash" unicode="&#x2012;" horiz-adv-x="980" 
d="M117 631v203h745v-203h-745z" />
    <glyph glyph-name="endash" unicode="&#x2013;" horiz-adv-x="980" 
d="M117 631v203h745v-203h-745z" />
    <glyph glyph-name="emdash" unicode="&#x2014;" horiz-adv-x="983" 
d="M6 631v203h969v-203h-969z" />
    <glyph glyph-name="afii00208" unicode="&#x2015;" horiz-adv-x="983" 
d="M6 631v203h969v-203h-969z" />
    <glyph glyph-name="underscoredbl" unicode="&#x2017;" horiz-adv-x="829" 
d="M-43 -266v127h917v-127h-917zM-43 -467v127h917v-127h-917z" />
    <glyph glyph-name="quoteleft" unicode="&#x2018;" horiz-adv-x="389" 
d="M346 1462l-57 -516h-244l105 516h196z" />
    <glyph glyph-name="quoteright" unicode="&#x2019;" horiz-adv-x="389" 
d="M45 946l57 516h244l-102 -516h-199z" />
    <glyph glyph-name="quotesinglbase" unicode="&#x201a;" horiz-adv-x="389" 
d="M45 -272l57 516h244l-102 -516h-199z" />
    <glyph glyph-name="quotedblleft" unicode="&#x201c;" horiz-adv-x="761" 
d="M346 1462l-57 -516h-244l105 516h196zM719 1462l-57 -516h-244l102 516h199z" />
    <glyph glyph-name="quotedblright" unicode="&#x201d;" horiz-adv-x="761" 
d="M418 946l57 516h244l-105 -516h-196zM45 946l57 516h244l-102 -516h-199z" />
    <glyph glyph-name="quotedblbase" unicode="&#x201e;" horiz-adv-x="761" 
d="M418 -272l57 516h244l-105 -516h-196zM45 -272l57 516h244l-102 -516h-199z" />
    <glyph glyph-name="dagger" unicode="&#x2020;" horiz-adv-x="983" 
d="M373 825h-283v201h283v436h239v-436h281v-201h-281v-1138h-239v1138z" />
    <glyph glyph-name="daggerdbl" unicode="&#x2021;" horiz-adv-x="983" 
d="M373 825h-283v201h283v436h239v-436h281v-201h-281v-268h258v-201h-258v-669h-239v669h-258v201h258v268z" />
    <glyph glyph-name="bullet" unicode="&#x2022;" horiz-adv-x="983" 
d="M493 1083q155 0 260 -102t105 -254t-105 -254t-262 -102t-262 102q-104 101 -104 253t106 255q107 102 262 102z" />
    <glyph glyph-name="ellipsis" unicode="&#x2026;" horiz-adv-x="1548" 
d="M1167 0v248h246v-248h-246zM651 0v248h246v-248h-246zM135 0v248h246v-248h-246z" />
    <glyph glyph-name="perthousand" unicode="&#x2030;" horiz-adv-x="2422" 
d="M541 0l399 1462h217l-399 -1462h-217zM2157 309v146q0 98 -25 140t-83 42t-83 -42t-24 -140v-146q0 -98 24 -140t83 -42q58 0 83 43t25 139zM1739 309v146q0 176 71 252q72 75 239 75t239 -76t71 -251v-146q1 -176 -71 -252q-72 -75 -239 -75t-239 75q-71 76 -71 252z
M1436 309v146q0 98 -25 140t-83 42t-83 -42t-24 -140v-146q1 -98 25 -140t82 -42t83 42t25 140zM1018 309v146q0 176 72 252q72 75 238 75t239 -76q72 -76 71 -251v-146q0 -176 -72 -252q-72 -75 -238 -75t-238 76t-72 251zM479 1010v145q0 98 -24 140q-25 42 -83 42
t-83 -42t-25 -140v-145q0 -98 25 -140t83 -43q58 0 83 42q24 43 24 141zM61 1010v147q0 174 72 250t239 76q166 0 238 -75t72 -251v-147q0 -176 -72 -252t-238 -76t-239 76q-72 76 -72 252z" />
    <glyph glyph-name="guilsinglleft" unicode="&#x2039;" horiz-adv-x="483" 
d="M291 604l149 -258l-145 -98l-254 356l254 357l145 -99z" />
    <glyph glyph-name="guilsinglright" unicode="&#x203a;" horiz-adv-x="483" 
d="M193 604l-150 258l143 99l256 -357l-256 -356l-143 98z" />
    <glyph glyph-name="uni203E" unicode="&#x203e;" horiz-adv-x="829" 
d="M-43 1655v164h917v-164h-917z" />
    <glyph glyph-name="fraction" unicode="&#x2044;" horiz-adv-x="325" 
d="M-119 0l400 1462h215l-398 -1462h-217z" />
    <glyph glyph-name="zerosuperior" unicode="&#x2070;" horiz-adv-x="669" 
d="M428 1106v246q0 100 -21 143q-22 43 -72 43t-72 -43t-21 -143v-246q0 -100 22 -143t71 -43q50 0 72 43q21 43 21 143zM57 1102v254q-1 174 63 249t215 75t214 -76q63 -74 63 -248v-254q0 -174 -63 -249t-214 -75t-215 75t-63 249z" />
    <glyph glyph-name="foursuperior" unicode="&#x2074;" horiz-adv-x="667" 
d="M387 791v147h-342v111l254 618h193l-240 -584h135v183h162v-183h74v-145h-74v-147h-162z" />
    <glyph glyph-name="fivesuperior" unicode="&#x2075;" horiz-adv-x="665" 
d="M575 1667v-147h-292l-15 -181q49 14 88 15q132 0 188 -68t56 -217q0 -150 -57 -215q-72 -76 -216 -76t-210 60t-70 194l174 12q8 -119 96 -118q96 0 97 133q0 156 -88 155q-57 0 -97 -51l-141 25l33 479h454z" />
    <glyph glyph-name="sixsuperior" unicode="&#x2076;" horiz-adv-x="667" 
d="M335 1221q-51 0 -71 -35t-20 -118t20 -117q20 -33 70 -33t72 34q20 35 20 117t-20 117q-21 35 -71 35zM416 1354q32 0 80 -23t71 -57q41 -61 41 -211q0 -149 -63 -217t-214 -68t-216 76q-53 59 -54 207q0 86 14 135q13 49 60 133l187 338h219l-185 -315h15q13 2 45 2z
" />
    <glyph glyph-name="sevensuperior" unicode="&#x2077;" horiz-adv-x="587" 
d="M37 1520v147h485v-106l-233 -770h-207l244 729h-289z" />
    <glyph glyph-name="eightsuperior" unicode="&#x2078;" horiz-adv-x="667" 
d="M333 1182q-54 0 -77 -30t-23 -102t23 -103q23 -29 77 -29t77 30t22 101q0 73 -22 103t-77 30zM333 1548q-48 0 -69 -26q-20 -28 -20 -94t20 -94t68 -28t69 28t21 94t-20 92q-20 28 -69 28zM76 1434q0 128 60 187q60 58 196 58t197 -59t61 -186t-64 -177q48 -33 68 -81
t20 -134q0 -141 -66 -202q-66 -62 -216 -62t-216 62t-65 210q0 150 88 207q-63 49 -63 177z" />
    <glyph glyph-name="ninesuperior" unicode="&#x2079;" horiz-adv-x="667" 
d="M426 1405q0 133 -90 133q-52 0 -72 -31t-20 -105t20 -106q20 -30 70 -30t70 32q22 32 22 107zM281 1135q-86 0 -144 41q-76 56 -76 214q-1 158 63 223t210 65t210 -62q64 -61 64 -205q0 -84 -11 -128t-52 -122l-201 -370h-215l190 346q-18 -2 -38 -2z" />
    <glyph glyph-name="zeroinferior" unicode="&#x2080;" horiz-adv-x="669" 
d="M428 111v245q0 100 -21 144q-22 43 -72 43t-72 -43t-21 -144v-245q0 -100 21 -144q22 -43 72 -43t72 43q21 44 21 144zM57 106v254q-1 174 63 249t215 75t214 -75t63 -249v-254q0 -174 -63 -248t-214 -75q-151 1 -215 75t-63 248z" />
    <glyph glyph-name="oneinferior" unicode="&#x2081;" horiz-adv-x="575" 
d="M225 -205v694l-125 -53l-53 127l240 109h127v-877h-189z" />
    <glyph glyph-name="twoinferior" unicode="&#x2082;" horiz-adv-x="663" 
d="M51 -205v123l230 289q113 141 112 235q0 94 -78 95q-82 0 -92 -127l-174 6q1 268 269 268t268 -242q0 -90 -30 -149t-144 -205l-111 -143h281v-150h-531z" />
    <glyph glyph-name="threeinferior" unicode="&#x2083;" horiz-adv-x="663" 
d="M203 190v129h82q113 0 112 113q0 49 -22 77q-23 28 -64 28q-80 0 -92 -105l-170 8q7 128 71 186t199 58q264 0 265 -242q0 -131 -80 -184q53 -35 76 -84t22 -129q0 -262 -280 -262q-186 0 -252 106q-29 49 -35 146l174 12q8 -117 104 -117q102 0 103 117q0 68 -32 106
t-89 37h-92z" />
    <glyph glyph-name="fourinferior" unicode="&#x2084;" horiz-adv-x="667" 
d="M387 -205v150h-342v110l254 617h193l-240 -582h135v180h162v-180h74v-147h-74v-148h-162z" />
    <glyph glyph-name="fiveinferior" unicode="&#x2085;" horiz-adv-x="665" 
d="M575 672v-148h-292l-15 -180q43 14 88 14q131 0 188 -66q56 -68 56 -218t-57 -215q-72 -76 -216 -76t-210 60t-70 194l174 12q8 -119 96 -119q96 0 97 133q0 156 -88 156q-57 0 -97 -51l-141 25l33 479h454z" />
    <glyph glyph-name="sixinferior" unicode="&#x2086;" horiz-adv-x="667" 
d="M426 74q0 82 -20 116t-71 35q-51 0 -71 -35q-20 -36 -20 -118t20 -116t70 -34t72 35q20 35 20 117zM416 358q32 0 80 -22t71 -57q41 -61 41 -211t-63 -218t-214 -68t-216 77q-53 59 -54 207q0 86 14 135q13 49 60 133l187 338h219l-185 -316h15q13 2 45 2z" />
    <glyph glyph-name="seveninferior" unicode="&#x2087;" horiz-adv-x="587" 
d="M39 524v148h485v-107l-233 -770h-207l244 729h-289z" />
    <glyph glyph-name="eightinferior" unicode="&#x2088;" horiz-adv-x="667" 
d="M333 186q-54 0 -77 -30t-23 -102t23 -102t77 -30t77 30q22 30 22 102t-22 102q-23 30 -77 30zM333 553q-49 0 -69 -27q-20 -28 -20 -94t20 -94t68 -27q48 0 69 28q21 27 21 93t-20 94t-69 27zM76 439q0 129 60 187t196 58t197 -59t61 -187t-64 -176q48 -33 68 -81
t20 -134q0 -141 -65 -203q-67 -61 -217 -61t-216 61t-65 211q0 150 88 207q-63 49 -63 177z" />
    <glyph glyph-name="nineinferior" unicode="&#x2089;" horiz-adv-x="667" 
d="M426 412q0 133 -90 133q-52 0 -72 -31q-20 -32 -20 -106t20 -106t70 -32t70 33q22 33 22 109zM281 139q-86 0 -144 41q-76 56 -76 216q-1 160 63 224t210 64t210 -61t64 -205q0 -86 -11 -130t-52 -122l-201 -371h-215l190 346q-18 -2 -38 -2z" />
    <glyph glyph-name="franc" unicode="&#x20a3;" horiz-adv-x="1400" 
d="M827 0v913h172l29 -100q51 69 92 95t117 26t168 -53l-98 -189q-55 53 -107 53q-78 0 -113 -88t-34 -282v-375h-226zM145 0v1462h666v-202h-426v-431h340v-202h-340v-627h-240z" />
    <glyph glyph-name="lira" unicode="&#x20a4;" horiz-adv-x="983" 
d="M92 0v174q90 29 145 111q54 82 56 200h-219v136h198q-27 74 -47 114h-151v135h96q-41 111 -41 220q0 190 99 291q100 101 284 101t284 -94q100 -95 126 -294l-213 -43q-21 127 -63 181t-118 54q-153 0 -153 -194q0 -106 53 -222h336v-135h-272q14 -43 28 -114h244v-136
h-244v-41q-6 -135 -102 -241h528v-203h-854z" />
    <glyph glyph-name="peseta" unicode="&#x20a7;" horiz-adv-x="983" 
d="M389 1061h287q-10 113 -58 163t-141 48h-88v-211zM389 928v-226h88q185 -8 201 226h-289zM156 928h-148v133h148v401h309q215 6 323 -92t121 -309h125v-133h-123q-10 -221 -118 -323q-109 -101 -326 -95h-72v-510h-239v928z" />
    <glyph glyph-name="uni20AB" unicode="&#x20ab;" horiz-adv-x="983" 
d="M293 635v-201q0 -135 37 -197t116 -63q160 0 160 252v199q0 254 -162 254q-151 0 -151 -244zM61 436v201q0 227 80 331t252 105q125 0 213 -72v162h-254v160h254v139h234v-139h133v-160h-133v-1163h-181l-14 72q-93 -93 -258 -93q-164 1 -245 109t-81 348zM74 -371v164
h825v-164h-825z" />
    <glyph glyph-name="Euro" unicode="&#x20ac;" horiz-adv-x="983" 
d="M135 614v121h-153l51 135h102v70q0 283 90 401q106 139 324 140q381 0 395 -420l-225 -8q-8 119 -48 173t-126 54t-125 -80t-39 -268v-62h446l-51 -135h-395v-121h352l-51 -135h-299q2 -167 44 -235t144 -68q162 0 177 182l217 -14q-14 -369 -402 -369q-289 0 -381 224
q-43 113 -45 280h-155l51 135h102z" />
    <glyph glyph-name="uni20B4" unicode="&#x20b4;" horiz-adv-x="983" 
d="M643 1106q0 184 -156 184q-63 0 -100 -30t-57 -101l-203 49q66 274 367 275q182 1 279 -101t97 -290q0 -143 -61 -252l117 -35l-35 -129l-174 53q-59 -41 -195 -94l338 -103l-37 -129l-465 140q-51 -61 -51 -170q0 -201 185 -201q88 0 138 33t75 104l204 -47
q-35 -145 -138 -214t-286 -68q-406 0 -405 405q0 115 47 227l-115 35l37 129l164 -49q29 20 188 94l-323 99l37 129l450 -136q78 72 78 193z" />
    <glyph glyph-name="uni2101" unicode="&#x2101;" horiz-adv-x="1638" 
d="M1284 133q119 0 119 113q0 50 -31 74q-30 24 -138 55t-160 90t-52 174t73 183t210 67q190 0 266 -144l-146 -83q-49 82 -127 81q-92 0 -92 -96q0 -49 32 -78t128 -57t141 -61q80 -57 80 -199q0 -264 -291 -264q-233 -1 -315 157l149 86q51 -98 154 -98zM483 874l-110 365
l-109 -365h219zM731 686l213 776h191l-400 -1462h-190l160 586h-136l-49 162h-293l-49 -162h-198l315 876h158z" />
    <glyph glyph-name="afii61248" unicode="&#x2105;" horiz-adv-x="1654" 
d="M512 0l399 1462h191l-400 -1462h-190zM1411 346v115q0 113 -33 163q-34 50 -106 50t-105 -50t-32 -163v-115q1 -113 33 -162t105 -49t105 49t33 162zM948 336v135q0 184 77 268t248 84t248 -83t76 -269v-135q-1 -184 -77 -267t-247 -83t-248 84t-77 266zM367 637
q-309 0 -310 381v65q0 393 305 394q195 0 279 -160l-137 -80q-51 88 -129 88q-133 0 -133 -244v-61q0 -231 137 -232q86 0 137 86l137 -79q-86 -158 -286 -158z" />
    <glyph glyph-name="afii61289" unicode="&#x2113;" horiz-adv-x="952" 
d="M666 1331q-56 1 -96 -129t-81 -454q106 133 167 265q60 132 60 225t-50 93zM74 356q0 28 11 42q11 15 45 52q34 38 48 56t30 38t32 42q49 369 122 596q100 311 291 311q85 0 141 -65t56 -164q0 -319 -379 -695q-35 -285 -35 -367t43 -83q23 0 37 17t41 77q29 59 61 59
q45 0 46 -55q0 -98 -77 -180t-167 -82q-117 0 -164 111q-18 44 -22 80t-7 155v43l2 43q-86 -109 -112 -108q-14 0 -29 24q-14 25 -14 53z" />
    <glyph glyph-name="afii61352" unicode="&#x2116;" horiz-adv-x="2074" 
d="M1270 0v186h706v-186h-706zM1749 750v86q0 116 -30 166q-29 50 -97 50t-98 -50q-30 -52 -29 -166v-86q0 -115 30 -165q29 -50 97 -50t98 50t29 165zM1268 737v113q0 205 85 298t269 93t269 -93t85 -298v-113q0 -205 -85 -298t-269 -93t-269 93t-85 298zM150 0v1462h239
l483 -1007v1007h234v-1462h-234l-489 1014v-1014h-233z" />
    <glyph glyph-name="trademark" unicode="&#x2122;" horiz-adv-x="1558" 
d="M702 586v876h177l206 -479l205 479h176v-876h-178v524l-137 -344h-133l-137 344v-524h-179zM221 586v729h-219v147h625v-147h-217v-729h-189z" />
    <glyph glyph-name="uni2126" unicode="&#x2126;" horiz-adv-x="1181" 
d="M100 0v178h224v62q-209 100 -203 473v248q0 260 98 380q117 141 382 141t378 -165q82 -113 82 -356v-248q6 -371 -203 -473v-62h221v-178h-411v371q78 23 114 105t33 241v221q0 188 -51 266t-174 78t-173 -78t-50 -266v-221q-1 -158 33 -241t112 -105v-371h-412z" />
    <glyph glyph-name="estimated" unicode="&#x212e;" horiz-adv-x="1058" 
d="M756 784v199q-47 236 -219 236q-85 1 -135 -53t-83 -181v-201h437zM319 633v-238q20 -88 52 -151q53 -96 172 -97q180 0 239 236h166q-37 -168 -90 -244q-118 -162 -326 -162q-208 1 -330 185t-122 513t123 521t334 193q137 0 240 -83q103 -82 153 -230t51 -443h-662z
" />
    <glyph glyph-name="onethird" unicode="&#x2153;" horiz-adv-x="1654" 
d="M424 0l399 1462h215l-397 -1462h-217zM1118 395v129h82q53 0 83 30t30 83q0 104 -88 104q-82 0 -90 -104l-172 8q8 127 72 185q65 58 200 59q264 0 264 -242q0 -125 -82 -184q100 -66 101 -213q0 -262 -281 -262q-186 0 -252 106q-29 45 -35 146l174 12q6 -117 106 -117
t101 117q0 68 -32 106t-89 37h-92zM254 586v688l-129 -53l-59 139l247 102h129v-876h-188z" />
    <glyph glyph-name="twothirds" unicode="&#x2154;" horiz-adv-x="1654" 
d="M522 0l400 1462h217l-400 -1462h-217zM1184 395v129h82q113 0 112 113q0 49 -22 77q-23 28 -64 27q-80 0 -92 -104l-170 8q8 129 72 186t198 58q264 0 265 -242q0 -131 -80 -184q100 -66 100 -213q0 -262 -280 -262q-188 0 -254 106q-29 49 -35 146l174 12
q8 -117 108 -117t101 117q0 68 -33 106t-90 37h-92zM63 586v123l230 288q113 145 113 237t-80 93q-80 0 -90 -127l-175 6q0 268 275 269q262 0 262 -242q0 -91 -30 -151t-144 -203l-111 -144h281v-149h-531z" />
    <glyph glyph-name="uni2155" unicode="&#x2155;" horiz-adv-x="1654" 
d="M434 0l400 1462h217l-400 -1462h-217zM1499 877v-148h-295l-12 -180q49 14 88 14q132 1 188 -67t56 -218t-65 -220t-210 -70t-211 61t-67 193l174 12q6 -119 96 -119q96 1 96 145t-88 144q-61 0 -96 -53l-143 26l34 480h455zM268 586v688l-129 -53l-59 139l248 102h129
v-876h-189z" />
    <glyph glyph-name="uni2156" unicode="&#x2156;" horiz-adv-x="1654" 
d="M524 0l400 1462h217l-400 -1462h-217zM1542 877v-148h-293l-14 -180q51 14 90 14q131 1 187 -67t55 -218q0 -150 -58 -215q-72 -75 -216 -75t-210 60t-69 194l174 12q8 -119 100 -119t92 135q0 82 -20 118t-74 36t-90 -53l-141 26l35 480h452zM63 586v123l230 288
q113 145 113 237t-80 93q-80 0 -90 -127l-175 6q0 268 275 269q262 0 262 -242q0 -91 -30 -151t-144 -203l-111 -144h281v-149h-531z" />
    <glyph glyph-name="uni2157" unicode="&#x2157;" horiz-adv-x="1654" 
d="M524 0l400 1462h215l-400 -1462h-215zM1544 877v-148h-293l-14 -180q51 14 90 14q131 1 187 -67t55 -218q0 -150 -58 -215q-72 -75 -216 -75t-210 60t-69 194l174 12q8 -119 100 -119t92 135q0 82 -20 118t-74 36t-90 -53l-141 26l35 480h452zM219 981v129h82
q113 0 113 113q0 49 -23 77t-63 27q-80 0 -92 -104l-170 8q8 129 71 186t199 58q264 0 264 -242q0 -131 -80 -184q53 -35 76 -84t22 -129q0 -262 -280 -263q-186 0 -252 107q-29 49 -35 145l174 13q8 -117 105 -117q102 0 102 117q0 68 -32 106t-89 37h-92z" />
    <glyph glyph-name="uni2158" unicode="&#x2158;" horiz-adv-x="1654" 
d="M530 0l400 1462h217l-399 -1462h-218zM1546 877v-148h-293l-14 -180q51 14 90 14q131 1 187 -67t55 -218q0 -150 -58 -215q-72 -75 -215 -75q-144 0 -210 60t-70 194l174 12q8 -119 100 -119t92 135q0 82 -20 118t-74 36t-90 -53l-141 26l35 480h452zM395 586v147h-342
v111l254 618h193l-240 -583h135v182h162v-182h74v-146h-74v-147h-162z" />
    <glyph glyph-name="uni2159" unicode="&#x2159;" horiz-adv-x="1654" 
d="M453 0l397 1462h217l-399 -1462h-215zM1230 430q-50 0 -70 -35t-21 -118q0 -83 20 -117q19 -34 69 -33q50 0 72 34q22 35 21 117t-21 117t-70 35zM1314 563q30 -1 76 -23q48 -22 70 -57q43 -61 43 -211t-63 -217t-213 -67t-219 75q-52 59 -52 178t12 165t60 131l189 340
h217l-185 -316q35 2 65 2zM274 586v688l-129 -53l-59 139l248 102h129v-876h-189z" />
    <glyph glyph-name="uni215A" unicode="&#x215a;" horiz-adv-x="1654" 
d="M535 0l399 1462h215l-399 -1462h-215zM1279 430q-51 0 -71 -35t-20 -118t20 -117t70 -33q50 0 72 34q20 35 20 117t-20 117q-21 35 -71 35zM1363 563q30 -1 76 -23t70 -57q43 -66 43 -212t-63 -215q-63 -68 -214 -68t-216 75q-53 59 -53 207q0 86 13 136t58 131l189 340
h217l-185 -316q35 2 65 2zM590 1462v-147h-293l-14 -180q49 14 88 14q133 1 188 -67t55 -218t-57 -215q-72 -76 -216 -76q-144 1 -210 61t-70 193l175 13q8 -119 96 -119q96 1 96 145t-88 144q-59 0 -96 -54l-142 27l33 479h455z" />
    <glyph glyph-name="oneeighth" unicode="&#x215b;" horiz-adv-x="1654" 
d="M440 0l400 1462h215l-398 -1462h-217zM1352 260q0 70 -23 100t-77 31q-54 0 -76 -30q-22 -31 -23 -103q0 -72 23 -102q24 -30 76 -29q52 0 76 31q24 32 24 102zM1253 758q-51 0 -70 -27t-19 -93t20 -94t68 -28t69 28q20 28 20 93q0 121 -88 121zM1509 645
q0 -127 -63 -178q88 -57 88 -207t-66 -210q-66 -62 -216 -62t-216 61t-65 203q0 88 19 136q20 48 67 79q-61 51 -61 178t60 185t195 58t197 -58t61 -185zM270 586v688l-129 -53l-59 139l248 102h129v-876h-189z" />
    <glyph glyph-name="threeeighths" unicode="&#x215c;" horiz-adv-x="1654" 
d="M520 0l398 1462h217l-400 -1462h-215zM1208 258q0 -72 23 -102t77 -29q54 0 76 30q22 29 23 101q-1 72 -23 102t-76 31q-54 0 -77 -30q-23 -31 -23 -103zM1308 758q-48 0 -68 -28t-21 -94q0 -66 20 -92q21 -28 69 -28t68 28t20 94t-20 92q-20 28 -68 28zM1051 644
q0 128 60 186q61 58 197 58t196 -58t60 -184t-63 -179q49 -33 69 -80t19 -135q0 -141 -65 -203q-66 -61 -216 -61t-216 61t-66 211t88 207q-63 49 -63 177zM221 981v129h82q113 0 113 113q0 49 -23 77t-63 27q-80 0 -92 -104l-170 8q8 129 71 186t199 58q264 0 264 -242
q0 -131 -80 -184q53 -35 76 -84t23 -129q0 -262 -281 -263q-186 0 -252 107q-29 49 -35 145l174 13q8 -117 105 -117q102 0 102 117q0 68 -32 106t-89 37h-92z" />
    <glyph glyph-name="fiveeighths" unicode="&#x215d;" horiz-adv-x="1654" 
d="M520 0l400 1462h217l-400 -1462h-217zM1314 391q-54 0 -77 -30q-23 -31 -23 -103t23 -102t76 -29q53 0 77 31q24 32 24 102t-24 100q-22 30 -76 31zM1314 758q-48 0 -68 -27t-21 -93q0 -66 19 -94q18 -28 68 -28t70 28t20 94t-20 92q-20 28 -68 28zM1057 645
q0 127 60 185q61 58 197 58t196 -58t60 -184t-63 -179q88 -59 88 -207t-65 -211q-66 -61 -216 -61t-216 61t-66 212t86 206q-61 51 -61 178zM592 1462v-147h-293l-14 -180q49 14 88 14q133 1 188 -67t55 -218t-57 -215q-72 -76 -216 -76q-144 1 -210 61t-70 193l175 13
q8 -119 96 -119q96 1 96 145t-88 144q-59 0 -96 -54l-142 27l33 479h455z" />
    <glyph glyph-name="seveneighths" unicode="&#x215e;" horiz-adv-x="1654" 
d="M471 0l397 1462h217l-399 -1462h-215zM1273 391q-54 0 -77 -30q-22 -31 -22 -103t22 -102t77 -29q54 0 77 30q22 29 22 101t-22 102t-77 31zM1273 758q-49 0 -69 -27t-20 -93t20 -94t68 -28t69 28t21 93t-20 93t-69 28zM1016 644q0 128 60 186t196 58t197 -58t61 -186
t-64 -177q48 -33 68 -81t20 -134q0 -141 -65 -203q-67 -61 -217 -61t-216 61t-65 211q0 150 88 207q-63 49 -63 177zM113 1315v147h503v-106l-251 -770h-207l262 729h-307z" />
    <glyph glyph-name="arrowleft" unicode="&#x2190;" horiz-adv-x="1638" 
d="M1507 631h-1087l352 -352l-143 -144l-535 553v88l535 553l143 -143l-352 -352h1087v-203z" />
    <glyph glyph-name="arrowup" unicode="&#x2191;" horiz-adv-x="1638" 
d="M698 0v1145l-352 -352l-143 143l553 537h88l553 -537l-144 -143l-352 352v-1145h-203z" />
    <glyph glyph-name="arrowright" unicode="&#x2192;" horiz-adv-x="1638" 
d="M131 631v203h1088l-353 352l144 143l534 -553v-88l-534 -553l-144 144l353 352h-1088z" />
    <glyph glyph-name="arrowdown" unicode="&#x2193;" horiz-adv-x="1638" 
d="M698 1462h203v-1145l352 353l144 -144l-553 -534h-88l-553 534l143 144l352 -353v1145z" />
    <glyph glyph-name="arrowboth" unicode="&#x2194;" horiz-adv-x="1638" 
d="M1270 631h-903l290 -291l-143 -143l-473 491v88l473 492l143 -144l-290 -290h903l-291 290l143 144l473 -492v-88l-473 -491l-143 143z" />
    <glyph glyph-name="arrowupdn" unicode="&#x2195;" horiz-adv-x="1638" 
d="M700 270v922l-290 -289l-144 144l492 471h88l491 -471l-143 -144l-291 289v-922l291 289l143 -143l-491 -471h-88l-492 471l144 143z" />
    <glyph glyph-name="uni2196" unicode="&#x2196;" horiz-adv-x="1638" 
d="M489 436h-202v768l78 78h768v-203h-500l774 -776l-143 -141l-775 774v-500z" />
    <glyph glyph-name="uni2197" unicode="&#x2197;" horiz-adv-x="1638" 
d="M506 1079v203h768l78 -78v-768h-203v500l-776 -774l-142 143l775 774h-500z" />
    <glyph glyph-name="uni2198" unicode="&#x2198;" horiz-adv-x="1638" 
d="M1151 1008h203v-768l-78 -78h-768v203h500l-775 774l142 145l776 -776v500z" />
    <glyph glyph-name="uni2199" unicode="&#x2199;" horiz-adv-x="1638" 
d="M1133 365v-203h-768l-78 78v768h202v-500l777 776l141 -145l-774 -774h500z" />
    <glyph glyph-name="partialdiff" unicode="&#x2202;" horiz-adv-x="983" 
d="M653 424v172q0 140 -38 200q-37 60 -123 60t-124 -60t-38 -200v-172q0 -138 38 -200t124 -62t124 62t37 200zM102 410v200q0 216 84 322t256 106q90 0 146 -41q-53 145 -139 223t-220 107l29 154q293 -31 454 -256t169 -621v-194q-1 -230 -93 -330t-298 -100t-297 102
t-91 328z" />
    <glyph glyph-name="emptyset" unicode="&#x2205;" horiz-adv-x="983" 
d="M500 414q116 0 190 91t74 231t-86 249l-246 -561q35 -10 68 -10zM473 1067q-115 0 -189 -91t-75 -241q0 -150 100 -256l252 576q-57 12 -88 12zM487 264q-59 0 -114 17l-160 -367l-125 49l160 369q-201 135 -201 409q0 207 121 341t309 135q60 -1 144 -21l139 322
l125 -48l-144 -331q184 -137 185 -398q0 -213 -122 -345t-317 -132z" />
    <glyph glyph-name="Delta" unicode="&#x2206;" horiz-adv-x="983" 
d="M745 195l-249 933l-250 -933h499zM1071 0h-1151l473 1462h205z" />
    <glyph glyph-name="product" unicode="&#x220f;" horiz-adv-x="1134" 
d="M139 -422v1884h856v-1884h-235v1675h-385v-1675h-236z" />
    <glyph glyph-name="summation" unicode="&#x2211;" horiz-adv-x="1056" 
d="M102 -422v162l353 827l-332 725v170h831v-202h-557l318 -691l-318 -788h584v-203h-879z" />
    <glyph glyph-name="minus" unicode="&#x2212;" horiz-adv-x="983" 
d="M80 639v186h825v-186h-825z" />
    <glyph glyph-name="uni2215" unicode="&#x2215;" horiz-adv-x="325" 
d="M-119 0l400 1462h215l-398 -1462h-217z" />
    <glyph glyph-name="uni2218" unicode="&#x2218;" horiz-adv-x="983" 
d="M490 979q-108 0 -179 -71q-71 -72 -71 -180t72 -180t178 -71q108 0 180 72t72 179t-72 179t-180 72zM493 1098q161 0 269 -106t108 -263q0 -158 -108 -264q-108 -107 -272 -107q-162 0 -271 106t-109 264t112 264q110 106 271 106z" />
    <glyph glyph-name="uni2219" unicode="&#x2219;" horiz-adv-x="516" 
d="M135 608v248h246v-248h-246z" />
    <glyph glyph-name="radical" unicode="&#x221a;" horiz-adv-x="983" 
d="M23 584v196h290l123 -463l322 1502h522v-164h-328l-383 -1655h-241l-187 584h-118z" />
    <glyph glyph-name="infinity" unicode="&#x221e;" horiz-adv-x="1447" 
d="M1042 561q60 0 100 47t40 123t-41 122t-99 46t-103 -32q-44 -32 -112 -117l-16 -19l18 -22q76 -92 115 -120q38 -28 98 -28zM408 899q-58 0 -98 -46t-40 -123t40 -123t107 -46t126 57q18 16 78 91l18 22l-16 19q-66 84 -111 116q-46 32 -104 33zM401 393q-145 0 -229 90
t-84 247t84 247t226 90t245 -92q23 -18 82 -103q7 14 14 21l2 4q63 92 135 131t173 39q145 0 229 -90t84 -247t-84 -247t-228 -90t-245 92q-33 33 -80 103q-8 -14 -18 -25q-63 -90 -135 -130t-171 -40z" />
    <glyph glyph-name="integral" unicode="&#x222b;" horiz-adv-x="780" 
d="M297 236v876q0 260 27 348q47 162 227 162q76 0 176 -27l-43 -182q-43 20 -76 21q-55 0 -76 -60q-10 -39 -10 -196v-881q0 -256 -28 -350q-49 -160 -230 -160q-84 0 -174 27l43 182q41 -20 74 -21q57 0 78 58q12 47 12 203z" />
    <glyph glyph-name="similar" unicode="&#x223c;" horiz-adv-x="983" 
d="M340 893q49 0 80 -12q30 -12 110 -71t123 -58q68 0 113 131l133 -41q-41 -138 -103 -202t-157 -65q-47 -1 -82 17t-107 72t-116 53q-70 0 -111 -139l-137 32q33 150 93 216t161 67z" />
    <glyph glyph-name="uni2243" unicode="&#x2243;" horiz-adv-x="983" 
d="M647 934q66 0 113 129l133 -41q-41 -136 -103 -200t-157 -64q-47 0 -82 17t-107 71t-116 53q-70 0 -111 -139l-137 31q33 149 94 217t160 67q49 0 80 -12q32 -13 112 -71t121 -58zM104 471v180h764v-180h-764z" />
    <glyph glyph-name="approxequal" unicode="&#x2248;" horiz-adv-x="983" 
d="M653 934q68 0 113 129l133 -41q-41 -136 -103 -200t-157 -64q-47 0 -82 17t-107 71t-116 53q-70 0 -111 -139l-137 31q35 149 94 217t160 67q49 0 80 -12q32 -13 112 -71t121 -58zM340 711q51 -1 82 -13q32 -12 110 -70t121 -57q68 0 113 129l133 -41q-41 -137 -103 -200
t-157 -64q-47 1 -81 17t-108 70t-116 53q-70 -1 -111 -138l-137 31q33 150 93 216t161 67z" />
    <glyph glyph-name="notequal" unicode="&#x2260;" horiz-adv-x="983" 
d="M109 471v180h247l68 164h-315v178h389l98 242l172 -74l-66 -168h172v-178h-247l-68 -164h315v-180h-389l-98 -240l-172 72l66 168h-172z" />
    <glyph glyph-name="lessequal" unicode="&#x2264;" horiz-adv-x="983" 
d="M113 25v186h710v-186h-710zM352 762l471 -232v-215l-717 377v139l717 377v-215z" />
    <glyph glyph-name="greaterequal" unicode="&#x2265;" horiz-adv-x="983" 
d="M160 25v186h710v-186h-710zM631 762l-471 231v215l717 -377v-139l-717 -377v215z" />
    <glyph glyph-name="dotmath" unicode="&#x22c5;" horiz-adv-x="516" 
d="M135 608v248h246v-248h-246z" />
    <glyph glyph-name="filledrect" unicode="&#x25ac;" horiz-adv-x="983" 
d="M160 395v664h663v-664h-663z" />
    <glyph glyph-name="uni25B4" unicode="&#x25b4;" horiz-adv-x="983" 
d="M96 383l396 793l397 -793h-793z" />
    <glyph glyph-name="uni25B8" unicode="&#x25b8;" horiz-adv-x="983" 
d="M186 330v794l791 -397z" />
    <glyph glyph-name="uni25BE" unicode="&#x25be;" horiz-adv-x="983" 
d="M96 1071h793l-397 -792z" />
    <glyph glyph-name="uni25C2" unicode="&#x25c2;" horiz-adv-x="983" 
d="M797 330l-791 397l791 397v-794z" />
    <glyph glyph-name="lozenge" unicode="&#x25ca;" horiz-adv-x="983" 
d="M242 721l250 -410l247 410l-247 409zM-12 721l504 780l501 -780l-501 -782z" />
    <glyph glyph-name="openbullet" unicode="&#x25e6;" horiz-adv-x="983" 
d="M490 979q-108 0 -179 -71q-71 -72 -71 -180t72 -180t178 -71q108 0 180 72t72 179t-72 179t-180 72zM493 1098q161 0 269 -106t108 -263q0 -158 -108 -264q-108 -107 -272 -107q-162 0 -271 106t-109 264t112 264q110 106 271 106z" />
    <glyph glyph-name="commaaccent" unicode="&#xf6c3;" 
d="M365 -477l88 344h223l-154 -344h-157z" />
    <glyph glyph-name="Acute" unicode="&#xf6c9;" 
d="M385 1602l145 307h263l-234 -307h-174z" />
    <glyph glyph-name="Caron" unicode="&#xf6ca;" 
d="M514 1739l100 159h222l-240 -296h-166l-240 296h222z" />
    <glyph glyph-name="Dieresis" unicode="&#xf6cb;" 
d="M592 1612v246h207v-246h-207zM225 1612v246h207v-246h-207z" />
    <glyph glyph-name="Grave" unicode="&#xf6ce;" 
d="M641 1602h-174l-234 307h263z" />
    <glyph glyph-name="Hungarumlaut" unicode="&#xf6cf;" 
d="M559 1599l115 310h244l-197 -310h-162zM262 1599l115 310h241l-194 -310h-162z" />
    <glyph glyph-name="Macron" unicode="&#xf6d0;" 
d="M240 1657v168h546v-168h-546z" />
    <glyph glyph-name="zerooldstyle" unicode="&#xf730;" horiz-adv-x="987" 
d="M645 465v192q0 163 -34 227q-35 64 -119 64t-116 -63t-32 -228v-194q0 -162 32 -225q32 -64 117 -64t119 64t33 227zM102 453v215q0 250 86 356q100 119 314 119t313 -142q72 -102 72 -331v-217q0 -252 -88 -355q-100 -118 -316 -118t-311 141q-70 105 -70 332z" />
    <glyph glyph-name="oneoldstyle" unicode="&#xf731;" horiz-adv-x="665" 
d="M246 0v858l-193 -90l-84 188l361 164h162v-1120h-246z" />
    <glyph glyph-name="twooldstyle" unicode="&#xf732;" horiz-adv-x="845" 
d="M18 0v156l318 336q203 211 203 321q0 133 -133 133q-72 0 -110 -40t-48 -126l-221 25q18 172 111 254t272 82q365 0 364 -318q0 -135 -84 -250q-43 -59 -190 -208l-170 -175h452v-190h-764z" />
    <glyph glyph-name="threeoldstyle" unicode="&#xf733;" horiz-adv-x="890" 
d="M403 -135q181 0 181 234q0 116 -60 183t-168 66h-125v193h111q207 0 207 209q0 199 -135 198q-115 0 -131 -153l-224 26q23 166 111 244t262 78t268 -97t95 -282q0 -119 -37 -192t-123 -126q104 -55 149 -137t45 -219q0 -418 -413 -418q-184 0 -281 76q-96 76 -117 238
l226 43q12 -164 159 -164z" />
    <glyph glyph-name="fouroldstyle" unicode="&#xf734;" horiz-adv-x="866" 
d="M528 -307v307h-516v150l381 970h256l-375 -927h254v356h215v-356h131v-193h-131v-307h-215z" />
    <glyph glyph-name="fiveoldstyle" unicode="&#xf735;" horiz-adv-x="927" 
d="M795 1120v-202h-430l-27 -359q82 35 158 35q186 0 270 -119q70 -95 70 -331t-86 -343q-98 -129 -326 -129t-326 138q-41 55 -59 176l225 41q10 -162 156 -162q170 0 170 274q0 143 -35 205t-122 62t-148 -89l-179 37l52 766h637z" />
    <glyph glyph-name="sixoldstyle" unicode="&#xf736;" horiz-adv-x="974" 
d="M645 456q1 159 -33 224t-119 65q-85 1 -120 -65t-35 -224t35 -224q35 -64 119 -64t118 64t35 224zM567 924q121 0 205 -72q61 -55 87 -144t26 -245t-22 -240t-75 -137q-102 -106 -306 -106t-310 126q-76 96 -76 338q0 132 24 228t83 215l278 543h271l-277 -519q14 0 17 2
l36 9q10 2 39 2z" />
    <glyph glyph-name="sevenoldstyle" unicode="&#xf737;" horiz-adv-x="727" 
d="M-20 918v202h696v-147l-352 -1280h-261l363 1225h-446z" />
    <glyph glyph-name="eightoldstyle" unicode="&#xf738;" horiz-adv-x="999" 
d="M500 659q-92 0 -129 -53t-37 -191q0 -139 37 -195t129 -56t129 56t37 192t-37 192q-37 55 -129 55zM502 1270q-78 0 -110 -48t-32 -170t32 -171t110 -49t108 48q30 50 31 171q-1 121 -31 170t-108 49zM133 1059q0 201 89 296q88 95 278 95t279 -95t89 -296
q0 -115 -28 -181t-92 -114q86 -47 122 -127t35 -223q0 -230 -96 -332t-309 -102t-310 102q-96 102 -96 332q0 143 36 223t122 127q-66 47 -92 114q-27 67 -27 181z" />
    <glyph glyph-name="nineoldstyle" unicode="&#xf739;" horiz-adv-x="974" 
d="M483 954q-85 0 -119 -64t-34 -224t34 -226t118 -66t120 66q35 66 35 226t-35 224t-119 64zM410 197q-123 0 -207 71q-61 56 -87 146t-26 250q0 276 99 377t304 101t310 -126q76 -96 76 -340q0 -133 -23 -225t-86 -218l-278 -548h-271l277 526q-6 -2 -15 -2l-37 -8
q-20 -4 -36 -4z" />
    <glyph glyph-name="Dbreve" horiz-adv-x="1187" 
d="M562 1755q76 0 110 31q33 31 41 112h147q-4 -135 -35 -192q-67 -121 -271 -121t-263 139q-23 51 -27 174h148q8 -82 41 -112t109 -31zM399 199h154q152 -3 208 69t58 264v400q-2 194 -58 264t-208 68h-154v-1065zM154 0v1462h419q258 4 378 -118t114 -381v-461
q4 -262 -115 -384t-377 -118h-419z" />
    <glyph glyph-name="ahungarumlaut" horiz-adv-x="956" 
d="M526 1188l115 309h244l-197 -309h-162zM229 1188l115 309h242l-195 -309h-162zM604 469h-131q-96 0 -136 -37t-40 -122q0 -86 34 -116t122 -30q87 0 119 36t32 136v133zM604 631v47q0 113 -33 159t-105 46t-108 -30t-55 -103l-199 59q70 264 363 264q242 0 326 -155
q45 -88 45 -271v-647h-183l-14 63q-45 -47 -99 -65t-147 -18q-176 0 -251 74q-74 74 -74 253q0 180 77 252q78 72 279 72h178z" />
    <glyph glyph-name="uni0204.sc" horiz-adv-x="872" 
d="M416 1255h-162l-195 310h242zM715 1255h-162l-197 310h244zM127 0v1122h666v-190h-428v-270h362v-193h-362v-279h434v-190h-672z" />
    <glyph glyph-name="uni0206.sc" horiz-adv-x="872" 
d="M468 1403q-77 0 -110 -31t-41 -112h-147q4 141 35 192q67 121 271 121t263 -139q21 -51 27 -174h-148q-8 82 -40 112t-110 31zM137 0v1122h664v-192h-426v-268h360v-193h-360v-276h432v-193h-670z" />
    <glyph glyph-name="uni0208.sc" horiz-adv-x="512" 
d="M207 1255h-162l-195 310h242zM506 1255h-162l-197 310h244zM135 0v1120h238v-1120h-238z" />
    <glyph glyph-name="uni020A.sc" horiz-adv-x="512" 
d="M257 1403q-77 0 -110 -31t-41 -112h-147q4 141 35 192q68 121 272 121t262 -139q21 -51 27 -174h-147q-8 82 -41 112t-110 31zM137 0v1120h238v-1120h-238z" />
    <glyph glyph-name="uni020C.sc" horiz-adv-x="1009" 
d="M432 1255h-162l-194 310h241zM731 1255h-162l-196 310h243zM639 426v268q0 138 -36 196t-124 58t-124 -57t-36 -197v-268q0 -138 36 -196t124 -58t124 58t36 196zM82 410v301q0 231 92 330t316 99t321 -132q66 -96 66 -297v-301q-1 -228 -93 -328t-305 -100t-305 98
t-92 330z" />
    <glyph glyph-name="uni020E.sc" horiz-adv-x="1009" 
d="M502 1403q-76 0 -109 -31t-41 -112h-147q4 141 35 192q68 121 272 121t262 -139q21 -51 27 -174h-148q-8 82 -41 112q-34 30 -110 31zM664 426v270q0 136 -36 194t-123 58t-123 -57t-36 -195v-270q0 -136 36 -194t123 -58t123 58t36 194zM109 408v305q0 229 92 328
q93 99 317 99t318 -132q66 -96 65 -295v-305q0 -226 -92 -326t-304 -100t-304 100t-92 326z" />
    <glyph glyph-name="uni0210.sc" horiz-adv-x="978" 
d="M403 1255h-161l-195 310h242zM702 1255h-161l-197 310h244zM375 627h123q78 0 112 37q34 38 35 118q0 80 -35 116t-114 36h-121v-307zM377 449v-449h-238v1122h357q211 0 300 -76t89 -255q0 -129 -43 -199t-146 -109l236 -483h-270l-191 449h-94z" />
    <glyph glyph-name="uni0212.sc" horiz-adv-x="978" 
d="M468 1403q-77 0 -110 -31t-41 -112h-147q4 141 35 192q67 121 271 121t263 -139q21 -51 27 -174h-148q-8 82 -40 112t-110 31zM375 625h123q76 0 110 37q34 36 35 118q0 82 -35 118t-112 36h-121v-309zM377 446v-446h-238v1122h357q211 0 299 -76t88 -255
q0 -129 -44 -201t-145 -107l238 -483h-268l-193 446h-94z" />
    <glyph glyph-name="uni0214.sc" horiz-adv-x="1036" 
d="M444 1255h-161l-195 310h242zM743 1255h-161l-197 310h244zM111 1120h237v-739q0 -119 33 -164t116 -45t115 46t33 163v739h238v-739q-1 -115 -15 -175q-54 -225 -370 -224q-246 0 -336 135q-51 76 -51 264v739z" />
    <glyph glyph-name="uni0216.sc" horiz-adv-x="1036" 
d="M513 1403q-77 0 -110 -31t-41 -112h-147q4 141 35 192q68 121 272 121t262 -139q21 -51 27 -174h-147q-8 82 -41 112t-110 31zM131 1120h238v-739q1 -117 33 -162t116 -45t116 45t32 162v739h237v-739q0 -115 -14 -175q-53 -225 -371 -224q-246 0 -336 135
q-51 76 -51 264v739z" />
    <glyph glyph-name="uni1E24.sc" horiz-adv-x="1038" 
d="M408 -418v246h225v-246h-225zM137 0v1120h238v-458h289v458h237v-1120h-237v469h-289v-469h-238z" />
    <glyph glyph-name="uni1E5A.sc" horiz-adv-x="978" 
d="M401 -418v246h226v-246h-226zM375 625h123q76 0 110 37q34 36 35 118q0 82 -35 118t-112 36h-121v-309zM377 446v-446h-238v1122h357q211 0 299 -76t88 -255q0 -129 -44 -201t-145 -107l238 -483h-268l-193 446h-94z" />
    <glyph glyph-name="uni1E62.sc" horiz-adv-x="858" 
d="M307 -418v246h225v-246h-225zM422 172q152 0 151 145q0 92 -85 123q-22 8 -154 44t-198 111t-66 225t91 234q91 85 255 85t247 -65t117 -210l-205 -59q-27 82 -58 113q-32 30 -91 30t-92 -35t-33 -96t40 -96t171 -70t190 -76q102 -72 103 -249q0 -344 -379 -344
q-176 0 -269 68t-128 222l211 60q18 -84 61 -122t121 -38z" />
    <glyph glyph-name="uni1E6C.sc" horiz-adv-x="778" 
d="M276 -418v246h226v-246h-226zM270 0v930h-260v192h760v-192h-262v-930h-238z" />
    <glyph glyph-name="uni1E92.sc" horiz-adv-x="811" 
d="M305 -418v246h225v-246h-225zM51 0v143l410 787h-379v192h653v-143l-409 -786h430v-193h-705z" />
    <glyph glyph-name="uni1E44.sc" horiz-adv-x="1081" 
d="M436 1266v245h226v-245h-226zM137 0v1120h230l350 -688v688h227v-1120h-207l-372 713v-713h-228z" />
    <glyph glyph-name="uni1E0C.sc" horiz-adv-x="1011" 
d="M348 -418v246h225v-246h-225zM375 188h98q113 0 153 48t42 184v282q-2 136 -42 184t-153 48h-98v-746zM137 0v1122h350q223 4 323 -91t95 -306v-328q4 -211 -94 -306t-324 -91h-350z" />
    <glyph glyph-name="uni1E02.sc" horiz-adv-x="968" 
d="M352 1266v245h226v-245h-226zM371 186h159q70 0 102 34t32 112q0 150 -125 149h-168v-295zM371 662h151q123 0 123 137t-127 137h-147v-274zM137 0v1122h391q188 0 272 -74t83 -228q0 -154 -90 -236q59 -50 84 -110t24 -161q0 -174 -98 -254q-76 -59 -242 -59h-424z" />
    <glyph glyph-name="idotaccent" horiz-adv-x="493" 
d="M129 0v1051h233v-1051h-233zM129 1221v252h233v-252h-233z" />
    <glyph glyph-name="one.fitted" horiz-adv-x="665" 
d="M246 0v1200l-193 -90l-84 188l361 164h162v-1462h-246z" />
    <glyph glyph-name="two.fitted" horiz-adv-x="907" 
d="M14 0v166l359 498q184 256 184 437t-139 181q-147 0 -164 -221l-225 8q20 414 397 414q184 -1 280 -99t97 -274q0 -176 -82 -326q-33 -61 -57 -97t-136 -189l-211 -295h486v-203h-789z" />
    <glyph glyph-name="three.fitted" horiz-adv-x="888" 
d="M403 1483q385 -1 385 -409q0 -208 -147 -302q96 -57 138 -141t42 -223q0 -428 -413 -428q-262 0 -363 172q-49 84 -57 229l227 16q14 -217 182 -217q178 0 178 236q0 118 -55 188t-151 70h-121v192h106q188 0 188 208t-151 208q-139 0 -160 -190l-221 8q20 383 393 383z
" />
    <glyph glyph-name="four.fitted" horiz-adv-x="960" 
d="M557 0v260h-510v150l397 1052h254l-379 -1003h238v356h221v-356h117v-199h-117v-260h-221z" />
    <glyph glyph-name="five.fitted" horiz-adv-x="964" 
d="M821 1462v-202h-448l-25 -367q82 35 154 35q197 0 284 -123q74 -100 74 -346t-86 -353q-102 -127 -321 -126q-248 0 -349 172q-45 82 -53 229l228 16q12 -217 167 -217q168 0 168 277q0 154 -35 216q-36 62 -129 62t-157 -88l-178 37l51 778h655z" />
    <glyph glyph-name="six.fitted" horiz-adv-x="978" 
d="M651 456q1 155 -33 218t-119 63t-120 -63t-35 -219t35 -217q35 -62 119 -62t118 62t35 218zM573 924q121 0 205 -72q61 -55 87 -144t26 -245t-22 -240q-64 -243 -381 -243q-205 0 -310 126q-76 96 -76 338q0 138 20 222t87 221l278 575h271l-277 -551q14 0 17 2l37 9
q10 2 38 2z" />
    <glyph glyph-name="seven.fitted" horiz-adv-x="727" 
d="M-20 1260v202h696v-147l-352 -1315h-261l363 1260h-446z" />
    <glyph glyph-name="eight.fitted" horiz-adv-x="1005" 
d="M672 422q0 136 -37 194q-37 56 -129 56t-130 -54t-38 -193q0 -137 37 -193t130 -56t130 55t37 191zM504 850q80 0 112 50t31 174q1 124 -31 174t-112 50t-112 -49t-32 -174t32 -175t112 -50zM133 1079q0 209 89 306t282 97q194 0 282 -96q88 -98 88 -305q0 -117 -26 -187
t-90 -120q84 -47 119 -129t34 -227q0 -230 -96 -334t-311 -104t-311 103t-97 335q0 145 35 226t119 130q-63 49 -90 119t-27 186z" />
    <glyph glyph-name="nine.fitted" horiz-adv-x="978" 
d="M637 1034q0 136 -35 194t-119 58q-85 0 -119 -57t-34 -197t35 -196q35 -58 119 -58t118 60q35 60 35 196zM403 596q-127 0 -206 70q-107 94 -107 360t100 361t304 95t307 -118q78 -92 78 -320q1 -130 -17 -204t-78 -199l-305 -641h-270l297 608q-70 -12 -103 -12z" />
    <glyph glyph-name="zero.fitted" horiz-adv-x="1021" 
d="M670 520v422q0 186 -36 263t-123 77t-123 -77t-36 -263v-422q0 -186 36 -263t123 -77t123 77t36 263zM111 500v465q0 266 86 383q102 135 324 135t319 -160q72 -113 71 -358v-465q0 -268 -86 -385q-102 -135 -324 -135t-319 159q-71 113 -71 361z" />
    <glyph glyph-name="sterling.fitted" horiz-adv-x="987" 
d="M96 0v174q96 31 151 110q54 79 54 189q0 59 -18 123h-191v203h111q-72 156 -72 288q0 193 98 294t285 102q229 0 334 -156q51 -78 76 -233l-211 -43q-20 104 -43 145q-45 90 -144 90q-72 0 -112 -51t-39 -131q0 -80 15 -131t73 -174h299v-203h-244q12 -59 12 -104
q0 -180 -108 -289h528v-203h-854z" />
    <glyph glyph-name="dollar.fitted" horiz-adv-x="1013" 
d="M498 209q209 0 209 207q0 102 -58 153q-27 23 -53 33t-158 49q-188 55 -270 151t-82 265q0 229 154 326q53 33 151 49v223h240v-231q205 -43 266 -281l-203 -61q-29 86 -76 125q-48 39 -128 39t-125 -45q-45 -44 -45 -131t52 -138t181 -89t176 -57t90 -55
q121 -92 121 -305q0 -350 -309 -411v-299h-240v294q-151 27 -231 107t-113 225l207 64q43 -207 244 -207z" />
    <glyph glyph-name="cent.fitted" horiz-adv-x="927" 
d="M393 55v236q-272 57 -270 448v158q-3 205 63 315t207 140v225h240v-231q178 -41 219 -256l-186 -50q-23 80 -57 111q-35 31 -109 31q-150 0 -150 -267v-196q0 -133 40 -195t124 -63q131 0 162 145l188 -51q-43 -219 -231 -260v-240h-240z" />
    <glyph glyph-name="Euro.fitted" horiz-adv-x="1017" 
d="M162 614v121h-154l51 135h103v70q0 283 90 401q106 139 323 140q381 0 396 -420l-226 -8q-8 119 -48 173q-39 54 -125 54t-126 -80t-38 -268v-62h446l-51 -135h-395v-121h352l-51 -135h-299q6 -171 47 -237t141 -66q164 0 176 182l217 -14q-16 -369 -401 -369
q-289 0 -381 224q-43 113 -45 280h-156l51 135h103z" />
    <glyph glyph-name="yen.fitted" horiz-adv-x="1026" 
d="M391 0v291h-260v135h260v113h-260v135h203l-334 788h260l254 -674l254 674h260l-334 -788h201v-135h-258v-113h258v-135h-258v-291h-246z" />
    <glyph glyph-name="one.numerator" horiz-adv-x="643" 
d="M244 586v688l-129 -53l-60 139l248 102h129v-876h-188z" />
    <glyph glyph-name="two.numerator" horiz-adv-x="643" 
d="M41 586v123l229 288q113 145 113 237t-80 93q-80 0 -90 -127l-174 6q0 268 274 269q262 0 262 -242q1 -91 -29 -151t-145 -203l-110 -144h280v-149h-530z" />
    <glyph glyph-name="three.numerator" horiz-adv-x="643" 
d="M193 981v129h81q113 0 113 113q-1 49 -23 77t-63 27q-80 0 -92 -104l-170 8q7 129 71 186t199 58q264 0 264 -242q0 -131 -79 -184q54 -35 76 -84t22 -129q0 -262 -281 -263q-186 0 -252 107q-29 49 -34 145l174 13q8 -117 104 -117q102 0 103 117q0 68 -32 106t-89 37
h-92z" />
    <glyph glyph-name="four.numerator" horiz-adv-x="643" 
d="M375 586v147h-342v111l254 618h192l-239 -583h135v182h162v-182h73v-146h-73v-147h-162z" />
    <glyph glyph-name="five.numerator" horiz-adv-x="643" 
d="M563 1462v-147h-293l-14 -180q49 14 88 14q132 1 188 -67t56 -218t-58 -215q-72 -76 -216 -76q-144 1 -210 61t-69 193l174 13q8 -119 96 -119q96 1 96 145t-88 144q-59 0 -96 -54l-141 27l33 479h454z" />
    <glyph glyph-name="six.numerator" horiz-adv-x="643" 
d="M321 1016q-48 0 -70 -36t-22 -118q1 -82 21 -116t70 -34t71 36q21 34 21 116t-22 117t-69 35zM402 1149q32 0 79 -23t72 -57q41 -61 41 -211t-64 -218t-214 -67q-150 0 -216 76q-53 59 -53 207q0 86 13 134t61 132l186 340h219l-184 -317q28 4 60 4z" />
    <glyph glyph-name="seven.numerator" horiz-adv-x="643" 
d="M61 1315v147h504v-106l-252 -770h-207l263 729h-308z" />
    <glyph glyph-name="eight.numerator" horiz-adv-x="643" 
d="M420 844q0 72 -22 102t-77 31q-54 0 -77 -30q-23 -31 -23 -103t23 -102q22 -30 76 -30t77 30t23 102zM321 1343q-48 0 -69 -26q-20 -27 -20 -93t20 -95q20 -27 68 -27t69 28q20 28 21 93q0 66 -20 93t-69 27zM602 838q0 -141 -65 -203q-66 -61 -217 -61q-150 0 -216 60
q-66 62 -66 212t89 207q-63 49 -63 177t60 186t196 58t197 -58q61 -60 61 -187t-64 -176q48 -33 68 -81t20 -134z" />
    <glyph glyph-name="nine.numerator" horiz-adv-x="643" 
d="M412 1200q0 72 -22 104t-70 31q-49 0 -70 -30q-20 -31 -20 -106t21 -107t69 -31q48 0 70 33q22 34 22 106zM266 930q-86 0 -143 41q-76 55 -76 215q-1 160 63 224t210 65t210 -61q63 -62 64 -206q0 -86 -11 -130t-53 -120l-200 -372h-215l190 346q-18 -2 -39 -2z" />
    <glyph glyph-name="zero.numerator" horiz-adv-x="643" 
d="M414 901v246q0 100 -22 143t-72 43t-72 -43t-21 -143v-246q0 -100 22 -143q21 -43 71 -43t72 43t22 143zM43 897v254q0 174 63 249q62 75 214 75t215 -75t63 -249v-254q0 -174 -63 -249t-214 -75t-215 75q-63 75 -63 249z" />
    <glyph glyph-name="one.denominator" horiz-adv-x="643" 
d="M244 0v688l-129 -53l-60 139l248 103h129v-877h-188z" />
    <glyph glyph-name="two.denominator" horiz-adv-x="643" 
d="M41 0v123l229 289q113 141 113 235t-80 94t-90 -127l-174 7q0 268 274 268q262 0 262 -242q1 -90 -29 -149t-145 -205l-110 -143h280v-150h-530z" />
    <glyph glyph-name="three.denominator" horiz-adv-x="643" 
d="M193 395v129h81q113 0 113 113q0 49 -22 77q-23 28 -64 27q-80 0 -92 -104l-170 8q7 129 71 186t199 58q264 0 264 -242q0 -131 -79 -184q54 -35 76 -84t22 -129q0 -262 -281 -262q-186 0 -252 106q-29 49 -34 146l174 12q8 -117 104 -117q102 0 103 117q0 68 -32 106
t-89 37h-92z" />
    <glyph glyph-name="four.denominator" horiz-adv-x="643" 
d="M375 0v150h-342v110l254 617h192l-239 -582h135v180h162v-180h73v-148h-73v-147h-162z" />
    <glyph glyph-name="five.denominator" horiz-adv-x="643" 
d="M563 877v-148h-293l-14 -180q51 14 88 14q132 1 188 -67t56 -218t-58 -215q-72 -75 -216 -75t-210 60t-69 194l174 12q8 -119 96 -119q96 1 96 145t-88 144q-59 0 -96 -53l-141 26l33 480h454z" />
    <glyph glyph-name="six.denominator" horiz-adv-x="643" 
d="M321 430q-51 0 -71 -35t-20 -118t20 -117t70 -33q50 0 71 35q20 35 21 117q0 83 -20 117t-71 34zM404 563q30 -1 77 -23t72 -57q41 -61 41 -211t-64 -217t-214 -67t-216 75q-53 59 -53 207q0 86 13 134t61 133l186 340h219l-184 -316q32 2 62 2z" />
    <glyph glyph-name="seven.denominator" horiz-adv-x="643" 
d="M61 729v148h504v-107l-252 -770h-207l263 729h-308z" />
    <glyph glyph-name="eight.denominator" horiz-adv-x="643" 
d="M420 258q0 72 -22 102t-77 31q-54 0 -77 -30q-23 -31 -23 -103t23 -102q22 -30 76 -29q54 0 77 30q23 29 23 101zM321 758q-49 0 -69 -27t-20 -93t20 -94t68 -28t69 28t21 94t-20 92q-20 28 -69 28zM602 252q0 -141 -65 -203q-66 -61 -217 -61q-150 0 -216 61t-66 211
t89 207q-63 49 -63 177t60 186t196 58t197 -58q61 -60 61 -187t-64 -176q48 -33 68 -81t20 -134z" />
    <glyph glyph-name="nine.denominator" horiz-adv-x="643" 
d="M412 616q0 134 -90 134q-52 0 -72 -31t-20 -106t20 -107t69 -31q49 0 71 33t22 108zM266 344q-86 0 -143 41q-76 55 -76 215q-1 160 63 224t210 65t210 -61q63 -62 64 -205q0 -86 -11 -130t-53 -122l-200 -371h-215l190 346q-18 -2 -39 -2z" />
    <glyph glyph-name="zero.denominator" horiz-adv-x="643" 
d="M414 315v246q0 99 -22 143t-72 44t-72 -43t-21 -144v-246q0 -100 22 -143q21 -43 71 -43t72 43t22 143zM43 311v254q0 174 63 249q62 75 214 75t215 -75t63 -249v-254q0 -174 -63 -249q-63 -74 -214 -74t-215 74q-63 75 -63 249z" />
    <glyph glyph-name="oneone" horiz-adv-x="1654" 
d="M449 0l399 1462h215l-397 -1462h-217zM1190 0v688l-131 -53l-58 139l248 103h129v-877h-188zM276 586v688l-129 -53l-59 139l248 102h129v-876h-189z" />
    <glyph glyph-name="Dotaccent" 
d="M399 1610v245h226v-245h-226z" />
    <glyph glyph-name="Ring" 
d="M602 1806q0 112 -90 113q-90 0 -90 -113t90 -112q90 0 90 112zM276 1809q0 101 64 162t172 61q106 0 171 -62t65 -162t-66 -163t-170 -63t-170 62q-66 64 -66 165z" />
    <glyph glyph-name="Circumflex" 
d="M512 1767l-100 -159h-222l238 297h168l240 -297h-222z" />
    <glyph glyph-name="Breve" 
d="M511 1755q77 0 110 31t41 112h147q-4 -135 -35 -192q-68 -121 -272 -121t-262 139q-23 51 -27 174h147q8 -82 41 -112t110 -31z" />
    <glyph glyph-name="Tilde" 
d="M629 1772q45 0 59 110h141q-12 -109 -34 -168q-47 -111 -164 -110q-83 0 -143 62t-82 63q-56 0 -70 -111h-141q20 117 45 166q51 113 163 112q77 0 139 -62t87 -62z" />
    <glyph glyph-name="Cedilla" 
d="M365 -477l88 344h223l-154 -344h-157z" />
    <glyph glyph-name="Ogonek" 
d="M588 -215q0 -74 80 -74q45 0 108 19l25 -119q-80 -35 -183 -35q-238 0 -237 168q0 72 43 131t145 125h176q-93 -78 -125 -122t-32 -93z" />
    <glyph glyph-name="Commaaccent" 
d="M365 -477l88 344h223l-154 -344h-157z" />
    <glyph glyph-name="Comma.high" horiz-adv-x="270" 
d="M-4 954l57 537h223l-116 -537h-164z" />
    <glyph glyph-name="Croatumlaut" 
d="M465 1599h-162l-194 310h241zM764 1599h-162l-196 310h243z" />
    <glyph glyph-name="Croatbreve" 
d="M513 1747q-77 0 -110 -30t-41 -111h-147q4 133 35 190q68 121 272 121t262 -139q23 -51 27 -172h-147q-8 80 -41 110t-110 31z" />
    <glyph glyph-name="Cicumflexacute" 
d="M729 1739l135 289h242l-232 -310h-129l91 -110h-222l-102 159l-100 -159h-222l238 297h168z" />
    <glyph glyph-name="Ringacute" 
d="M414 1841l108 258h277l-234 -258h-151zM512 1464q90 0 90 114t-90 114t-90 -114t90 -114zM276 1582q0 102 64 160q64 60 172 60q106 0 171 -60t65 -160t-66 -164t-170 -64t-170 63t-66 165z" />
    <glyph glyph-name="croatumlaut" 
d="M465 1188h-162l-194 309h241zM764 1188h-162l-196 309h243z" />
    <glyph glyph-name="croatbreve" 
d="M522 1505q204 0 262 -139q21 -51 27 -174h-147q-8 82 -41 113t-110 31t-110 -32q-33 -30 -41 -112h-147q4 141 35 192q68 121 272 121z" />
    <glyph glyph-name="cicumflexacute" 
d="M729 1325l135 287h242l-232 -307h-129l91 -113h-222l-102 162l-100 -162h-222l238 299h168z" />
    <glyph glyph-name="ringacute" 
d="M414 1657l108 258h277l-234 -258h-151zM512 1282q90 0 90 114t-90 113q-90 1 -90 -113t90 -114zM748 1398q0 -100 -66 -164t-170 -64t-170 62q-66 64 -66 166t64 162t172 60q106 0 171 -61t65 -161z" />
    <glyph glyph-name="Ohorn.sc" horiz-adv-x="1097" 
d="M666 426v268q0 138 -36 196t-124 58t-124 -57t-36 -197v-268q0 -136 36 -194t124 -58t124 58t36 194zM903 410q0 -228 -92 -328t-305 -100t-305 99t-92 329v303q0 229 92 328q91 99 285 99t288 -68q94 -69 119 -214q63 72 63 147t-32 134h200q16 -55 17 -103
q0 -184 -238 -327v-299z" />
    <glyph glyph-name="Uhorn.sc" horiz-adv-x="1179" 
d="M131 1120h238v-739q1 -119 33 -164t115 -45t116 46t33 163v739h237v-319q78 47 111 94t33 113t-33 131h200q14 -57 15 -101q0 -158 -156 -278q-35 -27 -170 -107v-272q0 -115 -14 -175q-53 -225 -371 -224q-246 0 -336 135q-51 76 -51 264v739z" />
    <glyph glyph-name="uni1EA0.sc" horiz-adv-x="890" 
d="M332 -418v246h225v-246h-225zM575 397l-129 457l-127 -457h256zM621 217h-347l-59 -217h-260l377 1120h231l377 -1120h-262z" />
    <glyph glyph-name="uni1EA2.sc" horiz-adv-x="890" 
d="M367 1245q0 88 9 118t50 85q18 31 18 47q0 39 -45 39t-116 -35l-43 141q112 37 200 37t140 -45t53 -127q0 -41 -12 -65q-11 -24 -47 -63t-42 -61t-8 -71h-157zM575 397l-129 457l-127 -457h256zM621 217h-347l-59 -217h-260l377 1120h231l377 -1120h-262z" />
    <glyph glyph-name="uni1EA4.sc" horiz-adv-x="890" 
d="M444 1325l-100 -111h-209l232 240h155l232 -240h-209zM367 1509l106 238h186l-165 -238h-127zM575 397l-129 457l-127 -457h256zM621 217h-347l-59 -217h-260l377 1120h231l377 -1120h-262z" />
    <glyph glyph-name="uni1EA6.sc" horiz-adv-x="890" 
d="M444 1325l-100 -111h-209l232 240h157l230 -240h-209zM520 1509h-127l-166 238h187zM575 397l-129 457l-127 -457h256zM621 217h-347l-59 -217h-260l377 1120h231l377 -1120h-262z" />
    <glyph glyph-name="uni1EA8.sc" horiz-adv-x="890" 
d="M442 1321l-100 -107h-209l232 224h155l232 -224h-209zM373 1468v15q1 65 27 101t26 52q0 23 -30 23t-79 -25l-32 103q71 29 143 29t114 -34t42 -78t-10 -59q-10 -16 -44 -53q-20 -25 -22 -74h-135zM575 397l-129 457l-127 -457h256zM621 217h-347l-59 -217h-260l377 1120
h231l377 -1120h-262z" />
    <glyph glyph-name="uni1EAA.sc" horiz-adv-x="890" 
d="M449 1325l-101 -111h-209l232 240h155l232 -240h-209zM351 1741q69 0 119 -52t71 -53q37 0 49 95h117q-14 -96 -31 -142q-37 -88 -135 -88q-70 0 -119 58q-45 47 -64 47q-47 -1 -61 -93h-117q23 125 63 177t108 51zM575 397l-129 457l-127 -457h256zM621 217h-347
l-59 -217h-260l377 1120h231l377 -1120h-262z" />
    <glyph glyph-name="uni1EAC.sc" horiz-adv-x="890" 
d="M332 -418v246h225v-246h-225zM444 1421l-100 -159h-221l237 297h168l240 -297h-221zM575 397l-129 457l-127 -457h256zM621 217h-347l-59 -217h-260l377 1120h231l377 -1120h-262z" />
    <glyph glyph-name="uni1EAE.sc" horiz-adv-x="890" 
d="M446 1366q74 0 107 28t41 99h137q-8 -129 -35 -178q-63 -111 -258 -111t-254 129q-20 47 -24 160h137q8 -71 41 -99q34 -28 108 -28zM367 1509l106 238h186l-165 -238h-127zM575 397l-129 457l-127 -457h256zM621 217h-347l-59 -217h-260l377 1120h231l377 -1120h-262z
" />
    <glyph glyph-name="uni1EB0.sc" horiz-adv-x="890" 
d="M446 1366q74 0 107 28t41 99h137q-8 -129 -35 -178q-63 -111 -258 -111t-254 129q-20 47 -24 160h137q8 -71 41 -99q34 -28 108 -28zM537 1509h-127l-166 238h186zM575 397l-129 457l-127 -457h256zM621 217h-347l-59 -217h-260l377 1120h231l377 -1120h-262z" />
    <glyph glyph-name="uni1EB2.sc" horiz-adv-x="890" 
d="M444 1360q76 0 109 29t43 104h135q-8 -129 -35 -178q-63 -111 -258 -111t-254 129q-20 47 -24 160h135q8 -77 41 -105q32 -28 108 -28zM510 1458h-137q1 84 27 121t26 53q0 29 -30 29t-77 -27l-34 103q69 31 143 31t115 -36q41 -34 41 -86t-52 -106q-22 -29 -22 -82z
M575 397l-129 457l-127 -457h256zM621 217h-347l-59 -217h-260l377 1120h231l377 -1120h-262z" />
    <glyph glyph-name="uni1EB4.sc" horiz-adv-x="890" 
d="M160 1468h129q10 -66 42 -90q33 -24 105 -24t105 26t41 88h131q-8 -117 -35 -161q-61 -101 -250 -101t-244 117q-18 41 -24 145zM346 1759q66 0 118 -50t73 -50q37 0 49 90h116q-14 -98 -30 -139q-37 -88 -135 -88q-70 0 -117 51t-66 51q-45 0 -61 -92h-117
q23 125 63 176t107 51zM575 397l-129 457l-127 -457h256zM621 217h-347l-59 -217h-260l377 1120h231l377 -1120h-262z" />
    <glyph glyph-name="uni1EB6.sc" horiz-adv-x="890" 
d="M332 -418v246h225v-246h-225zM444 1409q76 0 109 31t43 112h147q-8 -141 -36 -192q-66 -121 -270 -121t-265 139q-19 45 -25 174h146q10 -82 43 -112q32 -30 108 -31zM575 397l-129 457l-127 -457h256zM621 217h-347l-59 -217h-260l377 1120h231l377 -1120h-262z" />
    <glyph glyph-name="uni1EB8.sc" horiz-adv-x="872" 
d="M365 -418v246h225v-246h-225zM137 0v1122h666v-190h-428v-270h362v-193h-362v-279h434v-190h-672z" />
    </font>
</defs>
</svg>
