<?xml version="1.0" standalone="no"?>
<!DOCTYPE svg PUBLIC "-//W3C//DTD SVG 1.1//EN" "http://www.w3.org/Graphics/SVG/1.1/DTD/svg11.dtd" >
<svg xmlns="http://www.w3.org/2000/svg">
<metadata>
Created by FontPrep 20130207 at Wed Sep 28 15:16:39 2016
 By Tina Muller
Copyright (c) 2016 by Typetype. Designers Ivan Gladkikh &#38; Olexa Volochay. All rights reserved.
</metadata>
<defs>
<font id="9624a7da87e4c4880cef7646ef7779ba" horiz-adv-x='1024' >
  <font-face 
    font-family="TTCorals-Regular"
    font-weight="400"
    font-stretch="normal"
    units-per-em="2048"
    panose-1="2 0 5 6 4 0 0 2 0 3"
    ascent="1638"
    descent="-410"
    x-height="983"
    cap-height="1434"
    bbox="-41 -430 2314 1925"
    underline-thickness="102"
    underline-position="-102"
    unicode-range="U+000D-F6D4"
  />
<missing-glyph horiz-adv-x="0" 
 />
    <glyph glyph-name=".notdef" horiz-adv-x="0" 
 />
    <glyph glyph-name=".null" horiz-adv-x="0" 
 />
    <glyph glyph-name=".null" horiz-adv-x="0" 
 />
    <glyph glyph-name="nonmarkingreturn" horiz-adv-x="681" 
 />
    <glyph glyph-name="CR" unicode="&#xd;" horiz-adv-x="0" 
 />
    <glyph glyph-name="space" unicode=" " horiz-adv-x="368" 
 />
    <glyph glyph-name="exclam" unicode="!" horiz-adv-x="552" 
d="M195 0v164h163v-164h-163zM205 1434h143v-492l-20 -553h-103l-20 553v492z" />
    <glyph glyph-name="quotedbl" unicode="&#x22;" horiz-adv-x="716" 
d="M451 942l-21 512h143l-20 -512h-102zM164 942l-21 512h144l-21 -512h-102z" />
    <glyph glyph-name="numbersign" unicode="#" horiz-adv-x="1177" 
d="M502 901l-82 -369h256l82 369h-256zM82 532h215l82 369h-195v123h226l92 410h123l-93 -410h256l93 410h123l-93 -410h185v-123h-215l-82 -369h194v-122h-225l-92 -410h-123l92 410h-256l-92 -410h-123l92 410h-184v122z" />
    <glyph glyph-name="dollar" unicode="$" horiz-adv-x="1095" 
d="M471 -266v246q-79 8 -147 38t-133 90q-65 59 -97 113l-12 25l102 92l12 -24q6 -15 36 -54t67 -69q37 -31 105 -55t149 -23q129 1 208 75t79 178t-71 166t-171 98t-202 77t-172 119t-70 206q0 127 88 222t229 118v246h133v-246q100 -14 184 -70t119 -106l35 -49l-102 -82
l-12 18q-27 47 -78 83q-100 73 -212 73t-177 -60q-65 -61 -65 -143t52 -131q51 -49 127 -76t165 -63t165 -77q76 -40 127 -120t51 -190q0 -168 -104 -276t-275 -123v-246h-133z" />
    <glyph glyph-name="percent" unicode="%" horiz-adv-x="1372" 
d="M870 317q0 -117 44 -176t110 -59t110 59t44 176t-44 177t-110 59q-66 1 -110 -59t-44 -177zM758 317q0 156 77 247t189 91t190 -91q76 -91 76 -247q0 -157 -77 -247t-189 -90t-190 90q-76 90 -76 247zM195 1116q0 -117 44 -176q43 -59 109 -59t110 59t44 176t-44 176
q-44 60 -110 60t-110 -60t-43 -176zM82 1116q0 156 77 247t189 91t190 -91q76 -91 76 -247t-76 -247t-190 -91t-190 91t-76 247zM225 0l799 1434h123l-799 -1434h-123z" />
    <glyph glyph-name="ampersand" unicode="&#x26;" horiz-adv-x="1228" 
d="M389 1088q0 -68 26 -126t52 -90l25 -32q6 4 18 11q96 56 137 156q19 45 19 101t-39 98t-99 43q-60 0 -99 -46q-40 -47 -40 -115zM522 102q118 0 186 59t91 105l-338 410q-9 -4 -23 -10t-52 -33t-66 -59t-51 -87q-24 -55 -23 -118q0 -117 79 -192t197 -75zM246 1075
q0 137 78 217t200 80q123 0 204 -81t81 -201t-83 -220q-68 -78 -128 -108l-25 -14v-11l277 -338h10q51 113 62 349h143q-8 -146 -37 -264t-53 -162l-23 -46l236 -276h-164l-133 164h-10q-12 -25 -50 -61q-37 -37 -75 -61t-104 -43q-67 -19 -140 -19q-182 0 -296 110
t-114 279q0 77 29 147t90 137t129 101l29 14v10q-14 14 -37 39t-59 103q-37 78 -37 155z" />
    <glyph glyph-name="quotesingle" unicode="'" horiz-adv-x="430" 
d="M164 942l-21 512h144l-21 -512h-102z" />
    <glyph glyph-name="parenleft" unicode="(" horiz-adv-x="665" 
d="M573 1475q-279 0 -276 -758q0 -450 86 -616q41 -79 86 -111t104 -31v-123q-89 0 -159 41q-250 147 -250 840q0 503 122 703q58 95 128 136t159 41v-122z" />
    <glyph glyph-name="parenright" unicode=")" horiz-adv-x="665" 
d="M92 1475v122q90 0 160 -41t128 -136q122 -200 122 -702q0 -503 -122 -705q-58 -95 -128 -136t-160 -41v123q59 0 105 32q172 122 172 726q0 447 -86 615q-41 79 -86 111q-46 32 -105 32z" />
    <glyph glyph-name="asterisk" unicode="*" horiz-adv-x="860" 
d="M102 1249l287 -102l-20 287h123l-21 -287l287 102l30 -112l-286 -82l205 -236l-103 -71l-174 256l-174 -256l-102 71l204 236l-286 82z" />
    <glyph glyph-name="plus" unicode="+" horiz-adv-x="788" 
d="M82 604v123h246v266h133v-266h246v-123h-246v-266h-133v266h-246z" />
    <glyph glyph-name="comma" unicode="," horiz-adv-x="389" 
d="M195 0h-82v164h163v-123q0 -68 -36 -114t-72 -58l-35 -12l-20 51q32 8 57 34q25 25 25 58z" />
    <glyph glyph-name="hyphen" unicode="-" horiz-adv-x="634" 
d="M82 604v123h471v-123h-471z" />
    <glyph glyph-name="period" unicode="." horiz-adv-x="389" 
d="M113 0v164h163v-164h-163z" />
    <glyph glyph-name="slash" unicode="/" horiz-adv-x="716" 
d="M645 1454l-430 -1720h-143l430 1720h143z" />
    <glyph glyph-name="zero" unicode="0" horiz-adv-x="1167" 
d="M266 676q0 -279 94 -421t224 -142t223 142q94 142 94 421t-94 421t-223 142q-130 0 -224 -142t-94 -421zM123 676q0 334 135 515q136 181 326 181t325 -181t135 -515t-135 -515t-325 -181t-326 181q-135 181 -135 515z" />
    <glyph glyph-name="one" unicode="1" horiz-adv-x="645" 
d="M307 1096h-10q-72 -61 -195 -62v133q66 1 117 29q95 54 119 156h113v-1352h-144v1096z" />
    <glyph glyph-name="two" unicode="2" horiz-adv-x="1095" 
d="M973 946q-1 -190 -99 -332q-98 -141 -290 -297l-215 -174v-10h573v-133h-799v113l277 225q108 88 174 149q163 151 210 292q26 79 25 173q0 131 -77 209q-78 78 -208 78t-208 -75t-78 -191q0 -68 27 -123t51 -76l26 -22l-88 -93q-105 70 -144 195q-17 55 -17 119
q-1 171 119 285t310 114t311 -118q120 -118 120 -308z" />
    <glyph glyph-name="three" unicode="3" horiz-adv-x="1075" 
d="M276 1014q0 -58 21 -103l-123 -41q-41 61 -41 154q1 148 107 248t272 100t272 -100t106 -253t-131 -245q-30 -20 -50 -29l-23 -8v-10q30 -6 84 -38q55 -31 90 -67t64 -101t28 -142q0 -172 -122 -286t-318 -113q-98 0 -177 28t-122 69q-93 86 -111 150l-10 29l133 51
q30 -121 163 -173q54 -22 124 -21q135 1 216 75t81 195t-80 197t-217 75h-92v123h92q106 0 171 64t65 168t-65 166t-171 63q-106 0 -171 -62t-65 -163z" />
    <glyph glyph-name="four" unicode="4" horiz-adv-x="1034" 
d="M225 471h410v635h-10l-400 -625v-10zM778 1352v-881h205v-133h-205v-338h-143v338h-563v133l563 881h143z" />
    <glyph glyph-name="five" unicode="5" horiz-adv-x="1054" 
d="M543 881q172 0 296 -130q124 -131 124 -321t-128 -320t-313 -130q-86 0 -160 28t-118 69q-91 84 -119 150l-12 29l133 51q5 -21 32 -60q26 -40 54 -66q28 -25 80 -47q51 -22 110 -21q125 0 211 90t86 227t-86 227t-211 91q-159 0 -248 -138l-8 -16l-133 41l72 717h645
v-133h-522l-41 -431h10q36 36 107 64q72 29 139 29z" />
    <glyph glyph-name="six" unicode="6" horiz-adv-x="1105" 
d="M860 430q0 137 -86 227q-86 91 -211 91t-211 -90t-86 -228q0 -137 86 -227t211 -90t211 90t86 227zM585 1239q-127 0 -223 -132t-96 -370h10q9 14 46 44q120 97 262 100q172 0 296 -130q124 -131 124 -321t-128 -320t-315 -130q-186 0 -312 139t-126 373v184
q0 334 135 515t326 181q164 0 293 -138q29 -32 41 -54l14 -23l-123 -61q-96 143 -224 143z" />
    <glyph glyph-name="seven" unicode="7" horiz-adv-x="942" 
d="M901 1352v-133q-48 -60 -128 -208q-79 -147 -134 -282t-105 -335t-63 -394h-164q16 195 82 437t226 544q60 113 102 170l41 57v11h-543v-236h-143v369h829z" />
    <glyph glyph-name="eight" unicode="8" horiz-adv-x="1105" 
d="M799 1010q0 104 -66 166q-67 62 -181 63q-114 -1 -180 -63t-65 -166q0 -104 66 -168q67 -64 181 -64t180 64t65 168zM256 383q0 -121 81 -196t216 -75t216 76q81 74 81 195t-80 197t-217 76t-217 -76t-80 -197zM164 1024q0 150 107 249q108 99 282 99t282 -99t107 -249
q0 -58 -20 -112t-69 -107t-85 -68l-20 -10v-10q24 -5 76 -37q52 -33 84 -67t59 -97t26 -137q0 -172 -122 -286q-123 -113 -319 -113t-318 114t-121 285q0 74 32 151t126 144q36 25 61 35l26 8v10q-8 4 -21 10t-46 32q-72 57 -100 126q-27 70 -27 129z" />
    <glyph glyph-name="nine" unicode="9" horiz-adv-x="1105" 
d="M246 922q0 -138 86 -228t211 -90t211 90t86 228t-86 227q-86 90 -211 90t-211 -90t-86 -227zM507 471q-157 0 -281 130q-124 131 -124 321t128 320q129 130 315 130t312 -139t126 -373v-184q0 -334 -135 -515t-314 -181t-305 138q-29 32 -41 54l-14 23l123 61
q95 -143 224 -143q128 0 223 132t96 369h-11q-8 -13 -45 -43q-120 -100 -277 -100z" />
    <glyph glyph-name="colon" unicode=":" horiz-adv-x="389" 
d="M113 819v164h163v-164h-163zM113 0v164h163v-164h-163z" />
    <glyph glyph-name="semicolon" unicode=";" horiz-adv-x="389" 
d="M113 819v164h163v-164h-163zM195 0h-82v164h163v-123q0 -68 -36 -114t-72 -58l-35 -12l-20 51q32 8 57 34q25 25 25 58z" />
    <glyph glyph-name="less" unicode="&#x3c;" horiz-adv-x="727" 
d="M645 317v-133l-563 328v123l563 328v-134l-440 -251v-9z" />
    <glyph glyph-name="equal" unicode="=" horiz-adv-x="747" 
d="M82 451v122h584v-122h-584zM82 758v123h584v-123h-584z" />
    <glyph glyph-name="greater" unicode="&#x3e;" horiz-adv-x="727" 
d="M82 184v133l440 252v9l-440 251v134l563 -328v-123z" />
    <glyph glyph-name="question" unicode="?" horiz-adv-x="1044" 
d="M369 0v164h163v-164h-163zM799 1055q0 117 -79 191t-208 75q-129 0 -208 -75t-79 -191h-143q0 171 120 285t310 114t310 -114t120 -286t-120 -285q-120 -114 -310 -114l-10 -266h-103l-20 420q51 -20 133 -21q129 0 208 75t79 192z" />
    <glyph glyph-name="at" unicode="@" horiz-adv-x="1617" 
d="M819 1004q-82 0 -138 -74t-56 -213t56 -213t138 -74q45 0 81 20t50 42l13 20v410q-15 30 -57 56t-87 26zM799 338q-106 0 -192 105q-85 105 -85 273t85 274q85 105 192 106q45 0 84 -16t55 -31l14 -15h11v51h102v-573q4 -8 13 -22t44 -38q35 -22 76 -22q76 0 125 78
t49 250q0 264 -154 429q-155 165 -397 165q-243 0 -409 -177t-166 -458t167 -458t416 -177q90 0 172 26t119 52l37 24l51 -92q-16 -12 -46 -30t-129 -51q-99 -32 -204 -31q-295 0 -491 206t-195 531q0 325 196 531q195 206 483 206t470 -192t183 -504q0 -203 -80 -312
t-197 -108q-49 0 -94 26t-66 50l-20 26h-8q-24 -36 -86 -69t-125 -33z" />
    <glyph glyph-name="A" unicode="A" horiz-adv-x="1228" 
d="M604 1198l-246 -727h512l-245 727h-21zM686 1434l481 -1434h-143l-113 338h-594l-112 -338h-144l482 1434h143z" />
    <glyph glyph-name="B" unicode="B" horiz-adv-x="1280" 
d="M655 850q135 0 211 66t76 170q0 103 -80 169t-244 66t-249 -31l-31 -10v-430h317zM1034 424q0 123 -95 208t-253 85h-348v-584h348q156 0 252 84t96 207zM1178 430q0 -180 -138 -305t-354 -125h-491v1393q164 61 440 61q209 0 330 -104t120 -265q0 -100 -49 -174t-98 -98
l-47 -25v-10q41 -7 95 -34q54 -28 92 -62t69 -102q31 -66 31 -150z" />
    <glyph glyph-name="C" unicode="C" horiz-adv-x="1259" 
d="M123 717q0 333 173 535t421 202q167 0 280 -75q114 -75 154 -126l16 -24l-102 -82q-75 112 -216 156q-58 18 -122 18q-195 0 -328 -162q-133 -163 -133 -443t133 -442t328 -161q72 0 150 29t161 116q31 33 43 57l15 23l102 -92q-100 -167 -305 -238q-84 -29 -176 -28
q-248 0 -421 202t-173 535z" />
    <glyph glyph-name="D" unicode="D" horiz-adv-x="1300" 
d="M584 133q194 0 322 155q128 154 128 432t-135 440t-336 161q-125 0 -198 -31l-27 -10v-1147h246zM195 0v1393q153 61 395 61t415 -202t173 -532t-170 -526q-170 -194 -424 -194h-389z" />
    <glyph glyph-name="E" unicode="E" horiz-adv-x="1095" 
d="M195 0v1434h788v-134h-645v-317h543v-133h-543v-717h686v-133h-829z" />
    <glyph glyph-name="F" unicode="F" horiz-adv-x="1013" 
d="M195 0v1434h768v-134h-625v-317h481v-133h-481v-850h-143z" />
    <glyph glyph-name="G" unicode="G" horiz-adv-x="1361" 
d="M1178 737v-737h-134v123h-14q-12 -17 -46 -45q-117 -98 -288 -98q-233 0 -403 202t-170 536q0 332 173 534t421 202q167 0 280 -75q114 -75 154 -126l16 -24l-102 -82q-75 112 -216 156q-58 18 -122 18q-195 0 -328 -162q-133 -161 -133 -441t132 -443t319 -162
q90 0 170 41t112 82l35 40v328h-350v133h494z" />
    <glyph glyph-name="H" unicode="H" horiz-adv-x="1372" 
d="M338 1434v-451h696v451h144v-1434h-144v850h-696v-850h-143v1434h143z" />
    <glyph glyph-name="I" unicode="I" horiz-adv-x="532" 
d="M338 1434v-1434h-143v1434h143z" />
    <glyph glyph-name="J" unicode="J" horiz-adv-x="675" 
d="M72 0v133q122 0 194 72t72 194v1035h143v-1035q-1 -179 -113 -289t-296 -110z" />
    <glyph glyph-name="K" unicode="K" horiz-adv-x="1198" 
d="M338 0h-143v1434h143v-758l604 758h174l-481 -605l543 -829h-164l-471 717l-205 -246v-471z" />
    <glyph glyph-name="L" unicode="L" 
d="M195 0v1434h143v-1301h614v-133h-757z" />
    <glyph glyph-name="M" unicode="M" horiz-adv-x="1525" 
d="M1331 1434v-1434h-143v1137h-10l-359 -707h-112l-359 707h-10v-1137h-143v1434h143l420 -820h10l420 820h143z" />
    <glyph glyph-name="N" unicode="N" horiz-adv-x="1402" 
d="M338 1147v-1147h-143v1434h133l727 -1147h10v1147h143v-1434h-133l-727 1147h-10z" />
    <glyph glyph-name="O" unicode="O" horiz-adv-x="1433" 
d="M266 717q0 -279 132 -442t318 -163t319 164q132 162 132 441t-132 441t-318 163q-187 -1 -319 -163t-132 -441zM123 717q0 333 173 535t421 202t421 -202t173 -536t-173 -535t-421 -201t-421 202t-173 535z" />
    <glyph glyph-name="P" unicode="P" horiz-adv-x="1300" 
d="M1044 932q0 172 -118 280t-322 109q-160 0 -239 -31l-27 -10v-737h287q190 0 305 108q114 109 114 281zM195 0v1393q153 61 413 61t420 -147t160 -373t-157 -376q-157 -148 -406 -148h-287v-410h-143z" />
    <glyph glyph-name="Q" unicode="Q" horiz-adv-x="1433" 
d="M266 717q0 -279 132 -442t319 -162q69 -1 133 23t92 46l31 23q-23 31 -74 57q-51 25 -100 25l20 133q63 0 123 -31t86 -61l27 -31q40 53 76 175q37 122 36 245q0 279 -132 441t-318 163q-187 -1 -319 -163t-132 -441zM123 717q0 333 173 535t421 202t421 -202t173 -535
q0 -203 -60 -340t-104 -193l-21 -20q16 -32 60 -57q45 -26 94 -25l-20 -133q-68 0 -124 34t-79 66l-23 33q-43 -37 -137 -70t-180 -32q-248 0 -421 202t-173 535z" />
    <glyph glyph-name="R" unicode="R" horiz-adv-x="1341" 
d="M666 604q180 0 294 104t115 256q0 151 -118 254t-308 103t-280 -31l-31 -10v-676h328zM338 471v-471h-143v1393q164 61 434 61t430 -143t160 -348q0 -95 -34 -177t-82 -130q-99 -99 -177 -132l-35 -12v-10l328 -502h-164l-307 471h-410z" />
    <glyph glyph-name="S" unicode="S" horiz-adv-x="1157" 
d="M297 1085q0 -128 148 -195q67 -30 208 -76t226 -101q167 -111 165 -314q0 -180 -130 -300t-341 -119q-94 0 -180 28t-166 85q-80 58 -129 124l-16 29l102 92q15 -30 54 -74q38 -43 80 -73q42 -31 114 -55t152 -23q143 0 230 81t87 195t-77 180q-76 66 -186 102t-220 77
q-110 40 -188 124q-76 84 -76 228t115 249q116 105 304 105q78 0 165 -28t193 -117q38 -33 56 -56l17 -24l-103 -82q-75 112 -216 156q-58 18 -122 18q-121 0 -193 -67t-73 -169z" />
    <glyph glyph-name="T" unicode="T" horiz-adv-x="983" 
d="M563 1300v-1300h-143v1300h-359v134h861v-134h-359z" />
    <glyph glyph-name="U" unicode="U" horiz-adv-x="1392" 
d="M1055 461v973h143v-973q0 -209 -140 -345t-362 -136t-361 136q-140 136 -140 345v973h143v-973q0 -154 99 -251t259 -97t260 97t99 251z" />
    <glyph glyph-name="V" unicode="V" horiz-adv-x="1198" 
d="M522 0l-461 1434h144l389 -1209h10l389 1209h144l-461 -1434h-154z" />
    <glyph glyph-name="W" unicode="W" horiz-adv-x="1792" 
d="M1116 0l-215 666h-10l-215 -666h-154l-461 1434h144l389 -1209h10l215 666l-174 543h143l103 -318h10l103 318h143l-174 -543l215 -666h10l389 1209h144l-461 -1434h-154z" />
    <glyph glyph-name="X" unicode="X" horiz-adv-x="1116" 
d="M922 0l-359 614h-10l-358 -614h-154l440 748l-399 686h154l317 -543h10l318 543h153l-399 -686l440 -748h-153z" />
    <glyph glyph-name="Y" unicode="Y" horiz-adv-x="1105" 
d="M625 0h-144v717l-440 717h154l352 -584h12l352 584h154l-440 -717v-717z" />
    <glyph glyph-name="Z" unicode="Z" horiz-adv-x="1075" 
d="M72 0v133l768 1167h-707v134h871v-134l-768 -1167h768v-133h-932z" />
    <glyph glyph-name="bracketleft" unicode="[" horiz-adv-x="665" 
d="M195 -164v1761h378v-122h-235v-1516h235v-123h-378z" />
    <glyph glyph-name="backslash" unicode="\" horiz-adv-x="716" 
d="M502 -266l-430 1720h143l430 -1720h-143z" />
    <glyph glyph-name="bracketright" unicode="]" horiz-adv-x="665" 
d="M471 1597v-1761h-379v123h236v1516h-236v122h379z" />
    <glyph glyph-name="asciicircum" unicode="^" horiz-adv-x="870" 
d="M502 1434l297 -656h-144l-215 492h-10l-215 -492h-143l297 656h133z" />
    <glyph glyph-name="underscore" unicode="_" horiz-adv-x="675" 
d="M0 -297v123h676v-123h-676z" />
    <glyph glyph-name="grave" unicode="`" horiz-adv-x="399" 
d="M205 1454l133 -246h-102l-175 246h144z" />
    <glyph glyph-name="a" unicode="a" 
d="M225 492q0 -182 81 -286t201 -104t202 119l8 15v512q-3 10 -29 40q-78 91 -189 92q-112 2 -193 -102t-81 -286zM92 492q0 236 112 374t267 138q63 0 123 -26t86 -52l27 -25h10v82h133v-758q0 -84 14 -192l6 -33h-133l-10 92h-10q-9 -12 -29 -30t-85 -51q-65 -32 -132 -31
q-155 0 -267 138t-112 374z" />
    <glyph glyph-name="b" unicode="b" horiz-adv-x="1003" 
d="M778 490q0 184 -81 287t-200 103t-202 -118l-8 -14v-594q61 -52 193 -52t216 102q82 102 82 286zM287 1434v-533h10q30 36 101 70q71 33 134 33q156 0 268 -138t112 -376t-120 -374t-311 -136q-90 0 -172 22t-119 47l-36 23v1362h133z" />
    <glyph glyph-name="c" unicode="c" horiz-adv-x="911" 
d="M92 492q0 240 119 376t301 136q100 0 182 -44t113 -88l33 -43l-103 -81q-8 14 -24 36q-17 22 -75 60q-58 37 -126 37q-121 -1 -204 -103t-83 -286t83 -286t191 -104q108 0 166 53q57 53 74 87l9 14l112 -72q-36 -73 -128 -139q-91 -67 -220 -65q-182 0 -301 136t-119 376
z" />
    <glyph glyph-name="d" unicode="d" horiz-adv-x="1003" 
d="M225 492q0 -182 81 -286t201 -104t202 119l8 15v512q-3 10 -29 40q-78 91 -189 92q-112 2 -193 -102t-81 -286zM717 901v533h133v-1434h-133v82h-10q-30 -36 -101 -70q-71 -33 -135 -32q-155 0 -267 138t-112 374t112 374t267 138q63 0 123 -26t86 -52l27 -25h10z" />
    <glyph glyph-name="e" unicode="e" horiz-adv-x="983" 
d="M492 881q-100 0 -176 -79t-91 -208h533q-14 129 -90 208t-176 79zM891 471h-666q0 -170 83 -269q83 -100 191 -100t166 53q57 53 74 87l9 14l112 -72q-36 -73 -128 -139q-91 -67 -220 -65q-182 0 -301 136t-119 375t116 375t284 138q168 0 284 -138t115 -374v-21z" />
    <glyph glyph-name="f" unicode="f" horiz-adv-x="532" 
d="M317 1229v-246h144v-123h-144v-860h-133v860h-123v123h123v246q0 92 54 148t141 57h82v-123h-62q-82 0 -82 -82z" />
    <glyph glyph-name="g" unicode="g" 
d="M225 512q0 -170 82 -269t201 -99t201 118l8 14v472q-3 10 -29 40q-80 93 -190 93q-109 1 -191 -99t-82 -270zM717 102v21h-10q-30 -36 -101 -70q-71 -33 -135 -33q-155 0 -267 136t-112 356q0 221 113 356t266 136q63 0 123 -26t86 -52l27 -25h10v82h133v-922
q0 -147 -102 -247t-256 -101q-82 1 -157 21t-108 41l-32 20l51 113q82 -72 208 -72t194 72t69 194z" />
    <glyph glyph-name="h" unicode="h" horiz-adv-x="972" 
d="M696 0v666q0 215 -194 215q-68 0 -124 -33t-79 -66l-23 -34v-748h-133v1434h133v-533h11q24 36 97 69q74 34 148 34q131 0 214 -85t83 -223v-696h-133z" />
    <glyph glyph-name="i" unicode="i" horiz-adv-x="419" 
d="M143 1311v143h133v-143h-133zM143 0v983h133v-983h-133z" />
    <glyph glyph-name="j" unicode="j" horiz-adv-x="419" 
d="M143 -61v1044h133v-1044q0 -93 -54 -149t-140 -56h-21l-20 123h20q82 0 82 82zM143 1311v143h133v-143h-133z" />
    <glyph glyph-name="k" unicode="k" horiz-adv-x="911" 
d="M287 0h-133v1434h133v-932h10l399 481h154l-328 -389l369 -594h-154l-297 492l-153 -185v-307z" />
    <glyph glyph-name="l" unicode="l" horiz-adv-x="471" 
d="M287 1434v-1229q0 -82 82 -82h20l-20 -123h-21q-86 0 -140 56t-54 149v1229h133z" />
    <glyph glyph-name="m" unicode="m" horiz-adv-x="1402" 
d="M1126 0v696q0 184 -163 185q-55 0 -103 -33t-69 -66l-23 -34v-748h-133v696q0 184 -164 185q-55 0 -103 -33t-69 -66l-23 -34v-748h-133v983h133v-82h11q24 36 89 69q66 34 144 34t133 -42t74 -81h10q13 14 33 34q20 21 88 55t135 34q117 0 192 -77t75 -200v-727h-134z
" />
    <glyph glyph-name="n" unicode="n" horiz-adv-x="972" 
d="M696 0v666q0 215 -194 215q-68 0 -124 -33t-79 -66l-23 -34v-748h-133v983h133v-82h11q24 36 97 69q74 34 148 34q131 0 214 -85t83 -223v-696h-133z" />
    <glyph glyph-name="o" unicode="o" horiz-adv-x="1024" 
d="M225 492q0 -184 83 -286t204 -104q121 0 204 102t83 288q0 184 -83 286t-204 102t-204 -102t-83 -286zM92 492q0 240 119 376t301 136t301 -136t119 -376t-119 -376t-301 -136t-301 136t-119 376z" />
    <glyph glyph-name="p" unicode="p" 
d="M768 492q0 182 -80 286t-204 103q-123 0 -208 -133v-512q3 -8 29 -40q76 -92 189 -93q114 -1 194 103t80 286zM276 82v-348h-133v1249h133v-82h11q31 37 101 70t134 33q156 0 268 -138t112 -374t-112 -374t-268 -138q-62 0 -122 26t-87 51l-26 25h-11z" />
    <glyph glyph-name="q" unicode="q" 
d="M225 492q0 -182 81 -286t201 -104t202 119l8 15v512q-3 10 -29 40q-80 93 -191 93q-110 1 -191 -103t-81 -286zM717 -266v348h-10q-30 -36 -101 -70q-71 -33 -135 -32q-155 0 -267 138t-112 374t112 374t267 138q63 0 123 -26t86 -52l27 -25h10v82h133v-1249h-133z" />
    <glyph glyph-name="r" unicode="r" horiz-adv-x="634" 
d="M451 870q-49 0 -93 -30t-63 -62l-19 -30v-748h-133v983h133v-82h11q23 35 86 69t113 34t86 -20t51 -42l12 -20l-72 -103q-31 51 -112 51z" />
    <glyph glyph-name="s" unicode="s" horiz-adv-x="819" 
d="M604 270q0 62 -37 102t-93 58q-136 44 -242 91q-56 26 -93 81t-37 135q0 117 79 192t193 75t197 -44q82 -44 113 -88l33 -43l-103 -81q-8 14 -24 36t-74 60q-58 37 -127 37t-111 -39t-42 -97q0 -103 176 -155q74 -22 148 -50t126 -91q51 -63 51 -178t-92 -203t-229 -88
t-236 72q-77 60 -106 112l-13 20l113 72q5 -15 31 -47q27 -33 51 -53q66 -54 172 -54q64 0 120 52t56 116z" />
    <glyph glyph-name="t" unicode="t" horiz-adv-x="563" 
d="M51 860v123h123v236l133 71v-307h154v-123h-154v-655q0 -82 82 -82h82l-20 -123h-82q-86 0 -141 56q-54 56 -54 149v655h-123z" />
    <glyph glyph-name="u" unicode="u" horiz-adv-x="972" 
d="M276 983v-666q0 -215 195 -215q68 0 124 33t79 66l22 35v747h133v-983h-133v82h-10q-23 -35 -97 -69t-149 -33q-131 0 -214 85t-83 222v696h133z" />
    <glyph glyph-name="v" unicode="v" horiz-adv-x="849" 
d="M430 236l236 747h143l-317 -983h-134l-317 983h143l236 -747h10z" />
    <glyph glyph-name="w" unicode="w" horiz-adv-x="1198" 
d="M461 0h-133l-287 983h143l205 -747h10l133 481l-81 266h143l205 -747h10l205 747h143l-287 -983h-135l-131 461h-10z" />
    <glyph glyph-name="x" unicode="x" horiz-adv-x="808" 
d="M164 0h-144l308 512l-287 471h143l215 -358h11l215 358h143l-287 -471l307 -512h-143l-235 399h-11z" />
    <glyph glyph-name="y" unicode="y" horiz-adv-x="829" 
d="M256 -266h-72v123h41q90 0 113 82l20 71l-317 973h143l236 -747h10l215 747h143l-317 -1055q-31 -102 -81 -148t-134 -46z" />
    <glyph glyph-name="z" unicode="z" horiz-adv-x="757" 
d="M102 860v123h594v-113l-471 -737v-10h471v-123h-635v113l471 737v10h-430z" />
    <glyph glyph-name="braceleft" unicode="{" horiz-adv-x="665" 
d="M399 512v-420q0 -76 28 -104t105 -29h41v-123h-71q-236 0 -236 246v430q0 84 -29 114q-30 30 -114 29h-10v123h10q84 0 114 30t29 114v430q0 246 236 245h71v-122h-41q-78 0 -106 -29t-27 -105v-419q0 -121 -72 -180q-18 -14 -40 -21v-8q4 -2 12 -4q7 -3 27 -17
q72 -54 73 -180z" />
    <glyph glyph-name="bar" unicode="|" horiz-adv-x="542" 
d="M205 -266v1720h133v-1720h-133z" />
    <glyph glyph-name="braceright" unicode="}" horiz-adv-x="665" 
d="M266 92v420q0 98 37 142t76 59v8q-4 2 -12 4q-7 2 -27 16q-71 51 -74 181v419q0 76 -28 105q-29 29 -105 29h-41v122h72q236 0 235 -245v-430q0 -84 30 -114t114 -30h10v-123h-10q-84 1 -114 -29t-30 -114v-430q0 -246 -235 -246h-72v123h41q77 1 105 29t28 104z" />
    <glyph glyph-name="asciitilde" unicode="~" horiz-adv-x="860" 
d="M302 707q56 -1 144 -57q86 -56 125 -56t70 26t43 52l12 24l82 -51q-20 -59 -56 -99q-69 -75 -145 -75q-77 0 -163 56q-86 57 -125 57t-70 -26t-43 -50l-12 -27l-82 51q8 25 31 61q68 114 189 114z" />
    <glyph glyph-name="nbspace" unicode="&#xa0;" horiz-adv-x="0" 
 />
    <glyph glyph-name="exclamdown" unicode="&#xa1;" horiz-adv-x="552" 
d="M358 983v-164h-163v164h163zM348 -369h-143v471l20 492h103l20 -492v-471z" />
    <glyph glyph-name="cent" unicode="&#xa2;" horiz-adv-x="911" 
d="M573 -266h-122v246q-150 16 -254 151q-105 135 -105 361t102 356q102 131 257 156v253h122v-253q82 -14 149 -58t93 -80l25 -37l-103 -81q-8 14 -24 36q-17 22 -75 60q-58 37 -126 37q-121 -1 -204 -103t-83 -286t83 -286t191 -104q108 0 166 53q57 53 74 87l9 14
l112 -72q-4 -6 -11 -18q-28 -49 -103 -111t-173 -75v-246z" />
    <glyph glyph-name="sterling" unicode="&#xa3;" horiz-adv-x="1034" 
d="M328 133h665v-133h-891v133h62q56 28 82 106q10 32 10 68v359h-154v133h154v235q0 154 92 246t246 92t260 -111q25 -26 35 -44l12 -19l-102 -72q-7 12 -21 30t-67 51q-53 32 -131 32t-129 -53t-52 -152v-235h369v-133h-369v-359q0 -59 -17 -100t-36 -51l-18 -13v-10z" />
    <glyph glyph-name="currency" unicode="&#xa4;" horiz-adv-x="1269" 
d="M1024 892q0 157 -105 252t-275 95t-247 -31l-28 -10v-655h276q174 0 277 96q102 96 102 253zM72 174v133h153v103h-153v133h153v768q154 61 405 61t394 -131t143 -349t-139 -350t-383 -132h-276v-103h501v-133h-501v-174h-144v174h-153z" />
    <glyph glyph-name="yen" unicode="&#xa5;" horiz-adv-x="1085" 
d="M614 553h226v-133h-226v-103h226v-133h-226v-184h-143v184h-225v133h225v103h-225v133h225v102l-430 697h154l344 -564h8l344 564h153l-430 -697v-102z" />
    <glyph glyph-name="brokenbar" unicode="&#xa6;" horiz-adv-x="542" 
d="M205 717v737h133v-737h-133zM205 -266v737h133v-737h-133z" />
    <glyph glyph-name="section" unicode="&#xa7;" horiz-adv-x="962" 
d="M506 -20q-114 0 -196 44t-113 87l-33 43l102 82q8 -14 24 -37t76 -60q58 -37 126 -37t110 39t43 95q0 56 -37 97t-93 67q-127 58 -242 124q-56 33 -93 93t-37 150t43 143t90 73v10q-32 19 -62 77t-30 118q0 118 79 192t224 74t261 -112q27 -26 38 -44l13 -18l-103 -82
q-8 14 -24 37t-74 59t-127 37q-68 0 -111 -39t-43 -94t37 -97t93 -68q56 -27 121 -59t121 -65t93 -93t37 -150t-43 -142t-90 -73v-11q34 -20 64 -78q29 -57 28 -116q0 -118 -78 -192q-80 -74 -194 -74zM276 771q0 -56 42 -104t88 -74q46 -25 110 -55q66 -30 78 -36
q10 4 26 12q15 8 40 50q26 42 26 98t-42 105q-42 48 -87 74q-45 25 -111 55t-77 36q-9 -4 -25 -12t-42 -50t-26 -99z" />
    <glyph glyph-name="dieresis" unicode="&#xa8;" horiz-adv-x="542" 
d="M348 1262v141h133v-141h-133zM61 1262v141h134v-141h-134z" />
    <glyph glyph-name="copyright" unicode="&#xa9;" horiz-adv-x="1658" 
d="M840 338q-121 0 -209 104t-88 274t88 275t211 105t205 -101l8 -12l-72 -61q-15 31 -57 56q-41 26 -86 26q-82 0 -138 -74t-57 -213q0 -139 56 -213t139 -74q49 0 88 26t51 52l14 24l82 -51q-4 -13 -44 -58q-39 -45 -93 -65q-53 -20 -98 -20zM246 717q0 -281 167 -458
t417 -177t416 177q167 177 167 458t-167 458t-417 177q-251 0 -417 -177t-166 -458zM143 717q0 325 196 531q197 206 491 206t490 -206t196 -532t-196 -531t-491 -205t-491 206t-195 531z" />
    <glyph glyph-name="ordfeminine" unicode="&#xaa;" horiz-adv-x="808" 
d="M398 799q70 1 114 31q43 30 57 61l15 31v307q-2 4 -9 24t-36 46q-57 51 -134 52t-133 -72t-57 -204q0 -131 56 -204q57 -72 127 -72zM389 696q-115 0 -201 104t-86 275t86 275t201 104q55 0 101 -20t65 -41l18 -21h11v62h112v-594l11 -123h-103l-10 61h-10
q-23 -30 -79 -56q-57 -26 -116 -26z" />
    <glyph glyph-name="guillemotleft" unicode="&#xab;" horiz-adv-x="849" 
d="M696 881l62 -62l-215 -297v-10l215 -297l-62 -61l-266 307v112zM358 881l62 -62l-215 -297v-10l215 -297l-62 -61l-266 307v112z" />
    <glyph glyph-name="logicalnot" unicode="&#xac;" horiz-adv-x="757" 
d="M82 532v123h594v-348h-123v225h-471z" />
    <glyph glyph-name="uni00AD" unicode="&#xad;" horiz-adv-x="614" 
d="M82 573v123h450v-123h-450z" />
    <glyph glyph-name="registered" unicode="&#xae;" horiz-adv-x="1658" 
d="M246 717q0 -281 167 -458t417 -177t416 177q167 177 167 458t-167 458t-417 177q-251 0 -417 -177t-166 -458zM143 717q0 325 196 531q197 206 491 206t490 -206t196 -532t-196 -531t-491 -205t-491 206t-195 531zM666 625v-267h-103v684q101 54 245 54t226 -70t82 -166
q0 -62 -36 -114t-72 -70l-35 -21v-10l164 -287h-123l-154 267h-194zM837 1004q-78 0 -171 -31v-256h174q82 0 128 40q46 41 46 105t-49 103q-50 39 -128 39z" />
    <glyph glyph-name="macron" unicode="&#xaf;" horiz-adv-x="604" 
d="M61 1280v102h482v-102h-482z" />
    <glyph glyph-name="degree" unicode="&#xb0;" horiz-adv-x="716" 
d="M512 1188q0 68 -46 116t-108 48t-107 -48q-46 -48 -46 -116t46 -116t107 -48t108 48q46 48 46 116zM604 1188q0 -106 -73 -181t-173 -75t-173 75t-72 181q0 106 72 181q73 75 173 75t173 -75t73 -181z" />
    <glyph glyph-name="plusminus" unicode="&#xb1;" horiz-adv-x="788" 
d="M82 143v123h625v-123h-625zM82 604v123h246v266h133v-266h246v-123h-246v-246h-133v246h-246z" />
    <glyph glyph-name="twosuperior" unicode="&#xb2;" horiz-adv-x="655" 
d="M573 1253q0 -145 -86 -248q-86 -104 -161 -157l-29 -19v-10h256v-102h-420v92q208 119 301 295q37 70 37 130t-36 94t-97 34t-97 -34t-36 -80t18 -74t35 -37l18 -11l-71 -71q-35 17 -69 73t-34 111q0 95 65 155t171 60t171 -60q64 -61 64 -141z" />
    <glyph glyph-name="threesuperior" unicode="&#xb3;" horiz-adv-x="645" 
d="M276 1065v92h33q45 0 73 29t28 75q0 45 -29 73t-74 28t-74 -28t-28 -74l10 -52l-102 -30q-21 32 -21 96t62 122t153 58t153 -58t62 -122t-22 -99q-22 -36 -45 -49l-25 -10v-10q4 -2 12 -5q59 -22 88 -107q12 -34 13 -74q0 -98 -65 -160t-171 -64q-152 0 -221 129l-4 15
l92 37q2 -4 6 -17t35 -42q31 -28 92 -29t97 35t36 101t-36 103t-97 37h-31z" />
    <glyph glyph-name="acute" unicode="&#xb4;" horiz-adv-x="399" 
d="M61 1208l134 246h143l-174 -246h-103z" />
    <glyph glyph-name="mu" unicode="&#xb5;" horiz-adv-x="972" 
d="M276 983v-655q0 -106 56 -166t156 -60q101 0 174 86q21 23 34 48v747h133v-983h-133v82h-10q-23 -35 -97 -69t-161 -33t-135 45l-17 16h-10v-307h-123v1249h133z" />
    <glyph glyph-name="paragraph" unicode="&#xb6;" horiz-adv-x="1208" 
d="M829 -266v1577h-204v-1577h-133v880q-150 0 -254 115t-105 295q1 180 105 295t254 115h624v-123h-153v-1577h-134z" />
    <glyph glyph-name="periodcentered" unicode="&#xb7;" horiz-adv-x="368" 
d="M102 512v164h164v-164h-164z" />
    <glyph glyph-name="cedilla" unicode="&#xb8;" horiz-adv-x="532" 
d="M205 0h92v-102q76 0 125 -45t49 -113t-61 -119t-160 -51t-168 45l-21 16l31 62q61 -41 132 -41t103 26q31 26 31 61t-28 61t-64 26h-61v174z" />
    <glyph glyph-name="onesuperior" unicode="&#xb9;" horiz-adv-x="430" 
d="M297 1434v-717h-102v553h-11q-31 -31 -71 -41l-21 92q36 7 70 40q35 32 43 73h92z" />
    <glyph glyph-name="ordmasculine" unicode="&#xba;" horiz-adv-x="819" 
d="M215 1075q0 -131 56 -204q57 -73 139 -73t138 74q56 72 56 203t-56 204t-138 73t-138 -73t-57 -204zM102 1075q0 171 90 275t218 104q127 0 217 -104t90 -274t-90 -275t-217 -105q-128 0 -218 104t-90 275z" />
    <glyph glyph-name="guillemotright" unicode="&#xbb;" horiz-adv-x="849" 
d="M154 154l-62 61l215 297v10l-215 297l62 62l266 -308v-112zM492 154l-62 61l215 297v10l-215 297l62 62l266 -308v-112z" />
    <glyph glyph-name="onequarter" unicode="&#xbc;" horiz-adv-x="1300" 
d="M1004 264v287h-11l-205 -277v-10h216zM1198 172h-92v-184h-105v184h-315v102l318 431h102v-441h92v-92zM328 1434v-717h-103v553h-10q-31 -31 -72 -41l-20 92q36 7 70 40q35 32 43 73h92zM143 0l799 1434h123l-799 -1434h-123z" />
    <glyph glyph-name="onehalf" unicode="&#xbd;" horiz-adv-x="1402" 
d="M1044 737q106 -1 171 -61t65 -140q0 -142 -88 -248q-88 -107 -160 -157l-28 -18v-11h256v-102h-420v92q116 67 220 177q44 48 81 118t37 130t-36 94t-98 34t-97 -34q-36 -34 -36 -80q-1 -45 17 -73t37 -38l18 -10l-72 -72q-34 17 -68 73t-34 111q0 94 64 155
q65 60 171 60zM328 1434v-717h-103v553h-10q-31 -31 -72 -41l-20 92q36 7 70 40q35 32 43 73h92zM143 0l799 1434h123l-799 -1434h-123z" />
    <glyph glyph-name="threequarters" unicode="&#xbe;" horiz-adv-x="1454" 
d="M287 1065v92h32q45 0 73 29t28 75q0 45 -28 73t-75 28t-75 -28t-27 -74l10 -52l-102 -30q-21 32 -21 96t62 122t153 58t153 -58t62 -122t-22 -99q-22 -36 -47 -49l-23 -10v-10q4 -2 22 -8t42 -38q49 -64 49 -151t-65 -149t-170 -64q-105 0 -155 46q-51 46 -71 98l92 37
q2 -4 6 -16t34 -41q31 -30 92 -31q62 -1 99 35q36 36 36 101t-36 103t-98 37h-30zM1157 264v287h-10l-205 -277v-10h215zM1352 172h-92v-184h-105v184h-315v102l317 431h103v-441h92v-92zM297 0l799 1434h123l-799 -1434h-123z" />
    <glyph glyph-name="questiondown" unicode="&#xbf;" horiz-adv-x="1003" 
d="M655 983v-164h-163v164h163zM225 30q0 -116 79 -191t208 -75t208 75t79 192h143q0 -172 -120 -286t-310 -114t-310 114t-120 286q0 171 120 285t310 114l10 164h103l20 -318q-51 20 -133 21q-129 0 -208 -75q-79 -76 -79 -192z" />
    <glyph glyph-name="Agrave" unicode="&#xc0;" horiz-adv-x="1228" 
d="M532 1864l134 -246h-103l-174 246h143zM604 1198l-246 -727h512l-245 727h-21zM686 1434l481 -1434h-143l-113 338h-594l-112 -338h-144l482 1434h143z" />
    <glyph glyph-name="Aacute" unicode="&#xc1;" horiz-adv-x="1228" 
d="M563 1618l133 246h144l-174 -246h-103zM604 1198l-246 -727h512l-245 727h-21zM686 1434l481 -1434h-143l-113 338h-594l-112 -338h-144l482 1434h143z" />
    <glyph glyph-name="Acircumflex" unicode="&#xc2;" horiz-adv-x="1228" 
d="M686 1864l184 -246h-143l-113 174l-112 -174h-144l185 246h143zM604 1198l-246 -727h512l-245 727h-21zM686 1434l481 -1434h-143l-113 338h-594l-112 -338h-144l482 1434h143z" />
    <glyph glyph-name="Atilde" unicode="&#xc3;" horiz-adv-x="1228" 
d="M518 1741q-49 0 -61 -103h-103q26 205 154 205q56 0 118 -51t87 -51q49 0 61 102h103q-26 -203 -154 -205q-55 0 -117 52t-88 51zM604 1198l-246 -727h512l-245 727h-21zM686 1434l481 -1434h-143l-113 338h-594l-112 -338h-144l482 1434h143z" />
    <glyph glyph-name="Adieresis" unicode="&#xc4;" horiz-adv-x="1228" 
d="M696 1669v133h133v-133h-133zM399 1669v133h133v-133h-133zM604 1198l-246 -727h512l-245 727h-21zM686 1434l481 -1434h-143l-113 338h-594l-112 -338h-144l482 1434h143z" />
    <glyph glyph-name="Aring" unicode="&#xc5;" horiz-adv-x="1228" 
d="M430 1731q0 84 53 139t131 55t131 -55t53 -139q0 -83 -52 -139q-54 -56 -132 -56t-131 56t-53 139zM522 1731q0 -45 27 -74t65 -29t66 29q27 29 27 74t-27 73t-66 29q-40 -1 -66 -29t-26 -73zM604 1198l-246 -727h512l-245 727h-21zM686 1434l481 -1434h-143l-113 338
h-594l-112 -338h-144l482 1434h143z" />
    <glyph glyph-name="AE" unicode="&#xc6;" horiz-adv-x="1648" 
d="M799 471v829h-164l-277 -829h441zM799 0v338h-482l-112 -338h-144l482 1434h993v-134h-594v-317h492v-133h-492v-717h635v-133h-778z" />
    <glyph glyph-name="Ccedilla" unicode="&#xc7;" horiz-adv-x="1259" 
d="M758 -102q76 0 125 -45t49 -113t-60 -119t-165 -51q-49 0 -95 15t-67 30l-23 16l31 62q61 -41 131 -41t103 26q32 26 32 61q1 35 -27 61t-65 26h-61v154q-221 16 -382 216t-161 528t173 528q173 202 421 202q167 0 280 -75q114 -75 154 -126l16 -24l-102 -82
q-75 112 -216 156q-58 18 -122 18q-195 0 -328 -162q-133 -163 -133 -443t133 -442t328 -161q72 0 150 29t161 116q31 33 43 57l15 23l102 -92q-22 -37 -67 -84q-90 -95 -189 -136q-100 -41 -184 -46v-82z" />
    <glyph glyph-name="Egrave" unicode="&#xc8;" horiz-adv-x="1095" 
d="M522 1864l133 -246h-102l-174 246h143zM195 0v1434h788v-134h-645v-317h543v-133h-543v-717h686v-133h-829z" />
    <glyph glyph-name="Eacute" unicode="&#xc9;" horiz-adv-x="1095" 
d="M522 1618l133 246h144l-174 -246h-103zM195 0v1434h788v-134h-645v-317h543v-133h-543v-717h686v-133h-829z" />
    <glyph glyph-name="Ecircumflex" unicode="&#xca;" horiz-adv-x="1095" 
d="M666 1864l184 -246h-143l-113 174l-113 -174h-143l184 246h144zM195 0v1434h788v-134h-645v-317h543v-133h-543v-717h686v-133h-829z" />
    <glyph glyph-name="Edieresis" unicode="&#xcb;" horiz-adv-x="1095" 
d="M676 1669v133h133v-133h-133zM379 1669v133h133v-133h-133zM195 0v1434h788v-134h-645v-317h543v-133h-543v-717h686v-133h-829z" />
    <glyph glyph-name="Igrave" unicode="&#xcc;" horiz-adv-x="532" 
d="M184 1864l133 -246h-102l-174 246h143zM338 1434v-1434h-143v1434h143z" />
    <glyph glyph-name="Iacute" unicode="&#xcd;" horiz-adv-x="532" 
d="M215 1618l133 246h144l-175 -246h-102zM338 1434v-1434h-143v1434h143z" />
    <glyph glyph-name="Icircumflex" unicode="&#xce;" horiz-adv-x="532" 
d="M338 1864l184 -246h-143l-113 174l-112 -174h-144l185 246h143zM338 1434v-1434h-143v1434h143z" />
    <glyph glyph-name="Idieresis" unicode="&#xcf;" horiz-adv-x="532" 
d="M348 1669v133h133v-133h-133zM51 1669v133h133v-133h-133zM338 1434v-1434h-143v1434h143z" />
    <glyph glyph-name="Eth" unicode="&#xd0;" horiz-adv-x="1310" 
d="M594 133q194 0 322 155q128 154 128 432t-135 440t-336 161q-122 0 -198 -31l-27 -10v-297h307v-133h-307v-717h246zM72 850v133h133v410q153 61 395 61t415 -202t173 -532t-170 -526q-170 -194 -424 -194h-389v850h-133z" />
    <glyph glyph-name="Ntilde" unicode="&#xd1;" horiz-adv-x="1402" 
d="M604 1741q-49 0 -61 -103h-103q26 205 154 205q56 0 118 -51t87 -51q49 0 61 102h103q-26 -203 -154 -205q-55 0 -117 52t-88 51zM338 1147v-1147h-143v1434h133l727 -1147h10v1147h143v-1434h-133l-727 1147h-10z" />
    <glyph glyph-name="Ograve" unicode="&#xd2;" horiz-adv-x="1433" 
d="M645 1864l133 -246h-102l-174 246h143zM266 717q0 -279 132 -442t318 -163t319 164q132 162 132 441t-132 441t-318 163q-187 -1 -319 -163t-132 -441zM123 717q0 333 173 535t421 202t421 -202t173 -536t-173 -535t-421 -201t-421 202t-173 535z" />
    <glyph glyph-name="Oacute" unicode="&#xd3;" horiz-adv-x="1433" 
d="M655 1618l133 246h144l-174 -246h-103zM266 717q0 -279 132 -442t318 -163t319 164q132 162 132 441t-132 441t-318 163q-187 -1 -319 -163t-132 -441zM123 717q0 333 173 535t421 202t421 -202t173 -536t-173 -535t-421 -201t-421 202t-173 535z" />
    <glyph glyph-name="Ocircumflex" unicode="&#xd4;" horiz-adv-x="1433" 
d="M788 1864l185 -246h-144l-112 174l-113 -174h-143l184 246h143zM266 717q0 -279 132 -442t318 -163t319 164q132 162 132 441t-132 441t-318 163q-187 -1 -319 -163t-132 -441zM123 717q0 333 173 535t421 202t421 -202t173 -536t-173 -535t-421 -201t-421 202t-173 535z
" />
    <glyph glyph-name="Otilde" unicode="&#xd5;" horiz-adv-x="1433" 
d="M457 1638q26 205 150 205q59 0 121 -51t87 -51q50 0 62 102h102q-25 -203 -149 -205q-60 0 -121 52t-88 51q-49 0 -62 -103h-102zM266 717q0 -279 132 -442t318 -163t319 164q132 162 132 441t-132 441t-318 163q-187 -1 -319 -163t-132 -441zM123 717q0 333 173 535
t421 202t421 -202t173 -536t-173 -535t-421 -201t-421 202t-173 535z" />
    <glyph glyph-name="Odieresis" unicode="&#xd6;" horiz-adv-x="1433" 
d="M799 1669v133h133v-133h-133zM502 1669v133h133v-133h-133zM266 717q0 -279 132 -442t318 -163t319 164q132 162 132 441t-132 441t-318 163q-187 -1 -319 -163t-132 -441zM123 717q0 333 173 535t421 202t421 -202t173 -536t-173 -535t-421 -201t-421 202t-173 535z" />
    <glyph glyph-name="multiply" unicode="&#xd7;" horiz-adv-x="675" 
d="M82 481l174 185l-174 184l82 82l174 -184l174 184l82 -82l-174 -184l174 -185l-82 -82l-174 185l-174 -185z" />
    <glyph glyph-name="Oslash" unicode="&#xd8;" horiz-adv-x="1433" 
d="M1167 717q-1 127 -31 235t-61 150l-31 45l-573 -942q36 -36 107 -64q72 -29 139 -28q186 1 318 163t132 441zM266 717q0 -127 31 -235t61 -150l31 -45l574 942q-34 34 -106 63q-73 29 -140 29q-187 -1 -319 -163t-132 -441zM123 717q0 333 173 535t421 202q86 0 166 -26
t116 -52l35 -24l51 82h134l-103 -164q26 -19 63 -75q132 -195 132 -478q0 -334 -173 -536t-421 -201q-86 0 -166 26t-117 51l-35 25l-51 -82h-133l102 164q-26 19 -63 75t-63 114q-26 59 -47 157t-21 207z" />
    <glyph glyph-name="Ugrave" unicode="&#xd9;" horiz-adv-x="1392" 
d="M625 1864l133 -246h-103l-174 246h144zM1055 461v973h143v-973q0 -209 -140 -345t-362 -136t-361 136q-140 136 -140 345v973h143v-973q0 -154 99 -251t259 -97t260 97t99 251z" />
    <glyph glyph-name="Uacute" unicode="&#xda;" horiz-adv-x="1392" 
d="M625 1618l133 246h143l-174 -246h-102zM1055 461v973h143v-973q0 -209 -140 -345t-362 -136t-361 136q-140 136 -140 345v973h143v-973q0 -154 99 -251t259 -97t260 97t99 251z" />
    <glyph glyph-name="Ucircumflex" unicode="&#xdb;" horiz-adv-x="1392" 
d="M768 1864l184 -246h-143l-113 174l-112 -174h-144l185 246h143zM1055 461v973h143v-973q0 -209 -140 -345t-362 -136t-361 136q-140 136 -140 345v973h143v-973q0 -154 99 -251t259 -97t260 97t99 251z" />
    <glyph glyph-name="Udieresis" unicode="&#xdc;" horiz-adv-x="1392" 
d="M778 1669v133h133v-133h-133zM481 1669v133h133v-133h-133zM1055 461v973h143v-973q0 -209 -140 -345t-362 -136t-361 136q-140 136 -140 345v973h143v-973q0 -154 99 -251t259 -97t260 97t99 251z" />
    <glyph glyph-name="Yacute" unicode="&#xdd;" horiz-adv-x="1105" 
d="M481 1618l133 246h144l-174 -246h-103zM625 0h-144v717l-440 717h154l352 -584h12l352 584h154l-440 -717v-717z" />
    <glyph glyph-name="Thorn" unicode="&#xde;" horiz-adv-x="1290" 
d="M625 399q197 1 308 103t111 267t-115 266q-116 101 -325 102q-152 0 -239 -31l-27 -10v-697h287zM338 1434v-205q102 41 266 41q270 0 427 -140t157 -361q0 -220 -154 -361t-409 -142h-287v-266h-143v1434h143z" />
    <glyph glyph-name="germandbls" unicode="&#xdf;" horiz-adv-x="1024" 
d="M430 881v123q104 0 180 87t76 220h-123q-121 -1 -204 -103t-83 -286v-922h-133v922q0 240 119 376t301 136h266q-1 -100 -23 -184t-52 -130q-66 -102 -117 -125l-23 -12v-10q37 -6 98 -44q62 -38 103 -86q41 -47 74 -141t33 -210q0 -240 -119 -376t-301 -136
q-53 0 -133 20l30 123q41 -21 137 -21t174 104t78 286q0 184 -82 286q-83 102 -204 103h-72z" />
    <glyph glyph-name="agrave" unicode="&#xe0;" 
d="M430 1454l133 -246h-102l-174 246h143zM225 492q0 -182 81 -286t201 -104t202 119l8 15v512q-3 10 -29 40q-78 91 -189 92q-112 2 -193 -102t-81 -286zM92 492q0 236 112 374t267 138q63 0 123 -26t86 -52l27 -25h10v82h133v-758q0 -84 14 -192l6 -33h-133l-10 92h-10
q-9 -12 -29 -30t-85 -51q-65 -32 -132 -31q-155 0 -267 138t-112 374z" />
    <glyph glyph-name="aacute" unicode="&#xe1;" 
d="M451 1208l133 246h143l-174 -246h-102zM225 492q0 -182 81 -286t201 -104t202 119l8 15v512q-3 10 -29 40q-78 91 -189 92q-112 2 -193 -102t-81 -286zM92 492q0 236 112 374t267 138q63 0 123 -26t86 -52l27 -25h10v82h133v-758q0 -84 14 -192l6 -33h-133l-10 92h-10
q-9 -12 -29 -30t-85 -51q-65 -32 -132 -31q-155 0 -267 138t-112 374z" />
    <glyph glyph-name="acircumflex" unicode="&#xe2;" 
d="M573 1454l185 -246h-144l-102 174h-10l-103 -174h-143l184 246h133zM225 492q0 -182 81 -286t201 -104t202 119l8 15v512q-3 10 -29 40q-78 91 -189 92q-112 2 -193 -102t-81 -286zM92 492q0 236 112 374t267 138q63 0 123 -26t86 -52l27 -25h10v82h133v-758
q0 -84 14 -192l6 -33h-133l-10 92h-10q-9 -12 -29 -30t-85 -51q-65 -32 -132 -31q-155 0 -267 138t-112 374z" />
    <glyph glyph-name="atilde" unicode="&#xe3;" 
d="M399 1331q-49 0 -61 -102h-102q26 203 150 205q60 0 122 -52t86 -51q49 1 61 103h103q-26 -205 -150 -205q-60 0 -120 51q-62 51 -89 51zM225 492q0 -182 81 -286t201 -104t202 119l8 15v512q-3 10 -29 40q-78 91 -189 92q-112 2 -193 -102t-81 -286zM92 492
q0 236 112 374t267 138q63 0 123 -26t86 -52l27 -25h10v82h133v-758q0 -84 14 -192l6 -33h-133l-10 92h-10q-9 -12 -29 -30t-85 -51q-65 -32 -132 -31q-155 0 -267 138t-112 374z" />
    <glyph glyph-name="adieresis" unicode="&#xe4;" 
d="M584 1262v141h133v-141h-133zM297 1262v141h133v-141h-133zM225 492q0 -182 81 -286t201 -104t202 119l8 15v512q-3 10 -29 40q-78 91 -189 92q-112 2 -193 -102t-81 -286zM92 492q0 236 112 374t267 138q63 0 123 -26t86 -52l27 -25h10v82h133v-758q0 -84 14 -192l6 -33
h-133l-10 92h-10q-9 -12 -29 -30t-85 -51q-65 -32 -132 -31q-155 0 -267 138t-112 374z" />
    <glyph glyph-name="aring" unicode="&#xe5;" 
d="M317 1341q-1 83 53 139t132 56t131 -55t53 -139t-53 -140q-53 -55 -131 -55t-132 55t-53 139zM410 1341q0 -45 26 -73t66 -29q40 0 66 29q26 30 26 74t-27 73t-65 29t-66 -29q-26 -29 -26 -74zM225 492q0 -182 81 -286t201 -104t202 119l8 15v512q-3 10 -29 40
q-78 91 -189 92q-112 2 -193 -102t-81 -286zM92 492q0 236 112 374t267 138q63 0 123 -26t86 -52l27 -25h10v82h133v-758q0 -84 14 -192l6 -33h-133l-10 92h-10q-9 -12 -29 -30t-85 -51q-65 -32 -132 -31q-155 0 -267 138t-112 374z" />
    <glyph glyph-name="ae" unicode="&#xe6;" horiz-adv-x="1556" 
d="M1085 881q-92 0 -155 -78t-80 -209h471q-16 131 -80 209t-156 78zM442 102q110 0 187 96q78 96 78 273h-277q-98 0 -151 -49t-53 -135q0 -85 52 -135q54 -50 164 -50zM1464 471h-624q0 -168 80 -268q80 -101 178 -101t150 54q53 54 73 100l113 -72q-65 -129 -197 -180
t-255 1q-86 38 -156 133q-26 36 -35 63l-13 24h-10q-5 -24 -37 -76q-33 -51 -67 -83t-96 -60q-64 -27 -138 -26q-160 0 -249 84t-89 222q0 140 89 224t249 84h277q-23 133 -90 210t-141 77t-129 -33q-56 -33 -79 -66l-22 -34l-103 81q114 172 328 175q100 0 174 -60t98 -117
l25 -59h10q4 10 10 26t33 56q58 88 146 128q55 26 118 26q162 0 271 -134t108 -378v-21z" />
    <glyph glyph-name="ccedilla" unicode="&#xe7;" horiz-adv-x="911" 
d="M553 -102q76 0 125 -45t49 -113t-60 -119t-165 -51q-49 0 -95 15t-67 30l-23 16l31 62q61 -41 132 -41t103 26q31 26 31 61t-28 61t-64 26h-61v154q-156 16 -262 150q-107 134 -107 368t119 370t301 136q100 0 182 -44t113 -88l33 -43l-103 -81q-8 14 -24 36
q-17 22 -75 60q-58 37 -126 37q-121 -1 -204 -103t-83 -286t83 -286t191 -104q108 0 166 53q57 53 74 87l9 14l112 -72q-31 -62 -85 -107q-105 -87 -222 -97v-82z" />
    <glyph glyph-name="egrave" unicode="&#xe8;" horiz-adv-x="983" 
d="M420 1454l133 -246h-102l-175 246h144zM492 881q-100 0 -176 -79t-91 -208h533q-14 129 -90 208t-176 79zM891 471h-666q0 -170 83 -269q83 -100 191 -100t166 53q57 53 74 87l9 14l112 -72q-36 -73 -128 -139q-91 -67 -220 -65q-182 0 -301 136t-119 375t116 375
t284 138q168 0 284 -138t115 -374v-21z" />
    <glyph glyph-name="eacute" unicode="&#xe9;" horiz-adv-x="983" 
d="M440 1208l133 246h144l-174 -246h-103zM492 881q-100 0 -176 -79t-91 -208h533q-14 129 -90 208t-176 79zM891 471h-666q0 -170 83 -269q83 -100 191 -100t166 53q57 53 74 87l9 14l112 -72q-36 -73 -128 -139q-91 -67 -220 -65q-182 0 -301 136t-119 375t116 375
t284 138q168 0 284 -138t115 -374v-21z" />
    <glyph glyph-name="ecircumflex" unicode="&#xea;" horiz-adv-x="983" 
d="M559 1454l184 -246h-143l-102 174h-11l-102 -174h-143l184 246h133zM492 881q-100 0 -176 -79t-91 -208h533q-14 129 -90 208t-176 79zM891 471h-666q0 -170 83 -269q83 -100 191 -100t166 53q57 53 74 87l9 14l112 -72q-36 -73 -128 -139q-91 -67 -220 -65
q-182 0 -301 136t-119 375t116 375t284 138q168 0 284 -138t115 -374v-21z" />
    <glyph glyph-name="edieresis" unicode="&#xeb;" horiz-adv-x="983" 
d="M569 1262v141h133v-141h-133zM283 1262v141h133v-141h-133zM492 881q-100 0 -176 -79t-91 -208h533q-14 129 -90 208t-176 79zM891 471h-666q0 -170 83 -269q83 -100 191 -100t166 53q57 53 74 87l9 14l112 -72q-36 -73 -128 -139q-91 -67 -220 -65q-182 0 -301 136
t-119 375t116 375t284 138q168 0 284 -138t115 -374v-21z" />
    <glyph glyph-name="igrave" unicode="&#xec;" horiz-adv-x="419" 
d="M133 1454l133 -246h-102l-174 246h143zM143 0v983h133v-983h-133z" />
    <glyph glyph-name="iacute" unicode="&#xed;" horiz-adv-x="419" 
d="M154 1208l133 246h143l-174 -246h-102zM143 0v983h133v-983h-133z" />
    <glyph glyph-name="icircumflex" unicode="&#xee;" horiz-adv-x="419" 
d="M276 1454l185 -246h-144l-102 174h-10l-103 -174h-143l184 246h133zM143 0v983h133v-983h-133z" />
    <glyph glyph-name="idieresis" unicode="&#xef;" horiz-adv-x="419" 
d="M287 1262v141h133v-141h-133zM0 1262v141h133v-141h-133zM143 0v983h133v-983h-133z" />
    <glyph glyph-name="eth" unicode="&#xf0;" horiz-adv-x="1034" 
d="M799 471q0 170 -84 269q-84 100 -204 100t-203 -100t-83 -269q0 -170 83 -269q83 -100 204 -100t204 100t83 269zM932 565v-94q0 -225 -119 -358t-301 -133t-301 133t-119 357t116 358t284 135q59 -1 112 -21t106 -68t68 -86l10 -20h11q-23 118 -82 226t-107 157l-47 47
l-184 -123l-41 72l174 113q-113 105 -211 155l-35 19h154q88 -45 172 -123l166 112l41 -71l-144 -92q98 -98 181 -266q36 -76 66 -192t30 -237z" />
    <glyph glyph-name="ntilde" unicode="&#xf1;" horiz-adv-x="972" 
d="M389 1331q-49 0 -61 -102h-103q26 203 154 205q55 0 117 -52t88 -51q49 1 61 103h103q-26 -205 -154 -205q-56 0 -118 51t-87 51zM696 0v666q0 215 -194 215q-68 0 -124 -33t-79 -66l-23 -34v-748h-133v983h133v-82h11q24 36 97 69q74 34 148 34q131 0 214 -85t83 -223
v-696h-133z" />
    <glyph glyph-name="ograve" unicode="&#xf2;" horiz-adv-x="1024" 
d="M440 1454l133 -246h-102l-174 246h143zM225 492q0 -184 83 -286t204 -104q121 0 204 102t83 288q0 184 -83 286t-204 102t-204 -102t-83 -286zM92 492q0 240 119 376t301 136t301 -136t119 -376t-119 -376t-301 -136t-301 136t-119 376z" />
    <glyph glyph-name="oacute" unicode="&#xf3;" horiz-adv-x="1024" 
d="M440 1208l133 246h144l-174 -246h-103zM225 492q0 -184 83 -286t204 -104q121 0 204 102t83 288q0 184 -83 286t-204 102t-204 -102t-83 -286zM92 492q0 240 119 376t301 136t301 -136t119 -376t-119 -376t-301 -136t-301 136t-119 376z" />
    <glyph glyph-name="ocircumflex" unicode="&#xf4;" horiz-adv-x="1024" 
d="M580 1454l184 -246h-143l-103 174h-10l-102 -174h-144l184 246h134zM225 492q0 -184 83 -286t204 -104q121 0 204 102t83 288q0 184 -83 286t-204 102t-204 -102t-83 -286zM92 492q0 240 119 376t301 136t301 -136t119 -376t-119 -376t-301 -136t-301 136t-119 376z" />
    <glyph glyph-name="otilde" unicode="&#xf5;" horiz-adv-x="1024" 
d="M416 1331q-49 0 -62 -102h-102q14 111 52 157t98 48q60 0 122 -52q61 -52 86 -51q50 1 62 103h102q-26 -205 -149 -205q-59 0 -121 51t-88 51zM225 492q0 -184 83 -286t204 -104q121 0 204 102t83 288q0 184 -83 286t-204 102t-204 -102t-83 -286zM92 492q0 240 119 376
t301 136t301 -136t119 -376t-119 -376t-301 -136t-301 136t-119 376z" />
    <glyph glyph-name="odieresis" unicode="&#xf6;" horiz-adv-x="1024" 
d="M590 1262v141h133v-141h-133zM303 1262v141h133v-141h-133zM225 492q0 -184 83 -286t204 -104q121 0 204 102t83 288q0 184 -83 286t-204 102t-204 -102t-83 -286zM92 492q0 240 119 376t301 136t301 -136t119 -376t-119 -376t-301 -136t-301 136t-119 376z" />
    <glyph glyph-name="divide" unicode="&#xf7;" horiz-adv-x="788" 
d="M328 287v153h133v-153h-133zM82 604v123h625v-123h-625zM328 891v153h133v-153h-133z" />
    <glyph glyph-name="oslash" unicode="&#xf8;" horiz-adv-x="1024" 
d="M225 492q-1 -78 15 -145t30 -93l17 -29l379 604q-61 51 -168 51t-190 -102t-83 -286zM799 492q1 78 -15 144t-30 93l-17 29l-379 -604q61 -52 168 -52t190 103t83 287zM92 492q0 240 119 376t301 136q68 0 124 -18t79 -36l22 -18l31 51h113l-72 -113q76 -76 110 -237
q13 -68 13 -141q0 -240 -119 -376t-301 -136q-68 0 -124 17t-79 36l-22 18l-31 -51h-113l72 113q-76 76 -110 237q-13 68 -13 142z" />
    <glyph glyph-name="ugrave" unicode="&#xf9;" horiz-adv-x="972" 
d="M420 1454l133 -246h-102l-175 246h144zM276 983v-666q0 -215 195 -215q68 0 124 33t79 66l22 35v747h133v-983h-133v82h-10q-23 -35 -97 -69t-149 -33q-131 0 -214 85t-83 222v696h133z" />
    <glyph glyph-name="uacute" unicode="&#xfa;" horiz-adv-x="972" 
d="M420 1208l133 246h143l-174 -246h-102zM276 983v-666q0 -215 195 -215q68 0 124 33t79 66l22 35v747h133v-983h-133v82h-10q-23 -35 -97 -69t-149 -33q-131 0 -214 85t-83 222v696h133z" />
    <glyph glyph-name="ucircumflex" unicode="&#xfb;" horiz-adv-x="972" 
d="M553 1454l184 -246h-143l-102 174h-11l-102 -174h-143l184 246h133zM276 983v-666q0 -215 195 -215q68 0 124 33t79 66l22 35v747h133v-983h-133v82h-10q-23 -35 -97 -69t-149 -33q-131 0 -214 85t-83 222v696h133z" />
    <glyph glyph-name="udieresis" unicode="&#xfc;" horiz-adv-x="972" 
d="M563 1262v141h133v-141h-133zM276 1262v141h134v-141h-134zM276 983v-666q0 -215 195 -215q68 0 124 33t79 66l22 35v747h133v-983h-133v82h-10q-23 -35 -97 -69t-149 -33q-131 0 -214 85t-83 222v696h133z" />
    <glyph glyph-name="yacute" unicode="&#xfd;" horiz-adv-x="829" 
d="M348 1208l133 246h144l-174 -246h-103zM256 -266h-72v123h41q90 0 113 82l20 71l-317 973h143l236 -747h10l215 747h143l-317 -1055q-31 -102 -81 -148t-134 -46z" />
    <glyph glyph-name="thorn" unicode="&#xfe;" horiz-adv-x="1003" 
d="M778 492q0 182 -80 286t-201 103q-120 0 -202 -119l-8 -14v-512q4 -11 29 -41q77 -90 189 -92q113 -1 193 103t80 286zM287 82v-348h-133v1700h133v-533h10q30 36 101 70q71 33 134 33q156 0 268 -138t112 -374t-112 -374t-268 -138q-63 0 -122 26t-86 51l-27 25h-10z
" />
    <glyph glyph-name="ydieresis" unicode="&#xff;" horiz-adv-x="829" 
d="M492 1262v141h133v-141h-133zM205 1262v141h133v-141h-133zM256 -266h-72v123h41q90 0 113 82l20 71l-317 973h143l236 -747h10l215 747h143l-317 -1055q-31 -102 -81 -148t-134 -46z" />
    <glyph glyph-name="Amacron" unicode="&#x100;" horiz-adv-x="1228" 
d="M379 1679v103h471v-103h-471zM604 1198l-246 -727h512l-245 727h-21zM686 1434l481 -1434h-143l-113 338h-594l-112 -338h-144l482 1434h143z" />
    <glyph glyph-name="amacron" unicode="&#x101;" 
d="M266 1280v102h482v-102h-482zM225 492q0 -182 81 -286t201 -104t202 119l8 15v512q-3 10 -29 40q-78 91 -189 92q-112 2 -193 -102t-81 -286zM92 492q0 236 112 374t267 138q63 0 123 -26t86 -52l27 -25h10v82h133v-758q0 -84 14 -192l6 -33h-133l-10 92h-10
q-9 -12 -29 -30t-85 -51q-65 -32 -132 -31q-155 0 -267 138t-112 374z" />
    <glyph glyph-name="Abreve" unicode="&#x102;" horiz-adv-x="1228" 
d="M614 1618q-106 0 -172 66t-73 180h102q16 -154 143 -154t144 154h102q-8 -114 -74 -180t-172 -66zM604 1198l-246 -727h512l-245 727h-21zM686 1434l481 -1434h-143l-113 338h-594l-112 -338h-144l482 1434h143z" />
    <glyph glyph-name="abreve" unicode="&#x103;" 
d="M502 1208q-110 0 -174 66t-72 180h102q14 -154 144 -154t143 154h103q-8 -114 -72 -180t-174 -66zM225 492q0 -182 81 -286t201 -104t202 119l8 15v512q-3 10 -29 40q-78 91 -189 92q-112 2 -193 -102t-81 -286zM92 492q0 236 112 374t267 138q63 0 123 -26t86 -52
l27 -25h10v82h133v-758q0 -84 14 -192l6 -33h-133l-10 92h-10q-9 -12 -29 -30t-85 -51q-65 -32 -132 -31q-155 0 -267 138t-112 374z" />
    <glyph glyph-name="Aogonek" unicode="&#x104;" horiz-adv-x="1228" 
d="M604 1198l-246 -727h512l-245 727h-21zM1075 -348q66 0 123 41l31 -62q-61 -61 -161 -61t-155 48q-53 48 -53 118t51 136q51 65 103 95l51 33h-41l-113 338h-594l-112 -338h-144l482 1434h143l481 -1434q-23 -14 -55 -38t-85 -92q-54 -68 -54 -126q0 -92 102 -92z" />
    <glyph glyph-name="aogonek" unicode="&#x105;" 
d="M225 492q0 -182 81 -286t201 -104t202 119l8 15v512q-3 10 -29 40q-78 91 -189 92q-112 2 -193 -102t-81 -286zM778 -348q66 0 123 41l31 -62q-62 -61 -162 -61t-154 48q-53 48 -53 118t51 136q51 65 103 95l51 33h-31l-10 92h-10q-9 -12 -29 -30t-85 -51
q-65 -32 -132 -31q-155 0 -267 138t-112 374t112 374t267 138q63 0 123 -26t86 -52l27 -25h10v82h133v-758q0 -84 14 -192l6 -33q-22 -14 -54 -38t-86 -92t-54 -126q0 -92 102 -92z" />
    <glyph glyph-name="Cacute" unicode="&#x106;" horiz-adv-x="1259" 
d="M655 1618l133 246h144l-174 -246h-103zM123 717q0 333 173 535t421 202q167 0 280 -75q114 -75 154 -126l16 -24l-102 -82q-75 112 -216 156q-58 18 -122 18q-195 0 -328 -162q-133 -163 -133 -443t133 -442t328 -161q72 0 150 29t161 116q31 33 43 57l15 23l102 -92
q-100 -167 -305 -238q-84 -29 -176 -28q-248 0 -421 202t-173 535z" />
    <glyph glyph-name="cacute" unicode="&#x107;" horiz-adv-x="911" 
d="M440 1208l133 246h144l-174 -246h-103zM92 492q0 240 119 376t301 136q100 0 182 -44t113 -88l33 -43l-103 -81q-8 14 -24 36q-17 22 -75 60q-58 37 -126 37q-121 -1 -204 -103t-83 -286t83 -286t191 -104q108 0 166 53q57 53 74 87l9 14l112 -72q-36 -73 -128 -139
q-91 -67 -220 -65q-182 0 -301 136t-119 376z" />
    <glyph glyph-name="Ccircumflex" unicode="&#x108;" horiz-adv-x="1259" 
d="M799 1864l184 -246h-143l-113 174l-113 -174h-143l184 246h144zM123 717q0 333 173 535t421 202q167 0 280 -75q114 -75 154 -126l16 -24l-102 -82q-75 112 -216 156q-58 18 -122 18q-195 0 -328 -162q-133 -163 -133 -443t133 -442t328 -161q72 0 150 29t161 116
q31 33 43 57l15 23l102 -92q-100 -167 -305 -238q-84 -29 -176 -28q-248 0 -421 202t-173 535z" />
    <glyph glyph-name="ccircumflex" unicode="&#x109;" horiz-adv-x="911" 
d="M573 1454l185 -246h-144l-102 174h-10l-103 -174h-143l184 246h133zM92 492q0 240 119 376t301 136q100 0 182 -44t113 -88l33 -43l-103 -81q-8 14 -24 36q-17 22 -75 60q-58 37 -126 37q-121 -1 -204 -103t-83 -286t83 -286t191 -104q108 0 166 53q57 53 74 87l9 14
l112 -72q-36 -73 -128 -139q-91 -67 -220 -65q-182 0 -301 136t-119 376z" />
    <glyph glyph-name="Ccaron" unicode="&#x10c;" horiz-adv-x="1259" 
d="M655 1618l-184 246h143l113 -174l113 174h143l-184 -246h-144zM123 717q0 333 173 535t421 202q167 0 280 -75q114 -75 154 -126l16 -24l-102 -82q-75 112 -216 156q-58 18 -122 18q-195 0 -328 -162q-133 -163 -133 -443t133 -442t328 -161q72 0 150 29t161 116
q31 33 43 57l15 23l102 -92q-100 -167 -305 -238q-84 -29 -176 -28q-248 0 -421 202t-173 535z" />
    <glyph glyph-name="ccaron" unicode="&#x10d;" horiz-adv-x="911" 
d="M440 1208l-184 246h143l103 -174h10l102 174h144l-185 -246h-133zM92 492q0 240 119 376t301 136q100 0 182 -44t113 -88l33 -43l-103 -81q-8 14 -24 36q-17 22 -75 60q-58 37 -126 37q-121 -1 -204 -103t-83 -286t83 -286t191 -104q108 0 166 53q57 53 74 87l9 14
l112 -72q-36 -73 -128 -139q-91 -67 -220 -65q-182 0 -301 136t-119 376z" />
    <glyph glyph-name="Dcaron" unicode="&#x10e;" horiz-adv-x="1300" 
d="M502 1618l-185 246h144l112 -174l113 174h143l-184 -246h-143zM584 133q194 0 322 155q128 154 128 432t-135 440t-336 161q-125 0 -198 -31l-27 -10v-1147h246zM195 0v1393q153 61 395 61t415 -202t173 -532t-170 -526q-170 -194 -424 -194h-389z" />
    <glyph glyph-name="dcaron" unicode="&#x10f;" horiz-adv-x="1075" 
d="M1055 1290h-72v144h154v-103q0 -63 -31 -107t-62 -57l-30 -10l-21 51q24 8 43 31q19 24 19 51zM225 492q0 -182 81 -286t201 -104t202 119l8 15v512q-3 10 -29 40q-78 91 -189 92q-112 2 -193 -102t-81 -286zM717 901v533h133v-1434h-133v82h-10q-30 -36 -101 -70
q-71 -33 -135 -32q-155 0 -267 138t-112 374t112 374t267 138q63 0 123 -26t86 -52l27 -25h10z" />
    <glyph glyph-name="Dcroat" unicode="&#x110;" horiz-adv-x="1310" 
d="M594 133q194 0 322 155q128 154 128 432t-135 440t-336 161q-122 0 -198 -31l-27 -10v-297h307v-133h-307v-717h246zM72 850v133h133v410q153 61 395 61t415 -202t173 -532t-170 -526q-170 -194 -424 -194h-389v850h-133z" />
    <glyph glyph-name="dcroat" unicode="&#x111;" horiz-adv-x="1013" 
d="M225 451q0 -173 75 -261t201 -88t208 119l8 15v430q-3 10 -29 40q-78 91 -195 92q-118 1 -193 -87t-75 -260zM973 1208v-123h-123v-1085h-133v82h-10q-30 -36 -101 -70q-71 -33 -135 -32q-168 0 -273 124q-106 124 -106 346q0 224 106 348t273 124q63 0 123 -26t86 -52
l27 -25h10v266h-236v123h236v226h133v-226h123z" />
    <glyph glyph-name="Emacron" unicode="&#x112;" horiz-adv-x="1095" 
d="M358 1679v103h471v-103h-471zM195 0v1434h788v-134h-645v-317h543v-133h-543v-717h686v-133h-829z" />
    <glyph glyph-name="emacron" unicode="&#x113;" horiz-adv-x="983" 
d="M252 1280v102h481v-102h-481zM492 881q-100 0 -176 -79t-91 -208h533q-14 129 -90 208t-176 79zM891 471h-666q0 -170 83 -269q83 -100 191 -100t166 53q57 53 74 87l9 14l112 -72q-36 -73 -128 -139q-91 -67 -220 -65q-182 0 -301 136t-119 375t116 375t284 138
q168 0 284 -138t115 -374v-21z" />
    <glyph glyph-name="Edotaccent" unicode="&#x116;" horiz-adv-x="1095" 
d="M522 1669v133h144v-133h-144zM195 0v1434h788v-134h-645v-317h543v-133h-543v-717h686v-133h-829z" />
    <glyph glyph-name="edotaccent" unicode="&#x117;" horiz-adv-x="983" 
d="M426 1311v143h133v-143h-133zM492 881q-100 0 -176 -79t-91 -208h533q-14 129 -90 208t-176 79zM891 471h-666q0 -170 83 -269q83 -100 191 -100t166 53q57 53 74 87l9 14l112 -72q-36 -73 -128 -139q-91 -67 -220 -65q-182 0 -301 136t-119 375t116 375t284 138
q168 0 284 -138t115 -374v-21z" />
    <glyph glyph-name="Eogonek" unicode="&#x118;" horiz-adv-x="1095" 
d="M932 -348q61 0 123 41l30 -62q-61 -61 -161 -61t-154 48q-53 48 -53 118t51 136q51 65 102 95l52 33h-727v1434h788v-134h-645v-317h543v-133h-543v-717h686v-133q-22 -14 -54 -38t-86 -92t-55 -126q0 -92 103 -92z" />
    <glyph glyph-name="eogonek" unicode="&#x119;" horiz-adv-x="983" 
d="M492 881q-100 0 -176 -79t-91 -208h533q-14 129 -90 208t-176 79zM553 -348q66 0 123 41l31 -62q-61 -61 -161 -61t-155 48q-53 48 -53 116t44 128q44 58 87 89l43 29q-182 0 -301 136t-119 375t116 375t284 138q168 0 284 -138t115 -374v-21h-666q0 -170 83 -269
q83 -100 191 -100t166 53q57 53 74 87l9 14l112 -72q-8 -14 -23 -38t-71 -74t-121 -72q-23 -14 -55 -38t-85 -92q-54 -68 -54 -126q0 -92 102 -92z" />
    <glyph glyph-name="Ecaron" unicode="&#x11a;" horiz-adv-x="1095" 
d="M522 1618l-184 246h143l113 -174l113 174h143l-184 -246h-144zM195 0v1434h788v-134h-645v-317h543v-133h-543v-717h686v-133h-829z" />
    <glyph glyph-name="ecaron" unicode="&#x11b;" horiz-adv-x="983" 
d="M426 1208l-184 246h143l102 -174h11l102 174h143l-184 -246h-133zM492 881q-100 0 -176 -79t-91 -208h533q-14 129 -90 208t-176 79zM891 471h-666q0 -170 83 -269q83 -100 191 -100t166 53q57 53 74 87l9 14l112 -72q-36 -73 -128 -139q-91 -67 -220 -65
q-182 0 -301 136t-119 375t116 375t284 138q168 0 284 -138t115 -374v-21z" />
    <glyph glyph-name="Gbreve" unicode="&#x11e;" horiz-adv-x="1361" 
d="M717 1618q-106 0 -172 66t-74 180h102q15 -154 143 -154t144 154h103q-8 -114 -74 -180t-172 -66zM1178 737v-737h-134v123h-14q-12 -17 -46 -45q-117 -98 -288 -98q-233 0 -403 202t-170 536q0 332 173 534t421 202q167 0 280 -75q114 -75 154 -126l16 -24l-102 -82
q-75 112 -216 156q-58 18 -122 18q-195 0 -328 -162q-133 -161 -133 -441t132 -443t319 -162q90 0 170 41t112 82l35 40v328h-350v133h494z" />
    <glyph glyph-name="gbreve" unicode="&#x11f;" 
d="M492 1208q-106 0 -173 66q-66 66 -73 180h102q16 -154 144 -154t143 154h102q-7 -114 -73 -180t-172 -66zM225 512q0 -170 82 -269t201 -99t201 118l8 14v472q-3 10 -29 40q-80 93 -190 93q-109 1 -191 -99t-82 -270zM717 102v21h-10q-30 -36 -101 -70q-71 -33 -135 -33
q-155 0 -267 136t-112 356q0 221 113 356t266 136q63 0 123 -26t86 -52l27 -25h10v82h133v-922q0 -147 -102 -247t-256 -101q-82 1 -157 21t-108 41l-32 20l51 113q82 -72 208 -72t194 72t69 194z" />
    <glyph glyph-name="Gcommaaccent" unicode="&#x122;" horiz-adv-x="1361" 
d="M696 -287h-71v144h153v-103q0 -63 -30 -107t-62 -57l-31 -10l-20 51q21 7 41 31t20 51zM1178 737v-737h-134v123h-14q-12 -17 -46 -45q-117 -98 -288 -98q-233 0 -403 202t-170 536q0 332 173 534t421 202q167 0 280 -75q114 -75 154 -126l16 -24l-102 -82
q-75 112 -216 156q-58 18 -122 18q-195 0 -328 -162q-133 -161 -133 -441t132 -443t319 -162q90 0 170 41t112 82l35 40v328h-350v133h494z" />
    <glyph glyph-name="gcommaaccent" unicode="&#x123;" 
d="M225 512q0 -170 82 -269t201 -99t201 118l8 14v472q-3 10 -29 40q-80 93 -190 93q-109 1 -191 -99t-82 -270zM717 102v21h-10q-30 -36 -101 -70q-71 -33 -135 -33q-155 0 -267 136t-112 356q0 221 113 356t266 136q63 0 123 -26t86 -52l27 -25h10v82h133v-922
q0 -147 -102 -247t-256 -101q-82 1 -157 21t-108 41l-32 20l51 113q82 -72 208 -72t194 72t69 194zM502 1362h71v-143h-153v102q0 63 31 107t61 55l31 12l20 -51q-22 -7 -42 -31q-19 -24 -19 -51z" />
    <glyph glyph-name="Imacron" unicode="&#x12a;" horiz-adv-x="532" 
d="M31 1679v103h471v-103h-471zM338 1434v-1434h-143v1434h143z" />
    <glyph glyph-name="imacron" unicode="&#x12b;" horiz-adv-x="419" 
d="M-31 1280v102h482v-102h-482zM143 0v983h133v-983h-133z" />
    <glyph glyph-name="Iogonek" unicode="&#x12e;" horiz-adv-x="532" 
d="M246 -348q62 0 123 41l30 -62q-61 -61 -161 -61t-154 48q-53 48 -53 118t51 136q51 65 102 95l52 33h-41v1434h143v-1434q-22 -14 -54 -38t-86 -92t-55 -126q0 -92 103 -92z" />
    <glyph glyph-name="iogonek" unicode="&#x12f;" horiz-adv-x="419" 
d="M143 1311v143h133v-143h-133zM184 -348q66 0 123 41l31 -62q-62 -61 -162 -61t-153 48t-53 118t50 136q51 65 103 95l51 33h-31v983h133v-983q-22 -14 -54 -38t-86 -92t-54 -126q0 -92 102 -92z" />
    <glyph glyph-name="Idotaccent" unicode="&#x130;" horiz-adv-x="532" 
d="M195 1669v133h143v-133h-143zM338 1434v-1434h-143v1434h143z" />
    <glyph glyph-name="dotlessi" unicode="&#x131;" horiz-adv-x="419" 
d="M143 0v983h133v-983h-133z" />
    <glyph glyph-name="Kcommaaccent" unicode="&#x136;" horiz-adv-x="1198" 
d="M655 -287h-71v144h153v-103q-1 -63 -31 -107t-61 -57l-31 -10l-20 51q21 7 41 31t20 51zM338 0h-143v1434h143v-758l604 758h174l-481 -605l543 -829h-164l-471 717l-205 -246v-471z" />
    <glyph glyph-name="kcommaaccent" unicode="&#x137;" horiz-adv-x="911" 
d="M502 -287h-72v144h154v-103q0 -63 -31 -107t-61 -57l-31 -10l-21 51q23 8 42 31q20 24 20 51zM287 0h-133v1434h133v-932h10l399 481h154l-328 -389l369 -594h-154l-297 492l-153 -185v-307z" />
    <glyph glyph-name="Lacute" unicode="&#x139;" 
d="M215 1618l133 246h144l-175 -246h-102zM195 0v1434h143v-1301h614v-133h-757z" />
    <glyph glyph-name="lacute" unicode="&#x13a;" horiz-adv-x="471" 
d="M174 1618l133 246h144l-175 -246h-102zM287 1434v-1229q0 -82 82 -82h20l-20 -123h-21q-86 0 -140 56t-54 149v1229h133z" />
    <glyph glyph-name="Lcommaaccent" unicode="&#x13b;" 
d="M573 -287h-71v144h153v-103q-1 -63 -31 -107t-61 -57l-31 -10l-20 51q21 7 41 31t20 51zM195 0v1434h143v-1301h614v-133h-757z" />
    <glyph glyph-name="lcommaaccent" unicode="&#x13c;" horiz-adv-x="471" 
d="M256 -287h-72v144h154v-103q0 -63 -31 -107t-61 -57l-31 -10l-20 51q21 7 41 31t20 51zM287 1434v-1229q0 -82 82 -82h20l-20 -123h-21q-86 0 -140 56t-54 149v1229h133z" />
    <glyph glyph-name="Lcaron" unicode="&#x13d;" 
d="M573 1290h-71v144h153v-103q-1 -63 -31 -107t-61 -57l-31 -10l-20 51q22 7 42 31q19 24 19 51zM195 0v1434h143v-1301h614v-133h-757z" />
    <glyph glyph-name="lcaron" unicode="&#x13e;" horiz-adv-x="512" 
d="M492 1290h-72v144h153v-103q-1 -63 -31 -107t-61 -57l-30 -10l-21 51q22 7 42 31t20 51zM287 1434v-1229q0 -82 82 -82h20l-20 -123h-21q-86 0 -140 56t-54 149v1229h133z" />
    <glyph glyph-name="Lslash" unicode="&#x141;" horiz-adv-x="1013" 
d="M215 0v553l-154 -92v133l154 92v748h143v-656l338 205v-133l-338 -205v-512h615v-133h-758z" />
    <glyph glyph-name="lslash" unicode="&#x142;" horiz-adv-x="501" 
d="M297 1434v-553l164 112v-123l-164 -112v-553q0 -82 82 -82h20l-20 -123h-21q-86 0 -140 56t-54 149v471l-123 -82v123l123 82v635h133z" />
    <glyph glyph-name="Nacute" unicode="&#x143;" horiz-adv-x="1402" 
d="M635 1618l133 246h143l-174 -246h-102zM338 1147v-1147h-143v1434h133l727 -1147h10v1147h143v-1434h-133l-727 1147h-10z" />
    <glyph glyph-name="nacute" unicode="&#x144;" horiz-adv-x="972" 
d="M399 1208l133 246h144l-174 -246h-103zM696 0v666q0 215 -194 215q-68 0 -124 -33t-79 -66l-23 -34v-748h-133v983h133v-82h11q24 36 97 69q74 34 148 34q131 0 214 -85t83 -223v-696h-133z" />
    <glyph glyph-name="Ncommaaccent" unicode="&#x145;" horiz-adv-x="1402" 
d="M707 -287h-72v144h153v-103q0 -63 -30 -107t-62 -57l-30 -10l-21 51q23 8 42 31q20 24 20 51zM338 1147v-1147h-143v1434h133l727 -1147h10v1147h143v-1434h-133l-727 1147h-10z" />
    <glyph glyph-name="ncommaaccent" unicode="&#x146;" horiz-adv-x="972" 
d="M481 -287h-71v144h153v-103q0 -63 -31 -107t-61 -57l-31 -10l-20 51q21 7 41 31t20 51zM696 0v666q0 215 -194 215q-68 0 -124 -33t-79 -66l-23 -34v-748h-133v983h133v-82h11q24 36 97 69q74 34 148 34q131 0 214 -85t83 -223v-696h-133z" />
    <glyph glyph-name="Ncaron" unicode="&#x147;" horiz-adv-x="1402" 
d="M629 1618l-185 246h144l112 -174l113 174h143l-184 -246h-143zM338 1147v-1147h-143v1434h133l727 -1147h10v1147h143v-1434h-133l-727 1147h-10z" />
    <glyph glyph-name="ncaron" unicode="&#x148;" horiz-adv-x="972" 
d="M420 1208l-184 246h143l102 -174h11l102 174h143l-184 -246h-133zM696 0v666q0 215 -194 215q-68 0 -124 -33t-79 -66l-23 -34v-748h-133v983h133v-82h11q24 36 97 69q74 34 148 34q131 0 214 -85t83 -223v-696h-133z" />
    <glyph glyph-name="Omacron" unicode="&#x14c;" horiz-adv-x="1433" 
d="M481 1679v103h471v-103h-471zM266 717q0 -279 132 -442t318 -163t319 164q132 162 132 441t-132 441t-318 163q-187 -1 -319 -163t-132 -441zM123 717q0 333 173 535t421 202t421 -202t173 -536t-173 -535t-421 -201t-421 202t-173 535z" />
    <glyph glyph-name="omacron" unicode="&#x14d;" horiz-adv-x="1024" 
d="M272 1280v102h482v-102h-482zM225 492q0 -184 83 -286t204 -104q121 0 204 102t83 288q0 184 -83 286t-204 102t-204 -102t-83 -286zM92 492q0 240 119 376t301 136t301 -136t119 -376t-119 -376t-301 -136t-301 136t-119 376z" />
    <glyph glyph-name="Ohungarumlaut" unicode="&#x150;" horiz-adv-x="1433" 
d="M799 1618l133 246h143l-174 -246h-102zM532 1618l134 246h143l-174 -246h-103zM266 717q0 -279 132 -442t318 -163t319 164q132 162 132 441t-132 441t-318 163q-187 -1 -319 -163t-132 -441zM123 717q0 333 173 535t421 202t421 -202t173 -536t-173 -535t-421 -201
t-421 202t-173 535z" />
    <glyph glyph-name="ohungarumlaut" unicode="&#x151;" horiz-adv-x="1024" 
d="M584 1208l133 246h143l-174 -246h-102zM328 1208l133 246h143l-174 -246h-102zM225 492q0 -184 83 -286t204 -104q121 0 204 102t83 288q0 184 -83 286t-204 102t-204 -102t-83 -286zM92 492q0 240 119 376t301 136t301 -136t119 -376t-119 -376t-301 -136t-301 136
t-119 376z" />
    <glyph glyph-name="OE" unicode="&#x152;" horiz-adv-x="1669" 
d="M819 1300h-102q-193 0 -322 -154t-129 -429q0 -274 129 -429t322 -155h102v1167zM717 0q-254 0 -424 195t-170 523t170 522t424 194h839v-134h-593v-317h491v-133h-491v-717h634v-133h-880z" />
    <glyph glyph-name="oe" unicode="&#x153;" horiz-adv-x="1587" 
d="M1116 881q-92 0 -155 -78t-80 -209h471q-16 131 -80 209t-156 78zM225 498q0 -182 76 -288t180 -108q105 0 181 106t76 290q0 182 -74 282t-183 100t-183 -100t-73 -282zM92 498q0 238 110 372t279 134q70 0 141 -32t135 -127q24 -36 34 -63l8 -24h10q4 22 35 75
q31 52 62 85q32 34 88 60t122 26q162 0 270 -134t109 -378v-21h-625q0 -168 80 -268q80 -101 178 -101t150 53t65 87l9 14l112 -72l-11 -22q-7 -14 -36 -49q-63 -76 -138 -105q-146 -56 -270 -3q-92 41 -155 133q-25 36 -35 63l-10 24h-10q-62 -156 -195 -219
q-57 -27 -123 -26q-165 0 -277 140t-112 378z" />
    <glyph glyph-name="Racute" unicode="&#x154;" horiz-adv-x="1341" 
d="M573 1618l134 246h143l-174 -246h-103zM666 604q180 0 294 104t115 256q0 151 -118 254t-308 103t-280 -31l-31 -10v-676h328zM338 471v-471h-143v1393q164 61 434 61t430 -143t160 -348q0 -95 -34 -177t-82 -130q-99 -99 -177 -132l-35 -12v-10l328 -502h-164l-307 471
h-410z" />
    <glyph glyph-name="racute" unicode="&#x155;" horiz-adv-x="634" 
d="M328 1208l133 246h143l-174 -246h-102zM451 870q-49 0 -93 -30t-63 -62l-19 -30v-748h-133v983h133v-82h11q23 35 86 69t113 34t86 -20t51 -42l12 -20l-72 -103q-31 51 -112 51z" />
    <glyph glyph-name="Rcommaaccent" unicode="&#x156;" horiz-adv-x="1341" 
d="M676 -287h-72v144h154v-103q0 -63 -31 -107t-61 -57l-31 -10l-21 51q23 8 42 31q20 24 20 51zM666 604q180 0 294 104t115 256q0 151 -118 254t-308 103t-280 -31l-31 -10v-676h328zM338 471v-471h-143v1393q164 61 434 61t430 -143t160 -348q0 -95 -34 -177t-82 -130
q-99 -99 -177 -132l-35 -12v-10l328 -502h-164l-307 471h-410z" />
    <glyph glyph-name="rcommaaccent" unicode="&#x157;" horiz-adv-x="634" 
d="M205 -287h-72v144h154v-103q0 -63 -31 -107t-61 -57l-31 -10l-21 51q23 8 42 31q20 24 20 51zM451 870q-49 0 -93 -30t-63 -62l-19 -30v-748h-133v983h133v-82h11q23 35 86 69t113 34t86 -20t51 -42l12 -20l-72 -103q-31 51 -112 51z" />
    <glyph glyph-name="Rcaron" unicode="&#x158;" horiz-adv-x="1341" 
d="M584 1618l-185 246h144l112 -174l113 174h143l-184 -246h-143zM666 604q180 0 294 104t115 256q0 151 -118 254t-308 103t-280 -31l-31 -10v-676h328zM338 471v-471h-143v1393q164 61 434 61t430 -143t160 -348q0 -95 -34 -177t-82 -130q-99 -99 -177 -132l-35 -12v-10
l328 -502h-164l-307 471h-410z" />
    <glyph glyph-name="rcaron" unicode="&#x159;" horiz-adv-x="634" 
d="M317 1208l-184 246h143l103 -174h10l103 174h143l-184 -246h-134zM451 870q-49 0 -93 -30t-63 -62l-19 -30v-748h-133v983h133v-82h11q23 35 86 69t113 34t86 -20t51 -42l12 -20l-72 -103q-31 51 -112 51z" />
    <glyph glyph-name="Sacute" unicode="&#x15a;" horiz-adv-x="1157" 
d="M502 1618l133 246h143l-174 -246h-102zM297 1085q0 -128 148 -195q67 -30 208 -76t226 -101q167 -111 165 -314q0 -180 -130 -300t-341 -119q-94 0 -180 28t-166 85q-80 58 -129 124l-16 29l102 92q15 -30 54 -74q38 -43 80 -73q42 -31 114 -55t152 -23q143 0 230 81
t87 195t-77 180q-76 66 -186 102t-220 77q-110 40 -188 124q-76 84 -76 228t115 249q116 105 304 105q78 0 165 -28t193 -117q38 -33 56 -56l17 -24l-103 -82q-75 112 -216 156q-58 18 -122 18q-121 0 -193 -67t-73 -169z" />
    <glyph glyph-name="sacute" unicode="&#x15b;" horiz-adv-x="819" 
d="M338 1208l133 246h143l-174 -246h-102zM604 270q0 62 -37 102t-93 58q-136 44 -242 91q-56 26 -93 81t-37 135q0 117 79 192t193 75t197 -44q82 -44 113 -88l33 -43l-103 -81q-8 14 -24 36t-74 60q-58 37 -127 37t-111 -39t-42 -97q0 -103 176 -155q74 -22 148 -50
t126 -91q51 -63 51 -178t-92 -203t-229 -88t-236 72q-77 60 -106 112l-13 20l113 72q5 -15 31 -47q27 -33 51 -53q66 -54 172 -54q64 0 120 52t56 116z" />
    <glyph glyph-name="Scedilla" unicode="&#x15e;" horiz-adv-x="1157" 
d="M297 1085q0 -128 148 -195q67 -30 208 -76t226 -101q167 -111 165 -314q0 -169 -120 -287t-310 -132v-82q76 0 125 -45t49 -113t-60 -119t-165 -51q-49 0 -95 15t-67 30l-22 16l31 62q62 -41 132 -41t102 26t32 61t-28 61t-64 26h-62v154q-84 6 -160 36t-151 88
q-75 59 -113 117l-16 25l102 92q15 -30 54 -74q38 -43 80 -73q42 -31 114 -55t152 -23q143 0 230 81t87 195t-77 180q-76 66 -186 102t-220 77q-110 40 -188 124q-76 84 -76 228t115 249q116 105 304 105q78 0 165 -28t193 -117q38 -33 56 -56l17 -24l-103 -82
q-75 112 -216 156q-58 18 -122 18q-121 0 -193 -67t-73 -169z" />
    <glyph glyph-name="scedilla" unicode="&#x15f;" horiz-adv-x="819" 
d="M604 270q0 62 -37 102t-93 58q-136 44 -242 91q-56 26 -93 81t-37 135q0 117 79 192t193 75t197 -44q82 -44 113 -88l33 -43l-103 -81q-8 14 -24 36t-74 60q-58 37 -127 37t-111 -39t-42 -97q0 -103 176 -155q74 -22 148 -50t126 -91q51 -63 51 -173t-80 -195t-196 -101
v-82q76 0 125 -45t49 -113q1 -68 -61 -119t-164 -51q-50 0 -96 15t-68 30l-21 16l31 62q62 -41 132 -41t102 26t32 61t-28 61t-64 26h-61v154q-123 12 -197 77q-74 64 -98 107l-13 20l113 72q5 -15 31 -47q27 -33 51 -53q66 -54 172 -54q64 0 120 52t56 116z" />
    <glyph glyph-name="Scaron" unicode="&#x160;" horiz-adv-x="1157" 
d="M502 1618l-185 246h144l112 -174l113 174h143l-184 -246h-143zM297 1085q0 -128 148 -195q67 -30 208 -76t226 -101q167 -111 165 -314q0 -180 -130 -300t-341 -119q-94 0 -180 28t-166 85q-80 58 -129 124l-16 29l102 92q15 -30 54 -74q38 -43 80 -73q42 -31 114 -55
t152 -23q143 0 230 81t87 195t-77 180q-76 66 -186 102t-220 77q-110 40 -188 124q-76 84 -76 228t115 249q116 105 304 105q78 0 165 -28t193 -117q38 -33 56 -56l17 -24l-103 -82q-75 112 -216 156q-58 18 -122 18q-121 0 -193 -67t-73 -169z" />
    <glyph glyph-name="scaron" unicode="&#x161;" horiz-adv-x="819" 
d="M328 1208l-185 246h144l102 -174h10l103 174h143l-184 -246h-133zM604 270q0 62 -37 102t-93 58q-136 44 -242 91q-56 26 -93 81t-37 135q0 117 79 192t193 75t197 -44q82 -44 113 -88l33 -43l-103 -81q-8 14 -24 36t-74 60q-58 37 -127 37t-111 -39t-42 -97
q0 -103 176 -155q74 -22 148 -50t126 -91q51 -63 51 -178t-92 -203t-229 -88t-236 72q-77 60 -106 112l-13 20l113 72q5 -15 31 -47q27 -33 51 -53q66 -54 172 -54q64 0 120 52t56 116z" />
    <glyph glyph-name="Tcommaaccent" unicode="&#x162;" horiz-adv-x="983" 
d="M487 -287h-71v144h153v-103q-1 -63 -31 -107t-61 -57l-31 -10l-20 51q21 7 41 31t20 51zM563 1300v-1300h-143v1300h-359v134h861v-134h-359z" />
    <glyph glyph-name="tcommaaccent" unicode="&#x163;" horiz-adv-x="563" 
d="M317 -287h-71v144h153v-103q-1 -63 -31 -107t-61 -57l-31 -10l-20 51q21 7 41 31t20 51zM51 860v123h123v236l133 71v-307h154v-123h-154v-655q0 -82 82 -82h82l-20 -123h-82q-86 0 -141 56q-54 56 -54 149v655h-123z" />
    <glyph glyph-name="Tcaron" unicode="&#x164;" horiz-adv-x="983" 
d="M420 1618l-184 246h143l113 -174l112 174h144l-185 -246h-143zM563 1300v-1300h-143v1300h-359v134h861v-134h-359z" />
    <glyph glyph-name="tcaron" unicode="&#x165;" horiz-adv-x="552" 
d="M532 1290h-71v144h153v-103q0 -63 -30 -107t-62 -57l-30 -10l-21 51q22 7 42 31q19 24 19 51zM51 860v123h123v236l133 71v-307h154v-123h-154v-655q0 -82 82 -82h82l-20 -123h-82q-86 0 -141 56q-54 56 -54 149v655h-123z" />
    <glyph glyph-name="Umacron" unicode="&#x16a;" horiz-adv-x="1392" 
d="M461 1679v103h471v-103h-471zM1055 461v973h143v-973q0 -209 -140 -345t-362 -136t-361 136q-140 136 -140 345v973h143v-973q0 -154 99 -251t259 -97t260 97t99 251z" />
    <glyph glyph-name="umacron" unicode="&#x16b;" horiz-adv-x="972" 
d="M246 1280v102h481v-102h-481zM276 983v-666q0 -215 195 -215q68 0 124 33t79 66l22 35v747h133v-983h-133v82h-10q-23 -35 -97 -69t-149 -33q-131 0 -214 85t-83 222v696h133z" />
    <glyph glyph-name="Uring" unicode="&#x16e;" horiz-adv-x="1392" 
d="M512 1731q0 84 53 139t131 55t131 -55t53 -139q0 -83 -52 -139q-54 -56 -132 -56t-131 56t-53 139zM604 1731q0 -45 27 -74t65 -29t66 29q27 29 26 74q0 45 -26 73t-66 29q-40 -1 -66 -29t-26 -73zM1055 461v973h143v-973q0 -209 -140 -345t-362 -136t-361 136
q-140 136 -140 345v973h143v-973q0 -154 99 -251t259 -97t260 97t99 251z" />
    <glyph glyph-name="uring" unicode="&#x16f;" horiz-adv-x="972" 
d="M301 1341q0 83 53 139t131 56t131 -55q54 -55 54 -139t-54 -140q-54 -55 -131 -55q-78 0 -131 55t-53 139zM393 1341q0 -45 27 -73q28 -28 66 -29q38 0 65 29q27 30 27 74t-27 73t-66 29t-65 -29t-27 -74zM276 983v-666q0 -215 195 -215q68 0 124 33t79 66l22 35v747h133
v-983h-133v82h-10q-23 -35 -97 -69t-149 -33q-131 0 -214 85t-83 222v696h133z" />
    <glyph glyph-name="Uhungarumlaut" unicode="&#x170;" horiz-adv-x="1392" 
d="M778 1618l133 246h144l-174 -246h-103zM512 1618l133 246h143l-174 -246h-102zM1055 461v973h143v-973q0 -209 -140 -345t-362 -136t-361 136q-140 136 -140 345v973h143v-973q0 -154 99 -251t259 -97t260 97t99 251z" />
    <glyph glyph-name="uhungarumlaut" unicode="&#x171;" horiz-adv-x="972" 
d="M557 1208l133 246h144l-175 -246h-102zM301 1208l133 246h144l-175 -246h-102zM276 983v-666q0 -215 195 -215q68 0 124 33t79 66l22 35v747h133v-983h-133v82h-10q-23 -35 -97 -69t-149 -33q-131 0 -214 85t-83 222v696h133z" />
    <glyph glyph-name="Uogonek" unicode="&#x172;" horiz-adv-x="1392" 
d="M737 -348q66 0 123 41l31 -62q-61 -61 -161 -61t-155 48q-53 48 -53 116t44 128q44 58 87 89l43 29q-221 0 -361 136t-140 345v973h143v-973q0 -154 99 -251t259 -97t259 97t100 251v973h143v-973q0 -186 -106 -309t-283 -162q-20 -14 -49 -38t-77 -88t-48 -120
q0 -92 102 -92z" />
    <glyph glyph-name="uogonek" unicode="&#x173;" horiz-adv-x="972" 
d="M737 -348q66 0 123 41l31 -62q-61 -61 -161 -61t-155 48q-53 48 -53 118t51 136q51 65 103 95l51 33h-31v82h-10q-23 -35 -97 -69t-149 -33q-131 0 -214 85t-83 222v696h133v-666q0 -215 195 -215q68 0 124 33t79 66l22 35v747h133v-983q-23 -14 -55 -38t-85 -92
q-54 -68 -54 -126q0 -92 102 -92z" />
    <glyph glyph-name="Ydieresis" unicode="&#x178;" horiz-adv-x="1105" 
d="M635 1669v133h133v-133h-133zM338 1669v133h133v-133h-133zM625 0h-144v717l-440 717h154l352 -584h12l352 584h154l-440 -717v-717z" />
    <glyph glyph-name="Zacute" unicode="&#x179;" horiz-adv-x="1075" 
d="M492 1618l133 246h143l-174 -246h-102zM72 0v133l768 1167h-707v134h871v-134l-768 -1167h768v-133h-932z" />
    <glyph glyph-name="zacute" unicode="&#x17a;" horiz-adv-x="757" 
d="M338 1208l133 246h143l-174 -246h-102zM102 860v123h594v-113l-471 -737v-10h471v-123h-635v113l471 737v10h-430z" />
    <glyph glyph-name="Zdotaccent" unicode="&#x17b;" horiz-adv-x="1075" 
d="M492 1669v133h143v-133h-143zM72 0v133l768 1167h-707v134h871v-134l-768 -1167h768v-133h-932z" />
    <glyph glyph-name="zdotaccent" unicode="&#x17c;" horiz-adv-x="757" 
d="M328 1311v143h133v-143h-133zM102 860v123h594v-113l-471 -737v-10h471v-123h-635v113l471 737v10h-430z" />
    <glyph glyph-name="Zcaron" unicode="&#x17d;" horiz-adv-x="1075" 
d="M481 1618l-184 246h143l113 -174l113 174h143l-184 -246h-144zM72 0v133l768 1167h-707v134h871v-134l-768 -1167h768v-133h-932z" />
    <glyph glyph-name="zcaron" unicode="&#x17e;" horiz-adv-x="757" 
d="M328 1208l-185 246h144l102 -174h10l103 174h143l-184 -246h-133zM102 860v123h594v-113l-471 -737v-10h471v-123h-635v113l471 737v10h-430z" />
    <glyph glyph-name="florin" unicode="&#x192;" horiz-adv-x="552" 
d="M205 -61v921h-123v123h123v184q0 184 174 185h102v-123h-61q-82 0 -82 -82v-164h143v-123h-143v-942q0 -184 -174 -184h-41l-21 123h21q82 0 82 82z" />
    <glyph glyph-name="Scommaaccent" unicode="&#x218;" horiz-adv-x="1157" 
d="M563 -287h-71v144h153v-103q0 -63 -31 -107t-61 -57l-31 -10l-20 51q21 7 41 31t20 51zM297 1085q0 -128 148 -195q67 -30 208 -76t226 -101q167 -111 165 -314q0 -180 -130 -300t-341 -119q-94 0 -180 28t-166 85q-80 58 -129 124l-16 29l102 92q15 -30 54 -74
q38 -43 80 -73q42 -31 114 -55t152 -23q143 0 230 81t87 195t-77 180q-76 66 -186 102t-220 77q-110 40 -188 124q-76 84 -76 228t115 249q116 105 304 105q78 0 165 -28t193 -117q38 -33 56 -56l17 -24l-103 -82q-75 112 -216 156q-58 18 -122 18q-121 0 -193 -67t-73 -169
z" />
    <glyph glyph-name="scommaaccent" unicode="&#x219;" horiz-adv-x="819" 
d="M406 -287h-72v144h153v-103q-1 -63 -31 -107t-61 -57l-30 -10l-21 51q21 7 41 31q21 24 21 51zM604 270q0 62 -37 102t-93 58q-136 44 -242 91q-56 26 -93 81t-37 135q0 117 79 192t193 75t197 -44q82 -44 113 -88l33 -43l-103 -81q-8 14 -24 36t-74 60q-58 37 -127 37
t-111 -39t-42 -97q0 -103 176 -155q74 -22 148 -50t126 -91q51 -63 51 -178t-92 -203t-229 -88t-236 72q-77 60 -106 112l-13 20l113 72q5 -15 31 -47q27 -33 51 -53q66 -54 172 -54q64 0 120 52t56 116z" />
    <glyph glyph-name="afii57929" unicode="&#x2bc;" horiz-adv-x="276" 
d="M133 1290h-72v144h154v-103q0 -63 -31 -107t-61 -57l-31 -10l-20 51q22 7 42 31q19 24 19 51z" />
    <glyph glyph-name="circumflex" unicode="&#x2c6;" horiz-adv-x="624" 
d="M379 1454l184 -246h-143l-103 174h-10l-102 -174h-144l185 246h133z" />
    <glyph glyph-name="caron" unicode="&#x2c7;" horiz-adv-x="624" 
d="M246 1208l-185 246h144l102 -174h10l103 174h143l-184 -246h-133z" />
    <glyph glyph-name="breve" unicode="&#x2d8;" horiz-adv-x="614" 
d="M307 1208q-106 0 -172 66t-74 180h103q16 -154 143 -154t144 154h102q-8 -114 -74 -180t-172 -66z" />
    <glyph glyph-name="dotaccent" unicode="&#x2d9;" horiz-adv-x="256" 
d="M61 1311v143h134v-143h-134z" />
    <glyph glyph-name="ring" unicode="&#x2da;" horiz-adv-x="491" 
d="M61 1341q-1 83 53 139t132 56t131 -55t53 -139t-53 -140q-53 -55 -131 -55t-132 55t-53 139zM154 1341q0 -45 26 -73t66 -29q40 0 66 29q26 30 26 74t-27 73t-65 29t-66 -29q-26 -29 -26 -74z" />
    <glyph glyph-name="ogonek" unicode="&#x2db;" horiz-adv-x="491" 
d="M276 -348q66 0 123 41l31 -62q-62 -61 -162 -61t-153 48t-53 118t50 136q52 65 103 95l51 33h103q-23 -14 -55 -38t-86 -92t-54 -126q0 -92 102 -92z" />
    <glyph glyph-name="tilde" unicode="&#x2dc;" horiz-adv-x="645" 
d="M225 1331q-49 0 -61 -102h-103q26 203 154 205q57 0 117 -52t88 -51q49 1 61 103h103q-26 -205 -154 -205q-56 0 -118 51t-87 51z" />
    <glyph glyph-name="hungarumlaut" unicode="&#x2dd;" horiz-adv-x="655" 
d="M317 1208l134 246h143l-174 -246h-103zM61 1208l134 246h143l-174 -246h-103z" />
    <glyph glyph-name="afii10023" unicode="&#x401;" horiz-adv-x="1095" 
d="M670 1669v133h133v-133h-133zM373 1669v133h133v-133h-133zM195 0v1434h788v-134h-645v-317h543v-133h-543v-717h686v-133h-829z" />
    <glyph glyph-name="afii10051" unicode="&#x402;" horiz-adv-x="1341" 
d="M461 0h-144v1305h-317v129h809v-129h-348v-445q92 41 266 41q242 0 377 -124q135 -125 135 -327t-132 -326t-359 -124v133q160 0 254 88q94 87 94 229t-98 230t-267 88q-168 0 -244 -29l-26 -10v-729z" />
    <glyph glyph-name="afii10052" unicode="&#x403;" horiz-adv-x="931" 
d="M492 1618l133 246h143l-174 -246h-102zM195 0v1434h737v-134h-594v-1300h-143z" />
    <glyph glyph-name="afii10053" unicode="&#x404;" horiz-adv-x="1259" 
d="M123 717q0 333 173 535t421 202q167 0 280 -75q114 -75 154 -126l16 -24l-102 -82q-75 112 -216 156q-58 18 -122 18q-170 0 -299 -133t-152 -338h574v-133h-584q0 -281 133 -443t328 -161q72 0 150 29t161 116q31 33 43 57l15 23l102 -92q-100 -167 -305 -238
q-84 -29 -176 -28q-248 0 -421 202t-173 535z" />
    <glyph glyph-name="afii10054" unicode="&#x405;" horiz-adv-x="1157" 
d="M297 1085q0 -128 148 -195q67 -30 208 -76t226 -101q167 -111 165 -314q0 -180 -130 -300t-341 -119q-94 0 -180 28t-166 85q-80 58 -129 124l-16 29l102 92q15 -30 54 -74q38 -43 80 -73q42 -31 114 -55t152 -23q143 0 230 81t87 195t-77 180q-76 66 -186 102t-220 77
q-110 40 -188 124q-76 84 -76 228t115 249q116 105 304 105q78 0 165 -28t193 -117q38 -33 56 -56l17 -24l-103 -82q-75 112 -216 156q-58 18 -122 18q-121 0 -193 -67t-73 -169z" />
    <glyph glyph-name="afii10055" unicode="&#x406;" horiz-adv-x="532" 
d="M338 1434v-1434h-143v1434h143z" />
    <glyph glyph-name="afii10056" unicode="&#x407;" horiz-adv-x="532" 
d="M348 1669v133h133v-133h-133zM51 1669v133h133v-133h-133zM338 1434v-1434h-143v1434h143z" />
    <glyph glyph-name="afii10057" unicode="&#x408;" horiz-adv-x="675" 
d="M72 0v133q122 0 194 72t72 194v1035h143v-1035q-1 -179 -113 -289t-296 -110z" />
    <glyph glyph-name="afii10058" unicode="&#x409;" horiz-adv-x="1955" 
d="M1024 133h297q182 1 291 103t108 266q0 164 -111 266q-112 102 -288 102t-266 -30l-31 -11v-696zM0 0v133q100 -1 164 63t72 173l81 1065h707v-471q113 41 276 41q264 0 414 -138t150 -363q0 -227 -146 -365t-397 -138h-440v1300h-430l-72 -931q-15 -177 -113 -273
t-266 -96z" />
    <glyph glyph-name="afii10059" unicode="&#x40a;" horiz-adv-x="2027" 
d="M1393 850h-277v-717h277q183 0 291 95q108 96 108 264t-108 263t-291 95zM338 1434v-451h635v451h143v-451h277q254 0 398 -131t144 -360q0 -228 -144 -360t-398 -132h-420v850h-635v-850h-143v1434h143z" />
    <glyph glyph-name="afii10060" unicode="&#x40b;" horiz-adv-x="1351" 
d="M1075 0v461q0 147 -87 227t-253 80t-248 -31l-26 -10v-727h-144v1305h-317v129h809v-129h-348v-445q92 41 266 41q227 0 359 -123t133 -317v-461h-144z" />
    <glyph glyph-name="afii10061" unicode="&#x40c;" horiz-adv-x="1167" 
d="M553 1618l133 246h143l-174 -246h-102zM338 758v-758h-143v1434h143v-543h225l348 543h164l-399 -605l471 -829h-164l-420 758h-225z" />
    <glyph glyph-name="afii10062" unicode="&#x40e;" horiz-adv-x="1075" 
d="M543 1577q-123 0 -196 72t-81 194h103q16 -174 174 -174t174 174h102q-9 -123 -81 -195t-195 -71zM266 0v133q102 0 152 36q49 36 74 118l-451 1147h143l369 -953h10l328 953h143l-368 -1076q-72 -210 -153 -284t-247 -74z" />
    <glyph glyph-name="afii10145" unicode="&#x40f;" horiz-adv-x="1372" 
d="M338 1434v-1301h696v1301h144v-1434h-420v-266h-144v266h-419v1434h143z" />
    <glyph glyph-name="afii10017" unicode="&#x410;" horiz-adv-x="1228" 
d="M604 1198l-246 -727h512l-245 727h-21zM686 1434l481 -1434h-143l-113 338h-594l-112 -338h-144l482 1434h143z" />
    <glyph glyph-name="afii10018" unicode="&#x411;" horiz-adv-x="1310" 
d="M338 133h348q174 0 277 96q102 96 102 253q1 157 -105 252t-300 95t-291 -30l-31 -11v-655zM195 0v1434h860v-134h-717v-378q112 41 348 41q236 1 379 -131t143 -350t-139 -350t-383 -132h-491z" />
    <glyph glyph-name="afii10019" unicode="&#x412;" horiz-adv-x="1280" 
d="M655 850q135 0 211 66t76 170q0 103 -80 169t-244 66t-249 -31l-31 -10v-430h317zM1034 424q0 123 -95 208t-253 85h-348v-584h348q156 0 252 84t96 207zM1178 430q0 -180 -138 -305t-354 -125h-491v1393q164 61 440 61q209 0 330 -104t120 -265q0 -100 -49 -174t-98 -98
l-47 -25v-10q41 -7 95 -34q54 -28 92 -62t69 -102q31 -66 31 -150z" />
    <glyph glyph-name="afii10020" unicode="&#x413;" horiz-adv-x="931" 
d="M195 0v1434h737v-134h-594v-1300h-143z" />
    <glyph glyph-name="afii10021" unicode="&#x414;" horiz-adv-x="1269" 
d="M266 133h625v1167h-451l-71 -931q-6 -87 -32 -143t-48 -70l-23 -13v-10zM1044 -266v266h-880v-266h-144v399h82q70 35 105 136q14 44 18 100l82 1065h727v-1301h154v-399h-144z" />
    <glyph glyph-name="afii10022" unicode="&#x415;" horiz-adv-x="1095" 
d="M195 0v1434h788v-134h-645v-317h543v-133h-543v-717h686v-133h-829z" />
    <glyph glyph-name="afii10024" unicode="&#x416;" horiz-adv-x="1679" 
d="M911 1434v-543h195l317 543h164l-358 -605l430 -829h-164l-387 758h-197v-758h-143v758h-197l-387 -758h-164l431 829l-359 605h164l317 -543h195v543h143z" />
    <glyph glyph-name="afii10025" unicode="&#x417;" horiz-adv-x="1105" 
d="M788 1085q0 100 -69 168q-70 68 -173 68q-104 0 -188 -44t-118 -87l-35 -43l-103 82q22 29 67 73q46 44 92 74t120 54q74 25 151 24q174 0 287 -106t113 -267t-119 -248q-20 -14 -65 -34v-11q28 -6 80 -40t86 -70t62 -106q28 -69 28 -152q0 -195 -130 -318t-342 -122
q-94 0 -179 28t-137 66q-111 84 -148 143l-17 29l103 92l12 -24q8 -15 40 -54q69 -84 182 -123q71 -25 155 -24q137 0 227 87t90 216t-90 215t-227 86h-164v133h164q105 0 175 68t70 167z" />
    <glyph glyph-name="afii10026" unicode="&#x418;" horiz-adv-x="1392" 
d="M1055 0v1147h-11l-716 -1147h-133v1434h143v-1147h10l717 1147h133v-1434h-143z" />
    <glyph glyph-name="afii10027" unicode="&#x419;" horiz-adv-x="1392" 
d="M1055 0v1147h-11l-716 -1147h-133v1434h143v-1147h10l717 1147h133v-1434h-143zM696 1577q-124 0 -196 72t-80 194h102q16 -174 174 -174t174 174h103q-8 -123 -81 -195t-196 -71z" />
    <glyph glyph-name="afii10028" unicode="&#x41a;" horiz-adv-x="1167" 
d="M338 758v-758h-143v1434h143v-543h225l348 543h164l-399 -605l471 -829h-164l-420 758h-225z" />
    <glyph glyph-name="afii10029" unicode="&#x41b;" horiz-adv-x="1269" 
d="M0 0v133q100 -1 164 63t72 173l81 1065h758v-1434h-143v1300h-481l-72 -931q-15 -177 -113 -273t-266 -96z" />
    <glyph glyph-name="afii10030" unicode="&#x41c;" horiz-adv-x="1525" 
d="M1331 1434v-1434h-143v1137h-10l-359 -707h-112l-359 707h-10v-1137h-143v1434h143l420 -820h10l420 820h143z" />
    <glyph glyph-name="afii10031" unicode="&#x41d;" horiz-adv-x="1372" 
d="M338 1434v-451h696v451h144v-1434h-144v850h-696v-850h-143v1434h143z" />
    <glyph glyph-name="afii10032" unicode="&#x41e;" horiz-adv-x="1433" 
d="M266 717q0 -279 132 -442t318 -163t319 164q132 162 132 441t-132 441t-318 163q-187 -1 -319 -163t-132 -441zM123 717q0 333 173 535t421 202t421 -202t173 -536t-173 -535t-421 -201t-421 202t-173 535z" />
    <glyph glyph-name="afii10033" unicode="&#x41f;" horiz-adv-x="1372" 
d="M1178 1434v-1434h-144v1300h-696v-1300h-143v1434h983z" />
    <glyph glyph-name="afii10034" unicode="&#x420;" horiz-adv-x="1300" 
d="M1044 932q0 172 -118 280t-322 109q-160 0 -239 -31l-27 -10v-737h287q190 0 305 108q114 109 114 281zM195 0v1393q153 61 413 61t420 -147t160 -373t-157 -376q-157 -148 -406 -148h-287v-410h-143z" />
    <glyph glyph-name="afii10035" unicode="&#x421;" horiz-adv-x="1259" 
d="M123 717q0 333 173 535t421 202q167 0 280 -75q114 -75 154 -126l16 -24l-102 -82q-75 112 -216 156q-58 18 -122 18q-195 0 -328 -162q-133 -163 -133 -443t133 -442t328 -161q72 0 150 29t161 116q31 33 43 57l15 23l102 -92q-100 -167 -305 -238q-84 -29 -176 -28
q-248 0 -421 202t-173 535z" />
    <glyph glyph-name="afii10036" unicode="&#x422;" horiz-adv-x="983" 
d="M563 1300v-1300h-143v1300h-359v134h861v-134h-359z" />
    <glyph glyph-name="afii10037" unicode="&#x423;" horiz-adv-x="1075" 
d="M266 0v133q102 0 152 36q49 36 74 118l-451 1147h143l369 -953h10l328 953h143l-368 -1076q-72 -210 -153 -284t-247 -74z" />
    <glyph glyph-name="afii10038" unicode="&#x424;" horiz-adv-x="1536" 
d="M1280 727q0 180 -118 290t-322 109v-798q204 0 322 110t118 289zM256 727q0 -180 118 -290t322 -109v798q-204 0 -322 -110t-118 -289zM1423 727q0 -227 -159 -375q-160 -147 -424 -147v-205h-144v205q-264 0 -424 147q-160 146 -160 374t160 376q160 147 424 147v185
h144v-185q264 0 424 -147q159 -148 159 -375z" />
    <glyph glyph-name="afii10039" unicode="&#x425;" horiz-adv-x="1116" 
d="M922 0l-359 614h-10l-358 -614h-154l440 748l-399 686h154l317 -543h10l318 543h153l-399 -686l440 -748h-153z" />
    <glyph glyph-name="afii10040" unicode="&#x426;" horiz-adv-x="1413" 
d="M338 1434v-1301h696v1301h144v-1301h153v-399h-143v266h-993v1434h143z" />
    <glyph glyph-name="afii10041" unicode="&#x427;" horiz-adv-x="1269" 
d="M317 973q0 -147 87 -227t252 -80t249 30l27 11v727h143v-1434h-143v573q-92 -41 -266 -41q-227 0 -360 123q-132 123 -132 318v461h143v-461z" />
    <glyph glyph-name="afii10042" unicode="&#x428;" horiz-adv-x="1884" 
d="M195 0v1434h143v-1301h532v1301h144v-1301h532v1301h144v-1434h-1495z" />
    <glyph glyph-name="afii10043" unicode="&#x429;" horiz-adv-x="1925" 
d="M195 0v1434h143v-1301h532v1301h144v-1301h532v1301h144v-1301h153v-399h-143v266h-1505z" />
    <glyph glyph-name="afii10044" unicode="&#x42a;" horiz-adv-x="1382" 
d="M420 133h317q182 1 291 103t109 266t-112 266t-298 102t-276 -30l-31 -11v-696zM276 0v1305h-276v129h420v-471q113 41 297 41q263 0 413 -138t150 -363q0 -227 -146 -365t-397 -138h-461z" />
    <glyph glyph-name="afii10045" unicode="&#x42b;" horiz-adv-x="1730" 
d="M338 133h317q182 1 291 103t109 266t-112 266t-298 102t-276 -30l-31 -11v-696zM195 0v1434h143v-471q113 41 297 41q264 0 414 -138q149 -138 149 -363q0 -227 -146 -365t-397 -138h-460zM1393 0v1434h143v-1434h-143z" />
    <glyph glyph-name="afii10046" unicode="&#x42c;" horiz-adv-x="1320" 
d="M338 133h338q182 1 291 103t108 266q0 164 -111 266q-112 102 -306 102t-289 -30l-31 -11v-696zM195 0v1434h143v-471q113 41 317 41q264 0 414 -138t150 -363q-1 -227 -147 -365t-396 -138h-481z" />
    <glyph glyph-name="afii10047" unicode="&#x42d;" horiz-adv-x="1259" 
d="M993 717h-583v133h573q-23 205 -152 338t-299 133q-100 0 -184 -44t-119 -87l-34 -43l-103 82q22 30 69 73q46 44 94 74t126 54q78 25 162 24q248 0 421 -202t173 -536t-173 -535q-173 -202 -421 -201q-92 0 -175 28t-165 87q-82 60 -125 122l-17 29l103 92
q16 -32 53 -75q37 -42 76 -72q39 -31 103 -55t136 -23q195 -1 328 161t133 443z" />
    <glyph glyph-name="afii10048" unicode="&#x42e;" horiz-adv-x="1832" 
d="M748 717q0 -291 118 -448t291 -157q174 0 292 158q118 156 118 447t-118 447t-292 157q-173 -1 -291 -157t-118 -447zM338 1434v-635h266q23 307 177 481q155 174 383 174t388 -196q158 -196 158 -542t-159 -541t-389 -195t-383 176t-175 510h-266v-666h-143v1434h143z
" />
    <glyph glyph-name="afii10049" unicode="&#x42f;" horiz-adv-x="1341" 
d="M702 1321q-200 1 -318 -105t-118 -263t115 -263t295 -106h328v696q-102 41 -302 41zM123 952q0 218 155 360t418 142q127 0 240 -15t162 -30l49 -16v-1393h-143v451h-420l-277 -451h-164l308 481v11q-44 12 -107 54t-106 89t-79 132t-36 185z" />
    <glyph glyph-name="afii10065" unicode="&#x430;" 
d="M225 492q0 -182 81 -286t201 -104t202 119l8 15v512q-3 10 -29 40q-78 91 -189 92q-112 2 -193 -102t-81 -286zM92 492q0 236 112 374t267 138q63 0 123 -26t86 -52l27 -25h10v82h133v-758q0 -84 14 -192l6 -33h-133l-10 92h-10q-9 -12 -29 -30t-85 -51q-65 -32 -132 -31
q-155 0 -267 138t-112 374z" />
    <glyph glyph-name="afii10066" unicode="&#x431;" horiz-adv-x="1034" 
d="M543 963q167 -1 283 -135t116 -358t-119 -357t-301 -133t-301 133t-119 358v133q0 548 195 694q92 70 256 95l328 51v-123l-328 -51q-164 -28 -244 -140t-94 -382h10q5 20 36 66q32 46 64 74t90 52t128 23zM236 471q0 -170 82 -269q82 -100 204 -100q121 0 204 100
t83 269q0 170 -83 269q-83 100 -204 100q-122 0 -204 -100t-82 -269z" />
    <glyph glyph-name="afii10067" unicode="&#x432;" horiz-adv-x="890" 
d="M440 881q-76 0 -164 -31v-236h164q185 1 185 134t-185 133zM481 123q98 0 152 49q53 49 53 135t-53 135t-152 50h-205v-369h205zM143 0v942q113 62 284 62t251 -69t80 -187q0 -60 -29 -106t-57 -62l-27 -17v-10q7 -2 19 -6q12 -5 42 -23q113 -70 113 -214t-86 -227
t-231 -83h-359z" />
    <glyph glyph-name="afii10068" unicode="&#x433;" horiz-adv-x="696" 
d="M143 0v983h553v-123h-420v-860h-133z" />
    <glyph glyph-name="afii10069" unicode="&#x434;" horiz-adv-x="972" 
d="M236 123h419v737h-317l-41 -573q-4 -55 -19 -93t-28 -51l-14 -10v-10zM788 983v-860h123v-348h-133v225h-645v-225h-133v348h72q28 11 58 60t34 104l51 696h573z" />
    <glyph glyph-name="afii10070" unicode="&#x435;" horiz-adv-x="983" 
d="M492 881q-100 0 -176 -79t-91 -208h533q-14 129 -90 208t-176 79zM891 471h-666q0 -170 83 -269q83 -100 191 -100t166 53q57 53 74 87l9 14l112 -72q-36 -73 -128 -139q-91 -67 -220 -65q-182 0 -301 136t-119 375t116 375t284 138q168 0 284 -138t115 -374v-21z" />
    <glyph glyph-name="afii10072" unicode="&#x436;" horiz-adv-x="1259" 
d="M696 532v-532h-133v532h-153l-246 -532h-144l277 594l-236 389h154l195 -328h153v328h133v-328h154l194 328h154l-235 -389l276 -594h-143l-246 532h-154z" />
    <glyph glyph-name="afii10073" unicode="&#x437;" horiz-adv-x="829" 
d="M618 931q78 -73 78 -184t-86 -169q-20 -14 -32 -21l-15 -4v-10q22 -6 60 -27q123 -71 124 -216q1 -144 -93 -232t-261 -88q-166 0 -290 132q-28 30 -40 52l-12 20l113 72q5 -15 44 -62t92 -69q54 -22 99 -23q99 0 157 54t58 141q0 86 -58 140t-157 55h-92v122h103
q68 0 110 40t43 94q0 55 -43 94q-42 39 -110 39t-124 -33t-79 -66l-23 -34l-102 81q114 172 328 175q130 0 208 -73z" />
    <glyph glyph-name="afii10074" unicode="&#x438;" horiz-adv-x="983" 
d="M143 0v983h133v-725h11l420 725h133v-983h-133v725h-11l-420 -725h-133z" />
    <glyph glyph-name="afii10075" unicode="&#x439;" horiz-adv-x="983" 
d="M492 1198q-109 0 -174 67t-72 189h102q14 -164 144 -164t143 164h102q-8 -124 -72 -190t-173 -66zM143 0v983h133v-725h11l420 725h133v-983h-133v725h-11l-420 -725h-133z" />
    <glyph glyph-name="afii10076" unicode="&#x43a;" horiz-adv-x="880" 
d="M276 532v-532h-133v983h133v-328h144l246 328h153l-287 -389l328 -594h-143l-297 532h-144z" />
    <glyph glyph-name="afii10077" unicode="&#x43b;" horiz-adv-x="952" 
d="M809 983v-983h-133v860h-318l-51 -594q-12 -142 -70 -204t-176 -62h-61v123h20q76 1 112 33t42 110l62 717h573z" />
    <glyph glyph-name="afii10078" unicode="&#x43c;" horiz-adv-x="1136" 
d="M993 983v-983h-133v727h-10l-246 -379h-72l-245 379h-11v-727h-133v983h133l287 -451h10l287 451h133z" />
    <glyph glyph-name="afii10079" unicode="&#x43d;" horiz-adv-x="972" 
d="M829 983v-983h-133v532h-420v-532h-133v983h133v-328h420v328h133z" />
    <glyph glyph-name="afii10080" unicode="&#x43e;" horiz-adv-x="1024" 
d="M225 492q0 -184 83 -286t204 -104q121 0 204 102t83 288q0 184 -83 286t-204 102t-204 -102t-83 -286zM92 492q0 240 119 376t301 136t301 -136t119 -376t-119 -376t-301 -136t-301 136t-119 376z" />
    <glyph glyph-name="afii10081" unicode="&#x43f;" horiz-adv-x="972" 
d="M829 983v-983h-133v860h-420v-860h-133v983h686z" />
    <glyph glyph-name="afii10082" unicode="&#x440;" 
d="M768 492q0 182 -80 286t-204 103q-123 0 -208 -133v-512q3 -8 29 -40q76 -92 189 -93q114 -1 194 103t80 286zM276 82v-348h-133v1249h133v-82h11q31 37 101 70t134 33q156 0 268 -138t112 -374t-112 -374t-268 -138q-62 0 -122 26t-87 51l-26 25h-11z" />
    <glyph glyph-name="afii10083" unicode="&#x441;" horiz-adv-x="911" 
d="M92 492q0 240 119 376t301 136q100 0 182 -44t113 -88l33 -43l-103 -81q-8 14 -24 36q-17 22 -75 60q-58 37 -126 37q-121 -1 -204 -103t-83 -286t83 -286t191 -104q108 0 166 53q57 53 74 87l9 14l112 -72q-36 -73 -128 -139q-91 -67 -220 -65q-182 0 -301 136t-119 376
z" />
    <glyph glyph-name="afii10084" unicode="&#x442;" horiz-adv-x="747" 
d="M41 860v123h666v-123h-267v-860h-133v860h-266z" />
    <glyph glyph-name="afii10085" unicode="&#x443;" horiz-adv-x="829" 
d="M256 -266h-72v123h41q90 0 113 82l20 71l-317 973h143l236 -747h10l215 747h143l-317 -1055q-31 -102 -81 -148t-134 -46z" />
    <glyph glyph-name="afii10086" unicode="&#x444;" horiz-adv-x="1280" 
d="M573 123v737q-155 0 -251 -100t-96 -268t95 -268q96 -100 252 -101zM1055 492q-1 168 -97 268t-251 100v-737q156 1 252 101t96 268zM707 0v-266h-134v266q-215 0 -348 135t-133 357t133 356q133 135 348 135v246h134v-246q215 0 348 -135t133 -356q0 -220 -133 -356
t-348 -136z" />
    <glyph glyph-name="afii10087" unicode="&#x445;" horiz-adv-x="808" 
d="M164 0h-144l308 512l-287 471h143l215 -358h11l215 358h143l-287 -471l307 -512h-143l-235 399h-11z" />
    <glyph glyph-name="afii10088" unicode="&#x446;" horiz-adv-x="1013" 
d="M143 0v983h133v-860h420v860h133v-860h123v-348h-133v225h-676z" />
    <glyph glyph-name="afii10089" unicode="&#x447;" horiz-adv-x="911" 
d="M256 983v-317q0 -215 195 -215q97 0 163 36l21 15v481h133v-983h-133v379h-10q-72 -51 -204 -51t-215 85t-83 222v348h133z" />
    <glyph glyph-name="afii10090" unicode="&#x448;" horiz-adv-x="1361" 
d="M143 0v983h133v-860h338v860h134v-860h337v860h134v-983h-1076z" />
    <glyph glyph-name="afii10091" unicode="&#x449;" horiz-adv-x="1402" 
d="M143 0v983h133v-860h338v860h134v-860h337v860h134v-860h122v-348h-133v225h-1065z" />
    <glyph glyph-name="afii10092" unicode="&#x44a;" horiz-adv-x="931" 
d="M737 338q0 92 -61 154t-151 61q-90 0 -146 -31l-21 -10v-389h164q92 0 154 61q61 62 61 154zM225 0v860h-225v123h358v-348h11q61 41 187 41t220 -96t94 -242t-97 -242t-251 -96h-297z" />
    <glyph glyph-name="afii10093" unicode="&#x44b;" horiz-adv-x="1218" 
d="M655 338q0 92 -61 154t-151 61q-90 0 -146 -31l-21 -10v-389h164q92 0 154 61q61 62 61 154zM143 0v983h133v-348h11q61 41 187 41t220 -96t94 -242t-97 -242t-251 -96h-297zM1075 983v-983h-133v983h133z" />
    <glyph glyph-name="afii10094" unicode="&#x44c;" horiz-adv-x="870" 
d="M676 338q0 92 -64 154t-161 61q-98 0 -154 -31l-21 -10v-389h175q97 -1 161 61t64 154zM143 0v983h133v-348h11q61 41 195 41t230 -96t97 -242q0 -146 -99 -242t-259 -96h-308z" />
    <glyph glyph-name="afii10095" unicode="&#x44d;" horiz-adv-x="911" 
d="M819 492q0 -240 -119 -376t-296 -136t-301 132q-28 30 -40 52l-12 20l113 72q5 -15 44 -62t92 -69q54 -22 99 -23q121 0 204 102t83 288h-369v122h359q-31 123 -105 195t-157 72t-139 -33t-78 -66l-23 -34l-102 81q114 172 327 175q182 0 301 -136t119 -376z" />
    <glyph glyph-name="afii10096" unicode="&#x44e;" horiz-adv-x="1331" 
d="M594 492q0 -188 74 -288t182 -102q108 0 182 100t74 290q0 188 -74 288t-182 100t-182 -100t-74 -288zM276 983v-369h195q14 168 123 279q110 111 268 111t268 -134t109 -378q0 -244 -110 -378q-109 -134 -279 -134t-280 134t-109 378h-185v-492h-133v983h133z" />
    <glyph glyph-name="afii10097" unicode="&#x44f;" horiz-adv-x="921" 
d="M645 492v358q-72 31 -185 31q-114 -1 -174 -55t-60 -139t62 -140t163 -55h194zM92 686q0 141 96 229t263 89q96 0 178 -16t116 -30l33 -16v-942h-133v369h-215l-205 -369h-164l226 389v10q-24 6 -62 31q-39 26 -65 54t-46 82q-22 54 -22 120z" />
    <glyph glyph-name="afii10071" unicode="&#x451;" horiz-adv-x="983" 
d="M569 1262v141h133v-141h-133zM283 1262v141h133v-141h-133zM492 881q-100 0 -176 -79t-91 -208h533q-14 129 -90 208t-176 79zM891 471h-666q0 -170 83 -269q83 -100 191 -100t166 53q57 53 74 87l9 14l112 -72q-36 -73 -128 -139q-91 -67 -220 -65q-182 0 -301 136
t-119 375t116 375t284 138q168 0 284 -138t115 -374v-21z" />
    <glyph glyph-name="afii10099" unicode="&#x452;" horiz-adv-x="1003" 
d="M51 1096v112h123v226h133v-226h236v-112h-236v-277h10q24 35 98 69t148 34q131 0 214 -85t83 -223v-532q0 -162 -93 -255t-255 -93v123q100 0 158 59q57 59 57 166v502q0 98 -56 156q-57 58 -137 58t-134 -30q-54 -31 -72 -61l-21 -31v-676h-133v1096h-123z" />
    <glyph glyph-name="afii10100" unicode="&#x453;" horiz-adv-x="696" 
d="M348 1208l133 246h144l-174 -246h-103zM143 0v983h553v-123h-420v-860h-133z" />
    <glyph glyph-name="afii10101" unicode="&#x454;" horiz-adv-x="911" 
d="M92 492q0 240 119 376t301 136q100 0 182 -44t113 -88l33 -43l-103 -81q-8 14 -24 36q-17 22 -75 60q-58 37 -141 37t-157 -72t-104 -195h358v-122h-369q0 -184 83 -286t191 -104q108 0 166 53q57 53 74 87l9 14l112 -72q-36 -73 -128 -139q-91 -67 -220 -65
q-182 0 -301 136t-119 376z" />
    <glyph glyph-name="afii10102" unicode="&#x455;" horiz-adv-x="819" 
d="M604 270q0 62 -37 102t-93 58q-136 44 -242 91q-56 26 -93 81t-37 135q0 117 79 192t193 75t197 -44q82 -44 113 -88l33 -43l-103 -81q-8 14 -24 36t-74 60q-58 37 -127 37t-111 -39t-42 -97q0 -103 176 -155q74 -22 148 -50t126 -91q51 -63 51 -178t-92 -203t-229 -88
t-236 72q-77 60 -106 112l-13 20l113 72q5 -15 31 -47q27 -33 51 -53q66 -54 172 -54q64 0 120 52t56 116z" />
    <glyph glyph-name="afii10103" unicode="&#x456;" horiz-adv-x="419" 
d="M143 1311v143h133v-143h-133zM143 0v983h133v-983h-133z" />
    <glyph glyph-name="afii10104" unicode="&#x457;" horiz-adv-x="419" 
d="M287 1262v141h133v-141h-133zM0 1262v141h133v-141h-133zM143 0v983h133v-983h-133z" />
    <glyph glyph-name="afii10105" unicode="&#x458;" horiz-adv-x="419" 
d="M143 -61v1044h133v-1044q0 -93 -54 -149t-140 -56h-21l-20 123h20q82 0 82 82zM143 1311v143h133v-143h-133z" />
    <glyph glyph-name="afii10106" unicode="&#x459;" horiz-adv-x="1382" 
d="M1188 338q0 92 -62 154t-149 61q-88 0 -148 -31l-20 -10v-389h164q91 -1 153 61t62 154zM676 0v860h-318l-51 -594q-12 -142 -70 -204t-176 -62h-61v123h20q76 0 112 33t42 110l62 717h573v-348h10q61 41 187 41t220 -96t95 -242q0 -146 -97 -242t-251 -96h-297z" />
    <glyph glyph-name="afii10107" unicode="&#x45a;" horiz-adv-x="1392" 
d="M819 532v-409h164q96 0 156 54q59 55 59 151t-59 150t-156 54h-164zM819 655h164q156 0 252 -88q96 -87 96 -239t-96 -240t-252 -88h-297v532h-410v-532h-133v983h133v-328h410v328h133v-328z" />
    <glyph glyph-name="afii10108" unicode="&#x45b;" horiz-adv-x="1003" 
d="M51 1096v112h123v226h133v-226h236v-112h-236v-277h10q24 35 98 69t148 34q131 0 214 -85t83 -223v-614h-133v584q0 98 -56 156q-57 58 -137 58t-134 -30q-54 -31 -72 -61l-21 -31v-676h-133v1096h-123z" />
    <glyph glyph-name="afii10109" unicode="&#x45c;" horiz-adv-x="880" 
d="M420 1208l133 246h143l-174 -246h-102zM276 532v-532h-133v983h133v-328h144l246 328h153l-287 -389l328 -594h-143l-297 532h-144z" />
    <glyph glyph-name="afii10110" unicode="&#x45e;" horiz-adv-x="829" 
d="M420 1198q-110 0 -174 67t-72 189h102q14 -164 144 -164t143 164h103q-8 -124 -72 -190t-174 -66zM256 -266h-72v123h41q90 0 113 82l20 71l-317 973h143l236 -747h10l215 747h143l-317 -1055q-31 -102 -81 -148t-134 -46z" />
    <glyph glyph-name="afii10193" unicode="&#x45f;" horiz-adv-x="972" 
d="M829 983v-983h-276v-225h-133v225h-277v983h133v-860h420v860h133z" />
    <glyph glyph-name="afii10050" unicode="&#x490;" horiz-adv-x="931" 
d="M195 0v1434h593v266h144v-400h-594v-1300h-143z" />
    <glyph glyph-name="afii10098" unicode="&#x491;" horiz-adv-x="696" 
d="M563 983v205h133v-328h-420v-860h-133v983h420z" />
    <glyph glyph-name="uni1E9E" unicode="&#x1e9e;" horiz-adv-x="1249" 
d="M1004 471q0 176 -72 267t-184 91h-113v123q168 67 237 207q29 57 29 121q-83 41 -239 41t-255 -97t-100 -251v-973h-143v973q0 209 140 345t362 136q123 0 220 -29t134 -57l35 -27q0 -79 -24 -151t-75 -142t-104 -102l-23 -14v-10q40 -7 103 -40q63 -34 104 -79t76 -132
t35 -200q0 -231 -113 -361t-286 -130q-78 0 -147 28t-99 58l-31 26l82 103q84 -84 196 -83q111 1 183 92t72 267z" />
    <glyph glyph-name="endash" unicode="&#x2013;" horiz-adv-x="870" 
d="M82 573v123h706v-123h-706z" />
    <glyph glyph-name="emdash" unicode="&#x2014;" horiz-adv-x="1146" 
d="M82 573v123h983v-123h-983z" />
    <glyph glyph-name="quoteleft" unicode="&#x2018;" horiz-adv-x="378" 
d="M195 1413h71v-153h-153v112q0 63 33 108q34 44 67 56l33 10l20 -51q-27 -7 -49 -31t-22 -51z" />
    <glyph glyph-name="quoteright" unicode="&#x2019;" horiz-adv-x="378" 
d="M184 1311h-71v153h153v-112q0 -85 -44 -123t-89 -51l-20 51q27 7 49 31t22 51z" />
    <glyph glyph-name="quotesinglbase" unicode="&#x201a;" horiz-adv-x="378" 
d="M184 0h-71v154h153v-113q0 -85 -44 -123t-89 -51l-20 51q27 7 49 31t22 51z" />
    <glyph glyph-name="quotedblleft" unicode="&#x201c;" horiz-adv-x="634" 
d="M451 1413h71v-153h-153v112q0 85 44 124t89 50l20 -51q-27 -7 -49 -31t-22 -51zM195 1413h71v-153h-153v112q0 63 33 108q34 44 67 56l33 10l20 -51q-27 -7 -49 -31t-22 -51z" />
    <glyph glyph-name="quotedblright" unicode="&#x201d;" horiz-adv-x="634" 
d="M440 1311h-71v153h153v-112q0 -64 -34 -108t-66 -56l-33 -10l-20 51q27 7 49 31t22 51zM184 1311h-71v153h153v-112q0 -85 -44 -123t-89 -51l-20 51q27 7 49 31t22 51z" />
    <glyph glyph-name="quotedblbase" unicode="&#x201e;" horiz-adv-x="634" 
d="M440 0h-71v154h153v-113q0 -63 -34 -107t-66 -57l-33 -10l-20 51q27 7 49 31t22 51zM184 0h-71v154h153v-113q0 -85 -44 -123t-89 -51l-20 51q27 7 49 31t22 51z" />
    <glyph glyph-name="dagger" unicode="&#x2020;" horiz-adv-x="860" 
d="M451 1075h61q133 61 184 62q92 0 92 -82t-92 -82q-52 0 -149 47l-35 14h-61v-71q61 -164 61 -215l-61 -891h-41l-62 891q0 33 45 174l17 41v71h-62q-133 -61 -184 -61q-92 0 -92 82t92 82q46 0 149 -47l35 -15h62v72q-61 164 -62 215q0 92 82 92t82 -92q0 -45 -45 -174
l-16 -41v-72z" />
    <glyph glyph-name="daggerdbl" unicode="&#x2021;" horiz-adv-x="880" 
d="M522 678q0 -106 -47 -225l-14 -43v-113h71q133 61 185 61q92 0 92 -82t-92 -81q-53 0 -150 47l-35 14h-71v-92q61 -164 61 -215q0 -92 -82 -92t-82 92q0 53 48 174l14 41v92h-72q-133 -61 -184 -61q-92 -1 -92 81t92 82q52 0 149 -47l35 -14h72v113q-61 164 -62 245
t48 203l14 43v113h-72q-133 -61 -184 -62q-92 0 -92 82t92 82q52 0 149 -47l35 -14h72v92q-61 164 -62 215q0 92 82 92t82 -92q0 -55 -47 -174l-14 -41v-92h71q133 61 185 61q92 0 92 -82t-92 -82q-47 0 -150 47l-35 15h-71v-113q61 -163 61 -223z" />
    <glyph glyph-name="bullet" unicode="&#x2022;" horiz-adv-x="614" 
d="M307 768q61 0 103 -41t41 -102q0 -61 -41 -103q-40 -42 -102 -41q-62 0 -103 41q-41 40 -41 102t41 103t102 41z" />
    <glyph glyph-name="ellipsis" unicode="&#x2026;" horiz-adv-x="1085" 
d="M809 0v164h164v-164h-164zM461 0v164h164v-164h-164zM113 0v164h163v-164h-163z" />
    <glyph glyph-name="perthousand" unicode="&#x2030;" horiz-adv-x="1976" 
d="M1475 317q0 -117 44 -176q43 -59 109 -59t110 59t44 176t-44 177t-110 59q-66 1 -110 -59t-43 -177zM1362 317q0 156 77 247t189 91t190 -91q76 -91 76 -247q0 -157 -76 -247t-190 -90t-190 90t-76 247zM870 317q0 -117 44 -176t110 -59t110 59t44 176t-44 177t-110 59
q-66 1 -110 -59t-44 -177zM758 317q0 156 77 247t189 91t190 -91q76 -91 76 -247q0 -157 -77 -247t-189 -90t-190 90q-76 90 -76 247zM195 1116q0 -117 44 -176q43 -59 109 -59t110 59t44 176t-44 176q-44 60 -110 60t-110 -60t-43 -176zM82 1116q0 156 77 247t189 91
t190 -91q76 -91 76 -247t-76 -247t-190 -91t-190 91t-76 247zM225 0l799 1434h123l-799 -1434h-123z" />
    <glyph glyph-name="guilsinglleft" unicode="&#x2039;" horiz-adv-x="512" 
d="M358 881l62 -62l-215 -297v-10l215 -297l-62 -61l-266 307v112z" />
    <glyph glyph-name="guilsinglright" unicode="&#x203a;" horiz-adv-x="512" 
d="M92 819l62 62l266 -308v-112l-266 -307l-62 61l215 297v10z" />
    <glyph glyph-name="fraction" unicode="&#x2044;" horiz-adv-x="921" 
d="M0 0l799 1434h123l-799 -1434h-123z" />
    <glyph glyph-name="foursuperior" unicode="&#x2074;" horiz-adv-x="634" 
d="M389 993v287h-10l-205 -276v-11h215zM584 901h-92v-184h-105v184h-315v103l317 430h103v-441h92v-92z" />
    <glyph glyph-name="Euro" unicode="&#x20ac;" horiz-adv-x="1280" 
d="M61 737v133h134q47 226 192 364t350 138q80 0 170 -28t191 -117q37 -33 53 -56l16 -24l-92 -82q-40 60 -123 117t-223 57q-139 0 -245 -98t-146 -271h553v-133h-574v-123h574v-133h-553q39 -172 145 -270t265 -98q72 0 149 29t156 116q29 33 41 57l12 23l92 -82
q-6 -10 -16 -30t-52 -66q-42 -47 -89 -84q-48 -37 -130 -67t-174 -29q-205 0 -350 137t-194 364h-132v133h113v123h-113z" />
    <glyph glyph-name="uni20B4" unicode="&#x20b4;" horiz-adv-x="1136" 
d="M973 1044q0 -63 -24 -109t-46 -61l-22 -14v-10h153v-133h-932v133h594q17 6 44 24q89 63 89 157q0 93 -65 151q-66 57 -170 57q-152 0 -260 -113q-25 -25 -35 -43l-12 -18l-103 82q6 8 17 23q10 14 47 54q76 82 169 116q93 33 167 32q172 0 280 -96t109 -232zM102 502
v133h932v-133h-635q-55 -28 -82 -106q-10 -32 -10 -68q0 -88 74 -152t192 -63q174 0 303 125q30 29 42 49l14 20l102 -82q-18 -29 -66 -78t-96 -81t-127 -60q-78 -27 -161 -26q-186 0 -303 102t-117 246q0 49 15 90t30 57l16 17v10h-123z" />
    <glyph glyph-name="uni20BD" unicode="&#x20bd;" horiz-adv-x="1269" 
d="M1024 892q0 157 -105 252t-275 95t-247 -31l-28 -10v-655h276q174 0 277 96q102 96 102 253zM72 174v133h153v103h-153v133h153v768q154 61 405 61t394 -131t143 -349t-139 -350t-383 -132h-276v-103h501v-133h-501v-174h-144v174h-153z" />
    <glyph glyph-name="afii61352" unicode="&#x2116;" horiz-adv-x="1976" 
d="M1444 1116q0 -117 44 -176t110 -59t109 59q44 59 44 176t-44 176q-44 60 -110 60q-65 0 -109 -60t-44 -176zM1331 1116q0 156 77 247q78 91 190 91t189 -91t77 -247t-77 -247t-190 -91t-189 91t-77 247zM338 1137v-1137h-143v1434h133l686 -1137h10v1137h143v-1434h-133
l-686 1137h-10zM1352 512v123h491v-123h-491z" />
    <glyph glyph-name="trademark" unicode="&#x2122;" horiz-adv-x="1280" 
d="M20 1341v93h451v-93h-174v-522h-102v522h-175zM1157 1434v-615h-102v430h-11l-163 -245h-52l-163 245h-11v-430h-102v615h102l195 -297h10l195 297h102z" />
    <glyph glyph-name="minus" unicode="&#x2212;" horiz-adv-x="788" 
d="M82 604v123h625v-123h-625z" />
    <glyph glyph-name="Breve" unicode="&#xf406;" horiz-adv-x="614" 
d="M307 1618q-106 0 -172 66t-74 180h103q16 -154 143 -154t144 154h102q-8 -114 -74 -180t-172 -66z" />
    <glyph glyph-name="Circumflex" unicode="&#xf408;" horiz-adv-x="634" 
d="M389 1864l184 -246h-143l-113 174l-112 -174h-144l185 246h143z" />
    <glyph glyph-name="Dotaccent" unicode="&#xf40b;" horiz-adv-x="266" 
d="M61 1669v133h144v-133h-144z" />
    <glyph glyph-name="Ring" unicode="&#xf40c;" horiz-adv-x="491" 
d="M61 1731q-1 84 53 139t132 55t131 -55t53 -139q0 -83 -53 -139t-131 -56t-132 56t-53 139zM154 1731q0 -45 26 -74t66 -29t66 29t26 74t-27 73t-65 29q-38 -1 -66 -29q-26 -28 -26 -73z" />
    <glyph glyph-name="Tilde" unicode="&#xf40d;" horiz-adv-x="645" 
d="M225 1741q-49 0 -61 -103h-103q26 205 154 205q57 0 117 -51t88 -51q49 0 61 102h103q-26 -203 -154 -205q-56 0 -118 52t-87 51z" />
    <glyph glyph-name="commaaccent" unicode="&#xf6c3;" horiz-adv-x="276" 
d="M133 -287h-72v144h154v-103q0 -63 -31 -107t-61 -57l-31 -10l-20 51q21 7 41 31t20 51z" />
    <glyph glyph-name="Acute" unicode="&#xf6c9;" horiz-adv-x="399" 
d="M61 1618l134 246h143l-174 -246h-103z" />
    <glyph glyph-name="Caron" unicode="&#xf6ca;" horiz-adv-x="634" 
d="M246 1618l-185 246h144l112 -174l113 174h143l-184 -246h-143z" />
    <glyph glyph-name="Dieresis" unicode="&#xf6cb;" horiz-adv-x="552" 
d="M358 1669v133h134v-133h-134zM61 1669v133h134v-133h-134z" />
    <glyph glyph-name="Grave" unicode="&#xf6ce;" horiz-adv-x="399" 
d="M205 1864l133 -246h-102l-175 246h144z" />
    <glyph glyph-name="Hungarumlaut" unicode="&#xf6cf;" horiz-adv-x="665" 
d="M328 1618l133 246h143l-174 -246h-102zM61 1618l134 246h143l-174 -246h-103z" />
    <glyph glyph-name="Macron" unicode="&#xf6d0;" horiz-adv-x="593" 
d="M61 1679v103h471v-103h-471z" />
    <glyph glyph-name="cyrBreve" unicode="&#xf6d1;" horiz-adv-x="675" 
d="M338 1577q-123 0 -196 72t-81 194h103q16 -174 174 -174t174 174h102q-8 -123 -80 -195t-196 -71z" />
    <glyph glyph-name="cyrbreve" unicode="&#xf6d4;" horiz-adv-x="614" 
d="M307 1198q-109 0 -173 67t-73 189h103q14 -164 143 -164t144 164h102q-9 -124 -73 -190t-173 -66z" />
    <glyph glyph-name="Germandbls" horiz-adv-x="1249" 
d="M1004 471q0 176 -72 267t-184 91h-113v123q168 67 237 207q29 57 29 121q-83 41 -239 41t-255 -97t-100 -251v-973h-143v973q0 209 140 345t362 136q123 0 220 -29t134 -57l35 -27q0 -79 -24 -151t-75 -142t-104 -102l-23 -14v-10q40 -7 103 -40q63 -34 104 -79t76 -132
t35 -200q0 -231 -113 -361t-286 -130q-78 0 -147 28t-99 58l-31 26l82 103q84 -84 196 -83q111 1 183 92t72 267z" />
    <glyph glyph-name="foundryicon" horiz-adv-x="2519" 
d="M1526 440q16 0 28 12t13 28q1 14 -13 28t-28 14h-113v-82h113zM1526 1075q16 1 28 13t13 27t-13 29t-28 13h-113v-82h113zM1976 1249v-92h-235q-19 76 -82 92h317zM1976 614v-92h-235q-19 76 -82 92h317zM1618 184v133q41 8 78 43t45 80h164v-92h-174v-72h245v-92h-358z
M1618 819v133q41 8 78 43t45 80h164v-92h-174v-72h245v-92h-358zM614 1157h-133v92h338l51 -92h-143v-338h-113v338zM614 522h-133v92h338l51 -92h-143v-338h-113v338zM1126 819h-112v164l-154 266h123l82 -153h10l82 153h133l-164 -266v-164zM1126 184h-112v164l-154 266
h123l82 -153h10l82 153h133l-164 -266v-164zM1300 614h226q74 0 119 -39t45 -94t-45 -94t-119 -39h-113v-164h-113v430zM1300 1249h226q74 0 119 -39t45 -94t-45 -94t-119 -39h-113v-164h-113v430zM2273 -184v1802h-2027v-1802h2027zM205 -225v1884h2109v-1884h-2109z" />
    </font>
</defs>
</svg>
