<?xml version="1.0" encoding="UTF-8"?>
<svg xmlns="http://www.w3.org/2000/svg" xmlns:xlink="http://www.w3.org/1999/xlink" version="1.2" >
<font id="Clarendon URW Extra Wide Extra Bold">
<font-face  font-family="Clarendon URW Extra Wide" units-per-em="1000" ascent="667" descent="-333" font-style="normal" font-weight="800" font-stretch="normal" cap-height="667" x-height="469" underline-position="-48" underline-thickness="113" />
<missing-glyph  horiz-adv-x="250" d="" />
<glyph glyph-name="NULL" d="" />
<glyph glyph-name="CR" unicode="&#xd;" horiz-adv-x="250" d="" />
<glyph glyph-name="space" unicode="&#x20;" horiz-adv-x="250" d="" />
<glyph glyph-name="exclam" unicode="&#x21;" horiz-adv-x="382" d="M281 207 C289 283 295 324 306 376 C335 520 336 525 336 564 C336 639 291 687 223 687 C154 687 109 639 109 564 C109 539 114 502 121 466 C151 319 152 313 163 207 L281 207 Z M224 166 C169 166 123 125 123 76 C123 24 167 -17 224 -17 C280 -17 324 24 324 75 C324 125 279 166 224 166 L224 166 Z " />
<glyph glyph-name="quotedbl" unicode="&#x22;" horiz-adv-x="495" d="M190 399 L225 667 L27 667 L61 399 L190 399 Z M434 399 L469 667 L271 667 L305 399 L434 399 Z " />
<glyph glyph-name="numbersign" unicode="&#x23;" horiz-adv-x="706" d="M651 299 L539 299 L554 381 L663 381 L683 498 L573 498 L603 667 L457 667 L427 498 L331 498 L363 667 L218 667 L189 498 L79 498 L59 381 L169 381 L155 299 L44 299 L24 182 L135 182 L103 0 L246 0 L278 182 L372 182 L337 0 L488 0 L520 182 L631 182 L651 299 Z M407 381 L392 299 L299 299 L314 381 L407 381 Z " />
<glyph glyph-name="dollar" unicode="&#x24;" horiz-adv-x="710" d="M317 -112 L393 -112 L393 -3 C491 4 535 15 581 46 C633 79 661 129 661 186 C661 250 626 302 566 331 C525 350 495 359 393 380 L393 528 C440 526 452 523 485 509 C457 490 446 474 446 451 C446 412 485 383 537 383 C594 383 634 419 634 469 C634 505 618 535 586 558 C544 588 495 600 393 606 L393 677 L317 677 L317 605 C242 598 206 589 161 565 C93 529 54 471 54 405 C54 345 87 298 145 272 C186 254 208 247 317 222 L317 71 L307 71 C248 71 231 75 188 97 C226 107 243 125 243 157 C243 197 201 228 148 228 C90 228 47 190 47 139 C47 101 64 69 97 46 C145 12 202 -1 317 -3 L317 -112 Z M317 396 C242 408 219 424 219 461 C219 500 250 521 317 526 L317 396 Z M393 204 C468 192 502 171 502 139 C502 123 492 106 476 95 C459 83 440 78 393 74 L393 204 Z " />
<glyph glyph-name="percent" unicode="&#x25;" horiz-adv-x="1054" d="M263 -17 L367 -17 L785 623 L681 623 L263 -17 Z M243 622 C119 622 33 545 33 433 C33 373 49 333 87 297 C127 259 179 240 244 240 C369 240 453 317 453 431 C453 546 369 622 243 622 L243 622 Z M243 547 C301 547 326 513 326 431 C326 349 302 315 242 315 C185 315 160 350 160 433 C160 510 187 547 243 547 L243 547 Z M807 365 C683 365 597 288 597 176 C597 117 613 76 651 40 C690 2 743 -17 808 -17 C933 -17 1017 60 1017 174 C1017 289 933 365 807 365 L807 365 Z M807 290 C865 290 890 255 890 174 C890 92 865 58 806 58 C749 58 724 93 724 176 C724 253 751 290 807 290 L807 290 Z " />
<glyph glyph-name="ampersand" unicode="&#x26;" horiz-adv-x="956" d="M822 230 C821 187 819 170 810 149 C799 119 771 98 744 98 C722 98 702 108 669 138 C705 180 720 199 735 225 C784 313 792 319 882 329 L882 415 L570 415 L570 329 C631 327 649 321 649 303 C649 282 634 259 590 212 C543 255 499 310 455 379 C543 434 574 477 574 543 C574 629 498 687 384 687 C265 687 186 627 186 536 C186 495 196 466 231 406 C171 382 133 363 109 343 C58 303 33 250 33 187 C33 56 131 -20 300 -20 C389 -20 435 -9 529 35 C595 -5 650 -20 726 -20 C863 -20 934 59 934 211 L934 230 L822 230 Z M389 473 C363 505 355 524 355 548 C355 577 374 597 404 597 C432 597 452 576 452 546 C452 513 435 493 389 473 L389 473 Z M286 301 C361 191 384 163 439 112 C399 94 379 89 352 89 C277 89 215 143 215 208 C215 246 231 267 286 301 L286 301 Z " />
<glyph glyph-name="quotesingle" unicode="&#x27;" horiz-adv-x="257" d="M196 399 L230 667 L27 667 L61 399 L196 399 Z " />
<glyph glyph-name="parenleft" unicode="&#x28;" horiz-adv-x="470" d="M446 687 C395 681 358 675 332 668 C252 645 183 595 139 528 C98 464 71 350 71 241 C71 62 116 -50 219 -128 C282 -176 335 -192 446 -196 L446 -111 C382 -95 354 -77 326 -31 C288 31 271 114 271 239 C271 378 287 459 326 522 C355 569 382 587 446 601 L446 687 Z " />
<glyph glyph-name="parenright" unicode="&#x29;" horiz-adv-x="470" d="M22 -196 C73 -190 110 -184 136 -177 C216 -154 285 -104 328 -37 C370 27 397 140 397 250 C397 428 352 541 249 619 C187 667 133 683 22 687 L22 602 C86 586 114 568 142 522 C180 460 197 378 197 251 C197 113 181 32 142 -32 C113 -78 86 -96 22 -110 L22 -196 Z " />
<glyph glyph-name="asterisk" unicode="&#x2a;" horiz-adv-x="563" d="M271 483 C232 508 224 516 198 553 C167 597 154 606 125 606 C88 606 60 578 60 543 C60 514 86 491 119 489 C193 487 217 483 259 464 C221 448 207 445 159 441 C114 438 106 437 92 432 C73 424 60 406 60 385 C60 350 89 322 125 322 C155 322 164 329 197 376 C225 415 240 429 273 445 C269 415 263 395 243 355 C219 311 219 311 219 293 C219 263 244 242 282 242 C319 242 347 265 347 295 C347 310 342 322 324 353 C303 388 298 403 294 447 C323 430 333 420 367 377 C406 324 411 321 439 321 C475 321 504 350 504 386 C504 407 494 423 476 431 C461 438 459 439 410 441 C364 444 341 449 304 465 C337 480 354 483 407 488 C459 491 459 491 474 498 C492 506 504 524 504 544 C504 578 475 607 441 607 C412 607 400 598 368 553 C341 515 325 500 292 483 C298 525 305 546 321 575 C346 618 346 618 346 633 C346 664 318 687 280 687 C244 687 218 665 218 635 C218 619 221 611 241 576 C261 542 267 522 271 483 L271 483 Z " />
<glyph glyph-name="plus" unicode="&#x2b;" horiz-adv-x="710" d="M87 387 L87 252 L287 252 L287 87 L423 87 L423 252 L624 252 L624 387 L423 387 L423 552 L287 552 L287 387 L87 387 Z " />
<glyph glyph-name="comma" unicode="&#x2c;" horiz-adv-x="355" d="M72 -131 C136 -123 169 -112 207 -83 C255 -47 284 3 284 52 C284 119 236 166 167 166 C108 166 64 127 64 74 C64 28 99 -8 145 -8 C152 -8 162 -7 171 -6 C150 -49 134 -59 72 -68 L72 -131 Z " />
<glyph glyph-name="hyphen" unicode="&#x2d;" horiz-adv-x="319" d="M0 154 L319 154 L319 312 L0 312 L0 154 Z " />
<glyph glyph-name="period" unicode="&#x2e;" horiz-adv-x="355" d="M177 166 C122 166 76 125 76 76 C76 24 120 -17 177 -17 C233 -17 277 24 277 75 C277 125 232 166 177 166 L177 166 Z " />
<glyph glyph-name="slash" unicode="&#x2f;" horiz-adv-x="437" d="M111 -92 L393 686 L293 686 L11 -92 L111 -92 Z " />
<glyph glyph-name="zero" unicode="0" horiz-adv-x="710" d="M352 622 C256 622 174 590 111 527 C55 471 27 398 27 307 C27 206 52 138 111 78 C172 16 255 -17 353 -17 C449 -17 532 16 593 78 C651 137 677 207 677 304 C677 399 651 469 593 527 C531 590 449 622 352 622 L352 622 Z M352 525 C431 525 463 459 463 299 C463 146 430 80 352 80 C274 80 241 146 241 303 C241 458 274 525 352 525 L352 525 Z " />
<glyph glyph-name="one" unicode="1" horiz-adv-x="710" d="M147 439 L270 439 L270 148 C272 94 268 91 179 87 L147 87 L147 0 L581 0 L581 87 L552 87 C482 87 467 95 468 128 L468 605 L311 605 C288 557 243 535 147 528 L147 439 Z " />
<glyph glyph-name="two" unicode="2" horiz-adv-x="710" d="M168 0 C179 22 192 29 215 29 C233 29 253 26 274 21 C413 -15 425 -17 483 -17 C560 -17 612 9 640 61 C656 89 662 122 662 177 L662 213 L550 213 C550 157 537 136 503 136 C497 136 490 137 484 138 C381 160 379 160 341 160 C296 160 266 152 204 125 C226 169 244 178 396 214 C470 232 530 256 563 280 C611 315 637 363 637 419 C637 538 516 622 344 622 C174 622 50 536 50 419 C50 351 92 311 161 311 C224 311 269 348 269 400 C269 430 257 454 237 465 C224 472 210 474 181 475 C218 504 249 514 299 514 C376 514 425 482 425 432 C425 381 391 347 299 302 C105 206 48 136 53 0 L168 0 Z " />
<glyph glyph-name="three" unicode="3" horiz-adv-x="710" d="M299 272 C348 271 367 267 393 256 C425 242 444 211 444 176 C444 111 391 74 299 74 C249 74 226 79 182 97 C247 105 270 125 270 173 C270 223 228 257 166 257 C96 257 43 210 43 148 C43 105 67 60 104 36 C157 1 240 -17 348 -17 C545 -17 658 51 658 167 C658 212 641 250 608 278 C586 296 561 308 511 325 C567 342 591 357 612 387 C625 406 633 431 633 456 C633 560 534 622 366 622 C254 622 170 598 114 551 C82 524 62 482 62 444 C62 385 103 349 170 349 C230 349 267 378 267 426 C267 468 245 490 199 493 C232 522 252 529 301 529 C380 529 433 491 433 434 C433 406 418 383 393 372 C370 363 355 360 299 355 L299 272 Z " />
<glyph glyph-name="four" unicode="4" horiz-adv-x="710" d="M569 173 L672 173 L672 257 L569 257 L569 605 L363 605 L33 279 L33 173 L362 173 L362 148 C363 95 360 92 277 88 L248 88 L248 0 L672 0 L672 87 L646 87 C582 87 568 95 569 128 L569 173 Z M152 257 L364 469 L362 257 L152 257 Z " />
<glyph glyph-name="five" unicode="5" horiz-adv-x="710" d="M92 307 L209 307 C248 332 268 339 306 339 C384 339 431 291 431 213 C431 129 372 71 286 71 C250 71 229 77 192 100 C224 107 236 111 247 120 C260 131 269 153 269 175 C269 227 226 262 163 262 C92 262 46 221 46 157 C46 51 154 -18 320 -18 C514 -18 642 75 642 217 C642 287 613 343 556 385 C504 423 444 440 361 440 C296 440 271 435 214 409 L218 487 C283 482 314 480 346 480 C416 480 472 491 521 515 C574 541 606 576 606 607 C606 620 597 628 583 628 C577 628 568 627 560 626 C447 606 447 606 366 606 C302 606 234 609 111 618 L92 307 Z " />
<glyph glyph-name="six" unicode="6" horiz-adv-x="710" d="M282 345 C286 414 293 445 314 475 C340 513 383 536 425 536 C438 536 448 534 470 529 C441 512 431 497 431 473 C431 428 473 397 533 397 C596 397 637 430 637 482 C637 565 543 622 406 622 C195 622 60 492 60 289 C60 93 177 -17 386 -17 C557 -17 661 60 661 188 C661 304 570 382 434 382 C380 382 346 374 282 345 L282 345 Z M368 285 C427 285 464 243 464 176 C464 105 430 67 368 67 C305 67 272 105 272 178 C272 242 310 285 368 285 L368 285 Z " />
<glyph glyph-name="seven" unicode="7" horiz-adv-x="710" d="M212 0 L444 0 C449 183 467 231 599 416 C672 521 678 535 677 605 L580 605 L580 601 C581 579 569 569 543 569 C527 569 512 573 467 590 C416 609 375 617 333 617 C266 617 228 598 189 543 L189 605 L76 605 L76 324 L189 324 C188 339 188 356 188 361 C188 397 191 413 201 428 C214 446 239 457 267 457 C278 457 284 456 335 447 C364 443 391 440 415 440 C451 440 473 445 514 461 C489 435 477 424 447 399 C309 289 290 270 254 209 C223 154 212 107 212 27 L212 0 Z " />
<glyph glyph-name="eight" unicode="8" horiz-adv-x="710" d="M158 299 C123 284 101 273 87 262 C51 236 33 199 33 153 C33 46 145 -17 339 -17 C550 -17 672 56 672 181 C672 223 656 264 630 290 C607 313 586 326 527 354 C601 380 631 413 631 468 C631 564 528 622 358 622 C177 622 64 551 64 437 C64 380 88 345 158 299 L158 299 Z M357 415 C278 438 278 438 260 450 C250 456 243 468 243 479 C243 512 290 534 361 534 C439 534 492 507 492 467 C492 439 471 419 418 398 L357 415 Z M365 211 C447 184 447 184 469 163 C478 154 484 141 484 129 C484 88 434 65 347 65 C245 65 172 104 172 160 C172 196 197 221 260 249 L365 211 Z " />
<glyph glyph-name="nine" unicode="9" horiz-adv-x="710" d="M427 260 C424 191 417 160 395 129 C370 92 327 69 285 69 C272 69 262 71 239 75 C268 93 278 107 278 131 C278 176 236 207 177 207 C112 207 72 175 72 123 C72 40 166 -17 304 -17 C513 -17 650 113 650 313 C650 505 527 622 325 622 C158 622 49 541 49 415 C49 301 141 223 276 223 C330 223 364 231 427 260 L427 260 Z M342 538 C405 538 438 500 438 427 C438 363 400 320 342 320 C283 320 246 363 246 429 C246 500 279 538 342 538 L342 538 Z " />
<glyph glyph-name="colon" unicode="&#x3a;" horiz-adv-x="382" d="M210 448 C155 448 109 408 109 359 C109 306 153 265 210 265 C266 265 310 306 310 357 C310 407 265 448 210 448 L210 448 Z M210 166 C155 166 109 125 109 76 C109 24 153 -17 210 -17 C266 -17 310 24 310 75 C310 125 265 166 210 166 L210 166 Z " />
<glyph glyph-name="semicolon" unicode="&#x3b;" horiz-adv-x="382" d="M115 -131 C179 -123 212 -112 250 -83 C298 -47 327 3 327 52 C327 119 279 166 210 166 C151 166 107 127 107 74 C107 28 142 -8 188 -8 C195 -8 205 -7 214 -6 C193 -49 177 -59 115 -68 L115 -131 Z M216 448 C161 448 115 408 115 359 C115 306 159 265 216 265 C272 265 316 306 316 357 C316 407 271 448 216 448 L216 448 Z " />
<glyph glyph-name="less" unicode="&#x3c;" horiz-adv-x="550" d="M514 657 L37 415 L37 253 L514 10 L514 204 L264 333 L514 463 L514 657 Z " />
<glyph glyph-name="equal" unicode="&#x3d;" horiz-adv-x="710" d="M87 475 L87 348 L624 348 L624 475 L87 475 Z M87 284 L87 157 L624 157 L624 284 L87 284 Z " />
<glyph glyph-name="greater" unicode="&#x3e;" horiz-adv-x="550" d="M37 657 L37 463 L287 333 L37 204 L37 10 L514 253 L514 415 L37 657 Z " />
<glyph glyph-name="question" unicode="&#x3f;" horiz-adv-x="655" d="M324 166 C269 166 224 126 224 77 C224 23 267 -17 326 -17 C380 -17 425 24 425 75 C425 125 380 166 324 166 L324 166 Z M391 209 C394 256 402 268 452 300 C578 379 616 425 616 504 C616 614 511 687 353 687 C249 687 175 659 124 600 C95 565 78 522 78 479 C78 399 123 352 198 352 C261 352 304 390 304 445 C304 490 274 520 229 520 C218 520 199 518 182 514 C192 542 200 555 213 564 C234 578 264 586 295 586 C359 586 405 550 405 501 C405 464 383 421 337 367 C272 289 262 273 262 240 C262 232 263 221 264 209 L391 209 Z " />
<glyph glyph-name="at" unicode="&#x40;" horiz-adv-x="813" d="M524 493 L516 455 C496 485 454 504 409 504 C305 504 215 410 215 302 C215 212 283 144 371 144 C427 144 479 168 509 207 C519 175 554 153 595 153 C691 153 777 263 777 385 C777 556 628 682 427 682 C209 682 37 526 37 327 C37 232 81 137 154 74 C224 14 315 -16 431 -16 C509 -16 590 -5 655 15 L632 96 C563 75 497 65 429 65 C329 65 262 87 208 136 C155 183 124 254 124 326 C124 481 258 601 432 601 C589 601 698 512 698 385 C698 308 648 226 601 226 C584 226 574 238 574 257 C574 264 574 264 582 301 L623 493 L524 493 Z M418 408 C462 408 492 379 492 338 C492 284 445 235 393 235 C348 235 317 264 317 305 C317 360 364 408 418 408 L418 408 Z " />
<glyph glyph-name="A" unicode="A" horiz-adv-x="770" d="M376 0 L821 0 L821 94 L782 94 C732 96 727 100 704 165 L532 667 L267 667 L74 163 C54 112 37 97 -5 94 L-33 94 L-33 0 L296 0 L296 94 L259 94 C223 94 208 100 208 114 C208 122 211 132 218 151 L241 214 L438 214 L464 143 C467 134 469 124 469 115 C469 96 464 94 409 94 L376 94 L376 0 Z M403 310 L275 310 L337 512 L403 310 Z " />
<glyph glyph-name="B" unicode="B" horiz-adv-x="819" d="M16 0 L441 0 C567 0 636 10 688 37 C740 64 772 119 772 182 C772 233 752 273 712 302 C680 325 651 336 580 352 C634 370 657 381 682 403 C716 431 734 469 734 510 C734 556 708 603 667 628 C623 656 562 667 452 667 L16 667 L16 572 L57 572 C120 572 128 565 127 515 L127 152 C130 102 122 95 58 94 L16 94 L16 0 Z M347 392 L347 570 L391 570 C486 570 525 545 525 484 C525 420 484 392 387 392 L347 392 Z M347 94 L347 305 L393 305 C500 305 548 273 548 201 C548 166 534 135 511 119 C488 101 454 94 394 94 L347 94 Z " />
<glyph glyph-name="C" unicode="C" horiz-adv-x="808" d="M653 258 C644 194 632 165 602 134 C567 99 518 79 464 79 C405 79 359 102 334 143 C308 185 298 239 298 333 C298 428 308 482 334 523 C359 564 402 586 459 586 C513 586 558 565 585 528 C607 499 618 473 637 402 L768 402 L768 676 L648 676 L630 640 C550 677 506 687 423 687 C183 687 33 548 33 327 C33 107 178 -20 427 -20 C551 -20 648 15 708 81 C748 124 763 167 771 258 L653 258 Z " />
<glyph glyph-name="D" unicode="D" horiz-adv-x="885" d="M16 0 L409 0 C563 0 651 20 725 72 C805 128 847 217 847 334 C847 450 805 539 725 595 C651 647 563 667 409 667 L16 667 L16 573 L57 573 C120 572 128 565 127 515 L127 152 C130 102 122 95 58 94 L16 94 L16 0 Z M349 97 L349 570 L408 570 C475 570 527 548 552 510 C577 473 590 411 590 334 C590 256 577 194 552 157 C527 119 475 97 408 97 L349 97 Z " />
<glyph glyph-name="E" unicode="E" horiz-adv-x="852" d="M785 667 L16 667 L16 573 L55 573 C116 573 124 566 123 515 L123 152 C126 101 118 95 57 94 L16 94 L16 0 L789 0 L789 275 L669 275 C662 202 655 175 635 141 C602 98 583 93 453 94 L340 94 L340 301 L371 301 C446 301 459 285 464 191 L561 191 L561 495 L464 495 C462 411 446 393 370 389 L340 389 L340 573 L439 573 C600 577 636 553 669 419 L785 419 L785 667 Z " />
<glyph glyph-name="F" unicode="F" horiz-adv-x="786" d="M761 667 L16 667 L16 573 L55 573 C116 573 124 566 123 515 L123 152 C126 101 118 95 57 94 L16 94 L16 0 L452 0 L452 94 L406 94 C345 95 338 101 340 152 L340 302 L373 302 C450 301 464 285 469 191 L561 191 L561 495 L469 495 C467 410 450 392 372 389 L340 389 L340 573 L444 573 C551 573 568 568 605 530 C628 501 636 471 642 393 L761 393 L761 667 Z " />
<glyph glyph-name="G" unicode="G" horiz-adv-x="901" d="M454 261 L481 261 C543 260 551 253 550 203 L550 153 C550 127 546 108 539 101 C529 90 489 82 451 82 C398 82 353 104 327 144 C301 184 290 238 290 333 C290 428 300 481 325 523 C350 563 393 585 450 585 C503 585 548 564 575 528 C597 499 607 473 626 402 L747 402 L747 676 L637 676 L620 640 C546 678 507 687 422 687 C306 687 219 658 148 597 C72 530 33 440 33 328 C33 217 72 122 142 63 C205 10 304 -22 403 -22 C480 -22 537 -7 622 34 L645 -7 L762 -7 L762 203 C760 253 767 260 830 261 L860 261 L860 355 L454 355 L454 261 Z " />
<glyph glyph-name="H" unicode="H" horiz-adv-x="923" d="M425 667 L19 667 L19 573 L60 573 C121 572 128 567 127 515 L127 151 C130 101 122 95 60 94 L19 94 L19 0 L425 0 L425 94 C356 94 348 100 349 151 L349 301 L574 301 L574 151 C575 100 567 94 498 94 L498 0 L904 0 L904 94 L862 94 C802 95 794 101 795 151 L795 515 C794 566 802 573 862 573 L904 573 L904 667 L498 667 L498 573 C567 573 575 567 574 515 L574 395 L349 395 L349 515 C348 567 356 573 425 573 L425 667 Z " />
<glyph glyph-name="I" unicode="I" horiz-adv-x="481" d="M22 0 L458 0 L458 94 L418 94 C357 95 349 101 350 151 L350 515 C349 565 357 572 418 572 L458 572 L458 667 L22 667 L22 572 L63 572 C123 572 131 565 130 515 L130 151 C131 101 123 95 63 94 L22 94 L22 0 Z " />
<glyph glyph-name="J" unicode="J" horiz-adv-x="699" d="M243 573 L289 573 C349 573 357 566 356 515 L356 234 C356 151 353 137 333 115 C315 96 279 83 244 83 C201 83 177 96 151 133 C165 130 178 129 188 129 C238 129 276 168 276 218 C276 275 236 310 170 310 C83 310 22 251 22 168 C22 55 133 -20 298 -20 C384 -20 460 0 507 36 C561 77 577 121 577 224 L577 515 C574 566 582 572 644 573 L681 573 L681 667 L243 667 L243 573 Z " />
<glyph glyph-name="K" unicode="K" horiz-adv-x="929" d="M417 667 L16 667 L16 573 L57 573 C117 572 125 565 124 515 L124 152 C125 101 117 95 57 94 L16 94 L16 0 L434 0 L434 94 L409 94 C347 95 339 102 341 152 L341 208 L461 285 L569 137 C575 128 578 120 578 113 C578 99 564 94 526 94 L491 94 L491 0 L944 0 L944 94 L900 94 C867 94 847 105 821 139 L623 408 L771 523 C810 554 850 573 874 572 L911 572 L911 667 L503 667 L503 573 L564 573 C592 573 607 567 607 555 C607 547 600 536 590 529 L341 350 L341 515 C338 566 346 572 417 573 L417 667 Z " />
<glyph glyph-name="L" unicode="L" horiz-adv-x="754" d="M457 667 L16 667 L16 573 L57 573 C117 573 125 566 124 515 L124 152 C125 102 117 95 57 94 L16 94 L16 0 L706 0 L706 278 L592 278 C580 121 550 94 400 97 L345 97 L345 515 C343 566 350 572 411 573 L457 573 L457 667 Z " />
<glyph glyph-name="M" unicode="M" horiz-adv-x="1131" d="M1110 667 L685 667 L551 269 L426 667 L16 667 L16 572 L51 572 C109 572 117 565 116 515 L116 151 C117 102 109 95 51 94 L16 94 L16 0 L344 0 L344 94 L315 94 C257 95 249 101 250 151 L250 556 L435 0 L607 0 L805 556 L805 151 C808 101 800 95 738 94 L707 94 L707 0 L1110 0 L1110 94 L1070 94 C1010 95 1002 101 1004 151 L1004 515 C1002 565 1010 571 1070 572 L1110 572 L1110 667 Z " />
<glyph glyph-name="N" unicode="N" horiz-adv-x="890" d="M379 667 L16 667 L16 573 L54 573 C112 573 120 566 119 515 L119 152 C120 101 112 95 54 94 L16 94 L16 0 L340 0 L340 94 L305 94 C247 95 239 101 240 152 L240 479 L531 0 L776 0 L776 515 C775 566 783 573 841 573 L869 573 L869 667 L547 667 L547 573 L591 573 C649 572 656 566 654 515 L654 218 L379 667 Z " />
<glyph glyph-name="O" unicode="O" horiz-adv-x="923" d="M462 687 C328 687 231 658 153 594 C79 534 37 442 37 339 C37 224 74 138 153 73 C228 10 327 -20 464 -20 C596 -20 695 10 771 73 C848 136 887 224 887 333 C887 555 728 687 462 687 L462 687 Z M462 586 C519 586 566 564 592 524 C619 483 630 428 630 334 C630 241 619 186 592 144 C566 104 520 82 463 82 C404 82 359 104 332 144 C304 186 294 238 294 339 C294 429 305 484 332 524 C359 564 404 586 462 586 L462 586 Z " />
<glyph glyph-name="P" unicode="P" horiz-adv-x="819" d="M344 295 L496 295 C615 295 674 307 723 340 C769 371 795 422 795 481 C795 537 771 586 728 618 C679 654 617 667 496 667 L16 667 L16 572 L57 572 C118 572 125 566 124 515 L124 151 C125 101 117 95 57 94 L16 94 L16 0 L457 0 L457 94 L411 94 C351 95 343 101 344 151 L344 295 Z M345 377 L345 569 L404 569 C525 569 566 545 566 474 C566 403 522 377 399 377 L345 377 Z " />
<glyph glyph-name="Q" unicode="Q" horiz-adv-x="950" d="M888 149 C885 84 875 66 842 66 C826 66 811 72 786 90 C812 117 825 132 837 151 C867 198 883 262 883 331 C883 443 844 531 767 594 C690 658 592 687 458 687 C324 687 226 658 149 594 C72 531 33 442 33 333 C33 118 194 -21 441 -21 C504 -21 545 -14 623 9 C686 -49 728 -68 794 -68 C857 -68 902 -46 931 0 C955 37 964 71 968 149 L888 149 Z M562 96 C518 71 493 63 456 63 C404 63 370 89 370 127 C370 160 394 183 427 183 C470 183 509 158 562 96 L562 96 Z M322 223 C307 279 302 316 302 375 C302 517 351 586 452 586 C519 586 565 555 589 495 C604 458 611 405 611 322 C611 298 610 277 608 235 C540 300 503 318 444 318 C412 318 384 309 363 293 C343 278 333 261 322 223 L322 223 Z " />
<glyph glyph-name="R" unicode="R" horiz-adv-x="896" d="M16 572 L57 572 C118 572 125 566 124 515 L124 152 C125 101 117 95 57 94 L16 94 L16 0 L457 0 L457 94 L411 94 C351 95 343 101 344 152 L344 300 L418 300 C509 298 523 284 522 197 L522 142 C522 33 580 -16 709 -16 C799 -16 846 6 873 63 C886 91 889 109 889 188 L816 188 L816 155 C816 118 805 96 785 96 C769 96 758 115 758 145 C760 312 746 335 630 353 C680 364 702 373 726 390 C765 416 786 457 786 504 C786 552 761 599 720 626 C675 655 618 667 521 667 L16 667 L16 572 Z M343 391 L343 568 L422 568 C479 568 507 563 528 550 C549 536 562 510 562 479 C562 447 548 420 526 408 C504 396 470 391 414 391 L343 391 Z " />
<glyph glyph-name="S" unicode="S" horiz-adv-x="770" d="M59 245 L59 -3 L160 -3 L186 34 C289 -8 342 -20 430 -20 C620 -20 742 66 742 199 C742 264 709 323 652 357 C599 390 530 412 422 431 C356 444 321 450 316 451 C292 457 271 465 263 474 C252 483 247 495 247 507 C247 550 299 579 375 579 C431 579 479 565 516 539 C549 516 564 493 582 438 L705 438 L705 670 L600 670 L581 637 C493 673 432 686 347 686 C160 686 40 599 40 464 C40 399 74 341 130 312 C178 288 246 266 361 239 C483 210 485 210 508 190 C518 181 525 166 525 150 C525 110 478 82 409 82 C351 82 290 101 244 133 C209 158 191 184 164 245 L59 245 Z " />
<glyph glyph-name="T" unicode="T" horiz-adv-x="814" d="M129 414 C132 515 168 556 262 562 L296 562 L296 152 C298 101 291 95 231 94 L169 94 L169 0 L650 0 L650 94 L583 94 C524 95 516 101 517 152 L517 562 L552 562 C645 556 682 515 685 414 L793 414 L793 667 L21 667 L21 414 L129 414 Z " />
<glyph glyph-name="U" unicode="U" horiz-adv-x="852" d="M504 573 L543 573 C602 572 609 566 608 516 L608 214 C608 164 600 139 577 117 C554 95 512 83 460 83 C420 83 390 91 368 109 C341 130 334 155 334 222 L334 516 C333 566 341 573 401 573 L447 573 L447 667 L5 667 L5 573 L47 573 C107 573 115 566 114 516 L114 189 C114 126 134 83 179 46 C235 2 313 -20 420 -20 C630 -20 743 56 743 197 L743 519 C742 565 750 573 807 573 L843 573 L843 667 L504 667 L504 573 Z " />
<glyph glyph-name="V" unicode="V" horiz-adv-x="787" d="M-27 573 L7 573 C51 573 77 549 99 491 L267 0 L518 0 L703 508 C720 558 737 571 787 573 L813 573 L813 667 L472 667 L472 573 L509 573 C551 573 564 567 564 549 C564 542 562 532 559 523 L437 181 L321 522 C319 528 318 536 318 544 C318 568 327 573 371 573 L412 573 L412 667 L-27 667 L-27 573 Z " />
<glyph glyph-name="W" unicode="W" horiz-adv-x="1087" d="M343 667 L0 667 L0 573 C51 569 74 549 93 489 L245 0 L483 0 L559 272 L631 0 L877 0 L1016 508 C1031 558 1045 571 1091 573 L1091 667 L836 667 L836 573 C882 572 892 568 892 549 C892 542 890 534 887 523 L789 184 L692 521 C690 529 689 537 689 545 C689 568 699 573 744 573 L768 573 L768 667 L401 667 L401 573 C469 568 476 562 493 499 L406 184 L301 521 C299 528 298 535 298 543 C298 567 305 571 343 573 L343 667 Z " />
<glyph glyph-name="X" unicode="X" horiz-adv-x="808" d="M-2 573 L23 573 C52 571 65 563 93 530 L277 315 L122 148 C86 107 67 97 20 94 L-16 94 L-16 0 L349 0 L349 94 L308 94 C286 94 273 100 273 110 C273 115 276 121 282 127 L378 230 L444 149 C458 132 463 122 463 112 C463 101 451 94 430 94 L408 94 L408 0 L825 0 L825 94 L796 94 C762 98 739 110 722 133 L535 369 L700 542 C722 563 747 573 779 573 L799 573 L799 667 L463 667 L463 573 L495 573 C517 573 530 566 530 556 C530 552 527 546 521 539 L432 448 L378 517 C362 537 358 545 358 554 C358 566 370 573 391 573 L409 573 L409 667 L-2 667 L-2 573 Z " />
<glyph glyph-name="Y" unicode="Y" horiz-adv-x="754" d="M-27 573 L-6 573 C38 570 62 555 94 510 L266 268 L266 152 C268 101 261 95 200 94 L154 94 L154 0 L600 0 L600 94 L554 94 C494 95 486 101 487 152 L487 268 L661 506 C691 553 715 570 755 573 L777 573 L777 667 L448 667 L448 573 L470 573 C495 573 510 566 510 555 C510 545 506 533 500 523 L424 393 L342 521 C334 534 331 542 331 549 C331 565 345 573 377 573 L400 573 L400 667 L-27 667 L-27 573 Z " />
<glyph glyph-name="Z" unicode="Z" horiz-adv-x="737" d="M16 0 L706 0 L706 267 L576 267 C566 132 525 91 401 94 L302 94 L706 573 L706 667 L34 667 L34 419 L159 419 C170 541 203 572 325 573 L422 573 L16 94 L16 0 Z " />
<glyph glyph-name="bracketleft" unicode="&#x5b;" horiz-adv-x="470" d="M433 -182 L433 -82 L294 -82 L294 569 L433 569 L433 667 L108 667 L108 -182 L433 -182 Z " />
<glyph glyph-name="backslash" unicode="&#x5c;" horiz-adv-x="437" d="M326 -92 L426 -92 L144 686 L44 686 L326 -92 Z " />
<glyph glyph-name="bracketright" unicode="&#x5d;" horiz-adv-x="470" d="M37 -182 L362 -182 L362 667 L37 667 L37 569 L176 569 L176 -82 L37 -82 L37 -182 Z " />
<glyph glyph-name="asciicircum" unicode="&#x5e;" horiz-adv-x="550" d="M192 335 L275 541 L358 335 L544 335 L393 672 L156 672 L5 335 L192 335 Z " />
<glyph glyph-name="underscore" unicode="&#x5f;" horiz-adv-x="500" d="M0 -47 L0 -160 L500 -160 L500 -47 L0 -47 Z " />
<glyph glyph-name="grave" unicode="&#x60;" horiz-adv-x="522" d="M335 534 L192 686 C158 722 137 735 112 735 C80 735 55 711 55 679 C55 654 70 637 108 618 L276 534 L335 534 Z " />
<glyph glyph-name="a" unicode="a" horiz-adv-x="694" d="M682 189 L616 189 L616 133 C616 109 611 103 591 103 C573 103 568 110 568 133 L568 313 C568 381 558 411 528 435 C489 467 403 486 301 486 C138 486 38 437 38 356 C38 304 78 272 144 272 C204 272 242 299 242 342 C242 374 226 391 184 404 C213 417 228 421 254 421 C313 421 352 390 352 343 C352 291 319 272 208 258 C68 240 16 202 16 115 C16 31 79 -17 188 -17 C231 -17 278 -9 314 6 C339 16 351 24 377 50 C418 -1 453 -17 525 -17 C581 -17 624 -3 651 23 C674 46 682 72 682 128 L682 189 Z M355 157 C356 114 326 87 276 87 C236 87 208 106 208 134 C208 152 223 168 249 178 C267 184 285 191 302 197 C306 198 330 208 354 218 L355 157 Z " />
<glyph glyph-name="b" unicode="b" horiz-adv-x="705" d="M0 580 C80 580 88 576 90 533 L90 0 L217 0 L261 65 C330 2 369 -16 442 -16 C588 -16 666 70 666 232 C666 388 582 486 447 486 C380 486 335 466 285 416 L285 667 L0 667 L0 580 Z M371 382 C428 382 456 334 456 234 C456 133 428 84 371 84 C312 84 285 134 285 242 C285 336 313 382 371 382 L371 382 Z " />
<glyph glyph-name="c" unicode="c" horiz-adv-x="579" d="M417 163 C415 137 411 120 403 108 C388 87 361 74 331 74 C300 74 272 88 258 109 C242 133 235 169 235 234 C235 299 242 337 258 360 C273 383 306 397 342 397 C374 397 386 392 404 373 C358 368 335 345 335 304 C335 256 373 226 434 226 C508 226 551 263 551 327 C551 363 536 398 506 428 C468 465 400 487 320 487 C136 487 22 390 22 235 C22 80 135 -19 311 -19 C373 -19 425 -7 469 18 C520 46 541 83 550 163 L417 163 Z " />
<glyph glyph-name="d" unicode="d" horiz-adv-x="705" d="M308 580 L325 580 C395 580 407 573 407 533 L407 416 C355 467 310 486 243 486 C107 486 22 388 22 231 C22 71 99 -16 241 -16 C311 -16 347 1 412 65 L412 0 L686 0 L686 87 L657 87 C611 88 603 95 602 134 L602 667 L308 667 L308 580 Z M318 382 C380 382 406 337 406 229 C406 134 376 84 318 84 C260 84 232 133 232 234 C232 334 260 382 318 382 L318 382 Z " />
<glyph glyph-name="e" unicode="e" horiz-adv-x="623" d="M454 163 C448 137 441 121 431 110 C413 87 382 74 349 74 C314 74 282 89 265 113 C250 134 245 157 244 207 L586 207 C585 299 575 341 543 386 C497 452 418 487 314 487 C137 487 22 388 22 235 C22 78 134 -18 317 -18 C400 -18 475 3 519 38 C553 66 571 97 588 163 L454 163 Z M244 294 C247 334 251 351 260 366 C273 385 298 398 324 398 C349 398 372 386 385 367 C397 351 401 333 402 294 L244 294 Z " />
<glyph glyph-name="f" unicode="f" horiz-adv-x="442" d="M99 378 L99 134 C98 94 91 88 48 87 L22 87 L22 0 L411 0 L411 87 L365 87 C322 88 315 94 314 135 L314 378 L408 378 L408 469 L314 469 L314 532 C314 581 317 593 332 606 C342 614 354 619 368 619 C376 619 383 618 396 614 C369 598 357 582 357 557 C357 521 393 494 442 494 C497 494 536 526 536 570 C536 640 459 685 341 685 C276 685 214 672 175 651 C119 621 99 581 99 496 L99 469 L22 469 L22 378 L99 378 Z " />
<glyph glyph-name="g" unicode="g" horiz-adv-x="677" d="M92 167 C32 143 5 112 5 66 C5 29 21 4 63 -27 C18 -43 -6 -69 -6 -103 C-6 -132 11 -157 42 -176 C84 -200 176 -214 301 -214 C513 -214 618 -162 618 -57 C618 -20 603 15 580 33 C542 62 500 72 411 72 C397 72 378 72 364 71 C232 68 232 68 206 68 C152 68 135 74 135 92 C135 103 145 111 169 118 C216 106 238 103 271 103 C428 103 533 179 533 292 C533 342 522 371 489 410 C518 429 535 436 550 436 C560 436 568 433 581 424 C557 405 548 391 548 372 C548 340 583 316 629 316 C677 316 707 344 707 389 C707 445 649 488 572 488 C532 488 507 479 456 449 C371 480 350 485 293 485 C125 485 29 416 29 296 C29 241 47 205 92 167 L92 167 Z M281 416 C330 416 348 383 348 293 C348 206 329 172 279 172 C235 172 213 211 213 291 C213 378 234 416 281 416 L281 416 Z M312 -70 C354 -70 393 -73 419 -77 C441 -81 450 -89 450 -104 C450 -130 410 -141 314 -141 C215 -141 174 -130 174 -104 C174 -79 212 -70 312 -70 L312 -70 Z " />
<glyph glyph-name="h" unicode="h" horiz-adv-x="748" d="M732 87 L716 87 C666 88 658 94 657 134 L657 308 C657 384 648 416 618 441 C587 468 538 482 476 482 C394 482 351 462 290 398 L290 667 L16 667 L16 580 L37 580 C86 579 94 572 95 533 L95 134 C94 94 86 88 37 87 L16 87 L16 0 L358 0 L358 87 L353 87 C300 87 290 95 290 134 L290 288 C290 347 325 383 382 383 C436 383 462 357 462 303 L462 134 C461 92 454 87 395 87 L395 0 L732 0 L732 87 Z " />
<glyph glyph-name="i" unicode="i" horiz-adv-x="399" d="M380 87 L359 87 C309 88 301 95 300 134 L300 469 L22 469 L22 382 L44 382 C87 381 94 374 95 335 L95 134 C94 95 87 88 44 87 L22 87 L22 0 L380 0 L380 87 Z M187 686 C138 686 98 646 98 598 C98 546 137 507 187 507 C237 507 277 547 277 597 C277 646 237 686 187 686 L187 686 Z " />
<glyph glyph-name="j" unicode="j" horiz-adv-x="387" d="M311 469 L45 469 L45 382 L69 382 C109 381 115 374 116 335 L116 -98 C116 -125 105 -141 86 -141 C79 -141 70 -138 57 -133 C78 -114 85 -101 85 -84 C85 -45 46 -18 -11 -18 C-78 -18 -120 -50 -120 -101 C-120 -134 -101 -167 -71 -185 C-35 -206 8 -215 76 -215 C208 -215 283 -181 304 -110 C310 -90 311 -79 311 -12 L311 469 Z M189 686 C140 686 100 646 100 598 C100 546 139 507 189 507 C239 507 279 547 279 597 C279 646 239 686 189 686 L189 686 Z " />
<glyph glyph-name="k" unicode="k" horiz-adv-x="737" d="M16 580 L44 580 C92 579 100 572 101 533 L101 134 C100 95 92 88 44 87 L19 87 L19 0 L355 0 L355 87 C303 89 293 96 293 132 C293 135 293 144 294 152 L381 203 L425 141 C439 121 445 108 445 100 C445 90 440 89 407 87 L407 0 L743 0 L743 87 C694 90 678 97 659 124 L534 307 L607 359 C629 375 653 381 695 382 L695 469 L385 469 L385 382 L397 382 C421 382 429 378 429 368 C429 361 423 353 414 347 L294 269 L294 667 L16 667 L16 580 Z " />
<glyph glyph-name="l" unicode="l" horiz-adv-x="388" d="M292 667 L11 667 L11 580 L36 580 C79 579 86 572 87 533 L87 134 C86 95 79 88 36 87 L11 87 L11 0 L370 0 L370 87 L350 87 C301 88 293 95 292 134 L292 667 Z " />
<glyph glyph-name="m" unicode="m" horiz-adv-x="1065" d="M303 469 L22 469 L22 382 L44 382 C93 381 101 374 102 335 L102 134 C101 95 93 88 44 87 L22 87 L22 0 L355 0 L355 87 C308 88 299 95 297 134 L297 273 C297 349 322 383 379 383 C424 383 443 360 443 303 L443 134 C443 94 436 87 395 87 L388 87 L388 0 L694 0 L694 87 L686 87 C645 87 638 94 638 134 L638 275 C638 350 662 382 718 382 C765 382 783 360 783 303 L783 134 C782 94 777 90 728 87 L728 0 L1053 0 L1053 87 L1037 87 C987 88 979 95 978 134 L978 312 C978 388 969 420 939 445 C908 471 860 486 804 486 C736 486 688 469 627 424 C591 470 553 487 485 487 C411 487 367 468 303 410 L303 469 Z " />
<glyph glyph-name="n" unicode="n" horiz-adv-x="754" d="M743 87 L719 87 C670 88 662 94 661 134 L661 308 C661 384 652 416 623 441 C593 467 545 482 490 482 C451 482 414 475 382 461 C353 449 334 434 299 396 L299 469 L11 469 L11 382 L41 382 C90 381 98 374 99 335 L99 134 C98 95 90 88 41 87 L11 87 L11 0 L358 0 L358 87 L352 87 C304 87 294 95 294 134 L294 288 C294 346 329 383 385 383 C440 383 466 357 466 303 L466 134 C465 92 458 87 398 87 L398 0 L743 0 L743 87 Z " />
<glyph glyph-name="o" unicode="o" horiz-adv-x="672" d="M336 486 C143 486 23 391 23 238 C23 154 50 93 106 50 C164 6 242 -17 337 -17 C529 -17 649 80 649 234 C649 390 529 486 336 486 L336 486 Z M336 394 C412 394 438 354 438 234 C438 115 412 75 336 75 C259 75 234 115 234 237 C234 354 260 394 336 394 L336 394 Z " />
<glyph glyph-name="p" unicode="p" horiz-adv-x="705" d="M290 469 L16 469 L16 382 L44 382 C90 381 98 374 99 335 L99 -80 C98 -119 90 -126 44 -127 L16 -127 L16 -214 L376 -214 L376 -127 C304 -126 296 -122 294 -80 L294 53 C346 2 392 -17 459 -17 C595 -17 680 81 680 238 C680 397 603 485 462 485 C392 485 349 465 290 404 L290 469 Z M383 385 C441 385 470 336 470 235 C470 135 442 87 383 87 C356 87 334 98 319 119 C301 145 295 173 295 231 C295 335 324 385 383 385 L383 385 Z " />
<glyph glyph-name="q" unicode="q" horiz-adv-x="705" d="M412 404 C350 466 310 485 240 485 C99 485 22 398 22 238 C22 81 107 -17 243 -17 C310 -17 355 2 407 53 L407 -80 C405 -122 397 -127 326 -127 L326 -214 L686 -214 L686 -127 L658 -127 C611 -126 603 -119 602 -80 L602 335 C603 374 611 381 658 382 L686 382 L686 469 L412 469 L412 404 Z M319 385 C379 385 407 335 407 226 C407 133 378 87 319 87 C260 87 232 135 232 235 C232 336 260 385 319 385 L319 385 Z " />
<glyph glyph-name="r" unicode="r" horiz-adv-x="563" d="M303 469 L22 469 L22 382 L44 382 C93 381 101 374 102 335 L102 134 C101 94 93 88 44 87 L22 87 L22 0 L394 0 L394 87 L355 87 C307 88 298 95 297 134 L297 272 C297 313 307 348 324 372 C342 395 373 412 399 412 C405 412 415 411 426 408 C390 391 376 372 376 344 C376 303 414 271 462 271 C523 271 565 311 565 371 C565 439 513 485 435 485 C383 485 349 469 303 423 L303 469 Z " />
<glyph glyph-name="s" unicode="s" horiz-adv-x="623" d="M110 -7 L130 30 C192 -3 257 -17 340 -17 C484 -17 576 46 576 144 C576 175 564 207 545 225 C512 259 487 270 352 305 C257 331 257 331 242 340 C235 345 230 355 230 365 C230 389 258 403 307 403 C329 403 351 400 373 393 C415 381 433 369 466 330 L551 330 L551 478 L470 478 L455 450 C377 479 340 486 270 486 C116 486 22 426 22 328 C22 307 28 286 38 269 C57 237 92 217 165 195 C210 181 278 162 316 153 C354 144 370 132 370 111 C370 86 344 74 290 74 C262 74 237 78 213 86 C173 99 155 116 130 164 L33 164 L33 -7 L110 -7 Z " />
<glyph glyph-name="t" unicode="t" horiz-adv-x="502" d="M89 383 L89 167 C89 90 94 69 120 39 C154 0 209 -19 283 -19 C353 -19 404 -2 435 32 C460 60 468 89 468 158 L468 221 L383 221 L383 178 C383 154 380 121 376 105 C371 84 356 73 330 73 C310 73 296 81 289 96 C285 105 284 114 284 142 L284 383 L448 383 L448 469 L284 469 L284 652 L167 652 C139 513 102 471 5 469 L5 383 L89 383 Z " />
<glyph glyph-name="u" unicode="u" horiz-adv-x="754" d="M443 0 L735 0 L735 87 L708 87 C656 88 647 95 646 134 L646 469 L385 469 L385 381 L403 381 C444 380 450 374 451 335 L451 181 C451 123 414 86 354 86 C296 86 269 112 269 166 L269 469 L11 469 L11 381 L27 381 C67 380 73 374 74 335 L74 156 C74 80 83 49 113 24 C143 -2 192 -17 249 -17 C287 -17 326 -10 358 4 C388 16 407 31 443 69 L443 0 Z " />
<glyph glyph-name="v" unicode="v" horiz-adv-x="628" d="M408 382 C447 379 458 372 459 351 C459 345 458 340 457 335 L378 124 L294 335 C291 342 290 348 290 356 C290 377 300 381 349 382 L349 469 L5 469 L5 382 L25 382 C54 382 61 375 77 335 L196 0 L448 0 L561 329 C573 368 593 381 637 382 L637 469 L408 469 L408 382 Z " />
<glyph glyph-name="w" unicode="w" horiz-adv-x="934" d="M401 0 L475 227 L539 0 L764 0 L865 329 C876 368 895 382 936 382 L936 469 L732 469 L732 382 C762 377 771 370 771 352 C771 346 770 341 768 335 L699 124 L636 335 C633 342 632 351 632 356 C632 374 641 382 662 382 L674 382 L674 469 L364 469 L364 382 C398 377 409 370 409 353 C409 348 408 341 406 335 L335 119 L275 335 C273 342 272 351 272 357 C272 378 279 382 316 382 L316 469 L5 469 L5 382 L30 382 C60 382 66 375 87 310 L176 0 L401 0 Z " />
<glyph glyph-name="x" unicode="x" horiz-adv-x="694" d="M698 87 L665 87 C624 90 605 99 573 134 L462 255 L565 349 C595 376 612 382 658 382 L666 382 L666 469 L422 469 L422 386 C442 386 449 383 449 375 C449 369 445 362 439 357 L387 313 L345 351 C337 358 329 371 329 376 C329 382 338 387 351 387 L357 387 L357 469 L1 469 L1 382 C51 379 56 377 99 335 L200 229 L67 111 C48 93 32 87 6 87 L0 87 L0 0 L239 0 L239 83 L234 83 C211 83 203 86 203 95 C203 102 207 110 213 115 L279 165 L331 118 C339 112 347 99 347 94 C347 86 340 83 322 83 L306 83 L306 0 L698 0 L698 87 Z " />
<glyph glyph-name="y" unicode="y" horiz-adv-x="634" d="M402 382 C449 380 462 375 462 359 C462 354 460 346 457 337 L390 174 L303 338 C297 349 294 357 294 363 C294 377 299 379 342 382 L342 469 L-1 469 L-1 382 L19 382 C55 380 62 374 95 306 L270 -51 C232 -118 196 -147 151 -147 C135 -147 126 -143 111 -130 C160 -118 181 -98 181 -60 C181 -17 141 13 86 13 C22 13 -23 -27 -23 -83 C-23 -162 51 -214 164 -214 C229 -214 283 -196 322 -162 C359 -130 400 -77 415 -40 L565 329 C579 369 596 381 641 382 L641 469 L402 469 L402 382 Z " />
<glyph glyph-name="z" unicode="z" horiz-adv-x="563" d="M16 0 L530 0 L530 206 L432 206 C431 107 418 91 332 87 L259 87 L530 373 L530 469 L35 469 L35 280 L133 280 C140 368 148 378 222 382 L294 382 L16 96 L16 0 Z " />
<glyph glyph-name="braceleft" unicode="&#x7b;" horiz-adv-x="470" d="M315 476 C315 544 316 548 332 558 C346 567 361 569 414 569 C417 569 425 569 433 568 L433 665 C367 668 353 668 336 668 C236 668 205 663 174 640 C143 618 129 581 129 523 L129 369 C129 309 113 288 59 279 L59 185 C112 176 129 154 129 96 L129 -59 C129 -111 141 -147 167 -170 C196 -195 232 -203 323 -203 C349 -203 371 -203 433 -201 L433 -104 C315 -104 313 -103 315 -12 L315 106 C314 175 300 205 255 232 C301 261 313 287 315 358 L315 476 Z " />
<glyph glyph-name="bar" unicode="&#x7c;" horiz-adv-x="530" d="M167 667 L167 -167 L363 -167 L363 667 L167 667 Z " />
<glyph glyph-name="braceright" unicode="&#x7d;" horiz-adv-x="470" d="M156 -12 C158 -102 155 -105 37 -104 L37 -200 C107 -203 122 -203 135 -203 C235 -203 266 -198 297 -175 C328 -153 342 -116 342 -59 L342 96 C342 156 358 177 411 185 L411 279 C358 289 342 310 342 369 L342 523 C342 576 330 612 304 634 C275 660 239 668 147 668 C120 668 105 668 37 665 L37 569 L58 569 C102 569 124 566 136 560 C155 550 156 547 156 476 L156 359 C157 290 171 260 216 232 C170 203 158 177 156 106 L156 -12 Z " />
<glyph glyph-name="asciitilde" unicode="&#x7e;" horiz-adv-x="685" d="M194 534 C215 575 229 588 252 588 C264 588 276 585 304 574 C390 542 409 536 430 536 C471 536 509 557 539 595 C556 618 568 641 587 689 L495 767 C472 725 459 714 436 714 C422 714 417 715 363 736 C287 763 284 764 257 764 C189 764 141 718 101 613 L194 534 Z " />
<glyph glyph-name="uni00A0" unicode="&#xa0;" horiz-adv-x="250" d="" />
<glyph glyph-name="exclamdown" unicode="&#xa1;" horiz-adv-x="377" d="M130 259 C122 183 117 144 106 90 C77 -53 76 -58 76 -97 C76 -172 120 -220 189 -220 C258 -220 303 -172 303 -97 C303 -73 298 -35 291 0 C261 145 260 152 248 259 L130 259 Z M187 483 C131 483 87 442 87 391 C87 341 132 300 187 300 C242 300 288 341 288 390 C288 443 244 483 187 483 L187 483 Z " />
<glyph glyph-name="cent" unicode="&#xa2;" horiz-adv-x="710" d="M440 254 C468 246 481 243 499 243 C568 243 612 283 612 345 C612 386 597 414 552 455 L613 564 L529 564 L485 487 C428 501 396 506 366 506 C295 506 224 483 171 443 C114 400 82 332 82 252 C82 200 96 150 121 111 C142 77 169 56 228 26 L153 -107 L237 -107 L300 5 C335 2 369 0 393 0 C458 0 522 22 561 58 C591 86 603 116 610 180 L477 180 C473 120 448 91 399 91 C383 91 374 94 356 106 L440 254 Z M316 183 C294 225 286 250 286 276 C286 313 297 354 313 376 C329 399 362 414 397 414 C427 414 440 409 464 389 C418 383 407 373 397 327 L316 183 Z " />
<glyph glyph-name="sterling" unicode="&#xa3;" horiz-adv-x="710" d="M98 -17 C163 24 199 38 239 38 C263 38 293 32 328 21 C437 -13 455 -17 503 -17 C620 -17 679 42 679 158 C679 171 678 195 677 216 L574 216 C575 211 575 204 575 203 C575 153 560 131 524 131 C511 131 497 133 485 137 C404 164 404 164 377 164 C342 164 315 156 256 130 C330 185 336 194 344 260 L485 260 L485 351 L335 351 C294 434 294 434 294 450 C294 500 351 541 423 541 C461 541 479 536 509 516 C478 499 467 484 467 454 C467 410 508 377 563 377 C619 377 661 413 661 462 C661 493 645 528 618 553 C568 599 491 622 384 622 C282 622 208 599 155 551 C119 519 99 475 99 432 C99 407 103 389 117 351 L33 351 L33 260 L147 260 C150 243 151 229 151 217 C151 166 123 133 40 88 L98 -17 Z " />
<glyph glyph-name="currency" unicode="&#xa4;" horiz-adv-x="804" d="M32 107 L141 9 L256 112 C310 86 351 76 403 76 C454 76 501 88 549 112 L664 8 L772 108 L656 213 C682 259 691 293 691 338 C691 385 679 424 651 470 L767 575 L658 674 L538 566 C488 588 450 597 402 597 C353 597 316 588 264 565 L143 675 L33 575 L152 468 C125 423 113 381 113 338 C113 296 125 252 148 213 L32 107 Z M404 434 C469 434 523 391 523 339 C523 287 469 244 402 244 C336 244 282 287 282 339 C282 392 335 434 404 434 L404 434 Z " />
<glyph glyph-name="yen" unicode="&#xa5;" horiz-adv-x="754" d="M418 346 L333 472 C325 484 322 491 322 497 C322 512 336 519 367 519 L390 519 L390 605 L17 605 L17 519 L37 519 C76 517 97 504 126 462 L165 404 L88 404 L88 313 L225 313 L267 252 L102 252 L102 161 L273 161 L273 138 C275 92 269 86 218 85 L181 85 L181 0 L574 0 L574 85 L537 85 C487 86 481 92 482 138 L482 161 L649 161 L649 252 L487 252 L530 313 L663 313 L663 404 L592 404 L630 458 C658 502 678 517 715 519 L735 519 L735 605 L447 605 L447 519 L472 519 C498 519 512 513 512 503 C512 494 508 482 503 474 L418 346 Z " />
<glyph glyph-name="brokenbar" unicode="&#xa6;" horiz-adv-x="530" d="M167 667 L167 304 L363 304 L363 667 L167 667 Z M167 153 L167 -167 L363 -167 L363 153 L167 153 Z " />
<glyph glyph-name="section" unicode="&#xa7;" horiz-adv-x="683" d="M246 -111 C267 -91 274 -79 274 -61 C274 -17 234 18 183 18 C131 18 94 -17 94 -67 C94 -152 189 -210 330 -210 C491 -210 603 -133 603 -21 C603 38 580 72 509 119 C547 137 568 151 583 168 C606 196 619 230 619 265 C619 352 565 396 387 456 C245 504 232 512 232 547 C232 587 278 614 348 614 C380 614 395 611 426 597 C405 580 398 569 398 552 C398 512 438 481 489 481 C541 481 578 513 578 558 C578 635 482 687 340 687 C189 687 96 621 96 515 C96 464 115 434 176 389 C87 345 55 306 55 240 C55 206 67 177 91 149 C115 122 158 99 229 75 C386 23 386 23 419 7 C451 -8 467 -29 467 -56 C467 -103 419 -131 339 -131 C299 -131 283 -127 246 -111 L246 -111 Z M257 341 C284 341 322 329 423 291 C468 273 490 252 490 225 C490 192 451 162 412 165 C381 167 283 199 232 223 C203 237 184 260 184 282 C184 313 218 341 257 341 L257 341 Z " />
<glyph glyph-name="dieresis" unicode="&#xa8;" horiz-adv-x="534" d="M152 715 C110 715 73 679 73 638 C73 594 108 559 153 559 C196 559 229 593 229 636 C229 680 195 715 152 715 L152 715 Z M385 715 C343 715 306 679 306 638 C306 594 341 559 386 559 C429 559 462 593 462 636 C462 680 428 715 385 715 L385 715 Z " />
<glyph glyph-name="copyright" unicode="&#xa9;" horiz-adv-x="915" d="M582 294 C578 257 571 241 554 224 C534 204 508 194 478 194 C413 194 387 234 387 333 C387 431 412 471 475 471 C504 471 529 460 544 440 C556 424 562 409 573 368 L655 368 L655 528 L581 528 L571 509 C526 529 502 534 454 534 C316 534 229 455 229 329 C229 205 313 132 457 132 C529 132 585 152 620 190 C644 215 652 240 657 294 L582 294 Z M465 703 C225 703 37 540 37 333 C37 130 227 -36 459 -36 C691 -36 879 129 879 333 C879 535 691 703 465 703 L465 703 Z M464 631 C645 631 796 496 796 333 C796 169 645 36 459 36 C272 36 120 170 120 333 C120 500 271 631 464 631 L464 631 Z " />
<glyph glyph-name="ordfeminine" unicode="&#xaa;" horiz-adv-x="458" d="M451 446 L401 446 L401 410 C401 398 399 396 389 396 C379 396 377 398 377 410 L377 516 C377 557 370 575 350 590 C324 609 267 621 200 621 C92 621 25 591 25 542 C25 512 52 495 98 495 C140 495 165 510 165 535 C165 552 156 562 134 570 C146 575 155 576 169 576 C206 576 229 559 229 533 C229 505 209 494 139 486 C45 475 11 452 11 398 C11 348 54 318 126 318 C180 318 218 330 249 356 C275 328 299 318 345 318 C382 318 411 326 429 342 C445 356 451 373 451 407 L451 446 Z M231 424 C232 400 214 386 183 386 C159 386 143 396 143 410 C143 420 152 428 168 433 C179 437 191 441 202 444 C207 446 217 449 230 454 L231 424 Z " />
<glyph glyph-name="guillemotleft" unicode="&#xab;" horiz-adv-x="552" d="M276 67 C194 199 189 208 189 237 C189 265 197 281 267 406 L158 406 C78 310 44 258 44 235 C44 212 50 204 158 67 L276 67 Z M513 67 C431 199 426 209 426 237 C426 265 434 281 504 406 L395 406 C315 310 281 258 281 235 C281 212 287 202 395 67 L513 67 Z " />
<glyph glyph-name="logicalnot" unicode="&#xac;" horiz-adv-x="550" d="M324 0 L514 0 L514 299 L37 299 L37 128 L324 128 L324 0 Z " />
<glyph glyph-name="uni00AD" unicode="&#xad;" horiz-adv-x="319" d="M0 154 L319 154 L319 312 L0 312 L0 154 Z " />
<glyph glyph-name="registered" unicode="&#xae;" horiz-adv-x="915" d="M224 464 L251 464 C284 463 286 461 286 435 L286 231 C286 205 284 203 251 202 L224 202 L224 143 L483 143 L483 202 L453 202 C420 203 418 205 418 231 L418 312 L456 312 C507 311 513 305 513 257 L513 226 C513 163 547 134 623 134 C676 134 703 147 719 180 C728 197 729 206 729 255 L680 255 C680 214 677 204 666 204 C659 204 655 214 654 228 C656 318 647 335 595 345 C644 358 670 387 670 428 C670 457 655 484 631 499 C605 516 572 523 516 523 L224 523 L224 464 Z M417 369 L417 461 L459 461 C516 461 536 449 536 415 C536 380 516 369 454 369 L417 369 Z M465 703 C225 703 37 540 37 333 C37 130 227 -36 459 -36 C691 -36 879 129 879 333 C879 535 691 703 465 703 L465 703 Z M464 631 C645 631 796 496 796 333 C796 169 645 36 459 36 C272 36 120 170 120 333 C120 500 271 631 464 631 L464 631 Z " />
<glyph glyph-name="macron" unicode="&#xaf;" horiz-adv-x="518" d="M101 585 L416 585 L416 672 L101 672 L101 585 Z " />
<glyph glyph-name="degree" unicode="&#xb0;" horiz-adv-x="400" d="M203 686 C117 686 50 619 50 534 C50 448 116 381 200 381 C284 381 350 448 350 533 C350 619 286 686 203 686 L203 686 Z M202 629 C252 629 293 586 293 534 C293 480 252 438 200 438 C148 438 106 481 106 533 C106 587 148 629 202 629 L202 629 Z " />
<glyph glyph-name="plusminus" unicode="&#xb1;" horiz-adv-x="549" d="M11 55 L11 0 L535 0 L535 55 L11 55 Z M302 662 L247 662 L247 423 L10 423 L10 368 L247 368 L247 129 L302 129 L302 368 L539 368 L539 423 L302 423 L302 662 Z " />
<glyph glyph-name="twosuperior" unicode="&#xb2;" horiz-adv-x="410" d="M97 266 C104 278 110 282 124 282 C134 282 146 280 158 278 C239 258 246 257 279 257 C351 257 382 290 383 365 L383 386 L319 386 C318 355 311 343 291 343 C287 343 283 343 280 344 C220 356 219 356 197 356 C171 356 153 352 118 337 C131 362 140 366 229 387 C327 410 369 444 369 501 C369 568 299 615 199 615 C101 615 29 567 29 501 C29 464 53 441 93 441 C129 441 155 462 155 491 C155 520 140 532 105 533 C126 549 144 555 173 555 C219 555 246 537 246 507 C246 480 227 462 173 436 C59 381 27 343 30 266 L97 266 Z " />
<glyph glyph-name="threesuperior" unicode="&#xb3;" horiz-adv-x="410" d="M175 419 C234 417 259 401 259 365 C259 329 228 308 175 308 C146 308 133 311 107 321 C145 326 158 337 158 363 C158 391 134 410 98 410 C57 410 27 384 27 349 C27 290 90 257 204 257 C318 257 383 295 383 361 C383 404 359 429 298 448 C347 464 368 486 368 523 C368 580 310 615 214 615 C107 615 37 575 37 515 C37 482 61 462 100 462 C135 462 157 478 157 505 C157 529 144 541 117 543 C136 559 147 563 176 563 C222 563 252 542 252 510 C252 480 234 470 175 466 L175 419 Z " />
<glyph glyph-name="acute" unicode="&#xb4;" horiz-adv-x="522" d="M159 534 L217 534 L385 617 C422 636 438 654 438 679 C438 711 414 735 382 735 C356 735 337 723 302 686 L159 534 Z " />
<glyph glyph-name="mu" unicode="&#xb5;" horiz-adv-x="576" d="M442 500 L353 500 L354 131 C318 80 284 58 242 58 C184 58 150 99 150 169 L150 500 L62 500 L62 20 C62 -1 58 -26 51 -56 C34 -118 33 -123 33 -147 C33 -190 54 -219 83 -219 C112 -219 132 -189 132 -145 C132 -124 129 -110 113 -53 C102 -17 101 -8 101 21 L101 33 C143 -3 165 -13 200 -13 C250 -13 301 18 354 80 C362 48 367 36 377 21 C392 0 419 -13 449 -13 C510 -13 553 31 567 108 L540 109 C536 71 515 41 492 41 C462 41 442 77 442 131 L442 500 Z " />
<glyph glyph-name="paragraph" unicode="&#xb6;" horiz-adv-x="681" d="M240 -92 L352 -92 L352 565 L455 565 L455 -92 L567 -92 L567 565 L652 565 L652 667 L281 667 C214 667 154 657 119 640 C62 612 29 558 29 491 C29 436 53 388 93 360 C128 336 179 321 226 321 L240 321 L240 -92 Z " />
<glyph glyph-name="periodcentered" unicode="&#xb7;" horiz-adv-x="355" d="M177 326 C122 326 76 285 76 236 C76 184 120 143 177 143 C233 143 277 184 277 235 C277 285 232 326 177 326 L177 326 Z " />
<glyph glyph-name="cedilla" unicode="&#xb8;" horiz-adv-x="550" d="M114 -182 C196 -217 248 -230 300 -230 C377 -230 428 -192 428 -136 C428 -86 387 -49 331 -49 C319 -49 301 -51 283 -53 L283 0 L239 0 L239 -98 C254 -96 270 -94 277 -94 C311 -94 332 -109 332 -134 C332 -156 311 -171 280 -171 C241 -171 199 -159 141 -130 L114 -182 Z " />
<glyph glyph-name="onesuperior" unicode="&#xb9;" horiz-adv-x="410" d="M94 513 L154 513 L154 350 C155 319 153 318 101 316 L82 316 L82 267 L334 267 L334 316 L318 316 C277 316 268 320 269 339 L269 605 L178 605 C167 578 143 566 94 562 L94 513 Z " />
<glyph glyph-name="ordmasculine" unicode="&#xba;" horiz-adv-x="444" d="M224 622 C93 622 15 566 15 470 C15 375 93 318 222 318 C349 318 429 376 429 470 C429 563 349 622 224 622 L224 622 Z M222 561 C270 561 285 539 285 468 C285 401 269 379 222 379 C175 379 159 402 159 470 C159 538 175 561 222 561 L222 561 Z " />
<glyph glyph-name="guillemotright" unicode="&#xbb;" horiz-adv-x="552" d="M398 67 C507 203 513 212 513 235 C513 258 479 310 399 406 L290 406 C362 277 368 264 368 237 C368 218 356 188 334 153 L281 67 L398 67 Z M161 67 C269 202 276 212 276 235 C276 258 241 311 162 406 L53 406 C124 280 131 264 131 237 C131 208 126 198 44 67 L161 67 Z " />
<glyph glyph-name="onequarter" unicode="&#xbc;" horiz-adv-x="1000" d="M94 513 L153 513 L153 350 C154 319 152 318 101 316 L82 316 L82 267 L334 267 L334 316 L317 316 C276 316 267 320 268 339 L268 605 L177 605 C166 578 142 566 94 562 L94 513 Z M229 -17 L333 -17 L777 622 L673 622 L229 -17 Z M917 97 L977 97 L977 144 L917 144 L917 339 L798 339 L606 156 L606 97 L797 97 L797 83 C798 53 796 51 748 49 L731 49 L731 0 L977 0 L977 49 L962 49 C925 49 916 53 917 72 L917 97 Z M675 144 L798 263 L797 144 L675 144 Z " />
<glyph glyph-name="onehalf" unicode="&#xbd;" horiz-adv-x="1000" d="M94 513 L153 513 L153 350 C154 319 152 318 101 316 L82 316 L82 267 L334 267 L334 316 L317 316 C276 316 267 320 268 339 L268 605 L177 605 C166 578 142 566 94 562 L94 513 Z M229 -17 L333 -17 L777 622 L673 622 L229 -17 Z M685 0 C692 12 699 16 712 16 C722 16 734 14 746 12 C828 -8 835 -9 868 -9 C939 -9 972 25 972 99 C972 103 972 110 971 119 L907 119 C906 88 899 76 879 76 C876 76 872 76 868 77 C808 89 807 89 786 89 C759 89 742 85 706 70 C719 95 729 99 817 120 C915 143 957 177 957 234 C957 301 887 348 787 348 C689 348 617 300 617 234 C617 197 641 174 681 174 C718 174 744 195 744 224 C744 253 729 265 693 266 C714 282 732 288 761 288 C807 288 834 270 834 240 C834 213 815 195 761 169 C647 114 616 76 618 0 L685 0 Z " />
<glyph glyph-name="threequarters" unicode="&#xbe;" horiz-adv-x="1000" d="M175 419 C234 417 259 401 259 365 C259 329 228 308 175 308 C146 308 133 311 107 321 C145 326 158 337 158 363 C158 391 134 410 98 410 C57 410 27 384 27 349 C27 290 90 257 204 257 C318 257 383 295 383 361 C383 404 359 429 298 448 C347 464 368 486 368 523 C368 580 310 615 214 615 C107 615 37 575 37 515 C37 482 61 462 100 462 C135 462 157 478 157 505 C157 529 144 541 117 543 C136 559 147 563 176 563 C222 563 252 542 252 510 C252 480 234 470 175 466 L175 419 Z M229 -17 L333 -17 L776 622 L673 622 L229 -17 Z M917 97 L976 97 L976 144 L917 144 L917 339 L797 339 L606 156 L606 97 L797 97 L797 83 C798 53 796 51 748 49 L731 49 L731 0 L976 0 L976 49 L961 49 C925 49 916 53 917 72 L917 97 Z M675 144 L798 263 L797 144 L675 144 Z " />
<glyph glyph-name="questiondown" unicode="&#xbf;" horiz-adv-x="650" d="M350 483 C296 483 251 442 251 391 C251 341 296 300 352 300 C407 300 452 340 452 389 C452 443 409 483 350 483 L350 483 Z M285 257 C282 210 274 198 224 166 C97 87 60 41 60 -37 C60 -147 165 -220 323 -220 C427 -220 501 -192 552 -133 C581 -99 598 -55 598 -13 C598 67 553 114 477 114 C415 114 372 76 372 21 C372 -24 403 -54 447 -54 C458 -54 477 -52 494 -48 C484 -75 476 -88 462 -97 C442 -111 412 -119 381 -119 C318 -119 271 -83 271 -34 C271 3 293 46 339 100 C405 178 414 193 414 226 C414 233 413 245 412 257 L285 257 Z " />
<glyph glyph-name="Agrave" unicode="&#xc0;" horiz-adv-x="770" d="M376 0 L821 0 L821 94 L782 94 C732 96 727 100 704 165 L532 667 L267 667 L74 163 C54 112 37 97 -5 94 L-33 94 L-33 0 L296 0 L296 94 L259 94 C223 94 208 100 208 114 C208 122 211 132 218 151 L241 214 L438 214 L464 143 C467 134 469 124 469 115 C469 96 464 94 409 94 L376 94 L376 0 Z M403 310 L275 310 L337 512 L403 310 Z M445 723 L502 723 L357 851 C334 871 319 879 302 879 C276 879 253 856 253 830 C253 808 270 788 299 777 L445 723 Z " />
<glyph glyph-name="Aacute" unicode="&#xc1;" horiz-adv-x="770" d="M376 0 L821 0 L821 94 L782 94 C732 96 727 100 704 165 L532 667 L267 667 L74 163 C54 112 37 97 -5 94 L-33 94 L-33 0 L296 0 L296 94 L259 94 C223 94 208 100 208 114 C208 122 211 132 218 151 L241 214 L438 214 L464 143 C467 134 469 124 469 115 C469 96 464 94 409 94 L376 94 L376 0 Z M403 310 L275 310 L337 512 L403 310 Z M325 723 L471 777 C500 788 517 808 517 830 C517 857 495 879 468 879 C451 879 437 872 414 851 L268 723 L325 723 Z " />
<glyph glyph-name="Acircumflex" unicode="&#xc2;" horiz-adv-x="770" d="M376 0 L821 0 L821 94 L782 94 C732 96 727 100 704 165 L532 667 L267 667 L74 163 C54 112 37 97 -5 94 L-33 94 L-33 0 L296 0 L296 94 L259 94 C223 94 208 100 208 114 C208 122 211 132 218 151 L241 214 L438 214 L464 143 C467 134 469 124 469 115 C469 96 464 94 409 94 L376 94 L376 0 Z M403 310 L275 310 L337 512 L403 310 Z M226 723 L275 723 L389 782 L503 723 L553 723 L451 869 L328 869 L226 723 Z " />
<glyph glyph-name="Atilde" unicode="&#xc3;" horiz-adv-x="770" d="M376 0 L821 0 L821 94 L782 94 C732 96 727 100 704 165 L532 667 L267 667 L74 163 C54 112 37 97 -5 94 L-33 94 L-33 0 L296 0 L296 94 L259 94 C223 94 208 100 208 114 C208 122 211 132 218 151 L241 214 L438 214 L464 143 C467 134 469 124 469 115 C469 96 464 94 409 94 L376 94 L376 0 Z M403 310 L275 310 L337 512 L403 310 Z M265 723 C274 752 288 766 310 766 C320 766 330 765 342 761 L400 746 C411 743 423 741 433 741 C461 741 486 752 505 774 C525 797 534 818 545 869 L505 869 C493 837 483 827 459 827 C453 827 444 828 436 830 L377 846 C364 849 351 851 338 851 C276 851 245 815 225 723 L265 723 Z " />
<glyph glyph-name="Adieresis" unicode="&#xc4;" horiz-adv-x="770" d="M376 0 L821 0 L821 94 L782 94 C732 96 727 100 704 165 L532 667 L267 667 L74 163 C54 112 37 97 -5 94 L-33 94 L-33 0 L296 0 L296 94 L259 94 C223 94 208 100 208 114 C208 122 211 132 218 151 L241 214 L438 214 L464 143 C467 134 469 124 469 115 C469 96 464 94 409 94 L376 94 L376 0 Z M403 310 L275 310 L337 512 L403 310 Z M288 878 C247 878 211 842 211 803 C211 760 245 726 288 726 C329 726 364 760 364 801 C364 842 328 878 288 878 L288 878 Z M518 878 C477 878 441 842 441 803 C441 760 475 726 518 726 C560 726 594 760 594 801 C594 842 559 878 518 878 L518 878 Z " />
<glyph glyph-name="Aring" unicode="&#xc5;" horiz-adv-x="770" d="M376 0 L821 0 L821 94 L782 94 C731 96 728 100 704 165 L532 654 L267 654 L74 163 C54 111 37 97 -5 94 L-33 94 L-33 0 L296 0 L296 94 L259 94 C223 94 208 100 208 114 C208 122 211 132 218 151 L241 214 L438 214 L464 143 C467 134 469 124 469 115 C469 96 464 94 409 94 L376 94 L376 0 Z M403 310 L275 310 L337 512 L403 310 Z M389 921 C326 921 273 871 273 810 C273 745 326 691 390 691 C451 691 504 745 504 808 C504 870 453 921 389 921 L389 921 Z M389 850 C413 850 434 829 434 805 C434 781 413 761 389 761 C364 761 343 781 343 806 C343 830 365 850 389 850 L389 850 Z " />
<glyph glyph-name="AE" unicode="&#xc6;" horiz-adv-x="1213" d="M499 214 L499 152 C501 101 494 95 434 94 L389 94 L389 0 L1151 0 L1151 275 L1033 275 C1027 201 1020 174 1000 141 C969 98 950 93 823 94 L707 94 L707 302 L743 302 C815 302 829 285 834 191 L928 191 L928 495 L834 495 C831 411 815 392 741 389 L707 389 L707 573 L809 573 C966 577 1002 553 1034 419 L1147 419 L1147 667 L210 667 L210 573 L250 573 C300 573 310 569 310 549 C310 541 307 531 301 521 L84 159 C52 112 29 97 -17 94 L-44 94 L-44 0 L309 0 L309 94 L274 94 C239 94 223 100 223 115 C223 124 227 137 235 150 L273 214 L499 214 Z M499 310 L325 310 L475 573 L499 573 L499 310 Z " />
<glyph glyph-name="Ccedilla" unicode="&#xc7;" horiz-adv-x="808" d="M415 -20 C504 -21 588 -3 646 31 C732 86 762 140 771 258 L652 258 C643 194 631 165 601 135 C566 100 517 80 463 80 C405 80 359 103 334 144 C308 186 298 240 298 334 C298 428 308 482 334 524 C359 564 402 586 458 586 C512 586 557 565 584 528 C606 499 616 473 635 402 L768 402 L768 676 L647 676 L629 640 C549 677 506 687 422 687 C183 687 33 548 33 327 C33 124 149 6 371 -17 L371 -99 C385 -97 401 -95 409 -95 C442 -95 463 -110 463 -134 C463 -156 443 -171 412 -171 C373 -171 331 -159 274 -130 L247 -182 C332 -217 381 -230 433 -230 C509 -230 561 -192 561 -136 C561 -87 519 -50 463 -50 C452 -50 433 -52 415 -54 L415 -20 Z " />
<glyph glyph-name="Egrave" unicode="&#xc8;" horiz-adv-x="852" d="M785 667 L16 667 L16 573 L55 573 C116 573 124 566 123 515 L123 152 C126 101 118 95 57 94 L16 94 L16 0 L789 0 L789 275 L669 275 C662 202 655 175 635 141 C602 98 583 93 453 94 L340 94 L340 301 L371 301 C446 301 459 285 464 191 L561 191 L561 495 L464 495 C462 411 446 393 370 389 L340 389 L340 573 L439 573 C600 577 636 553 669 419 L785 419 L785 667 Z M464 723 L521 723 L376 851 C353 872 338 879 321 879 C295 879 272 856 272 830 C272 808 289 788 318 777 L464 723 Z " />
<glyph glyph-name="Eacute" unicode="&#xc9;" horiz-adv-x="852" d="M785 667 L16 667 L16 573 L55 573 C116 573 124 566 123 515 L123 152 C126 101 118 95 57 94 L16 94 L16 0 L789 0 L789 275 L669 275 C662 202 655 175 635 141 C602 98 583 93 453 94 L340 94 L340 301 L371 301 C446 301 459 285 464 191 L561 191 L561 495 L464 495 C462 411 446 393 370 389 L340 389 L340 573 L439 573 C600 577 636 553 669 419 L785 419 L785 667 Z M366 723 L512 777 C541 788 558 808 558 830 C558 857 536 879 509 879 C492 879 478 872 455 851 L309 723 L366 723 Z " />
<glyph glyph-name="Ecircumflex" unicode="&#xca;" horiz-adv-x="852" d="M785 667 L16 667 L16 573 L55 573 C116 573 124 566 123 515 L123 152 C126 101 118 95 57 94 L16 94 L16 0 L789 0 L789 275 L669 275 C662 202 655 175 635 141 C602 98 583 93 453 94 L340 94 L340 301 L371 301 C446 301 459 285 464 191 L561 191 L561 495 L464 495 C462 411 446 393 370 389 L340 389 L340 573 L439 573 C600 577 636 553 669 419 L785 419 L785 667 Z M262 723 L312 723 L426 782 L540 723 L589 723 L487 869 L364 869 L262 723 Z " />
<glyph glyph-name="Edieresis" unicode="&#xcb;" horiz-adv-x="852" d="M785 667 L16 667 L16 573 L55 573 C116 573 124 566 123 515 L123 152 C126 101 118 95 57 94 L16 94 L16 0 L789 0 L789 275 L669 275 C662 202 655 175 635 141 C602 98 583 93 453 94 L340 94 L340 301 L371 301 C446 301 459 285 464 191 L561 191 L561 495 L464 495 C462 411 446 393 370 389 L340 389 L340 573 L439 573 C600 577 636 553 669 419 L785 419 L785 667 Z M312 878 C271 878 235 842 235 803 C235 760 269 726 312 726 C353 726 388 760 388 801 C388 842 352 878 312 878 L312 878 Z M541 878 C500 878 464 842 464 803 C464 760 498 726 541 726 C583 726 617 760 617 801 C617 842 582 878 541 878 L541 878 Z " />
<glyph glyph-name="Igrave" unicode="&#xcc;" horiz-adv-x="481" d="M22 0 L458 0 L458 94 L418 94 C357 95 349 101 350 151 L350 515 C349 565 357 572 418 572 L458 572 L458 667 L22 667 L22 572 L63 572 C123 572 131 565 130 515 L130 151 C131 101 123 95 63 94 L22 94 L22 0 Z M278 723 L336 723 L190 851 C167 871 152 879 135 879 C109 879 86 856 86 830 C86 808 103 788 132 777 L278 723 Z " />
<glyph glyph-name="Iacute" unicode="&#xcd;" horiz-adv-x="481" d="M22 0 L458 0 L458 94 L418 94 C357 95 349 101 350 151 L350 515 C349 565 357 572 418 572 L458 572 L458 667 L22 667 L22 572 L63 572 C123 572 131 565 130 515 L130 151 C131 101 123 95 63 94 L22 94 L22 0 Z M195 723 L341 777 C370 788 387 808 387 830 C387 857 365 879 338 879 C321 879 307 872 284 851 L138 723 L195 723 Z " />
<glyph glyph-name="Icircumflex" unicode="&#xce;" horiz-adv-x="481" d="M22 0 L458 0 L458 94 L418 94 C357 95 349 101 350 151 L350 515 C349 565 357 572 418 572 L458 572 L458 667 L22 667 L22 572 L63 572 C123 572 131 565 130 515 L130 151 C131 101 123 95 63 94 L22 94 L22 0 Z M77 723 L126 723 L240 782 L354 723 L403 723 L301 869 L179 869 L77 723 Z " />
<glyph glyph-name="Idieresis" unicode="&#xcf;" horiz-adv-x="481" d="M22 0 L458 0 L458 94 L418 94 C357 95 349 101 350 151 L350 515 C349 565 357 572 418 572 L458 572 L458 667 L22 667 L22 572 L63 572 C123 572 131 565 130 515 L130 151 C131 101 123 95 63 94 L22 94 L22 0 Z M132 878 C91 878 55 842 55 803 C55 760 89 726 132 726 C173 726 208 760 208 801 C208 842 172 878 132 878 L132 878 Z M350 878 C309 878 273 842 273 803 C273 760 307 726 350 726 C392 726 426 760 426 801 C426 842 391 878 350 878 L350 878 Z " />
<glyph glyph-name="Eth" unicode="&#xd0;" horiz-adv-x="890" d="M20 0 L414 0 C567 0 655 20 729 72 C809 128 850 218 850 334 C850 449 809 539 729 595 C654 647 567 667 414 667 L20 667 L20 573 L60 573 C120 572 128 565 127 515 L127 391 L5 391 L5 306 L127 306 L127 152 C130 102 122 95 61 94 L20 94 L20 0 Z M345 97 L345 306 L470 306 L470 391 L345 391 L345 570 L417 570 C483 570 534 548 559 510 C583 473 596 411 596 334 C596 256 583 194 559 157 C534 119 483 97 417 97 L345 97 Z " />
<glyph glyph-name="Ntilde" unicode="&#xd1;" horiz-adv-x="890" d="M379 667 L16 667 L16 573 L54 573 C112 573 120 566 119 515 L119 152 C120 101 112 95 54 94 L16 94 L16 0 L340 0 L340 94 L305 94 C247 95 239 101 240 152 L240 479 L531 0 L776 0 L776 515 C775 566 783 573 841 573 L869 573 L869 667 L547 667 L547 573 L591 573 C649 572 656 566 654 515 L654 218 L379 667 Z M325 723 C333 752 348 766 370 766 C380 766 390 765 402 761 L460 746 C471 743 483 741 493 741 C521 741 546 752 565 774 C585 797 594 818 605 869 L565 869 C553 837 542 827 519 827 C513 827 504 828 496 830 L437 846 C424 849 411 851 398 851 C336 851 305 815 285 723 L325 723 Z " />
<glyph glyph-name="Ograve" unicode="&#xd2;" horiz-adv-x="923" d="M462 687 C328 687 231 658 153 594 C79 534 37 442 37 339 C37 224 74 138 153 73 C228 10 327 -20 464 -20 C596 -20 695 10 771 73 C848 136 887 224 887 333 C887 555 728 687 462 687 L462 687 Z M462 586 C519 586 566 564 592 524 C619 483 630 428 630 334 C630 241 619 186 592 144 C566 104 520 82 463 82 C404 82 359 104 332 144 C304 186 294 238 294 339 C294 429 305 484 332 524 C359 564 404 586 462 586 L462 586 Z M504 723 L561 723 L416 851 C393 872 378 879 361 879 C335 879 312 856 312 830 C312 808 329 788 358 777 L504 723 Z " />
<glyph glyph-name="Oacute" unicode="&#xd3;" horiz-adv-x="923" d="M462 687 C328 687 231 658 153 594 C79 534 37 442 37 339 C37 224 74 138 153 73 C228 10 327 -20 464 -20 C596 -20 695 10 771 73 C848 136 887 224 887 333 C887 555 728 687 462 687 L462 687 Z M462 586 C519 586 566 564 592 524 C619 483 630 428 630 334 C630 241 619 186 592 144 C566 104 520 82 463 82 C404 82 359 104 332 144 C304 186 294 238 294 339 C294 429 305 484 332 524 C359 564 404 586 462 586 L462 586 Z M406 723 L552 777 C581 788 598 808 598 830 C598 857 576 879 549 879 C532 879 518 872 495 851 L349 723 L406 723 Z " />
<glyph glyph-name="Ocircumflex" unicode="&#xd4;" horiz-adv-x="923" d="M462 687 C328 687 231 658 153 594 C79 534 37 442 37 339 C37 224 74 138 153 73 C228 10 327 -20 464 -20 C596 -20 695 10 771 73 C848 136 887 224 887 333 C887 555 728 687 462 687 L462 687 Z M462 586 C519 586 566 564 592 524 C619 483 630 428 630 334 C630 241 619 186 592 144 C566 104 520 82 463 82 C404 82 359 104 332 144 C304 186 294 238 294 339 C294 429 305 484 332 524 C359 564 404 586 462 586 L462 586 Z M302 723 L352 723 L466 782 L580 723 L629 723 L527 869 L404 869 L302 723 Z " />
<glyph glyph-name="Otilde" unicode="&#xd5;" horiz-adv-x="923" d="M462 687 C328 687 231 658 153 594 C79 534 37 442 37 339 C37 224 74 138 153 73 C228 10 327 -20 464 -20 C596 -20 695 10 771 73 C848 136 887 224 887 333 C887 555 728 687 462 687 L462 687 Z M462 586 C519 586 566 564 592 524 C619 483 630 428 630 334 C630 241 619 186 592 144 C566 104 520 82 463 82 C404 82 359 104 332 144 C304 186 294 238 294 339 C294 429 305 484 332 524 C359 564 404 586 462 586 L462 586 Z M346 723 C354 752 369 766 391 766 C401 766 411 765 423 761 L481 746 C492 743 504 741 514 741 C542 741 567 752 586 774 C606 797 615 818 626 869 L586 869 C574 837 563 827 540 827 C534 827 525 828 517 830 L458 846 C445 849 432 851 419 851 C357 851 326 815 306 723 L346 723 Z " />
<glyph glyph-name="Odieresis" unicode="&#xd6;" horiz-adv-x="923" d="M462 687 C328 687 231 658 153 594 C79 534 37 442 37 339 C37 224 74 138 153 73 C228 10 327 -20 464 -20 C596 -20 695 10 771 73 C848 136 887 224 887 333 C887 555 728 687 462 687 L462 687 Z M465 586 C519 586 566 563 592 524 C619 483 630 428 630 334 C630 241 619 186 592 144 C566 104 520 82 462 82 C404 82 359 104 332 144 C305 185 294 238 294 336 C294 429 305 484 332 524 C360 565 404 586 465 586 L465 586 Z M354 878 C314 878 277 842 277 803 C277 760 311 726 354 726 C395 726 430 760 430 801 C430 842 394 878 354 878 L354 878 Z M583 878 C542 878 506 843 506 803 C506 760 540 726 583 726 C625 726 659 760 659 801 C659 842 624 878 583 878 L583 878 Z " />
<glyph glyph-name="multiply" unicode="&#xd7;" horiz-adv-x="710" d="M94 178 L200 82 L355 223 L510 82 L616 178 L460 319 L616 460 L510 556 L355 415 L200 556 L94 460 L249 319 L94 178 Z " />
<glyph glyph-name="Oslash" unicode="&#xd8;" horiz-adv-x="923" d="M794 707 L713 633 C646 670 564 687 460 687 C327 687 229 657 153 594 C76 532 37 443 37 334 C37 237 65 162 125 98 L40 20 L107 -46 L200 39 C269 -1 354 -20 463 -20 C596 -20 694 10 771 73 C848 135 887 224 887 333 C887 434 856 513 790 577 L862 642 L794 707 Z M298 255 C295 285 294 306 294 336 C294 429 305 483 332 524 C359 564 405 586 462 586 C520 586 563 565 592 523 L298 255 Z M624 425 C628 395 630 367 630 329 C630 156 579 82 461 82 C399 82 355 106 326 154 L624 425 Z " />
<glyph glyph-name="Ugrave" unicode="&#xd9;" horiz-adv-x="852" d="M504 573 L543 573 C602 572 609 566 608 516 L608 214 C608 164 600 139 577 117 C554 95 512 83 460 83 C420 83 390 91 368 109 C341 130 334 155 334 222 L334 516 C333 566 341 573 401 573 L447 573 L447 667 L5 667 L5 573 L47 573 C107 573 115 566 114 516 L114 189 C114 126 134 83 179 46 C235 2 313 -20 420 -20 C630 -20 743 56 743 197 L743 519 C742 565 750 573 807 573 L843 573 L843 667 L504 667 L504 573 Z M464 723 L521 723 L375 851 C353 872 338 879 321 879 C295 879 272 856 272 830 C272 808 289 788 318 777 L464 723 Z " />
<glyph glyph-name="Uacute" unicode="&#xda;" horiz-adv-x="852" d="M504 573 L543 573 C602 572 609 566 608 516 L608 214 C608 164 600 139 577 117 C554 95 512 83 460 83 C420 83 390 91 368 109 C341 130 334 155 334 222 L334 516 C333 566 341 573 401 573 L447 573 L447 667 L5 667 L5 573 L47 573 C107 573 115 566 114 516 L114 189 C114 126 134 83 179 46 C235 2 313 -20 420 -20 C630 -20 743 56 743 197 L743 519 C742 565 750 573 807 573 L843 573 L843 667 L504 667 L504 573 Z M366 723 L512 777 C541 788 558 808 558 830 C558 857 536 879 509 879 C492 879 478 872 455 851 L309 723 L366 723 Z " />
<glyph glyph-name="Ucircumflex" unicode="&#xdb;" horiz-adv-x="852" d="M504 573 L543 573 C602 572 609 566 608 516 L608 214 C608 164 600 139 577 117 C554 95 512 83 460 83 C420 83 390 91 368 109 C341 130 334 155 334 222 L334 516 C333 566 341 573 401 573 L447 573 L447 667 L5 667 L5 573 L47 573 C107 573 115 566 114 516 L114 189 C114 126 134 83 179 46 C235 2 313 -20 420 -20 C630 -20 743 56 743 197 L743 519 C742 565 750 573 807 573 L843 573 L843 667 L504 667 L504 573 Z M262 723 L312 723 L426 782 L540 723 L589 723 L487 869 L364 869 L262 723 Z " />
<glyph glyph-name="Udieresis" unicode="&#xdc;" horiz-adv-x="852" d="M504 573 L543 573 C602 572 609 566 608 516 L608 214 C608 164 600 139 577 117 C554 95 512 83 460 83 C420 83 390 91 368 109 C341 130 334 155 334 222 L334 516 C333 566 341 573 401 573 L447 573 L447 667 L5 667 L5 573 L47 573 C107 573 115 566 114 516 L114 189 C114 126 134 83 179 46 C235 2 313 -20 420 -20 C630 -20 743 56 743 197 L743 519 C742 565 750 573 807 573 L843 573 L843 667 L504 667 L504 573 Z M329 878 C288 878 252 842 252 803 C252 760 286 726 329 726 C370 726 405 760 405 801 C405 842 369 878 329 878 L329 878 Z M559 878 C518 878 482 843 482 803 C482 760 516 726 559 726 C601 726 635 760 635 801 C635 842 600 878 559 878 L559 878 Z " />
<glyph glyph-name="Yacute" unicode="&#xdd;" horiz-adv-x="754" d="M-27 573 L-6 573 C38 570 62 555 94 510 L266 268 L266 152 C268 101 261 95 200 94 L154 94 L154 0 L600 0 L600 94 L554 94 C494 95 486 101 487 152 L487 268 L661 506 C691 553 715 570 755 573 L777 573 L777 667 L448 667 L448 573 L470 573 C495 573 510 566 510 555 C510 545 506 533 500 523 L424 393 L342 521 C334 534 331 542 331 549 C331 565 345 573 377 573 L400 573 L400 667 L-27 667 L-27 573 Z M340 723 L486 777 C514 788 531 808 531 830 C531 857 509 879 483 879 C465 879 451 872 428 851 L282 723 L340 723 Z " />
<glyph glyph-name="Thorn" unicode="&#xde;" horiz-adv-x="819" d="M16 0 L457 0 L457 94 L416 94 C363 94 355 102 355 145 L355 154 L496 154 C615 154 674 166 723 199 C769 231 795 281 795 340 C795 397 771 446 728 477 C680 513 617 526 496 526 L355 526 L355 532 C356 565 367 572 416 572 L457 572 L457 667 L16 667 L16 572 L52 572 C101 572 112 565 113 532 L113 145 C114 102 105 94 52 94 L16 94 L16 0 Z M356 243 L356 435 L409 435 C526 435 566 411 566 340 C566 269 523 243 405 243 L356 243 Z " />
<glyph glyph-name="germandbls" unicode="&#xdf;" horiz-adv-x="726" d="M22 88 L22 0 L281 0 L281 490 C281 540 285 560 300 576 C315 592 345 603 376 603 C432 603 465 577 465 531 C465 478 428 451 352 449 L352 361 L364 361 L381 361 C414 360 438 353 461 339 C496 317 505 287 505 192 C505 135 504 120 501 106 C497 86 482 76 457 76 C430 76 420 86 420 116 L420 174 L349 174 L349 113 C349 79 357 50 373 31 C396 4 442 -13 493 -13 C618 -13 703 78 703 211 C703 276 679 328 633 362 C603 385 575 396 509 411 C555 422 586 434 605 447 C638 471 656 505 656 545 C656 636 561 687 389 687 C278 687 201 667 145 623 C99 587 86 549 86 449 L86 135 C86 96 79 88 40 88 L22 88 Z " />
<glyph glyph-name="agrave" unicode="&#xe0;" horiz-adv-x="694" d="M682 189 L616 189 L616 133 C616 109 611 103 591 103 C573 103 568 110 568 133 L568 313 C568 381 558 411 528 435 C489 467 403 486 301 486 C138 486 38 437 38 356 C38 304 78 272 144 272 C204 272 242 299 242 342 C242 374 226 391 184 404 C213 417 228 421 254 421 C313 421 352 390 352 343 C352 291 319 272 208 258 C68 240 16 202 16 115 C16 31 79 -17 188 -17 C231 -17 278 -9 314 6 C339 16 351 24 377 50 C418 -1 453 -17 525 -17 C581 -17 624 -3 651 23 C674 46 682 72 682 128 L682 189 Z M355 157 C356 114 326 87 276 87 C236 87 208 106 208 134 C208 152 223 168 249 178 C267 184 285 191 302 197 C306 198 330 208 354 218 L355 157 Z M420 534 L277 686 C243 722 222 735 198 735 C166 735 141 711 141 679 C141 654 156 637 194 618 L362 534 L420 534 Z " />
<glyph glyph-name="aacute" unicode="&#xe1;" horiz-adv-x="694" d="M682 189 L616 189 L616 133 C616 109 611 103 591 103 C573 103 568 110 568 133 L568 313 C568 381 558 411 528 435 C489 467 403 486 301 486 C138 486 38 437 38 356 C38 304 78 272 144 272 C204 272 242 299 242 342 C242 374 226 391 184 404 C213 417 228 421 254 421 C313 421 352 390 352 343 C352 291 319 272 208 258 C68 240 16 202 16 115 C16 31 79 -17 188 -17 C231 -17 278 -9 314 6 C339 16 351 24 377 50 C418 -1 453 -17 525 -17 C581 -17 624 -3 651 23 C674 46 682 72 682 128 L682 189 Z M355 157 C356 114 326 87 276 87 C236 87 208 106 208 134 C208 152 223 168 249 178 C267 184 285 191 302 197 C306 198 330 208 354 218 L355 157 Z M237 534 L295 534 L463 617 C500 636 516 654 516 679 C516 711 492 735 460 735 C434 735 414 723 380 686 L237 534 Z " />
<glyph glyph-name="acircumflex" unicode="&#xe2;" horiz-adv-x="694" d="M682 189 L616 189 L616 133 C616 109 611 103 591 103 C573 103 568 110 568 133 L568 313 C568 381 558 411 528 435 C489 467 403 486 301 486 C138 486 38 437 38 356 C38 304 78 272 144 272 C204 272 242 299 242 342 C242 374 226 391 184 404 C213 417 228 421 254 421 C313 421 352 390 352 343 C352 291 319 272 208 258 C68 240 16 202 16 115 C16 31 79 -17 188 -17 C231 -17 278 -9 314 6 C339 16 351 24 377 50 C418 -1 453 -17 525 -17 C581 -17 624 -3 651 23 C674 46 682 72 682 128 L682 189 Z M355 157 C356 114 326 87 276 87 C236 87 208 106 208 134 C208 152 223 168 249 178 C267 184 285 191 302 197 C306 198 330 208 354 218 L355 157 Z M156 534 L207 534 L321 622 L434 534 L486 534 L369 724 L273 724 L156 534 Z " />
<glyph glyph-name="atilde" unicode="&#xe3;" horiz-adv-x="694" d="M682 189 L616 189 L616 133 C616 109 611 103 591 103 C573 103 568 110 568 133 L568 313 C568 381 558 411 528 435 C489 467 403 486 301 486 C138 486 38 437 38 356 C38 304 78 272 144 272 C204 272 242 299 242 342 C242 374 226 391 184 404 C213 417 228 421 254 421 C313 421 352 390 352 343 C352 291 319 272 208 258 C68 240 16 202 16 115 C16 31 79 -17 188 -17 C231 -17 278 -9 314 6 C339 16 351 24 377 50 C418 -1 453 -17 525 -17 C581 -17 624 -3 651 23 C674 46 682 72 682 128 L682 189 Z M355 157 C356 114 326 87 276 87 C236 87 208 106 208 134 C208 152 223 168 249 178 C267 184 285 191 302 197 C306 198 330 208 354 218 L355 157 Z M192 549 C201 582 215 597 239 597 C250 597 260 596 273 592 L333 576 C344 573 356 571 367 571 C397 571 424 583 443 605 C462 629 472 651 485 708 L443 708 C430 672 419 661 395 661 C388 661 379 662 371 664 L309 681 C295 684 282 686 268 686 C204 686 172 649 149 549 L192 549 Z " />
<glyph glyph-name="adieresis" unicode="&#xe4;" horiz-adv-x="694" d="M682 189 L616 189 L616 133 C616 109 611 103 591 103 C573 103 568 110 568 133 L568 313 C568 381 558 411 528 435 C489 467 403 486 301 486 C138 486 38 437 38 356 C38 304 78 272 144 272 C204 272 242 299 242 342 C242 374 226 391 184 404 C213 417 228 421 254 421 C313 421 352 390 352 343 C352 291 319 272 208 258 C68 240 16 202 16 115 C16 31 79 -17 188 -17 C231 -17 278 -9 314 6 C339 16 351 24 377 50 C418 -1 453 -17 525 -17 C581 -17 624 -3 651 23 C674 46 682 72 682 128 L682 189 Z M355 157 C356 114 326 87 276 87 C236 87 208 106 208 134 C208 152 223 168 249 178 C267 184 285 191 302 197 C306 198 330 208 354 218 L355 157 Z M207 715 C165 715 128 679 128 638 C128 594 163 559 208 559 C251 559 284 593 284 636 C284 680 250 715 207 715 L207 715 Z M440 715 C398 715 361 679 361 638 C361 594 396 559 441 559 C484 559 517 593 517 636 C517 680 483 715 440 715 L440 715 Z " />
<glyph glyph-name="aring" unicode="&#xe5;" horiz-adv-x="694" d="M682 189 L616 189 L616 133 C616 109 611 103 591 103 C573 103 568 110 568 133 L568 313 C568 381 558 411 528 435 C489 467 403 486 301 486 C138 486 38 437 38 356 C38 304 78 272 144 272 C204 272 242 299 242 342 C242 374 226 391 184 404 C213 417 228 421 254 421 C313 421 352 390 352 343 C352 291 319 272 208 258 C68 240 16 202 16 115 C16 31 79 -17 188 -17 C231 -17 278 -9 314 6 C339 16 351 24 377 50 C418 -1 453 -17 525 -17 C581 -17 624 -3 651 23 C674 46 682 72 682 128 L682 189 Z M355 157 C356 114 326 87 276 87 C236 87 208 106 208 134 C208 152 223 168 249 178 C267 184 285 191 302 197 C306 198 330 208 354 218 L355 157 Z M317 793 C243 793 180 732 180 659 C180 581 240 520 317 520 C392 520 453 582 453 657 C453 731 391 793 317 793 L317 793 Z M316 715 C348 715 375 688 375 656 C375 624 349 598 317 598 C284 598 258 624 258 657 C258 688 285 715 316 715 L316 715 Z " />
<glyph glyph-name="ae" unicode="&#xe6;" horiz-adv-x="928" d="M759 163 C752 137 746 122 737 110 C719 87 689 74 657 74 C623 74 592 89 575 113 C561 134 556 157 555 207 L887 207 C886 298 877 340 845 386 C801 452 729 486 631 486 C570 486 538 477 470 442 C394 477 354 486 286 486 C211 486 141 470 93 443 C59 424 38 390 38 356 C38 304 78 272 143 272 C202 272 240 299 240 342 C240 374 224 391 183 404 C210 417 223 420 252 420 C313 420 350 391 350 344 C350 291 316 270 207 257 C69 242 16 203 16 116 C16 30 81 -17 200 -17 C248 -17 298 -8 333 6 C364 19 382 33 417 69 C485 4 541 -18 636 -18 C710 -18 780 3 821 38 C855 66 872 97 889 163 L759 163 Z M555 294 C558 335 562 351 571 366 C582 385 608 398 633 398 C657 398 679 387 692 367 C704 350 707 333 708 294 L555 294 Z M353 156 C354 113 324 87 275 87 C236 87 208 106 208 134 C208 152 223 167 249 177 C266 184 283 190 301 197 C305 198 328 208 352 218 L353 156 Z " />
<glyph glyph-name="ccedilla" unicode="&#xe7;" horiz-adv-x="579" d="M298 -19 L310 -19 C368 -19 422 -6 468 18 C519 45 540 83 549 163 L415 163 C413 137 409 120 401 108 C387 87 359 74 329 74 C299 74 271 88 256 109 C241 133 234 169 234 234 C234 299 241 337 257 360 C272 383 304 397 341 397 C372 397 384 392 402 373 C356 368 333 345 333 304 C333 256 371 226 433 226 C506 226 550 263 550 327 C550 363 534 398 505 428 C467 465 399 487 320 487 C136 487 22 390 22 235 C22 156 52 89 109 44 C148 12 184 -2 254 -14 L254 -98 C268 -96 284 -94 292 -94 C325 -94 346 -109 346 -134 C346 -156 326 -171 295 -171 C255 -171 215 -159 157 -130 L129 -182 C214 -217 263 -230 315 -230 C392 -230 442 -192 442 -136 C442 -86 401 -49 345 -49 C334 -49 316 -51 298 -53 L298 -19 Z " />
<glyph glyph-name="egrave" unicode="&#xe8;" horiz-adv-x="623" d="M454 163 C448 137 441 121 431 110 C413 87 382 74 349 74 C314 74 282 89 265 113 C250 134 245 157 244 207 L586 207 C585 299 575 341 543 386 C497 452 418 487 314 487 C137 487 22 388 22 235 C22 78 134 -18 317 -18 C400 -18 475 3 519 38 C553 66 571 97 588 163 L454 163 Z M244 294 C247 334 251 351 260 366 C273 385 298 398 324 398 C349 398 372 386 385 367 C397 351 401 333 402 294 L244 294 Z M385 534 L242 686 C208 722 187 735 163 735 C131 735 106 711 106 679 C106 654 121 637 159 618 L327 534 L385 534 Z " />
<glyph glyph-name="eacute" unicode="&#xe9;" horiz-adv-x="623" d="M454 163 C448 137 441 121 431 110 C413 87 382 74 349 74 C314 74 282 89 265 113 C250 134 245 157 244 207 L586 207 C585 299 575 341 543 386 C497 452 418 487 314 487 C137 487 22 388 22 235 C22 78 134 -18 317 -18 C400 -18 475 3 519 38 C553 66 571 97 588 163 L454 163 Z M244 294 C247 334 251 351 260 366 C273 385 298 398 324 398 C349 398 372 386 385 367 C397 351 401 333 402 294 L244 294 Z M209 534 L267 534 L435 617 C472 636 488 654 488 679 C488 711 464 735 432 735 C407 735 387 723 352 686 L209 534 Z " />
<glyph glyph-name="ecircumflex" unicode="&#xea;" horiz-adv-x="623" d="M454 163 C448 137 441 121 431 110 C413 87 382 74 349 74 C314 74 282 89 265 113 C250 134 245 157 244 207 L586 207 C585 299 575 341 543 386 C497 452 418 487 314 487 C137 487 22 388 22 235 C22 78 134 -18 317 -18 C400 -18 475 3 519 38 C553 66 571 97 588 163 L454 163 Z M244 294 C247 334 251 351 260 366 C273 385 298 398 324 398 C349 398 372 386 385 367 C397 351 401 333 402 294 L244 294 Z M146 534 L198 534 L311 622 L425 534 L477 534 L359 724 L264 724 L146 534 Z " />
<glyph glyph-name="edieresis" unicode="&#xeb;" horiz-adv-x="623" d="M454 163 C448 137 441 121 431 110 C413 87 382 74 349 74 C314 74 282 89 265 113 C250 134 245 157 244 207 L586 207 C585 299 575 341 543 386 C497 452 418 487 314 487 C137 487 22 388 22 235 C22 78 134 -18 317 -18 C400 -18 475 3 519 38 C553 66 571 97 588 163 L454 163 Z M244 294 C247 334 251 351 260 366 C273 385 298 398 324 398 C349 398 372 386 385 367 C397 351 401 333 402 294 L244 294 Z M196 715 C154 715 117 679 117 638 C117 594 152 559 197 559 C240 559 273 593 273 636 C273 680 239 715 196 715 L196 715 Z M429 715 C387 715 350 679 350 638 C350 594 385 559 430 559 C473 559 506 593 506 636 C506 680 472 715 429 715 L429 715 Z " />
<glyph glyph-name="igrave" unicode="&#xec;" horiz-adv-x="399" d="M22 0 L380 0 L380 87 L359 87 C309 88 301 95 300 134 L300 469 L22 469 L22 382 L44 382 C87 381 94 374 95 335 L95 134 C94 95 87 88 44 87 L22 87 L22 0 Z M280 534 L167 684 C138 722 120 735 96 735 C63 735 40 714 40 685 C40 660 55 640 91 618 L227 534 L280 534 Z " />
<glyph glyph-name="iacute" unicode="&#xed;" horiz-adv-x="399" d="M22 0 L380 0 L380 87 L359 87 C309 88 301 95 300 134 L300 469 L22 469 L22 382 L44 382 C87 381 94 374 95 335 L95 134 C94 95 87 88 44 87 L22 87 L22 0 Z M99 534 L152 534 L288 618 C324 640 339 660 339 685 C339 714 316 735 283 735 C258 735 240 722 212 684 L99 534 Z " />
<glyph glyph-name="icircumflex" unicode="&#xee;" horiz-adv-x="392" d="M15 0 L373 0 L373 87 L352 87 C302 88 294 95 293 134 L293 469 L15 469 L15 382 L37 382 C80 381 87 374 88 335 L88 134 C87 95 80 88 37 87 L15 87 L15 0 Z M23 534 L74 534 L178 622 L281 534 L332 534 L224 724 L132 724 L23 534 Z " />
<glyph glyph-name="idieresis" unicode="&#xef;" horiz-adv-x="386" d="M372 87 L351 87 C301 88 293 95 292 134 L292 469 L14 469 L14 382 L36 382 C79 381 86 374 87 335 L87 134 C86 95 79 88 36 87 L14 87 L14 0 L372 0 L372 87 Z M71 715 C29 715 -8 679 -8 638 C-8 594 27 559 72 559 C115 559 148 593 148 636 C148 680 114 715 71 715 L71 715 Z M292 715 C250 715 213 679 213 638 C213 594 248 559 293 559 C336 559 369 593 369 636 C369 680 335 715 292 715 L292 715 Z " />
<glyph glyph-name="eth" unicode="&#xf0;" horiz-adv-x="672" d="M196 667 C217 641 226 629 244 603 L159 573 L191 506 L286 540 C306 512 311 504 325 481 C315 483 310 483 302 483 C233 483 159 459 106 419 C51 378 23 315 23 234 C23 154 51 92 106 50 C164 6 242 -17 336 -17 C530 -17 649 79 649 236 C649 309 625 371 573 431 C541 469 539 471 440 565 L418 586 L492 613 L459 680 L356 643 L343 655 L330 667 L196 667 Z M336 394 C413 394 438 354 438 232 C438 115 412 75 336 75 C260 75 234 115 234 234 C234 354 260 394 336 394 L336 394 Z " />
<glyph glyph-name="ntilde" unicode="&#xf1;" horiz-adv-x="754" d="M743 87 L719 87 C670 88 662 94 661 134 L661 308 C661 384 652 416 623 441 C593 467 545 482 490 482 C451 482 414 475 382 461 C353 449 334 434 299 396 L299 469 L11 469 L11 382 L41 382 C90 381 98 374 99 335 L99 134 C98 95 90 88 41 87 L11 87 L11 0 L358 0 L358 87 L352 87 C304 87 294 95 294 134 L294 288 C294 346 329 383 385 383 C440 383 466 357 466 303 L466 134 C465 92 458 87 398 87 L398 0 L743 0 L743 87 Z M252 549 C261 582 275 597 299 597 C310 597 320 596 332 592 L393 576 C404 573 416 571 427 571 C457 571 484 583 503 605 C522 629 532 651 545 708 L502 708 C490 672 479 661 455 661 C448 661 439 662 431 664 L368 681 C355 684 341 686 328 686 C264 686 231 649 209 549 L252 549 Z " />
<glyph glyph-name="ograve" unicode="&#xf2;" horiz-adv-x="672" d="M340 486 C140 486 23 393 23 234 C23 78 141 -17 336 -17 C529 -17 649 79 649 234 C649 388 529 486 340 486 L340 486 Z M336 394 C413 394 438 354 438 232 C438 115 412 75 336 75 C260 75 234 115 234 234 C234 354 260 394 336 394 L336 394 Z M409 534 L266 686 C232 722 211 735 187 735 C155 735 130 711 130 679 C130 654 145 637 183 618 L351 534 L409 534 Z " />
<glyph glyph-name="oacute" unicode="&#xf3;" horiz-adv-x="672" d="M340 486 C140 486 23 393 23 234 C23 78 141 -17 336 -17 C529 -17 649 79 649 234 C649 388 529 486 340 486 L340 486 Z M336 394 C413 394 438 354 438 232 C438 115 412 75 336 75 C260 75 234 115 234 234 C234 354 260 394 336 394 L336 394 Z M233 534 L292 534 L459 617 C497 636 513 654 513 679 C513 711 489 735 457 735 C431 735 411 723 376 686 L233 534 Z " />
<glyph glyph-name="ocircumflex" unicode="&#xf4;" horiz-adv-x="672" d="M340 486 C140 486 23 393 23 234 C23 78 141 -17 336 -17 C529 -17 649 79 649 234 C649 388 529 486 340 486 L340 486 Z M336 394 C413 394 438 354 438 232 C438 115 412 75 336 75 C260 75 234 115 234 234 C234 354 260 394 336 394 L336 394 Z M171 534 L222 534 L336 622 L449 534 L501 534 L384 724 L288 724 L171 534 Z " />
<glyph glyph-name="otilde" unicode="&#xf5;" horiz-adv-x="672" d="M340 486 C140 486 23 393 23 234 C23 78 141 -17 336 -17 C529 -17 649 79 649 234 C649 388 529 486 340 486 L340 486 Z M336 394 C413 394 438 354 438 232 C438 115 412 75 336 75 C260 75 234 115 234 234 C234 354 260 394 336 394 L336 394 Z M211 549 C219 582 234 597 258 597 C269 597 279 596 291 592 L351 576 C363 573 375 571 386 571 C416 571 443 583 462 605 C481 629 490 651 504 708 L461 708 C449 672 438 661 414 661 C407 661 398 662 389 664 L327 681 C314 684 300 686 287 686 C223 686 190 649 168 549 L211 549 Z " />
<glyph glyph-name="odieresis" unicode="&#xf6;" horiz-adv-x="672" d="M339 486 C139 486 22 393 22 234 C22 78 140 -17 335 -17 C528 -17 648 79 648 234 C648 388 528 486 339 486 L339 486 Z M335 394 C412 394 437 354 437 232 C437 115 411 75 335 75 C259 75 233 115 233 234 C233 354 259 394 335 394 L335 394 Z M221 715 C179 715 142 679 142 638 C142 594 177 559 222 559 C265 559 298 593 298 636 C298 680 264 715 221 715 L221 715 Z M454 715 C412 715 375 679 375 638 C375 594 410 559 455 559 C498 559 531 593 531 636 C531 680 497 715 454 715 L454 715 Z " />
<glyph glyph-name="divide" unicode="&#xf7;" horiz-adv-x="549" d="M273 126 C239 126 211 99 211 64 C211 30 238 2 273 2 C306 2 334 30 334 64 C334 98 306 126 273 126 L273 126 Z M273 525 C239 525 211 498 211 463 C211 429 238 401 273 401 C306 401 334 429 334 463 C334 497 306 525 273 525 L273 525 Z M10 294 L10 239 L536 239 L536 294 L10 294 Z " />
<glyph glyph-name="oslash" unicode="&#xf8;" horiz-adv-x="672" d="M566 517 L501 456 C452 476 398 486 335 486 C142 486 24 391 24 235 C24 163 44 111 88 66 L23 6 L86 -50 L159 18 C210 -5 268 -17 336 -17 C529 -17 649 79 649 234 C649 307 625 365 575 410 L631 463 L566 517 Z M235 205 L235 236 C235 353 261 394 336 394 C369 394 391 387 409 369 L235 205 Z M436 280 C438 260 438 249 438 232 C438 115 412 75 336 75 C297 75 272 86 256 110 L436 280 Z " />
<glyph glyph-name="ugrave" unicode="&#xf9;" horiz-adv-x="754" d="M443 0 L735 0 L735 87 L708 87 C656 88 647 95 646 134 L646 469 L385 469 L385 381 L403 381 C444 380 450 374 451 335 L451 181 C451 123 414 86 354 86 C296 86 269 112 269 166 L269 469 L11 469 L11 381 L27 381 C67 380 73 374 74 335 L74 156 C74 80 83 49 113 24 C143 -2 192 -17 249 -17 C287 -17 326 -10 358 4 C388 16 407 31 443 69 L443 0 Z M451 534 L308 686 C274 722 253 735 228 735 C196 735 171 711 171 679 C171 654 186 637 224 618 L392 534 L451 534 Z " />
<glyph glyph-name="uacute" unicode="&#xfa;" horiz-adv-x="754" d="M443 0 L735 0 L735 87 L708 87 C656 88 647 95 646 134 L646 469 L385 469 L385 381 L403 381 C444 380 450 374 451 335 L451 181 C451 123 414 86 354 86 C296 86 269 112 269 166 L269 469 L11 469 L11 381 L27 381 C67 380 73 374 74 335 L74 156 C74 80 83 49 113 24 C143 -2 192 -17 249 -17 C287 -17 326 -10 358 4 C388 16 407 31 443 69 L443 0 Z M275 534 L333 534 L501 617 C538 636 554 654 554 679 C554 711 530 735 498 735 C472 735 452 723 418 686 L275 534 Z " />
<glyph glyph-name="ucircumflex" unicode="&#xfb;" horiz-adv-x="754" d="M443 0 L735 0 L735 87 L708 87 C656 88 647 95 646 134 L646 469 L385 469 L385 381 L403 381 C444 380 450 374 451 335 L451 181 C451 123 414 86 354 86 C296 86 269 112 269 166 L269 469 L11 469 L11 381 L27 381 C67 380 73 374 74 335 L74 156 C74 80 83 49 113 24 C143 -2 192 -17 249 -17 C287 -17 326 -10 358 4 C388 16 407 31 443 69 L443 0 Z M201 534 L253 534 L366 622 L479 534 L531 534 L414 724 L318 724 L201 534 Z " />
<glyph glyph-name="udieresis" unicode="&#xfc;" horiz-adv-x="754" d="M443 0 L735 0 L735 87 L708 87 C656 88 647 95 646 134 L646 469 L385 469 L385 381 L403 381 C444 380 450 374 451 335 L451 181 C451 123 414 86 354 86 C296 86 269 112 269 166 L269 469 L11 469 L11 381 L27 381 C67 380 73 374 74 335 L74 156 C74 80 83 49 113 24 C143 -2 192 -17 249 -17 C287 -17 326 -10 358 4 C388 16 407 31 443 69 L443 0 Z M265 715 C223 715 186 679 186 638 C186 594 221 559 266 559 C309 559 342 593 342 636 C342 680 308 715 265 715 L265 715 Z M498 715 C456 715 419 679 419 638 C419 594 454 559 499 559 C542 559 575 593 575 636 C575 680 541 715 498 715 L498 715 Z " />
<glyph glyph-name="yacute" unicode="&#xfd;" horiz-adv-x="634" d="M402 382 C449 380 462 375 462 359 C462 354 460 346 457 337 L390 174 L303 338 C297 349 294 357 294 363 C294 377 299 379 342 382 L342 469 L-1 469 L-1 382 L19 382 C55 380 62 374 95 306 L270 -51 C232 -118 196 -147 151 -147 C135 -147 126 -143 111 -130 C160 -118 181 -98 181 -60 C181 -17 141 13 86 13 C22 13 -23 -27 -23 -83 C-23 -162 51 -214 164 -214 C229 -214 283 -196 322 -162 C359 -130 400 -77 415 -40 L565 329 C579 369 596 381 641 382 L641 469 L402 469 L402 382 Z M214 534 L272 534 L440 617 C478 636 494 654 494 679 C494 711 470 735 438 735 C412 735 392 723 357 686 L214 534 Z " />
<glyph glyph-name="thorn" unicode="&#xfe;" horiz-adv-x="709" d="M298 667 L18 667 L18 580 L45 580 C94 579 102 572 103 533 L103 -80 C102 -119 94 -126 48 -127 L20 -127 L20 -214 L380 -214 L380 -127 C308 -126 300 -122 298 -80 L298 53 C350 2 396 -17 463 -17 C599 -17 684 81 684 237 C684 397 605 485 461 485 C394 485 353 468 298 419 L298 667 Z M387 385 C445 385 474 336 474 235 C474 135 446 87 387 87 C360 87 338 98 323 119 C305 145 299 173 299 231 C299 335 328 385 387 385 L387 385 Z " />
<glyph glyph-name="ydieresis" unicode="&#xff;" horiz-adv-x="634" d="M402 382 C449 380 462 375 462 359 C462 354 460 346 457 337 L390 174 L303 338 C297 349 294 357 294 363 C294 377 299 379 342 382 L342 469 L-1 469 L-1 382 L19 382 C55 380 62 374 95 306 L270 -51 C232 -118 196 -147 151 -147 C135 -147 126 -143 111 -130 C160 -118 181 -98 181 -60 C181 -17 141 13 86 13 C22 13 -23 -27 -23 -83 C-23 -162 51 -214 164 -214 C229 -214 283 -196 322 -162 C359 -130 400 -77 415 -40 L565 329 C579 369 596 381 641 382 L641 469 L402 469 L402 382 Z M205 715 C163 715 126 679 126 638 C126 594 161 559 206 559 C249 559 282 593 282 636 C282 680 248 715 205 715 L205 715 Z M438 715 C396 715 359 679 359 638 C359 594 394 559 439 559 C482 559 515 593 515 636 C515 680 481 715 438 715 L438 715 Z " />
<glyph glyph-name="Amacron" unicode="&#x100;" horiz-adv-x="770" d="M376 0 L821 0 L821 94 L782 94 C732 96 727 100 704 165 L532 667 L267 667 L74 163 C54 112 37 97 -5 94 L-33 94 L-33 0 L296 0 L296 94 L259 94 C223 94 208 100 208 114 C208 122 211 132 218 151 L241 214 L438 214 L464 143 C467 134 469 124 469 115 C469 96 464 94 409 94 L376 94 L376 0 Z M403 310 L275 310 L337 512 L403 310 Z M245 754 L551 754 L551 838 L245 838 L245 754 Z " />
<glyph glyph-name="amacron" unicode="&#x101;" horiz-adv-x="694" d="M682 189 L616 189 L616 133 C616 109 611 103 591 103 C573 103 568 110 568 133 L568 313 C568 381 558 411 528 435 C489 467 403 486 301 486 C138 486 38 437 38 356 C38 304 78 272 144 272 C204 272 242 299 242 342 C242 374 226 391 184 404 C213 417 228 421 254 421 C313 421 352 390 352 343 C352 291 319 272 208 258 C68 240 16 202 16 115 C16 31 79 -17 188 -17 C231 -17 278 -9 314 6 C339 16 351 24 377 50 C418 -1 453 -17 525 -17 C581 -17 624 -3 651 23 C674 46 682 72 682 128 L682 189 Z M355 157 C356 114 326 87 276 87 C236 87 208 106 208 134 C208 152 223 168 249 178 C267 184 285 191 302 197 C306 198 330 208 354 218 L355 157 Z M189 585 L504 585 L504 672 L189 672 L189 585 Z " />
<glyph glyph-name="Abreve" unicode="&#x102;" horiz-adv-x="770" d="M376 0 L821 0 L821 94 L782 94 C732 96 727 100 704 165 L532 667 L267 667 L74 163 C54 112 37 97 -5 94 L-33 94 L-33 0 L296 0 L296 94 L259 94 C223 94 208 100 208 114 C208 122 211 132 218 151 L241 214 L438 214 L464 143 C467 134 469 124 469 115 C469 96 464 94 409 94 L376 94 L376 0 Z M403 310 L275 310 L337 512 L403 310 Z M228 869 C240 816 251 793 274 769 C304 740 347 723 394 723 C443 723 486 740 516 769 C539 793 550 816 561 869 L513 869 C504 846 495 836 478 828 C457 819 429 814 395 814 C325 814 295 828 276 869 L228 869 Z " />
<glyph glyph-name="abreve" unicode="&#x103;" horiz-adv-x="694" d="M682 189 L616 189 L616 133 C616 109 611 103 591 103 C573 103 568 110 568 133 L568 313 C568 381 558 411 528 435 C489 467 403 486 301 486 C138 486 38 437 38 356 C38 304 78 272 144 272 C204 272 242 299 242 342 C242 374 226 391 184 404 C213 417 228 421 254 421 C313 421 352 390 352 343 C352 291 319 272 208 258 C68 240 16 202 16 115 C16 31 79 -17 188 -17 C231 -17 278 -9 314 6 C339 16 351 24 377 50 C418 -1 453 -17 525 -17 C581 -17 624 -3 651 23 C674 46 682 72 682 128 L682 189 Z M355 157 C356 114 326 87 276 87 C236 87 208 106 208 134 C208 152 223 168 249 178 C267 184 285 191 302 197 C306 198 330 208 354 218 L355 157 Z M179 708 C191 649 202 623 226 598 C255 567 299 550 346 550 C394 550 438 568 468 598 C491 622 503 649 514 708 L466 708 C456 680 447 668 429 660 C409 650 380 645 347 645 C313 645 283 650 264 660 C247 668 237 680 226 708 L179 708 Z " />
<glyph glyph-name="Aogonek" unicode="&#x104;" horiz-adv-x="770" d="M821 0 L821 94 L782 94 C732 96 727 100 704 165 L532 667 L267 667 L74 163 C54 112 37 97 -5 94 L-33 94 L-33 0 L296 0 L296 94 L259 94 C223 94 208 100 208 114 C208 122 210 131 218 151 L241 214 L438 214 L464 143 C467 134 469 124 469 114 C469 96 464 94 409 94 L376 94 L376 0 L722 0 C640 -54 603 -100 603 -151 C603 -200 641 -230 701 -230 C760 -230 802 -201 835 -138 L815 -128 C789 -157 777 -163 749 -163 C715 -163 696 -144 696 -111 C696 -72 717 -38 765 0 L821 0 Z M403 310 L275 310 L337 512 L403 310 Z " />
<glyph glyph-name="aogonek" unicode="&#x105;" horiz-adv-x="694" d="M682 189 L616 189 L616 133 C616 109 611 103 593 103 C573 103 568 109 568 133 L568 313 C568 381 558 411 528 435 C489 467 403 486 301 486 C137 486 38 437 38 356 C38 304 78 272 144 272 C203 272 242 299 242 341 C242 374 226 392 184 404 C213 417 228 421 254 421 C313 421 352 390 352 342 C352 291 318 272 208 258 C68 240 16 202 16 115 C16 31 79 -17 188 -17 C231 -17 278 -9 314 6 C339 16 351 24 377 50 C414 2 446 -13 517 -17 C451 -67 424 -105 424 -151 C424 -200 461 -230 521 -230 C579 -230 621 -201 654 -138 L634 -128 C608 -156 596 -163 568 -163 C534 -163 515 -144 515 -110 C515 -88 524 -65 540 -44 C554 -25 561 -20 596 -8 C664 18 682 47 682 128 L682 189 Z M355 157 C356 114 326 87 276 87 C236 87 208 106 208 134 C208 152 223 168 249 178 C267 184 285 191 302 197 C306 198 330 208 354 218 L355 157 Z " />
<glyph glyph-name="Cacute" unicode="&#x106;" horiz-adv-x="808" d="M653 258 C644 194 632 165 602 134 C567 99 518 79 464 79 C405 79 359 102 334 143 C308 185 298 239 298 333 C298 428 308 482 334 523 C359 564 402 586 459 586 C513 586 558 565 585 528 C607 499 618 473 637 402 L768 402 L768 676 L648 676 L630 640 C550 677 506 687 423 687 C183 687 33 548 33 327 C33 107 178 -20 427 -20 C551 -20 648 15 708 81 C748 124 763 167 771 258 L653 258 Z M359 723 L505 777 C534 788 551 808 551 830 C551 857 529 879 503 879 C485 879 471 872 448 851 L302 723 L359 723 Z " />
<glyph glyph-name="cacute" unicode="&#x107;" horiz-adv-x="579" d="M417 163 C415 137 411 120 403 108 C388 87 361 74 331 74 C300 74 272 88 258 109 C242 133 235 169 235 234 C235 299 242 337 258 360 C273 383 306 397 342 397 C374 397 386 392 404 373 C358 368 335 345 335 304 C335 256 373 226 434 226 C508 226 551 263 551 327 C551 363 536 398 506 428 C468 465 400 487 320 487 C136 487 22 390 22 235 C22 80 135 -19 311 -19 C373 -19 425 -7 469 18 C520 46 541 83 550 163 L417 163 Z M187 534 L245 534 L413 617 C451 636 467 654 467 679 C467 711 443 735 411 735 C385 735 365 723 330 686 L187 534 Z " />
<glyph glyph-name="Ccaron" unicode="&#x10c;" horiz-adv-x="808" d="M653 258 C644 194 632 165 602 134 C567 99 518 79 464 79 C405 79 359 102 334 143 C308 185 298 239 298 333 C298 428 308 482 334 523 C359 564 402 586 459 586 C513 586 558 565 585 528 C607 499 618 473 637 402 L768 402 L768 676 L648 676 L630 640 C550 677 506 687 423 687 C183 687 33 548 33 327 C33 107 178 -20 427 -20 C551 -20 648 15 708 81 C748 124 763 167 771 258 L653 258 Z M241 869 L343 723 L466 723 L568 869 L518 869 L404 810 L290 869 L241 869 Z " />
<glyph glyph-name="ccaron" unicode="&#x10d;" horiz-adv-x="579" d="M417 163 C415 137 411 120 403 108 C388 87 361 74 331 74 C300 74 272 88 258 109 C242 133 235 169 235 234 C235 299 242 337 258 360 C273 383 306 397 342 397 C374 397 386 392 404 373 C358 368 335 345 335 304 C335 256 373 226 434 226 C508 226 551 263 551 327 C551 363 536 398 506 428 C468 465 400 487 320 487 C136 487 22 390 22 235 C22 80 135 -19 311 -19 C373 -19 425 -7 469 18 C520 46 541 83 550 163 L417 163 Z M124 724 L242 534 L337 534 L455 724 L403 724 L290 636 L176 724 L124 724 Z " />
<glyph glyph-name="Dcaron" unicode="&#x10e;" horiz-adv-x="885" d="M16 0 L409 0 C563 0 651 20 725 72 C805 128 847 217 847 334 C847 450 805 539 725 595 C651 647 563 667 409 667 L16 667 L16 573 L57 573 C120 572 128 565 127 515 L127 152 C130 102 122 95 58 94 L16 94 L16 0 Z M349 97 L349 570 L408 570 C475 570 527 548 552 510 C577 473 590 411 590 334 C590 256 577 194 552 157 C527 119 475 97 408 97 L349 97 Z M153 869 L255 723 L378 723 L480 869 L430 869 L316 810 L202 869 L153 869 Z " />
<glyph glyph-name="dcaron" unicode="&#x10f;" horiz-adv-x="705" d="M308 580 L325 580 C395 580 407 573 407 533 L407 416 C355 467 310 486 243 486 C107 486 22 388 22 231 C22 71 99 -16 241 -16 C311 -16 347 1 412 65 L412 0 L686 0 L686 87 L657 87 C611 88 603 95 602 134 L602 667 L308 667 L308 580 Z M318 382 C380 382 406 337 406 229 C406 134 376 84 318 84 C260 84 232 133 232 234 C232 334 260 382 318 382 L318 382 Z M670 429 C716 436 739 445 766 468 C799 496 818 535 818 574 C818 628 783 666 733 666 C691 666 659 634 659 592 C659 557 685 528 716 528 C721 528 729 529 738 531 C724 499 713 491 670 481 L670 429 Z " />
<glyph glyph-name="Dcroat" unicode="&#x110;" horiz-adv-x="890" d="M20 0 L414 0 C567 0 655 20 729 72 C809 128 850 218 850 334 C850 449 809 539 729 595 C654 647 567 667 414 667 L20 667 L20 573 L60 573 C120 572 128 565 127 515 L127 391 L5 391 L5 306 L127 306 L127 152 C130 102 122 95 61 94 L20 94 L20 0 Z M345 97 L345 306 L470 306 L470 391 L345 391 L345 570 L417 570 C483 570 534 548 559 510 C583 473 596 411 596 334 C596 256 583 194 559 157 C534 119 483 97 417 97 L345 97 Z " />
<glyph glyph-name="dcroat" unicode="&#x111;" horiz-adv-x="705" d="M602 565 L602 667 L308 667 L308 580 L329 580 C375 580 390 577 400 565 L287 565 L287 489 L407 489 L407 416 C355 467 310 486 243 486 C106 486 22 389 22 232 C22 71 99 -16 241 -16 C311 -16 346 1 412 65 L412 0 L686 0 L686 87 L658 87 C611 88 603 95 602 134 L602 489 L657 489 L657 565 L602 565 Z M317 382 C380 382 406 337 406 229 C406 134 375 84 318 84 C260 84 232 133 232 234 C232 334 260 382 317 382 L317 382 Z " />
<glyph glyph-name="Emacron" unicode="&#x112;" horiz-adv-x="852" d="M785 667 L16 667 L16 573 L55 573 C116 573 124 566 123 515 L123 152 C126 101 118 95 57 94 L16 94 L16 0 L789 0 L789 275 L669 275 C662 202 655 175 635 141 C602 98 583 93 453 94 L340 94 L340 301 L371 301 C446 301 459 285 464 191 L561 191 L561 495 L464 495 C462 411 446 393 370 389 L340 389 L340 573 L439 573 C600 577 636 553 669 419 L785 419 L785 667 Z M272 754 L579 754 L579 838 L272 838 L272 754 Z " />
<glyph glyph-name="emacron" unicode="&#x113;" horiz-adv-x="623" d="M454 163 C448 137 441 121 431 110 C413 87 382 74 349 74 C314 74 282 89 265 113 C250 134 245 157 244 207 L586 207 C585 299 575 341 543 386 C497 452 418 487 314 487 C137 487 22 388 22 235 C22 78 134 -18 317 -18 C400 -18 475 3 519 38 C553 66 571 97 588 163 L454 163 Z M244 294 C247 334 251 351 260 366 C273 385 298 398 324 398 C349 398 372 386 385 367 C397 351 401 333 402 294 L244 294 Z M154 585 L469 585 L469 672 L154 672 L154 585 Z " />
<glyph glyph-name="Edotaccent" unicode="&#x116;" horiz-adv-x="852" d="M785 667 L16 667 L16 573 L55 573 C116 573 124 566 123 515 L123 152 C126 101 118 95 57 94 L16 94 L16 0 L789 0 L789 275 L669 275 C662 202 655 175 635 141 C602 98 583 93 453 94 L340 94 L340 301 L371 301 C446 301 459 285 464 191 L561 191 L561 495 L464 495 C462 411 446 393 370 389 L340 389 L340 573 L439 573 C600 577 636 553 669 419 L785 419 L785 667 Z M426 866 C387 866 351 831 351 793 C351 751 385 717 426 717 C466 717 500 751 500 791 C500 831 465 866 426 866 L426 866 Z " />
<glyph glyph-name="edotaccent" unicode="&#x117;" horiz-adv-x="623" d="M454 163 C448 137 441 121 431 110 C413 87 382 74 349 74 C314 74 282 89 265 113 C250 134 245 157 244 207 L586 207 C585 299 575 341 543 386 C497 452 418 487 314 487 C137 487 22 388 22 235 C22 78 134 -18 317 -18 C400 -18 475 3 519 38 C553 66 571 97 588 163 L454 163 Z M244 294 C247 334 251 351 260 366 C273 385 298 398 324 398 C349 398 372 386 385 367 C397 351 401 333 402 294 L244 294 Z M312 707 C272 707 234 671 234 631 C234 588 269 553 313 553 C355 553 388 587 388 629 C388 672 354 707 312 707 L312 707 Z " />
<glyph glyph-name="Eogonek" unicode="&#x118;" horiz-adv-x="852" d="M789 0 L789 275 L669 275 C662 202 655 175 635 141 C602 98 583 93 453 94 L340 94 L340 301 L371 301 C446 301 459 285 464 191 L561 191 L561 495 L464 495 C462 411 446 393 370 389 L340 389 L340 573 L439 573 C600 577 636 553 669 419 L785 419 L785 667 L16 667 L16 573 L55 573 C116 573 124 566 123 515 L123 152 C126 101 118 95 57 94 L16 94 L16 0 L665 0 C585 -52 546 -100 546 -151 C546 -200 584 -230 644 -230 C703 -230 745 -201 779 -138 L759 -128 C732 -157 720 -163 693 -163 C658 -163 639 -144 639 -111 C639 -71 660 -39 708 0 L789 0 Z " />
<glyph glyph-name="eogonek" unicode="&#x119;" horiz-adv-x="623" d="M454 163 C448 137 441 121 431 110 C413 87 382 74 349 74 C314 74 282 89 265 113 C250 134 245 157 244 207 L586 207 C585 299 575 341 543 386 C497 452 418 487 313 487 C137 487 22 388 22 235 C22 138 67 60 147 17 C192 -7 250 -18 324 -18 C262 -63 232 -106 232 -151 C232 -200 269 -230 329 -230 C387 -230 429 -201 462 -138 L443 -128 C416 -157 404 -163 376 -163 C342 -163 323 -144 323 -110 C323 -69 352 -29 391 -16 L476 12 C493 18 510 28 525 41 C555 68 567 93 588 163 L454 163 Z M244 294 C247 334 251 351 260 366 C273 385 298 398 324 398 C349 398 372 386 385 367 C397 351 401 333 402 294 L244 294 Z " />
<glyph glyph-name="Ecaron" unicode="&#x11a;" horiz-adv-x="852" d="M785 667 L16 667 L16 573 L55 573 C116 573 124 566 123 515 L123 152 C126 101 118 95 57 94 L16 94 L16 0 L789 0 L789 275 L669 275 C662 202 655 175 635 141 C602 98 583 93 453 94 L340 94 L340 301 L371 301 C446 301 459 285 464 191 L561 191 L561 495 L464 495 C462 411 446 393 370 389 L340 389 L340 573 L439 573 C600 577 636 553 669 419 L785 419 L785 667 Z M262 869 L364 723 L487 723 L589 869 L540 869 L426 810 L312 869 L262 869 Z " />
<glyph glyph-name="ecaron" unicode="&#x11b;" horiz-adv-x="623" d="M454 163 C448 137 441 121 431 110 C413 87 382 74 349 74 C314 74 282 89 265 113 C250 134 245 157 244 207 L586 207 C585 299 575 341 543 386 C497 452 418 487 314 487 C137 487 22 388 22 235 C22 78 134 -18 317 -18 C400 -18 475 3 519 38 C553 66 571 97 588 163 L454 163 Z M244 294 C247 334 251 351 260 366 C273 385 298 398 324 398 C349 398 372 386 385 367 C397 351 401 333 402 294 L244 294 Z M146 724 L264 534 L359 534 L477 724 L425 724 L311 636 L198 724 L146 724 Z " />
<glyph glyph-name="Gbreve" unicode="&#x11e;" horiz-adv-x="901" d="M454 261 L481 261 C543 260 551 253 550 203 L550 153 C550 127 546 108 539 101 C529 90 489 82 451 82 C398 82 353 104 327 144 C301 184 290 238 290 333 C290 428 300 481 325 523 C350 563 393 585 450 585 C503 585 548 564 575 528 C597 499 607 473 626 402 L747 402 L747 676 L637 676 L620 640 C546 678 507 687 422 687 C306 687 219 658 148 597 C72 530 33 440 33 328 C33 217 72 122 142 63 C205 10 304 -22 403 -22 C480 -22 537 -7 622 34 L645 -7 L762 -7 L762 203 C760 253 767 260 830 261 L860 261 L860 355 L454 355 L454 261 Z M239 869 C251 816 262 793 285 769 C315 740 358 723 405 723 C454 723 497 740 527 769 C550 793 561 816 572 869 L524 869 C515 846 506 836 489 828 C468 819 440 814 406 814 C336 814 306 828 287 869 L239 869 Z " />
<glyph glyph-name="gbreve" unicode="&#x11f;" horiz-adv-x="677" d="M92 167 C32 143 5 112 5 66 C5 29 21 4 63 -27 C18 -43 -6 -69 -6 -103 C-6 -132 11 -157 42 -176 C84 -200 176 -214 301 -214 C513 -214 618 -162 618 -57 C618 -20 603 15 580 33 C542 62 500 72 411 72 C397 72 378 72 364 71 C232 68 232 68 206 68 C152 68 135 74 135 92 C135 103 145 111 169 118 C216 106 238 103 271 103 C428 103 533 179 533 292 C533 342 522 371 489 410 C518 429 535 436 550 436 C560 436 568 433 581 424 C557 405 548 391 548 372 C548 340 583 316 629 316 C677 316 707 344 707 389 C707 445 649 488 572 488 C532 488 507 479 456 449 C371 480 350 485 293 485 C125 485 29 416 29 296 C29 241 47 205 92 167 L92 167 Z M281 416 C330 416 348 383 348 293 C348 206 329 172 279 172 C235 172 213 211 213 291 C213 378 234 416 281 416 L281 416 Z M312 -70 C354 -70 393 -73 419 -77 C441 -81 450 -89 450 -104 C450 -130 410 -141 314 -141 C215 -141 174 -130 174 -104 C174 -79 212 -70 312 -70 L312 -70 Z M125 708 C137 649 148 623 172 598 C201 567 245 550 292 550 C340 550 385 568 414 598 C438 622 449 649 460 708 L412 708 C403 680 393 668 376 660 C355 650 326 645 293 645 C260 645 229 650 210 660 C193 668 184 680 173 708 L125 708 Z " />
<glyph glyph-name="Gcommaaccent" unicode="&#x122;" horiz-adv-x="901" d="M454 261 L481 261 C543 260 551 253 550 203 L550 153 C550 127 546 108 539 101 C529 90 489 82 451 82 C398 82 353 104 327 144 C301 184 290 238 290 333 C290 428 300 481 325 523 C350 563 393 585 450 585 C503 585 548 564 575 528 C597 499 607 473 626 402 L747 402 L747 676 L637 676 L620 640 C546 678 507 687 422 687 C306 687 219 658 148 597 C72 530 33 440 33 328 C33 217 72 122 142 63 C205 10 304 -22 403 -22 C480 -22 537 -7 622 34 L645 -7 L762 -7 L762 203 C760 253 767 260 830 261 L860 261 L860 355 L454 355 L454 261 Z M336 -290 C382 -283 405 -274 432 -251 C465 -223 484 -184 484 -145 C484 -92 449 -53 399 -53 C357 -53 325 -85 325 -127 C325 -162 350 -191 382 -191 C387 -191 395 -190 404 -188 C390 -220 379 -228 336 -238 L336 -290 Z " />
<glyph glyph-name="gcommaaccent" unicode="&#x123;" horiz-adv-x="677" d="M92 167 C32 143 5 112 5 66 C5 29 21 4 63 -27 C18 -43 -6 -69 -6 -103 C-6 -132 11 -157 42 -176 C84 -200 176 -214 301 -214 C513 -214 618 -162 618 -57 C618 -20 603 15 580 33 C542 62 500 72 411 72 C397 72 378 72 364 71 C232 68 232 68 206 68 C152 68 135 74 135 92 C135 103 145 111 169 118 C216 106 238 103 271 103 C428 103 533 179 533 292 C533 342 522 371 489 410 C518 429 535 436 550 436 C560 436 568 433 581 424 C557 405 548 391 548 372 C548 340 583 316 629 316 C677 316 707 344 707 389 C707 445 649 488 572 488 C532 488 507 479 456 449 C371 480 350 485 293 485 C125 485 29 416 29 296 C29 241 47 205 92 167 L92 167 Z M281 416 C330 416 348 383 348 293 C348 206 329 172 279 172 C235 172 213 211 213 291 C213 378 234 416 281 416 L281 416 Z M312 -70 C354 -70 393 -73 419 -77 C441 -81 450 -89 450 -104 C450 -130 410 -141 314 -141 C215 -141 174 -130 174 -104 C174 -79 212 -70 312 -70 L312 -70 Z M354 762 C308 754 285 745 258 722 C225 695 206 656 206 617 C206 563 241 525 291 525 C333 525 365 556 365 598 C365 633 339 662 308 662 C303 662 295 661 286 659 C300 691 311 699 354 709 L354 762 Z " />
<glyph glyph-name="Imacron" unicode="&#x12a;" horiz-adv-x="481" d="M22 0 L458 0 L458 94 L418 94 C357 95 349 101 350 151 L350 515 C349 565 357 572 418 572 L458 572 L458 667 L22 667 L22 572 L63 572 C123 572 131 565 130 515 L130 151 C131 101 123 95 63 94 L22 94 L22 0 Z M87 754 L393 754 L393 838 L87 838 L87 754 Z " />
<glyph glyph-name="imacron" unicode="&#x12b;" horiz-adv-x="399" d="M380 87 L359 87 C309 88 301 95 300 134 L300 469 L22 469 L22 382 L44 382 C87 381 94 374 95 335 L95 134 C94 95 87 88 44 87 L22 87 L22 0 L380 0 L380 87 Z M42 585 L357 585 L357 672 L42 672 L42 585 Z " />
<glyph glyph-name="Iogonek" unicode="&#x12e;" horiz-adv-x="481" d="M458 0 L458 94 L418 94 C357 95 349 101 350 151 L350 515 C349 565 357 572 418 572 L458 572 L458 667 L22 667 L22 572 L63 572 C123 572 131 565 130 515 L130 151 C131 101 123 95 63 94 L22 94 L22 0 L321 0 C241 -51 202 -101 202 -151 C202 -200 240 -230 300 -230 C359 -230 401 -201 434 -138 L414 -128 C388 -157 376 -163 348 -163 C314 -163 295 -144 295 -111 C295 -72 316 -38 364 0 L458 0 Z " />
<glyph glyph-name="iogonek" unicode="&#x12f;" horiz-adv-x="399" d="M380 0 L380 87 L359 87 C309 88 301 95 300 134 L300 469 L22 469 L22 382 L44 382 C87 381 94 374 95 335 L95 134 C94 95 87 88 44 87 L22 87 L22 0 L277 0 C197 -51 158 -100 158 -151 C158 -200 196 -230 256 -230 C315 -230 358 -201 391 -138 L371 -128 C344 -157 332 -163 304 -163 C270 -163 251 -144 251 -111 C251 -71 271 -38 320 0 L380 0 Z M187 686 C137 686 98 646 98 595 C98 547 138 507 187 507 C237 507 277 547 277 597 C277 646 237 686 187 686 L187 686 Z " />
<glyph glyph-name="Idotaccent" unicode="&#x130;" horiz-adv-x="481" d="M22 0 L458 0 L458 94 L418 94 C357 95 349 101 350 151 L350 515 C349 565 357 572 418 572 L458 572 L458 667 L22 667 L22 572 L63 572 C123 572 131 565 130 515 L130 151 C131 101 123 95 63 94 L22 94 L22 0 Z M241 866 C202 866 166 831 166 793 C166 751 200 717 241 717 C281 717 315 751 315 791 C315 831 280 866 241 866 L241 866 Z " />
<glyph glyph-name="dotlessi" unicode="&#x131;" horiz-adv-x="399" d="M380 87 L359 87 C309 88 301 95 300 134 L300 469 L22 469 L22 382 L44 382 C87 381 94 374 95 335 L95 134 C94 95 87 88 44 87 L22 87 L22 0 L380 0 L380 87 Z " />
<glyph glyph-name="Kcommaaccent" unicode="&#x136;" horiz-adv-x="929" d="M417 667 L16 667 L16 573 L57 573 C117 572 125 565 124 515 L124 152 C125 101 117 95 57 94 L16 94 L16 0 L434 0 L434 94 L409 94 C347 95 339 102 341 152 L341 208 L461 285 L569 137 C575 128 578 120 578 113 C578 99 564 94 526 94 L491 94 L491 0 L944 0 L944 94 L900 94 C867 94 847 105 821 139 L623 408 L771 523 C810 554 850 573 874 572 L911 572 L911 667 L503 667 L503 573 L564 573 C592 573 607 567 607 555 C607 547 600 536 590 529 L341 350 L341 515 C338 566 346 572 417 573 L417 667 Z M397 -290 C443 -283 466 -274 493 -251 C526 -223 545 -184 545 -145 C545 -92 510 -53 460 -53 C418 -53 386 -85 386 -127 C386 -162 411 -191 443 -191 C448 -191 456 -190 465 -188 C451 -220 440 -228 397 -238 L397 -290 Z " />
<glyph glyph-name="kcommaaccent" unicode="&#x137;" horiz-adv-x="737" d="M16 580 L44 580 C92 579 100 572 101 533 L101 134 C100 95 92 88 44 87 L19 87 L19 0 L355 0 L355 87 C303 89 293 96 293 132 C293 135 293 144 294 152 L381 203 L425 141 C439 121 445 108 445 100 C445 90 440 89 407 87 L407 0 L743 0 L743 87 C694 90 678 97 659 124 L534 307 L607 359 C629 375 653 381 695 382 L695 469 L385 469 L385 382 L397 382 C421 382 429 378 429 368 C429 361 423 353 414 347 L294 269 L294 667 L16 667 L16 580 Z M302 -290 C348 -283 371 -274 398 -251 C431 -223 450 -184 450 -145 C450 -92 415 -53 365 -53 C323 -53 291 -85 291 -127 C291 -162 316 -191 348 -191 C353 -191 361 -190 370 -188 C356 -220 345 -228 302 -238 L302 -290 Z " />
<glyph glyph-name="Lacute" unicode="&#x139;" horiz-adv-x="754" d="M457 667 L16 667 L16 573 L57 573 C117 573 125 566 124 515 L124 152 C125 102 117 95 57 94 L16 94 L16 0 L706 0 L706 278 L592 278 C580 121 550 94 400 97 L345 97 L345 515 C343 566 350 572 411 573 L457 573 L457 667 Z M332 723 L478 777 C506 788 523 808 523 830 C523 857 501 879 475 879 C457 879 443 872 420 851 L274 723 L332 723 Z " />
<glyph glyph-name="lacute" unicode="&#x13a;" horiz-adv-x="388" d="M292 667 L11 667 L11 580 L36 580 C79 579 86 572 87 533 L87 134 C86 95 79 88 36 87 L11 87 L11 0 L370 0 L370 87 L350 87 C301 88 293 95 292 134 L292 667 Z M170 739 L229 739 L396 822 C434 841 450 859 450 884 C450 916 426 940 394 940 C368 940 348 928 313 891 L170 739 Z " />
<glyph glyph-name="Lcommaaccent" unicode="&#x13b;" horiz-adv-x="754" d="M457 667 L16 667 L16 573 L57 573 C117 573 125 566 124 515 L124 152 C125 102 117 95 57 94 L16 94 L16 0 L706 0 L706 278 L592 278 C580 121 550 94 400 97 L345 97 L345 515 C343 566 350 572 411 573 L457 573 L457 667 Z M310 -290 C356 -283 379 -274 406 -251 C439 -223 458 -184 458 -145 C458 -92 423 -53 373 -53 C331 -53 299 -85 299 -127 C299 -162 324 -191 356 -191 C361 -191 369 -190 378 -188 C364 -220 353 -228 310 -238 L310 -290 Z " />
<glyph glyph-name="lcommaaccent" unicode="&#x13c;" horiz-adv-x="388" d="M292 667 L11 667 L11 580 L36 580 C79 579 86 572 87 533 L87 134 C86 95 79 88 36 87 L11 87 L11 0 L370 0 L370 87 L350 87 C301 88 293 95 292 134 L292 667 Z M127 -290 C173 -283 196 -274 223 -251 C256 -223 275 -184 275 -145 C275 -92 240 -53 190 -53 C148 -53 116 -85 116 -127 C116 -162 141 -191 173 -191 C178 -191 186 -190 195 -188 C181 -220 170 -228 127 -238 L127 -290 Z " />
<glyph glyph-name="Lcaron" unicode="&#x13d;" horiz-adv-x="754" d="M457 667 L16 667 L16 573 L57 573 C117 573 125 566 124 515 L124 152 C125 102 117 95 57 94 L16 94 L16 0 L706 0 L706 278 L592 278 C580 121 550 94 400 97 L345 97 L345 515 C343 566 350 572 411 573 L457 573 L457 667 Z M522 443 C572 451 597 460 627 482 C663 510 684 549 684 588 C684 642 645 680 592 680 C545 680 510 649 510 607 C510 572 538 543 572 543 C579 543 587 544 597 546 C582 514 569 505 522 496 L522 443 Z " />
<glyph glyph-name="lcaron" unicode="&#x13e;" horiz-adv-x="388" d="M292 667 L11 667 L11 580 L36 580 C79 579 86 572 87 533 L87 134 C86 95 79 88 36 87 L11 87 L11 0 L370 0 L370 87 L350 87 C301 88 293 95 292 134 L292 667 Z M353 442 C399 449 422 459 449 482 C482 509 501 548 501 587 C501 641 466 679 416 679 C374 679 342 648 342 606 C342 571 368 542 399 542 C405 542 412 543 421 545 C407 513 396 504 353 495 L353 442 Z " />
<glyph glyph-name="Lslash" unicode="&#x141;" horiz-adv-x="759" d="M462 667 L20 667 L20 573 L61 573 C122 573 130 566 129 515 L129 318 L0 249 L0 153 L129 223 L129 152 C130 102 122 95 61 94 L20 94 L20 0 L711 0 L711 278 L597 278 C584 122 554 93 405 97 L350 97 L350 315 L521 411 L521 506 L350 411 L350 515 C348 566 355 572 416 573 L462 573 L462 667 Z " />
<glyph glyph-name="lslash" unicode="&#x142;" horiz-adv-x="404" d="M106 263 L106 134 C105 95 97 88 48 87 L20 87 L20 0 L379 0 L379 87 L359 87 C310 88 302 95 301 134 L301 339 L407 395 L407 473 L301 417 L301 667 L20 667 L20 580 L48 580 C97 579 105 572 106 533 L106 341 L0 285 L0 206 L106 263 Z " />
<glyph glyph-name="Nacute" unicode="&#x143;" horiz-adv-x="890" d="M379 667 L16 667 L16 573 L54 573 C112 573 120 566 119 515 L119 152 C120 101 112 95 54 94 L16 94 L16 0 L340 0 L340 94 L305 94 C247 95 239 101 240 152 L240 479 L531 0 L776 0 L776 515 C775 566 783 573 841 573 L869 573 L869 667 L547 667 L547 573 L591 573 C649 572 656 566 654 515 L654 218 L379 667 Z M400 723 L546 777 C575 788 592 808 592 830 C592 857 570 879 543 879 C526 879 511 872 488 851 L343 723 L400 723 Z " />
<glyph glyph-name="nacute" unicode="&#x144;" horiz-adv-x="754" d="M743 87 L719 87 C670 88 662 94 661 134 L661 308 C661 384 652 416 623 441 C593 467 545 482 490 482 C451 482 414 475 382 461 C353 449 334 434 299 396 L299 469 L11 469 L11 382 L41 382 C90 381 98 374 99 335 L99 134 C98 95 90 88 41 87 L11 87 L11 0 L358 0 L358 87 L352 87 C304 87 294 95 294 134 L294 288 C294 346 329 383 385 383 C440 383 466 357 466 303 L466 134 C465 92 458 87 398 87 L398 0 L743 0 L743 87 Z M275 534 L333 534 L501 617 C538 636 554 654 554 679 C554 711 530 735 498 735 C472 735 452 723 418 686 L275 534 Z " />
<glyph glyph-name="Ncommaaccent" unicode="&#x145;" horiz-adv-x="890" d="M379 667 L16 667 L16 573 L54 573 C112 573 120 566 119 515 L119 152 C120 101 112 95 54 94 L16 94 L16 0 L340 0 L340 94 L305 94 C247 95 239 101 240 152 L240 479 L531 0 L776 0 L776 515 C775 566 783 573 841 573 L869 573 L869 667 L547 667 L547 573 L591 573 C649 572 656 566 654 515 L654 218 L379 667 Z M350 -290 C396 -283 419 -274 446 -251 C479 -223 498 -184 498 -145 C498 -92 463 -53 413 -53 C371 -53 339 -85 339 -127 C339 -162 364 -191 396 -191 C401 -191 409 -190 418 -188 C404 -220 393 -228 350 -238 L350 -290 Z " />
<glyph glyph-name="ncommaaccent" unicode="&#x146;" horiz-adv-x="754" d="M743 87 L719 87 C670 88 662 94 661 134 L661 308 C661 384 652 416 623 441 C593 467 545 482 490 482 C451 482 414 475 382 461 C353 449 334 434 299 396 L299 469 L11 469 L11 382 L41 382 C90 381 98 374 99 335 L99 134 C98 95 90 88 41 87 L11 87 L11 0 L358 0 L358 87 L352 87 C304 87 294 95 294 134 L294 288 C294 346 329 383 385 383 C440 383 466 357 466 303 L466 134 C465 92 458 87 398 87 L398 0 L743 0 L743 87 Z M310 -290 C356 -283 379 -274 406 -251 C439 -223 458 -184 458 -145 C458 -92 423 -53 373 -53 C331 -53 299 -85 299 -127 C299 -162 324 -191 356 -191 C361 -191 369 -190 378 -188 C364 -220 353 -228 310 -238 L310 -290 Z " />
<glyph glyph-name="Ncaron" unicode="&#x147;" horiz-adv-x="890" d="M379 667 L16 667 L16 573 L54 573 C112 573 120 566 119 515 L119 152 C120 101 112 95 54 94 L16 94 L16 0 L340 0 L340 94 L305 94 C247 95 239 101 240 152 L240 479 L531 0 L776 0 L776 515 C775 566 783 573 841 573 L869 573 L869 667 L547 667 L547 573 L591 573 C649 572 656 566 654 515 L654 218 L379 667 Z M281 869 L383 723 L506 723 L608 869 L559 869 L445 810 L331 869 L281 869 Z " />
<glyph glyph-name="ncaron" unicode="&#x148;" horiz-adv-x="754" d="M743 87 L719 87 C670 88 662 94 661 134 L661 308 C661 384 652 416 623 441 C593 467 545 482 490 482 C451 482 414 475 382 461 C353 449 334 434 299 396 L299 469 L11 469 L11 382 L41 382 C90 381 98 374 99 335 L99 134 C98 95 90 88 41 87 L11 87 L11 0 L358 0 L358 87 L352 87 C304 87 294 95 294 134 L294 288 C294 346 329 383 385 383 C440 383 466 357 466 303 L466 134 C465 92 458 87 398 87 L398 0 L743 0 L743 87 Z M212 724 L329 534 L425 534 L542 724 L490 724 L377 636 L264 724 L212 724 Z " />
<glyph glyph-name="Omacron" unicode="&#x14c;" horiz-adv-x="923" d="M462 687 C328 687 231 658 153 594 C79 534 37 442 37 339 C37 224 74 138 153 73 C228 10 327 -20 464 -20 C596 -20 695 10 771 73 C848 136 887 224 887 333 C887 555 728 687 462 687 L462 687 Z M462 586 C519 586 566 564 592 524 C619 483 630 428 630 334 C630 241 619 186 592 144 C566 104 520 82 463 82 C404 82 359 104 332 144 C304 186 294 238 294 339 C294 429 305 484 332 524 C359 564 404 586 462 586 L462 586 Z M309 754 L615 754 L615 838 L309 838 L309 754 Z " />
<glyph glyph-name="omacron" unicode="&#x14d;" horiz-adv-x="672" d="M336 486 C143 486 23 391 23 238 C23 154 50 93 106 50 C164 6 242 -17 337 -17 C529 -17 649 80 649 234 C649 390 529 486 336 486 L336 486 Z M336 394 C412 394 438 354 438 234 C438 115 412 75 336 75 C259 75 234 115 234 237 C234 354 260 394 336 394 L336 394 Z M178 585 L493 585 L493 672 L178 672 L178 585 Z " />
<glyph glyph-name="Ohungarumlaut" unicode="&#x150;" horiz-adv-x="923" d="M462 687 C328 687 231 658 153 594 C79 534 37 442 37 339 C37 224 74 138 153 73 C228 10 327 -20 464 -20 C596 -20 695 10 771 73 C848 136 887 224 887 333 C887 555 728 687 462 687 L462 687 Z M462 586 C519 586 566 564 592 524 C619 483 630 428 630 334 C630 241 619 186 592 144 C566 104 520 82 463 82 C404 82 359 104 332 144 C304 186 294 238 294 339 C294 429 305 484 332 524 C359 564 404 586 462 586 L462 586 Z M411 721 L511 789 C530 803 540 818 540 834 C540 857 519 877 495 877 C476 877 461 866 444 838 L371 721 L411 721 Z M563 721 L691 787 C717 800 728 813 728 833 C728 855 706 877 684 877 C666 877 652 868 631 845 L523 721 L563 721 Z " />
<glyph glyph-name="ohungarumlaut" unicode="&#x151;" horiz-adv-x="672" d="M336 486 C143 486 23 391 23 238 C23 154 50 93 106 50 C164 6 242 -17 337 -17 C529 -17 649 80 649 234 C649 390 529 486 336 486 L336 486 Z M336 394 C412 394 438 354 438 234 C438 115 412 75 336 75 C259 75 234 115 234 237 C234 354 260 394 336 394 L336 394 Z M239 535 L285 535 L400 637 C421 655 432 674 432 690 C432 716 411 737 384 737 C356 737 341 724 314 674 L239 535 Z M390 535 L436 535 L585 632 C613 650 626 667 626 686 C626 713 604 735 578 735 C551 735 538 726 505 683 L390 535 Z " />
<glyph glyph-name="OE" unicode="&#x152;" horiz-adv-x="1316" d="M1252 667 L729 667 L429 687 C322 687 221 654 147 594 C73 533 33 442 33 333 C33 114 190 -20 447 -20 C482 -20 520 -18 560 -15 C599 -11 637 -8 675 -4 C705 -1 738 0 772 0 L1257 0 L1257 275 L1138 275 C1132 202 1126 175 1105 141 C1073 98 1054 93 927 94 L816 94 L816 301 L846 301 C920 301 933 285 938 191 L1033 191 L1033 495 L938 495 C935 410 920 393 845 389 L816 389 L816 573 L913 573 C1070 578 1107 552 1139 419 L1252 419 L1252 667 Z M603 251 C603 176 594 137 572 115 C551 94 508 81 460 81 C420 81 384 92 356 114 C311 149 290 217 290 333 C290 511 341 586 462 586 C507 586 551 572 572 552 C594 531 603 490 603 416 L603 251 Z " />
<glyph glyph-name="oe" unicode="&#x153;" horiz-adv-x="1021" d="M846 163 C839 137 833 121 823 110 C805 87 774 74 741 74 C706 74 673 89 656 113 C642 134 637 157 636 207 L978 207 C977 318 959 371 906 421 C860 464 788 488 705 488 C639 488 597 476 524 435 C447 475 407 486 331 486 C241 486 163 463 105 419 C50 377 22 315 22 235 C22 154 50 91 105 50 C162 7 242 -17 324 -17 C396 -17 443 -5 528 37 C580 -1 640 -18 722 -18 C797 -18 867 3 910 38 C945 66 962 97 980 163 L846 163 Z M324 394 C393 394 415 354 415 232 C415 115 392 75 324 75 C256 75 233 115 233 235 C233 354 256 394 324 394 L324 394 Z M636 294 C639 335 642 352 652 366 C664 386 690 399 716 399 C741 399 764 387 777 368 C789 351 793 333 793 294 L636 294 Z " />
<glyph glyph-name="Racute" unicode="&#x154;" horiz-adv-x="896" d="M16 572 L57 572 C118 572 125 566 124 515 L124 152 C125 101 117 95 57 94 L16 94 L16 0 L457 0 L457 94 L411 94 C351 95 343 101 344 152 L344 300 L418 300 C509 298 523 284 522 197 L522 142 C522 33 580 -16 709 -16 C799 -16 846 6 873 63 C886 91 889 109 889 188 L816 188 L816 155 C816 118 805 96 785 96 C769 96 758 115 758 145 C760 312 746 335 630 353 C680 364 702 373 726 390 C765 416 786 457 786 504 C786 552 761 599 720 626 C675 655 618 667 521 667 L16 667 L16 572 Z M343 391 L343 568 L422 568 C479 568 507 563 528 550 C549 536 562 510 562 479 C562 447 548 420 526 408 C504 396 470 391 414 391 L343 391 Z M335 723 L481 777 C510 788 527 808 527 830 C527 857 505 879 479 879 C461 879 447 872 424 851 L278 723 L335 723 Z " />
<glyph glyph-name="racute" unicode="&#x155;" horiz-adv-x="563" d="M303 469 L22 469 L22 382 L44 382 C93 381 101 374 102 335 L102 134 C101 94 93 88 44 87 L22 87 L22 0 L394 0 L394 87 L355 87 C307 88 298 95 297 134 L297 272 C297 313 307 348 324 372 C342 395 373 412 399 412 C405 412 415 411 426 408 C390 391 376 372 376 344 C376 303 414 271 462 271 C523 271 565 311 565 371 C565 439 513 485 435 485 C383 485 349 469 303 423 L303 469 Z M179 534 L237 534 L405 617 C442 636 458 654 458 679 C458 711 434 735 402 735 C377 735 357 723 322 686 L179 534 Z " />
<glyph glyph-name="Rcommaaccent" unicode="&#x156;" horiz-adv-x="896" d="M16 572 L57 572 C118 572 125 566 124 515 L124 152 C125 101 117 95 57 94 L16 94 L16 0 L457 0 L457 94 L411 94 C351 95 343 101 344 152 L344 300 L418 300 C509 298 523 284 522 197 L522 142 C522 33 580 -16 709 -16 C799 -16 846 6 873 63 C886 91 889 109 889 188 L816 188 L816 155 C816 118 805 96 785 96 C769 96 758 115 758 145 C760 312 746 335 630 353 C680 364 702 373 726 390 C765 416 786 457 786 504 C786 552 761 599 720 626 C675 655 618 667 521 667 L16 667 L16 572 Z M343 391 L343 568 L422 568 C479 568 507 563 528 550 C549 536 562 510 562 479 C562 447 548 420 526 408 C504 396 470 391 414 391 L343 391 Z M350 -290 C396 -283 419 -274 446 -251 C479 -223 498 -184 498 -145 C498 -92 463 -53 413 -53 C371 -53 339 -85 339 -127 C339 -162 364 -191 396 -191 C401 -191 409 -190 418 -188 C404 -220 393 -228 350 -238 L350 -290 Z " />
<glyph glyph-name="rcommaaccent" unicode="&#x157;" horiz-adv-x="563" d="M303 469 L22 469 L22 382 L44 382 C93 381 101 374 102 335 L102 134 C101 94 93 88 44 87 L22 87 L22 0 L394 0 L394 87 L355 87 C307 88 298 95 297 134 L297 272 C297 313 307 348 324 372 C342 395 373 412 399 412 C405 412 415 411 426 408 C390 391 376 372 376 344 C376 303 414 271 462 271 C523 271 565 311 565 371 C565 439 513 485 435 485 C383 485 349 469 303 423 L303 469 Z M132 -290 C178 -283 201 -274 228 -251 C261 -223 280 -184 280 -145 C280 -92 245 -53 195 -53 C153 -53 121 -85 121 -127 C121 -162 146 -191 178 -191 C183 -191 191 -190 200 -188 C186 -220 175 -228 132 -238 L132 -290 Z " />
<glyph glyph-name="Rcaron" unicode="&#x158;" horiz-adv-x="896" d="M16 572 L57 572 C118 572 125 566 124 515 L124 152 C125 101 117 95 57 94 L16 94 L16 0 L457 0 L457 94 L411 94 C351 95 343 101 344 152 L344 300 L418 300 C509 298 523 284 522 197 L522 142 C522 33 580 -16 709 -16 C799 -16 846 6 873 63 C886 91 889 109 889 188 L816 188 L816 155 C816 118 805 96 785 96 C769 96 758 115 758 145 C760 312 746 335 630 353 C680 364 702 373 726 390 C765 416 786 457 786 504 C786 552 761 599 720 626 C675 655 618 667 521 667 L16 667 L16 572 Z M343 391 L343 568 L422 568 C479 568 507 563 528 550 C549 536 562 510 562 479 C562 447 548 420 526 408 C504 396 470 391 414 391 L343 391 Z M188 869 L290 723 L413 723 L515 869 L465 869 L351 810 L237 869 L188 869 Z " />
<glyph glyph-name="rcaron" unicode="&#x159;" horiz-adv-x="563" d="M303 469 L22 469 L22 382 L44 382 C93 381 101 374 102 335 L102 134 C101 94 93 88 44 87 L22 87 L22 0 L394 0 L394 87 L355 87 C307 88 298 95 297 134 L297 272 C297 313 307 348 324 372 C342 395 373 412 399 412 C405 412 415 411 426 408 C390 391 376 372 376 344 C376 303 414 271 462 271 C523 271 565 311 565 371 C565 439 513 485 435 485 C383 485 349 469 303 423 L303 469 Z M116 724 L234 534 L329 534 L447 724 L395 724 L281 636 L168 724 L116 724 Z " />
<glyph glyph-name="Sacute" unicode="&#x15a;" horiz-adv-x="770" d="M59 245 L59 -3 L160 -3 L186 34 C289 -8 342 -20 430 -20 C620 -20 742 66 742 199 C742 264 709 323 652 357 C599 390 530 412 422 431 C356 444 321 450 316 451 C292 457 271 465 263 474 C252 483 247 495 247 507 C247 550 299 579 375 579 C431 579 479 565 516 539 C549 516 564 493 582 438 L705 438 L705 670 L600 670 L581 637 C493 673 432 686 347 686 C160 686 40 599 40 464 C40 399 74 341 130 312 C178 288 246 266 361 239 C483 210 485 210 508 190 C518 181 525 166 525 150 C525 110 478 82 409 82 C351 82 290 101 244 133 C209 158 191 184 164 245 L59 245 Z M340 723 L486 777 C515 788 532 808 532 830 C532 857 510 879 484 879 C466 879 452 872 429 851 L283 723 L340 723 Z " />
<glyph glyph-name="sacute" unicode="&#x15b;" horiz-adv-x="623" d="M110 -7 L130 30 C192 -3 257 -17 340 -17 C484 -17 576 46 576 144 C576 175 564 207 545 225 C512 259 487 270 352 305 C257 331 257 331 242 340 C235 345 230 355 230 365 C230 389 258 403 307 403 C329 403 351 400 373 393 C415 381 433 369 466 330 L551 330 L551 478 L470 478 L455 450 C377 479 340 486 270 486 C116 486 22 426 22 328 C22 307 28 286 38 269 C57 237 92 217 165 195 C210 181 278 162 316 153 C354 144 370 132 370 111 C370 86 344 74 290 74 C262 74 237 78 213 86 C173 99 155 116 130 164 L33 164 L33 -7 L110 -7 Z M209 534 L267 534 L435 617 C472 636 488 654 488 679 C488 711 464 735 432 735 C407 735 387 723 352 686 L209 534 Z " />
<glyph glyph-name="Scedilla" unicode="&#x15e;" horiz-adv-x="770" d="M396 -19 C409 -20 419 -20 428 -20 C620 -20 742 65 742 199 C742 264 709 323 652 357 C599 389 531 412 422 431 C293 455 293 455 269 469 C256 476 247 492 247 507 C247 550 298 579 375 579 C430 579 479 565 516 539 C549 516 564 493 582 438 L705 438 L705 670 L600 670 L581 637 C492 673 432 686 347 686 C160 686 40 599 40 463 C40 399 74 341 130 312 C178 287 247 265 361 238 C482 210 484 209 508 189 C518 181 525 165 525 151 C525 109 479 81 408 81 C351 81 290 101 244 133 C209 158 190 184 164 245 L59 245 L59 -3 L160 -3 L186 34 C270 1 301 -9 352 -15 L352 -99 C367 -97 382 -95 390 -95 C423 -95 445 -110 445 -134 C445 -156 425 -171 393 -171 C354 -171 311 -158 254 -130 L227 -182 C313 -218 361 -230 414 -230 C491 -230 543 -192 543 -136 C543 -87 501 -50 444 -50 C432 -50 414 -51 396 -54 L396 -19 Z " />
<glyph glyph-name="scedilla" unicode="&#x15f;" horiz-adv-x="623" d="M320 -17 L323 -17 L339 -17 C484 -17 576 45 576 144 C576 175 564 207 545 225 C512 259 488 269 352 305 C257 331 257 331 243 340 C235 345 230 355 230 364 C230 389 258 403 307 403 C329 403 351 400 373 393 C415 381 433 369 465 330 L551 330 L551 478 L470 478 L455 450 C376 479 340 486 269 486 C118 486 22 426 22 331 C22 273 55 232 122 209 C163 194 248 170 316 153 C355 144 370 132 370 111 C370 86 344 74 289 74 C262 74 237 78 213 86 C174 99 155 116 130 164 L33 164 L33 -7 L110 -7 L130 30 C173 6 211 -5 276 -13 L276 -98 C291 -96 307 -94 314 -94 C348 -94 369 -109 369 -134 C369 -156 348 -171 317 -171 C277 -171 236 -159 178 -130 L150 -182 C236 -218 285 -230 338 -230 C414 -230 465 -192 465 -136 C465 -86 424 -49 368 -49 C357 -49 338 -51 320 -53 L320 -17 Z " />
<glyph glyph-name="Scaron" unicode="&#x160;" horiz-adv-x="770" d="M59 245 L59 -3 L160 -3 L186 34 C289 -8 342 -20 430 -20 C620 -20 742 66 742 199 C742 264 709 323 652 357 C599 390 530 412 422 431 C356 444 321 450 316 451 C292 457 271 465 263 474 C252 483 247 495 247 507 C247 550 299 579 375 579 C431 579 479 565 516 539 C549 516 564 493 582 438 L705 438 L705 670 L600 670 L581 637 C493 673 432 686 347 686 C160 686 40 599 40 464 C40 399 74 341 130 312 C178 288 246 266 361 239 C483 210 485 210 508 190 C518 181 525 166 525 150 C525 110 478 82 409 82 C351 82 290 101 244 133 C209 158 191 184 164 245 L59 245 Z M215 869 L317 723 L439 723 L541 869 L492 869 L378 810 L264 869 L215 869 Z " />
<glyph glyph-name="scaron" unicode="&#x161;" horiz-adv-x="623" d="M110 -7 L130 30 C192 -3 257 -17 340 -17 C484 -17 576 46 576 144 C576 175 564 207 545 225 C512 259 487 270 352 305 C257 331 257 331 242 340 C235 345 230 355 230 365 C230 389 258 403 307 403 C329 403 351 400 373 393 C415 381 433 369 466 330 L551 330 L551 478 L470 478 L455 450 C377 479 340 486 270 486 C116 486 22 426 22 328 C22 307 28 286 38 269 C57 237 92 217 165 195 C210 181 278 162 316 153 C354 144 370 132 370 111 C370 86 344 74 290 74 C262 74 237 78 213 86 C173 99 155 116 130 164 L33 164 L33 -7 L110 -7 Z M132 724 L249 534 L345 534 L462 724 L410 724 L297 636 L183 724 L132 724 Z " />
<glyph glyph-name="Tcommaaccent" unicode="&#x162;" horiz-adv-x="814" d="M129 414 C132 515 168 556 262 562 L296 562 L296 152 C298 101 291 95 231 94 L169 94 L169 0 L650 0 L650 94 L583 94 C524 95 516 101 517 152 L517 562 L552 562 C645 556 682 515 685 414 L793 414 L793 667 L21 667 L21 414 L129 414 Z M340 -290 C386 -283 409 -274 436 -251 C469 -223 488 -184 488 -145 C488 -92 453 -53 403 -53 C361 -53 329 -85 329 -127 C329 -162 354 -191 386 -191 C391 -191 399 -190 408 -188 C394 -220 383 -228 340 -238 L340 -290 Z " />
<glyph glyph-name="tcommaaccent" unicode="&#x163;" horiz-adv-x="502" d="M89 383 L89 167 C89 90 94 69 120 39 C154 0 209 -19 283 -19 C353 -19 404 -2 435 32 C460 60 468 89 468 158 L468 221 L383 221 L383 178 C383 154 380 121 376 105 C371 84 356 73 330 73 C310 73 296 81 289 96 C285 105 284 114 284 142 L284 383 L448 383 L448 469 L284 469 L284 652 L167 652 C139 513 102 471 5 469 L5 383 L89 383 Z M130 -290 C176 -283 199 -274 226 -251 C259 -223 278 -184 278 -145 C278 -92 243 -53 193 -53 C151 -53 119 -85 119 -127 C119 -162 144 -191 176 -191 C181 -191 189 -190 198 -188 C184 -220 173 -228 130 -238 L130 -290 Z " />
<glyph glyph-name="Tcaron" unicode="&#x164;" horiz-adv-x="814" d="M129 414 C132 515 168 556 262 562 L296 562 L296 152 C298 101 291 95 231 94 L169 94 L169 0 L650 0 L650 94 L583 94 C524 95 516 101 517 152 L517 562 L552 562 C645 556 682 515 685 414 L793 414 L793 667 L21 667 L21 414 L129 414 Z M243 869 L345 723 L468 723 L570 869 L521 869 L407 810 L293 869 L243 869 Z " />
<glyph glyph-name="tcaron" unicode="&#x165;" horiz-adv-x="502" d="M89 383 L89 167 C89 90 94 69 120 39 C154 0 209 -19 283 -19 C353 -19 404 -2 435 32 C460 60 468 89 468 158 L468 221 L383 221 L383 178 C383 154 380 121 376 105 C371 84 356 73 330 73 C310 73 296 81 289 96 C285 105 284 114 284 142 L284 383 L448 383 L448 469 L284 469 L284 652 L167 652 C139 513 102 471 5 469 L5 383 L89 383 Z M410 526 C456 533 479 543 506 565 C539 593 558 632 558 671 C558 725 523 763 473 763 C431 763 399 732 399 690 C399 655 425 626 456 626 C462 626 469 627 478 628 C464 596 453 588 410 579 L410 526 Z " />
<glyph glyph-name="Umacron" unicode="&#x16a;" horiz-adv-x="852" d="M504 573 L543 573 C602 572 609 566 608 516 L608 214 C608 164 600 139 577 117 C554 95 512 83 460 83 C420 83 390 91 368 109 C341 130 334 155 334 222 L334 516 C333 566 341 573 401 573 L447 573 L447 667 L5 667 L5 573 L47 573 C107 573 115 566 114 516 L114 189 C114 126 134 83 179 46 C235 2 313 -20 420 -20 C630 -20 743 56 743 197 L743 519 C742 565 750 573 807 573 L843 573 L843 667 L504 667 L504 573 Z M272 754 L579 754 L579 838 L272 838 L272 754 Z " />
<glyph glyph-name="umacron" unicode="&#x16b;" horiz-adv-x="754" d="M443 0 L735 0 L735 87 L708 87 C656 88 647 95 646 134 L646 469 L385 469 L385 381 L403 381 C444 380 450 374 451 335 L451 181 C451 123 414 86 354 86 C296 86 269 112 269 166 L269 469 L11 469 L11 381 L27 381 C67 380 73 374 74 335 L74 156 C74 80 83 49 113 24 C143 -2 192 -17 249 -17 C287 -17 326 -10 358 4 C388 16 407 31 443 69 L443 0 Z M188 585 L503 585 L503 672 L188 672 L188 585 Z " />
<glyph glyph-name="Uring" unicode="&#x16e;" horiz-adv-x="852" d="M504 573 L543 573 C602 572 609 566 608 516 L608 214 C608 164 600 139 577 117 C554 95 512 83 460 83 C420 83 390 91 368 109 C341 130 334 155 334 222 L334 516 C333 566 341 573 401 573 L447 573 L447 667 L5 667 L5 573 L47 573 C107 573 115 566 114 516 L114 189 C114 126 134 83 179 46 C235 2 313 -20 420 -20 C630 -20 743 56 743 197 L743 519 C742 565 750 573 807 573 L843 573 L843 667 L504 667 L504 573 Z M462 921 C400 921 347 871 347 810 C347 745 400 691 463 691 C524 691 577 745 577 808 C577 870 526 921 462 921 L462 921 Z M462 850 C486 850 507 829 507 805 C507 781 486 761 462 761 C437 761 417 781 417 806 C417 829 438 850 462 850 L462 850 Z " />
<glyph glyph-name="uring" unicode="&#x16f;" horiz-adv-x="754" d="M443 0 L735 0 L735 87 L708 87 C656 88 647 95 646 134 L646 469 L385 469 L385 381 L403 381 C444 380 450 374 451 335 L451 181 C451 123 414 86 354 86 C296 86 269 112 269 166 L269 469 L11 469 L11 381 L27 381 C67 380 73 374 74 335 L74 156 C74 80 83 49 113 24 C143 -2 192 -17 249 -17 C287 -17 326 -10 358 4 C388 16 407 31 443 69 L443 0 Z M351 793 C277 793 214 732 214 659 C214 581 274 520 351 520 C426 520 487 582 487 657 C487 731 425 793 351 793 L351 793 Z M350 715 C382 715 409 688 409 656 C409 624 383 598 351 598 C318 598 292 624 292 657 C292 688 319 715 350 715 L350 715 Z " />
<glyph glyph-name="Uhungarumlaut" unicode="&#x170;" horiz-adv-x="852" d="M504 573 L543 573 C602 572 609 566 608 516 L608 214 C608 164 600 139 577 117 C554 95 512 83 460 83 C420 83 390 91 368 109 C341 130 334 155 334 222 L334 516 C333 566 341 573 401 573 L447 573 L447 667 L5 667 L5 573 L47 573 C107 573 115 566 114 516 L114 189 C114 126 134 83 179 46 C235 2 313 -20 420 -20 C630 -20 743 56 743 197 L743 519 C742 565 750 573 807 573 L843 573 L843 667 L504 667 L504 573 Z M391 721 L491 789 C511 803 520 817 520 834 C520 857 499 877 475 877 C455 877 441 866 423 838 L350 721 L391 721 Z M543 721 L671 787 C697 800 708 813 708 833 C708 855 686 877 664 877 C646 877 632 868 611 845 L502 721 L543 721 Z " />
<glyph glyph-name="uhungarumlaut" unicode="&#x171;" horiz-adv-x="754" d="M443 0 L735 0 L735 87 L708 87 C656 88 647 95 646 134 L646 469 L385 469 L385 381 L403 381 C444 380 450 374 451 335 L451 181 C451 123 414 86 354 86 C296 86 269 112 269 166 L269 469 L11 469 L11 381 L27 381 C67 380 73 374 74 335 L74 156 C74 80 83 49 113 24 C143 -2 192 -17 249 -17 C287 -17 326 -10 358 4 C388 16 407 31 443 69 L443 0 Z M251 535 L298 535 L412 637 C433 655 444 674 444 690 C444 716 423 737 396 737 C368 737 354 724 326 674 L251 535 Z M402 535 L448 535 L597 632 C625 650 638 667 638 686 C638 713 616 735 590 735 C563 735 551 726 517 683 L402 535 Z " />
<glyph glyph-name="Uogonek" unicode="&#x172;" horiz-adv-x="852" d="M843 573 L843 667 L504 667 L504 573 L543 573 C602 572 609 566 608 515 L608 214 C608 164 600 138 577 116 C554 94 512 82 458 82 C420 82 390 90 368 108 C341 129 334 154 334 222 L334 515 C333 566 341 573 401 573 L447 573 L447 667 L5 667 L5 573 L47 573 C107 573 115 566 114 515 L114 189 C114 125 134 82 179 46 C234 1 314 -21 417 -21 C445 -21 477 -19 513 -15 C444 -63 414 -105 414 -151 C414 -200 452 -230 513 -230 C572 -230 614 -201 647 -138 L627 -128 C601 -157 589 -163 561 -163 C527 -163 508 -144 508 -111 C508 -91 517 -65 532 -43 C545 -23 553 -17 577 -7 C698 42 737 89 743 197 L743 519 C742 565 750 573 807 573 L843 573 Z " />
<glyph glyph-name="uogonek" unicode="&#x173;" horiz-adv-x="754" d="M735 0 L735 87 L708 87 C656 88 647 95 646 134 L646 469 L385 469 L385 381 L403 381 C444 380 450 374 451 335 L451 181 C451 123 414 86 354 86 C296 86 269 112 269 166 L269 469 L11 469 L11 381 L27 381 C67 380 73 374 74 335 L74 156 C74 80 83 49 113 24 C144 -2 192 -17 249 -17 C287 -17 326 -10 358 4 C388 16 407 31 443 69 L443 0 L624 0 C546 -50 507 -100 507 -151 C507 -200 544 -230 603 -230 C661 -230 704 -201 737 -138 L717 -128 C690 -157 679 -163 651 -163 C617 -163 598 -144 598 -111 C598 -72 620 -36 667 0 L735 0 Z " />
<glyph glyph-name="Ydieresis" unicode="&#x178;" horiz-adv-x="754" d="M-27 573 L-6 573 C38 570 62 555 94 510 L266 268 L266 152 C268 101 261 95 200 94 L154 94 L154 0 L600 0 L600 94 L554 94 C494 95 486 101 487 152 L487 268 L661 506 C691 553 715 570 755 573 L777 573 L777 667 L448 667 L448 573 L470 573 C495 573 510 566 510 555 C510 545 506 533 500 523 L424 393 L342 521 C334 534 331 542 331 549 C331 565 345 573 377 573 L400 573 L400 667 L-27 667 L-27 573 Z M271 878 C230 878 194 842 194 803 C194 760 228 726 271 726 C312 726 347 760 347 801 C347 842 311 878 271 878 L271 878 Z M500 878 C459 878 423 842 423 803 C423 760 457 726 500 726 C542 726 576 760 576 801 C576 842 541 878 500 878 L500 878 Z " />
<glyph glyph-name="Zacute" unicode="&#x179;" horiz-adv-x="737" d="M16 0 L706 0 L706 267 L576 267 C566 132 525 91 401 94 L302 94 L706 573 L706 667 L34 667 L34 419 L159 419 C170 541 203 572 325 573 L422 573 L16 94 L16 0 Z M358 723 L504 777 C533 788 550 808 550 830 C550 857 528 879 501 879 C484 879 470 872 447 851 L301 723 L358 723 Z " />
<glyph glyph-name="zacute" unicode="&#x17a;" horiz-adv-x="563" d="M16 0 L530 0 L530 206 L432 206 C431 107 418 91 332 87 L259 87 L530 373 L530 469 L35 469 L35 280 L133 280 C140 368 148 378 222 382 L294 382 L16 96 L16 0 Z M179 534 L237 534 L405 617 C442 636 458 654 458 679 C458 711 434 735 402 735 C376 735 356 723 322 686 L179 534 Z " />
<glyph glyph-name="Zdotaccent" unicode="&#x17b;" horiz-adv-x="737" d="M16 0 L706 0 L706 267 L576 267 C566 132 525 91 401 94 L302 94 L706 573 L706 667 L34 667 L34 419 L159 419 C170 541 203 572 325 573 L422 573 L16 94 L16 0 Z M369 866 C330 866 294 831 294 793 C294 751 328 717 369 717 C409 717 443 751 443 791 C443 831 408 866 369 866 L369 866 Z " />
<glyph glyph-name="zdotaccent" unicode="&#x17c;" horiz-adv-x="563" d="M16 0 L530 0 L530 206 L432 206 C431 107 418 91 332 87 L259 87 L530 373 L530 469 L35 469 L35 280 L133 280 C140 368 148 378 222 382 L294 382 L16 96 L16 0 Z M282 707 C242 707 204 671 204 631 C204 588 239 553 283 553 C325 553 358 587 358 629 C358 672 324 707 282 707 L282 707 Z " />
<glyph glyph-name="Zcaron" unicode="&#x17d;" horiz-adv-x="737" d="M16 0 L706 0 L706 267 L576 267 C566 132 525 91 401 94 L302 94 L706 573 L706 667 L34 667 L34 419 L159 419 C170 541 203 572 325 573 L422 573 L16 94 L16 0 Z M205 869 L307 723 L430 723 L532 869 L482 869 L368 810 L254 869 L205 869 Z " />
<glyph glyph-name="zcaron" unicode="&#x17e;" horiz-adv-x="563" d="M16 0 L530 0 L530 206 L432 206 C431 107 418 91 332 87 L259 87 L530 373 L530 469 L35 469 L35 280 L133 280 C140 368 148 378 222 382 L294 382 L16 96 L16 0 Z M116 724 L233 534 L329 534 L446 724 L394 724 L281 636 L167 724 L116 724 Z " />
<glyph glyph-name="florin" unicode="&#x192;" horiz-adv-x="728" d="M477 469 L488 532 C496 579 502 592 519 605 C530 614 543 618 557 618 C565 618 571 617 585 614 C551 597 535 576 535 548 C535 516 565 494 610 494 C670 494 717 533 717 583 C717 646 652 684 546 684 C461 684 385 661 339 621 C309 594 293 560 281 496 L277 469 L199 469 L184 378 L261 378 L192 -18 C184 -61 181 -74 173 -85 C161 -101 142 -111 121 -111 C113 -111 107 -110 94 -106 C127 -89 144 -67 144 -40 C144 -8 113 14 68 14 C9 14 -39 -26 -39 -75 C-39 -138 27 -177 133 -177 C216 -177 293 -153 339 -113 C373 -84 386 -54 401 32 L461 378 L555 378 L571 469 L477 469 Z " />
<glyph glyph-name="uni01D3" unicode="&#x1d3;" horiz-adv-x="852" d="M504 573 L543 573 C602 572 609 566 608 516 L608 214 C608 164 600 139 577 117 C554 95 512 83 460 83 C420 83 390 91 368 109 C341 130 334 155 334 222 L334 516 C333 566 341 573 401 573 L447 573 L447 667 L5 667 L5 573 L47 573 C107 573 115 566 114 516 L114 189 C114 126 134 83 179 46 C235 2 313 -20 420 -20 C630 -20 743 56 743 197 L743 519 C742 565 750 573 807 573 L843 573 L843 667 L504 667 L504 573 Z M262 869 L364 723 L487 723 L589 869 L540 869 L426 810 L312 869 L262 869 Z " />
<glyph glyph-name="Scommaaccent" unicode="&#x218;" horiz-adv-x="770" d="M59 245 L59 -3 L160 -3 L186 34 C289 -8 342 -20 430 -20 C620 -20 742 66 742 199 C742 264 709 323 652 357 C599 390 530 412 422 431 C356 444 321 450 316 451 C292 457 271 465 263 474 C252 483 247 495 247 507 C247 550 299 579 375 579 C431 579 479 565 516 539 C549 516 564 493 582 438 L705 438 L705 670 L600 670 L581 637 C493 673 432 686 347 686 C160 686 40 599 40 464 C40 399 74 341 130 312 C178 288 246 266 361 239 C483 210 485 210 508 190 C518 181 525 166 525 150 C525 110 478 82 409 82 C351 82 290 101 244 133 C209 158 191 184 164 245 L59 245 Z M321 -290 C367 -283 390 -274 417 -251 C450 -223 469 -184 469 -145 C469 -92 434 -53 384 -53 C342 -53 310 -85 310 -127 C310 -162 335 -191 367 -191 C372 -191 380 -190 389 -188 C375 -220 364 -228 321 -238 L321 -290 Z " />
<glyph glyph-name="scommaaccent" unicode="&#x219;" horiz-adv-x="623" d="M110 -7 L130 30 C192 -3 257 -17 340 -17 C484 -17 576 46 576 144 C576 175 564 207 545 225 C512 259 487 270 352 305 C257 331 257 331 242 340 C235 345 230 355 230 365 C230 389 258 403 307 403 C329 403 351 400 373 393 C415 381 433 369 466 330 L551 330 L551 478 L470 478 L455 450 C377 479 340 486 270 486 C116 486 22 426 22 328 C22 307 28 286 38 269 C57 237 92 217 165 195 C210 181 278 162 316 153 C354 144 370 132 370 111 C370 86 344 74 290 74 C262 74 237 78 213 86 C173 99 155 116 130 164 L33 164 L33 -7 L110 -7 Z M245 -290 C291 -283 314 -274 341 -251 C374 -223 393 -184 393 -145 C393 -92 358 -53 308 -53 C266 -53 234 -85 234 -127 C234 -162 259 -191 291 -191 C296 -191 304 -190 313 -188 C299 -220 288 -228 245 -238 L245 -290 Z " />
<glyph glyph-name="uni021A" unicode="&#x21a;" horiz-adv-x="814" d="M129 414 C132 515 168 556 262 562 L296 562 L296 152 C298 101 291 95 231 94 L169 94 L169 0 L650 0 L650 94 L583 94 C524 95 516 101 517 152 L517 562 L552 562 C645 556 682 515 685 414 L793 414 L793 667 L21 667 L21 414 L129 414 Z M340 -290 C386 -283 409 -274 436 -251 C469 -223 488 -184 488 -145 C488 -92 453 -53 403 -53 C361 -53 329 -85 329 -127 C329 -162 354 -191 386 -191 C391 -191 399 -190 408 -188 C394 -220 383 -228 340 -238 L340 -290 Z " />
<glyph glyph-name="uni021B" unicode="&#x21b;" horiz-adv-x="502" d="M89 383 L89 167 C89 90 94 69 120 39 C154 0 209 -19 283 -19 C353 -19 404 -2 435 32 C460 60 468 89 468 158 L468 221 L383 221 L383 178 C383 154 380 121 376 105 C371 84 356 73 330 73 C310 73 296 81 289 96 C285 105 284 114 284 142 L284 383 L448 383 L448 469 L284 469 L284 652 L167 652 C139 513 102 471 5 469 L5 383 L89 383 Z M130 -290 C176 -283 199 -274 226 -251 C259 -223 278 -184 278 -145 C278 -92 243 -53 193 -53 C151 -53 119 -85 119 -127 C119 -162 144 -191 176 -191 C181 -191 189 -190 198 -188 C184 -220 173 -228 130 -238 L130 -290 Z " />
<glyph glyph-name="afii57929" unicode="&#x2bc;" horiz-adv-x="300" d="M44 393 C108 401 141 412 179 441 C227 477 256 527 256 576 C256 643 208 690 139 690 C80 690 36 651 36 598 C36 552 71 516 117 516 C124 516 133 517 143 518 C122 475 106 465 44 455 L44 393 Z " />
<glyph glyph-name="circumflex" unicode="&#x2c6;" horiz-adv-x="517" d="M93 534 L145 534 L258 622 L372 534 L423 534 L306 724 L211 724 L93 534 Z " />
<glyph glyph-name="caron" unicode="&#x2c7;" horiz-adv-x="517" d="M93 724 L211 534 L306 534 L423 724 L372 724 L258 636 L145 724 L93 724 Z " />
<glyph glyph-name="uni02C9" unicode="&#x2c9;" horiz-adv-x="518" d="M101 585 L416 585 L416 672 L101 672 L101 585 Z " />
<glyph glyph-name="breve" unicode="&#x2d8;" horiz-adv-x="517" d="M91 708 C103 649 114 623 138 598 C167 567 211 550 258 550 C306 550 351 568 380 598 C404 622 415 649 426 708 L378 708 C369 680 359 668 342 660 C321 650 292 645 259 645 C225 645 195 650 176 660 C159 668 150 680 139 708 L91 708 Z " />
<glyph glyph-name="dotaccent" unicode="&#x2d9;" horiz-adv-x="535" d="M268 707 C228 707 190 671 190 631 C190 588 225 553 269 553 C311 553 344 587 344 629 C344 672 310 707 268 707 L268 707 Z " />
<glyph glyph-name="ring" unicode="&#x2da;" horiz-adv-x="666" d="M307 793 C233 793 170 732 170 659 C170 581 230 520 307 520 C382 520 443 582 443 657 C443 731 381 793 307 793 L307 793 Z M306 715 C338 715 365 688 365 656 C365 624 339 598 307 598 C274 598 248 624 248 657 C248 688 275 715 306 715 L306 715 Z " />
<glyph glyph-name="ogonek" unicode="&#x2db;" horiz-adv-x="550" d="M321 25 C211 -35 160 -91 160 -151 C160 -200 197 -230 256 -230 C314 -230 357 -201 390 -138 L370 -128 C344 -157 332 -163 304 -163 C270 -163 251 -144 251 -111 C251 -80 269 -45 297 -19 C311 -7 320 0 354 25 L321 25 Z " />
<glyph glyph-name="tilde" unicode="&#x2dc;" horiz-adv-x="516" d="M133 549 C142 582 156 597 180 597 C191 597 201 596 213 592 L274 576 C285 573 297 571 308 571 C338 571 365 583 384 605 C403 629 413 651 426 708 L384 708 C371 672 360 661 336 661 C329 661 320 662 312 664 L250 681 C236 684 222 686 209 686 C145 686 112 649 90 549 L133 549 Z " />
<glyph glyph-name="hungarumlaut" unicode="&#x2dd;" horiz-adv-x="529" d="M139 535 L185 535 L300 637 C320 654 331 674 331 690 C331 716 310 737 284 737 C255 737 241 724 214 674 L139 535 Z M290 535 L336 535 L485 632 C513 650 526 667 526 686 C526 713 504 735 478 735 C451 735 438 726 404 683 L290 535 Z " />
<glyph glyph-name="uni2011" unicode="&#x2011;" horiz-adv-x="319" d="M0 154 L319 154 L319 312 L0 312 L0 154 Z " />
<glyph glyph-name="figuredash" unicode="&#x2012;" horiz-adv-x="605" d="M29 170 L575 170 L575 295 L29 295 L29 170 Z " />
<glyph glyph-name="endash" unicode="&#x2013;" horiz-adv-x="605" d="M29 170 L575 170 L575 295 L29 295 L29 170 Z " />
<glyph glyph-name="emdash" unicode="&#x2014;" horiz-adv-x="896" d="M0 170 L896 170 L896 295 L0 295 L0 170 Z " />
<glyph glyph-name="afii00208" unicode="&#x2015;" horiz-adv-x="896" d="M0 170 L896 170 L896 295 L0 295 L0 170 Z " />
<glyph glyph-name="quoteleft" unicode="&#x2018;" horiz-adv-x="300" d="M248 687 C184 679 151 667 113 639 C65 603 36 552 36 504 C36 437 84 390 153 390 C212 390 256 429 256 482 C256 527 221 563 175 563 C166 563 159 563 149 562 C170 605 186 615 248 624 L248 687 Z " />
<glyph glyph-name="quoteright" unicode="&#x2019;" horiz-adv-x="300" d="M44 393 C108 401 141 412 179 441 C227 477 256 527 256 576 C256 643 208 690 139 690 C80 690 36 651 36 598 C36 552 71 516 117 516 C124 516 133 517 143 518 C122 475 106 465 44 455 L44 393 Z " />
<glyph glyph-name="quotesinglbase" unicode="&#x201a;" horiz-adv-x="300" d="M44 -131 C108 -123 141 -112 179 -83 C227 -47 256 3 256 52 C256 119 208 166 139 166 C80 166 36 127 36 74 C36 28 71 -8 117 -8 C124 -8 134 -7 143 -6 C122 -49 106 -59 44 -68 L44 -131 Z " />
<glyph glyph-name="quotedblleft" unicode="&#x201c;" horiz-adv-x="557" d="M501 692 C437 684 404 673 366 644 C318 608 289 558 289 509 C289 442 337 395 406 395 C465 395 509 434 509 487 C509 533 474 569 428 569 C421 569 411 568 402 567 C423 610 439 620 501 629 L501 692 Z M243 692 C179 684 146 673 108 644 C60 608 31 558 31 509 C31 442 79 395 148 395 C207 395 251 434 251 487 C251 533 216 569 170 569 C163 569 154 568 144 567 C165 610 181 620 243 629 L243 692 Z " />
<glyph glyph-name="quotedblright" unicode="&#x201d;" horiz-adv-x="557" d="M302 393 C367 401 399 412 437 441 C485 477 514 527 514 576 C514 643 466 690 397 690 C338 690 294 651 294 598 C294 552 329 516 375 516 C382 516 391 517 401 518 C380 475 364 465 302 455 L302 393 Z M44 393 C108 401 141 412 179 441 C227 477 256 527 256 576 C256 643 208 690 139 690 C80 690 36 651 36 598 C36 552 71 516 117 516 C124 516 133 517 143 518 C122 475 106 465 44 455 L44 393 Z " />
<glyph glyph-name="quotedblbase" unicode="&#x201e;" horiz-adv-x="557" d="M44 -131 C108 -123 141 -112 179 -83 C227 -47 256 3 256 52 C256 119 208 166 139 166 C80 166 36 127 36 74 C36 28 71 -8 117 -8 C124 -8 134 -7 143 -6 C122 -49 106 -59 44 -68 L44 -131 Z M302 -131 C366 -123 399 -112 437 -83 C485 -47 514 3 514 52 C514 119 466 166 397 166 C338 166 294 127 294 74 C294 28 329 -8 375 -8 C382 -8 392 -7 401 -6 C380 -49 364 -59 302 -68 L302 -131 Z " />
<glyph glyph-name="dagger" unicode="&#x2020;" horiz-adv-x="683" d="M229 439 C186 455 172 458 154 458 C103 458 71 428 71 381 C71 334 100 305 146 305 C186 305 204 311 304 358 C305 344 306 332 306 327 C306 286 291 169 267 33 C258 -21 253 -62 253 -89 C253 -127 259 -152 272 -169 C286 -187 315 -200 344 -200 C403 -200 432 -164 432 -92 C432 -61 428 -24 418 33 C392 189 380 282 380 329 L380 358 C500 305 500 305 539 305 C585 305 614 334 614 382 C614 428 582 458 532 458 C507 458 500 456 381 412 C384 448 387 464 400 501 C431 585 431 585 431 614 C431 664 403 688 346 688 C282 688 253 665 253 615 C253 587 255 579 284 501 C298 461 301 447 303 412 C280 420 262 427 250 431 L229 439 Z " />
<glyph glyph-name="daggerdbl" unicode="&#x2021;" horiz-adv-x="683" d="M432 118 C423 115 405 110 381 105 C382 137 405 195 437 244 C403 298 380 354 380 385 C417 378 417 378 480 354 C492 349 520 345 539 345 C585 345 614 372 614 416 C614 459 582 486 531 486 C507 486 496 483 381 443 C384 475 388 490 400 522 C431 596 431 596 431 622 C431 666 403 688 347 688 C282 688 253 668 253 623 C253 598 255 592 284 522 C297 487 301 474 303 443 C297 445 273 454 229 468 C186 483 173 486 154 486 C103 486 71 458 71 415 C71 372 100 345 146 345 C164 345 192 349 204 354 C221 360 237 366 253 372 C262 375 279 380 304 385 C303 353 279 295 247 244 C278 201 304 138 304 105 C267 112 267 112 204 136 C192 141 165 145 146 145 C100 145 71 118 71 74 C71 32 103 4 153 4 C177 4 195 9 304 46 C301 16 297 1 284 -32 C254 -106 254 -106 254 -132 C254 -177 282 -198 343 -198 C403 -198 432 -177 432 -133 C432 -108 430 -100 401 -32 C387 3 384 16 381 46 C405 39 423 33 434 29 C441 26 448 24 455 22 C499 7 513 4 531 4 C582 4 614 32 614 75 C614 118 585 145 539 145 C520 145 493 141 480 136 L432 118 Z " />
<glyph glyph-name="bullet" unicode="&#x2022;" horiz-adv-x="733" d="M368 480 C282 480 215 418 215 340 C215 263 283 200 366 200 C450 200 517 263 517 340 C517 417 450 480 368 480 L368 480 Z " />
<glyph glyph-name="ellipsis" unicode="&#x2026;" horiz-adv-x="1065" d="M177 166 C122 166 76 125 76 76 C76 24 120 -17 177 -17 C233 -17 277 24 277 75 C277 125 232 166 177 166 L177 166 Z M532 166 C477 166 431 125 431 76 C431 24 475 -17 532 -17 C588 -17 632 24 632 75 C632 125 587 166 532 166 L532 166 Z M887 166 C832 166 786 125 786 76 C786 24 830 -17 887 -17 C943 -17 987 24 987 75 C987 125 942 166 887 166 L887 166 Z " />
<glyph glyph-name="perthousand" unicode="&#x2030;" horiz-adv-x="1527" d="M243 622 C119 622 33 545 33 433 C33 373 49 333 87 297 C127 259 179 240 244 240 C369 240 453 317 453 431 C453 546 369 622 243 622 L243 622 Z M243 547 C301 547 326 513 326 431 C326 349 302 315 242 315 C185 315 160 350 160 433 C160 510 187 547 243 547 L243 547 Z M807 365 C683 365 597 288 597 176 C597 117 613 76 651 40 C690 2 743 -17 808 -17 C933 -17 1017 60 1017 174 C1017 289 933 365 807 365 L807 365 Z M807 290 C865 290 890 255 890 174 C890 92 865 58 806 58 C749 58 724 93 724 176 C724 253 751 290 807 290 L807 290 Z M263 -17 L367 -17 L785 623 L681 623 L263 -17 Z M1280 365 C1156 365 1070 288 1070 176 C1070 117 1086 76 1124 40 C1163 2 1216 -17 1281 -17 C1406 -17 1490 60 1490 174 C1490 289 1406 365 1280 365 L1280 365 Z M1280 290 C1338 290 1363 255 1363 174 C1363 92 1338 58 1279 58 C1222 58 1197 93 1197 176 C1197 253 1224 290 1280 290 L1280 290 Z " />
<glyph glyph-name="guilsinglleft" unicode="&#x2039;" horiz-adv-x="317" d="M276 67 C194 199 189 208 189 237 C189 265 197 281 267 406 L158 406 C78 310 44 258 44 235 C44 212 50 204 158 67 L276 67 Z " />
<glyph glyph-name="guilsinglright" unicode="&#x203a;" horiz-adv-x="317" d="M161 67 C269 202 276 212 276 235 C276 258 241 311 162 406 L53 406 C124 280 131 264 131 237 C131 208 126 198 44 67 L161 67 Z " />
<glyph glyph-name="uni203E" unicode="&#x203e;" horiz-adv-x="501" d="M0 785 L0 672 L500 672 L500 785 L0 785 Z " />
<glyph glyph-name="fraction" unicode="&#x2044;" horiz-adv-x="180" d="M-180 -17 L-77 -17 L367 622 L264 622 L-180 -17 Z " />
<glyph glyph-name="Euro" unicode="&#x20ac;" horiz-adv-x="896" d="M125 355 L125 330 L125 310 L69 310 L27 221 L138 221 C148 184 157 161 174 134 C235 35 358 -20 519 -20 C642 -20 740 15 800 81 C839 124 854 167 863 258 L744 258 C736 194 724 165 693 134 C659 99 609 79 555 79 C468 79 410 131 397 221 L525 221 L567 310 L390 310 L390 329 L390 355 L589 355 L631 444 L397 444 C410 536 465 586 550 586 C604 586 649 565 677 528 C699 499 709 473 728 402 L860 402 L860 676 L740 676 L722 640 C641 677 598 687 515 687 C322 687 185 598 141 444 L69 444 L27 355 L125 355 Z " />
<glyph glyph-name="trademark" unicode="&#x2122;" horiz-adv-x="1240" d="M88 519 C90 578 110 598 169 602 L187 602 L187 375 C188 348 186 347 149 346 L106 346 L106 287 L417 287 L417 346 L371 346 C335 346 333 349 333 375 L333 602 L351 602 C409 598 430 577 432 519 L507 519 L507 667 L13 667 L13 519 L88 519 Z M1226 667 L953 667 L871 452 L795 667 L530 667 L530 608 L557 608 C592 607 594 605 594 579 L594 375 C594 349 592 347 557 346 L530 346 L530 287 L744 287 L744 346 L722 346 C687 347 685 349 685 375 L685 581 L795 287 L909 287 L1027 582 L1027 375 C1028 349 1026 347 989 346 L966 346 L966 287 L1226 287 L1226 346 L1197 346 C1161 347 1158 349 1159 375 L1159 579 C1158 605 1161 607 1197 608 L1226 608 L1226 667 Z " />
<glyph glyph-name="uni2126" unicode="&#x2126;" horiz-adv-x="768" d="M326 0 L308 155 C230 199 180 288 180 382 C180 434 195 493 221 540 C257 605 317 642 385 642 C453 642 513 605 549 540 C575 493 590 434 590 382 C590 288 540 199 462 155 L444 0 L736 0 L736 153 L712 153 C704 108 684 90 643 90 L497 90 L500 128 C535 141 557 151 580 166 C657 215 702 296 702 382 C702 449 673 522 625 578 C564 648 480 686 385 686 C290 686 206 648 145 578 C97 522 68 449 68 382 C68 296 113 215 190 166 C213 151 235 141 270 128 L273 90 L127 90 C86 90 66 108 58 153 L34 153 L34 0 L326 0 Z " />
<glyph glyph-name="partialdiff" unicode="&#x2202;" horiz-adv-x="494" d="M107 674 C152 697 184 706 219 706 C321 706 379 611 379 447 C379 418 377 394 372 346 C308 396 272 412 221 412 C172 412 131 394 95 355 C51 309 26 246 26 184 C26 76 109 -10 213 -10 C282 -10 341 22 383 84 C429 152 462 286 462 403 C462 519 428 611 360 681 C312 730 259 753 195 753 C155 753 122 746 66 725 L107 674 Z M366 312 C350 201 340 158 314 107 C288 54 245 21 201 21 C146 21 113 73 113 159 C113 273 180 367 261 367 C299 367 324 354 366 312 L366 312 Z " />
<glyph glyph-name="Delta" unicode="&#x2206;" horiz-adv-x="612" d="M6 0 L608 0 L327 688 L6 0 Z M77 51 L290 509 L479 51 L77 51 Z " />
<glyph glyph-name="product" unicode="&#x220f;" horiz-adv-x="823" d="M25 -124 L315 -124 L315 -98 L312 -98 C242 -94 221 -67 224 18 L224 594 C224 656 228 677 242 690 C260 707 272 708 413 708 C556 708 568 707 586 690 C600 677 604 656 604 594 L604 18 C607 -67 586 -94 516 -98 L513 -98 L513 -124 L803 -124 L803 -98 L800 -98 C730 -94 709 -67 712 18 L712 609 C709 694 730 721 800 725 L803 725 L803 751 L25 751 L25 725 L28 725 C98 721 119 694 116 609 L116 18 C119 -67 98 -94 28 -98 L25 -98 L25 -124 Z " />
<glyph glyph-name="summation" unicode="&#x2211;" horiz-adv-x="713" d="M176 711 L444 711 C560 710 590 688 606 587 L632 587 L622 752 L23 752 L256 285 L14 -123 L641 -123 L695 87 L669 87 C639 7 605 -12 491 -11 L163 -11 L364 341 L176 711 Z " />
<glyph glyph-name="minus" unicode="&#x2212;" horiz-adv-x="710" d="M87 387 L87 252 L624 252 L624 387 L87 387 Z " />
<glyph glyph-name="uni2215" unicode="&#x2215;" horiz-adv-x="180" d="M-180 -17 L-77 -17 L367 622 L264 622 L-180 -17 Z " />
<glyph glyph-name="uni2219" unicode="&#x2219;" horiz-adv-x="355" d="M177 326 C122 326 76 285 76 236 C76 184 120 143 177 143 C233 143 277 184 277 235 C277 285 232 326 177 326 L177 326 Z " />
<glyph glyph-name="radical" unicode="&#x221a;" horiz-adv-x="549" d="M363 -35 L515 908 L480 913 L353 123 L156 520 L10 449 L26 414 L121 461 L363 -35 Z " />
<glyph glyph-name="infinity" unicode="&#x221e;" horiz-adv-x="713" d="M357 227 C415 156 485 115 548 115 C631 115 688 176 688 266 C688 354 629 414 543 414 C476 414 412 376 357 303 C300 375 234 414 171 414 C86 414 26 351 26 263 C26 176 84 115 167 115 C224 115 281 142 327 192 L357 227 Z M391 264 C434 325 493 362 546 362 C600 362 638 321 638 264 C638 205 603 167 549 167 C495 167 461 188 391 264 L391 264 Z M324 266 C275 203 216 167 163 167 C111 167 76 207 76 266 C76 323 113 362 167 362 C218 362 258 337 324 266 L324 266 Z " />
<glyph glyph-name="integral" unicode="&#x222b;" horiz-adv-x="274" d="M180 576 C180 653 179 691 176 746 C174 774 173 800 173 815 C173 855 184 878 202 878 C208 878 213 876 215 872 C232 845 239 839 256 839 C276 839 291 853 291 871 C291 898 267 916 231 916 C186 916 152 887 138 838 C123 784 113 682 113 577 L113 232 C113 160 114 124 117 63 C119 34 120 4 120 -12 C120 -47 108 -70 89 -70 C81 -70 74 -65 68 -52 C59 -35 51 -30 37 -30 C17 -30 2 -44 2 -63 C2 -89 26 -107 62 -107 C107 -107 141 -78 155 -29 C170 25 180 126 180 232 L180 576 Z " />
<glyph glyph-name="approxequal" unicode="&#x2248;" horiz-adv-x="549" d="M489 251 C444 199 423 187 384 187 C365 187 354 190 285 211 C212 234 188 239 160 239 C101 239 54 211 14 155 L57 121 C103 174 120 184 159 184 C180 184 180 184 271 157 C350 133 354 132 385 132 C449 132 496 160 527 217 L489 251 Z M489 408 C444 356 423 344 384 344 C365 344 354 347 285 368 C212 391 188 396 160 396 C101 396 54 369 14 312 L57 278 C103 331 120 341 159 341 C180 341 180 341 271 314 C350 290 354 289 385 289 C449 289 496 318 527 375 L489 408 Z " />
<glyph glyph-name="notequal" unicode="&#x2260;" horiz-adv-x="549" d="M187 142 L115 -1 L161 -25 L246 142 L540 142 L540 197 L273 197 L344 336 L540 336 L540 391 L371 391 L439 525 L392 549 L312 391 L15 391 L15 336 L285 336 L215 197 L15 197 L15 142 L187 142 Z " />
<glyph glyph-name="lessequal" unicode="&#x2264;" horiz-adv-x="549" d="M526 55 L29 55 L29 0 L526 0 L526 55 Z M526 639 L29 405 L29 350 L526 117 L526 179 L108 378 L526 577 L526 639 Z " />
<glyph glyph-name="greaterequal" unicode="&#x2265;" horiz-adv-x="549" d="M526 55 L29 55 L29 0 L526 0 L526 55 Z M29 639 L29 577 L447 378 L29 179 L29 117 L526 350 L526 405 L29 639 Z " />
<glyph glyph-name="lozenge" unicode="&#x25ca;" horiz-adv-x="494" d="M209 0 L269 -1 L466 374 L277 740 L214 740 L18 377 L209 0 Z M240 58 L81 376 L245 683 L402 373 L240 58 Z " />
<glyph glyph-name="fi" unicode="&#xfb01;" horiz-adv-x="781" d="M100 378 L100 134 C99 95 92 88 49 87 L22 87 L22 0 L377 0 L377 87 L367 87 C323 87 315 95 315 135 L315 378 L429 378 C480 377 488 371 489 331 L489 134 C488 97 480 90 439 87 L423 87 L423 0 L763 0 L763 87 L743 87 C693 88 685 95 684 134 L684 469 L315 469 L315 504 C315 581 356 616 445 616 C471 616 485 614 515 607 C489 589 480 576 480 553 C480 513 513 489 569 489 C626 489 661 519 661 567 C661 639 561 685 402 685 C336 685 267 676 223 662 C136 634 101 589 101 504 L101 469 L22 469 L22 378 L100 378 Z " />
<glyph glyph-name="fl" unicode="&#xfb02;" horiz-adv-x="781" d="M100 378 L100 134 C99 95 92 88 49 87 L22 87 L22 0 L377 0 L377 87 L368 87 C323 87 315 95 315 135 L315 378 L406 378 L406 469 L315 469 L315 520 C315 577 364 615 439 615 C456 615 467 614 493 609 C472 593 466 583 466 564 C466 545 472 534 493 517 L493 134 C492 97 485 90 443 87 L427 87 L427 0 L763 0 L763 87 L742 87 C693 88 685 95 684 134 L684 667 L561 667 C487 680 451 684 400 684 C298 684 214 666 161 632 C121 607 101 562 101 500 L101 469 L22 469 L22 378 L100 378 Z " />
</font>
</svg>
