<?xml version="1.0" encoding="UTF-8"?>
<svg xmlns="http://www.w3.org/2000/svg" xmlns:xlink="http://www.w3.org/1999/xlink" version="1.2" >
<font id="Baskerville URW Narrow Ultra Bold">
<font-face  font-family="Baskerville URW Narrow" units-per-em="1000" ascent="679" descent="-321" font-style="normal" font-weight="800" font-stretch="semi-condensed" cap-height="665" x-height="403" underline-position="-95" underline-thickness="101" />
<missing-glyph  horiz-adv-x="250" d="" />
<glyph glyph-name="NULL" d="" />
<glyph glyph-name="CR" unicode="&#xd;" horiz-adv-x="250" d="" />
<glyph glyph-name="space" unicode="&#x20;" horiz-adv-x="250" d="" />
<glyph glyph-name="exclam" unicode="&#x21;" horiz-adv-x="346" d="M205 227 L253 562 C256 582 257 598 257 614 C257 632 250 651 240 664 C230 677 210 684 179 684 C119 684 93 663 93 613 C93 596 94 578 97 558 L145 227 L205 227 Z M174 178 C124 178 81 134 81 81 C81 26 122 -18 174 -18 C226 -18 267 26 267 80 C267 134 226 178 174 178 L174 178 Z " />
<glyph glyph-name="quotedbl" unicode="&#x22;" horiz-adv-x="507" d="M164 400 L219 667 L29 667 L84 400 L164 400 Z M423 400 L479 667 L288 667 L343 400 L423 400 Z " />
<glyph glyph-name="numbersign" unicode="&#x23;" horiz-adv-x="541" d="M361 226 L461 226 L473 300 L381 300 L406 381 L506 381 L519 455 L427 455 L488 667 L409 667 L348 455 L268 455 L329 667 L251 667 L190 455 L81 455 L68 381 L169 381 L144 300 L33 300 L21 226 L124 226 L58 0 L136 0 L202 226 L281 226 L216 0 L295 0 L361 226 Z M327 381 L302 300 L222 300 L247 381 L327 381 Z " />
<glyph glyph-name="dollar" unicode="&#x24;" horiz-adv-x="528" d="M220 -140 L285 -140 L285 -11 C405 2 484 84 484 194 C484 278 430 350 332 395 L297 411 C296 412 289 415 285 417 L285 584 C314 575 323 566 334 537 C350 498 350 498 362 485 C374 472 388 465 402 465 C433 465 459 494 459 527 C459 590 379 646 285 647 L285 677 L220 677 L220 644 C186 637 166 631 150 623 C94 594 56 528 56 459 C56 411 74 366 109 328 C131 305 147 293 188 273 L203 266 C208 263 214 260 220 257 L220 53 C200 60 186 77 171 111 C157 142 139 155 111 155 C75 155 50 130 50 93 C50 34 108 -2 220 -14 L220 -140 Z M285 226 C291 221 291 221 310 207 C337 188 350 162 350 128 C350 99 340 78 320 64 C314 60 308 58 285 52 L285 226 Z M220 445 C187 466 171 490 171 520 C171 547 187 571 208 578 C217 581 219 582 220 583 L220 445 Z " />
<glyph glyph-name="percent" unicode="&#x25;" horiz-adv-x="778" d="M187 680 C144 680 107 667 82 643 C49 610 28 557 28 505 C28 398 87 333 182 333 C279 333 340 401 340 507 C340 613 281 680 187 680 L187 680 Z M185 632 C209 632 220 596 220 516 C220 423 209 381 185 381 C158 381 149 417 149 527 C149 599 160 632 185 632 L185 632 Z M265 0 L590 675 L513 675 L187 0 L265 0 Z M596 335 C553 335 517 322 491 297 C458 265 437 212 437 159 C437 53 496 -13 591 -13 C689 -13 750 55 750 163 C750 268 690 335 596 335 L596 335 Z M595 287 C619 287 630 251 630 171 C630 77 619 35 594 35 C567 35 558 71 558 181 C558 253 570 287 595 287 L595 287 Z " />
<glyph glyph-name="ampersand" unicode="&#x26;" horiz-adv-x="755" d="M420 298 L357 385 C416 419 447 468 447 529 C447 608 393 655 302 655 C201 655 142 598 142 499 C142 455 151 425 181 370 C183 365 184 364 186 361 C94 307 44 238 44 165 C44 69 129 -14 227 -14 C289 -14 345 7 412 56 C457 10 508 -12 564 -12 C622 -12 677 15 700 56 C717 85 724 116 725 163 L664 163 C661 108 647 88 615 88 C589 88 567 105 529 153 C529 153 523 160 518 167 C543 198 562 224 571 237 C624 320 644 339 690 347 L690 408 L492 408 L492 347 C514 347 527 338 527 324 L527 322 L526 320 L526 314 C524 295 516 280 476 222 L420 298 Z M365 106 C351 94 333 87 315 87 C291 87 273 95 254 115 C221 149 201 199 201 244 C201 266 210 289 222 301 C231 289 231 289 288 211 L326 159 L362 110 L365 106 Z M321 444 C284 486 266 520 266 548 C266 574 283 590 311 590 C345 590 370 562 370 525 C370 495 355 470 321 444 L321 444 Z " />
<glyph glyph-name="quotesingle" unicode="&#x27;" horiz-adv-x="277" d="M182 400 L237 667 L40 667 L95 400 L182 400 Z " />
<glyph glyph-name="parenleft" unicode="&#x28;" horiz-adv-x="354" d="M323 -246 C229 -75 195 46 195 213 C195 345 221 472 269 576 C279 599 296 630 324 680 L241 680 C155 571 102 393 102 214 C102 41 151 -122 240 -246 L323 -246 Z " />
<glyph glyph-name="parenright" unicode="&#x29;" horiz-adv-x="354" d="M115 -246 C204 -123 253 41 253 214 C253 393 201 568 114 680 L31 680 C59 630 76 599 86 576 C134 472 160 345 160 214 C160 45 128 -71 32 -246 L115 -246 Z " />
<glyph glyph-name="asterisk" unicode="&#x2a;" horiz-adv-x="536" d="M242 309 C243 323 247 335 252 344 C255 350 258 356 262 362 C262 363 265 369 268 375 C281 354 287 332 295 268 C303 203 321 175 354 175 C393 175 432 213 432 251 C432 274 418 294 387 316 C340 349 325 365 305 399 C317 405 325 407 336 407 L343 407 L350 405 L369 405 C377 405 391 404 407 402 C423 400 437 399 447 399 C483 399 508 424 508 460 C508 506 478 543 441 543 C416 543 405 537 365 499 C339 476 314 460 292 454 C290 464 290 469 290 475 C290 494 296 516 313 556 C326 588 331 605 331 623 C331 658 305 681 264 681 C223 681 197 657 197 620 C197 605 202 588 219 550 C232 523 239 496 239 477 C239 472 239 468 237 454 C220 453 200 465 156 503 C126 529 106 540 85 540 C51 540 22 503 22 459 C22 418 45 397 90 397 C106 397 126 399 149 403 C162 405 173 406 179 406 C198 406 215 403 223 399 C214 374 204 363 155 328 C115 299 97 275 97 249 C97 212 136 175 175 175 C207 175 232 213 238 271 L242 309 Z " />
<glyph glyph-name="plus" unicode="&#x2b;" horiz-adv-x="475" d="M-3 427 L-3 326 L184 326 L184 119 L289 119 L289 326 L478 326 L478 427 L289 427 L289 633 L184 633 L184 427 L-3 427 Z " />
<glyph glyph-name="comma" unicode="&#x2c;" horiz-adv-x="339" d="M70 -202 C105 -202 134 -195 166 -179 C237 -143 275 -75 275 15 C275 112 231 172 159 172 C101 172 61 131 61 71 C61 19 94 -20 137 -20 C143 -20 150 -19 156 -17 C170 -13 170 -13 174 -13 C186 -13 192 -21 192 -34 C192 -88 140 -131 70 -135 L70 -202 Z " />
<glyph glyph-name="hyphen" unicode="&#x2d;" horiz-adv-x="336" d="M28 260 L28 179 L315 179 L315 260 L28 260 Z " />
<glyph glyph-name="period" unicode="&#x2e;" horiz-adv-x="339" d="M168 178 C118 178 75 134 75 81 C75 26 116 -18 168 -18 C220 -18 261 26 261 80 C261 134 220 178 168 178 L168 178 Z " />
<glyph glyph-name="slash" unicode="&#x2f;" horiz-adv-x="349" d="M330 704 L206 704 L-17 -277 L104 -277 L330 704 Z " />
<glyph glyph-name="zero" unicode="0" horiz-adv-x="528" d="M264 681 C202 681 148 656 108 608 C57 549 34 459 34 326 C34 226 49 153 82 97 C121 27 189 -14 263 -14 C337 -14 403 27 443 97 C476 154 490 225 490 335 C490 444 476 512 442 572 C404 638 334 681 264 681 L264 681 Z M311 316 L311 223 L311 195 C311 138 310 119 307 103 C300 69 285 52 263 52 C245 52 231 65 224 89 C218 110 214 210 214 325 C214 391 216 492 218 517 C223 594 234 617 263 617 C283 617 298 603 305 577 C310 557 311 544 311 446 L311 316 Z " />
<glyph glyph-name="one" unicode="1" horiz-adv-x="528" d="M303 683 C241 640 189 624 90 618 L90 557 L96 557 C169 556 178 549 179 488 L179 108 C178 75 164 64 124 63 L100 63 L100 0 L439 0 L439 63 L416 63 C372 66 363 77 363 125 L363 683 L303 683 Z " />
<glyph glyph-name="two" unicode="2" horiz-adv-x="528" d="M58 0 L376 0 C403 0 410 -5 410 -24 L409 -34 L407 -38 L463 -38 L487 111 L226 111 C272 161 302 197 369 282 C460 395 477 429 477 495 C477 607 393 681 267 681 C149 681 54 612 54 527 C54 503 62 460 69 445 C71 441 75 438 79 438 C82 438 95 443 119 452 C147 463 149 464 162 468 C171 471 175 474 175 479 C175 482 174 488 173 494 C170 504 167 531 167 544 C167 581 194 612 227 612 C267 612 292 569 292 500 C292 359 213 207 58 51 L58 0 Z " />
<glyph glyph-name="three" unicode="3" horiz-adv-x="528" d="M328 400 C407 436 457 497 457 554 C457 631 383 681 270 681 C153 681 48 609 48 529 C48 491 62 457 77 457 C86 457 99 461 116 470 C120 472 125 474 130 476 C139 479 151 484 165 491 C170 494 173 495 174 496 C180 498 182 500 182 504 C182 506 181 510 179 513 C170 529 166 540 166 554 C166 585 194 612 225 612 C261 612 286 578 286 530 C286 472 254 418 196 378 C169 359 159 347 159 332 C159 313 172 295 186 295 C195 295 205 300 212 308 C233 332 236 334 251 334 C269 334 277 325 281 302 C282 295 286 176 286 157 C286 98 246 50 197 50 C175 50 162 63 152 93 C135 142 116 161 84 161 C48 161 19 129 19 91 C19 29 85 -14 181 -14 C349 -14 471 92 471 238 C471 323 432 375 355 395 C337 399 337 399 331 402 L328 400 Z " />
<glyph glyph-name="four" unicode="4" horiz-adv-x="528" d="M239 229 L239 121 C242 78 228 64 180 63 L156 63 L156 0 L504 0 L504 63 L477 63 C433 66 419 82 422 126 L422 229 L491 229 L504 328 L473 328 L468 319 C462 308 460 307 447 307 L443 307 L439 307 L431 307 L422 307 L422 678 L323 678 L33 314 L33 229 L239 229 Z M239 307 L102 307 L239 477 L239 307 Z " />
<glyph glyph-name="five" unicode="5" horiz-adv-x="528" d="M147 335 C165 371 178 381 207 381 C261 381 282 344 282 246 C282 156 276 109 263 84 C253 66 231 53 210 53 C188 53 163 70 152 91 C127 143 113 156 84 156 C50 156 22 125 22 89 C22 30 97 -14 195 -14 C268 -14 342 12 393 56 C444 100 469 158 469 233 C469 295 451 345 416 382 C375 425 315 451 255 451 C209 451 169 439 142 417 L145 563 L320 563 L345 563 L351 563 C376 560 384 573 419 661 C419 663 421 669 424 675 L89 675 L79 335 L147 335 Z " />
<glyph glyph-name="six" unicode="6" horiz-adv-x="528" d="M229 418 C237 539 269 613 313 613 C333 613 348 604 361 585 C384 551 403 537 426 537 C458 537 487 567 487 601 C487 647 434 681 362 681 C283 681 207 648 152 590 C84 519 49 410 49 270 C49 199 61 146 89 98 C129 28 201 -14 279 -14 C332 -14 383 5 425 41 C473 82 499 144 499 220 C499 353 424 430 295 430 C268 430 253 427 229 418 L229 418 Z M278 50 C227 57 219 81 220 230 L220 277 C220 336 237 366 270 366 C286 366 304 356 310 343 C322 318 324 303 326 203 L326 134 C325 106 325 99 322 90 C315 62 303 51 279 50 L278 50 Z " />
<glyph glyph-name="seven" unicode="7" horiz-adv-x="528" d="M493 675 L186 675 C169 675 164 678 164 691 C164 695 164 698 166 704 L106 704 L37 485 L95 485 L95 483 C108 530 120 539 167 537 L166 537 L160 537 L382 537 L187 142 C163 94 155 71 155 50 C155 13 188 -14 232 -14 C273 -14 295 9 313 69 L493 675 Z " />
<glyph glyph-name="eight" unicode="8" horiz-adv-x="528" d="M346 361 C437 388 479 437 479 515 C479 621 399 686 268 686 C133 686 51 621 51 513 C51 458 72 417 116 388 C135 375 153 369 193 361 C152 353 133 347 115 338 C64 309 35 256 35 186 C35 132 51 86 80 55 C119 13 192 -14 266 -14 C406 -14 496 63 496 183 C496 253 474 301 430 331 C410 344 388 351 346 361 L346 361 Z M267 623 C289 623 302 601 302 560 C303 525 303 494 304 482 C307 420 294 387 267 387 C254 387 242 395 236 407 C227 424 225 441 225 505 C225 569 227 586 236 603 C242 615 254 623 267 623 L267 623 Z M267 325 C282 325 296 317 302 306 C311 287 311 287 313 187 C311 87 311 87 302 68 C296 57 282 49 267 49 C251 49 235 58 229 70 C219 91 219 92 217 187 C219 282 219 283 229 304 C235 316 251 325 267 325 L267 325 Z " />
<glyph glyph-name="nine" unicode="9" horiz-adv-x="528" d="M319 247 C309 148 302 120 279 81 C270 65 249 53 231 53 C214 53 197 63 184 81 C158 117 145 126 119 126 C86 126 59 98 59 65 C59 18 105 -14 175 -14 C377 -14 494 134 494 389 C494 469 482 523 454 572 C414 641 347 681 268 681 C214 681 162 662 120 626 C72 585 47 523 47 447 C47 317 127 233 251 233 C279 233 296 237 319 247 L319 247 Z M325 372 C325 324 308 300 274 300 C255 300 239 312 231 333 C224 349 224 349 222 482 C223 568 224 577 234 597 C240 609 256 618 271 618 C312 618 328 573 325 465 C324 433 324 420 324 406 L325 372 Z " />
<glyph glyph-name="colon" unicode="&#x3a;" horiz-adv-x="339" d="M170 178 C120 178 77 134 77 81 C77 26 118 -18 170 -18 C222 -18 263 26 263 80 C263 134 222 178 170 178 L170 178 Z M170 415 C119 415 77 371 77 318 C77 263 118 219 170 219 C221 219 263 263 263 317 C263 371 222 415 170 415 L170 415 Z " />
<glyph glyph-name="semicolon" unicode="&#x3b;" horiz-adv-x="339" d="M70 -202 C105 -202 134 -195 166 -179 C237 -143 275 -75 275 15 C275 112 231 172 159 172 C101 172 61 131 61 71 C61 19 94 -20 137 -20 C143 -20 150 -19 156 -17 C170 -13 170 -13 174 -13 C186 -13 192 -21 192 -34 C192 -88 140 -131 70 -135 L70 -202 Z M171 416 C121 416 78 372 78 319 C78 264 119 220 172 220 C223 220 265 264 265 318 C265 372 223 416 171 416 L171 416 Z " />
<glyph glyph-name="less" unicode="&#x3c;" horiz-adv-x="475" d="M441 652 L34 390 L34 380 L441 82 L441 307 L251 446 L441 567 L441 652 Z " />
<glyph glyph-name="equal" unicode="&#x3d;" horiz-adv-x="500" d="M-3 505 L-3 407 L504 407 L504 505 L-3 505 Z M10 346 L10 248 L491 248 L491 346 L10 346 Z " />
<glyph glyph-name="greater" unicode="&#x3e;" horiz-adv-x="475" d="M34 82 L441 344 L441 354 L34 652 L34 427 L224 288 L34 167 L34 82 Z " />
<glyph glyph-name="question" unicode="&#x3f;" horiz-adv-x="478" d="M176 178 C126 178 84 134 84 81 C84 26 125 -18 177 -18 C228 -18 269 26 269 80 C269 134 228 178 176 178 L176 178 Z M141 230 L212 230 L212 302 C238 297 254 295 271 295 C368 295 441 374 441 479 C441 602 353 684 221 684 C118 684 37 631 37 564 C37 536 65 511 95 511 C124 511 145 533 153 574 C160 607 173 620 198 620 C241 620 264 567 264 466 C264 402 249 371 218 371 C208 371 200 375 194 383 L141 383 L141 230 Z " />
<glyph glyph-name="at" unicode="&#x40;" horiz-adv-x="752" d="M481 510 L471 484 C448 512 417 527 379 527 C335 527 301 511 266 476 C213 423 181 348 181 278 C181 200 236 138 304 138 C322 138 357 147 369 155 L396 172 C396 172 398 173 400 173 L400 177 C407 166 407 166 410 162 C422 150 450 141 475 141 C523 141 581 170 622 215 C664 261 688 323 688 386 C688 544 551 675 386 675 C206 675 63 526 63 339 C63 146 213 -9 399 -9 C529 -9 658 78 699 192 L631 189 C621 166 606 147 580 123 C526 75 467 51 403 51 C244 51 120 180 120 345 C120 430 149 498 208 549 C257 593 320 617 384 617 C517 617 631 510 631 383 C631 334 612 283 578 244 C552 215 519 193 500 193 C492 193 483 201 483 209 C483 213 484 219 487 226 C488 230 491 237 494 248 L578 511 C553 510 541 510 528 510 L508 510 L481 510 Z M406 295 C385 227 385 227 364 204 C352 190 337 183 321 183 C297 183 281 201 281 229 C281 283 304 363 337 426 C355 459 382 480 408 480 C430 480 447 460 447 433 C447 426 445 416 443 408 L406 295 Z " />
<glyph glyph-name="A" unicode="A" horiz-adv-x="620" d="M633 0 L633 63 L628 63 C586 67 568 87 535 167 L340 679 L276 679 L91 182 C66 110 29 66 -8 63 L-13 63 L-13 0 L201 0 L201 63 L195 63 C156 63 136 75 136 98 C136 107 140 123 146 141 L154 164 L338 164 L349 134 C360 102 361 100 361 91 C361 72 344 63 307 63 L302 63 L302 0 L633 0 Z M314 229 L177 229 L243 407 L314 229 Z " />
<glyph glyph-name="B" unicode="B" horiz-adv-x="666" d="M27 0 L382 0 C462 0 511 10 554 35 C606 65 633 112 633 173 C633 266 573 327 455 353 C556 384 607 436 607 509 C607 560 580 608 536 633 C490 660 432 670 324 670 C289 670 231 669 163 667 L25 663 L25 600 L30 600 C80 598 97 581 97 535 L97 126 C98 79 83 65 29 62 L27 62 L27 0 Z M291 318 C358 317 376 314 390 299 C412 275 420 241 420 167 C420 96 399 67 348 67 C323 67 304 75 297 88 C291 100 291 104 291 138 L291 318 Z M291 387 L291 604 C323 603 336 602 346 599 C382 586 397 554 397 491 C397 416 375 387 319 387 L301 387 L291 387 Z " />
<glyph glyph-name="C" unicode="C" horiz-adv-x="708" d="M598 258 C592 232 576 188 563 161 C536 103 470 60 408 60 C358 60 308 87 286 127 C264 165 255 227 255 332 C255 436 265 496 289 539 C314 582 354 605 405 605 C464 605 511 576 545 519 C565 484 580 447 588 410 L647 410 L641 655 L582 655 L581 653 L580 649 C574 633 571 623 570 620 C568 614 567 612 563 602 C505 657 449 679 372 679 C285 679 209 650 151 596 C80 529 38 430 38 329 C38 241 69 156 125 91 C185 22 268 -14 366 -14 C447 -14 527 17 572 66 C583 51 591 31 598 3 L658 3 L658 258 L598 258 Z " />
<glyph glyph-name="D" unicode="D" horiz-adv-x="762" d="M25 606 L29 606 C79 603 96 586 96 540 L96 127 C96 80 82 66 28 63 L26 63 L26 0 L241 0 C425 1 460 4 508 19 C642 63 724 181 724 331 C724 472 652 587 532 640 C474 666 410 675 276 675 L255 675 C215 675 142 673 25 669 L25 606 Z M290 607 C345 606 369 601 399 584 C471 541 502 466 502 332 C502 158 453 68 358 68 C328 68 307 77 298 94 C291 106 290 111 290 144 L290 607 Z " />
<glyph glyph-name="E" unicode="E" horiz-adv-x="648" d="M563 222 C533 105 494 67 404 68 L396 68 C312 72 300 82 303 147 L303 314 L360 314 C404 314 423 292 422 242 L422 235 L481 235 L481 460 L422 460 L422 454 C416 396 405 384 358 382 L303 382 L303 599 L425 599 C463 598 477 594 488 581 C507 558 522 530 534 492 L594 492 L586 667 L25 667 L25 605 L37 605 C92 602 109 587 109 539 L109 127 C110 81 94 66 39 63 L28 63 L28 0 L621 0 L623 222 L563 222 Z " />
<glyph glyph-name="F" unicode="F" horiz-adv-x="578" d="M566 667 L25 667 L25 605 L35 605 C87 603 105 586 105 539 L105 127 C105 79 91 66 34 63 L28 63 L28 0 L381 0 L381 63 L371 63 C315 66 298 81 299 127 L299 313 L343 313 C386 311 394 299 400 237 L400 232 L460 232 L460 459 L400 459 L400 451 C395 396 384 383 344 382 L299 382 L299 599 L391 599 C457 600 479 580 510 488 L571 488 L566 667 Z " />
<glyph glyph-name="G" unicode="G" horiz-adv-x="752" d="M434 314 L434 252 L439 251 C483 243 500 228 502 194 L502 170 C502 134 496 112 484 95 C467 72 434 59 394 59 C346 59 310 77 291 113 C268 154 261 200 261 300 C261 425 271 488 298 537 C320 576 361 598 412 598 C496 598 549 550 586 441 L647 441 L640 676 L580 676 C578 650 573 631 561 608 C502 656 440 679 366 679 C184 679 37 522 37 327 C37 136 179 -14 362 -14 C411 -14 440 -10 525 8 C583 20 632 26 672 26 C675 26 681 26 692 25 L692 182 C692 225 698 236 728 250 L736 252 L736 314 L434 314 Z " />
<glyph glyph-name="H" unicode="H" horiz-adv-x="821" d="M526 315 L526 126 C528 82 508 64 455 62 L456 62 L456 0 L796 0 L796 62 L790 62 C735 66 719 80 720 126 L720 538 C720 585 737 601 789 604 L796 604 L796 667 L456 667 L456 604 C506 603 527 583 526 538 L526 384 L294 384 L294 538 C294 585 311 601 363 604 L366 604 L366 667 L25 667 L25 604 L31 604 C80 603 101 582 100 538 L100 126 C103 83 83 65 29 62 L25 62 L25 0 L366 0 L366 62 L364 62 C308 66 293 80 294 126 L294 315 L526 315 Z " />
<glyph glyph-name="I" unicode="I" horiz-adv-x="397" d="M25 604 L31 604 C83 602 100 586 100 539 L100 127 C100 79 86 66 30 63 L25 63 L25 0 L371 0 L371 63 L364 63 C308 66 294 79 294 127 L294 539 C294 586 310 601 363 604 L371 604 L371 667 L25 667 L25 604 Z " />
<glyph glyph-name="J" unicode="J" horiz-adv-x="395" d="M25 667 L25 604 L41 604 C94 601 110 586 110 539 L110 -7 C110 -139 100 -175 62 -175 C50 -175 41 -170 41 -162 C41 -161 41 -159 42 -155 L42 -146 C42 -141 41 -136 40 -135 L37 -129 C36 -128 36 -125 36 -121 C36 -85 5 -61 -40 -61 C-92 -61 -130 -94 -130 -138 C-130 -199 -61 -238 46 -238 C152 -238 233 -199 273 -130 C296 -91 304 -43 304 49 L304 539 C304 586 321 602 373 604 L379 604 L379 667 L25 667 Z " />
<glyph glyph-name="K" unicode="K" horiz-adv-x="770" d="M299 349 L299 539 C299 586 315 601 368 604 L377 604 L377 667 L25 667 L25 604 L35 604 C88 602 105 586 105 539 L105 127 C105 79 91 66 34 63 L27 63 L27 0 L369 0 L369 63 C315 64 298 80 299 127 L299 256 L364 324 L469 140 C470 134 473 128 477 122 C484 112 488 101 488 91 C488 72 468 63 426 63 L422 63 L422 0 L795 0 L795 63 L791 63 C735 60 691 96 654 173 L495 450 L538 492 C618 571 670 601 729 605 L736 604 L736 667 L445 667 L445 604 L453 605 C484 605 499 596 499 577 C499 558 488 539 460 511 L299 349 Z " />
<glyph glyph-name="L" unicode="L" horiz-adv-x="627" d="M614 228 L557 228 C537 126 476 69 387 69 L383 69 C310 71 293 87 296 150 L296 538 C296 586 312 601 365 604 L373 604 L373 667 L25 667 L25 604 L33 604 C86 601 102 586 102 538 L102 127 C102 79 88 66 32 63 L25 63 L25 0 L612 0 L614 228 Z " />
<glyph glyph-name="M" unicode="M" horiz-adv-x="966" d="M305 667 L25 667 L25 604 L27 604 C89 600 109 583 108 535 L108 170 C112 99 88 67 29 63 L25 63 L25 0 L265 0 L265 63 L261 63 C198 65 172 98 176 167 L176 500 L407 0 L446 0 L667 511 L667 127 C667 79 653 66 597 63 L588 63 L588 0 L940 0 L940 63 L930 63 C875 66 861 79 861 127 L861 539 C862 587 877 602 928 604 L938 604 L938 667 L666 667 L486 257 L305 667 Z " />
<glyph glyph-name="N" unicode="N" horiz-adv-x="750" d="M650 -9 L650 492 C648 563 667 592 724 604 L731 604 L731 667 L491 667 L491 604 L495 604 C549 603 579 561 577 493 L577 287 L244 667 L25 667 L25 604 L29 604 C78 602 113 564 112 513 L112 176 C112 129 110 118 101 102 C88 79 61 62 38 62 L35 62 L31 62 L31 0 L267 0 L267 62 L261 62 L253 62 C234 61 210 77 198 99 C187 118 185 130 185 176 L185 444 L576 -9 L650 -9 Z " />
<glyph glyph-name="O" unicode="O" horiz-adv-x="790" d="M396 679 C295 679 208 647 148 589 C78 520 38 427 38 334 C38 227 83 125 157 64 C217 13 301 -14 396 -14 C505 -14 590 19 654 85 C718 151 752 237 752 330 C752 418 720 502 663 568 C596 644 511 679 396 679 L396 679 Z M394 605 C490 605 525 527 525 316 C525 214 516 158 492 115 C474 81 437 60 397 60 C351 60 317 84 294 134 C274 177 267 233 267 343 C267 530 304 605 394 605 L394 605 Z " />
<glyph glyph-name="P" unicode="P" horiz-adv-x="657" d="M25 667 L25 604 L41 604 C94 601 110 586 110 539 L110 127 C110 79 96 66 39 63 L30 63 L30 0 L387 0 L387 63 L375 63 C318 66 304 79 304 127 L304 290 L342 290 C433 290 452 291 489 301 C585 327 638 391 638 480 C638 545 605 605 553 635 C502 665 461 673 360 673 L351 673 L335 673 L287 673 C278 672 236 672 175 670 C155 669 126 669 82 668 L25 667 Z M304 358 L304 604 C348 604 364 602 381 592 C412 574 428 534 428 477 C428 393 399 358 329 358 L304 358 Z " />
<glyph glyph-name="Q" unicode="Q" horiz-adv-x="789" d="M841 -65 C814 -100 763 -122 709 -122 C659 -122 611 -108 540 -72 C503 -53 467 -42 444 -42 L438 -42 L493 -4 C651 34 752 165 752 330 C752 418 720 503 662 569 C597 643 509 679 397 679 C297 679 215 650 152 593 C80 526 38 429 38 329 C38 195 113 71 225 21 C271 0 317 -11 367 -14 C364 -16 361 -18 357 -21 C326 -41 307 -54 300 -59 C241 -102 229 -116 229 -141 C229 -161 244 -178 263 -178 C275 -178 289 -170 301 -155 C335 -116 355 -103 386 -103 C416 -103 441 -116 469 -147 C505 -187 538 -217 558 -229 C589 -249 633 -260 678 -260 C801 -260 880 -190 899 -65 L841 -65 Z M394 605 C432 605 475 582 489 552 C517 497 525 444 525 320 C525 141 485 60 397 60 C324 60 277 122 270 229 C263 331 266 423 278 489 C292 561 335 605 394 605 L394 605 Z " />
<glyph glyph-name="R" unicode="R" horiz-adv-x="712" d="M26 0 L377 0 L377 63 L371 63 C315 66 301 79 301 127 L301 287 L311 287 C353 288 374 283 389 269 C400 258 403 252 456 143 C504 43 508 34 532 0 L737 0 L737 63 L731 63 C698 64 668 98 621 189 C591 249 555 299 524 324 C592 349 639 413 639 484 C639 535 619 581 583 614 C550 644 514 657 457 663 C423 666 357 667 202 667 L25 667 L25 604 L37 604 C90 601 107 586 107 539 L107 127 C107 79 93 66 36 63 L26 63 L26 0 Z M301 595 C309 596 322 596 323 596 C407 596 438 565 438 478 C438 422 424 383 397 368 C382 359 363 356 329 356 C323 356 314 356 301 357 L301 595 Z " />
<glyph glyph-name="S" unicode="S" horiz-adv-x="543" d="M54 13 L118 13 C122 35 125 48 132 64 C172 16 236 -14 302 -14 C419 -14 515 81 515 197 C515 302 455 370 305 437 C230 470 202 499 202 543 C202 584 231 612 273 612 C332 612 383 554 403 465 L463 465 L463 667 L401 667 C396 647 392 633 388 625 C354 659 302 679 252 679 C142 679 52 587 52 474 C52 413 70 369 112 329 C142 300 144 299 232 249 C302 209 306 206 317 198 C339 181 351 158 351 132 C351 90 319 60 275 60 C230 60 190 87 159 137 C141 165 131 192 118 245 L54 245 L54 13 Z " />
<glyph glyph-name="T" unicode="T" horiz-adv-x="664" d="M74 470 C88 572 111 597 192 598 L233 598 L233 127 C233 79 218 66 162 63 L152 63 L152 0 L510 0 L510 63 L498 63 C441 66 427 79 427 127 L427 598 L467 598 C541 598 566 571 590 470 L651 470 L651 667 L13 667 L14 470 L74 470 Z " />
<glyph glyph-name="U" unicode="U" horiz-adv-x="737" d="M468 667 L468 604 L474 605 C529 606 567 566 565 509 L565 286 C565 215 561 183 550 155 C528 99 477 64 417 64 C367 64 325 88 301 131 C282 164 276 195 276 262 L276 539 C276 586 293 601 348 604 L358 604 L358 667 L16 667 L16 604 L21 604 C76 602 94 586 94 539 L94 278 C94 189 100 161 129 110 C173 31 260 -14 368 -14 C472 -14 561 29 600 99 C630 152 638 193 638 285 L638 498 C637 569 651 588 717 605 L721 604 L721 667 L468 667 Z " />
<glyph glyph-name="V" unicode="V" horiz-adv-x="682" d="M373 -13 L567 461 C614 577 636 605 679 605 L689 605 L694 605 L694 667 L452 667 L452 605 L455 605 C499 606 525 589 525 561 C525 555 520 529 517 521 L401 235 L289 502 C277 532 270 557 270 573 C270 592 294 605 330 605 L336 605 L336 667 L-13 667 L-13 605 L-10 605 C53 602 57 597 103 481 L98 494 L311 -13 L373 -13 Z " />
<glyph glyph-name="W" unicode="W" horiz-adv-x="897" d="M689 -13 L812 460 C843 576 860 604 904 605 L909 604 L909 667 L700 667 L700 604 L705 604 C738 604 761 582 761 550 C761 543 758 520 756 512 L691 262 L538 667 L453 667 L327 262 L245 537 C242 548 240 559 240 570 C240 594 254 605 283 605 L288 604 L288 667 L-13 667 L-13 604 L-9 605 L-4 605 L-3 605 C35 602 43 592 66 517 L220 -13 L309 -13 L444 409 L603 -13 L689 -13 Z " />
<glyph glyph-name="X" unicode="X" horiz-adv-x="769" d="M476 384 L585 507 C645 577 679 598 743 604 L741 604 L741 667 L484 667 L484 604 L491 604 C525 604 540 596 540 579 C540 567 534 552 527 544 L433 439 L353 550 C350 554 345 573 345 580 C345 598 356 604 392 604 L397 604 L397 667 L18 667 L18 604 L22 604 C91 601 100 595 179 484 L171 494 L307 304 L158 138 C113 88 69 62 27 62 L23 62 L19 62 L19 0 L306 0 L306 62 L298 62 L287 62 L285 62 C252 62 232 76 232 98 C232 111 238 127 247 134 L250 137 L348 248 L435 130 C443 120 447 108 447 96 C447 70 434 63 378 62 L373 62 L373 0 L778 0 L778 62 L776 62 L773 62 L772 62 C704 73 690 84 619 182 L476 384 Z " />
<glyph glyph-name="Y" unicode="Y" horiz-adv-x="635" d="M426 605 L431 605 C466 605 484 591 484 566 C484 552 479 534 471 518 C471 518 444 468 389 368 L292 529 C279 551 273 565 273 576 C273 595 287 605 317 605 L322 605 L322 667 L-11 667 L-11 605 L-6 605 C34 602 54 584 86 524 L220 278 L220 127 C220 79 206 66 149 63 L139 63 L139 0 L496 0 L496 63 L486 63 C430 66 417 78 417 127 L417 290 L526 484 L535 498 C537 502 543 511 550 524 C566 551 582 572 598 587 C609 597 627 605 640 605 L643 605 L646 605 L646 667 L426 667 L426 605 Z " />
<glyph glyph-name="Z" unicode="Z" horiz-adv-x="658" d="M33 0 L617 0 L626 205 L565 205 C532 98 490 65 391 68 L258 68 L605 617 L605 667 L56 667 L49 483 L106 483 L108 488 L111 498 C136 581 167 598 296 599 L375 599 L33 50 L33 0 Z " />
<glyph glyph-name="bracketleft" unicode="&#x5b;" horiz-adv-x="429" d="M399 -235 L399 -174 L333 -174 C293 -174 279 -158 281 -118 L281 550 C279 590 293 606 333 606 L399 606 L399 667 L118 667 L118 -235 L399 -235 Z " />
<glyph glyph-name="backslash" unicode="&#x5c;" horiz-adv-x="475" d="M405 -133 L150 655 L70 655 L327 -133 L405 -133 Z " />
<glyph glyph-name="bracketright" unicode="&#x5d;" horiz-adv-x="429" d="M30 -235 L310 -235 L310 667 L30 667 L30 606 L96 606 C135 606 149 590 147 550 L147 -118 C149 -158 135 -174 96 -174 L30 -174 L30 -235 Z " />
<glyph glyph-name="asciicircum" unicode="&#x5e;" horiz-adv-x="475" d="M509 272 L260 700 L250 700 L-33 272 L181 272 L313 472 L428 272 L509 272 Z " />
<glyph glyph-name="underscore" unicode="&#x5f;" horiz-adv-x="500" d="M-3 -95 L-3 -196 L504 -196 L504 -95 L-3 -95 Z " />
<glyph glyph-name="grave" unicode="&#x60;" horiz-adv-x="488" d="M310 484 L255 639 L57 639 L57 626 L260 484 L310 484 Z " />
<glyph glyph-name="a" unicode="a" horiz-adv-x="559" d="M515 94 C512 79 504 71 493 71 C477 71 470 81 470 102 L470 295 C470 339 466 354 446 376 C419 407 374 419 289 419 C212 419 164 412 122 393 C73 372 47 341 47 307 C47 273 73 249 110 249 C127 249 143 254 157 263 C168 272 174 283 176 305 C178 323 183 336 189 341 C198 349 219 355 237 355 C275 355 289 341 289 306 L289 266 L282 264 C180 235 127 209 72 162 C49 142 35 113 35 84 C35 25 79 -9 153 -9 C211 -9 259 7 300 39 C322 7 363 -9 422 -9 C508 -9 555 27 558 94 L515 94 Z M289 203 L289 99 C277 82 262 73 246 73 C222 73 203 93 203 118 C203 145 234 180 270 194 L283 199 L289 203 Z " />
<glyph glyph-name="b" unicode="b" horiz-adv-x="610" d="M251 679 L247 679 C235 678 224 676 221 675 C214 674 197 671 168 667 C113 659 71 652 12 642 L12 583 L14 583 C59 581 69 571 70 528 L70 -9 L116 -9 C161 23 193 46 213 61 C260 15 318 -10 378 -10 C492 -10 575 80 575 205 C575 330 494 419 379 419 C332 419 294 405 251 372 L251 679 Z M251 294 C274 325 296 339 321 339 C365 339 385 296 385 205 C385 101 365 64 309 64 C290 64 278 69 265 81 C252 92 251 93 251 96 L251 294 Z " />
<glyph glyph-name="c" unicode="c" horiz-adv-x="486" d="M409 131 C389 83 356 59 310 59 C248 59 221 105 221 207 C221 261 222 278 226 294 C235 335 260 359 291 359 C310 359 320 350 324 330 C337 269 357 245 394 245 C429 245 457 276 457 316 C457 380 397 419 300 419 C139 419 32 328 32 193 C32 69 127 -16 265 -16 C362 -16 435 28 464 102 L409 131 Z " />
<glyph glyph-name="d" unicode="d" horiz-adv-x="606" d="M593 78 L587 78 C548 80 535 93 535 131 L535 679 L530 679 C519 678 504 675 503 675 L449 666 C316 644 315 644 290 639 L290 579 L291 579 C339 578 353 566 354 526 L354 368 C325 401 279 419 224 419 C153 419 97 388 64 331 C44 296 35 254 35 194 C35 139 43 103 61 71 C90 21 143 -8 209 -8 C265 -8 307 11 353 56 C353 28 357 11 366 -8 C419 3 497 10 593 14 L593 78 Z M354 134 C339 98 312 77 281 77 C251 77 230 103 227 143 C226 157 225 202 225 222 C225 299 247 338 291 338 C313 338 330 328 354 301 L354 134 Z " />
<glyph glyph-name="e" unicode="e" horiz-adv-x="509" d="M413 107 C382 72 349 54 315 54 C283 54 251 71 236 97 C222 121 217 143 216 191 L477 191 L477 206 C477 336 394 419 261 419 C128 419 35 331 35 205 C35 76 132 -16 267 -16 C343 -16 421 20 462 73 L413 107 Z M216 248 C217 311 218 317 228 337 C234 348 249 356 263 356 C297 356 314 328 317 266 C317 263 317 256 318 248 L216 248 Z " />
<glyph glyph-name="f" unicode="f" horiz-adv-x="372" d="M355 403 L268 403 L268 545 C268 592 278 615 297 615 C310 615 319 605 322 591 C335 527 360 499 405 499 C447 499 483 536 483 581 C483 601 476 620 462 638 C440 665 391 680 325 680 C232 680 160 646 125 585 C101 542 96 518 96 411 L96 403 L18 403 L18 342 L96 342 L96 112 C95 72 84 62 35 60 L16 60 L16 0 L356 0 L356 60 L330 60 C282 62 269 73 268 112 L268 342 L355 342 L355 403 Z " />
<glyph glyph-name="g" unicode="g" horiz-adv-x="526" d="M273 -72 L310 -71 L350 -71 L356 -71 C396 -71 414 -84 414 -111 C414 -160 352 -190 250 -190 C177 -190 136 -171 136 -137 L136 -136 C134 -125 132 -119 131 -112 C130 -109 130 -108 129 -107 C109 -97 97 -94 82 -94 C55 -94 31 -120 31 -150 C31 -217 101 -250 242 -250 C326 -250 383 -239 428 -213 C484 -180 514 -129 514 -64 C514 -12 493 28 455 50 C425 67 393 73 331 73 C313 73 299 73 284 72 L204 71 C180 71 168 79 168 94 C168 119 195 132 249 132 C379 130 459 187 459 280 C459 304 455 320 443 342 C450 349 452 350 458 350 C466 350 471 348 480 340 C492 331 498 328 507 328 C528 328 540 344 540 369 C540 402 523 420 493 420 C472 420 453 411 420 385 L411 378 C372 407 331 418 264 418 C121 418 41 368 41 279 C41 242 58 204 84 181 C102 165 118 157 153 147 C82 127 53 96 53 41 C53 -39 110 -72 248 -72 L273 -72 Z M252 358 C278 358 291 332 291 281 C291 222 280 197 255 197 C228 197 214 227 214 283 C214 331 228 358 252 358 L252 358 Z " />
<glyph glyph-name="h" unicode="h" horiz-adv-x="595" d="M254 679 L250 679 C203 670 198 669 169 664 C114 655 80 649 69 647 C49 643 40 641 16 636 L16 577 L18 577 C64 574 72 565 73 518 L73 112 C72 71 62 62 18 60 L17 60 L17 0 L293 0 L293 60 L290 60 C266 64 254 81 254 112 L254 265 C276 303 298 322 320 322 C340 322 353 304 353 276 L353 112 C353 82 343 67 319 60 L315 60 L315 0 L591 0 L591 60 L588 60 C550 61 538 74 537 112 L537 256 C537 313 525 355 504 376 C476 403 436 419 394 419 C341 419 291 394 254 350 L254 679 Z " />
<glyph glyph-name="i" unicode="i" horiz-adv-x="328" d="M179 679 C124 679 80 636 80 582 C80 527 123 483 178 483 C231 483 275 527 275 581 C275 635 232 679 179 679 L179 679 Z M16 319 L27 319 C77 316 87 307 87 265 L87 112 C86 70 75 61 26 60 L16 60 L16 0 L322 0 L322 60 L320 60 C277 61 265 73 264 112 L264 419 L260 419 C249 417 238 415 235 414 L168 403 C100 391 61 385 52 384 C35 381 28 380 16 379 L16 319 Z " />
<glyph glyph-name="j" unicode="j" horiz-adv-x="332" d="M281 419 L277 419 L261 417 L188 405 L79 388 C55 384 47 383 20 378 L20 318 L36 318 C88 316 100 306 100 264 L100 -65 C100 -159 94 -182 72 -182 C62 -182 53 -175 50 -166 C36 -122 20 -107 -12 -107 C-49 -107 -76 -135 -76 -171 C-76 -219 -29 -247 48 -247 C153 -247 240 -200 268 -128 C279 -100 281 -72 281 25 L281 419 Z M193 679 C138 679 94 636 94 581 C94 527 138 483 192 483 C245 483 289 527 289 581 C289 635 246 679 193 679 L193 679 Z " />
<glyph glyph-name="k" unicode="k" horiz-adv-x="594" d="M324 403 L324 344 L328 344 C354 344 366 340 366 330 C366 326 365 324 357 315 L359 316 L354 313 L254 226 L254 679 L250 679 C203 670 198 669 168 664 L68 647 C49 643 39 641 16 636 L16 577 L20 577 C64 574 72 565 73 518 L73 113 C72 71 62 62 20 60 L16 60 L16 0 L297 0 L297 60 L293 60 C265 64 254 79 254 113 L254 152 L293 185 L342 102 L346 93 C351 81 351 81 351 77 C351 66 344 60 330 60 L328 60 L328 0 L588 0 L588 60 L585 60 C562 62 544 80 496 150 L411 280 L423 287 C485 327 485 327 494 330 C514 339 536 344 555 344 L561 344 L564 344 L564 403 L324 403 Z " />
<glyph glyph-name="l" unicode="l" horiz-adv-x="321" d="M16 576 L25 576 C65 574 72 565 73 518 L73 112 C72 71 64 61 25 60 L18 60 L18 0 L306 0 L306 60 L304 60 C264 62 254 72 254 112 L254 679 L250 679 C203 670 198 669 168 664 L68 647 C49 643 40 641 16 636 L16 576 Z " />
<glyph glyph-name="m" unicode="m" horiz-adv-x="857" d="M246 405 C225 401 221 400 180 394 C167 392 100 380 16 366 L16 306 L19 306 C58 305 73 293 74 260 L74 112 C73 71 63 62 20 60 L19 60 L19 0 L290 0 L290 60 L287 60 C266 64 255 81 255 112 L255 265 C279 305 299 322 319 322 C337 322 348 305 348 276 L348 112 C348 82 339 66 318 60 L313 60 L313 0 L564 0 L564 60 L561 60 C538 64 527 81 527 112 L528 265 C551 304 571 322 592 322 C610 322 622 304 622 276 L622 112 C622 82 613 66 591 60 L587 60 L587 0 L853 0 L853 60 L850 60 C812 61 800 74 799 112 L799 256 C799 313 796 330 780 358 C760 394 712 419 663 419 C610 419 555 389 517 341 C495 390 449 419 391 419 C341 419 294 396 258 354 C256 382 255 392 250 405 L246 405 Z " />
<glyph glyph-name="n" unicode="n" horiz-adv-x="596" d="M16 306 L19 306 C58 305 73 293 74 260 L74 112 C73 71 63 62 20 60 L19 60 L19 0 L295 0 L295 60 L292 60 C267 64 255 81 255 112 L255 265 C277 302 300 322 321 322 C342 322 355 304 355 276 L355 112 C355 82 345 67 320 60 L316 60 L316 0 L593 0 L593 60 L590 60 C552 61 540 74 539 112 L539 256 C539 313 527 355 506 376 C478 403 438 419 397 419 C344 419 295 396 258 354 C256 382 255 392 250 405 L246 405 C225 401 221 400 180 394 C167 392 100 380 16 366 L16 306 Z " />
<glyph glyph-name="o" unicode="o" horiz-adv-x="552" d="M273 419 C131 419 35 330 35 197 C35 139 56 87 93 51 C136 10 206 -16 275 -16 C418 -16 517 75 517 204 C517 261 500 308 467 343 C421 392 351 419 273 419 L273 419 Z M224 216 C225 299 227 309 238 333 C244 346 260 356 276 356 C291 356 306 347 314 333 C325 312 327 291 327 211 C327 142 325 115 320 93 C313 61 299 46 277 46 C243 46 226 81 225 157 L225 204 C224 209 224 214 224 215 L224 216 Z " />
<glyph glyph-name="p" unicode="p" horiz-adv-x="609" d="M13 321 L14 321 C58 319 70 308 71 268 L71 -122 C70 -164 60 -173 14 -175 L13 -175 L13 -235 L326 -235 L326 -175 L310 -175 C265 -174 253 -162 252 -122 L252 40 C297 1 337 -16 385 -16 C493 -16 575 79 575 205 C575 328 498 419 395 419 C343 419 292 394 248 348 C247 363 246 375 246 387 C245 391 243 401 238 419 L234 419 C208 413 206 413 163 406 C130 401 79 393 13 381 L13 321 Z M252 272 C270 313 296 335 326 335 C345 335 361 325 370 308 C382 286 386 259 386 192 C386 143 383 122 372 102 C361 83 341 70 322 70 C297 70 271 84 252 106 L252 272 Z " />
<glyph glyph-name="q" unicode="q" horiz-adv-x="577" d="M489 419 C452 393 425 372 390 344 C339 397 294 418 232 418 C113 418 35 331 35 199 C35 68 109 -16 225 -16 C275 -16 310 -2 356 37 L356 -122 C355 -162 342 -174 298 -175 L286 -175 L286 -235 L596 -235 L596 -175 L594 -175 C550 -174 538 -162 537 -122 L537 419 L489 419 Z M356 113 C333 81 309 66 284 66 C267 66 249 76 240 92 C228 114 227 123 226 172 L225 225 C225 304 244 342 285 342 C310 342 325 332 348 297 C350 293 353 289 356 285 L356 113 Z " />
<glyph glyph-name="r" unicode="r" horiz-adv-x="477" d="M16 313 L18 313 C60 311 73 299 74 260 L74 112 C73 71 62 61 20 60 L17 60 L17 0 L321 0 L321 60 L313 60 C269 61 257 72 256 112 L256 149 C256 226 263 275 276 287 C287 296 297 301 309 301 C322 301 334 295 346 283 C373 255 380 251 403 251 C443 251 471 283 471 330 C471 383 437 419 388 419 C332 419 286 386 249 318 C248 361 243 391 233 419 C108 393 70 385 16 372 L16 313 Z " />
<glyph glyph-name="s" unicode="s" horiz-adv-x="464" d="M41 -12 L89 -12 C94 0 98 5 107 12 L114 9 C182 -13 201 -17 246 -17 C358 -17 429 43 429 137 C429 183 408 227 376 247 C348 265 289 284 230 293 C182 300 161 312 161 332 C161 354 185 367 225 367 C294 367 337 343 354 293 L402 293 L402 416 L358 416 C351 405 348 401 340 394 C289 412 248 420 206 420 C108 420 38 361 38 278 C38 238 54 202 84 179 C115 155 152 142 249 121 C283 114 298 102 298 85 C298 60 263 42 216 42 C157 42 111 73 94 124 L41 124 L41 -12 Z " />
<glyph glyph-name="t" unicode="t" horiz-adv-x="357" d="M349 341 L349 403 L234 403 L234 538 L176 538 C164 458 101 402 23 402 C20 402 13 402 6 403 L6 341 L62 341 L62 105 C62 27 111 -16 199 -16 C281 -16 341 21 363 85 L309 102 C296 72 284 62 263 62 C238 62 234 73 234 141 L234 341 L349 341 Z " />
<glyph glyph-name="u" unicode="u" horiz-adv-x="583" d="M518 403 L288 403 L288 343 L290 343 C326 342 336 330 337 291 L337 120 C333 116 333 116 316 101 C304 89 288 81 278 81 C257 81 247 102 247 144 L247 403 L6 403 L6 343 L8 343 C51 341 66 328 66 291 L66 132 C66 87 70 69 83 45 C105 7 150 -16 201 -16 C253 -16 297 5 337 49 L336 4 L334 -8 C334 -8 333 -12 333 -16 L338 -16 C381 -8 490 1 550 1 C554 1 563 1 576 0 L576 60 L573 60 C531 61 519 72 518 112 L518 403 Z " />
<glyph glyph-name="v" unicode="v" horiz-adv-x="501" d="M295 -5 L424 255 C435 278 451 307 460 319 C470 334 487 344 501 344 L502 344 L505 344 L505 403 L346 403 L346 344 L349 344 C368 345 383 338 383 327 C383 322 382 317 379 312 L301 148 L228 302 C224 310 222 319 222 325 C222 336 235 344 256 344 L260 344 L260 403 L-7 403 L-7 344 L-3 344 C24 343 29 338 66 264 L198 -5 L295 -5 Z " />
<glyph glyph-name="w" unicode="w" horiz-adv-x="772" d="M588 -7 L695 242 C700 253 705 264 709 275 C718 297 728 315 738 326 C746 336 763 344 775 344 L778 344 L780 344 L780 403 L593 403 L593 344 L595 344 C597 344 623 341 631 339 C644 337 652 327 652 316 C652 312 652 312 649 303 L647 298 L592 161 L481 403 L388 403 L281 161 L226 296 C221 310 218 320 218 327 C218 338 232 344 262 344 L265 344 L265 403 L-10 403 L-10 344 L-7 344 C24 343 31 335 56 279 L177 -7 L274 -7 L380 235 L493 -7 L588 -7 Z " />
<glyph glyph-name="x" unicode="x" horiz-adv-x="524" d="M495 344 L495 403 L333 403 L333 344 L335 344 L347 344 C355 344 360 341 360 334 C360 327 349 312 335 301 L306 278 L277 309 C268 319 264 325 264 332 C264 340 271 344 288 344 L293 344 L293 403 L8 403 L8 344 L7 344 C7 342 11 340 17 341 C24 341 62 307 97 271 L193 170 L120 114 C84 86 51 70 13 61 L6 59 L6 0 L197 0 L197 59 L193 59 L177 59 L176 59 C166 59 161 63 161 70 C161 77 163 80 180 94 L224 131 L260 91 C268 82 270 78 270 74 C270 64 260 59 237 59 L232 59 L225 59 L225 0 L516 0 L516 59 L511 60 C506 60 478 85 454 111 L338 237 L390 278 C455 333 462 338 492 344 L495 344 Z " />
<glyph glyph-name="y" unicode="y" horiz-adv-x="513" d="M-6 403 L-6 344 L1 343 C20 341 30 330 51 291 C54 286 57 280 60 274 L231 -20 L227 -29 C197 -83 182 -94 106 -110 C59 -121 39 -140 39 -176 C39 -219 73 -252 118 -252 C171 -252 208 -218 248 -130 C254 -117 259 -106 262 -101 L269 -86 L410 215 C414 224 417 231 418 232 L422 240 C433 261 434 265 440 278 C462 325 477 341 498 343 L507 344 L507 403 L342 403 L342 344 L346 344 L351 344 L352 344 C367 344 381 332 381 318 C381 310 381 310 364 273 L310 155 L240 291 C227 315 226 318 226 325 C226 336 235 342 252 343 L260 344 L260 403 L-6 403 Z " />
<glyph glyph-name="z" unicode="z" horiz-adv-x="483" d="M29 0 L446 0 L459 140 L401 140 C373 77 358 60 329 61 L249 61 L452 349 L452 403 L53 403 L44 276 L103 276 C131 339 133 342 159 342 L234 342 L29 48 L29 0 Z " />
<glyph glyph-name="braceleft" unicode="&#x7b;" horiz-adv-x="410" d="M66 197 C110 193 126 171 127 106 L127 -81 C128 -146 150 -192 189 -213 C208 -226 257 -232 342 -233 L376 -233 L376 -200 C310 -198 287 -160 291 -57 L291 84 C293 163 258 196 153 213 L153 217 L153 221 C258 238 293 271 291 350 L291 491 C287 594 310 632 376 634 L376 667 L342 667 C257 666 208 660 189 647 C150 626 128 580 127 515 L127 328 C126 263 110 241 66 237 L66 197 Z " />
<glyph glyph-name="bar" unicode="&#x7c;" horiz-adv-x="482" d="M173 667 L173 -167 L311 -167 L311 667 L173 667 Z " />
<glyph glyph-name="braceright" unicode="&#x7d;" horiz-adv-x="410" d="M343 237 C298 241 283 263 282 328 L282 515 C281 580 259 626 219 647 C200 660 152 666 67 667 L33 667 L33 634 C99 632 122 594 118 491 L118 350 C116 271 151 238 256 221 L256 217 L256 213 C151 196 116 163 118 84 L118 -57 C122 -160 99 -198 33 -200 L33 -233 L67 -233 C152 -232 200 -226 219 -213 C259 -192 281 -146 282 -81 L282 106 C283 171 298 193 343 197 L343 237 Z " />
<glyph glyph-name="asciitilde" unicode="&#x7e;" horiz-adv-x="652" d="M482 733 C461 709 442 697 423 697 C401 697 373 704 341 717 C312 729 285 736 265 736 C224 736 189 701 141 612 L169 594 C198 624 208 630 236 630 C256 630 269 626 307 611 C338 597 359 592 381 592 C412 592 432 600 450 622 C475 652 497 686 512 715 L482 733 Z " />
<glyph glyph-name="uni00A0" unicode="&#xa0;" horiz-adv-x="250" d="" />
<glyph glyph-name="exclamdown" unicode="&#xa1;" horiz-adv-x="339" d="M143 202 L96 -129 C93 -149 91 -168 91 -184 C91 -232 117 -254 176 -254 C229 -254 256 -230 256 -184 C256 -173 254 -154 251 -133 L203 202 L143 202 Z M172 448 C121 448 79 404 79 351 C79 296 120 252 172 252 C223 252 265 296 265 350 C265 404 223 448 172 448 L172 448 Z " />
<glyph glyph-name="cent" unicode="&#xa2;" horiz-adv-x="528" d="M447 130 C438 111 431 100 418 88 C395 68 361 54 337 54 C334 54 327 55 319 57 L358 333 C361 277 386 245 428 245 C466 245 497 277 497 316 C497 368 451 406 373 416 L403 614 L346 614 L316 419 C251 413 224 407 198 394 C115 352 68 279 68 192 C68 84 133 10 248 -15 L222 -191 L280 -191 L305 -21 C417 -4 471 30 502 102 L447 130 Z M305 358 L269 101 C258 124 250 175 250 219 C250 284 256 312 273 332 C288 351 294 356 301 356 C306 356 309 357 309 358 L305 358 Z " />
<glyph glyph-name="sterling" unicode="&#xa3;" horiz-adv-x="697" d="M28 197 L166 197 C160 162 141 91 127 56 C56 13 26 -21 26 -58 C26 -91 59 -119 98 -119 C134 -119 165 -81 192 -3 C202 2 209 4 217 4 C234 4 259 -12 292 -45 C346 -97 391 -119 446 -119 C558 -119 661 -23 661 81 C661 123 632 154 592 154 C557 154 534 129 534 91 C534 72 535 67 545 25 C548 10 549 6 549 1 C549 -16 535 -29 517 -29 C490 -29 460 -8 402 48 C364 86 323 107 288 107 C275 107 264 105 236 96 C263 134 280 162 295 197 L457 197 L477 288 L332 288 C353 337 385 491 396 597 C405 679 425 712 463 712 C488 712 503 701 521 670 C543 630 563 615 592 615 C628 615 658 646 658 682 C658 739 590 781 499 781 C382 781 303 723 251 599 C222 529 220 520 189 306 C187 297 187 296 187 294 L185 288 L50 288 L28 197 Z " />
<glyph glyph-name="currency" unicode="&#xa4;" horiz-adv-x="633" d="M6 84 L70 16 L169 121 C218 90 255 79 314 79 C370 79 408 90 461 121 L560 17 L624 84 L522 192 C549 240 560 283 560 344 C560 401 550 441 522 492 L627 603 L563 670 L460 562 C413 590 364 604 311 604 C258 604 206 590 169 564 L70 668 L6 601 L104 498 C72 437 63 402 63 348 C63 292 75 245 104 186 L6 84 Z M315 453 C371 453 414 403 414 340 C414 280 369 230 315 230 C260 230 215 280 215 342 C215 403 260 453 315 453 L315 453 Z " />
<glyph glyph-name="yen" unicode="&#xa5;" horiz-adv-x="506" d="M358 493 L229 493 L210 528 C199 548 193 567 193 579 C193 595 208 604 232 604 L237 604 L237 667 L-63 667 L-63 604 L-57 604 C-20 599 -9 587 24 523 L39 493 L-24 493 L-24 432 L70 432 L148 273 L-15 273 L-15 212 L145 212 L145 127 C144 74 135 65 81 63 L72 63 L72 0 L393 0 L393 63 L384 63 C330 65 323 73 322 127 L322 212 L481 212 L481 273 L316 273 L316 287 L393 432 L491 432 L491 493 L425 493 C474 584 492 604 525 604 L529 604 L529 667 L330 667 L330 604 L335 604 C371 604 391 592 391 571 C391 563 388 552 384 544 L358 493 Z M328 432 L294 368 L261 432 L328 432 Z " />
<glyph glyph-name="brokenbar" unicode="&#xa6;" horiz-adv-x="482" d="M173 667 L173 297 L311 297 L311 667 L173 667 Z M173 153 L173 -167 L311 -167 L311 153 L173 153 Z " />
<glyph glyph-name="section" unicode="&#xa7;" horiz-adv-x="516" d="M128 374 C67 363 22 302 22 231 C22 144 64 85 184 3 C242 -36 271 -57 286 -69 C311 -90 323 -110 323 -132 C323 -161 294 -185 259 -185 C226 -185 204 -167 193 -129 C180 -82 178 -78 167 -68 C156 -57 139 -50 123 -50 C86 -50 56 -82 56 -121 C56 -194 134 -248 239 -248 C359 -248 449 -178 449 -84 C449 -29 424 22 382 53 C450 75 483 122 483 200 C483 269 459 323 410 367 C381 393 349 414 252 475 C196 509 179 530 179 562 C179 592 209 617 245 617 C279 617 298 602 311 567 C325 527 325 527 330 518 C342 495 358 485 381 485 C421 485 452 517 452 557 C452 625 371 680 271 680 C147 680 56 608 56 510 C56 453 80 408 128 374 L128 374 Z M170 329 C196 329 260 289 310 241 C354 199 371 173 371 146 C371 123 355 105 333 105 C315 105 299 112 269 134 C239 155 215 175 193 193 C154 226 132 260 132 286 C132 307 152 329 170 329 L170 329 Z " />
<glyph glyph-name="dieresis" unicode="&#xa8;" horiz-adv-x="446" d="M110 642 C68 642 33 607 33 566 C33 523 67 488 110 488 C153 488 187 523 187 565 C187 608 153 642 110 642 L110 642 Z M335 642 C293 642 258 607 258 566 C258 523 292 488 334 488 C377 488 412 522 412 565 C412 607 377 642 335 642 L335 642 Z " />
<glyph glyph-name="copyright" unicode="&#xa9;" horiz-adv-x="764" d="M382 680 C199 680 52 525 52 333 C52 145 200 -13 377 -13 C564 -13 711 140 711 334 C711 526 564 680 382 680 L382 680 Z M381 629 C535 629 660 497 660 334 C660 168 536 38 378 38 C228 38 103 173 103 333 C103 497 227 629 381 629 L381 629 Z M498 291 C483 222 449 183 403 183 C379 183 355 197 344 217 C332 239 327 272 327 332 C327 438 349 482 401 482 C446 482 478 445 493 375 L523 375 L519 510 L490 510 C486 497 483 488 481 481 C450 511 423 523 385 523 C289 523 218 441 218 331 C218 223 288 142 381 142 C423 142 462 158 485 186 C491 176 495 166 498 151 L528 151 L528 291 L498 291 Z " />
<glyph glyph-name="ordfeminine" unicode="&#xaa;" horiz-adv-x="346" d="M316 332 C314 322 310 318 303 318 C293 318 289 322 289 334 L289 456 C289 515 260 537 180 537 C89 537 34 509 34 463 C34 441 51 424 74 424 C99 424 114 438 116 464 C118 485 126 493 148 493 C169 493 176 485 176 463 L176 440 L174 439 C76 409 26 370 26 323 C26 284 53 261 98 261 C133 261 159 270 185 289 C198 271 224 261 259 261 C315 261 346 286 347 332 L316 332 Z M176 330 C169 320 162 315 154 315 C140 315 129 328 129 343 C129 363 143 378 176 395 L176 330 Z " />
<glyph glyph-name="guillemotleft" unicode="&#xab;" horiz-adv-x="560" d="M2 217 L191 -6 L251 -6 L185 217 L250 440 L190 440 L2 217 Z M267 217 L456 -6 L516 -6 L450 217 L516 440 L455 440 L267 217 Z " />
<glyph glyph-name="logicalnot" unicode="&#xac;" horiz-adv-x="475" d="M452 0 L452 267 L24 267 L24 175 L234 175 L234 0 L452 0 Z " />
<glyph glyph-name="uni00AD" unicode="&#xad;" horiz-adv-x="336" d="M28 260 L28 179 L315 179 L315 260 L28 260 Z " />
<glyph glyph-name="registered" unicode="&#xae;" horiz-adv-x="764" d="M382 680 C199 680 52 525 52 333 C52 145 200 -13 377 -13 C564 -13 711 140 711 334 C711 526 564 680 382 680 L382 680 Z M381 629 C535 629 660 497 660 334 C660 168 536 38 378 38 C228 38 103 173 103 333 C103 497 227 629 381 629 L381 629 Z M215 150 L390 150 L390 184 L387 184 C359 186 352 194 352 220 L352 308 L357 308 C393 310 401 301 430 229 C441 198 452 175 468 150 L570 150 L570 184 L567 184 C550 185 534 205 512 254 C497 287 479 314 463 328 C498 342 521 377 521 416 C521 458 500 491 464 507 C443 516 429 517 302 517 L214 517 L214 483 L220 483 C247 481 255 472 255 446 L255 220 C255 194 248 186 220 184 L215 184 L215 150 Z M352 346 L352 477 C356 478 363 478 364 478 C406 478 421 461 421 413 C421 363 407 346 367 346 L365 346 L352 346 Z " />
<glyph glyph-name="macron" unicode="&#xaf;" horiz-adv-x="383" d="M33 530 L349 530 L349 593 L33 593 L33 530 Z " />
<glyph glyph-name="degree" unicode="&#xb0;" horiz-adv-x="400" d="M203 686 C117 686 50 619 50 534 C50 448 116 381 200 381 C284 381 350 448 350 533 C350 619 286 686 203 686 L203 686 Z M202 629 C252 629 293 586 293 534 C293 480 252 438 200 438 C148 438 106 481 106 533 C106 587 148 629 202 629 L202 629 Z " />
<glyph glyph-name="plusminus" unicode="&#xb1;" horiz-adv-x="475" d="M-3 465 L-3 364 L184 364 L184 157 L289 157 L289 364 L478 364 L478 465 L289 465 L289 671 L184 671 L184 465 L-3 465 Z M-3 101 L-3 1 L478 1 L478 101 L-3 101 Z " />
<glyph glyph-name="twosuperior" unicode="&#xb2;" horiz-adv-x="357" d="M44 267 L248 267 C266 267 266 266 266 255 C266 251 265 249 263 245 L308 245 L323 339 L163 339 C297 486 317 516 317 565 C317 630 261 675 178 675 C97 675 41 633 41 572 C41 550 50 525 59 525 C66 525 76 528 87 533 C94 537 103 540 114 543 C122 545 126 548 126 553 C126 553 126 555 125 556 C122 563 121 571 121 578 C121 606 136 628 155 628 C175 628 191 602 191 568 C191 482 143 395 44 301 L44 267 Z " />
<glyph glyph-name="threesuperior" unicode="&#xb3;" horiz-adv-x="356" d="M121 600 C121 614 138 628 154 628 C174 628 188 609 188 583 C188 547 170 520 130 494 C115 484 108 475 108 466 C108 453 118 441 129 441 C136 441 144 445 149 450 C161 464 161 464 170 464 C178 464 182 461 184 452 C185 445 188 382 188 362 C188 332 164 304 137 304 C124 304 118 310 112 327 C101 356 87 369 65 369 C41 369 20 349 20 324 C20 286 63 259 127 259 C235 259 314 323 314 410 C314 464 291 492 233 509 C285 538 305 564 305 599 C305 643 255 675 186 675 C104 675 38 632 38 579 C38 556 49 536 61 536 C66 536 72 537 78 540 C88 544 95 547 96 547 C122 556 132 562 132 567 C132 569 131 571 129 574 C125 580 121 591 121 600 L121 600 Z " />
<glyph glyph-name="acute" unicode="&#xb4;" horiz-adv-x="488" d="M179 484 L228 484 L432 626 L432 639 L234 639 L179 484 Z " />
<glyph glyph-name="mu" unicode="&#xb5;" horiz-adv-x="576" d="M442 500 L353 500 L354 131 C318 80 284 58 242 58 C184 58 150 99 150 169 L150 500 L62 500 L62 20 C62 -1 58 -26 51 -56 C34 -118 33 -123 33 -147 C33 -190 54 -219 83 -219 C112 -219 132 -189 132 -145 C132 -124 129 -110 113 -53 C102 -17 101 -8 101 21 L101 33 C143 -3 165 -13 200 -13 C250 -13 301 18 354 80 C362 48 367 36 377 21 C392 0 419 -13 449 -13 C510 -13 553 31 567 108 L540 109 C536 71 515 41 492 41 C462 41 442 77 442 131 L442 500 Z " />
<glyph glyph-name="paragraph" unicode="&#xb6;" horiz-adv-x="655" d="M575 667 L284 667 C188 667 187 667 165 661 C94 642 48 580 48 500 C48 439 77 385 124 358 C154 342 183 336 239 336 C243 336 259 336 273 337 L273 4 L273 -18 L273 -19 C272 -36 271 -37 247 -37 L234 -37 L220 -37 L200 -37 L200 -76 L372 -76 L372 624 L418 624 L418 -76 L560 -76 L560 -37 L546 -37 L532 -37 C520 -37 519 -36 518 -26 L518 -2 L518 559 L519 595 C519 606 521 615 524 619 C526 625 538 627 565 628 L575 628 L575 667 Z M273 628 L273 379 L255 379 C225 379 208 426 208 514 C208 558 217 603 230 618 C235 625 245 628 261 628 L273 628 Z " />
<glyph glyph-name="periodcentered" unicode="&#xb7;" horiz-adv-x="284" d="M134 430 C83 430 41 386 41 334 C41 278 82 234 133 234 C185 234 227 278 227 332 C227 386 185 430 134 430 L134 430 Z " />
<glyph glyph-name="cedilla" unicode="&#xb8;" horiz-adv-x="475" d="M210 0 C206 -47 201 -80 194 -105 C213 -106 226 -119 226 -138 C226 -155 218 -162 198 -162 C180 -162 166 -160 144 -153 C142 -178 141 -182 138 -205 C153 -212 173 -216 196 -216 C272 -216 317 -181 317 -122 C317 -75 292 -45 249 -40 C253 -21 253 -18 255 0 L210 0 Z " />
<glyph glyph-name="onesuperior" unicode="&#xb9;" horiz-adv-x="356" d="M64 596 L85 596 L95 595 L101 595 C105 596 108 596 110 596 C122 596 126 588 126 558 L126 334 C125 313 124 311 100 311 L83 311 L83 267 L293 267 L293 311 L276 311 C253 312 251 314 251 336 L251 676 L207 676 C165 650 127 640 64 638 L64 596 Z " />
<glyph glyph-name="ordmasculine" unicode="&#xba;" horiz-adv-x="342" d="M26 395 C26 313 85 257 171 257 C257 257 317 315 317 399 C317 481 257 537 170 537 C86 537 26 479 26 398 L26 395 Z M171 302 C152 302 143 331 144 385 C145 406 145 417 145 435 C145 471 154 490 172 490 C193 490 198 472 198 402 C198 322 193 302 172 302 L171 302 Z " />
<glyph glyph-name="guillemotright" unicode="&#xbb;" horiz-adv-x="560" d="M538 217 L351 440 L290 440 L355 217 L290 -6 L349 -6 L538 217 Z M273 217 L86 440 L25 440 L90 217 L24 -6 L84 -6 L273 217 Z " />
<glyph glyph-name="onequarter" unicode="&#xbc;" horiz-adv-x="889" d="M64 596 L80 596 L89 595 L91 595 L108 596 C122 596 126 588 126 558 L126 334 C125 313 123 311 96 311 L78 311 L78 267 L298 267 L298 311 L279 311 C253 312 251 314 251 336 L251 676 L207 676 C165 650 127 640 64 638 L64 596 Z M362 0 L685 675 L608 675 L285 0 L362 0 Z M693 135 L693 75 C693 49 689 45 661 44 L642 44 L642 0 L868 0 L868 44 L847 44 C822 45 817 51 817 78 L817 135 L860 135 L868 206 L843 206 L841 200 C837 193 828 188 822 188 L817 188 L817 406 L748 406 L565 190 L565 135 L693 135 Z M693 188 L620 188 L693 274 L693 188 Z " />
<glyph glyph-name="onehalf" unicode="&#xbd;" horiz-adv-x="889" d="M64 596 L80 596 L89 595 L91 595 L108 596 C122 596 126 588 126 558 L126 334 C125 313 123 311 96 311 L78 311 L78 267 L298 267 L298 311 L279 311 C253 312 251 314 251 336 L251 676 L207 676 C165 650 127 640 64 638 L64 596 Z M343 0 L666 675 L589 675 L266 0 L343 0 Z M580 0 L783 0 C798 0 800 -1 800 -10 C800 -13 799 -17 798 -20 L797 -22 L841 -22 L857 72 L698 72 C832 221 851 249 851 299 C851 364 795 409 714 409 C633 409 577 367 577 306 C577 283 586 258 595 258 C601 258 612 261 623 267 C628 269 638 273 649 276 C657 278 661 281 661 284 C661 285 661 286 660 288 C658 297 656 307 656 313 C656 339 672 362 690 362 C710 362 725 336 725 302 C725 215 679 129 580 34 L580 0 Z " />
<glyph glyph-name="threequarters" unicode="&#xbe;" horiz-adv-x="888" d="M348 0 L674 675 L597 675 L271 0 L348 0 Z M693 135 L693 75 C693 49 688 45 660 44 L640 44 L640 0 L868 0 L868 44 L847 44 C823 45 817 51 817 78 L817 135 L860 135 L868 206 L843 206 L841 200 C837 193 828 188 822 188 L817 188 L817 406 L748 406 L563 190 L563 135 L693 135 Z M693 188 L618 188 L693 274 L693 188 Z M121 600 C121 614 138 628 154 628 C174 628 188 609 188 583 C188 547 170 520 130 494 C115 484 108 475 108 466 C108 453 118 441 129 441 C136 441 144 445 149 450 C161 464 161 464 170 464 C178 464 182 461 184 452 C185 445 188 382 188 362 C188 332 164 304 137 304 C124 304 118 310 112 327 C101 356 87 369 65 369 C41 369 20 349 20 324 C20 286 63 259 127 259 C235 259 314 323 314 410 C314 464 291 492 233 509 C285 538 305 564 305 599 C305 643 255 675 186 675 C104 675 38 632 38 579 C38 556 49 536 61 536 C66 536 72 537 78 540 C88 544 95 547 96 547 C122 556 132 562 132 567 C132 569 131 571 129 574 C125 580 121 591 121 600 L121 600 Z " />
<glyph glyph-name="questiondown" unicode="&#xbf;" horiz-adv-x="478" d="M291 445 C240 445 198 401 198 349 C198 293 239 249 291 249 C342 249 383 293 383 347 C383 401 342 445 291 445 L291 445 Z M326 197 L255 197 L255 125 C232 130 218 132 198 132 C99 132 26 54 26 -52 C26 -175 115 -257 246 -257 C349 -257 430 -204 430 -137 C430 -109 403 -84 372 -84 C343 -84 322 -106 314 -147 C307 -180 294 -193 269 -193 C226 -193 203 -140 203 -39 C203 25 218 56 249 56 C259 56 267 52 273 44 L326 44 L326 197 Z " />
<glyph glyph-name="Agrave" unicode="&#xc0;" horiz-adv-x="620" d="M633 0 L633 63 L628 63 C586 67 568 87 535 167 L340 679 L276 679 L91 182 C66 110 29 66 -8 63 L-13 63 L-13 0 L201 0 L201 63 L195 63 C156 63 136 75 136 98 C136 107 140 123 146 141 L154 164 L338 164 L349 134 C360 102 361 100 361 91 C361 72 344 63 307 63 L302 63 L302 0 L633 0 Z M314 229 L177 229 L243 407 L314 229 Z M404 734 L306 903 L91 903 L91 889 L360 734 L404 734 Z " />
<glyph glyph-name="Aacute" unicode="&#xc1;" horiz-adv-x="620" d="M633 0 L633 63 L628 63 C586 67 568 87 535 167 L340 679 L276 679 L91 182 C66 110 29 66 -8 63 L-13 63 L-13 0 L201 0 L201 63 L195 63 C156 63 136 75 136 98 C136 107 140 123 146 141 L154 164 L338 164 L349 134 C360 102 361 100 361 91 C361 72 344 63 307 63 L302 63 L302 0 L633 0 Z M314 229 L177 229 L243 407 L314 229 Z M256 734 L300 734 L569 889 L569 903 L354 903 L256 734 Z " />
<glyph glyph-name="Acircumflex" unicode="&#xc2;" horiz-adv-x="620" d="M633 0 L633 63 L628 63 C586 67 568 87 535 167 L340 679 L276 679 L91 182 C66 110 29 66 -8 63 L-13 63 L-13 0 L201 0 L201 63 L195 63 C156 63 136 75 136 98 C136 107 140 123 146 141 L154 164 L338 164 L349 134 C360 102 361 100 361 91 C361 72 344 63 307 63 L302 63 L302 0 L633 0 Z M314 229 L177 229 L243 407 L314 229 Z M195 898 L100 732 L144 732 L306 828 L470 732 L512 732 L414 898 L195 898 Z " />
<glyph glyph-name="Atilde" unicode="&#xc3;" horiz-adv-x="620" d="M633 0 L633 63 L628 63 C586 67 568 87 535 167 L340 679 L276 679 L91 182 C66 110 29 66 -8 63 L-13 63 L-13 0 L201 0 L201 63 L195 63 C156 63 136 75 136 98 C136 107 140 123 146 141 L154 164 L338 164 L349 134 C360 102 361 100 361 91 C361 72 344 63 307 63 L302 63 L302 0 L633 0 Z M314 229 L177 229 L243 407 L314 229 Z M166 727 C167 757 184 776 209 776 C224 776 240 770 279 751 C318 733 351 724 386 724 C459 724 503 773 503 855 C503 860 503 870 502 879 L456 879 C448 843 436 827 416 827 C398 827 365 838 325 858 C294 873 265 880 235 880 C159 880 117 835 117 753 C117 746 117 740 118 727 L166 727 Z " />
<glyph glyph-name="Adieresis" unicode="&#xc4;" horiz-adv-x="620" d="M633 0 L633 63 L628 63 C586 67 568 87 535 167 L340 679 L276 679 L91 182 C66 110 29 66 -8 63 L-13 63 L-13 0 L201 0 L201 63 L195 63 C156 63 136 75 136 98 C136 107 140 123 146 141 L154 164 L338 164 L349 134 C360 102 361 100 361 91 C361 72 344 63 307 63 L302 63 L302 0 L633 0 Z M314 229 L177 229 L243 407 L314 229 Z M177 897 C131 897 93 859 93 814 C93 767 130 729 177 729 C223 729 261 767 261 813 C261 860 224 897 177 897 L177 897 Z M435 897 C389 897 351 859 351 814 C351 767 388 729 435 729 C481 729 519 767 519 813 C519 860 482 897 435 897 L435 897 Z " />
<glyph glyph-name="Aring" unicode="&#xc5;" horiz-adv-x="620" d="M91 182 C66 110 29 66 -8 63 L-13 63 L-13 0 L201 0 L201 63 L195 63 C156 63 136 75 136 98 C136 107 140 123 146 141 L154 164 L338 164 L349 134 C360 102 361 100 361 91 C361 72 344 63 307 63 L302 63 L302 0 L633 0 L633 63 L628 63 C586 67 568 87 535 167 L342 672 C395 689 429 733 429 787 C429 853 376 906 310 906 C243 906 190 853 190 787 C190 734 222 690 273 673 L91 182 Z M314 229 L177 229 L243 407 L314 229 Z M311 848 C343 848 370 820 370 788 C370 754 342 726 309 726 C276 726 249 753 249 787 C249 821 276 848 311 848 L311 848 Z " />
<glyph glyph-name="AE" unicode="&#xc6;" horiz-adv-x="926" d="M388 316 L388 126 C388 79 374 66 318 62 L307 62 L307 0 L896 0 L900 223 L840 223 C813 115 765 65 687 68 L682 68 C593 72 583 80 582 148 L582 316 L644 316 C680 315 690 305 696 263 L697 253 C698 249 698 245 698 244 L698 238 L757 238 L757 461 L698 461 L698 455 C690 394 681 385 633 384 L582 384 L582 599 L707 599 C758 603 781 579 812 491 L872 491 L863 667 L212 667 L212 606 L239 606 L243 606 C282 604 290 599 290 580 C290 566 285 550 271 523 L96 182 C48 93 19 65 -25 62 L-25 0 L182 0 L182 62 L176 62 C153 62 134 76 134 92 C134 101 140 118 149 136 L152 141 L237 316 L388 316 Z M388 384 L274 384 L388 619 L388 384 Z " />
<glyph glyph-name="Ccedilla" unicode="&#xc7;" horiz-adv-x="708" d="M658 3 L658 258 L598 258 C592 232 576 188 563 161 C536 103 470 60 408 60 C358 60 308 87 286 127 C264 165 255 227 255 332 C255 436 265 496 289 539 C314 582 354 605 405 605 C464 605 511 576 545 519 C565 484 580 447 588 410 L647 410 L641 655 L582 655 L581 653 L580 649 C574 633 571 623 570 620 C568 614 567 612 563 602 C505 657 449 679 372 679 C285 679 209 650 151 596 C80 529 38 430 38 329 C38 147 160 4 331 -12 C324 -68 318 -96 311 -116 C336 -118 353 -133 353 -153 C353 -172 342 -180 316 -180 C291 -180 273 -177 244 -170 C241 -198 241 -202 236 -228 C258 -236 283 -240 312 -240 C414 -240 474 -202 474 -136 C474 -84 441 -50 385 -45 C388 -28 389 -23 390 -13 C455 -11 530 21 572 66 C583 51 591 31 598 3 L658 3 Z " />
<glyph glyph-name="Egrave" unicode="&#xc8;" horiz-adv-x="648" d="M563 222 C533 105 494 67 404 68 L396 68 C312 72 300 82 303 147 L303 314 L360 314 C404 314 423 292 422 242 L422 235 L481 235 L481 460 L422 460 L422 454 C416 396 405 384 358 382 L303 382 L303 599 L425 599 C463 598 477 594 488 581 C507 558 522 530 534 492 L594 492 L586 667 L25 667 L25 605 L37 605 C92 602 109 587 109 539 L109 127 C110 81 94 66 39 63 L28 63 L28 0 L621 0 L623 222 L563 222 Z M458 734 L360 903 L145 903 L145 889 L414 734 L458 734 Z " />
<glyph glyph-name="Eacute" unicode="&#xc9;" horiz-adv-x="648" d="M563 222 C533 105 494 67 404 68 L396 68 C312 72 300 82 303 147 L303 314 L360 314 C404 314 423 292 422 242 L422 235 L481 235 L481 460 L422 460 L422 454 C416 396 405 384 358 382 L303 382 L303 599 L425 599 C463 598 477 594 488 581 C507 558 522 530 534 492 L594 492 L586 667 L25 667 L25 605 L37 605 C92 602 109 587 109 539 L109 127 C110 81 94 66 39 63 L28 63 L28 0 L621 0 L623 222 L563 222 Z M261 734 L306 734 L575 889 L575 903 L360 903 L261 734 Z " />
<glyph glyph-name="Ecircumflex" unicode="&#xca;" horiz-adv-x="648" d="M563 222 C533 105 494 67 404 68 L396 68 C312 72 300 82 303 147 L303 314 L360 314 C404 314 423 292 422 242 L422 235 L481 235 L481 460 L422 460 L422 454 C416 396 405 384 358 382 L303 382 L303 599 L425 599 C463 598 477 594 488 581 C507 558 522 530 534 492 L594 492 L586 667 L25 667 L25 605 L37 605 C92 602 109 587 109 539 L109 127 C110 81 94 66 39 63 L28 63 L28 0 L621 0 L623 222 L563 222 Z M213 898 L119 732 L162 732 L324 828 L488 732 L531 732 L432 898 L213 898 Z " />
<glyph glyph-name="Edieresis" unicode="&#xcb;" horiz-adv-x="648" d="M563 222 C533 105 494 67 404 68 L396 68 C312 72 300 82 303 147 L303 314 L360 314 C404 314 423 292 422 242 L422 235 L481 235 L481 460 L422 460 L422 454 C416 396 405 384 358 382 L303 382 L303 599 L425 599 C463 598 477 594 488 581 C507 558 522 530 534 492 L594 492 L586 667 L25 667 L25 605 L37 605 C92 602 109 587 109 539 L109 127 C110 81 94 66 39 63 L28 63 L28 0 L621 0 L623 222 L563 222 Z M191 897 C145 897 107 859 107 814 C107 767 144 729 191 729 C237 729 275 767 275 813 C275 860 238 897 191 897 L191 897 Z M449 897 C403 897 365 859 365 814 C365 767 402 729 449 729 C495 729 533 767 533 813 C533 860 496 897 449 897 L449 897 Z " />
<glyph glyph-name="Igrave" unicode="&#xcc;" horiz-adv-x="397" d="M26 604 L32 604 C84 602 101 586 101 539 L101 127 C101 79 87 66 31 63 L26 63 L26 0 L372 0 L372 63 L365 63 C309 66 295 79 295 127 L295 539 C295 586 311 601 364 604 L372 604 L372 667 L26 667 L26 604 Z M322 734 L224 903 L9 903 L9 889 L278 734 L322 734 Z " />
<glyph glyph-name="Iacute" unicode="&#xcd;" horiz-adv-x="397" d="M25 604 L31 604 C83 602 100 586 100 539 L100 127 C100 79 86 66 30 63 L25 63 L25 0 L371 0 L371 63 L364 63 C308 66 294 79 294 127 L294 539 C294 586 310 601 363 604 L371 604 L371 667 L25 667 L25 604 Z M142 734 L186 734 L455 889 L455 903 L240 903 L142 734 Z " />
<glyph glyph-name="Icircumflex" unicode="&#xce;" horiz-adv-x="397" d="M25 604 L31 604 C83 602 100 586 100 539 L100 127 C100 79 86 66 30 63 L25 63 L25 0 L371 0 L371 63 L364 63 C308 66 294 79 294 127 L294 539 C294 586 310 601 363 604 L371 604 L371 667 L25 667 L25 604 Z M87 898 L-7 732 L36 732 L198 828 L362 732 L405 732 L307 898 L87 898 Z " />
<glyph glyph-name="Idieresis" unicode="&#xcf;" horiz-adv-x="397" d="M25 604 L31 604 C83 602 100 586 100 539 L100 127 C100 79 86 66 30 63 L25 63 L25 0 L372 0 L372 63 L365 63 C308 66 294 79 294 127 L294 539 C294 586 310 601 364 604 L372 604 L372 667 L25 667 L25 604 Z M84 897 C38 897 0 859 0 814 C0 767 37 729 84 729 C130 729 168 767 168 813 C168 860 131 897 84 897 L84 897 Z M310 897 C264 897 226 859 226 814 C226 767 263 729 310 729 C356 729 394 767 394 813 C394 860 357 897 310 897 L310 897 Z " />
<glyph glyph-name="Eth" unicode="&#xd0;" horiz-adv-x="766" d="M101 370 L21 370 L21 297 L101 297 L101 127 C101 80 87 66 32 63 L30 63 L30 0 L246 0 C430 1 465 4 513 19 C647 63 729 181 729 332 C729 472 657 587 537 640 C479 666 415 675 281 675 L260 675 C221 675 148 673 29 669 L29 606 L33 606 C84 603 101 586 101 540 L101 370 Z M295 370 L295 607 C350 606 374 601 404 584 C476 541 507 466 507 332 C507 158 458 68 363 68 C333 68 312 77 303 94 C296 107 295 111 295 144 L295 297 L408 297 L408 370 L295 370 Z " />
<glyph glyph-name="Ntilde" unicode="&#xd1;" horiz-adv-x="750" d="M650 -9 L650 492 C648 563 667 592 724 604 L731 604 L731 667 L491 667 L491 604 L495 604 C549 603 579 561 577 493 L577 287 L244 667 L25 667 L25 604 L29 604 C78 602 113 564 112 513 L112 176 C112 129 110 118 101 102 C88 79 61 62 38 62 L35 62 L31 62 L31 0 L267 0 L267 62 L261 62 L253 62 C234 61 210 77 198 99 C187 118 185 130 185 176 L185 444 L576 -9 L650 -9 Z M246 727 L246 732 C246 756 265 776 289 776 C304 776 320 770 359 751 C398 733 432 724 467 724 C541 724 584 773 584 855 L583 879 L536 879 C529 843 516 827 496 827 C478 827 445 838 405 858 C374 873 345 880 315 880 C239 880 197 835 197 753 C197 746 197 740 198 727 L246 727 Z " />
<glyph glyph-name="Ograve" unicode="&#xd2;" horiz-adv-x="790" d="M396 679 C295 679 208 647 148 589 C78 520 38 427 38 334 C38 227 83 125 157 64 C217 13 301 -14 396 -14 C505 -14 590 19 654 85 C718 151 752 237 752 330 C752 418 720 502 663 568 C596 644 511 679 396 679 L396 679 Z M394 605 C490 605 525 527 525 316 C525 214 516 158 492 115 C474 81 437 60 397 60 C351 60 317 84 294 134 C274 177 267 233 267 343 C267 530 304 605 394 605 L394 605 Z M525 734 L426 903 L211 903 L211 889 L480 734 L525 734 Z " />
<glyph glyph-name="Oacute" unicode="&#xd3;" horiz-adv-x="790" d="M396 679 C295 679 208 647 148 589 C78 520 38 427 38 334 C38 227 83 125 157 64 C217 13 301 -14 396 -14 C505 -14 590 19 654 85 C718 151 752 237 752 330 C752 418 720 502 663 568 C596 644 511 679 396 679 L396 679 Z M394 605 C490 605 525 527 525 316 C525 214 516 158 492 115 C474 81 437 60 397 60 C351 60 317 84 294 134 C274 177 267 233 267 343 C267 530 304 605 394 605 L394 605 Z M330 734 L375 734 L643 889 L643 903 L429 903 L330 734 Z " />
<glyph glyph-name="Ocircumflex" unicode="&#xd4;" horiz-adv-x="790" d="M396 679 C295 679 208 647 148 589 C78 520 38 427 38 334 C38 227 83 125 157 64 C217 13 301 -14 396 -14 C505 -14 590 19 654 85 C718 151 752 237 752 330 C752 418 720 502 663 568 C596 644 511 679 396 679 L396 679 Z M394 605 C490 605 525 527 525 316 C525 214 516 158 492 115 C474 81 437 60 397 60 C351 60 317 84 294 134 C274 177 267 233 267 343 C267 530 304 605 394 605 L394 605 Z M288 898 L194 732 L237 732 L399 828 L563 732 L606 732 L507 898 L288 898 Z " />
<glyph glyph-name="Otilde" unicode="&#xd5;" horiz-adv-x="790" d="M396 679 C295 679 208 647 148 589 C78 520 38 427 38 334 C38 227 83 125 157 64 C217 13 301 -14 396 -14 C505 -14 590 19 654 85 C718 151 752 237 752 330 C752 418 720 502 663 568 C596 644 511 679 396 679 L396 679 Z M394 605 C490 605 525 527 525 316 C525 214 516 158 492 115 C474 81 437 60 397 60 C351 60 317 84 294 134 C274 177 267 233 267 343 C267 530 304 605 394 605 L394 605 Z M259 727 L259 732 C259 756 278 776 302 776 C317 776 333 770 372 751 C411 733 445 724 480 724 C554 724 597 773 597 855 L596 879 L549 879 C542 843 529 827 509 827 C491 827 458 838 418 858 C387 873 358 880 328 880 C252 880 210 835 210 753 C210 745 210 740 211 727 L259 727 Z " />
<glyph glyph-name="Odieresis" unicode="&#xd6;" horiz-adv-x="790" d="M396 679 C295 679 208 647 148 589 C78 520 38 427 38 334 C38 227 83 125 157 64 C217 13 301 -14 396 -14 C505 -14 590 19 654 85 C718 151 752 237 752 330 C752 418 720 502 663 568 C596 644 511 679 396 679 L396 679 Z M394 605 C490 605 525 527 525 316 C525 214 516 158 492 115 C474 81 437 60 397 60 C351 60 317 84 294 134 C274 177 267 233 267 343 C267 530 304 605 394 605 L394 605 Z M262 897 C216 897 178 859 178 814 C178 767 215 729 262 729 C308 729 346 767 346 813 C346 860 309 897 262 897 L262 897 Z M520 897 C474 897 436 859 436 814 C436 767 473 729 520 729 C566 729 604 767 604 813 C604 860 567 897 520 897 L520 897 Z " />
<glyph glyph-name="multiply" unicode="&#xd7;" horiz-adv-x="475" d="M105 588 L37 517 L170 378 L34 236 L105 162 L239 305 L372 164 L440 236 L306 375 L442 517 L371 591 L237 448 L105 588 Z " />
<glyph glyph-name="Oslash" unicode="&#xd8;" horiz-adv-x="796" d="M693 639 L650 680 L603 624 C546 660 476 679 400 679 C296 679 212 648 148 586 C79 519 41 427 41 328 C41 233 78 142 142 78 L100 28 L146 -13 L191 41 C263 2 323 -14 402 -14 C499 -14 586 17 646 73 C715 138 755 232 755 330 C755 426 718 515 649 586 L693 639 Z M271 229 L271 233 L271 242 L268 355 C268 518 314 605 400 605 C451 605 500 564 504 519 L271 229 Z M524 439 C526 406 527 359 527 317 C527 217 517 161 494 118 C473 81 439 60 398 60 C348 60 307 94 291 148 L524 439 Z " />
<glyph glyph-name="Ugrave" unicode="&#xd9;" horiz-adv-x="737" d="M468 667 L468 604 L474 605 C529 606 567 566 565 509 L565 286 C565 215 561 183 550 155 C528 99 477 64 417 64 C367 64 325 88 301 131 C282 164 276 195 276 262 L276 539 C276 586 293 601 348 604 L358 604 L358 667 L16 667 L16 604 L21 604 C76 602 94 586 94 539 L94 278 C94 189 100 161 129 110 C173 31 260 -14 368 -14 C472 -14 561 29 600 99 C630 152 638 193 638 285 L638 498 C637 569 651 588 717 605 L721 604 L721 667 L468 667 Z M505 734 L406 903 L191 903 L191 889 L460 734 L505 734 Z " />
<glyph glyph-name="Uacute" unicode="&#xda;" horiz-adv-x="737" d="M468 667 L468 604 L474 605 C529 606 567 566 565 509 L565 286 C565 215 561 183 550 155 C528 99 477 64 417 64 C367 64 325 88 301 131 C282 164 276 195 276 262 L276 539 C276 586 293 601 348 604 L358 604 L358 667 L16 667 L16 604 L21 604 C76 602 94 586 94 539 L94 278 C94 189 100 161 129 110 C173 31 260 -14 368 -14 C472 -14 561 29 600 99 C630 152 638 193 638 285 L638 498 C637 569 651 588 717 605 L721 604 L721 667 L468 667 Z M329 734 L374 734 L642 889 L642 903 L428 903 L329 734 Z " />
<glyph glyph-name="Ucircumflex" unicode="&#xdb;" horiz-adv-x="737" d="M468 667 L468 604 L474 605 C529 606 567 566 565 509 L565 286 C565 215 561 183 550 155 C528 99 477 64 417 64 C367 64 325 88 301 131 C282 164 276 195 276 262 L276 539 C276 586 293 601 348 604 L358 604 L358 667 L16 667 L16 604 L21 604 C76 602 94 586 94 539 L94 278 C94 189 100 161 129 110 C173 31 260 -14 368 -14 C472 -14 561 29 600 99 C630 152 638 193 638 285 L638 498 C637 569 651 588 717 605 L721 604 L721 667 L468 667 Z M278 898 L184 732 L228 732 L390 828 L554 732 L596 732 L498 898 L278 898 Z " />
<glyph glyph-name="Udieresis" unicode="&#xdc;" horiz-adv-x="737" d="M468 667 L468 604 L474 605 C529 606 567 566 565 509 L565 286 C565 215 561 183 550 155 C528 99 477 64 417 64 C367 64 325 88 301 131 C282 164 276 195 276 262 L276 539 C276 586 293 601 348 604 L358 604 L358 667 L16 667 L16 604 L21 604 C76 602 94 586 94 539 L94 278 C94 189 100 161 129 110 C173 31 260 -14 368 -14 C472 -14 561 29 600 99 C630 152 638 193 638 285 L638 498 C637 569 651 588 717 605 L721 604 L721 667 L468 667 Z M263 897 C217 897 179 859 179 814 C179 767 216 729 263 729 C309 729 347 767 347 813 C347 860 310 897 263 897 L263 897 Z M521 897 C475 897 437 859 437 814 C437 767 474 729 521 729 C567 729 605 767 605 813 C605 860 568 897 521 897 L521 897 Z " />
<glyph glyph-name="Yacute" unicode="&#xdd;" horiz-adv-x="635" d="M426 605 L431 605 C466 605 484 591 484 566 C484 552 479 534 471 518 C471 518 444 468 389 368 L292 529 C279 551 273 565 273 576 C273 595 287 605 317 605 L322 605 L322 667 L-11 667 L-11 605 L-6 605 C34 602 54 584 86 524 L220 278 L220 127 C220 79 206 66 149 63 L139 63 L139 0 L496 0 L496 63 L486 63 C430 66 417 78 417 127 L417 290 L526 484 L535 498 C537 502 543 511 550 524 C566 551 582 572 598 587 C609 597 627 605 640 605 L643 605 L646 605 L646 667 L426 667 L426 605 Z M282 734 L327 734 L596 889 L596 903 L381 903 L282 734 Z " />
<glyph glyph-name="Thorn" unicode="&#xde;" horiz-adv-x="664" d="M387 667 L25 667 L25 604 L41 604 C94 601 110 586 110 539 L110 126 C110 79 96 66 39 63 L30 63 L30 0 L387 0 L387 63 L375 63 C315 67 304 78 304 135 L304 142 L342 142 C433 142 452 144 489 153 C585 179 638 243 638 332 C638 417 591 480 506 507 C461 522 439 524 304 525 C303 589 313 600 375 604 L387 604 L387 667 Z M304 210 L304 456 C349 455 363 452 379 442 C412 422 428 384 428 327 C428 245 399 210 329 210 L304 210 Z " />
<glyph glyph-name="germandbls" unicode="&#xdf;" horiz-adv-x="613" d="M70 112 C69 68 64 64 17 60 L16 60 L16 0 L283 0 L283 60 L279 60 C259 63 251 74 251 99 L251 533 L251 520 C252 572 253 579 262 596 C270 609 288 618 309 618 C355 618 376 584 376 512 C376 464 365 427 348 414 C338 407 327 403 307 398 L307 339 L311 339 C333 339 356 324 367 302 C386 268 391 231 392 129 L392 103 C392 65 383 44 367 44 C354 44 343 58 343 74 L343 84 C343 95 338 101 331 101 C319 101 310 88 310 72 C310 25 353 -10 412 -10 C510 -10 578 64 578 171 C578 270 522 338 414 371 C497 391 547 445 547 516 C547 619 459 680 311 680 C226 680 168 663 126 626 C84 588 70 541 70 436 L70 112 Z " />
<glyph glyph-name="agrave" unicode="&#xe0;" horiz-adv-x="559" d="M515 94 C512 79 504 71 493 71 C477 71 470 81 470 102 L470 295 C470 339 466 354 446 376 C419 407 374 419 289 419 C212 419 164 412 122 393 C73 372 47 341 47 307 C47 273 73 249 110 249 C127 249 143 254 157 263 C168 272 174 283 176 305 C178 323 183 336 189 341 C198 349 219 355 237 355 C275 355 289 341 289 306 L289 266 L282 264 C180 235 127 209 72 162 C49 142 35 113 35 84 C35 25 79 -9 153 -9 C211 -9 259 7 300 39 C322 7 363 -9 422 -9 C508 -9 555 27 558 94 L515 94 Z M289 203 L289 99 C277 82 262 73 246 73 C222 73 203 93 203 118 C203 145 234 180 270 194 L283 199 L289 203 Z M377 484 L322 639 L124 639 L124 626 L327 484 L377 484 Z " />
<glyph glyph-name="aacute" unicode="&#xe1;" horiz-adv-x="559" d="M515 94 C512 79 504 71 493 71 C477 71 470 81 470 102 L470 295 C470 339 466 354 446 376 C419 407 374 419 289 419 C212 419 164 412 122 393 C73 372 47 341 47 307 C47 273 73 249 110 249 C127 249 143 254 157 263 C168 272 174 283 176 305 C178 323 183 336 189 341 C198 349 219 355 237 355 C275 355 289 341 289 306 L289 266 L282 264 C180 235 127 209 72 162 C49 142 35 113 35 84 C35 25 79 -9 153 -9 C211 -9 259 7 300 39 C322 7 363 -9 422 -9 C508 -9 555 27 558 94 L515 94 Z M289 203 L289 99 C277 82 262 73 246 73 C222 73 203 93 203 118 C203 145 234 180 270 194 L283 199 L289 203 Z M240 484 L289 484 L492 626 L492 639 L294 639 L240 484 Z " />
<glyph glyph-name="acircumflex" unicode="&#xe2;" horiz-adv-x="559" d="M515 94 C512 79 504 71 493 71 C477 71 470 81 470 102 L470 295 C470 339 466 354 446 376 C419 407 374 419 289 419 C212 419 164 412 122 393 C73 372 47 341 47 307 C47 273 73 249 110 249 C127 249 143 254 157 263 C168 272 174 283 176 305 C178 323 183 336 189 341 C198 349 219 355 237 355 C275 355 289 341 289 306 L289 266 L282 264 C180 235 127 209 72 162 C49 142 35 113 35 84 C35 25 79 -9 153 -9 C211 -9 259 7 300 39 C322 7 363 -9 422 -9 C508 -9 555 27 558 94 L515 94 Z M289 203 L289 99 C277 82 262 73 246 73 C222 73 203 93 203 118 C203 145 234 180 270 194 L283 199 L289 203 Z M397 481 L446 481 L365 644 L212 644 L122 481 L167 481 L289 561 L397 481 Z " />
<glyph glyph-name="atilde" unicode="&#xe3;" horiz-adv-x="559" d="M515 94 C512 79 504 71 493 71 C477 71 470 81 470 102 L470 295 C470 339 466 354 446 376 C419 407 374 419 289 419 C212 419 164 412 122 393 C73 372 47 341 47 307 C47 273 73 249 110 249 C127 249 143 254 157 263 C168 272 174 283 176 305 C178 323 183 336 189 341 C198 349 219 355 237 355 C275 355 289 341 289 306 L289 266 L282 264 C180 235 127 209 72 162 C49 142 35 113 35 84 C35 25 79 -9 153 -9 C211 -9 259 7 300 39 C322 7 363 -9 422 -9 C508 -9 555 27 558 94 L515 94 Z M289 203 L289 99 C277 82 262 73 246 73 C222 73 203 93 203 118 C203 145 234 180 270 194 L283 199 L289 203 Z M172 485 C180 506 188 512 208 512 C222 512 245 508 267 502 C314 489 331 486 351 486 C409 486 444 540 444 632 L400 632 C397 606 383 594 358 594 C343 594 329 596 317 599 C246 619 246 619 225 619 C195 619 159 600 146 576 C134 555 130 534 129 485 L172 485 Z " />
<glyph glyph-name="adieresis" unicode="&#xe4;" horiz-adv-x="559" d="M515 94 C512 79 504 71 493 71 C477 71 470 81 470 102 L470 295 C470 339 466 354 446 376 C419 407 374 419 289 419 C212 419 164 412 122 393 C73 372 47 341 47 307 C47 273 73 249 110 249 C127 249 143 254 157 263 C168 272 174 283 176 305 C178 323 183 336 189 341 C198 349 219 355 237 355 C275 355 289 341 289 306 L289 266 L282 264 C180 235 127 209 72 162 C49 142 35 113 35 84 C35 25 79 -9 153 -9 C211 -9 259 7 300 39 C322 7 363 -9 422 -9 C508 -9 555 27 558 94 L515 94 Z M289 203 L289 99 C277 82 262 73 246 73 C222 73 203 93 203 118 C203 145 234 180 270 194 L283 199 L289 203 Z M172 642 C130 642 95 607 95 566 C95 523 129 488 172 488 C215 488 249 523 249 565 C249 608 215 642 172 642 L172 642 Z M397 642 C355 642 320 607 320 566 C320 523 354 488 396 488 C439 488 474 522 474 565 C474 607 439 642 397 642 L397 642 Z " />
<glyph glyph-name="aring" unicode="&#xe5;" horiz-adv-x="559" d="M515 94 C512 79 504 71 493 71 C477 71 470 81 470 102 L470 295 C470 339 466 354 446 376 C419 407 374 419 289 419 C212 419 164 412 122 393 C73 372 47 341 47 307 C47 273 73 249 110 249 C127 249 143 254 157 263 C168 272 174 283 176 305 C178 323 183 336 189 341 C198 349 219 355 237 355 C275 355 289 341 289 306 L289 266 L282 264 C180 235 127 209 72 162 C49 142 35 113 35 84 C35 25 79 -9 153 -9 C211 -9 259 7 300 39 C322 7 363 -9 422 -9 C508 -9 555 27 558 94 L515 94 Z M289 203 L289 99 C277 82 262 73 246 73 C222 73 203 93 203 118 C203 145 234 180 270 194 L283 199 L289 203 Z M290 671 C232 671 184 623 184 567 C184 506 231 459 290 459 C348 459 396 507 396 565 C396 624 349 671 290 671 L290 671 Z M291 619 C320 619 344 594 344 565 C344 536 319 511 289 511 C260 511 236 535 236 565 C236 595 260 619 291 619 L291 619 Z " />
<glyph glyph-name="ae" unicode="&#xe6;" horiz-adv-x="744" d="M646 108 C618 78 585 62 551 62 C523 62 495 79 482 103 C471 124 462 160 462 185 L462 191 L712 191 C710 239 707 265 698 289 C671 366 594 419 509 419 C475 419 436 412 411 401 C369 413 326 419 271 419 C133 419 44 375 44 306 C44 274 72 251 112 251 C147 251 172 270 175 301 C177 329 177 329 182 337 C190 348 208 356 229 356 C253 356 272 347 281 332 C287 322 288 319 288 295 L288 266 L274 261 C95 194 35 149 35 82 C35 31 83 -7 147 -7 C205 -7 268 15 330 58 C377 15 438 -7 509 -7 C590 -7 658 23 696 75 L646 108 Z M557 248 L462 248 C463 316 464 319 474 339 C479 349 495 358 507 358 C521 358 536 349 543 336 C553 319 555 310 557 260 L557 248 Z M288 94 C276 82 257 74 240 74 C220 74 204 93 204 115 C204 147 229 172 288 203 L288 94 Z " />
<glyph glyph-name="ccedilla" unicode="&#xe7;" horiz-adv-x="486" d="M409 131 C389 83 356 59 310 59 C248 59 221 104 221 207 C221 260 222 277 226 293 C235 334 260 358 291 358 C310 358 320 349 324 329 C337 269 357 245 394 245 C429 245 457 276 457 316 C457 380 397 419 300 419 C139 419 32 328 32 193 C32 75 117 -8 246 -16 C242 -59 237 -85 232 -105 C251 -106 263 -119 263 -138 C263 -155 255 -162 235 -162 C217 -162 204 -160 181 -153 C179 -178 179 -182 176 -205 C191 -212 209 -216 233 -216 C309 -216 354 -181 354 -123 C354 -76 329 -45 287 -40 C289 -27 290 -22 291 -15 C375 -8 442 37 464 102 L409 131 Z " />
<glyph glyph-name="egrave" unicode="&#xe8;" horiz-adv-x="509" d="M413 107 C382 72 349 54 315 54 C283 54 251 71 236 97 C222 121 217 143 216 191 L477 191 L477 206 C477 336 394 419 261 419 C128 419 35 331 35 205 C35 76 132 -16 267 -16 C343 -16 421 20 462 73 L413 107 Z M216 248 C217 311 218 317 228 337 C234 348 249 356 263 356 C297 356 314 328 317 266 C317 263 317 256 318 248 L216 248 Z M363 484 L308 639 L111 639 L111 626 L314 484 L363 484 Z " />
<glyph glyph-name="eacute" unicode="&#xe9;" horiz-adv-x="509" d="M413 107 C382 72 349 54 315 54 C283 54 251 71 236 97 C222 121 217 143 216 191 L477 191 L477 206 C477 336 394 419 261 419 C128 419 35 331 35 205 C35 76 132 -16 267 -16 C343 -16 421 20 462 73 L413 107 Z M216 248 C217 311 218 317 228 337 C234 348 249 356 263 356 C297 356 314 328 317 266 C317 263 317 256 318 248 L216 248 Z M224 484 L274 484 L477 626 L477 639 L279 639 L224 484 Z " />
<glyph glyph-name="ecircumflex" unicode="&#xea;" horiz-adv-x="509" d="M413 107 C382 72 349 54 315 54 C283 54 251 71 236 97 C222 121 217 143 216 191 L477 191 L477 206 C477 336 394 419 261 419 C128 419 35 331 35 205 C35 76 132 -16 267 -16 C343 -16 421 20 462 73 L413 107 Z M216 248 C217 311 218 317 228 337 C234 348 249 356 263 356 C297 356 314 328 317 266 C317 263 317 256 318 248 L216 248 Z M381 481 L430 481 L350 644 L196 644 L107 481 L152 481 L274 561 L381 481 Z " />
<glyph glyph-name="edieresis" unicode="&#xeb;" horiz-adv-x="509" d="M413 107 C382 72 349 54 315 54 C283 54 251 71 236 97 C222 121 217 143 216 191 L477 191 L477 206 C477 336 394 419 261 419 C128 419 35 331 35 205 C35 76 132 -16 267 -16 C343 -16 421 20 462 73 L413 107 Z M216 248 C217 311 218 317 228 337 C234 348 249 356 263 356 C297 356 314 328 317 266 C317 263 317 256 318 248 L216 248 Z M161 642 C119 642 84 607 84 566 C84 523 118 488 161 488 C204 488 238 523 238 565 C238 608 204 642 161 642 L161 642 Z M386 642 C344 642 309 607 309 566 C309 523 343 488 385 488 C428 488 463 522 463 565 C463 607 428 642 386 642 L386 642 Z " />
<glyph glyph-name="igrave" unicode="&#xec;" horiz-adv-x="328" d="M16 319 L27 319 C77 316 87 307 87 265 L87 112 C86 70 75 61 26 60 L16 60 L16 0 L322 0 L322 60 L320 60 C277 61 265 73 264 112 L264 419 L260 419 C249 417 238 415 235 414 L168 403 C100 391 61 385 52 384 C35 381 28 380 16 379 L16 319 Z M266 484 L211 639 L13 639 L13 626 L216 484 L266 484 Z " />
<glyph glyph-name="iacute" unicode="&#xed;" horiz-adv-x="328" d="M16 319 L27 319 C77 316 87 307 87 265 L87 112 C86 70 75 61 26 60 L16 60 L16 0 L322 0 L322 60 L320 60 C277 61 265 73 264 112 L264 419 L260 419 C249 417 238 415 235 414 L168 403 C100 391 61 385 52 384 C35 381 28 380 16 379 L16 319 Z M131 484 L180 484 L384 626 L384 639 L186 639 L131 484 Z " />
<glyph glyph-name="icircumflex" unicode="&#xee;" horiz-adv-x="328" d="M16 319 L27 319 C77 316 87 307 87 265 L87 112 C86 70 75 61 26 60 L16 60 L16 0 L322 0 L322 60 L320 60 C277 61 265 73 264 112 L264 419 L260 419 C249 417 238 415 235 414 L168 403 C100 391 61 385 52 384 C35 381 28 380 16 379 L16 319 Z M281 481 L331 481 L250 644 L97 644 L7 481 L52 481 L174 561 L281 481 Z " />
<glyph glyph-name="idieresis" unicode="&#xef;" horiz-adv-x="328" d="M16 319 L27 319 C77 316 87 307 87 265 L87 112 C86 70 75 61 26 60 L16 60 L16 0 L321 0 L321 60 L319 60 C277 61 265 73 264 112 L264 419 L260 419 C249 417 238 415 235 414 L168 403 C100 391 61 385 52 384 C35 381 28 380 16 379 L16 319 Z M69 642 C27 642 -8 607 -8 566 C-8 523 26 488 69 488 C112 488 146 523 146 565 C146 608 112 642 69 642 L69 642 Z M264 642 C222 642 187 607 187 566 C187 523 221 488 263 488 C306 488 341 522 341 565 C341 607 306 642 264 642 L264 642 Z " />
<glyph glyph-name="eth" unicode="&#xf0;" horiz-adv-x="551" d="M157 594 C187 577 191 574 218 554 L139 512 L164 457 L263 511 C282 490 311 437 316 413 C302 415 296 416 282 416 C214 416 163 403 123 375 C66 334 35 274 35 200 C35 71 130 -15 273 -15 C367 -15 426 11 470 73 C501 116 516 172 516 242 C516 372 474 471 375 572 L434 604 L407 659 L327 614 C289 641 260 657 218 677 L157 594 Z M274 351 C311 351 325 307 325 188 C325 92 310 49 276 49 C238 49 225 93 225 217 C225 310 240 351 274 351 L274 351 Z " />
<glyph glyph-name="ntilde" unicode="&#xf1;" horiz-adv-x="596" d="M16 306 L19 306 C58 305 73 293 74 260 L74 112 C73 71 63 62 20 60 L19 60 L19 0 L295 0 L295 60 L292 60 C267 64 255 81 255 112 L255 265 C277 302 300 322 321 322 C342 322 355 304 355 276 L355 112 C355 82 345 67 320 60 L316 60 L316 0 L593 0 L593 60 L590 60 C552 61 540 74 539 112 L539 256 C539 313 527 355 506 376 C478 403 438 419 397 419 C344 419 295 396 258 354 C256 382 255 392 250 405 L246 405 C225 401 221 400 180 394 C167 392 100 380 16 366 L16 306 Z M186 485 C194 506 202 512 222 512 C236 512 259 508 281 502 C328 489 345 486 365 486 C423 486 457 539 458 632 L414 632 C411 606 397 594 372 594 C357 594 343 596 331 599 C260 619 260 619 239 619 C209 619 173 600 160 576 C148 555 144 534 143 485 L186 485 Z " />
<glyph glyph-name="ograve" unicode="&#xf2;" horiz-adv-x="552" d="M273 419 C131 419 35 330 35 197 C35 139 56 87 93 51 C136 10 206 -16 275 -16 C418 -16 517 75 517 204 C517 261 500 308 467 343 C421 392 351 419 273 419 L273 419 Z M224 216 C225 299 227 309 238 333 C244 346 260 356 276 356 C291 356 306 347 314 333 C325 312 327 291 327 211 C327 142 325 115 320 93 C313 61 299 46 277 46 C243 46 226 81 225 157 L225 204 C224 209 224 214 224 215 L224 216 Z M384 484 L329 639 L131 639 L131 626 L334 484 L384 484 Z " />
<glyph glyph-name="oacute" unicode="&#xf3;" horiz-adv-x="552" d="M273 419 C131 419 35 330 35 197 C35 139 56 87 93 51 C136 10 206 -16 275 -16 C418 -16 517 75 517 204 C517 261 500 308 467 343 C421 392 351 419 273 419 L273 419 Z M224 216 C225 299 227 309 238 333 C244 346 260 356 276 356 C291 356 306 347 314 333 C325 312 327 291 327 211 C327 142 325 115 320 93 C313 61 299 46 277 46 C243 46 226 81 225 157 L225 204 C224 209 224 214 224 215 L224 216 Z M228 484 L277 484 L480 626 L480 639 L283 639 L228 484 Z " />
<glyph glyph-name="ocircumflex" unicode="&#xf4;" horiz-adv-x="552" d="M273 419 C131 419 35 330 35 197 C35 139 56 87 93 51 C136 10 206 -16 275 -16 C418 -16 517 75 517 204 C517 261 500 308 467 343 C421 392 351 419 273 419 L273 419 Z M224 216 C225 299 227 309 238 333 C244 346 260 356 276 356 C291 356 306 347 314 333 C325 312 327 291 327 211 C327 142 325 115 320 93 C313 61 299 46 277 46 C243 46 226 81 225 157 L225 204 C224 209 224 214 224 215 L224 216 Z M389 481 L438 481 L357 644 L204 644 L114 481 L160 481 L282 561 L389 481 Z " />
<glyph glyph-name="otilde" unicode="&#xf5;" horiz-adv-x="552" d="M273 419 C131 419 35 330 35 197 C35 139 56 87 93 51 C136 10 206 -16 275 -16 C418 -16 517 75 517 204 C517 261 500 308 467 343 C421 392 351 419 273 419 L273 419 Z M224 216 C225 299 227 309 238 333 C244 346 260 356 276 356 C291 356 306 347 314 333 C325 312 327 291 327 211 C327 142 325 115 320 93 C313 61 299 46 277 46 C243 46 226 81 225 157 L225 204 C224 209 224 214 224 215 L224 216 Z M166 485 C174 506 182 512 202 512 C216 512 239 508 262 502 C309 489 326 486 346 486 C402 486 443 545 439 623 C439 625 439 628 438 632 L394 632 C391 606 378 594 352 594 C337 594 323 596 311 599 C240 619 240 619 219 619 C189 619 154 600 141 576 C129 555 125 534 124 485 L166 485 Z " />
<glyph glyph-name="odieresis" unicode="&#xf6;" horiz-adv-x="552" d="M273 419 C131 419 35 330 35 197 C35 139 56 87 93 51 C136 10 206 -16 275 -16 C418 -16 517 75 517 204 C517 261 500 308 467 343 C421 392 351 419 273 419 L273 419 Z M224 216 C225 299 227 309 238 333 C244 346 260 356 276 356 C291 356 306 347 314 333 C325 312 327 291 327 211 C327 142 325 115 320 93 C313 61 299 46 277 46 C243 46 226 81 225 157 L225 204 C224 209 224 214 224 215 L224 216 Z M164 642 C122 642 87 607 87 566 C87 523 121 488 164 488 C207 488 241 523 241 565 C241 608 207 642 164 642 L164 642 Z M389 642 C347 642 312 607 312 566 C312 523 346 488 388 488 C431 488 466 522 466 565 C466 607 431 642 389 642 L389 642 Z " />
<glyph glyph-name="divide" unicode="&#xf7;" horiz-adv-x="475" d="M-3 427 L-3 326 L478 326 L478 427 L-3 427 Z M238 266 C193 266 154 226 154 178 C154 128 191 88 239 88 C285 88 323 128 323 177 C323 226 285 266 238 266 L238 266 Z M239 660 C192 660 154 620 154 572 C154 522 191 482 238 482 C285 482 323 522 323 571 C323 620 285 660 239 660 L239 660 Z " />
<glyph glyph-name="oslash" unicode="&#xf8;" horiz-adv-x="552" d="M70 0 L114 -40 L155 9 C189 -8 230 -16 277 -16 C347 -16 409 8 455 52 C497 92 517 141 517 206 C517 272 495 323 448 362 L483 404 L440 445 L397 394 C361 411 323 419 272 419 C209 419 147 397 102 359 C57 321 35 268 35 197 C35 130 57 81 104 41 L70 0 Z M216 175 L216 181 L216 188 L216 210 C216 274 226 325 240 339 C251 350 264 355 278 355 C305 355 325 337 328 311 L216 175 Z M336 230 C337 226 337 222 337 220 L337 215 L337 202 C337 133 326 77 311 62 C300 51 288 46 274 46 C250 46 236 59 225 93 L336 230 Z " />
<glyph glyph-name="ugrave" unicode="&#xf9;" horiz-adv-x="583" d="M518 403 L288 403 L288 343 L290 343 C326 342 336 330 337 291 L337 120 C333 116 333 116 316 101 C304 89 288 81 278 81 C257 81 247 102 247 144 L247 403 L6 403 L6 343 L8 343 C51 341 66 328 66 291 L66 132 C66 87 70 69 83 45 C105 7 150 -16 201 -16 C253 -16 297 5 337 49 L336 4 L334 -8 C334 -8 333 -12 333 -16 L338 -16 C381 -8 490 1 550 1 C554 1 563 1 576 0 L576 60 L573 60 C531 61 519 72 518 112 L518 403 Z M390 484 L335 639 L137 639 L137 626 L341 484 L390 484 Z " />
<glyph glyph-name="uacute" unicode="&#xfa;" horiz-adv-x="583" d="M518 403 L288 403 L288 343 L290 343 C326 342 336 330 337 291 L337 120 C333 116 333 116 316 101 C304 89 288 81 278 81 C257 81 247 102 247 144 L247 403 L6 403 L6 343 L8 343 C51 341 66 328 66 291 L66 132 C66 87 70 69 83 45 C105 7 150 -16 201 -16 C253 -16 297 5 337 49 L336 4 L334 -8 C334 -8 333 -12 333 -16 L338 -16 C381 -8 490 1 550 1 C554 1 563 1 576 0 L576 60 L573 60 C531 61 519 72 518 112 L518 403 Z M243 484 L292 484 L495 626 L495 639 L297 639 L243 484 Z " />
<glyph glyph-name="ucircumflex" unicode="&#xfb;" horiz-adv-x="583" d="M518 403 L288 403 L288 343 L290 343 C326 342 336 330 337 291 L337 120 C333 116 333 116 316 101 C304 89 288 81 278 81 C257 81 247 102 247 144 L247 403 L6 403 L6 343 L8 343 C51 341 66 328 66 291 L66 132 C66 87 70 69 83 45 C105 7 150 -16 201 -16 C253 -16 297 5 337 49 L336 4 L334 -8 C334 -8 333 -12 333 -16 L338 -16 C381 -8 490 1 550 1 C554 1 563 1 576 0 L576 60 L573 60 C531 61 519 72 518 112 L518 403 Z M408 481 L457 481 L376 644 L223 644 L133 481 L179 481 L301 561 L408 481 Z " />
<glyph glyph-name="udieresis" unicode="&#xfc;" horiz-adv-x="583" d="M518 403 L288 403 L288 343 L290 343 C326 342 336 330 337 291 L337 120 C333 116 333 116 316 101 C304 89 288 81 278 81 C257 81 247 102 247 144 L247 403 L6 403 L6 343 L8 343 C51 341 66 328 66 291 L66 132 C66 87 70 69 83 45 C105 7 150 -16 201 -16 C253 -16 297 5 337 49 L336 4 L334 -8 C334 -8 333 -12 333 -16 L338 -16 C381 -8 490 1 550 1 C554 1 563 1 576 0 L576 60 L573 60 C531 61 519 72 518 112 L518 403 Z M187 642 C145 642 110 607 110 566 C110 523 144 488 187 488 C230 488 264 523 264 565 C264 608 230 642 187 642 L187 642 Z M412 642 C370 642 335 607 335 566 C335 523 369 488 411 488 C454 488 489 522 489 565 C489 607 454 642 412 642 L412 642 Z " />
<glyph glyph-name="yacute" unicode="&#xfd;" horiz-adv-x="513" d="M-6 403 L-6 344 L1 343 C20 341 30 330 51 291 C54 286 57 280 60 274 L231 -20 L227 -29 C197 -83 182 -94 106 -110 C59 -121 39 -140 39 -176 C39 -219 73 -252 118 -252 C171 -252 208 -218 248 -130 C254 -117 259 -106 262 -101 L269 -86 L410 215 C414 224 417 231 418 232 L422 240 C433 261 434 265 440 278 C462 325 477 341 498 343 L507 344 L507 403 L342 403 L342 344 L346 344 L351 344 L352 344 C367 344 381 332 381 318 C381 310 381 310 364 273 L310 155 L240 291 C227 315 226 318 226 325 C226 336 235 342 252 343 L260 344 L260 403 L-6 403 Z M234 484 L283 484 L486 626 L486 639 L288 639 L234 484 Z " />
<glyph glyph-name="thorn" unicode="&#xfe;" horiz-adv-x="609" d="M245 679 C228 675 189 668 77 648 C49 644 31 641 13 637 L13 577 L14 577 C58 576 70 565 71 525 L71 -122 C70 -164 60 -173 14 -175 L13 -175 L13 -235 L326 -235 L326 -175 L310 -175 C265 -174 253 -162 252 -122 L252 40 C298 1 338 -16 385 -16 C493 -16 575 80 575 205 C575 329 498 419 393 419 C343 419 294 395 248 348 L248 679 L245 679 Z M252 272 C270 313 296 335 326 335 C368 335 386 297 386 210 L386 197 L386 184 C385 147 384 132 380 120 C371 90 348 70 323 70 C298 70 271 84 252 106 L252 272 Z " />
<glyph glyph-name="ydieresis" unicode="&#xff;" horiz-adv-x="513" d="M-6 403 L-6 344 L1 343 C20 341 30 330 51 291 C54 286 57 280 60 274 L231 -20 L227 -29 C197 -83 182 -94 106 -110 C59 -121 39 -140 39 -176 C39 -219 73 -252 118 -252 C171 -252 208 -218 248 -130 C254 -117 259 -106 262 -101 L269 -86 L410 215 C414 224 417 231 418 232 L422 240 C433 261 434 265 440 278 C462 325 477 341 498 343 L507 344 L507 403 L342 403 L342 344 L346 344 L351 344 L352 344 C367 344 381 332 381 318 C381 310 381 310 364 273 L310 155 L240 291 C227 315 226 318 226 325 C226 336 235 342 252 343 L260 344 L260 403 L-6 403 Z M157 642 C115 642 80 607 80 566 C80 523 114 488 157 488 C200 488 234 523 234 565 C234 608 200 642 157 642 L157 642 Z M382 642 C340 642 305 607 305 566 C305 523 339 488 381 488 C424 488 459 522 459 565 C459 607 424 642 382 642 L382 642 Z " />
<glyph glyph-name="Amacron" unicode="&#x100;" horiz-adv-x="620" d="M633 0 L633 63 L628 63 C586 67 568 87 535 167 L340 679 L276 679 L91 182 C66 110 29 66 -8 63 L-13 63 L-13 0 L201 0 L201 63 L195 63 C156 63 136 75 136 98 C136 107 140 123 146 141 L154 164 L338 164 L349 134 C360 102 361 100 361 91 C361 72 344 63 307 63 L302 63 L302 0 L633 0 Z M314 229 L177 229 L243 407 L314 229 Z M127 826 L127 757 L480 757 L480 826 L127 826 Z " />
<glyph glyph-name="amacron" unicode="&#x101;" horiz-adv-x="559" d="M515 94 C512 79 504 71 493 71 C477 71 470 81 470 102 L470 295 C470 339 466 354 446 376 C419 407 374 419 289 419 C212 419 164 412 122 393 C73 372 47 341 47 307 C47 273 73 249 110 249 C127 249 143 254 157 263 C168 272 174 283 176 305 C178 323 183 336 189 341 C198 349 219 355 237 355 C275 355 289 341 289 306 L289 266 L282 264 C180 235 127 209 72 162 C49 142 35 113 35 84 C35 25 79 -9 153 -9 C211 -9 259 7 300 39 C322 7 363 -9 422 -9 C508 -9 555 27 558 94 L515 94 Z M289 203 L289 99 C277 82 262 73 246 73 C222 73 203 93 203 118 C203 145 234 180 270 194 L283 199 L289 203 Z M120 530 L436 530 L436 593 L120 593 L120 530 Z " />
<glyph glyph-name="Abreve" unicode="&#x102;" horiz-adv-x="620" d="M633 0 L633 63 L628 63 C586 67 568 87 535 167 L340 679 L276 679 L91 182 C66 110 29 66 -8 63 L-13 63 L-13 0 L201 0 L201 63 L195 63 C156 63 136 75 136 98 C136 107 140 123 146 141 L154 164 L338 164 L349 134 C360 102 361 100 361 91 C361 72 344 63 307 63 L302 63 L302 0 L633 0 Z M314 229 L177 229 L243 407 L314 229 Z M103 881 C117 842 133 815 156 790 C196 747 258 720 315 720 C406 720 482 780 516 881 L448 881 C426 838 381 817 312 817 C239 817 201 835 175 881 L103 881 Z " />
<glyph glyph-name="abreve" unicode="&#x103;" horiz-adv-x="559" d="M515 94 C512 79 504 71 493 71 C477 71 470 81 470 102 L470 295 C470 339 466 354 446 376 C419 407 374 419 289 419 C212 419 164 412 122 393 C73 372 47 341 47 307 C47 273 73 249 110 249 C127 249 143 254 157 263 C168 272 174 283 176 305 C178 323 183 336 189 341 C198 349 219 355 237 355 C275 355 289 341 289 306 L289 266 L282 264 C180 235 127 209 72 162 C49 142 35 113 35 84 C35 25 79 -9 153 -9 C211 -9 259 7 300 39 C322 7 363 -9 422 -9 C508 -9 555 27 558 94 L515 94 Z M289 203 L289 99 C277 82 262 73 246 73 C222 73 203 93 203 118 C203 145 234 180 270 194 L283 199 L289 203 Z M135 650 C134 647 134 644 134 644 C134 602 151 560 181 525 C211 491 247 474 291 474 C378 474 446 551 446 650 L409 650 C391 594 353 566 294 566 C234 566 190 596 173 650 L135 650 Z " />
<glyph glyph-name="Aogonek" unicode="&#x104;" horiz-adv-x="620" d="M633 0 L633 63 L628 63 C586 67 568 87 535 167 L340 679 L276 679 L91 182 C66 110 29 66 -8 63 L-13 63 L-13 0 L201 0 L201 63 L195 63 C156 63 136 75 136 98 C136 107 140 123 146 141 L154 164 L338 164 L349 134 C360 102 361 100 361 91 C361 72 344 63 307 63 L302 63 L302 0 L500 0 C438 -34 406 -76 406 -126 C406 -183 457 -225 527 -225 C566 -225 596 -214 639 -185 L620 -150 C605 -158 596 -160 584 -160 C548 -160 522 -133 522 -96 C522 -62 535 -34 565 0 L633 0 Z M314 229 L177 229 L243 407 L314 229 Z " />
<glyph glyph-name="aogonek" unicode="&#x105;" horiz-adv-x="559" d="M515 94 C512 79 504 71 493 71 C477 71 470 81 470 102 L470 295 C470 339 466 354 446 376 C419 407 374 419 289 419 C212 419 164 412 122 393 C73 372 47 341 47 307 C47 273 73 249 110 249 C127 249 143 254 157 263 C168 272 174 283 176 305 C178 323 183 336 189 341 C198 349 219 355 237 355 C275 355 289 341 289 306 L289 266 L282 264 C180 235 127 209 72 162 C49 142 35 113 35 84 C35 25 79 -9 153 -9 C211 -9 259 7 300 39 C315 15 340 2 386 -6 C344 -37 323 -71 323 -110 C323 -164 369 -204 432 -204 C468 -204 495 -194 532 -167 L516 -136 C499 -143 490 -145 478 -145 C448 -145 428 -121 428 -84 C428 -57 437 -31 454 -7 C523 3 556 36 558 94 L515 94 Z M289 203 L289 99 C277 82 262 73 246 73 C222 73 203 93 203 118 C203 145 234 180 270 194 L283 199 L289 203 Z " />
<glyph glyph-name="Cacute" unicode="&#x106;" horiz-adv-x="708" d="M598 258 C592 232 576 188 563 161 C536 103 470 60 408 60 C358 60 308 87 286 127 C264 165 255 227 255 332 C255 436 265 496 289 539 C314 582 354 605 405 605 C464 605 511 576 545 519 C565 484 580 447 588 410 L647 410 L641 655 L582 655 L581 653 L580 649 C574 633 571 623 570 620 C568 614 567 612 563 602 C505 657 449 679 372 679 C285 679 209 650 151 596 C80 529 38 430 38 329 C38 241 69 156 125 91 C185 22 268 -14 366 -14 C447 -14 527 17 572 66 C583 51 591 31 598 3 L658 3 L658 258 L598 258 Z M308 734 L353 734 L622 889 L622 903 L407 903 L308 734 Z " />
<glyph glyph-name="cacute" unicode="&#x107;" horiz-adv-x="486" d="M409 131 C389 83 356 59 310 59 C248 59 221 105 221 207 C221 261 222 278 226 294 C235 335 260 359 291 359 C310 359 320 350 324 330 C337 269 357 245 394 245 C429 245 457 276 457 316 C457 380 397 419 300 419 C139 419 32 328 32 193 C32 69 127 -16 265 -16 C362 -16 435 28 464 102 L409 131 Z M208 484 L257 484 L460 626 L460 639 L263 639 L208 484 Z " />
<glyph glyph-name="Ccircumflex" unicode="&#x108;" horiz-adv-x="708" d="M598 258 C592 232 576 188 563 161 C536 103 470 60 408 60 C358 60 308 87 286 127 C264 165 255 227 255 332 C255 436 265 496 289 539 C314 582 354 605 405 605 C464 605 511 576 545 519 C565 484 580 447 588 410 L647 410 L641 655 L582 655 L581 653 L580 649 C574 633 571 623 570 620 C568 614 567 612 563 602 C505 657 449 679 372 679 C285 679 209 650 151 596 C80 529 38 430 38 329 C38 241 69 156 125 91 C185 22 268 -14 366 -14 C447 -14 527 17 572 66 C583 51 591 31 598 3 L658 3 L658 258 L598 258 Z M264 898 L170 732 L213 732 L375 828 L539 732 L582 732 L483 898 L264 898 Z " />
<glyph glyph-name="Cdotaccent" unicode="&#x10a;" horiz-adv-x="708" d="M598 258 C592 232 576 188 563 161 C536 103 470 60 408 60 C358 60 308 87 286 127 C264 165 255 227 255 332 C255 436 265 496 289 539 C314 582 354 605 405 605 C464 605 511 576 545 519 C565 484 580 447 588 410 L647 410 L641 655 L582 655 L581 653 L580 649 C574 633 571 623 570 620 C568 614 567 612 563 602 C505 657 449 679 372 679 C285 679 209 650 151 596 C80 529 38 430 38 329 C38 241 69 156 125 91 C185 22 268 -14 366 -14 C447 -14 527 17 572 66 C583 51 591 31 598 3 L658 3 L658 258 L598 258 Z M377 897 C331 897 293 859 293 814 C293 767 330 729 377 729 C423 729 461 767 461 813 C461 860 424 897 377 897 L377 897 Z " />
<glyph glyph-name="cdotaccent" unicode="&#x10b;" horiz-adv-x="486" d="M409 131 C389 83 356 59 310 59 C248 59 221 105 221 207 C221 261 222 278 226 294 C235 335 260 359 291 359 C310 359 320 350 324 330 C337 269 357 245 394 245 C429 245 457 276 457 316 C457 380 397 419 300 419 C139 419 32 328 32 193 C32 69 127 -16 265 -16 C362 -16 435 28 464 102 L409 131 Z M275 642 C233 642 198 607 198 566 C198 523 232 488 275 488 C318 488 352 523 352 565 C352 608 318 642 275 642 L275 642 Z " />
<glyph glyph-name="Ccaron" unicode="&#x10c;" horiz-adv-x="708" d="M598 258 C592 232 576 188 563 161 C536 103 470 60 408 60 C358 60 308 87 286 127 C264 165 255 227 255 332 C255 436 265 496 289 539 C314 582 354 605 405 605 C464 605 511 576 545 519 C565 484 580 447 588 410 L647 410 L641 655 L582 655 L581 653 L580 649 C574 633 571 623 570 620 C568 614 567 612 563 602 C505 657 449 679 372 679 C285 679 209 650 151 596 C80 529 38 430 38 329 C38 241 69 156 125 91 C185 22 268 -14 366 -14 C447 -14 527 17 572 66 C583 51 591 31 598 3 L658 3 L658 258 L598 258 Z M485 732 L583 898 L540 898 L377 802 L214 898 L171 898 L265 732 L485 732 Z " />
<glyph glyph-name="ccaron" unicode="&#x10d;" horiz-adv-x="486" d="M409 131 C389 83 356 59 310 59 C248 59 221 105 221 207 C221 261 222 278 226 294 C235 335 260 359 291 359 C310 359 320 350 324 330 C337 269 357 245 394 245 C429 245 457 276 457 316 C457 380 397 419 300 419 C139 419 32 328 32 193 C32 69 127 -16 265 -16 C362 -16 435 28 464 102 L409 131 Z M150 653 L105 653 L194 491 L347 491 L429 653 L380 653 L267 573 L150 653 Z " />
<glyph glyph-name="Dcaron" unicode="&#x10e;" horiz-adv-x="762" d="M25 606 L29 606 C79 603 96 586 96 540 L96 127 C96 80 82 66 28 63 L26 63 L26 0 L241 0 C425 1 460 4 508 19 C642 63 724 181 724 331 C724 472 652 587 532 640 C474 666 410 675 276 675 L255 675 C215 675 142 673 25 669 L25 606 Z M290 607 C345 606 369 601 399 584 C471 541 502 466 502 332 C502 158 453 68 358 68 C328 68 307 77 298 94 C291 106 290 111 290 144 L290 607 Z M455 732 L553 898 L510 898 L347 802 L184 898 L141 898 L235 732 L455 732 Z " />
<glyph glyph-name="dcaron" unicode="&#x10f;" horiz-adv-x="754" d="M593 78 L587 78 C548 80 535 93 535 131 L535 679 L530 679 C519 678 504 675 503 675 L449 666 C316 644 315 644 290 639 L290 579 L291 579 C339 578 353 566 354 526 L354 368 C325 401 279 419 224 419 C153 419 97 388 64 331 C44 296 35 254 35 194 C35 139 43 103 61 71 C90 21 143 -8 209 -8 C265 -8 307 11 353 56 C353 28 357 11 366 -8 C419 3 497 10 593 14 L593 78 Z M354 134 C339 98 312 77 281 77 C251 77 230 103 227 143 C226 157 225 202 225 222 C225 299 247 338 291 338 C313 338 330 328 354 301 L354 134 Z M595 432 C683 432 741 485 741 567 C741 636 707 679 652 679 C608 679 578 649 578 606 C578 570 604 541 637 541 C641 541 647 542 653 543 C666 545 666 545 667 545 C676 545 682 539 682 530 C682 502 645 481 595 481 L595 432 Z " />
<glyph glyph-name="Dcroat" unicode="&#x110;" horiz-adv-x="766" d="M101 370 L21 370 L21 297 L101 297 L101 127 C101 80 87 66 32 63 L30 63 L30 0 L246 0 C430 1 465 4 513 19 C647 63 729 181 729 332 C729 472 657 587 537 640 C479 666 415 675 281 675 L260 675 C221 675 148 673 29 669 L29 606 L33 606 C84 603 101 586 101 540 L101 370 Z M295 370 L295 607 C350 606 374 601 404 584 C476 541 507 466 507 332 C507 158 458 68 363 68 C333 68 312 77 303 94 C296 107 295 111 295 144 L295 297 L408 297 L408 370 L295 370 Z " />
<glyph glyph-name="dcroat" unicode="&#x111;" horiz-adv-x="606" d="M354 471 L354 368 C325 401 279 419 224 419 C154 419 96 388 64 331 C44 296 35 254 35 194 C35 139 43 103 61 71 C90 21 143 -8 209 -8 C265 -8 307 11 353 56 C353 28 357 11 366 -8 C419 3 497 10 593 14 L593 78 L587 78 C548 80 535 93 535 131 L535 471 L593 471 L593 534 L535 534 L535 679 L530 679 C517 677 507 675 503 675 L449 666 C318 644 318 644 290 639 L290 579 L291 579 C337 578 350 568 354 534 L222 534 L222 471 L354 471 Z M354 134 C339 98 312 77 281 77 C251 77 230 103 227 143 C226 157 225 202 225 222 C225 299 247 338 291 338 C313 338 330 328 354 301 L354 134 Z " />
<glyph glyph-name="Emacron" unicode="&#x112;" horiz-adv-x="648" d="M563 222 C533 105 494 67 404 68 L396 68 C312 72 300 82 303 147 L303 314 L360 314 C404 314 423 292 422 242 L422 235 L481 235 L481 460 L422 460 L422 454 C416 396 405 384 358 382 L303 382 L303 599 L425 599 C463 598 477 594 488 581 C507 558 522 530 534 492 L594 492 L586 667 L25 667 L25 605 L37 605 C92 602 109 587 109 539 L109 127 C110 81 94 66 39 63 L28 63 L28 0 L621 0 L623 222 L563 222 Z M158 826 L158 757 L511 757 L511 826 L158 826 Z " />
<glyph glyph-name="emacron" unicode="&#x113;" horiz-adv-x="509" d="M413 107 C382 72 349 54 315 54 C283 54 251 71 236 97 C222 121 217 143 216 191 L477 191 L477 206 C477 336 394 419 261 419 C128 419 35 331 35 205 C35 76 132 -16 267 -16 C343 -16 421 20 462 73 L413 107 Z M216 248 C217 311 218 317 228 337 C234 348 249 356 263 356 C297 356 314 328 317 266 C317 263 317 256 318 248 L216 248 Z M104 530 L420 530 L420 593 L104 593 L104 530 Z " />
<glyph glyph-name="Ebreve" unicode="&#x114;" horiz-adv-x="648" d="M563 222 C533 105 494 67 404 68 L396 68 C312 72 300 82 303 147 L303 314 L360 314 C404 314 423 292 422 242 L422 235 L481 235 L481 460 L422 460 L422 454 C416 396 405 384 358 382 L303 382 L303 599 L425 599 C463 598 477 594 488 581 C507 558 522 530 534 492 L594 492 L586 667 L25 667 L25 605 L37 605 C92 602 109 587 109 539 L109 127 C110 81 94 66 39 63 L28 63 L28 0 L621 0 L623 222 L563 222 Z M132 881 C146 842 162 815 185 790 C225 747 287 720 344 720 C435 720 511 780 545 881 L476 881 C455 838 410 817 341 817 C268 817 230 835 203 881 L132 881 Z " />
<glyph glyph-name="ebreve" unicode="&#x115;" horiz-adv-x="509" d="M413 107 C382 72 349 54 315 54 C283 54 251 71 236 97 C222 121 217 143 216 191 L477 191 L477 206 C477 336 394 419 261 419 C128 419 35 331 35 205 C35 76 132 -16 267 -16 C343 -16 421 20 462 73 L413 107 Z M216 248 C217 311 218 317 228 337 C234 348 249 356 263 356 C297 356 314 328 317 266 C317 263 317 256 318 248 L216 248 Z M117 650 L117 644 C117 603 135 559 164 525 C194 491 230 474 274 474 C361 474 429 551 429 650 L392 650 C374 594 336 566 277 566 C216 566 173 596 156 650 L117 650 Z " />
<glyph glyph-name="Edotaccent" unicode="&#x116;" horiz-adv-x="648" d="M563 222 C533 105 494 67 404 68 L396 68 C312 72 300 82 303 147 L303 314 L360 314 C404 314 423 292 422 242 L422 235 L481 235 L481 460 L422 460 L422 454 C416 396 405 384 358 382 L303 382 L303 599 L425 599 C463 598 477 594 488 581 C507 558 522 530 534 492 L594 492 L586 667 L25 667 L25 605 L37 605 C92 602 109 587 109 539 L109 127 C110 81 94 66 39 63 L28 63 L28 0 L621 0 L623 222 L563 222 Z M339 897 C293 897 255 859 255 814 C255 767 292 729 339 729 C385 729 423 767 423 813 C423 860 386 897 339 897 L339 897 Z " />
<glyph glyph-name="edotaccent" unicode="&#x117;" horiz-adv-x="509" d="M413 107 C382 72 349 54 315 54 C283 54 251 71 236 97 C222 121 217 143 216 191 L477 191 L477 206 C477 336 394 419 261 419 C128 419 35 331 35 205 C35 76 132 -16 267 -16 C343 -16 421 20 462 73 L413 107 Z M216 248 C217 311 218 317 228 337 C234 348 249 356 263 356 C297 356 314 328 317 266 C317 263 317 256 318 248 L216 248 Z M273 642 C231 642 196 607 196 566 C196 523 230 488 273 488 C316 488 350 523 350 565 C350 608 316 642 273 642 L273 642 Z " />
<glyph glyph-name="Eogonek" unicode="&#x118;" horiz-adv-x="648" d="M621 0 L623 222 L563 222 C533 105 494 67 404 68 L396 68 C312 72 300 82 303 147 L303 314 L360 314 C404 314 423 292 422 242 L422 235 L481 235 L481 460 L422 460 L422 454 C416 396 405 384 358 382 L303 382 L303 599 L425 599 C463 598 477 594 488 581 C507 558 522 530 534 492 L594 492 L586 667 L25 667 L25 605 L37 605 C92 602 109 587 109 539 L109 127 C110 81 94 66 39 63 L28 63 L28 0 L482 0 C421 -33 389 -77 389 -126 C389 -183 440 -225 510 -225 C549 -225 579 -214 621 -185 L602 -150 C587 -158 578 -160 566 -160 C530 -160 505 -133 505 -96 C505 -62 518 -33 547 0 L621 0 Z " />
<glyph glyph-name="eogonek" unicode="&#x119;" horiz-adv-x="509" d="M413 107 C382 72 349 54 315 54 C283 54 251 71 236 97 C222 121 217 143 216 191 L477 191 L477 206 C477 336 394 419 261 419 C128 419 35 331 35 205 C35 76 132 -16 268 -16 L284 -16 C251 -43 234 -75 234 -111 C234 -164 281 -204 343 -204 C378 -204 406 -194 442 -167 L427 -136 C410 -143 401 -145 389 -145 C359 -145 339 -121 339 -84 C339 -50 349 -26 377 7 C410 24 448 53 462 73 L413 107 Z M216 248 C217 311 218 317 228 337 C234 348 249 356 263 356 C297 356 314 328 317 266 C317 263 317 256 318 248 L216 248 Z " />
<glyph glyph-name="Ecaron" unicode="&#x11a;" horiz-adv-x="648" d="M563 222 C533 105 494 67 404 68 L396 68 C312 72 300 82 303 147 L303 314 L360 314 C404 314 423 292 422 242 L422 235 L481 235 L481 460 L422 460 L422 454 C416 396 405 384 358 382 L303 382 L303 599 L425 599 C463 598 477 594 488 581 C507 558 522 530 534 492 L594 492 L586 667 L25 667 L25 605 L37 605 C92 602 109 587 109 539 L109 127 C110 81 94 66 39 63 L28 63 L28 0 L621 0 L623 222 L563 222 Z M448 732 L546 898 L503 898 L340 802 L178 898 L134 898 L229 732 L448 732 Z " />
<glyph glyph-name="ecaron" unicode="&#x11b;" horiz-adv-x="509" d="M413 107 C382 72 349 54 315 54 C283 54 251 71 236 97 C222 121 217 143 216 191 L477 191 L477 206 C477 336 394 419 261 419 C128 419 35 331 35 205 C35 76 132 -16 267 -16 C343 -16 421 20 462 73 L413 107 Z M216 248 C217 311 218 317 228 337 C234 348 249 356 263 356 C297 356 314 328 317 266 C317 263 317 256 318 248 L216 248 Z M150 653 L105 653 L194 491 L347 491 L428 653 L379 653 L267 573 L150 653 Z " />
<glyph glyph-name="Gcircumflex" unicode="&#x11c;" horiz-adv-x="752" d="M434 314 L434 252 L439 251 C483 243 500 228 502 194 L502 170 C502 134 496 112 484 95 C467 72 434 59 394 59 C346 59 310 77 291 113 C268 154 261 200 261 300 C261 425 271 488 298 537 C320 576 361 598 412 598 C496 598 549 550 586 441 L647 441 L640 676 L580 676 C578 650 573 631 561 608 C502 656 440 679 366 679 C184 679 37 522 37 327 C37 136 179 -14 362 -14 C411 -14 440 -10 525 8 C583 20 632 26 672 26 C675 26 681 26 692 25 L692 182 C692 225 698 236 728 250 L736 252 L736 314 L434 314 Z M282 898 L188 732 L231 732 L393 828 L557 732 L600 732 L501 898 L282 898 Z " />
<glyph glyph-name="gcircumflex" unicode="&#x11d;" horiz-adv-x="526" d="M273 -72 L310 -71 L350 -71 L356 -71 C396 -71 414 -84 414 -111 C414 -160 352 -190 250 -190 C177 -190 136 -171 136 -137 L136 -136 C134 -125 132 -119 131 -112 C130 -109 130 -108 129 -107 C109 -97 97 -94 82 -94 C55 -94 31 -120 31 -150 C31 -217 101 -250 242 -250 C326 -250 383 -239 428 -213 C484 -180 514 -129 514 -64 C514 -12 493 28 455 50 C425 67 393 73 331 73 C313 73 299 73 284 72 L204 71 C180 71 168 79 168 94 C168 119 195 132 249 132 C379 130 459 187 459 280 C459 304 455 320 443 342 C450 349 452 350 458 350 C466 350 471 348 480 340 C492 331 498 328 507 328 C528 328 540 344 540 369 C540 402 523 420 493 420 C472 420 453 411 420 385 L411 378 C372 407 331 418 264 418 C121 418 41 368 41 279 C41 242 58 204 84 181 C102 165 118 157 153 147 C82 127 53 96 53 41 C53 -39 110 -72 248 -72 L273 -72 Z M252 358 C278 358 291 332 291 281 C291 222 280 197 255 197 C228 197 214 227 214 283 C214 331 228 358 252 358 L252 358 Z M379 481 L428 481 L347 644 L194 644 L105 481 L150 481 L272 561 L379 481 Z " />
<glyph glyph-name="Gbreve" unicode="&#x11e;" horiz-adv-x="752" d="M434 314 L434 252 L439 251 C483 243 500 228 502 194 L502 170 C502 134 496 112 484 95 C467 72 434 59 394 59 C346 59 310 77 291 113 C268 154 261 200 261 300 C261 425 271 488 298 537 C320 576 361 598 412 598 C496 598 549 550 586 441 L647 441 L640 676 L580 676 C578 650 573 631 561 608 C502 656 440 679 366 679 C184 679 37 522 37 327 C37 136 179 -14 362 -14 C411 -14 440 -10 525 8 C583 20 632 26 672 26 C675 26 681 26 692 25 L692 182 C692 225 698 236 728 250 L736 252 L736 314 L434 314 Z M174 881 C187 842 203 815 226 790 C267 747 329 720 386 720 C477 720 552 780 587 881 L518 881 C496 838 451 817 383 817 C309 817 271 835 245 881 L174 881 Z " />
<glyph glyph-name="gbreve" unicode="&#x11f;" horiz-adv-x="526" d="M273 -72 L310 -71 L350 -71 L356 -71 C396 -71 414 -84 414 -111 C414 -160 352 -190 250 -190 C177 -190 136 -171 136 -137 L136 -136 C134 -125 132 -119 131 -112 C130 -109 130 -108 129 -107 C109 -97 97 -94 82 -94 C55 -94 31 -120 31 -150 C31 -217 101 -250 242 -250 C326 -250 383 -239 428 -213 C484 -180 514 -129 514 -64 C514 -12 493 28 455 50 C425 67 393 73 331 73 C313 73 299 73 284 72 L204 71 C180 71 168 79 168 94 C168 119 195 132 249 132 C379 130 459 187 459 280 C459 304 455 320 443 342 C450 349 452 350 458 350 C466 350 471 348 480 340 C492 331 498 328 507 328 C528 328 540 344 540 369 C540 402 523 420 493 420 C472 420 453 411 420 385 L411 378 C372 407 331 418 264 418 C121 418 41 368 41 279 C41 242 58 204 84 181 C102 165 118 157 153 147 C82 127 53 96 53 41 C53 -39 110 -72 248 -72 L273 -72 Z M252 358 C278 358 291 332 291 281 C291 222 280 197 255 197 C228 197 214 227 214 283 C214 331 228 358 252 358 L252 358 Z M109 650 C113 549 179 474 266 474 C353 474 421 551 421 650 L383 650 C366 594 327 566 269 566 C208 566 164 596 147 650 L109 650 Z " />
<glyph glyph-name="Gdotaccent" unicode="&#x120;" horiz-adv-x="752" d="M434 314 L434 252 L439 251 C483 243 500 228 502 194 L502 170 C502 134 496 112 484 95 C467 72 434 59 394 59 C346 59 310 77 291 113 C268 154 261 200 261 300 C261 425 271 488 298 537 C320 576 361 598 412 598 C496 598 549 550 586 441 L647 441 L640 676 L580 676 C578 650 573 631 561 608 C502 656 440 679 366 679 C184 679 37 522 37 327 C37 136 179 -14 362 -14 C411 -14 440 -10 525 8 C583 20 632 26 672 26 C675 26 681 26 692 25 L692 182 C692 225 698 236 728 250 L736 252 L736 314 L434 314 Z M374 897 C328 897 290 859 290 814 C290 767 327 729 374 729 C420 729 458 767 458 813 C458 860 421 897 374 897 L374 897 Z " />
<glyph glyph-name="gdotaccent" unicode="&#x121;" horiz-adv-x="526" d="M273 -72 L310 -71 L350 -71 L356 -71 C396 -71 414 -84 414 -111 C414 -160 352 -190 250 -190 C177 -190 136 -171 136 -137 L136 -136 C134 -125 132 -119 131 -112 C130 -109 130 -108 129 -107 C109 -97 97 -94 82 -94 C55 -94 31 -120 31 -150 C31 -217 101 -250 242 -250 C326 -250 383 -239 428 -213 C484 -180 514 -129 514 -64 C514 -12 493 28 455 50 C425 67 393 73 331 73 C313 73 299 73 284 72 L204 71 C180 71 168 79 168 94 C168 119 195 132 249 132 C379 130 459 187 459 280 C459 304 455 320 443 342 C450 349 452 350 458 350 C466 350 471 348 480 340 C492 331 498 328 507 328 C528 328 540 344 540 369 C540 402 523 420 493 420 C472 420 453 411 420 385 L411 378 C372 407 331 418 264 418 C121 418 41 368 41 279 C41 242 58 204 84 181 C102 165 118 157 153 147 C82 127 53 96 53 41 C53 -39 110 -72 248 -72 L273 -72 Z M252 358 C278 358 291 332 291 281 C291 222 280 197 255 197 C228 197 214 227 214 283 C214 331 228 358 252 358 L252 358 Z M262 642 C220 642 185 607 185 566 C185 523 219 488 262 488 C305 488 339 523 339 565 C339 608 305 642 262 642 L262 642 Z " />
<glyph glyph-name="Gcommaaccent" unicode="&#x122;" horiz-adv-x="752" d="M434 314 L434 252 L439 251 C483 243 500 228 502 194 L502 170 C502 134 496 112 484 95 C467 72 434 59 394 59 C346 59 310 77 291 113 C268 154 261 200 261 300 C261 425 271 488 298 537 C320 576 361 598 412 598 C496 598 549 550 586 441 L647 441 L640 676 L580 676 C578 650 573 631 561 608 C502 656 440 679 366 679 C184 679 37 522 37 327 C37 136 179 -14 362 -14 C411 -14 440 -10 525 8 C583 20 632 26 672 26 C675 26 681 26 692 25 L692 182 C692 225 698 236 728 250 L736 252 L736 314 L434 314 Z M307 -344 C406 -344 473 -282 473 -187 C473 -108 435 -59 372 -59 C323 -59 288 -93 288 -142 C288 -184 318 -217 354 -217 C359 -217 366 -216 374 -214 C378 -213 381 -212 382 -212 L389 -212 L391 -211 C398 -211 405 -220 405 -229 C405 -262 363 -288 307 -289 L307 -344 Z " />
<glyph glyph-name="gcommaaccent" unicode="&#x123;" horiz-adv-x="526" d="M273 -72 L310 -71 L350 -71 L356 -71 C396 -71 414 -84 414 -111 C414 -160 352 -190 250 -190 C177 -190 136 -171 136 -137 L136 -136 C134 -125 132 -119 131 -112 C130 -109 130 -108 129 -107 C109 -97 97 -94 82 -94 C55 -94 31 -120 31 -150 C31 -217 101 -250 242 -250 C326 -250 383 -239 428 -213 C484 -180 514 -129 514 -64 C514 -12 493 28 455 50 C425 67 393 73 331 73 C313 73 299 73 284 72 L204 71 C180 71 168 79 168 94 C168 119 195 132 249 132 C379 130 459 187 459 280 C459 304 455 320 443 342 C450 349 452 350 458 350 C466 350 471 348 480 340 C492 331 498 328 507 328 C528 328 540 344 540 369 C540 402 523 420 493 420 C472 420 453 411 420 385 L411 378 C372 407 331 418 264 418 C121 418 41 368 41 279 C41 242 58 204 84 181 C102 165 118 157 153 147 C82 127 53 96 53 41 C53 -39 110 -72 248 -72 L273 -72 Z M252 358 C278 358 291 332 291 281 C291 222 280 197 255 197 C228 197 214 227 214 283 C214 331 228 358 252 358 L252 358 Z M330 704 C242 704 184 651 184 569 C184 500 218 457 273 457 C317 457 347 487 347 530 C347 566 321 595 288 595 C284 595 278 594 272 593 C259 591 259 591 258 591 C249 591 243 597 243 606 C243 634 280 655 330 656 L330 704 Z " />
<glyph glyph-name="Hcircumflex" unicode="&#x124;" horiz-adv-x="821" d="M526 315 L526 126 C528 82 508 64 455 62 L456 62 L456 0 L796 0 L796 62 L790 62 C735 66 719 80 720 126 L720 538 C720 585 737 601 789 604 L796 604 L796 667 L456 667 L456 604 C506 603 527 583 526 538 L526 384 L294 384 L294 538 C294 585 311 601 363 604 L366 604 L366 667 L25 667 L25 604 L31 604 C80 603 101 582 100 538 L100 126 C103 83 83 65 29 62 L25 62 L25 0 L366 0 L366 62 L364 62 C308 66 293 80 294 126 L294 315 L526 315 Z M299 898 L205 732 L249 732 L411 828 L574 732 L617 732 L519 898 L299 898 Z " />
<glyph glyph-name="Hbar" unicode="&#x126;" horiz-adv-x="821" d="M100 443 L100 126 C103 83 83 65 29 62 L25 62 L25 0 L366 0 L366 62 L364 62 C308 66 293 80 294 126 L294 315 L526 315 L526 126 C528 82 508 64 455 62 L456 62 L456 0 L796 0 L796 62 L790 62 C735 66 719 80 720 126 L720 443 L785 443 L785 512 L720 512 L720 538 C720 585 737 601 789 604 L796 604 L796 667 L456 667 L456 604 C506 603 527 583 526 538 L526 512 L294 512 L294 538 C294 585 311 601 363 604 L366 604 L366 667 L25 667 L25 604 L31 604 C80 603 101 582 100 538 L100 512 L36 512 L36 443 L100 443 Z M294 443 L526 443 L526 384 L294 384 L294 443 Z " />
<glyph glyph-name="hbar" unicode="&#x127;" horiz-adv-x="595" d="M73 471 L73 112 C72 71 62 62 18 60 L17 60 L17 0 L293 0 L293 60 L290 60 C266 64 254 81 254 112 L254 265 C276 303 298 322 320 322 C340 322 353 304 353 276 L353 112 C353 82 343 67 319 60 L315 60 L315 0 L591 0 L591 60 L588 60 C550 61 538 74 537 112 L537 256 C537 313 525 355 504 376 C476 403 436 419 394 419 C341 419 291 394 254 350 L254 471 L398 471 L398 534 L254 534 L254 679 L250 679 C215 673 192 668 169 664 C114 655 80 649 68 647 C49 643 39 641 16 636 L16 576 L18 576 C60 574 69 567 72 534 L17 534 L17 471 L73 471 Z " />
<glyph glyph-name="Imacron" unicode="&#x12a;" horiz-adv-x="397" d="M26 604 L32 604 C84 602 101 586 101 539 L101 127 C101 79 87 66 31 63 L26 63 L26 0 L372 0 L372 63 L365 63 C309 66 295 79 295 127 L295 539 C295 586 311 601 364 604 L372 604 L372 667 L26 667 L26 604 Z M22 826 L22 757 L376 757 L376 826 L22 826 Z " />
<glyph glyph-name="imacron" unicode="&#x12b;" horiz-adv-x="328" d="M16 319 L27 319 C77 316 87 307 87 265 L87 112 C86 70 75 61 26 60 L16 60 L16 0 L322 0 L322 60 L320 60 C277 61 265 73 264 112 L264 419 L260 419 C249 417 238 415 235 414 L168 403 C100 391 61 385 52 384 C35 381 28 380 16 379 L16 319 Z M11 530 L302 530 L302 593 L11 593 L11 530 Z " />
<glyph glyph-name="ibreve" unicode="&#x12d;" horiz-adv-x="328" d="M16 319 L27 319 C77 316 87 307 87 265 L87 112 C86 70 75 61 26 60 L16 60 L16 0 L322 0 L322 60 L320 60 C277 61 265 73 264 112 L264 419 L260 419 C249 417 238 415 235 414 L168 403 C100 391 61 385 52 384 C35 381 28 380 16 379 L16 319 Z M17 650 L17 644 C17 603 34 559 64 525 C94 491 130 474 174 474 C261 474 329 551 329 650 L292 650 C274 594 236 566 177 566 C116 566 73 596 56 650 L17 650 Z " />
<glyph glyph-name="Iogonek" unicode="&#x12e;" horiz-adv-x="397" d="M371 0 L371 63 L364 63 C308 66 294 79 294 127 L294 539 C294 586 310 601 363 604 L371 604 L371 667 L25 667 L25 604 L31 604 C83 602 100 586 100 539 L100 127 C100 79 86 66 30 63 L25 63 L25 0 L239 0 C179 -33 146 -77 146 -126 C146 -183 197 -225 267 -225 C306 -225 335 -214 377 -185 L358 -150 C344 -158 335 -160 323 -160 C287 -160 262 -133 262 -96 C262 -62 274 -34 304 0 L371 0 Z " />
<glyph glyph-name="iogonek" unicode="&#x12f;" horiz-adv-x="328" d="M322 0 L322 60 L320 60 C277 61 265 73 264 112 L264 419 L260 419 C249 417 238 415 235 414 L168 403 C100 391 61 385 52 384 C35 381 28 380 16 379 L16 319 L27 319 C77 316 87 307 87 265 L87 112 C86 70 75 61 26 60 L16 60 L16 0 L190 0 C141 -31 117 -68 117 -111 C117 -164 163 -204 226 -204 C262 -204 290 -194 326 -167 L311 -136 C293 -143 285 -145 272 -145 C242 -145 222 -121 222 -84 C222 -54 234 -23 254 0 L322 0 Z M179 679 C124 679 80 636 80 582 C80 527 123 483 178 483 C231 483 275 527 275 581 C275 635 232 679 179 679 L179 679 Z " />
<glyph glyph-name="Idotaccent" unicode="&#x130;" horiz-adv-x="397" d="M25 604 L31 604 C83 602 100 586 100 539 L100 127 C100 79 86 66 30 63 L25 63 L25 0 L371 0 L371 63 L364 63 C308 66 294 79 294 127 L294 539 C294 586 310 601 363 604 L371 604 L371 667 L25 667 L25 604 Z M207 897 C161 897 123 859 123 814 C123 767 160 729 207 729 C253 729 291 767 291 813 C291 860 254 897 207 897 L207 897 Z " />
<glyph glyph-name="dotlessi" unicode="&#x131;" horiz-adv-x="328" d="M16 319 L27 319 C77 316 87 307 87 265 L87 112 C86 70 75 61 26 60 L16 60 L16 0 L322 0 L322 60 L320 60 C277 61 265 73 264 112 L264 419 L260 419 C249 417 238 415 235 414 L168 403 C100 391 61 385 52 384 C35 381 28 380 16 379 L16 319 Z " />
<glyph glyph-name="Kcommaaccent" unicode="&#x136;" horiz-adv-x="770" d="M299 349 L299 539 C299 586 315 601 368 604 L377 604 L377 667 L25 667 L25 604 L35 604 C88 602 105 586 105 539 L105 127 C105 79 91 66 34 63 L27 63 L27 0 L369 0 L369 63 C315 64 298 80 299 127 L299 256 L364 324 L469 140 C470 134 473 128 477 122 C484 112 488 101 488 91 C488 72 468 63 426 63 L422 63 L422 0 L795 0 L795 63 L791 63 C735 60 691 96 654 173 L495 450 L538 492 C618 571 670 601 729 605 L736 604 L736 667 L445 667 L445 604 L453 605 C484 605 499 596 499 577 C499 558 488 539 460 511 L299 349 Z M312 -344 C411 -344 478 -282 478 -187 C478 -108 440 -59 377 -59 C328 -59 293 -93 293 -142 C293 -184 323 -217 359 -217 C364 -217 371 -216 379 -214 C383 -213 386 -212 387 -212 L394 -212 L396 -211 C403 -211 410 -220 410 -229 C410 -262 368 -288 312 -289 L312 -344 Z " />
<glyph glyph-name="kcommaaccent" unicode="&#x137;" horiz-adv-x="594" d="M324 403 L324 344 L328 344 C354 344 366 340 366 330 C366 326 365 324 357 315 L359 316 L354 313 L254 226 L254 679 L250 679 C203 670 198 669 168 664 L68 647 C49 643 39 641 16 636 L16 577 L20 577 C64 574 72 565 73 518 L73 113 C72 71 62 62 20 60 L16 60 L16 0 L297 0 L297 60 L293 60 C265 64 254 79 254 113 L254 152 L293 185 L342 102 L346 93 C351 81 351 81 351 77 C351 66 344 60 330 60 L328 60 L328 0 L588 0 L588 60 L585 60 C562 62 544 80 496 150 L411 280 L423 287 C485 327 485 327 494 330 C514 339 536 344 555 344 L561 344 L564 344 L564 403 L324 403 Z M245 -307 C333 -307 391 -253 391 -171 C391 -102 357 -59 302 -59 C258 -59 228 -89 228 -132 C228 -168 254 -198 287 -198 C292 -198 297 -197 303 -196 C316 -193 316 -193 317 -193 C326 -193 332 -199 332 -208 C332 -236 295 -257 245 -258 L245 -307 Z " />
<glyph glyph-name="Lacute" unicode="&#x139;" horiz-adv-x="627" d="M614 228 L557 228 C537 126 476 69 387 69 L383 69 C310 71 293 87 296 150 L296 538 C296 586 312 601 365 604 L373 604 L373 667 L25 667 L25 604 L33 604 C86 601 102 586 102 538 L102 127 C102 79 88 66 32 63 L25 63 L25 0 L612 0 L614 228 Z M183 734 L228 734 L497 889 L497 903 L282 903 L183 734 Z " />
<glyph glyph-name="lacute" unicode="&#x13a;" horiz-adv-x="321" d="M16 576 L25 576 C65 574 72 565 73 518 L73 112 C72 71 64 61 25 60 L18 60 L18 0 L306 0 L306 60 L304 60 C264 62 254 72 254 112 L254 679 L250 679 C203 670 198 669 168 664 L68 647 C49 643 40 641 16 636 L16 576 Z M92 734 L137 734 L405 889 L405 903 L191 903 L92 734 Z " />
<glyph glyph-name="Lcommaaccent" unicode="&#x13b;" horiz-adv-x="627" d="M614 228 L557 228 C537 126 476 69 387 69 L383 69 C310 71 293 87 296 150 L296 538 C296 586 312 601 365 604 L373 604 L373 667 L25 667 L25 604 L33 604 C86 601 102 586 102 538 L102 127 C102 79 88 66 32 63 L25 63 L25 0 L612 0 L614 228 Z M253 -344 C352 -344 419 -282 419 -187 C419 -108 381 -59 318 -59 C269 -59 234 -93 234 -142 C234 -184 264 -217 300 -217 C305 -217 312 -216 320 -214 C324 -213 327 -212 328 -212 L335 -212 L337 -211 C344 -211 351 -220 351 -229 C351 -262 309 -288 253 -289 L253 -344 Z " />
<glyph glyph-name="lcommaaccent" unicode="&#x13c;" horiz-adv-x="321" d="M16 576 L25 576 C65 574 72 565 73 518 L73 112 C72 71 64 61 25 60 L18 60 L18 0 L306 0 L306 60 L304 60 C264 62 254 72 254 112 L254 679 L250 679 C203 670 198 669 168 664 L68 647 C49 643 40 641 16 636 L16 576 Z M98 -307 C186 -307 244 -253 244 -171 C244 -102 210 -59 155 -59 C111 -59 81 -89 81 -132 C81 -168 107 -198 140 -198 C145 -198 150 -197 156 -196 C169 -193 169 -193 170 -193 C179 -193 185 -199 185 -208 C185 -236 148 -257 98 -258 L98 -307 Z " />
<glyph glyph-name="Lcaron" unicode="&#x13d;" horiz-adv-x="627" d="M614 228 L557 228 C537 126 476 69 387 69 L383 69 C310 71 293 87 296 150 L296 538 C296 586 312 601 365 604 L373 604 L373 667 L25 667 L25 604 L33 604 C86 601 102 586 102 538 L102 127 C102 79 88 66 32 63 L25 63 L25 0 L612 0 L614 228 Z M432 382 C531 382 598 445 598 539 C598 618 560 667 497 667 C448 667 413 633 413 584 C413 542 443 509 479 509 C484 509 491 510 499 512 C503 513 506 514 507 514 L514 514 L516 515 C523 515 530 506 530 497 C530 464 488 439 432 438 L432 382 Z " />
<glyph glyph-name="lcaron" unicode="&#x13e;" horiz-adv-x="476" d="M16 576 L25 576 C65 574 72 565 73 518 L73 112 C72 71 64 61 25 60 L18 60 L18 0 L306 0 L306 60 L304 60 C264 62 254 72 254 112 L254 679 L250 679 C203 670 198 669 168 664 L68 647 C49 643 40 641 16 636 L16 576 Z M316 432 C404 432 462 485 462 567 C462 636 428 679 373 679 C329 679 299 649 299 606 C299 570 325 541 358 541 C362 541 368 542 374 543 C387 545 387 545 388 545 C397 545 403 539 403 530 C403 502 366 481 316 481 L316 432 Z " />
<glyph glyph-name="Ldot" unicode="&#x13f;" horiz-adv-x="627" d="M614 228 L557 228 C537 126 476 69 387 69 L383 69 C310 71 293 87 296 150 L296 538 C296 586 312 601 365 604 L373 604 L373 667 L25 667 L25 604 L33 604 C86 601 102 586 102 538 L102 127 C102 79 88 66 32 63 L25 63 L25 0 L612 0 L614 228 Z M421 411 C379 411 344 376 344 335 C344 292 378 257 421 257 C464 257 498 292 498 334 C498 377 464 411 421 411 L421 411 Z " />
<glyph glyph-name="ldot" unicode="&#x140;" horiz-adv-x="439" d="M16 576 L25 576 C65 574 72 565 73 518 L73 112 C72 71 64 61 25 60 L18 60 L18 0 L306 0 L306 60 L304 60 C264 62 254 72 254 112 L254 679 L250 679 C203 670 198 669 168 664 L68 647 C49 643 40 641 16 636 L16 576 Z M375 415 C333 415 298 380 298 339 C298 296 332 261 375 261 C418 261 452 296 452 338 C452 381 418 415 375 415 L375 415 Z " />
<glyph glyph-name="Lslash" unicode="&#x141;" horiz-adv-x="627" d="M102 217 L102 127 C102 79 88 66 32 63 L25 63 L25 0 L612 0 L614 228 L556 228 C536 125 476 69 387 69 L383 69 C310 71 293 87 296 150 L296 341 L403 409 L403 482 L296 415 L296 538 C296 586 312 601 365 604 L373 604 L373 667 L25 667 L25 604 L33 604 C86 601 102 586 102 538 L102 290 L30 244 L30 171 L102 217 Z " />
<glyph glyph-name="lslash" unicode="&#x142;" horiz-adv-x="322" d="M16 576 L25 576 C65 574 72 565 73 518 L73 273 L19 226 L19 160 L73 206 L73 112 C72 71 63 61 25 60 L19 60 L19 0 L307 0 L307 60 L305 60 C265 62 254 72 254 112 L254 365 L316 419 L316 488 L254 432 L254 679 L250 679 C203 670 198 669 168 664 C144 660 120 656 95 652 L68 647 C49 643 39 641 16 636 L16 576 Z " />
<glyph glyph-name="Nacute" unicode="&#x143;" horiz-adv-x="750" d="M650 -9 L650 492 C648 563 667 592 724 604 L731 604 L731 667 L491 667 L491 604 L495 604 C549 603 579 561 577 493 L577 287 L244 667 L25 667 L25 604 L29 604 C78 602 113 564 112 513 L112 176 C112 129 110 118 101 102 C88 79 61 62 38 62 L35 62 L31 62 L31 0 L267 0 L267 62 L261 62 L253 62 C234 61 210 77 198 99 C187 118 185 130 185 176 L185 444 L576 -9 L650 -9 Z M323 734 L368 734 L637 889 L637 903 L422 903 L323 734 Z " />
<glyph glyph-name="nacute" unicode="&#x144;" horiz-adv-x="596" d="M16 306 L19 306 C58 305 73 293 74 260 L74 112 C73 71 63 62 20 60 L19 60 L19 0 L295 0 L295 60 L292 60 C267 64 255 81 255 112 L255 265 C277 302 300 322 321 322 C342 322 355 304 355 276 L355 112 C355 82 345 67 320 60 L316 60 L316 0 L593 0 L593 60 L590 60 C552 61 540 74 539 112 L539 256 C539 313 527 355 506 376 C478 403 438 419 397 419 C344 419 295 396 258 354 C256 382 255 392 250 405 L246 405 C225 401 221 400 180 394 C167 392 100 380 16 366 L16 306 Z M252 484 L301 484 L504 626 L504 639 L306 639 L252 484 Z " />
<glyph glyph-name="Ncommaaccent" unicode="&#x145;" horiz-adv-x="750" d="M650 -9 L650 492 C648 563 667 592 724 604 L731 604 L731 667 L491 667 L491 604 L495 604 C549 603 579 561 577 493 L577 287 L244 667 L25 667 L25 604 L29 604 C78 602 113 564 112 513 L112 176 C112 129 110 118 101 102 C88 79 61 62 38 62 L35 62 L31 62 L31 0 L267 0 L267 62 L261 62 L253 62 C234 61 210 77 198 99 C187 118 185 130 185 176 L185 444 L576 -9 L650 -9 Z M311 -344 C410 -344 477 -282 477 -187 C477 -108 439 -59 376 -59 C327 -59 292 -93 292 -142 C292 -184 322 -217 358 -217 C363 -217 370 -216 378 -214 C382 -213 385 -212 386 -212 L393 -212 L395 -211 C402 -211 409 -220 409 -229 C409 -262 367 -288 311 -289 L311 -344 Z " />
<glyph glyph-name="ncommaaccent" unicode="&#x146;" horiz-adv-x="596" d="M16 306 L19 306 C58 305 73 293 74 260 L74 112 C73 71 63 62 20 60 L19 60 L19 0 L295 0 L295 60 L292 60 C267 64 255 81 255 112 L255 265 C277 302 300 322 321 322 C342 322 355 304 355 276 L355 112 C355 82 345 67 320 60 L316 60 L316 0 L593 0 L593 60 L590 60 C552 61 540 74 539 112 L539 256 C539 313 527 355 506 376 C478 403 438 419 397 419 C344 419 295 396 258 354 C256 382 255 392 250 405 L246 405 C225 401 221 400 180 394 C167 392 100 380 16 366 L16 306 Z M245 -307 C333 -307 391 -253 391 -171 C391 -102 357 -59 302 -59 C258 -59 228 -89 228 -132 C228 -168 254 -198 287 -198 C292 -198 297 -197 303 -196 C316 -193 316 -193 317 -193 C326 -193 332 -199 332 -208 C332 -236 295 -257 245 -258 L245 -307 Z " />
<glyph glyph-name="Ncaron" unicode="&#x147;" horiz-adv-x="750" d="M650 -9 L650 492 C648 563 667 592 724 604 L731 604 L731 667 L491 667 L491 604 L495 604 C549 603 579 561 577 493 L577 287 L244 667 L25 667 L25 604 L29 604 C78 602 113 564 112 513 L112 176 C112 129 110 118 101 102 C88 79 61 62 38 62 L35 62 L31 62 L31 0 L267 0 L267 62 L261 62 L253 62 C234 61 210 77 198 99 C187 118 185 130 185 176 L185 444 L576 -9 L650 -9 Z M506 732 L605 898 L562 898 L398 802 L236 898 L192 898 L287 732 L506 732 Z " />
<glyph glyph-name="ncaron" unicode="&#x148;" horiz-adv-x="596" d="M16 306 L19 306 C58 305 73 293 74 260 L74 112 C73 71 63 62 20 60 L19 60 L19 0 L295 0 L295 60 L292 60 C267 64 255 81 255 112 L255 265 C277 302 300 322 321 322 C342 322 355 304 355 276 L355 112 C355 82 345 67 320 60 L316 60 L316 0 L593 0 L593 60 L590 60 C552 61 540 74 539 112 L539 256 C539 313 527 355 506 376 C478 403 438 419 397 419 C344 419 295 396 258 354 C256 382 255 392 250 405 L246 405 C225 401 221 400 180 394 C167 392 100 380 16 366 L16 306 Z M192 653 L147 653 L235 491 L389 491 L470 653 L421 653 L309 573 L192 653 Z " />
<glyph glyph-name="Omacron" unicode="&#x14c;" horiz-adv-x="790" d="M396 679 C295 679 208 647 148 589 C78 520 38 427 38 334 C38 227 83 125 157 64 C217 13 301 -14 396 -14 C505 -14 590 19 654 85 C718 151 752 237 752 330 C752 418 720 502 663 568 C596 644 511 679 396 679 L396 679 Z M394 605 C490 605 525 527 525 316 C525 214 516 158 492 115 C474 81 437 60 397 60 C351 60 317 84 294 134 C274 177 267 233 267 343 C267 530 304 605 394 605 L394 605 Z M218 826 L218 757 L572 757 L572 826 L218 826 Z " />
<glyph glyph-name="omacron" unicode="&#x14d;" horiz-adv-x="552" d="M273 419 C131 419 35 330 35 197 C35 139 56 87 93 51 C136 10 206 -16 275 -16 C418 -16 517 75 517 204 C517 261 500 308 467 343 C421 392 351 419 273 419 L273 419 Z M224 216 C225 299 227 309 238 333 C244 346 260 356 276 356 C291 356 306 347 314 333 C325 312 327 291 327 211 C327 142 325 115 320 93 C313 61 299 46 277 46 C243 46 226 81 225 157 L225 204 C224 209 224 214 224 215 L224 216 Z M114 530 L430 530 L430 593 L114 593 L114 530 Z " />
<glyph glyph-name="Ohungarumlaut" unicode="&#x150;" horiz-adv-x="790" d="M396 679 C295 679 208 647 148 589 C78 520 38 427 38 334 C38 227 83 125 157 64 C217 13 301 -14 396 -14 C505 -14 590 19 654 85 C718 151 752 237 752 330 C752 418 720 502 663 568 C596 644 511 679 396 679 L396 679 Z M394 605 C490 605 525 527 525 316 C525 214 516 158 492 115 C474 81 437 60 397 60 C351 60 317 84 294 134 C274 177 267 233 267 343 C267 530 304 605 394 605 L394 605 Z M263 734 L308 734 L530 889 L530 903 L362 903 L263 734 Z M479 734 L523 734 L746 889 L746 903 L577 903 L479 734 Z " />
<glyph glyph-name="ohungarumlaut" unicode="&#x151;" horiz-adv-x="552" d="M273 419 C131 419 35 330 35 197 C35 139 56 87 93 51 C136 10 206 -16 275 -16 C418 -16 517 75 517 204 C517 261 500 308 467 343 C421 392 351 419 273 419 L273 419 Z M224 216 C225 299 227 309 238 333 C244 346 260 356 276 356 C291 356 306 347 314 333 C325 312 327 291 327 211 C327 142 325 115 320 93 C313 61 299 46 277 46 C243 46 226 81 225 157 L225 204 C224 209 224 214 224 215 L224 216 Z M159 484 L208 484 L365 626 L365 639 L214 639 L159 484 Z M336 484 L386 484 L542 626 L542 639 L391 639 L336 484 Z " />
<glyph glyph-name="OE" unicode="&#x152;" horiz-adv-x="964" d="M939 221 L880 221 C853 119 807 72 728 68 L725 68 L712 69 L702 71 C701 71 697 71 693 72 C657 76 651 82 651 114 L651 147 L651 312 L700 312 C737 311 751 294 755 246 L756 236 L813 236 L813 459 L756 459 L755 449 C751 399 737 382 702 381 L651 381 L651 599 L729 599 C798 603 822 581 852 489 L913 489 L904 667 L491 667 L450 667 C336 667 299 664 256 652 C128 614 41 485 41 330 C41 208 98 97 190 45 C243 14 307 1 404 1 L433 1 L461 2 L489 2 L454 0 L937 0 L939 221 Z M457 165 C456 108 456 106 450 93 C443 81 422 72 400 72 C358 72 318 98 294 141 C270 183 258 246 258 324 C258 500 308 597 398 597 C440 597 457 576 457 524 L457 165 Z " />
<glyph glyph-name="oe" unicode="&#x153;" horiz-adv-x="773" d="M741 191 C742 195 742 202 742 203 C742 271 727 315 691 353 C652 395 594 419 534 419 C485 419 445 405 408 376 C366 405 319 419 266 419 C131 419 35 327 35 198 C35 141 53 93 87 57 C131 12 200 -16 270 -16 C324 -16 366 -2 410 30 C444 0 489 -16 539 -16 C608 -16 688 22 726 73 L677 107 C647 72 614 54 581 54 C554 54 526 70 513 93 C499 119 494 141 493 191 L741 191 Z M588 248 L493 248 C495 312 495 317 505 337 C511 348 526 356 540 356 C570 356 585 328 588 266 L588 248 Z M277 355 C294 355 311 345 319 330 C330 310 333 288 333 208 C333 142 331 115 326 93 C318 61 303 46 278 46 C255 46 239 60 229 90 C223 109 223 109 221 214 C222 298 223 307 235 331 C241 345 260 355 277 355 L277 355 Z " />
<glyph glyph-name="Racute" unicode="&#x154;" horiz-adv-x="712" d="M26 0 L377 0 L377 63 L371 63 C315 66 301 79 301 127 L301 287 L311 287 C353 288 374 283 389 269 C400 258 403 252 456 143 C504 43 508 34 532 0 L737 0 L737 63 L731 63 C698 64 668 98 621 189 C591 249 555 299 524 324 C592 349 639 413 639 484 C639 535 619 581 583 614 C550 644 514 657 457 663 C423 666 357 667 202 667 L25 667 L25 604 L37 604 C90 601 107 586 107 539 L107 127 C107 79 93 66 36 63 L26 63 L26 0 Z M301 595 C309 596 322 596 323 596 C407 596 438 565 438 478 C438 422 424 383 397 368 C382 359 363 356 329 356 C323 356 314 356 301 357 L301 595 Z M282 734 L327 734 L596 889 L596 903 L381 903 L282 734 Z " />
<glyph glyph-name="racute" unicode="&#x155;" horiz-adv-x="477" d="M16 313 L18 313 C60 311 73 299 74 260 L74 112 C73 71 62 61 20 60 L17 60 L17 0 L321 0 L321 60 L313 60 C269 61 257 72 256 112 L256 149 C256 226 263 275 276 287 C287 296 297 301 309 301 C322 301 334 295 346 283 C373 255 380 251 403 251 C443 251 471 283 471 330 C471 383 437 419 388 419 C332 419 286 386 249 318 C248 361 243 391 233 419 C108 393 70 385 16 372 L16 313 Z M201 484 L251 484 L454 626 L454 639 L256 639 L201 484 Z " />
<glyph glyph-name="Rcommaaccent" unicode="&#x156;" horiz-adv-x="712" d="M26 0 L377 0 L377 63 L371 63 C315 66 301 79 301 127 L301 287 L311 287 C353 288 374 283 389 269 C400 258 403 252 456 143 C504 43 508 34 532 0 L737 0 L737 63 L731 63 C698 64 668 98 621 189 C591 249 555 299 524 324 C592 349 639 413 639 484 C639 535 619 581 583 614 C550 644 514 657 457 663 C423 666 357 667 202 667 L25 667 L25 604 L37 604 C90 601 107 586 107 539 L107 127 C107 79 93 66 36 63 L26 63 L26 0 Z M301 595 C309 596 322 596 323 596 C407 596 438 565 438 478 C438 422 424 383 397 368 C382 359 363 356 329 356 C323 356 314 356 301 357 L301 595 Z M283 -344 C382 -344 449 -282 449 -187 C449 -108 411 -59 348 -59 C299 -59 264 -93 264 -142 C264 -184 294 -217 330 -217 C335 -217 342 -216 350 -214 C354 -213 357 -212 358 -212 L365 -212 L367 -211 C374 -211 381 -220 381 -229 C381 -262 339 -288 283 -289 L283 -344 Z " />
<glyph glyph-name="rcommaaccent" unicode="&#x157;" horiz-adv-x="477" d="M16 313 L18 313 C60 311 73 299 74 260 L74 112 C73 71 62 61 20 60 L17 60 L17 0 L321 0 L321 60 L313 60 C269 61 257 72 256 112 L256 149 C256 226 263 275 276 287 C287 296 297 301 309 301 C322 301 334 295 346 283 C373 255 380 251 403 251 C443 251 471 283 471 330 C471 383 437 419 388 419 C332 419 286 386 249 318 C248 361 243 391 233 419 C108 393 70 385 16 372 L16 313 Z M107 -307 C195 -307 253 -253 253 -171 C253 -102 219 -59 164 -59 C120 -59 90 -89 90 -132 C90 -168 116 -198 149 -198 C154 -198 159 -197 165 -196 C178 -193 178 -193 179 -193 C188 -193 194 -199 194 -208 C194 -236 157 -257 107 -258 L107 -307 Z " />
<glyph glyph-name="Rcaron" unicode="&#x158;" horiz-adv-x="712" d="M26 0 L377 0 L377 63 L371 63 C315 66 301 79 301 127 L301 287 L311 287 C353 288 374 283 389 269 C400 258 403 252 456 143 C504 43 508 34 532 0 L737 0 L737 63 L731 63 C698 64 668 98 621 189 C591 249 555 299 524 324 C592 349 639 413 639 484 C639 535 619 581 583 614 C550 644 514 657 457 663 C423 666 357 667 202 667 L25 667 L25 604 L37 604 C90 601 107 586 107 539 L107 127 C107 79 93 66 36 63 L26 63 L26 0 Z M301 595 C309 596 322 596 323 596 C407 596 438 565 438 478 C438 422 424 383 397 368 C382 359 363 356 329 356 C323 356 314 356 301 357 L301 595 Z M451 732 L549 898 L506 898 L343 802 L180 898 L137 898 L231 732 L451 732 Z " />
<glyph glyph-name="rcaron" unicode="&#x159;" horiz-adv-x="477" d="M16 313 L18 313 C60 311 73 299 74 260 L74 112 C73 71 62 61 20 60 L17 60 L17 0 L321 0 L321 60 L313 60 C269 61 257 72 256 112 L256 149 C256 226 263 275 276 287 C287 296 297 301 309 301 C322 301 334 295 346 283 C373 255 380 251 403 251 C443 251 471 283 471 330 C471 383 437 419 388 419 C332 419 286 386 249 318 C248 361 243 391 233 419 C108 393 70 385 16 372 L16 313 Z M110 653 L65 653 L154 491 L307 491 L389 653 L339 653 L227 573 L110 653 Z " />
<glyph glyph-name="Sacute" unicode="&#x15a;" horiz-adv-x="543" d="M54 13 L118 13 C122 35 125 48 132 64 C172 16 236 -14 302 -14 C419 -14 515 81 515 197 C515 302 455 370 305 437 C230 470 202 499 202 543 C202 584 231 612 273 612 C332 612 383 554 403 465 L463 465 L463 667 L401 667 C396 647 392 633 388 625 C354 659 302 679 252 679 C142 679 52 587 52 474 C52 413 70 369 112 329 C142 300 144 299 232 249 C302 209 306 206 317 198 C339 181 351 158 351 132 C351 90 319 60 275 60 C230 60 190 87 159 137 C141 165 131 192 118 245 L54 245 L54 13 Z M198 734 L242 734 L511 889 L511 903 L296 903 L198 734 Z " />
<glyph glyph-name="sacute" unicode="&#x15b;" horiz-adv-x="464" d="M41 -12 L89 -12 C94 0 98 5 107 12 L114 9 C182 -13 201 -17 246 -17 C358 -17 429 43 429 137 C429 183 408 227 376 247 C348 265 289 284 230 293 C182 300 161 312 161 332 C161 354 185 367 225 367 C294 367 337 343 354 293 L402 293 L402 416 L358 416 C351 405 348 401 340 394 C289 412 248 420 206 420 C108 420 38 361 38 278 C38 238 54 202 84 179 C115 155 152 142 249 121 C283 114 298 102 298 85 C298 60 263 42 216 42 C157 42 111 73 94 124 L41 124 L41 -12 Z M181 484 L230 484 L434 626 L434 639 L236 639 L181 484 Z " />
<glyph glyph-name="Scircumflex" unicode="&#x15c;" horiz-adv-x="543" d="M54 13 L118 13 C122 35 125 48 132 64 C172 16 236 -14 302 -14 C419 -14 515 81 515 197 C515 302 455 370 305 437 C230 470 202 499 202 543 C202 584 231 612 273 612 C332 612 383 554 403 465 L463 465 L463 667 L401 667 C396 647 392 633 388 625 C354 659 302 679 252 679 C142 679 52 587 52 474 C52 413 70 369 112 329 C142 300 144 299 232 249 C302 209 306 206 317 198 C339 181 351 158 351 132 C351 90 319 60 275 60 C230 60 190 87 159 137 C141 165 131 192 118 245 L54 245 L54 13 Z M173 898 L79 732 L122 732 L284 828 L448 732 L491 732 L392 898 L173 898 Z " />
<glyph glyph-name="scircumflex" unicode="&#x15d;" horiz-adv-x="464" d="M41 -12 L89 -12 C94 0 98 5 107 12 L114 9 C182 -13 201 -17 246 -17 C358 -17 429 43 429 137 C429 183 408 227 376 247 C348 265 289 284 230 293 C182 300 161 312 161 332 C161 354 185 367 225 367 C294 367 337 343 354 293 L402 293 L402 416 L358 416 C351 405 348 401 340 394 C289 412 248 420 206 420 C108 420 38 361 38 278 C38 238 54 202 84 179 C115 155 152 142 249 121 C283 114 298 102 298 85 C298 60 263 42 216 42 C157 42 111 73 94 124 L41 124 L41 -12 Z M357 481 L406 481 L325 644 L172 644 L83 481 L128 481 L250 561 L357 481 Z " />
<glyph glyph-name="Scedilla" unicode="&#x15e;" horiz-adv-x="543" d="M463 465 L463 667 L401 667 C396 647 392 633 388 625 C354 659 302 679 252 679 C142 679 52 587 52 474 C52 413 70 369 112 329 C142 300 144 299 232 249 C302 209 306 206 317 198 C339 181 351 158 351 132 C351 90 319 60 275 60 C230 60 190 87 159 137 C141 165 131 192 118 245 L54 245 L54 13 L118 13 C122 35 125 48 132 64 C158 30 199 6 252 -7 C247 -58 241 -92 232 -116 C257 -117 274 -133 274 -153 C274 -172 263 -180 237 -180 C212 -180 194 -177 165 -170 C162 -198 162 -202 157 -228 C179 -236 204 -240 233 -240 C335 -240 395 -202 395 -136 C395 -84 362 -50 306 -44 C309 -27 310 -20 311 -13 C428 -7 515 84 515 197 C515 302 455 371 305 437 C230 470 202 499 202 543 C202 584 231 612 273 612 C332 612 383 554 403 465 L463 465 Z " />
<glyph glyph-name="scedilla" unicode="&#x15f;" horiz-adv-x="464" d="M402 293 L402 416 L358 416 C351 405 348 401 340 394 C289 412 249 420 206 420 C108 420 38 361 38 278 C38 238 54 203 84 179 C115 155 151 142 249 121 C283 114 298 103 298 85 C298 60 263 42 216 42 C157 42 111 73 94 124 L41 124 L41 -12 L89 -12 C94 0 98 5 107 11 C116 9 119 8 147 -2 C168 -8 191 -13 215 -15 C211 -59 206 -85 200 -105 C219 -106 232 -119 232 -138 C232 -155 224 -162 204 -162 C186 -162 172 -160 150 -153 C148 -178 148 -182 144 -205 C160 -212 179 -216 202 -216 C278 -216 323 -181 323 -123 C323 -76 298 -45 256 -40 C258 -28 259 -23 260 -16 C367 -10 429 46 429 137 C429 183 408 227 376 247 C348 266 289 284 230 293 C182 300 161 312 161 332 C161 354 185 367 225 367 C294 367 337 343 354 293 L402 293 Z " />
<glyph glyph-name="Scaron" unicode="&#x160;" horiz-adv-x="543" d="M54 13 L118 13 C122 35 125 48 132 64 C172 16 236 -14 302 -14 C419 -14 515 81 515 197 C515 302 455 370 305 437 C230 470 202 499 202 543 C202 584 231 612 273 612 C332 612 383 554 403 465 L463 465 L463 667 L401 667 C396 647 392 633 388 625 C354 659 302 679 252 679 C142 679 52 587 52 474 C52 413 70 369 112 329 C142 300 144 299 232 249 C302 209 306 206 317 198 C339 181 351 158 351 132 C351 90 319 60 275 60 C230 60 190 87 159 137 C141 165 131 192 118 245 L54 245 L54 13 Z M391 732 L490 898 L447 898 L283 802 L121 898 L77 898 L172 732 L391 732 Z " />
<glyph glyph-name="scaron" unicode="&#x161;" horiz-adv-x="464" d="M41 -12 L89 -12 C94 0 98 5 107 12 L114 9 C182 -13 201 -17 246 -17 C358 -17 429 43 429 137 C429 183 408 227 376 247 C348 265 289 284 230 293 C182 300 161 312 161 332 C161 354 185 367 225 367 C294 367 337 343 354 293 L402 293 L402 416 L358 416 C351 405 348 401 340 394 C289 412 248 420 206 420 C108 420 38 361 38 278 C38 238 54 202 84 179 C115 155 152 142 249 121 C283 114 298 102 298 85 C298 60 263 42 216 42 C157 42 111 73 94 124 L41 124 L41 -12 Z M120 653 L74 653 L163 491 L316 491 L398 653 L349 653 L236 573 L120 653 Z " />
<glyph glyph-name="Tcommaaccent" unicode="&#x162;" horiz-adv-x="664" d="M74 470 C88 572 111 597 192 598 L233 598 L233 127 C233 79 218 66 162 63 L152 63 L152 0 L510 0 L510 63 L498 63 C441 66 427 79 427 127 L427 598 L467 598 C541 598 566 571 590 470 L651 470 L651 667 L13 667 L14 470 L74 470 Z M266 -344 C365 -344 432 -282 432 -187 C432 -108 394 -59 331 -59 C282 -59 247 -93 247 -142 C247 -184 277 -217 313 -217 C318 -217 325 -216 333 -214 C337 -213 340 -212 341 -212 L348 -212 L350 -211 C357 -211 364 -220 364 -229 C364 -262 322 -288 266 -289 L266 -344 Z " />
<glyph glyph-name="tcommaaccent" unicode="&#x163;" horiz-adv-x="357" d="M349 341 L349 403 L234 403 L234 538 L176 538 C164 458 101 402 23 402 C20 402 13 402 6 403 L6 341 L62 341 L62 105 C62 27 111 -16 199 -16 C281 -16 341 21 363 85 L309 102 C296 72 284 62 263 62 C238 62 234 73 234 141 L234 341 L349 341 Z M121 -307 C209 -307 267 -253 267 -171 C267 -102 233 -59 178 -59 C134 -59 104 -89 104 -132 C104 -168 130 -198 163 -198 C168 -198 173 -197 179 -196 C192 -193 192 -193 193 -193 C202 -193 208 -199 208 -208 C208 -236 171 -257 121 -258 L121 -307 Z " />
<glyph glyph-name="Tcaron" unicode="&#x164;" horiz-adv-x="664" d="M74 470 C88 572 111 597 192 598 L233 598 L233 127 C233 79 218 66 162 63 L152 63 L152 0 L510 0 L510 63 L498 63 C441 66 427 79 427 127 L427 598 L467 598 C541 598 566 571 590 470 L651 470 L651 667 L13 667 L14 470 L74 470 Z M440 732 L538 898 L495 898 L332 802 L169 898 L126 898 L220 732 L440 732 Z " />
<glyph glyph-name="tcaron" unicode="&#x165;" horiz-adv-x="453" d="M349 341 L349 403 L234 403 L234 538 L176 538 C164 458 101 402 23 402 C20 402 13 402 6 403 L6 341 L62 341 L62 105 C62 27 111 -16 199 -16 C281 -16 341 21 363 85 L309 102 C296 72 284 62 263 62 C238 62 234 73 234 141 L234 341 L349 341 Z M293 465 C381 465 439 519 439 600 C439 670 405 713 350 713 C306 713 276 683 276 640 C276 604 302 574 335 574 C340 574 345 575 351 576 C364 579 364 579 365 579 C374 579 380 573 380 564 C380 536 343 515 293 514 L293 465 Z " />
<glyph glyph-name="utilde" unicode="&#x169;" horiz-adv-x="583" d="M518 403 L288 403 L288 343 L290 343 C326 342 336 330 337 291 L337 120 C333 116 333 116 316 101 C304 89 288 81 278 81 C257 81 247 102 247 144 L247 403 L6 403 L6 343 L8 343 C51 341 66 328 66 291 L66 132 C66 87 70 69 83 45 C105 7 150 -16 201 -16 C253 -16 297 5 337 49 L336 4 L334 -8 C334 -8 333 -12 333 -16 L338 -16 C381 -8 490 1 550 1 C554 1 563 1 576 0 L576 60 L573 60 C531 61 519 72 518 112 L518 403 Z M189 485 C197 506 206 512 225 512 C240 512 263 508 285 502 C332 489 349 486 369 486 C426 486 462 540 462 623 L462 632 L417 632 C414 606 401 594 375 594 C361 594 347 596 334 599 C263 619 263 619 243 619 C212 619 177 600 164 576 C152 555 148 534 147 485 L189 485 Z " />
<glyph glyph-name="Umacron" unicode="&#x16a;" horiz-adv-x="737" d="M468 667 L468 604 L474 605 C529 606 567 566 565 509 L565 286 C565 215 561 183 550 155 C528 99 477 64 417 64 C367 64 325 88 301 131 C282 164 276 195 276 262 L276 539 C276 586 293 601 348 604 L358 604 L358 667 L16 667 L16 604 L21 604 C76 602 94 586 94 539 L94 278 C94 189 100 161 129 110 C173 31 260 -14 368 -14 C472 -14 561 29 600 99 C630 152 638 193 638 285 L638 498 C637 569 651 588 717 605 L721 604 L721 667 L468 667 Z M202 826 L202 757 L556 757 L556 826 L202 826 Z " />
<glyph glyph-name="umacron" unicode="&#x16b;" horiz-adv-x="583" d="M518 403 L288 403 L288 343 L290 343 C326 342 336 330 337 291 L337 120 C333 116 333 116 316 101 C304 89 288 81 278 81 C257 81 247 102 247 144 L247 403 L6 403 L6 343 L8 343 C51 341 66 328 66 291 L66 132 C66 87 70 69 83 45 C105 7 150 -16 201 -16 C253 -16 297 5 337 49 L336 4 L334 -8 C334 -8 333 -12 333 -16 L338 -16 C381 -8 490 1 550 1 C554 1 563 1 576 0 L576 60 L573 60 C531 61 519 72 518 112 L518 403 Z M139 530 L455 530 L455 593 L139 593 L139 530 Z " />
<glyph glyph-name="ubreve" unicode="&#x16d;" horiz-adv-x="583" d="M518 403 L288 403 L288 343 L290 343 C326 342 336 330 337 291 L337 120 C333 116 333 116 316 101 C304 89 288 81 278 81 C257 81 247 102 247 144 L247 403 L6 403 L6 343 L8 343 C51 341 66 328 66 291 L66 132 C66 87 70 69 83 45 C105 7 150 -16 201 -16 C253 -16 297 5 337 49 L336 4 L334 -8 C334 -8 333 -12 333 -16 L338 -16 C381 -8 490 1 550 1 C554 1 563 1 576 0 L576 60 L573 60 C531 61 519 72 518 112 L518 403 Z M135 650 L135 644 C135 603 152 559 182 525 C212 491 248 474 292 474 C379 474 447 551 447 650 L410 650 C392 594 354 566 295 566 C234 566 191 596 174 650 L135 650 Z " />
<glyph glyph-name="Uring" unicode="&#x16e;" horiz-adv-x="737" d="M468 667 L468 604 L474 605 C529 606 567 566 565 509 L565 286 C565 215 561 183 550 155 C528 99 477 64 417 64 C367 64 325 88 301 131 C282 164 276 195 276 262 L276 539 C276 586 293 601 348 604 L358 604 L358 667 L16 667 L16 604 L21 604 C76 602 94 586 94 539 L94 278 C94 189 100 161 129 110 C173 31 260 -14 368 -14 C472 -14 561 29 600 99 C630 152 638 193 638 285 L638 498 C637 569 651 588 717 605 L721 604 L721 667 L468 667 Z M404 935 C339 935 285 881 285 817 C285 749 337 696 404 696 C470 696 523 750 523 816 C523 882 470 935 404 935 L404 935 Z M406 877 C438 877 465 849 465 816 C465 782 437 754 404 754 C371 754 344 781 344 815 C344 849 371 877 406 877 L406 877 Z " />
<glyph glyph-name="uring" unicode="&#x16f;" horiz-adv-x="583" d="M518 403 L288 403 L288 343 L290 343 C326 342 336 330 337 291 L337 120 C333 116 333 116 316 101 C304 89 288 81 278 81 C257 81 247 102 247 144 L247 403 L6 403 L6 343 L8 343 C51 341 66 328 66 291 L66 132 C66 87 70 69 83 45 C105 7 150 -16 201 -16 C253 -16 297 5 337 49 L336 4 L334 -8 C334 -8 333 -12 333 -16 L338 -16 C381 -8 490 1 550 1 C554 1 563 1 576 0 L576 60 L573 60 C531 61 519 72 518 112 L518 403 Z M302 671 C243 671 195 623 195 567 C195 506 242 459 302 459 C360 459 408 507 408 565 C408 624 361 671 302 671 L302 671 Z M302 619 C331 619 356 594 356 565 C356 536 331 511 301 511 C271 511 247 535 247 565 C247 595 272 619 302 619 L302 619 Z " />
<glyph glyph-name="Uhungarumlaut" unicode="&#x170;" horiz-adv-x="737" d="M468 667 L468 604 L474 605 C529 606 567 566 565 509 L565 286 C565 215 561 183 550 155 C528 99 477 64 417 64 C367 64 325 88 301 131 C282 164 276 195 276 262 L276 539 C276 586 293 601 348 604 L358 604 L358 667 L16 667 L16 604 L21 604 C76 602 94 586 94 539 L94 278 C94 189 100 161 129 110 C173 31 260 -14 368 -14 C472 -14 561 29 600 99 C630 152 638 193 638 285 L638 498 C637 569 651 588 717 605 L721 604 L721 667 L468 667 Z M243 734 L288 734 L510 889 L510 903 L342 903 L243 734 Z M459 734 L503 734 L726 889 L726 903 L557 903 L459 734 Z " />
<glyph glyph-name="uhungarumlaut" unicode="&#x171;" horiz-adv-x="583" d="M518 403 L288 403 L288 343 L290 343 C326 342 336 330 337 291 L337 120 C333 116 333 116 316 101 C304 89 288 81 278 81 C257 81 247 102 247 144 L247 403 L6 403 L6 343 L8 343 C51 341 66 328 66 291 L66 132 C66 87 70 69 83 45 C105 7 150 -16 201 -16 C253 -16 297 5 337 49 L336 4 L334 -8 C334 -8 333 -12 333 -16 L338 -16 C381 -8 490 1 550 1 C554 1 563 1 576 0 L576 60 L573 60 C531 61 519 72 518 112 L518 403 Z M157 484 L206 484 L363 626 L363 639 L212 639 L157 484 Z M334 484 L384 484 L540 626 L540 639 L389 639 L334 484 Z " />
<glyph glyph-name="Uogonek" unicode="&#x172;" horiz-adv-x="737" d="M638 498 C637 569 651 588 717 605 L721 604 L721 667 L468 667 L468 604 L474 605 C529 606 567 566 565 509 L565 286 C565 215 561 183 550 155 C528 99 477 64 417 64 C367 64 325 88 301 131 C282 164 276 195 276 262 L276 539 C276 586 293 601 348 604 L358 604 L358 667 L16 667 L16 604 L21 604 C76 602 94 586 94 539 L94 278 C94 189 100 161 129 110 C173 31 260 -14 368 -14 C393 -14 413 -12 436 -7 C384 -39 356 -80 356 -126 C356 -183 407 -225 476 -225 C515 -225 545 -214 587 -185 L568 -150 C553 -158 545 -160 532 -160 C497 -160 472 -133 472 -96 C472 -55 488 -25 542 36 C609 82 641 166 638 285 L638 498 Z " />
<glyph glyph-name="uogonek" unicode="&#x173;" horiz-adv-x="583" d="M498 -2 L553 1 C555 1 564 1 576 0 L576 60 L573 60 C531 61 519 72 518 112 L518 403 L288 403 L288 343 L290 343 C326 342 336 330 337 291 L337 120 C333 116 333 116 316 101 C304 89 288 81 278 81 C257 81 247 102 247 144 L247 403 L6 403 L6 343 L8 343 C51 341 66 328 66 291 L66 132 C66 87 70 69 83 45 C105 7 150 -16 201 -16 C253 -16 297 5 337 49 L336 4 L334 -8 C334 -8 333 -12 333 -16 L338 -16 C367 -10 388 -8 415 -6 L422 -6 C379 -37 359 -71 359 -110 C359 -164 405 -204 468 -204 C503 -204 531 -194 568 -167 L552 -136 C535 -143 526 -145 514 -145 C484 -145 464 -120 464 -84 C464 -55 474 -29 494 -2 L498 -2 Z " />
<glyph glyph-name="Wcircumflex" unicode="&#x174;" horiz-adv-x="897" d="M689 -13 L812 460 C843 576 860 604 904 605 L909 604 L909 667 L700 667 L700 604 L705 604 C738 604 761 582 761 550 C761 543 758 520 756 512 L691 262 L538 667 L453 667 L327 262 L245 537 C242 548 240 559 240 570 C240 594 254 605 283 605 L288 604 L288 667 L-13 667 L-13 604 L-9 605 L-4 605 L-3 605 C35 602 43 592 66 517 L220 -13 L309 -13 L444 409 L603 -13 L689 -13 Z M377 898 L283 732 L326 732 L488 828 L652 732 L695 732 L596 898 L377 898 Z " />
<glyph glyph-name="Ycircumflex" unicode="&#x176;" horiz-adv-x="635" d="M426 605 L431 605 C466 605 484 591 484 566 C484 552 479 534 471 518 C471 518 444 468 389 368 L292 529 C279 551 273 565 273 576 C273 595 287 605 317 605 L322 605 L322 667 L-11 667 L-11 605 L-6 605 C34 602 54 584 86 524 L220 278 L220 127 C220 79 206 66 149 63 L139 63 L139 0 L496 0 L496 63 L486 63 C430 66 417 78 417 127 L417 290 L526 484 L535 498 C537 502 543 511 550 524 C566 551 582 572 598 587 C609 597 627 605 640 605 L643 605 L646 605 L646 667 L426 667 L426 605 Z M221 898 L127 732 L171 732 L333 828 L496 732 L539 732 L441 898 L221 898 Z " />
<glyph glyph-name="ycircumflex" unicode="&#x177;" horiz-adv-x="513" d="M-6 403 L-6 344 L1 343 C20 341 30 330 51 291 C54 286 57 280 60 274 L231 -20 L227 -29 C197 -83 182 -94 106 -110 C59 -121 39 -140 39 -176 C39 -219 73 -252 118 -252 C171 -252 208 -218 248 -130 C254 -117 259 -106 262 -101 L269 -86 L410 215 C414 224 417 231 418 232 L422 240 C433 261 434 265 440 278 C462 325 477 341 498 343 L507 344 L507 403 L342 403 L342 344 L346 344 L351 344 L352 344 C367 344 381 332 381 318 C381 310 381 310 364 273 L310 155 L240 291 C227 315 226 318 226 325 C226 336 235 342 252 343 L260 344 L260 403 L-6 403 Z M376 481 L425 481 L344 644 L191 644 L101 481 L147 481 L269 561 L376 481 Z " />
<glyph glyph-name="Ydieresis" unicode="&#x178;" horiz-adv-x="635" d="M426 605 L431 605 C466 605 484 591 484 566 C484 552 479 534 471 518 C471 518 444 468 389 368 L292 529 C279 551 273 565 273 576 C273 595 287 605 317 605 L322 605 L322 667 L-11 667 L-11 605 L-6 605 C34 602 54 584 86 524 L220 278 L220 127 C220 79 206 66 149 63 L139 63 L139 0 L496 0 L496 63 L486 63 C430 66 417 78 417 127 L417 290 L526 484 L535 498 C537 502 543 511 550 524 C566 551 582 572 598 587 C609 597 627 605 640 605 L643 605 L646 605 L646 667 L426 667 L426 605 Z M204 897 C158 897 120 859 120 814 C120 767 157 729 204 729 C250 729 288 767 288 813 C288 860 251 897 204 897 L204 897 Z M462 897 C416 897 378 859 378 814 C378 767 415 729 462 729 C508 729 546 767 546 813 C546 860 509 897 462 897 L462 897 Z " />
<glyph glyph-name="Zacute" unicode="&#x179;" horiz-adv-x="658" d="M33 0 L617 0 L626 205 L565 205 C532 98 490 65 391 68 L258 68 L605 617 L605 667 L56 667 L49 483 L106 483 L108 488 L111 498 C136 581 167 598 296 599 L375 599 L33 50 L33 0 Z M281 734 L326 734 L595 889 L595 903 L380 903 L281 734 Z " />
<glyph glyph-name="zacute" unicode="&#x17a;" horiz-adv-x="483" d="M29 0 L446 0 L459 140 L401 140 C373 77 358 60 329 61 L249 61 L452 349 L452 403 L53 403 L44 276 L103 276 C131 339 133 342 159 342 L234 342 L29 48 L29 0 Z M208 484 L257 484 L460 626 L460 639 L263 639 L208 484 Z " />
<glyph glyph-name="Zdotaccent" unicode="&#x17b;" horiz-adv-x="658" d="M33 0 L617 0 L626 205 L565 205 C532 98 490 65 391 68 L258 68 L605 617 L605 667 L56 667 L49 483 L106 483 L108 488 L111 498 C136 581 167 598 296 599 L375 599 L33 50 L33 0 Z M350 897 C304 897 266 859 266 814 C266 767 303 729 350 729 C396 729 434 767 434 813 C434 860 397 897 350 897 L350 897 Z " />
<glyph glyph-name="zdotaccent" unicode="&#x17c;" horiz-adv-x="483" d="M29 0 L446 0 L459 140 L401 140 C373 77 358 60 329 61 L249 61 L452 349 L452 403 L53 403 L44 276 L103 276 C131 339 133 342 159 342 L234 342 L29 48 L29 0 Z M265 642 C223 642 188 607 188 566 C188 523 222 488 265 488 C308 488 342 523 342 565 C342 608 308 642 265 642 L265 642 Z " />
<glyph glyph-name="Zcaron" unicode="&#x17d;" horiz-adv-x="658" d="M33 0 L617 0 L626 205 L565 205 C532 98 490 65 391 68 L258 68 L605 617 L605 667 L56 667 L49 483 L106 483 L108 488 L111 498 C136 581 167 598 296 599 L375 599 L33 50 L33 0 Z M454 732 L552 898 L509 898 L345 802 L183 898 L140 898 L234 732 L454 732 Z " />
<glyph glyph-name="zcaron" unicode="&#x17e;" horiz-adv-x="483" d="M29 0 L446 0 L459 140 L401 140 C373 77 358 60 329 61 L249 61 L452 349 L452 403 L53 403 L44 276 L103 276 C131 339 133 342 159 342 L234 342 L29 48 L29 0 Z M140 653 L95 653 L183 491 L337 491 L418 653 L369 653 L256 573 L140 653 Z " />
<glyph glyph-name="florin" unicode="&#x192;" horiz-adv-x="528" d="M372 447 C376 472 377 483 377 494 C377 507 375 525 372 547 C369 566 367 585 367 598 C367 630 384 655 405 655 C411 655 416 651 416 645 C416 641 414 635 412 629 C407 618 405 608 405 599 C405 573 424 554 450 554 C480 554 503 580 503 614 C503 654 473 678 422 678 C357 678 319 646 285 563 C246 464 232 451 164 447 L152 380 L213 380 L212 370 L194 266 C162 99 150 32 150 16 C150 -29 154 -139 156 -147 C157 -154 158 -159 158 -162 C158 -174 145 -188 134 -188 C128 -188 123 -184 122 -178 C121 -174 120 -170 119 -169 L119 -168 C122 -157 122 -157 122 -151 C122 -127 103 -110 75 -110 C47 -110 24 -132 24 -160 C24 -193 58 -218 101 -218 C148 -218 202 -192 227 -157 C257 -115 274 -61 300 73 L360 380 L428 380 L440 447 L372 447 Z " />
<glyph glyph-name="uni01CD" unicode="&#x1cd;" horiz-adv-x="620" d="M633 0 L633 63 L628 63 C586 67 568 87 535 167 L340 679 L276 679 L91 182 C66 110 29 66 -8 63 L-13 63 L-13 0 L201 0 L201 63 L195 63 C156 63 136 75 136 98 C136 107 140 123 146 141 L154 164 L338 164 L349 134 C360 102 361 100 361 91 C361 72 344 63 307 63 L302 63 L302 0 L633 0 Z M314 229 L177 229 L243 407 L314 229 Z M418 732 L516 898 L473 898 L309 802 L147 898 L104 898 L198 732 L418 732 Z " />
<glyph glyph-name="uni01CE" unicode="&#x1ce;" horiz-adv-x="559" d="M515 94 C512 79 504 71 493 71 C477 71 470 81 470 102 L470 295 C470 339 466 354 446 376 C419 407 374 419 289 419 C212 419 164 412 122 393 C73 372 47 341 47 307 C47 273 73 249 110 249 C127 249 143 254 157 263 C168 272 174 283 176 305 C178 323 183 336 189 341 C198 349 219 355 237 355 C275 355 289 341 289 306 L289 266 L282 264 C180 235 127 209 72 162 C49 142 35 113 35 84 C35 25 79 -9 153 -9 C211 -9 259 7 300 39 C322 7 363 -9 422 -9 C508 -9 555 27 558 94 L515 94 Z M289 203 L289 99 C277 82 262 73 246 73 C222 73 203 93 203 118 C203 145 234 180 270 194 L283 199 L289 203 Z M170 653 L124 653 L213 491 L366 491 L448 653 L399 653 L286 573 L170 653 Z " />
<glyph glyph-name="uni01D3" unicode="&#x1d3;" horiz-adv-x="737" d="M468 667 L468 604 L474 605 C529 606 567 566 565 509 L565 286 C565 215 561 183 550 155 C528 99 477 64 417 64 C367 64 325 88 301 131 C282 164 276 195 276 262 L276 539 C276 586 293 601 348 604 L358 604 L358 667 L16 667 L16 604 L21 604 C76 602 94 586 94 539 L94 278 C94 189 100 161 129 110 C173 31 260 -14 368 -14 C472 -14 561 29 600 99 C630 152 638 193 638 285 L638 498 C637 569 651 588 717 605 L721 604 L721 667 L468 667 Z M501 732 L600 898 L557 898 L393 802 L231 898 L187 898 L282 732 L501 732 Z " />
<glyph glyph-name="uni01D4" unicode="&#x1d4;" horiz-adv-x="583" d="M518 403 L288 403 L288 343 L290 343 C326 342 336 330 337 291 L337 120 C333 116 333 116 316 101 C304 89 288 81 278 81 C257 81 247 102 247 144 L247 403 L6 403 L6 343 L8 343 C51 341 66 328 66 291 L66 132 C66 87 70 69 83 45 C105 7 150 -16 201 -16 C253 -16 297 5 337 49 L336 4 L334 -8 C334 -8 333 -12 333 -16 L338 -16 C381 -8 490 1 550 1 C554 1 563 1 576 0 L576 60 L573 60 C531 61 519 72 518 112 L518 403 Z M183 653 L138 653 L226 491 L380 491 L461 653 L412 653 L299 573 L183 653 Z " />
<glyph glyph-name="Gcaron" unicode="&#x1e6;" horiz-adv-x="752" d="M434 314 L434 252 L439 251 C483 243 500 228 502 194 L502 170 C502 134 496 112 484 95 C467 72 434 59 394 59 C346 59 310 77 291 113 C268 154 261 200 261 300 C261 425 271 488 298 537 C320 576 361 598 412 598 C496 598 549 550 586 441 L647 441 L640 676 L580 676 C578 650 573 631 561 608 C502 656 440 679 366 679 C184 679 37 522 37 327 C37 136 179 -14 362 -14 C411 -14 440 -10 525 8 C583 20 632 26 672 26 C675 26 681 26 692 25 L692 182 C692 225 698 236 728 250 L736 252 L736 314 L434 314 Z M490 732 L588 898 L545 898 L382 802 L219 898 L176 898 L270 732 L490 732 Z " />
<glyph glyph-name="gcaron" unicode="&#x1e7;" horiz-adv-x="526" d="M273 -72 L310 -71 L350 -71 L356 -71 C396 -71 414 -84 414 -111 C414 -160 352 -190 250 -190 C177 -190 136 -171 136 -137 L136 -136 C134 -125 132 -119 131 -112 C130 -109 130 -108 129 -107 C109 -97 97 -94 82 -94 C55 -94 31 -120 31 -150 C31 -217 101 -250 242 -250 C326 -250 383 -239 428 -213 C484 -180 514 -129 514 -64 C514 -12 493 28 455 50 C425 67 393 73 331 73 C313 73 299 73 284 72 L204 71 C180 71 168 79 168 94 C168 119 195 132 249 132 C379 130 459 187 459 280 C459 304 455 320 443 342 C450 349 452 350 458 350 C466 350 471 348 480 340 C492 331 498 328 507 328 C528 328 540 344 540 369 C540 402 523 420 493 420 C472 420 453 411 420 385 L411 378 C372 407 331 418 264 418 C121 418 41 368 41 279 C41 242 58 204 84 181 C102 165 118 157 153 147 C82 127 53 96 53 41 C53 -39 110 -72 248 -72 L273 -72 Z M252 358 C278 358 291 332 291 281 C291 222 280 197 255 197 C228 197 214 227 214 283 C214 331 228 358 252 358 L252 358 Z M146 653 L101 653 L189 491 L343 491 L424 653 L375 653 L262 573 L146 653 Z " />
<glyph glyph-name="Scommaaccent" unicode="&#x218;" horiz-adv-x="543" d="M54 13 L118 13 C122 35 125 48 132 64 C172 16 236 -14 302 -14 C419 -14 515 81 515 197 C515 302 455 370 305 437 C230 470 202 499 202 543 C202 584 231 612 273 612 C332 612 383 554 403 465 L463 465 L463 667 L401 667 C396 647 392 633 388 625 C354 659 302 679 252 679 C142 679 52 587 52 474 C52 413 70 369 112 329 C142 300 144 299 232 249 C302 209 306 206 317 198 C339 181 351 158 351 132 C351 90 319 60 275 60 C230 60 190 87 159 137 C141 165 131 192 118 245 L54 245 L54 13 Z M213 -344 C312 -344 379 -282 379 -187 C379 -108 341 -59 278 -59 C229 -59 194 -93 194 -142 C194 -184 224 -217 260 -217 C265 -217 272 -216 280 -214 C284 -213 287 -212 288 -212 L295 -212 L297 -211 C304 -211 311 -220 311 -229 C311 -262 269 -288 213 -289 L213 -344 Z " />
<glyph glyph-name="scommaaccent" unicode="&#x219;" horiz-adv-x="464" d="M41 -12 L89 -12 C94 0 98 5 107 12 L114 9 C182 -13 201 -17 246 -17 C358 -17 429 43 429 137 C429 183 408 227 376 247 C348 265 289 284 230 293 C182 300 161 312 161 332 C161 354 185 367 225 367 C294 367 337 343 354 293 L402 293 L402 416 L358 416 C351 405 348 401 340 394 C289 412 248 420 206 420 C108 420 38 361 38 278 C38 238 54 202 84 179 C115 155 152 142 249 121 C283 114 298 102 298 85 C298 60 263 42 216 42 C157 42 111 73 94 124 L41 124 L41 -12 Z M171 -307 C259 -307 317 -253 317 -171 C317 -102 283 -59 228 -59 C184 -59 154 -89 154 -132 C154 -168 180 -198 213 -198 C218 -198 223 -197 229 -196 C242 -193 242 -193 243 -193 C252 -193 258 -199 258 -208 C258 -236 221 -257 171 -258 L171 -307 Z " />
<glyph glyph-name="uni021A" unicode="&#x21a;" horiz-adv-x="664" d="M74 470 C88 572 111 597 192 598 L233 598 L233 127 C233 79 218 66 162 63 L152 63 L152 0 L510 0 L510 63 L498 63 C441 66 427 79 427 127 L427 598 L467 598 C541 598 566 571 590 470 L651 470 L651 667 L13 667 L14 470 L74 470 Z M266 -344 C365 -344 432 -282 432 -187 C432 -108 394 -59 331 -59 C282 -59 247 -93 247 -142 C247 -184 277 -217 313 -217 C318 -217 325 -216 333 -214 C337 -213 340 -212 341 -212 L348 -212 L350 -211 C357 -211 364 -220 364 -229 C364 -262 322 -288 266 -289 L266 -344 Z " />
<glyph glyph-name="uni021B" unicode="&#x21b;" horiz-adv-x="357" d="M349 341 L349 403 L234 403 L234 538 L176 538 C164 458 101 402 23 402 C20 402 13 402 6 403 L6 341 L62 341 L62 105 C62 27 111 -16 199 -16 C281 -16 341 21 363 85 L309 102 C296 72 284 62 263 62 C238 62 234 73 234 141 L234 341 L349 341 Z M121 -307 C209 -307 267 -253 267 -171 C267 -102 233 -59 178 -59 C134 -59 104 -89 104 -132 C104 -168 130 -198 163 -198 C168 -198 173 -197 179 -196 C192 -193 192 -193 193 -193 C202 -193 208 -199 208 -208 C208 -236 171 -257 121 -258 L121 -307 Z " />
<glyph glyph-name="afii57929" unicode="&#x2bc;" horiz-adv-x="339" d="M70 307 C105 307 134 314 166 331 C237 367 275 435 275 525 C275 622 231 682 158 682 C101 682 61 641 61 581 C61 529 94 490 137 490 C143 490 150 491 156 493 C169 497 169 497 174 497 C186 497 192 490 192 476 C192 422 139 378 70 374 L70 307 Z " />
<glyph glyph-name="circumflex" unicode="&#x2c6;" horiz-adv-x="491" d="M358 481 L408 481 L327 644 L174 644 L84 481 L129 481 L251 561 L358 481 Z " />
<glyph glyph-name="caron" unicode="&#x2c7;" horiz-adv-x="491" d="M129 653 L84 653 L173 491 L326 491 L408 653 L358 653 L246 573 L129 653 Z " />
<glyph glyph-name="uni02C9" unicode="&#x2c9;" horiz-adv-x="383" d="M33 530 L349 530 L349 593 L33 593 L33 530 Z " />
<glyph glyph-name="breve" unicode="&#x2d8;" horiz-adv-x="491" d="M83 650 L83 644 C83 603 101 559 130 525 C160 491 196 474 240 474 C327 474 395 551 395 650 L358 650 C340 594 302 566 243 566 C182 566 139 596 122 650 L83 650 Z " />
<glyph glyph-name="dotaccent" unicode="&#x2d9;" horiz-adv-x="483" d="M241 642 C199 642 164 607 164 566 C164 523 198 488 241 488 C284 488 318 523 318 565 C318 608 284 642 241 642 L241 642 Z " />
<glyph glyph-name="ring" unicode="&#x2da;" horiz-adv-x="412" d="M206 671 C148 671 100 623 100 567 C100 506 147 459 206 459 C264 459 312 507 312 565 C312 624 265 671 206 671 L206 671 Z M207 619 C236 619 260 594 260 565 C260 536 235 511 205 511 C176 511 152 535 152 565 C152 595 176 619 207 619 L207 619 Z " />
<glyph glyph-name="ogonek" unicode="&#x2db;" horiz-adv-x="500" d="M322 15 C252 -23 223 -60 223 -111 C223 -164 269 -204 332 -204 C368 -204 396 -193 432 -167 L417 -136 C399 -143 391 -145 378 -145 C348 -145 328 -121 328 -84 C328 -48 339 -23 372 15 L322 15 Z " />
<glyph glyph-name="tilde" unicode="&#x2dc;" horiz-adv-x="491" d="M127 485 C135 506 144 512 163 512 C178 512 201 508 223 502 C270 489 287 486 307 486 C364 486 400 540 400 623 L400 632 L355 632 C352 606 339 594 313 594 C299 594 285 596 272 599 C201 619 201 619 181 619 C150 619 115 600 102 576 C90 555 86 534 85 485 L127 485 Z " />
<glyph glyph-name="hungarumlaut" unicode="&#x2dd;" horiz-adv-x="485" d="M90 484 L139 484 L296 626 L296 639 L145 639 L90 484 Z M267 484 L317 484 L473 626 L473 639 L322 639 L267 484 Z " />
<glyph glyph-name="Wdieresis" unicode="&#x1e84;" horiz-adv-x="897" d="M689 -13 L812 460 C843 576 860 604 904 605 L909 604 L909 667 L700 667 L700 604 L705 604 C738 604 761 582 761 550 C761 543 758 520 756 512 L691 262 L538 667 L453 667 L327 262 L245 537 C242 548 240 559 240 570 C240 594 254 605 283 605 L288 604 L288 667 L-13 667 L-13 604 L-9 605 L-4 605 L-3 605 C35 602 43 592 66 517 L220 -13 L309 -13 L444 409 L603 -13 L689 -13 Z M351 897 C305 897 267 859 267 814 C267 767 304 729 351 729 C397 729 435 767 435 813 C435 860 398 897 351 897 L351 897 Z M609 897 C563 897 525 859 525 814 C525 767 562 729 609 729 C655 729 693 767 693 813 C693 860 656 897 609 897 L609 897 Z " />
<glyph glyph-name="uni2011" unicode="&#x2011;" horiz-adv-x="336" d="M28 260 L28 179 L315 179 L315 260 L28 260 Z " />
<glyph glyph-name="figuredash" unicode="&#x2012;" horiz-adv-x="528" d="M19 261 L19 187 L509 187 L509 261 L19 261 Z " />
<glyph glyph-name="endash" unicode="&#x2013;" horiz-adv-x="528" d="M19 261 L19 187 L509 187 L509 261 L19 261 Z " />
<glyph glyph-name="emdash" unicode="&#x2014;" horiz-adv-x="847" d="M19 261 L19 187 L828 187 L828 261 L19 261 Z " />
<glyph glyph-name="afii00208" unicode="&#x2015;" horiz-adv-x="847" d="M19 261 L19 187 L828 187 L828 261 L19 261 Z " />
<glyph glyph-name="quoteleft" unicode="&#x2018;" horiz-adv-x="339" d="M269 682 C148 681 64 592 64 464 C64 367 108 307 180 307 C238 307 278 349 278 408 C278 460 245 499 201 499 C195 499 189 498 183 496 C169 492 169 492 164 492 C152 492 146 499 146 513 C146 567 198 610 269 615 L269 682 Z " />
<glyph glyph-name="quoteright" unicode="&#x2019;" horiz-adv-x="309" d="M55 307 C90 307 119 314 151 331 C222 367 260 435 260 525 C260 622 216 682 143 682 C86 682 46 641 46 581 C46 529 79 490 122 490 C128 490 135 491 141 493 C154 497 154 497 159 497 C171 497 177 490 177 476 C177 422 124 378 55 374 L55 307 Z " />
<glyph glyph-name="quotesinglbase" unicode="&#x201a;" horiz-adv-x="339" d="M70 -202 C105 -202 134 -195 166 -179 C237 -143 275 -75 275 15 C275 112 231 172 159 172 C101 172 61 131 61 71 C61 19 94 -20 137 -20 C143 -20 150 -19 156 -17 C170 -13 170 -13 174 -13 C186 -13 192 -21 192 -34 C192 -88 140 -131 70 -135 L70 -202 Z " />
<glyph glyph-name="quotedblleft" unicode="&#x201c;" horiz-adv-x="600" d="M263 682 C142 681 58 592 58 464 C58 367 102 307 174 307 C232 307 272 349 272 408 C272 460 239 499 195 499 C189 499 183 498 177 496 C163 492 163 492 158 492 C146 492 140 499 140 513 C140 567 192 610 263 615 L263 682 Z M531 682 C410 681 326 592 326 464 C326 367 370 307 442 307 C500 307 540 348 540 408 C540 459 507 499 463 499 C457 499 451 498 445 496 C431 492 431 492 426 492 C414 492 408 499 408 513 C408 567 460 610 531 615 L531 682 Z " />
<glyph glyph-name="quotedblright" unicode="&#x201d;" horiz-adv-x="600" d="M65 307 C100 307 129 314 161 331 C232 367 270 435 270 525 C270 622 226 682 153 682 C96 682 56 641 56 581 C56 529 89 490 132 490 C138 490 145 491 151 493 C164 497 164 497 169 497 C181 497 187 490 187 476 C187 422 134 378 65 374 L65 307 Z M335 307 C370 307 399 314 431 331 C502 367 540 435 540 525 C540 622 496 682 424 682 C366 682 326 641 326 581 C326 529 359 490 402 490 C409 490 415 491 421 493 C436 497 436 497 440 497 C452 497 458 489 458 475 C458 422 405 378 335 374 L335 307 Z " />
<glyph glyph-name="quotedblbase" unicode="&#x201e;" horiz-adv-x="600" d="M59 -203 C94 -203 123 -195 155 -179 C226 -143 264 -75 264 15 C264 112 220 172 148 172 C90 172 50 130 50 70 C50 21 83 -20 124 -20 C129 -20 136 -19 145 -17 C151 -15 158 -14 159 -14 C161 -14 164 -14 164 -13 C165 -12 167 -12 167 -12 C173 -12 181 -25 181 -34 C181 -88 129 -132 59 -136 L59 -203 Z M329 -203 C364 -203 393 -195 425 -179 C496 -143 534 -75 534 15 C534 112 490 172 417 172 C360 172 320 131 320 71 C320 20 353 -20 395 -20 C401 -20 408 -19 415 -17 C420 -15 423 -14 425 -14 C430 -14 433 -14 434 -13 L438 -11 C444 -11 452 -24 452 -32 C452 -88 400 -131 329 -136 L329 -203 Z " />
<glyph glyph-name="dagger" unicode="&#x2020;" horiz-adv-x="533" d="M309 -246 L309 -203 C312 -71 315 -6 323 71 C335 188 336 204 336 252 C336 307 331 330 314 357 C319 355 321 354 329 350 C378 326 423 312 451 312 C492 312 518 343 518 391 C518 440 492 470 450 470 C424 470 386 459 343 438 L327 430 C323 429 318 427 314 425 L309 423 C339 486 354 545 354 599 C354 648 322 682 275 682 C226 682 197 647 197 585 C197 571 198 559 201 545 C207 509 225 454 242 423 C237 424 231 426 221 430 C152 462 121 473 96 473 C54 473 31 443 31 391 C31 344 57 312 96 312 C124 312 169 325 217 347 C229 353 235 355 242 357 C221 319 216 296 216 230 C216 205 217 196 222 164 C235 78 239 12 242 -145 L242 -246 L309 -246 Z " />
<glyph glyph-name="daggerdbl" unicode="&#x2021;" horiz-adv-x="558" d="M322 251 C323 267 328 292 332 304 C337 315 339 322 339 329 C339 347 330 373 315 395 L326 390 L344 383 L364 375 C420 352 433 348 460 348 C500 348 527 381 527 428 C527 481 499 513 454 513 C431 513 402 504 358 483 C334 472 327 469 315 464 C318 474 321 484 330 508 C353 569 356 582 356 616 C356 656 329 681 284 681 C236 681 207 655 207 613 C207 586 215 552 229 520 C241 490 243 484 249 464 L230 472 C162 502 129 512 104 512 C63 512 35 480 35 431 C35 385 62 350 98 350 C122 350 155 358 192 374 C222 386 234 391 249 395 C234 370 224 346 224 332 C224 326 227 314 231 301 C237 283 240 269 242 251 L322 251 Z M242 181 C241 170 239 164 236 153 C225 122 224 118 224 110 C224 92 231 72 249 37 C245 39 245 39 235 42 C225 45 207 52 181 63 C151 76 122 83 98 83 C62 83 35 48 35 1 C35 -46 63 -81 101 -81 C130 -81 176 -67 225 -43 C232 -40 237 -37 240 -36 C246 -34 247 -34 249 -33 C246 -45 242 -57 238 -66 C213 -125 207 -147 207 -178 C207 -225 234 -249 285 -249 C329 -249 355 -225 355 -184 C355 -152 351 -137 331 -82 C327 -72 324 -63 321 -55 C318 -47 317 -44 314 -33 C322 -37 323 -37 339 -44 C411 -77 425 -82 455 -82 C499 -82 526 -50 526 2 C526 50 499 83 459 83 C438 83 410 76 381 64 C375 61 367 58 361 56 C355 53 349 51 343 49 C337 46 331 44 326 42 L314 37 C331 65 339 90 339 111 C339 123 336 136 331 148 C325 164 323 170 322 181 L242 181 Z " />
<glyph glyph-name="bullet" unicode="&#x2022;" horiz-adv-x="633" d="M319 480 C244 480 186 418 186 340 C186 263 245 200 317 200 C389 200 447 263 447 340 C447 417 389 480 319 480 L319 480 Z " />
<glyph glyph-name="ellipsis" unicode="&#x2026;" horiz-adv-x="957" d="M157 178 C104 178 63 135 63 80 C63 26 105 -18 156 -18 C207 -18 249 26 249 80 C249 134 207 178 157 178 L157 178 Z M474 178 C421 178 380 135 380 80 C380 26 422 -18 473 -18 C524 -18 566 26 566 80 C566 134 524 178 474 178 L474 178 Z M790 178 C737 178 696 135 696 80 C696 26 738 -18 789 -18 C840 -18 882 26 882 80 C882 134 840 178 790 178 L790 178 Z " />
<glyph glyph-name="perthousand" unicode="&#x2030;" horiz-adv-x="1146" d="M193 680 C150 680 113 667 88 643 C55 610 34 557 34 505 C34 398 93 333 188 333 C285 333 346 401 346 507 C346 613 287 680 193 680 L193 680 Z M191 632 C215 632 226 596 226 516 C226 423 215 381 191 381 C164 381 155 417 155 527 C155 599 166 632 191 632 L191 632 Z M271 0 L596 675 L519 675 L193 0 L271 0 Z M602 335 C559 335 523 322 497 297 C464 265 443 212 443 159 C443 53 502 -13 597 -13 C695 -13 756 55 756 163 C756 268 696 335 602 335 L602 335 Z M601 287 C625 287 636 251 636 171 C636 77 625 35 600 35 C573 35 564 71 564 181 C564 253 576 287 601 287 L601 287 Z M958 335 C915 335 879 322 853 297 C820 265 799 212 799 159 C799 53 858 -13 954 -13 C1050 -13 1112 55 1112 162 C1112 268 1053 335 958 335 L958 335 Z M957 287 C980 287 992 249 992 173 C992 77 981 35 956 35 C929 35 920 71 920 181 C920 253 932 287 957 287 L957 287 Z " />
<glyph glyph-name="guilsinglleft" unicode="&#x2039;" horiz-adv-x="296" d="M20 217 L209 -6 L269 -6 L203 217 L268 440 L208 440 L20 217 Z " />
<glyph glyph-name="guilsinglright" unicode="&#x203a;" horiz-adv-x="297" d="M270 217 L83 440 L22 440 L87 217 L21 -6 L81 -6 L270 217 Z " />
<glyph glyph-name="uni203E" unicode="&#x203e;" horiz-adv-x="500" d="M0 847 L0 807 L500 807 L500 847 L0 847 Z " />
<glyph glyph-name="fraction" unicode="&#x2044;" horiz-adv-x="180" d="M-34 0 L292 675 L215 675 L-111 0 L-34 0 Z " />
<glyph glyph-name="franc" unicode="&#x20a3;" horiz-adv-x="880" d="M566 667 L25 667 L25 605 L35 605 C87 603 105 586 105 539 L105 127 C105 79 91 66 34 63 L28 63 L28 0 L381 0 L381 63 L371 63 C315 66 298 81 299 127 L299 313 L343 313 C386 311 394 299 400 237 L400 232 L460 232 L460 459 L400 459 L400 451 C395 396 384 383 344 382 L299 382 L299 599 L391 599 C457 600 479 580 510 488 L571 488 L566 667 Z M501 274 L503 274 C540 272 551 262 552 227 L552 98 C551 63 542 54 504 52 L502 52 L502 0 L768 0 L768 52 L761 52 C722 54 712 63 711 98 L711 131 C711 198 717 241 728 251 C738 260 747 264 757 264 C768 264 779 259 790 247 C813 223 820 219 839 219 C875 219 899 247 899 289 C899 335 869 367 826 367 C777 367 737 338 705 278 C703 317 699 342 691 367 C659 360 649 358 598 347 C524 331 518 330 501 326 L501 274 Z " />
<glyph glyph-name="Euro" unicode="&#x20ac;" horiz-adv-x="754" d="M316 394 C319 443 324 478 332 502 C354 569 399 605 463 605 C522 605 569 576 603 519 C623 484 637 448 646 410 L705 410 L699 655 L640 655 L639 653 L638 649 C632 633 629 623 628 620 C626 614 625 612 621 602 C562 657 507 679 430 679 C263 679 135 568 102 394 L59 394 L34 333 L96 333 L97 309 L59 309 L34 248 L105 248 C141 88 265 -14 424 -14 C505 -14 585 17 630 66 C641 51 649 31 656 3 L716 3 L716 258 L656 258 C650 232 634 188 622 161 C594 102 529 60 466 60 C403 60 352 97 332 156 C324 179 321 198 317 248 L480 248 L504 309 L314 309 L314 333 L514 333 L538 394 L316 394 Z " />
<glyph glyph-name="trademark" unicode="&#x2122;" horiz-adv-x="954" d="M369 561 L369 667 L12 667 L12 561 L32 561 C35 615 58 640 104 639 L122 639 L122 347 C122 315 116 308 87 306 L78 306 L78 287 L302 287 L302 306 L293 306 C264 308 258 315 258 347 L258 639 L276 639 C322 640 347 614 349 561 L369 561 Z M380 667 L380 648 C421 647 427 643 427 619 L427 348 C427 319 416 309 381 306 L381 287 L510 287 L510 306 C475 309 463 320 463 348 L463 598 L592 287 L611 287 L741 588 L741 348 C741 314 736 308 707 306 L694 306 L694 287 L918 287 L918 306 L906 306 C879 308 874 314 874 348 L874 606 C874 640 879 646 906 648 L920 648 L920 667 L739 667 L650 466 L567 667 L380 667 Z " />
<glyph glyph-name="uni2126" unicode="&#x2126;" horiz-adv-x="768" d="M326 0 L308 155 C230 199 180 288 180 382 C180 434 195 493 221 540 C257 605 317 642 385 642 C453 642 513 605 549 540 C575 493 590 434 590 382 C590 288 540 199 462 155 L444 0 L736 0 L736 153 L712 153 C704 108 684 90 643 90 L497 90 L500 128 C535 141 557 151 580 166 C657 215 702 296 702 382 C702 449 673 522 625 578 C564 648 480 686 385 686 C290 686 206 648 145 578 C97 522 68 449 68 382 C68 296 113 215 190 166 C213 151 235 141 270 128 L273 90 L127 90 C86 90 66 108 58 153 L34 153 L34 0 L326 0 Z " />
<glyph glyph-name="partialdiff" unicode="&#x2202;" horiz-adv-x="494" d="M107 674 C152 697 184 706 219 706 C321 706 379 611 379 448 C379 418 377 395 372 346 C308 396 272 412 221 412 C172 412 131 394 95 355 C51 309 26 246 26 184 C26 76 109 -10 213 -10 C282 -10 341 22 383 84 C429 152 462 286 462 403 C462 519 428 611 360 681 C312 730 259 753 195 753 C156 753 122 746 66 725 L107 674 Z M366 312 C350 201 339 158 314 107 C288 54 245 21 201 21 C146 21 113 73 113 159 C113 273 180 367 261 367 C299 367 324 354 366 312 L366 312 Z " />
<glyph glyph-name="Delta" unicode="&#x2206;" horiz-adv-x="612" d="M6 0 L608 0 L327 688 L6 0 Z M77 51 L290 509 L479 51 L77 51 Z " />
<glyph glyph-name="product" unicode="&#x220f;" horiz-adv-x="823" d="M25 -124 L315 -124 L315 -98 L312 -98 C242 -94 221 -67 224 18 L224 594 C224 656 228 677 242 690 C260 707 272 708 413 708 C556 708 568 707 586 690 C600 677 604 656 604 594 L604 18 C607 -67 586 -94 516 -98 L513 -98 L513 -124 L803 -124 L803 -98 L800 -98 C730 -94 709 -67 712 18 L712 609 C709 694 730 721 800 725 L803 725 L803 751 L25 751 L25 725 L28 725 C98 721 119 694 116 609 L116 18 C119 -67 98 -94 28 -98 L25 -98 L25 -124 Z " />
<glyph glyph-name="summation" unicode="&#x2211;" horiz-adv-x="713" d="M176 711 L444 711 C560 710 590 688 606 587 L632 587 L622 752 L23 752 L256 285 L14 -123 L641 -123 L695 87 L669 87 C639 7 605 -12 491 -11 L163 -11 L364 341 L176 711 Z " />
<glyph glyph-name="minus" unicode="&#x2212;" horiz-adv-x="475" d="M-3 427 L-3 326 L478 326 L478 427 L-3 427 Z " />
<glyph glyph-name="uni2215" unicode="&#x2215;" horiz-adv-x="180" d="M-34 0 L292 675 L215 675 L-111 0 L-34 0 Z " />
<glyph glyph-name="uni2219" unicode="&#x2219;" horiz-adv-x="284" d="M134 430 C83 430 41 386 41 334 C41 278 82 234 133 234 C185 234 227 278 227 332 C227 386 185 430 134 430 L134 430 Z " />
<glyph glyph-name="radical" unicode="&#x221a;" horiz-adv-x="549" d="M363 -35 L515 908 L480 913 L353 123 L156 520 L10 449 L26 414 L121 461 L363 -35 Z " />
<glyph glyph-name="infinity" unicode="&#x221e;" horiz-adv-x="713" d="M357 303 C300 375 234 414 171 414 C86 414 26 351 26 263 C26 176 84 115 167 115 C224 115 282 143 327 192 C335 201 340 207 357 228 C415 156 485 115 548 115 C631 115 688 176 688 266 C688 354 629 414 543 414 C476 414 412 376 357 303 L357 303 Z M391 265 C434 325 493 362 546 362 C600 362 638 321 638 264 C638 205 603 167 549 167 C495 167 461 188 391 265 L391 265 Z M324 266 C275 203 216 167 163 167 C111 167 76 207 76 266 C76 323 113 362 167 362 C218 362 259 337 324 266 L324 266 Z " />
<glyph glyph-name="integral" unicode="&#x222b;" horiz-adv-x="274" d="M180 576 C180 653 179 691 176 746 C174 774 173 800 173 815 C173 855 184 878 202 878 C208 878 213 876 215 872 C232 845 239 839 256 839 C276 839 291 853 291 871 C291 898 267 916 231 916 C186 916 152 887 138 838 C123 784 113 682 113 577 L113 232 C113 160 114 124 117 63 C119 34 120 4 120 -12 C120 -47 108 -70 89 -70 C81 -70 74 -65 68 -52 C59 -35 51 -30 37 -30 C17 -30 2 -44 2 -63 C2 -89 26 -107 62 -107 C107 -107 141 -78 155 -29 C170 25 180 126 180 232 L180 576 Z " />
<glyph glyph-name="approxequal" unicode="&#x2248;" horiz-adv-x="549" d="M489 251 C444 199 423 187 384 187 C365 187 354 190 285 211 C212 234 188 239 160 239 C101 239 54 211 14 155 L57 121 C103 174 120 184 159 184 C180 184 180 184 271 157 C350 133 354 132 385 132 C449 132 496 160 527 217 L489 251 Z M489 408 C443 356 424 344 384 344 C365 344 354 347 285 369 C212 392 188 397 160 397 C101 397 54 369 14 312 L57 279 C104 332 119 342 159 342 C181 342 181 342 271 315 C351 290 354 289 385 289 C449 289 496 318 527 375 L489 408 Z " />
<glyph glyph-name="notequal" unicode="&#x2260;" horiz-adv-x="549" d="M187 142 L115 -1 L161 -25 L246 142 L540 142 L540 197 L273 197 L344 336 L540 336 L540 391 L371 391 L439 525 L392 549 L312 391 L15 391 L15 336 L285 336 L215 197 L15 197 L15 142 L187 142 Z " />
<glyph glyph-name="lessequal" unicode="&#x2264;" horiz-adv-x="549" d="M526 55 L29 55 L29 0 L526 0 L526 55 Z M526 639 L29 405 L29 350 L526 117 L526 179 L108 378 L526 577 L526 639 Z " />
<glyph glyph-name="greaterequal" unicode="&#x2265;" horiz-adv-x="549" d="M526 55 L29 55 L29 0 L526 0 L526 55 Z M29 639 L29 577 L447 378 L29 179 L29 117 L526 350 L526 405 L29 639 Z " />
<glyph glyph-name="lozenge" unicode="&#x25ca;" horiz-adv-x="494" d="M209 0 L269 -1 L466 374 L277 740 L214 740 L18 377 L209 0 Z M240 58 L81 376 L245 683 L402 373 L240 58 Z " />
<glyph glyph-name="fi" unicode="&#xfb01;" horiz-adv-x="658" d="M17 342 L88 342 L88 111 C87 70 76 61 26 59 L14 59 L14 0 L321 0 L321 59 L319 59 C275 61 261 74 260 111 L260 342 L338 342 C389 340 397 334 400 291 L400 111 C399 71 389 61 351 59 L348 59 L348 0 L651 0 L651 59 L639 59 C595 61 582 72 581 111 L581 414 L577 414 C542 407 451 402 382 403 L260 403 L260 495 C260 558 261 568 273 589 C282 605 304 615 331 615 C371 615 388 601 402 558 C418 510 440 491 476 491 C521 491 561 529 561 571 C561 600 540 631 508 650 C475 669 419 679 350 679 C260 679 200 661 154 621 C108 581 88 526 88 434 L88 403 L17 403 L17 342 Z " />
<glyph glyph-name="fl" unicode="&#xfb02;" horiz-adv-x="657" d="M90 403 L19 403 L19 342 L90 342 L90 111 C89 70 78 61 29 60 L16 60 L16 0 L323 0 L323 60 L321 60 C277 61 263 73 262 111 L262 342 L399 342 L399 111 C398 73 388 62 351 60 L349 60 L349 0 L651 0 L651 60 L638 60 C594 61 581 73 580 111 L580 679 L575 679 L577 680 C512 668 500 666 463 665 C426 676 396 680 354 680 C256 680 185 657 142 610 C106 571 90 512 90 418 L90 403 Z M262 403 L262 508 C262 589 279 615 333 615 C364 615 387 597 399 560 L399 403 L262 403 Z " />
</font>
</svg>
